<?xml version="1.0" encoding="UTF-8" standalone="no"?><!DOCTYPE svg PUBLIC "-//W3C//DTD SVG 1.1//EN" "http://www.w3.org/Graphics/SVG/1.1/DTD/svg11.dtd"><svg width="100%" height="100%" viewBox="0 0 650 650" version="1.1" xmlns="http://www.w3.org/2000/svg" xmlns:xlink="http://www.w3.org/1999/xlink" xml:space="preserve" xmlns:serif="http://www.serif.com/" style="fill-rule:evenodd;clip-rule:evenodd;stroke-linecap:round;stroke-linejoin:round;stroke-miterlimit:1.5;"><g><circle cx="225" cy="27.5" r="10" style="fill:#ed274b;"/><circle cx="325" cy="27.5" r="10" style="fill:#ed274b;"/><circle cx="425" cy="27.5" r="10" style="fill:#ed274b;"/><circle cx="425" cy="127.5" r="10" style="fill:#ed274b;"/><circle cx="425" cy="227.5" r="10" style="fill:#ed274b;"/><circle cx="325" cy="227.5" r="10" style="fill:#ed274b;"/><circle cx="225" cy="227.5" r="10" style="fill:#ed274b;"/><circle cx="225" cy="127.5" r="10" style="fill:#ed274b;"/><rect x="220" y="22.5" width="210" height="210" style="fill:#ed274b;"/></g><g><path d="M425,427.5l0,200" style="fill:none;stroke:#000;stroke-width:1px;"/><path d="M225,627.5l0,-200" style="fill:none;stroke:#000;stroke-width:1px;"/><path d="M225,27.5l200,0" style="fill:none;stroke:#000;stroke-width:1px;stroke-dasharray:5,5,0,0;"/><path d="M425,27.5l0,200l200,0l0,200" style="fill:none;stroke:#000;stroke-width:1px;"/><path d="M25,427.5l0,-200l200,0l0,-200" style="fill:none;stroke:#000;stroke-width:1px;"/><path d="M225,427.5l0,-200" style="fill:none;stroke:#000;stroke-width:1px;"/><path d="M225,227.5l200,0" style="fill:none;stroke:#000;stroke-width:1px;stroke-dasharray:5,5,0,0;"/><path d="M425,227.5l0,200" style="fill:none;stroke:#000;stroke-width:1px;"/><path d="M125,227.5l0,200" style="fill:none;stroke:#000;stroke-width:1px;"/><path d="M225,527.5l200,0" style="fill:none;stroke:#000;stroke-width:1px;stroke-dasharray:5,5,0,0;"/><path d="M225,627.5l200,0" style="fill:none;stroke:#000;stroke-width:1px;stroke-dasharray:5,5,0,0;"/><path d="M225,127.5l200,0" style="fill:none;stroke:#000;stroke-width:1px;stroke-dasharray:5,5,0,0;"/><path d="M525,227.5l0,200" style="fill:none;stroke:#000;stroke-width:1px;"/><path d="M425,227.5l-200,-200" style="fill:none;stroke:#000;stroke-width:1px;"/><path d="M425,27.5l-200,200" style="fill:none;stroke:#000;stroke-width:1px;"/><path d="M25,327.5l600,0" style="fill:none;stroke:#000;stroke-width:1px;stroke-dasharray:5,5,0,0;"/><path d="M25,427.5l600,0" style="fill:none;stroke:#000;stroke-width:1px;stroke-dasharray:5,5,0,0;"/><path d="M325,27.5l0,600" style="fill:none;stroke:#000;stroke-width:1px;"/><circle cx="325" cy="327.5" r="5"/><circle cx="325" cy="227.5" r="5"/><circle cx="325" cy="127.5" r="5"/><circle cx="225" cy="127.5" r="5"/><circle cx="425" cy="127.5" r="5"/><circle cx="425" cy="27.5" r="5"/><circle cx="325" cy="27.5" r="5"/><circle cx="225" cy="27.5" r="5"/><circle cx="325" cy="427.5" r="5"/><circle cx="225" cy="527.5" r="5"/><circle cx="325" cy="527.5" r="5"/><circle cx="425" cy="527.5" r="5"/><circle cx="425" cy="627.5" r="5"/><circle cx="325" cy="627.5" r="5"/><circle cx="225" cy="627.5" r="5"/><circle cx="225" cy="327.5" r="5"/><circle cx="225" cy="227.5" r="5"/><circle cx="225" cy="427.5" r="5"/><circle cx="125" cy="327.5" r="5"/><circle cx="125" cy="227.5" r="5"/><circle cx="125" cy="427.5" r="5"/><circle cx="25" cy="327.5" r="5"/><circle cx="25" cy="227.5" r="5"/><circle cx="25" cy="427.5" r="5"/><circle cx="425" cy="327.5" r="5"/><circle cx="425" cy="227.5" r="5"/><circle cx="425" cy="427.5" r="5"/><circle cx="525" cy="327.5" r="5"/><circle cx="525" cy="227.5" r="5"/><circle cx="525" cy="427.5" r="5"/><circle cx="625" cy="327.5" r="5"/><circle cx="625" cy="227.5" r="5"/><circle cx="625" cy="427.5" r="5"/></g></svg>
