<?xml version="1.0" encoding="UTF-8" standalone="no"?><!DOCTYPE svg PUBLIC "-//W3C//DTD SVG 1.1//EN" "http://www.w3.org/Graphics/SVG/1.1/DTD/svg11.dtd"><svg width="650" height="650" viewBox="0 0 650 650" version="1.1" xmlns="http://www.w3.org/2000/svg" xmlns:xlink="http://www.w3.org/1999/xlink" xml:space="preserve" xmlns:serif="http://www.serif.com/" style="fill-rule:evenodd;clip-rule:evenodd;stroke-linecap:round;stroke-linejoin:round;stroke-miterlimit:1.5;"><g><circle cx="225" cy="27.5" r="10" style="fill:#eb7464;"/><circle cx="325" cy="27.5" r="10" style="fill:#eb7464;"/><circle cx="425" cy="27.5" r="10" style="fill:#eb7464;"/><circle cx="425" cy="127.5" r="10" style="fill:#eb7464;"/><circle cx="425" cy="227.5" r="10" style="fill:#eb7464;"/><circle cx="325" cy="227.5" r="10" style="fill:#eb7464;"/><circle cx="225" cy="227.5" r="10" style="fill:#eb7464;"/><circle cx="225" cy="127.5" r="10" style="fill:#eb7464;"/><rect x="220" y="22.5" width="210" height="210" style="fill:#eb7464;"/></g><g><path d="M425,427.5l0,200" style="fill:none;stroke:#000;stroke-width:1px;"/><path d="M225,627.5l0,-200" style="fill:none;stroke:#000;stroke-width:1px;"/><path d="M225,27.5l200,0" style="fill:none;stroke:#000;stroke-width:1px;stroke-dasharray:5,5,0,0;"/><path d="M425,27.5l0,200l200,0l0,200" style="fill:none;stroke:#000;stroke-width:1px;"/><path d="M25,427.5l0,-200l200,0l0,-200" style="fill:none;stroke:#000;stroke-width:1px;"/><path d="M225,427.5l0,-200" style="fill:none;stroke:#000;stroke-width:1px;"/><path d="M225,227.5l200,0" style="fill:none;stroke:#000;stroke-width:1px;stroke-dasharray:5,5,0,0;"/><path d="M425,227.5l0,200" style="fill:none;stroke:#000;stroke-width:1px;"/><path d="M125,227.5l0,200" style="fill:none;stroke:#000;stroke-width:1px;"/><path d="M225,527.5l200,0" style="fill:none;stroke:#000;stroke-width:1px;stroke-dasharray:5,5,0,0;"/><path d="M225,627.5l200,0" style="fill:none;stroke:#000;stroke-width:1px;stroke-dasharray:5,5,0,0;"/><path d="M225,127.5l200,0" style="fill:none;stroke:#000;stroke-width:1px;stroke-dasharray:5,5,0,0;"/><path d="M525,227.5l0,200" style="fill:none;stroke:#000;stroke-width:1px;"/><path d="M625,427.5l-400,-400" style="fill:none;stroke:#000;stroke-width:1px;"/><path d="M25,227.5l400,400" style="fill:none;stroke:#000;stroke-width:1px;"/><path d="M225,627.5l400,-400" style="fill:none;stroke:#000;stroke-width:1px;"/><path d="M425,27.5l-400,400" style="fill:none;stroke:#000;stroke-width:1px;"/><path d="M225,227.5l200,200" style="fill:none;stroke:#000;stroke-width:1px;"/><path d="M425,227.5l-200,200" style="fill:none;stroke:#000;stroke-width:1px;"/><path d="M25,327.5l600,0" style="fill:none;stroke:#000;stroke-width:1px;stroke-dasharray:5,5,0,0;"/><path d="M25,427.5l600,0" style="fill:none;stroke:#000;stroke-width:1px;stroke-dasharray:5,5,0,0;"/><path d="M325,27.5l0,600" style="fill:none;stroke:#000;stroke-width:1px;"/><circle cx="325" cy="327.5" r="5"/><circle cx="325" cy="227.5" r="5"/><circle cx="325" cy="127.5" r="5"/><circle cx="225" cy="127.5" r="5"/><circle cx="425" cy="127.5" r="5"/><circle cx="425" cy="27.5" r="5"/><circle cx="325" cy="27.5" r="5"/><circle cx="225" cy="27.5" r="5"/><circle cx="325" cy="427.5" r="5"/><circle cx="225" cy="527.5" r="5"/><circle cx="325" cy="527.5" r="5"/><circle cx="425" cy="527.5" r="5"/><circle cx="425" cy="627.5" r="5"/><circle cx="325" cy="627.5" r="5"/><circle cx="225" cy="627.5" r="5"/><circle cx="225" cy="327.5" r="5"/><circle cx="225" cy="227.5" r="5"/><circle cx="225" cy="427.5" r="5"/><circle cx="125" cy="327.5" r="5"/><circle cx="125" cy="227.5" r="5"/><circle cx="125" cy="427.5" r="5"/><circle cx="25" cy="327.5" r="5"/><circle cx="25" cy="227.5" r="5"/><circle cx="25" cy="427.5" r="5"/><circle cx="425" cy="327.5" r="5"/><circle cx="425" cy="227.5" r="5"/><circle cx="425" cy="427.5" r="5"/><circle cx="525" cy="327.5" r="5"/><circle cx="525" cy="227.5" r="5"/><circle cx="525" cy="427.5" r="5"/><circle cx="625" cy="327.5" r="5"/><circle cx="625" cy="227.5" r="5"/><circle cx="625" cy="427.5" r="5"/><path d="M210.265,376.984l2.495,33.819l-28.552,-18.295l26.057,-15.524Z" style="fill:#00b796;"/><path d="M202.153,236.364c-13.285,23.737 -25.726,50.569 -26.065,78.383c-0.208,17.06 6.167,32.049 12.334,47.595c3.673,9.258 6.798,19.02 11.919,27.615" style="fill:none;stroke:#00b796;stroke-width:10.11px;stroke-linecap:butt;"/><path d="M398.826,383.689l16.486,26.726l-31.272,-2.847l14.786,-23.879Z" style="fill:#00b796;"/><path d="M241.34,424.211c32.676,-30.574 74.009,-33.787 116.346,-31.629c13.368,0.682 26.583,1.56 38.523,6.004" style="fill:none;stroke:#00b796;stroke-width:9.36px;stroke-linecap:butt;"/><path d="M449.736,279.418l-0.923,-38.548l31.392,22.391l-30.469,16.157Z" style="fill:#00b796;"/><path d="M435,415c11.228,-10.207 20.649,-22.031 26.606,-36.09c4.741,-11.191 6.994,-23.373 7.646,-35.474c1.223,-22.717 0.875,-53.401 -7.513,-78.19" style="fill:none;stroke:#00b796;stroke-width:11.5px;stroke-linecap:butt;"/></g><circle cx="225" cy="227.5" r="15" style="fill:#ffe900;stroke:#000;stroke-width:1px;"/><circle cx="225" cy="327.5" r="15" style="fill:#8a69d4;stroke:#000;stroke-width:1px;"/><circle cx="425" cy="327.5" r="15" style="fill:#8a69d4;stroke:#000;stroke-width:1px;"/><circle cx="325" cy="427.5" r="15" style="fill:#8a69d4;stroke:#000;stroke-width:1px;"/></svg>
