<?xml version="1.0" encoding="UTF-8" standalone="no"?><!DOCTYPE svg PUBLIC "-//W3C//DTD SVG 1.1//EN" "http://www.w3.org/Graphics/SVG/1.1/DTD/svg11.dtd"><svg width="450" height="450" viewBox="0 0 450 450" version="1.1" xmlns="http://www.w3.org/2000/svg" xmlns:xlink="http://www.w3.org/1999/xlink" xml:space="preserve" xmlns:serif="http://www.serif.com/" style="fill-rule:evenodd;clip-rule:evenodd;stroke-linecap:round;stroke-linejoin:round;stroke-miterlimit:1.5;"><g><circle cx="75" cy="29.5" r="13" style="fill:#ed274b;"/><circle cx="125" cy="29.5" r="13" style="fill:#ed274b;"/><circle cx="175" cy="29.5" r="13" style="fill:#ed274b;"/><circle cx="225" cy="29.5" r="13" style="fill:#ed274b;"/><circle cx="275" cy="29.5" r="13" style="fill:#ed274b;"/><circle cx="325" cy="29.5" r="13" style="fill:#ed274b;"/><circle cx="375" cy="29.5" r="13" style="fill:#ed274b;"/><circle cx="325" cy="79.5" r="13" style="fill:#ed274b;"/><circle cx="325" cy="128.5" r="13" style="fill:#ed274b;"/><circle cx="275" cy="128.5" r="13" style="fill:#ed274b;"/><circle cx="225" cy="128.5" r="13" style="fill:#ed274b;"/><circle cx="175" cy="128.5" r="13" style="fill:#ed274b;"/><circle cx="125" cy="128.5" r="13" style="fill:#ed274b;"/><circle cx="125" cy="79.5" r="13" style="fill:#ed274b;"/><path d="M63,25.5l54,54l0,54l216,0l0,-54l54,-54l-321.84,0" style="fill:#ed274b;"/></g><path d="M125,129.5l-100,0l0,200l100,0l0,100l200,0l0,-100l100,0l0,-200l-100,0" style="fill:none;stroke:#000;stroke-width:1px;"/><g><path d="M125,329.5l200,0" style="fill:none;stroke:#000;stroke-width:1px;"/><circle cx="125" cy="329.5" r="4"/><circle cx="75" cy="329.5" r="4"/><circle cx="25" cy="329.5" r="4"/><circle cx="225" cy="329.5" r="4"/><circle cx="175" cy="329.5" r="4"/><circle cx="275" cy="329.5" r="4"/><circle cx="375" cy="329.5" r="4"/><circle cx="425" cy="329.5" r="4"/><circle cx="325" cy="329.5" r="4"/></g><g><path d="M125,279.5l200,0" style="fill:none;stroke:#000;stroke-width:1px;"/><circle cx="125" cy="279.5" r="4"/><circle cx="75" cy="279.5" r="4"/><circle cx="25" cy="279.5" r="4"/><circle cx="225" cy="279.5" r="4"/><circle cx="175" cy="279.5" r="4"/><circle cx="275" cy="279.5" r="4"/><circle cx="375" cy="279.5" r="4"/><circle cx="425" cy="279.5" r="4"/><circle cx="325" cy="279.5" r="4"/></g><g><path d="M125,229.5l200,0" style="fill:none;stroke:#000;stroke-width:1px;"/><circle cx="125" cy="229.5" r="4"/><circle cx="75" cy="229.5" r="4"/><circle cx="25" cy="229.5" r="4"/><circle cx="225" cy="229.5" r="4"/><circle cx="175" cy="229.5" r="4"/><circle cx="275" cy="229.5" r="4"/><circle cx="375" cy="229.5" r="4"/><circle cx="425" cy="229.5" r="4"/><circle cx="325" cy="229.5" r="4"/></g><g><path d="M125,179.5l200,0" style="fill:none;stroke:#000;stroke-width:1px;"/><circle cx="125" cy="179.5" r="4"/><circle cx="75" cy="179.5" r="4"/><circle cx="25" cy="179.5" r="4"/><circle cx="225" cy="179.5" r="4"/><circle cx="175" cy="179.5" r="4"/><circle cx="275" cy="179.5" r="4"/><circle cx="375" cy="179.5" r="4"/><circle cx="425" cy="179.5" r="4"/><circle cx="325" cy="179.5" r="4"/></g><g><path d="M125,129.5l200,0" style="fill:none;stroke:#000;stroke-width:1px;"/><circle cx="125" cy="129.5" r="4"/><circle cx="75" cy="129.5" r="4"/><circle cx="25" cy="129.5" r="4"/><circle cx="225" cy="129.5" r="4"/><circle cx="175" cy="129.5" r="4"/><circle cx="275" cy="129.5" r="4"/><circle cx="375" cy="129.5" r="4"/><circle cx="425" cy="129.5" r="4"/><circle cx="325" cy="129.5" r="4"/></g><g><path d="M125,79.5l200,0" style="fill:none;stroke:#000;stroke-width:1px;"/><circle cx="125" cy="79.5" r="4"/><circle cx="225" cy="79.5" r="4"/><circle cx="175" cy="79.5" r="4"/><circle cx="275" cy="79.5" r="4"/><circle cx="325" cy="79.5" r="4"/></g><g><circle cx="125" cy="29.5" r="4"/><circle cx="75" cy="29.5" r="4"/><circle cx="225" cy="29.5" r="4"/><circle cx="175" cy="29.5" r="4"/><circle cx="275" cy="29.5" r="4"/><circle cx="325" cy="29.5" r="4"/><circle cx="375" cy="29.5" r="4"/></g><g><path d="M125,379.5l200,0" style="fill:none;stroke:#000;stroke-width:1px;"/><circle cx="125" cy="379.5" r="4"/><circle cx="225" cy="379.5" r="4"/><circle cx="175" cy="379.5" r="4"/><circle cx="275" cy="379.5" r="4"/><circle cx="325" cy="379.5" r="4"/></g><g><path d="M125,429.5l200,0" style="fill:none;stroke:#000;stroke-width:1px;"/><circle cx="125" cy="429.5" r="4"/><circle cx="225" cy="429.5" r="4"/><circle cx="175" cy="429.5" r="4"/><circle cx="275" cy="429.5" r="4"/><circle cx="325" cy="429.5" r="4"/></g><path d="M125,379.5l200,0" style="fill:none;stroke:#000;stroke-width:1px;"/><path d="M425,229.5l-400,0" style="fill:none;stroke:#000;stroke-width:1px;"/><path d="M125,29.5l0,300" style="fill:none;stroke:#000;stroke-width:1px;"/><path d="M325,29.5l0,300" style="fill:none;stroke:#000;stroke-width:1px;"/><path d="M25,279.5l400,0" style="fill:none;stroke:#000;stroke-width:1px;"/><path d="M425,179.5l-400,0" style="fill:none;stroke:#000;stroke-width:1px;"/><path d="M125,129.5l200,0" style="fill:none;stroke:#000;stroke-width:1px;"/><path d="M225,29.5l0,400" style="fill:none;stroke:#000;stroke-width:1px;"/><path d="M275,29.5l0,400" style="fill:none;stroke:#000;stroke-width:1px;"/><path d="M175,29.5l0,400" style="fill:none;stroke:#000;stroke-width:1px;"/><path d="M125,429.5l300,-300" style="fill:none;stroke:#000;stroke-width:1px;"/><path d="M25,129.5l300,300" style="fill:none;stroke:#000;stroke-width:1px;"/><path d="M425,229.5l-200,-200" style="fill:none;stroke:#000;stroke-width:1px;"/><path d="M25,229.5l200,-200" style="fill:none;stroke:#000;stroke-width:1px;"/><path d="M225,429.5l-200,-200" style="fill:none;stroke:#000;stroke-width:1px;"/><path d="M225,429.5l200,-200" style="fill:none;stroke:#000;stroke-width:1px;"/><path d="M375,329.5l0,-200" style="fill:none;stroke:#000;stroke-width:1px;"/><path d="M75,129.5l0,200" style="fill:none;stroke:#000;stroke-width:1px;"/><path d="M25,329.5l300,-300" style="fill:none;stroke:#000;stroke-width:1px;"/><path d="M425,329.5l-300,-300" style="fill:none;stroke:#000;stroke-width:1px;"/><path d="M125,329.5l200,-200" style="fill:none;stroke:#000;stroke-width:1px;"/><path d="M325,329.5l-200,-200" style="fill:none;stroke:#000;stroke-width:1px;"/><path d="M125,79.5l200,0" style="fill:none;stroke:#000;stroke-width:1px;"/><path d="M125,79.5l-50,-50l300,0l-50,50" style="fill:none;stroke:#000;stroke-width:1px;"/></svg>
