<?xml version="1.0" encoding="UTF-8" standalone="no"?><!DOCTYPE svg PUBLIC "-//W3C//DTD SVG 1.1//EN" "http://www.w3.org/Graphics/SVG/1.1/DTD/svg11.dtd"><svg width="450" height="450" viewBox="0 0 450 450" version="1.1" xmlns="http://www.w3.org/2000/svg" xmlns:xlink="http://www.w3.org/1999/xlink" xml:space="preserve" xmlns:serif="http://www.serif.com/" style="fill-rule:evenodd;clip-rule:evenodd;stroke-linecap:round;stroke-linejoin:round;stroke-miterlimit:1.5;"><g><path d="M82,27c-0,3.863 -3.137,7 -7,7c-3.863,0 -7,-3.137 -7,-7c-0,-3.863 3.137,-7 7,-7c3.863,0 7,3.137 7,7Z" style="fill:#ed274b;"/><path d="M382,27c0,3.863 -3.137,7 -7,7c-3.863,-0 -7,-3.137 -7,-7c0,-3.863 3.137,-7 7,-7c3.863,0 7,3.137 7,7Z" style="fill:#ed274b;"/><path d="M332,27c0,3.863 -3.137,7 -7,7c-3.863,-0 -7,-3.137 -7,-7c0,-3.863 3.137,-7 7,-7c3.863,0 7,3.137 7,7Z" style="fill:#ed274b;"/><path d="M282,27c0,3.863 -3.137,7 -7,7c-3.863,-0 -7,-3.137 -7,-7c0,-3.863 3.137,-7 7,-7c3.863,0 7,3.137 7,7Z" style="fill:#ed274b;"/><path d="M232,27c0,3.863 -3.137,7 -7,7c-3.863,-0 -7,-3.137 -7,-7c0,-3.863 3.137,-7 7,-7c3.863,0 7,3.137 7,7Z" style="fill:#ed274b;"/><path d="M182,27c0,3.863 -3.137,7 -7,7c-3.863,-0 -7,-3.137 -7,-7c0,-3.863 3.137,-7 7,-7c3.863,0 7,3.137 7,7Z" style="fill:#ed274b;"/><path d="M132,27c0,3.863 -3.137,7 -7,7c-3.863,-0 -7,-3.137 -7,-7c0,-3.863 3.137,-7 7,-7c3.863,0 7,3.137 7,7Z" style="fill:#ed274b;"/><path d="M132,77c0,3.863 -3.137,7 -7,7c-3.863,-0 -7,-3.137 -7,-7c0,-3.863 3.137,-7 7,-7c3.863,0 7,3.137 7,7Z" style="fill:#ed274b;"/><path d="M132,127c0,3.863 -3.137,7 -7,7c-3.863,-0 -7,-3.137 -7,-7c0,-3.863 3.137,-7 7,-7c3.863,0 7,3.137 7,7Z" style="fill:#ed274b;"/><path d="M182,127c0,3.863 -3.137,7 -7,7c-3.863,-0 -7,-3.137 -7,-7c0,-3.863 3.137,-7 7,-7c3.863,0 7,3.137 7,7Z" style="fill:#ed274b;"/><path d="M232,127c-0,3.863 -3.137,7 -7,7c-3.863,-0 -7,-3.137 -7,-7c-0,-3.863 3.137,-7 7,-7c3.863,0 7,3.137 7,7Z" style="fill:#ed274b;"/><path d="M282,127c0,3.863 -3.137,7 -7,7c-3.863,-0 -7,-3.137 -7,-7c0,-3.863 3.137,-7 7,-7c3.863,0 7,3.137 7,7Z" style="fill:#ed274b;"/><path d="M332,127c0,3.863 -3.137,7 -7,7c-3.863,-0 -7,-3.137 -7,-7c0,-3.863 3.137,-7 7,-7c3.863,0 7,3.137 7,7Z" style="fill:#ed274b;"/><path d="M332,77c0,3.863 -3.137,7 -7,7c-3.863,-0 -7,-3.137 -7,-7c0,-3.863 3.137,-7 7,-7c3.863,0 7,3.137 7,7Z" style="fill:#ed274b;"/><path d="M69,25l52,52l0,52l208,-0l-0,-52l52,-52l-312,0Z" style="fill:#ed274b;"/></g><rect x="25" y="127" width="400" height="200" style="fill:none;stroke:#000;stroke-width:1px;"/><path d="M125,27l-0,400l200,0l0,-400" style="fill:none;stroke:#000;stroke-width:1px;"/><path d="M75,127l0,200l100,100" style="fill:none;stroke:#000;stroke-width:1px;"/><path d="M375,127l0,200l-100,100" style="fill:none;stroke:#000;stroke-width:1px;"/><path d="M125,377c2.359,0.701 200,0 200,0" style="fill:none;stroke:#000;stroke-width:1px;"/><path d="M175,427l0,-400" style="fill:none;stroke:#000;stroke-width:1px;"/><path d="M275,27l0,400l0,-400Z" style="fill:none;stroke:#000;stroke-width:1px;"/><path d="M225,427l0,-400" style="fill:none;stroke:#000;stroke-width:1px;"/><path d="M125,427l299.566,-299.566" style="fill:none;stroke:#000;stroke-width:1px;"/><path d="M325,427l-300,-299.566" style="fill:none;stroke:#000;stroke-width:1px;"/><path d="M25,177l400,-0" style="fill:none;stroke:#000;stroke-width:1px;"/><path d="M25,227l400,-0" style="fill:none;stroke:#000;stroke-width:1px;"/><path d="M25,277l400,0" style="fill:none;stroke:#000;stroke-width:1px;"/><path d="M25,227l200,200l200,-200" style="fill:none;stroke:#000;stroke-width:1px;"/><path d="M25,177l200,200l200,-200" style="fill:none;stroke:#000;stroke-width:1px;"/><path d="M175,427l50,-50l50,50" style="fill:none;stroke:#000;stroke-width:1px;"/><path d="M425,177l-50,-50l-250,250.311" style="fill:none;stroke:#000;stroke-width:1px;"/><path d="M325,377l-250,-250l-50,50" style="fill:none;stroke:#000;stroke-width:1px;"/><path d="M125,127l200,200" style="fill:none;stroke:#000;stroke-width:1px;"/><path d="M325,127l-200,200" style="fill:none;stroke:#000;stroke-width:1px;"/><path d="M375,327l-300,-300" style="fill:none;stroke:#000;stroke-width:1px;"/><path d="M75,327l300,-300" style="fill:none;stroke:#000;stroke-width:1px;"/><path d="M25,327l300,-300" style="fill:none;stroke:#000;stroke-width:1px;"/><path d="M425,327l-300,-300" style="fill:none;stroke:#000;stroke-width:1px;"/><path d="M25,277l50,50" style="fill:none;stroke:#000;stroke-width:1px;"/><path d="M375,327l50,-50" style="fill:none;stroke:#000;stroke-width:1px;"/><path d="M25,227l200,-200l200,200" style="fill:none;stroke:#000;stroke-width:1px;"/><path d="M25,277l250,-250l50,50" style="fill:none;stroke:#000;stroke-width:1px;"/><path d="M425,277l-250,-250l-50,50" style="fill:none;stroke:#000;stroke-width:1px;"/><path d="M75,27l300,-0" style="fill:none;stroke:#000;stroke-width:1px;"/><g><circle cx="25" cy="127" r="2"/><circle cx="25" cy="177" r="2"/><circle cx="25" cy="227" r="2"/><circle cx="25" cy="277" r="2"/><circle cx="25" cy="327" r="2"/></g><g><circle cx="75" cy="127" r="2"/><circle cx="75" cy="177" r="2"/><circle cx="75" cy="227" r="2"/><circle cx="75" cy="277" r="2"/><circle cx="75" cy="327" r="2"/></g><g><circle cx="125" cy="177" r="2"/><circle cx="125" cy="227" r="2"/><circle cx="125" cy="277" r="2"/><circle cx="125" cy="327" r="2"/><circle cx="125" cy="377" r="2"/></g><g><circle cx="175" cy="177" r="2"/><circle cx="175" cy="227" r="2"/><circle cx="175" cy="277" r="2"/><circle cx="175" cy="327" r="2"/><circle cx="175" cy="377" r="2"/></g><g><circle cx="225" cy="177" r="2"/><circle cx="225" cy="227" r="2"/><circle cx="225" cy="277" r="2"/><circle cx="225" cy="327" r="2"/><circle cx="225" cy="377" r="2"/></g><g><circle cx="275" cy="177" r="2"/><circle cx="275" cy="227" r="2"/><circle cx="275" cy="277" r="2"/><circle cx="275" cy="327" r="2"/><circle cx="275" cy="377" r="2"/></g><g><circle cx="325" cy="177" r="2"/><circle cx="325" cy="227" r="2"/><circle cx="325" cy="277" r="2"/><circle cx="325" cy="327" r="2"/><circle cx="325" cy="377" r="2"/></g><g><circle cx="375" cy="127" r="2"/><circle cx="375" cy="177" r="2"/><circle cx="375" cy="227" r="2"/><circle cx="375" cy="277" r="2"/><circle cx="375" cy="327" r="2"/></g><g><circle cx="425" cy="127" r="2"/><circle cx="425" cy="177" r="2"/><circle cx="425" cy="227" r="2"/><circle cx="425" cy="277" r="2"/><circle cx="425" cy="327" r="2"/></g><g><path d="M327,427c-0,1.104 -0.896,2 -2,2c-1.104,-0 -2,-0.896 -2,-2c0,-1.104 0.896,-2 2,-2c1.104,-0 2,0.896 2,2Z"/><path d="M277,427c-0,1.104 -0.896,2 -2,2c-1.104,-0 -2,-0.896 -2,-2c0,-1.104 0.896,-2 2,-2c1.104,-0 2,0.896 2,2Z"/><path d="M227,427c-0,1.104 -0.896,2 -2,2c-1.104,-0 -2,-0.896 -2,-2c-0,-1.104 0.896,-2 2,-2c1.104,-0 2,0.896 2,2Z"/><path d="M177,427c0,1.104 -0.896,2 -2,2c-1.104,-0 -2,-0.896 -2,-2c0,-1.104 0.896,-2 2,-2c1.104,-0 2,0.896 2,2Z"/><path d="M127,427c-0,1.104 -0.896,2 -2,2c-1.104,-0 -2,-0.896 -2,-2c0,-1.104 0.896,-2 2,-2c1.104,-0 2,0.896 2,2Z"/></g><g><path d="M327,127c-0,1.104 -0.896,2 -2,2c-1.104,-0 -2,-0.896 -2,-2c0,-1.104 0.896,-2 2,-2c1.104,0 2,0.896 2,2Z"/><path d="M277,127c-0,1.104 -0.896,2 -2,2c-1.104,-0 -2,-0.896 -2,-2c0,-1.104 0.896,-2 2,-2c1.104,0 2,0.896 2,2Z"/><path d="M227,127c-0,1.104 -0.896,2 -2,2c-1.104,-0 -2,-0.896 -2,-2c-0,-1.104 0.896,-2 2,-2c1.104,0 2,0.896 2,2Z"/><path d="M177,127c0,1.104 -0.896,2 -2,2c-1.104,-0 -2,-0.896 -2,-2c0,-1.104 0.896,-2 2,-2c1.104,0 2,0.896 2,2Z"/><path d="M127,127c-0,1.104 -0.896,2 -2,2c-1.104,-0 -2,-0.896 -2,-2c0,-1.104 0.896,-2 2,-2c1.104,0 2,0.896 2,2Z"/></g><g><path d="M327,77c-0,1.104 -0.896,2 -2,2c-1.104,-0 -2,-0.896 -2,-2c0,-1.104 0.896,-2 2,-2c1.104,0 2,0.896 2,2Z"/><path d="M277,77c-0,1.104 -0.896,2 -2,2c-1.104,-0 -2,-0.896 -2,-2c0,-1.104 0.896,-2 2,-2c1.104,0 2,0.896 2,2Z"/><path d="M227,77c-0,1.104 -0.896,2 -2,2c-1.104,-0 -2,-0.896 -2,-2c-0,-1.104 0.896,-2 2,-2c1.104,0 2,0.896 2,2Z"/><path d="M177,77c0,1.104 -0.896,2 -2,2c-1.104,-0 -2,-0.896 -2,-2c0,-1.104 0.896,-2 2,-2c1.104,0 2,0.896 2,2Z"/><path d="M127,77c-0,1.104 -0.896,2 -2,2c-1.104,-0 -2,-0.896 -2,-2c0,-1.104 0.896,-2 2,-2c1.104,0 2,0.896 2,2Z"/></g><g><path d="M327,27c-0,1.104 -0.896,2 -2,2c-1.104,-0 -2,-0.896 -2,-2c0,-1.104 0.896,-2 2,-2c1.104,0 2,0.896 2,2Z"/><path d="M377,27c-0,1.104 -0.896,2 -2,2c-1.104,-0 -2,-0.896 -2,-2c0,-1.104 0.896,-2 2,-2c1.104,0 2,0.896 2,2Z"/><path d="M277,27c-0,1.104 -0.896,2 -2,2c-1.104,-0 -2,-0.896 -2,-2c0,-1.104 0.896,-2 2,-2c1.104,0 2,0.896 2,2Z"/><path d="M227,27c-0,1.104 -0.896,2 -2,2c-1.104,-0 -2,-0.896 -2,-2c-0,-1.104 0.896,-2 2,-2c1.104,0 2,0.896 2,2Z"/><path d="M177,27c0,1.104 -0.896,2 -2,2c-1.104,-0 -2,-0.896 -2,-2c0,-1.104 0.896,-2 2,-2c1.104,0 2,0.896 2,2Z"/><path d="M127,27c-0,1.104 -0.896,2 -2,2c-1.104,-0 -2,-0.896 -2,-2c0,-1.104 0.896,-2 2,-2c1.104,0 2,0.896 2,2Z"/><path d="M77,27c-0,1.104 -0.896,2 -2,2c-1.104,-0 -2,-0.896 -2,-2c0,-1.104 0.896,-2 2,-2c1.104,0 2,0.896 2,2Z"/></g></svg>
