<?xml version="1.0" encoding="UTF-8" standalone="no"?><!DOCTYPE svg PUBLIC "-//W3C//DTD SVG 1.1//EN" "http://www.w3.org/Graphics/SVG/1.1/DTD/svg11.dtd"><svg width="100%" height="100%" viewBox="0 0 700 500" version="1.1" xmlns="http://www.w3.org/2000/svg" xmlns:xlink="http://www.w3.org/1999/xlink" xml:space="preserve" xmlns:serif="http://www.serif.com/" style="fill-rule:evenodd;clip-rule:evenodd;stroke-linecap:round;stroke-linejoin:round;stroke-miterlimit:1.5;"><path d="M60,50l-0,400l400,-0l0,-200l200,200l0,-400l-200,200l0,-200l-400,-0Z" style="fill:none;stroke:#000;stroke-width:1px;"/><path d="M60,150l400,-0" style="fill:none;stroke:#000;stroke-width:1px;"/><path d="M60,250l600,-0" style="fill:none;stroke:#000;stroke-width:1px;"/><path d="M60,350l400,-0" style="fill:none;stroke:#000;stroke-width:1px;"/><path d="M360,50l0,400" style="fill:none;stroke:#000;stroke-width:1px;"/><path d="M260,50l0,400" style="fill:none;stroke:#000;stroke-width:1px;"/><path d="M160,50l0,400" style="fill:none;stroke:#000;stroke-width:1px;"/><path d="M560,150l0,200" style="fill:none;stroke:#000;stroke-width:1px;"/><path d="M560,150l100,100l-100,100" style="fill:none;stroke:#000;stroke-width:1px;"/><path d="M60,250l200,-200l200,200l-200,200l-200,-200Z" style="fill:none;stroke:#000;stroke-width:1px;"/><path d="M60,50l400,400" style="fill:none;stroke:#000;stroke-width:1px;"/><path d="M460,50l-400,400" style="fill:none;stroke:#000;stroke-width:1px;"/><g><circle cx="60" cy="50" r="5"/><circle cx="160" cy="50" r="5"/><circle cx="260" cy="50" r="5"/><circle cx="360" cy="50" r="5"/><circle cx="460" cy="50" r="5"/></g><g><circle cx="60" cy="150" r="5"/><circle cx="160" cy="150" r="5"/><circle cx="260" cy="150" r="5"/><circle cx="360" cy="150" r="5"/><circle cx="460" cy="150" r="5"/><circle cx="560" cy="150" r="5"/><circle cx="660" cy="50" r="5"/><circle cx="660" cy="250" r="5"/><circle cx="660" cy="450" r="5"/><circle cx="560" cy="350" r="5"/><circle cx="560" cy="250" r="5"/></g><g><circle cx="60" cy="250" r="5"/><circle cx="160" cy="250" r="5"/><circle cx="260" cy="250" r="5"/><circle cx="360" cy="250" r="5"/><circle cx="460" cy="250" r="5"/></g><g><circle cx="60" cy="350" r="5"/><circle cx="160" cy="350" r="5"/><circle cx="260" cy="350" r="5"/><circle cx="360" cy="350" r="5"/><circle cx="460" cy="350" r="5"/></g><g><circle cx="60" cy="450" r="5"/><circle cx="160" cy="450" r="5"/><circle cx="260" cy="450" r="5"/><circle cx="360" cy="450" r="5"/><circle cx="460" cy="450" r="5"/></g><g id="Layer1"><circle cx="60" cy="50" r="20" style="fill:#00a3e0;stroke:#302e2c;stroke-width:1px;"/><circle cx="60" cy="150" r="20" style="fill:#00a3e0;stroke:#302e2c;stroke-width:1px;"/><circle cx="60" cy="250" r="20" style="fill:#00a3e0;stroke:#302e2c;stroke-width:1px;"/><circle cx="60" cy="350" r="20" style="fill:#00a3e0;stroke:#302e2c;stroke-width:1px;"/><circle cx="60" cy="450" r="20" style="fill:#00a3e0;stroke:#302e2c;stroke-width:1px;"/><circle cx="160" cy="450" r="20" style="fill:#00a3e0;stroke:#302e2c;stroke-width:1px;"/><circle cx="260" cy="450" r="20" style="fill:#00a3e0;stroke:#302e2c;stroke-width:1px;"/><circle cx="360" cy="450" r="20" style="fill:#00a3e0;stroke:#302e2c;stroke-width:1px;"/><circle cx="460" cy="450" r="20" style="fill:#00a3e0;stroke:#302e2c;stroke-width:1px;"/><circle cx="460" cy="350" r="20" style="fill:#00a3e0;stroke:#302e2c;stroke-width:1px;"/><circle cx="460" cy="250" r="20" style="fill:#00a3e0;stroke:#302e2c;stroke-width:1px;"/><circle cx="460" cy="150" r="20" style="fill:#00a3e0;stroke:#302e2c;stroke-width:1px;"/><circle cx="460" cy="50" r="20" style="fill:#00a3e0;stroke:#302e2c;stroke-width:1px;"/><circle cx="360" cy="50" r="20" style="fill:#00a3e0;stroke:#302e2c;stroke-width:1px;"/><circle cx="260" cy="50" r="20" style="fill:#00a3e0;stroke:#302e2c;stroke-width:1px;"/><circle cx="160" cy="50" r="20" style="fill:#00a3e0;stroke:#302e2c;stroke-width:1px;"/><circle cx="260" cy="250" r="40" style="fill:#d9027d;stroke:#302e2c;stroke-width:1px;"/></g></svg>