<!DOCTYPE svg PUBLIC "-//W3C//DTD SVG 1.1//EN" "http://www.w3.org/Graphics/SVG/1.1/DTD/svg11.dtd"[]><svg width="810" height="810" viewBox="0 0 810 810" version="1.1" xmlns="http://www.w3.org/2000/svg" xmlns:xlink="http://www.w3.org/1999/xlink" xml:space="preserve" xmlns:serif="http://www.serif.com/" style="fill-rule:evenodd;clip-rule:evenodd;stroke-linecap:round;stroke-linejoin:round;stroke-miterlimit:1.5;">
  <rect x="5" y="5" width="800" height="800" style="fill:none;stroke:#000;stroke-width:4px;" />
  <path d="M105,5l0,800" style="fill:none;stroke:#000;stroke-width:2px;" />
  <path d="M205,5l0,800" style="fill:none;stroke:#000;stroke-width:2px;" />
  <path d="M305,805l0,-800" style="fill:none;stroke:#000;stroke-width:2px;" />
  <path d="M405,5l0,800" style="fill:none;stroke:#000;stroke-width:2px;" />
  <path d="M505,805l0,-800" style="fill:none;stroke:#000;stroke-width:2px;" />
  <path d="M5,105l800,0" style="fill:none;stroke:#000;stroke-width:2px;" />
  <path d="M5,205l800,0" style="fill:none;stroke:#000;stroke-width:2px;" />
  <path d="M605,5l0,800" style="fill:none;stroke:#000;stroke-width:2px;" />
  <path d="M705,805l0,-800" style="fill:none;stroke:#000;stroke-width:2px;" />
  <path d="M5,305l800,0" style="fill:none;stroke:#000;stroke-width:2px;" />
  <path d="M805,405l-800,0" style="fill:none;stroke:#000;stroke-width:2px;" />
  <path d="M5,505l800,0" style="fill:none;stroke:#000;stroke-width:2px;" />
  <path d="M805,605l-800,0" style="fill:none;stroke:#000;stroke-width:2px;" />
  <path d="M5,705l800,0" style="fill:none;stroke:#000;stroke-width:2px;" />
  <circle cx="55" cy="55" r="40" style="fill:#ebebeb;stroke:#000;stroke-width:4px;" />
  <circle cx="155" cy="55" r="40" style="fill:#ca0000;stroke:#000;stroke-width:4px;" />
  <circle cx="55" cy="155" r="40" style="fill:#ebebeb;stroke:#000;stroke-width:4px;" />
  <circle cx="155" cy="155" r="40" style="fill:#ebebeb;stroke:#000;stroke-width:4px;" />
  <circle cx="255" cy="55" r="40" style="fill:#ca0000;stroke:#000;stroke-width:4px;" />
  <circle cx="355" cy="55" r="40" style="fill:#ebebeb;stroke:#000;stroke-width:4px;" />
  <circle cx="255" cy="155" r="40" style="fill:#ebebeb;stroke:#000;stroke-width:4px;" />
  <circle cx="355" cy="155" r="40" style="fill:#1e00ca;stroke:#000;stroke-width:4px;" />
  <circle cx="455" cy="55" r="40" style="fill:#ebebeb;stroke:#000;stroke-width:4px;" />
  <circle cx="555" cy="55" r="40" style="fill:#ca0000;stroke:#000;stroke-width:4px;" />
  <circle cx="455" cy="155" r="40" style="fill:#ca0000;stroke:#000;stroke-width:4px;" />
  <circle cx="555" cy="155" r="40" style="fill:#ca0000;stroke:#000;stroke-width:4px;" />
  <circle cx="655" cy="55" r="40" style="fill:#ebebeb;stroke:#000;stroke-width:4px;" />
  <circle cx="755" cy="55" r="40" style="fill:#ca0000;stroke:#000;stroke-width:4px;" />
  <circle cx="655" cy="155" r="40" style="fill:#ebebeb;stroke:#000;stroke-width:4px;" />
  <circle cx="755" cy="155" r="40" style="fill:#ebebeb;stroke:#000;stroke-width:4px;" />
  <circle cx="55" cy="255" r="40" style="fill:#ebebeb;stroke:#000;stroke-width:4px;" />
  <circle cx="155" cy="255" r="40" style="fill:#ebebeb;stroke:#000;stroke-width:4px;" />
  <circle cx="55" cy="355" r="40" style="fill:#ca0000;stroke:#000;stroke-width:4px;" />
  <circle cx="155" cy="355" r="40" style="fill:#ebebeb;stroke:#000;stroke-width:4px;" />
  <circle cx="255" cy="255" r="40" style="fill:#ebebeb;stroke:#000;stroke-width:4px;" />
  <circle cx="355" cy="255" r="40" style="fill:#ebebeb;stroke:#000;stroke-width:4px;" />
  <circle cx="255" cy="355" r="40" style="fill:#ca0000;stroke:#000;stroke-width:4px;" />
  <circle cx="355" cy="355" r="40" style="fill:#ca0000;stroke:#000;stroke-width:4px;" />
  <circle cx="455" cy="255" r="40" style="fill:#1e00ca;stroke:#000;stroke-width:4px;" />
  <circle cx="555" cy="255" r="40" style="fill:#ebebeb;stroke:#000;stroke-width:4px;" />
  <circle cx="455" cy="355" r="40" style="fill:#ebebeb;stroke:#000;stroke-width:4px;" />
  <circle cx="555" cy="355" r="40" style="fill:#ebebeb;stroke:#000;stroke-width:4px;" />
  <circle cx="655" cy="255" r="40" style="fill:#ca0000;stroke:#000;stroke-width:4px;" />
  <circle cx="755" cy="255" r="40" style="fill:#ebebeb;stroke:#000;stroke-width:4px;" />
  <circle cx="655" cy="355" r="40" style="fill:#ebebeb;stroke:#000;stroke-width:4px;" />
  <circle cx="755" cy="355" r="40" style="fill:#1e00ca;stroke:#000;stroke-width:4px;" />
  <circle cx="55" cy="455" r="40" style="fill:#ebebeb;stroke:#000;stroke-width:4px;" />
  <circle cx="155" cy="455" r="40" style="fill:#ebebeb;stroke:#000;stroke-width:4px;" />
  <circle cx="55" cy="555" r="40" style="fill:#1e00ca;stroke:#000;stroke-width:4px;" />
  <circle cx="155" cy="555" r="40" style="fill:#ebebeb;stroke:#000;stroke-width:4px;" />
  <circle cx="255" cy="455" r="40" style="fill:#ebebeb;stroke:#000;stroke-width:4px;" />
  <circle cx="355" cy="455" r="40" style="fill:#ca0000;stroke:#000;stroke-width:4px;" />
  <circle cx="255" cy="555" r="40" style="fill:#ca0000;stroke:#000;stroke-width:4px;" />
  <circle cx="355" cy="555" r="40" style="fill:#1e00ca;stroke:#000;stroke-width:4px;" />
  <circle cx="455" cy="455" r="40" style="fill:#ebebeb;stroke:#000;stroke-width:4px;" />
  <circle cx="555" cy="455" r="40" style="fill:#1e00ca;stroke:#000;stroke-width:4px;" />
  <circle cx="455" cy="555" r="40" style="fill:#ca0000;stroke:#000;stroke-width:4px;" />
  <circle cx="555" cy="555" r="40" style="fill:#ca0000;stroke:#000;stroke-width:4px;" />
  <circle cx="655" cy="455" r="40" style="fill:#ca0000;stroke:#000;stroke-width:4px;" />
  <circle cx="755" cy="455" r="40" style="fill:#1e00ca;stroke:#000;stroke-width:4px;" />
  <circle cx="655" cy="555" r="40" style="fill:#ebebeb;stroke:#000;stroke-width:4px;" />
  <circle cx="755" cy="555" r="40" style="fill:#ebebeb;stroke:#000;stroke-width:4px;" />
  <circle cx="55" cy="655" r="40" style="fill:#ca0000;stroke:#000;stroke-width:4px;" />
  <circle cx="155" cy="655" r="40" style="fill:#ca0000;stroke:#000;stroke-width:4px;" />
  <circle cx="55" cy="755" r="40" style="fill:#ebebeb;stroke:#000;stroke-width:4px;" />
  <circle cx="155" cy="755" r="40" style="fill:#ebebeb;stroke:#000;stroke-width:4px;" />
  <circle cx="255" cy="655" r="40" style="fill:#ca0000;stroke:#000;stroke-width:4px;" />
  <circle cx="355" cy="655" r="40" style="fill:#ebebeb;stroke:#000;stroke-width:4px;" />
  <circle cx="255" cy="755" r="40" style="fill:#ebebeb;stroke:#000;stroke-width:4px;" />
  <circle cx="355" cy="755" r="40" style="fill:#ebebeb;stroke:#000;stroke-width:4px;" />
  <circle cx="455" cy="655" r="40" style="fill:#ebebeb;stroke:#000;stroke-width:4px;" />
  <circle cx="555" cy="655" r="40" style="fill:#ebebeb;stroke:#000;stroke-width:4px;" />
  <circle cx="455" cy="755" r="40" style="fill:#ebebeb;stroke:#000;stroke-width:4px;" />
  <circle cx="555" cy="755" r="40" style="fill:#ca0000;stroke:#000;stroke-width:4px;" />
  <circle cx="655" cy="655" r="40" style="fill:#1e00ca;stroke:#000;stroke-width:4px;" />
  <circle cx="755" cy="655" r="40" style="fill:#1e00ca;stroke:#000;stroke-width:4px;" />
  <circle cx="655" cy="755" r="40" style="fill:#ca0000;stroke:#000;stroke-width:4px;" />
  <circle cx="755" cy="755" r="40" style="fill:#1e00ca;stroke:#000;stroke-width:4px;" />
</svg>