<?xml version="1.0" encoding="UTF-8" standalone="no"?><!DOCTYPE svg PUBLIC "-//W3C//DTD SVG 1.1//EN" "http://www.w3.org/Graphics/SVG/1.1/DTD/svg11.dtd"><svg width="100%" height="100%" viewBox="0 0 2084 2917" version="1.1" xmlns="http://www.w3.org/2000/svg" xmlns:xlink="http://www.w3.org/1999/xlink" xml:space="preserve" xmlns:serif="http://www.serif.com/" style="fill-rule:evenodd;clip-rule:evenodd;stroke-linejoin:round;stroke-miterlimit:1.5;"><path d="M1080,112.5l-910,2275" style="fill:none;stroke:#00c;stroke-width:8.33px;stroke-dasharray:25,16.67,0,0;"/><path d="M1913.33,2387.5l-910,-2275" style="fill:none;stroke:#00c;stroke-width:8.33px;stroke-dasharray:25,16.67,0,0;"/><path d="M116.667,2245.83l1016.67,508.334" style="fill:none;stroke:#0c0;stroke-width:8.33px;stroke-dasharray:8.33,8.33;"/><path d="M1966.67,2245.83l-1016.67,508.334" style="fill:none;stroke:#0c0;stroke-width:8.33px;stroke-dasharray:8.33,8.33;"/><path d="M116.667,2338.95l1558.33,-803.846" style="fill:none;stroke:#00c;stroke-width:8.33px;stroke-dasharray:25,16.67,0,0;"/><path d="M1966.67,2338.95l-1558.33,-803.846" style="fill:none;stroke:#00c;stroke-width:8.33px;stroke-dasharray:25,16.67,0,0;"/><path d="M406.401,1625l726.932,-381.432" style="fill:none;stroke:#0c0;stroke-width:8.33px;stroke-dasharray:8.33,8.33;"/><path d="M950,1243.57l726.932,381.432" style="fill:none;stroke:#0c0;stroke-width:8.33px;stroke-dasharray:8.33,8.33;"/><path d="M1041.67,104.167l-0,2708.33" style="fill:none;stroke:#c00;stroke-width:8.33px;stroke-linecap:square;"/><circle cx="1041.67" cy="208.333" r="41.667" style="fill:#ccc;stroke:#000;stroke-width:8.33px;stroke-linecap:round;"/><circle cx="1041.67" cy="1291.67" r="41.667" style="fill:#ccc;stroke:#000;stroke-width:8.33px;stroke-linecap:round;"/><circle cx="495.833" cy="1583.33" r="41.667" style="fill:#ccc;stroke:#000;stroke-width:8.33px;stroke-linecap:round;"/><circle cx="1583.33" cy="1583.33" r="41.667" style="fill:#ccc;stroke:#000;stroke-width:8.33px;stroke-linecap:round;"/><circle cx="208.333" cy="2291.67" r="41.667" style="fill:#ccc;stroke:#000;stroke-width:8.33px;stroke-linecap:round;"/><circle cx="1041.67" cy="1862.5" r="41.667" style="fill:#ccc;stroke:#000;stroke-width:8.33px;stroke-linecap:round;"/><circle cx="1041.67" cy="2708.33" r="41.667" style="fill:#ccc;stroke:#000;stroke-width:8.33px;stroke-linecap:round;"/><circle cx="1875" cy="2291.67" r="41.667" style="fill:#ccc;stroke:#000;stroke-width:8.33px;stroke-linecap:round;"/></svg>