<svg xmlns="http://www.w3.org/2000/svg" xml:space="preserve" style="fill-rule:evenodd;clip-rule:evenodd;stroke-linejoin:round;stroke-miterlimit:2" viewBox="2.39 3.54 40.28 40.18"><path d="M2.4 9.16A5.4 5.4 0 0 1 4.05 5.2a5.4 5.4 0 0 1 3.96-1.66h29.01A5.4 5.4 0 0 1 41 5.2a5.4 5.4 0 0 1 1.67 3.96V38.1A5.4 5.4 0 0 1 41 42.06a5.4 5.4 0 0 1-3.96 1.66H8.02a5.4 5.4 0 0 1-3.97-1.66 5.4 5.4 0 0 1-1.66-3.96V9.16h.01Zm34.63 33.05c1.13 0 2.1-.4 2.9-1.22.8-.76 1.24-1.8 1.23-2.9V9.16c0-1.12-.41-2.09-1.22-2.9a3.96 3.96 0 0 0-2.9-1.22H8.01c-1.13 0-2.1.4-2.91 1.22a3.97 3.97 0 0 0-1.22 2.9V38.1c0 1.12.4 2.09 1.22 2.9.76.78 1.8 1.22 2.9 1.21h29.03Z" style="fill-rule:nonzero"/><path d="M26.1 23.73c0 .97-.34 1.8-1.04 2.51-.7.7-1.56 1.06-2.56 1.06s-1.86-.36-2.58-1.06a3.39 3.39 0 0 1-1.08-2.5c0-1.04.36-1.9 1.08-2.6a3.56 3.56 0 0 1 2.58-1.06c1 0 1.85.35 2.56 1.05.7.7 1.05 1.57 1.05 2.6Z"/></svg>