<svg xmlns="http://www.w3.org/2000/svg" xml:space="preserve" style="fill-rule:evenodd;clip-rule:evenodd;stroke-linejoin:round;stroke-miterlimit:2" viewBox="2.39 3.54 40.28 40.18"><path d="M2.4 9.16A5.4 5.4 0 0 1 4.05 5.2a5.4 5.4 0 0 1 3.96-1.66h29.01A5.4 5.4 0 0 1 41 5.2a5.4 5.4 0 0 1 1.67 3.96V38.1A5.4 5.4 0 0 1 41 42.06a5.4 5.4 0 0 1-3.96 1.66H8.02a5.4 5.4 0 0 1-3.97-1.66 5.4 5.4 0 0 1-1.66-3.96V9.16Zm34.63 33.05c1.13 0 2.1-.4 2.9-1.22a3.97 3.97 0 0 0 1.23-2.9V9.16c0-1.12-.41-2.09-1.22-2.9a3.96 3.96 0 0 0-2.9-1.22H8.01c-1.13 0-2.1.4-2.91 1.22a3.97 3.97 0 0 0-1.22 2.9V38.1c0 1.12.4 2.09 1.22 2.9A3.97 3.97 0 0 0 8 42.21h29.02ZM26.11 23.7a3.4 3.4 0 0 1-1.06 2.51c-.7.7-1.55 1.06-2.55 1.06-1 0-1.86-.35-2.58-1.06a3.39 3.39 0 0 1-1.08-2.5c0-1.04.36-1.9 1.08-2.6a3.56 3.56 0 0 1 2.58-1.06c1 0 1.85.35 2.56 1.05.7.7 1.05 1.57 1.05 2.6Zm10.97-10.92c0 .97-.37 1.82-1.1 2.54a3.6 3.6 0 0 1-5.14 0 3.47 3.47 0 0 1-1.07-2.54c0-1.03.36-1.9 1.07-2.62a3.6 3.6 0 0 1 5.13 0c.74.72 1.1 1.6 1.1 2.62Zm0 21.75c0 1.03-.37 1.91-1.1 2.63a3.6 3.6 0 0 1-5.14 0 3.57 3.57 0 0 1-1.07-2.63c0-.97.36-1.8 1.07-2.53a3.6 3.6 0 0 1 5.13 0 3.4 3.4 0 0 1 1.1 2.53ZM15.23 12.77c0 .97-.36 1.82-1.07 2.53a3.47 3.47 0 0 1-2.54 1.08c-1.03 0-1.9-.36-2.62-1.08a3.47 3.47 0 0 1-1.08-2.53c0-1.03.36-1.9 1.08-2.62a3.58 3.58 0 0 1 2.62-1.08c.97 0 1.82.36 2.54 1.08a3.6 3.6 0 0 1 1.07 2.62Zm0 21.75c0 1.03-.36 1.91-1.07 2.63a3.46 3.46 0 0 1-2.54 1.08c-1.03 0-1.9-.36-2.62-1.08a3.57 3.57 0 0 1-1.08-2.63c0-.97.36-1.8 1.08-2.53a3.57 3.57 0 0 1 2.62-1.08c.97 0 1.82.36 2.54 1.08a3.47 3.47 0 0 1 1.07 2.53Z" style="fill-rule:nonzero"/></svg>