<!DOCTYPE svg PUBLIC "-//W3C//DTD SVG 1.1//EN" "http://www.w3.org/Graphics/SVG/1.1/DTD/svg11.dtd"[]><svg width="80" height="80" viewBox="0 0 80 80" version="1.1" xmlns="http://www.w3.org/2000/svg" xmlns:xlink="http://www.w3.org/1999/xlink" xml:space="preserve" xmlns:serif="http://www.serif.com/" style="fill-rule:evenodd;clip-rule:evenodd;stroke-linecap:round;stroke-linejoin:round;stroke-miterlimit:1.5;">
    <g transform="matrix(1,0,0,1,-246.793,-487.651)">
        <g>
            <g>
                <path d="M287.97,506.471C284.569,506.599 280.757,507.23 278.225,509.702C274.896,512.952 277.486,517.699 281.495,518.719C283.119,519.132 284.75,519.355 286.426,519.374C289.666,519.409 294.77,518.778 296.874,515.898C299.172,512.752 295.556,508.944 293.037,507.394C292.478,507.05 291.877,506.749 291.258,506.53C290.339,506.204 291.353,506.654 290.391,506.548" style="fill:none;stroke:black;stroke-width:5.33px;" />
                <path d="M288.995,506.485C292.323,505.977 294.16,506.042 296.177,502.868C297.226,501.216 296.276,499.184 295.068,497.909C292.45,495.141 288.375,494.623 284.752,495.084C282.003,495.433 279.471,496.872 277.892,499.169C276.772,500.8 276.487,502.749 277.841,504.328C278.273,504.831 278.803,505.183 279.374,505.527C280.14,505.988 280.975,506.281 281.85,506.454C282.878,506.657 283.991,506.756 285.027,506.596" style="fill:none;stroke:black;stroke-width:5.33px;" />
                <path d="M287.879,518.59C286.883,518.681 285.106,518.441 284.123,518.623C282.223,518.975 280.057,519.445 278.285,520.253C275.073,521.719 271.902,525.428 272.999,529.184C273.949,532.436 277.865,534.454 277.83,538.116C277.792,542.111 273.942,545.014 273.073,548.777C272.498,551.272 273.484,553.448 275.052,555.368C278.002,558.981 282.671,560.774 287.347,560.29C288.65,560.155 290.173,559.997 291.423,559.645C293.66,559.014 295.862,558.139 297.764,556.718C301.534,553.9 303.218,547.947 301.764,543.519C300.801,540.586 297.177,539.52 296.39,536.599C295.668,533.921 297.938,531.5 298.109,528.864C298.567,521.829 295.314,517.792 288.684,518.657" style="fill:none;stroke:black;stroke-width:5.33px;" />
                <path d="M292.626,518.329C293.788,517.469 295.106,516.964 296.392,516.329C297.291,515.886 298.171,515.408 299.112,515.061C299.867,514.783 300.632,514.544 301.398,514.303C305.426,513.032 312.068,511.833 313.961,516.999C315.48,521.144 312.114,525.108 313.805,529.254C314.814,531.73 317.289,532.972 319.01,534.854C321.631,537.721 322.043,541.27 321.121,544.929C319.262,552.306 309.402,556.067 303.151,551.762" style="fill:none;stroke:black;stroke-width:5.33px;" />
                <path d="M278.44,519.332C277.001,518.214 275.728,516.936 274.148,516.004C270.013,513.562 264.642,512.703 260.545,515.561C259.643,516.191 258.754,516.954 258.094,517.844C257.343,518.857 256.426,520.06 256.161,521.321C255.951,522.323 255.763,523.373 256.026,524.385C256.745,527.14 259.057,529.677 258.361,532.661C257.832,534.923 256.216,536.546 254.871,538.355C252.712,541.258 251.209,544.642 252.49,548.262C254.438,553.767 261.308,556.311 266.73,555.534C268.366,555.3 270.054,554.952 271.401,553.944" style="fill:none;stroke:black;stroke-width:5.33px;" />
            </g>
        </g>
    </g>
</svg>