<?xml version="1.0" encoding="UTF-8" standalone="no"?>
<!DOCTYPE svg PUBLIC "-//W3C//DTD SVG 1.1//EN" "http://www.w3.org/Graphics/SVG/1.1/DTD/svg11.dtd">
<svg width="270px" height="270px" version="1.1" xmlns="http://www.w3.org/2000/svg" xmlns:xlink="http://www.w3.org/1999/xlink" xml:space="preserve" xmlns:serif="http://www.serif.com/" style="fill-rule:evenodd;clip-rule:evenodd;stroke-linejoin:round;stroke-miterlimit:2;">
    <g id="Page-8" serif:id="Page 8" transform="matrix(1,0,0,1,-25,-25)">
        <rect x="0" y="0" width="320" height="320" style="fill:none;"/>
    </g>
    <g id="Layer-1" serif:id="Layer 1" transform="matrix(1,0,0,1,-25,-25)">
        <path d="M139.001,111.587C139.001,124.721 149.956,120.576 158.417,120.576C166.985,120.576 179.447,121.858 179.447,109.694C179.447,105.534 178.004,94.847 164.183,94.847C145.723,94.847 139.001,102.436 139.001,111.587M148.031,82.819C177.381,82.819 180.528,79.814 180.528,72.376C180.528,63.549 169.385,58.619 158.356,58.619C142.73,58.619 137.654,67.997 137.654,75.002C137.654,82.163 140.58,82.819 148.031,82.819M242.124,141.059C244.413,126.597 236.467,119.318 219.335,119.318C213.49,119.318 197.3,122.318 197.3,130.976C197.3,136.776 203.017,143.612 203.017,156.446C203.017,165.99 200.28,171.889 200.28,179.554C200.28,191.286 209.498,194.701 212.464,208.872C214.479,218.496 210.392,228.423 233.966,228.423C252.23,228.423 261.259,218.437 261.259,202.956C261.259,180.502 235.093,185.463 242.124,141.059M82.948,233.965C97.437,233.965 104.699,233.275 108.983,216.458C113.347,199.332 120.189,198.914 120.189,188.761C120.189,172.765 108.356,169.64 108.356,155.128C108.356,142.331 115.75,140.77 115.75,133.851C115.75,127.63 109.643,118.747 96.048,118.747C83.607,118.747 73.009,128.571 73.009,141.662C73.009,149.917 76.286,158.304 76.286,167.82C76.286,184.145 56.255,195.858 56.255,211.183C56.255,222.379 59.094,233.965 82.948,233.965M125.536,226.351C125.536,239.491 138.291,249.779 156.77,249.779C189.065,249.779 199.517,233.662 199.517,219.01C199.517,196.674 184.781,195.025 184.781,176.561C184.781,168.793 188.077,160.129 188.077,156.117C188.077,139.187 171.929,132.59 154.918,132.59C138.314,132.59 124.634,140.122 124.802,152.49C124.949,163.306 136.337,173.211 136.337,189.09C136.337,205.613 125.536,212.025 125.536,226.351M99.651,102.777C115.245,102.777 127.771,113.581 127.771,93.138C127.771,88.336 121.943,81.062 121.943,73.969C121.943,61.125 134.065,44 162.371,44C183.134,44 199.068,58.419 199.068,72.913C199.068,81.962 195.622,85.986 195.622,93.266C195.622,113.065 212.509,103.033 224.2,103.033C243.479,103.033 259.261,113.777 259.261,131.387C259.261,137.089 256.847,146.533 256.847,154.031C256.847,173.006 280,178.128 280,201.844C280,202.677 278.274,243.577 238.98,243.577C192.884,243.577 201.824,268 159.923,268C126.298,268 131.727,253.188 84.775,253.188C80.783,253.188 40,250.123 40,213.224C40,194.282 60.763,175.581 60.763,165.444C60.763,154.166 55.46,149.366 55.46,138.347C55.46,118.573 71.283,102.777 99.651,102.777" style="fill-rule:nonzero;"/>
    </g>
</svg>
