<!-- Created with sK1/UniConvertor (http://sk1project.org/) --><svg xmlns="http://www.w3.org/2000/svg" xmlns:xlink="http://www.w3.org/1999/xlink" width="67pt" height="104pt" viewBox="0 0 67 104" fill-rule="evenodd"><g><g><path style="stroke:none; fill:#000000" d="M 21.2 2.6C 10 8.2 3.2 23.2 1.5 46C -0.1 68.5 5.9 88.3 17.1 97.1C 24 102.6 26.6 103.5 34.9 103.5C 46.8 103.4 53.7 98.7 59.9 86.4C 64.2 78 66 68.1 66 53.8C 66 26.8 58.7 10 43.7 2.5C 36.6 -1 28.3 -1 21.2 2.6zM 42 4C 43.1 4.6 44 5.7 44 6.5C 44 7.3 44.8 8 45.8 8C 47.7 8 50 9.8 50 11.2C 50 11.6 48.8 12 47.4 12C 45.9 12 45.1 12.4 45.6 13.1C 45.9 13.7 47.2 13.9 48.4 13.6C 50.7 13 55 15.3 55 17.1C 55 17.6 54 18.5 52.8 19C 50.7 19.8 50.7 19.9 53.6 19.9C 55.9 20 57 20.6 57.8 22.5C 58.7 24.5 58.6 25.1 57.2 25.9C 55.6 26.9 55.6 26.9 57.3 27C 58.3 27 59.5 28.2 60 29.6C 61.3 32.9 61.4 32.7 58.3 33.6L 55.5 34.3L 58.5 34.9C 60.8 35.4 61.6 36.1 61.8 38.3C 62.1 40.3 61.7 41 60.3 41.1C 58.8 41.1 58.9 41.3 60.8 42C 63.1 43 63.8 46.4 62 47.5C 61.2 48 61.2 48.6 62 49.5C 62.6 50.3 63 53.6 62.8 57.2L 62.5 63.5L 59.5 63.3L 56.5 63.1L 59.3 64.3C 62.1 65.4 62.2 65.6 61.5 70.5C 61.2 73.2 60.3 76.8 59.5 78.5C 58.8 80.1 57.8 82.6 57.4 84C 56.2 88.3 51 95 49 95C 47.9 95 47.1 95.6 47.3 96.2C 47.7 98.4 39.9 101.4 34 101.5C 29.1 101.5 20 98.6 21.2 97.4C 21.5 97.2 27 96.7 33.6 96.4C 40.1 96 45.7 95.6 45.9 95.4C 46.1 95.2 39.9 95 32 95C 20.1 95 17.4 94.7 15.8 93.3C 13.3 91 13.5 90 16.8 89.9C 19 89.8 18.8 89.6 15.4 88.8C 11.6 87.9 11 87.3 8.6 81.9C 5.4 74.8 5.4 74.2 8.2 73C 10.4 72.1 10.4 72.1 7.9 72.1C 5.9 72 5.1 71.4 4.6 69.4C 3.8 66.5 4.5 65.4 7.5 64.7C 9 64.3 8.8 64.2 6.8 64.1C 4.4 64 4 63.6 4 61.1C 4 59.1 4.6 58 5.8 57.7C 7 57.4 6.9 57.2 5.2 57.1C 3.2 57 2.9 56.6 3.4 53.7C 3.6 52 3.9 50.3 4 50C 4.1 49.7 4.1 48 4 46.2C 3.9 43.9 4.3 43 5.4 43C 6.3 43 7 42.5 7 42C 7 41.4 6.3 41 5.5 41C 3.8 41 3.4 37.5 5 36.5C 5.6 36.1 5.8 35.4 5.4 34.9C 4.4 33.2 5.9 29 7.5 29C 9.2 29 9.5 27.3 7.9 26.8C 6.2 26.2 8.1 20.8 10.2 20.2C 11.5 19.9 11.8 19.5 11 19C 8.8 17.6 11.7 14 15 14C 16.6 14 18.2 13.5 18.5 13C 18.9 12.4 18 12 16.4 12C 13.8 12 13.7 12 15.5 10C 16.7 8.7 18.6 8.00001 21.2 8.00001C 23.7 8.00001 24.9 7.60001 24.5 7.00001C 24.1 6.40001 22.9 6.2 21.8 6.60001C 18.2 7.7 20.3 4.60001 24.1 3.2C 27.9 1.8 38.8 2.3 42 4z" /><path style="stroke:none; fill:#000000" d="M 24.7 16.7C 21.4 17.1 20.9 17.4 21.2 19.3C 21.5 21.2 22 21.5 25.6 21.2C 28.6 20.9 29.9 21.3 30.3 22.4C 31.2 24.6 29.4 25.3 22.8 25.4C 17.5 25.5 16.9 25.7 16.3 27.8C 15.4 31.5 17 32.1 22.8 30.3C 25.6 29.4 28.3 28.9 28.7 29.3C 30 30.6 25.4 35.5 20.6 37.9C 16.1 40.1 15.9 40.4 17.6 41.7C 18.6 42.4 20.2 43 21.2 43C 23.1 43 31.4 35.5 32.2 33C 32.6 31.9 34.4 33.1 38.8 37.2C 45.1 43.3 48.6 44.4 51.1 41.4C 52.1 40.1 52.1 39.7 50.9 38.9C 50.1 38.4 49 38 48.4 38C 46.5 38 38 32 38 30.7C 38 29.6 39.2 29.4 42.8 29.8C 46.3 30.1 47.9 29.8 48.9 28.7C 51.1 26 49.2 25 41.9 25C 35.8 25 35 24.8 35 23.1C 35 21.1 36.9 20 40.5 20C 42.4 20 44 18.4 44 16.4C 44 15.9 30.3 16.2 24.7 16.7z" /><path style="stroke:none; fill:#000000" d="M 17.4 50.2C 17.1 51.3 17.3 52.7 18 53.5C 18.9 54.6 19.6 54.6 22.5 53.4C 24.4 52.6 27.1 52 28.5 52C 31.3 52 31.6 53.4 31.1 64.1C 30.9 68.1 31.3 70 32.4 70.9C 34.9 73 36 71.2 36 64.9C 36 61.7 36.2 59 36.4 59C 36.6 59 38.4 59.7 40.3 60.5C 43.5 61.8 44 61.8 45.5 60.3C 47.1 58.8 46.8 58.5 41.4 56.6C 32.5 53.4 33.4 50.3 42.7 52.4C 46.3 53.2 47.3 53 49 51.5C 50.1 50.5 50.7 49.3 50.4 48.8C 50.1 48.3 42.9 48 33.9 48.1C 19.4 48.3 18 48.5 17.4 50.2z" /><path style="stroke:none; fill:#000000" d="M 16.6 77.1C 14.8 79.7 15.4 81.4 18.3 82.7C 19.9 83.4 21.1 83.3 22.7 82.3C 25.2 80.7 39 80 45.7 81.3C 49.3 81.9 50.3 81.7 52 80C 53.1 78.9 54 77.6 54 77.1C 54 76.6 47 76.3 37.5 76.5C 28.4 76.6 20.7 76.4 20.4 75.9C 19.5 74.4 18.2 74.9 16.6 77.1z" /></g></g></svg>