<?xml version="1.0" encoding="UTF-8" standalone="no"?><!DOCTYPE svg PUBLIC "-//W3C//DTD SVG 1.1//EN" "http://www.w3.org/Graphics/SVG/1.1/DTD/svg11.dtd"><svg width="100%" height="100%" viewBox="0 0 18 18" version="1.1" xmlns="http://www.w3.org/2000/svg" xmlns:xlink="http://www.w3.org/1999/xlink" xml:space="preserve" xmlns:serif="http://www.serif.com/" style="fill-rule:evenodd;clip-rule:evenodd;stroke-linejoin:round;stroke-miterlimit:2;"><path d="M2.129,14.324c3.697,-1.286 5.646,-3.757 5.846,-7.413l-5.424,0l0,-1.326l5.545,0l0,-3.194l1.326,0c0.402,0.08 0.422,0.241 0.06,0.482l0,2.712l5.786,0l0,1.326l-5.665,0c0.843,3.335 2.893,5.705 6.147,7.111l-0.783,1.447c-2.813,-1.286 -4.802,-3.456 -5.967,-6.509c-0.683,3.294 -2.792,5.565 -6.328,6.81l-0.543,-1.446Z" style="fill-rule:nonzero;"/><path d="M17.437,0l0.028,0.001l0.028,0.002l0.028,0.003l0.027,0.005l0.027,0.006l0.026,0.007l0.026,0.009l0.026,0.01l0.025,0.011l0.024,0.012l0.024,0.014l0.024,0.015l0.022,0.015l0.022,0.017l0.021,0.019l0.02,0.019l0.019,0.02l0.019,0.021l0.017,0.022l0.015,0.022l0.015,0.024l0.014,0.024l0.012,0.024l0.011,0.025l0.01,0.026l0.009,0.026l0.007,0.026l0.006,0.027l0.005,0.027l0.003,0.028l0.002,0.028l0.001,0.028l0,16.874l-0.001,0.028l-0.002,0.028l-0.003,0.028l-0.005,0.027l-0.006,0.027l-0.007,0.026l-0.009,0.026l-0.01,0.026l-0.011,0.025l-0.012,0.024l-0.014,0.024l-0.015,0.024l-0.015,0.022l-0.017,0.022l-0.019,0.021l-0.019,0.02l-0.02,0.019l-0.021,0.019l-0.022,0.017l-0.022,0.015l-0.024,0.015l-0.024,0.014l-0.024,0.012l-0.025,0.011l-0.026,0.01l-0.026,0.009l-0.026,0.007l-0.027,0.006l-0.027,0.005l-0.028,0.003l-0.028,0.002l-0.028,0.001l-16.874,0l-0.028,-0.001l-0.028,-0.002l-0.028,-0.003l-0.027,-0.005l-0.027,-0.006l-0.026,-0.007l-0.026,-0.009l-0.026,-0.01l-0.025,-0.011l-0.024,-0.012l-0.024,-0.014l-0.024,-0.015l-0.022,-0.015l-0.022,-0.017l-0.021,-0.019l-0.02,-0.019l-0.019,-0.02l-0.019,-0.021l-0.017,-0.022l-0.015,-0.022l-0.015,-0.024l-0.014,-0.024l-0.012,-0.024l-0.011,-0.025l-0.01,-0.026l-0.009,-0.026l-0.007,-0.026l-0.006,-0.027l-0.005,-0.027l-0.003,-0.028l-0.002,-0.028l-0.001,-0.028l0,-16.874l0.001,-0.028l0.002,-0.028l0.003,-0.028l0.005,-0.027l0.006,-0.027l0.007,-0.026l0.009,-0.026l0.01,-0.026l0.011,-0.025l0.012,-0.024l0.014,-0.024l0.015,-0.024l0.015,-0.022l0.017,-0.022l0.019,-0.021l0.019,-0.02l0.02,-0.019l0.021,-0.019l0.022,-0.017l0.022,-0.015l0.024,-0.015l0.024,-0.014l0.024,-0.012l0.025,-0.011l0.026,-0.01l0.026,-0.009l0.026,-0.007l0.027,-0.006l0.027,-0.005l0.028,-0.003l0.028,-0.002l0.028,-0.001l16.874,0Zm-16.481,17.044l16.088,0l0,-16.088l-16.088,0l0,16.088Z"/></svg>