<?xml version="1.0" encoding="UTF-8" standalone="yes"?>
<!-- Created with sK1/UniConvertor (http://sk1project.org/) -->
<svg xmlns="http://www.w3.org/2000/svg" xmlns:xlink="http://www.w3.org/1999/xlink"
  width="126pt" height="128pt" viewBox="0 0 126 128"
  fill-rule="evenodd">
<g>
<g>
<path style="stroke:none; fill:#000000" d="M 0.5 1.2C 0.2 1.89999 0.1 30.6 0.2 65L 0.5 127.5L 63 127.5L 125.5 127.5L 125.5 64L 125.5 0.5L 63.2 0.199997C 13.9 0 0.799999 0.199997 0.5 1.2zM 122 64L 122 124L 63 124L 4 124L 4 64L 4 4L 63 4L 122 4L 122 64z"/>
<path style="stroke:none; fill:#000000" d="M 52.2 15.6C 49.4 17.5 49.4 19.1 52.5 26.5C 54 30.2 55 34.5 55 37.7L 55 43L 42.7 43C 34.4 43 28.6 42.5 25.1 41.4C 22.2 40.6 19.7 40 19.5 40.2C 19.3 40.4 18.9 44.2 18.5 48.7L 17.7 57L 20.6 57C 22.2 56.9 24.6 56.3 26 55.5C 27.8 54.5 32 54.1 40.8 54C 54.9 54 54.9 54.1 50.4 62.6C 44.6 73.5 34.2 85.3 20 97.1C 14.3 101.7 15.2 103.4 23.1 102.8C 34.5 102 44.7 91.9 55.5 70.7C 58.5 64.8 61 59.3 61 58.5C 61 56 62.7 56.9 63.5 59.7C 64.6 64.2 72.9 80 77.5 86.5C 79.9 89.8 83.5 94.1 85.7 96.1C 89.3 99.6 89.9 99.8 98.8 100.4C 104.8 100.8 108 100.7 108 100.1C 108 99.5 103.8 95.6 98.8 91.3C 84.9 79.8 73 67.2 69.2 60.2L 65.9 54L 77.4 54C 86.6 54 89.6 54.4 93.1 56C 98.6 58.4 101.7 58.5 102.8 56.2C 104.2 53.6 102.5 50.3 98.8 48.4C 97 47.5 94.7 45.7 93.7 44.4C 91.7 41.8 87.3 41.2 83.8 43.1C 82.5 43.8 78.7 44 72.8 43.5L 63.9 42.8L 64.5 38.6C 64.8 36.4 66.4 31.8 68.1 28.6C 69.7 25.4 71 22.3 71 21.8C 71 21 60.9 16 56.5 14.6C 55.3 14.3 53.5 14.7 52.2 15.6z"/>
</g>
</g>
</svg>