<?xml version="1.0" encoding="UTF-8" standalone="no"?><!DOCTYPE svg PUBLIC "-//W3C//DTD SVG 1.1//EN" "http://www.w3.org/Graphics/SVG/1.1/DTD/svg11.dtd"><svg width="100%" height="100%" viewBox="0 0 18 18" version="1.1" xmlns="http://www.w3.org/2000/svg" xmlns:xlink="http://www.w3.org/1999/xlink" xml:space="preserve" xmlns:serif="http://www.serif.com/" style="fill-rule:evenodd;clip-rule:evenodd;stroke-linecap:square;stroke-miterlimit:1.5;"><g transform="matrix(1.32981,0,0,1.32981,-2.69074,5.99455)"><g transform="matrix(12,0,0,12,2.22176,7.12971)"><path d="M0.297,-0.762c0.026,0.005 0.027,0.016 0.004,0.032l0,0.164l0.242,0l0,-0.235l0.086,0c0.026,0.005 0.027,0.016 0.004,0.031l0,0.204l0.289,0l0,0.086l-0.621,0l0,0.125l0.441,0l0,0.437l-0.09,0l0,-0.352l-0.351,0l0,0.04c0,0.127 -0.05,0.233 -0.149,0.316l-0.062,-0.063c0.088,-0.065 0.133,-0.152 0.133,-0.261l0,-0.524l0.074,0Z" style="fill-rule:nonzero;"/></g><g transform="matrix(12,0,0,12,14.2218,7.12971)"><path d="M0.207,-0.656l0,0.597l0.59,0l0,-0.597l-0.59,0Zm-0.078,-0.074l0.746,0l0,0.746l-0.746,0l0,-0.746Z" style="fill-rule:nonzero;"/></g></g><path d="M1,1l16,0l0,16" style="fill:none;stroke:#000;stroke-width:1.2px;"/></svg>