<!DOCTYPE svg PUBLIC "-//W3C//DTD SVG 1.1//EN" "http://www.w3.org/Graphics/SVG/1.1/DTD/svg11.dtd"[]><svg width="18" height="18" viewBox="0 0 18 18" version="1.1" xmlns="http://www.w3.org/2000/svg" xmlns:xlink="http://www.w3.org/1999/xlink" xml:space="preserve" xmlns:serif="http://www.serif.com/" style="fill-rule:evenodd;clip-rule:evenodd;stroke-linecap:square;stroke-miterlimit:1.5;">
  <path d="M6.248,4.315l-4.613,0l0,-1.371l13.34,0l0,1.371l-7.293,0c0,0.873 -0.042,1.745 -0.125,2.618l6.296,0c0,2.743 -0.229,4.904 -0.686,6.483c-0.332,1.205 -1.08,1.808 -2.244,1.808l-2.431,0l-0.249,-1.372l2.244,0c0.706,0 1.142,-0.291 1.309,-0.872c0.332,-1.122 0.519,-2.681 0.561,-4.675l-4.987,0c-0.665,3.158 -2.306,5.443 -4.925,6.856l-0.935,-1.371c3.159,-1.579 4.738,-4.384 4.738,-8.415l0,-1.06Z" style="fill-rule:nonzero;" />
  <path d="M1,1l16,0l0,16" style="fill:none;stroke:#000;stroke-width:1.2px;" />
</svg>