<?xml version="1.0" encoding="UTF-8" standalone="no"?><!DOCTYPE svg PUBLIC "-//W3C//DTD SVG 1.1//EN" "http://www.w3.org/Graphics/SVG/1.1/DTD/svg11.dtd"><svg width="100%" height="100%" viewBox="0 0 18 18" version="1.1" xmlns="http://www.w3.org/2000/svg" xmlns:xlink="http://www.w3.org/1999/xlink" xml:space="preserve" xmlns:serif="http://www.serif.com/" style="fill-rule:evenodd;clip-rule:evenodd;stroke-linecap:square;stroke-miterlimit:1.5;"><path d="M14.866,7.357c-1.339,1.964 -2.478,3.572 -3.415,4.822l-1.272,-0.871c0.982,-1.205 1.897,-2.455 2.745,-3.75l-5.558,1.005l0,4.955c0,0.625 0.313,0.937 0.938,0.937l6.16,0l-0.201,1.474l-6.361,0c-1.384,0 -2.076,-0.715 -2.076,-2.143l0,-4.956l-4.018,0.804l-0.536,-1.54l4.554,-0.804l0,-4.419l1.406,0c0.402,0.089 0.447,0.267 0.134,0.535l0,3.683l6.027,-1.004l0.536,-0.335l1.205,1.205c0.179,0.224 0.089,0.357 -0.268,0.402Z" style="fill-rule:nonzero;"/><path d="M1,1l16,0l0,16" style="fill:none;stroke:#000;stroke-width:1.2px;"/></svg>