<!DOCTYPE svg PUBLIC "-//W3C//DTD SVG 1.1//EN" "http://www.w3.org/Graphics/SVG/1.1/DTD/svg11.dtd"[]><svg width="18" height="18" viewBox="0 0 18 18" version="1.1" xmlns="http://www.w3.org/2000/svg" xmlns:xlink="http://www.w3.org/1999/xlink" xml:space="preserve" xmlns:serif="http://www.serif.com/" style="fill-rule:evenodd;clip-rule:evenodd;stroke-linejoin:round;stroke-miterlimit:2;">
    <g transform="matrix(1.1305,0,0,1.1305,-2.28611,-2.93929)">
        <path d="M9.983,2.6C14.377,2.6 17.944,6.167 17.944,10.561C17.944,14.955 14.377,18.522 9.983,18.522C5.589,18.522 2.022,14.955 2.022,10.561C2.022,6.167 5.589,2.6 9.983,2.6ZM9.983,3.485C13.889,3.485 17.06,6.655 17.06,10.561C17.06,14.467 13.889,17.638 9.983,17.638C6.078,17.638 2.907,14.467 2.907,10.561C2.907,6.655 6.078,3.485 9.983,3.485Z" />
    </g>
    <g transform="matrix(1.22133,0,0,1.22133,-5.3272,6.83934)">
        <g transform="matrix(12,0,0,12,5.78661,5.28452)">
            <path d="M0.68,-0.531C0.62,-0.568 0.559,-0.633 0.496,-0.727C0.441,-0.638 0.385,-0.573 0.328,-0.531L0.68,-0.531ZM0.457,-0.027L0.457,-0.281L0.129,-0.281L0.129,-0.355L0.457,-0.355L0.457,-0.457L0.305,-0.457L0.305,-0.512C0.242,-0.462 0.168,-0.423 0.082,-0.395L0.043,-0.48C0.243,-0.546 0.38,-0.656 0.453,-0.813L0.551,-0.801C0.564,-0.798 0.563,-0.79 0.547,-0.777C0.635,-0.652 0.768,-0.563 0.945,-0.508L0.902,-0.418C0.827,-0.444 0.757,-0.479 0.691,-0.523L0.691,-0.457L0.535,-0.457L0.535,-0.355L0.867,-0.355L0.867,-0.281L0.535,-0.281L0.535,-0.027L0.898,-0.027L0.898,0.047L0.105,0.047L0.105,-0.027L0.457,-0.027ZM0.301,-0.047C0.275,-0.107 0.249,-0.158 0.223,-0.199L0.301,-0.238C0.329,-0.197 0.355,-0.147 0.379,-0.09L0.301,-0.047ZM0.617,-0.082C0.641,-0.129 0.663,-0.186 0.684,-0.254L0.758,-0.23C0.792,-0.223 0.794,-0.214 0.766,-0.203C0.747,-0.154 0.725,-0.104 0.699,-0.055L0.617,-0.082Z" style="fill-rule:nonzero;" />
        </g>
    </g>
</svg>