<?xml version="1.0" encoding="UTF-8" standalone="no"?>
<!DOCTYPE svg PUBLIC "-//W3C//DTD SVG 1.1//EN" "http://www.w3.org/Graphics/SVG/1.1/DTD/svg11.dtd">
<svg width="270px" height="270px" version="1.1" xmlns="http://www.w3.org/2000/svg" xmlns:xlink="http://www.w3.org/1999/xlink" xml:space="preserve" xmlns:serif="http://www.serif.com/" style="fill-rule:evenodd;clip-rule:evenodd;stroke-linejoin:round;stroke-miterlimit:2;">
    <g id="Page-9" serif:id="Page 9" transform="matrix(1,0,0,1,-25,-25)">
        <rect x="0" y="0" width="320" height="320" style="fill:none;"/>
    </g>
    <g id="Layer-1" serif:id="Layer 1" transform="matrix(1,0,0,1,-25,-25)">
        <path d="M158.667,272C96.572,272 48,221.758 48,160.872C48,99.985 97.905,48 160,48C222.095,48 272,101.292 272,162.179C272,223.065 220.762,272 158.667,272M158.902,32C88.258,32 32,89.858 32,159.782C32,229.707 90.893,288 161.537,288C232.182,288 288,231.445 288,161.521C288,91.597 229.547,32 158.902,32M243.839,207.149C245.021,211.3 239.82,220.233 230.791,220.063C228.025,220.012 225.477,218.024 223.161,214.881C222.649,214.187 222.613,214.157 221.754,214.225C198.848,216.014 181.092,219.271 162.294,223.292C147.971,226.357 144.528,226.303 142.723,216.835C141.296,209.354 142.375,207.608 152.508,207.149C155.876,206.997 159.285,206.805 162.802,206.589C163.796,206.528 163.876,206.477 164.196,205.533C165.577,201.459 167.959,195.672 172.079,187.778C181.994,168.78 182.298,165.178 188.388,165.178C194.479,165.178 201.436,168.116 201.436,171.635C201.436,174.819 194.064,181.124 182.415,202.961C181.513,204.654 181.968,205.388 183.884,205.278C192.972,204.76 203.169,204.293 215.177,204.066C216.872,204.034 217.23,203.534 216.628,201.95C214.448,196.218 212.635,189.969 211.221,184.55C208.511,174.166 212.994,170.951 221.006,181.321C229.019,191.691 242.657,202.999 243.839,207.149M250.362,168.406C234.731,168.406 221.861,163.732 207.959,139.35C194.057,114.966 193.813,107.003 188.388,103.835C182.962,100.667 171.133,103.666 178.603,97.378C185.769,91.346 195.518,82.058 201.436,94.149C207.353,106.241 222.87,151.751 250.362,158.721C262.758,161.863 271.082,168.406 250.362,168.406M109.799,140.949L109.799,141.045L109.706,140.971C109.737,140.964 109.768,140.956 109.799,140.949M185.126,136.121C187.094,127.327 179.488,125.049 168.817,126.436C158.146,127.821 159.063,133.736 165.556,136.121C168.694,137.273 168.147,144.118 162.636,155.122C162.068,156.256 161.841,156.339 160.66,155.877C152.905,152.837 140.919,147.262 130.541,138.695C128.977,137.403 129.205,136.427 131.176,135.945C153.02,130.609 158.522,127.789 155.77,123.206C154.322,120.797 143.45,121.605 128.92,123.609C127.438,123.814 127.128,123.545 127.13,122.049C127.164,88.273 124.213,87.446 116.628,85.411C105.182,82.34 97.058,79.008 97.058,85.411C97.058,88.866 99.115,91.807 103.581,95.097C107.939,98.308 109.26,103.825 109.653,125.156C109.677,126.38 109.545,126.548 108.336,126.741C94.479,128.962 79.822,131.401 67.701,132.893C53.994,134.577 58.547,138.234 64.439,145.807C68.976,151.637 80.713,148.832 100.188,143.854C102.279,143.318 103.007,144.258 101.96,146.146C89.704,168.246 75.94,179.419 61.098,193.376C55.396,198.737 81.656,198.318 106.969,167.777C108.441,166.001 109.769,166.509 109.741,168.815C109.26,209.863 106.542,210.505 103.294,209.62C72.131,201.138 76.952,205.941 97.058,221.012C129.208,245.111 124.429,228.235 126.414,159.668C126.432,159.033 126.45,158.404 126.468,157.781C126.528,155.653 127.59,155.207 129.121,156.687C134.856,162.227 142.165,168.126 150.176,171.823C151.565,172.465 151.675,172.916 150.774,174.154C148.376,177.454 145.7,180.923 142.723,184.55C119.077,213.352 173.331,188.845 185.126,136.121" style="fill-rule:nonzero;"/>
    </g>
</svg>
