<?xml version="1.0" encoding="UTF-8" standalone="no"?>
<!DOCTYPE svg PUBLIC "-//W3C//DTD SVG 1.1//EN" "http://www.w3.org/Graphics/SVG/1.1/DTD/svg11.dtd">
<svg width="100%" height="100%" viewBox="0 0 170 170" version="1.1" xmlns="http://www.w3.org/2000/svg" xmlns:xlink="http://www.w3.org/1999/xlink" xml:space="preserve" xmlns:serif="http://www.serif.com/" style="fill-rule:evenodd;clip-rule:evenodd;stroke-linejoin:round;stroke-miterlimit:2;">
    <g transform="matrix(1,0,0,1,-56.425,-40.775)">
        <g id="Layer_1">
            <g>
                <g>
                    <g id="Layer0_0_FILL">
                        <path d="M223.25,132.55C223.29,132.399 223.307,132.249 223.3,132.1C223.463,130.018 223.547,127.918 223.55,125.8C223.556,103.518 215.522,84.485 199.45,68.7C183.462,53.04 164.112,45.207 141.4,45.2C118.759,45.206 99.425,53.039 83.4,68.7C67.327,84.485 59.294,103.518 59.3,125.8C59.292,148.049 67.325,167.049 83.4,182.8C99.425,198.496 118.758,206.346 141.4,206.35C164.112,206.345 183.462,198.495 199.45,182.8C213.867,168.67 221.8,151.92 223.25,132.55M210.55,125.8C210.551,126.261 210.551,126.711 210.55,127.15C210.525,128.383 210.475,129.599 210.4,130.8C210.345,131.138 210.312,131.471 210.3,131.8C210.265,132.246 210.215,132.68 210.15,133.1C208.614,148.608 202.014,162.075 190.35,173.5C176.871,186.738 160.554,193.355 141.4,193.35C122.309,193.353 106.009,186.737 92.5,173.5C85.566,166.708 80.416,159.192 77.05,150.95C76.71,150.119 76.377,149.269 76.05,148.4C73.554,141.39 72.304,133.857 72.3,125.8C72.306,107.148 79.039,91.215 92.5,78C106.008,64.794 122.308,58.194 141.4,58.2C160.555,58.193 176.871,64.793 190.35,78C203.811,91.215 210.544,107.148 210.55,125.8Z" style="fill:rgb(51,51,51);fill-rule:nonzero;"/>
                        <path d="M119.3,79.1C119.233,78.8 119.05,78.583 118.75,78.45C117.95,77.95 117.117,77.7 116.25,77.7C115.317,77.567 114.317,77.367 113.25,77.1C113.017,77.067 112.8,77.017 112.6,76.95C112,76.65 111.4,76.35 110.8,76.05C110.2,75.85 109.567,75.65 108.9,75.45C106.667,74.85 104.4,74.733 102.1,75.1C101.033,75.733 100.717,76.633 101.15,77.8C101.35,77.9 101.55,78.017 101.75,78.15C104.283,79.283 106.567,80.783 108.6,82.65C109.5,83.45 109.967,84.433 110,85.6C110.033,85.9 110.067,86.2 110.1,86.5L110.35,90.9C110.35,91.533 110.233,92.433 110,93.6C109.767,94.8 109.517,95.817 109.25,96.65C108.95,97.483 108.7,98.367 108.5,99.3C108.333,100.2 108.283,101.85 108.35,104.25L100.25,106.6L100.55,106.5C99.783,106.7 99.05,106.967 98.35,107.3C97.017,107.9 95.683,108.483 94.35,109.05C92.917,109.683 91.467,110.133 90,110.4C87.333,110.7 84.633,110.983 81.9,111.25C81.4,111.25 80.917,111.3 80.45,111.4C79.75,111.533 79.117,111.667 78.55,111.8C77.917,112.633 77.717,113.567 77.95,114.6C78.083,115.067 78.367,115.433 78.8,115.7C79.133,115.867 79.483,116.017 79.85,116.15C80.35,116.283 80.867,116.4 81.4,116.5C81.967,116.7 84.233,117.017 88.2,117.45C88.933,117.383 89.633,117.283 90.3,117.15C91.8,116.917 93.267,116.733 94.7,116.6C95.8,116.433 96.9,116.25 98,116.05C100.233,116.05 102.433,116.017 104.6,115.95C104.5,116.117 104.417,116.25 104.35,116.35C104.117,116.617 103.867,117.017 103.6,117.55C103.333,117.983 103.1,118.317 102.9,118.55C102.7,118.75 102.317,119.117 101.75,119.65C101.317,120.05 100.95,120.467 100.65,120.9C99.85,121.933 98.8,123.45 97.5,125.45C96.067,127.617 95.033,129.133 94.4,130C93.633,131.033 92.4,132.517 90.7,134.45C88.933,136.483 87.667,138 86.9,139C85.933,140.267 84.35,142.183 82.15,144.75C81.65,145.317 81.217,145.817 80.85,146.25C80.217,146.483 79.6,146.75 79,147.05C78.017,147.499 77.033,147.949 76.05,148.4C76.377,149.269 76.71,150.119 77.05,150.95C77.611,151.117 78.311,151.2 79.15,151.2C84.05,151.2 90.183,148.067 97.55,141.8C98.117,141.3 98.65,140.833 99.15,140.4C100.117,139.767 101.083,139.117 102.05,138.45C103.783,137.15 105.617,135.55 107.55,133.65C107.55,134.317 107.567,134.983 107.6,135.65C107.667,136.517 107.733,137.383 107.8,138.25C107.9,138.783 107.967,139.333 108,139.9C108.1,141.133 108.183,142.383 108.25,143.65C108.317,144.817 108.4,146 108.5,147.2C108.667,148.6 108.833,150.017 109,151.45C109.033,151.65 109.067,151.867 109.1,152.1C109.167,152.667 109.217,153.233 109.25,153.8C109.25,154.067 109.2,154.333 109.1,154.6C109.033,154.767 108.983,154.933 108.95,155.1C108.883,155.333 108.733,155.533 108.5,155.7C108.3,155.767 108.083,155.8 107.85,155.8C107.417,155.867 106.983,155.917 106.55,155.95C106.383,155.95 106.2,155.967 106,156C105.033,156.033 104.083,156.033 103.15,156C102.083,155.9 101.033,155.733 100,155.5C99.833,155.4 99.667,155.317 99.5,155.25C98.533,154.75 97.6,154.283 96.7,153.85C96.233,153.617 95.717,153.467 95.15,153.4C94.05,153.133 92.967,153.067 91.9,153.2C91.833,153.233 91.767,153.267 91.7,153.3L91.35,153.55C91.017,154.283 91.2,154.933 91.9,155.5L91.9,155.55L93.2,156.4C94.433,157.167 95.617,157.983 96.75,158.85C97.117,159.117 97.483,159.4 97.85,159.7C98.017,159.867 98.183,160.05 98.35,160.25C98.583,160.55 98.833,160.8 99.1,161C100.9,162.733 102.683,164.5 104.45,166.3C104.983,166.8 105.5,167.317 106,167.85C106.3,168.183 106.583,168.5 106.85,168.8C107.35,169.4 107.85,169.983 108.35,170.55C108.65,170.917 108.983,171.267 109.35,171.6C109.65,171.867 110,172.1 110.4,172.3C110.767,172.5 111.167,172.667 111.6,172.8C112.133,172.967 112.7,173.017 113.3,172.95C113.7,173.017 114.1,173.1 114.5,173.2C114.9,173.167 115.3,173.133 115.7,173.1C115.8,173.033 115.883,172.967 115.95,172.9C116.117,172.833 116.3,172.767 116.5,172.7C116.6,171.467 116.65,170.233 116.65,169L116.65,165C116.617,163.533 116.6,162.067 116.6,160.6C116.6,159 116.633,157.417 116.7,155.85C116.767,154.45 116.817,153.05 116.85,151.65C116.917,150.15 116.967,148.667 117,147.2C117.033,145.5 117.067,143.783 117.1,142.05C117.133,140.35 117.117,138.617 117.05,136.85C117.05,135.25 117.067,133.667 117.1,132.1C117.133,130.9 117.25,129.717 117.45,128.55C117.783,126.85 117.967,125.167 118,123.5C120.6,124.467 123.017,125.783 125.25,127.45C125.75,127.783 126.267,128.1 126.8,128.4C127.733,128.933 128.7,129.45 129.7,129.95C129.9,130.05 130.083,130.15 130.25,130.25C130.517,130.383 130.783,130.5 131.05,130.6C131.65,130.867 132.217,131.183 132.75,131.55C134.25,132.483 135.8,133.3 137.4,134L137.4,133.9C137.433,133.9 137.45,133.917 137.45,133.95C137.483,133.983 137.5,134.017 137.5,134.05C137.5,134.083 137.517,134.1 137.55,134.1C136.783,135.4 136.233,136.383 135.9,137.05L135.85,137.05C135.517,137.383 135.183,137.717 134.85,138.05C134.45,138.383 134.167,138.7 134,139C133.767,139.4 133.517,139.8 133.25,140.2C132.683,140.933 132.117,141.65 131.55,142.35C131.25,142.65 131,142.95 130.8,143.25C130.367,143.917 129.85,144.467 129.25,144.9C128.817,145.2 128.417,145.55 128.05,145.95C127.15,146.883 126.667,148.017 126.6,149.35C126.567,149.817 126.733,150.167 127.1,150.4L127.15,150.75C127.25,150.717 127.367,150.7 127.5,150.7C127.6,150.9 127.75,151.067 127.95,151.2L127.95,151.6C128.65,151.467 129.317,151.25 129.95,150.95C132.217,149.917 134.117,148.467 135.65,146.6C135.95,146.267 136.25,145.983 136.55,145.75C136.883,145.45 137.233,145.133 137.6,144.8C137.667,144.7 137.75,144.617 137.85,144.55C138.317,144.317 138.717,144.033 139.05,143.7C140.817,142.1 142.333,140.3 143.6,138.3C144.533,136.9 145.583,135.583 146.75,134.35L149.45,131.15L151.95,128.9L152.9,127.85C153.467,127.15 154.033,126.45 154.6,125.75C155.133,125.117 155.617,124.483 156.05,123.85C156.617,122.983 157.267,122.167 158,121.4C158.3,121.033 158.6,120.65 158.9,120.25C159.2,119.917 159.433,119.533 159.6,119.1C159.7,118.8 159.767,118.517 159.8,118.25C159.8,118.183 159.817,118.133 159.85,118.1L160.15,117.8C160.217,117 160.4,116.233 160.7,115.5C160.833,115.167 160.917,114.817 160.95,114.45C160.983,114.15 161,113.833 161,113.5C161.033,112.3 161.05,111.1 161.05,109.9C161.05,109.433 160.933,109.033 160.7,108.7C160.6,108.533 160.533,108.35 160.5,108.15L160.5,108.05C160.267,107.883 160.017,107.733 159.75,107.6C159.717,107.5 159.7,107.4 159.7,107.3L159.7,107.25C157.433,105.75 154.95,105.25 152.25,105.75C151.15,105.85 150.083,105.917 149.05,105.95C148.683,106.05 148.333,106.133 148,106.2C146.7,106.533 146.083,107.367 146.15,108.7C146.15,109.067 146.2,109.433 146.3,109.8C146.333,110.133 146.367,110.467 146.4,110.8C146.4,111.3 146.467,111.75 146.6,112.15L146.65,112.2C146.717,112.833 146.817,113.6 146.95,114.5C146.95,114.967 146.933,115.9 146.9,117.3L146.9,117.35C146.633,118.217 146.367,118.967 146.1,119.6C145.633,120.767 145.183,121.633 144.75,122.2C144.383,122.867 144,123.517 143.6,124.15C141.833,123.65 139.433,122.817 136.4,121.65C133.9,120.683 131.983,119.833 130.65,119.1C129.75,118.733 128.85,118.4 127.95,118.1C127.05,117.867 126.183,117.55 125.35,117.15C124.983,116.95 124.617,116.767 124.25,116.6C123.517,116.2 122.75,115.883 121.95,115.65C121.85,115.617 121.767,115.567 121.7,115.5C120.567,115 119.633,114.633 118.9,114.4L118.9,113.75L119,113.75C118.9,113.617 118.85,113.467 118.85,113.3C118.85,113.167 118.9,113.067 119,113C119.033,112.367 119.383,111.95 120.05,111.75C120.517,111.617 121.533,111.383 123.1,111.05L125.4,111.05C125.5,111.05 126.1,110.967 127.2,110.8C128.3,110.633 128.9,110.55 129,110.55L129,110.5L130.15,110.5C130.65,110.433 131.15,110.383 131.65,110.35C132.75,110.15 133.5,110.017 133.9,109.95C135.267,109.883 136.5,109.533 137.6,108.9C138.867,108.2 139.5,107.4 139.5,106.5C139.5,103.5 137.95,101.967 134.85,101.9C133.717,101.867 132.65,102.05 131.65,102.45C131.583,102.483 131.517,102.5 131.45,102.5C131.217,102.5 131,102.533 130.8,102.6C128.567,102.667 126.35,102.717 124.15,102.75C123.183,102.783 122.217,102.817 121.25,102.85C120.75,102.75 120.267,102.65 119.8,102.55C119.833,101.05 119.883,99.517 119.95,97.95C120.083,94.217 120.167,90.5 120.2,86.8C120.233,85.367 120.183,83.967 120.05,82.6C119.95,81.4 119.7,80.233 119.3,79.1M166.6,80.9C166.433,80.8 166.267,80.75 166.1,80.75C165.5,80.65 164.883,80.617 164.25,80.65C163.95,80.617 163.633,80.617 163.3,80.65C163,80.65 162.7,80.733 162.4,80.9C162.267,81 162.133,81.083 162,81.15C161.767,81.25 161.533,81.467 161.3,81.8C160.933,82.233 160.45,82.6 159.85,82.9C159.717,83 159.567,83.1 159.4,83.2C159.133,83.367 158.833,83.5 158.5,83.6C157.933,83.833 157.5,84.083 157.2,84.35C156.967,84.55 156.65,84.683 156.25,84.75C156.183,84.717 156.117,84.7 156.05,84.7C155.95,84.667 155.833,84.667 155.7,84.7L155.65,84.7C155.483,84.667 155.317,84.683 155.15,84.75C154.883,84.817 154.6,84.883 154.3,84.95C154.167,84.983 154.05,85.017 153.95,85.05C153.617,85.217 153.333,85.367 153.1,85.5C152.9,85.633 152.8,85.867 152.8,86.2C152.767,86.567 152.717,86.917 152.65,87.25C152.583,87.45 152.583,87.633 152.65,87.8L152.65,87.85C152.617,88.017 152.617,88.15 152.65,88.25C152.65,88.35 152.7,88.417 152.8,88.45C153.1,88.583 153.483,88.683 153.95,88.75C154.283,88.783 154.617,88.8 154.95,88.8L155.4,88.8C155.867,88.8 156.333,88.817 156.8,88.85C157.267,88.85 157.733,88.883 158.2,88.95C158.367,88.95 158.55,88.983 158.75,89.05C158.883,89.117 159.033,89.133 159.2,89.1L159.3,89.1C159.4,89.133 159.5,89.133 159.6,89.1L159.7,89.1C159.967,89.133 160.183,89.217 160.35,89.35C160.45,89.45 160.583,89.5 160.75,89.5C161.783,89.633 162.667,90.15 163.4,91.05C163.767,91.45 164.083,91.767 164.35,92C164.55,92.367 164.75,92.767 164.95,93.2L165.7,95.6C166.633,98.033 167.567,99.783 168.5,100.85C168.7,101.217 168.95,101.55 169.25,101.85C169.45,102.15 169.633,102.483 169.8,102.85C170,103.317 170.25,103.75 170.55,104.15C171.35,105.083 172.017,106.117 172.55,107.25C172.65,107.483 172.767,107.683 172.9,107.85C173,108.017 173.083,108.183 173.15,108.35C173.517,109.65 174.133,110.9 175,112.1C176.1,113.733 177.167,115.433 178.2,117.2C178.733,118.067 179.217,118.95 179.65,119.85C179.983,120.483 180.383,121.033 180.85,121.5C180.983,121.633 181.083,121.767 181.15,121.9C181.583,122.533 181.983,123.1 182.35,123.6C182.417,123.633 182.467,123.683 182.5,123.75C182.767,124.117 183.083,124.467 183.45,124.8C183.75,125.233 184.067,125.633 184.4,126C185.033,126.667 185.683,127.283 186.35,127.85C187.917,129.117 189.65,130.15 191.55,130.95C191.75,131.083 191.95,131.217 192.15,131.35C192.55,131.45 193,131.567 193.5,131.7C193.667,131.733 193.817,131.767 193.95,131.8L194,131.8C194.033,131.8 194.083,131.817 194.15,131.85C194.85,132.017 195.55,132.183 196.25,132.35C196.583,132.417 196.917,132.483 197.25,132.55C198.317,132.817 199.383,133.033 200.45,133.2C200.817,133.233 201.167,133.25 201.5,133.25C202.333,133.317 203.167,133.367 204,133.4C204.467,133.433 204.933,133.45 205.4,133.45C206.233,133.45 207.05,133.4 207.85,133.3C208.614,133.208 209.38,133.142 210.15,133.1C210.215,132.68 210.265,132.246 210.3,131.8C210.312,131.471 210.345,131.138 210.4,130.8C210.475,129.599 210.525,128.383 210.55,127.15C210.465,127.176 210.382,127.193 210.3,127.2L210,127.2C209.767,127.233 209.55,127.25 209.35,127.25C209.117,127.25 208.9,127.233 208.7,127.2L208.5,127.2C208.267,127.133 208.05,127.083 207.85,127.05C207.65,127.017 207.45,127 207.25,127C206.817,126.833 206.3,126.667 205.7,126.5C202.833,125.967 201.017,125.583 200.25,125.35C197.283,123.983 195.767,123.3 195.7,123.3C195.533,123.233 195.383,123.183 195.25,123.15C195.117,123.083 195,123.017 194.9,122.95C194.4,122.683 193.9,122.4 193.4,122.1C192.733,121.667 192.067,121.333 191.4,121.1C190.733,120.333 190,119.567 189.2,118.8C187.8,117.467 186.567,116.133 185.5,114.8C185.333,114.567 185.15,114.317 184.95,114.05C184.183,112.983 183.467,111.85 182.8,110.65C182.3,109.85 181.833,109 181.4,108.1C181.1,107.433 180.8,106.783 180.5,106.15C179.933,105.017 179.5,103.867 179.2,102.7C178.867,101.4 178.333,100.217 177.6,99.15C176.867,98.083 176.217,97.017 175.65,95.95C175.283,95.35 174.883,94.717 174.45,94.05C173.95,93.417 173.517,92.733 173.15,92C173.05,91.867 172.967,91.733 172.9,91.6C172.7,91.3 172.417,90.85 172.05,90.25C171.817,89.917 171.55,89.517 171.25,89.05C171.217,88.983 171.167,88.933 171.1,88.9C171.067,88.8 171.033,88.683 171,88.55L171,87.25C171,86.917 171.033,86.583 171.1,86.25L171.1,85.6C171.167,84.8 170.967,84.15 170.5,83.65C170.467,83.583 170.433,83.517 170.4,83.45C170.367,83.35 170.317,83.267 170.25,83.2C170.017,82.933 169.75,82.683 169.45,82.45C169.35,82.35 169.233,82.267 169.1,82.2C169,82.167 168.9,82.117 168.8,82.05C168.667,81.983 168.533,81.917 168.4,81.85C167.8,81.517 167.2,81.2 166.6,80.9M164.85,132.15C164.683,132.117 164.517,132.067 164.35,132C163.35,131.9 162.45,131.617 161.65,131.15C161.517,131.05 161.383,130.967 161.25,130.9C161.183,130.833 161.133,130.8 161.1,130.8L158.85,130.05L157.45,132C157.217,132.267 156.967,132.517 156.7,132.75C156.567,132.883 156.4,133.05 156.2,133.25C155.867,133.617 155.533,134 155.2,134.4L151.35,140.35C151.117,140.75 150.9,141.1 150.7,141.4C149.867,142.833 149.083,144.3 148.35,145.8C148.15,146.267 148,146.65 147.9,146.95C147.867,147.083 147.833,147.183 147.8,147.25C147.533,147.783 147.417,148.367 147.45,149C147.483,149.133 147.483,149.233 147.45,149.3C147.317,149.733 147.267,150.2 147.3,150.7C147.333,150.833 147.317,150.933 147.25,151C147.017,151.367 146.867,151.833 146.8,152.4C146.8,152.5 146.783,152.6 146.75,152.7C146.583,152.967 146.45,153.233 146.35,153.5C146.183,153.867 146.067,154.233 146,154.6C145.967,154.733 145.933,154.85 145.9,154.95C145.8,155.15 145.717,155.367 145.65,155.6C145.583,155.8 145.533,155.983 145.5,156.15C145.467,156.25 145.433,156.35 145.4,156.45L145.4,156.7L145.3,156.7L145.2,156.65C144.533,156.583 143.883,156.483 143.25,156.35C142.75,156.25 142.25,156.183 141.75,156.15L140.25,156.15C138.917,156.05 137.6,156.133 136.3,156.4C135.733,156.433 135.2,156.533 134.7,156.7C134.133,156.9 133.583,157.133 133.05,157.4C132.517,157.667 132.017,158 131.55,158.4C131.217,158.7 131.067,159.033 131.1,159.4C131.033,159.533 131,159.7 131,159.9L131.05,160.05C131.083,160.45 131.217,160.95 131.45,161.55C131.65,162.217 131.75,162.75 131.75,163.15C131.75,163.283 131.717,163.833 131.65,164.8L131.6,165.2C131.5,165.8 131.433,166.467 131.4,167.2C131.367,167.833 131.6,168.367 132.1,168.8C132.4,169.067 132.783,169.183 133.25,169.15C135.183,169.283 137.1,169.333 139,169.3C139.433,169.2 139.85,169 140.25,168.7C140.283,168.7 140.3,168.683 140.3,168.65C140.767,168.383 141.25,168.15 141.75,167.95C142.483,167.65 143.183,167.233 143.85,166.7C144.283,166.6 144.733,166.483 145.2,166.35C148.867,165.45 150.85,165 151.15,165C151.583,164.933 152,164.9 152.4,164.9C152.567,164.867 152.75,164.833 152.95,164.8C154.717,164.567 156.517,164.233 158.35,163.8L158.5,163.8C159.233,163.733 159.933,163.583 160.6,163.35L161,163.35C161.233,163.383 161.417,163.383 161.55,163.35L163.3,163.3C165.633,162.7 168.633,162.183 172.3,161.75C176.467,161.217 179.65,160.717 181.85,160.25L182.1,160.25C182.233,160.55 182.333,160.867 182.4,161.2C182.433,161.4 182.483,161.583 182.55,161.75C182.617,161.85 182.667,161.95 182.7,162.05C182.767,162.183 182.833,162.317 182.9,162.45C182.967,162.55 183,162.65 183,162.75C183.067,163.117 183.183,163.467 183.35,163.8C183.483,164.1 183.583,164.417 183.65,164.75C183.65,164.85 183.683,164.933 183.75,165C183.817,165.067 183.867,165.167 183.9,165.3C183.933,165.367 183.967,165.417 184,165.45C184.567,166.583 185.533,167.067 186.9,166.9C187.267,166.867 187.65,166.817 188.05,166.75C188.217,166.683 188.367,166.65 188.5,166.65C190.9,166.55 192.4,166.217 193,165.65C193.167,165.517 193.65,165.017 194.45,164.15C194.65,164.017 194.817,163.867 194.95,163.7C195.083,163.533 195.217,163.383 195.35,163.25C195.95,162.783 196.383,162.233 196.65,161.6C196.717,161.467 196.783,161.333 196.85,161.2C197.483,160.4 197.783,159.45 197.75,158.35C197.75,158.183 197.717,158.033 197.65,157.9C197.617,157.8 197.55,157.717 197.45,157.65C197.117,157.283 196.817,156.9 196.55,156.5C196.45,156.367 196.35,156.233 196.25,156.1C196.083,155.867 195.967,155.667 195.9,155.5C195.767,155.067 195.55,154.7 195.25,154.4C195.183,154.333 195.1,154.233 195,154.1C194.5,153.367 193.933,152.7 193.3,152.1C193.167,151.967 192.983,151.733 192.75,151.4C192.517,151 192.2,150.65 191.8,150.35C191.467,150.083 191.2,149.767 191,149.4C190.933,149.267 190.817,149.133 190.65,149C190.017,148.367 189.267,147.683 188.4,146.95C188.067,146.65 187.6,146.283 187,145.85C186.733,145.65 186.467,145.467 186.2,145.3C186.1,145.233 186.017,145.167 185.95,145.1L185.9,145.05C185.567,144.65 184.717,143.983 183.35,143.05C181.817,142.083 180.917,141.467 180.65,141.2C180.383,140.833 180.083,140.483 179.75,140.15C179.583,139.917 179.417,139.7 179.25,139.5C178.95,139.1 178.633,138.733 178.3,138.4C177.867,137.967 177.333,137.7 176.7,137.6C176.067,137.533 175.517,137.667 175.05,138C174.683,138.233 174.55,138.683 174.65,139.35C174.65,139.517 174.683,139.667 174.75,139.8C174.917,140.3 175.083,140.817 175.25,141.35C175.483,141.95 175.683,142.517 175.85,143.05C175.85,143.183 175.883,143.283 175.95,143.35C176.183,144.017 176.5,144.717 176.9,145.45C177,145.65 177.1,145.817 177.2,145.95C177.367,146.25 177.533,146.567 177.7,146.9L178.45,149.35C178.817,150.55 179.167,151.517 179.5,152.25C178.4,152.583 177.65,152.783 177.25,152.85C175.317,153.517 173.883,153.917 172.95,154.05C172.617,154.15 172.3,154.233 172,154.3C171.433,154.367 170.833,154.45 170.2,154.55C168.767,154.75 167.95,154.883 167.75,154.95L163.85,154.95C163.25,155.083 162.683,155.2 162.15,155.3L159.65,155.3C159.183,155.433 158.683,155.55 158.15,155.65C158.25,155.217 158.333,154.767 158.4,154.3C158.433,154.067 158.467,153.833 158.5,153.6C158.6,153.433 158.65,153.267 158.65,153.1C158.683,152.967 158.717,152.85 158.75,152.75C158.817,152.617 158.883,152.483 158.95,152.35C159.117,151.917 159.367,151.533 159.7,151.2C159.767,151.167 159.8,151.117 159.8,151.05C159.9,150.617 160.033,150.317 160.2,150.15C160.367,150.017 160.483,149.8 160.55,149.5C160.583,149.4 160.617,149.3 160.65,149.2C160.783,148.933 160.883,148.65 160.95,148.35C160.983,148.217 161.033,148.117 161.1,148.05C161.3,147.883 161.417,147.683 161.45,147.45C161.483,146.883 161.633,146.433 161.9,146.1C162,146 162.067,145.9 162.1,145.8C162.4,145.333 162.683,144.883 162.95,144.45C163.05,144.317 163.133,144.183 163.2,144.05C163.567,143.35 164,142.683 164.5,142.05C164.567,141.983 164.6,141.917 164.6,141.85C165.133,140.95 165.717,140.117 166.35,139.35C166.483,139.217 166.583,139.083 166.65,138.95C166.95,138.55 167.233,138.167 167.5,137.8C167.567,137.667 167.633,137.55 167.7,137.45C167.8,137.25 167.883,137.033 167.95,136.8C167.95,136.767 167.967,136.7 168,136.6C168.267,136.067 168.5,135.617 168.7,135.25C168.767,135.15 168.85,135.067 168.95,135C169.183,134.867 169.283,134.667 169.25,134.4C169.25,134.3 169.217,134.217 169.15,134.15C168.783,133.85 168.467,133.533 168.2,133.2C168.167,133.167 168.117,133.133 168.05,133.1C167.917,133.067 167.817,133.017 167.75,132.95C167.65,132.917 167.567,132.883 167.5,132.85C167.367,132.783 167.217,132.733 167.05,132.7C166.917,132.667 166.817,132.6 166.75,132.5C166.45,132.233 165.983,132.133 165.35,132.2C165.183,132.2 165.017,132.183 164.85,132.15Z" style="fill-rule:nonzero;"/>
                    </g>
                </g>
            </g>
        </g>
    </g>
</svg>
