<!DOCTYPE svg PUBLIC "-//W3C//DTD SVG 1.1//EN" "http://www.w3.org/Graphics/SVG/1.1/DTD/svg11.dtd"[]><svg width="170" height="170" viewBox="0 0 170 170" version="1.1" xmlns="http://www.w3.org/2000/svg" xmlns:xlink="http://www.w3.org/1999/xlink" xml:space="preserve" xmlns:serif="http://www.serif.com/" style="fill-rule:evenodd;clip-rule:evenodd;stroke-linejoin:round;stroke-miterlimit:2;">
    <g id="Layer_1" transform="matrix(1,0,0,1,-238.5,-110.8)">
        <g>
            <g id="Layer0_0_FILL">
                <path d="M404.35,195.8C404.35,173.467 396.45,154.417 380.65,138.65C364.85,122.85 345.8,114.95 323.5,114.95C301.267,114.95 282.2,122.85 266.3,138.65C250.533,154.517 242.65,173.567 242.65,195.8C242.65,218.1 250.533,237.15 266.3,252.95C282.1,268.75 301.167,276.65 323.5,276.65C345.7,276.65 364.7,268.75 380.5,252.95L380.65,252.8C396.45,237 404.35,218 404.35,195.8M369.8,149.5C382.633,162.333 389.05,177.767 389.05,195.8C389.05,213.833 382.633,229.267 369.8,242.1C356.967,254.933 341.533,261.35 323.5,261.35C305.467,261.35 290.017,254.933 277.15,242.1C264.317,229.267 257.9,213.833 257.9,195.8C257.9,177.767 264.267,162.333 277,149.5L277.15,149.35C290.017,136.583 305.467,130.2 323.5,130.2C341.533,130.2 356.967,136.633 369.8,149.5M339.7,145.2C336.533,142.033 331.433,140.55 324.4,140.75C319.6,140.85 315.217,141.767 311.25,143.5C307.283,145.333 305.3,147.383 305.3,149.65C305.3,150.95 305.75,151.867 306.65,152.4C307.983,153.1 309.117,154.417 310.05,156.35C310.65,157.683 311.3,160.133 312,163.7C312.1,164 312.217,164.3 312.35,164.6L312.35,165.7C312.35,171.2 312.7,175.017 313.4,177.15L313.4,178.05L313.1,182.5C312.7,182.5 312.283,182.55 311.85,182.65C307.283,183.45 303.367,183.85 300.1,183.85L287.4,183.4C285.967,183 284.8,182.65 283.9,182.35C282.367,181.95 281.05,181.75 279.95,181.75C275.35,181.75 272.433,182.667 271.2,184.5C270.8,185.1 270.6,186.517 270.6,188.75C270.6,190.783 271.467,193.633 273.2,197.3C275.133,201.5 277.533,204.1 280.4,205.1C281.6,206.333 282.917,207 284.35,207.1L288.65,207.1C289.35,206.8 290.417,205.783 291.85,204.05C292.25,203.55 292.65,203.083 293.05,202.65C293.483,202.45 294,202.25 294.6,202.05C301.433,199.517 305.4,198.1 306.5,197.8L313.4,197.8L313.4,218.1C313.7,221.467 314.15,224.633 314.75,227.6C314.983,229.633 315.35,231.567 315.85,233.4C317.683,240.733 320.933,244.4 325.6,244.4C329.067,244.4 331.617,242.717 333.25,239.35C334.183,237.717 334.7,236.033 334.8,234.3C334.9,233.067 335.3,231.133 336,228.5C336.633,226.067 336.95,224.133 336.95,222.7C336.85,221.267 336.75,219.983 336.65,218.85C336.75,218.15 336.8,217.75 336.8,217.65C336.8,215.317 336.433,212.917 335.7,210.45C335,208.017 334.65,205.067 334.65,201.6C334.65,200.467 334.75,199.3 334.95,198.1L339.05,198.1C342.317,198.2 344.467,198.1 345.5,197.8C346.5,198.1 347.717,198.4 349.15,198.7C350.483,199 352.017,199.35 353.75,199.75C353.95,199.95 354.2,200.167 354.5,200.4C355.433,201.1 356.35,201.75 357.25,202.35C358.983,204.183 361.233,205.1 364,205.1C366.433,205.1 369.283,203.783 372.55,201.15C376.017,198.283 377.75,195.533 377.75,192.9C377.75,191.467 377.6,190.45 377.3,189.85C376.267,184.65 372.333,181.383 365.5,180.05L357.1,180.05C354.767,180.75 352.167,181.1 349.3,181.1L346.7,180.8L341.35,180.8C341.05,180.9 340.85,180.95 340.75,180.95L337.4,180.95L336.45,181.1C336.35,181 336.3,180.9 336.3,180.8C336.2,180.1 336.1,179.45 336,178.85L336.15,178.65C336.05,178.45 336,178.2 336,177.9C336,177.6 336.05,177.35 336.15,177.15L336,175.3C336.2,173.767 336.35,172.9 336.45,172.7C337.583,171.5 338.767,169.867 340,167.8C341.333,165.767 342.35,163.883 343.05,162.15L343.65,160.8C344.383,158.867 344.75,157.233 344.75,155.9C342.683,149.067 341,145.5 339.7,145.2Z" style="fill-rule:nonzero;" />
            </g>
        </g>
    </g>
</svg>