<?xml version="1.0" encoding="UTF-8" standalone="no"?>
<!DOCTYPE svg PUBLIC "-//W3C//DTD SVG 1.1//EN" "http://www.w3.org/Graphics/SVG/1.1/DTD/svg11.dtd">
<svg width="270px" height="270px" version="1.1" xmlns="http://www.w3.org/2000/svg" xmlns:xlink="http://www.w3.org/1999/xlink" xml:space="preserve" xmlns:serif="http://www.serif.com/" style="fill-rule:evenodd;clip-rule:evenodd;stroke-linejoin:round;stroke-miterlimit:2;">
    <g id="Page-10" serif:id="Page 10" transform="matrix(1,0,0,1,-25,-25)">
        <rect x="0" y="0" width="320" height="320" style="fill:none;"/>
    </g>
    <g id="Layer-1" serif:id="Layer 1" transform="matrix(1,0,0,1,-25,-25)">
        <path d="M113.857,145.268C110.445,159.2 105.986,170.796 100.304,180.993C99.701,182.074 99.285,182.162 98.243,181.494C91.883,177.418 90.295,177.358 101.023,147.925C101.442,146.775 102.279,145.818 103.362,145.246C106.175,143.761 108.451,142.497 109.902,141.643C115.504,138.347 115.401,138.963 113.857,145.268M247.656,171.632C236.122,164.053 222.61,168.007 222.72,165.59C223.619,145.818 230.83,145.265 231.507,140.655C232.606,133.184 226.564,132.745 214.371,132.196C208.648,131.938 209.098,136.589 204.704,137.468C195.615,139.287 184.052,140.544 171.309,141.863C158.566,143.181 157.687,142.302 155.491,132.196C153.294,122.089 154.392,107.039 150.437,102.755C146.482,98.471 137.24,97.341 137.585,100.449C139.542,118.057 139.871,113.622 111.278,127.101C109.653,127.867 108.842,127.123 109.48,125.444C114.835,111.33 119.55,98.423 120.337,91.33C121.091,84.547 117.043,81.444 106.716,81.883C96.39,82.323 90.019,86.477 90.019,91.33C90.019,96.058 103.084,88.097 90.222,133.661C89.858,134.952 88.83,135.959 87.529,136.287C66.215,141.645 60.798,130.523 60.798,152.189C60.798,162.24 61.623,165.866 63.764,165.041C66.578,163.959 66.723,161.003 79.792,156.122C81.621,155.439 82.487,156.352 81.715,158.145C76.052,171.295 71.838,176.164 72.443,180.091C73.132,184.58 81.149,187.172 90.52,193.191C91.572,193.868 91.647,194.307 90.884,195.298C85.183,202.704 78.594,209.475 71.014,216.122C65.668,220.811 71.344,221.107 79.253,217.77C87.877,214.132 94.974,209.498 101.051,203.29C101.873,202.453 102.234,202.428 103.086,203.235C111.537,211.236 114.218,216.248 117.043,219.638C120.476,223.758 128.248,218.979 122.974,208.653C119.394,201.641 115.212,196.24 111.18,192.063C110.5,191.358 110.474,191.148 110.982,190.31C115.247,183.277 118.998,174.867 122.535,164.711C132.031,137.451 132.95,134.037 137.474,129.12C141.594,124.643 142.775,123.874 143.187,128.46C145.206,150.934 148.8,157.531 152.086,158.945C156.424,160.812 160.544,157.461 179.218,153.727C197.893,149.992 204.265,150.871 204.265,153.288C204.265,162.515 201.189,165.151 196.795,165.59C150.634,170.206 121.223,181.984 123.085,189.428C124.402,194.702 127.918,199.315 133.63,199.315C135.865,199.315 140.931,196.641 148.462,193.347C151.738,191.914 153.121,193.374 151.755,196.678C141.38,221.796 120.777,237.543 124.073,240.509C127.369,243.475 142.199,242.158 159.005,223.372C175.813,204.588 183.393,200.304 170.87,192.065C169.945,191.456 169.087,190.881 168.29,190.343C165.837,188.69 166.158,186.673 169.004,185.871C177.99,183.337 188.45,181.401 200.2,181.19C223.045,180.779 242.932,187.341 249.523,190.637C256.115,193.932 259.191,179.212 247.656,171.632M227.114,212.167C234.759,224.259 233.659,233.589 222.61,233.589C216.348,233.589 212.818,226.345 207.121,211.289C200.969,195.031 195.476,191.077 197.67,189.643C201.281,187.283 217.667,197.228 227.114,212.167M182.518,94.052C183.465,92.607 186.232,93.375 192.879,92.83C201.203,92.148 204.296,90.733 204.942,91.608C205.517,92.388 205.643,94.052 204.742,99.091C204.159,102.355 203.775,105.012 202.94,105.862C202.209,106.606 198.506,107.34 194.38,107.643C190.142,107.955 186.992,110.598 186.122,109.934C185.321,109.324 184.606,105.574 184.019,101.993C183.269,97.412 181.716,95.274 182.518,94.052M175.813,128.46C180.097,131.097 184.381,126.154 189.984,121.54C195.586,116.926 214.042,121.54 217.337,117.914C220.632,114.289 222.61,105.062 224.257,96.494C225.906,87.925 232.497,90.562 232.497,83.641C232.497,79.344 223.269,73.425 215.03,73.754C206.792,74.084 206.792,79.686 187.677,81.994C168.563,84.3 162.961,75.622 160.544,81.774C157.761,88.855 163.949,87.266 168.233,103.414C172.517,119.563 171.529,125.825 175.813,128.46M161.295,275.997C97.055,276.532 44.039,224.158 44,159.988C43.961,95.818 97.402,43.909 160.993,44C224.583,44.093 275.595,95.422 275.998,158.685C276.399,221.947 225.536,275.46 161.295,275.997M162.292,32.007C92.187,31.289 32.273,88.32 32.001,159.508C31.728,230.696 91.024,288.268 161.309,287.999C231.594,287.731 287.818,230.275 288,160.168C288.18,90.063 232.396,32.725 162.292,32.007" style="fill-rule:nonzero;"/>
    </g>
</svg>
