<?xml version="1.0" encoding="UTF-8" standalone="no"?>
<!DOCTYPE svg PUBLIC "-//W3C//DTD SVG 1.1//EN" "http://www.w3.org/Graphics/SVG/1.1/DTD/svg11.dtd">
<svg width="270px" height="270px" version="1.1" xmlns="http://www.w3.org/2000/svg" xmlns:xlink="http://www.w3.org/1999/xlink" xml:space="preserve" xmlns:serif="http://www.serif.com/" style="fill-rule:evenodd;clip-rule:evenodd;stroke-linejoin:round;stroke-miterlimit:2;">
    <g id="Page-3" serif:id="Page 3" transform="matrix(1,0,0,1,-25,-25)">
        <rect x="0" y="0" width="320" height="320" style="fill:none;"/>
    </g>
    <g id="Layer-1" serif:id="Layer 1" transform="matrix(1,0,0,1,-25,-25)">
        <path d="M232.533,89.467L232.533,102.534C232.533,103.638 231.637,104.534 230.533,104.534L166.266,104.534C165.162,104.534 164.266,103.638 164.266,102.534L164.266,89.467C164.266,88.363 165.162,87.467 166.266,87.467L230.533,87.467C231.637,87.467 232.533,88.363 232.533,89.467M155.733,89.467L155.733,102.534C155.733,103.638 154.838,104.534 153.733,104.534L89.467,104.534C88.362,104.534 87.467,103.638 87.467,102.534L87.467,89.467C87.467,88.363 88.362,87.467 89.467,87.467L153.733,87.467C154.838,87.467 155.733,88.363 155.733,89.467M215.467,137.667C215.467,138.219 215.018,138.667 214.467,138.667L182.333,138.667C181.781,138.667 181.333,138.219 181.333,137.667L181.333,131.134C181.333,130.581 181.781,130.134 182.333,130.134L214.467,130.134C215.018,130.134 215.467,130.581 215.467,131.134L215.467,137.667ZM230.533,113.067L166.266,113.067C165.162,113.067 164.266,113.962 164.266,115.067L164.266,153.734C164.266,154.838 165.162,155.734 166.266,155.734L230.533,155.734C231.637,155.734 232.533,154.838 232.533,153.734L232.533,115.067C232.533,113.962 231.637,113.067 230.533,113.067M155.733,140.667L155.733,230.533C155.733,231.638 154.838,232.533 153.733,232.533L140.667,232.533C139.562,232.533 138.667,231.638 138.667,230.533L138.667,140.667C138.667,139.562 139.562,138.667 140.667,138.667L153.733,138.667C154.838,138.667 155.733,139.562 155.733,140.667M155.733,115.067L155.733,128.134C155.733,129.238 154.838,130.134 153.733,130.134L131.134,130.134C130.581,130.134 130.134,130.581 130.134,131.134L130.134,230.533C130.134,231.638 129.238,232.533 128.134,232.533L115.066,232.533C113.962,232.533 113.066,231.638 113.066,230.533L113.066,131.134C113.066,130.581 112.619,130.134 112.066,130.134L89.467,130.134C88.362,130.134 87.467,129.238 87.467,128.134L87.467,115.067C87.467,113.962 88.362,113.067 89.467,113.067L153.733,113.067C154.838,113.067 155.733,113.962 155.733,115.067M104.533,140.667L104.533,230.533C104.533,231.638 103.637,232.533 102.533,232.533L89.467,232.533C88.362,232.533 87.467,231.638 87.467,230.533L87.467,140.667C87.467,139.562 88.362,138.667 89.467,138.667L102.533,138.667C103.637,138.667 104.533,139.562 104.533,140.667M215.467,188.867C215.467,189.419 215.018,189.867 214.467,189.867L207.933,189.867C207.381,189.867 206.933,189.419 206.933,188.867L206.933,182.334C206.933,181.781 207.381,181.334 207.933,181.334L214.467,181.334C215.018,181.334 215.467,181.781 215.467,182.334L215.467,188.867ZM215.467,214.467C215.467,215.019 215.018,215.467 214.467,215.467L207.933,215.467C207.381,215.467 206.933,215.019 206.933,214.467L206.933,207.934C206.933,207.381 207.381,206.934 207.933,206.934L214.467,206.934C215.018,206.934 215.467,207.381 215.467,207.934L215.467,214.467ZM189.867,188.867C189.867,189.419 189.419,189.867 188.867,189.867L182.333,189.867C181.781,189.867 181.333,189.419 181.333,188.867L181.333,182.334C181.333,181.781 181.781,181.334 182.333,181.334L188.867,181.334C189.419,181.334 189.867,181.781 189.867,182.334L189.867,188.867ZM189.867,214.467C189.867,215.019 189.419,215.467 188.867,215.467L182.333,215.467C181.781,215.467 181.333,215.019 181.333,214.467L181.333,207.934C181.333,207.381 181.781,206.934 182.333,206.934L188.867,206.934C189.419,206.934 189.867,207.381 189.867,207.934L189.867,214.467ZM230.533,164.267L166.266,164.267C165.162,164.267 164.266,165.162 164.266,166.267L164.266,230.533C164.266,231.638 165.162,232.533 166.266,232.533L230.533,232.533C231.637,232.533 232.533,231.638 232.533,230.533L232.533,166.267C232.533,165.162 231.637,164.267 230.533,164.267M160,270.934C98.733,270.934 49.066,221.267 49.066,160C49.066,98.734 98.733,49.067 160,49.067C221.266,49.067 270.933,98.734 270.933,160C270.933,221.267 221.266,270.934 160,270.934M160,32C89.307,32 32,89.308 32,160C32,230.693 89.307,288 160,288C230.692,288 288,230.693 288,160C288,89.308 230.692,32 160,32" style="fill-rule:nonzero;"/>
    </g>
</svg>
