<!DOCTYPE svg PUBLIC "-//W3C//DTD SVG 1.1//EN" "http://www.w3.org/Graphics/SVG/1.1/DTD/svg11.dtd"[]><svg width="18" height="18" viewBox="0 0 18 18" version="1.1" xmlns="http://www.w3.org/2000/svg" xmlns:xlink="http://www.w3.org/1999/xlink" xml:space="preserve" xmlns:serif="http://www.serif.com/" style="fill-rule:evenodd;clip-rule:evenodd;stroke-linejoin:round;stroke-miterlimit:2;">
    <g transform="matrix(1.1305,0,0,1.1305,-2.28611,-2.93929)">
        <path d="M10.086,2.601L10.189,2.603L10.291,2.606L10.393,2.61L10.494,2.616L10.595,2.623L10.696,2.632L10.797,2.641L10.897,2.652L10.997,2.664L11.096,2.677L11.195,2.692L11.294,2.708L11.392,2.724L11.49,2.743L11.587,2.762L11.684,2.782L11.78,2.804L11.876,2.827L11.972,2.851L12.067,2.876L12.162,2.902L12.256,2.93L12.35,2.958L12.443,2.988L12.536,3.019L12.628,3.05L12.719,3.083L12.811,3.117L12.901,3.153L12.991,3.189L13.081,3.226L13.17,3.264L13.258,3.304L13.346,3.344L13.434,3.386L13.52,3.428L13.606,3.471L13.692,3.516L13.777,3.561L13.861,3.608L13.945,3.655L14.028,3.704L14.11,3.753L14.192,3.804L14.273,3.855L14.353,3.907L14.433,3.96L14.512,4.015L14.591,4.07L14.668,4.126L14.745,4.182L14.822,4.24L14.897,4.299L14.972,4.358L15.046,4.419L15.119,4.48L15.192,4.542L15.264,4.605L15.335,4.669L15.405,4.734L15.475,4.799L15.544,4.866L15.612,4.933L15.679,5.001L15.745,5.07L15.811,5.139L15.875,5.209L15.939,5.28L16.002,5.352L16.064,5.425L16.126,5.498L16.186,5.572L16.246,5.647L16.304,5.723L16.362,5.799L16.419,5.876L16.475,5.954L16.53,6.032L16.584,6.111L16.637,6.191L16.69,6.271L16.741,6.353L16.791,6.434L16.841,6.517L16.889,6.6L16.937,6.683L16.983,6.768L17.028,6.853L17.073,6.938L17.116,7.024L17.159,7.111L17.2,7.198L17.241,7.286L17.28,7.375L17.318,7.464L17.356,7.553L17.392,7.643L17.427,7.734L17.461,7.825L17.494,7.917L17.526,8.009L17.557,8.102L17.586,8.195L17.615,8.289L17.642,8.383L17.668,8.477L17.694,8.572L17.718,8.668L17.74,8.764L17.762,8.861L17.783,8.958L17.802,9.055L17.82,9.153L17.837,9.251L17.853,9.349L17.867,9.448L17.88,9.548L17.892,9.647L17.903,9.748L17.913,9.848L17.921,9.949L17.928,10.05L17.934,10.152L17.939,10.254L17.942,10.356L17.944,10.458L17.944,10.561L17.944,10.664L17.942,10.766L17.939,10.869L17.934,10.971L17.928,11.072L17.921,11.173L17.913,11.274L17.903,11.375L17.892,11.475L17.88,11.574L17.867,11.674L17.853,11.773L17.837,11.871L17.82,11.97L17.802,12.067L17.783,12.165L17.762,12.262L17.74,12.358L17.718,12.454L17.694,12.55L17.668,12.645L17.642,12.74L17.615,12.834L17.586,12.927L17.557,13.021L17.526,13.113L17.494,13.206L17.461,13.297L17.427,13.388L17.392,13.479L17.356,13.569L17.318,13.659L17.28,13.748L17.241,13.836L17.2,13.924L17.159,14.011L17.116,14.098L17.073,14.184L17.028,14.27L16.983,14.355L16.937,14.439L16.889,14.523L16.841,14.606L16.791,14.688L16.741,14.77L16.69,14.851L16.637,14.931L16.584,15.011L16.53,15.09L16.475,15.168L16.419,15.246L16.362,15.323L16.304,15.399L16.246,15.475L16.186,15.55L16.126,15.624L16.064,15.697L16.002,15.77L15.939,15.842L15.875,15.913L15.811,15.983L15.745,16.053L15.679,16.121L15.612,16.189L15.544,16.257L15.475,16.323L15.405,16.388L15.335,16.453L15.264,16.517L15.192,16.58L15.119,16.642L15.046,16.703L14.972,16.764L14.897,16.823L14.822,16.882L14.745,16.94L14.668,16.997L14.591,17.053L14.512,17.108L14.433,17.162L14.353,17.215L14.273,17.267L14.192,17.319L14.11,17.369L14.028,17.418L13.945,17.467L13.861,17.514L13.777,17.561L13.692,17.606L13.606,17.651L13.52,17.694L13.434,17.737L13.346,17.778L13.258,17.819L13.17,17.858L13.081,17.896L12.991,17.933L12.901,17.97L12.811,18.005L12.719,18.039L12.628,18.072L12.536,18.104L12.443,18.134L12.35,18.164L12.256,18.193L12.162,18.22L12.067,18.246L11.972,18.271L11.876,18.295L11.78,18.318L11.684,18.34L11.587,18.36L11.49,18.38L11.392,18.398L11.294,18.415L11.195,18.43L11.096,18.445L10.997,18.458L10.897,18.47L10.797,18.481L10.696,18.491L10.595,18.499L10.494,18.506L10.393,18.512L10.291,18.516L10.189,18.52L10.086,18.522L9.983,18.522L9.881,18.522L9.778,18.52L9.676,18.516L9.574,18.512L9.472,18.506L9.371,18.499L9.27,18.491L9.17,18.481L9.07,18.47L8.97,18.458L8.871,18.445L8.772,18.43L8.673,18.415L8.575,18.398L8.477,18.38L8.38,18.36L8.283,18.34L8.186,18.318L8.09,18.295L7.995,18.271L7.9,18.246L7.805,18.22L7.711,18.193L7.617,18.164L7.524,18.134L7.431,18.104L7.339,18.072L7.247,18.039L7.156,18.005L7.065,17.97L6.975,17.933L6.886,17.896L6.797,17.858L6.708,17.819L6.62,17.778L6.533,17.737L6.446,17.694L6.36,17.651L6.275,17.606L6.19,17.561L6.106,17.514L6.022,17.467L5.939,17.418L5.857,17.369L5.775,17.319L5.694,17.267L5.613,17.215L5.533,17.162L5.454,17.108L5.376,17.053L5.298,16.997L5.221,16.94L5.145,16.882L5.069,16.823L4.995,16.764L4.921,16.703L4.847,16.642L4.775,16.58L4.703,16.517L4.632,16.453L4.561,16.388L4.492,16.323L4.423,16.257L4.355,16.189L4.288,16.121L4.222,16.053L4.156,15.983L4.091,15.913L4.028,15.842L3.965,15.77L3.902,15.697L3.841,15.624L3.781,15.55L3.721,15.475L3.662,15.399L3.605,15.323L3.548,15.246L3.492,15.168L3.437,15.09L3.383,15.011L3.329,14.931L3.277,14.851L3.226,14.77L3.175,14.688L3.126,14.606L3.078,14.523L3.03,14.439L2.984,14.355L2.938,14.27L2.894,14.184L2.85,14.098L2.808,14.011L2.766,13.924L2.726,13.836L2.687,13.748L2.648,13.659L2.611,13.569L2.575,13.479L2.54,13.388L2.506,13.297L2.473,13.206L2.441,13.113L2.41,13.021L2.38,12.927L2.352,12.834L2.324,12.74L2.298,12.645L2.273,12.55L2.249,12.454L2.226,12.358L2.205,12.262L2.184,12.165L2.165,12.067L2.147,11.97L2.13,11.871L2.114,11.773L2.1,11.674L2.086,11.574L2.074,11.475L2.063,11.375L2.054,11.274L2.045,11.173L2.038,11.072L2.033,10.971L2.028,10.869L2.025,10.766L2.023,10.664L2.022,10.561L2.023,10.458L2.025,10.356L2.028,10.254L2.033,10.152L2.038,10.05L2.045,9.949L2.054,9.848L2.063,9.748L2.074,9.647L2.086,9.548L2.1,9.448L2.114,9.349L2.13,9.251L2.147,9.153L2.165,9.055L2.184,8.958L2.205,8.861L2.226,8.764L2.249,8.668L2.273,8.572L2.298,8.477L2.324,8.383L2.352,8.289L2.38,8.195L2.41,8.102L2.441,8.009L2.473,7.917L2.506,7.825L2.54,7.734L2.575,7.643L2.611,7.553L2.648,7.464L2.687,7.375L2.726,7.286L2.766,7.198L2.808,7.111L2.85,7.024L2.894,6.938L2.938,6.853L2.984,6.768L3.03,6.683L3.078,6.6L3.126,6.517L3.175,6.434L3.226,6.353L3.277,6.271L3.329,6.191L3.383,6.111L3.437,6.032L3.492,5.954L3.548,5.876L3.605,5.799L3.662,5.723L3.721,5.647L3.781,5.572L3.841,5.498L3.902,5.425L3.965,5.352L4.028,5.28L4.091,5.209L4.156,5.139L4.222,5.07L4.288,5.001L4.355,4.933L4.423,4.866L4.492,4.799L4.561,4.734L4.632,4.669L4.703,4.605L4.775,4.542L4.847,4.48L4.921,4.419L4.995,4.358L5.069,4.299L5.145,4.24L5.221,4.182L5.298,4.126L5.376,4.07L5.454,4.015L5.533,3.96L5.613,3.907L5.694,3.855L5.775,3.804L5.857,3.753L5.939,3.704L6.022,3.655L6.106,3.608L6.19,3.561L6.275,3.516L6.36,3.471L6.446,3.428L6.533,3.386L6.62,3.344L6.708,3.304L6.797,3.264L6.886,3.226L6.975,3.189L7.065,3.153L7.156,3.117L7.247,3.083L7.339,3.05L7.431,3.019L7.524,2.988L7.617,2.958L7.711,2.93L7.805,2.902L7.9,2.876L7.995,2.851L8.09,2.827L8.186,2.804L8.283,2.782L8.38,2.762L8.477,2.743L8.575,2.724L8.673,2.708L8.772,2.692L8.871,2.677L8.97,2.664L9.07,2.652L9.17,2.641L9.27,2.632L9.371,2.623L9.472,2.616L9.574,2.61L9.676,2.606L9.778,2.603L9.881,2.601L9.983,2.6L10.086,2.601ZM9.892,3.485L9.8,3.487L9.709,3.49L9.619,3.494L9.528,3.499L9.438,3.505L9.349,3.513L9.259,3.521L9.17,3.531L9.082,3.542L8.993,3.553L8.905,3.566L8.818,3.58L8.731,3.595L8.644,3.611L8.557,3.628L8.471,3.647L8.385,3.666L8.3,3.686L8.215,3.707L8.131,3.73L8.047,3.753L7.963,3.777L7.88,3.803L7.797,3.829L7.715,3.856L7.633,3.885L7.552,3.914L7.471,3.944L7.39,3.975L7.31,4.008L7.231,4.041L7.151,4.075L7.073,4.11L6.995,4.146L6.917,4.182L6.84,4.22L6.764,4.259L6.688,4.298L6.612,4.339L6.537,4.38L6.463,4.422L6.389,4.465L6.316,4.509L6.243,4.554L6.171,4.6L6.1,4.646L6.029,4.693L5.958,4.741L5.889,4.79L5.82,4.84L5.751,4.891L5.683,4.942L5.616,4.994L5.55,5.047L5.484,5.101L5.418,5.156L5.354,5.211L5.29,5.267L5.227,5.324L5.164,5.381L5.102,5.44L5.041,5.499L4.981,5.558L4.921,5.619L4.862,5.68L4.804,5.742L4.746,5.804L4.689,5.868L4.633,5.932L4.578,5.996L4.523,6.061L4.47,6.127L4.417,6.194L4.364,6.261L4.313,6.329L4.262,6.397L4.213,6.467L4.164,6.536L4.116,6.607L4.068,6.678L4.022,6.749L3.976,6.821L3.931,6.894L3.887,6.967L3.844,7.041L3.802,7.115L3.761,7.19L3.72,7.266L3.681,7.342L3.642,7.418L3.605,7.495L3.568,7.573L3.532,7.651L3.497,7.729L3.463,7.808L3.43,7.888L3.398,7.968L3.366,8.048L3.336,8.129L3.307,8.211L3.279,8.293L3.251,8.375L3.225,8.458L3.2,8.541L3.175,8.625L3.152,8.709L3.13,8.793L3.108,8.878L3.088,8.963L3.069,9.049L3.051,9.135L3.034,9.221L3.017,9.308L3.002,9.396L2.988,9.483L2.976,9.571L2.964,9.659L2.953,9.748L2.943,9.837L2.935,9.926L2.927,10.016L2.921,10.106L2.916,10.197L2.912,10.287L2.909,10.378L2.907,10.47L2.907,10.561L2.907,10.653L2.909,10.744L2.912,10.835L2.916,10.926L2.921,11.016L2.927,11.106L2.935,11.196L2.943,11.285L2.953,11.374L2.964,11.463L2.976,11.551L2.988,11.639L3.002,11.727L3.017,11.814L3.034,11.901L3.051,11.987L3.069,12.073L3.088,12.159L3.108,12.244L3.13,12.329L3.152,12.414L3.175,12.498L3.2,12.581L3.225,12.664L3.251,12.747L3.279,12.83L3.307,12.911L3.336,12.993L3.366,13.074L3.398,13.154L3.43,13.234L3.463,13.314L3.497,13.393L3.532,13.472L3.568,13.55L3.605,13.627L3.642,13.704L3.681,13.781L3.72,13.857L3.761,13.932L3.802,14.007L3.844,14.081L3.887,14.155L3.931,14.228L3.976,14.301L4.022,14.373L4.068,14.445L4.116,14.516L4.164,14.586L4.213,14.656L4.262,14.725L4.313,14.793L4.364,14.861L4.417,14.928L4.47,14.995L4.523,15.061L4.578,15.126L4.633,15.191L4.689,15.255L4.746,15.318L4.804,15.38L4.862,15.442L4.921,15.503L4.981,15.564L5.041,15.624L5.102,15.683L5.164,15.741L5.227,15.798L5.29,15.855L5.354,15.911L5.418,15.967L5.484,16.021L5.55,16.075L5.616,16.128L5.683,16.18L5.751,16.231L5.82,16.282L5.889,16.332L5.958,16.381L6.029,16.429L6.1,16.476L6.171,16.523L6.243,16.568L6.316,16.613L6.389,16.657L6.463,16.7L6.537,16.742L6.612,16.784L6.688,16.824L6.764,16.864L6.84,16.902L6.917,16.94L6.995,16.977L7.073,17.013L7.151,17.048L7.231,17.082L7.31,17.115L7.39,17.147L7.471,17.178L7.552,17.208L7.633,17.238L7.715,17.266L7.797,17.293L7.88,17.319L7.963,17.345L8.047,17.369L8.131,17.392L8.215,17.415L8.3,17.436L8.385,17.456L8.471,17.476L8.557,17.494L8.644,17.511L8.731,17.527L8.818,17.542L8.905,17.556L8.993,17.569L9.082,17.581L9.17,17.591L9.259,17.601L9.349,17.61L9.438,17.617L9.528,17.623L9.619,17.628L9.709,17.632L9.8,17.635L9.892,17.637L9.983,17.638L10.075,17.637L10.166,17.635L10.257,17.632L10.348,17.628L10.438,17.623L10.528,17.617L10.618,17.61L10.707,17.601L10.796,17.591L10.885,17.581L10.973,17.569L11.061,17.556L11.149,17.542L11.236,17.527L11.323,17.511L11.409,17.494L11.495,17.476L11.581,17.456L11.666,17.436L11.751,17.415L11.836,17.392L11.92,17.369L12.003,17.345L12.087,17.319L12.169,17.293L12.252,17.266L12.334,17.238L12.415,17.208L12.496,17.178L12.577,17.147L12.657,17.115L12.736,17.082L12.815,17.048L12.894,17.013L12.972,16.977L13.049,16.94L13.126,16.902L13.203,16.864L13.279,16.824L13.354,16.784L13.429,16.742L13.504,16.7L13.577,16.657L13.651,16.613L13.723,16.568L13.795,16.523L13.867,16.476L13.938,16.429L14.008,16.381L14.078,16.332L14.147,16.282L14.215,16.231L14.283,16.18L14.351,16.128L14.417,16.075L14.483,16.021L14.548,15.967L14.613,15.911L14.677,15.855L14.74,15.798L14.803,15.741L14.864,15.683L14.926,15.624L14.986,15.564L15.046,15.503L15.105,15.442L15.163,15.38L15.221,15.318L15.277,15.255L15.334,15.191L15.389,15.126L15.443,15.061L15.497,14.995L15.55,14.928L15.602,14.861L15.654,14.793L15.704,14.725L15.754,14.656L15.803,14.586L15.851,14.516L15.898,14.445L15.945,14.373L15.991,14.301L16.035,14.228L16.079,14.155L16.122,14.081L16.164,14.007L16.206,13.932L16.246,13.857L16.286,13.781L16.324,13.704L16.362,13.627L16.399,13.55L16.435,13.472L16.47,13.393L16.504,13.314L16.537,13.234L16.569,13.154L16.6,13.074L16.63,12.993L16.66,12.911L16.688,12.83L16.715,12.747L16.742,12.664L16.767,12.581L16.791,12.498L16.815,12.414L16.837,12.329L16.858,12.244L16.879,12.159L16.898,12.073L16.916,11.987L16.933,11.901L16.949,11.814L16.964,11.727L16.978,11.639L16.991,11.551L17.003,11.463L17.014,11.374L17.023,11.285L17.032,11.196L17.039,11.106L17.045,11.016L17.051,10.926L17.055,10.835L17.058,10.744L17.059,10.653L17.06,10.561L17.059,10.47L17.058,10.378L17.055,10.287L17.051,10.197L17.045,10.106L17.039,10.016L17.032,9.926L17.023,9.837L17.014,9.748L17.003,9.659L16.991,9.571L16.978,9.483L16.964,9.396L16.949,9.308L16.933,9.222L16.916,9.135L16.898,9.049L16.879,8.963L16.858,8.878L16.837,8.793L16.815,8.709L16.791,8.625L16.767,8.541L16.742,8.458L16.715,8.375L16.688,8.293L16.66,8.211L16.63,8.129L16.6,8.048L16.569,7.968L16.537,7.888L16.504,7.808L16.47,7.729L16.435,7.651L16.399,7.573L16.362,7.495L16.324,7.418L16.286,7.342L16.246,7.266L16.206,7.19L16.164,7.115L16.122,7.041L16.079,6.967L16.035,6.894L15.991,6.821L15.945,6.749L15.898,6.678L15.851,6.607L15.803,6.536L15.754,6.467L15.704,6.397L15.654,6.329L15.602,6.261L15.55,6.194L15.497,6.127L15.443,6.061L15.389,5.996L15.334,5.932L15.277,5.868L15.221,5.804L15.163,5.742L15.105,5.68L15.046,5.619L14.986,5.558L14.926,5.499L14.864,5.44L14.803,5.381L14.74,5.324L14.677,5.267L14.613,5.211L14.548,5.156L14.483,5.101L14.417,5.047L14.351,4.994L14.283,4.942L14.215,4.891L14.147,4.84L14.078,4.79L14.008,4.741L13.938,4.693L13.867,4.646L13.795,4.6L13.723,4.554L13.651,4.509L13.577,4.465L13.504,4.422L13.429,4.38L13.354,4.339L13.279,4.298L13.203,4.259L13.126,4.22L13.049,4.182L12.972,4.146L12.894,4.11L12.815,4.075L12.736,4.041L12.657,4.008L12.577,3.975L12.496,3.944L12.415,3.914L12.334,3.885L12.252,3.856L12.169,3.829L12.087,3.803L12.003,3.777L11.92,3.753L11.836,3.73L11.751,3.707L11.666,3.686L11.581,3.666L11.495,3.647L11.409,3.628L11.323,3.611L11.236,3.595L11.149,3.58L11.061,3.566L10.973,3.553L10.885,3.542L10.796,3.531L10.707,3.521L10.618,3.513L10.528,3.505L10.438,3.499L10.348,3.494L10.257,3.49L10.166,3.487L10.075,3.485L9.983,3.485L9.892,3.485Z" />
    </g>
    <g transform="matrix(1.14743,0,0,1.14743,-4.61042,7.66056)">
        <g transform="matrix(12,0,0,12,5.78661,5.28452)">
            <path d="M0.461,-0.371L0.535,-0.371C0.556,-0.368 0.557,-0.361 0.539,-0.348L0.539,-0.289L0.824,-0.289L0.824,-0.215L0.551,-0.215C0.663,-0.137 0.789,-0.081 0.93,-0.047L0.895,0.035C0.78,0.007 0.661,-0.056 0.539,-0.152L0.539,0.082L0.461,0.082L0.461,-0.152C0.375,-0.061 0.262,0.007 0.121,0.051L0.082,-0.023C0.217,-0.057 0.335,-0.121 0.434,-0.215L0.184,-0.215L0.184,-0.289L0.461,-0.289L0.461,-0.371ZM0.164,-0.281L0.086,-0.281L0.086,-0.457L0.918,-0.457L0.918,-0.285L0.84,-0.285L0.84,-0.395L0.164,-0.395L0.164,-0.281ZM0.73,-0.719C0.73,-0.635 0.798,-0.576 0.934,-0.539L0.902,-0.48C0.803,-0.507 0.74,-0.549 0.711,-0.609C0.69,-0.542 0.633,-0.496 0.539,-0.473L0.516,-0.531C0.615,-0.552 0.664,-0.605 0.664,-0.691L0.664,-0.801L0.727,-0.801C0.747,-0.798 0.749,-0.79 0.73,-0.777L0.73,-0.719ZM0.309,-0.57C0.28,-0.521 0.224,-0.488 0.141,-0.473L0.109,-0.527C0.221,-0.551 0.277,-0.607 0.277,-0.695L0.277,-0.805L0.34,-0.805C0.361,-0.802 0.362,-0.794 0.344,-0.781L0.344,-0.691C0.344,-0.668 0.341,-0.645 0.336,-0.621C0.398,-0.6 0.451,-0.576 0.492,-0.547L0.465,-0.488C0.426,-0.514 0.374,-0.542 0.309,-0.57ZM0.785,-0.668C0.803,-0.702 0.816,-0.736 0.824,-0.77L0.891,-0.746C0.911,-0.738 0.91,-0.729 0.887,-0.719C0.876,-0.693 0.862,-0.665 0.844,-0.637L0.785,-0.668ZM0.617,-0.738C0.617,-0.702 0.612,-0.665 0.602,-0.629L0.535,-0.641C0.546,-0.677 0.551,-0.712 0.551,-0.746L0.617,-0.738ZM0.219,-0.73C0.219,-0.691 0.211,-0.652 0.195,-0.613L0.129,-0.629C0.145,-0.665 0.152,-0.702 0.152,-0.738L0.219,-0.73ZM0.48,-0.703C0.475,-0.68 0.464,-0.652 0.445,-0.621L0.383,-0.645C0.401,-0.671 0.414,-0.706 0.422,-0.75L0.484,-0.73C0.505,-0.723 0.504,-0.714 0.48,-0.703Z" style="fill-rule:nonzero;" />
        </g>
    </g>
</svg>