<!-- Created with sK1/UniConvertor (http://sk1project.org/) --><svg xmlns="http://www.w3.org/2000/svg" xmlns:xlink="http://www.w3.org/1999/xlink" width="128pt" height="127pt" viewBox="0 0 128 127" fill-rule="evenodd"><g><g><path style="stroke:none; fill:#000000" d="M 50 2.5C 39.2 4.9 27.9 11.2 20.2 18.9C 7.3 32 1.6 45.3 1.6 62.5C 1.7 80.3 7.2 94.2 19 105.9C 30.8 117.6 44.1 123.7 60.1 124.7C 89.9 126.6 116.5 106.9 124 77.4C 131.8 47.1 114.1 14.8 84 4.4C 74.6 1.1 59.8 0.300003 50 2.5zM 82 11.2C 115.6 23.4 129.2 63.1 110 92.6C 90.6 122.2 49.9 126.5 24.6 101.6C 14.3 91.3 9 78.6 8.8 63.8C 8.6 54 10.2 46.6 14 39C 19.4 28.2 30.7 17.3 41 12.8C 53.2 7.5 70 6.8 82 11.2z" /><path style="stroke:none; fill:#000000" d="M 89.6 26.2C 88.6 26.8 82.8 27.5 76.9 27.8C 64.9 28.3 62.3 29.5 65.4 32.9C 66.4 34 67.5 37.4 67.9 40.4C 68.3 43.5 69.2 46.6 69.9 47.3C 71.2 48.6 85.6 49.6 89.5 48.6C 91.1 48.2 92 47.3 92 45.9C 92 42.5 95.9 36.1 99 34.5C 100.7 33.6 102 32.6 102 32.1C 102 30.4 94.6 24.9 92.3 25C 91.9 25 90.7 25.6 89.6 26.2zM 88 35.2C 87.9 40.2 86.9 41 81 41C 75.9 41 75.2 40.8 74.6 38.7C 74.3 37.5 74 36.2 74 35.8C 74 35.4 76.8 34.9 80.3 34.7C 83.7 34.5 86.8 34.3 87.3 34.2C 87.7 34.1 88 34.6 88 35.2z" /><path style="stroke:none; fill:#000000" d="M 36 30.9C 32.9 31.8 32.3 34.5 34.5 37C 36 38.6 36 39.7 35 46.4L 33.7 53.9L 29.1 54.5C 18.6 55.9 18.1 56.3 18 62.8C 18 66.1 20.1 66.4 24.9 63.9C 27.2 62.7 29.3 62 29.6 62.2C 29.8 62.5 28.2 65.1 26 68.1C 23.8 71 22 73.8 22 74.2C 22 75.4 25.1 78 26.6 78C 27.4 78 29.5 78.7 31.2 79.6L 34.2 81.2L 29.6 85.9C 25.2 90.4 23.9 93 26 93C 27.9 93 34.5 89.3 36.4 87.1L 38.4 84.9L 43.1 89.6C 45.7 92.1 48.3 93.9 48.9 93.6C 50.9 92.3 50 87.5 47 82.7C 45.4 80.1 44 77.7 44 77.4C 44 77.1 45.3 74.1 46.9 70.7C 50.1 63.9 53.5 49.8 52.6 47.5C 52.1 46.1 51.5 46.2 47.9 48C 45.7 49.2 43.6 49.9 43.3 49.6C 42.5 48.9 44 41.1 45.1 40.4C 46.4 39.6 46.2 34.6 44.8 32.7C 43.2 30.7 39.4 29.9 36 30.9zM 43.5 61.7C 40.3 70.6 39 73 37 73C 34 73 33.9 71.6 36.2 65.9C 38.5 60.1 40.3 58 43.1 58C 44.8 58 44.8 58.3 43.5 61.7z" /><path style="stroke:none; fill:#000000" d="M 51 33.2C 51 34.5 52.7 37.9 54.7 40.8C 58.2 45.9 58.4 46.7 58.6 54.7C 58.7 59.4 59 63.4 59.3 63.6C 59.7 64 75.1 62.5 81.5 61.5L 84.5 61L 82.3 63.2C 80.8 64.6 77.4 66 72.3 67C 51 71.5 47 72.5 47 73.4C 47 74.6 51 81 51.8 81C 52.1 81 54.2 80.1 56.4 79C 66.6 74.1 91.2 72.5 101 76.1C 104 77.2 107.2 78.3 108.1 78.6C 108.9 78.9 110.7 78.2 112.1 77.1L 114.5 75.1L 112.5 71.3L 110.5 67.5L 101.5 66.5L 92.5 65.5L 96.8 62.7C 99.1 61.2 101 59.3 101 58.6C 101 57.8 99.8 55.7 98.3 54C 95.5 50.6 95.6 50.6 85.9 53C 83.4 53.6 77.8 54 73.4 53.8L 65.5 53.5L 63.9 44.2C 63.1 39.1 61.7 34.3 60.9 33.6C 60.1 32.9 57.6 32 55.3 31.6C 51.3 31 51 31.1 51 33.2z" /><path style="stroke:none; fill:#000000" d="M 79.7 76.4C 79.4 77.2 80.3 78.8 81.6 80.1C 83 81.4 85.5 85 87.1 88C 90.6 94.6 95.4 100 97.9 100C 100.9 100 103.3 97.5 103.3 94.3C 103.3 90 96.7 80.5 91.5 77.5C 86.9 74.7 80.5 74.2 79.7 76.4z" /><path style="stroke:none; fill:#000000" d="M 66 78.9C 66 81.3 56.7 90.7 50.3 94.7C 45.3 97.9 43.3 99.7 43.7 100.7C 45.4 105 69.5 94.5 73.1 87.9C 74 86.2 73.7 85.1 71.4 81.9C 69 78.4 66 76.7 66 78.9z" /></g></g></svg>