<!-- Created with sK1/UniConvertor (http://sk1project.org/) --><svg xmlns="http://www.w3.org/2000/svg" xmlns:xlink="http://www.w3.org/1999/xlink" width="128pt" height="128pt" viewBox="0 0 128 128" fill-rule="evenodd"><g><g><path style="stroke:none; fill:#000000" d="M 49.2 1.5C 45.7 2.3 39.4 4.6 35.2 6.7C 24.5 11.9 11.9 24.4 6.7 35.1C -4.3 57.6 -1.5 84.5 13.7 103.5C 23.2 115.2 34.2 122.4 48.7 126.1C 82.3 134.7 117.3 113.6 126 79.4C 134.1 48 115.8 14.1 85 3.3C 75.6 0.100006 59.1 -0.800003 49.2 1.5zM 81.5 13C 92.3 16.7 102.7 25 109.4 35.2C 122.8 55.4 119.9 83.8 102.6 101.2C 82.8 121.2 53.8 123.5 31.7 106.9C 15.6 94.7 7.5 74.4 10.9 54.6C 14.6 33.4 32 15.6 53.5 11C 60 9.6 74.8 10.6 81.5 13z" /><path style="stroke:none; fill:#000000" d="M 60.2 20C 57 21.3 56 24.9 56 35.6L 56 45L 44.5 45L 33 45L 31 48.2C 28.5 52.4 28.5 55.2 30.9 57.4C 32.6 58.9 34 59.1 40.4 58.5C 44.6 58.1 49.5 58.1 51.4 58.4L 54.8 59L 53.8 63.3C 53.3 65.6 52.3 68.4 51.5 69.5C 48.5 74.1 38.1 85.2 33.3 89.1C 27.8 93.5 26.5 97.1 29.2 99.8C 33.3 103.9 46.9 96 56.6 83.9C 59.7 80.1 62.6 77 63 77C 63.4 77 65.6 79.5 67.9 82.4C 76.6 94 87.3 103 92.4 103C 94.6 103 100 98 100 96C 100 94.8 97.2 91.8 93.1 88.5C 82.1 79.6 71 65.7 71 60.8L 71 58L 79.8 58C 94.4 57.9 99 56 99 49.9C 99 45.6 97.1 44.9 83.1 44.3L 70 43.7L 70 34C 70 26.1 69.7 23.8 68.3 22.2C 66.1 19.7 63.2 18.9 60.2 20z" /></g></g></svg>