<?xml version="1.0" encoding="UTF-8" standalone="no"?>
<!DOCTYPE svg PUBLIC "-//W3C//DTD SVG 1.1//EN" "http://www.w3.org/Graphics/SVG/1.1/DTD/svg11.dtd">
<svg width="100%" height="100%" viewBox="0 0 18 18" version="1.1" xmlns="http://www.w3.org/2000/svg" xmlns:xlink="http://www.w3.org/1999/xlink" xml:space="preserve" xmlns:serif="http://www.serif.com/" style="fill-rule:evenodd;clip-rule:evenodd;stroke-linejoin:round;stroke-miterlimit:2;">
    <g transform="matrix(1.1305,0,0,1.1305,-2.28611,-2.93929)">
        <path d="M9.983,2.6C14.377,2.6 17.944,6.167 17.944,10.561C17.944,14.955 14.377,18.522 9.983,18.522C5.589,18.522 2.022,14.955 2.022,10.561C2.022,6.167 5.589,2.6 9.983,2.6ZM9.983,3.485C13.889,3.485 17.06,6.655 17.06,10.561C17.06,14.467 13.889,17.638 9.983,17.638C6.078,17.638 2.907,14.467 2.907,10.561C2.907,6.655 6.078,3.485 9.983,3.485Z"/>
    </g>
    <g transform="matrix(1.22133,0,0,1.22133,-5.33975,6.56319)">
        <g transform="matrix(12,0,0,12,5.78661,5.28452)">
            <path d="M0.063,-0.02C0.302,-0.103 0.428,-0.263 0.441,-0.5L0.09,-0.5L0.09,-0.586L0.449,-0.586L0.449,-0.793L0.535,-0.793C0.561,-0.788 0.563,-0.777 0.539,-0.762L0.539,-0.586L0.914,-0.586L0.914,-0.5L0.547,-0.5C0.602,-0.284 0.734,-0.13 0.945,-0.039L0.895,0.055C0.712,-0.029 0.583,-0.169 0.508,-0.367C0.464,-0.154 0.327,-0.007 0.098,0.074L0.063,-0.02Z" style="fill-rule:nonzero;"/>
        </g>
    </g>
</svg>
