<!DOCTYPE svg PUBLIC "-//W3C//DTD SVG 1.1//EN" "http://www.w3.org/Graphics/SVG/1.1/DTD/svg11.dtd"[]><svg width="170" height="170" viewBox="0 0 170 170" version="1.1" xmlns="http://www.w3.org/2000/svg" xmlns:xlink="http://www.w3.org/1999/xlink" xml:space="preserve" xmlns:serif="http://www.serif.com/" style="fill-rule:evenodd;clip-rule:evenodd;stroke-linejoin:round;stroke-miterlimit:2;">
    <g id="Layer_1" transform="matrix(1,0,0,1,-182.2,-101.7)">
        <g>
            <g id="Layer0_0_FILL">
                <path d="M348.45,186.7C348.45,164.367 340.467,145.217 324.5,129.25C308.667,113.383 289.567,105.45 267.2,105.45C244.833,105.45 225.667,113.383 209.7,129.25C193.867,145.217 185.95,164.367 185.95,186.7C185.95,209.067 193.867,228.167 209.7,244C225.667,259.967 244.833,267.95 267.2,267.95C289.567,267.95 308.667,259.967 324.5,244C340.467,228.167 348.45,209.067 348.45,186.7M193.3,186.7C193.3,166.333 200.5,148.9 214.9,134.4C229.367,120.033 246.8,112.85 267.2,112.85C287.6,112.85 304.983,120.033 319.35,134.4C333.85,148.9 341.1,166.333 341.1,186.7C341.1,207.1 333.85,224.483 319.35,238.85C304.983,253.35 287.6,260.6 267.2,260.6C246.8,260.6 229.367,253.35 214.9,238.85C200.5,224.483 193.3,207.1 193.3,186.7M329.1,180.65L329.1,180.1C327.267,166.833 321.25,155.1 311.05,144.9C309.95,143.8 308.85,142.75 307.75,141.75C306.65,140.65 305.483,139.667 304.25,138.8C302.283,137.1 299.95,135.817 297.25,134.95C296.25,134.683 295.267,134.433 294.3,134.2C291.967,133.833 289.867,134.633 288,136.6C286.067,139.8 284.783,143.367 284.15,147.3C284.017,148.267 283.717,149.25 283.25,150.25C282.517,151.583 281.717,152.867 280.85,154.1C280.583,154.467 280.4,154.833 280.3,155.2L243.05,217.85C242.083,216.983 241.167,216.117 240.3,215.25C233.9,208.983 230.1,201.75 228.9,193.55L228.9,192.8C228.533,190.833 228.35,188.8 228.35,186.7C228.35,178.967 230.25,172.033 234.05,165.9L234.25,165.7C235.817,162.867 237.833,160.35 240.3,158.15C240.667,157.65 241.4,156.85 242.5,155.75C243.6,154.517 245.383,152.733 247.85,150.4C250.317,147.967 252.1,145.517 253.2,143.05C254.2,140.583 254.017,137.817 252.65,134.75C251.183,131.55 248.55,129.95 244.75,129.95C240.817,129.95 237.5,130.817 234.8,132.55C231.7,134.25 228.8,136.333 226.1,138.8C225.267,139.533 224.417,140.4 223.55,141.4C219.75,145.067 216.617,149.05 214.15,153.35C214.017,153.483 213.95,153.617 213.95,153.75C207.817,163.45 204.75,174.433 204.75,186.7C204.75,190.033 205,193.233 205.5,196.3L205.5,196.85C207.333,210.117 213.35,221.85 223.55,232.05C226.117,234.617 228.883,236.95 231.85,239.05C234.783,240.517 236.617,241.25 237.35,241.25C237.983,241.25 238.85,241.067 239.95,240.7C243.017,240.067 245.9,236.933 248.6,231.3L253,220.6C253.5,219.267 254.367,217.367 255.6,214.9L289.7,157.6C291.3,158.833 292.833,160.183 294.3,161.65C300.667,167.917 304.467,175.167 305.7,183.4L305.7,184.15C306.067,186.117 306.25,188.133 306.25,190.2C306.25,197.933 304.35,204.883 300.55,211.05L300.35,211.2C298.75,214.033 296.733,216.55 294.3,218.75C293.933,219.25 293.2,220.05 292.1,221.15C290.967,222.383 289.183,224.167 286.75,226.5C284.283,228.967 282.5,231.433 281.4,233.9C280.4,236.333 280.583,239.083 281.95,242.15C283.417,245.35 286.05,246.95 289.85,246.95C293.783,246.95 297.1,246.1 299.8,244.4C302.867,242.667 305.75,240.567 308.45,238.1C309.317,237.367 310.183,236.517 311.05,235.55C314.85,231.85 317.983,227.85 320.45,223.55C320.583,223.45 320.65,223.333 320.65,223.2C326.783,213.5 329.85,202.5 329.85,190.2C329.85,186.9 329.6,183.717 329.1,180.65Z" style="fill-rule:nonzero;" />
            </g>
        </g>
    </g>
</svg>