<?xml version="1.0" encoding="UTF-8" standalone="no"?>
<!DOCTYPE svg PUBLIC "-//W3C//DTD SVG 1.1//EN" "http://www.w3.org/Graphics/SVG/1.1/DTD/svg11.dtd">
<svg width="290px" height="290px" version="1.1" xmlns="http://www.w3.org/2000/svg" xmlns:xlink="http://www.w3.org/1999/xlink" xml:space="preserve" xmlns:serif="http://www.serif.com/" style="fill-rule:evenodd;clip-rule:evenodd;stroke-linejoin:round;stroke-miterlimit:2;">
    <g id="Page-5" serif:id="Page 5" transform="matrix(1,0,0,1,-15,-15)">
        <rect x="0" y="0" width="320" height="320" style="fill:none;"/>
    </g>
    <g id="Layer-1" serif:id="Layer 1" transform="matrix(1,0,0,1,-15,-15)">
        <path d="M299.202,146.81C306.489,146.338 307.103,142.177 299.514,137.573C265.492,116.935 198.204,74.558 182.206,59.687C174.961,52.952 168.53,46.372 152.291,57.936C83.509,106.915 44.8,125.722 23.865,136.825C13.606,142.265 12.737,147.159 35.222,147.211C38.325,147.218 41.815,147.187 45.709,147.128C51.828,147.035 63.737,147.523 75.238,138.621C97.732,121.209 133.421,89.456 153.305,74.455C164.124,66.293 166.75,66.361 176.634,74.947C187.448,84.339 232.284,123.725 247.359,137.329C259.39,148.186 266.813,147.705 277.983,147.708C284.091,147.71 289.37,147.447 299.202,146.81M93.921,219.732C93.921,222.718 96.388,224.87 99.652,224.87C108.123,224.87 111.647,216.572 117.92,208C117.92,208 93.921,207.787 93.921,219.732M156.761,190.863C155.312,193.138 155.537,194.291 158.454,194.963C182.822,200.58 196.438,209.917 200.189,201.601C209.584,180.769 211.041,176.016 202.295,162.392C198.822,156.981 210.888,157.997 225.71,165.963C240.125,173.711 239.687,175.577 235.23,182.313C232.38,186.622 224.924,197.129 219.879,205.152C215.415,212.251 216.727,213.236 220.869,215.175C232.92,220.816 244.742,228.334 250.479,232.689C258.861,239.05 246.333,255.486 238.542,250.527C232.479,246.667 225.656,242.067 214.431,236.152C208.596,233.077 206.095,233.712 201.006,238.999C184.719,255.923 153.793,268.56 130.427,267.561C125.192,267.337 126.797,263.505 130.24,262.735C151.483,257.979 170.781,245.055 185.159,228.484C189.341,223.664 171.998,217.269 150.549,211.56C144.159,209.86 142.512,210.981 139.159,215.503C111.758,252.473 77.378,246.558 77.378,221.254C77.378,200.716 108.485,190.411 125.457,189.891C128.508,189.798 131.324,188.288 133.159,185.86C136.182,181.857 139.702,176.258 143.93,169.539C153.961,153.594 159.767,145.33 150.361,146.095C125.953,148.082 105.515,124.527 111.699,119.3C118.186,113.818 126.298,132.587 148.859,126.928C171.953,121.135 172.884,108.38 185.217,120.836C194.165,129.873 207.555,135.989 195.564,142.943C184.391,149.422 179.518,155.119 156.761,190.863" style="fill-rule:nonzero;"/>
    </g>
</svg>
