<!DOCTYPE svg PUBLIC "-//W3C//DTD SVG 1.1//EN" "http://www.w3.org/Graphics/SVG/1.1/DTD/svg11.dtd"[]><svg width="105" height="105" viewBox="0 0 105 105" version="1.1" xmlns="http://www.w3.org/2000/svg" xmlns:xlink="http://www.w3.org/1999/xlink" xml:space="preserve" xmlns:serif="http://www.serif.com/" style="fill-rule:evenodd;clip-rule:evenodd;stroke-linecap:round;stroke-linejoin:round;">
    <g id="Layer_1" transform="matrix(1,0,0,1,-94.55,-30.6)">
        <g>
            <g id="Layer0_0_FILL">
                <path d="M181.7,89.85L197.5,89.85L148.55,45.2L96.6,86.85L113.4,87L148.4,54.85L181.7,89.85M168.05,83.1C167.717,83.033 167.383,83 167.05,83C166.883,83.1 166.7,83.217 166.5,83.35C165.933,83.717 165.433,83.9 165,83.9L164.9,84L127.3,83.25L124.6,81.85C122.7,82.517 121.2,84.083 120.1,86.55L122.45,90.05L123.6,118C124.833,118.867 126.033,119.3 127.2,119.3C127.433,119.3 127.967,119.2 128.8,119C129.167,118.9 129.583,118.833 130.05,118.8C130.683,118.6 131.35,118.35 132.05,118.05C132.283,117.95 132.517,117.85 132.75,117.75L159.5,118.25C159.8,118.383 160.05,118.483 160.25,118.55C160.35,118.583 160.467,118.633 160.6,118.7C161,118.933 161.4,119.2 161.8,119.5C161.933,119.567 162.067,119.633 162.2,119.7C163.833,120.467 164.917,120.9 165.45,121L168.15,121C168.817,120.467 169.467,119.683 170.1,118.65L172,96.1C172.267,95.7 172.533,95.2 172.8,94.6C173.2,93.767 173.5,93.1 173.7,92.6L175,91.45C175.067,91.317 175.167,91.167 175.3,91C175.633,90.667 175.8,90.45 175.8,90.35L175.85,90.1C175.817,89.967 175.75,89.817 175.65,89.65L168.05,83.1M162.05,89.85L164,93.3L163.8,98.45L151.25,98.4L151.6,89.6L162.05,89.85M163.55,103L163.1,112.8L150.65,112.55L151.05,102.85L163.55,103M143.7,98.35L130.3,98.25L130.4,89.15L143.85,89.45L143.7,98.35M143.65,102.75L143.5,112.4L130.15,112.15L130.25,102.6L143.65,102.75Z" style="fill-rule:nonzero;" />
            </g>
            <path id="Layer0_0_1_STROKES" d="M164,93.3L162.05,89.85L151.6,89.6L151.25,98.4L163.8,98.45L164,93.3ZM150.65,112.55L163.1,112.8L163.55,103L151.05,102.85L150.65,112.55ZM143.85,89.45L130.4,89.15L130.3,98.25L143.7,98.35L143.85,89.45ZM143.65,102.75L130.25,102.6L130.15,112.15L143.5,112.4L143.65,102.75Z" style="fill:none;fill-rule:nonzero;stroke:black;stroke-width:2.5px;" />
        </g>
    </g>
</svg>