<?xml version="1.0" encoding="UTF-8" standalone="yes"?>
<!-- Created with sK1/UniConvertor (http://sk1project.org/) -->
<svg xmlns="http://www.w3.org/2000/svg" xmlns:xlink="http://www.w3.org/1999/xlink"
  width="122pt" height="128pt" viewBox="0 0 122 128"
  fill-rule="evenodd">
<g>
<g>
<path style="stroke:none; fill:#000000" d="M 52.1 5.5C 49.7 8.5 46.1 12.2 44.1 13.7C 42.1 15.1 39.2 17.7 37.5 19.3C 35.9 20.9 30.6 25.3 25.9 29.1C 17.5 35.9 3.8147e-06 53.9 3.8147e-06 55.8C 3.8147e-06 56.4 2.9 56.9 6.8 56.9C 10.5 56.9 14.8 57.1 16.4 57.2C 19 57.5 20.1 56.5 26.4 48.5C 30.3 43.5 39.6 33.2 47.1 25.6L 60.7 11.8L 64.1 14.7C 66 16.3 69.1 18.8 71.2 20.3C 75.5 23.5 76.3 24.3 81.5 30.4C 83.7 33.1 87.3 37.3 89.5 40C 91.7 42.6 94.3 46.1 95.2 47.9C 96.7 50.5 97.5 51 100.7 51C 102.8 51 107.5 51.8 111.3 52.7C 118 54.5 120.8 54.1 121.7 51.3C 122.2 50 119.2 47.6 83 20.3C 78.9 17.2 72.4 11.4 68.5 7.3C 59.7 -1.90001 58.2 -2.10001 52.1 5.5z"/>
<path style="stroke:none; fill:#000000" d="M 67.4 46.3C 66.2 46.9 64 48.2 62.4 49.2C 56.3 52.6 40.2 54.2 38 51.5C 34.6 47.5 34 54.3 37 62.3C 39.5 68.9 43.9 73.5 46.9 72.5C 48.1 72.2 49 71.2 49 70.5C 49 68.9 51.1 67.6 55.4 66.6L 58.2 65.9L 54 73.7C 51.7 78 49.7 81.6 49.5 81.8C 49.3 82 46.6 82.5 43.3 83C 31.9 84.6 22.1 91.2 17.6 100.2C 12.6 110.3 14.6 112.7 27.4 111.6C 31.8 111.2 36.9 110.2 38.8 109.3C 42.6 107.5 48.6 102 51.1 98L 52.7 95.6L 63.4 97.2C 69.4 98.1 74.7 99.3 75.3 99.9C 77.6 102.2 65.9 114.5 55.7 120.4C 50.9 123.2 48.2 126.4 49.9 127.4C 51.1 128.2 61.3 125.4 65.8 123.1C 70.3 120.7 79.2 113.3 84.1 107.9L 87.7 103.8L 92.4 107.4C 94.9 109.3 99.5 111.7 102.6 112.7C 108 114.4 108.3 114.4 109.6 112.5C 111.6 109.8 111.3 107.4 108.3 101.8C 105.5 96.7 102.9 94.8 97.3 93.6L 94.1 92.9L 98.1 86.7C 102.9 79.1 103 76.4 98.8 72.3C 94.8 68.5 87.3 64.7 85.4 65.4C 83.5 66.1 83.6 67.9 86.1 73.4C 87.9 77.5 88 78.6 86.9 81.8C 85.2 87.2 84.3 88 81 87C 79.5 86.6 74.7 85.9 70.6 85.5C 66.4 85.1 62.7 84.3 62.4 83.8C 62.1 83.3 63.6 80.1 65.7 76.7C 67.9 73.3 70.5 68.8 71.6 66.6C 72.8 64.1 74.7 62.2 76.8 61.3C 82.6 58.9 83.6 51 78.2 48.9C 75.5 47.8 71 45.8 70 45.3C 69.7 45.2 68.5 45.6 67.4 46.3zM 36 98.9C 36 101.3 31.6 104.2 28.7 103.8C 25.6 103.4 25.3 99.7 28.2 98.2C 32.1 96.4 36 96.7 36 98.9z"/>
</g>
</g>
</svg>