<?xml version="1.0" encoding="UTF-8" standalone="no"?><!DOCTYPE svg PUBLIC "-//W3C//DTD SVG 1.1//EN" "http://www.w3.org/Graphics/SVG/1.1/DTD/svg11.dtd"><svg width="4167px" height="4167px" version="1.1" xmlns="http://www.w3.org/2000/svg" xmlns:xlink="http://www.w3.org/1999/xlink" xml:space="preserve" xmlns:serif="http://www.serif.com/" style="fill-rule:evenodd;clip-rule:evenodd;stroke-linecap:round;stroke-linejoin:round;stroke-miterlimit:1.5;"><g><rect x="416.667" y="416.667" width="3333.33" height="3333.33" style="fill:none;stroke:#000;stroke-width:33.33px;"/><path d="M1250,416.667l0,3333.33" style="fill:none;stroke:#000;stroke-width:33.33px;"/><path d="M2083.33,416.667l0,3333.33" style="fill:none;stroke:#000;stroke-width:33.33px;"/><path d="M2916.67,416.667l0,3333.33" style="fill:none;stroke:#000;stroke-width:33.33px;"/><path d="M416.667,1250l3333.33,0" style="fill:none;stroke:#000;stroke-width:33.33px;"/><path d="M416.667,2083.33l3333.33,0" style="fill:none;stroke:#000;stroke-width:33.33px;"/><path d="M416.667,2916.67l3333.33,0" style="fill:none;stroke:#000;stroke-width:33.33px;"/><path d="M416.667,3750l3333.33,-3333.33" style="fill:none;stroke:#000;stroke-width:33.33px;"/><path d="M416.667,2916.67l2500,-2500" style="fill:none;stroke:#000;stroke-width:33.33px;"/><path d="M416.667,2083.33l1666.67,-1666.67" style="fill:none;stroke:#000;stroke-width:33.33px;"/><path d="M416.667,1250l833.333,-833.333" style="fill:none;stroke:#000;stroke-width:33.33px;"/><path d="M1250,3750l2500,-2500" style="fill:none;stroke:#000;stroke-width:33.33px;"/><path d="M2083.33,3750l1666.67,-1666.67" style="fill:none;stroke:#000;stroke-width:33.33px;"/><path d="M2916.67,3750l833.333,-833.333" style="fill:none;stroke:#000;stroke-width:33.33px;"/><path d="M3750,3750l-3333.33,-3333.33" style="fill:none;stroke:#000;stroke-width:33.33px;"/><path d="M3750,2916.67l-2500,-2500" style="fill:none;stroke:#000;stroke-width:33.33px;"/><path d="M3750,2083.33l-1666.67,-1666.67" style="fill:none;stroke:#000;stroke-width:33.33px;"/><path d="M3750,1250l-833.333,-833.333" style="fill:none;stroke:#000;stroke-width:33.33px;"/><path d="M2083.33,3750l-1666.67,-1666.67" style="fill:none;stroke:#000;stroke-width:33.33px;"/><path d="M416.667,2916.67l833.333,833.333" style="fill:none;stroke:#000;stroke-width:33.33px;"/><path d="M2916.67,3750l-2500,-2500" style="fill:none;stroke:#000;stroke-width:33.33px;"/></g><g><circle cx="416.667" cy="416.667" r="208.333" style="fill:#fff;stroke:#000;stroke-width:33.33px;"/><circle cx="1250" cy="416.667" r="208.333" style="fill:#fff;stroke:#000;stroke-width:33.33px;"/><circle cx="2083.33" cy="416.667" r="208.333" style="fill:#fff;stroke:#000;stroke-width:33.33px;"/><circle cx="2916.67" cy="416.667" r="208.333" style="fill:#fff;stroke:#000;stroke-width:33.33px;"/><circle cx="3750" cy="416.667" r="208.333" style="fill:#fff;stroke:#000;stroke-width:33.33px;"/><circle cx="416.667" cy="1250" r="208.333" style="fill:#fff;stroke:#000;stroke-width:33.33px;"/><circle cx="1250" cy="1250" r="208.333" style="fill:#fff;stroke:#000;stroke-width:33.33px;"/><circle cx="2083.33" cy="1250" r="208.333" style="fill:#fff;stroke:#000;stroke-width:33.33px;"/><circle cx="2916.67" cy="1250" r="208.333" style="fill:#fff;stroke:#000;stroke-width:33.33px;"/><circle cx="3750" cy="1250" r="208.333" style="fill:#fff;stroke:#000;stroke-width:33.33px;"/><circle cx="416.667" cy="2083.33" r="208.333" style="fill:#fff;stroke:#000;stroke-width:33.33px;"/><circle cx="1250" cy="2083.33" r="208.333" style="fill:#fff;stroke:#000;stroke-width:33.33px;"/><circle cx="2083.33" cy="2083.33" r="208.333" style="fill:#fff;stroke:#000;stroke-width:33.33px;"/><circle cx="2916.67" cy="2083.33" r="208.333" style="fill:#fff;stroke:#000;stroke-width:33.33px;"/><circle cx="3750" cy="2083.33" r="208.333" style="fill:#fff;stroke:#000;stroke-width:33.33px;"/><circle cx="416.667" cy="2916.67" r="208.333" style="fill:#fff;stroke:#000;stroke-width:33.33px;"/><circle cx="1250" cy="2916.67" r="208.333" style="fill:#fff;stroke:#000;stroke-width:33.33px;"/><circle cx="2083.33" cy="2916.67" r="208.333" style="fill:#fff;stroke:#000;stroke-width:33.33px;"/><circle cx="2916.67" cy="2916.67" r="208.333" style="fill:#fff;stroke:#000;stroke-width:33.33px;"/><circle cx="3750" cy="2916.67" r="208.333" style="fill:#fff;stroke:#000;stroke-width:33.33px;"/><circle cx="416.667" cy="3750" r="208.333" style="fill:#fff;stroke:#000;stroke-width:33.33px;"/><circle cx="1250" cy="3750" r="208.333" style="fill:#fff;stroke:#000;stroke-width:33.33px;"/><circle cx="2083.33" cy="3750" r="208.333" style="fill:#fff;stroke:#000;stroke-width:33.33px;"/><circle cx="2916.67" cy="3750" r="208.333" style="fill:#fff;stroke:#000;stroke-width:33.33px;"/><circle cx="3750" cy="3750" r="208.333" style="fill:#fff;stroke:#000;stroke-width:33.33px;"/></g><circle cx="2916.67" cy="1250" r="145.833" style="fill:#f9423a;stroke:#000;stroke-width:16.67px;"/><circle cx="416.667" cy="1250" r="145.833" style="fill:#f9423a;stroke:#000;stroke-width:16.67px;"/><circle cx="416.667" cy="3750" r="145.833" style="fill:#f9423a;stroke:#000;stroke-width:16.67px;"/><circle cx="2916.67" cy="3750" r="145.833" style="fill:#f9423a;stroke:#000;stroke-width:16.67px;"/></svg>