<svg xmlns="http://www.w3.org/2000/svg" xml:space="preserve" style="fill-rule:evenodd;clip-rule:evenodd;stroke-linejoin:round;stroke-miterlimit:2" viewBox="0 0 45 45"><path d="M2.4 8.66A5.4 5.4 0 0 1 4.05 4.7a5.4 5.4 0 0 1 3.96-1.66h29.01A5.4 5.4 0 0 1 41 4.7a5.4 5.4 0 0 1 1.67 3.96V37.6A5.4 5.4 0 0 1 41 41.56a5.4 5.4 0 0 1-3.96 1.66H8.02a5.4 5.4 0 0 1-3.97-1.66 5.4 5.4 0 0 1-1.66-3.96V8.66Zm34.63 33.05c1.13 0 2.1-.4 2.9-1.22a3.97 3.97 0 0 0 1.23-2.9V8.66c0-1.12-.41-2.09-1.22-2.9a3.96 3.96 0 0 0-2.9-1.22H8.01c-1.13 0-2.1.4-2.91 1.22a3.97 3.97 0 0 0-1.22 2.9V37.6c0 1.12.4 2.09 1.22 2.9A3.97 3.97 0 0 0 8 41.71h29.02Z"/><path d="M31.03 23.2a7.9 7.9 0 0 1-2.5 5.93 8.37 8.37 0 0 1-6.03 2.4c-2.4 0-4.43-.8-6.07-2.4a7.98 7.98 0 0 1-2.46-5.93c0-2.41.82-4.47 2.46-6.17a8.1 8.1 0 0 1 6.07-2.55c2.34 0 4.35.85 6.02 2.55a8.48 8.48 0 0 1 2.51 6.16Z" style="fill:#e71e31"/></svg>