<svg xmlns="http://www.w3.org/2000/svg" xml:space="preserve" style="fill-rule:evenodd;clip-rule:evenodd;stroke-linejoin:round;stroke-miterlimit:2" viewBox="0 0 45 45"><path d="M2.4 8.66A5.4 5.4 0 0 1 4.05 4.7a5.4 5.4 0 0 1 3.96-1.66h29.01A5.4 5.4 0 0 1 41 4.7a5.4 5.4 0 0 1 1.67 3.96V37.6A5.4 5.4 0 0 1 41 41.56a5.4 5.4 0 0 1-3.96 1.66H8.02a5.4 5.4 0 0 1-3.97-1.66 5.4 5.4 0 0 1-1.66-3.96V8.66Zm34.63 33.05c1.13 0 2.1-.4 2.9-1.22a3.97 3.97 0 0 0 1.23-2.9V8.66c0-1.12-.41-2.09-1.22-2.9a3.96 3.96 0 0 0-2.9-1.22H8.01c-1.13 0-2.1.4-2.91 1.22a3.97 3.97 0 0 0-1.22 2.9V37.6c0 1.12.4 2.09 1.22 2.9A3.97 3.97 0 0 0 8 41.71h29.02Z"/><path d="M27.52 30.88c0 1.38-.5 2.56-1.48 3.54a4.83 4.83 0 0 1-3.54 1.48c-1.4 0-2.6-.5-3.56-1.48a4.87 4.87 0 0 1-1.46-3.54c0-1.4.49-2.6 1.46-3.56a4.85 4.85 0 0 1 3.56-1.45c1.37 0 2.55.48 3.54 1.45a4.8 4.8 0 0 1 1.48 3.56Zm0-15.47c0 1.38-.5 2.56-1.48 3.54a4.82 4.82 0 0 1-3.54 1.48c-1.4 0-2.6-.5-3.56-1.48a4.87 4.87 0 0 1-1.46-3.54c0-1.4.49-2.59 1.46-3.56a4.85 4.85 0 0 1 3.56-1.45c1.37 0 2.55.48 3.54 1.45a4.8 4.8 0 0 1 1.48 3.56Z" style="fill:#2347cf"/></svg>