<svg xmlns="http://www.w3.org/2000/svg" xml:space="preserve" style="fill-rule:evenodd;clip-rule:evenodd;stroke-linejoin:round;stroke-miterlimit:2" viewBox="2.39 3.04 40.28 40.18"><path d="M2.4 8.66A5.4 5.4 0 0 1 4.05 4.7a5.4 5.4 0 0 1 3.96-1.66h29.01A5.4 5.4 0 0 1 41 4.7a5.4 5.4 0 0 1 1.67 3.96V37.6A5.4 5.4 0 0 1 41 41.56a5.4 5.4 0 0 1-3.96 1.66H8.02a5.4 5.4 0 0 1-3.97-1.66 5.4 5.4 0 0 1-1.66-3.96V8.66Zm34.63 33.05c1.13 0 2.1-.4 2.9-1.22a3.97 3.97 0 0 0 1.23-2.9V8.66c0-1.12-.41-2.09-1.22-2.9a3.96 3.96 0 0 0-2.9-1.22H8.01c-1.13 0-2.1.4-2.91 1.22a3.97 3.97 0 0 0-1.22 2.9V37.6c0 1.12.4 2.09 1.22 2.9A3.97 3.97 0 0 0 8 41.71h29.02Z"/><path d="M35.72 31.63a4.5 4.5 0 0 1-1.34 3.3 4.38 4.38 0 0 1-3.2 1.34 4.43 4.43 0 0 1-3.27-1.33c-.89-.9-1.33-2-1.33-3.3 0-1.23.44-2.28 1.33-3.17.9-.9 1.98-1.34 3.26-1.34 1.25 0 2.32.45 3.21 1.34a4.33 4.33 0 0 1 1.34 3.16Zm-8.62-8.48c0 1.22-.45 2.26-1.34 3.14a4.42 4.42 0 0 1-3.21 1.31 4.48 4.48 0 0 1-3.26-1.31 4.25 4.25 0 0 1-1.34-3.14c0-1.31.45-2.4 1.34-3.28a4.47 4.47 0 0 1 3.26-1.31c1.25 0 2.32.43 3.2 1.3a4.41 4.41 0 0 1 1.34 3.29Zm-8.63-8.63c0 1.25-.45 2.32-1.34 3.21a4.34 4.34 0 0 1-3.2 1.34 4.43 4.43 0 0 1-3.27-1.34 4.38 4.38 0 0 1-1.33-3.2c0-1.29.44-2.37 1.33-3.26.9-.9 1.98-1.34 3.26-1.34 1.25 0 2.32.44 3.21 1.34a4.43 4.43 0 0 1 1.34 3.25Z" style="fill:#2347cf"/></svg>