<svg xmlns="http://www.w3.org/2000/svg" xml:space="preserve" style="fill-rule:evenodd;clip-rule:evenodd;stroke-linejoin:round;stroke-miterlimit:2" viewBox="0 0 45 45"><path d="M2.4 8.66A5.4 5.4 0 0 1 4.05 4.7a5.4 5.4 0 0 1 3.96-1.66h29.01A5.4 5.4 0 0 1 41 4.7a5.4 5.4 0 0 1 1.67 3.96V37.6A5.4 5.4 0 0 1 41 41.56a5.4 5.4 0 0 1-3.96 1.66H8.02a5.4 5.4 0 0 1-3.97-1.66 5.4 5.4 0 0 1-1.66-3.96V8.66Zm34.63 33.05c1.13 0 2.1-.4 2.9-1.22a3.97 3.97 0 0 0 1.23-2.9V8.66c0-1.12-.41-2.09-1.22-2.9a3.96 3.96 0 0 0-2.9-1.22H8.01c-1.13 0-2.1.4-2.91 1.22a3.97 3.97 0 0 0-1.22 2.9V37.6c0 1.12.4 2.09 1.22 2.9A3.97 3.97 0 0 0 8 41.71h29.02Z"/><path d="M34.13 30.18c0 1.25-.45 2.32-1.34 3.21a4.38 4.38 0 0 1-3.21 1.34 4.44 4.44 0 0 1-3.26-1.34 4.38 4.38 0 0 1-1.34-3.21c0-1.28.45-2.37 1.34-3.26a4.45 4.45 0 0 1 3.26-1.33c1.25 0 2.32.44 3.2 1.33.9.9 1.35 1.98 1.35 3.26Zm-14.07 0c0 1.25-.44 2.32-1.33 3.21a4.38 4.38 0 0 1-3.21 1.34 4.43 4.43 0 0 1-3.26-1.34 4.38 4.38 0 0 1-1.34-3.21c0-1.28.45-2.37 1.34-3.26a4.43 4.43 0 0 1 3.26-1.33c1.25 0 2.32.44 3.2 1.33a4.43 4.43 0 0 1 1.34 3.26Zm0-14.06c0 1.25-.44 2.32-1.33 3.2-.9.9-1.96 1.34-3.21 1.34a4.43 4.43 0 0 1-3.26-1.33 4.38 4.38 0 0 1-1.34-3.21c0-1.28.45-2.37 1.34-3.26a4.43 4.43 0 0 1 3.26-1.34c1.25 0 2.32.45 3.2 1.34a4.4 4.4 0 0 1 1.34 3.26Zm14.07 0c0 1.25-.45 2.32-1.34 3.2-.9.9-1.96 1.34-3.21 1.34a4.43 4.43 0 0 1-3.26-1.33 4.38 4.38 0 0 1-1.34-3.21c0-1.28.45-2.37 1.34-3.26a4.44 4.44 0 0 1 3.26-1.34c1.25 0 2.32.45 3.2 1.34.9.89 1.35 1.98 1.35 3.26Z" style="fill:#e71e31"/></svg>