<svg xmlns="http://www.w3.org/2000/svg" xml:space="preserve" style="fill-rule:evenodd;clip-rule:evenodd;stroke-linejoin:round;stroke-miterlimit:2" viewBox="0 0 45 45"><path d="M2.4 8.66A5.4 5.4 0 0 1 4.05 4.7a5.4 5.4 0 0 1 3.96-1.66h29.01A5.4 5.4 0 0 1 41 4.7a5.4 5.4 0 0 1 1.67 3.96V37.6A5.4 5.4 0 0 1 41 41.56a5.4 5.4 0 0 1-3.96 1.66H8.02a5.4 5.4 0 0 1-3.97-1.66 5.4 5.4 0 0 1-1.66-3.96V8.66h.01Zm34.63 33.05c1.13 0 2.1-.4 2.9-1.22.8-.76 1.24-1.8 1.23-2.9V8.66c0-1.12-.41-2.09-1.22-2.9a3.96 3.96 0 0 0-2.9-1.22H8.01c-1.13 0-2.1.4-2.91 1.22a3.97 3.97 0 0 0-1.22 2.9V37.6c0 1.12.4 2.09 1.22 2.9.76.78 1.8 1.22 2.9 1.21h29.03Z"/><path d="M33.84 19.49H11.16v-3.94h22.68v3.94Zm0 10.43H11.16v-3.94h22.68v3.94Z" style="fill-rule:nonzero"/></svg>