<svg xmlns="http://www.w3.org/2000/svg" xml:space="preserve" width="45" height="45" style="fill-rule:evenodd;clip-rule:evenodd;stroke-linejoin:round;stroke-miterlimit:2"><path d="M2.4 9.16A5.4 5.4 0 0 1 4.05 5.2a5.4 5.4 0 0 1 3.96-1.66h29.01A5.4 5.4 0 0 1 41 5.2a5.4 5.4 0 0 1 1.67 3.96V38.1A5.4 5.4 0 0 1 41 42.06a5.4 5.4 0 0 1-3.96 1.66H8.02a5.4 5.4 0 0 1-3.97-1.66 5.4 5.4 0 0 1-1.66-3.96V9.16h.01Zm34.63 33.05c1.13 0 2.1-.4 2.9-1.22.8-.76 1.24-1.8 1.23-2.9V9.16c0-1.12-.41-2.09-1.22-2.9a3.96 3.96 0 0 0-2.9-1.22H8.01c-1.13 0-2.1.4-2.91 1.22a3.97 3.97 0 0 0-1.22 2.9V38.1c0 1.12.4 2.09 1.22 2.9.76.78 1.8 1.22 2.9 1.21h29.03Z" style="fill-rule:nonzero"/><path d="M12.32 17.08c0-1.3.41-2.6 1.25-3.93a9.58 9.58 0 0 1 3.63-3.3c1.6-.87 3.45-1.3 5.58-1.3 1.97 0 3.71.35 5.22 1.08a8.47 8.47 0 0 1 3.5 2.97 7.29 7.29 0 0 1 1.24 4.09c0 1.16-.23 2.17-.7 3.04A9.29 9.29 0 0 1 30.36 22c-.64.63-1.8 1.7-3.48 3.2-.46.42-.83.79-1.11 1.1a4.5 4.5 0 0 0-.94 1.68c-.08.27-.19.73-.34 1.4-.26 1.42-1.07 2.13-2.43 2.13-.7 0-1.3-.24-1.79-.7-.48-.46-.72-1.15-.72-2.06a7.32 7.32 0 0 1 1.93-5.17c.6-.64 1.38-1.4 2.38-2.27.87-.76 1.5-1.33 1.89-1.72.38-.39.71-.82.98-1.3.26-.48.4-1 .4-1.55 0-1.09-.41-2-1.22-2.76a4.43 4.43 0 0 0-3.13-1.12c-1.5 0-2.6.38-3.31 1.13a9.05 9.05 0 0 0-1.8 3.34c-.46 1.54-1.34 2.31-2.64 2.31-.76 0-1.4-.27-1.93-.8a2.47 2.47 0 0 1-.78-1.75Zm9.96 22.38c-.83 0-1.55-.27-2.17-.8a2.83 2.83 0 0 1-.93-2.26 3.04 3.04 0 0 1 3.1-3.04 2.97 2.97 0 0 1 3.05 3.04c0 .95-.3 1.7-.92 2.24a3.1 3.1 0 0 1-2.13.82Z" style="fill-rule:nonzero"/></svg>