<?xml version="1.0" encoding="UTF-8" standalone="no"?><!DOCTYPE svg PUBLIC "-//W3C//DTD SVG 1.1//EN" "http://www.w3.org/Graphics/SVG/1.1/DTD/svg11.dtd"><svg width="100%" height="100%" viewBox="0 0 24309 24309" version="1.1" xmlns="http://www.w3.org/2000/svg" xmlns:xlink="http://www.w3.org/1999/xlink" xml:space="preserve" xmlns:serif="http://www.serif.com/" style="fill-rule:evenodd;clip-rule:evenodd;stroke-linecap:round;stroke-linejoin:round;stroke-miterlimit:1.5;"><rect x="1736.11" y="1736.11" width="20833.3" height="20833.3" style="fill:#fff;"/><g id="Board"><path d="M5208.33,19097.2l-3472.22,3472.22" style="fill:none;stroke:#000;stroke-width:139.46px;"/><path d="M19097.2,19097.2l3472.22,3472.22" style="fill:none;stroke:#000;stroke-width:139.46px;"/><path d="M19097.2,5208.33l3472.22,-3472.22" style="fill:none;stroke:#000;stroke-width:139.46px;"/><path d="M5208.33,5208.33l-3472.22,-3472.22" style="fill:none;stroke:#000;stroke-width:139.46px;"/><rect x="1736.11" y="1736.11" width="20833.3" height="20833.3" style="fill:none;stroke:#000;stroke-width:139.46px;"/><rect x="5208.33" y="5208.33" width="13888.9" height="13888.9" style="fill:none;stroke:#000;stroke-width:139.46px;"/><rect x="8680.54" y="8680.54" width="6944.46" height="6944.46" style="fill:none;stroke:#000;stroke-width:139.46px;"/><path d="M12152.8,1736.11l-0,20833.3" style="fill:none;stroke:#000;stroke-width:139.46px;"/><path d="M22569.5,12152.8l-20833.3,-0" style="fill:none;stroke:#000;stroke-width:139.46px;"/><circle cx="12152.8" cy="1736.11" r="347.221" style="fill:#ebebeb;stroke:#000;stroke-width:139.46px;"/><circle cx="22569.5" cy="1736.11" r="347.221" style="fill:#ebebeb;stroke:#000;stroke-width:139.46px;"/><circle cx="12152.8" cy="5208.33" r="347.221" style="fill:#ebebeb;stroke:#000;stroke-width:139.46px;"/><circle cx="15625" cy="8680.54" r="347.221" style="fill:#ebebeb;stroke:#000;stroke-width:139.46px;"/><circle cx="22569.5" cy="12152.8" r="347.221" style="fill:#ebebeb;stroke:#000;stroke-width:139.46px;"/><circle cx="1736.11" cy="1736.11" r="347.221" style="fill:#ebebeb;stroke:#000;stroke-width:139.46px;"/><circle cx="5208.33" cy="5208.33" r="347.221" style="fill:#ebebeb;stroke:#000;stroke-width:139.46px;"/><circle cx="12152.8" cy="8680.54" r="347.221" style="fill:#ebebeb;stroke:#000;stroke-width:139.46px;"/><circle cx="12152.8" cy="12152.8" r="347.221" style="fill:#ebebeb;stroke:#000;stroke-width:139.46px;"/><circle cx="8680.54" cy="8680.54" r="347.221" style="fill:#ebebeb;stroke:#000;stroke-width:139.46px;"/><circle cx="19097.2" cy="5208.33" r="347.221" style="fill:#ebebeb;stroke:#000;stroke-width:139.46px;"/><circle cx="15625" cy="12152.8" r="347.221" style="fill:#ebebeb;stroke:#000;stroke-width:139.46px;"/><circle cx="5208.33" cy="12152.8" r="347.221" style="fill:#ebebeb;stroke:#000;stroke-width:139.46px;"/><circle cx="8680.54" cy="12152.8" r="347.221" style="fill:#ebebeb;stroke:#000;stroke-width:139.46px;"/><circle cx="1736.11" cy="12152.8" r="347.221" style="fill:#ebebeb;stroke:#000;stroke-width:139.46px;"/><circle cx="19097.2" cy="12152.8" r="347.221" style="fill:#ebebeb;stroke:#000;stroke-width:139.46px;"/><circle cx="19097.2" cy="19097.2" r="347.221" style="fill:#ebebeb;stroke:#000;stroke-width:139.46px;"/><circle cx="12152.8" cy="15625" r="347.221" style="fill:#ebebeb;stroke:#000;stroke-width:139.46px;"/><circle cx="8680.54" cy="15625" r="347.221" style="fill:#ebebeb;stroke:#000;stroke-width:139.46px;"/><circle cx="12152.8" cy="19097.2" r="347.221" style="fill:#ebebeb;stroke:#000;stroke-width:139.46px;"/><circle cx="22569.5" cy="22569.5" r="347.221" style="fill:#ebebeb;stroke:#000;stroke-width:139.46px;"/><circle cx="5208.33" cy="19097.2" r="347.221" style="fill:#ebebeb;stroke:#000;stroke-width:139.46px;"/><circle cx="1736.11" cy="22569.5" r="347.221" style="fill:#ebebeb;stroke:#000;stroke-width:139.46px;"/><circle cx="12152.8" cy="22569.5" r="347.221" style="fill:#ebebeb;stroke:#000;stroke-width:139.46px;"/><circle cx="15625" cy="15625" r="347.221" style="fill:#ebebeb;stroke:#000;stroke-width:139.46px;"/></g><circle cx="8680.54" cy="12152.8" r="868.054" style="fill:#6d70ff;stroke:#000;stroke-width:139.46px;"/><circle cx="5208.33" cy="5208.33" r="868.054" style="fill:#6dff8d;stroke:#000;stroke-width:139.46px;"/><circle cx="19097.2" cy="5208.33" r="868.054" style="fill:#6dff8d;stroke:#000;stroke-width:139.46px;"/><circle cx="12152.8" cy="5208.33" r="868.054" style="fill:#6dff8d;stroke:#000;stroke-width:139.46px;"/><circle cx="12154.2" cy="15625" r="868.054" style="fill:#ff6da6;stroke:#000;stroke-width:139.46px;"/><circle cx="12152.8" cy="22569.5" r="868.054" style="fill:#ff6da6;stroke:#000;stroke-width:139.46px;"/><circle cx="12152.8" cy="19083.3" r="868.054" style="fill:#ff6da6;stroke:#000;stroke-width:139.46px;"/><circle cx="12152.8" cy="12152.8" r="868.054" style="fill:#6d70ff;stroke:#000;stroke-width:139.46px;"/><circle cx="15625" cy="12152.8" r="868.054" style="fill:#6d70ff;stroke:#000;stroke-width:139.46px;"/></svg>