<?xml version="1.0" encoding="UTF-8" standalone="no"?><!DOCTYPE svg PUBLIC "-//W3C//DTD SVG 1.1//EN" "http://www.w3.org/Graphics/SVG/1.1/DTD/svg11.dtd"><svg width="100%" height="100%" viewBox="0 0 1400 1400" version="1.1" xmlns="http://www.w3.org/2000/svg" xmlns:xlink="http://www.w3.org/1999/xlink" xml:space="preserve" xmlns:serif="http://www.serif.com/" style="fill-rule:evenodd;clip-rule:evenodd;stroke-linecap:round;stroke-linejoin:round;stroke-miterlimit:1.5;"><g id="Board"><path d="M300,1100l-200,200" style="fill:none;stroke:#000;stroke-width:8.03px;"/><path d="M1100,1100l200,200" style="fill:none;stroke:#000;stroke-width:8.03px;"/><path d="M1100,300l200,-200" style="fill:none;stroke:#000;stroke-width:8.03px;"/><path d="M300,300l-200,-200" style="fill:none;stroke:#000;stroke-width:8.03px;"/><rect x="100" y="100" width="1200" height="1200" style="fill:none;stroke:#000;stroke-width:8.03px;"/><rect x="300" y="300" width="800" height="800" style="fill:none;stroke:#000;stroke-width:8.03px;"/><rect x="500" y="500" width="400" height="400" style="fill:none;stroke:#000;stroke-width:8.03px;"/><path d="M700,100l0,1200" style="fill:none;stroke:#000;stroke-width:8.03px;"/><path d="M1300,700l-1200,0" style="fill:none;stroke:#000;stroke-width:8.03px;"/><circle cx="700" cy="100" r="20" style="fill:#ebebeb;stroke:#000;stroke-width:8.03px;"/><circle cx="1300" cy="100" r="20" style="fill:#ebebeb;stroke:#000;stroke-width:8.03px;"/><circle cx="700" cy="300" r="20" style="fill:#ebebeb;stroke:#000;stroke-width:8.03px;"/><circle cx="900" cy="500" r="20" style="fill:#ebebeb;stroke:#000;stroke-width:8.03px;"/><circle cx="1300" cy="700" r="20" style="fill:#ebebeb;stroke:#000;stroke-width:8.03px;"/><circle cx="100" cy="100" r="20" style="fill:#ebebeb;stroke:#000;stroke-width:8.03px;"/><circle cx="300" cy="300" r="20" style="fill:#ebebeb;stroke:#000;stroke-width:8.03px;"/><circle cx="700" cy="500" r="20" style="fill:#ebebeb;stroke:#000;stroke-width:8.03px;"/><circle cx="700" cy="700" r="20" style="fill:#ebebeb;stroke:#000;stroke-width:8.03px;"/><circle cx="500" cy="500" r="20" style="fill:#ebebeb;stroke:#000;stroke-width:8.03px;"/><circle cx="1100" cy="300" r="20" style="fill:#ebebeb;stroke:#000;stroke-width:8.03px;"/><circle cx="900" cy="700" r="20" style="fill:#ebebeb;stroke:#000;stroke-width:8.03px;"/><circle cx="300" cy="700" r="20" style="fill:#ebebeb;stroke:#000;stroke-width:8.03px;"/><circle cx="500" cy="700" r="20" style="fill:#ebebeb;stroke:#000;stroke-width:8.03px;"/><circle cx="100" cy="700" r="20" style="fill:#ebebeb;stroke:#000;stroke-width:8.03px;"/><circle cx="1100" cy="700" r="20" style="fill:#ebebeb;stroke:#000;stroke-width:8.03px;"/><circle cx="1100" cy="1100" r="20" style="fill:#ebebeb;stroke:#000;stroke-width:8.03px;"/><circle cx="700" cy="900" r="20" style="fill:#ebebeb;stroke:#000;stroke-width:8.03px;"/><circle cx="500" cy="900" r="20" style="fill:#ebebeb;stroke:#000;stroke-width:8.03px;"/><circle cx="700" cy="1100" r="20" style="fill:#ebebeb;stroke:#000;stroke-width:8.03px;"/><circle cx="1300" cy="1300" r="20" style="fill:#ebebeb;stroke:#000;stroke-width:8.03px;"/><circle cx="300" cy="1100" r="20" style="fill:#ebebeb;stroke:#000;stroke-width:8.03px;"/><circle cx="100" cy="1300" r="20" style="fill:#ebebeb;stroke:#000;stroke-width:8.03px;"/><circle cx="700" cy="1300" r="20" style="fill:#ebebeb;stroke:#000;stroke-width:8.03px;"/><circle cx="900" cy="900" r="20" style="fill:#ebebeb;stroke:#000;stroke-width:8.03px;"/></g></svg>