<?xml version="1.0" encoding="UTF-8" standalone="no"?><!DOCTYPE svg PUBLIC "-//W3C//DTD SVG 1.1//EN" "http://www.w3.org/Graphics/SVG/1.1/DTD/svg11.dtd"><svg width="100%" height="100%" viewBox="0 0 5834 5834" version="1.1" xmlns="http://www.w3.org/2000/svg" xmlns:xlink="http://www.w3.org/1999/xlink" xml:space="preserve" xmlns:serif="http://www.serif.com/" style="fill-rule:evenodd;clip-rule:evenodd;stroke-linecap:round;stroke-linejoin:round;stroke-miterlimit:1.5;"><rect x="416.667" y="416.667" width="5000" height="5000" style="fill:#fff;"/><g id="Board"><path d="M1250,4583.33l-833.333,833.334" style="fill:none;stroke:#000;stroke-width:33.47px;"/><path d="M4583.33,4583.33l833.334,833.334" style="fill:none;stroke:#000;stroke-width:33.47px;"/><path d="M4583.33,1250l833.334,-833.333" style="fill:none;stroke:#000;stroke-width:33.47px;"/><path d="M1250,1250l-833.333,-833.333" style="fill:none;stroke:#000;stroke-width:33.47px;"/><rect x="416.667" y="416.667" width="5000" height="5000" style="fill:none;stroke:#000;stroke-width:33.47px;"/><rect x="1250" y="1250" width="3333.33" height="3333.33" style="fill:none;stroke:#000;stroke-width:33.47px;"/><rect x="2083.33" y="2083.33" width="1666.67" height="1666.67" style="fill:none;stroke:#000;stroke-width:33.47px;"/><path d="M2916.67,416.667l-0,5000" style="fill:none;stroke:#000;stroke-width:33.47px;"/><path d="M5416.67,2916.67l-5000,-0" style="fill:none;stroke:#000;stroke-width:33.47px;"/><circle cx="2916.67" cy="416.667" r="83.333" style="fill:#ebebeb;stroke:#000;stroke-width:33.47px;"/><circle cx="5416.67" cy="416.667" r="83.333" style="fill:#ebebeb;stroke:#000;stroke-width:33.47px;"/><circle cx="2916.67" cy="1250" r="83.333" style="fill:#ebebeb;stroke:#000;stroke-width:33.47px;"/><circle cx="3750" cy="2083.33" r="83.333" style="fill:#ebebeb;stroke:#000;stroke-width:33.47px;"/><circle cx="5416.67" cy="2916.67" r="83.333" style="fill:#ebebeb;stroke:#000;stroke-width:33.47px;"/><circle cx="416.667" cy="416.667" r="83.333" style="fill:#ebebeb;stroke:#000;stroke-width:33.47px;"/><circle cx="1250" cy="1250" r="83.333" style="fill:#ebebeb;stroke:#000;stroke-width:33.47px;"/><circle cx="2916.67" cy="2083.33" r="83.333" style="fill:#ebebeb;stroke:#000;stroke-width:33.47px;"/><circle cx="2916.67" cy="2916.67" r="83.333" style="fill:#ebebeb;stroke:#000;stroke-width:33.47px;"/><circle cx="2083.33" cy="2083.33" r="83.333" style="fill:#ebebeb;stroke:#000;stroke-width:33.47px;"/><circle cx="4583.33" cy="1250" r="83.333" style="fill:#ebebeb;stroke:#000;stroke-width:33.47px;"/><circle cx="3750" cy="2916.67" r="83.333" style="fill:#ebebeb;stroke:#000;stroke-width:33.47px;"/><circle cx="1250" cy="2916.67" r="83.333" style="fill:#ebebeb;stroke:#000;stroke-width:33.47px;"/><circle cx="2083.33" cy="2916.67" r="83.333" style="fill:#ebebeb;stroke:#000;stroke-width:33.47px;"/><circle cx="416.667" cy="2916.67" r="83.333" style="fill:#ebebeb;stroke:#000;stroke-width:33.47px;"/><circle cx="4583.33" cy="2916.67" r="83.333" style="fill:#ebebeb;stroke:#000;stroke-width:33.47px;"/><circle cx="4583.33" cy="4583.33" r="83.333" style="fill:#ebebeb;stroke:#000;stroke-width:33.47px;"/><circle cx="2916.67" cy="3750" r="83.333" style="fill:#ebebeb;stroke:#000;stroke-width:33.47px;"/><circle cx="2083.33" cy="3750" r="83.333" style="fill:#ebebeb;stroke:#000;stroke-width:33.47px;"/><circle cx="2916.67" cy="4583.33" r="83.333" style="fill:#ebebeb;stroke:#000;stroke-width:33.47px;"/><circle cx="5416.67" cy="5416.67" r="83.333" style="fill:#ebebeb;stroke:#000;stroke-width:33.47px;"/><circle cx="1250" cy="4583.33" r="83.333" style="fill:#ebebeb;stroke:#000;stroke-width:33.47px;"/><circle cx="416.667" cy="5416.67" r="83.333" style="fill:#ebebeb;stroke:#000;stroke-width:33.47px;"/><circle cx="2916.67" cy="5416.67" r="83.333" style="fill:#ebebeb;stroke:#000;stroke-width:33.47px;"/><circle cx="3750" cy="3750" r="83.333" style="fill:#ebebeb;stroke:#000;stroke-width:33.47px;"/></g><circle cx="2916.67" cy="3750" r="208.333" style="fill:#e6ff6d;stroke:#000;stroke-width:33.47px;"/><circle cx="2916.67" cy="2916.67" r="208.333" style="fill:#e6ff6d;stroke:#000;stroke-width:33.47px;"/><circle cx="2916.67" cy="4583.33" r="208.333" style="fill:#e6ff6d;stroke:#000;stroke-width:33.47px;"/><path d="M4244.55,4102.93c7.271,7.271 7.271,14.542 -0,21.813l-16.36,16.36l-0,16.36c-72.711,76.347 -172.688,190.866 -299.932,343.559c76.346,105.43 141.786,185.412 196.319,239.945c10.907,10.907 12.724,21.813 5.453,32.72c-7.271,18.178 -16.36,32.72 -27.266,43.626c-3.636,7.271 -9.089,10.907 -16.36,10.907c-10.907,-0 -18.178,3.635 -21.813,10.907c-3.636,7.271 -3.636,14.542 -0,21.813c-7.271,14.542 -16.36,25.448 -27.267,32.72c-7.271,10.906 -16.36,12.724 -27.267,5.453c-3.635,-3.636 -7.271,-9.089 -10.906,-16.36c-3.636,-7.271 -10.907,-7.271 -21.813,-0c-14.542,14.542 -25.449,25.449 -32.72,32.72c-14.542,10.906 -27.267,10.906 -38.173,-0c-18.178,-18.178 -67.258,-87.253 -147.24,-207.226c-90.888,116.337 -156.328,205.408 -196.319,267.212c-14.542,21.813 -27.266,29.084 -38.173,21.813c-3.635,-3.635 -9.089,-9.089 -16.36,-16.36c-7.271,-10.906 -9.088,-19.995 -5.453,-27.266c3.636,-3.636 3.636,-7.271 0,-10.907l-10.907,0c-10.906,3.636 -19.995,7.271 -27.266,10.907c-25.449,-25.449 -39.991,-41.809 -43.627,-49.08c-10.906,-10.906 -12.724,-21.813 -5.453,-32.72c10.907,-10.906 12.725,-25.448 5.453,-43.626c-7.271,-10.907 -12.724,-23.631 -16.359,-38.173c58.168,-76.347 136.332,-170.871 234.492,-283.572c-87.253,-149.057 -143.604,-267.212 -169.053,-354.465c21.813,-25.449 39.991,-47.262 54.533,-65.44c7.271,10.907 12.725,16.36 16.36,16.36c7.271,3.636 12.725,5.454 16.36,5.454c7.271,-0 10.907,-3.636 10.907,-10.907c3.635,-25.449 16.36,-39.991 38.173,-43.627c10.906,0 19.995,5.454 27.266,16.36c54.533,90.889 110.884,176.324 169.053,256.306c130.879,-141.786 239.945,-252.67 327.198,-332.652l49.08,43.627c-3.636,7.271 -5.453,12.724 -5.453,16.359c-0,7.272 3.635,12.725 10.906,16.36c3.636,3.636 14.542,3.636 32.72,0c14.542,14.542 23.631,25.449 27.267,32.72Z" style="fill:#f90000;fill-rule:nonzero;"/></svg>