<?xml version="1.0" encoding="UTF-8" standalone="no"?><!DOCTYPE svg PUBLIC "-//W3C//DTD SVG 1.1//EN" "http://www.w3.org/Graphics/SVG/1.1/DTD/svg11.dtd"><svg width="1400px" height="1300px" version="1.1" xmlns="http://www.w3.org/2000/svg" xmlns:xlink="http://www.w3.org/1999/xlink" xml:space="preserve" xmlns:serif="http://www.serif.com/" style="fill-rule:evenodd;clip-rule:evenodd;stroke-linecap:round;stroke-linejoin:round;stroke-miterlimit:1.5;"><g><g transform="matrix(1,0,0,1,-50,-5)"><g transform="matrix(-1,-1.29846e-16,1.58986e-16,-1.25,1600,1100)"><path d="M200,800L300,800L250,400L200,800Z" style="fill:rgb(204,51,51);stroke:black;stroke-width:0.88px;"/></g><g transform="matrix(-1,-1.29846e-16,1.58986e-16,-1.25,1500,1100)"><path d="M200,800L300,800L250,400L200,800Z" style="fill:rgb(64,191,124);stroke:black;stroke-width:0.88px;"/></g><g transform="matrix(-1,-1.29846e-16,1.58986e-16,-1.25,1400,1100)"><path d="M200,800L300,800L250,400L200,800Z" style="fill:rgb(204,51,51);stroke:black;stroke-width:0.88px;"/></g><g transform="matrix(-1,-1.29846e-16,1.58986e-16,-1.25,1300,1100)"><path d="M200,800L300,800L250,400L200,800Z" style="fill:rgb(64,191,124);stroke:black;stroke-width:0.88px;"/></g><g transform="matrix(-1,-1.29846e-16,1.58986e-16,-1.25,1200,1100)"><path d="M200,800L300,800L250,400L200,800Z" style="fill:rgb(204,51,51);stroke:black;stroke-width:0.88px;"/></g><g transform="matrix(-1,-1.29846e-16,1.58986e-16,-1.25,1100,1100)"><path d="M200,800L300,800L250,400L200,800Z" style="fill:rgb(64,191,124);stroke:black;stroke-width:0.88px;"/></g><g transform="matrix(-1,-1.29846e-16,1.58986e-16,-1.25,900,1100)"><path d="M200,800L300,800L250,400L200,800Z" style="fill:rgb(204,51,51);stroke:black;stroke-width:0.88px;"/></g><g transform="matrix(-1,-1.29846e-16,1.58986e-16,-1.25,800,1100)"><path d="M200,800L300,800L250,400L200,800Z" style="fill:rgb(64,191,124);stroke:black;stroke-width:0.88px;"/></g><g transform="matrix(-1,-1.29846e-16,1.58986e-16,-1.25,700,1100)"><path d="M200,800L300,800L250,400L200,800Z" style="fill:rgb(204,51,51);stroke:black;stroke-width:0.88px;"/></g><g transform="matrix(-1,-1.29846e-16,1.58986e-16,-1.25,600,1100)"><path d="M200,800L300,800L250,400L200,800Z" style="fill:rgb(64,191,124);stroke:black;stroke-width:0.88px;"/></g><g transform="matrix(-1,-1.29846e-16,1.58986e-16,-1.25,500,1100)"><path d="M200,800L300,800L250,400L200,800Z" style="fill:rgb(204,51,51);stroke:black;stroke-width:0.88px;"/></g><g transform="matrix(-1,-1.29846e-16,1.58986e-16,-1.25,400,1100)"><path d="M200,800L300,800L250,400L200,800Z" style="fill:rgb(64,191,124);stroke:black;stroke-width:0.88px;"/></g></g><g transform="matrix(-1,1.22465e-16,-1.22465e-16,-1,1450,1295)"><g transform="matrix(-1,-1.29846e-16,1.58986e-16,-1.25,1600,1100)"><path d="M200,800L300,800L250,400L200,800Z" style="fill:rgb(204,51,51);stroke:black;stroke-width:0.88px;"/></g><g transform="matrix(-1,-1.29846e-16,1.58986e-16,-1.25,1500,1100)"><path d="M200,800L300,800L250,400L200,800Z" style="fill:rgb(64,191,124);stroke:black;stroke-width:0.88px;"/></g><g transform="matrix(-1,-1.29846e-16,1.58986e-16,-1.25,1400,1100)"><path d="M200,800L300,800L250,400L200,800Z" style="fill:rgb(204,51,51);stroke:black;stroke-width:0.88px;"/></g><g transform="matrix(-1,-1.29846e-16,1.58986e-16,-1.25,1300,1100)"><path d="M200,800L300,800L250,400L200,800Z" style="fill:rgb(64,191,124);stroke:black;stroke-width:0.88px;"/></g><g transform="matrix(-1,-1.29846e-16,1.58986e-16,-1.25,1200,1100)"><path d="M200,800L300,800L250,400L200,800Z" style="fill:rgb(204,51,51);stroke:black;stroke-width:0.88px;"/></g><g transform="matrix(-1,-1.29846e-16,1.58986e-16,-1.25,1100,1100)"><path d="M200,800L300,800L250,400L200,800Z" style="fill:rgb(64,191,124);stroke:black;stroke-width:0.88px;"/></g><g transform="matrix(-1,-1.29846e-16,1.58986e-16,-1.25,900,1100)"><path d="M200,800L300,800L250,400L200,800Z" style="fill:rgb(204,51,51);stroke:black;stroke-width:0.88px;"/></g><g transform="matrix(-1,-1.29846e-16,1.58986e-16,-1.25,800,1100)"><path d="M200,800L300,800L250,400L200,800Z" style="fill:rgb(64,191,124);stroke:black;stroke-width:0.88px;"/></g><g transform="matrix(-1,-1.29846e-16,1.58986e-16,-1.25,700,1100)"><path d="M200,800L300,800L250,400L200,800Z" style="fill:rgb(204,51,51);stroke:black;stroke-width:0.88px;"/></g><g transform="matrix(-1,-1.29846e-16,1.58986e-16,-1.25,600,1100)"><path d="M200,800L300,800L250,400L200,800Z" style="fill:rgb(64,191,124);stroke:black;stroke-width:0.88px;"/></g><g transform="matrix(-1,-1.29846e-16,1.58986e-16,-1.25,500,1100)"><path d="M200,800L300,800L250,400L200,800Z" style="fill:rgb(204,51,51);stroke:black;stroke-width:0.88px;"/></g><g transform="matrix(-1,-1.29846e-16,1.58986e-16,-1.25,400,1100)"><path d="M200,800L300,800L250,400L200,800Z" style="fill:rgb(64,191,124);stroke:black;stroke-width:0.88px;"/></g></g><g transform="matrix(1,0,0,1,0,50)"><path d="M656,45L656,1145C656,1148.31 653.314,1151 650,1151L50,1151C46.686,1151 44,1148.31 44,1145L44,45C44,41.686 46.686,39 50,39L650,39C653.314,39 656,41.686 656,45ZM650,45L50,45L50,1145L650,1145L650,45Z"/></g><g transform="matrix(1,0,0,1,700,50)"><path d="M656,45L656,1145C656,1148.31 653.314,1151 650,1151L50,1151C46.686,1151 44,1148.31 44,1145L44,45C44,41.686 46.686,39 50,39L650,39C653.314,39 656,41.686 656,45ZM650,45L50,45L50,1145L650,1145L650,45Z"/></g><g transform="matrix(0.988987,0.148,-0.148,0.988987,194.117,-76.197)"><g transform="matrix(83.7628,0,0,83.7628,814.658,620)"></g><g transform="matrix(83.7628,0,0,83.7628,848.541,620)"></g><g transform="matrix(83.7628,0,0,83.7628,1095.52,620)"></g><text x="800px" y="620px" style="font-family:'ChewedPenBB', 'Chewed Pen BB';font-size:83.763px;fill:rgb(26,50,230);">Ie<tspan x="908.305px 939.13px 959.652px 983.692px 1018.54px 1052.13px 1068.12px " y="620px 620px 620px 620px 620px 620px 620px ">r Table</tspan></text></g><g transform="matrix(0.995861,-0.0908937,0.0908937,0.995861,-642.843,140.659)"><g transform="matrix(83.7628,0,0,83.7628,1124.08,620)"></g><text x="800px" y="620px" style="font-family:'ChewedPenBB', 'Chewed Pen BB';font-size:83.763px;fill:rgb(26,50,230);">Out<tspan x="910.986px 936.868px 967.693px 988.215px 1012.25px 1047.1px 1080.69px 1096.69px " y="620px 620px 620px 620px 620px 620px 620px 620px ">er Table</tspan></text></g><g transform="matrix(-0.0124513,-0.999922,0.999922,-0.0124513,121.508,1503.5)"><g transform="matrix(83.7628,0,0,83.7628,903.531,620)"></g><text x="800px" y="620px" style="font-family:'ChewedPenBB', 'Chewed Pen BB';font-size:83.763px;fill:rgb(26,50,230);">B<tspan x="837.274px 872.706px " y="620px 620px ">ar</tspan></text></g><g transform="matrix(1,-5.73004e-05,5.73004e-05,1,76.4443,654.97)"><g transform="matrix(83.7628,0,0,83.7628,1160.93,620)"></g><text x="800px" y="620px" style="font-family:'ChewedPenBB', 'Chewed Pen BB';font-size:83.763px;fill:rgb(26,50,230);">Whit<tspan x="924.471px 951.862px " y="620px 620px ">e’</tspan>s H<tspan x="1057.32px 1087.64px " y="620px 620px ">om</tspan>e</text></g><g transform="matrix(1,-5.73004e-05,5.73004e-05,1,64.4993,-543.461)"><g transform="matrix(83.7628,0,0,83.7628,1170.4,620)"></g><text x="800px" y="620px" style="font-family:'ChewedPenBB', 'Chewed Pen BB';font-size:83.763px;fill:rgb(26,50,230);">Black’s H<tspan x="1066.78px 1097.11px " y="620px 620px ">om</tspan>e</text></g><g transform="matrix(1,-5.73004e-05,5.73004e-05,1,-43.6907,-255.853)"><g transform="matrix(83.7628,0,0,83.7628,1227.02,620)"></g><text x="800px" y="620px" style="font-family:'ChewedPenBB', 'Chewed Pen BB';font-size:83.763px;fill:rgb(38,38,38);">Black dir<tspan x="1062.76px 1090.15px " y="620px 620px ">ec</tspan>tio<tspan x="1195.44px " y="620px ">n</tspan></text><path d="M1024.61,565.018C1026.21,563.42 1028.67,562.372 1031.76,562.496C1031.86,562.5 1031.96,562.507 1032.06,562.516C1034.19,562.708 1038.12,564.258 1040.54,566.333C1042.24,567.79 1043.28,569.518 1043.69,571.074C1043.71,571.172 1043.74,571.272 1043.76,571.371C1044.61,575.499 1042.83,578.116 1040.06,579.739C1037.93,580.99 1034.6,581.262 1032.63,580.932C1032.4,580.895 1032.18,580.846 1031.97,580.784C1030.04,580.232 1027.32,579.068 1025.52,577.488C1025.47,577.447 1025.42,577.405 1025.38,577.363C1025.14,579.555 1024.75,581.743 1024.26,583.913C1025.14,582.962 1026.19,582.304 1027.33,581.924C1029.11,581.334 1031.42,581.183 1034.14,583.037C1034.22,583.089 1034.3,583.143 1034.37,583.199C1036.85,585.063 1038.19,587.601 1038.7,590.362C1038.72,590.105 1038.75,589.852 1038.79,589.602C1039.17,586.917 1040.15,584.475 1042.51,582.278C1042.55,582.236 1042.6,582.194 1042.64,582.154C1045.29,579.832 1049.32,579.346 1052.3,581.308C1052.98,581.745 1053.6,582.208 1054.14,582.704C1055.38,581.585 1056.71,580.51 1058.11,579.647C1060.8,577.994 1063.73,577.075 1066.7,577.243C1066.73,577.245 1066.76,577.247 1066.79,577.249C1069.85,577.467 1072.2,579.332 1073.24,581.819C1074.21,581.142 1075.23,580.528 1076.31,580.005C1076.35,579.982 1076.4,579.96 1076.45,579.939C1079.9,578.37 1083.05,577.735 1087.05,579.577C1090.55,581.099 1092.44,583.93 1093.45,587.112C1093.45,587.139 1093.46,587.167 1093.47,587.195C1093.56,587.47 1093.63,587.745 1093.7,588.018C1095.18,585.759 1097.09,583.471 1099.2,581.743C1102.25,579.258 1105.73,577.928 1109.08,578.159C1109.51,578.188 1109.94,578.265 1110.36,578.388C1111.4,578.694 1112.5,578.86 1113.45,579.24C1114.99,579.858 1116.3,580.798 1117.32,582.211C1117.87,582.922 1118.31,583.735 1118.66,584.606C1119,584.421 1119.33,584.248 1119.67,584.088C1119.74,584.056 1119.81,584.025 1119.88,583.995C1121.03,583.5 1122.23,583.023 1123.45,582.582C1123.16,577.502 1122.74,570.867 1122.26,567.83C1121.92,565.666 1122.47,563.17 1123.87,561.091C1125.14,559.183 1127.09,557.699 1129.14,557.07C1132.99,555.849 1135.82,557.1 1137.93,559.663C1139.88,562.029 1140.74,567.112 1141.01,569.558C1141.19,571.146 1141.43,576.173 1141.64,579.597C1142.09,579.582 1142.55,579.573 1143,579.573C1144.9,579.573 1146.88,579.664 1148.78,579.911C1149.61,579.921 1150.95,579.969 1151.82,580.187C1152.94,580.471 1153.83,580.969 1154.46,581.475C1154.74,581.696 1154.99,581.942 1155.23,582.209C1155.3,582.291 1155.37,582.375 1155.43,582.461C1155.83,582.244 1156.24,582.065 1156.66,581.924C1158.44,581.334 1160.75,581.183 1163.47,583.037C1163.55,583.089 1163.63,583.143 1163.7,583.199C1166.99,585.668 1168.27,589.321 1168.27,593.107C1168.27,595.046 1168.29,596.985 1168.35,598.921C1168.38,598.834 1168.42,598.748 1168.45,598.661C1169.07,596.875 1169.93,595.348 1170.85,593.717C1171.45,592.584 1171.89,591.296 1172.5,590.257C1172.51,590.236 1172.53,590.214 1172.54,590.193C1173.68,588.297 1175.48,586.691 1177.13,585.427C1177.33,585.273 1177.53,585.132 1177.73,584.969C1177.78,584.883 1177.82,584.797 1177.85,584.735C1177.96,584.513 1178.09,584.297 1178.23,584.09C1180.22,581.1 1183.3,578.839 1188.29,580.334C1188.38,580.362 1188.48,580.391 1188.57,580.424C1191.3,581.388 1193.61,583.772 1195.34,586.216C1195.76,585.147 1196.45,584.155 1197.42,583.314C1198.58,582.301 1200.37,581.488 1201.94,581.093C1202.06,581.064 1202.18,581.039 1202.29,581.017C1205.93,580.335 1208.36,581.504 1210.07,583.591C1210.49,583.106 1210.95,582.564 1211.49,581.929C1211.59,581.809 1211.7,581.694 1211.81,581.582C1212.68,580.714 1214.84,579.33 1217.13,578.636C1219.02,578.063 1220.94,577.974 1222.38,578.293C1222.67,578.358 1222.95,578.444 1223.23,578.551C1225.6,579.462 1226.78,580.849 1227.87,582.452C1229.72,584.787 1229.89,588.028 1229.26,590.615C1228.83,592.562 1228.38,594.371 1228.15,596.39C1228.09,598.77 1228.31,600.927 1228.15,603.336C1228.09,605.01 1228.41,606.959 1228.56,608.697C1228.56,608.772 1228.57,608.847 1228.57,608.922C1228.65,610.574 1228.55,611.926 1228.77,613.577C1228.79,613.704 1228.81,613.832 1228.81,613.96C1228.96,616.012 1229.3,617.621 1228.56,619.673C1228.44,620.005 1228.3,620.325 1228.12,620.631C1227.01,622.576 1225.58,624.87 1221.81,625.213C1218.26,625.646 1215.22,623.735 1213.56,620.777C1212.87,619.641 1212.32,618.477 1211.88,617.294C1211.67,617.878 1211.54,618.484 1211.35,619.047C1211.3,619.204 1211.24,619.36 1211.17,619.512C1210.57,620.925 1209.12,623.138 1207.44,624.237C1206.87,624.59 1205.86,625.053 1204.59,625.313C1202.98,625.642 1200.69,625.71 1199.96,625.604C1199.82,625.585 1199.69,625.561 1199.55,625.532C1195.93,624.754 1193.88,621.883 1193.11,619.552C1193.07,619.436 1193.03,619.319 1193,619.201C1192.82,618.521 1192.75,617.836 1192.75,617.159C1191.83,618.141 1190.85,619.061 1189.85,619.908C1185.57,623.709 1180.07,627.155 1173.61,626.463C1173.56,626.457 1173.5,626.451 1173.45,626.443C1169.86,625.958 1167.5,624.229 1166.09,621.805C1165.68,622.103 1165.24,622.386 1164.75,622.654C1164.64,622.713 1164.54,622.768 1164.42,622.82C1162.13,623.907 1159.83,623.776 1157.65,622.623C1155.7,621.598 1153.74,619.079 1152.78,617.468C1152.75,617.431 1152.73,617.394 1152.71,617.357C1151.29,614.861 1150.51,611.908 1150.27,609.043C1149.98,605.979 1149.57,602.817 1149.95,599.563C1150.09,598.275 1150.21,596.96 1150.35,595.64C1150.06,595.749 1149.76,595.853 1149.45,595.949C1147.32,596.615 1144.53,597.121 1142.3,597.484L1142.3,599.646C1142.3,606.466 1142.08,614.852 1139.1,621.127C1136.43,627.236 1127.45,627.599 1124.33,621.342C1123.02,618.73 1122.86,614.603 1123.23,611.83C1123.39,610.154 1123.55,606.96 1123.66,601.949C1122.06,602.077 1120.03,601.727 1118.21,600.744C1117.87,600.557 1117.53,600.35 1117.21,600.127C1116.98,600.526 1116.73,600.91 1116.45,601.275C1116.35,601.402 1116.25,601.525 1116.14,601.644C1114.65,603.303 1111.71,604.591 1109.14,604.419C1107.98,604.341 1106.91,604.041 1105.96,603.53C1105.15,605.535 1104.62,607.751 1104.43,609.773C1106.04,608.922 1107.91,607.908 1108.64,607.411C1108.69,607.377 1108.74,607.343 1108.8,607.31C1112.59,604.898 1118.41,605.674 1120.48,611.187C1120.58,611.434 1120.65,611.687 1120.71,611.945C1121.39,614.879 1119.99,618.207 1118.22,620.165C1118.21,620.173 1118.21,620.181 1118.2,620.19C1115.76,623.124 1112.2,625.064 1109.12,626.953L1109.11,626.957C1106.79,628.376 1103.3,629.513 1100.21,629.513C1097,629.513 1094.54,628.539 1092.41,626.466C1090.28,624.519 1088.75,621.858 1087.77,618.937C1087.57,619.314 1087.33,619.686 1087.08,620.054C1084.7,623.429 1078.66,626.174 1076.08,626.461C1075.86,626.485 1075.63,626.497 1075.41,626.497L1075.08,626.497C1071.3,626.497 1067.42,625.533 1064.02,622.888C1063.9,622.791 1063.78,622.689 1063.66,622.583C1060.53,619.723 1059.19,615.204 1059.04,611.822C1058.82,608.785 1059.12,605.905 1059.76,603.108C1059.3,603.779 1059.02,604.297 1058.9,604.643C1058.89,604.683 1058.87,604.723 1058.86,604.763C1058.12,606.842 1056.7,609.037 1056.25,611.338C1056.18,611.684 1056.09,612.023 1055.96,612.352C1055.81,612.735 1055.84,613.167 1055.85,613.609C1055.83,614.531 1055.67,615.722 1055.61,616.187C1055.59,618.348 1055.37,620.227 1054.56,622.004C1054.53,622.061 1054.5,622.117 1054.47,622.173C1052.6,625.931 1048.89,628.272 1044.87,626.788C1043.89,626.501 1042.95,626.033 1042.29,625.527C1040.27,624.363 1039.05,622.918 1038.26,621.376C1038.15,621.174 1038.06,620.968 1037.97,620.759C1037.29,621.455 1036.45,622.088 1035.42,622.654C1035.31,622.713 1035.2,622.768 1035.1,622.82C1032.8,623.907 1030.5,623.776 1028.32,622.623C1026.37,621.598 1024.41,619.079 1023.45,617.468C1023.42,617.431 1023.4,617.394 1023.38,617.357C1023.37,617.328 1023.35,617.299 1023.33,617.27C1022.94,619.011 1021.85,620.908 1021,621.891L1021.08,621.811C1018.76,624.512 1015.48,625.291 1012.39,624.615C1009.64,624.013 1007.23,622.13 1006.09,620.084C1005.6,619.194 1005.1,618.276 1004.65,617.338C1001.53,620.111 998.099,622.386 994.463,623.598C994.373,623.628 994.282,623.656 994.191,623.682C988.816,625.194 983.345,622.569 980.661,617.864C979.109,615.143 978.451,612.296 978.451,609.446C978.451,603.604 981.235,597.692 984.416,593.23C984.428,593.213 984.44,593.196 984.453,593.18C987.515,588.979 992.737,583.743 998.3,582.835C998.366,582.824 998.432,582.814 998.499,582.806C999.484,582.679 1000.45,582.663 1001.4,582.748C1002.18,578.732 1003.21,574.785 1004.1,571.581C1004.59,569.658 1005.39,566.935 1006.63,564.606C1007.82,562.368 1009.43,560.484 1011.33,559.294C1011.42,559.239 1011.51,559.187 1011.6,559.137C1015.88,556.754 1021.14,559.239 1023.52,562.812C1023.58,562.901 1023.64,562.99 1023.69,563.082C1024.06,563.695 1024.36,564.344 1024.61,565.018ZM1086.36,609.123C1086.38,608.48 1086.42,607.847 1086.49,607.23C1086.07,607.587 1085.63,607.928 1085.18,608.255C1085.59,608.48 1085.98,608.762 1086.36,609.123ZM1020.73,609.9C1020.71,609.873 1020.69,609.846 1020.67,609.821C1020.51,609.667 1020.35,609.524 1020.35,609.524C1020.35,609.524 1020.5,609.665 1020.73,609.9ZM1021.07,610.216C1021.02,609.824 1020.97,609.433 1020.94,609.043C1020.65,605.979 1020.24,602.817 1020.62,599.563C1020.8,597.9 1020.96,596.191 1021.14,594.487C1020.95,595.022 1020.76,595.554 1020.57,596.084C1020.56,596.113 1020.55,596.141 1020.54,596.17C1020.24,596.953 1019.83,597.844 1019.43,598.76C1019.21,599.247 1018.9,599.714 1018.84,600.165C1018.88,602.039 1019.56,604.15 1019.91,606.008C1019.93,606.102 1019.94,606.196 1019.95,606.29C1020.14,607.626 1020.52,608.779 1021,610.047L1021.07,610.216ZM1019.62,573.847C1019.79,571.418 1019.87,568.402 1018.53,566.141C1017.69,564.884 1016.02,563.544 1014.51,564.382C1011.83,566.057 1010.57,570.496 1009.9,573.093C1008.48,578.202 1006.72,585.155 1006.22,591.186C1004.21,589.51 1001.86,588.421 999.266,588.756C995.162,589.427 991.56,593.615 989.301,596.714C986.792,600.232 984.451,604.839 984.451,609.446C984.451,611.289 984.869,613.131 985.873,614.89C987.21,617.236 989.886,618.66 992.565,617.906C998.345,615.979 1003.37,610.702 1007.31,605.593C1007.56,607.101 1007.98,608.692 1008.48,610.451C1008.98,612.796 1010.16,615.058 1011.33,617.152C1012.17,618.66 1015.01,619.665 1016.52,617.906C1017.02,617.403 1017.78,615.812 1017.44,615.058C1017.27,614.555 1016.69,614.388 1016.27,613.885C1015.94,613.55 1015.68,612.88 1015.43,612.294C1014.76,610.535 1014.26,608.943 1014.01,607.101C1013.59,604.839 1012.84,602.242 1012.84,599.981C1012.92,598.138 1014.26,595.793 1014.93,594.034C1017.27,587.584 1019.37,580.715 1019.62,573.847ZM1000.61,604.923C998.094,608.022 994.911,610.032 991.812,612.378C991.058,611.205 990.806,609.781 990.806,608.441C990.806,605.174 992.565,601.991 994.408,599.394C995.748,597.635 997.507,596.63 999.518,595.29C1000.61,594.536 1000.77,594.62 1001.95,595.374C1002.95,595.96 1003.96,596.965 1004.96,597.384C1005.47,597.468 1005.88,597.468 1006.3,597.217L1006.3,597.887C1004.12,599.981 1002.37,602.829 1000.61,604.923ZM1032.53,617.398C1034.2,616.477 1034.53,615.053 1034.53,613.378C1034.53,611.451 1033.95,609.189 1033.7,607.598C1033.03,602.823 1032.94,597.965 1032.94,593.107C1032.94,591.18 1032.44,589.254 1030.77,587.997C1028.68,586.573 1027.92,588.919 1027.67,590.762C1027.17,593.861 1026.92,597.128 1026.58,600.227C1026.25,603.075 1026.67,605.839 1026.92,608.519C1027.09,610.53 1027.59,612.624 1028.59,614.383C1029.35,615.639 1030.93,618.152 1032.53,617.398ZM1113.69,616.225C1114.36,615.555 1115.12,614.383 1114.86,613.294C1114.36,611.954 1112.94,611.786 1112.02,612.372C1109.92,613.796 1104.23,617.482 1101.63,617.147C1100.37,616.979 1099.7,615.974 1099.2,615.053C1098.45,613.629 1098.36,612.54 1098.36,611.283C1098.36,607.682 1099.37,603.242 1101.13,599.64C1102.22,597.463 1103.05,595.536 1104.56,593.526C1105.23,592.772 1108.33,589.756 1108.33,589.756L1108.33,591.767C1108.33,592.772 1108.41,593.777 1108.33,594.866C1108.33,595.62 1107.83,596.96 1108.33,597.714C1108.92,598.887 1110.93,598.468 1111.68,597.63C1112.77,596.206 1113.19,594.28 1113.52,592.604C1113.94,590.678 1114.03,587.579 1112.52,585.82C1111.68,584.563 1110.09,584.563 1108.67,584.144C1103.81,583.809 1098.87,590.175 1097.02,594.363C1094.85,598.635 1093.17,602.321 1092.5,607.43C1091.91,612.289 1092.75,618.738 1096.52,622.089C1097.53,623.094 1098.7,623.513 1100.21,623.513C1102.22,623.513 1104.48,622.759 1105.99,621.838C1108.58,620.246 1111.68,618.738 1113.69,616.225ZM1087.72,588.919C1087.22,587.327 1086.38,585.82 1084.63,585.066C1082.45,584.061 1080.77,584.563 1078.93,585.401C1075.83,586.908 1073.32,589.421 1071.22,591.767C1068.71,594.615 1067.45,598.216 1066.37,601.734C1065.36,604.834 1064.77,608.017 1065.03,611.451C1065.11,613.545 1065.78,616.393 1067.71,618.152C1069.97,619.911 1072.56,620.497 1075.08,620.497L1075.41,620.497C1077.67,620.246 1084.29,616.979 1082.45,613.796C1081.95,612.875 1081.19,613.88 1080.19,614.131C1078.09,615.137 1075.08,615.807 1072.98,614.048C1071.06,612.54 1071.81,609.022 1071.56,607.179C1072.48,607.179 1073.32,607.179 1074.07,607.095C1076.84,606.593 1078.34,605.588 1080.52,604.164C1082.28,603.075 1083.79,601.734 1085.05,600.059C1087.39,596.96 1088.98,593.107 1087.72,588.919ZM1081.69,596.374C1078.85,600.311 1073.82,603.242 1072.06,603.326C1072.06,603.326 1072.98,595.369 1081.02,590.008C1081.02,590.008 1084.54,592.353 1081.69,596.374ZM1067.62,585.662C1068.12,584.573 1067.53,583.317 1066.36,583.233C1061.92,582.982 1057.82,587.337 1055.05,590.267C1053.46,592.026 1051.87,593.868 1050.36,595.627C1050.44,593.617 1050.61,591.524 1050.86,589.43C1051.12,587.923 1050.19,587.085 1049.02,586.332C1048.27,585.829 1047.27,586.08 1046.6,586.667C1044.17,588.928 1044.76,591.775 1044.42,594.873C1044.17,596.38 1043.92,598.139 1043.92,599.646C1044.01,602.745 1043.76,605.843 1043.76,608.941L1043.76,611.286C1043.67,612.124 1043.42,613.631 1043.25,614.552C1042.92,617.148 1043,619.241 1045.76,620.581C1045.85,620.749 1046.35,621.084 1046.77,621.084C1047.85,621.586 1048.6,620.498 1049.11,619.493C1049.61,618.404 1049.61,617.232 1049.61,615.892C1049.61,615.306 1049.94,614.385 1049.86,613.631C1049.94,612.542 1049.94,611.286 1050.36,610.198C1050.86,607.602 1052.37,605.089 1053.21,602.745C1053.46,601.991 1054.05,600.735 1055.22,599.144C1056.22,597.888 1056.81,596.38 1058.57,594.371C1060.66,591.942 1062.93,590.016 1065.44,588.174C1066.11,587.42 1067.28,586.667 1067.62,585.662ZM1193.51,603.75C1193.76,602.494 1193.85,600.987 1193.85,599.647C1193.85,597.218 1193.51,595.041 1192.34,592.864C1191.26,590.687 1189.42,587.086 1186.57,586.081C1184.89,585.579 1183.89,586.416 1183.22,587.421C1182.96,587.924 1182.71,588.51 1182.29,588.928C1181.79,589.431 1181.29,589.766 1180.79,590.184C1179.69,591.022 1178.44,592.027 1177.68,593.283C1177.1,594.288 1176.68,595.544 1176.09,596.632C1175.34,597.972 1174.59,599.228 1174.08,600.735C1172.75,604.085 1171.16,607.183 1170.74,610.951C1170.65,611.956 1170.4,613.296 1170.4,614.636C1170.4,617.399 1171.16,620.079 1174.25,620.497C1178.94,621 1182.8,618.153 1185.9,615.389C1189.5,612.375 1192.76,608.272 1193.51,603.75ZM1184.64,609.025C1183.55,610.281 1182.29,611.537 1180.79,612.542C1179.44,613.547 1177.68,614.05 1176.42,615.054C1175.42,612.04 1176.68,608.774 1177.85,606.095C1178.69,603.917 1179.69,601.74 1180.79,599.647C1181.45,598.642 1182.29,597.637 1182.96,596.632C1183.55,595.879 1184.31,595.125 1184.81,594.371C1185.06,593.785 1185.31,593.115 1185.4,592.529C1186.4,593.618 1186.82,595.125 1187.41,596.381C1187.99,597.972 1188.25,599.647 1187.99,601.238C1187.66,604.169 1186.82,606.681 1184.64,609.025ZM1206.41,593.112C1206.41,591.688 1206.5,589.762 1205.99,588.254C1205.49,587.333 1204.74,586.662 1203.4,586.914C1202.4,587.165 1201.14,587.668 1200.89,588.505C1200.39,589.762 1200.56,591.018 1200.56,592.358C1200.39,594.285 1200.56,596.128 1200.31,597.97C1200.06,600.064 1200.14,602.326 1200.14,604.42C1200.06,606.179 1200.06,608.022 1200.06,609.781C1199.89,611.289 1199.55,612.629 1199.3,614.053C1199.05,615.142 1198.46,616.398 1198.8,617.655C1199.05,618.409 1199.64,619.414 1200.81,619.665C1201.39,619.749 1203.74,619.497 1204.24,619.162C1204.91,618.744 1205.41,617.738 1205.66,617.152C1205.99,616.147 1206.25,615.058 1206.75,614.053C1207.25,612.796 1207.59,611.037 1208.01,609.781C1208.26,608.776 1209.1,606.682 1210.1,604.671C1211.02,602.577 1211.69,601.321 1212.87,599.394C1213.45,597.97 1215.55,595.374 1216.47,594.285C1216.31,596.881 1216.47,599.729 1216.22,601.488C1215.97,603.75 1216.05,606.347 1216.22,608.692C1216.47,611.791 1216.98,614.89 1218.73,617.738C1219.23,618.66 1220.07,619.414 1221.16,619.246C1222.33,619.162 1222.58,618.241 1222.91,617.655C1223.33,616.482 1222.91,615.561 1222.83,614.388C1222.58,612.545 1222.66,611.037 1222.58,609.195C1222.41,607.184 1222.08,604.923 1222.16,602.996C1222.33,600.567 1222.08,598.389 1222.16,595.96C1222.41,593.615 1222.91,591.521 1223.42,589.259C1223.67,588.254 1223.92,586.914 1223.08,586.076C1222.58,585.322 1222.16,584.568 1221.07,584.15C1219.57,583.814 1216.81,585.071 1216.05,585.825C1213.62,588.673 1212.87,589.51 1211.02,592.107C1210.02,593.615 1209.35,594.536 1208.51,596.128C1207.75,597.217 1206.91,599.143 1206.41,600.232C1206.16,598.724 1206.25,598.976 1206.41,597.468C1206.5,596.128 1206.41,594.62 1206.41,593.112ZM1037.88,572.589C1037.38,570.665 1033.36,568.658 1031.52,568.491C1029.43,568.407 1027.92,569.244 1028.42,571.502C1029.01,573.342 1031.86,574.512 1033.61,575.014C1035.12,575.265 1038.38,575.014 1037.88,572.589ZM1150.54,588.673C1151.05,588.17 1151.3,586.83 1150.71,586.16C1150.29,585.825 1148.87,585.909 1148.36,585.909C1146.61,585.657 1144.76,585.573 1143,585.573C1140.66,585.573 1138.4,585.825 1136.05,586.076C1136.05,585.071 1135.88,584.066 1135.88,583.061C1135.63,580.799 1135.3,572.339 1135.05,570.245C1134.8,567.9 1134.38,561.701 1130.95,562.79C1129.28,563.293 1127.94,565.303 1128.19,566.894C1128.86,571.166 1129.44,582.307 1129.7,586.914C1127.1,587.584 1124.59,588.505 1122.24,589.51C1120.65,590.264 1118.64,591.437 1119.39,593.782C1119.89,595.122 1122.07,596.211 1123.25,595.96C1124,595.793 1124.5,594.871 1125.09,594.536C1126.35,593.866 1128.1,593.363 1129.78,593.112C1129.7,603.918 1129.44,610.032 1129.19,612.545C1128.94,614.304 1128.86,616.985 1129.7,618.66C1130.53,620.335 1132.96,620.335 1133.63,618.66C1136.3,613.131 1136.3,605.677 1136.3,599.646L1136.3,592.275C1136.81,592.275 1137.39,592.275 1137.98,592.107C1140.24,591.688 1149.2,590.683 1150.54,588.673ZM1161.86,617.398C1163.53,616.477 1163.86,615.053 1163.86,613.378C1163.86,611.451 1163.28,609.189 1163.03,607.598C1162.36,602.823 1162.27,597.965 1162.27,593.107C1162.27,591.18 1161.77,589.254 1160.1,587.997C1158.01,586.573 1157.25,588.919 1157,590.762C1156.5,593.861 1156.25,597.128 1155.91,600.227C1155.58,603.075 1156,605.839 1156.25,608.519C1156.41,610.53 1156.92,612.624 1157.92,614.383C1158.67,615.639 1160.27,618.152 1161.86,617.398ZM839.794,583.334C839.965,581.385 840.124,579.408 840.243,577.438C840.251,576.332 840.326,575.29 840.326,574.098C840.326,573.009 840.242,571.501 840.242,569.994C840.242,567.159 840.739,564.713 841.993,562.823L841.998,562.816C842.676,561.797 844.705,559.674 846.523,558.71C848.643,557.587 850.74,557.576 852.322,558.104C852.479,558.157 852.634,558.216 852.787,558.281C857.173,560.162 858.088,564.214 858.095,567.738C858.174,571.197 857.844,574.49 857.844,577.867C857.844,584.517 857.173,590.917 857.339,597.484C857.341,597.534 857.341,597.585 857.341,597.635C857.341,598.365 857.317,599.14 857.286,599.931C857.452,599.661 857.62,599.395 857.79,599.135C857.797,599.124 857.804,599.113 857.811,599.102C860.977,594.3 864.799,589.373 869.603,586.014C869.712,585.937 869.824,585.865 869.937,585.796C872.243,584.403 876.923,581.857 880.872,580.961C883.649,580.331 886.208,580.48 888.168,581.265L888.083,581.233C889.891,581.955 893.036,584.722 893.957,587.684C894.246,588.614 894.407,589.543 894.411,590.448C895.966,587.502 898.469,584.101 901.357,581.743C904.401,579.258 907.882,577.928 911.231,578.159C911.665,578.188 912.094,578.265 912.511,578.388C913.552,578.694 914.654,578.86 915.599,579.24C916.639,579.657 917.578,580.222 918.39,580.981C918.392,580.94 918.394,580.899 918.396,580.858C918.484,577.899 918.741,574.939 919.002,571.98C919.01,571.885 919.021,571.791 919.033,571.697C919.148,570.854 918.975,569.829 918.961,568.839C918.94,567.298 919.094,565.803 919.511,564.491C919.527,564.44 919.544,564.39 919.562,564.339C921.54,558.643 929.087,556.734 933.602,560.255C935.781,561.839 936.721,563.72 937.169,566.411C937.558,568.74 937.837,571.168 937.837,573.595C937.837,576.61 937.403,579.626 937.037,582.548C937.031,582.6 937.024,582.652 937.016,582.703C936.858,583.744 936.693,584.782 936.529,585.818C936.792,585.666 937.053,585.514 937.31,585.361C940.059,583.712 943.179,581.985 946.018,580.794C946.049,580.781 946.08,580.769 946.11,580.757C948.521,579.792 952.232,579.821 954.817,581.215C957.361,582.587 959.127,584.903 959.194,588.269C959.366,591.315 958.175,593.339 956.413,594.891C955.498,595.698 954.151,596.204 953.162,596.884C952.896,597.066 952.616,597.227 952.325,597.365C950.218,598.36 948.068,599.396 945.991,600.48C947.62,600.947 949.273,601.356 950.952,601.625C952.508,601.704 954.169,601.836 955.662,601.853C957.521,601.697 960.674,601.886 962.393,602.92C964.697,604.307 966.181,606.447 965.782,609.823C965.781,609.836 965.779,609.849 965.778,609.862C965.496,612.731 963.922,614.895 961.554,616.32C959.605,617.493 956.949,618.017 955.228,618.116C952.398,618.305 949.567,618.547 946.736,618.264C946.706,618.261 946.676,618.258 946.646,618.254C944.34,617.988 942.12,617.385 939.727,616.941C939.054,616.822 938.368,616.673 937.676,616.497C937.793,617.556 937.848,618.712 937.672,619.633C937.189,622.153 935.769,623.975 933.582,624.953C931.168,626.072 928.737,625.857 926.469,624.508C924.453,623.31 922.518,620.481 921.802,619.252C921.691,619.062 921.583,618.872 921.478,618.68C921.14,619.23 920.766,619.731 920.374,620.165C920.367,620.173 920.36,620.181 920.353,620.19C917.911,623.124 914.356,625.064 911.273,626.953L911.266,626.957C908.944,628.376 905.454,629.513 902.358,629.513C899.154,629.513 896.689,628.539 894.568,626.466C894.391,626.305 894.218,626.14 894.05,625.969C893.369,626.573 892.52,627.119 891.46,627.577C888.677,628.822 886.191,628.428 883.973,627.1C882.465,626.198 881.078,624.55 880.047,623.172C880.034,623.154 880.021,623.137 880.008,623.12C879.239,622.069 878.554,620.937 877.957,619.752C875.24,622.179 871.584,624.646 867.642,626.509C867.558,626.548 867.474,626.585 867.389,626.621C862.209,628.783 858.419,626.885 855.829,623.481C855.303,622.789 854.845,622.006 854.457,621.185C854.283,621.426 854.095,621.662 853.893,621.892C852.369,623.7 850.51,624.45 848.623,624.551C846.58,624.66 844.154,623.893 842.201,621.762C840.412,619.866 839.707,616.867 839.392,614.56C839.114,612.919 839.025,611.278 838.998,609.637C834.17,616.309 826.526,621.458 819.266,623.014C819.239,623.019 819.213,623.025 819.186,623.03C817.547,623.358 815.795,623.649 814.156,623.649C811.609,623.649 808.807,622.959 806.677,621.79C805,620.934 803.672,619.808 802.715,618.43C802.592,618.343 802.473,618.251 802.357,618.154C801.267,617.245 800.304,615.588 799.782,614.546C798.644,612.388 798.188,610.235 798.188,607.933C798.188,602.681 798.463,597.518 799.264,592.354C799.267,592.337 799.27,592.319 799.273,592.301C799.824,588.946 800.351,585.642 800.809,582.331C800.136,581.884 799.475,581.297 798.835,580.557C795.65,576.943 796.036,572.763 798.041,568.953C799.084,566.972 800.108,564.941 801.618,563.259C803.729,560.613 806.356,558.66 809.126,556.778C813.753,553.474 820.295,550.551 826.008,549.949C826.037,549.946 826.065,549.943 826.093,549.941C829.424,549.638 832.516,551.226 835.243,553.343C838.28,555.666 839.124,557.843 839.996,561.33C839.999,561.34 840.001,561.35 840.004,561.36C841.278,566.574 839.954,571.027 837.752,575.662C837.744,575.679 837.736,575.696 837.728,575.712C837.139,576.923 836.435,578.086 835.643,579.186C837.195,580.393 838.599,581.787 839.794,583.334ZM846.326,574.098C846.326,575.354 846.242,576.443 846.242,577.616C846.075,580.464 845.823,583.312 845.572,586.076C845.237,591.269 844.986,596.63 844.986,601.823L844.986,607.854C844.986,609.781 844.986,611.707 845.32,613.634C845.488,614.89 845.571,616.649 846.575,617.655C847.495,618.66 848.582,618.911 849.334,617.99C850.087,617.152 850.338,616.147 850.589,614.89C850.923,613.802 850.923,611.54 851.09,610.284C851.341,608.022 851.174,606.849 851.174,605.342C851.09,602.996 851.341,600.064 851.341,597.635C851.174,591.018 851.844,584.568 851.844,577.867C851.844,574.517 852.179,571.25 852.095,567.816C852.095,566.392 852.179,564.549 850.421,563.795C849.418,563.46 847.495,565.387 846.993,566.141C846.326,567.146 846.242,568.486 846.242,569.994C846.242,571.501 846.326,573.009 846.326,574.098ZM825.631,580.71C828.312,578.867 830.825,576.187 832.332,573.088C833.924,569.737 835.097,566.554 834.175,562.785C833.673,560.774 833.338,559.434 831.579,558.094C830.071,556.921 828.479,555.749 826.637,555.916C821.862,556.419 816.418,558.932 812.564,561.696C810.219,563.287 807.957,564.879 806.198,567.14C804.942,568.481 804.188,570.156 803.351,571.747C802.513,573.339 802.01,575.098 803.351,576.606C804.858,578.365 806.45,576.606 807.706,575.098C807.12,581.213 806.198,587.16 805.193,593.274C804.439,598.133 804.188,602.991 804.188,607.933C804.188,609.273 804.439,610.53 805.11,611.786C805.361,612.289 805.696,613.126 806.198,613.545C806.617,613.796 806.869,613.796 807.12,613.88C807.455,615.053 808.293,615.89 809.465,616.477C810.805,617.231 812.564,617.649 814.156,617.649C815.412,617.649 816.753,617.398 818.009,617.147C826.218,615.388 835.097,608.017 837.442,599.473C837.777,598.133 838.028,596.709 838.028,595.369C838.028,588.165 832.165,582.553 825.631,580.71ZM828.228,563.287C828.982,564.125 828.228,566.805 827.893,567.811C827.139,569.486 826.218,571.161 824.878,572.585C822.113,575.6 819.182,577.695 815.58,579.705C814.575,580.207 813.653,581.045 812.816,581.045C813.151,578.867 813.57,576.606 814.072,574.512C814.323,573.506 814.407,572.501 814.826,571.496C815.412,570.156 815.58,568.983 814.072,568.397C813.57,567.894 817.423,565.549 818.177,565.13C819.768,564.293 826.972,562.031 828.228,563.287ZM831.579,597.714C830.573,601.316 827.139,605.588 824.124,607.43C821.108,609.273 817.004,611.032 813.653,610.697C812.899,610.697 811.978,610.697 811.224,610.446C810.554,610.278 810.219,609.943 809.549,609.776L809.549,609.189C809.549,606.341 810.303,603.326 810.722,600.478C811.224,596.625 811.476,592.604 811.978,588.751C813.653,588.165 815.412,587.83 816.753,586.406C818.512,586.322 820.271,586.322 822.03,586.406C825.464,586.657 827.893,587.579 829.568,590.678C831.244,593.107 832.416,594.615 831.579,597.714ZM816.086,604.581C817.788,604.191 819.556,603.19 820.995,602.311C822.92,601.134 825.136,598.434 825.791,596.131L825.794,596.118C825.875,595.763 825.647,595.584 825.48,595.33C825.222,594.936 824.934,594.527 824.629,594.084C824.506,593.906 824.393,593.721 824.29,593.531C823.737,592.508 822.799,592.476 821.655,592.395C820.718,592.352 819.782,592.336 818.845,592.346C818.416,592.605 817.976,592.836 817.528,593.046C817.251,595.787 817.022,598.562 816.671,601.254C816.667,601.286 816.663,601.319 816.658,601.351C816.502,602.41 816.286,603.493 816.086,604.581ZM917.855,606.401C917.722,605.039 917.655,603.66 917.642,602.27C916.043,603.613 913.53,604.569 911.296,604.419C910.135,604.341 909.059,604.041 908.112,603.53C907.302,605.535 906.77,607.751 906.587,609.773C908.196,608.922 910.063,607.908 910.795,607.411C910.845,607.377 910.896,607.343 910.947,607.31C912.964,606.027 915.558,605.646 917.855,606.401ZM890.207,618.571C888.951,615.304 887.862,612.121 887.359,608.519C887.108,606.593 886.941,604.917 886.689,602.991L886.689,601.064C886.941,599.389 887.359,597.798 887.694,596.29C888.113,595.201 888.616,594.447 888.197,593.358C888.113,592.856 887.862,592.186 887.443,591.6C889.705,590.262 887.108,587.253 885.937,586.835C882.593,585.495 875.807,589.259 873.041,590.931C868.85,593.861 865.582,598.216 862.82,602.405C860.479,606.006 858.22,610.865 858.89,615.22C859.225,618.068 861.064,622.759 865.079,621.084C869.689,618.906 873.879,615.807 876.059,613.126C877.735,610.865 879.495,608.603 881.088,606.258C880.752,610.697 882.091,615.807 884.85,619.576C885.853,620.916 887.192,622.926 889.035,622.089C890.794,621.335 890.961,620.162 890.207,618.571ZM874.382,605.923C873.293,607.347 871.7,609.106 870.443,610.613C869.521,611.702 865.917,613.88 864.743,614.718C864.242,610.613 866.839,606.006 869.186,602.656C871.7,599.054 877.651,594.112 882.258,591.934C881.255,593.358 881.004,595.452 880.752,597.044C879.914,598.468 878.908,599.808 877.986,601.064C876.813,602.907 875.807,604.164 874.382,605.923ZM959.814,609.195C960.065,607.352 957.05,607.687 955.961,607.854C954.202,607.854 952.192,607.687 950.349,607.603C946.998,607.101 943.732,606.095 940.549,605.09C939.209,604.588 937.701,603.918 936.277,603.331C935.523,602.996 934.434,602.577 933.848,602.075C936.026,600.064 938.203,597.97 940.8,596.463C943.648,594.871 946.747,593.363 949.763,591.939C951.103,591.018 953.364,590.683 953.197,588.505C953.197,586.076 950.014,585.657 948.339,586.327C945.742,587.416 942.894,589.008 940.381,590.516C937.701,592.107 934.602,593.615 931.921,595.793C931.251,596.463 930.078,597.384 929.073,598.389C929.241,592.777 930.246,587.333 931.084,581.804C931.419,579.124 931.837,576.36 931.837,573.595C931.837,571.501 931.586,569.407 931.251,567.397C931.084,566.392 930.832,565.638 929.995,565.052C928.492,563.795 925.899,564.382 925.229,566.308C924.644,568.151 925.229,570.664 924.978,572.507C924.728,575.354 924.477,578.202 924.393,581.05C924.225,584.652 923.974,588.421 923.723,592.107C923.639,593.782 923.639,595.374 923.639,596.965L923.639,601.74C923.639,606.849 924.393,611.791 926.986,616.231C927.571,617.236 929.328,620.335 931.085,619.497C932.424,618.911 931.586,616.231 931.419,615.142C931.085,612.126 929.997,609.697 929.579,606.095C930.081,606.43 930.499,606.849 930.834,606.933C933.68,608.943 937.449,610.451 940.8,611.037C943.062,611.456 945.156,612.043 947.333,612.294C949.846,612.545 952.359,612.294 954.872,612.126C956.464,612.043 959.647,611.456 959.814,609.195ZM915.844,616.225C916.514,615.555 917.268,614.383 917.017,613.294C916.514,611.954 915.09,611.786 914.169,612.372C912.075,613.796 906.379,617.482 903.782,617.147C902.526,616.979 901.856,615.974 901.353,615.053C900.599,613.629 900.515,612.54 900.515,611.283C900.515,607.682 901.52,603.242 903.28,599.64C904.368,597.463 905.206,595.536 906.714,593.526C907.384,592.772 910.483,589.756 910.483,589.756L910.483,591.767C910.483,592.772 910.567,593.777 910.483,594.866C910.483,595.62 909.981,596.96 910.483,597.714C911.069,598.887 913.08,598.468 913.834,597.63C914.923,596.206 915.341,594.28 915.676,592.604C916.095,590.678 916.179,587.579 914.671,585.82C913.834,584.563 912.242,584.563 910.818,584.144C905.96,583.809 901.018,590.175 899.175,594.363C896.997,598.635 895.322,602.321 894.652,607.43C894.066,612.289 894.903,618.738 898.673,622.089C899.678,623.094 900.85,623.513 902.358,623.513C904.368,623.513 906.63,622.759 908.138,621.838C910.734,620.246 913.834,618.738 915.844,616.225ZM1173.09,571.371C1173.94,575.499 1172.16,578.116 1169.39,579.739C1167.26,580.99 1163.93,581.262 1161.96,580.932C1161.73,580.895 1161.51,580.846 1161.3,580.784C1159.37,580.232 1156.65,579.068 1154.85,577.488C1153.48,576.29 1152.53,574.855 1152.04,573.322C1151.98,573.152 1151.94,572.979 1151.9,572.804C1151.22,569.752 1151.99,567.527 1153.18,565.904C1154.7,563.822 1157.46,562.351 1161.09,562.496C1161.19,562.5 1161.29,562.507 1161.39,562.516C1163.52,562.708 1167.45,564.258 1169.87,566.333C1171.57,567.79 1172.61,569.518 1173.02,571.074C1173.04,571.172 1173.07,571.272 1173.09,571.371ZM1167.21,572.589C1166.71,570.665 1162.69,568.658 1160.85,568.491C1158.76,568.407 1157.25,569.244 1157.75,571.502C1158.34,573.342 1161.18,574.512 1162.94,575.014C1164.45,575.265 1167.71,575.014 1167.21,572.589Z" style="fill:white;"/></g><g transform="matrix(1,-5.73004e-05,5.73004e-05,1,-674.226,544.031)"><g transform="matrix(83.7628,0,0,83.7628,1217.56,620)"></g><text x="800px" y="620px" style="font-family:'ChewedPenBB', 'Chewed Pen BB';font-size:83.763px;fill:rgb(128,128,128);">Whit<tspan x="924.471px 951.862px " y="620px 620px ">e </tspan>dir<tspan x="1053.3px 1080.69px " y="620px 620px ">ec</tspan>tio<tspan x="1185.98px " y="620px ">n</tspan></text><path d="M814.497,562.779L814.484,562.733C815.302,565.19 814.986,568.041 815.19,570.6C815.197,570.684 815.202,570.768 815.205,570.853C815.251,572.092 815.314,573.337 815.384,574.587C815.459,574.102 815.532,573.618 815.618,573.133C815.621,573.112 815.625,573.091 815.629,573.07C816.009,571.047 816.431,568.346 817.569,566.575C817.647,566.454 817.73,566.335 817.816,566.22C818.217,565.687 819.62,564.13 820.661,563.426C821.055,563.159 821.447,562.948 821.811,562.789C823.568,561.894 825.59,561.779 828.116,562.621C828.149,562.632 828.182,562.643 828.215,562.655C829.811,563.218 831.03,564.116 831.899,565.241C831.885,565.144 831.871,565.047 831.856,564.951C831.473,562.947 830.904,561.027 831.28,558.895C831.292,558.823 831.306,558.751 831.322,558.68C831.615,557.308 832.127,555.298 832.99,553.898C833.848,552.507 834.998,551.479 836.297,550.867C838.231,549.885 840.014,549.837 841.614,550.247C843.482,550.725 845.342,551.998 846.674,554.281C847.236,555.243 847.696,556.518 848.068,557.884C850.46,555.92 853.089,555.669 855.666,556.524C857.635,557.177 859.631,558.809 860.846,560.229C860.974,560.378 861.094,560.533 861.206,560.694C862.954,563.196 863.684,566.63 863.934,569.606C864.212,572.601 864.095,575.595 864.185,578.589C865.891,577.669 867.689,577.267 869.455,577.408C871.61,577.58 873.914,578.478 875.995,581.009C876.066,581.095 876.134,581.182 876.199,581.271C877.722,583.348 878.392,585.731 878.846,588.199C879.197,586.881 879.734,585.608 880.399,584.685C881.389,583.311 882.667,582.4 884.098,581.924C885.874,581.334 888.185,581.183 890.909,583.037C890.986,583.089 891.061,583.143 891.136,583.199C892.274,584.054 893.172,585.05 893.86,586.145C894.848,585.31 895.975,584.628 897.114,584.088C897.182,584.056 897.251,584.025 897.319,583.995C898.476,583.5 899.669,583.023 900.891,582.582C900.766,580.362 900.614,577.845 900.443,575.461C899.878,577.349 898.543,578.735 896.829,579.739C894.696,580.99 891.367,581.262 889.391,580.932C889.169,580.895 888.949,580.846 888.731,580.784C886.801,580.232 884.083,579.068 882.281,577.488C880.914,576.29 879.961,574.855 879.473,573.322C879.419,573.152 879.372,572.979 879.333,572.804C878.655,569.752 879.43,567.527 880.615,565.904C882.135,563.822 884.9,562.351 888.527,562.496C888.628,562.5 888.729,562.507 888.829,562.516C890.951,562.708 894.887,564.258 897.306,566.333C898.517,567.372 899.395,568.549 899.946,569.704C899.867,568.989 899.786,568.356 899.704,567.83C899.362,565.666 899.912,563.17 901.307,561.091C902.587,559.183 904.53,557.699 906.581,557.07C910.432,555.849 913.264,557.1 915.374,559.663C917.323,562.029 918.186,567.112 918.451,569.558C918.637,571.146 918.869,576.173 919.079,579.597C919.533,579.582 919.988,579.573 920.446,579.573C922.343,579.573 924.325,579.664 926.223,579.911C927.05,579.921 928.396,579.969 929.263,580.187C930.386,580.471 931.268,580.969 931.9,581.475C932.177,581.696 932.434,581.942 932.667,582.209C932.899,582.473 933.11,582.758 933.301,583.06C934.746,581.888 936.314,580.832 938.013,580.005C938.06,579.982 938.107,579.96 938.155,579.939C941.605,578.37 944.755,577.735 948.757,579.577C952.256,581.099 954.149,583.93 955.154,587.112C955.163,587.139 955.171,587.167 955.18,587.195C957.03,593.362 954.995,599.106 951.544,603.671C950.2,605.46 948.65,606.972 946.891,608.255C947.791,608.756 948.658,609.547 949.377,610.84C951.166,613.969 950.827,617.15 948.782,620.054C946.406,623.429 940.366,626.174 937.782,626.461C937.562,626.485 937.341,626.497 937.12,626.497L936.785,626.497C933.007,626.497 929.13,625.533 925.73,622.888C925.605,622.791 925.484,622.689 925.368,622.583C922.236,619.723 920.898,615.204 920.744,611.822C920.447,607.62 921.126,603.717 922.354,599.922C922.674,598.887 923.015,597.85 923.389,596.823C922.136,597.081 920.869,597.301 919.745,597.484L919.745,599.646C919.745,606.466 919.521,614.852 916.539,621.127C913.873,627.236 904.896,627.599 901.77,621.342C900.466,618.73 900.303,614.603 900.677,611.83C900.837,610.154 900.99,606.96 901.098,601.949C899.562,602.073 897.624,601.754 895.862,600.854C895.963,602.824 896.13,604.79 896.403,606.748C896.699,608.59 897.299,611.176 897.299,613.378C897.299,617.326 896.129,620.483 892.184,622.654C892.078,622.713 891.971,622.768 891.861,622.82C889.568,623.907 887.267,623.776 885.083,622.623C883.82,621.957 882.548,620.659 881.548,619.39C880.386,620.603 878.879,621.285 877.193,621.54C875.041,621.864 872.421,621.157 870.85,620.241C869.584,619.503 868.138,618.085 866.986,616.091C866.579,615.388 866.191,614.596 865.832,613.787C865.611,614.851 865.384,615.91 865.134,616.956C865.12,617.017 865.104,617.078 865.087,617.139C864.534,619.167 863.165,621.537 861.217,622.925C859.656,624.259 858.075,624.713 856.659,624.794C854.85,624.897 853.076,624.365 851.479,623.093C850.218,622.088 848.972,620.365 848.102,618.411C847.137,616.244 846.59,613.858 846.487,613.038C846.473,612.923 846.462,612.808 846.454,612.693C846.362,611.306 846.357,609.92 846.357,608.441C846.357,607.68 846.357,606.934 846.363,606.195C846.021,607.144 845.639,608.075 845.211,608.983C845.177,609.056 845.141,609.128 845.104,609.199C843.988,611.34 842.85,613.559 841.383,615.6C839.529,618.387 835.911,621.171 831.735,620.574C831.706,620.569 831.677,620.565 831.648,620.56C828.554,620.072 825.013,617.318 823.548,615.2C823.528,615.171 823.508,615.142 823.488,615.113C822.894,614.221 822.378,613.277 821.884,612.353C821.452,613.251 821.005,614.146 820.569,615.054C820.524,615.148 820.477,615.24 820.427,615.331C819.924,616.252 819.672,617.09 819.169,618.011C819.084,618.167 818.992,618.319 818.894,618.467C818.322,619.324 817.535,620.046 816.914,620.725C814.921,623.669 812.237,626.129 808.071,625.994C804.175,625.931 801.553,623.155 799.9,620.05C799.783,619.83 799.679,619.603 799.591,619.37C798.24,615.831 798.026,612.099 798.026,608.352C798.026,608.352 798.026,604.712 798.027,604.72C797.868,603.034 797.858,601.421 797.858,599.724C797.858,597.044 798.026,594.615 798.026,592.018C798.026,590.559 798.037,589.173 797.891,587.788C797.878,587.664 797.869,587.541 797.864,587.417C797.609,581.469 797.523,575.436 797.523,569.318L797.523,565.381C797.523,563.757 798.121,561.698 799.283,559.965C800.518,558.126 802.327,556.747 804.048,556.172C804.164,556.134 804.282,556.098 804.4,556.067C806.4,555.532 808.503,555.858 810.415,557.143C812.294,558.406 813.929,561.045 814.497,562.779ZM889.291,617.398C890.965,616.477 891.299,615.053 891.299,613.378C891.299,611.451 890.714,609.189 890.462,607.598C889.793,602.823 889.709,597.965 889.709,593.107C889.709,591.18 889.207,589.254 887.533,587.997C885.441,586.573 884.688,588.919 884.437,590.762C883.935,593.861 883.684,597.128 883.349,600.227C883.014,603.075 883.433,605.839 883.684,608.519C883.851,610.53 884.353,612.624 885.358,614.383C886.111,615.639 887.701,618.152 889.291,617.398ZM803.858,587.16C804.026,588.751 804.026,590.343 804.026,592.018C804.026,594.615 803.858,597.044 803.858,599.724C803.858,601.316 803.858,602.823 804.026,604.415L804.026,608.352C804.026,611.367 804.109,614.383 805.196,617.231C805.865,618.487 806.618,619.995 808.206,619.995C810.214,620.079 811.22,618.487 812.143,617.063C812.646,616.477 813.4,615.89 813.903,615.137C814.406,614.215 814.657,613.378 815.16,612.456C816.166,610.362 817.256,608.352 818.011,606.174C819.436,601.818 821.029,597.798 822.37,593.861C822.537,598.468 823.542,603.075 825.886,607.179C826.723,608.603 827.477,610.278 828.482,611.786C829.235,612.875 830.993,614.383 832.584,614.634C834.342,614.885 835.681,613.378 836.435,612.205C837.774,610.362 838.779,608.352 839.784,606.425C842.547,600.562 843.049,593.609 843.3,587.244C843.384,584.228 843.551,581.296 843.551,578.281C843.551,574.344 843.384,570.323 843.384,566.387C843.384,564.879 842.547,554.325 838.947,556.251C837.774,556.754 837.44,558.764 837.188,559.937C836.937,561.361 837.523,562.617 837.774,563.957C838.034,565.633 838.201,567.392 838.201,569.067C838.201,570.826 838.034,572.669 838.034,574.344C838.032,578.7 837.279,582.888 837.028,587.244C836.945,590.845 836.526,594.363 835.939,597.798C835.688,599.305 835.353,600.813 834.682,602.321C834.347,603.158 833.677,605.001 832.839,605.671C831.498,606.76 830.492,604.247 829.822,603.326C828.984,601.399 828.565,599.975 828.062,598.049C826.973,593.191 826.386,588.584 826.219,583.893C825.968,579.705 826.722,575.684 827.476,571.747C827.727,570.323 827.643,568.816 826.219,568.313C825.465,568.062 824.878,567.894 824.375,568.229C823.873,568.313 822.867,569.486 822.616,569.821C821.862,570.994 821.778,572.836 821.526,574.177C821.275,575.6 821.107,577.024 820.772,578.448C819.934,581.883 819.18,585.652 818.258,589.086C817.169,593.693 815.661,597.211 814.32,600.897C813.65,602.907 812.896,604.75 811.806,606.509C811.052,607.765 810.801,609.273 809.795,610.362C809.544,607.933 809.46,605.504 809.46,603.075C809.46,599.222 809.711,595.369 809.963,591.515C810.214,584.647 809.46,577.778 809.209,571.077C809.042,568.983 809.46,566.638 808.791,564.628C808.54,563.622 807.203,561.528 805.949,561.863C804.695,562.282 803.523,564.125 803.523,565.381L803.523,569.318C803.523,575.349 803.607,581.296 803.858,587.16ZM894.647,572.589C894.145,570.665 890.128,568.658 888.287,568.491C886.194,568.407 884.688,569.244 885.19,571.502C885.776,573.342 888.621,574.512 890.379,575.014C891.885,575.265 895.149,575.014 894.647,572.589ZM877.559,614.639C878.062,613.634 877.057,611.959 876.721,610.954C876.219,609.278 875.8,607.603 875.465,605.844C874.627,601.823 874.209,597.635 873.622,593.531C873.12,590.516 873.203,587.333 871.361,584.82C868.261,581.05 864.66,585.573 862.817,588.254C861.309,590.516 859.801,592.861 858.545,595.374C858.545,590.516 858.545,585.825 858.294,580.967C858.043,577.365 858.294,573.763 857.96,570.161C857.792,568.151 857.458,565.805 856.287,564.13C855.284,562.958 853.361,561.282 851.854,562.539C850.765,563.544 851.184,565.554 851.436,566.811C851.854,569.24 851.436,571.753 851.687,574.266C851.938,576.192 852.189,578.202 852.357,580.045C852.441,584.317 852.692,588.505 852.692,592.61C852.692,596.128 852.608,599.646 852.441,603.08C852.357,604.839 852.357,606.598 852.357,608.441C852.357,609.781 852.357,611.037 852.441,612.294C852.608,613.634 854.699,621.005 857.542,618.157C858.545,617.738 859.048,616.482 859.299,615.561C861.142,607.854 862.147,599.646 867.34,593.112C867.508,596.128 868.094,599.227 868.848,602.075L869.602,606.598C870.02,608.189 871.947,614.053 873.874,615.058C874.879,615.644 876.973,616.147 877.559,614.639ZM927.984,588.673C928.487,588.17 928.738,586.83 928.152,586.16C927.733,585.825 926.309,585.909 925.806,585.909C924.047,585.657 922.205,585.573 920.446,585.573C918.1,585.573 915.839,585.825 913.494,586.076C913.494,585.071 913.326,584.066 913.326,583.061C913.076,580.799 912.741,572.339 912.49,570.245C912.239,567.9 911.821,561.701 908.392,562.79C906.719,563.293 905.379,565.303 905.63,566.894C906.3,571.166 906.887,582.307 907.138,586.914C904.541,587.584 902.028,588.505 899.683,589.51C898.091,590.264 896.081,591.437 896.835,593.782C897.338,595.122 899.515,596.211 900.688,595.96C901.442,595.793 901.945,594.871 902.531,594.536C903.787,593.866 905.546,593.363 907.222,593.112C907.138,603.918 906.887,610.032 906.635,612.545C906.384,614.304 906.3,616.985 907.138,618.66C907.974,620.335 910.399,620.335 911.069,618.66C913.745,613.131 913.745,605.677 913.745,599.646L913.745,592.275C914.247,592.275 914.834,592.275 915.42,592.107C917.681,591.688 926.644,590.683 927.984,588.673ZM949.433,588.919C948.93,587.327 948.093,585.82 946.334,585.066C944.156,584.061 942.48,584.563 940.638,585.401C937.538,586.908 935.026,589.421 932.932,591.767C930.419,594.615 929.162,598.216 928.073,601.734C927.068,604.834 926.482,608.017 926.733,611.451C926.817,613.545 927.487,616.393 929.413,618.152C931.675,619.911 934.272,620.497 936.785,620.497L937.12,620.497C939.381,620.246 945.999,616.979 944.156,613.796C943.653,612.875 942.899,613.88 941.894,614.131C939.8,615.137 936.785,615.807 934.691,614.048C932.764,612.54 933.518,609.022 933.267,607.179C934.188,607.179 935.026,607.179 935.779,607.095C938.544,606.593 940.051,605.588 942.229,604.164C943.988,603.075 945.496,601.734 946.752,600.059C949.098,596.96 950.689,593.107 949.433,588.919ZM943.402,596.374C940.554,600.311 935.528,603.242 933.769,603.326C933.769,603.326 934.691,595.369 942.732,590.008C942.732,590.008 946.25,592.353 943.402,596.374ZM1015.14,565.018C1016.75,563.42 1019.21,562.372 1022.3,562.496C1022.4,562.5 1022.5,562.507 1022.6,562.516C1024.72,562.708 1028.66,564.258 1031.08,566.333C1032.77,567.79 1033.82,569.518 1034.22,571.074C1034.25,571.172 1034.27,571.272 1034.29,571.371C1035.15,575.499 1033.37,578.116 1030.6,579.739C1028.46,580.99 1025.14,581.262 1023.16,580.932C1022.94,580.895 1022.72,580.846 1022.5,580.784C1020.57,580.232 1017.85,579.068 1016.05,577.488C1016,577.447 1015.96,577.405 1015.91,577.363C1015.67,579.555 1015.29,581.743 1014.8,583.913C1015.68,582.962 1016.72,582.304 1017.87,581.924C1019.64,581.334 1021.95,581.183 1024.68,583.037C1024.76,583.089 1024.83,583.143 1024.9,583.199C1027.39,585.063 1028.73,587.601 1029.24,590.362C1029.26,590.105 1029.29,589.852 1029.32,589.602C1029.71,586.917 1030.68,584.475 1033.04,582.278C1033.09,582.236 1033.13,582.194 1033.18,582.154C1035.83,579.832 1039.86,579.346 1042.84,581.308C1043.51,581.745 1044.13,582.208 1044.68,582.704C1045.91,581.585 1047.25,580.51 1048.65,579.647C1051.33,577.994 1054.26,577.075 1057.23,577.243C1057.26,577.245 1057.29,577.247 1057.32,577.249C1060.38,577.467 1062.73,579.332 1063.77,581.819C1064.75,581.142 1065.77,580.528 1066.84,580.005C1066.89,579.982 1066.93,579.96 1066.98,579.939C1070.43,578.37 1073.58,577.735 1077.58,579.577C1081.08,581.099 1082.98,583.93 1083.98,587.112C1083.99,587.139 1084,587.167 1084.01,587.195C1084.09,587.47 1084.16,587.745 1084.23,588.018C1085.71,585.759 1087.62,583.471 1089.74,581.743C1092.78,579.258 1096.27,577.928 1099.61,578.159C1100.05,578.188 1100.48,578.265 1100.89,578.388C1101.93,578.694 1103.04,578.86 1103.98,579.24C1105.52,579.858 1106.84,580.798 1107.85,582.211C1108.4,582.922 1108.85,583.735 1109.2,584.606C1109.53,584.421 1109.87,584.248 1110.21,584.088C1110.28,584.056 1110.34,584.025 1110.41,583.995C1111.57,583.5 1112.76,583.023 1113.98,582.582C1113.7,577.502 1113.27,570.867 1112.8,567.83C1112.45,565.666 1113.01,563.17 1114.4,561.091C1115.68,559.183 1117.62,557.699 1119.67,557.07C1123.53,555.849 1126.36,557.1 1128.47,559.663C1130.41,562.029 1131.28,567.112 1131.54,569.558C1131.73,571.146 1131.96,576.173 1132.17,579.597C1132.62,579.582 1133.08,579.573 1133.54,579.573C1135.44,579.573 1137.42,579.664 1139.32,579.911C1140.14,579.921 1141.49,579.969 1142.36,580.187C1143.48,580.471 1144.36,580.969 1144.99,581.475C1145.27,581.696 1145.53,581.942 1145.76,582.209C1145.83,582.291 1145.9,582.375 1145.97,582.461C1146.36,582.244 1146.77,582.065 1147.2,581.924C1148.97,581.334 1151.28,581.183 1154.01,583.037C1154.09,583.089 1154.16,583.143 1154.23,583.199C1157.52,585.668 1158.81,589.321 1158.81,593.107C1158.81,595.046 1158.82,596.985 1158.88,598.921C1158.92,598.834 1158.95,598.748 1158.99,598.661C1159.6,596.875 1160.46,595.348 1161.38,593.717C1161.98,592.584 1162.43,591.296 1163.04,590.257C1163.05,590.236 1163.06,590.214 1163.07,590.193C1164.21,588.297 1166.02,586.691 1167.66,585.427C1167.86,585.273 1168.07,585.132 1168.27,584.969C1168.31,584.883 1168.36,584.797 1168.38,584.735C1168.5,584.513 1168.62,584.297 1168.76,584.09C1170.76,581.1 1173.84,578.839 1178.83,580.334C1178.92,580.362 1179.01,580.391 1179.1,580.424C1181.83,581.388 1184.14,583.772 1185.88,586.216C1186.3,585.147 1186.99,584.155 1187.95,583.314C1189.11,582.301 1190.9,581.488 1192.48,581.093C1192.6,581.064 1192.71,581.039 1192.83,581.017C1196.46,580.335 1198.9,581.504 1200.61,583.591C1201.02,583.106 1201.48,582.564 1202.03,581.929C1202.13,581.809 1202.24,581.694 1202.35,581.582C1203.21,580.714 1205.38,579.33 1207.66,578.636C1209.56,578.063 1211.48,577.974 1212.91,578.293C1213.2,578.358 1213.49,578.444 1213.77,578.551C1216.13,579.462 1217.32,580.849 1218.41,582.452C1220.25,584.787 1220.42,588.028 1219.8,590.615C1219.36,592.562 1218.92,594.371 1218.68,596.39C1218.62,598.77 1218.84,600.927 1218.69,603.336C1218.63,605.01 1218.95,606.959 1219.09,608.697C1219.1,608.772 1219.1,608.847 1219.11,608.922C1219.18,610.574 1219.08,611.926 1219.31,613.577C1219.33,613.704 1219.34,613.832 1219.35,613.96C1219.5,616.012 1219.83,617.621 1219.1,619.673C1218.98,620.005 1218.83,620.325 1218.66,620.631C1217.55,622.576 1216.12,624.87 1212.34,625.213C1208.8,625.646 1205.76,623.735 1204.09,620.777C1203.4,619.641 1202.85,618.477 1202.41,617.294C1202.2,617.878 1202.07,618.484 1201.89,619.047C1201.84,619.204 1201.78,619.36 1201.71,619.512C1201.11,620.925 1199.65,623.138 1197.97,624.237C1197.4,624.59 1196.39,625.053 1195.12,625.313C1193.52,625.642 1191.23,625.71 1190.49,625.604C1190.36,625.585 1190.22,625.561 1190.09,625.532C1186.46,624.754 1184.42,621.883 1183.64,619.552C1183.6,619.436 1183.57,619.319 1183.54,619.201C1183.36,618.521 1183.28,617.836 1183.29,617.159C1182.36,618.141 1181.39,619.061 1180.38,619.908C1176.1,623.709 1170.6,627.155 1164.15,626.463C1164.09,626.457 1164.04,626.451 1163.98,626.443C1160.4,625.958 1158.03,624.229 1156.62,621.805C1156.21,622.103 1155.77,622.386 1155.28,622.654C1155.18,622.713 1155.07,622.768 1154.96,622.82C1152.67,623.907 1150.37,623.776 1148.18,622.623C1146.24,621.598 1144.28,619.079 1143.31,617.468C1143.29,617.431 1143.27,617.394 1143.25,617.357C1141.82,614.861 1141.05,611.908 1140.81,609.043C1140.52,605.979 1140.11,602.817 1140.49,599.563C1140.62,598.275 1140.75,596.96 1140.88,595.64C1140.6,595.749 1140.3,595.853 1139.99,595.949C1137.86,596.615 1135.07,597.121 1132.84,597.484L1132.84,599.646C1132.84,606.466 1132.61,614.852 1129.63,621.127C1126.97,627.236 1117.99,627.599 1114.86,621.342C1113.56,618.73 1113.39,614.603 1113.77,611.83C1113.93,610.154 1114.08,606.96 1114.19,601.949C1112.59,602.077 1110.56,601.727 1108.75,600.744C1108.4,600.557 1108.07,600.35 1107.75,600.127C1107.52,600.526 1107.26,600.91 1106.98,601.275C1106.88,601.402 1106.78,601.525 1106.68,601.644C1105.18,603.303 1102.25,604.591 1099.68,604.419C1098.52,604.341 1097.44,604.041 1096.5,603.53C1095.68,605.535 1095.15,607.751 1094.97,609.773C1096.58,608.922 1098.45,607.908 1099.18,607.411C1099.23,607.377 1099.28,607.343 1099.33,607.31C1103.12,604.898 1108.95,605.674 1111.02,611.187C1111.11,611.434 1111.19,611.687 1111.25,611.945C1111.92,614.879 1110.53,618.207 1108.76,620.165C1108.75,620.173 1108.74,620.181 1108.74,620.19C1106.29,623.124 1102.74,625.064 1099.66,626.953L1099.65,626.957C1097.33,628.376 1093.84,629.513 1090.74,629.513C1087.54,629.513 1085.07,628.539 1082.95,626.466C1080.81,624.519 1079.29,621.858 1078.3,618.937C1078.1,619.314 1077.87,619.686 1077.61,620.054C1075.23,623.429 1069.19,626.174 1066.61,626.461C1066.39,626.485 1066.17,626.497 1065.95,626.497L1065.61,626.497C1061.83,626.497 1057.96,625.533 1054.56,622.888C1054.43,622.791 1054.31,622.689 1054.19,622.583C1051.06,619.723 1049.73,615.204 1049.57,611.822C1049.36,608.785 1049.65,605.905 1050.3,603.108C1049.83,603.779 1049.55,604.297 1049.44,604.643C1049.42,604.683 1049.41,604.723 1049.39,604.763C1048.65,606.842 1047.23,609.037 1046.79,611.338C1046.72,611.684 1046.62,612.023 1046.5,612.352C1046.35,612.735 1046.37,613.167 1046.38,613.609C1046.37,614.531 1046.21,615.722 1046.14,616.187C1046.12,618.348 1045.91,620.227 1045.09,622.004C1045.06,622.061 1045.04,622.117 1045.01,622.173C1043.13,625.931 1039.43,628.272 1035.41,626.788C1034.42,626.501 1033.48,626.033 1032.82,625.527C1030.81,624.363 1029.59,622.918 1028.79,621.376C1028.69,621.174 1028.59,620.968 1028.5,620.759C1027.82,621.455 1026.98,622.088 1025.95,622.654C1025.85,622.713 1025.74,622.768 1025.63,622.82C1023.34,623.907 1021.04,623.776 1018.85,622.623C1016.91,621.598 1014.95,619.079 1013.98,617.468C1013.96,617.431 1013.94,617.394 1013.92,617.357C1013.9,617.328 1013.88,617.299 1013.87,617.27C1013.47,619.011 1012.39,620.908 1011.54,621.891L1011.61,621.811C1009.3,624.512 1006.01,625.291 1002.93,624.615C1000.17,624.013 997.765,622.13 996.628,620.084C996.13,619.194 995.639,618.276 995.184,617.338C992.067,620.111 988.634,622.386 984.998,623.598C984.908,623.628 984.817,623.656 984.726,623.682C979.351,625.194 973.88,622.569 971.196,617.864C969.644,615.143 968.986,612.296 968.986,609.446C968.986,603.604 971.769,597.692 974.951,593.23C974.963,593.213 974.975,593.196 974.987,593.18C978.049,588.979 983.271,583.743 988.834,582.835C988.901,582.824 988.967,582.814 989.033,582.806C990.019,582.679 990.986,582.663 991.932,582.748C992.719,578.732 993.74,574.785 994.633,571.581C995.129,569.658 995.924,566.935 997.162,564.606C998.353,562.368 999.961,560.484 1001.87,559.294C1001.95,559.239 1002.04,559.187 1002.13,559.137C1006.42,556.754 1011.68,559.239 1014.06,562.812C1014.12,562.901 1014.17,562.99 1014.23,563.082C1014.59,563.695 1014.89,564.344 1015.14,565.018ZM1011.61,610.216C1011.55,609.824 1011.51,609.433 1011.48,609.043C1011.19,605.979 1010.78,602.817 1011.15,599.563C1011.33,597.9 1011.49,596.191 1011.68,594.487C1011.49,595.022 1011.3,595.554 1011.1,596.084C1011.09,596.113 1011.08,596.141 1011.07,596.17C1010.77,596.953 1010.36,597.844 1009.96,598.76C1009.75,599.247 1009.43,599.714 1009.37,600.165C1009.42,602.039 1010.1,604.15 1010.44,606.008C1010.46,606.102 1010.48,606.196 1010.49,606.29C1010.67,607.626 1011.05,608.779 1011.53,610.047L1011.61,610.216ZM1076.9,609.123C1076.92,608.48 1076.96,607.847 1077.02,607.23C1076.6,607.587 1076.17,607.928 1075.72,608.255C1076.12,608.48 1076.52,608.762 1076.9,609.123ZM1011.27,609.9C1011.25,609.873 1011.23,609.846 1011.21,609.821C1011.05,609.667 1010.89,609.524 1010.89,609.524C1010.89,609.524 1011.04,609.665 1011.27,609.9ZM1010.16,573.847C1010.32,571.418 1010.41,568.402 1009.07,566.141C1008.23,564.884 1006.55,563.544 1005.05,564.382C1002.37,566.057 1001.11,570.496 1000.44,573.093C999.015,578.202 997.256,585.155 996.754,591.186C994.743,589.51 992.398,588.421 989.801,588.756C985.697,589.427 982.095,593.615 979.836,596.714C977.327,600.232 974.986,604.839 974.986,609.446C974.986,611.289 975.404,613.131 976.407,614.89C977.745,617.236 980.421,618.66 983.1,617.906C988.88,615.979 993.906,610.702 997.842,605.593C998.094,607.101 998.513,608.692 999.015,610.451C999.518,612.796 1000.69,615.058 1001.86,617.152C1002.7,618.66 1005.55,619.665 1007.06,617.906C1007.56,617.403 1008.31,615.812 1007.98,615.058C1007.81,614.555 1007.22,614.388 1006.81,613.885C1006.47,613.55 1006.22,612.88 1005.97,612.294C1005.3,610.535 1004.8,608.943 1004.54,607.101C1004.12,604.839 1003.37,602.242 1003.37,599.981C1003.46,598.138 1004.8,595.793 1005.47,594.034C1007.81,587.584 1009.9,580.715 1010.16,573.847ZM991.141,604.923C988.629,608.022 985.446,610.032 982.346,612.378C981.592,611.205 981.341,609.781 981.341,608.441C981.341,605.174 983.1,601.991 984.943,599.394C986.283,597.635 988.042,596.63 990.053,595.29C991.141,594.536 991.309,594.62 992.482,595.374C993.487,595.96 994.492,596.965 995.497,597.384C996,597.468 996.418,597.468 996.837,597.217L996.837,597.887C994.659,599.981 992.9,602.829 991.141,604.923ZM1023.06,617.398C1024.73,616.477 1025.07,615.053 1025.07,613.378C1025.07,611.451 1024.48,609.189 1024.23,607.598C1023.56,602.823 1023.48,597.965 1023.48,593.107C1023.48,591.18 1022.98,589.254 1021.3,587.997C1019.21,586.573 1018.46,588.919 1018.21,590.762C1017.7,593.861 1017.45,597.128 1017.12,600.227C1016.78,603.075 1017.2,605.839 1017.45,608.519C1017.62,610.53 1018.12,612.624 1019.13,614.383C1019.88,615.639 1021.47,618.152 1023.06,617.398ZM1078.26,588.919C1077.76,587.327 1076.92,585.82 1075.16,585.066C1072.98,584.061 1071.31,584.563 1069.46,585.401C1066.37,586.908 1063.85,589.421 1061.76,591.767C1059.25,594.615 1057.99,598.216 1056.9,601.734C1055.89,604.834 1055.31,608.017 1055.56,611.451C1055.64,613.545 1056.31,616.393 1058.24,618.152C1060.5,619.911 1063.1,620.497 1065.61,620.497L1065.95,620.497C1068.21,620.246 1074.83,616.979 1072.98,613.796C1072.48,612.875 1071.73,613.88 1070.72,614.131C1068.63,615.137 1065.61,615.807 1063.52,614.048C1061.59,612.54 1062.35,609.022 1062.09,607.179C1063.02,607.179 1063.85,607.179 1064.61,607.095C1067.37,606.593 1068.88,605.588 1071.06,604.164C1072.82,603.075 1074.32,601.734 1075.58,600.059C1077.92,596.96 1079.52,593.107 1078.26,588.919ZM1072.23,596.374C1069.38,600.311 1064.36,603.242 1062.6,603.326C1062.6,603.326 1063.52,595.369 1071.56,590.008C1071.56,590.008 1075.08,592.353 1072.23,596.374ZM1058.15,585.662C1058.65,584.573 1058.07,583.317 1056.89,583.233C1052.46,582.982 1048.35,587.337 1045.59,590.267C1044,592.026 1042.4,593.868 1040.9,595.627C1040.98,593.617 1041.15,591.524 1041.4,589.43C1041.65,587.923 1040.73,587.085 1039.56,586.332C1038.81,585.829 1037.8,586.08 1037.13,586.667C1034.71,588.928 1035.29,591.775 1034.96,594.873C1034.71,596.38 1034.46,598.139 1034.46,599.646C1034.54,602.745 1034.29,605.843 1034.29,608.941L1034.29,611.286C1034.21,612.124 1033.95,613.631 1033.79,614.552C1033.45,617.148 1033.54,619.241 1036.3,620.581C1036.38,620.749 1036.88,621.084 1037.3,621.084C1038.39,621.586 1039.14,620.498 1039.64,619.493C1040.14,618.404 1040.14,617.232 1040.14,615.892C1040.14,615.306 1040.48,614.385 1040.39,613.631C1040.48,612.542 1040.48,611.286 1040.9,610.198C1041.4,607.602 1042.91,605.089 1043.74,602.745C1044,601.991 1044.58,600.735 1045.76,599.144C1046.76,597.888 1047.35,596.38 1049.11,594.371C1051.2,591.942 1053.46,590.016 1055.97,588.174C1056.64,587.42 1057.82,586.667 1058.15,585.662ZM1028.42,572.589C1027.91,570.665 1023.9,568.658 1022.06,568.491C1019.96,568.407 1018.46,569.244 1018.96,571.502C1019.55,573.342 1022.39,574.512 1024.15,575.014C1025.65,575.265 1028.92,575.014 1028.42,572.589ZM1141.08,588.673C1141.58,588.17 1141.83,586.83 1141.24,586.16C1140.83,585.825 1139.4,585.909 1138.9,585.909C1137.14,585.657 1135.3,585.573 1133.54,585.573C1131.19,585.573 1128.93,585.825 1126.59,586.076C1126.59,585.071 1126.42,584.066 1126.42,583.061C1126.17,580.799 1125.83,572.339 1125.58,570.245C1125.33,567.9 1124.91,561.701 1121.49,562.79C1119.81,563.293 1118.47,565.303 1118.72,566.894C1119.39,571.166 1119.98,582.307 1120.23,586.914C1117.63,587.584 1115.12,588.505 1112.78,589.51C1111.18,590.264 1109.17,591.437 1109.93,593.782C1110.43,595.122 1112.61,596.211 1113.78,595.96C1114.53,595.793 1115.04,594.871 1115.62,594.536C1116.88,593.866 1118.64,593.363 1120.31,593.112C1120.23,603.918 1119.98,610.032 1119.73,612.545C1119.48,614.304 1119.39,616.985 1120.23,618.66C1121.07,620.335 1123.49,620.335 1124.16,618.66C1126.84,613.131 1126.84,605.677 1126.84,599.646L1126.84,592.275C1127.34,592.275 1127.93,592.275 1128.51,592.107C1130.77,591.688 1139.74,590.683 1141.08,588.673ZM1184.05,603.75C1184.3,602.494 1184.38,600.987 1184.38,599.647C1184.38,597.218 1184.05,595.041 1182.88,592.864C1181.79,590.687 1179.95,587.086 1177.1,586.081C1175.43,585.579 1174.42,586.416 1173.75,587.421C1173.5,587.924 1173.25,588.51 1172.83,588.928C1172.33,589.431 1171.82,589.766 1171.32,590.184C1170.23,591.022 1168.97,592.027 1168.22,593.283C1167.63,594.288 1167.21,595.544 1166.62,596.632C1165.87,597.972 1165.12,599.228 1164.62,600.735C1163.28,604.085 1161.69,607.183 1161.27,610.951C1161.19,611.956 1160.94,613.296 1160.94,614.636C1160.94,617.399 1161.69,620.079 1164.79,620.497C1169.48,621 1173.33,618.153 1176.43,615.389C1180.03,612.375 1183.3,608.272 1184.05,603.75ZM1175.18,609.025C1174.09,610.281 1172.83,611.537 1171.32,612.542C1169.98,613.547 1168.22,614.05 1166.96,615.054C1165.96,612.04 1167.21,608.774 1168.38,606.095C1169.22,603.917 1170.23,601.74 1171.32,599.647C1171.99,598.642 1172.83,597.637 1173.5,596.632C1174.09,595.879 1174.84,595.125 1175.34,594.371C1175.6,593.785 1175.85,593.115 1175.93,592.529C1176.94,593.618 1177.36,595.125 1177.94,596.381C1178.53,597.972 1178.78,599.647 1178.53,601.238C1178.19,604.169 1177.36,606.681 1175.18,609.025ZM1196.95,593.112C1196.95,591.688 1197.03,589.762 1196.53,588.254C1196.03,587.333 1195.27,586.662 1193.94,586.914C1192.93,587.165 1191.68,587.668 1191.43,588.505C1190.93,589.762 1191.09,591.018 1191.09,592.358C1190.93,594.285 1191.09,596.128 1190.84,597.97C1190.59,600.064 1190.67,602.326 1190.67,604.42C1190.59,606.179 1190.59,608.022 1190.59,609.781C1190.42,611.289 1190.09,612.629 1189.84,614.053C1189.59,615.142 1189,616.398 1189.34,617.655C1189.59,618.409 1190.17,619.414 1191.34,619.665C1191.93,619.749 1194.27,619.497 1194.77,619.162C1195.44,618.744 1195.94,617.738 1196.19,617.152C1196.53,616.147 1196.78,615.058 1197.28,614.053C1197.79,612.796 1198.12,611.037 1198.54,609.781C1198.79,608.776 1199.63,606.682 1200.64,604.671C1201.56,602.577 1202.23,601.321 1203.4,599.394C1203.99,597.97 1206.09,595.374 1207.01,594.285C1206.84,596.881 1207.01,599.729 1206.76,601.488C1206.51,603.75 1206.59,606.347 1206.76,608.692C1207.01,611.791 1207.51,614.89 1209.27,617.738C1209.77,618.66 1210.6,619.414 1211.69,619.246C1212.86,619.162 1213.11,618.241 1213.45,617.655C1213.87,616.482 1213.45,615.561 1213.36,614.388C1213.11,612.545 1213.2,611.037 1213.11,609.195C1212.95,607.184 1212.61,604.923 1212.69,602.996C1212.86,600.567 1212.61,598.389 1212.69,595.96C1212.95,593.615 1213.45,591.521 1213.95,589.259C1214.2,588.254 1214.45,586.914 1213.62,586.076C1213.11,585.322 1212.69,584.568 1211.61,584.15C1210.1,583.814 1207.34,585.071 1206.59,585.825C1204.16,588.673 1203.4,589.51 1201.56,592.107C1200.55,593.615 1199.88,594.536 1199.04,596.128C1198.29,597.217 1197.45,599.143 1196.95,600.232C1196.7,598.724 1196.78,598.976 1196.95,597.468C1197.03,596.128 1196.95,594.62 1196.95,593.112ZM1104.23,616.225C1104.9,615.555 1105.65,614.383 1105.4,613.294C1104.9,611.954 1103.47,611.786 1102.55,612.372C1100.46,613.796 1094.76,617.482 1092.16,617.147C1090.91,616.979 1090.24,615.974 1089.74,615.053C1088.98,613.629 1088.9,612.54 1088.9,611.283C1088.9,607.682 1089.9,603.242 1091.66,599.64C1092.75,597.463 1093.59,595.536 1095.1,593.526C1095.77,592.772 1098.87,589.756 1098.87,589.756L1098.87,591.767C1098.87,592.772 1098.95,593.777 1098.87,594.866C1098.87,595.62 1098.36,596.96 1098.87,597.714C1099.45,598.887 1101.46,598.468 1102.22,597.63C1103.31,596.206 1103.72,594.28 1104.06,592.604C1104.48,590.678 1104.56,587.579 1103.05,585.82C1102.22,584.563 1100.62,584.563 1099.2,584.144C1094.34,583.809 1089.4,590.175 1087.56,594.363C1085.38,598.635 1083.7,602.321 1083.03,607.43C1082.45,612.289 1083.29,618.738 1087.06,622.089C1088.06,623.094 1089.23,623.513 1090.74,623.513C1092.75,623.513 1095.01,622.759 1096.52,621.838C1099.12,620.246 1102.22,618.738 1104.23,616.225ZM1152.39,617.398C1154.06,616.477 1154.4,615.053 1154.4,613.378C1154.4,611.451 1153.81,609.189 1153.56,607.598C1152.89,602.823 1152.81,597.965 1152.81,593.107C1152.81,591.18 1152.31,589.254 1150.63,587.997C1148.54,586.573 1147.79,588.919 1147.54,590.762C1147.03,593.861 1146.78,597.128 1146.45,600.227C1146.11,603.075 1146.53,605.839 1146.78,608.519C1146.95,610.53 1147.45,612.624 1148.46,614.383C1149.21,615.639 1150.8,618.152 1152.39,617.398ZM1163.62,571.371C1164.48,575.499 1162.7,578.116 1159.93,579.739C1157.79,580.99 1154.47,581.262 1152.49,580.932C1152.27,580.895 1152.05,580.846 1151.83,580.784C1149.9,580.232 1147.18,579.068 1145.38,577.488C1144.01,576.29 1143.06,574.855 1142.57,573.322C1142.52,573.152 1142.47,572.979 1142.43,572.804C1141.75,569.752 1142.53,567.527 1143.71,565.904C1145.23,563.822 1148,562.351 1151.63,562.496C1151.73,562.5 1151.83,562.507 1151.93,562.516C1154.05,562.708 1157.99,564.258 1160.4,566.333C1162.1,567.79 1163.14,569.518 1163.55,571.074C1163.58,571.172 1163.6,571.272 1163.62,571.371ZM1157.75,572.589C1157.24,570.665 1153.23,568.658 1151.39,568.491C1149.29,568.407 1147.79,569.244 1148.29,571.502C1148.88,573.342 1151.72,574.512 1153.48,575.014C1154.98,575.265 1158.25,575.014 1157.75,572.589Z" style="fill:white;"/></g><g transform="matrix(1.0262,0,0,1,-33.0136,-5.68434e-14)"><g transform="matrix(0.974468,-0,-0,1,32.1707,5.68434e-14)"><path d="M1207.93,1055L1252.93,1100L1207.93,1145" style="fill:none;stroke:rgb(128,128,128);stroke-width:10px;stroke-linejoin:miter;stroke-miterlimit:10;"/><path d="M1249.74,200L634.017,200C264.685,202.398 96.958,341.723 90.131,650C84.917,885.415 235.401,1098.62 634.017,1100L1252.93,1100" style="fill:none;stroke:rgb(128,128,128);stroke-width:10px;"/></g><g transform="matrix(0.974468,-0,-0,1,32.1707,5.68434e-14)"><path d="M1207.93,1055L1252.93,1100L1207.93,1145" style="fill:none;stroke:rgb(128,128,128);stroke-width:10px;stroke-linejoin:miter;stroke-miterlimit:10;"/><path d="M1249.74,200L634.017,200C264.685,202.398 96.958,341.723 90.131,650C84.917,885.415 235.401,1098.62 634.017,1100L1252.93,1100" style="fill:none;stroke:rgb(128,128,128);stroke-width:10px;"/></g></g><g transform="matrix(0.964805,1.07413e-18,-9.36274e-19,-0.833333,44.3462,1186.67)"><g transform="matrix(1.03648,1.33598e-18,-1.16451e-18,-1.2,-45.9639,1424)"><path d="M1207.93,225L1252.93,270L1207.93,315" style="fill:none;stroke:rgb(38,38,38);stroke-width:10px;stroke-linejoin:miter;stroke-miterlimit:10;"/><path d="M1250.35,1020L671.469,1020C324.234,1018 166.542,901.898 160.123,645C155.221,448.821 296.702,271.15 671.469,270L1252.93,270" style="fill:none;stroke:rgb(38,38,38);stroke-width:10px;"/></g><g transform="matrix(1.03648,1.33598e-18,-1.16451e-18,-1.2,-45.9639,1424)"><path d="M1207.93,225L1252.93,270L1207.93,315" style="fill:none;stroke:rgb(38,38,38);stroke-width:10px;stroke-linejoin:miter;stroke-miterlimit:10;"/><path d="M1250.35,1020L671.469,1020C324.234,1018 166.542,901.898 160.123,645C155.221,448.821 296.702,271.15 671.469,270L1252.93,270" style="fill:none;stroke:rgb(38,38,38);stroke-width:10px;"/></g></g></g></svg>