<?xml version="1.0" encoding="UTF-8" standalone="no"?><!DOCTYPE svg PUBLIC "-//W3C//DTD SVG 1.1//EN" "http://www.w3.org/Graphics/SVG/1.1/DTD/svg11.dtd"><svg width="1400px" height="1200px" version="1.1" xmlns="http://www.w3.org/2000/svg" xmlns:xlink="http://www.w3.org/1999/xlink" xml:space="preserve" xmlns:serif="http://www.serif.com/" style="fill-rule:evenodd;clip-rule:evenodd;stroke-linecap:round;stroke-linejoin:round;stroke-miterlimit:1.5;"><g><path d="M1350,45l-100,0l50,500l50,-500Z" style="fill:#c33;stroke:#000;stroke-width:1px;"/><path d="M1250,45l-100,0l50,500l50,-500Z" style="fill:#40bf7c;stroke:#000;stroke-width:1px;"/><path d="M1150,45l-100,0l50,500l50,-500Z" style="fill:#c33;stroke:#000;stroke-width:1px;"/><path d="M1050,45l-100,0l50,500l50,-500Z" style="fill:#40bf7c;stroke:#000;stroke-width:1px;"/><path d="M950,45l-100,0l50,500l50,-500Z" style="fill:#c33;stroke:#000;stroke-width:1px;"/><path d="M850,45l-100,0l50,500l50,-500Z" style="fill:#40bf7c;stroke:#000;stroke-width:1px;"/><path d="M650,45l-100,-0l50,500l50,-500Z" style="fill:#c33;stroke:#000;stroke-width:1px;"/><path d="M550,45l-100,-0l50,500l50,-500Z" style="fill:#40bf7c;stroke:#000;stroke-width:1px;"/><path d="M450,45l-100,-0l50,500l50,-500Z" style="fill:#c33;stroke:#000;stroke-width:1px;"/><path d="M350,45l-100,-0l50,500l50,-500Z" style="fill:#40bf7c;stroke:#000;stroke-width:1px;"/><path d="M250,45l-100,-0l50,500l50,-500Z" style="fill:#c33;stroke:#000;stroke-width:1px;"/><path d="M150,45l-100,-0l50,500l50,-500Z" style="fill:#40bf7c;stroke:#000;stroke-width:1px;"/></g><g><path d="M50,1145l100,0l-50,-500l-50,500Z" style="fill:#c33;stroke:#000;stroke-width:1px;"/><path d="M150,1145l100,0l-50,-500l-50,500Z" style="fill:#40bf7c;stroke:#000;stroke-width:1px;"/><path d="M250,1145l100,0l-50,-500l-50,500Z" style="fill:#c33;stroke:#000;stroke-width:1px;"/><path d="M350,1145l100,0l-50,-500l-50,500Z" style="fill:#40bf7c;stroke:#000;stroke-width:1px;"/><path d="M450,1145l100,0l-50,-500l-50,500Z" style="fill:#c33;stroke:#000;stroke-width:1px;"/><path d="M550,1145l100,0l-50,-500l-50,500Z" style="fill:#40bf7c;stroke:#000;stroke-width:1px;"/><path d="M750,1145l100,0l-50,-500l-50,500Z" style="fill:#c33;stroke:#000;stroke-width:1px;"/><path d="M850,1145l100,0l-50,-500l-50,500Z" style="fill:#40bf7c;stroke:#000;stroke-width:1px;"/><path d="M950,1145l100,0l-50,-500l-50,500Z" style="fill:#c33;stroke:#000;stroke-width:1px;"/><path d="M1050,1145l100,0l-50,-500l-50,500Z" style="fill:#40bf7c;stroke:#000;stroke-width:1px;"/><path d="M1150,1145l100,0l-50,-500l-50,500Z" style="fill:#c33;stroke:#000;stroke-width:1px;"/><path d="M1250,1145l100,0l-50,-500l-50,500Z" style="fill:#40bf7c;stroke:#000;stroke-width:1px;"/></g><path d="M656,45l0,1100c0,3.314 -2.686,6 -6,6l-600,0c-3.314,0 -6,-2.686 -6,-6l0,-1100c0,-3.314 2.686,-6 6,-6l600,0c3.314,0 6,2.686 6,6Zm-6,0l-600,0l0,1100l600,0l0,-1100Z"/><path d="M1356,45l-0,1100c-0,3.314 -2.686,6 -6,6l-600,0c-3.314,0 -6,-2.686 -6,-6l-0,-1100c-0,-3.314 2.686,-6 6,-6l600,0c3.314,0 6,2.686 6,6Zm-6,0l-600,0l-0,1100l600,0l-0,-1100Z"/></svg>