<?xml version="1.0" encoding="UTF-8" standalone="no"?><!DOCTYPE svg PUBLIC "-//W3C//DTD SVG 1.1//EN" "http://www.w3.org/Graphics/SVG/1.1/DTD/svg11.dtd"><svg width="100%" height="100%" viewBox="0 0 2000 2000" version="1.1" xmlns="http://www.w3.org/2000/svg" xmlns:xlink="http://www.w3.org/1999/xlink" xml:space="preserve" xmlns:serif="http://www.serif.com/" style="fill-rule:evenodd;clip-rule:evenodd;stroke-linecap:round;stroke-linejoin:round;stroke-miterlimit:1.5;"><rect x="142.841" y="142.841" width="1714.09" height="1714.09" style="fill:#fff;"/><g id="Board"><path d="M428.522,1571.25l-285.681,285.682" style="fill:none;stroke:#000;stroke-width:11.47px;"/><path d="M1571.25,1571.25l285.682,285.682" style="fill:none;stroke:#000;stroke-width:11.47px;"/><path d="M1571.25,428.522l285.682,-285.681" style="fill:none;stroke:#000;stroke-width:11.47px;"/><path d="M428.522,428.522l-285.681,-285.681" style="fill:none;stroke:#000;stroke-width:11.47px;"/><rect x="142.841" y="142.841" width="1714.09" height="1714.09" style="fill:none;stroke:#000;stroke-width:11.47px;"/><rect x="428.522" y="428.522" width="1142.73" height="1142.73" style="fill:none;stroke:#000;stroke-width:11.47px;"/><rect x="714.203" y="714.203" width="571.364" height="571.364" style="fill:none;stroke:#000;stroke-width:11.47px;"/><path d="M999.887,142.841l-0,1714.09" style="fill:none;stroke:#000;stroke-width:11.47px;"/><path d="M1856.93,999.887l-1714.09,-0" style="fill:none;stroke:#000;stroke-width:11.47px;"/><circle cx="999.887" cy="142.841" r="28.568" style="fill:#ebebeb;stroke:#000;stroke-width:11.47px;"/><circle cx="1856.93" cy="142.841" r="28.568" style="fill:#ebebeb;stroke:#000;stroke-width:11.47px;"/><circle cx="999.887" cy="428.522" r="28.568" style="fill:#ebebeb;stroke:#000;stroke-width:11.47px;"/><circle cx="1285.57" cy="714.203" r="28.568" style="fill:#ebebeb;stroke:#000;stroke-width:11.47px;"/><circle cx="1856.93" cy="999.887" r="28.568" style="fill:#ebebeb;stroke:#000;stroke-width:11.47px;"/><circle cx="142.841" cy="142.841" r="28.568" style="fill:#ebebeb;stroke:#000;stroke-width:11.47px;"/><circle cx="428.522" cy="428.522" r="28.568" style="fill:#ebebeb;stroke:#000;stroke-width:11.47px;"/><circle cx="999.887" cy="714.203" r="28.568" style="fill:#ebebeb;stroke:#000;stroke-width:11.47px;"/><circle cx="999.887" cy="999.887" r="28.568" style="fill:#ebebeb;stroke:#000;stroke-width:11.47px;"/><circle cx="714.203" cy="714.203" r="28.568" style="fill:#ebebeb;stroke:#000;stroke-width:11.47px;"/><circle cx="1571.25" cy="428.522" r="28.568" style="fill:#ebebeb;stroke:#000;stroke-width:11.47px;"/><circle cx="1285.57" cy="999.887" r="28.568" style="fill:#ebebeb;stroke:#000;stroke-width:11.47px;"/><circle cx="428.522" cy="999.887" r="28.568" style="fill:#ebebeb;stroke:#000;stroke-width:11.47px;"/><circle cx="714.203" cy="999.887" r="28.568" style="fill:#ebebeb;stroke:#000;stroke-width:11.47px;"/><circle cx="142.841" cy="999.887" r="28.568" style="fill:#ebebeb;stroke:#000;stroke-width:11.47px;"/><circle cx="1571.25" cy="999.887" r="28.568" style="fill:#ebebeb;stroke:#000;stroke-width:11.47px;"/><circle cx="1571.25" cy="1571.25" r="28.568" style="fill:#ebebeb;stroke:#000;stroke-width:11.47px;"/><circle cx="999.887" cy="1285.57" r="28.568" style="fill:#ebebeb;stroke:#000;stroke-width:11.47px;"/><circle cx="714.203" cy="1285.57" r="28.568" style="fill:#ebebeb;stroke:#000;stroke-width:11.47px;"/><circle cx="999.887" cy="1571.25" r="28.568" style="fill:#ebebeb;stroke:#000;stroke-width:11.47px;"/><circle cx="1856.93" cy="1856.93" r="28.568" style="fill:#ebebeb;stroke:#000;stroke-width:11.47px;"/><circle cx="428.522" cy="1571.25" r="28.568" style="fill:#ebebeb;stroke:#000;stroke-width:11.47px;"/><circle cx="142.841" cy="1856.93" r="28.568" style="fill:#ebebeb;stroke:#000;stroke-width:11.47px;"/><circle cx="999.887" cy="1856.93" r="28.568" style="fill:#ebebeb;stroke:#000;stroke-width:11.47px;"/><circle cx="1285.57" cy="1285.57" r="28.568" style="fill:#ebebeb;stroke:#000;stroke-width:11.47px;"/></g><circle cx="999.887" cy="1285.57" r="71.42" style="fill:#e6ff6d;stroke:#000;stroke-width:11.47px;"/><circle cx="999.887" cy="999.887" r="71.42" style="fill:#e6ff6d;stroke:#000;stroke-width:11.47px;"/><circle cx="999.887" cy="1571.25" r="71.42" style="fill:#e6ff6d;stroke:#000;stroke-width:11.47px;"/><path d="M1455.11,1406.56c2.493,2.493 2.493,4.985 -0,7.478l-5.609,5.608l0,5.609c-24.926,26.173 -59.2,65.432 -102.822,117.778c26.173,36.143 48.607,63.563 67.302,82.258c3.739,3.739 4.362,7.478 1.869,11.217c-2.492,6.231 -5.608,11.217 -9.347,14.955c-1.246,2.493 -3.116,3.74 -5.608,3.74c-3.739,-0 -6.232,1.246 -7.478,3.739c-1.247,2.492 -1.247,4.985 -0,7.478c-2.493,4.985 -5.609,8.724 -9.348,11.217c-2.492,3.738 -5.608,4.362 -9.347,1.869c-1.247,-1.247 -2.493,-3.116 -3.739,-5.609c-1.247,-2.492 -3.739,-2.492 -7.478,0c-4.985,4.986 -8.724,8.725 -11.217,11.217c-4.985,3.739 -9.348,3.739 -13.086,0c-6.232,-6.231 -23.058,-29.911 -50.477,-71.04c-31.158,39.882 -53.592,70.417 -67.302,91.605c-4.985,7.478 -9.347,9.97 -13.086,7.478c-1.246,-1.247 -3.116,-3.116 -5.609,-5.609c-2.492,-3.739 -3.115,-6.855 -1.869,-9.347c1.247,-1.247 1.247,-2.493 0,-3.739l-3.739,-0c-3.739,1.246 -6.855,2.492 -9.347,3.739c-8.725,-8.725 -13.71,-14.333 -14.956,-16.826c-3.739,-3.738 -4.362,-7.478 -1.87,-11.217c3.739,-3.738 4.363,-8.724 1.87,-14.955c-2.493,-3.74 -4.362,-8.102 -5.609,-13.087c19.941,-26.173 46.737,-58.577 80.388,-97.213c-29.911,-51.1 -49.23,-91.605 -57.954,-121.517c7.478,-8.725 13.71,-16.203 18.695,-22.434c2.493,3.739 4.362,5.608 5.608,5.608c2.493,1.247 4.363,1.87 5.609,1.87c2.493,-0 3.739,-1.247 3.739,-3.739c1.246,-8.725 5.609,-13.71 13.086,-14.956c3.739,-0 6.855,1.869 9.348,5.608c18.695,31.158 38.013,60.447 57.954,87.866c44.868,-48.606 82.258,-86.619 112.169,-114.039l16.826,14.956c-1.247,2.493 -1.869,4.362 -1.869,5.609c-0,2.493 1.246,4.362 3.738,5.608c1.247,1.247 4.986,1.247 11.217,0c4.986,4.985 8.102,8.724 9.348,11.217Z" style="fill:#f90000;fill-rule:nonzero;"/></svg>
