<!DOCTYPE svg PUBLIC "-//W3C//DTD SVG 1.1//EN" "http://www.w3.org/Graphics/SVG/1.1/DTD/svg11.dtd"[]><svg width="1400" height="1400" viewBox="0 0 1400 1400" version="1.1" xmlns="http://www.w3.org/2000/svg" xmlns:xlink="http://www.w3.org/1999/xlink" xml:space="preserve" xmlns:serif="http://www.serif.com/" style="fill-rule:evenodd;clip-rule:evenodd;stroke-linecap:round;stroke-linejoin:round;stroke-miterlimit:1.5;">
    <rect x="100" y="100" width="1200" height="1200" style="fill:white;" />
    <g id="Board">
        <path d="M300,1100L100,1300" style="fill:none;stroke:black;stroke-width:8.03px;" />
        <path d="M1100,1100L1300,1300" style="fill:none;stroke:black;stroke-width:8.03px;" />
        <path d="M1100,300L1300,100" style="fill:none;stroke:black;stroke-width:8.03px;" />
        <path d="M300,300L100,100" style="fill:none;stroke:black;stroke-width:8.03px;" />
        <rect x="100" y="100" width="1200" height="1200" style="fill:none;stroke:black;stroke-width:8.03px;" />
        <g transform="matrix(0.714286,0,0,0.714286,228.571,228.571)">
            <rect x="100" y="100" width="1120" height="1120" style="fill:none;stroke:black;stroke-width:11.25px;" />
        </g>
        <g transform="matrix(0.428571,0,0,0.428571,457.143,457.143)">
            <rect x="100" y="100" width="933.333" height="933.333" style="fill:none;stroke:black;stroke-width:18.74px;" />
        </g>
        <path d="M700,100L700,1300" style="fill:none;stroke:black;stroke-width:8.03px;" />
        <path d="M1300,700L100,700" style="fill:none;stroke:black;stroke-width:8.03px;" />
        <g transform="matrix(0.5,0,0,0.5,300,50)">
            <circle cx="800" cy="100" r="40" style="fill:rgb(235,235,235);stroke:black;stroke-width:16.06px;" />
        </g>
        <g transform="matrix(0.5,0,0,0.5,900,50)">
            <circle cx="800" cy="100" r="40" style="fill:rgb(235,235,235);stroke:black;stroke-width:16.06px;" />
        </g>
        <g transform="matrix(0.5,0,0,0.5,300,250)">
            <circle cx="800" cy="100" r="40" style="fill:rgb(235,235,235);stroke:black;stroke-width:16.06px;" />
        </g>
        <g transform="matrix(0.5,0,0,0.5,500,450)">
            <circle cx="800" cy="100" r="40" style="fill:rgb(235,235,235);stroke:black;stroke-width:16.06px;" />
        </g>
        <g transform="matrix(0.5,0,0,0.5,900,650)">
            <circle cx="800" cy="100" r="40" style="fill:rgb(235,235,235);stroke:black;stroke-width:16.06px;" />
        </g>
        <g transform="matrix(0.5,0,0,0.5,-300,50)">
            <circle cx="800" cy="100" r="40" style="fill:rgb(235,235,235);stroke:black;stroke-width:16.06px;" />
        </g>
        <g transform="matrix(0.5,0,0,0.5,-100,250)">
            <circle cx="800" cy="100" r="40" style="fill:rgb(235,235,235);stroke:black;stroke-width:16.06px;" />
        </g>
        <g transform="matrix(0.5,0,0,0.5,300,450)">
            <circle cx="800" cy="100" r="40" style="fill:rgb(235,235,235);stroke:black;stroke-width:16.06px;" />
        </g>
        <g transform="matrix(0.5,0,0,0.5,300,650)">
            <circle cx="800" cy="100" r="40" style="fill:rgb(235,235,235);stroke:black;stroke-width:16.06px;" />
        </g>
        <g transform="matrix(0.5,0,0,0.5,100,450)">
            <circle cx="800" cy="100" r="40" style="fill:rgb(235,235,235);stroke:black;stroke-width:16.06px;" />
        </g>
        <g transform="matrix(0.5,0,0,0.5,700,250)">
            <circle cx="800" cy="100" r="40" style="fill:rgb(235,235,235);stroke:black;stroke-width:16.06px;" />
        </g>
        <g transform="matrix(0.5,0,0,0.5,500,650)">
            <circle cx="800" cy="100" r="40" style="fill:rgb(235,235,235);stroke:black;stroke-width:16.06px;" />
        </g>
        <g transform="matrix(0.5,0,0,0.5,-100,650)">
            <circle cx="800" cy="100" r="40" style="fill:rgb(235,235,235);stroke:black;stroke-width:16.06px;" />
        </g>
        <g transform="matrix(0.5,0,0,0.5,100,650)">
            <circle cx="800" cy="100" r="40" style="fill:rgb(235,235,235);stroke:black;stroke-width:16.06px;" />
        </g>
        <g transform="matrix(0.5,0,0,0.5,-300,650)">
            <circle cx="800" cy="100" r="40" style="fill:rgb(235,235,235);stroke:black;stroke-width:16.06px;" />
        </g>
        <g transform="matrix(0.5,0,0,0.5,700,650)">
            <circle cx="800" cy="100" r="40" style="fill:rgb(235,235,235);stroke:black;stroke-width:16.06px;" />
        </g>
        <g transform="matrix(0.5,0,0,0.5,700,1050)">
            <circle cx="800" cy="100" r="40" style="fill:rgb(235,235,235);stroke:black;stroke-width:16.06px;" />
        </g>
        <g transform="matrix(0.5,0,0,0.5,300,850)">
            <circle cx="800" cy="100" r="40" style="fill:rgb(235,235,235);stroke:black;stroke-width:16.06px;" />
        </g>
        <g transform="matrix(0.5,0,0,0.5,100,850)">
            <circle cx="800" cy="100" r="40" style="fill:rgb(235,235,235);stroke:black;stroke-width:16.06px;" />
        </g>
        <g transform="matrix(0.5,0,0,0.5,300,1050)">
            <circle cx="800" cy="100" r="40" style="fill:rgb(235,235,235);stroke:black;stroke-width:16.06px;" />
        </g>
        <g transform="matrix(0.5,0,0,0.5,900,1250)">
            <circle cx="800" cy="100" r="40" style="fill:rgb(235,235,235);stroke:black;stroke-width:16.06px;" />
        </g>
        <g transform="matrix(0.5,0,0,0.5,-100,1050)">
            <circle cx="800" cy="100" r="40" style="fill:rgb(235,235,235);stroke:black;stroke-width:16.06px;" />
        </g>
        <g transform="matrix(0.5,0,0,0.5,-300,1250)">
            <circle cx="800" cy="100" r="40" style="fill:rgb(235,235,235);stroke:black;stroke-width:16.06px;" />
        </g>
        <g transform="matrix(0.5,0,0,0.5,300,1250)">
            <circle cx="800" cy="100" r="40" style="fill:rgb(235,235,235);stroke:black;stroke-width:16.06px;" />
        </g>
        <g transform="matrix(0.5,0,0,0.5,500,850)">
            <circle cx="800" cy="100" r="40" style="fill:rgb(235,235,235);stroke:black;stroke-width:16.06px;" />
        </g>
    </g>
</svg>