<?xml version="1.0" encoding="UTF-8" standalone="no"?><!DOCTYPE svg PUBLIC "-//W3C//DTD SVG 1.1//EN" "http://www.w3.org/Graphics/SVG/1.1/DTD/svg11.dtd"><svg width="100%" height="100%" viewBox="0 0 2000 2000" version="1.1" xmlns="http://www.w3.org/2000/svg" xmlns:xlink="http://www.w3.org/1999/xlink" xml:space="preserve" xmlns:serif="http://www.serif.com/" style="fill-rule:evenodd;clip-rule:evenodd;stroke-linecap:round;stroke-linejoin:round;stroke-miterlimit:1.5;"><rect x="142.837" y="142.837" width="1714.04" height="1714.04" style="fill:#fff;"/><g id="Board"><path d="M428.51,1571.2l-285.673,285.674" style="fill:none;stroke:#000;stroke-width:11.47px;"/><path d="M1571.2,1571.2l285.674,285.674" style="fill:none;stroke:#000;stroke-width:11.47px;"/><path d="M1571.2,428.51l285.674,-285.673" style="fill:none;stroke:#000;stroke-width:11.47px;"/><path d="M428.51,428.51l-285.673,-285.673" style="fill:none;stroke:#000;stroke-width:11.47px;"/><rect x="142.837" y="142.837" width="1714.04" height="1714.04" style="fill:none;stroke:#000;stroke-width:11.47px;"/><rect x="428.51" y="428.51" width="1142.7" height="1142.7" style="fill:none;stroke:#000;stroke-width:11.47px;"/><rect x="714.183" y="714.183" width="571.349" height="571.349" style="fill:none;stroke:#000;stroke-width:11.47px;"/><path d="M999.86,142.837l0,1714.04" style="fill:none;stroke:#000;stroke-width:11.47px;"/><path d="M1856.88,999.86l-1714.04,0" style="fill:none;stroke:#000;stroke-width:11.47px;"/><circle cx="999.86" cy="142.837" r="28.567" style="fill:#ebebeb;stroke:#000;stroke-width:11.47px;"/><circle cx="1856.88" cy="142.837" r="28.567" style="fill:#ebebeb;stroke:#000;stroke-width:11.47px;"/><circle cx="999.86" cy="428.51" r="28.567" style="fill:#ebebeb;stroke:#000;stroke-width:11.47px;"/><circle cx="1285.53" cy="714.183" r="28.567" style="fill:#ebebeb;stroke:#000;stroke-width:11.47px;"/><circle cx="1856.88" cy="999.86" r="28.567" style="fill:#ebebeb;stroke:#000;stroke-width:11.47px;"/><circle cx="142.837" cy="142.837" r="28.567" style="fill:#ebebeb;stroke:#000;stroke-width:11.47px;"/><circle cx="428.51" cy="428.51" r="28.567" style="fill:#ebebeb;stroke:#000;stroke-width:11.47px;"/><circle cx="999.86" cy="714.183" r="28.567" style="fill:#ebebeb;stroke:#000;stroke-width:11.47px;"/><circle cx="999.86" cy="999.86" r="28.567" style="fill:#ebebeb;stroke:#000;stroke-width:11.47px;"/><circle cx="714.183" cy="714.183" r="28.567" style="fill:#ebebeb;stroke:#000;stroke-width:11.47px;"/><circle cx="1571.2" cy="428.51" r="28.567" style="fill:#ebebeb;stroke:#000;stroke-width:11.47px;"/><circle cx="1285.53" cy="999.86" r="28.567" style="fill:#ebebeb;stroke:#000;stroke-width:11.47px;"/><circle cx="428.51" cy="999.86" r="28.567" style="fill:#ebebeb;stroke:#000;stroke-width:11.47px;"/><circle cx="714.183" cy="999.86" r="28.567" style="fill:#ebebeb;stroke:#000;stroke-width:11.47px;"/><circle cx="142.837" cy="999.86" r="28.567" style="fill:#ebebeb;stroke:#000;stroke-width:11.47px;"/><circle cx="1571.2" cy="999.86" r="28.567" style="fill:#ebebeb;stroke:#000;stroke-width:11.47px;"/><circle cx="1571.2" cy="1571.2" r="28.567" style="fill:#ebebeb;stroke:#000;stroke-width:11.47px;"/><circle cx="999.86" cy="1285.53" r="28.567" style="fill:#ebebeb;stroke:#000;stroke-width:11.47px;"/><circle cx="714.183" cy="1285.53" r="28.567" style="fill:#ebebeb;stroke:#000;stroke-width:11.47px;"/><circle cx="999.86" cy="1571.2" r="28.567" style="fill:#ebebeb;stroke:#000;stroke-width:11.47px;"/><circle cx="1856.88" cy="1856.88" r="28.567" style="fill:#ebebeb;stroke:#000;stroke-width:11.47px;"/><circle cx="428.51" cy="1571.2" r="28.567" style="fill:#ebebeb;stroke:#000;stroke-width:11.47px;"/><circle cx="142.837" cy="1856.88" r="28.567" style="fill:#ebebeb;stroke:#000;stroke-width:11.47px;"/><circle cx="999.86" cy="1856.88" r="28.567" style="fill:#ebebeb;stroke:#000;stroke-width:11.47px;"/><circle cx="1285.53" cy="1285.53" r="28.567" style="fill:#ebebeb;stroke:#000;stroke-width:11.47px;"/></g><circle cx="714.183" cy="999.86" r="71.418" style="fill:#6d70ff;stroke:#000;stroke-width:11.47px;"/><circle cx="428.51" cy="428.51" r="71.418" style="fill:#6dff8d;stroke:#000;stroke-width:11.47px;"/><circle cx="1571.2" cy="428.51" r="71.418" style="fill:#6dff8d;stroke:#000;stroke-width:11.47px;"/><circle cx="999.86" cy="428.51" r="71.418" style="fill:#6dff8d;stroke:#000;stroke-width:11.47px;"/><circle cx="999.975" cy="1285.53" r="71.418" style="fill:#ff6da6;stroke:#000;stroke-width:11.47px;"/><circle cx="999.86" cy="1856.88" r="71.418" style="fill:#ff6da6;stroke:#000;stroke-width:11.47px;"/><circle cx="999.86" cy="1570.06" r="71.418" style="fill:#ff6da6;stroke:#000;stroke-width:11.47px;"/><circle cx="999.86" cy="999.86" r="71.418" style="fill:#6d70ff;stroke:#000;stroke-width:11.47px;"/><circle cx="1285.53" cy="999.86" r="71.418" style="fill:#6d70ff;stroke:#000;stroke-width:11.47px;"/></svg>