<?xml version="1.0" encoding="UTF-8" standalone="no"?><!DOCTYPE svg PUBLIC "-//W3C//DTD SVG 1.1//EN" "http://www.w3.org/Graphics/SVG/1.1/DTD/svg11.dtd"><svg width="100%" height="100%" viewBox="0 0 1400 1400" version="1.1" xmlns="http://www.w3.org/2000/svg" xmlns:xlink="http://www.w3.org/1999/xlink" xml:space="preserve" xmlns:serif="http://www.serif.com/" style="fill-rule:evenodd;clip-rule:evenodd;stroke-linecap:round;stroke-linejoin:round;stroke-miterlimit:1.5;"><path d="M703.912,64l554.913,320.379l0,640.757l-554.913,320.379l-554.912,-320.379l0,-640.757l554.912,-320.379Z" style="fill:none;stroke:#000;stroke-width:8px;"/><path d="M703.912,256l388.636,224.379l0,448.757l-388.636,224.379l-388.635,-224.379l0,-448.757l388.635,-224.379Z" style="fill:none;stroke:#000;stroke-width:8px;"/><path d="M703.912,448l222.359,128.379l0,256.757l-222.359,128.379l-222.358,-128.379l0,-256.757l222.358,-128.379Z" style="fill:none;stroke:#000;stroke-width:8px;"/><path d="M723,64c0,11.038 -8.962,20 -20,20c-11.038,0 -20,-8.962 -20,-20c0,-11.038 8.962,-20 20,-20c11.038,0 20,8.962 20,20Z" style="fill:#ebebeb;stroke:#000;stroke-width:8.03px;"/><path d="M724,257c0,11.038 -8.962,20 -20,20c-11.038,0 -20,-8.962 -20,-20c0,-11.038 8.962,-20 20,-20c11.038,0 20,8.962 20,20Z" style="fill:#ebebeb;stroke:#000;stroke-width:8.03px;"/><path d="M723,450c0,11.038 -8.962,20 -20,20c-11.038,0 -20,-8.962 -20,-20c0,-11.038 8.962,-20 20,-20c11.038,0 20,8.962 20,20Z" style="fill:#ebebeb;stroke:#000;stroke-width:8.03px;"/><path d="M159.107,368.613c9.56,5.519 12.84,17.761 7.321,27.32c-5.52,9.559 -17.761,12.84 -27.321,7.321c-9.559,-5.52 -12.84,-17.762 -7.32,-27.321c5.519,-9.559 17.761,-12.84 27.32,-7.32Z" style="fill:#ebebeb;stroke:#000;stroke-width:8.03px;"/><path d="M326.75,464.246c9.559,5.52 12.84,17.762 7.321,27.321c-5.52,9.559 -17.762,12.84 -27.321,7.32c-9.559,-5.519 -12.84,-17.761 -7.321,-27.32c5.52,-9.559 17.762,-12.84 27.321,-7.321Z" style="fill:#ebebeb;stroke:#000;stroke-width:8.03px;"/><path d="M493.393,561.613c9.559,5.519 12.84,17.761 7.32,27.32c-5.519,9.559 -17.761,12.84 -27.32,7.321c-9.56,-5.52 -12.84,-17.762 -7.321,-27.321c5.52,-9.559 17.761,-12.84 27.321,-7.32Z" style="fill:#ebebeb;stroke:#000;stroke-width:8.03px;"/><path d="M1265.29,404.273c-9.559,5.52 -21.801,2.239 -27.32,-7.32c-5.52,-9.56 -2.239,-21.802 7.32,-27.321c9.56,-5.519 21.801,-2.239 27.321,7.321c5.519,9.559 2.239,21.801 -7.321,27.32Z" style="fill:#ebebeb;stroke:#000;stroke-width:8.03px;"/><path d="M1098.64,501.639c-9.559,5.52 -21.801,2.239 -27.32,-7.32c-5.519,-9.56 -2.239,-21.801 7.32,-27.321c9.56,-5.519 21.802,-2.239 27.321,7.321c5.519,9.559 2.239,21.801 -7.321,27.32Z" style="fill:#ebebeb;stroke:#000;stroke-width:8.03px;"/><path d="M931,597.273c-9.559,5.52 -21.801,2.239 -27.32,-7.32c-5.519,-9.56 -2.239,-21.802 7.32,-27.321c9.56,-5.519 21.802,-2.239 27.321,7.321c5.519,9.559 2.239,21.801 -7.321,27.32Z" style="fill:#ebebeb;stroke:#000;stroke-width:8.03px;"/><path d="M683.286,1345.95c0,-11.038 8.962,-20 20,-20c11.039,0 20,8.962 20,20c0,11.038 -8.961,20 -20,20c-11.038,0 -20,-8.962 -20,-20Z" style="fill:#ebebeb;stroke:#000;stroke-width:8.03px;"/><path d="M682.286,1152.95c0,-11.038 8.962,-20 20,-20c11.039,0 20,8.962 20,20c0,11.038 -8.961,20 -20,20c-11.038,0 -20,-8.962 -20,-20Z" style="fill:#ebebeb;stroke:#000;stroke-width:8.03px;"/><path d="M683.286,959.953c0,-11.038 8.962,-20 20,-20c11.039,0 20,8.962 20,20c0,11.038 -8.961,20 -20,20c-11.038,0 -20,-8.962 -20,-20Z" style="fill:#ebebeb;stroke:#000;stroke-width:8.03px;"/><path d="M1249.18,1043.34c-9.559,-5.52 -12.839,-17.761 -7.32,-27.321c5.519,-9.559 17.761,-12.84 27.32,-7.32c9.56,5.519 12.84,17.761 7.321,27.32c-5.519,9.56 -17.761,12.84 -27.321,7.321Z" style="fill:#ebebeb;stroke:#000;stroke-width:8.03px;"/><path d="M1081.54,947.707c-9.559,-5.519 -12.839,-17.761 -7.32,-27.321c5.519,-9.559 17.761,-12.839 27.32,-7.32c9.56,5.519 12.84,17.761 7.321,27.32c-5.519,9.56 -17.761,12.84 -27.321,7.321Z" style="fill:#ebebeb;stroke:#000;stroke-width:8.03px;"/><path d="M914.894,850.341c-9.56,-5.52 -12.84,-17.761 -7.321,-27.321c5.519,-9.559 17.761,-12.84 27.321,-7.32c9.559,5.519 12.839,17.761 7.32,27.32c-5.519,9.56 -17.761,12.84 -27.32,7.321Z" style="fill:#ebebeb;stroke:#000;stroke-width:8.03px;"/><path d="M141,1005.68c9.56,-5.519 21.802,-2.239 27.321,7.32c5.519,9.56 2.239,21.802 -7.321,27.321c-9.559,5.519 -21.801,2.239 -27.32,-7.321c-5.519,-9.559 -2.239,-21.801 7.32,-27.32Z" style="fill:#ebebeb;stroke:#000;stroke-width:8.03px;"/><path d="M307.643,908.314c9.56,-5.519 21.802,-2.239 27.321,7.32c5.519,9.56 2.239,21.802 -7.321,27.321c-9.559,5.519 -21.801,2.239 -27.32,-7.321c-5.519,-9.559 -2.239,-21.801 7.32,-27.32Z" style="fill:#ebebeb;stroke:#000;stroke-width:8.03px;"/><path d="M475.286,812.68c9.56,-5.519 21.801,-2.239 27.321,7.32c5.519,9.56 2.239,21.802 -7.321,27.321c-9.559,5.519 -21.801,2.239 -27.32,-7.321c-5.52,-9.559 -2.239,-21.801 7.32,-27.32Z" style="fill:#ebebeb;stroke:#000;stroke-width:8.03px;"/><path d="M929,704l331,0" style="fill:none;stroke:#000;stroke-width:8px;"/><path d="M929,704l331,0" style="fill:none;stroke:#000;stroke-width:8px;"/><path d="M1082.54,721.707c-9.559,-5.519 -12.839,-17.761 -7.32,-27.321c5.519,-9.559 17.761,-12.839 27.32,-7.32c9.56,5.519 12.84,17.761 7.321,27.32c-5.519,9.56 -17.761,12.84 -27.321,7.321Z" style="fill:#ebebeb;stroke:#000;stroke-width:8.03px;"/><path d="M151.464,704l331,0" style="fill:none;stroke:#000;stroke-width:8px;"/><path d="M305,721.707c-9.559,-5.519 -12.839,-17.761 -7.32,-27.321c5.519,-9.559 17.761,-12.839 27.32,-7.32c9.56,5.519 12.84,17.761 7.321,27.32c-5.519,9.56 -17.761,12.84 -27.321,7.321Z" style="fill:#ebebeb;stroke:#000;stroke-width:8.03px;"/><path d="M138,719.707c-9.559,-5.519 -12.839,-17.761 -7.32,-27.321c5.519,-9.559 17.761,-12.839 27.32,-7.32c9.56,5.519 12.84,17.761 7.321,27.32c-5.519,9.56 -17.761,12.84 -27.321,7.321Z" style="fill:#ebebeb;stroke:#000;stroke-width:8.03px;"/><path d="M472.464,718.707c-9.56,-5.519 -12.84,-17.761 -7.321,-27.321c5.519,-9.559 17.761,-12.839 27.321,-7.32c9.559,5.519 12.839,17.761 7.32,27.32c-5.519,9.56 -17.761,12.84 -27.32,7.321Z" style="fill:#ebebeb;stroke:#000;stroke-width:8.03px;"/><path d="M915.536,719.707c-9.559,-5.519 -12.839,-17.761 -7.32,-27.321c5.519,-9.559 17.761,-12.839 27.32,-7.32c9.56,5.519 12.84,17.761 7.321,27.32c-5.519,9.56 -17.761,12.84 -27.321,7.321Z" style="fill:#ebebeb;stroke:#000;stroke-width:8.03px;"/><path d="M1250,718.707c-9.56,-5.519 -12.84,-17.761 -7.321,-27.321c5.519,-9.559 17.761,-12.839 27.321,-7.32c9.559,5.519 12.839,17.761 7.32,27.32c-5.519,9.56 -17.761,12.84 -27.32,7.321Z" style="fill:#ebebeb;stroke:#000;stroke-width:8.03px;"/><path d="M815.535,898.299l165.5,286.654" style="fill:none;stroke:#000;stroke-width:8px;"/><path d="M815.535,898.299l165.5,286.654" style="fill:none;stroke:#000;stroke-width:8px;"/><path d="M876.969,1040.12c0,-11.039 8.962,-20 20,-20c11.038,0 20,8.961 20,20c0,11.038 -8.962,20 -20,20c-11.038,0 -20,-8.962 -20,-20Z" style="fill:#ebebeb;stroke:#000;stroke-width:8.03px;"/><path d="M426.767,224.933l165.5,286.654" style="fill:none;stroke:#000;stroke-width:8px;"/><path d="M488.201,366.753c0,-11.039 8.962,-20 20,-20c11.038,0 20,8.961 20,20c0,11.038 -8.962,20 -20,20c-11.038,0 -20,-8.962 -20,-20Z" style="fill:#ebebeb;stroke:#000;stroke-width:8.03px;"/><path d="M406.433,221.126c0,-11.038 8.962,-20 20,-20c11.038,0 20,8.962 20,20c0,11.039 -8.962,20 -20,20c-11.038,0 -20,-8.961 -20,-20Z" style="fill:#ebebeb;stroke:#000;stroke-width:8.03px;"/><path d="M574.531,510.28c0,-11.038 8.962,-20 20,-20c11.038,0 20,8.962 20,20c0,11.038 -8.962,20 -20,20c-11.038,0 -20,-8.962 -20,-20Z" style="fill:#ebebeb;stroke:#000;stroke-width:8.03px;"/><path d="M795.201,894.492c0,-11.038 8.962,-20 20,-20c11.039,0 20,8.962 20,20c0,11.039 -8.961,20 -20,20c-11.038,0 -20,-8.961 -20,-20Z" style="fill:#ebebeb;stroke:#000;stroke-width:8.03px;"/><path d="M963.299,1183.65c0,-11.038 8.962,-20 20,-20c11.038,0 20,8.962 20,20c0,11.038 -8.962,20 -20,20c-11.038,0 -20,-8.962 -20,-20Z" style="fill:#ebebeb;stroke:#000;stroke-width:8.03px;"/><path d="M590.535,897.185l-165.5,286.654" style="fill:none;stroke:#000;stroke-width:8px;"/><path d="M590.535,897.185l-165.5,286.654" style="fill:none;stroke:#000;stroke-width:8px;"/><path d="M498.433,1021.3c9.559,-5.519 21.801,-2.239 27.32,7.321c5.519,9.559 2.239,21.801 -7.32,27.32c-9.56,5.519 -21.802,2.239 -27.321,-7.32c-5.519,-9.56 -2.239,-21.802 7.321,-27.321Z" style="fill:#ebebeb;stroke:#000;stroke-width:8.03px;"/><path d="M979.303,223.819l-165.5,286.654" style="fill:none;stroke:#000;stroke-width:8px;"/><path d="M887.201,347.932c9.559,-5.519 21.801,-2.239 27.32,7.321c5.519,9.559 2.239,21.801 -7.32,27.32c-9.56,5.519 -21.802,2.239 -27.321,-7.32c-5.519,-9.56 -2.239,-21.802 7.321,-27.321Z" style="fill:#ebebeb;stroke:#000;stroke-width:8.03px;"/><path d="M972.433,204.306c9.559,-5.519 21.801,-2.239 27.32,7.32c5.52,9.56 2.239,21.802 -7.32,27.321c-9.56,5.519 -21.801,2.239 -27.321,-7.321c-5.519,-9.559 -2.239,-21.801 7.321,-27.32Z" style="fill:#ebebeb;stroke:#000;stroke-width:8.03px;"/><path d="M806.067,494.46c9.56,-5.52 21.802,-2.239 27.321,7.32c5.519,9.559 2.239,21.801 -7.321,27.321c-9.559,5.519 -21.801,2.238 -27.32,-7.321c-5.519,-9.559 -2.239,-21.801 7.32,-27.32Z" style="fill:#ebebeb;stroke:#000;stroke-width:8.03px;"/><path d="M583.665,877.672c9.559,-5.519 21.801,-2.239 27.32,7.32c5.519,9.56 2.239,21.802 -7.32,27.321c-9.56,5.519 -21.802,2.239 -27.321,-7.321c-5.519,-9.559 -2.239,-21.801 7.321,-27.32Z" style="fill:#ebebeb;stroke:#000;stroke-width:8.03px;"/><path d="M417.299,1167.83c9.56,-5.52 21.802,-2.239 27.321,7.32c5.519,9.559 2.239,21.801 -7.321,27.321c-9.559,5.519 -21.801,2.238 -27.32,-7.321c-5.519,-9.559 -2.239,-21.801 7.32,-27.32Z" style="fill:#ebebeb;stroke:#000;stroke-width:8.03px;"/></svg>