<?xml version="1.0" encoding="UTF-8" standalone="no"?><!DOCTYPE svg PUBLIC "-//W3C//DTD SVG 1.1//EN" "http://www.w3.org/Graphics/SVG/1.1/DTD/svg11.dtd"><svg width="100%" height="100%" viewBox="0 0 1400 1400" version="1.1" xmlns="http://www.w3.org/2000/svg" xmlns:xlink="http://www.w3.org/1999/xlink" xml:space="preserve" xmlns:serif="http://www.serif.com/" style="fill-rule:evenodd;clip-rule:evenodd;stroke-linecap:round;stroke-linejoin:round;stroke-miterlimit:1.5;"><g><path d="M701.742,119.742l609.397,442.753l-232.769,716.389l-753.256,0l-232.768,-716.389l609.396,-442.753Z" style="fill:none;stroke:#000;stroke-width:8px;"/><path d="M702.742,1272.88l488.613,-354.998l-186.633,-574.398l-603.959,0l-186.633,574.398l488.612,354.998Z" style="fill:none;stroke:#000;stroke-width:8px;"/><path d="M704.742,348.024l390.397,283.64l-149.118,458.938l-482.557,0l-149.118,-458.938l390.396,-283.64Z" style="fill:none;stroke:#000;stroke-width:8px;"/><path d="M704.742,496.024l249.641,181.374l-95.354,293.47l-308.573,0l-95.354,-293.47l249.64,-181.374Z" style="fill:none;stroke:#000;stroke-width:8px;"/><path d="M705.383,1086.76l313.019,-227.422l-119.563,-367.976l-386.912,0l-119.563,367.976l313.019,227.422Z" style="fill:none;stroke:#000;stroke-width:8px;"/><path d="M721.5,123.5c0,11.038 -8.962,20 -20,20c-11.038,0 -20,-8.962 -20,-20c0,-11.038 8.962,-20 20,-20c11.038,0 20,8.962 20,20Z" style="fill:#ebebeb;stroke:#000;stroke-width:8.03px;"/><path d="M724.5,345.5c0,11.038 -8.962,20 -20,20c-11.038,0 -20,-8.962 -20,-20c0,-11.038 8.962,-20 20,-20c11.038,0 20,8.962 20,20Z" style="fill:#ebebeb;stroke:#000;stroke-width:8.03px;"/><path d="M722.5,497.5c0,11.038 -8.962,20 -20,20c-11.038,0 -20,-8.962 -20,-20c0,-11.038 8.962,-20 20,-20c11.038,0 20,8.962 20,20Z" style="fill:#ebebeb;stroke:#000;stroke-width:8.03px;"/><path d="M1004,341.5l-174,244" style="fill:none;stroke:#000;stroke-width:8px;"/><path d="M1192,917.5l-282,-97" style="fill:none;stroke:#000;stroke-width:8px;"/><path d="M704,1273.5l2,-303" style="fill:none;stroke:#000;stroke-width:8px;"/><path d="M212,917.5l292,-93" style="fill:none;stroke:#000;stroke-width:8px;"/><path d="M402,342.5l180,240" style="fill:none;stroke:#000;stroke-width:8px;"/><path d="M917.5,489.5c0,11.038 -8.962,20 -20,20c-11.038,0 -20,-8.962 -20,-20c0,-11.038 8.962,-20 20,-20c11.038,0 20,8.962 20,20Z" style="fill:#ebebeb;stroke:#000;stroke-width:8.03px;"/><path d="M1022.5,341.5c0,11.038 -8.962,20 -20,20c-11.038,0 -20,-8.962 -20,-20c0,-11.038 8.962,-20 20,-20c11.038,0 20,8.962 20,20Z" style="fill:#ebebeb;stroke:#000;stroke-width:8.03px;"/><path d="M1115.5,630.5c0,11.038 -8.962,20 -20,20c-11.038,0 -20,-8.962 -20,-20c0,-11.038 8.962,-20 20,-20c11.038,0 20,8.962 20,20Z" style="fill:#ebebeb;stroke:#000;stroke-width:8.03px;"/><path d="M1039.5,859.5c0,11.038 -8.962,20 -20,20c-11.038,0 -20,-8.962 -20,-20c0,-11.038 8.962,-20 20,-20c11.038,0 20,8.962 20,20Z" style="fill:#ebebeb;stroke:#000;stroke-width:8.03px;"/><path d="M1209.5,918.5c0,11.038 -8.962,20 -20,20c-11.038,0 -20,-8.962 -20,-20c0,-11.038 8.962,-20 20,-20c11.038,0 20,8.962 20,20Z" style="fill:#ebebeb;stroke:#000;stroke-width:8.03px;"/><path d="M975.5,678.5c0,11.038 -8.962,20 -20,20c-11.038,0 -20,-8.962 -20,-20c0,-11.038 8.962,-20 20,-20c11.038,0 20,8.962 20,20Z" style="fill:#ebebeb;stroke:#000;stroke-width:8.03px;"/><path d="M928.5,820.5c0,11.038 -8.962,20 -20,20c-11.038,0 -20,-8.962 -20,-20c0,-11.038 8.962,-20 20,-20c11.038,0 20,8.962 20,20Z" style="fill:#ebebeb;stroke:#000;stroke-width:8.03px;"/><path d="M878.5,968.5c0,11.038 -8.962,20 -20,20c-11.038,0 -20,-8.962 -20,-20c0,-11.038 8.962,-20 20,-20c11.038,0 20,8.962 20,20Z" style="fill:#ebebeb;stroke:#000;stroke-width:8.03px;"/><path d="M725.5,972.5c0,11.038 -8.962,20 -20,20c-11.038,0 -20,-8.962 -20,-20c0,-11.038 8.962,-20 20,-20c11.038,0 20,8.962 20,20Z" style="fill:#ebebeb;stroke:#000;stroke-width:8.03px;"/><path d="M725.5,1087.5c0,11.038 -8.962,20 -20,20c-11.038,0 -20,-8.962 -20,-20c0,-11.038 8.962,-20 20,-20c11.038,0 20,8.962 20,20Z" style="fill:#ebebeb;stroke:#000;stroke-width:8.03px;"/><path d="M481.5,1089.5c0,11.038 -8.962,20 -20,20c-11.038,0 -20,-8.962 -20,-20c0,-11.038 8.962,-20 20,-20c11.038,0 20,8.962 20,20Z" style="fill:#ebebeb;stroke:#000;stroke-width:8.03px;"/><path d="M573.5,969.5c0,11.038 -8.962,20 -20,20c-11.038,0 -20,-8.962 -20,-20c0,-11.038 8.962,-20 20,-20c11.038,0 20,8.962 20,20Z" style="fill:#ebebeb;stroke:#000;stroke-width:8.03px;"/><path d="M522.5,827.5c0,11.038 -8.962,20 -20,20c-11.038,0 -20,-8.962 -20,-20c0,-11.038 8.962,-20 20,-20c11.038,0 20,8.962 20,20Z" style="fill:#ebebeb;stroke:#000;stroke-width:8.03px;"/><path d="M411.5,860.5c0,11.038 -8.962,20 -20,20c-11.038,0 -20,-8.962 -20,-20c0,-11.038 8.962,-20 20,-20c11.038,0 20,8.962 20,20Z" style="fill:#ebebeb;stroke:#000;stroke-width:8.03px;"/><path d="M231.5,916.5c0,11.038 -8.962,20 -20,20c-11.038,0 -20,-8.962 -20,-20c0,-11.038 8.962,-20 20,-20c11.038,0 20,8.962 20,20Z" style="fill:#ebebeb;stroke:#000;stroke-width:8.03px;"/><path d="M348.5,1276.5c0,11.038 -8.962,20 -20,20c-11.038,0 -20,-8.962 -20,-20c0,-11.038 8.962,-20 20,-20c11.038,0 20,8.962 20,20Z" style="fill:#ebebeb;stroke:#000;stroke-width:8.03px;"/><path d="M722.5,1274.5c0,11.038 -8.962,20 -20,20c-11.038,0 -20,-8.962 -20,-20c0,-11.038 8.962,-20 20,-20c11.038,0 20,8.962 20,20Z" style="fill:#ebebeb;stroke:#000;stroke-width:8.03px;"/><path d="M965.5,1091.5c0,11.038 -8.962,20 -20,20c-11.038,0 -20,-8.962 -20,-20c0,-11.038 8.962,-20 20,-20c11.038,0 20,8.962 20,20Z" style="fill:#ebebeb;stroke:#000;stroke-width:8.03px;"/><path d="M1095.5,1276.5c0,11.038 -8.962,20 -20,20c-11.038,0 -20,-8.962 -20,-20c0,-11.038 8.962,-20 20,-20c11.038,0 20,8.962 20,20Z" style="fill:#ebebeb;stroke:#000;stroke-width:8.03px;"/><path d="M849.5,587.5c0,11.038 -8.962,20 -20,20c-11.038,0 -20,-8.962 -20,-20c0,-11.038 8.962,-20 20,-20c11.038,0 20,8.962 20,20Z" style="fill:#ebebeb;stroke:#000;stroke-width:8.03px;"/><path d="M1327.5,563.5c0,11.038 -8.962,20 -20,20c-11.038,0 -20,-8.962 -20,-20c0,-11.038 8.962,-20 20,-20c11.038,0 20,8.962 20,20Z" style="fill:#ebebeb;stroke:#000;stroke-width:8.03px;"/><path d="M602.5,583.5c0,11.038 -8.962,20 -20,20c-11.038,0 -20,-8.962 -20,-20c0,-11.038 8.962,-20 20,-20c11.038,0 20,8.962 20,20Z" style="fill:#ebebeb;stroke:#000;stroke-width:8.03px;"/><path d="M529.5,491.5c0,11.038 -8.962,20 -20,20c-11.038,0 -20,-8.962 -20,-20c0,-11.038 8.962,-20 20,-20c11.038,0 20,8.962 20,20Z" style="fill:#ebebeb;stroke:#000;stroke-width:8.03px;"/><path d="M420.5,343.5c0,11.038 -8.962,20 -20,20c-11.038,0 -20,-8.962 -20,-20c0,-11.038 8.962,-20 20,-20c11.038,0 20,8.962 20,20Z" style="fill:#ebebeb;stroke:#000;stroke-width:8.03px;"/><path d="M112.5,562.5c0,11.038 -8.962,20 -20,20c-11.038,0 -20,-8.962 -20,-20c0,-11.038 8.962,-20 20,-20c11.038,0 20,8.962 20,20Z" style="fill:#ebebeb;stroke:#000;stroke-width:8.03px;"/><path d="M329.5,629.5c0,11.038 -8.962,20 -20,20c-11.038,0 -20,-8.962 -20,-20c0,-11.038 8.962,-20 20,-20c11.038,0 20,8.962 20,20Z" style="fill:#ebebeb;stroke:#000;stroke-width:8.03px;"/><path d="M475.5,676.5c0,11.038 -8.962,20 -20,20c-11.038,0 -20,-8.962 -20,-20c0,-11.038 8.962,-20 20,-20c11.038,0 20,8.962 20,20Z" style="fill:#ebebeb;stroke:#000;stroke-width:8.03px;"/></g></svg>