<?xml version="1.0" encoding="UTF-8" standalone="no"?><!DOCTYPE svg PUBLIC "-//W3C//DTD SVG 1.1//EN" "http://www.w3.org/Graphics/SVG/1.1/DTD/svg11.dtd"><svg width="100%" height="100%" viewBox="0 0 1000 1000" version="1.1" xmlns="http://www.w3.org/2000/svg" xmlns:xlink="http://www.w3.org/1999/xlink" xml:space="preserve" xmlns:serif="http://www.serif.com/" style="fill-rule:evenodd;clip-rule:evenodd;stroke-linecap:round;stroke-linejoin:round;stroke-miterlimit:1.5;"><g><rect x="100" y="100" width="800" height="800" style="fill:none;stroke:#000;stroke-width:8px;"/><path d="M300,100l0,800" style="fill:none;stroke:#000;stroke-width:8px;"/><path d="M500,100l0,800" style="fill:none;stroke:#000;stroke-width:8px;"/><path d="M700,100l0,800" style="fill:none;stroke:#000;stroke-width:8px;"/><path d="M100,300l800,0" style="fill:none;stroke:#000;stroke-width:8px;"/><path d="M100,500l800,0" style="fill:none;stroke:#000;stroke-width:8px;"/><path d="M100,700l800,0" style="fill:none;stroke:#000;stroke-width:8px;"/><path d="M100,900l800,-800" style="fill:none;stroke:#000;stroke-width:8px;"/><path d="M100,700l600,-600" style="fill:none;stroke:#000;stroke-width:8px;"/><path d="M100,500l400,-400" style="fill:none;stroke:#000;stroke-width:8px;"/><path d="M100,300l200,-200" style="fill:none;stroke:#000;stroke-width:8px;"/><path d="M300,900l600,-600" style="fill:none;stroke:#000;stroke-width:8px;"/><path d="M500,900l400,-400" style="fill:none;stroke:#000;stroke-width:8px;"/><path d="M700,900l200,-200" style="fill:none;stroke:#000;stroke-width:8px;"/><path d="M900,900l-800,-800" style="fill:none;stroke:#000;stroke-width:8px;"/><path d="M900,700l-600,-600" style="fill:none;stroke:#000;stroke-width:8px;"/><path d="M900,500l-400,-400" style="fill:none;stroke:#000;stroke-width:8px;"/><path d="M900,300l-200,-200" style="fill:none;stroke:#000;stroke-width:8px;"/><path d="M500,900l-400,-400" style="fill:none;stroke:#000;stroke-width:8px;"/><path d="M100,700l200,200" style="fill:none;stroke:#000;stroke-width:8px;"/></g><path d="M700,900l-600,-600" style="fill:none;stroke:#000;stroke-width:8px;"/><g><circle cx="100" cy="100" r="50" style="fill:#fff;stroke:#000;stroke-width:8px;"/><circle cx="300" cy="100" r="50" style="fill:#fff;stroke:#000;stroke-width:8px;"/><circle cx="500" cy="100" r="50" style="fill:#fff;stroke:#000;stroke-width:8px;"/><circle cx="700" cy="100" r="50" style="fill:#fff;stroke:#000;stroke-width:8px;"/><circle cx="900" cy="100" r="50" style="fill:#fff;stroke:#000;stroke-width:8px;"/><circle cx="100" cy="300" r="50" style="fill:#fff;stroke:#000;stroke-width:8px;"/><circle cx="300" cy="300" r="50" style="fill:#fff;stroke:#000;stroke-width:8px;"/><circle cx="500" cy="300" r="50" style="fill:#fff;stroke:#000;stroke-width:8px;"/><circle cx="700" cy="300" r="50" style="fill:#fff;stroke:#000;stroke-width:8px;"/><circle cx="900" cy="300" r="50" style="fill:#fff;stroke:#000;stroke-width:8px;"/><circle cx="100" cy="500" r="50" style="fill:#fff;stroke:#000;stroke-width:8px;"/><circle cx="300" cy="500" r="50" style="fill:#fff;stroke:#000;stroke-width:8px;"/><circle cx="500" cy="500" r="50" style="fill:#fff;stroke:#000;stroke-width:8px;"/><circle cx="700" cy="500" r="50" style="fill:#fff;stroke:#000;stroke-width:8px;"/><circle cx="900" cy="500" r="50" style="fill:#fff;stroke:#000;stroke-width:8px;"/><circle cx="100" cy="700" r="50" style="fill:#fff;stroke:#000;stroke-width:8px;"/><circle cx="300" cy="700" r="50" style="fill:#fff;stroke:#000;stroke-width:8px;"/><circle cx="500" cy="700" r="50" style="fill:#fff;stroke:#000;stroke-width:8px;"/><circle cx="700" cy="700" r="50" style="fill:#fff;stroke:#000;stroke-width:8px;"/><circle cx="900" cy="700" r="50" style="fill:#fff;stroke:#000;stroke-width:8px;"/><circle cx="100" cy="900" r="50" style="fill:#fff;stroke:#000;stroke-width:8px;"/><circle cx="300" cy="900" r="50" style="fill:#fff;stroke:#000;stroke-width:8px;"/><circle cx="500" cy="900" r="50" style="fill:#fff;stroke:#000;stroke-width:8px;"/><circle cx="700" cy="900" r="50" style="fill:#fff;stroke:#000;stroke-width:8px;"/><circle cx="900" cy="900" r="50" style="fill:#fff;stroke:#000;stroke-width:8px;"/></g></svg>