<?xml version="1.0" encoding="UTF-8" standalone="no"?><!DOCTYPE svg PUBLIC "-//W3C//DTD SVG 1.1//EN" "http://www.w3.org/Graphics/SVG/1.1/DTD/svg11.dtd"><svg width="100%" height="100%" viewBox="0 0 372 587" version="1.1" xmlns="http://www.w3.org/2000/svg" xmlns:xlink="http://www.w3.org/1999/xlink" xml:space="preserve" xmlns:serif="http://www.serif.com/" style="fill-rule:evenodd;clip-rule:evenodd;stroke-miterlimit:100;"><g><clipPath id="_clip1"><rect x="3.361" y="1.964" width="366.52" height="583.638"/></clipPath><g clip-path="url(#_clip1)"><path d="M62.43,39.056l-1.316,-3.288l-3.947,-1.317c-2.629,0 -3.946,1.317 -3.946,4.604c0,3.288 1.317,5.26 3.946,5.26l3.947,-1.316l1.316,-3.943Z" style="fill:#333;fill-rule:nonzero;"/><path d="M43.356,33.134c0,-3.288 -1.314,-5.26 -4.603,-5.26c-1.316,0 -1.975,1.317 -3.288,1.972l-1.976,3.288c0,2.634 1.976,4.604 5.263,4.604c3.29,0.001 4.604,-1.97 4.604,-4.604Z" style="fill:#333;fill-rule:nonzero;"/><path d="M45.989,85.09c0,-3.288 -1.975,-4.604 -4.604,-4.604c-3.289,0 -4.605,1.317 -4.605,4.604c0,3.289 1.316,4.599 4.605,4.599c2.629,0 4.604,-1.31 4.604,-4.599Z" style="fill:#333;fill-rule:nonzero;"/><path d="M91.366,50.893c0,-3.289 -1.317,-5.26 -4.605,-5.26c-3.288,0 -5.26,1.972 -5.26,5.26c0,3.288 1.972,4.604 5.26,4.604c3.288,0 4.605,-1.317 4.605,-4.604Z" style="fill:#333;fill-rule:nonzero;"/><path d="M126.22,29.846c0,-2.633 -1.314,-3.943 -3.946,-3.943c-3.289,0 -5.26,1.31 -5.26,3.943c0,3.288 1.972,5.267 5.26,5.267c2.632,0 3.946,-1.979 3.946,-5.267Z" style="fill:#333;fill-rule:nonzero;"/><path d="M95.967,28.536l-1.313,-3.289l-3.288,-1.978c-3.289,0 -4.605,1.978 -4.605,5.267c0,3.289 1.316,4.598 4.605,4.598l3.288,-0.655l1.313,-3.943Z" style="fill:#333;fill-rule:nonzero;"/><path d="M127.537,52.208c0,-3.288 -1.317,-4.604 -4.605,-4.604c-3.288,0 -5.26,1.316 -5.26,4.604c0,3.289 1.972,4.599 5.26,4.599c3.288,0 4.605,-1.31 4.605,-4.599Z" style="fill:#333;fill-rule:nonzero;"/><path d="M64.401,60.095c0,-2.627 -1.316,-4.599 -4.604,-4.599c-3.288,0 -5.26,1.972 -5.26,4.599l1.972,3.95l3.288,1.317l3.288,-1.317l1.316,-3.95Z" style="fill:#333;fill-rule:nonzero;"/><path d="M39.413,65.362c0,-3.289 -1.975,-4.605 -4.605,-4.605c-1.317,0 -1.972,0.662 -3.288,1.317l-1.316,3.289c0,3.288 1.316,5.259 4.604,5.259c2.63,-0.001 4.605,-1.973 4.605,-5.26Z" style="fill:#333;fill-rule:nonzero;"/><path d="M75.583,22.614c0,-3.288 -1.976,-5.266 -4.605,-5.266c-1.317,0 -1.972,0.662 -3.289,1.978l-1.316,3.288c0,2.633 1.316,3.944 4.605,3.944c2.63,0 4.605,-1.31 4.605,-3.944Z" style="fill:#333;fill-rule:nonzero;"/><path d="M42.042,117.317l-1.975,-3.288l-3.288,-1.978c-1.313,0 -2.63,1.316 -3.289,1.978l-1.313,3.288c0,2.627 1.313,4.599 4.602,4.599c3.288,0 5.263,-1.971 5.263,-4.599Z" style="fill:#333;fill-rule:nonzero;"/><path d="M62.43,106.792l-1.316,-3.289l-3.947,-1.972c-2.629,0 -3.946,1.972 -3.946,5.261c0,2.626 1.317,4.605 3.946,4.605c3.288,0 5.263,-1.979 5.263,-4.605Z" style="fill:#333;fill-rule:nonzero;"/><path d="M38.096,159.403c0,-2.626 -1.316,-4.605 -4.605,-4.605c-3.288,0 -5.259,1.979 -5.259,4.605l1.972,3.949l3.288,1.31l3.289,-1.31l1.315,-3.949Z" style="fill:#333;fill-rule:nonzero;"/><path d="M47.96,139.674l-1.316,-3.289l-3.287,-1.316c-3.289,0 -4.603,1.316 -4.603,4.605c0,3.288 1.313,4.605 4.603,4.605c3.287,0 4.603,-1.317 4.603,-4.605Z" style="fill:#333;fill-rule:nonzero;"/><path d="M47.96,195.574c0,-3.289 -1.316,-5.26 -4.604,-5.26c-3.289,0 -4.603,1.971 -4.603,5.26c0,2.626 1.313,3.95 4.603,3.95c3.288,0 4.604,-1.324 4.604,-3.95Z" style="fill:#333;fill-rule:nonzero;"/><path d="M38.096,241.607l-1.316,-3.287l-3.289,-1.971c-1.313,0 -2.629,1.31 -3.288,1.971c-1.314,0.661 -1.972,1.971 -1.972,3.287l1.972,3.289l3.288,1.317l3.289,-1.317l1.316,-3.289Z" style="fill:#333;fill-rule:nonzero;"/><path d="M35.466,182.42c0,-3.288 -1.976,-4.604 -5.263,-4.604c-0.655,0 -1.972,0.655 -3.288,1.316c-0.655,1.317 -1.314,1.972 -1.314,3.288l1.314,3.951l3.288,1.31c3.288,0 5.263,-1.973 5.263,-5.261Z" style="fill:#333;fill-rule:nonzero;"/><path d="M40.726,216.619l-1.313,-3.288l-3.289,-1.316c-3.289,0 -5.263,1.316 -5.263,4.604c0,3.289 1.974,5.261 5.263,5.261c3.289,0 4.602,-1.972 4.602,-5.261Z" style="fill:#333;fill-rule:nonzero;"/><path d="M60.455,246.869c0,-3.289 -1.313,-5.261 -4.601,-5.261c-3.289,0 -5.263,1.973 -5.263,5.261c0,2.633 1.974,4.604 5.263,4.604c3.288,0 4.601,-1.972 4.601,-4.604Z" style="fill:#333;fill-rule:nonzero;"/><path d="M55.195,171.239l-1.316,-3.289l-3.288,-1.31c-3.288,0 -4.602,1.31 -4.602,4.599c0,3.289 1.314,5.267 4.602,5.267l3.288,-1.321l1.316,-3.946Z" style="fill:#333;fill-rule:nonzero;"/><path d="M44.014,268.577l-0.657,-3.289l-3.944,-1.325c-2.633,0 -4.605,1.325 -4.605,4.613c0,2.626 1.972,4.597 4.605,4.597c3.288,0.001 4.601,-1.97 4.601,-4.596Z" style="fill:#333;fill-rule:nonzero;"/><path d="M38.096,342.882c0,-3.289 -1.316,-5.253 -4.605,-5.253c-3.288,0 -5.259,1.964 -5.259,5.253l1.972,3.288l3.288,1.324l3.289,-1.324l1.315,-3.288Z" style="fill:#333;fill-rule:nonzero;"/><path d="M47.96,360.646c0,-3.289 -1.316,-4.61 -4.604,-4.61c-3.289,0 -4.603,1.321 -4.603,4.61c0,3.287 1.313,5.254 4.603,5.254c3.288,-0.002 4.604,-1.966 4.604,-5.254Z" style="fill:#333;fill-rule:nonzero;"/><path d="M38.754,381.686c0,-3.289 -1.975,-5.261 -4.604,-5.261c-1.314,0 -1.972,0.663 -3.288,1.972l-1.313,3.289c0,2.635 1.313,4.604 4.601,4.604c2.629,-0.001 4.604,-1.972 4.604,-4.604Z" style="fill:#333;fill-rule:nonzero;"/><path d="M265.641,19.981c-0.658,0 -1.975,0.655 -3.287,1.317c-0.66,1.316 -1.316,1.971 -1.316,3.288l1.316,3.95l3.287,1.31c3.289,0 5.262,-1.972 5.262,-5.26c-0.003,-3.288 -1.973,-4.605 -5.262,-4.605Z" style="fill:#333;fill-rule:nonzero;"/><path d="M253.801,28.536l-1.97,-3.289l-3.289,-1.978c-3.288,0 -4.604,1.978 -4.604,5.267c0,3.289 1.316,4.598 4.604,4.598l3.289,-0.655l1.97,-3.943Z" style="fill:#333;fill-rule:nonzero;"/><path d="M234.072,22.614c0,-3.288 -1.973,-4.604 -4.602,-4.604c-1.316,0 -1.976,0.661 -3.289,1.316l-1.316,3.288l1.316,3.944c1.313,1.316 1.973,1.316 3.289,1.316c2.63,0 4.602,-1.971 4.602,-5.26Z" style="fill:#333;fill-rule:nonzero;"/><path d="M266.955,44.978c0,-3.289 -1.973,-5.267 -5.262,-5.267c-3.287,0 -4.604,1.978 -4.604,5.267c0,2.626 1.315,4.598 4.604,4.598c3.289,0 5.262,-1.972 5.262,-4.598Z" style="fill:#333;fill-rule:nonzero;"/><path d="M336.006,26.558c0,-3.289 -1.971,-4.599 -5.259,-4.599c-3.289,0 -4.604,1.311 -4.604,4.599l1.315,3.288c1.317,1.317 2.631,1.317 3.289,1.317l3.945,-1.317l1.314,-3.288Z" style="fill:#333;fill-rule:nonzero;"/><path d="M349.16,46.288c0,-3.289 -1.972,-5.261 -5.26,-5.261c-3.288,0 -4.605,1.972 -4.605,5.261c0,2.633 1.317,4.605 4.605,4.605c3.288,0 5.26,-1.973 5.26,-4.605Z" style="fill:#333;fill-rule:nonzero;"/><path d="M331.405,54.841c0,-2.633 -1.316,-4.61 -4.605,-4.61c-3.287,0 -5.259,1.977 -5.259,4.61l1.972,3.944c0.658,0.655 1.977,0.655 3.287,0.655c3.289,0 4.605,-1.31 4.605,-4.599Z" style="fill:#333;fill-rule:nonzero;"/><path d="M347.188,231.744c0,-2.628 -1.316,-3.95 -3.945,-3.95c-3.288,0 -5.261,1.322 -5.261,3.95c0,3.288 1.973,5.259 5.261,5.259c2.628,0 3.945,-1.971 3.945,-5.259Z" style="fill:#333;fill-rule:nonzero;"/><path d="M330.747,244.235c0,-3.288 -1.972,-5.253 -5.259,-5.253c-2.635,0 -4.606,1.965 -4.606,5.253c0,3.289 1.974,4.612 4.606,4.612c1.312,0 2.628,-0.663 3.941,-1.323l1.318,-3.289Z" style="fill:#333;fill-rule:nonzero;"/><path d="M345.871,265.289c0,-3.289 -1.971,-4.613 -5.259,-4.613c-2.631,0 -3.946,1.325 -3.946,4.613c0,3.288 1.315,5.252 3.946,5.252c3.288,0 5.259,-1.964 5.259,-5.252Z" style="fill:#333;fill-rule:nonzero;"/><path d="M348.505,212.015c0,-3.289 -1.315,-4.604 -4.604,-4.604c-3.289,0 -4.605,1.315 -4.605,4.604c0,3.289 1.317,5.259 4.605,5.259c3.288,0 4.604,-1.97 4.604,-5.259Z" style="fill:#333;fill-rule:nonzero;"/><path d="M347.188,374.454l-1.316,-3.289c-1.313,-1.315 -2.629,-1.315 -3.942,-1.315c-1.315,0 -1.975,0 -3.289,1.315l-1.315,3.289c0,2.634 1.315,4.598 4.604,4.598c3.286,0 5.258,-1.964 5.258,-4.598Z" style="fill:#333;fill-rule:nonzero;"/><path d="M339.954,391.55l-1.973,-3.286l-3.289,-1.975c-1.314,0 -1.974,0.664 -3.287,1.975l-1.316,3.286l1.316,3.942c1.313,0.662 1.973,1.322 3.287,1.322c1.313,0 2.631,-0.66 3.289,-1.322l1.973,-3.942Z" style="fill:#333;fill-rule:nonzero;"/><path d="M348.505,407.991c0,-3.288 -1.315,-4.599 -4.604,-4.599c-3.289,0 -4.605,1.311 -4.605,4.599c0,2.634 1.317,4.604 4.605,4.604c3.288,0 4.604,-1.97 4.604,-4.604Z" style="fill:#333;fill-rule:nonzero;"/><path d="M341.271,426.41c0,-3.289 -1.316,-5.268 -4.604,-5.268c-3.288,0 -5.261,1.979 -5.261,5.268c0,2.627 1.973,3.942 5.261,3.942c3.288,0 4.604,-1.315 4.604,-3.942Z" style="fill:#333;fill-rule:nonzero;"/><path d="M347.188,492.174c0,-3.288 -1.316,-4.609 -3.945,-4.609c-1.973,0 -2.63,0 -3.288,1.321c-1.314,0.655 -1.973,1.965 -1.973,3.288c0,3.289 1.973,4.601 5.261,4.601c2.628,-0.002 3.945,-1.312 3.945,-4.601Z" style="fill:#333;fill-rule:nonzero;"/><path d="M328.775,500.061c0,-2.632 -1.317,-4.598 -4.604,-4.598c-3.289,0 -5.261,1.966 -5.261,4.598c0,3.289 1.972,5.269 5.261,5.269c3.287,-0.002 4.604,-1.98 4.604,-5.269Z" style="fill:#333;fill-rule:nonzero;"/><path d="M344.559,515.192c0,-2.634 -1.315,-4.611 -4.604,-4.611c-2.631,0 -4.604,1.979 -4.604,4.611c0,3.287 1.974,5.253 4.604,5.253c3.287,0 4.604,-1.966 4.604,-5.253Z" style="fill:#333;fill-rule:nonzero;"/><path d="M86.761,69.304c0,-3.288 -1.971,-5.259 -4.602,-5.259c-1.317,0 -1.975,1.317 -3.288,1.972l-1.975,3.288l1.975,3.289c1.313,1.317 1.971,1.317 3.288,1.317c2.631,-0.001 4.602,-1.318 4.602,-4.607Z" style="fill:#333;fill-rule:nonzero;"/><path d="M115.696,75.226l-1.313,-3.288c-1.316,-0.655 -1.975,-1.317 -3.288,-1.317c-1.317,0 -2.631,0.662 -3.288,1.317c-1.317,1.31 -1.975,1.972 -1.975,3.288l1.975,3.944c0.657,1.316 1.971,1.316 3.288,1.316l3.288,-1.316l1.313,-3.944Z" style="fill:#333;fill-rule:nonzero;"/><path d="M108.464,46.288l-1.315,-3.289c-0.659,-0.655 -2.631,-1.311 -3.947,-1.311c-0.658,0 -1.972,0.655 -3.288,1.311c-0.659,1.316 -1.313,2.633 -1.313,3.289l1.313,3.943c1.316,0.662 2.63,1.322 3.288,1.322l3.947,-1.322l1.315,-3.943Z" style="fill:#333;fill-rule:nonzero;"/><path d="M157.13,26.558c0,-3.289 -1.317,-4.599 -4.605,-4.599c-3.288,0 -5.259,1.311 -5.259,4.599c0,3.288 1.971,4.605 5.259,4.605c3.288,0 4.605,-1.317 4.605,-4.605Z" style="fill:#333;fill-rule:nonzero;"/><path d="M146.607,42.344c0,-3.288 -1.316,-4.604 -4.605,-4.604c-3.288,0 -4.602,1.317 -4.602,4.604c0,3.289 1.314,4.599 4.602,4.599c3.289,-0.001 4.605,-1.311 4.605,-4.599Z" style="fill:#333;fill-rule:nonzero;"/><path d="M362.972,39.056c-1.313,-0.655 -2.631,0 -3.289,1.971c-7.89,21.046 -19.069,44.063 -33.54,70.37l-20.385,32.227c-1.315,0.655 -1.315,2.626 0.654,3.943l3.947,-1.316l19.729,-32.882c14.47,-25.645 26.306,-49.323 34.198,-71.024c1.317,-1.318 0.001,-2.634 -1.314,-3.289Z" style="fill-rule:nonzero;"/><path d="M320.224,154.143c-5.917,-16.441 -9.863,-30.249 -12.492,-42.091c-3.289,-15.125 -2.632,-38.142 1.97,-69.053c1.976,-15.125 4.605,-29.594 7.234,-42.747l-23.018,0c-6.576,35.516 -9.864,64.455 -9.864,88.127c-0.657,11.836 1.976,27.615 7.234,48.006c3.946,16.441 5.261,26.306 3.288,28.933c-2.629,5.267 -13.813,15.131 -33.54,27.629c-2.63,-10.527 -6.577,-34.205 -11.836,-71.031l-7.234,-57.209c0,-3.951 -1.972,-7.239 -4.604,-8.556l-7.23,-1.31c-1.316,0.655 0,23.018 4.602,68.392l9.205,80.233c-62.477,39.458 -114.429,67.074 -154.544,84.177l-7.232,-5.26c-5.263,-1.978 -9.209,-2.633 -11.84,-1.316l-14.465,7.893c-5.922,3.942 -9.21,8.547 -8.551,12.497c2.629,20.385 19.729,59.845 50.64,119.688c42.747,80.896 89.439,141.394 140.077,182.167l152.572,-3.947l-158.496,-166.379c23.678,-21.707 69.055,-57.223 134.159,-108.512l0,-24.34c-15.124,13.151 -65.104,51.301 -149.94,115.748c-38.146,-41.43 -64.451,-74.313 -78.917,-99.308l98.646,-71.018l55.241,-39.458c15.784,-10.527 25.646,-19.73 28.936,-25.651c3.288,-5.92 3.288,-14.468 -0.001,-26.304Z" style="fill:#858585;fill-rule:nonzero;"/><path d="M51.907,311.979l-2.63,-0.655c-0.658,0.655 -1.317,1.965 -0.658,2.627l14.466,21.046l30.91,41.43l58.53,66.429c71.027,78.255 111.141,124.288 121.004,138.104l1.977,0.655c1.313,-0.655 1.973,-1.316 1.313,-2.634c-10.52,-15.125 -51.295,-61.158 -121.005,-139.414l-58.53,-65.767l-30.911,-40.782l-14.466,-21.039Z" style="fill-rule:nonzero;"/><path d="M101.23,423.121l-2.629,0.655c-0.658,1.311 -0.658,1.311 0,2.634l47.349,47.346c32.883,32.882 53.271,55.244 62.476,67.08l48.665,58.527l3.289,0.661c0.657,-0.661 0.657,-1.973 0,-3.289l-48.666,-58.525c-9.206,-11.188 -30.253,-34.205 -63.134,-67.087l-47.35,-48.002Z" style="fill-rule:nonzero;"/><g><path d="M60.455,286.328l-3.289,-0.655c-0.658,1.31 -0.658,1.971 0,2.632l23.676,32.22c19.072,23.02 36.171,40.776 51.953,53.93c13.154,11.175 36.171,36.171 68.395,76.284c-30.907,-42.093 -52.611,-68.397 -65.764,-78.919c-15.784,-13.152 -32.882,-31.563 -51.953,-54.582l-23.018,-30.91Z" style="fill-rule:nonzero;"/><path d="M314.965,590.16l-21.704,-28.277c-28.937,-38.148 -55.241,-69.709 -78.918,-95.357l75.63,97.327l22.361,29.596l2.631,0c1.313,-0.662 1.313,-1.972 0,-3.289Z" style="fill-rule:nonzero;"/></g><path d="M251.171,479.022c-0.657,0 -1.971,0 -2.629,0c-1.317,1.311 -1.317,1.966 0,3.286l37.487,42.087c25.646,29.595 42.087,49.321 49.32,59.849l2.632,0.655c1.313,-0.655 1.973,-1.315 0.657,-2.635c-7.233,-10.519 -23.675,-30.248 -48.668,-59.842l-38.799,-43.4Z" style="fill-rule:nonzero;"/><path d="M319.565,-1.719l-2.631,-1.317l-23.018,0c-1.972,0 -2.63,1.317 -3.288,2.634c-6.576,36.17 -9.865,65.764 -9.865,88.781l-0.658,0.655c0,11.843 2.635,28.939 7.894,49.979l4.606,21.707l-0.658,3.289c-1.977,3.941 -11.842,11.836 -29.594,23.672c-1.976,-13.807 -5.92,-36.826 -10.522,-69.708l-6.577,-53.266c0,-4.612 -1.973,-7.9 -4.604,-10.527c-3.289,-1.972 -6.577,-3.288 -11.178,-2.627l-1.977,1.31c-0.655,1.317 -1.313,4.605 -1.313,7.893c0,7.893 1.972,28.933 5.26,62.477c3.945,40.776 6.576,66.426 8.552,78.917c-61.162,37.487 -111.145,65.102 -149.945,81.544c-9.207,-6.577 -16.441,-8.542 -21.701,-5.253l-5.918,3.288l-13.153,7.886c-3.946,3.945 -5.92,7.894 -5.263,12.498c0,5.26 5.263,17.75 13.153,38.804c11.182,26.961 23.676,53.921 37.487,80.883c43.405,82.206 90.753,143.371 141.393,184.142l1.972,0.66l152.573,-3.948l3.289,-1.311l0,-1.979l-0.658,-1.966l-155.862,-164.412c24.332,-21.707 67.737,-56.563 130.214,-105.885l1.973,-2.627l0,-24.34l-2.631,-3.287l-3.288,0.659l-146.652,114.43c-35.517,-38.799 -61.164,-70.363 -74.975,-94.697c33.541,-23.018 65.766,-46.034 96.018,-69.053l36.828,-26.304l31.564,-22.356c7.895,-6.577 13.812,-12.498 16.441,-17.104c1.977,-3.288 3.288,-7.893 3.288,-13.152c0,-5.259 -1.972,-15.125 -6.576,-27.622l-8.549,-30.249c-1.316,-6.577 -1.972,-14.47 -1.972,-23.018c0,-24.334 3.943,-53.928 11.178,-86.81l0,-1.319l-0.657,-1.971Zm-23.016,5.26l16.44,0c-7.231,37.486 -10.521,65.108 -10.521,84.838c0,9.865 0.655,17.096 1.973,24.328l9.206,31.573c3.947,12.498 5.918,21.039 5.918,24.988c0,3.949 -1.313,7.238 -2.631,9.864c-2.629,3.95 -7.89,9.865 -15.781,16.442l-29.595,21.045l-37.486,26.306c-28.937,21.701 -61.817,45.379 -98.646,71.024l-1.314,2.627l0,1.322c14.466,25.646 41.431,58.525 80.23,100.611l4.604,0c73,-55.238 121.008,-92.07 144.024,-111.139l0,15.779l-58.529,45.381c-35.513,28.283 -59.847,48.669 -74.313,61.166l-1.317,2.628l0,0.66l0.66,1.965l153.886,161.784l-144.682,3.289c-49.981,-40.775 -96.016,-100.619 -138.105,-180.854c-13.811,-26.305 -26.305,-53.271 -36.829,-79.579c-8.548,-21.04 -13.152,-34.192 -13.152,-38.136l0,-0.66c0,-3.949 4.604,-8.548 14.469,-12.493l7.234,-3.948l6.577,0.661c3.288,1.31 5.918,2.626 7.89,5.253l3.288,0c40.776,-16.442 92.729,-44.713 155.205,-84.17l1.971,-2.634l0,-0.654c-1.971,-7.901 -5.259,-31.574 -8.548,-69.715c-3.288,-39.458 -5.917,-63.793 -5.917,-74.312l3.287,0.655c1.973,1.316 2.63,2.633 2.63,5.921l7.235,57.871c5.259,36.17 9.206,59.849 11.836,70.368l1.316,2.635l3.289,-0.662c21.041,-13.154 32.223,-23.018 35.511,-28.277l1.317,-6.577l-4.605,-23.018c-5.26,-22.362 -7.893,-38.803 -7.893,-48.668l0.657,-0.655c0.004,-21.041 3.292,-49.318 9.211,-84.833Z" style="fill-rule:nonzero;"/><path d="M197.9,590.16c-38.798,-19.067 -84.833,-49.985 -140.734,-90.755l-71.682,-56.554l-6.576,11.828l71.683,55.9c55.899,41.437 101.934,72.34 140.734,91.416l6.575,-11.835Z" style="fill:#858585;fill-rule:nonzero;"/><path d="M199.219,587.533c-37.487,-19.074 -83.522,-49.323 -138.764,-90.104l-73,-57.21l-2.629,-0.654l-1.972,1.966l-6.577,11.186c-1.315,1.966 -1.315,3.289 0.659,4.601l72.996,56.555c55.9,41.436 101.935,71.686 139.421,90.76c2.629,1.312 3.287,1.312 4.604,-1.316l6.576,-11.835l0.655,-1.979l-1.969,-1.97Zm-5.918,3.944l-3.945,5.922c-55.243,-28.283 -123.638,-76.29 -206.5,-143.372l3.289,-5.92l79.575,61.166c49.976,36.822 92.723,64.445 127.581,82.204Z" style="fill-rule:nonzero;"/><path d="M80.185,100.215c-4.601,41.431 -3.946,89.444 1.316,144.681c11.836,108.512 44.06,196.633 96.017,263.72l130.213,-5.268c-55.242,-64.447 -90.1,-151.259 -105.882,-260.425c-7.234,-53.928 -9.865,-101.935 -6.578,-143.371l-115.086,0.663Z" style="fill:#f00;fill-rule:nonzero;"/><path d="M197.247,96.927l-1.976,-0.662l-115.745,0.662c-1.972,0 -2.63,1.317 -2.63,3.288c-4.602,42.748 -3.946,91.409 1.975,145.999c11.836,109.822 44.06,197.292 96.013,264.368c0.659,1.323 1.976,1.323 2.634,1.323l130.213,-5.268l3.286,-1.31c0,-1.323 0,-2.634 -0.657,-3.289c-54.583,-64.454 -88.781,-150.604 -104.565,-257.804c-7.893,-53.921 -10.521,-101.934 -7.234,-144.02l-1.314,-3.287Zm-5.922,5.915l-0.655,28.284c0,57.21 5.919,112.455 18.413,166.382c18.413,82.205 49.323,150.599 92.07,203.208l-122.321,4.612c-37.485,-48.669 -64.449,-109.174 -80.89,-182.831c-11.181,-51.294 -17.757,-105.223 -17.757,-161.777c0,-21.707 1.316,-40.775 2.63,-57.216l108.51,-0.662Z" style="fill-rule:nonzero;"/><path d="M142.661,139.013c-0.659,-1.311 -1.972,-2.627 -3.288,-1.311l-24.989,3.288l-13.154,0c-1.316,-0.655 -2.629,0 -3.288,1.972c0,1.317 1.313,2.627 2.629,3.288l14.47,0c10.52,0 19.071,-1.316 25.647,-3.288l1.973,-3.949Z" style="fill-rule:nonzero;"/><path d="M121.618,121.916c-1.976,-0.655 -2.633,0 -2.633,1.979l-3.289,32.221c0,23.017 5.263,42.747 15.128,57.216l3.288,0.655c1.972,-1.31 1.972,-1.971 1.314,-3.944c-9.865,-13.807 -14.467,-32.227 -14.467,-55.244l2.63,-30.249c0.659,-1.317 -0.658,-2.634 -1.971,-2.634Z" style="fill-rule:nonzero;"/><path d="M139.373,156.115l-1.313,-1.972c-1.975,-0.655 -2.633,0 -3.288,1.31l-5.263,15.786c-5.918,2.635 -10.523,5.921 -15.125,9.21c-3.947,3.288 -7.234,6.577 -9.865,11.175c-3.288,3.95 -4.604,7.238 -4.604,10.526l0,2.626c0.658,1.979 2.63,3.951 5.918,3.951c8.551,0.661 17.758,-9.865 26.963,-33.542l22.36,-1.311c5.263,3.287 8.55,6.576 9.864,10.519c0.658,5.267 -1.971,11.182 -7.89,19.074l-16.441,19.075l-1.975,2.626c-5.919,5.917 -7.89,10.526 -5.919,14.47c1.317,4.598 5.264,6.577 11.182,6.577l3.288,-1.979c0,-2.627 -1.316,-3.288 -2.63,-3.288c-3.946,0 -6.576,-1.31 -7.235,-3.287c-1.316,-1.966 0.659,-4.599 4.602,-8.543l2.633,-2.632l17.755,-21.046c5.918,-8.549 7.893,-15.78 7.235,-21.701c-0.659,-5.922 -4.605,-10.521 -12.495,-14.47l-21.046,-0.661l3.289,-11.175l0,-1.318Zm-21.702,28.277l8.549,-5.26c-7.89,16.442 -14.466,24.99 -19.729,24.334l-1.313,-0.654l-0.659,-0.663c-0.001,-3.949 4.601,-9.864 13.152,-17.757Z" style="fill-rule:nonzero;"/><path d="M129.508,285.018l7.235,-0.661c2.63,-2.628 5.918,-6.577 7.235,-13.153l1.972,-11.182l0,-0.656l7.234,1.973c5.26,3.288 7.235,7.239 7.235,13.153c-0.659,3.949 -2.63,7.893 -5.263,12.491c-3.289,3.949 -6.577,6.577 -10.521,7.898c-1.975,0 -2.633,1.967 -1.975,3.289c0.658,1.966 1.975,1.966 3.289,1.966c5.263,-1.966 9.864,-5.255 13.153,-9.865c3.288,-5.253 5.917,-10.52 5.917,-15.78c0.658,-7.239 -2.629,-13.153 -9.207,-17.758l-19.07,0.654c-3.947,1.978 -6.577,5.267 -9.206,9.865c-1.976,3.951 -3.289,7.9 -2.631,11.188c0.656,3.289 1.972,5.916 4.603,6.578Zm0.658,-7.238l-0.658,-0.663c0,-2.626 1.317,-5.253 3.288,-7.887c1.317,-3.289 3.947,-5.267 6.577,-7.23l1.316,-0.662c-1.316,9.865 -3.946,16.442 -6.577,18.413l-2.629,0.655l-1.317,-2.626Z" style="fill-rule:nonzero;"/><path d="M152.525,311.322c-0.658,-1.322 -1.972,-1.322 -3.288,-0.662l-1.971,1.973l0,1.316l11.836,29.595c-11.836,1.315 -18.413,3.288 -20.388,7.894l-1.314,2.633c0,3.287 1.972,5.914 5.26,7.231l12.495,3.287c5.263,0 8.55,-1.315 10.522,-3.942l1.317,-4.61l-1.317,-7.231l3.947,0.655c9.207,0 13.811,0.66 13.811,3.288l0,0.661c0,2.627 -1.316,4.604 -5.263,6.575c-1.313,0.662 -2.63,1.317 -2.63,3.289l0.658,0c0.658,1.972 1.316,2.627 2.631,1.972l7.233,-3.942c2.629,-2.635 3.289,-5.923 2.629,-9.865c-0.657,-3.941 -5.259,-6.576 -13.812,-7.23l-10.519,-0.661c-1.972,-9.208 -5.919,-19.735 -11.837,-32.226Zm-7.234,45.373l-2.63,-2.627l0.658,-0.66c0.659,-1.973 6.577,-3.289 17.1,-3.949l1.313,6.576l0,1.32l-7.231,1.969l-9.21,-2.629Z" style="fill-rule:nonzero;"/><path d="M171.596,316.576c-1.313,-1.965 -1.971,-2.627 -3.288,-1.965l-15.783,3.287c0,0 -0.658,0 -1.313,0.653l-0.659,1.974c0,1.315 1.313,2.625 2.63,2.625l17.099,-3.287c1.973,-0.653 1.973,-1.965 1.314,-3.287Z" style="fill-rule:nonzero;"/><path d="M160.418,382.341c-1.975,-0.655 -3.289,0 -3.289,1.323c0,1.965 0,2.625 1.972,3.289l4.604,0.654l10.522,-1.318l-10.522,20.393l-0.658,1.965l0.658,1.324l3.289,0.654c3.288,-1.979 8.548,-3.943 13.153,-5.268l15.125,-1.965l2.629,2.625l-1.313,5.916c-1.975,3.289 -6.576,6.576 -13.153,8.555l-15.782,3.288l-2.634,1.311l0,2.633l21.047,38.806c4.604,7.886 9.863,13.152 16.439,16.438l21.045,1.312c5.262,-3.286 8.549,-12.491 10.521,-28.271l0.658,-25.65c0,-1.315 -1.313,-1.979 -2.631,-1.979c-1.971,0 -3.287,0.662 -3.287,1.979c0.658,10.521 0.658,19.73 -0.658,28.939c-1.313,11.83 -3.289,18.406 -7.234,19.729l-16.441,-0.662c-5.26,-2.627 -9.863,-7.237 -13.152,-13.814l-19.729,-36.171l17.1,-3.943c5.919,-2.633 9.863,-5.92 12.494,-9.207l1.976,-7.232l-0.658,-4.598c-0.657,-2.635 -3.288,-3.951 -5.918,-4.612c-5.264,-1.966 -13.812,-0.655 -24.334,3.288l9.864,-21.039l0,-0.655l-0.659,-2.633c-1.313,-0.654 -2.628,-0.654 -3.287,0c-5.92,4.596 -11.18,5.919 -17.757,4.596Z" style="fill-rule:nonzero;"/><path d="M359.683,308.689c0,-7.894 -5.259,-13.81 -14.467,-17.098l-13.811,-1.979c-0.658,-3.942 -1.976,-7.23 -4.605,-11.174c-5.259,-7.237 -12.493,-11.188 -21.042,-12.499c-8.551,-0.653 -15.785,3.289 -21.703,11.838c-2.631,4.604 -4.604,9.203 -5.919,13.152l-11.181,1.317c-8.549,1.972 -12.496,7.887 -14.467,16.44c-1.317,8.547 1.971,15.123 9.865,21.037c4.602,3.289 8.547,4.612 12.494,5.924l61.817,-0.655c3.946,-1.316 7.893,-3.289 11.839,-5.921c8.55,-5.258 11.838,-12.495 11.18,-20.382Z" style="fill:#d96038;fill-rule:nonzero;"/><path d="M285.371,271.203c-3.947,3.949 -7.234,9.865 -9.865,16.44c-5.263,0 -10.523,1.317 -15.127,3.949c-5.92,3.288 -9.865,9.204 -11.179,16.441c-0.658,8.542 1.971,15.779 7.89,21.693c4.604,3.95 10.523,7.239 17.1,9.211l62.478,-0.654l0.657,-0.655l13.151,-6.575c8.55,-5.268 12.496,-12.501 12.496,-21.054l0,-1.966c0,-7.237 -3.946,-12.497 -10.522,-16.441c-5.26,-3.289 -11.178,-4.61 -18.413,-5.265c-5.26,-14.464 -14.47,-22.364 -27.623,-23.674c-8.55,-0.653 -15.126,1.973 -21.043,8.55Zm19.729,-1.973c7.891,1.31 14.467,4.599 19.071,11.175l4.604,9.865c0.654,1.322 1.972,2.631 3.289,2.631l11.836,1.979c7.893,2.627 12.493,7.231 12.493,13.81l0,1.31c0,9.863 -6.575,17.104 -20.389,21.706l-60.5,0.657c-13.151,-3.945 -19.729,-10.521 -19.729,-20.387l0,-2.633c1.313,-7.232 5.261,-11.837 11.838,-13.808l10.521,-1.315c1.971,0 3.288,-0.663 3.288,-2.629c0.658,-3.949 3.289,-7.899 5.261,-11.842c4.605,-7.885 11.181,-11.172 18.417,-10.519Z" style="fill-rule:nonzero;"/><path d="M334.035,313.949c-5.919,-11.182 -15.125,-16.441 -26.963,-16.441c-11.838,0 -20.389,5.914 -25.648,16.441c-3.288,4.604 -4.604,9.863 -5.26,15.777c10.52,5.269 24.331,7.24 41.432,5.269l23.018,-4.604c-1.319,-5.914 -3.291,-10.528 -6.579,-16.442Z" style="fill:#ffe700;fill-rule:nonzero;"/><path d="M308.388,338.284c0,-3.944 -0.656,-7.894 -3.945,-11.183c-3.288,-3.951 -7.894,-5.914 -13.153,-6.576c-5.917,-0.662 -9.864,0 -13.811,2.625c-4.604,1.979 -6.576,5.925 -7.234,10.527c-0.654,3.95 0.658,7.893 3.945,11.182c3.289,3.943 7.234,5.921 13.152,6.576c5.264,0.654 9.865,-0.656 13.813,-2.633c4.603,-2.632 6.575,-5.92 7.233,-10.518Z" style="fill:#d96038;fill-rule:nonzero;"/><path d="M304.441,350.119c3.945,-2.625 6.575,-6.575 7.233,-11.182l0,-1.971c0,-3.951 -1.315,-7.24 -3.944,-10.527c-3.289,-5.252 -9.208,-8.541 -16.442,-9.203c-6.575,-0.66 -13.151,0 -17.758,4.604c-3.941,2.634 -5.917,5.923 -6.575,11.175c-1.314,4.612 0.658,9.865 4.604,13.815c3.947,4.604 9.207,6.575 15.125,7.894c7.234,1.311 13.154,-0.656 17.757,-4.605Zm-16.442,-1.971c-4.604,-0.654 -7.894,-1.979 -11.181,-4.604c-2.629,-3.288 -3.943,-6.576 -3.289,-9.864c0,-2.625 1.318,-5.262 3.949,-6.576c3.285,-3.289 7.233,-3.951 13.15,-3.289c5.919,0.662 9.865,3.289 12.495,6.578c1.316,2.625 1.975,4.604 1.975,7.893c-0.657,2.632 -1.315,5.26 -3.945,6.576c-3.289,2.632 -7.892,3.943 -13.154,3.286Z" style="fill-rule:nonzero;"/><path d="M347.188,334.34c-0.658,-3.947 -2.63,-7.236 -6.575,-10.525c-4.606,-2.625 -9.207,-3.289 -14.471,-2.625c-5.261,0 -9.863,2.625 -13.152,5.914c-3.289,3.289 -5.259,7.236 -4.603,11.182c0,4.598 2.63,8.548 6.577,10.52c4.602,2.633 9.206,3.943 14.466,3.287c5.263,-0.654 9.864,-2.632 13.152,-5.921c3.289,-3.29 4.606,-7.888 4.606,-11.832Z" style="fill:#d96038;fill-rule:nonzero;"/><path d="M344.559,348.148c4.603,-4.604 5.917,-8.557 5.917,-14.471c-0.656,-3.951 -2.629,-7.893 -6.574,-10.527c-5.262,-4.599 -11.182,-5.914 -17.759,-5.252c-6.576,0.653 -11.836,2.627 -15.782,7.23c-3.947,3.945 -5.918,8.549 -5.261,13.809c0,4.605 2.632,9.211 7.891,12.498c4.605,3.289 10.522,4.6 17.1,3.942c5.915,-0.65 10.521,-2.63 14.468,-7.229Zm-0.659,-13.153l0,1.312c0,2.633 -1.317,5.266 -3.946,7.898c-3.288,2.627 -6.576,3.943 -10.523,4.6l-11.835,-1.973c-3.289,-2.627 -5.92,-5.262 -5.92,-8.548c-0.658,-3.944 1.313,-6.578 3.947,-9.209c2.629,-2.636 6.576,-4.601 11.177,-5.263c4.605,0 9.206,0.662 13.154,3.951c2.629,2.63 3.946,4.6 3.946,7.232Z" style="fill-rule:nonzero;"/><path d="M297.207,290.932c0,-1.317 -1.313,-1.971 -2.631,-1.317c-1.315,0.657 -1.315,1.317 -1.315,2.635l5.922,21.7c0.655,0.661 1.313,1.315 2.629,0.661c1.313,0 1.973,-0.661 1.313,-2.633l-5.918,-21.046Z" style="fill-rule:nonzero;"/><path d="M312.989,314.611l6.576,-21.709l-2.631,5.924c-1.969,5.258 -3.287,10.52 -3.945,15.785Z" style="fill:#da8e55;fill-rule:nonzero;"/><path d="M320.224,290.932c-1.313,0 -2.628,0 -2.628,0.661l-2.631,7.233l-3.947,15.123c0,1.316 0,2.627 1.973,2.627l1.316,-1.965l3.945,-14.477l2.63,-5.914c0.659,-1.971 0.659,-2.627 -0.658,-3.288Z" style="fill-rule:nonzero;"/><path d="M335.351,298.17c-1.314,-0.662 -1.973,-0.662 -2.631,0l-5.262,7.23l-2.628,5.922c-0.659,0.654 0,1.965 1.313,2.627l1.975,-0.662c3.289,-5.915 5.919,-9.865 7.233,-12.49l0,-2.627Z" style="fill-rule:nonzero;"/><path d="M280.766,299.48c-0.658,-1.312 -1.972,-1.312 -2.629,0c-0.658,1.315 -0.658,1.977 0,2.631c5.918,5.261 9.862,9.211 10.522,11.838l2.629,0.662c1.317,0 1.974,-0.662 0.659,-2.635l-5.264,-7.23l-5.917,-5.266Z" style="fill-rule:nonzero;"/><path d="M308.388,206.101l13.153,-3.951c9.206,-3.288 14.465,-9.865 15.125,-17.758c0.657,-7.887 -2.631,-13.807 -10.523,-19.074l-13.152,-4.599l-2.63,-11.843c-3.947,-7.887 -9.864,-13.808 -19.071,-15.78c-7.893,-2.627 -16.439,0 -23.018,7.238l-7.893,11.83l-11.837,-1.31c-7.894,1.31 -13.812,5.26 -17.101,13.807c-2.629,7.894 -0.657,15.787 5.92,22.364c3.945,3.943 7.234,6.575 11.181,8.548l59.846,10.528Z" style="fill:#d96038;fill-rule:nonzero;"/><path d="M316.278,158.087c-2.631,-15.125 -10.521,-24.328 -24.331,-28.277c-7.234,-1.972 -14.469,-1.317 -21.047,3.949c-5.26,3.943 -9.207,9.204 -12.494,15.118l-16.44,0.661c-6.577,1.972 -10.522,6.577 -13.153,14.471c-3.287,7.23 -1.972,15.123 3.287,21.699c3.289,5.916 8.551,9.866 15.125,12.492l0.659,0.662l60.504,10.525l0.658,0c4.603,0 9.206,-1.323 15.125,-3.949c9.864,-3.951 15.124,-11.181 15.783,-20.391l0.658,-2.627c0,-6.575 -3.289,-11.835 -9.207,-16.44c-3.947,-3.95 -9.206,-6.577 -15.127,-7.893Zm-25.648,-21.702c7.234,1.317 13.153,6.577 16.442,13.153l2.628,11.182c0,1.971 1.316,3.289 2.634,3.289c2.631,0 5.918,1.31 11.179,3.288c6.576,3.942 9.865,8.548 9.865,15.123l0,1.317c-0.658,6.577 -5.262,11.836 -12.496,15.125l-11.836,3.951l-59.846,-10.528c-10.523,-6.577 -15.782,-13.153 -15.782,-20.39l1.313,-5.916c2.631,-6.576 7.235,-10.526 13.813,-11.836l10.523,1.31c1.971,0.662 2.627,0 3.945,-1.965l7.891,-10.526c5.915,-6.577 12.493,-8.548 19.727,-6.577Z" style="fill-rule:nonzero;"/><path d="M290.63,202.813c7.894,0.654 15.782,0.654 23.019,-0.663c0,-5.261 -0.658,-11.181 -2.631,-17.103c-4.604,-12.491 -12.494,-19.068 -23.676,-21.039c-11.836,-1.979 -21.042,1.971 -28.936,10.519l-7.235,14.469c9.208,7.893 22.358,13.154 39.459,13.817Z" style="fill:#ffe700;fill-rule:nonzero;"/><path d="M280.766,204.776c1.316,-4.598 0.658,-8.54 -1.972,-12.491c-2.63,-3.949 -6.577,-7.237 -11.181,-8.547c-5.26,-1.978 -9.865,-1.978 -15.125,0c-3.946,1.31 -7.234,4.598 -8.553,8.547c-1.971,3.951 -1.313,7.893 1.977,12.491c2.63,3.951 6.576,6.577 11.836,7.9l13.811,0.655c4.605,-1.316 7.235,-4.604 9.207,-8.555Z" style="fill:#d96038;fill-rule:nonzero;"/><path d="M284.713,200.178l-1.973,-7.893c-3.289,-5.914 -7.893,-9.865 -14.469,-11.835l-19.071,0.655c-3.946,2.633 -7.234,5.922 -8.552,10.52c-1.973,3.95 -1.313,8.554 1.316,13.152c3.288,5.267 7.234,9.21 14.469,11.188l18.414,-0.661c4.604,-2.627 7.233,-5.917 9.205,-9.865l0.661,-5.261Zm-7.234,3.288c-0.658,1.972 -2.631,4.598 -5.92,5.921l-13.151,0.655c-4.605,-1.316 -7.894,-4.604 -10.522,-8.555c-1.972,-2.626 -1.972,-5.914 -0.658,-8.541c0.658,-1.978 1.976,-3.951 5.264,-5.921l13.152,-0.655c5.918,1.965 9.207,5.253 11.178,9.203c1.314,2.627 1.314,4.605 0.657,7.893Z" style="fill-rule:nonzero;"/><path d="M319.565,208.064c0,-4.598 -1.313,-8.541 -5.26,-11.829c-3.289,-3.289 -7.233,-5.267 -13.152,-5.922c-5.261,0 -9.865,1.31 -13.813,3.287c-3.946,3.289 -5.918,6.577 -6.577,11.175c0,3.951 0.659,7.239 4.606,11.188c3.288,3.289 7.89,5.253 13.151,5.916c5.919,0 9.864,-0.663 14.467,-3.289c3.949,-3.286 5.923,-6.575 6.578,-10.526Z" style="fill:#d96038;fill-rule:nonzero;"/><path d="M301.153,187.026c-5.919,-0.655 -11.183,1.31 -16.44,4.598c-3.947,3.287 -6.576,7.238 -7.234,12.498c0,5.265 1.315,9.864 5.918,13.808c3.945,3.951 8.552,6.577 15.127,7.237c5.919,0 11.837,-1.315 15.783,-4.604c5.26,-3.288 7.894,-7.886 8.549,-12.498c0,-5.252 -1.974,-9.865 -5.92,-13.807c-3.947,-4.599 -9.206,-6.577 -15.783,-7.232Zm-11.837,9.21c3.289,-1.979 7.231,-2.635 11.837,-2.635c3.945,0.657 7.233,1.973 10.521,4.599c2.631,1.978 4.604,5.267 4.604,8.555l0,0.657c-0.655,3.941 -1.973,5.92 -5.919,7.893c-3.287,2.626 -7.234,3.288 -11.837,3.288c-3.946,-0.662 -7.234,-1.973 -10.523,-5.261c-3.286,-1.979 -3.944,-5.267 -3.944,-8.555c0.658,-3.289 1.974,-5.915 5.261,-8.541Z" style="fill-rule:nonzero;"/><path d="M278.136,156.115c0,-1.972 -0.657,-1.972 -1.972,-1.972c-1.316,0 -1.316,0 -1.316,1.972l1.973,21.7c0,1.979 0.658,2.634 1.315,1.979l1.972,-1.979l-1.972,-21.7Z" style="fill-rule:nonzero;"/><path d="M301.153,160.065l-3.289,0.655l-3.288,5.26l-6.577,15.125c-0.657,1.316 0,1.978 0.66,2.633c1.313,0 2.629,0 2.629,-1.317l6.576,-14.47l3.289,-5.259c1.317,-1.317 0.66,-1.972 0,-2.627Z" style="fill-rule:nonzero;"/><path d="M314.307,169.929c-0.658,-1.322 -1.316,-1.979 -2.631,-0.661c-2.63,1.971 -6.576,5.917 -9.864,11.182c-0.657,1.31 -0.657,1.971 0,3.288l3.288,-0.655c4.602,-5.922 7.234,-9.208 9.207,-10.526c0.658,-0.662 0.658,-1.972 0,-2.628Z" style="fill-rule:nonzero;"/><path d="M261.036,160.72l-3.288,0c-0.658,0.655 -0.658,1.971 0,3.289c4.605,5.92 7.234,9.865 7.893,12.497c0.659,1.31 1.974,1.31 2.631,1.31l1.973,-1.971l-5.262,-8.548l-3.947,-6.577Z" style="fill-rule:nonzero;"/><path d="M67.689,456.659c-8.547,0 -15.125,4.598 -19.729,14.464c-1.971,4.61 -3.946,8.555 -3.946,13.151c-3.946,0 -7.89,1.322 -11.836,2.634c-7.235,3.287 -11.84,9.21 -11.84,17.758c-0.655,8.549 3.289,15.124 11.84,20.391c4.602,1.966 8.548,3.288 13.153,3.943l61.16,-7.231l11.181,-7.898c7.235,-6.576 9.866,-13.153 8.549,-21.695c-1.314,-7.898 -6.577,-12.496 -16.441,-14.475l-13.153,-1.312l-6.577,-9.863c-5.919,-7.233 -13.154,-10.522 -22.361,-9.867Z" style="fill:#d96038;fill-rule:nonzero;"/><path d="M48.619,463.235c-3.946,5.26 -6.576,11.175 -7.893,17.753c-5.918,1.32 -10.522,3.286 -15.125,5.92c-5.263,3.941 -8.551,10.521 -8.551,17.758l0,1.317c0,7.886 3.288,14.462 9.865,19.072c5.263,3.943 11.181,6.576 17.757,7.231l1.316,0l60.501,-7.231l1.317,-0.661c4.601,-1.972 8.548,-4.604 12.494,-8.55c7.893,-7.229 10.523,-15.13 9.207,-23.672c-1.314,-7.898 -5.26,-13.15 -12.495,-15.785c-5.918,-1.979 -11.181,-3.288 -18.413,-3.288c-7.235,-13.808 -17.1,-20.386 -30.911,-19.729c-7.891,0 -14.468,3.289 -19.069,9.865Zm1.972,9.21c4.604,-7.899 9.864,-12.498 17.757,-12.498c7.235,-0.654 13.811,2.633 19.071,8.548l5.918,9.204c0.658,1.323 1.975,1.979 3.288,1.979l13.153,1.312c7.893,1.32 12.495,5.265 13.153,11.841l0,3.289c0,5.921 -1.972,10.52 -7.89,15.786c-3.946,3.288 -7.234,5.252 -9.865,6.575l-59.846,7.231c-4.605,-0.655 -8.551,-1.979 -11.84,-3.943c-6.576,-3.948 -9.864,-9.209 -9.864,-15.784l0,-0.655c0,-7.899 3.289,-12.499 9.864,-15.133c3.289,-1.311 6.577,-2.632 9.866,-2.632c2.632,0 3.287,-0.655 3.287,-2.627c0.66,-3.95 1.976,-8.549 3.948,-12.493Z" style="fill-rule:nonzero;"/><path d="M45.989,522.424l41.431,1.311c8.547,-1.966 15.782,-4.6 22.359,-7.232c-1.971,-5.92 -4.602,-11.173 -8.548,-15.785c-7.235,-9.865 -16.44,-15.118 -28.28,-13.151c-11.178,1.321 -19.729,7.898 -23.673,19.073c-2.634,5.264 -3.289,10.516 -3.289,15.784Z" style="fill:#ffe700;fill-rule:nonzero;"/><path d="M78.871,528.345c0,-4.61 -1.975,-8.555 -5.263,-11.188c-3.946,-3.287 -8.548,-4.598 -13.811,-5.252c-5.918,0 -9.865,1.311 -13.808,4.597c-3.946,2.634 -5.921,6.577 -5.921,10.521c0,4.611 1.975,8.557 5.263,11.188c3.946,3.288 8.548,4.599 13.812,5.254c5.259,0 9.864,-1.311 13.808,-4.599c3.945,-2.634 5.92,-6.578 5.92,-10.521Z" style="fill:#d96038;fill-rule:nonzero;"/><path d="M82.159,528.345c0,-4.61 -1.975,-8.555 -5.263,-12.499c-3.946,-4.604 -9.864,-7.229 -17.099,-7.229c-6.577,0 -12.494,2.626 -17.754,6.576c-3.289,3.941 -5.263,7.886 -5.263,11.828c0,4.611 1.316,8.557 5.263,12.498c3.946,3.944 9.865,6.575 17.1,7.23c7.231,0 13.152,-1.965 17.754,-6.575c3.288,-3.286 4.604,-7.231 5.262,-11.829Zm-6.576,0l-3.289,7.232c-3.288,2.633 -7.234,4.598 -13.152,4.598c-5.263,-0.655 -9.865,-1.965 -12.499,-5.253c-2.63,-2.634 -3.287,-4.612 -3.287,-7.899c0,-1.966 0.657,-4.599 3.287,-7.231c3.947,-2.634 7.894,-4.598 13.153,-4.598c5.263,0 9.209,1.964 12.498,5.253c2.631,2.631 3.289,5.265 3.289,7.898Z" style="fill-rule:nonzero;"/><path d="M116.355,519.79c-0.659,-4.598 -3.288,-7.23 -7.235,-9.864l-14.466,-1.31c-5.263,0.654 -9.864,3.288 -13.153,7.229c-2.63,3.944 -3.288,7.889 -2.63,12.499c1.313,3.943 3.943,6.577 7.89,9.203l14.469,1.317c5.26,-0.655 9.207,-3.288 11.837,-7.232c3.288,-3.287 4.604,-7.899 3.288,-11.842Z" style="fill:#d96038;fill-rule:nonzero;"/><path d="M119.643,519.135c-0.658,-5.266 -3.946,-9.209 -9.206,-11.842c-4.604,-2.627 -10.522,-3.288 -17.099,-1.965c-6.577,1.31 -11.836,4.598 -15.125,10.518c-2.629,3.944 -3.288,9.211 -2.629,13.154c1.313,4.599 4.601,9.21 9.206,11.175l17.099,1.979c5.918,-1.317 11.178,-3.943 14.466,-8.556c3.288,-4.598 4.604,-9.865 3.288,-14.463Zm-6.576,1.31l0.658,1.979c0,2.633 -1.316,5.921 -3.946,7.886l-9.864,5.269l-11.837,-0.655c-3.288,-1.979 -5.263,-4.612 -6.576,-7.9c0,-1.965 0,-5.253 1.972,-7.887c2.629,-3.941 6.576,-6.575 11.181,-7.229l11.836,0.654c3.946,1.969 5.917,4.594 6.576,7.883Z" style="fill-rule:nonzero;"/><path d="M62.43,482.31c-0.658,-1.32 -1.975,-1.32 -2.633,-1.32c-1.313,0.66 -1.313,1.32 -1.313,2.631l8.548,20.386c0,1.323 1.316,1.323 2.63,1.323c1.317,0 1.975,-1.323 0.658,-2.634l-7.89,-20.386Z" style="fill-rule:nonzero;"/><path d="M84.79,479.678c-1.316,-0.654 -1.975,0 -1.975,1.312l-2.63,6.575l-1.313,15.785l1.313,1.979l2.63,-1.323l1.975,-15.119l1.313,-6.575c0.658,-1.324 0,-2.634 -1.313,-2.634Z" style="fill-rule:nonzero;"/><path d="M101.23,484.937l-3.288,0.661c-1.317,1.967 -3.289,6.576 -5.918,13.153c-0.659,1.965 0,2.626 1.313,3.288c1.316,0 1.975,0 2.629,-1.323l5.263,-13.151c1.315,-1.312 0.66,-1.967 0.001,-2.628Z" style="fill-rule:nonzero;"/><path d="M47.303,492.174c-1.314,-0.661 -1.972,-0.661 -3.289,0c-0.657,1.312 -0.657,1.966 0,3.289l10.523,10.521l2.629,0.653c1.317,-0.653 1.317,-1.31 1.317,-2.633l-5.918,-6.576l-5.262,-5.254Z" style="fill-rule:nonzero;"/><path d="M301.153,430.354c5.919,-0.655 9.863,-3.943 13.152,-8.556c3.289,-5.253 4.604,-10.52 3.289,-16.441c-0.66,-5.252 -3.289,-9.864 -8.55,-13.151c-4.604,-3.288 -10.522,-5.252 -15.785,-3.942c-5.262,1.315 -9.865,3.942 -13.81,8.553c-3.287,5.254 -4.604,10.521 -3.287,16.442c1.313,5.253 3.942,9.863 8.549,13.152c5.262,3.943 10.523,5.253 16.442,3.943Z" style="fill:#d96038;fill-rule:nonzero;"/><path d="M293.261,385.629c-6.577,0.66 -11.837,3.949 -15.782,9.863c-3.947,5.268 -5.262,11.188 -3.947,17.766c1.316,6.575 4.604,11.829 9.865,15.117c5.264,3.951 11.181,5.267 17.758,4.611c6.576,-1.322 11.836,-4.611 15.781,-9.865c3.288,-5.92 4.605,-11.842 3.946,-17.764c-1.315,-6.576 -4.604,-12.49 -9.864,-15.779c-5.918,-3.289 -11.18,-5.26 -17.757,-3.949Zm0.657,5.266c4.604,-1.315 9.865,0 13.813,2.635c3.944,3.287 6.575,7.23 7.233,12.49l0.658,3.289c0,4.604 -1.316,8.549 -4.605,11.836c-2.63,3.942 -6.575,5.267 -10.521,6.575c-5.26,0.655 -9.865,-0.654 -13.813,-3.288c-4.602,-2.633 -6.576,-7.229 -7.89,-11.836c-0.658,-5.26 0,-9.863 2.63,-13.813c3.29,-4.599 7.236,-7.233 12.495,-7.888Z" style="fill-rule:nonzero;"/><path d="M301.153,387.607c-0.658,-1.318 -1.315,-1.318 -2.631,-1.318c-1.316,0 -1.975,0.664 -1.315,1.975c0.657,8.553 -1.313,16.439 -6.577,24.994l-8.548,10.52c-0.658,1.311 -1.316,1.973 -0.658,2.634c1.316,1.31 2.631,1.31 3.289,0l9.863,-11.187c5.262,-9.868 7.237,-18.411 6.577,-27.618Z" style="fill-rule:nonzero;"/><path d="M303.125,409.309l-9.864,0.662c-1.313,0 -1.973,1.309 -1.973,1.965l3.288,1.979l7.894,-0.655c5.918,0 10.521,1.966 12.495,5.253l2.631,0c1.314,0 1.971,-1.31 0.656,-2.627c-3.287,-3.95 -7.893,-5.915 -15.127,-6.577Z" style="fill-rule:nonzero;"/><path d="M195.932,70.621c5.918,-1.317 9.862,-3.949 13.812,-8.548c3.288,-5.267 4.601,-10.52 3.288,-16.441c-0.658,-5.267 -3.947,-9.864 -8.553,-13.153c-5.26,-3.288 -10.52,-4.605 -15.783,-3.288c-5.917,0.655 -10.521,3.288 -13.812,8.548c-3.288,4.604 -4.601,9.865 -3.288,15.78c0.659,5.922 3.947,10.526 8.552,13.815c4.601,3.287 9.864,4.604 15.784,3.287Z" style="fill:#d96038;fill-rule:nonzero;"/><path d="M215.659,45.632c-0.658,-6.577 -3.946,-11.843 -9.865,-15.786c-5.918,-3.943 -11.181,-5.26 -17.757,-3.943c-6.577,1.31 -11.836,4.599 -15.782,9.865c-3.289,5.92 -5.26,11.836 -3.289,18.412c0.659,6.576 3.947,11.182 9.866,15.124c5.262,3.289 11.18,4.605 17.1,3.944c6.575,-1.31 12.493,-4.599 15.781,-9.865c3.946,-5.915 5.264,-11.175 3.946,-17.751Zm-4.604,3.944c0,4.604 -1.313,7.893 -3.287,11.181c-3.289,3.951 -7.892,6.577 -12.496,7.238c-5.26,0.655 -9.863,0 -13.812,-2.633c-4.601,-3.289 -6.576,-7.894 -7.889,-12.499c-0.658,-5.259 0,-9.864 3.288,-13.808c2.63,-4.604 6.576,-6.577 11.836,-7.893c4.604,-0.662 9.863,0 13.812,3.288c4.604,3.288 7.235,7.237 7.894,11.836l0.654,3.29Z" style="fill-rule:nonzero;"/><path d="M195.932,27.874l-2.631,-1.316c-1.316,0 -1.316,1.316 -1.316,2.633c0.658,7.887 -0.658,16.441 -6.576,24.989l-8.548,9.865c-0.658,1.317 -0.658,1.972 0,3.289c1.313,1.316 1.973,1.316 3.288,0l9.208,-11.837c5.914,-9.209 7.232,-18.419 6.575,-27.623Z" style="fill-rule:nonzero;"/><path d="M198.561,49.576l-9.865,1.317c-1.313,0 -1.971,0 -1.971,1.971l2.631,1.317l8.547,0c5.264,0 9.865,1.316 12.498,4.605l2.631,0.655c1.313,-0.655 1.313,-1.972 0,-3.289c-2.634,-3.944 -7.895,-5.921 -14.471,-6.576Z" style="fill-rule:nonzero;"/><path d="M252.488,263.964c5.918,-1.31 10.521,-3.942 14.467,-9.203c3.288,-4.604 4.604,-9.865 3.288,-15.78c-1.313,-5.92 -3.943,-10.526 -8.55,-13.814c-5.26,-3.287 -10.522,-3.949 -16.439,-3.287c-5.919,0.661 -9.865,3.948 -13.154,9.203c-3.287,4.61 -4.604,9.863 -3.945,15.13c0.658,5.922 3.945,10.52 9.207,14.462c4.604,3.289 9.863,3.951 15.126,3.289Z" style="fill:#d96038;fill-rule:nonzero;"/><path d="M262.354,223.196c-4.604,-3.943 -10.521,-4.604 -17.1,-3.943c-6.577,0.655 -12.494,3.943 -15.781,9.863c-3.947,5.255 -4.606,11.175 -3.947,17.752c0.658,6.576 3.947,11.843 9.863,15.131c5.92,3.942 11.836,5.252 17.758,3.942l0.654,0c5.924,-0.653 11.182,-3.942 14.471,-9.865c3.945,-4.604 5.918,-11.181 3.945,-17.756c-0.658,-6.576 -3.946,-11.836 -9.863,-15.124Zm-2.629,4.598c4.601,2.632 7.23,6.577 7.89,11.842l0.657,3.288c0,4.599 -1.315,8.548 -4.604,11.836c-2.63,3.288 -6.576,5.914 -11.179,6.577c-4.604,0.662 -9.864,0 -13.812,-3.289c-4.604,-3.288 -6.577,-6.577 -7.893,-11.836c-1.313,-4.606 0,-9.864 3.288,-14.469c3.289,-3.95 7.234,-6.577 11.84,-7.238c5.259,-1.309 9.863,0.001 13.813,3.289Z" style="fill-rule:nonzero;"/><path d="M252.488,221.218l-1.975,-1.965c-1.973,0.655 -1.973,1.965 -1.973,2.627c1.973,7.893 0,16.44 -5.919,24.988l-8.552,11.181c-1.313,0.662 -1.313,1.316 0,2.626c1.316,0.663 1.976,0.663 2.635,0l9.206,-11.829c5.921,-9.865 8.549,-19.073 6.578,-27.628Z" style="fill-rule:nonzero;"/><path d="M255.118,242.925l-9.864,0.655c-1.316,0.655 -1.316,1.316 -1.316,1.978l1.976,1.965l8.547,-0.655c5.92,0.655 10.522,1.978 13.154,5.267l2.63,0c0.658,-0.663 1.314,-1.323 0,-2.634c-2.632,-3.943 -8.552,-6.576 -15.127,-6.576Z" style="fill-rule:nonzero;"/><path d="M75.583,419.833c1.971,-3.287 2.629,-7.897 1.313,-11.842c-1.971,-4.599 -4.602,-7.231 -8.548,-9.21l-11.839,-0.655c-4.602,1.317 -7.232,3.942 -9.206,7.894c-1.972,3.951 -1.972,7.895 -0.659,12.492c0.659,3.949 3.947,6.575 7.235,8.554l12.494,1.311c3.946,-1.967 7.235,-4.601 9.21,-8.544Z" style="fill:#d96038;fill-rule:nonzero;"/><path d="M69.662,396.814l-13.808,-1.322c-5.263,1.322 -8.551,4.611 -11.182,9.865c-1.971,3.949 -1.971,8.556 -0.659,13.813c1.317,4.604 4.605,8.548 9.207,10.526l13.812,0.654c5.263,-1.315 9.207,-4.604 11.181,-8.555c1.972,-5.253 1.972,-9.863 0.658,-14.463c-1.975,-5.264 -4.604,-8.551 -9.209,-10.518Zm-12.495,3.29l9.865,1.312c5.263,1.979 7.893,5.921 7.893,11.843l-1.317,5.914l-7.89,6.577l-9.864,-0.662c-3.289,-1.966 -5.922,-3.942 -6.577,-7.886c-1.317,-3.288 -1.317,-6.576 0.655,-9.865c0.659,-3.289 3.947,-5.269 7.235,-7.233Z" style="fill-rule:nonzero;"/><path d="M337.981,463.891c1.973,-3.942 2.631,-7.887 1.313,-12.497c-1.972,-3.942 -4.603,-6.576 -8.548,-8.541l-12.495,-0.662c-3.945,1.315 -7.234,3.949 -8.552,7.895c-1.971,3.286 -2.628,7.885 -1.313,11.836c1.973,3.949 4.603,7.237 8.548,9.203l11.841,1.322c4.603,-1.979 7.231,-4.613 9.206,-8.556Z" style="fill:#d96038;fill-rule:nonzero;"/><path d="M331.405,440.219l-13.811,-0.654c-4.605,1.311 -7.896,3.941 -10.522,9.202c-2.631,4.604 -2.631,9.202 -0.66,13.813c1.318,5.254 4.604,8.543 8.553,10.521l14.466,1.311c4.604,-1.311 7.894,-4.598 11.183,-9.202c1.971,-4.606 2.63,-9.204 0.658,-13.814c-1.318,-5.256 -4.606,-8.543 -9.867,-11.177Zm-1.974,4.597c4.604,3.289 7.894,6.576 7.894,11.843l-1.317,5.921c-1.971,3.289 -4.601,5.915 -8.548,6.577l-9.862,0c-3.289,-1.979 -5.92,-4.611 -6.578,-7.9c-0.657,-3.288 -0.657,-6.576 0.658,-9.863c1.973,-3.287 4.604,-5.916 7.891,-6.576l9.862,-0.002Z" style="fill-rule:nonzero;"/><path d="M355.736,101.531c1.976,-4.604 1.976,-7.893 1.315,-12.498c-1.971,-3.943 -4.604,-7.231 -8.548,-9.209l-11.839,-0.655c-3.946,1.316 -7.235,3.943 -9.208,7.893c-1.97,3.95 -2.628,7.893 -0.658,11.836c1.316,4.604 3.947,7.893 7.894,9.209l11.837,1.31c3.947,-1.309 7.235,-4.597 9.207,-7.886Z" style="fill:#d96038;fill-rule:nonzero;"/><path d="M324.171,100.215c1.317,4.605 3.945,7.894 9.207,10.527l13.812,0.655c5.26,-1.317 9.205,-4.605 11.181,-9.21c1.972,-3.942 1.972,-8.548 0.655,-13.808c-1.973,-4.604 -4.602,-8.554 -9.206,-11.181l-13.813,-0.662c-5.259,1.979 -8.548,5.267 -11.176,9.209c-1.977,4.606 -1.977,9.211 -0.66,14.47Zm5.26,-1.971c-1.313,-3.289 -1.313,-6.577 0.658,-9.865c1.316,-3.289 3.946,-5.921 7.234,-6.576l9.864,0c5.261,2.633 7.235,6.576 7.235,12.498l-0.66,5.915c-1.971,3.289 -4.604,5.26 -7.893,6.577l-9.865,-0.662c-3.284,-1.311 -5.915,-3.944 -6.573,-7.887Z" style="fill-rule:nonzero;"/></g></g><rect id="PATH77" x="2.92" y="2.74" width="366.67" height="582.52" style="fill:none;stroke:#000;stroke-width:3px;"/></svg>