<?xml version="1.0" encoding="UTF-8" standalone="no"?><!DOCTYPE svg PUBLIC "-//W3C//DTD SVG 1.1//EN" "http://www.w3.org/Graphics/SVG/1.1/DTD/svg11.dtd"><svg width="100%" height="100%" viewBox="0 0 18 18" version="1.1" xmlns="http://www.w3.org/2000/svg" xmlns:xlink="http://www.w3.org/1999/xlink" xml:space="preserve" xmlns:serif="http://www.serif.com/" style="fill-rule:evenodd;clip-rule:evenodd;stroke-linejoin:round;stroke-miterlimit:2;"><path d="M12.435,2.812c0.764,2.25 1.889,4.119 3.375,5.605l-1.024,0.965c-1.366,-1.246 -2.511,-3.255 -3.436,-6.027l1.085,-0.543Zm-2.35,1.085c-0.482,2.371 -1.185,4.139 -2.11,5.304l-1.084,-0.784c0.924,-1.285 1.627,-3.093 2.109,-5.424l1.205,0.482c0.282,0.201 0.241,0.342 -0.12,0.422Zm-8.197,7.654c1.166,-1.727 1.849,-3.435 2.05,-5.122l-1.688,0l0,-1.146l1.808,0l0,-2.892l1.145,0c0.322,0.04 0.342,0.16 0.06,0.361l0,2.531l1.507,0l0,1.146l-1.507,0l0,1.567c1.246,0.723 1.949,1.225 2.11,1.506l-0.723,1.326c-0.483,-0.522 -0.945,-0.944 -1.387,-1.266l0,6.57l-1.205,0l0,-5.786c-0.362,0.844 -0.763,1.567 -1.205,2.17l-0.965,-0.965Zm12.536,3.857c-0.04,-0.12 -0.241,-0.482 -0.603,-1.084l-6.267,0.542c-0.161,0.402 -0.322,0.422 -0.483,0.06l-0.361,-1.446l1.687,-0.06c0.563,-1.407 1.085,-3.255 1.567,-5.545l1.447,0.482c0.16,0.04 0.1,0.161 -0.181,0.362c-0.563,1.928 -1.065,3.475 -1.507,4.64l3.496,-0.18c-0.04,-0.081 -0.422,-0.623 -1.145,-1.628l0.964,-0.723c0.924,0.964 1.808,2.23 2.652,3.797l-1.266,0.783Z" style="fill-rule:nonzero;"/><path d="M17.437,0l0.028,0.001l0.028,0.002l0.028,0.003l0.027,0.005l0.027,0.006l0.026,0.007l0.026,0.009l0.026,0.01l0.025,0.011l0.024,0.012l0.024,0.014l0.024,0.015l0.022,0.015l0.022,0.017l0.021,0.019l0.02,0.019l0.019,0.02l0.019,0.021l0.017,0.022l0.015,0.022l0.015,0.024l0.014,0.024l0.012,0.024l0.011,0.025l0.01,0.026l0.009,0.026l0.007,0.026l0.006,0.027l0.005,0.027l0.003,0.028l0.002,0.028l0.001,0.028l0,16.874l-0.001,0.028l-0.002,0.028l-0.003,0.028l-0.005,0.027l-0.006,0.027l-0.007,0.026l-0.009,0.026l-0.01,0.026l-0.011,0.025l-0.012,0.024l-0.014,0.024l-0.015,0.024l-0.015,0.022l-0.017,0.022l-0.019,0.021l-0.019,0.02l-0.02,0.019l-0.021,0.019l-0.022,0.017l-0.022,0.015l-0.024,0.015l-0.024,0.014l-0.024,0.012l-0.025,0.011l-0.026,0.01l-0.026,0.009l-0.026,0.007l-0.027,0.006l-0.027,0.005l-0.028,0.003l-0.028,0.002l-0.028,0.001l-16.874,0l-0.028,-0.001l-0.028,-0.002l-0.028,-0.003l-0.027,-0.005l-0.027,-0.006l-0.026,-0.007l-0.026,-0.009l-0.026,-0.01l-0.025,-0.011l-0.024,-0.012l-0.024,-0.014l-0.024,-0.015l-0.022,-0.015l-0.022,-0.017l-0.021,-0.019l-0.02,-0.019l-0.019,-0.02l-0.019,-0.021l-0.017,-0.022l-0.015,-0.022l-0.015,-0.024l-0.014,-0.024l-0.012,-0.024l-0.011,-0.025l-0.01,-0.026l-0.009,-0.026l-0.007,-0.026l-0.006,-0.027l-0.005,-0.027l-0.003,-0.028l-0.002,-0.028l-0.001,-0.028l0,-16.874l0.001,-0.028l0.002,-0.028l0.003,-0.028l0.005,-0.027l0.006,-0.027l0.007,-0.026l0.009,-0.026l0.01,-0.026l0.011,-0.025l0.012,-0.024l0.014,-0.024l0.015,-0.024l0.015,-0.022l0.017,-0.022l0.019,-0.021l0.019,-0.02l0.02,-0.019l0.021,-0.019l0.022,-0.017l0.022,-0.015l0.024,-0.015l0.024,-0.014l0.024,-0.012l0.025,-0.011l0.026,-0.01l0.026,-0.009l0.026,-0.007l0.027,-0.006l0.027,-0.005l0.028,-0.003l0.028,-0.002l0.028,-0.001l16.874,0Zm-16.481,17.044l16.088,0l0,-16.088l-16.088,0l0,16.088Z"/></svg>