<?xml version="1.0" encoding="UTF-8" standalone="no"?><!DOCTYPE svg PUBLIC "-//W3C//DTD SVG 1.1//EN" "http://www.w3.org/Graphics/SVG/1.1/DTD/svg11.dtd"><svg width="100%" height="100%" viewBox="0 0 18 18" version="1.1" xmlns="http://www.w3.org/2000/svg" xmlns:xlink="http://www.w3.org/1999/xlink" xml:space="preserve" xmlns:serif="http://www.serif.com/" style="fill-rule:evenodd;clip-rule:evenodd;stroke-linecap:square;stroke-miterlimit:1.5;"><path d="M7.835,10.705l0,-4.352l-4.353,0l0,4.352l4.353,0Zm0,-8.705l1.272,0c0.357,0.045 0.38,0.179 0.067,0.402l0,2.678l5.826,0l0,7.366l-1.339,0l0,-0.468l-4.487,0l0,5.022l-1.339,0l0,-5.022l-4.353,0l0,0.87l-1.339,0l0,-7.768l5.692,0l0,-3.08Zm5.826,8.705l0,-4.352l-4.487,0l0,4.352l4.487,0Z" style="fill-rule:nonzero;"/><path d="M1,1l16,0l0,16" style="fill:none;stroke:#000;stroke-width:1.2px;"/></svg>