<?xml version="1.0" encoding="UTF-8" standalone="no"?><!DOCTYPE svg PUBLIC "-//W3C//DTD SVG 1.1//EN" "http://www.w3.org/Graphics/SVG/1.1/DTD/svg11.dtd"><svg width="100%" height="100%" viewBox="0 0 18 18" version="1.1" xmlns="http://www.w3.org/2000/svg" xmlns:xlink="http://www.w3.org/1999/xlink" xml:space="preserve" xmlns:serif="http://www.serif.com/" style="fill-rule:evenodd;clip-rule:evenodd;stroke-linejoin:round;stroke-miterlimit:2;"><path d="M12.616,12.125c-0.357,1.607 -1.053,2.982 -2.089,4.125l-1.125,-0.643c1.107,-1.036 1.839,-2.321 2.196,-3.857c-1.25,-0.464 -2.518,-0.786 -3.803,-0.964c-0.965,2.071 -1.607,3.268 -1.929,3.589c-0.428,0.429 -0.928,0.643 -1.5,0.643c-0.428,0 -0.786,-0.143 -1.071,-0.429c-0.322,-0.321 -0.482,-0.803 -0.482,-1.446c0,-0.75 0.357,-1.482 1.071,-2.197c0.786,-0.785 1.839,-1.178 3.161,-1.178c0.428,-1.107 0.821,-2.143 1.178,-3.107c-1,0.25 -2,0.482 -3,0.696l-0.482,-1.071c1.179,-0.143 2.304,-0.34 3.375,-0.59l0.643,-0.267l0.911,0.696c0.357,0.214 0.339,0.375 -0.054,0.482c-0.464,0.822 -0.964,1.893 -1.5,3.214c1.143,0.143 2.357,0.429 3.643,0.858c0.071,-0.858 0.089,-1.911 0.053,-3.161l1.018,0.214c0.393,0.072 0.429,0.214 0.107,0.429c0,1.178 -0.035,2.143 -0.107,2.893c0.679,0.25 1.465,0.607 2.357,1.071l-0.535,1.071c-0.75,-0.428 -1.429,-0.785 -2.036,-1.071Zm-5.946,-1.339c-0.822,0 -1.482,0.25 -1.983,0.75c-0.571,0.571 -0.857,1.107 -0.857,1.607c0,0.214 0.072,0.393 0.215,0.536c0.107,0.107 0.267,0.16 0.482,0.16c0.321,0 0.607,-0.196 0.857,-0.589c0.214,-0.321 0.643,-1.143 1.286,-2.464Z" style="fill-rule:nonzero;"/><path d="M9.519,1.107l0.211,0.157l0.214,0.155l0.217,0.154l0.153,0.108l0.066,0.045l0.222,0.15l0.225,0.149l0.227,0.148l0.23,0.147l0.232,0.145l0.004,0.002l0.232,0.141l0.238,0.141l0.24,0.141l0.243,0.138l0.245,0.138l0.247,0.137l0.25,0.135l0.253,0.134l0.254,0.133l0.258,0.131l0.156,0.078l0.104,0.052l0.262,0.128l0.266,0.126l0.267,0.125l0.27,0.124l0.273,0.123l0.275,0.122l0.277,0.12l0.209,0.089l0.071,0.029l0.282,0.117l0.285,0.116l0.29,0.115l0.614,0.264l-0.534,1.243l-0.614,-0.263l-0.287,-0.133l-0.287,-0.134l-0.284,-0.135l-0.071,-0.035l-0.211,-0.101l-0.279,-0.138l-0.277,-0.138l-0.275,-0.139l-0.271,-0.141l-0.27,-0.142l-0.267,-0.143l-0.264,-0.145l-0.105,-0.058l-0.157,-0.087l-0.26,-0.145l-0.257,-0.147l-0.255,-0.148l-0.252,-0.15l-0.25,-0.15l-0.248,-0.152l-0.245,-0.153l-0.242,-0.154l-0.24,-0.156l-0.233,-0.154l-0.004,-0.002l-0.236,-0.157l-0.233,-0.157l-0.231,-0.159l-0.228,-0.16l-0.226,-0.162l-0.067,-0.048l-0.157,-0.113l-0.222,-0.162l-0.22,-0.164l-0.13,-0.098l-0.232,0.167l-0.268,0.189l-0.191,0.134l-0.075,0.053l-0.264,0.184l-0.263,0.18l-0.262,0.177l-0.185,0.124l-0.075,0.05l-0.258,0.172l-0.258,0.168l-0.256,0.164l-0.255,0.162l-0.254,0.158l-0.253,0.155l-0.252,0.152l-0.252,0.148l-0.073,0.043l-0.176,0.104l-0.248,0.144l-0.248,0.141l-0.246,0.138l-0.246,0.135l-0.244,0.132l-0.244,0.13l-0.243,0.127l-0.197,0.101l-0.044,0.023l-0.241,0.123l-0.24,0.12l-0.239,0.117l-0.238,0.115l-0.237,0.113l-0.236,0.11l-0.166,0.076l-0.067,0.031l-0.623,0.266l-0.265,-0.623l-0.266,-0.622l0.622,-0.265l0.068,-0.027l0.167,-0.066l0.234,-0.094l0.234,-0.096l0.236,-0.099l0.237,-0.101l0.237,-0.103l0.239,-0.106l0.044,-0.02l0.196,-0.089l0.24,-0.111l0.242,-0.115l0.242,-0.116l0.244,-0.12l0.245,-0.122l0.246,-0.126l0.248,-0.128l0.175,-0.092l0.073,-0.039l0.249,-0.136l0.25,-0.139l0.251,-0.141l0.253,-0.145l0.253,-0.148l0.255,-0.152l0.257,-0.155l0.257,-0.158l0.075,-0.046l0.183,-0.117l0.26,-0.167l0.26,-0.17l0.262,-0.174l0.074,-0.051l0.188,-0.129l0.263,-0.183l0.264,-0.187l0.544,-0.392l0.029,-0.021l0.511,0.388Z"/></svg>