<?xml version="1.0" encoding="UTF-8" standalone="no"?><!DOCTYPE svg PUBLIC "-//W3C//DTD SVG 1.1//EN" "http://www.w3.org/Graphics/SVG/1.1/DTD/svg11.dtd"><svg width="100%" height="100%" viewBox="0 0 3292 3292" version="1.1" xmlns="http://www.w3.org/2000/svg" xmlns:xlink="http://www.w3.org/1999/xlink" xml:space="preserve" xmlns:serif="http://www.serif.com/" style="fill-rule:evenodd;clip-rule:evenodd;stroke-linecap:round;stroke-linejoin:round;stroke-miterlimit:1.5;"><path d="M1647.62,395.833l1335.12,2312.5l-2670.24,0l1335.12,-2312.5Z" style="fill:none;stroke:#000;stroke-width:33.47px;"/><path d="M1620.83,2104.17l-454.166,-875" style="fill:none;stroke:#000;stroke-width:33.47px;"/><path d="M1284.6,2708.33l361.231,-2312.5" style="fill:none;stroke:#000;stroke-width:33.47px;"/><path d="M312.5,2708.33l2108.33,-961.605" style="fill:none;stroke:#000;stroke-width:33.47px;"/><path d="M1166.67,1229.17l1816.08,1479.17" style="fill:none;stroke:#000;stroke-width:33.47px;"/><path d="M1437.5,1746.73l983.333,-0" style="fill:none;stroke:#000;stroke-width:33.47px;"/><path d="M1812.5,1746.73l-527.898,961.605" style="fill:none;stroke:#000;stroke-width:33.47px;"/><circle cx="1645.83" cy="395.833" r="83.333" style="fill:#ebebeb;stroke:#000;stroke-width:33.47px;"/><circle cx="2420.83" cy="1746.73" r="83.333" style="fill:#ebebeb;stroke:#000;stroke-width:33.47px;"/><circle cx="1812.5" cy="1746.73" r="83.333" style="fill:#ebebeb;stroke:#000;stroke-width:33.47px;"/><circle cx="2982.74" cy="2708.33" r="83.333" style="fill:#ebebeb;stroke:#000;stroke-width:33.47px;"/><circle cx="1620.83" cy="2104.17" r="83.333" style="fill:#ebebeb;stroke:#000;stroke-width:33.47px;"/><circle cx="1166.67" cy="1229.17" r="83.333" style="fill:#ebebeb;stroke:#000;stroke-width:33.47px;"/><circle cx="1437.5" cy="1746.73" r="83.333" style="fill:#ebebeb;stroke:#000;stroke-width:33.47px;"/><circle cx="1284.6" cy="2708.33" r="83.333" style="fill:#ebebeb;stroke:#000;stroke-width:33.47px;"/><circle cx="312.5" cy="2708.33" r="83.333" style="fill:#ebebeb;stroke:#000;stroke-width:33.47px;"/></svg>