<svg xmlns="http://www.w3.org/2000/svg" xmlns:xlink="http://www.w3.org/1999/xlink" viewBox="0 0 976 1600"><defs><style>.cls-1{fill:none;}.cls-2{fill:#f4f3ef;}.cls-3{clip-path:url(#clip-path);}.cls-4{fill:#50b271;}.cls-5{fill:#997664;}.cls-6{fill:#ff8db6;}.cls-7{fill:#d81e1e;}.cls-8{fill:#592116;}.cls-9{fill:#992d17;}</style><clipPath id="clip-path"><path class="cls-1" d="M960,22V1578a6,6,0,0,1-6,6H22a6,6,0,0,1-6-6V22a6,6,0,0,1,6-6H954A6,6,0,0,1,960,22Z"/></clipPath></defs><g id="Paper_Backing" data-name="Paper Backing"><path class="cls-2" d="M960,22V1578a6,6,0,0,1-6,6H22a6,6,0,0,1-6-6V22a6,6,0,0,1,6-6H954A6,6,0,0,1,960,22Z"/></g><g id="Wikipedia_Cropped" data-name="Wikipedia Cropped"><g class="cls-3"><path class="cls-4" d="M475.26,1490.07c-26.57-14.48,6-98.43,36.78-89.18,7.67-3.9,13.67-3,13.3,6.78C531.8,1439.85,506.06,1476.34,475.26,1490.07Zm-289.8-47.24c-66.36-1.76,26.06-70.89,50.62-61.95,17.91-3.12,28.18,16.07,18.26,30.18C236.24,1432.14,213.07,1442.83,185.46,1442.83Zm238.65-420.1c-48.05-19.18,65.62-78.65,81.15-52.31C501.62,1008.07,456.68,1025.72,424.11,1022.73Zm-79-19c-23.27-2.72-67.91-62.25-42.37-79.27C333.89,928.45,371.18,979,345.11,1003.78Zm-238.54-38c-16.84-.57-10-20-9.9-30.11-.85-27.58,18.54-70.33,51.05-67C186.44,877.54,145.28,964.38,106.57,965.74Zm-30-322.51c-26.13-.12-61.86-18.07-74.41-48.33-2-13.59,26.17-15.28,35.94-16.7C67.93,572.6,140.51,644.79,76.55,643.23Zm122.26-44.47c-34.19-15.89-39-75.31-15.86-100.89C229.25,515.53,232.29,567.7,198.81,598.76Zm78.7-95.88c-38.32-6-65.16-26.85-77.75-61.91,7.84-16.33,41.45-3.68,57,.14C275.56,452.39,310.83,493,277.51,502.88Zm131.92-40.62c-31-26.32,14.4-84.48,49.65-86.38C489.65,402,444.52,456.27,409.43,462.26Zm350-240.71c-27.34-25.91,4.47-71.13,35-83.47,6.25-2.7,9,1.89,10.25,12.57C810.76,179.11,785.34,207.31,759.44,221.55Z"/><path class="cls-5" d="M837.64,1604c-7.68-1.47-1.15-15.6-3.33-21.67.06-23.41,7.48-45.56-1.75-66.93-4.36-106.35-147.19-116.27-205.21-194.57-5.39-10.52,46.81-7.76,20.88-34-31.9-45.53,71,6,84.44,10.23,20.68,1.42-12.9-50.51-14.34-62-5.13-23.35-18.13-41.91-26.71-67.36-10.37-28.26-21.79-57.65-24.66-89.45-3.43-11.43,4.79-15-1.53-28.39-3.26-6.27,8.31-25.21-1.37-31.94-3.33-37.24-34.89-68.49-29.25-108.43-2.43-13.22-14.32-19.06-8.25-36.3-.87-25.51,23.4-36.46,47.37-35.08,4.16-1.73,4.94-11.8,10.54-10.47,31.38,20,41.43,61.16,75.8,74.88,18-9.42,6.91-35.62,12.21-52.79-1.25-9.87,8.19-15.68,5.7-23.56-3.67-5.17.85-13.48,1-20.14-4.17-12.49,12.11-24.85,4.25-33.94-2.09-21.26,2.24-46.68,0-69.51-2.39-10.56,10.08-20,2.3-27.26-8.11-11.1-3.42-30.06-7.16-43.81-4-5.8,3.59-15.75-.84-21.45-12.14-43.92-19.13-86.18-37-125.63C732.12,469.58,755,474.13,760,463.65c.35-9-8.11-21.72-2.52-28.78,12.11-13.56,39.53,1.43,33.41-28.56,2.6-8.4-5.91-9.24,4.12-17.43,12.12-9.9,26.78-18.94,35.4-31.38,4.42-14.6,21.32-14,21.86-27.68,28-33.72,54-66.07,74.25-104.29,11.17-12.21,12.36-30.73,25.24-43,8.19-12.48,11.73-33,24.2-42.44,11,29.45.45,135.28,4,171.34-16.17,12.69-19.22,36.81-34.26,51.83-5.55,1.73-4,7-5.48,11.36-3.58,10.53-11.46,16.69-16.89,26-16.06,15.54-23.86,34.18-39,51.58-16.81,16.32-22.17,37.74-15.21,61.88-2.8,32.4.86,66.12,2.7,100.73,2.64,7.83.13,11.51-3.35,17.43,6.89,14.36,5.56,31.27,6.39,47,.32,18.83,1.87,37.54-4.37,53.4,9.52,22.24,1.34,51.73,5.47,73.64,8.45,43.39,20.45,89.54,8,132.06-.73,23.84-7.12,53.37-15.6,75.53,7.28,9.88-7.52,22-1.55,30.94,12.51,56,38.24,109.79,66.52,160.51,11.33,18.82,25.81,38.74,30.73,59.43-1.71,6.6,6.9,9.19,12,8.87,11.25-.89.29,322.38,4,326.36C980.84,1610.94,841.59,1600.51,837.64,1604Z"/><path class="cls-6" d="M369,1413.1c-3,0-6.64-1-8.17-8.95-10.56-24.1-23.31-14.91-41.25-10.1-21.87-1.31-4.8-46.34-19.08-52.24-21.47-2-37.52-16.64-46.36-36.66-4.23-6.37,19.1-16.31,18.83-22.28,3.28-6.43-8.13-15.93-10.22-22.13,6.05-19,31.15-19.13,47.1-24.11,3.87-18.51,3.94-45.1,25.92-52.86,29.77,17.1,24.45,15.9,47.94-6.6,55.71,41,3.61,42.33,77.23,22.15,37.09,2.36,10,17.07,23.24,34.18,4.53,6.79,22.34,5.67,20.45,12.85,3.79,20.41-13.13,35.4-28.81,44.43a6.06,6.06,0,0,0-.38,9c7.27,5.7,31.4,42.21,9.16,49.53C446,1346,477.78,1385.6,457,1389c-15,.82-28.1-2.12-40.56-14C404.23,1367.42,395.43,1414.17,369,1413.1Zm10.28-100c13.45,4.11,24.46-12.45,25.53-24-.56-8.36-2.21-14.79-8.45-20.72-3.51-6.46-10-.39-15.46-4.08-6.14-2.94-21,10.75-20,17.11C353.57,1294,363.09,1315.5,379.28,1313.06ZM513.85,885.32c-13.8.08-10.84-12.89-12.18-21.42-26.52-36.21-54,23.72-36.14-66.42-15.34-8.37-52.6-39.65-28.14-55.28,7.07-4.49,12.78-11.27,22.52-6.75,12.6-6,10.42-33,32.39-20.49,31.41,9.37,13.44-58.49,51.74-68,10.16,2.61,18.28,18.34,29.92,16.15,28.54-7.22,32.53-30.62,45.14,13.91,7.7,10.83,20.92-5.91,34.69-2.38,16.92,1,36.32,3.49,41.61,16.83-32.28,50.47,53.91,32.85-23.8,79a6,6,0,0,0-2.9,8.64c9.38,14.66,20.63,57.57-2.64,58.34-46.15-7-32.22,32.62-45.06,40.13-15.81-3.66-26.58-12.76-38.83-26.27C570.74,842.4,559.91,884.73,513.85,885.32Zm50.67-92.11c6.43,4.28,11.68.5,17.36-2.16,6.92-2.08,11.09-6.88,11.43-14.25,4.08-6.13,1.38-11.09,2-18.27-.29-6.63-9.74-13.87-15.64-15.65-8.08-3.42-12-6.68-19.6.74-7,2.77-9.73,5.61-13.54,12.16C538.12,769.72,548.63,790.75,564.52,793.21ZM190.6,856.41c-15.23.83-16-32.84-29.47-31.2C126,845.8,122,807.33,131.18,780c0-12.78-29.42-11.71-36.93-33.84-6.23-8.76,16-18,13.07-26.69.78-7-20.25-16.81-8-25,13-21.38,54.74-8.47,61.31-22.91,0-18.59,6.3-35.61,18.69-50.42,9.11-4,20.08,16,26.56,12.53,9.84,1.8,28.44-30.51,35.33-6.19,7.66,8.46,11.22,37.1,25.15,31.36,16.49-14.81,36.43-23.79,54.5-12.06,4.95,10.76-10.24,33,2.32,41.32,7.17,3.62,24.75-4.11,21.55,10.33-1.48,13.54-16.33,20.24-24.42,31.64,9.39,14.45,25.62,38.73,19.7,55.07-2.33,7.83-9.48,9.12-16,9.7-34.15.39,6.93,40.45-34.12,36.29-18,1.1-31.61-8.32-46.08-16.37C228.05,830.82,217.47,856.32,190.6,856.41Zm19.66-104.25c11.8,3.29,15.71,6.54,23.28-6,10.06-10.51,6.85-31-7.33-36.08-7.64-1.78-13.84-5.12-20.12.77-7.92,2.06-8.43,8.39-11.83,14.67C190.87,734,199.63,753.61,210.26,752.16ZM506,312.71c-19.42-2.55-45.79-9.58-54.37-30,3.2-6.83,14.13-24.27,11.69-27.64-1.55-5.64-5.68-7.18-17.4-15.21-14.79-21.51,27.6-40.85,47.24-43,7.05-1.76,4.68-8.72,2.14-13.74-12.5-24.14,6-73.81,35-45,27.37,3.84,7.75-31.7,28.41-34.51,31.42,5.79,31.79,35,49.68,49,12.5-7,25.29-15.06,40.31-15.48,40.39,4,19,13,23.41,36.42,7.25,13.16,30.26-1.11,37.4,11.17,5.67,15.34.34,36.36-14.68,44.24-18.93,21.73-20.53-16.27-39.1,12.41-3.87,6.65-9.43,13-14.41,12.44-17.9-3.11-9.49-27.67-29.46-23.09-7.1-.26-2.93-8.95-8.27-11.19-4.71-1.51-6.2-9-11.59-9-16.36,2.13-23.31-8.13-32.86,13.93,1.07,5.36-3.67,13.75,2,17.61,5.07,4.91,6.22,10.77,14.36,9.24,9.74,2.3,6.89,11.84,7.29,19.51-.71,6.71,3.73,16.58-.51,21.24-8.48,9.67-21.46,3.28-32.27,5.22-15.3-.52-28.33,13.93-44,15.48Z"/><path class="cls-7" d="M341.51,1489c-23.23.31-16.81-41,5.52-40C368.75,1451.16,362.62,1490.91,341.51,1489Zm292.21-27.33c-26.79,3.1-31.6-38.59-3.94-38.08C653,1421.27,663,1463,633.72,1461.64Zm-474.61-82.4c-18.78-9.45-6.86-33.79-38.41-5-24.24,15.66-43.53-36.55-38.12-56a6,6,0,0,0-6-7c-22.51-1-38.3-14.9-42.11-30.58,13.52-13.28,27-22.34,4.84-37-24-24.54,28.44-27.09,39.47-38.07-5.1-20,1.72-49.36,17.27-61.55,9.65-8.6,19.09,13.31,26.09,11,3.8.53,11.16-7.07,14.37-15.49,11.91-24,37.29,13.35,44,25.31,7.67,21.64,19.72,4.82,34.38,3.89a6,6,0,0,0,6-5.38c.85-11.51,19.44-10.87,21.91-20.13-5.14-23.62-27.77-26.66,7.51-39.69,14.53-8.7,31.05-5.58,46.77-7.37,6.56-15,5.39-41.06,23.14-48.46,9.48,1.41,17.08,14.91,25.78,15.21,15.91.83,15.52-31.55,31-26.25,22,9.71,20.44,37,36.26,48.23,27.84-11.5,59.08-21.61,79.32,1.6,1.57,9.07-12.37,18.18-3.91,25.85,64.34,14-17.43,49.93,16.37,69.88,3.26,2.69,8.47.8,9.54-3.21,7.68-17.09,32.86-38.38,55.92-31.16,4.82,7,.25,18,2.87,25.38,12.06,16.61,49.54-32.58,32.18,38.88-.92,7,6.9,6.83,11.5,6.38,16.57,2.88,61.77,28.49,35.34,46-38.94,15.86,33.65,30-19.56,48.26-47.75-2.32-4,37-62.24,59.22-6.93.14-9.75-6.6-12.86-11.37-19.24-20.29-21,37.58-51.59,2.31-15.82-12.72-9.7-28.67-15.87-43.89-41.18-47.53,15.12-17.87,12.39-49.73,12.88-35,6-22.1-18.48-38.06-4.47-7.71,9.25-17.63,4.8-25.79-21.86-13.55-46.06-2.92-68.2,6.45-16.81-3.43-30.5-66.7-46.71-26.67-21.94,23.33-30.65-12-44.9-4.66-4.57,2.81-13.71,4.48-10.89,11.7.46,10.28-8,21-6.77,32.34-4,23.67-36.31,8.66-47.94,29.38-9.47,8,11.93,20,7.35,28.74-2.68,11.37-27,13.1-17,26.87-3.75,17.76-33.68,20.87-52,21-15,12.82-14,43.16-42.8,48.59ZM380,1312.93c-27.52-.24-22.74-47.57,3.32-46.88C412.07,1265.91,405.78,1312.69,380,1312.93ZM570,792.74c-32.27.66-33.52-51.45.27-49.28C604.12,741,598.82,792.64,570,792.74Zm-351.67-41.6c-28.62,5.84-29.88-41.74-1.93-40,26.8-2.18,27.3,40.47,1.93,40Zm239.38-16.85c-19.54-2.35-28.86-24.76-40.62-33-18.05,9.94-50,36.66-65.42,14.64v0l0-.06v0c-2.3-57.11-50.58,3.5-26.67-67.82,2.8-4.67,4.73-12.81-2.81-13.7-16.81-4.51-56.13-28.24-33-44.16,23-23.43-14.95-37.88,36.21-43.43,8.29-1.28,23,7.46,26.51-3.3,5.1-20.56,16-47.25,34.66-58.19,23.64,18.18,19.8,28.13,48.25,9.65,24.85-15.4,23.61,29.38,28.47,44.68,9.66,11.23,46.47-13.13,74.66,6.86,20.94,8.47-13.77,32.47-7.14,41.14.18,5.53,20.43,10.6,21.67,21.44-4.88,19.24-27.54,26.85-44.29,36.33-8.44,10.31,8.92,26.63,5,41.34-6.09,53.47-20.5,16.46-41.41,25.29-3.91,4.87-5.59,25.18-14.08,22.28ZM642.16,605.22c-20-2.27-10-40.28,7.39-36.09C680.25,569.9,662.84,610.74,642.16,605.22ZM102.44,559.44c-29.84,1.44-28.15-45.74,1-44.18C129.39,516.12,128.67,559,102.44,559.44Zm522.87-62.2c-16.83-.56-6.61-32.75-24.34-34.78-17.64,7.81-29.47,27.17-39.69-3.49-10.1-13.45,7.5-44.43-4.08-52.27-21.07-3.6-45.36-27.12-45.23-52.49,4.58-7.65,22.71-3.51,24.4-14.35-2-8.32-12.52-14.81-14.52-22.7-2-21.82,36.35-19.28,52.34-18.16,11.32,1.57,16.12,1.2,17-13.34,26.48-69.28-23.66-7.19-31.33-54.22,0-26.34,46.44-26.68,46.6.68,0,3.5-.85,7.68,2.9,9.61,6.61,2.46,14.4-7.9,19.19,1.9,30.94,46.72,27.66-65.74,68.66,23.35,1.06,4.81,6.21,8.84,10.65,5.12,14.32-13.38,34-20.83,54.49-21.2,23,1.61-3.38,44.39,29.62,41.74,25.12,10.15-9.13,53.24-21.15,63.05a6,6,0,0,0-1,8.27c12.55,15.11,32.89,55.71,11,63.19-7.73-1-20-.19-22.57,3.5-8.45,19,16.23,40.33-21.64,41.77-18.73,5.66-33.11-1.09-47-19.69C678.15,439.85,668.87,494.87,625.31,497.24ZM276.59,380.4c-22.11-2.55-17.57-43.95,5.6-40.35,23.67-.09,18.58,42.54-5.6,40.35Z"/><path class="cls-8" d="M976,1269.67c-2.65-1.14-3.81-2.33-4.75-5.43-20.16-42.14-45.66-81.4-64.37-124.24-16.18-42.42-44.47-87.66-29.16-134,16-54.31,24-113.39,10.78-169-13.51-60.33-4.7-122.32-8.7-183.55-4.13-54.06-4.26-108.66-8.09-162.58,4.44-25.05,22.32-42.57,36.8-61.54,28.21-33.6,48.57-71.67,67.31-111.08a8.47,8.47,0,0,0,.73-7c-2.4,1.17-6,1.71-7.09,3.64-9.22,14.34-14.44,32.26-25.65,44.94-1.27.69-2.18-2.22-3-4-9-18.6-22.34-32.56-42.65-38.73-5.12-2.2-9.16,6.23-3.25,8.08,12.26,6.49,24.52,13.11,32.2,25.32,16.49,18.78,9.91,26.18-4.16,43.47-5.13,7-10.64,23.58-15.21-.85-6.31-15.41-18.19-24.61-33.56-29.74-4.55-2-14.54-5.69-15.09,2.61,2.58,8.8,29.5,8.25,37.21,27,4,8.17,11.49,18.18,7.74,24.9-8.91,16-21.65,29.84-32.26,43.8-12.53-17.44-28.77-35.34-52.4-35.93-3.72-.1-7.62-8.58-11.51-2.3-2.42,3.91,4.61,5.94,7.42,8.73,1.54,1.53,4.1,2.34,6.35,2.84,20.08,5.44,51.88,26.33,41.77,51.08-3.49,8.72-.74,19.06,1.92,29.17-16.75-10.94-45-13.29-63.59-7.43-15.38,4.83-20.57,2.75-34.71-3.29-2.89,2.31-2.42,5-.22,7.49,10.09,11.86,23.6,8,35.16,6,20.8-3.56,41.37-6.63,59.7,5.65,5.36,3.58,3.6,14,3.15,21.57-19-13.42-37.21-17.07-59.14-7-4.11,1.69-6.8,3.64-5.9,6.85,1,3.75,5.46,2.3,8.29,1.43a91.34,91.34,0,0,1,27.3-3.71c10.15,0,29.3,11.13,29.61,17.57.88,18.26,1.38,36.56,2.89,54.78.58,6.94,5.2,13.6-7.89,8.1-17.54-7.37-34.62,4-52.19,4.15-1.78.71-5.2,7.92,0,7.74a77.82,77.82,0,0,0,29.85-3.93c9.68-3.15,30.51,3.86,31.26,12.2,2.5,25.53,2.3,53,2.12,78.09-12.39-18.93-31.45-26.35-53.67-16.5-3.82,1.59-8.18,4.52-6.86,8.65,2,8.77,19.24-9.59,34.48-1.54,19.18,8.56,25.76,25.08,26.07,45-1.08,14.85,9,50.34-18,38.94-11.41-4.34-21.54-13.56-35.11-11-3.78.71-9.08,1.9-8.51,6.15,1.15,6.81,11-2,18.09,2.9,13.75,5.27,26.24,15.75,42.61,10,2.21-.77,1.63,1.34,1.86,2.51,4,20.68,8.23,41.32,11.86,62.07,1.16,6.62,4,14.51-.14,20.1-9.3,12.56-23.43,13.17-36.54,8.65C775.32,870,794.15,964,737,966.75c-31.48-.22-51.49,27.42-69.15,49.88-.76-2.08-2.48-4.33-2.06-6,1.76-7-7.22-13.77,1.29-21.43,19.11-20.25,31.9-60.42,67.11-51.94,3.75.9,8.37,3.14,9.27-1.49.7-3.63-5.13-4.75-8.21-6.87-25.6-5.26-60.18,19.52-68.59,43.85-1.31,4.17-5.56,7.41-8.45,11.08-6.25-20.81-25.37-51.25-19.62-73,7.69-21.95,18.69-37.41,44.42-35.66,4.53.3,7.66-1.76,10.69-4.54-26.5-10.35-50.78,3.34-59.26,27.8-8.53-9.66-3.92-21-3-31.41,1.29-14.44,14.73-23.47,29.37-24.25,7.78-.42,18.7,2.84,21.28-10,.11-.53,2.33-1.3,2.55-1.05,16.11,12,24.44,30.85,39.52,44,2.68,2.12,4.42,5.44,6.58,8.21-24.37,2.84-42.67,14.53-58.28,32.83-2.7,2.94-1.15,6.39-1.7,9.58,6.6,1,12.94-8.9,18.25-12.56,13.81-12.73,28.7-22.38,48.84-18.73,7.73,1.4,24.06,12.75,20.89,20.31-2.81,6.7-1.31,13.37-1.76,20.05-.18,2.69-1,6.52,2.39,7.18,15-11.09.87-39.67,17.36-54.12,7.3-7.42,32.6-16.12,41.26-11.29,5.36,2.91,13.18,5.94,18.79,2.76.16-1.32-.12-3.6-1-4-19.16-14.27-44.65-10-61.84,4.89,1.89-12.8-.51-35.79,7.21-45.16,15.81-8.42,33-6.61,49.68-1.75,18.68,4.56,25.17-4.32,3-8-12.65-1.88-25.09-8.72-38.14-2.8-22.41,9.8-12.38-6.58-12.68-19.31-1.22-30.49,33.78-49.15,58.94-33.3,3.42,1.75,7.83,5.35,10.25,1,2-3.56-3.16-6.52-6.07-8.43-19.12-12.61-37.86-10.73-60.71,5.64,10.72-29.48-18.15-100.51,33.65-94.19,11.54,2.4,24,8.83,35.7,2.61-3.08-8-13.31-6.46-20.11-9.48-51.13-15.89-46.38,35.67-51.26-28.89.74-7.22-5.13-14.28-.12-21.24,16.14-25.05,60.6.21,61.46-17.79-.26-5.21-5.28-2-8.09-2.65-16.83-4.64-45.2-3-56.27,10.13-9.53-44-20.85-88-37.74-129.9,6.28.83,10.31-4,15.31-6.26,19.47-8.85,34,5.69,50.44,10.58,3.77.76,17.55,3.88,17.25-1.64-2.16-5.29-8-3.79-11.83-6.24-15.85-5.8-30.25-16.31-48.35-14.87-.74.06-2.06-1.09-2.32-1.93C757.72,440,756,432.74,780,431c9.33-1.19,18.05-4,14.72-15.87-1.79-6.36,3-12.44-.81-18.88-.58-1,6.93-7.27,11.22-10.4,2.35-1.72,4.06,1.61,5.13,3.09,14.78,21,43.41,21.34,58.56,42,1.59,2,3.44.83,4.92-.06,7.91-8.66-26.79-29.66-34-31.59-10.5-4.41-17.24-13-26.32-18.76,6.42-6.4,12.05-18.77,20.85-7.08,6.1,11.87,17.4,15.5,28.55,19.49,2,.71,5.67.81,5.83-1.91-1.14-8.87-19.8-8-24-18-3.1-5.29-13.6-7.35-10.55-13.8,8.4-17.78,23.49-21.27,41.82-13.39,11.55,5,18.48,15.23,28.53,21.78,22.64,8.17-22-40.27-49-35.29,14.43-18.09,29-35.75,43.41-53.83,2.92-3.67,3.57-11.57,8.3-10.78C927.43,272.94,941,291.89,960,300c3.87,2.68,7.17-2.7,3.5-5.34-15.88-11.72-28.26-28.32-48.3-34.26-2.95-.87-3.27-3.13-1.48-6,5.62-8.94,11-18,16.42-27.08,1.27-2.14,1.82-2.29,3.82-.32,9.43,9.3,18.56,18.68,23.59,31.38.89,5.52,11.63,7.32,9.09-.77-5.07-16.13-15.49-28.52-27.61-39.74-1.33-1.22-2.57-2.07-1.19-4.42,3.35-5.72,5.36-12.5,9.62-17.35,3.38-3.86,4.31-17,14.75-6.66,4.1,4,9,13.31,13.81,8.31,1.93-2,1.52-4.28,0-6.55-3.92-4.45-8.79-10.43-14.64-12.14-3.42-.59-2.66-2.78-1.84-4.35,5.36-10.29,10.64-20.64,16.48-30.65,2.31-3.5,5.26-9.56,2-12.06-2.91-2.51-5.56,1.85-6.82,4-50.23,85.67-99.81,173.72-173,242.33-2.85,2.64-9.58,8.43-10.36,5.52-2.8-10.42-10.58-16.54-16.78-24.58,16.53.54,53.35-70.44,23.54-70.49-38.4-5,10.1-53.94-49.36-42.36,10.75-28.28,7.92-13.51,29.84-29.22,24-16.66,39.42-38.12,33.73-69.26-1.2-6.54-1.84-17.8-11.32-15.07C768.23,140.58,745,170,742.7,200.67c0,10.15,3.45,20.93-1.94,30.48-3.92,7-2.65,17.61-10.21,21.07-9.83,4.51-18,11-26.28,16.52-5.36-7.67-5.87-17.42-12.73-24.12-2.09-2-4.13-5.61-.09-7,19.16-7.13,33-34.62,25.12-53.51-5.91-11.91-18.39-7.9-28.12-8.86-11.41-1.13-12.91-6.2-10.36-15.77,8.15-19.09-1.18-25.17-20.36-26.43-17.62-1.67-33.17,3.81-46.79,15-1.46,1.2-3.83,2.65-3.61-.45-7.18-25.38-25.54-47.84-53.79-50.41-2.09-.2-5.95.51-6.22,1.53-2.55,9.72-4.4,19.62-6.69,29.42-.73,3.16-2.45,6.2-6.49,4.7-7.73-2.87-15.3-6.16-23-9.16-4.93-1.93-9-2.83-12.47,3.47-12,16.09-16.72,37.88-7.63,56.42,2.45,5.09,2.49,8-2.68,9-14.12,2.7-26.41,8.93-38.3,16.79-12.77,8.45-17.7,29.32-6.69,34.81,15.8,7.87,16.31,16.86,6.44,29.68-4.84,6.29-5.85,16-.14,20.14,11.11,8.09,22.66,16.06,36.87,19.43,13.38,3.17,31.77-4.41,38.23,15.71,1.64,5.1,12.63,11.21-2.54,14.63-8.21,1.84-20.74,6.35-16.68,17.35,20.11,56.29,56.87,41.21,50.84,55.35-5.39,15.62-6.35,31.17.63,46.1,9.4,23.56,15.07,19.18,31.33,12.51,6.07-2.5,11.79-13.79,18.08-.67,5,12,5.4,34.31,24.17,28.32,25.14-7.74,44.66-22.25,53.16-49.15,7.79,14.5,20.45,20.9,34.7,26.22,5.74,2.14,13.4-3.5,16,2.52a646,646,0,0,1,42.08,200.48c4.53,71.08-7.35,143.38-15.57,213.39-9.64-9-19.5-18.38-29.51-27.58-13.37-12.29-21.32-29.22-35.73-40.86-4.14-3.33-11.95-3.67-12.19-12.52-.35-12.37-2.41-24.77-10.43-35.12-2.85-3.68-.4-5.31,2.67-6.73,14.71-6.82,26.57-17.13,36-30.16,13.11-15.26-30.75-9.32-13.66-45.32,1.64-3.88,5.7-8.31,1.11-13.62-13.95-16.11-51.69-18.62-69.2-10.25-3.12,1.49-7.58,5.72-7.39-3.27.1-4.62-4.32-9.2-4.88-14-.72-6.3-12.76-8-6.49-16.49,5.25-7.17,10.33-14.56,16.34-21.05,3.49-3.77,6.29-8.68,13.93-7.76,10.13,1.21,20.33.44,27.07-10.5,14.67-23.78,1.71-35.19-17.8-39.38-15.43-2.75-32.72,23.76-22.88,37.26,2.37,3.51,1.19,4.59-.78,7.09-8.26,10.5-17.07,20.72-24.12,32-39.25,51-53.84-33-86.84,30.61l-8.56-19.18c16.13-2.66,29.94-14.59,42.46-24.57,15.24-13.17,14.07-16-.7-29-5.24-4.62-21.5-7.29-9.4-20.94,2.55-2.88,5.28-6.2,6.23-9.77,1.77-6.57,8.25-14.69-1.12-19.81-25.3-13.84-51.43-14.9-78.21-2.24,1.77-17-3.28-32.71-10.13-47.77-2.37-4.79-2.48-14.3-11.21-11.49-8.16,2.63-15.54,7.8-23.09,12.15-11.53,8-20.64-1.9-26.8-11.33-1-2.22-5.52-.37-4-3.29,2.72-5.22,3.87-13.94,9.76-14.41,44.6-3.39,85.71-46.81,67.27-92.39-.74-2.17-2.55-6-6.09-4.87-14.63,4.76-30.7,6-41.81,19.13s-24.68,24.45-26.31,43.87c-.73,8.79,2.49,18.88-.55,25.56-5.72,12.58-11.87,26.08-24.7,34.62-10.75-38-34-71.62-55.28-104.32-4-6.39-16.11-8.69-11.15-21.08,5.5-13.74.76-26.36-12.15-33-21.31-10.88-44,20.69-29.34,39.78,7.46,11.44,18.7,13.62,31.16,7.61,1.58-.76,2.75-.91,3.88.61C323.09,416.47,346.2,453.65,363,493.5c3.95,16.72-11.46,30.16-14.24,46.67-.51,2.19-1.83,3.67-4.66.64-8.92-9.53-18.4-18.54-27.72-27.69-6.38-6.26-17.79-12-18.42-18.71-2.25-23.92-17-38.32-33.35-52.1-17.66-14.91-39.44-13.55-60.56-12.79-2.23.08-8.64-1.82-8.94,2.64,1.72,44,53.77,85.47,97.11,73.33a3.05,3.05,0,0,1,2.61.29c12.78,12,25.49,24.1,38.31,36.26-8.54,1-17,.5-24.09,3.3-7.35,2.89-21.26,2.26-17.74,15.77,8.8,28.64-25.57,30.14-11.6,48.11,9.18,12.63,21.16,20.95,35.31,26.85a3.49,3.49,0,0,1-4,.7c-15.43-4.24-33.5,5.64-45.07,16.37-1.65,1.61-3.8,3-4.21-.06-1.43-10.49-9.24-17.75-12.9-27.13-14.42-35-34.07,5.4-38.06-2.75-1-7-4.47-15.34-2-21,8-18.21,17.56-35.36,16.55-56.42-1-21.69-15.14-43.48-35.66-50.36-2.75-.92-7.38-5.9-10.35-.52-9,16.25-17.8,32.49-15.61,52.32,4,57.17,41.37,44.8,36.8,77.32-2.47-1.46-5.47-2.44-7.32-4.47-20.86-21.73-23.49,15.67-28.2,3.86-11.11-19.32-26-35.89-39.36-53.53-17.14-16.85,18.12-20.39-.5-48.59-16.57-22.69-42-12.91-49.8,9.31C72,540.36,82,565.34,95.09,565.31c7.16,0,15.26-3.06,21,6,7.11,11.18,17.91,20.34,23.49,32.1,6.9,14.55,28.19,23.92,18.49,44.12-.7,1.45,2.06,8.91,1.7,13.34.59,8.71-15.4-2.58-20.34-7.63-9.62-10.43-26.41-12.11-32-28C99.09,603.38,79.56,588,59.5,577.13c-13.37-7.45-27.66-5.11-41,.1-33.11,6.6-21.09,27.58-2.16,43.7,21.88,20.38,46.77,32.39,78.07,24.58,3.95-1,7.85-5.22,11.59-3.17,15.6,6.4,27.71,19.08,42.13,28-19.45,3.26-38.7,3.68-53,18-6.09,6.07-13.33,13-.78,21.52,20.62,16.27-13.4,23.51-8.73,35.65,18.49,38.86,48.3,20.25,37.91,43.74-4.39,10.38-2.6,22.43,1,34.31,10.73,37.06,32.17-6.36,41.63,13.3,5.31,9.24-3.09,10.32-6.39,14.14s-4.59,9.44-11.84,10.33c-17.58,2.14-33.39,11-42.3,25.41-12.89,20.91-17.57,45-12.34,69.76,1.24,5.85,1.13,15.46,11,14.78,43.86-6.55,74.94-61.28,57.55-102.66-3.53-7.14,5.8-11.17,9.48-16.22,1.68-2.31,2.87,2.9,4.37,4.59,18.53,19.08,52-10.23,62-27.39,1.13-5.25,1-14.37,10.74-5.24,9.69,14.7,78.15,23.45,67.13-5.08-10.67-26.44,25.16-11.88,29.51-30.6,3.84-16.9-1.23-31.66-10.72-45.65-2.71-4-10.29-7.44-7.23-12.38,4.5-7.3,14.69-9.4,19.67-19.09-.44,15.28,8.41,16.3,19.48,15.55,18.36-.46,34.85-6.56,47.2-22.78,1.33-1.74,2.49-1.17,3.37.54,5.39,10.47,12.49,19.49,22.14,26.4,2,1.47,2.8,1.94-.46,4.16-5.7,3.89-15.86,5.29-15.16,14.24,1.82,23.37,14.6,39.2,36.52,47.68.82.32,1.75,3,1.39,3.35-9.06,9.31-6.44,21-6.1,31.87.82,25.65-.71,25.28,23.55,24.64,12.72-.33,19.78,9,19.25,21.75-2.07,22,34,9.34,45.66,4.5,14.24-6.69,24.15-17,32.42-29.15,8.64,6.87,17.89,14.2,27.12,21.57,5.19,4.14,14.29,2.22,16.86,10,7.37,27,8.61,55.5,20.22,81.41,8.46,21.45,18.54,42.54,18.62,66.16-2.1,49.84,9.55,97.91,29.59,143.38,16.75,36.79,29,75.4,44.37,112.59-20.84-7.36-40.64-18.84-63-22.79-5.19-1.08-11.38-2.58-3.87-9.5,1.08-1,1.51-4,.86-5.36-9.23-20.15-23.14-33.6-47.58-36.84-13.75.64-.34-9.54-2.08-24.19,1.78-46.06-34.1-10.6-38-21.91a139.07,139.07,0,0,1-2-17.59c-1.71-29.73-57.63,1.41-61.9,18.73-4.71,9.27-9,7.82-15.14,2.95-1.1-.87-3.06-2.37-1.22-3.59,8.76-5.86,14-14.41,17.15-23.91,6.37-19.22,9.59-29.68-12.68-33.75-21.94-3.39-2.78-15.16-5.67-26.52-5.29-13.68-18.32-16.77-30.37-17.68-32.22-3.93-52.39,18.44-54.24,9.19-5.38-14.36-13.86-27-22.72-39.29-1.22-1.7-6.23-3.17-3.9-4.58,7.11-4.29,14.57-12,23-9.19,39,11.59,87.69-2.93,100.22-44.42,2.39-6.73,2.8-15.45-5.51-20-31.61-8.26-65,12.18-87,33.43-11.5,13.18-19.92,30.06-40,32.64-2.79-12.17-19.83-16.32-16.6-32.7,2.79-14.16-4.71-26.91-11.48-39.23-9.88-18-23.07-31.44-44.75-32.76-4.4-.27-12.18-1.71-13.09,4.38A75.15,75.15,0,0,0,301.51,975c10.23,17,21.87,34.05,46,32,3.21,0,28.51,21.14,21.67,24.66-10.17,8.08-16.76,34.58-32.62,19.28-6.06-4.43-19.17-13.33-25.73-4.74-11.48,13.34-14.52,29.66-16.26,46-19-4.73-37.53.66-54.53,8.91-18.09,8.47-21.18,15.64-9.51,29.4,7.57,8.93,6.18,13.43-3.45,16.72-10.28,3.5-9.65,20-23.58,18.82-5.52-.47-11.89,9.69-16.5-2.09-5.16-13.16-14.25-23.26-25.71-31.75-16.28-12.06-20.5-13-27.52,1.15-7.34,14.78-13.11,20.52-25.51,4.38-3.38-4.38-12.77-5.76-17.07.61-12.36,18.32-23.45,37.38-16.38,61.11.42,1.42.59,2.76-1.91,3.62-16.16,7.37-44,9-46.41,30.4-1.65,14.45,34.63,15.71,12.16,35.71-27.86,17.47,13.5,48.25,34.63,46.23,3.87.07,4,1.21,3.68,3.95-5,32.2,24.44,88.84,55.55,51.13,7-7.07,10.05-3.34,14.73,2.67,3.76,4.83,2.45,16.75,12.47,13.43,13.95-4.63,23.42-15.38,32-27.53,6-8.45,1.38-26.39,22.26-23.31,14.64,2.15,29.35-4,41.24-14.22.22-.19,1.6.51,2,1.1,17,24.41,50.26,16.26,44.19,42.26-1.52,7.52-.8,13.68-10.6,13.64-10.51,0-19.84,8.25-31.42,2.89-38.46-17.76-81.57,6.4-99.44,42-14.64,21.9,13.77,24.13,29.3,24.44,9.14.51,18.57-3.75,27.84-6,18.33-4.48,31.2-16.11,42.2-30.92,4.69-6.32.88-18,12.76-19.66,7.29-1,14.92-1.7,21.61-4.44,20.2-8.72,11.64,18.31,22.33,16,4.22-2.49,9.11-2.94,13.52-4.88,5.59-2.45,13.54-7.24,19.18.06,7.95,10.29,19,20.31,10.11,35.42-2.59,4.37-2,14.14-7.11,12.73-23.26-8.47-38.95,25.34-26.63,41.31,5.54,6.85,13.44,10.29,22.5,6.73,10.36-4.06,18.62-10.69,17.29-23-1.35-12.48-8.12-24.67,2-36.84,3.24-3.89,2.64-13.28,5.9-14.47,19-7,29.87-21.35,38-38.56,2.12-8.45,14.14,12.72,36.7,13.82,44.88,2.07,6.93-30.5,28.81-39.66,5.17-1.18,14.33-1.76,15.84.84,5.51,9.51,13.76,15.06,22.28,20.82,2.07,1.39,6.34,1.84,4.86,5.51-1.67,4.17-3.1,8.9-8.62,10.34-32.38,9.11-51.51,42.81-49.6,76,2.22,57.4,52.42,3.12,63.07-20.83,23.69-32.66-15.53-52.29,15.89-75.22.64-.45.55-2.21,1.14-2.41,4.76-1.66,3.55-13.4,11.13-8.3,6.6,4.44,12.27,11.31,16.34,18.28,10.55,18.64,28.74,36.76,39.42,53.86-10.11,31.09,37,45.67,48.67,19.1,8.51-20.29-19.3-44.65-38-31-3.31,2.22-5.9,2.26-8.54-1.46-9.89-14-20.06-27.71-30.1-41.56-1.34-1.85-1.63-3.09,1.11-4.54,18.68-9.86,29.28-25.74,31.61-46.43.71-6.32,2-7.75,8-7.7,4.8,0,4.23,4,6.18,5.9,17.81,17.62,36,34.55,56.14,49.78,107.33,67.75,156.52,70.35,144.32,215.39-.13,4,.29,9.27,4.08,12.06,2,1.54,3.38.21,4.21-.93,5.1-5.76,2.08-13.57,2.6-20.48.76-15,2.47-30,2.43-45,0-6.37,2.83-4.57,5.77-4,24.57,6.48,51.39,5.66,75-4.68,2.38-1.15,7.71-1.94,5.26-6.29-6.18-6.41-17.59,4.61-24.94,4.17-15.89.71-32,3.63-47.65-.1-31,.12-6.62-22.51-35.93-69.28,37,7.51,66.88,7.84,101.26-10.54,3.47-1.78,8.68-4.06,8-8.86-.3-2-4.82-.67-7.75.49a144.14,144.14,0,0,1-88.07,12.39c-11.59-1.66-23.14-4.34-32.16-12.59-17.62-16.11-37.94-28.07-58.77-39.38-41-21.06-78.76-45.76-110.12-80.27,6.1,2.7,9.08-2.1,13.27-3.64,17.44-6.43,20.06-17.94,7.17-30.93-2.3-2.64-7.9-6-5.69-9.8,5.12-10.34,66.59,18.79,76.87,23.53,6.27,3.25,14.69,2.61,18.89,10.14,6.33,11.31,12.71,22.69,23.26,30.83,1.25,1,2.43,3.75,4.37,1.72a4.36,4.36,0,0,0,.69-5.74c-8-13.73-18-26.25-23.6-41.52-6.91-18.94-15.54-37.26-22.12-56.3-1.4-4-7.18-9.78-3.16-12.89,5-3.88,12.35-5.44,18.92-6.45,16.77-2.6,33.69-6.19,50.51-6,26.42.31,47.41-10.92,67.63-25.64,2.54-1.85,7.58-2.32,4.64-6.48-2.14-3-6.59-1-9.29.9-36.1,28.66-81.51,17.26-122.74,30.17-4.55,1.37-10.84,9.67-15.09,1.41a404.35,404.35,0,0,1-19.79-45.57c-2.19-5.93-8.69-13.18-2.36-19.4,28.62-25.31,70.74-22.2,102.68-41.84,9.3-2.9,2.14-8.87-4.56-5.26-31.43,14.79-67.28,13.56-96.32,34.15,8.56-18.21,5.06-37.23,1.7-55.85-.48-3-1.28-9.52-6.87-9.1-3.47.2-3.28,4.14-2.54,6.53,6.52,21.22,5.32,42.26-1.6,64.17-7.29-19.27-12.09-38.36-13.77-58.6-.31-4.88-6.49-13.12,3.9-16.08,44.41-11.64,42.62-53.39,95.4-61.66,11.45-2.27,23.88.19,34.08-7.69,12.28-9.47,24.45-19,41.57-16.82,3.61,1,10.08-7.24,3.36-8.07-10.1-4-34,2.56-41.15,10.88a31,31,0,0,1-14.68,9.45c-12.8,3.95-26.49.54-39.3,7.4-12.5,6.69-27.17,10-36.9,20.91-10.76,12.07-20.18,25.58-35.57,32-3.33,1.39-12.12,12.21-13-1.84-.72-11.31.64-23,10.89-31.35a47.87,47.87,0,0,0,10.39-11.9c25.12-45.41,82.89-19.2,98.66-71.66,22.81-66.2,64-2.36,95-35.86,2.21,9.42-1.46,18-1.33,26.83s-1.24,15-12,7.72c-22.18-5.4-48.68-4.45-66.95,12.71-6.58,4.11-.8,12.4,5.15,7.79,3.17-2.48,6.4-5.17,10-6.74,10.77-5.84,68.8-14.84,59.92,9.4-16.43,84.56-5.1,23.4-72.69,66.37-15.8,9.67-29.37,23.16-49.46,24.8-2.33.19-9.93-2.4-9.77,4.15.41,13.05,39.5-2.57,44.8-7.42,16.21-12.15,33.24-22.21,52.42-28.58,6.6-2.2,15.77-6.46,19.61-1.23s1.68,17.14-3.42,20.91c-45.2,40.3-86.18,29.51-138.66,45.57-6.07.28-17.91,14.89-4.87,11.78,57.33-19.24,93.61-3.93,145.35-47.42.77,1.59,2.35,3.29,2.17,4.76-.75,6,3.65,11.09,3.19,16.48-.93,10.66,16.26,19.76,1.25,31.83-40,36.07-96,24.93-140.1,50.17-3.31,2.23-2.83,7.86,1.44,6.29,46.23-18.15,101.52-12.77,140.09-48.13,1.82-1.69,6-9.26,9.9-3.09,4.45,7,6.78,15.34,9.95,23.14.58,1.4,1.31,2.67-.8,4.08-36.86,25.76-82,35.61-125.77,42.28-9.16,1.53-19,4.19-25.32,12.55-.89,1.16-2.44,2.22-.55,3.65.77.58,2.15,1.32,2.76,1,26.11-13.18,56.17-8.75,83.15-19,18.5-7.06,37.56-12.23,54.89-22.43,5.76-3.39,13.34-21.12,21.32.2,6.12,16.34,15.89,31.32,24.23,46.8,1.6,3-.94,3.9-2.08,4.5-12.62,6.62-25.16,13.45-38.16,19.23-42,21.71-44.4,8.91-81,16.34,3.56,10.78,39.71,7.33,49.42,5,26.73-6.22,50.68-18.55,73.2-33.92,1.63-1.12,2.87-1.42,4.37.59,11.69,15.65,18.7,34,28.74,50.55,2.43,4,2.27,8.18-3.78,8.22-18.39.11-33.48,10-49.39,16.93-24.81,10.75-49.62,20-77.29,17.54-1.28-.11-3.25-.69-3.37,1.73-.08,1.8-.44,3.78,2.15,4.33,6.28,1.32,12.63,4.08,18.83,3.78,43.27,1.53,92.36-44.13,123.88-34C975.58,1280.16,983.44,1274.56,976,1269.67ZM769.64,160.86c7-9.34,17-14.26,26.66-19.23,3.4-1.76,3.94,6.12,4.46,9.62,4.5,31.56-17.57,48.94-41.32,66.3,9-19.68,19.68-34.12,29.36-49.12,5.65-5.84-.38-10.86-5.48-5.68-11.27,12.84-19.6,27.8-28.74,42.15-1.46,1.2-2.72-1-2.78-2.19C752.15,186.38,760.12,173.46,769.64,160.86ZM516.32,305.76c-15.71,8.94-45.86-6-57.69-17.93-7.36-6.95.83-8.57,2.44-12.42,23.51-41.94-30.57-28.16-10.19-52.75,10.18-12.1,24.31-18.74,39.44-21.26,32.07-2.92-10.4-25.48,11.58-60.73,11-20.07,18.5,1.34,27.46,1.46,12.61.16,21.19-3.19,21.78-16.86-.1-14.83,3.84-23,17.76-13,13.6,5.45,19.29,18.53,26,30.35,19.45,38.77,6,5.05,49.94-1.1,6.25-1.36,13.59,1.14,20.18,2.88,5.91,1.55,7.17,5,4.44,11.5-10.2,18.66,5.81,31.28,24.38,27.49,4-.46,11.4.58,11.78,2.23,7.14,25-3.35,32.83-21.2,46.91-.51.52-2.83.21-3.49-.49-14.36-15.48-22.43-.16-30,9.5-7.15,11.37-12.7,11.06-19.28-1.17-3.39-5.84,6.31-.24,13.11-7,5.5-10.84-41.38-1.62-32.46-9.85,6.56-6.16,42.67-22.5,37-31.13-2.74-4.52-6.18,1-8.73,2.61-10.91,6.79-21.46,14.15-32.2,21.2-2.82,1.85-10-5.45-8.6-8.61,3.18-9.44,7.36-18.76,7.33-29,.87-6.8-7.65-7.64-7.87-1.22-.44,8.91-7,16.13-6.53,25.32.15,3.2-2.86,4.73-6.42,4.27-6.32-.81-12.58,1.18-15.72-8.53-3.7-11.47-11-21.81-17-32.47-.87-1.54-3.94-3.19-5.36-.85-4.83,7.54,13.09,34.26,16,44.12a2.82,2.82,0,0,1-.9,2.61c-1.85,1-2.68,4.2-5.54,3-9.72-4.29-19.49-8.49-29-13.11-3.17-1.53-4.54.37-5.57,2.15-.88,1.55-1.11,4,1.28,5.12,8.94,4.15,17.76,8.63,26.93,12.21,7.09,2.77,2.43,8.12,3.25,12.1.64,3.14-3,1.31-4.82,1.76-13.5,3.36-27,6.75-40.38,10.54-1.78.51-4,3.61-2,5.68,3.72,3.78,8.71,2,13.06,1.19,12-2.22,23.89-4.9,35.83-7.37,3.46-.71,4.56,2.54,5.85,4.41.6.87-1,4.07-2.43,5.39a71.58,71.58,0,0,0-15.3,20.45c-.87,1.76-2.92,3.73-.31,5,2.13,1.15,4.84,3.72,7.07,1,6.68-7.63,13.44-15.22,19.53-23.31,1.23-1.63,1.44-3.43,3.81-2.84,7.74,2,3,14.73,4.24,22.7C588.31,307.16,549.44,280.4,516.32,305.76Zm67.84-58.84c-28.09,3.41-25.91-33.68.7-31.5C606.93,215.41,609.67,250.42,584.16,246.92ZM691.88,449c-10-14.07-13.54-3.57-16.55,4.09-8.62,21.95-25.39,33.71-47.12,39.73-5.71,1.58-9.08-1.29-9.06-7.07,0-7.83-3.89-14.36-7.46-20.51-12-19.3-26.27,7.29-36.91,7.42-16.19-15.41-14.38-39.73-8.23-59.66,3.54-11.57-9.69-9.21-15.55-11.73-18.26-7.86-28.43-23.11-35.26-39.86-4-9.86,8.93-7.2,14-10,24.54-11.63,1.33-21.14-4.24-35.85-2.59-5.82,3.87-6.89,7.12-8.3,13.13-5.7,27.06-6.14,41-4.26,16,2.15,19.84-1.11,21.51-16.89C597,268.77,605,254.5,619,244c4-3,5.6,1.67,7.64,3.56,3.7,3.41,6.49,7.9,10.46,10.9,8.7,6.57,13.85,1.11,17.86-6.37,15.2-38.09,31.82,1.61,40.19,20.23,9,22.17,21-15.86,61.63-17.09,28.9-5.33-7.82,38.64,34.55,41.36,5.77.92,6.37,3.72,5.42,8.05-4.8,21.9-15.82,39.75-34.57,52.5-1.84,1.24-1.53,2.46,0,4,15.05,16.13,25.25,36.69,23.28,58.66-.13,5-6.93,2.94-10.43,2.93-19.46-1.74-29.16,10.84-20.15,29.39,4,17.47-11.38,14-19.4,16.5C715.81,474.83,702.35,463.76,691.88,449Zm-56.6,140c.9-8.09,3.36-16.26,14.14-15.91,21.53,0,15.12,29.54-6.92,28.08C637.43,601.47,634.5,596,635.28,589ZM434.66,389c7.37-6.4,16.65-7,25.42-9.29,2.06-.54,2.55,1.23,2.88,3,7.14,38.52-22.68,69.29-55.68,74.79,13.26-17.09,27.25-34.9,40.57-52.39a4.89,4.89,0,0,0,0-7c-2.49-2.77-3.8.72-4.8,1.87-13.19,15.29-26.21,30.74-39.91,46.89C402.05,420.86,417.06,404.31,434.66,389ZM277.17,376.38c-16.38-1.36-14.53-34.66,4.83-32.33C299.88,343.88,296.91,376.71,277.17,376.38Zm11.31,113.29c-18.75-16.33-39.6-32-61.76-43.14-6.9.59-4,7.59.62,9.87,17.07,12.46,34.26,24.76,51.32,37.23,1.13.83,1.5,2.68,2.23,4.05-34.59.9-66-25.24-77.45-58.28,8.43-3,15.78-1.83,24.1-.45,9.25,1,18.58,1.48,27.45,5.77C267.57,450.79,290.54,480.58,288.48,489.67Zm-186,65.77c-26.59-.9-22.15-36.43.65-36.19C124.27,520.29,123.82,554.3,102.44,555.44ZM41.73,609.7A294.17,294.17,0,0,1,96.91,636c-36.83,10.82-75.52-9.52-91.12-42.78-1.79-4,2-2.17,2.87-2.67,37.67-23.14,71.15,4.43,91.47,37.32-10-5.5-58.81-31.84-63.71-23.38C35.12,607.67,39.14,608.86,41.73,609.7Zm76.5,347.41c-18.56,12.76-21.16-2.6-18.13-13,1-11.76.67-24,4.81-35.59,6.67-17.33,21.15-35.06,39.78-37.29-6.72,12.42-39.23,59.53-27,70.15,1.11,0,2.9-.71,3.19-1.53,8.54-23.13,19.64-45.38,33.83-65.47C166.72,899.41,147.49,945.63,118.23,957.11ZM195.41,525.2c-3.79-8.45-11.62-2.83-8.1,4,7.18,19.07,5.89,39.71,11.43,59,.62,2.17-2.12,4.21.08,6.56-30.93-20.46-32.72-63.7-14.79-93,34.83,21,40.35,39.56,23.8,84C202.72,565.06,202.49,544.49,195.41,525.2ZM340.82,697.43c-4.17,23.93-41.61,29-25.07,37.84,12.17,6.35,24.36,35.44,20.39,48.75-5.94,14.92-41.39-2.59-29.55,33.16,1.88,5.21-1.63,8.62-6.21,9.25-21.24,2.87-39.9-2.64-55.36-18-3.43-3.41-6.58-1.76-8,2.12-7.28,20.86-21.34,37.81-44.88,41.7-20.15.06-9.15-47.78-48.35-25-5.44,3.09-7.31-.54-8.28-2.87-15.27-33.27,13-54.75-2.85-55.46-16.26-1.78-27.19-11.48-35-24.81-2.65-4.51,3.8-6.19,6.08-8.85,10.62-12.37,10.24-20.1-2.25-30.72-1.18-1-2.57-3.89-2.2-4.26,18-25.65,63-12.48,65.42-23.26a73.42,73.42,0,0,1,17.6-53.32c36.48,40.21,46.42-24.13,56.3,8.32,7.07,11.35,12.69,23.61,19.11,35.38,1.11,2,3.26,2.52,5.37.29,12.5-14.2,36.05-29.79,54.81-18.13,1.52,1.57-1.94,7.27-1.91,11.08-2.5,18.52-5.45,36.07,21.16,32.28C340.93,692.89,341.57,694.61,340.82,697.43ZM421,695.37c-1-1.74-3-2.92-4.53-4.37-9.75,16-36.3,32-57.85,27.85-8.65-7.09-3.15-21.36-10.19-30.32-13.68-14-30.51,11.41-24.69-24.79,1.51-8.54,6.46-16.19,8.78-24.31,3.29-11.54-9.46-7.67-14.2-9.85-13.6-6.27-24.86-14.59-32.6-27.06-4.52-7.25,22.27-13.52,15.13-34.7-5.16-15.09,7.82-11.49,14-14.69,10.69-5.52,21.79.53,32.83-.6,9-.91,7.59-8.24,8.73-12.21a126.05,126.05,0,0,1,26.95-49c11.32-10.27,12.45,34.91,47.58,10.19,9.72-6.31,20.13-9.64,22.09,6.16,2,13.72,5.07,27.31,8.08,40.86.58,2.61,2.82,2.83,5.91,1.44,23-10.33,46.09-11.15,69.11.06,10.83,5.28,1,11.67-.87,14.79-31.6,41.06,34.46,30.68,5.38,55.66A141.41,141.41,0,0,1,503.53,643c-5,2.11-7.2,5.21-2.72,11.2,6.85,9.17,7.86,20.5,8.41,33.77,1.85,5.58-2.7,11.9-4.76,18.58-3.46,11.24-11.71,3.69-16.11,1.92-14.5-5.83-22-2.26-24.47,13.31-2.27,14.25-11.18,7-16.79,3.6C435.32,718.38,427.79,707.11,421,695.37Zm201.58,167c-.64,3.81-.13,7.43-.72,11.35-28.76-4.68-40.3-42-50.84-26.49-11.63,20.75-30.44,29.56-53.14,33.65-16.67,3.09-9.9-11.66-12.32-18-4-10.52-21.77-20.89-32.23-15.41-6.53,3.41-7.69-.25-8.22-4.85-1.65-14.18-2-27.67,5.17-41.49,4.63-9-8-10.48-13.23-13.73-13.77-8.5-21.58-20.42-23.64-35.83-.64-4.74,6.62-5.32,9.94-8.21,11.05-14,20.08,7.5,27.82-14.84,8.2-29.86,28,8.67,43-19.57a29,29,0,0,0,2.86-12.5c.19-17.92,9.47-31.3,22-42.85,3.13-2.87,5.95-4.4,10.1.57,12.77,15.28,31.54,17.9,46.77,3.07,10.37-10.1,11.76,2.85,14.67,7.86,3.2,5.52,3.94,12.42,6.53,18.37,1.74,4,6.24,5.27,9.51,2.63,14.94-12,49.49-8.38,62.88,2.68,4.7,3.87-.77,6.95-1.74,9-19.74,34.87,28.54,35.15,9.38,49-10,6.61-17.26,16.94-29.53,20.81-3.87,1.22-7.08,5.89-3,12.42,9.54,15.44,13.16,32.42,8.49,50.58-1,3.74-3.21,3.68-6,2.94C646.25,828.1,626.24,841.1,622.62,862.39ZM478.43,969c19.88-4.08,30.75.69,16.95,17.09-9.89,23.83-51.2,38.89-73.74,30.61,16.78-8.15,36-11.5,49.88-25.48,6.39-2.83.4-8.7-4.14-5.91-17.64,9.93-34.06,19.63-54.09,24.42C432.07,988.14,452.53,974.11,478.43,969Zm-127.9,21.76c-9.41-8-27.68-45.76-38.61-43.9-2.62,2.15.11,3.76,1.18,5.36,10.26,15.3,20.56,30.58,32,47.57-29.53-11.6-41.51-36.61-46.09-64.67-1.24-8.18,4.4-7,8.43-5.57C333.5,938.29,349.48,963.81,350.53,990.75ZM251.3,1408.46c-19.55,23.46-57,38.83-85.21,26.24-2.61-7.23,4.83-13.13,9.06-18.34,18.26-22.34,46.84-38.81,76.24-28.31-24.28,10.93-49.26,18.68-70.38,34.55-1.49,1.66-5.47,2.67-3.48,5.51,2.14,3.06,6,1.49,8.44-.1,15.55-10.08,32.64-16.88,49.68-23.8,6.34-1.66,12.7-7.31,19.19-6.22C253.71,1401.52,253.52,1405.87,251.3,1408.46ZM356.08,1466c-.41,8.38-1.44,19-14.56,19-7.89,0-10.6-4.39-10.53-12.9,1.85-7.65,2.24-17.74,14.72-19C355.43,1452.12,356.28,1461.76,356.08,1466Zm272.62-38.38c22.06-1.88,27.76,33.5,3.17,30C612,1458.71,608,1428.23,628.7,1427.58Zm-393.79-272.4c25.83-12.14,3.58-25.7-.73-37.59,5.85-6.95,15.24-9.08,23.57-12.73,24.41-11.85,49.05,5.24,45.25-6.44a76.53,76.53,0,0,1,13.82-44.27c6.71-10.23,21.28,21.45,36.46,10.62,8.66-5,11.8-15.39,17.55-23.26,1.57-2.14,1.58-2.78,4.11-1.34,17.05,9.71,21.83,27.95,29.55,43.74,6.57,19.54,38.59-23,79.84-.65,9.27,4.67,1.32,10.41-.21,14.47-4.87,12.9-1.05,19.92,13.19,21.34,26.09,2.13,2.86,40-10.59,47.33-9.6,5.62-1.87,12.55-1.6,19,9.65,33-9.77-8.91-61.56,21.85-7,3.3-8.29-5.52-9.74-8-4.62-8-11.58-13.83-16.7-22.12,12.81,0,25.25.35,37.65-.23,3.29-.16,9.62,3.82,9.93-2.68.28-6-7.19-4.61-10.31-4.8-14.9-.91-29.9-.41-44.86-.52-.81,0-1.62-1-2.43-1.53,1.14-1.4,2-3.43,3.47-4.11,13.85-6.34,27.89-12.28,41.65-18.82,1.89-.9,2.52-4.44,3.73-6.76-11.7-2.85-37.65,14.17-50.91,18.43-3.41,1.49-3.68-2.6-5.58-3.82-.91-.59-3.49-2.29-1.57-5.27,6.3-9.81,12.08-19.94,18.18-29.87,4.26-6.43-2.78-11.29-6.24-4.28-6,9.56-12,19.09-17.68,28.85-1.57,2.71-4.1,4.83-5.86,3-2.29-2.42-7.21.6-7.9-6.66-1.23-13.09-1.1-26.87-7.24-39.17-3.29-6.08-7.53-2.1-6.09,3.1,1.93,11.36,4.17,22.67,5.68,34.09.36,2.74,2.38,6.91-1.85,8.83-5.82,2.65-9.08-1.44-11.69-5.49-5.45-8.48-11.45-16.37-19.55-22.53-1.83-1.39-3-2.82-5.2-.13-1.86,2.27-1.33,3.1.37,5.16,7.62,9.25,14.69,19,22.36,28.17,4.15,5-3.47,6.49-2.41,10.33-9.28,3.28-60.4-17.24-60.63-9.66-.41,3,2.72,3.36,5.14,4.74,10.15,5.81,21.39,7.61,32.32,10.63,8,1.7,17.1.28,21.07,9.25-12.27,6.92-25.8,11-38.72,16.55-2.27,1-5.75,3.47-3.51,5.68,3.27,3.23,9.1,3,12.21.37,3.61-3.1,8.27-1.87,11.55-4.69a2.28,2.28,0,0,1,2.19.44,3.23,3.23,0,0,1,.21,2.73c-5.22,8.59-6.4,18.61-7.16,28-.75,9.2-5.45,9.29-11.85,10.14-6.69,1-13.21,3.52-19.79,5.22-3-8.38,11.46-39.06-4-36.92C253,1206.32,203.89,1166.11,234.91,1155.18Zm141.54,10.67c.94,25-30.27,32.57-35.81,6.36C340.1,1151,375.31,1145.14,376.45,1165.85ZM250.39,1311.61c-9.36,10.48-31.09,15.85-47.08,15.14-16.56-5.66-8.44,33.86-41.5,47.78-7.27,3.38-6.62-6.25-9.43-9.82-7.58-9.61-16.19-10.48-24.85-1.57-1.91,2-3.75,4.75-6.1,5.38-3.93,1.07-4.91,7.72-9.07,5.83-8.43-3.82-14.77-10.47-19.24-18.65-18.36-30.84,7.9-55.66-16.62-48.45-17.59-.18-28.62-10-37.57-23.45-1.54-2.31.1-3.93,2.47-5.33,18-10.72,18.58-24.62,1.73-37.07-13.27-5.86-1-17.63,7.88-20.18,10.08-3.77,20.67-6.28,30.55-10.48,7.25-3.08,1.47-8.93.36-12.83-4.48-15.75,5-41.13,16.69-50.77,2.52-2.07,4-1.56,6.41,1.06,15.13,16.71,24.11,13.14,33.88-4,1.88-3.3,2.44-9.3,6.49-8.68,20.48,5.67,28.75,29.22,40.24,44.78,2.43,3.28,9.07,1.17,12.44-1.8,36.39-18.68,2.78,17.32,69.85,32.5,2.48.66,3.31.23,1.95,3.36-8.51,14.66,5.36,31.09-11.76,38.17-5.55,2.73-3.51,5.63-1.74,8.69,2.57,4.43,5.64,8.57,8.52,12.82C276.34,1292.26,236.64,1289,250.39,1311.61ZM489.13,1340c-.2,4.83-2.16,5.5-5.79,5.22-20.64-1.59-28.13,15.59-22.78,32.61,3.14,10-5.19,6.34-9.06,7-12.77.87-22.78-4.36-31.45-12.05-12.24-10.88-15.1.09-19,7.86-6.64,13.18-15.41,24.08-30.21,28.12-6.73,1.83-5.33-6.06-7.07-8.8-11.24-17.77-20.27-19.72-38.92-11.34-13.23,6-11.7-9.31-13.07-15-1.93-8-3.44-16.81-1-25.89,6.19-20.56-30.52,5-52.95-44.29,10.86-13.54,27.84-13.68,14.73-36.16-1.69-2.94-7.67-5.6-5.2-8.26,4.51-4.83,9.23-10.1,16.32-12.18,9.45-2.76,18.71-5.55,28.79-4,8.69,1.72-5.12-26.45,16.37-50.28,4-4.93,7.34-7.22,12.7-1.66,13.06,13.54,31.89,9.9,39.54-7.31,2.49-5.6,5.71-.3,6.91.66,9.43,7.51,16.56,17.18,22.95,27.29,10.37,19.9,34.31-20.65,64.91-4.63,6.93,3.58,0,8.11-.44,11.77-1.41,10.68,7.8,23.88,18.49,24.25,2.93.1,6.64,1,6.75,3.48.32,6.72.38,13.13-3.14,20-5.66,11-16.61,14.75-25,21.84C456.7,1299.7,491.78,1309,489.13,1340Zm34,78.65c-4.25,28.63-20.08,50-43.61,65.67-8.56,5.68-7.68-4.28-8.3-8.44-5.32-29.34,8.9-56,32.73-72.6,1.12-1,4-.69,2.33,2.56-6.55,17-14.31,33.68-21.14,50.64-.58,1.39.33,3.39.54,5.11,4.38-1.71,9.32-3.59,11.13-7.87,6.5-15.37,12.24-31.06,18.45-46.56.78-2,2.7-5,3.93-4.93,3.07.2,1.07,3.46,1.78,5.27C522.37,1411.08,523.93,1414.56,523.15,1418.69ZM648.51,1262c-18.36,10.73-18.67,12.66-4,27.59,2,2,6.61,4,4.82,7-3.81,6.3-9.63,11-17.24,12.24s-15.52,1.26-23.12,2.73c-8.42,1.64-4.52,9.05-5,13.82-1.67,18.28-12,29.81-26.54,39.85-11.14,7.66-13.17-2.53-16.71-7.06-25.09-28.12-20.83,35.63-52.17,1.71-14.56-11.33-8.37-28.25-14.84-42.57-21.53-34.88-25.17-12.48,21.44-40.27,2.28-1.13,5-3.72,7,0s5.93,7.18,1.09,12.51c-7.1,8.31-13.91,18.43-20.07,27,4.51,5.94,9,2.19,11.52-2.47,6.57-7.89,12-16.69,18.66-24.52,1.38-1.62,5.92-.55,8.91-.72-3.88,11.47.42,22.27,1.82,32.94,0,6.9-1.48,14.75,7.67,17.17,7.42-16-9.8-45.61,1.61-55.39,7.21-.24,20.69,13.09,28.07,16.91,2.12,1.44,4.36,4.6,7,.77,2.5-3.59-1.08-4.88-3-6.4-7.44-6-14.76-12.2-22.69-17.47-5.11-3.4,1.49-6.44-.73-9.32,12.16,6,25.46.89,37.83,4.21,3.13,2,7.21-1.33,6.7-4.51-4.33-6.17-37.09-4.06-45.31-8,0-1.82.11-4.52,1.25-5.28,9.93-6.59,14.71-18.63,25.79-24.07,6.68-4.22-.1-12.78-5.92-6.34-8.33,7.29-16.35,14.94-24.63,22.28-.67.6-1.1,4.38-2.56,1.52s-7.33-2.71-5.16-7.91c6.37-15.26,12.67-30.55,18.73-45.93.48-1.21-1.06-3.21-1.66-4.85-10.21,0-21.66,39.77-24.37,49.61-1.07,4.58-5.32,1.3-8,2-1.51.39-3,.5-3.87-2.27-3.68-11.59-7.85-23-12.3-34.36-.6-1.3-4.28-3-5.73-2.41-4.84,3.91-.35,8.52.67,12.15,2.94,10.43,7.44,20.42,11.13,30.65.27.77-1,2.09-1.54,3.15-.87,1.7-1.51,1-2.51,0-8-8.16-17.36-12.86-28.79-15.47-14-3.33,11.6-18.89,2.47-55.84,6,8.28,11.12,12.41,17.92,14.93,4.3,0,4.65-7.95,5.89-10.66,8.91-19.42,25.81-27.47,44.64-31,8.83-1.67,4.88,8.62,5.54,13.45-.89,14.53,6.52,23.29,21.22,16.23,4.13-1.94,9.44-7,13.07-2.9,10.7,11.33-3,28-1.28,41.21-.08,9,9.83,4.75,15.07,4.81C629.63,1223.17,674.3,1251.61,648.51,1262Zm-142.09,8.41c2-4.27,2.68-15.38,6.43-17.35C522.33,1259.86,516.26,1269.64,506.42,1270.45Zm20.68-8.52c0-17.34,28.22-15.19,26.12.46C554.18,1286.53,524.42,1283,527.1,1261.93Zm445.81,218c-2.37,3.7-6.67,1.79-8.8.74-31.34-12.68-60.69,3.26-91.13,12.66-1.71-1.41-5.81-3.16-5.94-5.17-.44-6.56,6.26-3.42,9.21-4.61,29.94-12.09,65.06-24.56,96.14-8.06C973.13,1475.81,973.56,1478.9,972.91,1479.92Zm-11.28,59.54c-19.11,15.39-44,23.13-68.28,23.73-9.57-.08-17.6,4-25.48-.09-7.59-1.62-5.84-9.49,1.66-8.09,17.36,2.51,34-1.27,50.8-5,13.81-3,25.26-10.36,37.5-16.34,3-1.48,3.41,1.22,4.67,2.26C964,1537.2,963.08,1538.44,961.63,1539.46ZM753.38,1352.84c92.49,21.42,78.61,70.44,189,28.92,2.09-.58,4.76,1,7.17,1.52-4.9,11.86-36,17.48-48,21.54-35.28,13.64-70.91-4.22-98.67-22.29-13-8.21-27.25-15.1-43.72-16.19-10.34-.68-20.68-4.16-30.61-7.6-14.12-5.73-48.29-9.1-49.09-28.13C702.93,1341.59,727.42,1349.55,753.38,1352.84ZM904.05,291.07c10.76-.57,45.82,25.91,37.89,37.7-.47.36-2.55-.39-3.06-1.18C925.51,303.73,890.08,302.88,904.05,291.07ZM810.69,1281.7c-12.63-2-26.53,6.41-39.57,2.21,17.55-19.77,71-6.06,97-13.14,23.73-3.54,43.2-31.67,68.62-20-1.55,1.4-3.17,4.07-4.65,4-18.5-.92-30.94,12.35-45.9,19.49C862.52,1285.91,836.62,1282.7,810.69,1281.7Zm-18.16,39.15c36.91,2.88,67.15,22.86,104.21,3.55,8.67-5.88,7.3,7,1.16,8.26-12.48,3-23.92,11-35.54,8.48-26.57.76-47.5-9.45-71.11-14.06-2-.42-5.8,1.41-5.56-1.8C785.87,1322.88,789,1320.89,792.53,1320.85ZM822,845.71c12.07,1.51,23.22,7.62,35.8,7.36,3.61-.07,7.36,1.18,10.84,2.4,5,4.15-.47,5.92-4,7.45-2.15.59-4.6.13-10.54.13-3.28-.71-50.09-8.42-43.26-18.17C814.16,839.58,818.3,845.25,822,845.71Zm-97.9-490.57c-12.63-.87-25.28-1.42-37.91-2.23-1.74-.12-3.68,4.55-4.86.22-.73-2.68,2.71-3,4.56-4.12,12.37-7.61,24.67-15.33,37-23,5-3,1.65-10-3.52-6.12-14,8-28.07,15.85-42,23.92-1.23.71-1.76,1.43-2.54-.13-.53-1.06-1.69-2.45-1.37-3.18,4.82-11.22,9.88-22.33,14.77-33.51,1.42-3.24,2.37-7.18-1.21-9.2-3-1.7-4.47,2.29-5.18,4.05-3.67,9-10.16,16.56-12.06,26.51-.51,2.69-1.17,8.35-5.87,8.22-2-.06-6.36.06-6.83-4.26-1.3-12-2.27-24-4.25-35.85-.64-3.82-.13-11.33-5-10.63-9.76.87,1.4,38.57-.68,48.15,0,4.67-3.78,4.15-5.87,6-1.5,1.35-1.66.23-2.56-.5-9.94-8.15-19.9-16.26-30-24.2-1.3-1-3.29-4-4.82-1.67-1.13,1.7-1.15,6,.13,7.16,7.68,7.08,15.66,13.91,24,20.2,4.87,3.68,4.54,7.64,3,12.46-.6,1.85-1.31.93-2.49.77q-20.51-2.79-41-5.25c-2.66-.33-3.76,2-4.27,3.86-.71,2.62,2,2,3.31,2.47,10.21,3.81,20.95,4.55,31.62,5.94,4.27.55,10.52-.27,12.26,4.61s-4.56,6.33-7.48,8.3c-9.06,6.13-18.8,11.26-28.27,16.8-2,1.17-4.18,2.7-3.19,5.21,6.38,6.15,32.24-13.43,39.06-17.59,3.88-3.76,11.78.21,8.75,5.87-5.83,10.83-11,22-15.9,33.34-1.26,2.9-5.49,7.43-.81,9.7,8.9,3.31,19.67-33.48,25-40.52,1.84-3.57,6.22-1.87,9.52-2.14.59,0,1.77.75,1.82,1.24,1.57,15.54,10.53,28.63,14.53,43.39.52,1.91,1.94,6.25,5.41,4.95,2.65-1,4-3.65,2.69-7.45-4.9-13.73-9.27-27.65-13.94-41.46-1-2.82-.36-4.87,2.07-6.41,1-.61,2.7-1.72,3-1.44,11.22,10.47,25.91,15.4,38.31,24,2.21,1.53,5,4.76,8.14,1.62,4.34-4.33-.73-6.45-2.93-7.91C704.62,387.73,693,380.22,681,373.51c-4.86-2.71-2.29-5.46-1.93-8.46.45-3.76,3.38-1.79,5.07-1.88,12-.63,24.07.61,36-.34,2.41-.25,4.55-3.1,6.81-4.76C726,357.06,725.09,355.21,724.07,355.14Zm-72.42,21c-21.65-1.81-15.15-35.42,6.11-31.32C682.34,348.62,668,379.28,651.65,376.13ZM599.9,775.19c10.15,1.15,36,12.92,43.23,6.29,2.19-2.43-1.63-5.31-4.41-6.05-11.33-3-22.76-5.64-34.12-8.53-1.85-.48-5.06,2-5.37-2.19-.28-3.67-1.11-7.2,3.72-9.33,13.25-5.84,26.19-12.38,39.48-18.12,3.3-1.43,2.9-3.42,2.39-5.43-5.47-8.47-37.79,13-46,15.93-6.61,3.14-7.45-3.21-10.74-5.13-2.68-1.56,1-3.56,2-4.81,4.15-6.56,29.47-31.75,23.09-37.8-1.69-2.29-3.36-.78-4.47.62-9.27,11.62-18.51,23.27-27.58,35.05-.88,1.14-.51,4-2.72,3-7.82-3.23-2.94-25.23-4.19-33.23h.8c-1.06-5.33,3-14.31-3.74-16.53-3.58-.83-3.51,1.94-5.07,3.87-3.74,4.64.71,8.19.74,12.21.08,7.76-3.36,15.11-1.26,23.18,2,7.66-5,10.15-10.23,13.51-3.7,2.39-3.75-1.24-4.76-2.44-7-6-22.4-34.67-31.26-29.41-4,5.08,21.77,29.4,25.67,36.69,4.1,5.42-6.5,7.33-4.33,13,.07.18-1.09,1.23-1.48,1.13-10.36-1.54-50.91-16.73-55.87-9.89,2.12,1.94,1.94,5.53,5.77,6.4,16.71,3.78,33.34,7.91,50,12,2.45,1,1.35,3.11-.46,3.79-7.66,4-45.39,10.55-43.29,18.69-1.68,6.32,40.06-8,44.34-9.09,3.61-1.27,4.87,0,6.22,1.56,2.09,2.42-1,3.54-2.21,4.94-8,9.32-16.21,18.5-24.14,27.89-1.23,1.45-2.79,4.1-.38,5.62,5.37,4.7,25-22.13,29.84-26.59,6.09-7.32,9.61,3.36,14.9,1.34,8.14.83-3.17,37.08,8.22,38.79,8.28-7.75,3.39-24.89,4.76-35.35.46-6.82,7.46-4.72,10.59-8.07,2.16-2.31,3.12,1.17,4.27,2.41,9.18,9.83,18.24,19.78,27.46,29.57,2.11,2.23,4.52,4.77,8.08,2.14,4.06-3-.3-4.79-1.4-6.16-9.51-11.77-19.18-23.41-29.15-34.77-3.19-3.64,2-6.1.43-9.24C597.27,776.55,599.16,775,599.9,775.19Zm-30.6,13.54c-24.71-.23-29.06-39.85-1.3-41.21C598.62,743.16,595.05,788.7,569.3,788.73ZM449.43,664.33a4.55,4.55,0,0,0,1.31-6.28c-6.48-9.26-10.53-20.29-19.33-27.83-3.68-3.15.11-4.65.79-6.76.76-2.35,1.9-2,4.25-.88a176.69,176.69,0,0,0,24.4,9.78c2.79.85,6.73,5.75,9.74.37,1.85-3.31-1.25-5.58-3.62-6.48-7.93-3-14.44-9.3-23.63-9.52-2.68-.06-6.47-1-6.42-5.63.05-3.74,0-5.81,5.22-6.35,5.89-1.33,34.71-4,33.71-11.16-8.74-11.14-33.2,13-46.24-3.08,7.28-9.32,14.49-18.62,21.79-27.84,1.7-2.14,2.39-4.1-.18-5.87-9.84-3.93-21.61,34.32-35.5,25-1.49-.81-3.77-.45-3.78-3.6-1-5.54,1.87-35.8-4.57-34.83-11.47,1.77,3.21,38.75-7.18,41.29-2.3.94-4.93,1.42-7.54-1.27-5.84-6.05-12.33-11.47-18.53-17.18-2.26-3.23-6.88,2.18-4.25,4.69,4.69,5.31,9.06,10.93,14,16,2.1,2.13,4.62,3.64,2.91,6.87-1.53,2.88-2.77,6.76-7.48,5.24-9.54-3.07-18.92-6.76-28.65-9-3.46-.78-7.67-6-11.57-.43-1.22,1.76-1.58,4.37.49,5.09C352.16,599,364.83,603,377.5,607c1.44.46,3.65-.47,3.4,2.27-.23,2.51.16,6.65-1.09,7.25-6,4.52-26.19,6.28-25.55,14.7.67,4,3.6,1.61,5.76,1.5,7-.34,13.06-3.44,18.65-7.18,7.68-5.15,9,3.64,13.43,5.58-3.23,11.27-15.38,16.57-18.75,27.56,2.69.18,5.54,1.53,7.86-1.07,5.94-6.66,13.64-11.71,18-19.85.52-1,2.15-1.35,3.27-2,.81,2.12,4.43.18,4.69,4.29,1,4.67,1.71,36,8.52,32.66,6.81-4.13-8.48-36.54,5.45-40,5.19-1.75,5.74,3.24,7.33,5.29,5.88,7.58,10.94,15.8,16.24,23.82C445.89,663.56,446.49,666.2,449.43,664.33ZM408.16,626.7c-24.72,2-20.94-38,1.24-37.08C432.93,587.69,433.84,627.81,408.16,626.7Zm40.21,664.08c-12-2.29-24.12-2-36.19-1.72-7.66.21-.48-6.4-4.36-8.17-6-2.58,31.79-15.53,34.9-18,6.77-1.65,12.55-13.4,1-9.47-10.68,4.86-21.07,10.37-31.85,15-3.49,1.5-7.94,4.54-11.59-1.19-2.62-4.12,1.1-5.7,2.22-8.26,3.48-8,7-15.94,10.89-23.74,1.44-2.9-.35-4-1.92-5.33-3.7-3.35-8.63,10.43-10.56,12.9-3.13,6-4.62,15-9.47,17.45-8.57,4.31-13-1.72-14.7-11.21-2.71-12.42-1-29.89-13.44-37.65-.79,1.48-2.63,3.49-2.2,4.37,6.11,12.44,3.32,27,9.49,39.32,3.6,7.15-2.43,9.82-5.9,13.1-3.19,3-5.65-1.14-7.75-3.06-8.65-5.67-17.84-24.14-29.24-19.53-6.73,3,24.88,25.34,28.09,29.45,2.44,2.07,1.12,4,1.1,6.14,0,2.59-2,1.79-3.25,1.77-15.9-.26-31.79-.66-47.69-.83-3.56-.66-9.89,3.75-4.87,6.73a155.15,155.15,0,0,0,44.72,3.6c3-.2,6,1.21,9,1.88-1,3.82,5.89,8-1.62,11.88-5.65,4-24.52,14-20.23,22.12,4.57,4.42,14.83-9.91,19.85-11.7,3.55-2.15,6.84-8.16,11.34-4.88,3.65,2.65.14,7.42-1,11.31-3.71,12.69-7,25.49-10.37,37.81.34,2.64-.77,5.51,2.62,6.08,1.09.19,3.17-.24,3.38-.86,4.86-14.7,9.53-29.46,14.23-44.21.5-1.56-1.23-4.36,1.44-4.55,3.43-.25,9.15-.63,10.05,1.06,4.79,9.08,8.41,18.77,12.35,28.28-.48,6.25,3.16,4.14,7.76,4-1.17-11.47-6.36-22.28-10-33.15-2.2-4.59,3.38-8.07,7-5,11.68,8,23.7,15.52,35.5,23.36,3.15,3,8.09-1.22,4.4-4.08-10.84-12-25.7-18.51-38.17-28.41,2.36-1.71,1.08-6.52,5.83-6.33q18.74.72,37.5,1c2.36,0,5.55.55,6.33-3C453.89,1291,451.2,1291.33,448.37,1290.78ZM380,1308.93c-23.72-.5-16.39-41.54,4.62-38.82C408,1272.53,398.56,1309.24,380,1308.93ZM274.92,730.74c-8.42-1.87-17.47-3.28-26.09-.1-1.7.66-4.46,1.49-5.43-1.56-3.15-3.46,28-12.88,32.3-16.37,4.47-1.61,11.3-10.22,2.63-11.38-11.08,5.17-22,10.71-32.91,16.19-1.54.76-2.5,4.44-4.7,1.48-1.87-2.53-5.46-5.08-3.56-8.83,4.65-9.13,9.4-18.26,14.8-26.95,2.12-3.41-.71-4.24-1.73-5.57-2.71-4.88-14.27,19.49-17.45,21.93-1.73,2.39-2.14,8.07-5.12,6.73-3.5-1.59-9.89.25-10.51-5.87-1-9.68-1.57-19.41-2-29.14.44-7.79-8.41-8.4-7.16-.35.18,10.11.44,20.23,1,30.32.3,5.36-4.69,5.27-7.26,7.38-6.22,3.41-21.44-21.42-30.59-21-.18,2.62-1.71,5.16,1,7.71,6.84,6.38,13.12,13.41,20.2,19.51,2.74,2.36.21,3.79.15,5.38s-2.67,4.6-3.63,4.4c-13.92-2.86-28-3-42.13-3.61-1.42-.07-3.58-.88-3.8,1.85-.15,2,.31,3.83,2.58,4.18,11.54,1.77,23.08,3.56,34.65,5.09,3.69.49,8.69-.68,10.42,2.73,2.46,4.83-3.08,6.37-6,7.44-8.51,3.1-14.06,10.91-23,13.56-2,.6-9,3.17-6.48,7.57,2.69,4.8,7.73,1.18,11.3-.64,9-4.6,17.84-9.58,26.71-14.49,1.42-.79,2.67-2.49,3.85.14.67,1.49,2.38,1.92.88,4.82-2.47,6.9-25,44.86-17.67,47.49,2.36,1.4,3.73-1.41,5.23-3.26,7.39-9.07,11.6-19.69,15.72-30.44,1.43-3.73,3.14-8.62,6.17-10.21,6.36-3.32,19.61,6.62,19.55,14,.53,6.79,3.65,17,9.93,19.88.75-1.55,2.41-3.3,2.1-4.59-2-8.46-3.5-17.22-7-25.1-3-6.89,2.42-8.73,4.85-12.55.81-1.27.86-1.5,2.33-.28,11,9.19,22.34,18,33.28,27.26,2.39,2,4.55,2.32,6.46.84,5.48-3.88-31.35-34-37.78-36.76,8.2-1.42,42,1.09,42.51-7C283.69,726.23,278.39,729.24,274.92,730.74Zm-41.66,1c-.71,9.33-6.82,16.89-18.14,15.14-11.8,1.21-15.19-6.27-15.1-15.25C198.32,709.06,235.57,710.27,233.26,731.75Zm-11.95,555.34c-13.61-7.67-27.51-14.81-41-22.68-3.48-2,2.73-5.1.86-8.17-.09-.14,1.06-1.51,1.67-1.54,8.14-1.84,44.23,2.22,43.72-7.49.18-3.76-3.4-2-5.36-2.23-11.44-1.52-22.8.16-34.2.91-2.13.15-5.73,1.65-6.46-1.53-.33-1.43,2.23-4.06,4-5.35,12.71-9,25.64-17.78,38.32-26.86,1.57-1.13,5.42-2,3.27-5.43a5.4,5.4,0,0,0-7.84-1.54c-11.8,8.77-25.49,14.79-36.22,25.12-1.91,1.83-4.74,2.7-7.15,4-1.51-2.77-7.12-2.94-5.74-7.18,2.7-8.29,6.58-16.21,9.15-24.54,1-3.32,5.75-7.14.61-11-6.29-6-12.89,23.52-16.29,27.77-.89,1.92-.53,5.62-4.61,5.63-3.65,0-7,.3-8.48-4.08-3.45-10.06-6.73-20.2-10.75-30-1.62-4-2.86-10-8.66-9.43-6,1.3,10.24,37.14,11.34,43.44,1.27,3-3.49,5.84-5.44,5.81-11-4.71-21.85-9.55-32.61-14.66-2.43-1.15-4.76-2.22-6.43,0-4.31,9.13,22.29,15.34,28.16,19.09,2.36,1.15,6.87,1.15,5.68,6-1,4.09-4.24,3.59-7.39,3.8-7.27,1.62-42.83.09-43,6.86-1.72,7.14,41.72.33,48.32,2.86-1.77,3,3.89,5.08.94,8.27-8.9,9.6-17.68,19.3-26.69,28.8-2.07,2.19-3.18,4.4-1.44,6.84,1.91,2.67,5.22,1.08,6.55-.15,9.46-8.77,20-19.24,28.61-28.35,4.19,2.4,9.34,4.11,8.16,10.94-1.86,10.81-3.18,21.71-4.73,32.57l.7.1c.8,4.28-2.29,12.84,2.54,14.59,6.5,2.65,7-35.23,9.86-41.41.67-3.18-1.59-8.36,2.88-9.58,3.37-.92,8.19-2.06,10.14,3.56s15,34.73,21.3,32.08c2.86-1.1,2.41-3.72,1.38-5.82-5.65-12-12.37-23.57-17.49-35.81,2-.13,3.73-.32,5.93,1,13.67,7.85,27.6,15.26,41.45,22.79,2.67,1.45,5.93,4,7.74-.44S224.06,1288.64,221.31,1287.09Zm-69-19c-19.73-2.78-20.79-36.38,4.55-35.06C179.45,1236.72,177.57,1272.11,152.32,1268.12Z"/></g></g><g id="Red_Japanese_Frames" data-name="Red Japanese Frames"><path class="cls-8" d="M0,20V1580a20,20,0,0,0,20,20H956a20,20,0,0,0,20-20V20A20,20,0,0,0,956,0H20A20,20,0,0,0,0,20ZM924,1548H52V52H924Z"/><path class="cls-9" d="M952.1,15.41,928.69,38.83A4,4,0,0,1,925.86,40H50.14a4,4,0,0,1-2.83-1.17L23.9,15.41A2,2,0,0,1,25.31,12H950.69A2,2,0,0,1,952.1,15.41ZM40,1549.86V50.14a4,4,0,0,0-1.17-2.83L15.41,23.9A2,2,0,0,0,12,25.31V1574.69a2,2,0,0,0,3.41,1.41l23.42-23.41A4,4,0,0,0,40,1549.86ZM936,50.14V1549.86a4,4,0,0,0,1.17,2.83l23.42,23.41a2,2,0,0,0,3.41-1.41V25.31a2,2,0,0,0-3.41-1.41L937.17,47.31A4,4,0,0,0,936,50.14ZM925.86,1560H50.14a4,4,0,0,0-2.83,1.17l-20,20a4,4,0,0,0,2.83,6.83H950.69a2,2,0,0,0,1.41-3.41l-23.41-23.42A4,4,0,0,0,925.86,1560Z"/></g></svg>