<svg id="Card" xmlns="http://www.w3.org/2000/svg" viewBox="0 0 1024 1680"><defs><style>.cls-1{fill:#f2f0ed;}.cls-2{fill:#8c1707;}.cls-3{fill:#16592d;}.cls-4{fill:#38408c;}</style></defs><rect class="cls-1" x="14.5" y="14.5" width="995" height="1651"/><polygon class="cls-2" points="966 1619.17 966 60.83 1018 8.83 1018 1671.17 966 1619.17"/><polygon class="cls-2" points="60.83 58 8.83 6 1015.17 6 963.17 58 60.83 58"/><polygon class="cls-2" points="8.83 1674 60.83 1622 963.17 1622 1015.17 1674 8.83 1674"/><path class="cls-3" d="M942.22,326.58c-.4,0-.81-.05-1.22-.06a10.14,10.14,0,0,1-3.52-.54c-17.09-6.7-34.31-13.52-51-20.11l-17.19-6.8,5.53-1.66a72.28,72.28,0,0,1,20.61-3.19A58.06,58.06,0,0,1,929.22,305c4.26,3,7.68,7,11,10.93,1.19,1.41,2.42,2.86,3.64,4.22,1,1.07.79,2.54.65,3.61a8.24,8.24,0,0,0-.08.87v2.21Z"/><path class="cls-3" d="M930.74,340.58c-18.15,0-35.61-8.44-53.38-25.8l-3.51-3.43h4.91c5.37,0,61.6,18.47,70,23l4.32,2.33L948.33,338A64,64,0,0,1,930.74,340.58Z"/><path class="cls-4" d="M919.4,897.33a55.68,55.68,0,0,1-6.69-.54c-1.41-.17-2.75-.33-4-.42-14.77-1-25-9.8-34.83-18.29-2-1.67-3.9-3.35-5.83-4.93a25.88,25.88,0,0,1-4.58-5.32c-1.94-2.71-3.76-5.26-6.89-6.5l-6.48-2.56,6.85-1.27a102.37,102.37,0,0,1,18.58-1.81c18.25,0,33.72,5.67,47.31,17.34,3.81,3.29,12.74,11,7.6,19.14C927.15,897.33,921.32,897.33,919.4,897.33Z"/><path class="cls-4" d="M899.19,781a14,14,0,0,1-2.78-.27c-3.95-.84-8-1.51-11.94-2.16C876.35,777.27,868,775.89,860,773c-5.07-1.8-9.21-4.83-13.22-7.77-3.49-2.56-7.11-5.21-11.14-6.8l-2.15-.84,1.14-2c.12-.21.26-.55.4-.87.46-1.13,1-2.52,2.46-3,15.82-5.47,28-7.91,39.39-7.91a67.1,67.1,0,0,1,31.11,7.36c7,3.57,9.82,10.47,10.95,15.64l0,.16v.22c0,3.83-2.57,7.43-7.21,10.19A26.29,26.29,0,0,1,899.19,781Z"/><path class="cls-4" d="M842.56,663.24a51,51,0,0,1-6.21-.37c-.76-.06-1.65-.1-2.68-.1s-1.91,0-2.86.06c-1.13,0-2.16.07-3.19.07-3.51,0-7.62-.35-11.48-2.88l-2-1.31,1.64-1.74c1.32-1.4,2.68-2.91,3.87-4.24a96.88,96.88,0,0,1,9.09-9.27c14.11-12,30-18.14,47.08-18.14h.24c4.42,0,9.37,1.54,15.58,4.81,2.76,1.45,6.16,5.75,6.78,8a2.79,2.79,0,0,1-.23,2.29c-2.57,4.14-6.45,10.39-11.64,11.91-3.78,1.11-7.61,2.41-11.32,3.68C864.83,659.57,854.07,663.24,842.56,663.24Z"/><path class="cls-3" d="M890.51,461.3c-9.4-29.94-22.4-57.15-33.88-79.82l-1.91-3.76,4.12.91c8.6,1.88,15.33,6.37,21.19,14.11,15.65,20.73,16.16,45,14.38,68.11l-.09,1.24-3.44.39Z"/><path class="cls-3" d="M884.38,468.81a3.2,3.2,0,0,1-1.7-.45c-17.13-10.48-28.19-25.69-33.81-46.47-3.26-12.05-4.3-23.59-3.37-37.43l.52-7.62,41.67,87.33c.14.29.28.6.42.92l.24.55,1.19,2.58-2.84.24a5.72,5.72,0,0,0-.68.12A7.37,7.37,0,0,1,884.38,468.81Z"/><path class="cls-3" d="M892.68,204c-7.61-2.95-15.06-6.27-22.26-9.48-14.13-6.3-27.45-12.25-42-15.75a25.1,25.1,0,0,1-5.93-2.55c-.79-.42-1.59-.85-2.37-1.22l-2-.94,1.15-1.9a6.44,6.44,0,0,1,5.92-3.18c.55,0,1.1,0,1.66.07s.94.07,1.38.07a4.81,4.81,0,0,0,.91-.07,38.49,38.49,0,0,1,6.9-.61c9.28,0,17.89,3.16,26.22,6.23,3.36,1.23,6.82,2.5,10.19,3.5,9.74,2.89,17.63,14.48,22.71,22.94l3,5Z"/><path class="cls-3" d="M879.34,216.47c-17.91,0-36.69-11.45-59.38-28.65l-1-.73,1.43-3.08,1.18.27c18.51,4.21,34.87,10.91,50.69,17.4,7.41,3,14.4,5.9,21.61,8.53l5.29,1.93L893.87,214A43.83,43.83,0,0,1,879.34,216.47Z"/><path class="cls-4" d="M820.1,967.72c-3.69,0-5.45-3.33-6.87-6-.16-.32-.33-.63-.49-.93-9.06-16.51-11.68-27-11.68-46.59v-.08l.37-3.52c.44-4.09,1.05-9.81,1.64-15.53l0-.42c.1-1.06.3-3.26,2.5-3.26,1,0,1.78.55,3,1.45,19.46,14.56,29.48,44.28,22.35,66.26a11.75,11.75,0,0,1-10.15,8.58C820.54,967.7,820.32,967.72,820.1,967.72Z"/><path class="cls-3" d="M759,412.86a5.82,5.82,0,0,1-2.73-.74L754,411l1.61-1.91,8.42-10,.55-.66c8.19-9.72,16.65-19.77,25.22-29.48.5-.57,1.07-1.34,1.61-2.09,1.92-2.62,4.1-5.59,7.1-5.59a4.53,4.53,0,0,1,2.34.66c4.63,2.75,1.93,8.07.32,11.24-.4.79-.77,1.53-1,2.1-6.61,17.06-18.51,28.35-35.37,33.57a4.32,4.32,0,0,0-1.3,1.27C762.54,411.27,761.23,412.86,759,412.86Z"/><path class="cls-3" d="M750.13,403.65c-1.66-5.46,1.29-13.67,8.3-23.12,11.78-15.89,24.78-23.12,31.88-23.12h.37l4.26.14-13.12,14.84-28.28,32-2.37,2.69Z"/><path class="cls-3" d="M740.54,500.34c-18.5,0-48.19-12.95-62.92-32.22l-4.35-5.69,6.67,2.62,73.44,28.79,3.9,1.53-3.64,2.07C750.25,499.36,745.85,500.34,740.54,500.34Z"/><path class="cls-4" d="M689.92,927.39c-4.41-1.1-7.14-2.91-8.33-5.54-1.75-3.86.44-8.14,2.2-11.57l.05-.1c.25-.49.5-1,.72-1.42,5.33-11,14.8-18.5,29.82-23.59a54.73,54.73,0,0,0,6.36-2.95c3.84-2,7.47-3.84,10.27-3.84a4.27,4.27,0,0,1,4.23,2.72c3.07,7.57-4,17.1-9.23,24.07l-.29.37c-9.55,12.8-23.58,18.38-34.73,21.82l-.53.16Z"/><path class="cls-3" d="M751.88,489.34a423.48,423.48,0,0,0-74.77-29.78,4,4,0,0,1-2.19-2c-.12-.18-.21-.33-.31-.46L672.9,455l2.55-1c.22-.08.43-.17.63-.26a12,12,0,0,1,1.67-.61A65.36,65.36,0,0,1,694,451.09c24.41,0,47.61,13.58,60.54,35.45l3.49,5.9Z"/><path class="cls-3" d="M655.8,255.51c-2.74,0-5.52-.16-8.46-.33-3.1-.18-6.3-.36-9.6-.36h-7.68l6.7-3.75c6.19-3.45,12.2-6.46,18-9.38,7.23-3.61,14-7,20.64-11,4-2.42,8.37-4.55,12.56-6.6a138.17,138.17,0,0,0,15.13-8.2,3,3,0,0,1,1.65-.46,7.08,7.08,0,0,1,1.59.23,5.59,5.59,0,0,0,.64.13l2.46.25-.76,2.36c-.09.28-.17.58-.24.88a10.2,10.2,0,0,1-.93,2.54c-9.8,16.92-23.8,27.88-41.61,32.56A38.86,38.86,0,0,1,655.8,255.51Z"/><path class="cls-3" d="M690.47,649.11l-.28-.39a5.14,5.14,0,0,1-1-2c-7.58-33.46-16.17-71.38-29.58-107.38-.94-2.53-1.34-7.2.79-9.2A3.65,3.65,0,0,1,662.9,529c1.84,0,3.14,1.46,4.18,2.62a11.12,11.12,0,0,0,1,1c17.76,14.66,27.89,34,31,59.16a35.83,35.83,0,0,0,1.91,7.07c1.35,3.89,2.74,7.92,1.95,12.31.34,7.79-1.84,14.79-3.95,21.56a78.74,78.74,0,0,0-3.46,14.15,3.39,3.39,0,0,1-1.6,2.3c-.13.11-.24.18-.32.26l-1.78,1.73Z"/><path class="cls-4" d="M667.1,824.54c-5.93,0-11.11-2.48-15.82-7.58-3-3.26-3.18-6.58-.5-9.86,8.28-10.06,26.43-18.88,38.84-18.88l.94,0,.26.1a6.36,6.36,0,0,1,.63.3h0l13.61,1.49,2.57.28-.92,2.42c-3.82,10-8.43,20.2-19,25.08l-2,.94C679.67,821.66,673.49,824.54,667.1,824.54Z"/><path class="cls-3" d="M689.46,361.63c-15.19,0-32.42-9.68-52.66-29.6l-.86-.85,1.8-2.87,1.14.41,11.19,4,.37.13c7.91,2.84,15.38,5.52,22.83,8.29s15,5.71,22.37,8.53l-.44,1.44.54-1.4q5,1.93,10.09,3.88l4,1.53-3.72,2.08A33.56,33.56,0,0,1,689.46,361.63Z"/><path class="cls-3" d="M629.36,244.19a13.26,13.26,0,0,0,.07-1.34,6.94,6.94,0,0,1,1.06-4.28c8.25-10.63,19.64-18.47,33.86-23.29a66.56,66.56,0,0,1,22.37-3.94,74.65,74.65,0,0,1,8.57.51l6.76.79-8.74,4.28c-20.63,10.12-39.23,19.23-57.84,28.32a13.23,13.23,0,0,1-2.58.86l-1,.26-3,.9Z"/><path class="cls-3" d="M710.46,352.47c-22.3-11.41-42.78-19-64.47-27.08l-8.7-3.23,5.68-1.72a56.79,56.79,0,0,1,16.46-2.6c22.58,0,38.23,16,53.37,31.45l.89.91-2.1,2.85Z"/><path class="cls-3" d="M684,656.44c-13.6-3.58-27.09-19.86-36.1-43.52-12.77-33.54-10-61.37-1.57-74.08l2.21-3.32,1.34,3.76c5.61,15.7,10.07,32,14.39,47.66,6.11,22.26,12.43,45.28,22.07,66.75l1.71,3.82Z"/><path class="cls-4" d="M616.38,896.85a150.61,150.61,0,0,1-15.48-1,140.37,140.37,0,0,0-14-1c-1,0-2,0-2.91.07-.5,0-1,0-1.52,0-1.29,0-5.23,0-6.77-3.81-.83-1.93.65-2.77,5.55-5.54l.45-.26A128,128,0,0,1,624.38,870a30.45,30.45,0,0,1,4.86-.4,29.8,29.8,0,0,1,16.87,5.22c5,3.43,3.37,9,2.67,11.39-2,6.7-7.62,7.09-11,7.32a9,9,0,0,0-2.73.42l-.33.29-.42.13A62.56,62.56,0,0,1,616.38,896.85Z"/><path class="cls-4" d="M608.57,1119.38c-13.14,0-25.56-3.83-38.71-7.9l-7.18-2.21,2.5-2.35c16.73-15.78,33.59-23.46,51.52-23.46a68.11,68.11,0,0,1,12.81,1.25c10.21,1.94,15.85,8.39,15.1,17.25-.83,9.81-9.38,12.25-16.26,14.2-.81.23-1.62.46-2.41.7A59,59,0,0,1,608.57,1119.38Z"/><path class="cls-4" d="M613.56,998.79l-.89,0c-13-1.31-27.94-3.12-42.22-8.06a5.24,5.24,0,0,1-2.25-1.79c-.16-.19-.31-.37-.46-.52l-1.54-1.5,1.59-1.43c.21-.18.41-.37.61-.57a16.12,16.12,0,0,1,1.72-1.48c10.2-7.17,22.15-11.93,38.75-15.43a23.26,23.26,0,0,1,4.75-.47c7.64,0,16,3.31,20.28,8.05a10.25,10.25,0,0,1,3,7.92C636.25,990.36,623.37,998.79,613.56,998.79Z"/><path class="cls-4" d="M593.64,1348c-12.9,0-26.55-3.16-43-9.93l-3-1.24,2.45-2.12c14.88-12.94,28.48-21.34,42.77-26.42a51.67,51.67,0,0,1,17.17-3.43,28.06,28.06,0,0,1,21.45,9.44c2.7,2.89,3.62,8.53,2.94,12.31-1.39,7.68-6.16,13.32-13.8,16.3A73,73,0,0,1,593.64,1348Z"/><path class="cls-4" d="M579.79,777.19a88.61,88.61,0,0,1-10.49-.61l-4.49-.55,3.42-3a85.38,85.38,0,0,0,6.93-6.92c4.16-4.48,8.47-9.11,14.58-12.21,11.38-5.78,21.77-8.59,31.76-8.59a51,51,0,0,1,5.81.33c3.61.42,6.24,2.18,7.6,5.1,1.77,3.77,1,9.16-2,13.73-5.11,7.8-13.26,8.51-20.46,9.13-2.15.19-4.35.38-6.36.75A142.25,142.25,0,0,1,579.79,777.19Z"/><path class="cls-4" d="M589.93,1241.21c-14.32,0-28.57-4.23-42.36-12.57-1.31-.79-2.82-1.93-2.81-3.7s1.51-2.9,3-3.75c14.64-8.52,30.67-16.42,48.68-16.42a61.81,61.81,0,0,1,7.81.5c8.25,1,20.72,2.63,22.43,15.55,2.18,16.54-14.1,19.16-19.45,20a25.34,25.34,0,0,1-3.83.26c-1,0-2,0-3.12-.08-1.3,0-2.58-.09-4-.09C594.19,1241.12,592.06,1241.21,589.93,1241.21Z"/><path class="cls-3" d="M612,179.28a57.4,57.4,0,0,1-20.35-3.42c-15-5.57-27.49-12.66-38.32-21.66a6,6,0,0,1-1.68-3.07c-.11-.34-.2-.65-.32-.94l-1.1-2.57,2.92-.21c1.09-.09,2.13-.16,3.22-.16a16.06,16.06,0,0,1,5.45.88c18.21,6.44,36.15,12.54,55.14,19l.27.09,17.63,6,1.11.38-.3,3.32-1.17.17C627.24,178.17,619.68,179.28,612,179.28Z"/><path class="cls-3" d="M636,171.66q-6.25-2.67-12.41-5.35c-21.53-9.33-41.83-18.12-63.78-24.07l-5.65-1.53,5.4-2.25A37.1,37.1,0,0,1,573.76,136c21.89,0,54.25,14,64.78,32.84l2.88,5.12Z"/><path class="cls-3" d="M568.33,537a2.67,2.67,0,0,1-2.2-1.09,3.6,3.6,0,0,1-.21-3.37,17.25,17.25,0,0,0,.5-2.06,15.56,15.56,0,0,1,1-3.51c8.82-19,18-38.52,28-59.74a4.9,4.9,0,0,1,2.29-2.09c.25-.15.46-.26.64-.39l2.35-1.72.76,2.8,1.92,7.06.12.45-.09.46C599.06,496,593,519,572.22,535.19A6.73,6.73,0,0,1,568.33,537Z"/><path class="cls-3" d="M553.48,539.18a4.23,4.23,0,0,0-.49-.44,4.92,4.92,0,0,1-1.76-2.35c-2.74-9.46,1-26.16,9.72-43.57s20.34-31,30.15-35.1l4.95-2.08-2.38,4.81q-4.36,8.85-8.62,17.42L585,478c-7.56,15.25-14.7,29.64-21.74,44.28a52.15,52.15,0,0,0-2.9,8.47c-.49,1.74-1,3.52-1.59,5.26a6.68,6.68,0,0,1-1.7,2.45c-.2.21-.4.41-.57.62l-1.44,1.77Z"/><path class="cls-4" d="M473.79,1468.58a13.83,13.83,0,0,1-10.06-4.31c-4.52-4.63-6.89-12.53-6.67-22.25-.07-13.16,4-25.49,7.9-37.41.49-1.48,1-3,1.46-4.45a52.58,52.58,0,0,0,1.41-6.13c.69-3.73,1.41-7.58,3.48-11.21,1.3-2.28,2.65-4.63,5.09-4.63,2.06,0,3.62,1.77,4.75,3.32,15.08,20.6,20.09,42.61,14.9,65.41-1.56,6.9-6.08,15.66-14.09,19.6A18.63,18.63,0,0,1,473.79,1468.58Z"/><path class="cls-4" d="M469.43,549.11c-1,0-2.19-.07-3.73-.19-8.93-.63-20.38-7.95-30.64-19.57-10.07-11.41-16.21-24.12-16-33.19-.31-5.58.64-9.63,2.82-12.05a7.67,7.67,0,0,1,5.54-2.53l.93,0c9.82,0,16.42,7.34,22.1,15.27a157.4,157.4,0,0,1,23,46.51c.43,1.44.92,3.07-.07,4.41S470.94,549.11,469.43,549.11Z"/><path class="cls-4" d="M454.4,654.94c-19,0-44.71-19.57-49.13-37.33a13.55,13.55,0,0,1,6.81-15.25,10.83,10.83,0,0,1,5.42-1.49c4.33,0,8.06,2.64,11.34,5l1,.71c17,11.93,26.73,28.79,34,43.71a3.11,3.11,0,0,1,.18,3.15c-.95,1.53-2.56,1.53-8.56,1.53Z"/><path class="cls-4" d="M458.14,761.34c-26.85-1.81-52.2-3.53-69.37-27.47-6.64-9.26-6.1-18.91,1.45-25.82a14.81,14.81,0,0,1,10.27-4.36c5.54,0,10.78,3.27,15.67,6.62,11.26,7.7,23,16.2,31.8,27.84a146.33,146.33,0,0,1,8.68,13.4c1.3,2.19,2.65,4.45,4.12,6.79l2.07,3.32Z"/><path class="cls-4" d="M430.53,998.93h-.08l-4.47-.51c-16.87-1.91-37.88-4.29-54.87-19.78-4.14-3.78-6.2-8.43-5.62-12.76.34-2.59,2.11-6.94,10.14-6.94.53,0,1.07,0,1.6.05,26.36,1.64,49.89,12.88,71.95,34.35a4.84,4.84,0,0,1,1,1.64c.06.14.11.27.17.38l1.19,2.2-2.41.68a5.05,5.05,0,0,0-.55.18,6.78,6.78,0,0,1-2.2.49c-1.71,0-3.42,0-5.61,0Z"/><path class="cls-4" d="M421.59,1129.13c-23.48-2-41.5-10.09-55.09-24.86-4.37-4.74-4.59-11.16-.56-16a11.18,11.18,0,0,1,9-4,33.18,33.18,0,0,1,6.95,1l1.76.37c16.36,3.2,30.56,11.61,44.28,19.74q3.9,2.33,7.81,4.59c4.36,2.52,7.62,6.84,9.59,10a3.93,3.93,0,0,1,.47,3.89c-1,2.06-3.65,2.43-5.09,2.64l-.45.06c-4.77,1-9.69,1.53-14,2l-.13,0-4.07.48-.16,0Z"/><path class="cls-4" d="M435.74,881.47a10.64,10.64,0,0,1-3.75-1,11.5,11.5,0,0,0-2.64-.79c-27.34-3-44.87-13.14-55.16-31.93-2.14-3.9-4.68-9.74-2-15.38,1.91-3.93,4.51-5.92,7.73-5.92a8.91,8.91,0,0,1,2.8.48c12.05,3.09,23.31,10.09,35.36,22,4.52,4.47,8.63,9.43,12.6,14.23,2.14,2.59,4.36,5.27,6.63,7.85.3.34.67.69,1,1,1.36,1.31,3,2.9,2.73,5.06-.2,1.48-1.25,2.72-3.23,3.8A4.34,4.34,0,0,1,435.74,881.47Z"/><path class="cls-3" d="M442.76,398.7a383.5,383.5,0,0,1-37.41-76.51l-1.52-4.26,4.17,1.74c29.83,12.47,34.13,45.08,38.29,76.62l.3,2.29-3.19,1.15Z"/><path class="cls-4" d="M411.4,1242.21c-19.13,0-35.61-5-50.39-15.31-2.9-2-11.7-8.14-7.41-17.57,1.95-4.27,6.22-6.18,13.84-6.18,1.53,0,3.25.07,5.27.22,18.43,1.88,36.83,10.32,51.85,23.77a30.25,30.25,0,0,0,3.17,2.35,37.39,37.39,0,0,1,3.43,2.54,6.82,6.82,0,0,1,2.16,4.84c0,2-2.32,3.72-3.88,4A126,126,0,0,1,411.4,1242.21Z"/><path class="cls-3" d="M432.64,398.61c-13-4.3-24.48-15.37-31.56-30.36-6.68-14.14-8.65-30.15-5.27-42.83l1.45-5.45,2.3,5.14c2.45,5.44,4.81,11,7.09,16.35,7.83,18.39,15.92,37.39,28.23,54.06l3.74,5.07Z"/><path class="cls-4" d="M398.74,1341l-4.88,0h-.31c-1.52,0-3,0-4.55,0l-2.94,0-3.57,0h-.25l-3.9,0c-9.88,0-20.23-.74-28.59-9.47-4.5-4.7-16.45-17.2-5.86-29.87a13,13,0,0,1,10.45-5.15c4.37,0,8.76,1.91,13,3.76,1.41.61,2.83,1.22,4.16,1.73,11.8,4.52,20.5,12.91,28.91,21,3.63,3.5,7.38,7.12,11.3,10.33a4.64,4.64,0,0,1,1.27,2c.07.17.13.32.2.45l1,1.89-1.95.87c-.46.2-1,.49-1.46.76a10.35,10.35,0,0,1-4.38,1.6C404.15,1340.94,401.72,1341,398.74,1341Z"/><path class="cls-3" d="M381.23,166c-20.15,0-42.82-6.33-57.75-16.14l-1-.65,1.13-3.14,1.18.13,84.51,9.19,5.25.57L410.24,159C403.77,163.6,393.74,166,381.23,166Z"/><path class="cls-3" d="M375,467.3c-.26-.15-.56-.27-.85-.4a5.92,5.92,0,0,1-2.85-2q-2-3.14-4.1-6.27c-5.25-8-10.68-16.29-15.61-24.68-4.23-7.22-8-14.79-11.73-22.12l-.14-.28-2.67-5.29a25.76,25.76,0,0,1-1.83-5.48c-.11-.46-.22-.92-.34-1.37-.51-1.6,1.06-2.45,1.73-2.82l.14-.07.93-.62,1,.52c9,4.52,14.76,11.61,19.67,18.6a116.47,116.47,0,0,1,20.08,48.54,4,4,0,0,1-.43,2.27c-.05.13-.11.25-.14.36l-.75,2.36Z"/><path class="cls-4" d="M350.8,800.77c-4.26,0-8.44-1.73-13.14-5.43-9.52-7.49-15.12-18-20-28.12a8.24,8.24,0,0,1,.28-7.09,3.37,3.37,0,0,1,3.06-1.37,22.63,22.63,0,0,1,2.27.16c.5.06.92.1,1.28.12,15,.94,27,8.18,36.62,22.14a8.17,8.17,0,0,1,1.45,5.43c0,.07,0,.14,0,.2,1.09,6.88-.7,10.82-5.77,12.79A16.41,16.41,0,0,1,350.8,800.77Z"/><path class="cls-3" d="M411.79,150.06c-28-4.57-58.1-9-91-9-2,0-3.92,0-5.9,0l-1.19,0-.81-3.26,1.06-.54a90.49,90.49,0,0,1,41.71-9.88c25.58,0,47.9,10,57.82,19.22l4.83,4.5Z"/><path class="cls-3" d="M362.57,470.88c-13.89-8.23-24.58-19.55-30.92-32.74A63.16,63.16,0,0,1,325.76,402l.18-1.2,3.39-.23.33,1.17c4.51,15.64,12.86,28.86,21.69,42.86,4.8,7.59,9.74,15.43,14,23.67l3.21,6.2Z"/><path class="cls-4" d="M334,888.54c-1.06,0-2.07,0-2.94-.06l-.62,0c-13.87-.45-27.4-5.45-43.86-16.21-3.1-2-4.58-4.17-4.38-6.4s2-4.11,5.46-5.56c1.53-.65,3.07-1.36,4.56-2,5.79-2.67,11.78-5.43,18.76-5.43.7,0,1.4,0,2.09.09,15.37.92,26.92,8.4,32.5,21.05,1.91,4.34,2,7.83.38,10.38C343.53,888.11,338,888.54,334,888.54Z"/><path class="cls-4" d="M328.9,995.36a18.83,18.83,0,0,1-4.86-.67c-14.64-4-33.66-9.94-51-21.1a55,55,0,0,1-5.47-4.21c-.83-.7-1.62-1.36-2.41-2l-2.56-2,3-1.36c1-.46,2-1,3-1.51a32.32,32.32,0,0,1,7.6-3.17,108.5,108.5,0,0,1,12.26-1.81l.21,0c1.83-.2,3.73-.41,5.7-.66l.24,0,.31,0c2.16.42,4.37.8,6.31,1.13,12.59,2.14,25.61,4.36,35.1,16.29,4.29,5.38,5.21,11,2.61,15.77C337,993.46,333.48,995.36,328.9,995.36Z"/><path class="cls-3" d="M235.77,243.05a4.43,4.43,0,0,1-3.48-1.23,3.31,3.31,0,0,1-.95-2.73c.23-1.69,1.73-2.65,2.94-3.41a7.38,7.38,0,0,0,1.06-.74c15.93-15.21,34.28-22.6,56.1-22.6a113.82,113.82,0,0,1,22,2.3c6.35,1.26,11.79,3.86,17.05,6.36,2.33,1.12,4.74,2.26,7.18,3.27l1.17.48-.76,3.43-1.26-.06c-1.73-.08-3.51-.12-5.3-.12-13.07,0-26.13,2.14-38.76,4.22h-.11l-5.09.83c-10,1.63-20.19,3.77-30,5.84-5.38,1.14-10.88,2.3-16.3,3.36l-.62.12A26.1,26.1,0,0,1,235.77,243.05Z"/><path class="cls-3" d="M326.29,585.74c-3.8-6.65-7.73-13.38-11.53-19.9C305,549.13,295,531.93,286,514.5c-1.64-3.19-3.48-6.38-5.25-9.46a150.2,150.2,0,0,1-8-15.2l-.15-.35c-.56-1.24-1.26-2.79.19-3.83a9.33,9.33,0,0,1,5.57-1.82,16.36,16.36,0,0,1,7.37,2.19c19.95,10.31,32.89,26.87,39.57,50.62.39,1.39.78,2.78,1.18,4.17,2.71,9.55,5.51,19.41,6.45,29.66.26,2.78-.74,5.26-1.63,7.45s-1.72,4.28-1.32,6.46l.22,1.25-3.3,1.2Z"/><path class="cls-4" d="M315.48,1105.39a28.42,28.42,0,0,1-7.07-.91c-18.24-4.87-33.41-15.73-48.07-26.25l.79-1.27-.88,1.21q-2.34-1.68-4.69-3.35a8.12,8.12,0,0,1-1.92-2.14c-.18-.26-.34-.48-.5-.69l-1.48-1.86,2.08-1.14c.24-.14.47-.3.71-.46a6.8,6.8,0,0,1,2.67-1.23c4.34-.72,8.6-1.34,13.11-2l5.48-.8.22,0c15.88,2.38,33.81,5.07,46.9,19.66,5.51,6.14,5.91,13.84,1,18.73C322.17,1104.56,319.36,1105.39,315.48,1105.39Z"/><path class="cls-3" d="M322.75,596.7c-40-20.3-58.08-67-54.8-100.56l.66-6.74,3.11,6c3.67,7.11,7.3,14.23,10.8,21.12l.12.25c13.7,26.94,26.63,52.39,42.7,77.05l4.07,6.25Z"/><path class="cls-3" d="M272.16,259.42a131.52,131.52,0,0,1-38.77-5.6l-1.13-.36.24-3.34,1.18-.18c10-1.59,20.13-3.54,29.93-5.42,23.17-4.44,47.11-9,71.94-9.48l5-.09L337,238.47C323.41,251.79,299.78,259.42,272.16,259.42Z"/><path class="cls-3" d="M266.49,647.29c-8.13-11.88-13.76-24.35-19.72-37.55-3.24-7.18-6.59-14.6-10.34-21.83l-2.93-5.63,5.63,2.94c22.53,11.76,35.85,38.13,31,61.35l-1,4.59Z"/><path class="cls-3" d="M260.51,173.44c-11.62-19.26-23.22-38.59-33-54.95l-2.33-3.9,4.45.91c24.18,4.93,37.66,38.11,34.6,57.23l-.86,5.39Z"/><path class="cls-3" d="M260.46,656.16c-.61-.15-1.29-.26-1.95-.37a14.53,14.53,0,0,1-5-1.47c-13.32-7.62-21.53-19.76-24.39-36.07-.56-3.23-1.14-6.45-1.77-10l-1.22-6.83,4.79-7.83,1.78,2.28c.35.45.79.93,1.18,1.36a12.3,12.3,0,0,1,2.78,4,208.85,208.85,0,0,0,24,46.39,13.58,13.58,0,0,1,1.68,4.29c.15.56.29,1.1.47,1.61L264,657Z"/><path class="cls-3" d="M256.84,182.41c-7.56,0-14.92-3.65-21.27-10.55-10.8-11.76-17.35-31.75-15.92-48.63l.5-6,41,65-3.48.11Z"/><path class="cls-3" d="M162.67,375.92c4.68-6.74,11.22-8.56,17-10.16a47,47,0,0,0,6.61-2.18c16.28-7.25,33.17-13.82,49.5-20.18,5.18-2,10.32-4,15.46-6a5.49,5.49,0,0,1,2.06-.36,15.34,15.34,0,0,1,1.87.16c.47.06.9.11,1.28.12l2.81.08-1,2.63a9.73,9.73,0,0,0-.3,1,7.16,7.16,0,0,1-1.58,3.3c-12.66,13-28.08,27-50.94,28.85-9,.72-17.94,2.2-27.4,3.76-4.35.72-8.84,1.46-13.43,2.14l-4.57.68Z"/><path class="cls-3" d="M153.48,366.47l.86-.87c26.9-27,52.58-39.05,83.28-39.05a122.44,122.44,0,0,1,15.86,1.06l1.2.15.28,3.39-1.16.35c-26.83,8.11-51.46,18.35-77.53,29.19-6.47,2.69-13,5.42-19.75,8.17l-1.14.47Z"/><path class="cls-3" d="M146.88,464.5c15.06-23.4,45.24-39.74,73.39-39.74a64.41,64.41,0,0,1,14.07,1.51l5.95,1.34-97,42.46Z"/><path class="cls-4" d="M192.52,1177.08a13.64,13.64,0,0,1-3.46-.47c-6-1.56-6-7.94-6-12.6v-.15a121.94,121.94,0,0,1,18.42-53.1,10.34,10.34,0,0,1,3.6-3.08c.49-.3,1-.61,1.42-.92l2.07-1.55,1,2.4c.51,1.25,1.18,2.57,1.83,3.84,1.55,3.06,3.15,6.21,3.29,9.6l.13,3c.69,15.62,1.41,31.77-10.09,45.86C200.75,1174.81,196.87,1177.08,192.52,1177.08Z"/><path class="cls-4" d="M156.81,903.09a53.57,53.57,0,0,1-23-4.78c-4.11-2-6.61-5.07-7-8.74s1.32-7.41,5-10.4c6.72-5.48,15.24-6.92,23.4-7.92h.14l1.75,0c11.55,0,22.48,2.23,33,4.39,2.65.54,5.27,1.07,7.9,1.57a10.29,10.29,0,0,1,3.66,1.75c.42.27.8.53,1.19.74l1.77,1-1,1.76c-.22.39-.42.8-.61,1.21a10.53,10.53,0,0,1-2,3.18C190.51,896.85,173.61,903.09,156.81,903.09Z"/><path class="cls-3" d="M175.63,782.6l0-1.2q.15-4.54.28-9.06c.56-18.45,1.08-35.86,4.1-53.44a8,8,0,0,1,1.1-2.68,9.15,9.15,0,0,0,.43-.81l1.48-3.1,2,2.81c.16.24.35.46.53.69a8.81,8.81,0,0,1,1.51,2.38c5.29,13.79,5.59,28.29.94,47-1.14,4.58-3.31,8.21-5.61,12-1,1.64-2,3.35-3,5.17l-.56,1.06Z"/><path class="cls-4" d="M131,1021.39l-.09,0-2.74-.88c-7.46-2.33-17.65-5.52-18.47-15.59-1.12-13.66,14.47-17,19.6-18.13a104.59,104.59,0,0,1,22.32-2.6,73,73,0,0,1,31.17,6.72c.74.34,3,1.38,3.22,3.43.2,1.84-1.29,3-2,3.52l-.23.19c-14.7,14.82-31.76,22.5-52.14,23.44h-.28Z"/><path class="cls-3" d="M170.07,782.11c-12.46-16.2-11.81-55.35,1.22-73.5l3.52-4.91.1,6c.15,9.33-.55,18.58-1.22,27.53-1,13.92-2.13,28.31-.05,43.34l1,7.47Z"/><path class="cls-3" d="M96.94,612.67a22.07,22.07,0,0,0,.12-2.21c0-1.6.06-3.11,1-4.3,21.71-26.73,43.3-38.76,70-39a7.36,7.36,0,0,1,2.46.52,6.2,6.2,0,0,0,.69.23l3.2.88-2.27,2.42c-.27.28-.51.59-.76.9a9.26,9.26,0,0,1-2.62,2.46q-12.78,7-25.57,14.06l-.7.38c-11.13,6.11-23.75,13-35.94,19.8a18.83,18.83,0,0,0-3.7,3.11c-.77.75-1.62,1.59-2.6,2.46l-3.9,3.46Z"/><path class="cls-3" d="M164.42,479.05c-4.5,0-9.21-.22-14-.67l-7.56-.7,6.92-3.11,84.71-38.13,4.76-2.14-2.11,4.77C225.6,465.22,200.45,479.05,164.42,479.05Z"/><path class="cls-3" d="M121.81,248.55l.42-1.09q2.28-5.86,4.52-11.73l.08-.23c3.7-9.63,7.5-19.54,11.4-29.24,1.86-4.6,4-9.15,6.12-13.54,1-2.09,2-4.09,2.87-6.1.63-1.37,1.27-2.73,1.91-4.11l2.09-4.47,1.61,4.67c.2.57.43,1.14.67,1.71a18.77,18.77,0,0,1,1.36,4.4c1.36,10-2.2,18.63-5.64,27-1,2.48-2.07,5-3,7.59-3.83,10.89-12,18.64-20.85,26.27l-.89.77Z"/><path class="cls-3" d="M84.66,113.36c10.45-12.19,24.45-17.87,44.07-17.87l2.51,0c5.22.13,10.37,1.51,15.35,2.85,1.69.45,3.43.92,5.15,1.33,2.84.69,3.63,2.06,3.8,3.09.22,1.38-.53,2.62-2.23,3.68a2.63,2.63,0,0,1-1.38.38,5,5,0,0,1-2-.52c-.2-.08-.51-.21-.68-.26q-12.35,2.13-24.68,4.34l-.32,0q-11.43,2-22.86,4c-3.45.6-6.94,1.07-10.31,1.52l-.19,0-4.45.61-5.25.75Z"/><path class="cls-3" d="M121.11,614.71a32.6,32.6,0,0,1-7.48-.85l-5.11-1.22,66.75-36,2.2,2.63-.77,1C159.4,601.83,138.62,614.71,121.11,614.71Z"/><path class="cls-3" d="M111,252.21c-2.49-13.45-4.17-26.6,2.64-39.65,5-9.54,10.87-19.44,20.08-27.16,1.66-1.4,3.06-2.12,4.16-2.12a2.52,2.52,0,0,1,1.19.29,3.22,3.22,0,0,1,1.77,2.06,3.68,3.68,0,0,1-.83,3,4.15,4.15,0,0,0-.33.54c-6.7,16.91-13.28,33.77-20.26,51.61l-7.14,18.27Z"/><path class="cls-3" d="M116.63,131.72A59.46,59.46,0,0,1,87.1,124l-4.84-2.82L165.12,108l-4.06,4.28A60.86,60.86,0,0,1,116.63,131.72Z"/><polygon class="cls-2" points="6 8.83 58 60.83 58 1619.17 6 1671.17 6 8.83"/><path d="M1024,8V1672a8,8,0,0,1-8,8H8a8,8,0,0,1-8-8V8A8,8,0,0,1,8,0H1016A8,8,0,0,1,1024,8Zm-8,1658.34V13.66l-48,48V1618.34ZM962.34,56l48-48H13.66l48,48H962.34ZM13.66,1672h996.68l-48-48H61.66ZM960,1616V64H665.77c15,26.4,35,49.42,51.17,74.95,8.71,13.74,21.76,9.76,32.68,13.64,17.31,6.16,35.61,9.53,53.07,15.34,5,1.66,4.47-2.47,6.57-3.41,19-8.6,36.83-2.65,55.14,2.72,18,5.29,28.58,17.84,37.11,33.3a16.31,16.31,0,0,1-1,17.53c-3.22,4.58-10.07,4.84-16,5.72-27.77,4.08-46.44-13.73-66.82-27.28-6.06-4-5.71-14.08-13.92-16.44-13.28-3.81-26.94-6.53-39.87-11.27-10.62-3.89-22.35-4.78-32.47-11.21,15.58,22.29,29.83,45.23,43.46,68.52,10.59,18.07,20.23,36.7,30.15,55.16,1.1,2,2,3.59,4.54,3.68a137.52,137.52,0,0,1,45.88,9.83c3.56,1.41,4.73-2.4,7-3.48,30.32-14.6,69.9-7.93,89.65,26.43,3.85,6.7,5.77,12.26,5.77,16.72,0,6.07-3.55,10.09-10.63,12.17-19.76,5.81-38.6,2.26-55.35-9.38-10.7-7.44-22.77-14.1-29.41-25.72-6.47-11.31-18.1-8.46-27.22-12.25-6.47-2.69-13.7-3.58-20.6-5.24-1.05-.25-2.14-.33-3.21-.48a11.62,11.62,0,0,0,.92,3.08c14.77,22.52,25.53,47.25,39.19,70.34,2.12,3.58,10,3.38,14.92,5.71,19.62,9.37,30.36,25.06,34.94,46.39,4,18.8,3.47,37.3-2.43,54.88-3,8.84-14.28,4.28-20.2,1.8-18.41-7.69-29.1-23.38-35.7-41.57a105.6,105.6,0,0,1-3.85-59.49c1.13-5.21-2.66-8.47-4.4-12.38-3.44-7.74-7.8-15.08-12.09-22.41-1.18-2-2,.43-2.8,1.09-7.5,6.15-12.41,11.28-9.82,23.81,2.56,12.34-3.65,25.29-14.73,35.33C784,410.44,770.58,415.62,757,420.85c-5.69,2.19-11.52-.62-14.58-5.74-3.16-5.29-2.5-11.43-1.35-17.6,4.62-24.63,22.64-37.11,42.62-47.89a9.76,9.76,0,0,1,5.59-.81c7.09,1,11.59-2.33,17.52-6.29,18.71-12.47,5.06-23.37-.91-33.25-10.84-17.92-19.24-37-29.09-55.34-7.62-14.19-16.12-27.92-24.39-41.75-3.24-5.41-6.95-10.56-10.15-15.39-4.19,2.32-8.69,4.57-12.93,7.23-6.88,4.31-12,7.93-14.65,18.07-7.74,29.53-41.31,44.62-70.35,41.08-19.37-2.37-26.24-7.8-23.19-20.12,2.5-10.11,9.23-17.65,17.91-23.44,10-6.67,20.21-13.14,32.18-15,10.87-1.71,21.84-.79,32.78,1.58,7.08,1.53,12.51-4.54,18.88-6.68,5.35-1.79,9.74-6.34,16-5.57.55.07,1.16-.39,1.74-.61-1.31-2.57-2.11-5.63-4-7.62-11.63-12.05-18.82-27.16-28.44-40.58-10.95-15.3-22.3-30.35-32.36-46.22-7.16-11.31-13.56-23.1-20-34.88H468.75c11.13,16.84,21.91,33.89,30.54,52.25,5.41,11.5,18.15,8.26,27.17,12.57,4.17,2,9.28,2.08,13.36,4.18,8.77,4.52,16.58.49,24-2.52,11.93-4.82,23.33-3.48,34.84.46,16.78,5.74,31.42,15.24,42.81,28.59,4.15,4.87,13.39,10.61,5.7,19.75-4.66,5.52-11.77,6.87-18,7.51-22.61,2.31-44-1.41-63.53-14.35-11.11-7.36-21.88-14-25.68-28.22-.71-2.62-7.93-3.76-12.29-5.07-3.85-1.16-7.93-1.57-11.89-2.39a37.05,37.05,0,0,1-3.79-1.21c.39,1.53.34,3.38,1.22,4.53,11.2,14.66,16.84,32,23.9,48.67,11.4,26.95,24.21,53.32,34.85,80.55,3.07,7.84,7,15.36,9.61,23.41,4.23,13.08,18,10.55,27,16,7,4.26,15.11,7.13,23.07,9.49,6.75,2,11.9-4.23,18.21-5.88a49.17,49.17,0,0,1,34.39,3.58c14.14,6.77,25.63,17.93,35.76,30.1,7.32,8.8,2.48,14.14-5.2,19.12-26.45,17.15-72.22-5.65-83-30.52C625.77,320.8,612,323.72,603,317c-3.88-2.92-7.73-6.61-13.95-6.28,10.45,27.55,21.15,54.72,31,82.2,5.12,14.27,8.91,29,12.94,43.68,2.13,7.72,9.41,2.66,13.56,6.09,3.5,2.9,9.17,3.07,12.95,5.76,8.78,6.25,11.67-4.06,17.61-5.65,19.77-5.29,38-1.54,55.09,8.63,15.6,9.31,26.29,23.18,33.92,39.55,2.49,5.36-7.74,14.94-16.28,16.21-26.34,3.91-46.54-7-66.4-23.14-8.67-7-11.57-17.7-20.07-23.37-7.83-5.23-17.21-8.15-25.48-11.89,3.66,15.72,7.13,31.92,11.27,47.95a163.16,163.16,0,0,0,8.24,23.19c.57,1.34,4.53,1,6.6,2,20.49,10.45,32.86,27.41,39.05,49.23,4,14.29,9.95,28.48,7.77,43.62a293.72,293.72,0,0,1-8.79,38.75c-1.25,4.34.16,4.62,3.05,6.52a83.44,83.44,0,0,1,24.47,24.75c1.62,2.52,3.4,3.41,6.77,2.29,22.26-7.4,44.81-14,66.08-24.05,5.3-2.51,4.87-8.82,8.31-12.8,19.64-22.73,43.12-37.13,74.23-33,11.34,1.51,22.91,8.14,23.42,20.37S897.93,656.7,886.85,661c-15.56,6.08-31.33,11.07-48.36,10.59-7.82-.22-15.69.55-23.29-2.11-7.29-2.54-11.8,3.82-17.51,6-19.27,7.28-38.12,15.67-58.48,20.18,12.73,16.53,18.72,36.42,27.9,54.7,3.54,7,10.19,1.36,15.1,1.21a380.11,380.11,0,0,1,38.19.23c8.48.59,13.69-7.48,21.38-10.11,22.75-7.8,45.66-9.71,67.81-.27,14.23,6.07,25.53,24.72,16.22,38.81-4.82,7.29-13,8.16-20.06,8.54-29.8,1.6-56.81-6-79.13-27a4.81,4.81,0,0,0-3.2-.71c-15.72.68-31.43-.91-47.22,1.64-12.2,2-2.82,10.26-2.46,11,9.16,19.87,13.19,41.38,20.37,61.84,2.33,6.65,8.76,3.1,13.07,4.9,11.86,5,24.3,9.66,36.93,11.39,9.6,1.31,19.81-2.77,29.81-3.26,23.17-1.13,54.73,7.34,66.77,33.1,5.61,12-6.38,26.72-22.11,25-11.64-1.28-23.55-1.7-34.34-9.08-12.47-8.53-23.8-18.41-32.68-30-7.85-10.21-18.89-8.24-28.14-12.4-6.57-2.95-14.13-3.64-21.16-5.64-2.48-.7-3.67-.38-3.15,2.23,1.58,7.91,3.15,15.82,5.06,23.65,2.58,10.52,14,13,19.55,21,12.3,17.6,22.34,36.19,18.84,58.17-1.43,8.95-5.68,19.23-16.88,22.27-8.53,2.31-15.81-1.38-19.72-8.18-8.49-14.8-14-30.69-13.31-48.32.45-12.4,3.88-24.3,5.28-36.24,1.17-9.93-6.08-20.84-9.58-31.32-.62-1.84-1-3.76-1.79-5.53-3.47-8.11-4-8.3-15.69,3.86-6.57,6.85-12.29,14.77-20.69,19.3-10.42,5.61-7.27,16.55-10.69,24.76-7,16.92-19.08,28-35,35.8-6,3-11.73,5.59-18.82,4.1-10.76-2.26-16.38-12.37-12.3-22.74,10.86-27.61,34.46-36.37,60.62-42.55,9.41-2.23,15.93-10.87,22.79-17.72,4.73-4.73,8-11.41,13.39-14.89,11.72-7.55,8.43-16.29,4.69-26.21-5.68-15.08-10.8-30.38-15.81-45.7-1-3.07-2.06-2.84-4-1.54-13.63,9.07-27.39,18-40.74,27.44-2.58,1.84-4.35,5.84-5,9.15-5,23.5-37.61,40.16-58.33,28.55-10.66-6-16.58-19.77-4-31,13.59-12.11,30-20.89,45.46-17.45,24.44,5.42,34.79-13.42,51.39-21.38,18.33-8.8,5.61-20.79,2-29.75-7.6-19-21-35-33.17-51.42-7.8-10.51-19.26-13.85-32.05-14.24-12.24-.38-18.61-10-25.52-18.15-20.49-24.14-24.62-53-21.77-83.09,1.08-11.31,3.48-22.78,9.49-33.32,4.32-7.59-2.84-15-4.51-22.46-3.52-15.84-7.86-31.5-12.12-47.17-2.63-9.67-5.69-19.21-8.65-28.79a10.7,10.7,0,0,0-1.9-2.7,40,40,0,0,0-2.49,3.47c-7.7,13.66-5.07,27.89-4.75,42.8.72,33-15.64,58.46-44,75.61-12,7.24-21.17,2.51-21.2-11.82-.08-34.13,8.54-66.28,40.32-83.26,16.79-9,21.19-23,27.4-36.88,2.47-5.5-1.56-14.61-4.11-21.54-8.83-24-19-47.54-27.36-71.68-9.89-28.4-22.77-55.53-33.82-83.42-7.66-19.35-14.71-38.9-26-56.59-1.18-1.84-.77-4.7-2.58-7,.68,11.63.83,23.32,2.15,34.88,3.55,31.06,1.07,62.2,1.9,93.29.47,17.41,1.44,34.81,1.82,52.23.32,14.76.62,29.55,0,44.3-.63,16.15,2,32.24,1.38,48.15-.34,8.64.14,17.58.1,26.09-.06,14-2,28,0,42.25,2.06,14.75-1,30.17-1.3,45.31-.34,16.86-.1,33.73-.1,50.59s.44,33.86-.07,50.77c-1,34.3-2.56,68.58-4,102.86-.07,1.52-1.4,3-1.5,4.5-.42,6.28,1.09,7.64,8.38,6.37,10.73-1.87,21.51-3.56,31.9-6.71,2.91-.89,4.84-5.18,7.1-8,16.82-20.9,38.49-30.66,65.27-27.63,9,1,13.56,8.11,15.46,16.2,2.32,9.88-2.7,16.94-10.94,21.73-16.47,9.58-34.75,10.36-53.07,10-19.25-.4-37.87,4.52-56.81,5.84-9.72.68-7.54,5.46-7.75,10.78-1.29,32.65-3,65.28-3.75,97.93-.19,8.16,5.46,1.83,7.83,1.24,14.69-3.66,30.08-6.07,43.59-12.41,10.67-5,19.59-14.41,31.09-18.33,17.74-6,35.6-15.29,54.59-3.34,6.59,4.15,10,10.59,8.33,17.63s-4.73,14-13.08,16.81c-26.16,8.92-52.12,3.25-78.21-.17-10.66-1.4-20,4.61-30,7-6,1.41-12.12,2.94-18,4.42-8,2-8.2,5.75-8.44,12.1-.88,23.42-2.3,46.83-3.51,70.25-.21,4.2,3.58,2.44,4.41,2,16.47-8.32,35.65-8.32,51.77-18.78,16.59-10.78,35.29-17.91,55.72-19.14,9.11-.55,25.68,10.39,27.71,19.55,2.23,10.1-7.37,22.87-20,26.68-19.11,5.78-37.78,1.3-55.45-4.79-16.13-5.56-30.69-5.71-45.88,1.53-5.16,2.45-11.26,2.94-16.38,5.44-4.53,2.22-3.78,7.91-4.06,11.91-1.81,26-3,52-4.43,78Q500.12,1110,499,1123c-.34,4.07-.41,6.52,5.05,4.06,16.52-7.47,33.86-12.7,50.95-18.63,5.44-1.89,8.57-10.47,14.22-15,19.29-15.32,40.56-22.45,64.92-16.35,12.89,3.24,20.3,12.31,19.49,25.84-.7,11.77-10.15,16.41-19.82,20.17-19.54,7.59-40,6.57-58.37-.61-24.46-9.56-42,6.55-62.67,11.2-18,4-15.33,15.75-16,28.36-.87,16.25-4.14,32.36-5.53,48.6-.86,10.16-.28,20.45-.08,30.67.05,2.76,2.2,1.67,3.65,1,13.11-5.82,27-10.42,39-18,7-4.42,13.75-9.77,21-14.27,7.94-5,16.1-9,25.24-11.19,16.6-4.06,32.38-2.4,47.25,6.13,6.82,3.9,8.75,11.62,9.2,17.93a19.85,19.85,0,0,1-8.53,18.14c-19.63,13.29-40.57,9.31-61.59,5.21-10.4-2-19.07-7.87-28.21-12.71a6.18,6.18,0,0,0-5.07.27,290.61,290.61,0,0,1-42.5,20,3.17,3.17,0,0,0-1.46,2.48c.33,28.77-6.24,57-6.57,85.8-.14,12.2,5.31,6.25,9.46,5.23,16.12-4,32.66-7,48-13,8.53-3.31,14.8-12.1,22.59-17.73,14.83-10.74,30.9-19.93,49.67-19.35,12.55.4,25.32,5.5,28.33,19.62,2.69,12.64.22,25.5-13.88,31.1-17,6.74-34.3,9.6-52.87,4.56-11.27-3.07-21.8-11-33.65-9.23-13.78,2.11-27.13,7-40.69,10.63-4.35,1.16-8.83,3-13.14,2.79-4.73-.28-6.37,2.45-7,5.45-.64,3.18-1.67,6.74,1.83,9.92,12.17,11.07,19.88,24.83,23.82,40.85,3.1,12.62,2.09,25,0,37.69-3.21,19.83-26.39,33.54-43.57,24.07-10.44-5.75-13.85-18.09-13.9-28.9-.12-24.43,10.5-46.68,17.78-69.52,1.56-4.9,8.2-6.88,7.76-13.85-.34-5.48-3.26-6.43-7.14-7.43-15.28-4-30.58-7.85-45.84-11.86-4.8-1.26-7.61,3.19-11.61,3.76-20.25,2.9-40.47,4-59.31-6-10-5.34-16.38-14.51-17.05-25.46-.53-8.56-.17-18.51,10-23.51,11.81-5.79,22.25-1.23,32.73,3.78,18.37,8.79,30.65,24.45,44.72,38.3,4.64,4.56,13.56,5,20.66,6.78,9,2.25,18.1,4.27,27.26,5.76,10,1.63,5.36-7.13,5.6-10.28,1.86-24.31,2.78-48.7,3.93-73.07,0-.9-.38-2.39-1-2.66-11.12-4.92-21.92-11.75-33.58-13.87-9.65-1.75-20.41,3.71-30.52,3.15-24.64-1.39-48.94-5.71-66.5-25.41-6.29-7.06-2.7-16.16,2-22.72s12.34-7.85,20.7-7.54c20.92.79,38.85,9.13,55.34,20.86a100,100,0,0,1,18.47,17.79c9.11,11,23.72,10.63,34.52,17.92.22.15,2.14-1.23,2.18-2,.85-17.46,1.3-34.95,2.36-52.39.93-15.48,2.39-30.92,3.83-46.36.52-5.57-.93-8.39-7.06-9.83-9.2-2.17-16.72-10.32-26.93-9-8.92,1.12-17.66,3.57-26.51,5.33-9.74,1.92-18.59-2.45-27.72-4.38-14.47-3.05-25.71-11.83-36.12-21.94-8.29-8-7.79-18-3-26.12,4.23-7.16,12.52-9.63,22.2-8.19,19.69,2.92,36.55,12.22,53.33,21.63,8.61,4.83,15.69,12,21.46,20.44,7.05,10.26,20.28,8.86,29.84,14.61,1.06.63,2.4-2.47,2.47-4.68.58-16.66.93-33.34,2.06-50,1.17-17.36,3.38-34.64,4.62-52,.46-6.42-6.56-6.4-10.11-9.35-13.82-11.48-30.07-13.67-47-10.79-21.91,3.73-65.9-12.06-76.69-28.38-3.93-5.93-5-12.36-1.46-18.66,4.56-8.18,12.24-8.71,20.82-8.31,27.32,1.25,50.85,12.54,69.58,30.91,13,12.73,29,19.08,43.19,29a22.78,22.78,0,0,0,2.39,1.28,14.48,14.48,0,0,0,.51-2.29c1.35-26.44,1.39-53,4.52-79.25,1.8-15.12-9-17.28-17-22.55C472,900.67,460.7,895,449.81,888.76c-7.07-4-14.64-.38-22-1-19.59-1.76-36.27-8.76-51.41-20.56a36.09,36.09,0,0,1-11.21-41.78c4.06-9.86,17.54-10.6,32.18-3.59s25.08,18.51,35.9,29.45c8.58,8.68,14,20.38,22.05,29.72,3.6,4.19,10.22,5.7,15.3,8.72,9.81,5.86,19.5,11.92,28.73,17.59,1.83-33.88,2.94-67,5.8-99.95.9-10.34-4.38-14.15-11-18.38-12.09-7.76-20-23.57-37.1-21.69-28.7,3.14-53.57-4.25-73.81-25-8-8.2-11.18-19.76-7.6-30,2.92-8.34,9.34-16.77,20.52-17.85,15.07-1.46,25.72,7.49,36.58,15.54,9.67,7.15,19.22,14.94,25.28,25.41,5,8.7,8.6,18.4,15.93,25.43,9.42,9,21.89,14.43,31,26.17,1.38-23,2.73-44.61,4-66.28.47-8.39,1.79-17,.41-25.12-.64-3.77-6.74-6.7-10.5-9.84-7.48-6.26-16.26-11.43-22.28-18.85-7.63-9.39-16.54-4.72-24.82-4.54-7.64.16-13.87-3-20.55-5.29-17.43-6-33.84-28.49-34.39-45.62-.3-9.14,5.14-14.19,11.54-17.91,7.3-4.25,15.75-2.06,22.08,2.2,20.91,14,34.28,33.63,43.35,57.31,2.91,7.61,13.82,12.16,21.1,18.09,1.39,1.13,2.94,2.07,4.31,3.23,3.06,2.6,6,5.29,9.07,7.94.9-4.57,2.54-9.14,2.58-13.73q.38-41,0-82.07c-.06-6-7.16-5.5-10.35-9-6.23-6.91-12.84-13.76-20.35-19.16-5.57-4-13.24-.72-20.19-2.79-13.16-3.91-23.45-11.77-32.17-21.11-8-8.56-14.92-18.54-17.24-31-2.16-11.6-1.14-22,9.09-28.79,9.9-6.55,19.48-1.28,26.88,5.2,12.94,11.34,20.72,26,27.25,42.21,7.78,19.37,14.37,41,38,49.92,0-13.49.07-27.76,0-42-.12-20.33.74-40.7.57-60.94-.18-22.32-1-44.72-1.34-67.09-.36-25.13-.64-50.24-1.63-75.38-1.13-28.68,1.4-57.49,1.44-86.24,0-24.68-.66-49.4-2.2-74-.43-6.74-5-13.25-8-19.72-.13-.28-3.84.48-5.32,1.54a357.63,357.63,0,0,0-61,55.31c-16.2,18.53-32.65,36.84-46,57.62-1,1.55-1.71,4.41-1,5.81,7.44,13.8,9.54,29.6,16.36,43.43,1.92,3.91,10,4.47,14.79,7.34,14.75,8.84,24.08,21.88,28.46,38.48,3.91,14.78,9.23,29.4,6.36,45.08-.62,3.35-1.72,8-4.1,9.28-2.85,1.57-7,1.15-11-.9-7-3.57-14.81-5.49-21.58-9.93-14.18-9.31-21.16-23.4-25.46-38.8-4.19-15-3.21-29.7,2.94-44.78,2.27-5.58-3.27-14.37-5.35-21.67-1.86-6.56-3.79-13.1-5.85-19.6-.41-1.29-1.56-2.35-2.36-3.52a20.84,20.84,0,0,0-2.29,2.21c-21.67,28.14-41,57.93-59.73,88-3.09,4.94,6.3,11,7.63,17.37,2.53,12.24,14.63,10.94,22.16,16,14,9.36,22.19,22.89,28.64,37.64,4.06,9.29,9.13,18.36,8.3,29.3-.54,7.28,1,15.17-7.81,18.42-8.13,3-15.42.12-22.5-4.23-22.18-13.61-33.47-34.39-36.82-59.15-.86-6.32-.71-14.27,2.77-21.43,3.66-7.53-5.51-12.65-6.36-19.77-.18-1.53-1.57-2.92-2.46-4.47-12.57,17.42-21.43,36.94-31.2,56-6.25,12.17-12.88,24.14-19.28,36.23-2.28,4.31,7.71,16.2,13.37,15.95,26.12-1.12,38.68,17.1,49.93,36.06a100.43,100.43,0,0,1,13.73,61.84c-.87,8.73-2.59,17.8-9.16,26.23-7.26,9.29-10,22.26-14.1,33.84-8.53,24-17,48-24.8,72.25-2.68,8.33-3.71,17.18-7.39,25.32-1.64,3.64,3,2.39,4.39,3.54,3.81,3.09,10,3.84,12.83,7.42,6.84,8.62,15.18,6.34,24,6.21,19.73-.28,42.51,15.92,47.51,34.94,1.41,5.36-.68,13.15-6.61,17-5.28,3.45-10.29,6.42-18.09,4.27-23.15-6.37-29.82-25.36-38.82-44.06-3.32-6.89-14.07-10.52-21.86-14.88-11.61-6.5-7.92,6.08-8.92,9C271.94,775,267.2,792,261.33,808.75c-4.45,12.69-6.12,26.46-8,39.89-.44,3.2-4.18,9.26-.67,9.77,8.68,1.25,17.23,8.8,26.8,0,13.71-12.59,39.14-17.9,52.73-9.53,10.41,6.41,21.25,13.15,22.51,26.16,1.62,16.74-15.9,26.77-32.22,21.62C305.28,891.24,289,885.28,274.38,874c-5.61-4.36-15.37-4.75-23.16-4.49-7.08.24-4.61,8.65-5.65,12.9-3.89,16-6.1,32.38-9,48.62-1.16,6.56-2.1,13.18-3.62,19.66-1.6,6.82,2.5,8.19,7.54,8.21,10,0,19.79-.46,29.35-4.76,17.12-7.71,34.6-6.52,52,0,11.1,4.18,20.86,9.42,25.33,21.57,7.74,21.07-4.29,29.73-22.15,27.39-25.12-3.3-47.77-13.54-67.62-30.51-5.8-5-17.21-5.78-25.31-4.34-3.05.54-4.63,12.75-5.79,19.81-2.39,14.52-4,29.17-6,43.74-1,6.8-1.88,13.62-3.3,20.33-2.34,11.14,7.69,6.25,11.53,8.33,13.08,7.08,25.9-.77,38.72-3.1,9.48-1.72,18.78,0,27.43,2,15.25,3.64,29.93,9.41,38.54,24.59,5.39,9.49,3.55,18-2.34,25.57s-14.58,6.74-22.85,4.31c-26.83-7.88-48.38-24.31-69.62-41.77-5.24-4.31-14.71-3.54-22.3-4.74-.47-.07-1.51,3.06-2.18,4.74-6.5,16.37,3.46,29.47,7.76,44.07,6.48,22,4.39,44.09-11.39,62.5-6.88,8-16.7,10.91-26.55,6.1-12-5.85-9.37-17.59-8.33-27.68,2.46-23.92,14.73-43.21,28.07-62.74,5.47-8,2.44-21.75,3.47-32.86,2-21.3,4.1-42.59,6.18-63.88.08-.87,1.6-3.08-.15-2.29-8.47,3.83-18.82-2.15-26.74,8-9.41,12.09-23.41,19.41-38.46,23.75-16.65,4.8-31.41,2.2-44.37-10.16-6.77-6.46-4.34-20.8,5-31.09,9.91-10.93,45.12-11.06,56.65-10s18.56,10.52,29.59,11.21c16.12,1,25-2.62,25.06-22.31,0-17.77,6.19-35.52,9.43-53.32,2.15-11.78,3.91-23.63,5.82-35.32-7.46,1.71-15.33,2-21.57,5.36-5.73,3.08-9.63,9.5-14.44,14.36-14.3,14.43-52.26,20.33-69.92,10.66-8.22-4.5-13.09-12.3-11.73-21.22C119,874.19,128,867.7,138.2,865.18c23.8-5.91,46.91-1.62,69.26,7.48,9.89,4,32-11.73,33.89-21.86,3.68-20.11,9.14-39.91,14.47-59.68s10.41-39.6,17.44-58.74c5.17-14.07,8.5-28.68,12.69-42.88,6.76-22.87,17-44.15,25-66.38a18.56,18.56,0,0,1,2-4.19c8.15-11.73,3.47-16.47-8.41-22.56-16.81-8.63-26.07-25.43-34.14-42.34a101.75,101.75,0,0,1-10-36.73,130.7,130.7,0,0,1-.25-13.57c.36-10.6,6.76-21.51-3.1-31.93-4.56,9.67-9.47,19.59-13.94,29.71-6.74,15.28-13.89,30.44-19.26,46.21-1.5,4.4,3.24,10.64,4.13,16.2,2.35,14.8,16,16.49,25.76,22.2,12.09,7.07,15.74,18.9,19.05,30.6,3.15,11.18,4.3,23,5.74,34.58.39,3.05-.42,8.16-2.36,9.22-5.39,2.91-11.23,6.25-18,3.85-23.09-8.16-33.66-24.24-36.18-48.84-1.2-11.59,3.44-20.84,3.79-31.2.18-5.35-3.5-10.82-5.39-16.25-.77-2.23-1.41-4.5-2.76-8.85-6.53,20.9-12,40.29-18.67,59.3-6.88,19.77-7.27,40.87-13.48,60.7-4.38,14,5.68,23.38,10,34.75,8.82,23.26,9.47,46.15-6,67.57-4.45,6.14-7.8,16-16.8,12.1-9.94-4.27-15.21-14.43-17.63-25.19a99.69,99.69,0,0,1,0-43.92c1.75-7.92,4.07-16.32,9.88-21.54,11.33-10.15,9.92-24,11.72-36.35,2.65-18.24,7.25-35.86,11.62-53.66,3.89-15.84,8.34-31.37,14.67-46.38.28-.65-.16-1.6-.27-2.41-1,.4-2,.85-3.08,1.18-11.19,3.56-17.32,10.52-21,22.4-4.75,15.43-18.92,23.32-33.41,28.07-16.84,5.52-34.26,10.52-52.32,5.2-7-2-4.41-15.28,1.68-23.58,10.09-13.73,24-22,38.3-29.36A68,68,0,0,1,183.54,563c7.3,2.06,11.59-4.68,17.33-7.16,15-6.48,14.25-22.68,19.72-34.71,9.83-21.56,20-42.91,30.68-64,4.58-9,11.69-16.88,13.53-27.23.54-3.07-1.17-3.23-3.61-2.14a27.09,27.09,0,0,1-6.59,2.22c-14.13,2.29-15,16-20.87,25-13.36,20.38-32.83,28.12-55.57,30.05-9.6.81-19.35-.11-29,.23-5.82.2-12.62.27-14.48-5.34-1.66-5-.11-11.41,2.94-16.65,16.36-28.06,42-40.12,73.12-44.67,11.24-1.64,19.66,1.21,29.36,5.5,6.72,3,13.88-4.19,21.14-5.65,20.12-4,19.78-24.49,29.33-36.89,11.2-14.56,19.83-31.07,29.8-46.59,4.28-6.67,9.13-13,13.36-18.93-21.94,6.26-44.44,12.89-67.08,19-5.42,1.46-1.36,5.21-3,7.87-13.57,22.53-33.53,34.6-59.12,38.27-14.4,2.06-28.77,4.28-43.41,4.05-7.11-.1-14.58-1.59-17.61-7.63-2.79-5.55.44-11.54,4.88-17.2,14.74-18.8,33.93-30.38,56.21-37.26,20.89-6.44,41.5-5.18,62.71,1,7.77,2.27,17.83-3.07,26.79-5.15,10.51-2.45,21-7.23,31.46-7.25,18.6,0,20.69-15.86,28.75-26.07,10.14-12.86,20.08-25.89,30.08-38.86,2.74-3.57,5.6-7.08,8-10.87,1.83-2.9-.73-2.85-2.55-2.77-13.38.64-26.86.54-40.08,2.35-6.26.85-9.48,8.33-14.36,12.5-26.09,22.33-57.32,20.52-87.72,18.17-9.71-.75-23.46-2.88-29.68-15.2-2.69-5.32-.57-10.24,2.11-13.67,23.3-29.85,69.41-42.69,105.57-27.35,10.81,4.58,18.65,15.4,31.45,15,14.41-.44,28.93-.35,43.16-2.31,8.09-1.11,11.12-10.51,16.56-16,8.66-8.76,15.46-19.16,25.68-26.65,5-3.64,7.8-10.13,13.78-13.17.41-.21.41-2.16.36-2.17-4.29-.92-8.7-1.41-12.92-2.59-14.3-4-25.39,3.95-38,8.24-18,6.11-37.39,7-56.31.58-14.27-4.83-27.36-11.33-38.89-21.26-12.18-10.51-12.46-15.19,1.27-22.14,11.84-6,24.82-10.21,38-10.11,23.1.17,48.44,1.85,64.13,19.16,13.66,15.06,30.08,15.33,46,20.06,6.17,1.83,12.21-3,17.4-7,2.47-1.91,4.89-4.11,7.7-5.34,19.34-8.45,3.17-17.15-.2-25-8-18.6-16.76-36.88-25.44-55.18H230.57c-6.62,7-13.1,14-17.84,22.57-1,1.79,9.08,18.21,11.19,18.37,19.45,1.43,42.47,24.07,45.29,43.56,1.58,10.93,4.25,21.69-.17,32.47-2.24,5.47-5.16,10.22-11.45,8-15.67.89-34-15.42-38.19-29.15a267.39,267.39,0,0,1-8.23-33.76c-1.24-7.28,4.57-14.74-.22-22.17-1.78-2.77-3.12-5.81-4.67-8.73-2.35,2.16-5.28,3.94-6.95,6.53-13.91,21.62-27.55,43.41-41.35,65.1-4.25,6.68,2.41,11.28,3.62,16.75,2.31,10.43.72,20.19-2.91,29-5.37,13.1-10.94,26.53-21.42,36.85-3.92,3.85-7.64,7.93-11.77,11.55s-8.67,9.57-13.32,7.41c-4.26-2-7.79-8.52-9-13.66C96.85,227,105,203,125.49,183.76c5.79-5.44,13.12-9.57,20.28-13.68,6-3.43,8.43-13,12.47-19.78,7.63-12.86,15-25.9,23.1-38.46,2.47-3.83.21-2.82-1.63-2.74-5.57.24-10.24-1.11-14.89,5.92-10.57,16-27.69,23.67-46.47,23.61-14.75,0-29.78-3.43-41-14.79-7.93-8,.77-12.83,4.85-17.24C97.65,89.92,126,85.3,147.63,92c8.3,2.56,13.44,9.55,22.75,10.49,24.33,2.46,30.2-18.5,42.48-31.27q3.42-3.55,6.76-7.21H64V1616ZM942.42,324.59c0-1.07.48-2.56,0-3.14-4.62-5.1-8.75-11-14.29-14.85-16.23-11.29-34.18-12.8-52.64-7.27,21,8.31,41.87,16.59,62.77,24.79C939.48,324.62,941,324.45,942.42,324.59Zm-63.66-11.24c22.9,22.37,45.11,29.59,69,22.74C940.51,332.17,883.86,313.35,878.76,313.35Zm50,577.76c3.82-6.08-1.94-12-7.21-16.56-18.84-16.18-40.57-19.48-64.23-15.08,6,2.38,7.76,8.67,12,12.13,11.89,9.7,22.61,21.6,39.54,22.78C915.89,894.86,924.67,897.52,928.71,891.11ZM916.94,767.24c-1-4.7-3.61-11.08-9.91-14.29-23-11.68-46-7.25-68.94.66-.84.29-1.19,2-1.77,3,8.88,3.5,15.06,11.26,24.3,14.55,11.83,4.21,24.15,5.12,36.2,7.67C903.53,780.23,916.93,774.77,916.94,767.24ZM896.5,639.39c.62-1-3.1-6.08-5.78-7.49-4.48-2.36-9.72-4.57-14.65-4.58-17.45-.06-32.82,6.4-46,17.66-4.67,4-8.56,8.88-12.81,13.37,6,4,12.92,1.95,19.35,2.54,17.65,2.1,33.27-5.74,49.41-10.46C890.31,649.17,893.83,643.69,896.5,639.39ZM892.42,460.7c1.87-24.3.9-47-14-66.75-4.74-6.27-10.85-11.36-20-13.37C871.73,406.88,883.58,432.55,892.42,460.7Zm-5.89,5.77c-.22-.48-.42-1-.65-1.44-12.41-26-24.83-52-38.38-80.44-1,14.28.22,25.39,3.3,36.78,5.29,19.57,15.71,34.75,32.93,45.29C884.38,467.06,885.58,466.55,886.53,466.47Zm6.87-264.29c-5.54-9.22-13-19.51-21.57-22.05-13.59-4-27.12-11.84-42.39-9.07-2.89.52-6.39-1.35-8.51,2.17,2.63,1.24,5.15,3,7.92,3.64C851.35,182.27,871.4,193.64,893.4,202.18Zm-72.23-16c31,23.48,50.89,33.15,72.05,25.86C870.23,203.7,848,192.32,821.17,186.23ZM829,958.48c6.85-21.11-3-50.08-21.65-64-2.26-1.7-2.11-1.26-2.32.83-.78,7.58-1.6,15.16-2,18.93,0,20.13,3,30.17,11.43,45.63,1.56,2.85,2.94,6.22,6.06,5.86A9.86,9.86,0,0,0,829,958.48ZM798.31,374.55c1.21-3.12,5.36-8.62,1.52-10.9-3.24-1.93-6.12,3.89-8.53,6.62-11.57,13.12-22.74,26.6-34.16,40.08,3.94,2,4.55-2.64,7.07-3.42C780.89,401.77,792.14,390.47,798.31,374.55Zm-7.68-15.14c-14.5-.47-42.45,30.93-38.59,43.66C764.9,388.51,777.67,374.07,790.63,359.41ZM679.21,466.91c17.62,23,57.78,37.69,73.44,28.79Zm44.91,437.44c5-6.71,12-15.85,9.27-22.5-1.88-4.65-11.95,3-18.37,5.21-12.23,4.15-22.88,10.64-28.66,22.57-2.56,5.28-7.85,12.85,4,15.82C703.51,921.41,715.73,915.59,724.12,904.35ZM677.66,457.64a426.42,426.42,0,0,1,75.12,29.92c-15.06-25.46-45.15-40-74.52-32.49a20.48,20.48,0,0,0-2.09.81C676.66,456.49,677,457.46,677.66,457.64Zm28.12-236.8a16,16,0,0,0,1-3.05c-.87-.09-2-.59-2.58-.22-8.84,5.81-18.93,9.54-27.76,14.84-12.09,7.27-25,12.73-38.71,20.41,10.39,0,19.54,1.77,27.66-.36C683,247.83,696.55,236.78,705.78,220.84Zm-4.9,390.23c1.29-6.5-3-12.44-3.84-19-2.84-23.15-12.06-42.83-30.26-57.86-1.54-1.27-3.16-4.43-5-2.64-1.25,1.18-1.08,4.92-.29,7,13,35,21.43,71.31,29.66,107.65a6.45,6.45,0,0,0,1.06,1.78c.46-.45,1.28-.86,1.33-1.36C694.86,634.75,701.53,623.94,700.88,611.07Zm-14,205c9.93-4.57,14.29-14.24,18-24q-6.92-.75-13.82-1.52a4.11,4.11,0,0,1-.87-.38c-11.69-.27-29.73,8.3-37.83,18.14-1.93,2.36-2,4.57.42,7.23C664,827.82,675.73,821.22,686.85,816.1ZM638.2,330.6c27.32,26.88,49.14,34.87,66.91,24.89-11-4.22-21.75-8.42-32.54-12.44S650.67,335.11,638.2,330.6Zm56.86-116.76A64.53,64.53,0,0,0,665,217.17c-13,4.42-24.38,11.62-32.92,22.63-.85,1.09-.52,3.08-.73,4.65a21.54,21.54,0,0,0,3.25-1C654,234,673.37,224.47,695.06,213.84ZM643.55,322.35c22.72,8.45,44.33,16.32,67.82,28.34C691.39,330.28,673.59,313.25,643.55,322.35Zm41,332.16C668.06,617.75,661.6,577.9,648,540,628.68,569.15,653.31,646.27,684.55,654.51ZM646.86,885.66c.94-3.17,1.59-6.8-1.88-9.17A27.89,27.89,0,0,0,624.7,872a126,126,0,0,0-42.06,15.1c-1.85,1-5.29,3-5.14,3.31,1.09,2.69,3.85,2.64,6.34,2.52,15.78-.76,31.48,5,49.92-.45C636.15,890.36,644.47,893.7,646.86,885.66Zm-4.24,216.13c.71-8.41-5.15-13.53-13.48-15.12-24.66-4.69-44.53,4.67-62.59,21.7,19.68,6,38.51,12.72,58.81,6.58C632.83,1112.69,641.82,1111.24,642.62,1101.79ZM634.93,983.3c.82-8.43-14.81-15.64-25.65-13.35-13.67,2.88-26.54,7-38,15.11a23.84,23.84,0,0,0-2.14,1.9c.65.63,1.19,1.59,2,1.86,13.5,4.67,27.55,6.52,41.68,7.95C621.53,997.25,634.34,989.38,634.93,983.3Zm-2.45,342.92c.6-3.35-.24-8.25-2.43-10.59-10.48-11.2-23.38-10.15-36.49-5.5-15.88,5.65-29.5,15.07-42.13,26,22.33,9.21,44.89,14,68.49,4.83C627,1338.25,631.22,1333.19,632.48,1326.22Zm-1.26-562.81c4.22-6.43,3.75-14.83-4.14-15.74-12.44-1.42-24.67,2.08-36.43,8.05-9,4.56-13.91,12.67-21.11,18.87,12.13,1.48,24.3,0,36.17-2.17C614.51,770.8,625.2,772.6,631.22,763.41Zm-24.35,475.45c10.15-1.63,19.41-5.5,17.79-17.78-1.47-11.12-11.95-12.72-20.7-13.83-20.43-2.58-38.13,5.71-55.23,15.67-2.57,1.5-2.63,2.5-.12,4,15,9.09,31.18,13.48,47.59,12C600.56,1238.93,603.79,1239.35,606.87,1238.86ZM592.39,174c13.88,5.17,27.7,3.21,41.86,1.12-25-8.54-49.11-16.62-73.06-25.09-2.86-1-5.29-.81-8-.61.47,1.1.63,2.57,1.44,3.25A128.42,128.42,0,0,0,592.39,174Zm-32-33.68c26.37,7.15,50.73,18.53,76.45,29.51C624.72,148.27,581,131.73,560.35,140.31Zm41.16,333.06c-.68-2.51-1.3-4.78-1.92-7.05-.78.57-1.94,1-2.3,1.73q-14.12,29.82-28,59.72c-.77,1.66-.86,3.62-1.45,5.37-.72,2.12.54,2.52,3.18.47C590.66,518.33,597,496.36,601.51,473.37Zm-40.06,48c9.74-20.24,19.81-40.33,30.43-61.84-20.5,8.62-44.3,57-38.73,76.28.22.77,1.18,1.32,1.79,2a9.6,9.6,0,0,0,1.93-2.46C558.46,530.72,559.35,525.77,561.45,521.4ZM494.1,1446.48c5.28-23.19-.51-44.59-14.56-63.79-3.26-4.46-4.57-2.24-6.49,1.12-3.05,5.35-3,11.48-4.73,17-4.38,13.54-9.34,26.8-9.26,41.29-.43,18.8,9.19,28.94,22,22.65C488.25,1461.2,492.55,1453.32,494.1,1446.48ZM465.84,546.93c6.38.46,6.64.24,5.66-3A154.88,154.88,0,0,0,448.78,498c-5.23-7.31-11.74-14.87-21.3-14.41-6.23.3-6.74,7.63-6.46,12.56C420.61,514.94,448.16,545.67,465.84,546.93Zm-11.44,106c8.42,0,8.54-.05,7.68-1.8-8.14-16.64-17.91-32.08-33.38-42.95-4.55-3.18-9.73-7.45-15.63-4.09a11.56,11.56,0,0,0-5.86,13C411.5,634.38,436.16,652.91,454.4,652.94Zm4.66,106.46c-4.61-7.37-8.17-14.07-12.69-20-8.51-11.24-19.78-19.49-31.34-27.4-7.57-5.18-15.44-9.8-23.46-2.44-7.31,6.7-6.57,15.66-1.17,23.18C407.18,756.11,432.65,757.61,459.06,759.4ZM448.63,996.3a6.15,6.15,0,0,0-.84-1.54c-19.75-19.22-42.53-32-70.68-33.78-4.64-.29-9.05.65-9.64,5.15-.5,3.78,1.5,7.84,5,11,18,16.39,40.55,17.67,58.16,19.78,8.44,0,12.1,0,15.77,0A9.31,9.31,0,0,0,448.63,996.3Zm-8.75,128.33c1.18-.23,5.72-.39,3.75-3.58-2.23-3.6-5.29-7.26-8.89-9.34-16.47-9.49-32.42-20.37-51.48-24.1-5.09-1-11.49-3.16-15.79,2-3.47,4.14-3.06,9.47.5,13.34,14.18,15.41,32.34,22.43,53.8,24.22C427.24,1126.45,433.63,1125.88,439.88,1124.63Zm-3-245.44c4.63-2.54.88-4.62-1.06-6.82-6.42-7.3-12.25-15.17-19.14-22-9.85-9.73-20.88-18-34.57-21.51-4.44-1.45-6.73,1.57-8.11,4.41-2.24,4.65-.24,9.63,1.91,13.55,11.52,21,31.4,28.47,53.63,30.9C432.26,878,435,880.24,436.91,879.19Zm7.54-481.55c-4.22-32-8.12-64-37.22-76.12A383.28,383.28,0,0,0,444.45,397.64Zm-13.13,839.21a4.86,4.86,0,0,0-1.48-3.31c-2.06-1.8-4.58-3.09-6.61-4.91-15.53-13.9-33.75-21.54-50.66-23.27-9-.64-15,0-17.15,4.8-2.93,6.44,1.18,11.24,6.73,15.1,20.42,14.23,43.05,17.1,67,13.59C430,1238.72,431.32,1237.54,431.32,1236.85Zm1.95-840.14c-16-21.73-24.66-46.58-35.53-70.78C391.05,351.05,406.31,387.78,433.27,396.71Zm-21.85,939.93a5.78,5.78,0,0,0-1-1.79c-13-10.63-23.18-24.71-39.65-31-8.59-3.28-18.05-9.71-25.38-.93-8.23,9.85-1.66,19.44,5.77,27.21,10.47,10.93,24.69,8.5,37.81,8.82,5.77,0,11.54.18,17.29-.1C408,1338.74,409.71,1337.4,411.42,1336.64ZM324.58,148.21c24.52,16.1,67.49,21.21,84.51,9.19ZM376,465.56c.18-.57.59-1.18.51-1.71a114.1,114.1,0,0,0-19.75-47.71c-4.95-7.05-10.54-13.74-18.93-18-.18.12-1.06.53-1,.69a32.68,32.68,0,0,0,2,6.45c4.7,9.25,9.23,18.63,14.48,27.58,6.18,10.51,13,20.65,19.67,30.88C373.58,464.66,375,465,376,465.56ZM356.07,797.74c4.24-1.65,5.46-4.86,4.52-10.67-.13-.5.49-2.45-1.11-4.76C350.9,769.85,339.8,762,324.39,761c-1.66-.1-4.35-.62-4.76.09a6.34,6.34,0,0,0-.21,5.22c5,10.2,10.34,20.23,19.48,27.42C343.89,797.7,349.44,800.32,356.07,797.74Zm56-649.65c-14.65-13.67-57.95-29.16-97.26-9C349,138.51,380.22,142.88,412.11,148.09ZM363.59,469.16c-11.9-23-28.73-42.18-35.85-66.9C324.53,423.83,334.24,451.77,363.59,469.16Zm-33,417.3c5.64.18,18.88,1.1,13.23-11.7-5.5-12.47-16.88-19-30.83-19.87-9.19-.73-16.64,3.93-24.47,7.24-5.36,2.27-5.7,5.24-.77,8.45C300.8,879.13,314.87,886,330.55,886.46Zm6.6,102.6c2.43-4.46.88-9.43-2.41-13.56-10.59-13.3-26.21-14-40.14-16.69-6.67.86-12.43,1.2-18,2.46-3.57.82-6.84,3-10.24,4.55,2.57,2,5,4.32,7.72,6.09,15.55,10,32.78,16.06,50.46,20.85C329,994,334.66,993.63,337.15,989.06Zm-49.92-758c16.38-2.64,32.77-5.75,49.67-5-8-3.29-15-7.75-23.86-9.52-29-5.75-54.55-1-76.31,19.78-1.28,1.23-4.63,2.25-3,4.1,1,1.15,4.7.29,7.09-.18C256.33,237.26,271.68,233.6,287.23,231.09ZM328,584.75c-.95-5.21,3.38-9.21,2.93-14.09-1.06-11.51-4.46-22.36-7.57-33.47-6.23-22.17-18.2-38.86-38.56-49.38-3.21-1.66-7.15-3.2-10.86-.52-.14.1.38,1.16.64,1.76,3.69,8.54,8.94,16.27,13.19,24.54C300.25,537.8,314.49,561.09,328,584.75Zm-5.62,516.74c4.4-4.37,3.32-11.08-1.07-16-12.2-13.6-28.84-16.49-45.64-19-6.24.93-12.26,1.77-18.25,2.76a9.93,9.93,0,0,0-2.75,1.47,11.58,11.58,0,0,0,2,2.45c16.37,11.63,32.38,24.07,52.21,29.36C313.19,1103.69,319.93,1104,322.41,1101.49Zm1.25-506.57c-20.37-31.26-35.88-64.1-53.72-98.59C266.93,527.17,282.77,574.16,323.66,594.92ZM335.59,237c-35.18.63-68,9.54-101.6,14.87C266.83,262.19,313.63,258.57,335.59,237ZM268.14,646.16C272.8,624,260,598.38,238.2,587,248.66,607.11,255.56,627.77,268.14,646.16Zm-5.92-473.75c3-18.93-10.42-50.34-33-54.95Q245.78,145.12,262.22,172.41Zm-1.3,481.8c-.61-1.82-.87-3.89-1.91-5.42A212.36,212.36,0,0,1,234.75,602c-.65-1.81-2.41-3.22-3.66-4.82l-2.89,4.72c1.08,6.06,2,11,2.86,16,2.64,15.05,10,27,23.41,34.69C256.32,653.65,258.76,653.7,260.92,654.21ZM221.64,123.4c-2.13,25.23,14,57.72,35.92,57Zm33.3,219.49c.84-.86,1-2.39,1.44-3.61-1.48,0-3.16-.56-4.43-.06-21.7,8.56-43.59,16.71-64.88,26.19-7.33,3.27-16.7,2.93-22.76,11.65,14.49-2.15,27.66-4.85,41-5.91C226.47,369.45,241.12,357.08,254.94,342.89Zm-1.72-13.3c-39.36-5.12-69,8.8-97.46,37.42C189.88,353.05,219.68,339.72,253.22,329.59ZM233.9,428.22c-30-6.75-68.11,10.6-85.34,37.36Zm-30.72,740.45c11.74-14.39,10.19-31.06,9.51-47.54-.17-4.32-3.24-8.52-5-12.77-1.53,1.14-3.57,2-4.52,3.47A119.93,119.93,0,0,0,185.08,1164c0,4.62,0,9.5,4.49,10.67C195.05,1176.12,199.18,1173.57,203.18,1168.67Zm-1.34-287.26c-1.41-.78-2.74-2-4.25-2.27-13.76-2.62-27.41-6.19-42.22-5.91-7.64.94-16,2.25-22.37,7.49s-5.43,12.38,1.68,15.79c19.54,9.35,49.38,3.79,64.86-11.15C200.59,884.34,201.08,882.74,201.84,881.41Zm-15.77-116.7c3.85-15.51,5-30.65-.87-45.81a13.4,13.4,0,0,0-1.81-2.63,12.21,12.21,0,0,0-1.37,3c-3.49,20.34-3.63,40.93-4.35,62.23C180.82,775.47,184.52,770.94,186.07,764.71ZM182.39,996.6c.65-.66,3.62-2-.41-3.9-17-7.86-34.17-7.9-52.23-4-10,2.15-18.84,6.13-18,16s11.94,12.1,19.85,14.73C151.9,1018.52,168.55,1010.56,182.39,996.6ZM171.66,780.89c-3.45-24.95,1.63-47.37,1.25-71.11C160.51,727.05,159.36,764.9,171.66,780.89Zm-1-211a10.1,10.1,0,0,0-2.6-.68c-29.79.26-50.73,16.44-68.45,38.26-.82,1-.43,3-.71,5.46,2.77-2.46,4.46-4.6,6.66-5.82,20.7-11.49,41.49-22.8,62.21-34.24C169,572.19,169.74,570.86,170.69,569.85Zm-20.08-93.46c41.52,3.85,71.93-9.18,84.71-38.13Zm-6.24-253.63c3.86-11,10.19-21.33,8.51-33.67-.27-2-1.28-3.82-1.94-5.73-.64,1.37-1.27,2.73-1.9,4.1-3,6.51-6.28,12.91-8.95,19.55-5.5,13.65-10.68,27.44-16,41.17C132.8,240.64,140.7,233.21,144.37,222.76Zm7.88-118c2.92-1.82.27-2.82-1-3.12-6.67-1.59-13.36-4-20.09-4.13-17.07-.4-33,3.19-45,17.14,4.9-.7,9.92-1.28,14.89-2.15,16-2.77,32-5.67,48-8.43C150.07,103.91,151.59,105.18,152.25,104.77ZM175.14,579l-61,32.89C132,616.17,155.79,603.14,175.14,579ZM137.77,188.47c.47-1.17,2-2.22.32-3.13-.61-.32-2.22.82-3.13,1.59-8.67,7.27-14.42,16.65-19.6,26.56-6.44,12.34-5,24.68-2.44,38.35C121.56,229.74,129.61,209.08,137.77,188.47Zm21.84-77.58-71.5,11.4C106.77,133.16,137.48,134.25,159.61,110.89ZM56,1618.34V61.66l-48-48V1666.34Z"/></svg>