<svg id="Card" xmlns="http://www.w3.org/2000/svg" viewBox="0 0 1024 1680"><defs><style>.cls-1{fill:#f2f0ed;}.cls-2{fill:#8c1707;}.cls-3{fill:#16592d;}.cls-4{fill:#38408c;}</style></defs><rect class="cls-1" x="14.5" y="14.5" width="995" height="1651"/><polygon class="cls-2" points="966 1619.17 966 60.83 1018 8.83 1018 1671.17 966 1619.17"/><polygon class="cls-2" points="60.83 58 8.83 6 1015.17 6 963.17 58 60.83 58"/><polygon class="cls-2" points="8.83 1674 60.83 1622 963.17 1622 1015.17 1674 8.83 1674"/><path class="cls-3" d="M894,1229.07c-.25-.5-.57-1-.88-1.55a12.34,12.34,0,0,1-1.93-4.47c-2.52-17-9.53-32.73-16.31-48-3.1-7-6.31-14.19-9.08-21.49-11.3-29.83-28.19-56.91-43.14-79.95-8.13-12.54-18.1-24.28-27.74-35.62-4.38-5.16-8.91-10.49-13.23-15.84-.83-1-1.57-2.12-2.16-3l1.18-.93-1.24.84c-.22-.32-.41-.61-.59-.86l-1.77-2.5,3-.62a26.76,26.76,0,0,1,5.46-.55c5.71,0,11,1.73,16.19,3.41,4.29,1.4,8.7,2.84,13.15,3.17s6.27,4,7.5,6.6a13.6,13.6,0,0,0,1.74,3c3,3.44,5.9,7,8.73,10.43,11.42,13.85,23.22,28.18,39.79,37a7.63,7.63,0,0,0,2.55,1,14.66,14.66,0,0,0-2-2.53c-12.3-12.71-24.44-25.14-37.3-38.31l-14.56-14.92,7.35,2.17c15.43,4.56,31.76,10.15,46.67,20.16a143.82,143.82,0,0,0,12.79,7.39l.19.11h.17a3.26,3.26,0,0,0-.19-.76c-14.3-13.24-30-22.5-46.55-27.46-4.47-1.34-9-2.89-13.4-4.39-12.39-4.24-25.2-8.62-37.57-8.62H790c-18.79,0-29.87-10.61-40.6-20.87-5.73-5.49-11.66-11.16-18.6-14.87-5.8-3.08-11-7.32-16-11.42-2.37-1.94-4.82-3.93-7.27-5.76a10.73,10.73,0,0,0-2-1c-.44-.19-.84-.36-1.23-.55l-2.6-1.27,2.11-2c.44-.42.9-1,1.35-1.48,1.18-1.37,2.52-2.92,4.4-3.47,4-1.17,8.09-2.46,12-3.7l.16,0c12.19-3.85,24.79-7.83,37.56-9.07.3,0,.62,0,.94,0,4.22,0,8.93,2.59,13.91,5.33a65.43,65.43,0,0,0,9.2,4.46l6.4,2.26.41.15c16.83,6,34.22,12.16,52.56,12.62a2.5,2.5,0,0,0,.78-.37,3.8,3.8,0,0,0-2.81-2.06c-17-2.67-33.47-8.27-49.39-13.68-7.53-2.57-15.32-5.21-23.12-7.54l-1.16-.35.25-3.37,1.19-.18c17.72-2.59,36.71-5,55.59-5,1.83,0,3.67,0,5.47.07,1.31,0,2.63.05,3.94.05,5.54,0,11.17-.26,16.61-.51l4.56-.2a6.53,6.53,0,0,0-2.39-1.1,205.15,205.15,0,0,0-30.21-2.12,285.06,285.06,0,0,0-32.84,2c-20,2.28-37.94,4.62-55.38,10.22-2.76.88-5.58,1.66-8.31,2.41-8.13,2.24-16.53,4.55-23.36,9.72a10.12,10.12,0,0,1-6.12,2.3c-3.33,0-5.91-2-8.18-3.75a21.21,21.21,0,0,0-3-2c-3.27-1.66-6.43-3.5-9.49-5.28a117.48,117.48,0,0,0-16-8.22,5.21,5.21,0,0,1-3.48-3.48c-.84-3.13,1.84-6.48,3.61-8.69.31-.39.58-.73.79-1,6.14-8.45,13-17.24,21.43-24.34,1.57-1.32,3.72-1.9,7-1.9,1.28,0,2.62.08,3.92.17s2.58.16,3.82.16a19.78,19.78,0,0,0,2.18-.11,246.57,246.57,0,0,0,55.89-13.62,8.56,8.56,0,0,0-3.13-.58,21.39,21.39,0,0,0-6.87,1.65,36,36,0,0,1-5.3,1.58c-11,2.14-22.09,4.38-33.78,6.76l-.7.14L690,892l-5,1,3-4.16c9.89-13.61,22-22.21,33.75-30.53,2.9-2.06,5.9-4.19,8.79-6.34a17.61,17.61,0,0,1,2.85-1.61c.94-.46,2.65-1.29,2.79-1.78,0-.07,0-.35-.37-.89-.08-.12-.24-.37-1-.37s-2.86.34-6.71,2.56c-23.93,13.79-42.09,33.33-61.32,54l-4.56,4.9-.65-4c-1.71-10.42.58-20.56,2.8-30.35.5-2.18,1-4.43,1.46-6.64a186.08,186.08,0,0,1,5.84-20.37c1.14-3.47,2.32-7.06,3.36-10.61a3.31,3.31,0,0,0-.34-.87,2.59,2.59,0,0,0-.47,0c-1.7,0-2.72,2.24-2.9,2.69-5.64,13.55-8.68,28.16-11.62,42.29,0,0-.71,3.43-1,5-1,4.71-.9,9.66-.82,14.44.13,7.24.26,14.73-3.1,22.14-.51,1.12-2,4.53-5.21,4.53-2.05,0-3.56-1.47-4.55-2.44-.18-.17-.34-.35-.47-.45-11.79-5.84-24.48-8.8-37.53-11.54a5.82,5.82,0,0,1-4-2.74c-1.86-3.22-.37-7.85.52-10.61l.09-.27c7-22,14.71-43.26,31-61.64C654.31,815,678.74,803.17,709.24,801c1.85-.13,3.68-.2,5.43-.2,12.47,0,23.14,3.35,32.64,10.25,8.27,6,11.36,14.46,14.35,22.64.84,2.29,1.71,4.65,2.66,6.86,4.75,11,20.17,23.86,33.7,24.6,43.77,2.41,62.48,14.58,75,26.16a29.35,29.35,0,0,1,10,22.18c.09,4.36-.06,8.77-.2,13-.41,11.86-.83,24.13,4.11,35.26,3.61,8.12,8,16.09,12.25,23.81,3,5.48,6.12,11.12,8.94,16.79,1.27,2.55,2.66,5.13,4,7.62,6,11.1,12.21,22.58,10.54,36.29a160.58,160.58,0,0,1-8.87,35.54c-6.15,16.9-7.63,35.33-4.4,54.78,4,23.91,7.07,49.39-2.11,75l-.47,1.33c-1.54,4.32-3,8.4-5.71,12.19a28.74,28.74,0,0,1-2.66,3.08c-.4.43-.8.85-1.19,1.28l-2,2.2Z"/><path class="cls-3" d="M876.75,1235.39c-13.33,0-25.2-5.31-36.69-10.45-2.11-.94-4.23-1.89-6.37-2.81a46.06,46.06,0,0,0-18.27-3.92,46.71,46.71,0,0,0-15.84,2.88c-18.23,6.6-37.69,13-57.48,13-17.91,0-33.89-5.34-48.84-16.35a48.32,48.32,0,0,0-28.88-9.26,56.59,56.59,0,0,0-10,.92,80.38,80.38,0,0,1-14.25,1.31c-23.86,0-45.4-11.35-65.84-34.71-4.54-5.17-4.1-12.16,1.18-18.71,11.74-14.53,11.34-33.31,11-48.4,0-1.47-.08-2.93-.13-4.38-.33-10.12-.64-19.68,4.74-29.26a73.17,73.17,0,0,1,21.35-24.08c17.07-12,25.27-39.36,17.54-58.45-3.38-8.34-6.88-17-13.59-23.88-4.51-4.63-8.6-9.67-13.34-15.5-2.21-2.72-4.7-5.79-7.5-9.14l-.75-.89,1.93-2.68,12.84,5.07c7.69,3,14.35,5.67,21.09,8.3,1.1.43,2.29.77,3.43,1.11a26.63,26.63,0,0,1,6.29,2.45c.7.43,1.42.82,2.13,1.2,4.76,2.58,10.13,5.48,7,15.81-4,13-4.34,27.77-4.24,39.18l0,5.19c.16,20,.32,40.69,2.59,61.13.7,6.27,1.64,12.69,2.55,18.9,1.15,7.79,2.32,15.76,3.06,23.64a172.52,172.52,0,0,0,13.15,52.52,6.27,6.27,0,0,0,1.62,2.42c-.1-.29-.23-.62-.32-.87a13.41,13.41,0,0,1-.59-1.79c-1.16-5.52-2.39-11.06-3.59-16.41-2.92-13.07-5.94-26.56-7.9-40-2.11-14.42-3.31-28.76-4.58-44-.56-6.71-1.14-13.65-1.81-20.73l-.12-1.23,3.3-1,.58,1.09c9.4,17.76,16,35.73,22.49,53.11,1.54,4.16,3.45,9.33,5.32,14.22.57,1.48,2.06,2.9,3.59,4.26l-.36-1c-.22-.58-.46-1.22-.66-1.91a325.88,325.88,0,0,0-30.38-72.14c-7.17-12.48-5.56-26.42-4-39.91.46-4,.94-8.19,1.16-12.19.38-6.88.89-13.64,1.44-20.8.23-3.06.47-6.16.69-9.3l.24-3.27,2.8,1.7c4.88,3,9.86,6.06,14.68,9.06l.2.12c11.55,7.18,23.48,14.59,35.59,21.27,15.47,8.51,13.95,21.22,10.9,31.35-5.82,19.24-4.8,39.46-3.81,59l.17,3.35c1.63,32.55,5.94,58.63,13.57,82.09.32,1,.53,2,.74,3a12.44,12.44,0,0,0,1.36,4.14,20.05,20.05,0,0,1,1.86,3.74c.89,2.17,1.56,3.66,2.86,4.41,0-.63,0-1.26,0-1.87.1-3,.19-6.12-.75-8.52-5.78-14.68-8.25-30.17-10.65-45.15-1-6.13-2-12.4-3.19-18.5a29.22,29.22,0,0,1,.65-15.35l1.13-3.42,2.31,2.77c14.14,17,23.43,36.81,32.41,56l.3.65,2.72,5.79c.19.41.39.85.58,1.3.31.74,1.21,2.83,1.68,2.95a12.11,12.11,0,0,0,0-6.46q-1.14-2.78-2.26-5.55l-.3-.73c-7.78-19.16-15.82-39-31-53.23-13.22-12.46-11.61-26.18-10.05-39.45.63-5.41,1.29-11,.84-16.29s.65-10.85,1.74-16.14c.45-2.23.91-4.47,1.24-6.63l.06-.42c.32-2.18.65-4.44,2.5-5a5.76,5.76,0,0,1,1.8-.26,7.62,7.62,0,0,1,4.47,1.41c11.83,9.16,23.06,19.35,33.92,29.2,8.18,7.42,16.63,15.08,25.22,22.2,11.8,9.78,13,21.23,14.12,32.31a99.55,99.55,0,0,0,1.68,11.68l2.16,9.43.23,1c2.42,10.55,4.93,21.47,7.23,32.3.4,1.87.77,3.75,1.15,5.63,2.16,10.76,4.39,21.87,10.66,31.45a16.25,16.25,0,0,1,1.31,2.6c.81,1.91,1.1,2.25,1.5,2.25h.14c.2-1.47.17-4.91-.64-6.43-5.29-9.93-7.46-20.74-9.56-31.19-1.09-5.43-2.21-11-3.76-16.42l-.71-2.45c-4-13.85-8.15-28.16-7.76-43.2,0-.47-.05-1.22-.11-1.87-.15-1.83-.3-3.53,1.57-3.93a4.58,4.58,0,0,1,1-.11c2.51,0,3.11,2.3,3.3,3,0,.13.08.29.11.4,7.87,7.4,13.86,16.27,19.66,24.85,2.14,3.17,4.35,6.45,6.62,9.59,14.12,19.54,24.54,40.9,33.7,61.08,3.93,8.68,7.34,17.73,10.63,26.48,1.63,4.34,3.29,8.76,5,13.07.53,1.34,1.12,3.32.15,4.94s-3,2-5.13,2.23l-.41,0A52.39,52.39,0,0,1,876.75,1235.39Z"/><path class="cls-4" d="M833.34,722.34a117.39,117.39,0,0,1-33.69-4.83l-3.27-1,2.44-2.38c2.28-2.23,4.63-4.6,6.7-6.7,15.45-15.63,30-30.39,54.6-30.39H861c10.38.16,19.19,4.88,23,12.31,3.06,6,2.41,12.82-1.77,18.85-5.89,8.52-16.84,10.81-27.55,12.42A142.47,142.47,0,0,1,833.34,722.34Z"/><path class="cls-3" d="M832.92,1107.83c-11.34-14.83-25.06-30-41.95-46.47a655,655,0,0,0-61.06-53,564.8,564.8,0,0,0-60.24-39.85c-21-12-45.74-25.23-73.13-29.68a35.7,35.7,0,0,1-6.87-2.07c-1-.37-1.95-.74-2.93-1.06l-2.66-.88,1.7-2.23a30.44,30.44,0,0,0,2.59-4.4c1.62-3.11,3.44-6.63,7.3-8.92a26.3,26.3,0,0,1,13.74-3.94c8,0,15.11,3.6,22,7.08,2.41,1.22,4.69,2.37,7,3.36a406.52,406.52,0,0,1,91.31,54.16c21.11,16.67,43.11,35.36,60.9,58.95,1.33,1.76,2.65,3.53,4,5.3,6.81,9.09,13.86,18.49,21.42,27.14,5.43,6.2,9,13.4,12.5,20.35a128.69,128.69,0,0,0,7.64,13.84l.8,1.21L833.8,1109Z"/><path class="cls-4" d="M779.61,599.41c-8.56-20.59-9.35-41-2.35-60.62,4.64-13,12.19-19.36,23.75-19.95h.51a6.9,6.9,0,0,1,7.26,6.55c1.2,11.41-1.43,21.88-4.23,33l-.3,1.22A94.66,94.66,0,0,1,783,600l-2.12,2.41Z"/><path class="cls-4" d="M721.21,692.45c-3.56,0-6.18-2.27-8.5-4.27-.57-.49-1.13-1-1.7-1.42-17.84-14.1-26.78-28.14-29-45.51-.57-4.46-2.31-18,7.8-21.47a13.52,13.52,0,0,1,4.4-.75c8.72,0,14.89,8.7,17.8,13.88,7.55,13.53,10.18,28.93,12.71,43.83l.82,4.78,0,.26c-.18,1-.33,2.25-.48,3.43-.59,4.66-.89,7-3,7.2A6.85,6.85,0,0,1,721.21,692.45Z"/><path class="cls-4" d="M596.64,521.58c-5,0-10.48,0-15.92-.05A6.91,6.91,0,0,1,576.3,520c-1.42-1.38-.38-3.84.36-5.19,9.26-16.88,36.89-32.27,58-32.27a37.29,37.29,0,0,1,7.67.76c3.33.71,11.2,3.23,12.41,11.24.77,5.19-3.1,8-6.21,10.24-.57.41-1.13.81-1.67,1.23-8.45,6.66-18.09,9.53-29.25,12.85-2.8.83-5.67,1.68-8.62,2.63l-.22.07-.31,0H596.64Z"/><path class="cls-4" d="M559.67,404.7c.14-.34.27-.69.41-1a23.3,23.3,0,0,1,1.24-2.86c9.44-17.83,19.22-36.27,41.2-42.47,1.1-.32,2.24-.7,3.44-1.11,3.25-1.11,6.6-2.26,10.17-2.26a13.9,13.9,0,0,1,9.86,4,30.07,30.07,0,0,1,2.08,2.19c.3.35.6.68.89,1l.83.88-.4,1.14c-3.92,11.16-10.4,19-20.4,24.76-1.46.83-2.92,1.68-4.37,2.52-12,7-24.36,14.18-39,15.85-1,.11-2,.13-2.84.15l-1.13,0-3.11.12Z"/><path class="cls-3" d="M262.53,1309a3.39,3.39,0,0,1-2.67-1.15c-1.26-1.47-.94-3.64-.72-5.07,1-6.28,1.81-12.62,2.63-18.75l0-.13c2-15,4.07-30.48,7.78-45.35,5.29-21.25,11.85-45.85,22.62-69,3.82-8.23,7.67-16.62,11.38-24.74l.09-.2c3.89-8.49,7.9-17.26,11.91-25.86a14,14,0,0,1,2.77-3.66c.41-.42.81-.84,1.18-1.28l1.62-1.93,1.51,2c.36.48.79,1,1.22,1.45a12.91,12.91,0,0,1,2.83,4.26c1.63,4.83,3.18,9.77,4.67,14.54,1.76,5.66,3.58,11.49,5.55,17.15,3.45,9.92,0,18.3-3.27,26.4a68.92,68.92,0,0,0-3.78,11c-1.56,7.18-3.63,14.34-5.62,21.26-1.7,5.88-3.45,11.94-4.87,18-.23,1,.78,2.86,1.58,4.39l.45.84c1-.89,1.63-2.25,1.74-4.74.47-9.81,3.65-18.93,6.72-27.75,1.41-4.07,2.88-8.28,4-12.47a58.72,58.72,0,0,0,1.31-6.9c.19-1.25.38-2.55.62-3.91l.84-4.85,2.78,4.06c4.93,7.21,5.54,15,6.13,22.49a86,86,0,0,0,1.08,9.41c1.38,7.11,1.66,14.47,1.93,21.58.08,2.06.16,4.12.27,6.17a3.83,3.83,0,0,0,.07.64c.2,0,.52.06.79.07l.84.07a3.1,3.1,0,0,0,.42,0h.06c0-.24,0-.56,0-.81v-.67c.27-17.55-1.28-35.91-5-59.54-3.84-24.24-10.06-45.76-19-65.76-4.56-10.22.49-16.66,4.94-22.35a41.93,41.93,0,0,0,4-5.75c10.35-19.43,23.57-39.7,41.61-63.78,2.25-3,4.67-6,7.19-8.81,2.21-2.46,4.43-3.71,6.6-3.71,4.42,0,6.75,4.83,8,7.42.18.4.34.72.47,1,9.85,17.53,21.13,38,30.44,59.21,3.41,7.75.52,15.68-2.27,23.35-.86,2.37-1.68,4.61-2.29,6.82-5,17.75-9.73,36.71-8.69,56.13a4,4,0,0,0,.84,1.84H418c.78,0,1.06-1.39,1.12-1.82.51-3.25,1-6.51,1.49-9.76l.09-.58c1.36-9,2.77-18.36,4.51-27.51,1.28-6.76,3-13.51,4.63-20l.07-.27c.71-2.83,1.43-5.66,2.1-8.49l1-4.13,2.55,3.4c6.21,8.27,7.7,18,9.14,27.44.59,3.87,1.2,7.86,2.13,11.67a154.13,154.13,0,0,1,4.3,44.14,7.43,7.43,0,0,0,1.38,1.87,5.3,5.3,0,0,0,1.24-1.92c3.1-14.1.52-28.3-2-42-.4-2.19-.79-4.35-1.16-6.51-2-11.53-4.53-24.9-9.33-37.53-4.11-10.83-9.73-25.09-16.79-39.26-6.47-13-13.39-25.41-21.16-38.06a5.52,5.52,0,0,1-.38-.77l0,0c-4.87-3.22-7.38-6.43-7.67-9.8-.42-4.68,3.52-8.37,7-11.62a42.48,42.48,0,0,0,3.79-3.86,262.54,262.54,0,0,1,18.36-20.27c4.15-4.16,8.12-6.17,12.16-6.17a12.93,12.93,0,0,1,6.78,2c3.57,2.17,7.24,4.33,10.78,6.42l.12.07c14.2,8.37,28.88,17,41.39,28.33,3,2.74,3.59,7.34,4.18,12.21a44,44,0,0,0,1.1,6.47l1.62,5.84c3.86,13.89,7.83,28.22,14.79,41.16a88.81,88.81,0,0,1,7.23,17.22l.16.54c.36,1.27,1.33,4.62,2.09,4.91a.88.88,0,0,0,.23-.08c1.32-.59,1.23-3.61-.26-7.88-4.93-14.11-10.2-28.29-15.29-42l-.17-.47q-3.94-10.63-7.86-21.29a7.33,7.33,0,0,1-.05-3.83,10.46,10.46,0,0,0,.17-1.18l.23-3.22,2.79,1.64c.34.2.7.4,1.06.59a15.21,15.21,0,0,1,2.78,1.77c13.55,11.6,25.62,25,37.3,37.88,4.47,5,9.09,10.07,13.79,15.07a16.08,16.08,0,0,1,1.31,1.69c.37.53,1.06,1.51,1.35,1.56h.07a10.6,10.6,0,0,0-1.26-3.91c-13.74-20-31.19-39.09-53.33-58.41A350.74,350.74,0,0,0,476,976.84a38.45,38.45,0,0,0-3.82-2.15c-.92-.47-1.95-1-3.14-1.64l-6.53-3.56,7.44-.2c4.77-.13,10.39-.26,15.87-.26,14.72,0,25.95,1,36.42,3.13l13.14,2.74c9.52,2,19.37,4,29.16,6a1.72,1.72,0,0,0,.66-.22l-.13-.08c-10.79-7.09-23.46-9.13-35.71-11.11-2.33-.37-4.66-.74-7-1.15a208.74,208.74,0,0,0-36.18-3.47,147.09,147.09,0,0,0-20.63,1.42,16.9,16.9,0,0,1-2.47.18c-5.19,0-9.63-2.28-13.94-4.49a39.86,39.86,0,0,0-8.73-3.65,2.06,2.06,0,0,1-1.51-1.46c-.12-.39-.6-3.31.79-4.68,3.54-3.55,7.05-7.26,10.46-10.86,8.63-9.12,17.55-18.56,27.67-26.2,5-3.75,11.21-5.57,19.11-5.57a110.62,110.62,0,0,1,16.52,1.67l3.76.56c13,1.85,29.8,5.29,44.67,15.53,14,9.65,30,21.27,43,37.1,1.21,1.49,2.45,3,3.68,4.41,6.86,8.13,14,16.54,16.85,27.54,5.23,19.85.09,35.43-16.64,50.52l-1.62,1.45c-13.45,12.09-27.36,24.59-28,44.26-.17,5.13-.1,10.33,0,15.37.15,11.12.3,22.61-2.07,34-3.52,16.91-26.85,38.68-42.37,43.22-11.23,3.28-22.89,5.07-34.17,6.8-15.3,2.36-31.12,4.79-45.67,11-13.65,5.78-25.43,15.79-38.18,32.45-11.08,14.45-25.74,29.81-50.55,34.12-3.37.59-6.86,1.13-9.94,1.61-15.64,2.43-31.8,4.94-45.65,13.59-3.3,2.06-6.54,4.43-9.66,6.73a116.59,116.59,0,0,1-13.72,9.11c-5.85,3.14-12.37,5.07-18.67,6.93l-.2.06-4,1.18A5.92,5.92,0,0,1,262.53,1309Z"/><path class="cls-4" d="M531.29,834.8c-2.35,0-5.31-.93-9.29-2.94-17-8.58-28.26-22.84-37.53-35.54-4.21-5.79-8-8.37-12.39-8.37-3.32,0-7.25,1.39-13.16,4.65-13.64,7.53-29.43,12.49-48.28,15.16a22.79,22.79,0,0,1-3.35.23,46.93,46.93,0,0,1-8.32-1,41.65,41.65,0,0,0-7.2-.86,16.2,16.2,0,0,0-4.09.5,5.27,5.27,0,0,1-1.36.2,3.21,3.21,0,0,1-2.46-1c-1.13-1.25-.95-3-.81-4.41a8.52,8.52,0,0,0,.07-1,155.75,155.75,0,0,1,15.36-74.18c1-2.15,2.28-6.18-.94-9.07-13.44-12-24.06-27.07-33.43-47.34a10.56,10.56,0,0,1-.45-5.71c.23-1.83,2.76-2.8,4-2.8a2.64,2.64,0,0,1,1.1.23,22,22,0,0,0,9.59,1.88c2.49,0,5.08-.25,7.58-.5s5.27-.52,7.92-.52c.5,0,1,0,1.51,0,17.94.74,34.71,6.06,50.36,11.45a19.27,19.27,0,0,0,6.13,1.19c6,0,8.4-4.67,11.18-10.07l1-1.9a254,254,0,0,1,44.28-59.49,22.86,22.86,0,0,1,3.8-2.9c.58-.37,1.16-.75,1.74-1.17l2-1.41,1,2.2c11.62,25.21,17.72,53.44,18.15,83.92.14,9.31,6.51,10.35,13.89,11.56,1.83.3,3.53.58,5.17,1,15.66,4,32.13,8.81,46.27,19.62a51.34,51.34,0,0,0,9,5.07c1.66.79,3.37,1.61,5.14,2.54l2.59,1.38-2.23,1.91A144.12,144.12,0,0,1,554,758.71c-12.15,2.9-12.52,5.75-12.29,18.71,0,2.09.1,4.19.16,6.31.3,10.58.61,21.52-1.81,32.2l-.27,1.12a21.46,21.46,0,0,0-.79,4.65C539,825.62,538.85,834.8,531.29,834.8ZM426.82,732.6c1.68,2,4.16,2.16,7,2.4.73.06,1.48.12,2.22.21,12,1.42,23.66,2.91,35.41,5.34,11.08,2.3,20.94,7.65,30.47,12.83,3.13,1.7,6.34,3.45,9.54,5a8.11,8.11,0,0,0,3.28.61,5.25,5.25,0,0,0,2-.3.58.58,0,0,0,.11-.23c-.09-.65-1.83-1.89-2.57-2.42l-.5-.36c-2.41-1.76-5-3.43-7.42-5.05-3.07-2-6.21-4.07-9.17-6.34-.08,0-.59-.18-.9-.26-1.37-.38-3.24-.9-3.83-2.69a4,4,0,0,1,1-3.77c4.49-5.74,9.25-11.39,13.85-16.85,3.06-3.64,6.19-7.35,9.25-11.1,1.45-1.79.53-3.32-.5-4.3l-.3-.25c-.16.19-.35.46-.5.66a8.45,8.45,0,0,1-1.13,1.32c-10.35,9.35-18.2,18.71-24,28.61a4.77,4.77,0,0,1-4.15,2.76,7.42,7.42,0,0,1-3.47-1.12,5.38,5.38,0,0,0-1.67-.68l-.64.25-1.68.7-.49-2.38a12,12,0,0,0-.37-1.25,6.62,6.62,0,0,1-.39-4.25c2.38-6.91,4.85-13.89,7.24-20.63,2.77-7.81,5.63-15.88,8.38-24,1-3,1-4.82-.1-6a5.11,5.11,0,0,0-1.86.87c-5.83,10.79-9.76,22.64-13.56,34.1l-.06.16c-.93,2.81-1.86,5.61-2.82,8.41-.2.59-.37,1.33-.55,2.11-.76,3.32-1.92,8.34-7.64,8.35a11.37,11.37,0,0,1-2.71-.36c-.82-.19-6.29-2.07-7.08-3.55l-.4-.76.26-.83c.89-2.56.07-5.11-.8-7.81-.95-3-1.94-6-.58-9.16,0-1.2,0-2.32.05-3.37a54.49,54.49,0,0,0-.12-6.64,21.8,21.8,0,0,0-1.77-6.87c-1.11-2.41-1.86-2.63-1.87-2.63-.6.1-1.83,2.37-1.92,3.19a93.46,93.46,0,0,0,.49,13c.19,2.17.37,4.39.49,6.6.05,1.11.18,2.32.3,3.4.38,3.65.78,7.43-.69,10.63-.58,1.26-1.94,2.77-5.11,2.77a21.54,21.54,0,0,1-7.2-1.67,10,10,0,0,0-3.53-.64,12.62,12.62,0,0,0-7.29,2.49c0,.1-.06.24-.09.46A3.41,3.41,0,0,0,426.82,732.6Z"/><path class="cls-4" d="M532,889.5c-19.39-2.33-36.11-12.19-48.51-20.52-3-2.05-4.28-4.14-3.7-6.22.73-2.59,4-3.64,6.66-3.76,2.25-.09,4.51-.23,6.77-.37,4.21-.25,8.53-.51,12.76-.51,10.58,0,22.86,1.38,33.66,11.61,2.11,2,8.54,8.08,5,16a5.49,5.49,0,0,1-5.46,3.51,20.15,20.15,0,0,1-2.23-.17,17,17,0,0,0-2-.16,3.82,3.82,0,0,0-1.8.36l-.55.28Z"/><path class="cls-4" d="M502.24,343.81c-.32-.53-.65-1.06-1-1.59-.61-1-1.3-2.07-1.93-3.16a140.34,140.34,0,0,1-15-37.27c-3.45-14.64-2.65-26,2.52-35.84a8,8,0,0,1,7.21-4.47c4.74,0,11.08,4.22,14.05,12.3a88.35,88.35,0,0,1,3.6,15.33c.38,2.21.77,4.49,1.24,6.71l0,.09V296c1.22,14.64-1.5,28.82-4.12,42.53l-.06.35a8.61,8.61,0,0,1-2.26,3.86c-.32.37-.67.8-.94,1.17l-1.75,2.51Z"/><path class="cls-3" d="M270.58,1201.39l.34-1.39c.64-2.7,1.25-5.42,1.86-8.13,1.37-6.12,2.79-12.45,4.64-18.59l1.47-4.91c3.8-12.67,7.71-25.7,12.71-38.1,4.67-11.58,10.17-23,15.5-34.06,2.09-4.32,4.2-8.72,6.24-13,12-25.54,27.33-48.91,44.67-74.64,11.34-16.82,23.94-31.87,39.23-49.79,8.85-10.37,18.3-20.5,27.43-30.29l.1-.11c4.92-5.27,10-10.72,14.93-16.13,3.21-3.54,18.63-6.4,27-6.4,3.31,0,7.25.33,8.26,2.9,1.87,4.75-2.51,8.09-5.7,10.52a30.13,30.13,0,0,0-2.65,2.16c-4.93,4.76-10.07,9.37-15,13.82-6.82,6.11-13.87,12.43-20.3,19.08-17.12,17.69-34.44,36.56-51.49,56.08-13,14.89-25.07,31.95-39.1,55.33-8.36,13.92-16.68,28.88-26.19,47.09-17.62,33.71-30.24,61.79-39.74,88.36l-.47,1.34Z"/><path class="cls-4" d="M471.47,464.85c-.34,0-.7,0-1.05-.05l-.7,0h-.15l-.21.06h-.23c-19.35-.56-51.92-27.51-55.39-45.79-.9-4.68,3-9.29,7.08-11.59A10.28,10.28,0,0,1,426,406c3.81,0,6.94,2.25,9.7,4.24l.58.42c17.1,12.21,27.31,30,37.19,47.25l.51.88c.7,1.22,1.54,3,.65,4.56A3.36,3.36,0,0,1,471.47,464.85Z"/><path class="cls-4" d="M470.1,556.52c-2.16-.39-4.45-.73-6.46-1a96.69,96.69,0,0,1-14.59-2.94c-15.61-4.88-27.44-16-35.17-32.92-1.56-3.44-1.85-6.52-.86-9.16a10,10,0,0,1,5.65-5.54l.51-.24.57.08c20.51,2.71,32.75,15.14,44.81,33A2.59,2.59,0,0,1,465,539l.32.41c3.35,4.32,6.8,8.77,7.16,15l.14,2.53Z"/><path class="cls-3" d="M249.54,1308.39l-.62,0c-3.21-.39-11.75-1.42-13.77-9.46l-.07-.28c-3-11.86-6.07-24.12-12.8-34.31-7-10.64-15.23-20.81-23.15-30.64l-1.72-2.13c-5.67-7-11.16-14.36-16.46-21.44l-.08-.1c-4.54-6.07-9.24-12.34-14-18.35-12.24-15.5-16.69-31.68-13.22-48.09,2-9.45,6-18.53,9.79-27.3,2.35-5.39,4.77-10.94,6.7-16.48a90,90,0,0,0,1.68-55.16c-5.67-20-4.91-36.72,2.4-52.6.88-1.9,1.72-3.81,2.55-5.72l.06-.14c2.69-6.15,5.48-12.52,9.56-18.46,10.67-15.55,26.05-22.3,42.33-29.45,16-7,28-19.85,39.68-32.26,2.46-2.61,5-5.27,7.45-7.83,20.44-21,44.4-34.17,71.22-39a100.56,100.56,0,0,1,17.77-1.62c26.62,0,51,11.17,74.61,34.15a11.79,11.79,0,0,1,4,8.35c0,3-1.4,5.88-4.15,8.56-10.45,10.15-20.85,20.69-30,30A6.88,6.88,0,0,1,404.3,941c-2.18,0-4-1.26-6-2.58L393,934.69c-15.08-10.45-30.66-21.25-48.19-28.08a77,77,0,0,1-9.45-4.7c-4.26-2.37-8.66-4.82-13.51-5.9l-1.41-.32a34.05,34.05,0,0,0-6.88-1.15c-1.08,0-1.81.19-1.93.51a1.07,1.07,0,0,0-.06.77c.42.82,3,1.54,4.52,2a21.6,21.6,0,0,1,3.49,1.17c4.15,1.94,8.42,3.84,12.55,5.67,15.38,6.85,31.23,13.9,44.91,24.74a8.19,8.19,0,0,0,2.62,1.12c2,.63,4.79,1.49,6,4.68l1.18,3.07-3.27-.36c-.93-.1-1.86-.23-2.8-.36a43.08,43.08,0,0,0-5.7-.55c-4.77,0-9.62-.15-14.31-.27h-.12c-5.2-.14-10.58-.28-15.83-.28a183.05,183.05,0,0,0-19.18.87c-17.07,1.77-39.5,4.8-61.6,12.53-2.71.95-5.4,1.84-8,2.71-9.52,3.16-19.35,6.44-28.15,11.6a3.06,3.06,0,0,1-1.15.38,1,1,0,0,0,.75.26,3.7,3.7,0,0,0,1.06-.2c15.84-5,32.63-10,51.32-15.29a54.64,54.64,0,0,1,7.52-1.41l3-.43,6.9-1.14c15.64-2.6,31.79-5.28,48-5.28,2.08,0,4.15.05,6.15.13a4.17,4.17,0,0,1,1.83.64c.29.16.59.32,1,.51l3.81,1.82L339.24,953c-13.12,6.16-25.95,12.19-38.81,18.18-2.31,1.08-4.67,2.12-7,3.13-3.3,1.45-6.69,2.94-9.92,4.54a2.93,2.93,0,0,0-.85,1,3.25,3.25,0,0,0,.89.22c11-2,21.12-6.75,31-11.32,4.38-2,8.91-4.14,13.49-6,5.7-2.32,11.16-5.64,16.44-8.84,9.54-5.79,19.39-11.77,31.4-12.58.86-.06,1.75-.09,2.65-.09a85.43,85.43,0,0,1,13.15,1.35c2.3.35,4.57.71,6.74.94l3.57.39-2.2,2.83q-7,9-14,17.94c-10.88,13.88-22.13,28.23-33,42.53-5,6.61-12,7.31-18.19,7.93a40,40,0,0,0-8.39,1.44c-4,1.31-8,2.51-11.87,3.67-8.42,2.52-17.12,5.11-25.25,8.82-4,1.82-8.17,3.39-12.21,4.91a128.42,128.42,0,0,0-17.57,7.63c-10,5.58-20.57,11.83-30.37,19.66-3.15,2.51-6.41,5-9.57,7.3l-.09.08c-7,5.21-14.21,10.6-20.38,16.93a19.87,19.87,0,0,1-2.34,2,15.7,15.7,0,0,0-2.63,2.34,1.31,1.31,0,0,0,.92.33c1.93,0,4.91-2.43,6.52-3.74,28.5-23.23,54.29-39.38,81.18-50.83a35.38,35.38,0,0,1,5.8-1.67c1.53-.36,3.4-.8,5.82-1.43l7.4-1.91-14.16,13.59c-12.81,12.3-24.18,23.22-35.57,34.12-.27.26-.57.52-.87.77a6.06,6.06,0,0,0-1.11,1.09,2.1,2.1,0,0,0,.14.23c.12.18.42.6.63.6s.7-.1,1.88-1c19.25-14.61,34.78-29.66,47.5-46,6.91-8.88,17.16-11,26.2-12.91,3.53-.73,7.1-1.61,10.87-2.53,2-.49,4-1,6.09-1.48l5.46-1.29-3.41,4.45c-14.68,19.2-25.77,39.47-37.73,62.08a156.07,156.07,0,0,0-8.13,19.53c-1.45,4-2.92,8-4.59,12-3.79,9.1-11.67,12.64-19.28,16.07a73,73,0,0,0-8.2,4.11,312.4,312.4,0,0,0-42.16,30.4c-4,3.44-7.76,7.23-11.44,10.9-2.28,2.28-4.64,4.64-7.06,6.92-1.52,1.45-2.41,2.85-2.43,3.85a1.7,1.7,0,0,0,.59,1.31,1.26,1.26,0,0,0,.28.23,7.86,7.86,0,0,0,1.52-1.53,11.26,11.26,0,0,1,1.58-1.64c4.8-3.74,9.32-8,13.69-12.16,6.59-6.23,13.4-12.67,21.42-17.61a6.23,6.23,0,0,1,2.35-.74,6.24,6.24,0,0,0,.62-.12l2.73-.64-.27,2.78c0,.22,0,.45,0,.67a5.48,5.48,0,0,1-.56,2.92q-3.75,6.46-7.56,12.89c-3.46,5.86-7,11.86-10.41,17.8a6.53,6.53,0,0,0-.61,1.7c1.82-.52,4.08-1.17,4.69-2.11,7.46-11.58,15.92-24.7,19.53-40.26,1.6-6.89,8.46-9.9,14.51-12.55a55.54,55.54,0,0,0,7.16-3.56,41.63,41.63,0,0,1,5.71-2.85c.85-.37,1.67-.73,2.46-1.11l4.48-2.12-2.73,7.24c-.8,2.14-1.6,4.27-2.44,6.38-6.56,16.46-10.9,33.93-15.09,50.82l-.12.46q-1.39,5.61-2.81,11.22c-4.61,18-7.25,36.7-9.8,54.77l-.56,3.94a149.74,149.74,0,0,0-1,20.2c0,5.46-.06,11.1-.6,16.7a12.26,12.26,0,0,0,.18,2.31c.26,2,.55,4.34-.76,5.84A3.48,3.48,0,0,1,249.54,1308.39Z"/><path class="cls-3" d="M62,843.8l.8-.6a49.88,49.88,0,0,0,10.12-9.77c4.87-6.43,10.23-12.59,15.42-18.56,3.18-3.65,6.47-7.43,9.61-11.23,11-13.31,24.21-20.19,39.34-20.44,20.6-.34,40.52-1.53,57.85-12.16,5.25-3.23,10.37-6.95,15.32-10.54,5.58-4.06,11.32-8.23,17.34-11.79,16.77-9.91,34.48-14.94,52.64-14.94a116.27,116.27,0,0,1,38.38,6.92c26,9.11,41.46,27.75,50.27,60.44,3.41,12.64,6.36,26.19,2,40.82-1.36,4.52-3.74,6.81-7.08,6.81a14.49,14.49,0,0,1-5.52-1.52,10.51,10.51,0,0,0-2.82-1c-17.13-.81-23.6-14.25-29.31-26.11-.62-1.29-1.23-2.56-1.85-3.81-9.12-18.36-22.81-34.29-43.1-50.13-7.15-5.59-15.62-11.78-25.83-14.53l-.5-.17a7.63,7.63,0,0,0,.21,1.56c12.91,5.45,22.8,14.91,32.36,24.07,4.49,4.3,9.11,8.72,13.94,12.61,2.32,1.88,3.81,4.53,5.25,7.1.5.88,1.06,1.88,1.63,2.76a4.16,4.16,0,0,1,.27,3.15,2.32,2.32,0,0,1-1.28,1.54,5.52,5.52,0,0,1-2.17.46,3.74,3.74,0,0,1-1.84-.44q-6.66-3.72-13.3-7.47l-.39-.22c-6.35-3.58-12.92-7.28-19.42-10.86,0,.09,0,.18.07.26.3,1.21.71,2.86,1.26,3.27a155.76,155.76,0,0,0,43.91,22.62c4.56,1.51,7.15,7.32,9.65,12.94a67.41,67.41,0,0,0,3.43,7c1.06,1.75,2.12,3.76,1.13,5.51s-3.29,1.76-4.16,1.76c-.46,0-1,0-1.54-.07-16.66-1.29-33.19-2.25-48.7-3.11l-.48,0a22.36,22.36,0,0,0-5.54,1,22.23,22.23,0,0,1-5.78.81c-8.57,0-14.15-5.79-19.54-11.38-.68-.71-1.37-1.42-2.06-2.12C227.3,809.38,210.6,799,192.29,793.27a14.19,14.19,0,0,0-3.74-.81c-1,0-1.19.3-1.35.71a.39.39,0,0,0,0,.14c.11.5,2.29,1.57,3,1.92l.62.31c6.28,3.13,12.43,6.72,18.38,10.18,2.33,1.35,4.64,2.7,7,4l1.42.81-1.91,5.76-10.94-2.57c-8.13-1.9-16.54-3.87-24.86-5.92-.6-.15-1.2-.36-1.73-.54a7.91,7.91,0,0,0-2.07-.55c-.09,0-.13,0-.14,0a.77.77,0,0,0-.18.3c-.19.44.81,1.47,2.81,2.45,11.27,5.56,23.68,6.84,35.69,8.08,3.84.4,7.81.81,11.72,1.36,8.63,1.2,13.73,7.4,18.21,13.64a3.17,3.17,0,0,1,.42,3.21c-1,2.3-4.63,2.83-5.34,2.91-9,1-18.11,1.89-26.93,2.77l-.21,0c-7.9.79-16.07,1.6-24.09,2.47a49,49,0,0,0-6.17,1.21,38.38,38.38,0,0,1-8.76,1.41,16.05,16.05,0,0,1-2.84-.25c-4.67-.87-9-3.05-13.21-5.15-2.23-1.12-4.55-2.28-6.84-3.2-10.81-4.32-22.51-8.4-34.73-9l-.57,0c-.48,0-1-.06-1.45-.06a2.93,2.93,0,0,0-1.74.33,16.15,16.15,0,0,0,3.7,1.84c11.77,3.64,22.71,6.85,33.44,9.79,2.8.77,4.35,2.24,5,4.77l.54,2-2.82.59c-1.11.23-2.22.46-3.31.67-6,1.1-12,2-17.82,2.9C115.57,854,100.23,856.35,85.79,862a196.85,196.85,0,0,1-21.27,6.8l-2.52.67Z"/><path class="cls-4" d="M183.35,765.29c-.21-.71-.51-1.49-.78-2.17a15.88,15.88,0,0,1-1.4-5.71c.19-19.65,1.79-40.39,12.16-58.88,2.19-3.9,2.89-6.92,2-8.72-1.21-2.52-5.6-3.25-9.47-3.9-1.06-.17-2-.34-3-.54-10.83-2.35-19.68-8.06-28.24-13.58-3.88-2.5-7.88-5.08-12-7.27a30.88,30.88,0,0,1-7.83-6.16c-8.11-8.79-11.38-12.51-10.57-16.55.84-4.21,6.11-6.64,16.63-11.49,17.35-8,36.15-12.46,57.49-13.65l.4,0,.39.14a17.4,17.4,0,0,0,5.61,1.17c5.47,0,6.59-4.88,8.11-13.49l.25-1.44c4.91-27.55,11-48,19.87-66.2.65-1.33,1.85-3.82,4.13-3.82,1.54,0,2.64,1.1,3.93,2.38l.11.11c12.09,12.12,22.18,26,31.93,39.54,3.8,5.26,7.74,10.7,11.75,16a6.1,6.1,0,0,0,5.16,2.78c2.14,0,4.57-.9,6.93-1.78a27.59,27.59,0,0,1,6.11-1.78,120.48,120.48,0,0,1,15.16-1,100.7,100.7,0,0,1,31.35,4.86,4.07,4.07,0,0,1,1.39.81l.07.06,2.44.15c7.24.41,10.79.81,12.07,2.69a2.6,2.6,0,0,1,.33,2.34,60.25,60.25,0,0,1-13.2,22.07c-7.15,7.56-16.8,17.16-28.09,24.31-4.84,3.06-7.49,6-7.88,8.77-.5,3.52,2.7,7.12,5.79,10.61,2.34,2.63,4.75,5.35,5.85,8.3s2.28,5.95,3.32,8.61c2.53,6.43,5.13,13.08,7.14,19.86,3.34,11.34,2,22.74.42,32.53l-.06.38c-.18,1.1-.5,3.14-2.65,3.14a5.8,5.8,0,0,1-2-.52,350,350,0,0,1-58-28.53c-.4-.25-.8-.5-1.22-.74a25.82,25.82,0,0,1-6.42-4.86c-3.1-3.58-5.12-4.33-6.27-4.33-2.75,0-4.87,4.63-6.41,8l-.59,1.27c-8.26,17.55-21.94,30.5-44.35,42a60.3,60.3,0,0,0-10.34,7.4c-2.22,1.84-4.49,3.72-6.9,5.38a17,17,0,0,1-5.83,2.21c-.81.2-1.61.4-2.33.62l-1.94.62ZM216.4,634.22a2.3,2.3,0,0,0-1,.3c-.64.33-1.3.67-.2,2.86.45.88.9,1.77,1.34,2.67,2.33,4.68,4.74,9.53,7.91,13.54,3.66,4.64,6.85,9.55,5.51,14.11-1,3.37-4.31,6-10.15,8a5.61,5.61,0,0,0-2.94,2.6,3.39,3.39,0,0,0-.11,2.71c.1.28.18.36.19.36a3,3,0,0,0,1.21-.36l2.81-1.35c6.45-3.09,13.12-6.28,19.29-10,10.34-6.21,21.77-7.59,32.82-8.94,3-.36,6.1-.74,9.11-1.21a25.06,25.06,0,0,1,3.69-.19c4.35,0,4.59-.48,4.68-1.49a1.72,1.72,0,0,0-.34-1.41c-1.1-1.23-4.71-1.34-6.87-1.41h-.3l-1.36,0a17.7,17.7,0,0,0-6.18.86,8.3,8.3,0,0,1-2.91.68c-3.17,0-3.47-3.18-3.65-5.08-.74-7.72.84-15.08,2.36-22.19.79-3.66,1.6-7.44,2.05-11.16a9.46,9.46,0,0,1-.22-4.58,8.55,8.55,0,0,0,.1-2,2.24,2.24,0,0,0-.68-.1h-.1c-1.92,0-3,4.52-3.65,6.94-3.21,12.92-4.43,23.59-3.85,33.58a4.82,4.82,0,0,1-1.1,3.8,4.52,4.52,0,0,1-3.45,1.25c-.41,0-.84,0-1.28-.06h-.87l-.7,0c-2.58,0-4.08-1.39-4.59-4.23-2.64-14.73-5.71-30.22-9.12-46.05a10.58,10.58,0,0,1-.18-1.61,6.39,6.39,0,0,0-.32-2h0a1.46,1.46,0,0,0-.26,0,3.16,3.16,0,0,0-.57.06c-.87.17-2.05.39-1.59,4.15s.91,7.45,1.36,11.17c1.5,12.45,3,25.24,5,37.78.62,4-2.15,4.79-3.19,5.11h0l-.06,1.62-2.18-.29c-.4,0-.95-.06-1.48-.07-1.75,0-3.69,0-4.73-1.5-3.42-4.77-6.73-9.7-9.95-14.46l1.16-1-1.25.84c-2.29-3.42-4.67-6.94-7-10.37C217.67,634.78,217,634.22,216.4,634.22Z"/><path class="cls-4" d="M268.09,491.24c-.57,0-1.15,0-1.72-.09-.37,0-.73,0-1.1-.06L262.9,491l.48-2.33c.07-.31.1-.64.14-1a7.61,7.61,0,0,1,.91-3.28c12.56-20.53,28.61-32.49,49-36.56a22.64,22.64,0,0,1,4.4-.44,18.2,18.2,0,0,1,13,5,14.22,14.22,0,0,1,4.07,10.42V463l0,.2c-2.08,9.07-10.52,12.82-18,16.13l-2.77,1.25c-15.39,7.07-32.16,9.38-45.05,10.59C268.75,491.22,268.42,491.24,268.09,491.24Z"/><path class="cls-3" d="M307,864.32c-4.25,0-8.71-1.25-13-2.46a73.71,73.71,0,0,0-8.66-2.06c-15.49-2.34-34.77-5.24-53.44-5.24-3,0-6,.07-8.88.22-.64,0-1.29.05-1.94.05-6.36,0-12.81-1.55-18.36-3l-1.19-.3.19-3.44,1.22-.17c24.57-3.51,53.19-7.26,81.92-7.26a279.06,279.06,0,0,1,66.93,7.68l1.26.3-.33,3.57-1.3.07C341,852.8,333,856,325.21,859.09a95.92,95.92,0,0,1-14.18,4.8A18.37,18.37,0,0,1,307,864.32Z"/><path class="cls-3" d="M164.92,993.09c-3.14,0-8.34-2-11.59-4.45C143.17,981,134.94,971.33,127,962c-6.53-7.66-13.26-15.55-21-22.2-11-9.49-24.8-13.68-36.86-16.53a29.7,29.7,0,0,1-6-2.25L62,920.47V876.24l1.62-.31c7.36-1.43,15.27-3,23.27-4.94,20.18-4.86,41-7.09,61.06-9.25,6.8-.73,13.76-1.48,20.59-2.32a26.16,26.16,0,0,1,3.07-.17c1.35,0,2.75.09,4,.16,1,.06,2,.12,3,.14l4.21.09-2.73,3.21c-.55.65-1.09,1.35-1.61,2a26.36,26.36,0,0,1-4.18,4.62c-1.11.88-2.2,1.78-3.28,2.67-9.78,8-19,15.57-32.93,15.57a39.77,39.77,0,0,1-5.5-.39,51.4,51.4,0,0,0-7.17-.49c-9.69,0-19.9,2.58-30.37,7.67-.41.2-.86.4-1.32.61-.94.42-2.83,1.26-3.11,1.78,0,0,.07.15.23.39a2.24,2.24,0,0,0,2.07.87,17.07,17.07,0,0,0,6.19-1.83c8.2-3.63,17.13-5.33,28.1-5.33,2.3,0,4.71.08,7.35.22l5.26.3-9.89,7.83c-6.08,4.8-11.82,9.34-17.66,14.14a6.87,6.87,0,0,1-.63.47l-.53.4a2.41,2.41,0,0,0,1.5.67,2.32,2.32,0,0,0,1.28-.49c7.35-5,15-9.76,22.46-14.36,13.46-8.35,27.37-17,39.74-27.29a45.58,45.58,0,0,0,5.42-5.8c2.69-3.23,5.47-6.58,9.21-8.43a16.69,16.69,0,0,1,7.54-1.52,63.07,63.07,0,0,1,8.7.84l.14,0,2.43.35a121.78,121.78,0,0,0,16.1.88c2.76,0,5.66,0,8.21-.09,2.78,0,5.56-.09,8.29-.09h2.44a16.53,16.53,0,0,1,2.58.32l1,.17,2.49.36-.92,2.35c-.1.26-.18.53-.26.81a7.11,7.11,0,0,1-1.35,2.8c-3.81,4.33-7.39,9-10.86,13.55-6.07,7.95-12.36,16.16-20.21,23-3.82,3.31-8.29,3.59-12.17,3.59L202,906a24.34,24.34,0,0,0-4.5.32A127.71,127.71,0,0,0,165,916.93a7.53,7.53,0,0,0-.87,1.72.08.08,0,0,0,0,.05l.08,0c2.59-.76,5.14-1.6,7.61-2.42,8.28-2.73,16.83-5.56,26-5.56.63,0,1.26,0,1.89,0a4.65,4.65,0,0,1,2.79-1l5.12.23L204,913.28c-1.75,1.54-3.49,3.1-5.23,4.66-3.93,3.52-7.93,7.1-12,10.52-1.25,1.07-2.55,2.09-3.81,3.08-4.6,3.62-9,7.05-11.19,12.36,27.39-19.66,53.62-39.55,73.69-65.68a27.08,27.08,0,0,0,3.45-7.24c2.57-7,7-10.32,13.52-10.32a45.88,45.88,0,0,1,8.54,1.12c1.08.22,2.16.43,3.24.61,5.48.92,10.93,1.58,16.69,2.28,2.56.31,5.14.63,7.76,1l4.17.54-3,2.89a161.82,161.82,0,0,1-14.49,11.77c-7.36,5.52-15,11.22-20.59,18.7a114,114,0,0,1-31.53,28.88,90.73,90.73,0,0,1-13.39,6.33,90.92,90.92,0,0,0-12.58,5.9c-20.1,12.18-33,29-38.37,50C168.65,991.37,167.89,993.09,164.92,993.09Z"/><path class="cls-4" d="M215,449a3.31,3.31,0,0,1-3.28-3c-.12-.8-.26-.85-1.38-1.23a5.6,5.6,0,0,1-2.91-1.82c-14.22-18.39-19.93-35.58-19.11-57.49v-.22l.08-.29.59-1.79a135.87,135.87,0,0,1,5-13.5c1.07-2.39,5-3.91,7.22-3.91a4.75,4.75,0,0,1,1.45.21,22,22,0,0,1,13.85,12.76c6.92,18.28,5.09,37,3.31,55.18-.35,3.65-.72,7.43-1,11.17A4,4,0,0,1,215,449Z"/><path class="cls-4" d="M173.65,516.76c-13.79-.06-26.67-4.31-39.39-13a20.79,20.79,0,0,1-8.63-13.26,13.79,13.79,0,0,1,2.46-10.79c2.28-3,5.94-4.54,10.87-4.54a42.09,42.09,0,0,1,13.25,2.6c14.06,4.8,30.17,11.33,43,23.38a11.34,11.34,0,0,0,1.28.91c1.79,1.17,4.24,2.76,4.19,5.38,0,1.84-1.33,3.5-3.94,5.06a20,20,0,0,1-7.45,2.16l-.7.11c-3.9.61-7.77,1.1-11.19,1.52l-3.47.44-.1,0h-.16Z"/><polygon class="cls-2" points="6 8.83 58 60.83 58 1619.17 6 1671.17 6 8.83"/><path d="M1024,8V1672a8,8,0,0,1-8,8H8a8,8,0,0,1-8-8V8A8,8,0,0,1,8,0H1016A8,8,0,0,1,1024,8Zm-8,1658.34V13.66l-48,48V1618.34ZM962.34,56l48-48H13.66l48,48H962.34ZM13.66,1672h996.68l-48-48H61.66ZM960,1616V64H64V830.75c10.22-10.65,19.19-22.57,28.58-33.94,11.38-13.76,25.59-20,42.49-21.85,12.51-1.4,25.14-2,37.51-4.14,6-1,2.44-7.33,2-10.46-1.95-13.53-.16-26.58,3-39.63a137,137,0,0,1,8.94-25.21c1.3-2.82-3.64-3.66-6.24-4.41-26.91-7.86-50.19-21.33-63.91-46.48-2.49-4.56,6.1-11.65,11.81-15.48,18.55-12.45,40.42-15.14,61.48-20,2.54-.59,5.61,1.65,8.4,1.56,12.4-.39,6.49-11.36,8.34-16.9,4.78-14.3,8.54-28.91,13.59-43.23,2.92-8.28,8.5-15.26,10.4-23.41,2.69-11.58-8.7-9.24-14.66-12-11.32-5.31-18.86,5.23-28.53,7.29-18.91,4-55.85-2.3-66.89-23.16-4.7-8.87-4.61-18,.4-26.06,4.56-7.35,13.3-7.22,20.85-6.08,25.71,3.89,47.07,16.58,66.08,33.82,4.59,4.16,10.76,4.84,16.57,6,2.61.52,1.38-.89,1.06-2.25-2.83-12.14-8.17-24.47-7.49-36.44.71-12.55-9-13.6-14.22-19.59C192.11,435.53,183.4,421,181,403.48c-1.57-11.51-2-23.2,2.5-34.24,3-7.33,9.61-11.45,17-12.05,9.59-.76,16.36,6.12,20.38,13.47,8.79,16.08,8.72,33.37,7,51.66-2.22,23.17-5.58,47.08,4.7,69.77,1.41,3.11,2.66,9.94,3.48,9.24,6.27-5.36,16.85-5.26,20.24-13.2,9.3-21.77,24.78-36.71,46.6-45.11,17.79-6.85,33.06-2.9,38.66,10.38,5.89,14-2.92,22.82-13.47,29.14-18.81,11.27-40.15,15.79-61.57,15.94-12,.08-19.85,6.83-28,12.11-4.44,2.87.44,13.13,4.87,17.43,13.51,13.09,26.89,26.57,35.75,42.94,8.42,15.56,18.7,13.94,32.65,10.54s28.24.9,41.8,5.42c5,1.66,10.06,2.65,14.87,5.65,6.92,4.32,5.48,9.5,3.38,14.5-8.44,20.07-25.31,32.43-42,45-8.8,6.66,1.73,10.45,3.8,14,14,24.27,19.49,49.62,13.68,77.24a5.8,5.8,0,0,0,1.73,4.53c11.13,10.24,19.29,22.29,23.45,36.94.22.78,1.19,1.35,1.81,2,.56-.78,1.58-1.54,1.61-2.34.62-16.81,4.79-32.79,11.05-48.29a37.12,37.12,0,0,1,4-7.46c5.89-8.35-2.55-11.33-6.31-14.93-14.85-14.21-23-32.09-29.47-51-1.76-5.17,4.61-7.37,7.11-7.54,24.36-1.59,48.49.17,71.89,7.75,4.61,1.49,8.88,4,13.46,5.62,10.22,3.55,8.67-6.69,10.86-10.71,12.75-23.43,28.4-44.44,48.76-61.67,7.47-6.32,7.26-10-1.4-14.72-9-4.88-16.78-12-26-16.19-6.9-3.1-15.18-3.48-22.92-4.27-21.61-2.21-46-22-51.78-43.11a16.55,16.55,0,0,1,6.24-18c2.66-1.95,7-2.56,11.85-1.83,33,4.93,44.78,30.82,57.67,56,5.39,10.51,17.86,11.46,25.73,18.68,1,.89,2.44,1.24,4,2-1.55-12.87-3.92-25-3.91-37.56,0-15.27-.35-30.64-2.17-45.76-1-7.94-11.72-8.64-15.77-14.63-7.89-11.67-20.89-5.21-30.87-9.63-17.29-7.65-34.74-15.11-45.48-31.48-4.87-7.42-9.32-16.49-4.67-26,4.86-9.94,14.61-13.81,23.87-10.46,12.87,4.65,22.44,15.07,30.12,26.44C470.7,439,478.47,453,487.64,466c3.18,4.49,8.95,7.27,13.82,10.39,2.9,1.86,3.5-.24,3.51-2.91,0-15.65-1.45-31.23-1.11-47,.24-11.35-1.39-23.31-.62-34.77,1.56-23.18-3-43.16-16.46-63.21-11.51-17.16-16-38.81-9.66-60.3,2.48-8.36,9.4-14.69,17.66-14.83,11-.2,17.11,8.86,20,18.31,5.1,16.91,5.23,34.07,3.06,51.9-1.39,11.46-5.13,21.51-8.22,32.17-1.43,4.94,1.34,11,1.4,16.49.27,22.82-.87,45.69,3,67.9,11.66-9.94,24.77-19.18,35.32-30.75,7-7.74,10.43-18.82,15.5-28.37,8.37-15.79,21-26.35,38.18-31.6,14.84-4.54,28.31-.2,35,10.81,2.67,4.43-.37,7.85-1.58,10.26-10.3,20.55-29.22,32-49.73,37.84-23.59,6.78-43.5,16.83-61.43,34-10.16,9.73-10.9,18.81-10.38,30.45,1,22.74,1.54,45.51,2.3,68.26.1,3.1-1.07,5.88,4.55,2.8,13.44-7.38,27.64-13.38,41.65-19.71,3.54-1.6,2.88-5.16,4.57-7.55,14.42-20.29,30.93-36.49,57.71-40.36,14.7-2.12,26.23-.12,35,11.1,7.26,9.31,1.25,17.49-6.27,23A88.81,88.81,0,0,1,593.85,528c-20.69-1.43-38.25,7.09-55.05,18-5.55,3.63-12.81,5-17.67,9.27-5.69,5-1.21,12.49-1.34,18.89,0,1.19,1.36,2.48,1.19,3.58-2.89,18.09,9.09,32,13.24,48,3.14,12.17,5,24.72,6.7,37.2.85,6.14.42,12.51.08,18.75-.47,8.67,7.84,8.19,11.45,8.62A109.76,109.76,0,0,1,596.32,705c7.2,4.29,14.36,9,20.51,14.61,7.42,6.8,3.16,15.78-8.81,23.22-17.67,11-36,19.95-56.34,24.93-10.61,2.6-2.24,10.66-2.36,15.5-.46,18.38.87,36.85-8.69,53.6-6.07,10.65-15.08,3.9-21.23,1.28-20.09-8.56-33.21-25.32-45.75-42.93l-10.58,44.44c0,.16,0,.35,0,.5-1.77,4.79-4.72,11.35-.68,14.28,7,5.09,15.2,1.61,22.38-2,14.06-7.17,50.4-.15,60.62,11.87,14.77,17.38,13.89,27.94-4.56,33.93-11.18,3.64-22.56-1.9-33.35-6.15a95.57,95.57,0,0,1-36.67-25.58c-2.08-2.32-7-2.11-10.59-3.06-1,4.72-2.17,9.42-3.11,14.16-1.31,6.55-2.52,13.11-3.69,19.68a15.34,15.34,0,0,0,.16,3.3,8.07,8.07,0,0,1,2.23-1.23c6.11-1.08,12.67-1.3,17.63,2.27,7.58,5.47,15.5,3.85,23.55,3.36A126.08,126.08,0,0,1,580.64,931c-.4-6.28,4.1-10.92,7.92-12.61,12.15-5.35,7.68-16.61,10.1-25,5.63-19.55,13.24-37.79,25.05-54.57a103.48,103.48,0,0,1,49.72-38.36c17.43-6.4,35.72-11,54.9-5.72,9.78,2.67,6.19-6.86,7.33-10.62,3.79-12.55,6.48-25.46,9.22-38.32,2.31-10.87-8.82-16-11.28-24.77-6.08-21.71-29-26.57-41.36-41.86-10.9-13.47-19.85-28.28-18.93-46.16.45-8.78,4.65-18.41,13.93-21.51,9.82-3.28,18.14,2.8,25,9.45,9.89,9.57,13.89,22,15.88,35.32,1.25,8.42,4.06,16.66,4.69,25.1.59,8-3.5,16,2.5,23.92,5,6.54,8.57,14.18,13.13,21.94C752,711.94,755.5,697,758.92,682c4-17.31,6.67-35,12.05-51.85,5-15.65,4.24-29.52-2.72-44.36-7.4-15.78-3.69-57,14.54-69.34,8.18-5.52,17.91-10.68,26.86-4.87,8.45,5.47,8.64,16.08,7.64,25.83-2.45,24.08-9.23,46.81-26.46,64.33-11,11.21-10.8,25-13.79,38.36-5.1,22.84-10.36,45.64-15.4,68.5-1.19,5.4-3.74,11.73-2,16.23,2,5.1,7-.62,10.81-1.11,21.58-2.84,30.42-22.22,43.89-35.17,18.8-18.07,47.39-25.1,66.06-13.8,10.85,6.57,17.13,16.35,14.29,28.67s-13.88,17.44-25.21,22c-8.7,3.5-17.84,4.58-26.43,5a141.48,141.48,0,0,1-41.3-4.27c-9-2.34-15.19,1.47-22.41,3.63a184.62,184.62,0,0,0-21,7.52c-7,3.08-3.08,10.55-4.84,15.79-4.15,12.4-4.21,26.28-9,38.3-4.1,10.18,4.33,11.54,7.9,13.88,9.86,6.48,12.61,16.8,16.42,26.21,7.37,18.24,16.83,24.22,36.42,25.89,24.31,2.08,47.48,7.7,67.76,23.87,14.75,11.76,19.54,25.61,17.92,42.67-2.16,22.82,5.21,42.07,16.69,61.55,10.95,18.59,25,37,23,60.78-1.46,17.59-7.5,34.07-12.66,50.81-4.07,13.22-2.07,27-.06,40.48,3.81,25.58,4.68,50.55-3,76.09-9.47,31.51-43.78,31.89-66.46,22.86-12.74-5.07-24.72-15-39.56-11-14,3.74-27.63,9.16-41.38,13.93-18.48,6.4-36.07,3.62-54.12-3-18.87-6.92-34.7-22.54-56.4-21.06-11.42.78-22.5,2.55-34.09,0-23.73-5.2-41.35-18.3-54.4-38.32-.66-1-1.33-4.64-4-1.16-11.23,14.53-28.41,16.83-44.51,21.26-24.31,6.71-50.94,4.8-73.05,19.71-15.38,10.37-25,26.27-37.37,39.45-13.71,14.57-31.22,20.21-50,22.74-24.31,3.27-46.82,10.18-66.08,26.22-11.89,9.9-26.86,9.79-41.35,10.75-20.11,1.32-22.8-13.15-27.72-27.89-6.23-18.64-18.53-34-31.69-48.9-16.09-18.21-32.56-36.84-42.95-58.9-9.51-20.19-6.23-41.4,3.81-61.45,8.76-17.49,15.14-36.08,14.42-55.69-.43-11.92-4.44-23.87-8-35.44a18.1,18.1,0,0,1,.51-11.67c5.64-13.09.77-18.83-11.52-23.35-13.56-5-21-18-29.45-28.63-11.33-14.31-24.14-25.93-41.6-30.66A100.21,100.21,0,0,1,64,928.48V1616Zm-39.3-569.9c2-16.14-7.59-29.2-14.35-42.78s-15-26.73-21.23-40.68C878.19,947,881.4,930,881,913.58a27.46,27.46,0,0,0-9.36-20.76c-20.9-19.32-46.83-24.15-73.77-25.63-13.91-.76-30.22-13.74-35.43-25.81-4.27-9.9-6.27-21.36-16.35-28.67-11.27-8.19-23.34-10.62-36.75-9.68-29.24,2.05-53.38,13.12-73.33,35.6-15.92,18-23.61,39.09-30.6,60.93-1,3.08-3.36,9.93,1.88,11,13.11,2.76,26,5.73,38.09,11.75,1.17.58,4.37,6.06,7.44-.71,5.38-11.89,1.27-24.18,3.78-36.17,3.4-16.15,6.4-32.31,12.76-47.6.93-2.24,3-4.67,6.14-3.7.74.23,1.63,2.25,1.38,3.13-3,10.33-7,20.45-9.2,31-2.45,11.93-6.27,23.93-4.25,36.27,19.51-21,38.61-41.94,63.56-56.31,3.13-1.81,8.53-4.41,10.4-1.56,2.7,4.13-3.08,5-5.74,7-14.27,10.65-30,19.7-42.12,36.45,17.8-3.59,33.53-6.85,49.31-9.9,5.58-1.07,10.8-5,16.89-2.35a20.48,20.48,0,0,1,2.68,1.7,13,13,0,0,1-2.32,1.51,247,247,0,0,1-57.21,14.05c-5.34.67-12.54-1.53-15.83,1.23-8.08,6.79-14.84,15.37-21.1,24-1.64,2.27-7.35,8-1.81,10.15,9.22,3.6,17.06,9.2,25.66,13.58,4.37,2.23,8.38,8.75,15.13,3.66,9.49-7.17,21.36-8.94,32.27-12.44,18-5.78,36.93-8.15,55.76-10.3,21.2-2.43,42.4-3,63.56.12,2.22.32,4.2,2.26,6.29,3.46-.72.53-1.42,1.51-2.16,1.54-9.06.35-18.13,1-27.18.74-20.29-.5-40.27,1.91-60.72,4.9C793.21,943,816.24,953,841,956.87c3,.47,4,2.65,5.29,4.69-1.21.6-2.42,1.75-3.62,1.72-21.11-.53-40.45-8.32-60-15.14-8-2.81-16.94-10.25-23.2-9.64-16.72,1.62-33,8-49.39,12.75-1.92.56-3.31,2.94-4.94,4.48a21.91,21.91,0,0,1,3.56,1.78c7.66,5.71,14.68,12.58,23,17,20.07,10.7,30.28,35.73,58.64,35.5,17.3-.14,34.8,7.94,52,13.09,18,5.39,33.64,15.23,47.4,28,.85.79.74,2.6,1.08,3.94-1.14,0-2.51.46-3.39,0a149.81,149.81,0,0,1-13.18-7.62c-14-9.41-29.59-15-46.13-19.9,15.88,16.27,31.24,32,46.52,47.75,1.27,1.31,3.15,3.9,2.7,4.63-1.39,2.24-3.71,1.1-5.68,0-21.06-11.17-34.07-30.48-49.09-47.85-2.58-3-2.79-8.57-7.88-9-11.7-.89-22-8.62-34.24-6.07.68,1,1.63,2.47,2.74,3.84,13.81,17.14,29.18,33.27,41.09,51.63,16.54,25.5,32.45,51.61,43.33,80.33,8.79,23.19,21.78,44.83,25.5,69.89.28,1.89,1.72,3.61,2.62,5.41a54.48,54.48,0,0,0,3.72-4.2c2.83-3.94,4.27-8.43,5.92-13,8.81-24.54,6.13-49.17,2-74-3.15-19-2-37.93,4.49-55.79A159.26,159.26,0,0,0,920.7,1046.1ZM882.64,1233c3.18-.39,5.36-.46,3.77-4.5-5.19-13.16-9.75-26.59-15.58-39.45-9.57-21.09-19.84-41.84-33.5-60.74-8.42-11.66-15.5-24.3-26.16-34.28-.86-.8-.25-3.23-2.47-2.71-.24.05.16,2.53.13,3.89-.4,15.61,4.16,30.37,8.39,45,4.53,15.69,5.28,32.41,13.16,47.22,1.35,2.53,1.17,8.77.25,9.09-4.14,1.43-4.24-2.79-6-5.46-7.57-11.57-9.34-24.77-12.1-37.77-3-14.28-6.37-28.48-9.61-42.71-3.37-14.77.12-30.26-15.13-42.89-20-16.59-38.4-35.34-59.08-51.36a5.56,5.56,0,0,0-4.43-.83c-.74.24-1,2.48-1.2,3.86-1.13,7.43-3.6,15-3,22.3,1.56,18.21-9.28,37.61,8.59,54.45,17.11,16.12,25.16,38.73,34,60.2,1.09,2.63.58,8.48-.73,9-3,1.2-3.94-2.55-5.18-5.17-10.15-21.51-19.64-43.4-35.16-62a27.43,27.43,0,0,0-.59,14.33c4.19,21.18,5.71,42.9,13.74,63.31,1.6,4.05.65,9.1.87,13.69-6-.33-6-6.11-8.4-9.6-1.43-2.1-1.53-5.07-2.35-7.61-8.73-26.84-12.27-54.67-13.67-82.61-1-21-2.53-42.37,3.72-63,3.69-12.23,2.91-22-9.94-29-17.35-9.56-34-20.42-50.55-30.49-.75,10.38-1.59,20.22-2.13,30.07-.94,17.14-6.38,35.39,2.58,51a329.22,329.22,0,0,1,30.57,72.58c.78,2.68,2.41,5,.82,7.8-2.45-2.61-6-4.8-7.18-7.89-8.45-22.11-15.83-44.66-27.71-67.1,2.16,22.65,3.33,43.75,6.38,64.58,2.76,18.92,7.53,37.55,11.47,56.3.39,1.83,2.25,4.3-.06,5.16-1.79.66-3.48-1.45-4.45-3.71a174.68,174.68,0,0,1-13.3-53.12c-1.33-14.23-4-28.4-5.61-42.51-2.47-22.27-2.45-44.37-2.64-66.52-.12-13.31.51-27.22,4.33-39.78,3.1-10.19-2.91-11.52-8.23-14.71-2.8-1.68-6.29-2.2-9.41-3.42C619.89,952,609.9,948,597,943c8.42,10,14.13,17.73,20.74,24.53,6.89,7.09,10.38,15.56,14,24.52,8.14,20.1-.52,48.34-18.24,60.84a71,71,0,0,0-20.76,23.42c-5.86,10.44-4.59,21.15-4.35,32.62.36,17,.42,35-11.46,49.7-4,4.92-5.56,11.21-1.24,16.13,20.65,23.59,45.69,38.65,78.23,32.75,15.41-2.79,29.57.68,40.47,8.7,34.74,25.56,69.49,15.7,104.46,3a46.7,46.7,0,0,1,35.58,1.08C850,1227,864.8,1235.22,882.64,1233Zm-2-525.93c9.14-13.19-1.59-27.74-19.63-28-27.83-.43-43.16,19.3-60.79,36.51,18.82,5.55,36.6,5.74,54.21,3.09C863.93,717.25,875,715.25,880.64,707.1Zm-46.13,399.51c-7.29-11-11.1-23.84-20-34-9.06-10.36-17.2-21.55-25.5-32.56-17.12-22.7-38.43-41.12-60.54-58.58a403.09,403.09,0,0,0-90.86-53.89c-12.39-5.32-25.4-15.87-40.95-6.62-5.15,3.06-6.14,8.61-9.32,12.81,3.16,1,6.25,2.53,9.49,3.06,26.88,4.36,50.72,16.71,73.8,29.92a563.34,563.34,0,0,1,60.46,40,660.58,660.58,0,0,1,61.24,53.17C807.32,1074.48,821.69,1089.84,834.51,1106.61Zm-32.2-547.54c2.79-11.1,5.69-22,4.48-33.48-.29-2.7-2-4.93-5.68-4.75-12.17.62-18.34,8.45-22,18.62-7.12,20-5.74,39.8,2.32,59.18A93,93,0,0,0,802.31,559.07ZM721.79,690.42c.83-.08,1.17-5.73,1.74-8.91-2.85-16.42-5.13-33.09-13.25-47.62-3.75-6.7-10.79-15.29-19.81-12.22C683.1,624.18,683,633.35,684,641c2.44,19.22,13.65,32.66,28.24,44.19C715.29,687.59,717.93,690.77,721.79,690.42Zm-76.19-186c3.35-2.63,7.84-4.83,7.13-9.6-.85-5.63-5.93-8.53-10.85-9.58-20.31-4.34-53.13,11.67-63.47,30.52-.47.85-1.07,2.44-.73,2.77a4.79,4.79,0,0,0,3.05,1c10,.07,20.06,0,27.62,0C623,514.9,635.35,512.5,645.6,504.43ZM627.5,363.49c-.93-1-1.83-2.12-2.87-3.09-7.07-6.58-14.91-2-21.57-.15-21,5.94-30.61,23.81-40,41.49a39.41,39.41,0,0,0-1.56,3.72c1.27,0,2.55,0,3.82-.17,16-1.82,29.14-10.37,42.65-18.12C617.31,381.83,623.7,374.32,627.5,363.49Zm-20.06,681.88c15.49-14,21.3-28.56,16-48.52-3.28-12.47-12.13-21.41-20.15-31.19-12.2-14.88-27-26-42.6-36.72-13.3-9.16-28.6-13-43.82-15.2-12.46-1.78-27.25-5.1-37.9,3-14,10.56-25.47,24.39-37.94,36.9-.53.52-.38,2.73-.22,2.76,8.37,2,15.27,9.23,24.4,7.93,19.32-2.76,38.38-1.28,57.44,2.06,14.93,2.62,30.26,3.89,43.42,12.55.67.43,3.57.09,1.7,2.27-.82,1-2.59,1.89-3.7,1.67-14.13-2.78-28.22-5.8-42.32-8.71-16.72-3.46-33.6-3.32-51.83-2.83,3.25,1.77,5.31,2.66,7.13,3.9a355.4,355.4,0,0,1,33.87,26c20.15,17.59,38.48,36.72,53.66,58.78,1.2,1.74,2.06,5.94,1.36,6.4-3.18,2.11-4.21-1.37-5.94-3.22-16.74-17.83-32.27-36.83-50.93-52.8a24.44,24.44,0,0,0-3.56-2.16c-.1,1.4-.68,3-.24,4.18,7.77,21.27,15.85,42.43,23.33,63.8,1.08,3.11,2.63,8.83-.82,10.37-3.08,1.37-4.22-3.24-5.21-6.64a86.72,86.72,0,0,0-7.07-16.83c-8-15-12-31.27-16.58-47.41-1.68-6-.89-14.31-4.69-17.74-15.51-14-34.17-23.77-52-34.59-6.37-3.87-12-.63-16.48,3.86a263,263,0,0,0-18.23,20.12c-5.37,6.64-18.44,12.67-3.31,22.52.37.24.48.85.74,1.27,7.64,12.44,14.7,25.1,21.25,38.22a426.07,426.07,0,0,1,16.87,39.44c4.67,12.3,7.2,25,9.43,37.9,2.82,16.34,6.81,32.6,3.13,49.31-.37,1.69-2.09,3.09-3.19,4.62-1.18-1.7-3.46-3.45-3.38-5.09a151.6,151.6,0,0,0-4.24-43.57c-3.2-13-2.51-27.18-10.93-38.39-2.29,9.54-5,19-6.79,28.7-2.38,12.53-4.1,25.18-6.07,37.79-.36,2.29-1.65,3.9-3.84,3.43-1-.21-2.15-2.34-2.22-3.65-1-19.53,3.54-38.11,8.76-56.78,2.61-9.32,8.74-19.54,4.66-28.83-8.88-20.23-19.51-39.73-30.35-59-1.27-2.24-4.67-12.33-11.83-4.32q-3.72,4.18-7.09,8.68c-15.19,20.28-29.55,41.19-41.45,63.52-4.23,7.92-14.44,14-8.9,26.34,9.44,21.1,15.49,43.08,19.17,66.27,3.18,20,5.37,39.74,5.06,59.88,0,1.81.39,3.74-2.7,3.42-1.93-.2-3.35.15-3.49-2.67-.47-9.18-.43-18.51-2.16-27.47-2-10.21-.21-21.37-6.9-31.15-.72,4.13-1,7.65-2,11-3.67,13.24-10,25.77-10.69,39.78-.17,3.63-1.35,6.07-4.61,7.52-1.12-2.87-3.69-6.09-3.11-8.56,3.12-13.15,7.61-26,10.49-39.17,2.61-12,11.82-22.74,7.11-36.3-3.65-10.49-6.67-21.19-10.22-31.71-.65-1.92-2.48-3.44-3.76-5.15-1.25,1.49-2.88,2.79-3.67,4.49-7.87,16.9-15.52,33.9-23.38,50.8-10.23,22-16.68,45.33-22.49,68.64-5.2,20.88-7.11,42.6-10.38,64-.26,1.73-.78,4.84,2.57,3.81,7.61-2.33,15.54-4.3,22.48-8,8.21-4.4,15.31-10.82,23.26-15.78,17.15-10.7,37.26-12.16,56.31-15.47,22.27-3.87,36.56-16.74,49.3-33.37,10.58-13.82,22.69-26.17,39-33.07,25.52-10.81,53.7-10.14,80.06-17.83,15.36-4.49,37.69-25.94,41-41.71,3.4-16.33,1.52-32.69,2.07-49C577.86,1071.18,593.18,1058.22,607.44,1045.37Zm6.16-319.52c-5.27-2.79-10.35-4.65-14.46-7.79-13.59-10.39-29.3-15.12-45.56-19.27-8.18-2.09-20.36-.91-20.56-14.47-.41-29.28-6.08-57.32-18-83.11a39.92,39.92,0,0,0-5.28,3.85,253.71,253.71,0,0,0-43.93,59c-4,7.54-7.14,16.4-20.72,11.73-15.94-5.49-32.25-10.62-49.79-11.34-9-.37-18.44,3.07-27.35-1.07-.55-.25-2.28.56-2.34,1a8.65,8.65,0,0,0,.29,4.59c8.12,17.57,18.36,33.64,32.94,46.69,3.57,3.2,3.16,7.78,1.41,11.43a153,153,0,0,0-15.16,73.24c.06,1.64-1.14,5.2,2.05,4.36,7.83-2,14.88,2.22,23.19,1,17-2.4,33.16-7,47.59-14.93,12.1-6.68,19.42-7.68,28.14,4.29,10,13.72,21,26.92,36.81,34.93,10.3,5.2,14,3.29,14.09-8.39a29.49,29.49,0,0,1,1.11-6.19c2.84-12.55,1.82-25.64,1.6-38-.23-13,.16-17.43,13.82-20.7A141.15,141.15,0,0,0,613.6,725.85ZM542.8,884.94c2.47-5.53-.58-10-4.53-13.76-15.06-14.25-33.72-10.95-51.73-10.18-3.4.15-8,2.25-1.93,6.32,14.7,9.88,30.08,18.09,47.63,20.2C536,885.57,540.75,889.53,542.8,884.94Zm-36-546.44c2.66-13.91,5.36-27.85,4.17-42.27-1.52-7.28-2.24-14.85-4.76-21.76-3.84-10.47-14-14.44-17.61-7.59-5.72,10.86-5.08,22.82-2.34,34.45a139.14,139.14,0,0,0,14.79,36.74c.91,1.59,1.92,3.13,2.88,4.7C504.94,341.35,506.53,340.05,506.82,338.5ZM465.21,919.94c3.2-3.08,9.63-6.05,7.88-10.51-1.59-4-28.39.24-31.91,4.11-14.11,15.52-28.81,30.54-42.42,46.49s-27.35,32.19-39.09,49.61c-16.14,23.94-32.18,48.1-44.52,74.37-7.34,15.62-15.25,31-21.7,47-5.61,13.91-9.78,28.44-14.12,42.84-2.63,8.73-4.35,17.73-6.47,26.61,11-30.71,24.84-59.9,39.85-88.62,8.34-16,17-31.72,26.24-47.19,11.75-19.57,24.34-38.48,39.31-55.62q25.07-28.69,51.56-56.15C441,941.32,453.62,931.14,465.21,919.94Zm3.9-457.11c1.39-.38,5.65,1.31,3.14-3.05-10.09-17.59-20.1-35.34-37.13-47.5-3.87-2.77-8-6.11-13.31-3.09-3.65,2.08-6.76,6.06-6.11,9.48C419,436.15,451,462.31,469.11,462.83Zm1.34,91.72c-.34-6-4-10.29-7.4-14.73-.17-.22,0-.72-.15-1-10.55-15.59-22.48-29.33-43.41-32.1-5.48,2.48-6.06,7-3.79,12,6.93,15.21,17.66,26.75,33.95,31.84C456.34,552.74,463.5,553.3,470.45,554.55Zm-7.56,247.3c0-.07-.27-1.33-.53-2.6a38.64,38.64,0,0,0-3.85,1.29c-21.16,9.36-42.58,16.68-66.48,13.35-5.76-.81-16.11-1.12-9.37,11,.37.67-1.07,2.42-.68,3,4.9,7.4-18.2,22.61,6.75,24.38a16.88,16.88,0,0,1,6.09,1.49c17.59,8.65,35.51,16.84,48.42,32.49.66.8,1.93,1.09,2.92,1.62.26-1.21.57-2.41.77-3.63,1.82-11.51,3.26-23.1,5.51-34.53C455.52,834.06,459.21,818.57,462.89,801.85Zm-25,105.31c5-4.84,4.43-9.89.17-14-25.22-24.58-54.51-38.49-90.62-32-27.55,5-50.79,18.5-70.15,38.43-14.66,15.08-28.07,31.87-47.74,40.52-15.89,7-31.15,13.68-41.5,28.76-5.23,7.61-8.24,15.87-12,24-7.83,17-7.22,33.85-2.3,51.21a92,92,0,0,1-1.71,56.37c-5.1,14.66-13.25,28.54-16.42,43.53-3.52,16.64,1.5,32.1,12.83,46.44,10.35,13.08,20,26.82,30.53,39.88,8.64,10.73,17.4,21.45,25,32.92,7,10.55,10.06,23,13.14,35.2,1.55,6.18,7.59,7.42,12.07,8,3.53.42,1.43-4.83,1.68-7.46,1.19-12.28-.13-24.53,1.64-37,2.81-19.8,5.44-39.51,10.4-58.93,5.4-21.11,10-42.42,18.1-62.74,1.18-3,2.28-6,3.41-9a72,72,0,0,0-8,3.84c-7.3,4.65-18.82,6.39-20.79,14.87-3.59,15.45-11.57,28.12-19.8,40.89-1.49,2.31-5.94,2.71-9,4,.49-1.9.6-4,1.54-5.66,5.9-10.28,12-20.44,18-30.69.43-.74.23-1.84.32-2.78a8.31,8.31,0,0,0-2.39.61c-13.16,8.1-22.88,20.24-34.92,29.64-1.63,1.28-3.49,5.4-6.05,2.76s-.6-5.63,1.9-8c6.24-5.91,12.08-12.25,18.56-17.88a315.16,315.16,0,0,1,42.42-30.6c9.22-5.65,21.81-7.55,26.69-19.24,4.4-10.51,7.5-21.66,12.79-31.68,11.24-21.24,22.69-42.44,37.91-62.35-6.32,1.5-11.64,2.9-17,4-9.39,2-18.76,4.12-25,12.18-13.78,17.73-30,32.85-47.87,46.39-2.22,1.68-3.93,2.07-5.38-.08s.76-3.35,2.12-4.65c13.88-13.3,27.74-26.61,44.21-42.42-6.52,1.69-9.06,2-11.34,3-29.53,12.58-55.84,30.28-80.64,50.49-2.66,2.17-7.42,6.09-10.27,3.24-2.3-2.31,2.95-4.88,5-7,9.1-9.36,20.09-16.4,30.22-24.48,9.66-7.72,20.08-13.94,30.64-19.85,9.38-5.25,20.07-8.13,29.93-12.61,12.05-5.49,24.86-8.45,37.32-12.57,8.52-2.81,18.89.14,25.62-8.68,15.54-20.37,31.46-40.45,47.09-60.49-7.2-.78-14.78-2.7-22.19-2.2-18.15,1.23-31.17,14.75-47.23,21.28C313.94,970.6,300,979,284,982c-1.32.25-2.89-.77-4.34-1.2,1-1.28,1.68-3.12,3-3.76,5.55-2.75,11.31-5.07,16.93-7.69,17.71-8.26,35.4-16.59,53.81-25.23-1.21-.58-1.62-.93-2-1-20.52-.89-40.6,3-60.67,6.26a89.79,89.79,0,0,0-10.3,1.79q-25.72,7.32-51.27,15.28c-2.43.76-3.62-.08-4.59-1.44-2.17-3,1.57-2.19,2.32-2.63,11.42-6.71,24.08-10.13,36.51-14.48,20.29-7.09,41.09-10.45,62.05-12.63,16.39-1.71,33.09-.41,49.66-.33a85.76,85.76,0,0,1,8.71.92c-1.42-3.68-5.55-3-8-4.95-17.16-13.61-37.54-21-57.07-30.17-3.32-1.56-10.59-1.84-9-6.4,1.18-3.32,8-1.34,12.53-.32,8.62,1.92,15.36,7.62,23.26,10.69,19.8,7.72,36.71,20.13,54,32,3,2.08,5.25,3.58,8.36.43C417.77,927.1,427.72,917,437.88,907.16Zm-68.75-65.79c4.13-13.71,1.61-26.43-2-39.72-7.38-27.39-20.37-49-49-59.07-31.28-11-61-8.92-89.34,7.85-11.32,6.69-21.42,15.42-32.63,22.31-18,11.06-38.34,12.12-58.87,12.46-15.59.26-28,7.75-37.83,19.71-8.24,10-17.17,19.42-25,29.73A52.34,52.34,0,0,1,64,844.8v22.08a197.71,197.71,0,0,0,21.06-6.73c20.37-8,41.78-9.3,62.81-13.22,1.34-.25,2.69-.54,4-.82-.49-1.88-1.53-2.77-3.6-3.34q-16.83-4.62-33.5-9.81c-2.07-.64-5.55-2.63-5.4-3.45.56-3.1,3.73-2.66,6.15-2.54,12.41.62,24,4.6,35.37,9.15,6.62,2.65,12.84,7,19.68,8.24,5.38,1,11.39-1.77,17.18-2.39,17.07-1.84,34.17-3.39,51.23-5.26,1.38-.15,4.86-1.09,3.52-3-4.23-5.89-9-11.73-16.87-12.83-16.19-2.26-32.79-2.12-48-9.62-2.72-1.33-4.62-3.09-3.77-5,1.23-2.84,4.09-1,6.44-.38,11.31,2.79,22.66,5.39,34,8.06l.82-2.46c-8.39-4.78-16.62-9.85-25.24-14.15-2.54-1.27-5.53-2.49-4.56-4.91,1.22-3,5-1.84,7.55-1.06,19.53,6.08,36.28,17.06,50.47,31.44,7.34,7.44,13.4,15.39,25.44,12.17a21.77,21.77,0,0,1,6.65-1c16.25.91,32.51,1.86,48.74,3.12,4.37.33,4.84-.67,2.71-4.17-4-6.56-6.51-17.23-12-19a158.1,158.1,0,0,1-44.46-22.91c-1.66-1.22-1.84-4.45-2.7-6.75,1.12-.11,2.51-.7,3.32-.25,11.15,6.15,22.2,12.46,33.31,18.66a2.85,2.85,0,0,0,2.23-.1c.27-.12.4-1.35.13-1.78-2.05-3.21-3.62-7.09-6.45-9.38C285,779,272.9,762.54,254,754.73c-.79-.33-1.06-2.94-.89-4.41.3-2.47,1.9-.84,3-.55,10.1,2.72,18.43,8.54,26.54,14.88,18,14,33.34,30,43.66,50.82,6.35,12.77,11.78,28,29.47,28.81C359.55,844.46,366.13,851.35,369.13,841.37ZM364,599.53c.7-2.14-8.57-2.22-13.41-2.59-.55,0-1-.76-1.6-.94-14.93-4.8-29.91-5.77-45.65-3.79-6.26.79-14.22,7.65-20,0-14.21-18.66-26.81-38.58-43.5-55.3-2.21-2.2-3.06-3.15-5,.78-10.11,20.87-15.67,43.06-19.7,65.68-1.83,10.21-2.87,20.2-16.62,15.29-20.34,1.13-39,5.27-56.75,13.46-19.69,9.08-19.84,9.28-5.44,24.87a28.89,28.89,0,0,0,7.31,5.76c13.11,7,24.33,17.33,39.68,20.66,6.81,1.48,20,1.31,11.73,16.09-10,17.89-11.71,37.85-11.9,57.92,0,2.42,1.37,4.86,2.1,7.29,2.57-.82,5.51-1.11,7.64-2.58,6-4.1,11.11-9.66,17.46-12.91,18.58-9.52,34.24-21.48,43.45-41.05,2.85-6.06,6.71-16.8,16.59-5.41,1.89,2.18,4.67,3.65,7.19,5.21a349.66,349.66,0,0,0,57.66,28.36c1.82.7,1.7.6,2-1.44,1.68-10.61,2.74-21.14-.36-31.65-2.86-9.67-6.9-18.92-10.41-28.34-3.46-9.26-22.9-17.45-3-30.07,10.23-6.48,19.34-15.14,27.71-24A58.61,58.61,0,0,0,364,599.53Zm-31.11-136.7c.15-9.67-9.29-14.94-19.05-13-21.65,4.31-36.58,17.43-47.73,35.65-.61,1-.54,2.4-.79,3.61a28.19,28.19,0,0,0,3.55.11c15.28-1.44,30.4-4,44.4-10.42C321.46,475,330.83,471.89,332.91,462.83ZM310.59,861.94c12.45-2.8,23.6-10.79,40.66-11.66-51.78-12.62-99.91-7.27-148.1-.38,6.52,1.7,13.16,3.21,19.7,2.88,21.17-1.07,42,1.91,62.72,5C294,859.09,303,863.66,310.59,861.94Zm-47.48,36.4c9.52-12.66,23.83-19.84,35.3-30.72-8.45-1.1-16.53-1.91-24.52-3.26-9-1.51-18.47-5.2-23.07,7.26a29.13,29.13,0,0,1-3.76,7.82c-20.74,27-47.64,47.1-75,66.7-.91.65-2.45.42-3.69.6a22.94,22.94,0,0,0,1-2.2c2.75-8.27,10-12.41,16.08-17.6,5.82-4.94,11.45-10.1,17.16-15.16-1.27-.06-1.94,1.08-2.54,1.05-12.69-.67-24,4.54-35.76,8-.72.21-1.83-.9-2.76-1.39.84-1.47,1.31-3.69,2.57-4.29a130.16,130.16,0,0,1,33-10.8c6.08-1.14,13.09,1.32,18.58-3.43,12.16-10.54,20.38-24.4,30.88-36.33a10.11,10.11,0,0,0,1.25-3,26.9,26.9,0,0,0-3.31-.47c-11.78-.13-23.69.81-35.28-.73-6.14-.81-12.85-2.28-17.66.12-5.66,2.81-9.12,9.7-14.24,14-19.31,16.1-41.67,27.7-62.36,41.77-2.21,1.5-4,.72-5.37-.46-2.13-1.81.46-3,1.36-3.79,7.67-6.31,15.5-12.42,23.45-18.73-11.65-.65-23.25-.06-34.53,4.94-3.16,1.4-8.39,3.55-10.7.28-2.19-3.11,2.13-4.35,5-5.73,12.29-6,25.64-9.19,38.69-7.36,17.8,2.5,28.43-8,40.17-17.43,2.16-1.74,3.7-4.24,5.53-6.39-3.26-.07-6.57-.53-9.78-.14-27.21,3.33-54.61,5.07-81.42,11.52-7.74,1.86-15.54,3.44-23.36,5v41.33a28,28,0,0,0,5.62,2.1c13.37,3.16,26.75,7.5,37.71,17,17.19,14.86,28.91,35,47.2,48.75,4.05,3.06,11.77,5.47,12.37,3.09,5.79-22.66,19.69-39.32,39.28-51.19,8.13-4.92,17.85-7.25,25.95-12.22A112,112,0,0,0,263.11,898.34Zm23.78-173.81a71.24,71.24,0,0,1-22.29-14.7c-1.3-1.21-3.13-1.63-3.65,1-1.38,6.91-5.33,12.43-9.65,17.42ZM216.83,445c1.71-21.91,6-44-2.17-65.48A19.93,19.93,0,0,0,202,367.91c-1.67-.56-5.5,1-6.2,2.62a157.11,157.11,0,0,0-5.52,15.06c-.91,24.23,6.91,41,18.69,56.19,1.28,1.66,4.21.71,4.69,4C214,447.74,216.64,447.33,216.83,445ZM195.69,510.8c6.84-4.1,0-6.44-1.87-8.18-12-11.3-27.1-17.78-42.25-22.95-6.37-2.17-17.28-4.84-21.88,1.25-5,6.61-1.17,16.52,5.7,21.2,10.89,7.43,23.21,12.57,38.26,12.64,4-.52,9.31-1.12,14.61-2C190.8,512.4,193.57,512.07,195.69,510.8ZM56,1618.34V61.66l-48-48V1666.34Z"/><path d="M515,754.11c1.89,1.38,5.27,3.45,3.31,5.94-1,1.33-5.57,1.25-7.71.17-12.93-6.49-25.13-14.73-39.52-17.71-11.62-2.41-23.44-3.91-35.24-5.32-3.93-.47-7.95-.1-10.67-3.44-.67-.83-.48-3.6.29-4.17,3.84-2.89,8.72-3.92,13-2.28,3.73,1.45,8.55,2.58,9.77-.08,1.67-3.63.43-8.66.21-13.09-.34-6.63-1.36-13.28-1-19.86.08-1.5,3.67-9.81,7.61-1.28A24.19,24.19,0,0,1,457,700.5c.32,3.13.08,6.32.08,10.66-2.6,5.07,3.47,10.81,1.28,17.15-.07.19,3.68,2.06,5.79,2.57,7.49,1.81,7.28-5.13,8.54-8.81,5-14.57,9.23-29.41,16.6-43,.61-1.14,3.76-2.29,4.44-1.77,2.91,2.23,2.08,5.77,1.14,8.52-5.07,14.92-10.5,29.71-15.62,44.61-.43,1.23.52,2.94.83,4.44,2.8-1.17,5.81,4.31,8.41-.14,6.48-11.09,14.9-20.53,24.37-29.08,1.26-1.14,2.1-4.11,4.64-1.7,2.21,2.09,2.53,4.74.68,7-7.63,9.36-15.64,18.41-23.07,27.92-2.5,3.2,2.18,3,3.38,3.9C503.76,746.82,509.6,750.16,515,754.11Z"/><path d="M283.12,653c4,.13,9.86.19,9.44,5-.4,4.52-6.18,2.87-10.05,3.48-14,2.17-28.45,2.23-41.21,9.88-7.14,4.28-14.74,7.8-22.26,11.42-1.14.55-3.3,1.28-4.15-1.13-1.5-4.21,2.19-7.16,4.28-7.87,12.85-4.41,10.21-10.74,3.72-19-3.9-4.94-6.59-10.88-9.46-16.55-.82-1.62-1.7-4.12,1.06-5.54s4.47.4,5.73,2.21c5.75,8.27,11.21,16.74,17.07,24.93.67.93,3.19.54,4.85.76.07-2,3.8-.34,3.2-4.16-2.57-16.27-4.36-32.66-6.38-49-.34-2.76-.15-5.73,3.19-6.36,4.12-.79,3.28,3.34,3.66,5.13q5,23,9.14,46.12c.58,3.27,2.39,2.45,4.19,2.56,2.06.13,4,.32,3.83-2.87-.67-11.61,1.12-22.94,3.91-34.18.93-3.73,2.21-8.6,5.77-8.46,4.9.19,1.13,5.47,2.77,8.37-1.25,11.09-5.57,21.92-4.47,33.48.3,3.18.6,3.94,3.87,2.72A22.39,22.39,0,0,1,283.12,653Z"/></svg>