<svg xmlns="http://www.w3.org/2000/svg" xmlns:xlink="http://www.w3.org/1999/xlink" viewBox="0 0 976 1600"><defs><style>.cls-1{fill:none;}.cls-2{fill:#f4f3ef;}.cls-3{clip-path:url(#clip-path);}.cls-4{fill:#6060bf;}.cls-5{fill:#50b271;}.cls-6{fill:#ffb85a;}.cls-7{fill:#592116;}.cls-8{fill:#992d17;}</style><clipPath id="clip-path"><path class="cls-1" d="M960,22V1578a6,6,0,0,1-6,6H22a6,6,0,0,1-6-6V22a6,6,0,0,1,6-6H954A6,6,0,0,1,960,22Z"/></clipPath></defs><g id="Paper_Backing" data-name="Paper Backing"><path class="cls-2" d="M960,22V1578a6,6,0,0,1-6,6H22a6,6,0,0,1-6-6V22a6,6,0,0,1,6-6H954A6,6,0,0,1,960,22Z"/></g><g id="Wikipedia_Cropped" data-name="Wikipedia Cropped"><g class="cls-3"><path class="cls-4" d="M459.48,1054.8c-43-41.09-105.33-64-118.88-134-6.8-6.39,1.09-28.86-13.67-20.81-33.49,37.35-98.32,44.51-147.65,56.86-10-1.43-32,18.23-30.68.56C128.67,900.06,184.48,760.65,260.89,767c20-.94,56.9,36.82,25,44.47-30.23,12.48-77.76,37.83-83,64.62,40.45-2.91,139.87-116.69,146.35-15.14,1.7,17,23.17-5.87,27.9-5.35,39.16-28.26,63.09,65.07,74,96.92,9.22,20.27,2.05,51.11,16.22,64.76,19.89-22.92.72-70.28-5.87-100.81-14.88-57.67-76.91-96,26.19-87.53,23.14-.84,44.36,38.67,54.63,6.67,16.66-40.36,73.76-2.9,103.92,6.32,17.05,4.46,29.81,25.09,44.09,20.35-9.39-33.72-66.76-52.17-95.94-58.11-11.15,2.86-28.21-1.47-21.34-15.3,61.7-145.91,172.61,3.44,161.85,99.75,1.2,10.71-5.06,20.58-6.33,29.75,1.67,5.49,10.54,18.15,1.63,20.42-57.49-8.29-119.3,12.61-173.43-15.45C543.22,975.22,509.15,1032.11,459.48,1054.8ZM404.59,810.86c-28.5-37.73-31.8-96.19,1.22-131.38,14.43-13.58,41.37-5.86,37.24,15.66C442,731.41,425,783.18,404.59,810.86Zm-88.5-59.92c-22.59-32.07-21.37-98.89,6.4-131.68C402.42,559.84,341.15,732.3,316.09,750.94Zm218.28-60.29c-73.53-27.21-51.84-160.25-10-82.34C529.61,630.4,545.91,672.07,534.37,690.65Z"/><path class="cls-5" d="M637,1604c-31.26-.09-83.68,0-115.32,0-4.74,0-4-5.76-4-9,0-3.83,5.71-4.33,5.46-8.49C535.45,1373,522,1155.84,557.26,944.33h0c-.31-32.73,19.24-10,37.58-6.75,15.14-1.53,12.68,8.89,28.45,3.45,27.37,1.54,50.48-5.36,77.2-3.88,9.71,5.94,16.71,1.76,26.85,5.05,10.37,2.13,8-11.79,7.69-18-5.7-12.68,7.1-28,1.71-39.43-6.72-27-8.22-55.06,16.54-74.35,55.41-62.15,122-124.93,207.05-141.06,3.54.39,4.81,5.39,1.73,7.31-34.22,23.41-55.09,53.49-83,81.14-65.89,79.72-121.95,167.5-159.56,264.1-22.18,68.69-54.83,153.09-43.31,223.69,30.82-25.54,52.1-80.3,84.1-107.38,46.49-53.39,108.2-99.73,177.77-119.34,4.74-1.9,17.88-5.62,13.17,3.94-76.43,65.06-142.67,149.26-187,236.21-17.82,37.83-50.27,100.27-41.14,137.33,46.77-54.31,98.71-118.23,159.27-159.23,24.86-22.47,112.42-67.36,38.5-5-91.1,92.52-148.76,230.65-155.75,359.61C792.4,1618.8,639.35,1597.61,637,1604Zm-229.48,0c-55-.94-165.47.53-218.63,0-9.73-15-7.68-40.14-19-60.13A461.64,461.64,0,0,0,81.36,1398.5c-15.65-29.45-125.51-103.64-11.9-51.29,70.09,35.57,134.1,99.92,164.68,174.26,10.84,16.4,10,43.56,24.59,54.67,10.68-1.37,4.68-19.29,6.29-25,.58-57.36-.21-116.48-9.9-173.76-12-94.31-32.46-182.21-71-270.45-22.22-32-62.94,205.9-68.09,216.59-22.78-90-48.08-220.69-.15-308.49,14.28-22.21,34-14.24,52.45-10.67,56.71-32.37,81,59.68,104.4,95.55,22.2,13.26,4.19-32.41,3-42.35-31.41-161.67-53.55-82.83,41.26-145.84l-.05,0c6.67-6.54,17.26-14.81,18.1,1.46,1.2,31.55,18.24,47.9,30.42,74.06,10.3,32.58,22.78,63.6,33.51,96,44.84,135.53,65.37,273.62,69,414.16-.52,29.84,5.5,59.9,1.27,89.7-1,4.83,5.81,5.47,6,9.61.22,2.66,0,7.55-4,7.27ZM191.88,794.42c-42.71-70.07-75.22-155.19-129.14-220.86-2.31-2.82-4.9-9.55,1.2-9.9,72.31,49.63,139.41,116.2,186.59,198.52-11.68,6.79-30.65,8.21-40.37,18.13C203.63,784.84,200.08,792.36,191.88,794.42ZM695.9,759c-17.71-13.67-35.72-34.64-60.47-31.69-8.3.22-21.14,11.15-27,5.82,21.95-111.05,71-226.41,145.2-314.6C769.32,393,945.56,235.35,963.54,266.35,823,396.3,738.66,574.38,695.9,759Z"/><path class="cls-6" d="M457.16,1153.38c-24.38-4.5-24.5-44.72-15.36-62.21-5.34-11.47-13.2-22.24-10.31-35,2.36-41.79,28.43.93,34.58,17.44,3.68,15.32-4.21,13,4.88,28.11C481.71,1120.05,484,1149,457.16,1153.38Zm10.76-122.73c-17.61-58.14-18.38-136-69-181.26-22-4.25-.39-25.15,9.62-37,7.4-16.26,12.57-36,22.92-50,16.21,9.46,17,38.53,19.61,61.29-1.08,12.15-23.55,8-25,21.63C459,891.28,487.87,974.94,467.92,1030.65Zm-258.32-154c-24.7-11,66.27-66.62,85.61-65.66,15.36-3.48-11.27-35.93,15.62-49.05,15,3.46,4.51,27.43,9.42,38.07,3.33,4-.87,11-2.11,15.7C286.69,832.15,246.31,852.55,209.6,876.61Zm478.82-9.53C653.84,844,614.72,824,572.26,819.83c-7,.9-14.94-12.33-19.09-.54-7.13,7.33-12.1,28.41-20.46,29.57-10.51-3.92-17.51-15-31.23-16.29-3.38-.75-8-3-9-13.59-2.5-30.77,15.15-53.67,30.46-74.25,7.73-.62,5.46-10.14,6.73-15.51,13.7-87.93,41,48.27,40,72.25,15.57,5.16,33.2,3.25,49.3,9.61C634.24,815.16,713.44,856.65,688.42,867.08Z"/><path class="cls-7" d="M978.64,1190c-59.15-13.91-235.81,153.48-259,212,28.47-135.46,105.33-255.27,205.53-349,14.31-13.44,28.33-27.6,46.53-36.22,2.27-1,2.78-5.64,0-6.41-131.09,8.77-233.7,130.65-296.7,236.33,14-207.39,116.93-399.19,262.28-544.82,10.82-11.3,22.06-22.82,37-29.33,2.54-1.18,3.23-5.81.57-7.27-22.4-4.6-44.15,5-64.38,13.65-72.21,29.53-128.7,87.21-177.43,145.93-5.18-9.2-6.38-20.3-10.79-29.91-19.4-35.37-20.46-34.13-10.32-75.33,10.13-34.66,18.58-69.75,29.62-104.24,34.9-90.74,80.86-176.85,141.46-253.2,29-34.57,55.83-72.2,92-99.84,3.74-1.83,5.16-7.6,1-10.14-56.73,10.45-102,53.14-147.24,86.63C761.78,390.5,708.64,458,671.65,534c-26.22,51.81-45.9,107.23-62.08,162.76-6.23,30.46-21.75,55.6-37.92,79.53-1.68-18.39-8.8-37.86-12.31-56.22-2.32-12.19-14.24-18.49-15.9-31.82-3.88-31.18-4.77-63.29-20.37-92-9.39-23.75-38.75-19-42.34,6-2.56,31.62,12.58,65,38.07,83.91,11.36,7.3,19.24,9.52,10.12,25.39-3.54,11.24-1.89,24.09-11,33.59-20.23,21-31.54,45.55-29,75.39.08,1,1.34,3.18-1.55,3.09-53.83-1.24-18.81,5.42-41.41-50.44-2.34-6.76-9.84-13.06-9.49-17.39,4-24.23,18.22-48.64,9.47-73.87-6.42-22.18-38-17.47-48.52-.84-8.05,10.58-12.12,22.52-15.22,35.68-5.92,25.15-1.51,48.43,5.54,72.37,3.25,11,21.14,20.35,7,33.94-8.32,8-3.46,23.27-17.81,27.63-8.08,2.46-15.15,8.19-22.73,12.47,5-21.79-11.89-42.17-30.7-52.1,4.71-8.74-.88-17.26-.42-25.91.82-15.73-4-31.56,7.09-46.42,20.51-33.49,33.66-72.37,38.81-111.52,1.14-11.15-11.05-27.61-21.27-26.18-21.5,3-45.26,27.29-46.59,48.48-1.16,18.38-6.18,36.22-2.78,55.34,2.45,13.75,4.3,27.71,9.28,40.58,3,7.87,3.29,12.47-3.56,17.49a17,17,0,0,0-5.63,8.25c-5,14.87-11.64-5-27.05-8.76-5.39-2.17-12.2,1.53-16.28-4.68-44.78-68.12-98.68-131.08-164.29-179.89-10.57-6.33-59.56-50.61-66.07-43.76-2.27,3.21,1.57,5,3.48,7,28.57,26.72,50.82,58.27,70.49,92,28.25,48.69,58,96.57,79.75,148.72,2.65,5.86,10,12.44,5.83,18.71-22.38,31.94-36.13,69.68-42.93,107.87-3,17.64-3,35.79-3.84,53.75-.26,5.82-1,15.46,8.6,12.21,9.35-3.15,18.52-7.42,27.89-11,20.33-7.76,42.66-6.11,62.92-14.1,4.65-1.83,8.7.44,10,5.7,13.15,53.2,25,104,36.63,158-10.47-19.88-16.81-34.7-26.8-53.15-8.83-14.73-18.93-28.72-27.44-43.62-11.82-20.68-32.25-30-50.77-21.13-21.42,14-34-11.73-57.1,4.9-26.15,21.53-33,58.05-34.67,90.4-.52,18.76-3.17,37.47-3.32,56.22,1.58,32.89,6,66,10.06,98.72,3.09,19.74,6.95,39.43,11.75,58.83,3,12.23-.79,28,16.17,35.59-1.61-5,.7-8.37,1.25-11.85,5.55-31.94,6-65,15.65-96.13,13.6-42.15,22.65-85.58,40-126.55C204.51,1158,219.33,1216.37,231.9,1274c23.95,100.8,31.52,199.92,29,304.12-22.54-77.37-63.1-146.56-126.63-196.47-38.51-28.88-81.18-54-128.65-64.29a13.16,13.16,0,0,0-13.41,4.68c-1.68,2.28,1.69,6,4.82,6.61,34,12.84,71.2,62.27,95.21,90.27,42.53,52.85,72.2,115.18,90.73,180.28,1,2.4,5,3.76,5.87.76-2.76-35-19.42-67.11-33.2-98.91-32-64.52-78.56-120.19-132.39-167.85,73,21,132.59,73.65,177.15,133.47,26.13,39,41.34,84.09,56.44,128.19.52,1.39.19,3.33.06,5.1-.12,10.68,12.16.42,11.21-6.28,5.43-120.89-5.94-242.69-35.8-360.06-13.13-46.14-27.87-92.17-48-135.83-1.32-2.84-1.18-4.52.12-7.44,5.23-11.65,9.76-23.61,15.16-37,63.9,113,97.66,238.91,106.91,367.75,4.06,58.32,1.77,118.12,6,175.81,8.48-4.56,3-49.67,4.49-61.22a1062.94,1062.94,0,0,0-33.74-302.23c-9.49-46-29.5-88.74-48.63-131.27-8.32-17.44-16.6-35.24-29.15-50.33-2-2.36-2.71-3.57-1.34-6.65,4-9,7.29-18.3,11.06-27.4.5-1.19,1.51-4.27,3.7-1.75,14.34,15.36,22.69,34.89,33,53,40.2,71.73,63.56,151.77,81.21,231.6,11.25,65.12,17.77,131,21.22,197,3,33.18.9,70.15,6.35,102,8.07.77,3.29-51.89,4.23-59.92-2.36-62-6.09-124.45-14.33-186-9.07-71-30.82-139.34-51.16-207.58-9.37-35.66-14.94-72.15-24.41-108-3.57-15.69-6.82-31.45-10.71-47.06-3.71-14.89-8.08-29.61-12.1-44.43-.08-.3.59-1.14.94-1.16,6.91-.42,12.82-4.07,19.24-5.81,7.17-1.94,18.37-10.59,19.06,7,18.14,43.48,30.67,89.21,41.55,135.16,27,93.12,41.15,189.65,53.44,285.38,7.17,60.37,8.4,121.4,12.51,182.05,1,16.09,2.54,32.15,4.07,48.21.2,1.91,1.91,3.63,2.8,5.29,6-9.08,1.16-20.85,1.54-31.09-1.32-22-3.09-43.89-3.75-65.87a2020,2020,0,0,0-47.09-369.61c-17.79-66.11-33.29-132.78-59.26-196.3-2.21-6.31-1.82-11.84,6.43-15.28,7.48-3.12,13.92-8.81,20.67-13.58,1.52-1.08,1.75-4.42,4.34-3.54s2,3.74,2.23,6c1.57,14.49,4.83,28.49,11.36,41.69,5.67,11.46,15.14,20.24,19.22,33.14,10.21,32.32,22.88,63.86,33.53,96,44.14,132.7,65.32,273.22,68.78,412.73-.81,19.41,2.37,39,2.89,58.46.31,11.51-1.1,23.06-1.85,34.58-.27,4.47,3.2,6.24,6.2,6.44,2.29,0,4-2.68,4-5.64,0-35.29,1.26-70.65-.62-105.84-2.44-53.56-1-107.14-2.75-160.68-3.89-48.85-7.48-97.93-13.85-146.52-1-8.46-7.63-20.5,9.55-21.25,3.69-2.93,6.19-4.3,7.35,1.34,23.53,120.46,19,243.65,21.71,365.53-3.11,23.92-.51,47.8-1.35,71.67,0,1.18,1.77,2.42,2.73,3.64,1-.8,2.84-1.53,2.91-2.4a681.35,681.35,0,0,0,2.81-95.93c1.11-105.32-3.1-210.36-15.2-315-1.23-10.81-2.62-21.76-5.57-32.19-2.62-9.26,1.56-17.45,1.83-26.2.55-17.91-15.5-29.8-13.52-49.94,3.13-33.35,35.09-46.36,52.53-71.38,8.11-10,13.18-21.52,22-34.29-13.16,70.27-11.4,137.89-15.13,208.63-.61,37.47-6.19,74.42-4.64,112.07,1.76,18.36-2.25,37.22-2.79,55.88-3.14,80.44-1.44,160.47-4,240.92-3.16,8.39,7.77,7.63,7.91-.26,6-124.42,5.59-249.29,11.61-373.81,2.12-95.54,6.29-191.67,25.16-285.68a163.42,163.42,0,0,0,30.69,12.23c3.93,1.11,13.92-3.4,12.56,8.12-8.76,52-7.44,120.88-14.45,179.89-14,52-23,105.1-28.4,158.7-8.78,101.57-21.51,204.73-4.75,306.15,2,6.29,7.62,4.55,6.89-2.07-1.9-17.11-4.23-34.22-5.12-51.39-.85-16.67-.11-33.41-.12-50.13,2.77-160.42,19.12-323.32,79.33-472.89,7.63-20.57,17.27-40.46,27.19-60.06,2.89-5.7,2.33-15,10.41-16.57,7.81-.67,19.18-2.19,26.21,1.56-42.91,83.28-83.33,222.27-93.3,340-1.84,31-4.2,62-5.9,93-1.24,20.81,4.23,41.25-3.25,62.65-8.5,24.34-12.55,50.47-16.44,76.13-.25,10-14.17,91.36-4.38,86.82,6.13.1,4-13.83,5.7-18.3,3-53.92,16.11-106.37,28.29-158.73,6.74-35.33,21.48-68.07,34-101.5,13.26-36.48,32-70.13,53.73-102.1,56.79-90.5,139.78-173.17,245.63-200.79a785.86,785.86,0,0,0-187.53,237c-27.16,47.52-41.31,101.49-49.08,155-23,46.35-68.21,137.36-55,187.69,5.86-1.76,3.93-6.79,4.56-10.77,5.62-53.08,24.85-103.32,47.94-151.08a504,504,0,0,1,127.89-158.45c34.06-28,67.58-60.64,109.71-75.76-86.53,67.48-136.18,173.09-167.62,276.89-5.71,26.55-29.25,99.52-13.35,120.26,6.34-4.67,3.13-25.3,5.35-33.75,5.78-57.74,26.86-112.61,47.44-166.45,33-78.7,81.44-156.1,153.6-204.06C974.72,1195.09,980.64,1194.66,978.64,1190ZM204.83,1024.09c-16.26,41.61-37.76,81.17-50.44,124-16.85,56.08-34.51,112.77-38.79,171.41-6.52-56.94-23.36-113.64-22-171.19,2.26-26.06.26-52.29,5-78.28,5.09-27.3,20.5-77,56.13-65.11,9.24,3.8.16,8.14-.68,9.47-23.76,40-48.25,126-35.78,170.48,7.79-6.89,3.76-17,4.79-26.07,2.81-48.64,14.89-97.63,38-140.66,8.63-15.83,35.51-26.22,49.17-8.67C212,1011.64,206.93,1019.14,204.83,1024.09Zm406.4-298.28C638,635.88,667.21,545,721.41,467.33c50.16-75.4,155.42-171.11,239.38-203.88C825,393.52,730,566.67,697,752.07c-.41,2-.41,4.44-2.77,1.51-9.7-12.07-22.73-19.39-35.82-27.08-5.24-3.08-.14-10.72,1.24-15.25C679.23,641,706.55,573.75,739.4,508.7c10.87-18.53,20.85-39.06,34.41-55.4.61-2.3,3.36-6.05.93-7.72-31.37,34.55-52,77.78-70.58,120.5-15.27,31.13-26.94,63.95-37.22,97.12-6,18.15-12.75,36.1-17.32,54.6-3.3,13.37-13.27,1.56-19.06,6.65-2.63,2.31-9.26,1-13.46,4.31C613.73,731.41,609.93,733.05,611.23,725.81Zm-34.47,64.34C616.9,682.73,704.7,744.21,724.64,828.9c1.47,5.78-.94,12.73,1.09,18.14,7,20.68,6,38.52,2.94,60.42-24.23-59-78.7-104.06-142.1-106.67C581.11,799.63,572.57,802.38,576.76,790.15Zm-9.29,22c1-4.47,7.19-5.42,10.68-4.76a171.58,171.58,0,0,1,105.31,47.2c3.47,2,6.1,3.95,7.27,8.09-6.1,2-8.19-4.11-11.44-6.49-25.15-18.52-54.61-27-83.43-37-6.68-2.3-14.22-2-21.29-3.28C571.9,815.46,566.39,817,567.47,812.15ZM519.69,677.86c-18.48-14.33-52.26-80.36-15.38-89.4,23.09,10.32,29.12,74.93,30.06,98.19C529.42,683.78,523.59,681.78,519.69,677.86Zm13.63,55c1.23-10.18,2-20.72,6.86-30.57,9.85,11.28,14,25.09,16.68,39.33,2.28,20,15.24,51.24,1.33,68.27-2.4,2.32-5.55-.7-6.77-2.47C536,784.92,530.06,759.78,533.32,732.88Zm-14.87,25.93c2.2-2.88,3.18-6.7,4.72-10.08,1,24.45,9.38,47.36,24.68,65.28,4.68,6.83-3.6,9.3-5.71,13.52-13,34.85-8,6.6-39.8,1.13-4.2-.93-5.35-4.74-5.83-10C494.36,794.91,505,776.51,518.45,758.81Zm-71.4,64.86c0,3.84-2.5,2.9-4.37,3.69-6.73,2.87-13.56,5.59-20.14,12.92,1.76-7.57-.37-13.12-3.92-16-10.36-8.31-5.47-16.7-.66-24.27,6.59-10.64,8.27-23,14.26-33.75C443,782.45,446,804.13,447.05,823.67Zm16,168.21C456.33,942.09,439.66,891.66,408.3,852c0,0,.68-.83,1-.79,7,.84,14.56-3.17,20.19,5.41,13.07,19.89,21.89,41.72,29,64.08,5.5,17.38,7.9,35.69,11.07,53.75s-1.78,34.86-1.59,52.24C466.3,1015.06,464.64,1003.48,463.07,991.88Zm-1.75,94.92c-6,5.76-11.86,2.89-17-1.64-7.28-6.45-7.77-15.66-9.6-23.19,1.38-4.67.87-26.43,7.93-18.29C449.53,1053.38,469.65,1074.94,461.32,1086.8ZM387.57,734.85c.85-23,12.51-65.38,43.83-56.7,9.78,3.85,7.4,13.18,7.6,21.12.44,20.61-6.75,39.49-13.73,58.34-6.84,16.31-11.78,34-20.52,49.25C391.83,784.91,385,760.11,387.57,734.85Zm18.5,86.37,9.39,13.61c-.63,4.74,2.25,10,.63,9.13-7.83-4-19.15,6.08-21.91-1.42C391.9,836.36,399.81,827.3,406.07,821.22ZM305.2,684.9c2-22.37,3.13-45.49,20.15-62.84,7.59-7.74,16.7-15.77,28.91-8.84,16.57,14.48-13.9,85-21.78,104-2.17,2.31-16.43,37.75-17.5,27.48C308,725.83,303.9,705.17,305.2,684.9Zm6.49,80.9c6.34,3.32,1,29.47,5,35.91.86,1.78,2.07,7.31-1.45,7.3s-11.49,3.57-10.39-6.49c.41-3.78-1.62-8.08-3.34-11.77C299,785.32,306,767.06,311.69,765.8ZM314.15,816c-35.67,12.14-65.26,29.91-93.35,50.43-4.18,2.34-8.37,6.73-13.45,6C226,847.94,254.44,830,282.79,817.75,291.6,814.4,301.67,813.91,314.15,816Zm-150-81.22c-28.69-58.69-61.57-114.41-100.2-167.09C139,620.49,198,685.45,246.89,760.51a57.76,57.76,0,0,0-22.41,7.87c-15.17,9-14.82-7.59-19.06-13.68-11-15.84-17.1-34.91-31.32-49.84,1.67,16.65,24.29,50.48,34.17,69.66,1.06,1.85-.1,2.18-1.06,3-4.16,3.72-8.28,7.5-12.42,11.26-5,4.58-4.81-2-5.48-3.28C180.64,768.75,171.87,752,164.14,734.75Zm-5.8,145.48c10.67-36.61,25-73.18,57.92-95.59,25-19.39,68.06-20.33,78.23,14.53,1.5,7.11-8.33,7.72-12.7,9.27-62.48,24.76-107.68,78-134.46,138.7C145.54,923.49,151.58,902,158.34,880.23Zm168.71,13.83c-45,49.5-117.12,45.09-174.93,66.87,9.41-43.91,48-73.38,84.27-95.78,24.57-16.78,50.29-31.32,78-42,15.77-6.89,31.54,16.53,31.11,32.11C345.55,871.13,337.29,883,327.05,894.06Zm25.67,46.66c-2.56-11-8.65-21.22-12.15-29.47,1.54-28.11,17.24-42.5,38.19-52,24.78-11.27,19.23-8.17,34.16,13.85,33.85,51.71,46.13,117.25,46.56,177.73C427.44,1010.43,364.35,997.61,352.72,940.72ZM460.79,1280.5c.4,28.75,4.5,57.47,3.3,86.16-12.87-128-44.13-251.33-92.14-373.59,19.59,17.82,40.87,28.63,59.26,43.47,1.73,1.4-.94,9.16-2.53,13.62a38.2,38.2,0,0,0,2.44,32.22c3.74,6.8,1.3,13.21.59,19.12-2,16.87-.72,33,7.39,47.8,15.11,27.57,11.95,58.34,16.48,87.76C457.8,1251.47,459.7,1266,460.79,1280.5Zm14.14-150.91c1.17,10-6.38,13.66-13,18.18-5.73,3.94-10.76-.2-13.3-3.18-9.82-10-7.36-25.27-7.62-38.2-.05-5.07-1.25-11,7.46-7.38,5.15,2.13,9.93-.23,15-1.26,4.09-.83,2.9,5.15,4.29,8C471.51,1113.24,475.56,1120.74,474.93,1129.59Zm68.28-177.15c-12.53,39.57-41.3,65.18-71,93.25,16.59-68.47-1.57-139.86-39.15-198-6.95-10.36,5.27-10.72,8.77-12.1C517.88,813.07,570.68,878.83,543.21,952.44ZM613,998c13-75.58-11.59-44.12,50.73-55.94C613.3,1040.08,593.5,1148.81,613,998Zm57.53-65.94c-13.49.7-26.16,5.26-40.44,4-17.71-1.57-77.11-4.12-70.75-31.41-3.81-52.19-31.41-44.07-10.22-72.76,9.22-19.82,25.84-8.24,37.74-6,58.85,13,125.42,46.64,143.27,108.84C710.16,933.64,690.81,930.09,670.53,932.09Zm-4.85,327.51c-3.73,14.81-13.11,28.09-18.54,42.6-12.81,30.56-23.17,59.46-34.6,90.83,1.63-27.9,3.06-48.66,3.2-75.32,4-93.27,34.11-219.13,62.92-293.32,8.59-27.12,19.56-53.14,34.28-77.45,3.45-6.73,18.93,1.88,25.55,1.46.74,0,3-4.44,2.32-5.79-3-6.29-.64-12.9-1.85-19.13-6.73-39.24,42.26-85.88,61.17-119.61a3.5,3.5,0,0,0-.22-3.26c-1.75-2.15-3.74-.18-4.58.82-22.18,24.9-37.75,52-56.2,80.19-.22-33.51-12.52-39.86,15.19-66.13,20.34-27.19,45.82-49,71.76-70.65,36.09-31.6,85.78-64.43,133.76-71.46C937.93,688,921,706.27,904.59,725.2c-22.47,21.54-41.2,46.13-60.19,70.63-38.23,47.74-70.55,100.07-97.49,154.85a801.66,801.66,0,0,0-67.77,194.54C671.26,1182.82,669.55,1221.8,665.68,1259.6Zm.14,179.14c-10.27,43.45-21.64,86.68-26.17,131-1.74,5,.57,36.76-5.65,35.87-4.16-.21-2.3-5-3.88-7.5,4.24-33.49,5.7-67.14,13.12-99.93,6.58-30.39,15-60.78,23.15-90.79,32.26-100.41,74.22-199.05,139.34-282.65.85-1.21,2.36-2.86,3.48-1.08.86,1.35,2.84,2.86.81,5.51C742.74,1222,694.94,1328,665.82,1438.74Zm107.43-36.41a513.58,513.58,0,0,0-52.31,166.91c-1.57,6.09-1.56,30.42-9.23,29.39-2.33-.51-2.24-3.69-1.86-6.65,3.51-32.31,7.8-64.83,18.32-95.81,14-52.3,37-101,67.17-145.92,1.85-2.52,12.75-17.7,13.56-12-1.52,10-8.15,16.85-12.78,24.22C788,1375.5,780.51,1388.88,773.25,1402.33ZM227.79,1600c.27,1.91-.94,2.81-2.27,5.78-1.52-2-4.13-3.83-4.35-6-5.56-38.32-24.26-72.57-42.5-106.15-10.54-21.63-22.87-42.12-38.09-60.71-8.68-11.57-21.22-20.18-28.83-32.51C157.32,1412.53,223.89,1553.19,227.79,1600Z"/></g></g><g id="Red_Japanese_Frames" data-name="Red Japanese Frames"><path class="cls-7" d="M0,20V1580a20,20,0,0,0,20,20H956a20,20,0,0,0,20-20V20A20,20,0,0,0,956,0H20A20,20,0,0,0,0,20ZM924,1548H52V52H924Z"/><path class="cls-8" d="M952.1,15.41,928.69,38.83A4,4,0,0,1,925.86,40H50.14a4,4,0,0,1-2.83-1.17L23.9,15.41A2,2,0,0,1,25.31,12H950.69A2,2,0,0,1,952.1,15.41ZM40,1549.86V50.14a4,4,0,0,0-1.17-2.83L15.41,23.9A2,2,0,0,0,12,25.31V1574.69a2,2,0,0,0,3.41,1.41l23.42-23.41A4,4,0,0,0,40,1549.86ZM936,50.14V1549.86a4,4,0,0,0,1.17,2.83l23.42,23.41a2,2,0,0,0,3.41-1.41V25.31a2,2,0,0,0-3.41-1.41L937.17,47.31A4,4,0,0,0,936,50.14ZM925.86,1560H50.14a4,4,0,0,0-2.83,1.17l-20,20a4,4,0,0,0,2.83,6.83H950.69a2,2,0,0,0,1.41-3.41l-23.41-23.42A4,4,0,0,0,925.86,1560Z"/></g></svg>