<svg xmlns="http://www.w3.org/2000/svg" xmlns:xlink="http://www.w3.org/1999/xlink" viewBox="0 0 976 1600"><defs><style>.cls-1{fill:none;}.cls-2{fill:#f4f3ef;}.cls-3{clip-path:url(#clip-path);}.cls-4{fill:#50b271;}.cls-5{fill:#ffb85a;}.cls-6{fill:#d81e1e;}.cls-7{fill:#592116;}.cls-8{fill:#992d17;}</style><clipPath id="clip-path"><path class="cls-1" d="M960,22V1578a6,6,0,0,1-6,6H22a6,6,0,0,1-6-6V22a6,6,0,0,1,6-6H954A6,6,0,0,1,960,22Z"/></clipPath></defs><g id="Paper_Backing" data-name="Paper Backing"><path class="cls-2" d="M960,22V1578a6,6,0,0,1-6,6H22a6,6,0,0,1-6-6V22a6,6,0,0,1,6-6H954A6,6,0,0,1,960,22Z"/></g><g id="Wikipedia_Cropped" data-name="Wikipedia Cropped"><g class="cls-3"><path class="cls-4" d="M74.18,1581.33c-10.49-5.07,9.62-26.87,5.41-35.7-8.53-127.13,38-62.3-78.55-96.06-5.7-2.39-1.17-8.5,2.17-11.24,55-60.17,52.45-146,148.94-173.47,19.42,10.84,40.46,13.65,64.33,10.78,20.82-2.06,36.28,14.19,54.07,14.74,20.62,3,33.73-27.76,52.38-19,20.15,42.11,38.27,60.06,92.78,58,7.47.44,13.94-6.53,15.23,6.31,3.66,82.92-37.12,150.62-102.09,190.05-14.5,4-18-32.26-30.25-35.48C236.13,1549.26,156.63,1578.36,74.18,1581.33Zm527.92-49.94C527,1499.73,480.24,1422,479.27,1338.73c2-29.37,26.12.55,40.7-4.28,42.27-1.8,51.81-52,30.74-83.41-.29-17.09,25.42,13.52,35.15,10.91,34,5.81,18.14,5.61,49.06-2.53a6.1,6.1,0,0,0,4.3-8.19c.77-6.2,8-9.89,11-15.81,17.15-30.57,79.39-30.64,66.32-76.51-3.53-7.68,3.3-13.57,10.54-9.44,55.56,10.38,112.37,42.48,141,89.28-8.83,18-30.08,30.67-49.47,38.7-10.12,6.75,12.81,35.18,9.51,49.42,7.55,50.87,17.51,112.1,50.57,154.81,24.27,23.29-44.36,18.51-57.48,20.81-57.26-2.37-125.62-11.84-173.16-51.7-28.31-32.8-33.65,44.35-39.35,62C604.41,1519.65,613.57,1531,602.1,1531.39Zm124-499c-37.28,3-12.14-28.69-26.34-49.83-6.57-17.81-18.4-34.62-22.55-52.68-.68-15.23-9.59-52.42-26.31-58-6.22-22.39-24.17-.17-35.75-12.88-17.78-30.32-49.47-44.9-75.08-68.77-4.92-3.58-3.11-9.83,1.37-12.11,44.13-31.25,90.45-36.26,141.65-31.73,38.91-2-3.86,40.92,16.48,48.57,53.84,5.24,97.17,43.68,150.15,53,74.78-13-25.15,86-49.71,95.2-41.33,15.06,53.61,40.21,43,51.94C802.63,1018.83,769.39,1031.74,726.14,1032.36Zm-639.46-17.6C-57,918.23,73.41,933,36.43,877,16.48,860,12.26,833-4,818c.28-23.46-.13-72.22,0-95.14,1.08-7.32,7.81-1.81,12.41-1.57,23.52,1.82,48.79,16.36,73.36,17.51,9.23-14.67-13.54-44.61,2.53-54.83,52.11,10.42,85.59,33.65,126.82,67,106.07,102.56-1.14,56.83-.59,135.19-1.94,10-9.75-.12-14.74-.73-11,7.15-19.93-4.79-33.45-2-23.32-.16-34,17.32-46.1,35-7.76,4.77.19,7.75-1.5,15.64-3.44,26.63-30.18,46-23.29,74.4C91.88,1012.39,89.84,1014.53,86.68,1014.76Zm195-213.53c-5.7,0-9.24-3.86-10.52-11.48-3.86-48.45-37.79-46.37-57.48-71.94,31.17-17.08,86.63.46,96.7,36.09,27.95,19.55,17.34-99.72,149.7-65.89,8.25,4.79-1.73,7.66-5.36,10.43-2,3.93,0,9.07-6,10.32-36.91,7.73-51.5,44.87-64.22,76.32-6.14,9.42-42.46-8.5-51.85,7.08-9.17,6.75-22.11,8.17-31.28,1.73C295,796.14,289.44,801.14,281.65,801.23Z"/><path class="cls-5" d="M841.52,728.34c-58.31-11.14-98.62-54.65-142.38-94.7-5.5-4-4.06-11.3,1.88-13.53,8.38-4.43-.11-15.36,9.24-20.28,4.41-38.94,35.19-51.41,23.19-63.57-15.21-19.78,15.9-5.27,25.85-6.67,35.91-.94,70.13,32.3,69.06,65.23,3.28,20.42,32.67,19.72,34.71,44.63,5.64,15.34-3.66,27.4-4.52,39.76C870.25,695.79,868.73,729.22,841.52,728.34Zm-25.8-78.91c-31.3,3.29-16.45,36.78,6.61,35.69C843.79,684.76,831.22,651.9,815.72,649.43ZM792,587.91c-19.36.85-7.72,32.2,9.51,29.22C823,616.32,807.93,587.08,792,587.91ZM134.81,558.4c-37.22.2-23.78-34.69-20.15-54.6-16.44-24.9,3.33-58.48,27-66.73,10.18-60.22,35-74.58,95.53-81.4,21-7.25-2.4,16.29.06,18.23,9.25,12.85,23.5,30.33,22.14,49.57,10.8,7.15,5.29,24.09,16.28,28.27C285.82,473.87,160.59,560.69,134.81,558.4Zm25.65-79.31c-17.3.72-30.39,37.13-8,36C175.08,515.79,186.74,485.05,160.46,479.09ZM182.19,418c-14.93-1.6-31.33,28.28-9.8,29.17C189.59,450.15,201.44,418.88,182.19,418ZM554,555.2c-49.34-9.83-141.18-71.56-35.58-89,7.41-.16,17,5.63,19.74-4.86,14.74-32.57,56.63-38.35,82.55-21.17,9.82-3.9,18.25-12.37,29.51-11.2,35.77-2.19,93.36,51.85,44.19,72.18-34.93-16.59-21.43,6.31-37.85,4.67-11.16-5.95-16,8.11-25.67,5.4-7.07-.71-4.11,9.37-10,9.66-21.12-8-11.2,3.93-24.63,6.53-13.67-3.18-14.47,9.61-29.12,10.11C560.07,542.39,564.58,556,554,555.2Zm-7.44-69.93c-36.44,1.78,9.53,57.37,19.48,22.62C566.05,496.48,556.4,485.27,546.58,485.27Zm62-26.32c-22.68,1.34-4.72,31.22,8.22,29.93C636.29,487.92,624.73,459.84,608.54,459Zm-192.12-74.2c-7.27-.06-4.36-7.59-5.38-12.06-10.38-10.75-25.67-15.37-39.16-16.55-2.21-10.81-10.55-8-18.63-5.14-5.75-.24-3-9.67-9.56-9.41-7.57-.23-15-7.15-21.49-7.36-17.39,8.59-13.06-19.4-36.65-5.81-46.18,4.94-17.21-57.66,7.3-60.59,20-12.21,42.9-9.9,62.06,1.8,25.26-19.94,72.09-5,82.18,24.26C555.12,304.78,495.1,368.87,416.42,384.75Zm10.67-69.52c-10-.15-19.95,12.83-19,22.43C416.39,371.82,465.26,317.66,427.09,315.23Zm-60.72-26.29c-9.2.26-14.84,5.68-18.89,16.45C345.35,341.8,399,294.84,366.37,288.94Z"/><path class="cls-6" d="M525.25,1331.49c-23.37-.1-40-11.08-62.08-11.3-39.47,5.65-92.57,16.74-121.21-17.83-8.64-9.91-12.73-24.17-13.06-40.24-8.66-19.44-34.27,33.89-56.67,26.69-58.47-27.32-106.76,1.43-122.38-36.21-6.87-19.41-23.64-33.45-35.67-49.7-26.76-38.31,22.9-59.29,42.63-78.39-6.78-10.48-33.52-10.74-38-21.39-11.61-15.92-.64-44.67-14.45-62.86-7.93-17.62-16.3-37-9.08-58.66,8.48-19,23.06-34.74,23.48-56.77,6.55-41.46,57.7-52.23,86.51-24.36,21.41,7.81-11.42-48.58,31.7-57.72,5.61-1.5,11.2-6.55,14.24-12.86,10.16-22.83,32.5-31.83,57.81-29.29,17.74-.79,33.64-14.18,52-13,40.25-4.89,45.47,48.45,58,33.27,15.15-33,47.34-10.85,74.34-30.78,37.31-19.25,61.27,22.92,91.19,37.23,18.08,11.35,18.29,25.15,23.28,39.32,29.92-4.82,59.42,3.93,61.38,41.1,3.11,46.45,63.84,95.24,17.56,137.74-9.69,11.13,33.31,20.69,34.46,37.58,5,14.71-2.6,23.35-7.05,34.37-6.54,34.78,17.78,76.47-29.11,89.93-31.18,8.73-48.29,59-83,55.65-20.64,2.93-34.62-16.84-49.62-14.33a6,6,0,0,0-1.32,7.23C568,1285.85,558,1325.67,525.25,1331.49ZM819.77,684.73c-21.69,1.34-30.26-33-5.09-34.17C832.85,650.33,840.55,686.12,819.77,684.73ZM693,622.83c-11.14-3.53-25-44.56-33.76-19.43,1,7.88-23.54,10.23-31.47,3.14-7.55-1.56-4.5-11.57-11.29-13.25C589,590.78,605,570.1,594.25,563c-26.59-4.8-52.7-10.44-15.78-32.47,4.31-9.08,18-.6,22.19-8.67,3.81-10.91,12,.31,17-7.11,4.5-5,10.4-6.36,16.27-5.2,7.85-4.3,14.7-10.7,24.57-5,8.38-4.47,19.94-18.3,30-6.47,14.24,10.66,13-8.77,21.57-8.76,10.64-4.45,1.55-19.29,3.29-27.86-3.26-13.08-23.65-17.14-28.52-29.84-3.11-5.25-8-.55-12.16-1.59-15.81-4.51-30.54-6.5-45.59,1.2-14.5-7.19,4.35-32.85,18.19-30.37,38.91,12,10.78,7.08,39.46-5.45,20,0,22.18,25.29,42.23,13.11,27.06,6.23,27.18,41.44,14.59,61.66-3.83,14.69,14.29,2.46,14.37,26.61,33.62,3.42,93.57-12.68,109.73,28-1.64,7.4-.06,9.06-2.93,12.09-5.88,7,5.26,16.67-1.93,24.64-8.87,9.46,4.66,14,4.47,23.14-1.53,15.76-37.82,23.79-33.72.1-4.74-33.85-20.79-36.68-44.43-54.65-9.25-11-35.63,2-50.37-6.18-16.36,4.36,10.72,20.62-6.09,29-3.39,6.37-12.31,10.77-12.68,16.42.29,3.64-.94,8.86-4,10.91-7.77,4.25,3.69,19.82-5.2,21.15C697.18,604.89,709.78,620.24,693,622.83Zm106.55-5.65c-14-.55-25.13-29.92-5.09-28.9C813.56,588.44,818.18,616.43,799.54,617.18Zm-247.6-100c-19.06,2.36-27.16-29.61-5.1-29.94C563.84,484.91,573.48,517.81,551.94,517.14Zm-396.54-1.8c-22.77-1.33-14.28-33.56,4-34.81C183,481.77,178.56,512.41,155.4,515.34Zm462.38-26.4c-18.32-.17-26.8-29-7.88-30.5C623,456.24,637.48,486.87,617.78,488.94ZM281.66,452.57c-16.58-2.78-6.07-15.25-19.38-24.69-.86-15.12,4.82-8.49-5.57-23.32-1.66-3.94.86-9.75-4.49-11.55-5.56-3.09-7.11-10.07-12.44-13.79-8.35-6.94,10.71-23.43-6.19-24.05-13.8,7.52-37.83-6.85-46,5.46a4.05,4.05,0,0,1-3.45,3.56c-14.22,1.76-18,14.23-30.09,18.83-5.56,9.31-10.89,23.94-11.69,35.51,1,16.23-23.71,13.33-32,.53-7.69-8.62,10.09-15.72,4.56-24.3-9.53-9.38,2.51-20-3.8-27.86-2.95-2-1.87-9.91-2.34-12,14.22-37,71.63-28.68,104.75-26.08,14.36-5.35-5.43-10.92,20.14-23.68-7.89-21-17.61-52,7.87-64.62,6.46-4.43,11.56.66,17.39,2.46,9.24-3.93,17.65-17.91,30-17.32,7.87-3.31,13.41,16.46,22.17,11.41,16.35-17.95,54.72,7.37,35.71,24.26-16.29-11.15-34.91-.57-52.21-2.14-11,6.24-20.29,18.56-29.83,27.17-6.29,7.6-7.41,21.39-4.27,30.74,2.78,4.06,11.63.21,11.36,6.91,2.66,16.67,17.48-2.27,24.9-.18,10.82,1.34,15.53,15.31,28.18,8.74,6.81-1,9.15,6.35,14.85,7.08,8.83-3.28,14.41,5.35,21.7,8.05,10.94-5.16,8.9,5.58,17.54,8.07,12.31-3.47,18.24,9.77,28.73,12.8,21.64,22.93-22.85,17.06-32.1,27.95,5,32.32-18.75,17-26.62,38.1-5.39,5.72-13.74,6.35-19.44,6.43-19.35,3.49-11-22.64-25.71-13.61C293.36,431.63,291.71,450.55,281.66,452.57Zm-107.48-5.38c-21.79-1.06-6.82-33.22,4.76-28.92C201.57,417.93,187,446.87,174.18,447.19Zm801.82-.8c-49.33-1.41-49.7-10.55-79-43.25-43.6-1.91-32-48.68-55.1-41.25-23.42,3.37-31.21-22.54-46.48-22.15-26.89,8.86-57.21-12.06-68.2-37.48-6.2-9.05,9.29-27.33-5.26-29.19-18.82-1.91-33.14-11.51-43.81-29.37-9.37-7.65-24,7-34.61,4-15.69-1.42-31.82-1.54-42-17-6.26-12.18-16.26,1.43-26.36.59-26.77-.89-55.13-10.68-66.24-37.58-1.46-4.7-8.36-5.52-10.82-1.21-24.34,36.25-70.94,12.76-100.86-3.33-39.08-15.18-120.48,24.27-132-33.45,14.23-30.73,1.91-17.43-18.07-33.62-3.61-8.12-9.45-9-17.85-7.48-14.33,1.46-25.32-10.64-36,2.08-50.41,29.69-45.08-14.17-78.16-.36-18.88,7.26-31.72,9.93-47.87,8.78-8.08-3.1-12.68,1.32-15.83,8.28C41.68,144.37,2.39,175.43-4,163.26-.43,159.46-11-5.07,0-4,4.41.15,980.55-11.76,980,0,975.71,111.47,987.82,340,976,446.39ZM419.26,347.21c-32.14-9.39,17.94-51.71,21.35-16.32C438.88,345.06,426.64,347.12,419.26,347.21ZM356.4,319c-19.84-2-5.57-32.71,7.7-30.53C382.76,289.8,374.53,318.69,356.4,319Z"/><path class="cls-7" d="M976.53,443.66c-.63-3.21-4.93-3-8-2.72-23.94,2.43-42.55-6.61-56.62-25.93-4.25-5.84-4.17-15.81-14.83-15.87-12.32-.06-21.75-6.68-28.22-16-4.11-5.94-15.29-14.31-2.84-21.52,34.24-17.52,15-36.17,36.8-34.6,79.49-19.84,18.33-103-39.27-96.35-2.58.12-4.78,4.41-7.6.76-5.88-7.61-12.38-14.51-21.22-18.81a3.94,3.94,0,0,1-1.46-2.29c-.07-.22,1.06-.83,1.65-1.25,9.51-6.74,20.35-9.7,31.58-12.37,40.25-9.77,74.68,13.69,104.76,37,2,2.35,6,.82,4.79-2.28-33.21-40.72-91.49-59.24-139.57-33.42-6,2.66-7.1,12.26-17.25,9.29-24.17-7.07-58.61,13-66.66,36.55-1.22,3.57,1.52,10-4.32,10.89-16.09,1.33-17.57,14.77-25.82,14.35-36-2.31-38.14-37.16-51.09-32.4-19.39,9.17-52.19,11.56-66.33-8.24-3.5-5.46-7.52-9.81-15.57-5.81-15.46,9.38-34.28,2.36-49.69-3.53-23.53-8.42-37.86-39.38-27.27-61.82,7.34-21.56,61.09-48.11,71.84-18.24,1.46,4,4.52,1.38,5.68-.22,8.93-12.22,21.4-11,34.21-9.92,14.61,1.2,17.69,12.87,20.29,23.31,5.58,21-23.83,36.63-39.18,23.26-15.48-10.32,12.79-25.18,2.31-26.06-11.85.79-17.77,19.1-12.75,28.81,6.95,11.54,18.74,9.59,28.91,10.54,30,1.95,44.52-53.18,10.19-67.79-5.34-1.51-4.22-3.87-.8-6.12,13.46-8.85,39.12-7.34,51.63,7.69,2.16,2.59,5,4.62,7.58,3.55,41.65-14.52,84,42.84,22.82,50.68-5.6,1-11.84,1-16.77-2.3-3.94-2.66-10.59-6.17-7.18-11.68,4-6.42,11.54-8.72,19.39-6.55,7.21,3.64,15.76-3.86,6.49-7.18-5.65-1-11.48-2.43-17.08-1.92-17.78,1-28.53,20.58-11.25,32.21,10.06,8.07,20.52,7.6,32.38,6,21.4-2.95,33.09-14,33.82-34.87.1-2.86,1.18-3.23,3.18-2.47,37.92,7.62,77.33,1.82,105.5-28,15.58-13.6,46-28.23,33.84-54C874,36.36,836,42.58,807.08,62.11,765.75,82,740.92,40.16,688,94.61c-3.23,3.4-3.75,13.83-15.48,9.27C633,88.82,628.4,123.32,601,120.34c-5.37-1.08-9,7.35-11.73,5C560.93,103.82,515,126.63,502,155.43c-4.6-4.21-9.11-11-15.32-13.42-10.12-4-11.56-7.94-3.6-15.08,4.52-4.07,1.32-12.32,7.3-14.78A39.46,39.46,0,0,0,504.87,102c6.26-6.79,23.86,7.92,45.94-4.46,42-26.63-9.13-76.59-46.87-56.91-5.92,2-9.24,10.78-16.06,7.79-14.7-6.44-27.92-2.29-40.17,4.94S428.82,77,409.31,71.79c-28.3-1.33-58.08,29.55-47.28,58,16.75,37.58,92.85,27.92,81-16.46C438,101.24,422.92,97.05,409.48,104c-3.17,1.64-8.38,2.56-6.27,7.42,1.81,4.16,5.46.83,8.33-.15,2.46-.84,5-1.34,7.56-2,29.47-3.84,16.31,33.08-3,35.12-12.29,3.23-26.23,1.43-36.13-6.61-42.85-46.5,44.52-71.1,77.75-49.66,25.09,11.56,26.82,28.1,5.79,45.62-5.09,4.51-3.13,13.12,4.2,11.37,61.41,17.05,21.2,77.11-25.9,60.5-38.84-17.6-53.23-30.77-98.6-22.05-20.21,2.41-39.95,3-58.24-6.83-7.7-4.15-17.93-8.37-15.73-20.33,1.44-7.85,5.75-16.78,12.81-18.67,19.24-5.14,34-14.46,42.36-33,3.38-7.46,11.84-5.27,17.56-8.61C370.64,77.92,363.78,43.5,329,39.26c-8.48-2.33-31.39,5.07-35.82,11.92-4.09,6.31-13,4.92-15.17,1.32C262.65,26.92,221.79,31.56,203,43.12c-5,3.1-6.32,12.25-14.65,9.7-12.51-3.83-24.21-1.54-35.79,3.61-2.83,1.27-7,3-9.12,1.81-8.92-4.88-17.54-9.78-27.87-11.62C64.12,29.35-7.18,77.73,48.1,124.14c4.14,2.82,2.29,4.47.18,6.77C35.65,144.62,21,155.34,3,160.83c-4.34.73-2.58,6.58,1.18,6.06,23-3.09,39.36-16.59,52.26-34.58,2.27-3.16,3.72-4,6.45-3.17,18.4,5.9,34.52-3.14,51.47-7.26,6.73-1.64,14.22-11.32,20.07-4,16.14,20.25,47.33,13.87,62.17,2.38,13.47-10.43,27.11,3.19,40.47-1.15,1-.33,2.29.12,3.43.3,6.33,11.48,17.86,15.56,29.67,17.72-19.67,17.17-4.52,47.14,19.64,51.85,21.2,6.75,45.07,5.62,67.26,3,19.52-3.57,37.47,0,54.12,8.86,28.16,18.48,68.93,26.36,91-5.85,13.11,29.28,47.37,46,78.5,40.74,4.44-.92,9.55-9.17,15.11-1.8,10.77,14.26,42.35,24.28,59.34,18.9,7.95-2.53,14.61-9.62,23.68,1.79,9.71,12.21,23,22.4,40.56,22.8,1.85,0,2.82,1,2,3.71-8.45,22,7.31,43.72,25.8,54.44,14.15,9.79,30,16.11,47.93,11.33,8.35-5.62,14.57,21.77,44.82,21.71,3.83.06,11.23-3.81,12.73,3,3.47,15.78,13.45,25.91,26.74,33.22,5.83,3.2,15.05,2.73,18.53,7.2,14.34,24.3,41.76,45.78,71.57,36.22C972.28,447.41,977.05,447.53,976.53,443.66ZM843.51,54.3c11.2-3.49,41.39,6.52,46.55,16.91,3.91,7.87-.81,15.64-6,21.59-6.62,7.55-13.54,19.89-19.13-2.12-4.55-17.91-21.39-21.88-37.87-23.74-3.44-.39-7.44,1.24-9.81-2.9C825.42,58.85,834.64,57.06,843.51,54.3ZM793,89.66c-1.66-9.45-10.82-15.56,4-16.46,18.1-1,36,.55,51.95,10,44.46,42.2-60,71.43-89.63,54.93C780.38,131.82,795,110.43,793,89.66ZM689.27,103.59C704,80.44,782.75,51.84,783,96.05c1.06,11.24-23.59,42.77-37.06,36.84C732.48,119,716.65,112.33,697.19,117c-6.28,1.49-8.55-4.45-12.91-6.47A76.72,76.72,0,0,1,689.27,103.59ZM505.18,49C548.09,27.15,586.63,94.57,524,93.57c-13.17,1.72-8.9-6.77-8.93-12.94C516.17,58.34,492.09,54.23,505.18,49ZM441.86,73c-4.23-.44-2.67-1.76-1.34-3.89,13.19-21.65,66.67-20.2,64.27,12.26C507.65,91.7,498,95.7,493,101.88,483.81,112.25,478.14,74.76,441.86,73ZM299.67,54c10.44-10.14,28.9-8.14,41.28-2.76,15.63,6.38,13.37,24.23,1.75,34.09-10.25,8.54-14.32,8.32-16.64-5.85C324.35,69,314.71,63.93,306.14,58.63,303.86,57.22,297.82,57.47,299.67,54Zm-173.4,51.79c1.3,6.38-8.14,5.06-12.44,6.75C99.14,118.26,84,122.44,67.68,121c-17.07-1.47-27.55-15.29-30.62-30.92,0-11.2,18.69-32,29.93-35.23,16.17-4.58,59-2.81,70.66,9,2.93,3.31-3.82,7-6,10.58C125.68,84.41,123.88,94,126.27,105.75Zm64.82,7.58c-8.66,6-18,8.27-27.43,9.21-22.81,2.15-39.32-24.08-25.9-43.3C161.32,35.71,250.28,71.62,191.09,113.33Zm48.48-3.89c-9.68,2.16-18.8.74-28.35-1.17,15.32-19.8,7.43-37.45-10.79-52.13C214.09,41,236.9,41.29,255.58,44.89,287.15,58.82,269.46,102.21,239.57,109.44Zm10.5,9.75c-8.73-4.74,31.08-13.17,30.7-47.52.15-10.12,1.8-11.84,11.88-8.93C357.55,82.12,290,156,250.07,119.19Zm556.68,219c-4-6.35-10-2.8-15.43-1.29-21.93,6.61-52.9-15.5-60.26-35.77C726,284.47,738.29,267,757,264c7.11-1.11,15.56-.14,6.78-12.15-4.57-6.24,4.09-13.48,8.4-18.89,19.43-24.4,62.78-19.08,76.91,8.85,2.2,4.36,6.85,4.39,10.75,2.24,19.6-11.66,59.24,13.15,66.26,32.3,11,19.31-7.91,37.2-26.21,41-13.94,3.52-11.44-8.47-14.49-13.74-8.49-14.68-19.85-21.89-37-23.07-72.08-7-28.09,63.44-11.67,42-1.82-1.2-3.5-2.95-5.51-3.51-7.8-2.18-10.7-8.58-12-15.19-2.79-14.34,9.15-13.62,17-13.34,40.74-7.21,64.26,47.72,20.54,64.36C838.64,362.53,817.5,355.07,806.75,338.14Zm58.32,1112.31c-14.36-35.59-25-73-30.19-111-2.64-17.57-4.37-35.55-13.68-51.44a25.9,25.9,0,0,1-2.25-6.4c18.16-6.43,50.68-24.37,53.54-45-8.09-29.67-71.83-67.44-100.08-79.39-12.81-5.65-25.94-11-40.84-10.9-4.24.2-12.91,2-14.18-4.88-5.26-21.94,11.4-32.56,10.84-48.36-4.06-22.51-16.89-37.41-40.76-40.56,4.87-4.3,13.15-18.82,18.6-19.19,46.7,13.91,93.87-7.45,133.71-30.56,4.27-2.51,8.33-6.45,9-11.86.23-1.78-1.73-5-3.44-5.69a144.15,144.15,0,0,1-41.75-25.33c-25.91-8.09,7.76-17.19,16.91-24.39,29.76-20.86,52.21-48.64,64.19-83,1.75-3.88.08-7.41-5.39-7.53-39.15,2.31-75.9-15-110.57-31.14-21.24-11.37-43-20.59-67.22-22.91-1.37-.13-4.81,1.94-4.07-2,1.72-9.17,2.86-18.63,6-27.3,8.69-20.24-27-20.58-39.25-22.32-40.5-1.15-82.63,8.81-117,30.71-25,21.47-21.55,2.15-48.55,12.43-17.05,4.84-33.69,10.49-51.94,11-15,.44-26.74,9-32.76,24.14-2.19-3-5.66-5.62-6.06-8.65-1.72-13.1-29.77-16.77-12.93-36.43,2.78-3.24,4.41-7.62,6-11.68,26.61-64.54,73.84-41.64,112.29-68.77a4.09,4.09,0,0,0-2.59-2.92c-20.17-3.28-40.29-7.37-60.6-9.23-67.66-9.73-105,8.11-131.48,72.43-1.44,2.54-4.23,3.55-5.53-.16-12.19-46.3-62-47.65-101.49-45-7.82-.25-15.61,10-6.12,14.87,10.49,6.79,20.74,14,31.62,20.14,22.75,12.81,25,36.87,32.4,58,.28.79-3.58,3.4-5.81,4.58-1.61.85-1.95-.9-2.83-2.2C254,792.44,247.35,782,239.42,772.71,200.58,732,150.74,690.19,93.6,681.35c-5.15-.64-13.77-7-16,.74-5.82,17.82,1.66,36.17,1.09,54.36C69,734.35-2.66,703.92,0,722.82c25.58,6.93,52.64,11.65,77.65,21.67,2.69,1,10.89,7.87,10.9-1.16.27-18.45-6.4-36.73-5.19-55.33a5.43,5.43,0,0,1,1.57,0c64.78,13.9,121.63,56.1,161.16,108.39,11.52,12.74,9.27,20-.44,31.53-7,8.32-16.7,10.37-24.55,16.11-15,10.45-13.84,26.65-14.71,42.57-7.16-4.42-14.45-10.73-14.24-20.22.5-11.52-9.17-24.14,3-34.39,10.62-9,14.64-21.94,21-33.43,1.45-2.63,6-8.13,1.55-10.52-6.27-4.82-18.39,35.88-30.54,41.14-.85-25.89-20.71-92.35-48.1-97.49-1.67,1.64-.32,4,1.32,5.54,13.6,12.92,27.11,35.47,28.7,55.52-13.62-14.71-25.77-27.93-38.11-41-.93-1-2.24-4-4.64-1.69a4.88,4.88,0,0,0-.58,6.75c10.5,12.57,20.31,25.76,32.78,36.6,5.8,5,14.11,9.93,15.86,16.37,5,18.38,7.25,37.52,10.56,56.25-5.36-.14-6.78-5.21-10.27-7.69-12.22-8.68-24.71-17.18-35.84-27.15-10.33-9.27-9.43-23.92-13.71-36.11-4.52-11.05-11.1-37.09-23.94-39.69-2.25.62-.89,2.37-.32,3.64a388,388,0,0,1,23.73,61.62c-40-28.76-78-52.82-124.55-67.09-1.71-.43-3.88-1.7-4.69.54-1.1,6.22,22.2,13.7,27.56,16.82,20.61,8.41,39,20.83,59.26,31.16-6.16,2.35-10.95-.48-15.94-1.19q-24.27-3.46-48.51-7.1c-3-1-6.66-.85-6.69,3.4,0,2.21,2,3.37,4,3.75,18.44,3.5,36.87,7.08,55.41,10,9.38,1.45,20.77-1.55,28.13,2.78,17.28,10.16,32.68,23.52,51,37.21-19.53,0-36.25,1.23-52.68-.41-7.29.63-41.49-8.56-41.79.18A3,3,0,0,0,56.81,853c23.94,6.15,48.42,6.14,72.88,6.15,10.74,0,22.71-3,31.88.77,10.14,4.82,19.41,15.47,26.92,24.69-27.62-13.26-60.49-1.12-71.81,27.86-1.35,3.08-4.43,3.21-6.89,2.25a107,107,0,0,0-37.33-7.77c-3.28-.06-5.16,1.64-5.31,4.32,0,6.59,20.43,4,25.86,5.9,2.83.93,15.47,2.34,7.35,5.43a177.31,177.31,0,0,1-46,12.34c-2.78.37-6,1.5-5.9,3.73,2.54,13.26,49.09-5.83,57.86-8.84,4.24-1.45,5.41-.38,4.53,3.33-5.32,28.86-29.32,45.59-23.94,77.62C69.07,1002.55,19.52,958.6,20.66,939c13.16-22.25,43-40.22,18.64-64.85C25.66,860.09,15.12,843.8,8.78,824.92c-.84-3.27-3.89-9.5-8.78-7-3.81,5.43,3.63,15.29,5.59,20.91,34.27,69.78,53.3,32.33,18,82.57C19.73,927.82,12,932.8,12,940.93c8.68,30.94,34.77,55.3,61.11,72.37,9.08,5.6,22.51,6.42,23.17,21.69.19,4.21,4.56,8.08,5.65,12.45,1.83,7.34,8.08,13.54,6.38,21.66-8.56,34,14.1,47.14,42.8,57.15-36.45,9.85-66.89,53.46-37.75,86.34,10,11.71,23.48,21.24,28.56,36.63,1.34,4.08,9.13,10.26,1.8,13.1a180,180,0,0,0-35.21,18c-24.21,16.17-41.31,38.62-56,63.63C34,1374.45,26.9,1412.5,0,1437.14c-9.35,7.65-14.48,10.82,0,15.92,79.91,29.39,87.17-10.33,76,27.83-5.44,12.52-3.87,25.54-2.19,38,1.31,19.14,3.48,41.91-10.21,56.92-4.93,9.73,11.16,10,17.67,9.52,79.86-5.4,161.39-31.62,217.34-91.25,26.1,48.29,26.68,40.89,67.91,10.41,49.3-37.89,73.57-108.32,68.51-169.24-.51-4.08,2.07-5.72,4.91-6,10.5-1,21.05-1.68,31.6-2.09,3.71-.14,5.6,1.11,4.8,6.18-7.41,41.68,12.15,81.81,30.51,118.17a194.61,194.61,0,0,0,71.88,74.22c9.19,5.88,19.69,10.92,29.69,10.92,5.08,0,1.59-12.65,2.74-19.47,5.54-22.57,9.58-46.16,18.21-68,1.91-3.47,5-5,10.55,1.57,49.76,50,190.48,73.68,254.08,43.76C883.37,1480.42,871.55,1467.12,865.07,1450.45Zm-147.64-366c4.62,13-3.27,21.78-7,31.6-12.22,35.64,25.68,64.91-26.79,87.63-16.59,6.36-28.48,16.55-38.93,30.49-44.79,62.17-98.67-8.71-144.86-30.49,19.76-9.06,26-28.27,36.47-43.82,9.3-13.82,23.38-20.57,36.48-28.82,22.88-14.21,27.43-48.76,12.8-70.44,0-1.75,1.92-4.58,4.2-2.56,26.73,15.83,58.19,11.55,86.31,1.6C687.55,1053.6,713,1072.1,717.43,1084.44Zm-409.64-143c1.51,1.76-1.82,7.67-2.87,11.68-3.83,14.6-8.06,29.11-11.21,43.86-1,4.55-2.11,9.92.81,14.69.88,1.43.44,2.56-1.14,3.63-30.72,19.8-5,55.26-31,61.08-16.88,6-40.48,4.11-48.12-13.33-3.93-8.8,2.35-17.11,3.69-25.58,7.14-30-20.12-56.53-6.47-85.66,3.51-6.65,10.41-12.66,17.2-16.18,13.51-7,22.26-17.86,29.53-30.42,5.63-9.71,22.49-14,32.84-9.64C316.53,905.1,288.86,921.42,307.79,941.47ZM419.93,967c4.77.21,10.77-.78,12.86,4.18,7.29,17.57,41.07,54,59,59.92,2.08.63,1.15,1.94.27,2.45-14.57,8.4-19.06,26-32.31,35.5-5.25,3-10.74,9.18-16.41,10.18,0-2-.49-4.19.26-5.85,5.67-12.63,11.68-25.1,17.34-37.74,1.25-2.78,1.71-7.56-1.33-8.14-5.4-1-6.58,5.56-8,8.57-6.95,15.06-15,29.69-17.38,46.76-.55,4-9.38,6.88-15.63,11.1,9-25.83,13-49.6,22.54-74.4.26-.65-.24-1.6-.38-2.41-13.1,4-13.71,20.69-17.47,31.29-5.25,16.39-7.84,33.62-12.72,50.16-1.41,4.79-6.79,8.42-12.48,15.07,4.3-34.84,10.06-62.17,19-94.58,1-3.87,3.48-7.66-.36-11.33-14.94,27.69-20.34,60.16-23.88,91.35-.92,13-2.66,25.87-4,38.81-.21,2-1.71,2.68-3.19,1.95-4.45-2.19-13.48-.45-12.14-8,4.1-22.84,4.91-46,6.9-68.93,1.38-15.8.5-31.79.7-47.7,0-2.59-1.79-3-3.54-3.3-2.05-.42-2.45.93-2.62,2.66-3.63,29.9-3.57,59.23-5.42,89.91C357.89,1094,358.14,1094,356.91,1060c-.37-10.15-2.45-20.26-4.1-30.33-.32-1.93-1.29-5.15-4.3-4.46-2.63.6-1.68,3.19-1.73,5.35-.31,16,4.22,31.79,1.56,47.9-12.8-13.7-11.64-34.31-21.9-48.71-10.81-7.91.41-10.28,3.72-12.35,16-10,32.37-20,51.49-22,9.05-1,17.27-3.84,25.49-6.63,7.14-2.42,7.13-10.87,9.76-16.93C417.67,970.05,415.71,966.83,419.93,967Zm90.53-61c-4.6-17.21,8.89-11,14.06-11,27.7,1.14,23.56,39,57.84,47.52,12,4,23.74,23.55,19.46,35.48-3.59,10-.85,20.82,2,30.53,4.26,14.69-8.94,43.83-29,42.74-18.4-.7-33.43,3.62-39.15-18.72-.92-2.07,2.66-2.64,4.28-3.89,13.64-10.5,24-22.75,25.41-41.3,2.94-25.88-2.1-42.1-30-46.62-10,2.15-19.09,3-28.8.56C489.57,936.56,516.94,928.54,510.46,906Zm9.39,45.5c18.1-2.36,39.22-2.05,36.83,23.11,5.48,37.1-34,68.33-65.51,47.35C473,1008,456,992.8,443.67,973c-9.24-14.78.29-43.55,17-46.22C477.3,925,487.81,953.54,519.85,951.48ZM531,1061.84c-9.75,12.55-26.44,18.52-32.65,34.52-10.17,28-19.29,56.67-52.37,62.48-42.86,10.2-70.34-22.21-27.24-53.95,14.07-11.6,32-16.94,45.57-28.73,10.05-8.76,17.15-20.85,26.92-30,16.89-15.89,16.29-4.07,31.2-9C534.4,1035,538,1054.37,531,1061.84ZM361.4,1137.33c-21.25,24.81-54-14.13-65.25-32.45-10.56-18.83-14.42-39-9.41-60.45,1.42-8.38,2.42-17.07,11.83-21,13.77-.06,26.27,14.07,28.61,29.3a71.24,71.24,0,0,0,22.16,41.83C364,1108.16,369.92,1126.4,361.4,1137.33ZM378,987.2c-12.28.88-23.67,6.15-34.76,12-11.94,6.49-41.78,33.5-40.12,2.85,5.82-23.47,5-58.59,29.95-71.32,21.5,1.7,30.05,23.18,53.4,14.68,7.34-2.89,20.17,6.43,20.52,14.9C407.84,982.72,404.31,985.31,378,987.2Zm-161.14,93.06c39.41,24.58,64.62-18.32,61.53,8.6,5.53,25.6,28.47,55.13,54.22,62.44,3,.67,4.58,2.86,1.14,5.54-31.69,24.54-17.92,44.79-33.38,42.1-54.3-3.67-21.92-50.47-71.83-73.8-17.93-10-25.16-24.69-19.5-44.2C211.22,1073.24,215,1079.08,216.81,1080.26Zm105.81,103.33c6.1-9.23,13.78-16.64,20.77-24.87,7.4-8.73,20.61-6.85,26.41-17,7.58,9.19,23.29,2,29.62,15.86,3.23,7,13.3,7.87,21.37,9.65,12,2.65,14.87,13.59,18,23.54,6.64,20.41-2.86,37.13-29.84,31.77-15.14-2.67-27.8,2.66-41.19,7.2C331.54,1246.73,304.43,1219.9,322.62,1183.59Zm115.1-14.32c39.22-4,56.88-30.65,67.23-66.08,6-21.09,28.88-24.1,36.64-43.37,2.45-6.28,8.9-.78,12.93,0,11.91,3,23.37-5.08,28.2,10.44,12,29.87-7.21,52.65-33.78,64.31-13.8,8.21-23.34,20.33-29.79,34.44-8.41,18.35-27.73,32-47,36.41C443.55,1212,449.81,1184.24,437.72,1169.27ZM699,1018.75c-4,17.19-22.44,34-40.21,36.27-24,4.66-36.67,8.28-60.16-2.35,14.53-17,17.82-33.75,12.8-54.86-.43-30.84,2.18-54-32.3-66.9-4.13-1.29-24.35-14.84-15.07-17.7,20.31-6.81,34.91-19.93,45.37-38.58,25.23-16.55,55.24,4.43,55.72,33.53C667.38,948,705.32,977.89,699,1018.75ZM543.7,781.46c40.07-29.52,91.18-36.08,139.4-31.05,25.35-1.31,6.41,25.13,5.95,38.47-2.17,11.19,5.91,9.88,12.87,10.15,58.32,6.14,112.34,60.37,172.78,52.64-8.81,31.09-28.85,48.49-50.32,70.15-9,10.5-23.11,15.78-35.42,22.68-7.89,4.42-7.17,10.28.09,15.48,16.93,11.67,31.75,25.62,52,31.71-39.21,22.88-81.6,41.15-127.17,35.33-11.68-2.91-4.17-11.56-4-16.27.86-30.11-22-53.92-28.45-81.54C690.6,943,704,951.56,716.5,960.48c9.4,6.71,5.35,16.63,10.16,24.11,5.78,8.55,10,20,20.73,23.2-1-3.51-.87-8.09-3.11-10.34-8.08-8.12-11.55-18.2-15-30.48,4.41,5.62,43.21,30.51,45.55,22.56,3.15-5.2-3.43-5.64-5.68-6.64-18-8-32.76-21.31-51.86-31.75,16.13-.31,29.75,2.24,43.32,5.09,2.9.61,6.8,2.33,8-.47,1.61-3.85-2.75-6.08-5.62-6.62-16.18-3-32.39-7.09-48.71-7.7-13.1-.48-16.67-11.84-25.44-16.51-22.88-13.3-7.81-46.32-36.72-56.85,15.78-6.56,23.46,6.79,32.43,14.1,21.52,17.29,49.7,38.17,77.27,42.37-7.8-12-23.19-14.82-34.83-21.52-15.44-8.42-28.32-20-44-32.31,18.72,3.55,32.39,6.51,50.33,8.07,26.14,4.24,45.6,27.39,73.6,24.4,8.92,1.18,10.71-4,.36-6-14.88.2-26.67-8.61-40-14.13,12.58,1.48,82.84-4.55,83.41-18.31-1.45-3.82-6.13-2.16-8.84-1.35-23.46,7-46.94,10.29-71.79,8.51-14.71-1-29.38-4.19-44.3-3.3-3.72.22-7.55-1.41-13.69-2.68C734,859,751,849.74,773,847c4.11-2,.11-6.36-3.53-6.1-24.54.45-47.38,11.73-69.43,21.17-4.51,2.37-12.12.08-18-1.55-18.16-5.05-36.32-4.56-54.66-1.64-6.19.91-11.66.57-6.3-6.41,11.77-46,11.85-7.65,70.16-35.2,2.56-1.12,1.92-2.86,1.35-4.47-1-2.85-4-2.34-5.57-1.65-10.24,4.58-21.22,6-32,8.62-6.88,1.68-13.31-1-21,1.9,10.9-17.81,20.53-34.56,35.27-47.57,1.12-1,2.26-2.14.67-3.75-11.37-5.52-23,16.65-28.9,23.74-4.29,5.54-5.17,2.91-6.74-1.13-2.5-6.4-5.16-12.75-7.27-19.27-.84-2.59-.39-6.67-3.8-6.26-9.6,5.25,3.29,27.8,7,34.71,2.47,4.43,1.07,6.66-.69,9.32-8.06,12.13-14.43,25-17.54,40.26-7.7-20.88-24.47-31-41.75-41.38-10.2-6.11-18.51-15.36-27.74-23.11C539.52,784.52,541.71,782.79,543.7,781.46Zm-107,25.2c4.61-3.11,9.39-.51,14.06-1.84,16.11,1.66,30.47-3.55,44.48-11.17,14.36-7.81,36.1-4.61,46.81,7.71,11.25,13,26.73,19.62,40.14,29.25,40.17,26.73,8.66,63.36-24.54,76.3-4.18,1.7-3.88-3.09-5.47-5-9.12-11.24-20.37-18.46-35-13.6-10,3.31-17.12.38-24.68-5.28-10.33-7.74-23.17-5.68-34.77-8.44-13-3.09-25.42-9-37.94-14.07C413.16,841.64,419.92,817.59,436.69,806.66Zm-5.51,68c11.34,6.66,23.76,9.92,37.08,10.55,28.37,0,42.06,24.41,26.65,48.64-1,1.88-5.71-.71-13.81-7.6-26.2-24.08-49.3,2.5-50.24,30.73.1.53-.79,1.79-1,1.74-4.92-.93-12.86-.54-14.19-3.3-14.81-32.09-38.28-8.15-60.67-26.24-16.76-11.33-25.23-11.7-43.28,5.69-4.82-17.26-2.16-32.07,13-42.44,9-6.18,20.23-2.93,30.34-5a71.25,71.25,0,0,0,27.33-11.93C394,866.86,419.51,867.81,431.18,874.67ZM447.69,704.9c-39.16,8.92-53.34,45.47-66.84,78.56-.3.66-1.6,1.54-2,1.36-10.26-4.22-20.9-3.06-31-1.91,4.38-21.73,27.27-24.44,39.11-38.15-3.43-9.37-13.54,2.5-19.87,4.13,10.7-21.46,26.78-42.95,52.59-43.27,5.92-1.21,25.62-5,30.08-2A7.93,7.93,0,0,1,447.69,704.9ZM312.88,783.69c33.19-76.28,56.55-110.71,146.2-91.81-48.31,6.52-75.95,5.46-100.41,52.8-12,15.83-15.57,42-37.2,48.16C309.38,796.6,305.32,795,312.88,783.69Zm-27.56-56.62c19.33,17.22,31.92,36.9,16.29,62.83-20.78-57.6-25.24-58.57-72.32-73.61C237.65,712,275.53,718.34,285.32,727.07Zm-50.38,3.63c-5-2.16-9.28-5.77-17.69-11.13,45.11,12.84,62,22.26,73.59,67.24.85,2.48,5.47,6.86,1.09,7.6-5.51.92-14.57,8.29-16.86-5.32C270.78,763.6,260.55,741.87,234.94,730.7Zm3,115.91c28.69-12.76,15.08-44.74,68.69-42.09,13.72.94,24.85-6.68,37.17-10.35,19.14-5.71,44.57-2.91,57.32,20.27,7.65,13.91,5.59,28,5.7,42.24,0,.72-1,2.1-1.45,2.08-16.17-.67-28.23,9-41.34,16.14-16.16,8.59-40.65-1-51.74,16.77-2.67,4.19-4.67,4.73-8.75,2-28.53-19.09-48.46-4.77-60.63,17.7-2,2.78-3.64,7.75-8.23,3.41-10.38-9.84-18.66-21-19.54-36C217.07,864,220.8,851.2,238,846.61ZM144.57,1113.1c-20.73-6.74-30.12-13.91-27.45-36.45,2.85-33.21-30.36-59.76-18.09-93.76,9.94-22.09,21.68-30.31,23.65-57.44,4.6-29.26,37.55-46.24,63.88-32.08,12.57,6.75,23.5,15.65,34.68,24.3,7.56,5.84,5.06,9.48-1.88,13.66-38.3,21.43-11.66,62.67-9.7,95,.11,9.91-2.64,20.07-5.62,29.65-1,3.19.51,5,1.15,6.33,5.17,17.3-19.08,15.61-3,52.14C183,1117.12,163.63,1119.3,144.57,1113.1Zm.54,121.45c-8.87-11.69-18.65-22.67-27.8-34.14-27.06-45.16,45.76-76.64,82.14-75.94,76.7,12.81,33.7,84.52,103.61,81.1,8.05-1.48,4.34,6.76,5,9.28,2.94,10.66,7.74,19.21,17,25.5,5.4,3.68-.7,5.52-2.24,7.2-18.4,21.88-41.27,50.94-72.67,30.23-28.87-20.9-78,11.41-96.59-26.63C151.34,1245.37,148.81,1239.43,145.11,1234.55Zm264.59,195c-16.23,40.71-47.42,69.41-83.23,92.86-.43.33-2.72-.66-2.89-1.35-2.29-9.48-10.82-15.16-14-24.46-5.47-15.94-12.6-13.7-23.69-2.51-54.55,56-135.35,78.84-211.7,83.19,11.84-19.28,10.47-44.1,7.55-66.06-1.68-12.51.06-25.46,3.9-37.75,5.72-11.9,2.53-21-12.28-17.06-24.08,3.17-48.2-3.69-71.11-10.71,15.71-14.64,28.52-30,35-50.9,3.3-8.87,9.21-16.78,12.34-25.69,8.28-23.54,23.74-42.39,39.76-60.5,15.36-19.17,38.36-30,60.79-39.43,4.84-1.81,7.93,3.38,11.93,5.09,16,6.84,32.06,6.89,49.16,5.53,50.31-1.21,50.59,38.31,102.42-7.84-4.75,11.66-8.69,21.88-13.08,31.91-2.12,4.85-7.73,3.95-11.54,4.74-21.57,4.46-41.91,12.68-62.86,19-5.66,1.71-13-1.5-19.43-3.11-28.61-6-61.56-5.07-87.09,10.26-7.92,3-3.41,8.89,3.16,5.65,27.87-12.22,59.39-15.3,88.37-7.06-8.27,6.52-20.48,6-28.69,12-10.05,7-22.19,8-32.48,14.25-29.41,17-65.15,30-86.39,57.21,1.72.44,2.82,2.67,5.27,1,24.75-18.36,50.84-35.45,79.74-46.18-9.83,19.75-25.35,37.79-44.93,49.22-2.5,1.35-1.4,3.36-2,5.07,1.63.28,3.64,1.32,4.85.73,39.92-15.77,43.62-60.39,81.69-73.59,33.68-12.18,66.92-26.72,101.7-35.36,9.34-2.13.64,5.79.57,5.93-7.36,14.4-13.1,30.44-23.67,42.11-7.34,8.11-22.34,7.11-33.13,13-21.62,11.86-41.34,26.34-60.74,41.35-2.85,2.2-6.73,6.06-4.46,8.73,3.15,3.71,6.1-1.62,8.58-3.4,26.25-16.63,51.31-39.3,81.86-46.56-16.66,28.19-37.17,52.56-60.11,74.77-7.59,7.35-19.2,8.11-29.26,9.81-19.84,3-51.83,19.61-61.07,37.54-3.5,4.3,0,5.74,4,3.29,22.37-20.59,43.66-30.45,74.41-36.29-18.21,17.82-31.16,37-50.82,49.48-1.52,1-7.16,4.87-4.48,8,10.16,9,75.24-64.9,86.12-76.26-4,16.62-5.91,31.26-11.54,45.08-1.77,7.07-12.5,24.93-7.9,30.42,2.13,1.17,3.61-1,4.85-3,9.28-15,12.73-32,18.17-48.42,5.89-17.76,5.15-37.29,21.19-52.55,18.5-15.43,26.38-40.47,41.8-59.07,6.56,33.45.28,71.91-15,102.26-1.09,2.1,0,5.35.12,8.07,23.18-16.77,25.45-66.47,25.62-93.29,0-7.68-.33-15-3.53-22.45-3.63-8.47,4.09-14.86,7.36-21.85a96.48,96.48,0,0,1,9-19.23c9.93,18,15.45,38.08,21.89,57.53,3.65,12.12,8.41,24.64,8.26,36.92-2.57,17.78-24.95,35.06-18,55.22,1.5-1.2,4-2.17,4.35-3.64,3.09-13.21,10.09-24.73,15.75-37.85,5.12,20.57-.36,39.6-1.2,59.46-.17,1.79,1,2.53,2.49,2.12,4-1.08,5.09-4.91,5.43-8,1.64-14.75,4-29.59,3.62-44.33.26-16.51-6.87-32.8-7.05-49.23,11,9.55,16.65,23.6,24.51,35.63,4.37,5.11,4.88,18.62,12.73,18.66,3.05-.58,3-3.56,2.17-5.62-8.57-22-19.8-42.95-36.16-59.83-12.49-12.88-15.58-29-21.71-44.2-16-34.2-13.79-19.36-1-52.88,6.06,47.14,59.52,64.11,100.43,56.71,2.28-.88,2.49,1.88,2.52,3.77C427.61,1368.16,423.6,1399.42,409.7,1429.6Zm38-111.95c-48.23,13.17-117.32,5.28-115.32-59.93-1.93-13.53,6.22-12,16-13.27,14.26-1.82,28.07-7.56,41.92-12.08,20.55-6.57,44.86,13.26,54.82-14.61,5.15-14.29,15.11,7.9,35.87-5,11.11-6.32,18.28,1.08,25.95,5.56,35.28,18.14,69.12,68.33,32.6,102.88C518.18,1340,477.77,1308.12,447.73,1317.65Zm407.19,178.72c-68.65,7.72-166.54-8.6-216.48-59.12-9.93-6.12-12,5.74-15.23,10.17-10.47,20.11-14.05,42.49-18.39,64.6-.93,4.72-3.22,8.85-.41,14,.85,1.56-3.27,1.73-5,.86-69.72-33.56-116.69-110.27-116.11-187.82,1.57-19.54,12.05-5,14.07-4.39,55.52,19.76,86.35-39.58,56.86-85.6,15.52,13.75,28.44,17.74,46.49,18.57-29.93,50.62-53.12,108.57-43.69,168.71.7,4.91,1,10.3,6.12,12.72,1-3,2.88-6.13,2.7-9.11-1.15-19.63-3-39.2,1.12-58.76,1.1-5.21-1.95-11.16,2.65-15.86,8.14,18.6,17.42,36.75,21.46,56.84.7,3.35,2.21,9.23,5.32,8.33,11.88-2.9-14-62.2-19.25-70.28-11.74-18.76,20.07-68.57,29.72-86.6,4.36-11.91,27.77,12.79,33.3,16.66-4.67,31.7-7.91,64.45-4.65,96.94.23,4.33-2.17,11.39,3.36,11.08,4.48-.25,4.37-8.22,4.13-13.09-1-27.78-.2-55.77,5.84-82.9.64-7.11,3.23-3.2,5.15-1.22,8.49,8.77,17,17.52,25.16,26.59,7.71,8.58,1.87,19.56,4.58,29.28,4.87,17.43,6,35.74,12.84,52.83,3.84,7.17,10.53,38.46,19.51,36.86,1.05-.65,1.1-4.39.34-6.22-12.82-30.74-22-64.43-24.61-97.13C714,1361.39,788.4,1461.86,813.24,1456c2.69-3.23-4.1-8.3-7.27-10.66-30.27-22.53-54.28-51.14-80.44-81.55,21.71,8.42,41.77,14.31,60.24,24.24,6.75,2,23.62,17.85,28.63,12.3,4.36-11.23-79-43.36-90.92-46.43-19.2-6.49-26-26.31-42.49-38.88,34.12.57,64,4.11,94.92,15.83.29.15,1.75-1,2-1.76.72-2.41.19-5.16-2.13-6-10.45-3.61-21-7.16-31.6-10.11-19.58-5.41-39.94-7.39-59.95-7.44-21.69,0-27.21-21.39-43.3-28.18-6.33-2.67-11.66-7.75-17.78-12,15-1.67,29.53-6.48,43.36-11.21,17.28-5.92,22.95,8.85,33.7,13.57,12.94,3.24,70,41,76,28.83,1.36-3.42-3.57-3.48-5.89-4.44-28.18-11.71-54.55-26.91-81.85-42.42,10.87-4.85,22.22-5.22,33.13-6.51,22-2.59,43.83-6.33,66-6.34,1.1,0,3.23-2.06,3.1-2.89-7.35-9.69-45.36.56-58.39-1.08,17-11.35,30.42-24.51,49.46-28.25,8.57-2.87,2.35-11.23-4.72-7.49-21.79,6.4-40.49,18-55.07,35.48-3.51,4.21-8.73,3.48-11.94,3.62-23.29.25-44.94,10.83-66.94,14.09,11.92-12,18.48-29.59,36.29-34.94,16.23-4.87,29.75-13.26,37.9-28.24a39.15,39.15,0,0,0,3-29.45c-1.36-4.53-.42-5.68,1-5.68,32.3,4.71,61.09,17.5,88,35.17,17.71,11.08,32.5,26,48,40.18s.46,17.89-5.61,24.31c-27.62,30.38-54.11,14.72-38.34,38.8,7.88,12.34,9.28,26.59,11.23,40.36,8.47,55.56,19,116.76,56.75,160.52C872.73,1493.08,863.89,1495.25,854.92,1496.37ZM617.3,428.51c-25.94-14.44-70.88-1.08-84.91,25.29-1,1.87-1.56,5-5.83,4.81-15.78-.58-31.09,2.81-44.28,11.35-44.77,27.13-6.56,56.78,21.49,72.83,27.54,15.6,60.69,22.21,93,23-7,2.14,5.69,13.18-8.25,14.64-50.85,4.93-93.08-33.81-136.06-55.58-16.34-9.76-32.4-19.34-52.43-18-1.86.13-4.83-1.17-4.8,1.45,0,3.25,3.5,4,6.31,4.78a198.79,198.79,0,0,1,44,17.4c46.71,25,93.84,70.8,151,55.23,4.35,13.6,21.79,8.86,28.44,21.06,8.79,14.45,29,4.51,28.1,9.88C670.26,690,748,723.17,808,756.35c17.85,9.26,33.38,21.54,48,35.19,1.73,1.62,4.48,2.16,6.75,3.21.61-2.9,1.71-5.4-1-8.39-5.59-6.16-9.7-13.84-15.84-19.28-44.7-32.87-99.48-51-141-88.94-18.85-18.85-50.42-49.7-38.83-78.52,32.46,59.72,92,100.17,150.23,132.36,30.52,15.57,66.56-1.77,55.18-39.32-2.38-8.33-7-16.88-.45-25.58,7.92-25.43-6.7-48.5-27.55-64,2.95,0,4.75,0,6.56,0,13.35.48,29.1-17.74,16.92-28.25-10-10.59,11.79-23.51-3.11-36.07,31.66-49.61-78.7-52.88-106-39.91,6.44-13.76-.43-20.2-12.28-24a2.67,2.67,0,0,1-1-1.44c8.09-6.74,15.9-42.85,7-50.13-22.19-33.2-29.31-4.45-40.66-19.47-5-8.41-14.7-10.69-23.65-12.75-8.3-1.91-12.67,3.88-15.91,10.27-1.71,3.35-2.85,3.32-6,1.5-21.14-15.14-48.62-5.89-46.39,22.8C618.88,426.67,619.59,429.93,617.3,428.51ZM597.92,559.76q-15.36-3.37-30.7-6.94c-3.17-.73-1.74-3.47-2.53-6.29,7.37-17.79,28,2.75,39.2,6.69.22.11.19,1.26-.1,1.67C602.3,557,601.8,560.61,597.92,559.76Zm48.74-45.18c-1-2.5-7.58-.6-4.82-4.82s9.42-4.37,12.47-2,13.59,4.77,4.79,12.68c-.39.35-.13,1.43-.17,2.16,2.4-.24,5.43.31,7.52-.83,17.46-12.86,57.63,12,32.37,26.73-1.15-2-2.93-3.8-3.34-5.91-3.68-17.49-40.39-24.7-54.15-11.47-6.75,6.3-1-4.37-20.27-14.25,10.46-9.51,18.38,1.12,26.38,6.56a3.36,3.36,0,0,0,2.36-1.28C653.75,518.08,647.73,517.15,646.66,514.58Zm18.88-7.71c2.16-7.56,14.46-12.64,19.74-6.25-.08,11.64-9.07,9.75-15,11.91C669.44,512.85,665.1,508.16,665.54,506.87Zm59.65,27.43a2.21,2.21,0,0,1,2,.38c5.09,4.26,8.22,8.89,1.72,14.74C731.17,542.39,714.48,543,725.19,534.3ZM685,574.67c.7-2.79,1-5.65,6-5.67,5,2.43,23.6,24.15,15.73,29-3.37,2-4.25-2.9-5.92-4.66C695.21,587.48,681.62,588.17,685,574.67ZM682,563c-7.44-15.74-19.89-23.24-36.48-24.55C657.42,524.68,703.05,539.38,682,563Zm11.65-1.3c6.71-12.38,19.92-3.09,20.42,9.75-.81,1.59-1,6.32-2.8,5.14A83.6,83.6,0,0,1,693.69,561.69Zm15.19-9.35c4.51-1.18,3.66-8.93,8.13-7.4,5.86,2,8.91,9.44,5.32,13.1C716.46,564.05,715.66,550.23,708.88,552.34Zm7.79-22.42c-2.22,1.77-2.92-3.24-4.3-5.13-6.24-8.53-15-12.4-25.68-14.48C699.68,494.19,736.27,512.44,716.67,529.92Zm-82.35,7.52c.25.26-1.55,3.15-1.73,3.08-3.42-1.32-6.7,4.55-9.34,1.06-4.86-6.46-10-12.15-17.88-14.82-2.74-1.38-.45-7.23,2.3-5.84C619.67,522.51,627.05,529.94,634.32,537.44ZM609.07,536c3.62,1.94,6.54,4.92,9.49,7.74-3.69,1.94-8.66,9.06-12.78,4.44-5.58-7.94-14.85-10.89-23.44-16.57C593,526.4,601,531.6,609.07,536Zm7.75,53.3c-9.13-.43-13.76-5.54-15.44-12.75a5.32,5.32,0,0,1,6.31-5.93C615.71,570.06,630.72,589.34,616.82,589.25Zm38.53,13.2c-2.09,6.3-16.45,5.61-24.13,1.42-2.17-1.47-7.75-2.7-5.28-7.3,3.86-8.42,13.62-6.76,20.67-3.22C650.88,595.19,656.35,598.31,655.35,602.45Zm5-13.26c-6.88,2.58-12.41-5.1-19.4-5.27-1.23,0-2.45-.83-4-1.39-8.12,8.07-5.79-11.29-23.62-17.65-1.7-.75-4.36-3.32-4.14-3.74,7.69-12.27,28.58-13.69,41.8-12C672.08,550.76,682.22,580.31,660.31,589.19Zm33.88,29.32c-4.52,3.28-10.36-19.25-22.87-25,4.83,2.41,7.15-7.89,12.25-2.48C690,596.92,708.36,611.24,694.19,618.51Zm161.22,52.83c-5.27,8.34,3.81,13.13,4.48,19.87,14.23,93.64-138-36.14-157-59.5-2.77-2.91-6-4.86,0-8.07,11.36-5.56,1.09-17.12,11.17-21.29,4.42-1.92,2.46-9.42,3.3-14.48,1.43-8.64,3.73-17.27,10.91-23.88,4.68-4.31,7.13-10.67,11.2-15.83,5.74-7.28-2.69-12.74-6.58-19.5,17.65,8,37.26,1.72,53.85,10.9,21.87,12.1,36.94,29.21,37.6,55.36.33,13.19,9.36,16.64,18.59,21.92C859.89,626.54,865.88,654.79,855.41,671.34Zm-64.36-141.9c25.08-3.11,48.17-3.89,66,16.55,5,5.69,1,11.42-.89,16.16-1.2,3-4.31-2.09-6.84-2.93-8.68-2.9-17.86-4.84-25.85-9.05C811.6,544.32,803.48,534.81,791.05,529.44Zm67.6,60.33c-7,6.37-26.4,10.43-23.11-4.82.6-9.13-6.11-16.05-8-24.61C837.58,559.85,870.08,579.05,858.65,589.77ZM759.32,503c32.58-4.41,68.34-7.85,96.82,12.43,8.21,5.45,4.68,13.36,4.18,18.3-17-9.85-30.43-14.45-50.17-15-23.33-1.14-45.84,8.31-69,2.22C745.55,513.34,747.94,503.89,759.32,503Zm-8.62-12.71c-4.51,21-9.78,1.54-19.44-2.49,3-5.12,9.25-1,12-4.6C748.84,483.32,751.27,486.43,750.7,490.27Zm-26.42-47.51c1.22-6-.82-12.66-1.14-19-.17-3.25-5.84-6.22-1-9.54,5.11-3.53,10.55-.56,13.19,3,4.29,5.77,11.65,10.47,10.63,19.07-1.18,9.87-1.13,20.23-6.11,29.1-3.73,6.64-8.82,12.56-13.72,18.45-8.1,5.05-8.4-5.26-6.6-11.53C712.75,461.75,722.21,453,724.28,442.76Zm7.08,55.59c9.91,7.39,2.54,14.86.68,22.54-.22-16.2-11.9-21.73-24.36-26.67C714.33,491.36,725.62,494.06,731.36,498.35Zm-54.07-94.89c4.56-6,10.47-3.94,15.55-1.81,19.66,8,25.25,32,20,50.53-3.33-2.71-6.72-6.36-10.86-8.66-12.77-7.09-16.37-21.65-26.11-31.18C672.73,409.31,675.2,406.22,677.29,403.46Zm-32.23,1.46c13.63.51,21.35,10.18,29.41,19.27.39.44.09,1.5.1,2.27-15.51-3.92-30.49-7.77-45.6-.14-1.07.3-2.4,2.43-2.73-.75C625.16,415.05,634.2,405.06,645.06,404.92Zm-13.42,33.85c24.08-17.41,78.77,10.56,77.6,40.75.49,9-6.24,11.54-10.74,15.84-4.71,4.52-9.7-.75-13.67-2.75-7.8-3.95-21.14-.16-23.79,8.22-.53,5.29-14.15-6.63-24,5.79-2.42,3.91-16-6-16.11,10.26-7.83-.91-17.63-9.39-21.41,5.63-.15.57-2.29,1-3.48.89-6.44-.3-12.27-2.45-17.07,6-2.31,4-13.1,1.17-17.43,7.86-.69,1.07-2.39,2-2.36,3,.76,19.51-12.66,7.35-17.13,6-18.5-5.48-36.82-12-51.41-25.92-7.6-7.25-19.15-12.86-17-24.76,3-18.3,40.18-29.78,56.47-23.21,3.45,1.32,9.44-2.79,11.89-9.67,9.39-25.39,53.9-38.21,74.66-18.91C620.85,447.58,627.22,441.68,631.64,438.77Zm182,206.8C781,652,790.73,685.85,820.6,689.06,852.47,690.14,833.64,643.21,813.67,645.57Zm4.32,35c-8.37-1.23-14.32-6.41-15.67-16.09,2-5.24,6.33-10.38,12.08-10,11.31.8,12.55,11.57,14.06,19.67C829.49,679.72,822,681.21,818,680.61Zm-1.22-74.5c-.55-19-38.3-35-39.64-5.43C777.37,619.91,815.21,632,816.77,606.11Zm-29.5-8.21c-.94-5.4,4.56-5.68,7.89-5.61,8.16.17,11.18,6.92,12.53,13.23.89,4.2-3.49,6.78-8.15,7.66C792.06,610.88,788.49,604.89,787.27,597.9ZM606.34,455.12c-26.46,3.7-5.47,41.4,12.15,37.66C641.66,490.78,628.86,453,606.34,455.12Zm5.35,7.49C618.9,464,622,471,623.5,477.43c.69,2.84-.94,7.91-6.36,7.48C602.44,484.13,598,459.76,611.69,462.61Zm-66,18.68c-27.26.45-18.79,42.66,9.32,41.22C582.85,520,566.8,479.35,545.72,481.29Zm4.78,31.79c-7.76-.43-12.34-5.47-13.13-12.38-.74-6.48,4.57-10,10.67-9.45C561,491.34,567.11,515.19,550.5,513.08ZM424.59,352.7c8,.41,20.51-15.66,20.46-24.82.33-12.66-8.2-16-16.92-16.62C403.35,310.77,391.44,354.64,424.59,352.7Zm-11.2-16.87c-.1-16.42,23.05-20.43,23.24-5.4C437.66,341.43,413.5,350.29,413.39,335.83ZM102.18,491.77c3.53,13.81,1.74,25.82.06,38.08,1.7,94.8,132.41-15.38,161.41-42.69,18.07-16.94,32.07-36.81,47.19-62-4,9.91,3.65,13,1.87,17.89-3.68,10-6.85,20.74-12.84,29.35-30.78,46.78-82.46,73-130.32,98.87C149,582.31,129.4,593.31,115,612c-7.13,6.91-6.21,19.48,5.09,7.71C148.94,590,188.7,576.2,223.35,554.61c39.87-24.2,83.92-54.78,95.87-102.5,2.36-12.73,11.81-3.26,25.2-11.47,8.17-2.92,8.19-16.22,19.36-13.55,5,.44,10.82-12.35,15-11,73.47,18.95,125-56.6,191.43-72.85,3.57-1.07,9-1.15,8.21-5.13-.7-3.53-6.24-1.22-9.58-1.21-18.65,0-33.06,10.93-49.07,18.37C478.21,375.84,441,413,391.62,410.78c-6.4-.29-16.1,3.42-12-9.36.61-1.91-4.8-5.25-1.9-5.83,23.17.36,46.18-4.95,68.13-11.5,23.82-8.33,85.61-41.73,60.42-71.06-13.07-16.69-31.44-22.57-51.74-24.15-4.49-.35-9.69,1.6-12.58-4.45-13.06-27.48-59.55-40.74-86.39-25.75,1.39-18.38-10-38.54-32.1-32-9.43,2.91-19.09,12.45-27.71-3.35-3.53-6.46-29.34,2.29-32.9,9.91-1.45,3.11-3.75,7.8-7.82,5.87-14.29-6.15-35.68,7.88-36.08,22.26-.25,15.35,1.23,30.25,10.7,42.81-11.47,4.25-20.65,9.62-13.88,23.78-31.68-7.88-65.1-9-95.93,4.63-12.79,6.31-22,22.65-13.64,30.66,3.07,2.92,5.85,4.18,1.27,8.94-9.91,10.88,10.86,24.59-2.42,35.87-3.17,3.26-2.7,7.07-.53,11.44,5.28,10.62,13.77,14.7,26.1,13.61C110,448.32,96,467.7,102.18,491.77Zm185-51c-2.2,2.79-1.8,10.26-8.23,7.07-7.69-3.81-4.33-10.06-.9-14.65s8.35-8.1,12.51-12.18c5.18-5.09,6.91,4.67,11.44,3C294.75,427.9,291.7,435,287.15,440.72Zm17.4-90.44c3.16,1.71,6.7,4.67,9.89,2.29,2.91-2.4-3.22-3.81-2.87-5.88.79-4.62,4.83-7.8,8.54-9.21,3.95-1.51,9.31-1.61,12.25,2.92.26.4-4.16,4.3-6.79,6s-3.44,3.15-1.62,5.56c5.2,6.49,14.55-18.17,29.13-4.86-18.23,8.54-13.13,17.61-19.33,15.09-20-14.07-50.2-8.41-58.55,16.41C250.18,364.76,289.33,339.78,304.55,350.28ZM288.43,332c-.15-3.63,5.33-4.5,7.94-4.24,5.44.53,9.66,4.12,13.26,10.43-1.9,1.42-4.44,4.72-6.13,4.33C297.25,341.08,288.82,341.11,288.43,332ZM367,357.08c-12.88,5.72-15.16,21.83-27.48,11.57,6.72-9.53,14.69-15.46,28.2-18.18.79-.25,1.8,1.93,2.34,3.95C370.71,356.92,368.2,356.28,367,357.08Zm12.8,2.75c4.25-1.13,7.69-.92,11.24,2-7.47,5.56-16.69,7.91-22.09,15.6-4.23,5.75-9.53-1.5-13.49-3.8C362.85,367.43,370,361.46,379.78,359.83Zm-51.28,8.52c-16.7,1.32-29.13,9-36.57,24.64C271.67,369.26,315.38,355.32,328.5,368.35Zm-67.95-11.23c-.67,1.33-2.13,2.27-3.22,3.38-19.84-17.86,16.41-36.14,29.89-20.37C276,343.05,266,346.41,260.55,357.12Zm-6.76,12.48c-3,2.94-8.3,3.34-9.48,9.09-5.78-5.43-1.82-11.64,3.63-14.75C248.56,363.57,251.77,367.6,253.79,369.6Zm3,5.51c4.54-1.44,4,6,8.39,7.26-6.73-2.16-7.37,11.63-13.5,5.49C248.29,384.48,250.87,377,256.78,375.11ZM271,385.62c3-1,10.17,5.24,9.32,6.23A72.69,72.69,0,0,1,263,406.56c-2.48,1.49-2.06-3.7-3.17-5.36C260.52,393.46,264.51,387.74,271,385.62Zm13.34,13.45c3.08-.57,4.78,2.73,4.23,4-1.55,3.61,4.65,6.89-.12,10.31-6.31,4.53-12.57,9.17-18.46,14.21-3,2.55-3.44-.16-4.09-1.45C263.23,420.87,278.12,399,284.33,399.07Zm30.85,20.69c-8.64.21-11.81-14-14.12-20.05.22-10.66,18.35-22.83,29.13-21.62,6.49.16,47.36,7.1,30.1,17-8.53,3.6-13.52,10.15-17.65,18.17-2,3.15-7-.44-9.94.36C327,414.58,321.14,420.14,315.18,419.76Zm15.38,17.33c-24.88-.54-5.25-17.64,7.62-17.13C358.69,423,344.3,438.3,330.56,437.09Zm42.07-30.41c-.9,10.7-20.38,18-21.1,8.19,2-7.42,6.8-13.15,15-14.37C370.64,399.88,373.36,403.91,372.63,406.68Zm36.11-26c-.92,4.05-4.71,1.64-7.17,2.32-8.6.53-29.17,13.51-31.86.92,8.59-4.52,17.45-8.75,25.85-13.74,5.65-3.36,8.67,1.29,12.29,3.31C409.17,374.16,409.24,378.56,408.74,380.64ZM360,272.63c19-20.33,68.16-1.29,73.93,24.3,1.39,4.32,6.75,5.86,12.68,4.39,16.86-3.41,36.39,3.2,48.51,15.16,24.72,31.09-55,58.53-77.46,64.08-5,1.27-1.21-4.89-2-6.82-1.06-3.29-2.21-7.32-4.73-7.9-11.7-2.68-19.34-16.16-33.42-12.26-5,1.38-1.86-3.48-3.26-5.1-6.6-7.61-13.77-3.81-20.93-1.48,1-5.23-2.91-10.15-6.05-9.57-11.66,2.13-20.56-13.13-32.67-4.57-15.74-28.18-31.95,5.21-46.76-13.69-16.24-33.13,40.89-63.7,68.08-53.9C343.3,266.35,353.46,279,360,272.63ZM329.3,234.89c10.77.17,19,9.52,18.45,20.66-.13,2.53-1.39,1.73-2.28,1.15-15-9.25-31.17-3.31-46.24-.41C304.51,245,316,235.8,329.3,234.89Zm-48.86-2.69c6.9-3.7,13.39-4.19,18,3.79,3.62,6.31-3.69,7.77-5.18,11.76-5.94,15.89-21.2,23.65-31.52,36C255.82,258.49,261.65,242.27,280.44,232.2Zm-13.22,91.32.67.08c-13.88,5.52-25.68,11-25.27,31.33-2.54-9.93-7.78-15.94-4.13-21.79C245,322.72,255.87,322.15,267.22,323.52ZM243.49,244c6.29-3.17,12.78.16,8.16,7.39-4,14.21-1.5,27.65,6,40.54-5.07,6,.91,23.19-5.54,23.59-2.67,0-6.36-2.2-7.27-4.94-3.14-9.74-13.14-14.95-14.59-26.6C227.46,261.88,229.57,251.74,243.49,244Zm-13.38,68.8c3.39,3.73,9.3.09,12.6,4.81-5.46,3.32-9.45,8-13.64,12.73-1.18,1.32-5.1-5.89-5.82-9.88C222.49,316.24,225.37,313.85,230.11,312.78Zm-92,22.52c25.19-8.39,51-5.13,76.8-2.3,11.23,1.23,13.74,10.44,18,18.23-22.72,6.25-45-3.73-67.87-2.46-16.6,1.24-33,2-46.57,13.45-1.21,1-3.31,1-5,1.42C109,347.1,124.24,338.91,138.11,335.3Zm45.5,24.92c-10.76,1.43-16.77,8.07-22.39,13.52-9.87,8.8-22.53,8.51-33.29,13.8-3.78,1-8.21,7.46-10.19,4.32-14.28-25.42,34.67-38.44,53.1-32.9C176,358.27,177.44,357.6,183.61,360.22ZM113.83,417c-3-5.12.94-9,4.35-11.86,8.31-6.89,16.34-14.68,28.39-14.6-2.83,9.35-9.6,17.67-8.17,28.48.26,2,.29,5.77-3.69,5.85C126.71,425.06,118.51,425.08,113.83,417Zm30,23.38c7-4.53,5-14.51,6.34-22.22,4.62-26,20.67-41.61,44.48-51.37,16.49-5.66,31.76-.24,47.68-8.85-22.44,22.59,3.37,23.59,10.36,46.91,2.47,8.06-.11,19.37,5.78,23.91,9.5,7.34,2.1,23.57,16.29,26.84-32.2,40.42-78,70.53-123.07,95.48-11.14,5-30.91,4.65-35.31-3.8-6.05-11.61-5.54-24.14,2.63-35.24,3.54-4.81.63-8.6-1.88-11.59-9.86-11.71-1.24-35.84,5.66-45.53C128.37,447.08,136.66,445.06,143.82,440.42ZM355.51,322.77c23.36,2.94,38.49-43.37,5.59-37.17C342.29,290.07,335.48,321.51,355.51,322.77Zm-5-15.26c1.49-6.39,4.57-13.38,11.63-14.89,13.5-3.28,9.83,21-5.1,22.31C351.58,315.34,349.82,310.34,350.49,307.51ZM174,451.06c10.21,0,23.6-11.48,22.91-20.46-.65-8.48-4.78-16.06-13.93-16.63-11-.7-27.05,13.83-25.77,22.36C158.59,445.5,163.46,451.78,174,451.06Zm-7.68-15.65c1.57-6.14,4.32-13.13,12.63-13.14,15.19-1.13,5.13,19.42-4.76,20.92C169.76,442.15,165.24,439.61,166.31,435.41Zm-12.82,83.65c13,0,27.61-13,27.57-24.52,0-7-13.75-19.87-20.81-19.47C139.15,476.9,122,518.87,153.49,519.06Zm-8-15.09c4.6-41.51,49.29-5.78,9.9,7.37C152.09,508.71,144.13,510.07,145.5,504Z"/></g></g><g id="Red_Japanese_Frames" data-name="Red Japanese Frames"><path class="cls-7" d="M0,20V1580a20,20,0,0,0,20,20H956a20,20,0,0,0,20-20V20A20,20,0,0,0,956,0H20A20,20,0,0,0,0,20ZM924,1548H52V52H924Z"/><path class="cls-8" d="M952.1,15.41,928.69,38.83A4,4,0,0,1,925.86,40H50.14a4,4,0,0,1-2.83-1.17L23.9,15.41A2,2,0,0,1,25.31,12H950.69A2,2,0,0,1,952.1,15.41ZM40,1549.86V50.14a4,4,0,0,0-1.17-2.83L15.41,23.9A2,2,0,0,0,12,25.31V1574.69a2,2,0,0,0,3.41,1.41l23.42-23.41A4,4,0,0,0,40,1549.86ZM936,50.14V1549.86a4,4,0,0,0,1.17,2.83l23.42,23.41a2,2,0,0,0,3.41-1.41V25.31a2,2,0,0,0-3.41-1.41L937.17,47.31A4,4,0,0,0,936,50.14ZM925.86,1560H50.14a4,4,0,0,0-2.83,1.17l-20,20a4,4,0,0,0,2.83,6.83H950.69a2,2,0,0,0,1.41-3.41l-23.41-23.42A4,4,0,0,0,925.86,1560Z"/></g></svg>