<svg id="Card" xmlns="http://www.w3.org/2000/svg" viewBox="0 0 1024 1680"><defs><style>.cls-1{fill:#f2f0ed;}.cls-2{fill:#8c1707;}.cls-3{fill:#16592d;}.cls-4{fill:#d82e21;}.cls-5{fill:#38408c;}</style></defs><rect class="cls-1" x="14.5" y="14.5" width="995" height="1651"/><polygon class="cls-2" points="966 1619.17 966 60.83 1018 8.83 1018 1671.17 966 1619.17"/><polygon class="cls-2" points="60.83 58 8.83 6 1015.17 6 963.17 58 60.83 58"/><polygon class="cls-2" points="8.83 1674 60.83 1622 963.17 1622 1015.17 1674 8.83 1674"/><path class="cls-3" d="M868.75,1533a106.12,106.12,0,0,1-33.39-4.9c-18.83-6.14-30.14-20.26-39.56-34.61-1.77-2.69-3.64-3.94-5.9-3.94a11,11,0,0,0-5.37,1.77,116.54,116.54,0,0,1-47.73,14.84l-.34,0c-4.26,0-8.73-8.19-10-10.7a152.13,152.13,0,0,1-16-53.64c-1.4-13.29-1.27-26.2-1-39.34.34-16,1.36-32.79,9.59-47.28,2.18-3.84,6.94-5.46,12-7.17a38.05,38.05,0,0,0,8.34-3.54c12.87-8.4,20.39-21.91,27.66-35l.32-.57c3.31-5.94,8.12-13.28,16-17.42,9.07-4.74,12.06-13.16,15.51-22.92.43-1.21.84-2.36,1.26-3.52l1.77-4.83,4.4,10.68c2.94,7.09,5.68,13.72,8.33,20.37a5.08,5.08,0,0,1-1,4.78c-9.38,10.26-15.93,22.68-22.27,34.7l-.08.16c-1.48,2.8-3,5.6-4.47,8.38-3.33,6.11-9,8.57-14.45,11a50.17,50.17,0,0,0-6.81,3.37c-15.17,9.6-21.66,24-28.56,41.92a32.12,32.12,0,0,1-1.93,3.9c-1.82,3.31-3.39,6.17-1.72,9.64a5.18,5.18,0,0,1,.4,1.41,6,6,0,0,0,1.33-1.89c1.16-2.69,2.31-5.47,3.43-8.15l0-.12c8-19.39,16.33-39.44,39-48.83l5.27-2.17-2.76,5c-9,16.39-16.47,35.09-22.74,57.17-4.15,14.66-5.57,26.76-4.45,38.08.21,2.08,1.56,4.31,3.23,4.31.24,0,.91-1.22.9-4.07,0-19.75,5.46-38.47,10.85-54.18l1.7-4.94,2,4.81c7.54,17.79,9.85,36.34,7.28,58.38a5,5,0,0,1-.9,2.09v0a2.1,2.1,0,0,0,.48.06c.33,0,1.35,0,2.37-2.8,3.87-10.66,2.89-21.37,1.86-32.71-.28-3.05-.57-6.15-.75-9.23-.26-4.55-2.36-8.78-4.39-12.87-2.73-5.5-5.54-11.18-4.07-17.73,1.65-7.33,5.34-14.2,8.91-20.84l1.37.62-1.32-.71c1.2-2.24,2.45-4.56,3.58-6.84,8.68-17.45,17.61-34.88,25.3-49.85a6.73,6.73,0,0,1,2.55-2.44,10.17,10.17,0,0,0,.87-.6l2-1.6,1.07,2.32c.31.66.6,1.33.89,2a41.63,41.63,0,0,0,1.91,4c6.82,11.84,1.78,21.7-2.68,30.39-2.14,4.19-4.36,8.52-5.22,12.89s-1.93,8.71-3,12.92c-2,8.14-4.13,16.54-4.45,24.78-.11,2.81-.27,5.65-.43,8.39-.79,14-1.6,28.52,3.65,42.23.15.4.3.82.45,1.24.36,1,1,2.84,1.5,3.11l.11,0c1.35-.39,1.72-2.32,1.19-6.24-2.79-20.72-2.92-40.3-.37-58.19,2-13.83,4.41-31,13.31-46.09l2-3.42,1.54,3.66c1.25,3,2.46,6,3.63,9l.08.19a193.47,193.47,0,0,0,8.82,20.1c6,11.3,3.82,22.28,1.7,32.9-1.3,6.54-2.64,13.29-1.91,19.86,2.62,23.6,6.58,48.64,17.63,71.9a19.4,19.4,0,0,1,1.09,3.25,9,9,0,0,0,1.32,3.3,8.62,8.62,0,0,1,1.32,2.62,11,11,0,0,0,.59,1.42l.28-.13c1.24-.64,1.58-1.74,0-6a305.31,305.31,0,0,1-16.14-60c-2.27-13.42-1.65-25.75.08-41.3l.13-1.19,3.35-.38.4,1.13a458.67,458.67,0,0,0,26,60.55c7.93,15.39,20,27.55,32.77,39.68l.47.46c.38.39,1.27,1.29,1.64,1.29a.87.87,0,0,0,.33-.21,1.8,1.8,0,0,0,.26-.28,10.44,10.44,0,0,0-1-1,11.76,11.76,0,0,1-.86-.91,300.68,300.68,0,0,1-36.06-54.46,111.38,111.38,0,0,1-5.51-13.76c-.82-2.36-1.74-5-2.78-7.72l-2.47-6.52,5.55,4.22c4.1,3.11,8.08,6.09,12,9,9.1,6.81,17.7,13.24,26,20a81.67,81.67,0,0,1,10,10.43c1.55,1.84,3.16,3.73,4.81,5.51a3.13,3.13,0,0,1,.54.8c.49-.54.42-.76,0-1.73-8.45-18-24.7-28.89-40.4-39.38l-.24-.16c-17.92-12-27.44-25.21-30.88-43-1.38-7.07-5.06-14-8.63-20.66-1.08-2-2.19-4.12-3.24-6.2a13.85,13.85,0,0,1-1.49-8.73l.35-2.32,2.24.71,1.83.6c1.12.37,2.19.72,3.27,1,21.79,6.5,42.09,18.55,63.88,37.91a30.34,30.34,0,0,1,2.17,2.29c1.12,1.27,3.2,3.62,4.22,3.62.23,0,.57-.33.92-.89,1.43-2.28-1.25-4.74-5.19-8-1.1-.9-2.15-1.76-3-2.61-16.64-16.45-37.18-27.58-53.22-35.44a26.37,26.37,0,0,0-7.37-1.9,43,43,0,0,1-6.34-1.38c-9.25-3-11-10.62-12.57-17.31-.76-3.25-1.54-6.61-3.15-9.24-3.59-5.86-4.56-9.84-3.06-12.52s5-3.15,8.18-3.15c.89,0,1.81,0,2.71.07h.15c.82,0,1.63.06,2.38.06a7.8,7.8,0,0,0,2.65-.29c4.13-1.73,8.81-1.79,13.33-1.84a62.43,62.43,0,0,0,7.43-.38,15.44,15.44,0,0,1,2.12-.15c6.1,0,9.94,3.78,13.32,7.11a27.46,27.46,0,0,0,5.62,4.66c1.43.79,2.86,1.6,4.29,2.41l.09,0c9.95,5.63,20.24,11.46,32.22,11.46H917a6.24,6.24,0,0,0,4.62-2.13,26.45,26.45,0,0,0-4.67-.89c-1.07-.14-2.29-.3-3.45-.54-14-2.94-25.74-9.72-35.43-16l-3.92-2.52,4.52-1.1a47.82,47.82,0,0,1,11.58-1.33c6.47,0,12.86,1.08,19,2.12,3.83.64,7.71,1.3,11.51,1.68.73.08,1.47.14,2.21.2l.13,0c5,.44,10.2.9,14.88,3.88a6.16,6.16,0,0,0,.89-.91c0-2.64-1.71-3.33-5.42-4.21l-1.26-.32c-21.36-5.64-43.2-8.27-68.74-8.27-3.89,0-7.94.06-12,.19l-7.51.23,6.4-3.93c16.28-10,31.24-18.28,49.39-18.28.8,0,1.62,0,2.44,0,.56,0,1.18.08,1.83.15.82.08,1.66.16,2.43.16,2,0,2-.45,2-1s-.68-1.08-4.57-1.35l-1.69-.14a74.68,74.68,0,0,0-7.84-.42c-18.74,0-34.86,7.3-49.3,22.31-4.34,4.5-10.06,4.51-15.12,4.52-3,0-6.09,0-8.73.92l-.2.07-.29,0h-.14c-1.91,0-2.9-1.78-6.78-9.32-.87-1.69-1.7-3.29-2.4-4.57-2.7-4.89-5.38-9.85-8-14.64l-1.47-2.73c-.37-.68-.68-1.37-1-2l-.4-.89-2-4.37,4.54,1.64.8.27a14.08,14.08,0,0,1,2.24.86,54.64,54.64,0,0,0,24.51,6.43c13.64,0,23.21-6.87,27-19.35,2.09-7,5.18-10.34,9.44-10.34,2.88,0,5.55,1.55,8.14,3.06a16.44,16.44,0,0,0,4.51,2.11c16,2.61,32.68,9.16,49.7,19.45,10.47,6.33,20.67,14.6,32.09,26l.58.58v29.42l-.79.6a13.45,13.45,0,0,0-3.32,3.27c-3.06,4.79-8.1,8.16-13,11.41l-.92.61c-2.49,1.67-3.84,3.32-4.13,5-.44,2.67,1.8,5.63,4,8.5l1.06,1.42c10.27,14,14.12,31,11.76,52.12-2.91,25.92-7,53.15-12.07,81-.48,2.62-1,5.27-1.54,7.84l0,.21c-2,9.82-4.06,20-3.31,29.83.18,2.46.63,5.31,1.06,8.07.41,2.59.83,5.27,1,7.73.27,3-.2,5.07-1.43,6.42a4.72,4.72,0,0,1-3.59,1.49c-2.64,0-5.6-1.69-7.37-2.7-.38-.21-.7-.41-.87-.48a27.08,27.08,0,0,0-9-1.48c-5.19,0-10.42,1.28-15.47,2.53a91.14,91.14,0,0,1-12,2.37A217.58,217.58,0,0,1,868.75,1533Z"/><path class="cls-3" d="M740.1,922.8c-.21-.41-.43-.82-.65-1.23a17.5,17.5,0,0,1-1.52-3.32c-3.72-12.3-13.09-19-29.5-20.92-7.08-.85-13.42-1.8-19.29-4.87-7.43-3.87-4.85-9.87-3.15-13.84a20,20,0,0,0,1.33-3.66c1.49-7.81,3.69-15.56,5.82-23.06.69-2.44,1.38-4.88,2.05-7.32.39-1.39,2.44-3.36,3.85-3.36h.57l.51.31A45.43,45.43,0,0,0,710.55,846c6.86,2.31,14,4.71,19.53,12.77,6,8.7,18.31,20.31,42.81,26.24a229.65,229.65,0,0,0,28.64,5.5,4.58,4.58,0,0,0,.64,0c2,0,4.46-1,6.8-2l.06,0c-1.21-.25-2.39-.5-3.56-.77-4.22-1-8.58-1.87-12.8-2.72-20.77-4.18-42.25-8.51-56.89-28.19l-3.12-4.18,5.12,1c4.46.9,9,1.9,13.33,2.87,14.58,3.23,29.63,6.56,44.83,6.56a94.27,94.27,0,0,0,16.76-1.44c6.62-1.18,13.51-1.86,20.17-2.52,5.68-.56,11.53-1.14,17.19-2a6,6,0,0,0,2.14-.57,4.49,4.49,0,0,0-1.58-1.48c-5.24.32-10.55.8-15.69,1.26-4.63.42-9.36.85-14,1.16l-1.64.11c-8.13.54-16.53,1.1-24.82,1.1A128.35,128.35,0,0,1,771,856.81a3.91,3.91,0,0,1-2.74-3.08V853l.52-.58c.32-.34.62-.73.93-1.11a10.51,10.51,0,0,1,3.69-3.37c2.93-1.33,5.85-2.7,8.76-4.07,14.88-7,30.26-14.2,47.23-16.64l1-.12a9.38,9.38,0,0,0,2-.34c-.19-1.07-1.48-1.66-3.85-1.83-1.09-.09-2.19-.13-3.29-.13-10.9,0-21.1,4.1-30.95,8.06-2.09.83-4.17,1.67-6.27,2.48-8.79,3.38-16.3,8.23-24.25,13.36l-4.36,2.8a8.59,8.59,0,0,1-4.76,1.21c-3.6,0-7.92-1.42-12.11-2.8-2.1-.69-4.09-1.35-5.94-1.81-7.88-2-15.78-4.35-23.41-6.66l-2.07-.63a9.5,9.5,0,0,1-3.26-2c-.35-.29-.68-.56-1-.8l-2.41-1.67,2.44-1.63.79-.55a17,17,0,0,1,2-1.31l20-10.71c15.34-8.2,31.21-16.67,47-25.18a42.8,42.8,0,0,0,8-5.43c5-4.38,10.72-6.43,18.1-6.43a87.25,87.25,0,0,1,10.85.93,82.07,82.07,0,0,0,10.42.91,25.46,25.46,0,0,0,9.14-1.5c5.94-2.24,12.3-3.38,18.46-4.48,3-.53,6.12-1.09,9.14-1.77A3.6,3.6,0,0,0,863,778a.67.67,0,0,0-.09-.42,7.6,7.6,0,0,0-2.93-.43,12.74,12.74,0,0,0-1.44.08c-12.85,1.43-25.7,3-40.59,4.79l-14.65,1.77-1.17-3.13,1-.66c4.41-3,8.38-5.6,12-8l.12-.08c6.78-4.49,12.64-8.38,18.29-12.39,20.67-14.68,37.57-27.63,52.83-43.11a3.52,3.52,0,0,0,.49-.6,1.64,1.64,0,0,0-.18-.16,3.22,3.22,0,0,0-1.91-.78c-1.21,0-2.58,1.08-3.9,2.13l-.56.43c-4.49,3.49-9,7.09-13.28,10.57-7.86,6.32-16,12.83-24.25,18.8-17.34,12.45-35.45,24.35-51.43,34.84-4.81,3.17-9.91,5.9-14.85,8.55-2.18,1.16-4.42,2.37-6.6,3.59a9.22,9.22,0,0,1-1.34.56l-.38.13-3.16,1.22.45-3.35c0-.2,0-.42,0-.64a5.37,5.37,0,0,1,.6-2.76c3-5.07,5.8-10.34,8.55-15.44,8.47-15.71,17.22-32,30.71-44.94a5.57,5.57,0,0,0,.14-1c-.51,0-1-.06-1.43-.06a3.14,3.14,0,0,0-1.42.23c-6.42,3.63-10.82,9.62-15.08,15.41-1.61,2.2-3.26,4.44-5,6.56-10,12.15-16.88,24.3-20.38,36.11-5.34,18-19,24.26-32.23,30.31a127.44,127.44,0,0,0-13.4,6.79c-2.35,1.44-4.82,2.68-7.2,3.87-1.09.54-2.1,1-3.1,1.56L704,829.42l-.59-2.5c-1.29-5.45,1.24-10.14,3.27-13.91.43-.79.84-1.56,1.21-2.32,10.42-21.34,21.82-42.59,32.85-63.14l1.51-2.82c.45-.84.3-1.37-.08-2.5h0a3.71,3.71,0,0,0-1.39.9c-5.25,9-10.47,18.34-15.52,27.32l-.22.38q-3.59,6.38-7.18,12.74a8.33,8.33,0,0,1-1.75,2c-.24.22-.44.4-.62.6L712.86,789l-.76-3.78c-.05-.24-.13-.5-.21-.76a5.86,5.86,0,0,1-.35-3c1-4.35,1.82-8.81,2.66-13.12,2.13-11,4.32-22.25,8.08-32.87,2.92-8.19,10.54-12.14,17.91-16,2.47-1.28,5-2.6,7.25-4,23.76-15.22,50.81-18.58,77-21.82,6.54-.81,13.28-1.65,19.86-2.66,7.46-1.14,15.08-2,22.45-2.83,14.26-1.61,28.94-3.26,43-7a2.09,2.09,0,0,1,.5-.08q7.45-3.19,14.85-6.44l4.36-1.9-.57,3.6c-.45,2.81-.85,5.65-1.24,8.39-.87,6.1-1.76,12.4-3.14,18.54-4,17.75-10.48,36.35-19.91,56.88-2.45,5.31-6.06,10.06-9.56,14.65-1.18,1.56-2.4,3.16-3.54,4.74-4.16,5.76-8.39,11.51-12.49,17.07l-.31.42c-4,5.45-8.16,11.09-12.19,16.67-1.29,1.79-1.82,3.22-1.56,4.23.38,1.52,2.68,2.65,4.91,3.74.75.37,1.48.72,2.14,1.09a125.14,125.14,0,0,1,36.94,31.35c3.52,4.45-2.15,9.18-5.91,12.32-.73.6-1.48,1.22-2,1.73-16,15.09-33.92,26.72-50.9,37-14.69,8.92-30.62,12.31-46,15.59-2.31.49-4.61,1-6.92,1.49a3.08,3.08,0,0,1-.68.08c-2.06,0-4-1.92-5.79-3.78l-.72-.72c-6.54-6.4-13.62-9.78-20.47-9.78-7.67,0-15.19,4.19-21.76,12.12a12.2,12.2,0,0,1-3.35,2.57c-.46.27-.9.53-1.32.82l-1.9,1.32Z"/><path class="cls-4" d="M848.19,1168.38c-2.07,0-4.12-.1-6.1-.2-1.8-.1-3.85-.2-5.79-.2l-1.45,0h-.34a11,11,0,0,1-9.18-4.49c-1.37-2.06-2.53-5.66-.26-11.13,6.32-15.13-3.76-26.54-11.86-35.71a5,5,0,0,0-.53-.51,3.58,3.58,0,0,1-1.5-2.69,4,4,0,0,1,1.59-2.84c11-9.71,16.5-19.22,16.94-29.07s-4.31-20-14.54-30.84l-.37-.38c-1.76-1.85-3.95-4.15-3.08-6.66.81-2.33,3.74-3,5.87-3.3,5.71-.8,9.91-4.68,14-8.43,3.88-3.58,7.89-7.27,13.37-8.82,6.63-1.86,12-2.77,16.47-2.77,6.31,0,11,1.77,14.29,5.4,4.46,4.9,6.08,13,5,24.68v.16l-.06.22c-2.76,8.4,2.22,15,8,22.6a81.86,81.86,0,0,1,6.77,9.92c6.29,11.43,4.79,23.26-4.12,32.43-6.1,6.3-7.34,13.51-8.65,21.15-.45,2.63-.92,5.34-1.59,8-3.08,12.14-10.21,19-23.11,22.36A38,38,0,0,1,848.19,1168.38Z"/><path class="cls-3" d="M737.91,614.36l.32-1.17c1.56-5.62,2-11.39,2.51-17,1.08-12.75,2.09-24.77,14.7-34.38,5.14-3.92,9.22-9.64,13.16-15.17a95.47,95.47,0,0,1,10.5-13.06c13.11-12.88,26.68-26.21,42.87-36.35,13-8.14,25.89-15.46,39.91-15.46.67,0,1.34,0,2,.05l4.67.23c14.81.7,30.11,1.43,45.15,6.09l6.27,1.94L913.69,492a201,201,0,0,1-23.11,5c-10.24,1.78-20.79,3.62-30.45,7.73-13.8,5.89-24.78,15.23-36.4,25.13-2.25,1.91-4.5,3.83-6.78,5.73-16.42,13.64-31.41,29-45.91,43.94l-.45.47c-6.73,6.91-12.81,14.66-19.24,22.87-3.07,3.92-6.23,7.95-9.64,12.13l-.77.94Z"/><path class="cls-3" d="M745.54,560.87c0-1.07-.07-2.15-.12-3.22v-.16c-.11-2.68-.23-5.45-.09-8.22a14.17,14.17,0,0,1,.88-3.72,8.81,8.81,0,0,0,.66-2.91c-.59-14.79,8.29-23.48,16.87-31.89A109.75,109.75,0,0,0,772,502l1.83-2.25c10.93-13.42,22.24-27.29,38.19-36a50.5,50.5,0,0,1,24.73-6c8.92,0,18,1.84,26.37,3.83a129.17,129.17,0,0,1,39.51,16l1,.62-1.09,3.2-1.2-.13c-3.8-.41-7.35-.81-10.72-1.19-7.5-.85-13.93-1.57-20.45-2.15-1.17-.1-2.37-.15-3.55-.15-8.92,0-17.44,3-25.67,5.83-13.27,4.62-23.86,12.22-35.07,20.27l-.55.39c-18.9,13.56-33.51,30.69-49.3,50-1.54,1.89-3.23,3.67-4.86,5.4l-.1.1L749,562.17l-3.34,3.65Z"/><path class="cls-4" d="M828.63,1250.09c-10.06,0-19.4-5-25.46-9.25-2.55-1.77-5-3.64-7.47-5.44l-.36-.26-3.46-2.56c-4.29-3.13-6.42-6.1-6.54-9.07-.16-3.93,3.07-6.7,6.18-9.39a31.63,31.63,0,0,0,3.81-3.63c7.6-9.24,10.95-20.66,14-32.52,2.14-8.35,6.91-10.1,10.53-10.1,3.94,0,8.11,2,11.3,3.75a19.73,19.73,0,0,0,9.85,2c.91,0,1.82,0,2.72-.05l.15,1.5,0-1.5c.93,0,1.85,0,2.76,0h.94c13.18.25,21.37,8.44,21.42,21.39,1.07,5.59-2.31,9-5.3,12a24.92,24.92,0,0,0-3.2,3.68c-2.46,3.83-3.31,8.42-4.12,12.87-1,5.38-2,10.93-5.77,15.6C844.67,1246.41,837.3,1250.09,828.63,1250.09Z"/><path class="cls-4" d="M811.33,1037c-3.28,0-9-1.71-10.11-13.18-1.52-15.17-13-20.57-24.55-24.8a5.54,5.54,0,0,0-.6-.17,3.42,3.42,0,0,1-3-3.78c.08-13.59-9.17-18.8-19.87-24.84l-2.77-1.57c-5.29-3-10.75-6.17-15-10.54-1.62-1.68-.32-4.13,1.66-7.83a39.28,39.28,0,0,0,2.11-4.35c6.3-17.12,14.5-33,31.73-33q.93,0,1.89.06c8,.54,12.67,5.86,16.43,10.81,3.88,5.1,9.14,6.29,15.23,7.66a47.18,47.18,0,0,1,9.72,2.94c10,4.61,15.62,12.9,16.33,24,.36,5.63,3.36,9.28,6.54,13.15a49.13,49.13,0,0,1,4.44,6c4.2,7.09,7.09,14,7.36,17.51.73,14.5-6.74,21.12-12.75,26.44a61.25,61.25,0,0,0-4.9,4.68,31.73,31.73,0,0,1-7.44,5.55c-.94.56-1.82,1.09-2.68,1.65C817.42,1035.75,814.14,1037,811.33,1037Z"/><path class="cls-4" d="M783.19,1115.27a11.31,11.31,0,0,1-3.84-.65,24.43,24.43,0,0,1-5.23.63c-10.14,0-12.25-8-14.12-15.09a33.9,33.9,0,0,0-2.7-7.79c-1.08-1.91-2.2-3.82-3.32-5.72-6.73-11.47-13.7-23.33-13.93-38.11a112.61,112.61,0,0,0-4.32-28.17c-1.37-5,3.38-7.12,6.52-8.55a18.61,18.61,0,0,0,3.59-1.94c5-4,12.2-6.22,20.21-6.22,12.11,0,22.77,5,27.15,12.71a42,42,0,0,1,3.71,10.67,40.74,40.74,0,0,0,3.19,9.47c2.95,5.37,6.42,10.62,9.77,15.7a199.74,199.74,0,0,1,11.25,18.47c5.56,10.82,3,19.74-.07,25.32-5.09,9.15-15.69,15.89-26.39,16.76a23.15,23.15,0,0,0-4.74,1.14A21.9,21.9,0,0,1,783.19,1115.27Z"/><path class="cls-4" d="M763.52,1217.78c-27.75,0-49.33-13.88-66.78-27.45-9-7.06-13-15.76-11.64-25.86.38-3-1.14-5.22-2.9-7.85a29.76,29.76,0,0,1-2.56-4.3l-2.23-4.86,4.88,2.21a78.59,78.59,0,0,0,32.51,7.45c26.86,0,46.82-16.13,48.51-39.23l.23-3,2.7,1.41a31.63,31.63,0,0,0,15,3.5c6.11,0,12.34-1.39,18.17-2.9a20.91,20.91,0,0,1,5.14-.71c8.81,0,11.75,7.09,14.1,12.79.59,1.41,1.14,2.74,1.74,3.9,6.93,13.27-.4,22.54-6.86,30.72a68.49,68.49,0,0,0-6.41,9,75.68,75.68,0,0,0-5.24,13.44c-2.35,7.36-4.78,15-10.56,21.33-8,8.78-17.81,10.15-25.5,10.36-.75,0-1.51,0-2.27,0Z"/><path class="cls-4" d="M657.53,1354.39c-12.89,0-27.9-11.71-30.31-23.64l-.72-3.52c-1.83-8.92-3.73-18.14-3.56-27.72.28-15.32.42-23,10.53-23,3.75,0,8.94,1.07,17.19,3a39.7,39.7,0,0,0,9.32,1.17c8.9,0,16.79-3.43,24.13-10.49,10.29-9.9,22.09-15.93,38.25-19.56,6-1.34,10.18-4.13,12.56-8.3,2.69-4.72,2.87-11.09.5-18.4a4.17,4.17,0,0,1,.3-3.88,3.52,3.52,0,0,1,3-1.38,8.58,8.58,0,0,1,3.23.74,38,38,0,0,0,15.78,4,22.78,22.78,0,0,0,5.23-.59,26.11,26.11,0,0,1,6-.75c10.91,0,14.6,8.59,17.86,16.17.54,1.27,1.06,2.46,1.6,3.62,2.41,5.14,4.86,11.41,4.82,18.9-.07,11.56-1.13,21.6-13.33,27.38-9.52,4.49-14.59,13.66-19.5,22.54-.59,1.06-1.18,2.13-1.78,3.18-15,26.6-25.85,33.09-55.28,33.09l-3.07,0h-.11c-1.56-.14-3.14-.21-4.71-.21-10.92,0-22,3.27-32.26,6.81A17.39,17.39,0,0,1,657.53,1354.39Z"/><path class="cls-4" d="M674.24,1016.52c-1.87-13.84,2.45-25.34,14-37.32,8.75-9.05,12.38-20.47,10.24-32.15-.47-2.54,1.88-6.6,4.28-7.36a14.45,14.45,0,0,1,4.37-.82,8,8,0,0,1,5.33,2,128.54,128.54,0,0,1,12.32,12.75c4.92,5.58,10,11.35,16.25,15.76a44.24,44.24,0,0,0,8,4.06c5.13,2.19,10.43,4.46,13.9,9.87a22.77,22.77,0,0,0,1.73,2.25c2,2.4,4.7,5.68,3,9.48-2.07,4.57-6.74,5.82-10.86,6.93-1,.28-2,.53-2.84.82a21.71,21.71,0,0,1-4.18.78c-1.58.19-3.54.43-4,1-3.47,4.3-7.23,6.4-11.49,6.4-3.81,0-7.42-1.68-10.92-3.29a47.2,47.2,0,0,0-5.87-2.42,38.38,38.38,0,0,0-11-1.71c-10.27,0-19.93,4.73-28.71,14l-2.88,3Z"/><path class="cls-5" d="M458,1327.12c-4.24,0-8.9-1.13-13-2.13l-1.93-.46c-13.39-3.16-27.31-4.23-40.77-5.27-7.61-.58-15.45-1.19-23.14-2.16-29.75-3.75-60.14-6.62-89.52-9.4l-5.34-.51c-8.29-.79-16.75-1.17-24.93-1.54-4.85-.22-9.86-.44-14.84-.75-.22,0-.45,0-.68,0-1,0-2.07.1-3.14.2s-2.4.23-3.59.23c-3.69,0-6.05-1.35-7-4-1.09-3,1.45-6.44,4.15-10.08.88-1.2,1.8-2.43,2.45-3.51l4.8-7.9c6.79-11.2,13.82-22.78,20.92-34.17,4.1-6.56,8.45-13.35,12.28-19.34,6.21-9.71,12.63-19.74,18.68-29.78s11.92-20.72,17.55-30.94c2-3.69,4-7.3,6-10.9,2.09-3.76,4.16-7.63,6.16-11.38l.06-.11c3.8-7.09,7.71-14.42,12-21.42,13.1-21.51,23.9-43.92,36.09-71,3.24-7.2,6.67-14.44,10-21.45,8.29-17.49,16.85-35.57,23-54,2.29-6.87,4.84-13.75,7.31-20.4,5.28-14.26,10.75-29,13.89-44.23,2.89-14,6.9-28,10.79-41.47l0-.15c2.09-7.27,4.25-14.78,6.21-22.2s3.71-15.26,5.39-22.75q1.15-5.11,2.33-10.24l.49-2.12.14,0q1.25-6,2.45-11.91c2.07-10.11,4.21-20.57,6.54-30.83,5.35-23.64,10.06-45,13.49-66.54,2.1-13.17,4.74-26.46,7.29-39.31l1.49.19-1.47-.29c2.09-10.57,4.26-21.49,6.11-32.26,1.7-9.93,2.65-20.18,3.57-30.1l0-.33c.25-2.67.5-5.35.76-8q.73-7.36,1.48-14.74c1.93-19.23,3.92-39,5.43-58.48.91-11.75,1.54-23.73,2.15-35.32v-.18c.59-11.13,1.19-22.64,2.05-34,1.76-23.6,3.76-50.33,2.38-76.43a4.26,4.26,0,0,1,1-3.29,3.4,3.4,0,0,1,2.57-1,9.25,9.25,0,0,1,1.19.09,5.19,5.19,0,0,0,.58.06c17.7-.73,35.82-1.42,53.79-2q15.43-.52,30.86-1l1.09,0q14.88-.48,29.76-1c5.54-.19,11.17-.31,16.62-.43h.3c13.35-.29,27.16-.6,40.63-1.87,24.88-2.36,47-3.59,67.73-3.76h.2c1.79,0,3.6.18,4.8,1.51s1.2,3.23,1,5.08c-1.56,15-3,30.19-4.37,44.91-.45,4.75-.89,9.47-1.34,14.19l-1.45,15.25q-2.55,26.64-5.11,53.28-.68,7-1.33,14l-.08.85c-1.26,13.36-2.56,27.18-4.08,40.75-1.57,14-3.25,28-4.88,41.64s-3.32,27.75-4.86,41.59c-.57,5-.9,10.2-1.23,15.19-.46,7.12-.94,14.48-2.08,21.67-2.21,13.9-5,27.93-7.78,41.5l0,.25q-1.47,7.27-2.92,14.56c-.87,4.45-1.72,8.92-2.58,13.38-2.38,12.49-4.84,25.34-7.74,37.89-2,8.73-4.54,17.46-7,25.91l0,.14c-1.42,4.92-2.89,10-4.24,15-1.66,6.2-3.27,12.54-4.82,18.67l-.07.27c-1.53,6.05-3.11,12.31-4.76,18.45-5.64,21.09-11.5,42.6-17.39,63.95-3.05,11.06-6.38,22.57-9.88,34.21-4.46,14.77-10,32.18-17.15,49.26-5.51,13.16-10.46,26.84-15.24,40.07l0,.12c-3.67,10.16-7.46,20.66-11.5,30.88-5,12.5-10.86,24.83-16.58,36.76l-2.64,5.49-5.55,11.67-.19.39c-8.07,17-16.4,34.52-25.34,51.4-9.87,18.61-21,36.79-30.55,52.12-17.3,27.68-35.52,54.31-54.16,79.14-1.08,1.44-2.14,3.1-3.16,4.71-2.85,4.49-5.8,9.13-10.22,10.91A16.72,16.72,0,0,1,458,1327.12Z"/><path class="cls-4" d="M712.27,1152.56c-20.43,0-36.76-10.77-51.74-21.79-1.94-1.43-.81-3.68,2.54-10.39,1.06-2.11,2.15-4.29,2.86-6,4-9.43,11.23-33.06-6.55-48.9a7.2,7.2,0,0,1-2.65-5.18,7.47,7.47,0,0,1,2.47-5.48c4.54-4.51,6.3-10.27,8.16-16.38.65-2.13,1.31-4.3,2.1-6.43,4-10.72,14.18-16.47,22.64-20.28a35.68,35.68,0,0,1,14.78-3.18,39.61,39.61,0,0,1,12.39,2c8.21,2.72,10.11,8.62,11.79,13.82a45.25,45.25,0,0,0,1.61,4.47,21.56,21.56,0,0,1,1.43,5.89c.11.8.23,1.62.38,2.38l0,.15v.2c-.11,20.34,5.07,37.3,16.3,53.44,6.92,9.93,8.84,23.92,4.88,35.63-2.6,7.7-8.88,17.91-24,22.76A63.36,63.36,0,0,1,712.27,1152.56Z"/><path class="cls-4" d="M730,950.64c-2.34,0-3.93-2.16-5.46-4.25a13.56,13.56,0,0,0-2.55-2.93c-1.13-.78-2.26-1.64-3.25-2.4-3.57-2.71-7.25-5.51-11.53-5.51a12.56,12.56,0,0,0-4.86,1.06,8.51,8.51,0,0,1-3.35.71c-3.17,0-5.93-1.81-7.77-5.1a19,19,0,0,0-9-8.53c-4.81-2.19-5.29-9.84-5.33-12.13-.07-5,1.32-11.57,5.51-13.63a7.06,7.06,0,0,1,3.15-.76c2.54,0,4.67,1.39,6.56,2.62a17.45,17.45,0,0,0,2.8,1.59c3.44,1.37,7.1,1.61,11,1.86,5.12.34,10.41.68,15.55,3.7,8.75,5.14,11.08,13.19,13.14,20.29a65.85,65.85,0,0,0,2.52,7.57l.28.66-.2.69c-.41,1.4-.7,3-1,4.48-.72,3.89-1.4,7.55-4,9.32A3.79,3.79,0,0,1,730,950.64Z"/><path class="cls-4" d="M660.35,1275.08a28.13,28.13,0,0,1-11-2.33,32,32,0,0,0-12.83-2.2c-2.34,0-4.76.13-7.09.26h-.11c-2.37.12-4.82.26-7.24.26l-1.5,0c-19.78-.48-30.45-12.68-31.69-36.27-1.85-10.89,1.67-22,5.39-33.65,1.09-3.44,2.21-7,3.18-10.5a4.69,4.69,0,0,1,2.07-2.47c.21-.16.41-.3.58-.45l1.66-1.52,1.32,1.83c.12.17.26.35.4.53a9.39,9.39,0,0,1,1.19,1.82c5.4,11.52,10.73,21.55,21.23,27.61a22.31,22.31,0,0,0,11,2.81c7.39,0,13.65-3.27,16.33-8.54,3.82-7.51,10.18-11.9,16.33-16.15,4.53-3.13,9.21-6.36,12.51-10.74l.58-.77,1,0a8.75,8.75,0,0,1,4.85,2.69c8.15,10.49,19.18,16.79,30.85,23.47l1.62.92c4.1,2.35,13.42,9,11.54,19.83s-9.13,16.69-20.93,16.69c-.7,0-1.41,0-2.14-.06-.32,0-.65,0-1,0-8,0-13.5,5.52-18.86,10.86-1.85,1.84-3.76,3.75-5.77,5.44C677.59,1269.67,669.86,1275.08,660.35,1275.08Z"/><path class="cls-4" d="M672.29,989.83a5,5,0,0,1-4.25-2.72c-.65-1.1-2.73-1.85-4.57-2.51-2.71-1-5.77-2.08-6.83-4.91-.73-2-.32-4.27,1.25-7.08,3.9-7,5.72-14.76,7.48-22.3,1.42-6.1,2.88-12.38,5.43-18.36,1-2.27,2.61-5.27,5.7-5.27,1.82,0,3.36,1.11,4.6,2,9.09,6.59,13.19,15.25,12.18,25.72-.77,13.61-8.4,23.33-17.54,33.74A4.62,4.62,0,0,1,672.29,989.83Z"/><path class="cls-4" d="M635.2,1216.28a21.77,21.77,0,0,1-16.52-7.94c-9.07-10.71-12-23.64-13.54-33.72-2.66-17.59,9.9-25.4,21.88-31.33l6.93-3.44q9.56-4.72,19.13-9.45a10.25,10.25,0,0,1,3.21-1,2.11,2.11,0,0,1,1.83,1c2.72,4.63,6.92,8.54,11,12.32,7.23,6.73,14.69,13.69,14,24.81.19,12.88-4,19.78-14.53,23.83-5.54,2.14-9.39,7.12-13.11,11.94-1.6,2.08-3.25,4.22-5,6.16A20.45,20.45,0,0,1,635.2,1216.28Z"/><path class="cls-4" d="M652.05,1057.55a8.72,8.72,0,0,1-3.65-1.06c-5.39-2.52-10.64-5.56-12.49-10.67-1.49-4.13-.7-9.24,2.51-16.07,6.68-14.21,10.94-25.9,13.42-36.78,0-.08,0-.18,0-.3.21-1.48.85-5.81,4.72-5.81a5.86,5.86,0,0,1,2.28.52c6.79,2.94,10.7,7.23,12,13.09a15.65,15.65,0,0,1,.15,3.88c0,.91-.06,2-.06,3.49v.16l0,.21c-.57,2.54-1.09,5-1.64,7.7-2.54,12.34-5.42,26.31-13,38.86C655.13,1056.64,653.76,1057.55,652.05,1057.55Z"/><path class="cls-3" d="M299.4,1541.45c.18-1.79.27-3.66.35-5.48.19-4.16.39-8.46,1.7-12.48l1.83-5.73.12-.37c4.65-14.59,9.45-29.69,17.91-43.19,1.61-2.56,3.14-5.23,4.63-7.81,4.24-7.36,8.62-15,15-21.11,1.53-1.48,2.27-2.77,2.08-3.65s-1.46-1.84-3.47-2.57l-4.49-1.63c-14.36-5.23-29.2-10.64-44.74-10.64a66.14,66.14,0,0,0-6.63.33l-3.62.37,1.63-3.26c16.59-33,45.05-54,70.42-71.19l2.23-1.5c11.53-7.81,23.45-15.89,37.06-20.38a52.53,52.53,0,0,1,16.67-2.49c7.21,0,14.49,1.13,21.53,2.22,2.4.38,4.8.75,7.19,1.08,9.86,1.36,21,2.9,32.2,2.9a105.38,105.38,0,0,0,12.81-.74l2.65-.32a169.71,169.71,0,0,1,20.33-1.64c14.94,0,26.09,4.29,35.07,13.51a24.19,24.19,0,0,0,4.6,3.28c1.13.69,2.38,1.45,3.76,2.38l6,4L547,1355c-3.73-.19-7.32-.42-10.79-.64-7-.45-13.58-.88-20.07-.88h-1.27c-16.78.16-29.56.74-41.43,1.88-6.36.61-12.8,1.89-19,3.12-4.26.84-8.65,1.71-13,2.37-13,2-25.63,6.24-37.86,10.36-4.32,1.45-8.76,3-13.17,4.33a8.09,8.09,0,0,0-4.43,3.18l1.25.07c1.17.07,2.37.14,3.52.14a15,15,0,0,0,4-.45c6.07-1.65,12.18-3.67,18.09-5.62l.12,0c3.5-1.16,7.13-2.36,10.73-3.47a8.46,8.46,0,0,1,2.44-.34,5.11,5.11,0,0,1,3.86,1.35c2.12,2.45.18,4.76-.76,5.86l-.5.61c-10.36,13.33-24.76,20.15-38.62,26l-.68.29c-3.17,1.31-4.23,2.07-4.07,2.92.05.3.1.58,1.42.58a22,22,0,0,0,3.14-.35l.14,0c13.46-2.14,24.5-9.8,35.18-17.21,1.71-1.18,3.41-2.36,5.12-3.52a12.69,12.69,0,0,0,4.58-5.79c5.17-14.91,17.63-16.38,28.63-17.67,2-.24,4.09-.49,6.05-.8,11.35-1.83,24.79-3.73,38.4-3.9l2.75,0c10.16,0,20.25.64,30.94,1.31,5.08.32,10.35.65,15.75.92l7,.35-6.1,3.4c-4.59,2.56-9.06,5.33-13.38,8-15.38,9.54-29.9,18.54-49.06,18.55a61.8,61.8,0,0,1-6.21-.32,51.72,51.72,0,0,0-5.2-.26c-11.75,0-23.81,3.76-35.48,7.4l-.21.06c-2.51.79-5,1.57-7.51,2.31a5.13,5.13,0,0,0-1.75,2.54,8,8,0,0,0,1.79.19c.27,0,.54,0,.81,0a169.17,169.17,0,0,0,18.45-3.1c8.71-1.79,17.71-3.64,27.25-3.64a67.44,67.44,0,0,1,10.64.81l5.55.88-4.85,2.83-10.47,6.11-.37.22c-7.55,4.42-14.68,8.59-22,12.78-3.41,1.95-6.88,3.81-10.24,5.61a204.36,204.36,0,0,0-19.82,11.6c-5.15,3.58-10.58,3.88-15.26,3.88h-2.29l-2.24,0a34.14,34.14,0,0,0-6.61.52c-15.71,3.17-30.13,9.86-44.07,16.32l-.29.14-5.22,2.41a16.27,16.27,0,0,1-1.9.69,6.75,6.75,0,0,0-2,.84,78.56,78.56,0,0,0-7.39,6.71c.05.16.12.32.17.45a2.84,2.84,0,0,0,.72.1,6.8,6.8,0,0,0,3.12-1.31,17.35,17.35,0,0,1,2.53-1.35c19.27-7.94,34.86-14.25,49.07-19.85a7.79,7.79,0,0,1,2.95-.48c.72,0,1.5,0,2.25.1,1,.07,2,.14,3.16.14h7.42l-6.42,3.73c-18,10.43-30.79,24.24-42.4,37.49a4.54,4.54,0,0,0-1.45,2.94,2.21,2.21,0,0,0,1,1.42,2.53,2.53,0,0,0,.54.33,8.88,8.88,0,0,0,.76-1.11,11.52,11.52,0,0,1,1-1.47c17.68-20.26,40.35-33,62.29-45.24,3.28-1.85,6.53-4,9.67-6,6.46-4.17,13.13-8.48,20.88-11.15l4-1.4-1.52,4a116.63,116.63,0,0,1-17.73,31.83c-4.61,5.77-9.08,11.83-13.4,17.7L435,1482a4.32,4.32,0,0,0-.8,2.46h.27a7.54,7.54,0,0,0,4.92-2.07c10.15-12,20.65-24.32,28.07-38.92.72-1.42,1.46-2.83,2.19-4.24,3.18-6.07,6.17-11.81,7.9-18.35.66-2.51,3.47-3.83,6.18-5.1a30.26,30.26,0,0,0,2.86-1.47l8.55-5.32q18-11.23,36.11-22.43a5.55,5.55,0,0,1,2.39-.71,6,6,0,0,0,.63-.09l2.29-.49.12,2.35c0,.19,0,.38.06.57a5.21,5.21,0,0,1-.13,2.69A256.13,256.13,0,0,1,502,1453.41c-.31.4-.65.82-1,1.25-1.08,1.33-2.54,3.13-2.37,4.21.07.51.55,1.05,1.41,1.62a2.58,2.58,0,0,0,1.22.55,6.94,6.94,0,0,0,1.13-2,11.33,11.33,0,0,1,1.82-3.17c10.36-11.23,18.81-24.4,25.83-40.27a148.64,148.64,0,0,0,5.81-16.58,165.85,165.85,0,0,1,5.48-15.89c2.29-5.42,7.31-8,11.74-10.36a33.56,33.56,0,0,0,7.54-4.81,64.28,64.28,0,0,1,10-7.24,68.78,68.78,0,0,0,8.75-6.19c1.81-1.6,3.42-2.38,4.93-2.38a4,4,0,0,1,2.87,1.23,7.19,7.19,0,0,1,1.55,5.07,135.06,135.06,0,0,0,.53,15.14c.79,10.68,1.6,21.73-3,31.83-3.34,7.27-9.29,13.28-15,19.08-2.47,2.5-5,5.08-7.31,7.7-7.16,8.23-12.66,18.31-16.83,30.8a5.7,5.7,0,0,0-.47,2.71h.19c1.41,0,3.87-1.62,4.13-2.36,5.35-15.77,15.58-28.43,25.47-40.67l.2-.25q1.76-2.16,3.5-4.34a8.92,8.92,0,0,1,2.17-1.81c.29-.19.54-.35.78-.53l2.44-1.86.72,3a7,7,0,0,0,.26.82,6,6,0,0,1,.44,3.16q-1,4.92-2,9.84l0,.15c-2.11,10.58-4.3,21.5-6.94,32.14-1.41,5.65-3.31,11.22-5.14,16.61-1.28,3.77-2.61,7.66-3.75,11.54l0,.13c-.18.59-.64,2.15-.36,2.63a.81.81,0,0,0,.47.21,1.48,1.48,0,0,0,.35,0c.24,0,1,0,2.19-2.21,6.77-12.12,10-25.67,13.19-38.78,1.37-5.68,2.79-11.56,4.48-17.29,3.35-11.36,4-22.9,4.7-35.11.43-7.46.87-15.17,2-23l.64-4.62,2.9,3.64c8.28,10.41,13.13,22.24,15.27,37.24,1,7.26,1.38,14.69,1.71,21.88.13,2.73.27,5.8.46,8.81.13,2.22,1,2.28,1.53,2.31h.21c1.94,0,2.16-2.62,2.18-3.42.62-25-1.5-51.12-21-72a24.24,24.24,0,0,1,.6-34c4.53-4.46,11.44-15.27,14-21.83l2.74-7.12,1.11,7.55c2.28,15.56,6.58,25.49,14.38,33.2,7,6.87,14.2,10.2,22.14,10.2a30.29,30.29,0,0,0,4.88-.4,13.19,13.19,0,0,1,2-.17,6.83,6.83,0,0,1,5.3,2.11c1.56,1.69,2.19,4.26,1.89,7.63-3,33.68-13.24,63-31.16,89.49a305.23,305.23,0,0,1-68.49,72.64,45.46,45.46,0,0,0-5.25,5.25c-3.29,3.63-5.87,6.49-8.45,6.49a3.28,3.28,0,0,1-2.4-1c-5.08-5.27-7.69-12.77-10.22-20l0-.12c-.5-1.43-1-2.84-1.5-4.23a50.42,50.42,0,0,1-2.07-8.57,40.08,40.08,0,0,0-2.35-9c-1.21-2.7-2.52-4.06-3.9-4.06-1.75,0-3.94,1.76-5.87,3.31a26.55,26.55,0,0,1-2.88,2.12c-19.06,11.25-39.77,11.54-59.8,11.81-4.76.07-9.67.13-14.46.35-21.22.94-49.17,2.84-77.23,9.18-4.72,1.07-9.47,2-14.06,3-17,3.51-34.65,7.14-50.6,15.25-1.32.68-2.66,1.34-4,2l-5.09,2.53Z"/><path class="cls-4" d="M612.05,1146.94a2.85,2.85,0,0,1-2.43-1.33,4.85,4.85,0,0,1-.24-4.28c6.3-14.31,11.58-26.06,16.59-37,1.71-3.71,3.52-7.43,5.27-11l0-.11c2-4,4-8.14,5.81-12.24a3.12,3.12,0,0,0-.18-2.58,2,2,0,0,0-.67-.78,8,8,0,0,0-3.4,3.27c-2.13,4.09-4.36,8.15-6.52,12.07-6.86,12.5-14,25.43-17.89,39.48-.21,4-2.18,5.41-4,5.41a5,5,0,0,1-2.84-1c-1.54-1.09-6.22-4.4-3.6-10.56,8-18.73,15.88-37.57,23.51-55.79l5.71-13.62c1.52-3.62,3.75-4.38,5.34-4.38,2.37,0,4.39,1.66,5.73,2.76a7.91,7.91,0,0,0,.68.53l.15.11c14.09,9.37,28.65,19.07,26,41-2.68,22.45-12.33,33.95-31.28,37.28l-3.78.66,6.7-14.43q6-13,12.07-26a.91.91,0,0,0,.11-.33,7.23,7.23,0,0,0-1.23-.83l-.22-.13a1.31,1.31,0,0,0-.64-.23c-.54,0-1.13.82-1.38,1.33-1.95,4.08-4.12,8.1-6.22,12-5.1,9.44-10.37,19.2-12.68,30-1.13,5.26-6.2,7.42-10.28,9.16-.92.39-1.86.8-2.72,1.22A3.61,3.61,0,0,1,612.05,1146.94Z"/><path class="cls-4" d="M566.32,1350.83c-7,0-13.55-2.35-17.87-6.46-12.74-12.11-27.71-18.25-44.49-18.25a81.64,81.64,0,0,0-16,1.67,4.59,4.59,0,0,1-.93.09,9.59,9.59,0,0,1-2.65-.5,6.54,6.54,0,0,0-1.58-.35,10.29,10.29,0,0,0-3,.91c-.66.27-1.38.56-2.18.84l-6.08,2.13L482,1316.64c7.59-10.36,15-20.49,22.41-30.64.95-1.29,2-2.64,2.94-3.83,2.55-3.26,5.19-6.62,6.45-9.69,3-7.34,7.19-10.91,12.74-10.91,3.93,0,7.84,1.74,12,3.57l.12.06,1.74.76a11.14,11.14,0,0,0,4.27.66c9.58,0,25.32-6.13,29-11.3a13,13,0,0,1,3.19-2.87c2.34-1.67,3.27-2.45,2.65-5l-.36-1.45,3.86-1,.38,1.44c4.73,18.29,13.61,27.3,28.8,29.23,1.72.22,2.75,1.24,2.41,13.51-.63,23.74-15.74,39.18-30.35,54.11l-1.6,1.63C579.07,1348.64,573,1350.83,566.32,1350.83Z"/><path class="cls-4" d="M559.11,1197.5c8.83-12.73,15.69-26,22.95-40,3.25-6.29,6.62-12.8,10.18-19.26l2.3-4.17,1.37,4.57c3.87,13,.62,31.11-7.91,44.09-4.78,7.29-13.35,16.32-27,17.94l-4.41.53Z"/><path class="cls-4" d="M546.84,1261.22c-4.2,0-7.84-1.51-11.35-3-1.62-.67-3.27-1.36-4.88-1.85-2-.6-3-3.58-3-3.61a2.53,2.53,0,0,1,.28-2.44c8.07-10.11,14.4-21.54,20.52-32.6,2-3.56,4-7.24,6.1-10.85,1.42-2.47,4.84-2.71,8.8-3,3.58-.25,7.63-.52,10.2-2.42a12.92,12.92,0,0,1,3-1.5,9.35,9.35,0,0,0,2.1-1c2.09-1.52,4.13-3.25,6.11-4.92.85-.71,1.69-1.43,2.55-2.13l5.3-4.38-2.13,6.54c-.37,1.15-.71,2.35-1,3.51a42.09,42.09,0,0,1-2.83,8c-2.75,5.3-3.12,11.14-3.51,17.33-.49,7.69-1,15.64-6.23,22.85-6.64,9.11-15.23,13.84-27.88,15.33A17.21,17.21,0,0,1,546.84,1261.22Z"/><path class="cls-3" d="M451.11,295.58c-3.07,0-3.6-2.25-4-3.9l-.1-.42c-1.67-6.76-1.38-11.31.91-14.3,3-4,8.58-4.11,15-4.27,1.47,0,3-.07,4.46-.16,14.76-.84,29.31-1.32,43.24-1.44h1.27A159.49,159.49,0,0,1,579,286.16c.86.4,1.77.75,3.15,1.28l3,1.17,1.09.43-.43,3.28-1.16.14a49.82,49.82,0,0,1-5.74.33c-7.15,0-13.39-1.52-19.43-3-2-.48-4-1-6-1.4a90.67,90.67,0,0,0-18.83-1.89,128.31,128.31,0,0,0-20.62,1.78c-7.35,1.19-14.85,2-22.11,2.71h-.12c-2.89.3-5.77.59-8.66.92s-5.91.64-8.87.94l-.21,0c-7,.73-14.26,1.48-21.3,2.54A11.86,11.86,0,0,1,451.11,295.58Z"/><path class="cls-3" d="M579.62,282.75c-27.31-14.05-54.4-16-79.6-16-5.88,0-11.85.11-17.62.21-4.11.08-8.13.15-12.15.19h-.89l-2.55,0h-.11l-2.58,0a29.7,29.7,0,0,0-10.86,1.57,4.08,4.08,0,0,1-1.47.24,9.62,9.62,0,0,1-2.66-.45c-.82-.25-2.52-.78-2.52-2.45q0-1.38,0-2.73c0-4.61,0-9.35,1-13.91a2.73,2.73,0,0,1,2.65-2.39,5,5,0,0,1,2.81,1.24,7.47,7.47,0,0,0,1,.63l2.11,0c4.61.09,9.38.19,14.07.19,2.61,0,5,0,7.25-.09.81,0,1.63,0,2.44,0,14,0,27.56,3.13,40.7,6.15,7.7,1.77,15.62,3.59,23.48,4.75,12.58,1.86,25.29,8.45,37.78,19.59l1,.88-2.06,3Z"/><path class="cls-3" d="M435.14,226.4c-3.09,0-4.93-2.59-6.27-4.47a12.3,12.3,0,0,0-1.35-1.7l-.9.24-1.56-3,.92-.78c19.64-16.65,40.81-25.09,62.93-25.09,16,0,32.45,4.5,48.79,13.36l3.25,1.76-3.25,1.76c-.43.23-1.24.67-6.15.67-7.62,0-20.4-1-26.09-2.41a79.86,79.86,0,0,0-18.64-2.36,59.83,59.83,0,0,0-34,10.36c-.83.56-1.67,1.11-2.52,1.66a64.48,64.48,0,0,0-9.46,7.09c-2,1.95-3.87,2.9-5.72,2.9Z"/><path class="cls-3" d="M416.75,214.5c-4,0-6.64-3.63-8.79-6.54-.6-.82-1.17-1.59-1.71-2.21a3.77,3.77,0,0,1-1.08-3.51c.5-1.92,2.57-2.66,4.08-3.2a8.15,8.15,0,0,0,1.21-.48l3-1.82c12.8-7.68,26-15.61,39.3-23a42.79,42.79,0,0,1,21.3-5.59,58.8,58.8,0,0,1,21.52,4.49c17.52,6.85,31.07,13.68,43.93,22.14l1,.66-1.19,3.16-1.19-.17c-8.61-1.2-16.46-3.59-24.07-5.91-9.08-2.76-17.65-5.37-26.84-5.82-.77,0-1.55-.06-2.31-.06-13.44,0-24.63,5.65-36.49,11.63l-.89.45c-3.85,1.93-7.67,4.18-11.37,6.35a144.32,144.32,0,0,1-16.75,8.86A6.89,6.89,0,0,1,416.75,214.5Z"/><path class="cls-3" d="M465.65,676.47l-.11-1.28a715.5,715.5,0,0,0-79-270.91l-1.29-2.46,2.74-.44c9.42-1.53,17.6-8.25,24.81-14.18a6,6,0,0,1,3.7-1.71c2,0,3.15,1.67,4,2.89,8.81,12.89,14.5,27.41,20,41.45l.53,1.35c3.18,8.09,6.8,16.18,10.31,24,3.69,8.26,7.49,16.75,10.8,25.29,3.61,9.29,6.5,19,9.3,28.4l0,.15c1.09,3.69,2.23,7.5,3.39,11.23,1.22,3.9,2.4,7.87,3.54,11.71,2.05,6.87,4.17,14,6.55,20.87,3.06,8.84,1.5,17.33,0,25.53a96.87,96.87,0,0,0-1.61,11.24c-.71,11.58-2.64,23.23-4.5,34.49-.66,4-1.33,8-1.93,12-1.64,10.71-4,24.86-7.41,39.4l-.3,1.24Z"/><path class="cls-3" d="M258.79,933.12c-12.8,0-25.73-.76-38.23-1.5-12.17-.71-24.76-1.45-37.11-1.48-5.52,0-11.11-.49-16.52-1s-11-.94-16.47-.94a61.62,61.62,0,0,0-17.59,2.24,3.9,3.9,0,0,1-1.08.17,2.65,2.65,0,0,1-2.39-1.4c-.81-1.56.11-3.61.78-4.58,3.34-4.8,6.5-9.81,9.55-14.66,7.68-12.2,15.62-24.8,26.94-35l.76-.66c3.95-3.48,7.34-6.93,5.5-11-.88-1.93-2.56-2.64-6.2-2.64-.78,0-1.57,0-2.35.06s-1.62.06-2.37.06h-.11c-9.48,0-17.53-4.06-25.33-8-1.9-1-3.87-1.95-5.79-2.85-21.33-9.9-42.31-23.19-68-43.09l-.78-.6v-34l1.42-.43c11.36-3.46,22.52-8.32,32.08-12.61,7.65-3.44,15.28-7.11,22.67-10.66,20.41-9.82,41.52-20,64.17-25.87,5.61-1.47,11-1.51,16.16-1.54h1.41c2.43,0,3.36-.52,3.52-.81,0-.08.4-.86-1.21-3.6-1.35-2.31-2.68-4.63-4-6.94-8.27-14.37-16.81-29.19-28.88-41.14-.72-.72-2.92-2.9-2.2-5.27s3.5-2.89,5.35-3.25c.31-.06.83-.16,1-.21,24.92-12.83,53.75-19.36,85.62-19.36l3.45,0c26.16.38,48.87,4.14,69.4,11.5C353.59,660,373,670.33,390.7,680.37c16.63,9.43,30.87,20.17,42.32,31.94,1.76,1.8,3.7,3.57,5.75,5.45,8.52,7.81,18.15,16.62,16.86,30.09-1,10.91-3.91,21.75-6.69,32.23-1.29,4.86-2.62,9.87-3.75,14.82-.69,3.05-1.23,6.24-1.75,9.31-.26,1.56-.52,3.11-.8,4.67l-.48,2.62-2.38-1.19c-6.76-3.36-14.23-3.93-21.45-4.49-2.4-.18-4.78-.36-7.11-.63-8.38-1-14.36-3.42-16.28-12.22a4.86,4.86,0,0,0-1.55-2.48c-11.35-8.83-13.77-21.2-16.12-33.16-1.38-7-2.8-14.31-6.1-20.53q-2.21-4.18-4.37-8.41c-7.9-15.37-16.07-31.27-30-42.66-2-1.62-3-2-3.51-2-.17,0-.45,0-.83.61a.48.48,0,0,0-.1.21c0,.35,1.22,1.33,1.72,1.75a17.21,17.21,0,0,1,1.78,1.64c10,11.19,18.35,24.57,27,43.38.72,1.58,1.46,3.15,2.19,4.72l.13.28c3.82,8.14,7.76,16.57,10.11,25.89l1.55,6.13L372,764.27c-3.74-3.22-7.44-6.48-11-9.63l-.16-.14c-8.4-7.4-16.35-14.39-24.82-21a196.82,196.82,0,0,0-42.61-25.17C285.87,705,278.5,701,271.37,697.1c-5.73-3.12-11.65-6.35-17.61-9.17-.58-.28-1.2-.63-1.85-1-1.44-.82-3.4-1.93-4.69-1.93-.49,0-.9.15-1.31.9-.55,1-.75,1.76-.55,2.18.51,1.09,3.49,1.65,5.09,1.95l.84.16c6.42,1.3,11.27,4.94,16,8.47,3.46,2.6,7,5.29,11.12,6.85,16.41,6.27,31.1,16.31,45.31,26,2.75,1.87,5.42,3.69,8.11,5.5l1,.7-1.41,3.2-1.22-.3a186.24,186.24,0,0,0-21.39-3.42c-9.51-1.14-19.33-2.32-28.83-5.47-2.94-1-6-1.77-9-2.54-5.52-1.43-11.21-2.89-16.56-5.56a5,5,0,0,0-1,.8,3.08,3.08,0,0,0,.58,1.32c7,5.81,15.87,8,24.45,10.2l4,1c12.28,3.21,25.07,5.19,37.43,7.11,7.46,1.15,15.17,2.35,22.73,3.81,11.81,2.28,20.35,13.51,27.88,23.42l1.53,2c4.37,5.7,8.89,11.6,14.83,15.67,2.82,1.93,3.51,4.67,4.06,6.87a9.51,9.51,0,0,0,1.28,3.34l2.59,3.48-8.06-.52c-2.22-.14-4.44-.28-6.66-.44-3.88-.3-7.82-.74-11.63-1.17a176.3,176.3,0,0,0-19.68-1.5c-1.89,0-3.71.07-5.42.2-1.29.09-2.57.13-3.81.13-17.72,0-30.47-9-44-18.58l-2.25-1.6c-15.95-11.23-34.53-17.48-50.6-22.12-2.84-.82-5.67-1.73-8.41-2.61-8.74-2.81-17.76-5.72-27.13-5.72h-.91c-2.28,0-4,.49-4.55,1.13a21.77,21.77,0,0,0,3.32,1c.56.14,1,.25,1.45.37l2.55.7c12.29,3.38,25,6.88,37.15,11.38,18.59,6.89,38.16,15,55.3,27.14,1.17.84,2.29,1.72,3.46,2.66l1.61,1.28,4.58,3.57h-5.81c-4.74,0-9.57.06-13.83.11-4.43.05-9,.1-13.37.1-6.53,0-11.91-.11-16.93-.36-2.33-.12-4.79-.18-7.53-.18-4.2,0-8.47.14-12.59.27s-8.5.27-12.76.27a124.92,124.92,0,0,1-15.86-.87,136.72,136.72,0,0,0-16.93-.9c-4.18,0-8.46.12-12.59.23s-8.51.22-12.75.22c-2.31,0-4.43,0-6.47-.1-4.06-.14-8.31-.19-12-.23-13.22-.17-26.87-.33-40.19-3.62h-.17a4.06,4.06,0,0,0-1,.19,5.38,5.38,0,0,0,1.64,1.81c9.92,4.38,21.08,5.33,30.77,5.88,25.83,1.46,52.12,2.15,77.55,2.82l8.15.21c.57,0,1.14,0,1.71,0,3.74,0,7.54-.3,12.36-.68,2.72-.21,6.06-.48,9.76-.71l1.24-.07.84,3.37-1.13.52c-6.27,2.85-12.29,5.76-18.1,8.58-18,8.72-34.95,16.94-53.72,20.2l-.28,0a10.81,10.81,0,0,0-3.81,1.07l0,0c.33.77,1.1,1.66,4.16,1.66a26.48,26.48,0,0,0,3.06-.21c14.81-1.85,28.39-7.84,41.53-13.63,3.68-1.62,7.49-3.3,11.29-4.88,1-.4,2-.78,3-1.16,3.21-1.19,6.52-2.42,8.41-4.5,9-9.9,19.54-11.17,27.68-11.17,3.81,0,7.68.31,11.43.61s7.42.6,11,.6c1.55,0,3-.05,4.34-.16,5-.42,10.11-.62,15.64-.62,13.76,0,27.68,1.29,41.14,2.54,8.69.8,17.64,1.63,26.45,2.1l4.41.24-3.09,3.16c-22,22.53-48.74,37.24-78.84,52.8a9.4,9.4,0,0,1-4.39,1.1c-2.74,0-5.16-1.23-7.3-2.32a18.62,18.62,0,0,0-4-1.7,110.21,110.21,0,0,0-25.58-2.78c-12.06,0-24,1.52-35.18,3.08a88.31,88.31,0,0,0-14.29,3.7l-1.48.48a4.44,4.44,0,0,0-.66.89,4.9,4.9,0,0,0,1.69.87c8.35-.33,16.8-1.47,25-2.58,5.9-.8,12-1.61,18-2.14,1.29-.11,2.63-.17,4-.17,6.05,0,11.84,1.13,17.44,2.23a105.33,105.33,0,0,0,13.74,2.08l1.23.08.45,3.41-1.16.4c-3.82,1.31-7.71,2.55-11.48,3.76-8.33,2.66-16.93,5.42-25,8.9-12.35,5.32-25.39,8.43-38,11.43-3.44.81-7,1.66-10.51,2.55-4.86,1.21-9.59,2.46-14.08,3.72a11.78,11.78,0,0,0,2,1.63l8.63-1.69.12,0c18.1-3.51,36.82-7.13,54.64-14.08,6.45-2.51,13.07-4.82,19.48-7.05,10.67-3.71,21.69-7.54,32-12.37,7.43-3.47,14.45-7.65,21.87-12.06,3.33-2,6.76-4,10.26-6l4.17-2.37-1.25,4.63c-4.42,16.45-15.47,27.29-25.21,36.86-7.47,7.34-14.61,12.06-22.45,14.86l-.31.11a6,6,0,0,0-2,1,2.28,2.28,0,0,0,.14.39,1.94,1.94,0,0,0,1.95,1.35,5.33,5.33,0,0,0,1.46-.24c17-4.72,28.15-17,39-30.29,7.42-9,11.59-19.74,14.7-29,1.85-5.52,7.08-9.23,12.61-13.15,4.05-2.87,8.23-5.84,10.69-9.45,8.4-12.35,18.77-13.93,26.87-13.93a113,113,0,0,1,12.07.88c3.52.39,7.17.79,10.65.85,6.21.12,9.84,1.43,11.43,4.14,2.06,3.53-.26,7.84-2.31,11.65a17.48,17.48,0,0,0-2.08,4.73,186.3,186.3,0,0,1-8.9,39.21c-4.38,13.22-14.86,22.12-25.55,29.78-17.44,12.49-37.36,18.6-57.94,24.24-25.86,7.08-52.44,7.49-78.15,7.88l-2.31,0C262,933.1,260.37,933.12,258.79,933.12Z"/><path class="cls-3" d="M446.22,611.72l-.27-.52a17,17,0,0,1-.78-1.61,176.24,176.24,0,0,0-20.12-37.2c-11.12-15.59-27-25.59-49.91-31.47-17.18-4.42-35.74-8.5-55.13-8.5h-1a41.72,41.72,0,0,0-4.62.39,48.68,48.68,0,0,1-5.74.45,14.52,14.52,0,0,1-10-3.37l-2.33-2,2.76-1.32c16.76-8.06,35.12-11.81,57.78-11.81,4.84,0,9.83.17,15.28.51,18,1.14,32.95,9.71,47,27,4.82,5.93,9.06,12.29,13.15,18.45,3.17,4.76,6.42,9.64,9.87,14.22,6,8,7.16,18.32,8.28,28.32v.13c.23,2,.46,4.06.72,6A2.82,2.82,0,0,1,449.7,612a3.66,3.66,0,0,0-.29.23l-2,1.91Z"/><path class="cls-4" d="M409.27,325.9a5,5,0,0,1-3.24-1.25,8.36,8.36,0,0,1-2.86-4.44c-2.78-15.48-11.82-28.52-28.45-41a77.67,77.67,0,0,1-21.85-25,67.29,67.29,0,0,0-6.63-9.17c-5.39-6.66-11-13.54-10.71-24.08.2-7.92,12.08-25.72,20.15-28,1.9-.55,3.81-1.28,5.65-2,4.11-1.57,8.34-3.19,13.28-3.19a23.25,23.25,0,0,1,3.22.23c7.37,1.07,11.79,3.7,14.31,8.51,5.91,11.32,15.88,18.83,25.52,26.1,4.57,3.45,9.3,7,13.59,11,7,6.44,10,14,9.71,24.58v.25l-.09.33c-2.29,6-1.57,13-.8,20.49a119.55,119.55,0,0,1,.83,12.21c0,12.16-8.56,18.8-16.83,25.21l-2.28,1.78c-1.69,1.33-3.46,2.53-5.18,3.69-.93.63-1.85,1.26-2.76,1.9A8.12,8.12,0,0,1,409.27,325.9Z"/><path class="cls-3" d="M434.84,558.47c-17.25-33.92-42.07-49.72-78.13-49.72-11.8,0-25.25,1.69-41.13,5.15l-1.36.3-1.09-3.6,1.29-.51A211.1,211.1,0,0,0,334,500.76c13.7-7.12,27.85-14.47,43.23-14.47,9.09,0,17.75,2.51,26.47,7.68,20,11.87,30.81,31.4,35,63.33l.17,1.25-3.36,1Z"/><path class="cls-3" d="M415.33,355.76a27.71,27.71,0,0,1-7.8-1.4c-6.68-2-5.88-8.27-5.18-13.76l.17-1.3c1.11-9.08,7.42-10.53,12.49-11.7,4.7-1.08,7.63-2,8.65-6.11l1.44-5.87,2.34,5.58c4.05,9.65,2,16.95-.07,24l-.22.76C425.31,352.47,421.33,355.76,415.33,355.76Z"/><path class="cls-3" d="M376.26,397.18a50.11,50.11,0,0,1-6.17-.39c-13.29-1.63-28.18-5.32-37.72-20.25l-1.87-2.93,3.46-.15c2.8-.12,5.66-.18,8.43-.25,16.77-.38,34.08-.77,46.55-13.76,2.76-2.89,5.43-4.29,8.16-4.29s5,1.46,7,2.75a19.28,19.28,0,0,0,3,1.68c3.08,1.25,6.1,1.33,9.29,1.42l1.12,0h.68c.92,0,1.88-.05,2.82-.11l1.71-.09,3.09-.12-1.16,2.87c-.23.57-.43,1.21-.63,1.83a13.54,13.54,0,0,1-2.16,4.63C402.28,394,387.82,397.18,376.26,397.18Z"/><path class="cls-4" d="M336.12,368a213.92,213.92,0,0,1-25.6-1.65c-19.77-2.35-33.62-8.17-43.59-18.3-7.93-8.07-7.81-18.53.36-29.45,9.63-12.87,20.08-28.25,22.1-47.85,1.81-17.55,13.21-35.71,29.16-35.71l.87,0c11.48.48,20.57,6.78,27,18.72A98.75,98.75,0,0,0,376.71,288c12.14,8.65,19.73,22.13,21.86,31.65l0,.13v.13c.58,12.05-2.64,22.78-9.32,31a41.27,41.27,0,0,1-24.06,14.38A147.16,147.16,0,0,1,336.12,368Z"/><path class="cls-4" d="M252.58,332.64c-1.62-.88-3.39-1.64-5.1-2.38-4.29-1.84-8.72-3.75-12.14-7.86-13.17-15.86-13.33-30.93-.52-47.43,5.2-6.69,3.32-15.3,1.51-23.62-.59-2.72-1.21-5.54-1.56-8.25-2.44-18.74,9.3-27,20.65-35,1.25-.88,2.49-1.75,3.72-2.65a47.56,47.56,0,0,0,7.57-7.51c4.05-4.66,8.22-9.47,15.07-11.69a15.18,15.18,0,0,1,4.78-.68c.59,0,1.16,0,1.7,0s.94,0,1.36,0a4.82,4.82,0,0,0,1.8-.24l.2-.09.28-.05a27.11,27.11,0,0,1,3.54-.24c21.6,0,34.61,26.56,35.53,40.79a5,5,0,0,1-1.12,3.93,4.59,4.59,0,0,1-3.43,1.27,11.78,11.78,0,0,1-1.36-.08,45.75,45.75,0,0,0-5.14-.3c-15.48,0-26.08,8.75-29.85,24.63-6.33,26.68-16.69,49.8-31.68,70.7a25.07,25.07,0,0,0-2.08,3.8c-.33.7-.66,1.39-1,2.06l-.94,1.8Z"/><path class="cls-3" d="M175.15,429.42c2.82-4.4,5.67-8.79,8.51-13.18l.1-.15c5.68-8.77,11.54-17.83,17.16-26.82,15.92-25.47,42.06-27.59,67.33-29.65h.24c.44,0,.88-.06,1.33-.06,5.43,0,10.88,2.6,16.16,5.11,2.31,1.1,4.69,2.22,6.95,3.08a3.91,3.91,0,0,1,2.11,2.78,6.06,6.06,0,0,0,.27.7l1.06,2.18L294,374l-3.52,1c-2.34.66-4.69,1.31-7.05,1.87-4.47,1.05-9.13,2.06-13.24,2.95-18.21,3.95-37,8-53.24,17.8-13.82,8.34-25.14,20.77-36.08,32.79l-.24.27a6,6,0,0,1-2.48,1.44c-.19.07-.39.14-.57.22l-6,2.55Z"/><path class="cls-3" d="M164.69,428.84l.39-1.2c.6-1.85,1.17-3.72,1.74-5.58,2.29-7.48,4.66-15.21,8.9-22.33a145.63,145.63,0,0,0,6.58-13c3.37-7.25,6.84-14.74,12.2-21.17,9.36-11.23,22.21-15.19,34.64-19,3.61-1.11,7.35-2.26,10.93-3.58a25.21,25.21,0,0,1,8.68-1.75c6.71,0,11.71,3.88,15.29,11.87l1.29,2.88-3.15-.06h-.91c-9.52,0-19.09,2.78-28.35,5.47l-3.61,1C206,369,195,388.55,184.33,407.45q-1.23,2.19-2.47,4.38a91.3,91.3,0,0,1-9.21,12.58c-1.37,1.67-2.77,3.37-4.09,5.07l-.77,1Z"/><path class="cls-3" d="M121.31,242.12l1.19-.68c4.67-2.69,9.26-5.63,13.71-8.46,13.46-8.59,27.37-17.47,44.57-20.51a51.79,51.79,0,0,1,9-.8c13.65,0,24.69,5.39,36.39,11.1l2.42,1.17c2.44,1.2,1.86,4.91.9,11.07-.29,1.9-.6,3.84-.72,5.34l-.22,2.75L226,242l-1.71-.7c-1.3-.52-2.65-1.07-4-1.7-2.44-1.15-4.88-2.46-7.24-3.73-7.07-3.8-14.35-7.72-22.11-7.72-.45,0-.9,0-1.36,0a156.81,156.81,0,0,0-45.06,9.57c-4.93,1.8-9.93,3.57-14.76,5.27l-6.92,2.45Z"/><path class="cls-3" d="M223.17,279.81a2.25,2.25,0,0,1-1.43-.49l-4.68-3.65c-5.26-4.09-10.7-8.32-15.73-12.89-6.45-5.84-26.52-9.91-40.51-9.91a41.29,41.29,0,0,0-10.59,1.1c-7.45,2.09-15.37,2.48-23,2.86-3.33.17-6.77.34-10.09.65l-1.73.16-1.15-5,1.69-.6q6.21-2.19,12.41-4.45l.14-.05c9.72-3.53,19.77-7.17,29.85-10.24l2.33-.72c7.9-2.44,16.07-5,24.13-5,.88,0,1.75,0,2.59.1,10.95.79,21,5.54,32.77,12.42,18.1,10.59,10.63,25.54,6.62,33.56A4.55,4.55,0,0,1,223.17,279.81Z"/><polygon class="cls-2" points="6 8.83 58 60.83 58 1619.17 6 1671.17 6 8.83"/><path d="M1024,8V1672a8,8,0,0,1-8,8H8a8,8,0,0,1-8-8V8A8,8,0,0,1,8,0H1016A8,8,0,0,1,1024,8Zm-8,1658.34V13.66l-48,48V1618.34ZM962.34,56l48-48H13.66l48,48H962.34ZM13.66,1672h996.68l-48-48H61.66ZM960,1616V1423.62q-2.41,16.85-5.09,33.64c-1.92,12-6.33,23.77-7.4,35.83-1,11.29.52,22.89,1.67,34.27,1.06,10.43-2.73,13.44-12.28,9.62-15.52-6.21-30.27,1.21-45.18,3.1a173,173,0,0,1-41.85.42c-9.23-1.08-18.39-5-27-9-14.52-6.76-22.56-20.11-32-32.36-4.71-6.13-10.37,3.42-15.91,5-14.88,4.33-30.35,13.2-45,6.15-12.58-6-16.26-21.67-20.92-34.65-8.58-23.92-9.14-48.93-7.86-73.84.8-15.61,2.55-31.18,9.08-46.12,2.17-5-6-1.24-8.31-1.35-8.32-.39-16.75,1.57-25.12,2.8a2.82,2.82,0,0,0-1.71,2.16,122.11,122.11,0,0,1-8.59,61.77c-5.15,12.33-10.95,24.74-18.41,36.35a305.09,305.09,0,0,1-31,40.62c-12.18,13.4-24.78,26.21-39.83,36.51A53.89,53.89,0,0,0,564.82,1547c-8.66,11.69-14.9,6.67-19.57-2.88-5.83-11.93-12.85-23.51-14.33-37.16-.37-3.43-1.63-1-2.77-.48-9.14,4.24-17.94,10.25-27.56,12.14-12.73,2.52-26.11,1.73-39.21,2.49-28.69,1.65-57.22,4-85.56,9.6-22,4.31-43.85,8.66-64.88,16.5a30.57,30.57,0,0,0-7.73,4.8c-2.86,2.21-6.9,5-9.17,2.49-2.82-3.11-3.23-8-3-12.92.64-15.5,5.51-30.11,10.37-44.35,4.39-12.84,12.4-24.48,19.18-36.44,3-5.29,9.09-9.77,9.79-15.14.66-5.08-7.31-5.39-11.54-6.3-12.67-2.71-25.73-3.59-38.32-6.56-7.81-1.83-7.21-9.57-4.53-14.75,13.64-26.45,33.68-47.15,58.83-63,12.82-8.1,25.4-16.58,38.17-24.76,1.65-1.06,3.77-1.39,5.93-2.14-13.89-5.15-28.36-2.4-42.34-4.75-21.22-3.56-42.7-7.22-64.09-7.34-12.13-.07-23.92-1.77-35.62-3.16-20.07-2.38-22.37-9.52-11.48-27.29q18.22-29.74,36.33-59.59c11.91-19.59,24.24-38.94,35.57-58.86,11.54-20.32,22.22-41.13,33-61.86,12.1-23.2,24.91-46.11,35.55-70,12-27,24.7-53.76,33.38-82.16,4.55-14.87,10.19-29.4,15.27-44.1a12.47,12.47,0,0,0,.19-3.37,11.11,11.11,0,0,0-2.87.85c-16.29,10.18-33.52,18.84-51.9,23.94-12.09,3.36-25,5-37.33,7.55-22,4.63-44.13,2.66-66.07,4.33-24.86,1.89-50.1-1.6-75.18-2.29-17.92-.49-35.9-3.51-53.81.84-3.18.78-8.32,1-9.92-.79-2.92-3.32.31-7.87,2-11.21,10.48-20.51,22.31-40.15,39.06-56.33,2.18-2.11,3.28-4.47-.44-5.16-33.22-6.13-59.85-25.23-87-43.48-2.46-1.66-4.86-3.36-7.23-5.1v263.11a5,5,0,0,1,4.3-1.16c8.38,1.15,19,3.65,18.35,15.34-.41,7.87-7.37,11.64-15,10.82a11.87,11.87,0,0,1-7.64-3.37v58.92c.52,0,1,0,1.59,0,6.46,0,8.2,5.22,8.2,9.5,0,7.9-2,15.35-9.79,17v340.18a10,10,0,0,1,7.07-2.68c9.1-.15,11.54,8.44,11.6,15.43,0,6-3.75,11.53-11.49,11.38a14.27,14.27,0,0,1-7.18-1.73V1616h1.43c-.17-1.79-.23-3.66-.34-5.43-.44-6.67,2-11.31,10.2-11.8,13-.77,17.18,5.36,15.81,17.23H759.56c-1.87-2.38-2.83-5.71-3-9.6-.31-8.66,5.21-11.19,11.83-11.2,4.67,0,10.21,1.34,10.91,8.37-1.36,3.85-1.31,9-3.29,12.43Zm0-265.06v-32.3q-4.26,3.94-8.63,7.75c-2.91,2.53-3.08,4-1.25,6.63A92.56,92.56,0,0,1,960,1350.94Zm0-46.06v-27.6c-9.75-9.76-20.12-18.73-31.7-25.73-15-9.06-31.49-16.32-49-19.19-6-1-14.78-13.13-19.86,3.78-7.45,24.77-34.28,24.51-54.3,14.12a24.11,24.11,0,0,0-2.81-1c.44.94.84,1.91,1.33,2.82,3.13,5.79,6.25,11.59,9.43,17.35,2.5,4.53,6.53,13.17,7.4,12.86,7.57-2.63,16.92,1.45,23.07-4.94,16.16-16.8,35.34-24.94,58.79-22.49,3.35.35,8.24.05,8,3.59-.22,4-5.33,2.68-8.35,2.56-18.39-.75-33.42,7.32-50.7,17.93,29.53-.91,55.7,1.37,81.35,8.15,3.43.91,8.3,1.38,8.17,6.77,0,1.07-2.74,3.13-2.92,3-5.21-3.88-11.48-3.91-17.39-4.51-13.71-1.39-27.27-6-41.45-2.52,10.92,7,22,13,34.76,15.69,2.88.61,6,.62,8.76,1.64,3.21,1.19-.81,5.85-5.67,5.88-14.34.06-25.82-7.58-37.74-14.17-6.66-3.69-10.14-12.69-19.82-11.39-6.77.91-14.28-.42-20.26,2.09-5,2.08-23-4.87-12.07,12.94,5.15,8.42,2.15,21.57,14.64,25.69,4.54,1.49,9.76,1.33,14,3.38,19.48,9.55,38.23,20.48,53.75,35.82,3.59,3.56,11.66,8,8.49,13.06s-7.54-2.09-10.34-4.58c-18.66-16.59-38.93-30.28-63.12-37.49-1.72-.51-3.42-1.1-5.14-1.65a11.8,11.8,0,0,0,1.3,7.53c4.48,8.94,10.18,17.82,12,27.38,3.69,19,14.42,31.24,30,41.67C898.76,1424,915.3,1435,924,1453.64c1,2.1.62,3-.85,4.49-2.39,2.34-2.26-.64-2.92-1.35-4.89-5.24-9.11-11.25-14.58-15.75-11.74-9.65-24.1-18.53-37.87-29,3.13,8.25,5.05,15.08,8.2,21.28a297.46,297.46,0,0,0,35.82,54.1c1.06,1.28,3.73,2.87,1.34,5-2.14,1.89-4-.47-5.14-1.59-12.67-12.06-25-24.34-33.17-40.21a459.48,459.48,0,0,1-26.1-60.81c-1.76,15.81-2.27,27.89-.1,40.75a304.43,304.43,0,0,0,16,59.65c1.06,2.75,2.54,6.67-.9,8.46s-3.29-2.8-4.64-4.4c-1.52-1.8-1.62-4.72-2.69-7-10.91-23-15-47.47-17.81-72.54-1.94-17.47,9.79-34.45.43-52-5-9.46-8.52-19.76-12.6-29.43-8.37,14.16-10.86,29.94-13,45.35-2.71,19-2.22,38.42.37,57.64.37,2.73.86,7.43-2.62,8.43-2.63.76-3.41-2.75-4.48-5.53-6.45-16.84-4-34.34-3.35-51.41.5-12.75,5-25.31,7.47-38,2.73-14,17.54-25.57,8.13-41.9-1.13-1.95-1.93-4.09-2.88-6.14-1,.79-2.37,1.37-2.89,2.39-8.51,16.57-17,33.15-25.29,49.83-4.46,9-10.23,17.77-12.38,27.32-2.37,10.54,7.86,18.91,8.51,30,.85,14.4,3.88,28.67-1.23,42.75-.61,1.67-2,4.81-5.31,4-3.61-.92-.65-3-.5-4.26,2.27-19.43.92-38.37-7.13-57.37-6.15,17.93-10.78,35.26-10.74,53.52,0,2.73-.52,6-2.84,6.08-2.85,0-5-3-5.28-6.11-1.31-13.25,1-26.35,4.52-38.83,5.65-19.92,12.88-39.4,22.91-57.59-25.1,10.37-32,34.16-41.45,56a6.39,6.39,0,0,1-3.08,3.37c-2.33.8-1.73-1.66-2.29-2.83-2.85-6,1.8-10.46,3.59-15.12,6.36-16.47,13.06-32.58,29.36-42.89,6.88-4.35,16.17-5.52,20.57-13.6,8.21-15.06,15.35-30.77,27.11-43.63a3.14,3.14,0,0,0,.57-2.69c-3.38-8.48-6.9-16.91-10.76-26.27-4.11,11.26-6.82,21.83-17.72,27.52-6.87,3.6-11.49,10-15.21,16.62-7.61,13.66-15.17,27.45-28.64,36.25-6.22,4-16.64,4.7-19.66,10-7.91,13.93-9,30.43-9.33,46.33-.27,13-.4,25.94,1,39.09a150.66,150.66,0,0,0,15.76,52.95c1.93,3.81,5.86,9.83,8.37,9.59a114.2,114.2,0,0,0,46.92-14.58c5.06-2.93,10-3.27,13.94,2.8,9.68,14.75,20.62,28,38.51,33.81,18.48,6,36.82,5.39,55.87,3.38,12.26-1.29,24.24-7.91,37.39-3.3,1.43.5,11.54,8,10.57-2.68-.45-5-1.75-11-2.12-15.83-1-12.8,2.58-25.61,4.93-38.39,4.92-26.78,9-53.76,12-80.81,2-17.79-.1-35.37-11.38-50.72-3.9-5.31-9.89-11.42-.41-17.78,4.87-3.26,10.3-6.7,13.32-11.43A15.53,15.53,0,0,1,960,1304.88Zm0-39.73V1041.68c-7.37-.77-11.36-6.5-10.9-14.17.43-7.21,3-14.75,10.9-15.24V829.78a7.76,7.76,0,0,1-4.68,1c-9.83-.56-17.25-5.2-16.51-17.55C937.5,804.92,945,801,950.4,801.57a22.52,22.52,0,0,1,9.6,3V617.07h0c-7.79,0-12.86-4.24-12.73-11.64.13-7.79,5.64-11.47,12.76-12.29V364.91c-9.09-1-11.57-7.26-10.91-15.22.56-6.75,3.46-14.41,10.9-14.25h0V276.76c-13.68,1.17-12.81-11.74-14.45-19.65-1.17-5.64.05-15.59,10.72-12a24.86,24.86,0,0,1,3.73-.2V64H886.59a16.78,16.78,0,0,1,.25,1.71c.74,8.29-4,12.71-13.3,12.73-11.39,4.4-11.58-5.53-12.33-12.22a15.56,15.56,0,0,1-.1-2.22H786.32c3.49,1.7,4.15,7.35,4.32,11.52.35,8.66-7.53,11.8-14.11,11-7.06-.89-11.28-8.63-11.07-14.87s5.3-7.16,11.66-7.61H579.78c-1.37,5.26-3.42,10.13-10.06,10.37-6.32.24-11.34-3.55-12.56-10.37H438.51a7.18,7.18,0,0,1,.21,3.92c-1.66,7.28-.27,17.78-13.47,17.36-8.56-.28-8.34-5.3-8.31-11.81-.51-3.94.28-7.1,2.05-9.47H240c.36,2.72.4,5.61,1.59,7.19,1.06,11.57-7.54,10.37-13,10.44-6.07.07-13.63-.79-13.62-10.27a12.59,12.59,0,0,1,2-7.36H90.83c2.34,1.74,3.56,4.84,4.07,8.27,1.42,9.58-5.83,12.12-13.09,12.52-5.7.32-9.22-3.6-9.21-9.73,0-4.78.65-9.07,3.94-11.06H64V359.7a12,12,0,0,1,.29,2.5,19.49,19.49,0,0,1-.29,3.43V624.26h.06c10.4.4,15.19,7.34,15,14.73.18,13-7.68,13.9-14.31,13.81q-.37,0-.72,0V762.83c5.6-2,11.11-4.3,16.6-6.62,30.16-12.75,58.72-29.21,90.21-38.86a42.4,42.4,0,0,1,7.95-2c4.13-.42,9.91,1.34,12.07-.78,3.1-3.06-2.88-5.87-4.11-9.29-1.31-3.64-4.07-6.79-6.36-10-5.77-8.15-11.72-16.17-17.41-24.38-2.8-4-12.73-7.09-3-13.49,5.17-3.4,11-6,16.55-8.8,13-6.47,27-9.63,40.74-12.85,11.57-2.71,23.82-3.46,35.77-3.47,25.18,0,50.39,1,74.72,8.74,34.17,10.92,64.72,28.56,93.57,49.67,13,9.52,22.35,22.36,33.65,33.39a23.85,23.85,0,0,0,2.46,1.88,17,17,0,0,0,1.45-2.49c7.22-19.27.78-38.08-1.42-57.18-3.22-27.82-16.76-51.51-28.85-75.59-10.93-21.78-28.88-36.09-53.55-41.82-15.5-3.61-31.05-6.73-46.8-8.28-10.79-1.07-21.86.84-32.74.25-8.26-.45-17.17-1.21-24.39-4.72-5.14-2.5.49-8.74,3.05-10.77a213.74,213.74,0,0,1,61.89-34.49c8.21-2.92,15.86-7.81,24.24-9.82,17.28-4.12,34.16-3.28,48.66,9,2.45,2.08,5.16,3.85,7.75,5.76-.81-3.55-1.16-7.29-2.48-10.64-6.28-16-12.52-32-19.38-47.68-4.82-11-9.71-22.27-16.54-32-2.15-3.07-10.71-1.68-16.34-2.29-17.41-1.89-28.75-13-39.41-25.46-5.08-6-11.76-1.93-17.33-.5q-32.84,8.44-65.4,17.94c-26.84,7.84-44.33,27.8-61.4,48.28-5.47,6.56-11.64,12.54-17.61,18.68-3.43,3.52-7.73,1.33-11.24.55-3.24-.73-1.24-4.1-.69-6.39,5.23-21.73,13.21-42.31,22.8-62.59,7-14.72,13-29.34,25.79-40.14,9.84-8.29,21.94-10.94,33.7-14.54,3.48-1.06,7-1.88,10.55-2.81-2.36-2.24-4.7-4.51-7.09-6.72-11.27-10.44-19.82-21.42-16-38.74,2.42-11.11-10.56-11.51-16.15-17-19.23-18.78-43-10.72-65.52-9.1q-15.4,1.11-30.81,2.46c-6,.53-12.14-1.29-18.11,1.71-1.82.91-7.41,1.95-5.7-3.68a17.49,17.49,0,0,1,6.12-8.21c13.52-10.15,27-20.47,41.12-29.68,10.14-6.59,20.84-13.05,32.2-16.88,17-5.73,34.63-9.27,52.39-.29,4.56,2.3,9.37,4.4,14,6.74,2.33,1.17,4,.28,6.67-1.57,17-11.93,28.86-30.59,49.24-38.14,12.18-4.51,37.33,6.5,43.38,18.11,1,2,2.67,14.11,11,2.23,9.44-13.51,39.3-26.22,52.31-11.72,17.07,19,25.13.58,35.58-3.88,17-7.26,30.75-22.4,51.47-20.9,20.88,1.5,38.45,11.73,56.12,21.43,11.7,6.43,23,13.66,34.16,21,3.34,2.18,8.05,4.88,6.78,9.8-1.23,4.77-6.52,3.62-10,3.81-21.36,1.17-42.3-2-63.33-5.55-18.91-3.19-36.85.73-51.88,13.69-2.78,2.4-9.21,2.34-8,7.2,1.72,7,5.86,11.57,14.95,10.73,24.05-2.2,47.56,1.77,71,7.43,14.48,3.49,29.26,5.31,42.75,12.41a274.3,274.3,0,0,1,45.4,29.86c2.66,2.17,4.74,4.74,3,7.89s-5.61,3.47-9.19,3.32c-30.14-1.25-58.89-14.14-89.58-10.75-23.79,2.63-47.81,4.19-71.19,8.9-4.59.92-14.59,9-12.84,20,2,12.83,3.58,25.88-1.47,38.48A51,51,0,0,1,429,370c-11.33,16.72,6.73,24.88,11,36.91,9.29,26.19,23.9,50.25,31.17,77.35,3.57,13.31,8.64,26.22,12.84,39.37.92,2.88,1.06,6,1.61,9.39,4.86-6,2.52-12.94,2.88-19.12,1.08-18.28,2.94-36.49,2.79-54.91-.12-15.31,3.74-30.6,4.76-46,.78-11.84-.2-23.79-.21-35.68,0-5.1-.25-10.42,1.19-15.16.4-1.3,6.47-1.25,9.93-1.2,29.27.38,58.41-1.59,87.59-3.84,21.92-1.69,44-1.08,66-2.36,24.69-1.44,49.31-4,74-5.77,7.35-.53,14.76,0,22.14-.12,4.14-.06,4.47,2.47,4.37,5.61-.76,23.79-1.05,47.59-2.34,71.35C757.31,452,755,478,753,504c-.28,3.47-1.41,6.87-2.67,12.7,13.31-15.23,25.1-28.52,36.66-42,10.72-12.51,23.64-21.45,40.14-23.69,26.89-3.65,51.63,4.56,74.66,17,8.83,4.78,18.05,9.24,26.46,14.93,2.77,1.88,2.82,4.92,2.9,7.86.08,2.62-2.19,1.62-3.46,2.3-22.57,12-49.48,8.86-72,20.22-13.91,7-25.06,18.39-36.82,28.61a508.23,508.23,0,0,0-51.29,51.54c-10.25,11.88-23.28,22.4-27.91,38-3,10.27-2.45,21.58-3.93,32.36-2,14.49-4.54,28.89-6.56,43.37-.43,3.11.43,6.4.69,9.6,3-1.56,6.31-2.79,9.08-4.75,15.9-11.26,33.17-18,52.59-21.83,28.25-5.53,56.67-8.37,85.15-11.64,20-2.29,40.7-4.56,57-19,.53-.46,2.2-.17,3,.31,3.63,2.16,2.85,6,2.27,9-3.63,18.81-6.92,37.72-11.61,56.27-9,35.61-31.26,63.63-53.93,91,13.31,6,25.37,13.41,34.14,25.72,2,2.79,6.23,4.06,7.56,8.13,5.2,15.86-8.62,22.18-16.49,30.2-18.18,18.51-40.55,31.58-64.14,42.22-6,2.69-12.88,3.27-21.45,5.32,16,3.19,20.81,13.59,22.89,25.47,2.15,12.29,13.25,18.92,17.38,30.17,3.69,10.07,4.73,21.65-1.54,30.81,14.42-3.36,27.07-1.63,34.09,12.85,2.88,5.94,3.12,12.53,2.11,19.59-1.7,11.89,5.91,21.07,12.23,30.26,9.18,13.38,8.17,30-2.75,42.49-6.06,6.9-8.33,15.11-8.35,24.1,0,11.94-12.26,27.42-23.77,30.09,13.22,10.76,13.21,21.32.05,44.24,28.6,6.25,55.87,15.23,79.51,33.76A160,160,0,0,1,960,1265.15ZM926.85,676l-16.15,7c-.14.06-.34,0-.49,0-21.51,5.78-43.77,6.55-65.64,9.91-32.8,5-66.78,5.43-96.05,24.18-8.73,5.6-20.75,8.86-24.35,19-5.2,14.66-7.32,30.42-10.67,45.73-.19.9.36,2,.56,2.94a12.81,12.81,0,0,0,2.08-2.23c7.64-13.49,15.16-27.05,22.93-40.46.8-1.37,3-1.9,4.59-2.81-.18,2.11,1.8,3.71.37,6.37-11.71,21.83-23.46,43.64-34.32,65.89-2.13,4.35-5.69,9.15-4.33,14.89,3.4-1.77,6.91-3.36,10.17-5.36,16.37-10.05,37.87-12.73,44.76-36,4-13.31,11.66-25.78,20.76-36.81,6.48-7.86,11.4-17.22,20.64-22.44,1.56-.89,4-.28,6-.36-.24,1.48,0,3.51-.81,4.34-17.68,17-27,39.41-39,60a7.46,7.46,0,0,0-.38,2.65A11,11,0,0,0,769,792c7.12-4,14.5-7.57,21.31-12,17.29-11.36,34.58-22.75,51.38-34.82,12.87-9.24,25-19.58,37.47-29.31,2.53-2,5.24-4.54,8.82-1.79,1.59,1.23,1.18,2.43-.11,3.74-16.13,16.37-34.43,30.09-53.09,43.34-8.75,6.21-17.8,12-30.51,20.53,21-2.53,37.53-4.58,54.08-6.42,2.1-.24,5.5-.05,6.24,1.18,1.51,2.51-.93,4.2-3.34,4.75-9.12,2.06-18.68,2.9-27.33,6.17-15.64,5.91-33.27-7.18-47.9,5.72a45,45,0,0,1-8.4,5.69q-33.47,18-67,35.89c-.93.5-1.76,1.17-2.64,1.76,1.24.86,2.36,2.1,3.73,2.51,8.43,2.55,16.85,5.14,25.39,7.26,7.16,1.79,16.75,6.52,21.25,3.65,9.42-6,18.33-12.25,29-16.34,13.45-5.16,26.36-11.66,41.37-10.54,2.77.2,5.47,1.08,5.72,3.71.21,2.34-2.58,2.27-4.62,2.56-19.94,2.87-37.47,12.36-55.45,20.55-1.61.73-2.7,2.61-4,4,0,.07.67,1,1.1,1.11,16.42,3,32.92,1.79,49.39.69,10-.66,19.89-1.83,29.85-2.42,1.2-.07,3.45,2,3.58,3.26.2,1.94-1.81,2.45-3.84,2.77-12.41,1.93-25.17,2.37-37.32,4.53-26.41,4.71-50.68-3-75.67-8,17.13,23,43.82,24.33,68.55,30.15,2.52.59,5.08,1,7.6,1.66.05,0,0,1.45-.25,1.53-4,1.34-8.15,4-12,3.53A234.38,234.38,0,0,1,772.42,887c-17.57-4.25-34.23-12.91-44-27-8.14-11.78-20-10.67-29.35-16.72-.19-.13-1.74,1.09-2,1.88-2.75,10-5.88,20-7.84,30.22-.95,5-7,11.28.79,15.36,5.63,2.94,12,3.86,18.6,4.65,13.88,1.67,26.51,6.89,31.17,22.33a29,29,0,0,0,2,4.24c1.44-1,3.2-1.73,4.27-3,13.41-16.19,30.21-17.12,45.17-2.49,1.61,1.58,3.92,4.22,5.36,3.9,17.93-4,35.8-6.8,52.33-16.84,18-10.93,35.35-22.42,50.57-36.78,3-2.85,10.57-7.75,7.72-11.34A123.16,123.16,0,0,0,871,824.48c-4.35-2.43-11.71-4.25-6.14-12,8.26-11.44,16.73-22.72,25-34.16,4.49-6.23,9.73-12.18,12.9-19.06,8.35-18.16,15.41-36.91,19.78-56.48C924.48,694,925.43,684.94,926.85,676ZM889.8,1114.38c7.46-7.69,10.21-18.42,3.8-30.08s-19.26-20.87-14.93-34c2.85-30-13.3-30.79-33.2-25.19-10.8,3-15.8,15.64-27.6,17.3-7.35,1-3.67,4.43-1.25,7,20.94,22.15,20.16,42.69-2.53,62.78-1.87,1.65-.45,2,.62,3.22,9.55,10.81,18.76,22.12,12.21,37.8-3.73,9,2.5,13,7.87,12.85,7.41-.22,14.8,1.36,22.59-.65,11.9-3.06,18.7-9.19,21.67-20.91C881.64,1134.19,881,1123.41,889.8,1114.38Zm23.32-624.3c-16.37-5.07-33.08-5.41-49.33-6.23-14.62-.74-28,7.15-40.76,15.11C807,509,793.74,522,780.5,535c-8.8,8.63-14.27,21.09-23.85,28.39-17.43,13.28-11.43,32-16.49,50.29,10.61-13,19-24.85,29-35.13,15-15.36,29.86-30.71,46.51-44.55,13.92-11.58,26.84-24,43.68-31.16C876.38,495.62,895.16,495.47,913.12,490.08ZM870.4,476c9.54.85,19.05,2,31.21,3.34a127.1,127.1,0,0,0-38.92-15.79c-16.65-3.94-33.58-6.79-49.68,2-16.48,9-27.88,23.58-39.43,37.72-9.79,12-25.47,20.5-24.72,39.29.09,2.24-1.41,4.52-1.54,6.82-.2,3.8.12,7.62.22,11.44,2.34-2.55,4.81-5,7-7.67,15-18.36,30.21-36.43,49.68-50.4,11.37-8.16,22.37-16.14,36.13-20.93C850.42,478.31,859.83,475.11,870.4,476Zm-11.65,733.57c3-4.67,9.6-7.71,8.18-14.45,0-12.71-7.85-19.37-19.46-19.59-5.52-.11-11.56,1-17.3-2.2-7.3-4-15.84-7-18.93,5.09s-6.46,23.69-14.37,33.3c-5,6-16.44,10-3.81,19.21,3.75,2.74,7.44,5.57,11.25,8.23,14.32,10,32.22,14.09,44.67-1.3C855.52,1229.81,853.08,1218.41,858.75,1209.61Zm-29.07-184.79c6.81-7.56,18-12.24,17.15-29.62-.25-3.2-3.12-9.94-7.09-16.65-3.86-6.51-10.67-10.88-11.26-20-.6-9.46-5.2-17.68-15.17-22.29-8.46-3.93-19.09-2.51-25.7-11.2-3.65-4.8-7.87-9.54-15-10-17.52-1.18-25.6,15.25-31.61,31.6-1.31,3.56-5.2,9.08-4.22,10.09,4.08,4.18,9.43,7.25,14.59,10.21,11.38,6.54,23.73,12.1,23.64,28.16,0,1.91,1,1.57,2.32,2.05,12.79,4.67,24.25,10.52,25.85,26.48,1.11,11,6.69,14.7,16.75,8.11C823.29,1029.51,827.09,1027.7,829.68,1024.82Zm-35.18,86c17.24-1.41,35.15-19.11,24.84-39.18-6.08-11.84-14.58-22.42-21-34.12-3.35-6.13-3.46-14.05-6.89-20.11-7.25-12.77-32.24-15.61-44.37-5.92-3.4,2.71-10.77,3.56-9.43,8.39a114.22,114.22,0,0,1,4.39,28.68c.26,16.64,9.38,29.46,17,42.87,5,8.72,2.19,25.52,20.45,21.16C784.94,1114.79,789.45,1111.19,794.5,1110.77Zm10.84,60.89c6.67-12.14,21.9-21.32,13.25-37.89-3.57-6.86-5.06-18.49-18.71-15-11.35,2.93-23.21,5.16-34.57-.77-2.48,33.68-41.73,52.56-83.85,33.45,2,4.45,6.33,7.81,5.62,13.24-1.34,10.25,3.34,18.13,10.89,24,19.92,15.5,41.35,27.72,67.77,27,9.14-.25,17.32-2.27,24.07-9.7C798.89,1196.06,799.33,1182.58,805.34,1171.66Zm-14.12,89.07c0-6.73-2.06-12.55-4.63-18-4.47-9.55-7.17-21.69-23.14-17.94-7.22,1.7-15.16-.18-22.32-3.5-.94-.44-5-1.67-3.81,2.09,4.76,14.7-.19,26.05-14.52,29.27-14.56,3.27-26.49,8.65-37.3,19.05-9.38,9-20.67,13.34-35.31,9.83-24.61-5.9-24.84-4.62-25.25,18.06-.19,10.58,2.19,20.64,4.24,30.8,2.7,13.36,21.73,25.25,33.35,21.26,12.61-4.33,25.38-7.85,37.76-6.7,31.11.45,41.68-5.64,56.58-32.05,5.77-10.23,10.91-21.24,22.16-26.55C790.51,1280.88,791.15,1271.54,791.22,1260.73ZM765.8,994.2c1.64-3.61-2.57-6.7-4.57-9.82-5-7.75-14.4-8.5-21.33-13.38-11.34-8-18.47-19.8-28.73-28.63-2.6-2.24-5.44-1.51-7.79-.77-1.43.45-3.2,3.54-2.91,5.09,2.44,13.31-2.4,25.24-10.77,33.9-10.21,10.57-15.38,21.6-13.48,35.66,11.12-11.8,25-18,41.79-12.88,8.92,2.71,17.1,11.18,26.15,0,1.6-2,6.1-1.45,9.13-2.45C757.87,999.37,763.68,998.88,765.8,994.2ZM754.65,365.37c.37-3.59-.41-4.42-4-4.39-22.59.19-45.06,1.62-67.56,3.75-19.13,1.81-38.44,1.66-57.67,2.32-20.57.71-41.14,1.31-61.71,2q-26.9.93-53.77,2c-1.32.05-3.56-1.06-3.4,2,1.35,25.63-.48,51.15-2.39,76.69-1.74,23.14-2.42,46.36-4.21,69.49-1.89,24.45-4.49,48.86-6.91,73.27-1.27,12.88-2.2,25.85-4.38,38.59-4.11,23.94-9.59,47.66-13.41,71.64-3.57,22.44-8.51,44.54-13.52,66.67-3.38,14.9-6.3,29.91-9.43,44.87l-.19,0c-2.56,11-4.87,22.11-7.74,33-5.6,21.27-12.58,42.23-17,63.72-4.65,22.51-14.08,43.33-21.26,64.85-8.69,26-21.77,50.56-33.09,75.68-10.95,24.29-22.31,48.36-36.2,71.17-6.49,10.68-12.08,21.91-18.15,32.84-7.79,14-15.33,28.18-23.6,41.9-10,16.59-20.72,32.72-31,49.15-8.7,13.94-17.18,28-25.71,42-2.43,4-7.45,9.06-6.43,11.86,1.63,4.46,8.21,2,12.69,2.3,13.28.83,26.6,1,39.83,2.3,31.67,3,63.36,5.94,94.92,9.92,21.34,2.69,43,2.48,64.12,7.46,6.56,1.55,14.41,3.84,20,1.61,5.33-2.14,8.55-9.66,12.53-15q28.78-38.34,54.06-79c10.64-17,21.08-34.26,30.48-52,11-20.78,20.9-42.15,31.05-63.38,6.65-13.92,13.49-27.8,19.16-42.13,9.31-23.55,17-47.76,26.81-71.1,6.74-16.06,12.07-32.48,17.07-49.07q5.13-17,9.87-34.16,8.82-31.93,17.39-63.94c3.33-12.44,6.32-25,9.65-37.39,3.68-13.7,8.06-27.22,11.25-41,3.92-17,7-34.12,10.31-51.21,3.68-18.73,7.74-37.4,10.73-56.24,1.93-12.12,1.93-24.53,3.3-36.76,3.1-27.76,6.64-55.47,9.74-83.23,2.07-18.5,3.7-37.06,5.49-55.59q3.32-34.26,6.56-68.53C750.81,404.77,752.59,385.06,754.65,365.37Zm-23.55,782.1c27.88-9,29.27-39.28,18.08-55.35-11.78-16.92-16.77-34.55-16.66-54.53-.52-2.57-.59-5.43-1.67-7.85-2.88-6.44-2.73-14.07-12.21-17.21a34.87,34.87,0,0,0-25.72,1.05c-8.65,3.9-18,9.45-21.58,19.15-3,8.18-4.16,17-10.73,23.54-2.58,2.56-2.47,5.46.1,7.75,16.32,14.53,13.41,36,7.06,51.16-2,4.88-7,13.31-6,14C682.26,1144.28,703,1156.51,731.1,1147.47ZM731,948.29c2.81-1.89,2.81-7.94,4.2-12.7-3.94-9.22-3.77-20.42-14.83-26.92-8.5-5-17.79-2.08-26.24-5.43-3.51-1.39-6.76-5.55-10.89-3.52-5.72,2.82-5.91,19.56-.23,22.15a21,21,0,0,1,9.93,9.37c2,3.67,5.34,4.91,8.6,3.53,9.43-4,15.14,2.62,21.54,7C726,943.83,728.23,950.18,731,948.29Zm-.42,282.84c1.37-7.92-4.25-14.14-10.56-17.75-12.13-7-24.27-13.6-33.06-24.91a7.4,7.4,0,0,0-3.25-1.9c-8,10.55-22.25,14-28.66,26.6-5.07,10-20.2,12.28-30.11,6.55-11.37-6.56-16.82-17.36-22-28.5a13.67,13.67,0,0,0-1.41-2c-.71.65-1.85,1.19-2.07,2-4.15,15.07-10.87,29.69-8.51,43.43,1.2,23.14,11.64,34,29.75,34.46,9.83.24,19.88-2.19,29.49,1.84,12.82,5.37,22.72.1,32.44-8.06,8.14-6.84,14.66-17.39,27-16.74C721.19,1246.72,728.68,1242.19,730.6,1231.13ZM691.29,954.22c1-10.2-3.38-18.12-11.36-23.91-2.46-1.78-4.82-3.36-7.29,2.42-5.65,13.26-5.81,28-13,40.86-5.47,9.78,7.32,7.74,10.12,12.51,1.1,1.87,3,2.39,4.48.73C682.59,977.32,690.53,967.53,691.29,954.22Zm-10.23,213.25c1.1-16.21-16.92-22.87-24.66-36a6.24,6.24,0,0,0-2.44.76q-13.05,6.42-26.05,12.89c-12.17,6-23.25,13-20.79,29.24,1.81,11.87,5.09,23.29,13.09,32.73,7.72,9.11,20.67,9.78,28.69,1.07,6-6.55,10.39-15.33,18.91-18.62C677.37,1185.82,681.25,1179.73,681.06,1167.47Zm-12.13-159.63c0-4,.26-5.52,0-7-1.27-6-5.56-9.41-10.78-11.67-4-1.71-4.09,3.26-4.31,4.19-3,13-8.13,25.63-13.56,37.19-6.56,14-2.08,18.89,9,24.08,2.53,1.18,3.88,1.41,5.3-.94C663.53,1038.87,665.75,1022,668.93,1007.84Zm-2.08,360.67c.42-4.71-1.15-8.34-6.89-7.41-11.54,1.85-20.77-2.48-28.75-10.36-9.32-9.21-13-21-15-34.33-2.71,7-9.86,18-14.43,22.53a22.2,22.2,0,0,0-.54,31.23c19.42,20.8,22.22,46.7,21.56,73.44-.05,2-.87,5.61-4.53,5.36-2.35-.16-3.25-1.93-3.39-4.19-.63-10.19-.71-20.46-2.15-30.53-1.83-12.85-5.92-25-14.85-36.27-2.84,20.44-1.21,39.73-6.72,58.43-5.59,18.94-8,38.83-17.84,56.47-1.27,2.29-2.7,3.62-4.75,3.14-3-.71-2-3.86-1.53-5.49,2.77-9.41,6.5-18.56,8.87-28.06,3.45-13.89,6.06-28,8.93-42,.19-1-.44-2.08-.69-3.13a14,14,0,0,0-2.6,2c-11.11,13.9-23,27.3-28.84,44.65-.62,1.83-4.15,3.83-6.22,3.72-2.94-.17-1.95-3.77-1.42-5.35,3.84-11.5,9.19-22.24,17.22-31.48,7.54-8.67,17.43-16.27,22-26.3,6.57-14.32,1.67-30.74,2.33-46.23.12-2.71-1.25-6.55-6-2.33-5.72,5-13.16,8.19-18.69,13.39-5.89,5.54-15.51,6.69-18.81,14.49-4.46,10.54-6.68,22.05-11.3,32.5-6.57,14.86-15,28.74-26.19,40.82-2,2.21-2.05,8.08-6.74,5-4.95-3.27-.81-7,1.46-10a252.5,252.5,0,0,0,34.34-62.08,6.52,6.52,0,0,0-.06-2.44,7.47,7.47,0,0,0-2.38.54Q510,1402.05,487.66,1416c-2.83,1.77-7.55,3-8.17,5.38-2.19,8.33-6.42,15.46-10.24,23-7.44,14.64-17.86,27-28.33,39.31a9.19,9.19,0,0,1-7.4,2.68c-1.95-.38-1.49-3.71-.12-5.57,5.34-7.22,10.61-14.49,16.21-21.5A115.24,115.24,0,0,0,467,1428c-11.29,3.89-20.22,11.37-30.22,17-22.38,12.53-44.6,25.14-61.76,44.81-1.3,1.49-2.05,4.79-5,2.54s-1.77-5.11.13-7.28c12.33-14.08,25.18-27.61,42.9-37.9-3.53,0-5.84-.61-7.63.1q-24.62,9.71-49.05,19.84c-2.72,1.11-5,3.85-8.27,2.4-.68-.3-1.35-2.6-1-3a79.18,79.18,0,0,1,8.1-7.43c1.16-.93,2.89-1.14,4.3-1.79,16.23-7.45,32-15.38,50-19,8.48-1.71,17.48,1.64,25.66-4,9.5-6.59,20.14-11.54,30.21-17.31,10.61-6.08,21.14-12.3,32.81-19.1-20.32-3.22-37.75,4.28-55.85,5.94-2.28.21-5-.33-5-1.44.11-1.83,1.78-4.69,3.36-5.16,16.11-4.78,32.75-11.24,49.17-9.58,27.29,2.75,45.35-13.65,67.48-26-17.54-.87-33.44-2.4-49.32-2.21-12.72.16-25.51,1.84-38.1,3.87s-27.46.85-33.11,17.15a14.64,14.64,0,0,1-5.35,6.8c-12.81,8.68-25.06,18.49-41.1,21-3,.48-6.46,1.08-7-1.81s3.3-4.3,5.94-5.42c14.25-6,28-12.7,37.82-25.36,1.07-1.38,2.53-2.55,1.33-3.93-.69-.79-2.91-.82-4.2-.42-9.69,3-19.23,6.5-29,9.15-3.74,1-8,.22-12,.24.22-4.09,4.11-6.28,6.46-7,17-5.32,33.58-12.05,51.33-14.76,10.75-1.63,21.36-4.46,32.15-5.5,13.81-1.33,27.73-1.76,41.6-1.89,10.26-.09,20.52.92,32.25,1.51-3.88-2.61-6.67-3.88-8.67-5.92-16.26-16.69-37-13.28-56.38-11-15.6,1.86-30.5-.1-45.52-2.17s-29.77-5.74-44.49-.89c-14.2,4.68-26.4,13.26-38.8,21.64-27.89,18.84-54,39.1-69.75,70.43,20.19-2,38.4,5.44,56.74,12,4.46,1.61,7.13,4.69,2.09,9.54-8.44,8.09-13.24,18.78-19.35,28.54-9.48,15.13-14.25,32.14-19.66,48.85-1.78,5.48-1.37,11.67-2,17.54,1.94-1,3.88-1.92,5.81-2.91,20.52-10.43,43-13.41,65.13-18.41,25.67-5.8,51.55-8.07,77.58-9.23,24.95-1.11,50.26,1.74,73.33-11.88,4.07-2.4,10.66-11.28,15.49-.47,2.45,5.48,2.38,12,4.48,17.72,3,8.3,5.54,17.68,11.32,23.67,2.44,2.54,8.6-7.23,13.45-10.91a301.37,301.37,0,0,0,68-72.17C654.19,1430.16,664,1400.58,666.85,1368.51Zm-3.65-271.87c2.48-20.79-11.34-29.91-25.31-39.21-1.55-1-6.1-6.21-8.79.19-9.71,23.15-19.38,46.33-29.23,69.42-1.69,4,.26,6.27,2.91,8.14,3.64,2.56,3.66-3,3.67-3.06,5.22-18.81,15.75-35.1,24.62-52.15,1-2,3.89-4.6,5.46-4.34,1.92.32,3.55,3.62,2.39,6.17-3.55,7.87-7.53,15.55-11.13,23.4q-8.46,18.39-16.58,36.93c-.46,1-.27,3.51,1.55,2.62,4.53-2.22,10.79-3.72,11.92-9,3.34-15.6,12.35-28.48,19.06-42.45.67-1.4,2.41-3.43,4.85-2,1.43.86,3.11,1.72,2.13,3.85-5.72,12.4-11.49,24.78-17.16,37C653.38,1128.71,660.94,1115.59,663.2,1096.64Zm-50.59,192.54c.11-4,0-11.39-.66-11.48-18.19-2.3-26.2-14.12-30.49-30.71,1.42,5.8-4,6.48-6.15,9.49-5.1,7.11-27.95,14.69-35.72,11.32-9.11-4-17.93-9.14-23.94,5.44-1.88,4.57-6.26,9.35-9.62,13.94-9.55,13.09-19.13,26.15-29.06,39.71,2.34-.82,3.93-1.73,5.57-1.85s3.45,1.1,5,.79c23.66-4.75,44.54.22,62.29,17.09,8.3,7.89,24.56,7.65,31.4.65C596.38,1328.06,612,1313,612.61,1289.18Zm-51.86-90.54c27.08-3.23,39.36-39,33.24-59.48C582.79,1159.46,573.76,1179.89,560.75,1198.64Zm24.1,6c1.78-3.45,2.52-7.44,3.74-11.18-2.9,2.39-5.72,4.91-8.75,7.13-1.51,1.1-3.61,1.4-5.12,2.5-5.78,4.26-16.58,1.52-18.46,4.79-8.54,14.81-16,30.19-26.77,43.67-.27.35.87,2.67,1.7,2.92,5.74,1.74,11,5.46,17.59,4.61,10.73-1.26,19.51-4.93,26.49-14.52C584.25,1232.23,578.38,1217.15,584.85,1204.66Zm-.38-914.19c-3.32-1.31-4.83-1.82-6.27-2.49a156.55,156.55,0,0,0-67.55-14.89q-21.6.18-43.15,1.44c-12.07.68-22.95-1.68-18.54,16.26.59,2.42.55,3.1,3.53,2.66,10.1-1.52,20.3-2.38,30.46-3.52s20.6-2,30.79-3.62c13.46-2.18,27-2.68,40.18.12C563.47,288.45,572.67,291.85,584.47,290.47Zm-3.94-9.5c-12.84-11.45-25.09-17.38-36.74-19.1-22.15-3.27-43.53-11.45-66.28-10.85-7.87.2-15.75,0-23.63-.14-1.54,0-3.81-3.36-4.32-1-1.15,5.23-.91,10.79-.95,16.21,0,.29,2.83,1.22,3.93.79,5.79-2.24,11.72-1.6,17.69-1.66C506.44,264.82,543,261.65,580.53,281Zm-74.6-76.16c7.84,1.9,28.79,3,30.82,1.92-38.33-20.8-76.1-16.8-109.48,11.5,3.33-.88,4.78,11.06,12.2,3.84,3.6-3.5,8-6.15,12.25-9C468.47,201.82,486.82,200.18,505.93,204.81Zm32.52-8.36c-14.58-9.59-28.81-16.18-43.56-21.95-14-5.47-27.73-6.46-41.12,1-14.27,7.94-28.26,16.38-42.27,24.78-1.59,1-6.16,1.39-3.74,4.17,2.87,3.3,5.94,9.75,10.91,7.65,9.74-4.1,18.52-10.39,28-15.16,12.78-6.44,25.35-13,40.69-12.23C504.65,185.55,519.84,193.85,538.45,196.45Zm-57.13,393c.74-12,6-23.7,1.73-36-3.72-10.76-6.71-21.76-10.11-32.64-4.13-13.25-7.68-26.74-12.69-39.65-6.46-16.65-14.58-32.66-21.11-49.28-5.76-14.67-11.38-29.3-20.33-42.4-1.45-2.13-2.2-2.87-4.76-.76-8,6.55-16.11,13-25.76,14.6Q455.15,531.06,467.53,675c3.15-13.29,5.39-26.25,7.38-39.24C477.26,620.37,480.37,605,481.32,589.48ZM453.64,747.66c1.49-15.54-12.88-24.55-22.05-34-12-12.36-26.49-22.87-41.88-31.59-18.86-10.68-37.8-20.61-58.46-28C308.7,646,285.46,643,262.49,642.71c-30.31-.44-60.55,4.91-88.2,19.14-1.31.67-8.6.51-3.56,5.5C184.93,681.41,194,698.9,204,715.84c2.21,3.77,3,7.35-4,7.42-5.64,0-11.23,0-17.09,1.48-30.65,8-58,23.6-86.52,36.42-10.63,4.77-21.26,9.34-32.32,12.7V805.4c21.18,16.4,43.24,31.54,67.62,42.86,9.56,4.44,19,10.69,30.39,10.65,4.66,0,10.52-1.15,12.74,3.69,2.82,6.17-3.63,11.15-6.74,13.94-15.61,14-24.56,32.57-36.19,49.27-.75,1.08-1.39,3.3.49,2.75,17-4.95,34.15-.46,51.14-.42,26.66.06,53.27,3.35,80.05,2.94s53.6-.63,80-7.85c20.28-5.56,40.2-11.68,57.31-23.94,10.34-7.41,20.64-16.18,24.81-28.78a186.08,186.08,0,0,0,8.81-38.79c.58-5.62,14.12-18-5.09-18.31-16.72-.31-34.82-7.89-47.9,11.33-5.92,8.69-20.07,13.21-23,22.11-3.69,11-8,21.08-15.05,29.65-10.85,13.24-22.44,26.06-40,31-2.95.83-4.78-.07-5.77-2.2-1.28-2.78,1.67-3.6,3.31-4.18,8.46-3,15.42-8.22,21.72-14.41,10.35-10.16,20.52-20.48,24.68-35.95-11.14,6.34-21.33,13-32.27,18.15-16.68,7.79-34.55,12.82-51.62,19.47-20.88,8.14-42.39,11.65-63.93,15.93-1.4.27-3.37-2.18-5-3.48-.11-.09.43-1.56.87-1.68q7.74-2.19,15.54-4.13c16.22-4.09,32.64-7.17,48.2-13.88,11.83-5.1,24.39-8.53,36.62-12.71-11.87-.76-22.69-5.21-34.86-4.15-14.41,1.26-28.61,4.15-43,4.73-1.5.06-3.06-1.47-4.59-2.26.94-1.17,1.67-3,2.86-3.41,5.29-1.68,10.64-3.49,16.1-4.25,20.46-2.85,40.91-5.12,61.5-.27,4.73,1.11,8.87,5.92,14.35,3.09,28-14.48,55.77-29.36,78.33-52.42-27.67-1.49-55.24-6.32-83-4-17.84,1.48-37.73-7.42-53.15,9.48-2.86,3.14-7.92,4.42-12.13,6.16-17.41,7.21-34.06,16.24-53.35,18.64-4.55.56-8.06.27-9.3-2.65s3.15-3.49,5.57-3.91c24.48-4.25,45.51-16.91,71.33-28.63-10.63.65-17.33,1.55-24,1.37-28.6-.76-57.21-1.42-85.76-3-10.6-.6-21.49-1.64-31.47-6.05-1.7-.75-2.7-3.11-4-4.73,1.63-.38,3.41-1.38,4.86-1,17.07,4.21,34.53,3.21,51.83,3.79,16.31.55,32.84-1.43,48.92.57,16.34,2,32.41-.32,48.59.49,14.43.72,28.92.15,44,.15-1.83-1.43-3.37-2.72-5-3.88-16.8-11.95-35.7-19.8-54.84-26.89-12.89-4.78-26.25-8.37-39.53-12-2.58-.71-6.57-1.33-6.41-3.09.22-2.6,3.69-3.29,6.68-3.35,13-.26,24.93,4.9,37,8.4,18,5.18,35.89,11.62,51.2,22.41,14.94,10.54,28.72,21.13,48.72,19.68,12.22-.9,24.68,1.54,37,2.47,3.46.26,6.92.45,10.38.68-2.19-2.94-1.17-7.22-4.87-9.76-6.18-4.23-10.68-10.09-15.29-16.11-7.69-10-16.36-22.39-28.2-24.68-20-3.86-40.48-5.77-60.29-11-10.14-2.66-20.79-4.6-29.24-11.63-.86-.72-1.57-2.69-1.19-3.57.46-1.05,2.65-2.47,3.27-2.15,8.2,4.24,17.32,5.44,25.87,8.27,16.41,5.44,33.59,4.86,50.06,8.85-17.24-11.58-33.8-24-53-31.32-9.85-3.76-16.09-13.07-26.76-15.23-3.27-.66-10-1.38-6.74-7.23,2.43-4.33,7.57-.17,10.46,1.2,13.41,6.37,26.06,14.39,39.62,20.36a200.53,200.53,0,0,1,43,25.42c12.28,9.61,23.75,20.24,36.07,30.85-2.77-11-7.77-20.64-12.31-30.55-7.09-15.47-15.25-30.17-26.64-42.88-1.69-1.89-5.2-3.45-3.61-6,2-3.18,5.36-.75,7.31.85,16.75,13.72,25.06,33.23,34.85,51.68,9,16.94,4.26,39.5,21.68,53a6.77,6.77,0,0,1,2.27,3.63c1.74,8,7.05,9.79,14.56,10.66,9.72,1.13,19.88.67,29.22,5.32.86-4.73,1.52-9.44,2.57-14.06C446.79,778.86,452.14,763.45,453.64,747.66ZM448,610.82c.4-.39,1.19-.82,1.14-1.15-1.56-11.58-1.74-24.4-8.63-33.55-8-10.61-14.51-22.2-23-32.61-12.34-15.19-26.47-25-45.56-26.24-24.57-1.56-49,0-72.06,11.1,5.71,4.9,13.08,2.09,19.07,2,19.49-.14,38,3.78,56.64,8.56,20.53,5.27,38.44,14.59,51,32.25A177.6,177.6,0,0,1,447,608.85C447.3,609.53,447.68,610.16,448,610.82ZM439,258.07c.31-10.67-3.08-17.56-9.06-23-13.38-12.3-30.59-20.48-39.53-37.6-2.47-4.71-7-6.62-12.83-7.46-8.15-1.18-14.28,2.87-21.31,4.89-7.2,2.06-18.52,18.89-18.7,26.16-.36,14.4,11.16,21.65,17.08,32.22a75.88,75.88,0,0,0,21.31,24.35c14,10.54,25.89,23.75,29.22,42.28a6.22,6.22,0,0,0,2.18,3.26c1.91,1.61,3.68.43,5.36-.76,2.61-1.85,5.35-3.55,7.86-5.53,8.54-6.74,18.34-13.15,18.35-25.42C438.9,279.54,435.28,267.67,439,258.07Zm-2.34,299.49c-3.57-27.49-12.18-48.94-34-61.87-33.37-19.78-59.23,5.12-87.48,16.26C364.27,501.22,408.87,503,436.62,557.56ZM425.23,345.43c2.06-7.22,4.28-14.13.37-23.46-2.91,11.81-19.32,3-21.1,17.58-.72,5.89-1.86,11.23,3.61,12.9C414.53,354.41,422.35,355.55,425.23,345.43Zm-4.93,23.36c1.3-1.59,1.68-3.94,2.49-5.94-1.78.07-3.57.25-5.35.19-3.74-.12-7.31-.06-11.1-1.6-4.83-2-8.67-8.21-16-.61-15.14,15.78-36.27,13.77-56.33,14.63,8.62,13.48,22.07,17.6,36.29,19.35C392.7,397.57,407.38,384.57,420.3,368.79Zm-55.46-5.47c17.51-3.48,33-18.58,31.78-43.28-1.92-8.57-8.9-21.79-21.07-30.46a100.27,100.27,0,0,1-30.87-34.83c-5.29-9.79-13.2-17.16-25.34-17.67-15.17-.63-26.21,16.92-28,33.9-2,19.21-11.55,34.22-22.49,48.84-6.79,9.08-8.29,19-.53,26.85,11.3,11.48,27,15.88,42.4,17.72C328.64,366.53,346.64,366.94,364.84,363.32ZM325.27,228.93c2.17.23,3.9.07,3.7-3-1-14.76-14.78-41.56-36.75-38.71-2.34,1-5.9-.36-9.82.91-10.28,3.34-14.26,13.25-22.08,18.92-12.38,9-26.11,16.3-23.57,35.79,1.44,11,7.23,23.59-.35,33.36-12.34,15.89-11.93,30,.48,44.92,4.45,5.36,11,6.69,16.65,9.76a50,50,0,0,1,3.24-6.1c15.21-21.21,25.29-44.44,31.35-70C292.43,236.64,305.34,226.72,325.27,228.93ZM293.51,372.1c-.42-.86-.63-2.25-1.28-2.49-7.84-2.95-16-8.63-23.58-8-24.91,2-50.6,4-66,28.73-8.43,13.49-17.19,26.78-25.79,40.17a6.73,6.73,0,0,0,2.35-1.17c11.21-12.31,22.6-24.87,36.77-33.42,20.39-12.3,44.17-15.59,67.05-21C286.53,374.09,290,373,293.51,372.1Zm-64.75-11.65c11.06-3.16,22.09-6.79,33.46-6.58-4.08-9.1-10.08-13.23-21.46-9.06-15.77,5.79-33.07,8-44.72,22-8.41,10.09-12,22.84-18.6,33.93-5.14,8.64-7.44,18.17-10.46,27.51,4.45-5.76,9.57-11.15,13.14-17.42C192.08,389.82,202.85,367.83,228.76,360.45Zm-2-120.26c.4-5,2.57-13.65.93-14.45-14.52-7-28.38-14.51-46.57-11.3-22.42,4-38.88,17.92-57.63,28.73,6.79-2.41,13.6-4.78,20.37-7.26a159.25,159.25,0,0,1,45.64-9.69c11.57-.67,21.44,6.75,31.68,11.61C223,238.7,224.91,239.41,226.77,240.19ZM225,276.83c5.87-11.75,8.6-22.49-5.84-30.94-10.09-5.91-20.66-11.34-31.9-12.16-9.28-.67-19.12,2.69-28.33,5.5-14.27,4.35-28.23,9.76-42.32,14.72.12.51.23,1,.35,1.54,11-1,22.34-.52,32.77-3.45,12.14-3.41,43.8.94,53,9.26,6.45,5.85,13.48,11.07,20.33,16.47C223.26,278,224.69,277.37,225,276.83ZM56,1618.34V61.66l-48-48V1666.34Z"/><path d="M923.83,1155.36c8,0,16.43,2.75,15.29,14.33-.48,9.33-5.79,15.46-14.88,15-8.46-.42-11.47-8.15-11.07-15.68C913.51,1162.59,916.67,1155.34,923.83,1155.36Z"/><path d="M918.79,312.72c10.21.29,12.94,7.16,12.06,15.49a11.63,11.63,0,0,1-13.49,10.3C910.15,337,904.05,331,905,322,905.89,313.84,911.76,312.35,918.79,312.72Z"/><path d="M928.63,558.22c.09,8.25-5.3,14.93-13.48,14.35-7.11-.51-9.88-8.13-10.09-15-.33-10.89,10.51-5.45,14.5-9.6A10.5,10.5,0,0,1,928.63,558.22Z"/><path d="M927.15,108.65c.15,11.28-6.3,14.46-13.57,15.12-5.88.54-10.81-2.73-11.23-9.59-.57-9.25,2.73-17.8,12.34-18.54C922.88,95,926.68,102.53,927.15,108.65Z"/><path d="M927.31,960.66c-1.42,5.8-2.13,14.09-10.2,14.61-12.06.78-15.85-8.66-15.88-18.58,0-7.23,7.25-9.33,12.88-9.46C921.69,947.06,926.59,951.7,927.31,960.66Z"/><path d="M911,184.41c.89,10.73-3.8,17-19.49,16.62-6.73-.8-7.46-9.6-8.3-17.2-.72-6.49,3.81-12.31,10-12.06C900.9,172.07,910.08,173.69,911,184.41Z"/><path d="M906.77,382.09c.8,7.71-3.85,15.5-11.75,14.35s-17.33-4.55-16.19-16.74c.83-8.9,5.69-11.55,13.42-10.73C902.42,367.7,906,374.55,906.77,382.09Z"/><path d="M890.4,638.29c.36,4-.54,12.37-9.27,11.15-11.87,2.86-14.66-4.86-15-13.66-.33-7.85,5.36-10.55,12.52-10.87C888.08,624.49,889.88,632.43,890.4,638.29Z"/><path d="M858.83,225.94c.44,10.44-8.44,11.61-17,13.53-3.41-3.63-12.12-2.92-10.65-10.93,1-5.67-2.37-15.48,8.4-15.39C848.26,213.22,858.32,214,858.83,225.94Z"/><path d="M840.25,101.56c6.9.59,12.29,6.44,10.82,15.17-1.3,7.7-4.6,13.14-14.13,12.32-11.35,1.74-9.61-6.6-10.1-13.89C826.17,105.2,832.88,100.92,840.25,101.56Z"/><path d="M845,1577c1.79,6.64-2.49,10.83-8.31,11.75-10.48,1.65-19.94-.82-18.87-14.17.38-4.76,2.35-11.51,9-12.58C837.78,1560.23,846.13,1562.64,845,1577Z"/><path d="M809,208.4c.71,10.31-8,12.12-14,12-5.1-.13-7.7-8-7.65-13.14,0-5.85,2.87-12.49,10.5-12.07S808.47,201.37,809,208.4Z"/><path d="M804.73,280.47c1.32,9-7.33,7.67-11.69,8.17-6.12.71-8.94-4.24-8.34-9.13.09-7.13,1.14-12.18,8.4-12.57C802.78,266.42,803.79,274,804.73,280.47Z"/><path d="M801.11,642.29c.79,6.43-4.75,10.14-9.09,10.11s-12.73-.74-12.65-7.52c.1-8.27,6-15.09,14.37-15.26C798.88,629.52,801.25,636.12,801.11,642.29Z"/><path d="M788.79,125.17c6.32.67,12.57,3.09,12.26,11.54-.18,5.08-2.43,10.88-7,10.89-7.26,0-15.92-1.21-15.11-12.39C778.3,128,782.41,124.49,788.79,125.17Z"/><path d="M773.08,1535.15c6.23.14,9.62,5.06,9.35,11-.29,6.38-3.31,12.64-10.53,12.48-6-.14-10.61-4.37-11.06-11.37C761.49,1539.69,765.62,1535,773.08,1535.15Z"/><path d="M720.48,155.9c6.36.23,14.31,1.46,13.06,8-.81,9.91-1.88,15.67-10.21,15.1-7-.47-13.93-1.37-14.34-10.57C708.64,160.65,713.12,155.63,720.48,155.9Z"/><path d="M733.06,242.45c.58,8-4.23,11.51-9.88,11.28-5-.2-13.8,1.73-13.59-7.27.19-7.66,1.74-16.13,13.09-15.58C729.29,231.2,733.06,235.42,733.06,242.45Z"/><path d="M727.53,101c.37,7.25-3.87,11.29-11.79,12.41-5.8-1.74-12-4.91-12.51-11.69-.81-11,7.38-11.11,15.73-10.92C726.35,91,727.28,96,727.53,101Z"/><path d="M708.71,1579c.22,7.81-6,13.32-13.45,13.77-9.68.59-13.84-5.41-12.34-15.12.91-5.94,1-12.4,9.45-12.92C700.69,1566.3,708.46,1569.55,708.71,1579Z"/><path d="M685.74,1512.85c-.08,5.19,1.46,14.6-9.18,12.13-12.89,1.07-16-7.53-17.35-17-.67-4.58.61-10,6.81-9.86C675.73,1498.46,685.92,1500,685.74,1512.85Z"/><path d="M663.76,218.82c9.9.43,15.59,4.26,15.17,13.31-.46,9.7-8.19,9.68-14.92,8.76-8-1.09-9.82-7.38-9-14.42C655.68,220.67,659.14,217.91,663.76,218.82Z"/><path d="M633.85,116.46c4.52-.46,12.41-1.8,11.95,7.61-.41,8.35-3.46,17.13-13.82,17.75-9,.53-12.16-6.56-12.1-14.14C619.93,120.41,624.43,116.17,633.85,116.46Z"/><path d="M609.34,1550.14c8.26,0,12.65,5.66,12.44,13.43-.17,6.41-2.76,12.65-11,12.23-9.58-.49-14-6.16-13.88-14.6C596.54,1551.34,603.17,1550.13,609.34,1550.14Z"/><path d="M537.07,92.84c.35,11.2-7.67,14-16.05,13.87-6.53-.06-9.07-6.64-8.59-12.31.57-6.55.87-14.43,9.25-15.68C531.63,79.41,536.77,83.62,537.07,92.84Z"/><path d="M471,1582c.76,6,.8,12.27-7.24,12.2-7.5-.07-16.56.42-16.74-11-.1-6.66-2.11-15,8.21-16.15C466,1565.85,472.67,1569.91,471,1582Z"/><path d="M420.9,113.09c7.3.63,10.6,5.8,10.47,12.83-.1,5.33-1.62,11.2-8,10.86-7.12-.38-13.4-3.62-12.57-12.21C410.82,117.18,413.62,112.45,420.9,113.09Z"/><path d="M361.34,117.38c5.17-.87,6.18,4.72,5.77,8.37.21,8.11-2.79,12.92-10.17,13.19-6.94.26-10.74-3.55-11-10.77C345.45,116.62,355.26,118.4,361.34,117.38Z"/><path d="M286.06,101.27c3.84-1.33,6.18,3.66,6,6.76-.68,10.24-2.9,20.94-16,20.61-8.27-.21-6-9.49-8.47-13.67C267.33,100.22,279.08,103.67,286.06,101.27Z"/><path d="M224.13,1552.76c8.59.22,14.49,2.33,15,11.48-.81,10.6-7.82,14.34-16.3,14.54-7,.16-10.32-7.06-9.34-12C214.58,1561.6,213.48,1552.49,224.13,1552.76Z"/><path d="M233.91,1407.79c.08,6.16-2.14,12.43-9.91,11.9-9-.61-11.41-7.27-11.41-15.57.67-8.14,7.38-9.82,13.46-9.76C234.53,1394.45,233.85,1402.24,233.91,1407.79Z"/><path d="M228.66,154.78c3.23,12.35-3,18.11-14.55,18.06-7.4,0-7.49-7.31-8.59-10-1.73-13.39,5.58-15.2,13.59-15.85C224.46,146.57,227.44,150.14,228.66,154.78Z"/><path d="M227.06,589.08c.82,10.51-6.42,11.52-15.54,12.13-7.61,1.13-8-5.46-8.51-11.43-.6-7.48,3.93-11.95,10.67-12.62C221.6,576.36,226.41,580.83,227.06,589.08Z"/><path d="M202.49,1507.64c.24,6.74-5.32,13.52-12.58,12.83-5.81-.56-13.24-3.56-13-12.47.26-9.14,5.25-13.12,15.58-13.22C201.1,1493.35,202.3,1502.16,202.49,1507.64Z"/><path d="M197.52,529.57c.12,7.34-6.59,12.16-13.08,12.81-2.82.28-11.37,1.62-11.57-7-.23-9.75-1.49-19.76,11.24-22C195.58,513.89,197.39,522.25,197.52,529.57Z"/><path d="M183.25,94.57c5-.56,9.9,4.86,9.42,12.26-.59,9.3-9.18,14.34-17,13.6-7.67-.73-8.7-10-8.45-16.6S173.14,94.86,183.25,94.57Z"/><path d="M178.74,1132.06c2,9.87-4.82,13.35-13.26,14-8.83.66-13.13-3.32-13.5-12.88.73-5.36-.36-13.62,9.82-13.05C169.53,1120.54,177,1123.61,178.74,1132.06Z"/><path d="M158.44,1047.4c8.57-.56,12,6.33,11.69,14.23-.29,8.25-3.23,14.62-13.65,13.33-12,2.08-9.52-7.63-10.14-13.87C145.52,1052.87,151.52,1047.85,158.44,1047.4Z"/><path d="M161.37,152.71c4.72.1,8.64,2.54,8.38,7.86-.45,9-2,18.1-14,17.59-6.39-.27-9.46-5-8.92-10.68C146.79,156.79,152.2,152.52,161.37,152.71Z"/><path d="M167.89,1373.47c.57,10.07-3.23,17.43-13.5,19.93-9.14-1-11.26-7.27-11.27-14.11,0-6.61,1.78-14,9.65-14.67C158.83,1364.08,167.31,1363.46,167.89,1373.47Z"/><path d="M154.82,1577.8c.42,6.78-3.91,11.33-11,11.12-6.23-.19-11.27-4.24-10.36-10.42.94-6.45,1.32-15,11.88-15.7C153.83,1564,154.43,1571.47,154.82,1577.8Z"/><path d="M150.07,1190.93c.06,6.11-1,14.68-13.62,14.17-4.32-.7-12.19.93-13.64-9.49-1.58-11.24,4.47-15.16,14-16.69S150,1184.2,150.07,1190.93Z"/><path d="M141.42,581.3c-1.79,8.56-9.37,10.36-16.3,11.5-6.2,1-12-2.2-11.84-9.24.17-11.08,7.41-17,17.84-17.34C140.6,565.9,139.81,574.45,141.42,581.3Z"/><path d="M121.7,1470.5c7.67.16,10.68,3.93,11.5,10.14-.53,7.78-3.87,12.87-11.29,13-5.48.09-10-3.15-9.52-9.35C112.81,1478.25,110.77,1470.26,121.7,1470.5Z"/><path d="M127.09,117.27c0,9.52-7.12,12.44-14.16,13.52-8.56,1.31-9.61-7.31-9.49-12.22.16-6.56,1.71-14.95,10.71-13.73C124.17,104.7,127.07,109.55,127.09,117.27Z"/><path d="M125.42,340.44c1.62,7.81-6.71,9.37-13.38,10.2-4.44.56-10.48-2.3-9.69-8.74s-2.91-16.8,9.28-16.8C119.32,325.1,125.11,328.66,125.42,340.44Z"/><path d="M108.62,188.29c5.47-.52,13.65.22,12.14,9.12-1,5.8-2.68,13.3-11,13.52-6.64.19-8.94-4.41-8.91-11.65C101.1,194.81,102.72,188.85,108.62,188.29Z"/><path d="M115,1310.11c.45,11.32-6.8,15.55-13.62,16.12-4.38.37-10.88-3.84-10.63-11.86.34-10.65,7.24-12.83,15.52-13.35C113.88,1300.56,114.45,1306.44,115,1310.11Z"/><path d="M104.67,1227.14c5,0,11.22,1.08,10,11.94-2.42,5.72-4.66,15.59-15,17.36-3.45.59-11.92-.5-11.22-8.72C89.32,1237.39,91.07,1227.06,104.67,1227.14Z"/><path d="M110.63,1019.7c.35,6-2.36,10.63-8.77,9.44-9.29.12-13.16-3.78-13-12.15.15-7.15,3.66-11.68,10.49-11.87C108.88,1004.86,110.22,1012.73,110.63,1019.7Z"/><path d="M109.37,416.28c.76,9.46-7.33,8-12.29,8.46-5.41.46-8.28-3.78-8.15-9.44.15-6.52,1.69-11.68,9.76-10.26C107.86,403.67,108.85,410,109.37,416.28Z"/><path d="M107,505.17c.65,7.12-3.55,11.55-10.26,11.68-9.64.2-12.51-6.33-12-12.39.06-8.69,1.21-14.08,9.11-13.48C102.47,491.63,106.27,497.31,107,505.17Z"/><path d="M89.54,1431.69c.26,6.33-1.06,15.07-10.2,15.1s-15.51-4.53-14.39-15.32c.4-8.48,5.56-14.18,13.41-14.12C86,1417.41,89.27,1425.41,89.54,1431.69Z"/></svg>