<svg id="Card" xmlns="http://www.w3.org/2000/svg" viewBox="0 0 1024 1680"><defs><style>.cls-1{fill:#f2f0ed;}.cls-2{fill:#8c1707;}.cls-3{fill:#16592d;}.cls-4{fill:#593831;}.cls-5{fill:#f79d31;}.cls-6{fill:#d82e21;}</style></defs><rect class="cls-1" x="14.5" y="14.5" width="995" height="1651"/><polygon class="cls-2" points="966 1619.17 966 60.83 1018 8.83 1018 1671.17 966 1619.17"/><polygon class="cls-2" points="60.83 58 8.83 6 1015.17 6 963.17 58 60.83 58"/><polygon class="cls-2" points="8.83 1674 60.83 1622 963.17 1622 1015.17 1674 8.83 1674"/><path class="cls-3" d="M959.22,1000.14c-1.41-.59-2.82-1.25-4.06-1.82-4.51-2.1-8.78-4.09-13.91-4.09a24,24,0,0,0-8.59,1.71,51.2,51.2,0,0,1-18.47,3.24c-13.29,0-26.54-4.26-39.35-8.38-2.32-.75-4.58-1.47-6.82-2.17-18.53-5.76-35.76-15.37-52.42-24.67-3.52-2-7-3.91-10.5-5.82-.79-.43-1.73-.89-2.7-1.37-5-2.45-8-4.09-7.87-6.74.24-4.23,4-5.46,7.06-6.45a16.55,16.55,0,0,0,3.42-1.39l.58-.36c12-7.56,23.33-14.71,30.85-27.11a14.37,14.37,0,0,0,.45-2.32c.48-3.28,1.28-8.76,6.21-8.76a10.26,10.26,0,0,1,5.22,1.8c8.46,5.19,16.8,10.8,24.87,16.22,6.26,4.21,12.72,8.56,19.2,12.68a4.28,4.28,0,0,0,2.18.4c.7,0,1.5-.06,2.2-.11l.4,0a5.44,5.44,0,0,0-.68-1.86c-12.68-8.73-25.2-17.13-38.46-26l-14.87-10,15.71-2.55c7.31-1.2,14.35-2.34,21.39-3.47a52.36,52.36,0,0,0,5.2-1.17,36.79,36.79,0,0,1,9.19-1.57,15.12,15.12,0,0,1,9.94,3.57,44,44,0,0,1,4.07,4c2.14,2.31,4.16,4.49,6.46,5.26,14,4.74,11.23,15.9,9.38,23.29a37.83,37.83,0,0,0-1,4.51c-.95,8.09-4.71,15.8-8.34,23.25A132.84,132.84,0,0,0,909.37,965a11.75,11.75,0,0,1-1.17,2.18c-.74,1.18-1.85,3-1.53,3.84.16.45.93.94,2.06,1.29a4.06,4.06,0,0,0,1.16.22c.44,0,.71,0,1.21-2.65a11.56,11.56,0,0,1,.86-3c8.91-17.77,15.36-33.13,17.93-50.37l.63-4.24,2.85,3.21c10.61,12,20.06,22.88,28.28,34.94l.35.51v50.38Z"/><path class="cls-3" d="M955.73,936.44c-9-12.84-20.37-27.38-36.17-37.91a51.79,51.79,0,0,1-6.09-5c-.86-.78-1.71-1.55-2.59-2.3l-1.74-1.48,1.7-1.52c2.54-2.29,5.51-2.59,8.12-2.86a25.12,25.12,0,0,0,3-.41,19.64,19.64,0,0,1,4.42-.52c7.41,0,12.41,4.76,16.82,9,3.26,3.1,6.62,6.3,10.74,7.5,2.2.65,4.5,1.44,6.84,2.37l1.26.5v41.47Z"/><path class="cls-3" d="M959,898.84c-6.72-3.87-13.29-8.13-18.83-11.78l-5-3.31,6-.36c4.6-.27,9.19-.4,14.05-.4,1.62,0,3.23,0,4.84,0l2,0v17.5Z"/><path class="cls-3" d="M887.8,880.28l1-.65c3.79-2.51,7.43-4.94,11-7.31l.43-.29c8.1-5.43,15.76-10.56,23.55-15.44a35.56,35.56,0,0,0,5.93-5.24c3.65-3.7,7.4-7.52,12.44-7.52a9.93,9.93,0,0,1,1.79.16c5.51,1,11,1.79,16.31,2.3l1.81.17v32l-2,0c-1.16,0-2.32,0-3.49,0-10.62,0-21.45.86-31.93,1.69l-6.75.53c-5.85.43-11.75,1-18,1.67h-.17c-3.06.32-6.23.64-9.56,1l-1.16.11Z"/><path class="cls-3" d="M959.76,842.17a99.77,99.77,0,0,1-10.21-1.75l-2.87-.66L962,817.62v24.81Z"/><path class="cls-3" d="M845,891.93a7.75,7.75,0,0,1-4.4-1.16,41,41,0,0,0-23.5-7.36,51.53,51.53,0,0,0-6.08.38,3.33,3.33,0,0,1-.46,0c-1.31,0-3.52-.63-4.27-2.38a3.2,3.2,0,0,1,.84-3.59c6.83-7.17,9.61-16.46,12.3-25.45A103.78,103.78,0,0,1,825.41,836c13.25-26.8,29-44,49.41-54,10.25-5,19.25-7.46,27.51-7.46,9.58,0,18.33,3.17,26.76,9.7.42.32.88.71,1.37,1.13,1.62,1.39,3.79,3.26,5.47,3.26s3.12-2.14,4.36-6c1.77-5.55,8.67-11.22,18.93-15.53l2.78-1.17V811.8l-.41.54A214.82,214.82,0,0,1,911.41,860a4.28,4.28,0,0,1-2.45.62l-.92,0h-.29l-2.87.26.89-3.23c.11-.38.21-.76.33-1.13,4.67-14.21,4.18-29.27-1.5-46a2.54,2.54,0,0,0-2.64-1.59,6.63,6.63,0,0,0-.86.07,2.78,2.78,0,0,0-.43.11,8,8,0,0,0,.18,1c.07.34.14.63.17.9l.4,3a157.57,157.57,0,0,0,3.22,18.56c1.62,6.25-3.44,35.48-9.56,37.95-4.55,1.83-8.69,4.85-12.69,7.77-6.22,4.54-12.64,9.23-21.2,10.23a47.2,47.2,0,0,0-7.08,1.67C850.84,891,847.76,891.93,845,891.93Z"/><path class="cls-4" d="M794,1618l1.2-2.79c1.59-3.69,2.86-6.52,4.1-9.17a41.59,41.59,0,0,0,1.89-5.47c1.64-5.56,3.49-11.85,10-11.85,3,0,6.53,1.41,10.92,4.3,4.55,3,10.63,4.51,18.09,4.51a62.38,62.38,0,0,0,6.42-.35,6.63,6.63,0,0,0,3.15-1,6.91,6.91,0,0,0-2.19-1.23c-3.07-.79-6.23-1.48-9.28-2.15a160,160,0,0,1-16.25-4.17,27.45,27.45,0,0,0-3.19-.74c-3.46-.68-7.35-1.44-8.86-4.17a5.28,5.28,0,0,1-.12-4.59c4.44-11.49,7.22-23.57,9.9-35.26,1.17-5.12,2.37-10.34,3.69-15.47a28.32,28.32,0,0,0,.5-6.52c0-7,.1-16.71,14.17-17.79a8.13,8.13,0,0,0,3.73-2.87,10.37,10.37,0,0,0,2.62-6.29,5.5,5.5,0,0,1-2.73.9,3.35,3.35,0,0,1-.89-.12l-1,.88a30.94,30.94,0,0,1-5.35,4.32,23.87,23.87,0,0,1-6.33,2.31c-.7.18-1.4.36-2.08.57l-.21.06-.28,0h-.92l-.59-.6a5.37,5.37,0,0,1-1.13-3.1c.54-11.54-5.06-21.07-11.34-30.63-1.28-1.94-2.47-4.23-1.69-6.55.6-1.79,2.21-3.12,4.9-4.07,10.65-3.74,19.66-11.18,28.33-23.43a18.3,18.3,0,0,0,1-1.94c1.06-2.23,2.15-4.52,4.31-4.52a3,3,0,0,1,2.45,1.32c2.64,3.43,7.08,9.18,4.44,15.39-2.53,6-7,10.31-11.29,14.52-1.87,1.84-3.8,3.72-5.5,5.68-.25.29-.53.58-.81.85a4.69,4.69,0,0,0-.87,1h0a1.53,1.53,0,0,0,.33.63,1.56,1.56,0,0,0,.49.52,8.23,8.23,0,0,0,1.1-.63c.3-.18.6-.37.9-.53,8.66-4.73,13.67-10.27,16.23-18l2.29-6.85,1.56,7c.3,1.34.56,2.59.81,3.78.51,2.46.94,4.55,1.52,6.6a70,70,0,0,0,2.53,7c2.1,5.19,4.27,10.54,3.34,15.59-2.12,11.43-5.78,22.68-9.32,33.57l0,.1c-1.38,4.23-2.8,8.6-4.11,12.9a9.32,9.32,0,0,1-1.15,2.22c-.18.27-.43.66-.58,1a.39.39,0,0,0,.14,0c.44,0,1.52-1.76,1.88-2.34.21-.35.42-.69.63-1,11-16.39,15.16-35,19.07-55.91,5.26-28.12,9.33-58.18,12.1-89.34,2-22.43,2.72-45.38,3.42-67.57v-.12c.24-7.49.48-15.23.77-22.85.18-4.7,1.76-6.33,6.49-6.71,1.15-.09,2.34-.14,3.67-.14,2.1,0,4.22.12,6.26.23s4.11.22,6.1.22a28.43,28.43,0,0,0,10.7-1.73l.3-.16a9.52,9.52,0,0,1,4.28-1.44c.89,0,3.81.33,4,4.62a10.83,10.83,0,0,0,.29,1.76c.38,1.8.91,4.27-.55,6.34-1.1,1.56-3.06,2.5-6,2.87a32.47,32.47,0,0,1-3.34.19c-2.47.06-6.18.15-7.15,1.29-.08.11-.29.36-.18,1.12s.37,1.51,2.31,1.51a27.16,27.16,0,0,0,6.08-1.13c.88-.23,1.73-.45,2.49-.61a10.17,10.17,0,0,1,2.23-.29,3.85,3.85,0,0,1,2.88,1.08c1.17,1.19,1.24,3,1.22,4.58,0,2.49-.1,5-.16,7.49v.3a239,239,0,0,0,.32,26.36c.76,8.72,2.07,17.55,3.34,26.09,2.1,14.09,4.26,28.66,4,43.27,0,.53,0,1.12,0,1.76.16,3.73.44,10.56-6.12,12.15a12.22,12.22,0,0,1-2.87.37c-5.17,0-9-3.71-10.47-10.16a8,8,0,0,1,0-2.63c0-.28.08-.68.09-1l-.27,0c-1.66.23-2,3.46-2.09,4.44-.21,3.19,1.33,5,3.66,7.63l.51.59c1.14,1.32,3.55,2.24,5.67,3.06,2.74,1.06,5.11,2,5.94,4a3.64,3.64,0,0,1-.08,2.94c-8.44,19.32-17.68,38.62-26.62,57.27-3.7,7.71-7.88,16.44-11.89,24.95-1.7,3.6-3.24,7.4-4.74,11.06-2.62,6.44-5.32,13.07-9,19.06a35,35,0,0,0-2.91,7c-2,6.07-4.32,12.92-13.32,15.33a49.09,49.09,0,0,1-12.94,1.66c-7.34,0-14.52-1.45-21.2-3a11.79,11.79,0,0,0-2.58-.39c-1.32,0-1.77.46-2.09,1.2a.78.78,0,0,0-.09.44c.07.15.45.58,2.41,1.16l3.43,1.05c6.8,2.08,13.82,4.24,20.81,4.24a30.6,30.6,0,0,0,10-1.64,4.78,4.78,0,0,1,1.54-.24c.45,0,.87,0,1.28.09a6.06,6.06,0,0,0,.78.07l2.3,0-.37,2.27c0,.3-.08.6-.11.9a12.66,12.66,0,0,1-.56,2.79c-1.88,5.12-3.79,10.24-5.69,15.36l-.15.42c-2.64,7.09-5.37,14.41-8,21.73l-.48,1.32Z"/><path class="cls-4" d="M895.72,1283.18a4.62,4.62,0,0,1-3.46-1.26c-1.3-1.33-1.26-3.19-1.22-4.69,0-.24,0-.48,0-.72,0-8.61.15-17.36.29-25.83v-.21c.32-19.73.65-40.11-.7-60-1.85-27.39-5.13-58.9-20.62-86.4l-1.41-2.49,3.13-.51c11.14-1.83,21.67-3.56,31.34-8.09a5.9,5.9,0,0,0,.88-1.77,3.51,3.51,0,0,0-2.42-.87,4.75,4.75,0,0,0-2.58.74c-5.07,3.58-10.59,4-15.94,4.4a46.81,46.81,0,0,0-8.25,1.1,13,13,0,0,1-3.34.47c-5.85,0-8.51-4.51-10.86-8.49-1.36-2.3-2.77-4.69-4.64-5.8-10.46-6.27-12-16.4-13.35-25.33-.63-4.19-1.29-8.51-2.8-12.29-4.82-12-14.63-18.21-25-24.74q-2.43-1.53-4.88-3.1l-3.7-2.41,4.25-1.19c16.24-4.59,22.82-14.21,20.71-30.26a3.82,3.82,0,0,1,.75-3.14,3.21,3.21,0,0,1,2.52-1c1.61,0,3.78.82,7.49,2.84,14.81,8.06,30.81,12.63,47.75,17.47l5.53,1.58-2.78,2.42c-5.28,4.6-11.52,7.26-17.56,9.85a94.25,94.25,0,0,0-10.82,5.17,13.67,13.67,0,0,1-3.55,1.3,10.61,10.61,0,0,0-2.55.89,21.5,21.5,0,0,1-2.78,1.3c-2.07.84-3.34,1.42-3.94,2.77a2.91,2.91,0,0,0,.65.66,5.71,5.71,0,0,0,3.12.86,17.08,17.08,0,0,0,6.22-1.73l.64-.27a162.18,162.18,0,0,0,15.93-8c3-1.67,6.16-3.38,9.29-4.95.24-.12.48-.26.73-.4a6.66,6.66,0,0,1,3.31-1.18c3.25,0,4.15,3.76,4.44,5,2.13,8.83,4.74,17.72,7.26,26.32l0,.1c2,6.82,4.07,13.87,5.89,20.87a7.63,7.63,0,0,1-.89,6.56c-1.6,2.27-4.64,3.63-9,4a25,25,0,0,0-11,3.4,11.46,11.46,0,0,1-4,1.15,11.81,11.81,0,0,0-2.35.54,2.13,2.13,0,0,0,.16.47c.31.73.94,1.48,3.18,1.48a27.31,27.31,0,0,0,5.6-.87l1.3-.29a42.86,42.86,0,0,0,8.13-2.93c2-.85,4-1.74,6.1-2.42a10.27,10.27,0,0,1,3.15-.57,5,5,0,0,1,3.73,1.47c1.82,1.9,1.69,4.95,1.6,7,0,.42,0,1,0,1.19,1.5,7.21,2.87,14.55,4.19,21.65l0,.15c1.54,8.3,3.15,16.88,4.93,25.17,4.3,19.86,5.35,40.13,6.37,59.74.59,11.29,1.2,22.93,2.41,34.3,1.18,11,1,22.33.78,33.25-.1,5.64-.21,11.47-.12,17.19,0,2.83-.57,4.85-1.88,6.17a6,6,0,0,1-4.54,1.65,21.41,21.41,0,0,1-2.92-.26,18.38,18.38,0,0,0-2.13-.2,2.88,2.88,0,0,0-.55,0,146,146,0,0,1-18.08,1.64h-.16c-2.14.11-4.28.21-6.41.36Z"/><path class="cls-3" d="M566.63,568C556,553.24,562.91,540.9,569,530c1.55-2.76,3.14-5.61,4.41-8.41,12.05-26.6,26-45.74,44.05-60.22,7.23-5.82,13.65-8.53,20.19-8.53a25.45,25.45,0,0,1,10.68,2.47,11.48,11.48,0,0,0,4.88,1.19c3.8,0,6.81-2.28,10.3-4.91,2.77-2.08,5.63-4.24,9.08-5.21A61.53,61.53,0,0,1,689,443.91c14.33,0,26.06,6.53,35.87,20,1.93,2.65,4,3.83,6.79,3.83a24.15,24.15,0,0,0,7.53-1.78,35,35,0,0,1,5.36-1.56,85.8,85.8,0,0,1,14.56-1.12c5,0,10.06.31,14.92.62l2.93.18c2,.13,4,.21,6.08.3h.11c10.12.43,20.58.88,30,5.59a131.23,131.23,0,0,0,16.36,6.34c12.07,4.08,24.56,8.3,33.07,19.45,3.93,5.15,9.16,9.15,14.22,13,5.6,4.28,11.38,8.71,15.88,14.87l3.28,4.48-5.38-1.36c-43.59-11-86.95-16.93-138.62-22.47l-1.17-.13-.46-3.28,1.09-.43a204.89,204.89,0,0,1,48-13.35c5.05-.73,10.2-1.35,15.18-2l.16,0a3.77,3.77,0,0,0,1.94-.57s0-.05,0-.11a3.92,3.92,0,0,0-2-1.38c-2.3-.21-4.66-.32-7-.32-15.53,0-30.68,4.69-43.65,9.09-3.83,1.3-7.63,2.71-11.3,4.08-13,4.82-26.41,9.81-42.12,10.09-29.77.53-54.39,5.88-75.25,16.35a7.22,7.22,0,0,1-3.29.67c-.42,0-.85,0-1.29,0s-.78,0-1.14,0A3,3,0,0,0,627,524l-.88,1.11L623,523l.73-1.2c8.23-13.47,19.59-23.79,29.62-32.11,10.52-8.72,22.94-16.56,39.09-24.7a1.65,1.65,0,0,0,.7-.71,11.7,11.7,0,0,0-4-.88,3.16,3.16,0,0,0-1.29.21c-15.48,6.93-29.24,17.27-42.55,27.27q-4,3-8.06,6a23,23,0,0,0-4.05,4.38,34.05,34.05,0,0,1-4.57,5.09l-.9.78-2.72-2,.47-1.1c2.11-4.94,1.9-10.31,1.7-15.51-.2-5-.41-10.15,1.29-15.25a4.65,4.65,0,0,0-.61-2.65l-.31-.18c-.38.46-.78.92-1.18,1.37-1.29,1.49-3.2,3.69-3.05,4.62.86,5.58.18,11-.48,16.21-.6,4.78-1.22,9.71-.62,14.63,1.2,9.64-4.59,19-15.87,25.57l-1.63.95c-14.11,8.26-28.7,16.8-34.56,33.66l-1.26,3.62Z"/><path class="cls-3" d="M764.77,599c-.82,0-1.67,0-2.51-.11-9.53-.81-18.22-4.57-26.57-11.49l-.29-.24c-4-3.32-7.79-6.46-12-6.46a11.27,11.27,0,0,0-6.11,2c-6.63,4.26-13.23,6.33-20.17,6.33-11.93,0-22.91-6.31-33-13.12q-2.73-1.85-5.44-3.71c-14.58-10-29.64-20.29-47.47-24.36-2.2-.5-4.5-.78-7.17-1.11-1.42-.18-2.84-.35-4.38-.57l-5.9-.83,5.21-2.9c16.16-9,33-14.4,49.3-19.64l.31-.1c3.68-1.18,7.36-2.36,11-3.59a31.06,31.06,0,0,1,9.66-1.79c11.56,0,15.48,9.39,19.28,18.47.79,1.9,1.62,3.87,2.51,5.75,1.06,2.24,2,4.56,3,6.81,3,7.05,6,14.32,12,19.49.45.4.87.84,1.24,1.23a10.77,10.77,0,0,0,1.27,1.2l.07-.07a5.91,5.91,0,0,0,.4-2.57,4.13,4.13,0,0,0-.18-1.22c-6.12-5.36-8.57-12.13-11.16-19.29-1.85-5.11-3.76-10.39-7.16-15l-.71-1,2.19-2.56,1.06.56q4.85,2.53,9.55,5l.1.05c15,8,29.19,15.53,44.39,21,3.1,1.1,6.13,2.44,9.07,3.74,5.75,2.53,11.7,5.16,18,5.93l.19,0a5.22,5.22,0,0,0,1.57-.37,5.29,5.29,0,0,0-1.35-1.83c-4-1.77-8.24-3.43-12.31-5-5.76-2.26-11.71-4.6-17.4-7.36C733.4,544.86,722,538.82,710.92,533q-6.09-3.22-12.2-6.42a7.17,7.17,0,0,1-1.64-1.27,4.48,4.48,0,0,0-.67-.58,15.66,15.66,0,0,0-3.39-1.34c-2.76-.86-5.87-1.83-7.65-5.36l-1.07-2.11,2.26-.7c1.31-.41,2.67-.93,4-1.44,3.1-1.2,6.31-2.44,9.68-2.52,3.61-.09,7.23-.2,10.84-.31l.68,0c9.42-.28,19.17-.57,28.78-.57,10.8,0,20.28.38,29,1.15,12.27,1.09,20.54,7,29.29,13.19,2,1.43,4.08,2.91,6.17,4.29A164.72,164.72,0,0,0,823,538.87l.11,0c2,1,4,2,6,3a1.92,1.92,0,0,0,.87.23.89.89,0,0,0,.93-.71c.21-.62.28-.83-1.65-1.89-.32-.17-.64-.34-.92-.52l-4.74-2.91-.39-.23c-8.41-5.15-17.1-10.47-25.4-16.41l-1-.69,1.23-3.08L807.5,517c29.75,4.08,60.52,8.3,91,17l6.22,1.77-6.14,2.05c-6,2-12,3.88-17.8,5.71l-.16.05c-13.58,4.26-26.4,8.29-38.87,13.57-12,5.09-23.52,12.11-34.65,18.89q-3.86,2.34-7.69,4.66a89.74,89.74,0,0,0-9.22,6.66C782.92,593.09,775.4,599,764.77,599Z"/><path class="cls-3" d="M786.7,1459.16c-16.72,0-29.57-9.36-42-18.42-2.06-1.49-4.19-3-6.31-4.53-1.43-1-2.8-1.9-3.85-1.9-.85,0-1.86.6-3.09,1.85a38,38,0,0,1-27.1,11.59,39.74,39.74,0,0,1-21.63-6.65c-22.51-14.4-33.34-35.79-43.34-58.3-3.54-8-6.63-16.26-9.61-24.28-2.22-6-4.51-12.12-7-18.13-.44-1.07-.9-1.56-1.15-1.56s-1.08.11-3,2.23c-9.25,10.14-21.15,16-32.65,16h0a30,30,0,0,1-25-12.83c-6.43-9-14.86-22.82-13.67-39.21.44-5.88-1.85-9.22-8.14-11.93-17.81-7.68-29-23.46-31.61-44.44-4.23-34.36,6.65-66.88,33.26-99.42.8-1,1.63-2,2.46-3,4.69-5.56,9.49-11.27,11.81-18.62l.39-1.23,3.52.54v36.38c0,19,7.71,30.28,25,36.69a6.14,6.14,0,0,0,2.13.34c7.1,0,18-9.14,21.26-17.79l.13-.37c2.26-6.09,4.4-11.84,3.74-18.21-.16-1.58.9-2.83,1.75-3.84.28-.34.55-.66.72-.91l1.29-2,1.72,1.57c.31.28.65.54,1,.8a9.32,9.32,0,0,1,2.7,2.78c.62,1.12,1.24,2.24,1.87,3.35a129.81,129.81,0,0,1,7.33,14.52c2,4.94-.36,8.82-2.43,12.25a19.51,19.51,0,0,0-2.51,5.28,145.1,145.1,0,0,1-5.86,18.23l-.07.19c-.77,2.09-1.54,4.17-2.27,6.26-2.56,7.27-9.1,8.57-14.36,9.61-.85.17-1.68.33-2.47.52-18.44,4.33-34.94,12.39-51.61,21-1,.5-2,1-2.94,1.55-2.22,1.19-4.49,2.41-6.85,3.42a8.55,8.55,0,0,0-2.06,1.11,1.16,1.16,0,0,0,.06.16,2.43,2.43,0,0,0,2.25,1.39,3,3,0,0,0,1.2-.25c4.61-2,9.28-4,13.8-6l.13-.06c7.95-3.51,16.16-7.13,24.4-10.38,9-3.58,18.76-7.11,28.61-8.71a2.12,2.12,0,0,1,.44,0,2.59,2.59,0,0,1,2.09,1.07c2.08,2.81-.86,12.61-1,13-5.26,17.36-11.06,37.63-13.15,58.64a11.61,11.61,0,0,1-1.35,3.75,10.2,10.2,0,0,0-1,2.48,4,4,0,0,0,1.38.32h.13c1.08,0,1.85-3.27,2.36-5.43.27-1.13.54-2.31.89-3.36,4-12.09,7.16-24.68,10.22-36.85,1.44-5.71,2.92-11.6,4.49-17.43,2.14-8,5-15.83,7.84-23.39,3.52-9.49,7.15-19.3,9.22-29.36a23.59,23.59,0,0,1,1.8-4.91c.34-.76.7-1.55,1-2.42l1.54-3.81,2.05,3.56c2.44,4.22,5,8.45,7.4,12.53l.08.13c6.25,10.45,12.15,20.31,17.19,30.93,2.55,5.38-.52,10.48-3.23,15a33.21,33.21,0,0,0-3.16,6.14c-2.36,7-3.53,14.34-4.66,21.45-.62,3.9-1.26,7.91-2.09,11.87-1.22,5.76-1.49,11.91-1.76,17.86-.1,2.43-.23,5.15-.41,7.76a2.91,2.91,0,0,0,3.43,3.74h.1a3.17,3.17,0,0,0,.86-.09,8,8,0,0,0-.16-1.29,8.38,8.38,0,0,1-.18-2.24c2.06-21.46,4.7-44.2,12.25-65.69a6.23,6.23,0,0,1,2.71-3.15,2.33,2.33,0,0,1,1.14-.29,4.53,4.53,0,0,1,3.38,2c11.91,19.55,25.41,41.72,23.25,71.1-1.81,24.28,1.74,51.09,11.16,84.34.33,1.14.87,1.3,1.41,1.3a2.45,2.45,0,0,0,.46,0,1.14,1.14,0,0,0,.49-.15,6,6,0,0,0-.2-1.58c-.06-.31-.12-.6-.16-.86-.84-5.6-1.85-11.22-2.83-16.67-1.94-10.81-3.95-22-4.65-33.08-.28-4.57-.73-9.22-1.17-13.72-1.21-12.41-2.45-25.25-.53-38.64l.75-5.19,2.9,4.36q1.89,2.87,3.73,5.7l.25.39c5.33,8.19,10.37,15.93,16.69,22.84,4.46,4.86,8.65,10.07,12.71,15.11,3.42,4.26,7,8.65,10.6,12.78,6.84,7.74,14.6,16.52,23.18,24.12,7.3,6.48,15.2,12.54,22.85,18.4,3.07,2.35,6.22,4.77,9.3,7.19a8.11,8.11,0,0,1,.72.63l.15.15c.47-.66.41-1-.24-1.6-3.62-3.5-7.26-7-10.89-10.45-7.21-6.89-14.59-13.94-21.7-21-5.41-5.39-10.49-10.84-16.38-17.16l-.22-.24c-2.57-2.76-5.27-5.65-8.14-8.7l-3.8-4,5.49.65c20.08,2.4,36.11,7.78,53.5,14a39.21,39.21,0,0,1,5.19,2.44,42.12,42.12,0,0,0,4.4,2.11h.11a3.26,3.26,0,0,0,1.74-.61l.09-.09a8,8,0,0,0-1-.75l-.45-.32c-9.48-7.41-21.18-10.91-31.5-14-6.59-2-13.46-3.51-20.11-5-7.54-1.68-15.28-3.41-22.74-5.79-3.63-1.16-5.93-5.15-8.15-9-.72-1.25-1.4-2.43-2.1-3.47-2.13-3.18-4.18-6.47-6.17-9.65a182.94,182.94,0,0,0-11.46-16.94c-1.86-2.35-4.18-5.82-2.79-8.74s5.37-3.25,8.73-3.29l6.15-.07c5.32-.07,11.36-.15,17.22-.15,11.36,0,26.32.26,41.26,2.28a93.24,93.24,0,0,1,9.49,2c2.53.62,5.15,1.27,7.74,1.7a11.32,11.32,0,0,0,1.7.11,17.68,17.68,0,0,0,2.82-.22c-.24-.63-1-1.49-3.17-2.61-4.43-2.27-9.5-2.7-14.4-3.13-4.36-.37-8.85-.76-13.12-2.37-6.49-2.44-13.31-2.77-19.13-2.77-2,0-4.08,0-6.11.09s-4.08.08-6.09.08c-1.53,0-2.88,0-4.14-.07-1.43-.06-2.89-.14-4.37-.22h-.25c-3.12-.17-6.35-.35-9.57-.35-7.07,0-12.6.91-17.38,2.84a4.9,4.9,0,0,1-1.87.39c-3,0-4.56-2.88-5.67-5a16,16,0,0,0-.8-1.43l-1.71-2.69c-8.25-12.91-16.78-26.26-24.93-39.63-5-8.24-10.24-17-14.31-26.2a3.88,3.88,0,0,1,0-3.85c1.09-1.68,3.34-1.68,4.18-1.68.49,0,1,0,1.43,0l.89,0h.2a64.45,64.45,0,0,1,15.44-2c12.09,0,22.89,4.23,34,13.32,17.7,14.49,41,23.35,59.31,29.45a4.69,4.69,0,0,0,1.2.3,3.22,3.22,0,0,0,.08-.33c.24-1.46-.09-2.48-2.52-3.72q-7.8-4-15.63-7.88c-12.05-6.05-24.52-12.32-36.67-18.77-3.59-1.91-6.69-4.42-10.62-7.6-2-1.62-4.22-3.41-6.78-5.35l-4.75-3.59h6l18.46,0h.84l17.42,0c12.84,0,22.61.06,31.67.21.74,0,1.47.06,2.19.11s1.5.1,2.16.1c1.7,0,2.86-.28,3.82-1.63a2.78,2.78,0,0,0-.57-.77,8.51,8.51,0,0,0-3.89-1.08q-23.18-.06-46.37-.06-19.12,0-38.24,0h-.13c-2.25,0-4.76-.16-6-2.07-.82-1.25-.81-2.87,0-4.83,2.41-5.58,1.87-11.38,1.3-17.53-.21-2.16-.41-4.39-.51-6.72L678,1156l3.76,4.46c6.91,8.2,16.44,12.21,25.67,16.09,1.18.5,2.37,1,3.55,1.5a13.78,13.78,0,0,0,5.5,1.1c9.87,0,19.94-8.89,20.73-18.3,1.42-17-5.91-30.78-12.45-40.84-.45-.71-.82-1.41-1.34-2.38l-.05-.1c-.27-.52-.58-1.11-1-1.83l-3.67-6.74,6.5,4.09c15,9.46,30.08,18,49,18.33,10.5.2,20.89,7,27.8,18.24,7.61,12.34,9.24,27.15,4.16,37.74a134.72,134.72,0,0,1-15.29,24.34c-2.48,3.23-3.43,6-2.91,8.37.95,4.32,6.77,7.38,11.45,9.83l.32.17c.53.28,1,.54,1.53.81,26.1,14.09,39.57,39.5,35.16,66.32-1.17,7.18-5.49,13.73-9.67,20.07-1.19,1.81-2.43,3.69-3.55,5.53s-.79,2.27.37,3.47c14.57,15,22.86,33.55,25.32,56.82,1.52,14.43,1.86,32.91-9.07,47.85-9.55,13.06-22.66,21.7-40.06,26.41A50.12,50.12,0,0,1,786.7,1459.16Z"/><path class="cls-5" d="M805,1075.46c-12.37,0-24.26-4.26-35.75-8.37l-2.74-1-3.49-1.23c-13.62-4.82-27.7-9.8-40-17.39-27.14-16.67-48-32.16-65.77-48.75a14.61,14.61,0,0,0-2.88-1.88c-.56-.3-1.09-.59-1.58-.9l-1.41-.87.61-1.55c1.87-4.78,4.4-7.1,7.74-7.1,2.78,0,5.26,1.66,7.66,3.27a20.07,20.07,0,0,0,3.06,1.83A383.41,383.41,0,0,0,731.91,1011l6.23,1.48c12.83,3.09,26.1,6.27,39.53,6.27a77,77,0,0,0,14.16-1.26,23.55,23.55,0,0,1,4.15-.37c9.52,0,20.73,5.68,30,15.2,8.31,8.53,13.15,18.2,12.95,25.86-.26,10-7.93,12-13.54,13.42-1.36.35-2.65.69-3.84,1.11a49,49,0,0,1-16.52,2.79Z"/><path class="cls-6" d="M684.21,969.18a2.59,2.59,0,0,1-2.5-1.4c-.79-1.58.33-3.26,1.43-4.71,9.81-12.88,22.69-20.51,39-28a333.15,333.15,0,0,0,66.37-40.71,41.24,41.24,0,0,1,25.41-8.31,44.41,44.41,0,0,1,15.15,2.63,10.73,10.73,0,0,1,6.89,6.54c1.49,4.11.55,9.54-2.57,14.88-12.33,21-32.1,29.29-53,38.06-2.41,1-4.82,2-7.22,3.05-18,7.75-37.92,12.87-60.82,15.65l-5.86.47c-6.59.54-13.36,1.09-20,1.54a4.87,4.87,0,0,0-.58.09A9.66,9.66,0,0,1,684.21,969.18Z"/><path class="cls-6" d="M785,1013.65c-22.71,0-44.21-4.86-69.51-12.16-9.72-2.8-19.44-6-28.84-9.09-5.81-1.91-11.76-3.87-17.66-5.72-.3-.1-.64-.19-1-.28l-.09,0c-2.48-.67-7.65-2-6.35-7,1-3.87,4.84-6.48,9.52-6.48h.58c2,.09,4,.24,6,.38,3.34.24,6.74.48,10,.48a39.29,39.29,0,0,0,10.18-1.13c5.14-1.37,10.25-1.55,15.19-1.73a69.36,69.36,0,0,0,13.27-1.33c15.11-3.49,29.84-7.07,44-12.33a33.21,33.21,0,0,1,11.6-2.14c10.52,0,19.78,5.16,27.46,10.2,8.19,5.37,16,11.77,17.52,22.09v.22c.06,12.3-12.83,23.92-28.14,25.36C794.28,1013.44,789.64,1013.65,785,1013.65Z"/><path class="cls-6" d="M718.93,932.64a5.41,5.41,0,0,1-1.62-.32,3,3,0,0,0-.49-.14l-2.26-.41.71-2.18c.11-.33.19-.68.28-1a10,10,0,0,1,1.13-3c8.52-13.51,15.9-28,23.05-42,4.6-9,9.36-18.33,14.39-27.33,7.11-12.71,21.43-21.6,39.31-24.39a26.46,26.46,0,0,1,4-.32A18.65,18.65,0,0,1,811,836.84a17.92,17.92,0,0,1,4.81,13.32v.18l0,.23c-4,14.5-12.57,26.66-25.57,36.21q-4.51,3.32-9,6.67C771,901,760.53,908.76,749.85,915.86a230.34,230.34,0,0,1-21.17,12l-.2.11c-2.72,1.41-5.52,2.87-8.24,4.35A2.82,2.82,0,0,1,718.93,932.64Z"/><path class="cls-5" d="M767.34,1126.57c-4.7,0-10.15-1.55-16.2-4.62-24.89-12.59-45.68-27.6-63.54-45.88a321.74,321.74,0,0,1-49.3-64.36,5.77,5.77,0,0,1-.29-5.94,4.72,4.72,0,0,1,3.84-2.46,3.2,3.2,0,0,1,.83.11l.1,0a7.5,7.5,0,0,0,1.4-2.16c1-1.92,2.24-4.29,4.91-4.29,1.74,0,3.46,1.06,5.55,3.44,13.78,15.64,31.28,27.38,46.72,37.73a444.55,444.55,0,0,0,40.66,24,53.65,53.65,0,0,0,6.92,2.84,43,43,0,0,1,9.4,4.22c8.9,5.81,15.88,14.62,20.19,25.47a26.74,26.74,0,0,0,2,3.66c1.93,3.21,4.12,6.85,2.45,11.15C782.43,1120.37,776.75,1126.57,767.34,1126.57Z"/><path class="cls-5" d="M735.23,880.53c-2.61,0-4.87-1.93-6.86-3.64a13.91,13.91,0,0,0-3.5-2.49c-3.18-1.12-5-2.63-5.5-4.63-.74-2.86,1.5-5.39,3.13-7.23a12.37,12.37,0,0,0,1.32-1.64c5.55-10.82,7.87-23.24,7.09-38-.27-5.2-9.2-9.08-17-9.08a18.87,18.87,0,0,0-7.53,1.42c-.48.21-1,.4-1.46.6l-.78.31-2.62,1.08-.14-2.83c0-.19,0-.39-.07-.59a4.5,4.5,0,0,1,.18-2.75c8.78-18.79,20.09-30.48,35.61-36.78a19.58,19.58,0,0,1,5.23-1.19l.28,0,.14,0h.19a21.22,21.22,0,0,1,16.56,7.43,20.8,20.8,0,0,1,4.66,16.9c-3.9,23.22-10.62,47-21.16,74.86-1.34,3.55-3.61,8.28-7.77,8.28Z"/><path class="cls-5" d="M718.54,339.39c-15.13,0-30-3.45-44.49-6.78l-1.37-.32c-7.79-1.8-15.55-4.39-23.06-6.89s-15.15-5.06-22.87-6.85l-1.21-.28.14-3.47,1.23-.18c19.87-2.93,39.2-8.23,57.9-13.34l.25-.07q5.57-1.53,11.14-3A87.11,87.11,0,0,1,718.68,295c11.5,0,21.7,2.91,30.31,8.63,8.86,5.88,9.62,16.42,7.39,24.32-1.64,5.76-8,7.07-13.15,8.12-1.09.22-2.23.45-3.24.72A83.94,83.94,0,0,1,718.54,339.39Z"/><path class="cls-6" d="M576.35,316.82c-.63,0-1.24-.06-1.83-.11-.4,0-.79-.07-1.18-.08l-3.52-.13,1.92-3c.19-.28.36-.58.53-.88a11.15,11.15,0,0,1,1.7-2.43c16.18-16.32,35.42-29,54-41.22l6.49-4.28c15.2-10.05,33.61-21.1,54.9-26.81l2.21-.6c8.65-2.33,17.6-4.74,26.6-4.74a40.61,40.61,0,0,1,23.43,7,14.8,14.8,0,0,1,6.86,11.94c.2,6.52-3.72,13.38-10.76,18.81-14.91,11.52-32.49,17.84-49.49,24l-2.73,1a208.71,208.71,0,0,1-24.87,6.77c-5.84,1.32-11.33,2.57-15.73,4.07l-.13,0-12.72,2c-19.88,3.13-37.13,5.84-54.39,8.53A9.23,9.23,0,0,1,576.35,316.82Z"/><path class="cls-6" d="M716.77,1174.25c-6.39,0-12.07-3.21-17.57-6.31l-1.07-.61c-22.12-12.43-35-33.41-47.42-53.7l-.29-.48c-15.74-25.69-26.59-47.86-34.14-69.76-6.17-17.9-3.63-24.42,12.34-31.74a5.25,5.25,0,0,1,2.25-.57c2.07,0,3.26,1.68,4,2.94,16.11,28.57,32.31,50.1,51,67.75,3.3,3.12,6.87,6.17,10.32,9.12,11.47,9.8,23.28,19.91,29.18,35.26.79,2.06,1.73,4.12,2.64,6.11,2.88,6.28,5.86,12.77,4.88,20.47.42,4.14,1.45,15.94-9.32,20.22A18.3,18.3,0,0,1,716.77,1174.25Z"/><path class="cls-6" d="M669.24,899.62c.45-4,1-7.93,1.54-11.71l0-.12c1.14-8.12,2.23-15.79,2.2-23.42-.1-24.56,17.06-35.47,33.15-43.78a21.21,21.21,0,0,1,9.5-2.45,11.84,11.84,0,0,1,9.51,4.15c3.89,4.76,2.3,11.94.48,17.66-.7,2.17-1.19,4.48-1.67,6.7a63.21,63.21,0,0,1-2.53,9.3c-3.19,8.37-7.63,16.56-18.44,19.71s-18,11.42-25.57,20.14c-1.52,1.76-3.09,3.58-4.71,5.38l-4.17,4.63Z"/><path class="cls-6" d="M666.34,968.7a3.24,3.24,0,0,1-2.81-2.14,7.54,7.54,0,0,0-.47-.8c-6.77-10-3.68-19.56-1-28a80.26,80.26,0,0,0,2.52-9c3-15.66,11.21-28.48,26.46-41.58a43.8,43.8,0,0,1,24.6-10.41c.71-.06,1.39-.1,2-.1,4.57,0,7.85,1.57,9.77,4.66,3.09,5,2,13.67-3.06,23.77-8.4,16.83-21,30.62-32.13,42.22A165.15,165.15,0,0,1,677,960.85c-2.62,2.12-5.31,4.29-7.85,6.49A4.54,4.54,0,0,1,666.34,968.7Z"/><path class="cls-6" d="M674.63,841c-.86-2.39-1.63-4.78-2.38-7.08-4.07-12.49-7.59-23.28-20.1-28.09a12.75,12.75,0,0,0-3.64-1,1,1,0,0,0-.4,0c-3.56,1.64-6.32,2.44-8.44,2.44a5.29,5.29,0,0,1-4.29-1.79c-2-2.43-1.31-6.28-.62-10a23.79,23.79,0,0,0,.53-4c0-1.25-.06-2.51-.1-3.76-.39-13.67-.78-27.77,10.54-39,6.06-6,17.49-12,29.38-12,7.36,0,17.53,2.35,24.17,13.53,7.25,12.21,3.84,25.41-.45,36.71-4.77,12.57-9.53,25.14-14.45,38.16l-7.93,21Z"/><path class="cls-6" d="M668.68,374.52a36.51,36.51,0,0,1-9-1.54c-1.34-.34-2.58-.66-3.74-.89-24.56-4.78-45-18.36-64.82-31.49l-.25-.17c-3.17-2.09-6.33-4.19-9.51-6.25a42.89,42.89,0,0,1-5.52-4.56c-1-.94-2.18-2-3.54-3.18l-4.26-3.69,5.63.18c5.56.18,11.12.19,15.89.19H595c23.35,0,42.73.7,62,9.57a62.76,62.76,0,0,1,17.07,11.42c7.41,7,9.5,15.75,5.6,23.49C677.4,372.19,673.69,374.52,668.68,374.52Z"/><path class="cls-6" d="M598,283.93a2.7,2.7,0,0,1-2-.88,4.79,4.79,0,0,1-.82-3.69c3.16-33.37,9.19-67.53,44.36-86.48a46.92,46.92,0,0,1,23-5.9h.74a15,15,0,0,1,2.58-.21c2.56,0,8.71.64,10.56,6.54,2.73,8.69,4.39,17.75-1.89,25.22-19.48,23.14-43.73,41.52-67.17,59.3l-5.89,4.47a6.18,6.18,0,0,1-3.47,1.62Z"/><path class="cls-6" d="M658.32,1196.63c-6.8,0-10.56-4.65-13.58-8.39l-.67-.82a158.46,158.46,0,0,1-26.6-46c-3.84-10.52-6.94-21.46-9.94-32-1.42-5-2.87-10.15-4.39-15.16-4.35-14.45-6.78-29.47-9.13-44-.87-5.34-1.76-10.86-2.75-16.31a6.44,6.44,0,0,1,1.27-5.17,3.87,3.87,0,0,1,3-1.5,3.49,3.49,0,0,1,1.27.24h0a5.26,5.26,0,0,0,1.92-1,7,7,0,0,1,3.81-1.6c1.84,0,3.27,1.27,4.25,3.77,1.75,4.47,3.33,9.09,4.86,13.55,2.73,8,5.53,16.17,9.32,23.61,2.33,4.58,4.64,9.26,6.87,13.79,9.29,18.88,18.87,38.35,32.62,55.07,9.73,11.84,18.21,23.82,15,40.18a34.14,34.14,0,0,0-.7,5c-.52,5.94-1.12,12.66-11,15.82A18.24,18.24,0,0,1,658.32,1196.63Z"/><path class="cls-6" d="M662.13,884c-4.8-14.58-11.27-21.55-21-22.58a21.66,21.66,0,0,0-2.39-.13c-8.7,0-15.71,5.43-20.29,15.71l-.54,1.2-3.47-1,.21-1.3c.57-3.57,1.06-7,1.53-10.31v-.1C618,853,619.47,842.26,624.53,832l.16-.32c3.6-7.29,7.33-14.84,15.11-18.23a23.08,23.08,0,0,1,9.16-2.14c6.44,0,14.82,3.64,18.12,21,1.92,10,1.82,20.11,1.72,29.85,0,3.77-.07,7.67,0,11.51a17.71,17.71,0,0,1-1.57,6.51c-.41,1.1-.88,2.35-1.3,3.73L664.11,890Z"/><path class="cls-6" d="M621.64,956.59c-2.17,0-3.46-2.07-3.95-2.85-1.8-2.91-3.37-4.58-6.45-5.13-2.9-.51-4.71-1.64-5.52-3.45-1.2-2.67.43-5.82,1.75-8,6.78-11,6.1-22.9,5.38-35.53l0-.34c-.07-1.18-.14-2.37-.2-3.55-.5-9.81,4.77-19.9,14.11-27,4.34-3.29,8.58-5,12.6-5,4.4,0,8.29,2,11.56,5.92,6.84,8.22,8.37,18.29,9.85,28l.3,1.93c3,15.1,1,28.48-6.2,40.85-.3.52-.55,1-.78,1.46-1,1.91-2.08,4.07-5.24,4.07a12.69,12.69,0,0,1-3.91-.77,17.63,17.63,0,0,0-5.45-.9c-5.39,0-10.31,2.68-13.84,7.54C624.81,955.09,623.5,956.59,621.64,956.59Z"/><path class="cls-5" d="M587.05,1022.46l.79-.89c2.11-2.35,4.24-4.68,6.37-7l.36-.39c5.47-6,11.13-12.23,16.43-18.58,7.51-9,9.77-20.31,12-31.28,1.33-6.72,6.53-12,12.65-12.79a30.87,30.87,0,0,1,4.25-.29c8.51,0,14.35,3.6,16.46,10.15,3.07,9.54,1.39,18.19-4.86,25-11.51,12.56-22.13,21.1-33.42,26.88a192.73,192.73,0,0,1-19.6,8.27l-.21.08c-2.69,1-5.46,2.07-8.15,3.16l-1.11.44Z"/><path class="cls-3" d="M629.08,750.85c-1.91-2.26-4-4.58-6.25-7-5.21-5.75-11.07-12.22-15.8-19.34-15.92-24-29.71-46.07-42.17-67.57a446.21,446.21,0,0,1-37.1-81.57c-7.58-22.59-12.65-46.28-17.55-69.18l-1.37-6.39c-2.14-10-5.18-19.93-8.12-29.57-2.53-8.27-5.13-16.82-7.18-25.37-6-24.89-18-47-28.86-65.34a95.13,95.13,0,0,0-30-31.56c-1.3-.82-2.8-2-2.91-3.73s1.24-2.91,2.54-4l2.43-2a165.41,165.41,0,0,0,12.7-11.25,5.47,5.47,0,0,1,3.85-2c2,0,3.19,1.48,4,2.46l.4.48c13.53,15.13,28.06,23.93,44.43,26.9a16.46,16.46,0,0,0,3,.28c6.56,0,12.05-3.79,18.55-8.74,2.36-1.8,4.7-3.63,7-5.46l.21-.17c7.84-6.12,16-12.46,24.64-17.58a8.21,8.21,0,0,1,4.22-1.29c3.71,0,6,3.09,8,5.81,1.23,1.67,2.49,3.39,3.86,4.11a3.91,3.91,0,0,1,2.21,2.76c.45,2.25-1.31,4.34-2.59,5.87l-.08.09c-17.31,20.6-23.28,46.35-28.54,69.07-4.93,21.3-4.16,43.38-3.49,62.86.55,16,4.17,31.91,7.68,47.31,1.09,4.82,2.23,9.81,3.26,14.75,3.31,15.94,8.41,31.53,13.34,46.62,1.84,5.64,3.73,11.42,5.5,17.14,4.68,15.12,12.84,29,20.73,42.52,3.1,5.29,6.3,10.76,9.26,16.23,7.54,14,16.25,27.63,24.67,40.85l3.2,5c6.61,10.39,13.63,20.14,19.62,28.31,1.32,1.8,3.13,4.27,2.46,6.8-.61,2.3-3,3.6-4.77,4.38a35.48,35.48,0,0,0-6.83,4.63c-1.57,1.23-3.33,2.61-5.53,4.2l-1.5,1.09Z"/><path class="cls-5" d="M613.16,846l-.53,0a3.65,3.65,0,0,1-2.67-1.29,4.64,4.64,0,0,1-.61-3.74,6.22,6.22,0,0,0,.09-.92c-.35-15-17.58-34.27-33.52-37.59-3.68-.77-4.53-9.65-4.73-13.42-.85-15.13-.64-32.4,12.67-45.77,4.37-4.38,9.95-6.2,19.27-6.3h.15l.14,0c11.54,2.13,20.2,11.51,23.15,25.1,2.16,9.94,2.5,20.25,2.82,30.21.12,3.73.25,7.55.47,11.28.5,8.52-3,14.58-6.46,20.44-2.34,4-4.54,7.78-5.32,12.15a18.61,18.61,0,0,1-.69,2.56c-.18.56-.37,1.13-.49,1.68a5.34,5.34,0,0,0,0,.94,4.68,4.68,0,0,1-1,3.64A3.66,3.66,0,0,1,613.16,846Z"/><path class="cls-5" d="M572,1023.12c-.08-.45-.18-.9-.27-1.35l1.45-.41-1.47.31a21.07,21.07,0,0,1-.58-3.89c-.08-2.94-.07-5.85-.05-9.23,0-1.47,0-3,0-4.65-.57-16.3,3-30.92,10.52-43.42,3.2-5.29,12.24-9.44,20.59-9.44,4.18,0,7.57,1.11,9.8,3.2,8,7.53,5.75,16.73,2.11,25.55-6.59,16-18.7,27.28-30.41,38.21l-.32.29-2.88,2.7a18.22,18.22,0,0,1-3.86,2.56c-.55.3-1.1.6-1.62.92l-2.5,1.55Z"/><path class="cls-5" d="M571.09,962.4c-.59-13.71-3.56-26.93-6.43-39.72-1.94-8.61-3.94-17.51-5.16-26.4-.85-6.17,1.34-12.62,6.17-18.16,5.42-6.21,13.19-10.07,20.28-10.07a17.54,17.54,0,0,1,7,1.42c9.43,4.1,11.64,14,13.59,22.83l.12.54c3.29,14.72,5.54,33.75-6.44,50.49-3.51,4.92-10.16,7.6-16,10l-1.3.52c-2,.8-2.87,2.38-4,4.37a16.53,16.53,0,0,1-4.66,5.75l-3,2.18Z"/><path class="cls-6" d="M584.85,1194.81a15.7,15.7,0,0,1-2.56-.21c-12.78-2.06-15.41-14.66-17.15-23-2.7-12.88-2.82-26.33-.38-41.1a64.53,64.53,0,0,0,.29-13.21c-.23-5-.46-10.22.56-15.2,1.62-7.86,2.55-16,3.45-23.92,1.53-13.42,3.11-27.27,8.07-40.39a6,6,0,0,1,1.62-2.17c.18-.17.36-.34.51-.51l1.31-1.51,1.51,1.31c.17.14.36.28.55.41a5.31,5.31,0,0,1,2,2.19c5,12,7.75,24.46,9.78,35.06,2.3,11.92,5.15,24,7.9,35.59l.06.25c1.2,5.06,2.4,10.13,3.56,15.2l0,.1v.1c1.39,15.45,1.15,31.15,1,45C606.75,1182.42,596.22,1194.81,584.85,1194.81Z"/><path class="cls-5" d="M552.11,888a42.68,42.68,0,0,0-3.6-2.73c-3.42-2.41-6.64-4.69-6.75-7.83-.7-20.42,3.67-38.9,13-54.93,3.26-5.59,10.19-15,20-15a15.39,15.39,0,0,1,2.25.17c10.29,1.54,18.11,8.93,23.88,22.59a74.75,74.75,0,0,1,5.62,39.13l-.57,4.65-3-3.62A20.66,20.66,0,0,0,586.58,863c-11.25,0-21.85,7.47-27.65,19.5a17.66,17.66,0,0,1-2.69,3.78c-.41.49-.82,1-1.2,1.46l-1.32,1.73Z"/><path class="cls-5" d="M522,337.64c1.34-5,2.49-10.17,3.61-15.19,2.54-11.43,5.16-23.26,10.23-33.82,1.28-2.69,2.52-5.53,3.72-8.28C546.7,264,554.08,247,576.43,244a24.67,24.67,0,0,1,3.45-.26c4.12,0,7.28,1.39,9.41,4.15,4.78,6.17,5.48,13.29,2.09,21.14-9.8,22.69-26.61,41.93-52.9,60.53a59.33,59.33,0,0,0-4.93,4.06c-2.67,2.37-5.44,4.82-8.77,6.35l-3.88,1.77Z"/><path class="cls-5" d="M488.46,1177.43l0-.2a18.85,18.85,0,0,1-13.95-8.32c-4.14-6.34-4.56-15.4-1.12-24.21,7-17.86,15.59-32,26.31-43.36,11.86-12.52,24.7-24.45,37.11-36l3.93-3.65c5.48-5.11,11.34-10,17-14.62q3.43-2.82,6.81-5.65a12.06,12.06,0,0,1,2.25-1.39l.81-.43,3-1.74-.06,3.51c0,.3,0,.6,0,.9a7.84,7.84,0,0,1-.23,3c-3,8.71-4.14,18-5.29,26.93-.65,5-1.31,10.18-2.26,15.21-3.27,17.17-8.56,31.77-16.18,44.65-13.69,23.11-31.52,37.8-54.49,44.91a9.31,9.31,0,0,1-1.94.4Z"/><path class="cls-6" d="M527.27,281.43v-1.18c0-10.2-1.17-20-2.29-29.53-1.5-12.71-2.91-24.69-1.73-37.07,1.37-14.26,2.78-29,15.18-40.48,4.78-4.43,10.46-7,15.59-7a12.34,12.34,0,0,1,7.41,2.27c8,5.76,9.17,17.67,6.89,26.31-7,26.68-19.52,51.53-31.62,75.57-1,1.94-2,3.86-3.25,6.24l-.1.2c-.69,1.3-1.44,2.74-2.31,4.39l-.54,1.05Z"/><path class="cls-6" d="M562.17,1028.62c-.59-.29-1.28-.56-1.95-.82a13.13,13.13,0,0,1-4.82-2.75c-18-18.66-31.29-37.28-40.57-56.94-10.12-21.47-11.14-42.41-3-62.24.23-.57.47-1.15.7-1.75,3.26-8.14,7.71-19.28,21.11-19.28l1.29,0c13,.68,16.63,11.8,19.27,19.92l.11.35c5.81,17.84,11.81,36.29,10.92,55.81a153,153,0,0,0,.9,20.53c1,11.29,2,22.93-1.07,34.56a5.92,5.92,0,0,0,.65,2.09,10.79,10.79,0,0,1,1,3.61,9.69,9.69,0,0,1-1.17,4.37c-.2.46-.41.93-.57,1.39l-.76,2.12Z"/><path class="cls-6" d="M536.1,848.74c-.44-.59-1-1.2-1.44-1.79a17.57,17.57,0,0,1-3.24-4.86c-6.37-16.13-15.85-24.45-30.76-27-3.21-.55-5.26-1.78-6.27-3.78-1.69-3.34.3-7.3,2.05-10.79a22.36,22.36,0,0,0,1.5-3.38c3.31-12.38,8.23-26.49,19.64-37.3,5.21-4.93,9.82-7,15.44-7,.49,0,1,0,1.52.06,11.73,1.35,19.85,8.35,24.18,20.82,1.64,4.73,2.94,9.62,4.19,14.35,1,3.88,2.09,7.87,3.32,11.7,1.29,4-1.22,5.66-2.57,6.53-.28.18-.55.35-.79.54-11.82,9.43-17.34,23.24-22,36.57-.35,1-.61,2.09-.87,3.15l0,.14c-.11.47-.23.93-.35,1.39l-1.06,4.07Z"/><path class="cls-5" d="M432.51,1123.09c-12.25,0-27.89-9-30.48-21-1.33-6.23,3.36-11.2,7.14-15.2.95-1,1.84-2,2.59-2.86,10.5-12.67,25.82-17.76,40.63-22.68l.63-.21c4.81-1.59,9.67-3.31,14.38-5l.11,0c8.17-2.88,16.62-5.86,25.14-8.34s17.23-4.35,25.7-6.19l.12,0c3.64-.79,7.4-1.61,11.08-2.46,2-.46,4-.83,6-1.19,4.4-.8,8.92-1.62,12.74-3.43a7.72,7.72,0,0,1,3.31-.77,10.49,10.49,0,0,1,3.86.89,7.2,7.2,0,0,0,2.47.63,3.43,3.43,0,0,0,1-.15l7-2.08-4.92,5.35a160.67,160.67,0,0,1-15.68,14.44c-3.28,2.75-6.34,5.32-9.3,8.1-17.33,16.25-36.09,30.57-53.83,43.84-13.09,9.78-28.75,15.89-46.54,18.15A24,24,0,0,1,432.51,1123.09Z"/><path class="cls-3" d="M484.43,1355c-13.41,0-25.45-4-36.81-12.34-8.35-6.09-16.21-29.12-15.76-41.23,1.21-32.18,22.21-52.23,40.74-69.92,6.38-6.1,13.07-12.07,19.54-17.85l5-4.49a17.6,17.6,0,0,1,3.17-2.13c.46-.27.88-.5,1.27-.75l3.51-2.21-.45,4.12c-.06.55-.1,1.11-.14,1.66a20.54,20.54,0,0,1-.61,4.39c-4.8,17.19-4.06,33.48,2.28,49.8l1,2.67-2.86,0c-16.3.3-33.15.6-48.34,9.25-1.17.66-1.47,1.4-1.07,2.88a6.33,6.33,0,0,0,1.55.22,3.33,3.33,0,0,0,.45,0c6-4.08,12.64-4.65,19-5.21a71,71,0,0,0,9.06-1.19,100.32,100.32,0,0,1,10.89-1.57c2.11-.24,4.37-.49,6.94-.81l7.19-.93-5.71,4.48c-12.78,10-21.88,21.47-30.68,32.52-2.66,3.35-5.39,6.77-8.15,10.07-.47.57-.95,1.13-1.44,1.7l-.07.08c-3.08,3.59-6.26,7.3-7.25,12-.07.34-.17.7-.27,1s-.16.59-.2.78h.13a3.22,3.22,0,0,0,1.81-.55c5.91-7,11.8-14.15,17.49-21.09l.51-.63c2.45-3,4.89-6,7.34-8.91a19,19,0,0,1,2.22-2.18c.38-.34.69-.61,1-.9l2.71-2.58.64,3.69c.07.39.14.78.22,1.16.16.84.33,1.7.43,2.6a75,75,0,0,1,.1,11c-.25,5.79-.5,11.79,1.73,17.37.15.39.29.8.42,1.2.07.24.22.69.35,1a4.38,4.38,0,0,0,1.48-2.23c0-6.51-.18-13.15-.34-19.57v-.32c-.14-5.46-.28-11.11-.33-16.67-.07-9.39,7.11-13.81,12.87-17.35l2-1.24a3.57,3.57,0,0,1,1.93-.58c3,0,4.92,3.66,6.75,7.2.35.69.66,1.28,1,1.8,2.57,4.52,7,7.17,11.33,9.73a54.73,54.73,0,0,1,7.81,5.29,5.58,5.58,0,0,0,.61.45,5.39,5.39,0,0,1,2.51,3.27c6.53,22.84-1.67,37.43-25.81,45.94C503.77,1353,493.71,1355,484.43,1355Z"/><path class="cls-5" d="M551.12,1030.24a150.05,150.05,0,0,1-48.93-20.89c-16.14-10.46-32.17-22.94-40-43.29-3.62-9.35-6.51-18.51-2.06-27.71,3.07-6.35,7.17-9.43,12.53-9.43,3.57,0,7.11,1.31,10.86,2.69a61.32,61.32,0,0,0,6,2c11.86,3,13.31,11.79,14.58,19.51a35.17,35.17,0,0,0,2.15,8.63c7.1,15.65,14.34,28,22.78,38.91,1.06,1.37,2.09,2.75,3.14,4.13,5.46,7.26,11.1,14.76,20.64,21.9l1,.73-1.45,3.1Z"/><path class="cls-5" d="M497.85,930.42a3.65,3.65,0,0,1-.55,0c-4.85-.7-11.07-3.64-13.6-7.93-7.84-13.24-10.66-28-12.23-39.37l0-.2,0-.28c.6-4.22.94-8.51,1.26-12.67,1.08-14,2.2-28.41,13.09-39.74,4.88-5.08,10.69-7.76,16.79-7.76,9.21,0,17.58,6.06,22.39,16.2,3.63,7.68,5.65,15.7,7.6,23.45.69,2.76,1.39,5.54,2.15,8.24.6,2.17.49,3.89-.35,5.24-1.24,2-3.58,2.43-5.46,2.79a8.69,8.69,0,0,0-2.34.64c-16.82,9.83-22.42,26.86-25.67,42.22a12.23,12.23,0,0,0,0,2.88c.17,2.1.33,4.08-.86,5.37A3,3,0,0,1,497.85,930.42Z"/><path class="cls-6" d="M509.62,348.22c-2.27-5.24-4.5-10.33-6.68-15.33l-.33-.76c-5.18-11.86-10.07-23.05-14.82-34.4-7.71-18.41-9.29-38-4.69-58.06,1.91-8.32,6.61-15.58,12.25-19a12.67,12.67,0,0,1,6.45-2c5.4,0,9.58,4.33,12.77,13.25,9.39,26.25,11,53.77,4.76,81.79a80.14,80.14,0,0,0-1.39,11.62c-.52,7.25-1.06,14.75-4.66,22.86l-1.85,4.16Z"/><path class="cls-6" d="M399.9,1073.7a57.9,57.9,0,0,1-8.63-.65c-11.73-1.78-20.4-6-27.29-13.16-5.33-5.57-2.47-10.68-.16-14.78,1.11-2,2.25-4,2.37-5.91.1-1.52,1.12-4.07,6.85-4.07a34.05,34.05,0,0,1,8.72,1.33c6.75,1.93,14.27,2.83,23.67,2.83,5.09,0,10.41-.26,14.68-.47,14.87-.73,29.72-3.7,44.09-6.57,11.18-2.23,22.69-4.53,34.19-5.8a61.72,61.72,0,0,0,6.67-1.24,49.33,49.33,0,0,1,10.57-1.55,17.55,17.55,0,0,1,12.39,4.68l2,1.87-2.41,1.36c-13.87,7.75-29.19,11.92-44,16-8.56,2.33-17.4,4.74-25.85,7.81-5.22,1.9-10.51,4.23-15.62,6.48-13.25,5.84-26.95,11.88-42.26,11.88Z"/><path class="cls-3" d="M505.44,532.89c-14.91-16.68-33.27-26.61-49.31-34.62-3.88-1.94-8.31-3-12.59-4-7.22-1.74-14.68-3.54-20.18-9.49-7.87-8.53-15-17.92-21.92-27q-2.93-3.86-5.87-7.69l-.39-.51c-.61-.81-1.75-2.3-2.28-2.3l-.13,0c-.47.15-.57.36-.6.44a4,4,0,0,0,.34,2.71c3.11,7.9,8.52,14.23,14.25,20.93,2.83,3.31,5.75,6.73,8.47,10.44l3,4.07-5-.92c-3.06-.57-6.09-1.08-8.77-1.53-6-1-11.75-2-17.4-3.41-11.64-3-21.77-9.1-31.57-15-6.89-4.17-14-8.48-21.49-11.56-5.62-2.32-11.85-3.64-17.87-4.92-1.89-.4-3.77-.8-5.64-1.23l-.33.29c.37.53,1,1.38,1.3,1.48,18.3,6.23,32.61,12.71,45,20.38a5.29,5.29,0,0,1,1.53,1.59c.12.16.21.3.32.43l1.4,1.68-1.8,1.25a1.77,1.77,0,0,0-.23.19,3.31,3.31,0,0,1-2.2,1.05h-.35c-6-.9-11.93-1.84-17.89-2.78l-.4-.06c-11.87-1.88-24-3.8-36.05-5.36-4-.52-8.17-.78-12.18-1-7.51-.47-15.26-1-22.89-3.18-10.87-3.16-22.05-5.89-32.86-8.53-4.8-1.17-9.6-2.34-14.38-3.55l-1.51-.38v-1.56c0-.91,0-1.84,0-2.75l0-1.73,1.71-.27q6.65-1,13.31-2l.47-.07c10.84-1.64,22-3.32,32.87-5.33,4.45-.82,8.95-2.06,13.3-3.26A146.3,146.3,0,0,1,294.4,430a156.11,156.11,0,0,1,57.06,1.58c1.68.36,3.33.75,5,1.13,5.46,1.28,10.62,2.49,16,2.49a33.48,33.48,0,0,0,14.09-3.12,23.75,23.75,0,0,1,9.83-2.2c12.66,0,23.12,10.63,31.53,19.17,3.76,3.82,6.49,8.6,9.12,13.21,1.17,2.05,2.36,4.12,3.59,6.05,3.6,5.6,9.1,6.7,15.47,8,4.74.94,9.64,1.91,13.82,5,17.18,12.66,31.93,24.77,38.47,44.83a12.38,12.38,0,0,1,.46,3.35c0,.58.06,1.21.12,1.93l.55,6Z"/><path class="cls-5" d="M501.67,350.71c-.25,0-.5,0-.76,0a7.23,7.23,0,0,1-2.58-.43c-25.78-10.52-44.76-28.2-56.4-52.53a32.44,32.44,0,0,1-2.21-7.35c-.26-1.17-.53-2.38-.85-3.58l-.15-.56.17-.56c.18-.55.34-1.1.51-1.66,1.28-4.29,2.84-9.54,8.33-12a8.29,8.29,0,0,1,3.38-.77c3.27,0,5.59,2.16,7.64,4.06.55.51,1.11,1,1.65,1.47,22.08,18,32.93,43.07,43,69.29a7.38,7.38,0,0,1,.38,1.75,4.72,4.72,0,0,0,.08.56l.47,2.63Z"/><path class="cls-3" d="M506.84,550.44a111.8,111.8,0,0,0-15.45-12c-7.45-4.87-15.68-7-26.7-7-5.07,0-10.32.45-15.4.89-2.92.25-5.94.51-8.9.69h-.11c-4.1.24-8.29.49-12.42.49-9.29,0-21.19-1.12-30.8-9.87-1.76-1.61-3.29-2.39-4.66-2.39-1.73,0-3.29,1.22-5.11,2.63s-4.17,3.25-7,3.42a79.5,79.5,0,0,0-10.82,1.64,68.78,68.78,0,0,1-13.33,1.76c-.67,0-1.34,0-2-.06-34.54-2.23-65.34-16.32-88.31-28.35-27.62-14.47-43.56-28-55-46.59l-3.3-5.37,5.79,2.48c28,12,57.17,16.06,88.08,20.34,9.24,1.28,18.74,2.6,28.3,4.15l1.26.2V481l-1.26.2c-4.63.75-9,1.48-13.21,2.17l-.89.14c-12.19,2-22.72,3.74-33.38,5.27-3.79.55-3.69,1.78-3.64,2.37a1.64,1.64,0,0,0,0,.18,1.59,1.59,0,0,0,.41,0,11.11,11.11,0,0,0,1.71-.2l1-.15c19.29-2.33,41.15-5,62.05-11.07a25.63,25.63,0,0,1,7.29-1c5.56,0,11.47,1.38,17.2,2.72,3.24.76,6.59,1.55,9.76,2,7.31,1.14,14.67,2.54,21.79,3.9l.12,0c2.51.48,5,1,7.52,1.42a24,24,0,0,1,2.9.81c.44.14.79.26,1.15.36l3.95,1.18-3.37,2.37c-.31.22-.67.55-1,.87-1.1,1-2.33,2.1-4,2.1h-.39c-12.79,0-24.54,4.87-35.89,9.58-5.77,2.39-11.7,4.85-17.75,6.68a5.13,5.13,0,0,0-1.8,3.11v0h0a9.24,9.24,0,0,0,2.31-.54c4.71-1.48,9.46-3.07,14.07-4.61,14.41-4.81,29.32-9.79,44.77-12.43a81,81,0,0,1,13.66-1.19c13.47,0,26.69,3.6,40.43,11,20.25,10.9,34,23.47,43.39,39.56l.65,1.12-2.8,2.23Z"/><path class="cls-5" d="M464.75,857.71c-9.28-12.92-21.3-26.64-40.12-30.5a8.38,8.38,0,0,1-5.68-3.47c-1.73-2.72-1-5.91-.56-7.62l.09-.37c6.16-27.22,18.8-44.21,39.75-53.46a13.67,13.67,0,0,1,5.54-1.15c8.93,0,17.69,8.18,19.14,17.85l1.3,8.67c1.45,9.63,3,19.59,4.36,29.39a4.31,4.31,0,0,1-1.82,3.7c-11.07,8.12-14.38,20.77-17.58,33-.29,1.1-.57,2.2-.87,3.3l-1.09,4.08Z"/><path class="cls-5" d="M475.23,283.91c-5.62-7.12-13.11-11.82-20.36-16.37-1.8-1.12-3.66-2.29-5.49-3.49-5.46-3.59-9.06-12-9.78-18.38-.21-1.91-.57-3.85-1-5.9-1.5-8.11-3.2-17.3,4.82-25.09,3-2.94,6.24-4.43,9.55-4.43,3.94,0,7.75,2.12,11,6.11,11,13.37,15,29.52,12.42,49.36-.57,4.33-1,10.7,2.07,15.95l.7,1.21L476.09,285Z"/><path class="cls-6" d="M408.85,1034.47A68.42,68.42,0,0,1,401,1034c-16.23-1.9-32.13-5.75-46.15-9.15-12.28-3-26.49-17.6-25.6-30.45.43-6.12,4.24-10.23,9.47-10.23a12.31,12.31,0,0,1,4.93,1.11c18.52,8.09,38.4,12.27,57.18,15.87a138,138,0,0,0,26,2.21c8.7,0,17.56-.57,26.13-1.12,5.46-.35,11.11-.71,16.71-.93l1,0c11.18,0,23.31,7,31.53,12.95l3.3,2.37-21.79,6.54-24.34,7.3a46.26,46.26,0,0,1-12.72,1.78c-.63,0-1.23,0-1.82,0-1.06,0-2.16-.08-3.27-.08a149.66,149.66,0,0,0-16,1.15A155.5,155.5,0,0,1,408.85,1034.47Z"/><path class="cls-5" d="M454.41,928.77c-3.93,0-6.43-3.15-8.44-5.69a14.62,14.62,0,0,0-2.5-2.72,128.7,128.7,0,0,0-14.61-8c-2.65-1.3-5.34-2.62-8-4-8.24-4.43-10.83-13.65-13.12-21.79l-.52-1.87c-4.5-15.72-3.12-30.12,4.1-42.78,3.35-5.87,8-9.11,13-9.11a13.63,13.63,0,0,1,5.43,1.19,71.4,71.4,0,0,1,35.88,33.28c2.38,4.7,2.35,10.39,2.32,15.89a70.17,70.17,0,0,0,.26,8.14c.95,8.46,4.41,16.22,8.4,25.19l.09.2q1,2.25,2,4.59l.5,1.13-2.84,2-.89-.86c-1.92-1.88-3.86-2.83-5.76-2.83-3.19,0-5.94,2.6-7.58,4.16l-.13.11c-2.72,2.59-5.24,3.84-7.7,3.84Z"/><path class="cls-6" d="M426.57,1000.21a73.72,73.72,0,0,1-8.4-.45,209.36,209.36,0,0,1-22.57-4.3c-8-1.83-16.18-3.71-24.41-4.44-22.51-2-50.14-27.92-50.11-47,0-.5,0-1-.07-1.58-.18-2.71-.51-7.71,5-8.54a35.93,35.93,0,0,0,5.85-1.63c3-1,6-2,9.06-2a10.33,10.33,0,0,1,7.73,3.27c23.1,24.18,52.67,33.78,83.47,42.25,6.92,1.9,13.07,6.34,19,10.63,2.69,1.94,5.47,3.95,8.26,5.66.78.48,1.7.92,3.21,1.66,1.05.5,2.28,1.1,3.88,1.9l1.13.56-1,3.36-1.25-.14a86.71,86.71,0,0,0-10.16-.56c-5.11,0-10,.37-14.79.73S431.18,1000.21,426.57,1000.21Z"/><path class="cls-5" d="M464.06,988.69c-13.78-5.73-25-15.31-35.85-24.58l-1.49-1.28c-12.92-11-20.48-23.24-23.11-37.33a10.34,10.34,0,0,1,2.11-8.62,10.24,10.24,0,0,1,9.91-3.45c14.82,3,26.44,12.15,35.85,20.74,2.13,1.94,1.57,5.58,1,9.42A34.76,34.76,0,0,0,452,948c-.21,14.71,6.85,26.82,14.51,37.71l4,5.65Z"/><path class="cls-6" d="M438,311.49c-5-5.45-10.35-10.34-15.57-15.07-10.26-9.3-19.94-18.08-26.18-30.44-5.86-11.56-10.51-24.17-5-38,1.9-4.74,6.33-9.83,11.58-9.83h.22c10.65.35,19.65,5.75,25.38,15.21a87.68,87.68,0,0,1,5,10c2.06,4.64,4.19,9.43,7.28,13.15,6.5,7.81,2,12.61-1.05,15.78a16,16,0,0,0-2.93,3.74c-4.66,10-1,19.27,3.31,30.06.46,1.14.88,2.21,1.3,3.29l.45,1.17-2.95,1.83Z"/><path class="cls-6" d="M434.85,323.56q-12.08-1.57-24.15-3.12c-22-2.76-42.11-11.81-61.55-20.56l-2.65-1.2c-18-8.11-31.12-20.71-38.88-37.46-3-6.54-4.23-15.85,2.39-20.54a23.54,23.54,0,0,1,14.1-4.31c5.86,0,11.76,1.67,17.3,3.37,14.68,4.51,27.6,12.73,40.1,20.68l.31.2,4.89,3.1c5.1,3.21,8.76,8.42,12.31,13.47a72.19,72.19,0,0,0,7.42,9.41,346.6,346.6,0,0,0,30.07,26.64,20.7,20.7,0,0,1,3.14,3.33c1.57,1.93,3.05,3.76,5.42,4.3l1.39.32-.68,3.8Z"/><path class="cls-3" d="M196.73,1280.34c-10.5,0-19.82-4.42-29.33-13.94s-14.51-20.91-14.25-32.82c0-2.36-.05-3.75-.3-4.13h0s-.14,0-.33,0a16.63,16.63,0,0,0-4.32,1,45.31,45.31,0,0,1-13.42,2,48,48,0,0,1-43.58-26.66c-9.3-18.31-9-34.77.83-49,5.16-7.43,14.89-12,20.23-14.09,9.92-3.87,7.81-9.34,4.91-16.92-.19-.48-.37-1-.55-1.44-6.28-16.7,2-45.13,16.48-56.32a45.2,45.2,0,0,1,28.71-9.72c8.8,0,17.59,2.07,25,4.08l1.64.45a55.86,55.86,0,0,0,9.62,2.07h.27a11.4,11.4,0,0,0,3.61-1l.32-.12c-.39-1.15-.79-2.31-1.17-3.46-4-11.93-3-24.18,2.92-38.54,3.85-9.25,10.13-19.88,24.68-19.88,9.79,0,19.94.89,27.89,7.24,2.1,1.67,3.45,2,4.21,2,.95,0,2.4-.5,4.12-4.85,5.05-12.76,14-18.44,29-18.44h.71a45,45,0,0,1,10.9,1.84A51.57,51.57,0,0,0,313,991.3c8.35.86,11.12,8.18,13.35,14.06l.33.86c6,15.73,19.84,21.47,32.57,25,2.16.61,5.1,1.7,5.7,4.23s-1.77,4.8-3.51,6.37a14.17,14.17,0,0,0-1.28,1.24c-3.06,7.92-3.23,14.54-.5,19.68s8.17,8.56,16.27,10.38c4.39,1,8.7,2.08,13.27,3.25l7.14,1.8,6.12,1.52-5.87,2.28c-3.72,1.45-7.36,2.83-10.94,4.18-8.1,3.07-15.75,6-23.28,9.26a12.13,12.13,0,0,1-4.89,1.12c-4.16,0-7-2.59-9.52-4.88-1.85-1.68-3.45-3.14-5.39-3.66-12.68-3.4-15.76-13.71-18.47-22.79-1.21-4-2.45-8.22-4.46-11.64-5.05-8.57-9.65-17.52-14.11-26.19-2.77-5.39-5.63-11-8.56-16.35-.1-.19-.22-.47-.35-.79a8.29,8.29,0,0,0-.49-1,2.33,2.33,0,0,0-.32.22c-1,.72-1.86,1.74-.46,4.7q7.13,15.06,14.34,30.06l.34.72q5.88,12.28,11.75,24.6a6.51,6.51,0,0,1,.48,2.88c0,.28,0,.56,0,.83l.29,3-2.86-.85c-1.07-.33-2.22-.6-3.33-.86a28.55,28.55,0,0,1-7.63-2.59c-20.87-11.88-43.77-20.13-65.91-28.12l-.75-.27-10-3.61a2.64,2.64,0,0,0-.93-.18,2.45,2.45,0,0,0-2,1.12l.25.08a8.84,8.84,0,0,1,1.66.63c9,4.77,18.72,8.56,28.11,12.22,12.32,4.81,25,9.78,36.83,17.12l3.73,2.33-4.21,1.28a196.31,196.31,0,0,1-57.38,8.71c-2.91,0-5.87-.07-8.8-.2-.35,0-.74-.07-1.14-.12s-.77-.1-1.08-.1H227a3.09,3.09,0,0,0-.09.82c0,1.29,0,1.29,2.39,1.54a205.78,205.78,0,0,0,22.42,1.32c19.34,0,36-3.48,51-10.63a6.47,6.47,0,0,1,2.78-.56,18.56,18.56,0,0,1,7.62,2.2c10,5.24,19.69,10.79,30.44,17a8.45,8.45,0,0,1,2.72,2.94c.24.36.51.78.77,1.1l1.37,1.7-1.82,1.21c-.42.29-.88.66-1.33,1a8.86,8.86,0,0,1-4.3,2.35c-7.84,1-15.11,4.41-22.14,7.67-5.76,2.66-11.71,5.42-18,7-4.64,1.13-9.34,3.37-13.88,5.52-6.81,3.24-13.85,6.58-21.23,6.58a22.87,22.87,0,0,1-7.62-1.27c-13.15-4.54-26.69-8.6-39.79-12.53-5.66-1.69-12.07-3.62-18.19-5.51-10.12-3.13-21.38-5.33-35.43-6.91a15.63,15.63,0,0,1-4.57-1.5,11.41,11.41,0,0,0-4.09-1.27,3.94,3.94,0,0,0-2.92,1.5,3.34,3.34,0,0,1-1.81,1,2.81,2.81,0,0,0,1.15.7c4.57,1,9.24,1.89,13.75,2.77l.13,0c7.39,1.43,15,2.92,22.47,4.78,8.07,2,16.13,4.47,23.93,6.86l.13,0c4.16,1.28,8.46,2.59,12.71,3.82,5.77,1.67,11.64,3.28,17.84,5l.78.22,9,2.49,6,1.67-31.3,11.42c-28.45,10.38-55.33,20.18-82.64,30.21a30.29,30.29,0,0,0-7,3.9,5.5,5.5,0,0,0-1.24,1.41,6.26,6.26,0,0,0,1.78.71c9.84-3.3,19.81-6.81,29.45-10.2l.42-.15c6-2.09,11.93-4.19,17.91-6.25,2.53-.87,5.1-1.5,8.08-2.24,1.42-.35,2.94-.72,4.6-1.15l5.71-1.5-7.48,9.61c-9.79,12.6-19.06,24.52-28.34,36.43a8.44,8.44,0,0,1-2.11,1.75c-.3.2-.74.49-1,.71a4.19,4.19,0,0,0,.55.59,3.17,3.17,0,0,0,2.24.93,5.4,5.4,0,0,0,3.8-1.93c3.23-3.81,6.63-7.55,9.93-11.18,8.92-9.82,18.15-20,24.16-31.43s15.48-13.57,23.89-15.53c3.95-.93,8-1.88,11.58-3.73a10.09,10.09,0,0,1,4.48-1.45,3.31,3.31,0,0,1,2.89,1.49c1.39,2.15.49,6.07-3.3,14.45-11.81,26.14-27,50.89-40.28,71.67a4.48,4.48,0,0,1-.93,1c-.23,2.23-1.78,4.3-3.17,6.14a13.93,13.93,0,0,0-1.85,2.86,2.7,2.7,0,0,0,.68.32,3.27,3.27,0,0,0,1.07.19c2.67,0,5.14-4.46,7.12-8,.8-1.44,1.55-2.78,2.33-4,12.89-19.34,22.86-35.41,31.4-50.58,3-5.32,5.51-11.11,8-16.7,3.3-7.58,6.7-15.41,11.38-22.34,2.87-4.24,8.89-5.89,14.72-7.49,2.28-.62,4.62-1.26,6.64-2,21.88-8.36,44-16.73,70.39-26.73a21.38,21.38,0,0,1,3.34-.87q.74-.13,1.41-.3l2.45-.58,0,2.51c0,.36,0,.72.07,1.09a8.15,8.15,0,0,1-.23,3.58c-1,2.7-1.91,5.56-2.75,8.09-2.43,7.31-4.93,14.85-8.56,21.76-2.71,5.16-8.17,6.13-13,7a28.91,28.91,0,0,0-6.88,1.8c-13.58,6.25-25.11,15.85-36.26,25.14q-3.48,2.9-6.95,5.74a5.42,5.42,0,0,0-.76,2,8.33,8.33,0,0,0,2.65-1.26c5.37-3.27,10.46-7.07,15.37-10.74,8.68-6.49,17.65-13.19,28.3-17.23a24.74,24.74,0,0,1,3.06-.89c2.38-.6,4.27-1.07,5.59-2.89l.78-1.07,3.19,1.77-.5,1.23a352.37,352.37,0,0,1-26.35,51.84c-.31.5-.71,1-1.12,1.55-.6.78-1.71,2.22-1.63,2.81a.89.89,0,0,0,.34.38,2.37,2.37,0,0,0,1.34.57c1.43,0,3.09-2.57,4-4a401.38,401.38,0,0,0,31.2-57.62,67.37,67.37,0,0,0,2.36-6.72c1.72-5.5,3.5-11.18,8.26-15.48l1.88-1.71,1.22,2.23c2.52,4.64,5.38,9.2,8.14,13.61,5.16,8.22,10.48,16.71,14,26.18a2.57,2.57,0,0,0,2.1,1.5,1.31,1.31,0,0,0,.83-.29,7.79,7.79,0,0,0,0-3.78c-2.79-11.78-9.81-21.67-16.59-31.23-2.17-3.06-4.4-6.2-6.47-9.38a15.15,15.15,0,0,1-1.91-13.82c2.2-6.18,8.43-11.3,17.08-14a84.31,84.31,0,0,0,13.05-5.84c2.08-1.08,4.21-2.18,6.41-3.22l1.1-.52,2.07,2.71-.79.92c-6,7-7.61,13.7-4.78,20.41,4.49,10.64,12.74,16.58,23.85,17.2l.6,0c4.12.22,6.61.35,7.68,2.45s-.08,4.36-2.77,8.53c-3.12,4.84-4.86,10.34-6.69,16.17s-3.79,12-7.31,17.67c-8.53,13.67-26.57,24-41.95,24a34.12,34.12,0,0,1-3.82-.21,11.1,11.1,0,0,0-1.27-.08c-5.87,0-8.7,5.55-8.91,11.06-.64,17.1-16,21-21,22.23a81.09,81.09,0,0,1-19.74,2.6c-15.54,0-29.38-5.44-41.14-16.16a22.35,22.35,0,0,1-3.19-4.21c-.89-1.4-2.55-4-3.38-4a1.55,1.55,0,0,0-.79.45c-5.17,4.62-9.33,12.34-10.6,19.66-3.22,18.58-30.22,46.21-47.28,52.5A44.55,44.55,0,0,1,196.73,1280.34Z"/><path class="cls-6" d="M348.68,371.72A34.13,34.13,0,0,1,325,362.6a16.17,16.17,0,0,1-5.32-13.52c.48-6.8,4.71-13.64,11-17.83,13.53-9,29.07-12.41,42.77-15.4a12.05,12.05,0,0,1,2.66-.28c3.68,0,7.52,1.47,11.23,2.89a46.79,46.79,0,0,0,7.85,2.5c9.83,1.81,19.63,3.3,30,4.87,4.49.69,9.07,1.38,13.77,2.12l4.83.77-4,2.84c-22.94,16.42-43.38,27.32-64.32,34.3C367.24,368.61,357.89,371.72,348.68,371.72Z"/><path class="cls-5" d="M416.88,966.94c-13.8-4.16-31.6-10.38-46.86-21.65-32.08-23.66-40.92-42.45-45.33-57.7-2.53-8.75-5.4-18.66-3.69-29.39,1.09-6.85,6.36-9.65,10.6-10.8a8.9,8.9,0,0,1,2.34-.31c5.25,0,9.27,4.63,10.75,6.62,4,5.36,8.11,10.78,12.09,16l.18.24c13.8,18.13,28.06,36.89,39.75,56.8,2.27,3.85,4.31,7.88,6.29,11.77,4.36,8.57,8.86,17.42,15.93,25.14l4.93,5.37Z"/><path class="cls-6" d="M397.22,915.86c-3.06,0-6-3.46-9.17-10.88-2.76-6.39-7.18-11.81-11.46-17.06a95.26,95.26,0,0,1-9.88-13.69c-11.64-20.9-13.09-38-4.69-55.57,1.06-2.23,1.94-4.62,2.79-6.93,2.28-6.2,4.64-12.62,10.8-17.14a9.68,9.68,0,0,1,3.25-1.41c.37-.11.72-.21,1.05-.33l.53-.19.55.11c12.39,2.5,16.92,12.29,20.91,20.93l.83,1.8c5.36,11.43,5.35,22.88,0,37.11-5,13.19-3.93,26.65,3,36.91,3.39,5,4.61,9.78,3.62,14.1-1,4.48-4.4,8.41-10,11.68A4,4,0,0,1,397.22,915.86Z"/><path class="cls-3" d="M303.14,923.41c-12.23,0-26.55-1.11-40-9.34A53.54,53.54,0,0,1,253,906.36c-2.48-2.53-5.07-3.75-7.92-3.75-2.55,0-5.38.93-8.89,2.94a42.47,42.47,0,0,1-21,5.29c-15.34,0-30.37-7.32-38.3-18.65-3.86-5.52-4.94-12.76-3.06-20.39a39.16,39.16,0,0,1,19.67-24.55,155.41,155.41,0,0,0,14.72-8.75,29.06,29.06,0,0,0,4.29-3.78l-.25-.1A16.13,16.13,0,0,0,206.7,833h-.29c-6.6.38-13.31,1-19.8,1.63-10.06,1-20.46,2-30.76,2h-.4a54.81,54.81,0,0,1-40.7-18.53,46.8,46.8,0,0,1-11.38-37.53,17,17,0,0,0,0-2.87c-.1-2.62-.25-6.08,2.24-8.7-.54-.59-1.06-1.19-1.57-1.78-2-2.36-4.11-4.76-6.48-5.81-7.12-3.16-10-9.38-11.75-14.45-7.66-22.46-4.54-39.91,9.56-53.38a36,36,0,0,1,25.41-9.79A47.7,47.7,0,0,1,134.55,686c5,1.5,8.7,2.18,11.87,2.18,5.44,0,10.05-2.14,15-6.93,6.55-6.4,15.64-9.78,26.27-9.78,19,0,40.52,11.26,49,25.63,1.57,2.68,3,5.47,4.32,8.17,1.23,2.47,2.51,5,3.9,7.43a5.17,5.17,0,0,0,1.66,1.4l.36-.69a19.5,19.5,0,0,0,2.15-5.31c2.33-13.93,9.9-24.58,21.89-30.78a33,33,0,0,1,15-4.09c12.86,0,21.58,9.81,23.33,26.25,1,9.43,1.46,18.83,1.78,26.78.05,1.17.43,3.12,2.46,3.12a4,4,0,0,0,1.87-.51c8.66-4.64,14.75-6.71,19.74-6.71,10.75,0,15.56,9.48,19.49,23.71a175.19,175.19,0,0,1,6.73,42.71c.23,9.52-2.2,18.59-4.56,27.36-2.7,10.06-5.5,20.46-3.94,31.13a2.1,2.1,0,0,1-.5,1.69,4.94,4.94,0,0,1-3.06,1.51,2.24,2.24,0,0,1-1.14-.31l-5.24-3.42c-6.66-4.34-13.5-8.8-20.07-13.44-10.31-7.26-12.92-25.47-5.29-36.75,6.24-9.2,9.28-20.12,12.23-30.69,1-3.65,2.05-7.35,3.19-11,.81-2.5,1-5.19.53-6l0-1.54-.16,1.49-.31,0c-1.64,0-2.37,2-3.31,5.15-.27.89-.52,1.72-.83,2.51-3.18,8.25-6.28,16.7-9.28,24.88l0,.11q-2.4,6.57-4.83,13.15a3.55,3.55,0,0,1-1.53,1.7,2,2,0,0,0-.26.18l-1.7,1.46L310,795.88c-.28-.42-.65-.88-1-1.32a10.27,10.27,0,0,1-2.39-4.15c-4-18.49-10.85-37.78-21.53-60.72l-.05-.09c-1.13-2.44-3-6.54-5.21-6.54a2.75,2.75,0,0,0-1.05.25c-.49.22-.55.4-.58.47-.34,1,1.05,3.51,1.87,5,.29.52.56,1,.78,1.46,9.94,19.61,17.4,41.41,24.19,70.69a105.77,105.77,0,0,0,3.34,10.83c.69,2,1.38,4,2,6a5.43,5.43,0,0,1,.09,2.35q0,.3-.06.57l-.11,2.52-3.38-.94c-.85-.23-1.71-.46-2.55-.74-15-4.92-22.06-16.88-28.87-28.45a120.74,120.74,0,0,0-9-13.81c-2.74-3.46-5.42-7.07-8-10.55l-.07-.09c-8.26-11.14-16.8-22.65-28.58-30.81-.23-.16-.47-.35-.71-.54a3.38,3.38,0,0,0,.47,1.66c6.67,8.76,13.49,17.58,20.08,26.11q7.41,9.57,14.79,19.16c3.59,4.68,6.89,9.51,10,14a6.8,6.8,0,0,1,.91,3.18c0,.35.07.66.13,1l.84,4.15-6.53-3.49c-5.59-3-11.45-6.13-16.62-8.85-14.2-7.5-28.86-15.23-42.55-24.06-4.28-2.75-6.29-8.36-8.23-13.78a60.44,60.44,0,0,0-3.15-7.67c-7.71-14.48-16.16-30-25.82-47.38a1.36,1.36,0,0,0-1.25-.78,2.49,2.49,0,0,0-1.61.68c-.33.3-.59.54,1.16,2.77,3.24,4.12,5,8.89,6.78,13.51.79,2.07,1.58,4.16,2.47,6.12,3.62,7.93,8.78,15.6,13.34,22.37a24.47,24.47,0,0,1,2.81,6.62c1,3.33,1.92,6.2,4.76,8l1.17.75-1.78,3.31-1.27-.55c-9.48-4.11-18.85-8.77-27.92-13.29-17.34-8.63-35.21-17.53-54.28-22.69,7.31,5.12,15.46,8.76,23.39,12.3,5.51,2.45,11.21,5,16.6,8,11.57,6.47,23.51,12.72,35.07,18.76,6.36,3.32,13.56,7.09,20.45,10.78,4.46,2.38,8.76,5,12.93,7.62l2.69,1.66a22,22,0,0,1,3,2.38c.36.32.72.64,1.08.94l3.36,2.81-4.32.7c-.47.08-.93.18-1.4.28a17.19,17.19,0,0,1-3.55.48c-21.77.09-44,.12-63.12.14h-1c-3.29,0-6.59,0-9.88,0s-6.59,0-9.88,0h-1a5.69,5.69,0,0,0-2.17.24h0a1.23,1.23,0,0,0-.08.61c0,.77,0,1.12,2.22,1.33,17.88,1.72,34.3,2.55,50.22,2.55,3.15,0,6.31,0,9.38-.1,5.48-.11,11.14-.77,16.61-1.4a162,162,0,0,1,18.17-1.41,60,60,0,0,1,7.83.48c9.8,1.27,19,6.75,27.86,12,3.89,2.32,7.91,4.72,11.88,6.7,2,1,4,1.88,6,2.75s4.09,1.79,6.09,2.78c2.16,1.07,2.74,2.48,2.84,3.47.16,1.56-.68,3.07-2.5,4.49s-3.67,3-5.45,4.54c-4.57,3.94-9.27,8-14.77,10.34a13.48,13.48,0,0,1-5.32,1,29,29,0,0,1-13-3.48c-4.87-2.67-10.37-3.75-15.68-4.79a68.49,68.49,0,0,1-13.67-3.71,5.41,5.41,0,0,0-1.63,1.6,1.72,1.72,0,0,0-.11,1.36,2.26,2.26,0,0,0,1.44.89c9.61,2.69,19.18,5.44,28.44,8.1l13.78,4-3.77,2.38c-3.19,2-6.43,4.1-9.7,6.21L257,858c-8,5.18-16.32,10.53-24.85,15.46-6.75,3.91-14.24,6.77-21.33,9.28-2.65.94-4.34,2.66-5.65,5.76a.77.77,0,0,0,.1.29l.1,0a1.42,1.42,0,0,0,.61-.21c.46-.26.91-.55,1.36-.85a17.32,17.32,0,0,1,3.38-1.82c25.06-8.8,46.75-22.76,70.49-38.76l4.07-2.74-1,4.8c-1.09,5.26-.68,10.66-.29,15.88.47,6.24.95,12.69-1,19.14a58.24,58.24,0,0,0-1.8,12.42l-.12,1.63a4,4,0,0,0,.69,1.65c.39,0,1-.22,1.59-1.79,6.49-18.09,6-36.37,4.5-53.43-.49-5.56,5.4-9.07,10.14-11.89,1.47-.87,2.85-1.69,4-2.52a6.89,6.89,0,0,1,4.07-1.45c2.6,0,4.53,1.69,6.24,3.18a11,11,0,0,0,2.91,2.08c4.72,1.73,7.35,3.84,8,6.47.91,3.46-1.7,6.52-4,9.22-1.26,1.49-2.56,3-2.85,4.14-3.35,13.06-.5,25.09,3.26,38.33,2.4,8.43,7.37,15.8,12.18,22.94l1.77,2.64c.57.85,1.52,2.27.75,3.7a3.09,3.09,0,0,1-2.92,1.36h-.22l-3.21,0c-4.09,0-8.28.14-12.33.27S307.32,923.41,303.14,923.41Z"/><polygon class="cls-2" points="6 8.83 58 60.83 58 1619.17 6 1671.17 6 8.83"/><path d="M1024,8V1672a8,8,0,0,1-8,8H8a8,8,0,0,1-8-8V8A8,8,0,0,1,8,0H1016A8,8,0,0,1,1024,8Zm-8,1658.34V13.66l-48,48V1618.34ZM962.34,56l48-48H13.66l48,48H962.34ZM13.66,1672h996.68l-48-48H61.66ZM960,1616V1007.38a30.14,30.14,0,0,1-4-2.33c-6.94-4.83-13.55-5.61-21.72-2.2-9.57,4-19.77,2.74-30,.65-5.95-1.22-4,5.27-3.39,7.55,8.43,29,18.34,57.68,25.66,87,4.72,18.85,6.35,38.56,8.35,58,2.51,24.39,4.65,48.85,5.67,73.34.82,19.75-.68,39.6-.4,59.39.28,19.21,1,38.45,2.48,57.59,1.47,18.79,4.66,37.44,6.28,56.21,2.09,24.33-11.36,44.07-20.75,64.84-6.89,15.23-16.17,29.44-22.24,44.95-11.21,28.67-25.79,55.85-35.55,85.23-2,6.09-3.91,12.28-5.92,18.43Zm0-617.7V951.55c-8.35-12.25-18.12-23.44-28.13-34.74-2.75,18.45-10,34.86-18.12,51-1.25,2.5-.22,8.17-5.62,6.47-7-2.23-1.46-7.61-.64-9.89,4.35-12.19,12.62-23.62,14.06-36,.84-7.17,8.16-20.53-7.07-25.67-4.31-1.45-7.34-6.48-11.16-9.62-7.41-6.09-15.14-1.6-22.74-.4-10.41,1.66-20.81,3.37-32.1,5.2,16.75,11.25,33,22.09,49.16,33.19,1.32.91,1.44,3.57,2.12,5.42-2.85-.11-6.36.83-8.44-.49-14.81-9.42-29.08-19.71-44-28.88-9.26-5.67-7.71,6.27-9.13,8.61-7.89,13-19.95,20.48-32.07,28.12-3.34,2.11-9.31,2-9.55,6.27-.11,1.9,6.05,4.34,9.53,6.24,20.37,11.13,40.41,23.45,62.55,30.33,20.45,6.35,42.49,15.25,63.34,7.35C944.27,989.4,951.42,994.68,960,998.3ZM960,939V905.15c-2.19-.87-4.41-1.65-6.66-2.31-11.55-3.37-16.15-19.31-31-15.91-3.46.79-7.24.15-10.18,2.8,2.82,2.4,5.43,5.11,8.49,7.14C935.8,907,947,920.52,957.36,935.28Zm0-41.88V885c-6.12-.11-12.34,0-18.73.36C947.61,889.57,953.77,893.52,960,897.11Zm0-20.65V848.28q-8.22-.79-16.48-2.32c-7.47-1.37-12.27,8.27-18.74,12.32-11.25,7.06-22.2,14.61-34.9,23,10.26-1,19-2,27.76-2.65C931.77,877.58,945.9,876.2,960,876.46Zm0-36.28V824l-10,14.45A96.08,96.08,0,0,0,960,840.18Zm0-29.06v-42.2c-8.72,3.67-16,8.8-17.81,14.3-4.21,13.17-10.85,5.28-14.32,2.59-17.22-13.33-34.38-10.74-52.17-2-23.15,11.35-37.5,30.83-48.5,53.08-6.82,13.79-7.22,30.42-18.58,42.36-1.68,1.76,1.09,2.71,2.2,2.58a43.44,43.44,0,0,1,30.92,7.29c4,2.67,12.64-1.89,19.22-2.66,13.51-1.57,21.58-13.12,33.37-17.87,4.6-1.85,10-29.26,8.37-35.59-1.83-7.1-2.67-14.46-3.66-21.75-.19-1.39-1.33-3.79,1.74-4.3,2.69-.44,5,.6,5.71,2.85,5.28,15.58,6.75,31.36,1.51,47.31-.16.48-.28,1-.42,1.48.91-.08,2,.17,2.71-.28A211.65,211.65,0,0,0,960,811.12Zm0-51.32V64H64V1616H787.14c7.22-16.83,15.38-33.31,21-50.63,7.61-23.39,12.76-48,8.37-72.78-1.63-9.16-7.66-17.57-11.92-26.2-.43-.87-2.73-1.53-3.85-1.21-22.75,6.45-41.45-1.21-57.52-16.88-5.35-5.21-8.61-7.89-15.7-1.25-11.86,11.11-29.29,8.82-44,2.53-20.69-8.83-30.25-27.07-41.59-43.35-7.67-11-10.26-25.58-14.9-38.64-2.15-6-7-11-6.36-18.29.19-2.45-1.87-.28-2.47.45-14.38,17.42-46,18.49-61.3,1.86a27.16,27.16,0,0,1-5.48-8.86c-3.63-10-8.7-4.18-12.3-.81-14.54,13.65-32.37,18.56-51.43,21.21-25.21,3.51-56.45-15-61.92-39.9-4.52-20.65-3.29-41.36,9.8-60.4,13.3-19.36,30.56-34.56,47.46-50.24,9.4-8.73,23-12.79,28.84-25.48,2-4.32,1-9.75,7-14.24-11.16,4.4-18.43,11.55-29,11.46-15.11-.15-24.83-9.59-25-25.32-.13-17.07,7.86-31.21,16.53-45.09a10.27,10.27,0,0,0,.77-2.78,11.13,11.13,0,0,0-2.6,1,80.57,80.57,0,0,1-37.11,14.76c-3.74.49-7.86,9.38-9.21,15-5,21-13.79,38.32-33.52,50.08-9.51,5.67-17.45,9.93-28.77,8.18-6.8-1-3.94,6.93-5.57,10.39-6.56,14-20.42,24.06-35.89,24.49-27.75.76-37.24-.76-59.74-21.48-4.28,13.15-10.89,25.21-17.49,37.52-7.84,14.65-19.34,23.39-33.3,31.16-14.6,8.14-44.58,2.24-55.32-10.68-8.22-9.9-13.25-20.68-16.8-32.59-1.31-4.41-2.95-.4-4.11,0-19.27,5.83-50.92-12.45-58.4-31.65-3.65-9.37-8-18.07-7.48-28.32,1.11-22,14.86-33.85,33.43-42.11,9.92-4.4.24-10.62-.41-14.69-3.15-19.89.09-48,22.24-61.45,17.33-10.5,34.81-11.39,53.26-4.2,1.47.57,3.3.14,4.92.43a43.49,43.49,0,0,1,5,1.6c-5-12.36-1.1-23.94,1.34-35.84,3.88-18.91,30.42-32.78,47.89-24.88,7.16,3.24,14.35,8.43,20.94-3.81,6.43-11.94,33.76-15.37,47.1-8.29,3.06,1.63,7.4.86,9.49,6.33,1.16-7.78,6.17-10.05,11.87-11.69-16-10.95-22.18-28.84-17.63-49.86.57-2.63-1.75-1.49-2.55-1.41a156.59,156.59,0,0,1-24.59,1c-10.29-.55-22.8-2.23-30.36-10.72-10.23-11.5-20.77-8.53-31.8-3.48-9.14,4.18-38.42-1-45.45-8.51S166.92,893,166.81,880.76c-.16-16.5,10.25-33.81,25.93-39.84a39.13,39.13,0,0,0,5.12-3c-12.33,2.53-23.55,6.65-34.82,6.76-23.39.23-44.13-8.44-57.28-28.34-8.42-12.75-13.56-27.74-5.51-43.53,1.23-2.41-1.53-3-2.92-4a51.88,51.88,0,0,1-4.56-82.47c9.16-7.94,40-10.94,51.66-4.71,8.7,4.64,10.15-5.11,14.14-7.88,26.13-18.16,68.74-5,81.88,18.23,6.66,11.76,6.74,2.93,9-1.34,8.78-16.79,25.57-26.81,44.17-23.36,13.07,2.42,19.62,13.12,21.41,26.13,1,7.19,1.29,14.47,2.1,21.69.62,5.46,5,1.77,6.15,1.39,15.82-5.22,32.17,5.05,36,21.46,4.06,17.34,9.49,34.34,7.84,52.49-.09,1-.58,3.12,1.89,1.67,15-8.84,29-3.84,35.78,12.77,2.42,5.9,4.91,11.78,7.58,18.16,1.35-11.92,2.61-24,8.82-34C431.46,772.64,442.29,756,465,754.91c14.31-.67,19.08,9.75,24.09,20.14,2.79,5.76,1.61,12,2.41,21.93,3.28-16.58,8.84-28.24,17-38,16-19.09,38-20.29,52.61,3.49,1.09,1.77,3.2,2.92,4.84,4.36a38.17,38.17,0,0,0,.93-5.94c.1-13.11,15.15-29.14,27.86-30,6.47-.46,1.87-4.82,1.06-6.16-10.52-17.47-22.12-34.33-32-52.16-17.26-31.26-31.51-64-44.74-97.15-9.78-24.49-44.52-40.68-70.32-35.42-17.53,3.57-36.58,2.79-52.52-8.88-5.72-4.19-9.56,1.64-14,2.55-22.94,4.68-44.63,3.66-67.14-4.14-18.61-6.44-36.84-13.16-54.21-22.36C243.29,497.79,226.49,487,213.36,472c-5.85-6.68-9-16-12.14-24.65-1.61-4.43,2.78-8.3,7-8.24,22.31.31,43.61-6.23,64.88-10.9,22.23-4.88,44.09-8.07,66.44-5,9,1.23,18.52,0,27.13,4.92,3.36,1.9,7.94,1.75,11.93-1.33,9.24-7.15,33.68-1.78,42.75,5.71,11.14,9.21,17.4,21.69,26.63,31.86,5.12,5.64,15,6.91,22.68,10.27,10.91,4.77,19.2,13,27.59,20.79-2.45-10.18-4.43-20.81-7.59-31.08-5.55-18.1-10.07-36.83-18.25-53.73a252.82,252.82,0,0,0-36-54.18c-12.35-14.41-19.12-2.56-27.07,1.5-18.22,9.3-36.3,18.58-57.12,19.86-21.08,1.29-43-7.13-40.84-29.13,1.27-13.18,11-21.77,22.91-28,9.05-4.76,18-8.62,28.61-8.28a98.7,98.7,0,0,1-39.16-19.95c-12.14-10.26-24.95-21.13-24.79-39.65.16-17.3,10.54-25.87,28-24,14.43,1.53,27.3,6.79,39.57,14,4.36,2.54,8.3,5.8,12.5,8.63a17.08,17.08,0,0,0,3.44,1.39c.18-1.27.87-2.74.45-3.77-4.08-10.16-.39-19.55,4.38-27.8,5.2-9,13.52-12.89,24.6-8.72,7.19,2.71,13.71,5.76,18.05,12.58,5.67-10.1,7.58-24,23.43-22,12.25,1.56,23.69,14.75,24.45,28.59,10.26-15.05,20-31.05,38.44-10.41,4.88-5.59,2-12.9,2.5-19.39,1.43-18.33,9.49-32.56,25.61-40.66,13.93-7,29.37.56,30.92,23.16,1.07,15.65-7.18,28.47-11.17,42.55-1.83,6.46-5.47,12.41-8.55,19.17,11.51-8.79,22.63-12.18,36.6-5.85,4.73,2.15,4.47-7.28,6.63-11.23,11.08-20.3,30.83-46.39,57.69-48.56,11.42-.92,21,0,25.8,10.11,6.41,13.59,3.81,27.09-6.59,38.55-2.17,2.39-4.32,4.8-6.77,7.52,10.84-2.91,21.66-4.59,31.45-8.71,20.85-8.76,50.78,1.9,56.15,22.67,2.75,10.64-6.18,18.88-13.51,26.32-6.42,6.52-15.77,7.84-23.48,13.47,11.15,1.2,22.06.5,31.58,6.52a29,29,0,0,1,13.49,24.4c.18,10.31-5.88,17.15-17.73,20.21-19.52,5.05-37.91,3.75-57.57.3-17-3-1.93,8.67-1.42,10.48,2.36,8.45,2.3,16-3.5,22.37-7,7.68-17,8.37-25.81,6-15.36-4.17-31-8.34-44.47-17.48-10.26-6.94-20.69-13.64-30.74-20.89-2.56-1.84-3.87-2.61-5.67.25a195.74,195.74,0,0,0-23,52.29c-7.12,25.61-8.48,51.42-7.38,77.48.92,22,7.14,43.2,12.35,66.17,8.9-21.31,17.15-41.25,30.64-58,11.82-14.67,23.76-30,43.55-34.88,2.17-.54,5,.44,7.21,1.44,13.42,6.1,22.4-5.42,33.53-8.29,19.86-5.12,38.45-2.76,51.33,13.93,6.73,8.73,13.26,4.19,19.67,3.91a299.34,299.34,0,0,1,45.2,1.58,147.19,147.19,0,0,1,36,8.54c19.16,7.11,36.32,16.05,51,31.23,12.25,12.68,26,24.65,41.94,33.17,2.46,1.31,4.69,3.77,3.15,6.3-1.84,3-2.1,8.7-7.73,7.62-12.52-2.41-23.91,1.94-34.85,6.49-18.34,7.62-37.24,13.66-55.1,22.8-16.48,8.43-29.67,21.46-46.14,29.37-9.95,4.78-20.39,3-30.61-.37-8.57-2.78-14.94-8.84-22.25-13.51-6.1-3.88-12.16,4.19-18.65,6-9.37,2.61-18.84.67-26.56-2.1-17.64-6.34-31.77-19.64-47.93-29-13-7.58-27.39-14-43.48-9.46-9.42,2.64-17.27,22.89-14.55,34.58,5,21.73,15.42,41.15,26.59,59.92,14.48,24.32,31.91,46.9,45.92,71.46,6.57,11.52,12.41,11.36,23.21,8.24,11.66-3.38,33.32,6.73,36.84,23.51,2.74,13,3.56,24.79-2.27,36.77-.26.54.25,1.45.4,2.19,1.47-1.18,3.32-2.1,4.36-3.59,9.49-13.59,21.47-21.53,39-21.65,14-.09,24.77,20.62,21.78,32.08s-5.2,23.13-7.79,34.7c-.54,2.4-1.28,4.76-2,7.43,14.61-9.55,30.69-22.83,46.66-13.1,21.25,12.95,18.56-8.87,22.4-14.2,16.13-22.35,35.87-39,62.19-46a41,41,0,0,1,37.43,8.15c5.25,4.46,7.25,2.24,10-1.59C944.34,767.65,951.72,762.92,960,759.8Zm-21.46,650.9c.37-23.3-5.36-46-7.36-69.16-1-11.37-.34-22.9-.17-34.35,0-3.2-.53-4.13-3.9-3.39-4.72,1-12.47,4.13-13.29-1.43s8.37-4.35,12.39-4.87c7.73-1,4.6-5.85,4.5-8.92-.16-5-4.86-1.6-5.8-1.23-9,3.53-18.24.83-27.3,1.55-3.72.3-4.51,1.18-4.65,4.8-1.15,30.23-1.52,60.54-4.2,90.64s-6.59,60-12.12,89.53c-3.66,19.54-7.85,39.52-19.38,56.65-1.28,1.91-2.72,5.21-5.29,3.93-2.76-1.38.23-3.63.8-5.5,4.67-15.41,10.49-30.61,13.4-46.35,1.22-6.63-3.79-14.37-5.83-21.65-.89-3.17-1.45-6.43-2.35-10.49-3.11,9.31-9.44,14.85-17.17,19.07-1.7.93-3.25,2.59-5.08,0s.18-3.49,1.47-5c5.61-6.47,13-11.56,16.46-19.67,2.19-5.16-1.58-10-4.19-13.39-1.74-2.26-3.18,3.12-4.55,5.07-7.6,10.74-16.7,19.75-29.3,24.17-5.35,1.88-4,4.82-2.2,7.63,6.39,9.72,12.24,19.55,11.67,31.8a4.09,4.09,0,0,0,.56,1.63c2.69-.8,5.6-1.28,8-2.68,2.63-1.55,4.76-4,7.11-6,1.74,2.47,5.28-3.53,5.78.71.69,5.89-5.28,11.94-8.15,12.16-16.49,1.27-10.83,14.82-12.88,22.82-4.39,17-7.24,34.33-13.66,51-2.16,5.59,6.87,5.52,10.94,6.88,8.24,2.76,16.94,4.11,25.38,6.28,1.73.44,3.2,1.91,4.78,2.9a7.88,7.88,0,0,1-6,3.29c-9.11,1-18.73.19-25.82-4.48-17-11.2-16.11,4-20,12.2-1.41,3-2.75,6-4.07,9.11h56c4.54-12.53,9.27-25,13.86-37.52a18.15,18.15,0,0,0,.58-3.32,9.19,9.19,0,0,0-2.91,0c-12.4,4.26-23.93-.16-35.51-3.62-1.74-.52-4.75-1.51-3.59-4.29,1.26-3,4.32-2.62,7-2,11,2.58,21.74,4.44,33.16,1.38s10.57-14.1,15-21.43c5.66-9.28,8.93-20,13.61-29.93,12.89-27.37,26.39-54.46,38.49-82.17,1.6-3.65-7.85-4-11.21-7.85-2.62-3-4.94-5.37-4.65-9.67.21-3,1.22-5.92,3.8-6.28,4-.56,2,3.23,2.42,5.12,1.36,5.9,5,9.75,10.92,8.3S938.48,1414.32,938.54,1410.7Zm-18-131.51c3.54-.63,10.5,3.41,10.37-5.4-.26-16.76,1.12-33.67-.65-50.26-3.33-31.21-2-62.73-8.74-93.83-3.34-15.48-5.92-31.39-9.16-47-.37-1.77,1.83-10.06-5.88-7.54-4.89,1.59-9.47,4.36-14.43,5.41-4.12.87-10.48,2.82-12.34-1.49s4.43-3.15,7-4.67a27,27,0,0,1,11.86-3.67c4.34-.39,9.75-2,8.17-8.09-4.12-15.84-9.35-31.41-13.18-47.32-1.3-5.42-3.63-3.1-5.64-2.09-8.5,4.26-16.6,9.39-25.35,13-3.29,1.36-7.72,3.5-11.8,1-.81-.5-1.87-1.85-1.68-2.47,1.1-3.75,5-4,7.78-5.68,1.83-1.08,4.28-1.12,6.11-2.2,9.08-5.33,19.85-7.64,28.08-14.8-17.58-5-34.55-9.72-50.15-18.2-5.88-3.2-8.18-3.47-7.82-.67,2.28,17.32-5.62,27.77-22.15,32.44,12.24,8,24.83,14.21,30.66,28.78,4.89,12.24,1,28.07,15.32,36.64,6.31,3.77,6.68,16.39,17.31,13.61,7.77-2,16.32-.11,23.54-5.21,2-1.37,6-1.87,8.11,1,.49.66-.82,3.83-2,4.37-10,4.69-20.84,6.44-32.17,8.3,15.28,27.11,18.85,57.27,20.88,87.24,1.94,28.6.43,57.44.41,86.17,0,2.31-.51,4.89,3.1,4.66C904.31,1280.63,912.57,1280.59,920.58,1279.19ZM884.37,1248c.09-8.93-1.43-17.88-1.32-26.81a448.36,448.36,0,0,0-3.78-64.12c-3.42-26-14.39-48.49-28-70.16-4.21-6.68-8.67-15.33-17.77-11.11-14.62,6.79-29.06,6.55-44.06,3.51-6-1.23-12-2.68-21-4.71,15.11,8.33,23.45,32.89,19.35,46.84-.71,2.4-9.09,5.59-.85,9.53,37.28,17.85,34.65,49.8,15.9,78.4-2.39,3.64-15.45,8-2.1,14.76,17.1,8.71,31.38,20.32,38.84,38.75,5.68,14,8.13,27.76,2.3,42.88-2.54,6.58-11.91,12-7.75,19.31,6.94,12.23,14.25,24,18.19,37.72a129.26,129.26,0,0,1,4.61,45.17c-.33,4.78-4.45,10.94-2.64,13.94,6.86,11.38,10.55,23.88,15.23,36.53.61-.92,1.21-1.41,1.27-2,2.76-25.64,5.72-51.27,8.13-77,1.73-18.53,3.2-37.12,3.93-55.71C883.78,1298.54,884.12,1273.26,884.37,1248Zm6.79-723.18C882.71,513.26,869.49,508,861.08,497c-12-15.7-32.32-17.06-48.73-25.21-11-5.46-23.51-5-35.47-5.69-10.57-.64-21.06-1.56-32,.29-6.5,1.11-15.08,7.71-21.64-1.28-13-17.8-29-22.69-50.17-16.75-8.75,2.46-14.15,14.12-25.64,8.82-10.83-5-20-1.25-28.78,5.8-19.86,16-33.16,36.7-43.48,59.49-6.34,14-19.4,27.15-7,44.36,6.33-18.21,22-26.84,37.07-35.68,9.46-5.54,16.09-14,14.9-23.59-1.31-10.59,2.7-20.43,1.1-30.78-.4-2.56,3.44-5.82,5.5-8.64a4.6,4.6,0,0,1,2.72,1.45c.66,1.27,1.23,3.1.81,4.35-3.36,10.08,1.28,20.79-3.05,30.92,3.54-3.06,5.5-7.18,8.74-9.57,16.38-12.09,32.21-25.11,51-33.5,2.06-.93,5.4-.05,7.69,1,1.12.51.43,3.06-1.42,4-13.7,6.9-26.91,14.67-38.71,24.45-11,9.13-21.47,19-29.19,31.61,2.63-3.33,6.43-.88,9.13-2.24,24-12,50.41-16.1,76.11-16.56,19.78-.35,35.59-8.23,52.82-14.06,16.72-5.67,33.55-10.52,51.49-8.87,1.42.13,3.57,1.73,3.82,3,.44,2.12-1.66,2.83-3.64,3.07-5.1.62-10.21,1.24-15.3,2a202.55,202.55,0,0,0-47.56,13.22C799.49,507.35,845.48,513.29,891.16,524.81ZM841,555.31c18.08-7.66,37.22-12.8,57-19.39-33.1-9.43-66-13.49-98.93-18,9.89,7.08,20.21,13.19,30.42,19.48,1.66,1,4.4,1.9,3.41,4.76-.73,2.11-2.86,2.5-4.6,1.61-8.22-4.2-16.74-8-24.4-13.07-10.84-7.17-19.94-15.86-34.54-17.16-23.12-2.05-46.05-.82-69.05-.24-4.41.1-8.76,2.52-13.13,3.87,2.14,4.24,6.92,3.84,10.3,5.89.8.49,1.38,1.37,2.2,1.79,15.32,8,30.52,16.27,46.08,23.81,9.62,4.66,19.85,8.06,29.65,12.36,1.56.69,2.35,3.12,3.5,4.75-1.66.45-3.38,1.45-5,1.25-9.89-1.21-18.36-6.5-27.53-9.78-18.57-6.64-35.53-16.34-54.3-26.18,8.2,11,7.84,25.12,18.14,34,1.12,1,.95,5.44-.25,6.62-2,2-3.59-.8-5.29-2.27-8.34-7.18-11.09-17.69-15.49-27-6.07-12.79-8.4-28.26-29-21.39-20.11,6.71-40.61,12.23-60.29,23.18,4.74.67,8.29.93,11.72,1.71,20.39,4.66,36.71,16.95,53.58,28.36,15.73,10.63,32.09,18.9,51,6.77,8.6-5.51,14.66-.28,20.8,4.81,7.41,6.14,15.76,10.21,25.46,11,15.64,1.35,24.41-11,36-17.94C812.34,570.63,826.12,561.62,841,555.31Zm-2.77,874.45c9.89-13.52,10.41-30.15,8.69-46.46-2.24-21.18-9.66-40.13-24.77-55.64-1.59-1.64-2.34-3.11-.64-5.9,4.89-8,11.52-16.09,13-24.88,4.48-27.26-9.74-51.07-34.14-64.24-7.76-4.19-20.73-9.56-11-22.16a133.15,133.15,0,0,0,15.07-24c9.71-20.23-7.59-52.68-30.2-53.11-18.78-.35-33.83-8.47-50-18.64,1.15,2.11,1.65,3.19,2.29,4.18,8.32,12.8,14.09,26.14,12.76,42.1-1.09,13-17.3,23.91-29,18.87-10.77-4.62-21.86-8.52-30-18.14.36,9,2.54,17-1,25.13-1.64,3.78,1.19,4.11,4.26,4.1q42.31-.12,84.63,0a10.41,10.41,0,0,1,4.87,1.34c.88.49,2,2.4,1.66,3-2.4,4.26-6.24,3-10.28,3-21.73-.35-43.47-.16-68.36-.16,7.55,5.71,11.93,10,17.13,12.77,17.27,9.18,34.83,17.79,52.26,26.64,2.35,1.19,4.1,2.75,3.59,5.83-.46,2.77-2.75,2-3.88,1.6-21.41-7.13-43.05-16-60-29.8-15.74-12.88-30.17-15.2-47.76-10.89-1.34.33-7-1.21-5.3,2.69,4,9,9.06,17.54,14.19,26,8.66,14.22,17.65,28.24,26.62,42.28,1.45,2.27,2.72,6.54,5.9,5.25,10.59-4.29,22.19-2.82,32.4-2.41,11.78.47,24.31-1.64,36.09,2.8,8.85,3.33,19,1.11,27.73,5.59,2.49,1.28,4.8,2.95,4.28,5.7-.13.7-4.57,1.15-6.87.77-5.77-1-11.39-2.87-17.17-3.66-21.36-2.89-42.87-2.28-64.34-2-5.72.07-10.35,1.26-4.39,8.79,6.62,8.35,11.76,17.84,17.72,26.71,2.81,4.18,5.28,10.44,9.2,11.7,14,4.46,28.73,6.54,42.81,10.76,11.22,3.36,22.65,6.91,32.14,14.33.82.63,3.77,2.17,1.44,4.24a4.66,4.66,0,0,1-3.88,1c-3.29-1.25-6.27-3.35-9.57-4.54-16.39-5.9-32.88-11.52-53.06-13.93,9.41,10,16.84,18.22,24.7,26,10.69,10.65,21.71,21,32.57,31.46a3,3,0,0,1,.37,4.35c-1.57,2.07-2.6.28-3.62-.52-10.81-8.48-22-16.55-32.25-25.66-8.38-7.43-15.91-15.88-23.35-24.3-8-9.06-15.11-18.95-23.28-27.86-8-8.75-14-18.87-20.87-29.17-2.59,18,.67,35,1.72,52,1,16.62,5,33,7.46,49.6.22,1.53,1.34,4.32-1.77,4.84a3.39,3.39,0,0,1-4.13-2.68c-7.88-27.82-13.35-56.58-11.24-85,2-27.7-9.89-48.45-23-69.93-.32-.54-1.48-1.18-1.81-1a4.2,4.2,0,0,0-1.81,2.07c-7.42,21.11-10,43.11-12.15,65.22-.19,2,2,5.49-2.64,5.43-3.88,0-5.68-2.07-5.4-5.88.63-8.65.44-17.48,2.21-25.89,2.34-11.14,3.11-22.53,6.81-33.55,2.21-6.59,9.62-13,6.48-19.62-7.05-14.85-16.11-28.75-24.59-43.45-1.09,2.71-2.28,4.77-2.74,7-3.75,18.22-12.27,34.87-17.09,52.87s-8.85,36.52-14.74,54.39c-1.34,4-1.63,10.55-5.49,10.14-6.44-.68-1.12-5.68-.81-8.74,2-20.21,7.35-39.65,13.23-59,1.07-3.52,2.75-11.83.69-11.5-9.62,1.57-19,5-28.2,8.6-12.91,5.09-25.5,11-38.28,16.44a4.56,4.56,0,0,1-6-2.13c-1-2.18,1.08-3.12,3-4,3.31-1.42,6.45-3.26,9.66-4.91,16.72-8.61,33.54-16.8,52.07-21.15,5.54-1.3,12.84-1.58,15.4-8.84,2.85-8.12,6.25-16.12,8.14-24.46,1.28-5.67,7.58-10,5-16.34-2.46-6.12-5.9-11.85-9.09-17.65-.69-1.25-2.17-2.06-3.28-3.07-.76,1.15-2.26,2.38-2.15,3.44.72,7-1.62,13.1-4,19.49-4,10.81-18.21,21.49-26,18.62-18.26-6.77-26.3-18.56-26.3-38.56v-35.09c-2.88,9.11-9.27,15.69-14.63,22.24-23.43,28.64-37.4,60.77-32.83,97.91,2.23,18.14,11.53,34.7,30.42,42.84,5.87,2.53,9.92,6.13,9.35,13.91-1,14.32,5.37,26.84,13.3,37.91,12.46,17.39,37.42,15.51,54.58-3.31,2.76-3,5.67-4.55,7.5-.08,5.78,14,10.43,28.52,16.58,42.36,9.86,22.2,20.54,43.32,42.59,57.43,17.14,11,35.15,6.55,46.23-4.67,3.75-3.79,6-2.62,9.51-.18,17.86,12.54,34.05,27.8,59.71,20.85C815.75,1451,828.77,1442.67,838.22,1429.76Zm-1.3-371.67c.44-16.5-25.29-42.26-44.73-38.67-21.19,3.91-40.86-1.86-60.73-6.51a387.6,387.6,0,0,1-61.81-19.52c-4.73-2-11.34-10.56-15.83.88a28.62,28.62,0,0,1,4.77,3c20,18.68,42.33,34.31,65.45,48.51,13.2,8.11,28.42,13.2,43.16,18.44,17.28,6.14,34.89,13.18,53.68,6.55C827.38,1068.49,836.65,1068.58,836.92,1058.09Zm-5.24-149c4.23-7.22,4.7-15.65-3.27-18.53-13.13-4.75-28.42-2.63-38.65,5.37a333.43,333.43,0,0,1-66.77,41c-14.84,6.8-28.24,14.22-38.26,27.38-3.11,4.09.25,2.68,1.6,2.6,8.59-.57,17.18-1.31,25.77-2,20.76-2.52,40.78-7.12,60.27-15.5C795,939.67,818.27,932,831.68,909.1ZM798.59,1011c13.68-1.29,26.39-11.36,26.34-23.29-1.37-9.16-8.31-15.25-16.64-20.72-11.52-7.57-23.47-13-37.26-7.86-14.46,5.37-29.28,8.94-44.28,12.41-9.49,2.2-18.93.52-28.4,3-8.38,2.22-17.84.75-26.79.34-4.26-.19-7.33,2.12-8.08,5-.92,3.5,3.73,4.1,6.11,4.85,15.5,4.86,30.8,10.29,46.45,14.8C743.18,1007.4,770.1,1013.72,798.59,1011ZM813.8,850.11c.27-11.47-8.49-18-20.06-16.22-16.12,2.51-30.57,10.32-37.87,23.39-12.8,22.9-23.44,47.06-37.5,69.37a15.7,15.7,0,0,0-1.2,3.56c.72.13,1.62.61,2.12.35,9.88-5.36,20.13-10.17,29.45-16.37,13.77-9.14,26.93-19.22,40.26-29C801.13,876.26,809.78,864.8,813.8,850.11Zm-32.84,259c2.17-5-2.48-9.11-4.29-13.64-3.94-9.91-10.37-18.62-19.42-24.54-4.83-3.16-11-4.23-16.16-7a446.57,446.57,0,0,1-40.84-24.15c-17-11.38-33.62-22.76-47.11-38.07-7.34-8.34-6.32,5-11,3.59-1.09-.33-4.15,1.79-2.07,5.37a321.06,321.06,0,0,0,49,64c18.54,19,39.64,33.67,63,45.5C769.05,1128.78,780.39,1124.57,781,1109.11Zm-18.77-312c1.81-10.79-6.14-22-19.2-22a20.55,20.55,0,0,0-5.14,1.11C721.09,783,710.72,796.07,703.3,812c-.3.64,0,1.58.08,2.39.73-.3,1.47-.57,2.19-.89,10.14-4.46,26.9,1,27.34,9.38.71,13.47-.95,26.58-7.31,39-1.33,2.61-9.09,7.53-.07,10.7,5.08,1.79,10.26,13.17,15.6-1C750.31,847.27,757.88,822.7,762.19,797.06Zm-7.74-469.69c2.21-7.8,1.07-17-6.57-22.1-15.89-10.57-34.83-9.55-51.16-5.16-22.94,6.16-45.56,12.95-69.52,16.49,15.61,3.63,30.54,10.18,45.93,13.74,21.56,5,43.84,10.37,66.36,4.48C745,333.4,752.84,333.05,754.45,327.37Zm-17.94-58.59c11.81-9.11,13.14-21.35,4-27.51-16.69-11.25-34-5.87-50.6-1.42-19.63,5.26-37.15,15.19-54.32,26.55-21.05,13.93-42.33,27.21-60.2,45.24a18.19,18.19,0,0,0-2,3,21.77,21.77,0,0,0,3.94.12c20.78-3.23,41.55-6.51,66.9-10.5,10.34-3.53,25.74-5.48,40.57-10.83C703,286.86,721.08,280.7,736.51,268.78Zm-5.67,883.92c1.32-9.62-4.13-17.37-7.38-25.83-7.5-19.52-24.89-30.31-39-43.65-21.13-20-37.28-43.22-51.37-68.22-1.2-2.14-2.09-2.23-3.64-1.53-15.24,7-16.93,12.88-11.28,29.27,8.47,24.57,20.63,47.62,34,69.36,12.25,20,25.15,41.21,47,53.49,7.3,4.1,15.08,8.92,23.68,5.5C730.61,1168,731.63,1160.44,730.84,1152.7Zm-7.11-313.36c1.75-5.5,3.07-11.88-.12-15.78-3.93-4.79-11.26-3.92-16.54-1.19-17.15,8.85-32.16,19.31-32.07,42,0,11.42-2.35,22.85-3.77,35.48,9.72-10.79,17.44-22.09,31.21-26.1,9.39-2.74,13.74-9.6,17.13-18.5C721.6,849.92,722.08,844.53,723.73,839.34Zm-1.1,64.95c6.26-12.55,7.84-26.78-6.75-25.45a42,42,0,0,0-23.5,9.94c-12.59,10.81-22.4,23-25.8,40.44-2.34,12-10.28,22.94-1.86,35.42,1.1,1.63,1,3,3.15,1.19,7.66-6.62,16-12.56,23-19.82C703,933.36,714.71,920.16,722.63,904.29ZM697,786.31c4.41-11.61,7.2-23.86.6-35-12-20.29-38.93-12.46-50.42-1.09C635.4,761.86,637,777,637.29,791.52c.11,5.51-6.54,19.17,10,11.55,1.44-.66,3.83.22,5.59.9,15.84,6.1,18.19,21.06,23.64,36.37C683.63,821.52,690.28,803.91,697,786.31Zm-19-419.61c3.68-7.3,1.13-15.2-5.18-21.13a60.32,60.32,0,0,0-16.54-11.06c-26.16-12-53.59-8.67-82.57-9.58,4,3.42,6.17,5.84,8.84,7.57,23.32,15.12,45.77,32.16,73.87,37.63C663.55,371.53,673.14,376.2,677.92,366.7Zm-5-149.45c5.79-6.88,3.9-15.73,1.51-23.33-1.51-4.83-7.24-5.6-11.12-4.93a45.29,45.29,0,0,0-22.92,5.65c-33.9,18.26-40.1,50.89-43.32,84.91-.37,3.93,2,2,3.21,1.09C626,261.14,652,242.09,673,217.25Zm.56,957.22c3.09-16-5.87-27.88-14.63-38.53-17.22-21-27.66-45.53-39.72-69.22-6-11.8-9.4-24.93-14.26-37.34-2.43-6.22-5.67,1.27-8.88,0-1.56-.63-3.24,1.72-2.79,4.21,3.63,20.09,5.91,40.44,11.83,60.08,4.73,15.71,8.67,31.71,14.29,47.1a156.77,156.77,0,0,0,26.27,45.42c3.76,4.59,8,10.72,17.58,7.64C674.49,1190.18,671.79,1181.46,673.51,1174.47ZM664,883.32c1.26-4.17,2.84-6.92,2.78-9.62-.29-13.67.93-27.32-1.69-41-3.07-16.08-11.41-23.09-24.52-17.37-7.22,3.15-10.76,10.49-14.28,17.61-6.25,12.65-7,26.25-9.69,43.21,5.94-13.32,15.1-17.77,24.72-16.75C653.67,860.69,659.92,870.83,664,883.32Zm-10.91,58.24c7.18-12.43,8.7-25.58,6-39.55-1.55-10-2.78-20.66-9.71-29-6.59-7.92-14.76-5.69-21.41-.65-8.09,6.14-13.83,15.43-13.32,25.3.72,14.12,2.37,27.89-5.46,40.57-2.55,4.12-3.15,7.41,2.42,8.39,4,.71,5.94,3.05,7.8,6,1.45,2.33,2.72,2.72,4.62.1,5.4-7.42,13.57-10,21.53-7.36C651.19,947.26,651.08,945.1,653.12,941.56ZM650,985c6.44-7,6.92-15.33,4.44-23-2.62-8.13-11.32-9.46-18.55-8.49-5.24.7-9.79,5.36-11,11.2-2.29,11.48-4.66,22.94-12.38,32.17-7.45,8.93-15.44,17.4-23.21,26,9.3-3.74,18.91-6.88,27.8-11.43C629.8,1005,640.33,995.56,650,985Zm-6.65-244.51c5.19-2.3,4.24-4.45,1.51-8.17-6.82-9.29-13.52-18.7-19.7-28.42-9.62-15.14-19.42-30.23-27.94-46-10.51-19.46-23.54-37.8-30.14-59.11s-14.32-42-18.89-63.94c-4.32-20.73-10.25-41.21-11-62.39s-1.33-42.33,3.54-63.39c5.8-25,11.94-49.65,29-69.91,1.48-1.76,3.67-4.29,1.06-5.66-5-2.65-6.93-12.91-14.1-8.68-11.21,6.61-21.3,15.15-31.71,23.08-6.91,5.27-14.1,10.49-23.16,8.84-18.53-3.37-33.17-13.68-45.56-27.54-1.24-1.39-2.48-3.8-5.32-.91A198.81,198.81,0,0,1,436,341.46c-2.06,1.72-3.52,2.64-.16,4.78a97.22,97.22,0,0,1,30.61,32.22c12.25,20.59,23.36,42.08,29.08,65.89,4.43,18.49,11.33,36.42,15.32,55,5.45,25.36,10.62,50.81,18.86,75.35a443.46,443.46,0,0,0,36.93,81.21c13.29,22.93,27.44,45.38,42.1,67.46,6.63,10,15.4,18.52,21.92,26.2C636.74,745.12,639.73,742.13,643.33,740.52Zm-27.22,95.25c2-11.26,12.55-18.49,11.75-32.12s-.32-27.74-3.24-41.19c-2.71-12.46-10.43-21.5-21.47-23.55-8.47.09-13.76,1.59-17.87,5.71-12.36,12.42-13,28.22-12.09,44.25.23,4.06,1.32,11.19,3.14,11.57,16.37,3.41,34.73,23.27,35.11,39.5,0,1.59-1.06,3.8,1.36,4,3,.25,1.79-2.45,2.15-4C615.27,838.51,615.86,837.18,616.11,835.77ZM612.23,979c3.52-8.52,5.46-16.67-1.63-23.33-6.17-5.8-23-1.3-27.31,5.81-8.16,13.52-10.72,28.25-10.23,42.39,0,5.5-.08,9.66,0,13.82a35.24,35.24,0,0,0,.84,5c1.73-1.07,3.7-1.87,5.16-3.24C591.9,1007.5,605.22,996,612.23,979Zm-13.6-36.86c10.59-14.8,9.91-31.95,6.12-48.89-1.89-8.48-3.88-18.2-12.56-22-13.19-5.74-32.83,9.27-30.71,24.71,3,21.9,10.6,43.08,11.61,66.3,4.4-3.19,4.29-8.4,9.09-10.35C588.09,949.56,595.21,947,598.63,942.17ZM605,1168.78c.22-14.87.41-29.74-.93-44.73-3.89-17-8.23-34-11.53-51.11-2.28-11.88-5-23.51-9.67-34.67-.32-.77-1.35-1.25-2.05-1.86-.6.69-1.47,1.28-1.77,2.08-7.78,20.6-7.06,42.75-11.43,64-1.87,9.12.69,19.1-.84,28.34-2.25,13.62-2.44,27,.37,40.36,2,9.45,4.44,19.65,15.51,21.44C594,1194.47,604.76,1181.9,605,1168.78Zm-.47-299.58A72.49,72.49,0,0,0,599,831.09c-4.46-10.55-11.19-19.72-22.34-21.39-8.85-1.33-16,6.65-20.19,13.85-9.57,16.46-13.37,34.91-12.72,53.85.11,3.15,6.31,6.1,9.69,9.15,1.24-1.63,2.81-3.1,3.68-4.9C568.12,858.87,593.11,855.32,604.48,869.2ZM589.54,268.25c2.89-6.69,2.77-13.18-1.83-19.13-2.83-3.66-7.29-3.64-11-3.13-25.05,3.4-30.57,25.79-39.05,43.5-7.17,15-9.32,32.33-13.71,48.67,5-2.29,8.73-6.94,13.38-10.22C559.58,312.19,578.53,293.75,589.54,268.25Zm-21.06,776.44a11.57,11.57,0,0,0,.1-3.34,18.29,18.29,0,0,0-2.76,1.61c-8,6.69-16.15,13.12-23.75,20.2-13.89,12.93-27.91,25.79-41,39.56-11.59,12.23-19.69,26.83-25.9,42.71-5.78,14.8.11,29.33,15.15,30-.53.12.35,0,1.2-.26,23.81-7.37,40.87-22.94,53.36-44,8.08-13.65,13-28.52,15.93-44C563.54,1073,563.82,1058.46,568.48,1044.69Zm-2.09-850.43c2.22-8.43.83-19.16-6.13-24.18-5.35-3.86-13.9-1.54-20.47,4.56-11.76,10.89-13.19,25-14.55,39.2-2.06,21.57,4,42.73,4,66.41,2.5-4.79,4.11-7.78,5.64-10.81C547.16,245.11,559.44,220.71,566.39,194.26Zm-3.33,832.57c.59-1.67,1.7-3.36,1.63-5-.09-2.14-2.08-4.49-1.6-6.31,4.86-18.24-.74-36.45.1-54.66.88-19.16-5-37.31-10.82-55.1-2.59-8-5.77-18.28-17.58-18.89-13.94-.73-17.73,11.39-21.15,19.76-8.2,20.06-6.53,40.41,3,60.63,10.09,21.38,24,39.62,40.2,56.4C558.37,1025.24,561,1025.79,563.06,1026.83Zm-1.44-221.57c1.53-1.22,3.73-1.69,2.7-4.9-2.75-8.59-4.54-17.49-7.49-26-3.7-10.65-10.63-18.13-22.43-19.49-6.42-.45-11,2.23-15.44,6.44-10.56,10-15.53,23.05-19.09,36.37-1.2,4.47-9.26,13.69,1.12,15.46,17.43,3,26.37,13.22,32.29,28.22.9,2.3,2.93,4.15,4.43,6.2.42-1.61.74-3.26,1.29-4.83C543.9,828.65,549.46,815,561.62,805.26ZM559.49,1037c-4,1.2-6-2.72-10.33-.71-5.83,2.76-12.72,3.27-19.16,4.76-12.28,2.83-24.71,5.14-36.79,8.64-13.35,3.88-26.35,9-39.56,13.33-14.87,4.94-30.07,9.86-40.35,22.27-3.83,4.61-10.72,9.8-9.31,16.36,2.54,11.82,19.12,20.8,31.37,19.25,16.74-2.13,32.25-7.8,45.59-17.77,18.47-13.82,36.87-28,53.66-43.7C542.48,1052.07,551.36,1045.87,559.49,1037Zm-45,310.1c22.48-7.92,30.85-21.47,24.55-43.5-.48-1.69-1.47-1.87-2.5-2.75-6.32-5.44-15.13-7.73-19.58-15.56-1.78-3.15-4.27-9.34-6.82-7.71-6.09,3.88-14,7.63-13.93,16.88.1,12.19.66,24.38.68,36.58a5.69,5.69,0,0,1-3.25,4.32c-1.95.52-2.16-1.81-2.86-3.57-3.78-9.49-.92-19.32-2-28.91-.13-1.22-.42-2.42-.63-3.63a36.46,36.46,0,0,0-3.05,2.9c-8.44,10.22-16.79,20.53-25.35,30.65a4.85,4.85,0,0,1-4.26,1.13c-2.07-.66-1-2.49-.7-4.12,1.27-6,5.53-10.31,9.19-14.69,11.85-14.16,22.24-29.62,39.13-42.88-7.73,1-12.78,1.27-17.64,2.35-9.16,2.05-19.13.41-27.53,6.17-1,.71-4.47.07-4.72-.66-.68-2-1-4.29,1.78-5.87,15.38-8.75,32.3-9.2,49.29-9.51a78.56,78.56,0,0,1-2.34-51.07,34.92,34.92,0,0,0,.68-5.72,30.05,30.05,0,0,0-4.18,2.68c-8.23,7.38-16.54,14.67-24.52,22.3-19.88,19-39,38.17-40.12,68.54-.44,11.87,7.36,34,14.94,39.55C469.71,1356.3,491.29,1355.29,514.5,1347.12Zm37.08-318.83c-11.61-8.69-17.54-17.84-24.16-26.4-9.38-12.11-16.65-25.27-23-39.31-4.16-9.17-.28-23.16-15.41-27-10.07-2.58-20.14-10.72-27.1,3.67-4.22,8.73-1.14,17.69,2.13,26.12,7.45,19.27,22.66,31.58,39.26,42.33A148.37,148.37,0,0,0,551.58,1028.29Zm-26-151c2.75-1.61,9-.1,7.23-6.4-2.93-10.52-4.82-21.22-9.63-31.37-7.5-15.82-24-20.36-35.93-7.91-13.57,14.12-11.23,33.2-13.8,51.23,1.81,13.06,4.88,26.65,12,38.62,2.13,3.61,7.77,6.34,12.16,7,2.7.39.81-4.92,1.38-7.6C502.7,903.15,508.85,887,525.58,877.26Zm-8.2-563.94c6.13-27.58,4.72-54.37-4.69-80.69-2.42-6.76-7.06-15.73-16.31-10.2-5.57,3.33-9.69,10.54-11.33,17.68-4.43,19.39-3.12,38.45,4.58,56.85,6.86,16.39,14.09,32.63,21.82,50.46C516.94,335.07,515.06,323.73,517.38,313.32Zm9.29,716.5c-8.56-7.84-18.88-2.39-28.06-1.38-26.28,2.89-51.83,11.07-78.4,12.38-13,.64-26.23,1.22-39-2.44-4.9-1.41-12.82-2.24-13,.95-.42,6.56-9.46,12.18-2.76,19.18,7.08,7.4,15.93,11,26.14,12.56,24.48,3.72,44.46-9.94,65.55-17.61C480.26,1045.05,505.06,1041.9,526.67,1029.82ZM506.93,531.56c-.2-2.19-.09-3.6-.49-4.84-6.48-19.88-21.73-32-37.76-43.84-9.12-6.72-22.8-2.61-29.78-13.48-4.09-6.38-7.26-13.66-12.46-18.94-10.65-10.82-23.56-23.6-39.1-16.55-13.68,6.2-24.21,2.23-36.3-.36A154,154,0,0,0,294.71,432c-9.78,1.54-19.22,5.15-29,7-15.49,2.86-31.13,5-46.7,7.44,0,.92,0,1.85,0,2.77,15.78,4,31.69,7.56,47.31,12.1,11.47,3.34,23.21,2.64,34.77,4.15,18.18,2.36,36.25,5.47,54.38,8.2.39.06.89-.58,1.34-.89a7.14,7.14,0,0,0-1.36-1.6c-14-8.64-29.1-14.89-44.64-20.18-1.37-.46-2.25-2.38-3.36-3.62,1-.75,2.16-2.31,2.92-2.13,8.19,1.91,16.68,3.2,24.38,6.38,18.23,7.51,33.29,21.51,52.79,26.49,8.23,2.1,16.72,3.18,26.05,4.91-8.14-11.1-18.16-19.58-23-31.82-1.07-2.72-.8-5,1.49-5.78,2.09-.69,3.56,1.58,5,3.46,9,11.68,17.69,23.73,27.68,34.55,8.27,9,21.61,7.81,32.19,13.1C475.27,505.59,492.5,515.42,506.93,531.56Zm-5.05-182.84a11,11,0,0,0-.36-2c-9.78-25.51-20.4-50.5-42.39-68.46-3.12-2.55-5.85-6.61-10.58-4.49-5.31,2.38-6.27,7.78-7.75,12.43,1,3.83,1.44,7.47,2.93,10.59,11.68,24.4,30.4,41.35,55.35,51.54A10.64,10.64,0,0,0,501.88,348.72Zm-9.4,188.06A114.58,114.58,0,0,1,508.21,549c-10.23-17.59-25-29.32-42.61-38.8-17-9.14-33.81-12.85-52.8-9.6-20.22,3.46-39.19,10.85-58.57,17-1.89.6-4.6,1.46-4.92-1.14-.21-1.66,1.65-4.8,3.2-5.27,18.16-5.52,34.72-16.49,54.6-16.35,1.29,0,2.58-1.69,3.87-2.6-1.28-.38-2.54-.87-3.85-1.12-9.78-1.82-19.54-3.8-29.37-5.33-11.17-1.75-23.46-6.75-33.38-3.86-20.58,6-41.39,8.6-62.38,11.14-1.94.23-5.12,1.25-5.37-1.69s2.18-4.06,5.35-4.52c14.56-2.09,29.07-4.59,47.44-7.57-41.42-6.7-80.15-8.87-116.85-24.62,11.38,18.54,27.09,31.66,54.21,45.87,27.4,14.35,56.1,26.1,87.5,28.12,8.52.54,17.22-2.84,25.91-3.34,6.17-.36,9.53-11,18.22-3.14,11.71,10.66,27,9.73,41.86,8.86C458,530,475.93,526,492.48,536.78Zm-6.91,282.35a2.46,2.46,0,0,0,1-1.79c-1.83-12.69-3.76-25.37-5.66-38.05-1.67-11.18-13.26-19-21.89-15.17-22.82,10.07-33.43,29.2-38.61,52.09-.49,2.14-2.22,7.63,4.6,9,18.44,3.78,30.71,16.49,41.34,31.29C470.06,842.73,472.93,828.41,485.57,819.13ZM474.48,265.46c2.33-17.78-.61-33.95-12-47.83-4.62-5.65-11.06-7.89-17.63-1.52-9.11,8.86-4.36,19.64-3.27,29.34.68,6,4.14,13.81,8.89,16.93,9.28,6.09,19.08,11.12,26.32,20.29C473.63,277.2,473.77,270.86,474.48,265.46ZM501,1015.9c-9.57-6.88-21.26-12.94-31.28-12.55-23.15.89-46.09,4.23-69.26-.2-19.66-3.76-39.11-7.92-57.6-16-6.27-2.74-11.13.72-11.6,7.43-.8,11.45,12,25.44,24.05,28.36,15.19,3.68,30.22,7.27,45.93,9.11,14.92,1.75,29-2.52,43.66-1.82a44.21,44.21,0,0,0,13.87-1.66C472.6,1024.42,486.47,1020.24,501,1015.9Zm-24-93.84c-4.83-11.07-9.52-20.27-10.68-30.56-.88-7.83.93-16.84-2.37-23.34A69.45,69.45,0,0,0,429,835.81c-6.86-3-12.4.85-16,7.07-7.49,13.14-8,27.11-3.92,41.25,2.41,8.43,4.58,18.09,12.67,22.44,7.56,4.07,15.43,7.26,22.74,12.13,3.94,2.63,7.05,13.42,16.16,4.78C463.45,920.92,469.62,914.87,477,922.06Zm-11.42,75.29c-4.28-2.14-5.84-2.78-7.25-3.65-8.9-5.47-17.1-13.41-26.76-16.06-31.21-8.58-61.13-18.46-84.39-42.8-5.74-6-13.94-.07-20.89,1-4.43.67-3.19,5-3.19,8.14,0,18.36,27,43.19,48.29,45.06,15.89,1.4,31,6.89,47,8.74C433.61,999.53,447.91,995.31,465.56,997.35ZM450,948c.07-4.21,2.18-10.47.17-12.3-10.06-9.18-21.23-17.52-34.89-20.26a8.16,8.16,0,0,0-9.66,9.74c2.75,14.76,11.05,26.46,22.44,36.18s22.71,19.67,36.81,25.53C456.6,975.13,449.75,962.89,450,948ZM435,275.21c2.55-5.44,11.77-8.35,4.25-17.39-5.53-6.65-7.84-15.87-12.43-23.44-5.26-8.69-13.62-13.92-23.71-14.25-4.2-.13-8.16,4.22-9.9,8.57-5.17,12.94-.95,24.82,4.9,36.38,9.29,18.38,26.89,29.08,41.45,45.06C434.64,297.6,429.44,287,435,275.21Zm9.66,47.61c-4.66-1.07-6.36-5.65-9.35-8A346.62,346.62,0,0,1,405,288c-7-7-11.37-17.56-19.38-22.6-14.23-9-28.39-18.71-44.82-23.76-10-3.06-20.55-5.79-29.65.66-5.94,4.21-4.14,12.89-1.74,18.07,7.78,16.77,21,28.9,37.89,36.48,20.49,9.21,40.94,18.75,63.63,21.6C422.18,319.87,433.4,321.36,444.62,322.82Zm-17.19,811.83c5-7.69,3.19-7.55-3.94-7.94-12.22-.68-20.85-7.22-25.58-18.42-3.54-8.4-.56-15.91,5.1-22.49-6.88,3.26-13,7-19.72,9.16-14.25,4.5-20.38,15.25-14.1,24.85,8.65,13.23,19.55,25.28,23.34,41.25.43,1.84.47,4.86-.61,5.73-2.31,1.88-5.37.07-6.14-2-5.28-14.34-14.79-26.27-22-39.52-6.3,5.69-7,14.34-10.13,21.52a405.7,405.7,0,0,1-31.35,57.91c-1.76,2.72-4.45,6.71-8.2,3.89-3-2.23.67-5.37,1.9-7.39a352.89,352.89,0,0,0,26.21-51.54c-2.44,3.35-6.34,3.25-9.56,4.47-16.39,6.22-28.63,18.85-43.26,27.76-2,1.23-3.91,2.4-5.63.89-.58-.52.23-4,1.36-4.87,13.87-11.3,27-23.5,43.63-31.15,6.32-2.92,15.44-1.27,18.93-7.9,4.87-9.27,7.65-19.64,11.2-29.59.42-1.18.05-2.64,0-4a37.07,37.07,0,0,0-4.51,1.09q-35.22,13.32-70.39,26.73c-7,2.69-16.92,3.6-20.41,8.77-8,11.88-12.15,26.29-19.25,38.9-9.75,17.33-20.45,34.16-31.48,50.71-3.37,5-6.67,14.73-12.83,12.59-6-2.08,3.15-7.36,3-11.93,0-.44.88-.84,1.21-1.35,14.74-23,28.86-46.45,40.14-71.41,5.81-12.84,4.45-14.92-1.32-11.9-11.41,6-26.39,2.71-34.63,18.42-8.37,15.95-22.43,29-34.34,43-2,2.31-5.92,4-8.92,1.18-3.49-3.22,1-4,2.34-5.75,10.49-13.46,21-26.94,32.2-41.38-5.11,1.34-8.91,2.1-12.54,3.35-16,5.51-31.85,11.26-47.87,16.62-1.41.48-3.53-1.15-5.33-1.81,1-1.31,1.79-3,3.08-3.86a33.2,33.2,0,0,1,7.45-4.14c35.41-13,70.85-25.9,108.09-39.49-10.35-2.88-19-5.21-27.67-7.71-12.24-3.54-24.34-7.61-36.69-10.69-12-3-24.2-5-36.28-7.56a5,5,0,0,1-3.17-2.71c-.86-2.49,1.95-1.38,2.77-2.26,4.6-5,9.06.17,13.27.64a195.56,195.56,0,0,1,35.8,7c19.34,6,38.85,11.43,58,18.06,14.44,5,27.53-7.45,41.61-10.88,13.82-3.36,25.77-12.72,40.36-14.66,1.7-.23,3.2-2,4.79-3.06-1-1.21-1.68-2.85-2.93-3.56-10-5.78-20.11-11.55-30.37-16.94-2.52-1.32-6.45-2.63-8.61-1.6-23.85,11.38-48.9,12.27-74.49,9.49-2.45-.26-4.18-.46-4.18-3.53,0-3.82,2.79-2.69,4.61-2.61a192.45,192.45,0,0,0,65.51-8.42c-20.67-12.88-44-18.24-64.81-29.27-1.56-.82-4.24-.64-2.89-3.18a4.41,4.41,0,0,1,5.51-2.12c26.13,9.55,52.59,18.29,76.94,32.14,3.13,1.78,7,2.21,10.55,3.27a9.41,9.41,0,0,0-.33-3.05c-8.78-18.47-17.67-36.89-26.43-55.38-1.14-2.41-1.61-5.14,1.06-7.16,2.89-2.18,3.62,1.32,4.13,2.26,7.65,14.1,14.5,28.67,22.63,42.48,6.75,11.48,4.77,29,21.73,33.51,6.53,1.75,9.36,11.51,18.48,7.52,10.93-4.79,22.21-8.77,34.29-13.47-7.46-1.85-13.88-3.58-20.37-5-17.76-4-23.71-16-17.16-32.81.79-2,10-6.44.38-9.11-15-4.17-27.91-10.59-33.9-26.23-2.31-6-4.54-12.87-12-13.64-6.18-.64-11.68-3.3-18.23-3.38-13.56-.16-22.69,4.27-27.8,17.17-1.91,4.84-4.84,8.91-11.44,3.66-7.57-6-17.36-6.79-26.59-6.8-12.15,0-18.45,8-22.88,18.65-5.09,12.25-7.13,24.35-2.87,37.14.59,1.78,1.2,3.56,1.81,5.33-2.31.67-4.69,2-6.92,1.84a68.26,68.26,0,0,1-11.6-2.58c-18-4.88-35.53-7.46-52,5.29-13.86,10.74-21.9,37.92-15.84,54,2.88,7.66,7,16-5.51,20.92-7.18,2.79-15.09,7.3-19.31,13.37-10.31,14.85-8.85,30.83-.69,46.9,12.12,23.85,37.94,29,54.62,23.68,7-2.21,7.71-1.28,7.57,5.1-.27,12.45,5.35,23.07,13.66,31.37,11.64,11.64,24.65,17.11,42.54,10.52,16.73-6.17,43-33.36,46-51,1.3-7.5,5.64-15.81,11.24-20.81,4.29-3.83,6.82,4.82,10,7.76,17.29,15.78,37.52,18.52,59,13.1,9.88-2.49,19-7.48,19.49-20.37.28-7.4,4.51-13.82,12.41-12.89,15.81,1.86,35.31-9.16,43.84-22.83C420.18,1157.68,420.89,1144.78,427.43,1134.65Zm11.23-804.72c-15.49-2.44-29.72-4.41-43.83-7-7.13-1.31-14.65-6.51-20.95-5.13-14.47,3.16-29.15,6.49-42.09,15.11-10.4,6.92-13.86,20.69-5.47,28.2,15.42,13.79,32.75,8.11,48.55,2.85C397.52,356.41,418.36,344.46,438.66,329.93ZM417.46,965c-10.55-11.51-15.34-25.12-22.47-37.25-15.05-25.62-34.08-48.93-51.9-72.87-2.29-3.07-6.38-6.82-11-5.58-4.31,1.17-8.29,3.83-9.14,9.19-1.58,9.9.84,18.87,3.63,28.51,7.31,25.28,24.65,41.94,44.6,56.65C384.77,953.69,400.39,959.88,417.46,965Zm-19.21-51.46c8.45-4.92,13-12.18,5.75-22.93-8-11.84-7.94-26.21-3.18-38.74s5.69-23.64.1-35.56c-4.37-9.34-8.15-19.15-20.32-21.61a14.68,14.68,0,0,0-3.81,1.47c-7.91,5.81-9.08,15.19-13,23.32-9.28,19.38-4.94,36.54,4.64,53.74,6.11,11,16.29,19,21.43,30.93C391.33,907.54,395,915.46,398.25,913.57Zm-47.42-66.26c-3-20.37,9-38.49,8.48-58.73a173.48,173.48,0,0,0-6.66-42.23c-6.69-24.26-14.86-27.28-36.36-15.77-3.42,1.83-7.08.3-7.27-4.29-.36-8.9-.83-17.74-1.77-26.65-2.24-21.07-16.66-30.31-35.46-20.59-11.62,6-18.62,16.09-20.84,29.33-.5,3-2.42,5.74-3.68,8.6-1.43-1.09-3.36-1.89-4.19-3.33-2.93-5.09-5.25-10.53-8.22-15.59-12.1-20.64-52.22-34.84-72.09-15.43-9.11,8.9-16.86,8.8-28.79,5.23s-26.56-2.93-37.21,7.25c-15.4,14.71-15.34,32.84-9,51.28,1.69,5,4.42,10.5,10.67,13.27,4,1.78,6.83,6.32,10.19,9.62-4.72,2.8-2.73,7.91-3.23,11.64-4.18,30.9,23,54,50.48,53.79,16.83-.13,33.63-2.68,50.47-3.66,3.21-.18,6.54,1.88,9.82,2.9-2.26,2.09-4.29,4.53-6.82,6.21A157.8,157.8,0,0,1,194.39,849c-16.68,8.62-24.65,29.47-15.89,42,11.92,17,38.74,23,56.7,12.77,6.52-3.72,13-5.19,19.22,1.14a51.42,51.42,0,0,0,9.81,7.42c21,12.9,44.35,8.07,67,8.52,1.59,0,1.83-.27.71-1.95-5.52-8.27-11.43-16.37-14.21-26.14-3.67-12.9-6.8-25.64-3.28-39.38,1.39-5.41,14.93-12,.08-17.45-3.82-1.39-6.45-7.6-11.38-4.06s-13.82,6.92-13.32,12.6c1.63,18.53,1.76,36.54-4.61,54.29-.87,2.43-2.34,3.29-4.12,3.08-.85-.1-2.13-2.5-2-3.77.37-4.86.6-9.86,2-14.48,3.45-11.45-1.2-23,1.24-34.84-22.66,15.27-45.25,30-70.94,39a31.33,31.33,0,0,0-4.45,2.53c-3,1.63-4.17-1.29-3.66-2.52,1.26-3,3.13-5.65,6.87-7,7.18-2.54,14.43-5.32,21-9.12,12-7,23.58-14.74,34.65-21.74-12.08-3.46-25-7.2-37.92-10.82-2.81-.79-3.51-2.78-2.65-4.92.53-1.33,3-3.26,3.72-2.94,9.61,4.3,20.56,3.61,30.08,8.82,4.73,2.58,12.13,4.35,16.58,2.44,7.34-3.14,13.28-9.55,19.78-14.62,1.87-1.46,2.75-3.23,0-4.59-4-2-8.15-3.55-12.12-5.53-13-6.48-25.5-16.78-39.11-18.55-13.37-1.75-28,2-42.31,2.35A510.13,510.13,0,0,1,142,799.13c-2.38-.23-4-.82-4-3.27-.07-2.88,2.24-2.9,4.25-2.9,7.27,0,14.54.09,21.8.08q31.56,0,63.12-.14a29.52,29.52,0,0,0,4.63-.73,36.09,36.09,0,0,0-3.87-3.16c-5.13-3.15-10.21-6.38-15.51-9.22-18.49-9.89-37.25-19.32-55.56-29.55-15.64-8.74-33.44-13.25-47.13-26,32.72,6.67,60.75,25,91.12,38.13-5.59-3.61-4.93-10.41-8.14-15.2-4.91-7.29-9.88-14.71-13.51-22.67-2.93-6.44-4.54-13.55-9-19.23-1.51-1.93-2.77-3.77-.94-5.47s4.61-1.84,6,.6Q188.29,724,201,747.78c3.7,7,5,17.07,10.69,20.71,18.88,12.17,39.24,22.06,59,32.83l2.79,1.49c-.23-1.15-.14-2.51-.74-3.41-3.19-4.72-6.42-9.43-9.89-13.95-11.59-15.11-23.33-30.12-34.87-45.27a5.15,5.15,0,0,1-.57-4.56c1.06-2,2.32-.26,3.54.58,15.79,10.93,25.48,27.21,37.08,41.85S284.61,813,305,819.65c1.13.37,2.28.66,3.42,1a7.08,7.08,0,0,0,.06-2.24c-1.78-5.68-4.06-11.23-5.4-17-5.62-24.24-12.72-47.94-24-70.24-1.53-3-5.06-7.93-1.09-9.67,4.6-2,7.25,3.78,8.92,7.37,9.16,19.67,17.05,39.82,21.67,61.13.38,1.73,2,3.19,3.1,4.78.41-.35,1.05-.62,1.21-1.06,4.73-12.72,9.28-25.51,14.17-38.16,1.37-3.54,1.93-9.39,6.52-8.91,3.27.35,2.1,6.12,1.29,8.64-4.55,14.29-7.11,29.52-15.67,42.15-6.79,10-5.17,27,4.78,34,8.24,5.81,16.76,11.25,25.2,16.78C349.43,848.37,350.87,847.54,350.83,847.31ZM56,1618.34V61.66l-48-48V1666.34Z"/></svg>