<svg id="Card" xmlns="http://www.w3.org/2000/svg" viewBox="0 0 1024 1680"><defs><style>.cls-1{fill:#f2f0ed;}.cls-2{fill:#8c1707;}.cls-3{fill:#16592d;}.cls-4{fill:#d82e21;}.cls-5{fill:#593831;}</style></defs><rect class="cls-1" x="14.5" y="14.5" width="995" height="1651"/><polygon class="cls-2" points="966 1619.17 966 60.83 1018 8.83 1018 1671.17 966 1619.17"/><polygon class="cls-2" points="60.83 58 8.83 6 1015.17 6 963.17 58 60.83 58"/><polygon class="cls-2" points="8.83 1674 60.83 1622 963.17 1622 1015.17 1674 8.83 1674"/><path class="cls-3" d="M946.5,983.73l-2.32-4-1.12-2c-5.82-10.1-11.84-20.55-10.11-34.21,1-8.17.77-16.74.53-25-.11-3.7-.23-7.52-.23-11.34v-5.76l3.57,4.52c1.72,2.18,3.46,4.29,5.14,6.33a165.27,165.27,0,0,1,10.4,13.52l1.8,2.75c2.43,3.69,4.9,7.44,7.46,11l.38.52v13l-.06.21c-3.49,11.85-7.12,22.6-10.81,32l-1.52,3.87Z"/><path class="cls-3" d="M958.27,929.94c-9.17-11.11-18.64-22.6-23.75-35.72-3.76-9.66-4.26-21.05-4.8-33.11-.23-5.32-.47-10.81-1-16.29l-.65-6.61,4.19,5.15c3.25,4,6.41,8,9.46,11.87l.09.11c6.62,8.4,12.87,16.33,19.67,23.73l.53.57v54.82Z"/><path class="cls-3" d="M958.48,869.75c-3.54-4.16-6.63-7.86-9.45-11.29-1.93-2.35-4.08-4.72-6.15-7-6.09-6.72-12.38-13.66-15-21.87-3.3-10.52-4-21.92-4.7-33-.29-4.65-.59-9.46-1.09-14.15L922,781.3l3.12-1.13.65,1a11.82,11.82,0,0,1,.68,1.14,5.07,5.07,0,0,0,.87,1.3A364.46,364.46,0,0,0,961,806.78l1,.58v66.53Z"/><path class="cls-3" d="M958.91,801.75c-5.66-3.66-13.11-8.51-20.54-13.6-1.29-.88-2.66-1.75-4.11-2.67-6-3.85-12.28-7.8-14.31-13.54-3.38-9.59-4.84-19.55-6.39-30.11-.62-4.24-1.26-8.57-2-12.84l-.86-4.83,4,2.85c5.4,3.86,10.56,8.14,15.55,12.29,9.51,7.89,19.34,16.05,30.57,20.91l1.21.53v43Z"/><path class="cls-3" d="M958.86,757c-9.17-6.38-18.05-13.4-26.64-20.19l-1.09-.86c-1.84-1.45-3.83-2.89-5.76-4.28-5.88-4.22-12-8.6-15.49-14.57-3.75-6.32-5.27-13.89-6.73-21.21-.59-2.9-1.19-5.91-1.93-8.76a6.39,6.39,0,0,1,.83-4.86,3.18,3.18,0,0,1,2.86-1.22,5.08,5.08,0,0,1,2.6.65l1.68,1.07a129.89,129.89,0,0,1,11,7.49,159.54,159.54,0,0,0,40.55,23.39l1.28.49v45.05Z"/><path class="cls-3" d="M958.92,711.79q-9.28-6-18.59-11.89-11.94-7.64-23.88-15.29c-1.34-.86-2.78-1.72-4.17-2.55-6.69-4-13.62-8.17-16.67-15.57-3.74-9.1-6.4-18.75-9-28.09-1.1-4-2.24-8.13-3.46-12.2-.21-.69-.45-1.39-.69-2.08a29.48,29.48,0,0,1-1.19-4s0-.1,0-.19c-.26-1-.66-2.45.22-3.61a2.43,2.43,0,0,1,1.95-.94,4.76,4.76,0,0,1,2.72,1.11l9.05,6.36.91.64C902,627.64,908,631.9,914,636.13A110.94,110.94,0,0,0,948.05,653a3.06,3.06,0,0,0,.85.09,7.6,7.6,0,0,0,1.82-.23,6.42,6.42,0,0,1-2.06-.69c-1.6-.93-3.29-1.8-4.92-2.65-1.29-.67-2.55-1.32-3.8-2-22.85-12.65-44.79-25.57-62-44.54-8.86-9.77-13.52-22.11-18-34.05-3.35-8.88-6.81-18-11.95-25.92l-.68-1,2.45-2.41,1,.68L858,545.1c5.23,3.53,10.65,7.17,16,10.85q3.45,2.37,6.88,4.77c18.69,13,38,26.43,60.79,32.4a4.67,4.67,0,0,1,1.71.93,7.59,7.59,0,0,0-2.48-3c-2.86-1.44-5.73-2.84-8.6-4.24l-.25-.12c-10.69-5.21-21.72-10.58-31.81-17.78-6.38-4.55-13.23-8.77-19.86-12.85-19.78-12.16-40.22-24.74-51.52-48-3.21-6.62-6.84-13.19-10.34-19.55q-2.4-4.32-4.75-8.67l-3.38-6.28,6.15,3.6q6.54,3.84,13.12,7.62l.15.09c10.44,6,21.16,12.23,31.48,18.71a234.89,234.89,0,0,0,53.19,24.58,2,2,0,0,0,.54.07,11.06,11.06,0,0,0,2.41-.44,61.78,61.78,0,0,0-9-4.94c-21.5-8.86-39.57-18.06-55.24-28.14L851,493.31c-7.67-4.94-15.56-10-23.53-14.59-2.58-1.48-5.24-2.94-7.82-4.35l-.09-.05c-14-7.63-28.36-15.53-38.24-30.53l-3-4.51,5.18,1.49c3.85,1.1,7.63,2.22,11.37,3.32,8.61,2.54,16.65,4.92,24.91,6.94,15.71,3.84,31.7,7.09,45.26,9.78a12,12,0,0,0,2.26.2,36.54,36.54,0,0,0,5.11-.51l.32,1.47-.21-1.48,1-.14,0-.16a5.57,5.57,0,0,0-2.35-1.23c-5.15-1.11-10.39-2.09-15.46-3-10.48-2-21.33-4-31.7-7.18-6-1.83-12.22-3.38-18.25-4.87-15.68-3.88-31.89-7.89-46-17.46l-.21-.15c-3-2-6.65-4.5-6.49-9.54.08-2.23,3.65-3.51,4.61-3.51a2.17,2.17,0,0,1,1.48.55c2.74,2.42,6.09,2.63,9.28,2.63l1.84,0h.17l1.69,0a29.27,29.27,0,0,1,4.08.24c3.12.45,6.38,1,9.26,1.51,7.75,1.33,15.74,2.7,23.56,2.7a50.33,50.33,0,0,0,19.16-3.47,10.18,10.18,0,0,1,2.63-.54,8.16,8.16,0,0,0,1.5-.26v-.07c0-1.37-1.41-1.65-2.54-1.65a6.85,6.85,0,0,0-1.17.1,113.54,113.54,0,0,1-20.2,1.88,94.15,94.15,0,0,1-16.55-1.44c-7.75-1.39-15.66-2.6-23.31-3.76-13.21-2-26.86-4.11-40.12-7.16-.92-.21-1.87-.41-2.85-.61l-.11,0c-7.59-1.58-17-3.55-21.18-13.25-2.59-6.08-4.9-12.37-7-18.26a7.83,7.83,0,0,1,0-4.16c0-.25.09-.5.12-.73.37-1.81,2.2-1.81,2.89-1.81a4.57,4.57,0,0,1,2,.35,148.25,148.25,0,0,0,19.58,7c2.94.89,6,1.81,8.92,2.8,18.09,6.05,37.59,8.93,63.23,9.33l.63,0,.45,0c-.11-1.63-.66-2-1.77-2.16-15-2.13-28.77-4.1-41.94-6-17.37-2.54-33.36-8.47-51-15.4-11.3-4.44-14.46-14-17.52-23.3-1.84-5.58-3.74-11.34-7.4-16.18l-4.22-5.58,6.54,2.5c3.08,1.19,5.92,2.24,8.59,3.24,5.54,2.06,10.32,3.84,15,5.91,24.15,10.58,43.27,16.3,62,18.56a6.78,6.78,0,0,0,1,.07,7.1,7.1,0,0,0,4.61-1.69l0-.05c-23.24-3.58-43.3-9.63-61.33-18.51a84,84,0,0,0-12.8-4.59c-11.28-3.4-22.95-6.9-28.63-20.68-2.14-5.2-4.67-10.32-7.36-15.74-1.32-2.68-2.69-5.44-4.07-8.35l-.51-1.05,2.53-2.11,1,.67c12.38,8.88,26.14,13.32,39.45,17.62,6.24,2,12.66,4.09,18.81,6.58a11.41,11.41,0,0,0,1.86-1,3.42,3.42,0,0,0-1-.88c-4.24-1.73-8.58-3.4-12.77-5-7.55-2.9-15.34-5.89-22.78-9.36-3-1.4-6.33-2.59-9.53-3.74-9.2-3.3-18.71-6.72-24.33-15.83-6.45-10.44-12.12-21.52-17.61-32.24-2.68-5.22-5.45-10.62-8.3-15.94-.66-1.22-1.31-2.44-2-3.66l-.16-.29c-6.59-12.33-13.4-25.09-23.22-36l-3.87-4.32,5.71,1c.86.15,1.62.31,2.31.46a15.89,15.89,0,0,0,3,.48h.33a39.58,39.58,0,0,0,4-.28c1.45-.14,2.92-.3,4.38-.3,3.8,0,8.56.91,11.66,7.94a364.68,364.68,0,0,0,19.15,38.06c4,6.83,9.17,13.25,14.14,19.46l.08.1c1.66,2.08,3.39,4.23,5,6.38l.24.06c-1.85-3.67-3.93-7.59-6.33-11.94q-3.45-6.27-6.88-12.55c-6.58-12-13.35-24.41-20.36-36.37-1.16-2-1.44-3.63-.83-5,.81-1.86,2.77-2.29,3.94-2.54l.51-.12a14.67,14.67,0,0,1,4.31-.6c10,0,22.89,8,26.08,16.18,8.16,20.85,16.47,41.69,24.5,61.84l3.94,9.87c.16.41.3.87.44,1.33a5.94,5.94,0,0,0,.73,1.76,1.44,1.44,0,0,0,.38,0c.46-.1.71-.16.29-2.56,0-.25-.08-.5-.12-.73l0-.15c-.57-3.8-1.17-7.75-2.61-11.14-2.93-6.87-5.57-14-8.14-20.86-5.67-15.24-11.54-31-20.68-44.86l-.06-.09c-.62-.91-1.91-2.82-1-4.52a2.79,2.79,0,0,1,2.59-1.41,6.29,6.29,0,0,1,1.34.17c2.23.51,4.48,1,6.73,1.45l.13,0c8.61,1.79,17.51,3.65,25.79,7.68h0c1.23.24,2.54.43,3.81.62a41.73,41.73,0,0,1,8.92,2c2.31.88,5,1.67,7.57,2.43,7.45,2.18,15.15,4.45,18.44,9.84,9.11,14.95,14.9,32,19.8,48.24,2.93,9.69,6.68,19.32,10.31,28.64,6.25,16,12.69,32.58,15.32,50.15a4.1,4.1,0,0,0,1.12,1.48V332a12.32,12.32,0,0,1,0-1.71c.52-4.78-1-9.31-2.48-13.69-.59-1.75-1.2-3.56-1.68-5.39-3.74-14.15-8.71-28.24-13.09-40.68-3.52-10-7.28-20-10.92-29.67-2-5.38-4.31-11.48-6.49-17.4-.41-1.11-1-2.35-1.58-3.66-1.83-4-3.72-8.11-2-10.84a4.24,4.24,0,0,1,3.65-2.31c1.84,0,3.34,1.28,4.8,2.52a8.1,8.1,0,0,0,2.67,1.79c11.9,1.83,19.58,9.4,23.48,23.13,2.62,9.25,5.58,18.53,8.44,27.5,3.64,11.43,7.39,23.18,10.49,35q1.26,4.79,2.54,9.56c4.82,18.08,9.81,36.79,13,55.7.09.53.16,1.13.23,1.78.4,3.61.87,4.94,1.76,4.94h0c.27-.45.42-1.84-.19-5.73l-.78-4.88c-3.16-19.95-6.42-40.55-12.87-60.14-5.17-15.73-9.84-31.89-14.36-47.53l-.12-.43c-1.94-6.7-4-13.64-6-20.45l-1.67-5.62,4.76,3.43c2.7,1.95,5.51,4.06,8,5.93a224.62,224.62,0,0,0,19,13.3c11.67,7,14,17.79,16.41,29.2l.12.56c1.73,8.11,3.8,16.31,5.81,24.24l0,.12c2.87,11.34,5.83,23,7.88,34.77,1,5.69,1.81,11.51,2.6,17.13,1.67,12,3.4,24.35,7,36.11a2.6,2.6,0,0,1,.13.72A1,1,0,0,0,851,389l-.13-2.92A165.53,165.53,0,0,0,849,364.73c-3.32-18.77-7.14-38.25-11.36-57.89-2-9.47-4.36-18.64-6.83-28.36l-.07-.27q-1.63-6.42-3.25-12.92l-1.6-6.51,4.9,4.57,3.45,3.16.22.21c2.71,2.46,5.25,4.78,7.69,7.26,2.11,2.16,4.53,4.28,6.86,6.33,5.81,5.11,11.83,10.39,14.51,17.15,4,10,5.6,21,7.18,31.61.62,4.2,1.27,8.54,2.05,12.73C877,364.94,882.37,393.73,883,422a8.49,8.49,0,0,1-.24,1.88l0,.11a5.2,5.2,0,0,0,1-2.12c-.1-4,.05-8,.2-11.84.25-6.3.51-12.78-.36-19.28-3.23-24.36-8.25-48.5-13.11-71.84-.74-3.54-1.47-7-2.19-10.54l-1.5-7.28,4.95,5.55c18.94,21.2,36.3,42.68,40.76,72.25,2.88,19.08,6.53,38.38,10.06,57l0,.11c.79,4.13,1.58,8.33,2.37,12.54,1.52-20.65-3.47-40.42-8.71-61.19-1.85-7.34-3.76-14.92-5.36-22.53L909.69,359l4.49,3.91c6.82,5.93,10.78,13.19,14.6,20.2,2.93,5.37,5.68,10.43,9.57,14.73,3.22,3.56,7.22,8,8.27,12.89,4.5,21.21,8.76,42.84,12.87,63.75l2.5,12.69v226.6Zm-263.14-519c-.4,0-.94.13-1.08.43a2.34,2.34,0,0,0,.43,2c8,10.08,12.73,21.85,17.29,33.22,1.87,4.66,3.78,9.43,5.87,14,7,15.14,12.63,31.15,18.09,46.64l.06.18c2.27,6.42,4.61,13.06,7,19.53a9.63,9.63,0,0,1,.32,1.22c1.63-.71,1.51-1.07,1.34-1.56-1.32-3.93-2.43-8-3.51-11.9-1.94-7.09-4-14.41-7.27-21.15-3.47-7-6.27-14.38-9-21.5-2.37-6.21-4.79-12.57-7.61-18.64-1.69-3.62-3.28-7.29-4.82-10.85C708.22,213.5,703.36,202.29,695.78,192.79Z"/><path class="cls-3" d="M958.21,421.87c-2-3.6-3.73-7.34-5.45-11-.75-1.58-1.49-3.16-2.26-4.74l-2.26-4.65,4.8,1.92c1.48.59,3,1.23,4.42,1.86l.26.11,3,1.29,1.24.51v15l-2.12.48v0l-1,.38Z"/><path class="cls-3" d="M959.21,402a79.78,79.78,0,0,1-12.9-6.76c-7.66-5.14-12.06-12.46-16.32-19.55-3.61-6-7.34-12.21-13-16.94l-5.26-4.36,6.78.84c10.81,1.33,20,5.33,28.83,9.2,4.56,2,8.86,3.87,13.35,5.41l1.36.46v32.9Z"/><path class="cls-3" d="M959.28,365.09c-3.21-1.24-6.44-2.43-9.66-3.63l-1.77-.66-6.31-2.3c-20.14-7.27-41-14.79-51.47-37.36-.3-.64-1.6-3.38-1.61-3.38l-.83-1.76,2.55-.48a3.34,3.34,0,0,0,.36-.1,5.1,5.1,0,0,1,1.58-.31,2.69,2.69,0,0,1,1.13.23c10.21,4.32,21.26,6.59,32,8.79,5.25,1.07,10.68,2.19,16,3.54l.76.19.43.66c6.82,10.49,13.34,21.36,19.37,32.31l.25.44v4.86Z"/><path class="cls-3" d="M926.2,1022.38c1.14-9.66,2.19-17.56,3.31-24.86a91.14,91.14,0,0,0,.8-10.73,83.6,83.6,0,0,1,1.41-14.59l1-4.9,2.62,4.28c.89,1.46,1.76,2.85,2.59,4.19,1.66,2.66,3.22,5.15,4.67,7.69,1.13,2,2.24,3.95,3.34,5.93l2,3.58-.4.91c-7.62,17.54-14,26.07-18,30.13l-4.09,4.17Z"/><path class="cls-3" d="M934.33,322.5a141.18,141.18,0,0,1-23.51-5.72,99.29,99.29,0,0,0-11.06-2.93c-8.27-1.85-16.81-3.76-23.52-10-5.12-4.74-9.36-10.17-13.86-15.93-2-2.51-4-5.1-6.1-7.64L853.56,277h4.26c.92,0,1.82-.06,2.7-.12s1.66-.11,2.49-.11a11,11,0,0,1,3.15.4,186.64,186.64,0,0,0,43.65,7.55l.89.05.56.7c8.8,11,17.23,22.38,25,33.9l2.64,3.88Z"/><path class="cls-3" d="M904.94,988.29c-3.38-8-6.77-16.39-10.06-24.91l-.32-.81.38-.78c1.53-3.16,2.81-5.79,4.23-8.47a365.93,365.93,0,0,0,25.41-58.84l.4-1.22,3.5.56v1.28c0,1.57,0,2.82,0,3.85,0,1.73,0,2.84,0,3.93,1,19.47,2.13,41.53-8.45,62.56-1.72,3.4-3.41,6.81-5.1,10.22-2,4-4.2,8.48-6.38,12.76l-1.95,3.83Z"/><path class="cls-3" d="M891.32,954c-4.38-11.67-8.68-23.84-12.77-36.16l-.36-1.1.77-.86c21-23.4,32.57-52.92,41.15-78.71l.39-1.16,3.39.39.11,1.21c.28,2.94.59,6,.91,9,.76,7.38,1.55,15,1.94,22.68.83,16.51-6.1,30.73-12.79,44.48-1.59,3.25-3.22,6.61-4.71,9.91-4.44,9.87-9.21,20.36-14.38,30.5l-2.06,4Z"/><path class="cls-3" d="M919.71,1021.31c-3.72-7.84-7.37-15.86-10.84-23.85l-.39-.89.46-.86a209.84,209.84,0,0,0,14.4-33.17l.42-1.24,3.55.69-.07,1.31c-.41,7-.69,13.52-1,19.8-.56,13.32-1,24.8-2.62,36.36l-.17,1.26-1,6.57Z"/><path class="cls-3" d="M876.33,911.14c-3.46-10.66-6.8-21.52-10-32.26l-.3-1,.69-.82c5.57-6.59,9.72-14.41,13.72-22l2.45-4.62c11.11-20.93,22.59-42.57,29.18-66.64l1.85-6.74,2,6.7c15,50.34-9.29,87.2-32.78,122.85l-5.58,8.48Z"/><path class="cls-3" d="M863.8,869.94c-4.11-14.45-8-29.33-11.67-44.24l-.19-.78.4-.69c2.56-4.4,5-8.94,7.46-13.34l.18-.32c1.37-2.49,2.73-5,4.12-7.47,12.12-21.69,21.17-44.19,30.76-68q2.88-7.17,5.81-14.37L903,715l1.47,6c.4,1.64.83,3.21,1.25,4.75a88.47,88.47,0,0,1,2.27,9.83c.54,3.54,1.34,7.24,2.11,10.81,2,9.1,4,18.52,2.25,27.24-2.72,13.41-8.7,26.28-14.48,38.73-1.46,3.15-3,6.4-4.39,9.6-8,17.93-17.65,34.57-26,48.48l-2.37,4Z"/><path class="cls-3" d="M903.52,281.45a210.59,210.59,0,0,1-28.7-5.45A90.87,90.87,0,0,0,864,274.1c-8.2-1.1-16.68-2.25-23.33-8.06-1.8-1.58-3.58-3.18-5.37-4.79a193,193,0,0,0-20.25-16.54l-5.33-3.65h6.46c1,0,1.84,0,2.61,0l.17,1.49,0-1.5,1.74,0a21,21,0,0,1,2.24.1l26.58,2.84.29,0,26.88,2.87.73.08.5.52c9.47,9.87,18.69,20.22,27.41,30.74l3.2,3.87Z"/><path class="cls-3" d="M850,816.72c-3.5-14.79-6.78-29.85-9.75-44.75l-.6-3,3,.68c.39,0,1.2-1,1.55-1.39s.4-.49.58-.69c12.08-13.14,20.16-28.67,26.48-42.13.76-1.63,1.53-3.25,2.3-4.88l.13-.26c6.29-13.28,12.79-27,16-42.91l1.5-7.57,2.36,7.35c.7,2.14,1.41,4,2.11,5.87,1.43,3.79,2.68,7.06,2.92,10.54a34.92,34.92,0,0,0,1.68,7.48c1.9,6.26,4.05,13.32-2.54,21.68-5.48,7-8.81,16-12,24.74-1.51,4.09-3.06,8.31-4.84,12.34-1.92,4.35-3.84,8.86-5.53,12.84-4.65,10.91-9.47,22.19-15.05,32.91-1.95,3.77-4.1,7.6-6.55,11.73l-2.53,4.25Z"/><path class="cls-3" d="M839,766c-1.15-5.88-2.24-11.77-3.26-17.5l-.08-.45.13-.44a2.34,2.34,0,0,0-.38-1.56l-.12-.21-.08-.31c-1.38-7.86-2.47-14.59-3.3-20-.38,2.93-.77,5.92-1.2,9l-.66,4.74-2.91-3.79c-11.47-14.93-21.31-31.23-30.83-47-4.29-7.12-8.73-14.47-13.28-21.63-5.6-8.8-7.31-18.36-9-27.6-.79-4.39-1.6-8.92-2.82-13.25a188.84,188.84,0,0,1-4-19c-.54-3.09-1.08-6.19-1.7-9.34l-.25-1.25,3.3-1.24.64,1.1a405.26,405.26,0,0,0,23.39,35.31c12.12,16.7,29,37.91,52.13,53.87l.91.68a9.73,9.73,0,0,0,1.75,1.13l.07-.1a9.64,9.64,0,0,0-2.29-3.93c-3-3-6.28-5.91-9.44-8.72-1.83-1.63-3.63-3.22-5.4-4.85-21.84-20.14-38.82-44.62-55.24-68.3l-5.25-7.56c-9.42-13.52-12.35-27.77-15.45-46.44l-1.27-7.62L765.25,555c5.49,6.9,10.2,12.83,15,18.83,2.24,2.79,4.49,5.66,6.65,8.43,10.28,13.13,20.89,26.69,35.31,36a14.22,14.22,0,0,0,5,1.51,116.84,116.84,0,0,1-20.57-19.39c-9.38-11-19-22.08-28.24-32.83l-.07-.08q-10.38-12-20.73-24.06c-7.64-8.9-10.23-19.67-12.74-30.09-1.07-4.45-2.18-9-3.66-13.38-2-5.88-3.85-11.9-5.62-17.71l-.11-.34c-.79-2.59-1.58-5.18-2.39-7.77l-2-6.53,5.24,4.4a55.17,55.17,0,0,1,8.56,9.73c1.58,2.12,3,4.08,4.7,5.89,4.39,4.77,8.66,9.8,12.78,14.66,9.95,11.75,20.24,23.88,33,33.13a8.48,8.48,0,0,0,.83.54l-.15-.21c-4.73-5.52-9.6-11.07-14.31-16.43-8.24-9.37-16.73-19-24.71-28.88a142.66,142.66,0,0,0-10.08-10.8c-6.64-6.63-13.49-13.48-17.45-22.4-5.08-11.46-9.29-23.48-13.36-35.11-1.73-5-3.53-10.1-5.38-15.15-.3-.83-.54-1.66-.78-2.46l-.31-1-1-3.39,3.44.86c.33.08.66.14,1,.19a8.86,8.86,0,0,1,3.1.94c3,1.71,6,3.35,9,4.93,6.56,3.52,13.35,7.15,19.64,11.81l2.87,2.12c24.27,17.92,47.19,34.84,55.85,66.54,6.92,25.34,11.16,46.6,13.35,66.91.51,4.84,1.58,5.41,2.34,5.41.09,0,.16,0,.3-.15.67-.7,1.08-2.7,1-4.75-1.06-22.84-6.33-44.58-11.87-64.66l-.34-1.24,3.25-1.46.7,1.08c2.63,4.06,4.94,8.35,7.17,12.51a137.11,137.11,0,0,0,8.77,14.82c12,16.83,13.86,36.2,15.66,54.93.2,2.09.4,4.17.62,6.26a166.65,166.65,0,0,1-1.33,46,5.46,5.46,0,0,0,.82,1.81,3.28,3.28,0,0,0,.78-.77c.34-1.77.75-3.61,1.16-5.45,1.27-5.74,2.58-11.67,2.54-17.39-.06-10-.82-20.13-1.63-30.9-.37-4.91-.75-9.91-1.09-15.2l-.08-1.26,3.41-.82.51,1.16c2,4.62,3.86,9,5.66,13.23l.13.31c4,9.27,7.65,18,11.57,26.38,6.78,14.55,6.95,26.9.55,40.05-4.17,8.57-6.91,18.12-9.55,27.35l0,.12c-.9,3.13-1.83,6.37-2.8,9.53a6,6,0,0,1-.58,1.2c-.09.15-.22.37-.33.59a3.26,3.26,0,0,0,.52,0c1.06,0,1.92-.85,2.56-2.51,5.88-15.23,11.75-30.45,17.39-45.08l2-5.25,1.74,5.35c1.17,3.59,2.56,7.2,4,11,3.47,9,7,18.26,7.92,27.92,1.12,11.91-4.36,22.64-9.66,33-1.73,3.38-3.51,6.87-5,10.3-8,18.58-18.68,37.65-32.49,58.31a7.42,7.42,0,0,1-.49.66l-2.77,3.55Z"/><path class="cls-3" d="M867.05,241.44c-1-.12-2-.21-3-.29-5.48-.41-11-1.07-16.38-1.71-8.92-1.07-18.07-2.16-27.14-2.16-1.8,0-3.58,0-5.29.13q-.69,0-1.38,0c-10.53,0-18.2-6-25.62-11.84-4-3.12-8-6.32-12.42-8.44a5.93,5.93,0,0,1-2.28-2.28,7.42,7.42,0,0,0-.53-.74l-1.61-1.93,2.25-1.13c.31-.16.63-.37.94-.57a6.77,6.77,0,0,1,3.49-1.36l2.26-.06c3.41-.08,6.95-.17,10.43-.17,3.09,0,5.83.07,8.37.21,8.21.48,16.76,1.07,24.3,1.59,5.58.38,11.16.77,16.74,1.12l.69,0,.51.46c9.36,8.28,18.55,16.92,27.31,25.69l4.08,4.07Z"/><path class="cls-3" d="M817,793.24a432,432,0,0,1-26.3-52.89c-2.93-6.91-3.73-14.69-4.5-22.21-.3-2.94-.61-6-1-8.89-1.06-7.1-2-14-3-22-.45-3.41-.92-7-1.42-10.72l-.16-1.21,3.21-1.14.63,1c2.45,4,4.84,7.93,7.21,11.83l.16.27c12,19.77,23.31,38.43,37.2,55.17l.57.69-.13.89c-2.39,15.77-5.33,32.13-8.72,48.6l-1,5Z"/><path class="cls-3" d="M806.05,839.32c-1-3.26-2-6.57-3.08-9.76-3.9-12-7.91-24.41-8.11-37.76a159.68,159.68,0,0,0-2.27-21.32c-.47-3.13-1-6.66-1.43-10.12l-.56-4.45,3.68,2.56c4.74,3.29,6.18,7.9,7.46,12a25.73,25.73,0,0,0,2.62,6.36c2.52,3.9,4.75,8,6.9,12s4.46,8.29,7,12.17l.46.7-.18.83c-2.63,12.17-5.53,24.54-8.64,36.73l-1.79,7Z"/><path class="cls-3" d="M829.56,206.93a241.77,241.77,0,0,0-30.31-2.11,148.36,148.36,0,0,0-26,2.15,32.1,32.1,0,0,1-5.6.49c-9,0-16.66-3.76-24.11-7.41-4.93-2.41-10-4.91-15.31-6.14a3.88,3.88,0,0,1-2.33-2.12,2.72,2.72,0,0,0-.31-.5l-1.41-1.88,2.07-1.1a4.64,4.64,0,0,0,.42-.25,5.51,5.51,0,0,1,2.15-.94c22.76-3.26,41.42-5.28,58.75-6.35,1.19-.07,2.44-.11,3.72-.11a106.67,106.67,0,0,1,12.08.83l.55.07.43.33c9.22,7.05,18.22,14.29,26.74,21.54l5.12,4.34Z"/><path class="cls-3" d="M799,865.76l0-13c0-3.21,0-6.42,0-9.64V836.9l3.57-.49.35,1.26q1.23,4.33,2.48,8.71l1.35,4.74-.15.53c-1.22,4.52-2.46,9-3.7,13.36l-.35,1.25Z"/><path class="cls-3" d="M792.23,873.78c-4.68-5.49-9.62-13-15.12-23l-.44-.79.31-.85c2.21-6.16,4.44-12.49,6.4-18.08q2.32-6.62,4.65-13.15l.4-1.14,3.36.42.11,1.2c.31,3.29.67,6.6,1,9.91.77,7.19,1.57,14.61,1.93,22,.31,6.51.6,13.74.9,22.09l.2,5.74Z"/><path class="cls-3" d="M772.35,841.83c-5.11-10-10.59-21.78-16.76-36l-.43-1,.61-.91a49.07,49.07,0,0,0,4.87-10.48c.76-2,1.54-4.12,2.46-6.14,4.27-9.36,8-18.92,12-29,1.71-4.35,3.45-8.77,5.27-13.3l2.82-7,1,7.46c.59,4.31,1.15,8.41,1.68,12.38,1,7.46,2,14.5,3,21.6,1.8,12.6.26,25.47-4.72,39.35q-4.1,11.4-8.13,22.84L774.46,846Z"/><path class="cls-3" d="M710.84,187.06a29.27,29.27,0,0,1-5.27-.47,208.64,208.64,0,0,1-21.23-5.6c-10.05-3-20.41-6.18-31.13-6.85l-1.28-.09-.32-3.55,1.26-.3,9.88-2.43c23.11-5.72,47-11.63,71.49-12.92,9.88-.51,19.78-1.7,27.3-2.68l.74-.1.62.41c10.68,7,21.09,14.27,30.93,21.51l5.5,4-6.81-.43c-5-.32-9.49-.48-13.69-.48-1.33,0-2.66,0-4,0A162.06,162.06,0,0,0,756.7,179c-4.76.67-9.68,1.36-14.58,1.7s-9.57,1.73-14.22,3.08C722.38,185.4,716.69,187.06,710.84,187.06Z"/><path class="cls-3" d="M751.8,797c-4.73-11.18-9.73-23.4-15.28-37.35l-.37-.93.52-.85.58-1a318.56,318.56,0,0,0,30-71.77c.53-1.84.94-3.78,1.34-5.65.2-.92.39-1.83.6-2.73l1.1-4.78,2.56,4.19a15.58,15.58,0,0,0,1,1.41c1,1.29,2.12,2.75,2.22,4.53a153.94,153.94,0,0,0,2.57,19.13c2.77,15.6,5.62,31.72-3.42,48.46-7,13-12.3,27.29-17.41,41.12-.75,2-1.51,4.07-2.27,6.11l-1.75,4.71Z"/><path class="cls-3" d="M733.37,751.68c-13.26-33.62-28.13-73-45.34-118.61-17.12-45.34-36.51-96.73-58.51-153.49-28.61-73.8-60.64-147.38-95.22-218.69l-.93-1.93,2-.8c.57-.23,1.41-2.55,1.77-3.54l.26-.72a115.56,115.56,0,0,0,4-13.86,418.5,418.5,0,0,0,11.7-108.33c0-1.9,0-3.82,0-6.05v-.3c0-1.1,0-2.3,0-3.65v-6.54l3.66,5.42c3.11,4.61,6.14,9.08,9.11,13.45,7.2,10.58,14,20.57,20.62,30.75.84,1.29,1.79,2.6,2.79,4,3.69,5.09,7.49,10.36,6.86,15.46-2.1,16.86-4.39,32-11.12,46.43-5.21,11.17-9.61,23-13.87,34.42-1.79,4.81-3.64,9.78-5.55,14.69-1.08,2.76-.9,3.25.26,4a2.67,2.67,0,0,0,.41.21c.15-.24.35-.66.44-.84a10.65,10.65,0,0,1,.7-1.26c7.74-10.91,11.44-24,14.71-35.55,1.51-5.36,3.55-10.58,5.53-15.63,3.36-8.6,6.84-17.5,7.61-27a22.09,22.09,0,0,1,2.39-7.36c.45-1,.92-2,1.28-2.94l1.12-3,2.2,2.3c.61.65,1.24,1.28,1.86,1.92,1.24,1.26,2.5,2.54,3.68,3.89,16.28,18.51,10.61,39.19,4,57.12L610.55,259C602.89,279.85,595,301.43,583,320.9a6.26,6.26,0,0,0,.06,2,3.86,3.86,0,0,0,2.75-1.67c4.24-5.06,7.49-11,10.54-19.13,2.16-5.79,4.51-11.62,6.78-17.26,6.37-15.81,12.94-32.1,16-49.18a10,10,0,0,1,2-3.9l.45-.62a2.36,2.36,0,0,1,2.1-1c2.19,0,2.82,1,3,1.82.64,3.8,2.94,7.29,5.17,10.67,3.74,5.68,8,12.13,5.07,21-9.43,28.77-21.14,62.56-36.58,95.37,6.88-3.57,9.38-10.45,12-17.71l.64-1.76c2.18-5.9,4.47-11.78,6.69-17.47,6.72-17.24,13.66-35.08,17.48-53.56.25-1.19,1.77-3.38,3.48-3.38h.18l.25.05.21.05a7,7,0,0,1,3.23,2.45c10.2,13.47,11.64,27.67,4.52,44.69-3.79,9.09-6.9,18.68-9.9,28-2.7,8.32-5.49,16.93-8.78,25.22-3.23,8.14-7.62,15.89-11.87,23.39-1.7,3-3.47,6.13-5.12,9.21-.73,1.36-.38,2,0,2.39a3.43,3.43,0,0,0,1.14-.48c2-3.33,4.09-6.66,6.14-9.89,5.23-8.25,10.6-16.73,14.18-25.66,7.77-19.32,16.35-42.57,21-68.44l.21-1.14,3.29-.24.37,1.11c.36,1.09.68,2.11,1,3.07a46.75,46.75,0,0,0,1.78,5.09,77.7,77.7,0,0,0,4.1,7.59c3.37,5.71,6.84,11.62,6.12,17.32-1.31,10.49-5,20.74-8.65,30.65-1.45,4-2.95,8.13-4.27,12.19-6.21,19.22-14.5,37.89-22.51,55.95-2.11,4.74-4.2,9.46-6.27,14.2a4.78,4.78,0,0,0-.4,3.13,1.37,1.37,0,0,0,.89.77,1.59,1.59,0,0,0,.58.14c.75,0,1.53-1.4,2-2.46,1.21-2.45,2.28-5,3.32-7.55l.72-1.74c1.92-4.58,3.93-9.2,5.88-13.67,4.51-10.39,9.16-21.08,13-31.84,3.6-10.13,6.63-20.68,9.57-30.88l0-.15c1.65-5.72,3.35-11.64,5.14-17.43,0-.05,1.83-4.86,4.3-4.86a2.21,2.21,0,0,1,2.18,2.09c.46,4.59,2.81,8.73,5.08,12.73s4.75,8.37,5.27,13.26c1.19,11.12-2.7,21.37-6.47,31.27-1.46,3.85-3,7.82-4.11,11.71-6.27,21.4-14.38,46.49-26.92,70.42-.68,1.31-.26,3.78.11,6,.48-.66.92-1.41,1.4-2.2s.77-1.3,1.18-1.93c3.14-4.71,5.09-9.76,7.15-15.11.57-1.48,1.13-2.92,1.72-4.37a500.11,500.11,0,0,0,18.51-53.64c1.79-6.44,3.61-12.86,5.74-20.39l3.71-13.1,3.45.28.13,1.24c.23,2.14.32,3.67.38,4.79a12.91,12.91,0,0,0,.2,2c14.77,22,9.77,45.22,3.75,63q-1.72,5.11-3.43,10.25c-8.06,24.08-16.38,49-29.07,71.82-2.63,4.74-.9,6.46,0,7.1a13,13,0,0,0,.7-1.4c.14-.32.27-.62.4-.86,1.08-2.12,2-4.38,3-6.57a77.21,77.21,0,0,1,4.61-9.58c9.44-15.66,15.06-32.88,20.49-49.53,4.21-12.88,9-27.47,10.57-45l.11-1.19,3.33-.46.42,1.12c.65,1.71,1.22,3.18,1.73,4.49l.1.27c1,2.6,1.81,4.66,2.5,6.74,1.16,3.49,2.62,7.06,4,10.52,3.4,8.3,6.91,16.89,6.87,25.53-.05,11.71-4.65,23.4-9.11,34.71-.54,1.38-1.09,2.76-1.62,4.12-4.68,12.09-9.93,24.17-15,35.84-3.34,7.69-6.79,15.64-10.06,23.54-.32.78,0,2.31.36,3.69a4.16,4.16,0,0,0,1.47-1.12,161.28,161.28,0,0,0,8.24-16.88c6.55-16.26,13.06-32.76,19.35-48.71l.25-.63q3.76-9.54,7.56-19.16l2.06-5.19,1.7,5.32c.87,2.68,1.68,5.33,2.49,7.95,1.8,5.83,3.48,11.31,5.53,16.74,6.49,17.24,7.22,33.23,2.17,47.52-5.49,15.52-11.75,31-17.81,46.07-3,7.55-6.17,15.3-9.2,23.06a2.73,2.73,0,0,0,.1.78,2.07,2.07,0,0,0,.58-.29c4.69-4.16,6.63-9.81,8.67-15.78.44-1.28.88-2.55,1.34-3.82,2.12-5.76,4.43-11.28,6.88-17.12,5.14-12.24,10.43-24.85,13.62-39.49l.25-1.17,3.36,0,.28,1.16c.79,3.21,1.53,6.2,2.23,9l0,.15c1.61,6.48,3,12.07,4.25,17.78.24,1.09.55,2.26.86,3.39,1,4,2.14,8,1.2,11.84a301.51,301.51,0,0,1-12.32,39.67c-2.21,5.53-4.09,11.34-5.91,17-4.46,13.78-9.06,28-18.92,39.89-.44.52-.41,2.26-.39,3.53v.14l1.64-1.47c2.35-2.09,4.76-4.24,6.14-6.71,10.35-18.6,16.62-39.19,22.68-59.1,2-6.56,4.06-13.34,6.26-20l1-3.13,2.3,2.37c2.89,3,3.44,6.8,3.93,10.17.17,1.17.34,2.38.61,3.5.34,1.45.69,2.9,1,4.35,4.55,19,9.23,38.48,1.8,58.69l-1,2.85C757.17,705,748.31,729.09,737,751.84l-2,4Z"/><path class="cls-4" d="M531.71,1325.7c-10.67,0-17.77-4.49-23.71-15-7.66-13.54-17.17-26.51-26.38-39.06-4.63-6.32-9.4-12.82-13.9-19.33-9-13.08-16.8-27.06-24.33-40.58-5.22-9.37-10.61-19-16.33-28.28-15.45-24.93-27.79-51.85-39.72-77.88-3.08-6.72-6.26-13.66-9.49-20.56-5.5-11.74-9.78-24.24-13.91-36.33-4-11.66-8.1-23.7-13.29-35-8.18-17.72-14.34-36.45-19.79-54.05-5.77-18.63-11.1-37.84-15.85-57.08-3.15-12.78-6.74-25.69-10.21-38.17-2.1-7.56-4.26-15.3-6.29-22.93-4.73-17.68-10.2-38.26-15.34-58.81-3.92-15.63-8-32.38-11.45-49-2.33-11.24-4.36-23.41-6.58-39.46-4-28.89-7.94-58.85-11.72-89-1-8.09-1.82-16.31-2.58-24.26-.56-5.76-1.13-11.71-1.79-17.59-.89-7.94-1.87-16-2.82-23.84l0-.25c-1.61-13.22-3.27-26.9-4.57-40.39-.84-8.66-1.32-17.48-1.8-26-.45-8.29-.92-16.76-1.7-25.09-1.1-11.65-2.54-23.48-3.93-34.92v-.14c-.86-7-1.82-14.95-2.67-22.61-.59-5.34-1-10.75-1.42-16-.28-3.53-.57-7.18-.9-10.79a4,4,0,0,1,.85-3.24,3.6,3.6,0,0,1,2.74-1l.71,0,.49,0h.19a30.27,30.27,0,0,1,6.9,1.05,27.61,27.61,0,0,0,6,.94c16.54,0,33.32.55,49.54,1.07,13.16.43,26.77.87,40.14,1,17.5.18,36.21.57,54.51,2.12,15.52,1.32,31.33,1.51,46.63,1.7h.6q5.89.06,11.8.16c6.39.11,12.84.7,19.08,1.27l.22,0c2.49.22,5,.45,7.47.65a5.55,5.55,0,0,1,4.49,2.24c1.43,2.15.56,4.81,0,6.41a6.32,6.32,0,0,0-.22.7c-1.18,10.33-.38,20.87.4,31.06.25,3.2.49,6.42.68,9.59.8,13.58,1.46,27.3,2.09,40.57v.17c.74,15.33,1.5,31.19,2.48,46.75,1.65,26.48,3.37,52.41,6.18,78.52,2.2,20.55,5.29,42.22,10,70.24,3.36,19.81,7.58,39.82,11.65,59.17l1.07,5.06c6.11,29,12.55,58.77,19.68,90.92,1.59,7.15,3.09,14.42,4.54,21.46,3.89,18.84,7.91,38.33,13.85,56.79,2.45,7.58,4.63,15.3,6.74,22.78,4.6,16.25,9.34,33,16.87,48.77,3.08,6.41,5.37,13.53,7.59,20.41a168.77,168.77,0,0,0,7.66,20.64c4.3,9,8.22,18.27,12,27.25,3.46,8.2,7,16.63,10.83,24.77,12.86,27.5,28,56.57,47.78,91.5,4.5,8,9.22,15.91,13.79,23.6q4.08,6.84,8.11,13.71,5.16,8.85,10.27,17.73l.54.94c7,12.16,14.26,24.72,21.69,37,5.79,9.53,11.82,19,17.66,28.25l.08.13c6.38,10.06,13,20.46,19.23,30.85.56.92,2.24,3.71,1,5.9-1.13,2-3.72,2-4.69,2-.58,0-1.18,0-1.74-.07s-.85,0-1.2,0h-.3c-10.47.8-21.12,1.52-31.42,2.22h-.17c-13.33.9-27.12,1.84-40.71,3-7.43.61-14.94,1.53-22.21,2.43s-14.78,1.81-22.18,2.42c-28.48,2.34-59,5.14-88.85,9.81a70.13,70.13,0,0,1-10.68,1Z"/><path class="cls-3" d="M600.11,171.81a7.34,7.34,0,0,1-6-3C586.61,159.31,580,149,573.6,139a532.52,532.52,0,0,0-45.22-60.35,172.35,172.35,0,0,0-13-13.2L511.59,62h48.6l.6.7c20.84,24.28,37.27,45.16,51.71,65.69.24.34.46.74.7,1.16a6.27,6.27,0,0,0,.91,1.36,1.7,1.7,0,0,0,.3-.14,1.55,1.55,0,0,0,.82-1,3.13,3.13,0,0,0-.65-2.3c-2.26-3.29-4.5-6.6-6.74-9.9l-.05-.08c-6-8.91-12.26-18.11-18.91-26.72s-13.73-17-20.94-25.43L565.13,62h8.79l.22.07c9.65,3,25.27,8.17,45.24,16.06l.43.16.31.35c13.09,14,25.39,28.36,36.54,42.57a8.83,8.83,0,0,1,.69,1.07,8.11,8.11,0,0,0,.46.75l.29-.17a2.38,2.38,0,0,0,.36-.28,6.81,6.81,0,0,0-.46-.74,12.47,12.47,0,0,1-.72-1.21c-5.14-10.47-12.53-20.77-23.25-32.4l-.82-.89,1.95-2.78,1.12.47c20.69,8.73,41.37,18.52,61.46,29.08l.21.11.24.21a34.72,34.72,0,0,0,4.09,3.39c.42.31.84.62,1.24.93l.6-1.25,1.85,1c16,8.62,31.69,17.84,46.75,27.41l5.35,3.4-6.33.29c-9.09.42-17.18.91-24.74,1.5-10.64.84-21.4,3.09-31.81,5.26-3.8.79-7.66,1.52-11.39,2.22-11.55,2.18-23.5,4.43-34.31,8.73A43.37,43.37,0,0,1,633,170.16c-3.21,0-6.41-.22-9.51-.43s-6.13-.42-9.17-.42c-1.45,0-2.77.05-4,.15a18.48,18.48,0,0,0-4.13,1A19.34,19.34,0,0,1,600.11,171.81Z"/><path class="cls-3" d="M531.15,254.42c-6.77-13.88-13.86-28.1-21.08-42.28l-.41-.8.33-.84c6.32-16.14,9.19-30,9-43.69,0-4.06-.06-8.12-.07-12.18,0-12.62-.07-25.67-1.26-38.57-1.41-15.33-4.4-30.08-8.46-47.5l-1.7-7.3,5.11,5.49c2.65,2.84,5.25,5.6,7.79,8.31l.1.1c5.93,6.3,11.52,12.26,17,18.39,16.68,18.58,14.6,40.92,12.58,62.53-1.88,20.08-4,37.78-6.49,54.12-1.36,8.9-3.28,17.84-5.14,26.47-1.11,5.16-2.25,10.44-3.26,15.66-.06.33-.14.71-.23,1.1l-1.33,6.18Z"/><path class="cls-3" d="M504.55,201.36c-9.34-18.12-18.83-36-28.21-53.24l-.43-.81.32-.86a48.47,48.47,0,0,0,2.86-11.9c.38-3.56.91-7.14,1.42-10.61,1-6.87,2.05-14,1.94-20.85a148.45,148.45,0,0,1,1.23-18.36c.74-6.76,1.51-13.75,1.12-20.62L484.68,62h20.9l.43,1.43c3.58,11.93,5.07,24.65,6.5,37l.5,4.21c3.32,27.9,3.46,53.22.41,77.4a69,69,0,0,1-3.27,12.8c-.67,2.06-1.34,4.13-1.89,6.16l-1.34,5Z"/><path class="cls-3" d="M415,328.38l-3.49-2c-2.48-1.42-5.05-2.89-7.53-4.52-3.36-2.2-6.82-4.4-10.16-6.52-10-6.36-20.26-12.89-29.72-20.54-6.52-5.27-13.69-10-20.63-14.62a259.69,259.69,0,0,1-21.81-15.56c-6.75-5.54-12.28-12.15-18.14-19.14-2.52-3-5.11-6.11-7.79-9.08L292,232.19l5.56.86c.37.06.75.08,1.13.11a7.9,7.9,0,0,1,3.52.79c13.66,7.7,28.06,12,45.46,16.84a6.59,6.59,0,0,0,1.71.26,4,4,0,0,0,1.16-.16,5.86,5.86,0,0,0-1.74-1.56,67.48,67.48,0,0,0-7.23-2.61c-1-.32-2-.65-3.07-1-18.57-6.31-37.66-15.58-60.09-29.17l-2.09-1.27c-12.95-7.83-17.79-10.76-20.49-17.14l-.91-2.15,2.27-.57.09,0a3.41,3.41,0,0,1,1.2-.26,2.52,2.52,0,0,1,.82.14c15.6,6.16,31.84,7,49.93,7.39,1.05,0,2.62-1.23,4-2.32a15.41,15.41,0,0,0-2.06-.11c-.65,0-1.38,0-2.11-.09l-7.32-.68c-10.24-.94-20.84-1.91-31.26-3.3-19.62-2.61-35-13.46-50-24-5.65-4-11.5-8.1-17.47-11.68a3.67,3.67,0,0,1-1.51-2.5,4.84,4.84,0,0,0-.14-.49l-1.1-2.89,3.09.18.79,0A18.2,18.2,0,0,1,206,155l7.44,1.15.71.11c5.2.82,10.56,1.66,15.85,2.37l6.26.86c9.25,1.29,18.81,2.62,28.24,3.18a17.48,17.48,0,0,1,2.34.38,14.1,14.1,0,0,0,2.75.39,2.43,2.43,0,0,0,2.59-1.89,1.8,1.8,0,0,0,.12-.43,1.93,1.93,0,0,0-.47-.14c-2.48-.42-5-.9-7.36-1.36-5.31-1-10.77-2-16.13-2.56l-4.73-.44c-19.56-1.83-39.78-3.71-59.33-11.08-5.81-2.19-10.91-5.41-15.84-8.52-5.9-3.71-11.46-7.22-18.07-9l-4.77-1.32,4.34-2.37a10.91,10.91,0,0,1,5.24-1.45l.69,0c4.34.3,8.78.45,13.2.45a230.37,230.37,0,0,0,43.56-4.36,4.9,4.9,0,0,0,1.87-1.07,3.59,3.59,0,0,1-.88.12,2.73,2.73,0,0,1-1.49-.43,2.21,2.21,0,0,0-1.21-.42,5.87,5.87,0,0,0-2.26.77,9.28,9.28,0,0,1-4,1.15h-.15c-1.49-.05-3-.07-4.63-.07-5.61,0-11.32.28-16.85.55s-11.35.56-17,.56c-10.57,0-19.16-1-27-3.19-3.32-.92-6.79-1.62-10.14-2.3-7.58-1.53-15.41-3.11-22.52-7.3l-4.73-2.78,19.31-3.24c16-2.68,32.49-5.44,48.64-8.32a19.06,19.06,0,0,0,5.13-2.14,1.81,1.81,0,0,0-1-.21,13.84,13.84,0,0,0-2,.22c-.68.1-1.3.2-1.94.23A193.1,193.1,0,0,0,149.41,93c-4.95.75-10,1.68-14.85,2.57-5.91,1.09-11.94,2.2-17.92,3a34.2,34.2,0,0,0-5.4,1.46c-2.77.9-5.62,1.83-8.25,1.83a7.42,7.42,0,0,1-7-4c-4.55-8.38-7.45-17.73-10.27-26.77q-1-3.24-2-6.45L82.86,62H98.75l.2.06a203.65,203.65,0,0,0,54.68,7.32c5.9,0,12-.24,18-.71,2.44-.19,3-.5,3.09-.62,0-.32,0-1-3.28-1.15-4.41-.19-8.9-.3-13.24-.41-5-.12-10.06-.25-15.07-.49l-1.46-.07.1-3.93h144l.16,1.82a79.38,79.38,0,0,1,.35,9.47c-.34,11.91-1.23,24-2.1,35.66-.39,5.13-.82,11-1.19,16.62,2.79-2.94,3.21-6.82,3.66-10.92.12-1.06.24-2.12.39-3.17,2.15-14.37,4.08-29.86,2-47.25L288.8,62h7.63l.92,1.35c3.23,4.75,5.77,8.49,9.09,11.05C320,84.83,319.83,98.65,319.69,112a108.76,108.76,0,0,0,.37,12.71c1.1,10-.83,20.37-2.71,30.39-.87,4.67-1.76,9.48-2.33,14.14a3.93,3.93,0,0,0,.42,1.62,5.16,5.16,0,0,0,1.33-1c3.15-12,6.06-25,6-38.57,0-7,0-14.07,0-20.61V95.37l3.61,4.87c1.19,1.62,2.56,3.31,4,5.1,3.45,4.27,7.36,9.1,10.23,14.51,7.5,14.15,6.71,29.33,5.94,44-.28,5.44-.57,11-.42,16.38.18,6.22-.72,12.59-1.58,18.74a133.33,133.33,0,0,0-1.6,16c5.14-10.3,5.5-21.81,5.85-33,0-1.44.09-2.87.14-4.3.33-8.37.25-16.91.17-25.18,0-3.74-.07-7.47-.07-11.19V140l3.49-.58.4,1.21c2.35,6.94,6.8,12.89,11.09,18.63,6,8,12.16,16.27,13.53,27.73,2.14,18,.78,35.86-.53,53.14-.67,8.84-1.36,17.93-1.57,26.91,4-7.95,4.69-17.07,5.28-25.21.8-10.73.64-21.49.46-32.87-.07-4.91-.15-9.91-.15-15v-7l3.7,6c1.21,1.95,2.41,3.77,3.46,5.37a79.65,79.65,0,0,1,6.07,10.26,122.33,122.33,0,0,0,7.13,12.66c6.06,9.82,12.32,20,11.58,33.17-.83,14.61-1.3,29.49-1.77,43.88l-.23,7.28a11,11,0,0,0,.2,2.16,6.16,6.16,0,0,0,1.66-2.52A105.47,105.47,0,0,0,415,287.09c.23-6.89.18-13.9.13-21.32v-.18c0-3.28,0-6.67,0-10.21v-7.07l3.7,6c3.95,6.42,7.53,12.86,11,19.08,8.12,14.59,15.79,28.37,26.85,40,.25.26.49.57.74.89s.35.46.51.63l.07,0a1.08,1.08,0,0,0,.25-.23,7.28,7.28,0,0,0-.77-1.43c-1.91-3.11-3.84-6.19-5.78-9.27-4.48-7.15-9.1-14.52-13.33-22-5.09-9-10-18.18-15.11-27.93l-.26-.5c-2.26-4.27-4.6-8.69-7.07-13.32l-.6-1.12,2.79-2.15.93.86c3.55,3.29,7,6.6,10.37,9.8C445,262.5,459.66,276.53,478.25,285a32.1,32.1,0,0,0,4.08,1.41l.28-2,2.95,3.09c12.43,14.94,20,23.18,20.08,23.26l1.82,2L505,314c-8.31,4-37.6,12.29-89,14.7l-.59,0Z"/><path class="cls-3" d="M470.42,137.31C449.2,98.86,434,74,428.47,65.06L426.57,62h54.05l0,2c-.11,8.55-.48,16.21-1.14,23.41-.39,4.34-.73,8.87-1,12.86-.9,12-1.82,24.44-4.3,36.45l-1.1,5.3Z"/><path class="cls-3" d="M474,279.65l-3.54-2.23A127.85,127.85,0,0,1,456,267.37a427,427,0,0,1-48.54-48.18c-7-8.13-12-17.16-17.29-26.71-4.22-7.65-8.59-15.55-14.15-23.1L372,164l6.26,2.31c1.15.43,2,.69,2.58.89a6.57,6.57,0,0,1,2.39,1.1c8,6.57,17.56,14.11,27.88,20.19l.38.22.26.38c25.65,37.9,49.44,68.56,64.87,87.61l.81,1-2.36,2.64Z"/><path class="cls-5" d="M409.1,1618l-3.88-7.26c-11.41-21.35-23.21-43.43-35.17-65-10-18.08-21.05-35.94-31.69-53.21a6.08,6.08,0,0,1-.67-2.65c0-.14,0-.26,0-.37a11.93,11.93,0,0,0-1,4.58,10,10,0,0,0,1.42,5c12.39,22.51,25,45.15,35.69,64.34q13.93,25,27.92,50l2.51,4.49H352.33l-.52-1.21c-1.59-3.71-3.5-7.61-5.82-11.93-3.77-7-7.11-14.32-10.34-21.38A292.45,292.45,0,0,0,322.46,1557c-4.11-7-8-14.3-11.73-21.34-4.91-9.2-10-18.71-15.59-27.7-2.27-3.64-4.91-7.27-7.47-10.78-5.43-7.45-11-15.12-13.78-23.73-5.07-15.72-8.28-32.25-11.38-48.24-1.15-6-2.35-12.12-3.64-18.21-4.87-23-18.6-42.39-30.71-59.49a4.21,4.21,0,0,0-1.44-.57,4.44,4.44,0,0,0,.12.55c2.4,7.81,6.66,15,10.79,22,5.18,8.75,10.54,17.8,12.6,28.46,1.64,8.45,4.09,16.93,6.45,25.13l0,.13c1.07,3.7,2.17,7.53,3.19,11.32l.54,2-1.11.26c.3,1.16.61,2.32.92,3.46a63.48,63.48,0,0,1,2.51,12.54c1,15.94,9.23,29,17.21,41.58,2.15,3.38,4.36,6.88,6.44,10.43l6.32,10.78c13.69,23.28,27.84,47.34,39.36,72.17,1.91,4.11,4,8.26,6,12.27,2.48,5,5,10,7.32,15.18l1.27,2.82H268.19l-.49-1.28c-8.33-21.42-17.66-44.48-29.38-72.58-3-7.15-6.24-14.34-9.4-21.29-5.43-12-11-24.33-15.42-36.94-8.53-24.62-23.94-44.37-37.89-60.45-9.28-10.7-18.76-22.31-23.87-36.23-6.91-18.87-11-39.72-12.81-65.6-.44-6.32-2.82-8.89-8.22-8.89h-.61l-1,0c-12.24,0-21.17-7.42-27.59-13.88-18.25-18.38-26.82-42-35.11-64.78-1.37-3.77-2.78-7.67-4.23-11.5l-.1-.26,0-.36V1120.33l3.36-.69.48,1.13c1.69,4,3.34,8,4.9,12.07,3.19,8.23,6.2,16.68,9.11,24.85,2,5.73,4.13,11.63,6.27,17.4l2.6,7c7.83,21.09,15.93,42.9,24.27,64.21l.41,1.07c1.25,3.27,2.54,6.66,5.69,7.35,0-.22,0-.45,0-.63a11.63,11.63,0,0,1,.15-2.51l-3.37-9.23c-2.58-7.09-5.22-14.29-7.88-21.49-1.75-4.75-3.64-9.55-5.47-14.18-4-10.11-8.11-20.56-11.1-31.21-4.87-17.25-12-34-18.85-50.1l-.06-.15c-1.73-4.07-3.46-8.13-5.16-12.2-1.41-3.38-3.08-7-5.13-11.08l-.21-.43V987.68l3.29-.74.73,1.54c.19.39.38.78.56,1.19,6.48,14.41,12.58,29.19,18.48,43.49q3.51,8.47,7,16.93c2.1,5,4.32,10.11,6.27,14.62,4.93,11.36,10,23.08,14.19,34.93,3.23,9.17,6,18.65,8.63,27.82,3.06,10.56,6.23,21.48,10.13,31.9,5,13.29,8.78,27.06,12.45,40.38,1,3.66,2,7.28,3,10.91,2,6.92,3.54,14,5.08,20.92,1,4.66,2.12,9.43,3.29,14.12,2.79,11.19,5.74,22.53,8.59,33.5l.06.21q1.94,7.44,3.86,14.87l.52,2-1.3.27v.11a18.24,18.24,0,0,0,.58,3.51c1.42,4.56,2.82,9.13,4.23,13.69,4.19,13.67,8.51,27.71,13.29,41.32.6,1.7,1.14,3.47,1.66,5.18,2.05,6.68,4.16,13.59,10.27,17.93a3.67,3.67,0,0,0,.95.56s.14-.1.36-.32c.41-.4.45-.53.45-.54s0-.21-.35-1a44.17,44.17,0,0,1-2.3-6.12c-.37-1.15-.73-2.29-1.13-3.36a534.8,534.8,0,0,1-22-76.09c-4.06-18.82-9-37.81-13.79-56.17l0-.11c-2-7.47-4-15.21-5.91-22.88-1.37-5.4-2.68-10.89-3.95-16.2-3.08-12.93-6.27-26.28-10.42-39-4.23-13-9.19-26-14-38.61-3.87-10.18-7.85-20.64-11.44-31-9.52-27.63-22.1-54.51-34.28-80.49-3-6.38-6-12.76-8.92-19.15-2.36-5.12-5.09-10.11-7.9-15.19l-.25-.45V786.52l3.71,6.19c7.5,12.5,15.05,24.58,21.44,34.76,8.75,13.9,19.8,32.53,27.69,53.38,5.13,13.54,8.28,27.78,11.33,41.56l1.11,5c4.19,18.77,9.15,37.7,13.95,56l1.67,6.4,1.65,6.31c4.7,18.08,9.57,36.78,15,55,7.79,26.22,16.19,52.14,23.37,74,3.16,9.61,6.63,19.32,10,28.7,2.45,6.86,5,13.94,7.39,21,5.88,17.18,10.49,31.18,14.51,44.05,2.23,7.13,4.36,14.42,6.42,21.47l0,.15c2.86,9.81,5.83,20,9.1,29.8a233.88,233.88,0,0,0,24.89,51.91c9,14.14,20.21,29.84,39.27,37.15a12.73,12.73,0,0,0,3.95.55c3.31.15,7.83.36,10.24,5.71,8.47,18.76,19.66,37.92,35.21,60.29,3.42,4.91,7,10,10.26,14.45,9.16,12.78,18.63,26,26.66,40,13.06,22.76,25.61,43.41,38.36,63.13S445.86,1583,459.25,1602l1.32,1.87c2.51,3.55,4.7,7.14,7.1,11.14l1.83,3Z"/><path class="cls-3" d="M383.82,329.38c-4.1,0-8.36,0-12.68-.1l-1.1,0-.58-.94c-5.76-9.42-12.36-17.92-20.4-28.06-2.28-2.88-4.43-5.9-6.92-9.4-1.28-1.81-2.63-3.7-4.15-5.8l-.76-1,2.54-2.5,1,.77c3.63,2.69,7,5.15,10.3,7.53,6.7,4.86,13,9.45,19,14.36,8.73,7.22,18.81,12.72,28.56,18,1.92,1,3.84,2.09,5.75,3.15l6.4,3.55-7.31.2C397.11,329.29,390.5,329.38,383.82,329.38Z"/><path class="cls-3" d="M398.35,175.81c-12.29-7.62-25-16.44-34.87-29.2-7.07-9.15-13.17-18.77-19.64-29-2.85-4.5-5.78-9.12-8.85-13.77l-.66-1,2.36-2.44,1,.64,6.22,3.85c4.27,2.64,8.31,5.13,12.29,7.65,3.79,2.4,7.7,4.88,11.67,7.25l.44.27.26.44c10.23,17.54,21.16,35.19,32.48,52.47l.66,1-2.36,2.43Z"/><path class="cls-3" d="M360,329a180.61,180.61,0,0,1-27.17-3.4l-1.6-.33v-1.63c0-12.83-.49-26.53-6.75-40.52L324,282l2.63-2,.92.73a39.85,39.85,0,0,1,8.34,9.31c.56.8,1.13,1.63,1.71,2.38,8.67,11.21,16.68,22.66,24.14,33.44l2.32,3.34Z"/><path class="cls-3" d="M357,109.13c-19.37-11.84-39.38-24.07-52.92-44L301.92,62h16.55l.25.09c6.91,2.5,13.86,4.71,20.73,6.59l.85.24.4.78c6.35,12.39,13.15,25,20.19,37.45l3.8,6.71Z"/><path class="cls-3" d="M325.05,323.81a164,164,0,0,1-27.5-9.61l-1.31-.59.15-1.44a106.27,106.27,0,0,0-.56-26.93c-.21-1.39-.41-2.78-.61-4.17l-.09-.59c-1.86-12.82-3.79-26.08-8.29-39.45l-2.23-6.66,5.41,4.48c10.24,8.49,20.52,18,26.28,30.09,7.85,16.46,9.54,34.57,11.17,52.09l.32,3.47Z"/><path class="cls-5" d="M302.43,1357a7.41,7.41,0,0,1-2.89-.54c-18.8-8.12-33.29-22.66-44.32-44.45-6.06-12-12.93-28.14-12.14-46.35a5.56,5.56,0,0,0-.08-.89c-.16-1.29-.59-4.74,3.27-5.57a10.19,10.19,0,0,1,2-.22c3.43,0,6,1.86,8.1,3.67,9.4,8.21,12.86,19.26,16.2,29.95.71,2.28,1.45,4.64,2.23,6.93a18.29,18.29,0,0,0,.9,2,21,21,0,0,1,1,2.21,10.94,10.94,0,0,1,.24,4.85,9.27,9.27,0,0,0,0,2.89h0a2.92,2.92,0,0,0,.36,0,4.94,4.94,0,0,0,.87-.1,1.25,1.25,0,0,0,.91-.63c.95-1.5.9-5.2-.11-9-.44-1.64-.86-3.29-1.29-5l-.05-.21c-4.08-15.94-8.29-32.42-24.66-41.08a11.14,11.14,0,0,0-5.22-1.38,10.8,10.8,0,0,0-7.22,3,11.33,11.33,0,0,1-4.16,2c-.55.18-1.09.35-1.57.54l-2.15.88-.55-2.26c-.1-.43-.19-.86-.29-1.29l0-.15a28.64,28.64,0,0,0-.7-2.8q-1.66-5.29-3.36-10.57l-.07-.23c-2.52-7.9-5.12-16-7.53-24.11a27.07,27.07,0,0,1-.82-6.77c0-1.06-.09-2.26-.19-3.52l-.31-3.66,3.24,1.72a151.9,151.9,0,0,1,50.41,43c13.63,18.1,26.26,36.28,30.94,59.6a155.42,155.42,0,0,1,2.24,18.67c.54,6.85,1.09,13.9,2.72,20.63.56,2.3-.82,5.21-2.34,6.94A4.81,4.81,0,0,1,302.43,1357Z"/><path class="cls-3" d="M304.49,1140.14c-6-11.64-12.28-23.9-19.42-37.77l-.6-1.17,3-2.07.89,1c6.78,7.44,12.89,13.67,18.7,19l.61.57,0,.83c.26,7.63.46,13.93.6,18.63l0,1.2-3.26.84Z"/><path class="cls-3" d="M303.9,1112.11c-20.39-20.8-33.36-43.75-39.64-70.18l-.27-1.14,3-1.52.77.89c1.1,1.26,2.15,2.58,3.16,3.85a47.15,47.15,0,0,0,6.93,7.54c8.09,6.47,17,13.41,27.3,21.23l.75.57,0,.93c.56,13.32,1.05,25.55,1.43,36.36l.18,5.15Z"/><path class="cls-3" d="M302.23,1066.81c-3.08-2.53-6.29-5-9.4-7.47-15.22-11.9-30.94-24.2-38.72-43.66a183.51,183.51,0,0,1-6.55-21.32c-.95-3.59-1.93-7.31-3.07-11.27l-.34-1.17,3-1.59.78.93c1.43,1.73,2.71,3.28,3.87,4.7l.18.21c2.43,3,4.34,5.28,6.36,7.58,15,17.06,28.59,27,44,32.16l1.29.44.07,1.36c.61,11.93,1.2,24.18,1.79,37.46l.2,4.48Z"/><path class="cls-3" d="M299.25,1145.07c-4.51-4.27-9.12-8.94-13.7-13.87l-.55-.59,0-.82c.1-4.33.31-7.92.68-11.29l.72-6.6,3.05,5.9c1.48,2.88,2.84,5.53,4.11,8l-1.27.8,1.33-.68c2.56,5,4.76,9.32,7.08,13.61l.47.87c.41.75.81,1.5,1.21,2.26l.59,1.12-2.81,2.14Z"/><path class="cls-3" d="M300.37,1023l-3-1.72c-6.36-3.63-12.94-7.39-18.61-12.17a168.24,168.24,0,0,1-15.23-15.34c-4-4.37-8.06-8.88-12.43-12.86-11.57-10.57-14.78-23.85-18.17-37.92-1.29-5.35-2.62-10.85-4.44-16.21l-2.14-6.29,5.25,4.07,1.6,1.22a8.41,8.41,0,0,1,1.14.93c18.4,18.34,38.85,37,63.7,49.4l1.28.65,1.56.8.07,1.14c.82,13.27,1.62,27.16,2.43,42.46l.19,3.68Z"/><path class="cls-3" d="M297.37,972.48a384.83,384.83,0,0,1-63.15-50.12c-11.44-11.22-14.27-25.36-17-39-.63-3.14-1.28-6.38-2-9.52a5.28,5.28,0,0,1,.53-3.28,6.45,6.45,0,0,0,.29-.79l.62-2.17,2.08.86c.23.1.48.18.72.27a8,8,0,0,1,2.38,1.14c2.18,1.67,4.37,3.41,6.49,5.09l.17.14c3.67,2.9,7.45,5.9,11.32,8.68l.95.68c11.12,8,22.56,16.22,37.88,18.8l-.91-.49c-6.64-3.49-12.37-6.51-18-9.9-3.83-2.32-7.54-4.92-11.12-7.44-4.19-2.94-8.51-6-13-8.5-20-11.36-34.83-40.27-31.74-61.85l.52-3.61,2.76,2.37c17.48,15,38.45,27.15,68,39.4l.38.16a7.74,7.74,0,0,0,2.19.72c.08,0,.36-.19.65-1.19.4-1.34.05-2-2.67-3.34-.2-.09-.39-.18-.55-.27-17.58-8.79-34.75-18.84-51.37-28.56l-5.25-3.07c-17.7-10.36-20.81-25.63-23.81-40.4a136,136,0,0,0-3.5-14.5,4.15,4.15,0,0,1,.42-3.61,2.63,2.63,0,0,1,2.14-1.1,3.92,3.92,0,0,1,2.79,1.43c5.73,6,12.74,10.6,19.51,15.09,3.79,2.5,7.67,5.08,11.34,7.87A90.79,90.79,0,0,0,249,794.54c-10.44-8.27-21.24-16.61-32.8-23.06-20.92-11.67-34.24-35.61-32.37-58.2l.29-3.51,2.86,2c3,2.11,5.89,4.25,8.83,6.39,15,11,30.61,22.31,48.56,29a4.76,4.76,0,0,1,1.82,1.44c1.07-2.05.34-2.69-.57-3.21-2.37-1.35-4.79-2.66-7.13-3.93-5.13-2.78-10.43-5.65-15.38-9-3.68-2.45-7.69-4.83-11.56-7.12-10.82-6.42-21.94-13-28.76-22.68-8-11.33-8.32-29.55-7.48-47.54l.06-1.22,3.37-.54.44,1.13c3.17,8.26,8.12,12.43,12.91,16.46,1.84,1.55,3.59,3,5.24,4.71,7.78,7.95,17,16.91,28.12,22.64a9.59,9.59,0,0,0,4,1.2c1,0,1.24-.39,1.32-.54a1,1,0,0,0,.12-.25,9.91,9.91,0,0,0-1.67-.94,12.49,12.49,0,0,1-2.39-1.43c-3.41-2.84-6.89-5.66-10.26-8.38-9.12-7.35-18.54-15-26.93-23.39l-.61-.62c-9.24-9.29-18.78-18.89-19.91-33.81-.6-7.81-1.53-15.44-2.51-23.52-.44-3.61-.89-7.24-1.3-10.91l-.75-6.66,4.28,5.16c1.48,1.79,2.93,3.5,4.36,5.18l.08.1c3.18,3.73,6.16,7.24,8.94,11A166.41,166.41,0,0,0,232,654.62a5.34,5.34,0,0,0,2.65.81,3.07,3.07,0,0,0,1.8-.56,2.44,2.44,0,0,0-.19-.29L232.82,652c-17.8-13.39-36.21-27.24-50.44-45.43-1.88-2.41-4.06-4.81-6.17-7.13-5-5.47-10.09-11.08-12.38-17.77-2.84-8.27-3.38-17.34-3.89-26.1-.23-3.79-.46-7.71-.88-11.5-.36-3.34-.79-6.68-1.28-10.55l1.47-.29-1.49.19c-.22-1.72-.45-3.54-.69-5.52l-.82-6.54,4.31,5c2,2.29,3.78,4.46,5.51,6.56l.09.11a118.05,118.05,0,0,0,10.29,11.49c2.55,2.38,5.07,4.78,7.59,7.19l.13.13c10.65,10.17,21.66,20.68,34.26,28.66.47.3,1,.67,1.53,1.07,1.51,1.1,3.38,2.47,4.89,2.47a2.51,2.51,0,0,0,1.87-.91c.22-.22.24-.33.24-.34,0-.65-1.9-2.07-2.6-2.6l-.71-.55c-2.6-2.08-5.43-4-8.16-5.93-5-3.49-10.22-7.1-14.4-11.66a183.33,183.33,0,0,0-15.17-14.19c-12.33-10.71-25.07-21.78-30.18-39.71-2.11-7.39-2.07-14.82-2.05-22,0-7.38.07-15-2.37-22.15l-.41-1.2,3.06-1.68.79,1c8,9.9,16.26,19.09,23.27,26.76l1.05,1.16c11.35,12.45,22.07,24.21,37,31.61.33.16.65.34,1,.52a6,6,0,0,0,1.22.57s.14-.13.35-.41a2.9,2.9,0,0,0,.23-.38,7,7,0,0,0-1-.67,10.14,10.14,0,0,1-1-.66,262,262,0,0,1-40-38.23c-2.34-2.75-4.88-5.45-7.33-8.06-10.61-11.29-21.58-23-20.87-42.14.32-8.65-1.3-17.29-3-26.43-.76-4.05-1.55-8.24-2.15-12.47l-1-6.88,4.49,5.31q3.94,4.66,7.82,9.3c5.16,6.15,10.49,12.49,15.87,18.71,9.87,11.39,19.9,22.07,34,27.58a5.05,5.05,0,0,0,1.76.37,1.55,1.55,0,0,0,.75-.15,16.84,16.84,0,0,0-2.7-3,4.84,4.84,0,0,0-1.21-.5,7.6,7.6,0,0,1-2.48-1.16c-9.35-7.28-17.42-16-25.22-24.48-5.32-5.76-10.78-11.69-16.54-17-17.93-16.59-19.29-36.63-20.72-57.84-.16-2.25-.31-4.51-.48-6.78l-.57-7.34,4.2,6.05c8.17,11.75,18.25,20.77,29.63,30.52a168.76,168.76,0,0,0,37.48,24h.14a5.7,5.7,0,0,0,1-.15,2.59,2.59,0,0,0-.26-.7c-5.2-4.07-10.78-8-16.17-11.72-8.22-5.73-16.73-11.66-24.41-18.61q-2.61-2.34-5.25-4.66c-7.35-6.48-14.89-13.13-20.57-20.94a50.13,50.13,0,0,1-10-28.87c-.21-7.48-1.2-15.12-2.15-22.5v-.12c-.43-3.34-.88-6.8-1.25-10.21l-.53-5,3.81,3.22a6.43,6.43,0,0,1,1.81,2.82,3.37,3.37,0,0,0,.26.62c10.83,10.43,21.81,20.87,32.59,31,10.22,9.6,22.6,20.48,37,28.43a2.67,2.67,0,0,0,1.22.21,16.52,16.52,0,0,0,2-.17,5.39,5.39,0,0,0-1.26-2.11c-15.66-10.43-30.77-23-49-40.83-2.77-2.7-5.79-5.3-8.72-7.81-11.37-9.76-23.13-19.85-23.14-38.76,0-6.47-1.32-12.91-2.85-20.36-.75-3.66-1.52-7.44-2.2-11.52l-1-6.26,4.44,4.53c4.23,4.31,8.27,8.45,12.2,12.48l.24.25C144.91,231,152.9,239.18,161,247.2c19.94,19.84,39.6,34.37,60.11,44.42,1.21.6,3.25,1.59,4.44,1.59.33,0,.35,0,.42-.2.51-1.06-.65-2.29-4.12-4.35l-3.25-1.93c-4.89-2.89-9.92-5.86-14.69-9.08-20-13.57-37.59-30.41-54.56-46.71-6.3-6.05-12.79-12.28-19.3-18.25-9.71-8.88-11.84-19-14.32-30.67a139.28,139.28,0,0,0-4-15.86l-.41-1.23,3.2-1.61.74,1.06c1.6,2.26,2.78,4.08,3.72,5.54a21.19,21.19,0,0,0,3.5,4.64l4.62,3.91c26,22,53,44.79,83.78,61.11.37.2.74.42,1.11.64a8.48,8.48,0,0,0,1.9.94c.13-.15.12-.19.12-.23s-.14-.87-1.93-2.31c-16.46-13.36-34.16-25.73-51.27-37.7l-.44-.3q-7.75-5.43-15.47-10.87c-27.44-19.45-41.55-44.29-44.38-78.16l-.3-3.48,3.15,1.51c1.08.51,2.19,1.09,3.33,1.69a54.72,54.72,0,0,0,8.21,3.72l2.55.8.1,0c6.38,2,13,4,16.83,9.69,9.5,14,15.87,29.76,22,45l.17.41c.79,2,1.58,3.93,2.38,5.89.52,1.27,1.22,2.13,1.73,2.13a1.12,1.12,0,0,0,.39-.08c1.41-.54,1.32-1.85,1-2.85-4.82-14.79-11.77-28.62-17.93-40.2a8.33,8.33,0,0,1-.8-2.9l-.1-.87.59-.71a3.9,3.9,0,0,1,2.54-1.15,2.22,2.22,0,0,1,1.06.26c3.58,2,7.58,3.82,11.44,5.56,9.05,4.08,18.39,8.3,23.75,15.62,14,19.1,23.62,39.34,28.51,60.16.58,2.49,1.76,3.84,3.52,4a3.17,3.17,0,0,0,.28-.36c-.16-.86-.31-1.74-.46-2.62a58,58,0,0,0-2.79-11.34c-3.55-8.88-7.47-17.83-11.26-26.49-1.58-3.62-3.17-7.24-4.74-10.88l-.46-1.07,2.62-2,.92.72c.73.58,1.46,1.13,2.2,1.68a51,51,0,0,1,5,4.1c4.4,4.24,9.9,7.58,15.21,10.8,11.33,6.87,23,14,26.68,30.43l.83,3.72c4.49,20.25,9.12,41.13,12.46,62A122.9,122.9,0,0,1,262.42,288l.23,4.66-3.53-3a165,165,0,0,1-29.55-33.4c3.59,17.11,9.22,49.23,12,93.16l.14,2.25-2.25-.12c-3.51-.19-7-.36-10.55-.53h-.32c-1,0-1.68,0-1.68,2.94.05,25.28.34,52.23,3.26,79.26,1.32,12.27,2,24.79,2.71,36.9.62,10.78,1.25,21.89,2.3,32.76.48,4.95.87,10,1.24,14.83l0,.26c.27,3.53.54,7.06.85,10.59,1.36,15.37,3.18,31,4.94,46,.89,7.66,1.81,15.54,2.66,23.31.47,4.24.84,8.55,1.2,12.72.47,5.54,1,11.18,1.66,16.69,2.14,16.77,4.46,33.76,6.71,50.18q1.23,9,2.45,18c.41,3,.77,6,1.14,9,.86,7.1,1.76,14.44,3.22,21.49,2.31,11.11,5,22.26,7.64,33.05,1.24,5.12,2.65,10.93,4,16.52,1,4.25,1.94,8.59,2.86,12.77,1.73,7.91,3.51,16.05,5.67,23.91,2.4,8.76,5.08,17.6,7.66,26.15l.44,1.46,0,.14c4.09,37.35,7.76,81.33,10.91,130.73l.25,3.92Z"/><path class="cls-3" d="M290.12,310.58a160.42,160.42,0,0,1-21.27-13.22l-.77-.56-.05-.95a45.71,45.71,0,0,0-1.09-7,54.12,54.12,0,0,1-1-5.84c-2.6-27.29-9.58-54.37-16.06-77.26L247.94,199l6.35,5.87c1.69,1.56,3.43,3.18,5.21,4.73,2.06,1.81,4.43,3.57,6.72,5.27,6.64,4.94,13.51,10.05,15.78,17.86,5.25,18,10.41,37.34,10.88,57.37.16,6.48.17,12.84.16,18.75v3.28Z"/><path class="cls-3" d="M279.56,1124.54c-6.93-7.88-13.86-16.49-20.61-25.6l-.55-.75.21-.9c1.33-5.63,2.48-11.45,3.6-17.08q1-5.12,2.06-10.22l1.45-6.87,2.39,6.6c.17.47.33.94.49,1.4l0,.11a28.73,28.73,0,0,0,1.09,2.87c7.41,15.76,14,31.39,13.34,49.19l-.19,5Z"/><path class="cls-3" d="M252.87,1090.51c-7.76-11-15.49-23-23-35.52l-.49-.82.85-2.28c.93-2.47,1.86-5,2.8-7.42,3-7.89,5.49-16.16,7.9-24.16,1.09-3.6,2.19-7.24,3.31-10.8l1.87-5.9,1.94,5.87c.4,1.22.83,2.43,1.27,3.64a79,79,0,0,1,2.66,8.48,98.91,98.91,0,0,0,4.56,13.51c3.93,10,8,20.39,4.63,32.92-1.94,7.21-3.41,14.67-4.74,21.7l-.87,4.64Z"/><path class="cls-3" d="M225.57,1047.58c-6.06-10.48-12.14-21.71-18.08-33.38l-.47-.91.47-.91c3.07-6,6.08-12.57,9.49-20.83,3.12-7.56,5.29-15.65,7.58-24.21,1.09-4.07,2.22-8.28,3.5-12.65l.33-1.12,3.3.12.25,1.14c.48,2.27.78,4.42,1,6.32.48,3.48.89,6.45,2.22,8.42,12.25,18.08,6.54,37,1.5,53.75-.31,1-.63,2.09-.93,3.12-2.49,8.39-4.52,14.8-6.58,20.79l-1.43,4.15Z"/><path class="cls-3" d="M202.75,1004.75c-5.78-11.71-11.51-24-17-36.6l-.45-1,.63-.91c9.5-13.86,14.79-29.29,20.38-45.63,2.11-6.18,4.29-12.54,6.73-18.89l.43-1.1,3.3.43.13,1.18a99.42,99.42,0,0,0,4,17.47c3.15,10.74,6.13,20.87,2.74,33.41-4.23,15.68-9.59,34.07-17.22,51.58l-1.72,4Z"/><path class="cls-3" d="M182.1,959.87c-5.1-11.86-10.26-24.5-15.34-37.57l-.38-1,.56-.86c6.21-9.64,11.35-17.69,16.31-26.18,5.67-9.71,9.15-20.5,12.84-31.93,1.44-4.47,2.91-9,4.55-13.69l.41-1.15,3.39.46.09,1.21c.43,6,2,11.54,3.55,16.87,2.26,7.86,4.39,15.28,2.92,23.64-3.53,20-11.4,38.78-19,56.92l-.43,1c-1.56,3.73-3.41,7.65-5.84,12.36l-1.94,3.76Z"/><path class="cls-3" d="M163.84,914.7c-5.11-13.39-10.21-27.51-15.18-42l-.4-1.16.85-.88c7.94-8.24,12.3-17.38,16.51-26.22,1.63-3.43,3.17-6.66,4.92-9.88,7-13,10.3-27.44,13.76-42.77q.75-3.39,1.55-6.84l1.48-6.4,2.34,6.14c7,18.27,10.12,33,9.92,46.22-.26,18.14-7.76,35.07-15,51.44l-.22.49-1.8,4.08c-4.24,9.69-9.58,18.8-15.14,28.06l-2.11,3.53Z"/><path class="cls-3" d="M146.78,867.22c-26.28-77.41-49.43-167.1-66.95-259.37l-.17-.89.55-.71c3.94-5,8.15-9.94,12.23-14.69,4.72-5.5,9.59-11.18,14-17,15.79-20.87,28.14-44.21,37.74-71.35l1.4-3.94,2.19,3.56c5.12,8.31,3.64,16.65,2.22,24.72a74.07,74.07,0,0,0-1.24,9.13,135.43,135.43,0,0,1-7.54,38.11c-3.56,10-7.83,21.85-12.58,33.5-3,7.43-6.6,15.18-11.59,25.15a114,114,0,0,1-6.18,10.4c-3.46,5.37-7,10.91-8.8,17.16l1.72-2.3c8.33-11.15,17-22.68,22.51-36.1,1.63-3.93,3.37-7.93,4.9-11.45,4.3-9.93,8.75-20.19,11.93-30.69,1.62-5.36,3-10.87,4.4-16.19.64-2.5,1.28-5,1.95-7.48l.33-1.25,3.55.39.05,1.3c.16,4.31.73,8.62,1.29,12.79a105.5,105.5,0,0,1,1.33,17.32c-.89,28.25-6.58,52.36-17.41,73.71-5.4,10.65-11.63,21.07-17.65,31.14-3,5-6.06,10.12-9,15.27a3.76,3.76,0,0,0-.34.9,7.81,7.81,0,0,0,1.87-2c1.83-2.54,3.73-5.08,5.57-7.53a214.59,214.59,0,0,0,13.16-19c6.26-10.65,14.08-24.9,19-40.65l1.29-4a160.66,160.66,0,0,0,5.75-21.21c0-.36.12-.75.2-1.15l.27-1.45,3.9.68-.24,1.46c-.06.38-.12.76-.19,1.14-.91,6.25.67,12.43,2.19,18.42,1.23,4.82,2.5,9.81,2.57,15,.28,19.68-4.06,39-13.65,60.69A389.25,389.25,0,0,1,123.64,764c5-2.26,7.12-6.58,9.6-11.57a41.91,41.91,0,0,1,4.94-8.26c6.94-8.38,11.41-18.24,15.72-27.78l1.19-2.62c3.26-7.16,5.95-14.77,8.8-22.82,1.36-3.83,2.73-7.71,4.24-11.78l2.6-7,1.25,7.34c.34,2,.58,3.6.8,5a49.37,49.37,0,0,0,1,5.64c5.79,21.53,4.35,42.59-4.42,64.4-4,9.83-9.2,19-14.28,27.93a260,260,0,0,0-12.57,24,12.91,12.91,0,0,1-1.87,2.8,8.8,8.8,0,0,0-1.23,1.75,2.83,2.83,0,0,0,.7.45.87.87,0,0,0,.39.12c1.16,0,3-3,3.91-4.47l.49-.8,2.45-3.85c12.45-19.59,25.33-39.85,31.51-67l.27-1.21,3.45.1.2,1.22c8.36,50.46-11.37,89.9-32.26,131.66l-2.24,4.5Z"/><path class="cls-3" d="M78.67,601.74c-2.8-15-5.48-30.12-8-45.08l-.3-1.78,2.31-.63a6.66,6.66,0,0,0,2.18-.83c4.7-6.41,9.26-13.1,13.66-19.57,3.92-5.76,8-11.68,12.11-17.45,16.6-23,28.3-48.93,36.63-69a4.84,4.84,0,0,1,2.12-2.15,6.75,6.75,0,0,0,.57-.4l2.22-1.78.93,2.68a5.42,5.42,0,0,0,.22.56,6.9,6.9,0,0,1,.63,2.23c.13,2.27.3,4.51.46,6.74.82,11.29,1.6,21.87-.8,33.65-5.48,26.92-18.06,50.07-28.41,67.22a390.8,390.8,0,0,1-33.07,46.45l-2.72,3.3Z"/><path class="cls-3" d="M69.86,551.44C67,534,64.37,516.42,62,499.33l-.14-1,.73-.71c5.48-5.29,10.06-10,14-14.52,8.81-10.05,18.76-22.26,25.71-36.7a231.73,231.73,0,0,1,12.08-21.16c5.63-9.11,11.45-18.51,15.3-28.68a15.68,15.68,0,0,0,.52-1.89,12,12,0,0,1,1.34-3.75,3.79,3.79,0,0,1,3.2-2.08c1.81,0,3.2,1.62,3.32,3.86.2,4.07.81,8.27,1.4,12.32,1.53,10.49,3.1,21.33-1.76,32.08-3.15,7-6.57,13.92-9.88,20.64-2.92,5.95-6,12.1-8.77,18.23-10.85,23.54-25.24,45.37-39.15,66.47l-.27.41-6,9.09-.09.15-2.8,5Z"/><path class="cls-3" d="M62,439.82l3.43-4.07c11.41-13.53,23.2-27.52,31.7-43.3,10.3-19.11,21.84-41.53,28.53-65.8l.84-3,2.39,2c4.09,3.49,3.51,7.71,3,11.09a14.5,14.5,0,0,0-.15,4.71l.4,1.87c2.57,12.06,5.23,24.53.87,37.48C127.45,397.4,118.55,412.42,110,427c-4.85,8.19-9.87,16.67-14.2,25.28-5.77,11.46-14.12,21-22.19,30.29l-.08.09c-2.63,3-5.36,6.14-7.94,9.27L62,496.18Z"/><path class="cls-3" d="M62,370.67l.4-.53c4.3-5.74,8.19-11.95,11.94-18,2.64-4.23,5.37-8.58,8.23-12.77,8.2-12,14.19-25.46,20-38.49l0-.1c1.51-3.4,3.08-6.91,4.66-10.36,2.79-6.06,5.2-12.17,7.74-18.64l0-.13c1.12-2.84,2.25-5.7,3.42-8.58l2.71-6.68,1.12,7.12c.46,2.94,1,5.88,1.51,8.73,1.3,7.19,2.52,13.9,2.76,20.84a26.69,26.69,0,0,0,.85,5c.82,3.52,1.74,7.5-.1,11.93-3.71,8.86-6.81,18.2-9.81,27.24l-1.62,4.88C110,359.71,101.64,376,92.82,392.53c-5.92,11.11-13.76,21.05-21.33,30.66-2,2.51-4,5-5.91,7.54L62,435.39Z"/><path class="cls-3" d="M62,301.91l.48-.56a195.81,195.81,0,0,0,25-37.56c7.7-14.7,13.66-30.46,19.43-45.7q2.1-5.57,4.24-11.15l.46-1.19,3.46.73,0,1.27c-.27,6.06.84,12.18,1.91,18.1,2,10.79,4,21.93-1.48,34.29-3.42,7.71-6.66,15.68-9.81,23.4C100.17,297,94.5,310.89,87.71,324c-6.28,12.1-13.58,23.87-20.63,35.26L62,367.48Z"/><path class="cls-5" d="M107.61,854.12c-.12-.47-.21-1-.29-1.45a6.71,6.71,0,0,0-.58-2.14Q97,834.35,87.15,818.2l-.47-.77C79.11,805,70.54,790.86,62.29,777.15l-.29-.48V679.74l3.2-.81.56,1c5.32,9.79,10.57,20.75,16.52,34.49,11.44,26.43,18,48.61,20.68,69.79,1.12,8.88,2.46,17.88,3.75,26.58.67,4.48,1.32,8.89,2,13.3q1.59,11.21,3.14,22.41l1.22,8.77-2.07.21-1.16.12-1.75.22Z"/><path class="cls-3" d="M62,231.05l.37-.51c2.91-4.12,5.66-8.47,8.32-12.69,2-3.07,3.92-6.19,5.94-9.21C87,193.13,94,176,99.77,161.23a9,9,0,0,1,1.56-2.42c.22-.27.42-.51.59-.76l1.16-1.63,1.63,1.16a2.64,2.64,0,0,0,.3.18c.74.44,2,1.19,1.79,2.71-.78,4.93.53,9.66,1.91,14.66,1.91,6.92,3.89,14.08.66,22.47-2.56,6.64-5.05,13.44-7.45,20l-.06.14c-5.7,15.6-11.59,31.73-19,47.1-5,10.41-11.53,20-17.25,28.11L62,298.15Z"/><path class="cls-3" d="M62,160.8l.34-.5A102.8,102.8,0,0,0,73.22,139c3.46-9.37,7.1-18.76,10.63-27.84C85.43,107,87,103,88.51,99l2.36-6.14,1.46,6.42c.86,3.76,1.81,7.7,2.66,11.17,2.09,8.64,4.26,17.57,5.72,26.56C102,144.84,99,151.64,96,158.23c-1.06,2.35-2.15,4.79-3,7.2a244.4,244.4,0,0,1-27.35,54.45L62,225.38Z"/><path class="cls-3" d="M62,146.5V62H77.08l.6.84a36.74,36.74,0,0,1,6.19,12.74c3.49,14-.92,26.14-5.59,38.94L77,118c-3,8.51-6.77,18.51-11.2,28.15l-.51,1.09Z"/><polygon class="cls-2" points="6 8.83 58 60.83 58 1619.17 6 1671.17 6 8.83"/><path d="M945.76,993.08c-1.61-2.87-3.2-5.77-4.84-8.62-2.18-3.8-4.57-7.48-7.24-11.84-1.85,8.68-.93,17-2.19,25.2s-2.33,16.51-3.3,24.79a14.46,14.46,0,0,1-4.07,3.25q-1.3-2.7-2.6-5.41c.06-.42.11-.84.17-1.26,2.31-16.93,2.27-34.18,3.55-56a212.22,212.22,0,0,1-14.54,33.48q-2-4.57-3.92-9.15c3.88-7.61,7.61-15.32,11.47-23,10-19.9,9.32-40.54,8.24-61.56-.09-1.84,0-3.69,0-7.88a367.38,367.38,0,0,1-25.54,59.15c-1.46,2.76-2.83,5.58-4.2,8.41q-1.8-4.68-3.55-9.33c5.1-10,9.75-20.21,14.34-30.41,7.64-17,18.32-33.58,17.32-53.47-.54-10.85-1.91-21.66-2.84-31.62-9.52,28.59-21.11,56.58-41.56,79.41-.75-2.24-1.49-4.49-2.22-6.72,24.64-37.55,51.25-74.44,35.82-126.18C907,810,894.71,832.5,882.78,855c-4.24,8-8.53,16.26-14.48,23.3q-1.32-4.5-2.58-8.93c9.44-15.66,18.47-31.56,25.92-48.27,7-15.69,15.38-31.34,18.74-47.91,2.38-11.68-2.48-24.87-4.38-37.35-.71-4.68-2.21-9.25-3.48-14.4-11.6,28.42-22,56.38-36.67,82.62-4,7.06-7.73,14.19-11.78,21.15q-1.12-4.54-2.16-9c2.27-3.82,4.45-7.69,6.5-11.63,7.69-14.77,13.8-30.37,20.52-45.64,5.57-12.63,8.87-27,17.13-37.51,8.48-10.75,1.05-18.71.43-27.78-.33-4.78-2.83-9.42-4.93-15.94C888,696,880.19,711,873,726.27s-15.29,30.09-26.82,42.64c-.9,1-2.18,3.09-4,2.67l-1.17-6c.18-.23.35-.44.48-.64,12.34-18.47,23.5-37.67,32.32-58,6-13.72,15.92-27.14,14.5-42.33-1.24-13.4-7.89-26.3-11.86-38.49-5.64,14.63-11.51,29.85-17.39,45.08-1,2.49-2.69,4.25-5.43,3.68-3.35-.7-.82-3.35-.52-4.32,3.86-12.55,6.8-25.6,12.49-37.29,6.56-13.47,5.41-25.51-.56-38.32-5.74-12.3-10.86-24.88-17.39-40,1.12,17.45,2.64,31.83,2.72,46.22,0,7.77-2.22,15.58-3.76,23.31-.26,1.29-2.16,2.25-3.3,3.37-.78-1.75-2.49-3.66-2.21-5.22a164.31,164.31,0,0,0,1.31-45.41c-2.14-20.77-2.93-42-15.92-60.23-6.09-8.55-10.22-18.5-16-27.4,5.93,21.5,10.91,42.92,11.94,65.1.13,2.92-.62,7-3.3,7-3.16,0-4-3.71-4.32-7.2C812.38,532,807.53,510,801.52,488c-8.82-32.3-33.42-49.41-58-67.58-9-6.66-18.93-11.14-28.44-16.62a14,14,0,0,0-3.57-.92c.35,1.13.66,2.28,1.06,3.39,6.14,16.75,11.47,33.86,18.69,50.14,5.84,13.17,18.29,21.69,27.25,32.75,12.54,15.46,26,30.14,39,45.27,1.09,1.28,1.1,3.48,1.61,5.25a38.36,38.36,0,0,1-5-2.66c-18.23-13.24-31-31.73-46-48.06-4.44-4.83-7.6-10.83-13.08-15.44,2.69,8.6,5.18,17.25,8.1,25.77,4.95,14.42,5.47,30.52,16,42.82,16.32,19,32.76,37.92,49,57a115.23,115.23,0,0,0,20.72,19.42c.81.57.65,2.53.93,3.84-2.91-.76-6.26-.85-8.67-2.4-17.77-11.48-29.47-28.78-42.43-44.85-6.93-8.59-13.76-17.25-22.3-28,3,17.72,5.8,32.25,15.12,45.63,18.48,26.51,36.25,53.44,60.21,75.53,5,4.56,10.14,8.87,14.89,13.63,1.55,1.55,3.41,4.92,2.74,6.13-1.6,2.87-3.91.4-5.73-.85-21.16-14.61-37.59-33.66-52.61-54.34a405.75,405.75,0,0,1-23.5-35.49c2,10,3.15,19.29,5.66,28.17,3.79,13.42,3.52,27.69,11.55,40.32,14.56,22.91,27.42,46.9,44,68.48q-.67,4.76-1.38,9.44c-16.78-20.23-29.76-43.12-44.73-67.5,1.67,12.44,2.93,22.6,4.44,32.73s1.47,21.32,5.41,30.62a430,430,0,0,0,26.18,52.65c-.7,3.36-1.39,6.64-2.09,9.86-5.11-7.77-8.86-16.39-13.92-24.19-3.62-5.59-2.87-13.14-9.54-17.78,1.34,10.82,3.56,21.22,3.72,31.66.25,16.62,6.5,31.57,11.11,47-1.14,4.47-2.23,8.61-3.24,12.38q-1.85-6.5-3.67-12.92c0,4.9,0,9.72,0,14.54,0,3.9,0,7.81,0,11.71-2.2,7.71-3.56,12-3.56,12a52.5,52.5,0,0,1-3.73-4q-.39-11-.9-22.06c-.52-10.69-2-21.34-2.94-31.81-3.66,10.28-7.28,20.75-11,31.23q-2.31-4.2-4.73-8.92,4.05-11.43,8.14-22.85c4.47-12.47,6.51-25.17,4.62-38.39-1.53-10.74-2.94-21.49-4.65-34-6.08,15.07-11.19,29-17.32,42.43-2.53,5.56-4,11.77-7.49,16.91q-1.86-4.31-3.79-8.83c6-16.14,11.69-32.47,19.79-47.48,12.33-22.82,1.71-44.41.61-66.53-.09-1.71-1.93-3.34-2.95-5-.65,2.83-1.17,5.69-2,8.48A318.61,318.61,0,0,1,739,757.88c-.18.31-.38.65-.6,1q-1.56-3.9-3.15-7.94c11.69-23.56,20.63-48.21,29.69-72.84,7.79-21.18,1.92-41.44-2.91-61.89-1-4.42-.67-9.28-4-12.74-8.82,26.74-15.21,54.49-29.09,79.44-2.13,3.83-6.11,6.63-9.35,9.79-.36.35-1.47-.07-2.24-.14.26-2.5-.42-5.78.91-7.39,13.63-16.44,16.92-37.34,24.51-56.32A302.06,302.06,0,0,0,755,589.45c1.08-4.34-1-9.58-2.07-14.32-1.81-8.21-3.93-16.34-6.51-26.92-4.72,21.72-13.94,38.82-20.57,56.88-2.71,7.39-4.43,15-10.57,20.41-.85.75-2.23.91-3.37,1.34-.19-1.36-.93-2.94-.49-4.06,9-23,18.75-45.78,27-69.07,5.39-15.24,3.58-30.92-2.15-46.14-3-8-5.29-16.2-8.05-24.79-9.15,23.12-18,45.86-27.17,68.51a160.7,160.7,0,0,1-8.34,17.1c-.82,1.48-3,2.17-4.64,3.23-.31-2.53-1.63-5.48-.79-7.53,8.21-19.84,17.29-39.33,25-59.34,4.78-12.33,10.54-25.37,10.59-38.12.06-11.79-6.88-23.62-10.8-35.41-1-3.09-2.28-6.09-4.3-11.42-1.57,17.22-6.06,31.34-10.66,45.42-5.6,17.17-11.25,34.31-20.67,49.94-3,5-4.85,10.77-7.53,16-.72,1.4-1.64,4.65-3.82,3.14-3.7-2.56-2.48-6.81-.79-9.86,14.36-25.84,23-54,32.36-81.74,6.92-20.45,9.7-41.53-3.55-61.27-.61-.91-.32-2.43-.88-7.63-3.73,13.2-6.46,22.73-9.11,32.29A502.92,502.92,0,0,1,664.52,460c-2.74,6.77-4.91,13.62-9,19.84-1.73,2.61-2.83,5.46-5.73,7-.21-3.67-1.86-8.1-.4-10.9,11.7-22.32,19.77-46.18,26.77-70.05,4-13.78,12.11-27.27,10.51-42.21-1-9.15-9.36-16.17-10.35-26-.12-1.25-2.23,2-2.58,3.17-5,16.16-9.12,32.62-14.78,48.54-5.5,15.48-12.53,30.43-18.9,45.61-1.32,3.15-2.59,6.34-4.1,9.41-1,2-2.43,4.38-5.17,3.29-3.13-1.26-2.37-4.72-1.57-6.56,10.07-23.12,20.93-45.9,28.71-70,4.56-14.12,11-28,12.84-42.48.93-7.4-6.53-15.83-10.07-23.85-1.08-2.43-1.73-5-2.83-8.34-4.39,24.25-12.28,46.79-21.14,68.83-5.09,12.68-13.46,24.06-20.52,35.92-.53.89-2.94,1.71-3.6,1.26-1.75-1.18-2.11-3.08-.95-5.24,5.76-10.73,12.42-21.13,16.89-32.39,6.94-17.46,11.47-35.89,18.7-53.21,6.51-15.58,5.85-29.35-4.27-42.71a5,5,0,0,0-2.24-1.75c-.32-.1-1.41,1.07-1.56,1.78-5.12,24.78-15.57,47.77-24.25,71.31-3,8.09-5.73,17.32-15.16,21.28-.86.36-1.46,2.46-2.51.58-.36-.65.44-2.06.9-3,14.7-31.09,26.21-63.39,36.91-96,4.28-13.06-8.49-20-10.31-30.71,0-.11-1.31-.29-1.46-.07-.82,1.18-1.87,2.4-2.12,3.74-4.24,23.43-14.68,44.73-22.91,66.78-2.63,7.05-5.87,13.74-10.87,19.71-2.12,2.54-3.8,2.36-6.1,2.53,0-1.76-.73-4,0-5.23,12.49-20.31,20.47-42.78,28.58-64.85,6.58-17.88,11.66-37.73-3.63-55.11-1.75-2-3.66-3.83-5.49-5.75-1.23,3.25-3.28,6.43-3.55,9.75-1.24,15.32-9.13,28.54-13.21,43-3.53,12.49-7.27,25.27-15,36.16-.9,1.28-1.31,4.24-4.24,2.44s-2-4.09-1.07-6.39c6.39-16.45,12-33.27,19.47-49.24,6.85-14.69,9-30.35,11-45.83.69-5.59-5.58-12.33-9.35-18.11-9.34-14.34-19.07-28.41-29.71-44.17,0,4.35,0,7.16,0,10a417.61,417.61,0,0,1-11.74,108.75,118.07,118.07,0,0,1-4.06,14.17c-.8,2.15-1.6,4.8-3.17,5.43L533,253.54c.12-.56.25-1.1.34-1.59,2.71-14,6.23-27.93,8.38-42,2.73-17.92,4.79-36,6.48-54,2-21.43,4-43.11-12.08-61C528.18,86.1,520,77.57,511.18,68.11c3.86,16.57,7,31.85,8.5,47.77,1.57,17.06,1.14,34,1.34,50.91.18,15.47-3.59,30.19-9.17,44.44-1.86-3.66-3.71-7.26-5.52-10.79,1.67-6.18,4.29-12.19,5.11-18.69,3.25-25.8,2.63-51.34-.42-76.92-1.63-13.72-3-27.73-6.93-40.83H486.8c.74,13.12-2.56,26-2.35,39.06.17,10.55-2.24,21.13-3.37,31.71a50.2,50.2,0,0,1-3,12.39q-3-5.58-5.93-10.82c3.32-16.07,3.8-32.59,5.29-49.08.71-7.8,1-15.54,1.13-23.26H346c1.11.38,2.22.76,3.33,1.16,11.09,4,22.95,3.25,33.81,7.63,2.25.91,4.77.9,6.08,3.37-2.4.94-4.92,2.91-7.2,2.67a273.16,273.16,0,0,1-43.13-8.22Q328.41,67.73,318.11,64H305.7c13.56,20,33.6,32,53.45,44.13q3.84,6.8,7.71,13.42c-3.93-2.36-7.82-4.82-11.71-7.28-5.81-3.68-11.69-7.27-18.49-11.49,9.77,14.81,18.2,29.4,28.4,42.61,9.39,12.15,21.58,20.8,34.34,28.72q5.4,8.25,10.72,16.1c-9.93-5.85-19.12-13-28.13-20.37-.58-.48-1.47-.57-4.39-1.65,12.43,16.88,18.77,35.11,31.34,49.69a422.46,422.46,0,0,0,48.32,48c5.49,4.6,11.75,8.24,17.84,12.12q4.78,5.91,8.92,10.86l0,.2a64,64,0,0,1-6.57-2.19c-22.95-10.47-39.68-28.88-59.81-47.56C425.92,254.8,432.69,268,440,281c6,10.58,12.68,20.79,19.07,31.16.91,1.46,1.82,3,0,4.34-2.07,1.49-2.91-.63-3.94-1.71-16.07-16.86-25.1-38.26-38.09-59.38,0,11.71.24,21.76-.09,31.78a108.12,108.12,0,0,1-2.15,18.47c-.48,2.34-3.12,4.23-4.79,6.33-.36-2.14-1.1-4.3-1-6.43.56-17.07,1-34.15,2-51.21,1-18-11.75-30.19-18.53-44.88-2.3-5-5.71-9.45-9.41-15.42,0,16.83.84,32.49-.31,48-.7,9.58-1.53,19.68-6.84,28.37-.43.7-1.57,1-2.37,1.42,0-.9-.12-1.81-.11-2.71.41-27.25,5.45-54.17,2.15-81.83-2.29-19.2-18.82-29.12-24.52-46,0,12.15.37,24.31-.1,36.44-.51,13.43-.18,27.12-6.94,39.49a20,20,0,0,1-2.3,2.86,10.62,10.62,0,0,1-.75-2.6c-.29-12.57,3.53-25.08,3.18-37.2-.55-19.83,4.7-40.66-5.29-59.5-4-7.48-10-13.86-14.08-19.36,0,8.83,0,19.32,0,29.82.05,13.37-2.72,26.32-6.09,39.14-.38,1.44-2.74,2.35-4.18,3.5-.52-1.63-1.67-3.34-1.48-4.88,1.8-14.74,6.62-29.75,5-44.07-1.83-16.45,4.22-35.79-12.85-49-3.69-2.84-6.42-6.94-9.85-12h-4.32c2.05,17.4.23,32.61-2,47.78-.79,5.3-.54,11-4.71,15.31a13.75,13.75,0,0,1-2.7,1.71,12.88,12.88,0,0,1-.62-3.23c1.12-17.45,2.8-34.88,3.29-52.34a77.05,77.05,0,0,0-.34-9.23H143.27c9.42.46,18.9.49,28.3.9,2.53.11,5.25.55,5.15,3.27-.06,1.93-2.36,2.3-4.89,2.49-24.9,1.94-49.36,0-73.36-6.66H85.61c3.62,11.22,6.64,22.72,12.15,32.88,3.5,6.46,12.3.61,18.6-.27,11-1.53,21.8-3.93,32.75-5.6a198.28,198.28,0,0,1,20.5-2c2.66-.13,6.5-1.79,7.56,2.25.14.57-4.59,3.14-7.27,3.62-20.78,3.71-41.62,7.13-62.55,10.65,9.94,5.85,21.41,6.41,32.17,9.39,21.54,6,43.36,1.41,65,2.08,3,.09,5.27-3.39,8.69-1.18,1.12.73,4.1-2.61,4.46.78.14,1.29-2.81,3.89-4.67,4.24a222.78,222.78,0,0,1-57.28,4,8.54,8.54,0,0,0-4.83,1.19c12.65,3.5,21.74,13,34.09,17.63,20.82,7.85,42,9.36,63.54,11.4,7.93.75,15.76,2.59,23.64,3.94,1.91.33,2.54,1.57,1.87,3.27-2,5.09-6.85,2.55-9.66,2.39-11.59-.69-23.12-2.5-34.65-4.06-8-1.08-16-2.42-24-3.63-.83-.12-1.68-.1-2.52-.15.26.68.32,1.69.81,2,21.61,12.95,40.13,31.84,66.65,35.37,12.79,1.7,25.66,2.76,38.51,4,2.71.26,5.56-.43,7.71,1.93-2.59,1.6-5.22,4.64-7.77,4.58-17.14-.38-34.31-1.09-50.59-7.51-.24-.09-.61.14-.93.22,2.58,6.1,7.8,9,21.78,17.48,19.06,11.55,38.58,21.81,59.69,29,3.51,1.19,7.13,2.16,10.49,3.68,1.58.72,2.67,2.52,4,3.82a6.32,6.32,0,0,1-6.47,1.39c-15.78-4.38-31.5-8.9-45.91-17-1.09-.61-2.63-.45-4-.66,8.7,9.67,16.13,20.15,25.71,28,13.37,11,29,19.28,42.43,30.17,12.55,10.15,26.34,18.18,39.72,26.94,3.55,2.33,7.29,4.34,10.94,6.5q-6.06.29-12.6.46c-11.86-6.58-24-12.65-34.61-21.4-8.71-7.2-18.09-13.58-29.18-21.83,4.58,6.32,7.63,10.86,11,15.13,7.25,9.15,14.48,18.36,20.54,28.26-1.78,0-3.59-.06-5.41-.1s-3.81-.11-5.68-.21c-7.82-11.29-15.7-22.52-24.08-33.36-2.44-3.16-4.58-7.27-9.71-11.34,6.32,14.13,6.94,27.81,6.92,41.34q-3.91-.8-7.67-1.74c-1.66-17.82-3.25-35.73-11-52.07-5.37-11.25-14.86-20.38-25.76-29.41,5.1,15.18,6.89,29.88,9.07,44.56a109.35,109.35,0,0,1,.57,27.43c-2.52-1.14-5-2.34-7.34-3.58,0-6.24,0-12.47-.16-18.7-.46-19.51-5.44-38.42-10.8-56.86-2.85-9.79-14-15.27-21.9-22.18-2.17-1.9-4.27-3.87-6.38-5.82,7.22,25.49,13.62,51.27,16.13,77.62.38,4,1.88,8.48,2.1,12.89-3.42-2.51-6.62-5.08-9.61-7.66a120.86,120.86,0,0,0-1.29-13.23c-3.53-22.07-8.43-43.79-13.26-65.59-5.18-23.34-27.54-26.92-41.33-40.22-2.14-2.07-4.67-3.75-7.07-5.65,5.4,12.52,11,24.86,16,37.42,1.86,4.64,2.5,9.79,3.44,14.76.12.67-1.23,2.32-1.9,2.32-3.56,0-5.26-2.84-5.9-5.59C204,190.46,193.81,170.37,181,152.87c-7.3-10-22.73-14-34.53-20.6-.24-.13-1.16.35-1.15.47a6.34,6.34,0,0,0,.58,2.2c7,13.09,13.45,26.38,18.06,40.52.82,2.51-.08,4.54-2.19,5.34-2.45.92-3.93-1.36-4.67-3.17-7.13-17.48-13.72-35.28-24.37-51-4-5.87-11.65-7.54-18.45-9.74-4.29-1.39-8.25-3.82-11.78-5.51,2.68,32,15.88,57.09,43.55,76.7,22.55,16,45.72,31.45,67.27,48.94,1.7,1.37,3.65,3.49,2.14,5.34s-3.55,0-5.53-1.05c-32.81-17.38-60.64-41.52-88.75-65.26-2.13-1.8-3.38-4.64-7.56-10.56,6,18.16,4.4,33.44,17.79,45.69C155.5,233.32,177.7,257.52,205,276c5.77,3.9,11.84,7.38,17.84,10.95,2.79,1.66,6.34,3.89,4.91,6.93-1.19,2.51-4.6,1-7.55-.45-23-11.26-42.65-26.9-60.64-44.8-11.89-11.82-23.51-23.9-37-37.63,2,12.35,5.07,22.28,5.08,32.21,0,22.77,17.85,32,31.26,45.14,15.19,14.86,31,28.81,48.68,40.6,1.56,1,2.09,3.62,3.09,5.49-2.4,0-5.31,1-7.14,0-13.89-7.67-25.89-17.91-37.4-28.72q-16.43-15.42-32.66-31.06c-.75-.73-.71-2.28-1.92-3.3,1.19,11,3.11,22,3.42,33,.69,25.25,18.84,38.28,35.18,53,12.62,11.4,27.26,19.89,40.53,30.29.91.71,1,2.49,1.45,3.77-1.52.16-3.33,1-4.5.4a171.77,171.77,0,0,1-37.92-24.31c-10.86-9.3-21.49-18.69-30-30.9,1.78,23.15,1.33,45.51,20.57,63.3,14.28,13.22,26,29.26,41.63,41.38,1.09.85,2.87.88,3.84,1.8,1.44,1.38,3.69,3.54,3.36,4.79-.5,1.94-2.92,2.2-5.28,1.28C189.29,443.46,179,432.46,169.12,421c-7.94-9.17-15.67-18.52-23.71-28,1.9,13.29,5.67,26.35,5.19,39.25-.84,22.72,15.4,34.38,27.72,48.83A258.08,258.08,0,0,0,218.07,519c1.22.94,4.14,1.78,2.17,4.48-1.68,2.3-3.16.85-5-.07-15.75-7.8-27-20.47-38.65-33.21-7.94-8.7-15.69-17.4-23.34-26.85,4.91,14.38.24,29.44,4.45,44.24,7.08,24.85,29.27,36,44.9,53.1,6.28,6.85,15,11.48,22.34,17.38,1.92,1.53,5.73,3.91,3.25,6.45-3.75,3.84-8.16-.67-10.79-2.34-15.77-10-28.7-23.53-42.27-36.21-5.45-5.08-9.9-11.22-16-18.31.81,6.49,1.47,11.34,2,16.2,1.38,12.46.7,25.61,4.67,37.17,3.13,9.12,12,16.28,18.24,24.32,14.95,19.12,34.36,33.22,53.49,47.64.68.51,1.42,2.23,1.15,2.54-2.22,2.53-5.29,2.17-7.66.79a167.41,167.41,0,0,1-50.28-44.66c-4-5.4-8.57-10.43-13.32-16.16,1.32,11.72,2.94,23.08,3.81,34.5,1.1,14.51,10.85,24,19.95,33.17,11.42,11.47,24.56,21.24,37.05,31.64,1.87,1.56,6.14,2.11,4.4,5.15-1.43,2.51-5.31,1.52-8,.13-11.09-5.73-20.08-14.29-28.63-23-5.91-6.05-14-9.92-18.59-21.85-.88,18.77-.34,35.74,7.11,46.3,9,12.78,26,20.07,39.8,29.29,7.13,4.77,14.91,8.57,22.39,12.82,2.8,1.6,2.39,4.07,1.17,6.22-1.77,3.14-2.84-.35-4.11-.83-21.67-8-39.42-22.46-57.85-35.61-1.89,22.93,11.83,45.4,31.35,56.29,15,8.39,28.47,19.67,42.11,30.41A98,98,0,0,1,226.23,784c-10.27-7.82-22-13.7-31.08-23.16-1.89-2-2.41,0-2,1.28,6.14,19.07,3.78,40.54,26.42,53.78,18.66,10.9,37.17,21.9,56.51,31.58,1.67.84,5.36,2.16,4.24,6s-3.41,2.64-5.91,1.6c-24.62-10.21-48.16-22.25-68.53-39.73-3,21.22,11.46,48.87,30.75,59.83,8.37,4.75,15.89,11,24.14,16s16.67,9.12,27.43,14.92c-21.49-.15-35.5-10.57-49.58-20.68-6.17-4.43-12-9.32-18-13.94a11.48,11.48,0,0,0-2.65-1.15c-.29,1-1,2.16-.8,3.07,4,16.7,4.91,34.26,18.49,47.58a380.18,380.18,0,0,0,62.82,49.86q.26,4.05.5,8.07c-.64-.33-1.25-.65-1.8-.92-24.69-12.29-44.89-30.5-64.22-49.78-.33-.33-.74-.58-2.55-2,6.54,19.23,6.54,39.12,22.07,53.29,9.69,8.85,17.61,19.7,27.6,28.15,6.4,5.4,14,9.44,21.33,13.69.11,2.19.23,4.35.34,6.5-18.24-6.14-32.26-18.44-44.85-32.74-3.07-3.49-6-7.13-10.45-12.53,3.53,12.22,5.66,22.67,9.56,32.4,9.16,22.91,29.53,35.56,47.53,50.32q.21,4.65.4,9.11-13.8-10.48-27.34-21.26c-4-3.21-6.94-7.73-10.35-11.64,6.63,27.9,20.56,50.31,39.12,69.24.13,3.51.24,6.82.34,9.9-6.13-5.67-12.31-12-18.82-19.16,7.14,13.88,13.44,26.14,19.42,37.78.18,6.35.27,9.82.27,9.82q-3-2.64-5.91-5.43c-.55-1-1.11-2.07-1.67-3.11-3.52-6.51-6.81-13.15-11.27-21.79-.42,3.85-.59,7.55-.67,11.12q-3-3.24-6-6.62c.65-17.39-5.87-32.78-13.15-48.27-.67-1.42-1.1-3-1.68-4.55-1.93,9.16-3.55,18.33-5.67,27.35q-3-4.12-6.06-8.39c1.39-7.34,2.83-14.66,4.77-21.85,4.66-17.34-5.73-30.44-9.21-45.46-.94-4.07-2.57-8-3.88-11.94-3.69,11.66-6.88,23.59-11.25,35.07-1.11,2.92-2.21,5.86-3.31,8.79q-2.18-3.66-4.32-7.39c2.37-6.89,4.51-13.83,6.55-20.71,5.08-17.11,12.16-36.77-.31-55.18-2.41-3.56-2.16-8.93-3.56-15.44-4,13.6-6.49,25.78-11.15,37.06-2.93,7.1-6,14.15-9.56,21q-2.39-4.66-4.73-9.42c7.16-16.44,12.36-33.68,17.12-51.3,5.05-18.7-4.93-32.62-6.79-50.15-8.81,22.91-14,45.49-27.33,64.93q-1.81-4.11-3.6-8.27c2.07-4,4-8.06,5.78-12.21,7.83-18.66,15.76-37.34,19.31-57.51,2.39-13.55-5.41-25.08-6.5-40-5.92,16.73-9.55,32.27-17.55,46-5.2,8.9-10.77,17.58-16.36,26.26q-1.47-3.77-2.91-7.58c5.45-9.08,10.81-18.21,15-27.83,7.75-17.67,16.58-35.84,16.86-55.24.22-14.59-3.74-29.61-9.79-45.48-4.23,18.31-7.31,35-15.5,50.11-6.37,11.73-10.55,24.91-21.75,36.54q-.95-2.75-1.88-5.51c20.84-41.67,40.44-80.75,32.18-130.65-6.66,29.29-20.75,50.25-34.21,71.5-1.77,2.81-4.24,7.48-7.39,5.88-4.37-2.21.29-4.87,1.47-7.59,7.81-17.87,19.49-33.63,26.82-51.87,8.42-20.93,10.15-41.57,4.35-63.13-.72-2.65-1-5.43-1.88-10.82-4.83,13-8.3,24.17-13.1,34.73s-9.44,21.49-17.19,30.85C134.3,752,133.25,762,124.19,766a7.32,7.32,0,0,1-2.69,0c0-.88-.24-2,.17-2.62a388.63,388.63,0,0,0,29.88-55.48c8.5-19.25,13.78-38.75,13.48-59.85-.16-11.81-6.86-22.66-4.54-34.91C159,622.42,156,631,153.2,639.76c-4.6,14.58-11.58,28-19.24,41.06-5.5,9.35-12.46,17.85-18.83,26.68-1.43,2-3.14,3.75-6,3.15.36-1.42.42-3,1.12-4.24,8.88-15.44,18.58-30.46,26.62-46.32,11.54-22.76,16.38-47.14,17.19-72.86.32-10.19-2.24-19.8-2.62-30-2.11,7.92-4,15.9-6.37,23.74-4.41,14.59-11.07,28.29-16.89,42.33-6.43,15.51-16.56,28.12-26.27,41.24a11.61,11.61,0,0,1-2.71,2,36.67,36.67,0,0,1,.37-3.65c2.35-11.64,10.6-20.22,15.72-30.42,4.11-8.2,8.07-16.51,11.53-25,4.49-11,8.57-22.2,12.54-33.41a133,133,0,0,0,7.43-37.54c.55-10.86,5.93-22-.68-32.7-9.17,25.9-21.28,49.74-38,71.89-8.32,11-17.83,20.95-26.28,31.76-.39-2-.78-4.08-1.15-6.11a388.66,388.66,0,0,0,32.9-46.21c12.45-20.64,23.18-42.1,28.16-66.59,2.83-13.91,1.1-26.6.3-39.86a9.2,9.2,0,0,0-.74-2.26c-.72.58-1.79,1-2.1,1.76-10.11,24.29-21.5,48.09-36.86,69.36-8.81,12.22-16.88,24.9-25.77,37-.72,1-2.34,1.31-3.84,1.73q-.43-2.61-.86-5.21c0-.09.11-.18.17-.27,16.11-24.62,32.87-48.85,45.25-75.72,6-13.05,12.73-25.76,18.65-38.85,6.48-14.34.9-29,.18-43.48-.1-1.94-1.56-2.83-2.82-.82-.95,1.52-1,3.55-1.69,5.29-6.81,18-19.24,32.93-27.45,50-6.75,14-16.12,25.88-26,37.15-4.35,4.95-9.2,9.9-14.11,14.64v164A168.49,168.49,0,0,1,75.86,685c6.23,13.81,13.65,27.31,19.4,41.5,5.23,12.88,9.64,26,11.84,39.77,3.78,23.68,7.86,47.32,11.68,71,2.2,13.68,5,27.33,6,41.1,1,14.2,6.27,27.28,8.85,41,2.69,14.31,6.35,28.47,10.13,42.54,7.47,27.85,16.21,55.38,22.74,83.43,5.55,23.84,12.89,47,20.69,70.13,8.21,24.31,18.33,48,25.33,72.67,3.71,13,15.34,12.93,23.06,18.23a199.19,199.19,0,0,1,46.18,43.33c9.63,12.6,18.79,25.82,24.06,40.86,7.19,20.5,11.84,41.74,8.61,63.6-2.08,14,8.22,22.15,13.33,32.75,10.44,21.72,26.54,39.68,39.72,59.57,17.75,26.79,33.7,54.77,51,81.89,15.93,25,32.73,49.46,48.9,74.32,2.86,4.39,5.62,8.85,8.35,13.33H960V1014.7C954.34,1008.13,950,1000.65,945.76,993.08Zm3.51-8.55q5.31,9.13,10.73,18.2v-62c-3.23-4.48-6.24-9.16-9.31-13.8-4.5-6.78-10-12.87-15.44-19.72,0,12.26,1.2,24.61-.32,36.61-1.75,13.84,4.82,24.15,11,34.93C947,980.66,948.15,982.59,949.27,984.53ZM573.62,64h-4.16c7.23,8.49,14.3,16.86,21,25.51,9.14,11.83,17.27,24.45,25.77,36.78,1.47,2.13,1.53,4.82-.8,6.2-2.66,1.57-3.52-1.45-4.57-3-16-22.79-33.47-44.43-51.59-65.54H516.69a174.66,174.66,0,0,1,13.2,13.36,531.25,531.25,0,0,1,45.39,60.58c6.48,10.1,13,20.24,20.37,29.67,3.81,4.86,9.71.2,14.44-.15,12.81-1,25.39,3.27,38.66-2,14.52-5.77,30.56-7.82,46-11,10.6-2.21,21.3-4.44,32.06-5.29,8.25-.65,16.53-1.13,24.81-1.51q5.05,3.21,10.15,6.55c-9.14,1.19-18.28,2.22-27.45,2.7-27.72,1.46-54.18,8.76-81,15.29,18.35,1.16,34.95,9.15,52.6,12.48,12.27,2.3,23.77-5.06,36-5.91,11-.76,21.84-3.26,32.8-3.54,6-.15,11.91.05,17.87.43q5.25,3.87,10.5,7.88a87.66,87.66,0,0,0-15.45-.71c-19.66,1.21-39.12,3.54-58.57,6.33a6.9,6.9,0,0,0-1.93,1c.49.65.88,1.74,1.5,1.88,15,3.51,27.15,16,44.21,13,19.09-3.36,38-2.41,56.9-.05q5.15,4.37,10.24,8.89c-13.67-.87-27.34-1.92-41-2.71-6.95-.4-13.95-.15-20.92,0-1.2,0-2.37,1.11-3.56,1.71.71.85,1.23,2.07,2.14,2.5,13,6.32,22.29,20.85,38.45,20,16.62-.83,32.73,2.51,49.07,3.75,1,.08,2,.17,3.07.29q4.62,4.62,9.17,9.38-26.88-2.85-53.76-5.74c-1.74-.19-3.51,0-6.51,0,10,6.85,17.72,14.38,25.81,21.47,9.08,8,22.14,6.57,33.34,9.54a207.43,207.43,0,0,0,28.43,5.39q3,3.62,5.94,7.3a188.22,188.22,0,0,1-44.11-7.63c-2.21-.66-4.79-.09-7.77-.09,6.84,8.23,12.52,16.66,19.78,23.38,9.28,8.58,22.49,8.48,33.88,12.47a140.9,140.9,0,0,0,23.18,5.64q3.08,4.49,6,9.08c-16.1-4.1-32.79-5.89-48.25-12.44-.5-.22-1.26.2-1.9.32.44.93.89,1.87,1.33,2.81,11.23,24.11,34.58,30.43,56.67,38.63,3.82,1.42,7.64,2.83,11.45,4.29V133.46c-6.89-7.54-14-14.91-21.32-22-7.81-7.57-14.48-17-23.58-22.33-7.22-4.21-17.37-3.38-28.25-5.1,15.66,15.79,29.36,30.24,42.38,45.42,8.32,9.7,16.09,19.67,23.43,30,1.05,1.48.66,4,.93,6-2.39-.26-3.4-1.87-5-3.65-13.1-15-26.52-29.79-40-44.5-9.32-10.17-18.92-20.07-28.24-30.23-2.72-3-5.88-4.13-9.73-4.56-9.73-1.08-19.42-2.44-31.16-4,10.33,9.59,19.44,17.62,28.07,26.16,16.88,16.7,29.61,36.64,42.82,56.17.68,1,.58,2.54.85,3.83-1.5-.43-3.6-.37-4.4-1.36-7.87-9.79-15.3-19.93-23.27-29.63-14.7-17.9-33-32.38-48.3-49.54-10.22-11.5-22.5-6.75-36.28-12.7,13.74,16,25.68,29,36.63,42.81,9.2,11.62,17.13,24.25,25.91,36.21,1.4,1.91,1.6,2.57-.3,3.64-1.68,1-3,1.44-4.65-.59-17.15-21.13-35.17-41.6-51.43-63.4C791.31,71.57,772.76,67,751.48,67.56c9.91,10.89,20.29,21.6,29.83,33,8.4,10,15.91,20.79,23.61,31.37.57.79,3.55,2.39.32,4.27-2.71,1.56-4.29.39-5.57-1.56C786,114,768.1,96.89,751.83,78.43A46.5,46.5,0,0,0,728.15,64H700.07C715.22,77.13,726.3,93.31,740,107.08c5.7,5.73,10.12,12.74,15,19.26.77,1,2.18,2.52.17,3.79s-3.77,1.08-5.63-.94C729.5,107.46,709.12,86,689.44,64H661.52c7.37,8.08,15.54,17,23.51,26.14,5.93,6.79,12.71,13,16.38,21.57,1.23,2.91,5.42,4.89,3.61,8.55q-4.14-2.25-8.21-4.38a13.11,13.11,0,0,1-1.58-1.92c-12.43-18.65-29.18-33.15-45.51-48-.76-.69-1.57-1.29-2.32-1.91H612.6c7.17,6.87,14.26,13.69,21,20.84l1.9,2C629.6,84.38,624,82.09,618.65,80q-7.51-8.1-15.31-16ZM1024,8V1672a8,8,0,0,1-8,8H8a8,8,0,0,1-8-8V8A8,8,0,0,1,8,0H1016A8,8,0,0,1,1024,8Zm-8,1658.34V13.66l-48,48V1618.34ZM962.34,56l48-48H13.66l48,48H962.34ZM13.66,1672h996.68l-48-48H61.66ZM960,928.89V880.42c-10.1-11-19.14-23.32-29.3-35.8,1.74,17.74.4,35.3,5.68,48.87C941.41,906.4,950.72,917.64,960,928.89Zm0-60.44v-60a362.39,362.39,0,0,1-33.89-23.32c-.88-.68-1.33-1.92-2-2.91,1.66,15.7,1.1,32,5.71,46.72,3.31,10.55,13.29,19.12,20.74,28.21Q955.23,862.86,960,868.45Zm0-68.38v-38c-17.4-7.53-30.77-22.18-46.49-33.41,2.63,14.71,3.63,29.32,8.33,42.63,2.26,6.39,11.18,10.79,17.66,15.23C946.27,791.13,953.12,795.62,960,800.07Zm0-44.68V715.54a160.39,160.39,0,0,1-41.07-23.68c-3.94-3.1-8.25-5.74-12.49-8.44-.69-.44-2.43-.45-2.73,0a4.48,4.48,0,0,0-.55,3.25c2.56,9.94,3.4,20.94,8.44,29.45,4.47,7.55,13.48,12.54,20.77,18.3C941.44,741.58,950.5,748.78,960,755.39Zm0-45.28V487.41c-5-25.44-10-50.9-15.34-76.26-.93-4.36-4.61-8.45-7.79-12-9.27-10.25-12.37-24.65-24-34.76,6.82,32.54,19.19,63.31,12.4,96.69-5-27.31-10.58-54.52-14.72-82-4.44-29.45-22.09-50.86-40.27-71.22,5.55,26.89,11.6,54.43,15.32,82.52,1.43,10.71-.09,20.91.18,31.33,0,1.7-2.15,4.89-3.3,4.89-3.09,0-1.4-3.08-1.44-4.66-.64-27-5.38-53.43-10.29-79.85-2.74-14.76-3.68-30.26-9.12-44-3.56-9-13.65-15.38-20.94-22.82-3.49-3.55-7.27-6.83-11.29-10.57,3.48,14.13,7.21,27.79,10.17,41.61q6.2,28.88,11.37,58c1.43,8.06,1.66,16.35,2,24.55.06,1.34-1.8,3.87-2.89,3.94-3.05.19-.84-2.44-1.24-3.74-5.32-17.45-6.52-35.64-9.64-53.48-3.47-19.87-9.48-39.29-13.7-59-2.4-11.23-4.49-21.79-15.6-28.47-9.63-5.78-18.39-13-27.12-19.32,6.79,22.9,13,45.82,20.43,68.35,7,21.25,10.19,43.18,13.68,65.08.43,2.73,1.38,8.15-1.59,8.3-3.84.2-3.68-5.48-4.16-8.39-3.67-22.07-9.76-43.48-15.45-65.08-5.56-21.08-13-41.51-18.93-62.43-3.11-11-9.19-19.75-21.85-21.7-3.31-.51-6.53-7.07-9.12-2.92-1.56,2.5,2.19,8.44,3.78,12.75,5.77,15.7,11.85,31.29,17.4,47.06,4.76,13.5,9.5,27.05,13.15,40.87,1.7,6.41,5,12.62,4.22,19.8-.19,1.76.6,3.95-1.39,4.09-1.2.07-3.5-2.21-3.72-3.67-4.13-27.6-17.6-52.16-25.56-78.51-5-16.48-10.74-33.24-19.6-47.78-4-6.51-16.29-8.12-25-11.44-3.9-1.49-8.27-1.72-12.43-2.52,0,0,0,.05.06.07l0,0c-10.34-5.18-21.72-6.77-32.8-9.29-3.29-.75-1.09,2.27-.74,2.8,13.42,20.37,19.58,43.92,29,66,1.56,3.66,2.17,7.79,2.77,11.77.28,1.9,1.19,4.89-1.71,5.54s-3.11-2.4-3.85-4.26c-9.52-23.89-19.07-47.77-28.44-71.72-3.37-8.62-19.08-17.1-28-14.4-1.38.42-5,.45-2.47,4.75,9.44,16.11,18.24,32.6,27.26,49,2.3,4.17,4.54,8.37,6.67,12.62.36.71,0,1.76,0,2.66-1.31-.33-3.19-.22-3.85-1.06-6.68-8.64-14-16.95-19.52-26.3a366,366,0,0,1-19.26-38.26c-4.27-9.7-11.74-6-18.56-6.17a41,41,0,0,1-5.67-1c11,12.25,18.12,26.42,25.61,40.34,8.61,16,16.31,32.62,25.85,48.08,7.19,11.65,21.49,13.45,33,18.81s23.66,9.5,35.46,14.33c1.33.54,2.23,2.13,3.33,3.24-1.85.89-4.2,3-5.48,2.48-19.23-7.83-40.31-11.19-58.89-24.51,4.24,8.88,8.26,16.37,11.48,24.19,7.5,18.19,26.41,17.33,40.46,24.24,19.2,9.45,39.84,15.13,61.07,18.37.8.12,2.08,2.18,2,2.29a9.46,9.46,0,0,1-8.41,3.3c-21.92-2.65-42.44-9.92-62.53-18.72-6.94-3-14.14-5.5-23.54-9.11,10.07,13.32,7.15,32.19,24.05,38.83,16.38,6.44,32.93,12.71,50.53,15.28q21,3,41.94,6c2.43.35,3.35,1.86,3.48,4.1.14,2.49-1.73,2-3.11,2-21.68-.34-43-2.45-63.83-9.43-9.59-3.21-19.48-5.56-28.72-9.87a3.69,3.69,0,0,0-2-.05c-.2,1.3-.62,2.77-.21,3.92,2.18,6.1,4.42,12.19,7,18.14,4.24,9.94,14.69,10.88,22.75,12.73,20.84,4.8,42.24,7.13,63.33,10.9a101.36,101.36,0,0,0,36.06-.44c3-.52,6,.43,6.05,3.44s-3.38,2-5.38,2.81c-17.76,7.14-35.55,1.92-53-.62-5.85-.85-12.78,1.38-18.11-3.32-.29-.26-2.73.95-2.75,1.53-.13,4,2.93,6,5.82,8,19.27,13,42.28,15.5,63.76,22.08,15.27,4.69,31.32,6.8,47,10.17a7.72,7.72,0,0,1,3.84,2.27c.42.45-.26,2.88-.63,2.92-3.37.42-6.91,1.22-10.14.58-15.17-3-30.32-6.13-45.34-9.8-12-2.93-23.83-6.7-36.36-10.28,11.44,17.37,29.1,24.92,45.47,34.29,8.77,5,17.26,10.55,25.77,16,17.37,11.17,35.86,20.12,54.92,28a65,65,0,0,1,9.63,5.3c.72.45.78,2,1.15,3-2.05.29-4.35,1.34-6.11.77a238.54,238.54,0,0,1-53.63-24.79c-14.65-9.19-29.78-17.63-44.7-26.38,5.07,9.42,10.46,18.68,15.13,28.3,14.8,30.49,45.42,42,70.74,60.1,12.7,9.06,26.7,15.09,40.4,22,2,1,4.43,5,3.89,6.64-1.06,3.28-3-.43-4.53-.84-25.88-6.78-46.79-22.66-68.29-37.45-7.7-5.3-15.48-10.49-23.21-15.72,12.17,18.6,14.62,43,29.79,59.72,17,18.75,39.24,31.82,61.48,44.13,2.9,1.6,5.89,3,8.75,4.68,1.52.88,5,.23,4,3.05-.41,1.12-4.27,2-6.13,1.43a113.8,113.8,0,0,1-34.7-17.13c-9.24-6.58-18.54-13.07-27.81-19.61-3-2.11-1.89.87-1.73,1.6.41,2,1.25,3.91,1.84,5.88,4,13.41,7.06,27.22,12.36,40.1,3.42,8.29,12.55,12.38,20.07,17.2Q938.74,696.55,960,710.11ZM960,421V408.55c-2.57-1.06-5.12-2.22-7.7-3.25,2.54,5.22,4.9,10.53,7.67,15.62Zm0-20.81V371.74c-13.53-4.61-25.89-12.56-41.78-14.52,12.72,10.55,15.48,27.16,29.2,36.37A77.55,77.55,0,0,0,960,400.17Zm0-277.12V95.33a74.75,74.75,0,0,0-18.65-2.47c-4.63,0-9.27-2.15-16.19-3.89C939.25,99.52,949.17,111.84,960,123.05Zm0-34.26V64H794.23a199,199,0,0,0,21.18,3.33c21.89,1.8,43.56,6.17,65.35,9.31,15.41,2.22,31.3,2.62,46.18,6.71C937.71,86.3,949,86.73,960,88.79ZM410.3,1616H466c-2.25-3.74-4.51-7.46-7-11-14.07-20-28.18-39.9-41.43-60.4-13.38-20.7-26.14-41.84-38.41-63.22-10.94-19.06-24.34-36.35-36.83-54.3-13.39-19.26-25.72-39.19-35.39-60.61-2.83-6.29-8.81-3.56-13.09-5.21-18.81-7.22-30.07-22-40.24-37.94a235.49,235.49,0,0,1-25.1-52.36c-5.65-17-10.22-34.35-15.57-51.45-4.6-14.74-9.49-29.39-14.49-44-5.68-16.61-11.91-33-17.38-49.7-8.07-24.6-16-49.27-23.39-74.09-6-20.31-11.3-40.84-16.65-61.35-5.43-20.77-11-41.53-15.64-62.48-3.49-15.63-6.67-31.3-12.36-46.31-7.09-18.74-16.84-36.07-27.51-53C78.21,817,71,805.43,64,793.74V971.63c2.79,5,5.56,10.11,8,15.32,15.18,32.94,31.42,65.42,43.27,99.83,8.06,23.38,17.79,46.19,25.43,69.69,5.89,18.1,9.73,36.87,14.41,55.36,6.68,26.39,14,52.64,19.74,79.23a538.85,538.85,0,0,0,22,75.81c1.16,3.09,1.91,6.36,3.36,9.3.83,1.7.78,2.57-.5,3.81s-2.45,1-3.87,0c-8.29-5.89-9.67-15.58-12.66-24.08-6.38-18.17-11.8-36.67-17.54-55.07a36.86,36.86,0,0,1-.87-5.8l1-.22c-4.18-16.2-8.46-32.36-12.51-48.59-2.91-11.63-5.11-23.46-8.36-35-4.84-17.12-9.15-34.36-15.43-51.13-7.32-19.52-11.84-40.08-18.78-59.76-5.91-16.79-13.52-33-20.41-49.44-8.43-20.15-16.53-40.46-25.49-60.38-.24-.54-.5-1.07-.75-1.6V1101c1.85,3.69,3.61,7.42,5.19,11.21,8.59,20.64,18,41,24.14,62.68,4.34,15.41,11,30.17,16.53,45.24,3.9,10.55,7.74,21.13,11.47,31.32-.8,2.2.82,5.67-2.06,5.29-5.11-.68-6.64-5.94-8.14-9.75-9.25-23.63-18-47.44-26.88-71.23-5.21-14-10-28.26-15.37-42.23q-2.34-6-4.88-12V1223.9c10,26.6,17.94,54.48,38.89,75.58,7.46,7.51,16.08,13.65,27.14,13.27,8.26-.29,10.47,4.66,10.9,10.74,1.57,22.23,5.06,44.21,12.69,65,4.89,13.34,14.1,24.77,23.5,35.61,15.94,18.37,30.11,37.55,38.27,61.1,6.88,19.85,16.68,38.68,24.78,58.12,10.05,24.11,19.93,48.29,29.39,72.63h74c-4.18-9.3-9-18.29-13.3-27.43-13.24-28.51-29.69-55.58-45.6-82.78-9.86-16.86-22.64-32.12-23.92-52.9-.37-5.93-2.51-11.74-3.84-17.61L258,1435c-3.29-12.23-7.31-24.32-9.71-36.72-3.64-18.81-17.88-32.43-23.34-50.22a20,20,0,0,1-.42-3.82c1.8.67,4.36.8,5.28,2.09,13.17,18.6,26.18,37.31,31,60.24,4.69,22.17,8,44.79,15,66.25,4,12.33,13.95,22.69,21,34.06,9.94,15.92,17.92,33,27.35,49.09,9.08,15.51,15.13,32.23,23.56,47.91,2.12,3.94,4.13,8,5.9,12.09h47.1q-14.4-25.76-28.77-51.51-17.93-32.15-35.7-64.35a12.13,12.13,0,0,1-1.66-6.13c.14-2.28.81-5.75,2.33-6.49,3.47-1.69,2.3,2.69,3.11,4,10.85,17.6,21.71,35.22,31.74,53.29C384.9,1568.4,397.58,1592.21,410.3,1616ZM304.56,1354.4c1.15-1.31,2.27-3.62,1.9-5.15-3.13-12.92-2.33-26.24-5-39.38-4.61-22.95-17.34-41.21-30.58-58.79a149.45,149.45,0,0,0-49.75-42.46c.33,3.86.09,7,.94,9.89,3.48,11.68,7.29,23.26,10.95,34.88.45,1.43.71,2.91,1.06,4.37,1.74-.71,3.82-1,5.16-2.2a12.44,12.44,0,0,1,14.7-1.83c18.93,10,22.17,29.34,27,47.5,1.12,4.22,1.82,11.36-2.36,12.13-6.19,1.14-2.53-5.73-3.72-8.93-.54-1.45-1.41-2.78-1.92-4.25-4.38-12.78-6.9-26.46-17.85-36-2.48-2.16-5.08-3.72-8.41-3-2.7.58-1.55,3-1.61,4.59-.71,16.34,4.7,31,11.93,45.36,9.74,19.26,23.12,34.79,43.33,43.52C301.56,1355.16,303.89,1355.16,304.56,1354.4ZM64,1616H259.18c-3.67-9.27-7.52-18.47-11.81-27.52-7-14.75-12.35-30.28-18.6-45.4-9.85-23.81-19.12-47.9-30-71.22-8.31-17.76-21.25-32.73-34-47.64-16.45-19.3-26.41-41.27-28-66.9-.7-11.28-2.64-22.47-3.78-33.73-.25-2.4-1.24-2.78-5.81-1.95-22.57.94-34.43-17-46.16-34.58C73.66,1276,68.48,1264,64,1251.7ZM131.14,380.17c4.41-13.09,1.31-25.83-1.33-38.3-1-4.95,2.84-10.37-2.22-14.69-6.44,23.37-17.26,45-28.7,66.22C89.57,410.71,76.61,425.55,64,440.55v50.06c10.47-12.71,22.42-24.29,30-39.28C106,427.43,122.48,405.9,131.14,380.17Zm-5.66-70.85c2.44-5.85-.71-10.8-.9-16.13-.33-9.66-2.67-19.24-4.25-29.33-3.81,9.38-7.16,18.58-11.24,27.44-7.69,16.71-14.4,33.92-24.87,49.24-6.93,10.14-12.85,21-20.22,30.8v58.17c9.48-12.32,19.71-24.13,27.06-37.92,8.63-16.19,17.08-32.52,22.94-50C117.62,330.75,121.08,319.83,125.48,309.32Zm-11.86-50c8.24-18.62-1.37-34.51-.6-51.67-7.49,19.4-14.18,38.75-23.77,57.06A197.77,197.77,0,0,1,64,302.65v57.8c7.61-12.29,15.29-24.55,21.93-37.35C96.58,302.53,104.25,280.48,113.62,259.33Zm-4.07,594.31,1.2-.13q-2-14.55-4.07-29.12c-1.9-13.3-4-26.58-5.7-39.91-3-24.23-10.91-47-20.54-69.25-5-11.67-10.39-23.2-16.44-34.32v95.21c14.75,24.5,29.67,48.89,44.45,73.37C109.16,850.66,109.2,852.24,109.55,853.64Zm-2-656.76c5.29-13.73-4.61-24.38-2.68-36.72,0-.25-.82-.63-1.27-.95a14.28,14.28,0,0,0-1.92,2.74c-6.44,16.58-13.3,32.8-23.34,47.8C73.44,217,69.05,224.57,64,231.69v60.13c6.25-8.89,12.32-17.91,17.09-27.83C91.55,242.2,98.85,219.31,107.5,196.88ZM91.13,164.77c3.17-9,9.23-17.47,7.61-27.4-2.08-12.78-5.57-25.33-8.36-37.61-5,13-10.3,26.4-15.28,39.88A104.24,104.24,0,0,1,64,161.41v57.36A240.76,240.76,0,0,0,91.13,164.77Zm-16-47.47C80,103.81,85.58,90.78,81.93,76.06A35,35,0,0,0,76.05,64H64v81.29C68.18,136.21,71.73,126.81,75.14,117.3ZM56,1618.34V61.66l-48-48V1666.34Z"/><path d="M951.62,323.19c2.21.35,4.67,3,3,5.69-2.53,4.16-7.06,2.61-10.4,1.67-1.18-.33-2.37-.65-3.56-.94q-3-4.59-6-9.08C940.3,321.49,946,322.3,951.62,323.19Z"/><path d="M926.79,281.24c1.4.05,2.74,2,4.1,3-1.61.93-3.2,2.62-4.83,2.66q-8.22.24-16.36-.18-2.94-3.69-5.94-7.3C911.39,280.4,919.07,281,926.79,281.24Z"/><path d="M928.19,1022.61c-1.86,15.89-3.35,31.85-5.21,47.74a32.9,32.9,0,0,1-2.75,8.76c-.44,1-2,1.6-3,2.37a27.71,27.71,0,0,1-.3-3.39,548.58,548.58,0,0,1,4.61-57.64q1.29,2.71,2.6,5.41A14.46,14.46,0,0,0,928.19,1022.61Z"/><path d="M910.7,996.66a313.77,313.77,0,0,1-22.9,35.63c-1.57,2.17-3.92,7-6.3,4.66-3.27-3.16.2-8.6,2.15-11.17,9.13-12,16.36-25,23.13-38.27Q908.7,992.08,910.7,996.66Z"/><path d="M900.83,249.39c.13,2.65-2.46,1.74-3.8,1.6l-20.58-2.16q-4.55-4.77-9.17-9.38c10.35,1.09,20.6,3.68,30.84,5.78C899.31,245.48,900.76,247.91,900.83,249.39Z"/><path d="M893.19,953.33q1.74,4.65,3.55,9.33c-5.22,10.74-10.52,21.52-21.15,28.57-1.34.88-2.25,3.63-4.13,1.86-.74-.7-.29-3.71.62-4.93A247.7,247.7,0,0,0,893.19,953.33Z"/><path d="M878.23,910.52c.73,2.23,1.47,4.48,2.22,6.72a137.07,137.07,0,0,1-15.94,15.18C868.8,925,873.48,917.76,878.23,910.52Z"/><path d="M858.46,209.26c5.13.83,14.8-1.47,14.59,6.68-.09,3.32-9.41-.82-14.59-1.06-6.14-.28-12.27-.64-18.41-1q-5.1-4.53-10.24-8.89C839.38,206.15,848.93,207.71,858.46,209.26Z"/><path d="M865.72,869.39q1.26,4.43,2.58,8.93a54.53,54.53,0,0,1-5.57,5.71c-1.43,1.26-3.57,1.72-5.38,2.55.47-2,.48-4.25,1.5-5.9Q862.3,875,865.72,869.39Z"/><path d="M854.07,825.23A169.09,169.09,0,0,1,839,847.55c-1.27,1.55-3.67,2.19-5.54,3.25a6.29,6.29,0,0,1,.53-6c5.94-9.51,12.18-18.88,17.9-28.52Q852.95,820.69,854.07,825.23Z"/><path d="M841,765.63l1.17,6a3.49,3.49,0,0,1-1.64-1C838.43,768.67,840,767,841,765.63Z"/><path d="M837.21,745.12a4.1,4.1,0,0,1,.54,3C837.56,747.13,837.38,746.12,837.21,745.12Z"/><path d="M837.21,745.12c.17,1,.35,2,.54,3a3.55,3.55,0,0,1-1.37,1.87c-3.67,2.79-5.5-2.17-7.28-4.28l-1.71-2q.71-4.68,1.38-9.44,2.81,3.66,5.76,7.21A21.88,21.88,0,0,1,837.21,745.12Z"/><path d="M833.9,181.11c.77.14,1.36,1.25,2,1.9a14.23,14.23,0,0,1-2.33,1c-10.22,2.41-20.31.66-30.46-.51q-5.25-4-10.5-7.88c5.75.37,11.49.91,17.22,1.45C817.94,177.82,825.91,179.63,833.9,181.11Z"/><path d="M831.07,810.48c.74,1,2.81,2.51.67,3.52-1.17.55-2.72,1.82-5.09-.21a54.52,54.52,0,0,1-10-11.71c.7-3.22,1.39-6.5,2.09-9.86,1,1.68,2,3.36,3,5C824.63,801.9,827.91,806.11,831.07,810.48Z"/><path d="M830,892.58c.52.91,0,2.42,0,3.65-1.57-.62-3.64-.8-4.63-1.93-9-10.22-14.75-22.19-18.41-35.24-.74-2.65-1.49-5.29-2.23-7.93,1-3.77,2.1-7.91,3.24-12.38.65,2.17,1.26,4.34,1.82,6.53C814.14,862.22,821.45,877.59,830,892.58Z"/><path d="M801,864.46c0,16.46,0,32.91-.15,49.37,0,1-1.21,2-1.85,3-1.32-1.22-3.75-2.39-3.81-3.67-.61-13.57-1-27.15-1.48-40.73a52.5,52.5,0,0,0,3.73,4S798.84,872.17,801,864.46Z"/><path d="M785.43,146.15c1.52-.07,3.87-.64,3.43,2.06a4.2,4.2,0,0,1-2.87,2.71c-8.07,1-16.12,2.18-24.19,3.23q-5.1-3.35-10.15-6.55C762.91,147.06,774.17,146.67,785.43,146.15Z"/><path d="M778.86,849.84c-1.92,5.35-3.88,10.71-5.91,16s-5.49,10.43-8.43,15.53a2.87,2.87,0,0,1-2.38.37c-.59-1.1-1.41-2.63-1.06-3.63q6.48-18.63,13-37.23Q776.55,845.63,778.86,849.84Z"/><path d="M287.56,840.24c-2.77-9.16-5.55-18.31-8.08-27.53-3.32-12.12-5.68-24.5-8.55-36.75-3.87-16.54-8.15-33-11.61-49.62-2.09-10.08-3-20.41-4.38-30.63-3.08-22.73-6.26-45.45-9.16-68.19-1.25-9.78-1.79-19.64-2.87-29.44-2.53-23.14-5.55-46.23-7.6-69.41-.75-8.54-1.29-17.1-2.12-25.66-2.25-23.16-2.52-46.52-5-69.64-2.86-26.47-3.22-52.94-3.27-79.47,0-2.89.64-5.1,4-4.93s7.08.34,10.62.53q14.07.71,28.15,1.49c10.75.6,21.49,1.32,32.24,1.94,23.51,1.35,47,2.71,70.54,3.92,2.27.12,5.41,0,6.7-1.37,2.05-2.17-.36-4.38-1.82-6.46-5.15-7.32-10.21-14.7-15.3-22,1.87.1,3.76.17,5.68.21s3.63.08,5.41.1a117.9,117.9,0,0,1,8.93,17.53c5.65,14.08,17.32,13.61,28.79,14.05,23.31.91,46.64,2,70,1.88,15.65-.08,10.27,10.78,10.72,18.36.87,14.66.85,29.38,1.57,44,1.07,21.79,3.43,43.48,4.32,65.32,1.23,30.06,4.83,60,7.89,90,2.16,21,4.51,42.09,7.89,62.95,3.35,20.68,8.12,41.12,12.22,61.68,3.9,19.51,7.64,39.06,11.64,58.55,2.2,10.72,4.66,21.39,7.21,32,4.54,19,9,37.93,13.9,56.8,5.53,21.4,10.87,42.88,17.41,64,7.16,23.09,15,46,23.67,68.56,7.33,19.07,16,37.67,24.59,56.2,9,19.28,18.24,38.47,28.2,57.27,10.18,19.22,21.4,37.88,32.07,56.84,12.5,22.22,23.24,45.65,37.77,66.43,15.79,22.59,26.87,47.81,42.7,70.26,3.08,4.38,7.09,11.27,3.79,16.1-2.76,4-8.22,7.15-14.95,7.24-10.69.16-21.33,3.26-32,3.43-26.28.43-52.13,4.41-78.11,7.55-15,1.82-30.09,3.06-45.11,4.74-22,2.45-44,4.69-66,7.74-13.23,1.85-18.94-7.78-25.4-15.58-8.72-10.52-16.5-21.85-24.16-33.19-11.69-17.3-24.25-34-34.29-52.44-13.3-24.47-29.15-47.59-41.77-72.37-9.74-19.13-19.49-38.34-28.23-58.08-10.61-24-19.44-48.63-30.45-72.43-8.13-17.56-12.9-36.69-18.84-55.23-5.84-18.22-11.56-36.49-16.81-54.89-5.46-19.14-10.08-38.51-15.45-57.68C292.55,856.67,290.05,848.45,287.56,840.24Zm-40.5-477.17c-4.33,0-8.67-2-13-2-1.37,0-3.12-.57-2.87,2.07.83,8.9,1.34,17.84,2.32,26.72,2.12,19.24,4.8,38.43,6.61,57.7,1.59,17,1.86,34.11,3.5,51.1,2.07,21.52,5,43,7.42,64.45,1.56,13.93,2.61,27.92,4.36,41.82q5.58,44.55,11.72,89c1.82,13.16,3.86,26.32,6.56,39.32,3.39,16.4,7.36,32.68,11.43,48.92,4.91,19.64,10.1,39.22,15.33,58.78,5.44,20.4,11.46,40.65,16.51,61.14,4.73,19.15,10,38.29,15.82,57,5.57,18,11.62,36.3,19.7,53.8,10.62,23,16.43,48.31,27.19,71.27,15.52,33.12,29.71,66.95,49.1,98.24,14,22.61,25.42,46.74,40.61,68.77,13.48,19.54,28.81,38.1,40.37,58.55,8.78,15.52,19.65,15,32.34,13,29.54-4.61,59.24-7.38,89-9.82,14.83-1.22,29.56-3.64,44.39-4.85,24.08-2,48.22-3.34,72.31-5.18,2.48-.19,9.22,1.62,5.37-4.77-12-19.93-24.89-39.33-37-59.22-11.15-18.37-21.68-37.11-32.52-55.66-7.28-12.46-14.81-24.78-21.91-37.34-17-30-33.22-60.35-47.85-91.63-8-17.17-14.65-34.91-22.82-52-6.3-13.19-9.17-28.35-15.25-41.05-11.1-23.17-16-47.9-23.71-71.8-8.21-25.48-12.62-52.2-18.44-78.43Q523.6,765.5,514,720c-4.5-21.39-9.08-42.77-12.73-64.31-3.95-23.36-7.53-46.82-10.05-70.36-2.81-26.12-4.55-52.37-6.19-78.6-1.83-29.15-2.86-58.35-4.58-87.5-.8-13.67-2.64-27.26-1.06-41,.16-1.34,3.17-6.64-2.49-7.09-8.88-.7-17.76-1.77-26.65-1.93-19.73-.34-39.44-.2-59.16-1.88-18.05-1.53-36.23-1.92-54.36-2.11C306.84,364.83,277,363.07,247.06,363.07Z"/><path d="M757.43,805a21.9,21.9,0,0,1-4,4.47c-1.07.92-1.78,2.23-3.1.91-.68-.69-1.33-2.2-1-2.95q2.22-5.6,4.31-11.26Q755.56,800.73,757.43,805Z"/><path d="M747,307.77c.7,2.1-.58,3.22-2.51,4.05-2.78,1.18-2.4-1-2.93-2.38-8.22-22.14-15.25-44.83-25.11-66.21-7.23-15.69-11.82-32.84-22.9-46.77-1.4-1.75-1.92-6.05,3.18-5.65,10.64,13,15.84,28.63,22.8,43.56,6.14,13.19,10.18,27.14,16.58,40.1C741.38,285.12,743.3,296.71,747,307.77Z"/><path d="M735.23,751q1.59,4,3.15,7.94c-1.68,2.71-4.34,6.22-6.61,4.65-3.2-2.2.55-6.8,1.93-9.53Q734.48,752.48,735.23,751Z"/><path d="M705,120.26a6.94,6.94,0,0,1-1,1.47c-2.33-2-5.13-3.7-7.23-5.85Q700.88,118,705,120.26Z"/><path d="M696.77,190.81h0s0,0,0,0h0Z"/><path d="M659.07,119.74c.79,1.6,2.76,3.06.13,4.79s-3.25-1-4.11-2.09c-11.54-14.7-23.71-28.8-36.44-42.45,5.32,2.1,11,4.39,16.85,6.88C644.66,96.81,653,107.45,659.07,119.74Z"/><path d="M536.1,260a2.12,2.12,0,0,1-1.57,0c-2.63-.93-2.13-3.91-1.58-6.48Z"/><path d="M511.85,211.23l-1,2.4c-.4,1-2.6,1.55-4,1.7-2.37.24-1.82-1.78-1.93-3.17a34,34,0,0,1,1.39-11.72C508.14,204,510,207.57,511.85,211.23Z"/><path d="M480.75,281.72a7.3,7.3,0,0,1,3.27,7.1q-4.12-4.95-8.92-10.86C477,279.18,478.9,280.42,480.75,281.72Z"/><path d="M478.1,147.16a64.51,64.51,0,0,1-7.9,14.46c-.91,1.28-2.5,2.28-3.68.52-.78-1.16-1.44-3.18-1-4.31a111.8,111.8,0,0,0,6.61-21.49Q475.05,141.58,478.1,147.16Z"/><path d="M441.5,197.63c1.42.88,2,3.05,3,4.63-3.42-.4-7-.3-10.24-1.28a108.66,108.66,0,0,1-24.17-10.77q-5.31-7.85-10.72-16.1c7.1,4.42,14.37,8.61,21.43,13.06C427.52,191.38,434.94,193.57,441.5,197.63Z"/><path d="M419.74,329c1.7,1.12,3.88,2.87,2.36,5.49s-4.5,1.16-5.73.35c-4.21-2.74-8.57-5.25-13-7.7q6.54-.18,12.6-.46Q417.91,327.79,419.74,329Z"/><path d="M404.27,130.94c2,.91,5.32,1.76,4.25,4.24-.55,1.27-4.77,1.82-7,1.33-12.6-2.73-23.79-8.46-34.62-15q-3.87-6.63-7.71-13.42c4.32,2.64,8.63,5.29,12.86,8C381.84,122.5,393.47,126.07,404.27,130.94Z"/><path d="M337.7,1137.69c2.11,1.47,3.93,3.38,2.28,5.28-.77.88-4.59,0-6.4-1.06a172.56,172.56,0,0,1-27.91-21.3c-.1-3.08-.21-6.39-.34-9.9A226.85,226.85,0,0,0,337.7,1137.69Z"/><path d="M333.21,323.61c0,3.76-.07,7.51-.07,11.26,0,3-1,5.78-3.56,5.83-2.76.06-2.41-3.24-2.68-5.55-.52-4.41-.94-8.84-1.36-13.28Q329.29,322.82,333.21,323.61Z"/><path d="M332.12,1189.53c.39.77-.69,2.27-1.09,3.43-1-.44-2.33-.6-2.9-1.35-11.2-14.82-18.87-31.69-27.5-48q2.94,2.79,5.91,5.43s-.09-3.47-.27-9.82c3.71,7.21,7.29,14.18,10.88,21.14C322.16,1170.08,327.25,1179.75,332.12,1189.53Z"/><path d="M323.52,1083c1.29,1.21,4.66,2.4,2.62,4.66-.76.85-4.85-.22-6.6-1.53q-7.85-5.87-15.64-11.77-.19-4.45-.4-9.11l.89.73C311,1071.43,317.28,1077.19,323.52,1083Z"/><path d="M301.51,972.73c2.87,1.78,8.64,3.67,6.73,6.63s-6,1.14-9.3-.5q-.24-4-.5-8.07C299.46,971.45,300.48,972.09,301.51,972.73Z"/><path d="M307.59,1025a20.71,20.71,0,0,1,3.32,3.3c-1.69.29-3.55,1.19-5.05.77s-2.79-.81-4.15-1.28c-.11-2.15-.23-4.31-.34-6.5C303.47,1022.52,305.55,1023.74,307.59,1025Z"/><path d="M298.38,312.38a129.13,129.13,0,0,1-3.42,18.9c-.35,1.37-2,2.41-3,3.61a18.56,18.56,0,0,1-.92-4c0-7.37,0-14.73,0-22.1C293.41,310,295.86,311.24,298.38,312.38Z"/><path d="M287,1129.84c-.21,9.42.19,18-1.84,26.39-2,8.2-2.86,16.67-4.43,25-.19,1-1.72,1.74-2.63,2.6-.73-1.15-2.16-2.34-2.08-3.42,1.18-16.34,1.47-32.85,4.17-49a65.54,65.54,0,0,0,.85-8.21Q284,1126.6,287,1129.84Z"/><path d="M270,295.75A13.78,13.78,0,0,1,265.87,307a15.67,15.67,0,0,1-3.12,1.88c-.6-1.09-1.67-2.16-1.72-3.27-.27-5.86-.32-11.7-.61-17.55C263.41,290.67,266.61,293.24,270,295.75Z"/><path d="M260.56,1097.75c-.5,2.19-1.05,4.38-1.63,6.56-3,11.08-3.32,23.31-12.57,32-1.05,1-1.32,2.92-3.23,1.48-1.67-1.26-1.1-2.76-.36-4.43,6.24-14.1,8.89-29.09,11.73-44Q257.52,1093.64,260.56,1097.75Z"/><path d="M227.3,1046.58q2.14,3.74,4.32,7.39c-4.65,12.39-9.44,24.74-16.53,36-.92,1.47-1.63,3.92-3.89,2.48-2-1.29-3.17-3.59-1.69-6.09C217,1073.83,222.6,1060.29,227.3,1046.58Z"/><path d="M209.27,1013.29a140.38,140.38,0,0,1-16.44,25.39c-.26.31-1.72.12-2.19-.31a4.76,4.76,0,0,1-.87-6.66,192.62,192.62,0,0,0,14.77-27.84Q206.9,1008.63,209.27,1013.29Z"/><path d="M187.54,967.35c-.53.77-1.08,1.54-1.63,2.3a140.27,140.27,0,0,1-10.08,13c-.72.78-2.14.92-3.24,1.35,0-1.21-.44-2.64,0-3.6,3.63-7.15,7.64-14.15,11.31-21.28Q185.73,963.24,187.54,967.35Z"/><path d="M165.71,914q1.44,3.81,2.91,7.58c-2,3.16-4.07,6.32-6.09,9.49-.78,1.23-1.89,3.09-3.91,1-1.41-1.43-2.14-2.51-.89-4.67C160.32,922.92,163,918.46,165.71,914Z"/><path d="M148.67,866.58q.93,2.76,1.88,5.51a65.79,65.79,0,0,1-8.19,7.18Q145.51,872.87,148.67,866.58Z"/><path d="M80.64,601.37c.37,2,.76,4.07,1.15,6.11-1.72,2.2-3.4,4.43-5,6.72-1.39,2-3.75,4.65-6.44,2-2.31-2.25.81-3.72,2-5.09Q76.57,606.31,80.64,601.37Z"/><path d="M71.83,551.12q.42,2.6.86,5.21a10.88,10.88,0,0,0-1.22.39C71,554.79,70.6,553.17,71.83,551.12Z"/></svg>