<svg xmlns="http://www.w3.org/2000/svg" xmlns:xlink="http://www.w3.org/1999/xlink" viewBox="0 0 976 1600"><defs><style>.cls-1{fill:none;}.cls-2{fill:#f4f3ef;}.cls-3{clip-path:url(#clip-path);}.cls-4{fill:#50b271;}.cls-5{fill:#ffb85a;}.cls-6{fill:#997664;}.cls-7{fill:#d81e1e;}.cls-8{fill:#592116;}.cls-9{fill:#992d17;}</style><clipPath id="clip-path"><path class="cls-1" d="M960,22V1578a6,6,0,0,1-6,6H22a6,6,0,0,1-6-6V22a6,6,0,0,1,6-6H954A6,6,0,0,1,960,22Z"/></clipPath></defs><g id="Paper_Backing" data-name="Paper Backing"><path class="cls-2" d="M960,22V1578a6,6,0,0,1-6,6H22a6,6,0,0,1-6-6V22a6,6,0,0,1,6-6H954A6,6,0,0,1,960,22Z"/></g><g id="Wikipedia_Cropped" data-name="Wikipedia Cropped"><g class="cls-3"><path class="cls-4" d="M429.42,1536.88c-31.7,2.45-48.9-25.05-65.65-43.06-10.85,6.76-22.06,5.19-33.3-.61-60.63-22-11.85-92.79-5.59-130.82-19.84-3.48-47.59,7.29-66.69-7.35-17.51-11.08-22.5-26.37-14.83-45.44C237.31,1278.77,195,1358,177,1357.65c-63.21-47.86-26.39-157.13,55.61-160.91,38.12-7.92,39,6.42,74.2-16.56,7.12-3.37,12.07,2.45,16.17,7,28,17.7,59.87-2.42,68.75-33,1.55-4.19,8.24-2.6,7.69,1.9-4.55,31.22,14.66,54.49,41.19,62.67,31.18-7.18,35.69-37.07,49.23-58.29,16.57,34.62,43.54,91,89.43,51.38,5.79-6.55,8.82-4.59,13.29-1.88,21.26,15.51,64.75,50.62,38.32,81.6a6.31,6.31,0,0,0-.12,8.66c19.69,31.17-4.14,70.68-38.64,70.53-12.49,4.12-31.45-24.64-34.87-5.08,10,30.57,9.63,93.66-24.93,99.07-7.4,2-21.34-10.2-30.19-7.24C497.69,1494.57,472.8,1540.85,429.42,1536.88ZM112.83,1165.09c-43.53-3.49-22.26-28.64-74.58-10.43-13.25.89-32.8-.09-42.25-11,3.17-3.94-6.21-200.08,3.45-200.19,24.19-39.57,51.26-18.08,81.37-40.91,26.36-18.72,66-5.86,90.76,13.89,16.9,7.47,1.23,23.2,6,36.68C182.2,968.94,201.69,969,216.27,977c-7.51,17.78-48.91,20.86-46.25,42.28-27.34,53.81,34.69,41.86,28.49,65.09C185.3,1118.84,153.37,1163.22,112.83,1165.09Zm720.39-71.74c-41.18,1.48-67.46-36.47-85.15-67.13C787.8,1009,766,962,731.23,950.9c-7.79-9.6,7.78-6.33,13.44-7.49,16.85-21.84,31.42-29.51,22.31-48-5.28-24-48.67-19.91-45.11-31.18,17.86-17.31,4-29.3,11.27-41.8,23.5-22.25,43-56.08,78.84-58.77,16.65-2.18,27.06,14.73,41.85,17.09,26.31-8.13,60,18.78,59.61,46.74,6,15.49,28.74-7.84,40.21-8.41,7.73-.57,22.48-15.28,26.35-5.26-.61,30.46.43,154.07,0,181.94-8,9.26-27.76,13.05-37.62,14.87-14.41,3.11,2.2,35-13.63,44.78-10.28,12.23-28.78,13.23-44.4,10.32C867.39,1079.23,853.71,1093.94,833.22,1093.35ZM218,886.11c-21.61-1.75-35.73-18.31-36.63-41.4-.52-3.22-3.39-5-6.53-5-22.72-2.09-25.86-35.07-11.58-45.95,11.86-14.7-47-19.29-56.34-36.46-23.54-23.07-.45-52.51,22.48-62.42-26.56-35.92-26.56-108.11,30.1-116.38,32.1-9.86,61.7,45.28,69.83,27.17,2-19.91,28-26.9,44.08-26.4C351.07,603.79,268,721.74,376,556.43c4.81-16.47-18.4,2.13-21.67-30.35-13.9-10.63-27.21-24.26-32.64-40.58-26-10.59-47.72-38.35-78.52-43.8-14.24-7.47-36.24-2-49.92-5.79,4.48-39.47,40.51-103.1,87.7-71.21,12.46,7.54,18.37,23.17,28.14,33.49,23.3-4.47,55.15-15,76.73,4.57,17.25,8.95,20.58,31.66,34.34,40.9,21.31-32.22,17.47-99.07,15-135.56,13.33-26.3,47.22,15.7,66.42,18.65,21.14,14.88,56,12.53,72,31.73-20.92,29.19-57,51.92-80.19,81.21C462.92,474.8,435.71,515,412.07,555c-16.34,32.69-41.69,61.78-54.11,95.41,15.83,10,28.25,24.65,20.64,45.37,3.55,15.75,43.7,2.61,23.41,50.32-2.45,5.4-8.21.75-11.72-1.08-27.72-16.9-45.66,23.87-33.79,46-1.84,21-27-11.73-39-1.63-19.85,5.41-18.51,32.94-22.33,49.5-15.3,4-41.1-9-55.91,6.59C225.09,853.28,236.32,883.66,218,886.11ZM603.65,556.57C562.53,556,519.36,535.83,490,511.83c-10.37-16.81,45.3-56.09,70.1-60.94,25.86-7.36,48.46-2.51,72.84,5.76,20.7-4.41,44.11-7.52,64.23.77,25.18,10.24,54.94,24.17,61.44,48.16-13.68,26.18-50.05,43.54-73.06,43.34C657.24,542.5,631.58,554.94,603.65,556.57Z"/><path class="cls-5" d="M551.92,1222.36c-43.43,5-55.8-80.93-68-56.31-4.13,21.2-19.27,46.47-43.52,49-61.78-11.44-43.14-106.84-14.74-135.26.08-6.24,4.46-16.54-4.67-17.38-17.49,1.39-14.38-28.22-27.76-15.17-30.2,66.22-58.7,31.68-67.55,57.71-56.14,95.31-158.5,68.84-80.69-33.44,2.85-10.27,27.53-16.58,16.35-27-25.75-15.36-5.1-59.53,18.28-67.4,26.95,16.31,52.88-15,50.58,20.17,17,24.88,54.34-.85,72.16-16.68,13.43,2.86,15.89-10.65,22.59-19.88,4.44-11.35,20.63-28.52,25.79-9.44,3.07,24-3.53,58.84,7.29,78.3,4.24,1.78,5.1,7.64,6.7,11.7,2.2,12.78,13.57,20.94,21.12,30.59,6.17,1.41,12.54-5,18.61-3.83,4-.25,8.62,2.58,11.75-1.15,2.14-22.89.16-47.82-10.63-69l0,.29c-1-4.38,5.3-8.61.46-12.68-11.95-11.39-20.48-24.93-27.26-36.68-4.53-6.87.39-12,6.54-16.58,8.65-13,21.15-3.62,30.35,1.47,22.82,8,54.29,20.87,61.48,46.71,6.43,10,7,.55,23,9.79,20.54,10.62,72.82,22.75,70.45-9.44,6.5-20-11.94-18.36.43-36.89-11.24-10.47-34.65-9.45-51.57-17.69-15.13,1-9.36-13.66-17.56-19.86-19.81-35.05-47.26-11-62.84-28.91-22.61,1.67-49.7,35.47-66.21,10.42,3.36-15.87,28.05-31.11,23.67-47-2.19-10.76,3.16-21-2.82-34.75-12.25-17.46-34.29-8.64-47.78,4.56-4.95-2.7-12.44-.58-10.8,6.28a49,49,0,0,1,.33,32.47c-5.67,11,9.71,25.4,10.93,37.18,3,9.93-13.13,12.79-15,19.94-2.26,19.7-21.61,16.44-36,18.63-27.45,4.45-54.28,2.43-77.95-14.48-9.4,6.67-21.08,6.49-32.56,8.06-7.68.88-6.17,12-12,16.08-10.53,8.8-2.81,31.84-21.36,32.47-78.23,26.85-103.66-47.21-19.68-66.78,11.6-4.82-27.31-58.62,34-61.94,52.79,3.23,52,36.27,112.64,39.73,20.19-8.64-28.28-29.69-.13-62.51-22.78-15.74-37.94-55-7.34-71.24,30.37-6.94,46.69,30.68,58.27,54.82a6,6,0,0,0,6.87,3.7c12.48-26.6-.32-61.18,40.82-76.79,41.55-10.17,21.45,35.84,35.82,41,14.45-9.26,54.48-25.12,53.83,6.4,3.57,24.28-31.36,43.82-18.54,53.83,26.62,6.54,4,37.3,22.7,31.66,31.67-28.76,185.17-88.72,153.09,4.14-5.94,14.06,19.83,10.22,26.84,17.05,24.79,12.22,19,48.33-9.09,55.59-6.15,3.62-18,1.57-19.25,10,15.67,15.43,48.53,21.82,45.66,53-1.86,35.82-40.36,15.32-58.91,21.37,1.14,15.63,21.28,26.94,16.78,46.81-10.93,77.88-101.63,21.31-125.61-21.08-20-13.52,4.37,40.88-45.91,47.09-14.83,9.93,17.77,30.84,20.78,46.11C590.21,1165.39,595.27,1221.62,551.92,1222.36Zm76.29-865.14C595,354.06,552.53,356,526.67,333.15c2.24-8.68-7.26-8.88-12.75-6-4.42-1-7.42-8.62-12.76-3.57-23.31-13.05-37.68-68.66-43.83-97.18-17.65-132.12,73.51-99.82,45.32,70.46C497.26,358.8,552,272.48,561.59,253c11.78-25.88,27.17-67.49,60.22-69.53,53,17.43-2.45,80.67-31.53,97-16.78,15.59-47.62,25.15-56.69,44.86,10.72,9.87,46.3-4.13,54.12-2.17,45.48-.59,72.75-29.75,113.81-35.42,38.09-5.38,72.9,29.91,25.2,52.55C696,355.2,660.16,356.19,628.21,357.22ZM449.46,301.79c-101.11-11-229.13-188.31-83.06-110.43,25.69,14.15,30.88,41.09,46.25,62.22C415.91,266.3,463.8,296.6,449.46,301.79Z"/><path class="cls-6" d="M116.49,1604c-11.72-2.66,7.09-16.11,8.27-22.65,73.86-106.19-4.71-118.09,24.4-187.26,13.93-20.36,36.9-33.51,49.13-52.95,8.1-7.32,49.64-65,42.55-26.25-6.39,12.88,9.38,32.41-9.16,41.26-24.05,26.53-57.32,49.58-41.64,93.72,15.61,35.94,2.94,96.32,38,55.78,6.67-9.25,14.38-4.94,18.36-12.41,1.15-4.35,4.83-6.36,9.54-8.53,12.43-4.49,33.37-35.6,44.59-26.24,2,20.92,21.24,30.88,7.81,35.07l-20.54,14.64c-3.34,1.45-8.36-.18-9.61,4.76-2.28,12.61-14,14.77-19.43,22.06C194.78,1630.29,272.12,1599.07,116.49,1604Z"/><path class="cls-7" d="M345.76,1192.94c-51.95-.16-34.33-80.47-7.59-98.26,39.92,5.77,49.18-54.87,62.93-50,4.78,15.35,29.26,17.89,19.57,32.26C398.58,1119.78,404.35,1183,345.76,1192.94Zm292.46-5.43c-42.22-11.26-68.35-54.26-78.44-91.87,11.88-7.65,26.61-9.19,29.53-27.11.83-3.46,2.67-5.4,5.48-5.35C637.36,1073.89,708.85,1163,638.22,1187.51Zm-432-114.69c-46.92,2.39-52-51.13-18.24-73.09,16.82-23,85.46-30.2,79.07-49.31,6.64-30,45.77-46.26,70-27.45,16.31,7.85,35.53,1.37,50.68,8.49,65.55-21.58,20.91,4,57.7-37.67,7.77-7-4.57-18.17-3.93-27.66-7-25,.15-63,32.16-67.14,42.63,6.62,11.28,64-1.48,83.33C467,891,483,896.68,488.5,900.36c25.11-12.85,58.47-19.28,87.11-13,33.57,7.39,23.69,34.47,37.12,44.19,41.84-8.91,89.81,63.71,29,69.47-22.93-2.7-57.68-13.38-68.47-32.35-2.52-12.42-22.77-12.94-22.94-26.71-19.88-8.05-42.23-11.76-59.66-18-18.35,19.48-21.86,14.63-6.21,37.32,83.41,122.16-29.18,157-31.54,12-.52-12.69,2.78-33.63-15.27-33-20.41,24.25-87.13,105.49-108.43,45.44-4.48-11.12-33.69,4.06-51.14-9.58-21.35,12.63-40.68,44.07-25.51,63.36C265.92,1058.87,221.93,1072,206.23,1072.82ZM382.48,878.7c-113.66,3.85-101.65-154.54-9.83-58.09C351.3,851.29,397.16,871.79,382.48,878.7Zm186.09-19.92c-3.47.13-6.87-4.34-4.28-7.58,9.8-17.91-28.33-25.83-7.19-41.63,19-35.1,85.82-56.14,100.28-8.09C648.8,826,590.24,842,568.57,858.78Zm160-453.16c-21.54,6.17-165.92-30.86-143.53-52C629.3,365.15,676,357,718.84,345.55,766.44,343.25,790.37,409.76,728.61,405.62ZM528.43,329.06c-19.25-5.91,92.77-58.35,99.67-81.68C727.71,180.51,756,324,528.43,329.06Zm-22.75-6.42c-12.9-1.24,4.65-76.37,5.82-92.16-3-30.9,57.11-111.11,69.43-46.34C574.26,235.67,547,290,505.68,322.64Zm-19-3.45C309.93,206.1,416.54,78,458.38,235.58,454.35,258.69,500.64,314.81,486.65,319.19ZM380.2,293.67c-48-1.1-153.18-14.93-157.5-71,23.82-29.25,89.18-11,109.3,15.14C340.49,254.53,447.09,298.59,380.2,293.67Z"/><path class="cls-8" d="M976,995.8c-1.23-.53-2.68.29-4.16,1.05-9.43,4.85-19.38,8.77-29.87,9.84-10.66,1.09-11.6,5.24-9.67,15.06,6.93,27.52-16.4,46.83-43,40.55-17.71-4.6-11.45,16.22-46.94,25.88-49.19,7-62.16-26.67-88.7-57.78-2.07-2.51-2.74-3.54.28-4.81,27.23-7.76,22.6-40.76,8-58.69-7.22-9.81-18.49-13.89-28.88-19.52,14,3.67,29.77-10.19,42.81,5.55,6.16,7.44,18.51,9.68,22.26,18.69,4.51,10.84,10.13,21.24,14.13,32.15,6.21,16.94,18.22,29.94,27.21,44.94,1.63,3.49,10.41,4.09,8.71-1.17a308.84,308.84,0,0,1-38.73-69.17c29.37,17.51,52.08,36.69,81,53.58,1.72,1.09,3.65,2,4.71.12.61-1.06-.07-3.83-1.11-4.67-17.81-14.22-35.22-25.81-54.33-39.57,11.85-2.35,22-.14,31.69,1.6,11.52,2.05,23.92.39,34.61,7.22,6.29,3.87,13.58-3.85,3.52-6.52-17.25-8.43-36.42-7.68-54.73-10.85-8.45-1.46-19,3.2-25.83-.32-15-7.77-28.3-19-42.26-28.78-8.3-3.67-7.09-6.6,2.45-7.07,18.67-2.05,37.35-4,56-5.93,13.45-1.39,27.38-5.57,40.23-3.39,19.54,1.87,78.32,34.14,93,23.29-22.05-11.4-49.66-12.67-71.78-25.42,3.36-4.12,9.06-1.73,13.68-3.42,14.28-5.2,28.79-9.81,42.9-15.42,4.33-1.52,12.35-.87,11.42-8.1-.34-3.67-5.32-2.15-7.67-1.39-22.93,7.42-45.19,17.21-69.35,18.54,17.42-26.14,48.78-43.46,67.39-67.53-12.31.53-56.19,40.3-65.11,51.87-4.46,6-8.19,14.87-16,16.42-18,3.56-36.42,5.36-54.27,7.82,6.87-12.87,21.24-17.84,30.43-28.84,3.48-7.51,34-17.75,27.47-25.12-3-3.77-4.67.46-6.61,1.77-16.81,11.65-33.49,23.32-48.44,37.44-13.7,20.24-27.9,17-50.55,20.13,64.15-97.15,23.38-38.43,109.68-88.23,6.19-1.7,1.57-8.4-3.87-5.61-17.25,8.47-34,18.19-55.29,22.36,6.33-9.54,41.88-40.44,34.8-46.68-2-2.48-3.75,1.82-5.23,3.36-20.6,22.38-42.71,43.69-59.45,69.28-1,1.56-3,2.43-4.62,3.62-.3-1.87-1.52-4.64-.73-5.47,3.71-3.87,1.19-8.52,1.41-12.39,1.4-24.46,1.75-49,2.29-73.47,2.42-6.81-5.07-6.1-5.86-.35-4.8,24.28-2.63,49.52-5.79,74-1.22,12.07,7.13,24.73-2.37,36.23-9,13.71-17.74,30.63-33.41,23.37,41.45-25.1,10.86-68-28.38-69.35,21.93-28.4,4.47-28.48,10.74-41.18C761.36,802,787,755.8,827.82,771.15,838.31,775.63,843.55,788,860,784c20.3-5,53,20.55,49.1,47.89-.71,5,1.2,12.61,8.28,8.32,17.9-10.82,37.77-16.76,56.66-25.1,4.19-1.35,4-7.8-1.23-6.09-12.07,1.31-22.5,9.31-33.94,10.24-5.51.45-15.87,24.76-21.3-3.32-4.47-23.09-24.92-36.89-49.35-41.16-10.56-1.84-20.29,1.4-31.43-8.14-19.55-16.75-64.29-2.12-78.23,20-8.05,12.79-19.51,23.42-29.31,35.13-1.6,1.91-2.11.61-2.9-.4-10.26-13-51.36-16.67-66.08-8.53,5.27-11.26,3.27-21.37-4-29.66-21.27-24.09-62.83-20-85,2.13,8.63-45.47-33.71-41.28-61-21.67C530.4,697.47,435.44,699,434,794.77c-5.8-7.07-9.61-15.76-13.82-23.84-5.19-11.24-19.19-17.89-10-36,9.45-18.1-4.59-33.28-24.11-35.41-4.12-.51-3.45-3.66-2.54-6,6.56-16.74-2.37-36.61-19.29-42.67-1.77-.64-4.12-.73-1.87-4.29,12.5-19.8,24.18-40.13,36.92-59.77,18.08-34.38,31.27-48.67,69.75-59.57,8.73-3.13,16.8-10.22,27.7-3.33,20.55,13,41.72,25.05,65.81,30.82,23.26,5.56,46.37,9.94,70,1.76,6.64-2.29,12.77-6.57,20.7-5,20.78,4.24,41.47,3.83,61.62-3.48,19.13-6.94,33.39-20.71,46.81-35.19,13.54-17.39-18.2-33.69-28.89-43.24-20.68-16.36-45.57-23.51-72.15-22.53-10.87.4-23.22,6.46-32.21,3-22.32-8.62-43.72-10.95-67-5.42-24,5.7-43.76,17.53-60.62,35.13C489.46,491.62,482,507.3,467.4,515.7c-9.9,5.7-21.15,9.06-32.91,13.92,34-58.5,79.78-106.48,128.84-152.11,8.17-7.84,14.65-16.2,28.37-5.08,11.79,9.56,28,13.34,42.17,19.67,36.93,13.67,76,21.63,115.23,15.39,43.22-14.9,16.19-59.29-18.48-63.22,10.34-7.48,21.93-14.54,23.93-26.79,2.69-16.61-14.49-32.38-32.39-32.53-9-.07-17.95,0-27,0,3.94-7,7.75-13.16,11-19.61,6.39-12.82-2.62-34.06-16-38.46-16.42-5.48-31.67-.67-46.78,5.55,1.84-10.85,6.85-20.82,4-32.78-12.39-34.27-44.63-20-62.21,2.14,6.64-20.24-2.82-50.71-24.35-48.62-27.39,4.17-39,32.69-49.3,54.52-2.09-24.18-7.12-66.38-39.7-66.68-7.89.56-11.51,5.89-15.41,12.48-7,11.8-3.66,25.35-8.4,37.87-4.53-5.75-9.71-10.64-12.82-16.62-8.47-16.28-35.88-22.72-46.5-10-8.56,9.81-6.07,22.15-6.29,34-21.27-15.53-47.22-36.48-75.62-31.41-12.95,3.07-15,26.35-3.77,38.17,1.83,1.9,3.44,6.68.24,7.34-5.32-1.35-10.63-2.72-15.88-4.29-17.36-5.19-34.58-8.69-52.44-1.5-50.24,21.29,9.77,61.61,37.3,70.71,45.15,20.71,94,20.43,142.45,17.64,4.75,0,13.33,3.31,13.63,5.87,9,48.57,1.49,91-8,140.59-12.94-40.47-54.89-67.77-95.73-53.71-4.77,2-10.26,8.68-17.16-1.48-29.92-56-88.55-42.14-110.85,15.85-2.64,11.08-3.21,23-10.72,32.86-4.45,4.07-5.18,15.31,4,13.39,56.8-25.59,130.36,41.38,159,86.3,8,12.66,26.64,24.17,8.26,44.44-15.21,16.76-26.44,37.12-39.8,56.42-.9-36.24-28.54-79.11-69.47-57.86-9.59,5-20.55,9.35-21.51,23-.09,1.38-1.71,6.52-4.62,2.89-39.4-52.33-111.57-37.44-116.57,30.16-2,21.1,4.11,40.43,18.37,56.66,1.37,1.55,2.59,3.67.14,4C92,700.08,82.74,747,108.58,764.83c16.64,11.06,35.3,16.82,55.7,23.73-5-.39-4.92,2.76-6.47,4.39-13,13.67-9,41.36,8.44,47.68,19.14,5.13,9.59,49.71,53,48.46a42.31,42.31,0,0,0,6.52-1.2c1.17-.31,3.9,4.56,5.61,7.21,1.18,1.85-.71,1.51-1.7,1.85-15.68,5.31-32.34,8.5-44.76,20.87-.69.69-3.07.89-3.68.3-11.49-11.11-25.3-18.22-40-24-44.66-18.41-61,12.75-99.18,17.25-18.23.66-32.81,9.57-40.35,27.12-1.56,3.37-3.24,7.83-.62,11.26,2-2,4.73-3.66,5.79-6.06,16-37.36,50.76-13.83,76.43-37.95,26.43-17.25,60.3-4.94,83.65,12.37,5.25,4.06,12.38,7,8.14,16.4-11.33,24.12,14.06,42.09,37.25,43.41-20.61,9.92-64.85,54.7-80.35,22.82-3.24-8.25-1.95-18.92-5.08-28-6.26-16-9.13-36.21-23.22-47.45-3.61,9,4.27,15.61,6.4,23.62,2.6,15.5,11.37,30.34,12.48,45.8-27-14.32-52.52-32.21-78.94-47.84-2.59-1.6-5.7-4.54-7.89-1.67-1.84,2.42,2,5,4,6.31,33,22,64.54,41.41,97,65.07-18.31,2-33.85,9.4-51.84,12.1-8.57,1.55-13.59-7.24-20-11.7a198.38,198.38,0,0,0-50.55-25.21c-3-1-8.76-5.54-10.72-.17-1.36,3.93,4.6,5.19,8.14,6.78,20,8.75,40.11,17.19,56.91,31.84-18.28,3.57-36.93,4.36-55.14,7.62-3.33.7-10.48-1-10.13,4.4.25,5.12,6.26,3.22,9.87,2.83,16.73-1.84,33.56-3.23,50.09-6.24,10.17-1.86,21-.11,30.6-5.46.83-.46,2.81.67,4,1.45,1.77,1.16.21,2.14-.43,3.24-2.94,5.09-5.08,10.85-8.83,15.23-8,9.39-8.49,25.1-25.53,27.22-18.11,2.25-35.79,7.37-52,16.48-28.7,20.29,49.28-12.36,54.47-9.59-7.49,14.06-20,25.66-29.56,38.59-1.43,1.74-1,2.37.44,3.88s1.77,1.13,2.9-.08c18.68-18,34-38.2,48.64-59.6,8.28,19.63,21.35,36.87,25.11,58.55.59,2.94-2.14,9.84,4.33,8.86,13.45-7.67-14-56.31-19.92-67.16-1.63-2.9-5.34-5.68-3.57-9.23,8-16,15.44-32.39,37.39-33.29,4.51-.18,6.45.42,7.34,4.15,5.72,22,6.39,44.94,10.39,67.25.84,4.82-.66,11.19,5.06,14.46,3.7-12.43.79-25,.48-37.36-.24-9.69-1.05-20.06-4.8-28.74-2.76-6.37-1-12.57-3.37-18.36-1.08-2.69-1.32-2.59,12.35-8.75,2.42-1.2,4.7-2.67,7.42-3.1-12.79,17.24-7,45.47,13.49,54.38,5.1,1.85,17.12.21,14.73,11.8-16.16,45.22-73.29,108-119.2,60.22-2.12-2.11-4.62-4-7.44-2.67-9.52,4.51-18.87,9.31-29.78,9.53s-21.92,1.53-31.89-5.16c-7-6.37-12.27,3.49-4.21,7.26,38.76,21.4,63.18-12.39,76,7.83,25.31,24.07,67.63,4.57,88.28-17.88,15.43-16.7,32-34.47,34.53-58.46.53-3.43,1.76-6.49,5.87-6.83,13.09-1.08,24.17-6.84,36.16-11.64-69.73,83.42-12.52,150.15,67.6,67.45-4.57,8.72-4,18.19-4.89,27.28-.52,5.59,6.59,12.55-3.17,16.15-11,4.08-19.59,14-33.08,12.48-37.84-1.36-77.87,7-105.43,35.33-33.95,36.69-34.63,102.84,5.21,134.19,12.72,5.83-27.3,19.93-31,50.95-7.28,32.3,16.86,59.19,13.83,91-1.64,31.9-19.55,57.6-34.49,84.3-2.45,4.38-7.82,9.92-3.6,13.39,4.54,3.83,7.15-3.14,9.33-6.81,11.81-19.44,24.49-38.44,31.79-60.23,1.85-5.49,3.09-9.74,10.93-8.52,6.83,1.06,13.72,1.37,20.22,4,3.67,1.92,8.91-2.92,5.11-5.68-9.24-3.79-18.63-7-28.88-6.23-2,.15-2.79.29-2.91-3-.51-18,13.08-6.75,21.41-13.57-7.31-8.46-26.24.36-20.13-19.1-7.31-26.94-24.67-55.76-8.2-83,8.33-13.48,22.43-20.89,31.29-33.34,9.41-15.49,17.53-3,27.87,4,2.44,1.9,1.23,3.87-.23,5.51-24,21.64-36.55,46.8-25.3,78.61-5.89-3.7-12.15-3.36-18.73-2.56-1.64.2-3.87-2.16-5.4.54-2.64,4.67,0,7.47,4.63,6,28.22-3.83,25.38,19.29,30.11,39.22,2.83,5.65.75,47.27,12.45,33.69,6.63-7,14.88-12.51,21.63-19.44,10.2-10.48,16-9,18.71,5.4.22,11.84,11.4,19-.25,27.4-.5-7.07-1.67-13.07-6.33-17.65-2.78-2.65-6,.39-5.61,3,7.51,14.45,6,28.35-2.93,41.36-1,1.47.65,9.91-7,4.64-12.84-8.07-34.79-22.06-50-14.64,1,1,1.86,2.78,3,3a75.23,75.23,0,0,1,28.78,10.32c7.95,5,23.33,5.53,15.68,21.89-6.19,12.68,6.38,16.61,8.46,2.12,11.94-39.93,39.6-71.75,73.07-95.51,3.3-2.68,6.18-8.27,13.1-5.3,13.68,5.87,27.44,13.83,43,5.1a2.42,2.42,0,0,1,2.26.64c10.53,17.25,21.7,32.37,43.57,38.17,46.42,16.69,91.75-20.83,95.21-66.54.32-3.32-.26-7,2.68-8.46s5.92,1.77,8.86,2.64c57.34,20.09,59.62-68.28,46.26-103.37,39,36.38,91.71-7,80.19-52.85-14.1-23.56,3.33-15.54,3.48-37.39-2.89-25.68-20.44-41.43-38-57.56-6-5.47-19.73-4.53-16.19-19.15,2.6-10.74,1.54-22-1.08-33.15,56.48,63.92,111.31,8.33,67.45-56,29.21,8.72,67.06,7.11,73.89-28.26,1.92-20.81-.85-40-18.56-54.71,28.16-1.81,37.8,13.93,51.43,34.26,12.64,15.23,23.24,30,43.9,36.83,25.77,8.53,46.49,3,67-12.17,5.15-3.81,6.33-13.5,15.82-11.26,15.79,3.72,29.56-1.16,41.75-10.83,8.11-6.43,12.13-30.15,7.52-40.5-1.12-2.52-2.75-4.28,2.08-5.08,11.62-1.93,23.38-4,32.71-12.17C977.16,1001.22,979.38,997.69,976,995.8Zm-229-481.11C726.84,534.87,702.16,549,674,543.88c-25.54-4.58-46.78,8.92-70.29,8.69-38.75.4-68.07-18-103.24-35.06,21.8-3.51,39.62-7.35,58.31,2.19,15.94,8.13,33.54,13,50.51,19.11,2,.7,5.28,1.77,6.28-2.4,1-4-2.34-4.75-4.36-5.28-19.18-4.36-33.56-14.15-52.58-19.6,38.5-2.82,73.22-4,111.25-2.09,28.35,1,56.47-3.2,84.72-3.85C754.59,510.68,749.81,511.93,747.05,514.69ZM561,454.78c22.78-5.53,43.87-4.91,65.26,4.64,7.22,3.22,18.05-.71,27-2.52,38.35-5.79,74.6,15.74,100.39,42.21H649.06c16.35-7.36,29.39-16.05,44.54-20.11,2.72-.73,1.83-3.81,1.23-4.46-6.55-9.75-46.86,20.18-59.72,22.44-9.16,3.39-20.32,1.62-30.58,1.76-15.65.21-31.31.05-46.47.05,11.48-8.05,24.13-16.87,36.72-25.78,3-2.1,8.45-3.41,6.33-8.22-.78-1.77-1.8-2.46-2.89-2.54a316.1,316.1,0,0,0-53.57,37.6c-5.69,5.29-13,2.57-19.53,3.8-11.78,2.25-23.85,2.92-35.15,4.18C508.52,484.33,529.08,462.51,561,454.78ZM749,883.92c24.1,13.34,13.52,42.25-8.63,48.24-37.16,14-78.73,5-114.85-8.87-4.61-2.14-12.19.46-14.15-5.39-3.19-9.51,7-10,11.74-14,1.77-1.47,4.29-2,6.35-3.18C665.08,881.69,710.12,865.38,749,883.92ZM492.55,1076.61c23.09-22.84,69.54,46.14,79.17,64.62C621.38,1257.53,472.27,1247.55,492.55,1076.61ZM326,971.84c-5.8,8.65-17.92,7.85-28.22,6.62-16.78-2-27.2-12.9-26.69-27.91.37-10.66,18.13-26.58,28.16-29.95,13.8-4.63,24-.9,35.81,5.84,12.21,7,27,4.38,41.89,4.74C356.55,941.93,338.64,952.94,326,971.84Zm-12.06,49.8c-11.57,11.33-24.51,20.26-41.19,21.16-12.55.68-19.66-7.92-19.66-27.06,1.4-8.07,12.34-22.94,19.89-30.71,9.61-12.16,15.14,10.12,48.68-1.73,1.25-.35,2.72-.94,3.34,1.49C328.72,999.36,324.43,1011.35,313.91,1021.64ZM382.48,874.7c-15.64-5.22-31.46-3.68-45.69-9.78-57.91-28.77-34.59-114.34,31.08-45.26,2.7,2.22-2.28,4.82-3.05,7.66C359.57,846.76,368.84,860.78,382.48,874.7Zm22.83,19.37c4.28,2.4,9,4,13.31,6.38,3.21,1.77,9.78,1.5,8.77,6.12-1.45,6.66-4.25,12.33-14.14,12.83-30.88,1.63-70.76,13.42-92.92-15.65-6.59-10-1.18-22.65,10.82-24.67C356.32,872.72,382.78,882.61,405.31,894.07ZM322.8,865.72c2.07,1.54,4.42,2.7,7.49,4.55-14,4.12-29.36,18.46-20.88,36,4.17,8.62-7.48,5-10.68,6.07-24.08,7.9-48.18-4.28-60.64-23.26-7.24-11-5.54-22.89-.37-33.35C257.23,827.36,302,849.19,322.8,865.72Zm42.69,81.52a167.79,167.79,0,0,1,55.74-21.7c2.6-.52,4.15-.1,4.31,2.13.38,5.44,7.61,10.46,4.35,14.82-20.46,25.26-42.49,53.93-76.37,60.34-11.28,2.1-20.46-5.94-20.46-20.94C334.91,965,350.76,956.34,365.49,947.24Zm134.33-24.69c-2.52-.81-5.63-3.25-4.75-7.23,1.37-6.15-5.81-14,7.31-17.52,32.76-9.2,89.46-22.06,100.14,22.73C602.41,956.49,521.88,929.27,499.82,922.55Zm14.77,15c25.34,7.61,79.09,34.21,51.44,65.54-4.83,4.38-11-.26-15.52,2.53-31.36-7.58-53.42-31.48-68.22-58.8-4.15-7.21,3.58-8.53,6-11.87C497.75,922.22,506.46,935.17,514.59,937.55ZM489,893.44c-2.79,1.06-7.79-2.7-11.3-5-2.18-1.42.44-3.09,1.34-4.4,10.36-15,18.21-31.81,32-44.5,15.52-14.13,43.91-14.22,49.16,6.38C547.26,874.74,515,881.65,489,893.44Zm-3.1,18.48c3.72,30.74-53.82,44.15-51,3.09C436.3,891,481.87,883.36,485.89,911.92Zm-7.46,161.62c1.91,18.84-3.79,49.74-26.18,50.77-8.81,0-13.08-8.51-17.39-16-7.82-13.62-5.51-27.66-3.61-41.81.54-4,4.83-1.57,7.29-3.22,11.36-6.75,13-19,18.67-29.75,5.22,12.18,7.9,25.71,19.7,33.24C480.45,1069.4,477.06,1072,478.43,1073.54ZM437.32,948.11c.56-1,3.65-1.26,5.32-.85,7.23,1,2.95,11.65,4.06,16.8-1.05,30.15,17.21,85-23.8,94.21-26.19-1-16.15-47.61-10.74-64.24C417.63,976.57,429,963.37,437.32,948.11Zm-84.78,65.56c4.33-5.4,14.92-5.55,22.4-8.71,11.3-4.78,19.86-13.56,29.85-21.17,1.59,9.37-4.89,16.66-6.4,25.31-1.92,11-2.14,22.61-7.24,33.23-9.81,20.58-23.56,44.28-48.16,47.7-15.18-.88-22.06-12.1-17.71-26.75C330.81,1044.62,340.74,1028.37,352.54,1013.67Zm-18.12,87.39c1.92-4.07,5.94-1.61,9-1.94,28.61-3.3,43.21-28.64,54.6-51.86.91.91,2.32,1.67,2.63,2.75,2.22,7.6,7.13,12.52,14.37,15.41,8,3.21,2.33,8.4,1,11.93-6.58,17.06-12.55,34.17-17.68,51.82C372.54,1228.07,276.57,1194.64,334.42,1101.06Zm69.6,50.17c1-21.44,8.41-41.52,15.82-61.93,4,18.94,6.79,38.41,28.49,43.42,12,2.76,23.05-1.64,29.83-14,4.12,23.25,6.16,45.69-5.33,66.82-13.37,23.06-34.39,36.29-55.4,12.54C402.35,1185.69,402.53,1167,404,1151.23Zm73.08-97.66c-14.63-25-19.38-52-20.17-81.11-1.11-5.23,2.15-12.64-1.58-19.64-1.06-2,1.46-1.6,2.46-2.07,13.12-6,18.1,2,23.09,12.31,6.79,14,15.62,27,22.12,41.11,7.82,17,12.27,35.24,5.28,53.54C503.87,1069.33,485.49,1066.85,477.1,1053.57Zm76.71,35.68c-14.37-2.19-20-14.75-28.75-23.8-10.57-11-1.64-23.93-4.66-35.76-2.46-11.58-6.61-22.36-11-33.17,14.72,9.12,30.94,15.31,47.44,21C593.75,1031.61,598.73,1081.93,553.81,1089.25Zm1.29-141.81c13.83-1.09,25.69,1.65,37-2.37,15.27-4.3,10.78-13.28,33.85-8.24,14.73,3.27,27.8,8.25,35.77,22.07,7.62,13.21,4.31,32.31-6.33,35.89-25.2,7.65-48.72-7.73-70.61-18.09C571.79,966,578.42,957.54,555.1,947.44ZM691.09,817c17.34-.72,37.55,12.92,35.38,27.74-1.62,11.14-5,22.67-21.73,22.55-35.12.07-67.12,17.35-95.65,36.45-1.44.91-2.91,1.91-3.73.54-13.65-23.53-35-24.78-59-23.95C590.79,850.68,636,818.46,691.09,817Zm-92.65-37.35c19.82-7.81,49,.72,55,21-2.54,12.38-13.22,15.21-22,19.5-21.78,10-42.43,23.09-63.14,34.55-2.29-1.23.52-1.48.68-2.35,5.69-26.7-20.71-24.44-13.34-34.9C568.15,802.94,579.74,787.25,598.44,779.65Zm-91.37,2.8C516.85,767.3,531,759.57,549.2,759c30.1,1.14,3.63,49.12-8.58,58.21-15.64,10.05-20.53,2-41.37,20.74C507.15,810.1,486.1,806.54,507.07,782.45ZM478.45,730c4.72-1.81,10.21-2.5,14.61.34,21.86,15.69,5.08,48.68-3.5,67.65-9.87-12-32.27-5.31-43.61,8.66C442,779.48,446.36,742.29,478.45,730ZM442.87,847.45c1.34-17.78,5-34.21,23.49-42.84,10.95-5.11,24.2,2.48,24.54,14.61.67,23.25-10.51,42-22.16,61-4.58,7.47-11.58,2.49-16.1,6.45C446.43,874.77,443.43,861,442.87,847.45Zm-.22,40.5c1.27,3.08-8.8,10.78-9.29,9.9-23.26-11.2-46.06-23.15-57.55-48.53-6.56-14.48.34-29.54,14.56-29.33C419.4,824.48,433.11,863.91,442.65,888Zm-7.9-56.19c.34,1.53-1.39,3.41-1.71,5.21s-.07,3.63-.07,9.35c-8.4-16.91-26.13-37.64-43.53-35.37-13.87,0-29.46-13.88-30.23-27.94-.72-13.35-2.8-27.69,13.46-34.78C405.16,740.19,430.06,806.74,434.75,831.76ZM749,360.14c25.42,16.07,13.32,43-14.73,41.45-13.65.15-27.34-.13-41-2.52-38.65-6.52-77.72-17.57-109.5-41.65,35.68,9.51,72.94,5.42,108.83-.58C714.4,349.21,728.55,344.58,749,360.14Zm-26.2-66.67c31.32,3.62,28.73,33.48,2.13,43.21-61.15,24.57-133.15,21.24-194.47-2.2,42.39-6.11,83.74-7.4,123.3-24.16C681.65,294.78,689.06,287.82,722.78,293.47ZM693.5,240.69c8.1,7.77,6.54,22-2.21,33-39.7,43.39-107.73,45.15-162.86,51.36,25.05-12.08,44-28.15,65-41.21a149.84,149.84,0,0,0,37.8-34C644.32,233.49,680.58,228.28,693.5,240.69Zm-96.16-41.43c32.37-30.22,51.94,4.19,36.77,31.81A169.66,169.66,0,0,1,588,277.12c-25.2,15.78-45.09,36.54-74.12,46,21.92-20.5,38.15-43.19,51.22-68.33C575,235.83,580.3,214.34,597.34,199.26Zm-86.26,58.91c.28-15.11,5.58-28.77,7.71-43.18,2-23.26,51.49-82.66,58.13-30.74-5.66,49.58-34.53,101.41-71.23,134.38C502.73,299.05,511.4,278.79,511.08,258.17Zm-51.17-84.92c4.94-39.82,34.43-21.4,38.93,7.16,8.93,30,3.87,60,.72,90.41-1.07,17.28-1.06,32-1.1,49.8C471.61,274.76,453.46,226.52,459.91,173.25Zm-51.52-6.31c14.06,2.89,20,14.87,28.62,24.06,20.58,21.94,13.86,52.85,25.95,77.49,7.62,15.71,16,31,23.7,46.7-42.33-25.68-85.36-72.83-95.6-121.08C391.09,173.13,397.74,164.76,408.39,166.94ZM317.33,283c-23.13-1.64-137.95-50.6-72.22-70.07,21.67-2.59,41.65,3.65,62.11,9.32,11.09,3.07,14.9,12.39,22.19,18.59,21.57,19.84,45.15,32.39,70.36,48.43C371.31,290.31,344.17,289.61,317.33,283Zm87.57-1.39c-33.67-16.33-64.7-37.2-86.06-68.65-39.45-57,15.43-37.79,45.62-18.11,24.74,13.66,29.93,40.82,45,61.09a224.16,224.16,0,0,0,40,41.83C432,293.5,418,288.7,404.9,281.63ZM364.53,541.32c-7.51-9.68-6.91-20-6.24-32,2.06-30.38,4.1-63.28-9.06-91.93-1.1-1.67-1-4.87-3.69-4.07s-3.57,3.42-2.7,6.53c3.6,12.86,7,25.81,7.18,39.27.19,12.25,1.72,24.45-.71,36.82-.53,6.6,1.95,14.05-1.34,20.85-16.41-14-23.19-34.25-31.22-53.44-14.23-32.21-36.59-65.25-68.57-82.1-4.9-2.35-8.14,5.06-3.16,7a104.24,104.24,0,0,1,35.73,34.08c-19.37-3.22-36.46-18.31-56.93-14.59,19.68,18.45,65.11,16.07,76.62,41.72,4.07,8.82,8.31,17.56,12.36,26.38.35.76-.16,1.9-.27,2.87-30.74-28-70.59-51.91-114-44.52-4.42,1.18.54-3.83.9-5.26,10.35-63.4,65.42-100.13,103.34-31.59,11.19,19.18,37.62-21.46,80.6,8.64,16.3,12.4,25.79,28.18,30.85,46.73,2.25,8.24-3.79,16.76-7.13,24.9-10.48,23.54-14.95,45.88-30.56,67.56C376.37,537.7,398.9,401,379,434.29c.6,16.6-1.6,32.91-3.94,49.29-2.71,18.85-4.24,37.86-6.42,56.78-.15,1.31-1.44,2.49-2.2,3.74C365.82,543.17,365.22,542.21,364.53,541.32ZM315.72,655.69c73.7-105.48,139.93-214.09,123.36-348.11-.43-3.28.29-2.82,4-3.26,18.53-2.2,27.87,13.44,41.93,19.49a492.45,492.45,0,0,0,79.23,30.1c9,4.81,5.14,7.23-.92,12.27-14,11.67-26.91,24.75-40,37.49-46.68,42.59-82.71,95.71-114.87,149.64-17.46,30.92-36.56,60.24-54,91.08-4.88,7.74-16,2.1-22.43,8.39-3.08,3-7.26,5-11.05,7.22-1.37.83-1.78,4.23-4.44,2A4.52,4.52,0,0,1,315.72,655.69ZM224.28,876.58c-.69,8.67-11.14,5-15.79,3.32-31.8-11.6-14-43.88-33.36-44.21-19.66-1.4-22.36-35.63-4.41-41.81,13.95-5.51,5.6-10.12-3.55-13.13-22.93-7.23-67.9-17-65.59-47.74,4-15.49,10.09-29.78,29.64-31.09,8.44-.56,8.94-6,4.16-11-59-65.44,20.5-157.33,82.91-77.32,7.38,11.56,12.56,7.77,14.53-4.06,1.32-14.26,10.94-21.78,22.72-24.07C303,572,307.51,620.6,307,651.92c1.14,7.15-3.57,34.43,6,35.13,2.4.09,1.8-1.67,2.12-3.07,4.58-25.71,41.31-39,57.29-16.31,9.88,12.26-1.23,28,1.34,40.46,2.5,3.49,9.92-1.37,14-1.29,4.49.25,7.9,4.31,11.06,7.25,9.46,8.29,2.9,20.79-.49,30.65-34.46-24.55-59.48,16.65-45.43,47.9.18,3.07-2.4,1.7-4.07,1-10.24-5.27-19.23-13-32.7-7.92C296.59,792.25,295.89,809.74,294,826c-6.65-15.24-12.8-12-3.3-29.19,15.88-31.48,31.83-62.9,44.9-95.67,2.59-5.48-3.35-8.68-4.83-2.58L301.66,757.7c-3.36-9.77,5.45-47.78-.45-49.1-15.6,26.15,1.65,63-20.06,89.32-.67.89-.32,2.56-.67,6.24-9.12-15.94-18.74-29.53-24.67-44.57-2.7-6.83,2.19-16.51,3.12-25,4.33-30.65,4.61-61.45,4.18-92.34.08-8.64,1.49-17.47-5.68-25.18-1,22.6-2,44.55-3,66.5l-2.24.48c-3-9.88-6.14-19.74-9.07-29.65-1.83-5-1.11-16.55-8.77-15.25-3.06,1.36-1.17,4.51-.5,6.94,4.38,15.82,6,33.21,13.82,47.07,10.65,18.84-1.56,35.76.1,53.78-24.67-39.2-42.05-86.5-79.23-115.7-1.68,6.14,15.18,23.19,18.69,30.51,6.81,10.27,13.39,20.72,19.63,31.35,2.12,3.63,7.92,5.56,5.68,11.54-13-10-26.07-19.93-38.91-30.11-1.82-1.43-3.26-2.35-5.21-1.26-2.88,1.6-.31,3,.46,4.34C176.64,691.16,190,699,202.4,706.47c17.7,11.51,31.26,28,38.29,46.73-2.54-.2-5.36.25-7.57-.71-28.61-12.83-59.88-16-89.4-25.7-2-.7-4-1.64-4.67,1.33-1.78,8.31,54.35,19.48,63,21.07,1,.16,1.88,1.52,2.82,2.32-4.77,4.37-39.46,9.45-35.15,16.08,3.83,6,38.44-9.85,45.76-11.88,6.64-2.4,13.45,4.41,20.42,5.83,21.62,4.4,21.76,26.44,32.78,39.49,1.44,1.71,7,5.89,3.31,7.15-5.78,2-12.31,3.89-19.39-.13-14.38-7-29.8-21-46.73-17.93,5.34,8.48,27.08,14.24,37.57,20.4-13.33,0-25.93,0-38.53,0-6.95.66-14.85-2.26-20.8,2.27,11.56,10.35,74.47,5.71,92.93,5,6.08-.55,7.18,8.69,10.89,13.17a53.18,53.18,0,0,1,3.77,5.93C255.79,827.43,225.11,834.58,224.28,876.58ZM185.2,953.9c-12.23-29.64,28.57-43.24,50.34-50.41,5.29-1.81,7.42,4.58,11.17,6.78,8.59,5,16.84,9.92,27,10.82,7.36,1.41-13.9,18.4-13,35-.77,8.18-9.69,6.28-14.88,8.44C226.42,971.36,197.43,972.24,185.2,953.9Zm17,114.75c-42.77-3.7-41-43-11.5-66,21.31-18.44,48.43-27.84,74.21-36.2-3.3,5.4,9.32,6.7,3.65,11.67-13,11.36-23.2,24.67-24.93,41.79-.7,7-.42,16.34,6.31,22.55,3.27,3,3.8,5.52-.54,8.65C235.18,1061.4,220.13,1070.17,202.16,1068.65Zm65.14,87C243.16,1169,220,1159,220.93,1136c.47-25.77,14.75-43.47,27.38-62.27,22.63-33,57.38-15.58,79.49-56.71,2.83-4.43,2.36-12.54,11.45-8.06,1.44.71,4-.14,4.2,2.19-13.44,20.83-45,61.92-17.89,84.27C313.89,1120.44,292.09,1142.11,267.3,1155.7ZM178.9,1353c-4.06,3-9-5.06-11.22-8.75-11.65-19.41-22.48-39.47-18.55-63.47,8.65-64,64-84.33,121.88-83.54-11.4,15.33-23.54,29.54-24.07,49.39-.09,3.36-1.15,1.79-2.84.85-13.36-7.45-26.72-14.93-40.34-21.89-2.54-1.29-7.34-2.8-9,1.42-1.9,4.78,3.59,4.32,5.86,5.91,12.72,8.9,28.54,12.52,40.49,22.84-7.76,2.7-79.34,27.44-72.84,33.8,3.91,4.58,8.48-.13,12.08-1.19,9.76-2.34,18.47-8.78,28.2-10.88-2.52,13-10.89,25.11-15.77,37.63-1,2.16-2.9,4.87.28,5.39,6.66,3.33,23-39.64,24.79-46.26,1.11-4.21,10.62-6.31,16.39-9.16,18-8.89,14.32,8.59,18.08,16,.61,1.21-6.16,6.76-10,9.58C218.17,1308.31,203,1335.46,178.9,1353Zm20.4-5.06c9.15-15.57,25.31-28.22,36.51-42.78,8.48,4.21-6.56,10.82,1.78,34.43,2.06,7.3-6.78,12.19-12.2,15.81-2.52,2.39-2.68,9.39-7.1,7.11C211.29,1358.93,205.44,1353.08,199.3,1348Zm22.35,157.29c-4.74,3.66-9.32,7.53-15.16,12.27,3.24-28.64-9.68-53.48-14.39-80.71-10.27-35.69,27.57-56.92,46-81.9,9.43-10.81,13.33,2.58,18.18,5.1,22.17,11.46,46.4,9.31,68.24,1.06-12.62,19.52-18.8,41.46-27.22,62.39a23.15,23.15,0,0,0-1.39,11.15c2.54,19.54-14.29,24.14-25.3,33C254.54,1480.44,238,1492.67,221.65,1505.24Zm86.06-16.18-22.25,15.86c-1.37-4.93-2.35-17.55-9.41-15.66-5,2.42-1.47,7.49-.69,10.58,2.14,8.49-4.25,23.68-12.61,26.59-2.93,1-1.37-1.82-1.61-2.85-.34-1.43.36-3.28-.3-4.42-3.41-5.88-5.08-12.44-8.87-18.38-6.8-10.66,6.56-11.27,10.92-15.53,10.1-9.72,22.16-17.52,33.42-26,6,10.66-1.57,13,12.49,28C310.74,1489.38,308.33,1488.62,307.71,1489.06Zm282.54-275.82c21.06,15.82,61.35,47.56,37.67,75.66-4.31,4.76-3.54,9.33-.39,13.68,10.46,14.41,6.6,29.19-.06,43-14,26.75-44.87,27.07-64.36,5.88-4.16-2.79-7.92-8.32-12.69-9.62-.63,1.24-1.67,2.71-1.44,3.88,2.58,12.92,5.52,25.77,8.07,38.69,6.72,27-.87,94-41.84,71.31-14.85-7-20.27-3.48-20.27,13.08,0,24.24-23.15,56.52-46.22,61.78-31.61,9.31-66.84-8.3-77.9-39.89-1.65-4.57-7.35-5.6-9.22-3-7.93,11.12-17.14,6.69-26.13,3.15-10.9-4.29-23.22-7.48-26.88-20.85-12.88-40.45,12.79-81.31,29.72-117,1.6-2.71-.43-3.63-1.34-5.07-1.33-2.13-2.55-.28-3.6.54-31.21,25-112.16,7.86-83.46-43.39,8.45-16.67,21.61-15.09,8.88-34.35-12.65-36.75,16.5-73.86,49.56-86.8,6.63-2.75,8.69,4,12.12,6.46,29.58,20.17,65.78-2.47,75-34.65-3.05,27.81,8.21,50.36,31.06,61.06,13.86,3.82,11.95,15.54,12.92,24.73-11,14.63-88.79,5.09-109.48,6.62-14.59.41-29.11,1.63-43.69.08-.64-.07-1.49,1.86-2.24,2.86,12.69,8.77,29.8,3.25,44.08,5,20.51,1,41.08-.43,62.68,1.48-34.15,12.12-64.43,25.09-92.17,47.89-.82.57,0,3.47.05,5.29,1.92-.11,4.32.49,5.67-.44,13.88-9.6,27.58-19.63,43.28-26,22.39-8.68,45.06-17,67.72-24.88-.26,1.83.08,4.1-.88,5.43-13.76,18.89-25.9,39.06-43.32,55.09-2.29,2.05-13.52,15.1-3.53,12.13,18.94-14.24,33.41-34,47-53.27,8-11.33,8.75-25.39,25.43-26.56,4.47,26,9.65,37.53-7.84,60.28-25.94,44-49,89.72-82.23,128.86-1.25,1.71-5.05,5-1.77,7.32,4.45,6.56,32-36.42,37.35-41.25,5.62-5,6.21-13.45,13-17.16-3.29,18.82-6,37.94-13.44,55.73-3,7.48,6.66,5.73,7.61.27,17.23-34.3,10.46-75.89,35.07-107.14,4.94-7.12,8.88-14.94,13-22.58.82-1.51.81-4.34,2.77-3.61,1.61,44.32-5.2,91.28-8.75,136.27-1,10-3.91,19.76-5.72,29.67-.54,4.89,4.56,5.59,5.95,1.08,11-31.49,11.42-60.85,14.67-95,7.59,21.75,14.65,41.24,21,61,1.05,3.24,3.05,4.45,4.83,3.87,9.28-3.51-15.78-66.69-21.2-74.82-3.88-6.8-1.48-13.26-1.35-20,.3-15.84.09-31.69.09-49.07,26.39,31.65,46.44,64.23,67,99.09.84,1.39,2,4.41,4.91,2.07,4.41-3.57.2-7.35-1-9.58-6.27-11.94-13.51-23.36-20.39-35-13-22-25.26-44.75-44.67-62-9-10.58-4.43-24.25-7.75-36.71-2.63-8.79,2.81-9.13,8.84-6.56,16.67,7.12,33.35,14.27,49.6,22.26,2.29,1.13,2.78,7,3.17,10.72,2,19.76,8.1,38.33,16.17,56.34,3,8.13,11.69,5.26,6.35-3-5.24-14.57-12-28.73-12.37-44.69-.59-4.5-2.65-9-3.27-13.6,13.46.51,68.64,40.65,72.84,30.66,1.81-3-2.95-4.41-5.28-5.89-26.31-18.22-56.57-28-84.34-43.26,31.07-3.13,61.42,1.43,92.25,4.2,2.67.44,5.63-.28,5.59-3.28,4.54-8.9-74.39-8.33-84.34-10.64-38.15,3.37-30.26,2.1-64.69-10.66-3.41-.79-6.35-27-3.72-27.22,24.45-6.31,35.16-32.16,41.84-54.75,4.25,16.52,12.48,30,21,43.6,14.56,23.39,54.84,27.66,71.6,6.25C585.66,1210.19,587.79,1211.49,590.25,1213.24Zm59.83-34.06c-3.57,2.19-8,3-11.86,4.33-40-10.57-59.09-49.66-74.72-83.88-3.13-6.85,23-1.43,29.68-30.07.51-1.94.71-3.33,3.79-1.59C634.79,1086.05,690.14,1140,650.08,1179.18Zm66.11-136.48c12.69,23,4.67,62.65-28.65,58.16-50.5.45-79.43-53.43-106.83-88.39-6.55-9.47,3.54-15.23,3.76-23.14,0-1.32,9.44,2.45,14.07,4.53,13.05,5.85,25.86,10.85,40.63,11.9,8.86.63,15.93-4.32,23.57-3.71C675.74,1004,710.66,1029.65,716.19,1042.7Zm12.11-26.29c-16.13-2.3-29.7-10.27-43.6-17.59-6.31-3.32-14.18-5.2-10.28-16.77,9.72-29.15-25.59-26.78,15.85-31C771.64,947.67,789.15,1029.43,728.3,1016.41Z"/></g></g><g id="Red_Japanese_Frames" data-name="Red Japanese Frames"><path class="cls-8" d="M0,20V1580a20,20,0,0,0,20,20H956a20,20,0,0,0,20-20V20A20,20,0,0,0,956,0H20A20,20,0,0,0,0,20ZM924,1548H52V52H924Z"/><path class="cls-9" d="M952.1,15.41,928.69,38.83A4,4,0,0,1,925.86,40H50.14a4,4,0,0,1-2.83-1.17L23.9,15.41A2,2,0,0,1,25.31,12H950.69A2,2,0,0,1,952.1,15.41ZM40,1549.86V50.14a4,4,0,0,0-1.17-2.83L15.41,23.9A2,2,0,0,0,12,25.31V1574.69a2,2,0,0,0,3.41,1.41l23.42-23.41A4,4,0,0,0,40,1549.86ZM936,50.14V1549.86a4,4,0,0,0,1.17,2.83l23.42,23.41a2,2,0,0,0,3.41-1.41V25.31a2,2,0,0,0-3.41-1.41L937.17,47.31A4,4,0,0,0,936,50.14ZM925.86,1560H50.14a4,4,0,0,0-2.83,1.17l-20,20a4,4,0,0,0,2.83,6.83H950.69a2,2,0,0,0,1.41-3.41l-23.41-23.42A4,4,0,0,0,925.86,1560Z"/></g></svg>