<svg xmlns="http://www.w3.org/2000/svg" xmlns:xlink="http://www.w3.org/1999/xlink" viewBox="0 0 976 1600"><defs><style>.cls-1{fill:none;}.cls-2{fill:#f4f3ef;}.cls-3{clip-path:url(#clip-path);}.cls-4{fill:#50b271;}.cls-5{fill:#ffb85a;}.cls-6{fill:#d81e1e;}.cls-7{fill:#592116;}.cls-8{fill:#992d17;}</style><clipPath id="clip-path"><path class="cls-1" d="M960,22V1578a6,6,0,0,1-6,6H22a6,6,0,0,1-6-6V22a6,6,0,0,1,6-6H954A6,6,0,0,1,960,22Z"/></clipPath></defs><g id="Paper_Backing" data-name="Paper Backing"><path class="cls-2" d="M960,22V1578a6,6,0,0,1-6,6H22a6,6,0,0,1-6-6V22a6,6,0,0,1,6-6H954A6,6,0,0,1,960,22Z"/></g><g id="Wikipedia_Cropped" data-name="Wikipedia Cropped"><g class="cls-3"><path class="cls-4" d="M558.81,1262.83c-15.27-5.94,6.88-40.31,7.91-52.56,17.17-53.47,38.27-97.09,74.19-143.66,1.35-15.3,54.32-15.21,68.08-16.26,3,2.52,7.07,1.3,9.26-1.65,9.64-7.28,24.34-8.81,35.66-7.73,11.36-5.63,20.72-15.35,34.17-14.31,7-2.06,13.72-11.06,21.73-9.77,8.71-2.35,8.83-14.15,21.15-14,17.16-2.95,49.61-41,62.64-35.2,5.49,15.74,18.3,33.34,20.56,49.21-9.71,8.43-51.84-12.73-40.91,13,15.64,59.67,38.7,152,18.1,205.32-56.3-27.22-81.39-79.77-112.89-135.62-9.79-14.49-37.71,42.84-51.63,48.67C678.53,1195.56,619.21,1233,558.81,1262.83ZM620,1020.43c-57.78,0-115.67-8-169.9-28-2.66-23.29,61.62-37.4,80.17-48.65,51.53-22.91,112.9-26.69,167-35.32.3-22.52-18.65-47.9-12.06-67.51,21.63,5.27,74.13,26.38,57.89,56.07-14.85,11.55-24.1,29.52-35.54,45.67-3.53,3.55-9,8.62-10.62,14.35-2.26,11.1-16.39,11.64-16.83,21.34C669.55,1010.14,653.34,1022.17,620,1020.43Zm9.61-510.55c-20-11.59,19.46-135,34-157.35,7.78-11.74,8.64-23.58-8.72-20.1-37.18-1.83-73.3-9-109.93-14.69-60.11-7-41.71-20.69-.09-42.52C581,253.58,619.64,241,659.94,232.29c19.5-9.29-39.31-37.79-41.89-47-28.16-23.64-56.33-63.9-68.16-98.84-2.44-7,2.19-8.72,7-7.35,73.25,13.93,144,35.38,195.39,91.11a6,6,0,0,0,9.11-1.62A314.32,314.32,0,0,1,839,77.92c3.7-4.66,13.08-7.22,13.83,1.43C880.78,266.26,763.45,270.14,964,235.88c11.11-2.27,15.09,33.6.86,35.43-32.87-3.83-69.09,3.1-102,4.73-14,2.65,22.76,78.4,22.69,96.15,3.38,12.35,25.8,110.06.91,97.34C720.82,297.76,865.65,372.72,629.58,509.88Z"/><path class="cls-5" d="M292.21,1604c-29-21.28-70.44-30-100.34-53.73-14.6-5.72-36.46-30.93-50.56-24.7-18.77,27-42.16,51.18-63.77,75.66-2.84,4.41-13.51,3.57-17.22,1.34-3.91-5.23-8.31.31-12.24,1.43-5.78-.68-20.19,2.76-15-8.48-8.74-28.49,35.13-149.7-24.69-87.7-2.21,4.7-11.52,6.69-12.35.14,3.12-4-6.05-50.56,5.14-47.6,9.55,7.09,20-1.1,29.83-3.83,6.93-4.73,29.77-4.26,24.62-16.79-16.13-23.22-35.63-43-50.28-67.52-2-6.18-7.92-5.91-9.31-11.09-.84-1.15.07-26.23.77-26.25,3.27-3.2-8.91-72.17,5.81-64.58,32.14,22.83,74.49,50.22,99.53,73.4,4.9,4.23,10-1,11.11-6,12.77-56.68,48.57-123,88.2-171.59,37.34-41.14,23.42,133.89,21.16,148.7.44,8.61-9.76,34.86,6.87,30.23,30.33-7.39,61.4-11.74,93-14.82,24.44-.34,215.82,1.33,133.24,41.44-33.06,24-55.93,43.18-97.68,62.5-10.59,12.11-108.29,24.22-69.68,41.23,51.94,25.25,104,75,126.91,122.54C423.9,1612.4,294.24,1600.13,292.21,1604Zm-74-984.69c-11.38-8.6,31.5-67.26,34.08-85.06,72.18-149.66,46.79-38-159.93-103.24,55.58-44.36,117.58-74.68,189.45-99.69,8.1-15.38-38.95-60.55-49.48-75.88-13.57-20.23-35.8-32.87-52.13-49.91,5.92-22.44,74.24,4.49,89.52,10.19C404.23,274,344.3,366.36,425.86,243.51c13.54-13.13,68.59-84.44,57.67-30.21-10.64,175-93.13,158.26,70.55,159,34.45,5,46.5-14.67,42.63,27.93-9,10.22-31.81-2.47-45.23-.57-25.16-.4-52.33-9.31-81.46-2,14.24,58.75,56.48,115.78,69.7,175C497.27,566.84,444,532.07,408.9,503.6c-16.59-1.2-34.69,35.44-56.52,47.26C311.38,582.21,266.09,602.1,218.18,619.31Z"/><path class="cls-6" d="M107.76,1346.7c-41.61-12.62-8.31-141.25-52-107.09-18.45,10-36.83,18.74-55.76,27.53-7.48.67-2.72-19.65-4-23.14-1.28-125.67-.25-259,55-375.13,14.89-20.09,15.68-50.29,33.17-59.14,27.37,49.18,34.07,109.19,49.59,163.07,10.25,17.21-4.45,106.75,28.35,67,44.81-37.7,87.29-65.26,141.68-73.79,68.18-25.83-21.74,94.69-29.47,115.94C175.41,1209,242.61,1107,326.17,1269.05c-13.71,19.68-50.61,5.3-72.49,6-34.76,6.16-22.35-19.64-26-39.75-3.54-6,3.3-10.14,0-15.41-1.94-2.73-.9-6.41-.26-9.68,3.73-8.53-4.11-17.16-3-25.86-10.35-50-27.48-10.09-44.58,8.34-3.39,2.89-5.16,10.74-10.7,12.63s-2.84,7.46-5.36,11.65c-17.31,63.08-67.57-16.88-58.38,37.48C108.55,1284.32,129.68,1321.06,107.76,1346.7ZM976,1099.19c-32.47-35.39-58-81.31-79.17-124.63-1-4.9-3.35-12.54-10-9.2-123.54,87.31-260.2,114.15-236.2,70.23,25.79-47.21,59-91.77,91.32-134.24,3.69-8.92,32.53-28.2,13.13-33.8-36.29-8.38-66.4-29.45-98.24-47.06C635.52,808,608,798.16,594.16,776.66c47.6-48.51,128.05-52.22,192.59-35.39,21,6.11,5.2-24.55,9.91-35.19,1.83-30.55,5.66-61.45,13-90.93,7-14,12-84.31,34-66,52.17,54.53,60.81,130,72.33,202.47,5.32,54.89,40.9-28.18,61.27-33,5.83.19,1.42,28.94,2.74,31.82-7.45,16.22-30,27.5-33.49,45,6.5,8.78,28.75,6.87,33.49,15.11C976.7,860.94,986.92,1066.87,976,1099.19Z"/><path class="cls-7" d="M985.24,1019.76c-15.31-27.5-28.57-56.42-42-84.86C933,905.61,924.62,876.77,914.68,847c17.72,12,36,21.2,54.42,30,1.68.81,3.68,4.16,5.57.38,1.41-2.7.08-5-2.66-6.54-18.53-10.62-36.92-21.5-55.69-31.66-3.38-1.84-7.16-7.06-10.83-4.34-2.86,2.11.24,7,1.4,10.62,16.49,52.07,29.86,105.61,58.63,152.65-24.86-30.39-42.49-65.31-58.6-100.82-7.35-14.87-10.27-32.05-21.28-44.89-35.69,32.89-70.68,68.63-111,96.44,26.71-32.33,55.92-61.69,83.21-93.29,3.94-4.69,11.26-7.76,10.88-14.93-.28-5.36-6.59-4.53-10.07-5.49-58.45-15.53-114.59-28.8-172.74-47,16.68-3.52,31.32,3,47.58,4.87,22.51,3.27,45.39,5.11,67.39,10.49,128.4,20.88,59.28,27.28,45.51-118.65,10.91,38.16,23.44,74.55,40.92,110.1,8,17.66,9.59,17.77,22.4,4,20.5-26.26,43.6-50.56,65.48-75.72,3-3.15,3.16-7.35,0-9.52-3-2.37-5.68,1.47-7.52,3.48-14.13,16.06-29.43,31.25-42,48.6-10.1-41-11.15-86.38-26.39-127.1-14.23-31-23-66.59-48.46-90.74-12.59-11.25-21.92-9.88-26.11,1.31-20.07,57.49-38.52,119-31.81,180.24,3.26,11.6-5,5.52-8.52,5.15-68-13.67-133.48-14.48-188.91,32.91-4.46,3.2-10.3,7-3.45,14.81a111.74,111.74,0,0,0,19.15,17.85c12.37,8.8,26.15,15.34,39.09,23.15,11,6.62,25.32,10.26,27.15,27.89,1.43,13.68,7.13,26.95,11.29,40.29,3,9.65,5.12,18.18-10.2,15.27-20.65-1.72-40.45,4.93-60.73,7.88-29.54,4.09-57.48,13.37-85.3,23.68-14.46,5.8-124.31,46.81-75.87,61,37.95,12,76.7,23.3,116.38,25,23.37,2.19,47.11.49,70.69.56,1.94,0,5.22-.69,3.86,3.06-11,39.21-36.48,71.33-55.91,106.53-21.74,41.45-38.29,87.12-45.42,133.4-.13,1.39,1.72,3,2.83,4.42.19.23,1.39-.07,1.92-.43,12.38-8.33,26.42-13.84,39.64-20.22,27.65-14.64,54.28-30.22,78.31-50.24,6.42-6.25,16-9.15,23.11-14.82,10.19-8.09,19.35-17.48,29.14-26.08,17-15,32.36-31.39,44.11-51,6.38-13.41,11.65-13,14.7.65,4.48,16.67,15.67,29.67,24,44.07,9.42,18,80.88,110.27,97,77.54,7.89-71.71-4.23-142.51-25.12-211,12.21,3.33,26,2.32,38.28,5.16,10.27,2.48,11,14.21,15.78,21.4a545.63,545.63,0,0,0,39.78,52c1.22,1.43,2.76,4.94,5.72,2.46,2.39-1.9,2.22-4.66.26-7.27-28.75-38.21-55.31-78.2-75.22-121.84-2.05-4.38-.14-18.92-13.08-12.32-20.57,10.49-37.63,26.48-58,37.54-30.59,16.28-61.21,33.15-95.67,39.34-9.45.9-18.47,5.6-27.92,7.36-15.21,2.83-30.68,4.29-45.89,7.14-4.22.79-6.6-.62-8.29-3.23-.92-1.43-.21-4.43.61-6.37,3.11-7.39,5.7-15.2,10.06-21.82C692.63,973.73,724.74,928,760,884.83c10.23-9,11-17.63-4.16-21.21-35.53-8.22-65.64-29.25-97.07-46.63-20.47-11.26-42.11-20.68-58.53-38.11-1-1.08-4.18-1.75.27-4.3,43-28.31,68.93-41.43,121.74-37.74,24.2-.87,47.4,4.86,70.75,9.86,4.63.78,13.2.54,11.69-6.38-12.42-26.76,4.52-107.45,12.23-137.4A396.08,396.08,0,0,1,833,551.51c1-3.7,3-3.1,8.31.81C855.72,563,863.15,578.05,869.7,594c17.35,37,33.23,74.9,35.44,116.32.47,9,3.63,17.9,4.23,26.93,1.24,18.65,14.48,38.6-5,55.28-2.56,2.2-6.09,10.9-9.6.6a225.81,225.81,0,0,0-10.72-25.31c-22-44.6-27.44-95-44.17-140.8C823.58,641,851.34,779.13,866.35,798.23c1.6,3,2.31,7.58-4.11,6.71-59.12-7-117.56-22.21-177.15-23.85-7.54.17-10.27,7.88-3.36,11.62A180.45,180.45,0,0,0,703.79,801c50.79,14.26,101.93,28.53,152.45,43.39-37.84,40.13-73.52,84.45-112.51,123.88-5.49,4.22-2.46,10.83,3.8,5.13,50.55-28.28,94.84-65.89,135.21-107.15,1.64-1.6,4.07-3.43,3.88.65,6.46,25.65,20.66,48.74,32,72.63,16.48,30.05,31.47,62.26,57.36,85.54,2.61,2,5.94,6,9,4.09C988.41,1027,987.5,1023.35,985.24,1019.76Zm-183.76,3.39c16.17-8.24,13.95,8,17,14.32,15.31,32.42,26.36,66.72,37.08,100.9l-1.6.42a816.76,816.76,0,0,1-59.44-110C794.19,1028.11,798.76,1024.53,801.48,1023.15Zm-52.59,20.47c-37.41,43.78-72.54,85.63-115.42,120.46Q664.18,1124,695,1084c8.54-11,16.44-22.61,26.08-32.53C727.46,1045,737.94,1047.66,748.89,1043.62Zm-89.73,15.74c16-.27,31.64-4.68,47.31-5.93-29.15,40.69-60.41,80-89.06,121.15-2.66,3.8-6.46,8.17-4.24,13.88,4.66-2.29,10.15-3.67,13.85-7,41.55-36.72,81.46-75.16,115.93-118.75,11.48-14.13,22-29.87,43-32,5.1-.51,2.49,2.38,3.15,3.7,22.95,47.56,46.36,94.93,76.6,138.31.44.63,1.85,2.94,3.52.72s4.64-4.41,3.38-7.87c-15.48-46.63-28.24-95.07-50.19-139.2-10.91-21.06,10.38-17.58,16.53-21.94,16.5-12,34.72-22.65,51-35,6.95,15.21,13.74,30.41,20.74,45.54-9.73.11-19.47-1.88-29.22-1.88-19.14-.45-19.38.71-11.92,18.47,12,28.84,11.72,61.09,19.83,91,7.3,32.87,5.6,66.09,3.44,99.42-.14,3.17-3.41,6.12-.32,9.48-52.26-23.24-86.92-89.44-112.72-138.21-1.78-13.42-8.66-7.52-13.46,1-49,75-129.18,121.78-205.88,164.29-10.74,4.14,12.87-51.45,13.63-57.59,14.9-45.1,36.36-87.54,65.07-125.38C648.67,1066.31,643,1059.33,659.16,1059.36Zm34.12-103.88c-6.47,14.8-18.45,15.68-32.93,16-29.67,2.58-59.46,4.32-89.11,2.59,18.2-3.07,35.59-9.33,54.07-11.34,23.61-2.26,47-9.8,70.15-11.29C694.73,952.77,693.89,954.08,693.28,955.48Zm46.65-60.84c-1.3,1.69-3.92,7-5.78.33-2.88-10.37-5.21-20.88-8-32.36C739.63,870.43,746.15,886.49,739.93,894.64Zm-52.45-50.35c10.29,2.58,17.69,10.47,28,13.74,5.54,1.69,3.11,11,5.18,16.66,3.5,9.6,6.5,19.67,7.49,29.75.38,3.89-5.37,8.34-8.23,12.6-6.49,7.26-13.7,27.43-23.49,28.05-41.43,2.88-82.63,10.93-123,20-11.23,2.54-22.12,6.64-33,10.36-1.44.49-2.22,2.88-3.31,4.39,2,1,3.9,3,5.87,3,44.58,2.61,89-2.29,133.28-3.66-5.24,9.23-10.21,18.37-15.57,27.27-4.41,7.34-13.08,7.14-19.63,7.89-9.8,1.12-19.49,3.11-30.12,1.28-15.24-2.61-31.38.56-46.9-1.05-38.51-2.85-75.76-14.6-112.23-25.84,22.05-20.66,53.1-29,80.16-41.34a421.38,421.38,0,0,1,55.83-18c16.47-4.12,33.58-5.67,50.4-8.38,20-3.48,39.92-7.57,60.37-5.86,4.89.07,9.44.76,6-7C696,887.87,689.81,866.18,687.48,844.29ZM976,750.38c6.18-8.51,6.86-8.75,8.86-6.17,5.33,6.89-2.4,10.27-5.17,14-9.83,13.29-20.3,25.29-31.3,38.76,11-.67,18.92,4.67,27.36,8.42,2.45.75,2.91,3.52.25,5-2.34,1.52-5.11.37-7-.62-20.15-9.58-26.54-11.73-39.77,8.18,15.71,11.32,33,19.81,47.68,32.6,4,3.93,1.36,9.21-3.89,5.52-15.89-11.41-33.85-19.85-48.11-33.6-3.51-3.39-6.29-6.27-1.64-11.48C941,791,958.49,770.47,976,750.38ZM503,310.2c20.73,8.22,42.88,11.88,64.79,15.53,32.2,5.58,64.35,11.17,97.14,11.34,1.32.07,2.38.19,1.55,2-2.69,5.89-4.42,12.46-8.16,17.58-26.78,37.34-32.2,82.83-37.89,127.07-2.13,11.37-2.19,22.7,3.57,33.11.19.48,3.38.38,4.64-.36C638,511,647,505,656.49,499.72c54.15-31,100-75.35,135.09-126.81.73-1.11,1.51-3.28,3.53-.47,6,11.61,102,137.2,106.2,97.7,2.66-40.49-1.68-82.07-14.9-120.36-8.79-22.86-11.77-48.08-27.83-68.25,36-6.14,70.08-7.11,106-8.61,4.42-.07,11.69,1.49,11.92-4.57-.51-10.07,2.66-40.71-14.45-35.64-39,3.62-76.12,11.67-115.29,17.63,11.55-16.62,33.72-208-8.56-177.6-32,22.36-58.06,53.44-77.34,87.3-3.67,7-4.38,8.23-5.73,6.85-52.4-56.5-127.52-82.67-201.72-95.71-2.74-.62-6.41-1.89-9.1,1.63-2,2.66-1.78,5.32-.75,7.86,21.1,60.89,63.73,110.1,117.2,145.34-5.39,4.56-13,5.23-19.7,6.81-24.67,3.72-47.12,13.94-69.74,23.62-24.57,12.18-49,25.84-70.22,43.25C496,304.07,498.86,308.57,503,310.2ZM864.7,256.92c20.49-3.28,40.77-7.83,61.17-11.65,22.61-3.73,50.86-19,42.6,18.34-.46,6.24-7,2.82-10.7,2.22-42.8.76-85.56,5.6-128.27,9.3-8.81,1.83-22.89-.89-29.87,4.29-.62,1.22.31,3.75,1.29,5.2,18.3,28,36.78,57.17,46.48,89.27-22.47-27.59-42.27-58.14-66.73-84.52-8.66-9.82-12.11-6.86-17.26,3.69-19.73,36.63-38.24,74.31-66.45,105.35,6.48-17.86,20.3-32.36,27.19-49.73,7.35-19.6,18.5-38.19,19.56-59.74.69-8.41-56.56-.79-65.9-2.06-6.46,1.81-6.31-5.61,0-5.88,23.14-4.07,46.25-8.31,69.39-12.45,4.1-.73,4.23-2.64,2.29-5.83-23.08-37-52.81-69.47-85.22-98.52-.93-.79-.63-3-.91-4.57,42.18,22.3,72.93,60.29,102.21,97.08,1.25,1.51,3.4,3.18,5.14,3.18,2.65,0,3.23-2.83,4.21-5.09,13.53-30.66,27.29-61.19,38.65-92.74l1.63.45c-5.22,33.57-16.59,65.61-24.15,98.63-2.11,7.78,7.39,4.59,11.93,4.17C823.52,262.48,844.19,260.21,864.7,256.92ZM557.25,272.83c34.41-19.66,72.77-29.41,110.85-38.61,19.1-9.67-.19-13.69-3.87-16.35-47.44-33.93-91.07-76.53-110.59-132.79-1.12-3,.08-2.69,2.15-2.1,19.57,5.56,39.87,7.56,59.54,13.34,42.66,13.41,85.45,29.51,117.76,61.56,6.66,7.18,14.33,13.46,21.82,19.83,4.21,3.58,6.44-.74,7.88-3.38,21.16-37.46,49.29-72.82,84.73-97,12.28,50.06,1.59,103.63-4.71,154.13-.6,6.22-.69,14.38-4.49,17.91-4.33,4-12.5,4.15-19.09,5.51-5.06,1-10.59-1.49-15.46,1.92a2.86,2.86,0,0,1-2.76-.26c4-26.27,15.78-51.5,18.28-78.51.48-14.38,10.79-36.14,3.26-48.82-22.3,34.91-36.16,79.51-53.34,117.69C734.51,206.45,699.16,163.05,649,140.2c-7.31-2.09-21-12.23-27.57-7.93-1.94,2.4.29,4.95,2.12,6.33,18.44,13.9,36,28.72,51.55,45.89,21.49,23.75,44.69,46,62.27,73.08.89,1.37,3.49,3.15-.65,3.33-34.13,5.43-67.49,15-101.82,20-21.32,3.56-42.74,6.52-64.1,9.82-1.34.21-3.84.25-2,3,1.11,1.68,2,3.54,4.55,2.67,7.32-2.5,14.52.57,21.74.42a195.21,195.21,0,0,0,32.25-2.9c33.32,2.79,67,.25,100.64.84,8.52-.05,9.13,4,2.53,18.1-19.42,44.3-40.54,87.92-70.29,126.33-1.94,2.36-6.49,6.21-3.61,9.29,3.8,4.07,6.59-1.28,9.2-3.5,42.16-37.4,71.58-85.57,98.8-134.29,3.76-3.88,3.95-16.46,8.11-17.07,23,21.65,41.23,51,60.44,76.61,8.48,12.09,17.28,24,26.17,35.76,1.85,2.45,4.44,6.3,8,4s1.24-5.94-.14-9.2c-16.7-39.64-30.52-80.88-57.67-115,12.87-5.43,26.71-1.57,40.14-3.17,4.41-.52,7,9.11,9.19,14.67,18.21,55.08,38,113,33.34,171.45-34.89-27.45-61.13-64-87.33-99.26-8.79-10.78-11.72-9.33-20.56.85-41.09,53.87-92.77,97.27-149.46,133.59-1.45,1.46-4.87,2.5-6.62,1.8-2.9-1.17,1.12-2.46.89-4.25-1.79-14,2.5-27.39,4.27-41,2.24-17.09,5.14-34.09,10.33-50.86,8.84-26.32,21.35-50.71,33.33-75.54.67-1.36,2.45-2.84.36-4.24-1.68-1.13-3.81-2.77-5.51-2.53-21.38,3-42.27-.5-63.24-3.95-33.76-5.63-69-6.63-101-19.36C522.4,291.41,540.11,282.65,557.25,272.83ZM90.93,430.56c.2,3.55,3.07,5.55,5.52,6.23,35.64,12.37,73.07,14.93,110,20.79,7.38,1.47,14.37-3.22,21.63,1.19,17.16,4.28,37.22-1.78,55-1.93,2.48-.2,3,.84,1.59,2.93-30.7,46.8-48.48,100.76-73,150.91-1.71,3.86-1.32,8.68-1.61,13.07,0,.33,2.39,1.37,3.46,1.13,10.43-2.36,20.22-6.86,30.21-10.41,59.57-23.26,123.71-54.22,160-108.93,18.11,14.1,35.1,29,55.62,39.45,8.66,4,97,54.39,87.54,27-22.58-58.59-44.73-118.24-76.54-172.45,39.75-.9,79.73,3.75,119.51,5.44,9.67-.08,14.37-13.83,12.78-22.1-2.18-20.83-56.62-13.49-72.8-16.76-10-.89-20.29,1.27-30.21.09-14.45-3-28.19,1.24-42.65.12a3.66,3.66,0,0,1,0-1.82c5.61-9.73,7.33-20.61,9.84-31.34,7.91-27.82,14.63-55.68,18-84.44,2.05-16.4,8.87-47.71.34-61.55a5.22,5.22,0,0,0-7.35-.21c-9.06,8-18.47,15.68-27.44,23.83-28.47,25.85-51.11,56.26-69.66,89.83-.73,1.31-2,3.74-3.49,1.21-34.18-54.49-90.95-97.38-155.16-107.24-13.68-.94-27.23-5.58-40.74.37-6,2.66-14.27,5.32-5.89,13.64,41.54,34.95,75,76.55,107.43,120.42-68.13,13.85-130.82,50.69-186.21,92.32C93.69,423.5,90.68,426.13,90.93,430.56Zm396.29-55.33c35.2-.39,70.45,2.2,105.64,1.46l-.15,23.56c-60.16-8.31-120.77-10.18-181.38-9.31-14.35-.15-5.65,9.06-4,12.53a938,938,0,0,0,45.78,83.39c-27.52-22.92-46.19-54.68-62.57-86.08-3-3.94-7.87.17-8.59,4.06-13.15,44.82-33.12,81.91-69.23,114.48,27.14-37,47.8-71.94,58.24-116,3.68-14.92-7.78-14.4-15.28-11.84-9.58,3.28-18.42-.68-27.81,1-20.16,2.54-41.49,6.83-61.65,5.3,21.91-10.46,48.41-9.3,72.28-13.18,4.64-1.53,28.32-.54,23.05-9.06-11.49-18.45-19.22-39-33.18-56.17-9.65-11.87-17.19-25.44-25.6-38.3-.27-.41.15-1.28.25-1.94,23.16,18.29,40.36,45.74,58.07,69.77,5.19,7.72,10.2,15.55,15.32,23.32,2.85,4.33,5.83,4.09,8.31-.2,13.71-22.94,24.69-46.65,40.87-68.31C391.26,405.21,389.67,372.16,487.22,375.23Zm-311.43,5.23c25.46-13.42,51.77-24.54,78.43-34.86,11.52-4.46,24.42-6.12,34.21-14,8.17-6.59-2.17-10.89-4.67-14.75-24.92-37.4-51.68-75-88-102.19-4.27-3.27-9.49-6.6-12.18-11.36,75.4-6.74,149.35,45.33,189.78,106.65,1.59,2.41,2.33,8.22,7,6.88,4.16-1.19,4.89-6.26,7-9.76,24.85-42.86,54.33-81,93.84-112.14-2.59,40.11-9.79,78.22-18.26,117.25-4.68,17.91-8.81,36-14.86,53.46-.77,2.24-11.67,1-17.88,1.29-3.59-.75-21.26,3.79-16.94-3.26,10.44-32.38,24.78-63.8,31.7-97,0-5-3.94-7.89-6.4-2.27-22.47,31.28-38.58,65.81-58.48,98.9C354.22,322.36,301.85,245.89,254,236c4.19,11.26,17.78,18.52,25.08,28.24A690.55,690.55,0,0,1,350,370.19c.91,1.75,1.38,2.43-1.13,2.78-23.07,3.26-46.34,5.58-69.13,10.26a551.67,551.67,0,0,0-110.38,38c9,5.94,19.06-1.68,28.67-2.48,54.38-9.43,109.8-18.67,164.57-18.63C353.84,443.22,329.81,482,304,517.05c-7,9.28-13.64,18.8-20.32,28.31-.63.91-.33,2.48-.46,3.74,13.22-1.49,23.4-13.73,32.95-22.07,33.11-31.11,59.7-70.42,71.79-114.57,22.22,43.33,51.54,80.58,92.31,107.8,2.65,2.07,5-.41,7.48-.41-25.47-38.07-55.4-74.22-72.47-117.55-.84-2.24-.12-3.15,2.56-3.13,13.87.12,27.77-.53,41.6.21,6.25.34,6.65,8,8.73,12.22,9,18.15,16.64,37,24.8,55.54q22.54,50.4,43.44,101.49c.59,1.34,0,2.55-1.64,1.94-44.21-18.81-89.3-38.75-125.12-71.57-3.76-3.22-7.2-3.59-11.38,1.56-14.28,17.56-30.7,32.84-48.43,47.2-40.23,31-84.08,49.58-131.69,67.55,18.95-36.67,34.42-72.09,51.09-109.15,7.92-16.15,17.05-31.72,26-47.36,1.74-3,3-6.66,1.37-8.69-3.35-4.12-8.91-3.87-13.71-3.08-63.37,10-124.49-5.28-186.64-16.63C125.1,415.59,148.32,394.94,175.79,380.46ZM480.42,1343c-81.52-20.54-167.26-26.89-249-4.27-1.27.25-7.12,4.88-6.3-2.57,1.66-15.09,2.66-30.3,5.5-45.15.67-3.51-5.68-14.87,7.69-11.63,9.72,2.36,19.71,5,29.57,5,17.61-.68,73.25,7,60.92-23.44C315,1234.22,295.3,1211.8,275,1189.84c-10.11-13-22.9-22.56-36.61-31.36-6.24-4-18.1-7.76-4-17.87,46.85-46.21,76.57-108.43,100.7-169,4-10.56.54-12.59-10.23-13.07-69.22.61-130.09,41.27-177.31,89.24C148,997.19,137.4,949.22,123,901.16c-6.59-21.92-22.54-92.94-40.16-103.72-3-.55-4.59,3.77-5.95,6.81C71,817.4,65.31,830.65,59,843.58,25.32,903.25,5.54,971.33.27,1039.56c-.1,11-6.82,49.69.92,55.3,2.37,0,3.76-1.57,3.89-4.2.78-15.2.83-30.49,2.66-45.57,2.59-21.42,5.84-42.82,10-64,10.68-59.67,38.51-113.83,64.38-167.93,3.63,2.14,3.17,6.36,4.86,9.47a290.54,290.54,0,0,1,19.9,60.89c6.33,31.84,18.42,62.17,23.74,94.07,5.7,28.19,6.34,57,8.39,85.68.67,3.1,3.67,5,5.89,1.36,4.67-9.06,12.43-15.5,19.81-21.86,43.84-38.54,97.05-69.88,156.06-75.55,2.21-.51,8.05-2.33,5.58,4.15-24.67,59.49-55,119.51-100.64,165.64-11.13,10.8-23.58,20.23-32.8,33-13.25,19.79-8.52,9-36.24,6-12.85-2.29-25.91-3.37-38.89-4.85-1.12-.13-1.73,3.12-3.32.9,38.87-50.91,95.44-85.63,135.86-135.7,2-2.28,7.9-5.25,4.32-10-2.86-3.78-6.89-1.56-10.14.55-50.95,32.83-101.51,66.9-146.64,107.61-11.78-79.3-8.34-160.1-15-239.93-.06-8.22-10.64-10.78-11.85-1.35-2.28,14.85-4.91,29.71-6,44.67-4.06,68.15-7.46,136.81-.51,204.89-.08,1.93-1.15,6.54-4,5.87-14.2-8.52-31-9.33-46-15.28-4.92-1.94-12.48-.88-14.59,2.59-2.78,5.53,4.77,6.44,9.14,7.5,16,3.6,32.21,6.78,47.8,11.78,14.5,4.65,14.81-1.8,14.34-13.27-2.71-78.46-6.75-158,4.59-235.82,3.34,79.69,4.87,160.35,13.13,240.06-2,10.94,4.64,7.22,9.94,1.39,36.72-38.91,83.78-67.81,127.3-98.89-8,11.5-17.27,21.78-28.16,29.87-35.7,27.92-70.06,58-96.84,94.8-4.64,6.45-1,9.46,3.78,9.24,24.39-1.07,48.12,5.15,73.62,5.94-6.2,3.6-6.83,14.23-13.25,13-17.77-3.3-35.49-2.77-53.25-2.52-9.28.13-17.63,2.12-15.39,15.39a773.77,773.77,0,0,0,11.84,77.75c.84,7.67,7,13.75,6,21.07-1.25,9.79-4.43,19.35-6.87,29.37-5.72-7.24-13.91-11-15.94-23.47-5.12-31.35-8.45-62.79-12.08-94.28-.85-7.35,3.09-24.46-16.52-16.19-21.14,9-43.52,15.27-63.22,27.42-3.25,3.1-3.64,10.06,2.87,7.28,21.94-9.12,43.26-20.16,66-27,2.32,18-7.85,13.42-20.17,22.63-15.79,7.82-31.73,15.34-47.43,23.33-4.63,2.35-7.88,5.47-1.41,10.84,34.22,24.61,70.16,46.64,101.51,75.12,3.5,3.07,5.93,10.07,11,8.17,4.77-1.78,2-8.46,2.74-13,8.33-30.64,18.36-60.55,33.91-88.51,15.31-30.79,33.42-60,55.49-86.43,6.75-8.42,7-8.21,8.46-5.15,7.42,15.1,9.5,31.53,9.67,47.84a952.77,952.77,0,0,1-6.27,124.92c-.15,4.87-8.54,17.42,7.69,14.56,81.4-21.95,169.61-23.2,250.64,1-36.88,29.39-75.46,58.79-118.46,78.83-16.77,8.06-34.71,13.72-52.23,20.16-10.7,5-26.51,3.57-34.81,12.19a5.46,5.46,0,0,0,2,7.38c15.43,9,31.36,17.16,46.25,27,40,25,72.25,61,94.34,102.71,2,2.81,4.66-2.53,3.78-4.51-25.62-59.38-78.29-100.77-135.56-130.11,47.27-10.55,90.28-26.53,130.27-52.77,24.78-16.2,48-34.76,71.88-52.35C490.49,1355.08,493.5,1344.28,480.42,1343ZM80.87,1319.59c-89.12-74.94-99.17-28.9-10.19-82C73.13,1265.11,79.24,1292,80.87,1319.59Zm55.88-61.68c-4.28,10.81-9.45,21.27-14.55,32.45-1.78-7.44-22.1-59.54-3.67-49.07,7,3,14.91,4.21,21.27,8.11C144.67,1252.38,137.88,1255.06,136.75,1257.91Zm23.46-42.82c-3.77,7.29-7.51,14.63-11.84,21.59-3.6,5.78-9.31,1.94-13.52,1.13-7-1.35-13.57-4.77-20.43-7-8.16-2.6-4.5-10.53-8.3-15.65,3.27-8.88,11.47-5,16.47-5.67,11.29-1.45,22.9-.5,34.38-.45C161.54,1209.11,161.87,1211.9,160.21,1215.09Zm57.61-59.26c46.86,29.11,80.9,66.94,104.77,115-14.52,3.71-29.36,5.54-44.83,2.9-9.86-1.68-20.11-3.37-29.94-2.44-15.26,1.43-18.26-5.09-15.59-18.19,5-12.43-8.77-28.87,5.19-25.95,11.91,3.19,24.35,4.55,35.25,11.18,7.49,4,15.34-1.48,5.64-7.35-11.61-13.37-27.76-20-42.75-28.22-7.95-4.38-6-12.47-7.23-19.15C226.62,1174.35,222,1166.18,217.82,1155.83Zm13.5,54.9c.51-4,2.31,0,3,.34,6.56,3.41,13,7.11,19.43,10.74-7-1.07-13.57-3-20.73-3.23C228.89,1218.45,231,1213.25,231.32,1210.73Zm125.13,379.18c5.12,8.58-5.63,10.15-11.25,6.18-66.27-47.55-133.51-94-204.77-133.78-6.8-4.27-9.92-2.87-11.61.17-15.37,37.5-35.74,72.92-51.77,110.43-6.69,10.85-11.23,39.46-29,27.09-3.92-3.18-4.56-8-2.33-12.59,7.4-15.28,8.56-32.31,15.11-47.76,5.93-14,11.52-28.08,16.67-42.34,3.06-8.47,6.11-16.85,10.92-24.51.21-.34,0-1.4-.3-1.5-13.11,3.35-26.59,9.15-38.66,15.3-5.51,3.11-4.52,12.31-5.27,18.79-3.49,30.11-8.63,60.12-7.16,90.62a6.06,6.06,0,0,1-5.83,6.75c-4.13,0-2.49-4.25-2.42-6.56-.29-34.16,4.41-67.94,7.85-101.69-10.14,3.6-19.3,9.88-28.88,14.81-1.77,1-2.92,2.13-4.3-.1-1.31-1.83.64-2.82,1.81-4,13.07-15.48,31.84-21.62,49.08-30.44,6.06-2.55,40.95-19.23,43.59-14.06.82,1,.69,3.39.15,4.86-4.93,13.36-10.32,26.55-15,40-5,14.35-8,29.53-14.42,43.2-5.53,11.85-6.55,25-12.61,36.48-.53,1,.87,3,2.08,6.71,20.55-46.3,42.37-87.9,65.44-132.21,3.4-7.27,7.33-16.09,16.31-9.64,70.61,43.09,141.44,85.46,205.81,137.65-5.11-11-14.67-18.25-23-26-41.27-35.44-81.71-72.19-125.91-104.09-5.92-4.25-12.48-7.61-18.38-11.87-3.52-2.54-9.64-4-8.28-9.92,1.33-5.77,7.86-5.31,12-6.62,39.46-12,79.11-23.73,119.86-30.58,6.72-.88,13.13-4.23,19.42-8.23-50.88,7.12-102.48,11.9-151.59,27.63-6.17,1.8-6.77-.92-5.81-5.27,11.19-49.11,23.6-98,24.92-148.72-15.57,41.36-30.64,82.89-44.17,124.93-4.09,10.63-5.93,21.69-9.16,32.44-2.11,7-5.86,2.93-7.84,1-24.75-24.36-52.47-44.78-81.5-63.73-11.59-7.56-24.53-13.72-33.58-24.89-3.09.51-4.24,2.59-1.22,4.43,28.84,29.24,57.82,58.13,86.66,87.39,13.28,10.31,3.91,13.52-5.13,15-26.95,6.83-52.72,17-78.85,26.17-4.5,1.28-9.75,1.82-13-2.43,14.42-9.65,32.6-13.3,48.56-20.26,7.42-2.72,1.67-6,0-7.54-20.6-18.73-35.44-41.8-49.73-65.33-2.63-3.43-6.2-7.16-2.73-9.41,5.08-3,9,4.46,11.48,8.35,14.62,24.51,34.76,44.87,50.82,68.3,4.74,6.93,9.7-3.83,15.51-2,2.17.69,5.3-1,7.8-2.06,21.13-8.9,3-12.22-4.08-16.19-6.51-10.72-16.79-19.18-25.86-28.3-13.65-13.73-27.79-27-41-41.12-7.68-6.29-18.48-14.06-10.76-25.09,2.19-.58,3.88-3.44,6.85-1.44,42.53,28,85.8,56.25,121.8,92.27,15.78-57.51,36.71-112.59,57.14-168.45a26.44,26.44,0,0,1,4.75-8.66c.83-.92.19-4.5,3.21-3,10.27,2.62.05,60-1.44,70.63-3.29,16.82-5.08,34-8.62,50.72-2.6,16.38-10.92,31.9-11.57,48.51,70.23-16,141.56-25.74,213.67-27.38,1.84-.17,4-.29,4.22,2.25.17,2.3-1.43,3.51-3.67,3.84-27.54,4.08-52.83,15.89-79.46,23-26.95,6.64-54.16,12.17-80.46,21.28-13,4.69-27.33,6.59-38.85,14.54,24.65,17.42,49.85,33.85,71.75,54.92C294.37,1526,328.64,1554.65,356.45,1589.91Zm-61.7,8.66c-18.68,12.31-127.06-57-148.32-71-1.54-1-2.28-.23-3.41,1.31C123,1554.6,106.69,1585.83,78.17,1603c-1.55.66-3,2.26-4.75,0-1-1.33-.79-2.16-.18-2.94,15.52-17.26,31.08-34.52,46.18-52.15,7.92-7,17.8-29.83,27.26-30,28.26,16.21,55,35.3,83.61,50.78C250.7,1580.44,275.34,1585.49,294.75,1598.57ZM7.25,1208.17c15.15-9.85,30.56-19.39,48-26.07-7.41-3.12-14.31-8.15-21.48-8.55-11.06-.63-19.38-8.54-30.17-9-6.27-3.48-1.46-9.69,4.67-7.3,17.32,6.48,34.57,13.16,51.92,19.55,11.79,2.13,6.4,8.48-1,12-18.21,7.29-34.48,18-51.08,28.13-2.82,1.72-6.33,3.18-7.73-.2C-2,1212,4.28,1209.73,7.25,1208.17Z"/></g></g><g id="Red_Japanese_Frames" data-name="Red Japanese Frames"><path class="cls-7" d="M0,20V1580a20,20,0,0,0,20,20H956a20,20,0,0,0,20-20V20A20,20,0,0,0,956,0H20A20,20,0,0,0,0,20ZM924,1548H52V52H924Z"/><path class="cls-8" d="M952.1,15.41,928.69,38.83A4,4,0,0,1,925.86,40H50.14a4,4,0,0,1-2.83-1.17L23.9,15.41A2,2,0,0,1,25.31,12H950.69A2,2,0,0,1,952.1,15.41ZM40,1549.86V50.14a4,4,0,0,0-1.17-2.83L15.41,23.9A2,2,0,0,0,12,25.31V1574.69a2,2,0,0,0,3.41,1.41l23.42-23.41A4,4,0,0,0,40,1549.86ZM936,50.14V1549.86a4,4,0,0,0,1.17,2.83l23.42,23.41a2,2,0,0,0,3.41-1.41V25.31a2,2,0,0,0-3.41-1.41L937.17,47.31A4,4,0,0,0,936,50.14ZM925.86,1560H50.14a4,4,0,0,0-2.83,1.17l-20,20a4,4,0,0,0,2.83,6.83H950.69a2,2,0,0,0,1.41-3.41l-23.41-23.42A4,4,0,0,0,925.86,1560Z"/></g></svg>