<?xml version="1.0" encoding="UTF-8" standalone="no"?><!DOCTYPE svg PUBLIC "-//W3C//DTD SVG 1.1//EN" "http://www.w3.org/Graphics/SVG/1.1/DTD/svg11.dtd"><svg width="100%" height="100%" viewBox="0 0 372 587" version="1.1" xmlns="http://www.w3.org/2000/svg" xmlns:xlink="http://www.w3.org/1999/xlink" xml:space="preserve" xmlns:serif="http://www.serif.com/" style="fill-rule:evenodd;clip-rule:evenodd;stroke-miterlimit:100;"><g><clipPath id="_clip1"><rect x="2.939" y="52.96" width="366.979" height="533.144"/></clipPath><g clip-path="url(#_clip1)"><path d="M161.876,590.309c1.321,1.314 2.642,1.972 3.299,0.657c60.048,-25.079 111.513,-65.325 154.402,-120.09c21.116,-27.714 36.948,-52.786 46.188,-75.88c0.657,-1.979 0,-3.3 -1.321,-3.3c-1.32,-0.663 -1.978,-0.663 -3.299,0.664c-9.897,23.094 -25.072,48.159 -46.188,75.217c-42.225,54.106 -92.376,93.696 -151.096,119.433c-1.985,0 -2.642,1.314 -1.985,3.299Z" style="fill-rule:nonzero;"/><path d="M330.132,424.688c-1.314,0 -2.635,0.664 -2.635,2.636l-0.664,24.422c0,1.972 1.321,2.635 2.642,2.635c1.979,0 3.3,-0.663 3.3,-2.635l0,-24.422c-0.001,-1.972 -0.658,-2.636 -2.643,-2.636Z" style="fill-rule:nonzero;"/><path d="M329.475,389.062c-3.299,0 -5.94,1.314 -6.598,2.635c-2.643,2.636 -3.3,7.262 -3.3,13.86c0,5.935 1.979,11.869 5.277,15.832l5.277,5.935l5.284,-5.935c3.299,-3.963 4.613,-9.897 4.613,-16.495c0,-6.599 -0.657,-10.562 -3.299,-13.197c-0.656,-1.978 -3.297,-2.635 -7.254,-2.635Z" style="fill:#d96038;fill-rule:nonzero;"/><path d="M329.475,386.419c-3.956,0 -7.255,1.979 -9.24,3.957c-1.978,2.642 -3.956,7.919 -3.956,15.181c0.657,10.555 4.62,19.131 12.539,23.751l2.636,0c7.919,-4.62 11.219,-13.196 11.219,-24.414c0,-6.599 -0.657,-11.876 -3.3,-15.175c-1.978,-1.986 -5.278,-3.3 -9.898,-3.3Zm0,5.277c3.3,0 5.277,0.664 5.941,1.979c1.314,1.321 2.636,5.283 2.636,11.219l0,0.663c0,6.599 -2.636,13.196 -7.92,18.468c-5.277,-5.271 -7.912,-11.212 -7.912,-18.468l0,-0.663c0,-5.936 0.657,-9.897 1.978,-11.219l5.277,-1.979Z" style="fill-rule:nonzero;"/><path d="M301.761,462.3c-1.979,0 -2.636,1.314 -2.636,2.642l-1.984,25.065c0,1.327 1.321,2.642 2.642,2.642c1.979,0 2.643,-0.657 2.643,-1.978l1.314,-25.729c-0.001,-1.328 -0.658,-2.642 -1.979,-2.642Z" style="fill-rule:nonzero;"/><path d="M303.082,427.323c-3.957,0 -6.599,0.664 -7.92,1.984c-1.978,2.643 -3.299,7.256 -3.299,13.854c-0.657,5.94 1.321,11.882 4.62,16.495l5.277,5.284l4.62,-4.627c3.956,-4.613 5.941,-9.897 6.599,-15.832c0,-7.262 -0.657,-11.875 -3.3,-13.86c-0.657,-1.971 -3.298,-2.634 -6.597,-3.298Z" style="fill:#d96038;fill-rule:nonzero;"/><path d="M312.322,428.65c-1.985,-2.642 -5.284,-3.963 -9.24,-3.963c-4.62,0 -7.256,0.664 -9.897,3.3c-2.642,3.299 -3.957,7.919 -3.957,15.175c-0.663,7.255 1.315,12.539 4.614,17.816l5.94,6.599l3.3,0c7.255,-5.277 11.875,-12.533 12.539,-23.095c0,-7.261 -0.664,-13.196 -3.299,-15.832Zm-9.24,1.315c2.642,0.657 3.956,0.657 5.277,1.321c1.32,1.979 1.32,5.277 1.32,9.897l0,2.636c0,7.262 -2.642,13.86 -7.919,17.823c-5.277,-3.963 -7.919,-9.897 -7.919,-17.16l0,-1.32c0.663,-5.941 1.984,-9.897 3.299,-11.876l5.942,-1.321Z" style="fill-rule:nonzero;"/><path d="M276.688,488.692c-0.657,-1.321 -1.32,-1.984 -3.299,-1.984c-1.979,0 -2.642,0.663 -2.642,3.299l3.299,24.422c0,1.972 1.321,1.972 3.299,1.972l2.643,-2.636l-3.3,-25.073Z" style="fill-rule:nonzero;"/><path d="M268.112,451.745c-3.299,0.657 -5.277,1.972 -7.262,3.299c-1.314,2.636 -1.314,7.256 -0.657,14.511c0.657,5.941 3.299,11.219 7.255,15.182l5.941,4.613l4.62,-5.94c2.636,-5.271 3.956,-10.555 2.636,-16.496c-0.657,-7.256 -2.636,-11.869 -4.614,-13.196c-1.984,-1.973 -4.62,-2.637 -7.919,-1.973Z" style="fill:#d96038;fill-rule:nonzero;"/><path d="M257.551,470.212c1.321,6.599 3.3,11.882 8.583,16.496l6.599,4.626l2.636,0l4.62,-6.598c3.299,-5.941 3.956,-11.882 3.299,-19.138c-0.657,-6.599 -3.299,-11.219 -5.941,-14.518c-1.978,-1.979 -5.277,-2.636 -9.897,-1.979c-3.956,1.314 -7.255,2.643 -8.576,5.277c-1.98,3.302 -1.98,7.922 -1.323,15.834Zm6.598,-13.854c1.321,-1.314 2.642,-1.314 4.62,-1.979l5.277,0.664c1.984,1.972 3.299,5.935 4.62,11.869l0,3.963c0,5.935 -1.979,10.561 -5.277,15.175c-6.599,-4.614 -9.897,-9.897 -10.555,-17.153l-0.664,-6.598c0.001,-2.642 0.665,-4.619 1.979,-5.941Z" style="fill-rule:nonzero;"/><path d="M352.569,450.417c-1.321,-1.972 -1.979,-2.635 -3.3,-1.972l-24.415,6.599c-1.978,0.657 -2.635,1.972 -1.978,3.299c0.657,1.972 1.978,2.636 3.299,2.636l24.415,-7.262c1.322,-0.657 1.979,-1.972 1.979,-3.3Z" style="fill-rule:nonzero;"/><path d="M385.561,439.205c-1.321,-3.299 -2.643,-4.62 -4.62,-5.94l-13.854,1.32c-5.94,1.321 -10.561,4.62 -14.517,9.897l-3.3,6.599l6.599,3.299c5.94,1.979 11.876,1.979 17.816,0c5.935,-1.978 10.555,-3.963 11.876,-7.262c1.32,-1.972 1.32,-4.613 0,-7.913Z" style="fill:#d96038;fill-rule:nonzero;"/><path d="M387.538,438.548c-0.657,-3.963 -3.299,-6.598 -5.935,-7.262l-15.838,0.664c-5.941,1.972 -11.219,5.935 -14.518,10.555c-1.979,2.642 -3.299,5.277 -4.62,7.912l1.321,1.985l7.262,4.613l19.131,0c6.599,-2.636 11.219,-5.271 13.196,-8.57c1.321,-2.642 1.979,-5.94 0.664,-9.897l-0.663,0Zm-4.62,1.972l0.664,3.3c0,3.299 -3.299,5.283 -11.219,7.926c-7.919,2.635 -14.517,1.972 -19.794,-1.985c3.299,-5.94 8.576,-10.555 15.175,-12.539l11.875,-1.972c1.321,0.656 2.642,2.635 3.299,5.27Z" style="fill-rule:nonzero;"/><path d="M322.877,486.708c-1.321,-1.972 -2.643,-2.636 -3.3,-1.972l-24.415,7.255c-1.978,0 -2.635,1.979 -1.978,3.3c0.657,1.978 1.978,2.642 3.299,1.978l23.751,-7.262c1.986,0 2.643,-1.972 2.643,-3.299Z" style="fill-rule:nonzero;"/><path d="M355.868,476.153c-1.321,-3.299 -2.642,-5.277 -4.62,-5.941l-14.518,0.664c-5.277,1.979 -10.555,5.277 -13.854,9.897l-3.3,6.598l6.599,3.3l17.153,0c6.598,-1.979 11.218,-3.963 12.539,-6.599c1.322,-1.978 1.322,-4.62 0.001,-7.919Z" style="fill:#d96038;fill-rule:nonzero;"/><path d="M357.847,485.394c1.32,-2.643 1.32,-5.941 0,-10.555c-0.657,-3.963 -3.3,-6.599 -5.935,-7.262l-15.839,0.663c-5.941,2.636 -11.219,5.935 -14.518,11.212c-1.979,2.642 -3.299,4.62 -4.62,7.256c0,0.663 0,1.984 1.321,2.642l7.262,3.956c6.599,1.985 12.533,1.985 19.131,0c6.599,-2.635 11.219,-5.271 13.198,-7.912Zm-19.795,-11.882l11.875,-1.314l3.3,4.613l0.663,3.299c0,3.3 -3.299,5.941 -11.218,7.926c-7.256,2.636 -13.854,2.636 -19.795,-1.327c2.642,-6.6 7.255,-11.213 15.175,-13.197Z" style="fill-rule:nonzero;"/><path d="M299.782,517.728c0,-1.327 -0.657,-2.642 -2.642,-2.642l-25.072,1.314c-1.978,0 -2.635,0.663 -2.635,1.984c0,1.979 0.657,2.642 3.299,2.642l24.408,0c1.985,0 2.642,-1.327 2.642,-3.298Z" style="fill-rule:nonzero;"/><path d="M334.752,516.4c0,-3.3 -1.32,-5.935 -2.635,-7.256c-2.643,-1.979 -6.599,-2.642 -13.86,-2.642c-5.935,0 -11.876,1.984 -15.832,5.94l-5.284,5.284l5.284,5.271c4.613,3.3 10.555,4.627 16.495,4.627l13.854,-3.299c1.978,-1.984 2.642,-4.626 1.978,-7.925Z" style="fill:#d96038;fill-rule:nonzero;"/><path d="M333.432,506.503c-3.3,-1.972 -7.913,-3.3 -15.175,-2.636c-6.599,0.664 -12.533,2.636 -17.817,6.599l-5.277,5.935l0,3.299l5.941,5.284c5.277,3.956 11.219,5.94 18.474,5.277c6.599,-0.664 11.876,-1.979 15.175,-3.963c1.979,-1.972 3.3,-5.271 2.643,-9.897c-0.666,-4.615 -1.323,-7.914 -3.964,-9.898Zm-3.3,15.838c-1.978,1.985 -5.277,1.985 -11.212,2.643c-7.919,0 -13.86,-1.985 -18.48,-7.256c3.963,-5.284 9.897,-7.926 17.817,-8.583l11.875,1.984c1.321,0.657 1.985,2.636 1.985,5.271l0,1.327l-1.985,4.614Z" style="fill-rule:nonzero;"/><path d="M245.019,481.437l-7.92,-7.262l-8.576,7.262c-5.277,5.935 -7.919,13.197 -8.576,20.452c0,7.913 2.635,14.512 7.912,19.795l8.583,6.599l7.913,-6.599c5.941,-5.283 8.583,-11.882 8.583,-18.48c0.657,-7.913 -2.642,-15.169 -7.919,-21.767Z" style="fill:#858585;fill-rule:nonzero;"/><path d="M235.778,471.539l-9.234,8.57c-5.94,6.599 -9.239,13.86 -9.239,21.779c0,7.913 2.642,15.175 8.576,21.109l8.576,7.926c1.321,0.657 1.984,0.657 2.642,0l9.24,-7.262c5.935,-5.935 9.234,-12.533 9.234,-20.459c0.663,-8.569 -1.979,-15.832 -7.92,-22.43l-9.233,-9.234l-2.642,0l0,0.001Zm14.518,30.35l0,0.657c0,10.555 -4.62,17.817 -13.854,22.438c-9.24,-5.284 -13.86,-13.197 -13.86,-22.438l0,-0.657c0.664,-9.24 4.62,-17.816 14.518,-24.414c9.239,6.597 13.196,15.173 13.196,24.414Z" style="fill-rule:nonzero;"/><path d="M236.441,525.641c-1.984,0 -2.642,0.657 -2.642,2.642l-1.321,21.109c0,1.327 0.664,1.984 1.979,2.642l2.642,-2.642l1.979,-21.109c-0.001,-1.322 -1.322,-1.985 -2.637,-2.642Z" style="fill-rule:nonzero;"/><path d="M209.385,516.4l-5.935,-9.234l-9.897,5.277c-7.262,5.284 -11.882,11.219 -13.196,18.48c-1.985,6.599 -0.664,13.854 3.299,20.452l6.598,8.576l9.233,-3.962c6.599,-4.614 11.219,-9.897 12.54,-17.811c1.978,-6.597 0.658,-13.852 -2.642,-21.778Z" style="fill:#858585;fill-rule:nonzero;"/><path d="M212.027,515.743l-7.263,-10.555l-2.635,-0.657l-10.562,5.935c-7.255,5.935 -11.875,11.875 -13.854,19.131c-1.978,7.926 -0.657,15.182 3.299,23.094l7.256,9.24l2.642,0.657c3.299,-1.314 6.599,-2.636 9.897,-5.271c7.256,-4.627 11.876,-10.562 13.854,-17.823c1.985,-7.913 1.322,-15.832 -2.634,-23.751Zm-1.321,15.838l-0.657,5.941c-2.642,9.897 -9.24,16.495 -19.138,19.795c-5.941,-5.941 -9.24,-12.539 -9.24,-19.795l1.321,-6.599c1.979,-9.24 8.577,-16.495 19.795,-21.122c4.62,7.262 7.919,14.525 7.919,21.78Z" style="fill-rule:nonzero;"/><path d="M190.911,557.317c-1.979,0 -3.299,0 -3.299,1.972l-6.599,19.795c0,1.327 0.657,3.299 2.642,3.299c1.314,1.327 2.635,0 3.299,-1.972l5.935,-19.795c0.001,-1.327 -0.657,-3.299 -1.978,-3.299Z" style="fill-rule:nonzero;"/><path d="M252.273,555.99l6.599,8.582c5.277,5.941 11.876,7.913 19.795,7.913c7.262,0 13.86,-1.972 20.458,-7.913l7.256,-8.582l-7.256,-7.913c-6.598,-5.284 -13.196,-8.583 -21.115,-8.583c-7.262,0 -13.86,3.299 -19.138,8.583c-3.299,2.642 -5.277,5.941 -6.599,7.913Z" style="fill:#858585;fill-rule:nonzero;"/><path d="M250.296,557.317l6.598,9.897c6.599,5.271 13.197,8.569 21.773,8.569c7.919,0 14.518,-3.299 21.772,-8.569l8.583,-9.897l0,-2.643l-8.583,-8.582c-7.255,-5.935 -14.511,-8.57 -22.43,-8.57c-7.919,0 -14.518,2.636 -21.116,8.57c-3.299,3.299 -5.94,6.598 -6.598,9.239l0,1.986l0.001,0Zm52.786,-1.327c-7.256,9.896 -15.839,14.523 -24.415,14.523c-9.233,0 -17.153,-4.627 -23.094,-14.523c4.62,-8.57 11.875,-13.197 22.437,-13.197c10.554,0 18.473,4.627 25.072,13.197Z" style="fill-rule:nonzero;"/><path d="M225.881,552.69c-1.979,0 -2.636,1.327 -2.636,3.3c0,1.327 0.657,1.984 2.636,1.984l26.393,1.314c1.321,0 2.643,-1.314 2.643,-2.636c0,-1.979 -1.321,-2.636 -2.643,-2.636l-26.393,-1.326Z" style="fill-rule:nonzero;"/><path d="M293.185,247.855c0,-1.321 -1.321,-2.642 -3.3,-1.321c-1.32,0 -1.32,1.321 -1.32,2.636l2.642,13.86c1.321,11.876 1.321,23.094 0,34.313c-4.62,36.29 -21.772,65.325 -52.129,87.756l-34.97,24.414c-45.53,31.671 -77.858,58.064 -96.332,78.522c-32.334,34.963 -52.786,74.553 -61.369,118.77c-0.657,1.972 0,3.299 1.985,3.299l3.299,-1.984c7.913,-44.204 28.372,-83.136 59.385,-116.785c19.131,-19.795 50.801,-45.53 96.333,-77.207l34.969,-25.065c31.014,-23.095 49.487,-53.45 54.107,-91.062c1.321,-11.876 1.321,-23.752 0,-34.97l-3.3,-15.176Z" style="fill-rule:nonzero;"/><path d="M293.185,212.879c-1.979,-1.314 -3.957,-1.972 -7.919,-1.314c-3.3,0 -5.277,1.978 -6.599,3.299c-1.979,2.642 -1.979,7.256 -1.321,13.854c1.321,6.598 3.3,11.218 7.92,15.838l5.94,3.957l4.62,-5.941c2.636,-4.614 3.299,-10.555 2.636,-17.153c-1.321,-6.599 -3.3,-10.555 -5.277,-12.54Z" style="fill:#d96038;fill-rule:nonzero;"/><path d="M284.608,208.923c-3.963,0 -6.599,1.985 -7.92,4.62c-1.978,1.321 -2.642,4.62 -2.642,8.577l0.664,7.255c1.32,7.262 3.956,12.54 8.576,17.159l6.598,4.62l3.3,-0.657c6.598,-5.941 9.24,-14.524 7.255,-25.079c-0.657,-7.255 -3.299,-13.196 -6.598,-15.175c-1.978,-1.977 -5.277,-1.977 -9.233,-1.32Zm-3.962,7.256l5.283,-2.636l4.614,1.321c2.642,0.657 3.962,5.277 5.283,11.212l0,3.963c0,6.599 -1.984,11.218 -5.283,15.175c-5.277,-3.299 -9.234,-8.576 -10.555,-16.496l-0.657,-6.598l1.315,-5.941Z" style="fill-rule:nonzero;"/><path d="M309.022,269.629c-1.984,-0.664 -2.642,0 -3.299,1.32l-13.196,21.109c-1.321,0.664 -0.664,1.984 0.657,3.963c1.32,0.664 2.642,0 3.299,-1.321l13.196,-21.108c1.322,-1.986 0.658,-2.643 -0.657,-3.963Z" style="fill-rule:nonzero;"/><path d="M326.833,239.936c-3.299,-1.978 -5.277,-1.978 -7.256,-1.978c-3.299,1.314 -6.598,5.277 -9.897,10.555c-3.299,5.284 -3.956,11.218 -3.956,16.495l1.979,7.256l7.255,-1.314c5.277,-2.642 9.897,-6.598 12.54,-11.882c3.956,-5.935 5.277,-10.555 4.62,-13.197c-0.001,-2.636 -2.643,-4.614 -5.285,-5.935Z" style="fill:#d96038;fill-rule:nonzero;"/><path d="M328.817,237.958c-3.963,-2.642 -7.262,-3.299 -9.897,-1.985c-3.963,0.664 -7.262,4.626 -11.882,10.561c-5.277,9.897 -5.935,18.474 -1.314,26.394l1.979,1.979c9.233,-0.658 16.495,-5.277 21.772,-14.512c3.957,-5.941 5.941,-11.225 5.277,-15.181c0,-2.642 -2.635,-5.278 -5.935,-7.256Zm0.658,9.24c0,2.635 -1.32,5.935 -3.956,10.555c-3.299,6.599 -9.24,9.897 -15.839,11.876c-0.657,-1.979 -1.32,-3.963 -1.32,-7.263c0,-4.613 1.32,-9.233 3.963,-12.533c2.635,-5.277 5.277,-8.577 7.255,-8.577l5.941,0.658c2.635,1.321 3.956,2.642 3.956,5.284Z" style="fill-rule:nonzero;"/><path d="M306.381,315.152l-3.956,0l-19.138,15.839c-1.321,1.321 -1.321,2.642 -0.657,3.956l3.956,0l19.138,-15.832c0.657,-0.663 1.314,-2.635 0.657,-3.963Z" style="fill-rule:nonzero;"/><path d="M332.774,292.723c-2.643,-3.3 -4.62,-3.963 -6.599,-3.963c-3.299,0 -7.919,1.984 -13.196,6.598c-4.62,3.963 -7.256,8.583 -9.24,13.86l0,7.263c7.919,2.635 15.838,0.657 23.094,-5.941c5.284,-3.956 8.583,-7.919 8.583,-11.219c0.657,-1.978 -0.664,-3.964 -2.642,-6.598Z" style="fill:#d96038;fill-rule:nonzero;"/><path d="M301.761,309.218l-0.657,7.92l1.979,1.978c9.24,3.3 17.152,0.664 25.735,-6.598c5.935,-4.62 8.577,-8.577 9.234,-12.533c0.663,-2.642 -0.657,-5.941 -3.3,-9.897c-3.299,-3.3 -5.935,-4.626 -9.233,-3.963c-3.299,0 -8.583,1.979 -13.86,6.599c-5.277,4.62 -8.577,9.896 -9.898,16.494Zm23.758,-18.474c1.314,0 3.299,1.314 4.613,3.299l2.643,4.614c0,1.984 -2.643,5.94 -7.256,10.561c-5.941,3.963 -11.882,6.599 -19.138,5.935c0,-7.255 3.299,-13.196 8.576,-18.467c4.62,-3.963 7.92,-5.942 10.562,-5.942Z" style="fill-rule:nonzero;"/><path d="M262.171,365.967c0,2.636 1.321,2.636 3.3,1.972l23.757,-6.598c1.315,-0.657 2.636,-1.972 1.315,-3.3c0,-1.972 -1.315,-2.635 -3.3,-1.972l-23.751,6.599c-1.321,0.657 -1.978,1.972 -1.321,3.299Z" style="fill-rule:nonzero;"/><path d="M305.724,342.209c-5.941,1.321 -10.562,4.62 -13.86,9.897c-1.979,2.636 -2.636,4.62 -3.299,6.599l6.598,3.299l17.16,0c6.598,-1.978 10.555,-3.963 11.875,-6.598c1.321,-1.979 1.321,-4.62 0.657,-7.92c-1.32,-3.299 -2.635,-5.277 -5.277,-5.94l-13.854,0.663Z" style="fill:#d96038;fill-rule:nonzero;"/><path d="M326.176,356.727c1.979,-2.642 1.979,-5.94 0.657,-9.897c-1.314,-4.62 -3.299,-7.255 -6.599,-7.919l-15.175,0.664c-6.598,1.972 -11.875,5.935 -15.175,10.555c-2.642,3.956 -3.956,5.94 -3.956,7.912c0,0.664 0,1.328 0.657,2.643l7.256,3.956c5.94,1.984 12.539,1.984 19.138,0c6.598,-2.637 11.218,-5.272 13.197,-7.914Zm-7.256,-13.197c0.657,0 1.979,1.979 3.3,4.613l0.657,3.3c0,3.299 -3.957,5.94 -11.219,7.926c-7.919,2.635 -14.518,1.972 -19.795,-1.985c1.979,-5.94 7.262,-10.555 14.518,-12.539l12.539,-1.315Z" style="fill-rule:nonzero;"/><path d="M242.376,389.719l24.415,-0.657c1.979,-0.664 2.643,-1.328 2.643,-3.3c0,-1.327 -0.664,-2.642 -2.643,-1.984l-25.072,1.321c-1.32,0 -2.642,0.663 -2.642,2.635c0,1.328 1.321,1.985 3.299,1.985Z" style="fill-rule:nonzero;"/><path d="M304.402,384.435c-0.663,-3.956 -1.32,-5.935 -2.642,-7.913c-2.636,-1.32 -7.256,-1.984 -14.518,-1.984c-5.935,0.664 -11.212,2.642 -15.175,6.599l-5.277,5.283l5.941,5.277c4.613,2.636 9.897,3.963 16.495,3.3c6.599,0 10.555,-1.321 13.197,-3.3c1.316,-1.978 2.637,-3.964 1.979,-7.262Z" style="fill:#d96038;fill-rule:nonzero;"/><path d="M264.149,385.099c-0.657,0.663 -0.657,1.32 0,2.635l6.599,5.284c5.283,3.956 11.218,5.277 18.479,5.277c7.256,-0.664 12.533,-2.636 14.512,-5.277c2.642,-1.321 3.299,-4.62 3.299,-9.24c-0.657,-4.613 -1.979,-7.913 -3.956,-9.24c-3.3,-2.636 -7.92,-2.636 -15.839,-2.636c-7.255,0 -12.532,2.636 -17.152,6.599l-5.942,6.598Zm23.094,-7.92l12.539,1.321c0.657,1.321 1.979,3.299 1.979,5.935l0,1.327l-1.979,4.614l-11.218,1.984c-7.919,0.657 -13.196,-1.327 -18.474,-6.599c3.957,-5.282 9.898,-7.925 17.153,-8.582Z" style="fill-rule:nonzero;"/><path d="M282.63,279.525l-3.299,0c-1.985,0 -2.643,1.321 -1.321,3.299l12.533,21.116c1.32,1.979 2.642,1.979 3.962,1.314c1.979,-1.314 1.979,-2.635 1.321,-3.956l-13.196,-21.773Z" style="fill-rule:nonzero;"/><path d="M273.39,279.525l6.599,1.321l1.978,-6.599c0.664,-5.94 -1.32,-11.218 -4.62,-16.495c-3.299,-5.941 -6.598,-9.24 -9.897,-9.897c-1.314,-0.657 -3.956,0 -7.255,1.978c-3.3,1.321 -4.62,3.299 -4.62,5.278c-0.657,3.299 0.663,7.919 4.62,13.196c3.297,5.941 7.253,9.24 13.195,11.218Z" style="fill:#d96038;fill-rule:nonzero;"/><path d="M282.63,282.824c3.956,-8.576 3.299,-17.816 -2.642,-26.393c-3.957,-6.598 -7.256,-9.897 -11.219,-11.218c-2.636,-0.657 -5.935,-0.657 -9.897,1.985c-3.299,2.635 -5.935,5.271 -5.935,7.913c-0.664,3.956 0.657,9.24 4.613,15.181c5.941,9.233 13.197,13.854 22.438,13.854c1.978,0 2.642,-0.658 2.642,-1.322Zm-3.299,-10.56l-0.664,5.941c-7.256,-0.658 -12.533,-4.613 -16.496,-10.555c-2.635,-4.62 -4.62,-7.92 -4.62,-11.219c0,-1.979 1.985,-3.299 3.963,-4.62l5.277,-1.978c2.643,1.321 5.277,4.62 8.577,9.234c2.642,3.963 3.963,8.583 3.963,13.197Z" style="fill-rule:nonzero;"/><path d="M266.791,316.48c-1.32,1.314 -1.32,2.635 -0.657,3.956l13.197,21.772c0.657,1.321 1.978,1.321 3.299,0c1.314,0 1.979,-1.978 0.657,-3.299l-13.196,-21.772c-0.657,-1.321 -1.979,-1.321 -3.3,-0.657Z" style="fill-rule:nonzero;"/><path d="M248.317,286.787c-2.642,1.973 -4.62,3.957 -4.62,5.936c-0.657,3.299 0.657,7.919 3.956,13.196c3.3,5.935 7.92,9.233 13.197,11.219l7.262,1.978l1.979,-7.262c0,-5.935 -0.657,-11.212 -3.957,-16.496c-3.963,-5.935 -7.262,-9.233 -10.561,-9.896c-1.978,-0.659 -4.62,-0.001 -7.256,1.325Z" style="fill:#d96038;fill-rule:nonzero;"/><path d="M270.748,319.779l1.984,-7.926c0.657,-5.935 -1.321,-12.533 -5.284,-18.468c-3.299,-5.94 -7.255,-9.239 -10.555,-10.562c-3.299,-1.32 -6.598,0 -9.897,1.979c-3.299,1.984 -5.277,4.62 -6.598,7.256c-0.657,3.963 0.657,8.583 5.277,15.839c3.963,5.283 7.919,9.24 14.518,11.882l7.919,1.972l2.636,-1.972Zm-15.175,-32.334c1.978,1.314 4.62,4.613 7.919,9.24c2.642,3.956 3.956,9.233 3.956,13.196l-0.657,5.935c-7.255,0 -12.539,-3.963 -16.495,-10.562c-3.3,-5.271 -4.62,-8.569 -4.62,-11.212l0.663,-0.657l3.3,-3.963c2.634,-1.977 3.956,-1.977 5.934,-1.977Z" style="fill-rule:nonzero;"/><path d="M248.975,348.808c-0.657,-1.979 -1.979,-2.636 -3.299,-1.321c-1.979,0.657 -1.979,1.985 -1.321,3.957l11.882,21.122c0.657,1.972 2.636,2.636 3.957,1.972c1.32,-1.314 1.978,-2.636 0.657,-3.956l-11.876,-21.774Z" style="fill-rule:nonzero;"/><path d="M235.778,315.816c-1.979,-0.664 -5.277,0 -7.92,1.321c-3.299,1.978 -4.613,3.299 -4.613,5.277c-0.664,3.299 0.657,7.919 3.956,13.859c2.643,5.935 6.599,9.234 12.54,11.869l7.255,1.328l1.979,-6.599c0.664,-5.941 -1.321,-11.225 -3.956,-17.159c-3.3,-5.933 -6.599,-9.232 -9.241,-9.896Z" style="fill:#d96038;fill-rule:nonzero;"/><path d="M227.201,315.152c-3.956,1.328 -6.598,3.963 -6.598,6.599l-0.657,2.642c0,3.3 1.314,7.92 4.613,13.196c5.941,9.24 12.539,14.518 22.437,14.518l1.979,-0.663c4.62,-8.57 3.963,-17.153 -1.979,-26.394c-3.299,-6.598 -6.598,-10.555 -9.897,-11.869c-3.299,-0.663 -6.598,-0.663 -9.898,1.971Zm1.979,3.963l5.941,-0.663l7.919,8.583c1.979,4.613 3.299,8.576 3.299,12.539l-1.32,7.255c-6.599,-1.32 -11.876,-5.283 -15.839,-11.882c-2.636,-4.613 -3.956,-8.57 -3.956,-10.555l0.657,-1.314l3.299,-3.963Z" style="fill-rule:nonzero;"/><path d="M218.625,375.864c-0.663,-1.327 -1.32,-1.984 -3.299,-1.327c-1.321,0 -1.979,0.664 -1.979,2.642l3.957,24.415c0.657,1.979 1.978,2.636 3.299,2.636c1.978,-0.657 2.642,-1.972 2.642,-3.299l-4.62,-25.067Z" style="fill-rule:nonzero;"/><path d="M216.646,340.889l-7.919,-1.314c-3.963,0.657 -5.94,2.635 -7.262,3.956c-1.314,2.642 -1.314,7.913 0,14.511c1.321,5.941 3.963,10.562 8.583,14.524l5.935,3.956l3.963,-5.283c2.635,-5.935 3.299,-11.212 1.978,-17.811c-1.32,-6.599 -2.642,-10.555 -5.278,-12.539Z" style="fill:#d96038;fill-rule:nonzero;"/><path d="M224.56,352.771c-1.314,-6.599 -3.299,-11.225 -6.598,-13.86c-1.979,-1.979 -5.277,-2.636 -9.897,-1.979c-3.957,1.315 -6.599,2.643 -7.913,5.277c-1.984,1.321 -2.642,3.963 -2.642,7.263l1.32,9.233c1.979,9.897 7.92,17.159 15.832,20.459l2.643,-0.664c7.255,-5.935 9.896,-14.518 7.255,-25.729Zm-20.453,3.956l-0.657,-7.255l0.657,-4.627c0.657,-1.314 2.643,-1.972 5.277,-2.636l5.277,0.664c2.643,1.972 3.963,5.271 5.284,11.212l0,5.284c0,5.271 -1.984,9.897 -4.62,13.854c-5.94,-3.299 -9.239,-8.583 -11.218,-16.496Z" style="fill-rule:nonzero;"/><path d="M254.252,440.52l8.583,-7.255l-6.599,-8.577c-5.94,-6.598 -12.539,-9.897 -19.795,-10.561c-7.919,-1.314 -14.518,0.663 -20.458,5.94l-7.919,7.92l5.94,8.576c5.277,5.941 11.219,9.24 19.138,9.897c7.256,1.322 13.854,-1.314 21.11,-5.94Z" style="fill:#858585;fill-rule:nonzero;"/><path d="M255.573,443.162l9.24,-8.577l0.657,-2.635l-7.92,-9.897c-6.598,-6.599 -13.854,-9.897 -21.109,-10.562c-8.583,-0.663 -15.838,1.321 -22.437,6.599c-3.299,2.635 -5.94,5.277 -7.255,7.919c-0.664,1.314 -0.664,1.979 -0.664,2.642l6.599,9.897c5.277,5.935 11.875,9.897 19.794,10.555c7.92,1.314 15.175,-1.321 23.095,-5.941Zm-19.795,-27.051c9.24,1.314 17.159,6.599 23.758,16.496c-7.92,8.576 -16.496,12.539 -26.394,11.212c-9.897,-1.314 -17.159,-5.935 -21.779,-15.832l7.919,-7.263c4.62,-3.298 10.562,-5.27 16.496,-4.613Z" style="fill-rule:nonzero;"/><path d="M188.27,422.053c-1.314,0 -3.299,0.657 -3.299,2.635c0,1.321 0.664,2.636 2.642,2.636l20.452,3.299c1.984,0 2.642,-0.657 2.642,-2.635c0.657,-1.979 0,-2.636 -1.979,-3.3l-20.458,-2.635Z" style="fill-rule:nonzero;"/><path d="M210.706,479.452l9.24,-5.94l-5.941,-9.897c-4.62,-6.599 -11.218,-11.212 -18.474,-12.533c-7.262,-1.979 -13.86,-0.664 -21.116,3.299l-7.256,6.599l3.957,9.897c3.957,6.599 9.897,9.897 17.153,11.875c7.262,1.32 15.181,0.657 22.437,-3.3Z" style="fill:#858585;fill-rule:nonzero;"/><path d="M196.188,448.445c-7.919,-1.327 -15.175,-0.663 -22.43,3.3l-9.24,7.255l0,2.643c0,2.635 1.321,5.935 4.62,10.555c4.62,6.598 11.218,11.875 18.474,13.196c7.919,1.978 15.838,0.657 23.751,-3.3l9.897,-7.255l1.32,-2.642l-6.598,-10.555c-5.276,-7.262 -11.875,-11.225 -19.794,-13.197Zm-17.816,6.599c5.941,-2.642 11.218,-3.299 16.496,-1.327c9.897,1.984 16.496,7.926 21.779,18.48c-9.896,7.912 -19.137,9.896 -27.714,8.576c-9.24,-2.636 -15.838,-9.234 -19.137,-19.131c1.977,-2.642 4.62,-4.626 8.576,-6.598Z" style="fill-rule:nonzero;"/><path d="M147.365,453.06c-1.985,-0.657 -2.642,0.657 -3.299,1.984c-0.664,1.972 0,2.636 1.314,2.636l21.116,5.935l2.642,-1.972c0.657,-1.328 0,-2.643 -1.321,-3.3l-20.452,-5.283Z" style="fill-rule:nonzero;"/><path d="M166.496,516.4l7.919,-7.256l-6.599,-9.24c-5.941,-5.935 -12.539,-9.233 -19.794,-9.897c-7.256,0 -13.854,1.327 -20.452,6.599l-6.598,7.926l5.277,8.569c5.277,5.941 11.219,9.24 18.474,9.897c7.256,0.664 15.175,-1.314 21.773,-6.598Z" style="fill:#858585;fill-rule:nonzero;"/><path d="M126.249,493.97l-7.919,9.233l0,1.985c0,1.978 1.978,5.277 5.941,9.897c5.935,5.94 12.533,9.24 20.452,10.555c7.919,0.657 15.838,-1.314 23.094,-6.599l9.24,-7.913l0,-3.299c-0.664,-2.642 -3.299,-5.941 -7.262,-9.897c-6.598,-6.599 -13.197,-9.897 -21.773,-10.562c-7.919,-0.662 -15.174,1.322 -21.773,6.6Zm21.773,-1.322c5.277,0.657 10.555,2.643 15.838,7.256l7.255,8.583c-7.255,8.576 -15.838,12.539 -25.736,11.876c-8.577,-0.664 -16.496,-5.935 -21.773,-15.832c6.6,-8.583 14.519,-12.54 24.416,-11.883Z" style="fill-rule:nonzero;"/><path d="M100.513,498.59c-1.978,0 -2.635,0.657 -3.299,2.642c0,1.972 0.664,2.636 1.978,3.3l21.116,1.972c1.979,0.663 2.642,0 3.299,-1.972c0,-1.328 -1.321,-2.643 -2.635,-3.3l-20.459,-2.642Z" style="fill-rule:nonzero;"/><path d="M134.168,555.332l7.255,-9.239l-9.24,-7.256c-6.599,-4.613 -14.511,-5.941 -21.109,-5.277c-7.262,0.664 -13.86,4.62 -18.48,10.561l-5.277,9.234l7.262,7.262c6.599,4.613 13.197,6.599 20.452,5.271c7.256,-0.659 13.854,-4.615 19.137,-10.556Z" style="fill:#858585;fill-rule:nonzero;"/><path d="M133.505,536.195c-7.919,-4.614 -15.175,-6.599 -23.094,-5.271c-7.919,0.657 -14.517,5.271 -19.794,11.869c-3.957,4.627 -5.935,7.926 -5.935,9.897l0,1.984l8.576,7.913c7.255,5.284 14.518,7.262 22.43,6.599c7.262,-1.314 14.518,-5.271 20.458,-11.869l7.256,-9.897l0,-3.3l-9.897,-7.925Zm-43.547,16.495c5.935,-9.897 12.533,-15.168 21.116,-16.495c9.897,-1.314 18.474,1.984 26.393,9.897c-5.284,10.561 -13.197,16.495 -23.094,17.822c-9.897,0.658 -17.816,-3.298 -24.415,-11.224Z" style="fill-rule:nonzero;"/><path d="M89.295,552.69c0,-1.972 -0.657,-1.972 -2.635,-1.972l-20.458,1.972c-1.979,0 -3.299,1.327 -2.636,2.642c0,1.985 1.321,2.643 2.636,1.985l21.116,-1.327c1.977,0 2.64,-1.315 1.977,-3.3Z" style="fill-rule:nonzero;"/><path d="M184.97,358.705l-7.913,-7.262l-7.919,7.262c-5.277,6.599 -7.919,13.86 -7.919,21.116c0,7.912 2.642,14.511 8.577,19.795c2.642,2.642 5.277,5.277 7.919,5.94l8.577,-6.599c4.62,-5.283 7.919,-11.882 7.919,-19.137c-0.658,-7.919 -3.3,-14.516 -9.241,-21.115Z" style="fill:#858585;fill-rule:nonzero;"/><path d="M178.372,348.808c-0.657,-0.664 -1.314,-0.664 -2.635,0l-8.577,9.233c-5.941,6.599 -9.24,13.86 -9.24,21.78c0.657,8.576 3.299,15.175 9.24,21.772l9.234,6.599l1.978,0l9.241,-7.262c5.94,-5.935 9.24,-13.197 9.24,-21.109c-0.664,-7.92 -3.3,-15.182 -9.24,-22.438l-9.241,-8.575Zm12.539,31.013c0,5.94 -1.321,11.212 -5.277,15.838l-7.919,6.599c-9.24,-4.627 -13.854,-12.539 -13.854,-22.437c0,-9.24 3.956,-17.817 13.196,-25.079c9.234,7.262 13.854,15.182 13.854,25.079Z" style="fill-rule:nonzero;"/><path d="M177.714,402.915c-1.321,0 -2.642,1.314 -2.642,2.642l-0.657,26.394c0,1.972 0.657,2.635 2.642,2.635l2.636,-1.978l0.664,-27.051c-0.001,-1.328 -0.664,-2.642 -2.643,-2.642Z" style="fill-rule:nonzero;"/><path d="M143.402,392.36l-9.234,-7.262l-7.262,8.576c-4.62,7.256 -6.599,14.518 -5.935,21.779c0,7.256 3.299,13.196 9.897,19.131c2.636,2.636 5.935,3.963 8.577,5.277l7.919,-7.255c4.613,-6.599 6.598,-13.197 5.935,-20.452c-0.656,-7.26 -3.956,-13.859 -9.897,-19.794Z" style="fill:#858585;fill-rule:nonzero;"/><path d="M155.941,412.155c-1.321,-7.926 -4.62,-15.182 -10.561,-21.122l-9.897,-7.913l-3.299,0l-7.913,9.24c-5.284,7.913 -7.262,15.832 -6.598,23.094c1.314,8.57 4.614,15.168 11.212,20.452c3.299,2.642 6.598,5.277 9.24,5.941l2.642,0l8.577,-7.926c5.277,-6.598 7.255,-13.854 6.597,-21.766Zm-5.277,0l0,2.635c0,9.234 -3.963,16.496 -11.882,21.773l-7.913,-5.941c-4.62,-4.613 -6.598,-9.233 -7.262,-15.832l-0.657,-1.978c0,-7.919 3.957,-16.496 11.218,-24.415c10.555,6.599 15.832,14.518 16.496,23.758Z" style="fill-rule:nonzero;"/><path d="M142.081,439.205l-3.299,-1.984c-0.657,0 -1.314,0.664 -1.314,0.664l-0.664,1.978l0.664,21.116c0,1.321 1.314,2.636 3.299,2.636c1.314,0 2.636,-1.314 2.636,-2.636l-1.322,-21.774Z" style="fill-rule:nonzero;"/><path d="M104.476,441.848l-7.262,-7.263l-9.234,6.599c-5.284,6.599 -8.583,13.196 -8.583,20.459c0,7.912 1.985,14.511 7.262,20.451l7.919,6.599c3.299,-1.321 5.935,-3.299 8.577,-5.941c5.935,-5.276 8.577,-11.875 9.234,-19.137c0,-7.914 -1.978,-14.512 -7.913,-21.767Z" style="fill:#858585;fill-rule:nonzero;"/><path d="M98.535,431.95c-0.657,-0.664 -1.978,-0.664 -2.642,0l-9.897,8.569c-5.935,6.599 -8.577,13.86 -9.234,21.123c-0.664,8.569 1.978,15.832 7.919,21.767l8.576,7.262l2.636,0.663l9.24,-7.262c5.941,-5.935 9.24,-12.533 9.24,-20.458c0.657,-7.913 -1.984,-15.832 -7.262,-22.431l-8.576,-9.233Zm-16.495,31.664l0,-1.314c0.657,-9.897 5.277,-17.817 15.175,-24.415c7.919,7.919 11.875,16.495 11.875,24.415l0,1.314c0,10.561 -4.614,17.159 -14.511,21.779c-8.583,-5.941 -12.539,-13.196 -12.539,-21.779Z" style="fill-rule:nonzero;"/><path d="M94.579,486.051c-1.984,0 -2.642,1.32 -2.642,2.642l-1.321,21.109c-0.658,1.327 0,1.984 1.978,2.642l3.299,-2.642l1.321,-21.109c0,-1.322 -0.657,-1.985 -2.635,-2.642Z" style="fill-rule:nonzero;"/><path d="M57.625,493.97l-9.897,-6.599l-6.598,9.897c-3.957,7.263 -5.277,14.518 -3.299,21.773c1.321,7.256 5.277,13.196 11.876,17.153l9.24,4.626l7.256,-7.926c3.963,-6.598 5.284,-13.196 3.299,-21.109c-1.316,-6.597 -5.279,-13.195 -11.877,-17.815Z" style="fill:#858585;fill-rule:nonzero;"/><path d="M45.749,485.394l-7.255,10.555c-3.299,8.583 -5.284,15.838 -3.299,23.751c1.314,7.926 5.935,13.86 13.197,18.48c4.613,3.299 7.913,5.277 9.897,5.277l2.636,-0.664l7.262,-8.569c4.614,-7.263 5.935,-14.524 4.614,-23.095c-1.978,-7.262 -6.598,-13.86 -13.196,-19.795c-5.277,-3.963 -8.577,-5.94 -11.212,-5.94l-2.644,0Zm-5.941,32.991l0,-5.284c0,-7.912 3.299,-15.168 8.583,-22.43c10.554,5.277 16.496,12.532 19.131,22.43l0.664,4.627c0,8.57 -3.299,15.168 -9.897,19.795c-9.898,-2.642 -15.839,-9.241 -18.481,-19.138Z" style="fill-rule:nonzero;"/><path d="M60.924,538.837l-2.636,-0.657c-1.321,0 -1.984,1.314 -1.984,3.299l3.299,20.452c0.664,1.984 1.984,2.642 3.299,1.984c1.985,0 2.642,-1.327 1.985,-2.642l-3.299,-20.452l-0.664,-1.984Z" style="fill-rule:nonzero;"/><path d="M227.201,79.599c-1.32,0 -2.642,0.657 -2.642,1.979c0,19.794 -1.979,40.911 -7.255,65.319c-9.24,48.173 -25.736,86.441 -48.83,114.155c-10.555,13.196 -28.372,29.035 -52.787,48.83c-29.028,23.751 -50.144,44.86 -63.341,62.684c-21.773,30.35 -38.269,69.282 -48.83,118.105c0,1.32 0.664,2.635 1.984,2.635l3.299,-1.972c9.897,-46.852 26.393,-85.777 47.502,-115.47c13.196,-17.823 34.313,-38.933 62.684,-62.026c24.415,-18.48 42.231,-35.633 54.107,-49.486c23.094,-28.378 40.253,-67.304 49.487,-116.127c4.62,-25.079 7.263,-46.852 7.263,-66.646c0.002,-1.323 -0.662,-1.98 -2.641,-1.98Z" style="fill-rule:nonzero;"/><path d="M236.441,58.483c-1.32,-1.978 -3.299,-2.635 -7.262,-3.299c-3.299,0 -5.935,0.664 -7.919,1.978c-1.979,2.642 -3.299,6.598 -3.956,13.854c0,5.941 1.32,11.882 4.619,16.496l5.277,5.284l5.277,-4.62c3.963,-4.62 5.277,-9.897 5.941,-15.832c0.659,-7.262 -0.662,-11.882 -1.977,-13.861Z" style="fill:#d96038;fill-rule:nonzero;"/><path d="M229.18,53.206c-3.299,-0.657 -6.599,0 -9.233,1.979c-2.642,2.635 -4.62,7.919 -5.284,15.174c0,7.256 1.321,13.197 5.284,18.48l5.277,5.935l2.635,0.664l6.599,-5.941c3.963,-4.62 5.941,-9.897 6.599,-17.153c0.663,-7.926 -0.657,-13.197 -3.3,-15.838c-1.979,-2.643 -4.614,-3.3 -8.577,-3.3Zm-8.576,19.795l0,-1.984c0,-5.935 0.657,-9.897 3.299,-11.87l5.277,-0.664c1.979,0 3.963,0 4.62,1.321c1.979,1.978 2.642,4.613 2.642,8.576l-0.663,3.299c0,8.576 -3.3,14.518 -8.577,17.816c-4.621,-3.954 -6.598,-9.896 -6.598,-16.494Z" style="fill-rule:nonzero;"/><path d="M211.363,118.532c-0.657,-1.985 -1.314,-1.985 -3.299,-0.664c-1.314,0 -1.979,1.321 -0.657,3.299l11.218,21.773c1.321,1.321 1.979,2.642 3.956,1.321c1.321,-1.321 1.321,-1.979 0.664,-3.299l-11.882,-22.43Z" style="fill-rule:nonzero;"/><path d="M190.911,86.855c-3.299,1.321 -4.62,3.299 -5.277,5.941c-0.664,2.642 0.657,7.255 3.956,13.196c3.3,5.277 7.263,9.897 12.54,11.876l7.255,1.978l1.979,-7.255c1.321,-5.941 -0.657,-11.219 -3.299,-16.496c-3.3,-5.941 -6.599,-9.897 -9.897,-10.554c-1.315,-0.665 -3.958,-0.665 -7.257,1.314Z" style="fill:#d96038;fill-rule:nonzero;"/><path d="M200.151,82.898c-3.299,-1.321 -6.599,-0.657 -9.897,1.978c-3.963,1.979 -5.941,4.62 -6.598,7.919c-0.664,3.299 0.657,8.576 3.957,14.511c3.299,5.941 7.255,10.562 13.196,12.54l8.576,2.642l1.979,-1.321c4.62,-8.576 4.62,-16.496 -0.657,-26.393c-3.957,-6.598 -7.257,-9.898 -10.556,-11.876Zm-7.919,6.599l5.277,-1.321c2.642,1.321 5.277,3.963 8.576,8.577c1.979,4.62 3.299,7.919 3.299,12.539l-1.978,7.255c-6.599,-0.657 -11.219,-5.277 -15.839,-11.875c-1.979,-4.62 -3.299,-7.919 -3.299,-9.897c0.002,-1.979 1.322,-3.964 3.964,-5.278Z" style="fill-rule:nonzero;"/><path d="M200.809,157.458c-1.321,-1.321 -2.642,-1.321 -3.956,0c-1.985,0.664 -1.985,1.321 -0.664,3.299l13.86,21.116c0.657,1.314 1.979,1.978 3.956,0.657c0.657,-1.314 1.321,-2.642 0,-3.957l-13.196,-21.115Z" style="fill-rule:nonzero;"/><path d="M177.057,127.766c-2.642,1.978 -3.963,4.62 -4.62,6.598c-0.664,3.299 1.321,7.919 5.277,13.196c3.299,4.62 7.919,8.577 13.197,10.562l7.256,1.314l1.984,-7.256c0,-5.941 -1.984,-11.218 -5.284,-16.496c-3.956,-5.941 -7.255,-9.24 -10.554,-9.897c-1.979,0 -3.957,0.657 -7.256,1.979Z" style="fill:#d96038;fill-rule:nonzero;"/><path d="M197.51,134.364c-4.62,-6.598 -7.92,-9.897 -11.876,-11.218c-2.642,-0.657 -5.941,0 -9.897,2.642c-3.963,2.642 -5.277,5.277 -5.941,8.577c0,3.299 1.321,8.576 5.277,14.518c6.598,8.576 14.517,13.196 23.094,13.196l2.642,-1.321c3.298,-8.578 2.641,-17.818 -3.299,-26.394Zm-22.437,1.321c0,-1.984 1.321,-3.299 3.299,-5.284c2.642,-1.314 4.62,-1.972 5.941,-1.314c2.642,0 5.277,3.299 8.577,7.913c2.642,3.963 4.62,8.583 4.62,13.86l-0.657,5.277c-7.263,-0.657 -12.54,-3.957 -17.16,-10.555c-2.636,-4.62 -4.62,-7.919 -4.62,-9.897Z" style="fill-rule:nonzero;"/><path d="M186.291,201.667c0,-1.985 -1.978,-2.642 -3.299,-1.321c-1.978,0 -1.978,1.321 -1.321,3.299l10.562,23.094c1.32,1.321 1.978,1.978 3.956,1.321c1.321,-1.321 1.321,-2.642 1.321,-3.957l-11.219,-22.436Z" style="fill-rule:nonzero;"/><path d="M167.817,168.676c-3.299,1.979 -5.277,3.299 -5.941,5.277c-0.657,3.299 0,7.919 3.299,13.86c2.642,5.935 6.598,9.897 11.882,12.533l7.256,1.978l2.642,-6.598c0.657,-5.277 0,-11.876 -2.642,-17.153c-3.299,-5.941 -6.599,-9.897 -9.24,-11.218l-7.256,1.321Z" style="fill:#d96038;fill-rule:nonzero;"/><path d="M186.291,177.252c-3.299,-5.935 -6.598,-9.897 -9.897,-11.875l-9.897,0.657c-4.62,2.642 -6.598,4.62 -7.255,7.919c-1.321,3.299 0.657,8.577 3.957,15.175c2.642,5.941 7.262,10.555 12.539,13.197l7.919,2.642c0.657,0 1.978,0 2.635,-1.321c4.619,-7.919 4.619,-16.496 -0.001,-26.394Zm-11.875,-6.598c2.642,0.664 4.62,3.299 7.255,9.233c1.985,3.963 2.642,7.262 2.642,11.225l-1.321,8.57c-7.255,-1.972 -11.875,-5.935 -15.175,-12.533c-2.642,-5.277 -3.299,-8.577 -3.299,-10.561c0,-1.972 0.657,-3.957 3.957,-5.271l5.941,-0.663Z" style="fill-rule:nonzero;"/><path d="M164.518,237.958c0,-1.321 -1.321,-1.985 -3.299,-1.321c-1.321,0 -1.978,1.321 -1.321,3.299l7.919,23.094c0.658,1.978 2.642,1.978 3.957,1.978c1.985,-0.656 2.642,-1.978 1.321,-3.956l-8.577,-23.094Z" style="fill-rule:nonzero;"/><path d="M148.68,203.646c-3.299,1.321 -4.614,3.299 -5.277,4.62c-1.979,3.299 -1.321,7.913 1.321,13.854c2.642,5.941 5.941,11.218 10.555,13.854l6.598,2.642l3.299,-6.598c1.984,-5.277 1.984,-11.212 -0.657,-17.153c-2.642,-5.941 -4.62,-9.897 -7.255,-11.218l-8.584,0l0,-0.001Z" style="fill:#d96038;fill-rule:nonzero;"/><path d="M167.16,214.207c-2.642,-7.262 -5.941,-11.225 -9.24,-12.539l-9.897,-0.657c-3.957,1.314 -6.599,3.957 -7.256,7.255c-1.984,3.299 -0.664,8.577 1.314,15.175c2.642,6.598 6.599,11.218 11.882,14.518l7.913,3.299l2.642,-0.657l3.299,-7.262c1.978,-6.599 1.321,-13.198 -0.657,-19.132Zm-11.882,-8.583c2.642,1.321 4.62,4.62 6.598,9.897l1.985,9.24c0,3.957 -0.664,7.256 -2.642,10.555c-6.598,-1.978 -10.555,-6.598 -13.854,-13.854c-1.985,-3.957 -2.642,-7.256 -2.642,-9.897c0,-2.642 1.978,-4.62 5.277,-5.941l5.278,0Z" style="fill-rule:nonzero;"/><path d="M237.756,131.728c-1.314,-1.984 -2.635,-1.984 -3.956,0l-16.495,19.131c-1.321,1.321 -0.658,1.978 0,3.299l3.299,0l17.152,-18.474c1.321,-1.32 1.321,-2.641 0,-3.956Z" style="fill-rule:nonzero;"/><path d="M260.851,105.335c-2.636,-2.642 -4.614,-3.299 -7.256,-2.642c-3.299,0 -6.599,3.299 -11.219,7.913c-4.62,4.626 -6.598,9.897 -6.598,15.838c-0.657,2.642 0,5.284 0,7.256l7.262,-0.657c5.935,-0.657 10.555,-3.957 14.511,-8.577c4.62,-5.277 6.599,-9.234 6.599,-12.533c-0.001,-2.641 -0.658,-3.962 -3.299,-6.598Z" style="fill:#d96038;fill-rule:nonzero;"/><path d="M262.835,103.351c-3.299,-3.299 -6.599,-3.957 -9.897,-3.957c-3.299,0.657 -7.262,3.957 -12.539,9.897c-4.62,4.614 -7.256,10.555 -7.256,16.496c-0.664,5.277 -0.664,7.256 0.657,8.577l1.979,1.978l7.919,-0.657c6.599,-1.321 11.876,-4.62 16.496,-9.897c4.62,-5.284 6.598,-9.897 6.598,-13.196c0.656,-3.3 -0.658,-6.6 -3.957,-9.241Zm-18.481,9.24c3.963,-4.62 7.262,-7.256 9.24,-7.919c1.979,0 3.299,1.321 5.277,2.635l3.299,5.284c0,1.978 -1.978,5.277 -5.935,9.897c-5.283,5.941 -11.218,8.576 -18.48,8.576l0,-3.299c0.001,-5.277 2.643,-10.561 6.599,-15.174Z" style="fill-rule:nonzero;"/><path d="M232.479,175.274c-1.32,-1.321 -1.978,-1.985 -3.956,-1.321l-21.115,14.518c-1.321,0.657 -1.321,1.979 -0.657,3.299c0.657,1.978 1.978,1.978 3.956,0.657l20.452,-13.854c1.984,-1.321 1.984,-2.641 1.32,-3.299Z" style="fill-rule:nonzero;"/><path d="M260.851,155.479l-5.935,-4.62c-2.643,0 -7.92,1.321 -13.197,4.62c-4.62,3.957 -8.576,8.577 -10.561,13.854l-1.314,7.255l7.255,1.327c5.941,0.657 11.219,-0.664 16.496,-4.626c5.941,-3.956 9.24,-7.255 9.897,-10.555c0,-1.977 -0.657,-3.955 -2.641,-7.255Z" style="fill:#d96038;fill-rule:nonzero;"/><path d="M263.492,154.159c-2.642,-3.299 -5.941,-5.277 -8.576,-5.935c-3.963,-0.664 -8.577,1.314 -14.518,5.935c-5.941,3.299 -9.897,7.919 -11.219,14.517l-1.979,7.913l1.979,1.984l7.919,1.979c6.599,0 12.54,-1.321 17.817,-5.277c5.935,-3.957 9.897,-7.919 11.218,-11.218c0.658,-3.3 0.001,-6.599 -2.641,-9.898Zm-9.24,-0.664c1.984,0 2.642,0.664 4.62,3.299l1.979,4.626c0,2.636 -3.3,5.935 -8.577,9.234c-6.598,4.62 -13.196,5.935 -19.131,3.963c0.657,-6.599 3.956,-12.54 10.555,-16.496c4.619,-3.299 8.575,-5.284 10.554,-4.626Z" style="fill-rule:nonzero;"/><path d="M225.224,212.222c-0.664,-1.979 -1.321,-1.979 -3.3,-1.979l-24.414,5.277c-1.321,0 -2.643,1.321 -1.979,3.299l2.636,1.985l25.078,-5.284c1.315,-0.656 1.979,-1.313 1.979,-3.298Z" style="fill-rule:nonzero;"/><path d="M259.536,204.309c-1.321,-3.299 -2.643,-5.941 -3.963,-6.598c-3.3,-1.984 -7.92,-1.984 -14.518,0c-5.935,1.314 -10.555,4.614 -14.512,9.234c-1.984,1.978 -3.299,3.963 -3.963,5.935l6.599,3.963l16.496,1.321c7.262,-1.321 11.218,-3.299 13.196,-5.941c1.322,-1.979 1.322,-3.957 0.665,-7.914Z" style="fill:#d96038;fill-rule:nonzero;"/><path d="M256.236,195.069c-3.299,-1.321 -9.24,-1.321 -15.838,0c-6.599,1.978 -11.876,5.277 -16.496,9.897l-3.956,7.255l0.657,2.642l6.598,4.614l19.138,1.328c7.256,-1.985 11.876,-3.963 13.854,-7.262c1.978,-1.978 2.642,-5.277 1.978,-9.897c-1.32,-4.621 -3.299,-6.599 -5.935,-8.577Zm0.658,13.197c0,3.299 -3.956,5.277 -11.875,7.255c-7.263,1.985 -13.86,1.321 -19.138,-3.299c2.642,-6.598 7.919,-10.555 15.838,-11.875l11.876,0l3.299,4.62l0,3.299Z" style="fill-rule:nonzero;"/><path d="M200.809,250.497c-0.657,-1.984 -1.979,-2.642 -3.299,-1.984l-24.416,7.255c-1.978,0.664 -1.978,1.985 -1.978,3.3c0.657,1.984 1.978,2.642 3.299,1.984l24.415,-7.255c1.979,-0.664 1.979,-1.985 1.979,-3.3Z" style="fill-rule:nonzero;"/><path d="M233.8,239.936c-0.657,-3.299 -2.642,-5.277 -4.62,-6.598l-13.854,1.321c-5.941,1.979 -10.562,5.277 -14.518,9.897l-3.299,6.598l6.598,3.299l17.153,0c6.598,-1.32 11.218,-3.956 12.539,-6.598c0.658,-1.984 0.658,-4.62 0.001,-7.919Z" style="fill:#d96038;fill-rule:nonzero;"/><path d="M236.441,238.615c-1.32,-3.957 -3.299,-6.598 -5.94,-7.255l-15.839,0.657c-6.598,2.642 -11.212,5.941 -15.175,11.218l-3.956,7.262l0.657,2.636l7.919,3.963l18.474,0.657c6.599,-2.642 11.219,-5.284 13.197,-8.583c1.32,-2.636 1.978,-5.935 0.663,-9.897l0,-0.658Zm-8.583,-2.642l3.3,4.626l1.32,3.957c0,2.642 -3.956,5.277 -11.875,7.255c-6.599,2.642 -13.196,1.985 -19.795,-1.978c3.299,-5.935 8.576,-9.897 15.175,-12.533l11.875,-1.327Z" style="fill-rule:nonzero;"/><path d="M138.782,240.6l-7.913,-7.262l-8.583,7.919c-5.277,6.599 -7.913,13.196 -7.913,20.452c0,7.92 3.299,13.854 8.577,19.138l7.919,6.599l8.577,-6.599c5.277,-5.94 8.577,-12.539 7.919,-19.795c0,-7.255 -2.642,-14.518 -8.583,-20.452Z" style="fill:#858585;fill-rule:nonzero;"/><path d="M128.885,231.36l-8.577,8.576c-5.935,6.598 -8.576,13.861 -8.576,21.773c0.657,7.92 3.299,15.182 9.24,21.115l9.233,6.599c0.664,1.321 1.979,1.321 1.979,0l9.24,-6.599c5.941,-6.598 9.24,-13.195 8.577,-21.772c0,-7.919 -3.299,-14.518 -8.577,-21.779l-9.24,-8.57l-3.299,0.657Zm1.984,52.786c-8.583,-4.621 -13.196,-12.54 -13.86,-22.438l0,-0.657c0,-9.24 4.62,-17.153 13.86,-24.415c9.234,6.598 13.854,14.517 13.854,24.415l0,0.657c0,9.241 -4.62,16.497 -13.854,22.438Z" style="fill-rule:nonzero;"/><path d="M130.869,284.803c-1.321,0 -1.984,1.321 -1.984,2.643l-0.657,13.196c0,1.979 0.657,2.642 2.642,2.642c1.315,0 2.636,-0.663 2.636,-2.642l0.664,-13.196c-0.002,-1.322 -1.322,-2.643 -3.301,-2.643Z" style="fill-rule:nonzero;"/><path d="M207.407,299.984l7.255,-7.926l-7.912,-7.912c-6.599,-5.941 -13.197,-7.92 -21.116,-7.92c-7.262,0 -13.86,3.299 -19.138,9.234c-2.635,3.299 -5.277,5.283 -5.935,7.925l6.598,8.57c5.935,4.627 12.533,7.262 19.795,7.262c7.256,0.001 13.855,-3.298 20.453,-9.233Z" style="fill:#858585;fill-rule:nonzero;"/><path d="M165.175,303.94c6.598,5.277 13.86,8.577 21.78,7.913c7.912,0 15.175,-3.299 22.43,-9.233l7.92,-9.897l0,-2.636l-9.24,-8.583c-7.256,-5.277 -14.512,-8.576 -22.431,-7.912c-7.919,0.656 -14.518,3.955 -21.116,9.232c-2.642,3.3 -4.62,6.599 -6.598,9.898l0,2.635l7.255,8.583Zm-1.314,-10.554c4.614,-9.239 12.533,-13.86 22.43,-14.523c9.897,-0.657 17.816,3.962 25.072,13.196l-7.913,7.926c-5.94,3.956 -10.561,5.935 -16.495,6.599c-9.241,-0.001 -17.16,-3.964 -23.094,-13.198Z" style="fill-rule:nonzero;"/><path d="M139.446,290.744c-1.978,0 -2.642,1.314 -2.642,2.642c0,1.972 0.664,2.636 2.642,2.636l21.116,0c1.314,0 2.636,-0.664 2.636,-2.636c0,-1.327 -1.321,-2.642 -2.636,-2.642l-21.116,0Z" style="fill-rule:nonzero;"/><path d="M93.915,258.41l-9.897,-5.277l-5.935,8.576c-3.963,7.92 -5.284,15.838 -3.299,22.438c1.314,7.912 5.935,13.196 12.533,17.81c3.299,1.984 6.598,3.299 9.24,3.963l6.598,-8.576c3.957,-6.599 4.62,-13.196 3.299,-21.116c-1.978,-6.599 -5.941,-13.198 -12.539,-17.818Z" style="fill:#858585;fill-rule:nonzero;"/><path d="M84.682,250.497c-0.664,-0.664 -1.985,-0.664 -2.642,0.657c-1.321,0.657 -3.957,3.957 -7.255,9.897c-3.299,8.577 -4.62,16.495 -3.299,23.751c2.635,7.92 6.598,14.518 13.854,18.48c4.62,3.3 8.576,5.271 10.555,5.271l1.984,-0.657l7.913,-9.24c3.963,-7.256 5.284,-14.511 3.299,-22.431c-1.978,-7.919 -6.598,-14.518 -13.196,-19.795c-5.279,-3.961 -9.235,-5.933 -11.213,-5.933Zm-8.583,27.05c0,-7.255 3.299,-14.517 8.583,-21.115c10.554,4.62 16.496,11.219 19.131,21.115l0.664,5.277c0,7.263 -3.299,13.861 -8.583,19.796c-9.897,-2.636 -16.496,-9.234 -18.474,-18.474l-1.321,-6.599Z" style="fill-rule:nonzero;"/><path d="M99.192,305.255c0,-1.972 -1.314,-2.635 -3.299,-1.972c-1.315,0 -1.979,1.314 -1.979,2.636l3.963,20.458c0,1.973 1.314,2.636 2.635,2.636c1.979,0 1.979,-1.32 1.979,-3.299l-3.299,-20.459Z" style="fill-rule:nonzero;"/><path d="M148.68,315.152c-6.599,-1.972 -13.854,-1.314 -21.109,3.3l-7.919,5.94l4.62,9.24c3.957,7.256 9.897,11.876 17.153,13.196c6.599,1.979 13.854,0.657 21.773,-3.299l9.24,-5.941l-5.277,-9.896c-5.285,-7.255 -10.562,-11.212 -18.481,-12.54Z" style="fill:#858585;fill-rule:nonzero;"/><path d="M150,312.518c-8.577,-2.636 -15.832,-1.321 -23.094,3.299l-9.234,6.599l-0.664,2.635l5.277,10.562c3.962,6.598 9.897,11.218 18.48,13.196c7.256,2.636 15.175,1.321 23.094,-2.636l10.555,-6.598l0.657,-2.643l-5.935,-11.218c-5.275,-6.599 -11.873,-11.876 -19.136,-13.196Zm-18.474,6.597l16.496,-1.978c9.897,2.642 16.496,9.239 21.773,19.794c-9.897,6.599 -19.131,9.24 -28.372,7.256c-9.24,-1.979 -15.838,-8.576 -19.137,-18.474c2.642,-3.298 5.284,-5.276 9.24,-6.598Z" style="fill-rule:nonzero;"/><path d="M107.775,318.452c-1.985,-0.657 -3.299,0 -3.299,1.327c-0.664,1.972 0,2.636 1.314,3.299l13.197,3.957c1.985,0 3.299,0 3.299,-1.321c0,-1.979 0,-3.299 -1.979,-3.299l-12.532,-3.963Z" style="fill-rule:nonzero;"/><path d="M127.57,369.267l6.598,-8.583l-8.583,-7.913c-6.598,-4.627 -13.854,-6.599 -21.109,-5.941c-7.262,0.657 -13.86,3.957 -18.48,9.897c-3.299,2.643 -4.614,5.277 -5.935,8.577l7.255,7.262c5.941,5.271 12.539,7.256 19.795,6.599c7.263,-0.665 13.861,-3.964 20.459,-9.898Z" style="fill:#858585;fill-rule:nonzero;"/><path d="M136.804,362.004c0.664,-0.663 0.664,-1.978 -0.657,-3.299l-8.576,-7.919c-7.919,-5.277 -15.181,-7.256 -23.094,-6.599c-8.583,0.657 -15.181,3.956 -20.458,10.555c-3.299,3.299 -5.935,6.599 -6.598,9.897l0.664,1.984l7.913,8.577c6.598,5.277 13.196,7.262 21.779,6.598c7.913,0 14.511,-3.963 21.109,-9.897l7.918,-9.897Zm-32.328,-12.532c9.897,-0.664 19.131,2.635 26.393,11.869c-6.598,9.897 -14.517,14.523 -23.757,15.181c-10.555,1.314 -18.474,-3.299 -24.415,-11.218c1.985,-3.3 3.299,-6.599 6.598,-9.234c3.963,-3.964 9.24,-6.598 15.181,-6.598Z" style="fill-rule:nonzero;"/><path d="M82.697,365.304l-3.299,-2.636l-18.474,0c-1.321,0.657 -2.636,1.972 -2.636,3.299c0,1.972 1.315,2.636 2.636,2.636l19.138,-0.664c1.32,-0.001 2.635,-1.315 2.635,-2.635Z" style="fill-rule:nonzero;"/><path d="M101.177,410.828l6.598,-9.234l-7.919,-7.262c-7.262,-5.271 -13.86,-7.256 -21.773,-6.599c-7.262,0.664 -13.196,3.963 -18.48,9.897c-3.299,3.3 -4.614,5.284 -5.935,8.583l7.256,7.913c5.941,4.626 12.539,7.262 20.458,6.598c6.598,-1.314 13.197,-4.613 19.795,-9.896Z" style="fill:#858585;fill-rule:nonzero;"/><path d="M101.177,391.696c-7.262,-5.277 -15.181,-7.262 -23.094,-6.598c-7.919,0.663 -15.181,3.963 -20.458,9.897c-2.635,3.962 -5.277,7.262 -5.935,9.897l0,2.635l7.913,8.583c6.598,5.277 13.196,7.913 21.779,6.599c7.913,-0.657 14.511,-3.957 21.109,-10.555l7.919,-9.24l0,-3.299l-9.233,-7.919Zm-23.094,-1.32c9.897,-1.314 19.131,2.642 26.393,11.218c-6.598,9.897 -13.86,15.832 -23.757,16.496c-9.897,0 -17.817,-3.3 -23.751,-12.533c1.321,-2.642 3.299,-5.94 5.935,-7.926c4.619,-4.613 9.896,-6.598 15.18,-7.255Z" style="fill-rule:nonzero;"/><path d="M56.304,405.557c0,-1.327 -1.314,-1.984 -2.636,-1.984l-19.137,0.657c-1.321,0 -2.636,0.664 -2.636,2.642l3.299,1.984l18.474,0c1.321,-0.001 2.636,-0.664 2.636,-3.299Z" style="fill-rule:nonzero;"/><path d="M72.799,450.417l3.299,-11.212c-3.299,-1.32 -6.599,-2.642 -10.555,-3.956c-7.919,-1.327 -15.838,-0.664 -22.437,2.636c-6.598,3.299 -11.212,9.233 -13.196,16.495l-1.979,9.897l9.897,4.62l20.458,-1.32c6.601,-3.963 11.214,-9.897 14.513,-17.16Z" style="fill:#858585;fill-rule:nonzero;"/><path d="M66.201,432.607c-9.234,-1.321 -17.153,-0.657 -24.409,2.642c-6.598,3.956 -11.882,9.897 -14.518,17.811c-1.321,4.62 -1.978,7.919 -1.978,11.218l1.314,2.636l9.897,4.626c8.583,2.636 16.496,1.973 23.094,-1.984c6.598,-3.956 11.882,-9.24 15.838,-17.81l3.299,-12.54l-1.321,-1.984l-11.216,-4.615Zm-35.627,31.007c1.321,-11.212 5.935,-19.132 13.854,-23.095c8.576,-4.613 18.474,-4.613 28.371,0.664c0,3.299 -1.314,7.262 -3.299,11.219c-3.299,5.277 -7.255,9.897 -11.875,12.539c-8.577,3.956 -17.817,3.299 -27.051,-1.327Z" style="fill-rule:nonzero;"/><path d="M30.574,463.614c-0.664,-1.972 -1.978,-1.972 -3.963,-1.314l-17.153,7.912c-1.321,0.664 -1.978,1.985 -1.321,3.963c0.664,1.321 1.978,1.321 3.963,0.664l16.496,-7.926c1.978,0 2.635,-1.972 1.978,-3.299Z" style="fill-rule:nonzero;"/><path d="M53.004,299.32l-9.897,-3.963l-4.613,9.897c-3.299,7.926 -3.299,15.182 -0.664,21.78c2.642,7.255 7.262,11.875 15.175,15.838l9.897,2.636l5.284,-8.577c2.636,-7.919 3.299,-14.517 0,-21.115c-1.985,-7.261 -7.262,-12.533 -15.182,-16.496Z" style="fill:#858585;fill-rule:nonzero;"/><path d="M43.107,292.723c-0.657,-0.664 -1.314,0 -1.978,0.663l-5.935,11.212c-2.642,8.583 -2.642,16.496 0,23.752c3.299,7.262 8.577,13.196 16.496,16.495c3.299,1.984 6.598,3.299 10.555,3.963l2.642,-1.321l5.935,-9.897c3.299,-7.912 3.299,-15.174 0.664,-23.094c-3.299,-7.255 -8.583,-13.196 -16.496,-17.81c-5.284,-2.643 -9.241,-3.963 -11.883,-3.963Zm1.321,5.277c10.561,2.642 18.474,9.24 21.773,18.48l1.984,9.233c0,5.277 -1.984,11.218 -6.598,17.159c-10.561,-1.984 -17.816,-7.262 -21.116,-16.496c-1.321,-3.299 -1.978,-6.598 -1.978,-9.896c0.001,-5.284 1.979,-11.225 5.935,-18.48Z" style="fill-rule:nonzero;"/><path d="M64.887,344.845c0,-1.972 -1.985,-1.972 -3.299,-1.972c-1.984,0.657 -1.984,1.972 -1.984,3.299l5.284,13.197c0,1.972 1.314,1.972 3.299,1.972c1.314,-0.657 1.314,-1.972 1.314,-3.3l-4.614,-13.196Z" style="fill-rule:nonzero;"/><path d="M21.998,340.231l-10.561,-3.957l-3.957,10.555c-2.642,8.577 -1.979,15.175 0.657,22.438c3.299,6.598 8.576,11.869 15.838,14.511l9.897,2.642l4.62,-9.24c3.299,-7.912 2.635,-14.511 0,-21.109c-3.298,-7.263 -8.581,-12.541 -16.494,-15.84Z" style="fill:#858585;fill-rule:nonzero;"/><path d="M12.101,333.633c-1.321,0 -1.985,0.657 -3.299,1.979l-3.963,10.561c-2.635,9.234 -2.635,17.153 0.664,24.409c3.299,7.255 9.234,12.539 16.496,15.838l11.212,2.643l2.642,-0.664l5.277,-10.562c3.299,-8.569 2.642,-15.832 -0.657,-23.094c-2.642,-7.256 -8.577,-12.533 -16.496,-16.495l-11.876,-4.615Zm-3.963,23.751c0,-5.277 1.978,-11.212 4.62,-17.81c11.875,3.299 19.137,9.233 23.094,17.152l1.978,9.897c0,6.599 -1.321,11.876 -5.277,16.496c-10.555,-0.657 -17.816,-5.941 -21.773,-14.518c-1.979,-3.297 -2.642,-7.26 -2.642,-11.217Z" style="fill-rule:nonzero;"/><path d="M36.509,385.099c-0.657,-1.321 -1.978,-1.979 -3.299,-1.321c-1.978,0.657 -1.978,1.984 -1.978,3.956l5.277,11.883c0,1.978 1.985,2.642 3.299,1.978c1.984,-1.32 1.984,-2.636 1.321,-3.299l-4.62,-13.197Z" style="fill-rule:nonzero;"/></g></g><rect id="PATH77" x="2.92" y="2.74" width="366.67" height="582.52" style="fill:none;stroke:#000;stroke-width:3px;"/></svg>