<svg xmlns="http://www.w3.org/2000/svg" xmlns:xlink="http://www.w3.org/1999/xlink" viewBox="0 0 976 1600"><defs><style>.cls-1{fill:none;}.cls-2{fill:#f4f3ef;}.cls-3{clip-path:url(#clip-path);}.cls-4{fill:#50b271;}.cls-5{fill:#ffb85a;}.cls-6{fill:#d81e1e;}.cls-7{fill:#592116;}.cls-8{fill:#992d17;}</style><clipPath id="clip-path"><path class="cls-1" d="M960,22V1578a6,6,0,0,1-6,6H22a6,6,0,0,1-6-6V22a6,6,0,0,1,6-6H954A6,6,0,0,1,960,22Z"/></clipPath></defs><g id="Paper_Backing" data-name="Paper Backing"><path class="cls-2" d="M960,22V1578a6,6,0,0,1-6,6H22a6,6,0,0,1-6-6V22a6,6,0,0,1,6-6H954A6,6,0,0,1,960,22Z"/></g><g id="Wikipedia_Cropped" data-name="Wikipedia Cropped"><g class="cls-3"><path class="cls-4" d="M451,1653c-15.39-11.81-18.42-34.94-26.81-51.68-12.62-21.77,1.21-55-13.19-65.89-60.65,29.63-125.85,39.77-194.18,39.36-21.35-6.54,39.57-65.55,49.68-76.44,81.07-81,115.88-33.88,39.71-125.56-12.55-11-90-159.89-61.58-161,81.55,24,156.9,86.68,211.61,145.59,47.64-16.08,115.47-61.35,143.35-110.71,1.91-4.38,9.21-4.27,10.26.49,12.55,43.25,4,82.62-9.68,121.78,1.87,16.41-52.45,75-32.83,76.43,48-8.26,98.18,3.2,144.49,16.51,17.56,33.51-118,68.29-145,74.19-17.17,10.64,34.16,38.64,41,49.85,14.67,11.57,46.53,36.78,13.55,45.84-33.64-17.47-58.47-54.37-88.26-76.2-17.26,15.34-25.43,48.86-44.75,66.5C476.13,1632.13,468.57,1654.72,451,1653ZM102.75,886.76c-9-4.14-1-21.08-3.12-29.55-4-35.66,14.67-72.66,18-103.38-11.48-5.36-26.82,3-39.39,3-24.23,5-50-1.44-72.69,3.79-17.48,12-6.73-40.39-9.53-45.06,24.32-32.37,60.52-65.82,93.71-85.27a6,6,0,0,0,2.35-7.88c-13.2-19.38-75.51-215.19-43.8-206.86,69.85,28.29,109.31,83,150.24,138.34,15.92,21.41,32.29-27.76,49-36.34,17.87-15.21,98.89-92.56,113.28-69.7,5.06,71.17-26.24,139.47-54.49,199.43,39.32,10.57,78.62,21.13,115.06,48.59,13,12.8,58.27,37.35,54.46,53.58-35.73,15-78.22,19.37-116.19,23-29.83,9-120.69-22.86-130-8.06-.63,14.32-.16,23.39-16.13,13.47C202.37,786.13,133.24,875.53,102.75,886.76Z"/><path class="cls-5" d="M0,1604c-11.09-33.16-.38-234-4-276.23,5.1-6.12-7.48-119.21,4-124.8,28.14,30.34,39.89,94.71,40.83,144.3-1,5.21,3.2,10.88,8.69,8.24,59.58-21.15,121.73-32.43,184.22-40.4,25.49.4-26.83,54.36-35.48,65-9.18,17.81-101.85,66.53-84.73,75.55,25.54,12.17,158.74,116.38,77.17,115.34-166.52-17.13-130.26-109.31-180.61,27.22C12.71,1604.57,3.77,1604.31,0,1604Zm576.79-382c-36-10.58-167.62-128.3-53.94-87.51,14.58-5.8,46.55-9.34,43.34,14.75C567.61,1166.65,587.42,1211.3,576.79,1222Zm-200.43-14.27c-9.79-10.18,10.12-42.14,5.79-59,5.46-12.73-8.29-52.69,5.34-53.24,8,1,15.87,8.07,18.84,13.49,3.12,6.38,9.93.39,14,.39A119.79,119.79,0,0,1,440,1114C483.47,1125.33,393.12,1199,376.36,1207.73Zm188.18-155c-21.22,1.15-31.7-20.34-49.33-30.16-13.11-5.3-10.47-14.65-18-18.11-10.59.84-54.26-17.51-27-22.18,13.29-13.68,34-21.64,49.58-34.64,57-33.72,131.49,1.27,186.06,23.85,23.05,10,36.61,17.45,5.58,30.39C666.5,1027.43,614.7,1042.43,564.54,1052.74Z"/><path class="cls-6" d="M356.23,1234.65c-61.83-43.43-84.94-111.54-107.83-180.06-41.53,33.93-72.91,83.3-101.66,128.31-19.48,4.76-33.71-27.93-13.64-37.72,99.1-134.72,136.59-67.93-5-138.32-9.36-9.39-42.59-15-39.63-29,32.17-22.74,72.75-33.09,110.58-42.54,88-7.77,8.09-43.52,31-169.68,19-25.41,120,90.26,132.92,107.09,3.3,4.77,7.84,3.6,12.27.41,21.15-13.33,44.78-19.3,67.79-26.67,60.13-18.64,109.34-15.27,172.2-9.05,6.16.67,6.27,8,1.67,11.87C581.42,912.83,516.34,943.6,462.53,988.1c52.62,36.62,116.71,78.79,155.43,127.38-69.31,34.85-156.84,10.47-227.21-18.28a6,6,0,0,0-8.24,5.91C385.87,1145.46,381.47,1203.44,356.23,1234.65ZM829,968.82c-19.8-32.72,10.05-134.71,21.27-173,51.58-131.35.13-12.43-229.08-46.9-9.3-4.09-39.06.74-35-13.73,38-31.84,72-63.51,117.82-86.58,40.16-21.07,81-37.68,125-49.59,13.07-5.59-4.35-17.05-8.26-23.5C803.13,560.1,722,409,758.46,407.79c75.51,21.63-5.75-5.93,117.74,43.3,33.51,14.29,62.18,35.34,93.07,53,3.71-1,10.21-3.52,10.73,2.54-.16,91-.08,196.72,0,287.73C938.16,855.62,886.3,922,829,968.82ZM303.42,429.89c-16-41.66-3.51-94.86-1-142.13-4.55-16.8,31.64-102-9.47-78.34-57.38,16.34-111.17,45.32-167.63,56.14,14.25-72.66,73.77-126.78,135.61-166,12.4-14.6-50.56-36.07-62.75-51.13-18.46-11.5-35.8-32-55.36-43.56-5.22.09-5.36-9,0-8.84,81.48.08,213.09-.11,294.57.09C443.11,1.71,665.21-15.7,655,3.27c-180.6,123.25-163,12.9-48.76,190.41C629,230,639.18,272.09,649.52,313c-4.43,14.91-33-18.49-42.23-20.58-47.25-34.31-101.75-58-154-80.93C421.57,294,379,373.09,303.42,429.89Z"/><path class="cls-7" d="M976,802c-26.4,52.37-67.08,96.42-107.62,138-14,12.36-26.54,30.34-44.76,36.48-1.89-1.59-4.54-2.21-4.85-6C813.9,889.33,836.38,809,868.16,735.33c-91.19,28.36-191.77,32-284.9,9.41-8-2.13-4.4-8.79-.31-12.18,23.24-19.26,44.68-40.55,69.38-58.21,26.82-19.17,55.58-34.19,85.48-47.75,24.59-11.14,49.2-23.51,75.42-28.08,22.75-4,14-9.67,5.41-19.28a337.81,337.81,0,0,1-75.07-171.83c-.28-1.26,1.71-3.05,2.69-4.57,1.13-1.75,2.39-1.89,4.57-1.33C785.38,411,820,421.15,853,435.12c42.7,17.48,84.74,37.77,119.69,68.45,3.57,3.5.45,4.35-3.07,6.59-64.24-44.5-136.34-78.56-211.85-98.43-11.3-2.12-3.32,9.41-3,12.29,11.06,64.79,46.05,122.93,88.13,172.37-4.29,2.21-8.36,5.37-12.92,6.48-43,11.57-84.66,28.54-124,49.22C662.31,674,625.47,707,588.86,738.41,678.67,758.07,777,754.74,864.72,726.2c8.46-4.38,17.54,1.28,11.85,10-30.42,71.37-52.33,150.47-48.63,228.28,2.88,1.4,2.24-2.45,3.57-3.29C859.6,938.42,884,911.1,907.4,883.52c21.64-25.45,44.8-50.11,59.73-80.39C972.42,788.33,980.84,793.54,976,802ZM840.63,495.49c41.88,38.37,86.46,73.22,132.52,106.42,2,1.4,4.21,3.18,6.06.68,1.43-2,.11-4.6-2-6.17-19.22-13.25-35.69-30.54-55.41-43-41.79-29.32-76.2-67.17-118.88-95.27-1.72-1.18-3.83-2.5-6.17-.2-4.87,8.32,10,21,14.85,26.36,42.12,41.26,81.53,85.43,125.77,124.41,1.07.92,4.09,2.91,1.16,4-19.06,7-38.19,13.84-57.5,20.1-65.87,20.85-134.42,40.55-195.75,71.45,10.76,7.74,24.75-.68,36.43-1.74,54.39-9.37,108.69-19.9,161.69-35.48,27-7.13,53.79-14.72,80.79-21.62,4.49-.91,2.39,1,1.32,2.92-30.62,55-62.4,109.72-84.61,168.82-10.55,26.29-21.23,52.56-31.77,78.85-.51,1.32-1.64,4.28,1.38,4.89,1.87.38,3.67.68,5-2.3a234.48,234.48,0,0,1,13.12-26.07c24.94-37.57,46-77.62,72-114.4,9.4-17.15,21.52-32.12,33.44-47.39,2.37-3,5-6.83,2.5-11-1.38-.2-4.55,1-5.42,2.12-30.86,40.9-59.29,84.46-85.34,128,8.65-31.74,25.21-63.2,41-92.7,16.68-30.26,31.67-61.58,49.13-91.48,1.7-3.1,4.66-6.67,1.24-9.64-1.39-1.85-2.92-.9-4.74-.2-76.35,22.42-154.3,38.56-232,55.57a7.7,7.7,0,0,1,4.63-4.35c19.57-6.71,39.21-13.22,58.76-20q71.43-23.24,142.62-47.8c18.06-4.76-7-16-11.5-21.92C899.7,560.22,863,524.5,825.9,489.11l2.29-2.45C832.35,489.58,836.8,492.18,840.63,495.49ZM731.75,994.67c-50.61,32.64-106.87,49.09-165.15,63.37,17.38,17.55,37.62,32.52,52.23,52.41,5.65,8.12,2.12,11-8.35,14.71-69.56,20.31-37-18.39-27,91.77,12.7,39.37-76.9-34.47-82.39-42.52a169.22,169.22,0,0,1-31.88-46.06c-3-6.42-9.51-.79-13-4.63-7.35,30.06-33.47,50.89-54.73,71.79-22.19,19.25-27.66,10.28-40.27,40.86-6.6,9.71-11.33,0-13.4-2-51.62-47.39-92.06-107.5-97.22-178.64-29.76,29-56,61.36-80,95.21-8.76,6.42-21.33,48.51-32.58,37.93-7.65-6.21-15.65-11.5-19.87-21.36-3.64-8.52,4.26-10.63,7-14.75,25.51-38.43,58.88-71.13,92.5-102.53,5.16-3.75-6.29-4-8.53-5-45.25-10.14-84.62-36-124.6-58.57-12.94-6-1.76-10.95,5.68-15.42,15.75-8.11,30.73-18,47.85-23.11,33.21-10.14,66.48-19.84,101.19-23.12,2-.18,2-1.39.9-3.07-10.39-24.3-13.33-51.11-16.77-77.07,0-20.88-.06-41.37-7.22-61.36-1-3.84-3.26-1.91-4.43-.23-10.09,14.49-19.47,29.51-30.16,43.53-3.53,9-89.19,87-88.36,59.85C88,712.43,180.47,761.52,17.87,765c-6.54.82-15.18-1-15.3-7-.12-5.18,8.93-2.83,13.92-3,33.27,1.09,66.2-1.88,99-7.85,9.28-2.15,12.75,1.68,8.09,10.54-16.73,39.59-21,82.28-20.79,125,41.14-25.52,73.64-62.53,100.9-101.64,13.57-16.67-1.71-27-3.45-40.2-.66-5-5.83-8.35-5.68-14.18.06-2.46-2.69-5-4.17-7.5C168,750.49,152,785.83,139.14,822.05c-1.33,3.39-2.13,8-6.51,6.68-3.84-1.16-1.79-5.81-1.32-8.67,2.31-14,4.36-28.14,7.83-41.89,8-24.52,14.47-50.2,27.39-72.72,1.08-7.8-59.45,2.1-67.5,2.84-25.43,3.43-49.11,12-72.21,22.71-9.36,4-3.28-8.9.3-10.66,35.91-25.57,78.21-45.56,122.53-49.27,7.11-.7,14.35-.18,21.54-.2,2.21,0,1.91-1.38,1.39-2.71-18.1-57.69-49.52-109.61-74.78-164,13.48-2.66,28.56,31.53,36.34,41.09,25.13,34.32,39.88,74.63,62.24,110.64,19.35-58.84,58.11-106,101.28-148.88,4.17-4.42,8.77-8.43,13.14-12.65,1.22-1.18,2.2-3.34,4.25-1.78,1.84,1.4,2.65,3.48,1.09,5.72-20.67,29.4-41.74,58.52-59.18,90-14,24-24.79,49.53-33.81,75.71-.52,1.46-.19,3.19-4.17,4.45,59.44,2.54,115,21.13,168.85,44.66,11.92,5.29,25,8.51,35.07,17.43,5.16,3-.75,8.65-5.21,6.14C354.38,713,285,695.37,217.19,705.83c5.9,14.89,12.07,30,17.82,45.25,2.4,6.36,8.57,4.6,12.47,5.42,36.6,6.76,74.55,14.39,111.8,12.06,38.46-3.69,78.69-7.93,114.54-22.5-33.24-35-74.93-63.77-119.93-81.71-12.68-5-26.64-7.38-40.22-9.21-16.5-2.37-17.52-3.93-8.25-19.44,25.38-45.46,45.77-94.54,50.46-146.85.86-13.87-1.62-27.83,1-41.68.48-2.55-.73-3.28-3.11-2-53.2,28.92-104.86,66.46-138.41,117.72-2.86,5.12-14.9.67-20.12-6.57-9.63-13.37-19.83-26.33-29.74-39.5-32.25-42.26-72.23-79.58-122.23-99.13,3.4,59.61,19.11,118.77,40.1,174.46,3.71,11.25,8.92,22.08,14.33,32.65,2.89,5.64-2,6.77-4.08,7.94C56.84,653.12,28.51,684.13.46,714.76c-.7,1.16-1.45,3.7-3.51,1.34-1.6-1.86-2.77-3.48-.82-6,23.93-33.39,55.35-60.5,90.32-82.07,7-4.12-2.38-10.08-4.15-14.81-10.68-28.63-22.63-56.7-29.72-86.67-8.86-37.34-16.29-75.12-17.79-113.5-.69-9.57,6.08-7,9.4-5.51,70.65,26.71,118,86.4,160.93,146,1.39,2,2.92,6.24,6.66,0,34.73-51.81,86.9-91.63,142.85-118.28,4.94-2,10.29,2.57,10,6.87,3.6,61-7.21,105-32.09,160.63C292,685.13,307.92,619,406.85,680.88c25.35,14.72,47.23,33.71,68.46,53.62a17,17,0,0,1,4.88,14.12c-.37,3-7.06,4.83-10.95,7-24.07,11.86-50.19,15.12-76.37,17.9-44.23,9.27-87.84.63-131.74-4.36,38,23.26,68.93,53.11,95.8,87.92,9.27,11.85,10.55,20,23,7.41,35-17.32,72.87-27.5,111.18-34,40.9-7,81.84-1.15,122.77,2.46,37.27,6.84-50.62,90.31-64.67,98,51-1,101.63,8.63,147.66,30.14a379.64,379.64,0,0,1,37.74,20.59C744,987.41,735.36,992.57,731.75,994.67Zm-517-276.11c-1.69-6.61-14.24-14.08-.59-20.73,4.7-2.29,10.63-2.68,16-2.77a372.77,372.77,0,0,1,119.51,11.86l.33-1.26c-43.28-15.5-88-29.58-134.58-28.7-5.31.33-5.32-4.09-4.08-7.44,16.44-43.24,35.8-85.39,61.83-123.77-30.13,32.11-51.9,70.83-69.25,111.09-2.23,5-5.33,8.79-10.4,10-4.31,1.07-2.2-3.48-3.18-5.29-12.29-22.73-24.33-45.59-38-71.34,1,4.77,1,6.6,1.74,8,11.68,21.57,16.66,45.76,26.62,68,1.34,3,5,9.58-2.8,10.73-37.9,3.77-75.43,7.66-109.24,27.56,6.07-.66,11.93-.38,17.17-2.05,26.53-8,54.19-7.13,81.43-7.88,7.48-.87,7.41,5.79,6.93,7.37-6.53,23-17.64,40.08-21.58,65,14.26-18.68,17.76-38.63,34-55.15,10-13.26,12.54.81,15.87,10.54,6.89,17.89,12.49,36.27,18.65,54.44.29.84,1.53,1.35,2.32,2,3.37-6.12,1.43-14.44,2.51-21.37C226.64,743.23,218.1,731.63,214.75,718.56Zm70.9,296.35c8.19-6,16.25-12.11,24.55-17.91,9.46-7.52,15.13-8.37,12.77,5.3-.24,33.57,4.25,66.26,9.22,99.3a325.83,325.83,0,0,1,4.94,36.27c.12,3.07,4,4.52,3.8.47-7.52-234.34-35.31-132,130-71.3-38.45-25.2-80.16-47.63-113.61-79.41-3.11-3.78-14.45-9.83-7.17-14.65,39.31-25.07,81.69-45.47,123.14-66.81-41.69,11.53-80,33.24-118.22,53.3-6.88,4.19-14.33,11.17-20.63-2.23-19.52-35.3-38.67-71-56.81-107-1.26.77-1.61,1.46-1,3.18,11.71,36.54,25.34,72.37,39.12,108.17,1.11,3-.05,6.55-3.32,5.16C303.5,962.92,294,964,285,963.53c-33.16-2-66.88-1.57-99,8a6.47,6.47,0,0,0,5.18,1.42c37.41-4.38,75-.44,112.37,2.52,3.35.48,9.51-.52,10.56,5.2.32,1.72-1.48,4.71-3.16,5.77-41.69,25.37-78.16,58.48-113,92.5-19.9,19.78-40.62,39-55.81,62.61-5.65,8.76-25.72,15.93-9.26,31.92,3.39,3.3,8.07,8.63,11.57,6.19C181.13,1117.77,227.84,1058.93,285.65,1014.91ZM439,1117.86c-2.87-.75-5.68-2.21-8.56-2.35-6.42-.32-15.23-7.86-16,7.63-1.42,11.76-5.36,25.32-11.36,35.85-14.51-14.53,23-48.55-17.54-59.69,2.92,35.64,1.82,69.58-9.2,104.43,25.49-18.43,48.65-37.19,64.66-64.07C444.07,1134.36,459,1123,439,1117.86Zm123.28,32.32c-1.29-4.81,1.65-14.29-8.06-15a217.94,217.94,0,0,0-24.11.2c2.59,7.84,23.13,29,17,35-2.37,1.8-4.22-1.76-5.7-3.52-6.59-7.84-13.15-15.73-19.39-23.85-2.47-3.2-3.85-7.16-8.61-8-10.68-1.83-21.33-3.89-32-5.79-.69-.12-2,.22-2.11.59a3.74,3.74,0,0,0,.26,2.83c6.51,8.58,13.37,16.9,19.65,25.64,10.71,14.92,25.62,25.2,40.05,35.76,11.91,8.72,23,18.85,37.53,23.93C573.13,1195.37,567.93,1172.47,562.3,1150.18Zm-52.24-125.27c-50.31-40.33-82.58-24.89-26.13-59.67,51.42-29.22,97.78-68.3,129.86-118.37.83-1.28,4.91-5,1-5.49-16.42-2.06-33-3.71-49.5-4.14-64.79-3.5-130.63,8.1-187.86,39.27-5.76,3.63-11.24,6.43-17.5-1.25-32.64-41.69-70.33-79-115.08-107.66-8.17-5.52-10-6-10.8-1.3-9.46,52.89,1.8,105.4,13.22,157,.44,2.25.94,5.66-1.72,6.27-15.12,3.43-30.49,5.87-45.51,9.67-36.88,8.36-72.54,19.8-105.58,38.53a11.56,11.56,0,0,0-3.27,3.13A5.7,5.7,0,0,0,93,982.79c31.13,14.68,116.75,75.49,146.9,47.16,18.84-16.73,37.73-34,61.34-46.14a441,441,0,0,0-107.75-2.57c-13.37,1-26.6,3.9-39.94,5.59-3.41.43-7.64.54-10.27-1.13-2.76-10.49,24.92-16.52,32.47-19.51,41.94-15.14,85.7-10.81,129.2-9.23-14.44-33.27-26.43-67.93-36.82-102.9-4.55-15.35-10.47-30.51-11.11-46.82,0-4.88,3.55-7.51,5.13-1.7,27.51,46.16,49,95.89,75.48,142.78,1.74,3.22,3.57,11.17,8.87,7.77,40.49-25.15,85.17-42.32,128.87-60.88,14.26-5.72,28.75-12,44.81-11.63,5.13-1.57,7.6.35,2.68,4.91-54.57,31.57-110.81,58.6-166.07,89.33,53.09,44.74,113.84,79.43,176.41,109.39,4.24,1.66,11,3.29,9.54,9.75-1.34,5.9-5.65.2-7.71-.28-37.67-6.92-71.49-24.62-106.36-39.51-31.19-14.52-56.89-35.23-85.68-54.58,2.45,59.8,9.93,118.89,4.11,178.65-.25,2.17-.46,2.73-2.92,2-9.9-2.92-6.37-12.72-8.61-18.76-7.74-20.87-10.33-43.18-13.24-65.28-5.18-30.07-9.25-60-7.41-90.61,0-2.06,1.05-4.34-3-2-15.64,9.14-29.71,20.4-43.4,32-4.27,3.62-12.27,6.22-11.2,13.82,7.39,70.54,45.82,132.61,98.94,178.18,21.2-40.26,26.41-86.29,22.07-131.07-.18-2.93-5.16-13.92,7.15-8.86s24.86,10,37.4,14.64c60.17,23.16,126.23,30.57,188.64,11.52,1.7-.5,3.46-2.4,2.17-3.59C579.6,1083.18,547.47,1051,510.06,1024.91ZM465.23,987.2c17.55,15.43,41,14.95,62.83,13,31.29-3.09,62.68-5.15,94-7.86,0-.32.06-.63.1-.95C570.28,984.46,517.19,981.51,465.23,987.2Zm261.43.67c-40.16-27.32-162.23-71.7-204.32-37.18-12.81,11-28.65,18.4-42.65,27.11C541,974.42,602,980.13,662.78,991.25c-51.13,11.88-103.19,14.33-156.35,20.19,36,20.82,38.18,48.59,81.56,32.38C635.79,1029.56,685.55,1017.21,726.66,987.87Zm-8.13,472.85c-48.39-21-103.32-29.89-155.38-19.54,21.64-25.57,37.51-54.49,46.4-87.08,10.52-35.68,16.35-73.17,5.16-109.32-1.55-11.14-12.57-20.33-16.8-4.12-25.56,50.26-77.65,73-122.25,102.71-8.75,5.81-14.27,16.59-26.55,1.72-53.09-60.4-120.78-109.15-196.33-137.39-6-2.19-12.62-2.46-18.34-5.84-4.12-2.43-4.49-.18-1.45,15,16.27,79.89,56.27,153.49,112,213,2.55,2.77.84,3.89-.9,4.91-15.12,8.79-29,19.26-43.08,29.63-125.91,89.37-40.23,108.14-131.15,27.76-16.36-13.82-31.72-28.67-51.6-37.57-1.65-1.09-4.61-3.65-1.78-5.48,33.88-22.76,68.06-45.44,95.81-76.07,14.35-16.38,26.13-34.17,36.55-53,3.43-6.21,1.61-9.46-6.36-9.24-12.9.36-25.54,2.82-38.28,3.81-52.17,7.13-105.09,16-154,36.08-2.45,1.14-5.69,1.16-5.23-3.61,3.38-22.34-1.15-45.54-4.44-67.75-5.55-21.64-12.48-43-23.86-62.45-3-5.07-3.81-15.44-12.14-13.26-5.51,2-.45,9.63,1,12.78C29.06,1260,37.91,1309.68,37,1358.81c.1,4.64.88,7.91,6.83,4.4A82.45,82.45,0,0,1,61,1355.14c57.94-16.19,117.27-31.81,177.31-35.52-29.12,54.59-79.69,91.93-130.71,124.63-5,3.74-8.09,10.42.17,13A338.63,338.63,0,0,1,212,1549c6,8.84-6.41,11.84-5.16,18.91-55.81-1.56-110.64-21.22-159.11-48.85-5.51-3.3-11.07-3-12.56,3.68-5.59,25.28-18.95,47.18-29.48,70.31-1.23,2.7-1.27,5.18.79,7,1.75,1.52,3.65,1.51,4.61,0,3.84-6.48,8.56-12.63,11.48-19.54,5.91-14.24,16.09-26.67,17.22-43.12.23-3.37,1.22-15.58,12-8.2,107.24,64,249.51,66.79,360.4,10.08,1.42,19-1.61,38.75,5.39,56.82,6.3,18.22,13.39,36.29,23.44,53h10c-21.21-32.41-32.45-70.52-30-109.37,0-2.84,1.36-6.82-2.15-8-14-3.93-33.76,14.78-49.47,16.89-49,16.58-100.83,22.64-152.55,22.29-3.43,0-2.6-1.73-1.51-3.28,34.1-55.32,85.35-97.36,140.61-130.74,1.39-.81,4.69-2.52,1.72-6.14-36.13-43-72.25-87-92.39-140.09-10.44-22.82-14.84-47-25.06-69.87-2.11-12.83,28.84,2,34.32,5,67.86,34.66,131,78.73,180.75,136.82,1.81,2.21,4.08,3.83,7.21,1.83,49.88-35.08,111.23-58.82,140.64-115.84.54-1,2.38-1.92,2.91-.09,12,39.48,3.94,81.43-9.66,119.24-8.67,25.17-22.56,48.16-39.63,68.93-3.68,4.48-6,10.17,1.56,12.06,6,1.51,12.91.59,19.23-.43,16.37-2.63,32.83-2.2,49.05-.38a516.76,516.76,0,0,1,84.12,17.9c.32.09,3.51,1.34,1.42,3.22-8.21,7.39-15.61,16.33-25,21.56-39.07,19-80.85,33.6-123.54,42.13-2.54.48-6.22,1.31-7.69,0-13.84-12-27.31-24.35-42.68-38.23,22.92,1.95,43.33-1.28,63.82-2.64,23.32-1.55,46.78-3,69.69-8.61,4.68-1.14,3.18-6.31,6.55-7.91-1-1-2-2.5-3.15-2.75-23.65-5-47.9-5.4-71.81-9-28.13-4-57.22-1.49-85.73-3.09,33.82-40.75,72.05-81.73,88.21-133.94a5,5,0,0,0-2-5.65c-2.37-1.83-2.17,1.49-3.24,2.27-8.19,6-10.48,16.3-17,23.6-27.7,33.37-60.74,61.39-92.79,90.43-2,1.79-3.12.23-4.14-.73-48.52-47.61-98.27-93.76-144.31-143.91-4-4-9.9-3.62-4.92,2.72,36.52,55.47,78.63,106.93,121.47,157.64,2.28,2.75.71,3.23-1.78,4.19-30.28,11.67-60.65,23.13-90.71,35.36-20.67,8.41-38.88,21.37-57.45,33.56-1.82,1.19-5.7,1.5-4.32,4.81s5.54,3,8,2c13.38-5.87,26.84-11.26,41-15.09,37.7-12.19,76.12-21,114.24-31.73,1.76-.62,12.15-11.27,11.56,1-.85,17.72-3.31,35.43-3.37,53.27,1.18,10-3.68,64.65,6.53,64.58,3.78-.29,3.87-3.68,3.53-6.49-3.64-21-1.1-42.38-2-63.56a306,306,0,0,1,3.56-55.18,7.19,7.19,0,0,0-2-5.65c-1-.89-3.7-.4-5.46.11-14.44,4.2-28.75,8.83-43.26,12.77-28.58,7.56-55.68,13.69-84.3,22.6,11.33-10.59,25.29-12.64,37.57-18.19,25.53-11.51,51.65-21.69,77.55-32.37,3.43-1.42,5.51-2.45,2.05-6.49-21.93-25.9-43.87-51.8-64.67-78.63,29.52,19.18,51.05,48.58,77.62,71.67,1.18,1.13,1.94,4.52,5.33,2.3,32.41-22.28,60.74-49.73,87-78.8-6,17-18.34,30.13-29.17,44.09-12,14.45-22.89,29.79-36.71,42.69-3.27,3.06-8.55,6.14-6.91,11.68,1.76,6,8,4.34,11.56,3.36,13.87-3.82,27.82-1.31,41.58-.94,34.08,1.29,68.33,4.25,102.26,7.81-13.66,5.7-28.19,3.16-42.28,4.79-26.42,3.06-53.19,3.27-79.82,4.41-14.05-.35-17.78,3.62-5.14,11.52,35.8,35.64,75.21,67.3,112.23,101.64q4.64,4.14,9.26,8.32c3.49,3.16,8.67,5.38,4.14,12.22-9.35,14.12-16.4,4.12-23.27-1.9-43.28-39-84.93-79.25-123.15-123.36-2.38-2.56-4.93-3.11-5.79,1.77-1,5.87-2.92,11.61-3.76,17.51Q469,1557.25,463.27,1600c-.42,2.21-.85,5.44,1.17,6.88,11,7.85,16.1-88.82,18.89-99.4,12.65,12.42,25.29,24.63,37.64,37.12,2.38,2.42,5.9,7.11,5,8.82-16.13,36.06-39.64,67.33-67,95.58h12c13.4-15.59,28.48-31,39-49,6.45-10.1,12.36-20.58,17.93-31.24,5.13-9.83,7.67-9,13.38-2,19.66,23.7,44.76,42.37,67.16,63.43,5.14,4.55,10.28,8.58,18.54,3,16.39-10.82,13-23.88.24-33.23-20.6-19.28-41.07-39.18-61.24-58.36,53.21-13.52,112.59-28.13,152.58-68.43C721.84,1469.72,727.07,1465.24,718.53,1460.72ZM130.84,272.17c55.79-22.19,114.94-35.55,169.53-60.78,12.44-3.85,8.79,1.5,6.44,10.18-10.27,39.08-12.07,79.77-15.65,119.84-3,26.88-.77,53.38,3.3,80,1.28,14.61,4.32,17.32,14.16,10.18,69.07-50.44,118.09-127.35,144-208.18,1.89-5.49,3.38-5.79,7.15-4.19C522,249.38,587,276.27,640.79,321.14c6.29,5.45,16.37,8.55,12.06-3.95-3.63-31.84-15-62-25.2-92.18C603,173,570.59,123.92,526.85,86.13c-.7-.7-11.71-3.46.61-7.88C572,61.75,613,36.53,653.15,11.21c5.79-2.24,9.74-16-.47-11.21-40.59,29.32-86.18,49.77-131,71.44-3.66,1.88-13.14,1.72-9.91,9,7.11,16,21.78,26,34.41,37.17,12.29,10.84,20.87,24.32,30.47,37,35.73,47.55,56.42,101.29,69,159.4-39.38-27.69-75.42-53.1-118.12-73.28-21.5-10.94-44.94-17.76-65.36-31-8.56-5.56-14-3.62-17.38,6.68-23.86,82.38-76,154.31-141.36,209.51-8.38-74.12,3.1-148.33,15.45-221.51,2.47-11.9-25.17,1.31-30.49,2.42-53.82,17.33-106.24,39-160.13,56,20.15-69.24,75.15-124.23,136-160.51,4-2.16,12.16-8.76,4.34-13.41C228.21,65.39,189.14,39.42,154.69,7.75,151.46,4.85,148,.84,142.86.84c-25.69-.93,110.06,92.4,118.9,93.52-47.25,21.69-93.48,71.9-120.81,115.33C135.46,219.25,98.6,284.54,130.84,272.17ZM228.33,6.6c49.45,27.39,99.07,54.76,152,74.88.18.06,4.6,1.54,1.15,3.42-27.9,15.38-56.78,29.1-84.34,45-26.62,17-51.09,37.41-75.39,57.53-2.37,2-6.65,6-3.82,10.57,1.29,2.07,4.65,1.7,6.8.26,51.68-30,106-55.29,159.26-82.46,1.49-.74,5.31-3.36,4.7,1.18-7.92,50.64-21.42,101-34.42,150.4-9.44,24.25-15.56,49.54-25.13,73.69-.57,1.44.21,4.19,1.35,5.34,2,2,2.44-1,3.5-1.87,16.61-20.93,23.48-48.46,35.52-72.11a1024.24,1024.24,0,0,0,55.57-160.74c.52-2.3,1.32-3.66,4-1.64,47.36,32.28,87.75,73,133.61,107.17,2.93,2.28,5.75,7.78,10.26,5.46,8.28-3.73-14.16-25.16-17.09-29.74C517.25,152.1,484.62,105.9,439.4,71.6c34.23-9.55,67.9-21,99.29-37.76,13.12-6.17,24.73-15.54,37-23.54,4.39-1.88,8.61-6.75,1.7-7.78-15,5-27,18.24-41.84,24-19.2,8.81-37.72,19.23-58.06,25.61-13.88,4.35-27.38,9.92-41.16,14.64-2.4.83-6.32-1.74-7.21,2.37-.8,3.68,1.84,5.71,4.77,8.15,15.19,12.65,30.58,25.18,44.62,39.05,21.76,23.25,41.24,48.84,62.88,72.3-37.1-24.2-66.9-59.42-105.23-82.29-14.22-9.23-15.35-8.1-19.35,8.09-12.81,54.35-35.41,105.65-54.41,158,12.07-53.29,27.14-105.87,35.22-160,9.82-21-40.13,10.31-46.08,12.31-35.89,18.67-67.7,34.47-105.14,52.06,45.68-42.18,102.4-62.21,153.65-93.41-1.51-1.43-2.77-3.45-4.56-4.19-11.79-4.89-23.93-9-35.5-14.33-28.1-12.94-56-26.34-83.9-39.71-14.72-7.06-29.25-14.51-44-21.6-1.73-.82-4-.35-5.9-.5C226.9,4.23,227.28,6,228.33,6.6ZM438.42,44.41C479.78,41.47,521.71,30,555.65,5.65c1.23-.92,4.23-1.27,2.57-3.5-6.39-3.21-17.85,6.43-24.56,8.33C525,15,437.09,49.22,439.07,35.12a94.81,94.81,0,0,0,2-27.06c-.29-3.91,1.43-8.47-2.68-11C436.13.5,434.61,3.47,434.54,8c-.11,8.2-2.67,16.33-3.36,24.57C430.76,37.65,428.05,44.21,438.42,44.41ZM252.31,3.24c44.89,22.85,92.36,39,139.33,56.94,3.54,1.29,11.94,6.05,13.76-3.36a169.12,169.12,0,0,0,3-27.67c-.36-6.71,4.78-32.4-5.33-32.19-2.26-.13-2.08,1.55-2.14,3-.62,12-1.27,24-2,38.23,0,.41,1.1,4.15-.23,5.49-2.57,2.6,2.18,11.93-7.78,8-18.89-7.4-38.07-14.09-57.23-20.83C306,22.52,282.14,5.74,253.81-.9,250.76-1.36,246.05,3.35,252.31,3.24ZM10.92,1539.6c6.84-23.16,13.73-46.31,20-69.61,2.85-10.52,3.21-12.25,5.93-10.14,25.64,18.51,98.11,78.05,126.87,74.87a9.83,9.83,0,0,0-4.05-6.2c-18-14-36-28.17-53.37-42.93-18.95-16.72-38.63-32.93-56.36-50.91,20-10.94,41.87-18.91,61.31-31.28,26.8-15.23,53.37-30.88,80-46.39,3.9-1.75,5.8-9.41.4-9.85-27.16,9.73-53.13,22.86-80.23,32.56-31.06,8.86-60.46,22.66-90.38,33.79-1.42-32.59-8.43-64.61-12.32-97-.59-3.57-4.5-1.93-7.41-1.94-2.67-.19-2.94,1.64-2.35,3.51,3.58,30.42,15.16,59.24,14.4,90.45.05,5-.19,16.25,12.47,10.81,9.62-4.14,19.41-7.93,29.08-12,24.83-10.09,50.63-18,76-26.69-23.11,17.72-50.5,27.63-75.31,42.48-30,7.62-8.23,23.38,6.25,35.6,19.54,16.61,39.44,32.8,59.2,49.16l-.8,1.08c-30.57-17.47-59.69-36.17-85.6-60.11-9.17-7.64-9.36,14.41-11.76,19.26-7,25.59-11,52.12-22.95,76.23C-3.43,1563.66,9.06,1548.31,10.92,1539.6Z"/></g></g><g id="Red_Japanese_Frames" data-name="Red Japanese Frames"><path class="cls-7" d="M0,20V1580a20,20,0,0,0,20,20H956a20,20,0,0,0,20-20V20A20,20,0,0,0,956,0H20A20,20,0,0,0,0,20ZM924,1548H52V52H924Z"/><path class="cls-8" d="M952.1,15.41,928.69,38.83A4,4,0,0,1,925.86,40H50.14a4,4,0,0,1-2.83-1.17L23.9,15.41A2,2,0,0,1,25.31,12H950.69A2,2,0,0,1,952.1,15.41ZM40,1549.86V50.14a4,4,0,0,0-1.17-2.83L15.41,23.9A2,2,0,0,0,12,25.31V1574.69a2,2,0,0,0,3.41,1.41l23.42-23.41A4,4,0,0,0,40,1549.86ZM936,50.14V1549.86a4,4,0,0,0,1.17,2.83l23.42,23.41a2,2,0,0,0,3.41-1.41V25.31a2,2,0,0,0-3.41-1.41L937.17,47.31A4,4,0,0,0,936,50.14ZM925.86,1560H50.14a4,4,0,0,0-2.83,1.17l-20,20a4,4,0,0,0,2.83,6.83H950.69a2,2,0,0,0,1.41-3.41l-23.41-23.42A4,4,0,0,0,925.86,1560Z"/></g></svg>