<svg xmlns="http://www.w3.org/2000/svg" xmlns:xlink="http://www.w3.org/1999/xlink" viewBox="0 0 976 1600"><defs><style>.cls-1{fill:none;}.cls-2{fill:#f4f3ef;}.cls-3{clip-path:url(#clip-path);}.cls-4{fill:#50b271;}.cls-5{fill:#ffb85a;}.cls-6{fill:#997664;}.cls-7{fill:#d81e1e;}.cls-8{fill:#592116;}.cls-9{fill:#992d17;}</style><clipPath id="clip-path"><path class="cls-1" d="M960,22V1578a6,6,0,0,1-6,6H22a6,6,0,0,1-6-6V22a6,6,0,0,1,6-6H954A6,6,0,0,1,960,22Z"/></clipPath></defs><g id="Paper_Backing" data-name="Paper Backing"><path class="cls-2" d="M960,22V1578a6,6,0,0,1-6,6H22a6,6,0,0,1-6-6V22a6,6,0,0,1,6-6H954A6,6,0,0,1,960,22Z"/></g><g id="Wikipedia_Cropped" data-name="Wikipedia Cropped"><g class="cls-3"><path class="cls-4" d="M663.68,1604c-17.37,2.32,46.92-78.1,53.78-81.52,30.65-51.27,69-102.35,93.11-159.64,22.21-63.2-15.82-.91-16.25-.33-13.56,21.3-29.49,42.24-43.61,63-6.6,10.06-15.94,24.89-26.71,32.87-7.59,6.24-7.26,19.11-16.72,25.68-16.38,16-25.16,36.55-42.48,51.21-56.58,90.85-38.13-7.31-42.56-53,.11-59.74-2.86-120.61-.64-178.32-5.08-32.88,6.9-29.82,33.19-31.9,3.13.65,5.85,3.77,9.24,1.59,13.79-8.16,27.39-4.21,42.06-6.6,4.71-1.15,7.32,3.76,11.5,4,6.35-3.6,16.39-5.09,19.8-11.38,4.37-11.74-8.44-16.93-12.81-26.74-1-12.54-14.31-21.47-17.26-34.48-2.15-8-16.21-10.25-13.05-22.58a6,6,0,0,0-3.77-6.62c-7-3.3-12.8-21.13-18.52-28.48-10.23-8-11.54-23-17.6-32.12-9-5-10.8-21.87-16.32-29.69-5.42-4.94-12.39-14.87-14.46-23.61-10.19-42-.59-86.16-4.19-128.06-2.64-15.28,2.72-31.48.42-45.55-1.42-5.22,1.12-9.15-.15-13.84-3.74-6.32,2.58-16.41,1.35-23.5-1.87-28.52-1.88-63.35.51-91.33-8.22-15.2,2.32-32.8-.29-46.49-4.38-13.71-2-29.89-1.11-44-3.19-16.83.25-34.67-.12-50.71-3.94-17.56-3.38-36-1.37-52.94-1.84-12.81-6.54-28.5-2.08-40.79,3.94-4.6-.63-8.83-3.38-12.24,3.25-12.11-3-24.81,1.23-38.07,1.35-7.18-9.91-18.14-14.75-8.28-1.15,12.71-.56,27.15-1,41.62C587.58,649.4,597,802.38,591.32,951.86c.16,46-27.64-16.29-27.13-30.89C562.49,910.31,551,900.7,551,889.14c-4.16-8.49-1.67-17.15-4.56-24.54-5.24-4.89-6.53-11.46-7.67-17.26-4.93-16.65-8.45-32.64-12.83-48.88-3.67-16.5-11-32.21-8-48.36A115.25,115.25,0,0,1,505,693.59c-9.49-18.81-12.94-41.38-12-60.81-12.49-18.59-8.43-43.36-13.81-64.69-4.25-20.2,9.61-40.05,14.59-58.71,14.72-38.2,33.51-74.5,56.9-107,11-12.64,20.5-30,34.59-36.43,6.2,5.18,6,16,12.08,22.39,26.95,8.5-.91-63.74,48.94,17.29,47.83,90.66,71.57,196,89.92,297.09,22.56,121.85,36.36,245.71,45.12,370.68,4.91,42.83,5,86.56,8.88,128.3,4.54,26.62-3.77,59.55,8.17,83,12.24-1.16,22.94-20.76,36-17.44,5.1,7.65-12.74,33.62,6.52,29.83,14.56-2.93,23-20.15,34.29-23.48,42.58,17.83,82.86,74,104.38,120.36C985.58,1702.33,1011,1581.08,663.68,1604Zm-494.4,0c-4.16-2.28-8.29-5.43-12.66-7.76-3.19-7-3.59-21.6-2-29.75-2.6-14.71.28-30.71-3-45.57.41-67.69-4.81-137.52-2-205.38-1.82-14.75-4.46-31.58-.45-46.45-5.3-17-7.23-53.07.73-65.51,2.13-11.64-15.34-23.13-5.51-38.18-1-16.14-4.6-34-2.26-50.75-5-24.83-1.8-51.51-2.85-76-4.14-9.91-2.83-22.68-.51-32.76-1.68-9.84-5.27-22.3,1.59-33.37,3.11-7.29-9.58-9.69-3.83-17.42-.22-15.45-2-30.31-2.23-46.48A123.46,123.46,0,0,0,131.11,875c-2.59-12.48,3.28-18.07-1.8-30.78C110.48,801.65,110.6,944,111,952.67c-3.29,47.12-1.2,93.67-2.51,140.87-2.51,7.89,2.63,11.52-1.19,19.65-2.7,2.32-5,5.62-2.8,9.14,9.32,18.07-2.55,43.76,3.73,63.13-3.61,32-.4,64.4,1.68,96.9,2.31,15.18-.15,30.66-1.71,44.43,6.73,9.29,1.89,21.39,3,32.92.46,3.69,1.1,8.6-1.66,11.48-5.17,9,6.38,17,1.57,29.18,1.6,24.53-2,51.19,1.63,75.21.65,39.29-1.4,75.7,2.39,114.59C137.94,1618.67,5.46,1598.09,0,1604c-10.7-27-.66-93.32-4-124.34.24-80.78.16-172.64,0-252.69.5-151.45-11.87-325,74.51-455.17,40.17-47.74,17.29-28.61,48.9-1.43,14-1.27,8-29.7,20.44-27.63,21.57,16.77,41.63,57.36,50.69,85.93,55.24,145.35,69.78,302.46,93.1,456.39,146.24-9.71,71.41,50.29,105.22-152.33C417,1154.92,471.44,1297.19,511,1287.62c17.58.89,75.06-21,72.38,7-2.62,68.14-1.5,130-1.1,199.09.59,32.1.49,64.69.46,96.61-2.29,11.73-27.88-9.84-31.44-13.58-70.12-44.54-130.47-104.08-189.05-161.92-7.15-3.29-8.93-12.65-14.9-16.64-7.45-1.9-7.12-6.56-11.77-11.91-8.25-6.7-14,5.94-6.56,11.2,48.1,60.39,95.13,131.53,156.29,180.55,5.26,4,9.56,8.29,13.86,12.23,4.46,1.32,6.27,5.15,5.37,9.76C505.47,1611.32,173.24,1600.24,169.28,1604Zm65.34-348c-23.41,27,24.31,76.08,52.63,75.08C289.65,1306.51,268.53,1247.8,234.62,1256Z"/><path class="cls-5" d="M281.36,1329.83c-24-2-74.24-53.3-42.14-73.44C264,1252.05,297.7,1318.39,281.36,1329.83Zm552.93-30.4c-11.74-19,13.47-71.62,42.46-65.68C897.61,1254.2,858.24,1293.27,834.29,1299.43ZM118.79,771.49c-47.78-33.32-4.24-131.84,18-81.42C137,717.73,141,754.56,118.79,771.49ZM602.53,393c-11.32-1.83-35.83-70.95-1.36-84.35C629.33,311.76,614.24,379.49,602.53,393Z"/><path class="cls-6" d="M583.74,1604c-5-4.48-94.46,9.9-87.17-8.58,3.25-8.35-7.28-12.15-11.88-17.23-34.35-28.43-68.61-69.38-92.42-100.83-14.84-19.95-30.75-39.65-46.14-58.71-4.07-8.05-23.89-21.08-16.94-30.27,79.67,61.95,151.64,158.25,248.82,205,13.51-6.74,2-31.72,5.12-44.92-.14-61.59.09-122.94-.3-184.21,5.8-28.34-18.34-86.24,23.89-87.18,9.54-2.36,20.48,2.13,14.32,13.21-.58,50.28.85,101.21,1.81,152,5.9,17.28-12.74,145,10.43,133.23,60.66-69.25,115.22-142.9,167.14-220.39,56.2-56.24-72.34,155.38-87.87,168.93C650.13,1601.09,688.72,1608.1,583.74,1604Zm-467.36,0c-7.87-249.29-15.93-511.07,0-763.41,5.34-46.39,17.67,1.48,16.09,20.26,9.11,192.09,13.16,384.33,18.6,576.56.51,48.53,4.83,100.94,2.75,149-1.85,7,7.43,8.95,7.19,14.57C161.57,1608.08,119.23,1602.07,116.38,1604ZM616,1034.19c-48.15-54.66-17.25-138.75-25-206.06,2.08-110.74-3.14-224,5.66-334.25,14.58-272.46,28.38,244,24.25,287.32-.09,45.24-.06,92.37-.06,137.6C616.91,955.54,629,1002.11,616,1034.19Z"/><path class="cls-7" d="M507.64,1283.73c-32.88-5-42.72-52.63-65.58-74.27-40.48-64.7-78.46-131.87-103.8-203.67-70-174.13-106.59-363-122.71-551-2.26-36.31-5.16-72.37-10-108.38-.47-16.65-10.51-41.31,16.92-31.32,74,1,148,4,222.18,7.3,8.17-.19,19.47,2,14.59,12.8-.39,45.52,4.56,91.39,6.25,137,5.43,101.36,27.58,201.14,48,300.19,35.58,170.52,119.38,323.58,212,468.83l-.1-.08c28.94,31.92-33.64,20.84-49.69,25.14-56.21,4.31-112,10.57-168.14,17.5Z"/><path class="cls-8" d="M785.21,344.54c1.17,23.21-31.53,18.26-28.34,0C758.86,329.08,786.92,329.37,785.21,344.54ZM761.72,200.66c9.35-.26,11.59-9.95,12.74-16.81,1.09-6.48-5.76-11.61-11.79-10.42-6.27,1.24-14.72,3.45-13.7,14C747.79,196.55,754.3,200.86,761.72,200.66ZM734,55c11.51-.09,12.79-24.3,1.17-24C719.86,28.72,717.21,58.44,734,55Zm87-30.37c12.16,1.14,10.89-22.24.68-21.89C804.8,2.93,808.15,25,821,24.66ZM849.1,186.9c0,17.36,23.1,23.63,24.37,2.36-2.53-3.8,0-12.44-8.56-12C858.65,177.58,848.24,174.74,849.1,186.9Zm-4.54-65.06c13.2,1.86,18.76-26.11,1.49-22.82-5.86-.71-11.28.35-10.92,7.56C835.46,113.07,837.18,121.5,844.56,121.84ZM795,93.06c12.14.55,9.82-23,.91-22.74C780,68.65,777.16,94.45,795,93.06Zm-74.37,44.26c14.75-1.15,17.72-32.65,2.13-32.1-10.44,1.24-15.62,8.85-14.37,19C709.15,130.16,709.63,138.75,720.64,137.32ZM789.05,252c.5,7,6.49,10.18,11.92,9.82,16.22-2,15.45-23.58-1.45-24.92C792.9,239.58,788.49,244.32,789.05,252Zm16.73,223.33c-4.94.35-12.24,1.23-11,10.12,1,5.47,1.57,12,9.24,12C816.84,498,819.2,475,805.78,475.32Zm22.53-61.83c.54,6.05.17,13.37,14,13.9,6.29.52,8.17-7.44,9.12-15.14C854.16,394.2,825.75,395.86,828.31,413.49ZM524.84,219.16c19.11,1.94,22-28.53,3.87-28-8.31.11-13.73,5.91-13.45,14.06C515.47,211.34,514.37,220.73,524.84,219.16ZM506.87,65c12,.31,17.45-22,3.24-22C496.19,41.28,490.56,64.89,506.87,65Zm34.76,63.82c8.11,0,13.88-3.67,11.22-13.51,5.78-18.47-24.26-15.42-23.49-.39C529.35,121.7,533.12,128.81,541.63,128.79ZM441.09,97.63c-.35,5.53,2.54,8.73,8.74,7.25,10.7,2.54,10.32-6.35,10.76-12.09.42-5.56-5.39-6-9.9-6.14C443.16,86.42,441.44,91.93,441.09,97.63Zm31.48,75.91c11,1.07,12.28-23-1.12-20.62C456.59,150.88,452.72,174.13,472.57,173.54ZM650,133.18c8.17-1.25,5.63-10.81,6.62-16.93s-4.78-9.58-10.5-9.07-13.57,2-12.79,9.57S636.34,133.08,650,133.18Zm10.19-72.61c2.7-.68,8.93-2.9,8.52-10.26,1.94-17.46-21.4-13.36-21.31,1.27C647.25,55.72,649.51,61.94,660.22,60.57Zm-67.29-4.65c7.18-1.79,5.43-7.76,5.81-9.12,1.81-11.07-3.67-12.7-9.28-12.83C572.89,32.86,575.14,62.7,592.93,55.92ZM696,246.82c6.32.27,11.61-2.72,11.09-10.65.82-11-8.25-11.62-15.1-12.95C677.27,221.65,681.69,248.23,696,246.82ZM597.17,165c-17.07-3.54-12.56,29.63,3.32,26.74C615.64,191.09,615,161.59,597.17,165ZM883,637.64c13.1.19,13.19-23.43-.24-22.4-6.74.11-10,5.23-9.8,12.85C871.54,635.36,877.65,637.53,883,637.64Zm39.9-483c11.11.42,12-28.11-1-25.69C903.48,128.6,905.24,157.09,922.88,154.61ZM897.52,443.42c.86,16.92,24.61,12.53,23.65-3.48.2-8.45-5.31-12.87-12.34-12.66C899.48,427.56,897.59,436.24,897.52,443.42ZM852.33,1030.8c9.24-.44,12.07-9.15,12.1-16,0-7.13-4.6-13.07-14.06-12-10,1.12-6.46,10-9.59,14C841.29,1025.29,844.55,1031.17,852.33,1030.8ZM835,847.65c-5.58,1.61-12,2.67-12.12,11.17-.15,7.83,2.85,13.36,11.11,13.16C849.2,872.41,851.61,848.69,835,847.65ZM947.37,216.13C947.88,197.32,923,200,923.06,215,922.5,232.31,947.19,234.31,947.37,216.13ZM933.54,520.57c-.85-15.87-24.7-10.52-22.61,4.53-.11,7.31,1.32,13.16,10.14,12C934.39,538,933.29,528,933.54,520.57ZM938.7,90.91c16-.36,11.88-24.07-1.1-22C923.66,68.75,925.72,91.51,938.7,90.91ZM861.64,507.15c-1.46,19.66,25.25,18,23.89-1,.36-6.55-2.06-12.24-10.37-11.14C865.58,493.65,862,499.57,861.64,507.15ZM913.37,885.9c-9.37,1.19-8.12,10.09-7.77,16.67.34,6.16,4.92,8.93,11.14,8.5C935.69,910.13,931.12,882.05,913.37,885.9Zm1.14-219c-8.71.14-12.34,4.12-11.3,14.32.48,4.73,1,11.84,8.51,11.67C927,694.72,931.19,664.5,914.51,666.93ZM847.7,686.2c.21,4.59,1.41,13.15,8.32,12.25,5.5-.72,17,3,14.93-10.44,1.86-11.56-7.23-12.13-14.62-12.82C849.4,674.55,847.51,682.06,847.7,686.2Zm86.71,104c1.09-17.23-25.82-12.61-21.55,3.57,1.14,7.06,6.21,7.23,14.23,7.75C933.07,802.55,933.67,795.78,934.41,790.25Zm-53-422.06c-.11,16.18,26.17,15.31,24.16-1.67C905.68,349.1,880.06,354.72,881.37,368.19Zm9.22,358.61c-7.81.26-8.93,5.86-9.7,12.11-1.33,10.63,6.58,11.18,13,10.58,8.25-.77,7.17-9.31,7.53-14.59C901.83,729.19,896.79,726.37,890.59,726.8ZM887.87,53.74c6.21-.52,10.68-4.55,9.18-11.67.06-6.57-1-13.76-8.12-13.66C873.25,27.45,870.36,55.48,887.87,53.74Zm11.08,789c.36-16.93-23.43-14.09-22.66,2.42C876.42,859.85,899.75,856.84,899,842.73ZM889.13,251c-8.41-1.58-9.77,5.6-9.66,10.52.11,4.77-1.34,12.43,7.29,13.62C903.41,278.43,906.86,249.14,889.13,251ZM861,783c-12.56.37-11.13,24.65,7.61,22.14,8.09-.18,6-6,6.38-10.27C877.55,782.06,868.9,782.7,861,783ZM444.8,51.6c12.94,1.72,13.74-20.61.72-20.56-7.93-.5-7.38,6.22-8.65,11C434.7,49.45,440.38,51.2,444.8,51.6ZM869.64,1157.29c16.73,1,18.14-23.46,3-24.46C858.89,1130.55,857.14,1159.22,869.64,1157.29Zm-4.82-838.08C866,312.14,862,308,854.21,309c-11.6-2-13.2,6.46-13.85,14.38C841.3,336.93,864.75,331.65,864.82,319.21ZM861,915.14c11.34-1.54,9-11.86,9.53-18.73.51-7-6.7-5.56-11.45-5.69-9.34-.27-10.31,6-10.12,14C847.43,913.53,853.15,916.2,861,915.14ZM376,99.6c-2.3,13.9,19.12,19.07,21.24,4.44-1.61-5.72-1.31-14-9.15-14.58C382.88,89.05,376.48,91.78,376,99.6ZM45.94,543.92c-.38,13.94,18,15.37,18.26.53C63.87,532.47,45.2,531.51,45.94,543.92Zm360.74-359c16-1,15.62-24.53-.68-23.18-6.4.38-5.22,7.33-7.32,12.29C401.27,177.91,398.39,185.43,406.68,184.92ZM53.53,314.67c-13.36-1.12-14.38,23.74-.29,20.2,9.52,2.21,9.08-5.39,9.64-10.85C63.5,317.91,58.13,314.71,53.53,314.67ZM46,456.87c14.42,4.07,14.76-21.42.56-18.31-5.4.4-9.58,1.57-9.79,8.47S37.51,458.86,46,456.87ZM45.2,241.21c14.09.23,19.88-21.42,3.71-22C37.72,218,33.47,241.6,45.2,241.21Zm69,293.44c5.61.33,5.54-6.58,5.64-10.5.17-6.58-2.52-12-11.37-11.15-9.72-2.14-8.58,7.42-8.46,11.4C100.28,531.89,108.24,534.28,114.23,534.65ZM58.55,61c8.93,1.07,9.85-4.64,10.57-11,.86-7.38-5-10.49-9.54-10.48C48.73,38.58,44.73,64,58.55,61Zm49.27,1532.21c-40.37-13.16-72.19-43.52-107.67-65.66-2.55,12.5,44.9,39.68,55.51,47.17C58.46,1578.45,124.32,1612.51,107.82,1593.21ZM102.31,138.59c6.18-.44,13.39-3,13.31-11.35,0-4.93-.38-12.37-7.11-11.84S93.68,118.11,95,128.79C93.36,134.75,97.17,139,102.31,138.59ZM83,186.82c15.28,1.52,20.72-22.73,2.2-19.92-7,.3-8.57,4.63-8.17,11.2C76,182.5,77.86,186.73,83,186.82ZM84.7,397.49c11.61,0,12.54-20.39-2.68-19.38C67.91,377.63,72.25,399,84.7,397.49ZM129,320.85c1.61-16.24-20-15.27-18,.93-.88,6.09,1.74,9.31,8.41,9.32C126.4,331.12,129.07,327,129,320.85Zm514.2,845.64c-2.27-1.75-3.54.25-4.71,1.16-29.38,24.58-71.66,47.9-108.24,21.89-40.42-33.42-26.43-92.89-59.83-131.8-6.57-8.78-9.15-18.7-5.64-30.4,3.12-10.39,12.8-20.65,3.81-32.67C517.06,967.52,504.3,888,445,921.1A159.17,159.17,0,0,1,466.3,875c1.26-1.8.85-5.43,0-7.74-.37-1-4-.77-6.15-.94C440.65,865.74,419,897,396.44,895c-21.57-3.31-.24,29.62,33.78,4.06,1.55-.94,3.53-1.19,5.32-1.76,0,1.93.8,4.39-.09,5.71-10.51,15.68-13,34.45-20,51.48-2.18,5.3-2.93,12.75,2.76,16.1,5.38,3.18,10.8-2.07,12.42-6.51,6-16.32,25.88-40.94,45.07-34.34,6.25,2.9,7.28,8.61,7.27,14.75,0,23-17.52,38.8-39.93,36.63-5.27-.51-11.44,2.08-9.82,8.82,1.19,13.86,30.18,10.44,24.62,19.37-27,44.57,17.89,66.13,24.69,107.8,9.31,57.7,35.39,113.87,104.3,93.93,23.48-6.43,43.65-17.61,56.3-39.46C644,1170.06,645.62,1168.4,643.16,1166.49ZM936.89,1408c0,10.32-32.6,26.89-41.12,33.77-40.33,29.44-92.49,41.47-141.5,44.46-20.9.72-18,21.06-29.33,29-1.79,1.25,1.75,1.78,2.95,1.74,71.23-1.34,143.18-22.8,199.45-67.33,2.11-1.84,4.75-4.61,7.65-1.33,2.58,2.93-.7,4.2-2.36,5.74-11.87,11-26.5,17.57-40,26-14.57,9-28.73,18.29-44.93,23.86-34.41,11.42-73.83,22.57-109.75,20.27-27-4.84-30,18-43.39,31.85-7.42,7.85-1.7,6.83,4.24,7.19,11.51.72,23,3.46,34.42,3.12,43.7-1.85,87.06-9.78,127.69-26.25,26-8.89,47.23-25.91,69.47-41.18,1.56-1.08,2.77-3,4.35-.64,1.57,11.62-27.78,23.14-35.6,30.53-60.74,39.56-142.1,53.67-212.65,38.93-.9-.38-3.73,2.67-5,4.57-6,9.23-11.9,18.55-17.8,27.85-2,3-6.64,11.69-10,8.66-1.15-2.61.16-7.34,2.05-10.12,17.65-25.77,35.29-51.55,53.63-76.82,38.49-52.4,71.94-108.53,100.74-166.83.77-1.6.73-3.6,1.72-8.88-55.5,81.77-111.41,159.45-176.55,233.41-1.34,1.59-2.59,4.07-4.25,4.43-9.66,2.05-12.44-1.87-12.3-11.87.61-43.21.46-86.44.17-129.66-.13-19.46-2-38.93-1.59-58.35.3-25.79,3.12-51-1.79-76.66-4.27-18.09,13.47-27.61-6.33-26.75-22,3.74-22.8,3-22.53,29.28q.64,119.28.52,238.58c0,13.48.65,27,.91,40.45,1.25,5.69-2.66,14.44-9.77,11.13-34.43-23.94-72-43.41-102.86-72.35-22.84-17.66-42.69-38.69-63.77-58.19C389.25,1451.11,371,1428.64,350,1409c-5.42-5.08-11.85-9.47-15.18-16.61-.32-.69-2.59-1.32-3-.93-1.32,1.13-.6,2.25.5,3.64,21.2,26.54,42.93,52.68,63.19,79.91,30.48,40.45,64.15,78.14,103.4,110.21,3.79,2.76,7.31,9,1.69,10.24-6.6-2.48-11.55-10.36-17.67-14.24-8.21-6.32-16.63-.9-24.58.62a226.1,226.1,0,0,1-46,3.63c-19.51,4.52-39.57-1.75-59.16-3.28-22.9-2.93-48.74-5.59-68.26-17.77,11-4.81,22.83,3.62,33.9,4.64,50.65,7.32,100,13,150.84.7-10.49-10.22-20.75-20.39-31.35-30.18-.91-.83-4.17,1.25-6.37,1.43-45,4.2-90.66,4.16-134.62-7.28-7.25-2-14.28-4.94-21.62-6.35-3.58-.68-7-2.19-6.28-4.85,1-3.36,5.66-2,8.24-1.27,50.38,14.45,101.95,13.94,154.1,12.13-8.71-10.28-16.86-19.28-24.23-28.89-2.92-3.81-5.5-1.8-8.3-1.35-39,5.85-78,.65-115.6-10.07-9.69-2.78-28.13-3.09-33.21-12.52-1.31-5.66,35.3,6.41,40.08,6.59,36,9.52,71.6,10,109.23,7.37-6.86-8.84-13.69-17-19.73-25.65-3.89-5.58-8.72-4.17-13.81-3.68-32.46,3.35-65-2.29-96.29-10.42-5.19-1.23-31.87-8.6-30.73-14.34.11-2.72,2.62-1.66,3.89-1.34,13.93,3.56,27.71,7.72,41.73,10.88,22.54,5.08,45.34,8.19,68.59,7.14,5.74-.26,11.77-1.79,17.15,2-5.74-12.62-15.79-21.48-24.07-31.56-2.83-3.44-11.7-2-16.78-1.47-11.84,1.21-23-1.56-34-3.58-14.76-3.41-61-11.24-67.65-23.81.54-2.93,3.87-2.07,5.48-1.53,34.64,13,70.41,18.11,107.12,22.47-9.92-13.22-19.25-25.49-28.34-37.94-1.78-2.43-3.78-2.49-6.31-2.59-29.31-.67-55.93-11.69-82.56-23-3.75-2.16-11.44-1.65-8-8.44,2-4,7.61.71,10.72,2,5.85,2.77,80.67,29.84,76.26,18.76-8.61-9.35-10.29-26-21.94-31.81-15.32-7-27.89-17.1-40.61-27.49-11.51-9.4-18.9-38.43-12.73-51.42,15.52-19.46,43.07,5.82,50.67,21.73,12.77,25,12,59.1,37.59,75.54,6.51-24.43,5.67-50.92,5.46-76.18.37-6.61-4.62-14,1-19.35,12.37,17.63,6.06,40.88,6.69,60.91.05,13.58-4.75,27.14-6.88,40.78,0,11.41,18.12,19.35,21.85,30.15.51,1.43,3.14,2.12,4.79,3.15,6.17-20.39,6.35-43,8.08-64.25.47-18.17-2-36.46-3.09-54.65.47-5.65-2.33-12.75,1.52-17.36,7.72,8.4,5.74,21.75,7.38,32.32,5.48,36.71,2.14,74.14-6.26,110.24-1.24,5.14,6.07,7.79,9.35,11.62,4.46,5.2,9.9,9.56,15.92,15.23,3.3-17.42,5.88-34.45,9.9-51.13,5.69-32,3.12-64.14-.7-96.27,1.5-6.45,7.77,1.77,8.34,6.1,19.92,137.3-43.9,129.67,15.7,173.32,3.85-19.31,11.86-41.2,11.8-61.91,1.06-17.61,1.86-35.37-.78-53.15-.61-6.09-2.56-34.19,1.62-37,14.08,38.32,11.41,113.13-6.65,150.26-3.34,6.61.13,7.53,2.65,10.29a124.81,124.81,0,0,0,13.49,13.33c2.1,1.7,4.71,7.56,8.06,2.85a287,287,0,0,0,14.6-103.21c0-5.12-2.49-13.28,2.35-14.25,5.39-1.08,4.75,7.91,5,11.5,3.69,38.24-5.62,76.09-16.93,112.45-1.36,4.84,6.56,8.07,10.16,12.07,3.11,3.46,7.33,5.91,10.92,9,7,8.73,10.65,6.2,12.06-4.25,7.54-39,6.2-78.5,6.12-118,0-2.85-.06-7.13,2.61-7.19,9.36,7,5.73,48.36,5,60.37-1.88,25.75-1.41,52.08-11.07,76.84-2.21,5.65,3.91,7.18,6.56,9.65,7.71,6.44,15.54,13.74,24.4,18.42,8.27-48.93,7.88-98.45,5.06-147.41,8.12,9.65,9.19,22.42,9.46,34.31,2.78,38.6-2,76.42-9.49,114.21,1.85,6.93,13,10.74,18.09,15.76,5.58,4.14,11,9.32,11.33-3.73.56-21.95,5.46-43.63,3.41-65.8-1.74-18.89-2-37.9-3.57-56.8-.45-5.36-2.19-10.47.89-16.57,11.21,25.2,7,51.38,10.38,76.55,2.58,19.23-3.72,37.29-3.17,56,.18,5.79-2.18,11.68-3.66,17.46-1.77,7,4.88,6.81,8,9.25,4.69,3.67,10.18,6.32,15.61,9.56.86-53.58-2-108,.08-161.62-.06-9.33.76-19.12-1.88-27.78-1.15-3.75-9.88-5.43-15.35-7.57-38.27-18-78.44-36.55-109.09-66.12,12.56,2.35,126.63,75.65,124.43,57.17-1.69-7.76,7.07-17.64-5.13-23.32-35.18-16.94-71.72-32.78-101.44-58.5-21-16.68-44.95-35.16-59.06-57.44.22-.46,4.46,0,5.77,1.22,17.38,16,33.84,33.34,54.12,45.46,34.37,23.58,67.79,46.44,107.88,60.62-4.81-78.59,20.28-70.78-47.74-63.37-24.75.5-32.84,12.92-50.18-11-38.29-49.91-70.63-104.3-101-159.29-40-76.84-70.07-157.74-94.18-240.85-12-48.87-28.58-96.55-39-145.78-13.63-48.6-18.13-98.78-25.28-148.58Q207.6,460,200.92,335.44c.57-7.28-3-32,3.81-30.47,23.62,1.23,47.12,2.41,70.73,3.63,59.56,5,119.47,7.29,179.23,8.06,14.84,0,10.8,9.8,11,17.32-.66,36.93,4.51,73.55,5.85,110.47,3.59,34.73,2.5,72.54,12,106,6,12.24,16.85,21.41,24.65,32.47,20.16,29.73,47.42,54.9,80.21,69.94,4.24-11.07-1-21.52,1.85-32.66.6-3.91,1.06-7.84-5.22-10.06-14.42-5.08-24.94-16.34-36.81-25.57-22.65-18.14-38.76-41.66-53.56-66.14-2.56-5.83-9.38-10.33-6.48-17.21,26.21,27.31,41.53,63.21,73.46,85.51,5.68,4,34.19,31.43,28.35,9.4-1.66-25.91,11-28-15.75-42.64-31.65-23.77-55.49-56.33-77.13-89.09-.89-1.39-4.24-3.2-.86-5.09,2.42-1.36,4.33.56,5.85,2.5,27.62,32.3,50.34,73.67,88.39,94.09.75-12.07,3.39-24.91,1.27-36.54-1.07-5.26-9.62-9.31-15.26-13.25-19.27-12.45-63.44-67.79-62.81-89.95,27.46,31.93,43.67,72.38,81.31,95.22,0-10.93-1.62-21.49.42-31.29,2.46-11.77-2.21-18.57-10.74-24.61-28.66-22.58-52.35-65.73-57.4-102.25,12.44,17.06,16,34.86,26.65,51.59,10,20.28,25.74,37.36,42.81,52,2-15.41.13-31.17,4.71-46.37,2.86-9.8-5.5-16.08-9.45-22.88-12.56-21.26-13.5-45.55-8.54-69.43,2.13-10.58,11.6-15.46,22.91-13,29.19,4.24,8,75.32,1.77,93.75-2.23,6.28,2.38,15,3.76,22.57C614,433,616,444.63,615,458.24c10.11-13.31,18.38-25.86,23.86-40.08,3.77-7,5.58-22.09,11.68-26,9.27,12.54-14,53.42-24,63.12-13.36,13.77-10.05,28-7.42,43.11.5,2.88-4.66,5.79-.83,7.21s5.09-3.85,7-6.3c14.57-19.07,31.24-36.91,41.79-58.73.78-1.6,3.49-2.25,5.3-3.35,2.9,26.48-41.31,59.64-52.2,82.5-4,10.11,1,25.25,1.85,37C642,534.55,661.68,512.16,678,487c2.58-2.68,5.56-12.1,9.67-10.64,4.9,3.52-5,14.75-6.71,19-16.7,25.32-37.17,48.43-57.88,70.56-4.79,5-1.78,12.07-1.85,18.11.25,8.84.72,18,2.63,26.68,30.44-26.81,53-61.12,75.26-94.9.83-1.18,2.34-4.18,4.39-2.3,4.55,6.55-6.31,18.05-9,24.45-18.79,29.9-42.34,56.83-68.36,80.72-7,6.38-2.19,15.73-3,23.67-.59,6,.26,12.15.47,18.23,4.84-3.91,10.77-7,14.32-11.88,12.47-17.06,29.44-29.85,42.19-47,9.8-13.14,18.94-26.92,29.31-39.69,1.15-1.41,2.31-4.28,4.47-2.73,2.6,18.59-44.47,67.57-58.69,81.89-9.69,9.27-18.82,19.06-29.92,27-5.87,4.22-2.09,13.58-1.6,20.42.2,2.82-2,6-.33,7.65,2.52,2.46-2.81,8.65,3.47,7.8,14.6-12.94,31-26.79,43.69-42.12,18.22-20.86,34.41-43.7,50.53-66.26,13.73-7.52-4.49,17.39-6.22,20.49-21.77,33.74-48.25,66-79.91,90.57-9.42,5.42-13.23,13-11.72,22.91,1.17,7.66-3.42,15.85,2.81,22.51,33.14-29.7,71.58-56.24,98.23-92.68,4-3.82,7.6-17.71,13.41-16.64,3.23,1.58.55,5.43-.69,8.32-23.32,45.16-69.22,74.83-107.7,106.44-4,2.93-7.19,6.09-5.81,12.71,2,8.18-2.12,17.38.67,25.64,17.19-9,28.75-27.22,45.1-37.95,13.16-9.89,24.14-21.94,35.9-33.08,16.8-14.83,28-35.54,45.42-49.61-.51,25.35-95.1,107.21-119.46,123.58-12.59,8.86-6,20.47-6.37,30.38-4.82,28.17,10.09,5.08,11.84,3.65,18.25-14.91,36.85-29.64,53.32-46.42a508.6,508.6,0,0,0,47.75-55.44c5.65-7.32,9.34-15.75,18-20.24-.59,11.32-10.47,20.71-16.33,30.08-14.59,21.46-32.47,40-51.59,57.46-18.93,18.19-38.76,35.35-60.15,50.62-7.34,5.24-5,13.27-3.77,19.09.91,4.44-1.22,8.07-.14,12.53,1.57,6.46,3.47,3.34,5.88,1.78,26.52-17.16,51.19-36.75,72.72-59.8a405.48,405.48,0,0,0,45.19-59c1.36-2.13,4.06-6.6,7.87-4.23,4.1,2.55-.22,5.2-1.45,7.22-30.7,51.84-73.95,96.47-127.5,124.83-2.49,1.22-3.52,2.77-3.45,5.73.53,9.9-.49,19.93.48,29.77,38.51-26.53,73-59.6,105.69-93.13,7.82-8.22,14-18.08,20.28-27.71,2.75-3.28,5.85-11.94,10.88-9.67,4.76,4.55-7.41,15.27-9.39,20.27-7.34,11-14.84,21.91-24.16,31.3-30.86,30.18-62.73,59.54-98.81,83.46-7.83,5.53-4.21,16.69-4.12,25.43,0,2.67,2.58,5.3.34,8.87,49.65-38.41,97.34-79.57,135-130.18,5.11-6.68,8.81-.61,5,5.14q-4.26,5.48-8.55,10.93A495.32,495.32,0,0,1,628.84,967.65c-12.55,7.1.21,27.32-6.93,42.81,41.66-30.52,78.45-59.27,109.74-99.47,9.79-11.54,18.46-24,27.3-36.34,1.68-2.34,4.18-5.8,5.66-4.82,4.31,4.35-2.91,10.36-5,14.34C732.5,925.23,699.18,962.81,659,991.63c-10.76,7.67-21.14,15.94-33.23,21.89-7.07,4-.32,27.34,0,35.26,31.65-22.87,62.65-46.47,89.84-75.07,16.92-17.81,32.48-36.58,47.85-55.61,2.51-3.89,6.32-6.09,10.35-8.45,3.6,9.06-5.46,13.37-9.14,19.54-37.8,49.2-82.92,91.68-135.68,124.27-4.45,4,3,8.48,4.67,12.73,8.3,20.59,18.71,4.07,25.41-.68,34.16-23.41,59.81-56.19,86-87.79q10.92-12.84,22-25.55c2.35-2.38,3.72-5.78,7.54-5.89,1.24,5.61-4,8.44-6.87,12.46-13.6,18-25.34,37-40.92,53.3-21.62,29.32-52.48,49-80.63,71.38-4.18,3.66,2.85,7.63,3.95,11.88,2.91,11.25,8.86,13.53,18.57,5.09,29.22-25.16,58.62-51,83.77-80.26a312.87,312.87,0,0,1,27.07-31.76c-12.31,40.45-80.11,96.64-114.41,122.35-9.44,5.2,5.26,21.06,8.89,26.54,15.87-7.23,28.41-25.6,41.31-37.27,15-13.62,26.16-30.44,40.06-44.9,6-4.53,15.13-22.87,21.35-22.58-4.13,24.58-72.33,94-95.3,109-5.69,3.65-.67,6,1,9.25,10.12,19.58,9.18,18.9,24.5,3.18,25.45-25.85,46.9-55,70.7-82.19,1.28-1,2.76-1.45,4.3.2.92,1-.16,4.94-1.46,6.72a770.2,770.2,0,0,1-71.48,84.71c-10.51,6-16.35,18.83-3.93,25.76,6.35,3.69,8.93-5.23,12.48-8.48,10.54-9.61,20-20.47,29.47-31.14,12.15-13.62,23.88-27.61,36-41.26,2.12-2.39,7.26-5.81,7.68-5.39,4,3.94-1,6.63-2.71,8.91q-3.39,4.4-6.81,8.76a632.52,632.52,0,0,1-68.9,76c-1.9,1.75-.86,2.84-.07,4.23,2.74,4.9,6.18,9.54,8.08,14.74,2,5.4,3.16,3.33,5.95.78,23.07-21.06,40.58-46.87,60.78-70.4,1.68-2,3.46-5.49,6.55-2.8s-1.27,3.75-2.24,5.31a408,408,0,0,1-60.31,75.37c-9.26,10.36,6,13.31,6.37,20.78,5.5-.36,6.71-5.4,9.82-8.55,13.74-13.93,25.59-29.33,37.05-45.09,4-5.46,8.1-10.84,12.12-16.28,1.53-3.3,4.26-.13,4.29,2-13.31,28.77-35.52,51.74-56.69,75-3.73,3.67-.46,14.24-9,16.2-11.75,2.71-18.55,11.59-26.86,18.84-10.12,8.83-20.45,17.5-31.32,25.35-15.54,11.22-31.07,22.57-48.33,31.13-2,1-3.5,1.76-3.5,4.15v27.17c69.52-33.84,118.74-94.27,170-150.09,3.29-5.5,9.32-5,3.94,3.24-32.43,46.52-74,85.33-117.4,121.48-16.35,13.41-35.2,23.08-54.3,32.06-2.61,1.22-2.22,3-2.2,4.84,1,60.76.31,121.57,4,182.24.1,1.54.09,2.9,2.14,1.14,10.81-9.25,20.6-19.6,28.27-31.45,4.64-7.15-2.17-14.67-3.46-22-6.57-32.56-7.73-66-4.68-99,1.39-12.47,5.1-24.68,7.89-37,.09-.41,1.38-.9,2-.77,2.32.47,1.92,2.45,1.78,4-1.74,19.61-3.43,39.21-5.34,58.8-2,20,1,39.65,4.92,59.2,1.22,8.77-.78,18.09,4.34,26.16,7.84-5.73,13.86-14.6,19-22.62,1.54-2.84-2-8.34-3-12.67-9.53-38-6.62-77.93,1.61-115.77.6-1.79-3.14-2.92-.63-4.65,1.8-1.24,2.78-9.3,5.74-1.29-.34,40.78-9.95,84.14,2.82,124,16.16-17.64,29.9-25.47,19-51.08-5.22-18.9-2.12-38.35-2.42-57.58,1-12.27,2.49-24.5,4.07-36.71,2.88-6.74,7.6-1.5,6.47,3.26-1.49,18.56-1.59,37.23-3.08,55.7-1.25,15.56,5,29.59,4.74,44.61,0,.74,1.41,2.22,1.75,2.11,1.26-.42,2.79-1.09,3.42-2.14,5.47-9.08,12.19-17.1,19.29-25,3.26-3.6-2.54-6.94-2.84-10.91-1.13-15.17-5.26-30.7-3.19-45.37,2.26-16,.37-32.8,7.14-48.18,1.12-4.72,7.12-3.26,6.26,1.33a241.5,241.5,0,0,0-1,92.5c8.16-11.72,17.24-23.06,24.16-35.59,2.44-4.44-3.06-11-3.68-17.25-2-19.92-2.77-39.58,2.31-59.11,1-4.06-2.68-12.17,4.43-11.16a3.72,3.72,0,0,1,3.58,3.92c-5.38,25.55-4.57,49.47-.74,78.11,5.21-16.26,21.41-22.6,17.71-42.5-2.47-13.33-2.45-27-.89-40.63,1.33-5.46,3.75-39,10.8-36.39,3,.81,1.82,3.22,1.5,5.35-2.55,23.47-7.86,48.63-2.11,71.75,7.62-8.35,13-18.83,18.91-28.48-1.42-20.8,3.13-42.07,16.56-59.17,8.5-11.77,25.27-24.58,38.73-14.11,11.46,12.89-1,35.15-9.63,45.85-7.43,8.17-16.2,17.67-26.93,21.54-9.84,2.9-9.74,12.29-13.56,19-1.46,2.59-2.49,6.24-1.89,9,1,4.6-9.62,9.4-.44,12.69,28.11-5.12,54.63-23.42,79.6-37.28q5-2.89,10-5.72c1.18-.66,2.19-2.89,3.38-.82,3.1,5.49-4.9,8.45-8.29,11.36-27.12,19.49-57.35,34.94-90.09,42.57-9.39,2.16-10,14.51-14.38,22.38-2,4.17-4.07,8.29-6.17,12.4,26.38-3.82,52.4-14.72,76.49-26.3,14.07-7.85,27.49-16.86,41.11-25.5,3-1.87,6.52-4,8.63-.89,1.69,2.45-2.36,4.4-4.38,5.94C890.57,1367,847,1384.52,801.4,1393.65c-3.51.71-5.67,8.39-8.29,13-4.52,7.88-8.9,15.83-13,23.12,56.11-2.08,103.18-36.92,149.25-65.54.72-.25,5.43,2.41,3.73,4.32C896,1399.6,854,1422,807,1434.32c-5.44,2.12-12,3.28-17.69,2.45-11.21-1.63-16.63,3.76-21.33,12.7-4.9,9.32-11,18-17.14,27.89,58.06-3.89,116.55-19.95,162.1-57C918.54,1417.41,931.31,1402.67,936.89,1408Zm-102.6-112.52c21.92-7.84,40.2-26.65,44.76-50.09,2.11-9.07-8.43-9.56-14.12-7.1C843,1249.18,837.26,1273.31,834.29,1295.43Zm-551.6,25.77c-6.73-21.15-15.38-59.55-43.59-60.81-10.5,6.21-5.38,20-1.45,28.3C237.54,1297.12,283.06,1339.8,282.69,1321.2ZM602.53,389c2.86-10.5,6.53-20.51,8.13-30.85.41-10.75,6.52-40.5-5.93-44.89a10,10,0,0,0-13.27,7C586.34,344.26,586.51,367.79,602.53,389Zm10.36,636.15a35.45,35.45,0,0,0,3.15,5c.05-204.41,7.22-410.32-10.94-614.13-10.6,119.68-9.06,240.48-9.92,360.76-.81,64.59,1.62,129.23-2.39,193.75C591.31,991.63,605.42,1007.24,612.89,1025.16ZM587.29,891.3c-10.08-6.74-21.47-11.51-32.21-17.3-2.63-1.42-5-1.19-3.83,1.75,7.43,26.89,7.56,37.47,36.6,49.08C587.93,918.34,592,893.36,587.29,891.3Zm-.36,64.31c3.31-17.35.28-29.6-19-33.32,4.28,15.54,8.85,30,18.14,43C589.32,962.35,586,958.81,586.93,955.61Zm-6.42-104.37c-15.86-6.57-29.7-16.86-44.85-27.31,14.42,44.88,3.15,31.47,44.41,56.84,8.17,4.51,9.19,3.84,8.71,2.54C584.94,872.92,597.92,858.45,580.51,851.24Zm-.3-50.08c-21.64-9.54-40.88-23.85-60-41.31,2.57,10.19,3.74,19.07,7.08,27,4.41,10.55.69,23.86,13.72,31.78,15.15,9.2,29.32,20.06,44.85,28.84,3.49,2,3,.49,3.09-1.81.17-7.14,1.28-14.4.28-21.37C588.06,816.25,593.38,807,580.21,801.16Zm9.62-45.41c-32.28-11.37-56.68-32.25-82.37-52.52,12.83,63.9,25.41,55.43,73.63,93.35,2.34-3.49,8.39,10.36,8.67-1.73C590.08,781.15,589.83,767.45,589.83,755.75Zm.56-6.49c-4.3-8.75,2.35-40.52-4.21-42.5-34-15.79-63.53-39-90.31-64.31,4.19,20.64,3.7,44.87,22.16,59.23C542,717.66,562.27,740.55,590.39,749.26ZM481.67,558c1.61,10.22,2.93,19,4.4,27.84,2.32,13.93,1.22,29.94,8,41.22,8.37,13.93,22.38,25.11,35.63,35.29,18.61,12.88,37.42,27.49,58.18,36.52,1.33-6.41,2.73-14,1.39-20.2-2.08-7.06,5-17.34-4.65-21.06C539.12,637.81,508.24,599.48,481.67,558Zm169.45,706c19.8-1.69,39.7-2.4,59.45-4.52,5.84-.63,12.81,2.35,17.53-2.61,4.16-4.37-2.33-6.9-3.36-10.5-.43-1.49-2.54-2.42-3.43-3.88-53.62-90.15-110.95-178.57-150.68-276-28-62-43.62-127.71-61-193.19C493,696.42,478.19,619,467.26,541.08c-6.49-68.79-11-138.25-11.83-207.28.14-1.08,3-6.34-2.42-6.73-9.06-.66-18.1-1.74-27.16-1.92-37.73.44-75.32-4-113.07-4-34.19-1.58-68.92.11-102.76-4.08-1.43,0-3-.41-2.79,2.17,11.75,117.09,21.24,234.54,38.19,351C282.67,831.41,322.66,995,405.28,1139.69c23,44.32,53.41,84.5,80.51,126.06,8.8,15.6,19.69,15,32.39,12.91C562.29,1271.78,606.84,1269.29,651.12,1264Zm-9.91,13c-12.48-.85-19,3.52-16.22,17.14.49,2.36,0,3.41,2.83,1.3,8.82-6.7,18-13,27-19.44C650.29,1277.93,645.68,1277.27,641.21,1277Zm-15.09,59.42c28.64-15.45,58.13-39.12,83.4-61.53,1.51-1.32,1.75-3.36-.75-3.74-28.41,1-39.83-.86-61.8,20-9.25,8-28.64,9.67-22.29,26.7C625.08,1326.13,624.1,1331.94,626.12,1336.39ZM931,577.21c-12.6.07-9.09,24.94,4.43,24.54,8.95.4,10.76-6.79,10.7-13.59C946.09,581.51,942.93,576.4,931,577.21ZM355.6,863.12c-28.41-21.59,11-53.82,33.28-62.42,6.48-2.85,5.07-8.88,3.62-12.59-8.4-21.69-15.63-44-29-63.45-1.75-2.56-2.74-6.92.26-9.58,3.94-5.41,14.83,12.57,15.75,15.7,4.38,14.27,13.19,4.67,18.52,2.79,5.26-1.71,31.25-9.11,31.57-1.59-.54,3.75-3.45,6-6.72,7-8.86,2.74-17.84,5.08-26.77,7.6-13.57,1.12,12.12,32.13,9.43,45.05,0,3.19,6.47,1.45,9.65.28,18.3-5.53,39.87,3.45,38.57,23-3.15,16.58-14,30.45-24.11,44.67-5.24,6.46-17.67,30.68-27.55,24.25-5.35-19.4,70.12-82.89,18.61-78.23-20,.26-13.89,17-17.38,26.94C396.44,852.17,376.78,869.86,355.6,863.12ZM393,819.06c2.31-12.48-27.8,16.28-30.25,19s-4.16,6-1.59,9.6c.85,1.21,2.33,3,3.36,2.91C378.88,849.07,392.59,834,393,819.06ZM942.88,291.45c-12-1.1-14.46,23.38-1.47,23.41C956,316.26,956.63,291.57,942.88,291.45ZM321.41,531.24c-14.5,23.93-49.5,20.43-40-12.72,6.08-16.71,10.91-33.7,25-46.14,1.85-1.63,1.3-7.24.31-10.54-2.31-7.61-2.34-15.35-1.54-22.9,1.05-10.07-5-8.05-10-6.37-9.69,4.48-35.4-6.83-29.83-19.08,2.94-2.58,7-1.33,9,.18,7.45,5.41,15.73,4.12,23.42,3,11.74-1.76,5.33-13.38,8.85-19.93,2.06-3.85,1.07-9.38,1.29-14.16.27-5.8-.09-11-8.41-9.68-1.3.21-4.23-1.92-4.25-3-1.52-6.94.72-14,9.08-9,17.45,3.71,24.84,19.22,17.48,36.1-1.16,2.67-.65,6.07-.85,8.3,20.09-4.47,37.88-18.62,58.69-12.77,4.9,1.61,10.21,2.53,9.13,8.35-1.25,6.69-9.06,5.65-13.11,5.6-15.9.66-30.46,6.5-44.78,12.17-13.63,2.75-11.5,13-10,21.9,1.11,6.68-2.09,19.75,2.44,19,12.4-2.11,26.14-6.79,27.79-23.72.78-4,5.09-17.48,11.07-13.19,3.34,2.25,3.32,5,2.48,8.26-6.13,20.1-6.7,24.2,13.48,23.5,56.64,16.49,12.73,74.84-9.33,102.95-4.21,5.75-8.17,13.56-7.87,20.22.33,7.44,10.26,6.55,16,9.3,13.48,9.06-19.31,16.37-27.64,3.3-18.84-26.3,26.7-58.27,34.34-82.7,15.61-25.7.49-40.74-27.3-39.78-6.66.27-6.42,9.8-9.11,15.21-3.93,7.91-6.85,16.32-10.7,24.27-4.22,8.73,5.9,12.65,6.11,19.84.09,3.22,5.47,6.73.51,9.47C331.26,541.34,332.57,516.12,321.41,531.24Zm6.23-38.6c1.9-6.24,8.67-15.32,6.61-19.26C321.61,474.07,326.29,484,327.64,492.64Zm-10.76,8.85c-1.63-6.25-3.13-18.35-8.8-7.86-6.61,11-12,22.66-12.8,35.86C295.87,543.38,320.77,512.38,316.88,501.49ZM209.49,1372c-13.8,8.38-28.1,15.41-44,19.35-3.56.88-11.2.17-10.17,6.43,1.11,6.77,6.75,1.81,10.06,1.19,19.07-4.22,39.51-11.51,51.86-27.2l-3.71-1.13A19.07,19.07,0,0,0,209.49,1372Zm-49.07,67.67c-5.93,1.76-4,8.35,2.22,6.66,15.25-6.73,56-14.32,61.77-29.5-1.07-2.87-2.74-1.84-4.61-.88C201.22,1426.66,180.4,1432.15,160.42,1439.63Zm76.67,128.91c10.11-4.18,19-11.43,30-18.31-17.27,32-66.6,38.06-97.83,49.77-3.94,1.54-8.53,2.17-12.12,0a14.35,14.35,0,0,1-7.3-13.94,297,297,0,0,0-.09-48.73c-1.27-43.23-2-86.59-3.59-129.86-2.45-78.69-1.93-157.47-7.09-236.1-.63-15.45,1.31-31.16-.84-46.33-2.46-17.3.9-34.63-2.88-51.91-2.2-10-.22-20.93-.48-31.42-2.43-67.46-.87-134.88-8-202.12-.08-1-1-2-1.54-2.88-2.24-3.55,2.9-8.9-2.82-11.59-11.07,86.72-8.46,174.08-10.41,261.33-3.16,125.6,4.41,251.19,3.07,376.8,2.3,43.35,2.75,86.8,3,130.23,0,2.69-1.51,5.41-2.3,8.08-7.1-5.55-5.27-19-5-27.19,2.14-15.43-11.68-14.79-19.56-19a321.77,321.77,0,0,1-90.7-70.72c-1.6-2-4.89-2.68-3.68-6.22,2.62,1.19,5.8,1.88,8,3.73,32,26.74,63.36,57.42,102.84,72.66,2.11-8.32.3-17,1.29-25.33,2.13-15.75-12.29-15.36-20.21-20.65-27.76-20.27-76.06-45.32-86.65-78.68,31.16,31.06,66.25,57.7,104,80.62,3.27,2.16,2.67-.92,2.68-2.45.07-10.83.68-21.72-.18-32.48-.66-8.37-9.83-9-15.2-12.54-32.76-22.89-71.53-41.51-95.32-74.5-5.51-6.53,1.51-11.41,5.78-3.8,28.42,32.62,67.66,54.72,103.35,77.52,0-12.64,1.17-25.61-.71-38.12-34-22.7-74.14-44.82-103.14-75.94-3.68-2.91-12.72-13.58-3.48-13,25.46,23.4,51.77,46.93,82.41,64,8.93,5.07,16.82,12,25.56,18.32-3-24.64,7-38.61-20.55-51.48C63.8,1355,1.66,1307-3.37,1281.82c1.18.3,2.69.16,3.37,1,9.73,10.23,18.89,21,29.12,30.74,23.24,21.27,49.51,40.36,77.68,54.67.48-29.18,7-38.22-19.93-56.55-34.71-25.5-72.17-50-93.58-88.93,12.2,5.94,19.85,18.37,28.42,26,27.55,23.2,54.35,48.6,84.68,67.83-1.36-13.17,5.28-42.9-8.85-49.43-32-16.56-89.09-57.87-96.48-94.88,28.22,39.18,63.35,66.87,103.33,92.28,1.32-8.89-2-19-.34-27.38,2.84-18.78-11.82-19.83-22-26.45-27.2-18.63-76.63-55.71-83.94-88,14.52,12.74,25.47,28.68,39,42.43,12.49,12.88,27.58,22.17,41.23,33.39,2.75,1.74,25.69,19.81,24.59,12.2.82-8.82-1.66-17.75,1.42-26.64.54-1.55-4.49-4.53-7.09-6.74-19.59-17-37-36.57-56.71-53.36-15-12.75-23.87-30.24-36.66-44.71-1.39-2.06-2.54-4.84-.54-6.81,2.84-2.7,3.31,1.27,4.43,2.51a928.14,928.14,0,0,0,95.11,98.23c0-9.19-1.76-18.22.34-26.23,5.38-20.5-6.5-30-21-39.8-9.18-6.17-16.92-14.66-24.77-22.64-6.1-7.54-44.55-39.22-39.43-46.66,2.55-2.32,4.64-.54,6.39,1.28,6.78,5,82.56,94.27,80.18,66.79-3.84-12.48,8.75-36.86-9.27-42.21-13.57-4.38-23-16.38-33.86-25.37-14.94-12.35-29.06-25.72-43.2-39-3.36-4-1.73-13.24,4.54-5.95,27.9,24.09,51.46,49.66,83,69.81-4.44-14,5.75-29.07-6.56-40.92-13.64-15.7-70-57-67.84-75.12,3.15,1.59,7.4,2.37,9.28,4.91C59,976.13,81.81,997,104.61,1016c2.18-12.47,1.54-24.87.67-37.42-.45-8.63-7.2-11-11.83-14.23-22.34-19-44.64-38.16-63-61.05-1.72-2.16-4.76-4.88-2.21-7.39,3-3.16,4.33.87,6,2.53C58.22,922.13,80.49,944.1,106.89,966c0-17.94.51-34.68-.53-51.33-25.21-15.76-51-37.57-72.52-59.32-4.83-3.49-5.44-8.79-4.62-13.85,24,19.88,47,40.88,70.74,61.08,2,1.76,5,3.82,7.59,2,4.6-10.41-1.26-23.42,2.88-34.34.24-.6-.8-2.31-1.6-2.64C92,860.65,80.77,847,69.36,834.05,62.61,826,37,798.57,40.83,789c1.82-1.57,2.93.11,3.68,1.1,19.81,25.43,37.27,53.75,65.67,70.76,4.72-11.5,1.72-23.81,4.6-35.46,1.48-6-5.66-8-8.56-10.93C94.09,802,83.85,788.11,73.78,774.12c-5.3-9.39-17.6-18-13.74-29.81,8.66,5.06,12.55,15.27,19,22.72,9.38,12.9,18.73,25.83,28.22,38.64,1.7,2.29,5.27,5.16,7.39,4.76,4-.77.54-4,.55-6.31,4.18-34.29-1.76-25.61-15.26-51.57C74.07,685,133.55,645.64,140.77,688.72c3.21,19.1,2.83,38.57-3.14,57.36-2.39,9.62-5.5,18.94-12.19,26.81-3.62,4.26-.66,8,.08,11,2.07,7.94.09,16,2.22,23.73,16.75-11.07,25.19-30.87,33.18-48.51,3.5-6.21,3.23-15.8,11.25-17.87,1.73,23.35-18.21,53-35.38,68.34-10,8.77-4.67,18.23-5,27.61,1.93,2.58,1.21,11.09,2.29,11.73,10.28-.31,39.07-44.85,45.92-55.07,2.29-3.63,3.39-11.33,9-8.23,3.36,1.86-.47,9.16-2.67,12.69-14,22.39-29.23,43.69-49.67,61.1-5.86,5.63-.21,21.21,1,29.62,22.16-16.84,39.45-37.26,49.64-63,.69-1.77,2.82-5.44,6-3.14,6.05,5-1.65,10.62-2.57,15.67-10.66,20.13-28.11,43.93-47.56,55.85-10.05,5.25-2.84,14.4-4.76,21.52-1,3.82.65,8.38,1.14,13,18.53-16.59,36.2-33.75,49.4-55,3.94-5,6.32-12.7,12.87-14.59C205.27,878,157.62,926.07,141,936.1c-3.15,2.11-1.76,5.74-1.11,8.84.43,2.08.45,4.32,1.27,6.23,1.68,4-4.69,8.77-.6,10.49,2.36,1,7.62-3.79,11-6.62,17.52-14.52,33.8-30.29,47.22-48.79,1.75-2.4,2.89-5.28,6.53-5.15-1,23.15-38,51.88-55.93,65.47-7.66,3.32-16.94,43.76-.13,28.87,27-17.91,52-39.9,68.38-68.1,1.23-1.61,3.65-2.25,5.55-3.33-3.47,31.68-51.84,69.61-79.86,82.31-3.11,1.09-3.42,29.56-.49,30.16,32.72-13.33,58.81-40.77,83.47-65.66.43-4.23,5.94-8.36,9.45-6.46,3.27,1.72-1,4-2,5.58a159.46,159.46,0,0,1-49.34,49.75c-10,6.4-18.93,15.17-29.84,20.49-4,1.93-10.58,2.76-11.07,6.31a110.36,110.36,0,0,0,0,28.88c.41,3.21,5-.35,6.95-1.53,22.09-13.64,44.78-26.49,63.58-44.8,6.06-5.9,12-11.91,18.32-17.55,2.1-1.77,4.79-7.52,8.05-3.55,2.89,3.63-1.61,8-4.3,10.79-14.39,15-29.25,29.57-47,40.61-13.4,8.35-27.22,16.07-41.22,23.37-3.62,1.88-4.94,4.19-4.82,7.32.29,7,1.26,13.94,1.88,20.91.26,2.87,1.9,2.22,3.42,1.35,24.21-13.78,46.2-30.67,68.31-47.51,11.58-8.83,18.77-21.36,29.85-30.39,1.35-1.1,2.39-2.12,3.59-.7,1.42,5.13-4.08,10.47-6.27,14.73-9.79,14.27-23.86,24.45-37.83,34.63-17.61,11.59-34.44,26.36-53.54,35.08-8.19,1.8-7.84,7.3-7.48,13.14.48,7.88.45,15.94,2.23,23.55,1.45,6.16,5.89.13,7.08-.56,34.08-18.73,66.64-41,90.51-72.19,1.78-2.4,3.9-5.52,6.95-3.45,3.38,2.35-.4,4.6-1.61,6.59-23.22,37.72-64.77,57-100.48,80.51-6.52,4.35-3.58,14.58-1.57,21,2.94,9.5,8.39,8.49,21,1.21,32-17.62,64-36.29,87.39-65.12,2.59-1.73,6.84-10.39,9.37-8.61,2.06,1.16,1.51,4.66,0,7.18-22.11,34.64-59.11,57.67-96.23,73.76-19.75,8-22.58,13.84-20.47,44,43.49-19.06,89.33-37.94,117.85-77.65,1.38-2.06,3.43-5.69,6.44-3.75,3.59,2.32-.08,5-1.26,7.19-25.91,41.26-74.33,61.84-118.26,78.59-9.92,2.76-2.64,31.88,5.66,27.49,4.53-1.41,9.51-7.06,12.91-7.83,32.93-11.32,64.72-31,91.09-54.08,4.14-1.84,12.52-11.62,15.17-8.31,2.42,4.32-4.95,8.22-8.37,11.78-13.85,14.39-30.28,25.34-47.38,35.1-7.77,4.44-15.68,8.64-23.56,12.83-14.71,8.66-33.84,10.44-48.65,18.4.59,13.29-5.32,38.34,15.71,27.13,11.73-3.34,22.9-8.64,34.28-13.17,2.73-.51,6.32-6.92,7.93-4.63.88,15.21-41.62,25.5-53.94,28.71-2.12.53-2.4.35-2.28,3,.71,10.16-.89,20.47,0,30.6,11.29-6.51,24.27-9.65,36-15.49,8.33-4.3,17.07-8.93,26.16-11.36-8.54,17.3-33.8,22.59-50.6,29.18-6.62,2.21-11.88,3-11.52,12.69,1,26.07.19,52.2,2.2,78.28a197.15,197.15,0,0,1-.4,31.21c-.89,10.78,5.67,6.92,9.88,5.16,16.93-6.1,33-16.57,50.15-21-4.63,17.44-40.39,21.53-55.1,29.11-9.85,4.24-2.27,13.29-3.89,20-.94,4.54,0,9.71.32,14.44,29.72-7.92,55.94-26.93,83.89-37.37-.9,13.63-67.07,41.66-81.42,43.86-3,6.1-.08,15.27-1.42,22.09-1.2,11.56,5,8.12,10.84,5.76,16.76-6.78,33.83-12.92,50.17-20.62,8.38-2.06,29.82-22.52,34.38-19.12-14.33,22.42-45.15,30.92-68.91,41.54-8.05,3.53-17,5.18-24.81,9-2.3,2-.3,12.55.35,16.63-2.36,13.15,4.48,11.17,12.65,8.14C193.43,1584.65,215.61,1577.44,237.09,1568.54ZM124.4,761.74c4.76-19.07,12-35.82,8.79-57-2-2.73.65-8.58-.31-14-1.6-9-5.88-13-15.16-8.07-14.12,7.53-15.15,21.71-16.32,34.72-2.06,18.76,5.51,35.91,17.39,50.07C120.72,765.59,123.86,764,124.4,761.74Zm208-53c-7.9-2.46-10-10.92-11.21-17.76-22.81-76.29,135.21-99.26,99-9.19-6.26,11.33-11.73,23.72-24.45,30.07-7.85,4.46-13.31-2.1-7.17-8.58,6.52-9.5,13.54-18.71,19.43-28.59,8.7-14.6-2.52-33.62-20.29-33.62-15-3.24-10.84,11.29-14.35,18.17C365.21,672.13,351.24,714.33,332.4,708.73ZM343,689.58c9.07-14.42,19.27-29.69,23.57-46.07-22.07,4.32-39.59,26.68-28.59,49.32C339.63,691.77,341.89,691.09,343,689.58ZM57.48,129.21C68.62,130.39,67.2,108,55.09,111,43,111.78,44,131.1,57.48,129.21Zm218.64,63c-.61,18.49,21.39,19.13,23.12,1.28-.33-10.67-8.11-12.28-15-13C276.31,179.76,276.38,186.87,276.12,192.21ZM245.33,128.8c-9.71-.39-7.29,6.78-8.39,10.72,0,9.79,2.28,14,7.22,13.43,7-.85,14.38-3,14.63-11.37C259,133.52,254,129.15,245.33,128.8ZM107.31,260c-.79-10.29-19.61-3.78-18.08,5.76C88,283.61,108.44,275.87,107.31,260ZM272.23,36.79c7.61-.31,6.74-7.11,6.75-12.32s-3.15-7.78-8.31-7.5C259.57,17.41,260.85,38.65,272.23,36.79ZM242,89c18.67,2.83,20-24.06,2.44-23.63C232,64,229.54,87.05,242,89Zm68.43,33.59c13.62-1,9.5-24.17-4.31-22.41-8.14.46-7.69,6.94-8.25,8.42C295.08,123.84,305.06,122.29,310.4,122.55Zm68-77.47c7.39,1.92,8.26-4.93,8.22-9.33,0-5.17-1.86-12.51-8.55-12.36C366.24,23.71,361.33,47.13,378.38,45.08ZM320.13,66.33c7.86-.08,8.74-23.15-3.79-20.12-6.41.8-10.18,4.84-10.55,11.41C305.17,68.49,315.18,64.92,320.13,66.33Zm29.1,182.27c-2.3,15.44,21.09,17.43,19.86,1C371.73,235.09,349,235.81,349.23,248.6Zm-7.64-61.22c10.46.23,15-4.29,15.66-10.88.35-3.66,2.5-10.29-5.29-11.64C335.72,160.07,328.9,184.84,341.59,187.38Zm-63.8,95c13.29-1.48,8-26.45-3.38-24.36-12.1.26-9.75,7.85-9.91,12.27C264.21,278.54,271.66,282.6,277.79,282.42ZM122,35.07c10.54,1.92,7.8-15.86,1-16.22-6.5.08-10.36.46-10,5.87C113.34,30.33,115.19,34.87,122,35.07Zm17,182c12.25,1.08,14.47-19.05.77-18.26C129.86,197.34,127.66,217.81,138.9,217.09ZM102.49,465.71c-.49-5.57-.64-11.8-8.94-10.75-9.26-.74-11.9,5.93-12,12.51C81.22,480.17,104.18,479.89,102.49,465.71ZM142.28,83c9,1.42,10.53-4.57,11.15-11.34.81-8.78-7.23-8.27-11.29-8.26-8.12,0-8.31,8.19-8.92,13.87C132.59,83.14,137.67,83.55,142.28,83ZM86.45,584.92c-13-2.69-16.31,23.12-2.77,22.08C96,608.18,101,583.69,86.45,584.92ZM178,258.68c12.07,2,12.71-21.21-.39-19.88-5.84.16-9.42,1.6-8.65,8.37C167.79,254.15,172.36,258.06,178,258.68ZM191.94,45.09c7.82-1,4.33-7.51,6.42-11,1.37-13.1-16-15.63-17.36-2.54C179.81,39.76,180.7,46.47,191.94,45.09Zm-44.75,414c-.07,5.05,1.95,11.75,8,11.59,5.79-.16,14.07-1,12-10.4C169.85,444.15,147.23,444.67,147.19,459.05Zm32.35-320.66c13.48.51,13.87-25.17.07-23.14C166.33,117.26,165.22,139.83,179.54,138.39Zm9.87,50.49c.09,3.89,0,11.27,6.48,10.38,8.71-.11,12.29-4.14,13.09-10.57C210.62,173.1,188.69,175.21,189.41,188.88Z"/></g></g><g id="Red_Japanese_Frames" data-name="Red Japanese Frames"><path class="cls-8" d="M0,20V1580a20,20,0,0,0,20,20H956a20,20,0,0,0,20-20V20A20,20,0,0,0,956,0H20A20,20,0,0,0,0,20ZM924,1548H52V52H924Z"/><path class="cls-9" d="M952.1,15.41,928.69,38.83A4,4,0,0,1,925.86,40H50.14a4,4,0,0,1-2.83-1.17L23.9,15.41A2,2,0,0,1,25.31,12H950.69A2,2,0,0,1,952.1,15.41ZM40,1549.86V50.14a4,4,0,0,0-1.17-2.83L15.41,23.9A2,2,0,0,0,12,25.31V1574.69a2,2,0,0,0,3.41,1.41l23.42-23.41A4,4,0,0,0,40,1549.86ZM936,50.14V1549.86a4,4,0,0,0,1.17,2.83l23.42,23.41a2,2,0,0,0,3.41-1.41V25.31a2,2,0,0,0-3.41-1.41L937.17,47.31A4,4,0,0,0,936,50.14ZM925.86,1560H50.14a4,4,0,0,0-2.83,1.17l-20,20a4,4,0,0,0,2.83,6.83H950.69a2,2,0,0,0,1.41-3.41l-23.41-23.42A4,4,0,0,0,925.86,1560Z"/></g></svg>