<svg xmlns="http://www.w3.org/2000/svg" xmlns:xlink="http://www.w3.org/1999/xlink" viewBox="0 0 976 1600"><defs><style>.cls-1{fill:none;}.cls-2{fill:#f4f3ef;}.cls-3{clip-path:url(#clip-path);}.cls-4{fill:#ffb85a;}.cls-5{fill:#997664;}.cls-6{fill:#d81e1e;}.cls-7{fill:#592116;}.cls-8{fill:#992d17;}</style><clipPath id="clip-path"><path class="cls-1" d="M960,22V1578a6,6,0,0,1-6,6H22a6,6,0,0,1-6-6V22a6,6,0,0,1,6-6H954A6,6,0,0,1,960,22Z"/></clipPath></defs><g id="Paper_Backing" data-name="Paper Backing"><path class="cls-2" d="M960,22V1578a6,6,0,0,1-6,6H22a6,6,0,0,1-6-6V22a6,6,0,0,1,6-6H954A6,6,0,0,1,960,22Z"/></g><g id="Wikipedia_Cropped" data-name="Wikipedia Cropped"><g class="cls-3"><path class="cls-4" d="M492.54,1252.26c-18-9.57-4.23-18.58-29.72-26.5-16.51-28.09,24.93-58.43,51.58-46.08,30.1-2.94,55.49,46.62,22.74,60.46-19.56-2.69-15.07,3.92-30.52,8.06C500,1244.9,497.59,1249.83,492.54,1252.26Zm-199.21-14.34c-3.62-.53-5.51-5.18-9.82-3.61-6.66-3.06-11.09-11.09-14.8-16.14-1.32-2.93-4.53-3.82-7.45-3.24-8.41-.38-18.48-14-28.9-8.35-28.36-5.75-5.19-32.65,5.82-43.18,16.23-12.22,37-13.55,56.53-13.33,31.86.62,65.74,29,63.48,60.89-8.94,17.39-19.84.94-40.78,12.9C305.9,1223.33,305.12,1236.7,293.33,1237.92ZM594.7,1132.74c-8.48-1-4.25-11.29-7.64-15.9-4.84-3.7-4.28-12.43-8.66-16.19-7.91-7.65-15.09-15.79-24-21.33-5.07.48-8.73-6.36-13.56-6.83-8.17,2.73-18.2-5.8-11.76-14.56C590.51,975.07,702.94,1124.49,594.7,1132.74Z"/><path class="cls-5" d="M55.16,1604c-7-2.51-56.19,5.34-59.16-4,6.66-12.93-13.34-113.44,13.22-113.1,44.64-26.26,88.49-59.88,110.18-108,14.12-37.48,60.94-35.83,82.73-59.52,14.68-14.33,27.53-30.46,47.59-38.71,14.3-5.86,26.58-11.89,32-26.43.79-2.15,3.28-3.48,6.5-3.48,3-.18,6,2.46,6.63,5.43,1.8,10.07,12.94,15.14,18.82,22.8,14.21,6.36,36.59,11.56,52.5,6.15,64.1-35.74-22.69-54.51,38.76-67.23,16.3-7.06,10.09,11.54,10.14,20.68,5,33.39,40.34,53.32,70.85,40.7,2.67-2.46,7.64-2,9.73.89,9.39,7.72,42.54,34.17,57.7,21,.81-3.32,4.86-3.52,7.62-4.41,17.61.67,18.36-19.38,30-23.1,40.1,24.46,86.79,58.89,136.69,55,24.88-3.74,36.81,25,57.66,26.46,62.6-10.33,95.16-73.28,150.93-94.58,32.89,4.76,11.73,27.47-3.54,41.16-39.42,41.86-76.55,86.47-129,113.66-119.47,51.49-317.39-209-403.76-46.77-33.58,74.41-90.88,63.08-134,110.68-38.06,35.44-58.3,73-88,109.67-3.72,3.39-.17,7.45.73,11C179.5,1610.79,59.1,1600.62,55.16,1604Zm162.72-560.57c-15.81-11.94-22.6-37.76-37.2-52.69-13.42-17.13-22.7-33-22.1-57.79,3.2-19.09-8.93-45.46-1.29-65.7,10.22-27.69-10.19-40.92-8.13-65.63C146,765,155.5,729.24,138.75,692.51c-4.64-30.08,16.07-61,18.41-91.4,5.44-11.72-8.71-10.47-9.12-19.24-.66-43.11-3.52-86-2.13-129,3.8-30.14-5.47-61.75,6.47-90.69,16.94-26.75,48.75,6.67,42.22,27.28,8.28,176.26-4.67,353.16,22.32,528.22-2.88,40.67,42.77,61.94,57.13,96.49-.92,2.34-3.57,4-7.28,4.58C245.8,1020.48,232.92,1033.5,217.88,1043.43Zm379-100.93c-11.77-6.1,4-23.11,2-31.9-17.08-33,6.16-78.1,2.28-115.64.13-29.91,9.44-59.76,3.51-88.92-8-23.4,6.42-47.4,8.39-70.84,2.14-17.43,5.69-36.09,5.68-53.32.57-29.71,44.28-27.45,24-79.92A42.35,42.35,0,0,0,628.35,483c-14.07-21.12-.82-60.2-.9-88.11,5.36-48.61-1.63-97.64,7.48-145.88,1-38.65,48.63-5.22,41.91,21.34-1.52,35.75-4.84,71.93-2.75,107.8-4,26.56,12.3,54,6.21,79.06-.14,9.13-10.15,8.06-10.91,15.65,2,19.8.18,39.12,1.65,58.81,3,18-7.68,33.91-7.59,50.43,1.59,3.36,7.56,2.44,7.1,7.08-11.43,89.3-15.39,159.83-13,247.06C654.45,991,687.84,920.81,596.84,942.5Z"/><path class="cls-6" d="M457.54,1411.2c-9.38.62-7.8-8.09-15.39-6.68-16.73.31-28.86-25.87-28.58-40.76,4.22-31.61,26.83-48,58.68-47,14.55-2.44,27.69,8.06,32.24,20.27C531.18,1364.88,491.4,1408.45,457.54,1411.2ZM76.46,1349.37c-58.91-3.76-63.66-86.9,0-91.81C135.23,1260.07,139,1347.13,76.46,1349.37Zm471.94-52.48c-47.35,5.06-51.85-32.38-63-22.47-19.83,17.84-56.33-5-66.61-23.7-9.71-10.44,4.37-21.71.2-31.13-1.86-3.36-5.2-6.74-9.32-4.58-6.67,5.55-23.35,4.91-29.51,13.86,34.28,43.92-24.59,73.87-62.85,51.07-20.11-4.13-25.41-43.74-35.32-26.54-22.61,48.31-104.28,37.17-108.55-18.53-81.34-10.18-91.31-131.26-1.44-130.37,76.25,15.55,4.3-21.59,54.53-65.25,42.34-41.31,119.37-14.28,121.13,44.88,6.85,13.36,33-12.7,48.45-7.26,11.6-3.07,35.64,9.44,51.94,23.68,5.64-5.46,27.3-20.32,21.5-28.24-58.14-66.61,19-178.06,86.43-96.78,24.74-28.51,61.53-51,100.13-31.94,15.32,2.43,3.19-13.16,4.5-20.61-2.63-8.72,2.78-15.28.75-22.69,4.14-25.11,34.58-37.84,56.51-30.74,38,10.57,43.89,61.86,11.33,83-23.89,16.31-57.88-9.95-31.49,32.64,10.32,12.42,18.86-15.38,34-11.86,15.64-1.7,29.66,13.57,29.28,29,0,14.72-13.38,28.64-27.48,28.64-20.41-.1-30.4-31.93-37.61,5.87-11.35,17.67,49.59,10.52,58.33,40.67,16.5,31.18-28,63.23-10.88,67.75,12.23.78,22.24,9.88,27.22,20.56,23.58,27.59-16.43,69.14-46.83,57-13,3-23.57-36.81-34.34-20.63-15,55.08-63.27,56.3-108.43,52.77C587.41,1280,579.63,1298.58,548.4,1296.89Zm-60-110c-11.66,5-44.63,30.8-22.72,41.06,16.84,3,20.12,40.2,33.06,30.09,11.87-17.51,38.88-11.5,48.28-23,4.6-6.16,1.29-9.6-2-14.91C545.73,1190.33,512.47,1180.55,488.36,1186.88Zm-223.84-28c-20,6.31-38.17,20.85-40.82,42.46,12.71,8.68,32.25,6.33,45.91,20,10.38,3.33,10.5,18.76,18.62,23.93,32.91-34.81,70.54-18.53,63.48-34.92C347.8,1166,303.64,1152.09,264.52,1158.92Zm267.64-99c-28.37,11.72,51.05,18.69,55.57,66,3.41,8.29,32.14,2.59,38.75-1.1-.65-11.86,7.68-24.74,4.47-36.31-7.36-28.77-37.19-54-67.87-46.66C551.59,1041.76,543.91,1058.66,532.16,1059.94ZM308.35,988c-59-.19-58.67-90.76.09-91.25C369,896.37,369.63,987.91,308.35,988ZM112.67,898.22c-53.39-3.11-65.91-73.86-12.8-92.77C169.23,789.86,182.89,896.56,112.67,898.22Zm419.87-.5c-19.08-11.63-17-1.67-31.08-10.7-44.55-29.59-25.59-103.75,28.44-104.33C608.45,779.7,610.3,894.7,532.54,897.72Zm-258-76.8c-70.25-3.57-51.82-107.53,13.48-86.18C333.51,745,326.11,819.36,274.5,820.92ZM744.79,721c-77.3-1.27-77.72-112.24-1.18-114.3C815.87,611.05,819,713.58,744.79,721ZM595.84,572.78c-6.34.74-8.23-4.31-13.26-4.93-3.29.8-6.74,1.87-9.63-.76-17.88-9.45-32-32.29-27.27-54.42,2.08-6,2-11.17,8.13-14.41,7-6.62,1.74-14.17,15.68-17.82C643.19,441.2,680.69,563.3,595.84,572.78Z"/><path class="cls-7" d="M956.89,1266.39c-6.36-8.73-18.52-13.65-26.41-9.55-41,14.45-126.76,118.15-162,81.61-10.79-9.72-24-19.78-37-16.53-19.45,4.85-36.25-.76-51.09-8.52-21.62-11.31-46.44-16.08-65.56-32.41-9.55-8.15-21.5-13.35-30.48-24.17,45.44,13.86,98.08-5.37,109.64-54.82,25.35,51.28,102.58,22.92,85-31.45-1.83-5.68-2.61-9.69,2.78-13.71,6.41-6.68,22.44-13.9,18.74-24.78a2.43,2.43,0,0,0-4.21-.26c-4.48,8.39-13.58,11.79-19.53,18.56-3.59,4.08-7.71,5.39-11.8.05-4.52-5.91-11.08-8.15-18.09-9.57a6.89,6.89,0,0,1-3.59-2.76c38.51-44.38,12.49-97.39-47.24-90.76.42-1.62.38-3.64,1.37-4.77,3.47-4,4-9.11,6.14-13.52.67-1.37.19-7.21,3.65-4.73,14.92,15,40.21,15.36,52.33-2.64,25-35.55-29.52-75.2-54.36-36.5-1.45,2.35-3.27,1.11-3.75-.66.83-8.81-7.39-13.27-8.83-21,26.18,5.54,51.12-8.34,60.26-34.15,16.37-52.49-53.09-93.63-89.75-43.87,1.27-66.24-3.06-130.22,2-195.87,1.55-12,2.64-24.15,4.14-36.2.65-5.18,4.16-4.84,8.15-3.84,18.46,4.63-10.86,20.71,20.7,57.08,32.32,40.19,105.27,13,107-36.7,5.2-44.42-43-81.69-84.31-63.48-15.82,5.85-26.81,17-34.32,32.07-2.88,5.78-7.48.05-11.27.38-2.45.22-2-1.59-2.08-3-.74-19.75,4.23-39.15,2.55-59.12-1.27-15.12.76-30.52,1.44-45.79.77-17.06-1.77-34.19,1.87-51.2,2.89-13.47,10.43-26,8.13-40.55-12.31-52.68-5.08-106.1-5.87-159.53.34-17.5,2.25-35.35-15.84-46.5-10.74-7.51-21.84-14.84-30.63.33-6.63,13.67-4.59,29.67-7.5,44.42-3.75,63.13-6.31,126.4-10.26,189.58-.07,2.67-.41,4.4-3.57,2.94-35.72-14.21-76,17.42-72.59,55.61,1.65,50.33,44.61,41.28,38.09,59.65-4.65,15.58-9.44,31.11-18.26,45-1.92,3-6.54,6.91-2.53,9.88,3.6,2.66,6.79-1.83,9.19-5,12-16,18.35-34.08,22.48-53.71,1.68-8,14.39,1,20.69-4.61.19-.17,1.61.72,2.16,1.37-1.32,26.87-6.13,53.77-11.2,80.26-13.28,32.87,3.31,56.62-2,89.51-3.94,20.9-4.32,42.46-6.5,63.71-.23,2.23,3,4.73-.47,6.66-28.77-71.39-133.56-42.6-119.76,33.69,3.35,17.22,11.75,30.41,26.45,39.28,7.27,4.39,11.7,6.79,4.59,16.09-5.58,7.3-11.3,13.84-18.5,19.33-.92.7-1.17,2.29-1.73,3.47,1.73.59,3.67,2.39,5.09,1.88,7.43-4.61,15.63-8.14,20.73-16,5-7.63,7.75-17.89,21.09-15.25,24,3.46,47.84-11.14,57.92-33.58,1.13,24.76-5.95,46.76-3.57,71.35.23,2.52-1.21,6.41-3.17,7.69a73.85,73.85,0,0,0-25.15,27.66c-20.33-37.86-72.22-44.63-97.42-6.53-23.14,31.61-18.67,81.08,11.56,106.29-6.86,6-14.16,11.92-18.17,20.73-1.84,4.05-3.15,2.92-5.92.45-20.73-25.4-64.13-29.32-89.13-11.72-2.92,2.05-3.72,1.72-4.59-1.31-5.45-32.14-21.15-58.82-54.91-66.19-5.91-1.55-12.67-.85-17.07-6.67-15.59-24.18-38.42-42.92-53-67.56-12.09-23.77,10.12-22.07,24.23-18,3.83,1.2,10.22.52,8.85,8.73C257.57,951.9,263,973.75,281.51,985c38.21,25.08,90-12.68,76.06-56.55-4.39-16.25-27.05-39.11-43.35-37.17-15.82,1.89-32.51,2.94-42.59,19.13-1.2,1.93-4.08,8.16-8.34,6.06-7.53-3.71-15.26-3.17-23.11-3.64-6.36-.38-15.93.3-18.3-3.29-4.44-6.76-6.31-16.24-6.39-24.62-.2-19.5-.4-39.06-3.91-58.13-2.49-13.58,1.28-20.53,14.18-24,2.84-.75,4.74-2.32,6.76.94,16.3,26.37,50.54,29,72.64,11.72,24.57-19.19,26.45-65.13-5.23-81.82-17.07-7-3.51-16.22-10.76-29.94-2.1-7.48-10.61-5.76-8.94,1.75,1.59,38.42,1.62,10.28-25.93,24.16-21.27,7.33-35.36,37.55-28.68,59.29,1.24,4-1,4.68-2.74,5.24-4.1,1.32-7.43,5.53-12.1,4-1.07-.35-1.57-3.8-1.61-5.83-.2-9.45.24-18.92-.27-28.34-6.44-79.77-3.21-159.66-7.58-239.64-5.39-36.8,12.37-157.28-18.76-173-25.93-16.8-44.76,15.2-41.55,38.07,3.4,45.79-1.45,91.31,1.05,137.09,2.09,16.59.31,33.63,1,50.44,1,25.63,3.9,51.79-4.72,76.22-7.72,21.88-5.9,42.27,1,63.12,8.55,26.18,0,52.75,3.32,79.13,1.29,4,0,8.78-.18,13.21-46.33-31.79-101.1,23.85-72.66,71.08,1.64,3,1.36,4-2,5.35-6.45,3.57-24.35,7.5-24.72,15.14,1.4,3.75,11.91-.67,15.47-.49,7.87-1.3,15.06-10.54,22.44-6.61,22.85,12.16,44.26,15.79,65.08-3.39,1.88-1.73,2.73-.47,2.95,1.75,1.21,11.84,3.82,23.69,3.51,35.48-4.17,41.29,28.88,69.82,46.53,103.31,25.64,35.12-8.13,25.86,7.49,74.62-43.65-12.58-96.22-1.67-103.69,50.59-3,35.5,20.85,69.15,55.75,78,2.61.6,6-1.09,8.83-.93,7.93,1.7,5.86,18.47,10.14,24.54,2.11,4.53.36,3.9-2.47,3.79-13.42-.5-26.14,3.85-39.19,5.47-7.72.95-16.42,9.45-23.2,2-61-56.38-129.28,50.66-54.16,83.49,34.43,12.77,78.86-18.22,67.92-55.2-7.49-19.28,2.06-21.53,16.8-23,56.13-13.35,34.24,4.94,85.22,14.5-10,2.12-15.93,10.36-21.06,17-14,18.29-33.91,26.59-53.57,35.59-9.06,4.15-18.91,6.34-25.71,14.75-9.81,12.14-15.77,26.6-24.45,39.29C79,1434.57,39.41,1461.33,0,1485.38c-9.1,2.91-9.27,16,2,10.76,30.22-19.68,62.77-36.84,86.56-64.75,12.74-16.24,26.76-31.53,34.6-51,8-19.8,25.49-29.1,43.19-35.61,36.52-9.35,52.09-45.82,84.93-60.42,14.71-6,28.24-12.62,34.21-28.74.93-1.23,5.19-1.29,5.45,1.3,1.56,8,7.37,13,12.93,18.12,2.12,2,6.41,4.93,6.07,5.63-16.81,35.21-39.83,67.24-72.67,89.56-24.5,13.79-118.68,103.61-117.85,128.25,3.42,2.52,5.73-1.38,7.65-4.15,60-95.57,127.88-48.14,205.74-100.65,4.78-3,2.77-9.2-2.47-6.81-26.49,12.15-52.54,24.7-82.29,26.14a117.78,117.78,0,0,0-22.42,3.62c-11.68,3.2-24,3-35.51,7.75,25.58-22.35,47.44-50.56,84-56.46,52.87-9.27,86.89-8.51,131.85-42.8,6.42-3.94,2.47-10.2-4-7.81-17.84,9.56-34.86,20.31-54.52,26.12-25.13,5.85-50.74,9.91-75.88,14.72,13.79-19.35,31.72-36.84,39.78-59.54,1.58-10,6.93-13.56,12.44-12.23,9.77,2.35,19.77,5.47,29.74,5.31,30.37-.79,55-35.24,32.55-58.74-4.41-5,.87-5.4,2.79-5.67,8.49-.57,15.17-6.09,23.48-6.81-3.69,22,1.05,37.84,18,52.16,7.77,7.21,14.83,16,29.65,13.55,9-1.46,19.36,2.49,28.19-3.61,2.34-1.61,3-1.18,4.64.44,15.74,15.58,36,23,56.67,27.47,59.91,14,112.25,47.14,170.31,66.79,54.94,23.3,98.77,23.79,133-29.73-8.31.31-13.78,7.58-19.76,12.39-10,8.48-19.85,17.63-33,20.84-44.1,7.24-83.84-18.27-124.48-31.23-14.07-4.74-27.18-13-40.59-19.78-24.29-14.17-53.91-16-77.73-27.75,11.17-3.63,24-4.5,28.22-18.09,2-6.38,5.16-8.4,10.9-3.81,24.23,23.51,56.85,33.46,87.27,46.31,27.67,16.15,53-5.41,76.27,19.69,45,47.59,127.36-60.64,170.51-80,6.71-4,13.82,0,19.07,4.67,4.34,3.86-.72,7.17-2.84,9.76-5.25,6.4-11.08,12.34-16.81,18.32-50.36,49.65-116.87,146.17-197.6,113-59.07-21.15-114.47-51-171.08-77.83-46.19-22.85-118.69-41.41-151.92,11-13.46,19.65-21,42.39-39.54,59.78-19.3,18.06-38.46,34.43-64.33,39.94-19.52,4.16-29.57,19.57-42.14,31.6-35.84,32.35-59.25,74.91-90,111.61-4,3.28-3.75,10.31,1.5,11.75,2,0,3-3.31,4.68-4.4,10.6-7,13.41-19.85,22-28.87,13.91-14.68,23.77-33.23,37.84-47.73,22.32-23,38.41-52.93,72.65-63.32,39.18-11.58,73.25-43.12,91.7-79.81,1.06-2.86,4.3-4.9,6.54-7.32a85.46,85.46,0,0,0,17.76,38.76c2.84,3.78,9.42,4.83,9,10.64.36,10.55-7.59,22.27-1.79,32.06,4.58,3.08,7.21-6.66,7.93-9.79.6-2.71-.74-6,.33-8.4,2.2-4.82,0-14,6.51-14.06,47.12,1.15,91.55-53.41,54.29-94.68,18.29,6.21,35.58,9.08,49.5,17.5,54.71,30.15,111.5,55.62,169.1,79.68,45.15,21.62,95.4,4.92,129.84-27.93,37.44-31.29,69.27-68.89,101.67-105.26C959.83,1280.53,961.84,1273.19,956.89,1266.39ZM732,977.3c31.91-1,32.68,47.93,1.46,49.64C698.74,1022.63,699.71,980.44,732,977.3Zm57.55-331.73c4.82-2.15,4.66,3.73,5.09,5.79,4.05,26.49-5.86,50.09-30.83,60.75-4.14,2.07-3.57-3.45-4.63-5.54-3.91-7.71-6.95-15.88-11.17-23.4C743.9,676.54,782.05,647.28,789.55,645.57Zm-93.49-8.42c18.67-30.82,68.58-36.59,89.78-3.95,1.94,3.12,1.87,3.42-9.85,9.61-13.91,7.37-25.09,17.75-34.52,30.17-.87,1.15-.79,2.62-2.9.63a136.61,136.61,0,0,0-42.33-27.74C689.2,643,694.88,638.86,696.06,637.15Zm-6.35,25.77c1.71-15.26,9.51-3.28,12.92-1.57,22.17,11.09,41.08,25.72,48.39,51,1.13,3.92-1.07,4.93-9.49,4.48C715.81,716.54,686.7,690.75,689.71,662.92ZM510.5,790.68c14.51-8.2,48.38-3.11,59.6,9.35,1.92,2.13,0,2.85-1,3.87-12.23,12.14-24.83,24-31.38,40.51-1.39,3.53-2.67,3.81-5.78.67-13.8-14-31.89-17.91-50.18-20.84C486.16,808.73,496.73,798.46,510.5,790.68Zm8.72,88.83c-2.87,9.79-7.86,10-15.35,4.31-15.17-11.4-24.25-25.64-22.8-45.28.26-3.49.33-3.48,5.94-3.48,15.49,2.89,31.49,7.3,40.56,22.38C529.47,862.32,521.62,873.42,519.22,879.51Zm38,7.94c-7.56,3.9-15.87,3.73-24.68,6.27-15.87-4.16-1.68-13.43-.37-16.31,12.62-23.16,21.42-51.57,44.07-67,3.42-2.25,5.31,3.82,6.15,6.16C591.66,842.1,586,872.62,557.22,887.45ZM348,925.13c8.37,22.9,1.42,40.35-18.66,53.94.13-7.11-4.43-11.41-8.14-16.07C309.31,948.4,334,953.11,348,925.13Zm-33.74-24c11.45,1.5,22.83,6.88,28.17,17.52-8.94,11-18.51,21.79-31.36,27.78-2.5,1.17-9.25-7.3-14.3-11-7.52-5.44-15.28-10.55-22.9-15.78C283.66,906.42,296.77,898.94,314.23,901.08ZM268.76,931c2.78-7.44,54.71,42.84,52.8,50.79C291.18,992.62,258.05,961.65,268.76,931Zm30.35-123.32c-18.38,15.32-47.05,10-59.27-9.4-3.62-5.6,3.11-4.58,5.19-6.19,4.21-3.27,9.81-9.17,13.26-8.23C262.59,783.52,308.28,804,299.11,807.71ZM285.8,743.47c2.86-9,8.06-3.82,10.4-1.91,14.82,11.09,25.26,33.26,13.37,54.49-1.79,4.45-3.22,2.58-5.85,1-9-5.55-17.86-11.42-27.38-15.86-7-3.26-12.39-6.2-5-13.34C278.48,760.87,283,752.42,285.8,743.47Zm-53,32.83c-1.33-21.16,18.52-41.24,43.19-41.24,7.94.75-1.09,8.09-1.55,9.19-7.82,18.77-20.32,34-39.32,41.93C231.61,787.66,233,779.53,232.82,776.3ZM76.69,1261.55c6.38-1.15,41.14,9.86,22.49,18.33-10.71,4.7-19.12,16.52-32.53,12.56-9.58-2.83-20.05,1.61-28.62-6.36C44.74,1270.31,59.24,1262.75,76.69,1261.55ZM33.56,1308c-1.3-8.65.79-14.24,10.31-9.59,8.43,2.45,17.71,2.57,26.49,3.46-2.15,3-3.72,6.76-6.56,8.71-8.4,5.76-9.44,16.07-15.83,23C41.69,1326,34.71,1318.84,33.56,1308Zm27.17,34.7c-16.37-6.3,38.31-57,49-58.67,5.07-2.62,6,2.91,6.87,5.11C127.76,1323.25,95.07,1355.39,60.73,1342.7Zm668.48-127c-5.37,13.71-30-17.21-28.15-27.67.21-5,7.26-2.27,11-2.57a63.33,63.33,0,0,1,19.91,2C745.83,1190.22,730,1199.58,729.21,1215.66Zm38.11-45.72c1.6-2.08,2.78,1.36,3.4,2.44,10.8,21.74-11.89,49.07-34.87,48.6,4-8.22,8.21-15.33,11-23C751,1186.56,760.24,1179.08,767.32,1169.94Zm-5.72-11.83c2.46,2.11,2,3.05,0,5.18-5.77,6.16-10.71,13.24-17.11,18.58-1.74,1.46-7.65-1.66-11.45-3.18-10.35-3.3-21.59-2.06-31.89-.81C703.27,1151.59,741.46,1138.74,761.6,1158.11ZM720.26,874.29c19.25,8.27,30.9,29.61,25.62,50-3.61,1.91-4.54-3.53-7.31-4.83-18.48-8.62-21.2-25.13-21.48-42.85C717.05,874.61,716,872.34,720.26,874.29Zm-54.87,23.1c6.59-13.65,17.24-22.22,32-25.87,10.14-2.49,14,.9,11.85,8.37-1.73,10.91,2.28,17,2.89,24.88-15-2.57-29.69-7.82-45.24-4.4C664.74,901,665.08,898.63,665.39,897.39Zm12.29,11.42c21.7-.95,40,7.82,57.79,18.31,8,4.7,4,15.13-8.22,21.92-24.85,15.54-63.35.25-62.65-30.69C660.81,906.12,669.53,909.17,677.68,908.81ZM575.15,563.75c-18.47-7.92-36.85-43.31-19.85-61.78,14.4,15.71,21.32,36.67,23.58,57.63C579.39,565.34,578.52,566,575.15,563.75Zm6.36-39.13c-4.75-10.93-11.54-20.36-18.58-29.95-5.21-7.1,5.36-8.19,8.86-10.95,16.38-12.12,40.31-7.22,55.12,5.16,4.28,3,1.22,3.4-1.43,4.67-15.33,7.34-27.7,18.52-38.91,31.05C584.53,526.88,582.58,527.09,581.51,524.62Zm21.93,43.11C581,573,590,557.11,588.88,549.38c-4.27-29.79,22.72-34.35,39.73-45.95,13.44-9.14,8.55,7.34,11.92,11.69C647.68,537.11,625.32,562.65,603.44,567.73Zm37.28,199.35c-.4-1.52-2-2.72-3.08-4.06-.92,1.39-2.43,2.7-2.66,4.2-2.14,13.92-4.31,27.85-6,41.84-5,34.54-19.54,60.57-31.9,94.53-1.64-26.15,3-46.18,5.83-71,2.12-37.71,4.95-75.42,8.11-113.07.73-9.48-5.08-17.83-5.28-26.91,1.67-19,8.58-37.8,11.17-56.79,2.11-18.07,6-36.67,5.63-54.82-2.94-13.07,10.17-14.94,15.59-21.59,15.1-18.57,16.21-37.59,8.21-58.87C637.55,476,621,486,627.47,456.91c.92-41.27,5.85-82.05,7-123.26,2.2-17.95-3.32-36.75-.15-54.92,1.08-8.06,2.82-16.09,4.44-24.07,1.09-5.36-1.92-11,2.26-16.21,3.7-4.61,7.48-4.21,11.86-2.14,14.31,6.78,20.41,18.72,19.92,33.93-1.6,57.28-10.17,115.77,5.75,171.82,2.3,6.37-2.32,12.78-4.38,20.46-6.32-38.62-22.53-73.76-18.78-112.2,2.59-21.54,3.47-43.41,9.39-64.52.53-4.73,1.82-11.33-2.4-14.64-23.08,50.69-22,112.47-2.41,164.87,9,30.17,4.89,64.66,7,96,1.14,14.49-2.71,27.94-7.11,41.5-9.34,30.7-18.69,61.5-27.83,92.23-3.56,14.53-6.29,29.28-8.74,44-.56,3.33,3.16,5.64,6.27,7.19,10.05-44.45,23-83.28,36.92-128.07-4.28,58.88-16.09,111.37-13.32,169.52-.22,19.48.44,39,.86,58.45.39,17.37-2.76,34.7.15,52.15,1.54,23-.75,46.46,2.57,69.45-20-6.68-39.72-8.87-60,0-.14-12.66,6.66-23.09,11-33.84C624.61,861.23,649.76,814.9,640.72,767.08ZM469.8,1065c-50.71-63.95,23.42-162.61,79-88.22,10.78,21,18.82-21.45,51.56-31.34,53.21-21.25,117.71,32.95,91.79,89.91-2.7,5.91-7.1,11.69-3.81,18.36,1,2.55,2.34.16,3.69-.38a19.18,19.18,0,0,1,5.56-1.22c17.28-1.47,47.94,12.84,52.86,26.68,7.57,21.35-1.65,50.89-26.38,62.06-13.92,5.5-31.24,20-43.17,3.22-10.75-13.07-26.35-17.1-43.07-20,7.42-5.35,53.47-32.84,48.48-40.22-3.32-3-6.78.39-9.3,2.41a291,291,0,0,1-46.65,31.06,82.08,82.08,0,0,1-35.59,11.41c-.41.08-1.66-1.51-1.57-2.21.15-1.18-2.54-2,.47-3.76,23.73-12.57,45.82-27.1,63.81-47.25,4.7-4.59,11.77-7,12.25-14.47-2.06.09-4.84-.66-6.07.39-18.22,15.56-36.33,31.25-56.54,44.22a110.6,110.6,0,0,1-16.77,8.62c-.45.2-3.17-4.34-4.47-6.86-1.83-3.58,2.21-5,3.63-5.76,14.91-8.25,26.8-19.71,38-31.89,8.81-10.56,20-19.19,24.95-32.39,2.53-4.66-2.84-9.27-5.14-3.72a299.07,299.07,0,0,1-49,51.15c-5.11,4.23-10.14,8.65-15.71,12.18-2.91,1.85-4-2.65-6.14-3.81s-.94-1.54.23-2.46c14.12-11.06,23.3-25.93,32.65-40.69,8.52-12.79,16.53-25.83,21.09-40.58,1.72-5.25-4.07-8-6.8-4.06-6.1,13.87-12.62,27.31-21.76,39.28-9.53,13.09-17.57,26.89-28.56,38.95-3,3.91-5.53,1.54-8.28-.25-3.21-2.08-2.61-3.76-.36-6.52,13.2-16.54,37.77-53.18,38.48-73.87-.31-1.43.7-4-1.86-3.83-1.48.08-3.79,1.34-4.17,2.56-7.14,22.7-20.37,42.29-32.86,62.19-2.43,3.89-3.85,16.68-15,9.12-1.39-.94-.39-5.92,2.06-9.47,10-14.48,15.64-30.8,19.8-47.71,1.08-4.4,4.8-8,4-13-.5-3.12,1.3-8.07-2.7-8.59-4.67-.61-4.39,5.21-5.22,8.11A269.37,269.37,0,0,1,542,1062.89c-2,3.42-3,8.93-8.79,4.59-5.13-3.85-.15-7,.76-10.67a149.18,149.18,0,0,0,4.36-27.65c0-7.32,6.32-35.72-2-38.13-1.39.47-3.15,2.25-3.31,3.61-2.19,19.06-3.9,38.18-6.32,57.21a31.82,31.82,0,0,1-5.62,13c-1,0-4.33-1.28-6.33-1.75-2.25-.53-1.17-1.66-1.14-3.19-.65-17.4,1.5-35-2.41-52.15-.82-6.86-11.52-6.51-8.16.26,4.16,16.39.79,33,2.1,49.47.44,5.58-1.7,5-5.7,5.73-7.73,1.46-15.72,2.24-22.75,6.94C472.91,1072.85,471,1067,469.8,1065ZM455,1215.31c-.32,1,.66,3-2,2.1-14.69-6.47-31.47,2.93-31.83-1.86-.83-3,2.16-2.1,3.36-3,13.72-10.89,26.56-22.47,31.72-40.47C455.91,1186.56,459.6,1201.07,455,1215.31ZM71.16,864.24c-6.71-14.19,1.89-35.14,13.14-45.56,1.58-1.39,1.44-1.7,2.93.59,7.76,11.9,16.85,22.8,28.1,31.61,1.78,1.4,2,2.2.63,3.23-8.56,6.39-17.7,12.1-25.78,19C76.62,884.78,75.86,870.22,71.16,864.24ZM145,881c-17.86,14.6-37.07,18.21-57.25,5.22,11.46-8.26,24.48-14.37,34-26,4-4.91,9.26,3.37,14.55,3.87,5.53.82,10.92,3.57,16,5.95C149.88,873.75,148.21,878.35,145,881Zm9.75-19.51c-24.58-7.65-44.28-24.9-59.26-45.13-3.44-6.21,2.87-6.56,5.9-7.1C132.56,801.84,163.56,829.56,154.71,861.49Zm19.48,113.29c-19.11-27.22-7.29-63.11-16.3-93.92,4.48-19.92,12-39.27-2.29-58.28-9.21-43.38,6.6-89.29-13.19-131.68-3.4-7.74,1.15-19,3.37-28.55,14.75-42.58,17.56-87.54,25.73-131.48,4.85-21.65,6.81-43.36,4.9-65-.88-10.05,1.52-20.77-3.15-30.51,3.57-6.55,1-7.35-1.34-13.22-.16-.64-2.72-1.47-3.45-1-3.26,2-1.41,5.38-1.43,8.06-.78,33.45,3,67.18-5.54,100a496.4,496.4,0,0,0-6.66,52.55c-1,4-3.47,3.24-2.75-.49-2.16-58.42-3.2-116.76-1.16-175.2-1.32-17.28-1.92-59.91,26-47,17.71,8.87,12.6,25.8,14,40.3,1.41,46.77,1.52,93.58,3.52,140.56,2.84,80.45-3,161.28,4.63,241.61,6.73,51.92,3.53,99.87,17.07,151.79-35.61-38.33-28.57-87.52-29.36-134.65,1.28-44.94-7.49-89.16-9.79-133.84,0-1.09-2-3.26-2.25-3.15-10.09,4.77-4.66,30.91-4.06,40.71,6.88,46.15,4.85,93.19,7.26,139.71.84,22.86,1.92,45.85,11.11,67.24,21.82,37.43,55.05,67.22,80.95,102,1.72,2.14-2,3.29-3.79,3.57-18.18,2.84-33.85,10.19-46.69,23.78-2.67,2.82-5.09-2.49-6-4.22C202.8,1012.91,187.86,994.3,174.19,974.78Zm80.14,299.89c-16.74,7.8-35.19,5.34-51.39-.56-12.07-4-20.76-19.84-23.88-32.73,0-13.33,12.85-26.57,26.87-30.07C249,1197.91,316.87,1244.49,254.33,1274.67ZM387,1254.54c-.15,16.33-21.1,32-38.08,29.39-21.07-2.84-49.36-9.29-51.68-34.75-.06-11.07,10-14.22,17.7-18.32,21.1-11.21,42-9.55,61.49,4.45C382.57,1239.72,387.33,1246,387,1254.54Zm-14.67-30.92c8.11-10.93,48.83-57.37,35.07-66.14-3.55-1.25-3.57,3.2-4.22,5-6.65,18.09-19.61,32.13-30.3,47.6-2.7,3.9-5.93,8.66-12.29,6.65,11.11-19.7,20.52-39.86,22.69-62.66.48-3.63,4.36-9.34-1.53-9.4-7-.07-5.14,8.55-6.36,13-4.88,17.71-12.68,34-20.3,50.56-2.84,7.48-9.26,9.37-14.16,7-4.87-2.83-.49-9.14.65-12.81A194.94,194.94,0,0,0,351,1138c-.06-2.77,2-7.74-2.45-7.82s-5.73,4.57-5.58,8.88a143.91,143.91,0,0,1-3.41,34.58c-2.16,11.61-6.59,22.95-7.54,34.78-.83,11.42-11.56,8.34-17.33,12.45,2-23.16,7.94-45.93,6.33-69.39-1.47-6.57,1.22-34.41-7.38-33.22-4,.22-2.5,4.51-2.55,7.27-.57,29.26,1.39,58.46-5.49,87.34-1.45,8.78-.65,18.63-12.23,21,2.08-41.93,6.76-86.56-8.32-126.6-1.41-3.15-2-9.14-6.78-7.25-4.51,1.78-1.87,7.52-.72,10.64,5.19,14.07,6.88,28.47,7.61,43,1.27,22.53.63,45.23,1.67,67.77.19,3,.63,6.46-2,8.28-2.83,2-2.29-2.21-3.58-3.25-6.18-5-11.52-10.55-10.26-20,2.31-17.24-1.23-34.22-3.54-51.19-.8-12.88-6-24.78-10.53-37-.29-.84-2.66-1.25-4.1-1.34-2.45-.15-1.61,1.93-1.82,3.25-1.87,13.2,7.76,24.34,6.48,37.62a105.44,105.44,0,0,0,3.85,26.23c2.52,8.76-3.34,17.41,1.25,25.7-1.39,4.27-17.41-6.92-17.45-9.11.37-23.77-7-45.7-16.54-67.12-2.21-7.16-10.68-2.84-6.82,3.61,7,16.72,10.43,35.3,13,53-.63,4.37,5,11.21.06,12.17-7.59,1.49-10.82-4-12.59-10.07-3.34-18.29-13-33.65-23.12-48.64-1.19-1.82-3-4-6.12-1.52s-.91,4.12.24,6.08c8.79,16.69,18.54,34.07,21.71,52.67-.22,1.51-.8,2.64-1.92,1.66-5-4.36-9.66,10.81-14.25-1.34-.25-6.62-29.12-52.22-35-42.06-1.64,2.11-1.4,4.35.78,6.39,11.86,11.1,19.43,25.12,27.14,39.14,3.54,6.44-3.16,8.07-4.86,8.83-8.24,4-10.78,18.69-22.17,15.21-52.57-12-77.58-88.39-21.61-114.3,36.27-18.93,83.1,16.26,71.89-9.26-27.07-72.3,79.94-112.07,118.7-52.76,12.89,16,5.79,53.49,20.61,42.72C462.65,1030.56,497.54,1204.75,372.3,1223.62Zm109.52,48.86c-14,13.91-52.83-7.81-59.57-23.75-7.79-13.63.28-26,20.74-25.32C460,1225.67,495.62,1248.33,481.82,1272.48Zm93.47,12.19c-11.68,12.94-54.35,10.78-70.87-3.34-21.59-23.19,24.46-39.57,42.83-36.66C565.12,1245.29,590.29,1266.65,575.29,1284.67Zm-.59-38.13c-6.44-.69-3-6.07-1-8.63,12.81-18.18,30.07-45.09,28.49-67.58-4.41.62-4.17,4.57-5.35,7.49-8.58,21.27-20.37,40.86-32.42,60.24-2.51,4-7.78.27-11.61-.92-3.87-1-.65-3,.45-4,4.38-8.64,28.22-72.64,19.47-75.74-5.25.36-4.39,6.57-5.56,10.06-5.91,17.61-10.14,35.84-18.18,52.6a109.56,109.56,0,0,1-7.87,13.85c-3.42,5.07-8.77-.75-12.2,2.82,5.36-23.27,16.48-44.81,18.07-69.08-.33-4.07,4.88-28.31-.09-27.36-1.4.07-3.64,2.74-3.84,4.44-3.15,27.32-10.32,53.53-19.69,79.31-3.56,9.78-6.11,18.61-17.34,20.15,8.26-37.67,20.8-83.16,7.75-120.19-.94,1.4-2.64,2.77-2.69,4.2-.55,15-.19,30-2,45-2.4,25.59-9,50.72-16.61,75-16.44-11.76-4.57-26.47-4.09-40.17-1.12-20.34,4-40.59.72-60.62-.33-4.52-.88-11.45-4.39-11.09-4.9.51-3.81,8-3.17,11.57,3.23,18-.42,35.49-2.45,53.24-.75,6.51-1.44,13-2.25,19.52-.28,2.29,1.21,6.45-1.83,6.29-3.5-.17-7-2.79-10.24-4.7-2.17-1.27-1.74-3.45-1.37-5.76a166.77,166.77,0,0,0,0-51.82c-3.5-17.7-2.34-36.36-8.16-53.49-3.64-13,7.5-19,14.84-26,21.24-20.45,57.95-12.2,77.49-2.51,42.07,19.74,30.74,58.19,44.78,52,33.33-6.3,82.76-5.67,92.48,35.11,10,36.78-15.36,73.79-51.67,81.43C612.86,1257.13,594.13,1248.63,574.7,1246.54Zm-148.26,92.93c10.9-18.12,49.45-25.6,68.33-12,3.79,2,3,5.2,0,6.78-12.65,6.75-21.76,17.11-30.26,28.23-.58.75-1.19,3.78-4,1.2a100.44,100.44,0,0,0-32.92-20.49C424.55,1342,425,1341.63,426.44,1339.47ZM444.88,1396c-1.06,2.18-1.25,5.38-6.62,4.82-6.15-5-13.81-10.59-17.07-19.81-5.81-17.8-7.59-39,14.74-23.26C467.13,1374.39,455,1368.61,444.88,1396Zm64-42.43c2.24,24.69-22.56,47.69-47.59,53.29-7.09,1.31-12.45-.57-8-8.93C457.88,1386.24,504,1312.57,508.88,1353.53ZM70.4,1523.77c-12.54,15.35-25.66,30.94-41.67,43.54-7.93,4.44-16.09,23.62-23.49,23.77-4.15-.47-1.43-3.67-2.46-5.41a15.18,15.18,0,0,1,5.72-10.94,407.65,407.65,0,0,0,55.43-58.14c16.8-21.35,29.11-46.3,47.16-66.86,43.35-51.93,102.36-87.83,147.84-137.56,3.42-6,8.88.43,5.14,5.13-40,52.74-100.33,85.13-142.42,136.28C102.08,1475,88.66,1501.41,70.4,1523.77Zm120.47-13.56c-37,15.09-76.27,26.9-105.24,56.4-13.31,10.67-20.58,28-35.55,36.07-.5-.94-1.22-2.39-1.87-3.62,28.42-44.42,72.21-79,124.17-90.91,25.07-9.31,47.69-27.87,66.91-46.51C261.39,1460.76,197.33,1510.1,190.87,1510.21Z"/></g></g><g id="Red_Japanese_Frames" data-name="Red Japanese Frames"><path class="cls-7" d="M0,20V1580a20,20,0,0,0,20,20H956a20,20,0,0,0,20-20V20A20,20,0,0,0,956,0H20A20,20,0,0,0,0,20ZM924,1548H52V52H924Z"/><path class="cls-8" d="M952.1,15.41,928.69,38.83A4,4,0,0,1,925.86,40H50.14a4,4,0,0,1-2.83-1.17L23.9,15.41A2,2,0,0,1,25.31,12H950.69A2,2,0,0,1,952.1,15.41ZM40,1549.86V50.14a4,4,0,0,0-1.17-2.83L15.41,23.9A2,2,0,0,0,12,25.31V1574.69a2,2,0,0,0,3.41,1.41l23.42-23.41A4,4,0,0,0,40,1549.86ZM936,50.14V1549.86a4,4,0,0,0,1.17,2.83l23.42,23.41a2,2,0,0,0,3.41-1.41V25.31a2,2,0,0,0-3.41-1.41L937.17,47.31A4,4,0,0,0,936,50.14ZM925.86,1560H50.14a4,4,0,0,0-2.83,1.17l-20,20a4,4,0,0,0,2.83,6.83H950.69a2,2,0,0,0,1.41-3.41l-23.41-23.42A4,4,0,0,0,925.86,1560Z"/></g></svg>