<svg id="Card" xmlns="http://www.w3.org/2000/svg" viewBox="0 0 1024 1680"><defs><style>.cls-1{fill:#f2f0ed;}.cls-2{fill:#8c1707;}.cls-3{fill:#d82e21;}.cls-4{fill:#16592d;}</style></defs><rect class="cls-1" x="14.5" y="14.5" width="995" height="1651"/><polygon class="cls-2" points="966 1619.17 966 60.83 1018 8.83 1018 1671.17 966 1619.17"/><polygon class="cls-2" points="60.83 58 8.83 6 1015.17 6 963.17 58 60.83 58"/><polygon class="cls-2" points="8.83 1674 60.83 1622 963.17 1622 1015.17 1674 8.83 1674"/><path class="cls-3" d="M895.09,693.23a14.83,14.83,0,0,1-3.4-.37c-1.32.06-2.63.09-3.91.09-12.3,0-22.76-2.71-32-8.29l-.57-.33c-1.49-.85-3.29-1.88-3.28-3.88s1.78-3.12,3.11-3.87c12.18-6.85,23.16-10.18,33.56-10.18a49.66,49.66,0,0,1,24.89,6.78,10.32,10.32,0,0,1,5.24,11.62c-.8,4-3.83,6.11-9,6.25a39.08,39.08,0,0,0-7,1.07A36,36,0,0,1,895.09,693.23Z"/><path class="cls-3" d="M872.45,764.73c-16,0-33-6.47-40.33-15.39l-1.56-1.88,2.16-1.16a83.77,83.77,0,0,1,28.92-8.9,51.76,51.76,0,0,1,6.54-.42,42.18,42.18,0,0,1,24.67,7.47c2,1.39,3.16,4.14,3.13,7.17a10.1,10.1,0,0,1-4.2,8.3C887.16,763.07,880.48,764.73,872.45,764.73Z"/><path class="cls-3" d="M871,1331.7c-13.25,0-23.47-7.18-33.63-15.17l-1-.78a121,121,0,0,1-11.8-10.13,18.67,18.67,0,0,0-2.51-1.95c-2.74-1.92-7.33-5.12-4.13-10,1.84-2.84,6.09-3.33,9.51-3.73a22.06,22.06,0,0,0,2.47-.37l.17,0,.24,0,2.17,0c15.09,0,27.72,3.31,38.6,10.12,6.21,3.88,15.6,9.74,13.53,21a13.31,13.31,0,0,1-12.83,11.11Z"/><path class="cls-3" d="M836.11,596.51a3.74,3.74,0,0,1-2.47-1c-3.45-3-3.23-8.93-3-14.66.06-1.58.11-3.06.09-4.45-.11-7.08,1.14-13.9,2.35-20.49.67-3.65,1.37-7.41,1.8-11.13,1.39-11.85,15.48-24.85,26.92-24.85a14.76,14.76,0,0,1,2.11.15c3.22.48,8.44,2.66,7.12,11.88-2.71,19.14-10.9,36.83-25,54.09a2.38,2.38,0,0,1-1.06.74c-1.24.78-2.45,2.91-3.44,4.63C840,594,838.56,596.51,836.11,596.51Z"/><path class="cls-3" d="M852.37,840.41c-18.89,0-32-7.4-44.66-14.56l-4.19-2.35a6.57,6.57,0,0,1-2.51-3.23c-.2-.4-.38-.78-.56-1.08L799.1,817l2.44-.78,1.75-.53c1.16-.35,2.34-.71,3.45-1.12a89.61,89.61,0,0,1,31.58-5.68,101.08,101.08,0,0,1,14.09,1c12,1.7,17.79,8.33,16.43,18.68-1.25,9.53-8.76,10.92-12,11.51l-.86.17-.14,0h-.13C854.63,840.38,853.53,840.41,852.37,840.41Z"/><path class="cls-3" d="M796.15,1243c.73-3,1.42-6.11,2.11-9.17,3.35-14.88,6.82-30.27,15.07-44,9.51-15.81,20.41-23.06,35.35-23.51h.46c7.55,0,12.16,5.51,14.7,10.13,3.72,6.71,0,13.62-2.91,19.18-.39.72-.74,1.38-1.07,2-10.3,20.12-28.54,31.14-45,39.26-1.84.91-3.69,2.06-5.47,3.16-3.31,2-6.71,4.16-10.73,5.29l-3.28.93Z"/><path class="cls-3" d="M822.13,910.69c-16.77,0-33-6.2-48.08-18.43a5.63,5.63,0,0,1-1.89-3.83c-.13-2.16,2.75-3.13,3.52-3.27,6.31-1.21,12.65-2.39,19.1-3.58l7.55-1.41.29.06c3,.6,5.9,1.12,8.74,1.62,7.08,1.26,14.3,2.53,21.14,4.81s13.34,7.81,12,14.72c-1.71,8.5-10.56,8.87-16.42,9.1h-.17l-1.61.08C824.88,910.65,823.49,910.69,822.13,910.69Z"/><path class="cls-3" d="M811.39,1398.34a22.21,22.21,0,0,1-10.17-2.66c-16.71-8.61-30.35-22.54-41.72-42.58-1.4-2.46-1-4.21-.37-5.24,1.44-2.47,4.8-2.66,5.79-2.66a7.08,7.08,0,0,1,1.53.15c3.35.77,6.78,1.44,10.11,2.1,18.85,3.7,38.34,7.53,49,28.56a17.15,17.15,0,0,1,1.29,4l.06.25.07.22v.27C826.92,1391.45,820.81,1398.34,811.39,1398.34Z"/><path class="cls-4" d="M740.8,1006.52a72.31,72.31,0,0,1-28.57-5.87,10.12,10.12,0,0,1-3.38-2.71c-.36-.39-.71-.76-1.05-1.07l-1.54-1.41,1.48-1.48c.17-.18.34-.41.52-.63.71-.91,1.66-2.11,3.15-2.11,18.54-.09,37.05-.1,54.41-.1H785.4l.74,3.28-1.07.52C768.84,1002.73,754.36,1006.52,740.8,1006.52Z"/><path class="cls-3" d="M770.61,654.73a5.1,5.1,0,0,1-2.48-.71c-14.4-8-29.07-35.27-29.07-54v-.13c1.07-12.37,6.95-15.1,11.69-15.21H751c2.47,0,10.86,1.14,15.63,15.84a253.53,253.53,0,0,1,7.81,31.29c.91,4.88.69,9.93.47,14.81,0,1.14-.1,2.28-.14,3.4C774.71,652.35,773.25,654.73,770.61,654.73Z"/><path class="cls-4" d="M701.62,984.66l.92-.76c10.15-8.33,23.9-12.91,38.73-12.91,13.94,0,28.38,3.89,42.92,11.57l5.61,3-6.29.78a106.12,106.12,0,0,1-13.44.78c-7.14,0-14.36-.56-21.33-1.1s-14.3-1.1-21.48-1.1a95,95,0,0,0-23,2.5l-1.16.29Z"/><path class="cls-4" d="M725.4,1086.94c-12.19,0-26.24-3.9-42.95-11.92l-1.15-.54,1-3.39,1.26.14c14.59,1.61,29.52,1.83,43.48,1.83l9.88,0c3.33,0,6.68,0,10,0q5.31,0,10.66.06l7.41.09-6.44,3.65C747.83,1082.89,738.09,1086.94,725.4,1086.94Z"/><path class="cls-4" d="M747.71,1069c-14.36,0-28.52-1.2-42.21-2.36-7.67-.65-15.55-1.32-23.28-1.76a3.91,3.91,0,0,1-2.44-1.27,2.67,2.67,0,0,0-.37-.33l-1.72-1.22,1.31-1.65c.31-.38.61-.84.91-1.29a10.59,10.59,0,0,1,3-3.31,51.83,51.83,0,0,1,28.4-8.28c9.13,0,18.79,2.1,30.41,6.61,5.53,2.15,11.89,5,17.3,11.37l2.64,3.12-4.09.17C754.37,1068.91,751.06,1069,747.71,1069Z"/><path class="cls-3" d="M713.64,1263.46c-.25-.6-.52-1.19-.8-1.78a19.53,19.53,0,0,1-1.69-4.65c-3.94-21.91.19-42.75,12.27-62,2.35-3.73,7.45-10,15.24-10a14.52,14.52,0,0,1,3.55.45c6.38,1.61,7.69,8.06,6.87,13.15-.17,20.95-10.56,35.68-20.62,49.93l-1.24,1.75c-1,1.36-1.89,2.77-2.8,4.14-1.1,1.66-2.22,3.35-3.4,5a31.61,31.61,0,0,1-2.79,3.23L717,1264l-2.14,2.4Z"/><path class="cls-3" d="M739.74,1450.73a16.64,16.64,0,0,1-7.91-2.29c-23.05-12.88-32.53-35.9-38.22-54.52-.51-1.68-.41-3,.32-3.94a3.29,3.29,0,0,1,2.82-1.29,14.9,14.9,0,0,1,5.55,1.69l.7.31c16.61,6.29,34.89,15.49,44.58,36a14.68,14.68,0,0,1,1.1,5.89c.12,2.72.25,4.19,1.87,5.36l1.13.81-.37,1.34C748.77,1449.35,743,1450.73,739.74,1450.73Z"/><path class="cls-3" d="M742.55,727.94a9,9,0,0,1-3-.74c-.45-.17-.84-.31-1.19-.41C723.67,722.92,700.66,690,702.1,675l0-.21.09-.27a14.8,14.8,0,0,0,.6-2.38c.43-2.27,1.07-5.71,5-6.29a7.9,7.9,0,0,1,1.22-.08c2.21,0,5.4.85,7.17,2.72,11.07,11.66,21.31,23.5,24.94,40a42.18,42.18,0,0,0,2,6.08,53.86,53.86,0,0,1,2.12,6.13c.8,3,.74,4.86-.2,6.08A3.15,3.15,0,0,1,742.55,727.94Z"/><path class="cls-3" d="M710.13,802.48c-21.88-7-33.85-23.72-43.53-40.78-3.1-5.46-2.71-11.72,1.21-19.14,1.91-3.61,4.84-7.74,10.65-7.74a12.76,12.76,0,0,1,1.72.12c4.26.56,5.9,3.77,7,5.89a13.43,13.43,0,0,0,.87,1.56c10.68,15.29,22.78,32.63,24.86,54.19a15.19,15.19,0,0,1-.08,3c0,.38-.06.75-.08,1.12l-.13,2.6Z"/><path class="cls-3" d="M665,1495.12c-2.88,0-5.39-1.54-7.62-2.9-.54-.33-1.07-.66-1.61-1-21.48-12.22-27.66-33.63-33.63-54.33l-.59-2a5.87,5.87,0,0,1,.82-4.8,2.69,2.69,0,0,1,2.32-1,7.47,7.47,0,0,1,2.89.64c23.59,11.2,38.35,25.39,46.45,44.64a18.61,18.61,0,0,1,1.05,5.55c.13,1.34.3,3,.59,5.1.58,2.52-2.25,7-7,9.25A8.25,8.25,0,0,1,665,1495.12Z"/><path class="cls-4" d="M659.71,1169.69a65.81,65.81,0,0,1-14.32-1.65l-1.81-.4c-9.83-2.15-20-4.39-28.62-12.67l-3.2-3.07,4.43-.36c5.08-.42,10.22-.62,15.72-.62,15.1,0,29.82,1.57,44.06,3.09,4.63.49,9.41,1,14.09,1.44l5,.47-4,3.1A49.9,49.9,0,0,1,659.71,1169.69Z"/><path class="cls-3" d="M627.91,1307.35c-2.74,0-4.2-2.81-4.35-8.34a36.65,36.65,0,0,0-1.55-7.88c-1.11-4.08-2.17-7.93-1-11.74,0-25.57,7.38-41.18,23.95-50.59a12.54,12.54,0,0,1,6.13-1.8,8.66,8.66,0,0,1,6.3,2.65,13.16,13.16,0,0,1,3.34,9.44c-.4,25.84-10.33,48.27-29.52,66.68A4.74,4.74,0,0,1,627.91,1307.35Z"/><path class="cls-4" d="M691.37,1153.6c-22.47-5.92-45.76-8.62-75.5-8.76h-1.18l-.77-3.23,1.05-.54a70.86,70.86,0,0,1,32.21-7.27c18.38,0,35.62,6.15,46.1,16.45l5.38,5.29Z"/><path class="cls-4" d="M593.86,812.22l5.4,4.31c25.19,20.07,34.1,45.77,26.46,76.38l-1.63,6.53Z"/><path class="cls-4" d="M617.09,908.86c-26.17-23.74-34.93-51-26.77-83.31l1.71-6.76,30.59,95.09Z"/><path class="cls-3" d="M538.59,1328.94a20.8,20.8,0,0,1-3.25-16.87c.86-3.61,1.61-7.34,2.33-11,2.33-11.65,4.73-23.68,11.52-34.43,2.55-4,6.69-9.4,13.2-9.4a11.83,11.83,0,0,1,1.67.12c7.41,1,7.15,7.17,7,11.24a26.92,26.92,0,0,0,0,3.1c.33,14-6.61,24.81-13.32,35.25-1.61,2.5-3.28,5.09-4.81,7.68-.54.92-1,1.93-1.53,2.91a29.55,29.55,0,0,1-3,5.15,33.58,33.58,0,0,1-4.71,4.68c-.73.63-1.41,1.22-2.06,1.83l-1.68,1.57Z"/><path class="cls-3" d="M511.16,661.37c-4.2,0-6-2.35-6.83-4.32-1.59-3.9,2.9-7,7.24-10.09a42.08,42.08,0,0,0,4.71-3.6c10.39-9.87,23.24-13.26,35.51-15.9a12.24,12.24,0,0,1,2.49-.26c5.72,0,11.55,4.22,14.18,10.27a10.66,10.66,0,0,1,.37,8.69c-2,4.59-7.24,7-11,8.36-8.17,3-17.42,6.35-29.15,6.35a65.21,65.21,0,0,1-9.65-.74h-.08l-.07,0h0a13.53,13.53,0,0,0-2.29.43A23.29,23.29,0,0,1,511.16,661.37Z"/><path class="cls-3" d="M533,755.36c-7,0-13.8-1.92-20.35-3.78-3.87-1.09-7.85-2.22-11.78-2.91a6,6,0,0,1-2.93-1.77,8.91,8.91,0,0,0-.69-.61l-1.8-1.36,1.57-1.62c.18-.18.35-.36.51-.55a15.35,15.35,0,0,1,1.78-1.72c12.37-9.5,27.34-15.1,47.12-17.62l.61-.08.55.28a27.6,27.6,0,0,0,5.82,1.91c5.08,1.29,10.84,2.74,13.5,9.76a9.74,9.74,0,0,1-5.17,12.35,97.3,97.3,0,0,1-22.08,7.11A36.34,36.34,0,0,1,533,755.36Z"/><path class="cls-3" d="M495.31,569.63c-.87,0-3-.19-3.82-1.93-.38-.8-.55-2.1.79-3.71,16.26-19.67,32.75-30.86,51.88-35.22l.12,0h.12c.36,0,.61,0,.85,0,5.84,0,9.91,2.52,11.77,7.28,1.79,4.58-1,7.56-3.23,10-.34.37-.69.74-1,1.12-16.89,19.26-39.51,22.18-57.34,22.57h-.12Z"/><path class="cls-4" d="M544.11,962.38c-9.69-27.55-19.29-54.83-29-82.5l-1.8-5.12,4.7,2.73c12.34,7.18,22.75,22.14,28.56,41,5.2,16.92,5.7,34.2,1.28,44l-2.05,4.56Z"/><path class="cls-4" d="M538.59,976.55c-3.23-.09-4.35-2.46-5-3.88a6.72,6.72,0,0,0-.73-1.29,109.81,109.81,0,0,1-24.39-45.67c-4.23-16.33-4.45-30.6-.68-43.64l1.79-6.19,3.24,9.78c8.57,25.89,17.3,52.25,26.06,78.61a3.14,3.14,0,0,0,.27.47,4.86,4.86,0,0,1,.84,2c.23,1.89.37,3.81.51,5.67l.32,4.19Z"/><path class="cls-3" d="M476.35,481.21l-7.92-.94-2.18-.26,1.37-2.58,1.71-3.16c1.17-2.16,2.37-4.36,3.45-6.54,9.25-18.73,24.08-30.87,44.08-36.08a29.67,29.67,0,0,1,7.45-1.12c4,0,7.23,1.3,9.5,3.85,3.14,3.56,2.62,8.9-1.4,14.29-13.81,18.58-32.51,29.54-55.55,32.54l-.19,0Z"/><path class="cls-4" d="M508.69,1522.23c-6.45-9.52-13.75-18.53-20.8-27.25-10.7-13.21-21.76-26.87-29.77-42.26l-1.64-3.13,3.53.21c25,1.51,52.91,39.51,52.34,71.35l-.11,6.31Z"/><path class="cls-4" d="M502.68,1531.18c-.21,0-.43,0-.64,0h-1a8,8,0,0,1-2.88-.42c-21.53-7.91-32.78-25-40.95-40.78-4.12-7.93-5.41-16.59-6.66-25-.28-1.86-.55-3.68-.85-5.5l-.21-1.28,3.4-1.1.57,1.16c6,12,14.51,22.58,22.75,32.77,4.86,6,9.88,12.22,14.35,18.69,2.17,3.14,4.72,6.14,7.18,9,1.44,1.7,2.92,3.45,4.33,5.21a19.15,19.15,0,0,1,1.82,3c.2.4.4.79.61,1.17l1.8,3.2Z"/><path class="cls-3" d="M447.75,391.65A7.18,7.18,0,0,1,443,390c-5.3-4.44-.34-12.48,2.63-17.29l.59-1c9.34-15.34,19.05-29.88,35.05-39.1a16.07,16.07,0,0,1,4.47-1.54c.52-.12,1-.23,1.45-.36l.42-.13.43.06c6.47.88,9,3.81,10,6.11,1.39,3.14.73,7-1.81,10.7-1.71,2.46-3.39,5-5,7.49-7.75,11.75-15.75,23.9-29.24,31.07l-1.77,1C456.24,389.18,451.73,391.65,447.75,391.65Z"/><path class="cls-4" d="M452.45,990.1l4.71,3.62c23.67,18.2,30.39,42.58,22.45,81.53l-.24,1.16-3.34.11Z"/><path class="cls-4" d="M469.87,1088.41c-25.55-28.81-28.16-60.05-24.22-98.09l.13-1.25,3.5-.24,24.31,98.91-2.94,1.55Z"/><path class="cls-4" d="M351.34,1365.59a7.24,7.24,0,0,0,.24-.83,6.61,6.61,0,0,1,1.3-2.81c7.81-8.76,15.24-18.19,22.41-27.31,10.66-13.55,21.68-27.55,34.58-40.23l4.61-4.53-1.25,6.35c-2.66,13.53-6.41,27.74-15.73,40-9.44,12.42-22.11,22.49-39.85,31.68a4.93,4.93,0,0,1-2.31.48c-.36,0-.73,0-1.1,0s-.57,0-.83,0l-3.12.09Z"/><path class="cls-3" d="M340.17,792.67c-2.7,0-3-2.74-3.21-4.38-1.41-12.06,4.69-21.66,11.48-30.24,8.56-10.82,20.81-23.24,39.74-23.24h.42c8.54.09,12.38,5,12.45,16v.29l-.11.38c-4.18,10.33-12.62,19.34-23.2,24.81-6.66,3.44-13.67,6.42-20.44,9.3-4.68,2-9.44,4-14,6.15A7.55,7.55,0,0,1,340.17,792.67Z"/><path class="cls-4" d="M336.54,1153.17l.87-.8c18.48-17.21,36.59-25.22,57-25.22a89.14,89.14,0,0,1,22.08,3l7.17,1.85-85.48,24.12Z"/><path class="cls-4" d="M373.87,1523.65c-12.53-13.21-24.37-25.69-36.39-38.46-5.13-5.45-10.19-11.11-15.09-16.59l-2.45-2.72a7.24,7.24,0,0,1-1.28-2.36c-.09-.26-.19-.5-.29-.74l-1-2.17,2.33-.61c.3-.07.6-.17.9-.27a10.36,10.36,0,0,1,2.77-.59c.54,0,1.09,0,1.63,0,12.45,0,23.94,5.4,35.11,16.51A115.81,115.81,0,0,1,387.58,1519c1.22,3.39,1.35,7,1.49,10.74.06,1.66.13,3.37.29,5l.57,5.8Z"/><path class="cls-3" d="M384.07,600.69l-.44,0c-2.43-.2-4.87-.52-7.23-.84a88.58,88.58,0,0,0-11.38-1c-1,0-2,0-2.88.11-.36,0-.73.05-1.11.05-6.06,0-15.37-4.07-23.71-10.37-9-6.79-14.2-13.83-14.26-19.31-.05-4.52,1.22-8.22,3.67-10.7a11,11,0,0,1,8-3.17,19.38,19.38,0,0,1,8.31,2.11c20.89,10,35,21.49,44.39,36.26a9,9,0,0,1,1.05,2.9c.08.34.15.65.25.95l.65,2.2-2.26.36c-.26,0-.53.1-.81.16A10,10,0,0,1,384.07,600.69Z"/><path class="cls-3" d="M384.1,692.93a3.83,3.83,0,0,1-2.17-.77,2.61,2.61,0,0,0-1.49-.53,6.3,6.3,0,0,0-1.81.41,8.83,8.83,0,0,1-2.74.55,4.93,4.93,0,0,1-1.58-.25c-11.91-3.93-23.49-8.07-34.13-15.5-7.21-5.05-11.34-10.22-13.82-17.3-1.46-4.2-1.44-7.15.07-9.27s4.37-3.14,8.77-3.14c.86,0,1.82,0,2.84.12h.24l.3.1c13,5.36,24.64,15.89,35.3,26.47,3.72,3.69,7.29,7.62,10.74,11.41l.71.78c1.18,1.3,1.95,3.64,1.21,5.31A2.64,2.64,0,0,1,384.1,692.93Z"/><path class="cls-4" d="M359,1169.12a32.4,32.4,0,0,1-16.23-3.87l-4-2.26,4.34-1.39,66.42-21.15,1.12-.35,1.74,2.81-.81.84C396.76,1159.16,376.1,1169.12,359,1169.12Z"/><path class="cls-3" d="M375.45,517.9c-24.19,0-41.94-8.51-55.86-26.8-2.12-2.78-5.42-8.35-3.76-14.39,1.3-4.72,3.9-7.11,7.72-7.11,2.55,0,5.15,1.12,7.44,2.1l1.38.59c19.77,8,33.74,23,45.89,38a11.1,11.1,0,0,1,1.63,3.14c.15.39.29.77.46,1.14l.95,2.08-3.82,1.16-.31,0h-1.72Z"/><path class="cls-4" d="M377.13,1544.66c-.33-.05-.67-.09-1-.12a9.54,9.54,0,0,1-3.25-.74c-24.6-11.84-41.18-25.17-52.17-42-6.8-10.39-9.59-20.68-8.53-31.47l.44-4.52,10.25,11.39c19.12,21.24,37.18,41.31,55.42,61.67a4.61,4.61,0,0,1,1,2.66c0,.23.06.43.11.61l.76,3Z"/><path class="cls-4" d="M335.52,1370.08l.4-1.21c13.13-39.62,32.76-63.45,63.64-77.27l1.09-.48,2,2.68-.77.91c-5.38,6.43-10.85,12.83-16.15,19-15.06,17.62-30.63,35.83-46.33,57l-.77,1Z"/><path class="cls-3" d="M370.34,336.67c-2.11,0-4.77-1.58-6.41-2.94l-.27-.22c-13.43-11.12-27.32-22.62-33.58-40.53-2.36-6.76-4.33-15.63,1.47-24.22,1.73-2.55,4.2-5.49,8-5.49a12.08,12.08,0,0,1,6.7,2.52c16.59,11.38,20.81,27.94,24.53,42.54.7,2.73,1.35,5.28,2.06,7.72l.06.21,0,.28c0,2.49,0,4.38,0,5.94,0,3,0,4.73-.09,6.53a5.26,5.26,0,0,0,.48,1.32c.54,1.22,2,4.46-1.55,6A3.64,3.64,0,0,1,370.34,336.67Z"/><path class="cls-3" d="M345.11,431.3a17.26,17.26,0,0,1-5.67-.82c-15.58-5.27-32.78-13.16-42.18-31.63-.58-1.16-1.05-2.33-1.33-3l-.37-.91.05-.52c.31-2.85,1.25-11.55,8.61-11.55a17.25,17.25,0,0,1,7.08,2c21,9.84,35,21.54,43.87,36.8a20.09,20.09,0,0,1,1.72,4.47c.19.63.37,1.25.58,1.85l.91,2.61-2.77.05c-1.54,0-3.21.19-4.82.35A56.82,56.82,0,0,1,345.11,431.3Z"/><path class="cls-4" d="M258.74,1068.64a2.84,2.84,0,0,0,0-.41,4,4,0,0,1,.53-2.61c13.53-19.27,27-38.36,41.95-59.54l3.24-4.6.39,5.61c1.07,15.5-6.62,25.9-14.06,36l-.83,1.13c-6.41,8.67-14.49,18.44-25.89,25.2a16.94,16.94,0,0,1-1.71.85l-.74.33-3.07,1.48Z"/><path class="cls-4" d="M247.49,1067.58c.11-28.89,15.07-49.27,48.5-66.06l1.06-.53,2.15,2.55-.69,1c-5.4,7.4-11.15,14.63-16.71,21.62-10.47,13.16-21.29,26.76-30.59,42.5l-3.75,6.34Z"/><path class="cls-3" d="M238.19,844.68a71.4,71.4,0,0,1-43.44-14.17c-8.39-6.21-12.21-13.28-11.67-21.6a8.91,8.91,0,0,1,2.66-6.39c2.61-2.62,7.16-4.12,12.47-4.12a31.72,31.72,0,0,1,7.12.83c20.26,4.71,37.5,15.47,54.17,25.88l4,2.52c6.11,3.83,6.42,5.76,6,7-1.93,5.87-8.5,7.23-11.66,7.89A96.83,96.83,0,0,1,238.19,844.68Z"/><path class="cls-4" d="M255.27,1534.41l-3.2-1.88c-2.18-1.27-4.43-2.57-6.59-4-13.62-9.12-27-18.14-41.19-27.69l-20.23-13.62,7.23.38c23.5,1.26,47.23,6.29,61.59,34.27,1,2,2.11,4.05,3.17,6.08l.06.11c.66,1.24,1.31,2.49,2,3.74l3.29,6.3Z"/><path class="cls-3" d="M226,669c-10.54,0-24.28-12.11-33.21-24.11-7.73-10.38-15-24.89-12.11-34.46,2.47-8.26,8.47-14.06,15.3-14.8a10.84,10.84,0,0,1,1.13-.06c5.19,0,10.06,3.87,14.47,11.49C222,625,227,644.49,231,662.87l.11.52-.16.5a4.63,4.63,0,0,0,0,.63c.15,2.72-1.13,4.22-3.81,4.43C226.75,669,226.38,669,226,669Z"/><path class="cls-3" d="M202.7,755.05c-19,0-32.9-5.23-43.79-16.45-6-6.2-8.69-13.53-7.34-20.1,1.12-5.45,5-9.79,10.77-12.21a14.23,14.23,0,0,1,5.49-1.09c5.42,0,10.59,2.9,15.16,5.45.91.51,1.8,1,2.68,1.47,19.07,10.15,32.86,20.77,43.4,33.43.62.75,1.33,1.49,2,2.2.39.4.75.77,1.1,1.16l1.93,2.07-2.59,1.12c-.57.25-1.17.57-1.76.88a12.65,12.65,0,0,1-5,1.81c-2.1.13-4.38.2-7.18.2-1.58,0-3.16,0-4.74,0s-3.13,0-4.69,0C206.35,755,204.48,755.05,202.7,755.05Z"/><path class="cls-4" d="M261.66,1553.66c-21.45-4.41-37.19-10.06-49.54-17.79-14.8-9.26-25.38-21.92-32.32-38.7l-2.58-6.24,5.56,3.82c26,17.88,51.4,35.36,80.41,55.3l1,.7-1.34,3.16Z"/><path class="cls-4" d="M192.65,1027.67c-.18-.36-.37-.72-.56-1.08a26.84,26.84,0,0,1-1.24-2.52q-4.5-11.05-9-22.1l-.42-1q-8.1-19.92-16.23-39.82c-1.52-3.73-3.19-7.45-5-11.38-.86-1.91-1.74-3.87-2.64-5.92l-2.38-5.4,5.17,2.84c20.15,11,31.43,27.3,34.5,49.67,1.66,12.11,2.86,22,3.78,31.06.17,1.71-.81,3.15-1.67,4.42a14,14,0,0,0-.79,1.28l-1.8,3.48Z"/><path class="cls-4" d="M184.5,1040.78c-1.64,0-3.74-.5-4.7-1.91-2.83-4.12-5.88-8.21-8.82-12.16C160,1012,148.71,996.78,145.79,977.4c-1.44-9.65-2.22-22.13,4.66-33L152.6,941l6.1,16.38c8.62,23.18,17.54,47.15,26.44,70.85a21.41,21.41,0,0,0,1.62,3.1,22.76,22.76,0,0,1,1.92,3.71,4.85,4.85,0,0,1-.64,3.76,3.44,3.44,0,0,1-2.29,1.91A6.76,6.76,0,0,1,184.5,1040.78Z"/><path class="cls-4" d="M177.58,1142.91a5.36,5.36,0,0,1-.7-.05l-1.94-.29c-20.57-3-41.83-6.14-62.78-9.52a7.15,7.15,0,0,0-1-.06c-.65,0-1.36.07-2.11.14s-1.69.17-2.57.17a7.49,7.49,0,0,1-7.06-4l-1.07-1.93,2-.88,4.73-2.06c3.92-1.72,8-3.5,12.06-5.09a6.71,6.71,0,0,1,2.56-.41c.54,0,1.14,0,1.85.07,1,.06,2,.12,3.29.12h.1l1.52.21c17,2.39,36.21,5.1,52.91,16.3a8.84,8.84,0,0,1,2.26,2.46c.21.3.41.59.62.86l2,2.52-3.16.69c-.31.07-.63.17-.94.27A9,9,0,0,1,177.58,1142.91Z"/><path class="cls-4" d="M159.08,1292.13c-3.09-3.25-4.3-7.17-5.47-11-.3-1-.59-1.93-.92-2.88-7.26-21-13.52-38.42-19.67-54.82a51.65,51.65,0,0,0-4.87-8.86c-1.08-1.7-2.29-3.62-3.54-5.76l-.61-1.06,2.54-2.28,1,.72c25,18.31,37,41,36.69,69.45,0,1.22.06,2.49.13,3.72.24,3.89.5,8.3-2.12,12.43l-1.37,2.16Z"/><path class="cls-4" d="M151.78,1303.33l-1-.5a15.12,15.12,0,0,1-2.73-1.5c-19.53-14.39-25.59-35.07-29.24-55.26-1.35-7.54-.18-14.34,1.06-21.54.62-3.55,1.25-7.2,1.59-11.06l.11-1.22,3.41-.38.38,1.17q3.08,9.64,6,19c5.31,16.7,10.32,32.48,15.6,48.42a76.39,76.39,0,0,0,4.25,9.66c1,2.08,2.08,4.19,3,6.34a8.7,8.7,0,0,1,.48,3.75c0,.44,0,.85,0,1.25l.21,3.5Z"/><path class="cls-4" d="M142.06,1161.05c-16.16,0-31-6.78-45.35-20.75L92.24,1136l6.16.93,45.24,6.85,37.77,5.72-5.79,2.81C163.47,1158.18,152.49,1161.05,142.06,1161.05Z"/><polygon class="cls-2" points="6 8.83 58 60.83 58 1619.17 6 1671.17 6 8.83"/><path d="M1024,8V1672a8,8,0,0,1-8,8H8a8,8,0,0,1-8-8V8A8,8,0,0,1,8,0H1016A8,8,0,0,1,1024,8Zm-8,1658.34V13.66l-48,48V1618.34ZM962.34,56l48-48H13.66l48,48H962.34ZM13.66,1672h996.68l-48-48H61.66ZM960,1616V64H64V1479q7.57-11,15.23-21.89c8.54-12.12,17.59-23.87,26.3-35.87,19.16-26.41,38.39-52.77,57.28-79.38,5.93-8.35-3.88-28.41-13.47-31-12.74-3.5-19.93-13.67-26.53-24.65a91.46,91.46,0,0,1-13-45.83c-.17-13-.53-28.72,14-37,3.58-2,8-.9,11.75,1.57,33,21.9,44.49,61.88,30.09,101-1.44,3.93,3.16,10.14,5.08,15.24.94,2.49,2.16,4.86,2.82,6.33,16.64-23.71,34.07-48.09,50.95-72.85,6.76-9.92,13.27-20.15,19.39-30.34,4.72-7.87-1.86-18.42-4.33-27.56-3.21-11.87-7.17-23.53-10.55-35.36-3.52-12.34-14.39-5.32-21.5-7.85-12.16-4.33-21.72,5.74-32.44,9.57a114.21,114.21,0,0,1-33.66,6.45c-22.39,1.07-37.32-10.39-50.51-25.62-5.47-6.32,2-18.36,9.56-23.31,17.17-11.26,35.06-9.55,52-3.12,14.11,5.37,31.83,6.22,39.75,23.51,1.19,2.6,7.82,3.06,12,3.85,5.25,1,10.89-1.35,16,1.93,1,.64,2.88-.1,4.36-.21a26,26,0,0,1-1.21-3.47c-4.38-21-14-40.44-19.26-61.32-2.53-10.06-7.73-20-11.49-30-.38-1-2-1.9-3.15-2.21-26.24-6.83-36.14-29-46.45-50.31-9.68-20-8.74-40.74.32-60.6,2.44-5.35,8.1-10.92,16.41-5.82,10.57,6.48,22.76,10.73,30,21.6,14,20.92,18,44.57,16.9,69-.27,6,.19,13.29-6.18,18.73-1.6,1.36,3,10.15,5,15.47q7.72,21.21,15.63,42.38a41.7,41.7,0,0,0,2.53,4.75c1.08-1.34,2.23-2.61,3.21-4,3.37-4.82,5.93-10.49,10.16-14.35,8.66-7.92,1.2-16.42,1.55-24.42,1.31-29.6,19.92-46.45,42.24-61,7.7-5,15.22-9.7,25.8-6.49,6.52,2,6,6.54,6.23,10.14,1.35,21.5-10.54,37.52-23.59,52.6a83.09,83.09,0,0,1-35.78,24.37c-7.84,2.83-12.37,14.86-18.36,22.77-.38.49-.27,1.51-.7,1.77-16.66,10.11-2.59,21.49-.58,31.67,3.12,15.8,8.65,31.13,13.27,46.62,2.18,7.33,4.64,14.57,7.26,22.77,5.87-9,12-17.92,17.56-27.16,9.32-15.51,18.62-31.06,27.33-46.92C315.81,1103,330.81,1072,345.79,1041c8.78-18.16,15.48-37.11,24.23-55.2.38-.77.72-2.19.34-2.59-14.09-14.51-14.67-34.57-21.25-52.11-9.1-24.23-16.84-49-25.71-73.28-2-5.55-9.14-4.55-13.76-6.14-9.38-3.22-18.67-6.46-27.92-10.11-7.67-3-14.73,4.9-22.67,6.53-17.46,3.6-34.19,4.9-51.2-2.75-8.76-3.94-17.42-7.06-24.23-14.35-7.43-8-14.16-25.13-6.05-35.41s19.79-4.94,29.74-3.87c20.84,2.25,38.38,14.12,54.06,26,16.16,12.27,34.32,17.61,52.15,24.87.82.33,1.9,0,2.86,0-.47-.9-1-1.77-1.38-2.69q-14.12-33.06-28.21-66.12c-1.89-4.42-6-2.1-9-3.16-22.7-8-44.53-14.54-69.95-8.46-22,5.24-50.37-6.12-62.08-27.66-4.88-9-5-20.68,2.12-29.07,6.68-7.89,15.92-10.21,26.89-6.36,25.57,9,46,24.44,62.5,45.65,6.55,8.44,17.72,5.3,25.74,10.14a3.56,3.56,0,0,0,2.93,0c3.92-1.92,9.66,11.21,11.3-1,.24-1.84-4-8.05-6.2-12.12-5.77-10.45-10.39-21.54-16.09-32-5.82-10.73-11.13-22.18-19.13-31.09-4-4.42-13.93-2.84-20.39-5.74-19.34-8.69-45.83-33.76-44.41-60,.64-11.86,13.56-27.67,27-27.15,11.42.43,18.15,10.09,23.33,20.84,6.39,13.26,11.78,26.6,14.65,41,.88,4.46,3.19,9,2.76,13.29-.92,9.17,2.77,15.85,8.31,22.54,16.31,19.67,27.07,42.65,37.93,65.52,8,16.93,15.94,33.92,24.17,50.76,1.9,3.88,4.9,7.23,7.39,10.83,3.92-8.39,14.68-12.64,14.69-23.24,0-15.56,7.19-27.1,16.73-39.08,8.15-10.23,18.12-15.56,29.11-20.12,7-2.89,15.23-4.09,21.76.47,7.89,5.51,11.64,13.65,8.61,23.74-7.14,23.8-28.33,31-47.52,40.93-9.83,5.09-20.58,5.63-30.28,14.52-14.35,13.13-5.35,22.38-1.54,33.28,7,20.12,17,39.07,23.19,59.6,6.48,21.43,14.31,42.44,21.61,63.62.72,2.12-1.06,6.48,1.4,6,3.18-.57,3.65-5,4.75-8.37,3.74-11.34,9.07-22.22,12.1-33.71,7.13-27,15.09-53.79,20.15-81.41,4.32-23.64,8.83-47.15,12.15-71,2.39-17.19,4.6-34.39,5.25-51.63.21-5.57-8.78-6.48-13.51-9.56-11.3-7.39-21.88-16.17-36.18-17.86-22.62-2.69-42.9-10.28-56.92-29.68-4.71-6.51-5.85-13.91-1.3-20.25,5.69-7.93,14.34-7.88,22.51-3.94,18.62,9,34,22.64,46.1,38.76,9.69,12.92,23.59,17.54,36,25.39a58.09,58.09,0,0,1,4.84,3.81c5.16-21.33.72-43.23,4.87-64.35,3.36-17.06-4.16-26.17-19.19-31.38-11.1-3.86-20.33-10.92-34.21-8.68-21.21,3.41-41.1-4-58.05-17.66-7.85-6.33-10.69-25.3-4.29-33,9.12-11,20.35-6.92,30.94-2.15,20.67,9.32,35.28,25.38,49.47,42.6,5.38,6.53,16.79,7.7,24.36,12.9,14.33,9.84,11.08-1.17,10.73-8.47-.78-15.94-2.35-31.85-2.74-47.79-.32-13.08-12.16-11.34-19-15.53-16.95-10.43-35.24-14.41-55.75-15.13-20.95-.74-38-14.44-47.65-33.67A18.46,18.46,0,0,1,313.22,467c7.89-7.8,16-4.06,23.35-.69,21.79,10,38,26.52,51.53,46.16,7.06,10.27,20.61,10,30.3,16.28,3,1.92,6.84,2.41,10.3,3.56,0-6.81,1.07-13.85-.27-20.39-3.22-15.68-8.24-31-11.22-46.7-1.61-8.52-7.44-2.77-11-4.72a442.64,442.64,0,0,0-43.49-21.69c-4.95-2.08-11.76.79-17.56.1-24.44-2.92-43.54-15.21-55.48-36.44-3.68-6.54-4.82-16.41,2.6-23.67,7.8-7.64,15.54-3.94,23.39-.29,17.88,8.31,36.39,18.23,43.41,36.7,8.93,23.51,31.74,22.65,47.58,33.67,2.52,1.76,5.25,3.2,7.89,4.79a4.81,4.81,0,0,0,.2-1.92c-1.22-3.62-2.84-7.13-3.8-10.82-7.08-27.1-19.89-52.41-26.93-79.2C378.7,341.38,359.57,343,349,331.69c-11.49-12.32-22.83-23.84-28.09-40.21-4.78-14.9-1.31-27.1,12.17-35.26,9-5.45,15.84.45,22.17,6.31,19.75,18.28,25.25,42.61,25.31,67.62,0,19,13.69,30.65,19.17,46.47,4.69,13.51,10.86,26.5,16,38.78,15.43-10.52,20.07-27.53,25.84-45.12,6.85-20.9,21.2-38,42.39-47,6.13-2.61,13.5-.1,18.32,4.28,6.43,5.84,5.79,14.77,2.13,21.13-10.53,18.28-22,37.66-42.6,44.83-15.56,5.42-25.91,14.63-37,25.57-9.13,9.05-3.55,15.8-1.37,24.05,4.18,15.76,7.75,31.66,11.64,47.49.33,1.36.8,3.39,1.74,3.76,3,1.19,1.39-2.21,2.51-3C445.84,487,452,481.85,459,478.49c7.48-3.58,8.89-10.71,11.68-16.76,9.18-19.94,24.64-32,45.55-36.63,19.49-4.27,28,1.85,26.46,18.39-.49,5.13-4.2,10.87-8.09,14.62-17.32,16.72-36.21,31.3-62.26,28.78-15.92-1.54-24.46,10.17-32.25,19.35-4.14,4.88.19,17.16,1.09,26,1.07,10.75,2.6,21.44,3.85,32.17.91,7.89,1.7,15.79,2.51,23.37,13.74-6,27-14.68,38.54-23.6,9.56-7.4,17.23-19.38,26.85-28.46,12.22-11.54,31.84-16.75,44.5-10.82,8.34,3.91,10.46,17.09,4.35,24.24-16.5,19.3-38.25,29.92-62.53,27-20.74-2.47-30,14.41-45.83,19-7.3,2.15-6.35,7.72-6.46,13.37-.37,20.71,0,41.52-2,62.08-1.39,14.06,5.08,8.5,10.67,5.87,12-5.63,24.29-10.82,35.41-17.86,10-6.3,15-18.13,25.67-24.62,13.27-8.08,26.56-15.24,42.42-13.31,11.91,1.45,17.26,10.54,18.73,21.54,1.45,10.8-7.68,15.19-14.88,18.32-14.79,6.43-30.33,9.83-47,6.61-21.28-4.11-37,10.28-54.62,18.26-4.28,1.94-8.55,4-13,5.49-4.62,1.6-2.51,5.41-3.42,8.3-5.15,16.39-1.6,33.71-5.72,50.26-1.84,7.4-1,7.6,9.66,3a201.06,201.06,0,0,1,37-12.22c7.38-1.62,13.15-9.52,20.43-12.9,17.09-7.94,34.71-13.81,53.92-6.79,8.07,3,14.11,8,14.17,16.63.07,10.73-7.74,16.18-17,19.72-16.62,6.35-33.1,5.18-49.9.23-8.41-2.47-15-11.45-25.71-6.48s-21.61,10.48-33,12.92c-15.68,3.35-12.38,14.57-14,25-3.1,20.11-7.43,40-11.49,60-3.23,15.87-6.42,31.77-10.38,47.47-4.18,16.63-8.17,33.44-14.17,49.46-11.91,31.78-24.19,63.5-38.12,94.43-12.86,28.58-27.81,56.24-42.37,84-7.46,14.24-16.09,27.86-24.11,41.8-.75,1.3-.88,3-1.47,5.09,11.15-4.19,21.66-7.67,31.73-12.13,4.89-2.17,4.47-8.77,8.28-12.84,18.24-19.47,40.88-26.57,66.58-25.18A36.81,36.81,0,0,1,423.82,1132c3.08,3.25-1.19,9.28-3.91,13-15.9,21.63-37.74,32.17-64.34,31.83-7.06-.09-14-3.93-21.11-5.42-12.11-2.53-21.42,7-32.4,8.33-28.57,3.44-31.77,30.11-44.82,47.52-9.78,13-16.2,28.81-26.85,41-12,13.7-18.62,30.84-33.7,44.91,23.14-5.82,43.7-10.81,64.16-16.18,27.7-7.28,54-18.5,80.67-28.7,26.2-10,49.36-25.19,73.84-38,17.27-9,31.71-23.47,47.34-35.59,5.92-4.59,11.41-9.77,17.48-14.14,9-6.52,13.7-13,9.09-25.51-6.1-16.6-10.14-34.12-13.26-51.56-1.8-10-10.64-9.4-15.56-14.32-16.18-16.2-21.55-37.19-23.18-58.88-1.08-14.3-2.57-28.86,3.4-43.19,6.55-15.7,13.75-5.7,20-1.23,34.8,25.05,36.9,68.55,21.92,102.38-2.74,6.2,2.8,16.18,4.82,24.35,4.1,16.59,8.4,33.13,13.16,51.78,19.85-20.49,39.18-40.49,58.6-60.41,2.49-2.55,5.62-4.48,8.14-7,9-9,6.91-17.88,2.19-28.84-7-16.18-11.09-33.59-16.49-50.46-2.6-8.11-6-16.05-7.78-24.32-1-4.6-4.6-3.54-6.85-5.21-19.59-14.52-31.6-33.87-37.5-57.39-2.94-11.7-5.54-23.71-3.52-35.42,1.86-10.77.17-24.85,15-29,8.16-2.3,12.48,5.62,17.35,9.49,21.56,17.13,27.68,42.4,30.74,67.93,1.17,9.8-2.22,20.75-5.76,30.35-3.65,9.93.55,17.75,3.25,26.18,6.2,19.4,13.55,38.48,18.46,58.18,1.33,5.3,5.93,9.17,5.24,15.36-.33,3,3,3.76,5.58.55,19.93-25.11,40.25-49.92,59.67-75.42,4-5.31-3.17-10.87-4.67-16.47-5-18.64-11.46-36.89-17.21-55.34-.91-2.92-1.93-5.4-4.83-6.84-37.62-18.73-51.84-69.94-32.93-106.21,3-5.73,15.89-2.9,23.7,3.56,21.51,17.81,27.93,41.2,25.92,67.64-.63,8.3-4.84,16.37-5.24,24.64a51.41,51.41,0,0,0,3.87,22.36c7.91,18,12.27,37.13,18.55,57.41,17.82-24.42,30.81-50.31,45.37-75.32,14.26-24.52,24.65-50.8,37.78-75.79,2.88-5.49-6-9.36-8.64-14.45-8.31-15.65-25.9-17.69-38.71-26.67-15.72-11-29.89-24.21-31-45.83-.52-10.18,3.85-18,12.18-22.32,12.56-6.44,18.83,4.41,24.52,12.26,7,9.7,12.57,20.51,18.11,31.17,2.14,4.14,3.09,9.15,3.56,13.86,1.61,16.27,15.24,25.19,22.64,37.89a4.83,4.83,0,0,0,2.33,1.38,22.1,22.1,0,0,0,2.64-4.33Q756.63,794,768.3,766.59c1.88-4.42-2-8.39-3.8-10.1-10.86-10.4-17.55-24.15-35.45-28.6-14.64-3.65-23.2-20.79-29.76-35.11-4.61-10-10.45-22.23,2.08-31.58,5.64-4.22,12.17-4,17.86,1.14,18.44,16.71,28.33,37.63,34.5,61.68,2.87,11.18,13,20.49,19.57,30.23,6.06-14.49,12-29,18.19-43.39,6.61-15.28-5.68-24.38-11.16-35.8-6.12-12.75-18.81-18.75-28.49-27.63-16.63-15.25-23.7-45.24-12.89-64.9,3.38-6.13,15.58-7.16,20.74-2.57,16.81,15,20.33,35,21.18,55.73.79,19,5.08,36.6,16.3,52.19.31.43,1.24,1,1.4.86a5.32,5.32,0,0,0,1.89-2.1c8.68-25,18.55-49.68,25.43-75.17,3.86-14.33-5.09-29.35-3-44.54,2.26-16.47,3.09-33.7,16.67-45.59,8.44-7.39,18.49-13.63,30.62-8.25,7.93,3.51,8.87,9.82,7.61,18.41-1.33,9-2.18,18-5.77,26.33-7.3,17-17.46,32.45-31.66,44.26-9.22,7.66-8.23,18-11.24,27.39-4.45,13.82-8.43,27.79-12.92,41.6-1.57,4.86-2.91,8.69,4.66,7.9a27.15,27.15,0,0,1,7.48,0c11.39,2,20.15-2.84,29.54-8.78,15.55-9.85,32.37-12.34,50.69-5.55,9,3.32,15.65,6.13,16.57,16.62.91,10.31-6.19,14.15-13.72,15.5-21.12,3.78-42,3.68-61.51-7.69-9.53-5.57-19.5,1.14-29.26-.29-18.46-2.69-14.29,14.35-19.28,22.92-4.26,7.32-5.68,16.23-9.1,24.12-2.32,5.35-2.42,6.93,4.39,7.3,18.93,1.05,36.52-2.34,54.29-9.33,14.81-5.83,31.09-4.5,45.43,3.78,6.06,3.5,7.72,10.53,6.55,17.32a17.54,17.54,0,0,1-13.28,13.78c-24.26,6-45.81.81-64.44-16.87-2.81-2.67-10.19-.77-15.43-.54-3.11.14-6.47,2.29-9.22,1.58-14.11-3.66-17.66,6-21.53,15.94-5.37,13.8-11.7,27.27-16.27,41.33-1.85,5.69,5.4,3.75,8.18,4.46,4.57,1.18,9.79-.37,14.52.47,12.65,2.24,21.67-7.46,33.06-9.33,17.05-2.8,33.94-6,49.93,4.07,7.78,4.91,10.36,12.54,8.18,20.39-2.72,9.78-10.78,15.84-20.84,16.68-23,1.91-41.86-8.13-59.07-22.21a7.83,7.83,0,0,0-4.41-1.53c-5.16-.19-10.49.75-15.47-.23-17-3.33-24.71,4.35-30.36,20.06-4.6,12.81-9,26.58-18.7,37.18,18.32,3,36.35,4.23,54.86-2.53,13.35-4.86,27.84-3.22,42.08,0,9.49,2.18,18.23,5.48,23.44,13.16,8.06,11.88.47,24.67-14,26.28-27.54,3-50.27-6.9-70.85-24.33-6.06-5.14-14.55,1.63-21.61-1.71-.13-.06-.34,0-.49,0-25.28-9.33-22.34,15.5-29.65,26-14.88,21.34-24.86,45.87-40.21,66.83,13.14,4.9,21.17-2,30.62-10.49,15.29-13.66,34.64-11.79,53.75-8.88a79.61,79.61,0,0,1,34.55,14c9.79,6.84,10.71,16,0,21.92-18.08,10.06-37.3,17.67-58.42,14.36-13.26-2.08-25.78-7-36.71-15.94-6.17-5-15.15-3.83-22.7-2.79-22.54,3.14-26.31,26-39.45,39.15-6.9,6.89-11.92,15.64-18.27,23.15-2.5,2.94-1.08,2.57,1.17,2.58,16.42.13,32.85-.48,49.24,1.66,1.68.22,4.34-3.39,5.8-5.7,8.6-13.57,34.3-20.36,49.83-17.18A121.71,121.71,0,0,1,756.2,1053c6.66,3.71,13.84,8.87,13.59,17.34-.36,12.61-11.44,16.21-20.75,20.71-10.68,5.18-22.29,5.37-33.52,3.82-16.7-2.29-32.54-6.15-45.14-20-4.23-4.64-15.62-3.27-23.79-3.67-13.28-.65-26.63.94-39.91-1.68-1.87-.37-5.09,3.15-6.81,5.5-15.28,20.92-34.94,37.8-52.14,57-.76.85-3.84,2.31.28,3,18.13,3,36.65,2.53,54.68,6.85,6.44,1.54,7.36-7.39,13-10,23.07-10.67,45-7.66,67.28,2a42.8,42.8,0,0,1,13.5,9.17c7.32,7.29,4.42,16.54-4,22.45-10.23,7.15-21.12,10.74-33,13.37-10.77,2.38-43.46-9-48.72-19.11s-14.93-8.65-23.61-9.54c-17.24-1.76-34.33-5.34-51.79-4.55a4.7,4.7,0,0,0-2.76,1q-22.77,20.58-45.44,41.24a475.85,475.85,0,0,1-72.92,54.62c-25.45,15.47-52,29.41-79.89,39.85-20.87,7.81-41.69,16.07-63.66,21.08-22.2,5.07-44.09,11.18-66.81,14-10.06,1.24-16.05,8.87-21.58,17.54-8.57,13.42-19.19,25.52-28.7,38.35-14.91,20.13-29,40.94-44.6,60.48s-28.7,40.79-44.9,59.89v11.91a220.14,220.14,0,0,1,43.33-24c25.32-10.29,50.37-21.21,76.72-29.25,26-7.94,51.57-17.12,78.52-21.56,10.94-1.79,22.59-2.12,32.47-6.43,6.14-2.68,9.62-11.53,14.22-17.68,6.07-8.13,11.87-16.48,18.17-24.43,3.4-4.29.69-8.78,1.24-13.13,1.93-15.25,7.48-28.2,16.84-40.73,8.82-11.82,17.8-22.9,29.33-32.12,10.19-8.16,22.11-14.28,34.33-14.43,9-.11,11.12,11.16,9.54,19.5-2.32,12.28-4,25.36-12.1,35.32-5.92,7.28-11.47,14.91-19.37,21s-16.21,11.54-24.57,16.91c-2.38,1.53-5.37,2.24-8.18,3-22.93,6-29.07,28.12-42.08,43.64-.28.33-.13,1-.18,1.55,1.6-.08,3.29.16,4.77-.28a135,135,0,0,1,37.59-6c12.81-.17,25.51-4.77,38.36-6.77,14.23-2.2,28.56-3.79,42.87-5.41,18.89-2.15,37.29-6.68,55.76-10.93,6.22-1.43,13.22-.55,18.91-3,8.76-3.71,8.63-14,12.26-21.42,4.36-8.9,6.4-19,11.32-27.54,3.91-6.78-2.59-9.24-3.63-13.68-3.45-14.65-1-28.3,3.34-42.05,3.69-11.73,6.3-24,17.07-32,5.73-4.28,11.7-6.33,18.52-3.56,8.53,3.47,9.79,10.72,10,19,.64,20.6-10.21,36.13-21.39,51.83-10.13,14.24-19.93,28.56-23.56,46.49a68.83,68.83,0,0,1-5.75,15.56c-.54,1.11-1,2.27-1.47,3.4a21.17,21.17,0,0,0,4.09-.42c21.12-6.27,42.4-12.12,63.26-19.17,7.5-2.53,8.27-11.38,11.08-18,4.24-10,8.6-19.94,13.3-29.72,5.36-11.15-4-19.75-4.74-30-1.4-20.43-.77-39.51,13.69-56.36,7.31-8.5,13.69-15.23,25.94-12.94,11.58,2.15,15.88,10.3,14.81,20.11-1.32,12.08-2.07,24.24-7.17,36.07-6.54,15.14-15.71,27.89-28.66,37.08-8,5.71-5.14,14.26-9.39,20.78-4.42,6.77-6.13,15.31-9,23.06a18.27,18.27,0,0,1-.91,1.76c.8.11,1.75.54,2.39.26,22.28-9.65,44.68-19.07,66.73-29.23,8.27-3.81,8.74-13.62,12-20.86,5.09-11.25,7.88-23.55,12.88-34.86,1.61-3.63.57-5.38-.62-7.83-6.83-14-4.48-28.83-3.27-43.43,1-12.07,6.37-22.82,13-32.53,5.5-8,13.46-16.45,23.62-14.4,15,3,18.17,13.33,17.27,28.45-1.55,25.87-17.12,44.6-32,62.22-12.09,14.27-14.07,30.79-20.45,46.35-.51,1.22-1.14,2.39-3,6.23,12.27-9.16,22.8-16.46,32.69-24.54,18.33-15,36.31-30.4,54.36-45.72a5.42,5.42,0,0,0,1.79-3.71,114,114,0,0,1,10-49.87c8.65-19.66,21.95-34.09,44-38a23.08,23.08,0,0,1,21.47,7.1c8.27,9.4,9.49,20.53,3.52,32.25-11.2,22-28.88,35.8-50.52,47.4-14.27,7.64-32.25,10.44-42.11,25.6-1.29,2-6.59,4,.76,6.07,10.65,3,20.67,8.34,31.39,10.84,4,.93,9.2-4.85,13.87-4.89,12.86-.12,25.85-2.89,38.45,4.21,8.48,4.78,18.45,7,25.27,14.64,8.7,9.78,10.81,21.22,3.48,31.93-6.77,9.89-17.75,9.58-29,7.59-18-3.18-31.06-15.22-41.58-27.41-15.22-17.64-35.31-23.13-55.13-30.49-1-.39-3.47,3.57-5.48,5.22-13.35,11-26.76,21.84-40,32.61,11.52,6.4,23.09,11.86,33.47,19,5.35,3.7,9,.09,13.35.08,15.06,0,28.46,5.24,42.33,10.55,14.34,5.48,22.62,16,27.45,28.53,3.61,9.37-1.42,19.17-10.57,25-18,11.46-35.12-1.28-46.81-11.85-10.07-9.11-20.34-18.45-25.4-31.21-7.67-19.3-27.11-21.59-41.59-31.09-4.06-2.67-6.1.79-8.33,2.36-12.31,8.62-26.86,12.55-40,19.48-2.82,1.49-3.14,3.11-1.29,4.79,8.86,8,17,17.44,27.17,23.27,11.36,6.51,24.5,10.15,37.13,14.18,9.5,3,28.23,26.56,31.19,35.79,3.3,10.3,3.9,18.72-4.3,26.2-8.45,7.7-28.22,3.86-36.46-5C706.9,1439.2,698,1428.2,692,1415c-2.54-5.63-6.47-11.4-6.63-17.19-.52-17.94-18.19-20.26-26.51-31-13.6-17.52-26-.71-38.49,2.75-11.28,3.13-22,8.23-33.48,12.64,12.67,13.28,23.79,28.83,38.55,39.18,11.93,8.36,26,14.08,37.95,23.25,14.12,10.79,24.59,38.3,17.71,50.21-5.24,9.07-19.41,10.21-28.5,5.07-23.69-13.43-34.27-36.15-38.51-60.1-2.54-14.41-9.84-23.37-17.23-33.72-13.12-18.38-21.83-19.45-44.59-13.75-18.92,4.74-37.69,10.61-57.32,13-19.25,2.37-38.23,7-57.32,10.7-2.11.41-3.6,1.69-2.05,3.85,5.74,8,10.31,17.69,17.92,23.07,5.68,4,15.33,2,22.69,5.86,10.32,5.37,19.62,11.23,25.25,22.22,3.26,6.37,8.81,11.32,11.91,18.27,5.59,12.53,6,25.69,8,38.79,1.12,7.4,5.48,14.93-6.45,15.77-4.91.34-10.21-1.22-15-2.92-27.89-10-43.94-31-52.84-58.19-2.3-7-4.89-14.92-3.74-21.82,3.06-18.47-11.8-27.53-19.08-40.52-.51-.91-2.68-1.43-4-1.29-28.1,3.08-56.24,5.86-84,11.64-10,2.09-20.29,3.07-30.49,4.18-3.22.36-6.12.77-9.07,3.65,5.37-.35,6.3,4,7.78,6.84,6.2,12.1,16.5,6.94,26.15,8,20.4,2.19,36.62,12.76,47,31.31,7.13,12.74,17.34,23.86,18.45,39.56.71,10.13,3.79,22.08-3.6,29-8.32,7.84-20.38,2.11-28.59-2.91-23.87-14.57-46.68-30.69-56.5-59.15-2.87-8.33-2.36-16.66-2.35-25,0-12.8-11.62-18.44-17-27.87-.75-1.3-8.74,1.86-13.44,2.45-27.28,3.48-53.55,10.9-79.47,19.8-10.59,3.63-21.28,7-33.45,10.92,8,2.89,14.24,10.75,18.36,10.22a116,116,0,0,1,20.53-.77c28.14,1.4,47.3,16.35,61.2,40,5.76,9.82,9.75,20.46,16.18,30.13,5,7.56-6.05,10.28-11,10.45a84.92,84.92,0,0,1-50.76-14.11c-7-4.59-13.79-9.32-20.52-14.26-12.1-8.9-17.67-22-20.14-35.54-2-10.66-10.31-11.62-16.12-16.78-13.88-12.33-24.48,1.69-34.86,5.46C103.14,1494.16,82.13,1504,64,1518.2V1616ZM916.77,684.41c.76-3.86-.41-7.33-4.26-9.49-19.58-11-38.21-6.88-56.49,3.4-4.08,2.3-1.29,3.38.79,4.63,10.56,6.37,22.1,8.5,35.08,7.9,5.59,1.43,11.56-1.63,17.78-1.8C913.32,689,916.07,687.9,916.77,684.41Zm-26.12,73.86c4.39-3,4.12-10,1-12.19-8.66-6.16-19.37-8-29.8-6.7a81.56,81.56,0,0,0-28.23,8.69C844.72,761.45,877,767.57,890.65,758.27Zm-8,562c1.79-9.71-6-14.75-12.62-18.91-11.34-7.1-24.17-10.1-39.62-9.8-2.51.65-9,.44-10.81,3.25-2.92,4.47,3.65,6.65,6.4,9.46a129.35,129.35,0,0,0,12.6,10.74c9.8,7.71,19.91,15,33.15,14.73A11.26,11.26,0,0,0,882.64,1320.22ZM869,531.68c.68-4.75-.26-8.85-5.44-9.62-10.82-1.62-25.46,12.05-26.74,23-1.23,10.45-4.31,20.57-4.14,31.36.1,6.22-1.3,14.55,2.24,17.63,3.21,2.79,5-6.61,9-9,.14-.08.34-.11.43-.23C857.22,569.16,866.18,551.79,869,531.68Zm-2.17,296.66c1.42-10.83-5.74-15.16-14.73-16.44a89.7,89.7,0,0,0-44.69,4.55c-1.74.65-3.53,1.13-5.29,1.69.76,1.23,1.23,3,2.34,3.61,14.64,8.12,28.83,17.57,51,16.59C858,837.76,865.67,837.43,866.86,828.34Zm-8.78,368.46c3-5.92,7.61-12.83,4-19.34-2.39-4.35-6.6-9.28-13.35-9.08-16,.48-25.9,9.58-33.7,22.54-9.72,16.15-12.6,34.4-16.95,52.58,5.91-1.67,10.57-5.71,15.86-8.32C832.17,1226.2,848.56,1215.39,858.08,1196.8ZM842.49,901c1.25-6.21-5.53-10.72-10.62-12.42-9.5-3.17-19.65-4.34-29.56-6.35-9,1.67-17.62,3.26-26.27,4.92-.72.13-1.91.8-1.89,1.16a3.7,3.7,0,0,0,1.16,2.41c14.82,12,31.69,19,50.82,17.87C831.84,908.24,840.93,908.73,842.49,901Zm-17.55,479.79a17.57,17.57,0,0,0-1.22-3.86c-12-23.84-36-24.63-57.72-29.61-1.76-.41-7.35.25-4.76,4.81,9.91,17.48,22.61,32.37,40.9,41.79C813.88,1399.94,824.91,1394.48,824.94,1380.77ZM784.2,993.14c-25.32,0-49.06,0-72.79.1-.76,0-1.51,1.4-2.26,2.15,1.27,1.16,2.36,2.79,3.86,3.42C737,1008.91,760,1004.74,784.2,993.14Zm-11.42-343.2c.19-5.93.78-12-.3-17.78a248.76,248.76,0,0,0-7.74-31c-2.2-6.77-6.8-14.62-13.93-14.46-7.93.19-9.35,8.74-9.75,13.34,0,18.89,14.59,44.79,28,52.27C771.6,653.66,772.73,651.58,772.78,649.94Zm-69,335.51c27.35-6.67,53.17,2.17,79.45-1.12C749.28,966.38,720.18,972,703.81,985.45Zm53.76,89.62c-25.39-.3-49.87.84-74.26-1.85C721.75,1091.66,739.64,1085.24,757.57,1075.07Zm-.1-8.29c-4.91-5.8-10.58-8.5-16.49-10.8-19.21-7.45-38.34-10.28-57,1.5-1.43.91-2.27,2.74-3.39,4.15.59.42,1.15,1.2,1.76,1.23C707.05,1064.27,731.67,1067.85,757.47,1066.78Zm-10.38,131.67c.58-3.46.18-9.6-5.37-11-7-1.77-12.89,2.77-16.61,8.68-11.69,18.59-15.9,38.81-12,60.54.38,2.09,1.56,4,2.37,6,1.31-1.47,2.76-2.84,3.91-4.42,2.15-3,4.07-6.1,6.19-9.1C736,1234.36,747,1219.75,747.09,1198.45Zm2.29,241.14c-4.13-3-1.68-7.92-3.61-12-8.86-18.79-25.26-28.11-43.48-35-1.39-.53-8.33-4.35-6.77.77,6.59,21.57,16.47,41.73,37.29,53.36C739.34,1450.34,746.6,1449.71,749.38,1439.59ZM738.82,724.86c2.53.67,6.45,3.42,4.58-3.69-1.14-4.33-3.28-8.22-4.18-12.29-3.55-16.06-13.7-27.69-24.44-39a8.7,8.7,0,0,0-6.65-2c-3.6.53-2.9,4.5-4,7.36C702.77,689,725,721.21,738.82,724.86Zm-28.08,75.71a26.59,26.59,0,0,0,.17-3.8c-2-20.57-13.19-37-24.51-53.24-1.5-2.15-2.24-6-6.48-6.61-5.64-.75-8.37,2.85-10.34,6.57-2.82,5.34-4.51,11.47-1.24,17.22C678.3,778.27,690.12,794,710.74,800.57ZM667.8,1492.46c4.14-2,6.3-5.67,5.91-7.1-.81-5.77-.66-8.21-1.51-10.22-8.86-21.06-25.48-34.12-45.47-43.61-.82-.39-2.46-.65-2.75-.25a3.91,3.91,0,0,0-.5,3c6.18,21.35,11.83,43,33.29,55.19C660.33,1491.54,663.69,1494.43,667.8,1492.46Zm-22-326.37c15.92,3.55,31.11,1.43,44-8.65-23.6-2.22-47.9-6-73.52-3.91C625.08,1161.92,635.65,1163.83,645.83,1166.09Zm12.86,73c.12-7.25-5.06-12.9-12.78-8.52-18.28,10.38-23,28-22.94,49.15-1.85,5.63,2.26,12.19,2.59,19.18,0,.58.1,9.42,4.23,5.46C648.14,1286.72,658.29,1264.71,658.69,1239.06Zm-42.81-96.22c25.86.12,50.47,2.1,76,8.83C674.49,1134.59,639.49,1130.73,615.88,1142.84Zm7.9-250.41c7.72-30.94-2-55.41-25.77-74.34Zm-5.35,15L592.26,826C583.82,859.48,594.19,885.39,618.43,907.38Zm-67.25,406.27c7.78-13.15,18.25-25.15,17.85-41.77-.34-4.88,1.9-11.51-5.24-12.5-5.68-.78-9.67,3.24-12.91,8.37-8.69,13.75-10,29.62-13.6,44.79a18.82,18.82,0,0,0,2.94,15.24c2.21-2.07,4.73-3.91,6.56-6.27S549.65,1316.24,551.18,1313.65Zm5.92-661c5.85-2.14,13.14-6,9.52-14.37-2.38-5.49-8.38-10.15-14.41-8.85-12.4,2.66-24.74,6.07-34.55,15.39-4.1,3.91-12.94,7.91-11.48,11.49,2.45,6,11,1.2,13.11,1.85C535,660.51,546.18,656.62,557.1,652.64Zm3.76,93.18A7.77,7.77,0,0,0,565,736c-3.32-8.75-12.22-7.46-18.36-10.6-17,2.17-32.66,6.86-46.15,17.23a20.23,20.23,0,0,0-2.07,2.07c.91.69,1.75,1.82,2.76,2,12.67,2.23,24.82,8.59,38.07,6.08A93.85,93.85,0,0,0,560.86,745.82Zm-9.59-200.08c2.36-2.69,5.45-5,3.89-9-1.77-4.52-5.56-6.16-10.56-6-21.36,4.87-37.17,18.09-50.78,34.55-1.61,1.94.44,2.38,1.57,2.36C516.67,567.16,536.39,562.7,551.27,545.74Zm-5.27,416c8.88-19.73-3.29-67.53-29-82.5C526.71,906.89,536.31,934.17,546,961.72Zm-7.36,12.83c-.2-2.52-.34-5-.65-7.56-.09-.73-.78-1.36-1-2.09-9.17-27.6-18.31-55.21-27.27-82.27-4,13.78-3.06,28.08.7,42.58a108.49,108.49,0,0,0,24,44.85C535.73,971.62,535.7,974.47,538.64,974.55Zm-7.83-527.08c2.73-3.66,4.4-8.48,1.5-11.76-3.74-4.22-9.86-3.46-14.95-2.13-19.55,5.1-33.82,16.88-42.79,35-1.63,3.29-3.45,6.5-5.18,9.75l7.21.86C498.89,476.32,517.14,465.86,530.81,447.47ZM510.35,1521.11c.57-31.73-26.81-67.89-50.46-69.31C473,1477,494,1497,510.35,1521.11Zm-11.45,7.77a13.92,13.92,0,0,0,3.9.3,28.65,28.65,0,0,0-2.26-3.93c-3.83-4.82-8.1-9.32-11.58-14.36-12.06-17.44-27.63-32.35-37.25-51.71,1.7,10.28,2.48,20.56,7.32,29.87C468.13,1506.58,479.49,1521.75,498.9,1528.88ZM494.61,346.35c3.87-5.59,3.1-12.33-6.86-13.69-1.59.48-3.76.72-5.5,1.72-15.63,9-25.36,23.66-34.34,38.42-2.49,4.1-7.94,12.08-3.64,15.68,4,3.37,11.42-1.35,16.78-4.2C476.91,375.85,485,360.24,494.61,346.35Zm-17,728.5c6.57-32.25,4.42-59.46-21.71-79.54C462.94,1021,470,1046.68,477.65,1074.85Zm-6.28,12.23c-8-32.65-15.43-62.78-23.73-96.55C443.83,1027.27,446.15,1058.65,471.37,1087.08ZM395.91,1335c8.63-11.34,12.5-24.63,15.36-39.16-21.57,21.2-37.54,45.74-56.9,67.44-.67.75-.78,2-1.16,3,1.18,0,2.57.31,3.52-.18C371.81,1358.3,385.53,1348.65,395.91,1335Zm3.14-584.22c-.06-9.29-2.81-13.89-10.46-14-17.27-.17-29,10.32-38.58,22.48-6.32,8-12.41,17.21-11.06,28.77.34,2.92.64,3.16,3.48,1.83,11.38-5.32,23.25-9.66,34.39-15.42A47.11,47.11,0,0,0,399.05,750.78ZM416,1132.05c-30.23-7.79-54.17.32-77.22,21.78ZM387.37,1535c-.53-5.41,0-10.74-1.67-15.31a114.41,114.41,0,0,0-27-42.63c-9.4-9.35-20.89-16.45-35.26-15.9a15.81,15.81,0,0,0-3.24.8,10.26,10.26,0,0,0,1.25,2.6c5.79,6.46,11.56,13,17.51,19.28C354.75,1500.62,370.65,1517.34,387.37,1535Zm-.54-936.76a13.47,13.47,0,0,0-1.07-3.36c-10.59-16.65-26.22-27.25-43.56-35.53-10-4.79-17.25-.26-17.14,9.94.12,10.65,25.09,28.63,36.92,27.66,7.17-.58,14.53,1.14,21.81,1.75A13.49,13.49,0,0,0,386.83,598.22Zm-3.77,92.29c2.29,1.57,2.14-1.65.79-3.14-3.73-4.1-7.45-8.22-11.38-12.12-10.87-10.79-22.24-20.92-34.58-26-10.13-.77-12.13,2.48-9.64,9.64s6.61,11.8,13.07,16.32c10.47,7.31,21.88,11.37,33.62,15.24C377.49,691.28,379.69,688.19,383.06,690.51Zm27.15,451.85-66.42,21.15C360.09,1172.8,389.67,1163.62,410.21,1142.36ZM377.07,515.89l1.46-.44a17.47,17.47,0,0,0-1.82-3.85c-12.53-15.49-26.17-29.78-45.09-37.46-4.79-1.95-11.39-5.85-13.86,3.1-1.23,4.48.76,9.15,3.42,12.65C334.36,507.2,351.89,516.3,377.07,515.89Zm.39,1026.8c-.21-.82-.16-1.88-.67-2.44-20.55-22.93-41.15-45.81-62.63-69.68-1.19,12.11,2.94,22.13,8.21,30.18,12.44,19,31.05,31.47,51.37,41.25A14,14,0,0,0,377.46,1542.69ZM337.82,1369.5c21.41-28.8,42.44-52,62.56-76.07C368.54,1307.67,349.93,1333,337.82,1369.5Zm33.2-1035c2.67-1.19-.25-3.67-.11-5.67.19-2.65,0-5.33,0-12.26-4.52-15.5-6.79-36.13-25.8-49.17-5.9-4.05-9-2-12,2.44-4.81,7.12-4,14.66-1.24,22.44,6.11,17.5,19.69,28.66,33.23,39.87C366.8,333.51,369.67,335.14,371,334.54Zm-15.44,94c-.7-2-1.1-4.17-2.14-6-10-17.16-25.42-27.78-43-36-7.76-3.63-11.77-2-12.85,8,.2.47.74,1.94,1.44,3.33,8.63,16.95,24.19,24.94,41,30.65C344.71,430.16,350.39,428.66,355.58,428.57ZM288.34,1043c7.53-10.21,15.56-20.43,14.5-35.76-14.5,20.55-28.24,40-41.94,59.54-.33.47-.12,1.32-.16,2,.77-.37,1.58-.67,2.3-1.1C273.46,1061.48,281.29,1052.53,288.34,1043Zm-38.85,24.6c14.37-24.31,32-43.12,47.4-64.28C263.82,1019.92,249.6,1039.81,249.49,1067.59ZM267.65,834c.3-.92-3.14-3.43-5.17-4.7-18.23-11.33-36.08-23.15-57.6-28.15-9.7-2.26-19.82.37-19.8,7.81-.6,8.94,4.44,15.16,10.86,19.91,18.52,13.73,39.54,16.27,61.54,11.68C261.15,839.82,266.17,838.54,267.65,834ZM256.3,1532.7c-1.73-3.32-3.5-6.62-5.2-9.94-14.29-27.84-38.66-32-59.92-33.18,19.1,12.86,37.23,25.1,55.41,37.27C249.73,1529,253.06,1530.75,256.3,1532.7ZM227,667c3-.24,1.61-2.27,2.05-3.67-4.1-19.17-9.17-38-19.15-55.23-3.36-5.81-7.92-11.06-13.66-10.44-6.49.7-11.53,6.49-13.59,13.38C177.4,628.37,209.26,668.4,227,667Zm-2.31,85.83c2.08-.14,4.06-1.64,6.09-2.52-1.07-1.15-2.2-2.24-3.2-3.44-11.8-14.18-26.78-24.42-42.8-32.94-6.53-3.47-14.14-8.87-21.62-5.75-12.22,5.08-13.06,18.46-2.76,29.07,13.16,13.56,29.88,16.56,47.81,15.7C213.66,752.91,219.17,753.15,224.64,752.79Zm37.42,798.91c-29-19.94-54.43-37.42-80.41-55.3C196,1531.12,224.58,1544,262.06,1551.7Zm-67.62-524.93c.79-1.53,2.39-3.14,2.25-4.58-1.05-10.35-2.36-20.68-3.77-31C190,970,179.38,954,159.44,943c2.8,6.35,5.35,11.79,7.62,17.35q12.88,31.44,25.64,62.95C193.19,1024.5,193.86,1025.62,194.44,1026.77Zm-9,11.93c.68-.12,1.7-2.22,1.41-3-.9-2.38-2.65-4.44-3.54-6.82-10.46-27.85-20.82-55.74-31.13-83.44-6.25,9.9-5.93,21.22-4.37,31.65,3.62,24.08,20.5,41.48,33.68,60.64C182.05,1038.62,184.15,1038.94,185.4,1038.7Zm-4.65,101.46a13.24,13.24,0,0,0-2.44-2.92c-16.76-11.23-36.09-13.72-53.42-16.17-3.68,0-5.53-.48-7,.08-5.65,2.2-11.16,4.73-16.73,7.13,2.74,4.92,7.52,2.19,11.29,2.8,21.54,3.47,43.12,6.63,64.7,9.8C178.31,1141.05,179.56,1140.42,180.75,1140.16Zm-18.54,135.49c.32-28.34-11.63-50.07-35.87-67.82,3.62,6.22,6.81,10.3,8.55,14.93,6.83,18.19,13.34,36.51,19.69,54.87,1.59,4.6,2.44,9.43,5.95,13.12C163.56,1286,162.15,1280.82,162.21,1275.65Zm-9.52,25.9c-.09-1.45.21-3.07-.33-4.33-2.33-5.44-5.46-10.58-7.31-16.16-7.25-21.89-14.13-43.9-21.64-67.41-1,11.72-4.62,21.23-2.67,32.06,3.84,21.27,10.25,40.59,28.46,54A24.58,24.58,0,0,0,152.69,1301.55ZM98.1,1138.87c26.89,26.15,52.61,23.29,76.65,11.6ZM56,1618.34V61.66l-48-48V1666.34Z"/></svg>