<svg id="Card" xmlns="http://www.w3.org/2000/svg" viewBox="0 0 1024 1680"><defs><style>.cls-1{fill:#f2f0ed;}.cls-2{fill:#8c1707;}.cls-3{fill:#16592d;}.cls-4{fill:#d82e21;}.cls-5{fill:#38408c;}</style></defs><rect class="cls-1" x="14.5" y="14.5" width="995" height="1651"/><polygon class="cls-2" points="966 1619.17 966 60.83 1018 8.83 1018 1671.17 966 1619.17"/><polygon class="cls-2" points="60.83 58 8.83 6 1015.17 6 963.17 58 60.83 58"/><polygon class="cls-2" points="8.83 1674 60.83 1622 963.17 1622 1015.17 1674 8.83 1674"/><path class="cls-3" d="M859.65,1593.24c-.28-1.65-.61-3.31-.94-4.91a58.24,58.24,0,0,1-1.53-10.83,316.23,316.23,0,0,1,3.68-56.6c4.18-25.74,11.21-47.73,21.5-67.24a16.64,16.64,0,0,1,2-2.64c1.33-1.55,3.79-4.41,3.35-5.77-.08-.27-.59-1.19-3.52-1.92-6.81-1.68-14.23-1.81-21.4-1.94-4.15-.08-8.45-.16-12.67-.53-2.72-.24-5.45-.45-8.18-.67l-.22,0c-10.6-.83-21.56-1.7-32.08-4-12.69-2.83-25.35-6.64-37.59-10.33l-.1,0c-5.43-1.64-11-3.33-16.57-4.91-20.67-5.9-38.65-14.23-54.95-25.47a4.18,4.18,0,0,1-2.13-3.17c0-1.59,1.2-2.47,2.09-3.11l.51-.38c2.57-2,5.13-4.15,7.61-6.2,4.81-4,9.79-8.1,15-11.75,21.81-15.2,47.16-26.4,75.35-33.29a236.91,236.91,0,0,1,56.23-7l2.55,0c.36,0,.84,0,1.39.06.88.05,1.92.11,3,.11,4.28,0,5-1,5.05-1.09.16-.28.1-1.07-.63-2.38-7.34-13.33-13.85-25.41-19.12-38.2a522.93,522.93,0,0,1-26.74-85.74c-.52-2.35-1-4.7-1.57-7.06-5.15-23-10.47-46.87-12.1-71.07-.44-6.57-1.33-13.25-2.19-19.71-.57-4.25-1.15-8.64-1.61-13a32.46,32.46,0,0,1,.17-6.48c.08-.9.16-1.78.21-2.66l.16-2.84,2.62,1.11.38.14a6.58,6.58,0,0,1,1.53.73c20.08,14.11,37.14,32.15,51.19,47.93,21.08,23.68,37.77,45.78,51,67.56,5.13,8.42,10.66,16.78,16,24.87,11.66,17.63,23.72,35.86,32.39,55.82.37.83.85,1.38,1.23,1.39l1.92.08v61.33l-.33.5c-1.33,2-2.76,4-4.15,6-.74,1-1.47,2-2.19,3.08l-1.7,2.42-1.62-2.48c-.34-.53-.7-1-1.07-1.56a28.52,28.52,0,0,1-2.39-3.84c-2.18-4.44-4.34-9-6.43-13.35-3.16-6.62-6.42-13.48-9.81-20.15-4.61-9.07-9.38-18.23-14-27.08-8.24-15.82-16.77-32.18-24.61-48.57-6.87-14.37-15.17-28.25-23.2-41.68-5.87-9.83-11.94-20-17.42-30.27-.31-.59-1-1.57-2-1.57a2.63,2.63,0,0,0-1.23.35c-.62.32-.72.5-.72.5a8.26,8.26,0,0,0,.7,2l.1.22c4,9.26,8,18.73,11.83,27.89l.16.38,4.77,11.38q7.05,16.75,14.12,33.5c7.86,18.62,16,37.87,24,57.1,9.89,23.61,19.52,47,27.64,66.79a4.31,4.31,0,0,1-.06,4.18c-1.17,1.75-3.53,1.75-4.81,1.75h-1.29c-3.55,0-7.19.07-10.71.15h-.1c-3.53.08-7.19.15-10.79.15-5.31,0-9.69-.17-13.77-.53-2.89-.25-5.85-.38-9.06-.38-7.81,0-15.74.77-23.41,1.52s-15.82,1.53-23.83,1.53c-11.09,0-22.46,2-33.45,4-3.28.58-6.66,1.18-10,1.72-1.61.27-5.46,1.26-6.23,4.7a.72.72,0,0,0,.09.6,2.09,2.09,0,0,0,1.42.68c8.44,1.2,17,2.53,25.29,3.82l.21,0c19.16,3,39,6,58.54,7.8,7.72.69,16.11,1,26.4,1,6.32,0,12.75-.12,19-.23s12.65-.24,19-.24c.45,0,.88,0,1.26-.07s.79-.06,1.11-.06a2.79,2.79,0,0,1,2.59,1.27c.87,1.44.06,3.21-.91,5.06-2,3.73-3.73,7.75-5.42,11.64-.77,1.78-1.54,3.56-2.34,5.31-3.61,8-6.68,16.49-9.64,24.68-2.88,8-5.86,16.17-9.35,24-6.44,14.5-10.43,30-14.28,45-1.5,5.84-3,11.88-4.74,17.83a2.88,2.88,0,0,0,.13.44,8.57,8.57,0,0,0,1.56.17,2.34,2.34,0,0,0,.55,0,41.49,41.49,0,0,0,6.81-7.75q3.46-5.37,7-10.72c7.24-11.07,14.73-22.52,21.23-34.23,1.7-3.06,3.5-6.18,5.09-8.94,7-12.23,14.33-24.88,17.63-39a6.42,6.42,0,0,1,2.08-3,10.57,10.57,0,0,0,.75-.76l1.87-2.24,1.41,2.55.39.69c.35.61.71,1.22,1,1.86s.7,1.56,1.05,2.32l.17.39v70.87l-.34.51c-6.88,10.21-14,20.78-22.91,30l-.68.7c-22.23,23-45.21,46.8-75.61,61l-2.38,1.12Z"/><path class="cls-3" d="M905.25,1503.27c0-.68,0-1.33-.09-2a9.82,9.82,0,0,1,.28-4.16l1.53-4.31c3.93-11,8-22.36,12.3-33.38,6.84-17.41,14.24-35.65,23.28-57.42.38-.89.83-1.74,1.27-2.56,1.33-2.49,2.1-4.09,1.31-5.85-1-2.2-3.33-2.66-5.12-2.66a10,10,0,0,0-2.46.3,15.58,15.58,0,0,1-3.8.45,32.94,32.94,0,0,1-4.34-.37,29.85,29.85,0,0,0-3.74-.34h-.36c-5.41.15-10.87.22-16.22.22a545.41,545.41,0,0,1-69.8-4.41c-6.4-.82-12.75-2.08-18.89-3.29-2.87-.57-5.68-1.12-8.45-1.62l-1.3-.24.2-3.63,1.31-.1c6.66-.49,13.37-1,19.87-1.55,15.3-1.24,31.12-2.53,46.78-3.18,7.08-.29,14.8-.44,23.59-.44,8.34,0,16.79.13,25,.25l9,.13h.25c2.35,0,2.72-.51,2.73-.54s.36-.57-.64-3q-4.31-10.39-8.66-20.78c-4.22-10.07-8.56-20.44-12.79-30.82-3.41-8.35-6.82-16.86-10.12-25.09l0-.1c-5.17-12.94-10.53-26.32-16-39.39-.66-1.56-1.42-3.12-2.16-4.63-2.41-4.95-4.91-10.07-4.38-16.32l.11-1.31,3.62-.17.23,1.3c.08.46.13.94.17,1.42a5.87,5.87,0,0,0,.32,1.74c3.72,7.19,7.56,14.49,11.27,21.55,7.23,13.74,14.68,27.89,21.62,42,6.49,13.16,12.65,26.74,18.6,39.87,2.91,6.41,5.9,13,8.89,19.49,1,2.18,2.07,3,2.53,3,.15,0,.7-.09,1.61-1.23,1.81-2.28,3.46-4.73,4.83-6.82l3.67-5.6v71.31l-2.6-.81-.11,0c-.34,0-1.3.52-2.53,2.5a144.07,144.07,0,0,0-7.16,13.71c-1.33,2.79-2.71,5.67-4.19,8.47l-.19.36c-10.8,20.45-22,41.59-36.36,61.19l-3.61,4.92Z"/><path class="cls-3" d="M897.19,619.63c-2,0-3.47-1.37-3.88-3.67-.63-3.53-1.28-7.07-1.92-10.61-3.12-17.08-6.35-34.75-8-52.3l-.17-1.78c-2-20.68-4.06-42.07-.25-63.36,1.47-8.23,2.42-16.73,3.34-25,.54-4.88,1.1-9.86,1.76-14.76.29-2.15-.24-2.36-.55-2.49a6.08,6.08,0,0,0-2.14-.39,4,4,0,0,0-1.39.22c-5.61,2.17-10.87,5.38-16,8.48a116.65,116.65,0,0,1-15.21,8.27,482.7,482.7,0,0,1-91.41,28.23c-22.53,4.58-47.71,7.88-77,10.07-7.52.57-15.54.83-25.24.83-7,0-14-.14-20.86-.27-6.2-.12-12.62-.24-18.93-.26a27.24,27.24,0,0,1-5-.64c-.68-.13-1.27-.24-1.86-.33-1.76-.29-4.19-.9-5-3s.58-4.25,2-6.08c8.56-10.71,17.16-21.68,25.56-32.61A395.64,395.64,0,0,1,685,404.87c13.33-11.91,28-22.72,42.11-33.17l6-4.41c20.22-15,41.13-30.45,64-42.47,1.41-.75,2.91-1.41,4.5-2.12,5.22-2.33,10.57-4.72,11.55-9.38.71-3.36-4.83-5.68-9.29-7.53l-.14-.06-1.57-.66a373.47,373.47,0,0,1-64.14-35.65c-17.75-12.31-35.31-25.51-52.28-38.28-5.71-4.29-11.38-8.56-17.07-12.8a30.65,30.65,0,0,1-4.85-4.88c-.66-.77-1.3-1.52-1.94-2.2l-1.64-1.75,2-1.3c.73-.47,1.47-1,2.19-1.57a18.54,18.54,0,0,1,5.85-3.37c7.8-2.24,16.09-4.27,25.34-6.22A310.07,310.07,0,0,1,760,190.62c3.72,0,7.52.06,11.3.17,19.5.59,38.86,3.79,57.57,6.88l.12,0,9.65,1.58a233.85,233.85,0,0,1,24,5.56c2.84.77,5.63,1.52,8.43,2.23a15.62,15.62,0,0,0,3.76.45,10.85,10.85,0,0,0,5.57-1.19c-8.67-22.31-14.06-45.33-19.7-70.93-4.59-20.85-9.5-45.61-11.08-71.27L849.48,62h68.75l.6.77c8.41,10.79,16.85,21.84,25,32.53l.1.14,8.2,10.73c3.11,4.06,6.22,8.39,9.51,13.22l.35.51V231.76l-3.74-6.57c-2.83-5-5-9.2-6.91-13.28-7.62-16.54-15.25-33.41-22.62-49.72l1.31-.75-1.37.62q-4.41-9.78-8.84-19.56L918,138.57c-6.3-13.83-12.8-28.13-17.3-43.13-.25-.85-.49-1.82-.73-2.85-.77-3.17-1.92-8-3.85-8H896A5.22,5.22,0,0,0,892.49,87a11.59,11.59,0,0,0-1.67,9c1.65,8,2.65,16.27,3.61,24.23,1,8.61,2.11,17.51,4,26.16,2.2,9.95,3.88,20.15,5.52,30,1.87,11.35,3.81,23.06,6.53,34.44,4,16.89,9.1,34.19,15.48,52.89a19.4,19.4,0,0,0,2.2,3.91c2.13,3.25,5.07,7.69,1.33,12a5.08,5.08,0,0,1-3.92,1.75c-2.35,0-4.8-1.34-7.18-2.63a30.33,30.33,0,0,0-2.95-1.49c-6-2.47-12-5-17.9-7.52l-.2-.09c-13.35-5.66-27.12-11.5-40.91-16.51-10.73-3.9-22-7-32.88-10-5.13-1.41-10.41-2.86-15.6-4.38-28.39-8.32-52.22-12.2-75-12.2-3.53,0-7.08.1-10.55.29-3.07.17-3.71,1.55-4.43,4.65a.76.76,0,0,0,0,.35,5.13,5.13,0,0,0,2.07.91c.45.15.88.29,1.27.44,7.86,3.09,16.13,6.21,23.43,9,16.51,6.23,33.54,12.65,49.86,20,21.55,9.68,43,20.55,63.72,31q10.06,5.12,20.16,10.18c11.27,5.65,16.41,8.22,16.93,12.14.45,3.44-2.73,6.27-8.51,11.4a16.51,16.51,0,0,1-3.16,2,10.41,10.41,0,0,0-2.63,1.72c-15.23,16.26-33.48,28.45-50.93,39.2-8.19,5.05-16.34,10.5-24.23,15.77-9.68,6.49-19.68,13.17-29.87,19.19-12.1,7.14-24.82,13.56-37.12,19.78-5.23,2.64-10.56,5.33-15.76,8l-3.65,1.9c-15.1,7.86-30.73,16-46.16,23.84a19.53,19.53,0,0,1-1.9.79,9.74,9.74,0,0,0-2.06.95c.09.36.42,1.1,3,1.1.51,0,1.05,0,1.67-.09,13.36-1.36,26.33-5.48,38.87-9.46l.21-.07c2.23-.71,4.46-1.42,6.7-2.11,28.2-8.76,55.71-18.67,81.77-29.46,19.72-8.16,38.89-18.39,57.43-28.28l3-1.58c23.8-12.7,42.26-25.46,58.09-40.15a14.1,14.1,0,0,1,3.75-2.25c.54-.25,1-.48,1.5-.73l2.61-1.43.34,2.95c.06.53.13,1.05.2,1.57a36.56,36.56,0,0,1,.38,3.93c.05,2.46,0,4.93-.14,7.33-.19,4.87-.39,9.9.72,14.38,2.86,11.49,1.84,22.82.55,33.45a139.41,139.41,0,0,0-.72,15.26c-.08,7.52-.16,15.29-2.05,23-1,4-1,8.44-1,12.73a77,77,0,0,1-.49,10.49c-.58,4.21-1.06,8.51-1.52,12.66-1.1,9.92-2.24,20.14-4.8,30.12-2.48,9.66-3.76,19.87-5,29.75l0,.15q-.36,2.89-.73,5.77c-.59,4.63-.77,9.44-.94,14.1,0,1.37-.1,2.75-.16,4.11,3.35-.88,5.34-3.77,7.59-7.06l.28-.41a20.45,20.45,0,0,0,1.71-3.37l.38-.88c2.75-6.26,5.88-12.4,8.91-18.34,5.18-10.16,10.53-20.67,14-31.81,1.46-4.67,3.06-9.51,4.47-13.78,2.72-8.25,5.54-16.77,7.87-25.34.09-.3.15-.53.21-.78l.34-1.28,3.6.46V567.6l-.59.59c-16,15.78-34.21,30.95-59,49.17C900.31,618.91,898.65,619.63,897.19,619.63Z"/><path class="cls-3" d="M916.87,552l.09-1.22c.1-1.49.17-2.7.22-3.74a33.65,33.65,0,0,1,.45-4.73c1.21-6.33,2.55-12.76,3.85-19,2.75-13.18,5.6-26.78,7.33-40.25,2.65-20.65,4.5-43.31,5.84-71.31.87-18.3,1.78-37.22-1.43-55.67-1.37-7.89-4.53-12.79-8.23-12.79a7.35,7.35,0,0,0-4.22,1.67c-5.4,4-11.76,8.7-18,13.91-26,21.64-56.68,35.84-86.36,49.57l-.71.33-8.07,3.74c-14.91,7-30.6,12.78-45.78,18.42-4.87,1.81-9.69,3.6-14.5,5.43-6.14,2.34-12.5,4.36-18.65,6.31-2.86.91-5.65,1.79-8.42,2.71l-1.21.4-1.64-3.13,1-.77c7.69-5.8,16-10.23,24.12-14.53,4.13-2.19,8.38-4.45,12.45-6.84,20.81-12.28,41.71-25.12,61.92-37.54l.27-.17q11.12-6.82,22.23-13.63c20-12.2,37.29-28.38,54.06-44l1.59-1.48c4.38-4.1,6.21-6.95,5.92-9.24s-2.62-4.46-7-6.85l-4.85-2.66c-29.4-16.13-59.79-32.8-91.21-46.12l-5.08-2.16c-17.87-7.61-36.36-15.48-56.34-20.88l-1.15-.31.11-3.35,1.17-.23c1.66-.33,3.23-.78,4.76-1.22a27.42,27.42,0,0,1,7.22-1.39,10.15,10.15,0,0,1,2.09.2c12.12,2.48,24.3,5.45,36.09,8.31,4.59,1.12,9.12,2.22,13.65,3.29A493,493,0,0,1,873,264.57c16,6.55,34.15,14,52.4,20.27a12.37,12.37,0,0,0,4,.7,5.93,5.93,0,0,0,4.71-1.79c1-1.25,1.29-3.14.8-5.62a362.26,362.26,0,0,0-10.77-40,435,435,0,0,1-13-50.54l-1.87-9.66c-2-10.3-4.06-20.93-6-31.42-1.52-8.27-3-16.7-4.37-24.86-.66-3.82-1.3-7.54-2-11.27l-.38-2.19,2.22-.15,1.26-.09,1.52-.14.53,1.43c1.59,4.22,3.1,8.55,4.57,12.73,3.26,9.29,6.61,18.85,10.84,27.76,3.49,7.38,6.93,14.93,10.25,22.23l0,.1c7.66,16.84,15.58,34.24,24.73,50.7,3.43,6.18,6.16,9.8,8.59,11.39l.91.59V430.88l0,.15c-2.16,10.21-4.54,20.5-6.85,30.45l-.26,1.13c-6.72,28.94-17.56,57.29-34.13,89.22l-.57,1.09Z"/><path class="cls-4" d="M676.46,1146.57l-.55-.78a20.75,20.75,0,0,1-1.34-2.11q-6.6-12.57-13.27-25.12l-.15-.29c-11-20.7-22.32-42.11-32.95-63.48-9.31-18.72-18-38.59-25.85-59-2.37-6.17,1.06-11.52,4.08-16.25a35.5,35.5,0,0,0,3.68-6.73c2.25-6.31,4.26-8.88,6.93-8.88,2.93,0,4.67,3.32,6.51,6.83.5.94,1,1.9,1.5,2.75C639,997,648.63,1022.85,657,1047.26c1.21,3.54,2.28,7.19,3.32,10.71,3,10.24,6.1,20.79,12.82,29.47-.66-18.78-2.41-34.2-5.48-48.42-1.18-5.5-1.93-11.15-2.65-16.61-.57-4.3-1.16-8.72-2-13-2.65-14.37-5.52-28.36-11.27-41.51-1-2.22-2-4.44-3-6.66-3.24-7.05-6.58-14.33-8.49-21.93a3.15,3.15,0,0,1,.54-2.79c1.14-1.47,3.31-1.76,6.44-1.76l1.74,0,1.59,0a17,17,0,0,0,1.81-.07c3.36-.34,6.83-.81,10.18-1.26a164.07,164.07,0,0,1,21.39-1.92,62.64,62.64,0,0,1,9,.61,44.11,44.11,0,0,0,6.28.42c3.65,0,7.36-.36,11-.72s7.48-.74,11.3-.74a43.85,43.85,0,0,1,10.19,1.1,32.39,32.39,0,0,0,7.58.79c3.05,0,6.27-.29,9.37-.56s6.58-.58,9.86-.58c.6,0,1.2,0,1.79,0,1.09,0,2.17.05,3.25.05,1.44,0,2.87,0,4.3-.05s2.92,0,4.38,0a62.46,62.46,0,0,1,11.18.84,18.94,18.94,0,0,0,3.57.3,57.88,57.88,0,0,0,9.69-1.16c1.57-.27,3.17-.56,4.77-.78a7.4,7.4,0,0,0-1.38-2c-22.41-7.55-46.36-12.19-67.5-16.3-26.65-5.16-53.55-5.82-74-5.82h-2.4a7.05,7.05,0,0,1-2.79-.73c-.29-.12-.55-.24-.8-.32l-2-.66.75-2c.11-.28.2-.57.29-.85a9.28,9.28,0,0,1,1.12-2.55c6.94-10.17,14.37-20.23,21.56-29.94,6.07-8.21,12.3-16.63,18.18-25,4.13-5.91,8.82-11.41,13.36-16.72,5.28-6.19,10.74-12.59,15.27-19.61,7-10.82,16.11-20.41,24.93-29.68,4-4.25,8.19-8.61,12.06-13,11.58-13.16,24.73-25,37.46-36.42,3.55-3.19,7.58-6.81,11.39-10.3l.16-.15c2.48-2.28,3.72-4.07,2.19-5.9-.5-.6-.77-.6-.88-.6a6.78,6.78,0,0,0-2.73,1.36c-17.82,12.09-34.34,26.43-50.32,40.29l-6.66,5.77c-31.4,27.13-59.79,58.18-87.24,88.2l-7.17,7.84c-4.83,5.27-9.53,10.84-14.07,16.23l-.17.21q-3.21,3.79-6.43,7.57l-2.26,2.63-1.15-3.27a401.65,401.65,0,0,0-24-55.63c-14-26.31-30.79-50.58-43.88-68.79a63,63,0,0,0-8-8.54l-1.67-1.59a3.27,3.27,0,0,0-.51-.07c-.06.17-.13.34-.19.52-.39,1-1.18,3.06-1,3.62,7.86,14,14.16,29,20.24,43.43l.53,1.27C580,813.23,585.38,828.82,589.1,844c3.17,13,7.12,26,10.94,38.61l0,.13c1.67,5.53,3.41,11.25,5,16.88l1.33,4.56L602.27,902c-3.67-2-7.39-3.89-11-5.75-9.1-4.71-17.68-9.16-26.07-14.37-4.71-2.94-5.47-8.41-6.13-13.24-.23-1.63-.44-3.17-.78-4.56q-1.5-6.09-3-12.18c-2.94-12.2-6-24.81-9.55-37.09-3.28-11.3-5.33-23.09-7.32-34.5-1.06-6.07-2.15-12.34-3.42-18.47-1.59-7.74-3.36-15.58-5.08-23.16s-3.5-15.47-5.11-23.29c-2.37-11.48-4.55-23.18-6.66-34.51l-.07-.39q-1.05-5.62-2.11-11.25a9.63,9.63,0,0,1-.06-2.38c0-.28,0-.53,0-.79l0-2.82,2.65,1c.64.23,1.34.44,2,.64a18.46,18.46,0,0,1,5.15,2.11c18.63,12.44,35.27,23.95,50.21,38.74,25.14,24.88,44.77,51,60,79.93,2,3.82,4.66,5.82,6.23,5.82a1.12,1.12,0,0,0,1.05-.62c1.08-1.65,2.23-3.28,3.33-4.86,1-1.38,1.92-2.72,2.83-4.08,13.68-20.42,31.62-38.25,54.85-54.52,29.7-20.78,63.46-34.29,96.1-47.35l12-4.8c8.49-3.44,16.84-7.73,24.92-11.89,3.91-2,7.92-4.07,11.94-6a7.69,7.69,0,0,1,2-.6l.65-.14,2.33-.62.17,2.41c0,.27.08.56.13.85a6.2,6.2,0,0,1-.06,3.33c-2.78,7.12-5.46,14.36-8.05,21.37-6.2,16.73-12.6,34-20.47,50.3-12.81,26.5-29.72,53.79-51.71,83.44-3,4.1-6.09,8.31-9,12.39-10.72,14.83-21.77,30.12-35,43.43a22.45,22.45,0,0,1-3.62,2.79c-.67.45-1.34.89-1.94,1.35-2.43,1.89-1.89,3.29-1.71,3.75a3.61,3.61,0,0,0,1.8,1.62c30.5,2.44,58.52,8.77,83.27,18.8,27,11,46.46,21.38,63.06,33.81a4.65,4.65,0,0,1,1.56,3l0,1-.82.6c-.56.4-1.1.82-1.65,1.25a18.47,18.47,0,0,1-5.31,3.26c-4.35,1.49-8.77,3.11-13,4.68-11.47,4.21-23.25,8.54-35.3,10.93-4.33.86-8.74,1.84-13,2.78-13.95,3.08-28.37,6.26-43.21,6.26h-2.74a154,154,0,0,0-20.06,1.79c-3.19.42-6.77.9-10.23,1.25a10.38,10.38,0,0,1-1.12,0,23.45,23.45,0,0,1-5.92-1,20.56,20.56,0,0,0-4.86-.88,5.6,5.6,0,0,0-4.25,1.81c-5.27,5.3-4,11.78-2.58,18.63.33,1.62.63,3.13.85,4.63,2.87,19.78,0,39.12-2.76,57.82q-.66,4.41-1.29,8.83c-2.49,17.67-7.65,34.72-12.64,51.21q-1.41,4.68-2.81,9.37c-1.64,5.52-3.77,10.94-5.84,16.19-.59,1.49-1.17,3-1.73,4.42a7.65,7.65,0,0,1-2,2.65c-.26.25-.5.47-.71.71l-1.72,2Z"/><path class="cls-5" d="M529.28,1328.09c-9.29,0-13.23-6.51-16.71-12.25-.86-1.43-1.75-2.9-2.71-4.25q-5.7-8.1-11.46-16.18c-13.27-18.69-27-38-39.69-57.53-5.92-9.11-11.15-18.84-16.2-28.25-4.22-7.85-8.57-15.94-13.27-23.59-15.75-25.61-28.39-53.23-40.61-79.93l-.09-.21c-2.82-6.16-5.74-12.53-8.64-18.77-5.45-11.69-9.7-24.11-13.82-36.12-4-11.72-8.16-23.83-13.39-35.15-8.2-17.79-14.45-36.7-20-54.49-4.72-15.2-9.38-32.06-13.83-50.09-3.75-15.15-8.11-30.44-12.32-45.22-3.65-12.78-7.41-26-10.78-39.07-6.51-25.35-11.21-45-15.23-63.76-1.36-6.36-2.8-12.79-4.2-19-4.14-18.39-8.41-37.4-10.95-56.39-.68-5.1-1.39-10.18-2.1-15.27-2.66-19.2-5.41-39-6.62-58.84-.92-15.33-3.19-30.87-5.39-45.91-1.29-8.87-2.63-18-3.69-27.11-1.17-10.12-2-20.43-2.83-30.4-.54-6.57-1.09-13.33-1.73-20-1.63-16.93-3.34-34.13-5-50.76q-2.37-23.93-4.7-47.83c-.44-4.52-.78-9.1-1.11-13.52-.31-4.19-.63-8.51-1-12.74a4.16,4.16,0,0,1,.85-3.34,3.76,3.76,0,0,1,2.92-1.08l.94,0a29.19,29.19,0,0,1,6.73,1.05,25.45,25.45,0,0,0,5.77.95c16.65,0,33.56.55,49.91,1.07h.15c13.32.42,27.09.87,40.62,1,11.84.13,23.87.65,35.49,1.16l.37,0c5.92.26,12,.53,18.06.74q11.18.39,22.36.74c12.21.39,24.83.79,37.29,1.3,4.42.19,8.88.58,13.18,1,4.09.36,8.32.73,12.49.92,2.46.11,4.2.89,5.18,2.32,1.51,2.19.6,5,.05,6.61a8.46,8.46,0,0,0-.25.85c-1.13,10.22-.35,20.63.41,30.68.23,3.11.47,6.32.66,9.51.73,12.76,1.37,25.73,2,38.28v.19c.78,16,1.59,32.63,2.63,49l.66,10.81.05.76c1.34,22,2.73,44.75,5.53,66.9,3.54,27.9,8.47,56.12,13.23,83.41l1.88,10.78c3.77,21.68,8.11,43.65,12.31,64.9l1.76,8.93q1.3,6.6,2.58,13.21c3.23,16.66,6.58,33.87,10.61,50.61,2.51,10.38,5.52,20.84,8.42,31,3.22,11.2,6.54,22.77,9.22,34.32,5.7,24.68,11.14,46.83,19.86,68,3.34,8.12,6.42,16.47,9.39,24.55,4.31,11.72,8.77,23.82,14.12,35.4,4.26,9.24,8.41,18.76,12.43,28,4.69,10.77,9.55,21.91,14.62,32.67,9.18,19.47,19.92,38.63,30.3,57.17,3.25,5.79,6.5,11.58,9.7,17.39,4.54,8.22,9.45,16.44,14.19,24.39l.18.3q3.65,6.09,7.24,12.2,5.3,9.08,10.54,18.19l.08.13c7.09,12.28,14.43,25,21.91,37.28,10.6,17.44,22.42,36.19,37.19,59,.58.91,2.36,3.67,1.12,6s-4,2.14-5,2.14l-.9,0h-.39c-1.41,0-2.84,0-4.26,0-18.39,0-37,1.85-55,3.64-10.59,1.06-21.45,2.14-32.18,2.85-16.32,1.06-32.87,3.25-48.88,5.37l-.21,0c-8.61,1.14-17.52,2.32-26.3,3.31-5.77.65-11.66,1.06-17.37,1.46-10.88.75-22.06,1.53-32.6,4A25.87,25.87,0,0,1,529.28,1328.09Z"/><path class="cls-4" d="M656.62,1030.66a310.4,310.4,0,0,0-27.36-60.25,103.37,103.37,0,0,0-6.64-9.66c-1.64-2.21-3.32-4.47-4.86-6.78s-2.32-2.33-2.36-2.33-.9,0-2.48,3.22c-3.07,6.18-6,12.49-8.93,18.59l-.06.11q-2,4.16-4,8.36l-2,4.21-1.67-4.36c-.93-2.45-2-4.88-3-7.24-2.5-5.67-4.85-11-5.65-16.83-1-7,3.81-12.46,8-17.3,1-1.13,1.9-2.19,2.72-3.23,5-6.34,2-8.79-2.61-12.51a108.49,108.49,0,0,0-10.81-7.39c-1.6-1-3.17-2-4.72-3a26.51,26.51,0,0,0-2.56-1.41c-2.24-1.14-4.76-2.42-5.91-4.69a46,46,0,0,1-3.35-10.62c-.32-1.43-.66-2.9-1-4.3l-.56-2.07,2.1-.41a8.36,8.36,0,0,1,1.72-.17c3,0,5.25,1.58,7.23,3a16.59,16.59,0,0,0,2.94,1.81c3.62,1.56,7.1,3.48,10.46,5.34,2.35,1.3,4.78,2.65,7.2,3.83a22.78,22.78,0,0,1,3.6,2.36c1.82,1.36,3.39,2.53,5,2.53a4.66,4.66,0,0,0,2.77-1.09c2.4-1.77,1.91-3.37.11-6.86a16,16,0,0,1-1.53-3.65c-4.85-21.09-10.55-42.66-17.42-65.92-.56-1.9-1.08-3.82-1.6-5.74-2.17-7.95-4.41-16.18-9.63-22.93a6.69,6.69,0,0,1,2-10.31l1.82-1.15,1,1.89c3.13,5.81,6.3,11.59,9.45,17.36,7.41,13.55,15.08,27.56,22.13,41.6a166.28,166.28,0,0,1,6.93,16.79A149.67,149.67,0,0,0,630.51,887c1.58,3,2.79,3.79,3.21,3.79.61,0,1.75-1,3.74-5.62a9.27,9.27,0,0,1,1-2l2-2.52c9.55-12,19.41-24.37,30.22-35.7l1.63-1.71c11.81-12.39,24-25.19,37.44-37l1-.84,2.73,2.24-.64,1.1c-.89,1.53-1.72,3.2-2.52,4.81-1.83,3.68-3.72,7.48-6.61,10.44-13.52,13.8-24.75,29.78-35.62,45.24-3.16,4.51-6.44,9.17-9.76,13.76-1.55,2.14-3.06,4.4-4.51,6.58A130.09,130.09,0,0,1,646,900.43c-4.89,5.86-4.37,7.53-4.3,7.7.46,1,4.47,1.21,6.87,1.32,1.38.07,2.8.13,4.1.3,10.54,1.31,21.35,1.83,31.81,2.34s21.49,1,32.25,2.39c6.86.85,13.68,2.31,20.28,3.71a202.43,202.43,0,0,0,23.67,4.08l1.2.11.44,3.34-1.13.42a51.36,51.36,0,0,1-18,3,86.93,86.93,0,0,1-11.48-.83,110.17,110.17,0,0,0-14.5-.87c-7.21,0-14.55.54-21.65,1.06s-14.58,1.07-21.93,1.07H672c-4,0-8.15.33-12.15.66s-8.27.67-12.41.67c-1.91,0-3.68-.07-5.39-.22-1.35-.11-2.58-.17-3.65-.17-4.44,0-5.69,1-6,1.56-.82,1.38.18,4.59,3,9.82,14.42,26.22,21,55,25.48,79.75a15.29,15.29,0,0,1,0,4.16c-.09,1.12-.21,2.49-.3,4.35l-.07,1.25-3.44.46Z"/><path class="cls-4" d="M581.32,940.87c-2-5.29-4.07-10.75-6-16.23a5.17,5.17,0,0,1,.27-3.42,7.71,7.71,0,0,0,.25-.85l.46-2.27,2.18.79,1.08.38c.66.23,1.31.46,2,.71,6.85,2.78,10.8,6.43,11.74,10.86s-1.31,9.79-6.8,15.51l-2.19,2.29Z"/><path class="cls-4" d="M187.7,1618l1.28-2.82c2.22-4.9,5.19-11.34,8.53-17.64,3.47-6.54,3.29-9.42,2.53-10.68-.86-1.43-3.29-2.15-7.22-2.15-1.14,0-2.42.06-3.8.18-.66.06-1.31.09-2,.09a18.72,18.72,0,0,1-4.12-.44l-9.68-2.24c-13.1-3-26.63-6.13-39.89-9.47-2.79-.71-5.58-1.4-8.38-2.09-13.15-3.28-26.72-6.65-39.77-11-8-2.7-16-5.76-21.95-8.13l-1.27-.5v-82.83l1.64-.3a90.43,90.43,0,0,1,16.43-1.8c.75,0,1.49,0,2.24,0,10,.42,20.35.47,30.31.53,10.68,0,21.65.11,32.43.6,11.86.55,24.75,2.51,40.56,6.18a18.12,18.12,0,0,0,3.75.58c1.3,0,2.26-.34,3.32-2.09s.45-2.6-1.53-4.75a23.9,23.9,0,0,1-1.65-1.93,24.76,24.76,0,0,1-1.72-2.82c-.4-.7-.8-1.42-1.23-2.06-13.32-19.54-22.37-41.52-27.66-67.21-1.9-9.21-4.59-18.47-7.19-27.43-1.42-4.84-2.87-9.83-4.18-14.78q-1.44-5.36-2.9-10.7l-.05-.2c-3.26-12-6.63-24.34-9.31-36.66-1.32-6-2.16-12.27-3-18.3-1.26-9.46-2.58-19.24-5.77-28.07-2.33-6.44-4.24-13.15-6.09-19.63-4-13.89-8.05-28.24-16.44-40.5a4.91,4.91,0,0,1-.43-4c.43-1.5,2.32-1.9,3.26-1.9a2.76,2.76,0,0,1,1.39.35c1.31.77,2.74,1.52,4,2.18,3.45,1.82,7,3.69,9.82,6.46,6.88,6.79,14.52,13,21.91,19,3.11,2.52,6.25,5.07,9.3,7.63,20.45,17.17,41.93,35.84,60,58.72,6.64,8.38,13.57,16.72,20.28,24.78,12.18,14.63,24.77,29.77,36,45.65,3.88,5.5,7.7,11.16,11.39,16.64,4.52,6.72,9.16,13.63,13.95,20.26a21.68,21.68,0,0,1,1.89,3.4c1.47,3,2.42,4.76,4.92,4.76,3.5-.05,6.49-2,9.7-6.4a202.16,202.16,0,0,1,34.72-36.47l.73-.61C363,1344,379.71,1330.09,397.25,1318c15.88-11,31.92-21,48.91-31.54l.16-.1c7-4.38,14.31-8.9,21.51-13.47l3.58-2.27-.53,4.21c-.39,3.2-.72,6.35-1,9.4a170.87,170.87,0,0,1-2.7,19.32c-1.06,4.89-2.08,9.87-3.06,14.7l0,.12c-2,9.94-4.11,20.22-6.81,30.27l-1.75,6.57c-6,22.46-12.2,45.69-21.17,67.58-4.85,11.84-11,23.32-17,34.42-3.16,5.89-6.43,12-9.46,18a1.37,1.37,0,0,0,0,1.47,2.14,2.14,0,0,0,1.74.93h.17a153,153,0,0,1,15.77-.8c21.29,0,42.09,4.11,61.58,8.33l5.62,1.2c17.48,3.75,35.54,7.63,52.69,14.11q8.61,3.25,17.26,6.47l.8.3q8,3,16,6c1.43.54,2.82,1.17,4.16,1.78l1.94.87,2.49,1.08-1.78,2.06c-.4.47-.81,1-1.2,1.57a12.12,12.12,0,0,1-3.76,3.82l-8.7,4.75c-14.6,8-29.64,16.19-44.7,23.76-24.77,12.44-51.59,20.41-77.53,28.12l-1.14.34c-16.11,4.79-32.64,6.89-48.63,8.92l-.14,0c-5.57.71-11.33,1.44-17,2.28-11.61,1.73-23.51,2.61-35,3.46-3.49.26-7,.51-10.45.79l-1.28.15a23.66,23.66,0,0,1-2.8.22,6.42,6.42,0,0,1-6.36-3.86c-4.23-9.3-8.33-18.84-12.3-28.06l-1.62-3.76c-.54-1.23-1.29-2.93-.35-4.55a4.29,4.29,0,0,1,3.51-1.88l24.32-2.47c17.83-1.8,36.26-3.66,54.42-5.59,4-.42,8.1-1,12.05-1.6,5.81-.85,11.77-1.72,17.71-2.1a98.74,98.74,0,0,0,14.58-2.38c2-.43,4.25-.91,6.44-1.32,2.85-.52,5.74-1,8.54-1.45l.13,0c11-1.79,22.43-3.64,32.54-9.14l-.21,0c-2.47-.33-4.93-.69-7.39-1l-.35,0c-7-1-14.21-2.05-21.35-2.63-9.16-.74-18.28-.83-25.19-.83-3.68,0-7.36,0-11.05.06s-7.39.06-11.09.06c-8,0-14.24-.15-20.1-.47s-12-.63-18.14-.63a134.72,134.72,0,0,0-17.41,1,96,96,0,0,1-12.37.66c-1.76,0-3.53,0-5.31,0s-3.61,0-5.41,0c-6.71,0-14,.29-21.45,2.43l-5.15,1.48,2.92-4.49c3-4.63,6-9.32,8.68-13.47,6.45-10.07,12.53-19.57,19.14-28.92,5-7.08,10.36-14.08,15.54-20.84,6.53-8.52,13.24-17.28,19.27-26.25,13.95-20.8,27.15-42.61,39.48-63.17,1.22-2,2.46-4,3.7-6,6.92-11.23,14-22.78,16.6-36.06,0,0,0-.09,0-.14-11.3,9-20.5,20.45-29.39,31.5-3.14,3.9-6.37,7.91-9.69,11.82-14.71,17.31-29.28,35.21-43.37,52.52l-.11.14c-8.7,10.7-17.7,21.75-26.64,32.55-7.48,9-15.26,18-23.49,27.49l-.38.44c-3.92,4.51-8,9.2-12.26,14.17l-.83.95-3-1.79.45-1.18c1.54-4,.36-5.42-1.12-7.17a11.08,11.08,0,0,1-1.93-2.84l-2.79-6.68c-5.15-12.36-10.46-25.12-16.26-37.37-3.66-7.76-7.67-15.55-11.54-23.07-5.86-11.38-11.9-23.11-16.94-35.08-9.44-22.35-22.17-43.29-34.49-63.54l-2.1-3.46c-8.86-14.6-18.49-29.08-27.81-43.09l-.11-.17q-5-7.54-10-15.12c-.11-.17-.23-.35-.35-.55a7.37,7.37,0,0,0-1.49-1.91,6,6,0,0,0,.23,2.81l1.95,4.23c3.32,7.18,6.75,14.6,9.79,22.15,6.82,16.91,14.11,33.94,21.17,50.42,7.43,17.35,15.12,35.29,22.26,53.13,5.58,13.94,10.57,28.35,15.39,42.3,3.47,10,7,20.37,10.82,30.47s8.17,20.53,12.35,30.47c2.37,5.62,4.81,11.42,7.16,17.23a8,8,0,0,1,.29,3.84c0,.44-.08.85-.08,1.24v2.17l-2.17-.18-1-.09-.17,0-.94-.09-21.77-1.91-1.39-.13c-19.8-1.76-40.27-3.57-60.44-5.11-2.06-.15-4.23-.22-6.84-.22-2.15,0-4.35,0-6.48.1s-4.39.1-6.62.1a83.55,83.55,0,0,1-9.57-.47,276.3,276.3,0,0,0-67.13.53,2,2,0,0,0-.51.39,6.14,6.14,0,0,0,.72.37A80,80,0,0,0,84,1515.42c2.61.66,5.3,1.33,7.89,2.16,21.06,6.7,43.11,10.7,64.44,14.57l.2,0q6.57,1.18,13.11,2.4c8.4,1.58,16.89,3.44,25.11,5.24l-.21,1.49.32-1.47c18.41,4,37.45,8.21,56.6,9.39a24.58,24.58,0,0,1,8.12,2.46c1.11.49,2.23,1,3.3,1.35l2.44.87-1.46,2.15-6.62,9.75-.13.19c-4.8,7.07-9.76,14.39-14.71,21.54q-5.13,7.41-10.29,14.8t-10.3,14.79l-.59.86Z"/><path class="cls-4" d="M318.84,357.82c-2.59,0-5.22-.09-7.82-.25-12.34-.8-17.24-7.35-22.43-14.28-.41-.55-.82-1.11-1.24-1.66l-.38-.48c-.75-.95-1.65-2.09-1.23-3.55s1.72-2.14,3.59-2.83c6.87-2.51,13.65-5.69,20.2-8.75,3.93-1.84,8-3.73,12-5.48,22-9.47,45-16.69,67.3-23.67l.42-.13c6.11-1.91,12.43-3.9,18.63-5.89a18.18,18.18,0,0,1,3.75-.65c4.49-.49,6.14-1,5.83-4.25s-1.65-3.57-3.36-3.57a23.88,23.88,0,0,0-3.33.35,23.16,23.16,0,0,1-3.57.37h-.35c-4-.14-8-.22-11.92-.22a317.22,317.22,0,0,0-72.59,8.36c-14.14,3.32-26.76,6.64-38.05,13.52-3.49,2.12-6.1,3.11-8.23,3.11a5,5,0,0,1-3.92-1.71c-1.55-1.82-1.91-4.8-1.14-9.37s1.29-9.1,1.82-13.57c.72-6.12,1.46-12.43,2.75-18.57,2.64-12.5,5.69-25.11,8.65-37.31,1.59-6.58,3.24-13.38,4.81-20.12,4-17.32,8-35,11.83-52l.21-.91a29.55,29.55,0,0,1,1.23-3.78c.81-2.13,1.71-4.55,1.16-5.71-.07-.16-.3-.63-1.44-1a1.59,1.59,0,0,0-.5-.07c-2.46,0-6.27,4.56-8.15,8.65-3.8,8.25-7.78,16.54-11.63,24.56-8.18,17-16.64,34.64-23.66,52.57-5.12,13.06-9,26.73-12.76,40-2.34,8.23-4.76,16.75-7.48,25.12l-1.1,3.41-2.33-2.74c-1.35-1.59-2.65-3.26-3.9-4.87a66.07,66.07,0,0,0-8.61-9.68c-20.09-17.24-36.5-38.12-52.37-58.31-4.49-5.71-9.12-11.61-13.8-17.37q-4.49-5.52-8.91-11.08C133.33,177,119.36,159.54,103,144.74a1.83,1.83,0,0,0-1.23-.6,3.26,3.26,0,0,0-1.89,1l-.36.31a7.47,7.47,0,0,0,.48.94c4.68,8.21,9.22,16.64,13.62,24.8,5.91,10.94,12,22.26,18.47,33.11,7.13,12,14.93,23.86,22.48,35.35l.08.13c4.39,6.68,8.93,13.59,13.3,20.46,12.21,19.19,26.11,36.33,38.09,50.57l2.49,3-3.85.32c-1.83.16-3.64.24-5.4.31a55.69,55.69,0,0,0-10.58,1.13c-9.71,2.39-19.65,4.23-29.28,6-12.79,2.37-26,4.81-38.82,8.58A468.45,468.45,0,0,0,64.8,350.46L62,351.69V325.92l.89-.59c19.85-13.2,39-22.56,58.44-28.62a13,13,0,0,1,1.63-.33c.9-.14,3.27-.52,3.59-1.18.07-.16,0-.75-.58-1.85-2.23-3.86-4.84-7.64-7.36-11.29a136.73,136.73,0,0,1-9.2-14.61c-7.16-13.88-13.26-28-18.78-41.21q-1.66-4-3.34-8l-.07-.18c-6.26-14.89-12.73-30.29-17.79-45.9-2.89-8.91-5.3-17-7.36-24.65l0-.19,0-.26V90.4l2.74,1.09,4,1.57a158.41,158.41,0,0,1,15.67,6.79c28.46,14.86,56.09,34.38,84.45,59.68a521.73,521.73,0,0,1,52.22,54.23c.9,1.08,2,2.17,3.24,2.17a3,3,0,0,0,1-.18,4,4,0,0,0,1-.48c4.53-18.29,13.95-34.51,23.07-50.21l1.31-2.25c9.11-15.69,20.13-33.58,35.74-47.47,4.35-3.88,8.5-8.17,12.51-12.32,8.09-8.39,16.47-17.06,27-22.82l2.75-1.51.21,3.13c.37,5.78.28,11.58.2,17.19-.14,9.17-.29,18.65,1.66,27.87,1.66,7.86,2.62,16,3.55,23.8.5,4.25,1,8.64,1.65,12.93.95,6.55,2.2,13.19,3.41,19.61,3.69,19.67,7.51,40,3.65,60.87-.33,1.74-.07,3.71.58,4.49a.64.64,0,0,0,.59.29,2.58,2.58,0,0,0,.87-.2,61.85,61.85,0,0,1,22.89-4c9,0,18,1.57,25.68,3.11,19.93,4,39.81,9.76,59,15.32,7.19,2.07,14.61,4.22,22,6.26a3.8,3.8,0,0,0,.49.1c1.37.26,3.57.67,4.17,2.63s-1.13,3.74-1.7,4.31c-1.65,1.63-3.28,3.28-4.91,4.93l-.15.15c-5.07,5.13-10.31,10.42-15.9,15.21a277.31,277.31,0,0,1-56,37.12C377.4,345.4,350,357.82,318.84,357.82Z"/><path class="cls-4" d="M300.58,1618l-.47-1.34c-2-5.72-4.3-11.45-6.54-17-2.51-6.25-5.12-12.71-7.31-19.23-1.43-4.29-2.43-4.93-2.89-4.93s-2,.49-5.26,3.78c-7.76,7.82-14.53,16.69-21.08,25.27-3.19,4.19-6.49,8.52-9.9,12.71l-.6.74H224.44l2.44-3.21c6.8-8.94,13.1-18.47,19.19-27.69,7.71-11.65,15.65-23.67,24.71-34.67.12-.15.27-.33.44-.52a11.15,11.15,0,0,0,1.4-1.89,4.77,4.77,0,0,0-1.38-.41c-5.73-1.06-11.59-2-17.25-2.84-3.54-.55-7.56-1.17-11.42-1.82l-6-1c-10.45-1.75-21.17-3.54-31.68-5.54-20.49-3.91-42.38-8.21-68.88-13.54-7.44-1.5-14.94-3.18-22.2-4.81-3.38-.75-6.78-1.52-10.21-2.27l-1.2-.26.07-3.45,1.21-.21a100.41,100.41,0,0,1,17.45-1.38c6.37,0,12.8.43,19,.86s12.58.86,18.84.86c3.43,0,6.56-.13,9.57-.39,2-.18,4.11-.27,6.3-.27,10.76,0,22.14,2.14,32.18,4a94,94,0,0,0,16.64,1.12c6.8,0,13.81.11,20.78,2a40.86,40.86,0,0,0,10,1.62c3.66,0,6.25-1,7.91-2.9s-.36-5.47-2.27-8.92a42.35,42.35,0,0,1-2.43-4.86c-2.78-7.13-5.7-14.31-8.54-21.26-6.1-15-12.41-30.44-17.46-46.07-6.53-20.17-14.32-41.86-23.82-66.34-2.59-6.65-5.33-13.38-8-19.88l-.14-.36q-1.69-4.14-3.36-8.28l-1.79-4.41,4.4,1.81a14.27,14.27,0,0,1,7.75,7.19q3.69,7.44,7.4,14.87c8.93,17.92,18.16,36.44,26.89,54.83,4.62,9.75,9.15,19.68,13.53,29.28,7.28,15.94,14.79,32.41,22.83,48.25a17.19,17.19,0,0,1,1.19,4.36c.8,4.12,1.54,7,3.81,7,.79,0,2.23-.3,4.56-1.72,6.83-4.15,11.49-10.91,16-17.46,2.25-3.26,4.56-6.62,7.16-9.71,12.23-14.54,23.11-27.83,33.25-40.6,3.43-4.32,6.75-8.88,10-13.28a250.34,250.34,0,0,1,17-21.59c4.41-4.83,8.71-9.86,12.87-14.72s8.51-10,12.93-14.8a16,16,0,0,0,2.08-3.37c1.65-3.2,3.92-7.57,9.63-7.57.39,0,.81,0,1.25.07l1.24.13.27,3.47-1.21.32c-1.64.44-2,1.47-2.55,3.57a12,12,0,0,1-1.37,3.53c-4.24,6.59-8.51,13.31-12.63,19.81l-.07.1c-6.77,10.67-13.78,21.71-20.89,32.5l-3.34,5.06c-10.27,15.6-20.89,31.73-32.21,47a360.62,360.62,0,0,0-31.25,49.38c-.11.21-.29.85.11,2.58.57,0,1.22-.06,1.68-.09l.45,0c3.7-.22,7.42-.5,11-.78,7.57-.58,15.38-1.18,23.12-1.18h13.94c15.19,0,32.84.12,50.26,1.56,6.4.52,13.3.77,21.71.77,5.65,0,11.36-.11,16.87-.22s11.32-.21,16.95-.21h.92a18.9,18.9,0,0,1,3.19.39c.88.15,2,.35,3.49.57l1.28.2,0,3.58-1.28.18c-8.54,1.21-16.84,2.51-24.87,3.76l-.22,0c-17.84,2.78-34.68,5.41-51.71,6.82-8.53.71-17.19,1.67-25.57,2.6-17.08,1.9-34.65,3.84-52.13,3.84-1.65,0-3.31,0-5,0h-.13a4.69,4.69,0,0,0-3.75,1.78,1.8,1.8,0,0,0-.3,1.8c4.06,11.07,9,22,14.09,33.06,4.39,9.57,8.73,18.81,12.89,27.49l1.38,2.86Z"/><path class="cls-4" d="M62,356.88l1.21-.52c4.83-2.05,9.46-4.2,13.94-6.27,11.18-5.18,21.75-10.07,32.9-12.5,6.59-1.44,13.21-3.36,19.62-5.21,11.28-3.27,23-6.66,35.17-7.64a182.56,182.56,0,0,0,41.4-8.37c4.38-1.42,5.32-2.89,5.5-3.64.48-2.07-2.9-5.35-4.93-7.31a28.44,28.44,0,0,1-2.29-2.38c-15.78-19.31-29.72-40.33-43.19-60.65l-4.08-6.14c-8.56-12.89-16.5-26.46-24.19-39.58-3.12-5.33-6.31-10.77-9.49-16.08a4.77,4.77,0,0,1-.41-3c0-.59.08-1.4.08-2.48v-6l3.6,4.78c3.72,4.94,7.31,9.75,10.82,14.47l.07.1c7.91,10.6,15.35,20.59,23.09,30.41,10.23,13,20.48,25.28,30.49,36.55,13.85,15.61,28.34,31.08,42.35,46,2.45,2.62,4,3.17,4.83,3.17,1.58,0,3.07-2.26,4.19-6.36l1.32-4.82c5.53-20.22,11.24-41.12,18.88-61.21l2.28-6,.18-.46c5.73-15.2,11.66-30.92,19.56-45.6l.58-1.07,3.27,1-.1,1.22c-.89,11.56-3.93,22.75-6.87,33.58-1.26,4.62-2.55,9.38-3.65,14.09-.66,2.78-1.34,5.56-2,8.34-1.85,7.53-3.76,15.31-5,23-1.63,10-2.91,20.28-4.14,30.21-.65,5.24-1.32,10.65-2,16-.42,3.13-.12,5.38.85,6.49a3.62,3.62,0,0,0,3,1.05,21.69,21.69,0,0,0,6.59-1.47l7.2-2.59.68-.24c19.87-7.15,40.41-14.55,62.42-17.45l3.56-.47c13.34-1.78,27.14-3.61,40.93-4.07l1.31,0,.61,3.56-1.25.39q-7.51,2.34-15,4.62c-11,3.35-22.29,6.82-33.36,10.55a291.76,291.76,0,0,0-58.22,26.85c-3.25,2-4.94,3.95-5.16,6-.38,3.7,3.93,8.29,8.21,12.29l4,3.74L229,352.56l.46-2.27a16,16,0,0,1,2.24-4.93c2.15-3.58,2.07-4.16.8-5.1a12.83,12.83,0,0,0-7.87-2.33,25.47,25.47,0,0,0-9.18,1.91c-12.47,5-25.61,6.87-38.31,8.7l-.89.13c-7.31,1.05-14.74,2.26-21.92,3.42-20,3.26-40.72,6.61-61.48,7.18-6.29.18-12.46.58-19.61,1.05l-.53,0c-2.74.18-5.58.37-8.56.55L62,361Z"/><path class="cls-3" d="M280.05,996.32a6.42,6.42,0,0,1-4-1.62c-2.91-2.3-4.3-6.13-5.64-9.84-.39-1.08-.78-2.17-1.2-3.16-9.94-23.67-19.32-49.53-20.57-78.22-.19-4.34-.44-8.75-.69-13-.64-11-1.3-22.44-.91-33.74.07-2.12-.27-3-1.47-3.64a1,1,0,0,0-.48-.17c-.19,0-.71.5-1,.79a8.64,8.64,0,0,1-1.58,1.28c-4.53,2.66-9.05,5.36-13.56,8.06-16,9.56-32.57,19.44-49.69,27.84-20.4,10-42.92,17.3-68.84,22.3-3.24.63-6.55,1.34-9.76,2-10.63,2.29-21.52,4.64-32.62,4.64-1.41,0-2.82,0-4.17-.11L62,919.63V903.71l.31-.49c11.82-18.64,27.16-34.72,42-50.26,3.9-4.08,7.92-8.29,11.82-12.5,7.32-7.89,15.93-14.73,24.25-21.35,3.91-3.11,7.94-6.32,11.81-9.61q5-4.25,10-8.46l.61-.51c11.1-9.41,22.55-19.1,33.46-29,1-.88,1.17-1.45,1.14-1.65-.14-.91-2.84-2.2-4-2.75l-.54-.26c-9.19-4.48-18.7-8.64-27.91-12.66-15.95-7-32.45-14.18-47.83-23.32S89.09,709,77,696.67c-4.65-4.73-9.46-9.63-14.38-14.25l-.63-.6v-3.65l1.27-.5c18-7.1,36.95-10.55,58-10.55,4,0,8,.12,12.13.37,2.68.17,5.36.31,8,.46l.36,0c18.57,1,37.77,2.06,56.15,8.65a10.81,10.81,0,0,0,3.54.75,2.62,2.62,0,0,0,2.1-.75c1.52-1.61,1.27-5.86,1.13-8.4-.05-.77-.09-1.45-.09-2-.17-25,6.69-47.88,17-74.55,2.74-7.08,6.55-13.56,11-21.07,2.15-3.66,4.37-7.45,6.67-11.64l3.08-5.64.66,6.4q1.46,14.1,2.82,28l0,.22c4.94,49.51,9.6,96.27,18.6,143l.45,2.34-2.37,0h-1.34c-12.55,0-24.65-3.29-36.35-6.47-4.18-1.14-8.43-2.29-12.63-3.28-6.11-1.45-12.41-2.66-18.5-3.83-6.58-1.27-13.39-2.58-20-4.2-12.77-3.09-25.54-7-37.88-10.7l-1.32-.4c-.4-.13-.86-.27-1.19-.34a4.1,4.1,0,0,0,.55,2.65c12.55,9.94,27.08,17.12,41.13,24.07l.1,0c4.49,2.23,9.14,4.52,13.67,6.89A275.35,275.35,0,0,0,214.55,749c7.14,2.84,14.49,5.75,21.54,9.14a34.54,34.54,0,0,0,8.16,2.28c1.33.26,2.71.53,4.06.86,5.66,1.38,8.58,3.3,9.19,6,.82,3.66-3,6.75-6,9.22-.61.5-1.19,1-1.68,1.4-15.86,14.15-32.24,28.77-49.38,42C187.57,829.75,174,839.09,161,848.12c-5.48,3.78-11.69,8.07-17.59,12.22L134,867c-3.5,2.49-7,5-10.5,7.45a12.13,12.13,0,0,1-1.33.76l-.59.3a1.64,1.64,0,0,0,1.33.46,5.13,5.13,0,0,0,1.59-.28c22.74-7.34,44.72-18,64.12-27.47,13.86-6.74,27.11-15.26,39.92-23.5l.47-.31,5.54-3.55a291.62,291.62,0,0,0,37.83-29.19,7.33,7.33,0,0,1,2.27-1.27c.27-.11.5-.2.72-.31l2.22-1.1s.78,3.07.86,3.4c.13.56.26,1.1.42,1.64q2.36,8.49,4.74,17c3.52,12.56,7.15,25.5,10.55,38.29,2.42,9.12,4.72,18.43,6.94,27.43,1.62,6.59,3.29,13.36,5,20,.19.76.38,1.53.58,2.3a70.43,70.43,0,0,0,4.2,13.09c4.7,9.93.92,18.66-2.41,26.36-.9,2.09-1.83,4.24-2.55,6.31-5.43,15.7-13.32,31.25-19.65,43.74a10,10,0,0,0-.41,1.18C285.09,992.18,283.79,996.32,280.05,996.32Z"/><path class="cls-4" d="M250.4,1618,264,1601.26q6.75-8.33,13.5-16.64c.17-.21,1.73-2.08,3.21-2.08h.58l.58.35,0,0a7.61,7.61,0,0,1,2.82,3.14,86.18,86.18,0,0,1,3.52,9.55A38,38,0,0,0,291,1602c2.25,4.5,4.82,9.6,3,14.7l-.47,1.34Z"/><path class="cls-3" d="M167.31,850l1.13-.79c22.56-15.56,43.73-33.38,64.21-50.61l6.45-5.42c6.26-5.25,12.26-11.08,18.07-16.71,2.85-2.77,5.8-5.63,8.77-8.42a17,17,0,0,1,2.36-1.76l.9-.6,2.57-1.82.55,3.1c.07.38.11.77.15,1.17a5.13,5.13,0,0,0,.27,1.45c7.17,13.52-1.38,19.87-8.93,25.48-1.28.94-2.59,1.92-3.78,2.9-20.63,16.86-43.87,30.37-66.34,43.43L190,843.54A125.42,125.42,0,0,1,176.58,850l-.16.06c-2,.86-4,1.74-6,2.65l-1.25.57Z"/><path class="cls-3" d="M262.57,760.94a22,22,0,0,1-7.36-1.83l-.1,0c-.53-.19-1.05-.39-1.55-.56-4-1.38-7.95-2.73-11.93-4.09l-.38-.13c-12.49-4.26-25.4-8.66-37.89-13.63-8.35-3.33-16.49-7.44-24.37-11.42l-.11-.06c-3.43-1.73-7-3.52-10.47-5.21l-1.36-.66.91-5.19,2.08.52,9.48,2.39c6.8,1.72,13.82,3.5,20.75,5.13,12.25,2.89,25.33,5.94,38.61,8.7,3,.64,6.22,1.07,9.3,1.49,5.31.73,10.77,1.47,15.9,3.24,5.87,2,6.88,11.09,5.75,15.17C268.42,759.86,265.1,760.94,262.57,760.94Z"/><path class="cls-4" d="M162.73,508.85c-.77,0-2.66-.31-3.39-3.21a80.69,80.69,0,0,1-2.17-18.37c-.14-11.62,1-24,3.58-38.84,3.1-17.83,7.72-35.33,11.81-50.34a23.39,23.39,0,0,1,1.55-3.79c1.65-3.43,2.49-5.49.41-7.84a2.67,2.67,0,0,0-2.15-1,12.27,12.27,0,0,0-3.36.75c-.67.22-1.34.43-2,.6-21.67,5.5-45,10.59-69.07,10.59-2.85,0-5.73-.07-8.53-.21l-7.64-.37c-5.89-.27-11.94-.55-17.91-1L62,395.64V362.9l2.24.27c1.79.21,3.57.52,5.29.83a51,51,0,0,0,8.73,1A19.76,19.76,0,0,0,82,364.7c6.28-1.22,12.78-1.31,19.06-1.41a137.64,137.64,0,0,0,14.38-.71c10.56-1.26,21.25-3.09,31.59-4.86,4.46-.77,8.89-1.52,13.33-2.24,3.42-.56,6.85-1.09,10.28-1.62l.29,0c8-1.24,16.31-2.51,24.35-4.14,6.63-1.34,13.13-3.1,20-5l.24-.07c3-.81,6-1.63,9.14-2.44l4-1L227,344.93c-1.23,2.86-2.36,5.6-3.46,8.25-2.3,5.57-4.47,10.82-7.08,15.83-14,26.91-23.67,55-33.18,83.83-.43,1.29-.17,3,.1,4.88l.06.45.14,0c1.39-.38,3-.8,3.54-1.49,5.85-6.85,11.26-14.05,16.29-20.84,5.3-7.16,10.63-14.54,15.79-21.68l.07-.1c2.48-3.44,4.93-6.83,7.4-10.23l3.62-5V405c0,.91,0,1.77,0,2.59,0,1.65-.05,3.06,0,4.44a88,88,0,0,0,1.47,9.93c1.42,7.63,2.89,15.52-.3,21.17-14.75,26-36.38,47.25-64.3,63.08l-.22.21C166,507.39,164.54,508.85,162.73,508.85Z"/><path class="cls-4" d="M195.23,433.56c.38-8.86,4-15.93,7.51-22.77a82.71,82.71,0,0,0,5-11c2.83-8.35,6.51-16.51,10.06-24.41,1.22-2.69,2.41-5.34,3.58-8a7.37,7.37,0,0,1,2.54-2.8c.33-.26.64-.49.91-.74l2.6-2.42,1,4.75c.17.82.33,1.59.48,2.36,3.9,20.19-6.91,35.4-16.45,48.82-2.79,3.93-5.8,7.69-9,11.68-1.51,1.88-3.06,3.81-4.64,5.84L195,439.79Z"/><polygon class="cls-2" points="6 8.83 58 60.83 58 1619.17 6 1671.17 6 8.83"/><path d="M248.43,365.07c-4.17,0-8.34-2-12.5-2-1.48,0-3-.35-2.72,2.21.83,8.75,1.29,17.52,2.14,26.26,3.18,32.87,6.52,65.72,9.69,98.59,1.62,16.77,2.62,33.6,4.56,50.33,2.84,24.4,7.61,48.66,9.09,73.13,1.51,24.88,5.42,49.38,8.7,74,3.39,25.34,9.77,50.23,15.13,75.26,4.58,21.37,9.78,42.55,15.21,63.68,7.25,28.22,16.11,56,23.1,84.31,4.15,16.8,8.74,33.69,13.8,50,5.63,18.13,11.74,36.6,19.88,54.24,10.63,23,16.49,48.28,27.2,71.27,15.51,33.3,29.88,67.23,49.23,98.7,10.4,16.91,18.64,35.18,29.45,51.8,16.29,25,33.89,49.23,51.11,73.65,5.58,7.92,8.3,18.42,23.13,15,16.28-3.78,33.45-3.59,50.2-5.48,25.17-2.84,50.24-7.07,75.48-8.72,30.55-2,60.89-7,91.62-6.46,1.83,0,7,.57,3.41-5-12.64-19.54-25.13-39.19-37.22-59.07-11.16-18.36-21.71-37.09-32.55-55.63-7.21-12.32-14.74-24.45-21.63-36.93-13.65-24.74-28-49.16-40.06-74.68-9.42-20-17.82-40.64-27.06-60.65-9.08-19.66-15.36-40.17-23.54-60-9-21.92-14.6-45.13-20-68.32-5.08-21.94-12.35-43.37-17.63-65.26-5.1-21.14-9-42.56-13.21-63.9-4.85-24.6-9.79-49.19-14.08-73.88-5.45-31.36-11.12-62.72-15.12-94.28-3.3-26-4.61-52.36-6.26-78.59-1.84-29.14-2.94-58.33-4.62-87.48-.78-13.51-2.56-26.94-1.06-40.55.17-1.57,3.58-7.24-3.08-7.54-8.56-.39-17.09-1.52-25.66-1.88-19.87-.82-39.76-1.34-59.64-2-18-.63-35.91-1.73-53.87-1.92C308.87,366.84,278.65,365.07,248.43,365.07ZM1024,8V1672a8,8,0,0,1-8,8H8a8,8,0,0,1-8-8V8A8,8,0,0,1,8,0H1016A8,8,0,0,1,1024,8Zm-8,1658.34V13.66l-48,48V1618.34ZM962.34,56l48-48H13.66l48,48H962.34ZM13.66,1672h996.68l-48-48H61.66ZM960,1616v-97.7a280.77,280.77,0,0,1-22.36,26.27c-21.19,22.3-44.09,43.29-73,55.74-16.79,7.21-13.09-8.35-13.14-14.39-.18-20.92-3.07-42,1.48-62.83,5.44-24.88,11-49.71,24.94-71.67,2.42-3.81-1-4.05-3.78-4.16-18.49-.73-37.26.23-55.4-2.73a398.73,398.73,0,0,1-65.83-17.08c-20.35-7-40.24-14.3-56.83-28.45-5.08-4.34-4.95-8.6.18-13.7,12.3-12.2,25.53-23.19,40.88-31.11,30-15.52,61.87-25.68,95.61-29.14,7-.72,14.07-.32,21.1,0,4.43.18,6.15-.51,3.12-4.88-19.89-28.75-29.33-61.68-38.17-94.91-5.82-21.89-10-44-13.82-66.37-4.29-25.48-5.82-51.07-6.38-76.8,0-2.33-.81-5.22-2.33-6.79-2.61-2.7-.54-3.78.95-5.17,2-1.85,3.88-1.72,6.14,0,27.87,21.47,53.64,45.17,75.74,72.61,13.64,16.92,26.46,34.23,37.39,53.38,8.85,15.52,20.12,30.17,30,45.42,5.05,7.81,8.77,16.54,12.44,25.13a6.73,6.73,0,0,0,1.15,1.93v-242a38.2,38.2,0,0,1-4.11.24c-6.45.12-8.47-6.24-8.72-11.27-.44-9,5.23-12.43,12.83-12.46V578.48q-3.22,2.92-6.62,5.73c-12.25,10.1-24,21-36.93,30.28-6.65,4.77-13.32,11.21-20.81,12.67-9.57,1.86-6.46-9-8.4-14.09-5.34-14-6.38-29-9-43.66-4.32-24-4-48.11-2.73-72,.7-13.34.82-27.56,7.25-40.23.41-.82-.26-2.17-.42-3.28-1,.22-2.26.15-3.07.7-24.64,17-53,25.43-81,34a306.73,306.73,0,0,1-66.67,12.7c-16.27,1.2-32.48,3.53-48.62,5.93-23.48,3.49-46.7,1.24-69.95-2-5.43-.75-13.56,2.17-15-4.64-1.39-6.58,4.91-12.37,8.74-18,16-23.59,33.51-46.17,53.41-66.51,16.51-16.86,35.32-31.34,54.53-45.16,16.18-11.64,31.9-24,48.61-34.84,12.57-8.16,24.71-17.48,40.45-21.64C779,303.46,755.83,292,734.92,276.74c-15.57-11.38-30.35-23.82-45.51-35.75-11.1-8.73-22.62-17-33.13-26.37-2.74-2.45-7.09-7.87-.26-12.69,15.8-11.14,34.26-11.87,52.31-15.43,20.68-4.09,41.21-3.89,61.93-3.54,26.21.44,51.68,5.67,77.11,11.54,6,1.37,12.11,1.77,17.85,4.27,1,.44,5.34,1.73,2.7-2.84-1-1.73-1.07-4-1.59-6-4.46-17.44-8.56-35-13.48-52.31C846,113.49,844.21,88.73,842.23,64h-94.6a8.12,8.12,0,0,1,5,8.67c-1.09,8-3.23,17.22-14.92,18.18-4.66-1.48-12-1.26-11.55-9.22s3.07-15,10.58-17.63H569c1.75,1.91,2.82,4.71,3,8.79-.36,9.1-7.13,12.86-15,13.21a10.14,10.14,0,0,1-10.58-10.23c-.1-4.32-.16-8.79,2.12-11.77H400.3a9.8,9.8,0,0,1,4.34,8c.05,6.34-3.2,13.06-12.1,10.9-5.78.65-10.42.23-9.63-7.29.43-4.12,1.22-8.82,3.57-11.64h-117c-.56,5.83-1.17,11.57-9.55,11.57-5.87,0-11.44-3.09-11.49-10.1,0-.48,0-1,0-1.47H64V82.34c24.71,10.14,48.42,22.49,69.47,38.92,20.5,16,41.95,31,58.73,51.6,9.27,11.4,21.41,20.48,29.71,33.07,12.92-33.29,30.14-63.92,54.61-90a353.84,353.84,0,0,1,53-46c3.18-2.26,3.55,0,4.65,2.4,4.22,9.2,2.4,19.11,2.44,28.41.09,19.52,3.77,38.5,6.93,57.44,2.07,12.44,3.73,25.09,6.68,37.53s.87,26,.77,39.08c0,3.19.73,4.77,4.1,4.14,24.17-4.51,47.1,2.4,70,8.23,18.75,4.79,37.2,10.89,55.47,17.3,4.88,1.71,8.32,6.5,3.44,12.62-23,28.8-52,49.87-85,65.77-11,5.3-22.06,10.42-32.94,15.55,14.62.83,29.68,1.92,44.76,2.48,23.31.88,46.64,2,70,1.86,15.47-.07,10.41,10.56,10.82,18.26.78,14.84.87,29.72,1.6,44.56,1.09,21.79,3.37,43.48,4.28,65.32,1.25,30,5,60,8,90,2.14,20.88,5.83,41.62,7.3,62.53,1.11,15.76,14.78,15.53,23.64,21.27,29.14,18.88,54.32,41.49,75.14,69.7,10.61,14.37,19.13,29.75,28.77,44.56,1.45,2.23,5-1,8.53-7.62,7.31-13.56,19.09-22.75,30.09-33.13,9.61-9.06,19.26-17.81,30.45-24.31a570.82,570.82,0,0,1,84.65-40.72c22.16-8.36,45.06-14.92,63.12-31.47,1.8-1.65,4.65-1.3,6.88.42,2.53,1.94,2.7,3.5,1.44,6.95-6.58,18-11.47,36.65-18.7,54.36C835.55,730.94,823,758,806.32,782.81c-13.71,20.48-27.86,40.57-43.24,59.94-8.68,10.93-17.1,22-26.77,32.09a3.54,3.54,0,0,0-.73,1.73c1,.61,2,1.48,3.1,1.48,24.2-.07,46.85,7.93,69.05,15.62,17.84,6.18,34.26,16.7,50.83,26.16,8.06,4.6,15.17,11,22.38,17,2.14,1.78,5,3.1-.82,6.85-19.84,12.84-42.47,17.84-64.25,24.83-15.07,4.83-31.27,6.66-47.12,8.37s-31.82,3.19-47.46,1.7c-12-1.16-6.74,5.86-5.93,9.31,5.51,23.69,2.95,47.13-1.33,70.54-2.88,15.75-5.31,31.65-10.94,46.77s-10.81,30.32-17.19,45c-3.36,7.75,1.76,13,4.46,17.83,10.28,18.18,20.88,36.26,31.82,54,10.07,16.31,20.56,32.45,29.69,49.29,4.27,7.88,11,14.33,13.88,22.61,5.67,16.49,1.62,20.67-18.49,22.19-28.84,2.19-57.69,4.31-86.48,7-22.84,2.17-45.61,5.14-68.4,7.92-20.65,2.52-41.26,5.5-61.94,7.85-12.33,1.4-17.87-8.75-24.12-16.36-8.66-10.55-16.22-22-24.13-33.19a85.8,85.8,0,0,1-4.46-8c-1.53,11-2.86,22.17-4.7,33.26-3.5,21.09-9.53,41.55-15.17,62.15a383.17,383.17,0,0,1-17,50.14c-5.52,12.89-13.11,24.89-19.76,37.3-.67,1.26-1.2,2.59-1.8,3.89a21,21,0,0,0,3.63.73c29.73.6,58.42,6.89,87.36,13.44,27.54,6.22,52.8,17.32,78,28.9,10.59,4.87,8.84,11.83-3.9,19.32-14.51,8.53-28.5,18.12-43.63,25.33-25,11.92-50.71,22.23-77.65,29.34-17.16,4.52-34.27,9-52,10.54-24.84,2.21-49.47,7.32-74.62,5.3-2.56-.21-3.63-.54-1.84,3.08,1.94,3.89,3.77,7.85,5.52,11.84H654.62a16.34,16.34,0,0,1-.48-3.8c0-6.42,1.68-13.27,8.43-12.87,10.45.06,13.89,5.23,14.3,12.14a20.11,20.11,0,0,1-.22,4.53H778.09c1-7.91,9.08-10.44,16.41-10.84s7.87,5.66,8.34,10.84Zm0-114.07V1432.1c-.34-.76-.68-1.52-1-2.28s-.9-1.63-1.35-2.44c-.83,1-2.15,1.86-2.41,3-4.16,17.8-14.27,32.84-22.92,48.44S913.61,1509,904,1523.87a43.89,43.89,0,0,1-7.24,8.23c-.85.77-3,.47-4.41.12-.56-.14-1.26-1.89-1-2.67,6-21.18,10.11-42.88,19.15-63.24,7.07-15.91,11.84-32.86,19-48.73,2.57-5.68,4.89-11.58,7.81-17.07,2.34-4.41.44-3.26-2.28-3.26-21.55,0-43.23,1.36-64.61-.55-28.17-2.53-56.1-7.66-84.14-11.66-2.18-.31-3.61-1.79-3.18-3.69.88-3.95,4.64-5.71,7.86-6.24,14.54-2.35,29.18-5.71,43.78-5.71,18.91,0,37.48-4.35,56.48-2.66,12,1.07,24.24.16,36.37.22,2.31,0,4.33-.26,3.13-3.17Q917,1330.36,903.05,1297q-19-45.33-38.15-90.59c-5.57-13.22-11-26.49-16.75-39.63-1-2.3-1.84-4,.83-5.35s4.68-.18,5.87,2.06c13,24.33,28.71,47.06,40.65,72,12.21,25.51,25.78,50.37,38.59,75.6,5.62,11.07,10.79,22.38,16.26,33.54a50.11,50.11,0,0,0,3.34,5.18c2.1-3,4.31-5.93,6.31-9v-58.81c-1.27,0-2.31-1.06-3-2.59-12.58-29-32-53.74-48.29-80.45-14.76-24.25-32.27-46.44-50.81-67.27-15.25-17.13-31.67-34.14-50.84-47.62a8.63,8.63,0,0,0-1.55-.67c-.16,2.94-.7,5.92-.39,8.82,1.15,10.94,3.07,21.82,3.81,32.79,1.78,26.46,7.9,52,13.62,77.83a518.23,518.23,0,0,0,26.64,85.41c5.38,13,12.17,25.55,19,38,4.39,8-7.62,6.31-10.56,6.27a234,234,0,0,0-58.29,6.87c-26.64,6.51-52,17.16-74.68,33-7.86,5.47-15,11.93-22.55,17.88-1.35,1.07-3,1.72-.57,3.44a183.55,183.55,0,0,0,54.36,25.2c18,5.15,35.88,11.17,54.15,15.24,13.11,2.92,26.77,3.5,40.22,4.69,11.47,1,23.38-.19,34.37,2.52s.9,10.44-.55,13.2c-11.1,21.05-17.5,43.25-21.3,66.63a315.78,315.78,0,0,0-3.65,56.25c.09,5.07,1.56,10.13,2.44,15.44,30.36-14.14,52.94-37.69,75.69-61.24C946.09,1522.58,953.05,1512.25,960,1501.93Zm0-85.6v-61.89c-1.56,2.38-3.16,4.73-4.93,7-3.14,4-5.89,1.37-7.52-2.14-9.15-19.78-17.84-39.78-27.47-59.32-10.53-21.39-21.93-42.35-32.88-63.53-.55-1.07-.46-2.47-.68-3.72-.64,7.55,3.65,13.46,6.39,20,9,21.42,17.4,43.09,26.18,64.6,7,17.25,14.33,34.38,21.45,51.59,1.66,4,1.25,6.36-4.22,6.28-19.14-.25-38.32-.74-57.43.06-22.31.93-44.58,3.11-66.58,4.73,8.79,1.6,18,3.7,27.24,4.9a549,549,0,0,0,85.7,4.17c3.88-.11,7.54,1.39,11.81.31,2.93-.74,8-.67,9.89,3.48,1.64,3.65-1.17,6.7-2.55,10q-11.88,28.59-23.27,57.38c-4.89,12.43-9.32,25-13.81,37.63-.51,1.43-.07,3.21-.07,5.44,14.39-19.6,25.41-40.51,36.39-61.3,3.86-7.32,7-15.16,11.42-22.3C956.64,1417.12,958.37,1415.82,960,1416.33Zm0-849.56V466c-.07.27-.14.53-.22.8-3.62,13.3-8.27,26.12-12.36,39.2-5.57,17.83-15.57,33.46-23,50.35a27.5,27.5,0,0,1-2.27,4.58c-2.87,4.18-5.67,8.56-11.63,8.62.38-6.92.35-13.9,1.23-20.75,1.56-12,2.78-24.22,5.78-35.91,3.6-14,4.33-28.36,6.28-42.55,1.07-7.74-.31-15.95,1.52-23.43,3.09-12.61,1.19-25.37,2.72-38,1.3-10.7,2.25-21.67-.5-32.73-1.74-7-.48-14.74-.64-22.14,0-1.78-.37-3.55-.57-5.32-1.63.89-3.53,1.48-4.85,2.7-17.57,16.3-37.38,29.17-58.51,40.45-19.9,10.61-39.73,21.32-60.57,29.94q-40.26,16.67-81.94,29.52c-15.24,4.73-30.19,10.09-46.17,11.72-2.76.28-6.19.16-6.82-2.56-.57-2.47,2.92-2.91,5-4,16.65-8.48,33.22-17.11,49.8-25.73,17.64-9.17,35.68-17.67,52.78-27.76,18.46-10.9,35.8-23.69,54.07-34.94s35.79-23.14,50.52-38.86c1.57-1.68,4.17-2.34,5.92-3.89,11.56-10.26,11.6-10.44-8-20.25-27.83-13.94-55.43-28.45-83.8-41.2C769.87,253.18,745,244.6,720.57,235c-2-.77-5.18-1.13-4.52-4s1.62-5.94,6.27-6.2c29.55-1.63,58.07,3.74,86.21,12,16.22,4.76,32.75,8.64,48.6,14.4,20,7.26,39.41,16,59.09,24.15,3.91,1.61,9.1,6,11.78,2.9,4-4.56-2.35-9.32-3.91-13.91-6-17.49-11.23-35-15.54-53.08-5.1-21.37-7.35-43.17-12-64.48-3.7-16.74-4.22-33.77-7.64-50.42-1.39-6.81,2.22-13.18,6.88-13.7s5.63,7.91,6.92,12.22c4.87,16.26,12,31.47,19,46.81,10.49,23.14,20.88,46.32,31.52,69.39,2.06,4.47,4.39,8.84,6.83,13.13V120.52c-3-4.46-6.18-8.86-9.45-13.14-11.08-14.48-22.09-29-33.3-43.38H851.61c1.47,23.94,5.85,47.44,11,71,5.31,24.08,10.76,48,19.74,71,1.07,2.71-6.16,4.52-11.81,3.08-10.71-2.73-21.35-6-32.23-7.76-22.24-3.58-44.39-7.76-67.08-8.45A317.57,317.57,0,0,0,695.94,199c-8.46,1.78-16.89,3.8-25.19,6.18-2.73.79-5,3.09-7.51,4.7,2.16,2.3,4,5,6.53,6.85,23,17.15,45.73,34.7,69.29,51a369.86,369.86,0,0,0,63.8,35.45c5,2.17,13.33,4.93,12.16,10.5-1.52,7.24-10.8,9.55-17.08,12.86-23.09,12.14-43.89,27.62-64.72,43-16,11.83-32.15,23.52-46.94,36.73a391.43,391.43,0,0,0-49.57,53.1q-12.65,16.44-25.59,32.64c-2.48,3.1-3,5.09,1.7,5.84a43.46,43.46,0,0,0,6.55.95c21.63.07,43.36,1.32,64.87-.29,25.7-1.93,51.51-4.91,76.74-10a479.1,479.1,0,0,0,91-28.11c11-4.68,20.16-12.49,31.23-16.78a7.42,7.42,0,0,1,5,.19c1.8.73,2.07,2.48,1.78,4.61-1.78,13.25-2.76,26.65-5.11,39.79-3.87,21.62-1.62,43.19.44,64.6,2,21,6.2,41.9,9.93,62.75.65,3.67,4.13,1.48,6,.14C921.83,600.6,941.81,584.69,960,566.77Zm0-136.1V235.79c-3-1.95-5.87-6-9.25-12.09C937.57,200,927.23,175,915.66,150.56c-6.19-13.06-10.38-27.07-15.47-40.65l-1.31.1c2.1,12,4.11,24.1,6.32,36.11,2.53,13.71,5.22,27.38,7.86,41.06A431.14,431.14,0,0,0,926,237.49a365.48,365.48,0,0,1,10.83,40.25c1.82,9.1-5.69,11.2-12.1,9-17.73-6.11-35.14-13.2-52.51-20.31A488.51,488.51,0,0,0,800,243c-16.55-3.93-33-8.18-49.69-11.59-3.72-.77-8,1.37-13.27,2.41,22,5.94,41.79,14.69,61.68,23.13,33.2,14.07,64.67,31.56,96.24,48.87,11.52,6.32,9.43,11.84,1.45,19.3-17.67,16.48-35.22,33.06-56,45.75-28.11,17.18-56.07,34.62-84.45,51.35-12,7.06-24.88,12.58-36.38,21.25,9-3,18.14-5.62,27-9,20.16-7.67,40.64-14.7,60.15-23.79,32.89-15.32,66.39-29.8,94.7-53.37,5.85-4.87,11.95-9.47,18.1-14,7.31-5.38,13.48.16,15.61,12.39,3.25,18.69,2.35,37.44,1.46,56.1-1.14,23.87-2.82,47.79-5.86,71.47-2.56,19.93-7.42,39.56-11.2,59.34-.38,2-.33,4-.64,8.24,15.42-29.71,26.92-58.41,34-88.75C955.34,451.68,957.78,441.19,960,430.67Zm0-322.87V64H927.73C939.63,77.69,949.74,92.8,960,107.8ZM870.67,938.54a2.88,2.88,0,0,0-.75-1.39c-19.17-14.35-40.77-24.7-62.61-33.56-26.25-10.64-54.23-16.38-82.69-18.66a5.19,5.19,0,0,1-3.49-2.88c-.94-2.41.36-4.52,2.35-6.06,1.76-1.36,3.82-2.41,5.36-4,16.7-16.87,29.75-36.65,43.8-55.6,19.47-26.25,37.32-53.74,51.52-83.12,11.13-23,19.13-47.6,28.45-71.52.36-.94-.11-2.21-.19-3.32a12,12,0,0,0-2.27.61c-12.32,6-24.31,12.85-37,18-37,15-74.6,28.8-107.67,51.94-21.22,14.86-39.84,32.35-54.34,54-2,3-4.17,5.9-6.14,8.92-2.23,3.43-7.46.86-10.73-5.36-15.62-29.67-35.73-55.8-59.62-79.44-15.16-15-32.41-26.81-49.91-38.5-2-1.3-4.49-1.71-6.75-2.53a14.36,14.36,0,0,0,0,2.78c2.9,15.38,5.67,30.79,8.83,46.12,3.2,15.52,7,30.92,10.19,46.44,3.64,17.6,5.71,35.63,10.7,52.82,4.75,16.35,8.47,32.87,12.53,49.35,1.4,5.68.71,13.27,6,16.58,11.75,7.3,24.31,13.31,36.94,20.06-5.39-18.49-11.47-36.91-16.05-55.7-4.24-17.34-10.39-33.87-17.27-50.25-6.35-15.1-12.64-30.2-20.69-44.52-.88-1.57.72-4.63,1.47-6.9a4.19,4.19,0,0,1,3.19.27c3.51,3.37,7.26,6.65,10.08,10.57,15.95,22.18,31.14,44.75,44,69a403.62,403.62,0,0,1,24.11,55.91c6.88-8,13.56-16.25,20.71-24.06,30.39-33.18,60.4-66.67,94.58-96.2C766,742.31,784.18,726,804.54,712.15c2.42-1.64,4.38-2.65,6.27-.38,3.15,3.79-1,7.35-2.54,8.8-16.56,15.19-33.8,29.63-48.7,46.57-12.39,14.08-26.75,26.87-36.81,42.45C714.27,822.75,703,833.26,694.09,846c-12.92,18.48-27,36.28-39.73,55a14.66,14.66,0,0,0-1.19,3,10.1,10.1,0,0,0,3,.95c25.76-.07,51.36.93,76.8,5.86,22.88,4.44,45.68,8.93,67.78,16.37,1.35.46,2.21,2.59,3.08,4.08.17.28-.61,1.65-1.06,1.7-6.57.79-13.43,2.91-19.69,1.76-7.72-1.41-15.24-.5-22.82-.77-9.68-.34-19.88,2.44-29,.27-13.09-3.11-25.48,1.86-38.54,0s-26.75,1.21-40.12,2.58c-3.64.37-11.13-.88-10.38,2.1,2.45,9.76,7.31,18.94,11.4,28.28,5.88,13.43,8.77,27.67,11.41,41.95,1.81,9.81,2.49,19.83,4.59,29.56,3.59,16.66,5,33.5,5.58,50.46,0,.63-.71,1.28-1.09,1.92a14.72,14.72,0,0,1-2.19-1.86c-9.6-12.09-12-27.19-16.81-41.21-8.66-25.34-18.05-50.28-31.75-73.42-3.53-6-6.22-15.38-11.34-1-2.6,7.28-10.79,13.73-7.77,21.59,7.66,20,16.24,39.7,25.77,58.87,14.87,29.9,30.83,59.27,46.35,88.85a31.58,31.58,0,0,0,1.78,2.71c.8-.91,1.93-1.69,2.35-2.76,2.62-6.78,5.46-13.51,7.52-20.46,5.9-19.89,12.46-39.5,15.39-60.29,3.1-22,7.32-43.57,4-66.08-1.14-7.9-5.09-17.53,2.29-25,5.33-5.36,11.57,0,17.37-.55,10.57-1.06,21.14-3.21,31.68-3,19.72.3,38.46-5.23,57.37-9,16.41-3.26,32.12-10.08,48.08-15.54C866.58,942,868.56,940,870.67,938.54ZM732,926.31c9.57,1.26,19.24,1.37,28.52-2-15-1.37-29.21-6-44-7.8-21.35-2.66-42.81-2.08-64.06-4.73-7.33-.92-19.62,1.41-8-12.58,4.44-5.33,8.06-11.55,12.22-17.29,14.61-20.19,28-41.27,45.57-59.23,3.91-4,5.93-9.85,8.83-14.85-14,12.29-26.43,25.47-38.94,38.59-11.49,12-21.75,25.09-32.11,38.08-1,1.28-4.88,15.72-11.3,3.52C623,877,620,864.62,614.4,853.53c-10-19.86-20.93-39.21-31.55-58.91-4,2.55-2.74,5.84-1.54,7.4,6.73,8.7,8.61,19.31,11.57,29.32,6.45,21.84,12.35,43.86,17.45,66,.84,3.65,6.15,8.52.66,12.57s-9.22-1.56-13.44-3.61c-5.93-2.9-11.53-6.54-17.57-9.13-3.55-1.52-6.17-5.39-10.71-4.49,1.33,4.89,2,10.11,4.25,14.54,1.24,2.46,5.11,3.58,7.78,5.33,5.27,3.46,10.82,6.57,15.69,10.52s9,7.6,2.92,15.29c-4.29,5.47-11.37,11.47-10.33,19,1.1,8,5.49,15.53,8.58,23.63,4.37-9.15,8.55-18.18,13-27.09,2-4.13,4.59-6.7,8.3-1.11s8.2,10.75,11.56,16.55A314.91,314.91,0,0,1,658.52,1030c.25-4.89.65-6.53.37-8-5-27.47-11.69-54.46-25.26-79.15-5.76-10.48-5.61-15.37,8.55-14.16,10,.86,20.24-1.2,30.37-1.12C692.37,927.7,712.08,923.68,732,926.31ZM585,945c10.13-10.56,8.08-18.13-4.24-23.13-1-.39-2-.71-3-1.07-.22,1.08-.91,2.32-.6,3.2C579.7,931,582.39,938,585,945Zm-4.66,577.67c1.83-1,3-3.27,4.41-5-2-.87-4-1.84-6-2.61-11.33-4.28-22.69-8.48-34-12.76-18.81-7.11-38.46-11-58-15.23-25.27-5.46-50.62-10.2-76.73-7.49-2.49.26-5.42-2.16-3.86-5.27,8.73-17.49,19-34.32,26.36-52.34,9.78-23.86,16.15-49,22.84-73.91,4-14.9,6.59-30,9.87-45,2-9.06,2.44-18.45,3.7-28.55-24.07,15.27-47.84,29.37-70.51,45.06-17.74,12.27-34.4,26.17-51,40A202.22,202.22,0,0,0,313,1395.7c-2.75,3.76-6.34,7.15-11.21,7.22-5.45.07-6.16-5.7-8.53-9-8.74-12.1-16.74-24.72-25.35-36.92-17.33-24.56-37.57-46.82-56.19-70.34-17.53-22.15-38.28-40.4-59.76-58.43-10.44-8.77-21.51-17.06-31.32-26.73-3.66-3.61-8.86-5.66-13.42-8.34-.4-.23-1.65.1-1.74.41a3,3,0,0,0,.17,2.25c12.53,18.3,15.44,40.34,22.76,60.58,5.31,14.68,5.43,31.15,8.81,46.62,3.48,16,8,31.69,12.24,47.48,3.76,14.12,8.46,28,11.4,42.32,4.94,24,13.56,46.25,27.36,66.49,1,1.55,1.8,3.31,2.91,4.82,2,2.69,5.74,4.86,3.27,8.9-2.16,3.55-4.72,3.47-9.23,2.42-13.18-3.06-26.71-5.51-40.2-6.13-20.88-.95-41.93-.27-62.73-1.13A82.13,82.13,0,0,0,64,1469.93v79.8c7.23,2.85,14.5,5.62,21.86,8.09,15.7,5.26,31.92,9,48,13.07,16.45,4.14,33,7.87,49.53,11.7a17.78,17.78,0,0,0,5.45.31c13-1.16,17.24,2.73,10.44,15.58-3,5.73-5.8,11.6-8.48,17.52h29.41c6.84-9.88,13.75-19.71,20.59-29.59,7.22-10.44,14.3-21,21.45-31.47-3.62-1.28-7.18-3.48-10.87-3.7-27.92-1.73-54.78-9.57-82.07-14.68-26.08-4.88-52.48-9-78-17.08-6.49-2.07-13.45-3.11-19.86-5.8a21.1,21.1,0,0,1-3.13-2c1.13-.9,2.19-2.44,3.43-2.61a277.64,277.64,0,0,1,67.62-.54c9.7,1.11,19.66-.25,29.43.49,27.89,2.12,55.75,4.73,83.61,7.15l2.17.2c0-1.45.44-3.08-.06-4.33-6.47-15.94-13.5-31.66-19.53-47.75-9-24.14-16.62-48.83-26.2-72.73-13.91-34.74-29.43-68.83-43.42-103.54-3.61-9-7.7-17.58-11.71-26.3-.69-1.51-.62-4.84.21-5.29,2.51-1.36,3.8,1.36,4.89,3,12.77,19.42,25.93,38.59,38,58.44,13.26,21.83,26.7,43.53,36.72,67.26,8.36,19.83,19.24,38.58,28.45,58.07,6.85,14.49,12.9,29.35,19.09,44.14,1.27,3.05,5.79,4.34,3.07,11.49,13.53-15.73,25.05-28.7,36.11-42.06,23.46-28.35,46.31-57.21,70.14-85.24,12.71-15,23.95-31.33,39.52-43.72a11.27,11.27,0,0,1,2.64-1.17,11.48,11.48,0,0,1,.39,3.39c-3.09,16-12.39,29.19-20.54,42.76-12.79,21.32-25.7,42.61-39.54,63.25-10.88,16.2-23.58,31.18-34.84,47.14-9.53,13.48-18.16,27.59-27.77,42.32,15.69-4.48,30.42-1.19,44.83-3.06,12-1.55,24.27-1,35.92-.4,22.54,1.26,45-.62,67.48,1.19,9.77.79,19.47,2.41,29.19,3.73a13.14,13.14,0,0,1,3.05,1.22c-.5.76-.83,1.84-1.54,2.23-13.18,7.4-27.93,8.49-42.41,11.16-7.07,1.31-13.93,3.27-21.26,3.73-9.92.62-19.75,2.64-29.67,3.69-26.24,2.79-52.5,5.38-78.75,8.06-3.21.33-2.06,2.4-1.39,4,4.53,10.52,9,21,13.77,31.47,1.71,3.74,5.51,2.57,8.46,2.33,15.13-1.22,30.34-2,45.33-4.24,21.87-3.24,43.88-4.74,65.47-11.16,26.75-8,53.38-15.79,78.34-28.33C545,1542.07,562.65,1532.28,580.35,1522.64ZM476.16,274.93c3.27-3.24-.81-3.34-2.08-3.69-26.9-7.44-53.58-16.06-80.88-21.55-15.27-3.08-31.59-5.34-47.44.84-4.3,1.68-5.4-3.27-4.74-6.8,5.05-27.29-3.21-53.35-7.07-79.83-1.78-12.2-2.64-24.58-5.18-36.61-3.18-15.09-.91-30.12-1.9-45.34-15.48,8.45-26,23.17-39.17,34.88-14.92,13.28-25.52,30.07-35.34,47-9.6,16.55-19.6,33.24-24.24,52.24-.17.68-1.36,1.3-2.19,1.59-2.83,1-4.81-.7-6.4-2.59a517.71,517.71,0,0,0-52-54c-25.71-22.93-53.38-43.39-84-59.4C77.24,98.37,70.57,96,64,93.35V147c2.21,8.24,4.69,16.42,7.33,24.55,5.94,18.33,13.72,36.09,21.15,53.91,5.8,13.87,11.82,27.71,18.71,41.06,4.67,9,11.41,17,16.51,25.82,3.38,5.86-4,5.7-5.78,6.27-21,6.53-40,16.47-57.92,28.37v21.64a473.55,473.55,0,0,1,56.06-20.47c22.55-6.63,45.63-9.06,68.19-14.61,5.15-1.26,10.68-1,16.28-1.49-13.58-16.14-26.8-32.8-38.25-50.79-11.89-18.71-24.56-36.95-35.89-56s-21.18-38.76-32.11-57.94c-1.24-2.17-1-2.68.33-3.77,1.79-1.51,3.74-2.13,5.75-.31,20,18.1,36,39.62,52.94,60.46,21,25.91,40.3,53.44,65.92,75.42,4.89,4.19,8.54,9.83,12.74,14.78C243,272.09,247.9,250,256.24,228.74c10.36-26.47,23.5-51.52,35.33-77.23,2.16-4.7,7.13-11,11.11-9.64,5.89,2,1.36,8.36.36,12.84-4,17.66-7.94,35.33-12,53-4.46,19.14-9.4,38.17-13.45,57.39-2.22,10.54-2.77,21.42-4.56,32.06-2,11.76,4.6,9.39,10.28,5.93,12-7.3,25.46-10.66,38.63-13.76a320.07,320.07,0,0,1,85-8.19c4.41.16,11.76-3.6,12.54,4.66.71,7.37-7.18,5.77-11,7-28.91,9.32-58.12,17.55-86.17,29.63-10.82,4.67-21.27,10.22-32.32,14.27-3.52,1.29-2.48,1.92-1.08,3.77,5.69,7.5,9.87,14.35,22.21,15.15,32.65,2.12,60.59-9.57,88.56-23.6a273.3,273.3,0,0,0,55.6-36.85C462.64,288.84,469.29,281.75,476.16,274.93ZM464.4,1269.29c5.73-2.64.49-5,.12-5.51-18.2-26-32.66-54.15-48-81.82-13.74-24.75-26.36-49.88-38.22-75.62-11-23.83-20.81-48.2-30.28-72.45-7.23-18.49-14.63-37.4-19.87-57-3.52-13.14-6.37-26.91-12.43-40.82-5.11,20-13.8,37.53-22.88,54.77-3,5.73-7.4,13.07-13.73,13.39-4.16.21-9.46-4.93-12.84-10.67-12.6-21.36-19.52-44.33-23.43-68.58-2.72-16.85-3.14-33.81-3.9-50.78-.13-2.93-.35-5.86-.53-8.79l-7.72,5.05c-26.2,17.15-53.67,31.28-83.73,41-24.56,7.94-49.94,10.29-74.95,15a24.4,24.4,0,0,1-8,0v24.21a7.09,7.09,0,0,1,3.72-.63c5.91.45,13.29,0,12.29,9.23-.63,5.79.53,14.22-10.26,11.57a9.39,9.39,0,0,1-5.75.31v257.35c6,.5,14.15.66,13.25,11.44-.69,8.13-3.41,12.43-12.46,11l-.79.22v207.16a113.24,113.24,0,0,1,22.72-1.33c24,1.32,48.1,2.33,72.1,4.21,7.23.57,14,5.18,22.26,3.35-17.78-22.33-25.58-48.58-32.15-75.36C143,1365,136.43,1341,131,1316.8c-7.34-33-14.13-66.15-24.4-98.38-3.27-10.28-9.53-19.61-14.43-29.37-1.52-3-5.25-6.53-2.62-9.24,1.74-1.8,7.28-1.93,9.92-.53,20.37,10.81,38.66,24.49,56.56,39.17,12.78,10.48,25.83,20.86,37.3,32.5,29.93,30.37,55,64.86,80,99.36,9.47,13.07,18.67,26.19,26.26,40.45,1.63,3,3.77,1.61,5.34-.66,8.88-12.85,18.86-25.11,31-34.56,15-11.67,29.63-23.93,45.17-35.08q23.55-16.87,48-32.23A306.69,306.69,0,0,1,464.4,1269.29ZM468.48,1532a64.14,64.14,0,0,0-6.38-.94c-18.88,0-37.86,1.19-56.61-.35-21.37-1.76-42.7-1.55-64-1.53-11.34,0-22.67,1.29-34,2-1.33.08-3.72.28-3.84-.12-.5-1.66-1-3.88-.3-5.26a364,364,0,0,1,31.42-49.65c12.49-16.82,23.94-34.43,35.49-51.94,11.42-17.32,22.35-35,33.58-52.39,1.68-2.61.84-6.82,5.09-8-7.48-.78-8.1,6.76-11.27,10.23-8.78,9.63-17,19.83-25.8,29.52-9.84,10.78-17.75,23.29-26.85,34.76q-16.33,20.58-33.29,40.65c-7.81,9.28-13,21.12-23.64,27.59-11.73,7.13-10.48-6.72-12.38-10.48-12.92-25.46-24.14-51.77-36.39-77.58-11.09-23.38-22.76-46.49-34.27-69.67a12.23,12.23,0,0,0-6.72-6.23c3.84,9.51,7.78,19,11.49,28.55,8.52,21.94,16.6,44,23.86,66.44,7.38,22.82,17.25,44.83,26,67.22,2.05,5.27,7.86,11.71,4.36,15.81-4.58,5.37-13.67,3.58-20,1.91-12.36-3.28-24.85-.71-37.28-3s-25.75-4.8-37.94-3.73c-21.63,1.89-43-3.79-64.69,0,10.94,2.4,21.62,4.9,32.37,7.07q34.4,6.91,68.86,13.53c12.5,2.38,25.06,4.43,37.6,6.54,9.56,1.6,19.17,2.91,28.7,4.66,5.68,1,2,4.46.72,6.06-16.16,19.65-28.44,42-43.85,62.3h17.11c10.33-12.71,19.45-26.38,31.11-38.13,6.49-6.54,8.95-5.6,11.47,1.92,4.11,12.25,9.59,24,13.84,36.21h28.3q-6.57-13.7-12.91-27.51c-5-10.94-10-21.93-14.15-33.21-1.18-3.2,2.22-6.35,6.1-6.27,27.69.6,55-4.09,82.45-6.38C416.52,1540.57,441,1535.93,468.48,1532ZM390.22,289.81c-14.89.49-29.55,2.57-44.3,4.52-24.63,3.25-47,12-69.89,20.18-5.93,2.11-14.77,4.15-13.11-8.22,2.08-15.42,3.68-30.91,6.19-46.25,1.74-10.6,4.61-21,7.07-31.51,3.69-15.75,9.22-31.09,10.48-47.37-8.93,16.6-15.22,34.26-21.91,51.85-8.2,21.57-14.07,43.7-20.14,65.85-2,7.29-5.72,11.18-12.36,4.08-14.28-15.24-28.57-30.49-42.44-46.12-10.55-11.89-20.72-24.15-30.56-36.64-11.25-14.28-21.94-29-34-45,0,2.87-.3,3.83.05,4.4,11.12,18.59,21.66,37.56,33.63,55.58,15.05,22.65,29.87,45.49,47.15,66.64,3,3.69,15.28,11.8.79,16.49A185.25,185.25,0,0,1,165,326.73c-18.93,1.53-36.3,8.84-54.52,12.81C95.11,342.89,80.78,351.05,64,358.2v.71c10.88-.66,19.83-1.39,28.77-1.64,28.08-.77,55.52-6.59,83.16-10.58,13-1.88,26.21-3.71,38.75-8.71,5.93-2.37,13.63-3.31,19,.67,4.55,3.38-1.42,7.79-2.27,12l54.5,2.84c-8.49-7.95-13.49-14.95-2.72-21.49a292.41,292.41,0,0,1,58.62-27C357.82,299.59,374.07,294.85,390.22,289.81ZM304,944.14c3.38-9.76,10.57-19.48,5-31.16-2.34-4.92-3.54-10.42-4.91-15.75-4.05-15.79-7.75-31.68-11.93-47.43-4.91-18.46-10.18-36.83-15.29-55.24-.25-.89-.45-1.79-.68-2.69a11,11,0,0,0-2.54,1.28,293.24,293.24,0,0,1-38.09,29.38c-15.12,9.67-30,19.65-46.13,27.48-21,10.21-42.06,20.37-64.38,27.57-2.37.77-4.33.37-5.32-1.12-1.48-2.25,1.19-2.7,2.55-3.66,6.63-4.67,13.23-9.41,19.86-14.09,19-13.42,38.53-26.23,57-40.42,17.06-13.14,33.19-27.53,49.27-41.88,4-3.57,14.21-9.58-.62-13.21-4.23-1-8.77-1.44-12.61-3.28-15.51-7.45-32-12.41-47.37-20.43-18.8-9.8-38.45-17.92-55.23-31.21-1.06-.84-1.62-3.37-1.22-4.77.63-2.24,2.32-1.42,4.32-.82,12.75,3.86,25.52,7.74,38.46,10.88,12.73,3.1,25.75,5,38.51,8,16.56,3.91,32.67,10,49.82,9.69C251.77,675.56,247.14,619.22,241,559.9c-7,12.75-13.49,22.12-17.51,32.47-9.19,23.68-17.08,47.75-16.9,73.82,0,4.37,2.33,16.5-9.36,12.31-20.83-7.47-42.56-7.7-64-9-23.31-1.43-46.62,1.09-69.28,10V681c17.66,16.61,32.87,35.57,54.11,48.21,24.13,14.35,50.53,23.67,75.59,35.9,3,1.46,8.52,3.71,3.86,7.94-14.36,13-29.31,25.42-44.08,38-12,10.23-25.24,19.32-35.89,30.8C98.93,861.92,78.81,880.93,64,904.29v13.45c15.72.87,31-3.6,46.06-6.52,23.47-4.53,46.53-11.44,68.34-22.14s42.27-23.56,63.12-35.83c1.54-.9,2.51-3.31,5-1.92,2.27,1.25,2.59,3.15,2.51,5.46-.54,15.58.92,31.07,1.6,46.6,1.2,27.55,10,52.67,20.42,77.54,1.78,4.26,3,9.63,6.23,12.2,5.28,4.16,6.27-3.78,7.15-5.5C291.67,973.46,298.85,959.12,304,944.14ZM292.11,1616c2.29-6.5-3.95-13.29-5.8-19.85a82.73,82.73,0,0,0-3.44-9.32,5.93,5.93,0,0,0-2.12-2.28c-.18-.13-1.24.75-1.71,1.33q-12.23,15-24.44,30.12ZM258.76,796.43c8.2-6.71,19.71-11.76,12.22-25.89a11,11,0,0,1-.63-3.21,27.59,27.59,0,0,0-3,2.19c-9,8.41-17.52,17.31-26.92,25.2-23,19.33-45.85,38.93-70.81,56.15,6.5-3,13.29-5.48,19.45-9.06C213,827.85,237.16,814.09,258.76,796.43Zm9.14-42.2c1-3.48.1-11.17-4.47-12.75-7.91-2.73-16.66-2.93-25-4.66-12.93-2.69-25.8-5.68-38.66-8.71-10.11-2.38-20.16-5-30.25-7.53-.09.53-.19,1.06-.28,1.59,11.58,5.6,22.9,11.88,34.82,16.63,16.46,6.55,33.36,12,50.11,17.82C259.24,758.36,265.8,761.82,267.9,754.23ZM238.35,552c3.09-3.38,1-12,.43-18.13-1-11.41-2.58-22.76-3.83-34.15-1.38-12.63-2.65-25.27-4-37.9a12.9,12.9,0,0,0-.84-2.55,12.76,12.76,0,0,0-2.54,2.16c-15.72,22.94-36.53,40.17-60.94,53-8.27,4.34-14-1.12-15.4-8.81-3.28-18.53-2.59-36.89,1.15-55.68,3.4-17.11,8.34-33.73,12-50.65,2.12-9.75-6.48-2.27-8.71-1.77-23.79,5.28-47.65,8.15-72.13,6.91q-9.86-.51-19.56-1.67v268c16.16-8.38,34.74-10.15,51.93-10.6s35.6-1.22,53,4.26c8,2.51,16.6,4.57,24.79,4.14,7-.37,4.3-9.36,4.51-13,1.32-22.09,6.19-42.88,16-62.73C221.26,578.52,227.32,564.06,238.35,552Zm-8.57-109.87c4.16-7.36-.75-19.84-1.43-30-.15-2.2,0-4.43,0-7.17-7.86,10.83-15.47,21.5-23.27,32-5.28,7.12-10.62,14.21-16.37,20.94-1.44,1.7-4.58,1.95-6.93,2.87-.16-2.88-1.18-6-.34-8.59,9.46-28.68,19.32-57.21,33.31-84.12,3.79-7.28,6.63-15.06,10.48-23.95-10.4,2.69-19.85,5.55-29.49,7.5-11.58,2.34-23.33,3.91-35,5.81-15,2.43-29.93,5.31-45,7.12-11,1.32-22.48,0-33.3,2.09-6.24,1.21-12.33-.79-18.42-1.51v28.64c8.48.65,17,.93,25.5,1.37,26.43,1.35,51.76-3.91,77-10.32,3.39-.86,6.73-2.85,9.51.3,4.18,4.73-.39,9.3-1.53,13.48-4.52,16.59-8.81,33.14-11.77,50.15a208.88,208.88,0,0,0-3.55,38.48,78.5,78.5,0,0,0,2.11,17.9c1,4,4.24-.31,4.81-.64C192.83,489.38,214.77,468.6,229.78,442.11Zm-19-25.91c10-14.13,19.75-28.45,16.12-47.27-.24-1.21-.5-2.41-.75-3.62-1,.95-2.46,1.71-3,2.88-4.68,10.69-9.84,21.23-13.58,32.25s-11.83,20.12-12.39,33.21C202.19,427.31,206.74,421.93,210.81,416.2Zm-18.6,1177.56c.6-1.37,1.33-2.59-1-2.66-4.61-.12-9.33.7-12-1.53-18.7-.19-34.65-6.33-51.18-9.3-22.13-4-43.22-11.22-64-19.36V1616H182.6Q187.4,1604.87,192.21,1593.76Zm-9.27-820.08c1.25-1,5.41-.61,3.58-2.25-3.35-3-8.12-4.58-12.48-6.26-18.51-7.15-36.92-14.41-54.18-24.42a208.35,208.35,0,0,1-36-26.34A200.59,200.59,0,0,1,64,693V889.3c15.63-22,34.19-41.63,54-60.25C138.73,809.53,160.68,791.44,182.94,773.68ZM114.39,291.81c5.23-3.33-2.49-7.47-4.23-10.1-17.87-27.11-29.84-57-40.52-87.23-1.89-5.33-3.79-10.67-5.64-16v137a208.32,208.32,0,0,1,30.91-14.81C101.5,298.08,108.59,295.48,114.39,291.81ZM56,1618.34V61.66l-48-48V1666.34Z"/><path d="M945.14,956.44c-2,5-4.39,11.12-11.51,11.29-5.58.13-9.53-3.28-9.57-9.73,0-8.47,5.2-11.69,12.5-12C942.66,945.72,944.62,950.21,945.14,956.44Z"/><path d="M918.14,759c15-.32,16.94,1.54,16.92,17.8-.12,2.62-3.14,7.84-9.89,8-7.19.16-16.11-.62-14.84-11.15C911,768.49,907.74,759.24,918.14,759Z"/><path d="M921.5,1062.64c7.73,1.19,8.75,6.4,9.78,12.27-.74,7.35-5.44,13.23-11.55,13.44-5.53.19-14.57-1.35-14.44-10.29C905.43,1068.31,908.9,1060.69,921.5,1062.64Z"/><path d="M914.89,814.5c7.47,2.06,13.94,5.19,13.83,13.41-.07,5.15-3,10-9.63,10.06-7.3.13-12.94-2.6-12.66-10.5C906.62,822.13,907.9,815.93,914.89,814.5Z"/><path d="M905.42,996.11c5.72-.15,11.34,1.28,9.66,9.64-.55,6.14-2.46,11.73-10.06,11.78-6.33,0-10.34-2.72-10.21-10.15S898.71,996.29,905.42,996.11Z"/><path d="M911,711.85c.52,8.22-5,10.54-13,11.41-3.85-2.64-11-2.09-11.19-10.63-.16-8,3.77-14.77,10.61-15C904.5,697.47,910.47,703.45,911,711.85Z"/><path d="M868.5,866c6.77.73,13.75,2.07,13.37,10.86-.22,5.13-.82,12.44-7.68,12.5-6.65.07-16.22,1.07-15.21-12C858.53,871.51,858.59,864.89,868.5,866Z"/><path d="M859.26,784.93c7.11-.39,10.35,3.48,9.51,8.6-.92,5.57.89,14.82-7.53,15-5.69.12-15.52.93-15.11-10.53C846.45,789,850.55,784.9,859.26,784.93Z"/><path d="M833.45,993c7.54-.5,14.32,1.37,14.22,10.64-.08,7.47-2.11,14.39-9.14,13.76-11.17-.21-14.72-5.31-14.24-12.61C824.64,999.47,826.34,993.48,833.45,993Z"/><path d="M809.5,1462.82c6.27.46,9.56,4.68,9.17,9.25-.52,6.21-1.46,15.23-9.49,15.44-5.46.15-15,1.89-16.65-8.65C795,1470,797.59,1461.94,809.5,1462.82Z"/><path d="M816.19,845.39c1,7.54-1.5,14.49-11.43,15.79-6.87-1.57-10.93-6.09-10.6-13.58.25-5.74,2.64-11.05,9.48-10.47C808.91,837.58,815.4,839.39,816.19,845.39Z"/><path d="M788.64,1528.11c6.9-.89,10.23,5,9.81,10.36-.47,5.93-1,13.64-9.2,14.8-8.86-1-16.07-3.76-16.09-13.06C773.14,1530.7,781.51,1529,788.64,1528.11Z"/><path d="M781.15,123.49c9.33-.93,15.82,1.09,13.78,11.8,1,8.33-2.26,15.1-9.52,15.25-7.07.16-15.82-3.37-16-12.37C769.34,131.63,772.16,124.38,781.15,123.49Z"/><path d="M756.5,1474.51c.42,6.55.74,17.45-10.74,16.66-9.92.26-16.47-3.31-16.18-12.41.12-3.82,0-10.67,6.79-12C744.78,1465.18,755.6,1460.19,756.5,1474.51Z"/><path d="M743.41,1578.27c1,6.25,2.52,14.29-5.77,17.11-8.06-1.12-15.49-1.87-15.4-10.9.06-6.49.37-14.93,9.39-15.09C736.22,1569.3,742.57,1572.9,743.41,1578.27Z"/><path d="M711.16,1530.37c.22,9-6.43,12-12.77,12.2-6.54.22-8.41-6.39-8.06-12.14.43-6.93,5.45-9.28,9.52-9.55C708.58,1520.76,711,1524.07,711.16,1530.37Z"/><path d="M681,1445.39c7.25.06,13.51,4.36,11.93,13.44,1.62,9.31-5.78,11.13-11.28,11.72-7,.76-11.58-5-11.57-11.59S673.8,1445.33,681,1445.39Z"/><path d="M679.36,130.27c.56,10.39-8.26,11-13.91,12.85-9.54.26-12.85-5.8-12-11.35s.85-14.61,9.69-14.56C671.11,117.26,678.85,120.69,679.36,130.27Z"/><path d="M633.81,1490.41c5.58.52,6.29,6.48,5.9,11s.12,10.81-7.16,9.74c-7,.22-11.16-3.69-11.3-9.09C621.06,1494.58,626.33,1489.72,633.81,1490.41Z"/><path d="M614,1554.75c7.35.18,13,3.77,12.72,11.25s-5.25,12.26-13.34,12c-7.62-.21-8.8-5.53-8.66-9.36C605,1560.12,606,1554.56,614,1554.75Z"/><path d="M607,120.78c.4,10.87-3.44,14.76-9.94,14.06-6.84-.74-12.93-4.32-11.9-12.61.73-5.81,2.6-13.1,9.8-13C603.73,109.45,606.62,116.62,607,120.78Z"/><path d="M605,234.68c1.67,9.73-4.75,14.85-13.73,15-10.55.18-11.07-8.72-10.2-16.47.77-6.78,1.8-14,12.26-12.44C600.84,221.87,605.28,225.89,605,234.68Z"/><path d="M585,1432.66c.41,7-3.49,12.2-10.48,12.11-6.34-.08-11.39-3.87-12.18-10.12.33-6.67,1.08-12.61,7.63-12.71C576.77,1421.84,584.4,1423.4,585,1432.66Z"/><path d="M552.65,1584.91c5.08,2,10,6.4,9.93,12.88,0,7.51-3.57,15.77-12,15.3-4.47-.25-13.13-2.38-13.6-10.55C536.33,1591.09,541.4,1585.21,552.65,1584.91Z"/><path d="M517.56,131.3c-.67,9.12-1.29,17.12-11.58,16.7-7.2-.29-13.1-4.81-12.59-12.31.3-4.37-.25-12.45,7.35-12.49C507.47,123.17,516.28,121.94,517.56,131.3Z"/><path d="M479.05,86.44c.18,8.64-5,14.25-12.46,15.52-6.71,1.14-10.74-4.2-11.83-10.27.7-9.16,4.57-16,13.05-16.21A11,11,0,0,1,479.05,86.44Z"/><path d="M453,181c6.84.22,8.14,4.88,8.14,12-1.79,6.32-1.73,15.87-12.37,17-12,1.25-12.16-8.82-11.42-16.09C438.16,185.87,444.08,180.67,453,181Z"/><path d="M424.89,122.08c.44,8.89-6.1,12-11.43,12.51-6.53.66-11.69-4.11-11.56-11.6.1-6,2.4-12.88,8.77-12.75A14.8,14.8,0,0,1,424.89,122.08Z"/><path d="M395.33,159.19c6.49.6,9.89,6.07,9.47,12.16-.35,5-4.08,8.83-9.61,9.28-7.68.64-8.6-5-9.26-9.72C386.79,164.36,388.51,158.57,395.33,159.19Z"/><path d="M228.23,1001.08c8.89-.53,14.14,2.92,13.57,11.86-.27,4.2-.52,10.54-7,9.87-5.83-.6-13.32-.76-13.87-9.65C220.6,1007.4,221.28,1002.17,228.23,1001.08Z"/><path d="M240.37,109.59c.46,5.47-1,13.64-9.66,15.94-6.77-2.82-15.29-4-15.53-13.41-.16-6.59,2.84-13.28,10.91-12.93C232.56,99.46,239.85,103.41,240.37,109.59Z"/><path d="M215.05,1067.21c6.86-.76,10.11,3.87,10,10.77-.08,8-5.06,11.2-12,10.85-4.72-.24-6.72-4.16-5.68-12.36C207.88,1074.46,208.35,1067.94,215.05,1067.21Z"/><path d="M178.31,973.09c7.7-.63,15.81-.65,12.54,15-.14.37,1.59,6.68-5.82,6.92-7.56.25-14.19-2.06-13.54-10.63C171.76,980.73,171.71,973.62,178.31,973.09Z"/><path d="M164.92,86.19c6.15.74,13.81,3,13,12-.55,5.93-1.5,12.49-9.75,13.18-7.8-1.54-12.82-6.06-13-13.76C155,91.71,158,85.37,164.92,86.19Z"/><path d="M168.94,1033.25c6.51.08,5.95,6.73,5.83,10.9-.12,3.89-2.46,9-7.26,8.63-5.65-.49-10.15-4-10.56-8.62C156.94,1033.86,163.66,1033.18,168.94,1033.25Z"/><path d="M149.73,1099.08c7.93-.65,16.32-1,15.35,11.12-.56,7-2.75,12.08-11.09,10.78-9.1,1.47-10.47-5.06-10.85-11.29C142.86,1105.22,143.49,1099.59,149.73,1099.08Z"/><path d="M135.91,954.84c10-.22,12.41,6.6,11.55,13s-8.14,8.44-13.79,8.95c-7.32.67-6.84-5.49-6.73-10.57C127.08,959.75,128.26,954.16,135.91,954.84Z"/><path d="M123.6,1007.27c.39,8.82-6.88,7.69-11.42,8.52-9,.84-8.23-6.93-8.48-10.27-.5-6.5,5.13-9.83,11.45-9.95C123.08,995.4,123.36,1001.85,123.6,1007.27Z"/><path d="M111.56,536.67c9.24.18,7.49,5.71,7.39,13.56-.59,4.14.37,13.58-7.86,14.13-6.23.42-16.29-2-15.31-12.79C96.61,542.52,100.51,536.45,111.56,536.67Z"/><path d="M102.39,1055c6.17-.35,13.14-1.27,10.88,7-.25,6.54,1,12.67-5.67,13.13-6.06.41-12.16-1.84-12.55-9.55C94.79,1060.56,95.63,1055.37,102.39,1055Z"/><path d="M102.76,1381.35c.06,6.32.21,14.73-10.8,13.72-8.81.82-11.84-4.63-12-12.45-.16-7.51,2.55-14.77,10.88-14C96.53,1369.17,102.69,1374.49,102.76,1381.35Z"/><path d="M76.92,1099c5.43.8,7.49,4.28,6.58,11.48-.71,4-2.62,9.43-9.9,8.43-5.69-.78-7.46-5.39-7.13-10.76C66.88,1101.61,70,1098,76.92,1099Z"/></svg>