<svg id="Card" xmlns="http://www.w3.org/2000/svg" viewBox="0 0 1024 1680"><defs><style>.cls-1{fill:#f2f0ed;}.cls-2{fill:#8c1707;}.cls-3{fill:#16592d;}.cls-4{fill:#593831;}.cls-5{fill:#f79d31;}</style></defs><rect class="cls-1" x="14.5" y="14.5" width="995" height="1651"/><polygon class="cls-2" points="966 1619.17 966 60.83 1018 8.83 1018 1671.17 966 1619.17"/><polygon class="cls-2" points="60.83 58 8.83 6 1015.17 6 963.17 58 60.83 58"/><polygon class="cls-2" points="8.83 1674 60.83 1622 963.17 1622 1015.17 1674 8.83 1674"/><path class="cls-3" d="M946.48,1618l3.52-3.43c3-3,5.89-6,8.48-9l3.52-4.09V1618Z"/><path class="cls-4" d="M869.92,1618l6.41-3.73a1,1,0,0,0,.19-.13c2.09-2.73,4.34-7.07,4.32-11-.05-8.38-.43-16.93-.79-25.19-.61-14-1.24-28.47-.35-42.66,1.2-19,1.53-38.82,1-60.65-.25-10.3.31-20.69.85-30.74.74-13.74,1.5-28,.2-42-1-10.75.23-21.75,1.41-32.4.8-7.19,1.63-14.63,1.75-21.87.5-29.32.38-59.12.26-87.94-.18-44.12-.37-89.75,1.66-134.64,1.26-27.89,2.75-57.58,5.87-87,2.15-20.27,2.83-41.07,3.48-61.19.24-7.67.5-15.56.83-23.32.14-3.28,0-6.7-.1-10-.22-6-.44-12.13.81-18,1.17-5.45,1.11-11.11,1.06-16.58-.07-7.57-.14-15.39,2.94-22.92l.79-1.92,1.89.86c1.83.75,2.75,2.42,2.69,4.93-.17,6.53-.16,13.17-.14,19.6,0,4.85,0,9.88-.05,14.86-.11,8-.17,16.1-.23,24-.15,19.16-.3,38.91-1.11,58.38-1.61,38.76-1.08,78.28-.58,116.51q.12,8.37.22,16.75c.12,9.74,1,19.67,1.79,29.27.77,9,1.57,18.29,1.77,27.48.43,19.82.34,40,.25,59.46,0,8.83-.09,17.9-.08,26.81,0,5.76-.15,11.61-.3,17.26-.35,13-.71,26.48.9,39.4,1.45,11.62,1,23.22.48,34.43-.34,8-.7,16.3-.32,24.44,1.35,29.35,1.26,53.46-.29,75.87-.62,8.92,0,18.15.59,27.07.38,5.74.78,11.65.85,17.49.12,9.36.1,18.85.08,28,0,13.44-.07,27.34.35,41a18.94,18.94,0,0,1-.64,4.53c-.87,4-1,5.56,1.21,6.44a5.78,5.78,0,0,0,2.15.46c2.59,0,4.72-2.15,7.18-4.64,1-1,2-2,3-2.87a336.52,336.52,0,0,0,34.3-33.49l3.49-3.87v40.62l-3.53,4.18c-5.33,6.21-11.12,12.31-17.2,18.13l-.58.55Z"/><path class="cls-3" d="M915.54,1590.48c.05-1.3.1-2.6.16-3.91.14-3,.28-6.08.23-9.1,0-1.61-.22-3.29-.4-4.91a49.47,49.47,0,0,1-.43-5.89c0-4.38.26-8.83.47-13.14.65-12.76,1.31-26-2.67-40.32l-.34-1.25,3.28-1.44.69,1.11c1.45,2.34,2.73,3.48,3.9,3.48a8.18,8.18,0,0,0,3.36-1.34l.14-.08c3.17-1.75,6.43-3.4,9.58-5,6.61-3.36,13.45-6.84,19.62-11.31,1.72-1.25,3.61-2.57,5.75-4l3.12-2.09v55.63l-.53.58q-16,17.34-32,34.64c-2.27,2.45-4.78,4.68-7.2,6.85-1.12,1-2.25,2-3.35,3l-3.52,3.29Z"/><path class="cls-3" d="M916,1511.59c-2-4.39-1.57-8.74-1.14-12.95a27.1,27.1,0,0,0,0-8.53,3.34,3.34,0,0,1-.21-.58c-2.85-12.56.2-24.12,7.24-27.52,2.82-1.36,5.71-2.65,8.5-3.9,4.82-2.14,9.77-4.35,14.37-6.92,5.59-3.12,10.1-5.76,14.19-8.3L962,1441v45.76l-.82.6c-5.41,3.93-10.41,7.38-15.32,10.54a212.52,212.52,0,0,1-18.76,10.34c-2.74,1.39-5.57,2.82-8.33,4.29l-1.87,1Z"/><path class="cls-3" d="M918,1459.11a3.81,3.81,0,0,1-3-1.31c-1-1.15-1.27-2.88-.9-5.31,1.68-10.71,1.24-21.49.64-31.61-.61-10.5,5.33-12.52,12-13.79a11.94,11.94,0,0,0,3.43-1.09l2-1c8.92-4.74,18.16-9.64,26.9-14.9l3-1.83V1435l-.86.6A249.47,249.47,0,0,1,925,1456.54l-1,.5C922.18,1458,920,1459.11,918,1459.11Z"/><path class="cls-3" d="M915.55,1404.32l-.15-2.93c-.14-2.44-.28-5-.32-7.47,0-2,0-4.08.06-6.06a91.69,91.69,0,0,0-.22-11.25c-.48-4.75,1.68-8,5.94-9,5.19-1.16,9.71-4,14.09-6.75,1.58-1,3.19-2,4.83-3,6.61-3.78,13-7.87,19.06-12.15l3.16-2.24v38.54l-.91.59c-5.92,3.83-12,7.54-17.93,11.13-4.4,2.68-8.95,5.44-13.37,8.23a28.68,28.68,0,0,1-8.08,3c-1.18.31-2.4.64-3.53,1l-2.5.83Z"/><path class="cls-3" d="M919.27,1364.37a3.89,3.89,0,0,1-2.89-1.21c-1.2-1.25-1.68-3.35-1.53-6.61a120.67,120.67,0,0,0-.34-13.16c-.38-6.17-.78-12.56.17-18.75a7.92,7.92,0,0,0-.89-3.49c-1.15-2.85-3.06-7.62,3.23-10.75,5.54-2.75,11.09-5.73,16.47-8.61,4.21-2.26,8.54-4.58,12.85-6.79s8.52-4.61,12.6-7.17l3.06-1.91V1337l-.78.6a399.66,399.66,0,0,1-36.46,24.61C922.67,1363.52,920.93,1364.37,919.27,1364.37Z"/><path class="cls-3" d="M917.06,1306.75c-1.8-.13-2.67-2.22-2.67-3.35q0-4.26,0-8.5v-.19c0-9.78,0-19.87.43-29.8a5.35,5.35,0,0,0-.78-1.76c-.76-1.33-1.7-3-1.11-4.89a5.44,5.44,0,0,1,3.12-3.17,355.54,355.54,0,0,0,37.61-21.5c1.59-1,3.26-2.07,5.28-3.3l3-1.85v51.25l-.86.6c-9.41,6.55-19.43,12.49-29.13,18.23-4,2.38-8.13,4.82-12.16,7.28a5.21,5.21,0,0,1-2.67,1Z"/><path class="cls-3" d="M917.86,1249.24a4.44,4.44,0,0,1-3.25-1.26c-1.42-1.45-1.59-3.74-1.55-6,.06-3.7.05-7.47,0-11.12,0-4.91,0-9.95.13-14.93a28.75,28.75,0,0,0-.42-4.58c-.6-4.25-1.29-9.08,2.66-11.51,5.39-3.33,11.48-5.5,17.37-7.6,2.81-1,5.69-2,8.43-3.16,6-2.48,12-5.28,17.81-8.34l2.93-1.55v44.48l-1,.59c-2.81,1.72-5.63,3.41-8.46,5.11-8.93,5.35-18.12,10.86-26.6,17.07a15.54,15.54,0,0,1-4.64,2.07l-.66.21A9.38,9.38,0,0,1,917.86,1249.24Z"/><path class="cls-3" d="M917.85,1194.27a4.7,4.7,0,0,1-3.64-1.53c-1.43-1.61-1.83-4.29-1.3-8.67a22.83,22.83,0,0,0-.45-6.25,28.28,28.28,0,0,1-.54-6.84,24.84,24.84,0,0,0-.76-6.41c-1-4.81-2.18-10.8,3.32-14.46,4.72-3.13,10.21-5,15.51-6.81,3.2-1.09,6.51-2.22,9.6-3.61,7.17-3.24,13.55-6.28,19.51-9.3l2.9-1.48v44.23l-1,.58A314.21,314.21,0,0,1,925.53,1192C922.72,1193.15,920.06,1194.27,917.85,1194.27Z"/><path class="cls-3" d="M915.66,1145.15a4.15,4.15,0,0,1-3-1.19c-1.2-1.21-1.73-3.15-1.71-6.29a110.79,110.79,0,0,0-1.27-19.26c-.17-1-.39-2-.62-3.16-1.35-6.51-3.38-16.3,4.11-19.23,4.94-1.93,10-3.69,14.91-5.38,10.42-3.61,21.18-7.34,30.95-12.81l3-1.67v47.27l-1,.57c-12.09,6.67-25,13-39.61,19.4l-.11,0C919.16,1144.36,917.35,1145.15,915.66,1145.15Z"/><path class="cls-3" d="M915,1090.75a5.68,5.68,0,0,1-4.4-1.78c-1.64-1.8-2.18-4.73-1.73-9.48a182,182,0,0,0,.34-20.76c-.06-2.77-.12-5.64-.13-8.47V1050c0-1.67,0-4.19,3.89-5.07a84,84,0,0,0,13.35-4.58c4.19-1.74,8.49-3.43,12.64-5.07,6.71-2.64,13.61-5.36,20.21-8.34l2.82-1.28v45.43l-1.06.57c-12.71,6.74-26.49,12.28-38.64,17.18A20.44,20.44,0,0,1,915,1090.75Z"/><path class="cls-3" d="M912.36,1040.72a3.57,3.57,0,0,1-3-1.28c-1.1-1.43-.63-3.23-.29-4.55a8.64,8.64,0,0,0,.21-1,64.61,64.61,0,0,1,.48-8.17,43.19,43.19,0,0,0,.16-11.31c-.08-.55-2-13.55,3.41-18.32,3.81-3.33,8.75-5.34,13.53-7.3,2.34-1,4.76-1.94,7-3.07,3-1.54,6.12-3,9.18-4.57,5.31-2.62,10.77-5.32,16-8.12l2.94-1.56v47.92l-1.11.55c-9.34,4.62-19,8.9-28.37,13l-.11,0q-6.1,2.7-12.18,5.42a31.89,31.89,0,0,1-5.73,2A9.53,9.53,0,0,1,912.36,1040.72Z"/><path class="cls-3" d="M912.07,989c-.1-1.17-.23-2.34-.35-3.51-.28-2.67-.57-5.38-.61-8.1-.08-5.36-.07-10.8-.06-16.06,0-3.49,0-7,0-10.46,0-3.13,1-4.62,4.18-5.88,17-6.93,31.29-14.8,43.58-24.07l3.2-2.41v47.38l-1,.58c-10.14,5.94-21.28,12.06-35,19.26-2.5,1.32-5.12,2.41-7.65,3.46l-3.45,1.47-2.55,1.13Z"/><path class="cls-3" d="M911.93,938.87c-.08-2.13-.34-4.39-.59-6.57-.59-5.21-1.2-10.6.26-15.51.61-2,.13-4.57-.38-7.24-1.11-5.83-2.64-13.81,9.71-17.81,13.37-4.34,25.71-11.85,37.71-23l3.36-3.11V913l-.74.6A142.87,142.87,0,0,1,940,927.71c-5.72,3.16-11.65,6.12-17.38,9l-.2.1c-2.52,1.25-5,2.51-7.54,3.78L912.06,942Z"/><path class="cls-3" d="M917,889.65a3.74,3.74,0,0,1-2.76-1.11,5.89,5.89,0,0,1-1.32-4.44c.16-6.18.16-12.48.16-18.56,0-4.8,0-9.71.07-14.55,0-2,1.92-3.81,3-4.53,3.48-2.27,7-4.51,10.5-6.68l.1-.07c4.28-2.69,8.71-5.47,13-8.32,4.17-2.75,7.94-5.39,11.52-8.07l2.24-1.67.86,2.65c2.71,8.3,5.23,16.93,7.5,25.65l0,.18,0,.26v8.28l-.63.59c-2.94,2.78-6.12,5.7-9.46,8.66-10.6,9.4-20.76,16.15-31.06,20.62l-.31.14A8.92,8.92,0,0,1,917,889.65Z"/><path class="cls-3" d="M915,841.39c-2.5,0-3.16-1.65-3.16-2.63,0-4.81-.35-9.73-.68-14.5-1-15.36-2.14-31.23,7.25-46.61a81.86,81.86,0,0,0,6.27-12.57l1.47-3.7,2.09,3.39c4.68,7.59,13.93,24.29,23.29,50.88L952,817l-1.11.88c-8.66,6.91-17.39,13.07-27.91,20.41C920.27,840.17,917.13,841.39,915,841.39Z"/><path class="cls-5" d="M904.82,791c-2.48,0-3.65-2.56-4.68-4.81-.24-.53-.47-1-.71-1.47a22.12,22.12,0,0,1-1.66-4.92c-.19-.76-.38-1.54-.61-2.26-3.67-11.7-8.31-28.83-6.31-42.56.36-23.74,6.61-32.06,16.57-37.77a16,16,0,0,1,7.8-2.48c2.84,0,7.87,1.34,9.56,10.38,4.67,25,0,50.55-14.58,80.57C908.92,788.32,907.27,791,904.82,791Z"/><path class="cls-3" d="M893.18,886.45c-1.3-1.12-2.35-2-3.39-3-11.48-10-22-22-32.14-36.79l-.57-.84.33-1c3.39-9.59,6.9-19.24,10.45-28.68l1.42-3.8,2.15,3.44c7.15,11.51,15,20.58,23.85,27.73,1.44,1.16,4.15,4.35,3.33,6.8-2.12,6.33-1.92,12.8-1.71,19.66a86.14,86.14,0,0,1-.43,15.17l-.52,3.61Z"/><path class="cls-3" d="M894.68,836.3a221.58,221.58,0,0,1-22.75-28.39l-.58-.86.37-1c6.86-17.8,12.19-30.44,15.46-37.91l2.05-4.71,1.67,4.86c.33,1,.68,1.92,1.05,2.88,12.29,32,10,50.45,6.12,64.27l-1,3.41Z"/><path class="cls-3" d="M889.51,927.62a4.34,4.34,0,0,1-2.28-.67c-18.07-11.11-32.3-23.81-43.51-38.82l-.62-.83.32-1c3.36-10.38,6.8-20.65,10.21-30.53L855,852l2.24,3.38a149.69,149.69,0,0,0,20.55,25,28.9,28.9,0,0,0,6.38,4.16c4.42,2.35,9.42,5,10.48,11.12s.78,12.16.52,18.15c-.09,2.21-.19,4.46-.22,6.65C894.85,924.5,892.53,927.62,889.51,927.62Z"/><path class="cls-3" d="M886.75,979c-1.9,0-4.36-1.22-8-4a76.66,76.66,0,0,0-8.21-5.16c-4.12-2.36-8.38-4.8-12-8.27s-7.23-6.69-10.8-9.9c-6.11-5.49-12.43-11.17-18.17-17.27l-.78-.84.32-1.1c3.66-12.3,7.37-24.39,11-35.94l1.14-3.59,2.34,3c7.42,9.4,16.38,18,24.92,26a48,48,0,0,0,9.09,6.06c9.06,5.14,19.33,11,15.33,27.06a48.1,48.1,0,0,0-1.85,13.11c.18,4.73.16,8-1.54,9.73A3.82,3.82,0,0,1,886.75,979Z"/><path class="cls-3" d="M886,1031.65a5.21,5.21,0,0,1-2.71-.94c-14.6-8.88-30-18.87-44-31.74-7.38-6.83-15.15-14.16-21.87-22.18l-.67-.81.27-1c3-11,6.11-22,9.23-32.74l1-3.59,2.41,2.86c16.67,19.84,34.27,34,53.8,43.45a13.15,13.15,0,0,0,1.6.55c2.33.69,7.16,2.12,5.64,7.45-2.06,7.31-1.89,14.95-1.74,22.34.09,3.89.17,7.9-.05,11.88l0,.45C888.86,1028.72,888.74,1031.65,886,1031.65Z"/><path class="cls-3" d="M881.36,1080.2c-1.31-.63-2.7-1.19-4.16-1.8a44.47,44.47,0,0,1-9.71-5l-6.38-4.67c-19.7-14.37-40.07-29.24-55-49.29l-.57-.76.23-.92c2.81-11.21,5.72-22.41,8.64-33.3l1.06-4,2.47,3.28a84.5,84.5,0,0,0,8.42,9.66c13.64,13.31,27.75,27.08,44.74,36.94,1.27.73,2.73,1.44,4.27,2.2,5.11,2.49,10.4,5.07,10.8,9.58.77,8.65-.13,17.5-1,26-.34,3.38-.7,6.86-.95,10.27l-.21,2.92Z"/><path class="cls-3" d="M877.85,1130.84c-1.38-.72-2.69-1.44-4-2.13a84.35,84.35,0,0,0-7.62-3.87,226.57,226.57,0,0,1-63-40.12,119.37,119.37,0,0,1-10.09-10.52l-.67-.77.22-1c3.31-14.74,6.81-29.6,10.39-44.15l1-4,2.54,3.2c8.48,10.69,18.75,19.82,28.68,28.64a312.39,312.39,0,0,0,40.42,30.45,8,8,0,0,0,1.44-.8,5.24,5.24,0,0,1,2.73-1.08,2.59,2.59,0,0,1,1.89.79c1,1,1,2.6,1,4-.27,9.33-.84,18.84-1.38,28-.23,3.86-.46,7.7-.67,11.56l-.17,3.11Z"/><path class="cls-3" d="M877.41,1291.11a5,5,0,0,1-2-.47c-2-.82-4-1.61-6.07-2.4a124.27,124.27,0,0,1-17.45-7.85c-24.47-14.19-50.14-30.25-72.12-51.45-4.72-4.56-9.27-9.41-13.67-14.1l-.65-.68.09-.93c2.07-12.8,4.3-25.83,6.63-38.84l.7-3.9,2.72,2.87c6.69,7.06,14.25,13.52,21.56,19.77,3,2.54,6,5.16,9,7.81,16.08,14.22,33.95,25,53.95,36.61a36.74,36.74,0,0,0,7,2.74c7.43,2.39,17.6,5.66,14,21-1.56,6.73-1.17,14.17-.78,21.38.07,1.36.14,2.71.2,4.05a4.61,4.61,0,0,1-1,3.54A2.9,2.9,0,0,1,877.41,1291.11Z"/><path class="cls-3" d="M875.7,1237.59c-2.06,0-4.63-.94-8.08-3-.94-.56-1.8-1.17-2.64-1.77a21.38,21.38,0,0,0-3.24-2,247.7,247.7,0,0,1-51.16-32.59c-2.45-2-4.94-4-7.42-6.07-9.83-8-20-16.25-28.71-25.76l-.68-.73.18-1c2-10.91,4.15-22.15,6.38-33.4l.76-3.84,2.67,2.87a272.71,272.71,0,0,0,30.93,28.61c20.2,15.94,39.91,26.56,60.26,32.46,4.33,1.26,6.39,4,6.13,8.28-.24,3.89-.19,7.9-.13,11.77s.11,8.1-.14,12.17a28.53,28.53,0,0,0,.08,3.5c.2,3.42.4,7-1.56,9A4.86,4.86,0,0,1,875.7,1237.59Z"/><path class="cls-3" d="M878.11,1186.77c-3-1.37-6.08-2.66-9-3.91a199.32,199.32,0,0,1-18.64-8.7l-.74-.41c-17.54-9.7-35.69-19.74-50.07-35-4.46-4.75-9.31-9.33-14-13.76l-3.41-3.23.22-1.09c2.6-12.78,5.27-25.45,8-37.66l.83-3.79,2.6,2.88a169.7,169.7,0,0,0,22.19,20c16.2,12.54,32,22.19,48.34,29.48a33.48,33.48,0,0,0,4.32,1.46c5.06,1.48,11.35,3.32,11.92,10.45.77,9.59.61,19,.45,29-.07,4.08-.14,8.3-.14,12.51v3.1Z"/><path class="cls-3" d="M875.62,1346.68a12.43,12.43,0,0,0-1.54-.27c-1.76-.26-3.75-.54-4.59-2.16-1.67-3.24-4.84-4.44-8.2-5.7-1.14-.43-2.22-.84-3.28-1.34-24-11.35-44.83-27.89-64.93-43.88-4.72-3.76-9.57-7.61-14.36-11.33-7.56-5.86-14.05-12.79-19.93-19.4l-.62-.69.13-.92c1.69-12,3.57-24.48,5.58-37.21l.67-4.2,2.81,3.19c1.73,2,3.37,3.7,5,5.3,17.37,17.11,33.9,30.52,50.52,41,3.63,2.3,7.24,4.76,10.73,7.15,11.95,8.17,24.3,16.62,39.25,19.15,7.57,1.28,7.35,7.33,7.19,11.75v.35c-.18,5.36-.15,10.84-.13,16.15,0,4.33.05,8.8,0,13.22a23.54,23.54,0,0,1-1.14,5.9c-.23.8-.47,1.63-.65,2.42l-.46,2Z"/><path class="cls-3" d="M871.14,1607.33a4.49,4.49,0,0,0-.54-.26,7.22,7.22,0,0,1-1.88-1.14c-13.23-12-28.86-26.14-44.34-40.37-1.43-1.34-1.1-4.22-.26-5.55,1.37-2.21,2.84-4.4,4.26-6.52,2-3,4-6,5.79-9.08a203.34,203.34,0,0,0,21.63-52.53c.32-1.26-.49-3.29-1.2-5.08l-.37-.93a6.75,6.75,0,0,0-1.13.64c-3.38,12-8.51,23.5-13.47,34.58-2.23,5-4.53,10.12-6.63,15.22-5.18,12.58-9.27,17.47-14.59,17.48-2.39,0-4.89-1.09-7.66-3.32-13.68-11.06-14.77-18.38-4.86-32.64,10.4-15,18.57-32.95,25-54.95,3.75-12.89,6-26.5,8.27-39.66.49-2.92,1-5.78,1.47-8.64.23-1.33-.56-3.22-1.33-5-.1-.25-.21-.51-.32-.76-1.63,5.19-3,9.91-4.06,14.41s-2.1,9-3.07,13.44c-2,9.1-4.08,18.48-7,27.47-4.69,14.55-10.87,28.5-16.3,40.24l-.41.88c-3.46,7.51-7.37,16-13.87,20.58a4.25,4.25,0,0,1-2.49.83c-3.22,0-5.55-3.63-8-7.47a41.54,41.54,0,0,0-3-4.28,2.39,2.39,0,0,1-2.13-1.4c-.64-1.49-2.18-2.93-3.67-4.33-3.41-3.2-7.65-7.18-3.74-14.06,2.24-3.93,4.83-7.69,7.34-11.32a127.45,127.45,0,0,0,8.54-13.6,230.86,230.86,0,0,0,16.65-41c6.22-21.3,9.08-38,9.28-54.06a6.64,6.64,0,0,0-.16-2h-.11a3.73,3.73,0,0,0-1.72,1.82c-1.52,6.65-2.95,13.42-4.33,20-1.71,8.09-3.47,16.41-5.41,24.57-5.66,23.74-16.53,44.69-27.18,64.12-3.46,6.32-6.75,9.27-10.37,9.27s-6.74-2.85-9.85-8.7a33.81,33.81,0,0,0-5.23-6.59c-5.56-6-12.48-13.37-1.14-24.62a50,50,0,0,0,7.73-10.92c8.74-15.45,18.5-33.59,23.66-53.39,2.8-10.7,5.42-21.94,8-34.35a4.34,4.34,0,0,0-.65-1.63c-1.43,4.31-2.84,8.64-4.25,13-1.71,5.22-3.46,10.58-5.22,15.85-1.07,3.18-2.12,6.45-3.13,9.61a266.58,266.58,0,0,1-9.2,25.72,173.74,173.74,0,0,1-16.17,28.43,56.59,56.59,0,0,0-3.17,5.86c-2.53,5.12-4.53,9.16-7.55,9.16a3.24,3.24,0,0,1-1.77-.53c-8.67-5.53-15.33-14.1-21.77-22.39l-.2-.25a4.27,4.27,0,0,1-1-3.21c.26-2,1.92-3.29,3.53-4.53a9.33,9.33,0,0,0,2.21-2.07,175,175,0,0,1,11.28-17.27l1.12-1.58c7-9.87,12.28-21.28,17.4-32.31l.06-.11c8.47-18.28,11.6-38,13.38-53,0-.5-1.07-2-1.67-2.73l-.19-.24-.31.3c.48,4.86-1.17,9-2.76,12.94a48,48,0,0,0-2,5.72c-.81,3.22-1.45,6.6-2.07,9.86-1.2,6.33-2.44,12.87-5,18.84-7.09,16.43-16.66,31.81-25.92,46.67l-.07.13c-2.1,3.37-4.2,6.74-6.27,10.12-2.27,3.71-4.11,5.29-6.15,5.29s-3.39-1.62-4.66-3.19c-.35-.43-.7-.86-1.08-1.28a109,109,0,0,1-8.54-10.81c-.52-.76-1.15-1.63-1.82-2.54-4.54-6.28-6.65-9.39-5-11.48,2.28-2.83,4.4-5.87,6.45-8.8,1.55-2.23,3.16-4.53,4.85-6.76,13.31-17.58,23-37.6,29.49-61.18,2.45-8.85,5.39-20.59,6.4-32.88l.3-3.68,2.91,2.26c6.59,5.09,11.37,9,14.18,11.28,1.27-10.12,2.63-20.37,4-30.5l.63-4.52,2.9,3.53c5.06,6.18,9.46,11.1,13.87,15.52,5.23,5.23,11.54,9.67,17.64,14a160.52,160.52,0,0,1,15.73,12.07c17.46,15.91,31.84,25.71,46.62,31.75l1.49.61c21,8.57,23.67,9.67,23.08,35.91,0,.65,0,1.29,0,1.92,0,2.74-1.65,3.7-3.07,3.7a4.58,4.58,0,0,1-2-.53l-8.12-4c-19.59-9.51-39.85-19.35-57.52-33.39a34.46,34.46,0,0,1-4.22-4.41c-1.64-1.92-4.11-4.82-5.26-4.82-.11,0-.26.15-.37.27a3.6,3.6,0,0,0-1.2,2.66c.19,2,3.24,4.39,5.69,6.28a40.57,40.57,0,0,1,3.33,2.72c17.58,16.68,39.05,27.41,57.73,35.71,1.29.57,4.85,2.44,7.94,4.31,5.3,3.2,6.83,4.85,6.09,6.54-2.48,5.71-1.74,11.77-1,17.62a60.87,60.87,0,0,1,.66,10.91c-1.75,28.6-2.19,59.88-1.34,95.64.73,30.59.78,56.26-1.31,82.16a11.68,11.68,0,0,1-.6,2.63c-.09.32-.19.61-.27.91l-.65,2.46Z"/><path class="cls-4" d="M823.75,1618l-.6-.73c-9.47-11.44-20.68-25-32.06-38.61-5.09-6.1-10.32-12.24-15.38-18.18-8.9-10.45-18.11-21.26-26.86-32.18s-17.39-22.49-25.68-33.59c-3.83-5.13-7.78-10.42-11.7-15.6-2.49-3.27-5-6.53-7.48-9.68-5.34-6.83-10.84-13.89-15.82-21.16-4.56-6.65-8.89-13.6-13.08-20.31-4.09-6.56-8.3-13.31-12.7-19.76s-9-12.66-13.54-18.76c-5.76-7.79-11.72-15.83-17.09-24.1-10.32-15.91-20.73-33.23-33.75-56.17a46.66,46.66,0,0,0-3.53-5.08c-3.24-4.25-6.91-9.08-7.62-16.76l-.71-7.68,4.35,6.36c2.75,4,5.32,7.86,7.8,11.59,5.21,7.82,10.11,15.17,15.41,22.07,15,19.62,30.64,39.31,45.74,58.35l13.88,17.48c13.45,17,27.36,34.52,41.39,51.46,4.06,4.9,8.59,9.6,13,14.14s8.63,8.93,12.63,13.69c6.94,8.26,13.77,16.79,20.38,25,10.85,13.56,22.07,27.58,33.93,40.58,14.6,16,30.44,31.44,45.76,46.35,5.85,5.69,11.89,11.57,17.78,17.4,3.53,3.49,7.52,7.45,11.94,10.13l6.1,3.71Z"/><path class="cls-3" d="M711.64,1618v-6.28h2a305.41,305.41,0,0,0,66.44-7.1c1.61-.36,3.31-.63,5-.88,4.9-.77,10-1.56,12.72-4.76l1.49-1.73L817.92,1618Z"/><path class="cls-3" d="M199.85,1618l-.39-1.5c-.46-1.79-1.82-7.88.26-11.11a4.33,4.33,0,0,1,3-2,68,68,0,0,1,11.41-.88,181.2,181.2,0,0,1,19,1.33,237,237,0,0,0,25.39,1.28c15.63,0,31.26-1.3,44.5-2.57a500.91,500.91,0,0,0,66.19-11.12A223.51,223.51,0,0,0,440,1561.65l.81-.48c1.36-.81,2.07-1.34,2.16-1.62a.91.91,0,0,0-.08-.16,1.77,1.77,0,0,0-1.8-.92,8.28,8.28,0,0,0-3.22.86c-2.87,1.38-5.73,3-8.5,4.57a102.27,102.27,0,0,1-13.06,6.58,396.09,396.09,0,0,1-53.67,17c-24.22,5.68-50.08,9.41-81.41,11.72-8.57.63-17,.72-24.19.72l-8.22,0h-.26q-4,0-7.93,0c-5.45,0-9.86.06-13.87.19l-.59,0c-3.71.12-6.91.22-9.63.22-17.27,0-17.31-5.25-17.49-27.37v-1c0-.81,0-1.61-.05-2.35-.11-1.28-.24-2.73.76-3.81a3.71,3.71,0,0,1,2.86-1c.45,0,1,0,1.66.11l5.43.61c14,1.58,28.54,3.22,42.78,3.38h.79a146.91,146.91,0,0,0,19.25-1.72,170.89,170.89,0,0,1,17.49-1.72c18.85-.56,37.22-5.46,55-10.2,4.85-1.3,9.84-2.63,14.77-3.85,16-4,31.36-11.35,47-19.21l5.9-2.92.09,0c11.89-5.86,23.12-11.39,32.67-20.26.18-.17.4-.35.62-.54a11.56,11.56,0,0,0,1-1,4.6,4.6,0,0,0-1.33-.17,4,4,0,0,0-1.56.26c-5.05,2.56-10.16,5.21-15.1,7.77l-.18.09c-24.06,12.47-48.93,25.37-76.42,32.24-5,1.26-10.14,2.61-15.08,3.92-17.8,4.72-36.17,9.59-54.74,11-6.74.5-13.94.75-22,.75-10.38,0-20.93-.41-31.13-.8-7.38-.28-15-.57-22.45-.71-3-.06-5-.77-6.34-2.22s-2-3.74-1.86-7a304.66,304.66,0,0,0-.4-31.21,4.5,4.5,0,0,1,.93-3.4,3,3,0,0,1,2.2-.91,6.34,6.34,0,0,1,1.08.12,1.57,1.57,0,0,0,.32,0h1.47a172.91,172.91,0,0,1,19.18,1.42c4,.44,8.06.89,12.06,1.15,8.09.52,16.43.79,24.8.79,9.44,0,19-.32,29.16-1,26-1.66,51.16-8.21,72.69-14.22,21.87-6.09,44.69-14,63.36-30.39a12.61,12.61,0,0,1,2.94-1.74,8.31,8.31,0,0,0,2.43-1.48,3.72,3.72,0,0,0-.52-.82,1.58,1.58,0,0,0-1.37-.62c-1.79,0-4.45,1.56-6.58,2.81l-.31.18c-2.71,1.58-5.43,3.23-8.06,4.82-8.61,5.23-17.52,10.63-27,14.42-7.89,3.16-16.26,5.32-24.35,7.4-6,1.55-12.19,3.15-18.1,5.14-11.82,4-24.11,5.94-36,7.84-3.94.63-8,1.27-11.9,2a156.59,156.59,0,0,1-28,2.21c-8.85,0-17.82-.5-26.49-1s-17.54-1-26.26-1c-1.11,0-2.21,0-3.32,0h-.68c-5.75,0-9.43-1.23-11.59-3.85s-2.6-6.23-1.6-11.34a11.51,11.51,0,0,0-.23-3.72l-.08-.5c-1.37-8.41-1-12.77,1.41-15.57,1.69-2,4.27-2.92,8.09-2.92a51.12,51.12,0,0,1,9.07,1.06,76.21,76.21,0,0,0,14.07,1.18c3.7,0,7.78-.2,12.5-.6,10.73-.91,21.61-2.32,32.13-3.68,5.42-.7,11-1.42,16.47-2.07,22.53-2.65,40.56-6.23,56.72-11.25,4.22-1.31,8.54-2.59,12.71-3.82,12.88-3.81,26.18-7.74,38.47-13.23,3.77-1.68,7.74-3.1,11.58-4.48,10.21-3.66,20.75-7.45,28.09-16.31.26-.32.55-.61.84-.91a6.84,6.84,0,0,0,.72-.81,2.64,2.64,0,0,0-.18-.31,2.37,2.37,0,0,0-.38-.45,8.45,8.45,0,0,0-1.45.71l-1.82,1c-5.78,3.28-11.77,6.68-18.13,8.94-5.72,2-11.44,4.39-17,6.66-10,4.1-20.32,8.34-31.19,11-9,2.18-18,4.8-26.78,7.33-11.74,3.39-23.86,6.89-36,9.41-8.93,1.84-18.18,2.58-27.11,3.31-7.87.63-16,1.28-23.77,2.68a141.73,141.73,0,0,1-25.24,1.92c-4.86,0-9.75-.14-14.48-.27s-9.6-.27-14.36-.27h-2.17a3.63,3.63,0,0,1-2.94-1,3,3,0,0,1-.51-2.59c0-.09,0-.18,0-.27-.25-2.65-.84-5.61-1.41-8.47-1.38-6.94-2.81-14.12,0-19.45.62-1.16-.63-4.35-1.53-6.68-1.47-3.77-3-7.67-1.06-10.48,1.18-1.72,3.32-2.56,6.54-2.56a34.05,34.05,0,0,1,6.43.75,10.85,10.85,0,0,1,2.84,1.11,7.22,7.22,0,0,0,1.86.75c20.65,3,37.45,4.37,52.86,4.37,6.1,0,12.09-.23,17.81-.67,4.12-.32,8.28-.59,12.3-.85,16.28-1,33.11-2.13,49.12-6.69,4.44-1.27,9-2.36,13.41-3.41,8.33-2,16.92-4,24.79-7.29,18.26-7.52,37.15-15.29,53.09-28.68.66-.55,1.33-1.06,2-1.57a23.52,23.52,0,0,0,3.33-2.89,20.17,20.17,0,0,0-6,2.3c-16.19,11.1-33.89,18.63-50.61,25.12A276.46,276.46,0,0,1,307,1422.47l-5.3.46c-10.35.89-21,1.81-31.72,1.81a148.56,148.56,0,0,1-19.21-1.16c-6.65-.86-13.55-1.28-20.21-1.69-9.23-.57-18.78-1.15-28.12-2.89-.37-.07-.74-.12-1.11-.17-1.9-.25-4.75-.64-5.79-3.77a7.62,7.62,0,0,1,1.75-8.37c2.14-2.08,4.16-4.4,6.12-6.64,1.43-1.64,2.91-3.32,4.44-4.94a80.41,80.41,0,0,0,5.41-6.65c4.72-6.25,9.6-12.7,16.9-13.43,1.34-.13,2.74-.2,4.16-.2,6.6,0,13.32,1.43,19.83,2.81a132.27,132.27,0,0,0,14.51,2.52c2.79.26,5.58.56,8.39.85,9.53,1,19.36,2,28.9,2a107.94,107.94,0,0,0,11.72-.59c4.31-.46,8.67-.82,12.9-1.17,12.36-1,25.15-2.08,37.47-5.69l3.23-.94c15.75-4.58,30.62-8.91,42.37-20.44a11.74,11.74,0,0,1,1.37-1.07c.13-.09.3-.2.47-.33h-.06a6.31,6.31,0,0,0-2.83.62c-7.48,4.52-15.59,7.51-23.44,10.4l-3.46,1.28c-28.34,10.56-57.82,11.83-85.59,12.22H298c-12.14,0-24.2-1.43-35.86-2.81-7.88-.94-16-1.91-24.06-2.41-2.27-.16-3.74-.92-4.37-2.27-.4-.86-.58-2.29.82-4.2,2.75-3.72,5.82-7.24,8.8-10.64,5.47-6.27,11.13-12.75,14.71-20.53,1.52-3.28,6.82-8.7,10-8.7a3,3,0,0,1,1.08.19c9.27,3.54,19.21,3.81,28.82,4.06,3.54.1,7.17.2,10.72.46,8.37.61,15.9.9,23,.9,18.35,0,34.38-2,49-6.18,4.43-1.26,8.92-2.44,13.27-3.57,15.67-4.11,31.88-8.35,46.27-16.69a4.46,4.46,0,0,0,1.35-1.48,1.47,1.47,0,0,0-1.26-.8,1,1,0,0,0-.47.12c-3.69,2.3-7.64,3.16-11.46,4-1.23.27-2.5.54-3.72.86-8.82,2.29-17.74,4.86-26.36,7.35l-.52-1.41.41,1.44c-6.74,2-13.7,4-20.6,5.83-16,4.33-31.87,4.91-45.3,4.91-4.59,0-9.22-.07-13.54-.16-6.49-.13-13-.49-19.37-.84-7.19-.4-14.62-.82-21.93-.88H277c-1.59,0-3.77,0-4.76-1.81s.08-3.84,1-5.26l1.45-2.35c4-6.45,8.07-13.13,13.7-18.73a17.65,17.65,0,0,0,2.75-4.63c1.57-3.32,3.2-6.75,6.79-6.75a5.1,5.1,0,0,1,.86.08,146,146,0,0,0,14.85,1.46c2.87.19,5.81.38,8.66.66,4.64.46,9.56.69,14.63.69,16.25,0,32.8-2.36,48.8-4.64l3.29-.47c20.43-2.9,44.1-7.63,64.84-20.74l.88-.55c3-1.86,6.11-3.79,5.92-6.66v0l-.32,0a7,7,0,0,0-2.94.87c-25,15.21-54.35,19.85-78,23.58-12.82,2-26.88,3-44.24,3-9.77,0-19.67-.29-29.25-.57-1.58,0-3.37-.09-4.19-1.59s.19-3.37.83-4.44c2.48-4.17,4.88-8.49,7.19-12.67,2.69-4.84,5.45-9.83,8.37-14.63,1.51-2.49,5-6.24,8.38-6.31,21.47-.46,42.35-3.35,67.1-7.53,24.56-4.15,45.26-13.94,62.26-23l3.32-1.76-.39,3.74c-.47,4.45-.93,8.65-1.39,12.72,8.55-9.84,27.68-29.48,51.47-39.26l1.63-.67.87,1.53a139.84,139.84,0,0,0,16.24,22.35c2.58,3,6,5.32,9.31,7.59,4,2.73,7.71,5.3,10.27,8.93,3.15,4.48,5.38,9.62,7.53,14.58,2.72,6.28,5.53,12.78,10.29,18l3.65,4.05-5.41-.73c-1.18-.16-2.3-.24-3.38-.32a19.6,19.6,0,0,1-6.36-1.16c-18.63-7.87-37.66-17.75-61.69-32a7.69,7.69,0,0,1-1.93-1.93,9.6,9.6,0,0,0-1-1.21,4,4,0,0,0-.67.83,3.18,3.18,0,0,0-.63,2.47c.23,1.11,1.3,2.33,3,3.43a304,304,0,0,0,32.88,18.12c3.16,1.53,6.25,3.23,9.24,4.88,9.56,5.25,18.58,10.2,29.56,10.2.74,0,1.49,0,2.23-.07h.18a4.8,4.8,0,0,1,4,2.19c1.83,3.48,3.64,7,5.39,10.46,1.64,3.22,3.32,6.53,5,9.75a21.75,21.75,0,0,0,2,3c.38.51.77,1,1.13,1.54l4.32,6.13-6.79-3.17c-.55-.25-1.09-.54-1.63-.83a10.88,10.88,0,0,0-2.79-1.22c-28.13-5.85-53.9-19.22-76.64-31a13.6,13.6,0,0,1-1.69-1.09,8.16,8.16,0,0,0-1.65-1,1.75,1.75,0,0,0-.25.33c-1.19,1.86.26,3.73,1.86,4.76,20.29,13.11,41.93,21.22,68.12,30.47a35.92,35.92,0,0,0,8.07,1.46c5.55.57,11.84,1.22,16,6.81a137.39,137.39,0,0,1,9.48,15.13c1.32,2.34,2.69,4.75,4.13,7.15l2.43,4-4.59-1.06c-4.91-1.14-9.92-2-14.76-2.87-11.11-1.95-21.61-3.79-31.06-8.46-9-4.43-18.35-8.38-27.43-12.19-11.84-5-24.07-10.11-35.58-16.42h0s-.17,0-.42,0a4.5,4.5,0,0,0-2.28.62.35.35,0,0,0-.06.13c0,.16.44.78,1.82,1.56l3.23,1.82c4.34,2.47,8.79,5,13.3,7.06,3.84,1.77,7.67,3.59,11.5,5.4,18.75,8.86,38.14,18,59,22.12,2.56.5,5.37.81,8.09,1.11,6.83.76,13.89,1.54,18.91,5.36,6.43,4.9,10.65,12.55,14.72,20,1.13,2,2.29,4.16,3.46,6.13a2.81,2.81,0,0,1-2.6,4.52,12.75,12.75,0,0,1-2.71-.39c-3.14-.71-6.28-1.44-9.42-2.17-4.77-1.12-9.71-2.27-14.62-3.34s-10.11-1.93-15.09-2.75c-11.1-1.84-22.58-3.74-32.89-8.2-6.56-2.84-13.55-5.07-20.3-7.23-11.23-3.58-22.82-7.29-33.16-13.93a12.9,12.9,0,0,0-5.29-2,10.63,10.63,0,0,0-1.19-.08,5,5,0,0,0-1,.09,4.92,4.92,0,0,0,1.49,1.83,108.62,108.62,0,0,0,17.58,10.49,237.43,237.43,0,0,0,48.68,16.39q8,1.85,16,3.74c12.26,2.89,24.94,5.88,37.53,8.43a19.06,19.06,0,0,0,3.82.32c1.26,0,2.62-.07,3.82-.13s2.7-.15,4-.15c4,0,9.08.62,12.78,5.43,6.25,8.16,12.07,16.61,18.24,25.55,2.7,3.93,5.47,7.94,8.37,12.07l2.54,3.62-4.4-.48c-5-.55-9.86-1.16-14.59-1.75-10.66-1.33-20.67-2.58-30.76-3-15.48-.7-30.43-4.51-44.89-8.2-3.51-.89-6.95-1.77-10.39-2.61a260.93,260.93,0,0,1-71.13-29.09,4.75,4.75,0,0,0-2.3-.71,2.14,2.14,0,0,0-1.85,1,2.22,2.22,0,0,0-.31.56,7,7,0,0,0,1.52.93l.58.31c3,1.64,6.06,3.23,9,4.77,3.27,1.7,6.65,3.46,9.94,5.27,24.5,13.48,51.71,20.73,75.28,26.48a329,329,0,0,0,78.7,9.21h.82a7.18,7.18,0,0,0,1.29-.19,9.87,9.87,0,0,1,2-.27,5,5,0,0,1,4.33,2.49c3.92,5.89,8,11.86,11.91,17.63q4.49,6.58,8.9,13.13a30.68,30.68,0,0,1,2.17,4.06c.27.58.52,1.12.79,1.66l1.14,2.24-2.44.6-.43.12a6.82,6.82,0,0,1-1.83.36c-7.39.3-14.73.46-21.8.46-33.66,0-64-3.4-92.59-10.38A480.91,480.91,0,0,1,487,1419.42a16.39,16.39,0,0,1-3.2-2.18c-1.14-.91-2.87-2.29-3.77-2.29-.23,0-.5.24-.78.74a2.36,2.36,0,0,0-.46,1.73c.3,1,2.32,2.12,4.1,3.08,1,.53,2,1.08,3,1.71,6,4,12.57,6.21,19.48,8.49,1.49.49,2.89,1,4.29,1.43,5.62,1.92,11.17,4.26,16.54,6.51a194,194,0,0,0,22,8.22c9.64,2.72,19.71,4.66,29.45,6.54,6.59,1.27,13.41,2.58,20.07,4.13a212.36,212.36,0,0,0,48.54,5.23c7.66,0,15.51-.32,24-1a47.42,47.42,0,0,0,6-1,41.5,41.5,0,0,1,8.59-1.24,12.61,12.61,0,0,1,9.44,3.68c5,5,8.87,11.07,12.64,16.94,1.67,2.6,3.39,5.28,5.18,7.81.6.85,2,2.85,1.26,4.81-.67,1.77-2.6,2.4-4,2.73-14,3.28-29.63,4.81-49.18,4.81-8.42,0-16.72-.26-24.51-.53a381.78,381.78,0,0,1-75.42-10.26c-21.9-5.25-42.69-13.53-62.79-21.53-.92-.37-1.9-.86-2.94-1.38-2-1-4.39-2.19-5.94-2.19a1.18,1.18,0,0,0-1.22.66.77.77,0,0,0-.14.4c.26.81,3,2.06,4.46,2.73a31.11,31.11,0,0,1,3.32,1.66c12,7.27,25.1,12,37.77,16.64,17.33,6.3,35.61,9.93,51.2,12.64,11.12,1.93,22.54,3,33.59,4.08l3.14.3c12.18,1.18,24,1.77,35.28,1.77a287.41,287.41,0,0,0,46.63-3.64,47.48,47.48,0,0,0,5.9-1.59c3-.92,5.74-1.78,7.92-1.78a4.64,4.64,0,0,1,3.39,1.19c8.35,8.25,15.34,18,22.09,27.46l1.51,2.1c.14.19.48.57.81.94,1.59,1.75,3.57,3.93,2.87,6.19a3.6,3.6,0,0,1-2.88,2.36,254.49,254.49,0,0,1-39.2,6.24c-14.81,1.11-30.66,2.12-46.2,2.12-3.94,0-7.81-.06-11.51-.19-28.14-1-55.17-6.19-77.9-11.16-26.55-5.8-51.83-16.21-74.14-25.4a13.21,13.21,0,0,1-2.88-1.81,9.56,9.56,0,0,0-1.92-1.27l.55.83c1.39,2.11,2.83,4.28,4.56,5.17a319.06,319.06,0,0,0,72,26.38c22.32,5.39,46.44,10.51,71.63,11.5,10.18.4,20.39.6,30.36.6,10.68,0,21.37-.23,31.78-.69a139.37,139.37,0,0,0,19.43-2.75c5.23-1,10.63-2,16-2.55a15.61,15.61,0,0,0,5-1.92c2.24-1.14,4.79-2.43,7.55-2.43,3.3,0,6.22,1.79,8.93,5.47,6,8.18,12.88,16,19.53,23.53,4,4.56,8.16,9.27,12.09,14a16.89,16.89,0,0,1,2.83,6.43c.25.91.51,1.85.82,2.68l.87,2.33-2.46.35c-.76.11-1.53.15-2.27.19a8.83,8.83,0,0,0-3.53.62c-2.84,1.65-5.81,1.71-8.44,1.77a16.49,16.49,0,0,0-4.74.52c-18.52,6-37.49,6.78-52,6.78-3.59,0-7.39-.06-12-.17-24.45-.6-50.46-1.6-76-6.41-6.7-1.27-13.58-2.26-20.25-3.22-9.46-1.36-19.24-2.77-28.79-5-14.4-3.38-28.38-8.55-41.9-13.55-12-4.44-24.44-9-37-12.3a8,8,0,0,1-2.15-1.08,7.38,7.38,0,0,0-1.25-.71,2.66,2.66,0,0,0-.21.36,1.1,1.1,0,0,0-.13.94,4.8,4.8,0,0,0,2.54,2.07c3.62,1.62,7.46,3,11.17,4.37,2.82,1,5.73,2.1,8.59,3.27,18,7.4,37.45,15,57.93,20.73a147.12,147.12,0,0,0,18.81,3.48,161.35,161.35,0,0,1,17.07,3c21.35,5.36,43.46,7.06,64.83,8.69l4.18.33c9,.7,18.12,1,27,1h2V1618Z"/><path class="cls-3" d="M684.91,1397.76a8.36,8.36,0,0,1-5-2.12c-3.07-2.42-5-5.55-6.94-8.58-2.36-3.75-4.4-7-8.19-8.92a6.22,6.22,0,0,1-3.07-4.46,8,8,0,0,1,1.92-6.88c7-7.87,11.64-17.45,16.15-26.72,2-4,4-8.16,6.16-12.14,6.5-11.82,9.07-25.57,11.56-38.86l.18-.93c1.37-7.36,2.79-15,3.46-22.41l.3-3.44,2.84,2c8.88,6.22,17.54,12.49,25.73,18.64l.84.63,0,1c-.88,21.05-6.8,40.55-15.42,63.36-3.66,9.67-9.08,18.38-14.32,26.82a206.06,206.06,0,0,0-10.95,19.09C688.87,1396.45,687.12,1397.76,684.91,1397.76Z"/><path class="cls-3" d="M656.55,1366.23c-.85-.82-1.81-1.63-2.75-2.41-2.29-1.9-4.65-3.88-6-6.55a40.84,40.84,0,0,0-3.25-4.91c-4.2-5.77-9.43-12.93.53-23.58,6.87-7.34,9.69-18.23,12.42-28.76.82-3.17,1.66-6.43,2.61-9.56,5.16-17.15,8.36-31.66,10-45.64l.39-3.18,2.69,1.74c7.6,4.92,15.35,10.08,23,15.34l1,.69-.16,1.21-.12,1.14c-2.28,22.72-6.15,40.51-12.2,56-4,10.26-9.14,20.21-14.11,29.83-1.56,3-3.12,6-4.64,9.07a42.53,42.53,0,0,1-4.37,6.51c-.7.91-1.41,1.85-2.06,2.77l-1.35,1.91Z"/><path class="cls-3" d="M633.35,1335.84c-1-1.09-2-2.16-3-3.23-2.5-2.62-5.07-5.33-7.38-8.23-3.81-4.77-6.39-8.34-5-10.79a149.34,149.34,0,0,0,17.8-45.93q.51-2.58,1-5.16c2.32-11.45,4.7-23.23,5.66-34.9l.26-3.22,2.77,1.67c7,4.24,13.63,8.35,19.68,12.2l1.08.68-.23,1.79a192.56,192.56,0,0,1-3.88,22.78c-4.94,19.43-10,37.2-15.56,54.3-1.45,4.5-4.12,8.54-6.71,12.45-1.14,1.72-2.31,3.49-3.33,5.24l-1.37,2.33Z"/><path class="cls-3" d="M613.56,1309.81c-2.31,0-3.25-2.36-3.95-4.08a11.43,11.43,0,0,0-.79-1.71c-2.57-.9-4.07-4.06-5.39-6.86-.2-.43-.39-.84-.58-1.22a25.07,25.07,0,0,0-3.32-4.6c-3-3.61-6.78-8.11-4-14.21,10-22.13,15.92-44.56,17.47-66.68l.23-3.15,2.75,1.55c7.06,4,14.19,8.07,21.19,12.21l1.1.65-.13,1.28c-.27,2.63-.6,5.06-1,7.42-.77,4.54-1.49,9.16-2.19,13.62-2.73,17.48-5.54,35.55-12.24,52.58a62,62,0,0,1-4.31,9C617.16,1307.69,615.63,1309.81,613.56,1309.81Z"/><path class="cls-3" d="M589.15,1274.13c-.31-.3-.65-.58-1-.86a12,12,0,0,1-2.58-2.71l-1-1.58c-5.64-9-11.48-18.23-6-32,2.8-7.12,3.34-15.41,3.87-23.43a144.89,144.89,0,0,1,1.53-15.1c.2-1.12.36-2.26.5-3.49l.34-2.89,2.57,1.35c6.73,3.5,13.54,7.14,20.25,10.83l1.13.61-.09,1.28a228,228,0,0,1-13.87,62.73,22.2,22.2,0,0,1-1.72,3.41c-.27.47-.53.92-.77,1.38l-1.24,2.33Z"/><path class="cls-3" d="M570.25,1242.55c-.36-.22-.75-.41-1.15-.61a9.08,9.08,0,0,1-3.23-2.27c-9.33-11.65-11.55-25.66-13.69-39.22-.28-1.74-.55-3.47-.84-5.19-1-6-2-11.84-3.17-17.68l-.78-3.88,3.59,1.68c9.12,4.28,18.18,8.7,26.94,13.15l1.12.57,0,1.26a363.64,363.64,0,0,1-4.14,47.13,10.14,10.14,0,0,1-1.23,3.14c-.2.36-.37.69-.53,1l-.93,2.06Z"/><path class="cls-5" d="M545,1219.94c-4,0-6.36-3.4-7.93-5.66-.4-.57-.78-1.11-1.1-1.48l-2.66-3-.13-.16c-9.42-10.74-19.16-21.86-23.14-36.26a32.62,32.62,0,0,0-2.35-5.59c-2-4.14-4.32-8.81-2.48-14.27a21.39,21.39,0,0,1,3.2-15.65c2.76-4.13,7.53-8.3,12-8.3a6.7,6.7,0,0,1,2.07.33c3.6,1.23,6.81,5.25,10.11,12.64,7.43,16.71,11.18,34.66,14.81,52,1,4.93,2.09,10,3.22,15l.2.81c.58,2.32,1.8,7.15-2.88,9A8,8,0,0,1,545,1219.94Z"/><path class="cls-5" d="M422.24,1003.37l-.36-1.73a40.75,40.75,0,0,1-.77-4.29,43.87,43.87,0,0,1-.08-4.77c0-1.34,0-3.06,0-5.4v-.12c1.71-22,7.46-41.09,17.11-56.66,1.58-2.56,7.46-10.9,16.69-10.9a15.33,15.33,0,0,1,3.49.41c10.78,2.56,10.77,11.43,10.77,18.56,0,1,0,2.08,0,3.09.39,13.42-7.34,22.12-14.81,30.53-2.29,2.58-4.66,5.25-6.71,8A195.11,195.11,0,0,1,434.83,995c-1.68,1.83-3.37,3.65-5,5.5a33.49,33.49,0,0,1-3,2.87c-.42.38-.85.75-1.26,1.14l-2.64,2.44Z"/><path class="cls-3" d="M379.71,1138c.32-.9.63-1.81.94-2.71.8-2.39,1.62-4.81,2.65-7.14a22.3,22.3,0,0,1,4.26-6.65c2.17-2.14,3.17-5.29,4.24-8.62,2-6.12,4.18-13.07,14.26-14.59,9.18-1.38,19.13-4.46,30.42-9.41,9.91-4.35,19.41-9.42,26.58-13.34l3-1.63v3.39c0,12.1-.23,24.34-.6,36.36l0,1.23-1.12.52c-22.3,10.39-41.06,18.67-62.39,22.77-4.54.88-9.18,1.34-13.68,1.8-2.12.21-4.24.42-6.35.68l-3.2.38Z"/><path class="cls-3" d="M401.53,1092.77c-.48-3.62,1-6.5,2.38-9,.38-.72.78-1.47,1.11-2.2a32,32,0,0,0,1.44-4.31c.73-2.61,1.5-5.3,3.23-7.46,1.53-1.91,2.08-4.32,2.72-7.11,1.27-5.55,2.72-11.85,12.74-14.39,11.84-3,23.64-8.44,37.13-17.16l3-1.92.12,3.53c.37,11.41.59,23.28.65,35.28v1.12l-.95.59c-14.8,9.19-30.67,15.75-49.95,22.76a34.38,34.38,0,0,1-7.89,1.57c-1.16.13-2.3.27-3.39.45l-2,.34Z"/><path class="cls-3" d="M353.71,1186.57q2.4-4.3,4.64-8.44c3.46-6.31,6.71-12.26,10.25-18.11a22.67,22.67,0,0,0,1.91-4.88c1.27-4.11,2.71-8.76,7.88-9.73s10.21-1.69,15.18-2.42c11.44-1.67,23.26-3.4,34.45-7.56l.77-.29c11.1-4.12,22.59-8.39,33.46-13.35l2.95-1.35-.12,3.25c-.51,13.46-1.24,27.11-2.15,40.55l-.09,1.25-4,1.61c-8.32,3.36-16.91,6.83-25.58,9.65-26.85,8.74-54.34,11.37-77.68,12.79l-3.64.22Z"/><path class="cls-3" d="M423.39,1044.4a3.24,3.24,0,0,1-3.45-3.31c-.23-12.83,2.38-23.14,7.78-30.65,5.17-7.2,11.28-13.84,17.19-20.27,4.54-4.95,9.24-10.06,13.43-15.34l3.08-3.89.48,4.94c.74,7.62,2.12,23.81,3.08,46.56l0,1.12-.94.62c-8.76,5.87-18.36,11.85-29.18,15.82-.94.34-2.2,1-3.53,1.59C428.36,1043,425.52,1044.4,423.39,1044.4Z"/><path class="cls-3" d="M326.79,1234.83c1.43-2.5,2.78-4.89,4.07-7.19l.07-.12c3-5.36,5.86-10.39,8.82-15.23,1-1.65,2-3.62,3-5.51,2.77-5.47,5.63-11.11,10.34-12.84,6-2.19,12.65-2.28,19.09-2.36a94,94,0,0,0,11.8-.64l3.22-.46c14.37-2,29.23-4.15,43.28-8,8.78-2.44,19.71-5.47,28.79-11.28l3.37-2.15-.3,4c-.81,10.86-1.73,21.55-2.74,31.76l-.11,1.08-1,.5-4.11,2.15c-4.08,2.17-8.29,4.4-12.66,6.2-11.88,4.88-24.79,8.85-41.86,12.9-27.68,6.56-49.67,9.71-71.28,10.24l-3.54.09Z"/><path class="cls-3" d="M400.06,1041.13c-1.2-4.57-2.32-8.93-3.4-13.16l0-.1c-2.25-8.79-4.38-17.1-6.7-25.27a308.43,308.43,0,0,1-7.21-31.45l-.26-1.5,1.37-.65a267.82,267.82,0,0,1,35.36-13.84l3.49-1.07-1,3.52a112.44,112.44,0,0,0-3.72,37c.75,12.83-3.6,22.35-8.21,32.42a137.84,137.84,0,0,0-5.88,14.26l-2.12,6.41Z"/><path class="cls-4" d="M139.54,1618v-2c0-3.77.09-7.57.19-11.25.18-6.85.37-13.92-.13-20.84-1.2-16.53-1-33.39-.74-49.7.15-10.61.3-21.59.06-32.34-.26-11.62-.24-23.4-.21-34.8,0-12,.06-24.29-.25-36.41-.42-16.53,0-33.58.33-50.06l0-1.55c.23-10.25-.3-20.72-.81-30.84-.38-7.62-.77-15.47-.85-23.22-.23-22.15-.18-44.67-.14-66.45,0-9.08,0-18.11,0-27.14v-55.07c0-10-.11-20.21-.21-30.07-.24-23.37-.49-47.47.63-71.13.67-14,.91-28.31,1.13-42.12.12-7.56.25-15.38.45-23.1,0-.75,0-1.51,0-2.26s0-1.16,0-1.71l.23-25.46q.47-50.29.89-100.58c0-3.2-.05-6.47-.12-9.63a160.54,160.54,0,0,1,.24-18.07c1-12,1.07-24.21,1.08-36,0-12.47,0-25.36,1.25-38.09,1.26-13.11,1-26.65.69-39.74-.14-6.41-.28-13-.24-19.53.07-11.73.18-23.63.29-35.14.18-18.23.36-37,.35-55.51,0-22.55-.19-45.47-.36-67.65q-.13-19.15-.26-38.23a7.69,7.69,0,0,1,.67-2.81c.11-.29.22-.55.3-.82l1.05-3.42,2.36,2.69a11,11,0,0,0,.9.85c1,.92,2.34,2.08,2.31,3.73a214.6,214.6,0,0,0,2,33.89c1.8,12.2,2.66,24.7,3.5,36.8v.22q.34,5,.7,9.89c1.43,18.9,2.78,38.6,4,58.55.77,12.4,1.45,25,2.11,37.14v.23q.51,9.54,1.05,19.09l1,16.91c1.26,22.28,2.56,45.31,3.93,68.1.23,3.86.59,7.8.94,11.6.37,4,.75,8.09,1,12.16.4,7.11.9,14.34,1.39,21.33,1.25,18,2.55,36.55,2.23,54.83-.17,9.71.29,19.56.74,29.1.49,10.39,1,21.14.69,31.82-.26,9.42.62,19.15,1.47,28.56a262.21,262.21,0,0,1,1.54,28.15c0,1.21-.09,2.43-.16,3.61a29.89,29.89,0,0,0,.26,8.39c2.71,11.43,2.48,23.06,2.25,34.3-.18,9.09-.37,18.48,1,27.58a128,128,0,0,1,1,18.72,130,130,0,0,0,.83,17.34c1.53,11,1.46,22.06,1.38,32.79,0,7-.09,14.13.3,21.14.34,6.11.12,12.63-.08,18.93-.2,6-.4,12.11-.13,17.87.58,12.47.71,25.13.83,37.37.1,10.32.21,21,.59,31.47.72,19.91,2.06,40.15,3.37,59.73l.67,10.07c0,.55,1,1.64,1.78,2.39a2.3,2.3,0,0,0,.54-.38l3.11-3.74c10-12,20.35-24.44,30.37-36.75,4-4.86,8-9.72,11.89-14.42,10.24-12.31,20.82-25,30.24-38.22,15-21,29.43-42.85,43.41-64l.28-.43q5.6-8.46,11.19-16.92c3.68-5.53,7.46-11.14,11.11-16.56l.08-.11c11.49-17,23.38-34.67,33.78-52.71,2.61-4.53,5.34-9.1,8-13.52,9.86-16.52,20-33.56,26.46-52a3.12,3.12,0,0,1,2-1.75,1.35,1.35,0,0,0,.28-.11l2.13-1.16.73,2.32c.06.19.15.38.23.57a4.23,4.23,0,0,1,.46,3.11l-.28.84c-1.91,5.74-3.88,11.66-6.11,17.39-1.53,3.94-3,8-4.41,12-3.58,10-7.28,20.43-12.7,29.73-4.24,7.25-8,14.9-11.59,22.3-3,6-6,12.29-9.32,18.3-4.12,7.5-8.15,15.22-12.05,22.7-5.3,10.16-10.78,20.67-16.61,30.8-4.92,8.55-10.32,17-15.54,25.16s-10.65,16.65-15.56,25.2c-13.09,22.79-28.53,44.14-42,62.38-17.27,23.44-35.63,45.27-52.89,65.36-2.21,2.57-4.67,4.92-7.05,7.2-4.85,4.62-9.85,9.4-12.44,15.9-3.38,8.49-2.36,17.38-1.37,26a103.61,103.61,0,0,1,1,14.36c-.29,11.56,1.07,23.41,2.37,34.87.86,7.5,1.75,15.24,2.18,22.9,1.2,21.38,1.59,43.16,2,64.21l0,2.26c.2,11.88.25,24.73.16,40.47v2Z"/><path class="cls-3" d="M379.38,1085.71a3.35,3.35,0,0,1-2.45-1c-1.59-1.63-1.52-4.66-1.47-6.88,0-.26,0-.69,0-.93-8.13-17.9-17.07-39.15-22-61.32-.35-1.56-.71-3.12-1.07-4.69a136.76,136.76,0,0,1-3.61-20.27l-.09-1.13.92-.65A221.66,221.66,0,0,1,376,972.89l2.51-1.29.39,2.79c.68,4.89,1.41,9.34,2.21,13.61,1.28,6.7,3.13,13.46,4.93,20a231.59,231.59,0,0,1,5.56,23.57c.45,2.71,2.22,5.25,3.93,7.69,3.11,4.45,6.63,9.49,3.2,16.59-2.2,4.57-4.52,9.18-6.76,13.64l-2.21,4.4c-.38.75-.73,1.59-1.07,2.41a17.4,17.4,0,0,1-3.45,6C382.87,1084.62,381,1085.71,379.38,1085.71Z"/><path class="cls-3" d="M358.77,1122c-5-5.81-7.12-12.66-9.19-19.29-.54-1.76-1.11-3.57-1.71-5.31-1.48-4.27-3.11-8.59-4.68-12.77-3.66-9.71-7.44-19.75-9.73-30a272.77,272.77,0,0,1-6.31-45.7l0-.87.61-.63a153,153,0,0,1,14.7-13.17L345.3,992l.35,3.65a191.37,191.37,0,0,0,3.12,20.49c4.85,23.28,11.85,43.61,21.41,62.15a54.27,54.27,0,0,0,3,4.84c2.92,4.4,5.68,8.54,4.4,12.05-2.54,7-6.8,13.34-10.91,19.46-1.57,2.34-3.2,4.75-4.67,7.13l-1.44,2.33Z"/><path class="cls-3" d="M191.06,1353.91c0-6.41-.07-12.41-.13-18.2-.14-11.88-.26-23.09.28-34,.74-14.85.11-30-.5-44.59-.59-14.17-1.19-28.82-.58-43.33.49-11.42,0-23.31-.51-34.8-.25-6-.52-12.16-.64-18.22-.18-9.33-.71-18.83-1.23-28-.24-4.32-.48-8.63-.69-12.93-.19-4-.48-8.17-.76-12.15-.7-9.93-1.42-20.2-.78-30.29a23,23,0,0,0-.81-5.75c-.91-4.11-1.94-8.76.55-12.53,1.72-2.62,4.82-4.31,9.45-5.19,3.13-.59,6.28-2.44,9.32-4.24,1.35-.8,2.75-1.63,4.16-2.36a290,290,0,0,0,52.16-33.85c2.63-2.17,5.27-4.3,7.91-6.44,10.75-8.71,21.87-17.71,31.57-28.08l3.93-4.17c3.35-3.55,6.75-7.16,10-10.77l2.57-2.88.87,3.76c2.31,10,4.45,19.56,6.38,28.31l.19.86-.5.72c-.71,1-.56,3-.42,4.85.06.79.12,1.61.13,2.42.09,13.75,1.83,27.44,3.69,40.18,2.84,19.49,9.53,38.16,16,56.22,1.16,3.26,2.32,6.48,3.46,9.72a67.78,67.78,0,0,0,3.5,7.67c2.83,5.59,5.76,11.37,4.53,16.56-1.71,7.25-6.42,13.66-11,19.86-1.86,2.53-3.78,5.14-5.41,7.71l-2,3.11-1.53-3.35q-2.53-5.55-5-11c-3.79-8.2-7.35-15.92-10.84-23.89-7.89-18-12.93-37.36-15.41-59.13-1.18-10.4-3.23-20.9-5.22-31.07l-.08-.44a10.93,10.93,0,0,1-.15-1.45,8.94,8.94,0,0,0-.2-1.65,1.31,1.31,0,0,0-.31,0c-2.45.52-2.29,3.07-2.11,4.14,1.34,7.89,2.09,16,2.82,23.73,1,11.19,2.12,22.75,5,33.88,4.92,19.29,9.71,36.59,18.41,52.89,1,1.91,2.27,3.84,3.47,5.7,5.26,8.13,11.22,17.34.05,29.13-5.23,5.51-9.61,12.12-13.86,18.51-1.95,3-4,6-6,8.87l-2.23,3.12-.05-.13c-2.44,6.84-6.8,12.38-11,17.75a97.65,97.65,0,0,0-7.31,10.15,12.64,12.64,0,0,0-.85,2.15c-.75,2.26-1.89,5.67-5.4,5.67a6.1,6.1,0,0,1-1.55-.22c-3-.85-4.79-4.45-6.37-7.63-.22-.44-.43-.86-.64-1.26-14.78-28.45-25.58-56.09-33-84.52a361.1,361.1,0,0,1-11.22-70.85c0-.4,0-.82,0-1.25-.07-3.28-.44-3.3-1-3.32h-.14c-1,0-1.57,1.23-2.07,4.51-1.3,8.71,0,17.51,1.2,26,.6,4.19,1.23,8.52,1.55,12.84,1.06,14.12,5,27.88,8.81,41.18,1.17,4.07,2.37,8.28,3.48,12.45,4.57,17.17,12.2,33.5,19.57,49.3,1.95,4.18,4,8.5,5.91,12.8a25.84,25.84,0,0,0,3.94,5.46c3.49,4.06,7.82,9.1,4.19,16.14-3.26,6.3-7.69,12-12,17.55-1.41,1.82-2.87,3.71-4.26,5.58a3.82,3.82,0,0,1-3.05,1.64,4.54,4.54,0,0,1-3.82-2.58c-18-31.65-30.88-58.13-40.5-83.33-.86-2.22-3.44-4.86-4.36-5.19-.51.11-.76.27-.82.39-.33.61.47,2.61.86,3.57.16.38.3.74.42,1.07.71,2,1.39,3.93,2.08,5.9,2.18,6.23,4.43,12.68,7.29,18.85,2.38,5.14,4.67,10.41,6.89,15.51,5.44,12.51,11,25.38,18.29,37.18a43.84,43.84,0,0,0,3.2,4.28c3.62,4.5,8.13,10.1,4.35,15.16-10.76,14.45-22.62,28.41-35.18,43.19-4.93,5.81-10,11.81-15.3,18.11l-3.53,4.23Zm71.66-309.17c-.65.63-1.49,1.48-1.53,1.86a297.06,297.06,0,0,0,4,71.94,269.3,269.3,0,0,0,21.9,69.33,43.36,43.36,0,0,1,2.27,6.43c1.92,6.52,3.59,12.16,11.67,12.76-.56-1.59-1.07-3.21-1.57-4.78a76.45,76.45,0,0,0-4-10.72c-11.86-23.82-19.07-49.23-24-68.72-5.61-22-6.8-45.08-7.95-67.36v-.13c-.17-3.25-.34-6.49-.52-9.74A2.75,2.75,0,0,0,262.72,1044.74Z"/><path class="cls-3" d="M190.93,1053.78a5.14,5.14,0,0,1-3.85-1.69c-2.31-2.5-3.06-7.87-2.35-16.88l-.13-.2a4,4,0,0,1-.79-2.23,36.61,36.61,0,0,0-.76-6.4c-1-5.88-2.29-13.2,4.51-16.21a321.52,321.52,0,0,0,43.75-23.77c21.11-13.51,41.4-31,65.81-56.84,2.12-2.25,4.3-4.78,6.64-7.76l2.55-3.24,1,4c2.6,10.86,5.21,22,7.77,33l.24,1-.73.78q-2.26,2.42-4.51,4.84l-.08.09c-8.65,9.31-17.58,18.93-27.33,27.35-24.95,21.53-47.79,40.42-74.71,53.59a34.88,34.88,0,0,0-5.48,4C198.55,1050.47,194.51,1053.78,190.93,1053.78Z"/><path class="cls-3" d="M186.6,1006.43c-3.85,0-4.1-4.23-4.18-5.62-.36-6.22-.6-12.53-.83-18.63-.17-4.41-.35-9-.57-13.46-.17-3.83,1.46-6.47,4.6-7.45,21.41-6.64,39.28-19.73,53.94-31.66,22.3-18.17,39.51-33.94,54.15-49.64l2.51-2.7.89,3.58c2.57,10.38,5.23,21.23,8.11,33.18l.3,1.24-1,.79c-1.64,1.31-3,2.52-4.23,3.7-4,4-8.05,8.19-11.93,12.24-7,7.34-14.3,14.93-22.11,21.71a387.79,387.79,0,0,1-75.9,51.6A8.53,8.53,0,0,1,186.6,1006.43Z"/><path class="cls-3" d="M183.53,959c-1.58,0-3.3-1.06-3.41-4-.35-10.28-.73-22.43-1-34.68,0-.68.54-5.56,3.23-5.67,7.55-.17,13.68-4.28,19.62-8.24,1.33-.89,2.71-1.82,4.11-2.69,14.95-9.4,29.75-20.76,46.56-35.76l.52-.47c10.36-9.24,21.06-18.8,29.7-29.78l2.5-3.17,1,3.91c2.86,11.12,5.71,22.35,8.46,33.37l.28,1.1-.81.8c-2.14,2.13-4.09,4-6,5.82-4.57,4.35-9.14,8.88-13.55,13.27-10.83,10.74-22,21.84-34.24,31.29-11.77,9.11-24.89,16.77-37.58,24.17-5.4,3.16-11,6.41-16.37,9.73A6,6,0,0,1,183.53,959Z"/><path class="cls-3" d="M186.52,913.66c-6.74,0-8.32-9.57-8.93-16.77-.16-1.8-.48-3.78-.82-5.87-1.18-7.19-2.65-16.14,3.72-20.4,2.93-2,5.88-3.91,8.83-5.85,9.25-6.08,18.8-12.36,27.73-19.25,23.54-18.16,40.8-34.63,54.31-51.84l2.47-3.16,1,3.88c3.05,11.44,6.15,23.24,9.47,36.05l.28,1.11-.81.81L278.19,838l-.11.12c-9.59,9.56-19.49,19.45-30,28.5q-3.26,2.79-6.49,5.63c-12.05,10.48-24.5,21.32-38.65,29.09a26.89,26.89,0,0,0-3.35,3.3C196,908.42,191.15,913.66,186.52,913.66Z"/><path class="cls-3" d="M181.16,865a5.09,5.09,0,0,1-3.8-1.59c-1.89-2-2.6-5.8-2.25-12a44.33,44.33,0,0,0-.44-7.35c-.88-7.92-1.89-16.9,8.75-21.89,11.44-5.37,21.05-13.62,30.34-21.59,2.84-2.44,5.78-5,8.74-7.38a284.8,284.8,0,0,0,38.66-37.57l2.45-2.92,1,3.68c2.43,8.88,4.86,17.82,7.41,27.34l.26,1-1.53,2c-7.54,9.78-15.35,19.9-24.71,28.58a617.89,617.89,0,0,1-52.56,43.37C187.93,862.81,184.31,865,181.16,865Z"/><path class="cls-3" d="M175.81,824.82c-.64,0-2.72-.26-2.72-3.63,0-12.32,0-25.43.06-38.27,0-2,2.37-3.42,2.64-3.57,16-9,30.18-20.84,42-31.28a236.07,236.07,0,0,0,31.76-33.9l2.42-3.19,1.09,3.86c2.92,10.31,5.91,21,8.9,31.81l.28,1-.68.8C245.89,767,232.72,780.1,218.8,791c-10,7.85-20.07,16.06-29.77,24q-5.34,4.38-10.66,8.71A4.22,4.22,0,0,1,175.81,824.82Z"/><path class="cls-3" d="M171.31,774.34a84.31,84.31,0,0,0-.37-8.71c-.6-7.91-1.12-14.73,2.68-17.41,23.47-16.6,41.95-38,56.94-56.8,1.36-1.71,2.8-3.43,4.19-5.09,1.68-2,3.41-4.06,5-6.14l2.4-3.09,1.1,3.76c2.15,7.38,4.31,14.85,6.58,22.82l.29,1-.66.81c-2.22,2.71-4.53,5.59-7,8.79-1.92,2.44-3.75,5.09-5.52,7.66-3.3,4.79-6.7,9.73-11,13.75-11.1,10.42-23.12,20.19-34.74,29.63l-4.71,3.83a44.67,44.67,0,0,1-8.38,5c-1.27.63-2.58,1.29-3.81,2l-3.1,1.75Z"/><path class="cls-3" d="M169.33,743.38c-.12-2.51-.31-5-.49-7.4a101.88,101.88,0,0,1-.38-16.6,18,18,0,0,0-.93-5.56c-1.09-4-2.44-9,2.31-12.44,20-14.39,35.22-27.88,47.88-42.46l2.83-3.24c3-3.43,6.07-6.94,8.94-10.48l2.38-2.94,1.09,3.63q3.54,11.83,7,23.5l.27.92-.55.79c-4.85,6.87-9.72,13.56-14.48,19.87-13.86,18.32-30.55,35.43-52.55,53.84l-3.08,2.59Z"/><path class="cls-3" d="M167.28,695.16c-.17-1.08-.4-2.2-.63-3.29a30.85,30.85,0,0,1-1-8,29.06,29.06,0,0,0-.67-6.29c-.89-5.06-1.9-10.8,3-14.67a361.89,361.89,0,0,0,51.85-49.69l2.37-2.79,1.07,3.49c2.41,7.83,4.75,15.54,7,22.91l.29,1-.61.81c-12.62,16.74-28.23,32.73-49.14,50.31-2.28,1.92-4.74,3.62-7.11,5.26-1.11.77-2.19,1.52-3.25,2.28l-2.64,1.91Z"/><path class="cls-3" d="M166.83,657.19c-1,0-2.88-.45-3.68-3.47-4.1-15.47,1.52-30.37,15.83-41.94,11-8.85,22.27-18,31.33-29.09l2.34-2.87,1.12,3.53c2.42,7.66,4.78,15.27,6.57,21l.33,1.07-.74.84c-5.16,5.86-9.35,10.78-13.2,15.49a194.32,194.32,0,0,1-36.41,33.94A6.13,6.13,0,0,1,166.83,657.19Z"/><path class="cls-3" d="M161.18,616.26c0-1.07,0-2.15,0-3.23a36,36,0,0,0-.2-6.43c-.21-1.28-.45-2.55-.68-3.81-1.84-10-3.74-20.25,9.32-28.89a162.12,162.12,0,0,0,29.73-25.75l2.31-2.53,1.06,3.26c2.52,7.77,5.17,16,8.12,25.29l.33,1.05-.71.85c-10.5,12.5-23.06,24.3-38.38,36.06-1.77,1.35-3.59,2.67-5.34,4l-5.55,4.08Z"/><path class="cls-3" d="M159.61,575.76a2.16,2.16,0,0,1-1.93-1c-7.23-12,.54-33.65,11.85-41.63a153.06,153.06,0,0,0,19.55-16.5l2.29-2.27,1,3.06q3.81,11.43,7.53,22.81l.37,1.14-.83.87c-9.84,10.22-20.59,21-32.5,30.62A17.12,17.12,0,0,1,159.61,575.76Z"/><path class="cls-3" d="M153.82,536.92c-.07-1.27-.24-2.63-.41-3.94-.4-3.23-.83-6.56,0-9.73.34-1.33-.24-2.93-.85-4.63-1-2.81-2.4-6.66,1.52-9.53a163,163,0,0,0,24.78-22.48l2.28-2.55,1.1,3.23q3.69,10.8,7.32,21.56l.41,1.22L189,511c-4,3.74-8.16,7.41-12.18,11-3.21,2.83-6.46,5.7-9.59,8.57A26.45,26.45,0,0,0,165,533c-2.13,2.53-4.54,5.4-8.94,5.82l-2.07.2Z"/><path class="cls-3" d="M154,504.19a3.17,3.17,0,0,1-1.23-.24c-2.07-.84-3.32-3.5-3.82-8.12-.74-6.88.41-22.05,5.19-25.33,6-4.1,9.85-10.34,13.27-15.84l2.19-3.52,1.39,3.91c2.67,7.5,5.36,15.2,8,22.9l.37,1.08-.74.87c-6,7-11,12.83-16.23,18.74C162.19,498.87,157.46,504.19,154,504.19Z"/><path class="cls-5" d="M136.45,448c-.25-.32-.51-.62-.78-.93a12.83,12.83,0,0,1-2-2.84c-1.61-3.37-3.44-6.68-5.22-9.89-3.18-5.76-6.47-11.7-8.76-18.38-5.42-15.8-.49-49.93,11.29-60.84,3.69-3.42,8.16-3.77,12.49-4.11l1.16-.09h.07c11.17.18,11.46,8.94,11.64,14.74,0,1.32.09,2.56.23,3.59,3.2,22.88-1.25,46.52-14,74.39a16.57,16.57,0,0,1-2,3.09c-.3.39-.59.77-.86,1.16l-1.54,2.24Z"/><path class="cls-3" d="M136.72,554.65a4.13,4.13,0,0,1-1.72-.4c-27.42-12.42-51.75-27.88-72.32-46l-.68-.6v-2.33l.11-.28A258.76,258.76,0,0,1,76.26,476l1.31-2.31,1.86,1.89c16.59,16.88,33.31,29.06,51.12,37.23a21,21,0,0,0,2.74,1c3.21,1,7.6,2.28,7.63,8.5,0,1.95,0,3.91.08,5.86a138.13,138.13,0,0,1-.39,17.25c0,.36-.05,1-.05,1.61C140.53,549.82,140.48,554.65,136.72,554.65Z"/><path class="cls-3" d="M137.18,599.06a6.3,6.3,0,0,1-1.9-.32c-1.22-.38-2.46-.74-3.69-1.11-5.18-1.53-10.51-3.11-15.27-5.76A391.89,391.89,0,0,1,62.75,556l-.75-.6V514.61l3.22,2.47c1.34,1,2.78,2,4.17,3,.87.6,1.73,1.19,2.57,1.8,3.71,2.67,7.43,5.46,11,8.16,14,10.53,28.49,21.41,45.55,27.53a19.15,19.15,0,0,0,2.95.64c3.49.57,8.76,1.45,9.23,7.34.52,6.35.41,12.8.31,19.05-.05,2.72-.1,5.55-.09,8.32v.58c0,1.47.05,3.3-1.17,4.54A3.51,3.51,0,0,1,137.18,599.06Z"/><path class="cls-3" d="M137.92,651.79c-2.59-1.2-5.13-2.4-7.64-3.6-5.51-2.61-10.7-5.08-16.06-7.37a261.26,261.26,0,0,1-51.4-29.64l-.82-.6v-50l3.33,3c22.19,19.75,42.63,32,64.32,38.6,10.94,3.31,10.81,10.27,10.7,15.87a31.87,31.87,0,0,0,.11,4.29,126.41,126.41,0,0,1,.45,19.35c-.07,2.74-.15,5.57-.15,8.35v3.14Z"/><path class="cls-3" d="M136.09,693.58a8,8,0,0,1-1.56-.21l-.48-.1c-16.26-3.13-30.84-10.64-44.94-17.9-5.13-2.64-10.43-5.37-15.7-7.83C70,666,66.53,664.18,63,662.2l-1-.57V617.28l3.18,2.31c19.27,14,41.12,24.54,61.85,33.78a26.07,26.07,0,0,0,4.57,1.25c4.08.87,9.67,2.07,8.66,7-1.17,5.65-1.11,11.4-1,16.95,0,3.75.08,7.61-.25,11.46C138.87,691.08,138.66,693.58,136.09,693.58Z"/><path class="cls-3" d="M135.56,509.25a5.69,5.69,0,0,1-2.67-.77l-.54-.31c-18.21-10.31-37-21-51.6-37.16l-1-1.11.77-1.27C85,461.2,90,453.84,95.25,446.78l1.48-2,1.63,1.88a98.25,98.25,0,0,0,25.39,20.75c.94.53,2,1.07,3,1.62,4.81,2.56,10.23,5.45,11.49,9.8,1.53,5.31,1.29,11,1.06,16.55-.12,3-.25,6.07-.09,9a5,5,0,0,1-1.09,3.82A3.48,3.48,0,0,1,135.56,509.25Z"/><path class="cls-3" d="M135.44,744.94a6,6,0,0,1-2.27-.52A531.46,531.46,0,0,1,63,710l-1-.58V665.74l3,1.74c4.51,2.61,8.83,4.89,13.21,6.95,5,2.33,9.87,4.84,14.63,7.26,12.56,6.4,25.55,13,39.52,16.72a7.7,7.7,0,0,0,1,.12c1.6.12,5.85.45,5.67,6-.31,9.09-.24,18.34-.16,27.29V732q0,4,.05,7.94C139,743.25,137.77,744.94,135.44,744.94Z"/><path class="cls-3" d="M132.47,790.78a16.57,16.57,0,0,1-6.89-2,27.58,27.58,0,0,0-5.4-1.85c-15.83-3.82-30.19-11.34-44.09-18.61-4.23-2.22-8.61-4.51-13-6.67L62,761.1V714.75l5,2.94c13.31,7.71,28.05,15.44,46.37,24.32,2.09,1,5,1.48,8.13,2,5.91.93,12,1.9,15.39,6.76,2.31,3.32,2.84,7.86,1.63,13.88a20.06,20.06,0,0,0,.09,5.87,24.68,24.68,0,0,1,.1,6.71,24.89,24.89,0,0,0-.18,3.54C138.51,784.75,138.45,790.78,132.47,790.78Z"/><path class="cls-3" d="M133.25,467.4c-11.55-6.85-23.48-13.93-33.41-23.73l-1.28-1.25L99.67,441a224.25,224.25,0,0,1,15.9-18.25l2.25-2.29,1.07,3c1.91,5.43,4.15,10.68,6.52,16.24l.23.52c1.15,2.71,3.49,5.1,5.75,7.42,4.68,4.8,10,10.24,6.66,19.78l-.81,2.31Z"/><path class="cls-3" d="M133.33,836.78a7.94,7.94,0,0,1-2.31-.41,293.91,293.91,0,0,1-31-11.68c-10.38-4.58-24-10.77-37-18.06l-1-.58V765.47l3.17,1.77c17.85,10,36.3,20.36,56.43,26.1.85.24,1.72.46,2.58.68,6.47,1.64,14.52,3.69,13.59,16.4a34.29,34.29,0,0,1-.77,4.7c-.86,4.09-1.67,8,.86,11.27l1.61,2.11-2.37.92a8.75,8.75,0,0,0,0,1.85c.06,1.44.13,3.23-1.05,4.46A3.55,3.55,0,0,1,133.33,836.78Z"/><path class="cls-3" d="M133.13,891a6.09,6.09,0,0,1-2.12-.44L128,889.44c-11.48-4.35-23.31-8.84-34.87-13.44a175.69,175.69,0,0,1-30.16-15.74l-.92-.59V811.75l3,1.77c20.62,12.08,40,20.66,59.22,26.22a5.24,5.24,0,0,0,1.37.13c.55,0,1.13,0,1.73-.07s1.42-.07,2.11-.07c4.62,0,7.07,2.11,7.29,6.29.45,8.81.37,17.75.29,26.41,0,4.5-.07,9.12,0,13.66a5.28,5.28,0,0,1-1.26,3.92A3.58,3.58,0,0,1,133.13,891Z"/><path class="cls-3" d="M128.08,1611.65a38.53,38.53,0,0,1-5.44-.53,36.3,36.3,0,0,0-4.14-.46,79.3,79.3,0,0,1-22.15-4.25c-10.21-3.29-22-7.21-33.15-12l-1.2-.52v-50.68l2.78,1.19C87,1553.81,108,1558.6,129.09,1559c2.74.06,5.09.45,6.09,4.7,1.52,6.4,1.34,12.84,1.17,19.07a84.82,84.82,0,0,0,.42,14.28c.83,5.67.24,9.57-1.81,11.94C133.42,1610.79,131.17,1611.65,128.08,1611.65Z"/><path class="cls-3" d="M131.26,934.66a6.25,6.25,0,0,1-1.28-.13,84.78,84.78,0,0,1-11-3.35l-1-.37c-15.64-5.49-36-13.17-54.93-23.8l-1-.57V866l3,1.85.61.39.87.53c20.19,12.16,41.64,20.46,60,27h0a2,2,0,0,0,.32,0c.36,0,.76,0,1.18-.07.65-.06,1.28-.11,2-.11a6.57,6.57,0,0,1,4.76,1.71c1.36,1.36,2,3.44,2,6.35a46.2,46.2,0,0,1-1,8.25c-1,5.21-1.91,10.13.77,15a5.21,5.21,0,0,1-.34,5A5.51,5.51,0,0,1,131.26,934.66Z"/><path class="cls-3" d="M130.93,983.65a21,21,0,0,1-5.4-.9c-3.65-1-7.32-2-11-3C100.07,976,85.12,972,71.31,965.91c-2.71-1.2-5.42-2.57-8.29-4.19l-1-.57V911.61l3,1.64a425.82,425.82,0,0,0,48.11,22.69,18,18,0,0,0,5.92.63h2.12c4.83,0,9.78.3,12.75,3.86,2.34,2.8,2.94,7.07,1.85,13.05-.12.66-.26,1.34-.41,2-.78,3.8-1.59,7.72.44,11.13l1.37,2.29-2.59.67a.77.77,0,0,0-.34.14c-.34.62.39,3,.83,4.36.88,2.78,1.78,5.66.24,7.75A5,5,0,0,1,130.93,983.65Z"/><path class="cls-3" d="M131.75,1436.39l-.12,0c-2.32-.38-4.6-.73-6.89-1.08-8.89-1.35-18-2.74-26.65-5.51A191.49,191.49,0,0,1,63,1414.28l-1-.57V1371l4.42,1.88c14.48,6,32.51,13.52,51.08,16.2l1.7.24c6,.82,11.67,1.61,14.71,6,2.05,2.94,2.45,7,1.23,12.5-.72,3.24-.34,7,0,10.57a64.45,64.45,0,0,1,.46,7.26c0,.25-.33,2.77-.72,4.92-.71,4-1.34,5.84-3,5.84Z"/><path class="cls-3" d="M131.76,1082.87c-.61-.4-1.11-.78-1.56-1.12a5.92,5.92,0,0,0-1.1-.74c-23.31-4.63-44.83-14.88-63.17-24.13-1-.48-1.88-1-2.82-1.48l-1.11-.59V1012.7l3,1.66A198.1,198.1,0,0,0,119.13,1035c9.73,2.15,18.29,5.3,16.17,20-.15,1-.3,2.06-.46,3.1-1.11,7.3-2.26,14.85-.07,22.6l1.46,5.13Z"/><path class="cls-3" d="M132.83,1497.53c-20.57-1.34-39.57-8.41-60.5-16.82-3-1.23-6.14-2.61-9.2-4.09l-1.13-.55v-57.69l3.68,1.94c18.67,9.59,35.74,17.66,55.49,19.18h.55c.52,0,1.11,0,1.73-.07.8,0,1.66-.09,2.54-.09,5.67,0,8.63,2.54,8.8,7.54.39,11.64.31,23.4.23,34.77,0,4.7-.06,9.3-.06,13.87v2.13Z"/><path class="cls-3" d="M131.09,1033a6.3,6.3,0,0,1-1.9-.32c-4.1-1.26-8.31-2.41-12.38-3.52-9.36-2.56-19-5.21-28-9.29C79,1015.34,70.6,1011.15,63,1007l-1-.56V965.83l2.9,1.48c12,6.09,25.2,10.58,37.95,14.92l7.31,2.51c1.48.51,3,1.12,4.4,1.72,3.51,1.44,7.14,2.94,10.64,2.94a11,11,0,0,0,4.3-.84,7.74,7.74,0,0,1,2.88-.79,2.5,2.5,0,0,1,1.87.77,3.35,3.35,0,0,1,.7,2.71c0,.22,0,.46,0,.73v11.38c0,8.06,0,16.38,0,24.62a5.39,5.39,0,0,1-1.24,3.94A3.6,3.6,0,0,1,131.09,1033Z"/><path class="cls-3" d="M131.53,1553.65c-2.78-.24-5.57-.41-8.27-.57-7.07-.42-14.37-.86-21.32-2.57a286.59,286.59,0,0,1-38.69-12L62,1538v-56.46l2.88,1.42c15.71,7.72,33.18,13.81,53.4,18.61a12.6,12.6,0,0,0,3,.25c.66,0,1.34,0,2,0l2.15,0c2.5,0,8.36,0,9,5.73,1.19,10.1.91,20.45.64,30.47-.1,3.69-.2,7.49-.23,11.21,0,1.1-1,4.52-3.23,4.52Z"/><path class="cls-3" d="M131.29,1281a7.68,7.68,0,0,1-1.85-.23l-5.1-1.31c-8.12-2.09-16.48-4.24-24.64-6.62a275.46,275.46,0,0,1-36.52-13l-1.18-.53V1214.4l3,1.69a178.44,178.44,0,0,0,58.81,21.16c4.59.76,9.49,2.22,9.54,10,0,3-.2,6-.42,8.91-.5,6.83-1,13.88,1.69,20.47a3,3,0,0,1-.17,2.94A3.49,3.49,0,0,1,131.29,1281Z"/><path class="cls-3" d="M132.37,1385.79a174,174,0,0,1-46.59-10.65l-4.09-1.53c-6.08-2.28-12.37-4.63-18.46-7.16l-1.23-.52v-42.26l2.68,1c20.78,7.53,42.26,15.31,64.89,18.5,1.05.15,3.92,1.23,3.92,3.34a145,145,0,0,0,.86,14.78c.73,7.91,1.42,15.38.17,22.87l-.3,1.83Z"/><path class="cls-3" d="M129.91,1126.5a4.08,4.08,0,0,1-.68-.06,134.28,134.28,0,0,1-14.87-3.79c-2.07-.61-4.14-1.22-6.19-1.78-14.57-4-30.1-8.53-44.95-14.87l-1.22-.52v-44.29l3,1.7c15.16,8.61,32.53,15.81,54.68,22.67a11.58,11.58,0,0,0,3.06.29h1.38l1.64,0c2.75,0,5.54.26,7.24,2.16a6.2,6.2,0,0,1,1.32,5c-.83,7.52-1.52,16.46-.42,25.69.12,1,.41,4.64-1.33,6.6A3.5,3.5,0,0,1,129.91,1126.5Z"/><path class="cls-3" d="M130.27,1338.77a5.58,5.58,0,0,1-1.55-.24l-4.65-1.41c-2.5-.75-4.91-1.49-7.34-2.2-5.22-1.54-10.57-3-15.75-4.46-12.52-3.48-25.41-7-37.69-11.7l-1.29-.49v-53.43l2.83,1.28c14.54,6.6,30.26,11.5,45.47,16.24l3.15,1a28.55,28.55,0,0,0,6.32.81c5.13.29,11.51.66,12.5,6.65,1.72,10.24,1.67,20.86,1.62,31.13,0,4,0,8.16.05,12.22a4.76,4.76,0,0,1-1.15,3.61A3.43,3.43,0,0,1,130.27,1338.77Z"/><path class="cls-3" d="M128.06,1233.15a9.17,9.17,0,0,1-2.34-.34c-2.18-.57-4.38-1.12-6.58-1.68-7.39-1.87-15-3.81-22.32-6.41a232.82,232.82,0,0,1-33.78-15l-1-.56v-41.67l3,1.64c14.93,8.27,35,18.05,58,20.39h.11a13.24,13.24,0,0,0,1.58-.19,18.25,18.25,0,0,1,3-.32,5.56,5.56,0,0,1,4.22,1.59c1.2,1.25,1.73,3.1,1.63,5.65-.47,11-.62,20.9-.46,30.3,0,2.46-.47,4.2-1.57,5.32A4.63,4.63,0,0,1,128.06,1233.15Z"/><path class="cls-3" d="M130.18,1185.8a5,5,0,0,1-1.69-.34,107.54,107.54,0,0,0-14.6-3.67c-6-1.22-12.14-2.47-18.09-5L93,1175.66c-9.9-4.13-20.13-8.4-29.87-13.22l-1.11-.55v-51.4l2.79,1.19a300.29,300.29,0,0,0,57.39,17.79,4.45,4.45,0,0,0,.92.07c.52,0,1.1,0,1.68-.08s1.43-.09,2.14-.09c4.57,0,5.64,2.46,5.73,4.53.54,12.16.42,24.52.31,36.47,0,3.65-.06,7.28-.08,10.92a2.08,2.08,0,0,0,0,.3,3.93,3.93,0,0,1-.59,3.28A2.75,2.75,0,0,1,130.18,1185.8Z"/><path class="cls-3" d="M62,1618v-19.8l4,1.89c1.78.84,3.47,1.65,5.17,2.47A144.34,144.34,0,0,0,103.59,1614l1.33.28-.39,3.68Z"/><polygon class="cls-2" points="6 8.83 58 60.83 58 1619.17 6 1671.17 6 8.83"/><path d="M960,850.45v-31.4q-3.64,3-7.46,5.87c-3.78,2.83-7.66,5.53-11.62,8.14-7.8,5.15-15.8,10-23.64,15.07-.95.62-2.1,1.9-2.12,2.89-.17,11,.05,22.09-.23,33.13-.14,5.25,3.57,3.23,5.12,2.56,11.35-4.93,21.37-12.16,30.53-20.29q4.77-4.23,9.42-8.61ZM157.63,423.85l-1,4.3c-1.59,6.94-8.18,12.74-9.78,19.68-1.34,5.8,1.25,12.52,2.3,20.31,6.07-7.28,11.84-13.76,17.1-20.39,1,2.66,1.9,5.32,2.83,8-3.8,6.11-7.65,12.18-13.84,16.43-4.79,3.29-6.46,28-1.74,30,1.59.65,5.43-2.57,7.38-4.78,5.45-6.2,10.84-12.46,16.21-18.72q1.62,4.68,3.23,9.34a163.16,163.16,0,0,1-25.09,22.76c-4.61,3.38,1.28,8.39.09,13-1,4,.24,8.69.49,13.07,5-.48,6.94-4.95,10.07-7.81,7.18-6.57,14.64-12.86,21.75-19.51q1.44,4.26,2.85,8.51a153.64,153.64,0,0,1-19.81,16.71c-10.78,7.61-18,27.79-11.27,39,.21.36,4.55-1,6.29-2.45,11.57-9.33,22.05-19.78,32.32-30.45q1.42,4.35,2.84,8.7a163,163,0,0,1-30.1,26.07c-13.52,8.94-9.61,19.35-7.77,30.71.52,3.25.15,6.64.19,10,2.58-1.9,5.18-3.76,7.72-5.7A239.9,239.9,0,0,0,209,574.78q1.46,4.59,2.89,9.17c-9.13,11.18-20.44,20.35-31.62,29.39-12.46,10.07-19.38,23.94-15.16,39.87.81,3,2.66,1.93,4.06.91a192.88,192.88,0,0,0,36-33.59c4.31-5.27,8.75-10.43,13.25-15.54q1.48,4.78,2.94,9.53a367.12,367.12,0,0,1-52.14,50c-5.83,4.62-1.19,12.92-1.55,19.5-.19,3.58,1,7.24,1.58,10.86,3.42-2.47,7-4.74,10.24-7.45,17.92-15.07,34.72-31.26,48.83-50,.91,3,1.82,6,2.71,9-3.79,4.68-7.84,9.2-11.81,13.77C205,676.61,188.59,690.36,171,703c-5.61,4-.09,10.92-.56,16.55-.65,7.61.48,15.38.88,23.73,19.54-16.36,37.14-33.56,52.23-53.52Q231,680,238,670q1.69,5.76,3.35,11.47c-3,3.84-6.24,7.49-9.23,11.25-16.9,21.17-34.82,41.25-57.35,57.18-4.19,3-1.16,16.11-1.46,24.56,4-2.24,8.41-3.95,11.91-6.8C198.55,756.75,212,746,224.56,734.24c6.41-6,10.78-14.18,16.3-21.19q3.49-4.44,7.07-8.82,1.6,5.61,3.17,11.15a240.13,240.13,0,0,1-32,34.19c-13.19,11.69-26.83,22.85-42.31,31.52-.69.39-1.61,1.22-1.62,1.84-.09,12.75-.08,25.5-.06,38.26,0,1.57.46,2.23,2,1,13.46-11,26.79-22.06,40.46-32.75C233.42,777,247.08,762.48,260,747.18q1.36,4.94,2.7,9.81a288.47,288.47,0,0,1-38.93,37.83c-12.66,10.33-24.27,22.09-39.49,29.23-12.58,5.9-6.62,18.12-7.16,27.54-.93,16.33,5.92,12.36,15.19,5.48a617.7,617.7,0,0,0,52.39-43.23c9.61-8.91,17.48-19.25,25.41-29.52q1.44,5.34,2.83,10.59c-15.61,19.89-34.51,36.65-54.66,52.19-11.79,9.1-24.36,16.95-36.67,25.18-6.86,4.59-2.72,16.17-2,24.44,2.58,30.56,18.12,5.15,22.37,2.82,16.45-9,30.43-22.15,44.8-34.49,12.53-10.76,24-22.53,35.64-34.1.69,2.68,1.38,5.33,2.05,8-8.89,11.3-19.65,20.85-30.46,30.5-14.78,13.19-30.13,25.47-46.83,36-7.59,4.77-14.85,11-24.71,11.24-.49,0-1.34,2.38-1.31,3.63.24,11.55.6,23.1,1,34.65.1,2.83,1.88,2.32,3.44,1.37,18-11.11,37.11-20.89,53.78-33.78,17.1-13.22,31.89-29.44,47.63-44.43,2-1.91,4-3.84,5.93-5.79.77,3.06,1.52,6.09,2.27,9.07-16.8,18-35.32,34.33-54.35,49.83-16.24,13.22-33.9,25.6-54.6,32-2.47.77-3.32,2.77-3.2,5.44.52,10.68.78,21.38,1.4,32.07.16,2.78.69,5.08,5,2.84A384.45,384.45,0,0,0,265,952.2c12-10.45,22.57-22.63,33.95-33.86a55.19,55.19,0,0,1,4.38-3.84c.7,2.9,1.39,5.75,2.05,8.54-2.15,2.73-4.38,5.38-6.76,7.89-20.13,21.28-41.53,41.37-66.18,57.15a325.59,325.59,0,0,1-44,23.92c-7.56,3.34-2.46,13.62-2.56,20.81,0,.75,1,1.54.94,2.26-2.53,31.07,13,10,20.3,6.38,27.68-13.54,51.17-33.36,74.28-53.3,11.36-9.81,21.45-21.1,31.77-32.14.74,3.21,1.46,6.31,2.14,9.28-4.54,5.07-9.27,10-13.95,15-12.14,13-26.12,23.54-39.67,34.69a294.34,294.34,0,0,1-52.51,34.09c-4.63,2.39-9.1,5.86-14,6.79-15.37,2.9-7.11,14.48-7.56,21.63-.89,14,.86,28.13,1.54,42.21.66,13.67,1.65,27.32,1.92,41,.36,17.74,1.89,35.7,1.15,53.14-1.25,29.43,2.53,58.61,1.08,87.94-.8,16.1-.15,32.28-.15,52.15,18.86-22.57,35.53-41.23,50.41-61.22,3.87-5.19-4.34-11.79-7.65-17.19-10.32-16.79-17.08-35.16-25.3-52.9-3.78-8.17-6.43-16.57-9.43-24.91-.88-2.43-3.37-6.84,1.21-7.71,1.73-.33,5.39,3.75,6.44,6.48,11,28.88,25.11,56.24,40.37,83,1,1.8,2.55,2,3.52.74,5.56-7.49,11.82-14.66,16.06-22.86,4.45-8.61-5.2-13.3-8.17-19.86-9.27-20.51-19.76-40.5-25.59-62.41-4.75-17.85-11-35.32-12.35-54-1-13.1-4.73-26-2.74-39.3.45-3,1.15-6.35,4.29-6.2s2.78,3.86,2.93,6.45a360.83,360.83,0,0,0,11.15,70.46,401.54,401.54,0,0,0,32.86,84.11c1.52,2.94,3.29,7.18,5.77,7.88,4,1.11,4.06-4.2,5.54-6.69,5.85-9.82,15.05-17.49,18.59-28.78-12.66-.9-12.11-12.93-15.65-20.33a271,271,0,0,1-22.07-69.84,298.26,298.26,0,0,1-4.05-72.44c.13-1.79,2.68-3.42,4.1-5.13.57,1.39,1.57,2.76,1.65,4.18,1.44,25.78,2,51.8,8.42,76.85,5.95,23.35,13.05,46.54,23.89,68.32,2.53,5.09,3.92,10.75,5.83,16.14,6.62-9.26,12.31-19.41,20.07-27.6,12.46-13.15,1.74-22.09-3.83-32.51-9-16.78-13.9-35-18.59-53.34-4.86-19-4.56-38.61-7.81-57.76-.55-3.22.74-5.82,3.67-6.44,3.39-.71,2.72,3,3,4.64,2.05,10.5,4.12,21,5.33,31.66,2.31,20.28,7.07,39.87,15.25,58.56,5.05,11.52,10.42,22.9,15.87,34.83,5.61-8.83,13.83-17.2,16.13-27,1.59-6.69-5.21-15.27-8-23.11-7.65-21.76-16.19-43.18-19.56-66.31-2-13.48-3.62-26.87-3.71-40.46,0-2.86-.86-6.28.65-8.43,2.7,12.25,4.09,18.89,4.09,18.89q1.68-1.87,3.44-3.67a269.42,269.42,0,0,0,6.26,45.36c3.25,14.53,9.44,28.41,14.35,42.57,2.85,8.22,4.51,16.94,10.53,24,5.25-8.49,12-16.76,15.4-26.22,1.35-3.72-4.62-10.12-7.29-15.29-10.23-19.85-17-40.82-21.59-62.66a190.79,190.79,0,0,1-3.15-20.71q3.52-2.77,7.15-5.35c.64,8.35,2.85,16.58,4.64,24.68,4.69,21.19,13,41.4,21.95,61.17.44,1-1.73,12.69,6.41,4.55,2-2,2.81-5.2,4.14-7.86,3-6,6.05-12,9-18,4.73-9.79-6-14.81-7.3-23.09-2.39-14.69-7.69-28.88-10.48-43.52-.86-4.54-1.59-9.11-2.23-13.7q4-2.05,7.79-3.86a304.73,304.73,0,0,0,7.16,31.24c3.44,12.12,6.42,24.36,10.14,38.57,5.36-16.2,15.05-27.82,14-45.93a115.11,115.11,0,0,1,3.79-37.62,97,97,0,0,1,9.26-22.2c6-10.43,12.67-19.48,24.51-21.68,18.32-3.4,25.34,18.37,22.61,30.87s-8.87,22.71-16.24,32c-9.68,12.2-21.49,22.91-30.57,35.54-6,8.39-7.58,19.54-7.4,29.44.07,3.81,8.3-1.48,12.28-2.93,10.37-3.8,19.67-9.51,28.76-15.6q.21,4.93.39,10.26c-11.78,7.61-24.19,14-37.73,17.42s-9.2,14.33-14.39,20.81c-2.42,3-2.73,7.63-4.41,11.34-1.49,3.3-3.85,6.23-3.33,10.16,3.65-.61,7.51-.68,10.93-1.93,17.15-6.24,34.07-12.95,49.58-22.58,0,3,0,6.12,0,9.27-8.76,4.8-17.62,9.42-26.74,13.42-9.84,4.32-20.35,8-30.92,9.56-14.06,2.12-10.61,15.94-17.39,22.65a20,20,0,0,0-3.84,6c-1.39,3.14-2.38,6.46-3.53,9.71,6.63-.8,13.35-1.19,19.89-2.45,21.94-4.22,42-13.32,61.93-22.62q-.15,5-.34,10c-11.18,5.1-22.76,9.38-34.36,13.69-16.29,6.06-33.26,7-50,10.08-6,1.11-5.63,9-8.45,13.68-5.08,8.39-9.63,17.11-14.85,26.48,27-1.64,52.54-4.67,77.18-12.69,9.58-3.12,18.93-7,28.29-10.75q-.29,4.34-.62,8.74c-9,5.74-19.29,8.73-29.34,11.52-15.21,4.22-31.06,6.32-46.75,8.56-10.15,1.44-21.21-.49-30.48,2.9-5.5,2-8.48,11.3-12.28,17.51-4.23,6.91-8.11,14.05-12.93,22.49,24.68-.6,47.74-4.71,70.87-10.19,14.23-3.37,28.11-7.28,41.56-12.8,5.71-2.35,11.11-5.44,16.61-8.28-.26,2.66-.54,5.34-.82,8-19.79,10.51-40,19.31-62.87,23.17-22.46,3.8-44.67,7.07-67.39,7.56-2.32,0-5.29,3-6.71,5.35-5.43,8.94-10.2,18.28-15.55,27.28-1.62,2.73-1,2.94,1.6,3,24.47.71,49.09,1.43,73.22-2.36,26.63-4.2,53.5-8.83,77.25-23.31,1.47-.9,6.09-2.42,6.3.75.29,4.43-4.31,6.87-7.73,9-20,12.66-42.53,17.75-65.63,21-22.32,3.17-44.76,6.65-67.2,4.43-7.74-.77-15.78-.82-23.64-2.14-4.31-.73-5.27,7.37-8.66,10.75-6.12,6.09-10.36,13.45-14.86,20.71-2.65,4.28.27,4,2.57,4,13.79.12,27.53,1.45,41.32,1.72,19.77.39,39.15.5,58.28-4.68,15.74-4.27,31.32-9.12,47.09-13.22,5-1.29,10.07-1.76,14.63-4.6a3.34,3.34,0,0,1,4.81,2.15c.23.92-1.24,2.78-2.38,3.44-18.63,10.8-39.62,14.67-60,20.45-23.91,6.8-48.49,7.12-72.74,5.35-13.2-1-27.05.34-40.1-4.64-1.74-.66-7,4.19-8.56,7.48-5.67,12.3-15.92,21-23.72,31.52-2.27,3.08,1.52,3.24,2.07,3.28,20.65,1.3,40.93,5.5,61.87,5.21,29-.41,57.38-1.83,84.92-12.09,9.11-3.4,18.19-6.46,26.56-11.52,1.59-1,5.18-1.29,6-.33,1.72,2-1.32,3.08-2.52,4.25-12.94,12.69-29.57,16.92-46.44,21.87s-33.87,5.13-50.72,6.93c-16.21,1.74-33-.71-49.41-2.28-12.8-1.22-25.71-6.37-38.11-5.13-9,.9-14.36,12.4-21.06,19.47-3.61,3.81-6.86,8-10.61,11.63-2.08,2-1.94,4.2-1.25,6.31.79,2.39,3.18,2.19,5.37,2.6,16,3,32.33,2.52,48.22,4.57,18.94,2.45,37.42.42,55.8-1.12a274.66,274.66,0,0,0,76.32-17.59c17.46-6.78,34.62-14.23,50.2-24.91,2.67-1.83,6.25-2.36,9.44-3.38.13,0,1,1.18.86,1.51-1.49,3.31-4.5,5-7.19,7.21-15.93,13.38-34.84,21.27-53.62,29-12.21,5-25.61,7.13-38.41,10.77-20.21,5.76-41.17,6-61.82,7.61-23.68,1.84-47.52-.31-71.11-3.71-1.65-.24-3.13-1.55-4.79-1.88-21.94-4.29-5.16,12.14-8.23,18-3.58,6.76.76,17.7,1.62,26.83.1,1-.88,2.08,1.4,2.06,18.64-.17,37.21,2,55.92-1.36,16.76-3,34.18-2.55,50.82-6,21.16-4.38,41.71-11.62,62.74-16.72,16.72-4.05,31.93-11.87,48-17.57,6.85-2.44,13.26-6.23,19.63-9.83,2-1.13,3.13-1.59,4.46.34,1.46,2.11-.31,3-1.48,4.45-10.5,12.67-26.59,15.19-40.39,21.34-16.42,7.33-34.15,11.77-51.41,17.13-18.61,5.78-37.75,9-57.08,11.33-16.23,1.91-32.4,4.37-48.66,5.75-9,.77-18.33,1-27.11-.6-15.32-2.87-18.73-.3-16.23,15.14a14.43,14.43,0,0,1,.3,4.92c-1.92,9.83,2.22,13,11.88,12.8,27.91-.42,55.89,4.73,83.75-.25,15.93-2.85,32.08-4.52,47.61-9.75,13.95-4.69,28.75-7,42.35-12.5,12.19-4.88,23.34-12.42,34.77-19.11,3.63-2.12,8.31-5,10.82-1.9,3.33,4.1-2.89,4.88-5.08,6.8-18.49,16.24-40.85,24.33-64.14,30.82-24,6.7-47.95,12.68-73.1,14.29a419.22,419.22,0,0,1-54.22.19c-10.86-.71-21.64-2.75-32.56-2.56-1,0-2.72-1.06-2.55,2a305,305,0,0,1,.4,31.42c-.26,5.31,1.71,7,6.24,7.08,25.15.46,50.43,2.62,75.41.77,23.55-1.75,46.43-9.08,69.48-14.84,32.95-8.24,61.61-24.94,91.29-39.94,1.44-.73,4.39-.64,5.35.34,1.69,1.71-.6,3.18-1.84,4.34-11.41,10.6-25.35,16.62-39.12,23.54-15.42,7.75-31,15.3-47.42,19.36-23.09,5.74-45.93,13.39-70.18,14.11-12.56.37-25.09,3.58-37.61,3.44-16.16-.18-32.31-2.21-48.41-4-3.14-.35-3.28.16-3.07,2.58.1,1.16,0,2.33.06,3.5.21,26.18.21,26,25.65,25.15,18.11-.58,36.21.49,54.38-.84,27.35-2,54.28-5.38,81.1-11.68a394.35,394.35,0,0,0,53.4-16.86c7.45-2.9,14.18-7.6,21.42-11.09,2.39-1.15,6.05-2,7.64.88,1.37,2.45-1.78,3.8-3.56,4.93a226.86,226.86,0,0,1-71.47,30.05,505.84,505.84,0,0,1-66.45,11.16c-23.31,2.24-46.77,3.81-70.28,1.29-9.92-1.06-20.2-2.11-29.86-.47-3.08.53-2.77,6.22-1.62,10.63h612l-14.15-15.72c-4.26,5-12.34,4.86-18.76,6.29a306.39,306.39,0,0,1-66.88,7.15q-13.59,0-27.15-1.06c-23.15-1.79-46.46-3.32-69.35-9.07-11.64-2.92-24.12-3.21-35.93-6.49-19.89-5.54-39.09-13-58.15-20.81-6.55-2.69-13.36-4.78-19.82-7.67-1.85-.83-4.86-2.81-3.38-5.73,1.69-3.36,4.18-.06,5.9.39,26.81,7,51.79,19.49,78.87,25.84,16.2,3.79,32.74,5.13,49,8.2,25.09,4.74,50.51,5.76,75.64,6.38,20.9.52,42.6.18,63.23-6.51,4-1.31,8.66.29,12.8-2.12,1.78-1,4.32-.75,6.52-1.06-1.07-2.88-1.47-6.31-3.32-8.54-10.45-12.65-22-24.47-31.69-37.65-7.33-10-13.36-.94-19.73-.32-11.92,1.15-23.65,4.78-35.56,5.31-20.73.91-41.57.9-62.31.09-24.4-1-48.17-5.8-72-11.56a322.44,322.44,0,0,1-72.49-26.54c-3.2-1.65-5-5.92-7.52-9,4-2.76,6,1.23,8.89,2.43,24.08,9.92,48,19.66,73.81,25.3s51.39,10.2,77.54,11.11c19.13.67,38.38-.5,57.49-1.92a251.94,251.94,0,0,0,38.89-6.2c3.86-.91-.92-4.91-2-6.38-7.29-10.17-14.54-20.57-23.37-29.3-2.15-2.12-10.14,1.86-15.49,2.73-27.38,4.46-54.78,4.56-82.42,1.89-12.35-1.19-24.66-2.28-36.88-4.4-17.48-3-34.86-6.66-51.54-12.73-13-4.74-26.13-9.54-38.13-16.81-3.52-2.14-10.51-3.73-8.33-7.5,2.37-4.1,8.64.48,12.57,2,20.5,8.16,40.78,16.23,62.52,21.44a379.62,379.62,0,0,0,75,10.21c24.13.84,49,1.43,73.17-4.23,3.31-.77,3.17-2.13,1.54-4.44-5.8-8.24-10.61-17.45-17.6-24.49-6.06-6.1-15.05-1.39-22.47-.81-24.65,1.92-49,1.32-73.13-4.29-16.48-3.83-33.36-6.11-49.61-10.69-13.23-3.73-25.63-10.29-38.69-14.77-8.34-2.86-16.68-5.08-24.23-10.15-3.89-2.61-10.19-4.09-7.22-9.19,2.76-4.75,7.37,1.62,10.29,2.91A476,476,0,0,0,568.87,1445c37.47,9.13,75.49,11.43,113.86,9.86a9.23,9.23,0,0,0,1.84-.42,51,51,0,0,0-2.84-5.5c-6.91-10.28-14-20.47-20.82-30.78-1.8-2.72-3.91-1.13-6-1.13a333.05,333.05,0,0,1-80-9.27c-26.28-6.4-52-13.57-75.77-26.67-6.26-3.44-12.67-6.61-18.95-10-1.75-1-4.48-1.93-2.46-4.73,1.8-2.48,4.72-2,6.79-.81a258.63,258.63,0,0,0,70.58,28.87c18,4.37,36,9.9,54.9,10.75,14.76.66,29.45,3,45.48,4.79-9.5-13.53-17.61-25.87-26.56-37.55-5.88-7.66-15.56-3.16-23.28-4.73-18-3.64-35.73-8.08-53.58-12.18A240.06,240.06,0,0,1,503,1338.94a110.78,110.78,0,0,1-17.9-10.68c-2.15-1.56-4.93-6.22,2.08-5.45a15.09,15.09,0,0,1,6.14,2.32c16.31,10.48,35.64,13.42,53.18,21,14.68,6.36,31.66,7.38,47.61,10.84,8,1.75,16,3.69,24.06,5.51,1.36.31,4.38.94,3.14-1.16-5.31-9-9.82-19.54-17.67-25.52-6.51-5-17.27-4.36-26.17-6.1-25.31-5-47.86-17-71-27.66-5.72-2.63-11.16-5.87-16.67-9-1.74-1-3.78-2.68-2.37-4.64.8-1.13,4-1.83,5.25-1.14,20.25,11.1,42.25,18.33,62.94,28.57,13.38,6.61,29.58,7.51,45.38,11.17-4.7-7.83-8.47-15.44-13.5-22.11-5.63-7.48-15.46-4.84-23.19-7.58-23.72-8.38-47.25-16.93-68.53-30.68-3-1.91-4.11-4.94-2.47-7.51,1.86-2.92,4.15,0,6.2,1,24.41,12.67,48.88,25.18,76.13,30.84,1.7.36,3.24,1.45,4.85,2.2a44.91,44.91,0,0,1-3.32-4.78c-3.52-6.71-6.87-13.51-10.4-20.21a2.86,2.86,0,0,0-2.29-1.12c-16.28,1-28.39-8.59-42-15.21a308.83,308.83,0,0,1-33.1-18.24c-3.18-2.06-5.34-5-2.95-8.68,3-4.53,4.68.7,6.34,1.69,19.88,11.82,40.12,22.91,61.44,31.92,2.5,1.05,5.54.84,9.24,1.34-8.79-9.75-11-22.88-18-32.82-4.47-6.35-13.67-9.7-19.45-16.36a142.58,142.58,0,0,1-16.47-22.67c-7.9-13.82-12.28-28.95-10.35-46.33,1-9.39,9-15.69,17.67-18.54,8.08-2.64,13.68,1.69,18,9.34,8,14.11,12.15,29.17,15.24,44.62,1.17,5.87,2.18,11.79,3.18,17.74,2.52,15,4,30.8,14.12,43.49.9,1.12,2.56,1.63,3.86,2.42a15.67,15.67,0,0,0,1.6-3.66,363.56,363.56,0,0,0,4.12-46.87q4.77,2.42,9.44,4.84c-.14,1.2-.31,2.4-.52,3.6-2.25,13-.85,27.07-5.51,38.92-5.36,13.62.8,22.12,6.87,31.84a18.75,18.75,0,0,0,3.24,3.17,37.8,37.8,0,0,0,2.38-4.54A227.42,227.42,0,0,0,606.66,1206q4.22,2.32,8.33,4.63c-1.64,23.26-7.79,45.63-17.65,67.37-3.27,7.21,4.54,11.49,7.3,17.09,1.31,2.65,2.8,6.5,5,7.12,2.41.68,2.24,10.58,7,2.44a60.27,60.27,0,0,0,4.17-8.73c8.32-21.16,10.53-43.64,14.32-65.81.42-2.44.74-4.87,1-7.29q4.23,2.51,8.32,5c-1.11,13.54-4.05,26.87-6.73,40.29a151.13,151.13,0,0,1-18,46.54c-.85,1.47,2.72,5.93,4.8,8.54,3.18,4,6.85,7.59,10.32,11.35,3.36-5.74,7.88-11.11,9.87-17.29,5.77-17.87,10.89-36,15.52-54.18a193.18,193.18,0,0,0,3.9-23.07q4.08,2.58,8,5.12A273.2,273.2,0,0,1,662,1291c-4.11,13.62-6.14,29.12-15.48,39.11-11.37,12.15-1.16,18.16,3,26.2,1.75,3.36,5.54,5.66,8.41,8.44,2.11-3,4.64-5.79,6.28-9,6.45-12.8,13.49-25.41,18.68-38.73,6.92-17.73,10.17-36.51,12.07-55.47,0-.4.08-.79.13-1.19q4.14,2.84,8,5.55c-.7,7.86-2.19,15.66-3.66,23.53-2.56,13.66-5.17,27.43-11.78,39.45-7.25,13.19-12.36,27.71-22.56,39.23-2.61,2.94-1.6,7.14.56,8.23,7.64,3.89,9.1,12.69,15.46,17.71,4.11,3.25,6.08,1.19,7.17-1.07,7.56-15.71,18.94-29.23,25.2-45.75,7.7-20.37,14.38-40.85,15.29-62.73,3.19,2.4,6.11,4.63,8.74,6.65-.93,11.38-3.43,22.3-6.46,33.25-6.21,22.41-15.69,43.18-29.83,61.86-3.88,5.12-7.27,10.57-11.33,15.6-1,1.25,4.2,7.77,6.88,11.64a106.77,106.77,0,0,0,8.37,10.6c2.89,3.2,4.15,6.91,8.7-.52,11.36-18.56,23.51-36.68,32.13-56.67,3.8-8.83,4.59-18.94,7-28.4,1.55-6.12,5.53-11.59,4.66-18.41-.12-.89,1.73-2,2.67-3.06,1.24,2.08,3.76,4.3,3.53,6.2-2.18,18.45-5.7,36.69-13.56,53.65-5.22,11.25-10.52,22.69-17.64,32.74-4.32,6.09-8.7,12.11-12.28,18.65-1.52,2.78-7.39,4.45-4.92,7.62,6.34,8.16,13,16.79,21.47,22.19,2.9,1.86,6.42-9,9.76-13.93a175.59,175.59,0,0,0,16-28.11c5-11.35,8.31-23.4,12.26-35.17,3.43-10.23,6.7-20.51,10.12-30.74.15-.46,1.05-.67,1.6-1,.81,1.88,2.6,4,2.26,5.61-2.41,11.54-5,23-8,34.45-5,19.23-14.15,36.7-23.86,53.86a51.8,51.8,0,0,1-8.06,11.36c-13.7,13.58,1.89,19.7,6.73,28.85,6.43,12.13,11.89,8.2,16.7-.59,11.11-20.27,21.52-40.7,27-63.62,3.52-14.8,6.35-29.71,9.74-44.52.31-1.38,2.16-3.23,3.46-3.37,2.44-.26,2.5,2.15,2.48,4-.23,18.7-4.11,36.62-9.36,54.6a233.42,233.42,0,0,1-16.79,41.31c-4.5,8.75-11,16.43-15.92,25-4.74,8.33,5.09,11,7.52,16.64.11.27,1.09.08,1.38.38,3.79,4.06,7.45,13.73,11.24,11.07,6.3-4.44,10.13-13.13,13.61-20.67,6-13,11.81-26.34,16.22-40,4.29-13.28,6.69-27.18,10-40.78,1.27-5.18,2.76-10.32,4.37-15.4.22-.71,1.75-1,2.67-1.5.92,3,3.06,6.31,2.58,9.11-2.83,16.26-5.19,32.73-9.79,48.52-5.71,19.59-13.59,38.72-25.26,55.53-8.85,12.74-8.9,19.13,4.48,29.94,8,6.45,12.79,2.07,19.14-13.36,6.81-16.54,15.23-32.41,20.07-49.76.34-1.21,2.73-1.85,4.16-2.75.86,3.12,3,6.58,2.36,9.32a204,204,0,0,1-21.84,53.05c-3.11,5.37-6.81,10.4-10.09,15.67-.48.76-.58,2.54-.08,3q22.08,20.28,44.34,40.36a10,10,0,0,0,2,1.12,19.13,19.13,0,0,0,.81-3.19c2.2-27.29,2-54.58,1.3-82-.76-31.93-.61-64,1.34-95.81.59-9.63-3.7-19.45.54-29.22.33-.75-8.16-6.05-13-8.21-21.11-9.38-41.4-20.06-58.3-36.09-4.19-4-13.48-8.3-7.93-14.45,3.49-3.88,8.48,5.47,12.58,8.73,19.89,15.81,42.77,26.08,65.27,37.12,1.4.68,2.22.35,2.22-1.34,0-.66,0-1.33,0-2,.57-25.45-1.36-25.63-23.33-34.62-17.51-7.16-32.91-19.09-47.21-32.12-10.44-9.49-23.52-16.18-33.44-26.11-4.94-5-9.55-10.23-14-15.66q.64-4.71,1.32-9.38c6.15,6.91,12.48,13.58,19.66,19.15,25.31,19.61,49.48,41.08,78.92,55,4.18,2,9.76,2.8,12.41,7.93.53,1,3.18,1,4.86,1.41.6-2.64,1.68-5.27,1.74-7.92.2-9.8-.16-19.61.17-29.4.17-4.75.48-9.05-5.51-10.06-19.8-3.35-34.56-16.37-50.72-26.58-18.56-11.72-35.26-25.93-50.85-41.28-1.77-1.74-3.46-3.55-5.1-5.41q.84-5.35,1.7-10.64c4.47,4.76,8.94,9.52,13.63,14,21.34,20.59,46.23,36.37,71.73,51.16,7.28,4.22,15.46,6.92,23.3,10.14,1,.42,2.48.9,2.36-2-.38-8.66-1.29-17.69.63-26,4.19-18-11.6-16.6-20.05-21.51-19-11-37.69-22.18-54.28-36.84-10.34-9.15-21.23-17.7-30.71-27.7q.87-4.87,1.75-9.7c10.8,11.77,23.66,21.47,35.94,31.64A244.83,244.83,0,0,0,862.6,1229c2.15,1,4,2.69,6,3.9,13.51,7.91,9.81-3.59,10.18-9.43.5-8-.22-16,.27-23.93.25-4-2-5.47-4.69-6.24-22.68-6.58-42.74-18.45-60.94-32.81a274.66,274.66,0,0,1-31.16-28.82c.7-3.57,1.42-7.12,2.13-10.65,5.65,5.36,11.37,10.65,16.69,16.31,14.36,15.29,32.37,25.15,50.32,35.08,8.6,4.76,17.92,8.22,27.5,12.54,0-14.17.78-27.83-.3-41.35-.62-7.69-9.64-7.81-15.07-10.24a238.64,238.64,0,0,1-48.74-29.73,171.83,171.83,0,0,1-22.45-20.24q1.17-5.3,2.35-10.51a118.41,118.41,0,0,0,9.92,10.35A223.74,223.74,0,0,0,867.05,1123c3.81,1.6,7.38,3.79,11.73,6.07.73-13.39,1.67-26.46,2.05-39.55.19-6.42-3.42.52-6.13-1.21A316.75,316.75,0,0,1,834,1057.67c-10.26-9.12-20.48-18.26-28.92-28.9q1.3-5.28,2.61-10.47c16.34,21.93,39,37.4,61,53.54,4.05,3,9.19,4.49,13.54,6.55.87-12.05,3-24.17,2-36-.4-4.53-8.83-7.18-14.08-10.23-17.05-9.89-31.06-23.5-45.14-37.24a85.86,85.86,0,0,1-8.62-9.89q1.3-4.81,2.59-9.53c6.6,7.87,14.1,15,21.7,22,13.29,12.28,28.27,22.15,43.65,31.5,2.75,1.68,2.55-.21,2.65-1.94.66-11.54-1.37-23.18,1.87-34.66,1.26-4.44-3.88-4.54-6.19-5.65-21.9-10.54-39.35-26-54.46-44q1.44-4.93,2.86-9.74c9,9.61,19.33,18,28.89,27.09,6,5.66,13.74,8.51,20.07,13.28,9.1,6.87,9.43,3,9.12-5.26A49.83,49.83,0,0,1,891,954.5c5-20.26-14.43-22.38-23.85-31.18-9-8.38-17.72-16.8-25.12-26.17q1.66-5.21,3.29-10.22c11.52,15.43,26.11,28,43,38.32,2.16,1.33,4.57-1.09,4.62-4.9.11-8.16,1.12-16.51-.27-24.43s-11-9-16.28-14.19a152.34,152.34,0,0,1-20.83-25.3q1.92-5.58,3.78-10.85c9.11,13.28,19.4,25.64,31.77,36.38,1,.92,2.1,1.84,3.42,3,1.73-12-1.59-23.78,2.22-35.17.38-1.14-1.34-3.53-2.68-4.61-10-8-17.73-17.67-24.3-28.23q2-5.31,3.86-10.13a218.49,218.49,0,0,0,22.55,28.13c6.18-22,2.1-41.78-6-63-.38-1-.74-2-1.08-2.95-7.8-22-9-46.56,4.27-68.34,5.32-8.76,15.81-15,26.06-12.94,12,2.43,12.31,14.09,12.4,24.53.07,7,1.33,13.92,1.23,20.87a92,92,0,0,1-6.44,32.73,84.87,84.87,0,0,1-6.42,12.87c-12,19.57-6.32,39.87-6.28,60.07,0,1.27,4,.64,8-2.12,9.43-6.58,18.84-13.18,27.8-20.33,3.54-2.82,7-5.73,10.37-8.75V64H64V506.79c21.55,18.94,45.77,33.84,71.82,45.64,3.35,1.51,2.56-5,2.8-7.32.81-7.55.33-15.25.3-22.89,0-6.24-5.23-5.82-9.2-7.64-19.78-9.07-36.6-22.26-51.72-37.65,1.4-2.5,2.82-4.92,4.24-7.26,14.49,16.1,33.09,26.56,51.64,37.07,1,.57,3.52,1.4,3.32-2.26-.46-8.4,1.36-17.3-.89-25.09C135,475,127.76,472,122.76,469.14A99.51,99.51,0,0,1,96.85,448c1.5-2,3-3.92,4.39-5.72,10.29,10.15,22.7,17.29,34.92,24.55,4.48-12.83-8.62-17-12.36-25.75-2.41-5.65-4.8-11.22-6.8-16.89-3.75-10.59-6.17-21.53-4.92-34,1.14-11.36-.12-22.71,7-32.27,8.31-11.19,19.22-18.6,33.69-12.77,9.48,3.81,8.67,14.29,10.18,22.48C166.45,386.82,161.94,405.43,157.63,423.85ZM1024,8V1672a8,8,0,0,1-8,8H8a8,8,0,0,1-8-8V8A8,8,0,0,1,8,0H1016A8,8,0,0,1,1024,8Zm-8,1658.34V13.66l-48,48V1618.34ZM962.34,56l48-48H13.66l48,48H962.34ZM13.66,1672h996.68l-48-48H61.66ZM960,1616v-9.12c-2.72,3.16-5.59,6.19-8.6,9.12Zm0-21.59v-34.68a338.87,338.87,0,0,1-34.51,33.68c-4.38,3.66-8,9.94-14.39,7.38-5.63-2.26-1.69-8.63-1.82-12.77-.71-23-.13-46-.43-69-.19-14.92-2.46-29.93-1.44-44.73,1.75-25.26,1.45-50.47.29-75.64-.9-19.57,2.32-39-.14-58.71-2.34-18.71-.6-37.92-.62-56.91,0-28.74.46-57.5-.17-86.23-.42-18.94-3.33-37.83-3.56-56.77-.54-44.45-1.48-89,.36-133.36,1.14-27.46,1-54.86,1.34-82.28.16-11.49-.11-23,.19-34.48.06-2.59-1.19-2.91-1.52-3.06-5.12,12.52-1.07,25.94-3.89,39.16-1.89,8.88-.28,18.46-.67,27.7-1.21,28.23-1.34,56.58-4.32,84.63-3.07,28.93-4.55,57.84-5.86,86.86-3.35,74.17-.66,148.35-1.92,222.52-.31,18-4.81,36.29-3.17,54,2.27,24.49-1.62,48.57-1,72.88.48,20.22.27,40.51-1,60.83-1.42,22.45,1,45.13,1.14,67.71,0,4.15-2.17,8.86-4.75,12.23a2.62,2.62,0,0,1-.75.62h62.55q9-8.57,17.06-18Zm0-48.28V1495c-1.92,1.29-3.83,2.61-5.7,4-9.25,6.71-19.58,11-29.4,16.44-3.23,1.79-6.16,3.54-10.07-2.76,5.44,19.63,2.4,36.85,2.27,54,0,3.58.77,7.17.83,10.76.07,4.37-.24,8.74-.39,13.11,3.49-3.25,7.21-6.3,10.44-9.78Q944,1563.48,960,1546.13Zm0-60.4v-41.14c-4.67,2.9-9.46,5.66-14.28,8.35-7.38,4.12-15.34,7.19-23,10.87-6.18,3-8.76,13.82-6.17,25.24,0,.16.16.3.19.46,1.65,7-2.12,14.31,1.06,21.25,9-4.8,18.39-9,26.95-14.55C950,1492.88,955,1489.36,960,1485.73Zm0-51.74v-42.22c-9.42,5.67-19.21,10.82-29,16a14.11,14.11,0,0,1-4,1.28c-6.47,1.24-10.9,2.8-10.38,11.71.62,10.54,1,21.24-.66,32-1.16,7.44,5.3,3.27,8.13,1.93A246.3,246.3,0,0,0,960,1434Zm0-53v-33.58q-9.25,6.55-19.23,12.26c-6.32,3.62-12.06,8.26-19.48,9.91-3,.66-4.78,2.85-4.38,6.81.59,5.77.1,11.65.17,17.48,0,3.45.3,6.89.47,10.33,3.74-1.25,7.92-1.82,11.17-3.86C939.09,1393.83,949.72,1387.66,960,1381Zm0-45v-46.51q-6.18,3.87-12.75,7.25c-9.83,5-19.45,10.49-29.34,15.41-7.07,3.52-.6,8.55-1.25,12.75-1.59,10.31.7,21.15.19,31.71-.37,7.67,3.16,6.14,6.88,3.88A400.42,400.42,0,0,0,960,1336Zm0-57.39V1232c-1.76,1.07-3.5,2.15-5.23,3.27A362,362,0,0,1,917,1256.89c-4.91,2.4,0,5.39-.11,8.1-.52,12.79-.39,25.6-.45,38.41,0,.47.46,1.33.73,1.35a3.28,3.28,0,0,0,1.69-.66C932.59,1295.69,946.77,1287.85,960,1278.65Zm0-56.09v-40q-8.75,4.62-18,8.42c-8.54,3.52-17.77,5.83-25.51,10.61-4.08,2.52-1.13,9.51-1.29,14.46-.29,8.66,0,17.34-.16,26-.06,3.67.46,6.26,5,4.81a16.46,16.46,0,0,0,4.73-2C936,1236.62,948.15,1229.81,960,1222.56Zm0-50.57v-39.82c-6.43,3.26-13,6.35-19.59,9.34-8.27,3.73-17.53,5.42-24.82,10.27-6.57,4.37-1.15,12.78-1.68,19.36-.35,4.34,1.52,8.89,1,13.17-1.26,10.38,3.28,8.58,9.85,5.81A312.5,312.5,0,0,0,960,1172Zm0-49.74v-42.68c-14.55,8.16-30.71,12.3-46.11,18.31-7,2.74-3.35,13.69-2.25,20.19a112.21,112.21,0,0,1,1.3,19.61c0,7.29,3.15,5.84,7.62,3.89C934,1135.67,947.21,1129.31,960,1122.25Zm0-52.32V1028.8c-10.77,4.86-22,8.9-32.9,13.44a86.26,86.26,0,0,1-13.68,4.68c-2.44.55-2.33,1.58-2.33,3.33,0,9.81.69,19.7-.22,29.43-1,10.12,3,10.44,10.67,7.35C934.6,1081.77,947.65,1076.48,960,1069.93Zm0-51.73V974.85c-8.29,4.41-16.83,8.45-25.25,12.71C928,991,920,993,914.66,997.65c-3.32,2.9-3.6,11.08-2.75,16.5,1.08,6.84-.78,13.19-.62,19.76,0,1.66-2.58,5.84,2.74,4.58a29.89,29.89,0,0,0,5.38-1.82C933,1030.55,946.7,1024.78,960,1018.2Zm0-53.47V922.51c-13.15,9.92-28,17.81-44,24.32-2.48,1-2.94,1.85-2.93,4,.05,8.83-.07,17.67.07,26.5.06,3.83.62,7.65.95,11.47,3.66-1.61,7.43-3,11-4.87C936.83,977.78,948.53,971.45,960,964.73Zm0-52.7V870.24c-11,10.22-23.54,18.56-38.45,23.4-15.76,5.11-5.71,16-8,23.72-1.94,6.52.12,14.24.41,21.43,8.37-4.26,16.86-8.3,25.07-12.83A141.65,141.65,0,0,0,960,912ZM908.4,784.81c12.25-25.14,19.7-51.11,14.41-79.32-1.52-8.16-6.19-11.25-14.39-6.54-12.84,7.37-15.33,19.37-15.58,36.23-1.78,12.06,1.6,27,6.23,41.77.72,2.28,1,4.76,2.13,6.84C902.94,787.08,904.35,793.12,908.4,784.81ZM824.69,1616h44.39c-4.54-2.76-8.49-6.64-12.31-10.42-21.35-21.14-43.4-41.64-63.61-63.82-19.12-21-36.08-43.92-54.36-65.68-8.1-9.65-17.59-18.14-25.62-27.84-16.38-19.78-32.27-40-48.24-60.09-17.71-22.34-35.49-44.63-52.82-67.26-7.86-10.25-14.72-21.27-23.27-33.75.94,10.12,7.39,14.85,10.9,21,10.76,19,21.82,37.78,33.69,56.07,9.53,14.7,20.71,28.33,30.6,42.82,9,13.11,16.8,27,25.78,40.07,7.25,10.59,15.47,20.52,23.24,30.76,12.43,16.4,24.49,33.1,37.35,49.15,13.69,17.08,28.18,33.52,42.22,50.33Q808.71,1596.64,824.69,1616Zm-277.5-398.51c3.45-1.39,2-5.16,1.48-7.55-5.1-22.44-8.47-45.39-17.91-66.62-2-4.46-5-10.24-8.92-11.56s-9,3-11.76,7.18a19.54,19.54,0,0,0-2.8,14.73c-2.75,7.15,2.94,12.76,4.7,19.14,4.24,15.36,15.34,27,25.51,38.68C539.49,1213.8,541.93,1219.6,547.19,1217.49ZM446,978.87c8.6-11.47,21.61-20.55,21.12-37.25-.23-8,1.35-17.24-9.26-19.76-8.09-1.91-14.69,4.21-18,9.59-11.29,18.22-15.51,38.92-16.81,55.73,0,6.3-.14,8.15,0,10,.21,2,.72,3.9,1.1,5.85,1.38-1.28,2.87-2.47,4.12-3.87C434.3,992.43,440.67,986,446,978.87Zm-38.78,76.23c.22-.67-.44-1.63-.7-2.46-.46.25-1.22.39-1.35.76-8.24,23.69-22.22,44.46-34.6,65.91-13.77,23.88-29.76,46.49-45,69.49-18.11,27.27-35.89,54.79-54.92,81.41-13.08,18.29-28,35.27-42.21,52.74-11.06,13.59-22.29,27-33.5,40.52-.62.74-2.44,1.59-2.63,1.39-1.28-1.37-3.11-2.95-3.22-4.56-1.53-23.28-3.2-46.56-4-69.86-.83-22.92-.35-45.86-1.42-68.82-.56-12,.87-25,.21-36.78-1-17.89.84-35.88-1.66-53.76-1.66-11.87,0-24.21-1.83-36-3.15-20.52,1.59-41.33-3.25-61.72-.93-4-.22-8.32-.15-12.49.33-19-3.53-38-3-56.74.57-20.39-1.78-40.56-1.43-60.89.44-25.31-2.19-50.68-3.62-76-.45-7.92-1.45-15.82-1.92-23.75-1.7-28.34-3.28-56.68-4.89-85-1.06-18.82-2-37.64-3.17-56.45q-1.82-29.28-4-58.52c-1.17-15.61-1.92-31.31-4.2-46.77a218.17,218.17,0,0,1-2-34.22c0-1.07-1.77-2.15-2.71-3.22a11.2,11.2,0,0,0-.88,3c.19,35.3.6,70.59.62,105.89,0,30.22-.47,60.44-.64,90.66-.12,19.83,1.43,39.8-.46,59.45-2.37,24.72-.16,49.45-2.33,74.11-.8,9.12,0,18.36-.11,27.55q-.52,63-1.12,126c0,1.33,0,2.66,0,4-.56,21.75-.54,43.49-1.58,65.26-1.59,33.63-.42,67.4-.42,101.11v55.07c0,31.19-.22,62.39.1,93.57.18,18,2.06,36.1,1.66,54.12-.38,17.17-.79,34.52-.36,51.52.6,23.74-.08,47.48.46,71.21.62,27.32-1.3,54.76.67,82,.78,10.76-.07,21.51-.05,32.23H195c.08-13.48.07-27-.16-40.42-.4-22.14-.77-44.3-2-66.4-1.09-19.35-5-38.67-4.55-57.93.34-13.65-4.9-27.38.53-41,4-10.17,13.15-15.88,19.83-23.66,18.25-21.24,36.19-42.7,52.8-65.25,14.84-20.13,29.35-40.44,41.85-62.19,9.83-17.1,21.26-33.27,31.1-50.36,10.08-17.51,18.89-35.75,28.64-53.46,7.35-13.35,13.2-27.41,20.93-40.65,7.45-12.78,11.55-27.51,17-41.44C403.22,1067.26,405.23,1061.17,407.25,1055.1ZM140.7,442.81c10.66-23.29,17.45-47.52,13.85-73.28-.83-5.92,1.53-16.43-9.87-16.61-4.73.39-8.93.47-12.38,3.67-11.66,10.79-15.87,43.81-10.76,58.72,3.51,10.24,9.4,18.66,13.89,28.05a20.38,20.38,0,0,0,2.59,3.4A27.74,27.74,0,0,0,140.7,442.81Zm-1.77,150.11c0-9.08.53-18.2-.21-27.21-.47-5.85-7.2-5-10.86-6.26-21.76-7.8-38.82-22.79-57.07-36-2.24-1.61-4.59-3.14-6.79-4.83v35.8a387,387,0,0,0,53.3,35.65c5.67,3.17,12.28,4.76,18.57,6.71C139.33,597.9,138.93,595.07,138.93,592.92ZM138.76,650c0-9.32.85-18.51-.28-27.45-.85-6.72,2.76-14.81-9.41-18.5-24.75-7.51-45.86-21.92-65.07-39v44.55A260.78,260.78,0,0,0,115,639C122.89,642.36,130.57,646.17,138.76,650Zm-.46,11.22c.9-4.36-7.83-4.1-12.08-6-21.76-9.7-43.09-20.05-62.22-34v39.25c3.36,1.89,6.78,3.66,10.25,5.27,19.68,9.17,38.3,21.36,60.19,25.58,2.12.41,2.35.65,2.53-1.47C137.77,680.34,136.3,670.88,138.3,661.2Zm-1.23,43.24c.15-4.61-3.34-3.6-5.22-4.1-19.49-5.17-36.5-15.61-54.49-24.1-4.61-2.17-9-4.53-13.36-7v39.11a534.31,534.31,0,0,0,69.93,34.25c2.71,1.11,3-.44,3-2.64C136.91,728.1,136.67,716.26,137.07,704.44Zm-.31,72.44c.68-4.09-1-8.6-.18-12.64,4.21-21-15.26-16.15-24.06-20.43C96.74,736.16,81.16,728.19,66,719.42l-2-1.18v41.62c18.51,9.14,36.25,20.2,56.65,25.13a29.43,29.43,0,0,1,5.8,2C139.05,793,135.85,782.32,136.76,776.88Zm-1,33.4c.91-12.51-7.28-12.9-14.73-15-20.42-5.82-38.7-16.09-57-26.38v36c11.91,6.66,24.31,12.45,36.85,18a291.43,291.43,0,0,0,30.76,11.6c6.24,1.94,1.45-5.61,4.66-6.86C132.05,822.08,135.41,815.47,135.78,810.28Zm-.8,75.83c-.1-13.33.43-26.69-.25-40-.34-6.68-7.63-3.47-11-4.46-21.29-6.15-40.92-15.42-59.68-26.42v43.34a174.7,174.7,0,0,0,29.82,15.56c12.57,5,25.24,9.79,37.9,14.59C133.92,889.56,135,888.7,135,886.11Zm-16.43,722.55c7.29.2,18.72,5.64,16.24-11.3-1.58-10.78,1.07-22.12-1.56-33.18-.69-2.93-1.8-3.11-4.18-3.16-22.81-.45-44.4-6-65.05-14.81v46.34c10.7,4.64,21.8,8.36,33,12A78.67,78.67,0,0,0,118.55,1608.66Zm11.83-676.09c3.59.74,5.22-3.15,4.31-4.79-4.52-8.14,0-16.25,0-24.19,0-8.71-6.63-5.2-8.89-6-20.87-7.42-41.31-15.69-60.3-27.13-.52-.3-1-.63-1.52-.94v35.75c17.22,9.68,35.73,17,54.62,23.66A91.24,91.24,0,0,0,130.38,932.57Zm3.37,20.55c3.69-20.17-14.2-12.44-21.41-15.32A426,426,0,0,1,64,915v45c2.65,1.49,5.35,2.87,8.12,4.1,17.11,7.56,35.78,11.74,53.94,16.74,16.74,4.62,1-11.36,8-13.16C131.19,962.9,132.93,957.61,133.75,953.12Zm-.12,472.48c.08-6.09-1.72-12.49-.44-18.24,3.25-14.56-6.48-14.94-16-16.31-18.08-2.61-34.86-9.39-51.57-16.34L64,1374v38.52a190.69,190.69,0,0,0,34.7,15.35c10.69,3.42,22.07,4.69,33.21,6.51A36.71,36.71,0,0,0,133.63,1425.6Zm-.31-370.94c1.82-12.61-4.41-15.47-14.62-17.73A199,199,0,0,1,64,1016.11v37.5c.94.5,1.88,1,2.83,1.48,20,10.07,40.41,19.54,62.66,24,1,.19,1.78,1.11,3.36,2.14C130.22,1071.89,132.12,1063.07,133.32,1054.66ZM133,1495.53c0-15.92.38-32.26-.17-48.57-.25-7.54-8.18-5.2-11.77-5.47-20.62-1.58-38.23-10.13-56.27-19.4l-.75-.4v53.13q4.45,2.16,9.08,4C92.46,1486.64,112,1494.17,133,1495.53Zm-3.19-464.8c2.39.73,3.22-.28,3.2-2.74-.08-12,0-24,0-36,0-2,.63-3-2.67-1.58-7.22,3-14.11-1.48-20.75-3.78C94.15,981.31,78.43,976.4,64,969.09v36.16c8.38,4.59,17,8.78,25.67,12.76C102.33,1023.8,116.36,1026.61,129.77,1030.73Zm3.11,518.39c.1-13.83,1.21-27.79-.4-41.43-.73-6.09-9.72-3-14.66-4.2-18.7-4.44-36.68-10.34-53.82-18.77v51.9a285.56,285.56,0,0,0,38.42,12c9.42,2.32,19.45,2.23,29.22,3.08C132,1551.68,132.87,1550,132.88,1549.12Zm-2.95-270.32c1.12.28,3.58.43,2.82-1.41-4.07-9.91-1.35-20.13-1.42-30.13,0-6.42-4-7.39-7.86-8A179.32,179.32,0,0,1,64,1217.83V1258a276.26,276.26,0,0,0,36.26,12.94C110.08,1273.76,120,1276.24,129.93,1278.8Zm2.62,105c2-11.94-1.19-24.59-1.06-37.32,0-.46-1.38-1.24-2.2-1.36-22.63-3.19-44-10.89-65.29-18.6v38.08c7.38,3.07,14.94,5.83,22.49,8.67A173.33,173.33,0,0,0,132.55,1383.8Zm-.23-291c.8-7.37-8.76-3.92-13.24-5.31-19.25-6-37.84-13-55.08-22.84v39.53c14.37,6.13,29.46,10.62,44.7,14.78,7,1.9,13.81,4.29,20.87,5.53,2.37.41,2.58-3.48,2.33-5.54C130.86,1110.16,131.35,1101.64,132.32,1092.78Zm-3,243.83c2.22.66,2.68-.79,2.65-2.42-.31-14.39.72-29-1.64-43.06-1.09-6.56-11.44-4-17.45-5.88C96.26,1280.07,79.64,1275,64,1267.94v49c17.29,6.55,35.48,10.86,53.3,16.11C121.3,1334.18,125.29,1335.41,129.29,1336.61Zm2.22-140.48c.32-7.73-6.16-4.41-8.7-4.66-21.49-2.18-40.5-10.49-58.81-20.63v37.09a231.34,231.34,0,0,0,33.49,14.91c9.35,3.33,19.12,5.52,28.74,8,3.39.89,4.89-.35,4.82-4.34C130.88,1216.41,131.08,1206.26,131.51,1196.13Zm-.63-14.85c.07-15.77.47-31.55-.23-47.29-.18-4.17-6-2-8.88-2.56A301.18,301.18,0,0,1,64,1113.52v47.13c10.58,5.24,21.58,9.75,32.57,14.34,10.62,4.44,22,4.82,32.59,8.59C131.78,1184.51,130.88,1182.22,130.88,1181.28ZM64,1616h39.18a145.89,145.89,0,0,1-32.92-11.64c-2.09-1-4.18-2-6.26-3Zm-8,2.34V61.66l-48-48V1666.34Z"/><path d="M873.59,806.8q-1.86,4.82-3.86,10.13c-3.22-5.14-6.15-10.49-8.92-16-2.2-4.33-5.28-8-6.47-13.11-.61-2.64-.73-4,1.29-4.55s3.92-1.42,5.71,2.25A179.42,179.42,0,0,0,873.59,806.8Z"/><path d="M859.3,845.58q-1.86,5.26-3.78,10.85a204.39,204.39,0,0,1-16.36-30.36c-.58-1.3-.07-4.31.84-4.79,2-1,4.13-.12,5.42,2.12C849.79,831,854.37,838.41,859.3,845.58Z"/><path d="M845.32,886.93q-1.64,5-3.29,10.22a94.3,94.3,0,0,1-16.57-30.4c-.27-.87,1.31-3.15,2.4-3.46,2.95-.81,4.07,1.55,5.23,3.86A131.6,131.6,0,0,0,845.32,886.93Z"/><path d="M831,933.05q-1.43,4.8-2.86,9.74c-4.78-5.68-9.32-11.61-13.7-17.72-1.89-2.64-5.73-7.13-2.27-9.62,4.23-3,6.31,1.95,8.64,5.25A112.35,112.35,0,0,0,831,933.05Z"/><path d="M818.93,975.5q-1.29,4.71-2.59,9.53c-5.36-7.11-9.76-14.75-14.54-22.26-1-1.51-1.42-3.1.51-3.54,1.7-.38,3.84-2.37,5.55.61A108.21,108.21,0,0,0,818.93,975.5Z"/><path d="M807.71,1018.3q-1.31,5.19-2.61,10.47-1.61-2-3.1-4.07c-4.28-5.91-10-11.65-10.92-19.66-.16-1.43-1.08-3.58,1.49-4,2.17-.37,4.23-.26,5.51,2.15A115,115,0,0,0,807.71,1018.3Z"/><path d="M794.72,1072.88q-1.19,5.22-2.35,10.51a103.74,103.74,0,0,1-11.88-15.76c-1.54-2.54-2.08-4.3.15-5.79,2.93-2,4.83.79,6.52,2.58C789.75,1067.16,792.22,1070,794.72,1072.88Z"/><path d="M784.42,1121c-.71,3.53-1.43,7.08-2.13,10.65q-7.51-8.1-14.41-16.78c-2.11-2.65-2.39-7.78.22-9.37,3.39-2.08,3.64,2.86,5.43,4.75C777,1114,780.71,1117.51,784.42,1121Z"/><path d="M775.92,1165q-.88,4.83-1.75,9.7a117.07,117.07,0,0,1-8.85-10.45c-3.1-4.16-5.46-8.89-7.9-13.49-.34-.63.58-2.39,1.39-3.07,1.67-1.43,3.4-1.08,4.59.87A105.57,105.57,0,0,0,775.92,1165Z"/><path d="M767.56,1213.45q-.87,5.29-1.7,10.64c-5.59-6.32-10.58-13.25-15.76-19.94-1.09-1.42-5-3.26-2-5.38,1.33-1,5.61.31,7.24,1.92C759.49,1204.83,763.53,1209.14,767.56,1213.45Z"/><path d="M760.28,1261.27q-.67,4.67-1.32,9.38c-6.58-8-12.82-16.29-19.34-24.31a2.87,2.87,0,0,1,.55-2.76c1.59-.93,3.27-1.14,4.88.57C750.25,1249.7,755.21,1255.57,760.28,1261.27Z"/><path d="M735,1268.5c2.48,4.71,3.06,9.25,3,15q-.06,3.85-.38,7.64c-2.63-2-5.55-4.25-8.74-6.65,0-.79.06-1.58.08-2.37.11-5.11.25-10.06,3.75-14.14A2.58,2.58,0,0,1,735,1268.5Z"/><path d="M702.94,1246.79a86.86,86.86,0,0,1,.18,19.13q-3.89-2.72-8-5.55c.48-4.33,1.25-8.61,1.88-12.92.31-2.16,1.89-2.71,3.65-2.42C701.5,1245.18,702.85,1246.09,702.94,1246.79Z"/><path d="M669,1228.88c3,.06,4.35,2.46,4.14,5.67-.23,3.52-.56,7-1,10.51q-3.92-2.54-8-5.12.38-2.85.76-5.69C665.26,1231.44,666.09,1228.83,669,1228.88Z"/><path d="M644.85,1213a127.23,127.23,0,0,1-.39,14.76q-4.1-2.48-8.32-5c.48-4.56.73-9.1,1-13.69.07-1.38,2.17-2.64,3.33-4C642,1207.75,644.75,1210.33,644.85,1213Z"/><path d="M615.08,1186.8a179.73,179.73,0,0,1-.09,23.79q-4.11-2.31-8.33-4.63.68-9.49.46-19.15c0-2.43,2.21-3.89,5.14-4C615.56,1182.79,615,1184.85,615.08,1186.8Z"/><path d="M584.58,1161.8c1.69,11.06,3.2,22.09,1.87,33.35q-4.66-2.43-9.44-4.84c.25-9.39.21-18.8,0-28.22,0-1.37-.49-3,2-3.18S584.19,1159.24,584.58,1161.8Z"/><path d="M494.36,1103c1.75,1.68-.34,2.7-1.36,3.45a167.19,167.19,0,0,1-29.92,17.15q.19-5.08.34-10c8.91-4.15,17.81-8.34,26.86-12.15C491.27,1101,493.36,1102.05,494.36,1103Z"/><path d="M490.12,1007.2c1.1,3.89-1.75,7.65-4.53,9.76-7.24,5.47-14.6,10.9-22.22,15.82q-.18-5.33-.39-10.26c7.28-4.88,14.44-10,21.91-14.57C486.92,1006.71,489.57,1005.27,490.12,1007.2Z"/><path d="M482.51,1061.87c1.1,3.72-3.45,7-6.6,8.8Q470,1074,464,1077.27c0-3.15,0-6.24,0-9.27q5-3.09,9.73-6.59C475.87,1059.85,481.56,1058.65,482.51,1061.87Z"/><path d="M468.61,1163.69c1.19,2-.26,2.89-1.53,4a50.29,50.29,0,0,1-6.77,5.11q.33-4.41.62-8.74l3.51-1.41C466.37,1161.92,467.57,1162,468.61,1163.69Z"/><path d="M468.73,1203.1c-1.7,2-3,4.61-5.15,5.78s-4.55,2.49-6.83,3.7c.28-2.69.56-5.37.82-8l1.86-1A11.09,11.09,0,0,1,468.73,1203.1Z"/><path d="M381.24,942.78a276.77,276.77,0,0,0,3.45,28q-3.81,1.8-7.79,3.86c-1.5-10.63-2.56-21.33-4-32-.57-4.31,2-9.28,4.81-9.1C381.5,933.83,381,938.94,381.24,942.78Z"/><path d="M350.23,965.51c2,1.19,3.68,3,2.77,5.62a47.18,47.18,0,0,0-2.19,19.32q-3.62,2.56-7.15,5.35c-.57-5.87-.86-11.77-.91-17.72,0-5,3.21-8.12,4.54-12.25C347.43,965.42,349.51,965.09,350.23,965.51Z"/><path d="M328.82,943.66c3.13,2.07,0,4.64-1.42,6.64a168.91,168.91,0,0,1-12.16,15c-.68-3-1.4-6.07-2.14-9.28,2.79-3,5.61-6,8.47-8.91C323.52,945.11,325.92,941.74,328.82,943.66Z"/><path d="M328.88,1001.05q.08,3.88.27,7.75-1.75,1.8-3.44,3.67s-1.39-6.64-4.09-18.89a5.26,5.26,0,0,1,3.88-2C326.23,991.48,328.81,997.72,328.88,1001.05Z"/><path d="M311.39,909.9c.15,1.72.84,4,0,5.09-2,2.71-4,5.41-6.08,8-.66-2.79-1.35-5.64-2.05-8.54,2-1.62,4.11-3.15,6.15-4.73A2.85,2.85,0,0,1,311.39,909.9Z"/><path d="M308.53,858.2c.22,3.08,1.68,6-.93,9.12q-6,7.18-12.43,14c-.75-3-1.5-6-2.27-9.07,3.82-3.79,7.6-7.62,11.47-11.37A25.35,25.35,0,0,1,308.53,858.2Z"/><path d="M291.92,823.18c-.05,1.82.58,4-.24,5.38a106.86,106.86,0,0,1-7.24,10.35c-.67-2.63-1.36-5.28-2.05-8q3.28-3.27,6.6-6.5C289.7,823.76,290.93,823.59,291.92,823.18Z"/><path d="M286.34,719.08c.66.87.25,3.14-.43,4.36A212.68,212.68,0,0,1,262.69,757q-1.33-4.87-2.7-9.81l.57-.67c7.36-8.74,12.91-19,21.87-26.39C283.56,719.19,284.92,717.21,286.34,719.08Z"/><path d="M285.74,767.81c4.21,2.56.7,7.73-1.25,10.81q-5.42,8.5-11.56,16.29-1.4-5.25-2.83-10.59c2.68-3.46,5.36-6.91,8.11-10.3C280.42,771.31,282.29,765.72,285.74,767.81Z"/><path d="M265.81,689c.09,3.12-1.41,6.6-3.12,9.4a203.54,203.54,0,0,1-11.59,17q-1.57-5.53-3.17-11.15,6.09-7.53,12.4-14.9C261.75,687.67,265.77,687.39,265.81,689Z"/><path d="M249.46,657c.62,1.57,2,3.29,1.74,4.71-1.43,7.64-5.32,13.87-9.85,19.67Q239.7,675.72,238,670q3.6-5.1,7.12-10.25C246,658.42,248,657.91,249.46,657Z"/><path d="M246.38,612.11c0,3.06.85,6.43-.14,9.14-3.45,9.49-9,17.57-15.2,25.21-.89-3-1.8-6-2.71-9q1.53-2,3-4.1c3.8-5.29,6.81-11.14,10.41-16.58C242.94,615,244.82,613.64,246.38,612.11Z"/><path d="M239.48,585.86c3.12,2.68-.24,5.53-1.22,6.92q-8,11.29-16.89,21.74-1.45-4.75-2.94-9.53c5.06-5.75,10.2-11.43,15.34-17.1C234.94,586.6,236.75,583.51,239.48,585.86Z"/><path d="M223.56,559.51c2.17,1.22,1.17,3.61-.09,6.28A88,88,0,0,1,211.86,584q-1.43-4.58-2.89-9.17,4.68-5.52,8.92-11.42C219.13,561.63,220.55,557.82,223.56,559.51Z"/><path d="M222.14,519.42c2.92,2.69-2.5,6.77-4.66,9.73a235.82,235.82,0,0,1-16.62,20.35q-1.41-4.35-2.84-8.7c5.13-5.34,10.21-10.73,15.35-16.07C215.84,522.16,218.73,516.28,222.14,519.42Z"/><path d="M210,486.68c.27,2.54,1.74,5.95.63,7.5A186.93,186.93,0,0,1,190.49,518q-1.41-4.25-2.85-8.51A151,151,0,0,0,207.17,488C207.7,487.28,209,487.11,210,486.68Z"/><path d="M199.81,455.68c1.91,1.08,1.5,3.13.3,5.15a171,171,0,0,1-19.78,27.11q-1.61-4.67-3.23-9.34c6.07-7.06,12.11-14.12,18.22-21.12C196.32,456.34,198.91,455.16,199.81,455.68Z"/><path d="M178.5,436.18c-.59,2.91-.25,6.6-1.93,8.61a93.73,93.73,0,0,0-7.48,10.93c-.93-2.65-1.88-5.31-2.83-8,1.52-1.91,3-3.82,4.42-5.77C172.91,438.92,174.43,436.2,178.5,436.18Z"/><path d="M98.29,439.2c1,1.05,1.94,2.06,2.95,3.05-1.42,1.8-2.89,3.7-4.39,5.72q-2-2.24-3.78-4.6c-.72-.93-3.89-2.31-.52-5C95.58,435.88,97.05,437.84,98.29,439.2Z"/><path d="M81.11,468.4c.37.43.75.85,1.13,1.27-1.42,2.34-2.84,4.76-4.24,7.26-1-1-2-2.1-3-3.16-2.69-2.83-6.48-7.38-3-10.28S78.59,465.51,81.11,468.4Z"/></svg>