<svg id="Card" xmlns="http://www.w3.org/2000/svg" viewBox="0 0 1024 1680"><defs><style>.cls-1{fill:#f2f0ed;}.cls-2{fill:#8c1707;}.cls-3{fill:#16592d;}.cls-4{fill:#38408c;}</style></defs><rect class="cls-1" x="14.5" y="14.5" width="995" height="1651"/><polygon class="cls-2" points="966 1619.17 966 60.83 1018 8.83 1018 1671.17 966 1619.17"/><polygon class="cls-2" points="60.83 58 8.83 6 1015.17 6 963.17 58 60.83 58"/><polygon class="cls-2" points="8.83 1674 60.83 1622 963.17 1622 1015.17 1674 8.83 1674"/><path class="cls-3" d="M828.55,1001a87.43,87.43,0,0,1-26.33-4.24c-4.31-1.37-4-5.37-3.86-7.76a9.44,9.44,0,0,0,0-2.32C797,980.46,796,974.14,795,968c-2.23-13.33-4.52-27.09-9.79-40l-.47-1.14,2.87-1.9.87.87c3.5,3.52,7.22,6.89,10.81,10.15,8.12,7.37,15.78,14.33,21.88,23.29a23.09,23.09,0,0,0,3.88,4,40.36,40.36,0,0,1,3.34,3.22,1.52,1.52,0,0,0,1.21.64,3,3,0,0,0,.94-.18,3.9,3.9,0,0,0-.19-1.27,180,180,0,0,0-25.44-31.35,71,71,0,0,1-5.58-6.5c-4.54-5.74-8.46-10.68-16-12-2.39-.42-2.76-3.52-3.32-8.21a49.25,49.25,0,0,0-.79-5.15c-2.51-10.47-5.12-21.1-7.64-31.37q-2.13-8.67-4.24-17.34a4,4,0,0,1,.58-3.58,3.55,3.55,0,0,1,2.86-1.31,4.91,4.91,0,0,1,1.94.42c3.61,1.57,7.39,3.06,11.05,4.5,9.8,3.85,19.92,7.83,28.4,14,4.65,3.37,5.95,10.67,7.21,17.73.45,2.52.92,5.13,1.52,7.38,8.77,32.79,20.77,56.83,37.75,75.64a10.16,10.16,0,0,1,.94,1.28,4.39,4.39,0,0,0,.85,1.08h0a2.85,2.85,0,0,0,1.3-.59c1-.63,1.1-1,1.1-1a8.93,8.93,0,0,0-.7-1c-.26-.36-.52-.72-.74-1.08-2.56-4.29-5.47-8.49-8.29-12.54-5.45-7.85-11.09-16-14.63-25.28a11.9,11.9,0,0,1-.56-2.75c0-.34-.08-.67-.13-1l-.45-2.69,2.7.38.92.1a11.75,11.75,0,0,1,2.62.46c15.7,5.19,33.86,12.25,49.64,25.26a4,4,0,0,0,.91.09,4.87,4.87,0,0,0,.88-.07,3.16,3.16,0,0,0-1.12-3.68C878.69,931.81,862.26,923,845,919.19c-12.41-2.71-15.55-11.14-17.91-20.28-.83-3.23-1.82-6.49-2.78-9.64-.76-2.5-1.62-5.32-2.37-8a17,17,0,0,1-.46-4c0-.52,0-1-.07-1.56l-.25-3.13,2.94,1.09c.43.17.87.3,1.31.44a16.2,16.2,0,0,1,3.28,1.32q9.66,5.64,19.37,11.23l.27.16c17.49,10.12,35.58,20.57,53.14,31.35a470.8,470.8,0,0,1,39.69,27.71c4.31,3.28.88,8.31-1,11-.35.51-.65,1-.91,1.37-7.84,12.63-19,19-33.27,19a49.28,49.28,0,0,1-6.44-.43,20.76,20.76,0,0,0-2.6-.17c-7.06,0-12.78,3.84-18.31,7.56l-.21.14-1.83,1.22C860.82,995.91,845.1,1001,828.55,1001Z"/><path class="cls-3" d="M941.71,936.72a951,951,0,0,0-146.53-99.2l-3.43-1.88,3.53-1.68c7.5-3.56,12-5.57,16.66-5.57,5.71,0,11,3,21.79,9.72,8.44,5.29,18,8.22,29.4,8.94.53,0,1.06.13,1.58.22a11.33,11.33,0,0,0,1.64.2l.3,0v0a8.42,8.42,0,0,0-3.49-2.39l-4.37-1.23c-9.18-2.55-18.66-5.19-26.79-11.29-1-.78-2-1.59-2.93-2.39l-3.38-2.83,2.62-1.4c.44-.23.87-.5,1.31-.78a11.3,11.3,0,0,1,4-1.85,153.76,153.76,0,0,1,16.19-2.09l.59,0c1-.06,2.89-.17,3.21-.57,0,0,.15-.2,0-1-.3-1.66-2.2-2.42-3.85-2.42a5.93,5.93,0,0,0-.84.06l-5,.82c-19.36,3.14-39.38,6.39-58.7,12a12.15,12.15,0,0,1-3.37.45c-5.3,0-11.23-2.94-17-5.78-1.91-.95-3.88-1.93-5.72-2.72-14.75-6.43-32.33-13.72-50.79-19a4.52,4.52,0,0,1-3.41-2.78,4.23,4.23,0,0,1,1-3.93C717.41,781.8,731.73,780,742.93,780c6.07,0,12.37.64,18.46,1.25l1.5.15a55.7,55.7,0,0,0,5.63.28c11.36,0,22.93-3.3,36.39-10.4a4.65,4.65,0,0,0,1-2.47h0a7.67,7.67,0,0,0-1.91.46l-.76.23c-1,.3-2.07.53-3.07.75a33.76,33.76,0,0,0-3.47.9c-8.72,2.92-20.26,6.27-32.2,6.27a60.15,60.15,0,0,1-16.31-2.18,1.29,1.29,0,0,0-.35-.05,7.1,7.1,0,0,0-2.11.59,11.71,11.71,0,0,1-4.24,1,8,8,0,0,1-4.14-1.19l-2.88-1.7,2.86-1.73c3.52-2.12,7-4.24,10.41-6.34,9.29-5.67,18-11,27.09-16.09l.87-.47c3.94-2.15,3.9-2.67,3.21-4-.21-.4-.56-.77-1.66-.77a12.36,12.36,0,0,0-4.34,1.11c-12.32,5-23.54,12.46-34.38,19.68-3.83,2.55-7.79,5.18-11.8,7.71-10,6.31-18.16,14.18-27,23.07a11.46,11.46,0,0,1-8.47,3.33c-3.44,0-7.34-1.12-11.93-3.41-10.18-5.08-21.1-5.61-31.66-6.12l-1.44-.07c-7.06-.35-10.33-1.46-11.28-3.83-1-2.58,1.19-4.95,3.35-7.25a19.51,19.51,0,0,0,2.8-3.41c5.64-10.33,14.93-11.2,24-11.2h2.87a49.06,49.06,0,0,0,7.6-.43c22.87-3.71,40.12-11.52,54.29-24.57,1.42-1.31,1.94-3,1.34-4.14-.31.21-.8.6-1.09.84l-.82.65c-10.87,8-23,15.88-37.64,19.38-7,1.67-13.93,3.17-21.31,4.76l-.17,0L658.75,763l-1.16.26-1.45-3,.93-.74,6.67-5.31C669,750,674,746.1,678.87,742l.46-.39c2.69-2.22,2.64-2.76,2.29-3.23a1.39,1.39,0,0,0-1.27-.67,7.65,7.65,0,0,0-3.92,1.7c-10.29,7.52-20.21,15.51-27.7,21.64-1.22,1-2.43,1.89-3.91,1.89-1.93,0-3.11-1.5-3.93-2.8a91.23,91.23,0,0,0-7.56-10c-4-4.81-8.14-9.77-10.79-15.87a7.33,7.33,0,0,0-.44-.89,8.22,8.22,0,0,1-1.35,1c-1.09.69-1.25.79-.82,2.22,2.26,7.62,7.29,13.64,12.15,19.45,2.43,2.91,4.94,5.9,7.13,9.11.7,1,1.56,2.55,1.1,4.11a3.93,3.93,0,0,1-2.56,2.38l-.32.14c-4.25,10.42-12,15.71-23.21,15.72a43.75,43.75,0,0,1-7.85-.77,71.3,71.3,0,0,0-13.21-1.4,44,44,0,0,0-10.66,1.26,17.67,17.67,0,0,1-4.19.58,6.77,6.77,0,0,1-5.3-2c-2.25-2.49-1.86-6.31-1.51-9.68a15.47,15.47,0,0,0,.13-3.67c-2.08-9.76,1.24-22.06,9.1-33.75,9.68-14.39,24.18-25.16,36.95-27.43a51.23,51.23,0,0,1,8.87-.77c10,0,19.15,2.82,28,5.55,4.78,1.47,9.72,3,14.66,4a95.43,95.43,0,0,0,19.32,2.07,81.54,81.54,0,0,0,28.95-5.29c12.59-4.75,24.46-7.16,35.29-7.16,17.27,0,32.62,6.11,45.61,18.16,7.13,6.62,11.12,15.12,15,23.35A105.17,105.17,0,0,0,821.66,766c7.08,10.2,16.2,18.82,25,27.16,3.45,3.26,7,6.6,10.36,10,13,13,22.13,28.89,28.82,49.88,7.65,24.1,26.51,39.85,42.09,50.88,10.1,7.15,15.83,17.63,17,31.13l.42,4.76Z"/><path class="cls-4" d="M879.1,685a40.9,40.9,0,0,1-7.94-.84c-20.27-4-36.31-10.06-50.45-19.07l-2.56-1.64,2.51-1.7c12.87-8.77,25.86-13.22,38.62-13.22a61.3,61.3,0,0,1,28.53,7.4A18.83,18.83,0,0,1,897.27,667a11.89,11.89,0,0,1-1.14,9.52C892.8,682.14,887.07,685,879.1,685Z"/><path class="cls-4" d="M786,604.08a2.93,2.93,0,0,1-2.3-1c-1-1.27-.73-3-.44-4.52a8.81,8.81,0,0,0,.2-1.35,4.24,4.24,0,0,1,1.15-3.1,4.41,4.41,0,0,0,.51-.78c6.69-20,17.76-34,33.83-42.75A25.8,25.8,0,0,1,831,547.12,13.57,13.57,0,0,1,841,551c2.7,2.76,4.07,6.81,4,11.71v.22l-.08.29c-2.89,8.91-10.71,16.93-24.65,25.31-10.94,6.59-22.94,11.54-32.18,15.12A5.64,5.64,0,0,1,786,604.08Z"/><path class="cls-3" d="M828.14,868.18c-4.47-2-8.62-3.88-12.56-5.67l-.2-.09c-8.27-3.77-15.36-7-22.68-9.93l-6.43-2.59C774.2,845,761.72,840,748.9,836.19c-19-5.65-38.49-10.29-57.36-14.78l-.46-.12a251.73,251.73,0,0,0-45.63-6.12c-4.7-.25-9.4-.53-14.11-.81l-.41,0c-13.28-.8-27-1.62-40.54-1.62-7.73,0-14.76.26-21.49.8h-.12a4,4,0,0,1-3.45-2.16c-1.74-4.1,2-10.3,3.15-12.1.89-1.36,5.57-8.15,10.38-8.2q3.58,0,7.17,0a441.05,441.05,0,0,1,61.69,3.91c25,3.52,50.89,10.25,83.78,21.8,32.22,11.34,62.24,26.73,92.72,42.84a13.75,13.75,0,0,1,3,2.45c.75.72,1.69,1.62,3,2.84l1,.85-1.93,3Z"/><path class="cls-3" d="M728,1307.61a2.1,2.1,0,0,1-1.87-1l-.24-.37a20.43,20.43,0,0,1-2.73-5.61,499,499,0,0,0-15.06-49.29c-3.94-10.71-7.11-21.86-10.18-32.65-2.17-7.63-4.42-15.53-6.91-23.18-3.12-9.57-6.82-19.13-10.41-28.36l-.07-.18c-1.45-3.73-2.9-7.47-4.31-11.21q-2.46-6.51-5-13l-.13-.36c-3.26-8.49-6.64-17.27-9.83-26a6.15,6.15,0,0,1,.42-5.66,4.61,4.61,0,0,1,3.84-1.93,6.52,6.52,0,0,1,2.8.67c2.9,1.33,5.93,2.63,8.87,3.89,9.76,4.18,19.83,8.5,27.81,15.25,2.93,2.48,4.18,7.16,5.5,12.12,1,3.79,2.05,7.69,3.83,10.66,7.37,12.34,13.63,22.32,19.69,31.43a177,177,0,0,0,12.77,16.3,3.17,3.17,0,0,0,2.29,1.31,2.49,2.49,0,0,0,1.58-.66c.43-.34.5-.53.5-.54a9.35,9.35,0,0,0-1-1.17,11.18,11.18,0,0,1-.77-.85c-10.33-12.79-19-26.93-27.31-40.6l-.08-.12c-2.54-4.16-5.17-8.47-7.8-12.67a19.41,19.41,0,0,1-2.06-5.31c-.24-.85-.48-1.71-.77-2.56l-1.65-4.83,4.49,2.42c16.15,8.7,32,19.82,50,35l.34,0,.06-.68a10,10,0,0,0,0-3,216.84,216.84,0,0,0-48.16-36.45c-3.45-2-6.86-4.07-10.16-6.13-7-4.34-14.15-8.79-21.84-11.8-3.75-1.47-7.7-2.73-11.52-4a143.4,143.4,0,0,1-16.22-5.92c-5.21-2.41-7.38-7.7-9.29-12.38-.59-1.44-1.15-2.79-1.77-4.05-3.87-7.83-7.61-15.87-11.23-23.65-10.69-23-21.74-46.77-37.5-68l-2.63-3.54,4.4.36a245.74,245.74,0,0,1,46.68,8.37c2.51.7,5,1.38,7.54,2.06,11.77,3.19,23.95,6.49,35.49,11.52,5.2,2.26,7.56,6.81,9.65,10.82a43,43,0,0,0,2.4,4.24c1.57,2.33,3.12,4.66,4.68,7,12.37,18.51,25.15,37.65,42.68,52.32,1.36,1.13,3.39,1.72,5.53,2.34l1.41.41a5.13,5.13,0,0,0,.27-.91c.35-1.91-.32-2.43-2.48-3.81a21.28,21.28,0,0,1-2.27-1.6c-10.14-8.51-18.15-19.12-25.9-29.39l-3.63-4.79c-4.11-5.39-8-11.08-12.54-17.67-2.28-3.32-4.75-6.92-7.54-10.91l-.7-1,2.37-2.49,1,.66c5.17,3.26,9.94,6.2,14.56,9,9.61,5.92,17.9,11,25.94,16.71a200,200,0,0,1,33.78,29.42c1,1.11,1.88,1.7,2.55,1.7a2.11,2.11,0,0,0,1.38-.74c1.19-1.18,1.19-1.18-.68-3.31l-.36-.41c-19.22-22-43.15-40-73.16-55.26-23.54-11.94-46.37-19.54-69.77-23.22-3.84-.61-7.69-1.5-11.41-2.36-6.54-1.52-13.28-3.09-20-3.09l-1.36,0c-14.23,0-19-10.07-23.26-18.95-.93-1.94-1.88-3.94-2.9-5.77-5.21-9.37-11.79-18-18.16-26.38-3.84-5-7.79-10.22-11.43-15.54a14.27,14.27,0,0,1-1.73-4.06c-.17-.55-.34-1.1-.54-1.62l-.87-2.27,2.4-.41,1.37-.22.15,0a30.58,30.58,0,0,0,3.06-.56,83.44,83.44,0,0,1,20.86-2.43c3.74,0,7.6.19,11.82.58,3.1.29,6.2.56,9.31.84,19.16,1.71,38.94,3.48,57.87,7.84,6.89,1.59,12.64,7.17,18.2,12.57,2.48,2.41,5.05,4.9,7.63,6.94,10.09,8,22.12,14.46,37.85,20.4a6.72,6.72,0,0,0,2.2.3,8.22,8.22,0,0,0,3.89-.78c-.34-.54-2.21-1.36-2.93-1.67-.38-.17-.74-.32-1-.47l-1.18-.57c-16.71-8-34-16.35-48-29.47L667,920.91l3.17-1.07a23.48,23.48,0,0,1,6.9-.7c9.22,0,24.41,1.85,29,3.24s9.51,1.81,14.34,2.25c1.24.12,2.48.23,3.71.36l.24-.22c-.47-.62-1.24-1.64-1.6-1.74-2.78-.76-5.65-1.61-8.18-2.36-7.71-2.29-15.68-4.66-23.59-5.48-11.14-1.16-22.33-3.07-33.14-4.92-16.35-2.79-33.26-5.67-50.28-6-5.42-.11-10.92-.52-16.23-.92-6.18-.46-12.52-.94-18.74-.94a93.3,93.3,0,0,0-11.1.6,49.77,49.77,0,0,0-7.35,1.65A41.18,41.18,0,0,1,544,906.59h-.17c-5.11,0-7.17-3.91-8.83-7.06a13.45,13.45,0,0,0-3.1-4.43,10.53,10.53,0,0,1-2.52-3.28,6.54,6.54,0,0,0-1.5-2.07c-5.65-3.68-8.72-7.58-9.39-11.94-1-6.73,3.89-12.74,8.65-18.55l1.22-1.49c11.47-14.13,25.17-21.29,40.71-21.29a52.13,52.13,0,0,1,6.07.36c6.16.75,11.93,4,17.5,7.13,2,1.15,4.11,2.32,6.16,3.34a51.81,51.81,0,0,0,23.46,5.15c7.88,0,16.07-1.33,24.45-2.81a123.76,123.76,0,0,1,21.57-2.08c13,0,24.15,2.66,34,8.15A70.63,70.63,0,0,1,728,879.9c7.46,12,17.8,21.86,27.79,31.45,7.33,7,14.88,14.27,21.36,22.33,8.44,10.5,10.89,23.1,12.08,32.9,2.26,18.64,5.53,38.54,14.08,57.78,1,2.26,2,4.53,3.1,6.81,6.67,14.51,13.57,29.5,12.14,46.42-.47,5.59-2.94,10.92-5.34,16.08-.78,1.68-1.66,3.58-2.4,5.37-4.53,11-5.69,23.46-3.47,37.1,4.21,25.71-1.74,45.61-19.29,64.53-18.42,19.84-28.15,45.79-37.57,70.89l-2,5.33c-2.77,7.34-7.12,14.11-11.32,20.65-1.71,2.65-3.47,5.39-5.09,8.12C731.15,1307.25,728.47,1307.61,728,1307.61Z"/><path class="cls-3" d="M773.63,921c-15.3-14.83-31.37-31.13-45.16-49.84S694.19,842.75,669,842.75c-1.46,0-3,0-4.45.1h-.75c-8.26,0-10.68-6.26-12.63-11.29a23.27,23.27,0,0,0-3.1-6.21,2.12,2.12,0,0,1-.3-2.27c.29-.61.89-1.88,7-1.88a17.1,17.1,0,0,1,2.33.13c20,2.69,39.86,7.13,59.11,11.42,9,2,18.25,4.08,27.45,6,17.39,3.55,19.21,15.37,21,26.79.17,1.13.34,2.26.53,3.4a221.69,221.69,0,0,0,5.24,22c1,3.76,2.1,7.64,3,11.5.86,3.46,1.55,6.88,2.36,10.83.39,1.94.79,3.9,1.24,6l1.35,6.41Z"/><path class="cls-4" d="M691.05,482.82a82.92,82.92,0,0,1-14-1.6l-2.52-.43c-2.57-.42-3.43-1.73-3.69-2.75-.42-1.61.44-3.45,2.29-4.93,17-13.55,32.32-22.87,51.68-24.34.78,0,1.49,0,2.19,0,8.7,0,15.87,2.2,21.92,6.73l1.07.76c2.41,1.68,6.06,4.21,4.76,8.9A18.53,18.53,0,0,1,740,478.58c-14.77,2.16-29.43,3.24-46.88,4.19C692.44,482.8,691.75,482.82,691.05,482.82Z"/><path class="cls-3" d="M683.71,1319.19c-6.4,0-12-.19-17.27-.57-5.54-.42-11-1.93-16.25-3.4-5.09-1.41-10.36-2.87-15.51-3.26-4.38-.32-9-.48-14-.48-5.32,0-11.11.18-18.23.56-4.94.27-10,.75-14.83,1.22-7.49.72-15.23,1.47-23,1.47a96.36,96.36,0,0,1-14.44-1c-16.7-2.51-28.18-12.33-39.29-21.83l-.08-.07c-2.19-1.86-4.44-3.79-6.7-5.63a145.14,145.14,0,0,1-10.64-9.91c-7.8-7.75-15.86-15.76-27-18.4l-4.17-1c-13.88-3.23-28.23-6.57-40.67-14.4-20.74-13-34.05-29.76-40.7-51.16a48.46,48.46,0,0,0-17.3-25.2c-9.8-7.44-18.19-16.75-26.3-25.75l-.22-.24q-2.06-2.28-4.12-4.55A141.49,141.49,0,0,1,317.9,1116c-10.17-16-7.7-33-5.31-49.35,1.35-9.24-.44-18.34-2.55-27.63-5-21.81-8.11-45.31,2.47-69.33,14.86-33.75,43-52.35,71.17-67.41,8.75-4.68,19.76-7.15,31.86-7.15,22,0,43.36,8.21,54.43,20.92,3.45,4,6.9,8,10.23,12,4.63,5.46,9.42,11.1,14.26,16.53,1.72,1.92,2.46,3.65,2.26,5.3-.26,2.21-2.05,3.45-3.49,4.46a7.47,7.47,0,0,0-1.74,1.45c-6.34,9.4-14.37,13.6-26,13.6-.92,0-1.88,0-2.85-.08-5.08-.28-10.28-.43-15.45-.43a317.86,317.86,0,0,0-61.95,6.34c-9.57,1.91-19.06,5.48-28.24,8.94-2.85,1.07-5.78,2.17-8.7,3.22a6.43,6.43,0,0,0-2.7,3c.07.32.32.89,1.87.89a6.71,6.71,0,0,0,1.89-.28c4.22-1.18,8.49-2.47,12.63-3.72l.13,0c6.93-2.09,14.1-4.25,21.29-6,17.64-4.34,35.86-5.83,52.93-6.79,4.58-.25,9-.36,13.71-.47,6.92-.17,14.09-.34,21.61-1l7.37-.68-6,4.3c-10.71,7.63-18.52,17-26.08,26.06-2.26,2.71-4.58,5.5-6.95,8.2-17.24,19.62-29.34,35.31-39.22,50.87-8.77,13.81-18.37,30.47-23.13,49.46a14.53,14.53,0,0,0,1,1.24h0l.27-.15c.8-.44,2-1.1,2.2-1.54,10.49-24.58,21.44-48.24,39.92-67.51a51,51,0,0,0,5.76-7.94c1.14-1.81,2.32-3.68,3.63-5.44a14.29,14.29,0,0,1,3.35-3c.47-.33.93-.66,1.36-1l3-2.43.25,3.85c.05.88.17,1.84.28,2.68a21.86,21.86,0,0,1,.17,6.52c-1.65,9.58-3.43,19.3-5.15,28.69l0,.21c-1.52,8.28-3.09,16.85-4.56,25.28-2.83,16.25-8.15,33-17.22,54.13-2,4.65-1.36,5.68-.4,6.11a2.49,2.49,0,0,0,1,.25c.72,0,1.44-1.41,2.2-2.9.36-.71.72-1.41,1.15-2.11,10-16.64,14.47-35.56,18.76-53.86l.11-.46c.62-2.65,1.25-5.3,1.89-7.93,2.06-8.55,2.88-17.81,3.67-26.78.14-1.52.27-3,.41-4.5.29-3.25.77-6.53,1.23-9.7,1.12-7.79,2.28-15.84.86-23.85-.53-3,2.37-5.94,5.17-8.78.87-.88,1.69-1.71,2.35-2.48,5.51-6.46,11.51-12.63,17.31-18.6,9.26-9.52,18.82-19.37,26.52-30.5l.16-.25c.77-1.18,2.83-4.33,6.18-4.33,2,0,4,1.16,5.86,3.45,9.61,11.8,19.91,23.4,29.87,34.62,4.69,5.29,9.51,10.72,14.24,16.15,3.67,4.2.84,7.83-.85,10a9.72,9.72,0,0,0-1.35,2c-3.15,8.19-6.77,16.33-10.28,24.21-5.17,11.63-10.52,23.66-14.35,35.87a730.56,730.56,0,0,0-19.22,75.32c-3.08,15.48-6.5,33.78-8.43,52.15-.18,1.69-.41,3.4-.64,5.06-.81,6-1.65,12.14-.33,18a5.46,5.46,0,0,0,.25.86,11.16,11.16,0,0,1,2-.49c1.66-.29,1.91-.34,2-1.7.28-3.6.52-7.27.74-10.83l0-.26c.71-11.12,1.45-22.63,3.46-33.78,2.53-14,5.92-27.82,9.51-42.48l0-.1c1.59-6.5,3.24-13.22,4.87-20.22l.29-1.21,3.48.17.16,1.23c1.8,13.37,4.68,25.6,7.46,37.44,2.46,10.49,4.79,20.37,6.32,30.64,1.12,7.52,1.86,15.18,2.57,22.59,1.1,11.45,2.24,23.27,4.83,34.64.73,3.21,1.92,5.21,3.12,5.21h.1c.83,0,1.16-.07,1-3.48,0-.66-.06-1.33,0-2,.91-26-3.75-51-9.46-78.66-2.25-10.91-5.56-21.68-8.76-32.1-2.41-7.85-4.89-15.9-6.9-23.94-1.63-6.51,1.44-13.94,4.41-21.13.81-2,1.56-3.79,2.21-5.57,5-13.77,10.49-27.61,15.75-41,1.87-4.74,3.72-9.44,5.56-14.15a2.71,2.71,0,0,1,1.14-1.3c.14-.61.28-1.25.41-1.88.69-3.25,1.48-6.94,4.67-9.7l1.56-1.36L559,1018c.95,1.18,1.88,2.39,2.81,3.6a79.24,79.24,0,0,0,6.24,7.48c11.77,11.89,21.5,25.61,30.92,38.88l.09.12c2.77,3.91,5.64,7.94,8.5,11.86l2.3,3.12c7.53,10.24,15.31,20.82,20.2,32.52,2.12,5.08.2,11.48-1.66,17.68-.69,2.3-1.41,4.68-1.86,6.87-2.46,11.8-4.23,23.94-5.93,35.68-1.4,9.61-2.84,19.54-4.65,29.21-2.5,13.26-1.91,26.43-1.33,39.15.29,6.61.6,13.45.48,20.26-.06,3.16.9,6.55,1.83,9.82l.37,1.34a4.15,4.15,0,0,0,.64.51,5.83,5.83,0,0,0,1-2c-.39-5.55-.41-11.15-.42-16.57,0-6.21,0-12.64-.63-19-.9-9.56.49-19,2-29.09.62-4.27,1.26-8.66,1.71-13l.64-6.27,3.09,5.49c12.68,22.49,21.53,42.2,27.85,62l.58,1.95c1.06,3.65,2.65,9.13,5.45,9.13a4,4,0,0,0,1.5-.35c2.56-1.06,1-5.44-1-10.64-.44-1.09-.9-2.23-1.23-3.22-6.65-20-14.26-41-27.49-57.55-10.71-13.4-6.88-26.06-3.5-37.22,1.51-5,3.07-10.15,3.35-15.2.23-4.08.86-8.11,1.53-12.39.33-2.1.65-4.2,1-6.41l.76-5.59,2.93,4.82c9.12,15,17.19,30.18,25,44.84l.17.33c3.59,6.75,7.31,13.73,11,20.53,10.86,19.79,19.51,40.78,27.88,61.08l.13.31q3.23,7.83,6.48,15.63a428.13,428.13,0,0,1,14.74,40.65c.46,1.51-.07,3.49-1.47,5.43-1.6,2.22-4.55,4.63-8,4.73-2.86.07-5.73.16-8.59.25l-.16-1.5,0,1.5C697.44,1319,690.52,1319.19,683.71,1319.19Z"/><path class="cls-4" d="M534.3,733.55a240.13,240.13,0,0,1-24.49-1.31,5.36,5.36,0,0,1-4.34-2.6c-2.24-3.9.76-10.6,2.38-14.19l2.29-5.18c6.37-14.42,13-29.32,23.21-42.12a1.44,1.44,0,0,0,.43-1c-.13-.82-1.87-2-2.92-2.7-.47-.32-.92-.62-1.29-.9-20.85-16.06-35.49-29.75-47.49-44.4a75.88,75.88,0,0,1-6-9l-.06-.1c-.8-1.33-1.63-2.7-2.47-4L472.2,604l2.35-.87c1.7-.62,3.45-1.32,5-1.93a100,100,0,0,1,11.53-4c22.05-5.74,41.77-8.53,60.27-8.53,2.1,0,4.23,0,6.35.11h.22c1.72,0,2.33-.43,2.38-5.27a15.9,15.9,0,0,1,.38-4.14c6.61-23.2,16.54-44.66,25.38-62.59,1.39-2.83,3.52-4.38,6-4.38a7.64,7.64,0,0,1,5.26,2.48c16.33,15.76,27.46,35.63,37,54.75,1.63,3.26,3.31,4.84,5.14,4.84,1.65,0,3.52-1.11,5.33-2.19a13.6,13.6,0,0,1,5.22-2.25c2.65-.28,5.28-.59,7.92-.9l.14,0a221.81,221.81,0,0,1,25.77-2,86.14,86.14,0,0,1,17.74,1.71,18.39,18.39,0,0,0,3.75.32c1.14,0,2.31,0,3.55-.12s2.73-.13,4.19-.13h2.94L715,571.62c-11.36,28.73-25.06,49-43.14,63.9-7.62,6.25-5.1,9.75-1.3,15a38.78,38.78,0,0,1,2.93,4.48l2.28,4.23c8.53,15.87,17.35,32.28,20.36,50.35a5.75,5.75,0,0,1-1,4.9,5.5,5.5,0,0,1-4.41,1.69,28.86,28.86,0,0,1-5.35-.74,23.92,23.92,0,0,0-4.14-.62h-.37c-1,.09-2,.14-3,.14-8,0-15.39-2.8-22.54-5.51-5.61-2.12-11.42-4.32-17.44-5.11a73.16,73.16,0,0,0-9.32-.62c-16.72,0-31.16,6.35-45.46,20-4.33,4.14-11,6.06-15.86,6.94a185.1,185.1,0,0,1-33,2.84Zm19.23-65.37a3.86,3.86,0,0,0,1.09.7c5.8-3,12-4.94,18.06-6.85,3.81-1.22,7.73-2.46,11.46-3.94,10.45-4.14,21.34-5.3,31.88-6.42,5.31-.57,10.77-1.15,16.05-2.11a33.46,33.46,0,0,1,4.51-.37c5.25-.18,6.68-.6,6.75-3.18,0-.92-.17-1.15-.19-1.17s-.23-.21-1.16-.21a20.26,20.26,0,0,0-2.67.27,25.75,25.75,0,0,1-3.36.31,8,8,0,0,1-2.25-.29,3.6,3.6,0,0,0-1.05-.12c-.41,0-.84,0-1.3.06-.65,0-1.3.08-2,.08h-3l1.2-2.79c.26-.6.53-1.13.77-1.62a7.81,7.81,0,0,0,.76-1.86c.5-2.79,1-5.57,1.54-8.35,1.58-8.48,3.22-17.26,4.2-25.93.08-.72.21-1.45.35-2.22.7-4,1-6.54-2.32-8.25a1.27,1.27,0,0,0-.52-.18,4.3,4.3,0,0,0-.68,1.45,76.18,76.18,0,0,0-2.23,8.59c-.16.74-.32,1.45-.48,2.16q-1.08,4.81-2.11,9.65c-1.87,8.7-3.81,17.7-6.37,26.41-.77,2.63-4.4,3.29-8.59,4-1,.17-1.88.34-2.66.52l-.14,0-.23,0h-.11c-2.41,0-3.77-4.56-3.78-4.61-4.3-14.52-5.92-29.63-7.48-44.24-.66-6.16-1.34-12.53-2.21-18.75-.5-3.51-1.71-3.77-2.23-3.89l-.3,0c-.85,0-1.46,1.56-1.52,2.68-.71,13.17,1.16,26.44,3,39.28.68,4.84,1.38,9.78,1.94,14.66a16.63,16.63,0,0,0,1.59,4.37c1.56,3.35,3.9,8.38-1.21,11-.8.41-1.77,1-2.71,1.55-3.31,2-7.08,4.25-10.73,4.25a7.24,7.24,0,0,1-5.69-2.64c-9.15-10.85-15.93-24.29-20.14-39.92-.49-1.83-1.49-4-3.41-4.08h-.15a1,1,0,0,0-.55.09c-.32.35-.17,2.11-.11,2.78l0,.55c1.08,14.37,8.36,26.78,15.41,38.79l.05.09a7.06,7.06,0,0,0,.82,1c.9,1,2.14,2.3,1.74,4.13s-2.43,2.92-4.12,3.61l-.86.34c-5.17,2.07-10.06,4-12.36,9.06A2.83,2.83,0,0,0,553.53,668.18Z"/><path class="cls-4" d="M632.18,399.93c.34-1.22.61-2.56.87-3.85.62-3.11,1.26-6.32,3-9q1.66-2.52,3.28-5.06c8.78-13.63,17.86-27.74,36.45-32.22a17,17,0,0,1,4-.48,16.39,16.39,0,0,1,11.6,4.65,15.17,15.17,0,0,1,4.29,11.08c-.23,6.55-7.18,12.24-14,15-5,2-9.56,5.27-14,8.39-6.53,4.62-13.27,9.4-21.91,10.8a54.45,54.45,0,0,0-7.58,2c-1.22.39-2.42.77-3.64,1.12l-3.44,1Z"/><path class="cls-3" d="M674.61,1180.69c-4-7-7.77-14-11.4-20.67-5.05-9.33-9.82-18.15-15.1-26.93-12.72-21.17-25.85-43-40.66-64.09a662.4,662.4,0,0,0-50-61.92c-5.9-6.57-11.75-13.36-17.41-19.94C528.73,974,517,960.32,504.29,948c-7.15-6.94-13.7-14.65-20.05-22.11-3.42-4-6.94-8.16-10.5-12.11a15.46,15.46,0,0,0-3.05-2.36,21.29,21.29,0,0,1-3.44-2.6c-4.66-4.58-6.5-8.48-5.62-11.91,1.28-5,7.9-6.89,12.29-8.13,1-.29,1.93-.55,2.54-.78,8.12-3.08,15.32-4.58,22-4.58,16.44,0,29.32,9.1,40.55,28.64,4.38,7.61,10.89,14.82,16.64,21,6.72,7.2,11.52,16.21,16.16,24.93,1.87,3.5,3.79,7.1,5.78,10.5,3.89,6.61,7.91,13.26,11.8,19.69,9.27,15.33,18.85,31.18,27.14,47.38,8,15.68,15.47,31.93,22.66,47.63l0,.1c6.44,14,13.09,28.57,20.12,42.58,4.66,9.3,8,19.13,11.26,28.64,2.45,7.18,5,14.6,8,21.67a3.8,3.8,0,0,1,0,2.64c-.09.36-.2.79-.31,1.33l-1,5.34Z"/><path class="cls-3" d="M623.24,847.52c-14.27,0-26.26-6.32-39-13l-.1,0c-3.73-2-8.92-3.07-14.59-3.07-.86,0-1.74,0-2.61.08l-1,0a5.2,5.2,0,0,1-3.87-1.25c-1.15-1.18-1.11-2.77-1.08-4.3,0-.35,0-.66,0-1a5.29,5.29,0,0,1,1.29-4c1.13-1.24,2.86-1.86,5.47-2,3.76-.15,7.6-.5,11.31-.83,5.14-.46,10.42-.93,15.69-.93a64.71,64.71,0,0,1,14.8,1.56,38.2,38.2,0,0,0,8.8.86c2.51,0,5.14-.14,7.67-.28s5.34-.3,8-.3c4.06,0,16.27,19.19,16.61,21.31a2.18,2.18,0,0,1-1.43,2.52,127.77,127.77,0,0,1-18.28,4A47.28,47.28,0,0,1,623.24,847.52Z"/><path class="cls-4" d="M588.9,328.9a2.85,2.85,0,0,1-2.87-2,31.2,31.2,0,0,1-.55-17.29c3.76-12.93,7.6-23,12.09-31.73,3.47-6.72,8.7-16.87,21.07-16.87l1.21,0a7.87,7.87,0,0,1,2.38-.37c4.09,0,6.86,3.18,8.09,6.15,3.28,7.95,2.35,16.62-2.69,25.07s-12.25,15.13-19.18,21.55c-3.7,3.43-7.53,7-10.94,10.72C595.78,326.11,591.56,328.9,588.9,328.9Z"/><path class="cls-4" d="M501.13,504l-4.81-.31c-17.77-1.12-34.54-2.17-47.94-15.95-4.88-5-9.69-11.39-8.39-20.67,1.45-10.25,6.76-16.13,14.59-16.13a18.3,18.3,0,0,1,4.51.6c14,3.56,26.16,11.18,37.19,18.88,6,4.22,12.44,8.21,18.62,12.06,3.69,2.3,7.49,4.67,11.2,7.07a9.46,9.46,0,0,1,2.57,2.86c.25.38.48.72.72,1l1.42,1.79-3.18,1.88c-.89.53-1.78,1.06-2.69,1.56-6,3.31-12.31,4-18.4,4.69-1.64.18-3.35.37-5,.62l-.17,0Z"/><path class="cls-4" d="M489.41,397l-1.88,0h-.1c-1.07,0-2.41,0-4.17,0h-.19c-2.54-.32-5.14-.55-7.88-.8-12.69-1.13-27.07-2.41-39.4-12.6-7.89-6.52-9.62-14.78-4.52-21.54a16.56,16.56,0,0,1,13.25-6.8,17.72,17.72,0,0,1,8.63,2.32c2.61,1.45,5.3,2.88,7.9,4.26,12.4,6.6,25.21,13.42,34.91,24.63a8.25,8.25,0,0,0,1.48,1.13c1.57,1.05,4.82,3.21,2.87,6.89-1.06,2-3.76,2.15-6.62,2.32-.72,0-1.36.08-1.93.15A21.4,21.4,0,0,1,489.41,397Z"/><path class="cls-4" d="M493.26,280.68c-25.59-10.38-51.51-23-62.74-53.14a11,11,0,0,1,2.69-11.71,14.39,14.39,0,0,1,9.65-3.41,28.68,28.68,0,0,1,9.2,1.78c15.69,5.32,22.09,18.37,28.27,31,1.37,2.79,2.77,5.65,4.24,8.34,2.8,5.17,5.14,10.54,7.62,16.23,1.17,2.69,2.36,5.44,3.64,8.24l2.08,4.57Z"/><path class="cls-4" d="M328.12,854.8c-3.69,0-7.25-1.73-10.91-5.31a34.1,34.1,0,0,0-16.67-8.6c-4.16-.93-3.68-4.4-3.5-5.71a6,6,0,0,0,.08-.7c.59-11.54,3.31-23.78,8.56-38.52,1.86-5.24-.66-6.66-5.28-8.72a20.43,20.43,0,0,1-4.33-2.35c-13.14-10.34-29.52-24.75-39.58-44.53a5.66,5.66,0,0,1-.37-4.73c1.35-3.53,6.18-5.39,10.06-6.88,1-.37,1.88-.73,2.57-1a114,114,0,0,1,43.87-10.48c19.59-.71,21.09-2,26.66-22.89,5.17-19.35,11.79-35.35,20.24-48.92a3.77,3.77,0,0,1,3.39-1.71c3.57,0,8.86,3.55,11,8.82a34.72,34.72,0,0,0,5.55,8.37,51.81,51.81,0,0,1,4.64,6.37c9.15,15.62,17,31.4,22.89,43.4,1.11,2.29,3.93,2.77,6.09,2.77A18.36,18.36,0,0,0,417,713a164.14,164.14,0,0,1,35.94-4.07,160.09,160.09,0,0,1,27.36,2.4l3.16.55-1.88,2.59-8.42,11.64c-7.35,10.17-14.26,19.72-21.32,29.31a32.28,32.28,0,0,1-6.77,6.79c-9.39,6.91-6.76,13.35-3.11,22.27.71,1.75,1.42,3.49,2,5.26,4.07,11.67,7.11,23.86,10.05,35.65l0,.16q1.32,5.29,2.68,10.58c.59,2.25-.21,6.53-1,7.55l-.5.67-1,.18-1.67,0-2.38,0a34.42,34.42,0,0,1-9.31-1c-12.81-3.58-25.76-7.47-38.29-11.24l.29-1.48-.43,1.44-11.38-3.41a32.4,32.4,0,0,1-6.42-3c-2.7-1.51-5.48-3.07-8.09-3.07a7.72,7.72,0,0,0-4.93,2l-.28.23c-9.38,7.59-19.07,15.43-28.86,22.94C337.6,851.67,333.1,854.8,328.12,854.8Zm-.57-64.92a2.2,2.2,0,0,0,.27.59,4.15,4.15,0,0,0,3.22,1.42,15.26,15.26,0,0,0,4.41-1c.46-.16.9-.3,1.33-.43,18.51-5.47,39.16-9.17,63.13-11.29.95-.09,2-.14,3-.19,4.07-.21,9.09-.46,9.17-2.81a1.42,1.42,0,0,0-.17-.94c-.12-.12-.59-.42-2.32-.42-.72,0-1.5,0-2.32.1s-1.8.1-2.67.1a13.78,13.78,0,0,1-2.47-.19l-1.87-.35,1.45-11.19c1.42-10.92,2.75-21.24,3.94-31.75a.68.68,0,0,0-.17-.52.89.89,0,0,0-.68-.26,1.69,1.69,0,0,0-.38,0,5.78,5.78,0,0,0-1.52.59c-.55,2.36-1.12,4.72-1.68,7.09l0,.13c-2.25,9.46-4.58,19.23-6.08,28.93-1,6.73-5.59,7.56-8.9,8.17-.54.1-1.09.2-1.63.32a10.62,10.62,0,0,1-2.29.27c-4,0-6.43-2.7-7.19-8.05-.88-6.24-1.74-12.66-2.5-18.33-1.16-8.69-2.35-17.61-3.67-26.36-.5-3.35-1-5.64-3.37-6.47a3.72,3.72,0,0,0-.58.35,120.93,120.93,0,0,0,3.56,48.26c1.4,5.14,1.26,8.59-.44,10.85-2.06,2.74-5.64,2.8-8.8,2.84-1.86,0-3.61.05-4.66.58a6.19,6.19,0,0,1-2.74.76c-3.29,0-3.76-3.32-4-5.1a7.34,7.34,0,0,0-.31-1.56c-3.66-7.3-5-15.19-6.36-22.81-.64-3.65-1.29-7.4-2.19-11a7.65,7.65,0,0,0-1.49-3.07h-.13c-.42,0-.87,1-1.3,2.74-3.4,14.21,1.81,27.18,7.44,39.23.87,1.85,1.42,3.26.63,4.51a2.45,2.45,0,0,1-2.17,1.1,7.65,7.65,0,0,1-.95-.09,7.77,7.77,0,0,0-1-.08h-.27A19.43,19.43,0,0,0,327.55,789.88Z"/><path class="cls-4" d="M297.93,617.29c-.19-.78-.46-1.6-.71-2.4a20.13,20.13,0,0,1-1.27-6.16c.05-23.15,5.24-41.44,15.87-55.91,5.42-7.4,13.35-11.82,21.2-11.82a22.88,22.88,0,0,1,4.65.49c3.92.84,10.29,4.44,8.9,19.22v.16l-.06.22c-4.23,12.87-12.88,26.64-23.77,37.84a55,55,0,0,0-4.38,5.39c-3.29,4.41-6.68,8.95-12.7,11.1a12.74,12.74,0,0,0-3,1.87c-.55.41-1.1.82-1.66,1.19L298.61,620Z"/><path class="cls-3" d="M62,1035.31l.72-.6c8.35-6.89,17.25-14.18,26.34-20.89,14-10.33,30.41-22.17,47.52-32l5.24-3c18.56-10.67,37.76-21.71,58.2-29.83,7-2.78,13.86-6.23,20.52-9.56,7.29-3.65,14.83-7.43,22.6-10.39,5.66-2.15,11.35-4.55,16.86-6.87,14.88-6.28,30.26-12.77,46.91-15.26a32.71,32.71,0,0,0,7.13-2.32c3.26-1.33,6.33-2.59,9.5-2.59a10.41,10.41,0,0,1,1.87.16c4.46.79,8.14,4.42,11.7,7.92,1.21,1.2,2.45,2.41,3.64,3.44,1.54,1.32,2.27,2.64,2.24,4-.05,2-1.57,3.17-2.8,4.13a7.27,7.27,0,0,0-1.11,1c-6.62,8.38-15.76,10-24.6,11.49a74.45,74.45,0,0,0-11.09,2.51c-8.19,2.81-16.69,5-24.92,7.11-3.87,1-7.88,2-11.81,3.11-4.28,1.18-8.62,2.3-12.82,3.39-10.05,2.6-20.42,5.29-30.26,8.8a436.48,436.48,0,0,0-49.41,20.67l-5.45,2.72c-22.83,11.4-46.44,23.19-67.36,39-10.89,8.26-23.1,15-34.9,21.58L62,1045.54Z"/><path class="cls-3" d="M62,961l1.21-.82.53-.36C84.87,946,101.4,925.68,112.86,899.3c10.3-23.72,37.5-41.61,63.27-41.61a53.41,53.41,0,0,1,9.45.82,60.83,60.83,0,0,0,10.63.93c9.83,0,20.32-2.17,33-6.83,3.26-1.19,6.5-2.59,9.64-3.94a140.19,140.19,0,0,1,14.5-5.58,48.61,48.61,0,0,1,14.06-2c7.55,0,15.08,1.49,22.36,2.92l4,.78c15.42,2.94,33.19,17.77,35.07,35.16l0,.47c.65,5.91,1.64,14.85-6.13,18-8.36,3.38-17.87,4.54-26.25,5.57a16.3,16.3,0,0,0-3.19.87A16.93,16.93,0,0,1,287.9,906a9.34,9.34,0,0,1-7-3.27A130.23,130.23,0,0,0,240.58,874c-.74-.34-1.55-.81-2.4-1.31-1.66-1-3.94-2.31-5.48-2.31-.62,0-1.27.19-1.89,1.55-.44,1-.27,1.35-.22,1.48.45,1.06,2.85,1.93,4.79,2.63a31.24,31.24,0,0,1,3.2,1.31,184.39,184.39,0,0,1,38.7,26.38,2.58,2.58,0,0,0,.27.21c.95.71,2.65,2,2.34,3.91s-2.1,2.64-3.44,3.09c-3.28,1.1-6.61,2.36-9.82,3.59a163.3,163.3,0,0,1-16.06,5.5,33.15,33.15,0,0,0-6.64,2.92c-3.58,1.89-7.28,3.85-11.77,3.85a16.28,16.28,0,0,1-6.7-1.48c-23.73-10.41-50.52-15.68-81.93-16.11h-.14c-1.37,0-3.14.3-4,1.13a1.84,1.84,0,0,0-.5,1.45c0,1.52.32,1.52,1.31,1.52a16.38,16.38,0,0,0,1.64-.13,17.65,17.65,0,0,1,1.87-.13c13.35.08,26,2.48,36.64,4.83l5.59,1.23-5.14,2.52C164.9,929.38,148.26,933,128.47,933c-1.32,0-2.65,0-4,0l-.87-.06-.62,0h0a7.7,7.7,0,0,1-.09,1.49c0,.22-.06.5-.07.68l.24.08a77.71,77.71,0,0,0,19.63,2.61,58.66,58.66,0,0,0,30.81-8.24c9.47-5.83,17.71-8.54,25.92-8.54a42.37,42.37,0,0,1,18.19,4.38,10,10,0,0,1,2.56,1.92c.27.25.53.51.81.74l2,1.64-2.1,1.52c-.21.15-.41.31-.61.47a11.33,11.33,0,0,1-2,1.31c-4.58,2.29-9.21,4.68-13.68,7-11.08,5.73-22.54,11.67-34.3,16.46a51.56,51.56,0,0,0-7.88,4.38c-5.2,3.31-10.57,6.71-18.17,6.71-.55,0-1.12,0-1.7-.05-4.24-.29-8.67-.65-12.58-1-9.59-.78-19.51-1.59-29.23-1.59A126.29,126.29,0,0,0,76.33,967a14.2,14.2,0,0,0-4.78,2.3c.48.95,1.89,1.46,4.91,1.84a7.77,7.77,0,0,0,.85.05,17.91,17.91,0,0,0,5.09-1.07,22,22,0,0,1,6.4-1.26,11,11,0,0,1,5.07,1.2l2.37,1.2-1.8,2a141,141,0,0,1-29.38,24.1L62,999.24Z"/><path class="cls-3" d="M232,1146.49c-16.46,0-29.52-2.67-41.13-8.41-12.7-6.26-29.67-13.46-48.31-13.46-2.07,0-4.18.09-6.25.26-6.44.55-11.75.8-16.72.8-14.59,0-26.25-2.26-36.68-7.13L77.36,1116c-4.68-2.16-9.52-4.39-14.25-6.75L62,1108.7V1052l.88-.6c10.2-6.9,21.46-14.15,34.41-22.16,14.67-9.09,29.9-17.78,44.63-26.19l.52-.29q8-4.53,15.9-9.1a5.76,5.76,0,0,1,2.77-.67,3.14,3.14,0,0,1,2.57,1,5.73,5.73,0,0,1,1,5.08c-1.28,3.73-2.47,7.64-3.62,11.41-3,10-6.17,20.28-11.5,29.22-2.71,4.55-9.07,6.42-15.21,8.23a67.28,67.28,0,0,0-8.27,2.81c-20.23,9.14-36,18.46-46.93,34.24a6.43,6.43,0,0,0,.1,1.55h1.28a5.33,5.33,0,0,0,1.44-.12c13.74-15.22,31.49-26.65,55.82-36l.29-.32c.19-.21.39-.43.62-.65l2.45-2.31.85,3.26c1.54,5.84,1.15,6.54-5.35,18.27l-.58,1c-4,7.29-8.15,15.16-12.93,24.76a5,5,0,0,0,0,1.89h.36a3.1,3.1,0,0,0,1.13-.11c6.38-4.86,9.84-12.15,13.18-19.19,1-2.2,2.12-4.47,3.27-6.65a445.86,445.86,0,0,0,27.6-62.41,31.49,31.49,0,0,0,1.22-8c0-.74.1-1.47.16-2.2,1.24-14.79,11.84-17.82,21.19-20.5a47.86,47.86,0,0,0,10.24-3.75c7.37-4.17,15.6-6.87,23.57-9.49,2.86-.94,5.82-1.91,8.72-2.94a12.49,12.49,0,0,1,4.06-.85,4.41,4.41,0,0,1,3.84,1.79c1.75,2.49.33,6.38-.35,8.25l-.12.33c-.41,4.49-.5,9.15-.59,13.66-.19,9.74-.38,19.81-3.82,29.53-2.41,6.79-8,10.13-12.88,13.08a49.12,49.12,0,0,0-6.32,4.25c-24.3,20.42-38.46,40.71-44.59,63.85l-.06.23c-.2.75-.73,2.72-.39,3.3,0,.06.22.1.25.11a2,2,0,0,0,.4,0c1.07,0,2.25-1.39,3.14-3.71a151.49,151.49,0,0,1,25.17-42.59c9.43-11.19,18.58-19.24,29.65-26.07l4.71-2.91-1.76,5.25c-1.22,3.63-2.36,7.1-3.46,10.47-2.31,7.07-4.49,13.74-7,20.32-2.61,7-5.44,14-8.18,20.79-2.16,5.37-4.36,10.83-6.44,16.23a3.39,3.39,0,0,0,.3,1.32v0a2,2,0,0,0,.41,0c1.36,0,2.53-1.56,2.95-2.54q2-4.59,4-9.18l.13-.29c6.28-14.43,12.78-29.36,18.05-44.4a218.89,218.89,0,0,0,11.65-58.76c.08-1.22.2-2.4.34-3.66.49-4.74,1-9.6-1.26-14.35-1-2.21-1.17-4-.36-5.61,1.32-2.58,4.57-3.17,7.19-3.64a20,20,0,0,0,2-.44c15.23-4.82,30.86-9.25,46-13.55l5.24-1.48a54.08,54.08,0,0,1,8.79-1.51l1.56-.19s.21,0,.49,0a3.73,3.73,0,0,1,3.57,1.8c.63,1.2.37,2.63-.77,4.22-12.72,17.79-18.62,33.9-18.56,50.71.05,16.09-7.94,28.54-15.67,40.59-1.7,2.66-3.45,5.38-5.09,8.1-7.4,12.3-15.78,26.24-19,41.68a7.9,7.9,0,0,0,.91,3c2.43-.85,3.38-3.28,4.49-6.75.16-.49.31-1,.47-1.43,3.73-10.85,9.6-20.6,15.28-30,1.21-2,2.41-4,3.59-6,1.83-3.11,3.78-6.2,5.66-9.2,1.11-1.75,2.19-3.47,3.26-5.2.52-.84,1-1.73,1.47-2.58l2.41-4.39,1.67,3.55c.22.48.45,1,.68,1.43l.09.19c.54,1.1,1.14,2.35,1.68,3.6,5.46,12.75,4.29,25.75,3.17,38.32-.4,4.37-.8,8.89-.91,13.31-.35,13.94,1.07,25.3,9.15,35.47a7.07,7.07,0,0,1,1.14,6.71c-1.95,6.14-10.51,11.65-17.58,13.72-17.63,5.16-35.79,6-53.35,6.86l-3.62.18C237.62,1146.41,234.75,1146.49,232,1146.49Z"/><path class="cls-4" d="M233.72,602.57c-1.05-.43-2.17-.81-3.25-1.18A28.23,28.23,0,0,1,223,598c-2.1-1.49-4.29-3-6.41-4.43l-.15-.11c-11.67-8-23.73-16.19-30.36-29.82-3.5-7.21-10-20.63.93-32.63,1.89-2.07,4.59-4.54,6.79-4.54a3.18,3.18,0,0,1,.62.06c18.64,1.75,25.44,14.49,29.63,26.73,1.16,3.4,2.58,6.83,4,10.16,3.48,8.4,7.07,17.07,7.35,26.83a17.79,17.79,0,0,0,.6,3.44,15.3,15.3,0,0,1,.45,7.53l-.57,2.24Z"/><path class="cls-4" d="M167.07,704.57c-9.55,0-21.22-1.63-26.71-14.35a13.19,13.19,0,0,1,7.43-18.49,96.3,96.3,0,0,1,37.1-7,154.08,154.08,0,0,1,32.8,3.89c3.37.72,6.7,1.31,10.55,2l6.06,1.09,4.56.84-3.74,2.74c-21.65,15.89-41.68,29-67.43,29.25Z"/><path class="cls-3" d="M62,1003.89l1.1-.56c6.32-3.19,12.91-6.78,17.87-12.39C93.5,976.85,106.27,970,120,970a46.62,46.62,0,0,1,13.73,2.16l3.94,1.21-3.39,2.35q-7.16,4.93-14.57,10c-11,7.51-22.34,15.27-33.49,23.26-7.55,5.43-14.42,10.64-21,15.91L62,1027.48Z"/><polygon class="cls-2" points="6 8.83 58 60.83 58 1619.17 6 1671.17 6 8.83"/><path d="M1024,8V1672a8,8,0,0,1-8,8H8a8,8,0,0,1-8-8V8A8,8,0,0,1,8,0H1016A8,8,0,0,1,1024,8Zm-8,1658.34V13.66l-48,48V1618.34ZM962.34,56l48-48H13.66l48,48H962.34ZM13.66,1672h996.68l-48-48H61.66ZM960,1616V64H64V948.68c.61-.41,1.22-.83,1.81-1.27,19.21-14.35,30.23-34.58,40.67-55,10.1-19.74,24.87-34.62,45.52-40.5,12.57-3.59,26.7-3.67,40.8-2.08A72,72,0,0,0,229,844.22c17.45-7.67,34.89-15.65,54.86-9.45,4.38,1.36,8.21.57,7.14-5.88-1.83-11,3.36-20.88,6.3-31,1.54-5.27-2.52-4.36-4.25-5.62-18.41-13.44-33.1-30.21-45.26-49.38-4.46-7,1.44-15.16,12.8-20.19,9.49-4.2,18.74-8.48,29.14-9.86s20.53-3.08,31.51-4.75c-12.58-10-22.35-22.3-33-33.78-3.16-3.41-13.4.44-20.22-.39-24.15-2.94-38.35,15.47-56.76,25.14-18.94,9.94-38.5,18-61.34,10.67-10.45-3.34-16.17-9.73-18.69-18.59-4.16-14.7,3.25-26.57,18.78-30,23.87-5.31,48.18-8.3,72-.13,18.25,6.25,36.42,3.89,54.76,1.93,2.51-.27,2.18-.53.71-2.4C266,646,255.69,630.35,243.11,616.81c-9.75-10.49-25.82-11.72-37.26-20.77-17.13-13.55-32.91-27.64-32.88-51.86,0-13.64,6.89-24,19.68-26.68,12.41-2.6,23.45,4.52,30.08,15,11.88,18.69,21.62,39.41,22,61.37.37,21.25,19.38,27.63,26.88,42.64,2.54,5.1,7.55,9,11.5,13.34a4.32,4.32,0,0,0,1.78.73c1.4-3.24,2.78-6.5,4-9.81,6-15.81-2.11-31.7.13-47.44,2.69-18.94,7.42-37.58,22.08-51.06,14.87-13.69,32.05-14.18,39.56-2.12,9.4,15.09,4.28,29.58-4.56,42.74-8.53,12.7-18,24.77-29.21,35.42C311.52,623.4,303,624,299.52,632c-8.83,20-4.21,39.66,13,53.57,5.66,4.58,8.93,11.71,16.15,15.11,7.25-22,13.11-44.84,29.48-62.74,8.59-9.4,13.47,1.07,16.55,4.76A218.34,218.34,0,0,1,410,702.08c3.2,8,11.32.36,17,0,16.43-1.13,32.65-2.54,49,1.35,18.8,4.46,11.09,13.78,5.07,23.13-10.11,15.68-21.07,30.55-34.35,43.92-6.78,6.82,3.09,13.38,4.89,20.13,4.92,18.46,11.39,36.52,11.34,56,0,6.8-4.42,3.8-7.95,4-18.46,1.07-35.66-3.26-52.3-10.86-5.74-2.62-11.89-5.73-17.91-5.87-4-.09-3.09,7.4-2.79,10,1.72,15.26,3.33,30.51,2.83,45.87-.17,5.24,2.69,3.66,5,3.08,21-5.19,41.93-7.62,62,3.35,2.34,1.29,3,0,4-1.08,14.14-16.47,31.44-22.37,52.55-16,3.47,1,3.53-2.29,4.12-4.12.7-2.18.69-4.35,1.86-6.71,7.85-15.81,20-27.07,35.43-35,6.73-3.48,3.79-10.5,4.27-14.75,1.29-11.54,9.1-20.15,11.05-31a26.3,26.3,0,0,0-.43-11.1c-3.48-12.85,1.15-24.23,5.63-35.73a8.23,8.23,0,0,0,.24-1.81,109.62,109.62,0,0,0-11.19.64,175.62,175.62,0,0,1-53.43-.15c-2.74-.41-4.66,3.48-7.49.15-6.35-7.45-.29-14.34,1.25-20.75a118,118,0,0,1,24.28-47.87c1.16-1.4,1-1.31-3-4.8-11.54-10.11-23.47-19.84-34.25-30.71-7.79-7.86-15.2-16.62-20.55-26.22-6.32-11.33,5.26-13.17,11.84-15.95,14.28-6,29.39-8.84,44.87-10.62,9.56-1.1,18.76-2.73,28.16.09,1.93.57,1.6-.92,1.81-2a162.41,162.41,0,0,1,18.5-50.82c3.63-6.35,7.25-13,10.2-19.46,1.66-3.67-7.44-3.43-11.49-5-9-3.52-18.51-7.41-27.87-7.54-6.53-.1-13,6.25-19.78,8.88a64.77,64.77,0,0,1-33.81,3.58c-10.94-1.67-21.92-2.51-32.25-7.19-14.93-6.78-25.93-22.74-25.5-38,.41-14.72,19.23-25.79,33-21.06,26.37,9.09,47.82,25.58,69.78,41.84,5.2,3.85,14.42,2,21.57,4.75,9,3.48,18.45,6,27.71,8.91.59.19,1.22.28,1.83.42a7.05,7.05,0,0,0-.08-2c-8.6-24.88-17.28-49.73-25.8-74.64-1.9-5.54-6.86-6.42-11.25-8.17-11.67-4.65-23.06-11-35.18-13.17-11.31-2-23.43,1-35.2,1.1-16.12.1-31.9-2.45-45.19-12.33-9.94-7.38-15.5-18.5-9.41-29.71,8.38-15.39,22.14-17.13,36.59-9.84,19.14,9.66,36.13,21.67,50.7,37.68,8.46,9.28,22.09,9.75,33.46,14a48.58,48.58,0,0,0,7.15,1.53c-1.37-5.1-2.28-10.38-4.22-15.25-6.31-15.88-12.32-31.94-19.75-47.3-6.41-13.26-16.64-24.92-21.53-38.59-7.44-20.79-28.2-18.92-42.17-28.25-18.3-12.24-34.11-26-41.56-47.28-2.78-7.94,1.34-15.59,6.95-19.88,8.27-6.33,18.49-6.92,28.44-2.14,17.11,8.21,24.89,23.55,32.81,39.7,4.65,9.49,9.66,18.91,12.14,28.93,5.88,23.88,24.17,40.72,33.71,62.48,4.65,10.6,6.13,22.76,14,32.07,6.11-8.26,11.18-16.49,17.6-23.48,9.44-10.26,8.25-22.75,10.71-35,2.79-13.93,7.23-28,14.83-41,8-13.66,26.1-21.61,39.72-14.48,9.1,4.76,12.61,24.14,6.07,36.19A113,113,0,0,1,586.46,340c-15.77,7.37-19.27,22.46-29.22,33.22-8.6,9.31,1.71,17.61,4.14,25.9,4.92,16.81,11.67,33.09,17.7,49.57.29.79.84,2,1.39,2.06a3.21,3.21,0,0,0,2.32-1.22c13-15.39,25.47-31.21,39-46.09,6.52-7.17,6.25-16.62,11-24.25,10.39-16.64,21.85-32.39,42-37.3,9.66-2.35,20.92-.75,26,9.24,6.85,13.58,2.33,25.73-8.76,32.1s-21.54,14.3-33,20.19c-7.49,3.87-15.62,7-24.47,7.74-16.93,1.33-19.92,18.87-30.77,27.42-4.42,3.48-6.5,9.93-10.9,13.44-11,8.72-7.28,18.57-3.88,28.92,3.59,10.92,4.34,23.13,15.35,30.4,1.71,1.14,2.59,2.14,4.48.75,17.35-12.78,35.71-24.11,53.39-36.29,9.65-6.66,16.89-17.74,27.87-23.66,11.31-6.1,22.6-13.42,36-12.5,9.91.67,20.27,2.44,28.56,8.32,15.2,10.78,12.3,27.42-7.38,36.84-15,7.19-31.89,6.77-48.32,6.51-12.3-.19-24.6-.28-36.4-4.91-1.8-.71-5.22,1.65-7.42,3.24-12.87,9.27-25.51,18.86-38.46,28-3.14,2.23-2.42,3.93-1,6.41,7.77,13.19,15,26.75,23.48,39.43,3.26,4.87,8.77-.59,13.28-1,18.64-1.78,37-4.87,56-.85,27.18,5.75,9.15,20.67,6,30.5C710,606.05,701.66,619.53,690,628.18c-14.23,10.52-13.86,19.07-4.58,32.59,8.21,12,12.49,26.39,15.79,40.76a10.09,10.09,0,0,0,1,2,13.62,13.62,0,0,0,2.5-2.34,770.33,770.33,0,0,1,58.64-79.1c10.78-12.79,13.28-28.31,20.09-42.29,7.86-16.12,19.11-30.35,36.61-38,9.79-4.29,28.09.14,32.18,8.27,5,9.85-1.79,24.19-11.73,31.34-8.39,6-14.94,14.51-25.17,18.23-9.82,3.57-19.38,7.85-29.22,11.35-8.12,2.89-10.23,10.83-14.76,16.61-11,14-21.32,28.57-32.75,44,26.62-6.56,54.42-4.49,78.4-15.5,17.66-8.12,34.23-14.48,53.74-13.39,16.88.94,34.62,15.87,34.32,30.68-.26,12.46-11.21,16.28-19.55,17-21.79,2-42.18-4.48-60.56-16.71-11.22-7.46-23.44-4.09-35.18-2.29-11.34,1.73-22.41,6.93-33.66,7.15-22.8.46-35.84,12.63-43.93,31.44,19.61-10,41.65-12.88,63-6.57,23.16,6.85,39.07,23.63,48,46.68,5.9,15.2,17.6,26.11,29.42,36.83,15.82,14.33,29.64,29.89,36.79,50.89,7.56,22.21,17.9,43,39.46,55.72,15.32,9.07,27.07,40.43,22.22,57.27-5.06,17.54-27.13,34.53-45.37,34-9.1-.26-16.28,2.27-24,7.26-21.39,13.8-44.78,20.61-70.58,14.92-5.73-1.27-6.4-.86-3.81,6.54,4.44,12.62,10.54,24.69,14.48,37.44,4.44,14.42,6.43,29-.8,43.8s-7.56,30.64-5.79,46.55c2.81,25.38-3.61,46.41-22.1,65.58-18,18.64-26.83,43.66-35.95,67.81-7.78,20.62-18.32,41.36-39,48.89-16.34,5.94-35.94,6.15-54.26,1.6a194.61,194.61,0,0,0-69.3-4.87c-20.4,2.29-41.37,4.66-61.54-4.29-20.83-9.24-35.39-25.86-51-41.27-9.61-9.51-22.52-9.51-33.95-13.67-15.76-5.75-31.64-9.86-44.07-23.21-8.4-9-17.35-17.15-23.22-28.2-3.73-7-5.82-14.71-9.2-21.92-3.87-8.24-10.45-13-16.16-19-10.82-11.29-22-22.25-33.14-33.22-.74-.72-.95-4.12-3.42-1.59-10.18,10.43-23.61,14.37-37.12,16.68-14.82,2.53-30.32,5.48-44.92,3.59s-29.26-1.52-44-8.21c-22-10-46.16-16.15-71.44-13.21-14.58,1.7-30.05.33-42.49-6.43-4.89-2.66-9.9-5.22-14.88-7.85V1616ZM937.59,957.12c1.75-2.83,5.68-7.21,2.36-9.74a478.68,478.68,0,0,0-39.53-27.6c-24-14.7-48.45-28.55-72.74-42.71a26.75,26.75,0,0,0-4.28-1.61,28.19,28.19,0,0,0,.47,5.23c1.62,5.93,3.62,11.76,5.16,17.72,2.33,9.05,5.2,16.38,16.4,18.83C864.3,921.36,880.77,931,895.17,944a5.16,5.16,0,0,1,1.33,6.6c-.35.69-3.59.92-4.51.16-14.52-12-31.46-19.15-49.09-25a18.71,18.71,0,0,0-3.2-.48,18.55,18.55,0,0,0,.59,3.37c5.28,13.9,15.27,24.95,22.77,37.5,1.1,1.84,3.36,3.41-.28,5.81s-4.39-.66-5.68-2.1c-19.81-21.94-30.68-48.35-38.2-76.46-2.22-8.32-2.42-20-8-24-11.44-8.29-25.84-12.51-39.08-18.27-1.35-.59-3.22-.22-2.64,2.17,4,16.24,8,32.46,11.89,48.71,1,4.09,1,11.6,2.51,11.86,11.57,2,15.69,12.16,22.67,19.07A181.52,181.52,0,0,1,832,964.68c.63,1,.61,3.64.16,3.83-1.68.72-3.59,1.3-5.32-.64-2.31-2.61-5.45-4.59-7.37-7.42-8.75-12.85-21.32-22-32.46-33.15,7.79,19,9.07,39.29,13.3,58.92.6,2.76-1.54,7.31,2.5,8.59,26,8.23,49.89,4,72.71-11,7-4.59,14.29-10.36,24.31-9.06C915.87,976.86,928.91,971.1,937.59,957.12ZM943,935.18c-1.13-12.83-6.5-22.82-16.19-29.68C907.72,892,891.12,876.18,884,853.6c-6-18.72-14.36-35-28.33-49.08C843.5,792.33,830,781.44,820,767.09c-8.54-12.3-11.61-27.86-23-38.39-21.11-19.58-47.45-22.44-78.83-10.6-16.08,6.08-32.44,6.83-49.39,3.31-16.76-3.49-32.19-12.09-50.81-8.78-22.88,4.07-49.29,36.09-44.44,58.79.92,4.31-4.47,16.46,8.43,13.29,8.51-2.09,16.39-1.42,24.71.11,12.84,2.36,23.65-.61,29-14.05.56-1.4,4.45-.64,1.86-4.43-6.57-9.62-16-17.25-19.55-29.12-1.18-3.94,1.69-4,2.87-5.41,1.88-2.21,3.2,1,3.49,1.71,4.28,9.85,12.68,16.69,18.22,25.57,1.62,2.59,2.67,2.22,4.87.42,9.1-7.44,18.31-14.78,27.8-21.71,2-1.44,5.82-3.54,8-.6,1.89,2.56-1.25,4.8-3.08,6.34-6.84,5.74-13.9,11.21-21.83,17.55,11.7-2.58,22.28-4.74,32.77-7.24,13.84-3.3,25.62-10.74,36.91-19.05,1.56-1.15,3.45-3.33,4.8-.93,1.08,1.92.54,4.61-1.68,6.66C715.4,755,696.89,762.18,675.79,765.6c-11.07,1.8-25.4-3.31-33,10.61-2.8,5.12-14.1,10.66,3.48,11.53,11,.54,22.86.89,33.89,6.4,4.11,2.05,12.79,5.79,18.1.46,8.53-8.55,17.07-16.85,27.37-23.35,15.25-9.61,29.61-20.71,46.49-27.55,2.82-1.15,7-2.38,8.53.58,2,3.8-1.54,5.28-4.87,7.14-12.52,7-24.67,14.68-37.44,22.39,4.47,2.64,7.32-1.39,10.35-.55,16.33,4.53,31.89,1.12,47.34-4.06,2.15-.72,4.44-1,6.62-1.67,1.89-.55,4.28-1.65,5.16.54.5,1.23-.71,4.27-2,4.93-13.47,7.1-27.69,11.88-43.15,10.34-20.19-2-40.34-4.56-55.1,14.12-1,1.28-1.22,2.79,1.42,3.54,17.51,5,34.35,11.85,51,19.12,8.05,3.5,17.78,10,24.69,8,21.07-6.09,42.48-9.34,63.93-12.84,3.05-.49,6.44,1,7,4,.68,3.81-2.64,3.74-5.65,3.93a148.56,148.56,0,0,0-16,2.06c-1.68.29-3.18,1.59-4.76,2.43,1.31,1.09,2.59,2.22,4,3.25,9.08,6.81,19.91,9.14,30.51,12.2,2,.58,5.11,3,5,4.25-.35,3.23-3.59,1.84-5.7,1.7-10.82-.69-20.89-3.32-30.33-9.25-18.92-11.87-20.4-11.69-36.53-4A946,946,0,0,1,943,935.18ZM894.41,675.49c3.74-6.3-.69-14.21-7.53-17.8-23.09-12.07-44.93-8-65.1,5.7,15.35,9.78,32.13,15.32,49.77,18.8C880.81,684,889.92,683.07,894.41,675.49Zm-51.5-112.84c.29-13.23-11-16.92-23-10.34-16.79,9.14-26.93,23.79-32.89,41.63-.36,1.07-1.7,2.08-1.58,3,.24,1.77-2.09,6.39,1.88,4.85,10.93-4.24,21.85-8.94,31.87-15C829.8,580.39,839.71,572.5,842.91,562.65Zm-14,303.7c-3.5-3.13-4.42-4.36-5.66-5-30-15.88-60.16-31.36-92.45-42.72-27.33-9.6-54.68-17.67-83.4-21.71-22.81-3.21-45.62-4.1-68.56-3.85-5.13.05-13.72,12.79-11.71,17.51a2,2,0,0,0,1.57.95c25.66-2.07,51.25.31,76.81,1.65a255.61,255.61,0,0,1,46,6.18c19.36,4.61,38.76,9.22,57.93,14.92,15.16,4.51,29.47,10.56,44,16.36C804.45,855,815.15,860.21,829,866.35ZM816.6,1077.42c1.61-19-7.77-35.79-15.08-52.25-8.39-18.88-11.83-38.48-14.24-58.35-1.44-11.9-4.3-22.75-11.65-31.89-15.3-19-36.22-33.06-49.29-54a68.32,68.32,0,0,0-25.08-23.49c-16.85-9.42-35.94-9.08-54.21-5.85-16.88,3-33.07,5.43-49.15-2.52-7.56-3.75-15-9.31-23-10.27-18.37-2.19-33.47,6-45,20.2-7.44,9.17-16.7,18.77-.94,29.05,1.79,1.17,2.4,4.09,4.15,5.43,4.23,3.24,4.37,11.2,10.84,11.08,5.8-.11,11.49-2.88,17.34-3.57,15.51-1.81,31,1,46.34,1.25,28.44.55,55.65,8,83.59,10.93,10.86,1.13,21.45,5,32.08,7.9,1.51.41,2.55,2.53,3.8,3.86-.93.72-1.93,2.15-2.77,2.06-6.31-.67-12.81-.92-18.81-2.73-5.64-1.69-29.47-4.33-34.7-2.56,14.13,13.21,31.44,21.39,48.7,29.7,2,1,6.28,2.28,4.83,5-.85,1.59-6.05,2.25-8.53,1.32-13.68-5.17-26.81-11.56-38.38-20.7-8.33-6.57-15.72-17-25-19.13-21.82-5-44.5-6.56-66.91-8.64-10.61-1-21.45-.89-32,1.8-1.54.39-3.15.56-4.73.83.67,1.76,1,3.75,2,5.26,9.69,14.16,21.27,26.94,29.69,42.08,5.73,10.29,8.56,24,25,23.68,11.12-.2,21.75,3.77,32.52,5.46,25,3.93,48.27,12.21,70.36,23.42,27.74,14.08,53,32,73.76,55.72,2.19,2.51,3.63,3.81.94,6.47s-5.31.63-6.82-1a198.7,198.7,0,0,0-33.44-29.13c-11.83-8.36-24.45-15.61-40.42-25.69,8.44,12.08,13.94,20.53,20,28.52,9.06,11.87,17.71,24.2,29.23,33.86,2.63,2.21,6.23,2.88,5.43,7.3a19.5,19.5,0,0,1-1.09,3c-3.16-1.2-6.92-1.67-9.37-3.72-19.93-16.67-33.42-38.48-47.74-59.72-3.3-4.9-4.85-11.59-11.19-14.35-13.8-6-28.34-9.47-42.77-13.48a243.49,243.49,0,0,0-46.3-8.31c21.23,28.61,33.63,61,48.91,92,2.74,5.53,4.19,12.77,10.11,15.5,8.85,4.07,18.53,6.27,27.63,9.83,11.56,4.52,21.54,12,32.26,18a219.72,219.72,0,0,1,48.64,36.85c1.23,1.25.3,4.62.38,7-1.15-.09-2.68.26-3.41-.35-15.45-13-31.62-25-49.8-34.85,1,2.78,1.34,5.4,2.63,7.46,11.29,18,21.64,36.59,35.05,53.19,1.11,1.37,3.78,3.1,1,5.37-2.46,2-5,1-6.66-.9a179.52,179.52,0,0,1-12.92-16.49c-6.86-10.32-13.38-20.88-19.74-31.51-4.25-7.1-4.43-18.5-8.9-22.28-10.14-8.58-23.8-13.13-36.23-18.86-3.38-1.57-5.62.91-4.34,4.43,4.8,13.19,9.95,26.25,14.92,39.38s10.44,26.38,14.82,39.84c6,18.48,10.36,37.55,17.07,55.76a501,501,0,0,1,15.12,49.48,20.81,20.81,0,0,0,2.75,5.47,3.72,3.72,0,0,0,2.52-.93c5.59-9.41,12.45-18.36,16.26-28.46,10.3-27.31,20-55.35,40-76.87,17.37-18.72,22.79-38.43,18.79-62.85-2.06-12.61-1.52-25.79,3.59-38.18C811.84,1091.41,816,1084.54,816.6,1077.42ZM775,919.58c-1.37-6.47-2.32-11.65-3.58-16.75-2.75-11.21-6.42-22.25-8.31-33.6-2.16-13-2.35-25-19.94-28.56-28.79-5.86-57.24-13.42-86.42-17.35-2.41-.32-7.76.1-7.21.77,4.75,5.75,3.88,17.24,14.85,16.76,26.85-1.19,50.13,8,65.67,29.14C743.26,887.87,758.29,903.37,775,919.58Zm-22.22-455c1.08-3.88-2.64-5.68-5.1-7.52-6.66-5-14.37-6.62-22.76-6.29-19.85,1.5-35.58,12-50.58,23.9-1.59,1.27-2.93,3.59.48,4.15,6,1,12.17,2.28,18.19,1.95,15.6-.85,31.25-1.91,46.7-4.17A16.44,16.44,0,0,0,752.8,464.58Zm-40,851.94c4.4-.12,8.35-5.32,7.66-7.58a424.43,424.43,0,0,0-14.67-40.45c-10.88-25.86-20.8-52.06-34.4-76.84-11.83-21.54-22.77-43.57-36.16-65.62-1,7-2.15,12.77-2.47,18.64-.94,16.91-14.92,32.76-.29,51.06,13.45,16.84,21,37.67,27.83,58.17,1.65,5,6.77,14,1.14,16.34-6.79,2.81-8.62-7-10.21-12-6.82-21.42-16.32-41.52-27.68-61.67-1.48,14.45-4.93,28.31-3.67,41.74,1.12,12,.22,23.76,1.06,35.6.11,1.59-1.58,3.31-2.43,5-1.09-.89-2.83-1.6-3.14-2.71-1.07-3.87-2.37-7.89-2.3-11.83.36-19.86-3-39.32.88-59.74,4-21.42,6.1-43.41,10.59-64.93,1.63-7.85,6.23-17.16,3.64-23.37-5.29-12.65-14-24-22.27-35.23-12.62-17.24-24.18-35.33-39.32-50.63-3.39-3.43-6.15-7.47-9.19-11.23-3.42,3-3.57,7.25-4.62,11.19-.1.37-.9.53-1,.91-7.16,18.35-14.53,36.62-21.29,55.11-3,8.34-8.44,18-6.56,25.52,4.7,18.78,11.71,36.92,15.68,56.13,5.41,26.2,10.44,52.25,9.5,79.13-.1,2.85,1.06,7.14-2.82,7.39-3.05.21-4.59-3.57-5.31-6.76-4.3-18.87-4.57-38.27-7.43-57.37-3.28-22-10.4-43-13.78-68.11-5.34,22.84-10.76,42.61-14.39,62.7-2.65,14.67-3.05,29.75-4.19,44.66-.29,3.88-3.27,3.13-5.32,3.92-1.86.73-2.5-.56-2.89-2.3-1.79-8,.13-16.21.93-23.73,1.84-17.47,5-35,8.46-52.33a729,729,0,0,1,19.27-75.53c6.47-20.6,16.88-40,24.67-60.2,1.1-2.85,6.19-5.81,2.56-10-14.74-16.92-30-33.43-44.15-50.82-5-6.07-8.17-.21-9,1C483,978.06,466,992.32,451.7,1009.05c-2.65,3.1-7.55,6.9-7.07,9.61,2.07,11.65-1.05,22.88-2.07,34.08-1,10.5-1.68,21.44-4.13,31.57-5.19,21.41-9.28,43.37-21,62.81-2,3.31-2.83,7.3-6.83,5.56-3.45-1.51-1.94-5.68-.64-8.73,7.43-17.34,13.83-35,17.09-53.68,3.15-18.07,6.64-36.1,9.75-54.18.48-2.8-.29-5.81-.48-8.73-1.47,1.19-3.27,2.14-4.36,3.61-3.3,4.44-5.78,9.62-9.56,13.57-18.45,19.25-29.26,42.88-39.52,66.92-.68,1.57-3.15,2.37-4.79,3.52-.9-1.35-2.81-3-2.54-4,4.52-18.29,13.58-34.83,23.46-50.38,11.5-18.1,25.22-35,39.41-51.12,10.15-11.56,19.18-24.46,33.37-34.57-12.56,1.15-23.94.87-35.39,1.51-17.79,1-35.32,2.49-52.56,6.73-11.44,2.81-22.64,6.58-34,9.77-2.46.69-5.75.56-6.28-2.25-.28-1.47,2.18-4.52,4-5.18,12.31-4.42,24.51-9.7,37.23-12.24a310.6,310.6,0,0,1,77.9-6c12.21.67,20.6-3,27.12-12.64,1.8-2.66,7.91-3.42,3.14-8.76-8.35-9.35-16.28-19.06-24.51-28.51-17.48-20.06-59.08-26.54-83.84-13.32-29.48,15.76-56,34-70.28,66.46-10.09,22.91-7.56,45.21-2.35,68.08,2.13,9.36,4,18.67,2.58,28.36-2.39,16.4-4.67,32.72,5,48a139.82,139.82,0,0,0,14.87,19.31c9.68,10.62,19,21.68,30.37,30.3a50.68,50.68,0,0,1,18,26.2c6.86,22.08,20.91,38.16,39.85,50.06,13.38,8.41,28.92,11.5,44.24,15.12,16.64,3.93,26,18.57,38.47,28.71,13.73,11.18,25.72,24.19,45.11,27.1,17.63,2.65,34.67-.77,51.83-1.7a257.33,257.33,0,0,1,32.5-.07c10.69.79,21.07,5.85,31.76,6.65C681.91,1317.76,697.39,1316.91,712.79,1316.52Zm.33-745.64c-4.34,0-8.26.64-11.9-.11-17.17-3.58-33.91-.55-51,1.26-4.78.5-11.6,10.66-17.69-1.49-9.78-19.5-20.6-38.72-36.65-54.21-3.56-3.44-6.52-1.81-8.08,1.34-9.92,20.13-19.06,40.55-25.25,62.26-1,3.46,1.41,11.08-5,10.86-22.54-.78-44.42,2.73-66.05,8.36-5.58,1.45-10.9,3.9-16.34,5.9,2.78,4.31,5.17,8.93,8.39,12.87,13.74,16.78,30,30.88,47.16,44.08,2.14,1.64,7,3.85,4.12,7.4-11.16,13.93-17.86,30.3-25,46.27-1.51,3.41-6.6,13.89.08,14.58,18.81,1.94,38,1.92,56.87-1.51,5.22-1,11.16-2.9,14.84-6.42,16-15.24,33.44-22.93,56.42-19.92,14.88,1.94,27.49,11.82,42.56,10.47,4.52-.41,14.72,4.8,13.43-2.92-3.22-19.32-13.18-36.66-22.43-54-3.72-7-12.62-12.58-1.14-22C690.55,617.55,703.38,595.53,713.12,570.88ZM693.72,365c.08-10.46-9.47-15.22-17.45-13.29-20,4.84-28.57,21.38-38.53,36.44-2.25,3.41-2.48,8.16-3.63,12.28,3.81-1.09,7.56-2.57,11.45-3.2,14-2.27,22.83-13.95,35.44-19.07C686.79,375.85,693.52,370.7,693.72,365ZM676.35,1179.7c.3-1.6.69-2.33.48-2.8-7.13-16.45-11.14-34-19.26-50.21-14.92-29.77-27.64-60.66-42.81-90.3-11.74-22.94-25.8-44.71-38.88-67-7-11.89-12.48-25.22-21.68-35.07-6.31-6.75-12.54-13.74-16.91-21.34-14.85-25.84-32.85-33.54-60.12-23.19-4.94,1.87-22.35,3.93-8.52,17.52,2,1.93,4.76,3,6.58,5,10.2,11.34,19.55,23.53,30.45,34.13,19.11,18.59,35.55,39.48,53.31,59.22a666.13,666.13,0,0,1,50.1,62.11c14.6,20.77,27.66,42.45,40.73,64.21C659,1147.37,667,1163.28,676.35,1179.7ZM648.66,841c1.36-.45-12.1-19.92-14.55-19.93-8.33,0-17,1.51-24.92-.33-14-3.27-27.53-.31-41.27.25-3.43.14-5,1.25-4.84,4,0,3.18-.62,4.78,3.79,4.52,6.06-.36,13,.44,18.26,3.22,14.4,7.6,28.52,15.08,45.55,12.22A126.48,126.48,0,0,0,648.66,841ZM625.91,290.9c4.31-7.21,5.86-15.29,2.56-23.28-1.28-3.1-4.35-6-8.35-4.52-11.85-.79-16.73,7.9-20.77,15.74-5.1,9.9-8.83,20.64-12,31.37a29.32,29.32,0,0,0,.54,16.13c.58,1.84,6-1.23,8.09-3.49C605.85,312.06,618.29,303.66,625.91,290.9ZM527.82,494.69c-.92-1.17-1.62-2.68-2.81-3.45-9.93-6.44-20.18-12.4-29.88-19.17-11.36-7.94-23.19-15.2-36.53-18.58-10.06-2.55-15.28,4.3-16.63,13.87-1.09,7.79,2.61,13.62,7.84,19,14.06,14.45,32.53,14.35,51.46,15.66,7.1-1.08,15.35-1,22.7-5.08C525.27,496.22,526.54,495.44,527.82,494.69ZM498.54,393.48c1.58-3-2.53-4-4.09-5.77-11.48-13.27-27.36-20.19-42.27-28.45-7.38-4.08-15-1.81-19.31,3.93-4.82,6.39-2.06,13.63,4.19,18.8,14.48,12,32.32,11.19,46.2,12.95,4.95,0,6.63.15,8.27,0C494,394.61,497.83,394.82,498.54,393.48ZM494,278.83c-4-8.8-7.12-16.83-11.2-24.34-8-14.74-13.08-32.19-31.39-38.4-5.57-1.89-12-3-16.9,1.26a8.92,8.92,0,0,0-2.13,9.49C443,255.38,467.13,267.92,494,278.83ZM450.23,754.21C460,741,469.61,727.56,480,713.28a157.49,157.49,0,0,0-62.52,1.65c-4.39,1-10.15.83-12.21-3.39-7.15-14.68-14.54-29.15-22.82-43.27-3.1-5.29-7.88-9.13-10.31-15s-9.43-9.14-10.88-6.81c-9.35,15-15.49,31.46-20,48.38-5.78,21.68-8,23.63-28.52,24.37a112.54,112.54,0,0,0-43.1,10.3c-4.19,1.93-14.18,4.32-11.32,9.93,9,17.75,23.31,31.49,39,43.87,4,3.14,13.72,3.56,10.25,13.31-4.37,12.28-7.77,24.83-8.44,37.94-.07,1.55-1,3.72,1.86,4.37a35.94,35.94,0,0,1,17.63,9.12c8.43,8.25,14.56,4.48,22.72-1.76,9.85-7.55,19.46-15.33,29.1-23.13,7.87-6.38,14.28,1.67,21.27,3.76,16.57,5,33.12,10,49.78,14.69,4,1.13,8.43.93,12.66.89.29,0,1.18-4,.69-5.9-4-15.48-7.47-31.17-12.72-46.23-3.72-10.66-10.95-20.44,1.77-29.8A30.43,30.43,0,0,0,450.23,754.21ZM374,896.78c1.44-19-.35-38.22-1.27-57.35-.12-2.42-1.69-4.59-5-1.73-8.08,6.94-16.74,13.21-24.67,20.31-3.38,3-12.48,2.3-9.64,9.3,3.93,9.67,5.13,18.74,1.42,29.18,3.26,3.07,7.49,5.89,10.1,9.8,3.17,4.74,5.41,6.85,10.83,2.73C361.77,904.46,373.68,901.26,374,896.78ZM344.58,560.52c.95-10.12-1.92-15.92-7.33-17.07-9.71-2.07-18.49,3.28-23.82,10.55-11.79,16-15.44,35.07-15.48,54.74,0,2.69,1.25,5.38,1.92,8.07,1.69-1.11,3.25-2.61,5.11-3.27,7.94-2.84,11-10.54,16.32-16C332.57,585.94,340.68,572.4,344.58,560.52Zm-7.07,360.89c1.45-1.83,5.75-3.1,1.94-6.37-4.64-4-9.11-10-14.39-10.91-5.48-1-11.73,3.85-17.85,4.76-22.54,3.37-42.49,14.08-63.36,22-14.76,5.62-28.41,14.1-43.09,19.94-22.2,8.82-42.63,20.93-63.18,32.71-16.46,9.45-32,20.59-47.33,31.87-9,6.63-17.63,13.7-26.25,20.82v5.9c12.44-6.9,24.93-13.73,36.15-22.24,22.71-17.22,48-29.39,73.12-42a444.8,444.8,0,0,1,49.64-20.76c14.07-5,28.78-8.26,43.22-12.24,12.21-3.37,24.65-6.08,36.61-10.18C314.47,930.75,328.6,932.69,337.51,921.41ZM322,896.58c6.54-2.64,5.49-10.45,4.84-16.39-1.71-15.83-17.84-30.43-33.45-33.41-13.21-2.52-26-5.79-39.43-1.77-8.28,2.49-15.94,6.51-24,9.48-14.73,5.41-29.71,8.67-44.66,6-27.46-4.92-59.24,13.6-70.54,39.62-10.7,24.63-26.58,46.21-49.87,61.37-.28.18-.55.38-.82.56v33.6a139.66,139.66,0,0,0,29-23.76c-6.06-3-11.14,2-16.76,1.27-3.12-.39-6.39-1-6.81-4.14-.14-1,4.07-3.45,6.55-3.94,22.24-4.36,44.61-1.11,66.78.36,11.73.78,18-7.29,26.87-10.89,16.4-6.69,32-15.47,47.84-23.4a16.9,16.9,0,0,0,2.29-1.61,15.7,15.7,0,0,0-2.95-2.39c-14.88-7-27.49-5-42.21,4-15.07,9.27-33.88,10.61-52,5.86-2.57-.67-1.48-2.61-1.57-4-.19-2.83,2.09-2.06,3.54-2,18.88.45,37.13-2.23,55.42-11.18C167.3,917,155.7,915.07,143.8,915c-2.63,0-6.79,1.64-6.87-3.23-.06-4.06,4.42-4.64,6.63-4.61,28.52.39,56.43,4.75,82.7,16.28,9.88,4.34,16-3.31,23.79-5.39,8.77-2.34,17.14-6.17,25.77-9.06,4.19-1.4,1-3.08.13-3.81a181.64,181.64,0,0,0-38.28-26.1c-3.73-1.9-11.08-2.73-8.68-8,2.71-6,9.09-.44,12.42,1.08a132.45,132.45,0,0,1,41,29.24c5,5.24,9.42,1.19,13.82.65C304.92,901,313.93,899.82,322,896.58Zm-4.2,46.66c2.22-3.11-1.33-2.86-1.42-2.85a65.88,65.88,0,0,0-10,1.63c-17.1,4.86-34.23,9.66-51.17,15-3.14,1-10.63.65-7.65,6.92,3.12,6.57,1.49,13.08,1.11,19a221.09,221.09,0,0,1-11.76,59.3c-6.43,18.34-14.5,36.12-22.21,54-.8,1.87-3.16,4.63-6.26,3.47-.78-.29-1.54-2.76-1.14-3.78,4.78-12.4,10-24.63,14.64-37.06,3.6-9.6,6.59-19.42,10.39-30.73a118.08,118.08,0,0,0-29.17,25.66,148.75,148.75,0,0,0-24.83,42c-1,2.51-2.86,5.59-5.86,4.89s-1.78-4.23-1.28-6.1c7.17-27.1,24.3-47.28,45.23-64.87,6.32-5.32,15.42-7.51,18.6-16.47,4.94-13.92,3-28.59,4.33-42.88.06-.65,4.95-10.76-4.79-7.28-10.77,3.85-22.14,6.72-32,12.29-10.92,6.18-28.84,3.8-30.43,22.68-.3,3.58-.32,7.34-1.48,10.67a451.54,451.54,0,0,1-27.72,62.69c-4.9,9.25-8.19,19.78-17,26.51-1,.78-3,.37-4.48.52,0-1.62-.65-3.52,0-4.81,4.16-8.36,8.44-16.67,13-24.84,7-12.69,7.12-12.63,5.75-17.84-.55.52-.92,1.12-1.45,1.33-20.9,8-40,18.7-55.24,35.58-1,1.11-3.9.52-5.92.72,0-1.58-.73-3.62,0-4.67,11.89-17.13,29.42-26.68,47.8-35,7.68-3.47,19.11-4.42,22.58-10.24,7.22-12.1,10.29-26.68,14.95-40.27a3.83,3.83,0,0,0-.65-3.15c-.37-.45-2-.32-2.8.12-20.39,11.76-41,23.16-61,35.55-11.57,7.16-23.06,14.49-34.34,22.12v54.37c6.5,3.25,13.17,6.22,19.71,9.27,16.5,7.69,34.54,7.66,52.39,6.15,20.08-1.69,38.17,4.79,55.62,13.4,15.6,7.71,32.55,8.78,48.94,8,18.83-.92,37.92-1.52,56.51-7,9.51-2.78,20-11.55,15.43-17.27-8.83-11.11-9.91-23.71-9.58-36.76.42-17,5-34.12-2.1-50.79-.75-1.75-1.61-3.44-2.42-5.16-.67,1.21-1.31,2.44-2,3.62-3,4.8-6,9.52-8.9,14.37-6.82,11.57-14.27,22.78-18.7,35.67-1.31,3.82-2.28,9-7.66,9.76-.45.07-2.42-3.91-2.06-5.66,3.2-15.51,11.27-29.1,19.22-42.31,9.08-15.1,20.53-28.7,20.47-47.65C298.76,975.56,306.68,958.73,317.76,943.24ZM234.48,600.72c.93-3.67-1-7.14-1.11-10.42-.38-13.26-7.15-24.53-11.2-36.4-3.9-11.39-10.13-23.78-28.08-25.4-1-.33-3.29,1.32-5.59,3.85-9.14,10-5.35,20.65-.61,30.41,7.62,15.66,22.74,24,36.28,33.6C227.14,598.48,231,599.3,234.48,600.72Zm-.54,73c-6.42-1.19-11.58-2-16.67-3.11-23.19-5-46.38-6.14-68.73,3-5.44,2.22-9.8,7.82-6.34,15.85,5,11.69,15.81,13.21,25.47,13.14C193.08,702.37,213.35,688.81,233.94,673.71ZM133.17,974.07c-20.57-6.33-36.67,2.41-50.7,18.2-5.1,5.76-11.7,9.43-18.47,12.85v18.19q10.31-8.26,21.09-16C101.22,995.77,117.73,984.73,133.17,974.07ZM56,1618.34V61.66l-48-48V1666.34Z"/><path d="M634.27,643c3.85,1.14,11.23-3.08,11.06,3.06-.17,6.48-7.76,4.54-12.9,5.47-15.82,2.86-32.14,2.31-47.55,8.42-9.79,3.87-20.28,6-29.76,10.92-.68.36-2.62-.68-3.26-1.58a4.1,4.1,0,0,1,0-3.43c2.78-6.09,8.9-8.26,14.29-10.43,5.55-2.23,1.76-3.85.59-5.83-7.3-12.44-14.62-24.88-15.73-39.74-.17-2.31-.75-5.71,2.82-5.58,2.81.09,4.46,2.52,5.28,5.56,3.88,14.4,10.27,27.92,19.74,39.15,4.31,5.1,12-1.23,16.68-3.65,5.14-2.66-.92-8.73-1.45-13.39-2.06-18.07-5.9-36-4.92-54.29.11-1.91,1.33-5.12,4.25-4.48,2.33.51,3.37,2.67,3.78,5.56,2.94,20.94,3.57,42.25,9.63,62.71.35,1.2,1.51,3.26,1.89,3.17,3.44-.8,9.22-1.28,9.78-3.19,3.47-11.78,5.74-23.92,8.45-35.93a101.76,101.76,0,0,1,2.77-11c.47-1.35,1.38-3.75,4-2.38,5.7,3,3.49,8.47,3,12.47-1.31,11.53-3.71,23-5.76,34.4a21,21,0,0,1-1.66,3.92C631.31,642.94,632.9,642.6,634.27,643Z"/><path d="M402.53,772.88c4.47.82,11.8-2,11.59,3.39-.18,5-8.55,4.43-14,4.92-21.22,1.88-42.22,5.15-62.74,11.22-3.36,1-7.61,3-11-.58-.61-.65-1.12-2.41-.77-2.79a21.26,21.26,0,0,1,14.13-6.43c2.31-.2,3.94,1.39,2.07-2.61-6-12.79-11.07-25.93-7.58-40.55.51-2.12,1.33-4.76,3.94-4.19,1.25.28,2.45,2.81,2.87,4.52,2.77,11.15,3.14,22.92,8.4,33.41,1,2-.12,7.26,4.37,5,5.1-2.56,17.09,3.48,12.87-12a123.52,123.52,0,0,1-3.55-49.5c.1-.71,2-1.87,2.75-1.66,4,1.14,4.62,5,5.1,8.19,2.24,14.88,4.06,29.82,6.17,44.71.55,3.87,2,7.25,7.06,6.11,4-.9,8-.63,9-6.85,1.92-12.34,5.08-24.5,7.91-36.69.18-.76,1.84-1.42,2.91-1.68a2.82,2.82,0,0,1,3.69,2.91C406.15,745.31,404.34,758.79,402.53,772.88Z"/></svg>