<svg id="Card" xmlns="http://www.w3.org/2000/svg" viewBox="0 0 1024 1680"><defs><style>.cls-1{fill:#f2f0ed;}.cls-2{fill:#8c1707;}.cls-3{fill:#f79d31;}.cls-4{fill:#16592d;}.cls-5{fill:#38408c;}</style></defs><rect class="cls-1" x="14.5" y="14.5" width="995" height="1651"/><polygon class="cls-2" points="966 1619.17 966 60.83 1018 8.83 1018 1671.17 966 1619.17"/><polygon class="cls-2" points="60.83 58 8.83 6 1015.17 6 963.17 58 60.83 58"/><polygon class="cls-2" points="8.83 1674 60.83 1622 963.17 1622 1015.17 1674 8.83 1674"/><path class="cls-3" d="M62,1618V1112.45l3.22,2.47c16.25,12.51,31.13,20.12,46.84,24a92.7,92.7,0,0,0,22,2.56,119.23,119.23,0,0,0,15.88-1.11,144.38,144.38,0,0,1,19.19-1.57,68.32,68.32,0,0,1,13.46,1.24c12,2.4,23,7.84,33.68,13.1,10.4,5.14,21.15,10.45,32.64,12.75,1.45.29,2.89.59,4.34.9,6.6,1.39,13.41,2.82,20.13,2.82a37.67,37.67,0,0,0,12.6-2,56.55,56.55,0,0,0,5.5-2.41c3.59-1.71,7-3.31,9.5-3.31a4.35,4.35,0,0,1,2.68.81c17.69,13.26,30.78,32.43,38.88,57,1.89,5.72,8.41,15,16.62,23.53,8.6,9,17.09,15.07,22.16,15.86,29.15,4.58,53.6,16.57,72.67,35.64,12.32,12.31,27.32,18,48.63,18.62,1.78,0,3.57.07,5.35.09,10.13.1,20.6.21,30.33,5.75l3.07,1.78.09,0c5.44,3.19,11.06,6.47,16.88,7.93a24.87,24.87,0,0,0,6.07.79c11,0,17.91-8.74,24.64-17.19.83-1,1.66-2.08,2.49-3.1,14.36-17.63,32.85-30,50.73-42,12.15-8.15,25-18.46,28.14-33.21,3.92-18.31,10.94-30.82,22.77-40.55A126.51,126.51,0,0,0,727.48,1149c8.62-18.49,8.74-36.54.33-53.65-.86-1.76-.68-3.8-.53-5.59a18.34,18.34,0,0,0,.12-2l0-2.13,2.13.1c.3,0,.6,0,.91,0h1.78a12.08,12.08,0,0,1,3.84.48c2.5.81,5,1.8,7.35,2.76a62.39,62.39,0,0,0,12.26,4,135.4,135.4,0,0,0,23.25,1.89c16.91,0,34.13-2.67,50.79-5.26l.87-.14c21.75-3.38,40.93-13.67,59.47-23.63l3.76-2a65.74,65.74,0,0,1,31.78-8c10.26,0,21.26,2.23,33.62,6.81l1,.34,1.85.63V1618Z"/><path class="cls-4" d="M784.45,1088.75c-2.21,0-4.38-.1-6.46-.29-2.62-.24-5.32-.39-7.93-.53-9.29-.51-18.89-1-27.77-5.79a5.67,5.67,0,0,1-1.17-.88l0,0a28.06,28.06,0,0,1-4,.31c-3.93,0-6.71-1.13-8.25-3.36-2.59-3.75-.94-9.53,1-14.69.54-1.43,1.09-2.86,1.64-4.29,4.83-12.5,9.82-25.42,7.45-39.18-1.78-10.4-3.8-22.19-10.55-32-1.41-2-2-4.44-2.59-7.2-.29-1.3-.59-2.61-1-4l-2.1-7,5.38,5c14.92,13.89,28,26.73,36.83,43.15a3.21,3.21,0,0,0,2.57,2,2.77,2.77,0,0,0,1.3-.38l.1-.06-.32-.5a8.12,8.12,0,0,1-1-1.8c-4.51-12-12.88-21.53-21-30.75-2.55-2.9-5.18-5.9-7.7-9-2.18-2.66-5.39-4.22-8.49-5.72-4.79-2.33-9.74-4.73-11.13-11-2.07-9.39-3.38-19.07-4.65-28.43l0-.15c-.5-3.67-1-7.46-1.57-11.18a8,8,0,0,1,0-2.09,4.68,4.68,0,0,0,.06-1c-2.69-7.33-3.12-11.93-1.33-14.49a5.21,5.21,0,0,1,4.54-2.13c3.1,0,7.08,1.77,10.58,3.33,1,.43,1.89.85,2.75,1.2,14,5.76,27.86,12.22,41.3,18.46q5.74,2.67,11.5,5.32a5.89,5.89,0,0,1,3.12,5c-1,14.4,3.32,28,7.52,41.25,1.87,5.88,3.78,11.9,5.23,17.95,3.55,14.79,8.63,34.16,16.54,52.83a105.78,105.78,0,0,0,8.26,14.74l.55.88a7.27,7.27,0,0,0,.8.15c0-.13,0-.25,0-.38a13.65,13.65,0,0,0-.31-4.72c-2.46-7.14-5.13-14.35-7.7-21.32-1.64-4.43-3.28-8.84-4.87-13.27a12,12,0,0,1-.51-3.82c0-.52,0-1.06-.06-1.6l-.31-3.62,3.22,1.68c14.58,7.59,23.76,19.1,30.82,29.37a6.83,6.83,0,0,1,.59,1.14,8.7,8.7,0,0,0,.46.92,2.32,2.32,0,0,0,.31-.18,2.73,2.73,0,0,0,1-3.56c-8.74-14.48-17.77-29.44-36.35-34.49-4.94-1.34-5.82-6.69-6.52-11a35.83,35.83,0,0,0-.74-3.69c-3.92-14.09-7.59-28.49-11.14-42.41l-.13-.53c-1-3.79-1.93-7.58-2.91-11.37a7.83,7.83,0,0,1-.09-2.62c0-.29,0-.57,0-.84l0-2.69,2.57.8c.18.06.36.1.55.15a7.25,7.25,0,0,1,1.81.65l4.93,2.72c12.33,6.81,25.09,13.85,37.59,20.84,6.78,3.8,8.23,10.52,9.52,16.45a43.15,43.15,0,0,0,1.77,6.57,236.33,236.33,0,0,0,25.06,47.3c.1.14.23.28.35.42a4.27,4.27,0,0,1,1.34,2.63c.08,2,.93,2.34,3.39,3.13a19.2,19.2,0,0,1,1.91.68v0a19.41,19.41,0,0,0-2-5.49A281.12,281.12,0,0,1,850,971l-1.75-5.09,4.65,2.71c36.6,21.38,72.1,48.25,108.51,82.16l.64.59V1055l-2.36-.43c-3.27-.6-6.51-1.28-9.64-1.93-7.43-1.55-14.45-3-21.63-3.52-1.36-.09-2.73-.14-4.09-.14-17.91,0-33.65,8.43-48.87,16.59-3.72,2-7.56,4-11.38,6-15.32,7.65-31.6,10.71-48.32,13.41l-5.06.85-.35.06C801.89,1087.27,793.18,1088.75,784.45,1088.75Z"/><path class="cls-4" d="M958.72,1040.07c-2.13-1.77-4.25-3.55-6.38-5.34-15.38-12.9-31.28-26.24-47.94-37.82-5.31-3.69-10.64-7.53-15.8-11.25-15.31-11.06-31.13-22.47-48.34-31.11-7.12-3.58-14.08-7.65-20.82-11.59-7.58-4.43-15.41-9-23.42-12.85q-5.57-2.67-11.12-5.37c-20.28-9.84-41.26-20-62.77-27.14-27.25-9-51.9-15.47-75.37-19.68l-.37-.07c-7.48-1.34-24.95-4.47-23.22-21.73-.23-1.51-.31-3.37.83-4.71a4.52,4.52,0,0,1,3.65-1.43,9.38,9.38,0,0,1,1,0c35.68,3.38,64.83,9.86,91.75,20.4,22.52,8.81,45,18.84,66.89,29.83,22.3,11.21,44.79,24.94,68.78,42,26.74,19,57.62,41.39,85.79,66.88,3.15,2.84,6.38,5.87,9.23,8.54l.1.1c3.3,3.08,6.71,6.28,10.13,9.34l.66.6v15.13Z"/><path class="cls-4" d="M951.73,1008.68c-.26-.08-.53-.13-.81-.19a6.15,6.15,0,0,1-3-1.25c-4.65-4.12-9.32-8.38-13.83-12.49-9.22-8.41-18.72-17.08-28.51-25-10.19-8.25-21.15-15.93-31.74-23.36l-.23-.16q-5.46-3.83-10.89-7.67c-5.66-4-11.51-8-17.16-11.89l-.43-.29-7.56-5.17-4-2.73,4.73-.89a72.17,72.17,0,0,1,13.29-1.34c13.23,0,24.1,4.74,33.25,14.48,8.41,9,20.86,12.6,32.9,16.12l1,.3a10.67,10.67,0,0,0,2.88.63,1.1,1.1,0,0,0,1.28-1c.41-1.26,0-2.07-3.59-3.51l-.43-.18-3.53-1.43c-12.3-5-25-10.11-34.91-21.47l-3.11-3.57,4.73.25c2.75.15,5.47.26,8.18.37h.21c6.91.28,13.44.54,20.1,1.3a12.83,12.83,0,0,0,1.65.1c3.22,0,5.24-1,5.26-1.61.1-2.45-1.13-3.92-7.74-4.2-6.84-.29-13.81-1-20.56-1.63-8.89-.87-18-1.75-26.8-1.75a98.78,98.78,0,0,0-15.84,1.16,55.06,55.06,0,0,1-8.89.74c-16,0-28.65-7.25-40.9-14.25A160.62,160.62,0,0,0,779.15,888c-6.08-2.54-12.1-5.39-17.92-8.14l-6.7-3.15a6.89,6.89,0,0,1-3-2.28,2.27,2.27,0,0,1-.22-2,4.68,4.68,0,0,1,2.34-2.75c3.09-1.22,6.27-2.74,9.35-4.21,7.6-3.63,15.46-7.38,23.47-7.45h.18c7.21,0,14.28,3.78,21.11,7.44,3,1.61,6.08,3.25,9.06,4.52,10.66,4.53,21.92,5.14,31.52,5.14,3.26,0,6.57-.07,9.77-.15,3-.06,6.5-.14,9.85-.14,1,0,2,0,2.94,0a7.93,7.93,0,0,0,1-1l0,0c-.72-.65-1.8-1.63-2.33-1.66-4.54-.31-9.17-.43-13.64-.56-5.82-.15-11.82-.32-17.72-.87-12.2-1.14-23.18-6.38-33.8-11.44l-1.32-.64a3.22,3.22,0,0,1-1.56-2,2.78,2.78,0,0,1,.12-2.31,4,4,0,0,1,3.2-2c4-.12,8-.26,12-.41,9.07-.34,18.44-.68,27.71-.68q3.29,0,6.57.06a24.94,24.94,0,0,1,5.45.92,20.18,20.18,0,0,0,4.69.79,6.21,6.21,0,0,0,4.29-1.6c1-.82,1.17-1.34,1.17-1.46a3.29,3.29,0,0,0-2-1,162.1,162.1,0,0,0-31.33-3A193.83,193.83,0,0,0,793,850.44c-14.18,3-27.18,8.93-39.76,14.68l-.14.06c-3.26,1.49-6.64,3-10,4.51a9,9,0,0,1-3.64.71c-3.78,0-8.15-1.83-12.37-3.6-1.88-.78-3.65-1.53-5.31-2.09-5.16-1.74-10.3-3.63-15.27-5.45-5.75-2.12-11.66-4.29-17.52-6.21-1.64-.53-3.37-1.3-3.85-2.95s.67-3.2,1.72-4.48l3.08-3.76c5.4-6.56,11-13.36,16.3-20.19a7.54,7.54,0,0,1,6.36-3.16,21.26,21.26,0,0,1,2.93.27c.61.09,1.22.18,1.83.22,2,.16,4.15.24,6.25.24,20.4,0,39.67-7.44,58.31-14.64l1.36-.53c2.37-.91,3.65-1.63,3.81-2.13,0,0,0-.15-.23-.48a2.56,2.56,0,0,0-2.38-1,17.79,17.79,0,0,0-5.35,1.24c-18.66,6.5-37,12.4-56.73,13.22H722c-.67,0-1.32-.07-1.9-.12l-.86-.07-4.59-.32,8.12-7.6c6.2-5.8,12.26-11.48,18.29-17.16l.5-.47c.6-.55,1.84-1.67,1.84-2.14,0,0-.08-.24-.43-.57a1.55,1.55,0,0,0-1.13-.48c-.62,0-1.75.32-3.63,1.84l-2,1.62c-15.75,12.76-32,26-45.4,41.68a46,46,0,0,0-4.41,6.78c-2.5,4.4-4.87,8.55-8.89,10.58a14.88,14.88,0,0,1-6.74,1.37,56.7,56.7,0,0,1-9.45-1.12c-1.82-.32-3.71-.65-5.44-.84-2.45-.28-4.92-.63-7.3-1h-.11a113.28,113.28,0,0,0-15.74-1.51,44.12,44.12,0,0,0-6.35.43l-2.24.32,0-2.26c-.44-25.94,9.35-48.74,29.09-67.79,11.16-10.76,30.57-17.44,50.67-17.44a74,74,0,0,1,28.07,5.12,65.15,65.15,0,0,0,25.2,4.87,79.28,79.28,0,0,0,12.15-1,91.71,91.71,0,0,1,14-1.09,83.81,83.81,0,0,1,39,9.67c16.88,8.76,26.42,23.57,35.64,37.88,2.25,3.5,4.58,7.11,7,10.59a82.32,82.32,0,0,0,26.47,24.76c24.55,14.4,49.71,34.4,50.18,73.64.19,15.82,2.72,32,5.17,47.56.82,5.18,1.66,10.54,2.41,15.85a57.45,57.45,0,0,0,3,10.79c.67,1.91,1.35,3.83,1.92,5.75a8.94,8.94,0,0,1,.26,2.7c0,.29,0,.58,0,.86l.14,2.86Z"/><path class="cls-5" d="M687.61,438.46a102.2,102.2,0,0,1-27.75-4.19l-.51-.15c-1.44-.38-3.07-.82-3.66-2.48s.4-3.35,1.44-4.79c12-16.56,29.06-26.6,50.74-29.84H708c1.37-.08,2.69-.12,3.92-.12,4.44,0,18,0,20.5,12.72,2,10.11-3.59,18-16.6,23.33A72.63,72.63,0,0,1,687.61,438.46Z"/><path class="cls-4" d="M568.83,1323.5c3.25-66.56-.9-127.66-5.39-178.64l-.35-3.91,3.37,2c3.11,1.87,6.3,3.67,9.4,5.41l.11.06c7.6,4.28,14.78,8.32,21.4,13.49,4.65,3.63,5.24,9.39,5.76,14.47a32.11,32.11,0,0,0,1.56,8.25c.81,2,1.6,4.1,2.4,6.15,4.85,12.61,9.87,25.64,19.43,35.82a14.06,14.06,0,0,1,1,1.21,7.34,7.34,0,0,0,1.15,1.35,2.41,2.41,0,0,0,.43-.32c1.59-1.42,0-3.74-.54-4.42-8.28-10.54-12.66-22.89-16.89-34.84-1.4-3.95-2.84-8-4.38-11.88a10.71,10.71,0,0,1-.6-3c0-.38-.07-.71-.13-1l-.59-3.77,3.44,1.66,1.1.49a12.79,12.79,0,0,1,2.89,1.52l7.73,5.84.09.07c8.75,6.6,17.8,13.43,26.42,20.55a2.8,2.8,0,0,0,1.57.82c.46,0,1.05-.66,1.57-1.24l.13-.15c1.07-1.19-.34-2.7-1-3.29-2.48-2.23-5-4.57-7.2-6.63-4.67-4.35-9.49-8.84-14.47-12.91-22.08-18.06-41.68-30.92-61.67-40.48-7.63-3.64-6.84-11.1-6.2-17.09a32,32,0,0,0,.27-6.5c-1.61-14.75-2.21-29.82-2.8-44.4V1068c-.21-5.37-.44-10.93-.71-16.39-.11-2.17-.11-4.5,0-7.12s.27-5.28.44-7.86l.37-6.19,2.62,1.12c1.43.62,2.93,1.21,4.37,1.78a76.3,76.3,0,0,1,9.86,4.42q3.1,1.77,6.22,3.53c11.95,6.78,24.3,13.78,36,21.47,6,4,7.62,10.62,9.07,16.51a47.63,47.63,0,0,0,2.48,8.09c9.93,22.26,21.77,41.14,36.19,57.72a9.83,9.83,0,0,1,1.5,2.77c.1.26.28.7.42,1a7.48,7.48,0,0,1,2.38,1.48,7.93,7.93,0,0,0,1,.73,2.32,2.32,0,0,0,.32-.3c1.46-1.59.71-3-1.39-5.49l-.43-.52c-16.65-20.16-27.72-43.29-38.42-65.66a6.4,6.4,0,0,1-.53-2.58c0-.26,0-.48-.06-.7l-.41-3.11,3,.93c.26.08.53.14.8.2a7.43,7.43,0,0,1,2.71,1c19.81,13.7,37.51,29.61,53.93,44.72,1.59,1.46,2.54,1.68,3,1.68a1.08,1.08,0,0,0,.55-.15c.35-.2.42-.38.45-.53a4,4,0,0,0-.85-2.71c-4.62-7.18-11.31-12.67-17.78-18-2.95-2.42-6-4.91-8.85-7.58-22-20.45-47.61-36.36-67.5-47.93-2.25-1.32-4.53-2.71-6.73-4l-.11-.06c-9.05-5.52-18.4-11.23-29.07-13.52-3.17-.69-7-3.14-7.54-10.9-.25-4-.46-8-.67-12v-.27c-.83-15.73-1.68-32-5.13-47.66-.46-2.07-.84-4.41.45-6a4.75,4.75,0,0,1,3.9-1.49,26.33,26.33,0,0,1,3.61.33l.32.05c10,1.42,20.29,2.89,30.14,3.54,13.44.9,17.76,9.58,21.58,17.23.39.79.79,1.58,1.19,2.36,4.08,7.91,31.2,29.26,46.64,35.21l-3.81-3.23c-7.26-6.15-14.05-11.92-21.28-17.11a76.83,76.83,0,0,1-22-24.9,3.42,3.42,0,0,1-.32-3.55,3,3,0,0,1,2.79-1.4,9.57,9.57,0,0,1,2.36.38l.93.27c16.81,4.82,34.18,9.81,50.54,17.09l1,.5a8,8,0,0,0,2.82,1c.21,0,.44,0,.78-.69a2.8,2.8,0,0,0,.28-2.22c-.35-.93-1.47-1.83-3.15-2.54-24.69-10.44-51.45-20.55-80-23.87a42.55,42.55,0,0,1-7.47-1.82c-1.21-.37-2.43-.74-3.72-1.09l-5.27-1.41,17.86-8.41c11.12-5.24,23.72-11.18,35.77-16.79a20.48,20.48,0,0,1,2.49-.91c3.39-1.07,3.29-1.42,3.08-2.12-.3-1-1-2.19-3.39-2.19a10.12,10.12,0,0,0-4.2,1c-6.7,3.35-13.65,6.42-20.38,9.39-12.55,5.53-25.49,11.24-37.21,19a17.82,17.82,0,0,1-9.29,2.76c-3.35,0-11.23-1.28-12.06-13.14a43.18,43.18,0,0,0-2.24-9.56c-2.34-7.46-5-15.92,2.36-23.66,16-16.83,35.36-25.18,59.12-25.51h1.22a68.83,68.83,0,0,1,39.06,11.73c5.88,3.83,10,10.92,10.76,18.5,2.72,27.62,21.14,43.83,43.13,60.69,18.55,14.24,29.59,31,33.73,51.34,3,15-1.09,27.29-5.47,40.3-.78,2.32-1.54,4.57-2.26,6.85-4.4,13.86-4,28.32,1,43,5.65,16.29,2.92,33-8.33,51.1-10.63,17.06-24.35,30.7-37.59,42.9-8.64,8-11.35,18.71-13.58,30-3,15.38-14,23.85-24.53,32l-3,2.33c-5.26,4.14-10.85,8-16.26,11.76-7.89,5.47-16,11.12-23.16,17.6-6.28,5.71-11.54,13-17.11,20.69-2.74,3.79-5.56,7.68-8.7,11.71l-3.89,5Z"/><path class="cls-5" d="M659.56,532.26A50.68,50.68,0,0,1,641,529a31.8,31.8,0,0,0-3.31-1c-2.58-.68-5.5-1.45-7.92-3.62l-1.49-1.35,1.35-1.49c1-1.14,2.06-2.41,3.05-3.64,2.42-3,4.88-6.07,8.11-8.17a196.13,196.13,0,0,1,18-9.94c2.41-1.23,4.88-2.48,7.28-3.76a37.27,37.27,0,0,1,17.3-3.83c13.17,0,24.89,5.21,28.51,12.66a14.85,14.85,0,0,1,1,3.58c.08.43.16.81.25,1.16l.1.4-.06.41c-1.7,10.84-8.87,17.46-19.66,18.19-4.72.31-9.55,1-14.22,1.71A136.07,136.07,0,0,1,659.56,532.26Z"/><path class="cls-4" d="M711.47,966.56c-3.81-3.06-7.73-6.07-11.52-9l-.12-.09c-9.62-7.38-18.7-14.34-26.89-22.62-6.14-6.2-9.14-16.09-11.46-24.88-.54-2-1-4.09-1.4-6.08-.91-4.26-1.84-8.68-3.78-12.63a12.92,12.92,0,0,1-.77-2.17c-.1-.32-.17-.57-.25-.81l-.71-2.14,2.21-.45a6.19,6.19,0,0,0,.67-.19,6.7,6.7,0,0,1,2.09-.42,3.54,3.54,0,0,1,.93.12c3.65,1,7.41,1.89,11,2.78,9.34,2.29,19,4.66,28.16,8.08,9.77,3.65,8.75,12.83,8,19.54-.19,1.79-.38,3.46-.38,4.91,0,5.3,1.15,10.53,2.27,15.58,1.23,5.58,2.51,11.33,2.32,17.34a21.89,21.89,0,0,0,1.53,7c.41,1.24.87,2.63,1.25,4.07l1.51,5.84Z"/><path class="cls-5" d="M645.19,353.45a3.8,3.8,0,0,1-3-1.3c-.89-1.09-1.13-2.66-.73-4.83a20.36,20.36,0,0,1,2.31-6.23c12.44-21.31,29-33.23,48-34.47h.18c1.39.08,2.73.11,4.2.11,1.23,0,2.37,0,3.43,0s1.89,0,2.7,0c3,0,5.39.25,7.34,1.48,3.49,2.19,5.36,4.83,5.55,7.83.24,3.69-2.17,7.66-7.17,11.78-17.83,14.7-37.68,23.11-59,25a9.23,9.23,0,0,0-1,.23A11.31,11.31,0,0,1,645.19,353.45Z"/><path class="cls-5" d="M499.88,757.58c-3.68,0-4.26-3.63-4.44-4.82a88.27,88.27,0,0,1-.38-11.52v-.12l.14-1.88c1.06-14,2.5-33.15,13.64-50a2.77,2.77,0,0,0,.33-2.74,3,3,0,0,0-2.58-1.43c-24.36-1.83-41-17.47-54.74-32-4.93-5.2-6.67-9.14-5.5-12.4,1.62-4.51,8.28-5.35,13.15-5.95a22.06,22.06,0,0,0,3.95-.69c13.53-6,31.67-13,52.05-13,2.28,0,4.59.08,6.86.25h.14c2,0,2.88-5.91,3.42-9.82a54.88,54.88,0,0,1,1-5.77c6.22-24.48,13.27-42.52,22.87-58.5a4.38,4.38,0,0,1,3.86-2.44c2.29,0,4.16,1.83,5.4,3,.21.2.38.37.51.48,12.12,10.3,22.45,23.43,31.61,40.16a54,54,0,0,1,5.48,15.5c1,4.88,2.86,4.88,3.49,4.88.89,0,2.48-.37,5-2.1,17.87-12.39,38.84-16.25,57.09-18.9a83,83,0,0,1,11.94-.88,56.4,56.4,0,0,1,19.29,3,7.06,7.06,0,0,1,4.32,3.93c1.7,4.17-1,9.7-2.88,13.73-.32.67-.58,1.21-.81,1.71a141.48,141.48,0,0,1-47.19,57.5c-.85.61-1.87,1.52-1.89,2.37s.89,2,2.57,3.4c21.81,17.44,33.71,35.9,37.43,58.08a6.65,6.65,0,0,0,.74,1.56c.7,1.23,1.49,2.64.91,4.16-.29.72.68,2.34,1.39,3.53,1.15,1.93,2.46,4.13,1.49,6.3s-3.3,2.72-5,3a14.41,14.41,0,0,1-2.74.24,53.86,53.86,0,0,1-10.25-1.47l-2.49-.51a164.26,164.26,0,0,1-54.84-21.12c-2.48-1.52-5-3-7.54-4.44-8.07-4.67-16.41-9.48-23.29-16.45a4.09,4.09,0,0,0-2.89-1.31,3.87,3.87,0,0,0-3.32,2.08c-12.88,22.84-33.75,38.08-63.82,46.59a43.83,43.83,0,0,0-5.06,1.9l-1,.4c-3.38,1.42-5.61,2.36-7.42,2.36ZM534,632.94a3.08,3.08,0,0,0-1,.2c-.29.11-.36.22-.41.33-.18.4-.34,1.45.65,4.14a215.3,215.3,0,0,0,10.26,22.65,10.45,10.45,0,0,0,2.39,2.37c1.92,1.58,4.1,3.37,4.29,6.09a6.87,6.87,0,0,1-2.17,5.14c-1.71,1.86-4.27,2.67-6.54,3.38a17.89,17.89,0,0,0-4.16,1.68c-3.55,2.26-4.6,3.83-3.88,5.78a1.6,1.6,0,0,0,1.59,1.18,3.2,3.2,0,0,0,2-.8c7.07-5.81,15.72-7.92,24-9.59,2.8-.56,5.6-1.17,8.4-1.78,10.83-2.34,22-4.77,33.43-4.77A69.3,69.3,0,0,1,619,670.79a21.13,21.13,0,0,0,4.59.58c3.55,0,5.65-1.22,6.42-3.73,0-.07.07-.23-.19-.6-.75-1.07-3.16-2.29-5.75-2.41-5.71-.25-11.5-.72-17.1-1.18l-6.52-.53h-.33l-.92,0a4.13,4.13,0,0,1-3.21-1.16,4,4,0,0,1-.88-3.17,71.22,71.22,0,0,0,0-9.58c-.24-5.69-.49-11.56,1.58-17.51,1.16-3.35,2.17-7.06-.63-8.6a1.87,1.87,0,0,0-.82-.28c-.71,0-1.57,2-2.08,3.21-.12.25-.22.51-.33.75-2,4.57-2,9.62-1.89,13.3,0,1.34,0,2.6,0,3.67,0,2.43,0,4.51,0,6.35,0,3.57,0,6.14-.06,8.79-.3,6.75-5.07,6.75-6.63,6.75-.63,0-1.28,0-1.94-.08s-1.17-.08-1.74-.08c-1.55,0-2.05.32-2.36.67a2.19,2.19,0,0,1-1.63.72c-2.65,0-5.15-5.7-5.38-8.55l-.18-2.18a155.88,155.88,0,0,0-2.55-20.28c-1.34-6.12-3-12.31-4.59-18.28s-3.28-12.28-4.62-18.45a29.57,29.57,0,0,1-.46-3.27c-.47-4.46-1-4.91-2.08-4.91a4.56,4.56,0,0,0-.85.09c-2.32.45-1.25,6.43-.74,9.3,1.89,10.39,4,20.89,6,31l0,.14c1.87,9.45,3.81,19.23,5.58,28.87.06.11.48.63.74.95.93,1.14,2.21,2.7,1.62,4.56s-2.84,2.59-3.58,2.8a15.4,15.4,0,0,1-4.35.71,9.73,9.73,0,0,1-8.16-4.44c-7.63-10.66-12.47-19.42-15.7-28.41C536.53,634.19,535.31,632.94,534,632.94Z"/><path class="cls-5" d="M581.23,338.7a6.56,6.56,0,0,1-4-1.7c-6.39-5.07-10.38-11.84-14.23-18.38-1.63-2.76-3.3-5.59-5.1-8.21-9.73-14.12-9.56-30.15-8.64-44.06.76-11.32,3.34-23.69,16.7-29.58a8.77,8.77,0,0,1,3.54-.84c3.92,0,5.44,3.42,6.56,5.92.24.56.48,1.09.74,1.59a117.85,117.85,0,0,1,10.82,31.9l0,.12v.12c.24,24.45-.16,42-2.87,59.18-.22,1.33-1.43,3.83-3.36,3.94h-.22Z"/><path class="cls-4" d="M560.5,1276.7a3.55,3.55,0,0,1-2.88-1.16,4.25,4.25,0,0,1-.58-3.67,5.22,5.22,0,0,0,.09-.77c-2.71-15.9-5.39-31.89-8-47.36l-3.8-22.7q-1.5-8.86-2.94-17.75c-2.33-14.16-4.73-28.76-7.39-43.06-2.89-15.64-6.1-31.5-9.21-46.85l-.09-.46c-1.3-6.44-2.61-12.87-3.89-19.31l-2.67-13.4c-2.62-13.18-5.33-26.81-8.08-40.31-1.4-6.88-2.93-13.87-4.4-20.62-.75-3.42-1.47-6.74-2.19-10.07l-.41-1.93.34-.07q-1-5.28-1.95-10.57l-.08-.41c-1.84-10.12-3.76-20.59-6.05-30.78a103.33,103.33,0,0,0-3.23-10.6c-1.78-5.15-3.62-10.47-4.16-16-.49-5,10.3-10.37,13-11.42a42,42,0,0,1,15.32-2.94,41.24,41.24,0,0,1,15.15,2.92c1.17.46,4.23,2.19,4.33,4.6.52,11.07,2.92,22.11,5.23,32.78,2.27,10.47,4.61,21.28,5.28,32.33,1.94,32.39,3.12,64.89,4.26,98.12.67,19.45,2.77,39.19,4.79,58.29,1.35,12.63,2.73,25.66,3.7,38.51,2.25,29.76,3.91,54.58,3.07,80.39a65.91,65.91,0,0,0,1,11.49c.31,2.1.62,4.24.82,6.37s-.21,4-1.22,5.06a4.16,4.16,0,0,1-3.16,1.32Z"/><path class="cls-4" d="M555.94,1319.62c-1.41,0-2.65-1-4.09-2.07-.41-.32-1.05-.82-1.54-1.13l-.73,1.59-2-1.54c-11.75-9.08-25.69-9.35-39.17-9.62-7.33-.15-14.92-.3-22.23-1.82-11.19-2.33-21.05-7.93-32-18.16-12.83-12-30.59-26.27-54.16-29.88-18.39-2.83-31.52-9.5-40.16-20.39-7.83-9.87-12.73-21.83-17.47-33.39l-.22-.55c-.67-1.62-1.33-3.24-2-4.85-6.66-16-18.55-28-31.19-40-10.77-10.19-23.35-24.19-25.08-42.08-1.95-20.12,1.6-40.57,10.54-60.78a177.71,177.71,0,0,0,12.73-43c.39-2.38.76-4.76,1.14-7.14l0-.28c3.34-21.3,6.79-43.32,23.25-60.61,15-15.72,31.89-31.27,54-38.52,19.37-6.37,35.09-9.33,49.47-9.33a91.21,91.21,0,0,1,26.2,3.67c15.66,4.64,25.77,17.65,27.76,35.7a30.4,30.4,0,0,0,1.67,6.33c.49,1.46,1,3,1.38,4.52a6.21,6.21,0,0,1-.86,5.53c-1.95,2.49-5.61,2.5-7.36,2.51h-.48c-6.28.36-11.78,3.27-17.1,6.07a73.14,73.14,0,0,1-10.33,4.79,12.86,12.86,0,0,1-4.33.72,25.23,25.23,0,0,1-7.61-1.52A22,22,0,0,0,438,963.1c-11.5-.19-23-.28-34.09-.28-11.66,0-23.27.1-34.5.31-4.17.07-8.55,1.72-12.78,3.32L355,967a5.81,5.81,0,0,0-.95,1.58l1.21.32A23.07,23.07,0,0,0,361,970a7.31,7.31,0,0,0,1.17-.09c14.5-2.41,29.28-2.74,43.09-2.74,2.88,0,5.76,0,8.63,0h.53c3,0,6.08,0,9.13,0,4.4,0,8,0,11.43-.11a6.22,6.22,0,0,0,.65-.1,9.24,9.24,0,0,1,1.66-.19,3.41,3.41,0,0,1,2.54,1,3.88,3.88,0,0,1,1,2.9c-.08,2.33-2.52,4.28-3.8,5a344.93,344.93,0,0,0-61.54,43.58c-1.95,1.71-3.94,3.41-5.93,5.12-10.91,9.33-22.12,18.92-29.47,31.53a13.16,13.16,0,0,1-5.22,4.54c-2.11,1.23-3.77,2.21-4.47,4.43-.19.6-.41,1.16-.62,1.71a14.29,14.29,0,0,0-.69,2.07l.13,0a10.29,10.29,0,0,0,4.09-1.79c6-5.81,12-11.83,17.86-17.66l.17-.17c4.95-5,10.08-10.08,15.18-15.06a25.74,25.74,0,0,1,5.65-3.81c1.05-.58,2.14-1.18,3.3-1.9l5.3-3.28-6.56,15.7c-4.64,11.14-9.13,21.89-13.64,32.63-.43,1-.91,2-1.38,3a33.16,33.16,0,0,0-2.09,5,6.24,6.24,0,0,0,.41,1.11l.18,0a7.59,7.59,0,0,0,2.34-1.05c.94-1.67,1.9-3.35,2.85-5,4.38-7.68,8.88-15.6,12.21-23.77,1-2.48,2-5,2.92-7.45,6.33-16.35,12.26-31.72,29.21-42.66,22.29-14.39,46.25-29.47,72.57-41.9a19.43,19.43,0,0,1,8-2.25c6.84,0,8,6.94,9,12.51,1.11,6.45,2.1,13,3.06,19.29,2.07,13.61,4.2,27.65,7.51,41.11,3.1,12.64-4.9,15.55-10.75,17.68a20.28,20.28,0,0,0-5.92,2.86c-6,5.13-13.05,9.09-19.85,12.92-4.47,2.52-9.09,5.12-13.33,8-19,13-35.26,27.21-48.2,42.26-9.68,11.25-20.64,24-25.58,39.74-.11.33-.24.68-.37,1a5.06,5.06,0,0,0-.4,1.35h0a1.86,1.86,0,0,0,.26.2,2.6,2.6,0,0,0,1.41.45,2.22,2.22,0,0,0,1.91-1.14c11.65-19.52,27.19-36.18,42.22-52.29l.46-.49,4.6-5a29,29,0,0,1,4.61-3.77c.77-.54,1.5-1.06,2.22-1.62l3.71-2.88-.49,4.67c-1.92,18.34-8,35.41-13.85,51.93l-.08.21c-1.08,3.06-2.17,6.12-3.23,9.18a168.37,168.37,0,0,1-7.5,17.39c-1.12,2.36-2.4,5-3.56,7.61-1.08,2.4-.89,3.12-.84,3.24l.14.07a3.81,3.81,0,0,0,1.25.23c2.71,0,4.61-3.46,5-4.15,1.1-2.16,2.22-4.31,3.34-6.46,5-9.64,10.19-19.59,13.63-29.87,6-18,12.25-36.58,13.73-56.54.57-7.45,6.74-10.71,12.18-13.58a42.44,42.44,0,0,0,5.89-3.52c8-6.24,16.9-11.55,25.48-16.7l.26-.15c2.59-1.55,5.18-3.11,7.74-4.68a8.68,8.68,0,0,1,4.45-1.57c4.19,0,4.61,4.67,4.81,6.91.05.49.09,1,.15,1.3,1.9,9.71,3.64,19.51,5.33,29,2.77,15.56,5.63,31.65,9.16,47.31,2.36,10.44-3.92,14.53-9,17.81a25.14,25.14,0,0,0-4.93,3.79q-3,3.32-5.95,6.61c-20,22.23-40.73,45.17-53.86,73a8.84,8.84,0,0,0-.52,1.76,14.31,14.31,0,0,1-.7,2.35c-.38.86-.82,1.76-1.3,2.71-1.26,2.52-2.94,5.88-2.39,7.32.09.21.26.48.91.74a3.23,3.23,0,0,0,1.13.24c1.86,0,3.28-3.25,4.53-6.12a31.74,31.74,0,0,1,2.13-4.33c6.19-9.82,12.09-19.55,18.93-30.81L485,1193l.64-1,3.24,1.18-.19,1.22a226.89,226.89,0,0,0-2.2,27.83c-.41,11-.79,21.39-3.48,31.67l-.07.28c-1.06,4-.46,4.49.43,4.77a2.14,2.14,0,0,0,.62.11c1.31,0,2.27-2.33,2.88-4.08,3.88-11.07,5.35-23.93,4.5-39.32-.9-16.51.61-35.36,18.58-50,4.17-3.39,7.85-7.73,11.4-11.93,1.67-2,3.4-4,5.21-6l2.68-2.94.76,3.91c7.41,38.08,12.85,70.11,17.1,100.8,1.52,11,3.77,22,5.94,32.72,2,9.89,4.07,20.1,5.58,30.24.5,3.38.32,5.2-.62,6.29A2.7,2.7,0,0,1,555.94,1319.62Z"/><path class="cls-5" d="M546.32,415.08a8.16,8.16,0,0,1-2-.26c-32.41-8.48-53.79-20.89-69.32-40.23-4.87-6.07-7.26-16.34-5.55-23.9.9-4,2.82-6.79,5.54-8.11a14.3,14.3,0,0,1,5.39-1.33,3.32,3.32,0,0,1,.65.07c.84,0,1.68-.06,2.49-.06,16.76,0,25.11,9,33.19,17.67l1.44,1.54c7.27,7.78,13.48,16.58,19.72,25.67A195.36,195.36,0,0,1,550.48,408a4.93,4.93,0,0,1,.11,4.94A4.83,4.83,0,0,1,546.32,415.08Z"/><path class="cls-5" d="M538.87,511.36c-.81,0-1.72,0-2.7-.1s-2.23.05-3.37.05c-24,0-43.64-7.8-58.41-23.2-7.58-7.89-12.71-20.24-4.39-31.24a11.8,11.8,0,0,1,9.86-4.83c4.3,0,8.81,1.75,12.79,3.3l2.08.8c22.58,8.45,37.32,25.9,49.88,43.5,1.68,2.34,3.74,5.79,2.28,8.62S541.63,511.36,538.87,511.36Z"/><path class="cls-5" d="M510.21,848.94c-25.3,0-51-18.13-58.46-41.29-1.71-5.28-3-12,2-17.47,3.33-3.58,7-5.32,11.16-5.32,4.81,0,9.3,2.3,13.64,4.53l1.08.55c19.13,9.73,30.19,26.9,40.88,43.51a2.46,2.46,0,0,1,.34.91c2.56,5.52,4,9.08,2.33,11.67S518.06,848.94,510.21,848.94Z"/><path class="cls-4" d="M155.37,993.73a42.73,42.73,0,0,1-5.78-.4c-9.8-1.36-19.51-3.83-28.91-6.21-13.91-3.53-28.28-7.18-42.87-7.18-2.28,0-4.56.09-6.76.26-2.56.21-4.68,1.53-4.81,3,0,.09,0,.17,0,.25v2H62V951.89l.43-.55c1-1.3,2-2.5,2.94-3.67,30.35-36.89,67.26-61.25,109.72-72.4,23.73-6.24,48.31-14.45,67.27-32.11,15.07-14,32.56-21.16,52-21.16A95.2,95.2,0,0,1,319,825.45c34.47,9.27,60.14,30.15,76.3,62.06l.38.73c.81,1.55,1.49,2.86.87,4.33s-2.28,2.09-3.92,2.58c-25.06,7.46-47.52,23-68.66,47.41a7.59,7.59,0,0,1-2.11,1.56c-.26.14-.47.26-.67.39L319,945.9l-.84-2.41a5.67,5.67,0,0,0-.32-.72,4.9,4.9,0,0,1-.67-3.34c1.84-7.58,3.73-15.4,6-23.17,4.78-16.51,7.36-33.78,9.85-50.48l.09-.62c.11-.7.29-1.46.43-2.07.28-1.16.69-2.89.35-3.39a1.76,1.76,0,0,0-1-.38l-.29,0c-1.89,0-2.86,3.64-3.27,5.81-.65,3.35-1.21,6.8-1.76,10.14-.8,4.88-1.62,9.9-2.72,14.81-2.08,9.43-4.49,18.92-6.82,28.11l-.14.57c-.68,2.69-1.37,5.38-2,8.08-.32,1.38-1.95,2-3,2a2.69,2.69,0,0,1-.57-.06c-.85-.17-3.14-1-3-2.95.19-2.8-1.35-4.81-3.14-7.13a26.69,26.69,0,0,1-2.66-3.92A142.5,142.5,0,0,0,255.93,862a6,6,0,0,0-3-1.32.69.69,0,0,0-.61.33,1,1,0,0,0-.26.8,4.44,4.44,0,0,0,2,2.39c11.22,7.73,19.1,18.07,27.45,29,4.4,5.76,9,11.73,14.11,17.42l5,5.55-32.49-10.5-33.67-10.88c-1-.33-2.08-.76-3.2-1.22-2.13-.89-4.3-1.79-5.91-1.79a2,2,0,0,0-2.11,1.49c-.43,1-.23,1.41-.16,1.54.59,1.19,3.6,1.95,5.8,2.51,1,.24,2,.49,2.83.79,5.33,1.84,10.58,4,15.66,6.14,8.47,3.53,17.22,7.18,26.44,9.23,1.5.33,3,.64,4.56,1,12.34,2.48,26.27,5.29,31.64,22.3.23.74.47,1.47.7,2.17l.06.19c1.76,5.36,3.14,9.6.87,12.74-1.72,2.37-5.1,3.43-10.94,3.43l-1.34,0h-.43c-3.65,0-7.53,1.17-11.29,2.3A51,51,0,0,1,276.62,960a29.36,29.36,0,0,0-6.28,1.39A28.66,28.66,0,0,1,262.2,963a12.46,12.46,0,0,1-6.66-1.83c-6.62-4-13.28-8.16-19.71-12.21-10.49-6.6-21.25-13.37-32.14-19.44-12.56-7-26.06-12.93-39.12-18.64l-4.09-1.8a8.64,8.64,0,0,0-3.28-.79,3.27,3.27,0,0,0-2.87,1.43,1.32,1.32,0,0,0-.34.74c0,.1.23.51,1.72,1.25,2.81,1.39,5.78,2.64,8.65,3.84s5.72,2.4,8.5,3.76l3.43,1.66c8.07,3.87,16.41,7.88,26.16,16.47l2.75,2.42a13.63,13.63,0,0,1,2.67-.29,8.63,8.63,0,0,1,3.1.54c9.15,3.5,17.72,8.73,26,13.78,3,1.83,6.07,3.7,9.11,5.46a6.7,6.7,0,0,1,2.31,2.66c.2.33.37.62.56.89l1.74,2.4-2.88.71-1.11.26a21.57,21.57,0,0,0-2.28.58c-5.19,1.7-10.46,3.5-15.55,5.25l-.16,0c-11.61,4-23.61,8.08-35.65,11.39-4,1.1-8,2.59-11.82,4C173.14,990.6,164.78,993.73,155.37,993.73Zm-21.56-50.9a266.91,266.91,0,0,0,35.6,2.5c7.3,0,14.52-.36,21.44-1.05a32.6,32.6,0,0,0,7.79-2.3c1-.36,1.88-.72,2.8-1H172.13c-12.95,0-25.14,0-37.33,0-.31,0-.61,0-.91,0s-.52,0-.76,0H133A5.16,5.16,0,0,0,133.81,942.83Z"/><path class="cls-5" d="M196.38,861a3.24,3.24,0,0,1-2.7-1.34,5.3,5.3,0,0,1-.34-4.6l.58-1.74c3.31-9.84,6.73-20,10.48-30,.59-1.56.38-2,.38-2h0s-.27-.28-1.52-.38c-25.3-1.94-47.06-13.4-63.2-23.17a20.48,20.48,0,0,0-2.2-1.09l-.12-.06c-.41-.18-.81-.36-1.2-.55l-2.66-1.3,2.2-2c24.57-22.07,47.29-36.61,71.5-45.78,4.42-1.67,5-5.35,5.72-11.21a30.89,30.89,0,0,1,1.67-8.08,449.82,449.82,0,0,1,33.13-65c.57-.93,1.74-2.85,3.78-2.85,1.46,0,2.62,1,3.85,2,10.92,9.23,19.06,20.81,26.93,32,3.36,4.78,6.82,9.71,10.43,14.35a38.7,38.7,0,0,1,4.78,9.17,50,50,0,0,0,3,6.4c1.19,2,2.26,3,3.17,3,1.08,0,2.65-1.16,4.31-2.39.74-.54,1.57-1.15,2.46-1.74a131.24,131.24,0,0,1,17-9c4.4-2,8.93-4.16,13.13-6.59,7.72-4.47,16.14-6.38,24.28-8.22,4.22-1,8.59-1.94,12.74-3.28a6.51,6.51,0,0,1,1.93-.33,3.39,3.39,0,0,1,2.8,1.29c1.36,1.77.65,4.45.19,6.23-.07.24-.12.44-.15.59-3.47,16.89-7.66,34.73-17.19,50.76a142.56,142.56,0,0,1-20.61,26.61c-2.89,3-3,5.45-.28,8.24,15.81,16.41,25.13,37.09,35,59l.5,1.12-2.77,2-.9-.82c-21.56-19.71-40.1-30.32-60.09-34.42a89.39,89.39,0,0,0-17.93-1.8,92.74,92.74,0,0,0-30.31,5.1c-11.72,4-21.43,11.72-30.81,19.14-6.69,5.29-13.6,10.75-21.27,15a108.8,108.8,0,0,1-16.78,6.92l-1.23.43A5.06,5.06,0,0,1,196.38,861Zm28.69-104a5.13,5.13,0,0,0-.52,0c-1.07.15-1.37.61-1.46.76a3,3,0,0,0-.14,2.4c.7,2.53,1.33,5.1,1.94,7.58,1.69,6.88,3.43,14,6.73,19.94,3.08,5.56,3.88,9.24,2.66,12.31-1.13,2.83-3.95,4.88-8.89,6.46-3.8,1.2-4.38,1.91-4.17,2.89.46,2.06,2.71,2.12,3,2.12l.23,0,.16,0c1.55-.16,2.79-.21,3.78-.26a11,11,0,0,0,3.22-.39c21.33-8.62,44.21-17.24,68.69-19.77a15.71,15.71,0,0,0,3.47-.92c.82-.27,1.63-.54,2.48-.76s3.2-1,3-2.43c-.09-.73-.74-1.36-1.1-1.36a24.76,24.76,0,0,1-4,.35c-3.08,0-5.35-.77-6.94-2.37-2.51-2.54-2.48-6.44-2.45-9.87a22.58,22.58,0,0,0-.25-4.68,47.4,47.4,0,0,1-.77-7.82,37.89,37.89,0,0,0-.85-7.84c-.21-.82-.35-1.67-.49-2.56-.59-3.57-1.06-5.6-3.92-5.9h0a1,1,0,0,0-.64.36,3.58,3.58,0,0,0-.84,2.5c.22,3.45.14,6.92.06,10.27-.15,6.16-.3,12.49,1.46,18.51l.12.42c.63,2.08,1.57,5.23.19,7.56a4.62,4.62,0,0,1-3.13,2.13,22.78,22.78,0,0,0-3.94,1.42c-2.26,1-4.58,1.93-6.77,1.93a5.48,5.48,0,0,1-5-2.87c-3.17-5.5-4.47-12-5.72-18.29-.35-1.76-.71-3.55-1.1-5.27-1.73-7.57-3.31-15.26-4.85-22.7-.92-4.46-1.84-8.93-2.8-13.38-.18-.86-.72-3.39-1.3-4a5.17,5.17,0,0,0-3.33,5.62c.48,3.35.79,6.75,1.1,10,.63,6.82,1.28,13.86,3.4,20.16a102.62,102.62,0,0,1,3.49,15A106.52,106.52,0,0,0,262,788a4.52,4.52,0,0,1-.25,3.62c-1.26,2.32-4.45,3.18-7.83,4.1-2.42.65-4.93,1.33-6.36,2.44a2.28,2.28,0,0,1-1.46.49c-1.36,0-3.94-1.21-4.59-2.81-5.2-12.75-9.87-24.25-14.15-35.89C226.37,757.37,226,757,225.07,757Z"/><path class="cls-5" d="M307.05,652.93a17.27,17.27,0,0,1-2.38-.21c-.53-.07-1-.13-1.42-.15l-2.76-.17,1-2.57c.16-.38.29-.78.43-1.17a18,18,0,0,1,1.24-2.92c19.67-34.37,38.26-45.59,52.26-51.53a21.63,21.63,0,0,1,8.39-1.84c8.3,0,14,6,14.08,15v.15l0,.15c-2.36,12.66-11.1,19.23-20.36,26.17l-1.15.87c-13.78,10.37-29.83,14-45.36,17.51l-2.28.52A7.4,7.4,0,0,1,307.05,652.93Z"/><path class="cls-4" d="M62,1051.24l4.71-2.7c6-3.47,12.26-7,18.16-10.89,19.43-12.61,40.26-22.15,61.68-31.63,12.18-5.38,25.17-9.34,37.74-13.16,6-1.83,12.29-3.74,18.37-5.78,5-1.69,10.13-3.53,15.05-5.31,9.13-3.3,18.58-6.72,28.12-9.33,11.36-3.11,23.07-5.53,34.39-7.87,5.38-1.12,10.94-2.27,16.46-3.49a41.18,41.18,0,0,0,4.63-1.39l.8-.27.12,0,.12,0a24.2,24.2,0,0,1,3-.22c1.55,0,3.74.2,4.87,1.93s.46,4-.37,5.92a36.31,36.31,0,0,0-1.81,6c-.38,1.6-.76,3.21-1.29,4.79-.17.49-.33,1-.48,1.5-1.28,4.12-2.85,9.19-10.1,9.7l-5.28.35c-12.9.84-26.23,1.71-39.11,3.8a375.92,375.92,0,0,0-44.64,10.33c-19.78,5.79-41,12.6-66.87,21.45-14.07,4.82-27.81,11.23-41.1,17.43-4,1.86-8,3.71-12,5.53-2.75,1.25-5.56,2.48-8.28,3.66-4.69,2-9.49,4.13-14.07,6.42L62,1059.4Z"/><path class="cls-4" d="M272.06,1163.79a26.12,26.12,0,0,1-4.08-.31c-19.41-3.08-38.07-9.68-58.73-20.76a87.6,87.6,0,0,0-41.76-10.62,91.55,91.55,0,0,0-16.17,1.46,98.88,98.88,0,0,1-17.38,1.57,95.84,95.84,0,0,1-46.7-12.35,187.49,187.49,0,0,1-24.47-16.39l-.77-.6V1064.5l1.08-.56c9.44-4.86,20-9.66,32.28-14.69,18.82-7.7,37.26-15.1,54.81-22,6.28-2.47,12.65-4.76,18.82-7,2.81-1,5.58-2,8.3-3l4.5-1.65-2,4.36c-1,2.12-1.83,4.31-2.66,6.41-2,5-3.81,9.65-6.89,13.68a51.54,51.54,0,0,0-5,9c-3,6.29-6.07,12.77-12.72,15.13-20.42,7.26-41.59,15.94-56.33,34.89-.2.25-.41.49-.62.73l-.36.4,0,0a4.55,4.55,0,0,0,.54.55,3.07,3.07,0,0,0,.52-.3c3.12-2.13,6.35-4.12,9.48-6,2.11-1.3,4.24-2.61,6.31-3.94,2.27-1.47,4.57-3.06,6.8-4.59l.09-.06c8.42-5.8,17.13-11.79,28.69-15.07l5.83-1.66-3.69,4.8c-2.23,2.9-4.4,5.69-6.51,8.4-5.4,7-10.46,13.47-15.26,20.09-.29.39-.64.82-1,1.28-2.17,2.63-2.06,3.08-1.74,3.35a2.32,2.32,0,0,0,1.56.58c1.43,0,3.14-1.09,4.48-2.84,3-3.94,6.17-7.87,9.23-11.68l.08-.1c6.36-7.93,12.94-16.13,18.54-24.73q1.75-2.68,3.53-5.37l.44-.65c5.44-8.25,11-16.75,15.85-25.59a41.59,41.59,0,0,0,2.75-7.19c2-6.49,4.34-13.8,12.9-16.25,13.36-3.85,26.58-7.27,40.58-10.9,5.93-1.54,11.92-3.09,18-4.69l3.57-.95-1.16,3.51c-.73,2.2-1.41,4.37-2.09,6.51-1.52,4.86-3,9.44-4.81,14-1.17,2.88-2.15,5.93-3.1,8.89-2.7,8.44-5.49,17.17-13.23,23.87-5.32,4.61-11.13,8.78-16.74,12.8-11.26,8.08-22.89,16.41-30.67,28.5a14.48,14.48,0,0,1-2.89,3c-.72.61-2.21,1.88-2.25,2.38h0a1.43,1.43,0,0,0,.36.47,1.7,1.7,0,0,0,1.25.64c1.48,0,3.67-2.27,5.12-3.77l.17-.17c.25-.26.5-.52.74-.75,10.26-10.27,22.39-22,36.41-31.57a9.06,9.06,0,0,1,2.86-1.17c.34-.09.67-.18,1-.29l3-1.07-.35,3.17a1.94,1.94,0,0,0,0,.34,4.43,4.43,0,0,1-.4,1.94q-2.85,5.53-5.74,11c-4.37,8.39-8.86,17-13,25.54a21.89,21.89,0,0,1-1.11,2c-1.9,3.16-2.4,4.52-.09,6.29a1.71,1.71,0,0,0,1,.44c.58,0,1.4-.79,2.09-2l1.31-2.3c5.47-9.57,11.13-19.46,15.94-29.53,1.7-3.58,3.44-7.15,5.17-10.72,8.36-17.2,17-35,22-53.9.33-1.25.57-2.61.82-4.05,1.11-6.27,2.63-14.85,14.22-15.15A108.38,108.38,0,0,0,290.86,993a22.19,22.19,0,0,1,4.27-.49c2.81,0,4.8.79,6.1,2.43,2.23,2.8,1.51,7,.41,11.79-.54,2.36-1.32,4.69-2.07,6.94a44.7,44.7,0,0,0-2.46,9.56c-1.07,11.07-5.28,21.13-9.35,30.87-3.52,8.43-7.17,17.14-8.66,26.33-2.33,14.47-2.82,27.23-1.48,39,1,9.24,6.79,17.61,12.36,25.7l.13.2,1.93,2.81c4.57,6.73,5.6,9.21,4.61,11.09a3.08,3.08,0,0,1-3,1.54h-.38l-1,0a41.52,41.52,0,0,0-9.37,1.44A47.67,47.67,0,0,1,272.06,1163.79Z"/><path class="cls-5" d="M252.67,584.57c-1.79,0-3.67-1.69-4.24-2.34-20.51-23.4-27.62-48.41-21.73-76.47,1.6-7.62,4.28-14.67,13.07-14.67a18.92,18.92,0,0,1,2.72.21c10.75,1.57,13.37,11.38,15.27,18.54l.06.22c.21.77.41,1.53.62,2.27,2.09,7.32,4.21,17.92,2.49,27v2.17c0,14.21,0,26.47-4.16,38.62-.79,2.33-1.76,3.68-3.06,4.24A2.73,2.73,0,0,1,252.67,584.57Z"/><path class="cls-5" d="M199.26,649.06a6.78,6.78,0,0,1-2-.37l-1-.32c-23-7.35-46.81-14.94-58-40.63-1.51-3.46-2.83-7-4-10.17-.5-1.37-1-2.63-1.42-3.79l-.17-.45.05-.48c.79-7.7,2.39-15.11,8.65-17.14a16.53,16.53,0,0,1,5.1-.81c6.62,0,12.51,4,16.91,7.44,17.23,13.6,25.36,32.69,33.22,51.15,1.4,3.29,2.85,6.69,4.34,10l.14.31c.62,1.36,1.26,2.77.42,4.08A2.59,2.59,0,0,1,199.26,649.06Z"/><path class="cls-4" d="M62,1011.47l1.48-.4c9.79-2.64,21.26-6.14,32.19-12.05,1.42-.77,2.91-1.73,4.21-2.58,4.17-2.69,8.47-5.47,14-5.47a17,17,0,0,1,3.31.33c4.62.92,9.36,1.75,14,2.55l7.05,1.25c.9.17,1.77.38,2.61.58L142,996l3.17.72-2.07,2.5c-.24.3-.47.64-.71,1a7.66,7.66,0,0,1-2.84,2.9c-2.85,1.39-5.78,2.69-8.61,4-4.27,1.9-8.63,3.83-12.7,6l-.91.49c-12,6.49-24.3,13.2-36,20.68-1.88,1.2-3.78,2.37-5.66,3.54-3.51,2.16-7.13,4.4-10.49,6.73L62,1046.68Z"/><path class="cls-4" d="M62,981.46h4.23v1.84c.35,0,.79-.08,1.19-.14a12.06,12.06,0,0,1,1.84-.19,4.45,4.45,0,0,1,.65,0c2.86.37,5.81.65,8.66.92l.11,0c3.7.35,7.53.72,11.28,1.29a12.48,12.48,0,0,1,5,2.38c.61.41,1.19.8,1.73,1.1l1.94,1.09-1.29,1.81a6.67,6.67,0,0,0-.37.64,4.82,4.82,0,0,1-2.13,2.33c-2.26,1-4.55,2.12-6.77,3.19-7.48,3.58-15.16,7.26-23.61,9.13l-2.43.54Z"/><polygon class="cls-2" points="6 8.83 58 60.83 58 1619.17 6 1671.17 6 8.83"/><path d="M1024,8V1672a8,8,0,0,1-8,8H8a8,8,0,0,1-8-8V8A8,8,0,0,1,8,0H1016A8,8,0,0,1,1024,8Zm-8,1658.34V13.66l-48,48V1618.34ZM962.34,56l48-48H13.66l48,48H962.34ZM13.66,1672h996.68l-48-48H61.66ZM960,1616V1064.94c-.5-.17-1-.33-1.52-.52-20.42-7.58-41.94-10.58-63.76,1.09-20.15,10.78-40.31,22.2-63.86,25.86-25.18,3.91-50.18,7.89-75.56,3.5-6.82-1.17-13.22-4.65-19.89-6.81-1.85-.6-4-.29-6-.39,0,2.27-.7,4.92.21,6.77,9.12,18.57,8,37.45-.32,55.38a128.48,128.48,0,0,1-34.82,45.3c-12.41,10.21-18.63,23.28-22.08,39.43-3.24,15.16-16,25.72-29,34.45-18.16,12.18-36.24,24.37-50.3,41.62-9.06,11.11-17.67,24.57-35.24,20.18-7.23-1.81-13.93-6.18-20.54-10-11-6.24-23.05-5.26-34.74-5.58-19.13-.51-35.67-4.9-50-19.21C433,1276.5,408.55,1265.3,381,1261c-12.39-1.94-36.28-28.37-40.37-40.74-7.3-22.1-19.3-41.84-38.18-56-2.54-1.9-10.41,3.32-15.82,5.2-12.9,4.5-25.71.86-38.12-1.63-23.52-4.7-42.78-21.16-66.32-25.85-10.39-2.07-21.18-1.12-32,.35-12.72,1.72-25.72,1.68-38.65-1.49-18.3-4.48-33.53-13.51-47.58-24.32V1616Zm0-563.4v-.41C926.46,1021,890.7,993,851.84,970.3a279.71,279.71,0,0,0,28,58.85c1.43,2.25,1.92,5.12,2.66,7.76,0,.16-1.87,1.34-2.31,1.08-2.72-1.61-7.18-1.15-7.37-6,0-.69-.88-1.34-1.34-2a239.4,239.4,0,0,1-25.27-47.7c-2.85-7.22-1.93-17.25-10.41-22q-21.19-11.87-42.5-23.56a10.86,10.86,0,0,0-2-.64,12.07,12.07,0,0,0,0,2.94c4.65,18.11,9.16,36.26,14.17,54.27,1.31,4.68.91,12,5.85,13.29,19.1,5.19,28.35,20.16,37.54,35.38a4.73,4.73,0,0,1-1.57,6.25c-2.9,2-3.46-1.41-4.14-2.4-7.92-11.52-16.9-21.86-30.09-28.73.15,1.8,0,3.48.46,4.91,4.16,11.55,8.58,23,12.58,34.61.85,2.45.28,5.38.37,8.09-1.49-.37-3.74-.26-4.32-1.19-3.29-5.22-6.7-10.48-9.1-16.13-7.27-17.15-12.3-35-16.64-53.14-4.76-19.84-14.31-38.61-12.81-59.81a4,4,0,0,0-2-3.05c-17.51-8.06-34.91-16.4-52.72-23.75-7.94-3.27-21.67-11.59-13.9,9.56.37,1-.17,2.33,0,3.47,2,13.23,3.34,26.59,6.21,39.62,2,9.24,13.36,8.77,19.22,15.92,10.57,12.91,22.94,24.16,29,40.29.66,1.76,3.12,3.29.31,4.82s-5.24.07-6.58-2.42c-8.85-16.45-22-29.2-36.43-42.63,1.29,4.32,1.53,8,3.33,10.63,6.84,9.94,8.92,21.41,10.87,32.79,2.73,15.88-3.74,30.12-9.19,44.52-3.31,8.75-4.84,17.26,9.68,15,.52-.09,1.16.86,1.81,1.21,11,5.86,23.16,5,34.94,6.09,12.54,1.15,24.88-1.51,37.22-3.51,16.41-2.65,32.52-5.62,47.75-13.23,20.73-10.35,40.59-24.35,65.37-22.6C939,1047.87,949.34,1050.65,960,1052.6Zm0-14.06v-10c-6.59-5.92-12.94-12.09-19.46-18-27-24.4-56.09-45.76-85.61-66.73a529.11,529.11,0,0,0-68.52-41.81c-21.79-10.95-43.94-20.85-66.72-29.76-29.56-11.57-60-17.31-91.21-20.27-3.18-.31-3.8,1-3.29,4.05C623.42,872,639.27,874.54,647.11,876a550,550,0,0,1,75.65,19.75c25.52,8.46,49.78,20.93,74.12,32.61,15.18,7.27,29.22,16.89,44.28,24.45,23.18,11.64,43.3,27.87,64.38,42.51C924.54,1008.47,942.18,1023.64,960,1038.54Zm0-46.76V64H64V937c2.79-3.46,5.74-6.84,8.92-10.07,16.64-16.88,34.7-31.7,54.87-42.87,16.13-8.93,34.05-16.07,52.84-19.1,5.12-.83,3.33-5.11,4.15-7.77,2.6-8.42,2.89-17.49,8-25.23,3.55-5.38-1.09-4-4.18-5.18-10.22-3.91-21.42-4.2-31.19-10.86-4.76-3.24-11.71-4.68-16.78-8.7-18.87-15-14.74-16.35.73-30.48,12-11,27.38-18.34,41.57-26.79a42.22,42.22,0,0,1,14.6-4.9c6.39-1,6.15-6.61,7.09-10.23,5.07-19.66,14.87-37.13,24.34-54.74,4.47-8.3-4.41-8.1-7-10.52-14.79-14.06-35.47-15.22-53.32-22.73-21.63-9.12-36.62-25.57-43.41-47.83-5.44-17.83,8.77-37.36,23-34,21.78,5.2,35.13,20.61,44.54,39.49,7.31,14.63,14.42,29.41,18.89,45.45,1.31,4.71,9.74,8.3,15.61,10.57,3.92,1.51,7.29,10.83,13.61,2,3.69-5.14,4.25-9.75,4.47-16,.53-15.3,2.86-30.61,5.55-45.72,1.28-7.2-2.94-9.92-6.83-14-12.25-12.76-20-27.29-24.41-45.13-4.08-16.45-2.81-31.43,1.66-46.42a19.9,19.9,0,0,1,19.94-14c10.68.73,17.71,8.33,21.72,18.49,6.51,16.47,6.62,33.52,6.28,50.91-.26,12.78-1.28,25.09-6.2,37-7.07,17.1-4.81,35.31-6.38,53.1-.57,6.36-1.19,10.68,4.51,15.18,5,3.93,11.92,13.85,13.78,12.06,6.94-6.7,16.17-10.44,20.71-21.22,6.81-16.16,15.8-32,31.16-43,7.44-5.34,13.42-12.25,22.49-15.86,12.22-4.86,24.47-6.09,33.1,3.8,9.38,10.76,5.33,22.93-3.09,33.65-20.17,25.7-48.15,33.44-79,36-7.62.63-13.95,7.7-18.24,13.92-2.54,3.69,4.35,7.49,6.21,11.75,3.71,8.53,11.21,14.93,13.45,24.49,1.13,4.86,4.54,6.15,9.3,2.57a121.62,121.62,0,0,1,56.77-23.36c6.62-.95,12.71-5.45,19.35,1,8.79,8.54,1.86,18.13,1,26.07-1.72,15.3-9,29.84-17.31,43.1-4.79,7.63-11.14,14.34-17.22,21.07-2.3,2.55-1.42,4.28.14,5.91,19.38,20.31,29.26,44.87,36.06,71.86,2.58,10.24,9.57,20.89,16.34,29.84,2.17,2.87,12.53,0,19.05-.95,23.74-3.29,45.63-1.8,60,21.32,1.22,2,2.64,1,4.29-.53,12.22-11,26.18-13.8,42-9,3.45,1.05,5-3.18,6.19-5.44,4.91-9.49,18.05-11.09,19.94-24.61,1.83-13.09-7.83-11.45-13.52-15.41-13.18-9.19-26.23,1.09-39.51.38-28-1.49-62.86-27.7-62.48-59.57.08-6.93,4.44-12.42,9.68-16.11,8.76-6.17,17.67-4.14,27.37-.11,25.35,10.52,40,31.69,50.58,54.38,6.51,14,19.79,8.88,27.16,16.83,1.09,1.17,2-.72,2.08-2.22,1.3-16.61,2.44-33.24,4-49.82,2.18-22.59,4.73-45.15,7.14-67.94-16.83,14-34,27-56.59,30.35-9.62,1.4-20.43,8.39-26.18-4.74-3.2-7.3-1.79-16-1.1-24.34,1.08-13,6-24.59,10.14-36.59,1.36-4-3-5.38-5.41-6.22-22.34-7.78-41.17-21-52.55-41.4-6.81-12.22,7.35-17.05,15.28-20.41,14-5.92,29.25-8.88,43.8-13.65,4.33-1.41,8.55-.17,12.59-.33,7.8-.3,8.77-4.88,9.83-10a177.61,177.61,0,0,1,25.82-61.87c5.64-8.62,11.21-1.31,15.88.7,5.4,2.32,10,6.77,14.49,10.85,2.75,2.52,3.59,2.06,4.44-1.09,4.21-15.49-1.87-23.13-15.11-31.59-15-9.6-29.49-.19-44-3.23-21.38-4.47-42.1-10.07-55.65-28.54-10.43-14.21-11.26-35.06,5.33-42.65,10.08-4.61,20.19-.4,29.42,3.64a103.57,103.57,0,0,1,47.59,41.83c8.2,13.63,21.23,19.65,32.73,28.38,2.25,1.71,2,.15,2.08-1.22q2-29.39,4-58.79c.26-3.88-.26-7.65,1.66-11.58,2.15-4.42-1.38-6.23-5.2-8.53a143,143,0,0,1-22.87-16.75c-6.87-6.3-14.74-2.26-22-3.72-21.86-4.36-40.57-14.46-58-27.85C468.7,382.43,461.8,370.92,461,356c-1.26-22.78,17.36-26.84,32.75-21.9,27.79,8.94,43.35,31.91,54.79,56.49,8.51,18.28,22.81,29.11,37.74,40.29,2.41,1.8,2.66.1,2.69-1.86.37-19.62-2.61-39.25-2.16-58.62.43-18.36-11.94-26.11-21.09-37.33-12.47-15.28-21.36-31.57-23.57-52.36-1.86-17.54,2.52-41.57,16.53-51.21,10-6.86,19.18-1.53,24.06,6.93,10.41,18,15.12,37.34,14,59-.81,15.8-4.47,31-5.18,46.53-.46,10.35,3.38,20.94,5.65,31.35.76,3.5,2.58.9,3.88,0,9.19-6.49,18.16-13.34,27.65-19.37,7.26-4.61,7.8-12.73,11.28-19.21,7.6-14.17,19.42-23.25,33-30.92,12.8-7.23,26.22-9,39.44-3.24,13.57,6,15.42,16.65,5.62,27.68C699.61,349.08,676,362,648.54,360.1c-20.83-1.45-27.92,15.57-42.09,22.53-13.42,6.58-5.82,18.94-6.45,28.63-1,15.55-.27,31.21-.27,47.71,8.85-10.55,20.76-17.57,32.76-22.12,17.26-6.56,24-23.37,37.89-32.84,14.08-9.57,28.66-15.56,45.81-14.95,12.13.43,21.59,5.54,24.58,17.4,3.62,14.31-5.26,27.53-17.13,32.81-18.93,8.42-38.12,9.58-57.94,5.69-5.73-1.13-11.17-4.59-16.86-4.89-4.26-.23-9.22,2.11-13,4.65-11.86,8.06-23.2,16.86-34.9,25.14-8.41,5.95-3.23,15.07-5.15,22.52-2.84,11-2,22.91-2.81,34.42-.25,3.37.85,3.53,3.39,2.06a72,72,0,0,1,25.11-8.9c4.27-.67,4.51-5.28,7.22-7.57,17.78-15,36.62-28.17,61.15-27.22,12.51.49,23.89,4.78,29.92,17.72,3.92,8.41-7.87,29.15-17.06,30.34-9.64,1.25-19,5-28.65,5.54-13.9.74-28.61,1.3-41-5.9-14-8.15-24.44.52-35.41,5.4-13,5.79-4.9,18.55-6.85,28-2.2,10.58,10.12,16.49,11,26.68.21,2.6,1.29,5.13,1.92,7.51,24.38-17.63,52.4-21.37,81.43-19,5.39.44,12.88-.79,17.13,5.32,5.08,7.31,2.15,15.37,0,22.1-7.58,23.48-24.1,40.94-41.64,57.5-10,9.47,3.51,10.79,6.26,14.3,10.43,13.28,20.28,26.5,24.23,43.3,2,8.56,4,17.19,7.16,25.33.63,1.61,7.05,1.37,10.15,1.24,17.13-.73,31.7,9.86,48.26,10.21,12.46.27,25.05-2.38,37.42-1.53,27,1.88,48.21,14.95,62.75,37.75,14.71,23.08,32.31,42.44,56.31,56.75C933.87,866,946.21,885.85,949,910.45c2.29,20,3,40.19,6.33,60A189.64,189.64,0,0,0,960,991.78Zm-7.68,15a13.18,13.18,0,0,0-.19-3.09c-1.67-5.62-4.22-11.1-5-16.83-3-21.18-7.35-42.42-7.6-63.67-.43-35.74-21.73-55.83-49.19-71.93a84.75,84.75,0,0,1-27.1-25.35c-12.17-17.59-21.42-37.2-41.9-47.84a82.1,82.1,0,0,0-51.77-8.37c-13.38,2.06-26.48.93-38.42-4-23.56-9.79-59.28-4.77-76.58,11.91-18.88,18.21-28.92,40.61-28.48,66.31,9.94-1.43,19.93.91,30,2,6.92.77,15.15,3.48,20.51.79,5.62-2.83,8.07-11.45,12.68-16.87,14-16.51,30.92-30,47.66-43.55,2.15-1.74,5.06-3.44,7.38-1.27,2.59,2.41-.12,4.42-1.9,6.09-7.57,7.14-15.18,14.25-23.06,21.63a27.35,27.35,0,0,0,3,.18c19.55-.81,37.9-6.75,56.15-13.11,3.48-1.21,7.93-2.51,10,.51s-2.14,4.71-4.5,5.62c-21.51,8.3-43,16.84-66.79,15.06-3.41-.26-6.62-1.66-9.39,1.9-6.33,8.11-12.89,16-19.41,24-1.72,2.1-2.38,3.09,1.2,4.26,11,3.61,21.81,8,32.81,11.67,6.6,2.23,14.92,7.22,19.88,5,16.5-7.24,32.17-15.56,50.3-19.38,24.32-5.12,48.25-6.2,72.49-1.41,3,.6,5.49,2.73,1.78,5.89-5.17,4.4-10.46.48-15.77.37-15.37-.3-30.76.57-46.14,1a2.1,2.1,0,0,0-1.53,1,1.59,1.59,0,0,0,.56,1.49c11,5.26,22.11,10.74,34.45,11.89,10.38,1,20.88.72,31.3,1.42,1.79.12,3.44,2.3,5.16,3.53-1.26,1.11-2.54,3.2-3.78,3.18-18.46-.31-37.24,2.53-55-5-9.87-4.19-19.74-11.89-29.55-11.8-10.75.09-21.43,7.31-32.11,11.52-.59.23-1.35,1.57-1.18,1.83a5.17,5.17,0,0,0,2.13,1.56c8.16,3.79,16.24,7.78,24.55,11.25,21.47,9,38.73,27,66.32,22.52,20.53-3.34,42.35,1.29,63.6,2.19,4.76.2,9.88.92,9.66,6.28-.11,2.75-5,3.9-9.14,3.42-9.28-1.06-18.67-1.16-28.37-1.67,10.54,12.07,24.27,16.87,37.68,22.37,2.29.94,6.4,2.32,5.18,6.15s-5.27,2-7.31,1.43c-12.32-3.6-25.25-7.32-34.11-16.76-13-13.84-28-15.66-44.71-12.54,8.39,5.78,16.87,11.45,25.17,17.37,14.42,10.28,29.21,20.13,43,31.26,14.66,11.87,28.28,25,42.41,37.56C950,1006.41,951.29,1006.45,952.32,1006.77ZM715.07,431.08C725,427,732.61,420.86,730.47,410c-2-9.93-11.37-11.62-22.3-11-19.21,2.87-36.72,11.49-49.42,29-2.53,3.5-.77,3.64,1.65,4.32C678.75,437.49,696.85,438.59,715.07,431.08Zm6.64,630.07c4.8-15.14,11.16-29.05,7.68-46.15-4.43-21.7-16.43-37.44-33-50.15-21.21-16.27-41-32.8-43.9-62.08-.64-6.43-4-13.23-9.86-17a66.75,66.75,0,0,0-39.16-11.4c-23.56.33-42.2,8.6-57.7,24.89-9.51,10-.31,21.07.43,31.7,1,14.3,13.25,12.15,18.25,8.85,18.18-12,38.62-18.89,57.8-28.48,2.74-1.37,8.93-2.63,10.4,2.41,1.13,3.86-3.86,4.1-6.65,5.4-16.17,7.54-32.29,15.16-48.68,22.87,4.06,1.09,7.42,2.44,10.9,2.85,28.25,3.29,54.55,13,80.51,24,3.76,1.58,5.53,4.13,3.9,7.47s-5.09,1.07-7.25.11c-16.53-7.36-33.87-12.29-51.19-17.26-.68-.19-4.16-1.14-2.57,1.64a75,75,0,0,0,21.45,24.28c10.56,7.58,20.23,16.4,31.26,25.48-11.93,1.2-50.28-27.2-55.76-37.81-4.29-8.32-7.54-17.6-21.12-18.51-10-.67-20.44-2.16-30.61-3.61-5.65-.81-6.85-.33-5.73,4.75,4.38,19.85,4.59,40.11,5.86,60.25.28,4.46,1.79,8.17,6,9.07,13.69,2.94,24.91,11.11,36.5,17.86,24,14,47.43,29.19,67.85,48.2,9.11,8.48,20,15.18,27,25.94,1.27,2,2,4.74-.3,6.06-1.74,1-3.76.11-5.84-1.8-17.13-15.76-34.51-31.26-53.71-44.54a11.11,11.11,0,0,0-3-1,9,9,0,0,0,.41,2.68c10.91,22.8,21.88,45.54,38.16,65.26,1.48,1.79,4.93,5.16,1.76,8.63-2.48,2.71-4-1.06-6.06-1.43-1.05-.18-1.42-3-2.53-4.28-15.22-17.5-27-37-36.51-58.21-3.56-8-2.87-18.51-10.82-23.75-13.6-9-27.91-16.86-42.08-24.93-4.41-2.5-9.34-4.09-14-6.1-.22,3.73-.49,7.45-.64,11.18-.1,2.31-.12,4.62,0,6.93,1,20.3,1.31,40.68,3.51,60.86.8,7.32-4.15,17.73,4.8,22,22.62,10.81,42.83,25,62.08,40.73,7.54,6.17,14.49,13.07,21.74,19.61,2,1.79,2.86,4.19,1.14,6.1-1.26,1.4-2.85,3.4-6,.78-11.09-9.16-22.71-17.69-34.18-26.41a21.35,21.35,0,0,0-3.65-1.8,17.12,17.12,0,0,0,.61,3.62c6.24,15.74,10.21,32.51,21,46.23,1.58,2,2.61,5.07.3,7.14-2.71,2.43-4-1-5.33-2.36-11.37-12.12-16.29-27.63-22.23-42.61-2.84-7.2-.33-16.91-6.69-21.87-9.3-7.26-20.17-12.51-30.71-18.82,5.2,59,8.41,117.32,5.4,178.92,9.77-12.52,16.58-24,26-32.65,12.09-11,26.61-19.29,39.53-29.45,11.35-8.93,23.63-17.15,26.79-33.2,2.23-11.28,5-22.65,14.18-31.06,13.92-12.82,27.1-26.19,37.25-42.49,9.71-15.61,14.21-31.87,8.14-49.38C717.59,1090.46,717.12,1075.63,721.71,1061.15Zm-10.5-551a22.38,22.38,0,0,0-1.16-4.37c-5.26-10.84-29.29-15.23-43.07-7.93-8.41,4.46-17.13,8.45-25.08,13.61-4.27,2.78-7.23,7.58-10.77,11.48,3,2.73,7.06,2.88,10.61,4.25,17.37,6.71,34.52.59,51.66-.54C702.38,526,709.55,520.71,711.21,510.12Zm-1.33,443.27c.35-11.21-4.6-21.49-4.59-32.86,0-7.32,4.25-18.63-6.32-22.58-12.59-4.7-26-7.35-39-10.8-.82-.22-1.84.33-2.77.52a21.36,21.36,0,0,0,.92,2.73c3,6.05,3.62,12.71,5.31,19.08,2.24,8.46,5.11,18.08,11,24C685.82,945,699.53,954.4,712.72,965,711.62,960.77,709.77,957.05,709.88,953.39ZM706.72,326.2c4.25-3.51,11.12-10.53,1.83-16.38-3.17-2-8.36-.74-16.66-1.2-19.47,1.27-35.12,14.1-46.43,33.48a18,18,0,0,0-2.07,5.59c-1.08,5.77,3.62,3.22,5.43,3.06C670.72,348.81,690,340,706.72,326.2ZM692.25,608.54c2.17-4.8,7.66-14.06.5-16.67-9.17-3.35-20.36-3.5-30.25-2.06-19.66,2.85-39.26,6.79-56.24,18.56-4.55,3.16-9.9,4.6-11.57-4a52.13,52.13,0,0,0-5.27-14.92c-8.16-14.9-18.14-28.53-31.15-39.59-1.2-1-4.57-5.25-6.77-1.58-10.81,18-17.48,37.66-22.64,58-1.54,6-1.18,17.51-6.65,17.09-20.9-1.58-39.81,4.45-58,12.55-4.09,1.82-26.2-.28-11,15.84C467.8,667,483.76,681.32,506.74,683c4.3.32,5.79,4.21,3.77,7.27-11.34,17.18-12.36,36.67-13.45,50.92,0,16.13,0,16.12,9.47,12.15a57,57,0,0,1,6.25-2.39c26.5-7.5,48.64-20.85,62.62-45.64a5.74,5.74,0,0,1,9.37-1.2c8.81,8.92,20.06,14.21,30.46,20.6a161.73,161.73,0,0,0,54.17,20.86c4.93,1,10.83,2.49,14.72,1.74,8.82-1.71-1-7.52.65-11.64.44-1.14-1.48-3-1.75-4.67-4.07-24.24-18.19-42-36.71-56.85-4.11-3.29-4.52-6.14-.59-9A139.26,139.26,0,0,0,692.25,608.54ZM673.48,754.2c-14.1,1.62-23-3.06-32.07-6-19.53-6.28-36.73-17.42-52.77-30.31-1.15-.93-6.54-6.54-7.17-1.19-2.34,19.82-2.81,39.85-4.5,59.75-1.12,13.28-3.41,26.46-4.61,39.73-1.64,18.1-2.73,36.25-4.12,55.25,15.68-7.08,30.55-6.89,45.44-6.52,2.26,0,4.76.68,3.34-3.32-4.7-13.24-.82-26.92.68-39.74,2.19-18.84,14.73-34.17,26.56-48.86C650.81,764.89,660.63,761.33,673.48,754.2ZM582.83,334.45c2.78-17.6,3.08-35.4,2.86-58.77a115,115,0,0,0-10.62-31.31c-1.73-3.32-2.62-8.25-8.26-5.77-12.12,5.34-14.76,16.65-15.51,27.88-1,14.77-.74,29.69,8.29,42.8,6.11,8.88,10.18,19.21,18.93,26.16a4.74,4.74,0,0,0,2.82,1.26C581.89,336.67,582.69,335.3,582.83,334.45ZM560.5,1274.7c2.31,0,2.58-2.32,2.4-4.19-.58-6-2-12.1-1.83-18.12.87-26.81-1.05-53.51-3.07-80.17-2.43-32.33-7.37-64.53-8.49-96.88-1.12-32.71-2.3-65.38-4.26-98.07-1.33-22.19-9.46-43-10.51-65.15,0-1-1.82-2.33-3.06-2.82a39,39,0,0,0-29,0c-4.66,1.82-12,6.57-11.73,9.36.88,8.93,5.34,17.42,7.35,26.33,3.26,14.47,5.68,29.13,8.45,43.72l-.29.06c2.2,10.24,4.5,20.45,6.59,30.71,3.65,17.9,7.18,35.81,10.75,53.72,4.43,22.21,9.08,44.38,13.2,66.65,3.75,20.22,6.92,40.55,10.33,60.84,3.93,23.37,7.81,46.74,11.79,70.09C559.34,1272.17,557.79,1274.7,560.5,1274.7Zm-11.69,40.19c1.81-4,9.62,9.59,7.86-2.22-3.14-21.1-8.59-41.86-11.52-63-4.66-33.61-10.52-67-17.08-100.69-5.64,6.18-10.53,13-16.83,18.15-15.71,12.77-18.88,29.23-17.84,48.31.74,13.4-.07,27.13-4.61,40.09-.8,2.29-2.35,6.37-6,5.22s-2.29-5.2-1.69-7.47c4.76-18.18,2.14-37,5.63-59.3-10.54,17.27-19,31.41-27.77,45.34-2.78,4.42-4.22,13.34-10.21,11-5.11-2-.3-8.88,1.67-13.42.57-1.32.64-2.87,1.25-4.17,14.54-30.85,37.71-55.11,60.13-80.11,5-5.56,16.31-7.13,13.44-19.83-5.69-25.26-9.53-50.92-14.5-76.35-.49-2.5.24-9.41-6.4-5.32-11.25,6.92-22.92,13.35-33.31,21.41-6.11,4.73-16.61,6.67-17.29,15.67-1.48,19.88-7.63,38.5-13.83,57-4.25,12.7-11,24.61-17.09,36.61-1.48,2.89-4.61,6.36-8.67,4.89-2.43-.87-1.42-3.87-.45-6,3.71-8.26,8.05-16.3,11-24.83,6.85-19.82,14.81-39.37,17.06-60.88-2.32,1.8-4.76,3.2-6.59,5.17-16.85,18.16-34.21,35.91-47,57.4a4.25,4.25,0,0,1-6.11,1.35c-2.14-1.35-.85-3.2-.33-4.86,5-15.83,15.56-28.34,26-40.44,14.08-16.38,30.7-30.41,48.59-42.61,10.76-7.33,23.22-12.45,33-20.8,5.82-5,19.8-3.16,16-18.54-4.88-19.85-7.13-40.34-10.6-60.54-1.38-8.07-2.66-14.22-14.15-8.79-25.33,12-48.83,26.6-72.33,41.77-19,12.28-23.91,30.82-31.37,49.18-4.1,10.08-9.82,19.51-15.17,29-.81,1.44-3.53,1.81-5.36,2.67-.46-1.42-1.57-3-1.23-4.22.82-2.86,2.39-5.49,3.55-8.26,5.83-13.9,11.63-27.82,17.79-42.58-3.55,2.2-6.5,3.39-8.6,5.44-11.16,10.88-22,22.08-33.22,32.9-1.79,1.73-4.88,2.09-7.37,3.07-1-2.62.38-4.61,1.16-7.06,1.68-5.3,7.5-5.3,9.87-9.38,8.89-15.25,23.06-26,35.81-37.14C393,1001.21,413.62,986.15,436,974c1.21-.67,2.73-2.15,2.77-3.3.08-2.77-2.45-1.56-3.77-1.53-24.18.52-48.44-1.24-72.53,2.75-3.57.59-7.55-1.21-11.34-1.9,1-1.67,1.75-4.27,3.21-4.82,4.85-1.8,10-3.94,15-4q34.32-.63,68.66,0c5.74.09,11,4.39,17.31,2.22,9.44-3.26,17.31-10.35,28-11,1.45-.08,8.35.57,6.87-5.58-.91-3.74-2.69-7.33-3.1-11.1-1.85-16.82-10.95-29.44-26.34-34-25-7.39-50.28-2.31-74.48,5.64-21.41,7-37.83,21.93-53.14,38-17.89,18.79-20,43.26-23.91,67a179,179,0,0,1-12.87,43.53c-8.49,19.19-12.36,39.3-10.38,59.78,1.61,16.64,12.95,29.92,24.46,40.82,12.83,12.13,24.88,24.37,31.67,40.63,5.56,13.31,10.57,27.16,19.42,38.32,9.45,11.92,23.67,17.31,38.89,19.65,22,3.38,39.36,15.55,55.23,30.4,8.87,8.3,18.6,15.07,31,17.66C507.27,1307.37,530.1,1300.43,548.81,1314.89Zm-4-902c3.12.81,5.41-.91,3.86-4a191,191,0,0,0-12.46-21.65c-6-8.81-12.26-17.66-19.53-25.43-8.71-9.29-17.28-19.78-36.35-18.47,1.18-.24-1.94-.22-4.48,1-7,3.39-6.44,20.06.7,29C494.24,395.33,518.46,406,544.84,412.88Zm-8.61,96.38c9.26.67,11.47-1.86,6.75-8.46-13-18.14-27.38-34.71-49-42.79-7.25-2.71-16.77-7.41-22.43.07-7.21,9.53-3.48,20.62,4.23,28.65C492.67,504.28,514.42,509.94,536.23,509.26Zm-26,337.68c13.13,0,13.85-1,8.72-11.92-.07-.15,0-.36-.09-.49-10.77-16.72-21.68-33.43-40.11-42.81-7.46-3.79-15.66-8.62-23.5-.18-4.35,4.69-3.08,10.86-1.58,15.5C460.93,829.56,486.2,846.94,510.21,846.94ZM392,893.23c3.78-1.13,3-1.81,1.46-4.82-16-31.55-41.57-52-75-61-27.06-7.28-52.6-3.38-74.74,17.24-18.95,17.65-43.17,26-68.12,32.58-44.16,11.6-80.15,37-108.69,71.74-1,1.2-2,2.42-2.91,3.64V1005c10.75-2.38,20.16-7.74,30-12.19.76-.34,1.13-1.51,1.69-2.3-2-1.12-3.9-2.93-6-3.25-6.63-1-13.36-1.36-20-2.23-1.86-.24-5.42,1.58-5.42-1.53,0-.13,0-.28,0-.43.24-2.69,3.25-4.55,6.64-4.82,27.39-2.19,52.51,9.47,79,13.14,16,2.22,28.67-5.89,42.67-9.74,17.3-4.76,34.19-11.05,51.26-16.66,1.15-.38,2.36-.59,3.54-.88-.74-1-1.26-2.42-2.25-3-11.49-6.64-22.57-14.41-34.82-19.1-5.09-1.94-12.64,3.63-19.21,4.29-19.33,1.94-38.69,1.08-57.93-1.51-.89-.12-2-2.53-2.08-3.9-.08-2.54,2.25-1.89,3.76-1.9,20.84,0,41.68,0,66.33,0-10.94-9.64-20.24-13.46-29.15-17.83-5.62-2.75-11.56-4.83-17.15-7.61-1.48-.73-4.11-2.18-2.13-4.94,2.39-3.34,6.39-2.27,8.58-1.31,14.65,6.43,29.44,12.73,43.39,20.52,17.68,9.87,34.53,21.24,51.9,31.69,6.66,4,13.27-1,19.92-1.43,7.76-.5,15.41-4.93,23-4.74,15.24.38,11.88-5.8,8.69-15.91-5.65-17.91-21.18-18.9-34.72-21.9-14.95-3.32-28.14-10.54-42.32-15.43-3.94-1.36-12-1.9-9.66-7.51s9-1.11,13.67.4c19,6.14,38.07,12.3,59,19.07C279.4,895.68,269.9,877.53,253,865.89c-2.08-1.43-4-3.8-2.22-6.07,1.61-2.06,4.17-.84,6.25.56a143.65,143.65,0,0,1,48.15,53.46c2.09,4,6.38,6.87,6,12.12,0,.27.9.75,1.45.86.36.08,1.14-.23,1.2-.49,3.06-12.22,6.27-24.4,9-36.7,1.83-8.22,2.87-16.62,4.46-24.9.65-3.4,2.09-7.89,5.8-7.39,4.62.63,2.45,5,2,8.12-2.58,17.27-5.13,34.53-10,51.36-2.21,7.63-4.09,15.37-6,23.09-.21.85.6,1.94.94,2.92a10.69,10.69,0,0,0,2.36-1.58C341.49,919.22,363.66,901.68,392,893.23ZM380.73,703.06c.31-1.47,2.31-6.91-2.2-5.46-12.16,3.9-25.2,4.7-36.63,11.32-9.74,5.65-20.68,9.32-30,15.49-5.11,3.37-8.38,7.86-12.76.44-2.9-4.92-4.19-10.94-7.62-15.36-12.09-15.56-21.72-33.1-37.07-46.07-2.21-1.87-3-2.37-4.63.34a451.47,451.47,0,0,0-33,64.74c-2.8,6.87.11,17.14-8.53,20.41-27,10.21-49.81,26.48-70.87,45.4,1.21.59,2.51,1.09,3.68,1.79,19.29,11.68,39.38,21.13,62.32,22.89,3.1.24,4.15,1.64,2.85,5.09-3.94,10.45-7.48,21-11,31.63-.53,1.56-.43,4,2.13,3.11,6-2.1,12.15-4.16,17.71-7.21,18.31-10.06,32-27.18,52.39-34.24A93.9,93.9,0,0,1,316.75,814c22.44,4.6,41.8,17.32,61,34.9-10.16-22.55-19.14-42.37-34.62-58.43-3.57-3.7-3.22-7.41.28-11a140.88,140.88,0,0,0,20.33-26.24C373.06,737.6,377.16,720.44,380.73,703.06Zm-25.56-69.94c9.31-7,18.43-13.4,20.74-25.71-.15-11-9-15.9-19.69-11.36-23.85,10.12-38.91,29-51.3,50.68a29.91,29.91,0,0,0-1.55,3.84c1.64.1,3.37.58,4.92.23C324.71,647.07,341.08,643.73,355.17,633.12ZM308,966.19c1.79-4.12.94-5.62-5.35-4.86a53,53,0,0,1-5.58,1.7c-16.93,3.76-34.05,6.77-50.75,11.34-14.59,4-28.69,9.79-43.06,14.61-18.67,6.26-38,10.95-55.94,18.87-21,9.28-42,18.88-61.4,31.48-7.13,4.64-14.58,8.81-22,13.07v3.76c7.33-3.67,15-6.7,22.42-10.11,17.61-8,34.91-16.75,53.23-23,22.17-7.59,44.47-14.9,67-21.48a375.58,375.58,0,0,1,44.88-10.38c14.7-2.39,29.68-3.18,44.57-4.18,6.67-.46,7.32-5.37,8.82-9.84C306.09,973.54,306.53,969.64,308,966.19Zm-8.35,40.12c1.55-6.77,2.79-13.6-8.43-11.32a109,109,0,0,1-18.64,2.53c-12.23.32-11.26,10.55-13.16,17.71-6.08,23-17.21,43.76-27.31,65-5.21,10.92-11.3,21.43-17.31,32-1,1.77-3.12,4.4-6,2.18-4.84-3.72-.88-7.61.62-10.72,5.93-12.36,12.46-24.44,18.73-36.64a4.78,4.78,0,0,0,.21-1.59,14.31,14.31,0,0,0-3.38,1.23c-13.26,9-24.82,20-36.13,31.33-2.76,2.76-6.59,7.53-10.09,4.07-3.26-3.21,2.72-5.56,4.5-8.33,11.89-18.49,31.8-27.88,47.78-41.73,10-8.65,11.3-21,15.79-32,2.64-6.47,4.5-13.27,6.85-20.35-20.18,5.33-39.46,10.09-58.54,15.58-10.71,3.07-10.29,14.84-14.44,22.47-6,11.06-13.1,21.34-19.9,31.75-8.36,12.83-18.6,24.44-27.94,36.64-2.46,3.21-6.23,4.81-8.91,2.58s.94-5.31,2.42-7.35c6.72-9.25,13.85-18.2,21.8-28.53-14.37,4.08-24.29,12.52-35,19.48-5.22,3.37-10.62,6.44-15.74,10-1.81,1.24-2.6.65-3.69-.58-1.49-1.69-.07-2.52.86-3.72,14.73-18.93,35.33-27.75,57.24-35.54,9.07-3.22,10.9-15.71,16.84-23.47,4.24-5.53,6.18-12.82,9.32-19.7-8.73,3.2-18,6.38-27.08,10q-27.47,10.8-54.78,22c-10.9,4.46-21.66,9.23-32.12,14.62v39.09A184.53,184.53,0,0,0,88.21,1121c19,10.46,40.06,14.64,62.76,10.56a89.78,89.78,0,0,1,59.22,9.37c18.29,9.81,37.23,17.23,58.1,20.54,9.31,1.48,16.64-3.15,25.1-2.71,2.36.12,2.67-1.14-3-9.5-6.29-9.28-13.52-18.7-14.75-29.6-1.47-13-.65-26.23,1.5-39.55,3.25-20.05,16-36.76,18-57.07C295.67,1017.39,298.41,1012,299.69,1006.31ZM258.94,539.1c1.49-7.67.12-17.32-2.42-26.22-2.19-7.68-3.75-18.06-14.32-19.6-8.92-1.3-11.74,4.29-13.54,12.89-6.08,28.95,2.39,53.2,21.27,74.74.74.84,2.34,1.9,3,1.61.93-.4,1.57-1.9,2-3C259.18,567,258.93,554,258.94,539.1ZM197.89,646.78c2.93.94,2.07-.61,1.25-2.44-9.69-21.74-17.09-44.74-37-60.43-6.27-4.94-13-8.62-20.15-6.3-5.19,1.68-6.56,8.45-7.28,15.45,1.53,4,3.26,9,5.38,13.88C151.11,632.16,174.62,639.35,197.89,646.78Zm-59.25,354.49c1.22-.6,1.94-2.22,2.89-3.37-1.23-.28-2.44-.6-3.68-.83-7-1.27-14-2.42-21-3.81-8.32-1.66-13.91,4.11-20.2,7.52C86.25,1006.39,75.23,1010,64,1013v29.86c5.17-3.59,10.75-6.83,16.21-10.31,12.06-7.71,24.54-14.46,37-21.25C124.16,1007.54,131.56,1004.72,138.64,1001.27ZM56,1618.34V61.66l-48-48V1666.34Z"/><path d="M624.17,662.63c4.16.19,8.62,2.8,7.76,5.6-1.88,6.13-9.19,5.49-13.38,4.5-19.74-4.7-38.5.94-57.25,4.72-7.83,1.58-16.35,3.63-23.1,9.18-2.36,1.94-5.63,1.68-6.71-1.24-1.42-3.86,2-6.42,4.68-8.16,3.17-2,8-2.16,10.3-4.72,5.12-5.6-3.07-7.91-4.81-11.35a217.9,217.9,0,0,1-10.35-22.85c-.78-2.11-1.95-6,.93-7,3-1.13,5.63.73,7,4.42,3.63,10.11,9.18,19.17,15.45,27.92,3,4.22,6.78,4,10.33,3,5.07-1.46.14-4.18-.2-6-3.68-20-7.93-40-11.57-60-.71-4-2-10.82,2.32-11.64,5.82-1.11,4.79,5.34,5.72,9.62,2.69,12.32,6.52,24.4,9.21,36.73,1.62,7.43,2.14,15.12,2.77,22.72.26,3.12,3,7.29,3.53,6.66,3.4-3.79,11.78,2.66,12.16-6,.17-4,0-8,0-15.15.31-3.79-.87-11,2.1-17.68,1.16-2.61,2.43-6.6,6-4.62,4.44,2.45,2.64,7.87,1.55,11-3.1,8.89-.67,17.79-1.51,26.61-.25,2.72,2,2,3.5,2.15C608.46,661.53,616.31,662.29,624.17,662.63Z"/><path d="M307.79,783.57c3-.49,6.4,5.81-1.09,7.7-2.09.53-4.12,1.51-6.23,1.73-23.9,2.47-46.11,10.73-68.15,19.63-1.61.65-3.59.4-7.5.78-1.22.25-4.8-.24-5.55-3.63-.72-3.23,2.83-4.38,5.51-5.23,9.27-2.95,9.88-7.26,5.09-15.89-4.65-8.38-6.21-18.51-8.85-27.95-.69-2.48,0-5.23,3.26-5.68,3-.42,3.92,1.51,4.93,4.25,4.43,12,9.27,23.94,14.13,35.83.33.82,2.57,1.81,3,1.5,4.45-3.49,15.41-2.89,13.77-8-3-9.43-3.39-19.28-6.57-28.67-3.24-9.6-3.12-20.34-4.59-30.56a7.18,7.18,0,0,1,4.67-7.81c2.58-.87,3.38,3,3.9,5.43,2.57,12,4.91,24.08,7.64,36.06,1.77,7.82,2.73,16.29,6.6,23,2.62,4.55,9-.5,13.56-1.44,3.58-.75,2-5.3,1.31-7.59-2.83-9.67-1-19.49-1.6-29.21-.16-2.51,1.58-5.21,3.7-5,5.65.6,5.19,6.27,6.14,9.95,1.3,5.05.54,10.61,1.64,15.74C297.84,774.94,293.17,785.92,307.79,783.57Z"/></svg>