<svg id="Card" xmlns="http://www.w3.org/2000/svg" viewBox="0 0 1024 1680"><defs><style>.cls-1{fill:#f2f0ed;}.cls-2{fill:#16592d;}.cls-3{fill:#8c1707;}.cls-4{fill:#593831;}.cls-5{fill:#d82e21;}.cls-6{fill:#f79d31;}</style></defs><rect class="cls-1" x="14.5" y="14.5" width="995" height="1651"/><path class="cls-2" d="M917.38,658.72c-.08-.82-.21-1.64-.34-2.51-.48-3-1-6.39.86-9.92a141.71,141.71,0,0,0,10-23.19l.83-2.6,2.22,1.58A97.53,97.53,0,0,1,945,634.28l1.31,1.37L945,637c-6.24,6.62-12.23,12.47-18.32,17.89-1.39,1.24-2.83,2.45-4.22,3.62l-1.8,1.52-2.94,2.5Z"/><polygon class="cls-3" points="966 1619.17 966 60.83 1018 8.83 1018 1671.17 966 1619.17"/><polygon class="cls-3" points="60.83 58 8.83 6 1015.17 6 963.17 58 60.83 58"/><polygon class="cls-3" points="8.83 1674 60.83 1622 963.17 1622 1015.17 1674 8.83 1674"/><path class="cls-2" d="M915.7,1618l.24-2.22c.34-3-.24-6.4-.84-10-1.57-9.35-3.53-21,14.38-24.66h0a2.3,2.3,0,0,1,.2-.12c3.59-2.43,7.29-4.84,10.88-7.16,6.08-3.94,12.37-8,18.26-12.35l3.18-2.34v51.11l-.82.6c-3,2.21-6.14,4.43-9.55,6.79l-.52.35Z"/><path class="cls-2" d="M916.28,1581.25c-.12-.63-.25-1.27-.38-1.9-.3-1.47-.61-3-.8-4.54s-.47-3.14-.73-4.69a47.23,47.23,0,0,1-1-12,44.61,44.61,0,0,0-.38-8.34c-.84-7.94-1.79-16.94,8.4-22.07,13.17-6.62,24.51-15.6,34.8-24.33l2.5-2.09,3.29-2.77v56.2l-.8.6c-11.7,8.82-23.54,17.07-35.19,24.52a22.6,22.6,0,0,1-5,2.14c-.7.24-1.39.48-2.07.75l-2.25.89Z"/><path class="cls-4" d="M857.06,1618v-64.32c0-2.35.1-4.73.21-7,.23-5.37.45-10.43-.5-15.28-1.2-6.07-6-9.63-11.15-13.41a65.81,65.81,0,0,1-6.35-5.09q-5.43-5.14-10.92-10.25c-13.83-12.92-28.13-26.29-41.05-40.77-11-12.31-22.54-24.49-33.71-36.28-10.36-10.94-21.08-22.25-31.34-33.64-9.17-10.19-17.9-21-26.35-31.55-4.09-5.09-8.33-10.36-12.56-15.48-6.33-7.65-12.79-15.4-19.05-22.9l-9-10.82,2.73-2.89c8.5,6.33,16.54,13.34,24.32,20.12,8.75,7.63,17.8,15.53,27.46,22.38,7.27,5.15,13.74,11.52,20,17.67,4.47,4.39,9.09,8.93,13.92,13,11.21,9.32,22.82,18.56,34,27.5,10.4,8.28,21.14,16.83,31.56,25.44,12.23,10.1,25.83,18.69,39,27,3,1.9,6,3.8,9,5.73l.87.57c1.12.76,2.82,1.9,3.83,1.9.82,0,1.48-1.79,1.73-4.68a42.34,42.34,0,0,0-.34-8.11,52,52,0,0,1-.42-7c.33-11.9.26-24,.2-35.75-.12-20.14-.23-41,1.64-61.47a214.87,214.87,0,0,0,.38-24.07c-.14-6.67-.29-13.57.09-20.35.74-13.2,1.84-26.6,2.9-39.55.94-11.53,1.91-23.46,2.63-35.19.4-6.59.39-13.35.38-19.88,0-6.94,0-14.11.45-21.17.5-7.36,1.41-14.81,2.28-22,1.3-10.7,2.64-21.75,2.65-32.57,0-18.6.85-38.87,2.61-63.79,1.14-15.88,2.83-32,4.47-47.51,1.1-10.54,2.25-21.43,3.21-32.15,1-11.06,1.61-22.35,2.2-33.28.2-3.55.39-7.1.59-10.65.13-2.28.17-4.63.2-6.9,0-3.49.1-7.09.49-10.65.48-4.23,1.22-8.51,1.93-12.64,1.32-7.58,2.67-15.42,2.36-23a193.09,193.09,0,0,1,.78-22.27,184.74,184.74,0,0,0,.74-22.62c-.31-6.28.58-12.83,1.44-19.16a123.14,123.14,0,0,0,1.52-17c0-.78,0-1.56,0-2.35a69.36,69.36,0,0,1,.59-12.53c1.73-10.28,2.33-20.89,2.91-31.16.38-6.7.78-13.63,1.48-20.45.43-4.2,1-8.45,1.62-12.56a182.08,182.08,0,0,0,2.26-22.92l.1-7.56,3.65,6.62a10.16,10.16,0,0,1,1.23,5c0,5.54-.08,11.17-.17,16.62-.19,12-.38,24.38.47,36.45.75,10.93.49,21.93.24,32.57-.12,5.31-.25,10.8-.25,16.19v12c0,21.15,0,43-.32,64.53-.19,13.3-.53,26.82-.86,39.89-.42,16.42-.85,33.4-1,50.1-.17,22.63.49,45,1.54,71.61,1,26.93.79,54.34.54,80.84q-.14,13-.21,26.09c-.18,39-.47,78.76-.74,117.16q-.2,27.92-.39,55.83c-.08,12-.09,24.17-.1,35.95,0,29.88,0,60.79-1.21,91.16-.22,5.6.68,7.16,1.08,7.57a.75.75,0,0,0,.62.23h0c1.17,0,3.11-1,4.81-2,.87-.46,1.76-.94,2.63-1.34,14.35-6.55,27.24-13,39.41-19.86l3-1.67v43.44l-.74.6c-3,2.44-6.92,5.68-10.73,9.18-8.27,7.62-17.35,14.23-26.14,20.62l-1.42,1c-.84.61-1.72,1.22-2.61,1.83-5.53,3.83-11.25,7.79-11.11,14.34.26,11.77,1.14,23.76,2,35.35.59,8,1.2,16.28,1.6,24.44.26,5.5.18,11.09.11,16.48l0,2.43Z"/><path class="cls-2" d="M918.28,1466.05a3.25,3.25,0,0,1-2.44-1.19c-2.61-3-2.53-11.9-2.1-15.51a8.18,8.18,0,0,0-.19-2.22,12.61,12.61,0,0,1-.25-3.08c.14-2,.14-4.52.13-7,0-8.34.13-13.51,3.33-14.81,6.89-2.83,13.23-6.87,19.36-10.78,4.47-2.85,9.09-5.8,13.94-8.29,2.84-1.46,5.77-3,9-4.86l3-1.7V1445l-1,.57c-5.63,3.11-11.47,6-17.13,8.8-2.89,1.43-5.79,2.87-8.67,4.33-1.42.73-2.85,1.58-4.35,2.49-4,2.39-8.09,4.87-12.41,4.87Z"/><path class="cls-2" d="M913.12,1422.27c2.21-8.58,2-16.4,1.89-24-.08-4.25-.17-8.28.15-12.39a8.53,8.53,0,0,0-.14-1.65c-.29-2-.73-5,2.84-7.36,6-3.83,11.87-8,17.58-12q4-2.81,8-5.58a163.17,163.17,0,0,0,15.28-12l3.32-2.92v47.12l-.94.59c-4,2.52-8.23,5.1-12.48,7.67-2.2,1.33-4.48,2.62-6.7,3.86-9,5.08-18.34,10.33-25.17,20.29Z"/><path class="cls-2" d="M915.78,1370.92c-.07-.53-.16-1.06-.26-1.6a23.62,23.62,0,0,1-.43-3.84c-.06-18.13-.05-32.91,0-46.51,0-.21,0-.41,0-.62a4.85,4.85,0,0,1,2.41-5.17c14-8.94,27.89-18.76,41.28-29.19l3.23-2.51v57.42l-.65.6c-14.15,12.92-26.4,22.52-38.56,30.23-.85.53-1.68,1.09-2.51,1.65-.47.32-.94.64-1.42.95l-2.66,1.76Z"/><path class="cls-2" d="M917.06,1306.5c0-18,0-35.19,0-52.35,0-1.94.14-4.05,1.86-4.65,8.37-3,15-8.42,22.11-14.1,3.21-2.58,6.52-5.25,10-7.64l7.81-5.46,3.15-2.23v56l-.77.6c-9.1,7.06-18.34,14.14-27.28,21q-6.87,5.26-13.67,10.49l-3.22,2.47Z"/><path class="cls-2" d="M917.3,1242.49l-.09-1.33c-.09-1.05-.17-2.15-.19-3.26q-.09-6.76-.14-13.53c-.11-11.95-.23-24.31-.63-36.44-.1-3.16,1.3-4,2.75-4.67l.62-.29a285.14,285.14,0,0,0,39.16-25l3.22-2.49v59.42l-.78.6c-5.52,4.26-11.23,8.44-16.75,12.49-6.36,4.67-12.94,9.5-19.25,14.43a9.28,9.28,0,0,1-3.94,1.54c-.5.11-1,.21-1.38.34l-2.43.75Z"/><path class="cls-2" d="M917.68,1176.79c-.06-.93-.14-1.86-.21-2.79-.18-2.14-.36-4.35-.38-6.56-.09-10.18,0-20.14,0-28.53,0-2.67.32-4.61,1.88-5.35,14.65-7,27.43-16.94,39.79-26.55l3.23-2.51v46l-7.36,5.36c-8,5.85-16.3,11.9-24.5,17.79a36.59,36.59,0,0,1-6.63,3.49c-1,.45-2,.88-2.94,1.35l-2.68,1.33Z"/><path class="cls-2" d="M917.86,1126.92c-.08-1-.18-2-.28-3-.22-2.2-.44-4.48-.48-6.76l0-1.67c-.11-6.7-.23-13.62.07-20.45,0-.69.05-1.37.06-2,.11-5.19.21-10.1,7.85-15.52a359.49,359.49,0,0,0,33.61-26.41l3.34-3v51.35l-.72.6c-9.17,7.62-19.39,15.4-31.25,23.75a39.74,39.74,0,0,1-6.51,3.49c-.93.42-1.86.85-2.77,1.31l-2.65,1.33Z"/><path class="cls-2" d="M916.84,1074.72c0-1.08,0-2.16,0-3.24,0-2.25,0-4.57.22-6.88a61.29,61.29,0,0,0-.61-11.81c-1.25-10.91-2.66-23.27,12.61-32.09a169.3,169.3,0,0,0,29.55-21.65L962,996v45.56l-.59.59A367.49,367.49,0,0,1,929.88,1070a63.57,63.57,0,0,1-6.87,4.53c-1,.62-2.08,1.25-3.1,1.9l-3.16,2Z"/><path class="cls-2" d="M918.22,1025a2.84,2.84,0,0,1-2-.83c-1.05-1.06-1.14-2.76-1.13-4.41q0-6.47,0-12.94c0-7.75,0-15.76.07-23.65.13-8.59,2.32-9.28,3.14-9.55,7.42-2.34,13-7.18,19-12.3,2.53-2.18,5.15-4.44,7.9-6.45,4.45-3.27,9-7,13.53-11l3.33-3v49.34l-.65.6c-8.7,7.93-18.07,15.36-27.13,22.55-4.09,3.24-8.31,6.59-12.41,9.94A5.93,5.93,0,0,1,918.22,1025Z"/><path class="cls-2" d="M915.61,966.56c0-.54.08-1.09.13-1.63.1-1.17.2-2.28.24-3.4,0-1.41.07-2.82.09-4.22,0-2.31.06-4.69.25-7.06a57.36,57.36,0,0,0-.21-8.32c-.62-8.56-1.32-18.26,9.77-24.52l.24-.14a37.21,37.21,0,0,0,7.58-5.13l5.87-5.66c6.3-6.07,12.82-12.34,19-18.7l3.43-3.54v50l-.63.59a437.7,437.7,0,0,1-37.31,31.11,15.39,15.39,0,0,1-4,2c-.54.2-1.08.4-1.6.63l-3.06,1.35Z"/><path class="cls-2" d="M918.09,914.29c-.06-.17-.16-.33-.24-.5a4.46,4.46,0,0,1-.72-2.61,81.63,81.63,0,0,0,0-11.38c-.62-12.17-1.25-24.74,14.39-33.63,8.91-5.06,17.52-12,27.1-21.84L962,840.8v37.37l-.54.58c-9.46,10.07-22.23,23.09-37.2,34.45a20.51,20.51,0,0,1-2.27,1.45l-1,.59-2,1.26Z"/><path class="cls-2" d="M917.94,867.93q-.13-2.89-.28-5.79c-.21-4.36-.43-8.87-.57-13.32-.13-3.85-.13-7.77,0-11.63,0-1.17,0-2.48-.12-3.87-.23-3.79-.47-7.71,1.7-10.14a261.38,261.38,0,0,1,19.88-19.28c4.87-4.4,9.9-8.94,14.58-13.68,1.83-1.85,3.65-3.73,5.42-5.6L962,781v51l-.59.59c-5.83,5.82-11.83,11.68-17.63,17.34-2.39,2.33-4.79,4.66-7.17,7a108,108,0,0,1-10.54,8.69c-1.62,1.22-3.29,2.48-4.88,3.75l-3.07,2.45Z"/><path class="cls-2" d="M917.8,813.09c-.07-.3-.15-.6-.23-.9a10.47,10.47,0,0,1-.48-2.69c-.05-14,0-25.56,0-36.28,0-2,.17-4.3,1.76-5.32,16.32-10.59,29.17-25.19,39.58-38.08l3.56-4.4V774l-.48.56a328.73,328.73,0,0,1-37.86,37.71c-.63.53-1.29,1-1.92,1.45-.27.19-.54.38-.8.58l-2.49,1.84Z"/><path class="cls-2" d="M919.85,762.73A2.53,2.53,0,0,1,918,762c-.84-.84-1-2.1-1-3.74l0-10.27c0-9.84.08-20-.09-30a10.34,10.34,0,0,1,4.77-9.5c13.09-9.14,25.1-20.6,36.7-35L962,669v50l-.43.55c-9.63,12.25-22.69,28-38.34,41.41C922,762,921,762.73,919.85,762.73Z"/><path class="cls-2" d="M917.62,702.73c-.06-.88-.1-1.77-.15-2.65-.1-1.82-.21-3.7-.43-5.51a28.52,28.52,0,0,0-.61-3.15,18.49,18.49,0,0,1-.68-6.6,27.48,27.48,0,0,0-.13-5.68c-.41-4.51-.87-9.62,3.4-12.88a223.32,223.32,0,0,0,28.13-26.21l1.57-1.7,1.45,1.8a90.54,90.54,0,0,1,11.64,18.45l.19.4v5l-.46.56a335.36,335.36,0,0,1-32.88,33.94,43.26,43.26,0,0,1-5.45,4c-.82.54-1.64,1.09-2.43,1.65l-2.91,2.06Z"/><path class="cls-5" d="M935.55,508.77c-12.48,0-25.11-1-37.31-1.9-6.5-.5-13.21-1-19.81-1.37-22.4-1.23-43.77-6.17-63.74-11.13-23.24-5.77-48-12.84-71.7-25.44-6.63-3.53-13.64-6.69-20.42-9.75-12.6-5.68-25.62-11.56-37.1-20.13-4.57-3.41-9.12-7-13.51-10.48-7.43-5.87-15.12-11.94-23.06-17.26-17.86-12-33.73-26.6-49.06-40.76l-4.47-4.12c-12.16-11.17-22.58-24.1-32.65-36.61q-3.08-3.82-6.17-7.63a313.06,313.06,0,0,1-20.4-28.28c-6.08-9.44-11.48-19.44-16.95-29.71-1.16-2.19-2.36-4.38-3.55-6.56-4.44-8.12-9-16.51-12.19-25.33-4.32-12-8.21-24.41-12-36.37-3.4-10.84-6.93-22.05-10.75-32.93-9.17-26.1-12.76-53.43-15.65-79.18-.44-4-.83-8-1.2-11.9-.25-2.58-.5-5.15-.76-7.73l-.23-2.2H962V507.56l-1.86.14c-6.46.46-11.79.76-16.77.94C940.85,508.73,938.22,508.77,935.55,508.77Z"/><path class="cls-6" d="M907.18,653c-1.78,0-3.28-1.34-4-3.58a13,13,0,0,0-.69-1.59,12.34,12.34,0,0,1-1.17-3.2c-1.3-7.44-2.54-15-3.75-22.36-.43-2.65-1.31-8-1.31-8v-.06c-1.54-14.71,3.71-27.72,8.8-40.3l.3-.75c1.66-4.14,4.75-6.42,8.68-6.42a11.68,11.68,0,0,1,3.33.51,13.29,13.29,0,0,1,9.52,10.93c3.57,23.71-1.59,46.76-16.24,72.56A4,4,0,0,1,907.18,653Z"/><path class="cls-2" d="M898.36,702.62a5,5,0,0,1-2.65-1.11c-13.29-8.27-23.94-19.38-33.48-30.16l-.91-1,.64-1.22c4.06-7.76,8.27-15.33,12.53-22.51L876,644l1.8,2.34A85.14,85.14,0,0,0,893,661.73a15.12,15.12,0,0,0,2.89,1.57c3,1.4,7.17,3.31,6.93,8.8-.29,6.52-.83,13.12-1.34,19.5q-.32,3.79-.61,7.59C900.85,700.12,900.66,702.62,898.36,702.62Z"/><path class="cls-2" d="M896.58,752.45a4.67,4.67,0,0,1-2.59-.87,205.74,205.74,0,0,1-23.59-17.77,324.54,324.54,0,0,1-25.69-25.74l-.84-1,.51-1.17c4.26-9.8,8.73-19.37,13.27-28.44l1.35-2.69,2,2.29c11.48,13.45,22.32,23.45,34.11,31.48.37.25.86.51,1.37.78,2,1,5.41,2.82,4.39,7.21-1.64,7-1.07,14-.48,21.37.21,2.61.43,5.31.54,8a7.65,7.65,0,0,1-1.65,5.36A3.62,3.62,0,0,1,896.58,752.45Z"/><path class="cls-2" d="M894.2,810.06a3.77,3.77,0,0,1-2.42-1.11c-4-3.52-8.22-7-12.28-10.43-10-8.35-20.27-17-29.16-26.69a266.41,266.41,0,0,1-21.18-25.61l-.61-.86.36-1c3.72-10,7.64-19.93,11.64-29.46l1.25-3,2.11,2.47c13,15.27,28.52,28.25,42,38.93a17.82,17.82,0,0,0,4.35,2.11c4.11,1.58,10.3,4,8.46,11.88-2,8.49-1.85,17.25-1.73,25.71.07,4.31.13,8.76-.07,13.16v.18C896.79,808.81,895.88,810.06,894.2,810.06Z"/><path class="cls-2" d="M895.63,656.84a187,187,0,0,1-15.43-17.12l-.84-1.11.74-1.17c3-4.84,6.16-9.56,9.26-14l2.47-3.56,1.1,4.19a18,18,0,0,0,.63,1.92c2.4,6,3.22,12.53,4.09,19.42.39,3.15.8,6.4,1.37,9.69l1.09,6.27Z"/><path class="cls-2" d="M889.15,854.06c-1.82-1.33-3.72-2.65-5.55-3.93A134.37,134.37,0,0,1,871.46,841c-19-16.65-39-34.69-55.6-56l-.65-.83.33-1c3.17-9.91,6.46-19.64,9.78-28.92l1.29-3.62,2.22,3.13c10.65,15,24.13,28.06,37.17,40.7,5.92,5.74,12,11.67,17.83,17.73a12.75,12.75,0,0,0,4.37,2.41c3.43,1.38,8.13,3.28,7.61,9.64-.53,6.73-1.46,13.48-2.36,20-.39,2.83-.78,5.65-1.14,8.45l-.42,3.37Z"/><path class="cls-2" d="M888.45,902.59c-1,0-2.1-.56-3.67-1.92-6.6-5.72-13.35-11.49-19.88-17.08-11-9.42-22.41-19.16-33.42-29-10.41-9.28-18.69-20.47-27-32.09l-.55-.78.25-.92c2.61-9.29,5.38-18.67,8.23-27.9l1.1-3.55,2.36,2.87c22.91,27.94,46.38,50.26,71.76,68.24,4.9,3.47,5.19,5.22,4.82,6.47-1.83,6.27-1.68,12.58-1.52,19.25.09,3.64.18,7.41-.09,11.14,0,.15,0,.57.06.85.13,1.2.26,2.57-.65,3.58A2.47,2.47,0,0,1,888.45,902.59Z"/><path class="cls-2" d="M882.49,953c-1.37,0-2.28-1-3.33-2.16a13.54,13.54,0,0,0-1.62-1.6c-3-2.33-6.16-4.57-9.23-6.74a165.42,165.42,0,0,1-13.49-10.22l-4.72-4.08c-9.73-8.41-19.79-17.1-28.17-27-9.48-11.22-19.49-23.39-28.53-36.28l-.52-.74.22-.88c2.68-11,5.56-22.18,8.57-33.22l1.16-4.26,2.44,3.69c3.41,5.14,6.16,9,8.94,12.45,18.65,23.32,42.15,42.69,62.88,59.79A24.44,24.44,0,0,0,880.7,904c4,2.21,9.51,5.24,8.29,13.22l-.39,2.52c-1.36,8.73-2.76,17.76-3,26.59C885.52,949.16,885.42,953,882.49,953Z"/><path class="cls-2" d="M877.71,1001.25c-1.76,0-3.84-.87-6.54-2.73-1.47-1-3.08-2-4.64-2.87a41.58,41.58,0,0,1-8.83-6.28c-6.72-6.84-14.19-13.16-21.41-19.28-11.15-9.43-22.68-19.19-32-31.26-3.27-4.22-6.75-8.39-10.12-12.43-3.82-4.56-7.76-9.28-11.43-14.11l-.56-.73.19-.89c2.68-12.73,5.56-25.58,8.55-38.21l1.14-4.78,2.52,4.21c10.61,17.67,21.46,31.87,33.17,43.42s25,22.21,37.79,32.47c3.72,3,7.43,6,11.11,9a23.09,23.09,0,0,0,2.58,1.7c3,1.8,7.14,4.27,5.37,9.74-1.23,3.8-1.25,7.64-1.27,11.7a46.57,46.57,0,0,1-.86,10.47,12.58,12.58,0,0,0,0,2c.08,2.58.18,5.79-1.61,7.64A4.19,4.19,0,0,1,877.71,1001.25Z"/><path class="cls-2" d="M874,1050.82a4.63,4.63,0,0,1-2.34-.86c-.23-.13-.47-.28-.74-.41-27.41-14.14-50.09-35-72-55.19l-3.06-2.82a257.62,257.62,0,0,1-23.62-24.76l-.59-.71.16-.92c2.59-14.6,5.4-29.33,8.35-43.78l.84-4.12,2.67,3.25c.78,1,1.7,2.1,2.58,3.3,12.08,16.39,27.11,35.25,47,50.85,4.46,3.48,8.8,7.24,13,10.87,6.83,5.92,13.89,12,21.62,17.1a20.18,20.18,0,0,0,3.78,1.67c3.94,1.45,9.32,3.44,9,10.1-.42,7.55-1.43,15.16-2.4,22.52-.44,3.34-.9,6.8-1.29,10.2C876.64,1049.57,875.64,1050.82,874,1050.82Z"/><path class="cls-2" d="M869.26,1103.09a5.92,5.92,0,0,1-3.21-1.11c-5.89-3.89-11.92-7.79-17.75-11.56-13.44-8.68-27.34-17.67-40.52-27.22a237.7,237.7,0,0,1-44.48-42.14l-.56-.69.13-.88c2.19-14.65,4.59-29.51,7.12-44.16l.71-4.12,2.76,3.14c1.08,1.22,2.17,2.42,3.26,3.62a398.22,398.22,0,0,0,43.07,41.09c2.55,2.07,5.07,4.17,7.58,6.27,11.39,9.5,23.16,19.32,36.81,26,.72.36,1.55.73,2.4,1.13,4.84,2.22,9.42,4.31,9.47,7.5.2,10.81-.82,21.77-1.8,32.38-.17,1.81-.34,3.63-.5,5.44C873.47,1101,871.7,1103.09,869.26,1103.09Z"/><path class="cls-2" d="M867.79,1154.82c-4.15-2.76-8.32-5.46-12.35-8.07-9-5.82-17.5-11.32-25.74-17.49-17.14-12.86-32.27-28.29-46.89-43.21-4.21-4.29-8.55-8.73-12.88-13A46.88,46.88,0,0,1,758.16,1054l-.14-.44.06-.46c1-7.62,2.11-15.33,3.21-22.92l.64-4.42,2.87,3.42c14.78,17.61,29.73,31.71,45.72,43.11,15.68,11.18,36.65,25.47,59.83,37a4.55,4.55,0,0,1,2.59,5.38c0,.2-.06.4-.07.59-.41,9.35-.91,18.54-1.44,28.28-.18,3.24-.72,13.33-.72,13.33Z"/><path class="cls-2" d="M865.62,1217.75c-3.12-2.71-6.21-5.37-9.26-8-21.06-18.19-41-35.38-58.3-55.11q-4-4.56-8.08-9.08c-12.28-13.73-25-27.92-35-44.09l-.2-.31a6.72,6.72,0,0,0-1.45-1.87l-1-.68.13-1.19c1.09-9.37,2.29-19.21,3.57-29.25l.25-2,2,.3c3.13.47,5.79,4.36,6.08,4.81,12.52,18.82,29,34.1,43.49,46.94,14.67,13,29.31,25.36,47.06,33.46,2.14,1,12.87,6.16,13.34,12.06,1,12.19.85,24.49.7,37.51,0,4.86-.11,9.88-.11,15v4.38Z"/><path class="cls-2" d="M861.36,1279.65c-.47-.18-1-.34-1.57-.51a10.53,10.53,0,0,1-4.16-1.94c-3.36-2.93-6.7-6-9.93-9-4.07-3.74-8.29-7.61-12.56-11.22-25.7-21.72-46.45-47-65-71.17-6.07-7.86-11.5-16.37-16.75-24.61q-2.15-3.36-4.3-6.71l-.38-.59.07-.68c1.35-14.6,2.85-29.34,4.44-43.81l.6-5.45,3.05,4.56q2,3,4,6.12c4.67,7.14,9.49,14.52,15.12,20.9q4.77,5.4,9.52,10.86c21.66,24.78,44,50.41,72,69.59.49.34,1,.68,1.54,1,5.25,3.49,13.2,8.76,9.8,19.18-2.31,7.1-2.1,14.31-1.88,21.94a97.59,97.59,0,0,1-.39,15.73q-.16,1.35-.3,2.7c0,.47-.09.93-.14,1.4l-.28,2.6Z"/><path class="cls-2" d="M856.54,1345.21c-3.37-6.08-8.26-10.06-13-13.9a79.84,79.84,0,0,1-7.64-6.78c-5.9-6.23-11.53-12.86-17-19.28-5.73-6.75-11.65-13.74-17.86-20.19-15.62-16.27-29.49-34.4-42.15-51.57-5.79-7.85-11.16-16.16-16.36-24.2l-.36-.56,0-.67c.93-13.24,2-26.9,3.2-40.6l.51-5.86,3.16,5c14,21.94,30.21,41.83,45.58,60,15.64,18.56,33.82,34,54.24,50.92a42.91,42.91,0,0,0,5.24,3.4c4.13,2.43,8,4.72,8.12,8,.35,13.25-.4,26.4-1.2,40.31-.28,4.9-.57,10-.81,15.06l-.34,7Z"/><path class="cls-2" d="M849.59,1458.79c-6.94-5.18-13.75-10-20.34-14.72-14.07-10-27.36-19.48-39.52-30.49a33.86,33.86,0,0,0-4.94-3.42c-4.34-2.67-9.26-5.69-9.41-11.65-.58-24.09-2.46-49.78-12.23-74.46a2.56,2.56,0,0,0-.11-.24,3.57,3.57,0,0,0-.12.4c-1.18,5.42.29,10.53,1.84,15.94a56.49,56.49,0,0,1,2.33,10.63c.9,10,2.31,19.88,3.79,30.36.64,4.51,1.29,9.11,1.91,13.83l.69,5.16-4-3.38c-3.08-2.63-6.22-5.17-9.26-7.63-7.78-6.3-15.13-12.25-21.4-19.4-2.54-2.9-2.05-7.46-1.53-12.29a37.37,37.37,0,0,0,.33-7.27l-.48-4.77c-1.91-19-3.88-38.69-9.64-57.52-.5-1.63-1-3.26-1.49-4.89-2.52-8.34-5.13-17-8.23-25.23l-1.5-4,4,1.39c6.3,2.18,12.63,4.56,18.87,7.11.22-5.77.83-19.94,2.12-40.29l.39-6L745,1221c6.84,10.58,14.75,20.73,22.4,30.55,2.64,3.39,5.38,6.91,8,10.4,13.14,17.23,28.1,33.33,42.57,48.9,6.37,6.85,13,13.93,19.3,21a67.84,67.84,0,0,0,7.71,7c8,6.5,17,13.87,14.66,30.06-2.28,15.66-1.73,32.09-1.21,48,.23,7,.47,14.17.47,21.23v17.19l-3.85.75c-1.43-3.49-2.65-6.64-3.83-9.68-2.3-5.89-4.29-11-6.64-15.83-2.57-5.28-5.1-10.58-7.64-15.88-8.24-17.23-16.76-35-26.26-51.9-2.84-5-5.68-10.15-8.42-15.12-12.79-23.12-26-47-43.1-67.83a26.77,26.77,0,0,1-1.64-2.4c-.93-1.47-2.66-4.2-3.74-4.2a1.26,1.26,0,0,0-.65.28c-1.11.79.56,3.39,2.53,6.21.47.67.92,1.31,1.3,1.91,2.53,4,5.23,8,7.85,11.88,4.67,6.94,9.51,14.12,13.62,21.58,15.17,27.61,30.08,55.94,44.5,83.35l3.27,6.22c5.79,11,11.45,22.2,17.44,34,2.84,5.63,5.79,11.46,8.89,17.56Z"/><path class="cls-2" d="M816.45,1618l-.17-4a84.13,84.13,0,0,0,16.73-2.8,37.63,37.63,0,0,1,10.3-1.84c5,0,8.25,2,9.67,6l1,2.68Z"/><path class="cls-2" d="M754.36,1573.34a281.74,281.74,0,0,1-28.89-2c-4.85-.5-9.86-1-14.77-1.4-11.91-.9-23.93-2.45-35.56-3.94l-1.68-.21-.48-1c-4.59-9.35-8.91-18.41-12.84-26.92l-1.54-3.35,3.65.53c4.43.65,9,.89,13.47,1.12a120,120,0,0,1,16.44,1.63,73.23,73.23,0,0,0,14.08,1.21c4.28,0,8.63-.25,12.84-.5s8.64-.5,13-.5c1.38,0,2.68,0,4,.07.93,0,1.86.06,2.78.06,9,0,18.3-1.72,27.3-3.38,3.3-.61,6.7-1.24,10-1.77,6.16-1,12.41-2.19,18.45-3.34,7.9-1.51,16.06-3.07,24.17-4.21a32.77,32.77,0,0,0,8.23-2.86c3.73-1.64,7.58-3.34,11.49-3.34,4.77,0,8.67,2.53,11.9,7.72,4.19,6.76,3.42,14.25,2.68,21.49a64.38,64.38,0,0,0-.53,9.86v.1c0,1.67-1.6,2-2.21,2.17a5.89,5.89,0,0,0-.67.17c-7.08,3.29-14.59,4.46-21.85,5.59-2.65.41-5.39.84-8.05,1.36-9.86,1.94-19.86,2.48-29.53,3-7,.38-14.17.78-21.19,1.69A113.23,113.23,0,0,1,754.36,1573.34Z"/><path class="cls-2" d="M768.52,1611.88c-4.37,0-8.81-.1-13.18-.28-19.84-.84-39.78-3.18-59.07-5.45l-2.25-.27-.5-.92c-5.91-11.11-11.63-22.21-17-33l-1.86-3.74,5.05,1.11c19.09,4.28,40.32,6.64,66.81,7.44,3.53.11,7.22.16,11,.16,15.12,0,30.13-.83,48-2.09,8.62-.59,17.37-2.36,25.83-4.08,2.37-.48,4.74-1,7.1-1.41l1.56-.31c2.68-.52,5.45-1.06,7.83-1.35.41,0,.78-.07,1.12-.07a4.21,4.21,0,0,1,3.83,1.77c1.43,2.17.14,5.12-.7,7.07-.13.29-.31.69-.34.81a11.4,11.4,0,0,0-.09,4.66,14.17,14.17,0,0,1,0,4.41,16.83,16.83,0,0,0,.21,5.16c.45,3.44,1,7.33-1.46,10.28-1.8,2.19-4.9,3.39-9.46,3.68l-3,.17a128.58,128.58,0,0,0-14.82,1.41A315.85,315.85,0,0,1,768.52,1611.88Z"/><path class="cls-2" d="M677.8,1533.63a99.4,99.4,0,0,1-19.57-1.87l-1-.2-.43-.93c-4.8-10.54-9.51-21.29-14-32l-1.46-3.47,3.69.74c2.17.43,4.34.89,6.51,1.36,4,.86,8.23,1.75,12.35,2.43a172.68,172.68,0,0,0,27.65,1.79c3.05,0,6.1,0,9.14-.06s6.13-.07,9.19-.07c5.32,0,12.36.09,19.55.75,2.13.2,4.4.3,6.75.3h0a111.85,111.85,0,0,0,25.26-3.15,139.29,139.29,0,0,1,28.31-3.79c2.37-.06,4.89-1.16,7.33-2.22,2.66-1.15,5.42-2.35,8.23-2.35a8.89,8.89,0,0,1,4.88,1.43c6.22,4,11.69,9.18,17,14.22,2.23,2.12,4.54,4.32,6.87,6.38l2.89,2.57-3.77.88c-4.24,1-8.55,1.89-12.71,2.77-3.28.69-6.68,1.41-10,2.15-27.49,6.19-56.51,10.13-88.71,12-1.61.09-3.27.14-5.08.14-3.57,0-7.14-.19-10.59-.37s-6.84-.35-10.22-.35c-2.48,0-4.7.09-6.78.29C685.25,1533.44,681.44,1533.63,677.8,1533.63Z"/><path class="cls-2" d="M700.55,1498.13c-9.7,0-18.35-.39-26.45-1.19-5.13-.51-10.26-1-15.39-1.47-5.59-.53-11.18-1-16.77-1.61l-1.19-.12-.46-1.11c-4.81-11.67-9.39-23.31-13.58-34.59l-1.33-3.57,3.69.93a241,241,0,0,0,36.68,6.2c9.84.93,19.83,1.38,30.55,1.38a530.39,530.39,0,0,0,56.08-3.39c2.26-.24,4.55-.72,7-1.23a52,52,0,0,1,10.56-1.48c7.26,0,12.56,3.25,16.66,10.24,2.07,3.49,5.32,6.34,8.77,9.35,1.71,1.49,3.48,3,5.09,4.67a10.41,10.41,0,0,1,2.21,3.74,2.07,2.07,0,0,1-.16,1.83,4.86,4.86,0,0,1-2.94,2.13c-5.1.8-10.3,1.74-15.33,2.65-11.92,2.17-24.24,4.41-36.49,4.94q-5.79.25-11.58.54C724.5,1497.54,712.44,1498.13,700.55,1498.13Z"/><path class="cls-2" d="M686.27,1458.36c-3.68,0-7.38-.16-11-.3s-7.21-.3-10.8-.3c-3,0-5.63.1-8.11.31-1,.09-2.12.14-3.21.14-7.86,0-15.9-2.36-23.67-4.63l-4-1.16-1-.28-.35-1c-4.07-11.16-7.88-22.3-11.34-33.1l-1.13-3.51,3.56,1c17,4.63,34.32,6.4,49,7.52l5,.39c5.82.47,11.84,1,17.73,1.09,2.32,0,4.64.13,7,.21,4,.14,8.18.28,12.26.28a107.16,107.16,0,0,0,16.82-1.14c1.72-.26,3.54-.71,5.48-1.19a42.91,42.91,0,0,1,10.06-1.67,12.87,12.87,0,0,1,8.21,2.57c5.7,4.43,10.22,10.36,14.59,16.09,1.78,2.33,3.61,4.74,5.49,7a9,9,0,0,1,1.19,2c.11.24.22.48.35.72l1.23,2.26-2.51.63-.62.17a9.44,9.44,0,0,1-1.94.42c-4,.39-8.1.81-12.15,1.23-10.14,1.06-20.62,2.16-31,2.6-2.71.12-5.52.18-8.23.25-5.59.14-11.37.28-16.63.86A94.51,94.51,0,0,1,686.27,1458.36Z"/><path class="cls-4" d="M745.4,1069.41l-2.15-1.52a54.69,54.69,0,0,1-4.78-3.59c-25.48-22.12-44.05-48.51-55.21-78.43-2-5.32-3-11.29-4-17.07-1-6.17-2.15-12.56-4.41-18.16-.78-1.91-1.53-3.9-2.26-5.81-4.12-10.85-8.38-22.07-19.38-28.33a4,4,0,0,0-1.92-.68c-.21,0-.37,0-.58.35a4.64,4.64,0,0,0,.62,2.48c10.27,16,18.28,34.27,25.22,57.39a13.76,13.76,0,0,1,0,6c-.12.83-.23,1.62-.27,2.37l-.29,5.05-3.24-3.88C657.26,967,636.1,956.34,615.64,946c-14.43-7.3-29.36-14.86-42.33-25.12l-5.25-4.15,6.67.59c3.17.28,6.4.63,9.52,1,7,.76,14.19,1.53,21.25,1.61h.4c11.87,0,22.5-5.59,32.22-11.63a5.38,5.38,0,0,0,1.72-3.73c0-1.37-1.39-2.36-4.05-2.94-27.69-6-44.26-26.35-56.81-45.42-1.42-2.16-2.64-4.44-3.83-6.65-.54-1-1.07-2-1.62-3l-2-3.61,4.09.66c1.51.24,3,.38,4.69.53,3.67.34,7.47.68,10.83,2.26,3.81,1.79,7.64,3.55,11.47,5.31,14.71,6.74,29.92,13.72,43.67,22.57s26.25,20.42,38.24,31.56l4.62,4.28a167.81,167.81,0,0,1,34.7,44.34c7.19,13.55,13.32,28.9,18.73,46.94,5,16.6,7.73,34.77,8.43,55.53.11,3.37-.09,7.78-2.69,11.95l-1.14,1.83Z"/><path class="cls-2" d="M676.42,1419.63a167.05,167.05,0,0,1-21-1.12c-14.2-1.78-28.44-4.84-42.2-7.8l-2.85-.61L610,1409c-3.58-11.61-6.85-23.12-9.72-34.21l-.85-3.3,3.3.86c3.75,1,7.52,1.87,11.2,2.64,10.66,2.23,23.26,4.65,35.92,5.62,3.24.25,6.7.36,11.23.36q3.11,0,6.21,0c2.09,0,4.17,0,6.25,0a116.62,116.62,0,0,1,18.09,1.13,8,8,0,0,0,1.33.1,24.1,24.1,0,0,0,4.65-.64,26.25,26.25,0,0,1,5.16-.69,9.2,9.2,0,0,1,6.86,2.77c6.95,7,13.72,14.39,20.26,21.54,2.27,2.48,4.54,5,6.83,7.44a8.77,8.77,0,0,1,1.3,2c.13.24.25.48.38.71l1.4,2.33-2.64.64-.77.23a8.37,8.37,0,0,1-2.37.48l-4.06.06c-7.71.11-15.68.23-23.52.23H704.3c-4.61,0-9.33.11-13.89.22S681.08,1419.63,676.42,1419.63Z"/><path class="cls-2" d="M731.73,1362.48c-.41-.16-.85-.3-1.28-.44a10.86,10.86,0,0,1-3.47-1.61c-2.24-1.72-4.56-3.45-6.81-5.11-6.52-4.84-13.26-9.85-19.12-15.65-.78-.77-1.66-1.52-2.59-2.3-3.81-3.23-8.56-7.24-7.86-15.65a154.7,154.7,0,0,0-2-40.84c-2.17-11.5-5.87-23-9.44-34.07l-1.15-3.57,3.42.78c10.38,2.37,20.84,5.24,31.08,8.54l1.09.35.25,1.12c1.51,6.82,3.22,14.55,5.56,21.87,5.09,15.9,9.79,31.51,11.56,47.81.53,4.85,1.27,9.78,2,14.55.63,4.19,1.28,8.52,1.8,12.8a34.49,34.49,0,0,1-.1,6.75c-.08,1-.15,1.94-.19,2.9l-.11,2.84Z"/><path class="cls-2" d="M700.55,1618l-.57-1c-.62-1.11-1.22-2.23-1.82-3.35l-2-3.7,4.11.8c7,1.36,14.58,2.44,23.05,3.3l-.2,4Z"/><path class="cls-4" d="M715,1133.27c-.56-.45-1.14-.88-1.73-1.3a27.39,27.39,0,0,1-4-3.38c-15.66-17.12-32.47-38.48-38.48-67.07-3.48-16.58-8-33.16-12.43-49.21-1.92-7-3.9-14.22-5.75-21.29l-.13-.49,2-8.06,2.18,1,2.52,1.1c1.78.77,3.61,1.56,5.4,2.42,15.07,7.27,22.42,20.61,29.53,33.52,3.85,7,7.84,14.23,13,20.25l1.72,2c4.79,5.54,10.21,11.82,12.09,18.83,3.8,14.22,2.15,28.78.55,42.86-.4,3.54-.82,7.21-1.14,10.79-.19,2.16-.52,4.31-.83,6.39-.19,1.24-.38,2.49-.54,3.73-.18,1.44-.32,2.92-.46,4.36-.07.74-.14,1.49-.22,2.23l-.38,3.64Z"/><path class="cls-2" d="M700.89,1379.26a56,56,0,0,0-11.53-1H683.7a296.63,296.63,0,0,1-45.61-3.65c-3.68-.58-7.45-1.09-11.1-1.59-9-1.22-18.27-2.48-27.27-4.77l-1.16-.3-.29-1.16c-2.46-9.93-4.65-19.8-6.52-29.31l-.61-3.08,3.05.75a197.55,197.55,0,0,0,47.22,5.84h0c3.82,0,7.7-.11,11.54-.35l2.35-.15c2.52-.17,5.13-.35,7.72-.35,7.56,0,17,1.42,23,12.49,2.93,5.38,6.79,10.34,10.88,15.6,1.95,2.5,4,5.1,6,7.83l3,4.19Z"/><path class="cls-2" d="M683.71,1324.1c-2.59-2.52-5.59-4.93-8.48-7.26-6.61-5.31-13.44-10.81-15.85-17.95-2.21-6.52-2.76-13.69-3.29-20.62-.51-6.69-1-13.61-3.06-20-1.08-3.4-1.94-6.92-2.77-10.32-.57-2.33-1.16-4.74-1.82-7.07l-.82-2.94,3,.42c8,1.1,16.14,2.5,24.1,4.15l1.38.29.19,1.4a130.53,130.53,0,0,0,3.76,19.28c5.17,17.62,7.41,36.42,7,59.16l-.08,4.62Z"/><path class="cls-4" d="M662.61,1172.75c-14.44-26-24.16-51.11-29.71-76.85-6-28-3.53-57-1.51-80.27l.15-1.82h1.83c3.51,0,6.61,1.5,9.61,3s6,2.93,9.42,2.93c.35,0,.71,0,1.07,0h.19c3.65,0,5.15,11.88,5.17,12a230.48,230.48,0,0,0,13.67,57c8.32,21.63,4.13,43.05-1.08,61.14-1.35,4.72-2.38,9.61-3.46,14.79-.52,2.47-1.05,5-1.65,7.69l-1.15,5.12Z"/><path class="cls-2" d="M643.63,1337.38a124,124,0,0,1-14.37-.72c-12.33-1.43-25.09-2.9-37.49-5.6l-1.31-.28-.24-1.31c-1.87-10.28-3.4-20.39-4.55-30l-.32-2.77,2.72.57q3,.63,6,1.21l4.12.83a196.57,196.57,0,0,0,39.32,4h0c2.27,0,4.57,0,6.85-.12h.13c1.19,0,3.25.74,3.87,2.32,2.25,5.79,6.24,10.36,10.46,15.19,3.55,4.06,7.21,8.25,9.93,13.34l1.56,2.94H667c-3.91,0-7.88.11-11.71.22S647.49,1337.38,643.63,1337.38Z"/><path class="cls-2" d="M652,1293l-6.8-6c-5.57-4.93-10.84-9.59-16.13-14.12A11.45,11.45,0,0,1,625,1267c-2.7-9.37-5.82-19.29-10.26-28.35l-1.42-2.91,3.24,0c5.23,0,13.82.37,25.11,1.58l1.34.15.37,1.29c.85,3,1.68,5.59,2.56,8,3.87,10.69,5.62,21.52,7.46,33,.6,3.71,1.22,7.56,1.92,11.4l1,5.66Z"/><path class="cls-4" d="M646.87,1014.87a3.75,3.75,0,0,1-2.07-.7c-13.82-9.38-28.1-19.07-40.11-31.94a12.23,12.23,0,0,1-2.24-4.07c-.25-.63-.51-1.28-.8-1.89l-1.18-2.46,2.7-.39a183.64,183.64,0,0,0,32.41-7.52,11,11,0,0,1,3.52-.65c5.66,0,6.14,5.72,6.4,8.79a12.91,12.91,0,0,0,.35,2.46,81.64,81.64,0,0,1,4.24,34.65C649.83,1013.89,648.26,1014.87,646.87,1014.87Z"/><path class="cls-2" d="M630.69,1299.24A44.76,44.76,0,0,1,626,1299a372,372,0,0,1-39.6-6.07l-1.43-.31-.14-1.46a271.54,271.54,0,0,1-1.46-30.28l.06-3.84,3.11,2.25c4.38,3.17,9.22,6,13.9,8.82l1.56.93a76.05,76.05,0,0,0,12.2,5.4c10.53,4,21.42,8.06,25.65,22l.78,2.58H637.9c-1,0-2.11,0-3.24.07S632.05,1299.24,630.69,1299.24Z"/><path class="cls-4" d="M621.3,1050.33c-7-4.41-56.06-62.41-60.39-71.34l-1.39-2.87h3.19c2.74,0,5.44,0,8.11,0S576,976,578.6,976c6.13,0,10.8.16,15.14.52,2.35.19,3.38,2.84,4.58,5.91a26.2,26.2,0,0,0,1.56,3.54c4.2,7.12,10.33,12.12,16.82,17.41,2.63,2.14,5.34,4.36,7.89,6.71,6,5.56,4.82,15.33,3.09,23.22q-1.14,5.23-2.24,10.49l-1.71,8.06Z"/><path class="cls-4" d="M590.74,1158.27a2.9,2.9,0,0,1-.66-.07c-4.87-1.11-6-5.73-6.64-8.49l-.09-.41c-1-4.11-2.12-8.27-3.2-12.3-3.75-14-7.63-28.54-7.8-44-.12-10.51.68-20.94,1.45-31,.29-3.8.59-7.73.83-11.61.24-3.67-2.4-9.09-3.84-9.54a.58.58,0,0,0-.2,0c-.6.39-1.19,3.34-1.47,4.75-.16.78-.32,1.55-.49,2.25-3.15,12.88-6.42,26.2-6.27,40.07a4.43,4.43,0,0,1-1.1,3.28,2.84,2.84,0,0,1-2,.87,4.09,4.09,0,0,1-3.12-1.78c-13-16-26.15-33.47-31-55.39a27.36,27.36,0,0,0-2.52-7.08c-1-1.94-2.12-4.43-.92-6.43s4.2-2.13,5.16-2.13a29,29,0,0,1,4.36.4l.1,0,.1,0a59.46,59.46,0,0,0,15.2,1.53c2.68,0,5.37-.07,8.22-.15s5.82-.16,8.77-.16a90.72,90.72,0,0,1,14.34,1c5.6.89,10.28,7.47,14,12.76l.5.7a52.33,52.33,0,0,0,27,20.07c7.63,2.54,6.23,8,5.31,11.68a11.74,11.74,0,0,0-.59,3.86c2.16,17.26-.36,33.18-7.48,47.3-4.77,9.46-10.1,18.85-14.8,27.13a107.4,107.4,0,0,1-6.47,9.69l-.95,1.33A5,5,0,0,1,590.74,1158.27Z"/><path class="cls-6" d="M617.69,1271.29a12.32,12.32,0,0,1-1.23-.08c-13.43-1.41-40.12-22.65-43.09-37-1.75-8.48,2.76-15.41,12.07-18.54l.41-.13.44,0c8.54.89,12.62,7,16.23,12.38.66,1,1.32,2,2,3,5.73,8,9,17.09,12.2,25.89,1.12,3.11,2.29,6.33,3.53,9.42.52,1.3,1,2.58.21,3.81A3.23,3.23,0,0,1,617.69,1271.29Z"/><path class="cls-6" d="M238,1255.44c.21-1.32.34-2.6.46-3.83a22.5,22.5,0,0,1,1.59-7.46c8.73-18.49,18.4-31.22,30.46-40.06,3.64-2.68,9.14-6.72,15.6-6.72a16.62,16.62,0,0,1,7.39,1.8c7.25,3.59,4.43,10.21,3.22,13l-.28.66c-5.36,13.1-15.17,24.17-30,33.83-7,4.56-14.72,7.18-23.68,10.21l-5.33,1.82Z"/><path class="cls-2" d="M223,1313.09a3.9,3.9,0,0,1-2.89-1.43c-1.69-1.82-.34-6.05,1-7.48,4-4.27,5.79-9.87,7.53-15.3l.42-1.3c4.66-14.48,11-29,32.11-33.37,6.63-1.37,13.51-5.44,19.9-11.78l3.49-3.46-.08,4.91c-.09,5.5-.33,17.34-.91,35l0,1-.86.58A185.43,185.43,0,0,1,265,1290.9c-9.62,4.94-19.37,10.07-28.8,15l-8.89,4.67a6.08,6.08,0,0,0-.85.71A5.12,5.12,0,0,1,223,1313.09Z"/><path class="cls-2" d="M196.7,1351.11c.85-1.3,1.56-2.37,2.18-3.29,1.06-1.56,1.82-2.68,2.45-3.83a78.83,78.83,0,0,0,3.69-8.27c2.7-6.67,5.48-13.57,10.66-15.54,11.29-4.28,22-10.08,32.33-15.69,5-2.74,10.26-5.57,15.48-8.19,6.22-3.11,11.69-6.06,16.72-9l3.14-1.85-.13,3.64c-.31,8.45-.66,17-1,25.31l-.05,1.07-.92.55a309.17,309.17,0,0,1-43.53,22.13c-8.45,3.42-16.86,6.92-25.77,10.62l-12.78,5.29-6,2.47Z"/><path class="cls-2" d="M145.31,1433.82c2-3.11,4-6.19,5.95-9.24,4.54-7.08,8.83-13.77,13.34-20.48.6-.9,1.19-1.86,1.81-2.87,2.38-3.85,4.83-7.84,8.62-9.58,4-1.86,8.5-2.57,12.82-3.26a67.78,67.78,0,0,0,8.77-1.8c3.93-1.2,7.88-2.36,11.83-3.52,16.68-4.9,33.92-10,49.71-17.93,2.41-1.21,4.62-2.49,5.36-4.65l-.64-.38a22.4,22.4,0,0,1-5.95,2,19.35,19.35,0,0,0-4,1.19c-13.56,6.46-28,10.74-42,14.87-6.81,2-13.84,4.1-20.65,6.4a31.52,31.52,0,0,1-7.52,1.29c-1.12.09-2.18.19-3.23.33l-4.17.58,2.19-3.6c1.3-2.14,2.45-4.45,3.66-6.9,3.24-6.55,6.6-13.32,13.14-16.53,9.08-4.47,18.75-8,28.09-11.43,7.75-2.84,15.77-5.77,23.36-9.2,12.94-5.86,23.41-11.06,32.95-16.36l3.14-1.74-.17,3.59c-.93,19.36-2.05,39.26-3.31,59.15l-.12,1.81-1.94.07-5,2.5c-24.1,12-49,24.4-74.79,34.13-14.2,5.37-29.33,9.88-49.07,14.63l-4.87,1.18Z"/><path class="cls-2" d="M156.44,1475.75c-4.82,0-8.34-3.78-10.76-11.57-2.32-7.46-1.9-14.26,1.17-19.15,2.55-4,6.79-6.62,12.29-7.43,11.64-1.71,22.78-5.76,33.56-9.68,4.53-1.65,9.23-3.35,13.91-4.87a72.26,72.26,0,0,0,10.66-4.77,74.46,74.46,0,0,1,12.39-5.41c15.43-4.61,29.21-13.63,42.53-22.36l6-3.94-.26,4c-.82,12.42-1.64,24.11-2.52,35.75l-.08,1.15-2.81,1.36c-8.32,4-16.92,8.2-25.67,11.69l-5.9,2.35c-22.19,8.86-45.14,18-68.45,24.69a21.17,21.17,0,0,0-4.84,3C164.31,1473,160.46,1475.75,156.44,1475.75Z"/><path class="cls-2" d="M153,1514.48c-5.9,0-5.9-5.94-5.9-15.78,0-1.41,0-2.83.05-4.25,0-3.17.1-6.44-.13-9.6-.27-4,1.52-6.33,5.46-7.27a410.34,410.34,0,0,0,58.08-18.39c6-2.43,12.17-4.81,18.12-7.1,14.35-5.55,29.2-11.29,43.21-18.11l3.14-1.53-.27,3.48c-.78,10.14-1.6,20.24-2.44,30l-.09,1-.88.52c-15.16,9-31.5,16-47.31,22.86l-.15.07c-10.47,4.52-21.54,8-32.25,11.35-8.68,2.72-17.65,5.54-26.21,8.88l-.33.13C159.15,1513.08,155.59,1514.48,153,1514.48Z"/><path class="cls-2" d="M155,1551.24a5.53,5.53,0,0,1-4.2-1.79c-2-2.18-2.72-6.25-2.24-12.79a2.39,2.39,0,0,1-.9-1.75c0-1.11-.14-2.39-.26-3.73-.5-5.29-1.17-12.54,4.95-13.44s11.46-2.91,17.25-5.06a110.45,110.45,0,0,1,14.06-4.52c15-3.42,29.75-9.52,44-15.41q4.46-1.85,8.9-3.65A268.07,268.07,0,0,0,268.45,1474l3.32-1.88-.34,3.8c-.82,9.4-1.7,19-2.61,28.64l-.1,1.09-1,.5c-35,17.87-65,31.32-97.81,38.93a25.75,25.75,0,0,0-5.57,2.63C161.21,1549.42,158,1551.24,155,1551.24Z"/><path class="cls-5" d="M206.81,544.59a65.4,65.4,0,0,1-28.07-6.85c-9.56-4.74-16.22-11.12-18.76-18-6.63-17.82-.85-38.56,13.74-49.32a8.43,8.43,0,0,1,4.66-1.27,5.2,5.2,0,0,1,3.7,1.21c7.78,8.07,17.58,12.52,27.6,12.52,10.3,0,20.4-4.67,28.43-13.15,1.1-1.15,2.29-2.2,3.44-3.21,2.62-2.31,5.1-4.48,6.12-7.64l.77-2.39,2.16,1.29c9.69,5.8,15.85,15.08,17.82,26.84,1.75,10.41-3.95,19.83-9.76,27.66-9,12-21.17,21.66-37.35,29.41A33.5,33.5,0,0,1,206.81,544.59Zm11.66-49.12a9.24,9.24,0,0,0-6,2.52,3,3,0,0,0-1,2c.08,2.8,1.06,7.63,6.62,9.22,4-2.37,8-5.33,8.46-9.32a2.71,2.71,0,0,0-.57-2.34c-1.09-1.26-3.73-2-7.43-2.08Z"/><path class="cls-2" d="M157.29,1581.45a7,7,0,0,1-5.3-1.94c-2.52-2.55-2.93-7.24-2.82-15.54a13.42,13.42,0,0,0-.21-2c-.31-2-.68-4.41.75-6.34a6.07,6.07,0,0,1,4.26-2.2c22-3,42.77-11.09,62.86-18.91,14.42-5.62,31.4-12.53,48-21.21l3.28-1.71-.36,3.67c-.82,8.46-1.74,17.49-2.8,27.61l-.12,1.13-5.26,2.44c-10.72,5-21.8,10.13-33.1,14.21-11.72,4.23-23.83,7.86-35.55,11.38-7,2.11-14.25,4.28-21.32,6.55C164.23,1580.37,160.28,1581.45,157.29,1581.45Z"/><path class="cls-2" d="M155.16,1615.45a6.24,6.24,0,0,1-5.23-2.48c-3.35-4.38-3.48-11.48-.35-18.53,3.35-7.55,9.34-12.75,15.26-13.24,25.75-2.12,49.73-11.9,72.92-21.36l1.59-.65c8.48-3.45,15.42-6.4,21.87-9.28l3.17-1.41L264,1552c-1,9.41-2.07,19-3.15,28.44l-.14,1.22-1.15.42c-9.43,3.52-20.12,7.5-30.32,12.07a254.66,254.66,0,0,1-63.56,18.68,26.75,26.75,0,0,0-4,1.16A20.93,20.93,0,0,1,155.16,1615.45Z"/><path class="cls-2" d="M170.6,1618l-.38-4c5.12-1,10.37-1.92,16.07-2.88,21.17-3.56,41.06-12.22,60.3-20.59l5.16-2.25c1.82-.78,3.68-1.52,5.53-2.2l3.06-1.12-.38,3.23c-1.08,9.21-2.23,18.61-3.4,27.94l-.15,1.25-1.19.4-.27.08-.31.1h-84Z"/><path class="cls-2" d="M203.28,1282.62c.37-1.41.79-2.87,1.22-4.36a95.12,95.12,0,0,0,2.52-10.21A274.93,274.93,0,0,1,220.76,1216l.49-1.3h1.39a137.88,137.88,0,0,1,25,2.36l3,.56-1.68,2.51a83,83,0,0,0-6.22,11.11c-1.77,3.83-3.31,7.92-4.8,11.88-2.61,6.91-5.3,14.07-9.4,20.3-3.9,5.94-9.56,10.65-15,15.2-2.33,1.94-4.74,3.94-6.93,6l-5,4.69Z"/><path class="cls-5" d="M201.07,477.32c-3.18,0-6.15-1.26-9-2.48l-1.17-.49c-2.28-.94-3.84-2.94-5.35-4.88-.6-.78-1.18-1.51-1.77-2.14L182,465.48l2.2-1.26c1.2-.68,2.36-1.44,3.6-2.24a33.69,33.69,0,0,1,8.91-4.62,164.29,164.29,0,0,1,26.37-5.57,32.54,32.54,0,0,1,3.76-.21,66.7,66.7,0,0,1,13.62,1.79,3.33,3.33,0,0,1,2.82,2.26c.61,2.07-1.29,3.94-2.31,4.94-11.49,11.31-22.26,16.36-34.91,16.36-.64,0-1.29,0-2-.05A10.61,10.61,0,0,1,201.07,477.32Z"/><path class="cls-4" d="M109.06,1618l.09-2.57c1-29,2.11-58.88,1.57-88.27-.16-9,.31-18,.77-26.73.56-10.64,1.13-21.64.55-32.52-.39-7.35-.16-15.14.06-22.68.14-5,.29-10.07.26-15-.06-11.15-8.8-19.28-17.24-27.13-1.57-1.46-3.19-3-4.69-4.44a320.73,320.73,0,0,1-28-31.8l-.43-.54V1333l3.43,3.5c11.57,11.82,24.44,22.4,36.89,32.64l4.62,3.8c1.42,1.17,3.8,1.55,6.32,2l1.65.27a13.25,13.25,0,0,0,.11-1.5c0-2.81,0-5.61,0-8.41,0-3.91,0-8,0-12,.19-11.13.54-22.45.88-33.39.76-24.68,1.54-50.19.56-75.18-.52-13.08-.61-26.36-.71-39.19-.1-13-.2-26.5-.74-39.73-1-23.5.75-47.23,2.4-70.18.54-7.47,1.1-15.21,1.55-22.81.13-2.19.13-4.38.13-6.7,0-6.95,0-14.15,3.63-22l3.82.73q.38,6.76.73,13.16c.54,9.85,1.05,19.16,1.64,28.46.49,8,1.12,16.1,1.72,23.95.35,4.53.7,9.05,1,13.57.62,8.62,1.4,18.78,2.51,28.65.92,8.13.74,16.46.57,24.51a188,188,0,0,0,.47,23.26c1.58,15.13,1.6,30.42,1.63,45.21,0,5,0,10.16.08,15.24.11,8,.29,16.23.47,24.15.27,11.89.55,24.19.57,36.31,0,9.52-.24,19.19-.48,28.54-.19,7-.37,14.16-.45,21.24a5.15,5.15,0,0,0,1.56,3,5.44,5.44,0,0,0,2-.88c7.35-5.86,13.13-13.46,18.72-20.81,1.89-2.48,3.84-5,5.83-7.52,5.2-6.46,10.3-13.19,15.22-19.7s10.12-13.38,15.39-19.91c6.71-8.32,13.72-16.43,21.14-25,3.48-4,7.06-8.17,10.77-12.51l4.2-4.92-.69,6.43c-.16,1.47-.22,2.64-.27,3.58a10.22,10.22,0,0,1-.75,4.18q-2.88,5.83-5.73,11.66c-6.34,12.92-12.9,26.27-19.81,39.19-12,22.52-23.33,42.75-34.53,61.85-3.81,6.49-8.18,12.74-12.41,18.78-3,4.33-6.15,8.8-9,13.3-8.77,13.73-7.63,28.67-6.42,44.49.09,1.11.17,2.23.25,3.34,1,13.94,1,28.12.92,41.84-.05,12.89-.1,26.21.74,39.29,1.29,20.33,1.06,41.07.85,61.12L145,1618Z"/><path class="cls-2" d="M146,1354.8c2.13-6.44,4.29-12.69,6.38-18.74,4.61-13.36,9-26,12.44-38.86s8.56-25.18,13.49-37.11c2.56-6.18,5.2-12.58,7.58-18.95,2-5.41,4.33-10.79,6.57-16q1.59-3.66,3.14-7.33l.42-1,1.1-.18a150.6,150.6,0,0,1,17-1.78l3-.14-1,2.8c-6,17.16-10.48,34.54-14.08,49.28a59.47,59.47,0,0,0-1.25,11.22c-.39,7.6-.78,15.46-6.42,22.35-10.27,12.55-20.3,25.23-30.91,38.64-4.56,5.77-9.22,11.64-14,17.68Z"/><path class="cls-2" d="M142.05,1341.91c-.21-.82-.38-1.42-.52-1.9a7.47,7.47,0,0,1-.43-2.18q0-6.22-.08-12.45c-.08-10.42-.17-21.2.17-31.81a62.27,62.27,0,0,0-.52-8.43c-.72-6.76-1.46-13.75,2.63-19.7a516.81,516.81,0,0,0,42.34-75l2.71-5.81,1.07,6.33c1.34,7.9,2.54,15.24,3.68,22.43l.09.58-.24.53q-2.49,5.7-5,11.4c-6.39,14.52-13,29.53-19.07,44.44-8.65,21.18-15.95,43.92-22.95,71.55Z"/><path class="cls-2" d="M142.45,1255.17a2.53,2.53,0,0,0-.22-.26,3.36,3.36,0,0,1-1.1-2.33c.1-4.2-.06-8.54-.21-12.74-.63-17.23-1.28-35,14.64-49.4,11.16-10,18.43-22.87,24.07-34.09l2.68-5.31,1.08,5.85c1.45,7.87,2.73,15,3.91,21.78l.12.66-.31.6c-1.2,2.3-2.38,4.61-3.57,6.92-2.87,5.59-5.85,11.38-8.87,17-7.56,14.11-15.39,28.36-23,42.14l-4,7.35a5.56,5.56,0,0,1-1.78,1.8,5,5,0,0,0-.5.37l-1.66,1.42Z"/><path class="cls-2" d="M138.94,1200.79c0-4.27,0-8.35.06-12.31.07-9.91.13-19.28-.3-28.45,0-.61-.08-1.2-.13-1.76-.24-2.78-.5-5.66,2.21-8.93,10.52-12.68,21.33-26.56,29.21-42.12l2.58-5.11,1.16,5.6c2.52,12.18,4.94,24.31,7.18,36.06l0,.19v.74l-.28.48c-2.45,4.16-4.31,7.59-5.84,10.78-6.38,13.3-15.37,24.63-24.89,36.62-2.42,3.05-4.93,6.21-7.42,9.43l-3.58,4.64Z"/><path class="cls-2" d="M138,1141.12c-2.6-9.57-2.81-19.36-3-28.83-.08-3.76-.17-7.66-.41-11.46a10.45,10.45,0,0,1,2.79-7c7.89-8.71,16.83-19,23-31l2.51-4.9,1.22,5.37c2.5,11,4.95,22.16,7.28,33.1l.15.75-.37.66c-.4.71-.76,1.3-1.1,1.8-2.83,4.29-5.57,8.77-8.22,13.11-6.1,10-12.4,20.29-20.38,29.19l-2.46,2.75Z"/><path class="cls-2" d="M133.27,1087.45c-.2-3-.24-5.93-.27-8.78-.06-5.81-.13-11.3-1.64-16.67-1-3.33-1.06-9.3,1.66-12.14a129.91,129.91,0,0,0,18.56-24.73l2.49-4.25,1.17,4.79c2.42,9.91,4.84,20.12,7.18,30.32l.22,1-.63.76c-6.66,8.07-13.21,16.12-20.14,24.65l-8.24,10.14Z"/><path class="cls-2" d="M132.15,1039.12c-.22-1.13-.47-2.26-.72-3.39a74.23,74.23,0,0,1-1.41-7.89c-.32-3-.81-6.08-1.28-9.06-2-12.42-4-25.26,5.23-37.66,1.66-2.23,3.21-4.51,4.59-6.77l2.42-4,1.22,4.47c3.51,12.91,7.14,26.9,10.78,41.59l.22.86-1.58,2.34c-1.72,2.54-3.49,5.17-5.3,7.73a25.59,25.59,0,0,1-3.65,3.89c-2,1.9-3.82,3.54-4.41,6.07a4.38,4.38,0,0,1-2.27,2.53c-.22.14-.44.27-.63.42l-2.58,2.07Z"/><path class="cls-6" d="M119.53,995.19c-1-3.1-2-6-3-8.89-1.39-3.92-2.7-7.62-3.7-11.34a49.77,49.77,0,0,1-1.41-6.85,123.13,123.13,0,0,1,0-31.05c1-8.41,5.94-17.48,16.52-17.67h.34c6.2,0,13.79,3,14.71,17.42.64,10.15-1.28,20.16-5.87,30.62A118.46,118.46,0,0,1,128,984a33.13,33.13,0,0,0-2.86,6.49c-.53,1.44-1.13,3.08-1.88,4.9l-2.1,5.12Z"/><path class="cls-2" d="M111.53,1045c-4.27-4.37-8.08-9.07-11.77-13.62a161.11,161.11,0,0,0-12.82-14.57l-1.07-1,.69-1.32A388.47,388.47,0,0,1,107.32,979l2.32-3.49L111,979.7c3.59,11.5,7.3,23.38,4.29,36.43-1.34,5.79-1,11.95-.62,18.48.17,2.94.34,6,.34,9v4.91Z"/><path class="cls-2" d="M108.75,1087.61c-12.4-14.47-24.07-28.1-35.69-41.68l-.8-.94.48-1.13c3.13-7.49,6.63-15.12,10.39-22.68l1.46-2.94,1.94,2.65c3.29,4.48,7.22,9.77,11.49,15a53.21,53.21,0,0,0,6.66,6.25c4.78,4,9.29,7.79,9.19,12.31q-.06,3.3-.07,6.69c0,8-.08,16.31-1.56,25.53l-.68,4.26Z"/><path class="cls-2" d="M107,1265.4c-.47-.34-1-.65-1.56-1a13.67,13.67,0,0,1-3.83-3c-10.77-13.29-23.19-27-39.08-43.15l-.57-.58v-47.44l3.5,3.94c8.29,9.35,17.66,19.08,29.49,30.63,1.3,1.27,2.65,2.5,4,3.69,7.07,6.43,14.37,13.08,12.42,25.94a93.5,93.5,0,0,0-.54,16c.06,2.68.13,5.46.08,8.2a24.59,24.59,0,0,1-.48,3.83c-.09.52-.18,1-.26,1.57l-.47,3.22Z"/><path class="cls-2" d="M108,1124.43c-1.05,0-2-.62-3.38-1.7-13.52-10.8-26.93-24.09-42.18-41.82l-.48-.56v-7.45l.09-.3c2.38-7.46,5.18-15.24,8.32-23.11l1.33-3.33,2.14,2.88c4.27,5.75,9.11,12.27,13.51,18.79a99.17,99.17,0,0,0,9.52,11.4c10,10.82,20.28,22,14,40.94a8.65,8.65,0,0,0-.28,1.28C110.55,1122.26,110.2,1124.43,108,1124.43Z"/><path class="cls-2" d="M108.82,1163c-1.14,0-2.09-.74-3.36-2-4.33-4.34-8.9-8.63-13.32-12.77-10.31-9.68-21-19.7-29.74-31.32l-.4-.53V1084l3.58,4.58c7.32,9.37,16.3,20.13,27.31,28.88,1.71,1.35,3.77,2.65,5.75,3.91,4.75,3,9.67,6.11,11.43,10.76,2.32,6.1,1.94,13.11,1.58,19.88-.13,2.43-.27,5-.27,7.33C111.38,1162.52,109.77,1163,108.82,1163Z"/><path class="cls-2" d="M107.07,1214.18c-2.31-6.15-5.89-9.11-9.35-12a45,45,0,0,1-4-3.61c-5.32-5.58-10.58-11.38-15.68-17s-10.22-11.25-15.45-16.74l-.55-.58v-41.65l3.44,3.58c1,1,2,2,2.94,3,3.74,3.81,7.4,7.83,10.94,11.71,6.73,7.4,13.7,15,21.41,21.41s11.56,11.59,10.42,21.46c-.68,5.86-.54,11.88-.38,18.84.09,3.41.17,6.94.17,10.83Z"/><path class="cls-2" d="M105.53,1363.82l-.59-.25a7.7,7.7,0,0,1-1.84-1c-2.17-1.74-4.43-3.45-6.61-5.11A132.49,132.49,0,0,1,81.59,1345c-4.28-4.38-8.82-8.67-13.22-12.83-1.92-1.82-3.84-3.63-5.75-5.47l-.62-.59v-39.72l3.44,3.56c8.75,9,18.53,17.36,28,25.39l6.53,5.57a11.9,11.9,0,0,0,3.5,1.65c3.31,1.17,8.32,2.94,7.56,10a71.16,71.16,0,0,0-.18,9.39c.07,2.73.14,5.54,0,8.34a51.79,51.79,0,0,1-1.58,8.6c-.29,1.19-.58,2.37-.83,3.56l-.53,2.52Z"/><path class="cls-2" d="M107.44,1320.7a5.88,5.88,0,0,1-3.64-1.18c-2.61-2.2-5.3-4.39-7.9-6.5a243.49,243.49,0,0,1-20-17.56c-4.09-4.13-8.44-8.67-13.32-13.87L62,1281v-58.84l7.12,7.87c9,10,18.41,20.35,27.65,30.5a50.47,50.47,0,0,0,5,4.53c3.89,3.24,7.91,6.6,8.54,10.88,1.4,9.62,1.11,19.55.84,29.16-.11,3.63-.22,7.38-.23,11.05,0,.15,0,4-2.41,4.44A5.26,5.26,0,0,1,107.44,1320.7Z"/><path class="cls-2" d="M101,1544.61c-2.67,0-4.45-2.08-5.89-3.75a12.93,12.93,0,0,0-1.92-2c-.77-.55-1.59-1.05-2.46-1.58a26.75,26.75,0,0,1-4.21-3q-11.58-10.61-23.14-21.24L62,1511.89V1461l7.6,7.79c7.44,7.61,15.13,15.49,22.65,23.27a54.51,54.51,0,0,0,5,4.37c6.34,5.13,13.52,11,9.37,23.37a22.44,22.44,0,0,0-.91,10.72c.13.65.37,1.38.61,2.16,1,3.15,2.64,8.42-2.71,11.19A5.62,5.62,0,0,1,101,1544.61Z"/><path class="cls-2" d="M103.43,1497.2c-.23-.07-.47-.12-.71-.17a5.52,5.52,0,0,1-2.69-1.13c-.69-.6-1.4-1.2-2.11-1.79a40,40,0,0,1-6.66-6.54c-7.42-10-16.52-20.16-28.65-31.86l-.61-.59V1414.7l3.27,2.68c.66.55,1.33,1.08,2,1.61,5.53,4.35,11.17,8.86,16.63,13.23,3.54,2.83,7.09,5.67,10.63,8.48a26.62,26.62,0,0,0,3.56,2.21c3.4,1.87,7.25,4,7.62,8.65.79,10.11.92,20.41,1,30.38,0,3.39.08,6.77.15,10.16a7.64,7.64,0,0,1-.66,2.91c-.1.29-.21.57-.29.85l-.58,1.94Z"/><path class="cls-2" d="M75.13,1618l-.55-.45c-3.47-2.82-7.22-5.72-11.78-9.13l-.8-.6V1562l3.22,2.49A47.66,47.66,0,0,1,75.87,1575c2.81,4.09,7.18,6.75,11.8,9.56,7.33,4.46,14.91,9.07,16.26,19.76.43,3.33.79,7,1.12,11.51l.17,2.15Z"/><path class="cls-2" d="M101.38,1590.33c-.36-.21-.73-.41-1.1-.61a18.8,18.8,0,0,1-2.72-1.67c-7.94-6.2-15.56-13-22.93-19.61-3.89-3.49-7.92-7.09-11.94-10.55l-.69-.6v-40.14l3.3,2.83,5.29,4.51q4.3,3.66,8.57,7.34C81.63,1534,84.35,1536,87,1538c5.48,4.11,11.13,8.37,15.14,13.88,4.66,6.42,3.89,13.93,3.14,21.19a53.37,53.37,0,0,0-.38,11,12.32,12.32,0,0,1-.3,3.55c-.08.41-.15.81-.21,1.21l-.39,3Z"/><path class="cls-2" d="M101.87,1442.65a2.52,2.52,0,0,1-1.59-.53q-3.39-2.67-6.82-5.32c-6.77-5.26-13.77-10.69-20.38-16.4-3-2.64-6.36-5.53-10.4-9.11l-.68-.6v-36.45l3.52,4.12c10.9,12.78,22.76,25.17,34.23,37.15l1.67,1.75c4.73,4.93,4,10.16,3.5,14.35-.38,2.92-.7,5.44.46,7.74l1.25,2.46-2.72.43a3.36,3.36,0,0,0-.5.13A5.62,5.62,0,0,1,101.87,1442.65Z"/><polygon class="cls-3" points="6 8.83 58 60.83 58 1619.17 6 1671.17 6 8.83"/><path d="M948.62,641.41a226.66,226.66,0,0,1-28.39,26.44c-5.05,3.86-1.72,11.42-2.5,17.24-.4,3,.93,6.14,1.3,9.24.33,2.74.4,5.51.59,8.26a79.09,79.09,0,0,0,7.7-5.53A334.6,334.6,0,0,0,960,663.32V628.15a54.44,54.44,0,0,1-3.81,4.85C953.69,635.84,951.18,638.65,948.62,641.41ZM585.33,1260.93c-10.18-7.36-18.39-16.57-19.24-31.3a18.9,18.9,0,0,1,9.49-17.32c7.35-4.31,14.71-5.54,21.64.18,8.67,7.15,14.72,15.8,19.33,25.24,4.43,9,7.53,18.79,10.38,28.67a9.43,9.43,0,0,0,3.48,5c7.38,6.32,14.62,12.81,23,20.15-2.8-15.44-4.21-30.06-9.29-44.08-1-2.68-1.82-5.4-2.6-8.14q4.2.46,8.9,1.09c1.61,5.75,2.77,11.67,4.57,17.32,4.2,13.22,2.1,28.06,6.33,40.54,3.23,9.56,15.29,16.12,23.83,24.41.33-19.93-1.31-39.36-7-58.57a134.58,134.58,0,0,1-3.82-19.57c2.18.45,4.4.94,6.67,1.45,3.68,11.42,7.37,22.84,9.58,34.54a156.3,156.3,0,0,1,2,41.37c-.76,9.21,5.6,12.16,9.87,16.37,7.77,7.69,17,13.89,25.74,20.6,1.18.91,2.84,1.2,4.28,1.78.12-3.11.66-6.27.3-9.33-1.09-9.14-2.79-18.22-3.79-27.37-1.77-16.33-6.5-31.87-11.47-47.42-2.31-7.21-4-14.63-5.61-22,2.56.81,5.15,1.68,7.77,2.59,3.72,9.92,6.66,20.08,9.76,30.23,6.3,20.58,8.06,41.6,10.2,62.68.63,6.23-2.43,14.85.71,18.44,8.65,9.86,19.67,17.63,30.46,26.83-2.07-15.6-4.41-29.89-5.71-44.27-.83-9.19-6.21-17.64-4.13-27.18a18.77,18.77,0,0,1,1.66-3.67,15.19,15.19,0,0,1,2.38,3.2c9.56,24.16,11.75,49.44,12.37,75.15.18,7.07,8.86,9.27,13.69,13.64,17.76,16.08,38,28.86,59.72,45.09-9.71-19.07-17.82-35.44-26.32-51.59-15.75-29.93-31.46-59.89-47.75-89.53-6.36-11.55-14.34-22.2-21.41-33.36-2.15-3.38-6.69-8.4-3.3-10.82,3.9-2.78,6.66,4.14,8.74,6.68,20.87,25.42,35.66,54.79,51.71,83.24,12.41,22,22.9,45.13,34,67.89,3.58,7.37,6.27,15.18,10.52,25.63v-17.19c0-23.2-2.54-46.77.76-69.5,2.94-20.31-12.77-25.23-21.88-35.41-20.79-23.23-43-45.15-62-70-10.37-13.6-21.27-26.76-30.53-41.07q.42-6.54.93-13.91c5.27,8.15,10.54,16.3,16.29,24.1,13.12,17.8,26.58,35.34,42,51.37,12.15,12.64,22.77,26.75,34.84,39.48,6.49,6.84,15.46,11.22,20.93,21.09.92-19.4,2.49-37.34,2-55.23-.09-3.42-8.38-6.44-12.63-10-19.24-15.9-38.2-31.83-54.5-51.17s-32.11-39-45.73-60.26q.6-6.92,1.28-14.19c6.81,10.53,13.32,21.3,20.95,31.19,19.58,25.4,40.11,50,64.76,70.86,7.7,6.51,14.92,13.58,22.52,20.21,1.31,1.15,3.41,1.41,5.14,2.09.15-1.38.27-2.77.45-4.14,1.67-12.62-1.71-25.56,2.35-38,3.22-9.88-5.12-14.2-10.57-17.94-32.15-22.09-56.45-52-81.85-80.78-7.32-8.29-13.1-18-19.31-27.23q.66-5.94,1.36-12a9.23,9.23,0,0,1,2.21,2.77c12,19.49,27.79,35.8,42.83,52.9,19.72,22.44,42.43,41.28,67.37,62.93,0-18.93.77-35.74-.58-52.38-.31-3.83-7.36-8.2-12.18-10.4-18.09-8.25-32.89-20.77-47.56-33.78-16.2-14.37-31.75-29.17-43.83-47.34-.31-.47-2.55-3.61-4.7-3.93q1-7.47,2-15.09a45.16,45.16,0,0,0,11.28,18.28c19.37,19.27,37.63,39.61,59.56,56.06,12,9,24.83,16.72,38,25.5.7-13.15,1.42-25.61,2-38.07,0-1.33.93-2.95-1.41-4.11-21.19-10.49-40.85-23.39-60.1-37.11-17.34-12.36-32.28-27-46.09-43.45q.76-5.3,1.58-10.63a235.88,235.88,0,0,0,44.1,41.79c18.85,13.66,38.75,25.88,58.2,38.73,3.28,2.16,4.43-.66,4.61-2.71,1.12-12.52,2.52-25.09,2.29-37.61,0-2.37-6.81-4.93-10.75-6.86-16.84-8.25-30.42-20.82-44.77-32.52a403.39,403.39,0,0,1-43.29-41.29c-1.1-1.21-2.2-2.42-3.28-3.65q.87-5.07,1.78-10.17a255.2,255.2,0,0,0,23.43,24.57c23.22,21.34,46.23,43,74.65,57.7,1.8.93,2.76,2.15,3.12-.89,1.26-10.86,3.08-21.7,3.68-32.6.4-7.25-7.74-7.31-11.84-10-12.62-8.27-23.09-19-34.75-28.07-18.81-14.71-33.61-32.48-47.43-51.24-.8-1.09-1.65-2.15-2.52-3.21q1.08-5.34,2.21-10.69c6.89,9.06,14.56,17.52,21.54,26.52,15.3,19.73,36.16,32.94,53.3,50.37,3.64,3.7,8.8,5.89,13.17,8.9,10.63,7.32,7.57-4.37,8.18-7,1.69-7.2-.25-14.83,2.18-22.33,1.71-5.29-4-6.57-7.31-9.27-16.61-13.55-33.82-26.56-49-41.56-13.09-12.9-23.95-27.93-33.48-43.81.73-3,1.46-6.1,2.21-9.15,8.81,12.57,18.55,24.45,28.42,36.14,9.61,11.39,21.37,21.05,32.67,30.89,7.08,6.17,15.22,11.1,22.64,16.89,2.8,2.17,4.6,6.95,4.83-1.41.27-9.81,1.91-19.62,3.41-29.36,1.37-8.91-6.85-10.06-11.19-13.63-22.5-18.55-44.89-37.22-63.17-60.08-3.23-4-6.19-8.28-9-12.6q1.26-4.64,2.56-9.24c8,11.29,16.22,22.46,26.65,31.76,17.52,15.61,35.55,30.65,53.28,46,4.09,3.54,2.7-.43,2.81-1.95.73-10.24-1.3-20.62,1.68-30.81.28-1-2.42-3.12-4.06-4.28-27.36-19.39-51-42.78-72.15-68.6q1.51-4.87,3.07-9.73c16.15,20.72,35.56,38.39,55.34,55.69,5.47,4.8,11.72,8.7,17.55,13,1.18-9.31,2.73-18.8,3.49-28.36.61-7.58-7.75-6.67-11.43-10.51-18.59-19.41-39.59-36.69-55.19-58.65q1.77-5,3.59-9.87a271.61,271.61,0,0,0,21,25.42c12.42,13.55,27.38,24.79,41.29,37,1.78,1.56,1.74-.26,1.79-1.38.61-13.07-1.2-26.16,1.85-39.23,2.07-8.87-7.81-8.56-12.1-12-15.2-12.07-29.81-24.6-42.25-39.2q1.88-4.5,3.82-8.93a317.63,317.63,0,0,0,25.53,25.58,203.64,203.64,0,0,0,23.36,17.6c2.75,1.83,3.89-1.45,3.79-3.91-.4-10-2.33-19.89,0-29.89.86-3.7-2.81-4.44-4.94-5.89-13.22-9-24.36-20-34.5-31.83q2.12-4.23,4.29-8.38c9.82,11.1,20.1,21.74,33,29.76,1.84,1.15,2.06,1.31,2.21-.74.68-9,1.54-18,1.94-27,.26-5.84-5.89-6.24-9.05-8.7a87.12,87.12,0,0,1-15.6-15.71q2.74-4.62,5.58-9.1a182.06,182.06,0,0,0,15.26,16.93c-1.82-10.45-2-20.22-5.34-28.7a18.23,18.23,0,0,1-.71-2.16c-4.67-16.87,4-55.61,16-63.17,8.89-5.6,24,1.39,26.07,11.81,3.52,17.69,1.87,34.42-3.3,50.5a144.36,144.36,0,0,1-10.11,23.52c-2,3.83-.65,7.53-.3,11.31,2-1.7,4-3.37,6-5.11,6.35-5.65,12.38-11.6,18.19-17.77,5.68-6,11.13-12.25,16.45-18.61V521.16l-5.47.68c-21,.75-42,1.34-63-.77-30-3-59.74-7.18-88.93-15.3a459.27,459.27,0,0,1-85.94-33A475.62,475.62,0,0,1,624.65,412a549.65,549.65,0,0,1-41.6-38.73,520,520,0,0,1-40.84-48.76,449.17,449.17,0,0,1-32.14-49.93C495.38,248.29,481.72,221,473.41,192c-8.78-30.7-17.14-61.58-20.94-93.61-1.35-11.44-.8-22.94-1.34-34.36H64V1079.61c12.86,15,26.42,29.19,41.91,41.56,3.28,2.61,2.38.7,3.15-1.62,8-24.2-12.85-35-23.33-50.6-4.3-6.37-8.88-12.55-13.46-18.72q1.14-2.84,2.31-5.6c11.62,13.58,23.29,27.21,35.69,41.68,1.87-11.67,1.4-22,1.6-31.94.12-5.62-10.37-11.13-15.39-17.25-4-4.88-7.82-9.94-11.56-15q1.71-3.47,3.41-6.72c8.86,8.56,15.7,19.09,24.63,28.23,0-9.35-1.71-19.06.33-27.9,2.91-12.6-.71-24.06-4.31-35.59,2.16-3.26,3.42-5,3.42-5l2.33-.64c1.7,6.35,4.4,12.79,6.71,20.15,2.13-5.19,3-8.77,4.91-11.71a116.85,116.85,0,0,0,8.91-16.25l2.74.62s.81,2.83,2.27,8.14q-2.16,3.52-4.7,6.93c-10.93,14.65-5.17,30-3.56,45.31.39,3.74,1.38,7.41,2.1,11.11.76-.61,2-1.1,2.2-1.85,1.16-4.9,5.77-7,8.38-10.66,2.17-3.06,4.25-6.18,6.35-9.29.73,2.95,1.49,6,2.26,9.2a132.6,132.6,0,0,1-18.84,25.11c-1.93,2-2.07,7.08-1.18,10.21,2.36,8.33,1.36,16.84,2,25.85,8.72-10.72,16.91-20.84,25.2-30.87q.83,3.6,1.67,7.32c-6,11.69-14.44,21.68-23.27,31.42a8.5,8.5,0,0,0-2.27,5.53c.83,13.3-.2,26.77,3.36,39.89,11.3-12.62,19.07-27.9,28.43-42.08.34-.51.68-1.08,1-1.68q1.17,5.55,2.36,11.28c-7.82,15.46-18.4,29.17-29.45,42.49-2.67,3.23-1.78,5.82-1.62,9.33.6,12.83.24,25.71.24,40.85,12.24-15.85,24.19-29.24,32.09-45.69,1.79-3.74,3.81-7.36,5.92-10.94q1.25,6.46,2.47,13.09c-6.4,12.72-13.67,24.9-24.52,34.68-19.06,17.19-13.29,39.55-13.77,60.69,0,.45.62.92,1,1.38.62-.53,1.46-.94,1.83-1.61,9-16.46,18.12-32.91,27-49.47,4.24-7.91,8.29-15.93,12.42-23.91q1.08,6.1,2.12,12.3a521.74,521.74,0,0,1-42.5,75.26c-5.34,7.77-1.46,18-1.76,27.07-.48,14.72-.12,29.46-.09,44.19a22.68,22.68,0,0,0,.89,3.59c6.45-25.45,13.72-49,23-71.82,7.66-18.77,16-37.3,24.09-55.88l.93,5.93s2-.47,5.41-1.05c-3.24,7.74-6.76,15.38-9.68,23.24-6.94,18.63-15.78,36.51-21,55.88-5.07,18.82-12,37.13-18.85,57.71,15.93-20,30.23-38.35,44.94-56.34,8-9.76,4.63-21.93,7.28-32.77,4.09-16.74,8.48-33.27,14.13-49.47,2.62-.13,5.42-.2,8.36-.17a274.34,274.34,0,0,0-13.64,51.7c-.87,5.16-2.58,10.18-3.77,14.74,7.29-6.79,16.26-12.62,21.65-20.82,6.3-9.58,9.16-21.35,14.06-31.92A83.56,83.56,0,0,1,247.3,1219a72,72,0,0,1,32.88-27c8.12-3.36,16.9-1.57,22.46,5.82,5.19,6.92,2.2,14.14-2.06,20.73C297,1224,293.8,1229.7,290,1235a70.24,70.24,0,0,1-7.52,8.85c-6.11,6.06-13.31,10.75-20.9,12.32-19,3.95-25.55,16.3-30.62,32-2,6.06-3.76,12.4-8.39,17.35-1,1.06-1.65,4-1,4.76,1.92,2.11,3.2-.66,4.75-1.48,12.56-6.59,25.1-13.23,37.71-19.71a180.79,180.79,0,0,0,17.51-10.33q-.16,4.85-.36,10.22c-5.5,3.23-11.14,6.23-16.83,9.08-15.91,8-31.06,17.54-48,24-6.4,2.43-8.94,15-13.31,22.91-1.06,1.92-2.39,3.69-4.71,7.24,13.87-5.73,26.18-10.9,38.56-15.91a309.33,309.33,0,0,0,43.25-22c-.14,3.29-.3,6.68-.46,10.16-10.75,6-21.86,11.34-33.1,16.43-16.81,7.6-34.88,12.49-51.39,20.6-8.21,4-11.11,14.71-16,22.68,3.47-.48,7.12-.42,10.38-1.53,20.8-7,42.4-11.66,62.4-21.19,3.11-1.48,7.19-1.37,10.48-3.44.51-.33,3.26,1.38,3.19,1.9-.54,3.75-3.79,5.58-6.65,7-19.65,9.91-41,15.21-61.86,21.57-7,2.12-14.85,2-21.34,5-4.14,1.9-6.75,7.49-9.6,11.74-6.47,9.65-12.67,19.5-19.27,29.7a404.78,404.78,0,0,0,48.83-14.56c27.46-10.37,53.52-23.57,79.71-36.59a2.1,2.1,0,0,1,.88-.18c-.14,2.26-.29,4.55-.44,6.85-14.52,9.48-29,19.35-45.73,24.36-8.26,2.48-15.05,7.58-23,10.16-15.84,5.13-31,12.16-47.8,14.63-11.85,1.75-15.58,12-11.84,24,6.41,20.6,18.19,3.81,24.4,2,25.24-7.22,49.71-17.24,74.16-27,9.29-3.7,18.29-8.12,27.31-12.49-.24,3.18-.48,6.38-.73,9.62-19.91,9.69-40.91,17-61.46,25.26a408.75,408.75,0,0,1-58.37,18.49c-2.75.65-4.14,2-3.92,5.18.33,4.64.08,9.33.08,14,0,16.31.56,16,15.6,10.08,19.18-7.5,39.54-12.07,58.4-20.21,16-6.92,32.13-13.88,47.23-22.81-.27,3.28-.56,6.6-.85,9.94A269,269,0,0,1,237.37,1491c-17.5,7.09-35,15-53.23,19.16-10.78,2.45-20.35,8-31.46,9.61-5.4.79-3.08,9.69-3,15.13,0,.34,1,.7,1,1-2.08,23.85,11.6,8.91,18.81,7.24,34.5-8,66.15-22.83,97.35-38.76q-.51,5.36-1,10.79c-15.61,8.15-31.9,14.94-48.23,21.3-20.39,7.94-41.21,16-63.32,19-5.44.74-3,5.56-3.07,8.55-.22,16.73,1.75,17.91,17.85,12.73,18.9-6.08,38.14-11.18,56.8-17.91,12.68-4.58,24.9-10.43,37.17-16.11q-.47,4.5-1,9c-7.24,3.23-14.56,6.3-21.92,9.3-24.33,9.92-48.47,20-75.1,22.15-10.86.9-20.09,19.93-13.49,28.57,3,4,9.21-.2,13.86-1a253.75,253.75,0,0,0,63.06-18.54c10-4.47,20.22-8.3,30.44-12.11-.3,2.61-.61,5.22-.91,7.84q-2.75,1-5.43,2.16c-21.33,9.24-42.63,19.06-65.92,23q-8,1.35-16,2.87h83.7l.28-.08c2.34-.67,4.67-1.31,7-1.93a219.34,219.34,0,0,0,52.68-20.82c1-.55,3,.77,4.52,1.22-.76,1.11-1.3,2.54-2.33,3.26-11.72,8.25-24.61,13.69-37.91,18.35H723.16c-7.78-.79-15.53-1.84-23.23-3.33q-2.37-4.35-4.64-8.65c20,2.35,40,4.73,60.13,5.58a311.05,311.05,0,0,0,67.4-4.51,162.7,162.7,0,0,1,18-1.61c14.52-.9,7.58-11.26,8.87-17.52.55-2.67-.89-5.84.11-9.24.45-1.51,4.25-7.73-1.75-7-2.78.33-6.19,1-9.25,1.63-11,2.12-22,4.76-33.17,5.53-19.69,1.38-39.49,2.53-59.18,1.93-22.51-.68-45.05-2.53-67.18-7.49l-1-.21q-1.79-3.58-3.54-7.14c12,1.54,24,3.09,36.07,4,19.28,1.46,38.61,5,57.95,2.5,16.8-2.19,33.77-1.38,50.59-4.68,9.92-2,20.07-2.45,29.44-6.8.57-.27,1.73-.39,1.73-.53-.52-10.18,3.85-21.21-1.85-30.39-8.8-14.16-19.77-2-29.64-.6-14.26,2-28.35,5.25-42.58,7.54-13.47,2.16-27.11,5.67-40.53,5.12-14.69-.59-29.13,2.6-44.18-.32-9.64-1.86-19.85-1.27-29.82-2.73-1.13-2.44-2.25-4.86-3.34-7.27a104.63,104.63,0,0,0,30.31,1.29c10.84-1,21.67.94,32.74.28a547,547,0,0,0,88.39-12c7.46-1.68,15.08-3.15,22.67-4.92-7.82-6.94-15-14.88-23.61-20.42-5.89-3.77-12.41,3.27-19.31,3.46a137.58,137.58,0,0,0-27.9,3.74c-10.84,2.56-22.59,3.82-32.65,2.89-21.9-2-43.8,1.14-65.67-2.43-6.35-1-12.62-2.54-18.93-3.8-.86-2-1.69-4-2.52-6,10.72,1.07,21.44,2,32.16,3.08,24.46,2.41,49,.54,73.35-.52,17.28-.75,34.42-4.88,51.61-7.57.59-.09,1.62-1.07,1.53-1.28a8.5,8.5,0,0,0-1.76-3c-4.75-4.81-10.84-8.79-14.16-14.42-8.67-14.74-21-7.74-32.28-6.55-29,3.06-57.79,4.77-87,2a243.84,243.84,0,0,1-37-6.25q-1.29-3.45-2.51-6.84c10.13,2.88,20.33,6.43,30.15,5.58,13.44-1.15,26.65,1.26,40.12-.22,7.91-.87,16.68-.76,25-1.12,14.38-.61,28.7-2.46,43-3.82a15.44,15.44,0,0,0,2.26-.54,14.08,14.08,0,0,0-1.32-2.42c-6.46-7.75-12-16.73-19.77-22.78-6-4.68-15-.42-22.21.69-12.24,1.9-24.27,1-36.39.67-7.62-.17-15.23-.91-22.83-1.49-16.7-1.27-33.24-3.19-49.37-7.58q-1.49-4.6-2.86-9.08c14.53,3.12,29,6.29,43.73,8.14,16.18,2,32.8.64,49.22.67,9.7,0,19.41-.15,29.12-.29a13.51,13.51,0,0,0,2.71-.65,13.54,13.54,0,0,0-1.44-2.39c-9-9.7-17.74-19.58-27-28.93-4.77-4.8-11,0-16.89-1-13.6-2.15-27.78-.32-41.62-1.39a282.82,282.82,0,0,1-36.18-5.65q-5.67-1.18-11.3-2.66c-.69-2.68-1.36-5.31-2-7.9,12.54,3.19,25.47,4.34,38.19,6.32a292.41,292.41,0,0,0,47.63,3.62c4.8,0,9.79-.14,15.26,1-6.17-8.47-12.55-15.53-17-23.65-7.37-13.53-19.9-11.64-31.23-11a196.62,196.62,0,0,1-59.37-5.55q-.81-4.12-1.52-8c12.29,2.67,24.83,4.12,37.3,5.56,12.24,1.42,24.78.27,37.46.27-5.76-10.81-16.16-17.59-20.48-28.74a2.55,2.55,0,0,0-2.07-1,197.19,197.19,0,0,1-46.64-3.92c-3.37-.69-6.75-1.33-10.1-2-.34-2.87-.63-5.61-.88-8.2a374,374,0,0,0,39.39,6c4.11.43,8.3.06,11.73.06-5.6-18.52-23.83-18.49-37-26.31C595.68,1267.65,590.27,1264.51,585.33,1260.93ZM1024,8V1672a8,8,0,0,1-8,8H8a8,8,0,0,1-8-8V8A8,8,0,0,1,8,0H1016A8,8,0,0,1,1024,8Zm-8,1658.34V13.66l-48,48V1618.34ZM962.34,56l48-48H13.66l48,48H962.34ZM13.66,1672h996.68l-48-48H61.66ZM960,1609.25V1563.1c-9.41,6.92-19.51,13-29.21,19.56a2.79,2.79,0,0,1-.89.42c-22.15,4.52-10.65,21-12,32.92h32.56C953.68,1613.8,956.86,1611.55,960,1609.25Zm0-55.52v-50.9l-2.5,2.09c-10.89,9.23-22.15,18-35.19,24.59-12.42,6.24-6,18.88-6.93,28.8-.48,5.32,1,10.83,1.7,16.25.27,2.12.77,4.21,1.17,6.32,2.24-.89,4.69-1.45,6.68-2.72Q943,1566.63,960,1553.73Zm0-63v-39.08c-12.91,7.23-26.11,13.8-39.56,19.94-5.52,2.52-12.56,8.89-12-6.4,1.63-42.3,1-84.69,1.31-127,.38-57.66.86-115.33,1.13-173,.16-35.62,1.06-71.27-.33-106.84-.94-23.91-1.72-47.81-1.54-71.71.24-30,1.41-60,1.84-90,.37-25.51.31-51,.33-76.52,0-16.2,1.14-32.34,0-48.62-1.24-17.66-.27-35.47-.3-53.21a8.18,8.18,0,0,0-1-4.08c-.16,12-2.67,23.83-3.89,35.66-1.78,17.21-1.52,34.62-4.41,51.73-.8,4.74-.57,9.69-.54,14.54.07,12.19-3.53,24.51-3,36.08.74,15.14-2.15,29.88-1.52,44.91.49,11.89-3,23.91-4.3,35.9-.64,5.77-.35,11.64-.68,17.45-.85,14.67-1.48,29.36-2.8,44-2.38,26.56-5.77,53-7.67,79.62-1.5,21.16-2.59,42.35-2.61,63.65,0,18.23-3.69,36.43-4.93,54.7-.92,13.64,0,27.4-.83,41-1.53,24.93-4.13,49.8-5.53,74.73-.83,14.79.87,29.77-.48,44.49-2.95,32.36-.94,64.74-1.83,97.1-.14,5.09,1.2,9.89.75,15.26-.89,10.48-6.54,5.61-9.5,3.72-16.37-10.49-33.11-20.41-48.19-32.87-21.66-17.89-44-35-65.61-52.94-11.67-9.71-21.5-21.81-33.8-30.53-18.32-13-33.79-29.12-51.81-42.52,9.36,11.24,18.76,22.45,28.08,33.73,12.94,15.66,25.28,31.87,38.86,47,21.3,23.66,43.85,46.18,65,69.93,16.2,18.16,34.26,34.25,51.86,50.9,6.46,6.12,16.19,10,18.08,19.56,1.44,7.3.33,15.11.33,22.7V1616h51.88c.08-5.61.17-11.22-.1-16.81-1-20-3.15-39.88-3.59-59.85-.19-8.78,8.3-13.3,14.54-17.83,9.41-6.85,18.77-13.57,27.39-21.51C952.67,1496.79,956.31,1493.74,960,1490.74Zm0-46.93v-43.72c-3,1.69-6,3.33-9,4.9-11.41,5.86-21.33,14.17-33.46,19.14-3,1.22-1.7,13.09-2.22,20.07-.13,1.78.65,3.64.44,5.39-.65,5.39,0,14.43,2.57,14.46,5.29.06,10.66-4.44,16-7.14C942.84,1452.54,951.58,1448.46,960,1443.81Zm0-53.43v-41.59A166.5,166.5,0,0,1,944.54,1361c-8.52,5.89-16.88,12-25.59,17.62-3.45,2.23-1.61,5-1.8,7.48-.87,11.46,1.42,23.09-2.09,36.71,8.82-12.87,21.45-18,32.48-24.73Q953.81,1394.25,960,1390.38Zm0-52.36v-52.45q-20,15.62-41.43,29.29c-2.14,1.37-1.44,2.75-1.45,4.12q-.14,23.25,0,46.49a41.63,41.63,0,0,0,.67,5.19c1.32-.87,2.62-1.78,4-2.62C935.54,1359.28,948,1349,960,1338Zm0-63v-51.11q-3.88,2.74-7.82,5.47c-10.76,7.46-19.84,17.35-32.57,22-.46.16-.52,1.81-.52,2.76,0,17.16,0,34.32,0,52.35C932.54,1296.14,946.3,1285.67,960,1275Zm0-61.15v-54.37a287.77,287.77,0,0,1-39.44,25.21c-1.44.77-2.39.59-2.31,3.13.55,16.66.56,33.34.77,50,0,1.5.18,3,.28,4.49,1.57-.49,3.47-.59,4.69-1.54C935.79,1231.58,948.12,1223,960,1213.89Zm0-64.46v-40.84c-12.76,9.92-25.46,19.75-40.16,26.77-.67.32-.74,2.34-.74,3.56-.06,9.5-.09,19,0,28.5,0,3.08.38,6.15.59,9.23,3.11-1.54,6.51-2.68,9.29-4.68C939.36,1164.52,949.67,1157,960,1149.43Zm0-51v-45.89a360.11,360.11,0,0,1-33.79,26.56c-7.73,5.48-6.81,9.93-7.07,16-.32,7.32-.16,14.67,0,22,0,3.21.49,6.42.75,9.62,3-1.52,6.29-2.71,9-4.64C939.55,1114.6,950,1106.79,960,1098.46Zm0-57.74v-40.19a170.67,170.67,0,0,1-29.9,21.9c-19.4,11.21-9.81,27.67-11,42.33-.27,3.32-.17,6.67-.25,10,3.28-2.09,6.76-3.92,9.8-6.31A363.22,363.22,0,0,0,960,1040.72Zm0-51.41v-44c-4.38,3.91-8.93,7.65-13.68,11.14-8.89,6.53-16.26,15.52-27.43,19-1.29.41-1.71,5-1.75,7.67-.17,12.19,0,24.38-.06,36.57,0,2.89.39,4.49,3.47,2C933.74,1011,947.44,1000.76,960,989.31Zm0-56V889.17c-8.09,8.33-16.56,16.32-24.91,24.41a40,40,0,0,1-8.23,5.57c-13.41,7.57-7.7,20.31-8.55,31.26-.29,3.72-.19,7.46-.33,11.19-.06,1.71-.25,3.41-.38,5.11,1.77-.78,3.76-1.26,5.26-2.39A436.75,436.75,0,0,0,960,933.35Zm0-56V845.72c-8.3,8.53-17.26,16.35-27.54,22.19-19.42,11-11.91,28.14-13.34,43.47-.07.69.54,1.44.83,2.16,1-.64,2.13-1.2,3.1-1.93C936.53,901.38,948.51,889.62,960,877.38Zm0-46.18V786c-1.79,1.89-3.6,3.76-5.45,5.63-11.21,11.33-23.83,21.08-34.39,32.89-2.28,2.54-.92,8.41-1.07,12.74-.13,3.83-.13,7.67,0,11.5.2,6.37.56,12.72.85,19.08,5.11-4.08,10.62-7.76,15.27-12.31C943.48,847.43,951.81,839.38,960,831.2Zm0-58V731.08c-11.71,14.49-24.21,28.22-40.06,38.5-.76.49-.83,2.4-.84,3.65q-.09,18.12,0,36.25a16.46,16.46,0,0,0,.66,3.19c.88-.65,1.79-1.25,2.62-1.95A325.68,325.68,0,0,0,960,773.24Zm0-54.89V674.69c-10.71,13.31-22.78,25.39-37.12,35.4a8.34,8.34,0,0,0-3.91,7.83c.23,13.44.08,26.88.06,40.32,0,2.82.56,3.25,2.9,1.24C936.23,747.25,948.42,733.08,960,718.35Zm0-212.65V64H465.11c.67,6.53,1.23,13.08,2,19.61,3,26.67,6.56,53.17,15.55,78.74,8.05,22.93,14.51,46.41,22.72,69.28,4,11,10.1,21.24,15.63,31.63,5.33,10,10.73,20,16.86,29.57a310.91,310.91,0,0,0,20.27,28.1c12.34,15.13,24.15,30.73,38.62,44,17.08,15.72,33.86,31.68,53.29,44.69,12.72,8.52,24.37,18.62,36.66,27.8,17.46,13,38.29,19.62,57.26,29.71,22.6,12,46.71,19.18,71.24,25.27,20.82,5.17,41.59,9.88,63.37,11.07,21.58,1.18,43.12,3.9,64.76,3.14C948.87,506.44,954.44,506.1,960,505.7ZM908.87,649.75c12.57-22.13,19.89-45.47,16-71.27a11.23,11.23,0,0,0-8.12-9.31c-4.28-1.29-7.8.31-9.58,4.74-5.17,12.81-10.48,25.6-9,40.09,1.67,10.1,3.29,20.21,5,30.29.27,1.56,1.28,3,1.79,4.5C905.87,651.26,907.72,651.77,908.87,649.75ZM816.45,1616H851.1c-2.07-5.74-8.79-5.44-17.53-2.87A85.44,85.44,0,0,1,816.45,1616ZM616.67,1269.22c2.78.3,2.46-.43,1.75-2.2-4.76-11.81-7.93-24.32-15.51-34.89-4.45-6.21-7.79-13.57-16.83-14.51-7.47,2.51-12.45,8-10.75,16.23C578,1246.76,603.82,1267.87,616.67,1269.22Zm-322.13-57.11c1.15-2.81,4-8.17-2-11.15-8.39-4.15-15.42.7-20.92,4.74-13.6,10-22.67,24.13-29.83,39.3-1.38,2.92-1.21,6.59-1.89,10.76,10.06-3.42,18.1-6,25.41-10.73C278.15,1236.66,288.72,1226.33,294.54,1212.11Zm-66.12,63.94c.65-1.32.39-3.1.82-7.09-11.64,13.64-22.06,25.31-31.87,37.47-10.47,13-20.14,26.61-30.61,39.61-7.92,9.84-14.82,20.63-24.85,28.64-1.1.89-3.54,1.72-4.21,1.17a7.14,7.14,0,0,1-2.63-4.83c.18-16.59,1-33.17.93-49.76,0-20.15-.77-40.29-1-60.43s.4-40.15-1.7-60.27c-1.65-15.78.74-32-1-47.76-1.07-9.52-1.84-19.33-2.51-28.73-.9-12.46-2-25-2.75-37.53-.84-13.36-1.53-26.73-2.37-41.64-4.64,10-3,19.14-3.58,28-1.85,30.91-5.21,61.75-4,92.79,1.07,26.29.41,52.59,1.45,78.92,1.42,36.15-.82,72.45-1.44,108.69-.12,6.78,0,13.55,0,20.32a34.35,34.35,0,0,1-.42,3.91c-3.69-1-8.26-.89-10.93-3.1-14.26-11.76-28.62-23.25-41.67-36.58v27.78a324.6,324.6,0,0,0,27.83,31.6c9.47,9.3,22.45,18.74,22.53,33,.08,12.38-1,25.48-.32,37.56,1.06,19.94-1.68,39.53-1.32,59.32.54,29.61-.53,59.26-1.59,88.88H143c.23-21.76.58-43.54-.8-65.2-1.74-27.09.32-54.18-1.65-81.11-1.26-17.16-3.29-33.77,6.47-49.06,6.91-10.81,14.91-21,21.39-32q17.9-30.51,34.5-61.78C211.84,1310.13,220,1293,228.42,1276.05Zm-119-41.89c2.13-14-7.37-19.67-15.8-27.9-10.17-9.93-20.15-20.09-29.59-30.73v41.35c13.65,13.87,26.91,28.12,39.2,43.29,1.24,1.53,3.31,2.41,5,3.59a43.38,43.38,0,0,0,.72-5.15C109.06,1250.45,108.17,1242.15,109.39,1234.16Zm0-74.83c0-8.92,1.81-18.65-1.18-26.5C106,1127,97.38,1123.56,91.65,1119,81,1110.56,72.27,1100.38,64,1089.8v25.9c12.39,16.44,28.42,29.41,42.88,43.88C108.84,1161.55,109.38,1161.47,109.38,1159.33Zm-.22,24.25c1.07-9.25-2.71-13.92-9.7-19.69-11.89-9.81-21.63-22.19-32.51-33.26-1-1-2-2-3-3v35.88c10.55,11.07,20.57,22.66,31.13,33.73,4.24,4.44,10.36,7.07,13.81,16.27C108.94,1201.54,108.13,1192.45,109.16,1183.58ZM109,1332.34c.86-8-6.91-7-10.37-9.95-11.79-10.12-23.84-19.91-34.65-31.09v33.92c6.36,6.1,12.87,12,19,18.34,6.38,6.52,14.15,11.68,21.31,17.43a11.55,11.55,0,0,0,2.08,1c.83-4,2.1-7.89,2.37-11.89C109.19,1344.23,108.38,1338.21,109,1332.34Zm-.12-16.19c0-13.33,1.31-26.85-.59-39.91-.78-5.3-8.6-9.49-13-14.35Q79.6,1244.66,64,1227.36v52.86c4.38,4.67,8.79,9.29,13.28,13.84,8.56,8.68,18.44,16,27.8,23.92a4.11,4.11,0,0,0,3,.66C108.52,1318.56,108.9,1317,108.9,1316.15Zm-4.19,203.06c4.8-14.34-7-18.58-13.9-25.72Q77.46,1479.68,64,1466V1511q11.9,10.93,23.82,21.86c1.91,1.74,4.37,2.87,6.49,4.4,2.69,1.94,4.53,6.87,8.37,4.87,4.83-2.51,1.85-7.5,1.06-11.16A24.42,24.42,0,0,1,104.71,1519.21Zm-.69-23.92a11.25,11.25,0,0,0,.87-3.15c-.26-13.48-.12-27-1.17-40.42-.41-5.14-6.69-6.48-10.43-9.45-9.09-7.22-18.19-14.58-27.26-21.71-.68-.54-1.36-1.08-2-1.63v35.34c10.35,10,20.23,20.43,28.87,32.11,2.28,3.08,5.55,5.45,8.48,8C102,1495,103.12,1495,104,1495.29ZM75.84,1616h27.22c-.29-3.86-.63-7.64-1.11-11.41-2-16.16-20-17.26-27.73-28.44A45.72,45.72,0,0,0,64,1566.06v40.76C68,1609.81,72,1612.85,75.84,1616Zm26.55-27.4a18.64,18.64,0,0,0,.5-4.28c-1.16-10.49,4.13-22.29-2.39-31.26-5.73-7.89-15.06-13.13-22.65-19.72-4.58-4-9.24-7.89-13.85-11.84v34.87c11.62,10,22.71,20.68,34.79,30.1A31.54,31.54,0,0,0,102.39,1588.6Zm1.21-148.34c-3.42-6.74,3.42-14.27-3.62-21.62-12.23-12.78-24.52-25.55-36-39v30.13q5.18,4.57,10.39,9.1c8.75,7.56,18,14.51,27.13,21.66C101.9,1440.85,102.89,1440.37,103.6,1440.26ZM56,1618.34V61.66l-48-48V1666.34Z"/><path d="M868.68,610.78c2,10.64,6.79,19.49,13.11,27.72q-2.84,4.47-5.58,9.1c-8.22-10.71-13.69-23.06-17.1-36.7-.52-2.07-1.87-6.12,1.83-6.78C865.44,603.33,868,607.25,868.68,610.78Z"/><path d="M863.73,670q-2.18,4.14-4.29,8.38c-7.43-8.68-14.32-17.85-21.12-27.13-2.54-3.46-.21-5.38.87-7.92,1.63,1.52,3.33,3,4.86,4.57C850.83,655.06,857.18,662.64,863.73,670Z"/><path d="M846.21,706.74q-1.94,4.43-3.82,8.93a160.89,160.89,0,0,1-16.21-22.52c-1.64-2.77-2.23-6-.26-7.58,2.46-2,4.16,1.15,5.61,3.11Q838.46,698.07,846.21,706.74Z"/><path d="M830.79,745.06Q829,750,827.2,754.93a132.91,132.91,0,0,1-11-18.34c-1.69-3.44-3.77-6.77-4.87-10.39-.66-2.14-2.6-5.5.65-7,2.76-1.28,4.44,1.13,5.59,3.56A144.67,144.67,0,0,0,830.79,745.06Z"/><path d="M817.44,783.79q-1.56,4.85-3.07,9.73c-.23-.28-.47-.56-.7-.85-5.32-6.52-8.62-14.73-12.63-22.28-.51-1-.7-3.37,1.66-3.32,1.33,0,3.26.53,3.88,1.48Q811.7,776.46,817.44,783.79Z"/><path d="M806.16,821.37q-1.3,4.61-2.56,9.24c-4.28-6.46-8.34-13.09-12.75-19.46-2.05-2.95-2.36-5.88.35-7.67,3.15-2.08,3.47,2,4.62,3.51C799.35,811.72,802.74,816.56,806.16,821.37Z"/><path d="M795,863.77c-.75,3.05-1.48,6.1-2.21,9.15q-1.29-2.14-2.55-4.32c-3.64-6.29-10.65-10.9-9.36-19.51a13.78,13.78,0,0,1,1.15-3c.84.5,2,.79,2.46,1.52C787.83,853.15,791.35,858.52,795,863.77Z"/><path d="M784.29,911.08q-1.12,5.35-2.21,10.69c-6-7.2-13.14-14.09-13.24-24.69,0-1.58-.87-3.79,1.5-3.91,1.21-.07,3,1.33,3.7,2.54A133.77,133.77,0,0,0,784.29,911.08Z"/><path d="M773.74,965.5q-.91,5.1-1.78,10.17c-7.45-8.4-14.42-17.28-18.68-27.9-.41-1,.69-3.57,1.75-4.1,2.56-1.3,3.45,1.6,4.42,3Q766.17,956.45,773.74,965.5Z"/><path d="M764.85,1019.79q-.81,5.34-1.58,10.63c-2.69-3.18-5.32-6.43-7.92-9.75,0,3.28-.35,6,.06,8.55,1.31,8.3,2.09,16.38,4.65,24.1q-1,7.62-2,15.09c-1.45-.22-2.86.85-3.6,4.95-2.29,12.71-9.17,8.85-16,3.92-3.63-2.61-7.21-5.28-11.72-8.58.84,6.81,2.46,12.9,2.17,18.91-.9,19.06-2.34,38.11-4.07,57.12-.2,2.23-3.14,5.24-5.44,6-5.62,1.9-10.53-2-14.22-5-6.95-5.77-12.69-13-18.95-19.58-.93-1-1.91-1.9-2.87-2.85-.74,1.43-2.18,2.88-2.12,4.28.83,21.63-7.87,41.36-12.31,61.92-.43,2-2,4.5-3.8,5.32-2.94,1.39-6-.32-8-2.63-5.53-6.61-9-14.32-12.92-22a195,195,0,0,1-13.94-34.65,123.44,123.44,0,0,1-3.26-17.54c-.26-2-.81-3.15-2.55-3.49-.27,0-1,2-1.43,3.13-6.14,16.54-13.73,32.55-24.42,46.47-6.43,8.38-20.87,1.2-25.57-12.6-4.39-12.9-10.09-25.18-13.2-38.8-2.34-10.26-15.65-16.34-21.1-26.9-10.91-21.15-22-42.15-30.14-64.65-3-8.38-12.76-5.61-19.32-7.78-15.27-5.07-31-8.74-46.53-13.05-20.58-5.71-41.11-11.55-61.7-17.21-11.1-3.05-22.28-5.83-35.88-9.37,18.9,23.07,29.62,47.22,37.59,72.7,1.07,3.43.64,7.53.07,11.19-.31,2-2,4.55-3.78,5.27-2.59,1.07-2.32-2.3-2.86-3.63-12.19-29.91-30.81-55.81-49.9-81.5-6.24-8.41-14.33-11.81-24-12.64-28.36-2.42-53.54-13.33-77-28.77C198.53,918.71,176.91,896,163,867.2c-9.29-19.23-16.5-39.14-16.65-61.75-.2-28,7-54.52,13.45-80.89,5-20.41,10-41.16,11.81-61.56,1.31-15-2.71-32.21-11.05-47.18-11-19.74-21.51-40.68-17.27-64.09s-.45-48.61,11.85-70.34c8.77-15.48,22.11-25.95,39.17-32.87,17.32-7,34.41-4.89,52-5.72,16.23-.75,31.92-10.93,48.06-16.32,11.58-3.87,23.19-8,34.49-12.29,12.16-4.59,24.51-8.87,36.7-13.44,18.4-6.89,37-13.12,55.48-19.89,10.91-4,21.52-8.84,32.48-12.69,9.7-3.4,19.65-6.19,29.63-8.62,1.5-.37,5.68,3.36,5.44,4-1,2.7-2.74,5.68-5.08,7.22-16.1,10.61-32.39,20.95-48.7,31.25-18.8,11.89-37.74,23.57-56.51,35.51-15.68,10-31.11,20.33-46.85,30.22q-26.92,16.94-54.24,33.28c-4.71,2.84-3.9,8.27-6.91,12.07-9.3,11.79-19.33,22.31-32.09,30.7-6,3.93-4.81,12.13-1,18.59,14.61,24.46,17.63,50.81,14.33,78.74-1.32,11.1-3.56,22.12-4.31,33.16-1.13,16.72-4.86,32.89-8.26,49.09s4.66,33.6,23,41.22c23.3,9.68,46.84,11.37,71.9,3,23.27-7.74,48-8.59,72.78-5.29,10.39,1.38,21.13,1.07,31.74,2.19,15.86,1.67,30.45,6.88,45.56,11.3,26.33,7.7,46.51,23.75,66.46,40.85a31,31,0,0,1,7.74,10.09c7,15,21.9,7.6,32.58,12,7.94,3.31,16.38,5.52,24.11,9.24,28.44,13.69,55.32,29.88,77.41,52.81,17.15,17.8,34.24,35.64,43,59.72,5.9,16.24,10.68,33.81,20.53,47.47Q760.18,1014.07,764.85,1019.79Zm-18.27,48c2.07-3.32,2.52-6.91,2.39-10.82-.63-18.68-3-37.24-8.35-55-4.79-16-10.78-31.88-18.58-46.57a166.19,166.19,0,0,0-34.29-43.81c-13.6-12.56-27.13-25.69-42.58-35.63-17.16-11-36.34-19-54.91-27.75-4.44-2.08-10-1.82-15-2.63,1.78,3.17,3.39,6.46,5.38,9.5,13.71,20.83,29.62,38.91,55.56,44.57,2.46.53,5.57,1.77,5.63,4.85,0,1.85-1.16,4.54-2.66,5.47-10.33,6.42-21.24,12.06-33.7,11.93-10.34-.11-20.66-1.67-30.93-2.58,31.24,24.72,73,33,99.74,65,.15-2.62,1-5.39.34-7.68-6-20-13.68-39.23-25-56.89-.79-1.24-1.27-3.6-.62-4.62,1.15-1.81,3.15-1.5,5.18-.34,13.64,7.76,17.31,22.31,22.5,35.13,4.5,11.11,4.41,24.52,8.43,35.28,11.26,30.19,30,56.25,54.65,77.62C741.9,1064.63,744.31,1066.14,746.58,1067.8ZM718.31,1115c1.57-17.66,5.3-35.55.65-53-2-7.37-8.18-13.93-13.4-20-14.69-17.2-19.24-42.36-41.86-53.27-2.58-1.24-5.24-2.33-7.86-3.49l-1.28,5.24c6.07,23.2,13.18,46.68,18.21,70.6,5.56,26.45,20.43,46.92,38,66.13a47,47,0,0,0,5.5,4.47c.23-2.21.41-4.43.69-6.63C717.38,1121.73,718,1118.4,718.31,1115Zm-48.81,34.16c5.72-19.89,8.87-39.76,1.13-59.87a234.2,234.2,0,0,1-13.79-57.47c-.43-3.65-2.41-10.3-3.19-10.23-8,.73-13.67-5.86-20.27-5.82-2.28,26.28-4.29,53,1.47,79.68s15.81,51.66,29.51,76.3C666.22,1163.47,667.48,1156.22,669.5,1149.19ZM648.1,1011A80,80,0,0,0,644,977.17c-1.1-3.11.84-12.23-7.75-9.37a185.87,185.87,0,0,1-32.76,7.6c1,2.06,1.45,4.13,2.7,5.47,11.68,12.51,25.71,22.1,39.77,31.64C647.27,1013.42,648,1012.47,648.1,1011Zm-22.37,21.91c1.64-7.48,2.71-16.53-2.49-21.32-8.63-8-18.91-14.1-25.08-24.57-1.69-2.86-2.84-8.34-4.58-8.48-10-.82-20.14-.4-30.87-.4,4.47,9.22,53.41,66.56,59.66,70.52C623.49,1043.39,624.58,1038.13,625.73,1032.89Zm-10.85,84.4c7.34-14.55,9.29-30.13,7.29-46.15-.58-4.66,5.07-11.08-3.37-13.89a54.44,54.44,0,0,1-28-20.81c-3.55-5-8.22-11.85-13.22-12.64-16.25-2.58-33.08,1.35-46.73-2.23-8-1.24-9.06.58-6.53,5.23a29.44,29.44,0,0,1,2.71,7.6c4.74,21.27,17.28,38.15,30.63,54.56,1.54,1.89,2.74,1,2.71-1.09-.15-13.89,3-27.19,6.33-40.57.93-3.77,1.28-9.48,4.71-8.38,2.8.89,5.48,7.62,5.23,11.58-.9,14.16-2.44,28.12-2.28,42.49.22,19.6,6.44,37.43,10.94,55.84.66,2.71,1.39,6.54,5.23,7.42a2.85,2.85,0,0,0,2.3-1.08,124.62,124.62,0,0,0,7.31-10.84C605.2,1135.4,610.26,1126.46,614.88,1117.29Zm5.83-155.74c1.06-3.16-2.87-3.31-4.53-4.78-13-11.58-30.68-15.73-43.63-27.46-5-4.57-9.84-11.4-15.74-12.7-27.91-6.12-55.22-13.13-78.88-30.17-1.9-1.37-4.07-5.21-6.25-3s.78,5.26,2.39,7.68c4.08,6.13,8.66,12.47-2.76,15.87-5,1.48-6.78,2.93-2.79,8.18,5.84,7.69,10.59,16.26-2.7,22.12a2.24,2.24,0,0,0-.61,2.14,3.6,3.6,0,0,0,2,1.45c8.78,3.15,17.68,6,26.36,9.4,19.88,7.77,40.83,10.75,61.7,13.84,18,2.66,36,.08,49.33-1.2,6.26,0,8,.23,9.58-.06C616.42,962.48,619.72,964.51,620.71,961.55Zm-2.9-55.49c-.58-.95-.93-2.35-1.77-2.76-18.67-9.23-32.43-23.48-44.11-40.57-11.51-16.84-23.58-33.26-39.91-46.3-16.69-13.31-34.22-24.45-52.53-30.2,3.18,4,7,9.58,11.7,14.42,12.78,13.25,13.12,23,.54,28.3-1.13.47-3.68-.83-3.13,1.7.33,1.53,1.86,3.69,3.18,4,9.75,2.09,16.36,9.43,24,14.68,20.26,14,22.22,25.35,7,34.49-2.88,1.73-7.3.87-11,1.34a9.15,9.15,0,0,0-2.51,1.16c.28.49.49,1.32.87,1.41,17.66,4.12,35.23,8.76,53,12.06,16.89,3.13,34,4.87,51.09,7.12C615.4,907,616.63,906.35,617.81,906.06Zm-42,105.85c-4.38-6.46-7.58-11.29-10.89-16-4.33-6.22-8.27-17.2-13.22-17.7-16.48-1.66-32.34-5.62-48.25-9.34-11.92-2.78-23.55-7.14-34.95-11.7-14.51-5.81-28.65-12.52-43-18.88.93,6,9.67,11.55,3.49,17.11-7.67,6.89-19,8.22-28.16,5.11-9.88-3.35-17.46-3.16-26,4.72C441.3,982.61,505.25,1007.8,575.78,1011.91Zm-52-137.29c-.73-1.75-1.15-3.72-2.22-5.23-10.69-15-26.92-22.9-41.94-32.33-8.72-5.48-18.89-2.92-27.93-4.89-14.44-3.15-29.95-5.75-41.69-16.53-2.3-2.11-4.29-4.57-6.42-6.88,2.47-1.38,4.51-1.32,7.42,0,16.36,7.31,33.58,11.71,51.53,12,9.34.17,18.7-1.25,28.06-1.84,2.48-.16,3.21-1.12,1.57-3-6-6.75-11.82-13.48-18.36-19.83-16.73-16.25-35.77-23.55-58.63-22.86-31.81,1-64.71-6-93.79,13.84-8.57,5.84-19.25,9.56-26,17-22,24.1-33.82,50.61-20.81,84.75,12.83,33.64,42.31,41.37,69.84,41.51-7.78-9.24-15.63-18.61-23.53-27.92-9.6-11.32-23.57-18.39-30.78-32.11-1.39-2.63-1.12-3.31.62-5.37,2.34-2.78,4.05-1.08,5.37.19,12.21,11.7,26.67,19.23,41.85,26.69,17.43,8.58,35.94,6.55,53.57,11,.47.12,4.53,1.55,2.5-1.73C382.19,882,370.94,862.46,350.34,851c-13.53-7.52-26.53-15.74-33.19-30.72a15.16,15.16,0,0,1-.65-3,18.75,18.75,0,0,1,3.36,1.56c7.41,5.32,14.54,11.06,22.19,16a120.32,120.32,0,0,0,35.13,15.35c16.13,4.22,32.06,8.79,51.05,6.88-9.51-8.76-16.86-17.47-26-23.44-11.75-7.67-21.28-19.65-37-20.76A7.91,7.91,0,0,1,358.2,807a34.66,34.66,0,0,1,4.84-.43c21.68,1.18,37.9,13.48,53.35,26.87,8.42,7.3,14.71,17.84,24.1,23.07,24.06,13.43,50.93,17.76,78.33,18.46C520.47,875,522.12,874.73,523.77,874.62Zm-58.09,26.12c1.16.43,4.27-.43,3-1.36-7.41-5.57-.86-18.8-12-21.73-8.74-2.29-15.75-9.55-25.82-8.12-10.37,1.47-20.86,2.11-30.66,3.05C419.42,886,443,892.44,465.68,900.74Zm-10.72,25c4.07.37,11.56,1.16,11.31.15-1.4-5.52-4.33-14.72-7.5-15-21.45-2.15-40.33-9.9-57.85-21.87a16.31,16.31,0,0,0-3.68-1.36c.28,1.39.5,2.8.84,4.17,1.54,6.09,7.66,12.39-.73,18.55a77.08,77.08,0,0,0,18.26,8.76C428.43,923.52,441.64,924.53,455,925.74Zm-34.2,24.64a17.16,17.16,0,0,0-.54-3.23c-3.45-9.47-10.74-14-19.15-19.56-16.77-11.11-33.85-17-54.4-16,19.18,20.87,43.31,31.67,69.27,39.16C417.39,951.19,419.14,950.53,420.76,950.38ZM409.57,396.62c-2.4-.88-3.49-1.57-3.76-1.33-5.34,4.7-12.34,4.32-18.5,6.43-15.08,5.17-29.63,11.83-44.63,17.24-23.31,8.42-46.9,16.06-70.18,24.54-7,2.54-20.22,4.4-5.34,15.25,2.85,2.08,2.71,8.91,8.68,6,14-6.87,28-14,41.91-21.05q38.24-19.41,76.43-38.9C398.64,402.51,403,400.1,409.57,396.62Zm-9.25,16.31c-4.6.44-5.81.21-6.61.69-13.59,8.11-27.73,15.06-42,21.89-24.67,11.81-48.91,24.56-72.81,37.84-5.76,3.2,1.81,9.66.33,14.72.6,0,1.36.25,1.79,0,20.5-13.07,40.9-26.3,61.46-39.27C360.67,437.28,379.06,426.08,400.32,412.93Zm-23,539.29a60.74,60.74,0,0,0-5.64-2.32c-7.88-2.22-11.59-11.47-21.39-11.25-14.19.32-28.53-.34-41.67-7.2-1.38-.72-3.5,0-5.28,0,.16.59.14,1.41.52,1.73,8.18,6.61,15.88,14,24.74,19.54C344.21,962.49,360.34,957.2,377.33,952.22Zm-78.83-7.15c-.68-1.75-.89-4-2.11-5.18a125.27,125.27,0,0,1-32.69-51.1c-4.26-12.66-7.11-26-4.21-38.87,6.35-28.09,25-48.33,48.31-66.86-9.51,0-17.39.89-25-.25-7.41-1.11-15-1.87-22-5.6-19.07-10.08-32.61-17-32-42.9.46-19.31,1.94-38.42,6.09-57.31,5.14-23.46-.11-46.63-2.34-69.86-.15-1.54-.72-4.77-4.46-3.69-8.82,2.54-17.88,4.23-27,3.4-3-.28-8-1.37-7.68-5.32.21-2.87,4.77-2.37,7.64-2.65,6.71-.66,13.53-.89,20.07-2.32,1.86-.41,6.38,0,6.15-3.61-.32-5-3.77-7.34-8.67-5.8-10.55,3.3-21.33,1.67-32,1.88-4.18.07-6.32-3.53-9.23-5.71,1.08-.79,2.12-2.18,3.26-2.27,10.32-.84,20.66-1.4,31-2.14,3-.21,6.54,1.35,8.5-2.09.39-.69-.89-2.55-1.7-3.66-2.59-3.52-6.38-2.6-9.55-1.66-13.11,3.88-25.9,3.93-38.2-2.56-1.58-.83-2.4-3.1-3.57-4.7,1.59-.43,3.18-1.26,4.76-1.24,12.5.18,25.07,1.84,37.34-2.06,1.12-.36,3.83.55,2-2.18-1.17-1.77,1.81-6.46-2.65-5.42-18.41,4.29-32.22-4.36-45.47-15.13-2.23-1.81-4.67-3.37-7-5-1,2.75-2.42,5.43-2.9,8.27-4,23.73,4.22,45.38,15.07,65.09,9.06,16.43,13,33.41,14.59,51.21,1.35,15.37-2,30.55-5.57,45.63-5.21,22-9.76,44.18-14.18,66.36-4.6,23.11-3.88,46.1,5.41,68,15.41,36.3,42.1,63.12,74,85.22,14.84,10.28,30.34,19.28,48.4,22.62C293.31,946,296,945.26,298.5,945.07ZM257.05,511.14c5.72-7.71,11-16.51,9.4-26.14-1.72-10.25-7-19.55-16.88-25.45-1.68,5.18-6.44,7.85-10,11.61-17.17,18.12-41.83,18.37-58.92.64-.91-.94-4.4-.71-5.73.28-14.41,10.62-19.06,30.88-13.06,47,6.54,17.58,41.75,28.93,58.6,20.85C235,533,247.49,524,257.05,511.14Zm-17.46-52c1.41-1.39,3-3.27.47-3.82-5.46-1.16-11.26-2.19-16.72-1.55a163.89,163.89,0,0,0-26.06,5.5c-4.31,1.24-8.06,4.39-12.07,6.68,2.11,2.25,3.82,5.47,6.42,6.54,3.94,1.63,8.15,3.76,12.23,2.37C218.82,475.62,229.8,468.78,239.59,459.15Z"/><path d="M754.52,1097.64q-.69,6.09-1.36,12-1.57-2.37-3.21-4.7c-2-2.86-1.34-5.26,1.14-7.09A2.69,2.69,0,0,1,754.52,1097.64Z"/><path d="M744.93,1147.67c1.28,1.91,2.54,3.84,3.79,5.77q-.68,7.27-1.28,14.19-1.29-2-2.55-4a121.61,121.61,0,0,1-7.66-15.63c-.34-.76.84-3,1.78-3.34C741.83,1143.49,743.58,1145.65,744.93,1147.67Z"/><path d="M744.25,1208.2q-.51,7.36-.93,13.91a170,170,0,0,1-10.91-19.33c-.84-1.75-1.17-3.8-2.24-5.37-1.38-2-2.19-4.5-.43-5.83,2.42-1.83,4.19,1,5.32,2.62C738.19,1198.82,741.22,1203.51,744.25,1208.2Z"/><path d="M716.42,1248.93c1.16,2.68,2.24,5.39,3.26,8.12-2.62-.91-5.21-1.78-7.77-2.59-.28-1.29-.57-2.58-.85-3.87s.83-3.18,1.9-3.92C715.18,1245.14,716,1247.87,716.42,1248.93Z"/><path d="M695.29,1604q2.28,4.29,4.64,8.65c-4.85-.94-9.69-2.05-14.5-3.39-3.36-.93-2.73-3.26-2.72-4.86,0-2.47,2.62-1.57,4-1.41Z"/><path d="M677,1233.17c1.29,4.28,2.67,8.54,4,12.8-2.27-.51-4.49-1-6.67-1.45-.53-3.87-1-7.76-1.59-11.61-.15-1-2-3.86,1.14-3.65C675,1229.34,676.49,1231.63,677,1233.17Z"/><path d="M674.78,1564q1.76,3.55,3.54,7.14c-5.46-1.07-11.13-1.13-16.6-2.16-2-.38-3.92-2.08-5.44-3.61-.48-.48.07-2.7.82-3.54,1.85-2.09,3.51.38,5.3.6Q668.6,1563.13,674.78,1564Z"/><path d="M658.62,1529.8c1.09,2.41,2.21,4.83,3.34,7.27a56.16,56.16,0,0,1-8.7-1.92c-2.56-.8-7.41,1-6.72-3.24.57-3.5,5.64-3.55,8.72-2.83Q656.94,1529.47,658.62,1529.8Z"/><path d="M640.75,1221.1c5.11,5.67,7.69,12.36,9.62,19.29q-4.7-.63-8.9-1.09c-1.62-5.6-3-11.3-4.45-16.94-.25-.94.39-2.12.61-3.19A13.22,13.22,0,0,1,640.75,1221.1Z"/><path d="M642.14,1491.87c.83,2,1.66,4,2.52,6a128.06,128.06,0,0,0-13.8-2.13c-2.12-.2-5.25-1.15-4.58-4,.79-3.38,3.41-1.21,5.59-1C635.29,1491.17,638.72,1491.52,642.14,1491.87Z"/><path d="M626.07,1450.5q1.21,3.39,2.51,6.84-5.7-1.42-11.37-3.18c-2.18-.68-5.07-1.05-4.14-4.31,1-3.44,3.53-1.72,5.73-1.23C621.22,1449.16,623.64,1449.82,626.07,1450.5Z"/><path d="M611.89,1408.39q1.38,4.47,2.86,9.08-6.32-1.71-12.54-4c-4.05-1.47-8.63-1.55-12.32-4.37-1.27-1-3.78-1.53-2.61-3.35.74-1.14,3.51-1.74,5.15-1.43C598.93,1405.6,605.41,1407,611.89,1408.39Z"/><path d="M600.21,1366.37c.63,2.59,1.3,5.22,2,7.9-7.18-1.84-14.29-4-21.34-6.23-2.66-.85-8.41-2.15-6.38-6.43,2.83-6,8.61-1.22,11.6.05A96.37,96.37,0,0,0,600.21,1366.37Z"/><path d="M593.71,1337.15c-1.28-.31-2.56-.64-3.84-1-7.26-1.93-14.77-3.19-20.79-8.12-1-.78-3.52-2.1-1.49-3.82a5.91,5.91,0,0,1,5-.71,149.93,149.93,0,0,0,19.63,5.59Q592.9,1333,593.71,1337.15Z"/><path d="M586.78,1291c.25,2.59.54,5.33.88,8.2-11.37-2.36-22.45-5.33-32.09-12.6-1-.75-1.51-2.15-2.25-3.24,1.44-.2,3.08-.95,4.29-.52A233.76,233.76,0,0,0,586.78,1291Z"/><path d="M576.22,1457.52c2,1,5,3.13,3.47,6.17-1.45,2.77-4,.38-6.18.28-10.24-.44-20.51-.82-30.76-.56-7.51.19-15,1.33-22.48,2.16-11.6,1.29-12.45,12.52-16.85,19.69-9.79,15.94-17.8,32.94-26.8,49.37-1.09,2-4.06,4.57-5.69,4.28-2.91-.52-2.37-4.18-1.9-6.44A112.47,112.47,0,0,1,481.29,1500c5.91-10.37,12.89-20.13,20-31.13-30.28,9.52-57.54,24-86,35.68,21.08-18.51,44.54-32.65,73.78-40.09-20.1-7.22-38.66-9.76-57.41-11.47-2.93-.26-5.7-2.1-8.55-3.21,2.84-4.35,8-4.46,11.86-4.51,22-.33,43.84,1.51,64.18,11.22,4.91,2.34,7.14.06,5.59-9.19-2.89-17.35.12-34.55,0-51.81s-1.3-34.56.77-51.5c1.44-11.79-.09-23.48,1.56-35,2.15-15-2.5-28.23-9-41.11a10.41,10.41,0,0,1,1-11.51c11.08-15.12-.28-29.68-1-44.43-.48-10-3.93-19.85-5-29.87-3-27.38-5.16-54.85-8.39-82.19-.64-5.42-3.67-13.14,2.11-13.79,6.48-.72,6.54,8.17,7.21,13.7,2.53,20.92,4,42,7.26,62.77,4.69,30.37,9.14,60.89,16.37,90.7,4.26,17.53,1.24,34.32,1.24,51.39,0,37.83-1,75.66-1.85,113.48-.25,10.94-1.06,21.87-2,32.77-.8,9.11,4.76,6.08,9.32,5.34C541.71,1453.36,559.19,1449.09,576.22,1457.52Z"/><path d="M507.58,1054.82c2,1.72,5.34,3.22,3.4,6.56s-4.79-.07-6.25-.63c-13.77-5.31-25.07-14.28-34.9-25.21-3.21-3.58-8.88-5.19-8.88-11.52-.85-2.33,1.33-3.29,2.7-4.49,1.86-1.61,2.91.38,4.09,1.38Q487.67,1037.86,507.58,1054.82Z"/><path d="M480.18,1069.92c-14.76.73-21.05-8.87-28-17.06-7.14-8.45-13.79-17.3-20.56-26.06-2.11-2.74-4.89-6.22-1.41-9.13,3.21-2.68,5.63,1.28,7.15,3.35,11.52,15.71,26.57,28.53,36.83,45.26C475,1067.56,477.06,1068.06,480.18,1069.92Z"/><path d="M408.67,1013.62c13.89,17.53,23.05,37.36,29.64,62.9-12.1-13.8-17.34-26.77-23.41-39.24-3.4-7-6.91-13.9-9.81-21.08C404.05,1013.62,406.87,1011.36,408.67,1013.62Z"/><path d="M415.16,1379.52c1.58.76,3.72,3,3.54,4.27-.4,2.9-3.2,1.11-4.95,1.25-14.7,1.19-27.93-6.72-42.8-6.33-16.07.42-22.13,13.25-31.82,21.69-7.91,6.89-13.22,16.45-22.39,22.06-.54.33-1.46,0-2.2,0,.38-1.85.4-3.88,1.19-5.54,6.74-14.16,18.52-24.17,31.42-37a261.87,261.87,0,0,0-57.53,23.85c-2.63,1.49-6.3,3.55-8.39,1.08-2.56-3,1.85-4.48,3.51-6.29,14.3-15.55,34.05-20.38,53.06-26.61,1.31-.43,3.09.54,7.7,1.48-19.05-10.94-37.71-13.57-58-19.33,17.57-4.58,31.92-1.72,46,3.42,6.78,2.47,13.32,5.59,19.91,8.57,2.68,1.22,3.69-.31,3.41-2.29-1.91-13.34,5.45-24.31,9.34-36,6-18.24,12.27-36.35,17-55,3.24-12.79,7.05-25.59,10.57-38.27,2.23-8,11.08-17.94.18-28.23-4.08-3.85-2.31-13.86,1.31-19.66,7.66-12.26,1-23.89,0-35.74-1.91-24.28-4.17-48.53-6.31-72.79-.25-2.88,2-5,3.73-4.79,3.44.53,5.94,2.91,6.45,7,2.07,16.54,4.18,33.08,6.56,49.58,3,20.68,7.65,41.22,9,62,1.64,24.71-8.56,47.77-14.22,71.4A545.29,545.29,0,0,1,375.1,1341c-3.11,7.66-5.55,15.61-9,23.1-2.15,4.67-.5,4.8,3.42,4.91C385.41,1369.5,400.75,1372.65,415.16,1379.52Z"/><path d="M411.18,1059.44v8.64c-1.58-2.24-3.61-4.28-4.67-6.74-5.92-13.7-11.61-27.51-17.37-41.28-.31-.75-.28-1.75-.79-2.3-2.85-3.1-7.94-7.06-3.3-10.48s5.94,4,7.33,6.39A194.52,194.52,0,0,1,411.18,1059.44Z"/><path d="M323.46,1288.18c2.27,3.09-.45,6.1-3,8.3a240.05,240.05,0,0,1-40.74,28c.16-3.48.32-6.87.46-10.16,6.1-3.66,12.12-7.48,18.08-11.4,6.27-4.13,12.36-8.54,18.5-12.86C318.85,1288.56,321,1284.76,323.46,1288.18Z"/><path d="M322.23,1249.89c3.77,3.52-1.82,6.25-4,8.85-10.44,12.59-23.3,22.17-37,30.27q.19-5.37.36-10.22a288,288,0,0,0,31.29-24.55C315.7,1251.72,319.62,1247.46,322.23,1249.89Z"/><path d="M304,1561.88a2.54,2.54,0,0,1,3.85,1.71c-.48,3.87-4,5.49-6.85,7.41-13.05,8.89-28.56,11.64-43.07,17,.3-2.62.61-5.23.91-7.84,8.81-3.29,17.63-6.57,26.29-10.25C291.41,1567.27,298.16,1565.61,304,1561.88Z"/><path d="M304.47,1526.86c1.88,2.62-.9,3.3-2.08,4A350.1,350.1,0,0,1,262,1551.74q.5-4.53,1-9c1.94-.89,3.89-1.79,5.84-2.67,10.24-4.65,20.32-9.61,30.45-14.5A3.7,3.7,0,0,1,304.47,1526.86Z"/><path d="M300.3,1491.57c3.13,4.27-2.75,4-4.21,5.06a247,247,0,0,1-30.3,18.49q.52-5.43,1-10.79c8.06-4.12,16.1-8.31,24.14-12.48C293.66,1490.46,297.93,1488.32,300.3,1491.57Z"/><path d="M297.31,1417.57c2.3,4-4.18,7.08-7.27,8.92-5.65,3.37-11.43,6.43-17.31,9.29.25-3.24.49-6.44.73-9.62,4.42-2.14,8.85-4.26,13.32-6.29C290.19,1418.33,295.12,1413.71,297.31,1417.57Z"/><path d="M296.6,1453.25c1.56,2.44-1.18,4.41-3,5.88a170.23,170.23,0,0,1-24.2,16.57c.29-3.34.58-6.66.85-9.94q4.33-2.55,8.55-5.35a108.07,108.07,0,0,1,11.41-6.3C292.24,1453.1,294.69,1450.29,296.6,1453.25Z"/><path d="M276.41,1383.58c.53,0,1.11.09,1.64.08-.42,2.16-.08,5.47-1.36,6.3l-.72.47C276.12,1388.13,276.27,1385.84,276.41,1383.58Z"/><path d="M230.15,807.13a3.63,3.63,0,0,1-.34,4.87c-1.25,1.5-2.48,1-3.92.12-14.47-9-19.72-23.42-23.23-39.09,1-3.87,2.07-7.83,7-8,6.22-.27,2.87,4.66,3.37,7.23C215.55,785.43,223.46,796,230.15,807.13Z"/><path d="M227,1193.48c3.24,2.51,2.82,6.3,1.52,9.12q-3.21,7-5.91,14.08c-2.94,0-5.74,0-8.36.17q.94-2.7,1.93-5.38c2.1-5.69,4.69-11.2,7.18-16.74C224,1193.27,225.41,1192.24,227,1193.48Z"/><path d="M218.64,493.47c4,.09,10.65,1,10,6.66-.64,5.24-5.84,8.74-10.15,11.22-6.87-1.51-8.8-7-8.92-11.31C209.42,496.35,214.83,493.38,218.64,493.47Z"/><path d="M222.23,690.51c.8,1.19,1.82,2.68,1.69,4-.53,5.34-21.81,23.45-27.76,23.46-.31-.17-1.62-.67-1.57-.94.25-1.51.45-3.27,1.35-4.39a105.26,105.26,0,0,1,23.78-21.53C220.42,690.6,222.05,690.24,222.23,690.51Z"/><path d="M217.78,709.49c2.8-2.36,3,2,3.45,4.62-2.8,10.41-12.8,14.9-19.91,21.93a42.37,42.37,0,0,1-17,10.57c-1.39.43-3.12-.21-4.69-.35.35-1.14.35-2.66,1.1-3.35C193,731.64,205.05,720.19,217.78,709.49Z"/><path d="M210.45,825.07c.68,1.67,1.48,4.4.69,5.33-1.73,2-3.73-.13-5-1.37-11.47-11.14-15.22-25.77-18-40.77-.55-2.94-1.45-6-1-8.88.71-4.7.63-12,6.39-12,6.89,0,1.91,7.28,3,9.31C198.23,794.87,204.32,810,210.45,825.07Z"/><path d="M204.65,1188.14c.46,1.32,1.5,2.74,1.29,3.93-1.67,9.27-4.9,18-8.48,26.53-3.45.58-5.41,1.05-5.41,1.05l-.93-5.93q2.28-5.19,4.53-10.39c1.89-4.35,3.46-8.84,5.5-13.11C201.64,1189.21,203.45,1188.82,204.65,1188.14Z"/><path d="M192.93,1169c3.27,3.68.89,8.25-.37,11.1q-2.51,5.64-5.11,11.23-1-6.19-2.12-12.3,2.14-4.15,4.33-8.27C190.17,1169.79,192.72,1168.75,192.93,1169Z"/><path d="M192.52,838.36c1,1.82,1.3,5.5.18,6.79-2.07,2.37-3.44-1.16-4.91-2.19-11.39-8-15.24-20.74-16.36-33-1.44-15.76-5.32-32,1.29-47.83,1.63-3.93,3.25-6,7.11-5s2.26,3.47,1.81,6.48c-.94,6.17-.28,12.58-.28,18.89C180.72,802,182.63,820.93,192.52,838.36Z"/><path d="M189.94,1131c.33,2.34,1.67,5.18.81,6.94-3.12,6.42-6.12,12.93-9.33,19.31q-1.23-6.62-2.47-13.09h0c2.11-3.58,4.32-7.11,6.5-10.65C186.23,1132.23,188.41,1131.81,189.94,1131Z"/><path d="M176.14,1091.13c3.89,2.33-.18,8-1.74,11.48-.84,1.86-1.71,3.7-2.63,5.51q-1.19-5.73-2.36-11.28C171.31,1093.52,173.36,1089.47,176.14,1091.13Z"/><path d="M164.43,1054c.19,1.26.92,2.74.5,3.75-.85,2-1.79,4-2.79,6q-.84-3.72-1.67-7.32l.66-.8C161.84,1054.78,163.31,1054.55,164.43,1054Z"/><path d="M157.38,1009.57c.46,2.34,2,5.24,1.19,6.92q-2.49,4.92-5.27,9.65c-.77-3.18-1.53-6.25-2.26-9.2,1.34-2,2.7-4,4.08-6C155.59,1010.28,156.62,1010,157.38,1009.57Z"/><path d="M148.93,929.35c3.6,16.85-.2,32.19-8.66,46-1.46-5.31-2.27-8.14-2.27-8.14l-2.74-.62c4-9.21,6.38-19,5.7-29.69-.54-8.47-3.66-15.71-13-15.55s-13.6,8.09-14.58,15.92a121,121,0,0,0,0,30.54,49.44,49.44,0,0,0,1.36,6.59l-2.33.64s-1.26,1.75-3.42,5c-3-9.56-6-19.17-5.2-29.5.91-12.12,1.83-22.38,9.63-31.88a19.24,19.24,0,0,1,16.94-7C139.77,912.86,146.84,919.57,148.93,929.35Z"/><path d="M88.33,1015.35q-1.69,3.25-3.41,6.72c-2.65-3.6-5.26-7.23-7.89-10.84-.61-.84-.17-2.43-.21-3.67a11.39,11.39,0,0,1,3.28,1A63.89,63.89,0,0,1,88.33,1015.35Z"/><path d="M72.75,1042.5c.61.71,1.21,1.42,1.83,2.13q-1.17,2.76-2.31,5.6c-1.51-2-3-4-4.52-6.08-1.19-1.61-1.09-2.79.52-3.64C70.45,1039.36,71.57,1041.12,72.75,1042.5Z"/></svg>