<svg xmlns="http://www.w3.org/2000/svg" xmlns:xlink="http://www.w3.org/1999/xlink" viewBox="0 0 976 1600"><defs><style>.cls-1{fill:none;}.cls-2{fill:#f4f3ef;}.cls-3{clip-path:url(#clip-path);}.cls-4{fill:#6060bf;}.cls-5{fill:#50b271;}.cls-6{fill:#ffb85a;}.cls-7{fill:#d81e1e;}.cls-8{fill:#592116;}.cls-9{fill:#992d17;}</style><clipPath id="clip-path"><path class="cls-1" d="M960,22V1578a6,6,0,0,1-6,6H22a6,6,0,0,1-6-6V22a6,6,0,0,1,6-6H954A6,6,0,0,1,960,22Z"/></clipPath></defs><g id="Paper_Backing" data-name="Paper Backing"><path class="cls-2" d="M960,22V1578a6,6,0,0,1-6,6H22a6,6,0,0,1-6-6V22a6,6,0,0,1,6-6H954A6,6,0,0,1,960,22Z"/></g><g id="Wikipedia_Cropped" data-name="Wikipedia Cropped"><g class="cls-3"><path class="cls-4" d="M637.68,884.74c-43-37.85-94-89.53-103.18-150.79-14.1-.5-32.35-1.21-29.36-19.61-1.68-14.36-6.87-27.31-8.72-41.52.29-9-10.11-24.34-1-30,16.14-11.7,49.81-47.73,71.71-27.1,29.48,22.63,19.16,51.92,44.3,47,16,.66,70.48,10.79,47.52,35.41-17,21.09-49.1,96.62-30.22,117.83,13-8.54,8-31.72,17.82-48.86,13-23.82,29.07-89.17,62.9-77.65,18.28-4.74,8.11-51.45,38.93-51.17,52.6,4.07,88,12,130.74,33.43,14.84,6.35,12.09-12.2-.36-14.07-27.41-14.87-51.53-24.17-75.92-29.26-14.89-5-55.07-.63-41.88-26.71,67.07-108.18,172.21,26.55,196.13,104,2.25,5.12-5.25,5.28-5.82,9.64-1.85,8.7,21.06,18.31,9.29,25-63.63,7.42-127.78,40.36-192.27,25.61-14.75-1.75-1.31,25.81-21.47,40C715.86,836.68,673.51,859.25,637.68,884.74ZM491.26,618.64C479,610.25,484.7,587.51,480.37,574c1.77-15.39-18.88-54.26,9.61-51.6,32.46,6.05,63.27,28.87,63.71,61.48-1.63,3.79-5.82,5.28-10.28,6.83C519.73,598.11,507.39,609.14,491.26,618.64ZM660.5,599c-13-11.31-18.89-39.49-15.91-58.33-3.39-17.37,32.13-51.43,39.93-19.35C684.71,548.75,677.43,579.84,660.5,599Zm72.09-42.15C719,537,718.52,504.53,715,479.37c-6-29.06,31.66-53.86,45.49-16.37C771.63,495.41,758.81,537,732.59,556.8Zm-140-39.63c-19.3-12.12,27.56-56.65,38.05-58.56C690.69,449.18,616,516.85,592.56,517.17Z"/><path class="cls-5" d="M703.45,1604a12,12,0,0,0-6.73,0c-4-4-171.24,8-169.46-4.51,12.2-15.62,4.3-40.16,7.94-60.88A596.74,596.74,0,0,1,555,1432.23c16.92-49.37,30-110.35,59-150.55,12.1-5.69,30.08-4,43.26-3.65,10.62-4.47,32.63-9.89,42.92-2.93-15.17,56.38-36.05,117.63-41.11,176.82-.08,27.48-16.81,68-1.76,80.18,20.41-40.85,27.21-91.23,55.91-133.77,50.82-96.09,116.66-178.73,211.81-234.37,100.59-64.39-.78,30-22.33,59.35-41.38,50.89-75.62,108.61-101.32,168.73-27,64.25-53.62,134.21-46.41,203.06C762.38,1612.45,708.87,1600.77,703.45,1604Zm-253.4,0c-48-.24-106.24,0-154.63,0-8.2-2.7-.09-18.28-2-25.5,1.58-32.64-5.14-64.11-6.33-96.6-2.89-43.55-10.13-87.15-18.81-130.16-79.24-85.54-157.64-160.52-258.36-192-10.6-12.22,15.74-5.72,21-5.32,70.18,1.76,137.67,32.57,194.33,60.34-9.49-55.89-53.8-106-86.31-152.15-17.3-25.94-48.56-49.32-66.36-74.3,14.75-5.47,32.74,13,42.4,18.37,256.61,157.64,277.44,602.2,280.14,407.14.18-110.4-10.81-195.84-34.36-315.1-7.73-52.18,42.82,65.13,50.4,70.14,9.09,21.56,28.1,37.86,32.5,61.29.44,4.35,4.68,4.55,7.85,5.67,6.92,5.83,11.57,14.71,17.55,21.66,29.85,35.45,35.6,43,35.66,90.87.84,44,3.47,87.78-.64,131.59,2.15,38.13-16,83.68-2.18,118C508.24,1610.54,453.22,1601.31,450.05,1604Zm-228.86,0c-5.74-3.06-54.53,7.58-48.52-7.7-2.75-82-23.44-154.59-62.67-225-3.09-12.45-67.75-85.84-24.18-58.83,82.68,48.3,147.54,132.77,169.63,224.3,5,20.28,7.45,43.91,9.07,65.36C265.15,1606.12,222.9,1603.06,221.19,1604Zm498.56-381.06c-11.79-10.38-17.74-29.58-25.64-42.38-12.43-11.73-17.76-25.75-5.81-38.76C760.09,1034.87,849.39,944,957.81,879.85,843.47,1026,747.29,1153,719.75,1222.94ZM268.65,822.79C201.37,715.24,128.77,601.5,35.29,507.27c3.36-5.69,15.44,6.55,18.81,7.45C100,545.36,229,629.5,238.87,679.63c1.35,12,7.91,24.3,6.22,35.48-2.51,12.82,12.84,25.48,11.34,40.38C255.54,776,279.15,807.46,268.65,822.79Z"/><path class="cls-6" d="M686.8,1001.29c-33.4-10.44-14.37-63.26-3.78-82-5.86-16.25-5.77-32.64-8.09-49.13-1.77-12.09,8.55-15,16.1-20.39,32.85-28.65,34,50.68,31.57,76.84-1.59,9.37-7.72,15.19.1,22.92C718.19,968.7,710.15,996.43,686.8,1001.29ZM200,975C156.13,964.22,164.31,897,186.4,872.73c-5.88-25.52-11.15-50.81.08-75.27,44.37-31.65,41.84,63.54,26.2,83.35,8.85,25.37,25.89,84.13-12.73,94.15ZM629.14,834.69c-17.65-39.3,8.22-98.29,30.1-137.7,5.8-14.12,33.34-3.37,17.78,8.59C650.37,743.78,637.67,792.23,629.14,834.69ZM905.66,682.88c-47.94-24.07-101-40-153-45.59C737,592.59,921,661.85,905.66,682.88ZM659.93,676.4c-8.21-4.11-13.15-9.23-22.54-10.35-5.74-3.29-21.12-1.69-22.15-6.87-1-13.44,20.08-40.84,35.44-38,9.57-.15,4.76-15.61,12.82-17.54C679.22,619.6,676.44,659.11,659.93,676.4Zm57.17-9.18c-14.78-20.76-10.17-91.53,14.56-103.22C743.89,592.28,740.74,647.05,717.1,667.22ZM594.89,650.6c-11.14-11.57-17.56-31-32.36-38-5.51.38-4.13-8.62-10.21-7.91-20.53,9.81-40.79,22-56,36-30.32-20.52,33.25-44.52,45.61-49.38,5.24-1.3,13.63,4,14.54-4.83-.59-12.36,21.82-80.75,35.76-69.25,3.68,22.55,1.69,42.53-6.09,61.09a6,6,0,0,0,2.35,7.4C597,603,606.84,634.66,594.89,650.6Z"/><path class="cls-7" d="M500.65,1290.93C321.25,1112.43,237.39,717,216.75,468.35c-3.36-39.51-7.68-79.06-11.4-118.55,1.52-10-8.74-29.73,4.16-32.75,52.3,6.61,178.71,1.82,248.05,12.6,7.29,110.16,6.9,218.12,32,328.1,33.3,221.72,118.43,413.92,243.37,598.32,6,10-4.69,11.57-11.29,10.62-73,3.07-148.54,16.15-221,24.24Z"/><path class="cls-8" d="M987.76,952.41c-1.69,18.92-30.91,15.81-26-7.31C962.41,928.27,990.21,934.8,987.76,952.41Zm-3.54,182.75c2.59,6.44-5,9.56-8.22,13.88-11.22,11.34-22.61,22.5-33.53,34.13-19.14,22.64-38.4,45.52-56.7,68.85-19.32,31.66-41.37,62-58,95.12-22.34,47.45-45.22,95.47-57.25,146.94-4.53,22.84-7.27,45.92-12,68.6-2.13,10.11,1.42,20.39-3.09,30.07-1.14,2.46-2.47,2.22-4.41,2.35-2.24,0-2-1.67-2.18-3.25-2-16.89.89-33.37,3.9-49.88,6.1-50.58,21.22-99,42.36-145.39,37.95-95.07,102-178.89,171.89-252.47-113.4,58.81-191.71,143.12-250.24,256.16-32.29,56.74-54.42,119.54-56.6,185.17-.57,5.09-.46,13.57-7.07,13.17-4.82-.25-3.28-9-3.66-13.19-5.34-44.79-.67-89.64,5.72-134.06,7.59-58.43,20-115.87,41.39-170.86,2.87-5.88-5.42-4.54-6.27-4.54-36.11,2.48-33.89,3.36-43,34.36-19,47.41-27.12,98.56-36.65,148.68-4.36,42.35-7.61,85.79-8.16,127.85-12.23,39.34-6.16-71.62-5-76.14a850.94,850.94,0,0,1,51.32-226.79c1.53-7.8-29.55.14-33.55,1.59-6.68,2.06-6.86,11.48-9.68,17.44-28.16,66-52.9,134.92-62.63,206.36-4.54,28.07-5.22,56.4-5.77,84.78-.21,4.2-3.81,4.76-5.91,5.39-1.56,0-2.26-2.92-2.4-5.17-1.66-25.41,2.6-50.53,3.32-75.77,9.31-78.49,37.61-154.58,68.72-226.72,4.66-9.15-2.95-6.56-6.77-6.63-17.76-.32-24.21,11.74-29.13,26.21a1006.27,1006.27,0,0,0-37.81,113.52c-11.5,40.38-20.3,81.45-24,123.32-1.49,14.29-1.34,28.74-2.3,43.09-.19,2.81.69,6.42-2.6,8.47-11.64-16.77-2.52-50.25-1.83-70.51,6.35-60.11,6.53-120.5,4.2-180.79-.63-15.87-2.87-31.69-3.53-47.56-.24-5.73-4.89-6.46-7.32-9.63-13.79-17.12-26.07-35.88-40.6-52.18,3.62,82.06,5.37,165.37,5.2,247.9.31,24.65-1.13,49.33-1.93,74-1.79,16.49,2.48,32.35-6.84,47.32-2-68.26,3.15-131.95.16-199.44-2.84-60.4,2-121.67-6.81-181.68-2.48-12.48-11.51-22.28-18.24-32.72-20.38-36.71-40-67.43-58.17-106.56,19.4,87.31,28.68,174.19,36.25,262.85.61,74.25-.77,148.51,3.55,222.71.37,15.17,2,33.78-8.66,46.09-4.52-27.49-.34-56.84-3.27-84.87-5.24-58.44-18.08-116.39-36.78-171.94-31.33-101.4-80.5-199.88-153.1-278.13-26.67-28.4-57.39-51.53-88.08-74.8-9.89-7.5-20.61-15.05-36.41-19.75,81.64,74.07,144.16,168.81,174.68,274.72a1255.5,1255.5,0,0,1,32.51,147.69c8,46.48,8.28,93.7,14.06,140.38,1.93,15-1.07,29.72-.45,44.57-1.12,4.36-5.85,4-6-1.45,1.19-32.9-3.79-65.6-6.08-98.38-1.11-29.15-6.54-57.73-10.94-86.4-1.06-13.85-5-27.07-6.57-40.72-.88-7.63-5.29-13.57-9.25-19.09-43.41-57.82-97.88-108.63-160.35-145.28-25.61-16.29-52-31.37-81.2-40.28-4.91-1.75-9.8-4.83-9.11-9.51,1-6.08,8.67-4.88,12.64-5,71.56-.49,142.89,22.39,202.8,61.32-44-96.78-104.13-197-201.35-247.32,29.16-12.46,149.16,67.17,181.83,109-3.95-25.29-13.46-46.61-13.86-71.7-7-44.54-36.24-47.63-21.66-104.37,2.57-11.75,13.45-21.59,10.68-33.88-4.1-23.24-11.42-60,9-77.14,51.2-18.19,47,64,31,92.59-3.42,7.88,4.53,14.67,5.81,22.51,16.85,72-17.08,54.67-4.23,93,9.2,47.24,13.12,98.44,35.37,141.52,24.21,35,46.31,71.39,63.56,110.34,34.29,69.8,55.9,141.09,72,217.85,3-127.39-8-254.38-37.33-378.37-5.52-32.5-18.44-62.51-30.89-92.73-13-36.93-26.58-74-36.52-111.84C257.51,797,201.3,724.76,151.86,650.88,126.37,615.05,100.7,579.5,69.29,548.5,52,530.1,32,515,11.48,500.44c-2.07-1.47-2.66-5-3.93-7.63,50.4,3,188.87,117,222.75,159-7.81-53.72-11.9-106.19-17.44-159.92C207.91,435.31,199,378.15,202,321.3c.59-3.9-3.73-10.35.63-11.29a76,76,0,0,1,26.37-.57c35.56,3.17,150.75,9.4,201.55,11.44,11,.47,22.11-.14,33.15.25,4.49.15,2,4.76,2,6.35-.12,59.82,5.86,119.69,10.79,179.19-.09,6.93-2.83,12.21,10,11.09,30.1-2.26,56.52,22.36,69.64,47.89,4.32-18.54,16-33.6,24.4-50.34,6.26-12.5,10.77-25.91,19.36-37.19,9.37-15.42,44.56-41.13,58.24-19,4.21,8.68-2.1,15.27-6.05,21.21-12.93,19.43-30.67,32.95-53.7,38.79-5,.18,1.9,20.55,0,25.57-.77,10.09-1.4,21.27-6.14,29.7-5.67,10.08,2.84,13.88,5,20.34,6.34,19.37,7.88,38.92,3.92,58.92-.2,1-2.73,3.62.95,3.14,3-.38,7.27,2.49,8.75-1.65,5.65-15.77,14.71-29,29.63-36.76,6.39-2.92,23.16-13,14.42-20.82-16-23.88-22.92-59-5.34-83.35,10.31-17,40.3-15.82,39.65,8.57,1.06,27.46-11.84,51-20,76-1.55,4.74,2.87,11.53,4.79,17.29,6.78,20.26,4.06,39.51-6.41,57.76-1.33,2.32-1.32,4,.31,4.89,3.16,1.69,2.89,6.49,8.19,6.67,9.72.33,19.25-4.84,29.07-.52,11.09,4.88,6.15-4.27,5.34-7.22-3.82-13.85-2.54-28.13-4.4-42-1.95-25.4.76-52.82,18.05-72.86,6.06-6.3-1.76-12.36-2.83-18.33-4.73-33.15-29-86.47,9.63-105.89,8.52-3.92,17.46.85,24.57,7.5,29.64,31.11,10.35,84-15.75,111.27-8.2,8.41.63,17.94,1.72,26.83,2.05,16.62,2.49,32.94-1.81,49,10.78-4.45,15.17-12.05,15.67-24.26,7-58.89,90.75-65.52,126.8-29.12,22.2,18.42,41.63,40.2,53.79,67.38,14.7,29.71,31.39,58.9,37.25,92,.23,1.57.71,3.72-1.81,3.8-18.11.59-35.41,5.18-52.75,10-47.37,11.73-96.84,29.67-145.89,18.42-17.95-10.22,5,13.47-25.31,41.08a205.13,205.13,0,0,1-32.66,27.9c-4.34,3,1.58,7.57,3.07,10.66,17.62,39.25,18.34,114-11.24,146.55-24.53,24.29-23.76,57.59-35.59,86.27-3.79,9.18-5,19-9.23,28.25-3.77,8.27,4.35,15.29,7.85,22.77,11.58,24.75,15.18,2,19.36-3.73,20.34-27.68,40-55.84,62.29-82.08C807.12,984,873.71,928.46,945.35,881.5c6.29-4.12,13.44-7,20.32-10.12,4.57-2.1,7.93,1,10.33,3.83a2.36,2.36,0,0,1,0,3.67C953.21,900.42,933.5,925,913.36,949c-75.69,80-136.91,172.27-185,271.27-6.15,11.63,4.3,19,8.78,27.88,10.07,20,7.07,26.34-16,25.4-13.77-.55-15.19,7.14-18,15.79-27.75,75.13-38.2,155-46.47,234.27,13.34-62,43.67-117.61,76.75-170.94,28.67-54.24,69.41-100.19,115.68-140.12C871.48,1193.9,959.49,1126.65,984.22,1135.16Zm-393-623c1.57,2.78,3.49-.81,5.3-1.32,22.44-6.31,39.26-19.41,50.73-40.12,5.25-9.48,1.52-10.06-10.42-9.33C616.41,465.46,596.08,491.93,591.2,512.13Zm-348.33,758c-8.33-16.82-7.15-37-25.39-50.65-61.72-44.4-131.4-56-206.22-63.51,105.45,37.47,183.75,103.65,250,187.11-2.29-11.21-3.61-22.18-6.9-32.53-3.16-10-2.84-21.94-10.94-29.4-27.23-24.83-56.35-48-88.15-66.67-9.13-5.35-19.1-9.3-26.85-17,45.82,12.43,79.49,43.73,114.37,73C242.6,1271.22,243.06,1270.5,242.87,1270.11ZM193.2,883.91c.88,3.82,3.27,7.3,5,10.94,17.49-18.21,23.79-50.39,21-75.64C216.83,803.42,201,785,190,799.42,177.68,826.36,186.84,856.66,193.2,883.91Zm9.11,86.7c26.71-10.89,17.26-57.79,10-79.5-5.65,6.11-9.69,17.63-19.31,13.08-5.24-2.48-6.56-13.25-9.71-20.42C166.1,902.76,168.23,972.2,202.31,970.61Zm32.05,141.32c-9.9-45.47-18.57-81.84-23.15-126.6-1.83-15.28-10.88,5.3-13.65-3.27-5.68,1.14,1.5,28.17,1.68,33.84,3.67,19.5,9,38.76,11.47,58.39C212.75,1090.18,227.81,1095.37,234.36,1111.93Zm456,57.41c2.16,2.09,3.53,5,5.26,7.52,16.67-23.28,27.79-50.23,48.16-71,1.25-1.34,1.11-5.47,4.18-3.74.75.42.07,5.11-1.17,7.07-10.23,16.14-20.87,32-31.12,48.14-5.15,8.11-13.13,16.29-13.83,24.93-1.12,14,13.1,22.64,18.1,36.67,58.34-128.67,144.41-235.37,239.74-335.55C879.64,930,811,993.56,751.14,1063.74c-21,25.25-40.18,51.79-58.59,78.93C686.68,1151.32,680.16,1159.43,690.35,1169.34ZM688,1007.58c-2.39-4.16-10.45-1.24-14.33-7.29-6.89,21.1-15.51,41.59-24.13,62-7.32,16.08-7.18,32.89,6.56,45.14,7.65-29.57,16.78-58.81,28.39-87.14C686.19,1016.13,689.55,1010.28,688,1007.58ZM518.82,738.92c-.8.3-2.19-1-3.82-1.81,21.94,116.34,60.9,228.19,117.54,332.26,1.92,3.24,6.28,6.63,6.49.24,6.32-17.62,12.69-35.23,19.33-52.73,3.17-8.35,10.58-17,9.57-24.59-1.47-11.14-5.88-21.5-3.28-33.51,2.89-13.35,4.61-26.79,13.44-38,.88-1.12,1.13-3.87.37-5-8.27-14.21-6.44-30.81-7.78-46.37-10.39,5.88-19.68,13.47-29.58,20.11-2.58,1.75-5,4.23-8.85,1.28-26.73-27.15-50.72-57-75-86.48-11.2-13.67-17-30-22.69-46.63C532,750.29,540.94,730.78,518.82,738.92ZM718.64,949.6c-22.89,11.75-24.58-6-37.52-19a3,3,0,0,0-2,1.76c-2.25,13-8.35,25.31-6.49,39-.24,12.08,7.26,34.6,22.76,22.25C709.32,982.72,715,965.32,718.64,949.6Zm-8.15-94.73c-1.43-3.32-1.5-12.15-9.87-6.47-7.2,6.52-23,9.22-21.73,21.24,3.58,25.94,2.2,58.77,27.85,74.2C729.44,932.71,718.92,874.17,710.49,854.87Zm54.9-238.36c69.78,12.17,138,38.58,188.07,90.78-21.66-48.49-44.34-101.21-92.29-129.15-32.88-20.68-81.15-13.49-96.55,25.13C762.73,607.56,760.05,614.62,765.39,616.51Zm-11,17.1c23.05,5.35,47.77,5.61,71.09,12.78,28.3,7.52,53.4,21.14,80.18,32.49C869.52,655.08,830,636.07,787,628.7,776.18,626,762.27,621.21,754.39,633.61Zm-26.66,29C703.39,709,743,769.34,795.39,766c56.35-1.21,109.51-21.35,164.71-29.77C927,694.18,874.71,671.09,824.76,654.4c-25.38-6.8-50.92-10-76.25-12.14C735,642.7,731.24,654.41,727.73,662.57ZM731,548.07a34.76,34.76,0,0,0,1.62,4.73c20.93-18.94,35.51-60.85,24.25-88.27-7.39-17.76-22.22-22.67-31.87-10.11C709.48,482.83,727,518.27,731,548.07Zm-15.12,113c.24,1.4,1.38,3,2.77,1.31,17.47-28.91,18.5-62.12,11.83-94.6C708.58,593.73,713.51,630,715.85,661.1ZM693.1,693c-20.66,20.79-31.45,48.8-42.79,75.49-13.56,33.51-15,69-15,104.63-.05,2.54,1.51,5.11,2.33,7.66,34.51-27.12,75.24-46.07,106.19-77.53,42.34-48.68-31.45-34.09-33.58-109.24.87,2.48,0-.62-.23-.57C704.29,694.63,698.27,687.69,693.1,693Zm-30.36,6c-23.31,39.25-39.68,85.5-33.6,131.76-1.55-45.18,22.36-87.6,43.55-126.17,1.58-2.86,8.1-5.48,3.66-8.62C673,693.52,666.16,692.73,662.74,698.93Zm-3.53-105.24c1.14,2.76,2.94.28,3.34-.82,8.22-23.14,20.55-45.14,18-71.21-.59-9-8.19-11.29-15.48-8.11-16.11,7.61-14.94,23.33-18.12,35.76C648.2,565.82,653.51,579.83,659.21,593.69Zm.72,78.71c10.67-21,12.92-42.72,3.72-64.77C647.61,656.23,647.14,665.8,659.93,672.4Zm-34-13c6.1-.21,12.31,3.07,18.79,4.87-3.9-12.91-1.05-25.38,1.73-38.23,1.41-2.78-1.14-1.56-2.3-.92-10.23,5.65-16.34,15.28-22.64,24.47C619,653.18,614.43,659.76,625.93,659.37Zm-70.24,23.87c-13.64,11.26-14.63,26.83-14.92,43.33-1.85,62.09,47.75,99.28,84.2,143.91-13.75-59.4-5.39-125.58,31-175,10.87-12.1,2.65-14.29-5.57-18.43-12.29-6.2-25.06-10-39.06-10.31C590.86,666.24,571.79,670,555.69,683.24Zm30.73-94.09c-30,39.69-9.41,13.86,8.47,57.45C597.25,625.36,594.16,606.93,586.42,589.15ZM562.1,608.62c22.78-26,32.19-54.19,26.23-90.7C570.83,547.13,555.1,573.37,562.1,608.62Zm-9.49,4c-20.57,6.68-39,17.11-53.58,33.46-1,1.1-4.38-1-3.28,3.63,4.57,19.2,6.86,39,12.79,57.78,2.29,7.22-4.24,22.78,14.75,21.39,6.29,2.21,7.61-1.24,8-8.54-2.06-33.57,26.21-56.58,56.68-61.35,3-.68,2.75-.61,1.92-3.74C588.83,645.53,562.22,609.35,552.61,612.67Zm-52.26,19.78c9.08-9.62,19.93-16.29,31.87-21.7,5.88-2.67,14.07-3.2,14.81-13.1-1.43-11.41-49.11,21.27-53.82,26.48-3.76,3.13-.7,8.83,1.73,11.75S499.07,633.81,500.35,632.45ZM479,532.74c4.9,27,4.61,55.89,12.24,81.9a170.19,170.19,0,0,1,50.79-27.7c6.19-2.23,10.82-3.23,7.18-12.59-11-28.31-31.88-42.69-60-48C485.06,528.58,477.75,523.18,479,532.74Zm-210.37,286C265.4,803,259,785.43,255,769.48c-3.19-12.33-3.1-26.26-9-37-22-39.94-58.3-71.39-83.75-108.17,14.39,6,23.41,20.3,33.75,31.11,16.41,18.19,30.91,38.09,46,57-2.36-10.64-4.78-21.33-7.08-32-1.29-6-.31-14.1-3.91-17.73-58.32-59.6-120.14-110-192.55-153.07C138.69,600,203.08,710.68,268.65,818.79Zm287.77,472.56c-16,.53-31.94,3-47.89,4.76-2.85.31-4.35,1-3.82,5.07,7,53.17,3.94,104.9,4.37,158.66,12.27-55.62,30.48-105.19,49.31-158.16C558.87,1300.17,567.68,1291,556.42,1291.35Zm169.49-28.62c1.31,0,7.14,1,3.63-4.49-39.88-61.68-77.11-125.24-112.38-189.6-53.72-96-87.06-201.34-110.91-308.29C486,663.42,464.75,566.32,461,467c-1.43-42.72-6.69-85.44-5.56-128.15.56-4.7.49-8.58-6.85-8.06-9.59.68-19.31-.28-29-.77-69.69-5.8-140.12-3.26-209.54-9-1.78,0-3.12-.15-2.84,2.6.88,8.57,1.24,17.19,2.06,25.76,9.69,98.81,18.78,197.9,32.14,296.2,24.88,136.07,63.87,270.21,114.5,398.72,33.9,80.75,79.35,156.33,131.33,226.72,5.34,7.8,8.7,14.94,21.21,12.32,16.56-3.47,33.8-3.61,50.71-5.51C614.64,1271.22,670.06,1264,725.91,1262.73ZM960.07,130.58c11-1.4,10.65-10.43,9.47-19.32-1-7.8-5.79-9.08-12.52-8.7-11.39,1.52-11.82,10.73-11.88,19C945.08,131.58,954.65,131.27,960.07,130.58ZM957,1073.82c17.49.41,12.7-30.19-4.81-26.59C938.89,1048.38,936.79,1074.51,957,1073.82Zm-2.17,197.53c-13.36-2.24-21.76,26.07-3.38,27.52C971.35,1301,967.63,1271.5,954.8,1271.35ZM959.05,505c-.42-7.44-2.84-13.07-11.64-12.08-7-.15-13.94.24-14.33,9.14C930.58,519.52,959.93,525.2,959.05,505ZM937.51,835.42c18.43,1.52,24.54-27.86,4.77-28.23-9.85-.11-16,5-15.49,15C926.17,830.72,928.75,835.57,937.51,835.42Zm-3.09,539.93c-20.92-.85-18.37,28.65-.49,27.33,6.49-.59,16.36.09,15.15-11.92C948.32,1381.8,943.6,1375.08,934.42,1375.35Zm-1.61-812.07c-8.36-1.12-11.94,3.89-11.33,9.4.71,6.41-1.65,16.82,7.62,17.79C950,594,952.26,561.59,932.81,563.28Zm-.26-161.8c-11.51-.17-13.62,26.21-2,26.2,6.08-.5,16.33.29,14.49-11.29C945.71,407,941.6,400.88,932.55,401.48Zm-5.72,1139.59c-10.18.22-8.1,10.41-8.38,15.06-.53,8.67,8.64,12.49,15.58,13,6.39.48,11.56-4.91,11-14.11C946,1542.78,936.9,1540.85,926.83,1541.07Zm17.1-53.21c-.35-8-3.75-14.14-13.52-15.15-5.34.59-6.81,4.69-7.51,9.74C919.4,1496.68,945,1503.53,943.93,1487.86Zm-15.25-496.5c-8.85.72-13,7.75-12.42,16.48.79,11.65,10.77,11.2,19.56,13.69,9.69-4,7.35-13.37,6.68-20.38C941.88,994.63,934.5,990.88,928.68,991.36ZM926.4,203.11c18.63,1.62,22.69-33.9,1.41-30.05-10-2-15.14,4.16-14.39,12.71C914.06,192.92,915,203,926.4,203.11Zm-3-142.63C945,63.73,946.68,35.93,930,36.64c-6.72,1.18-12.16,4.17-13,11.8C916.45,53.65,916,60.16,923.38,60.48Zm-17.89,199c13.75,1.3,15.62-27.58,1.39-26.61-11,.33-12.49,7.31-11.82,16.19C893.36,257.49,899,259.63,905.49,259.49ZM890.1,1439.17c-12.74-3.45-10.56,7.38-10.74,13.46-.18,6.49,2.24,13.08,11.64,13.12C909.81,1466.29,909.56,1434.68,890.1,1439.17ZM874,332.45c.15,7.68,5,10.68,12,10.81,6.49.12,13.89-.95,12.52-9.15-1.24-7.39-1-18.3-13-18.3C874.66,315.81,875.22,325.2,874,332.45Zm19,1030.81c.57-7.48-2.46-11.68-10.49-10-15.8-4.86-14,23.5-3.31,23.27C886,1376.67,892.37,1371.63,893,1363.26Zm-28.92-279.89c-2.6,17.18,27.53,24.47,25.48,4.13C890.52,1073.38,865.4,1069.46,864.08,1083.37ZM880,1577c-7.51-.33-12.12,3.84-11.72,10.94.29,5.25.81,12.65,9,11.19C892.34,1601.55,893.32,1577.3,880,1577Zm-5.5-1116c-12.11,0-12.44,8.51-11.87,17.19.49,7.4,5.61,9.19,13.48,9C891.54,488.26,894.31,459.66,874.45,461Zm-7,344.46c-10.8-1-11.15,25.24,7.42,23.6,10.07-.15,6.61-8.52,8.29-13.16C883.38,803.43,873.26,805.82,867.43,805.44Zm-.15-694.6c17.92,3.53,16.89-26.68.87-25.43-5.52.31-13.07,2.8-11.16,11.62C856.16,105.13,859.64,110.42,867.28,110.84Zm-.59-70.14c15.22.84,16.45-24.94-.67-22.77C852.65,17.88,854.69,40.66,866.69,40.7ZM869.17,1514c.5-14.94-24.22-10.24-22,2.47.7,5.6,3.64,10.56,8.18,9.94C865.68,1525.62,869.52,1522.14,869.17,1514ZM847,168.79c7.78.05,15.35-2.82,14.88-12.81-.29-6.24-.72-13.08-9.92-13.69-10.33-.69-14.36,3.83-12.79,13.55C837.69,162.83,839.4,168.73,847,168.79Zm-6.21,984.28c-8.15.27-18.16-.24-17.37,12.28.73,11.39,9.51,15.22,19.11,15.43,7.57.17,6.88-7.64,9.44-13.33C848.16,1162.63,851.27,1152.71,840.75,1153.07ZM827.18,290.54c8.48,1.93,13.81-3.16,14.05-13s-6.71-10.58-12.79-12.85C806.14,264.61,810,286.36,827.18,290.54ZM801.52,1323.46c12.59-17.81,23.6-36.79,36.93-54-4.16-9.64-25.94,25.09-29.2,29.08C748.36,1386.26,697,1491.36,696.72,1600c.14,3.14,1.66,3,4,3.41,2,1.24,2.08-.34,2.34-1.71.61-3.28,2-6.63,1.86-9.89C710.64,1495.41,749.7,1403.92,801.52,1323.46ZM808.26,876c.35,16.1,23.48,16.55,23.86.59C833.13,860,807.41,857.11,808.26,876Zm5.7,685.31c-14.71-2-15.92,27.13,1.09,23.6,10.82,3,10.79-6.34,11.75-12.67C828.18,1563.14,820,1561.43,814,1561.32ZM801.41,822.37c.25-6.37-2.64-12.3-9.17-11.66-11.2-.56-11.62,7-11.91,12.54C778.47,840.22,801.89,837.75,801.41,822.37ZM774.27,136.21C772,156.87,800.62,151.65,798,135,799.36,117.23,772.31,122.14,774.27,136.21ZM782,366.28c11.9.22,12.67-27.61-.45-26.92-7.22.37-16.06,2.24-14.45,14.16C764.21,365.81,775.45,366.07,782,366.28Zm-3.07,576.77c6.55-.11,11.49-3.42,11.85-9.86,2-14.21-23.2-17.33-19.85-1.82C770.77,937.62,771,943.17,778.92,943.05ZM778.46,83c12.86.94,11.29-24-1.48-22.25-8.57-.31-12.09,3.65-12.1,11.22C764.88,80.67,771.48,82.69,778.46,83Zm-5.62,148.26c9.47.11,9.78-7.39,10.52-12.84,1.36-10-6.6-13.38-14.25-14.27C754.7,203,754.78,230.83,772.84,231.23Zm-35.79,37c-1.55,8.16,2.35,12.45,9.79,12.67,4.42.13,11.32,3.32,12.21-5.38,1-9.36-1.33-17.32-12.08-18.3C740,256.54,735.36,260.28,737.05,268.18Zm1.42-235.24c14.39,2.14,11.78-8.21,11.36-16.3-.54-10.45-8.65-8.21-15.07-8-10.7.44-8.69,9.93-9.28,15.72C724.61,32.84,731.58,33.76,738.47,32.94ZM727,123.07c11.32,2.18,12.26-7,11.59-14.88-.51-6-7.57-10.25-12.65-10.6C708.4,95.53,706.61,125.39,727,123.07Zm-6.49,76.11c9.12-1.83,7.5-8.89,7.23-14.72-.31-6.83-5.52-8-11.94-7.41C699.47,172.36,703.4,204.78,720.48,199.18ZM708.19,405.44c5.35.43,9.95-1.6,9.51-7.48-.62-8.44-.05-18.83-13.3-16.94C683.5,379.55,686.2,406.16,708.19,405.44Zm-40.65-245.7c7.14-.46,10.55-5.1,9.5-12.48,1.55-10-5.34-12.77-12.76-12.86C646.35,134.27,650.32,162.2,667.54,159.74Zm-.81-98.38c9.81-2,9.37-9.68,9.75-15.61.3-4.8-5.94-7.67-10.63-8-7.14-.5-12.32,2.92-12.7,8.77C653.5,57.28,654.82,63.84,666.73,61.36ZM634.51,239c23.62,2.45,15.13-30.38-1-27.93-6.61-.33-10.69,4.83-9.28,10.59C625.83,228.14,625.39,237.63,634.51,239ZM579.29,102.4c-2.42,16,29.65,21.44,25.89,5.59-.23-9.44.24-17-11.44-17.28C584.82,90.53,579.35,94.36,579.29,102.4Zm6.49-68.11c7.57-.35,14.18-.51,14.13-9,0-9.25-3.27-16.76-14.19-17.24-7.87-.35-13.22,3.22-13,11.55C573,28.36,575.35,36.19,585.78,34.29ZM541.12,177c11.27,2.33,12.5-6.52,12.69-14.1.21-8.52-2.71-16.78-13.81-15.78s-10.81,10.12-11.39,18.18C528,173.79,531.88,177.89,541.12,177ZM538,74.52c5.7-.67,14.26-1.84,14-10.75-.18-5.94,0-13.79-9.81-12.82C528.62,48.11,526.16,74.78,538,74.52Zm-79.78,22.9c-.69,19.2,28.62,26.48,26.82,3C489.42,84,455.83,81.89,458.17,97.42ZM443.7,47c8-.51,16.28-1.24,15.34-13,.68-6.26-1.29-10.88-8.68-11.12-10.2-.33-12.47,7-13.28,14.84C436.62,42.14,437.15,47.39,443.7,47ZM443,181.72c14.15-3.47,8.53-31.32-6.68-29.44C417.67,150.87,423.94,184.54,443,181.72Zm-68.49-80.54c-.06,6.18,1.66,13.66,11.36,11.75,8.58,1.51,13.69-3.63,13.45-10.74-.25-7.54,3.23-19-11.42-19.37C374.05,82.5,374.57,92.71,374.49,101.18ZM380.2,39c9.86.45,12.33-5.74,11.79-12.24s-6.73-7.65-12.37-7.8c-8.19-.23-10,5.87-10.55,12C368.24,40.48,376.9,36.83,380.2,39ZM349.1,1552.72c.91-75.64-9.14-151.44-33.4-223.2-7.51-26-17-51.16-26.53-76.31-12.48-29-21.53-62.73-42.47-86.63C310,1322.07,349.34,1427.35,342.91,1600c-1.12,5.86,7.63,6.46,6.15,0C352.05,1584.07,349.92,1568.6,349.1,1552.72ZM321.71,90.37c13.14,1.61,16.56-24.6-4.53-25.64-7.79.24-12.48,2.52-12.26,10.41C305.22,86,314.76,89.3,321.71,90.37ZM275,33c17.87,2.26,17.18-25,.65-21.91-9.36-2-9.09,5.46-9.42,10.93S268,32.91,275,33Zm-4.49,110.3c17.67-2.08,14.95-30.57-2.22-31.9-7.32-.5-14.67,3.75-13.07,12.93C256.6,132.33,256.55,142.76,270.49,143.26ZM256,248.58c9,.53,17.1-3.67,15.84-15-.65-5.8-1.5-12.81-11.14-12.78-7.23.88-13.58,4.59-12.25,13.37C249.19,239.32,248.65,248.15,256,248.58Zm-34.41,1193.2C179.7,1372.74,114,1307.66,36,1286.54c-3.92,2.06,10.78,10.77,12.46,12.8,56.69,52,87.33,127.05,107.09,200,7.95,32.37,10.94,65.32,15.48,98.19.11,2.52,3.28,4.85,5.19,2.46h0c-.14-104.56-38.69-207.41-102.73-290.26,86.76,48.37,154.23,131.1,178.06,227.91,4,18.42,7.6,36.71,7.6,55.64,0,3.58,2.48,7.19,3.72,10.58C278.88,1560.38,243.59,1481.14,221.56,1441.78ZM226,76.66c11.23-1.41,11-12.3,10.58-20.38-.36-7.28-5.67-11.8-14.15-9.05-13.92-3.41-14.63,7.51-15.13,15.86C206.52,75.68,217.08,77.78,226,76.66Zm-6.22,1478.18c-10.58-50.77-23.95-102.11-56.14-144-1.44-2.08-3.28-4-4.78-2.86-1.89,1.39.35,3.52,1.36,5.26,16.62,26.89,27.83,56.39,37.48,86.53,4.54,15.35,9.5,30.75,12.78,46.3,3.43,16.25,3.28,33.28,4.37,50,.22,3.17,2.36,4.24,4.72,4.53,2.79.34,1.5-2.66,1.42-4.15C220.68,1582.58,222.41,1568.65,219.76,1554.84ZM189.87,164.68c15.94,2.35,18.28-27.1,2.15-27.58-6.28-.13-12.18,1.71-13.47,10.45C181.92,153.2,180.05,163.83,189.87,164.68ZM170.61,540.41c9.84-.61,11.57-10.6,12.25-18.77.6-7.31-6-10.61-11.38-9.93-8.74,1.09-16.21,5.63-17,20.79C153.26,540.69,164.32,540.8,170.61,540.41ZM164.31,73.1c11.34.7,10.78-8.14,10.15-14.48C173.81,52,170,45.69,161,47.07,144.64,43.83,149.91,74.49,164.31,73.1ZM139.75,259.3c2,6,1.22,16.6,10.37,17.39,9.75.85,11.94-7.54,12.87-14C165.91,244.08,135.94,242.79,139.75,259.3ZM141,340.86c-14.42.26-12.55,27.52,1.51,27.16C161.1,369.63,160.15,337.65,141,340.86ZM144.06,743c14.56.38,14.38-27.52-3.08-26.22C124.42,715.76,125.46,745.39,144.06,743ZM132.89,191.3c12.68-1.7,8-22.78-3.9-24.11-9.08-1.2-9.44,7.28-9.7,12.84C119,186.16,121.37,192.43,132.89,191.3Zm-19,304.84c11.37.62,17.64-4.16,17-15.8-.47-8.84-3.14-16.63-15.07-17.9-14.25,2-9.31,14.55-10.45,23C104.86,489.78,106.69,495.75,113.93,496.14Zm1.29,1072.71c-6.9.45-12.83,3.8-11.77,10.28,1.13,6.91-2,18.9,13.62,18,13,3,12.84-9.07,13.43-17.08C131.17,1570.9,123.75,1568.3,115.22,1568.85ZM101.44,790.16c-1.71,14.83,7.41,17.84,14,18.16,6.35.3,8.54-8,8.24-14.12C124.77,779.81,103.77,779.66,101.44,790.16ZM97.09,96.35c-4.75,21,25.65,25.62,24,4.72C124.43,85.13,98.47,81.53,97.09,96.35Zm3.7,581.44c-9.9.64-9.57,7.7-10.17,17.51-.8,4.79,2,11,10,11.47C121.68,709.79,122.62,675.81,100.79,677.79Zm5.78-291.18c-2.23-18.15-27.9-18.49-22.56,5.61.68,6.83,4.53,9.3,11.42,8.81C105.91,401.93,107.36,395.52,106.57,386.61ZM91.06,38.83c17.24-.83,15.57-25.9-2.34-26.32-5,2.08-11,4.2-10.65,11.8C78.4,32.4,82.28,38.81,91.06,38.83ZM95.87,1089.6c-.67-5.33-2.05-11.54-10.46-10.62-10-1.06-11.56,7.35-12,14C72.53,1112.19,99,1107.57,95.87,1089.6ZM65.1,1501.91c-16-.82-16.19,26.15-.76,27.32C83.14,1530.53,83.6,1500.7,65.1,1501.91ZM48.17,304.74C46.57,328,80.09,326.67,77.71,313c-1-12.87-3.29-21.38-12.84-21.56C57.28,291.26,48.32,294.4,48.17,304.74Zm14,342.3c8.83-1.58,10.49-8.16,10.85-13,0-13.73-2.49-16.71-10.56-17.21C51.64,616.17,47,622,47.13,631.67,47.25,641,49.72,649.27,62.21,647ZM46.56,212.65c.36,7.49-.33,17,11.13,18.43,10.23,1.27,11-5.66,11.66-15.16C73.75,204.29,46.53,201.07,46.56,212.65ZM40.3,880.45c.8,7.37-.8,17.28,8.12,18.56,11.12.23,19.17-6.09,18.4-12.82C67.45,871,40.22,862,40.3,880.45Zm9.13-466.29c-6-.13-10.47,6.34-9.87,10.74,1.08,8,.24,18.94,12.44,20.44C74.82,446.57,69.39,412,49.43,414.16Zm-6,362.55c.48,6.75,3,14.36,12.51,14.32,6.2,0,11.05-4.11,10.62-9.32-.63-7.57-1-17.46-12.49-16.73C44.51,764.18,43,771.5,43.39,776.71ZM26.84,140.53c1,8.58,8,13.26,15,14,8.17.9,7.47-8,7.94-13.37.56-6.44-2.39-11.9-10.1-11C33.87,130.9,24.89,128.78,26.84,140.53Zm5.47,902c5.54-.91,16.16,1.27,14.95-8.22-.23-13.56-8-16.31-16.6-15.85C18.67,1018.72,22.05,1043.51,32.31,1042.49Zm-3.39,399.63c-11.77-.94-9.41,9.06-9.29,15,.14,6.57,4.66,11.4,11.67,10,9.79.47,13.62-4.15,13.91-12.52C45.63,1442.79,36.64,1442.73,28.92,1442.12Zm1.15-853c8.36-.38,9-6.27,8.9-12.28-.23-9-1.86-17.22-14.81-15.83-10.83-2.73-12,6.33-11.8,13.23C12.61,584.58,19.4,589.64,30.07,589.14ZM25,1563.33c-16.69-1.77-17.86,33.85,4.45,28.71C45.71,1590.86,37.56,1562.67,25,1563.33ZM18.15,716.4c14.74.41,25.65-28.74,7.39-32.08C13.81,683.51,7.94,690.23,9,702,8.15,709.64,11.39,717.22,18.15,716.4ZM7.07,838.74c.94,7.74.24,17.52,11.68,18.17,9.11.52,12.65-5.28,12.36-14.93C34.42,825.77,4.66,820,7.07,838.74Zm15.16-495.5C3.14,341.86.54,376,20.39,372.31,32.34,372.63,36.88,343.12,22.23,343.24Zm-3.05-256c13.68,1,10.41-10.15,11.51-16.89C34.44,50.45,5,58.62,5.18,74,4.49,83,11.25,86.33,19.18,87.26ZM26.11,1099c1.6-18.31-25.15-21.53-23.26-6.57C.93,1107.77,25.16,1113.52,26.11,1099Z"/></g></g><g id="Red_Japanese_Frames" data-name="Red Japanese Frames"><path class="cls-8" d="M0,20V1580a20,20,0,0,0,20,20H956a20,20,0,0,0,20-20V20A20,20,0,0,0,956,0H20A20,20,0,0,0,0,20ZM924,1548H52V52H924Z"/><path class="cls-9" d="M952.1,15.41,928.69,38.83A4,4,0,0,1,925.86,40H50.14a4,4,0,0,1-2.83-1.17L23.9,15.41A2,2,0,0,1,25.31,12H950.69A2,2,0,0,1,952.1,15.41ZM40,1549.86V50.14a4,4,0,0,0-1.17-2.83L15.41,23.9A2,2,0,0,0,12,25.31V1574.69a2,2,0,0,0,3.41,1.41l23.42-23.41A4,4,0,0,0,40,1549.86ZM936,50.14V1549.86a4,4,0,0,0,1.17,2.83l23.42,23.41a2,2,0,0,0,3.41-1.41V25.31a2,2,0,0,0-3.41-1.41L937.17,47.31A4,4,0,0,0,936,50.14ZM925.86,1560H50.14a4,4,0,0,0-2.83,1.17l-20,20a4,4,0,0,0,2.83,6.83H950.69a2,2,0,0,0,1.41-3.41l-23.41-23.42A4,4,0,0,0,925.86,1560Z"/></g></svg>