<svg id="Card" xmlns="http://www.w3.org/2000/svg" viewBox="0 0 1024 1680"><defs><style>.cls-1{fill:#f2f0ed;}.cls-2{fill:#8c1707;}.cls-3{fill:#16592d;}.cls-4{fill:#f79d31;}.cls-5{fill:#d82e21;}</style></defs><rect class="cls-1" x="14.5" y="14.5" width="995" height="1651"/><polygon class="cls-2" points="966 1619.17 966 60.83 1018 8.83 1018 1671.17 966 1619.17"/><polygon class="cls-2" points="60.83 58 8.83 6 1015.17 6 963.17 58 60.83 58"/><polygon class="cls-2" points="8.83 1674 60.83 1622 963.17 1622 1015.17 1674 8.83 1674"/><path class="cls-3" d="M496.49,1618l2.77-3.59a166.2,166.2,0,0,1,10.68-12.89l3.55-3.73c15.24-16,31-32.6,47.38-48a250.4,250.4,0,0,1,20.6-16.75c5.78-4.38,11.76-8.9,17.25-13.73,12.47-11,27.54-19.52,48.85-27.63a309.38,309.38,0,0,1,76.12-18.39c16.24-1.78,33.57-3.52,51.23-3.52,7.65,0,14.76.32,21.73,1,28.53,2.71,58.86,7,87.32,20a5.63,5.63,0,0,0,2.2.33l1,0a6.37,6.37,0,0,0-.51-1.45c-9.58-4.8-22.33-10.82-36.32-15-8.5-2.55-17.35-3.83-25.9-5.08-5.05-.73-10.26-1.49-15.35-2.5a198.69,198.69,0,0,0-38.5-3.7c-2.89,0-5.84.06-8.75.18-33.71,1.36-62.43,5.82-87.81,13.63l-4.83,1.49,2.5-4.39a7.8,7.8,0,0,0,.35-.71,5.14,5.14,0,0,1,2.15-2.7c24.15-12.54,50.48-17.76,75.34-21.54,8.54-1.29,17.27-2.23,25.71-3.14,4.69-.51,9.53-1,14.29-1.61a269,269,0,0,1,32.42-1.86,419.19,419.19,0,0,1,48,3,370,370,0,0,1,78,18.18,4.62,4.62,0,0,0,1-.31,2.71,2.71,0,0,0-.49-.73c-22.94-11.28-49-18.41-79.59-21.79-5-.56-10.23-.68-15.28-.79-7.8-.17-15.83-.35-23.49-2.11A49,49,0,0,0,819,1437c-3.08,0-6.19.19-9.2.37s-6.24.37-9.39.37c-1.84,0-3.52-.07-5.14-.2-1.12-.09-2.3-.13-3.51-.13a106.57,106.57,0,0,0-17.1,1.91c-3.35.56-6.81,1.14-10.23,1.52l-.38,0a6,6,0,0,1-2.75-.89,6.24,6.24,0,0,0-.72-.37l-2.59-1,1.83-2.11a6.3,6.3,0,0,0,.51-.7,5.75,5.75,0,0,1,2.54-2.34c2.21-.8,4.41-1.62,6.61-2.44,7-2.6,14.22-5.28,21.51-7.36,40.37-11.51,74.25-17.86,106.63-20,15-1,27.5-1.46,39.2-1.46,8.21,0,15.83.23,23.31.7l1.87.12v215Z"/><path class="cls-3" d="M62,1618V1442.73l.77-.6a80.77,80.77,0,0,1,12.76-8.4c11.14-5.75,23.79-8.31,36-10.8l2.08-.42c15.78-3.22,32.62-6.36,49.82-6.36a119.81,119.81,0,0,1,25.83,2.67c6.45,1.4,13.11,2.55,19.55,3.67,11.66,2,23.65,4.09,35,7.72,16.9,5.39,33.47,12.62,49.5,19.61l.45.2c4.07,1.77,8.14,3.55,12.22,5.29a273.56,273.56,0,0,1,61.11,36.44l.16.12c11.19,8.78,22.76,17.86,32.31,29.36,5.69,6.87,12.91,12.8,19.89,18.52,2.88,2.37,5.8,4.76,8.59,7.2a50.79,50.79,0,0,1,5.38,5.74c.47.56.94,1.12,1.42,1.66-37.87-50.83-82.62-86.89-136.51-110-39.29-16.89-85.24-34.9-133.45-34.9a189.78,189.78,0,0,0-52.24,7.22l-1.27.35-1.42-3.35,1.14-.66c21.3-12.37,38-17.77,55.72-18,1.23,0,2.47,0,3.7,0,24.41,0,48.67,3.74,72.14,7.35,5.27.81,10.54,1.62,15.82,2.39a237.6,237.6,0,0,1,46.72,11.32c23.18,8.39,46.72,19.76,76.35,36.87,24.56,14.18,48,32.12,75.9,58.17,7.42,6.91,14.17,14.69,20.69,22.21,2.57,3,5.23,6,7.92,9l.25.29a3.63,3.63,0,0,0,.16-.68c-13.71-18.62-27.89-37.87-45.66-53.24a426.11,426.11,0,0,0-60.44-43.8A365,365,0,0,0,338.74,1423l-2.23-1c-20.7-9-42.11-18.3-65.05-21.56-20.3-2.88-36.91-5.73-52.26-9-8.74-1.84-17.66-2.65-30.77-2.79h-1.37l-.3-3.72,1.34-.24c22.34-3.94,40.64-5.78,57.61-5.78,5.37,0,10.73.19,15.92.56,23.06,1.67,45.56,6.69,62.59,10.87,20,4.92,37.25,9.93,52.77,15.31,21.37,7.43,44.16,15.71,66,25.94,22.22,10.41,40.55,22.11,56,35.78,10.63,9.37,19.4,17,27.61,24a.83.83,0,0,0,.17.11,1.24,1.24,0,0,0-.23-.4c-2.65-2.77-5.33-5.64-7.91-8.41-7.05-7.56-14.29-15.33-22.09-22.13-23.21-20.28-51-36.27-82.44-47.53-7.36-2.62-14.77-5.46-21.94-8.21C374.36,1398,356,1391,337.07,1386.57l-8.76-2-.48-.12c-21.66-5.1-44-10.38-66.67-11.36-4.52-.2-9.35-.29-15.2-.29-4.27,0-8.73,0-12.66.1h-.12c-4.12,0-8.39.09-12.59.09H219l-1.24-5.15,1.83-.53c4.62-1.34,9.28-2.77,13.78-4.15,10.29-3.15,20.9-6.4,31.54-8.83,22.64-5.18,44.82-10.08,67.27-13l8.67-1.19c9.51-1.3,19.3-2.65,29-3.52l14.41-1.31c21.45-2,43.56-4,65.54-4.68,10.76-.34,19.67-.5,28-.5,11.88,0,22.59.33,32.74,1,4.29.29,8.67.46,12.9.63,9.11.37,18.53.74,27.69,2.2a195.64,195.64,0,0,0,31,2.21h0c-2.94-.6-5.87-1.22-8.74-1.82-14.47-3.06-29.39-6.21-44.34-7.21-4.79-.33-9.66-.53-14.38-.72-9-.37-18.36-.75-27.45-2a165.65,165.65,0,0,0-22.85-1.41c-7.68,0-15.49.37-23,.72l-.39,0q-5.07.24-10.14.44c-22.27.83-44.9,3.2-66.78,5.49l-.3-1.48.16,1.49q-6.93.74-13.85,1.44c-15.68,1.6-29.81,3.18-43.86,6.19-21.77,4.67-47.42,10.45-72.66,17.87-23.87,7-49.17,14.73-73,25.08l-8.39,3.64c-24.35,10.54-49.51,21.43-71.9,36.71-5.45,3.71-10.4,7.31-15.14,11L62,1434V1208.4l1.33-.47c16.65-6,34.26-6.82,51.29-7.66h.11c4.56-.22,9.27-.46,13.87-.79,5.22-.37,10.44-.56,15.52-.56a191.92,191.92,0,0,1,53.75,7.48,425,425,0,0,1,61.86,23.41,7.86,7.86,0,0,0,1.17.45l-.42-.33c-15.49-13-34.4-19.93-50.9-25.42-23.08-7.68-44.39-11.42-65.16-11.42-5.39,0-10.82.26-16.15.77-6.16.59-12.4.8-18.43,1-2.79.09-5.57.18-8.36.31l-1.27.06-.73-3.47,1.19-.46c14.07-5.39,29.32-10.92,45.52-14.75,23.88-5.65,47.95-8.78,72.56-11.75a113.55,113.55,0,0,1,13.52-.57h1.9c7.23,0,13.21-.13,18.85-1.75a37.57,37.57,0,0,1,10.58-1.5c8.36,0,15.91,2.67,23.21,5.25,2.45.86,4.93,1.74,7.35,2.48,13.89,4.26,27.22,10.92,40.11,17.36,2.13,1.07,4.24,2.13,6.35,3.17,19.74,9.76,38.42,22.63,57.1,39.34,13.1,11.72,26.65,23.85,36.93,38.64a107.06,107.06,0,0,0,7.65,9.37c5,5.65,10.14,11.5,13,19.15a7.68,7.68,0,0,0,2.51,2.6,15.12,15.12,0,0,0-.94-3.08l-.18-.48c-5.08-13.63-14.33-24.94-23.27-35.89-1.8-2.19-3.56-4.35-5.29-6.52a229.09,229.09,0,0,0-40.31-39.19c-13-10-27.08-20.36-42.78-28.61-13.16-6.93-26.69-12.63-43-19.07l-1.36-.54,1.38-3.7,1.39.49a7.43,7.43,0,0,0,2.58.41,23.61,23.61,0,0,0,3.3-.32,26.75,26.75,0,0,1,3.69-.34,11,11,0,0,1,1.65.11c22.18,3.21,41.8,12.6,63.32,23.64,20.07,10.28,43,23.34,60.82,42.2,5.84,6.17,11.86,12.26,17.69,18.14,16.4,16.58,33.34,33.71,46.92,53.45.58.85,2.14,3.09,3.09,3.09a.8.8,0,0,0,.46-.18c.12-.08.39-.28.42-.44.11-.63-1-2.21-1.59-3-.21-.28-.36-.49-.5-.7-11.87-17-24.71-35-39.68-51.35-23.29-25.46-47-45.47-74.57-63l-1.11-.71,1.53-3.28,1.25.39c2.94.93,5.55,1.66,7.86,2.3a59.9,59.9,0,0,1,11.33,3.92l4,2.06c22.78,11.61,46.32,23.61,68.2,37.91,3.68,2.41,7.43,4.73,11.07,7,8.56,5.29,17.4,10.76,25.4,17.37,10.83,8.94,22.15,17.69,33.1,26.14l6,4.61c-8.49-12.21-20.31-21.47-31.74-30.42-2.32-1.82-4.64-3.63-6.93-5.47-23-18.45-49.61-35.67-81.4-52.66-9-4.82-18.65-8.71-28-12.48-4-1.61-8.09-3.27-12.16-5l-1.26-.54,1.14-3.55,1.33.3c56.12,12.41,106.56,24.52,155.6,47.06,47.88,22,91,51.6,131.61,90.38a3.55,3.55,0,0,0-1.27-2.38l-4.7-4.61-.25-.24c-5.4-5.27-11-10.71-16.11-16.41-21.67-24.07-49.9-41.22-74.81-56.34a167.62,167.62,0,0,0-18.94-9.4c-5.3-2.36-10.78-4.81-16-7.66-16.08-8.85-33-14.93-50.26-20.88-12.56-4.32-25.68-7.7-38.35-11l-.28-.07c-4.59-1.18-9.33-2.41-14-3.66-18.64-5-37.88-10.21-57.33-13.26-1-.16-1.89-.39-2.79-.61l-3.55-.83,1.27-2.31c.16-.29.3-.59.44-.9a9.68,9.68,0,0,1,1.73-2.79c6.56-6.69,15-10.06,23.07-13.31,2.07-.83,4.21-1.69,6.24-2.57,32.6-14.22,63.53-23.77,94.56-29.2,13.73-2.41,27.68-3.93,41.18-5.4l.25,0c5.69-.62,11.57-1.26,17.35-2a62.59,62.59,0,0,1,7.29-.43c12.61,0,24.45,3.81,35.91,7.49,5.53,1.77,11.24,3.61,16.94,5,18.48,4.43,35.86,12.27,52.67,19.86,5.79,2.62,11.72,5.29,17.57,7.78,14,5.93,26.87,14.91,39.32,23.6l.18.12c3.53,2.46,7.18,5,10.79,7.43,27.91,18.75,53.79,41.9,79.09,70.78l.16.18c.61.7,1.52,1.74,2.06,1.74a1.21,1.21,0,0,0,.57-.25c.6-.43.95-.84,1-1.16,0-.14,0-.68-.91-1.72-3.28-3.82-6.44-7.82-9.5-11.7-5.79-7.35-11.79-15-18.67-21.23l-4.4-4c-15-13.76-30.54-28-47.82-39.6-21.33-14.31-40.72-26.89-62-36-4.18-1.79-8.52-3.7-12.34-5.39-17.14-7.55-34.87-15.36-53.59-19.69l-1.32-.31.45-3.66,1.36,0c1.13,0,2.27,0,3.4,0,3.24,0,6.52-.07,9.69-.14h.26c3.14-.06,6.38-.13,9.59-.13a121.39,121.39,0,0,1,17.69,1.08c15.61,2.24,30.8,6.49,45.5,10.6l3.91,1.09c13.16,3.68,26,9.16,38.39,14.46l.14.06c5,2.14,10.19,4.35,15.3,6.4a371.37,371.37,0,0,1,68.69,36c17.91,12,34.4,25.81,51.13,40.08l6.61,5.63c13.21,11.23,26.87,22.84,39.57,35.18.78.75,1.57,1.64,2.34,2.5,1.82,2,4.3,4.82,6,4.82a1.72,1.72,0,0,0,1.18-.53c.88-.77,1-1.32,1-1.66,0-1.89-3.29-4.67-5.47-6.51l-.82-.7a16,16,0,0,1-3.09-4.08,12.94,12.94,0,0,0-2.23-3.07c-6.61-5.79-13.42-11.59-20-17.2l-.16-.13c-12.41-10.56-25.24-21.48-37.31-32.89-20.58-19.45-44.83-33.76-65.95-45.64a425,425,0,0,0-90.11-38l-1.24-.37.51-3.55h1.3c2.44,0,4.32,0,5.83-.06l2.7,0a23.19,23.19,0,0,1,3.42.19,18.64,18.64,0,0,1,3.66,1,13.92,13.92,0,0,0,3.11.83C774.8,1109.64,804,1117,833.74,1125c26.56,7.14,52.18,16.91,71.53,24.62,20.07,8,38.67,18.87,55.78,29.44l1,.58v219.94l-2.17-.18c-10.1-.83-20.45-1.27-30.46-1.69l-2-.08c-3-.13-6.19-.19-9.39-.19-14.7,0-29.53,1.35-43.88,2.66l-7.53.68c-25,2.23-49.34,8.25-69.9,13.85a606,606,0,0,0-78.1,27.24c-27.82,11.87-50.24,22.63-70.56,33.86-24.79,13.7-49.12,30.63-76.57,53.27-22.54,18.6-41.08,36.7-56.68,55.33a178.54,178.54,0,0,0-21.69,32.55l-.55,1.08Z"/><path class="cls-3" d="M62,1035.56l1-.57a237,237,0,0,1,25-12.64c25.7-11,52.92-12.05,79.24-13.09l5.25-.21c1.73-.07,3.54-.11,5.35-.11a182.8,182.8,0,0,1,33.72,3.44c4.43.84,8.87,1.64,13.3,2.45l.1,0c22,4,44.78,8.13,66.27,16.44l2.35.91c14.16,5.46,28.81,11.1,41.6,20.31,5.21,3.75,10.53,7.49,16.16,11.45l1.52,1.07c-2.79-3.57-6.37-6-9.87-8.41-1.72-1.17-3.34-2.28-4.91-3.52-8.41-6.71-18.17-12.11-28.27-17.51a220.68,220.68,0,0,0-68.13-22.7c-5.14-.85-10.35-1.76-15.4-2.65l-.48-.08c-5-.88-10.2-1.79-15.31-2.64-13.41-2.22-26.53-4.21-39.5-4.21-1.91,0-3.81,0-5.67.13-9,.43-18.21,1.41-27.1,2.35l-.15,0c-4.6.49-9.36,1-14,1.42l-.26,0a5.21,5.21,0,0,1-2.64-.9c-.25-.14-.45-.25-.65-.34l-3.16-1.34,2.72-2.09c.24-.18.47-.37.69-.56a13.11,13.11,0,0,1,2.12-1.54c14-7.69,29.52-10.62,44.53-13.46,2.79-.53,5.58-1.06,8.35-1.61,9.58-1.93,21.51-4.32,32.82-4.32a71,71,0,0,1,9.32.59c28.11,3.75,51.52,7.81,74.34,15.45,23.16,7.77,47.65,16.58,70.12,31.3a187.69,187.69,0,0,1,36,30.11,3.4,3.4,0,0,0,2.61,1.34H401c-4.35-3-7.55-7-10.65-10.88a76,76,0,0,0-5.89-6.83c-23.08-22.78-52-35.75-77.15-45.43-11.46-4.42-23.57-7.16-35.29-9.82l-4.55-1c-19.33-4.42-39.3-9-59.52-9h-1.73c-8.19.11-16.41.69-25.94,1.37-4.83.34-9.81.7-15.37,1l-1.26.07-.81-3.41,1.16-.5c5.05-2.17,9.52-4.28,13.84-6.32,8.77-4.14,16.33-7.7,24.35-9.67s16-4.53,23.74-7c9.83-3.14,20-6.39,30.39-8.52,7.71-1.58,15.52-3.51,23.07-5.37,11.14-2.75,22.65-5.59,34.23-7.43,7.2-1.14,14.55-2,21.66-2.86,8.93-1.07,18.12-2.17,27-3.79,25.39-4.61,52.71-7,86-7.58,4.67-.08,9.46-.21,14.08-.33h.13c7.55-.2,15.36-.42,23.06-.42,18.66,0,40.68,1.07,62.55,9,5,1.81,10.22,3.48,15.24,5.08,9.46,3,19.24,6.16,28.36,10.46,19,9,38.26,21.57,58.7,38.49a409.88,409.88,0,0,1,42,39.47c5.52,6.06,11,12.3,16.33,18.33l.07.08q5.26,6,10.58,12a9.35,9.35,0,0,0,.29-.91c-7.08-9.71-14.4-19.72-22-29.18a310.52,310.52,0,0,0-43.25-43.18l-2.87-2.39c-11-9.19-22.38-18.69-35.53-25.17-4.35-2.14-8.58-4.68-12.67-7.13-1.92-1.15-3.83-2.29-5.77-3.41l-1-.58.91-3.19,1.17,0c8.47.28,15.37,3.84,22.05,7.3,1.28.66,2.49,1.29,3.71,1.89,12.88,6.39,29.77,14.93,46.21,24.38a281.73,281.73,0,0,1,53.14,39.88c12.69,12,24.39,25.45,35.7,38.42,5.54,6.37,11.28,13,17.1,19.32a10.91,10.91,0,0,1,1,1.37,9.63,9.63,0,0,0,1,1.35,1.7,1.7,0,0,0,.31-.28c.68-.71.75-1.26-1.26-3.94q-.4-.52-.75-1c-5.59-8-11.94-15.69-18.08-23.12-3.55-4.29-7.18-8.68-10.63-13.09C730.24,1003.5,708.4,986,689.4,972a260.49,260.49,0,0,0-68.5-36l-4.1-1.45,3.77-2.17a11.91,11.91,0,0,1,6.06-1.68,20.76,20.76,0,0,1,6.42,1.3,32.22,32.22,0,0,0,3.28.91c25.42,4.91,49.17,14.66,71.32,24.22,28.77,12.42,51.43,27.41,69.26,45.83,20.49,21.15,37.33,41.09,51.5,60.94l.15.21c3.43,4.81,7,9.73,11.41,13.66-1.58-2.42-3.19-4.8-4.78-7.13-2-3-4.11-6-6.06-9.13-24.33-38.56-52.21-68.71-85.26-92.17a10.18,10.18,0,0,0-1.81-.89c-1.84-.77-4.61-1.93-5.17-5.47l-.52-3.35,4.65,1.7,5.18,1.88c21.76,7.87,43.21,19.92,65.6,36.83l2.14,1.63c11.83,8.94,24,18.16,35.3,28.12,8.32,7.34,16.15,15.45,23.73,23.3,2.58,2.67,5.15,5.34,7.75,8,5.59,5.69,11.3,11.53,16.78,17.17-38.25-50.19-83.25-88.37-137-116.34l-1.23-.63,1.45-3.47,1.32.43c4.33,1.4,8.34,2.63,11.87,3.72,5.29,1.62,10.23,3.14,15.13,4.85,24.64,8.59,44.68,16.39,63.06,24.53q8.33,3.69,16.69,7.31c16.12,7,32.79,14.29,48.88,22.33,16.9,8.46,30.69,15.86,43.39,23.31l1,.59v128.78l-3.12-2.09c-13.12-8.82-24.66-15.09-36.32-19.72-7.52-3-15-6.44-22.18-9.77-8.76-4.06-17.8-8.24-27-11.63-32.18-11.81-66.73-21-108.72-28.79-31-5.79-62.69-6.83-93.38-7.84q-7.12-.22-14.24-.48c-8.93-.33-18.16-.49-27.43-.49-20.73,0-42.84.83-65.71,2.46a402.38,402.38,0,0,0-90.64,17c-33.5,10.4-63.3,20.8-88.72,42.71-2.62,2.24-6,4.83-9,4.83a5.26,5.26,0,0,1-.89-.08c-15.66-2.81-31.77-3.41-47.35-4l-.73,0-6.85-.26c-11.8-.48-23.52-.72-34.85-.72a681.31,681.31,0,0,0-107.37,8,413,413,0,0,0-66.37,16.3c-10.47,3.51-20.82,8.16-30.83,12.65-4,1.82-8.12,3.65-12.16,5.4l-.19.08-3.12,1.3L62,1199.6Z"/><path class="cls-4" d="M958.31,711.74c-20,0-38.13-7.79-55.65-15.31l-.95-.41c-11.62-5-25.41-10.95-39.54-17.36-4.87-2.21-6.13-7.31-6.72-12a3.3,3.3,0,0,1,.74-2.7,4,4,0,0,1,3.18-1.19,17.48,17.48,0,0,1,2.5.24c.52.07,1.06.15,1.4.16l4.36.09h.53c14.9.27,30.3.55,44.83,6,17.44,6.52,34.25,13.35,48.29,25.07l.72.61v16.73l-2,0Z"/><path class="cls-4" d="M959.74,365c-15.89-2.07-30.78-8.46-45.17-14.65l-.85-.36c-15.84-6.8-28-12.15-39.53-17.36-5.49-2.49-6.34-8.9-6.74-12a3.29,3.29,0,0,1,.74-2.73,4,4,0,0,1,3.17-1.19,17.07,17.07,0,0,1,2.48.24c.54.07,1.08.15,1.41.16l5.32.11c14.76.29,30,.58,44.4,6,12,4.5,24.71,9.48,36.07,16.38l1,.59v25.11Z"/><path class="cls-4" d="M959,332.26c-2.76-1.53-5.61-3-8.72-4.47l-3.23-1.54,3-1.95a26.66,26.66,0,0,1,4.44-2.15,18.94,18.94,0,0,0,4.27-2.16l3.21-2.45v16.37Z"/><path class="cls-4" d="M943.62,323.56a11,11,0,0,1-5.1-1.25c-14.43-7.5-30.78-11.06-51.46-11.2h-.35a126.26,126.26,0,0,0-14.64,1.15c-2.07.24-4.14.48-6.21.68-.43,0-.84.06-1.25.06a8.13,8.13,0,0,1-7.33-4.17l-1.2-1.93,2.07-.95c10.83-4.95,21.56-9.39,33.77-9.39h1.46q3.42,0,6.86-.05c2.3,0,4.61-.05,6.91-.05,13.69,0,29.47.82,43.4,10.66,2.67,1.88,5.42,4.21,5.64,7.2a5.51,5.51,0,0,1-1.92,4.47C952.76,320.22,948.71,323.56,943.62,323.56Z"/><path class="cls-4" d="M931.67,669.46a11.14,11.14,0,0,1-5-1.21c-14.81-7.39-31.67-11-51.54-11.13h-.32a119,119,0,0,0-12.49.88c-3.1.32-6.3.65-9.48.81h-.29c-2.16,0-5.66-1.18-6.63-3.41a3.36,3.36,0,0,1,0-3.32c.87-1.33,2.46-1.33,3.42-1.34H850c13.68-8,28.1-8,43.37-8.06h3.26c16.16,0,28.36,2.66,39.54,8.63,4.11,2.19,6.63,5.33,8.19,10.19l.39,1.23-1,.87C940.93,666.1,936.63,669.46,931.67,669.46Z"/><path class="cls-4" d="M852.47,302c-1.78,0-2.9-.92-4.21-2l-1.68-1.38,1.52-1.56c6.68-6.87,14.95-10.66,22.25-14a91.3,91.3,0,0,1,38.8-8.74c1,0,2.06,0,3.1.05,9.93.32,18.55,1.38,23.42,11.17a8.71,8.71,0,0,1,.72,3.5c0,.41.05.79.1,1.15l.29,2.07-2.08.2c-.4,0-.8.11-1.21.17a15.43,15.43,0,0,1-2.5.27,6.55,6.55,0,0,1-1.2-.1A158.19,158.19,0,0,0,903,290.35c-15.38,0-29.07,2.79-41.83,8.52l-.3.14C856,301.18,854.23,302,852.47,302Z"/><path class="cls-4" d="M841.46,650.13c-2.82,0-4.53-2.76-5.58-4.83l-.63-1.25,1-1C842.45,636.44,850,633,858,629.25l.4-.19a90.27,90.27,0,0,1,38.54-8.73q1.66,0,3.36.06c8.41.31,17.93.65,23.14,10.74a12.57,12.57,0,0,1,1,3.29c.08.42.16.84.26,1.23l.57,2.15-2.2.34a12.42,12.42,0,0,0-1.32.28,13.55,13.55,0,0,1-3,.46,5.61,5.61,0,0,1-1-.09,159.19,159.19,0,0,0-26.69-2.44c-15.43,0-29.15,2.8-41.94,8.56a10.19,10.19,0,0,0-2.37,2C845.29,648.44,843.65,650.13,841.46,650.13Z"/><path class="cls-4" d="M841.31,294.48c-2.72,0-4.54-2-5.86-3.5-.29-.33-.56-.64-.82-.88a3.88,3.88,0,0,1-1.45-3.42c.31-1.81,2-2.61,3.3-3.2a6.62,6.62,0,0,0,1-.53l2.94-2.47c11.22-9.46,22.82-19.24,37.7-23.69A41.59,41.59,0,0,1,890.07,255a37.23,37.23,0,0,1,20.12,6,5.5,5.5,0,0,1,2,2.66,7.11,7.11,0,0,0,.38.78l1.41,2.41-2.06.42-3,.63-.11,0h-.1c-25.65,1.77-46.17,9.82-62.74,24.6A6.81,6.81,0,0,1,841.31,294.48Z"/><path class="cls-4" d="M830.09,639.9a9.12,9.12,0,0,1-4.52-1.34c-1.74-1-3.9-2.22-4-4.46s1.72-3.79,3.54-5.11c3.19-2.33,6.31-4.85,9.33-7.28,8.7-7,17.7-14.24,29.07-17.88,2.81-.89,5.64-1.74,7.71-2.35l2.54-.77.42,0c2.28.28,4.4.49,6.41.69a95.39,95.39,0,0,1,13.46,2c.53.13,5.14,1.37,6,4.69.31,1.21.22,3.08-2,5.12s-5.58,2-8.63,2h-.13l-1.19,0c-19.7.62-36.07,9.95-48.12,18a17.28,17.28,0,0,0-2.56,2.36C835.52,637.67,833.39,639.9,830.09,639.9Z"/><path class="cls-4" d="M829.74,285.58c-1.32-.7-2.65-1.37-4-2a108.68,108.68,0,0,1-9.69-5.32,3.29,3.29,0,0,1-1.74-2.64c-.06-1.62,1.21-2.58,2.06-3.22.16-.12.43-.32.51-.4,10.42-13.07,22-26.58,38.19-35.21a14.05,14.05,0,0,1,6.76-1.48c.78,0,1.55,0,2.32.07s1.4.06,2.09.06a8.79,8.79,0,0,0,4.52-1l.65-.37.74.15c4.71,1,6.44,4.61,7.83,7.52a15,15,0,0,0,2.29,3.81l2,2.1-2.66,1.12L878.69,250c-2.14.92-4.32,1.85-6.49,2.72-11.25,4.49-22.89,9.13-29.51,20-1.37,2.23-3.55,3.55-5.47,4.72-3.07,1.87-4.79,3.07-4.55,6.21l.26,3.61Z"/><path class="cls-4" d="M815.75,629.32c-3.65,0-7.41-1.59-11.5-4.87a4,4,0,0,1-1.74-2.83,3.42,3.42,0,0,1,1.34-2.66,2.88,2.88,0,0,0,.3-.31l1.61-2c10.79-13.24,21.93-26.92,38.41-34.17a24.78,24.78,0,0,1,9.83-1.82,37.45,37.45,0,0,1,8.77,1.07c2.81.69,4.42,3.65,6.28,7.08.79,1.44,1.6,2.93,2.53,4.3l1.85,2.71-3.25.4c-1,.13-1.92.19-2.73.24a11.85,11.85,0,0,0-3.25.49c-13.19,5.19-26.82,10.56-35,23.15C825.19,626.31,820.78,629.32,815.75,629.32Z"/><path class="cls-4" d="M816.81,214.38c-.13-.22-.31-.48-.49-.74-.84-1.23-1.78-2.62-.57-3.91a9.12,9.12,0,0,0,1.51-3.47c.78-2.61,1.74-5.87,5.62-6.62,8-1.55,13.68-6.57,18.62-11.76a100.9,100.9,0,0,0,6.61-7.95,96,96,0,0,1,7.6-9,3.37,3.37,0,0,1,2.4-1.1c1.92,0,2.92,1.75,3.66,3a7.45,7.45,0,0,0,.82,1.26c5.2,5,7.42,9.3,6.79,13.21-.9,5.58-7.1,8.54-13.09,11.41,0,0-1.37.65-2,.95-7.79,3.81-15.62,7.16-23.91,10.7l-.27.11c-3.56,1.53-7.16,3.07-10.82,4.67l-1.6.7Z"/><path class="cls-4" d="M823.72,190.9c-.06-.71-.19-1.51-.32-2.28a13.39,13.39,0,0,1-.07-6.14l.11-.38c1.67-5.52,2.52-9.27-.71-10.92a10,10,0,0,0-4.63-1.08,17.47,17.47,0,0,0-10.16,3.83,5.18,5.18,0,0,1-2.94.78c-.58,0-1.38.11-2.45.25l-1.19.16L800.18,172l1-.66c2.82-1.87,5.61-3.78,8.31-5.62,14-9.57,27.19-18.6,43.78-21.33a8.11,8.11,0,0,1,1.32-.11c1.63,0,2.75.47,3.32,1.38a6.23,6.23,0,0,1,.66,5c-5.24,14.68-11.63,29.81-26.85,39.36a28.53,28.53,0,0,1-3.6,1.85l-1.53.72L824,193.82Z"/><path class="cls-4" d="M808.86,273a6.76,6.76,0,0,1-3-.76,4.36,4.36,0,0,1-2.55-2.71,4,4,0,0,1,1.09-3.38,4,4,0,0,0,.54-.81c4.76-13.26,12.24-25.95,22.87-38.79,5.19-6.28,11.62-9.55,19.12-9.72a8,8,0,0,1,1.53-.16c3.7,0,6.91,2.76,9.53,8.19a3.42,3.42,0,0,1,.12,3.07c-.82,1.68-2.77,2.11-4.66,2.53a9.26,9.26,0,0,0-2.43.74c-15,10.27-29.09,20.88-36.39,37.62A6.34,6.34,0,0,1,808.86,273Z"/><path class="cls-4" d="M803.48,558.51a5,5,0,0,0,0-.67,5.1,5.1,0,0,1,.47-3c.44-.74.88-1.67,1.31-2.57,1.4-2.95,2.86-6,5.5-6.52,7.92-1.55,13.69-6.55,18.74-11.73a125.94,125.94,0,0,0,9.31-11.16c1.49-1.93,3-3.9,4.56-5.8a5,5,0,0,1,3.17-1.49h.92l.73.8.06.09c3.37,5,6.6,9.85,10.33,15.51l1.92,2.91L858.71,536c-1.76,1.07-3.5,2.2-5.18,3.29l-.13.08a101.43,101.43,0,0,1-11.72,6.87c-7.48,3.53-15.26,6.69-22.78,9.76-2.47,1-4.9,2-7.32,3a26.16,26.16,0,0,1-3.94,1.15l-1.64.4-2.63.71Z"/><path class="cls-4" d="M855.46,322.91c-2.62-1.15-5.25-2.35-7.79-3.52l-.12-.05c-5.69-2.61-11.56-5.3-17.48-7.47-4.1-1.51-8.25-3.11-12.26-4.66l-.1,0c-15-5.79-30.53-11.78-46.77-14.24-4.15-.63-6.22-3.43-8-5.9a15.41,15.41,0,0,0-2.92-3.28c-3.14-2.34-6.09-4.8-9.22-7.41l-.2-.17q-1.81-1.51-3.69-3.05l-3.62-3,4.65-.57a105.16,105.16,0,0,1,12.56-.77c39.83,0,68.69,24,97.17,50.81l.92.87-1.94,2.93Z"/><path class="cls-4" d="M812,537.07c-.09-.65-.24-1.36-.39-2.05a13.77,13.77,0,0,1-.38-5.6c.19-.89.43-1.82.67-2.77,1.24-4.82,1.79-7.85-1-9.35a10.26,10.26,0,0,0-4.93-1.22,17.28,17.28,0,0,0-10.54,4.24,3,3,0,0,1-1.93.6c-.23,0-.53,0-.9,0-.54,0-1.26-.07-2.23-.07h-6.81l5.73-3.68c3.33-2.14,6.59-4.35,9.75-6.49,13.41-9.08,26-17.61,41.94-20.27a10.87,10.87,0,0,1,1.69-.16,4.19,4.19,0,0,1,3.64,1.58c.82,1.14.91,2.6.29,4.49-4.86,14.61-12.06,30.9-28.65,41a11.78,11.78,0,0,1-2.41,1l-.85.31-2.37.94Z"/><path class="cls-4" d="M796.72,618.92a7,7,0,0,1-2.13-.36c-2-.64-3.15-1.59-3.54-2.92-.55-1.89.72-3.4,1.64-4.51a6.79,6.79,0,0,0,.62-.81l1.05-2.26c7.15-15.47,14.54-31.46,29.73-42.06a16.81,16.81,0,0,1,9.76-3.2,16.5,16.5,0,0,1,5.17.84c2.36.77,4,2.94,5.48,4.84.58.75,1.17,1.52,1.74,2.13l1.63,1.75-3.53,2.29c-4.6,3-9.82,6.38-14.89,9.58-10.57,6.66-19.27,16.28-26.58,29.42l-.22.4C801.38,616.33,799.94,618.92,796.72,618.92Z"/><path class="cls-4" d="M843.58,668.9c-2.65-1.14-5.28-2.3-7.92-3.46l-.1-.05c-5.64-2.48-11.47-5-17.33-7.3q-4.66-1.8-9.32-3.63c-16.09-6.31-32.72-12.83-50.16-15.57-4.07-.64-6.13-3.47-8-6a16,16,0,0,0-2.91-3.33c-3-2.31-5.9-4.65-8.94-7.13l-4.1-3.33-3.69-3,4.7-.58a106.19,106.19,0,0,1,12.62-.78c39.86,0,68.75,24,97.26,50.79l.92.86-1.92,2.93Z"/><path class="cls-4" d="M796,224.53c-.07-.18-.15-.36-.23-.54a7.19,7.19,0,0,1-.67-2.07,30,30,0,0,1,0-5.1c.3-4.89.26-7.72-3.83-9.21a10.07,10.07,0,0,0-3.52-.65c-3.66,0-7.16,2.19-10.53,4.31-1.58,1-3.21,2-4.9,2.85a12.88,12.88,0,0,0-2.61,2.24c-1.6,1.6-3.1,3.11-5,3.11a3.43,3.43,0,0,1-2.53-1.14c-3.05-3.24.15-6.56,2.06-8.55a15.35,15.35,0,0,0,1.94-2.25c8.63-14,22.37-20.06,35.67-26,4.36-1.94,8.88-3.94,13.11-6.2a3.57,3.57,0,0,1,1.74-.32c.34,0,.81,0,1.52,0l2.38-.12-.3,2.37c-.16,1.28-.26,2.59-.36,3.86a38.34,38.34,0,0,1-1.34,8.67C815,201.23,810.44,213.16,801.9,223a15.72,15.72,0,0,1-2,1.77l-.76.62L797,227.19Z"/><path class="cls-4" d="M767.89,192.89c8-29.07,25.64-45.75,48.44-45.75a52,52,0,0,1,9.18.84l6.15,1.1L826,151.76c-12.11,5.73-21.37,14.65-30.32,23.27-8,7.7-15.53,15-24.91,20.14l-4.15,2.29Z"/><path class="cls-4" d="M797.53,269a7.38,7.38,0,0,1-2.84-.79l-.38-.16a74.47,74.47,0,0,0-12.58-4l-2-.43,1.07-4.54,1.87.33c.79,0,1.87-2.2,2.33-3.14l.31-.62c.4-.79.8-1.56,1.2-2.33a60.07,60.07,0,0,0,5-11.4c2-7.26,7.13-11.55,12.1-15.7,3.06-2.56,6.22-5.2,8.39-8.44a3.82,3.82,0,0,1,3.3-1.39,28.33,28.33,0,0,1,4.29.5c1.19.2,2.43.4,3.45.47l3.15.23-1.55,2.75a149.38,149.38,0,0,1-9.21,13.9c-7.13,9.92-13.85,19.28-14.83,31.73A3,3,0,0,1,797.53,269Z"/><path class="cls-4" d="M754.9,540.65l.66-1.17c2.21-4,4.12-8.27,6-12.45,5.08-11.52,10.34-23.42,22.85-30.18,5-2.73,11.15-4.05,18.62-4.05,2.13,0,4.34.1,6.76.32a5,5,0,0,1,2.3,1l.48.3,2.31,1.25L813,497.53c-.1.1-.19.22-.29.34a4.36,4.36,0,0,1-1.67,1.46c-9.6,4.4-17.15,11.81-24.46,19a155.83,155.83,0,0,1-14,12.64c-1.5,1.14-3,2.21-4.53,3.25a52.12,52.12,0,0,0-9.33,7.61l-.9,1Z"/><path class="cls-4" d="M784.16,614.49a3.46,3.46,0,0,1-1.57-.33,47.57,47.57,0,0,0-12.8-4.24l-2-.37.84-4.51,2,.35c.82,0,2-2.46,2.49-3.38s1-2,1.53-3l.07-.13a57,57,0,0,0,4.56-10.59c2-7.42,7.26-11.84,12.32-16.12,3-2.58,6.2-5.24,8.41-8.47a3.79,3.79,0,0,1,3.24-1.36,26.54,26.54,0,0,1,4.31.54c1.06.19,2.24.4,3.12.47l3,.23-1.37,2.67c-.25.49-.49,1-.73,1.5a31.79,31.79,0,0,1-1.91,3.59c-2,3-4.1,5.94-6.16,8.79-6.88,9.5-14,19.32-15,31.86C788.37,614.46,784.2,614.49,784.16,614.49Z"/><path class="cls-4" d="M784,570.54c-.07-.17-.14-.34-.22-.51a6.63,6.63,0,0,1-.68-2.15,33.67,33.67,0,0,1,0-4.92c.28-5.21.23-8.21-4.15-9.5a10.82,10.82,0,0,0-3.12-.46c-4.25,0-8.27,2.61-12.15,5.13-1.32.85-2.68,1.74-4.05,2.52a12.78,12.78,0,0,0-2.09,1.87c-1.44,1.48-2.93,3-4.84,3a3.56,3.56,0,0,1-2.54-1.11c-3-3-.06-6.23,1.7-8.13a15.26,15.26,0,0,0,1.64-2c8.77-14.41,22.89-20.72,36.54-26.83,4.15-1.85,8.44-3.77,12.49-5.88a13.81,13.81,0,0,1,2.11-.84l.9-.33.52-.53,1.17.4,1.72.15-.05,1.57,0,.23c-3.43,20.79-9.46,35.45-19.54,47.48a6.43,6.43,0,0,1-1.77,1.4l-.54.34-2.1,1.49Z"/><path class="cls-4" d="M745.86,266.72c-4.63,0-6.33-4.85-6.4-6.52,0-.6-2.11-1.5-3.22-2-2.31-1-4.92-2.11-5.33-4.7-.33-2.08.88-4.19,3.92-6.87,1.34-1.18,2.67-2.44,3.95-3.65a79.65,79.65,0,0,1,9.33-7.95c12.42-8.64,23.72-16.32,36.18-22.84a8.25,8.25,0,0,1,3.79-1.18c.9,0,3.84.35,3.86,4.92.06,15.53-2.56,27.66-8.24,38.18l-.45.81c-1.44,2.54-1.82,3.72-1.3,4.07a2.05,2.05,0,0,0,.72.35l2.09.36-1.1,4.7-1.92-.42a61.56,61.56,0,0,0-13-1.42,59.36,59.36,0,0,0-20.37,3.66A7.3,7.3,0,0,1,745.86,266.72Z"/><path class="cls-4" d="M733.51,612.81c-3.59,0-5.25-3.6-6.24-5.74-.22-.47-.41-.9-.6-1.23a9.85,9.85,0,0,0-2.74-1.64c-2.38-1.14-5.07-2.43-5.34-5.16-.21-2.2,1.24-4.33,4.71-6.93,2.19-1.63,4.28-3.51,6.31-5.33s4-3.64,6.23-5.29c13.68-10.39,24.84-17.49,36.18-23a10.32,10.32,0,0,1,4.22-1.38c1.1,0,3.65.48,3.68,4.92.11,15.5-2.52,27.63-8.25,38.17l-.46.81c-1.69,3-1.72,3.73-1.2,4.1a1.68,1.68,0,0,0,.61.31l2,.36-.84,4.54-2-.37a63.73,63.73,0,0,0-11.94-1h-.93c-6.94.16-14.13.32-20.95,3.36A6.09,6.09,0,0,1,733.51,612.81Z"/><path class="cls-4" d="M644.32,328.57c-5,0-10.19-1.84-15.22-3.63a87.43,87.43,0,0,0-8.4-2.67c-2.33-.56-4.67-1-8.23-1.59l-6.83-1.21-1.27-.24.12-3.58,1.29-.14C637,312.07,665.67,303,698.91,286a95.49,95.49,0,0,0,13.26-7.79,20.62,20.62,0,0,1,12.25-4.23c6.79,0,12.11,3.56,15.38,6.54,3.46,3.17,7.05,4.19,11.21,5.37,1.79.51,3.63,1,5.47,1.76,1,.38,3.51,1.38,3.9,3.75.27,1.65-.58,3.3-2.62,5-14.21,12.09-31,17.56-47.16,22.85-12.84,4.19-26.09,5.27-38.91,6.32-8,.66-16.2,1.33-24.18,2.75A18.22,18.22,0,0,1,644.32,328.57Z"/><path class="cls-4" d="M733.68,238.31a9.72,9.72,0,0,0-.08-1.17c-.13-1.29-.29-2.89.69-4.11,3.27-4.11,3.05-8.66,2.79-13.93-.09-1.72-.18-3.5-.12-5.26.29-8.7,4.43-14.73,13-19a11.46,11.46,0,0,1,4.94-1.44c3.76,0,4.79,3.3,5.4,5.27a6.39,6.39,0,0,0,1.1,2.44l.84.77L762,203c-2.91,14.25-10.37,25.69-23.46,36a7.62,7.62,0,0,1-1.49.87l-.47.23-3,1.62Z"/><path class="cls-4" d="M721,584.38l.6-1.07c3.05-5.44,3.13-11.5,3.2-17.36a63,63,0,0,1,.73-10.68,20.61,20.61,0,0,1,15.36-15.93,7.17,7.17,0,0,1,1.67-.22c3.78,0,5.15,3.39,6,5.41.13.33.25.63.38.89,2.71,5.92,0,10.82-2.31,15.14a37.38,37.38,0,0,0-2.12,4.33c-3.13,8.25-10,13.48-16.7,18.54-1.11.84-2.16,1.63-3.19,2.44l-1,.75Z"/><path class="cls-4" d="M631.76,674.9c-5.67,0-11.18-2.19-16.51-4.31-2.29-.91-4.63-1.84-6.88-2.55a43.09,43.09,0,0,0-7.48-1.36c-1.61-.2-3.41-.43-5.44-.74l-1.24-.2-.08-3.49,1.23-.25c4.76-1,9.45-1.86,14-2.71l.15,0c14.17-2.66,27.55-5.17,40.09-10.19,12.72-5.09,25.22-11.13,35.93-16.39,5.05-2.47,10-5.52,14.7-8.46l.14-.08,4.31-2.66a12.81,12.81,0,0,1,6.78-1.83A20.66,20.66,0,0,1,720.4,622a79.53,79.53,0,0,1,7.56,4.53c4.82,3.15,9.77,6.38,15.84,7,2.22.23,3.86,1.38,4.38,3.06.42,1.34.29,3.46-2.67,6-13.94,11.94-30.36,17.35-46.24,22.58-12.4,4.08-25.23,5.15-37.62,6.19a227.23,227.23,0,0,0-25.87,3.18A20.45,20.45,0,0,1,631.76,674.9Z"/><path class="cls-4" d="M629.82,285.38c6.36-5.87,13.55-8.39,20.5-10.83,2.54-.9,4.92-1.73,7.23-2.71,17.37-7.37,36.81-11.63,57.79-12.64.53,0,1.07,0,1.6,0a42.45,42.45,0,0,1,13.37,2.33c.28.09.61.17,1,.26,2.09.55,5.93,1.55,6.38,5.89l.26,2.53-2.52-.34c-.61-.08-1.29-.12-1.95-.15a13.69,13.69,0,0,1-5.08-1,11.43,11.43,0,0,0-4.9-1.19c-3.64,0-6.69,2-10.21,4.36a50.66,50.66,0,0,1-5.33,3.23c-2.5,1.25-5.13,2.74-7.67,4.17-8,4.51-16.1,9.12-24.11,9.12-.44,0-.89,0-1.33,0-3-.21-6.29-.3-10.22-.3-2.73,0-5.5,0-8.19.09l-.17-1.5,0,1.5c-2.69,0-5.47.09-8.21.09-3.61,0-6.62-.08-9.46-.24l-.5,0a24.31,24.31,0,0,0-3.61.41c-.93.14-1.93.3-3.05.43l-6.14.74Z"/><path class="cls-4" d="M723.8,255a16.12,16.12,0,0,1-5-1.12,15.48,15.48,0,0,0-4.49-1.07,3.67,3.67,0,0,0-.78.08l-2.12.45-.28-2.15a55.43,55.43,0,0,0-3.44-11.76c-2.85-7.62-5.8-15.51-2.27-24.45s9.61-14.47,17.14-15.67a15.55,15.55,0,0,1,2.27-.19c7,0,8.06,6.07,8.75,10.08a20.89,20.89,0,0,0,1,4.15c.84,2,.64,4.3.46,6.32-.07.8-.14,1.63-.14,2.38.12,12.35-2.07,22.31-6.7,30.42A4.85,4.85,0,0,1,723.8,255Z"/><path class="cls-4" d="M655.7,633.43c-2.06,0-4.12,0-6.19-.07-1.6,0-3.21-.06-4.82-.07-3.12,0-6.23,0-9.38,0l-16.76,0-.74-3.3,2.06-1c14.84-6.93,30.16-14.08,46.53-17.76a264.35,264.35,0,0,1,37.2-5.88c.49,0,1-.06,1.48-.06,4.12,0,8.25,1.27,12.23,2.51,1.63.5,3.3,1,4.89,1.42a4.46,4.46,0,0,1,2.6,2.48,7.06,7.06,0,0,0,.45.72l1.58,2.11-2.45,1a1.49,1.49,0,0,0-.25.13,3.86,3.86,0,0,1-1.84.6,2.29,2.29,0,0,1-1-.24,20.07,20.07,0,0,0-9.18-2.37c-6.93,0-13,4.27-18.89,8.4a85.55,85.55,0,0,1-8.4,5.41C675.52,632.41,666.45,633.43,655.7,633.43Z"/><path class="cls-4" d="M712.81,600.86a2.63,2.63,0,0,1-.49,0c-1-.17-2.2-.32-3.48-.47-5.25-.63-8.71-1.05-9.22-3.6a60.82,60.82,0,0,0-3.51-10.36c-3.06-7.54-6.21-15.32-2.9-24.4,3.45-9.46,9.44-15.21,17.31-16.64a14.34,14.34,0,0,1,2.51-.24c6.84,0,7.85,5.82,8.6,10.07a20.75,20.75,0,0,0,1,4.13c.87,2.12.67,4.53.48,6.66-.07.85-.15,1.73-.15,2.53,0,9.68-2.06,19.46-6.23,29.89A4.61,4.61,0,0,1,712.81,600.86Z"/><path class="cls-4" d="M701.58,255c-.78,0-2.84,0-3.8-1.54a81.89,81.89,0,0,0-8.93-10.91c-6.62-7.21-13.47-14.67-14.47-25.89l-.07-.74.43-.6c.43-.61.29-1.65.12-2.86-.31-2.13-.87-6.11,4.34-7.23a16.22,16.22,0,0,1,3.54-.4c6.24,0,11.17,3.78,13.86,10.64,3.31,8.43,6.17,17.17,8.94,25.62.93,2.87,1.87,5.72,2.82,8.57a6,6,0,0,1-.53,4.11l-.49.72-1,.19h-.12c-.57,0-1.21.08-1.87.14C703.46,254.89,702.47,255,701.58,255Z"/><path class="cls-4" d="M689.39,601.07a3.71,3.71,0,0,1-3.21-1.36,89.71,89.71,0,0,0-8.82-10.59c-6.81-7.39-13.85-15-15-26.46l-.08-.75.45-.62c.42-.58.33-1.48.14-2.89-.3-2.13-.86-6.09,4.37-7.21a17.16,17.16,0,0,1,3.49-.38c6.27,0,11.2,3.79,13.9,10.67,3.25,8.29,6.07,16.87,8.8,25.17,1,3,2,6,3,9,.25.73.45,3.07-.21,4l-.59.83h-1c-.55,0-1.28.15-1.93.25A25.23,25.23,0,0,1,689.39,601.07Z"/><path class="cls-4" d="M672.36,260.84c-5.82,0-7.59-4.08-8.89-7.06a10.55,10.55,0,0,0-1.88-3.29,61.45,61.45,0,0,0-6.58-5.21c-4.44-3.2-9-6.51-12.12-12-3.58-6.38-3-11.7,1.69-16.27a7.65,7.65,0,0,1,5.43-2.33c2.84,0,5.41,1.55,7.68,2.92.7.42,1.33.8,1.93,1.12,10.55,5.54,17.91,14.48,25,23.12,2.17,2.63,4.4,5.35,6.68,7.91a4.17,4.17,0,0,1,1.24,4,4.08,4.08,0,0,1-2.9,2.69c-4,1.26-7.94,2.34-11.44,3.29l-3.49,1-.09,0h-.09A13.45,13.45,0,0,1,672.36,260.84Z"/><path class="cls-4" d="M660.27,606.9c-5.64,0-7.4-4-8.68-7a10.37,10.37,0,0,0-1.88-3.31,60.59,60.59,0,0,0-6.59-5.21c-4.45-3.21-9-6.52-12.16-12-3.7-6.47-3.09-11.92,1.84-16.67a7.21,7.21,0,0,1,5.11-2.14c2.74,0,5.23,1.47,7.44,2.76.63.38,1.19.71,1.72,1,10.81,5.6,18.34,14.71,25.63,23.53,2.22,2.69,4.52,5.47,6.88,8.11a3.83,3.83,0,0,1,1.06,3.63,4.12,4.12,0,0,1-2.84,2.71c-4,1.26-8.09,2.39-11.67,3.39l-3.5,1-.09,0h-.09A13.12,13.12,0,0,1,660.27,606.9Z"/><path class="cls-4" d="M650.52,269.35c-5.83,0-10.56-3.6-15.13-7.08-4-3-8.14-6.2-12.6-6.33-6.54-.19-12.65-4.36-15.95-10.86a11.42,11.42,0,0,0-1.8-2.28c-1.88-2-5-5.41-1.46-10.16a10.46,10.46,0,0,1,8.72-4.23,23.23,23.23,0,0,1,6.79,1.23c18.57,5.77,33.87,17,49.19,29l2.65,2.08-3.09,1.34c-.81.35-1.61.64-2.32.89a11.9,11.9,0,0,0-3.39,1.6C658.17,267.78,654.37,269.35,650.52,269.35Z"/><path class="cls-4" d="M638,615.93c-4.36,0-7.68-2.94-10.61-5.54a27.85,27.85,0,0,0-4.74-3.63,52.24,52.24,0,0,0-9.21-3.47c-6.8-2.08-14.49-4.44-18.88-12.48a12.28,12.28,0,0,0-1.69-2.13c-1.83-2-4.91-5.37-1.32-10a10.43,10.43,0,0,1,8.65-4.18,25,25,0,0,1,7.19,1.34c18.43,5.54,33.73,17.2,48.53,28.47l2.81,2.14-2.93,1.42c-1.17.57-2.34,1-3.47,1.53a24.79,24.79,0,0,0-6,3.14C643.44,614.82,640.73,615.93,638,615.93Z"/><path class="cls-4" d="M627.62,278.56c-5.91,0-11.47-2.48-16.86-4.89-5.1-2.27-10.37-4.62-15.64-4.62a17.73,17.73,0,0,0-1.79.09c-2.09.21-4.58.43-7.11.43-5.64,0-13.85-.95-20.1-9.18-1.59-2.1-3.11-4.54-2.32-6.74s3.29-2.83,5.93-3.46A44.46,44.46,0,0,1,579.86,249c11.17,0,21.63,4.08,31.74,8l1.73.68c6.65,2.57,13.21,5.47,19.55,8.27,2.84,1.25,5.66,2.5,8.46,3.7l3,1.3-2.54,2.09C637.31,276.76,632.67,278.56,627.62,278.56Z"/><path class="cls-4" d="M540.44,295.23c-4.12,0-8-.14-11.76-.44a173.7,173.7,0,0,1-17.91-2.68l.17-1.5-.28,1.48c-2.93-.54-6-1.11-9.14-1.63l-4.71-.77,3.85-2.81c7.77-5.69,15.78-7.06,23.52-8.39,2.25-.38,4.58-.78,6.8-1.28,16.62-3.75,33.22-5,53-5.74.48,0,1,0,1.45,0,10.06,0,19.1,3.9,27.84,7.67,1.59.68,3.17,1.37,4.76,2a3.85,3.85,0,0,1,1.91,2.31,3.7,3.7,0,0,0,.22.48l1,1.76-1.76,1c-.3.17-.63.4-1,.64a6.75,6.75,0,0,1-3.62,1.56c-11.25.4-22.67,1.78-33.72,3.12C567.81,293.57,554.1,295.23,540.44,295.23Z"/><path class="cls-5" d="M541.8,368.82c-3.11,0-4.92-2.76-6.52-5.19-1.3-2-2.65-4-4.42-4.51a18.52,18.52,0,0,1-4.45-2.09c-1.86-1.08-3.61-2.11-5.67-2.11a7,7,0,0,0-1.35.14l-6.93,1.42,5.16-4.84q1.92-1.8,3.79-3.59l.08-.08c8.18-7.79,15.9-15.14,25.94-19.47,12.49-5.37,24.17-8,35.69-8a73.76,73.76,0,0,1,28.23,5.67c2.45,1,5.07,1.83,7.61,2.62,1.19.37,2.37.74,3.55,1.13l6.25,2.07-6.35,1.76c-1.29.35-2.6.66-3.88,1a42.65,42.65,0,0,0-7.75,2.31c-6.34,2.84-12.84,5.54-19.13,8.15-15.63,6.49-31.78,13.2-46.38,22.51A6.44,6.44,0,0,1,541.8,368.82Zm10.45-29.88c-2.35,0-3.34.68-3.41,4.87,0,2,.09,3.17.37,3.46a.77.77,0,0,0,.38.06,5,5,0,0,0,1.2-.2l.22-.06h.3c.43,0,.77,0,1.11,0,3.69,0,4.7-.85,4.71-4,0-2.63-.68-4-4.47-4.17Z"/><path class="cls-4" d="M615.61,624.56c-5.9,0-11.47-2.48-16.85-4.88-5.1-2.28-10.38-4.63-15.64-4.63a17.68,17.68,0,0,0-1.78.09,69.07,69.07,0,0,1-7.14.44c-5.63,0-13.83-1-20.07-9.18-1.6-2.1-3.12-4.55-2.33-6.76s3.29-2.83,5.92-3.45A44.53,44.53,0,0,1,567.85,595c11.16,0,21.6,4.06,31.7,8l1.76.69c6.69,2.59,13.3,5.51,19.69,8.33,2.79,1.23,5.56,2.45,8.32,3.64l3,1.3-2.53,2.08C625.3,622.76,620.66,624.56,615.61,624.56Z"/><path class="cls-4" d="M528.33,641.24c-4.11,0-8-.14-11.75-.44a167.53,167.53,0,0,1-17.84-2.69c-2.74-.51-5.85-1.09-9-1.61l-4.45-.73,3.54-2.81c7.38-5.86,15.33-7.18,23-8.46,2.23-.37,4.55-.76,6.74-1.25,17.9-4,36.3-5.17,53.53-5.79.46,0,.93,0,1.39,0,9.8,0,18.6,3.76,27.11,7.41l.11,0c1.8.77,3.6,1.54,5.41,2.28A4.07,4.07,0,0,1,608,629a2.64,2.64,0,0,0,.25.39l1.33,1.71-1.81,1.19a9.72,9.72,0,0,0-.93.73,6.32,6.32,0,0,1-3.65,1.83c-11.4.38-23,1.78-34.14,3.13C555.72,639.58,542,641.24,528.33,641.24Z"/><path class="cls-5" d="M529.78,714.88c-3,0-4.76-2.61-6.42-5.14-1.28-1.93-2.59-3.93-4.29-4.46a24.11,24.11,0,0,1-4.69-2.24c-2.13-1.21-4.12-2.35-6.31-2.35l-.43,0-5.47.37,6.32-6.12c8.48-8.22,16.49-16,27.1-20.55,12.23-5.26,24.16-7.92,35.44-7.92a72.3,72.3,0,0,1,28,5.68,14.13,14.13,0,0,0,3.84.76c2.91.32,6.19.67,8.57,3.92l1.73,2.37-2.84.74c-1.31.35-2.63.64-3.92.91a39.94,39.94,0,0,0-7.81,2.25c-6.33,2.83-12.8,5.51-19.06,8.1-15.64,6.49-31.82,13.19-46.44,22.56A6.08,6.08,0,0,1,529.78,714.88Zm7.38-21.59a1.41,1.41,0,0,0,.31,0,4.59,4.59,0,0,0,1.19-.19l.21-.06h.29l1.13,0c3.85,0,4.79-.76,4.83-3.85,0-1.67-.33-2.77-1.07-3.38a6,6,0,0,0-3.69-.9h-.13c-2.31,0-3.35.68-3.38,4.73V690c0,1.11,0,3,.31,3.33Z"/><path class="cls-4" d="M556.29,571.74c-20,0-38.11-7.78-55.62-15.31l-1-.41c-11.69-5-25.53-11-39.53-17.36-4.92-2.24-6.18-7.59-6.72-12a3.3,3.3,0,0,1,.74-2.7,4,4,0,0,1,3.18-1.19,17.48,17.48,0,0,1,2.5.24c.52.07,1.06.15,1.4.16l4.37.09h.52c14.9.27,30.3.55,44.83,6,21.69,8.12,40.87,16.16,56,32.27a17.65,17.65,0,0,1,2.62,4.07c.35.68.71,1.35,1.11,2l1.49,2.5-2.87.49A76.6,76.6,0,0,1,556.29,571.74Z"/><path class="cls-4" d="M530.17,529.43c-3.32-1.08-6.51-2.17-9.63-3.23-6.76-2.29-13.13-4.46-19.58-6.21a84.57,84.57,0,0,0-22.25-2.67,220.52,220.52,0,0,0-22.48,1.45c-.5.05-1,.13-1.55.2a25.09,25.09,0,0,1-3.63.35,8.13,8.13,0,0,1-7.53-4.18l-1.12-1.9,2-.93,3.29-1.56c2.52-1.2,5.14-2.44,7.8-3.57,10.22-4.35,20.6-4.35,30.63-4.35h1.14c3.09,0,5.87,0,8.67-.11,1,0,1.95-.05,2.91-.05A77.81,77.81,0,0,1,535.56,512c2.51,1.31,5.49,3.76,6.31,6.72a5.68,5.68,0,0,1-.64,4.58c-1.62,2.65-4.77,4-7.31,5a22.45,22.45,0,0,0-2.15,1l-.76.43Z"/><path class="cls-5" d="M487.49,404.52l.54-1.08c2-4,3.94-7.86,5.78-11.54l1.08-2.17c3.77-7.53,7.25-14.49,10.75-21.43,3.15-6.23,6.86-9.25,11.33-9.25,4.86,0,9.51,3.69,14,7.26l.48.38c1.18.93,2.24,2,3.28,2.95l1.37,1.3,2.29,2.1-2.86,1.21c-.65.27-1.31.52-2,.76a15.75,15.75,0,0,0-3.46,1.56c-6.22,4.33-12.61,9-19.53,14.16-4.17,3.14-8.22,6.32-12.9,10-2.06,1.62-4.24,3.34-6.61,5.19l-.94.73Z"/><path class="cls-5" d="M475.31,750.73l.54-1.07c2.18-4.31,4.22-8.38,6.17-12.28,4.07-8.16,7.92-15.86,11.92-23.33,3.28-6.14,6.92-9.13,11.14-9.13s8,3,11.63,5.82c1.46,1.14,3,2.32,4.41,3.23.88.55,3.57,2.24,3.21,4.7s-3.31,3.25-4.28,3.53c-6.19,1.74-11.11,5.89-15.86,9.91-1.77,1.5-3.61,3-5.52,4.49-4,3-7.92,6.12-12.46,9.73l-.19.15c-2.2,1.75-4.56,3.62-7.14,5.65l-.95.75Z"/><path class="cls-4" d="M438.45,508c-1.77,0-2.81-.87-4-1.88L433,504.86l1.14-1.64.07-.08c6.08-6.58,13.75-10.15,21.17-13.6l1-.48a90.38,90.38,0,0,1,38.95-8.73c.95,0,1.89,0,2.85,0,8.09.24,18.15.54,23.41,11.1a9.54,9.54,0,0,1,.8,3.42c0,.43.07.82.14,1.2l.37,2.11-2.14.22c-.42,0-.85.12-1.28.2a14,14,0,0,1-2.5.29,6.45,6.45,0,0,1-1.1-.09,161.3,161.3,0,0,0-26.9-2.46c-15.31,0-28.91,2.76-41.59,8.43C442.18,507.14,440.19,508,438.45,508Z"/><path class="cls-4" d="M428.13,500.41c-2.19,0-4.18-1.56-5.94-2.94-.69-.54-1.41-1.1-2.05-1.51l-2-1.27,1.63-1.77c.34-.38.68-.77,1-1.16a20.37,20.37,0,0,1,2.67-2.76l1.91-1.57c11.1-9.09,22.58-18.49,36.66-24.21a27.55,27.55,0,0,1,10.57-2,66.85,66.85,0,0,1,11,1.2,72.67,72.67,0,0,0,9,1.11,5.11,5.11,0,0,1,3.39,1.92c1.35,1.45,2.69,3.75,2.62,5.6-.08,2.36-1.49,3.2-2.78,3.2a5.28,5.28,0,0,1-2.06-.55,6.8,6.8,0,0,0-.84-.32,29.42,29.42,0,0,1-6.06,1.77c-.81.18-1.61.35-2.39.55l-.08,0h-.07c-14.47,2.2-33,6.36-47.76,19.1-.52.44-1.06,1-1.62,1.52-1.83,1.8-3.87,3.81-6.36,4Z"/><path class="cls-4" d="M415.75,491.46c-.91-.51-1.82-1-2.72-1.59a36,36,0,0,0-5.83-3c-2.18-.81-4.76-2-5.4-4.42s1.05-4.84,3-7.22c10.92-13.16,22-25.55,37.25-32.58a24.51,24.51,0,0,1,10.05-1.92,37,37,0,0,1,8.53,1c2.84.67,4.53,3.75,6.31,7a42.18,42.18,0,0,0,2.32,3.92l1.46,2.13-2.42.89c-.48.17-.88.33-1.25.48a18.68,18.68,0,0,1-2.06.71c-18.12,4.52-29.6,11.61-37.23,23a13.7,13.7,0,0,1-5,4c-3,1.7-4.41,2.64-4.07,5.58l.45,3.86Z"/><path class="cls-4" d="M405,421a4.56,4.56,0,0,1-2.78-1,2.66,2.66,0,0,1-1-2.1,4.89,4.89,0,0,1,1.14-3.55,6.17,6.17,0,0,0,1.28-2.89c.59-2.11,1.49-5.29,5.23-5.89,8-1.27,13.81-6.68,18.6-11.65a141.84,141.84,0,0,0,9.62-11.55c1.32-1.69,2.8-3.6,4.26-5.41l1.35-1.67,1.57,1.47c.47.45,1,.88,1.46,1.31a25.55,25.55,0,0,1,3.65,3.63c1.82,2.34,3.45,4.73,5.33,7.48l.09.13c.8,1.18,1.65,2.41,2.56,3.72l1.21,1.74-1.8,1.1c-1.78,1.1-3.54,2.25-5.24,3.36a99.27,99.27,0,0,1-12,7.08c-6.42,3-13.07,5.76-19.5,8.4l-.17.07c-3.41,1.41-6.94,2.86-10.38,4.33a7.86,7.86,0,0,0-1,.59A6.45,6.45,0,0,1,405,421Z"/><path class="cls-4" d="M410,397.05c-.09-.7-.25-1.47-.41-2.21a13.18,13.18,0,0,1-.29-6c.11-.41.23-.83.35-1.25,1.49-5.34,2.19-8.69-.73-10.27a10,10,0,0,0-4.85-1.2,17.23,17.23,0,0,0-10.25,4,5.09,5.09,0,0,1-2.91.79c-.68.06-1.58.13-2.82.29l-1.19.16-1.16-3.17,1-.65c3.5-2.26,6.88-4.54,10.15-6.75,13.49-9.11,26.22-17.72,42.11-20.37a10.88,10.88,0,0,1,1.7-.16,4.17,4.17,0,0,1,3.63,1.58c.82,1.13.91,2.6.29,4.49-4.86,14.61-12.07,30.92-28.65,41a11.74,11.74,0,0,1-2.38,1l-.89.32-2.41.95Z"/><path class="cls-4" d="M394.71,478.94a6.89,6.89,0,0,1-2.31-.43c-1.95-.7-3.07-1.69-3.42-3-.5-1.93.88-3.51,1.79-4.55a9.48,9.48,0,0,0,.61-.74l1.34-2.9c7.08-15.25,14.39-31,29.49-41.37a16.76,16.76,0,0,1,9.62-3.11,16.11,16.11,0,0,1,5.34.91c2.33.8,4,3,5.4,4.85.57.75,1.16,1.53,1.74,2.15l1.63,1.76L437.2,438q-4.93,3.16-9.86,6.29c-10.67,6.76-19.34,16.39-26.5,29.44C399.51,476.19,398,478.94,394.71,478.94Z"/><path class="cls-4" d="M441.44,528.86c-2.57-1.12-5.14-2.27-7.7-3.43l-.17-.08c-5.68-2.56-11.55-5.2-17.44-7.41-3.78-1.41-7.56-2.88-11.23-4.3-15.36-6-31.24-12.12-47.86-14.69-4.17-.64-6.24-3.42-8.08-5.86a15.12,15.12,0,0,0-2.91-3.24c-3.13-2.32-6.06-4.79-9.15-7.4-1.31-1.11-2.63-2.22-4-3.35l-3.59-3,4.62-.57a104.94,104.94,0,0,1,12.56-.78c39.74,0,68.61,24,97.11,50.78l.92.87-1.93,2.93Z"/><path class="cls-4" d="M352.91,400.72l.67-1.19c2.22-4,4.13-8.3,6-12.5,5.08-11.55,10.33-23.5,22.9-30.22,5.09-2.72,11.17-4,18.59-4,2.13,0,4.42.12,6.8.34a5.33,5.33,0,0,1,1.87.61,4,4,0,0,0,.43.2l2.27.9-1.33,2.05a2.42,2.42,0,0,0-.21.39,4,4,0,0,1-1.87,2.11c-9.64,4.39-17.21,11.84-24.53,19.05A155.49,155.49,0,0,1,370.61,391c-1.54,1.19-3.19,2.31-4.64,3.3-3.22,2.19-6.54,4.46-9.12,7.51l-.88,1Z"/><path class="cls-4" d="M381.67,430.19l-.15-.48a9.6,9.6,0,0,1-.41-1.54c-2.31-13.61-5.88-15.36-8.73-15.36-3.34,0-8.17,2.58-14.76,7.88a35.56,35.56,0,0,1-5,3.21c-.75.43-1.49.84-2.21,1.28l-2.23,1.35-.73-2.5c-1.1-3.77,1-6.12,2.57-7.84a13.07,13.07,0,0,0,1.43-1.77c8.79-14.47,23-20.83,36.66-27,4.09-1.84,8.32-3.73,12.32-5.81a7.05,7.05,0,0,1,3.37-.87c.28,0,.51,0,.7,0h.13l.12.7.15-.43,2.12.75-.21,1.25c-3.51,20.62-9.58,35.09-19.69,46.9a4.73,4.73,0,0,1-2.17,1.29,3.56,3.56,0,0,0-.49.19l-2.12,1Z"/><path class="cls-4" d="M380.2,474.14c-2.5,0-4.92-1.17-7.27-2.3a16.53,16.53,0,0,0-3.92-1.55l-3-.45.71-4.8,2,.34c.71,0,1.83-2.3,2.26-3.17l.23-.47c.51-1,1-2,1.56-3.07a59.3,59.3,0,0,0,4.84-11.11c2-7.19,7.11-11.42,12-15.51,3-2.48,6.09-5,8.24-8.18,1-1.44,2.91-1.44,3.54-1.44a30.36,30.36,0,0,1,4.14.43c1.25.18,2.52.36,3.59.41l3.41.16-1.8,2.9c-2.55,4.09-5.48,8-8.32,11.7-6.23,8.22-12.12,16-13.83,25.47C387.38,470.56,384.54,474.14,380.2,474.14Z"/><path class="cls-4" d="M331.83,472.82a5.19,5.19,0,0,1-3.92-1.78,6.25,6.25,0,0,1-1.71-4.25c.07-.79-1.94-1.56-3.54-2.18-2.44-.94-5.2-2-5.72-4.64-.41-2.09.74-4.29,3.75-7.12l1.52-1.44A109.79,109.79,0,0,1,334.39,441c10.43-7.35,22.66-15.76,35.79-22.63a9,9,0,0,1,4-1.3c1.1,0,3.67.46,3.75,4.73.28,14.75-2.35,27.26-8.06,38.25-.21.41-.46.84-.72,1.29-1.86,3.22-1.47,3.48-.92,3.83a1.55,1.55,0,0,0,.55.26l1.94.33-.71,4.72-2-.29a99.57,99.57,0,0,0-14.69-1.24,50.64,50.64,0,0,0-19.16,3.45A6.33,6.33,0,0,1,331.83,472.82Z"/><path class="cls-4" d="M319.07,444.45l.59-1.1c2.92-5.4,3-11.42,3-17.24a60.75,60.75,0,0,1,.82-11.22,20.35,20.35,0,0,1,15.71-15.63,6.36,6.36,0,0,1,1.34-.16c3.72,0,5.09,3.44,5.91,5.49.11.26.21.51.3.74,2.59,5.91,0,10.82-2.3,15.16a34.73,34.73,0,0,0-2.19,4.65c-2.68,7.52-8.73,12.19-14.58,16.7-1.69,1.3-3.4,2.62-5,4l-1,.81Z"/><path class="cls-4" d="M230.38,534.57c-5,0-10.23-1.85-15.28-3.63-2.78-1-5.65-2-8.37-2.65-2.26-.54-4.63-1-7.91-1.54-2-.36-4.29-.76-7.07-1.28l-1.27-.24.13-3.57,1.29-.15c31.46-3.5,60.28-12.68,93.42-29.76l2.44-1.21a42.06,42.06,0,0,0,7.92-4.62c4.76-3.83,9.69-5.78,14.68-5.78,5.79,0,11.43,2.58,16.79,7.66,2.63,2.49,5.6,3.11,8.75,3.77a27.87,27.87,0,0,1,6.21,1.83c1.74.8,3.9,1.8,4.21,4s-1.53,4-2.93,5.2c-13.85,11.84-30.33,17.27-46.26,22.52-13.07,4.3-26.58,5.41-39.65,6.47-7.89.65-16,1.31-23.93,2.68A18,18,0,0,1,230.38,534.57Z"/><path class="cls-4" d="M318.93,476.12a3.11,3.11,0,0,1-1.5-.37,19.45,19.45,0,0,0-4-1.69l-1.95-.55,1.78-6.07,1.92.56c1.39.4,2.88.83,4.34,1.19a5.74,5.74,0,0,1,2.83,2.06,9.34,9.34,0,0,0,.65.7l2.93,2.65-3.87.79a7.28,7.28,0,0,0-.81.24A7.5,7.5,0,0,1,318.93,476.12Z"/><path class="cls-4" d="M310.9,460.85a3,3,0,0,1-.43,0c-1-.16-2.16-.29-3.42-.43-5.38-.59-8.89-1-9.41-3.51a62.08,62.08,0,0,0-3.54-10.47c-3.1-7.68-6.31-15.62-2.82-24.8,2.21-5.81,7.41-15.63,17.37-16.1l.92,0c10.34,0,10.68,8.28,10.94,14.33a40.8,40.8,0,0,0,.37,4.74A11.5,11.5,0,0,1,321,427c0,.33,0,.6,0,.86.08,9.89-2,19.84-6.21,30.4A4.61,4.61,0,0,1,310.9,460.85Z"/><path class="cls-4" d="M215.79,491.4c6.4-5.88,13.57-8.4,20.51-10.85,2.56-.9,5-1.75,7.31-2.76a162.24,162.24,0,0,1,56.83-12.48l1,0c4.44,0,8.85,1.28,13.11,2.52l2.56.75-1.76,6-1.89-.51a13.46,13.46,0,0,0-3.57-.49c-5,0-9.54,3.09-13.92,6.08a46.55,46.55,0,0,1-9.76,5.56,67.42,67.42,0,0,0-8.4,4.1c-5,2.7-10.09,5.5-14.91,5.5a11.28,11.28,0,0,1-2.27-.22,60.24,60.24,0,0,0-12-1.06c-3.12,0-6.25.15-9.27.3s-6.25.3-9.37.3c-1.77,0-3.39-.05-4.94-.14a5.15,5.15,0,0,0-.55,0,25.52,25.52,0,0,0-3.73.41c-1,.15-2.09.32-3.34.47l-6.13.71Z"/><path class="cls-4" d="M287.82,461a7.83,7.83,0,0,1-2.9-.49c-5.94-2.34-23.59-31.13-23.91-39l0-.76.41-.5a7.63,7.63,0,0,0-.27-1.56c-.35-1.44-.82-3.43.28-5.15a5.62,5.62,0,0,1,3.88-2.32,17.1,17.1,0,0,1,3.43-.36c6.28,0,11.21,3.79,13.9,10.68,3.28,8.38,6.13,17.05,8.89,25.44,1,2.92,1.92,5.83,2.9,8.73.29.86.38,3.09-.26,4l-.59.82-1,0c-.47,0-1.07.12-1.67.2A23.67,23.67,0,0,1,287.82,461Z"/><path class="cls-4" d="M258.21,466.92c-5.66,0-7.42-4.1-8.7-7.1a10.89,10.89,0,0,0-1.79-3.23,48.72,48.72,0,0,0-6.95-5.48c-4.38-3.06-8.89-6.2-11.84-11.71-3.62-6.73-3-12.18,1.87-16.66a7.4,7.4,0,0,1,5.15-2.11c2.81,0,5.38,1.52,7.64,2.87.67.4,1.27.75,1.85,1.06,10.56,5.5,17.91,14.41,25,23,2.29,2.77,4.66,5.64,7.08,8.32a3.87,3.87,0,0,1,1.08,3.69,4,4,0,0,1-2.77,2.66c-3.94,1.25-7.91,2.37-11.41,3.35l-3.8,1.07-.08,0h-.09A13.14,13.14,0,0,1,258.21,466.92Z"/><path class="cls-4" d="M236.53,475.26c-5.84,0-10.57-3.56-15.15-7-4-3-8.15-6.14-12.62-6.27-8.1-.24-13-6.26-17.7-13l-.51-.72c-1.85-2.57-4.13-5.75-.93-9.76a10.69,10.69,0,0,1,8.77-4.11,22.91,22.91,0,0,1,6.74,1.22c18.37,5.7,33.74,17,49.16,29l2.66,2.08-3.1,1.34c-.83.35-1.64.65-2.35.9a12.11,12.11,0,0,0-3.42,1.61C244.14,473.72,240.36,475.26,236.53,475.26Z"/><path class="cls-4" d="M213.91,485.05c-5.37,0-10.43-2.41-15.32-4.75-3.87-1.85-7.87-3.76-11.75-4.27a35.67,35.67,0,0,0-4.57-.25c-1.33,0-2.71,0-4.05.09s-2.86.09-4.27.09c-5.53,0-11.37-.64-16.57-5.3l-.56-.5c-5.7-5.11-8.08-7.59-7-9.88,2.32-4.75,8-5,12.1-5.12l.85,0c.77,0,1.54-.05,2.3-.05,13.33,0,25.31,5,36.89,9.88,2.53,1.06,5.15,2.16,7.75,3.19,4.29,1.7,8.44,3.54,12.46,5.31,1.64.73,3.25,1.44,4.81,2.11l2.74,1.19-2.13,2.08C223.33,483,218.84,485.05,213.91,485.05Z"/><path class="cls-4" d="M126.5,501.24c-4.1,0-8-.15-11.76-.45a175.29,175.29,0,0,1-18-2.67c-3-.55-6.05-1.11-9.29-1.64l-4.75-.77,3.9-2.82c7.85-5.68,15.9-7.08,23.69-8.44,2.19-.38,4.45-.77,6.61-1.25,16.61-3.69,33.21-5,53-5.74l1.51,0c9.87,0,18.73,3.79,27.29,7.45,1.79.77,3.53,1.51,5.26,2.22a3.89,3.89,0,0,1,1.94,2.23c.09.18.16.34.25.49l1.09,1.77-1.82,1a8.49,8.49,0,0,0-1,.66,6.79,6.79,0,0,1-3.61,1.58c-11.29.39-22.74,1.78-33.81,3.12C153.8,499.58,140.12,501.24,126.5,501.24Z"/><path class="cls-5" d="M127.8,574.83c-3.1,0-4.87-2.65-6.57-5.22-1.32-2-2.68-4-4.45-4.55a23.31,23.31,0,0,1-4.58-2.12c-2-1.14-4-2.21-6.09-2.21l-.5,0-5.58.44,4-3.88,2.9-2.79c8.29-8,16.12-15.56,26.49-20.06,12.18-5.26,24.15-7.93,35.6-7.93a75.66,75.66,0,0,1,27.9,5.39c2.57,1,5.24,1.93,7.82,2.81l3.75,1.29,6.06,2.15-6.21,1.67c-1.31.36-2.64.65-3.93.94a41.68,41.68,0,0,0-7.73,2.27c-6.38,2.87-12.92,5.58-19.25,8.21-15.6,6.47-31.71,13.16-46.27,22.46A6.36,6.36,0,0,1,127.8,574.83ZM138.23,545a3.31,3.31,0,0,0-2.47.73c-.68.72-.95,2.27-.83,4.75v.23l-.05.29c-.37,1.43-.12,1.77-.11,1.78s.4.45,2.43.45l.77,0c4.19-.17,5.2-1,5.14-4.25-.05-2.56-.79-3.87-4.67-4Z"/><path class="cls-5" d="M73.33,610.68l.55-1.07c2.2-4.36,4.26-8.46,6.23-12.4C84.18,589.08,88,581.43,92,574c3.29-6.16,7-9.15,11.17-9.15s8.09,3.07,11.78,6c1.4,1.12,2.84,2.28,4.22,3.19a13.19,13.19,0,0,1,2.2,1.94c.28.29.53.54.79.78l1.9,1.77L121.82,580c-.3.19-.58.4-.87.61a9.33,9.33,0,0,1-2.94,1.64c-6.22,1.74-11.15,5.91-15.91,9.95-1.79,1.51-3.59,3-5.46,4.45-4.11,3.12-8.18,6.33-12.89,10l-6.85,5.41-1,.75Z"/><polygon class="cls-2" points="6 8.83 58 60.83 58 1619.17 6 1671.17 6 8.83"/><path d="M404.81,382.74c-.15.27-1.42-.41-3.49.67-17.2,9-37.13,13.83-48.19,32-1.55,2.56-4.9,4.22-3.79,8a64.37,64.37,0,0,0,7-4.34c16.42-13.21,23.38-11,26.71,8.72a15.88,15.88,0,0,0,.51,1.79c.67-.31,1.54-.45,2-1C396.37,416.06,401.7,401,404.81,382.74ZM1024,8V1672a8,8,0,0,1-8,8H8a8,8,0,0,1-8-8V8A8,8,0,0,1,8,0H1016A8,8,0,0,1,1024,8Zm-8,1658.34V13.66l-48,48V1618.34ZM962.34,56l48-48H13.66l48,48H962.34ZM13.66,1672h996.68l-48-48H61.66ZM960,1616V1404.85c-20.76-1.31-41.59-.61-62.25.76-36,2.38-71.43,10-106.21,19.93-9.49,2.71-18.7,6.39-28,9.76-.92.34-1.5,1.63-2.23,2.47,1,.39,2,1.2,2.88,1.1,10.42-1.16,21-4.12,31.22-3.3,11.71.94,23.17-2.12,35.13.62,12.41,2.85,25.73,1.44,38.54,2.86,27.88,3.08,54.94,9.54,80.28,22,1.12.55,1.63,2.37,2.42,3.59-1.5.41-3.26,1.54-4.47,1.12a366.81,366.81,0,0,0-77.57-18.08c-26.39-3-53.09-4.44-80-1.19-13.26,1.61-26.71,2.74-39.94,4.74-25.76,3.91-51.28,9.16-74.73,21.34-.8.41-1.14,1.69-1.67,2.62,28.77-8.86,58.51-12.52,88.32-13.72A202.54,202.54,0,0,1,809.5,1465c13.71,2.71,27.75,3.53,41.43,7.62,12.87,3.85,24.89,9.24,36.76,15.19,1.26.63,1.46,3.38,2.16,5.15-2.26-.12-4.8.42-6.71-.45-27.57-12.54-56.81-16.94-86.68-19.78-24.44-2.32-48.52-.1-72.55,2.54a307.47,307.47,0,0,0-75.63,18.27c-17.15,6.53-34,14.7-48.24,27.26-12.13,10.69-26,19.4-37.8,30.44-17.6,16.52-34.2,34.13-50.85,51.63a168.8,168.8,0,0,0-10.83,13.1Zm0-218.55V1180.8c-17.81-11-35.9-21.49-55.47-29.28-23.36-9.31-47-18-71.31-24.55-29.22-7.86-58.48-15.33-88.74-18-2.32-.21-4.53-1.51-6.86-1.82s-4.85-.08-11.68-.08a428.17,428.17,0,0,1,90.52,38.17c23.43,13.18,46.48,27.15,66.34,45.93,18.46,17.45,38.32,33.41,57.43,50.17,2.18,1.91,3.11,5.25,5.3,7.13,3.93,3.37,9.94,7.89,5.32,11.9-4.2,3.65-8.63-3.41-12.19-6.87-14.73-14.3-30.48-27.4-46.09-40.72-16.47-14-33-27.89-50.94-39.94a367.79,367.79,0,0,0-68.32-35.75c-17.81-7.15-35.25-15.72-53.63-20.85-16.12-4.49-32.32-9.22-49.15-11.64-13.58-1.95-26.84-.57-40.39-.81,23.32,5.4,44.57,15.9,66.27,25.19,22.24,9.52,42.32,22.75,62.37,36.2,19.08,12.81,35.67,28.47,52.46,43.82,10.64,9.72,18.85,22.09,28.34,33.1,2.13,2.47,1.68,4.29-.43,5.81-2.39,1.72-4.12-.44-5.46-2-23.38-26.68-49.23-50.64-78.71-70.44-16.28-10.94-32.12-23.41-50-31-23-9.76-45.32-21.64-69.93-27.54-19.67-4.71-38.2-14.55-59.43-12-19.57,2.37-39.17,4-58.68,7.37-32.69,5.72-63.9,15.89-94.1,29.06-9.81,4.28-20.75,7.36-28.68,15.45a14.35,14.35,0,0,0-1.85,3.25c1.21.28,2.41.61,3.63.81,19.51,3.06,38.48,8.17,57.54,13.31,17.63,4.75,35.46,8.81,52.74,14.75s34.44,12.14,50.57,21c11.36,6.25,23.92,10.39,35,17.09,26.94,16.36,53.84,32.92,75.27,56.72,6.64,7.38,13.91,14.2,21,21.18,2.22,2.19,2.38,4.39.91,7.58-39.65-38.28-83.37-69.29-133.5-92.34-49.85-22.92-102.25-35.22-155.19-46.93,13.51,5.77,27.29,10.63,40.28,17.57,28.74,15.35,56.35,32.5,81.71,52.86,13.91,11.16,28.89,21.52,39.27,36.62.83,1.22,3.37,2,1.52,3.71-.61.57-3.22-.22-4.36-1.11-13.2-10.22-26.48-20.35-39.35-31-11.31-9.34-24.12-16.25-36.29-24.21-23.07-15.08-47.6-27.39-72.06-39.87-4.79-2.44-10.33-3.39-18.88-6.09,29.92,19,53.47,39.81,75,63.32,14.77,16.15,27.4,33.73,39.84,51.56,1.4,2,4,5,1.16,6.9-2.66,1.81-5-1.43-6.33-3.43-18.31-26.62-42.42-48.08-64.41-71.35-16.93-17.91-38.38-30.57-60.28-41.79-19.93-10.22-40.14-20.18-62.7-23.44-3.69-.53-7.59,1.47-11.6.05,14.76,5.84,29.23,11.83,43.15,19.16,15.39,8.09,29.33,18.31,43.06,28.79a231.32,231.32,0,0,1,40.66,39.53c10.71,13.44,22.68,26.33,28.87,43,1,2.67,2.08,5.09.52,7.82-1.94-1.8-4.85-3.25-5.66-5.47-4.17-11.33-13.77-18.58-20.37-28.07-10.16-14.61-23.46-26.51-36.62-38.29-17.19-15.37-35.94-28.79-56.66-39-15.09-7.46-30.19-15.51-46.16-20.41-12.61-3.87-24.86-10.57-40-6.22-10.68,3.08-22.94,1-34.58,2.39-24.3,2.93-48.42,6-72.34,11.71-15.44,3.65-30.22,8.9-45.26,14.67,8.9-.41,17.83-.45,26.69-1.3,28.23-2.7,55.33,1.82,82.13,10.74,18.53,6.17,36.4,13.09,51.54,25.77,1.17,1,3.18,2.27,1.41,3.92-.66.62-3-.06-4.27-.67a423,423,0,0,0-61.57-23.31,194.75,194.75,0,0,0-68.58-6.84c-21.66,1.55-43.89.89-64.74,8.34v220.1q7.41-5.75,15.24-11.05c25.1-17.13,53.1-28.54,80.62-40.53,23.59-10.27,48.45-17.9,73.19-25.17,24-7,48.37-12.66,72.8-17.91,14.48-3.1,29.32-4.71,44.08-6.22,26.93-2.74,53.88-5.94,80.9-7,18.83-.7,37.77-2.39,56.76.25,13.76,1.9,27.79,1.77,41.69,2.71,19.6,1.32,38.6,6.17,57.78,10,.75.15,1.33,1.11,2,1.69-.56.47-1.12,1.33-1.7,1.33a208.47,208.47,0,0,1-36.46-2.19c-13.28-2.12-26.92-1.92-40.4-2.81-20.19-1.34-40.31-1.14-60.59-.5-26.78.84-53.23,3.62-79.83,6-12.62,1.13-25.16,3-37.62,4.7-22.55,3-44.88,7.94-67.08,13-15.26,3.49-30.15,8.57-45.21,13,.14.58.29,1.17.43,1.76,13.56,0,27.13-.48,40.66.1,26,1.13,51,7.73,76.27,13.58,26.74,6.19,51.67,17.37,77.31,26.53,30.46,10.89,58.62,26.53,83.09,47.9,10.77,9.4,20.22,20.33,30.14,30.68,1,1,1.05,3,1.55,4.45-1.43-.4-3.22-.39-4.25-1.27q-13.93-11.85-27.63-24c-16.67-14.72-35.66-26.15-55.56-35.47-21.32-10-43.57-18.12-65.84-25.86-17.21-6-34.8-10.88-52.59-15.26-20.6-5.06-41.35-9.3-62.25-10.81-23-1.66-46.26.46-73,5.19,12.94.14,22.08.92,31.16,2.83,17.24,3.62,34.68,6.45,52.13,8.93,24,3.42,45.92,13.18,67.8,22.68a372,372,0,0,1,41.88,21.9,426.51,426.51,0,0,1,60.73,44c18,15.59,32.11,34.75,46.17,53.84.47.64,0,2.49-.63,3.31-1.14,1.45-2,.51-3.09-.67-9.39-10.46-18.23-21.54-28.48-31.1-23.27-21.7-47.64-41.79-75.54-57.9-24.56-14.18-49.55-27.13-76-36.72a237,237,0,0,0-46.33-11.22c-30.36-4.44-60.43-10.17-91.34-9.69-19.78.31-37,7.46-54.74,17.78,67.34-19,127.57,2.22,187,27.77,60.26,25.9,107.34,67.62,144.64,120.83-8-2.39-11.34-9.87-17-14.83-9.74-8.5-20.56-16.12-28.71-26-9.46-11.39-20.86-20.32-32.16-29.19a271.35,271.35,0,0,0-60.67-36.17c-20.49-8.77-40.81-18.28-62-25-17.54-5.59-36.26-7.4-54.37-11.34-25.35-5.51-49.88-1.39-74.83,3.7-13,2.65-26.09,5.1-37.6,11a79.77,79.77,0,0,0-12.44,8.2V1616H491.35a180.76,180.76,0,0,1,21.93-32.91c17.16-20.5,36.48-38.71,56.94-55.59,24.1-19.88,49.19-38.18,76.87-53.48,23-12.74,46.72-23.7,70.74-34a606.38,606.38,0,0,1,78.36-27.33c23.14-6.3,46.35-11.78,70.25-13.91,20.3-1.8,40.47-4,61.06-3.16C938.37,1396.13,949.21,1396.56,960,1397.45Zm0-227.57V1046c-14.1-8.27-28.58-15.9-43.27-23.25-21.49-10.74-43.59-19.9-65.49-29.6-20.61-9.13-41.63-17-62.91-24.47-8.29-2.9-16.55-5.19-27-8.56C826.27,993.85,875.52,1041,914.93,1099c-11.87-12.21-23.7-24.46-35.64-36.59C869,1051.93,859,1041,847.92,1031.27c-11.89-10.51-24.66-20.07-37.33-29.65-20-15.12-41.36-28-65.07-36.55l-6.65-2.42c.55,3.5,4,3.52,6.16,5,35.09,24.91,62.93,56.49,85.79,92.73,5.07,8,10.88,15.61,15.55,24-8.83-4.29-14.25-12-19.59-19.42-15.45-21.65-32.87-41.67-51.31-60.71-19.42-20.06-43-34.31-68.61-45.38-23-9.94-46.13-19.31-70.91-24.1-4.65-.9-8.87-3.93-14.38-.76a261.09,261.09,0,0,1,69,36.26c21.65,16,42.17,33.12,59.12,54.79,9.47,12.1,19.91,23.61,28.77,36.3,1.52,2.18,4.29,4.89,1.82,7.48-2.68,2.82-4-1.18-5.23-2.47-17.56-19.23-33.85-39.78-52.7-57.64a279.93,279.93,0,0,0-52.76-39.6c-15.06-8.65-30.54-16.6-46.1-24.32-7.81-3.87-15.39-8.67-24.94-9,6.16,3.55,12.06,7.39,18.32,10.48,14.5,7.14,26.55,17.62,38.8,27.81a314.15,314.15,0,0,1,43.52,43.46c7.78,9.62,15.08,19.63,22.38,29.63.57.78-.59,2.84-.94,4.3-.79-.25-1.85-.25-2.32-.78-9.16-10.24-18.12-20.65-27.38-30.81a407.58,407.58,0,0,0-41.79-39.28c-18.07-15-37.19-28.28-58.28-38.22-13.83-6.52-29-10.24-43.43-15.47-32.28-11.66-66.09-8.64-99.11-8.09-28.47.48-57.29,2.4-85.64,7.55-16.13,2.93-32.56,4.09-48.76,6.66-19.33,3.07-38.14,8.87-57.21,12.78-18.55,3.79-35.83,11-54.05,15.51-11.67,2.87-22.48,9.26-37.88,15.89,16.79-1,29.09-2.25,41.4-2.41,21-.27,41.29,4.35,61.73,9,13.59,3.11,27.06,5.9,40.11,10.93,28.52,11,55.54,23.87,77.84,45.88,6,5.88,10,13.69,17.33,18.17.53.32.79,2.21.69,2.25-2.6,1.11-4.92,1.08-7.09-1.28a186.72,186.72,0,0,0-35.62-29.79c-21.58-14.14-45.43-22.95-69.66-31.07-24.06-8.06-49.07-12-74-15.37-13.45-1.8-27.89,1-41.48,3.71-17.75,3.56-36,5.93-52.32,14.87a21,21,0,0,0-2.54,1.93c.87.37,1.77,1.14,2.59,1.07,13.8-1.25,27.57-3.14,41.39-3.8,15.31-.72,30.49,1.61,45.59,4.11,10.41,1.72,20.78,3.65,31.19,5.37a221.53,221.53,0,0,1,68.74,22.91c9.88,5.28,19.87,10.76,28.58,17.7,6.62,5.27,15.53,8.82,19.17,19.91-9.08-6.41-16.83-11.8-24.49-17.31-13.27-9.55-28.46-15.16-43.5-21-25.58-9.89-52.53-13.74-79.32-18.82a173.47,173.47,0,0,0-38.62-3.29c-28.13,1.16-56.75,1.6-83.78,13.14A233.38,233.38,0,0,0,64,1036.72v159.9l3.28-1.37c14.33-6.18,28.4-13.17,43.15-18.11a413.07,413.07,0,0,1,66.69-16.38c47.32-7.47,94.82-9.27,142.61-7.33,18.48.75,36.91,1,55.2,4.3,2.44.43,5.92-2.28,8.27-4.3,26-22.4,57.2-33.09,89.44-43.1a402.27,402.27,0,0,1,91.09-17,870.67,870.67,0,0,1,93.35-2c36,1.31,72.09,1.66,107.92,8.35,37.18,6.94,73.52,15.85,109,28.88,16.94,6.22,32.69,14.84,49.26,21.42C936.52,1155.21,948.52,1162.16,960,1169.88Zm0-135.7v-315c-16.78-.66-32.53-6.22-48.63-11.11-18.42-5.59-36-13.46-52.85-21.8-19.92-9.84-40.06-19.09-60.39-27.92a291.24,291.24,0,0,0-41.47-14.81c-7.55-2-11.44,7.35-17.23,11.07a196.19,196.19,0,0,1-26.85,14.44c-22.19,9.84-46.17,10.7-69.64,13.3-17.29,1.91-33.79,6.36-50.17,11.33-10.72,3.26-20.84,8.63-31,13.48a363.94,363.94,0,0,0-63.51,39c-8.29,6.3-15.91,13.53-23.49,20.71-2.82,2.68-6,2.9-8.59,1.64-1.87-.93-.54-4,0-6.4a158.13,158.13,0,0,1,31.4-67.82c11.65-14.48,26-26.71,45.83-32,13.57-3.65,27.33-6.35,41-8.62,9.81-1.64,19.79-3.35,29.7-4.42,10.26-1.11,19.42-5.52,29.12-8.37-10,1.72-20.3-.63-30.44,1.3-11.55,2.19-23.54,2-35.34,2.87-17.88,1.29-35.91,4.55-53.58,3.19-13.27-1-27.86.36-39.95-7.63-2.37-1.57-4.87-5.84-4.38-8.27,1.11-5.51,6.62-7.91,11.46-9.25,13.45-3.72,27-8.43,40.73-9.31,6.93-.45,14-2.2,21.24-1.36-6.56-2.89-9.89-7.4-7.9-14.38,1.81-6.37,7.12-7.69,13-9.38,9.41-2.7,17.91-1.52,26.53,2.16.63.27,2.9.67,2-1.45-2.43-5.88-5.16-12,1.85-16.36s14.87-5.24,22.86-1.64c4.26,1.91,8.75,3.28,13.22,4.92.67-6.43-1.41-15.16,5.78-19,10.89-5.8,19.58,1.82,28.16,7.09-3.73-12.47,2.38-22.86,13.45-21.17,5.55.85,10.69,4.84,14,9.75,3,4.4,4.88,2.5,6.68-.49,8.93-14.77,22.63-21.87,33.69-6.25,1.87-8.4,7.9-12,15.56-13.19,4.1-.64,7.05,1.51,8,6.73,7-17.74,15.17-34.37,29.43-45.56,11.53-9,26-10.72,40.35-3.08,2.39,1.27,7.16-2.56,11-3.22,7-1.2,14.85-5.52,19.7,4,.57,1.12,1.11,2.88.64,3.84-4.24,8.65-.82,14.4,5.23,21.2C870,532.54,867,542.42,847.1,551c-2.18,1-4.43,1.74-6.89,2.7,5,5.28,12.51,8.49,13.52,17.38.34,3,5.13.47,8.07,1.39,8.71,2.71,13.84,6.63,13.4,16.53-.3,6.66,6.21,5.47,9.33,5.09,12.07-1.47,20.77,4.56,22.61,16.48.91,5.95,7.15,3.84,10.68,5.84,8.69,5,13,10.85,10.52,21.09-.57,2.33,2.59,2.64,4.48,3.49,9.18,4.11,19.44,7.29,18.28,20.67-.65,7.4-7.47,7.41-11.93,10.31A127.53,127.53,0,0,1,960,684.14V372c-12.41-2.05-24.43-6.14-36.64-9.85-18.42-5.59-36-13.47-52.85-21.81q-29.88-14.74-60.39-27.92a288.76,288.76,0,0,0-41.47-14.8c-7.54-2-11.42,7.37-17.23,11.08a205.37,205.37,0,0,1-27.32,14.51c-22,9.75-45.56,10.49-68.74,13.05-17.42,1.91-34.09,6.41-50.61,11.49-10.71,3.29-20.83,8.64-31,13.49a364.23,364.23,0,0,0-63.51,39c-8.3,6.3-15.91,13.53-23.49,20.71-2.83,2.68-6,2.89-8.6,1.62-1.85-.92-.51-4,0-6.41a157.92,157.92,0,0,1,31.4-67.81c11.65-14.47,26-26.72,45.84-32,13.57-3.63,27.34-6.05,41-8.68,8.71-1.69,17.83-2.51,26.78-3.74,13-1.79,24.91-6.86,37.51-10.38-11.63,3.36-23.52.39-35.21,2.3-1.72.28-3.37,1.12-5.09,1.23-22,1.4-44,2.05-65.91,4.27-17.15,1.74-33.89-.87-50.68-2.66-5.53-.59-12.75-5.06-12.3-11.86.4-6,7.47-7.58,12.85-10,12.44-5.67,25.89-7.27,38.94-8.8,6.92-.81,14.24-1.94,25.82-.54C558.28,263.54,555,259,557,252c1.82-6.36,7.14-7.67,13-9.36,9.41-2.7,17.9-1.5,26.53,2.16.64.27,2.87.66,2-1.47-2.37-5.7-5.11-11.84,1.42-16.13a23.12,23.12,0,0,1,23.29-1.86c4.25,1.93,8.75,3.29,13.22,4.93.67-6.43-1.41-15.16,5.78-19,10.89-5.8,19.58,1.82,28.16,7.09-3.73-12.47,2.38-22.86,13.45-21.17,5.55.85,10.69,4.84,14,9.75,3,4.4,4.88,2.49,6.68-.49,8.91-14.75,22.62-21.88,33.69-6.25,1.87-8.4,7.9-12,15.57-13.19,4.1-.64,7,1.52,8,6.73,7-17.74,15.17-34.37,29.44-45.56,11.52-9,26-10.72,40.34-3.08,2.39,1.27,7.17-2.56,11-3.22,7-1.2,14.86-5.52,19.7,4,.58,1.13,1.11,2.88.64,3.84-4.27,8.66-.81,14.41,5.24,21.2C882,186.54,879,196.42,859.1,205c-2.18,1-4.43,1.74-6.89,2.7,5,5.28,12.51,8.5,13.52,17.38.34,3,5.14.47,8.08,1.39,8.7,2.72,13.83,6.63,13.39,16.53-.3,6.65,6.21,5.47,9.34,5.09,12.06-1.48,20.75,4.55,22.6,16.49.92,5.94,7.16,3.82,10.68,5.84,8.68,5,13,10.84,10.51,21.08-.56,2.32,2.6,2.64,4.5,3.49,5.62,2.5,11.62,4.69,15.17,9.06V64H64V621.76a11.27,11.27,0,0,0,.47-1.38c6.57-25.74,16.69-50,34.61-69.87,11.79-13.09,25.28-23.47,43.68-28.34,17.93-4.75,35.93-6.65,54-9.59,16.88-2.76,33.84-6.29,49.9-13.4-11.56,3.6-23.46.77-35.13,2.56-1.56.24-3,1.2-4.58,1.27-15.22.76-30.74-.17-45.6,2.54a180.85,180.85,0,0,1-39.51,2.5c-13.31-.54-28.17.59-40.34-7.67-2.25-1.53-4.5-5.56-4.09-8,.94-5.46,6.43-7.91,11-9.2,13.74-3.91,27.67-8.77,41.69-9.39,6.84-.3,13.67-3,20.9-1.21-7-3.07-10.11-8-7.88-15,2-6.12,7.43-7.37,13.34-9,9.31-2.62,17.58-1.33,26,2.2.65.26,2.52.86,2.21-1.41-2.47-17.8,6.88-25,24-18.12,4.5,1.82,9.9,1.51,13.65,6.16,1-7.58-1.19-15.95,6.3-20.32,7.05-4.12,17.65-.76,27.85,7.61-3.4-13.37,2.26-23.1,13.33-21.53,5.59.8,10.7,4.78,14,9.72s5.37,2.3,7-.79c8.09-15.72,20.81-18.11,33.37-6,2.1-8.39,8.15-12.13,16.09-13.14,4-.51,6.74,1.64,7.72,9.54,3.71-18.06,13.61-29,21.46-40.89,9.76-14.83,34.17-19.16,48.16-10.57,2.06,1.26,6.87-1.26,10.09-2.73,6.23-2.84,13.23-3.87,18.38-.2,6.16,4.41,1.9,11.84.74,17.55-1.47,7.21,5.42,7.22,7.93,10.67,12.43,17.16,10.26,26.1-10,34.67-2.05.87-4.11,1.72-6.47,2.71,5.24,5.16,11.83,9.06,14.18,17.48.65,2.32,10.66.83,15.7,5.36,3.31,3,5.46,5.49,4.93,9.8-1.08,8.75,5.48,8.06,10.42,7.72,9.56-.67,19.23,2.34,20.48,11.06,1.39,9.64,8,8.8,13.07,11.75,7.8,4.55,11.67,11,9.6,20.16-.42,1.85.42,2.32,4.12,3.9,9.25,4,19.44,7.21,18.37,20.58-.6,7.47-7.4,7.49-11.6,10.18,16.17,9.54,33.85,17.39,41,36.23,2.79,7.36-5.38,10.24-10.88,10.84-20.34,2.22-39-4.87-58.16-10.66-18.59-5.63-36.26-13.62-53.3-22q-29.67-14.6-59.94-27.71c-13.61-5.9-27.63-11.25-42-14.9-7.07-1.8-11.15,7.29-16.79,11a180.88,180.88,0,0,1-26.8,14.51c-22.18,9.84-46.16,10.72-69.64,13.3-17.3,1.89-33.81,6.34-50.18,11.39-10.7,3.29-20.82,8.6-31,13.42a367.18,367.18,0,0,0-63.54,39A198.29,198.29,0,0,0,73.64,625.7c-3.13,3.22-6.38,4.52-9.39,2.89l-.25-.17V1024c11.07-8.2,22.41-16.08,34.14-23.24,16.58-10.11,34.12-18.64,51.23-27.88,31-16.74,64.22-28,97.88-37.15,19.82-5.36,40-10.42,60.72-13.17,30.61-4.07,61-9.91,91.9-11.73,19.71-1.16,39.39-3,59.12-3.81,15.07-.62,30.2-.58,45.27,0,19.79.76,39.61,2.44,59.34,3.22,22.19.87,44,4.07,65.8,6.9,20.62,2.68,41.08,6.55,61.44,11.17,16.62,3.78,33.25,7.52,49.41,12.74,31.6,10.22,63.36,19.84,94,33,27.94,12,56.19,23.33,83.1,37.3C931.67,1018.76,946.13,1026,960,1034.18Zm0-324.46V695.88c-14-11.65-30.77-18.4-47.71-24.74-15.77-5.91-32.52-5.6-49.07-6-2,0-6.12-1.42-5.79,1.24.47,3.71,1.37,8.52,5.57,10.43,13.09,5.94,26.28,11.67,39.5,17.34C920.94,702.1,939.37,710.18,960,709.72Zm0-346.66V341.35c-11.14-6.77-23.4-11.6-35.73-16.22-15.77-5.91-32.53-5.56-49.07-6-2-.05-6.12-1.44-5.77,1.26.49,3.7,1.36,8.5,5.59,10.42,13.1,5.93,26.28,11.67,39.49,17.34C929.3,354.54,944.08,361,960,363.06Zm0-32.55v-8.93c-2.54,1.94-6.12,2.64-8.83,4.4C954.18,327.41,957.12,328.91,960,330.51Zm-7.11-13.17c3.45-3.29-.66-6.59-3.49-8.59-17.46-12.33-37.59-10.1-57.28-10.19-11.84-.05-22.42,4.31-33.14,9.21,1.78,2.85,4,3.43,6.69,3.18,7.13-.69,14.27-1.88,21.4-1.84,18.2.12,35.9,2.86,52.37,11.43C944.37,323.1,949.66,320.42,952.89,317.34ZM942.4,662.09c-1.45-4.54-3.78-7.2-7.22-9-12.32-6.58-25.34-8.47-39.34-8.4-15.65.07-31-.35-45,7.88-1,.62-4.26-.67-3.07,2.06.55,1.26,3.3,2.29,5,2.21,7.48-.36,14.94-1.73,22.4-1.69,18.21.09,35.81,3,52.42,11.34C933,669.19,938.22,665.85,942.4,662.09Zm-7.89-371.61c-.19-1.35,0-2.87-.63-4-4.54-9.12-12.66-9.77-21.7-10.06a89.1,89.1,0,0,0-41,8.51c-7.82,3.58-15.43,7.18-21.65,13.57,2.76,2.26,2.75,2.22,10.82-1.41,22.54-10.13,46-10.27,69.78-6.21C931.53,291.08,933.05,290.62,934.51,290.48ZM922.77,636.16a19.91,19.91,0,0,0-1.11-4.11c-4.58-8.87-12.6-9.34-21.43-9.66a88,88,0,0,0-41,8.49c-7.81,3.61-15.5,7.1-21.57,13.52,4.2,8.35,7,.32,10.63-1.31,22.53-10.15,46-10.31,69.78-6.27C919.56,637.07,921.2,636.4,922.77,636.16Zm-12-370.78c-.55-.94-.86-2.25-1.68-2.76-9.51-6-19.83-7.09-30.41-3.92C863,263.42,851,274.24,838.78,284.49c-1.32,1.1-5.4,1.64-2.77,4.16,1.87,1.79,4.31,6.1,8.55,2.32,18-16.05,39.53-23.42,63.86-25.1Zm-14.13,346.4c4.1-3.8-1.49-6-3.13-6.4-5.73-1.43-11.75-1.69-19.63-2.63-2.14.65-6,1.77-9.82,3-14.94,4.77-25.61,15.94-37.83,24.86-4.39,3.21-2.86,4.42.3,6.22,6.26,3.56,8.46-2.58,12.29-5.15,14.92-10,30.69-17.77,49.17-18.35C891,613.23,894.85,613.46,896.67,611.78ZM880.85,246.93c-3.23-3.41-3.27-9.54-9.08-10.75-4.94,2.79-10.39-.49-15.73,2.34-15.68,8.34-26.84,21.23-37.59,34.71-.74.92-3.46,1.92-1.29,3.31,4.3,2.75,9,4.88,13.51,7.27-.55-7.32,7.42-7.4,10.31-12.12,6.9-11.32,18.75-16.13,30.48-20.81C874.61,249.62,877.72,248.25,880.85,246.93ZM869.93,594.27c-3-4.38-4.73-9.85-7.64-10.57-5.46-1.34-12.31-1.56-17.31.64-16.84,7.41-28,21.72-39.27,35.57-.73.9-2.18,1.41-.21,3,8.92,7.14,16,5.5,22-3.85,8.5-13.09,22.25-18.53,35.93-23.92C865.15,594.45,867.17,594.61,869.93,594.27ZM853.44,197.89c9.46-4.63,21.68-9,7.77-22.32-1.37-1.31-2.2-5.11-4.08-3.23C852,177.53,848,184,843,189.26,837.53,195,831.57,200,823.26,201.6c-4.45.87-3.41,6.66-6,9.5-.17.18.83,1.45,1.31,2.24C830.64,208,842.24,203.37,853.44,197.89Zm3.25-48a4.27,4.27,0,0,0-.48-3.24c-.3-.48-1.75-.5-2.61-.36-19.34,3.19-34,15.22-51.32,26.65,2.81-.38,3.86-.21,4.46-.65,5.18-3.88,11.65-5.62,16.9-2.93,5.09,2.6,3.12,8.62,1.6,13.66-.7,2.3.26,5.1.47,7.68a50.66,50.66,0,0,0,4.95-2.46C844.94,179.32,851.33,165,856.69,149.93Zm-6.83,79.66c2.15-1.47,7.71-.9,6.3-3.82-1.51-3.13-4.48-8-9-6.9-8.25.12-13.88,4.23-17.82,9-9.47,11.44-17.44,24-22.53,38.19-.61,1.7-3.2,2.86-.06,4.43,2.91,1.46,5.06-.18,6-2.43C820.38,250.61,834.87,239.85,849.86,229.59Zm-9,314.82c5.79-2.73,11-6.6,16.84-10.14-4-6-7.49-11.37-11.09-16.66a2.94,2.94,0,0,0-1.68.74c-4.66,5.7-8.86,11.84-14,17.09-5.47,5.6-11.41,10.65-19.78,12.29-2.29.45-3.78,5.24-5.47,8.14-.41.7-.14,1.8-.18,2.72a45.75,45.75,0,0,0,5.34-1.47C820.86,553,831,549,840.83,544.41ZM830.76,310c8.69,3.19,17,7.36,25.5,11.09-30.5-28.68-62-55.14-108.12-49.51,4.47,3.66,8.63,7.29,13,10.58,3.59,2.68,4.78,8,10.06,8.8C792.09,294.11,811.2,302.79,830.76,310Zm14,185.66c.76-2.3.22-3.91-3.39-3.31-19.26,3.22-33.71,15.39-50.94,26.47,2.56,0,3.42.27,3.8,0,5.35-4.34,12.14-6.23,17.68-3.23,5.24,2.83,2.38,9.2,1.32,14.29-.46,2.17.48,4.64.79,7a18.22,18.22,0,0,0,3-1.2C832.06,526.37,839.4,511.67,844.73,495.65Zm0,76.33c-2.09-2.23-3.82-5.6-6.38-6.44a14.52,14.52,0,0,0-13.17,2.1c-15.46,10.79-22.58,27.3-30.1,43.52-.72,1.57-4.62,4,.07,5.49,3.31,1.06,4.38-1.22,5.92-4,6.73-12.09,15.35-22.64,27.26-30.14C833.88,579.07,839.33,575.52,844.78,572ZM819,656.22c8.6,3.3,16.95,7.21,25.42,10.84-30.57-28.7-62.11-55.13-108.27-49.48,4.46,3.59,8.65,7.11,13,10.43,3.56,2.72,4.8,8.09,10,8.9C780,640.21,799.35,648.71,819,656.22Zm-2.24-467c1.21-3.8,1.11-8,1.63-12.17a11.93,11.93,0,0,0-2.42.13c-17,9-36.91,13.47-48,31.44-1.74,2.82-6.75,5.71-4.24,8.38,2,2.16,4.91-3.19,7.78-4.63,6.54-3.26,12.44-9.55,20.52-6.6,7.74,2.82,4.46,10.25,5.13,16a9.67,9.67,0,0,0,.78,2.14,24,24,0,0,0,2.52-2.19C808.61,212.22,813,200.83,816.71,189.18ZM825.16,150c-26.72-4.79-46.68,11.91-55.34,43.47C789.71,182.44,802.18,160.83,825.16,150Zm-2.29,69.36c-3.46-.25-8.4-1.73-9.24-.47-5.8,8.69-17.18,12.44-20.22,23.56-1.34,4.91-4,9.5-6.29,14.09-1.06,2.1-2.35,5.28-4.79,4.84a3.84,3.84,0,0,1-1.51-.67c-2.51-1.71-.13-5.18,1.12-7.48,6.3-11.66,8-24.25,8-37.22,0-3.67-2.11-3.35-4.72-2-12.61,6.6-24.29,14.59-36,22.71-4.93,3.42-8.76,7.63-13.1,11.46-9.69,8.53,5.08,7.07,5.31,12,0,1,1.56,5.95,6.25,4.24a61,61,0,0,1,34.45-2.31,76.08,76.08,0,0,1,12.94,4.12c1.43.6,3.32,1.62,3.48-.41C800.06,246.93,814.17,234.8,822.87,219.31Zm-12.61,278.2c.53-.24.89-.9,1.33-1.36a6.44,6.44,0,0,0-2-1c-8.36-.75-17.08-.37-24.25,3.5-16.4,8.86-19.76,27.14-28,41.85,4.16-4.62,9.42-7.5,14.13-11.11C784.71,519.17,794.5,504.72,810.26,497.51ZM808,570.22a54.2,54.2,0,0,0,2.54-4.91c-3.06-.24-8-1.77-8.86-.51-6,8.74-17.38,12.71-20.45,24-1.34,4.91-4,9.47-6.29,14.09-1,2-2.4,4.88-4.64,4.48a3.62,3.62,0,0,1-1.42-.65c-2.56-1.83-.18-5.23,1.06-7.5,6.34-11.64,8.1-24.24,8-37.2,0-4.08-2.21-3.12-5-1.75-12.83,6.26-24.54,14.23-35.85,22.82-4.36,3.31-8.16,7.36-12.55,10.63-10,7.49,2.07,7.9,3.91,11.14,1.22,2.14,2.57,7.43,6.75,5.57,7.06-3.14,14.33-3.36,21.74-3.53A67.77,67.77,0,0,1,770.16,608a49.9,49.9,0,0,1,13.32,4.42c.78.39,3-.27,3.07-.56C787.83,594.9,799.4,583.33,808,570.22Zm-1-48.42c0,.48-2.15.88-3.45,1.56-17.19,9-37.17,13.76-48.25,32-1.56,2.56-6,5.3-3.63,7.67,2.06,2.08,4.57-2.66,7-4.09,6.55-3.76,12.82-9.76,20.89-7.38s5,10.26,5.56,16.15a8.91,8.91,0,0,0,.78,2.14,9.51,9.51,0,0,0,1.93-1.39C798.35,555.85,803.76,541,806.93,521.8ZM756.46,294.86c3.49-3,1.75-4.43-.71-5.4-5.82-2.29-11.85-2.53-17.3-7.51-6.68-6.11-16-8.78-25.1-2.17a100,100,0,0,1-13.53,8c-28.5,14.58-58,25.81-93.82,29.77,7.74,1.42,11.5,1.94,15.17,2.83,8.72,2.1,17.94,7.43,26,6,20.84-3.71,42.23-2.29,62.82-9C726.7,311.87,742.85,306.44,756.46,294.86Zm3.62-92.25c-2.77-2.52-.76-10.14-9.2-6-7.32,3.62-11.64,8.72-11.92,17.25-.22,6.85,1.86,14.14-3.11,20.38-.69.86-.14,2.69-.17,4.07a10.63,10.63,0,0,0,1.66-.91C748.51,228.64,756.92,218.06,760.08,202.61ZM742.55,564.18c2.16-5.69,7.62-11.07,4.48-17.92-1-2.09-1.82-6-5.69-5a18.5,18.5,0,0,0-13.89,14.35c-1.72,9.36,1,19.45-4.15,28.66C730.85,578.4,739.15,573.16,742.55,564.18ZM744.21,641c3.61-3.09,2.15-5.26-.62-5.55-9.67-1-16.13-7.75-24.09-11.74-3.39-1.7-9-3.45-13.79-.56-6.37,3.87-12.63,8-19.31,11.29-11.86,5.82-23.81,11.54-36.07,16.45-16.8,6.73-34.83,9-54.57,13,5.85.92,9.69,1,13.21,2.17,8.72,2.76,17.55,8.21,26.41,6.42,20.94-4.24,42.57-2.5,63.26-9.31C715,657.85,730.88,652.46,744.21,641Zm-8.55-373.19c-.37-3.57-4-3.81-6-4.47a39.48,39.48,0,0,0-14.23-2.18c-19.7.95-39,4.8-57.11,12.48-8.81,3.74-18.86,5.51-27.15,13.17,3.24-.39,5.4-1,7.52-.84,12,.71,24.08-.45,36.24.36,10.39.69,21.62-7.81,32.09-13,7.1-3.54,12.75-10.83,22.18-6.42C731.09,267.79,733.49,267.56,735.66,267.85ZM732.94,222c0-2.67.78-5.66-.17-7.93-2.12-5.09-.23-14.35-9.86-12.83-7.81,1.24-12.81,7.39-15.59,14.42-5,12.7,4.28,23.39,5.83,35.22,4.66-1,11,4.68,13.35.55C731.51,242.69,733,232.36,732.94,222Zm-9.29,391.61c-.64-.85-1.14-2.26-1.94-2.46-6-1.51-12.1-4.28-18-3.82a265.53,265.53,0,0,0-36.92,5.84c-16.51,3.71-31.77,10.92-47.09,18.07,8.68,0,16.82,0,25,0,13.31.09,26.24,1.3,39.15-5.61,11.61-6.23,22-19.68,38.3-11.47C722.47,614.37,723.14,613.85,723.65,613.65Zm-2.71-45.15c0-2.83.82-6-.18-8.43-2.09-5.09-.28-14.48-9.88-12.75-8,1.45-13,7.71-15.79,15.36-4.53,12.4,4.2,22.49,6.49,33.68.31,1.54,7.2,1.82,11.08,2.49a2.63,2.63,0,0,0,2.19-1.2A78.48,78.48,0,0,0,720.94,568.5ZM706.12,252.67a4,4,0,0,0,.34-2.4c-3.81-11.4-7.33-22.91-11.72-34.09-2.5-6.36-7.58-10.66-15.12-9-5.67,1.23-1,6.18-3.25,9.3,1.42,15.9,15.49,23.94,23.1,35.92C700.16,253.48,703.83,252.74,706.12,252.67ZM694.55,598.49a5.89,5.89,0,0,0-.06-2.2c-3.83-11.39-7.36-22.9-11.74-34.08-2.5-6.37-7.56-10.66-15.11-9.06-5.72,1.22-1,6.17-3.31,9.31,1.64,16,15.56,24.23,23.52,36.15C688.53,599.64,692.25,598.66,694.55,598.49Zm-5.48-344c1.42-.45,2.4-1.58.77-3.41-9.71-10.9-17.78-23.57-31.15-30.59-3.77-2-8.43-6.2-12.72-2-3.78,3.66-4.71,7.84-1.34,13.85C649.08,240.2,657,243.36,663,249c3.35,3.19,2.45,11,11.23,9.65C678.24,257.56,683.71,256.16,689.07,254.46ZM677.2,600.39c1.2-.38,2.3-1.53.89-3.1-10-11.12-18.22-24.09-31.94-31.19-3.44-1.78-8-5.71-12-1.94s-5,8.1-1.49,14.24c4.49,7.86,12.43,11.06,18.39,16.73,3.33,3.17,2.48,10.94,11,9.62C666.38,603.53,671.83,602.08,677.2,600.39ZM660.86,263c1.6-1.31,3.88-1.78,6.19-2.78-15.14-11.85-30.32-23-48.55-28.67-4.19-1.3-9.77-2.46-13.32,2.29s1.75,7,3.44,10.33c3,6,8.45,9.6,14.23,9.77C636.27,254.33,644.34,276.49,660.86,263ZM645.08,611c2.74-2.18,6.38-3.21,9.88-4.9-15.07-11.48-29.94-22.85-48.12-28.32-4.5-1.36-10-2.65-13.68,2.16-3.55,4.58,1.46,6.76,3.19,9.94,5.92,10.86,18.12,10.24,27.28,15.15C630.29,608.57,635,619,645.08,611Zm-52-343.82c16.43-1.68,30.23,18.47,47.42,4.37-9.13-3.93-18.42-8.26-27.94-11.95-13.61-5.28-27.25-11-42.42-7.43-4.22,1-6.57,1.65-2.48,7C574.67,268.35,584.36,268.05,593.13,267.15Zm25.32,17.75c-.37-.66-.59-1.69-1.15-1.92-10.7-4.44-21.23-10-33.21-9.51-17.68.65-35.36,1.78-52.67,5.69-9.59,2.16-19.91,2.25-29.58,9.33,10,1.63,18.42,3.64,27,4.31,28.9,2.25,57.2-4.93,85.91-5.95C616,286.81,617.22,285.58,618.45,284.9ZM610,335.2c3.73-1.67,7.94-2.26,11.92-3.36-3.77-1.25-7.63-2.29-11.29-3.8-21.16-8.73-42-6.47-62.37,2.3C537,335.19,528.51,344.18,519,353.1c5.31-1.09,8.5,3,12.39,4.09,5.87,1.59,6.71,12.7,12.81,8.81C564.85,352.83,587.89,345.1,610,335.2Zm-28.82,278c16.43-1.67,30.23,18.49,47.39,4.36-9.12-3.93-18.41-8.25-27.94-12-13.6-5.27-27.24-11-42.41-7.42-4.23,1-6.55,1.66-2.46,7.05C562.68,614.37,572.38,614.05,581.14,613.15Zm25.55,17.45c-.42-.54-.73-1.35-1.28-1.58-10.73-4.35-21.21-10-33.2-9.56-17.85.64-35.71,1.8-53.16,5.74-9.48,2.13-19.83,2.07-29,9.33,9.65,1.59,18.09,3.61,26.65,4.28,29,2.26,57.52-5,86.41-6C604.34,632.79,605.51,631.38,606.69,630.6Zm-8.89,50.69c3.75-1.68,8-2.2,12-3.26-2.9-4-7.75-2.43-11.56-4-20.89-8.73-41.67-6.46-61.9,2.24-11.27,4.85-19.84,13.75-28.88,22.46,4.72-.32,8.15,3.41,12.16,4.66,5.62,1.75,6.6,12.44,12.38,8.73C552.67,698.87,575.72,691.18,597.8,681.29ZM569,568.66c-1.28-2.15-2.06-4.24-3.47-5.75-15.15-16.18-35.1-24.24-55.2-31.77-15.77-5.91-32.52-5.6-49.07-6-2,0-6.12-1.42-5.79,1.24.46,3.71,1.37,8.52,5.57,10.43,13.09,5.94,26.28,11.67,39.49,17.34C522.14,563.48,543.76,573,569,568.66Zm-29.44-46.44c2.14-3.51-2.24-7.11-4.88-8.49a75.78,75.78,0,0,0-38.64-9c-13.43.49-26.91-1.15-39.73,4.3-3.73,1.58-7.36,3.39-11,5.1,2.67,4.53,7.2,3,10.79,2.66,15.24-1.56,30.46-2.77,45.45,1.28,9.52,2.58,18.81,6,29.31,9.47C533.07,526.25,537.75,525.12,539.52,522.22Zm-4.77-149.81c-1.51-1.39-2.94-2.88-4.54-4.15-7.84-6.22-15.77-12.93-22.78.94-5.53,10.95-11,21.93-17.61,35.14,7.77-6.07,13.58-10.73,19.54-15.21q9.67-7.26,19.59-14.2C530.65,373.75,532.81,373.23,534.75,372.41ZM519.51,720.27c3.15-.88,4.18-2.32.54-4.61-8.08-5.1-15.92-16.45-24.35-.67-5.84,10.93-11.24,22.09-18.06,35.57,8-6.31,13.84-11,19.83-15.56C504.53,729.68,510.53,722.8,519.51,720.27Zm1.08-223.84c-.24-1.37-.16-2.88-.76-4.07-4.54-9.1-12.66-9.72-21.68-10a88.71,88.71,0,0,0-40.9,8.5c-7.77,3.62-15.5,7-21.58,13.63,2.5,2.1,2.55,2.22,10.93-1.53,22.53-10.08,45.89-10.13,69.64-6.12C517.62,497.08,519.13,496.58,520.59,496.43ZM496.54,471c.07-1.85-2.57-5.39-4.09-5.44-9.86-.38-19.38-4.68-29.72-.48-14.58,5.93-26.19,15.78-38.06,25.48a36.09,36.09,0,0,0-3.47,3.72c2.4,1.5,4.9,4.32,7.15,4.13,2.41-.21,4.64-3.18,6.84-5.07,14-12,31-16.85,48.72-19.55,2.78-.71,5.71-1.07,8.26-2.27C493.84,470.72,496.44,474,496.54,471Zm-32-16.07c.88-.22,1.72-.62,3.11-1.13-2.75-4-4.53-9.45-7.44-10.14-5.46-1.3-12.34-1.49-17.28.78-15.16,7-26,19.36-36.55,32-3.5,4.23-4.22,6.36,1.52,8.49,3.11,1.15,5.9,3.14,8.83,4.76-.81-7,6.66-6.83,9.41-10.95C435.24,465.14,449.16,458.75,464.53,454.92ZM438.7,404.48c5.89-2.78,11.22-6.74,17.05-10.33-3-4.34-5.33-7.91-7.92-11.25a43.65,43.65,0,0,0-4.9-4.7c-4.63,5.72-8.9,11.8-14,17.09-5.44,5.65-11.32,10.91-19.72,12.24-4.19.67-2.91,5.91-5.46,8.26-.51.48-.69,2.32-.32,2.6,2.06,1.56,3.53-.39,5.27-1.14C418.7,413,428.89,409.12,438.7,404.48Zm4-48.83c.76-2.3.23-3.91-3.39-3.31-19.25,3.22-33.71,15.39-51.51,26.83,3.27-.43,4.23-.27,4.76-.68,5.28-4.09,11.91-5.88,17.28-3,4.94,2.67,2.72,8.8,1.36,13.8-.61,2.26.45,5,.75,7.48a18.71,18.71,0,0,0,3-1.2C430.06,386.38,437.4,371.67,442.73,355.65Zm.11,76.42c-2.08-2.24-3.77-5.59-6.32-6.47a14.38,14.38,0,0,0-13.18,2c-15.58,10.69-22.6,27.28-30.16,43.48-.69,1.47-4.75,3.93-.11,5.58,3.27,1.16,4.49-1,6-3.81,6.66-12.14,15.31-22.65,27.18-30.17C431.78,439.14,437.27,435.62,442.84,432.07Zm-26,84c8.63,3.23,16.95,7.28,25.41,11-30.52-28.66-62-55.11-108.06-49.47,4.52,3.73,8.64,7.41,13.06,10.68,3.6,2.66,4.78,7.91,10.11,8.73C378.17,500.19,397.31,508.77,416.83,516.07Zm-8.64-158.53c.56-.25.82-1.16,1.21-1.76a7.21,7.21,0,0,0-1.74-.68c-8.38-.78-17.09-.36-24.27,3.47-16.46,8.81-19.78,27.15-28.07,41.94,4-4.75,9.37-7.48,14.07-11.1C382.64,379.19,392.41,364.73,408.19,357.54Zm.91,67.73c-3.59-.17-8.6-1.62-9.53-.27-5.81,8.47-16.95,12.17-20,23.1-1.41,5.06-4.17,9.77-6.54,14.53-1,2-2.32,5.1-4.61,4.72a3.41,3.41,0,0,1-1.31-.55c-3-2-.3-5.29,1-7.72,6.08-11.72,8.08-24.29,7.83-37.29-.07-3.75-2.27-3-4.79-1.7-12.48,6.53-24.05,14.38-35.57,22.49-5,3.54-9.18,7.66-13.48,11.72-10,9.41,6.64,6.95,6.13,12.67-.09,1,1.47,5,5.23,3.52,11.4-4.57,22.93-4.09,34.88-2.33l1,.15c5.47.84,14.5,10.79,17.37-5.16C389.29,448.64,401.15,438.05,409.1,425.27Zm-68.69-.8c2.09-5.91,7.61-11.35,4.55-18.35-.87-2-1.83-5.69-5.28-4.91a18.43,18.43,0,0,0-14.19,14.07c-1.87,9.45,1,19.69-4.07,29C328.61,438.18,337.2,433.51,340.41,424.47Zm1.68,76.64c4-3.44,2-4.59-.82-5.9-5-2.31-10.65-1.36-15.5-6-8.46-8-18.5-10.11-28.83-1.77-3.12,2.52-7.05,4.18-10.7,6-28.6,14.74-58.24,26-94.12,30,7.63,1.43,11.4,2,15.08,2.85,8.72,2.1,17.93,7.39,26,6,21-3.64,42.59-2.26,63.29-9.08C312.86,517.86,328.73,512.53,342.09,501.11Zm-20.46-27.68c-.87-.79-1.62-2.06-2.62-2.3-1.47-.36-2.94-.78-4.42-1.21-4.69-1.36-9.42-2.81-14.06-2.61a160.15,160.15,0,0,0-56.13,12.32c-8.83,3.78-18.88,5.55-27.26,13.24,3.53-.41,5.77-1,8-.87,11.89.75,23.55-1.84,35.87.64,7.24,1.45,16.16-6.21,24.5-9.3,9.52-3.51,17-14.33,28.46-11.2A21,21,0,0,1,318.4,474C319.14,474.41,320.54,473.65,321.63,473.43Zm-2.69-45.55a17.53,17.53,0,0,0,0-3c-1.19-7.18,1.6-17.92-10.17-17.38-7.69.36-12.79,7.45-15.59,14.81-4.76,12.5,4.12,22.81,6.45,34.16.31,1.51,7.27,1.74,11.18,2.36a2.62,2.62,0,0,0,2.09-1.31A77.21,77.21,0,0,0,318.94,427.88ZM292.51,458.5a5.28,5.28,0,0,0,0-2.18c-3.83-11.39-7.38-22.89-11.75-34.08-2.49-6.38-7.51-10.65-15.07-9.09-5.83,1.19-1,6.18-2.67,8.25.28,6.94,17.37,35.13,22.64,37.21C287.63,459.39,290.21,458.66,292.51,458.5Zm-17.26,1.85c1.23-.39,2.2-1.54.8-3.1-9.89-11-18-23.85-31.53-30.92-3.65-1.9-8.25-5.92-12.37-2.12s-4.76,8.11-1.46,14.25c4.35,8.12,12.63,10.84,18.45,16.72,3.17,3.2,2.46,11,10.95,9.58C264.44,463.51,269.89,462.06,275.25,460.35ZM246.82,469c1.61-1.3,3.9-1.78,6.24-2.79-15.15-11.81-30.3-23-48.52-28.65-4.21-1.31-9.69-2.38-13.36,2.23-2.48,3.11-.42,5.31,1.52,8.08,4.15,5.9,8.76,11.88,16.12,12.1C222.22,460.37,230.34,482.27,246.82,469Zm-59.72,5.05c13.11,1.72,25.07,17.07,39.12,3.35-5.38-2.33-11.24-5-17.22-7.4-14.92-5.91-29.38-13.61-46.12-12.88-4.16.18-9.31.1-11.23,4-.61,1.25,4.31,5.53,7.07,8C167,476.62,177.67,472.82,187.1,474.05Zm17.39,16.81c-.4-.65-.66-1.67-1.23-1.91-10.73-4.37-21.21-10-33.23-9.49-17.67.69-35.35,1.84-52.67,5.69-9.58,2.14-19.86,2.33-29.57,9.36,10,1.63,18.52,3.62,27.11,4.29,28.89,2.26,57.2-4.95,85.91-5.95C202.06,492.81,203.26,491.55,204.49,490.86Zm-8.58,50.37c3.73-1.68,8-2.24,12-3.32-3.88-1.37-7.8-2.62-11.63-4.13-21-8.3-41.74-6.23-62,2.52-11.26,4.88-19.76,13.81-28.81,22.46,4.64-.36,8,3.23,11.89,4.38,5.79,1.72,6.81,12.7,12.78,8.89C150.79,558.84,173.84,551.14,195.91,541.23Zm-75.15,37a22.17,22.17,0,0,0-2.72-2.51c-7.93-5.23-15.82-16.69-24.31-.82-5.84,10.94-11.25,22.1-18.07,35.56,8-6.26,13.81-11,19.77-15.48,7-5.34,13.06-12.23,22-14.73A14.5,14.5,0,0,0,120.76,578.28ZM56,1618.34V61.66l-48-48V1666.34Z"/><path d="M552.75,337c3.91.18,6.39,1.61,6.38,6.17,0,5.28-3.13,6.13-7.82,5.94-4.28,1.16-4.54-1.64-4.47-5.28C546.91,339.66,547.92,336.73,552.75,337Z"/><path d="M540.38,683c4.13,0,6.8,1.46,6.74,6.3-.06,5.32-3.33,6-7.94,5.81-4.5,1.21-4.35-2-4.33-5.4C534.88,685.78,535.79,682.89,540.38,683Z"/><path d="M145.12,548.87c.1,5.13-2.71,6.11-7.06,6.29-4,.16-6.13-.69-5.13-4.63-.22-4.49.62-7.7,5.57-7.58C142.34,543,145,544.26,145.12,548.87Z"/></svg>