<svg id="Card" xmlns="http://www.w3.org/2000/svg" viewBox="0 0 1024 1680"><defs><style>.cls-1{fill:#f2f0ed;}.cls-2{fill:#8c1707;}.cls-3{fill:#16592d;}.cls-4{fill:#d82e21;}</style></defs><rect class="cls-1" x="14.5" y="14.5" width="995" height="1651"/><polygon class="cls-2" points="966 1619.17 966 60.83 1018 8.83 1018 1671.17 966 1619.17"/><polygon class="cls-2" points="60.83 58 8.83 6 1015.17 6 963.17 58 60.83 58"/><polygon class="cls-2" points="8.83 1674 60.83 1622 963.17 1622 1015.17 1674 8.83 1674"/><path class="cls-3" d="M120.46,1618l3.11-3.36c17.44-18.83,33.26-35.71,50.21-51.51,5.32-5,12.61-11.76,22.05-14.06,10.38-2.55,21.06-3.68,31.38-4.78,4.66-.5,9.44-1,14.1-1.63a434.82,434.82,0,0,1,57.54-4c9.34,0,18.67.34,27.74,1,9.47.7,19.08,1.78,28.39,2.83s18.7,2.1,28.09,2.81c7.76.59,15.44,2.75,22.86,4.83l.18,0c2.33.66,4.74,1.33,7.1,1.94.53.14,1.05.32,1.57.5a7.31,7.31,0,0,0,1.87.49c.15,0,.32,0,.62-.53.61-1.09.4-1.65.33-1.83a3.88,3.88,0,0,0-2.43-1.85c-1.37-.48-2.73-1-4.1-1.49-4.83-1.79-9.82-3.63-14.76-4.35-15.74-2.29-31.74-4.25-47.21-6.14l-.14,0q-9.37-1.14-18.76-2.32a280.07,280.07,0,0,0-35.13-2c-10.58,0-22.08.46-36.19,1.45-2.83.19-5.67.36-8.51.53-11.76.69-23.9,1.4-35.85,4.57l-1.12.3-1.61-2.87.84-.81c20.85-20,45.75-25,73.79-29,4.33-.63,8.72-1.12,13-1.6,6-.68,12.28-1.38,18.27-2.47a149,149,0,0,1,27-2.17c8.09,0,16.27.43,24.18.85,5.21.28,10.51.56,15.7.72a250.92,250.92,0,0,1,60.86,9,2.09,2.09,0,0,0,.54,0,5.76,5.76,0,0,0,2.27-.48,1.45,1.45,0,0,0-.1-1,3,3,0,0,0-1.84-1.41c-2.24-.74-4.5-1.58-6.68-2.38-5.23-1.92-10.54-3.88-15.84-4.72-12.22-2-24.75-3.32-36.88-4.64l-12.57-1.38a291,291,0,0,0-32.87-2.28,147.27,147.27,0,0,0-18.66,1.12c-6.64.84-13.38,1.32-19.9,1.78s-13,.92-19.52,1.72l-1.3.17-.93-3.48,1.2-.51,5.09-2.14c3.84-1.59,7.75-3.22,11.55-5,22.79-10.77,47.49-21.18,75.5-31.82l4.89-1.86c21.84-8.31,44.42-16.9,67.25-23.8a3.9,3.9,0,0,0,.41-.58c-1.73.3-3.47.69-5.16,1.07-1.43.31-2.84.63-4.26.9-23.06,4.52-45.51,11.75-64.43,18.23-22.9,7.83-49.42,17.22-74.39,29.7l-12.62,6.28c-16.82,8.33-34.22,17-50.76,26.4-17.46,10-32.11,19.92-44.77,30.4-3.11,2.57-6.31,5.15-9.39,7.65l-.09.07c-12.55,10.14-25.52,20.62-36.23,33.16-4.11,4.81-8.43,9.54-12.62,14.12-6.13,6.71-12.46,13.64-18.14,20.84l-.6.76H62V1464.47l.84-.6a244.25,244.25,0,0,1,20.71-13.52q7.24-4.18,14.48-8.42c22.48-13.15,45.74-26.74,70.47-36.66,18.84-7.56,37.92-14.67,56.72-21.15l8-2.78c16.72-5.82,34-11.83,51.51-15.86,6-1.39,12.14-3,18-4.62l.1,0c13-3.51,26.5-7.14,40.53-8.45,7.14-.67,14.33-1.89,21.28-3.06,10.64-1.8,21.64-3.66,32.84-3.66a89.29,89.29,0,0,1,14,1.06c22.93,3.64,44,12.68,64.44,21.42l4.8,2c15,6.39,29.74,14.36,44,22.07l.1,0,7.55,4.07a761,761,0,0,1,66.33,40.49,553.53,553.53,0,0,1,73.43,59.06c3.16,3,6.42,6.11,9.58,9.07,7.56,7.11,15.37,14.46,22.61,22.16,14.62,15.56,29.15,31.65,43.2,47.21q6.93,7.7,13.89,15.37l.11.12a8.15,8.15,0,0,0,1.25,1.21,1.69,1.69,0,0,0,.24-.19c-.16-.21-.4-.47-.53-.61s-.5-.55-.72-.83q-2.25-2.88-4.52-5.75l-.11-.13c-3.82-4.84-7.75-9.82-11.41-14.89A479.81,479.81,0,0,0,677.49,1492c-25.4-22.79-47.61-40.6-69.87-56.06l-4-2.75c-17.94-12.48-36.48-25.38-55.86-35.81l-1.54-.83c-17.19-9.26-35-18.84-53.27-26.88-13.29-5.82-26.56-10.91-40.6-16.29-7.11-2.72-14.46-5.53-21.89-8.48l-1.15-.46.65-3.4h1.24c5.18,0,10.32.12,15.28.24s9.78.23,14.54.23c6.6,0,12-.22,17.07-.7,2.91-.28,5.86-.42,8.77-.42,29.35,0,54,14.22,77.74,28l4.09,2.36c21.42,12.32,42,26.41,59.67,38.66a836.52,836.52,0,0,1,78.09,61.68c24.11,21.43,44.34,41.38,61.85,61q4.47,5,9,10c12.64,13.92,25.69,28.31,36.48,44.32a12.9,12.9,0,0,0,4.57,3.36c.34-.47.16-1.18-1.4-3.4-.26-.36-.51-.72-.74-1.07a40.46,40.46,0,0,0-2.5-3.31,38.66,38.66,0,0,1-3-4.11c-13.31-21.79-31-40.53-48.19-58.66l-.08-.08c-5.42-5.73-11-11.65-16.41-17.59-14.68-16.18-31.65-30.75-48-44.84l-7.39-6.36c-22.07-19.06-46.92-37.71-76-57-22.43-14.91-50.34-33.45-80.17-46l-1.19-.49.85-3.45,1.28.11c18.8,1.61,35.84,3.62,52.1,6.13,3.34.52,6.8,1,10.15,1.36,10.74,1.33,21.84,2.7,31.49,7.14,18.68,8.59,35.88,20.39,51.91,31.75,15.72,11.14,31.83,23.9,50.7,40.16,18.5,16,36.53,33,51.73,47.67a819.35,819.35,0,0,1,79.86,89,74,74,0,0,1,4.42,6.62c2.72,4.4,5.51,8.91,10,12.18-.6-1.22-1.18-2.33-1.81-3.37A337.34,337.34,0,0,0,830.19,1522c-4.71-4.9-9.08-10.21-13.32-15.34-3.44-4.18-7-8.49-10.7-12.53-25-27.38-53.1-53.13-85.81-78.69-14.33-11.21-29.75-21.55-44.67-31.56-6.86-4.6-14-9.35-20.88-14.16a14.37,14.37,0,0,1-2.1-1.87c-.25-.26-.49-.51-.74-.74l-2.87-2.7,3.87-.73a7.48,7.48,0,0,0,.84-.22,8.11,8.11,0,0,1,2.23-.41,3.88,3.88,0,0,1,1,.13c3.14.85,6.29,1.77,9.33,2.67,3.71,1.09,7.55,2.22,11.38,3.2,5.65,1.46,11.44,2.71,17,3.93,18.55,4,37.72,8.19,54.71,20,27.39,19,49.12,35.32,68.38,51.29,11.92,9.88,24.49,20.76,35.59,33.3,4.68,5.29,9.74,10.42,14.63,15.39,6.86,7,14,14.17,20.17,21.94q5.33,6.64,10.7,13.25c15.34,18.89,31.19,38.42,44.16,59.71.17.28.38.7.61,1.19,1.15,2.37,1.74,3,2,3a1.65,1.65,0,0,0,.61-.43.7.7,0,0,0,.21-.58c0-1.34-1.28-3.68-3.12-5.57a14.71,14.71,0,0,1-2.22-3.3c-.29-.52-.59-1.07-.89-1.54-3.46-5.32-6.84-10.82-10.11-16.13l-.06-.09c-7.42-12.07-15.1-24.55-24-35.65a675.55,675.55,0,0,0-52.15-57.51c-17.6-17.35-36.41-32.8-59.23-50.67-8.52-6.66-17.27-12.71-26.53-19.12-4.12-2.85-8.33-5.76-12.49-8.71l-5.74-4.07,7,.44c.55,0,1.08,0,1.61,0l2,0a11.89,11.89,0,0,1,4.51.66c18.72,7.48,38.74,15.54,58.37,23.79,22,9.24,43.79,18.7,64.22,27.6,21.52,9.36,43.85,21,70.26,36.73l1.74,1,2.24,1.35V1618Z"/><path class="cls-3" d="M958.92,1475.71q-4.84-3.12-9.66-6.28c-15.8-10.31-32.11-21-49.37-29.32-5.11-2.47-10.2-5-15.29-7.5-10.86-5.36-22.07-10.88-33.25-15.93-15.08-6.79-31.07-13.42-47.54-19.69s-33.79-12.75-51.27-17.93c-7.32-2.18-15-3.74-22.39-5.26s-15.31-3.13-22.83-5.37c-30.37-9-61.9-15.31-92.4-21.4-16.84-3.36-33.62-5.59-50.77-7.77-20.26-2.56-38.53-4.78-56.89-5.88-1.71-.11-3.46-.16-5.36-.16-5.31,0-10.76.41-16,.81-4.25.32-8.65.65-13,.77h-.15a12,12,0,0,1-5.21-1.65c-.64-.32-1.29-.65-1.89-.89l-3.14-1.21,3.35-2.83,1.17-1c23.73-20.73,50.86-37.74,82.94-52,4.73-2.1,9.51-4.35,14.14-6.52l.1,0c11.72-5.5,23.84-11.17,36.31-15.23,16.59-5.39,31.61-10.09,47.37-12.9,5.62-1,11.3-2.37,16.8-3.7,11.06-2.66,22.5-5.41,34.21-5.41a66.58,66.58,0,0,1,15,1.64,279.92,279.92,0,0,1,60.11,21.7c18,8.83,35.64,19.25,52.66,29.34l5.78,3.42c19.83,11.73,39.44,26.73,61.73,47.21,10.15,9.32,19.44,19.82,28.42,30,4,4.57,8.21,9.28,12.38,13.8,1.13,1.23,2.29,2.43,3.45,3.62a93.07,93.07,0,0,1,7.89,8.89,11.65,11.65,0,0,1,1,1.78c.1.2.32.64.5.93a1.84,1.84,0,0,0,.39-3.35c-4.26-4.45-8.2-9.27-12-13.94-1.71-2.1-3.41-4.18-5.13-6.22a519.13,519.13,0,0,0-52.26-53.94c-20.16-17.92-43.31-33.84-75.06-51.62A375.41,375.41,0,0,0,725,1232l-6.53-1.91,6.52-1.93c7.86-2.32,15.61-2.37,23.11-2.42a93.66,93.66,0,0,0,16.08-1,117.06,117.06,0,0,1,20.83-1.94c19.08,0,36.64,5.07,53.7,15.48,29.66,18.11,57.79,39.28,86,64.71,8.93,8,16.68,17.3,24.17,26.24,4.08,4.86,8.29,9.89,12.64,14.64l.52.57V1477.7Z"/><path class="cls-3" d="M958.35,1335.19A191,191,0,0,0,943,1315.1c-11.56-12.82-22.16-24.24-34.82-34.07-4.09-3.17-8.18-6.48-12.15-9.67-9.7-7.83-19.7-15.89-30.33-22.65-7.93-5-16-9.78-24.62-14.78-4-2.31-8-4.66-12.1-7.1l-6.28-3.72H830c3.72,0,7.42-.09,10.68-.18s6.49-.16,9.65-.16a112,112,0,0,1,11.56.52c9.6,1,19.41,1.78,28.89,2.54,18.76,1.5,38.08,3.05,57,6.31,2.77.48,5.55.93,8.33,1.39l5.88,1v106Z"/><path class="cls-3" d="M62,1277.8l.69-.6c3.74-3.26,7.27-6.23,10.77-9.08a546.39,546.39,0,0,1,77.69-53.4l7.71-4.35.58-.33c22.49-12.71,45.74-25.85,70.22-35.92,10.78-4.43,21.64-9.19,32.15-13.8,14.54-6.38,29.59-13,44.67-18.81,18-6.92,37.46-14,58.35-19,4.7-1.11,9.4-2.66,13.95-4.16,8.86-2.92,18-5.94,27.67-5.94a43.41,43.41,0,0,1,15.07,2.65c10.46,3.8,21.29,7.18,31.77,10.44,5.58,1.74,11.35,3.53,17,5.39,12.07,3.93,23.15,10.12,33.86,16.1l.19.11c3.05,1.7,6.2,3.46,9.33,5.14,4.88,2.62,10,5,15,7.39,7,3.31,14.19,6.7,20.92,10.74,7.35,4.41,14.33,9.61,21.09,14.64,3.69,2.75,7.51,5.59,11.35,8.28h0a2.79,2.79,0,0,0,.52,0l.58,0c0-.17-.06-.32-.09-.44-3-1.31-5-3.67-6.73-5.76a23.29,23.29,0,0,0-3-3.25,412.34,412.34,0,0,0-57.43-39c-15.93-9.09-33.09-14.87-51.26-21-11.56-3.9-23.52-7.92-35.47-13l-6.37-2.68,6.82-1.13c3.08-.51,5.92-1.1,8.66-1.66,5.64-1.17,10.47-2.17,15.42-2.17h.86c11,.27,22,2.15,31.49,3.89l3.27.59c11.17,2,22.7,4.11,33.59,7.74,22.23,7.42,42.37,18.62,64.51,31.42,21.57,12.46,41.39,27.78,60.55,42.59l.9.7a4.48,4.48,0,0,0,2.56,1,1.72,1.72,0,0,0,1-.26l-.32-.21a8.14,8.14,0,0,1-1.32-1c-2.62-2.49-5.33-5-8-7.36-5.14-4.69-10.47-9.55-15.32-14.76-10.84-11.63-24.56-21.8-43.18-32-16.44-9-34.24-16.19-51.45-23.15l-.13,0c-7.29-2.94-14.82-6-22.13-9.12l-3.84-1.65,3.7-2a27.08,27.08,0,0,1,13.13-3,85.78,85.78,0,0,1,10.42.85,87.53,87.53,0,0,0,9.32.81c47.57.64,89.61,4.72,128.5,12.48,19.44,3.87,39.38,7,58.66,10.09l10.57,1.68a8.08,8.08,0,0,0,1.39.1,12.34,12.34,0,0,0,3.77-.55l-.18,0a7.43,7.43,0,0,1-3.59-1.7,7.2,7.2,0,0,0-2-.3,10.77,10.77,0,0,1-3.51-.66c-21.83-9.3-45.46-13.81-68.32-18.17l-.32-.07a648.52,648.52,0,0,0-81.09-9.91c-17.39-1.08-35.35-2.19-53.19-2.19-11.08,0-21.13.42-30.71,1.29-6,.55-12.08,1-17.94,1.51-15.33,1.24-31.18,2.52-46.63,4.89a22.89,22.89,0,0,0-3,.78,17.26,17.26,0,0,1-4.73,1,4.38,4.38,0,0,1-2.63-.77c-7.21-5.22-14.22-10.94-21-16.47-2.75-2.25-5.44-4.45-8.15-6.62-18-14.43-38.84-27.79-65.54-42a554.87,554.87,0,0,0-54.43-25.74l-.64-.26c-19.34-7.75-39.32-15.76-60.11-20-8.49-1.75-17.06-3.84-25.34-5.86q-5.86-1.42-11.77-2.83l-7.15-1.69,7-2.17c4.24-1.31,8.57-2.72,12.39-4,9.66-3.14,18.79-6.11,28.33-8.42a104.57,104.57,0,0,0,10.44-3.34c6.44-2.3,13.1-4.68,20.18-4.68a29.76,29.76,0,0,1,9.12,1.41c4.78,1.54,9.52,3.36,14.1,5.12,2.45.95,5,1.93,7.52,2.85,20.13,7.4,36.13,14.62,50.33,22.72,12,6.87,24.08,14.1,35.71,21.09,3.53,2.12,7.05,4.24,10.59,6.35q6.89,4.13,13.8,8.2c12.78,7.57,26,15.37,38.68,23.47,9.19,5.87,18.28,12.2,27.07,18.33,5.47,3.81,11.06,7.71,16.62,11.45a2,2,0,0,0,1.08.37,3.56,3.56,0,0,0,2.57-1.82,1.1,1.1,0,0,0,.24-.48,6,6,0,0,0-1.37-1l-.6-.4c-6.45-4.52-12.75-9.41-18.83-14.15-12.87-10-26.16-20.35-41.46-27.51-9.09-4.25-17.46-10.18-25.55-15.92A211.65,211.65,0,0,0,372.68,1001c-25.13-13.94-54.56-29.71-85.85-40.42-4.37-1.5-8.74-2.79-13.79-4.3l-.15,0c-2.49-.74-5.11-1.52-7.91-2.38l-7.4-2.26,7.58-1.61c3.6-.76,7-1.51,10.24-2.23l.21,0c7.05-1.56,13.69-3,20.26-4.11,2.31-.38,4.75-.92,7.11-1.43,5-1.1,10.12-2.22,15-2.22a23.88,23.88,0,0,1,6.78.9c16.44,4.81,32.38,12.12,47.78,19.19l4.43,2c26.59,12.15,50.75,29,74.12,45.35q6.36,4.45,12.72,8.85c13.49,9.31,27,19,40.11,28.4l.32.23q10.41,7.45,20.84,14.88c.21.15.43.32.65.5l.4.32c0-.09.09-.18.13-.28.62-1.33.58-1.4-.07-1.89-6.62-5-13.47-10.28-19.52-15-11-8.49-22.35-17.23-33.74-25.48-18.47-13.36-43-30.5-69.3-44.58a381.72,381.72,0,0,0-44.14-20.52c-1.67-.65-3.24-1.24-4.69-1.79l-.51-.2c-11-4.17-16.05-6.08-19.27-10.3l-2.32-3,3.82-.18c9.1-.43,18.31-1.36,27.21-2.26,12.25-1.24,24.92-2.53,37.55-2.53,2.89,0,5.73.07,8.45.2,17.75.88,35.85,1.16,53.34,1.43h.12c14.94.23,30.38.46,45.63,1.07,20.36.83,40.22,1.86,59.46,5.46,6.55,1.23,13.41,2.43,19.47,3.48,14,2.44,28.39,5,42.51,8.28,26.68,6.29,57.85,14.69,86.73,29.28,12.24,6.18,23.13,14.61,33.65,22.76s21.32,16.51,33.37,22.55c3.48,1.74,6.25,4.66,8.92,7.48.75.79,1.49,1.57,2.23,2.31,25.07,25,51.33,52,72.8,82.84,14.27,20.47,23.86,37,31.1,53.55a2.37,2.37,0,0,0,.66.58c-1.59-12.09-7.53-22.87-13.28-33.31l-.35-.65c-9.5-17.27-21.44-34.65-37.56-54.71s-29.93-36.63-47.26-50.79c-9.57-7.83-19.36-15.63-28.84-23.18l-12.47-10-1-.8,1.74-3.08,1.2.44c16.35,6,35.49,13.4,53.57,22.76,16.74,8.68,33.1,18.68,48.92,28.36l4,2.45c19.66,12,40.73,25,61.6,38.85,10.7,7.1,21.21,14.53,31.24,22.08l.8.6v118.72l-2.4-.49c-30.86-6.31-61.09-12.08-91.65-13.35l-9.07-.39c-17.28-.74-35.15-1.51-52.74-1.51-8.16,0-15.66.16-22.92.49a964.68,964.68,0,0,0-101.06,10.34c-11.77,1.78-23.48,4.73-34.81,7.58-2.85.71-5.7,1.43-8.56,2.13-16.59,4.08-34.2,8.66-51.15,15.82-11.22,4.74-22.45,10-33.32,15-6.68,3.11-13.59,6.32-20.48,9.41-21,9.44-39.53,23.2-56.72,36.47-2.75,2.13-5.4,4.58-8,6.94-7.91,7.33-16.09,14.89-29,14.89l-1.55,0-4-.21h-.12c-3.3-.18-6.72-.38-10.05-.38a53.12,53.12,0,0,0-10.42.88,298.74,298.74,0,0,1-29.82,3.81c-11.87,1.11-24.13,2.26-35.91,5.19-9.42,2.34-19.11,4.15-28.48,5.9-11,2-22.32,4.17-33.17,7.12-13.46,3.66-26.92,8.32-39.93,12.82-8.4,2.91-17.06,5.9-25.67,8.62a547.48,547.48,0,0,0-90.82,38.33c-15.21,8-30.17,17.08-44.06,25.64l-4.91,3c-5.39,3.31-10.89,6.69-16.21,10.13l-3.09,2Z"/><path class="cls-4" d="M958.75,1100.72c-12.38-9.9-26.11-18.73-39.39-27.27-3.48-2.24-7-4.47-10.39-6.72-24-15.66-48.65-29.88-72.44-43.64-27.16-15.7-56.5-28-81.87-38.25-16-6.49-32.6-12.41-48.63-18.13l-.47-.17c-6.28-2.25-12.78-4.57-19.15-6.89-33.82-12.34-69.31-19-103.63-25.42l-4.76-.89c-15.79-3-32.29-4-48.24-5h-.11c-6.86-.42-14-.85-20.93-1.44-9.06-.76-18-1.35-27.85-2l-2.18-.15c-5.74-.37-11.61-.75-17.36-.82L456,924c-3.95,0-7.9,0-11.85.08s-7.92.07-11.88.07h-2.2c-3.58,0-7.2-.14-10.71-.26-3.73-.13-7.54-.26-11.25-.26-2.82,0-5.33.07-7.68.23-8,.51-16,1.33-23.84,2.12-10.81,1.09-22,2.22-33.05,2.57-9.86.31-19.69,2-29.19,3.57-5.11.86-10.37,1.75-15.59,2.42a261.32,261.32,0,0,0-26.07,5.21l-.12,0-5.1,1.19c-3.76.87-7.59,1.69-11.29,2.5-10.8,2.34-21.95,4.75-32.45,8.32-9.13,3.11-18.42,6.32-27.41,9.43l-.62.21c-12.06,4.18-24.53,8.49-36.81,12.6-11.68,3.91-23,9.11-34,14.14-10.47,4.81-21.26,9.76-32.41,13.64a206.11,206.11,0,0,0-27.58,12L62,1015.28V62H962V1103.32ZM436.24,208.55c-5.65,0-11.41.13-17.14.39-81.31,3.71-161.93,40.21-221.19,100.14a328.52,328.52,0,0,0-71,107.05c-17.46,42.68-25.69,88.57-24.45,136.39C104,611.86,118.33,665.58,145,712.18c26.41,46.12,65.32,86,115.65,118.37,52.75,34,111.27,51.2,173.94,51.2a355.88,355.88,0,0,0,36.25-1.88c90.64-9.32,166.55-49.53,225.62-119.52,28.9-34.25,50-72.24,62.83-112.92,12.47-39.64,17.34-82.92,14.49-128.64-4.75-76.45-40-153.34-96.77-210.95A329.81,329.81,0,0,0,572.6,236.09C530.35,217.82,484.47,208.55,436.24,208.55Z"/><path class="cls-3" d="M374,1110.55c-7.58,0-12.62-5-17.06-9.32a46.69,46.69,0,0,0-6-5.27c-22.56-15.31-49-32.75-77.66-45.83a627.91,627.91,0,0,0-62.76-24.71c-10.4-3.46-21.57-5.44-32.37-7.36-5.52-1-11.2-2-16.78-3.19-16.4-3.54-33.25-4-49-4-4.69,0-9.38,0-13.34.09l-1.34,0-.44-3.66,1.31-.31c12.51-2.9,21.53-7.57,30.25-12.09,3.13-1.62,6.09-3.15,9.18-4.59,14.8-6.9,27.47-10.12,39.87-10.12a68.15,68.15,0,0,1,24.36,4.49,147,147,0,0,0,16.88,4.8,146.48,146.48,0,0,1,17.71,5.08c30,11.41,56.13,22.47,79.9,33.83,31.42,15,59,35,84.21,54.3l12.51,9.65,8.89,6.86-4.09,1c-3.54.83-7.12,1.56-10.91,2.33l-.1,0c-8.57,1.74-17.43,3.53-25.78,6.61A21.62,21.62,0,0,1,374,1110.55Z"/><path class="cls-3" d="M62,1024.1l1.06-.56c8.94-4.78,16.52-7.28,23.87-7.89,5.37-.45,11-.67,16.79-.67,20.33,0,41.09,2.82,59,5.46,26,3.85,50.82,12,74.86,19.88l5.48,1.8c19.86,6.5,38.85,16.47,57.22,26.12l4.14,2.17c12.33,6.45,23.44,15.22,31.75,22.13a61.6,61.6,0,0,0,10.44,6.53c5.71,3.07,11.6,6.24,15.94,12l1.7,2.25-2.7.86c-5.65,1.79-11.32,3.47-16.79,5.09-12.08,3.59-24.58,7.3-36.35,12-20.6,8.2-41.2,17.47-61.12,26.44l-.24.11q-7.84,3.54-15.7,7.06c-4.75,2.11-9.63,4.17-14.34,6.15-13,5.46-26.37,11.09-38.17,18.61-8.68,5.52-17.68,10.76-26.38,15.82-9,5.24-18.32,10.65-27.26,16.38-20.9,13.4-40.27,28.42-59.92,43.91L62,1268.29Z"/><polygon class="cls-2" points="6 8.83 58 60.83 58 1619.17 6 1671.17 6 8.83"/><path d="M1024,8V1672a8,8,0,0,1-8,8H8a8,8,0,0,1-8-8V8A8,8,0,0,1,8,0H1016A8,8,0,0,1,1024,8Zm-8,1658.34V13.66l-48,48V1618.34ZM962.34,56l48-48H13.66l48,48H962.34ZM13.66,1672h996.68l-48-48H61.66ZM960,1616V1481.5l-3-1.81c-22.67-13.47-45.82-26.08-70-36.62-21.36-9.3-42.73-18.57-64.2-27.59-19.36-8.14-38.83-16-58.33-23.77-2-.82-4.62-.37-7.47-.55,13.34,9.46,26.64,18.14,39.09,27.89,20.52,16.06,40.72,32.4,59.4,50.82a673.43,673.43,0,0,1,52.31,57.68c13,16.13,23,34.6,34.29,52,1,1.5,1.66,3.27,2.87,4.53,2.59,2.66,5,7,2.85,9-3.5,3.29-5.42-2.71-6.33-4.21-15.87-26.05-35.77-49.07-54.71-72.75-10.57-13.22-23.48-24.54-34.74-37.26-10.77-12.17-23-22.79-35.37-33.08-21.9-18.16-44.83-34.93-68.24-51.19-21.76-15.11-46.88-17.39-71.1-23.62-6.95-1.79-13.8-4-20.73-5.88-.95-.26-2.14.34-3.21.54a23.93,23.93,0,0,0,2.61,2.43c21.93,15.2,44.66,29.37,65.64,45.78,30.7,24,59.7,50.09,86.06,78.92,8.26,9,15.51,19,24,27.83a342,342,0,0,1,46,60.41c1.54,2.54,2.7,5.31,4.63,9.13-11.53-4.47-14.72-14.82-20.51-22.3a814.93,814.93,0,0,0-79.67-88.74c-16.87-16.23-33.93-32.32-51.65-47.6-16.28-14-33-27.63-50.55-40-16.44-11.65-33.38-23.19-51.58-31.56-12.38-5.69-27.26-6.2-41.12-8.34-17.2-2.66-34.5-4.62-52-6.12,28.85,12.11,54.82,29.08,80.51,46.15,26.42,17.55,52,36.31,76.16,57.15,19.14,16.53,38.67,32.7,55.61,51.37,22.47,24.77,47.25,47.72,64.9,76.62,1.6,2.61,3.85,4.81,5.52,7.38,1.54,2.37,4.32,5.23,1.21,7.61-.82.63-5.52-2.12-7-4.29-13.22-19.62-29.61-36.5-45.29-54.06a751.59,751.59,0,0,0-61.69-60.82,828,828,0,0,0-77.9-61.54c-19.46-13.51-39-26.78-59.53-38.57-27.69-15.94-55-32.92-89.41-29.65-15.22,1.44-30.69.24-47.08.24,21.72,8.62,42.32,15.93,62.55,24.8,18.92,8.3,37,18.09,55,27.78,20.88,11.24,40.42,25.07,60,38.68,24.73,17.17,47.79,36.23,70.07,56.21a479.51,479.51,0,0,1,68.59,77c5.1,7.07,10.64,13.83,16,20.71,1,1.27,2.84,2.46,1.05,4.12s-3.12.23-4.46-1.25c-19-20.91-37.74-42-57.07-62.55-10.2-10.86-21.36-20.82-32.12-31.16a549.54,549.54,0,0,0-73.16-58.84,759.86,759.86,0,0,0-66.16-40.39c-17-9.11-34-18.64-51.5-26.11-22.14-9.44-44.32-19.45-68.76-23.33-23.4-3.72-45.13,3.56-67.64,5.67-20.26,1.9-39,8.59-58.41,13.06-20.13,4.63-39.72,11.82-59.32,18.58q-28.56,9.84-56.63,21.12c-29.8,11.95-57,29-84.69,44.95A245.44,245.44,0,0,0,64,1465.5V1616h48.63c9.61-12.18,20.71-23.2,30.81-35,13.51-15.81,30.15-28,45.95-41.12a318.24,318.24,0,0,1,45.06-30.59c20.65-11.81,42.18-22.09,63.48-32.74,24-12,49.21-21.11,74.63-29.8,21.28-7.29,42.63-14,64.7-18.3,3.45-.67,6.85-1.57,10.31-2.13.67-.1,1.51.9,2.28,1.4-.82,1.09-1.43,2.86-2.49,3.18-24.47,7.38-48.25,16.57-72.14,25.65-25.54,9.7-50.69,20.1-75.36,31.76-5.48,2.59-11.13,4.8-16.71,7.18,13.14-1.64,26.37-1.85,39.42-3.5,17.45-2.22,34.71-.83,52,1.15,16.53,1.89,33.12,3.4,49.53,6,7.8,1.24,15.25,4.67,22.84,7.18,2.55.84,4,3,3.07,5.32-.4,1-3.57,1.74-5.12,1.3a248.31,248.31,0,0,0-60.37-8.91c-22.07-.67-44.25-3.48-66.51.57-10.27,1.87-20.86,2.56-31.31,4.08-26.3,3.83-51.86,8.56-72.7,28.51,15-4,29.92-4.13,44.73-5.17,23.9-1.67,47.83-2.4,71.71.61,22.06,2.78,44.15,5.28,66.15,8.48,6.56,1,12.9,3.7,19.23,5.93,2.87,1,5,3.3,3.18,6.55-1.56,2.76-3.92,1.12-6.3.5-9.87-2.55-19.74-6-29.79-6.76-18.91-1.43-37.7-4.25-56.48-5.65a410.31,410.31,0,0,0-84.86,3c-15.1,2-30.38,2.72-45.28,6.37-8.64,2.11-15.3,8.12-21.16,13.58-17.48,16.3-33.84,33.85-50.1,51.41Zm0-142V1345.19c-12.31-13.48-23-28.42-36.67-40.74A577.6,577.6,0,0,0,837.62,1240c-22.83-13.94-46.76-18.06-73.13-13.28-12.46,2.26-25.68-.54-39,3.39a378.85,378.85,0,0,1,79.26,32.86c26.73,15,52.35,31.36,75.41,51.87a522.77,522.77,0,0,1,52.46,54.14c5.63,6.68,11,13.72,17.06,20.07,2.7,2.83,1.22,5.41-1.05,6.57s-2.72-1.74-3.93-3.36c-3.3-4.44-7.43-8.25-11.2-12.34-13.49-14.63-26.07-30.26-40.68-43.68-19-17.43-39.1-33.77-61.4-47-19.18-11.34-38.32-22.91-58.3-32.68A276.37,276.37,0,0,0,713.46,1235c-22.73-5.19-43.58,3.62-65.24,7.49-16.2,2.89-31.72,7.83-47.1,12.83-17.31,5.63-33.64,14.28-50.36,21.72-29.93,13.31-57.7,30.08-82.43,51.68-.65.57-1.32,1.11-2,1.67,2.16.84,4.34,2.46,6.47,2.4,11.53-.32,23.11-2.11,34.56-1.42,19.06,1.15,38.06,3.5,57,5.9,17,2.16,34.06,4.43,50.86,7.78,31.08,6.2,62.16,12.4,92.63,21.45,14.81,4.41,30.4,6.23,45.22,10.63,17.39,5.16,34.45,11.52,51.41,18q24.09,9.18,47.65,19.74c16.39,7.39,32.4,15.61,48.59,23.45C921.61,1448.41,940.62,1461.52,960,1474Zm0-140v-97.87c-4.18-.69-8.37-1.36-12.55-2.08-28.42-4.91-57.17-5.86-85.73-8.83-10-1-20.17-.17-31.68-.17,13.1,7.77,25.15,14.51,36.77,21.91,15.11,9.61,28.54,21.49,42.64,32.43,13.16,10.22,24.18,22.22,35.08,34.31A192.58,192.58,0,0,1,960,1334.06Zm0-104.82V1114q-15.24-11.48-31.14-22c-20.21-13.39-40.84-26.17-61.54-38.81-17.38-10.62-34.74-21.38-52.81-30.74-17.1-8.86-35.11-16-53.34-22.66,13.78,11,27.66,22,41.33,33.14,18.17,14.85,32.89,32.86,47.55,51.09,14,17.44,27,35.42,37.75,55,6.23,11.32,12.57,22.63,14,35.82.08.7-.65,1.49-1,2.23-1.23-1-3.06-1.66-3.61-2.91-8.28-18.93-19.08-36.23-30.91-53.21-21.12-30.33-46.58-56.63-72.57-82.56-3.36-3.35-6.54-7.37-10.64-9.42-24.34-12.2-42.77-33.07-67-45.32-27.37-13.82-56.47-22.08-86.29-29.11-20.51-4.83-41.28-7.88-61.89-11.74-19.39-3.63-39.39-4.63-59.17-5.43-33-1.32-66.11-.87-99.11-2.5-24.59-1.21-48.58,3.44-73,4.59,3.31,4.33,9.28,6.13,23.6,11.63a388,388,0,0,1,44.37,20.63c24.32,13,47.18,28.56,69.52,44.72,18.06,13.07,35.49,27,53.29,40.45,2.22,1.67,1.08,3.4.49,4.76-1.13,2.6-2.77.67-4-.18-20.43-14.49-40.64-29.27-61.25-43.49-28-19.33-55.38-39.8-86.53-54-17-7.78-34.09-15.9-51.94-21.12-8.34-2.45-18.64,1.26-28,2.8-9.56,1.58-19,3.92-30.63,6.38,8.45,2.59,15.25,4.46,21.91,6.74,30.21,10.34,58.39,25.15,86.17,40.56,15.52,8.61,29,21.21,45,28.67,22.77,10.65,40.5,27.76,60.58,41.83,1.4,1,4,2.14,2.24,4.7-1.53,2.25-4,3.59-6.42,2-14.6-9.84-28.81-20.28-43.65-29.75-17.21-11-34.91-21.17-52.43-31.64-15.38-9.2-30.69-18.54-46.26-27.42-15.94-9.09-32.81-16.25-50-22.58-7.19-2.63-14.26-5.61-21.54-7.94-13.92-4.45-26,3.56-38.66,6.64-13.58,3.29-26.79,8.08-40.6,12.36,12.47,2.94,24.7,6.14,37,8.68,21.2,4.37,41.19,12.43,61.09,20.41a556.8,556.8,0,0,1,54.63,25.84c23,12.29,45.39,25.85,65.85,42.24,9.64,7.73,19.06,15.79,29.06,23,1.73,1.25,5.86-.89,8.91-1.36,21.45-3.29,43.1-4.44,64.69-6.41,28.21-2.56,56.23-.84,84.2.89a648,648,0,0,1,81.34,10c23.32,4.45,46.92,8.93,69.05,18.36,1.93.82,4.9.15,6.12,1.4,1.62,1.65,6.2.85,4.89,3.73-.71,1.56-5.38,2.26-8,1.84-23.14-3.7-46.33-7.21-69.3-11.79-42.33-8.44-85.15-11.86-128.14-12.44-10.62-.15-21.85-4.26-31.91,1.06,24.55,10.53,50.3,19.49,73.88,32.41,15.63,8.57,31.08,18.88,43.68,32.41,7.26,7.78,15.47,14.68,23.19,22,1.12,1.06,4.18,1.92,1.83,4-1.65,1.44-4.12,1.16-6.31-.53-19.77-15.28-39.44-30.55-61.23-43.14-20.71-12-41.46-23.68-64.14-31.25-11.81-3.94-24.29-6-36.59-8.26-10.3-1.89-20.76-3.6-31.18-3.86-7.42-.18-14.9,2.19-24.56,3.79,30.31,12.77,60.48,19,86.94,34.05a417.84,417.84,0,0,1,57.71,39.18c3.36,2.75,5.21,7.24,9.79,8.92.78.28.81,2.57,1.19,3.94-1.57,0-3.56.52-4.63-.23-10.82-7.56-21-16.08-32.33-22.85-11.44-6.86-24-11.75-35.82-18.08-14.12-7.58-27.69-16.21-43.05-21.21-16.29-5.31-32.79-10-48.87-15.85-20.14-7.33-37.11,3.15-55.55,7.52-20,4.73-39.14,11.57-58.09,18.88-25.92,10-51.06,22-76.78,32.59-27.31,11.23-52.65,26.06-78.29,40.49a548.12,548.12,0,0,0-77.41,53.21q-5.44,4.44-10.72,9v175.48c7-4.51,14.09-8.81,21.16-13.17,14.5-8.94,29.12-17.75,44.17-25.71a546.88,546.88,0,0,1,91.16-38.47c22-6.93,43.48-15.42,65.67-21.46,20.25-5.51,41.31-8,61.7-13,21.67-5.39,44-4.74,65.82-9,8.08-1.59,16.72-.71,25.07-.32,17.12.8,25.64-12.49,37.15-21.38,17.93-13.85,36.24-27.32,57.12-36.71,18-8.07,35.69-16.78,53.84-24.45,16.57-7,33.92-11.61,51.45-15.92,14.47-3.55,28.77-7.51,43.55-9.75a971.67,971.67,0,0,1,101.27-10.36c28.44-1.28,56.61.23,84.9,1.41C899.17,1217.15,929.62,1223,960,1229.24Zm0-130.08V64H64v948a208,208,0,0,1,27.85-12.1c22.78-7.92,43.49-20.11,66.42-27.79,21.61-7.23,43.21-14.89,64.83-22.23C237.33,945,252.33,942.37,267,939c10.44-2.41,20.89-5.09,31.48-6.46,15-1.94,29.68-5.53,45-6,19-.59,37.85-3.47,56.82-4.69,9.88-.64,19.85.25,29.78.29,10.43,0,20.86-.23,31.28-.12,6.55.08,13.11.55,19.65,1,9.3.6,18.6,1.21,27.89,2,23.19,1.95,46.72,2.15,69.48,6.42,36.6,6.87,73.19,13.44,108.71,26.4,22.75,8.3,45.84,16.12,68.31,25.22,28,11.33,55.72,23.11,82.06,38.34,24.48,14.15,48.92,28.31,72.59,43.73C926.93,1076.07,944.34,1086.64,960,1099.16Zm-542.22-1-18.07-13.93c-26.46-20.33-53.37-39.53-83.85-54.09-26.15-12.49-52.77-23.5-79.75-33.76-11.16-4.25-23.39-5.69-34.58-9.88-22-8.26-42.46-3.86-62.69,5.57-11.7,5.45-22.57,12.82-39.82,16.82,23.86-.28,43.49-.19,62.8,4,16.47,3.55,33.49,5.34,49.36,10.61a628,628,0,0,1,63,24.79c27.78,12.69,52.9,29,77.95,46,8.39,5.7,14,18.31,28.67,12.93C392.94,1102.76,406.1,1101,417.78,1098.21Zm-56.87,14c-6.8-9-17.89-11.38-26.06-18.18-9.79-8.15-20.17-16-31.4-21.9-19.85-10.4-39.88-21.23-61-28.16-26.16-8.55-52.28-17.49-80-21.6-25.14-3.72-50.22-6.86-75.29-4.78-8,.67-15.72,3.72-23.1,7.66v238.86c19.47-15.35,39.05-30.54,60.08-44,17.58-11.27,36-21,53.65-32.21,16.27-10.37,35-17,52.76-24.9,25.61-11.44,51.09-23.27,77.14-33.64C324.81,1122.55,342.9,1118,360.91,1112.26ZM56,1618.34V61.66l-48-48V1666.34Z"/><path d="M775.79,518.67c5.68,91.12-18.63,172.86-77.79,243C638.63,832,562.49,872.46,471.05,881.86c-75.78,7.79-147.48-8.41-211.47-49.63-101.13-65.14-156-159.12-159.09-279.66C95.33,352.88,255.48,214.41,419,206.94,631.44,197.43,766.21,364.66,775.79,518.67Zm-76,212c58.58-83.55,74.84-176.2,46.91-274.89-20.39-72.07-61.9-130.3-123.44-173.27-80.72-56.35-169.73-73.48-265-49.06-89.68,23-157.42,76.23-202.47,157.54-45.28,81.71-50.9,168-23.34,255.51,20.22,64.16,59.77,116.88,114.37,157,62,45.49,131.9,65.88,217.48,62.67C557.47,858.2,640.79,814.78,699.78,730.66Z"/></svg>