<?xml version="1.0" encoding="UTF-8" standalone="no"?><!DOCTYPE svg PUBLIC "-//W3C//DTD SVG 1.1//EN" "http://www.w3.org/Graphics/SVG/1.1/DTD/svg11.dtd"><svg width="100%" height="100%" viewBox="0 0 372 587" version="1.1" xmlns="http://www.w3.org/2000/svg" xmlns:xlink="http://www.w3.org/1999/xlink" xml:space="preserve" xmlns:serif="http://www.serif.com/" style="fill-rule:evenodd;clip-rule:evenodd;stroke-miterlimit:100;"><g><clipPath id="_clip1"><rect x="26.44" y="35.434" width="343.706" height="550.348"/></clipPath><g clip-path="url(#_clip1)"><path d="M197.987,475.033l-9.99,5.991c-7.331,4.663 -11.325,11.324 -12.658,17.984c-1.997,7.987 -1.333,14.648 3.331,21.309l6.66,8.001l9.327,-3.33c6.661,-4.671 11.324,-9.991 12.651,-17.992c2.003,-6.66 0.67,-14.647 -3.33,-21.972l-5.991,-9.991Z" style="fill:#858585;fill-rule:nonzero;"/><path d="M196.654,473.03l-9.991,5.997c-7.323,5.327 -12.657,11.987 -13.984,19.318c-2.667,7.987 -1.333,15.312 3.33,23.312l7.324,9.321l1.997,0.67c1.997,0 5.997,-2.003 11.324,-4.67c6.66,-5.321 11.324,-11.318 13.321,-18.642c1.997,-8.001 0.663,-15.988 -3.33,-23.982l-6.661,-10.661l-3.33,-0.663Zm8.658,27.306l-0.663,6.66c-1.997,9.328 -8.658,15.325 -18.648,18.655c-5.998,-5.334 -9.328,-11.324 -9.328,-19.981l0.664,-5.334c2.666,-9.321 9.327,-16.651 19.981,-21.973c5.333,7.325 7.994,13.986 7.994,21.973Z" style="fill-rule:nonzero;"/><path d="M185.33,526.314c-1.997,-0.663 -2.66,0.664 -2.66,2.004l-2.668,13.321c-0.662,1.99 0,2.66 1.998,3.33l2.666,-2.667l2.661,-13.321c0,-1.333 -0.664,-2.002 -1.997,-2.667Z" style="fill-rule:nonzero;"/><path d="M228.624,509l-8.658,7.987c-5.327,6.661 -7.993,13.991 -7.323,21.322c0,7.323 2.66,13.984 7.987,19.981l8.664,5.99c2.66,-1.333 5.327,-4 7.987,-6.66c5.997,-5.99 8.664,-12.651 7.994,-19.312c0,-8.001 -2.66,-14.661 -8.657,-21.322l-7.994,-7.986Z" style="fill:#858585;fill-rule:nonzero;"/><path d="M229.957,506.996c-1.333,-0.663 -1.997,-0.663 -3.33,0c-1.997,1.341 -4.664,4.001 -8.657,8.664c-5.327,7.324 -8.658,14.648 -7.994,22.649c0,8.65 3.33,15.312 9.327,21.972c2.66,2.667 5.99,4.67 9.321,6.661l1.997,0l9.327,-7.988c5.997,-5.997 8.657,-13.321 7.994,-20.645c-0.67,-8.664 -3.331,-15.988 -8.658,-22.649c-4,-5.333 -7.33,-7.323 -9.327,-8.664Zm-14.654,31.314c0,-9.991 4,-17.992 13.321,-25.979c9.327,7.324 13.991,15.988 13.991,25.979c0,5.99 -2.004,11.317 -5.997,15.981l-7.324,7.33c-9.328,-5.333 -13.991,-13.321 -13.991,-23.311Z" style="fill-rule:nonzero;"/><path d="M231.954,564.281c0,-1.996 -1.333,-2.66 -2.66,-2.66c-2.004,0 -2.667,1.327 -2.667,3.33l0.663,13.321l2.667,1.991c1.997,0 3.33,-0.664 3.33,-1.991l-1.333,-13.991Z" style="fill-rule:nonzero;"/><path d="M116.063,544.3l7.324,8.657c5.997,5.997 12.657,9.328 20.646,9.328c7.33,1.326 13.99,-1.334 19.981,-6.661l6.661,-7.324l-5.328,-9.327c-5.326,-5.334 -11.987,-8.664 -19.312,-9.327c-7.331,-0.664 -13.991,2.003 -21.315,7.324c-3.999,2.003 -5.996,4.67 -8.657,7.33Z" style="fill:#858585;fill-rule:nonzero;"/><path d="M123.388,533.639c-3.994,3.331 -7.324,5.997 -9.327,8.664c-0.664,1.327 -0.664,2.667 0,3.33l7.994,9.328c6.66,6.66 13.99,9.99 21.314,9.99c8.658,0.664 15.988,-1.34 22.648,-6.66l7.324,-9.327l0,-2.004l-6.66,-9.99c-5.328,-5.991 -12.658,-9.321 -19.982,-9.991c-7.994,0 -15.988,2.002 -23.311,6.66Zm-3.994,11.331c2.661,-3.33 5.991,-5.997 9.321,-8c5.327,-3.331 11.324,-5.321 17.321,-4.657c9.321,0.663 16.651,5.997 21.979,15.317c-5.997,9.321 -13.991,12.651 -23.981,12.651c-9.992,-0.663 -17.979,-5.99 -24.64,-15.311Z" style="fill-rule:nonzero;"/><path d="M171.346,544.97c-1.334,0 -2.668,0.663 -2.668,2.66c0,1.997 0.67,2.66 1.998,2.66l19.317,1.341l2.667,-0.67l0.664,-1.997c0,-1.334 -0.664,-2.004 -2.667,-2.667l-19.311,-1.327Z" style="fill-rule:nonzero;"/><path d="M64.105,370.454c0,-1.99 -1.327,-2.66 -3.33,-1.99c-1.327,0 -1.997,1.99 -1.327,3.33l13.321,30.637c11.318,24.639 25.973,47.951 42.624,69.936c51.951,71.264 117.894,121.218 197.158,147.86c1.326,1.34 2.66,0 3.33,-1.326c0.663,-2.004 0,-3.331 -2.004,-3.331c-77.924,-27.306 -143.202,-75.27 -194.484,-146.533c-16.651,-21.985 -30.643,-44.627 -41.967,-68.609l-13.321,-29.974Z" style="fill-rule:nonzero;"/><path d="M54.115,335.824l-7.988,0.663c-3.33,1.334 -5.334,2.667 -5.334,4.664c-1.326,3.33 0,7.994 2.004,13.991c3.33,5.99 6.66,9.991 11.988,13.321l7.323,2.66l1.997,-6.66c2.004,-5.991 1.334,-11.988 -1.327,-17.322c-3.33,-6.66 -5.333,-9.99 -8.663,-11.317Z" style="fill:#d96038;fill-rule:nonzero;"/><path d="M45.457,333.82c-4.664,1.341 -6.66,4.001 -7.994,7.331c-0.663,3.33 0,8.657 3.33,15.318c3.33,5.997 6.661,11.324 12.658,14.654l7.994,2.66l2.66,-1.327l3.33,-7.993c1.334,-5.991 0.67,-12.651 -1.996,-18.648c-3.331,-6.661 -6.661,-11.325 -9.992,-12.658l-9.99,0.663Zm-2.66,10.661c0,-2.66 1.326,-4.663 4.657,-5.99l5.333,-0.67c2.66,1.333 4.658,4.663 7.324,9.99c1.997,3.331 2.667,6.661 2.667,10.661l-2.003,9.321c-6.66,-1.334 -11.318,-5.991 -14.648,-13.321c-2.004,-3.999 -3.33,-7.33 -3.33,-9.991Z" style="fill-rule:nonzero;"/><path d="M64.775,403.757c-1.997,-1.326 -2.667,-1.326 -4,0.67c-0.664,1.334 -0.664,2.661 1.333,3.331l20.651,13.991l3.331,-0.671c1.327,-1.333 1.327,-2.66 0,-3.33l-21.315,-13.991Z" style="fill-rule:nonzero;"/><path d="M30.803,385.115c-1.327,3.33 -1.997,5.99 -1.327,7.987c0.663,2.667 3.993,5.997 9.991,9.991c4.656,3.994 10.654,4.664 16.651,4.664l6.66,-1.997l-0.67,-7.324c-2.66,-5.334 -5.99,-9.991 -11.324,-13.321c-5.327,-3.33 -9.991,-4.67 -13.321,-4.67c-2.66,0.67 -4.657,2.003 -6.66,4.67Z" style="fill:#d96038;fill-rule:nonzero;"/><path d="M28.806,384.445c-2.661,3.33 -2.661,6.66 -1.997,9.991c1.334,3.33 4.664,7.33 10.654,10.66c5.997,3.994 11.994,5.321 18.655,5.321l7.987,-1.99l2.004,-2.667c0,-8.664 -5.334,-16.651 -13.992,-22.648c-5.99,-3.994 -11.324,-5.328 -14.654,-5.328c-3.33,0.671 -6.66,2.661 -8.657,6.661Zm31.969,19.982c-6.66,1.997 -13.321,0.67 -19.982,-3.33c-5.99,-4 -8.657,-7.33 -8.657,-9.991l1.333,-4l3.994,-3.993c2.667,-0.664 6.66,1.333 11.994,4.663c5.99,3.329 9.321,9.321 11.318,16.651Z" style="fill-rule:nonzero;"/><path d="M84.088,443.721c-1.328,-1.327 -1.998,-0.663 -3.331,0.67c-1.327,1.997 0,3.33 1.333,4l23.313,9.991c1.334,0.663 2.667,0 3.33,-1.34c0.67,-1.99 0.67,-2.66 -1.333,-3.33l-23.312,-9.991Z" style="fill-rule:nonzero;"/><path d="M48.124,431.069c-1.333,3.33 -1.997,6.661 -0.67,7.994c1.333,2.667 5.333,5.327 11.994,8.657l16.651,0.67c3.33,-0.67 5.327,-1.34 6.66,-2.666l-2.003,-6.661c-3.33,-4.664 -7.987,-8.664 -13.321,-11.324c-6.66,-2.66 -11.317,-3.33 -14.648,-2.66c-2.003,0.663 -3.33,2.66 -4.663,5.99Z" style="fill:#d96038;fill-rule:nonzero;"/><path d="M45.457,441.061c1.334,2.66 5.327,5.99 12.658,8.657l18.648,1.334c2.666,0 5.996,-1.334 7.994,-3.331l1.333,-2.66l-3.331,-7.33c-3.33,-5.991 -8.664,-9.991 -14.654,-12.651c-6.66,-2.667 -11.987,-3.33 -15.318,-2.004c-3.33,1.334 -5.333,3.331 -7.33,7.324c-1.334,3.999 -1.334,7.33 0,10.661Zm8.658,-13.322c2.003,-0.67 6.66,0 11.994,2.66c7.324,3.33 11.987,8.001 13.984,13.991l-19.982,0.67c-7.324,-3.33 -10.654,-5.997 -10.654,-9.327c0,-0.664 0,-2.004 1.327,-3.33c0.67,-2.004 2.003,-3.994 3.331,-4.664Z" style="fill-rule:nonzero;"/><path d="M100.738,477.023l-3.33,2.004c0,1.997 0.67,2.667 2.004,3.33l25.973,2.667l1.996,-2.667c0.67,-1.333 0,-2.667 -1.996,-2.667l-24.647,-2.667Z" style="fill-rule:nonzero;"/><path d="M62.108,476.36c0,3.994 0.67,5.997 1.997,7.994c2.004,1.997 6.66,3.33 13.321,4c6.661,0.664 11.994,-0.67 16.651,-4l5.997,-4.664l-4.663,-5.327c-4.664,-4 -9.321,-6.66 -15.982,-7.33l-13.99,2.003c-1.334,1.327 -2.661,3.33 -3.331,7.324Z" style="fill:#d96038;fill-rule:nonzero;"/><path d="M64.105,467.033c-1.997,1.34 -3.994,4.67 -4.657,8.664c0,4.657 0.663,7.987 3.33,9.99c2.661,2.667 7.324,4.657 14.648,5.327c11.324,0.67 19.318,-2.66 25.315,-9.99l0,-2.661c-4.664,-8 -11.994,-12.657 -23.313,-13.991l-15.323,2.661Zm0.67,11.33l0,-2.003c0.664,-2.667 1.334,-4.657 2.66,-5.327l11.995,-1.333c7.324,0.663 13.322,3.993 17.315,9.327c-4.663,5.327 -11.324,7.324 -19.318,6.66c-7.988,-0.663 -12.652,-3.33 -12.652,-7.324Z" style="fill-rule:nonzero;"/><path d="M130.711,514.327c-1.996,0 -3.33,0.67 -3.33,2.66c0,1.34 1.334,2.667 3.33,2.667l25.316,0.663l1.326,-1.326l1.334,-1.334c0,-1.997 -1.334,-2.66 -2.66,-2.66l-25.316,-0.67Z" style="fill-rule:nonzero;"/><path d="M92.752,516.987c0,3.33 0.662,5.997 2.66,8.001l13.32,2.66c6.661,0 11.988,-1.997 16.652,-5.327l5.326,-5.334l-5.326,-5.32c-4.664,-3.33 -9.991,-4.671 -16.652,-4.671c-6.66,0 -11.324,0.67 -13.32,2.667c-1.998,2.004 -2.66,3.994 -2.66,7.324Z" style="fill:#d96038;fill-rule:nonzero;"/><path d="M108.732,530.309c7.331,0 13.322,-1.99 17.985,-5.32l5.997,-6.661l0,-2.667l-5.997,-5.997c-4.663,-3.993 -10.654,-5.997 -17.985,-5.997c-7.324,0 -12.65,1.34 -15.318,4c-2.666,1.997 -3.993,4.664 -3.993,9.321c0,4.67 1.327,8.001 3.993,9.991c2.668,2.002 7.994,3.33 15.318,3.33Zm0,-21.309c7.331,0 13.992,2.667 18.648,7.987c-4.656,5.334 -9.99,8.001 -18.648,8.001c-5.99,0 -9.99,-0.67 -11.987,-2.667c-0.663,-0.664 -1.333,-2.004 -1.333,-5.334c0,-2.66 0.67,-4.657 1.333,-5.32c1.997,-1.34 5.997,-2.667 11.987,-2.667Z" style="fill-rule:nonzero;"/><path d="M84.088,381.115c-1.328,-0.67 -3.331,0 -3.331,1.333l-5.327,25.31c0,1.333 0.67,2.66 1.997,2.66l3.33,-1.99l5.334,-24.652c0,-1.991 0,-2.661 -2.003,-2.661Z" style="fill-rule:nonzero;"/><path d="M99.412,351.143l-6.66,-4.664l-7.994,0.663c-2.668,1.34 -4.664,5.997 -5.998,12.658c-1.996,5.997 -1.333,11.994 0.67,17.314l3.994,5.998l5.997,-3.994c4.657,-3.33 7.987,-7.994 9.991,-14.654c1.326,-6.661 1.326,-10.661 0,-13.321Z" style="fill:#d96038;fill-rule:nonzero;"/><path d="M101.408,365.134c1.334,-6.661 1.334,-11.995 0,-15.325c-1.333,-2.667 -4,-5.327 -8.656,-5.997c-4.001,-1.327 -7.331,-0.663 -9.992,1.34c-2.666,2.66 -5.333,6.661 -6.66,13.985c-3.33,10.654 -0.67,19.318 5.99,25.979l1.998,0.663l7.994,-3.993c4.663,-4.002 7.33,-9.992 9.326,-16.652Zm-4,-9.328l-1.326,8.658c-2.004,6.66 -5.334,12.65 -11.994,15.981c-2.661,-4.657 -3.994,-8.651 -3.994,-13.321l0.663,-6.661c2.003,-5.99 3.331,-9.32 5.334,-11.317l5.991,-0.664l4,2.661l1.326,4.663Z" style="fill-rule:nonzero;"/><path d="M105.402,421.749c-1.333,0 -2.66,0.663 -2.66,2.66l-3.33,24.646c0,1.997 0.663,2.667 2.66,3.33c1.997,0 2.667,-0.663 2.667,-2.003l2.66,-25.303c0.67,-2.004 0,-3.33 -1.997,-3.33Z" style="fill-rule:nonzero;"/><path d="M117.391,390.436c-1.327,-1.99 -3.33,-2.66 -7.324,-3.33c-3.33,-0.663 -5.997,0 -7.324,1.34c-2.667,1.99 -4,5.991 -5.334,13.321c-1.326,5.991 0,11.981 3.33,16.651l4.664,5.991l5.327,-4.001c4.664,-4.657 6.661,-9.32 7.994,-15.981c0.67,-6.66 0,-11.324 -1.333,-13.991Z" style="fill:#d96038;fill-rule:nonzero;"/><path d="M120.721,405.097c1.334,-7.33 0.67,-12.657 -1.327,-15.987c-2.003,-2.004 -4.663,-3.994 -8.664,-4.664c-4.657,0 -7.987,0 -9.991,2.66c-3.33,2.004 -4.656,7.331 -5.99,13.991c-0.67,7.331 0.664,13.321 3.33,19.312l5.328,6.661l2.666,0c8.657,-3.995 13.321,-11.319 14.648,-21.973Zm-21.309,0.664l0.663,-3.994c0.663,-5.997 2.667,-9.327 3.994,-10.661c1.333,-1.333 3.33,-1.996 5.333,-1.333l4.658,1.333c2.003,1.334 2.003,3.331 2.003,6.661l0,6.66c-1.333,7.331 -4.663,13.321 -10.661,16.651c-3.33,-4 -5.99,-9.32 -5.99,-15.317Z" style="fill-rule:nonzero;"/><path d="M130.711,455.052c-1.326,-0.67 -3.33,0 -3.33,1.99l-4.656,24.652c0,1.99 0,2.66 1.996,3.33c1.334,0 2.66,-0.67 2.66,-2.667l5.334,-24.646c0,-1.332 0,-2.659 -2.004,-2.659Z" style="fill-rule:nonzero;"/><path d="M144.703,424.409c-1.334,-1.997 -2.668,-3.331 -6.661,-4.001l-7.331,0.67c-3.33,1.997 -4.656,6.661 -6.66,13.321c-1.326,5.991 0,11.325 2.004,16.652l3.993,6.66l5.997,-4c4.658,-3.33 7.324,-8.651 9.321,-15.312c1.333,-6.66 1.333,-11.33 -0.663,-13.99Z" style="fill:#d96038;fill-rule:nonzero;"/><path d="M138.042,455.715c5.327,-4.663 7.994,-9.99 9.321,-16.651c2.003,-7.324 2.003,-11.994 0,-15.324c-1.327,-3.331 -3.994,-5.321 -8.658,-5.991c-4.663,-0.67 -7.994,0 -9.99,1.334c-2.66,2.667 -5.327,7.324 -6.66,14.647c-2.661,10.661 0,19.318 6.66,25.315l1.996,1.327c2.668,-1.327 5.334,-2.66 7.331,-4.657Zm3.993,-31.306l1.334,5.99l-0.663,7.331c-2.003,7.994 -5.997,13.321 -11.995,16.651c-3.33,-4 -4.656,-8.657 -4.656,-13.991l1.326,-5.991c0.67,-5.99 2.004,-9.32 4.664,-10.66l5.327,-0.664c2.667,0.664 3.331,1.334 4.663,1.334Z" style="fill-rule:nonzero;"/><path d="M156.69,483.685c-0.663,0 -1.997,0.67 -3.33,2.003l-6.661,24.64c0,1.34 0,2.003 1.997,3.33c1.333,0 2.667,-0.663 3.331,-1.99l7.33,-24.652c0,-1.992 -0.669,-2.662 -2.667,-3.331Z" style="fill-rule:nonzero;"/><path d="M174.006,454.382l-5.991,-4l-7.993,0c-2.668,1.34 -4.664,5.333 -7.324,11.994c-2.004,5.997 -2.004,11.987 0.663,17.979l3.33,5.997l6.661,-3.331c3.993,-3.33 7.324,-7.987 9.99,-13.984c1.997,-6.661 1.997,-11.325 0.664,-14.655Z" style="fill:#d96038;fill-rule:nonzero;"/><path d="M154.023,487.685c1.334,1.334 2.004,1.334 2.667,1.334l7.994,-3.994c5.327,-4 8.657,-9.327 11.324,-15.324c1.997,-7.324 2.661,-11.988 0.663,-15.318c-0.663,-3.33 -3.33,-5.327 -7.994,-6.661l-9.99,0.67c-3.33,1.991 -5.99,5.991 -8.658,13.321c-1.333,6.661 -1.333,12.651 0,19.313l3.994,6.659Zm1.334,-23.983c1.333,-5.99 4,-9.32 5.996,-11.317c1.334,-0.663 2.661,-0.663 5.328,0c3.994,1.997 5.997,3.33 5.997,6.66l-2.667,8.658c-1.997,7.994 -6.66,13.321 -12.658,15.981c-1.996,-3.994 -3.33,-7.987 -3.33,-12.651l1.334,-7.331Z" style="fill-rule:nonzero;"/><path d="M76.1,294.527l6.66,9.32c5.991,5.997 12.652,9.991 19.982,10.661c7.324,0.67 14.648,-0.67 20.646,-5.99l7.323,-7.331l-5.326,-9.32c-4.664,-5.998 -11.324,-9.328 -18.648,-10.661c-7.324,-0.67 -14.654,1.333 -21.979,5.99l-8.658,7.331Z" style="fill:#858585;fill-rule:nonzero;"/><path d="M84.088,284.536l-9.992,7.994c-0.662,1.327 -0.662,1.997 0,3.33l6.661,9.991c6.661,6.66 13.321,9.991 21.985,11.317c7.987,0.67 14.648,-1.326 21.979,-5.99l7.994,-8.657l0.664,-2.004l-5.998,-9.991c-5.326,-7.323 -11.987,-10.654 -19.981,-11.317c-7.988,-1.334 -15.982,0.664 -23.312,5.327Zm43.293,15.982c-6.66,8.664 -14.648,11.994 -24.639,11.331c-9.328,-0.67 -16.651,-6.661 -23.313,-17.321c7.988,-7.994 17.315,-11.324 26.643,-9.991c9.991,0.669 17.316,6.659 21.309,15.981Z" style="fill-rule:nonzero;"/><path d="M130.711,297.857c-1.326,0 -2.66,1.333 -2.66,3.33c0,1.334 0.664,2.66 2.66,2.66l13.322,0.67l2.666,-2.66c0,-1.34 -0.663,-2.667 -2.666,-2.667l-13.322,-1.333Z" style="fill-rule:nonzero;"/><path d="M168.015,341.151l-5.997,-7.994c-5.99,-5.327 -12.651,-8.657 -19.982,-7.987c-7.993,0 -14.654,2.66 -21.314,8.65c-3.33,2.667 -5.99,5.334 -7.988,8.001l7.988,8.651c6.66,4.67 13.321,7.33 21.314,7.33c7.331,0 13.992,-2.66 19.982,-7.994l5.997,-8.657Z" style="fill:#858585;fill-rule:nonzero;"/><path d="M142.035,361.133c7.994,0 14.655,-3.33 21.316,-9.32l6.66,-9.328l0,-2.003l-6.66,-9.321c-6.661,-5.99 -13.322,-9.32 -21.316,-9.32c-7.993,0.663 -15.98,3.33 -22.642,9.32l-8.664,9.321l0,2.667l8.664,8.664c6.662,5.99 14.649,9.32 22.642,9.32Zm0,-33.303c8.658,0 16.652,4 23.313,13.321c-6.66,9.991 -14.654,13.991 -23.313,13.991c-9.32,0 -17.984,-4 -25.972,-13.321c7.325,-9.327 15.982,-13.991 25.972,-13.991Z" style="fill-rule:nonzero;"/><path d="M183.996,341.151c0,-1.997 -0.663,-3.33 -1.996,-3.33l-13.985,0.67c-1.333,0 -2.667,1.327 -2.667,2.66c0,1.997 1.334,3.33 2.667,3.33l13.985,-0.67c1.333,0.001 1.996,-1.327 1.996,-2.66Z" style="fill-rule:nonzero;"/><path d="M152.027,381.785l8.656,7.324c6.661,5.327 14.655,6.66 21.986,5.997c7.323,-0.67 13.984,-4.001 18.648,-10.661l5.327,-9.321l-7.324,-7.33c-5.997,-4.664 -13.321,-6.661 -20.651,-5.991c-7.324,1.327 -13.985,4.657 -19.982,10.654c-2.66,3.331 -5.327,5.998 -6.66,9.328Z" style="fill:#858585;fill-rule:nonzero;"/><path d="M209.312,376.451l0,-1.997l-8.664,-8.657c-7.323,-4.664 -13.984,-7.324 -21.978,-6.66c-8.658,1.326 -15.318,5.327 -21.979,11.317l-6.661,9.991l0,3.33l9.328,7.33c7.324,5.327 15.318,7.331 23.313,6.661c7.987,-1.334 14.647,-5.327 20.645,-11.324c3.33,-4.657 5.996,-7.987 5.996,-9.991Zm-53.955,4.664c1.333,-3.331 4.664,-5.991 7.994,-9.321c4.663,-4 9.99,-6.66 15.988,-7.33c9.32,-0.67 17.314,3.33 23.975,11.324c-4.663,9.99 -11.324,15.317 -21.314,16.651c-9.321,1.328 -18.648,-2.667 -26.643,-11.324Z" style="fill-rule:nonzero;"/><path d="M222.633,373.121c0,-1.997 -0.67,-2.667 -2.667,-1.997l-13.32,1.333c-2.667,0.664 -3.331,1.997 -2.667,3.331c0,1.996 1.333,2.667 2.667,1.996l13.32,-1.996c2.667,0 3.331,-1.334 2.667,-2.667Z" style="fill-rule:nonzero;"/><path d="M191.99,421.749l8.657,6.66c7.994,4.657 15.325,5.99 22.649,4.657c6.66,-1.327 13.321,-5.327 17.314,-11.988l5.334,-9.32c-2.004,-2.004 -4.664,-4 -7.994,-6.661c-6.66,-4 -13.991,-5.997 -21.315,-4c-6.66,0.67 -13.321,4.664 -19.318,11.324c-1.997,3.33 -3.993,6.661 -5.327,9.328Z" style="fill:#858585;fill-rule:nonzero;"/><path d="M239.284,402.431c-7.33,-4.664 -15.324,-5.998 -22.648,-4.664c-7.994,1.333 -14.654,5.99 -20.646,13.321c-2.666,3.33 -5.333,6.66 -6.66,9.99l0.663,3.331l9.991,6.66c7.324,4.664 15.988,6.661 23.313,4.664c8.657,-1.334 14.654,-5.334 19.981,-11.994l5.327,-11.318l-0.663,-2.003l-8.658,-7.987Zm-21.984,0.663c5.997,-1.327 11.994,0 16.651,2.667l8.664,6.66l-5.334,9.328c-3.994,5.32 -8.657,7.323 -14.648,8.65c-9.327,2.004 -18.654,-1.327 -27.313,-9.321c5.327,-9.99 13.322,-16.651 21.98,-17.984Z" style="fill-rule:nonzero;"/><path d="M261.927,408.428c-0.663,-1.34 -1.997,-2.667 -3.33,-2.004l-13.321,2.667c-1.997,0.663 -1.997,1.997 -1.997,3.33c0,1.997 1.333,2.667 3.33,1.997l13.321,-2.66c1.334,-0.67 1.997,-1.34 1.997,-3.33Z" style="fill-rule:nonzero;"/><path d="M225.293,448.391l6.661,9.321c5.327,6.66 11.987,9.991 19.318,11.324c7.324,1.327 14.654,-0.663 20.646,-5.334l7.994,-7.323c-1.334,-2.667 -3.331,-5.997 -5.997,-8.658c-4.657,-6.66 -10.655,-9.99 -17.979,-11.324c-7.331,-1.327 -14.655,0.664 -21.985,4.664l-8.658,7.33Z" style="fill:#858585;fill-rule:nonzero;"/><path d="M229.957,460.372c5.997,6.661 13.321,10.661 20.646,11.331c8.664,0.663 15.988,-0.67 22.648,-5.997l8.657,-7.994l0,-2.66c0,-1.34 -1.996,-4.67 -5.327,-9.991c-5.997,-6.66 -12.657,-10.661 -19.981,-11.331c-7.994,-1.326 -16.651,0.67 -23.976,4.671l-9.327,8.65l-0.664,2.667l7.324,10.654Zm-1.333,-11.317c8.657,-7.994 17.984,-11.324 27.313,-10.654c9.99,1.99 16.651,7.987 20.645,17.314c-7.323,8.657 -15.987,11.988 -24.646,10.654c-8.658,-1.326 -16.652,-7.324 -23.312,-17.314Z" style="fill-rule:nonzero;"/><path d="M279.912,453.712c-1.997,0 -3.331,0.67 -3.331,2.003l2.667,3.33l13.985,1.327c1.333,0.67 2.666,0 2.666,-2.66c0,-1.333 -0.67,-2.66 -2.666,-2.66l-13.321,-1.34Z" style="fill-rule:nonzero;"/><path d="M251.936,492.349l4.664,9.99c5.327,7.324 11.324,11.318 18.648,13.321c7.33,1.997 13.991,1.327 21.315,-3.33l7.994,-5.997l-4.001,-9.327c-3.993,-6.661 -9.99,-11.318 -17.314,-13.321c-6.661,-1.99 -13.984,-0.664 -21.979,3.33l-9.327,5.334Z" style="fill:#858585;fill-rule:nonzero;"/><path d="M259.93,484.354l-9.99,6.66l-0.664,2.661l5.991,10.66c4.663,7.331 11.324,11.988 18.648,13.991c7.993,1.99 15.987,0.664 23.312,-3.33c5.334,-2.667 8.664,-4.67 9.327,-6.66l0.664,-2.667l-3.994,-10.654c-4.663,-7.331 -11.324,-11.331 -19.318,-13.991c-7.325,-1.997 -15.318,-0.67 -23.976,3.33Zm41.961,21.316c-7.994,7.987 -16.651,9.99 -25.973,7.987c-9.327,-2.66 -15.988,-9.321 -21.315,-19.981c9.321,-7.324 19.313,-9.321 28.64,-7.324c9.326,2.002 15.318,8.664 18.648,19.318Z" style="fill-rule:nonzero;"/><path d="M305.221,503.666c-1.997,0 -2.66,0.67 -3.33,2.004c0,1.996 0.67,2.667 1.997,3.33l13.321,2.667c2.003,0.663 2.666,0 3.33,-1.34c0,-1.99 -0.664,-3.331 -1.997,-3.331l-13.321,-3.33Z" style="fill-rule:nonzero;"/><path d="M272.588,548.964c4.657,7.987 10.654,12.657 17.314,14.647c7.324,1.34 14.655,1.34 21.979,-2.66l7.994,-5.99l-3.33,-9.991c-3.993,-6.66 -9.991,-11.331 -16.651,-13.321c-7.324,-2.667 -14.654,-1.34 -23.313,1.99l-9.327,5.334l5.334,9.991Z" style="fill:#858585;fill-rule:nonzero;"/><path d="M265.927,536.97l-0.67,3.33c0,2.003 1.334,5.333 4.664,11.331c5.327,6.66 11.987,11.98 19.981,13.984c7.324,2.667 15.318,1.327 22.649,-2.004l9.32,-6.66l0.67,-2.66l-4,-10.661c-4.664,-7.987 -10.654,-11.981 -18.648,-14.648c-7.324,-2.003 -14.654,-2.003 -23.313,1.997c-4.662,1.997 -8.656,4 -10.653,5.991Zm24.639,23.311c-8.658,-1.99 -15.318,-8.65 -19.982,-19.981c9.328,-6.661 19.318,-8.651 28.646,-6.661c8.657,3.331 14.647,9.991 17.979,19.982c-7.988,8 -17.315,9.99 -26.643,6.66Z" style="fill-rule:nonzero;"/><path d="M320.539,552.294c-1.327,-0.663 -2.66,0 -3.33,1.997c0,1.333 0.67,2.66 2.666,2.66l12.658,4l3.33,-1.997c0.664,-2.003 0,-3.33 -2.003,-3.33l-13.321,-3.33Z" style="fill-rule:nonzero;"/><path d="M106.736,58.076c-1.334,0 -2.667,0.67 -3.33,2.66c-4.664,28.646 -7.324,59.945 -7.324,92.585c1.326,64.609 14.647,112.567 39.963,143.867c13.984,16.651 28.64,31.313 43.295,45.297l35.963,30.637c13.321,10.654 23.312,18.654 29.973,25.315c9.991,9.991 18.648,19.981 27.313,31.963c23.312,33.303 40.627,68.609 52.614,106.57c5.327,19.318 8.658,35.306 9.991,47.964l3.33,2.66l1.997,-2.66c-0.663,-13.321 -4.657,-29.31 -10.654,-48.628c-11.324,-38.63 -29.31,-75.264 -53.285,-109.236c-7.993,-11.981 -17.314,-22.643 -27.306,-31.963l-30.643,-26.643l-35.3,-29.973c-14.655,-13.321 -29.31,-27.982 -42.63,-44.634c-24.64,-30.637 -37.961,-77.924 -38.631,-142.533c0,-32.633 1.997,-62.606 6.66,-89.918c0.67,-1.997 0,-2.66 -1.996,-3.33Z" style="fill-rule:nonzero;"/><path d="M117.391,41.424c-1.327,-1.997 -3.33,-3.33 -7.324,-3.33c-3.994,-0.67 -5.997,-0.67 -7.324,1.333c-2.667,1.327 -4.664,5.997 -5.334,13.321c-1.326,5.997 -0.663,11.988 2.004,16.651l4.657,5.997l5.333,-4c4.658,-4.664 7.324,-9.321 7.988,-15.318c1.333,-7.324 1.333,-11.994 0,-14.654Z" style="fill:#d96038;fill-rule:nonzero;"/><path d="M94.078,51.415c-0.664,7.331 0,13.321 3.33,19.312l4.664,6.661l2.667,0.67c8.657,-3.33 13.984,-11.324 15.981,-21.979l0,-7.324l-1.327,-9.327c-2.003,-2.003 -5.333,-3.331 -8.664,-3.994l-9.991,1.327c-2.66,2.666 -4.656,7.323 -6.66,14.654Zm5.334,5.991l0,-4.657c1.326,-6.661 3.33,-9.991 4.657,-11.995l5.333,0l5.328,2.003l1.333,5.997l-0.67,6.661c-1.333,7.324 -5.327,13.321 -11.324,16.652c-3.331,-4.001 -4.657,-8.664 -4.657,-14.661Z" style="fill-rule:nonzero;"/><path d="M114.73,106.033c-1.998,-1.333 -2.668,-1.333 -4.001,0l-13.321,21.979c-1.326,1.333 -1.326,1.997 0.67,3.331c1.334,1.333 2.66,1.333 3.994,-0.67l13.321,-21.309c0.67,-1.334 0.67,-2.667 -0.663,-3.331Z" style="fill-rule:nonzero;"/><path d="M138.705,84.718c0,-1.997 -1.996,-4.664 -4.663,-6.661c-3.331,-1.997 -5.327,-1.997 -7.987,-1.997c-2.667,0.664 -6.661,3.33 -9.991,9.327c-4.001,4.657 -5.334,10.655 -5.334,15.982l1.333,7.994l7.331,-1.333c5.327,-1.997 9.991,-5.327 13.321,-9.991c3.994,-5.991 6.66,-9.991 5.99,-13.321Z" style="fill:#d96038;fill-rule:nonzero;"/><path d="M141.373,84.718c-0.67,-3.33 -1.998,-5.99 -5.998,-8.657c-2.66,-2.667 -5.99,-3.331 -9.32,-2.667c-3.33,0.664 -7.331,3.994 -11.994,9.991c-6.661,9.327 -7.988,17.985 -4.658,26.642l1.998,1.333c9.32,1.333 17.314,-3.33 23.975,-11.988c3.999,-5.997 6.659,-11.324 5.997,-14.654Zm-13.992,-5.99c1.334,-0.67 3.33,0.663 5.334,1.327l3.33,5.997c0,1.997 -2.003,5.327 -5.334,9.991c-4.656,6.661 -9.99,9.991 -16.65,9.991l-1.328,-4.664c0,-5.327 1.998,-9.991 5.328,-14.655c3.994,-4.657 6.66,-7.324 9.32,-7.987Z" style="fill-rule:nonzero;"/><path d="M84.758,147.324l-4.001,-0.664c-0.663,1.333 -0.663,2.667 0,4.664l16.651,17.985l4,0.663c1.334,-0.663 1.334,-1.997 0.664,-3.994l-17.314,-18.654Z" style="fill-rule:nonzero;"/><path d="M69.439,116.024c-2.667,-1.333 -5.334,0 -7.994,1.997c-2.667,1.333 -4,3.33 -4.664,5.991c-0.663,2.667 1.334,7.331 5.327,12.658c3.331,5.997 7.331,9.328 13.321,11.324l7.33,1.333l1.328,-7.994c0,-5.327 -1.328,-11.324 -4.658,-15.981c-3.999,-5.998 -7.329,-9.328 -9.99,-9.328Z" style="fill:#d96038;fill-rule:nonzero;"/><path d="M54.115,122.685l0,1.997c0,4 2.003,8.657 5.333,13.991c4.657,5.991 9.321,9.321 15.317,11.318l7.994,1.333l2.661,-1.333l1.997,-7.988c0,-5.997 -1.997,-12.658 -5.991,-18.655c-4,-5.327 -7.993,-9.328 -11.987,-10.654c-2.667,-0.664 -5.998,0 -9.991,3.33c-3.33,1.997 -5.333,4.657 -5.333,6.661Zm5.333,1.327l3.33,-3.994c2.661,-1.997 4.657,-1.997 5.991,-1.997c1.996,0.67 5.326,3.33 8.657,8.657c2.667,4.664 4.663,9.328 4.663,13.985l-1.333,5.334c-6.661,0 -11.987,-3.994 -16.651,-9.991c-3.33,-4.664 -4.657,-7.994 -4.657,-11.324l0,-0.67Z" style="fill-rule:nonzero;"/><path d="M90.748,102.703c-1.327,-1.333 -2.66,-1.333 -3.994,-1.333c-1.333,1.333 -2.666,1.997 -1.333,4l11.987,22.642c1.334,1.333 2.004,1.333 3.33,1.333c2.004,-1.333 2.004,-2.667 1.334,-3.994l-11.324,-22.648Z" style="fill-rule:nonzero;"/><path d="M82.76,68.066c-2.003,-0.67 -4.663,-0.67 -7.994,0c-3.33,1.333 -5.326,3.33 -5.996,5.327c-1.334,2.667 -0.664,7.994 1.996,13.985c2.004,5.997 5.334,10.661 9.991,13.991l6.661,2.66l3.33,-6.661c2.004,-5.991 2.004,-11.318 0,-17.315c-2.66,-6.659 -5.327,-9.99 -7.988,-11.987Z" style="fill:#d96038;fill-rule:nonzero;"/><path d="M84.088,66.069c-2.661,-1.333 -5.991,-1.333 -9.992,0c-4.656,1.997 -6.66,3.331 -7.986,6.661c-1.334,3.331 -0.67,8.658 1.996,15.318c3.994,10.661 10.654,16.652 19.312,18.649c1.333,0 2.003,0 2.666,-0.664c5.998,-7.994 5.998,-16.651 2.668,-26.643c-2.004,-6.66 -5.334,-11.324 -8.664,-13.321Zm-7.988,5.327l5.327,-0.67c2.661,1.34 4.664,4.67 5.991,10.661l2.003,8.657c0,3.331 -0.67,7.324 -2.667,11.325c-5.997,-1.996 -10.654,-6.66 -13.984,-14.654c-1.334,-3.994 -2.004,-7.324 -2.004,-9.991c0,-1.997 2.004,-3.994 5.334,-5.328Z" style="fill-rule:nonzero;"/><path d="M118.724,141.333c-1.333,-1.333 -2.66,-1.333 -3.33,0l-17.985,17.985c-1.326,1.997 -1.326,3.331 0,3.994c2.004,1.333 3.33,1.333 4,0l17.315,-18.648c1.333,-0.67 1.333,-1.997 0,-3.331Z" style="fill-rule:nonzero;"/><path d="M146.036,125.352c0.663,-2.003 -0.67,-4 -3.33,-7.331c-2.667,-1.997 -4.664,-3.331 -6.661,-3.331c-3.33,0 -7.33,2.661 -11.994,7.331c-4.657,3.994 -7.987,9.321 -8.657,15.981l0,6.661c7.994,1.997 15.317,0 23.312,-7.331c4.663,-4.656 7.33,-9.32 7.33,-11.98Z" style="fill:#d96038;fill-rule:nonzero;"/><path d="M140.039,139.336c5.327,-4.664 8.657,-9.991 8.657,-13.321c0.67,-3.331 -1.333,-6.661 -3.993,-9.328c-2.668,-3.33 -5.998,-4.657 -9.328,-3.994c-3.33,0 -7.994,2.667 -13.32,7.324c-5.328,4.664 -7.994,10.654 -9.322,16.651l0,8.664l1.998,1.99c9.32,2.005 17.984,-0.662 25.308,-7.986Zm-3.994,-21.315c0.664,-0.67 2.66,0 4.658,1.997c2.003,2.003 2.666,3.33 2.666,4.664c0,2.66 -2.666,6.661 -7.324,10.661c-5.334,5.321 -11.324,7.324 -18.654,7.324l0,-1.333c0,-6.661 3.33,-11.988 7.994,-17.321c4,-4.659 7.994,-5.992 10.66,-5.992Z" style="fill-rule:nonzero;"/><path d="M121.391,185.96l-4,0l-15.982,19.982c-0.67,1.327 -0.67,2.667 0.664,3.33l4,0l15.982,-19.981c0.67,-1.333 0.67,-2.667 -0.664,-3.331Z" style="fill-rule:nonzero;"/><path d="M148.033,165.979c0,-2.667 -1.334,-4.664 -4,-6.661c-2.66,-2.667 -4.658,-3.33 -7.324,-3.33c-2.667,0 -7.324,3.33 -11.324,8.657c-3.994,4.664 -5.991,9.991 -6.661,15.982l0.67,7.331l7.324,-0.67c5.997,-1.327 10.654,-4.657 15.317,-9.321c4.001,-5.328 6.661,-9.321 5.998,-11.988Z" style="fill:#d96038;fill-rule:nonzero;"/><path d="M146.036,156.651c-3.33,-3.331 -6.661,-3.994 -9.991,-3.331c-3.33,0.663 -7.994,3.331 -12.657,9.328c-7.324,8.657 -9.327,16.651 -5.997,25.979l2.003,1.99l7.987,-0.664c6.661,-1.997 11.994,-5.327 15.988,-9.991c5.327,-5.327 7.324,-10.654 7.324,-13.985c0,-3.329 -1.327,-6.659 -4.657,-9.326Zm-24.645,25.316c0,-5.997 1.997,-11.331 5.99,-15.988c4,-4.664 7.331,-6.661 9.328,-7.324c1.996,-0.67 3.33,0.663 5.997,2.66l2.66,4.664c0,1.997 -1.997,5.997 -5.327,9.991c-5.327,6.661 -11.324,9.327 -17.984,9.327l-0.664,-3.33Z" style="fill-rule:nonzero;"/><path d="M129.385,231.921c-2.004,-0.67 -3.33,-0.67 -4,1.327l-11.324,22.649c-1.328,1.327 0,1.997 1.333,3.33c1.997,0.664 2.667,0 3.33,-1.333l11.987,-21.979c0.67,-2.003 0,-3.33 -1.326,-3.994Z" style="fill-rule:nonzero;"/><path d="M150.693,205.942c0,-2.003 -1.997,-3.331 -4.657,-5.334l-7.994,-1.327c-2.667,1.327 -5.997,5.327 -9.327,10.654c-2.66,5.997 -3.994,11.324 -2.66,17.315l1.996,7.331l7.324,-1.997c4.664,-2.667 8.658,-6.661 11.988,-12.658c2.666,-5.996 4.664,-10.654 3.33,-13.984Z" style="fill:#d96038;fill-rule:nonzero;"/><path d="M126.055,209.272c-4.664,9.328 -5.334,18.648 0,26.643l1.996,0.664c9.321,-0.664 16.652,-5.327 21.979,-15.318c3.331,-6.661 3.994,-11.324 3.331,-15.318c0,-2.667 -2.667,-5.334 -6.661,-7.994l-9.99,-1.333c-3.995,2.002 -7.325,5.996 -10.655,12.656Zm3.33,21.979l-1.334,-7.994c0,-3.994 1.334,-7.988 2.66,-11.988c3.331,-5.327 5.334,-8.658 7.994,-9.321l5.328,0.663c3.33,1.997 4.663,3.331 4.663,5.998l-3.33,10.654c-3.993,6.661 -9.321,10.655 -15.981,11.988Z" style="fill-rule:nonzero;"/><path d="M88.751,199.282l-3.993,0c-0.67,0.664 -0.67,1.997 0.663,3.33l18.648,17.315c1.333,1.333 2.003,1.333 3.33,0c1.333,-1.997 1.333,-3.33 0,-3.994l-18.648,-16.651Z" style="fill-rule:nonzero;"/><path d="M58.778,175.97c-2.66,1.997 -3.331,4.657 -3.331,6.661c0.671,3.33 3.331,7.324 7.994,11.988c4.664,4.664 9.992,6.66 15.988,6.66l7.324,0l-0.663,-7.994c-0.67,-5.327 -3.331,-10.654 -8.664,-14.648c-4.657,-4 -8.657,-6.661 -11.987,-6.661c-2.661,0 -4.664,1.327 -6.661,3.994Z" style="fill:#d96038;fill-rule:nonzero;"/><path d="M89.421,192.621c-2.003,-5.997 -5.333,-11.324 -9.991,-15.988c-5.334,-5.327 -9.99,-7.324 -13.99,-7.324c-2.661,0 -5.991,1.327 -9.321,4.657c-2.667,3.33 -3.331,6.661 -3.331,9.327c0,3.994 3.331,7.994 9.321,13.321c4.664,4.664 10.661,6.661 17.321,7.994l7.988,-1.333l2.003,-1.997l0,-8.657Zm-13.321,-11.994c5.327,5.333 7.988,10.661 7.988,17.991c-5.991,1.327 -11.988,-0.67 -18.648,-5.997c-4.664,-4.664 -7.324,-7.994 -7.324,-9.991c0,-2.003 0.663,-3.331 2.66,-4.664c1.333,-1.997 3.33,-3.33 4.664,-3.33c1.996,0 5.996,1.997 10.66,5.991Z" style="fill-rule:nonzero;"/><path d="M98.742,247.903c-1.334,0 -2.66,0 -3.33,1.333c-1.334,1.997 -1.334,3.33 0.67,3.33l21.309,13.321c2.003,0.664 3.33,0.664 4,-1.333c1.334,-1.333 1.334,-1.997 -0.67,-3.33l-21.979,-13.321Z" style="fill-rule:nonzero;"/><path d="M64.105,231.921c-1.327,2.66 -1.997,5.991 -1.327,7.324c1.327,3.331 4.657,6.661 10.655,9.991c5.326,3.33 10.654,3.994 17.314,3.33c2.666,0 5.334,-1.333 6.66,-2.003l-1.326,-7.324c-2.668,-5.327 -6.661,-9.328 -11.994,-11.988c-5.991,-4 -10.654,-5.327 -13.985,-4.664c-2.666,0 -3.993,2.667 -5.997,5.334Z" style="fill:#d96038;fill-rule:nonzero;"/><path d="M85.421,228.591c-6.661,-4 -11.325,-5.333 -15.318,-4.67c-2.667,0.67 -5.997,2.667 -7.994,6.661c-2.66,4 -2.66,7.331 -1.333,10.661c1.333,3.33 5.334,6.661 11.324,9.991c9.99,5.327 18.648,5.991 26.643,1.333l1.333,-2.003c-0.664,-9.322 -5.328,-16.652 -14.655,-21.973Zm-14.655,0.663c2.668,0 6.661,0.664 11.994,3.994c6.661,3.331 9.992,9.328 11.318,15.988c-5.327,2.667 -11.988,1.997 -19.313,-2.667c-5.996,-3.33 -9.326,-6.661 -9.326,-9.328l1.333,-3.994l3.994,-3.993Z" style="fill-rule:nonzero;"/><path d="M170.012,248.573l-6.66,-9.328l-9.991,5.327c-6.661,5.328 -10.654,11.988 -12.657,18.648c-1.328,7.994 -0.664,14.655 3.33,21.315l6.66,7.994c3.33,-0.663 6.66,-1.334 9.99,-3.994c6.661,-4 10.662,-10.661 12.658,-17.321c1.334,-7.993 0,-15.317 -3.33,-22.641Z" style="fill:#858585;fill-rule:nonzero;"/><path d="M165.348,237.242l-2.66,-0.663c-3.33,1.333 -7.33,3.33 -11.324,5.997c-7.33,5.997 -11.324,12.658 -13.321,19.982c-1.997,8.657 -0.67,15.988 3.993,23.312l7.331,8.658l2.661,0.67c1.996,0 5.326,-1.34 10.66,-4.671c6.66,-4.657 11.318,-11.317 13.321,-19.312c1.327,-7.994 0.663,-15.318 -3.33,-23.312l-7.331,-10.661Zm5.328,27.312l-0.664,5.327c-1.997,9.991 -7.994,16.652 -17.984,19.319c-5.991,-4.664 -9.321,-11.325 -9.321,-19.982l0.663,-4.664c1.997,-9.321 8.658,-16.651 19.318,-21.979c5.327,5.998 7.988,13.322 7.988,21.979Z" style="fill-rule:nonzero;"/><path d="M152.027,290.526c-1.998,-0.663 -2.661,0 -3.331,1.341l-3.33,13.32c-0.663,1.991 0,2.661 1.333,3.331l3.33,-2.004l3.331,-12.657c0.663,-1.99 0,-3.331 -1.333,-3.331Z" style="fill-rule:nonzero;"/><path d="M203.979,284.536l-6.661,-8.657l-9.32,5.997c-7.331,5.99 -11.325,11.981 -11.988,19.312c-2.003,6.661 0,13.991 3.993,20.652c2.668,3.33 4.664,5.99 6.661,7.987l9.991,-4.657c6.66,-4.67 9.991,-10.661 11.987,-17.991c1.334,-7.325 0,-14.649 -4.663,-22.643Z" style="fill:#858585;fill-rule:nonzero;"/><path d="M199.321,273.875l-2.667,-0.664l-10.654,6.662c-7.33,5.997 -11.324,12.658 -12.658,20.645c-1.333,7.331 0,15.325 3.994,22.648l7.994,8.664l2.667,0.664l10.654,-5.334c6.66,-5.32 10.66,-11.981 11.987,-19.312c2.004,-7.994 0,-15.981 -3.993,-23.982l-7.324,-9.991Zm-12.658,11.994c3.33,-2.666 6.661,-4.663 9.991,-6.66c6.66,7.987 9.991,15.318 9.991,22.648l-0.664,4.657c-2.003,9.328 -7.994,15.988 -18.654,20.646c-5.991,-6.66 -9.321,-13.321 -9.321,-21.309l0.664,-4.664c0.67,-5.327 4,-9.991 7.993,-15.318Z" style="fill-rule:nonzero;"/><path d="M187.327,327.16c-1.327,0 -1.997,0.67 -2.661,2.003l-3.33,13.321c-0.67,1.997 0.664,2.667 1.997,2.667c1.997,0.664 3.33,0 3.33,-1.34l3.33,-13.321c0,-1.99 -0.663,-2.66 -2.666,-3.33Z" style="fill-rule:nonzero;"/><path d="M241.281,317.169l-7.33,-9.32l-8.658,6.66c-6.66,5.991 -11.324,12.651 -11.987,19.981c-0.663,6.661 0.663,13.991 5.327,20.652l7.331,7.324l9.32,-4.664c5.997,-5.327 9.991,-11.324 11.324,-18.648c0.664,-7.324 -0.663,-14.654 -5.327,-21.985Z" style="fill:#858585;fill-rule:nonzero;"/><path d="M235.954,305.852l-2.667,0l-10.654,6.66c-6.66,5.997 -10.66,13.321 -11.994,21.309c-0.663,8.001 0.67,15.325 5.997,22.649l7.324,7.994l2.667,0.67l9.991,-5.997c6.66,-4.664 10.654,-11.325 11.987,-19.982c1.334,-7.324 0,-15.324 -5.327,-23.312l-7.324,-9.991Zm7.987,28.638l-0.663,4.001c-1.333,9.99 -6.66,16.651 -16.651,20.646c-7.324,-4.664 -10.654,-11.995 -10.654,-20.646l0,-4.001c1.327,-9.99 7.324,-17.321 17.314,-23.312c7.324,7.995 10.654,15.982 10.654,23.312Z" style="fill-rule:nonzero;"/><path d="M223.96,360.463c-0.663,0.67 -0.663,0.67 -0.663,1.34l-2.667,13.321c-0.664,0.664 0,1.99 0,2.66l2.003,0.671l3.331,-2.004l2.66,-13.321c0,-1.997 -0.664,-2.667 -1.997,-2.667l-2.667,0Z" style="fill-rule:nonzero;"/><path d="M256.6,395.106l8.657,6.66c2.667,-1.34 5.327,-3.33 7.994,-6.66c5.997,-5.334 8.657,-11.994 8.657,-19.982c0,-7.33 -2.66,-13.991 -8.657,-20.651l-7.994,-7.331l-8.657,7.331c-5.327,6.66 -7.994,13.321 -7.994,20.651c-0.001,7.324 2.666,13.985 7.994,19.982Z" style="fill:#858585;fill-rule:nonzero;"/><path d="M266.591,344.481c-0.664,-0.67 -1.334,-0.67 -2.667,0l-9.321,7.994c-5.327,7.324 -8.657,15.318 -8.657,22.648c0,8.651 3.33,15.312 8.657,21.973c3.994,4 7.324,5.997 9.321,7.33l2.667,0c3.33,-1.996 5.997,-4 9.327,-7.33c5.327,-6.661 7.987,-13.321 7.987,-21.973c0.67,-7.33 -1.997,-14.661 -7.987,-21.985l-9.327,-8.657Zm-9.991,13.992c2.667,-3.33 5.997,-5.997 8.657,-8c8.658,7.33 13.991,15.324 13.991,24.651c0,10.654 -5.333,18.643 -13.991,23.313l-8.657,-7.331c-3.33,-4 -5.327,-9.99 -5.327,-15.981c-0.001,-5.334 1.997,-10.661 5.327,-16.652Z" style="fill-rule:nonzero;"/><path d="M265.257,399.1c-1.997,-0.663 -2.66,0 -2.66,1.997l-0.67,13.991c0,1.99 0.67,2.66 1.997,2.66c2.003,0 2.667,-0.67 2.667,-2.66l0.663,-13.321c0,-1.34 -0.663,-2.667 -1.997,-2.667Z" style="fill-rule:nonzero;"/><path d="M315.882,404.427l-6.661,-8.657l-9.327,5.997c-6.66,5.991 -10.654,11.981 -12.658,19.312c-0.663,6.661 0,13.991 4.664,20.652c1.997,3.33 4.664,5.99 7.331,7.987l9.32,-4.657c6.661,-4.67 10.661,-10.661 11.324,-17.991c1.997,-7.325 0,-14.649 -3.993,-22.643Z" style="fill:#858585;fill-rule:nonzero;"/><path d="M311.218,393.767l-2.667,-0.664l-11.324,6.661c-6.66,5.333 -10.654,12.657 -11.987,20.645c-1.997,7.331 0,15.325 4.663,22.649c2.667,4.663 5.327,7.994 7.324,8.664l2.667,0c2.667,0 5.997,-1.34 9.991,-4.671c7.324,-5.32 11.324,-11.981 13.321,-19.312c0.663,-7.994 0,-15.981 -4.664,-23.982l-7.324,-9.99Zm6.661,27.982l-0.67,4.657c-1.327,9.327 -7.324,15.987 -17.315,20.645c-6.66,-6.66 -9.991,-13.321 -9.991,-21.309l0,-4.664c1.997,-9.32 8.658,-16.651 18.648,-22.642c6.661,7.325 9.328,15.312 9.328,23.313Z" style="fill-rule:nonzero;"/><path d="M299.894,447.051c-1.997,0 -3.33,0.67 -3.33,2.004l-3.33,13.321c0,1.996 0,2.667 1.996,2.667c1.334,0.663 3.331,0 3.331,-1.341l3.33,-13.32c0,-1.991 -0.664,-2.661 -1.997,-3.331Z" style="fill-rule:nonzero;"/><path d="M346.518,449.718l-3.993,-10.654l-10.661,4.657c-7.994,3.33 -13.321,8.664 -15.981,15.324c-2.667,7.324 -2.667,14.648 0,21.979c1.327,3.33 3.33,6.66 4.657,9.32l10.66,-2.66c7.324,-3.33 11.988,-8.657 15.318,-15.318c2.667,-7.323 2.667,-14.654 0,-22.648Z" style="fill:#858585;fill-rule:nonzero;"/><path d="M313.215,458.382c-3.33,7.324 -3.33,15.312 0,23.313c1.997,5.99 3.994,9.32 5.997,9.99l1.327,0.664l11.994,-2.667c7.324,-3.994 13.321,-8.657 16.651,-15.988c2.66,-7.987 2.66,-15.981 0.663,-24.639c-1.996,-5.334 -3.993,-9.328 -5.997,-11.324c0,-0.67 -0.663,-0.67 -1.996,-0.67l-11.988,4c-7.994,4 -13.321,9.991 -16.651,17.321Zm3.33,11.981c0,-3.33 0,-5.991 1.997,-9.321c3.33,-9.32 10.661,-15.317 21.979,-18.648c3.33,5.997 5.334,11.988 5.334,18.648l-2.004,9.991c-3.993,9.321 -10.654,13.991 -21.979,16.651c-3.33,-5.99 -5.327,-11.324 -5.327,-17.321Z" style="fill-rule:nonzero;"/><path d="M321.872,487.685c-1.333,-0.67 -1.997,0 -3.33,1.334l-5.99,12.657c-0.671,1.327 0,2.66 1.326,3.33c2.004,0.664 2.667,0 3.331,-1.34l5.997,-12.651c0.663,-1.333 0,-2.661 -1.334,-3.33Z" style="fill-rule:nonzero;"/><path d="M301.891,293.857c-1.997,-9.991 -4.664,-24.639 -6.661,-44.621c-3.33,-29.31 -7.994,-51.288 -12.651,-65.279c-8.663,-22.642 -23.312,-43.958 -44.627,-63.276l-31.306,-24.639l-3.331,0.663c-0.663,1.333 -0.663,2.667 0.664,3.994l29.309,23.312c21.315,19.318 35.971,40.633 43.958,61.949c5.333,13.985 9.327,35.3 12.657,63.276c1.997,20.645 3.994,36.633 6.661,45.961c4.663,16.651 11.324,30.636 20.646,42.624c19.318,23.981 42.63,47.957 69.272,73.267c1.997,0.67 3.33,0.67 3.994,0l0.67,-2.66l-1.334,-1.34c-26.643,-24.64 -49.291,-49.285 -68.603,-72.598c-8.657,-11.987 -14.655,-25.308 -19.318,-40.633Z" style="fill-rule:nonzero;"/><path d="M180.002,72.73c-2.666,0 -3.993,1.997 -5.996,4.657c-1.997,2.667 -2.66,5.334 -1.997,7.331c0.67,3.331 4,6.661 9.991,10.661c4.663,3.994 10.66,4.657 15.987,4.657l7.324,-1.997l-1.333,-6.661c-1.327,-5.327 -5.327,-9.991 -10.654,-13.321c-5.997,-4 -9.991,-5.327 -13.322,-5.327Z" style="fill:#d96038;fill-rule:nonzero;"/><path d="M194.657,75.397c-5.997,-4 -11.324,-5.997 -15.317,-5.333c-2.668,0 -5.334,2.667 -7.331,5.997c-2.661,3.33 -3.331,6.661 -2.661,9.991c0.664,3.331 4.658,7.324 10.654,11.318c5.998,4 11.988,5.334 18.649,5.334l7.994,-1.333l1.333,-2.661c0.664,-9.328 -4.664,-17.322 -13.321,-23.313Zm-20.651,7.988c0,-1.327 1.333,-2.667 2.003,-3.994l3.993,-3.994c2.668,-0.67 6.661,0.664 11.988,4.657c6.661,4.664 9.991,9.328 10.661,16.651c-5.997,2.667 -12.658,1.333 -19.318,-3.994c-5.997,-3.329 -9.327,-6.66 -9.327,-9.326Z" style="fill-rule:nonzero;"/><path d="M241.945,109.363c-0.664,-1.333 -1.997,-2.003 -3.331,-1.333c-1.996,0 -1.996,1.333 -1.996,3.33l8.657,23.312c0.67,1.997 1.333,1.997 3.33,1.997c1.334,-0.664 1.997,-1.997 1.334,-3.331l-7.994,-23.975Z" style="fill-rule:nonzero;"/><path d="M235.284,74.727c-1.997,-1.333 -4.663,-1.333 -7.994,0c-3.33,0.67 -5.327,1.997 -6.66,4.664c-0.664,2.667 -0.664,7.324 2.003,13.321c1.997,6.661 5.327,10.654 9.991,13.985c2.66,2.003 4.657,3.33 6.66,3.33l3.331,-6.661c1.996,-5.327 1.996,-10.654 0,-17.315c-2.667,-5.997 -4.664,-9.99 -7.331,-11.324Z" style="fill:#d96038;fill-rule:nonzero;"/><path d="M236.618,72.73l-9.991,-1.333c-3.33,1.333 -6.661,3.331 -7.324,5.991c-2.667,4 -2.003,8.664 0.663,16.652c2.667,5.997 5.998,11.331 11.325,15.324l7.323,3.331l2.667,-0.664c5.991,-7.331 7.324,-15.988 3.994,-25.979c-1.997,-7.324 -5.327,-11.325 -8.657,-13.322Zm-7.994,3.994c1.997,-0.664 4,-0.664 5.327,0c2.003,1.333 4,4.664 5.997,10.654l1.333,8.664c0,3.994 -1.333,7.987 -2.667,10.654c-6.66,-2.667 -11.324,-7.324 -13.321,-13.985l-1.996,-9.991l0,-3.331c0.663,-1.332 2.667,-2.002 5.327,-2.665Z" style="fill-rule:nonzero;"/><path d="M218.633,122.685c-1.997,-0.663 -2.66,0 -3.33,1.997c0,1.333 0.67,2.66 1.997,3.33l25.315,3.331c1.326,0.67 2.66,0 3.33,-1.997c0,-1.333 -0.67,-2.667 -2.667,-3.33l-24.645,-3.331Z" style="fill-rule:nonzero;"/><path d="M183.996,111.36c-1.326,1.333 -2.66,3.33 -3.33,6.661c-0.664,4 -0.664,6.661 1.334,7.994c1.333,2.667 5.997,4.657 12.657,5.327c5.99,1.333 11.988,0.67 17.315,-1.997l5.997,-4.664l-4.664,-5.327c-3.33,-4.664 -8.657,-7.994 -14.654,-8.664l-14.655,0.67Z" style="fill:#d96038;fill-rule:nonzero;"/><path d="M180.002,128.012c1.998,3.331 6.661,4.664 13.985,6.661c11.324,1.333 19.318,-1.333 25.979,-7.994l0,-2.667l-3.993,-7.324c-4.664,-3.994 -9.991,-7.324 -16.651,-8.657l-15.988,1.333c-3.331,1.327 -4.663,3.994 -5.327,8.658c-0.671,3.999 -0.001,7.993 1.995,9.99Zm5.998,-14.655l11.987,0c7.994,1.333 13.985,5.333 16.651,11.324c-4.663,4 -11.324,5.327 -19.318,4.664c-8.657,-2.003 -11.987,-4.664 -11.987,-7.994l0,-2.66c0,-2.667 1.333,-4.001 2.667,-5.334Z" style="fill-rule:nonzero;"/><path d="M239.948,151.994c-1.334,0 -2.667,0.663 -2.667,2.66c-0.663,1.333 0,2.66 2.667,2.66l25.309,2.003c1.334,0 1.997,-1.333 1.997,-3.33l-0.663,-1.333c0,-0.67 -0.664,-1.333 -1.334,-1.333l-25.309,-1.327Z" style="fill-rule:nonzero;"/><path d="M205.312,144.664c-1.997,1.333 -2.66,3.33 -3.33,6.661c0,4 0.67,6.66 1.997,7.994c2.667,1.997 6.66,3.331 13.321,3.994c5.997,0.663 11.994,-0.664 16.651,-3.994l5.997,-4.664l-4.664,-5.327c-4.663,-3.994 -9.991,-6.661 -15.981,-6.661l-13.991,1.997Z" style="fill:#d96038;fill-rule:nonzero;"/><path d="M219.303,139.336c-7.33,0 -12.657,0 -15.988,2.667c-1.996,1.327 -3.33,4.657 -3.993,9.321c0,4.664 0.663,7.994 2.66,9.991c2.667,1.997 7.994,4 15.318,4.664c11.324,0.664 19.318,-2.667 24.646,-9.991l0.67,-2.667l-5.997,-6.661c-4.665,-3.993 -9.992,-6.66 -17.316,-7.324Zm-12.657,6.661l12.657,-1.333c7.324,1.333 13.321,4 17.315,9.991c-5.997,4.664 -11.988,6.661 -19.318,5.991l-10.654,-2.661c-1.334,-1.333 -1.997,-1.997 -1.997,-4.664l0,-1.997c0.663,-1.997 1.332,-4 1.997,-5.327Z" style="fill-rule:nonzero;"/><path d="M285.239,193.285c0,-1.997 -0.664,-3.331 -2.661,-3.331l-24.646,-3.994c-1.333,0 -2.666,0 -3.33,1.997c0,1.333 0.664,3.33 1.997,3.33l25.309,4l3.331,-2.002Z" style="fill-rule:nonzero;"/><path d="M223.297,174.636c-1.334,1.333 -2.667,3.33 -3.331,6.661c-0.663,4 0,6.661 0.664,7.994c2.667,2.667 6.66,4.657 13.321,5.327c5.997,1.333 11.994,0.67 17.321,-1.997l5.99,-3.994l-3.993,-5.997c-3.994,-4.664 -9.328,-7.324 -15.318,-7.994l-14.654,0Z" style="fill:#d96038;fill-rule:nonzero;"/><path d="M252.605,195.288l6.661,-5.334l0.663,-1.997l-4.663,-7.331c-4.664,-4.657 -9.991,-7.988 -16.652,-9.321l-15.981,1.333c-2.667,1.327 -4,3.994 -5.333,8.658c-0.664,4 0,7.994 2.003,9.991c2.66,3.331 7.324,4.664 13.984,6.661c6.661,1.334 13.321,0 19.318,-2.66Zm-15.324,-18.655c7.994,1.333 13.321,5.334 16.651,11.325c-5.327,4.664 -11.987,5.327 -19.312,4.664c-7.994,-2.003 -11.988,-4.664 -11.988,-7.994l0,-2.66c0.664,-2.667 1.327,-4 2.66,-5.334l11.989,0l0,-0.001Z" style="fill-rule:nonzero;"/><path d="M292.569,231.921c0.664,-2.003 0,-2.667 -2.003,-2.667l-24.64,-4.664c-2.003,0 -2.667,0.67 -3.33,1.997c0,2.003 0.663,2.667 2.66,3.331l24.646,4.664c1.997,0 2.667,-0.67 2.667,-2.661Z" style="fill-rule:nonzero;"/><path d="M231.954,213.267c-1.997,1.333 -3.33,3.33 -3.994,6.66c-0.67,3.994 -0.67,5.998 1.334,7.994c1.327,2.661 5.99,4.664 12.651,5.327l17.321,-1.997l5.99,-4l-3.993,-5.991c-4.001,-4.664 -8.658,-7.331 -15.318,-8.657l-13.991,0.664Z" style="fill:#d96038;fill-rule:nonzero;"/><path d="M230.621,211.27c-3.331,1.333 -4.657,4.664 -5.328,8.657c-0.663,4.664 0,7.994 1.334,9.991c2.667,2.667 7.324,4.664 15.318,5.997c10.66,1.997 18.648,0 25.309,-6.661l0,-3.33c-3.33,-7.994 -9.991,-13.321 -20.646,-15.988l-15.987,1.334Zm-0.664,11.987l0.664,-1.997c0,-3.33 1.333,-4.664 2.666,-5.327c1.997,-1.333 5.997,-1.333 11.988,0c7.33,0.664 13.321,4.657 16.651,10.654c-5.327,4.664 -11.987,5.998 -19.312,4.664c-8.663,-1.997 -12.657,-4 -12.657,-7.994Z" style="fill-rule:nonzero;"/><path d="M263.924,122.685c-1.327,0 -1.997,0.664 -2.66,2.667l-2.667,24.639c0,2.667 0.67,3.33 1.997,3.33c2.003,0 2.666,-0.664 3.33,-1.997l2.667,-25.309c0,-2.003 0,-3.33 -2.667,-3.33Z" style="fill-rule:nonzero;"/><path d="M275.918,91.378c-0.67,-1.997 -3.33,-3.33 -6.66,-3.33c-3.331,-0.67 -5.998,0 -7.994,1.333c-1.997,1.997 -4.001,6.661 -4.664,13.321c-1.333,6.66 0,11.987 2.667,16.651l4.657,6.661l5.997,-4.664c3.994,-4.664 6.66,-9.991 7.324,-15.981c1.333,-6.66 0,-11.33 -1.327,-13.991Z" style="fill:#d96038;fill-rule:nonzero;"/><path d="M278.578,90.045c-1.997,-1.997 -5.327,-3.994 -9.32,-4.657c-4.001,-0.67 -7.331,0.664 -9.991,2.661c-2.667,1.997 -4.664,6.661 -5.997,14.655c-0.664,6.66 0.663,12.658 3.33,18.648l5.997,6.661l2.66,0c7.994,-4 13.321,-11.324 14.655,-21.979c0.663,-7.995 0,-13.322 -1.334,-15.989Zm-3.33,9.328l-0.663,5.327c-1.334,7.994 -4.664,13.321 -10.661,17.985c-3.33,-4.664 -5.327,-9.991 -5.327,-15.988l0.67,-3.994c0.663,-5.998 1.327,-9.328 3.993,-11.325c0.664,-0.67 2.667,-1.333 5.328,-0.67l4.663,1.34c0.664,1.327 1.997,3.994 1.997,7.325Z" style="fill-rule:nonzero;"/><path d="M286.572,158.655c-1.333,-0.67 -2.667,0.663 -3.33,1.99l-5.997,24.652c-0.664,1.327 0,2.661 2.003,2.661c1.327,0.67 3.33,0 3.33,-1.333l5.991,-24.639c0.67,-2.005 0,-2.668 -1.997,-3.331Z" style="fill-rule:nonzero;"/><path d="M302.561,129.345l-6.661,-4.664l-7.993,0c-2.667,1.997 -4.664,6.661 -6.661,13.321c-1.333,5.991 -1.333,11.324 1.333,16.651l3.331,6.661l6.66,-3.331c4.657,-4 7.324,-8.657 9.321,-15.318c1.333,-6.659 1.997,-11.323 0.67,-13.32Z" style="fill:#d96038;fill-rule:nonzero;"/><path d="M296.563,122.021l-9.991,0.663c-3.33,2.667 -5.997,7.324 -7.324,13.985c-3.33,11.324 -1.333,19.318 4.657,26.643l2.667,0.663l7.324,-4.657c5.334,-3.33 9.327,-9.327 10.661,-15.988c1.996,-6.661 1.996,-11.988 0.663,-15.318c-1.996,-3.33 -4.663,-5.327 -8.657,-5.991Zm-7.324,5.321l5.99,-0.664l4.001,2.667l1.326,3.994l-1.326,9.328c-2.004,7.324 -5.997,12.658 -12.658,15.318c-2.667,-4 -3.33,-8.657 -3.33,-12.651c0,-2.667 0,-4.67 0.663,-7.331c2.004,-5.327 3.33,-9.321 5.334,-10.661Z" style="fill-rule:nonzero;"/><path d="M301.891,195.951c-1.334,-0.663 -1.997,0 -3.33,1.327l-11.988,21.985c-1.333,1.997 -0.663,3.33 0.663,3.33c2.004,1.327 2.667,0.664 3.331,-0.664l12.657,-21.985c0.664,-1.996 0,-2.666 -1.333,-3.993Z" style="fill-rule:nonzero;"/><path d="M325.202,171.306c-0.663,-1.997 -2.66,-4 -5.327,-5.327c-3.33,-2.003 -5.997,-2.667 -7.994,-2.003c-2.66,0.67 -5.99,4.67 -9.32,10.661c-3.33,5.327 -4.664,11.324 -3.33,16.651l1.326,7.331l7.331,-2.003c5.327,-1.997 9.321,-6.661 12.651,-11.988c3.33,-5.327 5.333,-9.992 4.663,-13.322Z" style="fill:#d96038;fill-rule:nonzero;"/><path d="M323.206,185.96c3.33,-5.997 5.327,-11.324 3.993,-14.655c-0.663,-3.33 -2.66,-5.327 -6.66,-7.994c-3.33,-1.997 -6.661,-2.667 -9.991,-1.997c-3.33,1.333 -6.66,5.327 -10.654,11.324c-3.33,6.661 -4.664,12.658 -3.33,18.648l1.997,7.994l1.996,1.997c9.328,0.001 16.652,-5.326 22.649,-15.317Zm-10.654,-19.318c1.326,-0.664 3.33,-0.664 5.99,1.333c2.667,1.333 4,3.33 4,5.327l-4,9.991c-3.994,6.661 -9.321,11.325 -15.981,12.658l-1.334,-7.994c0,-4 1.334,-8.658 3.331,-11.988c2.66,-5.997 5.327,-8.663 7.994,-9.327Z" style="fill-rule:nonzero;"/><path d="M340.521,219.264l-1.327,-11.325l-11.324,0.67c-7.994,1.327 -14.654,5.99 -19.318,11.317c-4.663,5.998 -6.66,12.658 -5.327,20.646l1.997,10.661l10.661,0c7.324,-1.333 13.984,-5.327 18.648,-10.661c4.662,-5.99 6.659,-12.651 5.99,-21.308Z" style="fill:#858585;fill-rule:nonzero;"/><path d="M341.854,206.606l-1.997,-1.997l-12.658,1.333c-8.657,1.997 -15.318,5.997 -20.646,11.988c-4.663,6.661 -7.323,14.655 -6.66,22.642c0.663,4 1.333,8 3.33,11.331l1.334,1.327l11.987,0c8.657,-0.664 15.318,-4.657 19.982,-10.654c5.327,-6.661 7.323,-14.655 7.323,-23.312l-1.995,-12.658Zm-4.664,3.33l1.333,9.991c0,7.994 -1.996,13.985 -5.99,19.318c-5.997,6.661 -13.991,9.991 -25.315,9.328c-1.327,-4 -1.997,-7.331 -1.997,-10.661c0,-6.661 1.333,-11.988 5.327,-16.652c5.997,-7.33 15.324,-11.324 26.642,-11.324Z" style="fill-rule:nonzero;"/><path d="M306.554,248.573l-3.33,0.664l-11.324,15.988c-1.333,1.327 -0.663,2.661 0.67,3.994l3.994,-1.333l10.654,-15.318c1.333,-1.335 1.333,-2.668 -0.664,-3.995Z" style="fill-rule:nonzero;"/><path d="M273.915,281.206l9.327,-5.327l-3.33,-9.991c-3.331,-7.324 -7.994,-12.658 -14.655,-14.655c-7.324,-3.33 -14.654,-3.33 -22.642,0l-10.661,4.664l4.664,10.654c3.993,7.994 9.327,12.658 16.651,15.325l20.646,-0.67Z" style="fill:#858585;fill-rule:nonzero;"/><path d="M285.909,275.879c0,-3.331 -0.67,-7.324 -3.331,-11.325c-3.33,-7.994 -9.327,-13.321 -16.651,-16.651c-7.33,-2.66 -15.987,-2.66 -23.981,0c-5.327,1.997 -9.321,4.664 -11.324,5.991c-0.664,0.67 -1.327,2.003 -0.664,2.667l3.994,11.325c4.663,7.994 10.66,13.321 17.984,16.651c7.994,2.66 15.318,1.997 23.313,-0.67l9.991,-5.991l0.669,-1.997Zm-39.301,-23.313l17.315,0.664c9.327,3.33 14.654,10.654 16.651,21.315c-8.657,6.661 -17.979,7.994 -26.643,4.664c-8.657,-3.33 -14.648,-10.654 -18.648,-21.985c3.331,-2.661 7.332,-3.994 11.325,-4.658Z" style="fill-rule:nonzero;"/><path d="M299.23,281.206c0,-1.997 0,-3.331 -2.004,-3.331l-13.321,-4.664c-1.327,-0.664 -2.66,0 -3.33,1.333c-0.663,1.997 0,3.33 2.003,3.33l13.321,4.664c0.664,0.665 1.997,0.001 3.331,-1.332Z" style="fill-rule:nonzero;"/><path d="M298.561,321.84l-3.994,-9.328c-4.664,-6.66 -9.991,-11.324 -17.321,-12.657c-7.324,-1.997 -14.648,-1.327 -21.979,2.667l-9.991,5.997l5.327,9.99c5.334,7.324 11.994,11.981 18.655,13.321c7.323,1.99 13.984,0.664 21.309,-3.33l7.994,-6.66Z" style="fill:#858585;fill-rule:nonzero;"/><path d="M301.227,321.84c0,-2.667 -1.333,-5.997 -4.663,-10.661c-4.664,-7.331 -10.654,-11.988 -18.648,-13.991c-7.994,-1.99 -15.318,-1.327 -23.982,3.33l-10.654,6.661l0,2.003l5.997,11.318c4.657,7.33 11.318,11.994 19.313,13.99c7.993,1.997 15.317,0.671 23.312,-3.33c4.664,-2.66 7.994,-5.327 8.657,-6.66l0.668,-2.66Zm-24.646,-19.319c9.991,1.996 15.988,8.657 19.318,18.648c-7.993,7.993 -16.651,10.66 -25.979,7.993c-9.327,-2.003 -16.651,-8.663 -21.315,-19.981c9.992,-6.66 18.649,-8.663 27.976,-6.66Z" style="fill-rule:nonzero;"/><path d="M299.23,319.836c-2.004,-0.663 -2.667,0.664 -3.331,2.004c0,1.99 0.664,2.66 2.661,2.66l13.32,3.33l2.667,-1.997c0.664,-1.333 -0.67,-3.33 -1.996,-3.33l-13.321,-2.667Z" style="fill-rule:nonzero;"/><path d="M271.254,363.13l7.994,7.994c7.324,4.664 13.985,7.331 21.309,7.331c7.994,-0.671 13.991,-3.331 19.318,-9.328l6.661,-7.994l-6.661,-8.657c-6.66,-4.664 -13.321,-7.324 -20.645,-7.324c-7.331,0.664 -13.991,3.33 -20.652,9.321l-7.324,8.657Z" style="fill:#858585;fill-rule:nonzero;"/><path d="M328.533,361.803l0,-2.666l-7.994,-8.664c-5.991,-5.991 -13.321,-7.988 -21.309,-7.988c-7.994,0.664 -15.325,3.331 -21.985,9.991l-7.987,9.327l0,2.661l9.32,9.32c6.661,5.334 14.655,7.331 21.979,7.331c8.664,0 15.988,-3.331 21.315,-9.991l6.661,-9.321Zm-53.948,1.327c7.323,-9.327 15.317,-14.648 25.309,-15.318c9.327,0 17.315,4.001 23.313,13.321c-4.664,9.321 -12.658,13.991 -22.649,14.655c-10.656,0 -18.65,-3.994 -25.973,-12.658Z" style="fill-rule:nonzero;"/><path d="M342.524,359.137c0,-1.334 -1.334,-2.004 -2.667,-2.004l-13.985,0.67c-2.003,0.67 -2.666,1.334 -2.666,3.33c0,1.997 1.333,2.661 3.33,2.661l13.321,-1.327l2.667,-3.33Z" style="fill-rule:nonzero;"/><path d="M307.218,394.437l7.33,9.32c5.991,5.334 13.321,8.001 21.315,8.664c7.324,0 13.984,-2.003 19.313,-7.994l6.66,-7.33l-5.327,-8.651c-5.997,-5.997 -12.658,-8.664 -19.981,-9.327c-7.324,0 -13.985,2.667 -21.315,7.987l-7.995,7.331Z" style="fill:#858585;fill-rule:nonzero;"/><path d="M364.503,395.77l-6.661,-9.327c-5.997,-5.997 -13.321,-9.328 -21.314,-9.328c-7.994,-0.663 -15.988,2.004 -22.649,7.331c-3.993,3.33 -6.66,5.99 -8.657,9.321c-0.663,0.67 -0.663,1.34 0,2.666l7.994,9.328c6.66,5.997 13.984,8.657 21.979,9.327c7.994,0 15.318,-2.667 21.315,-8l7.994,-9.321l0,-1.997l-0.001,0Zm-27.976,-13.985c9.99,0.663 17.314,5.32 22.648,15.312c-5.997,8.664 -13.991,13.321 -23.313,12.657c-9.327,-0.663 -17.321,-5.327 -25.315,-14.647c7.332,-9.329 15.989,-13.322 25.98,-13.322Z" style="fill-rule:nonzero;"/><path d="M378.487,397.097c0,-1.99 -0.663,-2.66 -2.66,-2.66l-13.991,0c-1.333,0 -1.997,0.67 -1.997,2.66c0,1.34 0.664,2.003 1.997,2.003l13.991,0c1.997,0 2.66,-0.663 2.66,-2.003Z" style="fill-rule:nonzero;"/><path d="M349.848,274.545l-3.33,-11.325l-10.654,2.667c-8.664,1.997 -13.991,6.661 -18.654,12.658c-3.994,5.991 -4.657,13.322 -3.331,21.309l3.331,9.99l10.66,-1.326c7.994,-1.34 13.985,-5.997 17.985,-11.994c3.993,-5.998 5.327,-13.985 3.993,-21.979Z" style="fill:#858585;fill-rule:nonzero;"/><path d="M316.545,311.849l12.658,-0.67c7.324,-1.997 13.984,-6.661 17.979,-13.321c4.663,-6.661 5.997,-14.654 5.333,-23.312l-2.667,-11.988l-3.33,-1.333c-3.33,0 -7.324,0 -11.987,1.997c-8.658,2.667 -14.655,7.324 -19.318,13.985c-4.664,7.331 -5.327,13.991 -3.994,22.649l3.994,11.324l1.332,0.669Zm-0.663,-17.992c0,-5.321 1.327,-9.321 3.993,-13.985c5.327,-7.988 13.321,-12.658 25.31,-13.985l1.997,13.321c0,5.997 -0.664,11.317 -3.994,15.988c-4.664,7.987 -13.321,11.981 -23.976,11.981c-2.667,-4.656 -3.33,-9.32 -3.33,-13.32Z" style="fill-rule:nonzero;"/><path d="M319.212,307.849c-2.003,-1.334 -2.667,-1.334 -4,0l-7.994,11.324c-0.664,1.997 -0.664,2.667 0.67,3.993l3.993,-0.663l7.994,-11.324c0.664,-0.67 0,-2.66 -0.663,-3.33Z" style="fill-rule:nonzero;"/><path d="M377.154,310.509l-2.66,-11.318l-11.325,1.997c-7.993,2.66 -13.984,6.661 -17.984,13.321c-4.664,6.661 -5.327,13.321 -3.994,20.652c1.334,3.993 1.997,7.323 3.994,9.99l9.991,-0.67c7.993,-1.997 13.32,-5.99 17.984,-11.987c3.33,-6.661 5.327,-13.985 3.994,-21.985Z" style="fill:#858585;fill-rule:nonzero;"/><path d="M361.836,298.527c-8.657,2.66 -14.654,7.324 -18.648,14.648c-4.664,6.66 -6.66,14.654 -4.664,22.648l4.001,11.317l1.996,0.67l11.988,-0.67c7.994,-1.99 14.654,-5.99 18.648,-13.321c4.664,-6.66 5.997,-14.647 4.664,-23.312l-3.331,-12.651l-1.996,-1.333c-4.001,0.001 -7.994,0.665 -12.658,2.004Zm10.661,3.33c1.997,3.994 2.66,8.651 2.66,13.321c0,5.991 -1.997,11.318 -4.664,15.981c-2.66,4.664 -7.324,7.994 -13.321,9.991l-10.654,1.333c-2.667,-3.33 -3.33,-7.323 -3.33,-13.321c0,-4.663 1.333,-8.663 3.994,-13.32c5.997,-7.993 13.991,-12.657 25.315,-13.985Z" style="fill-rule:nonzero;"/><path d="M346.518,343.812l-3.993,0.67l-7.331,10.661c-1.333,1.99 -1.333,2.66 0.67,3.33c0.664,1.327 1.997,1.327 3.33,-0.67l7.324,-10.661c1.334,-1.991 1.334,-2.661 0,-3.33Z" style="fill-rule:nonzero;"/></g></g><rect id="PATH77" x="2.92" y="2.74" width="366.67" height="582.52" style="fill:none;stroke:#000;stroke-width:3px;"/></svg>