<svg id="Card" xmlns="http://www.w3.org/2000/svg" viewBox="0 0 1024 1680"><defs><style>.cls-1{fill:#f2f0ed;}.cls-2{fill:#8c1707;}.cls-3{fill:#593831;}.cls-4{fill:#d82e21;}.cls-5{fill:#f79d31;}</style></defs><rect class="cls-1" x="14.5" y="14.5" width="995" height="1651"/><polygon class="cls-2" points="966 1619.17 966 60.83 1018 8.83 1018 1671.17 966 1619.17"/><polygon class="cls-2" points="60.83 58 8.83 6 1015.17 6 963.17 58 60.83 58"/><polygon class="cls-2" points="8.83 1674 60.83 1622 963.17 1622 1015.17 1674 8.83 1674"/><path class="cls-3" d="M95.93,1618l2.86-3.31a88.57,88.57,0,0,1,9.73-9.86c9.59-8.12,21.09-17.51,33.56-25.49,13.5-8.65,28.53-14.09,43.06-19.35,9.59-3.47,19.49-7,28.77-11.49,20.51-9.83,36.6-25.59,50.93-41.15.48-.53.74-2.38.42-4.46h0a1.08,1.08,0,0,0-.77.4c-10.9,11.86-24.07,21.17-36.81,30.16-2.3,1.63-4.6,3.25-6.89,4.89-6.44,4.61-15,10.13-23.87,11.83-13.56,2.58-27.18,7.52-42.88,15.55-23.4,12-44.7,29.31-63.32,51.56l-.6.72H62v-21.55l.6-.59c9.13-8.9,17.59-18.64,25.78-28.06l4.31-5c9-10.23,16.71-21.81,24.21-33s15.24-22.76,24.29-33.22c24-27.75,51.7-54.09,84.73-80.51,18.29-14.64,41.69-34.68,60.47-59.9.68-.92,1.62-2.68.23-4.16a2.35,2.35,0,0,0-.47-.39,7.79,7.79,0,0,0-1.19,1.27c-.28.34-.55.67-.81.95-1.53,1.65-3,3.4-4.52,5.09l-.07.09c-1.6,1.85-3.26,3.76-5,5.61-15.44,16.49-33.17,30.86-50.31,44.75l-.08.07c-5,4-10.17,8.24-15.19,12.41-29,24.1-52.84,46.9-72.77,69.72-9.79,11.19-18,23.94-26,36.26C103.72,1538,97,1548.39,89.42,1558s-15.65,19-24,27.88l-3.46,3.7v-78.87l1.46-1,2.34-1.62,2.31-1.6c15.17-10.58,30.85-21.51,43-36.39,2.19-2.69,4.43-5.36,6.6-8,10.31-12.31,21-25,26.65-39.74,8.85-22.89,27.65-32.72,44.87-39.32,12.91-5,27.68-11.6,39.37-23.32,2.07-2.08,4.12-4.19,6.17-6.3l.1-.1c11.68-12,23.76-24.5,40.08-31.09,13.86-5.61,26.78-11.91,32.65-27.31.82-2.08,4-2.19,4.63-2.19a5.64,5.64,0,0,1,1,.08,5.15,5.15,0,0,1,3.69,3.71c1.39,7,6.54,11.75,11.53,16.34l.78.72c.65.6,1.58,1.35,2.48,2.08,3.35,2.68,5,4,4,5.92l-.76,1.55c-4.86,9.76-9.87,19.85-16,29.08-18.17,27.33-35.61,45.74-56.54,59.67-22.26,14.84-43.44,33.5-66.67,58.72-2,2.14-3.93,4.26-5.9,6.39-15.46,16.67-31.45,33.91-43.08,54.09l-.4.69c-1,1.65-2.59,4.4-1.75,5.12a1.5,1.5,0,0,0,.81.43c.77,0,2.16-1.73,3-2.76l.77-.94a80.86,80.86,0,0,0,7.18-10.57c3.29-5.46,6.7-11.1,11.94-15.5,3.15-2.64,6.23-5.48,9.21-8.23s6.13-5.64,9.33-8.33c10.67-9,23.73-18.56,39.76-21.74,22.92-4.55,41.84-7.73,59.54-10,28.54-3.65,52.56-16.71,70.29-27.67.58-.36.59-.55.63-1.47,0-.25,0-.53.06-.83a9.2,9.2,0,0,0-1.26-.63,68.54,68.54,0,0,0-11.53,4.67c-21.66,11.72-43.7,18.88-65.52,21.27-11.17,1.22-22.38,3.22-33.22,5.16-6.23,1.12-12.59,2.25-18.88,3.24a60.06,60.06,0,0,0-8.1,2c-1.28.39-2.57.78-3.86,1.13l-1.12.31-1.62-2.89.84-.8q1.58-1.5,3.12-3c2.26-2.24,4.54-4.48,7-6.52,4.66-3.87,9.24-8,13.67-12.06,17.16-15.58,34.91-31.7,61.09-35.19,9.35-1.25,19-3.11,27.21-4.75,6.6-1.32,13.37-2.24,19.92-3.12,6.74-.91,13.67-1.85,20.36-3.22,23.12-4.75,43-17.78,62.14-30.38l1.81-1.19c1.35-.89,2.76-2.33,1.86-4.16-.2-.41-.52-.79-1.49-.79a6,6,0,0,0-2.48.65c-4.56,2.32-9.11,4.88-13.51,7.36s-9.07,5.1-13.69,7.45c-8,4.05-17.57,8.58-28.2,11.52a209.8,209.8,0,0,1-22.9,4.57c-3.44.55-7,1.12-10.52,1.78-9.93,1.85-20,4-29.78,6.06l-.16,0c-4.25.9-8.52,1.81-12.82,2.7l-5.44,1.13,3.47-4.34c2-2.46,4-4.89,6-7.25A189.73,189.73,0,0,0,312,1373.92c1.22-1.84,2.46-3.68,3.7-5.52l.14-.22c6.48-9.61,13.18-19.56,18.15-30.41a13.64,13.64,0,0,0,.57-3.26c.45-4.1,1.2-11,8.8-11a18.29,18.29,0,0,1,5.26.9c8.46,2.57,18.06,5.48,27.47,5.48a36.73,36.73,0,0,0,15-3c13.44-5.89,22.56-15.59,25-26.61,2-9-.64-18.06-7.7-26.13-1.71-2-2.33-3.65-1.92-5.18.56-2,2.59-2.71,3.93-3.15l.49-.17c5.74-2.06,11.67-3.83,17.41-5.54l3.31-1a11.87,11.87,0,0,1,3.27-.58,3.85,3.85,0,0,1,3.23,1.42c1,1.26,1.09,3.08.35,5.89a42.59,42.59,0,0,0-1.41,12.94c.74,13.68,9.42,23.66,18.68,32.39.68.64,1.35,1.29,2,2l.1.09c5.77,5.57,11.74,11.33,21.3,11.33a29.31,29.31,0,0,0,4.56-.38,31.4,31.4,0,0,1,5.13-.37c1.68,0,3.44.09,5,.17s3.32.16,4.94.16c3.67,0,7.95-.36,11.92-3a6.9,6.9,0,0,1,3.71-1.51,5.73,5.73,0,0,1,3.9,2c17.14,17,40,23.5,55.65,26.9,10.25,2.21,20.2,5.58,29.81,8.83,4.94,1.67,10,3.4,15.06,4.93,14.27,4.33,27.94,11.15,41.16,17.76,7.65,3.81,15.55,7.76,23.48,11.17,12.7,5.47,25.85,10.53,38.56,15.42,7.43,2.86,15,5.78,22.54,8.78,22.94,9.17,41.72,14,59.11,15.25,1.52.1,3,.16,4.54.16,28.82,0,47.47-20.44,65.34-40.62-7,3-12.58,8.24-18,13.28-2.94,2.73-6,5.53-9.22,8-11.09,8.51-23.19,12.82-36,12.82a57.31,57.31,0,0,1-8.13-.58c-13.5-1.92-27.54-5.31-44.18-10.68-9.76-3.15-19.41-6.93-28.74-10.6-9.87-3.87-20.05-7.87-30.33-11.1s-20-8.56-29.46-13.72c-3.88-2.12-7.88-4.3-11.85-6.3-21.14-10.67-44.07-16.73-66.24-22.59l-7.68-2a6.61,6.61,0,0,1-3.11-2.31,10.82,10.82,0,0,0-.8-.83l-2.58-2.34,4.12-1.31c.89-.29,1.75-.57,2.62-.82l2.83-.81c9.38-2.64,17.48-4.92,20.65-14.92.62-1.93,2.48-7.82,7.47-7.82,2,0,4.12.94,6.54,2.88s4.58,3.83,6.79,5.75c5.43,4.73,11,9.59,17.21,12.65,20.35,10.08,41.76,19,61.86,27.13l3.27,1.33.11.05c7.69,3.18,15.64,6.46,24.25,6.46a34.66,34.66,0,0,0,3.69-.2,122.84,122.84,0,0,1,13-.83c14.15,0,24.27,4,32.82,13,4.65,4.92,14,13.17,24.43,13.17a18.45,18.45,0,0,0,4.33-.51c21.19-5.06,39.64-14,54.81-26.57l8.15-6.75c23.67-19.63,48.12-39.91,74.12-57.42a16.46,16.46,0,0,1,9.32-3l2.3,0v30.28l-2,2.12c-1.64,1.73-3.28,3.45-4.9,5.18-5,5.35-9.94,10.87-14.75,16.2-13.2,14.64-26.84,29.77-41.94,43.19-3.67,3.26-7.3,6.57-10.8,9.78-18,16.44-36.66,33.44-60.53,43.82a84,84,0,0,1-34.23,7,119.36,119.36,0,0,1-16.87-1.28c-17.24-2.46-33.08-9.35-48.39-16-5.43-2.37-11-4.81-16.6-7-18.25-7.2-36.15-16.06-53.45-24.63-7.53-3.72-15.31-7.57-23-11.23s-15.2-7.54-22.54-11.33c-16.15-8.34-32.85-17-50.46-22.76-21.44-7.07-40.89-12.92-61.73-12.92a104.23,104.23,0,0,0-16.66,1.32c-21.28,3.47-37,14-48.18,32.22a290.55,290.55,0,0,0-17,31.86c-3.34,7.39-9.5,13.54-15.46,19.49-2.44,2.44-5,5-7.2,7.49-20,22.57-41.56,36.11-65.89,41.38-14.46,3.13-23.66,12.91-32.55,22.37-2.55,2.71-5.18,5.51-7.9,8.11-27.33,26.21-49.47,56.24-65.7,79.47-1.78,2.54-3.57,5.21-5.29,7.79-2.78,4.14-5.62,8.39-8.63,12.46l-.6.81Z"/><path class="cls-4" d="M786.35,754.59c-3.36,0-4.11-3.37-4.51-5.18a8.74,8.74,0,0,0-.43-1.53c-1.75-3.47-3.34-7.07-4.89-10.54-2-4.46-4-9-6.31-13.26s.32-6.7,1.62-7.84c.23-.21.43-.38.6-.56,10.3-10.91,23.11-24.48,40-31.73a7.51,7.51,0,0,1,2.88-.67c4.3,0,4.91,4.74,5.2,7,.06.5.11.9.18,1.24a40,40,0,0,1,.36,9.39c-.06,1.27-.11,2.51-.11,3.7,1.69,19.75-12.51,41.47-32.37,49.48A5.74,5.74,0,0,1,786.35,754.59Z"/><path class="cls-4" d="M764.18,716.64a4.52,4.52,0,0,1-3-1.54,138.48,138.48,0,0,0-42-27.56c-2.6-1.11-4-2.55-4.42-4.39-.57-2.75,1.59-5,2.89-6.37a8.36,8.36,0,0,0,.58-.64c12.07-17.39,28.25-26.38,49.47-27.5h.14l.15,0c16.27,2.35,33,6.1,43.21,23.3.75,1.26,1.6,2.7,1.13,4.39-.63,2.23-2.92,3.72-11.07,8-12.83,6.79-24,16.53-34.2,29.76a3.8,3.8,0,0,0-.22.42A3.05,3.05,0,0,1,764.18,716.64Z"/><path class="cls-4" d="M758.83,1259.41c1-2.42,2.08-5,3.08-7.39,3.7-9,7.49-18.27,13.62-26.34,3.16-4.16,6.58-8.21,9.89-12.12l.08-.1q2.24-2.65,4.46-5.32l1.5-1.82,1.55,1.77a16.37,16.37,0,0,0,1.32,1.31c1.25,1.16,2.66,2.47,3.12,4.28,3.29,12.78,1.32,24.83-5.56,33.91s-18,14.32-31.18,14.62l-3.13.07Z"/><path class="cls-4" d="M767.23,1224.05c-2,0-4.32-1-6.82-2.13a29.4,29.4,0,0,0-5.37-2,67.65,67.65,0,0,0-13.64-1.29,117.53,117.53,0,0,0-15.72,1.18l-2,.27-.27-2c-.66-4.82,2.15-11.34,7.73-17.9,6.61-7.8,14.94-12.94,21.23-13.11h.17c2-.06,4.06-.11,6.11-.11,9,0,18.45,1,26.69,8.39,1.9,1.69,3.47,3.27,3.56,5.38.08,2-1.19,3.58-2.58,5-1.81,1.9-3.56,4-5.25,6-3.44,4.13-7,8.37-11.39,11.51A4.2,4.2,0,0,1,767.23,1224.05Z"/><path class="cls-4" d="M757.53,1068.94c-12.5,0-28.47-14.11-28.47-25.17,0-14.49,13.34-28.7,26.91-28.7h.19a27.21,27.21,0,0,1,26.78,27.24c0,13.67-12.34,26.61-25.38,26.63Z"/><path class="cls-4" d="M768.68,759c-.89,0-1.89,0-3-.07-23.66-.14-50-21.66-53-43.45l-.21-1.47a46.89,46.89,0,0,1-.78-10.91c.23-2.36.93-9.55,6-9.55,2.66,0,5.24,2.17,7.5,4.09a18.91,18.91,0,0,0,2.53,1.92c18.7,9.46,41.23,24,49.45,52.63a4.9,4.9,0,0,1-.5,4.55C775.4,758.32,773.1,759,768.68,759Z"/><path class="cls-4" d="M768.42,966.71c-2.48,0-3.92-2-5.08-3.56a7.16,7.16,0,0,0-2-2.15c-19.79-9.19-21.84-27-22.25-44.34,0-.28,0-.56-.05-.83a4.17,4.17,0,0,1,.73-3.4,2.8,2.8,0,0,1,2.13-.88,8.1,8.1,0,0,1,3.24.93c17.72,8.14,26.94,22.15,28.17,42.82v.27c-.11.89-.14,1.92-.17,3-.09,3.3-.17,6.42-2.37,7.53A5.22,5.22,0,0,1,768.42,966.71Z"/><path class="cls-4" d="M714.32,1194.89c-4.27,0-6.41-3.5-8.29-6.58a18.19,18.19,0,0,0-2.47-3.47c-10.17-9.88-23.17-15.66-42.14-18.74l-5.1-.82,8.34-5.44c15-9.75,29.17-19,41.56-30.9.28-.27.6-.55.93-.84a9.23,9.23,0,0,0,1.9-2c.14-.27.22-.4-.2-.88a1.8,1.8,0,0,0-1.43-.76c-1.58,0-3.62,1.91-4.29,2.54-9.63,9-20.84,16-31.68,22.65-3.59,2.21-7.3,4.5-10.89,6.84-9.44,6.13-18.12,9.82-26.53,11.27l-3.87.67,1.74-3.53a74.79,74.79,0,0,0,5.35-14.38l.21-.79.69-.42a157.79,157.79,0,0,0,31.21-24.45c5.48-5.58,11.44-10.82,17.2-15.88l3.33-2.92c1.55-1.38,2.12-2.5,2.14-3a.56.56,0,0,0-.23-.47.69.69,0,0,0-.56-.21c-.32,0-1.53.14-3.69,1.86-17.26,13.83-31.63,25.14-45.22,35.6l-3.37,2.59.15-4.25a44,44,0,0,0-2-15.18l-.4-1.22.94-.87c10-9.24,18.83-19.59,26.2-28.49A90.58,90.58,0,0,0,674.33,1077c1.39-2.63.39-3.44,0-3.78l-.15-.12a8.23,8.23,0,0,0-.81,1.15c-.22.34-.42.66-.61.91a296.81,296.81,0,0,1-36.3,40l-1.8,1.63-1.26-2.07a44.16,44.16,0,0,0-9.3-10.74l-1.37-1.16,1-1.49c3.21-4.74,6.34-9.69,9.37-14.48,1.48-2.34,3-4.69,4.47-7a138.88,138.88,0,0,0,15.07-31.23c.59-1.71.16-2.55-1.74-3.45a.53.53,0,0,0-.25-.07c-.42,0-1.28.83-1.58,2-3.23,12.67-10.58,23-17.69,33-2.77,3.9-5.63,7.93-8.18,12-1.25,2-2.57,4-3.93,5.93l-1.08,1.55-1.6-1a54,54,0,0,0-10.6-5l-2.36-.8,1.3-2.13A219.35,219.35,0,0,0,620.45,1060c.54-1.3,1.18-2.61,1.79-3.86,2.1-4.29,4.07-8.3,3-12.88a7.39,7.39,0,0,1-.15-1.77c0-.13,0-.25,0-.35a4.26,4.26,0,0,0-1.94,1c-5.22,16.66-13.39,31.4-24.06,48.41l-.67,1.09-1.28-.17a44.07,44.07,0,0,0-13.39.33l-3.87.69,1.72-3.54A158.25,158.25,0,0,0,593,1056.11a24.18,24.18,0,0,1,2.16-5.27c1.3-2.54,2.43-4.74,1.93-7.38a16,16,0,0,1-.09-3.65c.18-3.44-.11-3.46-1-3.52h-.19c-1.06,0-1.56.67-2.23,4.45a22.1,22.1,0,0,1-.66,3l-.84,2.64c-4.52,14.09-9.2,28.65-16.81,42-1.37,2.38-2.56,4.6-3.64,6.77l-.31.62-.63.3a67.29,67.29,0,0,0-14.73,9.59l-3,2.6-.26-4a8.54,8.54,0,0,1,1-4.49c4.27-8.09,5.13-17.2,6-26,.26-2.77.53-5.64.9-8.43.24-1.82.53-3.64.82-5.48,1.29-8.19,2.62-16.65-.11-24.78-.13-.41-.24-.83-.34-1.25s-.14-.54-.2-.72a3.81,3.81,0,0,0-1.72,2.1c-.71,6.11-1.33,12.34-1.93,18.37-1.27,12.77-2.58,26-4.76,38.85a22,22,0,0,0-.14,2.38c-.11,4.18-.33,12-7.58,12a16,16,0,0,1-6.41-1.67,5.49,5.49,0,0,1-3.25-3.09c-.63-1.86.25-3.52,1-4.85a5.52,5.52,0,0,0,.69-1.63c-.89-8.34-1.07-16.86-1.25-25.09-.1-4.55-.2-9.26-.42-13.89a45.43,45.43,0,0,0-2.32-10.74c-.18-.58-.38-1-1.6-1a13.2,13.2,0,0,0-2,.21l-.14,0a2.1,2.1,0,0,0-.38.09,6,6,0,0,0,.34,1.63q.1.33.18.6c2.64,10.33,2.35,20.79,2.07,30.9a178.14,178.14,0,0,0,.1,17.9c.5,6.83-2,8.32-8.16,9.25l-1.78.26c-6.72,1-13.67,2-19.52,6.27a5,5,0,0,1-3,1.08c-3.15,0-4.76-3.27-5.83-5.43-.24-.49-.46-.93-.6-1.15-14.39-21.48-19.81-40.68-17.06-60.42,3.95-28.37,22.59-57,55.32-57a59.77,59.77,0,0,1,7.59.49c13.48,1.7,25.39,10.3,36.43,26.28,3.3,4.79,4.58,4.85,4.6,4.85,2-.06,4.48-1.88,6.16-4.65,14.12-23.14,38-37,63.83-37a74.83,74.83,0,0,1,32.94,7.78c27,13.11,40.6,32.8,41.73,60.19.49,12-2.7,24.5-9.74,38.12-1.47,2.81-1.57,5-.37,7.43l.13.26.33-.28a5.07,5.07,0,0,1,3.22-1.51c17.91.9,36.54,2.88,51,16,8.76,7.92,10.69,18.74,10.77,26.42a56.75,56.75,0,0,1-7.75,28.57c-12.62,21.37-35.15,27.36-55,32.65A8,8,0,0,1,714.32,1194.89Z"/><path class="cls-4" d="M750.28,1261.06a12.64,12.64,0,0,1-1.69-.15l-.47-.07c-9.52-1.21-25.06-19.18-25-31.81v-.15c.26-2.65,1.74-5.8,7.23-5.8,1,0,2,.09,3,.18s1.73.15,2.44.15l.59,0c1.2-.1,2.44-.14,3.69-.14a67.14,67.14,0,0,1,16.28,2.19c2.26.58,6,1.54,7.19,4.65.79,2.17.12,4.72-2,7.79-3.59,5.09-5.05,12.19-6.33,18.46C754.5,1259.47,752.86,1261.06,750.28,1261.06Z"/><path class="cls-4" d="M728.4,997.42c-16.2,0-30.62-9.23-40.61-26-1.39-2.33-1.31-5.27-1.23-8.38,0-1.42.08-2.89,0-4.41-1.33-4.34-1.25-7.31.22-9.32,1.69-2.29,4.68-2.6,7.38-2.6.93,0,1.91,0,2.92.08s2.06.08,3.09.08c.47,0,.93,0,1.4,0,1.16-.05,2.34-.08,3.5-.08,21,0,39,9,55.41,18.64a9.66,9.66,0,0,1,5.17,8.61c-.07,5.81-5.22,12.24-13.42,16.8a49.08,49.08,0,0,1-23.83,6.62Z"/><path class="cls-4" d="M735.83,946.76l-1.22-.18c-1.09-.16-2.14-.31-3.19-.55l-3-.68c-8.68-2-17.64-4.07-26.53-4.07a50.13,50.13,0,0,0-10.62,1.08,3.93,3.93,0,0,1-.82.08c-2.58,0-3.07-1.29-3.13-2.06l-.05-.37a6.32,6.32,0,0,1,.29-3.53c6.8-14.14,18-23.19,33.4-26.92a26.24,26.24,0,0,1,6.13-.84c3.39,0,5.86,1,7.33,3s1.82,5.06.74,8.81c-.67,8.25.26,14.67,3.08,21.42a4,4,0,0,1,0,2.66c0,.18-.09.33-.11.47l-.29,2Z"/><path class="cls-4" d="M643.38,1295.36c-10.29,0-20.53-2.07-30.44-4.08-4.82-1-9.79-2-14.65-2.72-3.24-.49-4.48-2-5-3.26-.9-2.27,0-5.12,2.9-8.7,14-17.58,22.16-38.18,28.35-56,1.7-4.89,1.35-7.63.57-7.95l-.12,0c-.53.42-1.19,2.59-1.51,3.65-.27.89-.52,1.72-.83,2.48-8.63,21.3-20.33,40.79-32.58,60.53a5.36,5.36,0,0,1-4.75,2.66,15.89,15.89,0,0,1-5.79-1.59,23.46,23.46,0,0,0-2.87-1c-.74-.18-3-.72-3.52-2.7s1.1-3.42,2.05-4.3l.31-.29c10.6-22.38,16.51-45.88,21.32-68a8.3,8.3,0,0,0,0-4.62c-2,.23-2.49,1.76-3.06,5.41a21.62,21.62,0,0,1-.71,3.41c-1.54,4.73-3,9.57-4.43,14.26-4.21,13.88-8.57,28.24-15.33,41.43l-3.4,6.64-.38-7.45c-.39-7.79-2.89-14.39-7.42-19.61l-.71-.81.3-1c2.24-8,4.11-16.12,5.48-22.31,2.7-12.16,3.45-24.19,3.82-34.35,0-.25,0-.51,0-.78a7.91,7.91,0,0,0,0-1.89h0a4.93,4.93,0,0,0-1.9,2c-.54,14.27-4.07,28.19-7.49,41.64l-1.08,4.28c-.54,2.15-1.13,4.36-1.75,6.57l-.75,2.65-2.29-1.53a47.19,47.19,0,0,0-15-6.29l-1.71-.41.19-1.74a349.37,349.37,0,0,0,1.59-53.14c-.11-2.42-1.24-5-2.32-7.55-.24-.55-.48-1.11-.71-1.67a3.67,3.67,0,0,0-.68,1.46c-.3,5.74-.5,11.73-.67,17-.35,10.2-.7,20.69-1.65,31-.35,3.83-.81,7.76-1.35,11.67l-.26,1.93-1.94-.21a65.87,65.87,0,0,0-7.42-.43,50.55,50.55,0,0,0-10.38,1l-2.38.5,0-2.44a62,62,0,0,1,.71-11.54c1.32-7.32.67-14.51,0-21.46-.29-3.16-.58-6.42-.7-9.71,0-.52,0-1.07,0-1.61,0-.36.06-1.08,0-1.49a8.28,8.28,0,0,1-2-3.8c-.06-.19-.17-.54-.28-.86-2.54,2-1.68,7-1.26,9.54,2.57,15.1.65,29.75-1.21,43.92l-.15,1.11-1,.46a35.81,35.81,0,0,0-14.63,12l-4.2,5.82.59-7.15a171.61,171.61,0,0,0-1.44-38.84c-1.81-12.34-3.27-25.5-4.32-39.13a44.3,44.3,0,0,0-3.24-12.52c-4.94-12.93,3.55-20,10.37-25.72,1.57-1.31,3.05-2.55,4.38-3.83,9.21-8.87,21.65-13.37,37-13.37,13.61,0,29.58,3.87,42.73,10.33,21,10.33,33.66,27,38.69,51,.26,1.24.68,1.44,1.58,1.44a12.55,12.55,0,0,0,2.49-.38c.62-.14,1.17-.26,1.71-.33l1.26-.15c10.1-1.25,20.54-2.54,30.72-2.54,16.86,0,30.35,3.6,42.45,11.35,17.53,11.22,27.15,43.4,19,63.77-6.52,16.39-15.43,28.92-27.25,38.3-5.81,4.6-13.28,7.11-21.07,9.47a63.13,63.13,0,0,1-18.7,2.66Z"/><path class="cls-3" d="M618.81,978.75c0-10.34,4.06-19.1,7.94-27.56,1.16-2.54,2.34-5.11,3.37-7.62,2.18-5.37,4.44-10.77,6.63-16,8.43-20.13,17.16-41,22.23-62.57l.09-.36c4.38-18.64,8.91-37.92,3.62-57.21a3.77,3.77,0,0,0-1-1.28,4.34,4.34,0,0,0-.79,1.57l-1.17,7.48C658,826.32,656.25,837.72,655,849c-1.75,16.21-6.9,30.93-12.95,47.12a409.93,409.93,0,0,1-19.85,45.45l-.56,1.09-3.31-.94.1-1.22q.49-6.74,1-13.47l.06-.86c.74-10.34,1.51-21,2.42-31.6s2-21.45,3-31.89c.72-7.5,1.45-15,2.13-22.49.28-3.1.59-6.21.91-9.31l0-.28c.89-8.72,1.8-17.73,1.93-26.56a181.79,181.79,0,0,1,1.71-19.5C633.25,771,635,757,629.63,743.29c-4.25-10.84-1.29-21.32,1.56-31.46.86-3,1.74-6.15,2.39-9.21.41-1.9.83-3.79,1.24-5.69l0-.1c1.52-7,3.09-14.11,4.15-21.19,2.16-14.4,3.88-29.09,5.55-43.3l.09-.78c.38-3.18.84-7.13.09-10.43-2.36-10.33,4.12-14.49,9.84-18.17,2.46-1.58,4.79-3.08,6.3-5,13.34-16.76,15.8-34.74,7.73-56.58a44.56,44.56,0,0,0-15.21-20.16c-7-5.39-5.76-11.95-4.68-17.73a29.3,29.3,0,0,0,.72-6.27c-.66-17,0-30.55,2-42.69,2.53-15.47,3-31.34,3.45-46.69.34-11.19.68-22.73,1.81-34.09.78-7.76.18-15.88-.39-23.72a180.75,180.75,0,0,1-.71-19.64c.3-8,1.68-16,3-23.78.69-4,1.38-8,1.93-12a38,38,0,0,0,.18-5.29c0-3.72-.09-7.56,1.86-10.46,2.84-4.23,6-6.29,9.76-6.29,5,0,9.57,3.84,13.63,7.23,14.59,12.19,13.75,27.73,12.93,42.76-.24,4.53-.5,9.21-.29,13.67a90.66,90.66,0,0,1-.75,13.63c-.36,3.43-.74,6.95-.78,10.37-.16,12.91-.13,26.06-.11,38.77v.19q0,10.41,0,20.82c0,24.3,2.33,44,7.46,62.07,1.21,4.26-.19,8.95-1.67,13.91-.68,2.28-1.37,4.61-1.84,6.95l-.23,1.17-3.37.1-.3-1.16c-1.74-6.79-3.52-13.38-5.24-19.76-3.87-14.29-7.52-27.78-10.24-41.6-3.57-18.09-7-39.2-2.67-61,2.17-10.91,3.34-22.26,4.47-33.24.55-5.42,1.12-11,1.81-16.41.2-1.63.56-3.28.88-4.73a36.46,36.46,0,0,0,1-6c0-.71.12-1.43.21-2.13.28-2.3.34-3.51-.32-4.22-1.1,1.2-3.12,3.95-3.54,5.68-6.08,25.1-11.58,49.68-12,74.5-.47,27.17,4.31,53.69,14.59,81.08,3.73,9.92,4.47,21.4,5.19,32.5.18,2.79.37,5.64.59,8.4.78,9.43.75,19,.72,28.15,0,9,0,18.33.68,27.42,1.17,14.46-2.4,27.53-6.83,41.89-3.37,11-6.71,22.12-10,32.92l-.11.4q-3.66,12.18-7.34,24.37c-1.22,4-2.56,8.1-3.84,12l0,.1c-2.42,7.38-4.93,15-6.81,22.64-3.83,15.54-6.61,30.88-8.83,43.85-.23,1.35.82,2.69,3.28,4.16q.21-.42.42-.81a14.84,14.84,0,0,0,1.92-5c1.76-19.93,8-38.86,14.14-57.17l.1-.29c1.21-3.65,2.43-7.3,3.61-11q2-6.32,4-12.66c3.75-11.93,7.63-24.27,12.23-36.35l.47-1.24,3.53.86-.14,1.31q-.89,8.06-1.81,16.12v.12c-1.32,11.62-2.68,23.63-3.85,35.56-.23,2.3-.44,4.61-.66,6.92l0,.4c-1.06,11.28-2.16,22.94-4.35,34-3.23,16.26-3.11,32.77-3,48.74,0,5.57.08,11.24,0,16.83-.18,10.48.31,21.17.8,31.52.4,8.7.82,17.65.84,26.47,0,8.34-.43,16.78-.86,24.94-.44,8.36-.89,17-.85,25.39.09,17.12.78,34.49,1.44,51.29q.32,8,.61,16a5.43,5.43,0,0,0,.61,1.76,8.11,8.11,0,0,1,1,3.48c0,2.62-.15,10.59-5.69,10.59h0c-2.72,0-5.45-2.17-7.86-4.09a20.37,20.37,0,0,0-2.41-1.76c-6.45-.61-12.25-1.12-18-1.12-10.54,0-19.14,1.81-27.06,5.69L618.8,982Z"/><path class="cls-4" d="M619.78,610.79c-3.61,0-6.17-.93-7.83-2.85-2.76-3.16-2.1-7.82-1.47-12.33a25,25,0,0,0,.4-5.94c-3.42-24.52,13.5-33.26,28.43-41a125.86,125.86,0,0,0,12.41-7c3-2,5.34-3,7.31-3,5.08,0,5.62,5.6,6,9.68.18,2,.42,4.38,1.07,5.25,2,2.66,1.56,6.57,1.15,10.35a41.5,41.5,0,0,0-.33,4.28c.79,18.46-22.79,37.57-39.07,41.41A36.13,36.13,0,0,1,619.78,610.79Z"/><path class="cls-4" d="M607.68,568.4c-1,0-2.88-.4-4-3.09-4.79-10.9-11.57-20.36-18.09-29.1-1.79-2.4-2.39-4.52-1.85-6.5.88-3.19,4.54-4.69,7.48-5.9a16.94,16.94,0,0,0,3.47-1.71c5.9-4.72,13.51-7.12,22.62-7.12,1,0,1.93,0,2.91.09.78-.07,1.65-.11,2.5-.11,10.94,0,19.64,5.71,28.06,11.23l.62.41c1.75,1.14,3.61,2.54,3.46,4.61s-2.43,3.34-4.54,4.31C633.87,543,621.21,555.76,612,566a6,6,0,0,1-4.33,2.37Z"/><path class="cls-5" d="M614.41,1156.21c-.79,0-2.26,0-6.27-7.76a5.46,5.46,0,0,1-.51-4.23c.73-2.24,2.93-3.36,4.38-4.09.3-.15.54-.27.74-.39a143.94,143.94,0,0,0,24.92-18.86l2.3-2.14,1,3a47.79,47.79,0,0,1,2.18,16.55l0,.94-.74.57c-3.56,2.76-7.37,5.67-11.31,8.66-4.54,3.42-9.88,5.48-15.89,7.63l-.2.07-.29,0h-.23Z"/><path class="cls-5" d="M619.08,1171.4c-1.75,0-3.88-1.05-4.1-6.06-.2-4.6,4-6.24,7.11-7.44a24.53,24.53,0,0,0,2.47-1c4.71-2.39,9.28-4.93,13.59-7.55l4.2-2.55-1.22,4.76a79.72,79.72,0,0,1-5.65,15.16l-.45.9-1,.18a47.79,47.79,0,0,1-8.14.71h-.55a10.66,10.66,0,0,0-1.7,1C622.2,1170.42,620.7,1171.4,619.08,1171.4Z"/><path class="cls-5" d="M605.77,1139a5.91,5.91,0,0,1-2.48-.58c-1.89-.88-4.44-2.34-4.82-4.76-.4-2.59,1.67-4.51,4.07-6.73.36-.33.72-.66,1.08-1,6.72-6.41,12.92-14,20.07-24.59l1.25-1.85,1.7,1.44a48.25,48.25,0,0,1,10.14,11.72l.85,1.41-1.21,1.11a248.39,248.39,0,0,1-22.15,18,16.3,16.3,0,0,0-2,1.94C610.5,1137,608.55,1139,605.77,1139Z"/><path class="cls-5" d="M593.93,1127.73c-2,0-3.76-1.14-5.43-2.23l-.4-.27c-2-1.28-3-2.61-3.24-4.17-.32-2.1.95-4,2.36-5.68a211.8,211.8,0,0,0,17.67-24.77l.84-1.37,1.52.52a57.87,57.87,0,0,1,11.38,5.39l1.81,1.1-1.21,1.75c-3.8,5.49-8,10.84-12,16-2.72,3.49-5.52,7.08-8.16,10.66C597.58,1126.7,595.85,1127.73,593.93,1127.73Z"/><path class="cls-4" d="M556.07,935.81c-5-1.48-7.82-3.59-8.6-6.45-1.12-4.14,2.49-8,5.12-10.77a15.41,15.41,0,0,0,1.77-2.05A491.43,491.43,0,0,1,582.19,865c3.47-5.68,9.16-11.14,16.91-16.22a4.72,4.72,0,0,1,2.61-.84c3.78,0,5.48,4.85,6.39,7.46l.17.5c5.07,14,5.62,28.76,1.57,41.46-4.52,14.14-14.46,25.37-28.77,32.48-4.9,2.44-10.33,3.42-16.07,4.46-2.59.46-5.26,1-7.91,1.58l-.51.12Z"/><path class="cls-4" d="M601,606.64l-1.13-.56c-.9-.43-1.83-.88-2.73-1.42C578.88,594,570.16,578,571.16,557.31a34.72,34.72,0,0,1,2.72-12.18c.54-1.2,2.18-4.86,5.25-4.86,2.67,0,4.44,2.72,5.87,4.91l.44.68c12.74,19.25,18.61,36.91,19,57.26v.28l-.09.35-1.4,3.91Z"/><path class="cls-4" d="M572.87,1335.13H570.5c-2.37-.25-4.72-.44-7-.62-12.55-1-25.52-2.1-36.37-11.62-4.66-4.08-6.94-9.25-6.44-14.55.56-5.92,4.56-11.48,11-15.24,12.15-7.13,23.35-10.6,34.25-10.6a53.7,53.7,0,0,1,5.38.28c14.49,1.51,25.49,8.55,31.81,20.37,4.48,8.36,3.58,16.75-2.47,23C592.68,1334.44,582.13,1335.13,572.87,1335.13Z"/><path class="cls-4" d="M559.2,889.26c-1.5,0-3-.86-4.86-2.78-13.07-13.5-30.63-17.29-49-20.26l-2.21-.35.6-2.16c4.07-14.59,13.69-25.77,30.27-35.2,4.44-2.52,11-3.86,19.05-3.86,15,0,35.08,5,42.71,14.15a4.38,4.38,0,0,1,1.18,3.37,4.87,4.87,0,0,1-2.37,3.25,4.89,4.89,0,0,0-.5.39L592.87,847c-11.32,11.08-23,22.54-29.11,37.83C563.19,886.26,562,889.26,559.2,889.26Z"/><path class="cls-5" d="M579.56,1117.36a13.25,13.25,0,0,1-7.14-2.6c-4-2.66.07-10.07,2-13.13a124.7,124.7,0,0,0,7.09-12.68l.45-.92,1-.18a48.29,48.29,0,0,1,8.46-.75,46.82,46.82,0,0,1,6.15.4l3.09.4-1.66,2.64c-2,3.16-4,6.3-6,9.43l-3,4.73a19.85,19.85,0,0,0-1.3,3.06C587.35,1111.58,585.23,1117.36,579.56,1117.36Z"/><path class="cls-5" d="M560.77,1110.86a8.62,8.62,0,0,1-2.72-.49c-3.18-1.07-5.12-3.33-5.34-6.19l-.07-1,.77-.66A71.29,71.29,0,0,1,569,1092.34l5.27-2.48-2.64,5.19c-1.64,3.25-3.25,6.75-4.75,10.39C566.13,1107.33,564.66,1110.86,560.77,1110.86Z"/><path class="cls-5" d="M551,1276.3c.31-1.21.58-2.5.82-3.63a48.67,48.67,0,0,1,2.29-8.29,205.82,205.82,0,0,0,7.64-22.72l1-3.58,2.44,2.81c5.13,5.91,8,13.32,8.4,22l0,.54-.24.47a111.62,111.62,0,0,1-7.1,12c-1.62,2.38-5.22,2.48-9,2.59a37.15,37.15,0,0,0-4,.25l-3,.43Z"/><path class="cls-5" d="M527.8,1284.32c1-3.92,2.05-7.84,3.09-11.64a242,242,0,0,0,6-25.59c.91-5.7,1.69-11.61,2.32-17.57l.24-2.27,2.22.54a51,51,0,0,1,16.33,6.85l1.21.8-.4,1.4a412.54,412.54,0,0,1-15.08,42.63c-1.21,3-4.93,4.24-8.87,5.55a41.74,41.74,0,0,0-4.27,1.59l-3.81,1.79Z"/><path class="cls-4" d="M535.61,929.59c-3.33,0-7.05-1.82-11.37-5.54-15.92-13.7-22.7-28.24-21.33-45.78.27-3.53,1.85-5.24,4.85-5.24l.85,0,.74,0a3.67,3.67,0,0,0,.74-.06l.41-.09.41.08c16.17,3,32.76,7.37,42.34,23.35,1.89,3.15-.32,7.75-2.67,12.62-.85,1.77-1.71,3.57-2.27,5.11A19.47,19.47,0,0,1,547,916.8a13.74,13.74,0,0,0-1.14,2.44C543.76,926.11,540.3,929.59,535.61,929.59Z"/><path class="cls-4" d="M481.11,1449.28a7.84,7.84,0,0,1-5.8-2.21c-2.16-2.19-1.07-7.45.15-9.79,12.22-23.36,25.12-45.47,48.54-59.11a3.2,3.2,0,0,1,1.6-.43c4.27,0,8.5,9.09,9.26,15.22a23.36,23.36,0,0,1,.08,3.72c0,.51,0,1,0,1.51,0,18.72-24.74,46.06-44.91,49.59-.44.08-.87.18-1.31.28l-1.36.3-1.17.23A24.94,24.94,0,0,1,481.11,1449.28Z"/><path class="cls-5" d="M514.85,1290c-8.23-10-9.47-29.57-5.46-41.59,1.82-5.42,1.73-11.48,1.65-17.34,0-.79-.05-4-.05-4l1.61-.34a54.9,54.9,0,0,1,11.2-1.1,71.46,71.46,0,0,1,7.86.45l2,.23-.28,2a284.42,284.42,0,0,1-9.8,44.29c-.62,2-1.39,4-2.13,6a45.48,45.48,0,0,0-3.12,10.41l-.59,4.57Z"/><path class="cls-4" d="M486.44,1406.62A5.17,5.17,0,0,1,483,1405a96.44,96.44,0,0,0-32.32-20c-1.66-.61-2.85-1.27-3.27-2.54a3.75,3.75,0,0,1,.83-3.32l.36-.58c8.53-14,23.19-17.63,35-19.2a87.32,87.32,0,0,1,11.56-.86c9.83,0,17.91,2.35,24.7,7.18a23,23,0,0,0,2.48,1.42c.65.34,1.38.72,2.23,1.19l2.72,1.51-2.5,1.85-5,3.7c-2.79,2.08-5.21,3.89-7.65,5.62-9.22,6.52-16.24,15.07-21.9,22.56a2.49,2.49,0,0,0-.24.4C489.49,1404.9,488.53,1406.62,486.44,1406.62Z"/><path class="cls-4" d="M498.29,1318c-23.39,0-40.72-8.94-53-27.33-5.84-8.77-5.3-18.57,1.39-25a22,22,0,0,1,15.16-5.72,22.51,22.51,0,0,1,9.88,2.2c2.43,1.21,5,2.34,7.5,3.43,9.92,4.33,20.18,8.82,26.27,20.07,4.56,8.42,5.5,17.23,2.87,26.92-.6,2.23-2.61,5-8.79,5.38h-1.32Z"/><path class="cls-5" d="M499,1269c-3.37-.17-6.39-2-9.31-3.84l-.11-.06c-.59-.37-1.18-.73-1.77-1.07-3.33-1.94-2.78-5.29-2.38-7.73.68-4.11,1.2-8.3,1.54-12.44l0-.56.33-.46a39.81,39.81,0,0,1,16.25-13.29l3.27-1.46-.48,3.56c-.42,3.15-.87,6.53-1.25,9.8-.32,2.62-.61,5.25-.9,7.88l0,.18c-.42,3.76-.85,7.65-1.34,11.47a11.75,11.75,0,0,0,.06,1.81c.15,1.75.31,3.72-.95,5.09a3.6,3.6,0,0,1-2.76,1.12Z"/><path class="cls-4" d="M478,1259.66a5,5,0,0,1-1.65-.32,41.82,41.82,0,0,0-13.77-2.35,45.91,45.91,0,0,0-12.31,1.75l-.36.1a9,9,0,0,1-2.58.48,4.53,4.53,0,0,1-3.81-6.53,4.3,4.3,0,0,1,3.11-1.73,5.2,5.2,0,0,0,.74-.19c13.45-10.81,26-22,31-39.43l.36-1.27,3.59.54,0,1.32c-.09,4.67.22,9.43.53,14,.65,9.94,1.32,20.22-1.91,30.37a1.35,1.35,0,0,0-.06.34C480.46,1259.29,478.89,1259.66,478,1259.66Z"/><path class="cls-4" d="M463.88,1442.7a12.78,12.78,0,0,1-2.49-.26l-.52-.1-.41-.34c-.79-.69-1.62-1.38-2.48-2.1-5.55-4.62-11.85-9.86-14.71-18.42l-.4-1.18c-1.79-5.3-3.81-11.3-3.16-16.9.72-6,2.34-12.93,8.61-12.93,3.21,0,7.3,1.84,13.66,6.18,2.28,1.55,4.79,2.94,7.23,4.27a88.76,88.76,0,0,1,7.83,4.67l.22.15c2.11,1.46,4.51,3.12,5,6,.33,2-.38,4.14-2.18,6.54-2.7,3.63-4.63,8.08-6.49,12.39-.91,2.1-1.86,4.27-2.9,6.38-.14.28-.26.58-.38.89C469.55,1439.72,468.34,1442.7,463.88,1442.7Z"/><path class="cls-4" d="M191.89,1271.08a15.68,15.68,0,0,1-3.79-.5A69.37,69.37,0,0,1,157,1253.47c-17.62-16.72-25.14-33.37-23.66-52.37,2.12-27.3,18.28-46.74,43.24-52a106.92,106.92,0,0,1,22.28-2.52,76.84,76.84,0,0,1,24.62,3.9c1.92.64,4.2,1.15,6.41,1.64,1.23.27,2.46.55,3.67.85a10.94,10.94,0,0,0,2.54.37,2.25,2.25,0,0,0,1.91-.64c.44-.63.56-2.27-.44-5-6.41-17.52-6.6-32.59-.58-46.08a65.61,65.61,0,0,1,16.35-22.79c9.43-8.4,22-14,39.55-17.66a46.68,46.68,0,0,1,9.34-.91,60.23,60.23,0,0,1,14.09,1.74,78.75,78.75,0,0,1,20.39,8c18.93,10.47,29.77,27.65,32.22,51.06.1.92.17,1.87.24,2.84.34,4.71.66,9.15,4,10.81a3.84,3.84,0,0,0,1.82.46c2.23,0,4.6-2,6.9-4a33,33,0,0,1,3.67-2.88,60.68,60.68,0,0,1,33-9.63A70.53,70.53,0,0,1,432,1120c23.1,4.45,38.57,19.1,43.55,41.24a93.22,93.22,0,0,1-.69,42.82c-4.61,19-15.68,34.22-32,44.08-11.65,7-27.37,15.24-45.68,16.42l-4.71.3,3.06-3.6c16.33-19.19,27.16-35,35.11-51.25l.37-.74c.9-1.8,1.92-3.83,1.79-5.3-.19-2-1.63-4.42-2.35-4.67l-.18,0a8.94,8.94,0,0,0-.76,2.18,14.24,14.24,0,0,1-.44,1.53c-6.43,16.55-17.16,30.41-27.54,43.82l-.11.14c-2.11,2.72-4.21,5.44-6.28,8.19a9.56,9.56,0,0,1-7.87,4,13,13,0,0,1-3-.36l-2-.49.59-2c.1-.35.18-.72.26-1.08a10.82,10.82,0,0,1,1-3c1-1.84,2.16-3.64,3.25-5.38.68-1.08,1.31-2.08,1.92-3.09,9.57-15.84,13.49-33.54,16.07-48.76a18.52,18.52,0,0,1,1-3.24c.52-1.34,1.46-3.84,1-4.52-.11-.17-.65-.47-1.94-.51h-.2c-2.41,0-2.88,2.24-3.3,7a27.66,27.66,0,0,1-.59,4.27c-3.87,15-10.2,29-16.32,42.55l-.19.42c-1.33,2.94-2.66,5.88-4,8.84a20.28,20.28,0,0,1-1,2l-2.72,4.53-1-5.19a66,66,0,0,0-8.29-22.11l-.44-.71.2-.82a175.88,175.88,0,0,0,3.78-19.89,215.64,215.64,0,0,0,1.58-30,16.77,16.77,0,0,1,.2-2.32c.11-.84.33-2.58,0-3h0a1.39,1.39,0,0,0-.7-.12,2.81,2.81,0,0,0-2.14.8c-1,1-1.51,3.08-1.42,5.51.44,12.21-1,25.13-4.58,40.65l-.82,3.58-2.56-2.64a48.25,48.25,0,0,0-16.94-11.2l-1.32-.52,0-1.41a113.9,113.9,0,0,0-.8-18.87c-.15-1.12-.32-2.27-.5-3.45-.88-6-1.89-12.77-.45-19.35a4.61,4.61,0,0,0-.78-3.86,2.79,2.79,0,0,0-2.23-1.13h-.14c-.6,0-.85.15-.91.22-.33.38-.14,2,0,3a19.92,19.92,0,0,1,.17,2.4c-.13,6.36-.15,13-.17,18.85v.14c0,6.31,0,12.82-.18,19.24l-.05,2.39-2.34-.47A74.08,74.08,0,0,0,320,1204.7l-3,0,0-2c0-2.21,0-4.41,0-6.62a126.69,126.69,0,0,0-11.88-52.79,5.72,5.72,0,0,0-2-1.51c-2,1.56-1.37,3.76-.1,7.06l.32.83c7,19.17,8.2,38.65,8.42,53.48l0,1.86-1.85.16a131.43,131.43,0,0,0-16.61,2.5l-2.1.47-.52-3.56c-.71-4.83-1.45-9.82-2-14.75-.83-7.49-3.73-15-6.54-22.28-1-2.64-2.06-5.36-3-8.07a9.62,9.62,0,0,0-2.15-.46s0,.08,0,.12a8.28,8.28,0,0,1-.08,1.38c-1,6.1.93,11.71,3,17.64,1.73,5.07,3.52,10.3,3.49,16a124.11,124.11,0,0,0,.72,14.28l.18,1.6-1.53.52a75.6,75.6,0,0,0-15.05,6.86l-2.45,1.48-.55-2.8c-2.53-12.72-7-25.93-13.92-41.6-.4-.91-1.24-2.81-2.08-2.81a1.61,1.61,0,0,0-.61.16,2.07,2.07,0,0,0-1.25,1.09,4.62,4.62,0,0,0,.63,3.23c4.71,9.51,6.78,19.76,8.78,29.68.8,3.94,1.61,8,2.57,11.87.34,1.38.65,2.77.92,4.14l.22,1.12-.85.76a46,46,0,0,0-9.45,11.59l-2.23,3.95L246,1235c-4.65-14.18-10.81-30.7-21.27-45.69a42.59,42.59,0,0,0-5.1-6.12,1,1,0,0,0-.48-.31s-.32.11-.69.64a7.73,7.73,0,0,1-1,1.08l-.22.21,0,.07c10.09,15.28,16.52,32.46,22.75,49.08l.41,1.1c1.23,3.26,1.28,5.68.18,7.42-1.51,2.36-4.46,2.59-7.07,2.8-1.47.11-3.3.26-3.94.83a5.69,5.69,0,0,1-3.75,1.81h0c-2.7,0-4.08-2.75-5.17-5.71-6.6-18-16.83-32.46-30.39-42.88a1.4,1.4,0,0,0-.24-.16,6,6,0,0,0-.45.67c-.13.21-.24.39-.34.53a2.27,2.27,0,0,0,.38,3.41c11.77,10.79,19.37,24.61,26.72,38l1.08,2c1.25,2.26,1.56,4.33.92,6.15-1,2.83-3.94,4-5.7,4.72-.33.14-.58.24-.78.34-2.71,1.32-4.79,4.18-6.79,7-3.11,4.3-6.64,9.17-13.21,9.17Z"/><path class="cls-4" d="M377,1326.33a25.13,25.13,0,0,1-3.81-.28,245.41,245.41,0,0,1-24.77-5.58c-2.1-.55-4.18-1.1-6.28-1.63-11.63-3-25.3-23.43-22.85-34.21,1.45-6.39,7.13-9.73,11.7-12.41.89-.53,1.73-1,2.49-1.51,8.84-5.64,20.79-8.88,32.79-8.88,18.68,0,34.47,7.46,43.33,20.46a22.21,22.21,0,0,1,2.93,7.83c.12.55.23,1.07.32,1.33l.08.22,0,.32c0,8.66-4.29,17.45-11.76,24.2C394.16,1322.54,385.11,1326.33,377,1326.33Z"/><path class="cls-4" d="M351.28,1019c0-5.83-3.32-9.63-6.84-13.65l-.78-.9c-3-3.48-4.24-6.51-3.72-9.26.73-3.85,4.66-5.93,7.83-7.6a27,27,0,0,0,3.22-1.88,70.74,70.74,0,0,0,19.39-21.45l2.31-3.92,1.32,4.36c7.7,25.33,2.58,40-19.56,55.92l-3.17,2.29Z"/><path class="cls-5" d="M369.41,1258a13.51,13.51,0,0,1-5-1,6,6,0,0,1-3.51-3.32c-1.19-3,.34-6.35,1.69-9.32a21.06,21.06,0,0,0,1.05-2.53c1.68-5.72,2.89-10.16,3.94-14.4l1.14-4.65,2.5,4.08a70.24,70.24,0,0,1,8.83,23.47l.14.74-.39.65C376.75,1256.87,372.47,1258,369.41,1258Z"/><path class="cls-4" d="M334.69,988.46c-2.62,0-5.88-3-9.65-6.36a66.26,66.26,0,0,0-5.14-4.37c-5.16-3.75-10.33-7.45-15.34-11l-.85-.6-6.88-4.92L295.22,960l1.13-1.62c9-12.91,21.5-19.73,36.16-19.73a52.06,52.06,0,0,1,7.18.51c12,1.67,21.38,7.26,27.85,16.61.44.65,1.46,2.82.25,4.26-9.26,11.26-18.66,21.9-31.65,28.08A3.37,3.37,0,0,1,334.69,988.46Z"/><path class="cls-5" d="M336.72,1260.74c.08-1,.14-2.1.2-3.14.15-2.31.29-4.69.62-7,.51-3.73,1.07-7.5,1.62-11.15l0-.13c1.59-10.57,3.23-21.48,3.6-32.32l.1-2.83,2.63,1a52,52,0,0,1,18.34,12.14l.76.78-.24,1.06c-.91,4-2,8.3-3.42,13.54a84.3,84.3,0,0,0-2.95,15.85c-.63,9.11-6.93,10.59-12,11.77-2.34.55-4.54,1.07-6.13,2.21l-3.5,2.52Z"/><path class="cls-4" d="M331.73,1025.78c-16.31,0-28.93-8.32-38.57-25.44-2-3.48-2.83-7.49-3.67-11.37-.37-1.74-.75-3.5-1.22-5.15l-.14-.5,4.16-17.16,2.36,1.5c1.35.86,2.71,1.68,4.08,2.5a85.41,85.41,0,0,1,9.31,6.13,190.81,190.81,0,0,1,37.32,39.39,9.36,9.36,0,0,1,1.31,4.58c.05.53.11,1.14.21,1.64l.43,2.11-2.14.26c-1.27.16-2.53.36-3.79.55a65.82,65.82,0,0,1-8.85,1Z"/><path class="cls-4" d="M331.29,840.37c-1.47,0-3-.64-5.52-2.3-5.4-3.58-11.24-6.77-16.89-9.85-5.31-2.89-10.77-5.87-15.94-9.2-2.42-1.55-3.7-3.36-3.82-5.36-.19-3.33,2.9-5.86,4.94-7.54.5-.41,1-.8,1.23-1.07,6.31-6.45,9.38-14.31,12.63-22.63l.06-.13,1.2-3.06c.63-1.58,2.31-2.48,4.59-2.48a13,13,0,0,1,8.12,3.26c13.15,11.44,19,22.87,19.1,37.07.4,4.72-1.29,9.13-3.09,13.8-.59,1.55-1.2,3.14-1.71,4.71C335.77,836.9,334.64,840.37,331.29,840.37Z"/><path class="cls-5" d="M315.89,1273.54c1.86-18.64,1.57-38,1.28-56.72-.07-4.7-.14-9.4-.18-14.09l0-2,3.07,0a77.42,77.42,0,0,1,15.11,1.43l1.64.32,0,1.68c-.31,14.39-1.15,31.45-5.07,49-.4,1.79-.66,3.63-.92,5.42-1,7.34-2.12,14.89-12.47,17.13l-2.68.59Z"/><path class="cls-4" d="M297.65,858.93c-16.61-1.4-28.25-7.84-35.57-19.69-1.26-2-1.58-3.72-1-5.19.86-2.13,3.24-2.75,5.15-3.25a8,8,0,0,0,2.28-.8c4.52-4.28,9.23-8.24,13.05-8.24a5,5,0,0,1,1.4.19c16.6,4.78,30.32,11.74,41.94,21.26.51.42,2.06,1.7,1.85,3.48a3.58,3.58,0,0,1-2.36,2.67l-.23.12c-8.5,6.17-17.12,9.27-26.29,9.46h-.22Z"/><path class="cls-5" d="M307.56,1271.58l-1.21-1a35.87,35.87,0,0,1-2.78-2.37l-.19-.18c-5.81-5.62-11.82-11.43-10.43-21.77,1.86-13.81-.23-27.84-2.07-40.23l-.27-1.85,1.82-.4a133.91,133.91,0,0,1,17.11-2.58l2.14-.19,0,2.14c.1,5.69,0,11.33,0,15.6-.13,8.79.23,17.75.57,26.43.23,5.7.47,11.59.56,17.4a16.68,16.68,0,0,1-1.32,5.8c-.26.72-.54,1.48-.74,2.18l-.84,3Z"/><path class="cls-4" d="M255.61,1321.41c-9.13,0-19.09-1.89-29.62-5.61-13.3-4.71-23.65-19.47-24.62-35.12-.92-15.18,10.14-22.56,21.09-27.78,7.52-3.58,15.39-5.4,26.33-6.1H249c25.56,2.39,42.94,11.48,54.68,28.6,5.32,7.76-1.74,25.67-10.7,32.88A58.29,58.29,0,0,1,255.61,1321.41Z"/><path class="cls-4" d="M256,826.87c-.08-2.07-.3-4.23-.5-6.31-.47-4.74-.95-9.64-.09-14.37,3.27-17.9,22.62-33,42.25-33a35.32,35.32,0,0,1,4.39.27l2.18.26-.48,2.16C299.07,796.54,284.52,811,271.24,823c-2.42,2.18-5.62,3.24-8.71,4.27-1.29.42-2.62.86-3.8,1.36l-2.66,1.12Z"/><path class="cls-3" d="M241.64,1081.66c-3.07,0-4.59-3.6-5.41-5.53-.09-.22-.16-.39-.22-.51-8.09-16.33-18.91-31.3-29.38-45.78l-.11-.15c-3.09-4.27-6.27-8.68-9.35-13.07-8.53-12.16-12.52-26.18-12.57-44.13,0-16.32-.63-33.81-4.65-51.15-.69-3,.58-6.18,1.82-9.22a37.71,37.71,0,0,0,1.38-3.8c5.09-18.32,3.39-32.6-5.35-45-1.92-2.7-2-6.69-2.09-9.61-.12-4.93-.42-9.93-.71-14.77-.56-9.49-1.15-19.3-.49-29.21,2.81-42.15-3.35-62.84-9.73-77.52-3.13-7.19-.81-15.79,1.44-24.11.57-2.08,1.13-4.17,1.58-6.14,1.82-7.94,4.15-15.84,6.42-23.49,3.59-12.15,7.31-24.71,8.94-37.51.74-5.83,1.41-11.79,2.05-17.55l0-.13c2-17.65,4-35.88,8.45-53.25,6.57-25.75,5.09-51.93,3.66-77.25-.25-4.39-.53-9.36-.76-14.21A24.42,24.42,0,0,1,197,474c.47-3.16.88-5.89-1.26-8.36-.37-.44-.68-.88-.95-1.27-.81-1.15-1-1.39-1.66-1.39h-.28c0,.25.05.57.07.79a9.47,9.47,0,0,1,.1,1.26c-.06,18-.07,37.26,0,58.94,0,13.66-1.76,28.26-5.6,45.94-2.38,11-3.56,22.41-4.7,33.49l0,.21c-.53,5.15-1.08,10.47-1.75,15.69a26.83,26.83,0,0,1-1,4.35c-.19.64-.35,1.19-.5,1.74l-.55,2.13-2.07-.76a4.37,4.37,0,0,1-2.84-2.41,4.3,4.3,0,0,1,.6-3.65,4.12,4.12,0,0,0,.36-.75c-.2-4.39-.54-9-.86-13.36-.4-5.51-.81-11.21-1-16.84-.26-9.34-.35-18.82-.44-28-.07-7.33-.14-14.91-.3-22.42-.07-3.63-.31-7.35-.55-11-.32-5-.66-10.2-.57-15.32.16-9.46.49-19.06.81-28.35v-.15c.44-12.83.89-26,.92-39,0-2.75-.08-5.55-.17-8.27-.35-11.32-.72-23,5.33-34,3.28-6,7.77-9,13.36-9a23.33,23.33,0,0,1,10.3,2.85c15.23,7.7,15.06,21.12,14.91,33a95.83,95.83,0,0,0,.23,10.35c1.22,12.5,1,25.18.71,37.45-.22,11-.45,22.29.38,33.43s1.42,23.38.05,35.54c-.74,6.44,0,14,.78,21.36.25,2.49.54,5.32.74,8,1.28,16.68,1.31,33.69,1.34,50.15,0,3.48,0,7,0,10.44.06,12.35,0,24.77,0,36.79v.12c-.09,19.44-.17,39.54.24,59.29.57,27.61,1.88,56.91,4,89.55.67,10.44,1.79,21,2.88,31.25,1.73,16.23,3.52,33,3.54,49.58,0,19.45,3,38.8,9.27,60.88A13.75,13.75,0,0,1,241,969c-.05.85-.1,1.78-.1,2.81V977l-3.48-3.81c-15.37-16.83-23.85-36.34-26.68-61.38-2-17.34-2.29-34.87-2.59-51.82v-.1q-.09-5-.19-10c-.69-31.15-1.48-57.34-3.1-83.94-.65-10.74-2.22-21.64-3.74-32.18-.76-5.31-1.54-10.72-2.19-16a15.13,15.13,0,0,1,.05-3.38,11,11,0,0,0,0-2.74,14.38,14.38,0,0,1,.11-4.13c.11-1,.35-2.93,0-3.32a1.27,1.27,0,0,0-.68-.14h-.09c-1.9,0-3.23,4.07-3.26,7.87a216.44,216.44,0,0,0,1.36,22.37c.35,3.64.71,7.38,1,11.06q.62,8.83,1.3,17.68l.05.62c1.28,16.83,2.6,34.2,3.11,51.37.24,8.19.24,16.47.24,24.47,0,13.48,0,27.4,1.15,41,1.4,16.35,3.06,33.81,5.77,50.75,3.07,19.09,15.54,33.74,27.61,47.91l.46.54c10.23,12,20.35,24.45,30.14,36.47l.21.26q7.47,9.17,15,18.31c2.89,3.52,5.88,7,8.78,10.37l.46.55,3.52,4.11c.27.32.51.64.75,1l.36.47,1.36,1.76-1.89,1.17c-.35.22-.72.5-1.11.79a8.39,8.39,0,0,1-3.79,1.93c-18.74,2.74-33.79,10.35-46,23.27A4.41,4.41,0,0,1,241.64,1081.66Z"/><path class="cls-5" d="M284.69,1252.84c-.54,0-2.2,0-2.86-1.4-.78-1.65-2.64-2-5.61-2.37-3.6-.47-9-1.19-9-8.17a124.53,124.53,0,0,0-2.51-24.74l-.27-1.37,1.19-.73a80,80,0,0,1,15.85-7.24l2.35-.78.28,2.46a79.53,79.53,0,0,0,3.18,15.41c1.4,4.38.73,8.53.09,12.54-.73,4.52-1.35,8.42.91,12.23a2.39,2.39,0,0,1,0,2.39,2.57,2.57,0,0,1-2,1.68C285.73,1252.8,285.19,1252.84,284.69,1252.84Z"/><path class="cls-5" d="M257,1244.58c-5.31,0-8.61-1.93-9.82-5.73l-.06-.2c-.4-1.24-.78-2.43-1.17-3.62l-.28-.83.44-.77a49.63,49.63,0,0,1,10.27-12.61l2.6-2.33.69,3.43a114.11,114.11,0,0,1,1.91,14.28,9.9,9.9,0,0,0,.53,1.71c.6,1.67,1.29,3.57.28,5.12a3.32,3.32,0,0,1-2.73,1.45C258.83,1244.53,258,1244.58,257,1244.58Z"/><path class="cls-4" d="M178.09,903.41c-18.28-5.44-34.23-16.29-51.72-35.19l-.18-.2a67.72,67.72,0,0,1-8.32-10.26c-1.55-2.51-1.88-4.71-1-6.54,1.33-2.76,4.72-3.53,7.87-3.91a89.41,89.41,0,0,1,11-.74c21.51,0,35.3,9.51,44.71,30.83,3.16,7.16,1.75,15.23.51,22.36-.13.7-.74,4.29-.74,4.29Z"/><path class="cls-4" d="M136.53,936.23c-8.73,0-17.45-2.84-25.93-8.44l-2.45-1.62,2.4-1.69c3.15-2.21,6.44-4.3,9.62-6.33,8.55-5.43,17.39-11,24.17-19.41a5.38,5.38,0,0,1,4.24-2.16c2.32,0,4.46,1.42,6.72,2.92,1.73,1.15,3.52,2.34,5,2.57a17.87,17.87,0,0,1,4.74,1.65,12.47,12.47,0,0,0,5.07,1.55c2,0,3.76,1.12,5.33,2.09.6.37,1.21.75,1.77,1l2,1-1.19,1.87c-.68,1.07-1.32,2.29-1.94,3.46-1.49,2.81-3,5.71-5.49,7.69C159.16,931.58,147.69,936.23,136.53,936.23Z"/><path class="cls-4" d="M100.34,1387.41a48.88,48.88,0,0,1-16.55-2.94,6.78,6.78,0,0,1-4.36-3.78,6.56,6.56,0,0,1,.69-5.57c12.58-23.49,30.38-41.33,52.91-53a6.36,6.36,0,0,1,2.95-.8c4,0,5.48,4.21,6.28,6.47l.19.52a43.32,43.32,0,0,1,2,10.26c.15,1.35.29,2.6.48,3.8l0,.14v.14C144.06,1368.57,125.3,1387.41,100.34,1387.41Z"/><path class="cls-4" d="M101.65,919.31a36.33,36.33,0,0,0-4.47-7.68c-2.91-4.18-5.91-8.5-6.11-14.36,0-1,0-2,0-4.17v-.46c0-1.22,0-2.76,0-4.82v-.12c.68-8.3,5.82-19.31,13.43-28.75.84-1,2.4-3,4.66-3,1.77,0,3.35,1.16,4.84,3.53a114.32,114.32,0,0,0,26.72,29.84c.94.73,2.2,1.9,2.19,3.51a3.22,3.22,0,0,1-1.42,2.61c-8.25,6.36-16.76,12.93-25.4,19a48.27,48.27,0,0,1-8.09,4.28c-1.21.54-2.43,1.09-3.58,1.66l-2,1Z"/><path class="cls-4" d="M89.34,1334.42a68.59,68.59,0,0,1-25-5.14l-2.31.46v-7.83l.27-.47c7.88-13.43,20.63-20.77,37.9-21.81q.63,0,1.26,0c7.21,0,14.73,3.57,21.37,6.73l1.32.62c3.77,1.79,5.73,3.88,6,6.39.28,2.8-1.56,5.58-5.8,8.75-11.09,8.3-22.53,12.33-35,12.33Z"/><path class="cls-4" d="M70.71,1375.49c-1.36-1.88-2.82-3.68-4.23-5.42s-2.81-3.47-4.09-5.23l-.39-.53v-29.85l2.63.87,1.31.46a21.06,21.06,0,0,0,2.53.79,167.61,167.61,0,0,0,18.77,2.54c2.63.26,5.29.52,8,.83l4.23.49-3.08,2.94c-8.94,8.56-16.22,18.95-22.26,31.78l-1.44,3Z"/><polygon class="cls-2" points="6 8.83 58 60.83 58 1619.17 6 1671.17 6 8.83"/><path d="M554.71,1104c.14,1.88,1.36,3.56,4,4.44,3.67,1.23,5-.56,6.38-3.8,1.47-3.55,3.07-7.07,4.82-10.52a53.64,53.64,0,0,1,13.46-4.33,125.53,125.53,0,0,1-7.21,12.89c-2.84,4.43-4.56,9.11-2.63,10.38,11.43,7.48,12.4-5.6,14.86-9.46,3-4.71,6-9.41,9-14.15a47.46,47.46,0,0,1,9.25,2.17,214.19,214.19,0,0,1-17.84,25c-2.42,2.92-2.91,4.72.43,6.9,2.81,1.83,5.4,3.82,8.27-.07,6.61-9,13.82-17.51,20.13-26.63.95.58,1.9,1.2,2.86,1.85a55.72,55.72,0,0,1,4.9,3.74c-6,8.9-12.5,17.44-20.35,24.92-3.92,3.73-7.55,6.11-.86,9.24,3.79,1.77,6.15-3,9-5a247,247,0,0,0,22-17.9,40.33,40.33,0,0,1,4,8.66,146.32,146.32,0,0,1-25.26,19.12c-1.64,1-5.81,2.26-3.85,6.07,1.28,2.48,3.88,6.9,4.54,6.67,5.33-1.91,10.89-4,15.35-7.35q5.67-4.29,11.3-8.64a60.84,60.84,0,0,1-1.92,12.81q-6.69,4.07-13.72,7.62c-3.42,1.74-8.67,2.45-8.49,6.61.38,8.59,5.94,1.19,8.31,1.22a44.94,44.94,0,0,0,8.4-.68c9.3-1.61,17.94-5.89,25.78-11,14.34-9.31,29.63-17.38,42.29-29.27,1.72-1.61,5.63-5,8.59-1.64,2.36,2.69-1,4.81-2.74,6.48-13.66,13.17-29.69,23.2-45.87,33.75,16.69,2.71,31.24,7.65,43.21,19.27,3.4,3.3,4.91,10.89,11,9.27,20.79-5.53,41.87-11.49,53.83-31.74,9.47-16,11.32-39.86-2.64-52.49s-31.72-14.56-49.62-15.47c-2-.1-3.58,4.35-5.54.43-1.54-3.07-1.35-5.92.38-9.25,6-11.6,10-24.15,9.52-37.12-1.14-27.72-15.73-46.37-40.6-58.47-36.15-17.59-75-3.11-94.19,28.42-2,3.29-4.94,5.53-7.82,5.61-2.07.06-4.67-3.35-6.3-5.71-8.73-12.65-19.82-23.52-35-25.44-37.32-4.71-56.76,26.65-60.68,54.8-3,21.81,4.84,41.26,16.74,59,1.12,1.68,2.88,7.72,6.59,5,6.78-5,14.71-5.78,22.18-6.9,5.51-.83,6.86-1.69,6.46-7.12-1.17-16.11,2-32.41-2.11-48.44-.35-1.35-1.69-4.32,1.5-4.81,2.19-.33,5.07-.83,6,2.11a47.34,47.34,0,0,1,2.41,11.23c.62,13,.28,26,1.66,38.87.28,2.6-4.59,5.69.43,8,13,5.88,10.68-7.27,11.34-11.18,3.19-18.87,4.48-38.07,6.67-57.12a5.54,5.54,0,0,1,3.12-3.78c2.51-.86,2.42,1.43,3,3.24,3.51,10.46.72,21.06-.63,31.16-1.55,11.71-1.23,24.08-7.06,35.11A6.54,6.54,0,0,0,554.71,1104Zm-176.6,146.65a16.08,16.08,0,0,0,.93-1.81c7.47-16.94,15.68-33.4,20.36-51.5,1.13-4.37-.29-13,6.1-12.78,7.33.26,2.39,7.22,1.82,10.6-2.92,17.26-7.12,34.22-16.33,49.46-1.7,2.82-3.54,5.56-5.14,8.43a17,17,0,0,0-1.11,3.69c3.51.83,6.59,0,8.78-2.86,12.41-16.44,26.05-32.05,33.66-51.66.65-1.7.85-5.89,3.9-4.83,1.82.63,3.47,4.06,3.69,6.38s-1.24,4.85-2.35,7.1c-9.23,18.85-21.66,35.53-35.39,51.67,16.71-1.07,31.4-8.06,44.78-16.13,15.74-9.5,26.59-24.25,31.11-42.84a91.8,91.8,0,0,0,.68-41.91c-5-22.09-20.25-35.53-42-39.72-15.45-3-30.87-1-45.06,8-4.26,2.71-8.81,9.34-14.36,6.55-5.15-2.59-4.71-9.62-5.3-15.23-2.26-21.61-11.84-38.81-31.2-49.52a77.18,77.18,0,0,0-19.89-7.86c-5.41-1.32-14-2.58-22.55-.81-14.34,3-28,7.69-38.63,17.19a63.86,63.86,0,0,0-15.85,22.12c-6.51,14.58-4.79,29.76.63,44.57,2.15,5.87.56,9.63-6.38,7.89-3.44-.86-7.14-1.51-10.22-2.53-15.33-5.11-30.49-4.57-45.86-1.32-27,5.7-39.85,26.94-41.66,50.2-1.6,20.64,8.33,36.8,23.05,50.77a66.92,66.92,0,0,0,30.25,16.62c12.45,3.13,14-11.39,22.42-15.48,1.9-.93,8.07-2.32,4.69-8.45-7.78-14.12-15.31-28.34-27.4-39.43a4.24,4.24,0,0,1-.65-6.06c.54-.74,1.52-3.25,3.87-1.45,14.85,11.42,24.77,26.64,31,43.78,1.81,4.93,3.21,5.33,5.71,3.1,3.4-3,14.2,1.57,10.29-8.86-6.42-17.13-12.78-34.36-23-49.78-1.31-2,.4-2.48,1.2-3.61,1.28-1.82,2.87-1.92,4.21-.61a45,45,0,0,1,5.34,6.41c9.89,14.17,16.2,30,21.53,46.21.42,1.28.83,2.56,1.24,3.84,1.5,4.74,7,4.45,10.44,4.23,3-.19.21-4.08.06-6.14a112.79,112.79,0,0,0-1.88-14,58.25,58.25,0,0,1,8.88-6.54,127.35,127.35,0,0,1,2.55,25.13c0,9.35,11.53,3.5,14.46,9.69.17.36,1.54.25,2.33.18.24,0,.68-.88.56-1.07-4.81-8.09,1.59-16.5-1.19-25.18a82,82,0,0,1-3.26-15.8,99.91,99.91,0,0,1,10.78-3c2,13.52,3.92,27.08,2.07,40.8-1.27,9.44,4.31,14.71,10,20.25,1.2,1.17,2.57,2.16,3.87,3.24.7-2.47,2-5,2-7.41-.24-14.63-1.35-29.27-1.13-43.89.08-5.19.12-10.37,0-15.53,1.25-.11,2.53-.21,3.83-.3,1.87-.12,3.68-.19,5.44-.2.2,23.84,1.22,47.68-1.11,71,11.31-2.45,9.82-11.91,11.86-21,3.6-16.14,4.67-32.36,5-48.61a59.51,59.51,0,0,1,10,2.93c-.5,14.76-3.27,29.2-5.26,43.8-.46,3.33-.55,6.71-.81,10.07,5.75-4.14,16.5-1.06,17.29-12.5a85.28,85.28,0,0,1,3-16.23c1.21-4.48,2.37-9,3.4-13.47a54,54,0,0,1,7.13,9.2c-1.19,4.84-2.54,9.65-4,14.48-1,3.54-6.14,10.42-.39,12.76A10,10,0,0,0,378.11,1250.68ZM571.56,1263c9-17.46,13.55-36.72,19.64-55.4,1.15-3.54.38-9.69,5.47-10.2,2.92-.29,2.73,4.33,2.14,7-5.12,23.5-11.17,46.71-21.55,68.58-.35.75-4.64,3.2-.09,4.3,3.73.91,8.83,4.75,11.24.86,12-19.4,23.82-39,32.43-60.24,1.21-3,1.81-8.49,5.06-7.18,3.08,1.25,1.75,7.07.57,10.46-7,20.14-15.23,39.66-28.67,56.59-2,2.53-5.49,7.79.79,8.74,20.82,3.18,41.54,10.72,62.91,4.21,7.11-2.16,14.73-4.63,20.41-9.13,12.3-9.76,20.67-22.48,26.63-37.47,7.58-19.06-1-50.33-18.27-61.35-23.17-14.83-48-11.45-73.11-8.35-2.46.3-7,2.39-8-2.31-4.72-22.52-16.68-39.3-37.61-49.59-19.76-9.72-56.05-17.93-77.44,2.68-7.48,7.21-19.7,13.17-14.27,27.4a45.89,45.89,0,0,1,3.36,13.08c1,13,2.41,26.06,4.31,39A172.52,172.52,0,0,1,489,1244q-.51,6.26-1.54,12.52c-.38,2.31-.77,4.5,1.4,5.76,3.28,1.91,6.75,4.52,10.24,4.7,3.1.15,1.54-4,1.83-6.27.82-6.5,1.48-13,2.25-19.52.39-3.28.82-6.55,1.26-9.83a41.81,41.81,0,0,1,8.59-2.75c.06,6.88.45,13.88-1.72,20.35-3.92,11.75-2.54,30.42,5.1,39.69.76-5.86,3.63-11.15,5.32-16.68a280.92,280.92,0,0,0,9.73-44c1.48.16,3,.38,4.56.64,1.82.31,3.55.66,5.2,1.07q-.94,8.87-2.33,17.67c-2,12.54-6,24.76-9.13,37.4,4.24-2,10.87-3,12.14-6.08a413.18,413.18,0,0,0,15-42.42,33.34,33.34,0,0,1,6.76,5.9,209.38,209.38,0,0,1-7.72,22.93c-1.5,3.69-2,7.76-3,11.66,4-.59,10.14.27,11.68-2A110,110,0,0,0,571.56,1263Zm30.91-659.86c-.46-22.49-8-40-18.7-56.2-2-3.08-4.81-8.27-8.06-1a32.29,32.29,0,0,0-2.55,11.46c-1,20.19,7.57,35.32,25,45.53,1.21.71,2.5,1.28,3.75,1.91C602.09,604.2,602.33,603.56,602.47,603.16ZM1024,8V1672a8,8,0,0,1-8,8H8a8,8,0,0,1-8-8V8A8,8,0,0,1,8,0H1016A8,8,0,0,1,1024,8Zm-8,1658.34V13.66l-48,48V1618.34ZM962.34,56l48-48H13.66l48,48H962.34ZM13.66,1672h996.68l-48-48H61.66ZM960,1616V1347.07c-10.25,11.67-20.44,23.39-31.18,34.59-16.75,17.5-33.61,35.15-52.32,50.41-20.06,16.35-41.28,32.58-67.93,36.5a102.56,102.56,0,0,1-48.44-4.22c-35.74-12.3-70-27.94-103.92-44.62-24.68-12.15-49.63-23.82-73.86-36.83-16.59-8.91-34.44-13-53.73-19.28,7.69,11.12,13.56,20.75,13.65,32.58.16,20.32-11,34.71-25.73,46.61-12.24,9.88-26.48,14.35-42.59,14.7-6.86.15-4.69,9.36-6.7,14.35-1.23,3.05-.1,7-1,10.24-1,3.56-2.48,9.71-6.51,8.23s-3.21-7.75-2.44-12.22c1.12-6.41,2.32-12.82,3.7-19.18,1.25-5.8-4.14-7.11-6.89-9.67-10-9.26-13.78-21.81-19-33.62-1-2.21-.82-4.93-1.19-7.41-2.21,2.48-5.4,4.61-6.46,7.52-5.72,15.71-17.68,26.5-28.18,38.79-17.32,20.29-39.08,33.5-63.6,41-34.24,10.42-50.3,40.32-72.59,63.35-14.05,14.51-23.92,33.05-37.83,47.72a52.89,52.89,0,0,0-6.85,9.43Zm0-283.7v-27.52a14.36,14.36,0,0,0-8.5,2.65c-28.86,19.43-55.36,41.92-82.11,64-16.44,13.62-35.48,22.17-55.63,27-11.4,2.72-22.83-4.94-30.67-13.23-12.8-13.5-28.23-13.32-44.18-11.59-11.94,1.3-22.06-3.65-32.29-7.78-20.92-8.46-41.8-17.18-62-27.19-9-4.45-16.37-12.22-24.36-18.63-6-4.82-9-2-10.85,4-3.85,12.14-14.69,14.07-24.83,17-1.13.33-2.25.7-3.38,1.06,1,.92,1.91,2.38,3.09,2.7,25.26,6.75,50.57,12.8,74.3,24.77,13.57,6.84,26.78,15.43,41,19.9,20.09,6.31,39.09,15.26,59.08,21.71a265.18,265.18,0,0,0,43.85,10.6c15.44,2.2,29.89-2.11,42.58-11.85,9.63-7.39,17.21-17.5,29-22.09a11.74,11.74,0,0,1,2.62-.37c-.11.91.11,2.12-.39,2.68-19.61,22.17-39.6,44.85-72.74,42.51-20.51-1.45-40.45-7.68-59.71-15.38-20.36-8.14-41-15.55-61.15-24.22-21.64-9.32-42.1-22.08-64.43-28.86-14.79-4.5-29.31-10.39-44.71-13.72-20.65-4.47-40.94-11.84-56.64-27.43-2-2-2.88-1.76-5.08-.28-8.78,5.92-19,2-27.78,3.39-14.75,2.41-21.93-6.19-29.68-13.5-9.5-9-18.53-19.4-19.31-33.74a44.69,44.69,0,0,1,1.48-13.56c1.26-4.82-.43-5.47-4.35-4.3-6.9,2.07-13.84,4.06-20.61,6.49-1.83.66-5.21,1.25-1.67,5.3,17.76,20.34,7.25,44.81-18,55.89-14.51,6.36-29.77,1.89-43.89-2.4-13.43-4.09-10.46,8.37-12.23,12.23-6,13.13-14.3,24.62-22.15,36.43-5.47,8.22-12.24,15.59-18.6,23.55,14.45-3,28.58-6.16,42.8-8.81,11.09-2.06,22.22-3.25,33.26-6.31,9.92-2.74,18.89-6.84,27.82-11.37,9.2-4.67,18-10.14,27.2-14.81,1.75-.89,5.3-1.76,6.67,1,1.27,2.57.05,5-2.55,6.72-20.25,13.29-40.43,26.88-64.65,31.86-13.3,2.73-27,3.67-40.29,6.34-9.08,1.82-18.38,3.57-27.34,4.77-32.26,4.3-51.22,28.08-73.74,46.81-3.52,2.93-6.67,6.3-10,9.46,4.05-1.1,8-2.59,12.17-3.23,17.41-2.72,34.6-6.49,52.19-8.41,22.84-2.5,44.47-10,64.79-21a69.79,69.79,0,0,1,12.06-4.87c1.09-.34,2.72,1,4.1,1.6-1.05,1.48.36,3.49-2.06,5-22,13.62-44.9,24.6-71.09,28-19.9,2.54-39.71,6-59.4,10-15,3-27.34,11.63-38.86,21.31-6.34,5.33-12.2,11.23-18.54,16.56-8.44,7.09-12,17.68-18.88,25.83-2.08,2.46-4.35,6.13-7.41,3.5-2.3-2,.17-5.65,1.72-8.33,13.2-22.9,31.47-41.53,49.24-60.83,20.37-22.12,42.19-42.47,67-59,23.44-15.61,40.77-36.24,56-59.12,6.39-9.6,11.51-20.07,16.66-30.42.35-.69-4-3.68-6.1-5.63-5.56-5.14-11.32-10.13-12.91-18.14a3.23,3.23,0,0,0-2.06-2.13c-1.09-.18-3.13.19-3.39.85-6,15.79-19.08,22.51-33.77,28.45-18.76,7.58-31.7,23-45.68,37.05-11.15,11.18-24.91,18-40.07,23.78-18.22,7-35.45,16.77-43.72,38.17-7,18.18-21.1,32.92-33.57,48.23-12.9,15.84-29.35,27-45.68,38.37-1,.69-2,1.36-3,2v72.74q12.52-13.41,23.85-27.75c16.76-21.18,29-45.94,46.86-66.42,22.24-25.45,46.93-48.3,73-69.94,22.23-18.46,45.54-35.84,65.4-57.06,3.29-3.51,6.31-7.27,9.58-10.79,1.41-1.5,2.89-4.46,5.38-1.83,1.78,1.88,1.62,4.44-.08,6.72-17.24,23.16-38.27,42.22-60.82,60.27-30.34,24.27-58.89,50.66-84.47,80.26-18.06,20.89-30.57,45.73-48.5,66.24-9.75,11.16-19.43,22.62-30.2,33.13V1616H89.19c17.88-21.37,38.91-39.26,63.94-52.06,13.6-7,27.93-12.79,43.41-15.73,8.16-1.56,16.14-6.52,23.09-11.5,15.06-10.79,30.71-21,43.38-34.77,1.59-1.74,3.92-1,4.13.06.42,2.15.45,5.32-.83,6.7-15.11,16.41-31.36,31.93-51.54,41.6-23.4,11.22-49.42,16.51-71.61,30.72-11.81,7.56-22.64,16.27-33.35,25.34a86.53,86.53,0,0,0-9.51,9.64H207.67c4.9-6.62,9.28-13.61,13.89-20.21,19.9-28.48,41-55.83,66-79.76,12.26-11.76,22.12-26.82,41.41-31,26-5.64,46.81-20.45,64.81-40.76,7.65-8.63,17.8-16.43,22.34-26.47a292.45,292.45,0,0,1,17.15-32.08c11.2-18.3,27.35-29.53,49.57-33.15,28.05-4.56,53.56,3.17,79.34,11.67s48.91,22.61,73.23,34.18c25.39,12.07,50.24,25.51,76.33,35.81,21.17,8.35,41.47,19.62,64.54,22.91,17.22,2.45,33.23,1.71,50-5.59,28.2-12.26,48.64-33.56,70.8-53.26,20.51-18.24,38-39.25,56.56-59.26C955.72,1336.78,957.87,1334.54,960,1332.3Zm0-37.06V64H64V1308.65a64.29,64.29,0,0,1,16.74-11.49c15-7.3,31.06-5.78,46.23,2.48,4.4,2.39,6.57,6.59,10.29,9.24,8.12,5.78,15.34-1.77,23-2.6,12.55-1.36,24.75-5.77,37.66-5.36,3.16.11,6.27,1.28,3.37-4.56-3-6-3.12-13.44-5.41-19.93-2.52-7.14-9-1.87-13.55-3-18-4.34-30.35-15.64-41.52-29.31-11.63-14.22-14.21-30.75-13.93-48.35.32-19.83,20.81-45.94,39.92-50.93,19.49-5.1,38.48-7.3,58.46-.46,10.05,3.44,3.47-7.66,3.14-8.79-4.44-15.21.44-28.93,4.74-43.1,2.73-9-5.76-14.94-9.78-21.51-11-18.11-24.65-34.67-35.25-53a87.76,87.76,0,0,1-11.81-50.16c.74-12-2.13-24.27-3.3-36.43-.22-2.31-1.17-3.35-3-1.66-20.83,19.18-42.23,15.47-65.07,3.32-7.36-3.91-14.58,5.35-22.46,6.66-4.59.76-9.19,1.51-13.8,2.09-.5.06-1.73-1.28-1.61-1.66.56-1.75,1-4.27,2.32-4.93,7.35-3.68,14.82-7.17,22.48-10.16,3.46-1.34,3.47-2.5,1.9-5.39-11-20.35-10.58-39.73,2.94-59.38,9.69-14.09,23.88-19.32,38.78-20.66,8.35-.76,18.91.44,26.62,7.21,1.1,1,2.82,1.23,4.26,1.82.18-4.26,1.46-8.83.33-12.69-2.69-9.11-.16-17.89.18-26.79,1-26.67-1.25-52.52-10.28-78.26-3.7-10.53,1.28-24.11,4.9-35.94a137.07,137.07,0,0,0,5.23-21.65c2.7-20,1.2-40-1.41-60-1.35-10.38,2.47-20.93,1.05-31.85-1.83-14,.87-28.75-.62-42.34-1.8-16.48,3.71-32.31.39-48.53-1.43-7,.37-14.58.23-21.89-.31-16.33-2.05-32.73-1.1-49,.92-15.56,10.1-35.44,32.14-32.9,7,.82,22.87,16.62,23.76,23.59,6.51,51.06,2.35,102.37,4.19,153.51.79,21.9.4,43.91,2.17,65.66,3.15,38.83-.17,77.61,1.61,116.36.9,19.34,2.72,38.63,3.76,58,.5,9.41,0,18.87.29,28.3.08,3.16-1.26,8.51,5.45,5.72,2.61-1.09,5.33-2,7.81-3.32s3.73-2.4,3.06-6.48c-4.45-27.44,5.21-46.48,28.73-58.36,6.15-3.11,14.76-6.78,23.17-3.18,3.11,1.34,3.57-1.22,3.53-3.61-.09-6.72-.33-13.45-.2-20.17,0-1.34-.74-3.77,2.42-4,2.83-.17,5,1.16,5.49,3.22,1.23,5.42,4.66,10.34,2.59,16.59-2.6,7.86,2.39,11.8,8.87,15.21,31.49,16.55,29.77,62.49,4.84,81.74-21.92,16.93-55.75,14.83-72.59-12.12-1.88-3-3.66-1.57-6.38-.75-11.69,3.51-17.08,8.85-14.5,22.8,3.62,19.52,3.94,39.59,4,59.59,0,8.19,2,17.46,6.35,24.14,2.29,3.54,11.48,3.16,17.62,3.52,8.18.47,16.29-.16,24.18,3.56,1.6.76,6.8-3.11,8.46-5.94,9.68-16.5,26.55-17.64,42.35-19.09,17.23-1.58,37.51,19.47,43.07,37.7,6.56,21.46-1,37.08-15.09,51.67-14.33,14.8-40.76,16-60.89,4.14C287,1013.93,282,992.34,284.67,972.6c1.41-10.32-7.68-7.29-12.42-9.24-3.93-1.61-8.55-1.75-12.9-2.05-3.34-.22-9.45-.27-9.65.64a30.75,30.75,0,0,0,2.63,20.66c8.78,16.77,23.28,29.28,34.66,44.16,5.39,7,11.18,13.83,16.22,21.13,4.62,6.7,11.82,6.53,18.4,8.21,20.2,5.14,36.52,15.93,45.62,34.91,4.69,9.79,6.6,20.93,9.57,31.51.78,2.77,1.9,3.1,4.09,1.63,25.14-16.83,64.24-16.45,85.18,7.69,2.29,2.63,5.46,4.52,8.2,6.75,4.17-10.33,12.13-17.49,20-24.23-17-15.66-24.63-35.46-25.43-58.6-.84-24.47,7.72-45.09,25.88-60.85,10.42-9,22.91-13.46,38.1-12.63,21.7,1.18,34.43,13.59,45.85,29.35.6.83.59,2.1,1.07,4,6.6-12.28,14.76-22.07,26.26-29,1.82-1.1,3-5.08,2.73-7.58-1.65-19.13,2.23-37.86,3.21-56.77.21-4.16,2.19-8.75.07-14.28-6.64,15.29-17.67,24.79-32.29,29.86-8.21,2.85-16.67,5.83-25.66,3.5-12.23-3.17-15.66,6.45-20.12,14.07-5,8.45-13.38,12.27-21.19,16.9-1.08.64-3.62-1.18-5.48-1.86.69-1.17,1.12-2.7,2.12-3.46,7.21-5.48,12.66-12.35,18.42-19.35,9.29-11.25-.22-12.52-6.18-16.61C508.7,922.2,501,910,496.71,894.81c-4.8-16.82-.23-32.31,6.82-46.35,7.76-15.47,21.9-25.62,39.32-29.43,30-6.57,52.46,5.05,68.88,30,2,3,3.16,6.51,4.72,9.79.49-3.79,1.07-7.58,1.47-11.38,1.7-16.34,3.48-32.67,5-49,.92-10.14,1-20.38,2.15-30.48,1.53-12.82-5.65-24.22-5.42-36.59.14-7.32,2.38-14.61,3.8-21.88,2.45-12.58,5.54-25,7.38-37.72,2.47-16.93,4-34,5.9-51,.09-.8.23-1.88-.18-2.37s-2.16-1.17-2.33-1c-5.57,7-18.22-5.94-20.93,6.7-4.41,20.58-10.85,39.87-25.85,55.4-1.87,1.93-4.16,2.57-5.62,1.23s-1.18-3.75.38-6.06c10-14.85,15.68-31.6,20.73-48.6,3.48-11.74-7.6-12.27-13.2-15.75C573.32,600.12,565.63,586,564.81,567c-1.1-25.68,10-44.12,32.73-54.65,12.46-5.77,26.29-8.3,39.92-1.83,2.57,1.22,3.45.19,3.52-2.57q.27-11.54,1-23.07c.94-15.76,1.83-31.52,3-47.26,2.28-29.55,3.75-59.11,4.1-88.77.22-19.11,2.61-38.12,4.79-57.14.85-7.42,3.39-13.67,5.33-20.39,1.88-6.51,15.5-8.62,21.56-3.76a80.6,80.6,0,0,0,8.42,5.56c18.13,11.06,16.33,28.89,16,46.38-.29,16.34.89,32.77-.39,49-1.92,24.29-2.43,48.48.32,72.66,1.52,13.32,3.92,26.55,5.91,39.82,2.13,14.18-5.7,26.29-8.32,39.49-3.29,16.55-.85,33.17-1.74,49.73-.83,15.53-1.57,31.25-1.13,46.61.57,19.91-3.6,39.35-2.8,59.09.06,1.44-.35,3.23,2.09,3,3.79-.31,8.39,5.39,11.27-.4,7.49-15.08,18.53-26.22,34.33-32.06,19.62-7.26,38.37-6.36,56.39,5.79,21.06,14.21,29.38,34.07,27.85,58.59-1.59,25.35-24.62,50.1-51.69,54.42-21.87,3.49-40.37-2.54-54.8-18.27-9.73-10.61-16-23.39-16.58-39.2-.18-5,8-15.18-4.47-18.17-3.91-.94-7.59-1.64-8.27,3.58-1.57,12-2.62,24.12-4.15,36.16-4.92,38.64-.69,77.43-1.83,116.14-.77,26.33-.15,52.7-.15,80.09,14.59-18.43,31.89-25.86,54.6-20.91,13.45,2.94,31.57,18.56,35.41,33.49,6.66,25.91-2.5,49.44-26.69,61.84-8.34,4.27-19.11,7.32-29.56,3.38-1.26-.47-2.9.05-4.36.11.35,1.21.44,2.61,1.11,3.61,3.69,5.49,8,10.65,8,17.82,0,.73.87,1.46,1.33,2.19a10.58,10.58,0,0,0,2.06-1.65c16.55-22.48,41.71-22.25,56.38,1.6,6.67,10.83,5.78,24-1.67,34.33-9.33,13-26,17-37.75,12.41a43.05,43.05,0,0,1-15.75-10.87c-3.25,7.43-6.22,14.78-9.73,21.87-1.07,2.16-1,3.71,1.09,3.19,18.28-4.68,33.56,3.4,48.75,11.36,9.24,4.84,17.69,31.6,14.3,42-3.3,10.1-4.79,20.87-11.58,29.59a14.81,14.81,0,0,1-3.1,3.26c-1.46,1-3.58,1.29-2.82,3.8.59,2,1.88,2.66,4,3,6.62,1.19,12.59,3.59,17.43,8.81,10.89,11.73,13.62-4.37,20.31-6.76,4.34-1.56,7.25-7.11,10.84-10.84,1.45-1.52,3.6-2.23,4.65-.26,2.21,4.14.28,8-2.57,11-2.33,2.46-5.49,4.11-8,6.39-7.67,6.83-14,11.68-9.59,25.77,6.76,21.65-5.47,41.35-25.64,51.51-17.08,8.6-46.2-.42-55.58-17.11a63.4,63.4,0,0,0-4.65-6.42c-19.15,53.23-58.28,65.45-113.42,53.17,25.19,17.13,43.87,35.41,70.13,43.25,15.74,4.7,29.65,15.06,45.67,20.14,11,3.51,21.43,5,33.4,2.08,10.84-2.6,22.62,3,30.56,10.42,24.88,23.22,32.8,15.45,58.42,3.58,20.71-9.61,36-27,54.16-40.29,18.81-13.69,37.4-28.11,57.83-38.93A12.06,12.06,0,0,1,960,1295.24Zm-172.19-543c19.11-7.71,32.8-28.37,31.12-47.57,0-4.27.6-8.65-.21-12.76-.51-2.54-.24-8.41-5.51-6.14-15.86,6.81-27.72,19-39.32,31.26-1.25,1.33-3.86,2.54-1.93,6.07,4.2,7.7,7.28,16,11.24,23.86C784.2,749,783.72,753.91,787.81,752.26Zm12.54-69.63c11.17-5.93,11.09-6.4,9.16-9.65-9.69-16.35-25.87-20-41.68-22.34-21.35,1.12-36.71,10.48-47.93,26.65-1,1.4-6.75,5.49.1,8.41a140.09,140.09,0,0,1,42.61,28c2.2,2.12,2.12.29,2.9-.72C775.09,700.49,786.31,690.07,800.35,682.63Zm-39.69,577.58c25.69-.58,41.42-20.54,34.85-46-.46-1.81-2.63-3.18-4-4.76-4.81,5.82-9.82,11.48-14.38,17.48C769.45,1237,765.51,1249.06,760.66,1260.21Zm24.24-55.79c3-3.2,2.61-4.45-.86-7.55-9.38-8.39-20.42-8.06-31.59-7.77-11.51.31-28.38,18.9-27,28.74,10-1.34,20.06-1.9,30,.13,4.59.94,10.82,5.36,13.11,3.72C774.89,1217.18,779.41,1210.19,784.9,1204.42Zm-4-162.11a25.11,25.11,0,0,0-24.79-25.24c-12.59-.13-25.08,13.17-25.09,26.7,0,10,15.13,23.19,26.5,23.17C769.46,1066.92,780.93,1054.84,780.94,1042.31ZM765.74,756.9c8.27.37,10.48-.59,9.45-4.19-7.3-25.42-26.22-40.16-48.43-51.39-3.71-1.87-11.69-13.14-13.16,1.95-.35,3.55.42,8,1,11.9C717.58,736.4,743.55,756.77,765.74,756.9Zm4.11,207.43c1.63-.82,1.06-6,1.45-8.91-1.14-19.2-9.39-33-27-41.12-4.11-1.89-3.26.16-3.21,2.31.41,17.47,2.68,34,21.1,42.58C765.12,960.56,766.11,966.22,769.85,964.33Zm-10,272.39c4.89-6.91-.28-8.39-4-9.34a61.13,61.13,0,0,0-19.33-2c-4,.3-10.84-2.25-11.44,3.65,0,11.21,14.62,28.72,23.32,29.83,2,.26,4,.87,4.79-2.92C754.54,1249.3,756.07,1242.06,759.84,1236.72Zm-8.58-247.67c12.32-6.84,16.22-17.21,8.2-21.94-17.82-10.53-36.11-19.29-57.8-18.28-8,.38-17-2.91-13.12,9.43.32,5-.69,9.35,1,12.13C703.21,993.39,726.56,1002.74,751.26,989.05Zm-15.11-44.26c.1-.7.5-1.52.27-2.08-2.68-6.42-4-13.06-3.21-22.56,2.33-7.79-1.78-11.06-11.75-8.65-14.79,3.59-25.48,12.15-32.06,25.84a5.81,5.81,0,0,0-.06,2.88,2.77,2.77,0,0,0,1.55.18c14-3,27.48.61,41,3.68C733.27,944.4,734.72,944.56,736.15,944.79ZM698.92,502.55c1.49-7.5,5.11-14.44,3.55-19.92-5.86-20.59-7.58-41.44-7.54-62.62,0-19.94-.16-39.88.09-59.81.1-8,1.89-16,1.53-23.88-.87-18.93,6.27-39.79-11.92-55-6.5-5.43-13.73-11.37-20.45-1.36-2.48,3.68-1,9.89-1.72,14.9-1.62,11.88-4.47,23.7-4.92,35.61C657,345,660.06,359.67,658.63,374c-2.68,26.92-.88,54-5.28,80.9-2.27,13.85-2.47,28.22-1.92,42.29.3,7.38-5.32,15.93,3.18,22.5a46.61,46.61,0,0,1,15.87,21.05c7.79,21.08,6.7,40-8.05,58.52-5.38,6.75-18.75,8.29-15.75,21.45.8,3.52.38,7.43,0,11.1-1.73,14.74-3.45,29.48-5.65,44.15-1.37,9.11-3.51,18.09-5.44,27.1-2.8,13.06-9.3,26.11-4,39.52,8.09,20.65.67,41,.37,61.48-.18,12.11-1.78,24.21-2.87,36.3-1.65,18.13-3.54,36.24-5.09,54.37-1.32,15.29-2.31,30.61-3.45,45.91a411.59,411.59,0,0,0,19.76-45.23c5.65-15.13,11.07-30.35,12.83-46.64,1.5-13.83,3.8-27.57,5.92-41.33.24-1.55,1.63-2.93,2.49-4.39,1.09,1.29,2.77,2.41,3.17,3.88,5.46,19.91.83,39.33-3.69,58.56-6.44,27.42-18.41,52.87-29,78.85-4.41,10.85-11.11,21.45-11.16,34.44,15.34-7.52,30.54-6.25,46.22-4.75,2.89.27,13.44,14.65,13.68-2.78,0-1.71-1.52-3.41-1.58-5.15-.81-22.43-1.93-44.87-2-67.3-.08-16.78,1.74-33.56,1.71-50.34,0-19.34-2-38.69-1.64-58,.38-21.94-1.33-43.83,3.06-65.93,2.63-13.25,3.66-27.33,5-41.08,1.7-17.29,3.77-34.55,5.67-51.82-6.17,16.2-11,32.63-16.21,48.91-7.19,22.33-15.67,44.3-17.76,68-.25,2.87-2.25,5.59-3.43,8.37-3.12-1.56-6.74-3.83-6.15-7.26,2.52-14.74,5.28-29.47,8.86-44,2.91-11.79,7.17-23.24,10.71-34.87,5.84-19.22,11.49-38.5,17.4-57.7,4.14-13.42,7.91-26.79,6.75-41.14-1.5-18.46.14-37-1.4-55.57-1.13-13.67-1.11-28.25-5.66-40.36-10-26.68-15.2-53.84-14.72-81.81.43-25.35,6.08-50.28,12.06-74.94.71-2.95,4.75-7.87,5.46-7.58,3.77,1.57,2.26,5.7,2.13,8.8-.15,3.65-1.39,7.25-1.85,10.9-2.08,16.61-3,33.43-6.3,49.79-4.09,20.48-1.23,40.42,2.67,60.18C687.4,461.28,693.36,480.87,698.92,502.55Zm-34,65.72c0-4.58,1.78-10.5-.42-13.43-3.21-4.28,1.52-20.38-11.67-11.49-17.19,11.57-44.14,16.22-40,46,1.06,7.64-8,23.64,14.54,18.33C643.39,604,665.67,585.58,664.93,568.27ZM649.44,533.7c4.31-2,4.4-3.09.81-5.43-9.17-6-18.3-12.2-30.09-11.2-8.84-.51-17.57,1.23-24.27,6.59-3.49,2.79-14.51,3.64-8.75,11.35,7,9.41,13.6,18.76,18.32,29.5,1,2.41,2.94,2.56,5.06.19C621.73,552.18,634,540.77,649.44,533.7ZM580.18,928c29.49-14.66,35.78-45,26.21-71.48-.82-2.28-2.66-8.44-6.19-6.12-6.22,4.08-12.48,9.34-16.3,15.59a489.92,489.92,0,0,0-27.72,51.38c-1.36,3-15.12,11.91.45,16.51C565,931.89,573.33,931.42,580.18,928Zm19,396.76c5.68-5.89,6-13.55,2.15-20.7-6.4-12-17.47-18-30.26-19.32-13.69-1.42-26.29,2.94-38.41,10-11.19,6.57-13.68,18.28-4.23,26.57,12.3,10.79,27.51,10.2,42.21,11.75C581.1,1333.24,591.53,1332.75,599.2,1324.77Zm-6.51-480.39c1-1,3.57-1.86,1.55-4.3-9.9-11.92-45.45-17.67-59.23-9.83-14,8-25,18.34-29.33,34,18.23,3,36.43,6.72,50.1,20.84,3.6,3.72,4.87,2.16,6.12-1C568.35,867.86,580.61,856.21,592.69,844.38Zm-46.26,69c2-5.42,7-12.83,5.11-16-9-15.06-25-19.4-41-22.42-2.44.55-5.26-1.36-5.63,3.46-1.46,18.76,7.27,32.61,20.64,44.11,7.21,6.21,14.59,8.53,18.44-3.87C544.54,916.83,545.78,915.22,546.43,913.4Zm-13.52,484.79a41.35,41.35,0,0,0,0-5c-.86-6.87-5.53-14.68-7.87-13.31-23.16,13.49-35.9,35.59-47.78,58.31-1.1,2.11-1.69,6.25-.51,7.45,2.66,2.66,6.71,1.4,10.24.73.9-.17,1.79-.42,2.69-.58C509.09,1442.41,532.94,1416.18,532.91,1398.19Zm-9.31-28.14c-2.31-1.28-3.7-1.88-4.9-2.73-10.65-7.58-23-7.55-34.84-6-13.11,1.74-25.9,5.66-33.56,18.26-1.13,1.86-2,2.4,1.06,3.52a98.51,98.51,0,0,1,33,20.37c2.9,2.69,3.56-.16,4.32-1.16,6.5-8.61,13.47-16.71,22.34-23C514.69,1376.74,518.26,1374,523.6,1370.05Zm-17.13-58c2.31-8.52,1.94-16.88-2.7-25.45-7.29-13.47-21.15-16.8-32.9-22.66-6.47-3.23-16.57-2.76-22.77,3.17-6.64,6.36-5.77,15.42-1.11,22.42,11.53,17.31,27.93,26.71,52.35,26.43C500.11,1315.89,505.48,1315.72,506.47,1312ZM479,1255.84c4.61-14.44,1-29.13,1.29-43.85-5.13,18-18.06,29.53-31.71,40.49-1.2,1-4.2,0-3.39,3.06.74,2.71,3.31,1.62,4.57,1.27a44.74,44.74,0,0,1,27.28.64C479.09,1258.18,478.62,1256.87,479,1255.84Zm-.49,161.22c4.05-5.44.67-7.59-2.56-9.83-4.78-3.31-10.24-5.65-15-8.93-13-8.89-17.57-8-19.15,5.33-.65,5.55,1.61,11.67,3.47,17.22,3.12,9.34,10.93,14.73,16.6,19.63,5.81,1.11,6-2.16,7.11-4.35C472,1429.74,474.28,1422.68,478.46,1417.06Zm-67.52-125c-.47-1.43-.92-5.6-3-8.65-16.18-23.74-53.16-24-73.39-11-4.72,3-11.81,6-13.32,12.67-2.25,9.89,11.19,29.23,21.4,31.83s20.3,5.55,30.85,7.17C389.81,1326.58,410.92,1310.73,410.94,1292.07ZM353.28,1019c21.13-15.23,26.3-29.11,18.82-53.72a72.77,72.77,0,0,1-19.92,22c-4.72,3.48-15.92,5.54-7,15.82C349,1007.58,353.28,1012,353.28,1019Zm13-60.23c.26-.31,0-1.34-.37-1.83-6.41-9.28-15.67-14.27-26.47-15.77-17.78-2.47-31.75,4.49-41.43,18.38,7.56,5.42,15.36,10.93,23.09,16.55,4.9,3.56,11.66,11.43,14.2,10.23C347.94,980.32,357.35,969.62,366.26,958.78Zm-21.34,63.51c-.37-1.84-.2-4.06-1.19-5.45a188.12,188.12,0,0,0-36.93-39c-4.09-3.24-8.8-5.7-13.22-8.51-1.1,4.54-2.21,9.09-3.38,13.93,1.53,5.48,2.05,11.38,4.7,16.08,8.17,14.5,19.68,24.71,37.6,24.41C336.65,1023.7,340.78,1022.81,344.92,1022.29ZM334.29,835c2-6.1,5.22-11.94,4.7-17.82-.05-15.68-7.87-26.46-18.41-35.63-3.69-3.21-8.76-3.5-9.54-1.55-3.73,9.36-6.88,18.88-14.32,26.48-2,2.08-9.74,6.36-2.7,10.89,10.63,6.85,22.32,12.08,32.85,19.06C331.08,839.19,332.89,839.28,334.29,835ZM323,847.82c.66-.47,3.16-1,.59-3.06-12.23-10-26.33-16.6-41.23-20.89-3.26-.94-8.95,4.2-12.52,7.58-2.15,2-9.75.84-6.1,6.74,7.68,12.43,19.91,17.56,34.05,18.75C307.26,856.75,315.53,853.27,323,847.82Zm-31.28,458.91c8.23-6.62,14.89-23.49,10.3-30.19-13.07-19-32.5-25.8-53.14-27.74-9.74.62-17.66,2.13-25.6,5.91-11.46,5.46-20.76,12.54-19.95,25.85.94,15.23,11.07,29,23.29,33.35C248.08,1321.49,271.47,1323.05,291.76,1306.73Zm10-531.32c-19.14-2.37-41,12.3-44.42,31.14-1.18,6.49.34,13.48.62,20.24,4-1.7,8.88-2.51,11.95-5.28C284.13,808.69,297.37,795,301.75,775.41Zm-7,277c-.35-.45-.68-.92-1.05-1.36-4.26-5-8.6-10-12.78-15.06-15.1-18.34-29.9-36.93-45.29-55-12.6-14.8-25.33-29.55-28.52-49.43-2.7-16.85-4.34-33.89-5.79-50.9-1.86-21.79-.75-43.72-1.4-65.57-.69-23.28-2.84-46.46-4.46-69.59-.78-11.11-2.43-22.35-2.33-33.59,0-3.85,1.38-10,5.42-9.85,4.71.17,1.87,6,2.45,9.25.35,2-.32,4.18-.07,6.22,2,16.12,5,32.17,6,48.35,1.7,28,2.48,56,3.1,84,.45,20.61.44,41.13,2.78,61.73,2.55,22.57,9.85,42.38,26.17,60.25,0-3.14.44-5.19-.07-7-5.74-20.09-9.33-40.13-9.35-61.43,0-26.9-4.69-53.76-6.42-80.7-1.93-29.85-3.37-59.75-4-89.64-.67-32.07,0-64.15-.2-96.23-.1-20.16.18-40.38-1.36-60.45-.76-9.92-2.55-20.72-1.52-29.74,1.35-11.92.77-24-.06-35.16-1.76-23.7,1.21-47.31-1.08-70.84-1.45-14.93,4.27-32.46-14.05-41.72-8.45-4.27-15.92-3.94-21,5.3-7.21,13.12-4.89,27.28-4.91,41.34-.05,22.51-1.35,45-1.74,67.53-.15,8.73.94,17.46,1.12,26.2.36,16.79.27,33.59.74,50.38.28,10.1,1.38,20.17,1.82,30.27.08,1.69-3,3.6.58,4.92a46.1,46.1,0,0,0,1.48-5.83c2.11-16.54,3-33.34,6.5-49.56C188.68,554.39,191,539.4,191,524q-.06-29.48,0-58.95c0-1.54-1.07-4,2.07-4.05,2.3,0,2.87,1.84,4.17,3.35,3.92,4.55,1.15,9.73,1.36,14.18,1.42,30.69,4.9,61.25-3,92-5.86,23-7.47,47-10.48,70.69-2.68,21-10.7,40.69-15.39,61.2-2.22,9.71-6.74,20.73-3.14,29,11.1,25.51,11.66,52,9.9,78.45-1,14.83.83,29.21,1.2,43.8.07,2.88.18,6.34,1.72,8.51,10.34,14.62,10.18,30.33,5.65,46.64-1.12,4-4,8.47-3.18,12,3.95,17,4.66,34.41,4.7,51.59,0,15.89,3.25,30.22,12.21,43,13.58,19.38,28.4,37.9,39,59.27.58,1.18,2.52,7.24,5.62,4,13-13.72,28.77-21.19,47.18-23.88C292.08,1054.61,293.37,1053.23,294.74,1052.38ZM231.57,1345c4.86-6.58,10.82-15.24,22.12-17-11.93-3.14-24.32-2.56-33.15-10.21-18.07-15.67-36.85-6.95-55.66-3.21a60.49,60.49,0,0,1-8.42.64c-13.82.75-9,10.47-7,16.8,4.63,14.32.13,33.37-10.29,44.5-22.37,23.87-47.56,23.55-71.27,7.7a31.35,31.35,0,0,1-3.93-3.15v118.49A307.48,307.48,0,0,0,97.74,1472c17.14-16.36,30.35-36.14,41.35-57.34,8.59-16.57,20.93-27.81,39.83-34.47C198.64,1373.23,218,1363.46,231.57,1345ZM178.66,901.49c1.2-7.16,3.21-16,0-23.28-11.46-26-29.32-32-53.67-28.92-3.08.38-9.14,1.36-5.41,7.42a67.82,67.82,0,0,0,8.27,10.15C142.08,882.25,158,895.34,178.66,901.49Zm-2.29,8.69c-2.08-1-4.15-2.88-6.24-2.91-3.89,0-6.77-2.73-10.08-3.22-5.15-.77-10.47-8.61-14.16-4-9.54,11.77-22.63,18-34.19,26.12,20.28,13.4,39.59,9.19,57.68-5.28C172.53,918.32,174.08,913.78,176.37,910.18ZM143,1342.63c-.67-4.33-.77-9.29-2.38-13.69-.83-2.24-2.25-7.37-6.62-5.1-22.83,11.88-39.93,29.57-52.07,52.22-1.95,3.64,0,5.59,2.59,6.53C112.59,1392.69,141.84,1374.78,143,1342.63Zm-2.68-448.76c1.09-.83.73-1.77-.79-3a116.33,116.33,0,0,1-27.19-30.36c-2.63-4.21-4.51-2.5-6.24-.35-7.52,9.32-12.36,19.83-13,27.61,0,6,0,7.72,0,9.38.3,8.69,7.66,13.93,10.45,21.41,3.82-1.9,8-3.36,11.41-5.79C123.56,906.76,131.92,900.31,140.27,893.87ZM123.1,1320.49c6.69-5,6.66-8.65.16-11.73-7.25-3.43-15.44-7.58-23-7.13C85,1302.55,72,1308.8,64,1322.45v4.86a1.46,1.46,0,0,1,.81,0C85.49,1335.52,104.71,1334.25,123.1,1320.49ZM95,1341.94c-9.5-1.09-18.38-1.57-27-3.4-1.26-.27-2.69-.86-4-1.31v26.43c2.59,3.54,5.6,6.91,8.33,10.65C78.09,1362.08,85.31,1351.23,95,1341.94Zm-39,276.4V61.66l-48-48V1666.34Z"/><path d="M693.21,1101.13c1.91,1.89.16,4.51-2,6.43-6.92,6.11-14,12.12-20.42,18.7a161,161,0,0,1-31.6,24.76,60.84,60.84,0,0,0,1.92-12.81q22.78-17.52,45.19-35.57C688.76,1100.67,691.53,1099.46,693.21,1101.13Z"/><path d="M675.55,1071.68c1.93,1.56,1.85,3.82.55,6.28a92.36,92.36,0,0,1-10.69,15.7A299.66,299.66,0,0,1,639,1122.34a40.33,40.33,0,0,0-4-8.66A297.21,297.21,0,0,0,671.13,1074C672,1072.8,673.16,1069.73,675.55,1071.68Z"/><path d="M651.72,1043.34c1.88.89,3.95,2.45,2.78,5.9a141,141,0,0,1-15.29,31.67c-4.62,7.19-9.09,14.49-13.86,21.54a55.72,55.72,0,0,0-4.9-3.74c-1-.65-1.91-1.27-2.86-1.85q2-2.88,3.87-5.85c9-14.49,21.24-27.26,25.64-44.49C647.59,1044.64,649.49,1042.28,651.72,1043.34Z"/><path d="M627.14,1042.79c1.66,6.83-2.55,12.43-4.84,18a220.71,220.71,0,0,1-15.7,30.89,47.46,47.46,0,0,0-9.25-2.17c9.51-15.17,18.45-30.7,23.87-48,.35-1.12,2.5-2.22,3.89-2.34C627.75,1038.89,626.79,1041.35,627.14,1042.79Z"/><path d="M599.1,1043.09c1,5.25-3,8.89-4.12,13.49a161.15,161.15,0,0,1-11.63,33.24,53.64,53.64,0,0,0-13.46,4.33c1.16-2.33,2.4-4.62,3.69-6.87,8-13.92,12.62-29.08,17.49-44.21,1-3.23.63-9.08,5.11-8.78S598.5,1039.89,599.1,1043.09Z"/><path d="M571,1180.32c2.67,0,2.12,2.88,2,4.75-.43,11.66-1.32,23.23-3.87,34.71-1.67,7.53-3.43,15-5.51,22.42a33.34,33.34,0,0,0-6.76-5.9q.92-3.25,1.74-6.52c3.75-14.92,7.92-30,8.52-45.57C567.21,1182.78,569.67,1180.3,571,1180.32Z"/><path d="M542.8,1176.29a350.42,350.42,0,0,1-1.6,53.44c-1.65-.41-3.38-.76-5.2-1.07-1.56-.26-3.08-.48-4.56-.64q.79-5.76,1.34-11.58c1.47-15.91,1.49-32,2.31-47.93.08-1.42,1.3-2.81,2.15-4.11.11-.16,1.66.17,1.8.55C540.44,1168.69,542.62,1172.45,542.8,1176.29Z"/><path d="M513.06,1185.88c.37,10.49,2.6,20.66.63,31.59a59.84,59.84,0,0,0-.68,11.17,41.81,41.81,0,0,0-8.59,2.75c1.88-14.35,3.71-28.68,1.22-43.33-.62-3.67-1.44-9.59,2.67-11.89,2.93-1.64,2.27,3.84,4.39,5.38C513.46,1182.11,513,1184.38,513.06,1185.88Z"/><path d="M372.54,1170.18c4.27.06,2.4,4.73,2.43,7.36a218.84,218.84,0,0,1-1.6,30.23,176,176,0,0,1-3.82,20.12,54,54,0,0,0-7.13-9.2c3-13.16,5-26.45,4.53-40.13C366.8,1174.42,368.2,1170.11,372.54,1170.18Z"/><path d="M344,1187.82a116.13,116.13,0,0,1,.82,19.2,59.51,59.51,0,0,0-10-2.93c.27-12.74.1-25.47.36-38.22.05-2.88-1.78-7.37,2.66-7.57,3.52-.17,6.07,3.44,5.2,7.41C341.35,1173.18,343.07,1181.07,344,1187.82Z"/><path d="M319,1196.11q0,3.3,0,6.6c-1.76,0-3.57.08-5.44.2-1.3.09-2.58.19-3.83.3-.27-17.9-2-35.58-8.3-52.82-1.11-3-3.5-7.83,1.11-10.65.68-.42,3.74,1.37,4.37,2.75A128.34,128.34,0,0,1,319,1196.11Z"/><path d="M290.66,1189.64c.6,5.37,1.41,10.74,2.2,16.11a99.91,99.91,0,0,0-10.78,3,126.35,126.35,0,0,1-.73-14.51c.06-11.93-8.38-21.94-6.42-34,.22-1.34-.55-3.39,1.89-3.19,1.42.12,3.75.55,4,1.4C284.43,1168.75,289.47,1179,290.66,1189.64Z"/><path d="M266.63,1215.77a58.25,58.25,0,0,0-8.88,6.54q-.4-2-.9-4c-3.4-13.79-4.77-28.15-11.2-41.14-1.32-2.67-1.66-5.64,1.62-7,3.12-1.35,4.53,1.92,5.31,3.68C258.65,1187.41,263.75,1201.31,266.63,1215.77Z"/></svg>