<svg xmlns="http://www.w3.org/2000/svg" xmlns:xlink="http://www.w3.org/1999/xlink" viewBox="0 0 976 1600"><defs><style>.cls-1{fill:none;}.cls-2{fill:#f4f3ef;}.cls-3{clip-path:url(#clip-path);}.cls-4{fill:#6060bf;}.cls-5{fill:#50b271;}.cls-6{fill:#ffb85a;}.cls-7{fill:#d81e1e;}.cls-8{fill:#592116;}.cls-9{fill:#992d17;}</style><clipPath id="clip-path"><path class="cls-1" d="M960,22V1578a6,6,0,0,1-6,6H22a6,6,0,0,1-6-6V22a6,6,0,0,1,6-6H954A6,6,0,0,1,960,22Z"/></clipPath></defs><g id="Paper_Backing" data-name="Paper Backing"><path class="cls-2" d="M960,22V1578a6,6,0,0,1-6,6H22a6,6,0,0,1-6-6V22a6,6,0,0,1,6-6H954A6,6,0,0,1,960,22Z"/></g><g id="Wikipedia_Cropped" data-name="Wikipedia Cropped"><g class="cls-3"><path class="cls-4" d="M505.6,1290c-29.15-10.8-40.89-52.12-61.5-74.51-40.19-65.06-78.62-132.09-104-204.1-69.38-173.45-107-363.3-122.54-550.63-2.15-36.32-5.2-72.34-9.94-108.35,1.28-10-9.32-31.81,4.54-33.31,80.64,6,162.17,4,243.15,10,11.43-5.93,5.41,83.07,9.35,94.78,2.43,68.65,8.47,138.32,21.74,205.75C520.26,868.94,600.35,1057,734.9,1258c5.81,9.76-4.14,11.7-10.74,10.71-73.15,3.1-146,13-218.56,21.29Z"/><path class="cls-5" d="M839,1556.33c-21.19-31.09-.16-105.71,14.66-136.8,19.63-24.87-47-14.07-59.49-20.5-41.5-10.64-88.35-15.7-121.44-46.69,34.44-41.33,100.09-62.22,152.66-63.58,29.15,6.27-22.61-68.68-22.75-93.59-15.15-50.55-21.36-101.27-26.31-153.62,1.15-8.85,8.93-1.79,11.76,2C853.6,1093.32,893.13,1162,933,1229.91c11.33,17.18,39-43.06,47-25.53-.36,50.95-.06,109.49,0,160.78-3.3,3.35,6,100.4-4,100.84-21.37-29.7-12.57-40.27-36.64-1.08C909.61,1505.17,881.89,1534.58,839,1556.33Zm34.25-974.68c-6.32.65-6.92-11.72-8-17-6.42-38.39-14.16-77.32-8.32-116.81-.55-9.36,12.39-39.7-5.14-36-35.25,21-73.58,31.71-114.36,40.74-22.91,3-195.65,32.91-144.54-13.2,30.06-45.21,65.15-75.82,106.4-106.91,15.52-20.32,94.87-52,80.05-64.64-47.76-24.08-109.5-59.38-142.67-99.17,54.72-32.25,135.33-20,196.82-7.14,21,8.47,17.84-5.78,11.79-20-7.58-37.42-19.5-73.69-21.67-112,.69-24-8.39-100.6,27.19-55.17,44.28,45.37,90.88,94.44,116.27,153.41,17.95,16.87,11.71,59,12.92,82.36-.93,25.52.42,67.81,0,93.75-2.25,8.78,4.33,177.6-2.37,184.75C945.56,517.87,909.68,565.26,873.22,581.65Z"/><path class="cls-6" d="M256.06,958.29c-7.6-.4-10.4-9.45-12.61-15.41-20.12-36-18-82.82-25.54-121.52-43.29,16-80.61,48.27-131.26,53.79-13.13.9-56,17.42-56.35-1.54,23.55-42.38,60-75.66,96.91-105.72,19.56-21.08,65.05-36.83,14.18-51.26C104.45,700.75,49.28,673,37.6,636.8c43.06-21.32,94.83-7.51,138.79-4.28,4.83-27.07,7.46-57.1,19.44-81.65,4.68-6.65,16.42-43.94,25.2-31.34,7,78.88,16.57,157.81,33.66,229.23,14.7,41.42,22.07,86,35.86,128C291,896.84,269.47,948.1,256.06,958.29Z"/><path class="cls-7" d="M282.43,1604a4.22,4.22,0,0,1-4-5c1.52-36.32-22.49-3.2-34.48,5-15.93-.34-43.6.14-59.26,0-3.66-2.48-41.63,6.17-31.47-7.68,5-17.75,37.46-53.13,1.41-51.26-53.29-11.44-110.7-22.36-156.87-52.15-9.94-9.59-46.88-31.83-34.6-45.56C3,1426.91,48.89,1423,93.33,1423.92c112.75,11.2,52.92,8.14,39.61-70.25-19.57-66.79-30.1-139.47-54.62-202.53,9.48-6.13,19.75,7.26,27.4,12.06,56.1,41.82,99.71,95.92,141.61,151.68,12.25,8.58,23.32,53.85,38.74,38.53,41-52.26,94.47-83.74,154.69-120.15,28.7-3.7-34.66,171.9-47.13,187.83-6,7-2,16.19,8.13,13.71,22.12,0,43.6,4.43,64.08,8.88,32.87,5.78,66.59,18.51,97,30.6,7,14.1-37.06,28.33-47.29,35.94C369.27,1587,272,1522.58,321,1597.55,328.17,1609.94,285.83,1601.77,282.43,1604Zm371.18-494C565.06,969.37,524.37,813.06,493.69,650c-19-60.57,40.55-1.45,59.89,14.37,22.68,12.1,57.49,90.37,69.15,78.33,41.34-71.19,136-94.12,204.81-127.9,17.92,5.77-39.33,110.82-50.06,125.9C664.61,901,706,804.4,840,887.64c38.81,22-58.79,35-72.15,40-25.91,6.22-54.35,2.8-79.45,6.51-6,22.37,4.67,55.05-3.75,79.23C678.13,1045.52,673.74,1085.74,653.61,1110Zm-516-639.32c-15.56-27.25.27-70.82,5.61-101.73,22.71-45.12-58.74,12.21-144.36-18l.13,0c-60-10.3,31.6-60.76,51.76-75.21,66.78-32.23,43.23-15.69,18.87-76.7C61.31,179.86,2,40.24,39.12,48.11,88,68,149.14,117,182.3,153.9c6,4.65,14,23.11,21.42,11.13,1.49-21.87,113.1-185.16,104.13-100,.22,45.67,16.83,86.4,13.91,132.78.6,11.81,14.87,3.59,22.46,5,35.28,1.62,65.91,14.39,99.49,22.28,43,14.36-72.46,75.06-90,81.75C328.07,316.56,295,328.3,268.41,315c-8.07,7-55.25-5-62.62,2.54-.9,12.15,5.34,24.47-1.69,37.25,3.84,14,6.8,30,6.23,45.92C196.29,432.37,164.28,458.28,137.63,470.67Z"/><path class="cls-8" d="M979,1249.76c1.64,3.28-1.33,6.68-3.39,9.51-15.22,20.47-30,41.42-44.62,62.23-3.9,4.4-6.47.26-7.91-3.28-18.92-42.44-39.48-84.18-61.29-125.21,15.93,45.74,36.77,90.57,54.79,135.83,1.61,3.91,1.46,6.43-4.12,6.35-41.26-1.56-83.13,1.16-124,4.75,36.07,7.87,73.94,10,110.92,9,15.25-.72,33.16-1.3,19.4,16.94-10.66,32.69-28.51,63.09-34.26,97.21,67.54-102.13,32.3-126,90.63-3.82.88,1.82,1.18,4.08-.68,5.28-3.05,3.56-13.77-21.36-16.8-25.08-23.37,52.27-66,95.75-117.22,120.84-17.21,7.22-13.05-9.11-13-15.09.34-22.76-2.9-45.49,3-68.42,17.42-90.29,57.9-63-36-72.36-17.62-1.91-146.51-33.79-122-59.4,42-42.85,103.67-60.42,162.3-60.93-34.9-55.22-46.76-121.06-57.31-184.46-3.68-21.94.36-44.71-6.24-66.39,3.65-20.6,77.71,61,83.87,69.39,13.5,16.83,26.38,33.9,37.15,53,13.57,23.73,32.82,45,42.68,71,1.75,4,3.17,2.2,5,.69,10.35-8.73,20.8-17.36,30.91-26.37,2.56-2.25,4.76-1.58,7.5-1.37-9.49,16.26-26.86,27.15-39.5,41.15-2.41,2.33-4.75,1-5.61-1-39.2-74.37-86.75-146-152.87-198.75,7.28,79.63,19.62,156.89,55,228.8,2.72,5.34,4.48,11.26,9.15,15.85,4.71,5.64-6.89,7.2-10.75,7.23-19.8-1.08-39.36,1.86-58.3,6.44a221.74,221.74,0,0,0-96.57,50.21c-11.52,7.48,54.89,30.48,61.74,31.62,33.37,11.86,68.26,16.26,103.38,19.44,1.7.18,2.83-1.76,5.35-1.17,17.93,4.24,17.39,3.91,6.86,23.85-16.7,33.12-21,71.67-21,108.41.12,6.3.51,12.79,2.17,18.8,1.09,3.92,4.4.09,6-.7,37.27-20.79,68.31-52.76,92.79-87.28,26.38-36.6,14.32-39.29-2.41-75.23-14.58,36.23-36.32,69.37-58.45,101.9-1.53,2.31-3,4.88-6.54,3.32-3.89-1.73-.92-4.66-.52-6.38,5.91-25,12.21-50.1,23.28-73.29,6.69-14,8.83-30,18.92-42.64,2.16-2.71,1.13-8.34,4.29-11.71-20.41-4-44,.59-65.36-1.79-15.45-.81-30.78-4-46.15-6.26-12.38-1.78-24.75-3.66-37.13-5.4-2.95-.42-7.51.84-6.82-4,5.49-15.89,124.49-14,145.13-14.18,2.35,0,3.21-1,2.42-3q-13.74-33.42-27.65-66.78c-18.32-43.57-36.39-87.24-55.1-130.64-.91-2.08-1.67-3.67.75-5s4.66-.55,6,1.72c36.12,60.59,67.34,123.83,99.2,186.57C935.37,1302.85,972.15,1243,979,1249.76Zm-2.1,30.59c-3.11-.6-4.68,2.19-6,4.57-10.29,17.94-20.69,35.83-30.73,53.91-3.19,5.75-3.41,10.64,5.77,10.27,10.17-1.52,22,2.91,31-2.67-5.84-11.47-33.74-.74-28.16-8C952,1331.32,986.6,1281.53,976.86,1280.35Zm-.86,84.81c-1.39-.86-3.67.49-4.8-.13-5.7,1.78-28.13-1.58-23.1,8.14,9.13,15.94,12.26,36,25.38,49.17,4.87-7.15-12.75-38-15.83-47.12-1-2.32.32-2.12,1.71-2.13C965.44,1372.39,982.15,1376.39,976,1365.16ZM635.91,176.63c44.06,37.67,88.61,77.14,144,96.86-53.74,25.06-99.25,63.85-143.57,102.43C616,396,599.2,419.49,582.24,442.64c-11.31,15.44-10.67,19.57,7.11,22.43,39.2,8.46,78.41,0,117.57-3.83,53.29-4.51,105-21.39,151.38-47.36.16,1.1.82,2.44.41,3.25-6.38,12.69-6.52,26.89-7.24,40.24-2.37,38.5.66,78.59,11.77,115.79,1.91,5.05-1.13,15.93,8.48,14,7.48-1.5,14.14-7.91,20.78-12.68C923.69,550.7,954,524.75,976,492.21c1.73-2.56,2.34-6.34-1-8-3.42-1.93-5.14,2.7-7,4.93-6.52,8-12.25,16.71-19.18,24.32-5.11,6.8-75.56,73.45-77.56,62-7-41.89-16.55-84.26-10.38-126.92,2.37-13.15,3.31-26.56,5.09-39.82.27-2,.2-3.53-1.45-4.81-9.42-3.59-25.5,14.25-36.36,16.25-13,4.19-25.41,10.41-38.48,14.47-65.12,19.61-137,31.32-204.5,21.49,47.83-71.89,116.15-126.9,190-170.59,10.12-6.91,27.87-10.62,4.81-21.87-49.82-20.79-90.9-57-134.92-87.54-6.11-4.5-6.68-8.91,2-11.09,54.4-16.22,112-15,167.17-3.8,14.61,1.65,28.49,10.1,43.4,6.68-1.29-9.59-6.12-18.17-8.53-27.4-3.74-15.29-6-31-10.54-46-11-42.74-16.63-89.2-6.77-132.22,14.07,11,25.29,25.14,37.88,37.71a425.34,425.34,0,0,1,57.07,67.89c14.44,18.73,27.88,39.19,36.49,61.18,2.17,6.12,10.6,10.74,10.6,17.52a11.23,11.23,0,0,1-2.72,6.83c-9.89,12.9-20.6,25.17-30.72,37.42-17.56-28.42-28.67-59.42-43-89.44C887,82.32,883,60.46,871.94,41.84c-4.78,3.7-8.48,7.67-7.07,14.62,3.38,16.66,3.49,33.76,7.7,50.45,3.66,14.53,3,30.18,6.75,44.67,7.29,27.79,11.78,56.55,25.43,82.43,2.74,11.94-17.26-1.56-22.07-2.35C834.15,211.08,784,193.54,731.85,185.4c-11.86-1-23.88-.54-35.8-.09-1.51.05-3.14,3.73-4.12,6-.23.52,1.76,2.59,3.06,3.11,29.47,12.57,60.19,22.38,89.5,35.19,23.32,11.05,45.89,23.67,68.88,35.42,20,10.2,20.06,10.11,8,20.55C843,300.41,826,316.78,805,328.35,756,362.92,702.17,388.83,649,416.18c-2.13,1.11-5.83,3.58-5.61,4.1,1.35,3.26,4.69,3.12,7.67,2.75,89.61-20.61,179.23-56.25,251.07-114.34,2.05,8.92-1,18.77,1.34,27.4,2.92,11.07,1.91,22.06.59,32.7-1.58,12.65.44,25.41-2.76,38-1.93,7.61-.73,16-1.69,23.89-2.49,33.18-13,65.41-13.14,98.93,7.41-.32,11-7,13.58-12.85,7.75-16.74,17.53-32.5,23.22-50.26,18.24-53.94,32.22-110,28.86-167.44,5.86,2.17,18.54,14.22,23.85,11.11,3.32-1.08,2.21-3.44,1-4.83-4.89-8.8-15.26-10.23-23.37-14.49-5.31-2.82-8-.37-8.32,4.49.93,75.31-15.84,147.69-50.27,215.74,1.64-23.4,9.42-44.26,11.77-67.39.94-16.52,20.9-157.33-10.88-140.56-60,50.19-130.41,77.33-204.37,101.69,5.22-4.6,6.73-6.86,8.8-7.63,25.6-9.5,48.08-24.8,71.47-38.36,37-23.72,75.3-45.72,105.06-78.5,5.38-5.31,1.82-10.35-3-13.11-14.08-8.13-28.43-15.82-42.92-23.19-38.16-20-76.3-36.91-117.67-50.28,15.92-6.07,29.15,3.56,44.65,5.07,21.8,2.83,42.28,10.49,62.89,17.1,25.23,8.08,49.48,19.19,74.24,28.76,10.34,5.9,21.8,1.66,17.76-11.56-7.1-25.06-15.5-49.86-21.62-75.23-3.89-27.38-11.53-54.15-14.46-81.69-2.43-1.79-1.6-4.08-.08-6.43,11.66,39.19,31.49,77.05,50.1,114,8.84,15.81,13.7,17.94,26.2,5.65a149.89,149.89,0,0,0,17.85-21.55c4.35-6.37,13.3-13.29,9.56-21.79-8.45-19.17-17.49-38.38-28.94-55.86C919.62,40.63,881.56-6.25,835.75-43.71c-24.67-12.35-15,50.1-16.77,62.43-1.2,47.63,14.27,94,25.55,139.82-5.64,1.34-9.55-3.46-14.78-3.59-16.64-.58-32.3-6.55-48.75-8.78-21.47-2.9-42.81-3.68-64.29-3.42C703,142.84,603.61,151.66,635.91,176.63ZM973,225.38c2.89-3.66,4.18-8.48,5.93-12.75.15-.33-1.62-1.44-2.91-2.55-11.09,8.78-19.23,20.58-28.25,31.35-3.61,4.81-8.61,11.12-.84,17,9.49,6.51,18.4,15.05,29.11,19.19,12.47-6-12.1-14.26-15.39-18.92-3-2.9-10.94-5-8.33-9.07C957.93,240.76,966.33,233.69,973,225.38ZM956.59,876.25c-12.59-.62-11.41,23,1.63,21.42,6.52.15,12.42-1.86,10.6-11C971.24,876.13,963.07,876.58,956.59,876.25Zm3.17,143.14c-6.51,1-16.88-1.25-15.15,8.11.83,13,7.26,17.24,15.54,16.36,10.94-1.16,6.31-11.39,7.57-17.65C968.6,1021.78,963.14,1018.86,959.76,1019.39ZM947.83,664.11c-18.78.45-15.72,34,3.7,28.88,9.42-2,10-10.28,11.58-17.82C961,667.43,955.16,663.9,947.83,664.11Zm11.79,78.56c-.31-11.13-11-8.66-16.07-8.84-5.93-.21-8.57,7.83-8.45,14,.14,7,1.91,13.72,11.47,13.36C959.23,760.93,959.88,751.86,959.62,742.67Zm-14.3-144.8c-14.1.73-16.89,30-.24,27.09,13.39,1.87,11.86-10.31,13.19-16.21S952.7,596.45,945.32,597.87ZM947.11,841c13.43,1.65,15-24.11,1.12-23.15-8,.31-14.38,1.66-13.2,11.54C933.87,838.93,940.21,840.61,947.11,841Zm-23.92,134.7c.31,4.92,2.22,11.4,8.89,11.13,6.36-.25,14-1,12.64-12.22-2.12-3,1.72-11.07-7-11.52S922.6,966.07,923.19,975.68Zm-2.09-59c1.14-15.78-21.72-13.12-21,1-.13,6.65,3.85,10.21,9.75,10C916.73,927.53,919,921.46,921.1,916.72Zm-10-181.14c0-15-1.95-16.72-16.71-16.6-10.58.09-7.31,9.33-8,14.47-1.49,10.59,7.39,11.41,14.64,11.39A9.68,9.68,0,0,0,911.06,735.58Zm-15.18,312.76c14.33,0,15.8-29.7-2.13-25.26-12.5-2.37-11.72,8.15-12.3,14.7C880.64,1047,890.26,1048.73,895.88,1048.34Zm-13.45-261c-1.62,14,23.27,14,22.31.65C904.64,774,881.89,767.77,882.43,787.37Zm-1.08,190.19c7.52-.23,9.31-6,10.3-15.75,1-4.6-4.63-5.78-10.06-5.7C867.54,954.94,866.81,979.6,881.35,977.56Zm-8-319.91c-15.08,1.41-13.59,26.84,1.82,25.18C893.62,684.74,888.21,656.59,873.36,657.65Zm-23.28,191.7c6.94,0,7.54-7.3,7.82-12.38.49-8.78-6.46-10.3-13.26-11-9.63-1-10.53,5.06-9.61,11.48C833.8,850.34,843.39,849.33,850.08,849.35Zm-289.44,641c-73.88,49.42-162.81,71.85-251.17,71.07,5.47,11.42,10.3,23.18,15,34.93.14,4.54-3,9.07-6.7,3.69-13.16-27.91-27.25-55.51-38.48-84.27-1.35-3.67,2-6.79,6.08-6.71,55.31-1.17,103.6-8.75,160-17.14-54.69-1.62-108.57-5-163-.19-5.35.43-3.83-4-3-5.63C310.13,1429,353.46,1380,384.79,1323c-7.29,1-7.79,8.28-11.58,12.14-28.2,29.24-51.41,62.8-77.45,93.91-8,10-15.95,20-24,29.92-10.95,13.48-13.14,13.41-20.19-2-25.34-51.71-42.58-107.59-77.21-154.28,22.37,53.35,38.65,108.86,61.26,162.15,2,5.27,7.88,11.71,4.33,15.83-4.59,5.32-13.69,3.55-20,1.87-12.36-3.28-24.84-.74-37.27-3s-25.75-4.83-37.93-3.74c-21.63,1.94-42.95-3.81-64.67,0,55.58,12.82,111.68,21.36,167.7,31.72,3.55.62,3,2.57,1.57,4.57-21.78,29.08-40.39,62-64.52,88.65-.33-2.27-1.85-5.46-.88-6.9,17.9-26.46,36.5-52.46,54.33-79-3.65-1.27-7.25-3.46-11-3.68-28-1.66-54.72-9.92-82.14-14.55-33.5-7.56-69.54-11-100.89-25.1,8.21-8.45,52.29-5,65.09-4.06,40.55,3,80.88,4.21,121.27,8.77-4.15-19.2-15.5-36.73-21.48-55.59-8.54-22.93-15.34-46.53-24.41-69.24-18.08-43.38-36-86.94-55.19-129.85-.68-1.46.14-3.62.27-5.46,56.27,71.23,96.24,156.75,132,240.6,51.32-55,91.65-119.34,146.4-170.4,1,17.28-12.17,32.08-20,46.51-29.66,54-69.28,99.89-101.78,152.18,47-5.23,92.86-1.53,139.78-1.92,12.93,1.17,28.49,1,40.46,5.37-13.43,11.84-33.39,8.82-49.1,14.88-40.78,8.29-82.95,8.61-124.49,13.71-3.62.39-2.09,2.49-1.33,4.25,4.46,10.36,8.84,20.77,13.5,31.05,1.8,4,5.78,2.68,8.88,2.43,86-5.27,176.84-24.43,246.53-77.08-1.16-.86-2.26-2.38-3.49-2.49-13.27-1.22-24.36-8.57-36.48-13-43.62-13-88.87-25.92-134.84-22.66-1.21.13-2.88-1.83-3.94-3.14-1.4-1.73.83-2.37,1.42-3.55,32.33-61.16,54.24-128.38,61.26-197.3-56,33.54-114.9,68-155.48,120.25-7.16,9.07-13.55,8.9-19.94-1.34-7.92-12.7-16-25.37-25.11-37.23-33.11-41.44-63.37-85.9-104.42-120-14.05-13-29.13-24.9-44-37-3.55-2.24-10.71-7.91-14.32-6.62,10.54,19.5,16.38,41.49,23,62.76,5.3,14.68,5.42,31.16,8.8,46.63,3.48,16,8.05,31.71,12.26,47.51,11.23,36.94,16.12,76,38.16,108.64,2.64,4.23,9.59,7.14,6.63,13.87-.77,1.76-4.24,4.18-5.21,3.71-23.42-5.06-47.82-9.39-71.67-8.85-11.43.13-23.43.59-34.72.2-20.53-.71-39.39,5.48-58.66,9.83-12.47,1.84-23.79,7.25-35.13,13-4.07,1.91.19,4.89,1,6,32.43,44.67,87,58.47,137.3,73.06,22.75,5.25,46.13,10.65,69.28,13.12,12.62,2.75,4.53,10.31,2.43,15.37-5.65,13.58-12.1,26.82-18.37,40.14-1.2,2.84-5.37,3.77-7.36,1.36,22.46-76.94,45.61-31.59-62.24-63.47-48-11.48-97.89-33-126.78-75.19C-46,1451-37.77,1437.69-24,1434.72c11.77-2.54,23-7.64,34.67-10.6,29-9.13,59.06-6.94,89-5.65,17.8,0,35.15,2.94,52.49,6.41,3.13.63,6.06.1,2.57-3.82-23.48-29.79-29.25-67.92-37.8-103.79-8.55-28.37-14.3-57.34-20-86.37-7.58-29.87-13.82-60.32-31.52-86.57-.76-1.12-.29-4.59-.09-4.61,3.41-.44,7.57-1.84,10.21-.45,72.53,39.92,127.17,103.63,173.76,170.8,9.58,13.17,18.74,26.5,26.53,40.79,1.63,3,3.65,1.44,5-.53,19.22-29.46,48.91-48.49,76.16-69.74,26.2-18.81,52.72-36.89,82.14-50.28,3.18-1.78,3.85-3.48,1.23-7.33-21.38-31.18-39-65.08-57.86-97.83-37.25-73.6-68-149.19-90.69-228.79-5.35,16.4-20.7,63.83-36.65,67.87-32.08-13.72-40.59-101.91-40.34-134,3-7.16-4.25-3.55-7.56-.66-45.08,33-99.54,49.37-154.54,55.76-9.32,1.44-17.8-.17-26.27-2.53-7.68-2.14-1.81-9-.8-10.75,33.2-57.2,85.26-101,137.24-140.57C113,710.91,60.57,687.94,30.65,639.91c-4.49-13.09,51.88-20.54,61.11-19.81,17.43-.47,35.8-.79,53.51,4.17,7.75,2.18,16.32,4.19,24.31,4.14,7.34,0,4.39-9.41,4.6-13.28,2.28-37.72,16.73-74,40.3-103.48,3-3.24.87-11.72.3-17.73-.94-9.92-2.73-19.76-3.79-29.67-2.08-14.9-1.89-30.36-4.85-45-8.48,11.95-72,81.09-78.88,46.37-7.54-35.81,5.61-71.65,13-106.38,2-10.38-7.1-1.81-9.5-1.33C87.67,367.29,42.35,367.54,0,354.45a145.93,145.93,0,0,1-26-9.85c-5.75-3-2.63-9.61.38-12.52,8.64-8.33,17-17,25.67-25.27,24.35-26.06,57.67-41,90.09-54.67,6.13-2.86-2.3-7.95-4-10.51-33-55.58-55.53-118-63.17-182.27-4.9-12.11-1.2-26,15-18.17,63.2,26.4,118.91,71.26,160.36,125.4C217.51,109.87,256.92,63.74,305.4,30c9.17-6,7.4,27.84,7.29,32.14,1.25,44.72,16.36,87.86,14.3,132.65,0,3.21.77,4.75,4.12,4.12,43.47-5.61,84.85,13.17,125.52,25.57,25.47,8.59-53.33,64.66-64.54,69-16.6,8.72-32.94,17.78-51.51,24.81,39.53,2.4,77.06,4.49,116.27,4.42,14.92-.14,10.4,9.95,10.78,17.43.76,15,.8,30.09,1.53,45.12,3.79,72.86,10.69,145.58,19.61,218,1,15.62,14.38,15.52,23.17,21.16C557.18,651.75,590.2,693.64,616.4,739c1.44,2.16,5.07-2,8.61-8.22,7.39-13,18.79-22.3,29.63-32.45,9.75-9.14,19.54-18,30.9-24.58a572.62,572.62,0,0,1,84.28-40.51c22.27-8.43,45.37-14.93,63.49-31.68,4.39-3.17,11.94,2.47,8,8.11-6.2,17-11.71,34.16-18,51.09-23.67,65.28-65.76,122-111,174-3.16,3.28,1.82,1.75,1.78,3.15,44.08,1.07,83.21,21,120.84,41.93,8.57,4.2,14.27,11.73,21.92,17,2,1.37,5.31,2.94-.67,6.8-50.15,27-108.45,38.55-165,34.42-2.27-.45-.23,7.19.48,10.76,3.93,19.69,3.58,39.28-.11,58.92-5.27,29.5-9.93,59.68-23.29,86.72-6.38,14.31-8.26,26,1.44,39.88,20.07,31.76,38.33,64.81,58.24,96.73,11.59,16.66,31.45,45.65-5.42,45.31-51.45,2.32-102.42,9.15-153.51,14.72-20.48,2.66-41,5.2-61.44,7.87-13,1.69-18.73-8.38-25.2-16.26-8.66-10.57-16.07-22.15-24.26-33.13-1.92-2.57-3.47-5.15-3.63-12.06-8.47,68.71-24.31,131.52-59.16,190.8,58.34,3.42,116.69,17.08,169.08,43C574.79,1476,573.36,1482.59,560.64,1490.31ZM494,630.43c12.65,64.93,25.28,129.92,42.31,193.88,1.52,5.54.65,12.88,6.55,16.3,11.76,6.83,23.91,13,36.08,19.49-9.83-28-13.62-58.8-25-86.31-8.24-21.78-16.8-43.64-28.79-63.87a5.74,5.74,0,0,1,1.63-7.27c4.85-.77,9.83,7.67,13,10.87C568,752.07,593,792.86,608,838.61,660.14,777.91,715.5,718.9,780.7,672c2.37-1.64,4.31-2.46,6.24,0,2.91,3.75-1.11,7.1-2.52,8.4-17,15.68-34.75,30.57-50,48.1-12,13.77-26.17,26.07-35.85,41.28-23.1,31.43-49.7,60.84-69.28,94.52,26.5,1.63,53.22.72,79.56,6.45,4.24.51,91.06,17.38,67,22.34-18.78,2.11-38.07,0-57.2,1.69-33.26-1.9-66.32-1.5-99.44,2.3-1.63.12-2.41.13-1.33,2.25C641,946,649.54,999.48,650.11,1051a94.51,94.51,0,0,1-7.36-7.63c-12.21-38-24.32-78.2-45.66-112.73-3.49-6.66-3.93-7-8.94,2.91-3.53,7-11,13.84-7.86,22C600.34,1008,628,1056,653.82,1106c20.72-46.25,33.2-99,29.61-150.15-1.14-7.89-5.62-18.11,2.4-24.76,7.49-6.2,17.18-.28,26.06-1.73,43-2.79,85.68-8.5,125.52-26.15,11.91-2.8,10.81-6.48.81-12-38.76-21.48-80.13-39.49-124.62-44.61-5.29-.77-13,1.56-16.21-4.28-2.91-5.21,3.9-6.4,6.53-9.29,54.52-62.53,101.86-134.21,124.64-214.29-70.35,35.17-157.27,52.93-201.64,124.84-4.52,7.39-12.24,14.8-16.76,2.78-26.77-48.85-65.86-95.09-116.07-120.24A20.55,20.55,0,0,0,494,630.43Zm71.23,287.09C568,925.33,571.11,933,574.2,941c4.36-9.19,8.42-18.33,13.21-27.06.54-1,1.37-8.27,5.47-3.41,20.48,23.12,28.85,49.49,42.37,78.06C632,956,623.91,927.81,608.58,900c-8.88-15.2,2.64-10.64,9.21-11,10-.61,20-1,30-1.15,20.25-.21,40.37-4.14,60.78-1.37,9.2,1.24,18.8,1.43,30.15-2.33-38.52-8.64-72-10.83-110.13-12.57-6.54-.53-20.69,2.39-8.16-12.13,4.69-5.44,8.19-11.88,12.44-17.72,12.41-17,24.58-34.28,37.57-50.87,5.9-7.53,12.66-14.31,18.33-27.25-121.33,118-49.91,121.5-132.67-12.63.6,6.58,0,9.39,1.14,10.92C564,771,566,781.82,569,792.22c6.19,21.59,12.28,43.24,17.35,65.11.85,3.65,6.18,8.57.69,12.6-5.83,4.27-9.45-1.72-13.8-3.87-9.19-4.7-18.08-10-27.9-13.32,1.27,4.74,1.69,10,4.11,14,1.73,2.89,6,4.7,9.41,6.09,18.57,7.45,22.09,17.78,11.91,34.13C568.69,910.29,563.55,912.51,565.27,917.52Zm-8.66-35.86c-.86-.36-1.77-.6-2.66-.9-1.9,6.66,5.43,17.14,7,24.14C571.49,894.16,568.55,886.75,556.61,881.66Zm-350.28-481c.21-11.73-1.64-23.5-2.72-35.67-90.21,137.18-25.84-15.53-1.68-60.53-14.25,1.52-25.86,7.92-38.8,9-35,4.25-69.58,11.68-104.86,13.24-9.79,1.19-19-4.06-28.52-.56-10,5.19-15.26-5.87-5.21-10.62C74,292.35,126.27,275.9,181,272.52c-7.28-2.71-135.36-190.71-99.85-168.41,47.72,45.83,82.28,104.31,130.86,149.1,8.73-33.94,20-67.72,35.16-99.55,6.88-15.26,14.46-30.21,22.39-44.95,6.9-10.92,16.25-7.3,9.68,4.2a14.39,14.39,0,0,0-2,6.1c-.38,14.32-7,27.18-9.43,41-6.31,35.28-18.21,70.23-18.54,106.29,17.41-6.87,34.74-13.66,53.19-17.79,6.87-2.4,114.74-18.07,89.75,2.15-44.43,11.65-88,26.69-129,47.57,4.4,5.53,7.79,14,13.42,15.92A61.52,61.52,0,0,0,306,316.31c53.51-9.28,102-38.14,140.74-75.68,9.1-8.91,3.71-9.64-4-11.64-38.63-8-77.8-28.55-117.81-19.56-7.1,2-8.57,0-7.84-5.74,1.54-12.09,2.46-24.06,0-36.2-4.36-25.53-6.77-51.75-11.66-77.11C302.61,74,305,58.09,302.6,42.06c-43.39,30.8-76.37,76.27-95.69,125.93-6.54,24.19-18.89-4.65-27.47-11.3-40.72-43.21-88-81.25-142.64-105.25C21.72,37.67,40.92,113.58,43.25,118c15.26,45.09,31.12,91.63,58.07,131.24,5.28,7,1.35,8.28-3.17,9.46C55.3,272.33,17.26,299.51-14.2,331.08c-4.65,4.87-8.71,9.76,2.54,12.64,11.56,3,22.73,7.51,34.7,8.66,17,1.63,34.06,3.56,51.12,4,23.48-1,47.21-6.63,70.05-12.06,7.64-2.72,10.16,2.61,8.21,8.91-11.65,35.89-19.55,74.19-15.29,111.91,0,2.63,1,1.19,2.3.51C166.64,451,192.7,428.09,206.33,400.65Zm-4.5-75.36c-7.33,10-10.65,22.88-15.64,34.25-4.08,11.1-11.95,20.77-13.13,34.33C188.32,373.12,209.9,353.25,201.83,325.29Zm5.66-14.62,54.29,2.85c-8.11-7.84-13.69-15-2.63-21.33C294,271,328.67,261.69,368.77,248.47c-42.15,3.76-78.6,10.4-116.74,26-5.88,2.09-14.78,4.23-13.11-8.19,2.08-15.41,3.65-30.91,6.2-46.24,4.45-26.71,14.72-52.23,17.71-79.22C244,178,231.92,218.18,220.6,258c-.72,2.45.41,8-5.18,8.25-10.61-1.12-16.35-16.88-24.85-22.89-34-32.77-59.48-70.21-89.16-107.52-.1,2.14-.46,3.11-.13,3.67,24.29,42.27,50.22,83.52,80.41,121.9,20.32,15.26-4.84,19.4-18.88,21.52-42.54,5.66-84,15.81-122.45,35.84a637.11,637.11,0,0,0,93.8-9.7c19.26-2.82,38.48-5.08,57.07-11.49,5.64-1.95,13.41-3.13,18.57,1.13C214.06,302.26,208.24,306.57,207.49,310.67Zm79.14,566.89C273.7,836.15,264.71,793.5,252.2,751.9c-26.67,21.73-55.34,42.4-86.35,58-13.72,5.39-59,31.49-70.21,26.56-.25-.19.17-1.88.72-2.34,20.4-18,45.65-29.59,66.83-46.5,23.14-19.82,49.6-37.74,69-61.07-18-4.15-124.6-47.51-125-62.77.42-.88,2.12-2,2.93-1.74,42.73,10,84.71,24.63,128.39,29.72-10.8-56-15.45-112.4-21.53-171.77-20.71,34.21-33.5,66.67-34.42,106.24,0,4.38,2.69,16.26-9.81,12.15-17.89-6.46-37.14-5.5-55.7-8.71-17.53-2.51-34.72,1.46-52.06,2.36-8.85.46-17.11,4.12-25.67,8.4,39.3,45.4,76.45,62,130.52,84.71,3.78,1.82,8.43,4.29,2.64,9.25C123.21,778.37,65,817.19,33.33,876.88c18,3.22,35.44-2.33,52.57-5.65,47.8-7.38,89.84-33,130.92-57.19,1.94-1.07,2.88-4.3,6.07-2.5,2.83,1.6,2.24,4.24,2.14,6.64-.84,46.18,5,94.8,28.28,134.93,5.35,4.13,6.3-3.78,7.17-5.49C268.08,930.42,288.54,895,286.63,877.56ZM239.27,701.47c-31.24-6.1-62.74-13-93.74-20.76l-.36,1.4c27.1,14.65,56,25,85.16,34.52,4.76,1.63,11.19,5.5,13.37-2.11C244.81,710.62,244,703.14,239.27,701.47ZM224,747.66c-24.93,22.56-51,43.58-79,62.25l.57,1c31.92-14.08,61.4-33.3,89.25-54.33,9-7.15,18.89-13.09,12.16-27-.56-1.14.27-3.77-2.26-1.37C237.83,734.66,231.15,741.42,224,747.66ZM447.4,1213.2c13.36,19.47,26.67,38.93,40.69,57.94,5.86,7.93,8.5,17.31,22.56,14.24,16.52-3.6,33.8-3.65,50.71-5.54,55.42-6.53,110.85-13.9,166.69-15.12,1.34,0,6.92,1,3.45-4.62-57.49-93.27-117-186-158.86-287.59-45.31-105.72-67.85-219.35-88.44-332.08-19.31-98.95-25-200.09-26.77-300.63.14-1.08,3-6.34-2.43-6.73-46.67-2.69-93.46-4.42-140.24-5.91-34.18-1.57-68.92.1-102.76-4.08-1.4,0-3-.48-2.76,2.16.89,8.9,1.37,17.83,2.34,26.72C223,460.11,231.17,568.71,247.42,676.31c17.66,82.19,40.65,163.41,63.12,244.31C344.53,1022.91,388.49,1122.45,447.4,1213.2ZM844.76,753.74c2.34-12.81-23.53-12.94-22.57,4-.72,11.67,9.31,11,15.33,10.77C845.68,768.27,843.84,759.18,844.76,753.74Zm-36,199.49c-12.53,1.71-10.05,24.58,1,23.89,12.64.32,14-6.78,13.8-14.16C823.31,953.21,815.7,951.79,808.73,953.23Zm-25,469.71c-17.46.49-22.72,29.37,1.3,24.55C796.88,1448,799.52,1419.78,783.7,1422.94Zm-4.06-625.81c-14.39-.33-11.45,23.32,1.12,24C797.56,819.19,795.73,796.3,779.64,797.13Zm-8.83,767.93c-19.61-.15-23.72,22.51-4.8,26.13,8.51.86,13.85-2,13-11.69C779.06,1570.29,776,1564.49,770.81,1565.06Zm3.67-66.64c.36-5.44-3.05-11.31-9.91-10.33-7,1-15.52,2.58-15.42,12.18.1,9.3,7.28,12.07,16.54,13C773.23,1511.9,774.08,1504.42,774.48,1498.42ZM761.37,110.55c7.29-.13,10.5-6.87,9.58-15,1.88-10.71-4.29-13-13.75-12.09C738.84,86.57,742.84,112,761.37,110.55Zm-49.25,1316.3c-6.47,1.34-6.4,8.1-6.53,12.18-.28,9.07,6.37,12.23,17.33,12.29,10.14.92,10-10,9.61-16.6C731.7,1420,720.54,1425.11,712.12,1426.85ZM714.4,50.68c10.86-.45,13.18-10.08,14.22-18.14.77-5.88-4.56-9.59-12.8-9.79C701.37,24.36,694.74,53.14,714.4,50.68Zm-6.34,1478.75c-9.43-.21-9.77,8.45-9.82,15.11-.07,9,7.35,9.78,15.87,10.87,7.54-3,6.25-10.83,5.38-17.2C718.73,1532.74,712.23,1529.53,708.06,1529.43Zm-30.23-48.54c-14.12-1.41-15.63,21-3.67,21.69,6.65-.18,13.7-3.09,13-10.92C687.15,1483.86,684.4,1480.65,677.83,1480.89Zm-8.9-62.06c2.6-18.51-24.41-17.06-22.88.11C644.82,1434.3,671.33,1434.78,668.93,1418.83ZM637.25,102.88c23.26,2.89,23.19-23.63,3.94-25.72-10.85-2.16-10,8.44-11.78,14.07A9.28,9.28,0,0,0,637.25,102.88Zm4.68,1456.39c-17.55-1.58-14.34,26.9.25,26.85C654.86,1587,658,1559.84,641.93,1559.27Zm-32-108.86c-7.44-.76-12.76,4-12.68,11.54.06,5.6,4.4,9.17,12,9.28,6.55,1.06,6.09-5.31,6.51-9.76S615.37,1451,609.9,1450.41Zm-20,64.2c-12.35-1.15-12.69,24.46-.57,23.47C606.46,1538.85,607.62,1514.23,589.94,1514.61ZM573.43,94.84c15.54,1.52,11.1-27-2.7-25.55C558.45,70,556.06,95.08,573.43,94.84ZM567.25,209.7c8.73-.13,15.27-4.84,13.78-14.6.24-9.16-4-13.24-11.6-14.32-10.77-1.54-11.61,5.87-12.35,12.87C556.27,201.33,557.05,209.84,567.25,209.7ZM538.46,1395.64c2.44,13.09,22.75,11.83,22.74-2.18C560.23,1377.91,533.93,1376.73,538.46,1395.64ZM532.59,46.07c19.42,1.48,20.64-28.41,3.33-25C517.9,15.94,518.25,46.39,532.59,46.07Zm-5.77,1499.1c-19.84.53-18.53,28.78.25,27.83C542.15,1573.42,542.86,1544.81,526.82,1545.17ZM481.87,108c10.48.4,11.08-7.76,11.69-17.24-1.66-8.68-10.11-7.61-16.71-7.61-7.72,0-7.12,8.06-7.47,12.43C468.77,103.15,474.74,107.77,481.87,108Zm-15,1467.44c-6.32.31-12.67,4.65-11.91,14.33-1.76,7.48,3.08,9.62,7.9,10.2C481.91,1604.62,485.74,1575.47,466.87,1575.47ZM442.53,62c15.15-1,17.39-27.13.87-26.51C429.3,34.63,425.33,63.68,442.53,62ZM424.9,169.89c13,0,17.75-29.69,4-28.95C410.71,138.39,405.85,172.17,424.9,169.89Zm-35.42-75.3c16.65-.84,13.73-24.17-2.85-24.4C373.55,71,375.69,97.29,389.48,94.59ZM368.92,43c16.6,3.17,15.24-23.48-1.7-21.46-6.69.59-7.6,8.24-8.29,14.34C358.07,43.61,363.23,43.39,368.92,43Zm1.62,76.19c-12.31.14-11.72,23.89,1.31,21.59C384.67,139.24,382.53,118.83,370.54,119.16Zm-106.86,1420c-1.34-3.68-3.2-9.75-8-4.19-17.08,19.76-33.51,40.08-50,60.32A4.55,4.55,0,0,0,205,1600c2.29,4.48,4.38,3.27,6,0,13.6-16.82,26.88-33.89,40.64-50.56,1.36-1.65,4.21-7.85,6.38-3.9,4.87,8.86,7.56,18.93,12.08,31-8.79,4.57-16.11,14.14-24,20.51-5.19,4.28-.68,8.46,4.59,5.31a196.56,196.56,0,0,0,21.65-19.12c8.41,8,1,14.51,10.07,15.71,4.29-.07,1.34-3.14.57-5C279.16,1574.78,270.32,1557.35,263.68,1539.15ZM235.91,35.59c10.59-.06,8.81-9.22,10.15-16.26-.48-7.28-7.53-10.48-12.19-9.74C220.87,11.82,220.8,37.14,235.91,35.59ZM210.83,982.83c6.44.66,6.7-5.65,7-9.89.58-8.61-4.47-12-12.73-11.88-7.09.1-7.87,4.78-8.24,10.09C196.14,981.45,204.19,982.15,210.83,982.83Zm-4.49-897.4c9.22-1.8,10.41-10.31,10-15.88-.42-6.13-7.77-10-14.2-10.37-8-.43-11,6.15-11,12.75C191.21,81.36,199.72,82.58,206.34,85.43Zm-15.61,941.78c-10.69,1.78-9.49,23-1.31,21.63C203.83,1051.58,205.54,1024.92,190.73,1027.21ZM176.54,30.46c13,1.45,14.29-24.14.73-22.69C167,7.9,160.26,29.34,176.54,30.46ZM154.53,933c-6.9.5-6.74,7.63-7,11.27-.7,8.58,5.83,11.07,13.53,10.76,7.48-.31,5.65-6.68,6-7.65C170,932.66,162.32,932.46,154.53,933ZM144.13,71.32c8.4-.72,9.27-7.31,9.78-13.26.77-9-7-11.22-13.08-11.89C125.2,46.44,129.8,70.88,144.13,71.32ZM133,1004.19c1,10,18.55,12.4,17.85-.54,0-4,.49-10.46-5.85-10.43C139.63,993.26,132.93,993.83,133,1004.19Zm-7.25,54.88c-10.82.41-8.37,25.56,4.41,22,8.21,1.2,10.43-3.88,11-10.85C142,1058,133.68,1058.44,125.7,1059.07ZM112.32,914.78c-8.84.09-8.95,5.83-9.11,7.4-.5,9.55-.53,15.28,6.4,14.64,5.72-.52,13-2.52,13.85-8.91C124.29,921.35,122,914.68,112.32,914.78ZM87.41,975.86c5.4-.64,12.83.57,11.89-11.12,1.9-12.58-20-12-19.55.52C80,969,79.41,976.81,87.41,975.86ZM87,524.36c8.44-.64,7.52-10.12,7.91-13.73.19-8.42,1.78-13.65-7.08-14C66.64,495.51,65.91,527,87,524.36ZM69.39,22c-.2,8,7.8,9.31,14.12,9.35,7.84,0,9.44-6.27,9.45-12.52C93,10.82,89.1,6.21,79.87,7,67.16,4.65,69.54,15.8,69.39,22Zm1.67,1004.17c.69,7.34,6.74,9.43,12.59,9,6.35-.4,5.43-6.26,5.68-12.76,2.11-8-4.16-8.1-11-7.48C71.33,1015.6,70.58,1020.93,71.06,1026.14ZM55.91,1342.91c.27,7.86,3.59,13.17,11.59,12.22,11.31.65,11.34-7.41,11.28-13.6C77.22,1324.3,53.77,1324.06,55.91,1342.91Zm-4.8-284c-12.46-.19-11.89,20.13.32,20.36C62.22,1077.86,63.72,1058.05,51.11,1058.89ZM43.72,910c-6.94-.53-8.41,6.78-8,9.79.6,4.76-.35,14.17,10.07,11C56.52,933.46,55.43,925,56,919.22,57,910.07,49.63,910.45,43.72,910Zm-12.16,290c.85,4.2-1.59,14.49,9.1,10.93,9,1.47,11.87-2.63,12.6-10.86,1-11.14-7.68-11.13-13.76-11.63C32.89,1187.84,30.64,1195.34,31.56,1199.94Zm-.7-739.54c15.29,2.27,20.87-27.41,3.55-27.64C19.32,432.11,17.64,458.9,30.86,460.4ZM10.65,526.86c1.76,5.62.38,14.73,9.61,13.83,14.27-1.41,18.93-11.33,16.62-24.62-1.19-6.82-8.42-6.36-12.41-6.33C14.27,509.8,12.59,518.62,10.65,526.86ZM22.71,980.92c-9.22-.59-8.86,7.24-9.3,12.29-.31,3.62.49,9.93,7.49,9.88C38.64,1005.26,40.93,980.51,22.71,980.92Zm-6.08,305.31c5.91.22,16.63-.37,14.37-12,1.26-10.55-6.1-14.23-13.45-14.84C3.39,1258.4,4.42,1285.43,16.63,1286.23Zm6-167c-4.35.53-11.83-2.29-11.83,7.77,1.48,4.67,1.23,11.87,9.63,12C32.26,1140.55,35.82,1118.28,22.63,1119.18ZM6.24,1367c1.23,12.49,20.3,12.9,20-.19C27.2,1351.89,4.61,1351,6.24,1367Z"/></g></g><g id="Red_Japanese_Frames" data-name="Red Japanese Frames"><path class="cls-8" d="M0,20V1580a20,20,0,0,0,20,20H956a20,20,0,0,0,20-20V20A20,20,0,0,0,956,0H20A20,20,0,0,0,0,20ZM924,1548H52V52H924Z"/><path class="cls-9" d="M952.1,15.41,928.69,38.83A4,4,0,0,1,925.86,40H50.14a4,4,0,0,1-2.83-1.17L23.9,15.41A2,2,0,0,1,25.31,12H950.69A2,2,0,0,1,952.1,15.41ZM40,1549.86V50.14a4,4,0,0,0-1.17-2.83L15.41,23.9A2,2,0,0,0,12,25.31V1574.69a2,2,0,0,0,3.41,1.41l23.42-23.41A4,4,0,0,0,40,1549.86ZM936,50.14V1549.86a4,4,0,0,0,1.17,2.83l23.42,23.41a2,2,0,0,0,3.41-1.41V25.31a2,2,0,0,0-3.41-1.41L937.17,47.31A4,4,0,0,0,936,50.14ZM925.86,1560H50.14a4,4,0,0,0-2.83,1.17l-20,20a4,4,0,0,0,2.83,6.83H950.69a2,2,0,0,0,1.41-3.41l-23.41-23.42A4,4,0,0,0,925.86,1560Z"/></g></svg>