<svg xmlns="http://www.w3.org/2000/svg" xmlns:xlink="http://www.w3.org/1999/xlink" viewBox="0 0 976 1600"><defs><style>.cls-1{fill:none;}.cls-2{fill:#f4f3ef;}.cls-3{clip-path:url(#clip-path);}.cls-4{fill:#6060bf;}.cls-5{fill:#50b271;}.cls-6{fill:#ffb85a;}.cls-7{fill:#d81e1e;}.cls-8{fill:#592116;}.cls-9{fill:#992d17;}</style><clipPath id="clip-path"><path class="cls-1" d="M960,22V1578a6,6,0,0,1-6,6H22a6,6,0,0,1-6-6V22a6,6,0,0,1,6-6H954A6,6,0,0,1,960,22Z"/></clipPath></defs><g id="Paper_Backing" data-name="Paper Backing"><path class="cls-2" d="M960,22V1578a6,6,0,0,1-6,6H22a6,6,0,0,1-6-6V22a6,6,0,0,1,6-6H954A6,6,0,0,1,960,22Z"/></g><g id="Wikipedia_Cropped" data-name="Wikipedia Cropped"><g class="cls-3"><path class="cls-4" d="M431,1283.94c-56.6-7.8-114.11-13.09-170.69-18.73-19.25-5.24-77.44,9.67-47.45-25.65,133.27-197.28,208.38-387.57,242-623.15C468.39,550.49,471,475.25,476.2,404.89c7.76-24.6-9.67-87.15,16-84.69,70.92.81,145.11-3.16,216.86-6.46,28.93-3.54,26.9,2.18,23.86,28.4-4.7,46.75-9.36,93.9-14,140.74-16.26,199.67-63.43,398.51-143.79,581.7-27.34,58.91-57.2,117.16-96.62,168.82C461.89,1249,456.69,1283.74,431,1283.94Z"/><path class="cls-5" d="M546.36,1581.74c-66.8-1.81-67.74-18.29-89.88-71.12-39.79-.3-84.52-56-50.66-94.46,4.71-14.77-24.22-11.28-30.34-24.72-16.38-17.54-13-40.47,10.54-50.11,7.84-17.47-9.79-34.24,21.73-54.63,11.95-5.82,26.41,7.52,38.08-1,8.94,4.85,15.48,14.92,30.78,13.95,26.13.38,41.16-32.24,63.85-18.43.77,15.65-8.85,35.55,1.27,49.59,12.8,19.28,34.74,16.67,51.36,8.26,15.27.17,18-33.73,26.51-38.41,13.87,10.94,33.45,49.56,51.55,50.25,42.41,1.16,42.29-41,49.15-69.46,12.87,10.12,22.71,26.7,42.51,25,10.44-10.09,26.6-23.14,23.14-42.62-3.69-7.3-8.85-19.29,2.87-19.86,18.72,7.8,44.27,7.82,56.33-10.51-.44-11.35,1.23-21.72,2.17-32.05-.66-4.9-7.91-4.46-9.13-8.77-2.72-13.78-27.78-30-17.2-37.3,39,6.81,61.17-9.23,45.6-49,34.25-13.08,97,6.41,96.49,52.3.38,6.67,5.36,9.22,11.84,11.86,11.88-5.07,2,116.6,5.09,119,.32-.4-.36,83,0,86.72a4,4,0,0,1-4,4c-14.88-.2-29.87,8.25-44.91,6.42-23.43.52-41.2-8.64-56.6-22.72-15.08,0-30.82,13.83-46.4,2.87-14.78-.84-59.2-56.93-59.18-33.51,2.08,17.91-4.19,28-15.88,39.55a6,6,0,0,0-1.37,7.92c17.21,25.14-16.61,60.14-41.4,58.54-4.75-1-10.85,1.29-9.63,7.11,5.48,21.85,4.91,43.25-13.33,62.94-15.58,17.31-37.5,10.39-57.52,9.92a6,6,0,0,0-5.93,5.13c-6.82,34.32-48.14,56.35-77.49,57.43Zm-412-347c-27.69-.23-55.15-16.32-53.15-47.25C34,1185,7.42,1134,29.39,1090.78,38,1076.19,51.68,1072,62.61,1070c13.09-7.55-13.89-29.36,8.09-54.37,28.26-37.77,73.05-18.67,104.52.09a6,6,0,0,0,6-6.29c.94-33.8,39.88-47.69,64-27.07,39.19,28.18,12.29,23.57,49.67,7.76,59.25,14.68,33.45,39.58,12.28,77.32-8.27,7.25-5.17,25.52-19,29.17-10.57,28.11-28.84,57.19-44.48,85.16-7.46,17.25-20.38,28.08-39,30.51-24.48,10.81-46.2,22-70.4,22.37Zm701.14-164.51c-6.68.46-9-6.88-6.31-12.71-2.9-27.78-36-36.07-58.66-26.91-11.5-.5-16.14-17.46-34-17.65l0,0c-9.7-9.58-20,.44-12.72-19.82,4.36-10.52-12.16-14.26-15.56-24.29-14.58-4.85-41.17,9.57-47.87,23.12-5.64,3.41,3,8.45,4.74,11.92-.58,2.27-7.44-9.18-7.9-9a4.06,4.06,0,0,1-6.33-2.22h0c4.58-37.22-37.25-30.58-22.36-52,10.66-32,20.46-64.72,29-97.61,9.36-36.59,19.6-106.48,73.14-84.22C768.89,708,843.12,717,838.79,790.27c10.42,13.88,42.82,5.53,42.33,45.48,4.88,23.2-45.77,59.35-25.7,64.73,18.07.3,31.23,9.95,38.09,27.89,8.68,18.73-8.44,33.42-18.56,47.18C918.89,1013.16,878,1058.25,835.48,1070.18ZM377,909.25c-58.31-44.94-121.56,9.53-182.24-22.7-12.54-6.32-6.21-24.35-18.41-26.89-39.28,7-58-46.2-21.16-62.09,16.19-14.78-34.63-17.05-40.51-27-21.46-15.37-29.46-68.36,2.62-75.69a6.06,6.06,0,0,0,2.54-9.38C94.27,656.47,92,592,130.66,569.18c23.89-14,33.72,19.68,49.81,28.21,37.43-72.78,79.67,27.54,94.26,65.43,12.48,13.12,23.94-33.4,61.75-13.45,20.35,10.5,3.48,33.82,28.92,40.4,41.83,26.89,17.18,96.05,38.06,137.28,3.26,14.11-9.47,28.19-11.54,40.55C394,875.5,383.06,908.51,377,909.25Zm470.4-266.48c-43.56-3.35-93-41.34-134.47-7.51-2.64,2-6.86-.38-6.31-3.74,6.41-44.22,8-84.73,13-129.12,1.95-29.67,31.91-51.11,50.84-68.92,27.73-27.19,62.51-13.91,62.45,25.09,35.79-8.93,101.15-19.7,108.24,33.76C945,502.9,969,490.41,980,510.07c-4,6.91,8.79,79.4-8.44,76.24-16,17.83-48.28,20.44-73.25,18.64a6,6,0,0,0-5.89,4.86c-8.4,25.41-24,31-45.07,33Zm-377-260.87c-76.45-111.3-164.31-75.76-32.88-112.55,14.87,1.26,112-37,104.22-18.15-18.8,19.45-13.68,62.46-34.7,70.79C451.34,308.8,491.16,359.19,470.39,381.9Z"/><path class="cls-6" d="M677.4,1348.28c-18.23,5.74-59.43-46.79-32.82-50.57,26.21-3.94,32.23-35.61,27.32-57.67-11.67-5.88-25.6-10.07-31.77-25.52-12.6-12.18-17.49,21.3-31.82,21.78-5.4,2.73-2.83,9.73-4.81,14.57-4.16,24.11,20.85,39.78,12.7,54.87-5.23,20.26-26.06,39.25-47.85,39.2-20.35,1.52-36.55-27.6-28.72-48,3.55-9.21-3.57-18,11.22-20.94,19.54-4.88,31.77-15.31,36.58-30.81.94-12.21-32.35-17.17-23.75-57.12,28.17-53.07-38.09-9.61-19.79-53.84,3.37-12.07,17.89-15.3,23.62-25.13-9-11.52,4.48-20.72,7.3-32.43,3-20.86,26.53-10.32,35.55-.47.88,19.25-22.21,20.84,0,40,5.87,6-10.79,21.6-8.38,33.43-11.21,32,1.47,72.26,34.2,46.76,1.72-18.53,9-36.74,12.1-53.71-9.51-13.39-7.18-32,11.36-32.84,20.07,1.6,71.41,47.6,42.08,69.3-7.3,10.08,13,24.11-5,46.58C714,1259.09,737.58,1339.24,677.4,1348.28ZM475.7,1297.9c-42.15-1.53-20.11-28.12-4.35-47.42,16.1-14.28,22.15-51.59,48.53-46.6a4,4,0,0,1,1.72,6.77C474.11,1259.39,559.84,1285.43,475.7,1297.9Zm336-51.11c-19.62,2.7-78.88-38.12-61-54.55,28.95-18.06,6.39-34.25,11.32-54.44,3.22-1.18,5.45-4.43,4.29-7.86-4.13-11.53-41.58,7.13-34.52-10.92,5.69-3.57,11.82-7,13-12.22,3.72-9.46-7.6-19.79-11.56-28.93-6.46-11.42-28-1.1-39.27-5.79-11.09-12-20.76,8-32.19,9.8-4.47-1.45-20.13-7.7-17.19-15.61,3.58-19.76,20.93-51.47,44.16-47.24,37.24,12.78,13.92-2.11,49-4,33.91,5.27,25.21,28.17,17.43,47.38,19.12,9.91,23.93,1.87,44.71,21.3,25.42-6.76,59,14.16,67.65,35.76,12,30.56-25.29,39.34-48,32.61-19.63,1.67,28.21,45,21.17,62.41C842.12,1233.45,830.49,1246.86,811.68,1246.79ZM642,1035.8c-9.82-8.09-8-27.29-19.72-34.88-2.68-2.15-13-6.82-10.55-10.41C631.28,905.81,668.26,1008,642,1035.8ZM199.27,377.27c-21.66,3.35-40.05-15.32-26.07-35,4.69-13.36,34.94-16,25.74-29.83-34.87-37.75,64.17-57.58,85.08-42,13.26,10,30.35,12.5,45.63,16.24,4.61-1.55,13.81-2.53,12,5.05-7.34,39.59-106.49,84.37-142.33,85.54Zm237.31-110c-95.05.83-154-99.13-32.35-57.69,17.09,12.47,20.46,34.21,38.7,46.89,19.71,12.92,10.93-28.34,12-37.83-2.11-29.59-7.08-73.81,29.94-86,43.2,14.88-5.64,104.5-23.68,127.72C439.07,260.77,454.67,267.29,436.58,267.24Zm50-8c-3.81.14-5.45-5.21-2.27-7.29,33.34-22.82,72.08-51.4,83.47-92.32C632.69,82.51,686.64,205.06,486.62,259.2ZM642,239.53c-83.16-1.44-22.12-13.33,11.83-37.3,14.75-8.95,26.92-27.18,46-22.64,20.91-4,69.86,24.88,35.27,43.93C706.17,239.75,675,238.56,642,239.53Z"/><path class="cls-7" d="M755.85,1303.06c-46.57-8.69-57.84-75.42-51.81-112.37,5-25.89,16.56-31.34-5.76-56.34-6.3-4.27,1.57-13.9-7.15-15.9-19.07-3.46-32.66-15.65-48,.14-9.74,6.36,5.34,19.88,2.64,28.82,0,19.54-9.92,36.53-15.56,53.08,12,10.81,20.38,40.41,37.76,40.35,2.59-.17,6.22,1.56,6.71,4.79,3.37,68.43-82,67.82-68.92-4.28,6.51-11.28,23.34-15.16,24.11-32.4,1.28-4.58-3.77-8.88-8.08-7-40,4.54-18-58.42-8.27-77.23.76-19.92-23-12.86-1.68-46.44-7.46-14.42-30.44-30.15-17.12-48.23,6.85-20.19,15.23-50.75,33.52-18.08,8.71,14,11.63,35.49,11,55.08-.83,10.11,17.14,7.42,19,15.65,8.78,7.53,32-13.74,52.8-7.8,18.81.66,31,11.71,32,30.13-.05,9.67-14.92,9.06-15.87,17.87,1.36,7.65,11.93,6,17.19,10.25,24.32,10.06,26.35,51.69,1.75,62.09-15.24,9.28,28.32,31.84,32.48,48.12C794.16,1267.82,782.3,1301.29,755.85,1303.06Zm-220.07-24.8c-43.62-.43-25-51.32-14.83-73.87-24.44-10.44-4.94-10.92,2.84-33.54,15.69-30.61,8.7-18.32,32.46-10.64,14.66-1.27,13.6,8.15,4.59,16.14-1.57,10.22,3.75,23.27,3,35.1-1.07,13.39,13.88,21.88,24.37,31.67C585.66,1264.62,557.88,1278,535.78,1278.26Zm267.37-198.42c-11.49-1-17.35-11.91-28-13.26-11.38-1.35-23.64-3.54-12.32-17.27,1.4-15.82,11.24-23,26.5-20.73C826.55,1024.38,844.3,1078.7,803.15,1079.84Zm-149.67-41.65c-14.74-19.85,15.74-70,45.08-67.15,23.49-3,20.2,46.38,6.06,50.38C683.12,1011.17,666.92,1021,653.48,1038.19ZM247.78,421.1c-26.36-1.44-19.34-31.93-9.14-48.07,30.74-21.73,66.84-36.74,96.21-63.14C361.87,312.45,271.55,426.69,247.78,421.1ZM356.11,287.2c-27.54,3.15-121.36-20.06-65.83-53.85,44.64-18.94,78.56,27.2,119.56,29.87C460.7,272.36,371.27,288.69,356.11,287.2Zm324.68-4.35C634.77,281,592,266,548.46,250.94c-9.49-6.37,6.85-7.36,5.78-13.91,2.1-6.63,11.84-8.88,16.68-13.28,21.93-16.12,50-27.25,55.54-56.94,1.12-9.86,8.49-12.81,15.94-15,32.29-16.29,58.15,13.3,29.22,38.71-16.65,11.45-31.54,21.32-48.41,29-64.66,34.47,82.2,6.87,94.47,26.71C749.17,269.13,701,285.12,680.79,282.85ZM450.57,261.41C383,221.82,400.49,104,442.42,166.26,452.51,193.19,462.36,239.93,450.57,261.41Zm19.75-2.62c-12.83.16,31.7-56.23,27.61-76.17C527.25,61.81,652.75,153.94,470.32,258.79Z"/><path class="cls-8" d="M982.64,1293.6c-25.37-15.55-49.25-30.76-74.31-47.62,19.62-5.84,36.13-16.75,55-24.45,3-1.35,6.69-2.77,6.69-5.39-.46-5.13-6.5-3.91-10.55-2-17.29,7.56-34.51,15.29-52,22.42-3,1.24-6.63,4.66-10.5,1.48q-22.12-18.22-44.14-36.59c-.6-.5-3-.43-.54-2.48,26.15-23.89,53.11,5.37,81.78,4.16,4.93.15,4.84-4.62.83-6-3.26-1-6.81-1.17-10.06-2.22-12-3.92-24-8.06-36-12.1,9.31-8,40.59-11.9,42-19.79-4.88-9.66-69.88,20.39-80.53,25.23-2.2,1.12-5.66,8.17-8.56,2.52-5.7-11.11-12.06-21.66-20.46-31.48,32.52,6.93,68.13-8.78,50.22-46.88-.59-1-3.62-5,.88-5.17,19.59-.68,39-.79,57.44,8.22s28.12,22.93,29.26,43.37c.54,9.71,8.5,13.08,16.18,16.08,1.15.19,2.35-1.15,3.16-1.9,1.7-1.81-.73-2-1.4-2.83-2.82-3.31-9.46-3.79-9.46-8.47,3.13-50.31-55.41-69.85-96.71-62.48-2.88.29-5.16,5.3-8.17,2.13-15.16-18.8-41-20.27-33.48-24.16,22.35-7,46.4-16.53,60.7-36.26,13.14-19.9,15.45-46.91-7.61-64.21-1.59-1.19-1.79-2.45,0-4,37.67-26,11.06-80.51-29-76.46-.49-.1-.61-3.49.83-5.26,26.69-27.39,44.29-56.29,15.09-92.15-10.25-8-33.61-3.25-27.48-27.59-5.47-55.35-73.45-64.68-104-23.59-8.32,21.13-13.33-13.21-50,10.35-1.76,1-3.1,1.35-2.6-1.15,2.58-12.84,5.35-25.65,8.09-38.46,4-18.93,10.31-37.3,12.31-56.8.63-6.16-1.78-14.8,4.22-18.94,35.49-28.75,74.17-10.13,111.71,1.63,29.74,10.48,71.16.38,76.79-35,7.47,4.43,14.82-.67,22.3-.32,20.76.85,40.68-5.37,55.42-20.36,1.53-2.21,2.46-5.3,0-8-3.58-4-5.38,1-6.82,2.51-27.26,30.14-80.52,10-80.21,22.51-.87,11.6-7.4,19.2-16.63,25.53-49.06,29.61-101.43-44.38-161.79.93,11.15-88.78-3.12-58.06,80.13-31.17,4.32,1.2,9.59-3.63,3.19-5.91-20.64-9.68-40.33-18-61.82-26.69,8.78-3.35,26.21-18.45,33-13.47a338,338,0,0,0,91.25,54.65c7.14,5.21,10.06-3.52,3.84-6-10-2-17.37-9-26.44-12.35s-14.95-10.45-23.82-14c14.68-.77,27.17.77,41.25,3.11,2.2.29,5.89,1.16,6.39.3,1.44-2.46-1.41-4.79-3.09-5.29-17.45-7.24-36.26-5.77-54.4-7.15-8.54-.83-16.18-9.63-24.53-14.35-3.83-2.16-1.26-3.3.23-3.87,23.08-5.68,60.35-15.22,82.5-5.65,11.5,6.27,22,14.33,32.83,21.85,9.81,6,25.05,19.67,36.69,12.55-1.34-1.2-2.49-3-4.07-3.51-19.48-6.58-34.76-19.92-54.67-32.92,20.89.54,89,12.55,98-4.79-.46-3-3-4.17-6.6-2.84-42.6,8.17-83.34-6.67-126.77-3.48,24.56-10.71,45.08-16.29,64.33-33.73,2.94-2.45,8.77-3.65,6.25-8.18-2.75-4.93-7-.23-9.57,1.71a157.07,157.07,0,0,1-45.15,23.59,203.3,203.3,0,0,1,19.78-38.34c1.64-2.47,2.9-4.91.87-6.76-6.83-4.72-19.7,24.27-23.55,29.55-4,7.37-3.35,17.78-12.2,22a208,208,0,0,1-58,17.79c-3.06.47-5.79,4.23-9,1.37,12.77-23.2,21.37-49.7,26.8-75.95,1.62-6.38-6.6-8.95-7.41-1.89-2.7,17.48-8.78,33.85-16.34,50-6.67-9.74-9.1-20-11.66-30.26a4.09,4.09,0,1,0-7.66,2.84c5.18,9.06,4.7,20.07,10.7,28.88,5.62,8.26-1.44,28.75-10.8,33.51C739.67,553,728.44,559,717.12,565c1.07-18.32,4-36.77,6-55.08,1-8.14-.29-18.27,4.07-24C745,464.38,780,413.49,812.36,424.78c10.17,4,18.21,20.07,13.63,30.38-1.28,2.87-.48,6.67-.63,10,2.82-1.51,4.64,2.14,8.25.72,33-16.55,94.1-21.66,103.31,25.36,1.24,20,22.07,1.74,33.58,15.39,4.55,7.57,11.48.85,5.5-4.83-7-5.86-15.31-9.65-24.68-9-1.47.11-4.08,1.25-4.21-1.85-6.25-52.19-77.59-56.27-113.65-32.33,9.32-32.67-17-55.76-48-41.09-24.28,12.58-40.52,34.09-58.37,55.48,6.85-53.94,8.79-107.77,10-162,.16-4.44-1.1-6.5-5.88-6.15-9.76.71-19.54,1.3-29.32,1.61-22.58-.95-44.23,2-66.48,3.93-35.08,3-71.13,2.08-106.33,6-6.58.58-7.18-.89-5.17-6.25,6.43-17.18,12.54-34.49,19.35-51.52,1-2.61,2.16-9.28,5.82-7.09a269.65,269.65,0,0,0,75.24,27.18c28.57,5.48,60.22,12.53,88.56,2.24,18.16-7.67,22-14.5,16-29.58-3.34-8.51-12.88-9.34-19.71-13.47,13.81-5.12,31.11-8,39.73-21,12.59-27.81-31.68-44.16-53.09-40.48-3.69.36-12.09,4.59-7.08-6.35,8.35-24.49-27.86-32.68-46.56-22-7.49,3.78-10.79,4.11-13.41-4.85-11-20.5-41.84-9.21-55.21,3.67-7.45-38.16-49.58-27.42-64.74-2.81-1.24-.8-1.41,5.1-4.28,0-6.89-19.49-28.17-20.38-40-3.81-6.5,9.42-11.22,19.49-14.78,34.33-1.25-10.45-6.37-14.8-8.49-20.42-4.21-11.15-19.72-15.51-28.77-7.7-19.31,16.67-14.66,37.26-10.18,58.4-19.18-12.77-77.87-21.72-69.5,17,1.06,3.82.92,5-4.13,5-15.53.14-31.59-3-46.09,6-10.52,6.53-18,14.2-13.45,27.86.68,2.07.5,2.17-3.55,2.16-28.29-2.7-109.85,13.91-68.9,52.9,2.21,2,1.84,2.6-.53,4.12-19.14,10.49-47.65,31.18-25.55,54,14.56,13.39,41.59,8.52,59.69,3.39,1.14,11.49-7.69,19.9-3.93,32.37,2.56,10.74,16.19,20,26.18,14.89,14.44-7.4,28.05-15.84,39.56-27.58,25-25.52,43.13-55.18,55.11-88.82,2.06-5.79,3.75-15.67,12.93-12.53,44.3,19.11,78.43,55.3,106.22,93.87,5.86,7.84,1.43,16.59.61,25.05-1.24,13-.31,26-1.55,39.11-7,121-30.72,241.93-61.56,358-15.58-43.41,8.35-109.68-45-131.43-3.15-1.18-3.81-3.27-4-6.62-1.63-38.06-48.33-49.66-73.21-12.39-2.92,4-3.54.95-4.14-.53-2.73-6.66-4.8-13.6-7.69-20.18-10.29-35.62-61.09-115-87-49.16-.62,1.92-2.82,1.44-3.78.22-4.54-6.16-9.13-12.29-13.43-18.61-8.65-12.72-31.92-15.71-43.73-6.13C86.1,596,89.84,654.48,116.08,688.1c-3.49,1.87-7.3,4.06-11.24,6-29.25,16.57-15.71,66,7.84,81.11,13.57,7,27.28,13.42,43.33,16.64-44.29,15-30.1,75.24,15.49,71.17,9-1.69,5.92,18.68,14.4,24.05,51.65,43.92,117-13.62,171.56,16.55,5.77,3.24,18.09,3,14.91,15.27-10.09,30-25.22,58.13-37.64,87.18-.18.39-2.45.44-2.57.16-13-17.55-37.17-26.67-56.8-13.75-2,1.22-2.81,7.32-5.7,3.74-8.81-10.91-20.91-16.92-32.13-24.51-26-16.45-64.25,10.65-61.5,39.93-20.8-12.47-39.37-27.85-66.77-23.23C89.14,991.72,73.08,999,64,1017.18c-6.45,12.88-13.35,26.82-6.95,41.67,3,6.91-.07,8.41-4.84,8.85-27.5,2.52-38.88,38.15-36.72,57.69,2.5,28.58,19.73,61.86,50.81,65.17,8.47,1,12,2,10.89,11,5.77,28.48,35.83,39.6,61.94,37.57,29.34-1,52.66-19.07,79.5-27.53-1.79,16.82-41.58,47.81-12.87,57.42,66.76,4.7,128.05,15.41,195.84,17.74-19.95,13.06-22.71,29.79-18.7,48.76.3,1.44.52,3-2.14,3.49-38.08,16.57-17.8,63.59,17,70.21,5.17,1.13,7.07,3.69,2.6,9-27.78,33.43,1.75,83.46,38.68,95,32.15,5.44,13.85,10.52,24.82,33.73,29.68,64.11,143.38,48,162.54-16,2-10.22,5.2-7.66,12.13-6.34,28.08,9.62,57.13-6.37,66.56-34.2,7.17-15.32,2.85-30.33,1.28-46.18,35.83,1.59,66.58-34.89,51.45-68.55,11.67-10.73,16.66-24.23,18.21-39.44,0-5.52,13,8.78,14.78,10,18.1,17.21,46.07,39.21,71.66,24.89,15.88-11.66,20,26.37,83.88,19.59,9.43-.82,21.65.3,25.83-12.68.52-2.52.75-6.11-3-4.59-6.13,5.49-13.46,7-21.43,8-57.76,8.67-60.9-25.25-80.28-21.39-12,4.25-23.25,11.09-37.41,3.19-21.86-12.18-41.91-25.86-54.76-47.79-2-3.48-8-9.21-4.34-12,11.11-8.18,22.77-25.18,18.73-41.39-17.33-34.5,23.82,9.41,48.6-18.07,2.66-2.56,2.72.14,2.67,2.08,0,27.53,5,54.55,8,81.84-.56,5.36,5.21,2.31,5.92-.09-1-19.48-3.29-38.88-3.28-58.4,13.77,14.44,19.87,34.06,29.3,51.36,1.07,2.19,2.54,2.93,4.21,1.78a4.73,4.73,0,0,0,1.55-4.12c-4.54-14.8-10.53-29-18.94-42-4.79-7.39-12.72-13.07-16.29-20.87-5.36-11.73-.46-25-2.24-37.55-.35-2.47.45-5.11.73-7.66,5.35,4.17,11.55,8,16,13,8.36,10.57,24.13,13.87,27.74,29.18,9.34,31.54,21.88,83.29,44.64,106.26.88-1.66,2.93-3.84,2.46-4.92q-8.88-20.54-18.55-40.73c-.71-1.49-1.44-2.6-.46-3.73.3-.34,2.38.41,3.28,1.12,8.93,7.18,19.43,12.37,26.54,21.91,3.42,3.14,11.1,13.94,16,9.2,2-1.5.53-3-.59-4-11.36-15.61-26.11-27.28-42.67-37-3-1.77-7.73-.41-9.14-5.13-3.82-14.06-9.63-27.67-11.66-42.15,24,15.22,48.06,30.6,72.57,45C980.09,1300.18,989.72,1298.55,982.64,1293.6ZM832.15,1091.14c24.16,9.26,54.38,49.78,13.49,58.38-27.89,3.9-49.74-11.93-74.35-18.84,14.76-5.71,26.25-17.36,30.73-31.93,3.38-3.79-4.48-15.91,9.87-12.14C818.44,1088.34,825.69,1087.89,832.15,1091.14ZM699,1128.66c8,1.53,16,5.26,22.88,3.81,8.41-1.78,13.83,1,20.67,4.31,21.05,10.19,21.12,36.94,8.1,51.39-7.38,8.18-35.29,4-42-5.33C723.31,1160.57,713.52,1146.73,699,1128.66ZM667.46,1089c20.75-15.64,70.5-16.58,71.62,15.1-10.07,21.68-58.49,9.8-75.36,1.72C668,1100.89,661.46,1093.41,667.46,1089Zm30-20.14a9.9,9.9,0,0,1-3.08-.88c1.18-2.34,1.86-5.14,3.6-6.93,9.07-9.37,16.27-18.85,18-33,.79-6.51,11.74-9.13,22.29-9,27.7,3.92,26.07,31.94,3.2,44C727.6,1072.61,712.26,1068,697.47,1068.89Zm11.29-56.59c-1.59,9.56-8.84,2.94-12,2.21-19.36-4.42-34.32,3-43.27,19.68C653,1009.82,668.9,973.9,700,975.07,717.72,976.53,709.07,1000.78,708.76,1012.3Zm-40.52,17.06c7.78-9.29,31.68-9,36.22,1,3,6.55-3.37,11.51-6.62,16.57-8.74,13.62-22.11,22.47-35.4,30.72-2.26,1.41-9.75-5.53-14.72-8.77A85.37,85.37,0,0,1,668.24,1029.36Zm-11.19,66.07c.58,21.82-46.29,33.41-49.87,3.88C606.51,1073.19,659.49,1067.59,657.05,1095.43Zm-15.19,50.76c-2.27,17.76-4.24,32-12.41,44-3.56,5.23-9.8,10.72-16.69,8.34-22-12.92-3.18-54.21,4.36-72.13,1.25-2.75,3.9-1.4,5.68-1.21,6.47.71,14.33-.24,16,8.82C639.7,1139.2,642.66,1144.18,641.86,1146.19Zm6.68,7.11c9.32,18,19.87,28.47,36.31,32.7,28.21.22,14.67,43.32-5.58,47-14.92,4.2-30.47-7.21-36.65-22.77C634.8,1190.55,648.17,1175.1,648.54,1153.3ZM600.73,1200c6.62,10.23,16.4,8.08,25.79,5.51,0,21.25-26.63,37.61-46.33,25.3-8.83-5.23-17-31.42-12.83-41.13,15.19-46.45,13.23-21,31.88-46.27C594.69,1165,589.47,1182.66,600.73,1200Zm44.08-179.45c-.18,3.74-1.83,7.41-2.85,11.29-4.86-18.92-10.16-30.4-26.35-40.4a163.78,163.78,0,0,1,9.09-27c5.35-6.41,15.86,2.9,17.93,8.15C647.68,988.22,645.58,1004.47,644.81,1020.51Zm-20.2-6.74c6.41,12.94,11.8,26.3,9.94,43-1.11,2.76,3.24,10.85-1.43,11.48-8.59,1.15-19.77,10.89-26.43-4.31-2.08-4.75-6.54-8.41-9.58-12.79-7.39-10.68,2.75-18.66,4.63-27.91a38.76,38.76,0,0,1,3.59-10.21c2.08-3.94,1.88-11.38,6.33-11.26C617.86,1002,621.91,1008.3,624.61,1013.77Zm-27.76,58.58c3.53,2.55,12.27,2.67,9.53,8.63-3.62,7.84-7.4,17.38-19,18-6.65.38-13.11,3.21-20.16,1.45,4-7.78,9.36-14.87,11.42-22.81C582.18,1064.21,589.08,1066.73,596.85,1072.35Zm-6,36.29c12-3.89,11.33,7.74,17.27,10.86-2.63,13.64-29,34.88-42.16,36.07-6.75-1.86-14.66,1.45-20.18-6.3-4.08-5.72-.08-9.65,1.67-13.32C556.14,1117.89,573.76,1114.18,590.9,1108.64Zm-33,55.51c2-.15,4.16.72,6.24,1.12-12.15,17-27,33.24-51.54,31.37,11.26-13.25,16-29.5,25.44-42.46C542.85,1160.21,548.91,1164.78,557.89,1164.15Zm-39,43.6c-17.13,16.29-21.54,49.38-11.63,60.88,12.31,14.29.08,15-7.83,18.85-12.1,5.91-24.39,9-37.79,3.63-13.93-5.62-5.65-12.49-1.26-18.7,13.3-18.82,27.76-36.87,40-56.31C505.4,1208.12,510.05,1205.38,518.84,1207.75Zm-3,19.52c5.65-22.06,27.94-26.3,42.51-39.72.55,19.06.3,44.38,21,52.74,9.36,4,3.27,6.94,1.57,10.92-8.34,19.49-51.8,31.18-63.74,16.33C507.36,1255.25,512.52,1240.86,515.87,1227.27Zm29.33,57.57c0-5,5.67-4.48,8.42-5.31,17.77-5.34,31.65-14.45,37.62-33.12,1-3.3,5-4.07,8-3.19,4.29,1.24-.33,3.11-.11,4.66,2.09,15.12.64,31.52,12.67,43.46,6.67,6.63.35,11.55-1,16.9-7.49,30.45-58.66,49.25-68.11,10C540,1306.43,545.11,1296,545.2,1284.84Zm66.14-12.91c-4.23-9.29-3.2-20.07-1.67-30,.49-3.21,6.49-5.72,10.17-8.27,8.19-5.68,11.7-14.13,14.27-25.45,3.9,18.5,20.36,35,36.56,37.91C675.37,1279.81,631.26,1318.81,611.34,1271.93Zm36.56,29.67c22.24-6.33,31.1-29.75,29.38-50.69-.2-2.37-2.61-5.93,2-7.94,9.05-4,18.57-12.72,23.32,4.72,4.23,15.55,10.84,30.56,10.37,45.47,3,32-30.26,70.79-58,40.66-6.1-8.66-12.66-17.25-15.4-27.51C638,1300.13,645.55,1302.19,647.9,1301.6Zm50.21-125.09c-28.43,6.78-44.07-28.86-52.13-50.17-2.25-5.81,8.36-12.25,13.11-12.53C677,1114.69,726.21,1159.45,698.11,1176.51Zm35.81-54.11c17.2-7.92,19.44-23.27,8.57-37.21-4.21-5.9-10.69-9.63,2.5-13.66,12.89-3.93,37.1-.4,45.47,10.11,8,10-2.79,32.65-17.83,37.12A93,93,0,0,1,733.92,1122.4Zm49.59-89.77c18.48-2.22,36.12,6.4,39.77,23.57,1.27,15.65-7.88,16.18-15.86,18.89-11.81,4-16-9.23-25.45-10.36-3.86-.46-7.67-3.88-11.25-3.5-16.37,1.65-3.91-7.72-2.2-14.36C767.74,1035.83,772.79,1032.68,783.51,1032.63ZM731.27,764.84c3.54,2.56,7-6,9.54-9.55,19-27,52.7-31.81,77.77-15.28,14.61,11.52,17,39.61,15.78,57.49-.44,5.41,4.68,3.87,7.38,3.34,17.77-3.53,37.38,16.28,35.41,34.48-2.12,26.25-22,41.48-35.5,61.64-5.24,4-.17,9.33,5.21,8.07,37.42-7.81,62,40.39,28.21,62-4.16,2.57-8.64,5.87-8.53,10.6.08,3.76,4.8,4.76,8.87,6.08,11.78,3.78,16.9,26.9,13,39.43-7.7,24.67-30.83,30-48.93,42.41-12.75,3.41-5.17-7.68-5.86-10.46-5.55-22.58-31.47-38.36-53.32-30.84-8.17,2.82-14.72,4.9-20.3-5.16-4.13-8.2-15.2-6.73-22.78-10.24,17.51-11,19.86-14.35,39.81-7.28,14.7,1.51,72.58,18.71,79.43,5.2-.18-3.29-4-1.69-6.26-1.76-26.67-.1-52.25-7-77.89-13.3,1-1.45,1.72-3.74,3.09-4.25,28-10.39,51.32-29,77.06-43.34,2.13-1.19,5.16-3.46,3.64-6-4.19-8.59-49.06,28.67-58.53,28.48,6.25-12.87,14.5-24.93,22.08-37.09,1.73-2.62.54-3.58-.73-3.93-1.8-.48-5-.56-5.72.48-7.66,11.23-16,22.17-22.06,34.26-7.72,15.54-21.78,21.71-35.84,28.63-10.1,4.89-19.61,11-30,15.36,8-27.13,25.77-75.74,46.2-94.39,11.13-11.05,26.4-13.43,40.12-19.13,6.51-4.24,38.79-20.71,34.66-28.77-4.31-3-53.66,37.34-40.45,17.05,5.12-8.15,38-39.56,30.72-47-1-.52-4.12,1.82-5.49,3.51-19.37,24.64-39.21,48.85-60.27,72.07q-2.25-1.67-4.51-3.32c16.13-47.65,31-98.49,22.67-149.14-.3-2.32-2.08-2.19-3.77-2.26-3.16-.12-2.51,2.35-2.23,3.85a179.22,179.22,0,0,1-8.61,82.83c-1.52-19.39-8.08-37.9-7.36-57.31.07-1.93.44-4.82-2-4.9-11,2.43-.23,60.66,4.42,69.31,5.36,13.68-3.76,22.71-5.48,33.93-1.57,8.21-5,16.49-8.56,24.19-1.17-.82-2.79-1.39-3.44-2.52-6.44-11.12-12.5-22.47-19.1-33.5-4.2-7,1.12-12.69,2.62-18.46,4.09-16.09,6.6-32.58,2.77-48.82,1.34-3.63,1.66-7.07-1.45-9.93-3.28-1.44-6.29,8.93-5.24,11.83,4.7,18.09-3.2,33.75-5.12,51.55-8.52-13.14-11.25-27.43-17-40.4-1.77-4-2.06-12.48-6-10.63-6.13,2.9-1.34,10.71-.12,15.77,9.86,32.9,24.27,65.72,46,92.5,4,4.65.42,8.07-.72,11.19-4.25,9.69-7.8,20.46-14.63,28.67-9.91-16.72-11.39-38.13-22.26-54.21-7.67,6.54,13.56,53.84,19.13,63.07,3,5-2.68,13.14-6.87,18.14-1.91,2.28-5.06-2.7-6.89-5.09-8.25-10.79-16-22-24.56-32.5-3.58-4.37-1.23-9-.72-12.26,3.2-20.34.7-40.43-.85-60.58.12-8.3-10-6.28-8,1.55,3.72,17.55,1.39,35.3,1.78,53,0,1.14-1.47,2.31-2.26,3.47-8.83-7.85-13-20.48-20-30.11-1.58-3.92-4.82-6.19-6.84-1.21,5.85,24.41,27.11,42.95,39,65.06,5.58,9.85-5.92,5.24-7.46,5.86-14.17,4.81-23.61,13.92-32.42,25.42-.83-50.13-38.85-27.2-20.83-52.51,11.8-41.49,24.94-82.67,35.24-124.62,3.49-12.43,6.36-25.4,12.23-36.72C689.63,762,712.64,751.38,731.27,764.84Zm-16-515.37c16.87,10.17,6.83,21.33-7.34,25.19-54.74,12.94-105.33-11.17-158.26-27.52,16.61-.83,29-9.89,43.58-8,27.35,3.48,54.78,5.56,82.29,2.94C689.72,240.7,703,240.35,715.3,249.47Zm-19.39-66.19c17.1,1.5,35.29,1.75,45.4,19.28,11.63,19.17-36.54,27.86-48.51,30.29-13.49,2.68-27.23,2.29-43.22,2-13,2.76-28.34-3.62-43.69,0-.57.13-1.41-.91-2.12-1.4,16.93-9.47,36.26-15.65,52.3-27.86C669.68,198.26,678.9,181.41,695.91,183.28Zm-65.48-16c1.15-10.06,10.74-10.42,17.32-12.95,28-10.54,45.13,8.82,21.61,32.92-33.66,23.65-70.08,42.89-111.12,49.66C585.46,216.12,623.2,203.83,630.43,167.26Zm-34-25.85c23.06-9.34,34.53,14.47,23.12,32.85-28,43.72-85.25,66-133,80.94,35.49-24.63,72.21-51.09,85-94.44C574.78,150.51,586.23,144.8,596.46,141.41Zm-89,19.89c32.92-70.76,127.89-12.19-37.15,93.49C494.89,224.12,498.5,195.31,507.47,161.3ZM457.53,180c2.05-15.57,6.59-31.19,21-41.06,3.33-2.28,7.41-3.57,10.39-.76,5.09,4.8,11.52,9.31,9.9,18-7.18,37.27-15.32,70.56-40.75,101.65C463,229.59,455.61,206.82,457.53,180Zm-43.76-20.94c2.4-3.24,7.73-7.93,9.8-7.11,30.67,18.62,26.72,73.19,27,105.43C425.33,235.63,394,191.55,413.77,159.09Zm-73.62,54.63c2-10.37,13.9-11,23.75-11.18,14.12-.31,26.28,6.24,39,10.78,8.12,2.91,9.38,12,13.23,18.11,7.54,12,17.53,21.36,27.47,31.31C418.92,266.07,337.83,244.5,340.15,213.72ZM195.34,298.17c.67-25.07,53.65-26.89,73.73-29.49,7.68-2.11,12.52,6.79,19.81,9.8,8,3.33,16,7,24.48,8.27,7.4,1.07,14.53,6.54,22.54,2.41.41-.21,1.35.6,2.05.94-31.69,20.95-76.33,29.62-114.63,24.5C212.44,312.8,197.24,313.79,195.34,298.17ZM310.5,362.43c-11.16,16.09-23.51,31.68-40.27,42.05-9,5.55-17.61,17.76-30.54,10.25-13.43-8.67-3.17-28.62,2.29-39.5,5.26-8,15.3-9.14,23-13.51,26.15-13.92,48.55-30.36,72.25-48.63A239,239,0,0,1,310.5,362.43Zm-72.24,2.09c-18.2,7.43-37.36,11.7-57.28,6.37-8.72-2.33-11.09-17.33-4.56-26.21,8.16-11.1,20.46-16.87,31.89-22.63,5.65-2.84,15,2.74,22.72,2.77,15.12.05,30.81,1.21,45.23-2.33,19.7-4.84,40.35-8.46,57.62-20.69.69-.49,1.73-.49,5.21-1.39C307.23,327.93,274.77,349.6,238.26,364.52ZM345.9,282.75C329.27,281,272,274.6,277.4,250.27c9-21.45,41.49-16.35,60-14.49,8.82,1.44,16.27,10.39,24.7,15.34,18.76,12.36,39.18,14.5,61,19C397.12,277.8,372.14,285.12,345.9,282.75ZM435.26,335c-18.15-17.2-39.35-33.74-61.92-43.25.71-.89,1.49-2.39,2.3-2.42,22.14-.9,42-10.49,62.91-16.11,29.85-8,61.05-10.91,89.63-23.91,2.74-1.24,6.53-.16,10.13-.16-11.19,18.53-19.24,38.35-23.06,58.93-3.26,17.6-14.61,5.86-21.65,8.45-5.67,2.08-12.75.09-19.15.58-4.61.35-2,4.93-2.12,6.78-1.1,17.52,2.15,35.17-1.94,54A246.44,246.44,0,0,0,435.26,335ZM330.88,886.57c-45.19-7-91.38,22.2-133.88-3.31-10.95-5.48-7.55-29.27-18.28-27.92-43.38,8.06-57.25-49.23-11.78-56.43,8.53-.56,17-2.51,25.38-4.32,1.22-.27,2.25-3.21,2.64-5.07.6-2.84-1.72-2.47-3.55-2.6-26.09-1.95-51.67-5.19-74.64-19.73-11.7-7.4-19.63-35.46-17-48.4,3.17-15.61,15.21-17.74,25.38-23.37,14.91-6.15-33.87-27.08-16.61-89.37,3.86-20,27.07-48.09,46.41-29.67,9.05,9.86,17.05,20.67,25.58,31,1.48,1.79,2.76,4.56,5.86,3.43,3.57-1.3,2.43-4.58,2.7-7.29-.41-19.31,12.89-38.76,32-23,32.51,22.33,35.64,62.47,55.71,92.86,10.75,11.39,13.62-38.74,58.09-20.34,6.57,2.8,9.56,10.05,9.4,14.89-.41,31.35,37.55,17,40.5,60.51,2.49,22.93,3.21,46.09,6.58,68.88,5.61,26.95,14.31,30.87.8,59.46-.59,1.82-2.61-.39-3.72-1.43-11-10.22-22.46-20-32.71-30.85-5.91-6.28-.87-14.83,0-21.86,2.1-17,1.4-33.7-.09-50.52-1.2-8.19-1.11-43.48-12-42.89-3.38,1.12-.85,3.7-.66,5.5a423.31,423.31,0,0,1,3.69,99.85c-8.11-6.47-16-12.69-23.8-19-3.33-2.7-6.61-4.76-4.1-10.71,3.18-7.55,2.33-16,1.74-24.24-2.34-10.46.38-87.65-11.22-83.6-4.31,1.45-.69,4.51-.57,7,.65,19.61.83,35.63,2.62,56.08-8.23-13.07-15.28-24.3-22.35-35.53-1.89-3.73-5.95-4.49-9.34-2.12,14.42,32.92,36.71,42.45,30.72,82.39-20.91-13.72-38.78-32.26-57.9-48.47-6.67-6.1-3.81-15.84-5.22-23.85-6.93-34.62-11.72-73.44-30-103.33-2.33-.47-6.55-1.75-4.69,3.72C222,636.57,229.2,660.77,233.07,686c1.73,11.91,7.63,23.85,5.18,36.08-29.62-29.69-55.55-63.65-83.8-94.88-4.53-6.11-7.8.61-4.87,5.24,27.07,32.43,51.8,68.38,82.82,97-20.48,9.67-35.3-3.59-51.29-13.06-10.36-6.15-21.14-11.61-31.85-17.15-1.16-.59-3.13.4-4.72.65,11.38,17.37,35.3,20,50.76,35.19-18.9-3.24-37.44,3.5-55.49-3.08-3.55-1.3-9.35-3.5-10.44,1.1-1.34,5.65,4.94,5,9,6.08,22.51,6.1,45.44,4.62,68.13,2.88,9.54-.73,19.46,1.1,28.88-2.79,5.4-2.23,8.86,2,12.34,5.54,16.17,16.6,35.26,29.78,52.92,44.63,1.85,1.56,3.6,3.57.07,5.07-7,3-14,6-21.16,8.35-9,2.9-16.8-3.08-25.31-4.26-12.2-1.68-24.28-4.27-36.47-6-2.86-.42-8.91-3.87-8.32,2.26.64,6.51,8.61,4.53,13.11,5.92,12.76,3.91,26.77,2.77,39.88,9.83-23.46,4.52-45.16,11.9-68.85,13-2.13,0-4.25,2-6.37,3.07,2.67,1.47,5.51,4.45,8,4.17,23.74-2.72,47-6.63,70.08-13.28a240.06,240.06,0,0,0,32.2-13.16c10.18-5.23,17.62-4.57,25.43,3.28,5.23,5.24,11.13,9.82,16.67,14.64-17,10.27-34.84,19.4-54,25.43-15.93,5-32.2,9-48.4,13.1-2.48.63-4.1,1.27-4.26,3.82.93,8.68,51.12-8.23,58.71-10.08,18.89-5.55,36-14.63,52.76-24.67,2.62-1.58,3.89.19,5.13,1.34,12.58,11.58,25.87,22.54,37.15,35.29,6.66,9.06-7.24,24.86-7.88,35.58-.29,2.75-1,4.54-4.94,1.73C361,894.67,346.45,890,330.88,886.57ZM203,1208.72c-31.93,14.37-70.67,34.57-103,11.24-7.79-5.47-17.39-15.1-13.17-29,1.8-5.91-2.19-9.77-8.43-9.79-60.64,4.21-75-104.89-10.34-108,21.9-3.27-19.5-20.24,6-55.41,12.39-19.77,46.42-24.43,65.56-16.34,14.71,6.22,26.26,19.2,43.3,20,1.93.09,6,1.62,4.24-3-6.37-16.87,3.27-30.8,15.69-37.61,14.19-7.78,27.52-4.63,40,4.73,10.43,7.84,21.61,14.82,28.42,26.56,2.24,2.47,7.06-.35,7.67-3.08,5.51-24.36,27.76-13.18,42.13-2.89,14.76,8.74,4.07,17.9.32,26.8-5.22,11-9.65,18.75-15.23,30.63-4.66-15-4.12-28-10.7-40.47-5.58.26-5.43,7.82-4.22,11.5,2.33,12.15,6.79,24.1,7.55,36.3.63,10.1-5.43,20.7-15.2,23.08-6,1.47-12.52-7.28-17-13.37-16.66-24.49-35.72-47.37-51.7-72.22-.81-1.22-1.35-4.49-3.88-2.72-12.6,6.95,28.64,47.41,31.78,58.43-21.66,1.76-42.73-7.63-62.63-15-.93-.37-2.44.71-3.68,1.12,15.68,14.08,37.13,20,58.29,21.08,10.69.23,17.77,7.11,25.69,14.67,14.7,14,4.56,15.75-6.54,18.86-21.13,9.08-26,5-46-2.66-24.42-6.31-45.08-20.45-66.84-32.07-14.09-7.52-26.48-18.24-39.49-27.73-2.73-2-5.51-2.37-7.6-.37-3.14,3,1.27,3.8,2.49,4.89a435,435,0,0,0,44.62,34.45c-11.3-2.94-22.61-5.83-33.89-8.87-1.21-.32-2.58-1.84-3.17.09-.34,1.13.44,3.66,1.23,3.91,15.9,5,30.39,14.39,48.33,12.84,11.33-1,18.87,9.58,29,13,5.58,1.88,11,4.35,16.35,6.76,2.93,1.3,6.81.82,8.61,4.36-40.37,12.22-84.58,6-126.44,7.49-9.43,0-18.85.18-28.28.13-2.43,0-2.89,1.72-2.86,3.18,0,2.68,2.28,2.62,4.36,2.84,25.44,3,50.5,1.27,76,2.33-17.22,10-33.25,18.69-51,23.62-1,.29-2.64,2.19-2.43,2.85,2.17,9.34,33.71-6.79,38.72-10.31,27-19.17,59.55-19,91-20A384.09,384.09,0,0,1,150,1173.11c-6.94,5.4-15.45,11-20,18.61,6.25,4.65,51.23-32,57.94-38.06-.27,15.9-6.52,30.82-11.08,46.15-.68,2.26-1,4.16,1.63,4.42,6.55.61,7.32-5.42,8.38-9.25,14-76.08,26.59-68.62,94.39-89.54-11.76,24.07-25.9,47.16-38.88,70.66-5.11,8.9-10,18.65-17.45,25.26C219.68,1206,210.23,1205.27,203,1208.72Zm152.07,62.39c-44.64-5.24-89.38-10.32-134.3-12.21-14.61,1.27-16.56-1-6.52-14C277,1144.54,339.53,1042.71,382.11,932,404,873,419,811.3,432.52,749.86c33.17-137.61,48.38-279,50.36-420.37-.12-5.14,3.74-5.27,9.33-5.29,17.92,0,38.43,0,58.93,0q88-3,175.86-7.22c3.65-.16,3.88,1.16,3.58,4.28-2,20.53-2.45,41.32-6,61.57-7.06,80.55-16.69,160.84-24.73,241.32-10.38,63.21-25.05,125.67-42.28,187.36-35.85,140.19-86.42,278.65-167.52,399.3C421.68,1301.14,468.54,1279.65,355.09,1271.11ZM764.24,1349c-9.25,26-25.4,19.57-16.06,33.65,16.37,27.76-22.32,61.39-50.3,50.42-2.69-.9-4,.69-3.3,4.07,2.09,10.5,5.06,21.06,5.24,31.64.33,19.28-15,50.73-42.5,48.21-10.44-1-20.94-1.31-31.39-2.1-3.38-.25-5.46,1.44-5.6,4.3-2.48,34.34-46.61,59.48-77.94,58.41-98-2.74-59.6-68.29-85.83-71-29.76-1.58-56.77-28.43-58.67-57.65-2.06-13.34,8.09-25.11,14.74-36.55.85-2.69,4.28-4.82,2.37-8.09-1.72-3-4.85-1.28-7.26-1.31-32.64-.66-56.62-45.87-18.65-58.65,11.53-4.7,2.19-12.13,1.8-17.89-1.13-16.41,6.76-28.38,19.05-36.44,4.49-2.94,13.74,1,20.72,2.34,11.74,4,14.24-7.49,18.28.14,19.56,21.27,55.45,7.11,73.07-10.78,1.92-2.18,10,1,15.21,1.78-1.15,12-7.54,24.21-2.78,36,2.16,5-1,7.45-11.77,9.5-12.33,2.33-22.64-4.78-34-7a151.64,151.64,0,0,0-44.17-2.32c-4.64,1.55-21.6-1.24-21.66,4.42-1.61,5.94,36.15,1.92,41.82,3,13-.14,24.84,4.78,38.5,8.74-33.88,11.42-64.73,22-96.91,35.78-4.92,1.6.25,5.9,3.09,5.27,34.29-11.42,67.08-23.79,101.93-34.14-15.86,21.77-35.6,38.21-55.49,54.5-1.09.9-4,1.53-2,3.29,9.46,9.88,59-43,64.63-53.25,4.86-6.87,12.79-16.74,22-12.44,14.94,25.19,42.26,4.45,34.58,22.88-3.16,7.64-6.81,15.34-8.28,23.37-2.37,12.87-13.64,13.31-22,17.84-14.52,7.86-29.44,15-43.61,23.42-13.49,8-25.79,17.83-37.5,28.39-4.11,2.75-26.43,30.36-10.21,23,8.56-7.81,14.33-18.23,24.36-24.72,11.55-7.48,22.56-15.78,35.79-25.13-12.53,18.49-20.7,36.66-33.78,51.64-1.72,2.9,1.81,8.38,5.25,4.57,8.62-9.46,14.44-21.08,22.5-30.7,9.39-11.22,8-29.75,25.39-35.49,8.8-2.89,16.78-8.31,27-13.57-11.76,40.61-21.71,79.11-30.66,120-.48,2.74-2.56,7.7,2,8.53,7,1.28,6.61-6.23,7.48-9.62,7.23-23.41,9.36-49.58,18.2-71.87,6.84,19,7,41.73,8.07,62.3,0,4.88-1.85,10.61,4.62,13.33,5.73-15,3.77-54.14-2.79-69-9.46-21.21-1.66-40.1,4.4-59.57.79-2.55,3-1.3,4.36-.12,9.12,7.72,18.18,15.52,27.29,23.26,2.73,2.31,2.17,5.27,1.88,8.22-1.88,7.95-.29,72.44,10.41,68.53,3.31-.78,2.08-3.36,1.77-4.76-3.79-20.27-5.27-41.63-3.53-61.89,18.31,16.73,32.24,37.92,45.8,58.76,24.6,5.34-38.64-66.91-44.66-70.5-11.19-10.63-21.4-22.88-36.15-29.28-3.57-1.54-4.07-4.47-3.08-7.69,3.2-10.35,6.41-20.69,9.9-30.94,1.57-4.62,6.58-4.45,10.19-5.18,1.24-.25,3.89,4,5.11,6.52,5.13,10.71,10.23,21.45,14.79,32.4,2.12,3.66,3.5,23.7,9.5,20.54.6-2.87,2.68-5,1.92-8.67-10.4-56.4-35-41.68-11.05-74.68,1.49-4.48,2.54-9.11,3.93-14.19,5.61,7.74,9.54,16.6,16.3,21.68,10.11,7.59,8.82,17.24,9,27.13-.39,7.19,7.07,65,16.71,59.28,4.67-3.65-.07-9-1.18-13-6-21.19-5.1-36.69-10.43-59,21.83,24.24,37.5,40.52,62.57,57.71.41.31,1.82-.38,2.59-.88,5.6-5.87-18.36-20-22.11-24.67-6.49-6.12-13.09-12.14-20-18.51,19.09,1.67,28.7-9.06,38.39-22.35,10.19-14,9.14-29.31,9.77-46.71,8.27,14.64,19.21,21.79,34.07,24.06C762.29,1310.42,768,1340.94,764.24,1349Zm6.93-56.53c-33,25.75-54.42-30-63.23-53.84-2.77-9-3.28-18.79-.27-27.75,2.09-6.23-.52-11.55-.54-17.64,11.65,5,24.14,8.07,33.7,15.1C765.2,1226.14,798.47,1264.76,771.17,1292.47Zm31.73-50.74c-22.95-5.48-37.31-21.44-51-38.67-11-10.13,33.64-11,12.34-58.84-.4-.87-.69-2.7-.41-2.84,1.56-.77,3.84-2.14,4.92-1.55,15.16,8.16,32.5,12,44.55,26.24C839.27,1190.7,852.32,1250.89,802.9,1241.73ZM970.07,397c9-.65,6.45,22.36-6.25,20.93-9.24.23-10-7.3-9.54-13.3C955.05,394.5,963.71,397.17,970.07,397ZM940.57,64.69c2.36-11.15,31.38-11.57,28.26,11.18-.42,4.93-7.36,7.7-14.29,7.72C942.46,83.65,940.11,73.68,940.57,64.69ZM943,272.47c-1-11.93,18.1-18,20.34-6.27C965.59,280.66,943.22,285.71,943,272.47ZM963,697.3c.65,9.16-4.49,13.44-12.43,12-8.62-1.6-7.55-10.43-8.25-16.65-.86-7.58,6-8.43,11.06-7.9C960.19,685.43,963.94,690.11,963,697.3Zm-7.6-540c-8.95-.46-15-.89-14.58-9.22.3-6.62,1-14.27,9.23-14.89C963.94,130,968.61,158.3,955.42,157.34ZM969.2,1585.71c-.58,5.84-2.45,11.48-9,11-5.08-.4-11.57-1.89-11.24-9.69C948,1572.79,969.5,1570.63,969.2,1585.71Zm-25-94.21c-2.09-11.27,5.79-14.13,13.48-14.15,8,0,8.26,8.13,9.63,14-.31,11.2-9.44,7.07-14.69,8.37C946.92,1501.16,945.13,1496.68,944.17,1491.5Zm-18.59-51.56c0-4.85,1.93-11.47,10.82-11,4.57,1.25,12.2,0,12.53,8.68C950.28,1453.28,926,1455.08,925.58,1439.94Zm18.26,96.59c-.13,17.85-22.28,17.06-22.28-.61C923.74,1520.11,944.37,1523.09,943.84,1536.53ZM925.63,334.93c17.43-1.57,20.6,21.89,5.53,24.4-5.13.34-12.52.66-12.75-8.28C918.22,343.84,917.85,336.65,925.63,334.93ZM912.71,839.39c0-16.93,21.26-16,20.39.54.57,8.15-4.44,11-11.17,11C914.38,851,913.45,845,912.71,839.39ZM931.3,210.23c2.42,18.14-22.51,13.33-21.22-1.53C910,194.89,932.59,195.78,931.3,210.23ZM906.88,16.09c.44-7.15,2.22-12.51,11.3-11,7.43-1.74,12.54,3.65,12.07,9.1s.41,15-10.25,14.92C911.33,29,906.3,25.63,906.88,16.09Zm3.68,655c-13.77,1.1-11.91-22.59,0-22.06,6.05-.15,9.62,3.63,9.36,9.59C919.64,664.88,919.41,672,910.56,671.11ZM906.11,747c17.82-2.05,12.14,27.11-3.42,26.18-10.88.83-9.15-9.22-8.91-13.19C894.13,754.38,896.16,745.87,906.11,747Zm-9.69-640.38c0-5.55,2.69-11.1,7.28-10.39,4.32.68,12.84,1,12,9.31-.5,5,1.17,13.07-8.53,11.32C900,116.87,896.39,113.93,896.42,106.59ZM915.1,299.28c.19,7.42-2.51,12.66-9.46,12.5-14.43-1.11-11.81-22.29,2.9-20.86C915.45,290.63,914.83,295.62,915.1,299.28ZM903.41,1497.7c.55,7.69-5.75,10.67-11.26,10.83-10.39-.11-11.62-25,2-21.49C903,1485.7,903,1492.22,903.41,1497.7ZM882,154.93c16.89-1.34,21.77,29,3.93,26-10.13,1.42-14-4.67-13.71-13.2C872.41,162.11,872.52,154.43,882,154.93Zm-2.87,100c-8-.16-10.87-5.11-10.32-13,.45-6.5,3.55-9,12.81-9.06C891.83,232.75,892.15,257.11,879.11,254.89ZM885,1569.54c-.22,7.16-4.55,9.73-12.44,9.67-5.11.85-6.47-3.73-6.31-8.19C865.52,1559.41,887.65,1555.92,885,1569.54ZM860.27,374.4c-.69-9.7,6.34-11.25,13-11.54,5.68-.25,6.91,5.12,8.19,9.72,2.88,10.37-5,11-11.45,12.23C866.12,385.56,860.16,378.59,860.27,374.4ZM851.38,59.09c-2.15-15,26-13.39,25.26.92.66,8.92-5.36,14.42-17.78,13.51C854.88,71.45,852.25,65.06,851.38,59.09ZM869.15,699c.35,16-25.29,13.3-23.88-1.87C845.71,683.63,871.32,682.12,869.15,699ZM867,1442.5c-.75,5.89.06,13.58-8.48,14.37-7.94.75-16.94,1.31-15.61-11.6.28-7.17,3.9-14,10.62-14.64C859.76,1430,868.28,1432.3,867,1442.5ZM861.1,293.27c.23,15.2-22.31,14.73-22.23,1.07.27-7.65,1.35-12.95,9.53-12.46C855.79,282.31,861.26,284.41,861.1,293.27Zm-22-86.45c7.09,1.41,11.09,4.49,10.1,11.45-.37,6.2-.84,13.12-7.74,12.39-7.16-.76-16.23-3.19-16.15-12.83C825.43,210.28,829.73,204.94,839.15,206.82Zm6,1326c.55,14-21.21,13.16-20,1C823.57,1521,846,1520.62,845.18,1532.84ZM819,11c-.64-17.62,22.11-13.9,22,1.36-.1,6.59-2.68,10.78-9.65,8.58C823.29,21.76,818.3,19.42,819,11Zm-16,94.15c-2.16-9.52,4.83-8.83,10.51-8.23,4.55.48,11.06.34,10.34,7.79-.65,6.74-1.85,13.83-11.6,12.31C805.72,116,801.29,113.12,803.05,105.17ZM818,1485.27c.71,14.48-26.17,13.92-20.79-1,1.3-4.94.51-11.73,2.75-12.46C815.78,1469.76,818,1477.22,818,1485.27Zm-13.54,99c1.23,16.43-22.3,18-19.34,3.18C781.47,1573.79,804.75,1569.61,804.41,1584.27ZM791.54,239.44c9,0,12.8,6.89,12.41,15.91-.34,8.18-7.92,6.78-12.27,7.32C778,263.48,776.77,238.55,791.54,239.44ZM764.63,54.08c-1.27-18.86,20.68-20.51,22.84-3.5C792.06,66.08,762.93,66.8,764.63,54.08Zm6.9,1480.84c-.55,5.59-.27,12.62-8,12.81-6.46.16-12.68-3.36-12.33-10.92C750.25,1523.05,772.37,1518.13,771.53,1534.92ZM725.72,115.14c8.42.35,12.87,5.25,11.22,14,.49,5,.75,10.11-5.55,10.72-9.62.94-15.71-3.78-16.28-13.5C714.72,119.65,718.9,114.86,725.72,115.14ZM706.24,17.78c-.47-8.77,5.54-11.9,13.3-11.62,6.26.22,12.93,1,12.47,9.82C734.05,35,709,35.79,706.24,17.78Zm5.53,1560.77c2.06,14.94-20.32,17.26-21.06,1.2C688.21,1564.19,712.56,1561.71,711.77,1578.55ZM665,77c.83-7.7,5.82-10.21,16.23-10.27,7.51-.66,10.2,6.75,9.39,14.92C690.19,100.33,661.88,94.64,665,77Zm-25.44-39.2c-1.27-12,25-9.76,22.34,6.14-.39,7.09-5.26,10-11.8,9.14C637.15,54.14,640.63,43.41,639.51,37.78ZM532.65,16.91c-.17-5.88,2.44-8.57,10.35-7.7,4.12,1.33,13.08-.24,13.63,8.86C558.39,38.6,530.5,37.86,532.65,16.91ZM480.21,71.7c-.92-10,6.14-15.53,14.22-16.26s9.13,7.84,10.91,14.33C502.65,82.35,483.4,85.15,480.21,71.7ZM428.94,1560.84c-3.17,3.37-.22,12.83-8.14,12.72-6.88-.09-17.53.88-15.81-12,1-7.38,2.05-15.35,12-15.71C426.28,1545.57,428.79,1551.89,428.94,1560.84ZM398.78,66.69c-1.89-16.06,21.71-19,20-3.54-.46,5.84-1.24,12.38-10.32,12.07C401.23,75,398,72.24,398.78,66.69Zm-20.59-52C378,5.36,384.68,2.4,392.65,3.09c8.14.7,7.33,8.36,7.36,13.36,0,6.29-4.46,10-12.56,9.24C380.17,26.73,378.31,20.6,378.19,14.66Zm-3.32,1508c.07,11.31-9.39,12.28-17.24,13-5.49.5-7-4.67-6.69-9.15C348.53,1508,374.71,1508.28,374.87,1522.65ZM343,107.93c7.46,0,10.15,4.83,10.18,14.38.11,4.1-2.17,8.36-10,7.81C329.8,130,329.19,106.77,343,107.93ZM351,1587.24c2.81,17.76-21.71,13.74-22.19-.7-1.78-14.29,9.33-12.36,16.46-11.8C352.71,1575.33,349.37,1583.85,351,1587.24ZM318.71,46.35c.48-6.59,1.74-11.59,9.13-11.41,17.18-.87,20.13,26.8,1.34,24C320.71,58.69,319.85,52,318.71,46.35ZM300.92,164.56c0-5.64-.09-11.42,4.85-11.14,5.65.32,14.86-2.27,14.47,9.28C320,170.5,317,175,309,175,300.4,175.1,301.66,168.36,300.92,164.56Zm13.69,1295.81c-.08,5.49-.95,12.46-10.38,10.84-6.91-1.19-11-4-10.31-11.39.59-6.52,1.8-12.7,11-10.68C314.75,1446.92,314.7,1454.91,314.61,1460.37Zm-1.48,78.34c1.85,15-18.31,11.72-17.7,1.66.29-4.94,2-11.42,9.89-11.51S312.22,1534.75,313.13,1538.71ZM262.86,16.4c.28-14.79,23.21-14.67,21.83-.32C285.09,31.41,263.94,30.88,262.86,16.4Zm-17.74,97c-.21-4.42-.47-10.25,6.7-10.39,8.46-.17,15,2.92,14.95,12.33C267.33,129.93,244.29,127.16,245.12,113.37Zm-.05,58c-1.21-10.65,17.05-19.75,19.45-6.82-.65,7,4.19,18.69-10.79,16.35C245.43,182.63,244.87,176.79,245.07,171.39Zm14.62,1295c.7,6.52-4.64,6.72-9.86,6.88-7.14.23-9.76-4.17-9.63-9.69.14-5.79,3.34-10.14,10.38-8.45C260.94,1452.86,259.16,1461.48,259.69,1466.38ZM255,1562c1.22,7.21-4.6,8.77-10.2,8.86-6.6.11-7-6.24-7.68-10.7C235.07,1548.74,256.52,1549.56,255,1562ZM226.78,202.4c7.88-.5,11.67,2.74,10.24,10,.48,6.17-.93,10-7,10.77-9.42,1.26-9.67-6.61-10.66-12C218.7,207.45,221.13,202.75,226.78,202.4ZM205,72.65c.45-4.21-1-10.28,6.24-9.55,5.8.59,12.94,1.67,13.46,9.12C227.69,87,201.81,88.82,205,72.65Zm-12,81.39c-.71-9,5.17-10.84,13-11.18,7-.78,7.74,5.67,7.76,10C214.61,168.43,192.54,171.45,192.93,154ZM213.6,1504.12c2.06,15.92-23,14.18-20.09-1.11.34-5.55,3-11.9,11-10C214.15,1491.51,213.33,1499.43,213.6,1504.12Zm-10.81,80.46c3.11,15.07-21.7,21-20.25,3.82.73-5.7,1.49-12.1,10.15-11.48C198,1576.61,202.39,1578.45,202.79,1584.58Zm-21.27-158.39c.35-5.32,2-11.68,10.8-11.5,8.57.18,8.22,5.55,8.76,11.15.75,7.68-4.31,7.52-10.07,7.12C185.32,1434.91,181.22,1430.77,181.52,1426.19Zm-14-1405.11c.26-5.27-.29-12.75,6.61-14.34,9,.47,13.53,4.66,13.76,11.91C189.47,32.78,165.14,36.6,167.53,21.08Zm19.52,482.18c2.44,18.54-24.39,16.71-23.71.44-.22-5.09-1.5-11.9,8-13.05C182.17,489.34,188,491.72,187.05,503.26Zm-12.85-294c-8.44.43-7-5.13-7.36-11.18-1-5.08,2.14-7.85,7.9-8,7.27-.23,8.62,5.31,9.08,10.67C184.38,207.29,180.3,208.93,174.2,209.23Zm-.52,27.47c13.39-.47,9.25,20.46-2.71,19.38-5.71,0-8.88-2.24-8.23-6.61C163.08,240.64,166.12,236.93,173.68,236.7ZM157.22,121.77c-1.92-14.7,19.76-14.35,19.33-.55.16,4.07-.45,12.06-8.13,10C160.42,131.85,157.58,127.07,157.22,121.77Zm.59,1346.55c-2.79,14.79-20.38,13.32-19.7-2.1-.76-8.35,5.26-11.14,11.89-11.07C158.23,1455.22,156.38,1462.94,157.81,1468.32ZM128.47,924.7c.81-9.62,2.7-15.46,10.67-15.64,8.66-.19,9.14,6.46,10,12.89.93,6.93-4.11,9.2-8.47,8.53C136.13,929.77,126.72,932.67,128.47,924.7ZM134.15,1385c-5.58-.8-13,.2-13.07-8.61-.06-7.45,2.91-14.63,11.16-15.18C145.31,1358.58,150.06,1389,134.15,1385ZM119.32,55.19c-2-16.62,25-16.35,23.87,1.49-.56,9.92-10.55,8.76-16.74,9.87C119.79,67.74,119.54,59.5,119.32,55.19ZM133.54,209c-12.51,3.16-15.44-17.48-3.36-16.78C140,190.52,144,212.92,133.54,209Zm5.58,256.45c-.34,6.86-2.45,11.65-10.87,11.77-6.62.09-8.92-4.17-8.84-8.81C117.58,456.55,141.65,450.67,139.12,465.45ZM136,1510.82c-1.21,6.73.21,16.19-10.35,16.43-8.28.18-6.63-7.58-7.06-9-2.12-13.22,3.51-14,10.89-13.37C133.56,1505.21,136.8,1506.45,136,1510.82Zm-8.25,73.91c.25,8-3.36,13.72-10.41,14-12.92.5-16.62-25.44,3.71-21.83C127.14,1577,128,1580.51,127.76,1584.73ZM99.42,122.13c-2.69-16.55,23.89-13.64,22.27-2.35-.56,6.25-.81,14.6-11.71,13.19C101.14,135.19,99.82,127.37,99.42,122.13ZM90.67,870.37C90.34,857.28,110,855,110,869.93,111.84,883.81,89.62,885.87,90.67,870.37Zm18.16-368.44c-.48,4.75-1.53,10.27-4.84,11-9.37.54-11.77-3.41-11.72-8.43C90.37,493.54,109.14,490.6,108.83,501.93ZM97.7,1444.7c-12.37.52-14.86-25.24-1.52-23.26,5.5,1.07,12.92,3.14,10.89,11.71C108.32,1440.94,103.25,1444.73,97.7,1444.7ZM90.87,256c.4-4.48-1.05-10.2,6-9.82,6.08.33,12.84.82,14.58,9.37-2.31,3.5-.46,10.74-6.78,10.34C99,265.52,89.87,267.18,90.87,256Zm-4,61.75c.7-6.79,5.09-10.24,11.17-10.63,9.49-1.21,9.21,23.37-3.14,17.83C88.71,326.22,86.31,323.67,86.92,317.75Zm5.76,610c-1.19,17.48-23.77,8.88-23.37-5.43C69.15,907.3,94.88,914.78,92.68,927.72Zm-5.65,431c-11.74-.69-12.1-24.19,1.14-23.72C104.23,1334.13,101.1,1360.11,87,1358.67ZM71.17,37.59c-4.53-13.93,17-14.14,16.81-1.51C90.7,50.36,67,52.84,71.17,37.59ZM87,1539c1.84,14.36-24.29,13.11-23.92-2.63C63.58,1521,88.57,1524,87,1539ZM67.14,662c-.22-13.72,18.06-14.62,18.36-1.2.49,9.47-6.88,9.14-11.45,9.91C69.19,671.49,66.85,666.29,67.14,662Zm16-472.31c2,17-19.74,13.85-19.47.42-.27-3.52,1.4-9.26,6-9.42C76.38,180.43,84.49,180.45,83.15,189.65Zm-28-91.77c-.3-17.26,23.36-17.52,22.59.14C77.7,114.38,53.66,114.2,55.12,97.88Zm11.24,509.3c-16.17.47-13.67-24.38,1.16-22C77.12,585.9,78.68,609.12,66.36,607.18ZM53,797c-1.54-12.57,20.36-17.81,19.8-3.72-.51,6.2-2.37,12.91-11.14,11.81C55.56,805.53,52.51,802.94,53,797Zm9.83-252.34c-5.36-1.24-14.19-.22-13.91-10.28.15-5.07,1-9.33,5.82-10.37C70,523.42,72.43,544.48,62.79,544.61Zm-8,829.35c17.55.74,16.51,25.27-4.21,23.8-6.42-1.13-5.82-6.75-6.16-11.16C43.84,1379.47,47.13,1374,54.75,1374Zm9.51-87.84c2,13.29-5,14.88-11.39,14.63C37.16,1299,42,1274.2,57,1276.28,65.25,1276.5,63.81,1284.34,64.26,1286.12ZM40.81,285.66c1.77-13.41,21.18-13.3,19.5,1.94C60.55,299.8,40.3,297.88,40.81,285.66ZM57.08,1466.43c.64,15.47-22.15,15.48-20.18-.28C36,1452.92,58.05,1454.32,57.08,1466.43ZM45.29,461.94c-7.54-.27-12.6-3.15-11.6-9,.5-11.9,8.22-12.69,13.84-13.64C60.35,439.3,59.34,463.29,45.29,461.94ZM34.66,979.34c1.51-4.9,2.15-10.28,9.16-10.63,8.81-.43,7.48,6.87,7.92,11.45.68,7.15-6.19,8.29-10.91,8.54C35.64,989,35.52,983.49,34.66,979.34Zm-1-304.77c5.91.85,7.58,4.31,7.54,7,.14,10.94-6.18,10.7-11.88,11.47C17.17,695,20.94,670.71,33.62,674.57ZM30.43,148.92c6.39.37,8.14,5.24,8.58,10.49,1.81,11.08-7.49,10.54-13.08,11.22C12.3,169.4,16.27,146.88,30.43,148.92Zm7.24,1435.34c-.4,11.37-24.5,6.69-22.07-5.88.5-6.78,5.67-11.33,12.7-11C36.43,1567.84,36.59,1574.72,37.67,1584.26ZM37.25,348.18c-.11,9.1-4.41,12.89-11,12.69-8.4-.25-7.35-7.09-7.3-12.85C17.64,334.75,38.88,337.18,37.25,348.18Zm-22.34-298C13.16,34.55,33.82,35.67,34,48.06,35.43,59.44,11.91,65.1,14.91,50.22Zm7,848.62c-8.8,0-7.88-8.29-7.49-13.35.61-8,7.57-10.26,14.65-10.48C41.56,874.65,40.06,899.57,21.93,898.84ZM14.41,1517.3c-6,1.2-6.11-5-6.19-9.51-.13-7.72,5.67-11.09,12.34-11.53C33.78,1497,28.54,1518.64,14.41,1517.3ZM9.06,1039c-2.88-14.3,20.12-13.82,18.59-.84C28.8,1049.73,5.6,1051.3,9.06,1039ZM6.83,1339c.22-7.15,3.73-10,10.38-10s11.77,1.48,9.68,9.75C30.92,1354.77,5.71,1354.62,6.83,1339ZM6.26,233C5,218.15,26.53,220,26.94,230.82,27.67,251.27,4.31,245.31,6.26,233Z"/></g></g><g id="Red_Japanese_Frames" data-name="Red Japanese Frames"><path class="cls-8" d="M0,20V1580a20,20,0,0,0,20,20H956a20,20,0,0,0,20-20V20A20,20,0,0,0,956,0H20A20,20,0,0,0,0,20ZM924,1548H52V52H924Z"/><path class="cls-9" d="M952.1,15.41,928.69,38.83A4,4,0,0,1,925.86,40H50.14a4,4,0,0,1-2.83-1.17L23.9,15.41A2,2,0,0,1,25.31,12H950.69A2,2,0,0,1,952.1,15.41ZM40,1549.86V50.14a4,4,0,0,0-1.17-2.83L15.41,23.9A2,2,0,0,0,12,25.31V1574.69a2,2,0,0,0,3.41,1.41l23.42-23.41A4,4,0,0,0,40,1549.86ZM936,50.14V1549.86a4,4,0,0,0,1.17,2.83l23.42,23.41a2,2,0,0,0,3.41-1.41V25.31a2,2,0,0,0-3.41-1.41L937.17,47.31A4,4,0,0,0,936,50.14ZM925.86,1560H50.14a4,4,0,0,0-2.83,1.17l-20,20a4,4,0,0,0,2.83,6.83H950.69a2,2,0,0,0,1.41-3.41l-23.41-23.42A4,4,0,0,0,925.86,1560Z"/></g></svg>