<svg id="Card" xmlns="http://www.w3.org/2000/svg" viewBox="0 0 1024 1680"><defs><style>.cls-1{fill:#f2f0ed;}.cls-2{fill:#8c1707;}.cls-3{fill:#16592d;}.cls-4{fill:#d82e21;}</style></defs><rect class="cls-1" x="14.5" y="14.5" width="995" height="1651"/><polygon class="cls-2" points="966 1619.17 966 60.83 1018 8.83 1018 1671.17 966 1619.17"/><polygon class="cls-2" points="60.83 58 8.83 6 1015.17 6 963.17 58 60.83 58"/><polygon class="cls-2" points="8.83 1674 60.83 1622 963.17 1622 1015.17 1674 8.83 1674"/><path class="cls-3" d="M842.93,883.18c2.07-12.16,4.76-24.13,7.36-35.7,4.44-19.71,8.62-38.32,10-57.73l.09-1.28,3.54-.3.31,1.24c9.72,39.19,4.08,69.5-17.77,95.4l-4.73,5.61Z"/><path class="cls-3" d="M828.75,893.75c-9.65-20.82-10.13-43.22-1.53-70.49a59.19,59.19,0,0,1,22.89-31.38,4.2,4.2,0,0,1,2.3-.62l.43,0,2.17-.33.14,2.19a3.49,3.49,0,0,0,.05.44,5.15,5.15,0,0,1,0,2.11q-3.13,13-6.3,26l-.09.36c-3.88,16-7.89,32.58-11.76,48.88-1.22,5.11-2.22,10.39-3.19,15.5l0,.19c-.43,2.23-.85,4.47-1.3,6.71l-1.19,6Z"/><path class="cls-3" d="M806.31,1148.55l29.2-61.74,1.24,5.76c6,27.76-11.4,43.41-26.77,57.22l-.92.82Z"/><path class="cls-3" d="M830,1396.07c-10.91-25.26-18.4-47.06-24.28-70.71l-1.71-6.87,5,5c7.94,7.81,16.27,22.41,21.74,38.11,5.81,16.66,6.77,29.39,2.64,34.92l-2.07,2.77Z"/><path class="cls-4" d="M753.83,439.25a17.63,17.63,0,0,1-11.39-3.92l-1.53-1.22,1.17-1.55c14.26-19,30.49-31,49.61-36.67A44.23,44.23,0,0,1,804,393.67a20.26,20.26,0,0,1,14.7,6.05c6.32,6.12,3.3,11.12,0,15.32C806,431,787.53,433.8,769.7,436.5l-.28,0c-1.74.26-3.52.68-5.4,1.13A44.46,44.46,0,0,1,753.83,439.25Z"/><path class="cls-4" d="M781,608.2a157.13,157.13,0,0,1-26-2.49,3.25,3.25,0,0,1-1.42-.64l-.13-.08a2.62,2.62,0,0,0-1.25-.21,18,18,0,0,0-2.13.18,20.36,20.36,0,0,1-2.26.18,4.33,4.33,0,0,1-3.15-1.11,3.65,3.65,0,0,1-1-2.78c.16-5,5.55-8.71,10.22-11.37C765,583.54,776.51,577,790.41,577c1.18,0,2.37,0,3.54.15,1.41-.13,2.78-.19,4.08-.19,3.61,0,14.59,0,19,11.95a10.18,10.18,0,0,1-.06,8.15c-1.47,3.08-4.69,5.42-9.84,7.16a81,81,0,0,1-26.15,4Z"/><path class="cls-4" d="M760.76,532.66c-9.08,0-18.57-2.21-26.66-4.38a3,3,0,0,1-2.32-2.37c-.65-3.54,5.58-8.09,5.85-8.28q1.95-1.41,3.9-2.85l.31-.23c14.24-10.43,29-21.21,47.32-22.12h.15l.14,0c1.74.25,3.39.35,5,.45,4.92.31,10,.63,13.8,5.32.56.69,1.28,1.41,2,2.11,2.4,2.43,5.38,5.44,4.32,9.73-1.83,7.39-6.92,13-15.14,16.76s-16.64,4.27-24.92,4.86c-2.66.19-5.37.38-8,.67A52.93,52.93,0,0,1,760.76,532.66Z"/><path class="cls-3" d="M819.19,1400.13c-22.78-17.11-31.58-47.19-23-78.51l.33-1.18,3.41.22.17,1.21c3,21.36,10,41.26,16.77,60.49,1.81,5.14,3.65,10.36,5.39,15.53l2.05,6.11Z"/><path class="cls-3" d="M735,1524.17c15.2-22.08,36.19-25.12,56.6-25.12,2.38,0,5,0,7.93.14a4,4,0,0,1,2.65,1.42,4.87,4.87,0,0,0,.43.4l2.14,1.62-2.15,1.59c-.29.21-.56.45-.84.69a8.93,8.93,0,0,1-2.79,1.82c-18.59,6.62-37.09,13.14-55,19.37a20.54,20.54,0,0,1-4.41.83c-.81.1-1.67.2-2.63.35l-4.59.71Z"/><path class="cls-3" d="M793.44,1150c-5.09-30.88,17.46-58.86,31.59-62.27l4.19-1-34.78,69.37Z"/><path class="cls-3" d="M759.9,1539.2a69.29,69.29,0,0,1-20.19-3.15l-6.19-1.88,4.63-1.45,80-25.14,1.17-.36,1.66,3-.93.8C791,1535.85,773.33,1539.2,759.9,1539.2Z"/><path class="cls-3" d="M758.39,823.36a3.69,3.69,0,0,1-2.85-1.29c-1-1.26-.72-2.82-.52-4a5.91,5.91,0,0,0,.13-1.12c-2.95-13.92-6-28.81-9.42-45.49-1.06-5.19-2.08-10.39-3.1-15.59l0-.12c-1.14-5.79-2.31-11.77-3.52-17.65-.44-2.15-1-4.25-1.65-6.47-.32-1.13-.62-2.2-.9-3.29l-.82-3.09,3.14.62c17.52,3.46,30.82,33.08,32.22,48.06,1.35,14.53-2.31,28.18-5.84,41.39l-.64,2.39c-.57,2.2-3.45,5.61-6.08,5.61Z"/><path class="cls-3" d="M731.45,1078c.45-1.51.9-3,1.34-4.52,1-3.44,2-7,3.27-10.4,1.66-4.66,3.43-9.35,5.15-13.89l1.45.41-1.4-.53c1.7-4.5,3.45-9.15,5.1-13.74a82.24,82.24,0,0,1,3.33-7.71c2.95-6.27,6-12.75,5.29-21.33l-.11-1.24,3.33-.93.56,1.1c7.86,15.59,2.59,48-10.07,61.84a18.76,18.76,0,0,0-1.5,2,16.92,16.92,0,0,1-2.66,3.26c-2.24,2-4.64,3.79-7,5.55-1,.78-2,1.52-3,2.28l-5,3.88Z"/><path class="cls-3" d="M714.91,1080.93c-.13-.22-.29-.43-.44-.64a6.1,6.1,0,0,1-1.33-2.8c-3.69-30.67,12.91-52.87,27.78-68.78a7.37,7.37,0,0,1,3.08-1.65c.8-.29,1.86-.68,3.23-1.26l4-1.68-1.28,4.11c-.55,1.78-1,3.46-1.34,4.94-.77,3.12-1.44,5.81-2.94,8.11-6.4,9.78-10.46,20.89-14.39,31.64-3.08,8.42-6.27,17.13-10.58,25.27a10,10,0,0,1-1.85,2.32q-.36.36-.69.72l-1.81,2.08Z"/><path class="cls-3" d="M744.6,831.24c-23.2-28.73-28.28-59.46-16.47-99.64l.34-1.15,3.36.21.19,1.18c5.31,32.26,10.42,63.28,16.11,97.82l1.24,7.47Z"/><path class="cls-4" d="M677.67,345.44c-.67-1.63-1.41-3.28-2.13-4.89a73.22,73.22,0,0,1-4.28-11.17c-4.64-17.79-4.52-34.29.35-49,4.76-14.38,14.85-23.47,27.68-24.94.49,0,1-.08,1.38-.08,6.43,0,6.76,5.59,7,9.29.1,1.8.21,3.67.83,4.75,1,1.78.89,3.86.7,7-.11,1.7-.24,3.81-.24,6.46v.2c-2,14.45-9.09,30.66-19.12,50.55a15.27,15.27,0,0,0-.6,1.44,11.89,11.89,0,0,1-1.53,3.07c-1.48,1.95-3.11,3.83-4.68,5.63-.66.75-1.31,1.5-2,2.26l-2.13,2.51Z"/><path class="cls-3" d="M615,1471.71c8.48-20.19,24.11-31.5,50.7-36.69a55.16,55.16,0,0,1,10.52-1,52.75,52.75,0,0,1,10.87,1.14,21.08,21.08,0,0,1,2.37.68l.85.27,3.1,1-2.25,2.34c-.22.24-.43.52-.64.79a6.59,6.59,0,0,1-2.75,2.38c-12.32,4.5-24,11-35.21,17.19-3.29,1.82-7,3.88-10.62,5.81-5.13,2.75-10.63,4.46-16.46,6.26-2.67.82-5.33,1.65-8,2.58l-4.25,1.49Z"/><path class="cls-3" d="M635.26,1483.38a65.17,65.17,0,0,1-11-.93l-6.46-1.11,6-2.68,14-6.26.5-.22c12.34-5.49,25.09-11.17,37.6-17,1.62-.76,3.24-1.67,4.8-2.54,4.36-2.44,8.88-5,14.5-5.16l3.32-.11-1.45,3c-5.4,11.09-15.31,19.8-29.46,25.88C656.53,1481,645.63,1483.38,635.26,1483.38Z"/><path class="cls-3" d="M667.31,1314.87c-6.8-12.41-13.41-24.47-20-36.54-3.05-5.64-6-11.23-8.76-16.63a9.24,9.24,0,0,1-.8-3c0-.33-.1-.67-.17-1l-.78-3.63,3.46,1.35,1,.34a11.88,11.88,0,0,1,2.85,1.22c20.49,13.26,31.26,30.62,32.94,53.07a33.89,33.89,0,0,0,.81,4.61c.8,3.64,1.71,7.76.2,12.69l-1.38,4.55Z"/><path class="cls-3" d="M619.9,948.85c-10.52,0-19.17-2.49-26.44-7.61l-3.63-2.56L608,934.36c17.88-4.25,36.37-8.65,55-13a14.58,14.58,0,0,1,3.25-.33c1,0,2,.07,3,.14s1.79.12,2.62.13l3.2,0-1.42,2.86c-.31.63-.61,1.26-.91,1.89l-.07.13c-.7,1.45-1.42,3-2.2,4.43-6.28,11.91-17.58,13.84-28.51,15.71l-2.17.37A116.93,116.93,0,0,1,619.9,948.85Z"/><path class="cls-3" d="M670.85,1343.42c-24.63-18.66-36.89-42.33-39.76-76.74l-.11-1.23,3.31-1,.57,1.09s30.4,58.76,39,75.32l.55,1.07-2.58,2.17Z"/><path class="cls-3" d="M653.07,1082a556.75,556.75,0,0,0-61.87-48.57l-3.67-2.48,4.28-1.11a23,23,0,0,1,5.9-.72c12.87,0,31,9.46,44.21,23,9.58,9.86,14.73,20,14.49,28.46l-.12,4.32Z"/><path class="cls-3" d="M593.32,927.1l.88-.77c16.09-14,34.44-21.71,51.67-21.71a53.87,53.87,0,0,1,23.51,5.26l5.21,2.5L594.8,930Z"/><path class="cls-3" d="M643.37,1088.74c-18.71,0-46-17.38-54.1-34.43A3.89,3.89,0,0,1,589,1053V1053c-.44-.61-.91-1.22-1.38-1.83-2.49-3.23-5.31-6.89-4.78-12.14l.31-3.11,2.7,1.59c1.34.79,2.75,1.56,4.11,2.31a69.15,69.15,0,0,1,9.37,5.82c5.51,4.32,10.89,8.94,16.09,13.42l.1.08c2.43,2.09,4.86,4.18,7.32,6.25,4.83,4.07,9.68,8.13,14.67,12.31l12.77,10.7-5,.31C644.61,1088.72,644,1088.74,643.37,1088.74Z"/><path class="cls-4" d="M617.05,438.05c-5.51,0-12.36-2.26-20.34-6.71-18.68-10.42-30.79-25-36-43.3l-.23-.82c-.35-1.26-.68-2.41-.83-3l-.38-1.47.22-.06c-1.3-13.57,3.79-18.89,8.37-20.95a15.7,15.7,0,0,1,6.5-1.42c6.51,0,12.37,3.92,17.72,8.16,16.57,13.09,25.6,30.61,26.86,52.07,0,.11,0,.24,0,.37v.13c.12,1.75,1.34,4.26,2.42,6.47,1.59,3.25,3,6.06,1.91,8.22a3.6,3.6,0,0,1-2.62,1.93A18.11,18.11,0,0,1,617.05,438.05Z"/><path class="cls-3" d="M615.63,744.49c-.25-.13-.51-.24-.77-.35a9.38,9.38,0,0,1-2.41-1.38c-11.28-9.5-21.05-20.68-30.5-31.5-2.58-3-5.25-6-7.93-9-4.45-5-8.89-10-13.37-15l-7.4-8.32,3-.9a26.64,26.64,0,0,1,7.55-1.06c12.41,0,26.69,8.22,33.22,19.11.68,1.15,2.33,3.88,2.33,3.88,7.26,12,14.78,24.45,18.46,38.68.24.92.38,1.83.52,2.71.06.34.11.68.17,1l.7,4Z"/><path class="cls-4" d="M596.47,538.18a10.64,10.64,0,0,1-4.2-1.18c-.42-.18-.8-.35-1.14-.47-13.64-4.68-30.61-10.51-42-24.24-6.84-8.23-13.91-16.74-14.12-28.93-.08-4.33.71-7.28,2.41-9a5.88,5.88,0,0,1,4.3-1.72,9,9,0,0,1,1.66.17c10.94.68,16.87,5.22,22.4,11.84a388.73,388.73,0,0,1,31.63,43.21c.31.48.72,1,1.15,1.65,1.71,2.36,3.19,4.41,2.1,6.23A4.71,4.71,0,0,1,596.47,538.18Z"/><path class="cls-3" d="M547.13,622.21c8-9.69,18.83-14.61,32.06-14.61,12.3,0,26.5,4.37,42.2,13l1.09.59-1.06,3.29-1.22-.14a223.76,223.76,0,0,0-26.51-1.46c-14.16,0-28.16,1-44.83,2.61l-4.82.45Z"/><path class="cls-3" d="M589.53,646c-9.6,0-19-1.6-27-3.17-3.65-.72-10.56-3.39-10.58-8.38a3.49,3.49,0,0,1,1-2.52,5.23,5.23,0,0,1,3.78-1.22A27.71,27.71,0,0,1,560,631a22.71,22.71,0,0,0,2.41.21l8.38-.08h.45c4.21-.05,8.48-.1,12.69-.1,11.32,0,24.69.32,38,2.7l5.25.94-4.57,2.74c-9.66,5.81-20.46,8.63-33,8.63Z"/><path class="cls-3" d="M611,758.23c-41.25-11.5-55.35-42.78-63.69-71.87l-.35-1.2,3.13-1.55.74,1c21.75,29.17,40.31,50.17,62.07,70.22l.86.8-1.62,2.91Z"/><path class="cls-3" d="M491.47,1400.2c.2-.35.38-.73.56-1.1a12.93,12.93,0,0,1,1.75-2.91c13.89-16.22,24.67-18.08,51.86-19.18a13.69,13.69,0,0,1,3.66-.46,37.68,37.68,0,0,1,8.24,1.27,41.62,41.62,0,0,0,8.19,1.32,4,4,0,0,1,2.69,1.52l.41.41,2.36,1.93-2.72,1.39c-.66.34-1.38.8-2.07,1.24-1.72,1.1-3.67,2.34-5.86,2.46a186.93,186.93,0,0,0-51.5,10.63c-1.56.55-3.12,1.16-4.63,1.74-2,.8-4.09,1.6-6.18,2.28a11.17,11.17,0,0,1-3.51.4h-.22c-.39,0-.77,0-1.16,0l-3.63.22Z"/><path class="cls-3" d="M515.26,1415.19a116.32,116.32,0,0,1-24.13-2.69l-1.16-.25-.08-3.34,1.15-.3c23.73-6.3,49.51-12.45,77.23-14.83l7.29-.63-6,4.25C552.81,1409.37,535,1415.19,515.26,1415.19Z"/><path class="cls-3" d="M470.27,920.94c20-18,40-35.94,60.61-54.45l3.39-3,0,4.54c-.32,33-44.67,56-62.56,56.43l-5.42.14Z"/><path class="cls-3" d="M463.43,912.81c0-.25-.07-.5-.12-.76a7.65,7.65,0,0,1-.14-2.73c3.62-21.4,38.56-50.93,61.28-51.81l5.43-.21-19.44,17.9q-13.79,12.7-27.55,25.34c-4.8,4.41-9.72,8.75-14.48,13a4.19,4.19,0,0,1-2,.9,2.21,2.21,0,0,0-.35.09l-2.35.77Z"/><path class="cls-4" d="M428.58,564.76a3.37,3.37,0,0,1-2.24-.7,4.1,4.1,0,0,1-.63-4.81,113.51,113.51,0,0,1,44.36-39.72,16.42,16.42,0,0,1,7.47-1.87c8.64,0,15.4,7.51,15.4,17.09,0,10.92-11.15,20.77-25.38,22.42A243.42,243.42,0,0,0,442.08,562l-.2,0c-3.79.86-7.71,1.74-11.59,2.53A8.4,8.4,0,0,1,428.58,564.76Z"/><path class="cls-4" d="M393.67,470.06c.27-.92.49-2,.69-3,.52-2.54,1.06-5.16,2.66-7.23a317.91,317.91,0,0,1,22.05-26.19c5.37-5.56,13.74-8.74,23-8.74,8,0,15.64,2.51,20.92,6.89,4.31,3.58,1.38,7.58,0,9.5-.22.29-.39.53-.55.76-11.43,16.6-28.1,26.2-49.54,28.54l-2.68.38c-1.67.25-3.4.5-5.14.71-2.29.26-4.61.47-6.86.68l-5.32.5Z"/><path class="cls-4" d="M425,1295.44a14.85,14.85,0,0,1-6.39-1.42c-6.62-3.16-4.34-11.52-3.11-16,5.45-20,14.83-37.15,27.87-50.9.77-.81,1.59-1.56,2.38-2.29l1.08-1,2.11-2,1.12,2.68c.26.64.59,1.3.91,1.94a15.78,15.78,0,0,1,1.87,5.29,71.64,71.64,0,0,1,.19,9c0,1.22-.06,2.44-.06,3.65.8,18.86-4.34,33.81-15.73,45.64A17,17,0,0,1,425,1295.44Z"/><path class="cls-3" d="M377.36,913.52c0-.22-.05-.46-.08-.7a4.49,4.49,0,0,1,.37-3.31c7.52-11.15,16.43-24.3,25.55-37.42,2.79-4,5.69-7.85,8.75-11.93,1.47-1.95,2.95-3.92,4.46-6l2.6-3.5,1,4.25c3.6,15.89-6,39.07-19.8,47.7-3.5,2.19-6.93,4.68-10.25,7.09-2.07,1.51-4.21,3.07-6.38,4.56a6.56,6.56,0,0,1-2.84.94c-.29,0-.58.09-.85.16l-2.41.61Z"/><path class="cls-4" d="M355.63,387.29h-.09c-2.31-.45-5.49-1.33-6.38-3.92s1.23-5.17,3-7.16a12.62,12.62,0,0,0,1.33-1.67c8.09-19.44,20.59-32.4,38.2-39.6a24.13,24.13,0,0,1,9.19-1.92,17.66,17.66,0,0,1,15.2,8.07c5.22,7.91-1.58,15.61-8.21,20.68-13.06,10-27.6,19.87-45.35,24.44a39.21,39.21,0,0,1-3.86.71c-.75.11-1.52.22-2.37.37l-.27.05Z"/><path class="cls-4" d="M406.64,1106.92q-4.75-4.1-9.5-8.21c-14.46-12.56-19.1-30.12-21.74-45.64a15.27,15.27,0,0,1,11.9-17.66,13.27,13.27,0,0,1,2.68-.28c7.23,0,10,6.41,12.5,12.08l.41.93c5.56,12.64,11.13,27.84,10.29,44.7l-1,18.88Z"/><path class="cls-3" d="M364,915.37c-4-14.79,4.54-35,14.81-48.39,9.38-12.28,20.42-19.6,29.54-19.6.44,0,.88,0,1.32,0l4,.31-2.69,3c-16.81,18.88-31,40.14-43.29,65l-2.34,4.72Z"/><path class="cls-4" d="M339.06,1327.88a12.47,12.47,0,0,1-8.4-3.18c-3.53-3.06-3.55-6.72-3.56-9.66,0-.72,0-1.46-.06-2.15-.24-13.79,6.72-24.1,14.5-34.32,1.43-1.88,2.72-4,4-6,2.64-4.25,5.36-8.64,9.77-12,.34-.26.68-.54,1-.82,1.87-1.49,3.81-3,6-3a4.13,4.13,0,0,1,3,1.32c2.62,2.7,3.34,7.78,2.9,11.36-1.59,13.08-3.39,27.91-9.25,41.93C354.82,1321.25,346.82,1327.88,339.06,1327.88Z"/><path class="cls-3" d="M319.12,806c-20.47,0-35.24-12.52-49.51-24.63l-1-.88A5.92,5.92,0,0,1,267,778c-.1-.26-.2-.49-.31-.71l-1.3-2.45,2.75-.45c.2,0,.42-.1.63-.16a6.88,6.88,0,0,1,1.91-.34,3.49,3.49,0,0,1,1.08.16l.57.18c21.11,6.77,42.95,13.76,64.37,20.87,2.3.77,5.36,2.07,5.31,4.58,0,.85-.44,2.39-3.09,3.17a17.76,17.76,0,0,0-1.9.75,14.3,14.3,0,0,1-3.45,1.18c-2.28.38-4.55.54-6.76.7-.89.06-1.79.12-2.69.2A50.26,50.26,0,0,1,319.12,806Z"/><path class="cls-4" d="M323.6,1148.82l-1.19-.53-.16-.07c-1-.44-2-.88-2.94-1.39-16.4-8.63-28.28-23.2-37.39-45.86a14.59,14.59,0,0,1,.1-11.37,14,14,0,0,1,8.72-7.25l.8-.27.75.39c7.65,3.94,14.23,10.35,20.11,19.59,6.86,10.78,11.32,23.36,13.64,38.46a37.56,37.56,0,0,1,.32,4.43c0,.65,0,1.3.08,1.94l.19,3.34Z"/><path class="cls-3" d="M241.43,887.18c15.48-12.23,33.4-19,50.72-25.54,6.91-2.61,14-5.29,20.8-8.26a5.32,5.32,0,0,1,2.15-.46,3.94,3.94,0,0,1,3.48,1.8,4,4,0,0,1-.17,4.1c-8,14.65-19.66,23.71-36.66,28.49-8.18,2.31-16.28,2.47-24.11,2.62a144.25,144.25,0,0,0-14.73.81l-7.08.87Z"/><path class="cls-4" d="M284.32,649.38a57.67,57.67,0,0,1-27.43-6.52c-11.72-6.15-10.1-18-9.57-21.89.75-5.47,4.53-8.24,11.24-8.24.92,0,1.93,0,3.07.15h.08l.08,0c19,3.66,35.75,7.92,47.78,23,2.24,2.8,1.76,5.2,1.38,7.13-.08.37-.15.72-.2,1.07-.27,1.87-2.19,2.17-4.42,2.53-.49.08-1,.15-1.35.23A96.18,96.18,0,0,1,284.32,649.38Z"/><path class="cls-3" d="M236.74,879a3.6,3.6,0,0,1-2.75-1.37c-1.59-1.76-.18-5.25.67-6.4,15.68-21.2,37.47-32,64.77-32a9.84,9.84,0,0,1,4.76,1.71,18.26,18.26,0,0,0,1.68.89l4.42,2-4.53,1.71c-21.75,8.21-44.69,17.7-65.15,31.42-.24.16-.47.36-.7.54A5,5,0,0,1,236.74,879Z"/><path class="cls-4" d="M281.6,322.7c-3.05,0-4.08-2.91-4.83-5a9.36,9.36,0,0,0-1.11-2.46c-14.14-16.24-20.77-33.94-20.87-55.71-2-13.84,6.51-23.74,24.06-27.88a8,8,0,0,1,1.75-.2c5.55,0,8.84,6.08,9.71,8,5.5,11.8,3.79,23.91,2.14,35.62-.29,2.08-.58,4.09-.83,6.1l-.4,3.32c-1,8.54-2.11,17.38-4.22,26a15,15,0,0,0-.14,3.63c.1,3,.23,6.72-3.2,8.2A5.35,5.35,0,0,1,281.6,322.7Z"/><path class="cls-4" d="M279,571.73c-1.85,0-3.72-.11-5.52-.21l-1,0c-16.74-.89-29.45-4.84-40-12.43-5.42-3.9-7.84-10.39-7-18.78.45-4.55,4-9.14,11.06-9.14a14.1,14.1,0,0,1,1.43.07H238l.1,0c15.44,3.53,28.43,13.35,41,22.86l.64.48c.78.58,1.61,1.21,2.42,1.91a41.63,41.63,0,0,0,3.49,2.54c3.26,2.21,6.07,4.12,6.3,6.47a3.16,3.16,0,0,1-.92,2.55C287.81,571.31,282.9,571.73,279,571.73Z"/><path class="cls-3" d="M344.41,790.29l-71.74-22.66-4-1.25,3.46-2.32c3-2,7.33-3,12.95-3,17.76,0,47.33,10.68,61.37,26l5.06,5.51Z"/><path class="cls-4" d="M256.65,476.93c-3.58-.49-7.23-.86-10.77-1.21-15.83-1.58-30.76-3.07-42.55-15.3l-1.21-1.23c-3.46-3.43-8.14-8.09-6.24-15.15,2.51-9.33,7.68-11.29,11.57-11.29,4.91,0,9.83,2.94,13.43,5.09l.55.33c12.95,7.73,27.58,17.56,37.82,31.93a14.25,14.25,0,0,1,1.26,2.3c.13.3.27.59.41.87l1.05,2.05-2.92,1-1.4.49-.49.19Z"/><path class="cls-4" d="M243.07,1202.89a39.72,39.72,0,0,1-4-.26h-.13l-.12,0-5.12-1.4c-15.39-4.2-32.84-9-44.74-24.76-3.91-5.2-4.12-10.65-.56-14.57a12.49,12.49,0,0,1,9.66-4,23.93,23.93,0,0,1,8.56,1.8c19.64,7.87,33.09,19.28,41.12,34.89.9,1.75,2,4.3.75,6.28S245,1202.89,243.07,1202.89Z"/><path class="cls-4" d="M179.14,1336.85a34.87,34.87,0,0,1-17.2-4.84c-5.7-3.42-8.86-7.84-8.89-12.46v-.19c.83-6.6,6.29-9.35,11.1-11.77a34.28,34.28,0,0,0,6.34-3.78c10.71-8.85,23.52-13.51,35.91-18a206,206,0,0,0,20.44-8.27,5.94,5.94,0,0,1,2.7-.57,9.67,9.67,0,0,1,3.67.75c2.53,1.11,1.57,5.94,1.56,6-7.45,31.13-24.43,48.42-51.92,52.86A23.28,23.28,0,0,1,179.14,1336.85Z"/><path class="cls-4" d="M224.07,376.92a7.1,7.1,0,0,1-1-.08c-39.92-6.51-52.51-23.83-59-38.19-2.09-4.61-2.26-8.51-.48-11.28s5.2-4.1,10.25-4.1c1,0,2.12.06,3.28.17h.17l.21.06c7.33,2.44,15.95,10.16,20.44,14.55,8.43,8.26,16.74,16.87,24.78,25.19l4.39,4.55a18.41,18.41,0,0,1,2.55,3.64c.3.52.59,1,.89,1.47l1.65,2.55-3,.51c-.49.08-1,.23-1.57.36A14.16,14.16,0,0,1,224.07,376.92Z"/><polygon class="cls-2" points="6 8.83 58 60.83 58 1619.17 6 1671.17 6 8.83"/><path d="M561.59,383.73c.18.69.61,2.22,1,3.76,5.46,19.2,18.19,32.7,35,42.1,6.8,3.79,15.72,7.59,22.56,6.14,4.43-.94-2.92-9.19-3.29-14.54,0-.17,0-.34,0-.5-1.21-20.74-9.92-37.84-26.1-50.62-6.18-4.89-14-10.19-22.16-6.49-5.61,2.53-8.42,9-7.06,20.23ZM1024,8V1672a8,8,0,0,1-8,8H8a8,8,0,0,1-8-8V8A8,8,0,0,1,8,0H1016A8,8,0,0,1,1024,8Zm-8,1658.34V13.66l-48,48V1618.34ZM962.34,56l48-48H13.66l48,48H962.34ZM13.66,1672h996.68l-48-48H61.66ZM960,1616v-74.86c-6-4.9-12-9.79-17.61-15-17.17-15.9-37.71-27.37-56.39-41.3-4.94-3.68-8.15-.34-11.51,1-13.65,5.35-27.13,11.17-40.5,17.2-7.69,3.47-6.17,13.44-12.55,18.45-20.66,16.22-42.65,28.82-70.06,25.33-8.4-1.07-16.62-4.84-24.51-8.31-8.69-3.81-2.64-11.35-1-15.12,8.36-19.64,24-29.42,45.32-32.82,17-2.71,32.6.07,48.91,3.67,6,1.31,13.52-4.6,20.35-7.22,8.6-3.3,17.16-6.74,25.83-9.87,5.72-2.07,3.13-3.84.09-5.84-23.29-15.34-48.24-27.86-73.67-38.89-12.87-5.58-26.3-13.27-39.84-14-9.17-.53-18.41,11-28.55,14-15,4.51-14.65,19.89-23.36,28.82-11.6,11.91-24,21.16-40,25.88-16.53,4.89-32.55,6-48.83-1.7-7.73-3.68-4.58-11.94-3.91-14,4.74-15,13.66-26.63,28.37-34.74,19.19-10.58,39.66-13.56,59.51-8.84,17.41,4.14,25.5-9.77,38.57-13,.65-.16,1-1.54,1.48-2.35-.72-.24-1.43-.55-2.17-.72-29.12-6.78-58-15-88-17.16a426,426,0,0,0-57.49-.76c-5.38.34-10.15,8.39-15.43,12.61a77.14,77.14,0,0,1-41.75,16.54c-14.52,1.31-29.08,1.94-43.48-3.46-9.65-3.61-7.39-11.82-5.82-16.14,6.46-17.89,19.9-31.1,38.53-33.58s40.26-6.13,56.37,4.11c23.34,14.83,47.76,2.77,71.05,8.77,16.62,4.27,34.38,3.64,51.18,8.2,1,.29,2.26-.12,3.4-.21-.22-1-.12-2.3-.71-3A233.23,233.23,0,0,1,681.7,1359c-4.13-6.74-13.54-4.32-20-9.15-16.5-12.33-25.73-29-32.67-47.38-5.82-15.4-5.26-31.29-2.12-47.25,2-10.12,10.36-11.76,24.19-3.42,20.63,12.44,31.21,31.14,34.17,55.08,2.33,18.92-3.85,39.68,11.54,56.11,8.07,8.61,12.42,19.34,17.05,30.16,1.64,3.84,12,4,18.37,5.75,15.44,4.2,30.75,8.66,45.48,15.07,19.12,8.33,38.46,16.15,59.46,24.92-6.19-6.31-5.95-13.39-8.23-19.53-3.21-8.64-13-7.51-18.7-13.58-18.85-20-29.81-41.93-25.91-69.8.62-4.4-.33-9.4,3.34-13.1,4.6-4.66,3.49-18,14.45-12.35a57.75,57.75,0,0,1,16.9,13.11c12.06,13.9,19.19,30.12,23.2,47.45,2.9,12.55,3.41,25.48-2.37,38.43-4,9,3.54,17.71,5.95,26.55,4.76,17.41,22.14,20.24,33.91,29.53,16.57,13.08,34,25.2,51.34,37,10.68,7.23,19.76,16.11,29,24.82V1423c-13-14.21-25.69-28.61-38.36-43.06-27.16-31-53.88-62.33-81.35-93C816.67,1260.51,793,1234.07,768,1209c-18.75-18.75-34.81-40.4-56.51-56-9.9-7.1-22.92-8.34-34.66-9.58-26.71-2.84-53.57-6.48-80.51-4.27-22.84,1.87-45.48,5.21-67.72,11.37-18.24,5.05-36.93,8.49-55.46,12.44-7.66,1.63-11.56,4.92-12.25,13.78-.76,9.71-4.59,19.17-7.11,28.73-1,3.88-1.1,7.39,1.2,11.13,10.61,17.21,6.49,35.35,3.25,53.56-2.3,13-9.72,22.94-19.33,30.38-8.53,6.58-21.59,8.39-28.4-.29s-4.16-21.17-.86-32.56c5.94-20.49,21-35,31.27-52.64,6.64-11.42,8.25-25.78,12.05-38.85.65-2.21,1-4.52,1.58-7.3-22.64,7.45-45.23,14.54-67.42,22.71-2.46.91-3,7.91-3.86,12.2-2.93,14.74-8.63,28.57-13.61,42.64-2,5.6,3.41,9.7,4.08,15.36,1.56,13.15,1,25.82-2.84,38.14-4.1,13.26-7.72,27-21.61,34.74a20.72,20.72,0,0,1-17,1.59c-7-2.34-12.66-8.26-13.19-16.37-2-31.66,18-51.32,38.24-71.43,6-5.92,9.52-15.75,11-24.33,1.7-10.07,6-19.12,8.27-29.06-22,11.36-44.17,22.12-65.64,34.06-14.44,8-28,17.65-41.85,26.74-8.3,5.45-17.14,10.44-24.25,17.21-5.1,4.85-2.11,13.27-3.24,20C236.2,1325,203.21,1351,170.85,1347c-13.78-1.73-24.72-8.43-29.46-22.21-2.87-8.35,3.11-15.25,8.36-19,17.7-12.81,35.31-26.31,57.63-30.82,7.93-1.6,16-6.55,23.46-5.6,13.85,1.75,17.95-9.83,26.16-15.57s15.13-12.81,23.22-18.45c3.09-2.16,1-2.11-.1-3-5.72-4.84-11.83-9.29-17.11-14.57-6.82-6.82-15.85-7.33-24.11-8.29-20.15-2.33-38.26-9.53-53.05-22.77-7.89-7.07-12.89-17.86-6.29-29.18,4.92-8.43,21.31-10.89,31-6,15.59,7.91,30.31,16.78,40,31.94a108.37,108.37,0,0,1,7.29,13.61c6.79,14.92,22.49,20.09,33.43,30.46.76.72,5.21-2.29,7.85-3.75q27.66-15.35,55.31-30.71c.79-.43,2-.14,4.16-.25-15.4-11.69-26.28-27.1-40.29-38.28-10.46-8.35-20.47-17-30.48-25.89-13.42-11.9-18.25-36.63-8.67-51.31,4.18-6.41,18.06-3.75,25.78,4,17,17,27.81,37.26,27.66,61.06-.12,19,15.63,25.29,23.48,37.77,7.74,12.3,14.72,5.39,23.08,2.62,16.22-5.4,31.8-12.78,48.78-15.92,2.32-.43,5.46-.89,3.19-5.61-7.21-15-12.26-31.26-21-45.28-4.9-7.91-15.8-11.86-23.21-18.48-16.9-15.09-23.26-42-13.73-62.05,4.78-10.06,21.83-12.47,30.37-2.15,8,9.7,12,22,13.51,34.75,3.53,29.36,4.3,58.61,20.49,86,8.95,15.12,14.9,3,20.56,2.2,14.16-2,27.69-8.15,41.8-11,26.38-5.25,52.32-12.3,79.42-14.75a401,401,0,0,1,80.3,1c12.89,1.42,26.36,1.87,36.62,9.19C683.7,1126.84,672,1112.11,658,1100c-3.74-3.24-14.07-1.2-21.33-2.6q-42.71-8.25-59.56-48.22a56.65,56.65,0,0,1-4-15.46c-1.73-15.43,12.43-11.19,18.63-11.91,15.91-1.84,32.34.41,44.54,12.71,15,15.09,29.46,30.29,29.4,54.32,0,7.67,10.43,11.4,16.17,16.84,6,5.68,12.19,11.2,18.27,16.76,3.51-8,7.88-16.07,10.55-24.68,1.91-6.13-5.15-10.11-6.33-16.58A68.08,68.08,0,0,1,707,1045c5.6-15.75,13.38-30.33,27.56-40.08,6.93-4.76,14.65-11.35,23.58-6.89,11.36,5.66,14,16.34,13.18,28.67a85.84,85.84,0,0,1-17.52,47.4c-4.34,5.72-9.28,11.43-16.86,14-14.05,4.75-15.31,19.24-22.3,29.52-8.34,12.28-1.68,20,6,26.28a347.62,347.62,0,0,1,41.68,41.23c7.81,9.06,12.51,16.2,19.49-2.26,5.22-13.83,3.24-25.44,1.53-38.51-2.19-16.84,4.56-31.39,14-45.16,6.12-8.9,14.54-13.81,23.58-18.79,7-3.86,13.92-1.86,18.69,1.24,6.45,4.19,5.94,13,6.6,20.44,1.71,18.92-8.37,33.46-20,45.87-5,5.37-11,12.48-20.92,13.77-6.89.89-6.86,10.63-9.94,16.28-4.61,8.44-7.13,18-11.24,26.73-.93,2-.21,1.86.58,2.71,19,20.21,38.13,40.22,56.75,60.74,9,9.88,15.92,21.72,25.49,30.88,16.39,15.67,29.63,34,44.69,50.72,16.37,18.22,32.8,36.42,48.33,55.38V1195.11c-2.54-3.28-5.09-6.57-7.62-9.86-13-16.83-26-33.65-38.82-50.55-17-22.4-34.3-44.66-50.91-67.39-14.58-20-29.87-39.45-45.07-58.83C804.7,992,791.83,975.16,777.11,960c-13-13.44-25-28-37.93-41.53-9.13-9.55-17.54-3.85-26.24-3.17-9.23.72-18.32,3.1-27.52,4.46-2.61.38-3.87,1.57-4.31,3.86-2.76,14.28-17.2,27.77-32.9,30-14,2-27.56,5.2-41.47,1.41a73,73,0,0,1-30.51-16.36c-2.69-2.48,2-8.1,4.56-11,20.12-23,45-35.16,76.11-30.4,6.25,1,12.92,2.32,18.65,6.89,10,7.94,21.56,2.59,32.49,2,4.82-.27,9.61-1.17,14.87-1.84-11.22-12.79-25-22-38.63-31.47-11.3-7.81-21.6-17.12-33.2-24.39-16.39-10.28-33.19-20.13-50.75-28.14-3.47-1.58-11.39,5.67-16.82,9.47-12.82,9-25.33,18.34-38.07,27.4-3.68,2.62-4.85,5.74-4.45,10.2,2.26,25.39-14.34,39-32.44,51.8-12.09,8.57-25.39,13.39-40.06,13.82-15,.45-18.91-5.54-15.11-20.14,7.6-29.15,26.41-48.42,53.36-59.7,7.65-3.2,16.78-4.93,25.81-2.53,2,.54,5.24-1,7.11-2.56,14.9-12.37,31.88-21.61,47.91-32.1-19.23-8.78-40-12.53-60.52-14.15-23.32-1.86-48-1.9-69.58,7.75-10.86,4.86-16.78,19.9-26.3,28.87-10.64,10-2.94,21.17-3.88,31.65-1.79,20.14-15.44,31.73-29,43.7-9.86,8.72-22.46,12.83-34.35,16.49-10.19,3.15-9.22-8.76-9.46-14.5-.86-19.94,2.8-38.74,17.91-53.74,12.68-12.57,25.91-23.14,45-24.13,3.34-.18,6.3-6.91,9.5-10.56,4.64-5.3,9.33-10.56,15.12-17.1-21.55,6.84-42.08,13-62.34,19.89-15,5.13-29.57,11.72-44.63,16.76-9.22,3.09-8.32,11.81-11.44,18C314,884,298.07,893,277.89,897.23c-12.89,2.68-25.5,2-38.11-.31-7.68-1.39-16.68-4.77-18-12.45-1.63-9.38,3.92-18.51,10.59-25.44,22.6-23.47,49.83-34.16,81.95-24.8,15.54,4.54,25.42-6.53,38.06-9.7,7.41-1.86,14.37-5.53,21.52-8.44a41.46,41.46,0,0,0,3.67-1.93,33.18,33.18,0,0,1-3.39-1.19c-4-1.93-8.05-3.87-12-5.92-13.39-6.92-23.12,6-35.52,6.46-21.23.75-38.22-5.76-54.55-19.49-8.87-7.45-14.68-17.15-23.35-24.57-3.81-3.26,2.17-8,6.33-9.85,24.34-11,48.73-7.72,72.34,1.73,10.1,4,19.43,11.43,24.12,21.76,6.83,15,21.62,17.35,33.94,23.84,10.62,5.59,19.11-2.65,28.54-4.31,13.61-2.39,26.84-6.94,40.44-9.38,5.73-1,11.35-1.36,16.25-4.8-3.63-3.86-7.39-7.61-10.87-11.59-15.08-17.29-27.26-36.48-38.24-56.6-10.36-19-20.13-38.18-29.53-57.64-2.1-4.35-14.27-3.93-21.84-5.52-15.92-3.36-31.77-7.7-47.88-9.32-6-.6-13.29,3.86-19.58,6.51-21.14,8.91-53.47-.87-62.7-20.64a20.05,20.05,0,0,1,1.9-20.23c3.75-5.07,8.66-8.81,17-7.91,24.33,2.61,45.77,9.16,59.53,31.5,3.12,5.06,9.5,1.56,14.32,2.66,16.43,3.75,33.11,6.49,49.78,9.1,4.06.64,2.43-3.23,1.74-5-6.72-16.56-13-33.35-20.79-49.39-3.22-6.61-12.46-4.8-18.82-7.06a383.44,383.44,0,0,0-43.56-12.57c-4.86-1.1-10.63,1.1-15.83,2.42-16.37,4.15-31.57.23-46.87-5.47-13.88-5.18-21.31-14-21.76-29.19-.22-7.43,2.74-14.51,7.79-16.83a29.32,29.32,0,0,1,24.38.19c17.41,8,33.72,18.22,46.41,32.31,12.49,13.86,30.29,9.6,44.47,16.67,2.14,1.06,4.63,1.36,6.9,2.17,3.58,1.28,7.22,6.16,10.43,3,1.47-1.45-.85-7.71-2.55-11.25-6.07-12.68-11.94-25.56-14.26-39.39C335.84,502.82,315,497.19,294,491c-7.17-2.11-13.85-6.64-21.07-7.59-10.15-1.33-20.72.66-30.89-.56-17.61-2.12-35.58-4.19-47.76-19.94-5.66-7.31-8.89-15.32-6.33-24.3,2.36-8.31,8-14.14,17.44-13.58,14.1.84,24.37,9.84,36,16.63,14.48,8.47,19.91,26.72,35.22,32.44,16,6,32.84,9.77,48.7,16.41a3.23,3.23,0,0,0,1.28,0,7.09,7.09,0,0,0-.11-2.27c-9.83-24.47-16.6-49.89-23.71-75.24-2.43-8.64-12.68-7.93-19.09-11.31-14.72-7.75-31-12.55-46.18-19.48-3.75-1.7-5.36.59-8,.84-21.72,2-58.08-12.92-70-34.16-4.95-8.8-6.88-18.52-2.47-28.59,2.41-5.48,19.64-6.6,26.23-2.92,21.06,11.73,36.19,30,51.55,47.52,12,13.73,29.34,13.87,43.32,22,5.66,3.28,11.7,5.91,17.58,8.82.83.41,1.69.75,2.54,1.13.24-1.05.89-2.2.65-3.12-5.25-20.3-7.71-42.07-17.1-60.26-5.08-9.83-17.32-18.05-23.87-28.74-12.49-20.37-21.76-55.92-1.14-74.29,7-6.26,15.53-10.4,24.3-8.76,11,2,17.34,9.1,20.65,21.47,5.63,21.05.44,40.79-4.16,60.22-5.11,21.56-2.54,41.4,4,61.76,4.54,14.11,7.72,28.65,11.61,43a25.61,25.61,0,0,0,2.29,4.6c1-.9,2-1.84,3-2.69,7.1-5.77,14.45-11.26,21.26-17.37,6.3-5.64,3.81-14.51,7-21.66,8-18.08,34-49.54,57.58-46.14,10.72,1.55,18.29,7.46,22.24,16.57,3.19,7.34-2.43,14.15-6.83,19.66-14,17.47-34.58,25.87-54.34,32.92-9.52,3.4-20.45,2.6-28.41,11-5.91,6.25-14.25,11-17.91,18.27-2.13,4.22,2.63,12.09,4.62,18.21,5.74,17.74,11.46,35.49,17.58,53.1,2.41,6.94,5,12.33,13.47,3.73s19.35-15.13,28.79-23c5.58-4.65,2.16-12.43,5.39-18.37,12.81-23.51,35.38-41.08,61.11-41.69A23.61,23.61,0,0,1,471,427.37c5.61,9.85.72,16.49-5.73,24.83-16.91,21.87-40.79,27.64-65.39,29.16-14.76.92-20.36,12-30.4,18-3.17,1.87-5.63,5-8.82,6.8-17.17,9.8-7.55,22.34-3.33,33.94,6.2,17,13.11,33.79,19.68,50.67.36.92-.09,3.08,1.77,1.62,11.95-9.38,25.19-17.63,35.24-28.75,9.48-10.49,15.86-23.84,26.85-33.38,10.24-8.9,21.25-17.31,34.37-20.42,6.27-1.5,15.05.33,20,6.83,4.57,6.07,7.94,12.11,6.22,21.11-3.8,19.77-18.47,22.73-34.33,26.84-16,4.14-32.14,6.57-48.38,9.23-7.28,1.19-13.15,10.55-19.86,15.95a81.43,81.43,0,0,1-9.61,6.11c-13.61,8.11-2.84,17.56-.1,25,6,16.19,14.63,31.36,21.69,47.18a526.65,526.65,0,0,0,33.81,63.06c11.34,18.25,22.5,36.61,34.27,54.58,5.1,7.8,13.34,1.36,18.45.42,14.12-2.59,27.63.28,41.22,1.21,13.4.92,26.87,4,39.82,7.79,32.05,9.44,60.93,25.54,88.35,44.37,3.86,2.65,7.79,5.2,11.72,7.74a14.86,14.86,0,0,0,2.57,1c.06-1,.51-2.12.13-2.85-7-13.47-5.22-30-12.69-42.45-5.13-8.59-16-14.5-25.42-19.51a50.42,50.42,0,0,1-15.34-12.8c-8.88-11.18-20.62-3.13-30.41-7.25-20.71-8.69-36.3-22.42-46.24-42.27-6-12-11.48-24.53-10.06-38.54.48-4.63-1.81-12,8.72-8.54,3,1,8.79-4.65,14.46-5.25,22.07-2.35,41.18,21.43,48.93,36.53,5.89,11.49,12,22.8,15,35.49.07.29.59.55.56.78-3,21.15,16.2,25.4,27.31,35.78,3,2.82,6.42,5.26,9.65,7.87-.26-4.91.18-10-.91-14.71-4.54-19.58-1.78-39.72-4.44-59.19-2.71-19.9,3.22-40-3.28-59.5a1.52,1.52,0,0,1-.06-1c9.18-20.34-8.13-15.4-16.72-16.1-5.12-.41-6.55,8.32-12.28,11.17-23.12,11.5-47,12.24-70.77,4.53-9.17-3-19.7-9.23-20.77-20-1.2-12.1,9-19.48,18.16-25.31,18.72-11.9,37.46-6.36,56.36,1,14.37,5.57,25.57,18.19,42.15,18.68,3.16.1,5.92,1.14,6-4.18.14-10.52-1.4-21.1,1-31.6,1.55-6.64-5.45-5.5-8.39-8-14.67-12.37-28.9-25.43-44.67-36.23-7.22-4.95-18-1.44-27.13-4.47-20.18-6.7-36.12-18-47.14-36.4-6.84-11.42-11.52-22.26-2-34.57,7-9,15.79-7.26,23.69-3.51,22.81,10.83,34.09,32.72,46.08,52.88,13.64,22.95,35.43,36.17,55,52.27a6,6,0,0,1,1.49,2.58c.74,2,1.24.35,1.95,0,3.94-2,.5-4.51.62-6.77,1.46-26.4,2.26-52.85,4.83-79.14,1-10.27-5-14.33-10.85-19.34-6.34-5.38-14.51-9.22-19.33-15.64C626,441.63,613.7,444,603.17,441.45c-10.93-2.65-37.76-23.68-42.68-33.82-4.11-8.5-9.16-16.3-9.58-26.08-.45-10.33,2-19.8,10.32-26.25,11.16-8.62,22.11-2.59,31.64,3.26,21.86,13.42,32.67,34.37,33.88,59.34,1,20,15,28.59,28.26,38.63l10.1,7.65c1.24-5.25,4.11-10.73,3.42-15.71-2-14.37,2.52-28.09,2.7-42.23a250.05,250.05,0,0,1,3.92-39.63c2.26-12.83-8.61-19.76-11.74-30.25-7-23.66-9.39-62.87,13.65-82.88,12.33-10.72,31.73-12.53,38.46-.31,6.32,11.48,5.77,25.4,2.69,37.65-5,20-12,40.09-25.34,56-16.51,19.77-9.53,42.5-11.83,64.12-1.11,10.45-4,21-3,31.27.78,7.72-2.44,15-.59,22.95,16.81-9.53,34-17.93,49.58-28.63,8.53-5.85,13.8-16.23,21.62-23.39,13.39-12.26,26.91-23.57,46.46-26.87,16.45-2.77,27.86.49,36.35,14.45,4.2,6.9,1.45,14.11-2.86,18.47-11.9,12-25.16,21.84-43.23,24.26-10,1.33-20.11,5.73-30,3.3-25.14-6.18-40.73,13-60.44,21.14-2.88,1.19-5.38,3.61-8.32,4.29-16.34,3.8-11.21,16.77-11.73,27.14-.84,16.64-1.28,33.29-1.87,49.94-.09,2.68-.47,4.56,3.59,2.34,22.56-12.38,42.94-27.4,62.32-44.51,15.31-13.52,32.95-25.71,55.57-24.16,13.05.89,24,6.39,28.19,19.11,3.93,11.81-4.5,28.13-16.76,32.51-25.79,9.2-52,8.74-78.49,1.75-4.21-1.11-10.19,3.33-15,5.89-11.51,6.12-22.63,13-34.26,18.87C670.57,565,673,572,672.54,577.56c-1.16,13.59-.9,27.29-1.54,40.93-.18,4,1.5,5.81,4.68,4.28,19.08-9.2,38.42-17.75,57.89-26.11,11.26-4.83,19-17,31-22,18.73-7.83,37.68-12.78,55.93,1,5.25,4,9.29,9.91,8.3,16.71-1.52,10.48-8.93,16.78-18.33,20.76-16.43,6.95-34.58,8.36-50.4,3.11-25.65-8.5-47.11-1.78-69,9.76-4.57,2.41-10.14,2.9-14.73,5.27-10.77,5.56-4.27,15.61-4.91,23.47-1,12.36,1.1,24.71.2,37.35-1.15,16.18,1.72,32.67,3.15,49,1.17,13.38,2.22,26.81,4.32,40.06,3.79,23.92,9,47.52,17.11,70.48s31.09,31,45.73,47.32c3.79,4.21,8.24,7.83,12.39,11.73.12-7.46,2.09-15-1.22-22.32-4.25-9.46-3.14-19.95-2.73-29.56.6-14-9.52-19.49-16.61-27.84-10-11.82-16.06-25.42-19.13-40.81-3.92-19.71-1.68-38.48,4.09-57.42,3.89-12.79,24.09-18.64,34.68-9.47,24.27,21,29.67,48.76,24.88,78.24-2,12-6.49,24.84-16.21,34.71-2.66,2.71-2,10.11-.86,14.89,3.52,15,2.31,30.43,5.08,45.6,1.71,9.4,1.46,19.81,2.18,29.75.4,5.66,6.81,7,10,10.78,9.66,11.65,19.75,22.93,29.44,34.09,5.54-19.52,9.92-40.06,17.4-59.38,4.69-12.09-6.34-15.25-9-22.88-6.5-18.63-6-37-3.41-55.78,2.61-19.08,22.21-49.49,43.69-54.53,9.44-2.22,18.9,7.37,20.59,18.66,2.53,16.88,3,33.89-.65,50.23-3.2,14.56-9.07,29.31-21,39.29-15.63,13-20.85,30.33-24.73,49.11-3.2,15.53-8.66,30.58-12.35,46-1.85,7.72,7.2,9.54,10.26,15,7.5,13.3,18.08,24.62,27.15,36.83,10.22,13.74,20.93,27.39,31.56,41,15.61,19.92,30.47,40.42,45.64,60.69,9.25,12.37,17.41,25.48,26.9,37.75V64H64V1616ZM844.9,883.52c24.45-29,25.58-60.5,17.36-93.63C860.08,821.23,850.39,851.27,844.9,883.52Zm8.36-88.38a6.77,6.77,0,0,0-.11-1.94c-.64.1-1.41,0-1.89.32a57.37,57.37,0,0,0-22.13,30.34c-7.22,22.88-9.27,45.94,1.44,69,1.5-7.55,2.77-15.07,4.53-22.47C841.07,845.32,847.21,820.24,853.26,795.14ZM808.64,1148.3c16.16-14.52,31.82-29.16,26.16-55.31Zm23.16,247c7.89-10.57-7.63-54.14-24.18-70.4A442.56,442.56,0,0,0,831.8,1395.28ZM817.08,413.8c3.24-4.09,5.29-7.72.21-12.64-7.81-7.57-16.45-5.89-25-3.35-20.61,6.12-36.14,19.38-48.58,35.95,8.3,6.6,17.22,2.05,25.44.8C786.67,431.91,804.83,429.24,817.08,413.8ZM806.5,602.31c4.72-1.59,11.56-4.89,8.66-12.72-3.69-10-12.06-11.22-21.25-10.45-14.71-1.24-26.83,5.54-39,12.48-4.24,2.41-9.08,5.7-9.21,9.7-.13,3.73,5.87.3,8.76,1.94a2.89,2.89,0,0,0,.87.48C772.5,606.57,789.77,607.94,806.5,602.31Zm6.08-92.73c1-4.25-3.35-7-5.9-10.1-4.37-5.38-10.67-4-17.42-5.05-19.51,1-34.75,13.44-50.46,24.82-2.34,1.69-7,6.33-4.18,7.1,10.24,2.74,21.3,5.17,31.64,4,10.7-1.19,22-.69,32.29-5.36C805.6,521.8,810.77,516.89,812.58,509.58Zm7.81,889c-8.39-24.94-18.45-49.16-22.24-76.38C789.76,1352.66,798.58,1382.15,820.39,1398.53Zm-19,104.08c-.65-.49-1.28-1.4-1.94-1.42-23.82-.76-46.8.85-62.82,24.11,2.9-.45,4.9-.47,6.69-1.09q27.53-9.59,55-19.37A13.62,13.62,0,0,0,801.37,1502.61Zm-6-352.94,30.09-60C811.87,1093,790.5,1119.83,795.41,1149.67Zm23.31,359.82-78.43,24.65C770.4,1543.31,793.66,1530.92,818.72,1509.49ZM762.66,817.23c3.75-14.09,7.81-28.06,6.42-43.07s-14.45-43.1-30.62-46.29c.88,3.35,1.9,6.58,2.58,9.87,2.28,11.11,4.39,22.25,6.65,33.36q4.62,22.75,9.42,45.49c.35,1.68-1.53,4.61,1.34,4.77C759.82,821.43,762.21,819,762.66,817.23Zm-15.45,248.48c11.73-12.86,17.62-44,9.76-59.59,1,12.64-5.46,20.72-8.73,29.88s-7,18.46-10.3,27.75c-1.74,4.87-3.07,9.88-4.58,14.83,3.3-2.57,6.72-5,9.85-7.76C744.81,1069.42,745.76,1067.31,747.21,1065.71ZM744,1020.19c2-3.07,2.39-7.21,4-12.55-3.64,1.54-4.94,1.7-5.63,2.44-17.67,18.9-30.55,39.78-27.25,67.17.11.93,1,1.78,1.5,2.66a15.32,15.32,0,0,0,2.27-2.66C728.65,1058.86,732.42,1037.85,744,1020.19ZM746.16,830c-5.69-34.53-10.8-65.55-16.11-97.82C719.89,766.72,720.68,798.44,746.16,830ZM706.93,282.84c0-7.25,1-10.46-.19-12.46-2.53-4.38,1.35-13.95-7.22-13C686,259,677.38,269.29,673.51,281c-5.11,15.44-4.47,31.95-.31,47.89,1.42,5.45,4.18,10.55,6.32,15.81,2.2-2.59,4.51-5.1,6.56-7.81.91-1.19,1.24-2.82,1.93-4.19C696.74,315.38,704.85,297.86,706.93,282.84ZM687,1440.65c1.06-.39,1.77-1.76,2.64-2.67-1-.31-2-.69-3-.9a50.86,50.86,0,0,0-20.6-.1c-21.78,4.25-39.91,13.29-49.24,35.5,8.55-3,16.9-4.82,24.16-8.71C656.12,1455.65,670.77,1446.6,687,1440.65Zm8.28,8.78c-7.1.24-12.45,4.66-18.52,7.51-17.3,8.13-34.83,15.77-52.14,23.54,14.61,2.51,29.05-.49,42.21-6.14C678.47,1469.35,689.33,1461.71,695.31,1449.43Zm-19.17-122.6c2-6.5-.7-11.44-1.09-16.57-1.71-22.86-13.28-39.4-32-51.54a18.78,18.78,0,0,0-3.46-1.38,14.23,14.23,0,0,0,.79,3.45q4.26,8.34,8.74,16.58C657.92,1293.59,666.81,1309.79,676.14,1326.83Zm-7.42-397.1c1.11-2.1,2.11-4.26,3.16-6.39-2.8,0-5.72-.6-8.37,0-23.39,5.39-46.74,11-68.9,16.25,13.32,9.38,29.16,7.92,44.86,5.18C650.58,942.83,662.5,941.54,668.72,929.73Zm3.34,412.1c-13.11-25.32-25.4-49.08-39-75.32C635.75,1298.5,647,1322.81,672.06,1341.83ZM654.41,1080.5c.63-22.54-40.69-54.33-62.09-48.74A563.3,563.3,0,0,1,654.41,1080.5Zm14.1-168.82c-22-10.56-49.46-4.32-73,16.16Zm-77.43,141.77c8.09,17.07,35.72,34.36,54,33.24-8.25-6.92-15.94-13.34-23.6-19.79-7.81-6.58-15.42-13.41-23.45-19.7-4-3.16-8.82-5.36-13.27-8-.55,5.45,3.17,8.91,6,12.82C591,1052.4,590.88,1053,591.08,1053.45Zm25.46-310.74c-.21-1.19-.35-2.4-.66-3.57-4-15.43-12.46-28.51-20.57-42-7-11.74-24.59-21.29-38.48-17.16,6.31,7.09,12.48,14,18.68,21,12.35,13.81,24,28.31,38.23,40.32A14.05,14.05,0,0,0,616.54,742.71Zm-17.61-208c.57-1-2-3.85-3.22-5.79a388.54,388.54,0,0,0-31.48-43c-5.28-6.32-10.82-10.52-21.15-11.14-4.64-.93-6.19,2.64-6.08,8.54.2,11.44,7,19.71,13.66,27.69,10.64,12.82,25.92,18.41,41.12,23.63C593.87,535.36,597.15,537.67,598.93,534.7Zm-50.26,88.79c23.7-2.23,47.58-4,71.76-1.15C585.42,603.13,562,607.41,548.67,623.49Zm14.26,17.37c20.07,3.95,40,6,58.6-5.21-19.46-3.48-39.31-2.6-59.12-2.48-3,0-8.46-1.66-8.45,1.26C554,637.65,558.91,640.07,562.93,640.86ZM611.57,756.3c-23.66-21.8-42.66-44.13-62.31-70.49C559.35,721,575.21,746.17,611.57,756.3Zm-44,626.31c-.62-.51-1.24-1.45-1.88-1.47-7.16-.18-14-3.84-19.72-2.14-26.16,1-37,2.55-50.66,18.49a21.32,21.32,0,0,0-2.08,3.68,18.11,18.11,0,0,0,4.39-.33c3.64-1.19,7.16-2.74,10.77-4a190,190,0,0,1,52-10.74C562.86,1386,565.19,1383.82,567.56,1382.61Zm.88,13.16c-26.17,2.25-51,7.89-76.89,14.77C519.82,1416.59,545,1412.52,568.44,1395.77ZM471.61,922.43c18.54-.47,60.31-23.49,60.61-54.45C511.6,886.49,491.62,904.44,471.61,922.43Zm9.93-23.36c14.32-13.13,28.59-26.31,43-39.56-21.83.84-55.9,29.52-59.39,50.15a11,11,0,0,0,.28,2.93,4.85,4.85,0,0,0,1.61-.54C471.9,907.75,476.76,903.46,481.54,899.07ZM467.33,555.18c12.44-1.44,23.61-10,23.61-20.43,0-11.22-9.93-18.54-20-13.44a111.48,111.48,0,0,0-43.59,39,2.24,2.24,0,0,0,.21,2.17c.48.39,1.54.24,2.29.09C442.37,560.07,454.74,556.64,467.33,555.18ZM460.72,441c1.54-2.23,4.2-4.89.95-7.59-10.95-9.09-31.24-8.57-41.16,1.7a311.53,311.53,0,0,0-21.91,26c-1.92,2.47-2.06,6.32-3,9.53,3.06-.29,6.13-.55,9.19-.9,2.62-.31,5.22-.73,7.83-1.09C432.66,466.45,449.11,457.82,460.72,441Zm-25,847.67c11.92-12.38,15.88-27.52,15.17-44.25,0-4.15.32-8.34-.12-12.45-.24-2.29-1.72-4.45-2.64-6.67-1.14,1.08-2.32,2.1-3.39,3.23-13.53,14.26-22.28,31.27-27.38,50-1.14,4.17-3.1,11.27,2,13.71S431.13,1293.44,435.76,1288.63ZM399.11,901c12.73-8,22.4-30.15,18.91-45.56-4.65,6.28-9.07,12-13.18,17.84-8.61,12.39-17.08,24.87-25.52,37.38-.43.65,0,1.89,0,2.85a9.71,9.71,0,0,0,3.05-.81C388,908.8,393.36,904.55,399.11,901Zm7.51-540.78c5.36-4.1,12.37-11,7.75-18-4.45-6.72-12.77-9.17-22-5.4-18.21,7.45-29.81,21-37.12,38.52-1.06,2.53-9.59,8.06.62,10,2.52-.43,4.33-.6,6.07-1.05C378.84,379.92,393.11,370.5,406.62,360.17Zm4.56,732.57c.78-15.58-4-29.79-10.12-43.8-2.77-6.29-5.34-13.21-13.36-11.57a13.29,13.29,0,0,0-10.33,15.36c2.82,16.59,7.58,32.74,21.08,44.47q6,5.19,12,10.34Q410.8,1100.15,411.18,1092.74Zm-1.64-243.32c-21.27-1.61-50.12,41.41-43.59,65.43C377.75,891.05,392,869.13,409.54,849.42Zm-43.31,419.8c.39-3.2-.32-7.63-2.35-9.73s-4.9.84-7.39,2.73c-6.18,4.69-8.91,11.72-13.36,17.56-7.45,9.79-14.32,19.86-14.1,33,.27,3.67-.65,7.33,2.94,10.45,7.74,6.74,19.8.17,25.14-12.57C362.7,1297.26,364.52,1283.28,366.23,1269.22ZM338.39,801c2.74-.8,2.14-2.46-2.29-3.93-21.58-7.16-43.25-14.1-64.91-21-.78-.25-1.79.25-2.7.4a8.39,8.39,0,0,0,1.37,2.53c15.73,13.33,31.31,27,54.12,24.8,3.1-.27,6.23-.37,9.29-.88C335,802.55,336.65,801.47,338.39,801Zm-13.95,346c-.12-2.06-.07-4.15-.38-6.19-2.06-13.4-6.11-26.3-13.35-37.69-4.8-7.55-10.92-14.55-19.34-18.88-9,3-9.65,10.85-7.59,16,7.43,18.49,18,35.1,36.47,44.84C321.61,1145.78,323,1146.36,324.44,1147Zm-7.79-289.15c1.39-2.55-1.06-3.46-2.9-2.65-23.86,10.44-49.71,16.65-71.08,33.54,13-1.6,25.61.28,38.54-3.36C297.37,880.84,308.85,872.13,316.65,857.86Zm-7.88-214c.3-2.16,1.28-4.13-.76-6.68-12-15.1-29.16-18.95-46.55-22.3-5.61-.47-11.28,0-12.16,6.37-1.07,7.84,0,15.36,8.52,19.85,15.15,7.94,30.78,7.33,46.74,3.84C306,644.61,308.69,644.4,308.77,643.85Zm-3.72,199.78c-1.94-.87-3.78-2.43-5.62-2.43-26.13,0-47.47,9.95-63.16,31.17-.75,1-1.33,3.28-.78,3.89,1.46,1.66,2.61-.07,4-1C259.63,861.76,281.75,852.43,305.05,843.63ZM289.64,280.85c1.7-13.79,5-27.41-1.14-40.63-1.42-3-4.69-7.71-9.19-6.65-15,3.54-24.63,11.78-22.52,25.81.08,22.94,7.59,39.83,20.38,54.52,2,2.27,1.76,8.19,5.7,6.5,3.34-1.44,1.33-6.92,2.19-10.46C287.4,300.34,288.43,290.64,289.64,280.85Zm0,285.78c2.11-2.15-5.45-5.78-8.75-8.65-.74-.64-1.53-1.24-2.32-1.83-12.82-9.7-25.58-19.49-40.79-23-6.41-.56-9.92,3.14-10.33,7.28-.62,6.15.46,12.85,6.17,17,11.59,8.35,24.72,11.3,38.93,12.05C278.87,569.81,285.87,570.43,289.62,566.63ZM345,788.38c-16.88-18.41-59.13-31.12-71.74-22.66Zm-85.87-314.2a22.4,22.4,0,0,0-1.52-2.92c-9.71-13.62-23.35-23.1-37.22-31.37-6.19-3.69-18.25-11.46-22.59,4.67-1.81,6.73,3.48,10.86,7,14.47,14,14.48,33.28,13.3,52.15,15.92Zm-19.91,726.46c6.64.68,9.5.27,6.69-5.21-8.68-16.88-23.17-27.17-40.08-33.94-4.56-1.82-11.56-3.17-16,1.7-3.28,3.62-2.12,8.3.68,12C203.29,1192.18,222.75,1196,239.23,1200.64Zm-6.4,82.6c.28-1.19.17-3.44-.4-3.69a6.31,6.31,0,0,0-4.7-.23c-18.47,9.1-39.64,12.55-55.95,26-5.91,4.89-15.69,6-16.73,14.19.07,9.45,16.66,16.8,27.49,15C212.12,1329.81,226.34,1310.39,232.83,1283.24Zm-4-909.24a30.23,30.23,0,0,0-3.2-4.81c-9.64-10-19.22-20-29.13-29.7-6.63-6.48-13.93-12.17-19.61-14.06-15.24-1.45-13.27,7.48-11,12.39,11,24.4,33,33,57.5,37C225.07,375.14,227,374.31,228.81,374ZM56,1618.34V61.66l-48-48V1666.34Z"/></svg>