<svg xmlns="http://www.w3.org/2000/svg" xmlns:xlink="http://www.w3.org/1999/xlink" viewBox="0 0 976 1600"><defs><style>.cls-1{fill:none;}.cls-2{fill:#f4f3ef;}.cls-3{clip-path:url(#clip-path);}.cls-4{fill:#6060bf;}.cls-5{fill:#50b271;}.cls-6{fill:#ffb85a;}.cls-7{fill:#592116;}.cls-8{fill:#992d17;}</style><clipPath id="clip-path"><path class="cls-1" d="M960,22V1578a6,6,0,0,1-6,6H22a6,6,0,0,1-6-6V22a6,6,0,0,1,6-6H954A6,6,0,0,1,960,22Z"/></clipPath></defs><g id="Paper_Backing" data-name="Paper Backing"><path class="cls-2" d="M960,22V1578a6,6,0,0,1-6,6H22a6,6,0,0,1-6-6V22a6,6,0,0,1,6-6H954A6,6,0,0,1,960,22Z"/></g><g id="Wikipedia_Cropped" data-name="Wikipedia Cropped"><g class="cls-3"><path class="cls-4" d="M172.45,823c-4.53,0-6.5-4.61-4.91-8.85,24.59-49.82-17.16-24.9-52.31-54.8-19.57-9.16,31.45-32.29,38-41,12.12-8.32,33.62-7.2,35.45-28.2,7.62-24.59,20.84-47.34,33.68-68.38,17.54-15.62,46.65,50.89,58.14,60.43,23.24-9.92,46.81-24.15,72.77-28.45,20.16-.49-3.68,47.71-9.65,61.15-2.87,11.83-24.72,21.88-20.14,34.37,12.57,16.1,32.47,41.32,32.84,63-23.72-10.89-43.29-33.9-64.47-34.33C243.18,764.21,214.32,810.5,172.45,823Zm316.89-12c-28.27,3.26-80.64-33.48-59.22-63.38C450.06,722.42,533.3,813.07,489.34,811Zm-13.63-90.68c-18.75-8.22,2-52.67,3.89-71.28-18.81-10.17-51.23-19.12-59.8-47.57,17.56-11.85,43.12-19.67,64.64-22.7,5.21-.07,12.56,3.74,14.61-3.31,22.84-93,31.39-91,80.47-11.22,28.92-12.62,69.85-31.23,96-11-1.75,28.33-24.35,52.4-46.59,71.59a6,6,0,0,0-.07,9.36c19.49,15.39,32.42,38.93,36.9,63.44,10.79,41.77-94.61-18.1-108.32-28.81C538.15,690.89,510.63,712.3,475.71,720.31ZM282.77,615c-7,.81-9.08-4.84-5.32-10.18C355,483.83,399.23,601.33,282.77,615Zm-107.52-3.89c-70.72-5.8-94.66-110.47-30.21-66.23C155.18,550.62,189.16,608.67,175.25,611.06Zm53.84-64.42c-28.85-15.48-48.37-89.83-10.72-97.36C246.89,454.36,244.58,533.2,229.09,546.64Zm406.48-52.42c-84-3.16,34.34-71.44,53.79-30.6C698.3,494.5,655.34,492.11,635.57,494.22Zm-121.2-20.54c-48.87,5.54-105.13-49.31-56.92-62.75C474.52,406.38,552.23,469.3,514.37,473.68Zm149.55-73.06c-72.92,1.29-5-49.57,28.53-45.43C737.51,366.91,691.26,406.21,663.92,400.62ZM522.28,377.08C427.8,364.24,418,255.84,494,317.32,501.78,329.12,542.79,367.94,522.28,377.08Zm99.52-61.92c-23-14,31-54.33,46.38-50.57C737.44,267.88,647.63,318.52,621.8,315.16Zm-64.59-14.49c-32.16-18.2-54.56-89.86-11.85-106.72C569.42,204.78,573,285.34,557.21,300.67Z"/><path class="cls-5" d="M546.86,1287.57c-14.17-15.39-7.38-1.87-22.81-8.79-23.57-17.62-54.54-2.43-79.37-18.67-21.94-13.53-38.53-37.35-69.06-41-53.45-2.22-55-73.32-92-99.86-51.78,20.52-85.14-16.85-134.24-24.53-53.39,11.22-100.88-11.13-138-49.87-68.09-43.38,19.85-123.13,53-163.82,41.5-41.37,89.92-41.76,136.27-67.35,21.54-15.08,41.54-35.27,70.06-34.12,41.35,1,89.05,29.53,103.7,72,3.71,14.32,29.22-.78,38.73,2.82,16.54-.48,34.31,4,44.38,17.36a6,6,0,0,0,8.83.61c7.3-6.37,13.79-8.39,22.3-9.43,9.09-4.86,20.29,6.68,26.55-1.24,18.19-28.33,51.93-30.26,81.33-32.61-4.51-62.68,34-132.74,112.22-107.24,28.6,12,62.53-5.9,90.63,12.9,21.72,11.38,30.7,31.11,43.3,49.31,27.41,35.74,77.47,40.46,76.83,99.2.32,31.9,10.44,66.14,12.4,94.61,9.16,9.49,22.5,17.84,27.25,29.85-1.25,6.57-9,6.22-14.28,4.42-13.07,9.42-29.52-2.4-44.76-1.09-51.47,9.85-98.11,48.33-154.44,38.8-90.5-22-14,18-51.86,67.36-9.86,15.8-22.19,28.61-37.67,43-16.07,19.25-13,50.31-38.13,62.06C589.51,1239.82,567.45,1262.1,546.86,1287.57Z"/><path class="cls-6" d="M0,1604c-4.7-1.06-13.75-575.87,3.52-565.27,44.5,52.32,91.31,65,157.23,59.76,33.52,8.77,64.72,36.5,100.78,27.12,30.2-17.61,48.41,28.29,59,53.75,19.12,48.6,82.31,37.67,110.88,73.8,19.13,24.38,57,12.15,83.87,24.2,18.32,14.62,38.57,12.69,50.49-8.7,21.38-31.87,67.26-39.21,79-76.7,16.45-58.39,84.48-67.74,56.69-144.35.35-5.57,7.33-4.09,11.26-3.3,50.68,18.86,110.72,3.74,156.23-22.34,29.66-26.09,84.77,22.4,94.88-16-.2-5.78,8.84-3.63,12.18-4,11.7-.88,0,594.07,4,598.07C981,1611.83,4,1599.88,0,1604Z"/><path class="cls-7" d="M960.48,991.48c-52.59-44.85-9.24-134.41-66.56-174.09-74.28-45.06-56-110.94-162.23-96.84-15.63-.25-29.21-10.67-45.29-9.74-4.09.24-11,.12-11.93-1.92-3.5-8-5.25-16.76-7.37-25.32C663,667,653.26,653.88,643,640.69c-2.79-3.59-16.28-4.82-6.46-14.21,14-10.82,62.06-67.65,38.31-82.14-31.74-8.84-67.89-2.75-95.25,16.09-2.12-16.39-16.23-27.76-13-46.1,2.17-11.83,23.19-30.29,34.06-24.76C623.28,501.15,665,503,685.89,489c16.93-16.06,11.05-31.65.33-37.83-44.23-25-74.2,26.87-113.28,37.5-3,.7-4.24,1.76-3.92-2.33.85-11.18-.11-22.8,2.71-33.43,2-7.63-3.09-17,5.26-23,15.14-9.11,30.36-27.09,47.81-29.87,5.68.29,11.11,3.78,16.85,4.91,27.74,5.05,80.11,2.44,75.2-38-9.7-34.67-63-14-79.69,5-5.18,5-8.15,13-14,16.59-16.43,9-32.95,17.61-47.6,29.6-1.14-15.42.33-31.07.18-46.57-1.71-24.91-1.37-24.52,19.78-39.41,15-14.17,20.38-13.29,39.86-12.58,19.16-.24,65.07-23.71,64.61-44.41.12-7.88-6-13.18-12.61-15.3-26.24-9.38-51.54,8.32-67.48,28.62-5.59,8.19-6.08,19.22-15.08,25.28-9.48,6.38-18.69,13.17-28,19.8-1.3.93-3,2.87-3.62,0-9.83-26.65-2.84-51.26-.47-78.4,2.39-23.49-12.75-92.53-44.12-59.2-21.55,30.38-8.87,72.71,14,98.15,8.84,10.6,20.38,18.13,20,35.75-.4,19.38,2.61,39,2.23,58.64,0,1.56.51,4.68-2.65,2.35-14.66-10.82-29.77-20.86-37.28-39-10.5-26.75-51-78-82.06-53.16-9.82,9.62-8,22-1.91,33.1,15.82,28.86,43.59,39.43,73.19,47.56,6.58,1.81,13.2-2.81,19.44,2.16a280.78,280.78,0,0,0,25.55,18.18c11.07,5.19,2.83,9.66,3.74,18.49q-2,30.17-4,60.33c-.08,1.09.33,3.29-1.9,1.56-11.41-8.82-24.57-14.69-32.78-28.36a103.46,103.46,0,0,0-47.58-41.9c-60.27-26.76-59.39,59.34,22.13,67.53,14.06,2.57,27.93-6.2,42.55,3.15,13.35,8.54,19.29,15.63,15.23,31.5-.72,2.84-1.35,4.08-4.36,1.24a62.52,62.52,0,0,0-17.46-12.56c-4-2.62-8.43-5.94-13,.94a177.27,177.27,0,0,0-25.85,61.88c-1.06,5.12-2,9.75-9.81,10-4.06.15-8.3-1.07-12.64.35-14.55,4.76-29.79,7.72-43.81,13.65-7.92,3.36-22,8.27-15.23,20.45,11.37,20.49,30.29,33.57,52.6,41.41,2.36.83,7,2.29,5.25,6.21-6.2,13.35-21.25,63.83-1.66,68,28.82.67,54.47-14.48,75.45-32.66-4.28,39.22-8.39,78-11.16,117.29-.1,1.23-.5,3.79-1.66,2.58-7.54-7.8-20.8-2.69-27.31-16.59-9.67-29.11-69.17-90.46-88.12-38.18.46,32,34.91,58.45,63.94,59.38,12.75.4,25.29-9.46,38.09-.44,5.71,4,15.13,2.25,13.78,15.28s-13.7,14.16-18.26,22.9c-7.84,17-23.3-7.72-50.13,16.58-1.6,1.48-3.07,1.91-4,.35-14.43-23.49-36.53-24.81-60.49-21.35-6.35.92-16.51,3.67-18.58.88-6.69-9-13.75-19.62-16.33-29.87-6.8-27-16.72-51.59-36.09-71.93-1.34-1.4-2.51-3.06-.32-5.52,16.88-17.85,31.61-40.1,34.79-64.65.93-8,7.72-17.63-1.08-26-6.61-6.32-12.8-1.8-19.46-.85a123.19,123.19,0,0,0-56.4,23.1c-5,3.71-8.34,2.65-9.53-2.44-2.25-9.58-9.38-16.12-13.68-24.36-2.08-4-7.17-10.21-6.14-11.43,5-6,10.75-13.63,18.6-14.24,31.34-2.41,59.55-10.76,79.66-36.75,8.11-10.47,11.66-23,1.92-33.42-16.74-16.89-42.25.17-56,13.41-14.82,11.55-24,27.05-30.78,43.73-4.12,10.11-14.43,12.52-20,20.31-9.66-6.63-21.84-16.31-18.79-31.64,3.16-16.24-.19-33.6,6.58-49.52,4.93-11.57,5.94-23.56,6.18-36-.23-23.81,2-64.56-27.81-70.13-27.68-.15-26,40.19-21.84,60.24,4.52,18,12.05,32.85,24.8,45.55,3.91,3.89,7.66,6.83,6.49,13.66-2.58,15.13-5,30.41-5.55,45.7-.25,6.18-.71,10.81-4.4,16-6.36,9-9.65-.53-13.61-2-5.83-2.11-13.72-5.34-15.64-10.13-49.11-157.33-143.15-58.23-43-3.5,18,7.21,38.57,8.66,53.34,22.74,2.44,2.32,11.16,2,6.91,10.09-9.35,17.84-19.39,35.38-24.45,55.22-.92,3.61-.66,9.2-7.2,10.12-20.27,5.16-39.64,18.83-55.8,31.39-15.38,14-20,15.65-1.21,30.57,5.2,4.14,12.2,5.65,17.19,9,8.67,8.41,42.69,8.51,35.11,16.21-17.58,40.92,7.81,25.48-41.65,42.25-43.19,15.87-81,45.65-103.29,86.13-14,30.93-46,47.67-41,86.33-3.35,20.55,4.16,20,17.26,33.89,32.72,33.42,75.33,70.31,126.44,61.45,11.28-1.35,22.42-2.37,33.43.09,34.17,9.3,65.67,37,103,27,5.3-1.94,13.1-6.8,15.67-4.87,18.9,14.18,30.92,33.88,38.12,56.1,28.28,58.71,70,30.72,111.86,75.39,14.5,14.48,31.17,18.74,50.46,19.3,44.41-5.88,56.08,42.63,89.85-4.12,21.15-31.29,70.2-41.16,79.83-78.52,2.73-15.54,9.84-27.7,21.4-37.26,28.32-24.32,54.06-63.57,35.51-101-.89-1.84-.14-4.48-.15-6.75,9.35-.35,17.42,6.27,26.43,7.24,48,5.63,98-4.59,138.94-29.35,21.76-11.65,43.23-8.62,63.74-1C956.36,1034.83,979.51,1007.46,960.48,991.48Zm-342.58-520c8-5.15,16.67-9.1,25.06-13.58,15.13-7.45,42-3.25,44.28,12.2-1.79,10.65-8.87,16-17.89,16.58-20.44,2.16-43,7.93-62.22-3.74C610.67,479,613.62,474.2,617.9,471.43ZM635,387.6c10.54-17.82,60-43.87,71.58-18.37.49,16.33-10.18,20-20.3,23.6-16.42,5.89-32.94,4.25-49.39-.37C633.67,391.55,632.31,391,635,387.6Zm-11.46-88.39c12.77-23.23,38.59-35.48,61.05-29.32,9.12,5.6,2.54,12.94-1.61,16-16.06,11.74-32.35,23.77-54,23.27-3.17-.08-7.65,4.15-9.35.63C618.53,307.4,621.58,302.5,623.55,299.21Zm-64.74-4.86c-4.06,10-20.4-21.46-23.16-25-8.84-13.12-9.41-28-8.35-42.77.81-11.19,3.26-22.53,15.45-27.92,4.41-1.95,5.94-.15,10.54,10.52C566.87,237.82,561.53,267.82,558.81,294.35Zm-38,78.52c-25.13-4.74-93-37.29-68.67-68.61,2.55-1.2,5.7-1.14,4.48-.92,29.22-1,41.27,25.75,55.94,44.26C514.24,351.43,532.88,375.53,520.77,372.87Zm-6.32,96.81C487.71,470.86,432,453.87,447.29,418c1.89-3.46,5.84-3.22,9.53-3.06,16,2.57,29.94,9.58,41.14,21.46C501.58,442.22,535.1,470.53,514.45,469.68ZM491.54,806.89c-56,4.42-85.92-71.67-40.49-57.16,23.4,10.88,35,32.28,48.66,51.94C501.26,803.89,497.69,806.26,491.54,806.89ZM280.92,606.75c45.5-80.71,101.85-51.64,51.15-14.08a101.39,101.39,0,0,1-52.69,17.92A29.86,29.86,0,0,1,280.92,606.75Zm-107,0C150.55,599.36,127,592,116,566.83c-3.69-8.47-8.45-17-1.32-26.32,2.1-2.75,4.12-3.94,6.87-3.45,29.73,4.6,42.27,42.59,53.51,67.22C175.86,605.94,177,607.76,173.88,606.78ZM707,725.39c11.85,5.55,25.22,6.36,38.77,4.28,44.64-7.69,73.82,20.48,93.58,56.59a82.44,82.44,0,0,0,26.48,24.83c67.78,33.68,41.92,91.42,61.47,151.53,3.21,3.75.7,5.76-3.31,2.22-32.12-32.83-72-58.42-108.64-85.17,19.75-2.36,27.62-3.32,43.87,12.42,3,5,39.51,23.29,41.6,15.48,4.39-7-31.21-12.27-43-28.76,7.74-.87,36.53,5.86,37.75-1.59.16-5.35-4.87-6.14-9.67-6.35-21.26-.89-43.1-5.56-63.63-2.18-27.41,4.51-44.55-13.4-65.91-22.23-8.6-3.55-17-7.67-25.43-11.58-1.84-.58-2.2-2.4-.5-3.32,28.67-14,33.2-15.88,61.6.26,17.8,7.58,36.59,4.69,55.06,5,1.24,0,2.52-2.07,3.78-3.18-9-7.11-30.88-4.92-42.89-6.61-10.38-.47-18.35-6.76-27.51-10.12-.51-.19-.77-1.06-1.14-1.62,15.11-2.77,31.72-1.48,47.3-2,5.44.07,10.92,4.29,16.26-.32,3.7-3.21,1.18-5-1.85-5.94-41.57-9.79-85-1-121.7,20.21-7.68,4.27-14-3.1-21-4.71-11.22-2.59-21.84-7.75-32.85-11.38-3-1-3.13-1.87-1.46-3.92,6.72-8.22,13.61-16.3,20.15-24.65,2.65-3.39,5.49-1.8,8.56-1.57,24,1.83,45.64-6.67,67.3-15.1,10.77-3.74,1.71-10.2-5.74-6.07-19.07,6.43-38.54,13.37-59,12.89,7.88-7.39,15.5-14.49,23.07-21.65,1.76-1.66,4.48-3.66,1.82-6.09-6-6.09-48.8,37.82-54.81,44.52-19.22,35.61-36.82,7-63.35,15.18C599.65,748.74,653.33,705.17,707,725.39ZM489.45,711c-4.48.43-11,5.72-14.14,5.33s-3.19-4.54-2.19-10.49c1-19.19,2.3-38.6,13.51-55.83,2-3.14,0-6.39-4.71-7.1-24.77-3.71-42.52-18.31-57.39-37.35-3.09-3.95,1.48-3.68,2.5-4.17,19.35-8.32,40.39-19,61.79-18.11,15.58,3.77,14-8.91,16.06-17,2-7.27,19.65-72.27,29.31-56.49,13,11.07,23.1,24.65,31.2,39.62,4.51,5.43,3.47,18.15,9.43,21.23,2.23.66,4.95-.53,7.43-2.24,24.85-15.12,58.32-24.24,86.48-16.49,7,2.74,1.39,11.62-.88,16.92-9.69,25.33-29.62,42.38-48.89,59.85-.41,1.61.32,3.32,2.63,5,24.25,16.76,36.86,43.35,41.87,71.66.75,3-2.13,2.37-4.34,2.2-36.62-3.41-70.78-20-98.52-43.6-2.67-2.88-7.26-2.09-9.35,1.63C537.5,690.1,515.4,703.11,489.45,711Zm61.08,46.29c3.84-27.36,3.73-55.45,7.36-82.66,20.14,11.44,37.47,28,60.4,34,8.85,2.63,17.23,7.83,27.34,6.66-9,6.11-19.06,9.64-25.55,17.89-11.64,14.81-24.38,30-26.43,49-1.37,12.73-5.25,26.2-.67,39.3,5.07,8.12-29.44-1.47-48.12,9.86A683.31,683.31,0,0,1,550.53,757.25Zm-325.24-217c-18.38-21.51-26.72-45.57-20.6-74.21,1.79-8.39,4.41-13.88,13.2-12.8,10.78,1.32,12.44,11.78,14.56,19.36,5.11,16.79,3.88,56.6-3.36,70C227.81,541.86,226.22,541.34,225.29,540.26ZM117,755.77a15.89,15.89,0,0,0-3.43-1.31c12.41-13.05,28.19-21.82,42.14-33,4.57-3.66,11-5.6,16.94-6.83,14.14-2.94,16.73-13.7,20.49-25.34,1.32-6.73,31.54-75,37.22-66a215.87,215.87,0,0,1,44.77,61.5c3.66,6.2,6.65,4.11,12,.3,9.36-6.63,20.09-11.44,30.62-16.42,11.85-5.61,24.61-7.09,36.74-11.15,4.51-1.51,2.48,3.64,2.23,5-4.51,28.61-15.81,56.68-37.29,76.85-3.79,3.77-3.69,7.69,0,11.44,15.45,15.89,24.15,35.67,34.52,58.19C321.8,778.38,284.53,763.18,242.66,778c-20,7.16-32.88,24-51.07,33.13-3.39.86-23.37,13.44-20.27,4.4C194.16,752.41,182.7,799.39,117,755.77ZM268.88,1119c-45.25,14-79.1-28-122.71-28.23-78.35,11.38-96.94-20.55-152.28-66-3.89-3.33-2.89-8.23-3.28-13.14-2-24.89,8.7-43.39,23.51-61.61C31.86,928.15,45.24,902.72,67,884c19.11-16.45,39.55-30.43,63.64-39.37s50.35-13,72.24-27.71c11.41-7.69,21.85-16.88,33.56-24,49.34-27.55,112.61,10.66,134,57.19.49,6-7.11,5-10.74,6.28-26.85,8.24-44.3,28.47-63.9,46.35-.23-1.06-.85-2.22-.61-3.17,2.8-11.49,6.07-22.86,8.56-34.41,3.16-14.71,5.78-29.53,8.37-44.34.19-1.07-1.77-2.51-2.73-3.78-8.39,4.68-7.32,19.75-10.39,28.42-3,13.57-6,27.15-9.07,40.71a1.74,1.74,0,0,1-1.51.66c-13-26.9-30.18-50.08-55.6-66.62-2.08-1.4-4.69-2.42-6.18-.14-1.31,2,.24,4.33,2.29,5.73,16.91,11.66,26.45,29.83,41.21,46.05L220.49,856c-5.53-.44-21.07-10-23.49-3.33-5,6.84,63.14,26.75,70.52,27.95,16.39,3.31,14,19.19,21.35,28.43-15.19,8.32-34,7.75-50.79,11.75-7.75,1.25-11.41-6.17-17.05-9.41-19.19-11-38-22.71-57.34-33.46-8.1-4.5-17-7.65-25.85-10.63-2.89-1-8.59-2.56-9.41,1.95-.91,5,5,6.09,8.71,7.68,12.6,5.5,25.72,9.95,40.43,22-25.08,0-45.9,0-66.73,0-1.76,0-4-.46-4,2.36-.9,8.7,60.88,7.35,67.52,3.15,14.26-4.29,22.15,3.53,32.09,8.92,3,1.64,5.81,3.72,8.93,5.07s7.23,1.63,7.44,5.65c0,.78-5.54,2-8.6,2.76-17,3.92-33.17,10.09-49.33,16.5-10.77,4.26-22.81,11.49-32.93,9.71-29-3-56.57-17.3-86.27-14.69-1.92,0-5.28,3-5.43,4.88-.27,3.24,3.24,1.43,5.08,1.76,8.5,2.33,18.61,1.33,26.2,5.66-9.49,7.42-21.58,11.61-33.39,14.7-3.26.67-10.49,2.7-8.11,7.64,2.52,5.23,8.55,0,12.51-.71,15-2.84,28.29-10.5,41.56-17.74,7.18-3.92,13.49.37,19.69,1.69,4.54,1,13.78.76,13,1.91-4,6.36-12.2,7.45-18.72,10.81-21.33,13.28-83.26,36-78.33,65.77,1.48,1.39,5.3.32,12.47-4.29,39.07-21.7,79.81-37.81,122.63-51.21-7.23,12.67-14,25.13-21.36,37.28-6,10-18,10-27.2,13.94-15.21,6.44-26.32,17-36.92,28.75-1,13.19,43.28-27.42,53.06-25.78-6.59,10.57-14.59,20.26-21.5,30.64-.82,1.18-4.07,3.15-.9,4.66,10.94,4.82,31.81-34.22,38.81-42.38,45.39-68.69,4.35-42.8,90.49-66.43-5.91,16.37-9.27,36-18.92,50.45-5.21,6.27-13.86,9.61-20.83,14.48a156.41,156.41,0,0,0-34.71,33.77c-.67.88-.2,2.61-.26,3.95,1.4,0,3.29.46,4.12-.25,14.94-12.4,28.62-27.5,45.48-37.07-6.4,14.32-14.22,28-20.89,42.26-1.12,2.29-1.4,5.44,1.68,7,8.61,7.63,55.63-101.24,53.74-111.61,1.36-7.76,7.61-4,10.75-5.06a61,61,0,0,1,24.52-2.4c6.83.71,2,7.49,1.47,10.18-4,19.38-10.62,37.89-17.54,56.5-11.65,29.85-9.46,69.23,13.47,93.4C272.66,1117.09,271,1118.38,268.88,1119Zm16.06-196.28c-.66,16.3-7.5,22.55-23.13,24.35a590,590,0,0,0-81.66,15.4,693.42,693.42,0,0,0-150.94,58.85c-.5-2.58,1.41-3.29,3.15-4.31C85,982.73,142.13,958.1,202,939.73c24.44-7.92,50.44-11.64,75.38-18.23C279.93,921,283.42,919.37,284.94,922.72Zm244.45,353.85c-3.26-1.66-7.35-2.15-10-4.4-21.77-15-50.56.16-72.5-15.4a282.27,282.27,0,0,1-31-24.09c-22-21.8-59.25-12.7-78.43-37.35-8.85-11.17-13.92-25-19.45-38.36-30.3-59.51-80.4-49.79-45.22-142.35,18.58-36.46,8-82.85,39.74-113.28,16.46-15.72,33.77-30.67,56.4-36.45,33.95-8.07,85.95-18.29,94.09,30.83,1.1,7.26,8.25,17.45-3.86,16.65-10.67.65-18.52,7.82-28,11-6.2,2.06-11.59-2.13-17.33-2.23-16.53,1.84-82.76-7.1-86.71,9.13,15.53,3.88,31.3-1,47-1.07,12.22-.49,24.49-.15,36.73,0,1.35,0,3.82-1.26,3.89,1.41,0,1.1-1.49,2.65-2.68,3.31-36.36,21.82-72.58,46.57-97.81,81.09-2.38,4.06-8.2,4.08-9.86,9.4-.76,2.43-2.14,4.42-1.17,7,2.49-1,5.6-1.33,7.38-3.05,14.49-12.56,25-28.52,41.82-38.23-7,16.6-13.41,32.3-20.15,47.88-1.11,2.56-2.67,5.36,0,6.81,11.44,2,26.93-53,33.12-63.42,4.59-10.3,16.23-15,24.81-21.8,22.93-17.35,49.93-29.06,76.21-40.57,2.86-1.28,1.44,1.43,1.57,2.12,4.4,23.83,7.86,47.88,13.31,71.46,3.39,14.68-9.88,13.39-15.54,17.16-33.76,21.14-67.95,44-92.1,76.19-6.78,8.51-13.84,17.82-16.34,29.16-2.22,4.66,4.92,6,7,2.48,14.43-23.23,33-43.77,53.43-61.78-3.57,30-16.88,58.29-28.5,86.06-.56,1.41-1.56,4.38,1.22,5.06,14.76,3.74,41-84.75,39.14-98.52.18-4.61,3.79-6.14,7-8.23,15.91-10.4,31.74-20.91,48.73-32.13,5.36,28.79,9.81,56.7,16.13,84.19,1.82,7.9-2.68,9.36-6.06,13.23-27.16,28.47-55,57.38-70.43,94.61-1.53,3.52-4.12,8.74-.63,10.51,5.15,2.59,6.66-4,8.63-7.12,9.49-15.3,18.52-30.89,29.89-50-3.56,22.64-.86,41.34-5.64,59.49-.61,2.34-2.24,7.91,2.14,7.79,6.21-.18,6.81-7.33,7.42-11.45,2.18-14.67,6.77-30.47,3.44-44.13-4.56-18.71,8.54-25.78,16.48-36.59,5.12-7,11.52-13,17.45-19.52,11.07,53.41,17,106.39,26.84,159.67C532.5,1278.19,532.44,1278.12,529.39,1276.57Zm7.42-41.81c-11.64-47.49-15.32-96.82-25.79-144.67-14.62-70.46-26.6-141.75-44.13-211.47,3.87-9.3,23.67-13.75,33.89-12.45,22.51,3,24.72,138.08,24.51,161.34-.17,7.72,4.32,15.81,3.15,23.17-1.52,9.58-.16,18.63.59,27.84,3.94,47.8,10.27,95.64,8.11,143.62C539.12,1226.42,540.82,1230.66,536.81,1234.76Zm158.84-205.47a69.26,69.26,0,0,0,3.07,35.93c12.37,36.93-21,68.62-45.32,92-9.1,8.45-12,19.76-14.19,31-9,31.51-45.05,41.39-66.36,62.7-9.46,8.62-16.25,20.16-26,32.65,3-61.47-.23-119.9-5.43-179,10.3,6.32,20.59,11.88,30,18.66,7.32,5.27,4.37,15,7.4,22.37,6.13,14.91,11,30.48,22.31,42.6,3.89,7,9.29-.1,4.87-5.08-10.77-14.89-16.61-32.5-21.42-49.83,13.32,8.36,25.43,18.86,37.92,28.47,3,2.45,4.28.52,5.64-.82,6.63-3.91-20.33-22.3-23.7-26.49a301.68,301.68,0,0,0-61.26-40.23c-8.68-4.29-3.82-14.76-4.59-22.14-2.39-26.46-3.63-52.5-3.58-79.2,20.87,8.63,39.57,19.76,57.51,32,7.28,5,6.67,15.08,10,22.66a224.43,224.43,0,0,0,37,59.12c2.31,2.63,4,8.58,8,5.16,3.67-3.16-.92-7.41-3.16-10.71-15.8-19.9-27-42.19-36.94-65.55,21.58,12.1,39.91,30,58,46.92.9.9,3.4.2,5.15.24,3.52-20-110.18-94.78-131.77-98.12-4.49-1-5.45-5.18-5.77-9.71-1.37-19.78-1.46-39.68-5.75-59.2-.79-3.57-1.79-6.59,5.39-5.15,10.15,2,20.83,2.93,31.08,3.76,13.5,1.09,16.62,10.39,21,18.73,5.37,10.32,43.85,38.66,54.24,37.76-15-19.35-41.48-27.36-51.56-51.25,18.32,2,36.64,10.24,54.08,16.9,2.2,1,5.78,3.64,7.4-.39,1.36-3.38-.56-5.65-4.35-7.27-29.16-13.79-59.55-20.43-91-26.77,16.31-7.7,32.39-15.31,48.49-22.89,2.83-1.33,8.08-1.25,6.62-5.72-1.52-4.64-7.49-3.4-10.13-2.1-19.26,9.46-39.55,16.67-57.85,28.42-6.64,4.92-18.77,2.24-18.75-9.45-.69-10.23-9.32-21.09-.4-30.57,22.86-26.1,68.07-34.64,97.16-13.8,7.49,5.26,9.27,14.26,10.91,23.29,8.55,47.79,68.4,56.58,76,105.61C710.07,995.19,699,1011.19,695.65,1029.29Zm-9.79-115.88c-.13,3.65,1.75,7.37,2.85,11.57-19.45-16.61-44.69-28.17-49.3-55.48-1.69-6.37-2.32-13-5.31-19.07-.92-1.86-2-4.1,1.31-3.24,14.32,3.75,29.17,6.48,42.49,12.53,6.59,3,3.74,14,3.47,20.8C680.91,892,686.24,902.19,685.86,913.41Zm218.6,93.72c-24.6-1.8-44.41,12-64.92,22.37-26.72,11.76-56,16.82-85,16.85-12.63-1-25.76-.19-37.16-7.21-14.54,2.31-13-6.07-9.65-15,12-24.44,13.53-53.64-1.74-77.31-1.8-2.58-2-6.27-3.25-10.51,14.36,13.26,27.34,26,36.2,42.26,1.45,2.65,3.81,4.06,6.44,2.89,3.68-1.64.46-3.63-.25-5.54-5.87-15.87-18.08-26.91-28.45-39.6-5.85-7.16-17.17-7-19.35-15.73A303.29,303.29,0,0,1,691,877.55c-1-4.73-4.49-12.36-.93-13.56,4.42-1.49,10.95,2.2,16.22,4.47,17.08,7.38,34,15.11,50.93,22.84a4.4,4.4,0,0,1,2.24,3.3c-1.78,20.6,7.37,39,12.17,58.14,4.66,18.58,11.15,36.74,17.46,54.87,2,4.23,7.72,18.24,12.93,17.1,4.36-6.11-12-37.29-14.59-48.19,14.91,7.31,23.7,18,31.79,29.56.62.89,1.24,4,3.86,2.3a4.92,4.92,0,0,0,1.66-6.66c-9.26-15.19-18.5-30.31-37.75-35.24-2.46-.63-3.85-7.11-4.92-11.09-4.57-20.06-12.08-40-14.68-60.18C783,904,799,911.46,813.09,921.57c5.45,3.91,7.44,13.49,9.65,20.9,5.46,18.19,15.47,34.16,26.07,49.47.7,5.25,6,6.86,8.45,5.65,4.88-2.36,0-6.12-1.39-8.31a289,289,0,0,1-28-59c39,22.86,75,50.93,108.6,82.36C925.69,1010.73,915.15,1007.9,904.46,1007.13Zm49.84,1.3c-3.7,7.5-49.38-38.13-58.6-42.58-16.27-12.35-33.84-23-50.16-35.27-67-45.17-142.27-79.84-222.08-94.58-8.05-1.45-23.42-4-22.32-19.81-.38-2.78-.18-4.5,3.47-4.15,55.84,3.7,108.4,25,157.92,50.1,61.35,31.19,114.85,74.74,167.09,119C932.86,984.34,959.23,1007.2,954.3,1008.43ZM553.83,634.27c-14.4,3.28-28.43,6.3-41.52,13.21a3.49,3.49,0,0,1-4.91-2.13c-1.16-3.79,1.91-6.22,4.39-7.91,3.1-2.11,7.76-2.29,10.28-4.79,5.81-5.74-2.82-8.14-4.51-11.52a240.36,240.36,0,0,1-10.27-22.9c-3.84-7.52,5.13-10.62,7.92-2.49,3.67,10.09,9.22,19.18,15.51,27.92,3,4.22,6.79,4,10.35,2.86,5-1.58,0-4.24-.33-6.09-.13-10.1-18.19-71.19-9.51-71.44,6.41-1.42,5,5.32,6,9.66,4.64,19.72,11.4,39,12,59.45.28,3,2.82,7.38,3.65,6.5,3.47-3.65,11.86,2.72,12-6.11,1-4.34-3.56-40.36,8.25-37.31,4.29,2.5,2.54,7.89,1.44,11.08-3.09,8.89-.68,17.79-1.48,26.62-.25,2.73,2.09,1.92,3.58,2,6.92,2,31.41-1.52,31.21,7.42-.27,2.06-3.22,4.14-7.43,4.07C585,632.13,569.68,630.67,553.83,634.27ZM195.25,769.74c.14-9,21.9-2.55,10.46-21.07-5.27-8.44-7.33-18.53-8.74-28.5-1.37-5.73,7.05-7.33,8.18-1.36,4.54,12.18,9.35,24.26,14.22,36.3.33.81,2.55,1.79,3,1.48,4.45-3.44,15.38-2.83,13.72-8-3-9.44-3.42-19.29-6.56-28.68-3.26-9.77-3.16-20.66-4.56-31.06-.51-3.8,2.27-6.38,4.69-7.31,2.06-.79,3.21,2.62,3.71,5,4.92,19.53,6.59,41.12,14.44,59.55,2.56,4.4,9.13-.39,13.57-1.54,3.48-.91,1.78-5.42,1.08-8.11-2.53-9.69-1-19.51-1.29-29.25,0-1.5,2.54-4.5,3.59-4.36,5.63.72,5.16,6.25,6.12,9.94,1.35,5.21,1.12,10.81,1.81,16.21.88,6.83-2.82,16.42,11.19,14.64,3.77-.48,5.79,6.2-1.64,7.75-25.51,4.39-50.17,10.77-73.92,21.23C205.33,772.81,197,775.81,195.25,769.74Z"/></g></g><g id="Red_Japanese_Frames" data-name="Red Japanese Frames"><path class="cls-7" d="M0,20V1580a20,20,0,0,0,20,20H956a20,20,0,0,0,20-20V20A20,20,0,0,0,956,0H20A20,20,0,0,0,0,20ZM924,1548H52V52H924Z"/><path class="cls-8" d="M952.1,15.41,928.69,38.83A4,4,0,0,1,925.86,40H50.14a4,4,0,0,1-2.83-1.17L23.9,15.41A2,2,0,0,1,25.31,12H950.69A2,2,0,0,1,952.1,15.41ZM40,1549.86V50.14a4,4,0,0,0-1.17-2.83L15.41,23.9A2,2,0,0,0,12,25.31V1574.69a2,2,0,0,0,3.41,1.41l23.42-23.41A4,4,0,0,0,40,1549.86ZM936,50.14V1549.86a4,4,0,0,0,1.17,2.83l23.42,23.41a2,2,0,0,0,3.41-1.41V25.31a2,2,0,0,0-3.41-1.41L937.17,47.31A4,4,0,0,0,936,50.14ZM925.86,1560H50.14a4,4,0,0,0-2.83,1.17l-20,20a4,4,0,0,0,2.83,6.83H950.69a2,2,0,0,0,1.41-3.41l-23.41-23.42A4,4,0,0,0,925.86,1560Z"/></g></svg>