<svg id="Card" xmlns="http://www.w3.org/2000/svg" viewBox="0 0 1024 1680"><defs><style>.cls-1{fill:#f2f0ed;}.cls-2{fill:#8c1707;}.cls-3{fill:#16592d;}.cls-4{fill:#593831;}.cls-5{fill:#f79d31;}</style></defs><rect class="cls-1" x="14.5" y="14.5" width="995" height="1651"/><polygon class="cls-2" points="966 1619.17 966 60.83 1018 8.83 1018 1671.17 966 1619.17"/><polygon class="cls-2" points="60.83 58 8.83 6 1015.17 6 963.17 58 60.83 58"/><polygon class="cls-2" points="8.83 1674 60.83 1622 963.17 1622 1015.17 1674 8.83 1674"/><path class="cls-3" d="M909.86,1618a152.62,152.62,0,0,1-25.45-2.59c-10.63-2.05-21.63-3.39-32.26-4.69-15.6-1.9-31.72-3.86-47.24-8.11-4.26-1.16-14.46-4.52-17-10.63s-1.74-13.51-1-20.61l0-.14c.1-1,.21-2,.3-2.9.64-6.61,13.71-13.06,20.93-13.06a7.8,7.8,0,0,1,4.39,1.12,39.15,39.15,0,0,1,3.62,2.85c1.89,1.62,3.67,3.14,5.57,3.71,6,1.81,12.24,3.37,18.26,4.87,6.87,1.71,13.93,3.47,20.78,5.63,18.16,5.73,38.57,9.42,62.39,11.28,7.14.56,14.75.82,23.92.82,3.73,0,7.81,0,12.83-.14l2,0v29.27l-1.64.3a111.1,111.1,0,0,1-12.85,1.67l-1.86.12c-8.12.53-16.47,1.08-24.72,1.27H909.86Z"/><path class="cls-3" d="M959.84,1579.86c-4.53-.36-8.55-.58-12.28-.67-3.32-.08-6.7-.09-10-.1-10,0-20.35-.08-30.63-2-5.59-1-11.25-2-16.72-2.93-27.15-4.61-55.22-9.37-80.47-23.86l-2.46-1.41,2.17-1.84c2.77-2.36,5.46-4.7,8.12-7,6.27-5.45,12.17-10.58,18.5-15.38.77-.59,1.51-1.19,2.25-1.79,3.57-2.92,7.21-5.9,12.86-5.9a21.14,21.14,0,0,1,7.37,1.47A344.46,344.46,0,0,0,912.81,1534l2.49.48c14.7,2.82,29.9,5.75,44.91,7.32l1.79.19v38Z"/><path class="cls-3" d="M959.74,1537.65c-7.25-.94-14.55-2.24-21.61-3.49-6.06-1.07-12.31-2.18-18.47-3.06-11.47-1.64-22.57-5.06-33.29-8.37-9.82-3-20-6.16-30.22-7.85a3.35,3.35,0,0,1-3-2.18,3.58,3.58,0,0,1,1.21-3.64l2.32-2.29c7.65-7.55,15.57-15.36,23.61-22.8a4.73,4.73,0,0,1,3.28-1,12,12,0,0,1,4.56,1c17.48,7.76,36.4,12.06,57.84,13.16,3.38.17,6.76.37,10.13.57l5.88.34v40Z"/><path class="cls-3" d="M959.78,1494.47c-23-2.54-47.68-5.82-73.66-15.52l-3.14-1.17,2.52-2.21c2.16-1.88,4.23-3.74,6.25-5.55,4.71-4.22,9.14-8.2,13.88-11.84a21.15,21.15,0,0,0,3.27-3.53c2.26-2.83,4.82-6.05,9.2-6.05.3,0,.61,0,.93.05a146.3,146.3,0,0,1,19.84,3.94,167.06,167.06,0,0,0,17.34,3.63c1.33.18,2.66.32,4,.47l1.78.2v37.82Z"/><path class="cls-3" d="M959.7,1452.56a350.5,350.5,0,0,1-37.05-7.93l-3.14-.82,8-9c6.24-7,12.34-13.94,18.46-20.81a7.31,7.31,0,0,1,5.62-2.86,8.28,8.28,0,0,1,2.52.41,63.68,63.68,0,0,0,6.32,1.67l1.58.34v39.38Z"/><path class="cls-4" d="M720,1618v-2q0-4.48-.09-9v-.16c0-4.38-.1-8.9-.09-13.37,0-3.2.18-6.46.36-9.62.33-6.22.68-12.64-.3-18.62-1.82-11-9.44-19.32-16.81-27.37-1.66-1.82-3.36-3.67-5-5.52-14.39-16.61-29.93-32.69-45-48.25-18.51-19.16-37.64-39-54.87-60q-6.84-8.37-13.76-16.67c-9.94-12-20.2-24.38-30-36.82-8-10.23-15.58-21.07-22.88-31.55l-4.29-6.15c-7.43-10.65-14.83-21.58-22-32.15-2-3-4-5.93-6-8.87a10.83,10.83,0,0,1-1.24-2.8c-.12-.37-.24-.73-.38-1.07l-1.89-4.72,4.6,2.17c.38.18.78.32,1.19.47a8.46,8.46,0,0,1,3.49,2c4.71,5.11,9.45,10.35,14,15.42,5.56,6.16,11.28,12.49,17,18.63,12.22,13.12,25.67,27.35,41.12,43.5,8.51,8.89,17.27,17.78,25.74,26.37l3,3q5.3,5.35,10.63,10.65c4.67,4.66,9.47,9.45,14.13,14.23,3.47,3.56,6.92,7.25,10.25,10.81,5.87,6.28,11.91,12.73,18.21,18.64,16,15,32.48,29.81,48.47,44.17l10.92,9.82c1.33,1.2,3.8,3.44,5.5,3.48h.11c2.23,0,4-2.39,4.49-4.69.21-1.09.44-2.2.68-3.31,1.11-5.23,2.25-10.64,1.35-15.33-2.31-11.92-1.87-23.93-1.45-35.54.24-6.62.48-13.45.21-20.13-1.11-27.48-.9-55.44-.69-82.49.09-12.25.19-24.91.16-37.39,0-5-.19-10.17-.35-15.14-.21-6.29-.43-12.73-.34-19.09.23-16.45,1-33.14,1.67-49.29.8-18.07,1.62-36.71,1.74-55.07,0-7.69.52-15.58,1-23.21.59-9.64,1.19-19.62.92-29.21-.57-20.12-.43-40.52-.31-60.26v-.13c.07-9.87.13-20.08.11-30.12,0-11.51.89-23.17,1.78-34.45.62-7.83,1.26-15.87,1.57-23.76.91-22.8,1.44-46,2-68.46l.29-12.48c.49-21.14,1.11-49.06,1.49-77.43.16-11.69.22-23.52.28-35,.07-12,.14-24.5.31-36.79.13-8.8.75-17.7,1.35-26.31l.32-4.64c.9-12.82,1.82-26.07,3.11-39.07a140,140,0,0,0,.16-19.34l-.11-3c-.28-8.41.59-16.93,1.44-25.17.54-5.22,1.09-10.62,1.34-15.92.27-5.88.24-11.88.2-17.68,0-7-.08-14.31.41-21.48,1-15,2.62-30.1,4.14-44.75.55-5.34,1.1-10.63,1.63-15.92A5.13,5.13,0,0,0,755,504a4.34,4.34,0,0,1,.65-3.56,4,4,0,0,1,3-1.34h.42a3.84,3.84,0,0,1,2.94,1.12,4.54,4.54,0,0,1,.9,3.64c0,.24,0,.46,0,.65q.24,4.68.49,9.36c.55,10.61,1.13,21.51,1.41,32.26.15,5.57.09,11.22,0,16.67-.06,6.91-.13,14.05.21,21,.38,8,1.06,16.08,1.71,23.9.82,9.78,1.66,19.85,1.95,29.79.46,15.89.35,32,.25,47.66,0,6.69-.09,13.61-.09,20.49,0,4.59-.08,9.26-.16,13.77-.17,10.05-.35,20.4.35,30.48,1,14.45.85,29.08.72,43.23-.09,8.83-.17,18,0,27,.41,19,1.12,38.33,1.8,57v.13c.42,11.6.87,23.6,1.23,35.4l.18,5.89c.72,23.41,1.47,47.62,1.79,71.48.66,49,1,89.26,1.06,126.75,0,12.88-.23,25.94-.46,38.58-.28,14.7-.56,29.9-.43,44.83.36,39.93,1.37,79.54,2.36,117.84.21,8.42.66,17,1.09,25.25.59,11.37,1.19,23,1.23,34.53,0,12.41-.48,25-1,37.18-.34,8.06-.69,16.4-.87,24.62-.59,27.43-.82,54.54-1,75.09,0,.79-.08,1.61-.16,2.41-.34,3.72-.25,5.18,2.06,5.8a13.52,13.52,0,0,0,3.38.46,12.36,12.36,0,0,0,9.07-4.27,227.48,227.48,0,0,1,16.82-15.41l.38-.33c7.24-6.18,14.67-12.37,21.86-18.36l.1-.08c15.16-12.62,30.83-25.66,45.46-39.31,21.64-20.21,38.54-37.4,53.19-54.09,10.29-11.73,20.67-22.78,29.47-32l3.45-3.63v33.5l-.47.55c-1.33,1.6-2.68,3.18-4,4.77q-3.15,3.67-6.28,7.37c-12,14.15-24.47,28.77-37.75,42.19-5.63,5.69-11.32,11.54-16.81,17.2-18,18.51-36.61,37.66-56.67,54.74-3.55,3-7.11,6.2-10.55,9.28-11.61,10.39-23.62,21.13-37.82,28.1-10.91,5.34-12.89,12-12.62,21.57.37,13.4.76,27.25,1.53,40.81l.12,2.11Z"/><path class="cls-3" d="M781.93,1517.62c-.12-.26-.28-.51-.43-.77a6,6,0,0,1-1.13-3.16c.09-7.18.23-14.47.38-21.53v-.2q.15-7.47.28-14.94l.23-13.57c.4-24,.82-48.92,1.07-73.37,0-3.34-.2-6.77-.43-10.1s-.48-6.92-.44-10.41a183.63,183.63,0,0,1,1.45-20.16,35.23,35.23,0,0,0-.52-8.77c-.93-6.54-2-14,4.79-19.43,10-8.06,20.35-15.94,30.39-23.56,13.11-10,26.61-20.21,39.33-30.94,10.2-8.61,19.88-18.23,29.25-27.52,7-7,14.29-14.19,21.75-21,14.81-13.46,26.76-29.75,38.32-45.51l2.66-3.62c3-4.09,6.09-8.62,9.43-13.85l3.69-5.75v78.7l-.06.21c-5.44,19-7.51,35.52-6.37,50.7.43,5.57.52,11.25.61,16.73.2,12,.4,24.46,4.12,36.32a9.46,9.46,0,0,0,1.32,2.31l.38.52v15.32l-.7.6c-6.63,5.64-12.4,12.64-18,19.4l-.06.08-2.8,3.38c-1.54,1.84-3,2.74-4.54,2.74-1.24,0-3.47-.62-4.5-4.77q-.76-3.09-1.58-6.18c-2.6-10-5.26-20.21-4.88-31,.31-8.6.16-17.39,0-25.89-.06-3.8-.13-7.57-.15-11.35-.07-12.41.29-28.75,3.8-45,.09-.4.19-.83.3-1.28,1.2-5.13,1.12-7.09-.3-7.56a2.56,2.56,0,0,0-.81-.15c-1,0-1.56,1.75-2.17,4.77-.16.81-.32,1.57-.51,2.24a56.52,56.52,0,0,0-1.61,10.08,80.2,80.2,0,0,1-1.07,8.06c-4.78,23.56-3.71,47.68-2.67,71,.47,10.74,1.88,24.71,8.64,37.57,1,1.84.21,4.68-2.54,9.46-5.13,8.91-21.7,30.07-27.87,30.34h0a4.15,4.15,0,0,1-3.73-2.92c-.82-4-1.59-8-2.34-12-1.48-7.78-3-15.81-5-23.56-1.16-4.58-.88-9-.61-13.33a45,45,0,0,0,0-9,143.9,143.9,0,0,1-1.11-19.06c-.07-4.7-.14-9.55-.58-14.27-.71-7.6.23-15.05,1.13-22.26a129.18,129.18,0,0,0,1.34-16.33c0-2.21-.43-2.52-.82-2.6a3.38,3.38,0,0,0-1.17.85c-.34,1.75-.71,3.51-1.07,5.27-1.31,6.28-2.64,12.7-2.92,19-.13,2.93-.29,5.86-.45,8.78v.12c-.54,9.81-1.1,20-.35,30.11.27,3.56.5,7.12.73,10.67,1.15,17.62,2.35,35.83,7.4,53.29a44.12,44.12,0,0,0,1.64,4.3c1.71,4.05,3.32,7.88,1.24,10.05-2.28,2.36-4.55,4.85-6.75,7.26-7.63,8.37-15.52,17-25.84,22.64l-2.12,1.15-.74-2.29c-7.19-22.17-9.8-44.42-12.25-69.12-1.71-17.2.18-34.24,2-50.72.64-5.73,1.29-11.66,1.79-17.5a8.92,8.92,0,0,1,.82-2.74,11.4,11.4,0,0,0,.45-1.2,3.2,3.2,0,0,0-.65-.2,1.94,1.94,0,0,0-.46-.06c-1.48,0-2.29,2.51-2.45,3.72-.6,4.64-1.31,9.36-2,13.93-1.92,12.82-3.91,26-3.79,39,.23,27.66,1.25,54.64,11.07,80.63a18.41,18.41,0,0,0,1,2c1.65,3.11,4.41,8.3-.95,12.74-1.79,1.48-3.64,2.91-5.44,4.3a107.51,107.51,0,0,0-9.33,7.79c-3.07,3-5.22,4.24-7.22,4.24-3.71,0-5.18-3.92-6.59-8.66-6.5-21.89-8.06-44.65-9.56-66.67l0-.46-.45-6.56c-.85-12-.81-24.17-.77-36,0-5.37,0-10.91,0-16.38,0-1.32-.61-1.66-1.5-1.78l-.29,0h-.15a3.05,3.05,0,0,0-.2.81c-1.82,13.93-3.59,32.23-1.11,50.26a179,179,0,0,1,1.26,18.19c.26,7.64.52,15.54,2.15,23.26.94,4.51,1.68,9.11,2.39,13.57,1.21,7.54,2.45,15.32,4.72,22.8a14.61,14.61,0,0,0,2.41,3.84c2.31,3,5.81,7.59,1,12.09-7.86,7.38-16.4,14.24-24.66,20.88-3.36,2.7-6.81,5.48-10.19,8.26-.46.39-1,.74-1.39,1l-.58.42-2,1.42Z"/><path class="cls-3" d="M785.49,1316.31a2.64,2.64,0,0,1-.89-.15c-3.73-1.3-3.62-5.21-3.55-7.55v-.41q.11-4.38.19-8.76v-.32c.11-5.36.22-10.9.41-16.38.05-1.48,0-3.07-.14-4.6-.36-6-.78-12.68,6.92-17.33,27.13-16.38,53.37-37.66,80.22-65.06,26.2-26.74,49.5-56.9,72-86.06l.9-1.16c5.79-7.48,11.43-14.81,16.78-22.21l3.62-5v59.91l-.34.51c-5.31,7.88-11.65,17.18-18.39,26.35-10.9,14.85-21.71,29.24-34.15,42.13-22.11,22.89-42.56,42.48-62.53,59.89-12.27,10.7-25.63,20.5-38.56,30-5.74,4.21-11.62,8.52-17.33,12.85-.36.27-.79.67-1.22,1.06C788.16,1315.19,786.93,1316.31,785.49,1316.31Z"/><path class="cls-3" d="M784.61,1259.08a3.31,3.31,0,0,1-2.39-1,5,5,0,0,1-1.16-3.72c.11-4.11.15-8.28.18-12.31.09-9.88.18-20.08,1.3-30a10.73,10.73,0,0,0-.89-4.22c-1.18-3.45-3-8.67,3.66-12.57a441.27,441.27,0,0,0,80.16-61c24.46-23.31,52.15-51.84,72.11-86.63,6.86-12,14-23.55,20.72-34.28l3.7-5.91v68.46l-9.92,12.66q-6.14,7.82-12.27,15.64-5.14,6.55-10.25,13.16c-8.15,10.5-16.58,21.36-25.2,31.78l-3.76,4.54c-11.23,13.59-22.85,27.65-35.49,40.34-11.22,11.25-23.73,21.51-35.84,31.44l-.31.26-6.45,5.29c-9,7.47-18.55,14.64-27.74,21.57l-7.11,5.37A5.16,5.16,0,0,1,784.61,1259.08Z"/><path class="cls-3" d="M786.39,1190.18a3.57,3.57,0,0,1-2.6-1.08c-1.25-1.26-1.83-3.55-1.8-7.21.07-9.51-.21-19.19-.49-28.55-.14-4.81-.28-9.58-.38-14.35,0-.93.43-3.07,2.09-3.6,8.29-2.74,15.6-7.72,22.66-12.53,2.46-1.68,5-3.41,7.57-5,24.91-15.8,48.39-35.91,69.77-59.79,20-22.39,42.76-49.55,59.18-81.23,5.12-9.86,10.91-19.52,15.9-27.66l3.71-6v59.4l-.34.51c-4.44,6.59-7.82,11.68-10.94,16.49-3.58,5.49-7,11.23-10.37,16.79-6.43,10.7-13.05,21.72-20.91,31.59-23.07,29-43.74,51.26-65,70.19a668.64,668.64,0,0,1-61,48c-.31.21-.76.6-1.2,1C790.57,1188.44,788.52,1190.18,786.39,1190.18Z"/><path class="cls-3" d="M781.07,1118.7c0-10.24,0-19.92,0-29.77,0-.85-.1-1.76-.19-2.64-.35-3.36-.78-7.52,3.66-11l1.33-1.06c22.88-18.13,46.53-36.89,68-57.47,2.36-2.26,4.74-4.5,7.11-6.75,9.38-8.86,19.07-18,27.61-28q3.39-3.94,6.81-7.86c12.21-14,24.83-28.58,34.5-45.11,6.29-10.73,13.72-21,20.9-30.89l4.35-6,1,4.33c2,8.91,4,18,5.83,27l0,.15v18.3l-.34.51q-5.45,8.05-10.85,16.12l-.1.15c-12.72,18.94-25.87,38.52-39.42,57.38a396.06,396.06,0,0,1-58.13,64.73c-19,16.91-42,36.32-69.1,52l-3,1.74Z"/><path class="cls-3" d="M781.71,1069c-.06-.36-.13-.73-.2-1.09a22.84,22.84,0,0,1-.43-2.86c-.26-4.08-.16-8.17-.07-12.14.17-7.14.34-14.54-1.66-21.63-.89-3.12-1.71-10.82,1.59-13.34,10.77-8.24,24.86-19.31,38.26-31.75,24.45-22.73,43.52-42.29,60-61.56,20.85-24.38,38.58-51.79,55.73-78.29l6.73-10.4,1.13,4.45c4,15.63,7.73,31.35,11.23,46.73l.21.92-.58.75a37.1,37.1,0,0,0-2.61,3.76c-14.84,24.56-32.84,49.08-55,75a703.8,703.8,0,0,1-54.9,56.66c-11.83,11-24.71,21.27-37.17,31.16-5.39,4.28-10.95,8.71-16.35,13.13a20.25,20.25,0,0,1-2,1.41l-.76.48-2.56,1.69Z"/><path class="cls-3" d="M780.29,1013.57a7.83,7.83,0,0,0-.33-.73,6.68,6.68,0,0,1-.85-2.85c-.07-14.45-.07-29.09,0-43.53,0-.12,0-.25,0-.38a5,5,0,0,1,2.37-4.81c8.41-5.83,15.64-11.33,22.12-16.83A470.25,470.25,0,0,0,864.86,882l4.21-5.19c13.67-16.81,27.79-34.19,39.82-52.58,5.61-8.59,11.66-18.06,18.49-28.94l2.41-3.85,1.21,4.38c3.24,11.75,6.48,23.87,9.61,36l.22.89-.52.75-10.68,15.44-.07.1c-8.42,12.18-17.12,24.77-25.81,37-17.62,24.93-38.35,49.52-63.39,75.18C828,973.88,814.88,986.15,802.17,998c-5.28,4.93-10.75,10-16.09,15.11a6.48,6.48,0,0,1-2.41,1.29,5.52,5.52,0,0,0-.69.26l-1.93.86Z"/><path class="cls-3" d="M777.89,959.07c-.08-.47-.18-1-.28-1.42a21.58,21.58,0,0,1-.52-3.47c-.11-3.38-.31-6.82-.5-10.14-.49-8.67-1-17.62-.15-26.37a36,36,0,0,0,0-4.31c-.12-4.77-.28-10.71,5.52-15.6,18.69-15.73,35.39-30.85,51.06-46.23,13.94-13.69,26.1-29.44,37.87-44.67,4.18-5.42,8.51-11,12.86-16.46,10.72-13.4,21.14-26.55,30.78-40l2.38-3.32,1.17,3.91c3.43,11.48,6.83,23.18,10.1,34.79l.25.91-.55.78c-8.86,12.59-18.27,26.16-27,40-18,28.56-40.45,54.49-60.08,76.55-12,13.44-25.51,25.8-38.61,37.74-5.64,5.15-11.4,10.4-17,15.66a16.62,16.62,0,0,1-3,2.15c-.43.26-.85.51-1.26.78l-2.57,1.72Z"/><path class="cls-3" d="M777.61,890.75q-.29-2.78-.53-5.54c-.17-2-.53-4.08-.88-6.12-.85-5-1.73-10.11-.24-14.68.86-2.64.81-5.48.75-8.47-.1-5.76-.22-12.28,6.56-18.13a615.47,615.47,0,0,0,55.66-55c15.32-17.1,26.24-30.86,35.4-44.61,2.08-3.12,4.18-6.24,6.27-9.35,6.2-9.18,12.57-18.63,18.33-28.17l2.26-3.75,1.35,4.16c4.39,13.48,8.61,26.92,12.57,39.93l.29.93-.56.8c-8.72,12.45-20.41,28.75-33.42,44.35-5.53,6.62-10.94,13.54-16.16,20.23-11.91,15.25-24.22,31-38.91,44.47-8.53,7.83-16.92,16.13-25,24.16-4.54,4.49-9.21,9.12-13.86,13.62A31.49,31.49,0,0,1,782.9,893c-.67.44-1.3.87-1.92,1.31l-2.82,2Z"/><path class="cls-3" d="M779.68,837.26l-.52,0c-1.86-.17-2-2-2.09-3.51a12.53,12.53,0,0,0-.26-2.2c-.93-3.36-.58-6.74-.25-10,.27-2.61.53-5.08,0-7-6.89-24.09,5.1-40.91,16.32-52.87l6.64-7c11.25-12,22.84-24.25,33.58-37s24.6-29.89,35.93-49c3.8-6.43,7.6-13.44,11.61-21.45l2.11-4.21,1.57,4.43c5.14,14.53,10.15,29.18,14.9,43.52l.28.84-.44.77c-4.09,7.28-7.44,13.13-10.56,18.41a367.47,367.47,0,0,1-22,33.79,251,251,0,0,1-17.18,19.78c-2.23,2.38-4.52,4.84-6.75,7.3q-5.13,5.69-10.22,11.42l-.1.1C822.75,794,813,804.94,802.75,815.23c-1.54,1.55-3.07,3.24-4.55,4.88-4.45,4.91-9,10-15.34,13.21a3.67,3.67,0,0,1-.72,2.95A3.19,3.19,0,0,1,779.68,837.26Z"/><path class="cls-3" d="M775.06,772.9c0-3.11.06-6.2.12-9.19a185.15,185.15,0,0,0-.27-19.5c-1.08-12.79-1.07-25.22,10.71-36.83,13.18-13,24.53-28.2,35.51-42.89l.17-.23c2.8-3.74,5.69-7.61,8.57-11.38a487,487,0,0,0,34.21-51.11l2.11-3.65,1.49,3.94c4.52,11.92,8.7,23.23,12.78,34.56l.3.83-.41.78c-3.41,6.5-7.09,13.26-11.24,20.65-18.65,33.29-43,61.51-66.27,87.56-5.52,6.17-10.78,12.24-16.36,18.67l-7.91,9.11-3.51,4Z"/><path class="cls-3" d="M774.37,706.68c.07-1,.18-2,.28-3a39.41,39.41,0,0,0,.35-6c-.44-9.49-1-19.14-1.55-28.47l-.5-8.55c-.21-3.8,1-6.58,4-9.6,8.79-8.65,15.94-16.09,22.26-24.25,4.82-6.24,9.43-12.85,13.89-19.25,5.51-7.91,11.2-16.08,17.39-23.67a158.75,158.75,0,0,0,16.58-25.28l2-3.75,1.59,4c4.62,11.42,8.85,22.11,12.93,32.7l.34.89-.48.83q-4.07,7.05-8.09,14.13c-18.29,32.09-40.38,59.64-67.36,92.31-.45.55-.89,1.13-1.34,1.72-2.27,3-5.09,6.68-10.09,7.4l-2.46.35Z"/><path class="cls-3" d="M787.06,1618v-22.11l3.2,2.4c10.87,8.16,22.57,11.15,36.79,13.12,5,.69,10.28,1.5,17.21,2.62l1.37.22-.31,3.75Z"/><path class="cls-3" d="M771.06,650c0-5.39,0-10.5,0-15.42v-.3c0-12.41,0-23.12-.07-34.08,0-.78,0-1.57-.08-2.36-.2-4.05-.42-8.63,3.49-12.15,11.3-10.18,19.85-23,28.11-35.45l2.27-3.4c8.42-12.6,15.75-25.77,21.82-37l2-3.61,1.64,3.76c5.48,12.54,10.91,25.37,16.16,38.14l.36.87-.44.82c-1.26,2.4-2.26,4.33-3.14,6.09-7.44,14.8-17.26,28.14-26.76,41q-2.89,3.93-5.77,7.87c-7.3,10.07-15.19,20-23.54,30.58-4,5-8.1,10.24-12.44,15.81l-3.58,4.59Z"/><path class="cls-3" d="M768.81,582.52c0-3.79.18-7.4.34-10.89.35-7.12.68-13.82-.66-19.91-3.92-17.86-.31-32.16,11.71-46.37a238.73,238.73,0,0,0,26.65-39.28l1.9-3.43,1.66,3.55c5.34,11.38,10.67,23.08,15.84,34.78l.4.91-.48.87c-1.43,2.55-2.84,5.1-4.25,7.64l-1.18,2.13c-13.1,23.57-28.92,46.87-48.37,71.25l-3.56,4.46Z"/><path class="cls-3" d="M767.47,512.64c-2.49-8.52-2.44-17.07-2.4-25.33,0-2.76,0-5.57-.05-8.31a29.89,29.89,0,0,0-.82-5.18c-.83-3.82-1.78-8.15.59-12,7.74-12.65,15.48-26.32,19.61-40.62l1.38-4.79,2.31,4.42c3.72,7.13,9.84,19.16,17.86,36l.45.93-.5.9A523.31,523.31,0,0,1,771,513.26l-2.4,3.28Z"/><path class="cls-5" d="M758.79,455.21c-4.93,0-6.15-7.64-6.74-11.3-.07-.49-.13-.91-.18-1.09-5-17.2-9.87-37.3-4.75-58.17,2.75-11.26,12-14.19,19.8-15.47l.53-.09.5.19a22,22,0,0,1,14.61,17.84c2.65,20.35-2.58,40.93-15.56,61.16C764,453,761.36,455.21,758.79,455.21Z"/><path class="cls-3" d="M751,484.84a286.68,286.68,0,0,1-28.74-47.57l-.46-1,.57-.92c6.61-10.54,11.58-17.52,14.59-21.52l3-3.93.62,4.87c1.31,10.17,4.68,21.05,10,32.34,5,10.49,4.61,19.59,4.24,29.23-.09,2.39-.18,4.83-.19,7.32l0,6.07Z"/><path class="cls-3" d="M740.39,575.1A355.11,355.11,0,0,1,682,513.64l-.71-.95.49-1.09c5.36-11.62,10.85-22.89,16.33-33.5l1.56-3,1.88,2.82c10.29,15.42,23.13,31,39.26,47.57a11,11,0,0,0,2.65,1.66c2.31,1.19,5.79,3,5.31,7.41-1.06,9.68-2.41,19.36-3.71,28.73-.5,3.6-1,7.09-1.46,10.55l-.48,3.56Z"/><path class="cls-3" d="M744.7,523.06c-6.57-4.71-11.13-11.27-15.53-17.62A116.72,116.72,0,0,0,721,494.61a240.27,240.27,0,0,1-18.37-22.74l-.69-1,.57-1.08c4.69-8.8,9.48-17.29,14.22-25.25l1.86-3.1,1.64,3.22c4.69,9.18,10.39,18.07,15.9,26.66l.42.66c1.28,2,2.66,4,3.88,5.84,8.84,13.08,18,26.6,7.14,44.64l-1.11,1.86Z"/><path class="cls-3" d="M737.57,620.58c-1.88,0-4.05-1.57-9.84-5.76-18.26-13.21-33.77-29.92-47.46-44.68C675,564.5,670,558.58,665.2,552.54l-.72-.92.44-1.08c4.3-10.48,8.71-20.78,13.12-30.59l1.47-3.29,2,3a107,107,0,0,0,11,14.14c3.19,3.39,6.29,7,9.29,10.4,6.83,7.84,13.87,15.92,22.34,22.32.84.65,1.71,1.28,2.57,1.92,10,7.41,21.35,15.79,15.22,33.11-.92,2.58-.94,5.73-1,8.77,0,1.19,0,2.33-.06,3.45v.12C740.79,617.48,740.66,620.58,737.57,620.58Z"/><path class="cls-3" d="M733.56,680.13c-.85-.81-1.57-1.56-2.27-2.29a20.36,20.36,0,0,0-3.46-3.13c-16.93-10.8-31.37-24.81-45.33-38.35-6.54-6.35-13.29-12.91-20.2-19a130.27,130.27,0,0,1-15.58-16.58l-.69-.87.38-1c4.79-13.35,9.79-26.57,14.87-39.3l1.3-3.25,2.14,2.76c9,11.57,19.17,22,27,29.72l5.35,5.32c10.08,10,20.48,20.42,32.76,28.31a24,24,0,0,0,2.65,1.34c3.86,1.77,9.69,4.44,7.82,12.35l-.72,3A84.8,84.8,0,0,0,737.08,653c-.39,5.86-.31,11.66-.22,17.8,0,2.62.08,5.26.08,7.92v4.66Z"/><path class="cls-3" d="M731.8,718.62a6.32,6.32,0,0,1-2.83-.86c-16.52-8.31-32.58-19.64-49.1-34.62-4.63-4.19-9.43-8.39-14.06-12.45-11-9.6-22.29-19.5-32.47-30.27l-.82-.86.37-1.13c3.5-10.76,7-21.24,10.51-31.15l1.18-3.35,2.25,2.74c10.52,12.75,22.91,24.19,34.9,35.25,2.47,2.28,4.95,4.56,7.4,6.86,2.74,2.55,5.45,5.2,8.07,7.76,7.27,7.1,14.75,14.41,23.25,20.17a36.77,36.77,0,0,0,5,2.63c5.06,2.33,10.79,5,11.26,12.64a77.75,77.75,0,0,1-.93,14.41c-.31,2.41-.62,4.91-.81,7.34,0,.22,0,.45,0,.66C734.86,715.65,734.7,718.62,731.8,718.62Z"/><path class="cls-3" d="M729.54,774.84c-1.07-.6-2.13-1.17-3.18-1.74-2.43-1.32-4.72-2.55-7-4C701.23,757,682,744,664.32,728.86c-18.8-16-32.69-29.21-45-42.73l-.75-.83.31-1.08c3.7-12.8,7.55-25.46,11.42-37.64l1-3.2,2.33,2.42c4.19,4.37,8.68,8.63,13,12.76,3.87,3.67,7.85,7.44,11.64,11.31a182.14,182.14,0,0,0,13.87,12.34c3.53,2.93,7.13,5.92,10.52,9.06,10.17,9.43,21.77,17.4,33,25.09l2,1.37a22.17,22.17,0,0,0,6,2.38c4.76,1.4,10.68,3.13,10.92,10.13.06,1.73.13,3.46.2,5.19v.26c.5,12.34,1,25.1-2.32,37.92l-.66,2.51Z"/><path class="cls-3" d="M729.59,833.81c-.48-.19-1-.36-1.46-.53a17.07,17.07,0,0,1-3.71-1.66c-3.21-2.07-6.51-4.14-9.69-6.14-8.44-5.29-17.09-10.73-25.16-16.75-18.15-13.53-35.63-27.37-56.29-44-10.7-8.6-19.18-19.38-27.38-29.8l-.67-.86.24-1c3.47-13.46,7.09-26.87,10.78-39.87l1-3.47,2.42,2.68a414.2,414.2,0,0,0,49,46.56c1.71,1.36,3.43,2.73,5.14,4.11l.16.12c13.58,10.89,27.62,22.14,43.37,30.06,16.44,8.28,17.35,17.72,15.88,26.69-1,5.87-.72,12.14-.49,18.21.11,3,.23,6,.21,9a22.56,22.56,0,0,1-.38,3.56c-.07.47-.15,1-.21,1.42l-.32,2.58Z"/><path class="cls-3" d="M730,902.64a6.72,6.72,0,0,1-3.56-1.46c-4.2-2.73-8.55-5.38-12.76-7.95-6.68-4.06-13.56-8.25-20-12.88-14.74-10.61-27.78-20.79-39.86-31.13a292.35,292.35,0,0,1-47.16-51c-3.15-4.36-6.65-8.6-10-12.7l-3-3.61.22-1c3-13.25,6.18-26.31,9.34-38.81l1-3.89,2.51,3.13c10.18,12.67,21.49,26,35.18,37.68a635.44,635.44,0,0,0,76.43,56.35A22.42,22.42,0,0,0,723,837.3c4.14,1.33,9.29,3,9.6,8.83.64,11.87.53,23.93.42,35.6,0,5.22-.1,10.61-.08,15.93,0,1.64-.06,3.19-1,4.18A2.68,2.68,0,0,1,730,902.64Z"/><path class="cls-3" d="M729.72,955.06a8.36,8.36,0,0,1-4.09-1.67c-6.19-3.88-12.52-7.76-18.65-11.51l-.19-.12q-7.49-4.57-14.95-9.2c-13.57-8.44-25.76-18.94-37.55-29.09-5.36-4.62-10.9-9.38-16.48-13.88a267.74,267.74,0,0,1-41-41.13c-4.42-5.54-8.88-11.18-13.25-16.77L583,831l.19-.91c2.75-13.5,5.65-27.07,8.63-40.32l1-4.32,2.6,3.59c3,4.18,5.34,7.46,7.49,10.62A304.57,304.57,0,0,0,663.07,865c17.11,13.87,37.71,29.66,60.85,41.57a12.6,12.6,0,0,0,2.66.77c2.42.52,6.93,1.5,6,5.91-2.25,10.46-1.23,21-.23,31.29v.11c.17,1.79.34,3.59.5,5.4.12,1.32.12,3-.91,4.1A3,3,0,0,1,729.72,955.06Z"/><path class="cls-3" d="M726.81,1011.71a8.09,8.09,0,0,1-4.13-1.42c-7.27-4.41-14.82-8.64-22.12-12.73-15.57-8.72-31.67-17.74-46.12-29.07-5.57-4.36-11.32-8.69-16.88-12.88-15.38-11.57-31.24-23.52-45.07-37.47-7.38-7.44-14.32-15.25-20.81-22.61l-.63-.72.16-.94c3-17.56,6.31-35.22,9.73-52.5l.86-4.34,2.69,3.51c7.28,9.49,15.11,18.29,21.11,24.9,9.55,10.52,20.62,20,31.32,29.09,6.85,5.84,13.92,11.87,20.54,18.14,19.43,18.39,41.63,31.62,58.8,41.09,10.37,5.73,16.25,11.48,15.63,23.88l-.16,3.08c-.42,8.18-.85,16.62-.65,24.87.06,2.29-.41,3.92-1.44,5A3.85,3.85,0,0,1,726.81,1011.71Z"/><path class="cls-3" d="M725.14,1075.39c-2-4.17-4.53-5-7.17-5.86a17,17,0,0,1-3.33-1.38c-19.37-11.5-34.69-21.28-48.2-30.76-11-7.69-21.63-16.12-32-24.26q-5.82-4.61-11.66-9.16c-3.58-2.78-7.27-5.54-10.85-8.21-9.07-6.76-18.44-13.76-26.75-21.68-7.73-7.38-14.71-15.21-22.37-23.94l-.61-.7.13-.92c2.31-15.42,4.72-30.52,7.16-44.89l.72-4.25,2.78,3.29c23.2,27.42,51.53,49.43,78.68,69.12l.38.27c17.76,12.87,34.52,25,54.26,34l1.63.73c11.24,5,26.64,11.92,21.34,32.76-1.68,6.59-1.29,13.76-.84,22.06.22,4.12.45,8.37.45,12.94v1.19l-3.27.76Z"/><path class="cls-3" d="M723.39,1128.94a9.08,9.08,0,0,1-3.82-1c-7.87-3.75-15.69-7.84-23.25-11.79-3.81-2-8.13-4.25-12.29-6.37-18.42-9.38-35.27-21.62-51.57-33.47l-5.6-4.07c-16.64-12-33.84-24.51-49.11-39q-6.79-6.4-13.57-12.86l-.52-.49-9.1-8.63-.73-.69.13-1c2.14-17,4.51-34.41,7-51.7l.65-4.46,2.87,3.48c13.62,16.49,26.85,29.58,40.47,40,21.61,16.6,44.07,33.16,68.66,50.64,5.41,3.84,11.23,7.36,16.87,10.77a226.91,226.91,0,0,1,20.69,13.56c1.5,1.15,3.75,1.67,6.14,2.21,5.14,1.17,12.19,2.78,11.62,13.06-.28,5-.25,10.13-.21,15.09,0,5.66.08,11.47-.34,17.19,0,0,0,.44,0,.44.12,1.78.37,5.49-1.61,7.61A4.59,4.59,0,0,1,723.39,1128.94Z"/><path class="cls-3" d="M721.4,1186.05a19.27,19.27,0,0,1-6.41-1.59c-23.76-9-44.82-23.34-65.19-37.19-5.64-3.83-11.46-7.78-17.26-11.58-20.22-13.19-38.88-29.12-56-44.37-10.19-9-19.71-19.12-28.11-28l-.64-.67.1-.91c1.51-14.08,3.14-28.3,4.86-42.26l.47-3.92,2.88,2.7c.79.75,1.59,1.49,2.39,2.23l1.06,1c14.49,13.49,31.74,29.25,49.9,43.88,15.9,12.82,33.3,24.77,48.65,35.32,10.66,7.32,22.46,13.18,33.88,18.84,5.44,2.7,11.07,5.5,16.54,8.43a27.52,27.52,0,0,0,5.16,1.8c5.94,1.68,14.06,4,13.41,15.14-.56,9.52-1,20.56.12,31.12.45,4,0,6.64-1.55,8.33A5.5,5.5,0,0,1,721.4,1186.05Z"/><path class="cls-3" d="M722,1238.4q-10-4.9-19.38-9.59c-4.85-2.41-9.6-4.78-14.33-7.1-24.83-12.23-49.48-27.89-77.58-49.29-17.55-13.36-37.44-28.49-54-46.89-4.25-4.75-8.83-9.41-13.14-13.74l-.66-.66.09-.93c1.15-12.64,2.38-25.26,3.66-37.51l.45-4.35,3,3.19c7.27,7.75,15.3,15,23.06,22l1.66,1.51a584.69,584.69,0,0,0,62.8,49.07q5.57,3.8,11.09,7.63l.12.09c18.88,13.06,38.4,26.56,60.07,35.78a28.1,28.1,0,0,0,5.18,1.36c5,1,11.82,2.37,12.33,9.89.59,8.93-.12,18-.81,26.75-.29,3.66-.58,7.42-.77,11.08l-.16,3Z"/><path class="cls-3" d="M720.07,1288.71a2.57,2.57,0,0,1-1.11-.24c-8.87-4.2-17.62-8.49-26-12.76-36-18.31-66.71-39-94-63.31-4-3.59-8.2-7.18-12.24-10.66-11-9.51-22.43-19.34-32.36-30.24-3.81-4.19-7.38-8.71-10.83-13.08-1.21-1.52-2.42-3.05-3.64-4.57l-.5-.62.07-.79c.91-11.61,1.79-22.21,2.69-32.42l.42-4.77,3.1,3.66c2,2.33,4,4.65,6.07,6.9,17.67,19.31,38.33,37.49,65,57.21,31.84,23.52,59.44,40.3,86.85,52.81,1.71.78,3.55,1.44,5.5,2.14,8.9,3.2,20,7.19,16.33,24.19l-.15.69c-1.5,7-3.2,14.83-.7,22.09l.35,1-.66.86A7.61,7.61,0,0,1,720.07,1288.71Z"/><path class="cls-3" d="M721.42,1502.49a77.88,77.88,0,0,1-5.76-6.3c-2.81-3.3-5.44-6.42-9.09-8.58-2.29-1.36-9.23-5.51-8.2-12.72.68-4.8,1.44-9.61,2.16-14.27,1.7-10.84,3.45-22,4.34-33.06a220.21,220.21,0,0,0-3-55.2c-.3-1.7-1.75-3.53-3.15-5.29-.33-.42-.67-.84-1-1.27l-.56.39a112.81,112.81,0,0,0,.48,12.89c.28,3.15.66,6.35,1,9.44.66,5.52,1.33,11.21,1.47,16.86a122.06,122.06,0,0,1-.56,12.74,110,110,0,0,0-.51,13.32c.53,12-1.52,23.63-3.5,34.83q-.5,2.81-1,5.59l-.62,3.66-2.72-2.54c-1-1-2.09-1.86-3.13-2.75a36,36,0,0,1-6.69-6.76,12.07,12.07,0,0,0-3.92-3.07c-3.31-2-7.43-4.46-6.59-11,1.51-11.72,2.83-24.61,4.06-39.41s-.7-29.47-2.56-43.8c-.58-4.42-1.17-9-1.67-13.52,0-.31-.06-.64-.1-1-.31-3.33-.75-6.3-2.71-6.3a2.11,2.11,0,0,0-.35,0c-.84.09-1.26.14-.88,4.1a20.7,20.7,0,0,1,.13,3.33c-.59,8.05.49,16.25,1.52,24.18.55,4.17,1.11,8.48,1.43,12.76.64,8.41,0,16.77-.61,24.85-.65,8.55-1.33,17.38-.43,26a6.81,6.81,0,0,1-1,3.77c-.19.4-.38.76-.5,1.09l-.83,2.25-2.07-1.23c-.33-.2-.68-.38-1-.56a10.68,10.68,0,0,1-2.88-1.91c-.85-.85-1.72-1.68-2.59-2.52a49.87,49.87,0,0,1-7.71-8.62c-1.16-1.81-3.3-3.3-5.36-4.75-3.74-2.63-8.4-5.9-7.32-12a232.71,232.71,0,0,0,3.73-42.29,192.74,192.74,0,0,0-6.31-50.11c-.42-1.58-2-3.19-3.62-4.75l-.87-.87a14.46,14.46,0,0,0-1.14,1.42,102.76,102.76,0,0,1,2.53,15.3c.4,3.45.8,7,1.45,10.43,4.53,23.54,4.83,45.7.93,67.76l-.76,4.3-2.76-3.39-1.43-1.73-.08-.1c-1.08-1.3-2.2-2.64-3.25-4a66.34,66.34,0,0,0-8.74-8.84c-7.85-7-16.76-15-14.87-31.37,3.87-33.51-.31-61.33-12.78-85a10.49,10.49,0,0,1-.55-1.28q-.09-.21-.15-.39c-2.34,1.18-2.14,1.61-2,2,3.47,7.73,4.82,15.94,6.13,23.89.75,4.58,1.53,9.3,2.71,13.82,3.72,14.31,3.48,28.72,3.23,44-.06,3.82-.13,7.77-.13,11.77v4.94l-9.84-10.17c-5.4-5.58-10.3-10.65-15.17-15.72-.81-.85-1.87-1.74-2.89-2.61-2.82-2.39-5.72-4.86-5.88-8-.22-4.49-.24-9-.25-13.38,0-8.08-.08-16.42-1.38-24.64-3-19-7.08-34.45-12.82-48.5-1.2-2.91-2-3.22-2.32-3.22a1.21,1.21,0,0,0-.4.09c-1.47.6-1.66,2.08-.73,5.65,1,3.9,2.3,7.84,3.51,11.65,1.69,5.29,3.43,10.74,4.63,16.25q.6,2.75,1.22,5.49c3,13.58,6.2,27.62,3.89,42.41l-.66,4.21-5.39-6.11c-2.15-2.42-4.15-4.68-6.11-7-2.4-2.81-5.12-5.48-7.76-8.08-9-8.82-18.23-17.93-17.71-34.14.58-18.21-2.57-37.18-9.64-58l-.82-2.4,2.53-.23c5-.46,9.77-.7,14.31-.7,2.36,0,4.22.07,5.53.14.41-7.28.86-14.83,1.34-22.48l.37-5.73,3.27,4.72c5.11,7.35,10.72,14.61,17.14,22.19,18.75,22,40.87,43.16,67.61,64.58,11.26,9,23.47,18.48,36.49,26.64,3.49,2.19,6.95,4.54,10.3,6.8,7.67,5.19,15.61,10.56,24.15,14.27l3.58,1.52c15.1,6.39,30.69,13,24.19,36.62-.89,3.24-.62,7-.35,10.73.1,1.34.2,2.71.25,4.06.14,4,.34,8,.54,11.91.41,8.23.84,16.72.7,24.93-.05,3-.12,6.09-.19,9.13v.26c-.33,15-.67,30.47.68,45.67a121.7,121.7,0,0,1,.2,13.69c0,2.24-.1,4.51-.1,6.86v4.69Z"/><path class="cls-3" d="M720.33,1340.63a5,5,0,0,1-1.66-.23c-25.88-9.14-48.52-24.27-70.4-38.91-16.67-11.14-31.83-25-46.5-38.44l-.24-.22-5.37-4.9c-24.31-22.13-43.66-43.3-59.15-64.72l-.42-.58,0-.72c.63-9.46,1.32-19.33,2.07-29.33l.37-5.1,3.19,4a328.14,328.14,0,0,0,46.91,48.1c5.63,4.69,11.31,9.5,16.81,14.15,9.74,8.23,19.77,16.71,29.84,24.83,11.83,9.54,25.55,16.61,38.83,23.45l.1,0c2.09,1.08,4.17,2.15,6.25,3.24,3.64,1.9,7.45,3.64,11.13,5.33a157.92,157.92,0,0,1,17.7,9.06,16.67,16.67,0,0,0,4.49,1.57c4.11,1,9.73,2.47,9.74,9.76,0,3.16-.27,6.33-.53,9.39-.54,6.37-1.11,12.95.94,19.27.74,2.28.08,4.78-.5,7-.18.69-.38,1.47-.52,2.16C723.11,1340.63,721.09,1340.63,720.33,1340.63Z"/><path class="cls-3" d="M375.32,1618l-.67-3.38,1.13-.47a72.13,72.13,0,0,0,13-6.83,5.75,5.75,0,0,0,1.29-1.39,11.08,11.08,0,0,0-1.13.24c-.48.11-1,.23-1.44.31-7.29,1.18-14.22,4.25-20.92,7.22-1.36.61-2.72,1.21-4.06,1.79-1.91.82-3.9,1.62-5.91,2.38l-.26.1-.36,0H178.82l2.94-3.32c5.55-6.29,14-7.09,20.78-7.09,2.1,0,4.12.08,6.09.16l.75,0c2.56.11,5.22.16,7.92.16,12.95,0,25.4-1.19,38.59-2.46a308.23,308.23,0,0,0,94.36-24.24l3.39-1.48c11.9-5.18,24.19-10.53,34.79-18.35.24-.18.5-.36.78-.55,2.6-1.82,2.62-2.27,2.39-2.63l-.06-.09a7.94,7.94,0,0,0-2.19,1c-.51.29-1,.58-1.48.81-5.1,2.44-10.25,5.08-15.22,7.62-11.87,6.08-24.14,12.36-36.92,16.64-18.94,6.35-40.21,11.55-66.91,16.35-21.66,3.89-43.83,4.39-60.72,4.39q-4.54,0-9.09,0c-1.71,0-5.19-.65-6.14-3a3.2,3.2,0,0,1,.87-3.6c1.76-1.79,2.76-4.41,3.81-7.18,2.23-5.88,4.76-12.55,15.28-12.55h.89c.89,0,1.77,0,2.66,0,11,0,22.22-2.41,33.05-4.74,3.73-.8,7.52-1.62,11.26-2.33,16.24-3.1,32.14-8.14,47.52-13,4.38-1.39,8.75-2.78,13.13-4.12,16.33-5,31.46-13.78,46.09-22.25,7.35-4.26,14.95-8.66,22.66-12.56.89-.45,1.09-.83,1.14-1a2.49,2.49,0,0,0-.4-1.51c-.21-.41-.34-.41-.46-.41a3.29,3.29,0,0,0-1.71.76,35.28,35.28,0,0,1-5.08,3.21c-4.87,2.37-9.79,4.82-14.54,7.2l-.77-1.3.67,1.34c-20.42,10.2-41.54,20.74-64.26,27.63-30.74,9.35-58.56,17.27-87.84,19.56-.45,0-.9,0-1.35,0-.9,0-1.78,0-2.63-.11l-1.71-.09-2.6-.09.76-2.49c.19-.66.36-1.54.52-2.39.46-2.53.95-5.14,3-6,3.15-1.28,4.52-3.86,6.1-6.85a23.37,23.37,0,0,1,3.87-5.81,9.38,9.38,0,0,0,1-2.59c.47-1.63,1-3.47,2.87-3.47h1.39a68.48,68.48,0,0,0,20.14-2.81c7.45-2.22,15.19-3.79,22.67-5.3,6.88-1.4,14-2.84,20.76-4.76a318.84,318.84,0,0,0,58.06-23.06c14.71-7.55,28.19-17.43,41.22-27l1-.74a5.85,5.85,0,0,0,1.44-2.08c-.37.29-.74.58-1.13.83-2.64,1.67-5.26,3.38-7.87,5.09-5.31,3.45-10.79,7-16.38,10.26-20,11.56-37.19,19.49-54.21,25-15.63,5-31.72,9.6-46.76,13.78-8,2.21-15.91,4.15-24.31,6.21-3.8.93-7.64,1.86-11.57,2.85l-4.44,1.11,2.2-4c.94-1.73,1.75-3.37,2.54-5a43.29,43.29,0,0,1,5.19-8.77c1.56-1.87,2.52-4.59,3.45-7.21,2-5.62,4.23-12,12.81-12.59,21.68-1.49,41.93-8.66,58.87-15.48a168.7,168.7,0,0,0,17.16-8.48c5-2.73,10.25-5.56,15.64-7.88,16.26-7,30.88-17.29,45-27.22l.35-.26,5.59-3.91a2.82,2.82,0,0,0,.31-.86,5.54,5.54,0,0,0-1.93.63c-18.05,11.46-37.32,21.29-55.95,30.79l-.2.1c-5.3,2.71-10.79,5.51-16.17,8.3-21.32,11.1-43.54,16.12-64.38,19.89a7.92,7.92,0,0,1-1.32.11,17.75,17.75,0,0,1-2.28-.2c-.44-.06-.88-.13-1.31-.15l-2.31-.16.5-2.27c0-.14,0-.29.07-.44a5.35,5.35,0,0,1,.51-1.83c.82-1.57,1.6-3.22,2.36-4.83a61.75,61.75,0,0,1,6.56-11.59,25.77,25.77,0,0,0,3.31-6.94c1.83-5,3.9-10.75,11-12.51a68.32,68.32,0,0,1,9.86-1.43,52.68,52.68,0,0,0,10.91-1.8c20-6.37,38-12.63,54.9-19.13,13.63-5.23,26-13.53,37.91-21.55,3.25-2.18,6.6-4.43,10-6.61.45-.29.91-.53,1.4-.79a8.5,8.5,0,0,0,1.72-1.06.41.41,0,0,0-.06-.11,1.7,1.7,0,0,0-1.7-1,5.9,5.9,0,0,0-2.91,1c-3.1,1.92-6.21,4-9.22,5.93-5.6,3.67-11.35,7.44-17.32,10.65a357,357,0,0,1-38.12,17.14c-10.4,4.1-21.21,6.9-31.67,9.6-4.57,1.19-9.3,2.41-13.92,3.72a12.29,12.29,0,0,1-3.33.37c-.32,0-7.8,0-8.81-2l-.54-1.07.67-1a54.1,54.1,0,0,0,5.49-10.17c3.92-8.69,8.37-18.53,21.94-19.53.63-.05,1.29-.07,2.16-.07h2.21a13.86,13.86,0,0,0,4.07-.44c15.85-5.08,31.78-12.54,50.11-23.5,11-6.57,21.7-14.1,32.05-21.38l.19-.13,5.65-4a4.31,4.31,0,0,0,.52-1.51c-3.46,2-6.95,3.88-10.35,5.75-9.57,5.29-19.44,10.73-28.6,16.83-17.31,11.53-37.14,20.09-64.32,27.75a4.4,4.4,0,0,1-1.16.17,2.86,2.86,0,0,1-2.73-1.75,3.87,3.87,0,0,1,.59-3.87c2.62-2.82,3.9-6.66,5.25-10.72,2.44-7.34,5.22-15.67,17-18.34,9.79-2.23,19.23-7.51,28.37-12.62,2.51-1.41,5.09-2.85,7.63-4.21l5.69-3,.17-.09c14.92-7.88,30.35-16,43.49-27.13.59-.49,1.81-1.51,1.84-2,0-.08-.09-.26-.3-.51s-.21-.19-.23-.19h0a5.68,5.68,0,0,0-1.82.91l-.67.43c-25.51,15.54-53.31,31.62-83.67,44a11.87,11.87,0,0,1-2,.55c-.24,0-.48.09-.71.15l-2.36.58-.12-2.42c0-.19,0-.39-.07-.59a5,5,0,0,1,.14-2.66c.62-1.59,1.22-3.18,1.83-4.78,1.89-5,3.82-10.1,6.21-14.93a24.6,24.6,0,0,0,1.18-3.09c1.21-3.66,2.71-8.21,9.22-9.44,22.16-4.15,41.23-15.07,63-30.17,1-.71,2.14-1.36,3.32-2,3.83-2.22,7.77-4.49,8.62-9.2-19.93,14.52-42.36,26.59-68.45,36.87l-.6.43c-1.89,1.36-3.71,2.58-5.45,2.58a3.05,3.05,0,0,1-2.48-1.17c-.94-1.2-1-3-.3-6,.18-.74.35-1.49.52-2.25,1.13-5.16,2.52-11.53,9.93-15.2a111.61,111.61,0,0,0,27.2-18.83c2.29-2.19,4.76-4.32,7.15-6.38,8.09-7,16.44-14.22,20.88-25.86l1.27-3.34,2.18,2.83a288.09,288.09,0,0,1,21.82,33.81c7.58-20.82,23.25-38.18,29.88-44.89l1.28-1.3,1.41,1.15a64,64,0,0,0,14.66,9.32,49.89,49.89,0,0,0,7.76,2.29c5.87,1.4,12.53,3,16.58,9,4.3,6.41,7.9,13.09,11.71,20.16,1.61,3,3.27,6.07,5,9.12l1.8,3.21-3.67-.23c-22.84-1.46-44.28-8.26-64.28-15.11a9.26,9.26,0,0,0-3-.37l-.85,0a25.51,25.51,0,0,0,2.32,1.82l.71.52c3.92,2.88,8.59,4,13.1,5a69.7,69.7,0,0,1,7.39,2c1.93.68,3.86,1.38,5.8,2.08,10.06,3.66,20.46,7.44,31.22,7.44a43.9,43.9,0,0,0,9.62-1,4.22,4.22,0,0,1,1-.1,8.42,8.42,0,0,1,6,3c4,5.47,7.59,11.07,11.82,17.79a32.66,32.66,0,0,1,2.43,5c.31.73.61,1.44.93,2.12l1.13,2.47-2.69.35c-.72.1-1.44.23-2.16.36a26.16,26.16,0,0,1-4.65.55,8.9,8.9,0,0,1-.9,0c-2.16-.16-4.28-.52-6.34-.87a54.67,54.67,0,0,0-7.23-.89c-21.83-.68-41.95-6.75-62.35-13.44a12.34,12.34,0,0,0-3.86-.5c-1.1,0-2.27.08-3.41.15l-1.58.1c1.41,2,3.54,2.9,6.75,4.08,10,3.69,20.62,6.09,30.85,8.42,3.14.71,6.24,1.41,9.33,2.15,10.86,2.6,22.5,5,34,5a74,74,0,0,0,14.17-1.31,11,11,0,0,1,2.12-.25c2.6,0,3.72,1.6,4.91,3.29,5,7.06,10.23,13.94,15.8,21.21,2,2.61,4,5.23,6.05,7.93l2.58,3.4-4.26-.19c-4.6-.21-9.18-.37-13.61-.52-13.94-.46-27.07-.91-40.59-3-20.21-3.13-41.77-7-62.5-13.93l-.6-.21a8.77,8.77,0,0,0-2.5-.64.68.68,0,0,0-.75.46c-.44.86-.46.89,1.82,2.13l.75.4c13.56,7.6,28.65,10.9,40.29,12.92,3.27.57,6.54,1.16,9.83,1.76l.13,0c14.43,2.64,29.35,5.37,44,5.37a100,100,0,0,0,17.17-1.4,27,27,0,0,1,4.58-.42c8.4,0,12.51,4.91,16.49,9.66L571,1397a155.78,155.78,0,0,1,9.54,12.89l1.93,2.8c.75,1.08,1.67,2.69.9,4.27-.85,1.76-3,1.88-4.67,2-13.82.85-26.28,1.55-38.74,1.55a223,223,0,0,1-41-3.4c-13.11-2.46-26-6.18-38.4-9.78l-.29-.08-6.93-2-.57-.16a19.38,19.38,0,0,0-4.83-1c-1.37,0-1.55.44-1.67.73a.75.75,0,0,0-.07.3c.27.53,2.51,1.19,3.47,1.47.65.19,1.28.38,1.8.57l2.22.83a213,213,0,0,0,21.05,7c17.27,4.47,31.93,7.69,47.32,8.91,9.8.77,18.54,1.15,26.72,1.15,6.41,0,12.63-.24,18.48-.71,2.08-.17,4.2-.47,6.25-.77a66.9,66.9,0,0,1,9.36-.89c7.57,0,13,3,17.26,9.34l.34.51c1.9,2.86,3.69,5.56,6.59,7.56,2.23,1.53,3.54,4,4.8,6.36.5.92,1,1.88,1.54,2.7l1.38,2.15-2.41.83a3.08,3.08,0,0,0-.38.16,5.18,5.18,0,0,1-1.92.53,261.94,261.94,0,0,0-27.35,3c-10.58,1.53-21.5,3.11-32.45,3.12-1.65,0-3.29,0-4.87-.11-3.86-.18-7.76-.53-11.52-.87-5.32-.48-10.82-1-16.19-1-22.56,0-45.22-4.91-73.47-15.9a4.94,4.94,0,0,0-1.76-.33,3.59,3.59,0,0,0-3,1.34c.42.18,1.07.38,1.47.5a14.23,14.23,0,0,1,1.56.53c2,.86,4,1.75,6,2.64,6.91,3.09,14,6.26,21.77,7.77,4.4.85,8.82,1.91,13.09,2.93,8.09,1.94,16.45,4,24.89,4.57q4.34.32,8.68.58h.16c9.1.59,18.49,1.2,27.65,2.56a48.17,48.17,0,0,0,7.2.5,120.34,120.34,0,0,0,14.1-1.11c3.33-.4,6.79-.81,10.23-1,4.86-.28,10-1.61,15-2.88,5.86-1.5,11.91-3,17.78-3,10.26,0,18,4.74,24.22,14.91a10.93,10.93,0,0,0,3.46,2.77c.67.41,1.43.88,2.12,1.38,2,1.49,3,3.09,2.71,4.75s-1.6,3-4,3.9l-.39.14a49.7,49.7,0,0,1-10.54,3c-4.1.54-8.2,1.11-12.31,1.67-13.82,1.9-28,3.85-42.15,4.85-6.39.46-12.77.69-19,.69a245.07,245.07,0,0,1-38.93-3.09c-6.26-1-12.62-1.94-18.77-2.85-12.75-1.87-25.94-3.82-38.83-6.46a8.31,8.31,0,0,1-1.63-.58c-.26-.12-.67-.29-1-.39l0,.08a1.5,1.5,0,0,0,.24,1.18,2.51,2.51,0,0,0,1.66,1,69.39,69.39,0,0,1,12.31,3.56c2.53.9,5.15,1.84,7.75,2.54,21,5.66,42.26,7.82,58.38,9.07,7.85.61,16,.92,24.35.92a408.1,408.1,0,0,0,46.54-2.83,118.9,118.9,0,0,0,25.19-5.35c1.55-.53,3.13-1.24,4.66-1.93,3.34-1.5,6.5-2.92,9.88-2.92,4.32,0,7.8,2.28,11,7.18a28.22,28.22,0,0,0,4.94,5.27,39.9,39.9,0,0,1,4.66,4.71,14.18,14.18,0,0,0,2.7,2.14c2.34,1.59,4.76,3.24,4.32,5.85-.41,2.41-3.2,4.1-9.65,5.84-32.38,8.73-57.59,12.78-81.74,13.16-6.17.09-12.68.14-20.49.14q-9.15,0-18.3-.06h-.31l-14.61,0a30.56,30.56,0,0,1-5.27-.43L506,1527.71l-.35-.06c-12.74-2.2-25.81-4.46-38.69-6.58a6.76,6.76,0,0,0-.84.53,6.65,6.65,0,0,0,.91,1.39l4.17,1.41c5.44,1.87,11,3.78,16.53,4.49,5.73.73,11.52,1.6,17.12,2.45,14.24,2.17,28.88,4.39,43.62,4.39l2.24,0,3.51,0c4,0,8.12.1,12.07.2s8,.19,12.07.19a151.59,151.59,0,0,0,15.36-.67l6.52-.64c21-2.06,42.78-4.18,63.06-12.71a21.33,21.33,0,0,0,3.65-2.32c2.46-1.78,5-3.61,7.71-3.61a5.51,5.51,0,0,1,3.61,1.32c6.09,5.07,11.47,11.09,16.67,16.9,2.19,2.45,4.43,5,6.68,7.34a3.72,3.72,0,0,1,1.12,3.51,4.24,4.24,0,0,1-2.82,2.86c-2.8,1-5.68,2.25-8.46,3.45-7.13,3.06-14.45,6.22-22,6.42-8.35.21-16.47,2.08-24.32,3.88-2.87.66-5.81,1.33-8.71,1.91-9.45,1.9-19.06,2.66-28.36,3.39-6.56.52-13.34,1.06-19.94,2a84.61,84.61,0,0,1-11.86.77,223.7,223.7,0,0,1-25.33-2c-3.26-.38-6.63-.78-9.94-1.1-10.87-1.07-21.84-2.76-32.46-4.39q-5.42-.83-10.78-1.63a4.76,4.76,0,0,1-2.44-1.35l-.36-.31a14.81,14.81,0,0,1-2.59-.33,14.42,14.42,0,0,0-2.09-.28h-.05c0,.1,0,.22.05.38.25.72,3.43,2.71,8.89,4.08a325.63,325.63,0,0,0,49.31,8.69c12.25,1.15,24.45,1.73,36.26,1.73a353.91,353.91,0,0,0,36.63-1.89c8.53-.9,17.16-2.64,25.51-4.32,7.18-1.45,14.6-2.94,22-3.91,8.55-1.12,16.45-4.46,24.09-7.68,2.09-.88,4.18-1.76,6.29-2.61a8.22,8.22,0,0,0,1.7-1.09,7.73,7.73,0,0,1,4.59-2,5.32,5.32,0,0,1,2.24.5c5.84,2.62,9,6.87,9,12.3.15,10.83.1,19.64-.15,27.75-.12,3.77-2,6-5.55,6.61a217.65,217.65,0,0,0-28.27,6.33c-18.45,5.8-38.4,8.76-62.8,9.32-1.9,0-3.81.06-5.71.06-12.94,0-25.74-.91-39.92-2a152.73,152.73,0,0,1-24.76-4.28c-11.36-2.77-22.85-5.77-34-8.68-7-1.83-14.22-3.71-21.37-5.53l.07.14c2,3.89,5.6,4.76,9.71,5.76a45.73,45.73,0,0,1,4.65,1.32c19.43,7,36.69,11.8,52.75,14.52l1.36.23-.31,3.74Z"/><path class="cls-3" d="M666.16,1618l-.34-3.72,1.35-.25a184.81,184.81,0,0,0,37.2-10.7,14.62,14.62,0,0,1,5.32-1.32,5,5,0,0,1,3.75,1.49c1.42,1.5,2,3.94,1.75,7.93-.08,1.4-.09,2.92-.05,4.52l.05,2Z"/><path class="cls-3" d="M517.9,1293.72a6.33,6.33,0,0,0-.69-.17,4.57,4.57,0,0,1-2.93-1.47c-3.46-4.61-7.89-8.58-12.18-12.42-7.74-7-15.74-14.12-19.25-25.63a103.77,103.77,0,0,0-7.57-18.22l-1.13-2.14,2.31-.71a191.18,191.18,0,0,1,29.74-6.7l1.65-.23.53,1.58c4.44,13.49,6.69,27.58,8.86,41.21,1.08,6.81,2.2,13.85,3.58,20.7a4.63,4.63,0,0,1-.19,2.21,3.13,3.13,0,0,0-.11.44l-.4,2.31Z"/><path class="cls-5" d="M475,1266.71a6.76,6.76,0,0,1-2.48-.4c-16.73-6.43-29.3-16.88-37.37-31.07a55.2,55.2,0,0,1-3.53-7.83c-.06-.17-.21-.54-.21-.54l0-.17c-1.12-8.16-.23-14.26,2.57-17.71a8.36,8.36,0,0,1,6.14-3.15l.84,0c6.05,0,12.56,4.55,16.2,11.32,2.54,4.71,5.52,9.32,8.41,13.77,5.51,8.52,11.22,17.32,14.31,27.53a16.46,16.46,0,0,1,.54,4.25c0,.55,0,1.1.08,1.64l.19,2.16h-2.17c-.47,0-1,0-1.53.1S475.7,1266.71,475,1266.71Z"/><path class="cls-5" d="M342.86,1262.92v-.1c.44-22.32,6.25-40.31,17.77-55,3.45-4.43,8.24-9.51,14.63-9.51a13.52,13.52,0,0,1,6.42,1.73c9.52,5.12,7.14,14.12,5.24,21.35-.14.51-.27,1-.4,1.52-3.46,13.45-12.45,23.15-21.13,32.53-2.6,2.8-5.28,5.69-7.75,8.63-2,2.34-4.92,3.57-7.77,4.76-1.16.49-2.35,1-3.39,1.53l-2.57,1.35Z"/><path class="cls-3" d="M330.29,1316.87l.68-1c4.08-6.26,6.33-12.88,8.5-19.28,3.78-11.14,7.35-21.66,19.63-29.17A68.23,68.23,0,0,0,376,1252.62l1.24-1.5,1.54,1.21a92.11,92.11,0,0,1,14.32,14.91l1.14,1.43-1.34,1.26c-2.39,2.27-4.7,4.43-6.94,6.53-7,6.54-13,12.18-18.91,18.17s-12.52,10.24-20.23,15.2c-4.16,2.68-8.45,5.44-13,8.71l-1,.73Z"/><path class="cls-3" d="M323.44,1310.32a9.93,9.93,0,0,0-1-.51c-1.25-.59-2.81-1.33-3.07-2.94l-.69-4c-1.36-8-2.78-16.2-3.48-24.41A132.94,132.94,0,0,1,315,1265l0-2.48.39-.52a89.15,89.15,0,0,1,23.05-21l3.58-2.28-.53,4.22a86.71,86.71,0,0,0-.63,8.86,314.84,314.84,0,0,1-2.13,34.28c-.62,4.81-3.57,8.35-6.42,11.77s-5.55,6.65-5.81,11l-.21,3.35Z"/><path class="cls-4" d="M105.43,1618l-4.28-5.72c-9.49-12.72-19.31-25.87-30.52-37.17-2.59-2.61-5.26-5.54-8.16-9l-.47-.56V1522.2L79,1538c12.81,11.87,26.05,24.15,39,36.27a3,3,0,0,0,2.09,1,4.57,4.57,0,0,0,1.67-.38c1.18-.45,1.31-1.16,1.24-3.74,0-.43,0-.86,0-1.27q0-6.88.06-13.78c0-12.54.08-25.49.56-38.22.32-8.35.94-16.81,1.55-25,.71-9.71,1.45-19.74,1.68-29.6.25-10.7,0-21.61-.26-32.16-.18-7.67-.37-15.59-.36-23.42,0-22.67.3-45.71.57-68l.12-9.94q.12-10.32.21-20.64c.19-19.91.38-40.45,1.07-60.63.63-18,1.54-36.29,2.43-54,.84-16.72,1.7-33.91,2.31-50.82.31-8.42.23-17,.15-25.35-.1-11.53-.21-23.42.69-35.09,1.76-22.9,3.22-43.55,3.2-64.49,0-10,0-20.23,1.3-29.84,1.36-10.1,1.89-20.43,2.41-30.42.47-9.12,1-18.56,2.07-27.84,1.53-12.66,2-25.21,2.45-38.5V892c.2-5.7.41-11.59.71-17.45l.33-6.37,3.37,5.41a11.2,11.2,0,0,0,.69,1,5.28,5.28,0,0,1,1.29,2.72c.71,7.93,1.52,16,2.29,23.79,1.91,19.07,3.87,38.78,4.66,58.24.68,17.18.57,34.64.46,51.52-.08,13.19-.17,26.83.12,40.21.21,9.47.94,19.13,1.66,28.46.88,11.44,1.78,23.24,1.73,34.89,0,8,.31,16.11.65,24,.53,12.33,1.08,25.08.17,37.77-.73,10.24-.07,20.81.58,31,.42,6.77.86,13.75.9,20.64.13,23.51.11,47.41.08,70.53v.15c0,21.57-.05,43.87.06,65.81.16,34.27-1.16,68.29-3.94,101.14a752.21,752.21,0,0,0-2,98.47,6.14,6.14,0,0,0,1.22,1.52h0c1.44-2.05,2.89-4.24,4.3-6.36.91-1.37,1.8-2.71,2.69-4l9-13.24c8.16-12.08,16.57-24.54,25-36.7,4.46-6.44,9.11-12.89,13.6-19.14,5.47-7.59,11.1-15.41,16.43-23.24,9.89-14.55,19.81-29.44,29.41-43.85,6.12-9.21,12.4-18.64,18.62-27.9,3.51-5.22,7.18-10.46,10.73-15.54,9.29-13.28,18.88-27,26.94-42.19l.55-1,3.22.8v1.17c0,.85.06,1.62.11,2.3a8.54,8.54,0,0,1-.34,4.12c-2.29,5.39-4.54,10.8-6.8,16.21-6.09,14.63-12.37,29.73-19.35,44.24-12.15,25.29-25.07,50.72-37.57,75.32l-10.09,19.87c-2.66,5.27-5.25,10.72-7.76,16-6.34,13.35-12.9,27.15-21.38,39.41-10.38,15-19.84,30.91-29,46.29-3.73,6.27-7.57,12.74-11.46,19.12l-.59,1Z"/><path class="cls-3" d="M162.11,1550.68c-.22-.63-.39-1.07-.53-1.41a4.51,4.51,0,0,1-.46-1.88q.13-7.1.25-14.23c.2-12.26.4-24.84.91-37.2.62-15,1.26-30.5,3.15-45.76,1.13-9.25,1.65-18.68,2.16-27.8.26-4.71.52-9.5.87-14.21a42.54,42.54,0,0,0-.18-6c-.41-5.29-.87-11.27,3.54-16,7-7.41,14.33-14.66,21.44-21.67,13.65-13.48,27.77-27.4,39.68-42.89,12.68-16.47,24.6-31.61,36.44-46.29a374.74,374.74,0,0,0,32.25-46.86l2.45-4.21,1.22,4.71c2.34,9,4.62,18,7,27.36l.07.29,0,.38c-.68,4.85-1.11,9.14-1.34,13.21-.64,11.61,1.57,23.26,3.69,33.27a55.12,55.12,0,0,0,1.7,5.78c1.58,4.74,3.21,9.63,1.6,13.65-3.16,7.88-7.72,15-12.54,22.45-1.94,3-3.9,6.07-5.76,9.16l-2.06,3.44-1.5-3.72c-.4-1-.79-1.85-1.16-2.66a22.44,22.44,0,0,1-1.8-4.92c-4.08-20.49-5.85-39.15-5.42-57.07a2.79,2.79,0,0,0-.46-1.13,2.22,2.22,0,0,0-.56.72c-4,15-3.51,31.77,1.51,52.85,3.92,16.46,1.37,37.33-13.2,46.83l-2.13,1.4-.85-2.4c-7.21-20.45-9.15-41.59-10.8-65.11a8.42,8.42,0,0,1,.64-3.13c.1-.3.26-.75.36-1.13h-.1a3.36,3.36,0,0,0-2.13,1.78,7.92,7.92,0,0,0-1.14,4.62c.22,3.57.3,7.17.37,10.65a136.12,136.12,0,0,0,1.28,18.86c.39,2.36.74,4.78,1.08,7.11,1.36,9.4,2.76,19.05,7,27.75.59,1.22.75,3.56-2.62,11.61-3.13,7.45-12.35,25.91-16.63,27.35a2.28,2.28,0,0,1-.78.13,3.61,3.61,0,0,1-3.34-2.44c-.4-1.86-.87-3.76-1.32-5.6a84,84,0,0,1-2.67-14.7c-.38-6.4-1.42-12.9-2.43-19.19-1.88-11.68-3.83-23.76-1.75-36.09a1.33,1.33,0,0,0-.11-1,2.35,2.35,0,0,0-1.59-.51h-.16c0,.18-.08.41-.11.53a10,10,0,0,1-.32,1.36c-1.63,5.11-1.26,10.21-.87,15.61.16,2.14.32,4.34.35,6.54a190.31,190.31,0,0,0,4.55,39.94c4.05,17.58,6.11,34.32-12.89,46l-2.46,1.5-.55-2.83c-.71-3.61-1.46-7.27-2.22-11-1.78-8.62-3.6-17.46-4.9-26.36-1.36-9.28-2.31-18.76-3.22-27.93l0-.19c-.46-4.6-.94-9.36-1.46-14a4.34,4.34,0,0,1,.94-2.88.59.59,0,0,0-.17,0c-.54,0-1.05,1.37-1.31,2.19-2,6.26-1.24,12.86-.5,19.24.18,1.59.36,3.17.5,4.74.28,3.12.52,6.23.76,9.36.89,11.57,1.81,23.54,4.86,35.06a36.31,36.31,0,0,0,2.78,6.52c3.08,6.11,6.57,13,.21,21.1a69.65,69.65,0,0,0-4.73,7.15c-1.24,2-2.51,4.15-4,6.14a24.53,24.53,0,0,1-5,4.74l-1.17.93-.52.43-.71,0c-1.26,0-3.58-1.56-3.86-3.16-1.07-6.25-2.32-12.58-3.53-18.71-3.73-18.81-7.58-38.25-6.67-58.12,0-.38,0-.76.07-1.14a10.66,10.66,0,0,0-.27-4.45c-.06,1.65-.13,3.32-.22,5A4.48,4.48,0,0,1,188,1414c-.06.12-.12.22-.16.32-2.45,12.48-.56,25.08,1.27,37.27a202.42,202.42,0,0,1,2.4,21.2c.15,3.81,1.66,7.72,3.11,11.5,2.79,7.24,6,15.44-.07,24.3l-28.92,42.56-2.22,3.27Z"/><path class="cls-3" d="M169.07,1372.37c0-13.54,0-26.23.05-39.09a5.59,5.59,0,0,1,1.87-3.89c26.26-22.91,44.94-41.78,60.59-61.19l3.23-4c7.89-9.72,16.05-19.78,22.13-30.67,2.75-4.91,6-9.55,9.08-14,4.5-6.49,9.16-13.19,12.33-20.72,2.64-6.27,6.95-11.64,11.12-16.83l2.46-3.06,1,3.78c3.42,12.57,6.7,24.84,9.75,36.48l.2.75-.36.69a93.49,93.49,0,0,1-6.76,11.4c-13.3,18.4-27,37-40.29,54.89Q248,1297,240.56,1307.12c-11.29,15.32-24.71,29.17-37.69,42.56-10.17,10.49-20.68,21.34-30.26,33l-3.54,4.3Z"/><path class="cls-3" d="M169.84,1323.27c-.07-.3-.16-.6-.24-.89a9.47,9.47,0,0,1-.5-2.73c0-12.44,0-25.57,0-39v-.38c0-1.44,0-3.25,1.21-4.36,12.85-11.47,24-25,34.83-38l3.36-4.05q6.44-7.74,12.8-15.53c9.38-11.43,19-23.19,28.91-34.47A193.77,193.77,0,0,0,278,1141.94l2.3-4.67,1.41,5c3,10.49,5.93,21.08,8.78,31.46l.25.9-.54.77c-9.67,14-19.93,29-29.37,44.18-11.62,18.73-25.45,40.29-42.69,59.1-10.29,11.24-21,22.39-31.46,33.17l-.25.27q-5.34,5.52-10.67,11.06a5.15,5.15,0,0,1-2.6,1.31,5.32,5.32,0,0,0-.67.2l-2.16.83Z"/><path class="cls-3" d="M169.74,1266.85c-.07-.69-.16-1.38-.25-2.07a40.13,40.13,0,0,1-.42-4.84c0-4.51,0-9,0-13.54v-.17c0-6.36,0-12.86,0-19.25s.35-12.35,6.57-18.34c25.75-24.79,47.9-53.57,69.31-81.39,3.68-4.79,7.32-9.51,11-14.22,1.14-1.47,2.29-2.93,3.43-4.39,2.27-2.9,4.6-5.87,6.81-8.81l2.39-3.17,1.13,3.8c3.1,10.48,6.25,21.32,9.37,32.24l.2.68-.28.65c-2,4.7-4.07,9.56-7.15,13.87-16.43,23-31.42,43.58-48.54,62.67-10.12,11.29-20,23.14-29.56,34.6-4.93,5.91-10,12-15.16,18.07a28,28,0,0,1-3.81,3.53c-.57.47-1.12.91-1.65,1.38l-2.91,2.57Z"/><path class="cls-3" d="M169.87,1207.36c-.19-.59-.46-1.22-.71-1.84a13,13,0,0,1-1.35-5.2,72.64,72.64,0,0,1,.79-8.09c.64-4.76,1.25-9.25.13-13.15-5-17.47,5-27.8,14.74-37.79,10.89-11.19,21.33-22.79,31-34.46,11-13.26,21.63-27,31.57-40.71l1.15-1.58c1.89-2.62,3.85-5.32,5.71-8l2.33-3.4,1.23,3.93c3.38,10.85,6.86,22.27,10.64,34.91l.28,1-.59.8c-3.92,5.34-7.22,9.67-10.37,13.62-11.67,14.64-23.6,30.24-37.54,49.08-8.73,11.79-18.78,22.86-28.49,33.55-4.07,4.47-8.21,9-12.2,13.58a32.92,32.92,0,0,1-3.51,3.31c-.53.45-1.06.9-1.57,1.37l-2.29,2.08Z"/><path class="cls-3" d="M167.63,1149.92l-.18-1a18.35,18.35,0,0,1-.37-2.52c-.16-2.66-.46-5.43-.76-8.12-.74-6.7-1.51-13.62-.2-20.18.3-1.55-.17-3.26-.71-5.25-1.1-4-2.46-9,3.58-13.08,9.12-6.24,16.07-15.18,22.78-23.83,1.14-1.46,2.27-2.92,3.41-4.36,12.59-15.92,24.51-32.5,36.62-49.51,2.5-3.51,4.76-6.76,6.93-9.93l2.28-3.36,1.27,3.85c3.47,10.52,7.1,21.8,11.09,34.47l.28.91-.52.79c-1.6,2.42-3.08,4.59-4.53,6.62l-7.48,10.5c-9.76,13.73-19.79,27.84-30.41,41.15-8.15,10.21-17.13,20-25.81,29.42-3.65,4-7.4,8-11,12.11a15,15,0,0,1-2.16,1.86c-.29.21-.57.43-.84.65l-2.68,2.18Z"/><path class="cls-3" d="M165.81,1097.11l-.21-.86a13.55,13.55,0,0,1-.51-2.68c-.14-2.37-.19-4.76-.23-7.07-.1-5-.19-10.22-1.36-15.3-.79-3.43-3-15.09,1.68-21.19,2.24-2.9,4.94-5.83,7.56-8.67,1.73-1.87,3.51-3.79,5.1-5.66a568.51,568.51,0,0,0,47.21-63.63l2.22-3.48,1.36,3.89c3.42,9.75,7,20.21,10.63,31.07l.31.94-.56.82-7.66,11.21c-17.86,26.26-37.31,52.25-59.46,79.46a9.11,9.11,0,0,1-2.15,1.78c-.27.17-.53.34-.78.53l-2.47,1.87Z"/><path class="cls-3" d="M163.06,1044.6c0-3.8,0-7.53.05-11.21.07-8.9.13-17.25-.18-25.68-.21-5.9,1.59-10.31,6.23-15.21a177.42,177.42,0,0,0,12.69-15.71c1.58-2.11,3.15-4.21,4.75-6.28,2.41-3.13,4.84-6.26,7.26-9.39l.19-.24c6.1-7.86,12.38-16,18.41-24l2.19-2.92,1.28,3.42c3.28,8.73,6.71,18.17,10.21,28l.34,1-.57.84c-19,27.86-38.43,53.59-59.31,78.67l-3.54,4.25Z"/><path class="cls-3" d="M163.56,990.62c-4.18-27.53,5-59,22.85-78.24a74.16,74.16,0,0,0,10.42-14.75l2-3.63,1.58,3.84c4,9.76,8.24,20.4,12.51,31.62l.42,1.09-.76.9c-12.62,15.14-24.23,31-35.44,46.4q-5,6.84-10,13.66l-2.86,3.87Z"/><path class="cls-3" d="M161,942c-.23-3.63-.47-7.14-.71-10.56-.56-8.23-1.1-16-1.39-23.77a15.41,15.41,0,0,0-.94-3.93c-1-2.94-2.15-6.59.48-10,7.63-9.83,14.28-21.11,20.92-35.5l1.8-3.88,1.83,3.86c4.55,9.62,9.25,20.18,14,31.41l.37.88-.45.84c-.38.72-.77,1.43-1.16,2.14-6.54,11.75-13.81,22.9-21.51,34.7-3.13,4.79-6.34,9.72-9.54,14.74l-3.29,5.17Z"/><path class="cls-3" d="M155.54,885.82c-.46-4.89-1.06-9.73-1.64-14.42-1.35-10.93-2.63-21.24-2.17-31.67.33-7.43,3.23-14,6.31-20.85l1.86-4.18,2,3.3c5.43,9.09,11.06,19.56,16.73,31.1l.44.89-.44.88c-.66,1.31-1.32,2.62-2,3.92-1.55,3-3,6.14-4.4,9.2-3.53,7.69-7.17,15.63-13.14,22.91L156,890.66Z"/><path class="cls-5" d="M146.27,831c-2.67,0-3.24-2.55-3.48-3.63a5.29,5.29,0,0,0-.18-.7A107.65,107.65,0,0,1,129,775a67.68,67.68,0,0,1,6.23-26.5c3.05-6.57,8.65-10.65,14.61-10.65l.82,0c9.74.61,11.71,10.48,12,16.32l.13,2.56c.76,14.32,1.54,29.12-2.74,44.09-1,3.38-2,6.81-3.06,10.14-1.51,4.87-3.06,9.88-4.34,14.83-.56,2.18-2.9,4.12-4.81,4.83A4.45,4.45,0,0,1,146.27,831Z"/><path class="cls-3" d="M138.59,882c-1.79,0-3.09-1.4-4.13-2.52a7.79,7.79,0,0,0-1.3-1.23c-2.31-.6-4-2.68-5.42-4.52a21.49,21.49,0,0,0-2.27-2.56,206.39,206.39,0,0,1-20.87-22.1l-.92-1.11.76-1.23c11.6-18.57,21.28-28.47,26-32.71l2-1.84,1.11,2.52A85.94,85.94,0,0,0,142,829.44c3.24,4.58,6.73,10.84,5,18.6a84.86,84.86,0,0,0-1.44,11.31c-.18,2.18-.37,4.42-.65,6.65-.12,1-.21,2.06-.3,3.1-.28,3.35-.57,6.79-2.08,9.79C141.47,880.94,140.15,882,138.59,882Z"/><path class="cls-3" d="M135.25,936.15c-3.26,0-5.15-2.87-6.81-5.4a17.2,17.2,0,0,0-2.32-3.06C117,919.27,107.7,910,97.68,899.24c-4-4.31-8.15-8.92-12.24-13.71l-.82-1,.51-1.15A319.78,319.78,0,0,1,100,854.2l1.38-2.39,1.84,2.06c4.85,5.4,10.11,10.72,16.09,16.25,1.55,1.44,3,3,4.47,4.55,4,4.26,8.14,8.66,13.71,9.85,2.71.58,4.45,1.61,5.33,3.15,1,1.86.58,3.89,0,5.64-2.23,6.53-2.09,13.44-1.95,20.13,0,2.6.11,5.28,0,7.93l0,.65c-.2,7.59-.55,12.65-3.56,13.76A5.93,5.93,0,0,1,135.25,936.15Z"/><path class="cls-3" d="M132,983.1c-.28-.43-.57-.85-.86-1.27-4.13-5.81-9.06-10-13.83-14l-.86-.72c-9.66-8.14-18-17.33-26-26.21-5.53-6.12-11.63-12.74-18.66-20.26l-.82-.88.39-1.14c3.26-9.5,6.79-18.78,10.49-27.58l1.3-3.08,2.1,2.6a269.24,269.24,0,0,0,42.86,42,29,29,0,0,0,2.89,1.91c4.14,2.52,9.8,6,8,14.7-1.45,7-2,14.36-2.5,22.11-.25,3.57-.51,7.19-.86,10.94l-.53,5.66Z"/><path class="cls-3" d="M132.48,1031c-11.54-6.08-19.89-15-28-23.7-5-5.38-10.2-10.94-16-15.55-8-6.43-14.84-14.57-21.41-22.44l-.15-.18c-1.5-1.8-3-3.6-4.51-5.37l-.48-.56V948.67l.06-.19c2.1-7.52,4.34-14.93,6.67-22.1l1.13-3.49,2.32,2.85a238.25,238.25,0,0,0,18.44,20.57c2.57,2.5,5.2,5.17,7.52,7.52,10.2,10.36,20.74,21.07,34.62,26.85.44.19.88.37,1.34.54a3.43,3.43,0,0,1,2.23,2.15,3,3,0,0,1-.88,2.73c0,12.19,0,24.06,0,36.63v9.76Z"/><path class="cls-3" d="M128.19,1080.89a4.73,4.73,0,0,1-2.8-1.18l-2.11-1.58a186.79,186.79,0,0,1-17.13-13.93c-16-15.3-31.05-31.71-43.64-45.73l-.51-.57V966.78L65.53,971c8.47,10,18,19.2,27.8,28.51,2.66,2.53,5.3,5.15,7.86,7.69l.07.07c8.23,8.18,16.74,16.63,26.81,22.78,3,1.85,5.78,4.22,5.43,9l-.63,9.24c-.63,9.11-1.28,18.54-2,27.85,0,.15,0,.34,0,.54a4.54,4.54,0,0,1-.84,3.5A2.54,2.54,0,0,1,128.19,1080.89Z"/><path class="cls-3" d="M123.24,1193.74c-.42-.3-.85-.59-1.28-.88a32.61,32.61,0,0,1-3.15-2.29c-2.47-2.09-5-4.16-7.49-6.23-6.21-5.1-12.62-10.38-18.48-16.09-9.78-9.5-20.07-19.84-29.06-31L62,1135V1077.6l3.52,4.13a191.69,191.69,0,0,0,16.63,17.6c3.18,2.9,6.31,5.93,9.33,8.86,10.31,10,21,20.3,34.43,26.61h.9a3.93,3.93,0,0,1,3,1.09,4.48,4.48,0,0,1,1,3.5c-.49,8.41-.87,17-1.23,25.26-.32,7.1-.64,14.4-1,21.68a13.28,13.28,0,0,1-1.51,4.77c-.27.57-.55,1.17-.76,1.72l-.91,2.41Z"/><path class="cls-3" d="M124.86,1135.78c-2.09-2-4.08-4-6-5.9a118.18,118.18,0,0,0-12.13-11.11c-11.3-8.56-20.81-19-30-29.18-2.36-2.6-4.72-5.2-7.11-7.77-2.15-2.31-4.42-4.84-7.13-7.94l-.49-.57v-49.15l3.47,3.76c18.31,19.84,35,34.66,52.44,46.64,1.13.78,2.59,1.59,4,2.37,4.18,2.32,8.12,4.5,8.45,7.86,1.77,18.1-.22,36.13-2.15,49.82l-.54,3.84Z"/><path class="cls-3" d="M121.09,1246.16c-.55-.45-1.09-.92-1.63-1.39a21.7,21.7,0,0,0-3.31-2.57,53.66,53.66,0,0,1-12.69-9.78c-4.31-4.61-9.07-9-13.67-13.22-4.07-3.73-8.25-7.57-12.16-11.6-4.41-4.55-9.07-9.4-15.08-15.72l-.55-.58v-50.57l3.52,4.16c12.5,14.72,29.71,33.36,52.2,47,7.19,4.37,10.82,8.4,9.39,17.18a180.9,180.9,0,0,0-1.69,19.87c-.14,3-.29,6-.49,9-.11,1.44-.24,2.89-.37,4.33-.07.82-.15,1.63-.22,2.45l-.32,3.77Z"/><path class="cls-3" d="M121.83,1359a4.41,4.41,0,0,1-2.31-.76,81.63,81.63,0,0,1-12.47-9.61l-4.67-4.35c-13.19-12.29-26.81-25-39.79-37.86l-.59-.59v-47.38l3.41,3.37A360.08,360.08,0,0,0,100.87,1293l3.21,2.4c11.42,8.48,23.2,17.23,19.16,36.33-.94,4.46-.14,9.56.64,14.5.38,2.44.78,5,1,7.45.13,1.55.12,3.29-.92,4.42A2.85,2.85,0,0,1,121.83,1359Z"/><path class="cls-3" d="M120.4,1456.66q-.39-.14-.78-.24a9.75,9.75,0,0,1-2.21-.86c-14.83-8.82-27.38-20.19-37.7-30.15-5.23-5.05-10.67-10.38-17.12-16.77l-.59-.59v-42.42l3.33,3c15.66,14,29.52,24.68,43.62,33.57a35.16,35.16,0,0,0,4.55,2.22c5.17,2.24,12.24,5.3,11.1,14-1.43,11-1.52,22.2-1.6,33v.69c0,.62,0,1.23,0,1.84l.13,3.63Z"/><path class="cls-3" d="M120.75,1406.94a7.59,7.59,0,0,1-3.76-1.25c-19.37-11.36-35.41-25.93-54.36-43.79l-.63-.6v-50.67l5.46,5.2c10.12,9.65,21.21,18.66,31.93,27.39l.1.08q5.37,4.37,10.72,8.76a37,37,0,0,0,5.26,3.35c4,2.25,7.74,4.37,8.45,7.85,1.87,9.24,2,19.82.33,31.46a17.84,17.84,0,0,0,.21,2.29c.39,3.15.83,6.73-.91,8.7A3.64,3.64,0,0,1,120.75,1406.94Z"/><path class="cls-3" d="M118.66,1305c-2.27,0-3.76-1.75-5-3.16a6.83,6.83,0,0,0-2.22-2c-2.16-.78-3.63-2.73-4.93-4.46a19.74,19.74,0,0,0-2.14-2.53c-4-3.61-8.07-7.2-12-10.68-7.64-6.7-15.54-13.62-22.82-21-2.55-2.58-5.09-5.22-7-7.24l-.55-.58v-56.93l3.45,3.62c14.44,15.15,32,32.48,52.93,46.21,5.28,3.46,6.89,7.27,5.93,14.09-1.25,8.93-2.33,19.5-.81,30.11.09.61.26,1.35.45,2.13.8,3.41,2,8.57-2.47,11.51A5.08,5.08,0,0,1,118.66,1305Z"/><path class="cls-3" d="M117.69,1501.77a5.83,5.83,0,0,1-3.12-.86,149.56,149.56,0,0,0-16.43-10.53c-7.34-4.25-14.92-8.65-21.44-14.64-4.46-4.1-9.25-8-13.89-11.79l-.62-.5-.19-1V1414l3.4,3.31c4.56,4.44,8.79,8.2,12.92,11.51,3.11,2.48,6.15,5.1,9.1,7.63,9,7.76,18.34,15.79,29.93,20a4.85,4.85,0,0,0,1,.16c1.47.15,4.91.49,4.68,5.44s-.21,10.1-.19,15c0,4.53.05,9.2-.12,13.82a21.53,21.53,0,0,1-2,7.28c-.3.73-.6,1.46-.86,2.18A2.07,2.07,0,0,1,117.69,1501.77Z"/><path class="cls-3" d="M117.41,1567.64a2.22,2.22,0,0,0-.37-.21,7,7,0,0,1-1.39-.93l-11-9.77-.29-.26C94.8,1548,85,1539.33,75.41,1530.56c-4.25-3.89-8.53-7.9-12.67-11.77l-.74-.69v-50.42l3.31,2.86c12.3,10.62,26,21.23,42.58,26.91,10.55,3.6,14.3,9.22,13.39,20-.87,10.4-.6,21.13-.34,31.5.11,4.67.23,9.5.25,14.29a6.88,6.88,0,0,1-.57,2.52,7.1,7.1,0,0,0-.24.69l-.74,2.5Z"/><path class="cls-3" d="M62,1618v-30.63h2.26a6.12,6.12,0,0,0,2.48-1,9,9,0,0,1,4.31-1.46,5.92,5.92,0,0,1,4.5,2.32c4.59,5.27,9.21,10.52,13.79,15.74L98.17,1613l-2.8,1c-4.15,1.45-8.55,2.78-13.08,3.93l-.18,0-.25,0Z"/><polygon class="cls-2" points="6 8.83 58 60.83 58 1619.17 6 1671.17 6 8.83"/><path d="M960,923.86V888.8q-2.88,4.08-5.82,8.11c-7.86,10.86-15.8,21.64-22.54,33.14-11.54,19.73-26.85,36.17-41.52,53.26-10.74,12.52-23,23.48-34.86,34.87-22,21-45.75,39.81-69.51,58.65-4.61,3.65-2.73,7.84-2.71,12.09.06,13.84,0,27.69,0,42.14,25.34-14.69,47.37-32.7,68.77-51.76a392.7,392.7,0,0,0,57.84-64.41c17.34-24.13,33.7-49,50.33-73.6Zm-7.94-36.31c2.41-3.1,5.21-6,7.94-8.85V64H64V909.46q4.62,4.9,9.22,9.82c-.87,2.51-1.73,5.09-2.59,7.72-2.23-2.71-4.43-5.45-6.63-8.19v43.6c8.27,9.7,16,19.94,25.8,27.73,15.07,12,25.17,29.32,43.61,39,0-14.86,0-29.21,0-43.55,0-.85,2.18-1.66-.07-2.54l-1.39-.56.74-1.84c.3.43.6.87.89,1.31,1.13-12.08,1.25-22.88,3.39-33.26,1.93-9.37-5.92-11.27-10.17-14.64a273.36,273.36,0,0,1-43.18-42.27q1.65-3.92,3.3-7.6,5.94,6.94,12.18,13.64c9.12,9.76,18.53,19.29,28.34,28.35,3,2.8,4.75,9.28,9.08,7.68,2.06-.76,2.15-8.17,2.27-12.59.28-9.58-1.2-19.22,2-28.65,1-2.86,1-5.14-3.84-6.18-8.28-1.77-13.22-9.42-19.12-14.89-5.65-5.23-11.09-10.67-16.22-16.39,1.51-2.62,3-5.09,4.46-7.43a200.43,200.43,0,0,0,20.66,21.88c2.44,2.16,4.21,6,6.9,6.66,2.28.6,4.45,6.76,7,1.68,1.79-3.55,1.67-8.11,2.19-12.24.76-6,.8-12.24,2.12-18.15,1.51-6.74-1.38-12.35-4.67-17a86.89,86.89,0,0,1-8.57-15.1,90.11,90.11,0,0,1-7.48-38.82c.3-14.2.21-30,12.83-40,12.89-10.23,25.17-5.3,29.75,11.47,5,18.18,2.36,36.23-1,54.63-1.06,5.73-3.37,11-5.69,16.24-3,6.83-6.11,13.5-6.43,20.79-.65,14.8,2.3,29.76,3.8,45.81,8.2-10,11.93-21.37,17.31-31.76.67-1.29,1.33-2.59,2-3.89q2.2,4.46,4.39,9.11c-5.81,12.58-12.5,24.73-21.16,35.89-3,3.92.72,8.36.88,12.62.41,11,1.31,21.94,2.1,34.27,11-17.23,21.8-32.83,31-49.34.39-.7.77-1.4,1.15-2.11q1.71,4.05,3.41,8.18a76.69,76.69,0,0,1-10.7,15.14c-17.57,19-26.42,49.75-22.34,76.58,14.86-20.12,29.17-40.54,45.53-60.15q1.5,3.93,3,7.9c-8.48,11.33-17.24,22.46-25.88,33.66-5.77,7.46-11.12,15.32-17.57,22.14-4,4.18-5.89,8-5.68,13.77.44,12,.13,24.1.13,37,21.42-25.72,40.91-51.74,59.2-78.52.83,2.34,1.66,4.68,2.48,7A568.47,568.47,0,0,1,179.36,1037c-4.05,4.74-9,9.52-12.59,14.25-3.37,4.38-2.77,13.24-1.32,19.52,1.76,7.67,1.17,15.15,1.64,22.71a20.14,20.14,0,0,0,.67,3.21,14.53,14.53,0,0,0,2.58-2c20.87-25.64,40.77-52,59.36-79.33l7.66-11.21q1.51,4.56,3,9.13-3.42,5-6.95,10c-11.93,16.75-23.93,33.47-36.68,49.59-8.06,10.2-15.71,21.13-26.63,28.6-7.53,5.14-.92,11.38-2,17.07-1.76,8.85.44,18.49,1,27.8a30.46,30.46,0,0,0,.52,3.27,23.74,23.74,0,0,0,2.78-2.3c12.33-13.75,25.26-27,36.77-41.44,13.28-16.64,25.41-34.23,37.82-51.56,1.54-2.16,3-4.35,4.49-6.56q1.57,5,3.1,9.92c-2.24,3.26-4.58,6.45-6.89,9.64q-15.12,20.93-31.65,40.82c-9.9,11.93-20.31,23.47-31.12,34.58-9.85,10.11-19,19.48-14.25,35.84,1.91,6.63-.68,14.51-.84,21.83,0,2.12,1.27,4.26,2,6.38a60.43,60.43,0,0,0,4.93-4.52c13.66-15.57,28.3-30.41,40.58-47s24.73-33,37.59-49.14c3.54-4.44,7-9,10.32-13.55.85,2.85,1.69,5.69,2.52,8.5-3.35,4.45-6.84,8.82-10.26,13.23-25.6,33-50.29,66.76-80.47,95.82-5.54,5.33-6,10.44-6,16.87.15,11,0,22,0,33,0,2.24.43,4.48.66,6.72a49.32,49.32,0,0,0,5.26-4.71c14.93-17.56,29.37-35.55,44.75-52.7,17.65-19.69,33.08-41.06,48.4-62.5,2.91-4.07,4.93-8.77,6.94-13.49.93,3.23,1.83,6.42,2.73,9.57a194.34,194.34,0,0,1-28.11,42.36c-14.29,16.31-27.81,33.29-41.67,50-12.18,14.65-24.12,29.51-38.4,42.25-.64.57-.54,2.15-.54,3.26q-.06,19.5,0,39a15.09,15.09,0,0,0,.69,3.18c.86-.33,2-.41,2.55-1,14.17-14.77,28.53-29.38,42.35-44.47,16.42-17.92,29.66-38.16,42.46-58.8,9.34-15,19.33-29.7,29.43-44.27.84,3,1.65,6,2.45,8.94-4.19,5.22-8.34,10.43-10.84,16.36-5.46,13-14.83,23-21.5,35-7,12.51-16.49,23.7-25.55,34.94C215,1292,194.08,1311.9,172.31,1330.9a3.62,3.62,0,0,0-1.19,2.39c-.07,15.76-.05,31.52-.05,48.07C193,1354.75,219,1333,239,1305.93c18.44-25,37-49.92,55.22-75.1a91.5,91.5,0,0,0,6.61-11.16l2.58,9.86a375.42,375.42,0,0,1-32.42,47.12q-18.48,22.9-36.41,46.25c-18.22,23.68-40.89,43.09-61.25,64.71-5.4,5.73-2.33,13.88-2.83,20.72-1,14-1.32,28.07-3,42.11-1.86,15.1-2.5,30.38-3.13,45.6-.71,17.12-.82,34.27-1.16,51.4A12.59,12.59,0,0,0,164,1550l28.92-42.56c8.42-12.41-2.92-23-3.39-34.6-.81-19.67-7.55-39-3.62-59,.12-.61.64-1.17.68-1.78.17-2.89.24-5.78.35-8.67,5.08,1.56,4.24,5.83,4.07,9.5-1.19,26.08,5.84,51,10.17,76.39.11.62,1.72,1.62,1.86,1.5,2-1.65,4.28-3.21,5.79-5.29,3.11-4.32,5.45-9.2,8.73-13.36,7.75-9.83-1.16-17.64-3.35-25.87-3.91-14.77-4.34-29.82-5.68-44.75-.73-8.09-2.55-16.51.08-24.77.77-2.42,1.9-4.24,4.44-3.35,3.23,1.12-.17,2.9,0,4.45,1.57,14,2.64,28.13,4.69,42.08,1.85,12.67,4.76,25.18,7.1,37.22,17.78-10.9,16-26.38,12-43.82a191.51,191.51,0,0,1-4.6-40.36c-.1-7.65-1.82-15.17.62-22.8.52-1.6.1-3.39,2.6-3.26s4,1.4,3.56,3.79c-3.13,18.62,3.12,36.53,4.21,54.83.4,6.74,2.52,13.37,3.95,20a1.76,1.76,0,0,0,1.52.82c4-1.36,19.89-32.49,18.09-36.2-5.42-11.2-6.26-23.49-8.22-35.41-1.6-9.72-1.05-19.79-1.68-29.7-.27-4.28,2.41-8.36,5.14-8.53,4.48-.28,1.09,4,1.23,6.11,1.53,21.93,3.36,43.8,10.69,64.58,13.71-9,16.13-28.81,12.34-44.7-4.08-17.13-6.3-35.78-1.49-53.83.35-1.3,1.93-2.27,2.94-3.39.7,1.46,2,2.93,2,4.37a257.6,257.6,0,0,0,5.38,56.63c.44,2.2,1.65,4.25,2.85,7.22,6.43-10.7,13.78-20.42,18.15-31.33,1.95-4.85-2.09-12.11-3.4-18.27-2.36-11.14-4.36-22.34-3.73-33.79.25-4.43.73-8.87,1.35-13.28,1.89,7.55,2.9,11.7,2.9,11.7q1.78-2.85,3.75-5.42c-.07,5.06-.22,10.12.21,15.14.81,9.47,2.56,18.86,4.15,28.24.14.85,2.06,1.4,3.15,2.08.59-9.55,11.1-14,12.25-22.88a317.25,317.25,0,0,0,2.11-34.06,86.79,86.79,0,0,1,.65-9.07,75.19,75.19,0,0,1,21.78-44.7c6.66-6.7,15.92-11.37,25.21-3.86,9.74,7.89,10.17,18.32,6.8,29.84a83.76,83.76,0,0,1-15.77,30,70.33,70.33,0,0,1-17.39,15.19c-18.68,11.42-16.28,30.63-27.49,47.83,12.94-9.32,24.14-14.73,33-23.69,7.88-8,16.19-15.58,25.91-24.75.53.66,1.05,1.33,1.57,2-6,15.68-18.57,23.47-28.52,33a113.52,113.52,0,0,1-27.69,19.17c-7.58,3.76-8,10.53-9.4,16.14-2.25,9.07,5.13,2.2,6.06,1.84,25.15-9.9,49-22.28,71.32-39,1.35,10.68-7.68,13.29-12.84,16.87-19.53,13.53-39.92,26-63.8,30.5-7.1,1.34-6.85,7.17-9,11.45-3.12,6.29-5.41,13-8,19.55a6.42,6.42,0,0,0,.07,2.42,18,18,0,0,0,2.43-.61c29.22-11.93,56.51-27.51,83.39-43.88,1.66-1,3.57-2.66,5.25-.77,2,2.27-.18,4.06-1.74,5.37-15,12.68-32.54,21.33-49.7,30.47-11.87,6.33-23.7,14.1-36.5,17-16.79,3.81-13.21,19.85-21.21,28.48-.42.45-.8,2.74,1.3,2.15,22.46-6.33,44.08-14.38,63.75-27.48,13-8.66,27-15.79,40.62-23.54.5-.28,1.36,0,2.06.1-.63,1.93-.65,4.74-2,5.67-12.51,8.75-24.92,17.73-38,25.56-16,9.56-32.68,18-50.53,23.68-2.75.88-5.93.37-8.9.59-17.65,1.31-18.16,18.48-25.93,28.85-.19.26,6.85,1.49,9.81.65,15.15-4.31,30.58-7.41,45.41-13.26a354.51,354.51,0,0,0,37.9-17c9.14-4.91,17.6-11,26.44-16.52,2.55-1.58,5.92-2,7.43.78,1.35,2.54-1.95,3.42-3.74,4.58-15.67,10.16-30.67,21.6-48.24,28.35-18.12,7-36.51,13.28-55,19.17-6.64,2.11-14.08,1.58-20.9,3.26-9.33,2.32-8.46,12.65-13.19,18.74-3.7,4.76-5.9,10.69-8.73,16.13a7.07,7.07,0,0,0-.4,1.76,18.89,18.89,0,0,0,4.41.27c22.06-4,43.57-9.15,63.82-19.69,24.29-12.63,49-24.4,72.17-39.11,1.56-1,3.76-1,5.66-1.45-.58,1.71-.63,4.18-1.83,5-16.49,11.5-32.61,23.53-51.31,31.59-11.22,4.83-21.53,11.82-32.84,16.38-19.09,7.68-38.58,14.18-59.48,15.62-11.09.76-9.67,12.84-14.86,19.08-2.91,3.49-4.57,8-7.52,13.4,12.6-3.16,24.29-5.84,35.83-9,15.63-4.34,31.25-8.78,46.69-13.75,18.9-6.09,36.66-14.87,53.82-24.8,8.25-4.77,16.12-10.2,24.18-15.31,1.44-.91,3.29-3.24,4.47-1.11.63,1.12-1,4.53-2.53,5.66-13.68,10-27.27,20.08-42.5,27.89a318.94,318.94,0,0,1-58.42,23.2c-14.27,4-29.2,5.83-43.41,10.06a71.73,71.73,0,0,1-22.1,2.88c-.77,0-1.1,4.09-2.46,5.47-3.95,4-4.46,10.6-10.63,13.1-1.49.61-1.61,4.64-2.35,7.09a49.93,49.93,0,0,0,5.46.16c30.07-2.36,58.63-10.73,87.42-19.48,27.86-8.46,52.85-22.21,78.6-34.76a33.79,33.79,0,0,0,4.8-3c1.88-1.34,4-1.79,5.11.36.86,1.67,1.31,3.7-1.62,5.18-23,11.67-44.28,27.33-69.06,34.94-20.08,6.17-39.95,13.22-60.86,17.2-15.78,3-31.46,7.63-47.42,7.06-14.78-.52-12.34,12.89-18.48,19.12-1.85,1.88,1.54,3.13,3.86,3.15,23.25.22,46.6-.21,69.44-4.31,22.48-4,45-9,66.63-16.28,18-6,34.67-15.91,51.9-24.16,2.13-1,4.8-3.41,6.3-1,1.62,2.6-1.85,4.5-3.68,5.85-11.79,8.69-25.25,14.22-38.57,20a308.18,308.18,0,0,1-95,24.4c-15.62,1.5-30.93,3-46.78,2.31-8.66-.35-19.65-1-26,6.22H355.89q2.92-1.11,5.83-2.35c8-3.45,16.4-7.68,25.46-9.15,2-.32,4.09-1.47,5.23.66.35.67-1.29,3-2.52,3.82a74.93,74.93,0,0,1-13.34,7h184.7c-18-3-35.79-8.33-53.1-14.61-5.63-2-12.14-1.72-15.44-8-.39-.73-.87-1.41-1.31-2.12,1.05-.35,2.23-1.22,3.13-1,18.57,4.72,37.07,9.76,55.68,14.3a153,153,0,0,0,24.44,4.23c15.11,1.17,30.31,2.28,45.43,1.94,21-.48,41.94-2.84,62.25-9.23a219.14,219.14,0,0,1,28.53-6.39c3.4-.59,3.83-2.75,3.89-4.7.29-9.21.28-18.44.15-27.66-.08-5.25-3.42-8.51-7.87-10.51-2.89-1.3-4.64,1.68-7,2.61-10.08,4-19.72,9-30.86,10.41-15.93,2.1-31.58,6.56-47.54,8.24a370,370,0,0,1-73.29.16,329.05,329.05,0,0,1-49.61-8.74c-3.87-1-9.95-3.22-10.37-5.68-.78-4.56,4.3-2,6.92-2.12.9,0,1.81,1.54,2.82,1.68,14.37,2.12,28.71,4.59,43.15,6,15.53,1.52,31.5,4.43,46.65,2.3,16-2.26,32.18-2.14,48.19-5.36,10.85-2.18,21.73-5.53,33.37-5.83,10-.27,19.9-6.18,29.79-9.76,1-.34,2.46-1.47.91-3.11-7.65-8.12-14.66-17-23.17-24.07-3.79-3.15-8.85,3.2-12.91,4.91-22.63,9.52-46.33,11.1-70.16,13.5-14.53,1.46-28.85.09-43.18.32-21.58.33-42.25-4.16-63.26-6.84-7.19-.92-14.17-3.71-21.14-6-1.25-.42-1.95-2.54-2.9-3.87,1.23-.68,2.59-2.11,3.68-1.93,18.48,3,36.93,6.29,55.39,9.45a29.1,29.1,0,0,0,4.93.4c17.89,0,35.79.24,53.68,0,27.71-.43,54.42-5.86,81.25-13.09,15.84-4.27,4.41-7.09,1.58-10.66s-7.22-6.28-9.71-10.13c-7.35-11.38-14.92-4.35-23.18-1.53a122.44,122.44,0,0,1-25.61,5.45c-23.67,2.7-47.53,3.76-71.27,1.91-19.73-1.53-39.4-3.93-58.75-9.13-6.7-1.8-13-4.94-19.86-6.06-2.3-.37-4.06-2.47-3.52-4.66.78-3.19,3.47-.91,5-.6,19.06,3.91,38.37,6.22,57.52,9.3a247.93,247.93,0,0,0,57.45,2.38c18.18-1.29,36.25-4.13,54.34-6.51a50.56,50.56,0,0,0,10.51-3c3-1.08,4-2.86.83-5.15-2.09-1.52-4.84-2.68-6.1-4.72-15.33-24.89-36.15-9.15-55.2-8-10.61.62-21.06,3.22-31.94,1.6-12-1.78-24.22-2.25-36.35-3.14-13.07-1-25.49-5.07-38.21-7.53-10.24-2-18.95-6.61-28.17-10.53-1.76-.75-5.34-1-4.2-3.47,1-2.18,4.22-3.5,7.39-2.27,23.41,9.1,47.31,15.75,72.75,15.76,9.27,0,18.52,1.42,27.8,1.85,21.76,1,42.89-5.18,64.51-6a6.47,6.47,0,0,0,1.72-.58c-1.88-2.91-3.16-6.69-5.79-8.5-3.41-2.35-5.36-5.45-7.47-8.62-8.22-12.45-19.51-7.72-31-6.79a285,285,0,0,1-45.52-.44c-16.37-1.29-32-4.91-47.66-9-8-2.06-15.72-5-23.46-7.93-2.62-1-7.71-1.6-6.36-5s6.36-1.65,9.47-.76c15.06,4.3,29.95,8.91,45.44,11.81,26.43,4.93,52.81,3.45,79.29,1.82,2.42-.14,4.19-.33,2.25-3.11-3.66-5.27-7.2-10.67-11.35-15.54-5.19-6.11-9-11.87-20.32-9.9-24,4.15-48.12-1.65-71.81-5.76-14-2.43-28.15-6-40.93-13.14-2.45-1.37-4.87-2.27-3.37-5.19,1.35-2.63,4.31-1.26,6.27-.6,20.26,6.8,41,10.58,62.17,13.85,17.79,2.75,35.28,2.63,54,3.49-7.85-10.35-15.14-19.59-21.89-29.2-1.6-2.27-2.12-2.8-5-2.23-16.61,3.21-32.83.16-49-3.71-13.55-3.24-27.24-5.8-40.41-10.64-3.41-1.25-6.27-2.38-8.08-5.41a3.18,3.18,0,0,1,.73-2.5c3.6-.09,7.48-.77,10.76.3,20.15,6.61,40.35,12.67,61.79,13.34,4.56.14,9.08,1.42,13.65,1.77,2.4.17,4.87-.54,7.31-.86a59.18,59.18,0,0,0-3.23-6.88c-3.77-6-7.6-12-11.75-17.67-.94-1.29-3.49-2.5-4.94-2.18-17.13,3.83-32.42-3.17-47.74-8.53-6.92-2.42-14.6-2.52-21-7.24-2.43-1.79-4.5-3.06-5.42-5.9,2.69.11,5.59-.42,8,.41,20.63,7.06,41.34,13.57,63.76,15-5.67-10.1-10.51-20-16.61-29.15-5.32-8-15.54-7.24-23.46-10.61a65.83,65.83,0,0,1-15.15-9.61c-13.83-11.32-27.24-29.24-24.81-45.4.89-5.88,4.82-10,9.56-13.07,8-5.16,15.7-1.9,21.3,3.47a119.86,119.86,0,0,1,23.21,30.29,105.25,105.25,0,0,1,7.71,18.58c5.29,17.33,21.39,24.47,31.11,37.42.48.63,1.77.65,2.68,1a5.69,5.69,0,0,0,.31-1.91c-4.14-20.55-5.77-41.63-12.38-61.68,3-.44,5.85-.76,8.49-1,6.47,19,10.39,38.68,9.75,58.68s14.51,28.61,25,40.86c2.74,3.21,5.56,6.35,8.66,9.87,2.56-16.36-1.74-31.77-5.08-47.16-2-9.41-5.65-18.48-8.12-27.82-.69-2.63-1.59-6.58,1.91-8,3-1.21,4.6,2.47,5.32,4.22,6.43,15.73,10.29,32.1,13,49,2,12.84,1,25.51,1.65,38.23.16,3.23,5.29,6.25,8.21,9.3,6.73,7,13.5,14,21.57,22.34,0-19.79,1.54-37.63-3-55.25-3.22-12.38-3.37-25.47-8.72-37.39-1.16-2.57,1.5-3.93,3.19-4.75,2.18-1.07,2.29,1.19,3.07,2.67,14.32,27.23,16.37,57,13,86.21-2.48,21.44,14.07,26.84,23.21,38.76,1.5,2,3.12,3.84,4.72,5.8a182.67,182.67,0,0,0-.92-67c-1.63-8.53-1.69-17.4-4-25.93-.32-1.17,2-3.07,3.08-4.64,2.24,2.7,5.68,5.07,6.5,8.14a196,196,0,0,1,6.38,50.62,235.73,235.73,0,0,1-3.76,42.65c-1.37,7.68,8.72,9.59,12.39,15.27,2.63,4.07,6.56,7.33,10,10.82a17.36,17.36,0,0,0,3.53,2.16c.49-1.32,1.53-2.7,1.4-4-1.76-17,2.34-33.74,1-50.93-.93-12.36-3.87-24.7-3-37.24.25-3.41-1.85-8.79,2.52-9.27,4.94-.54,5,5.91,5.37,9,2.1,19.17,5.85,38.28,4.23,57.7-1.09,13.19-2.38,26.38-4.07,39.5-1,8.1,7.08,8.2,10.18,12.67,2.4,3.48,6.15,6,9.54,9.19,2.21-13,5.06-26.18,4.45-40-.38-8.66,1.29-17.41,1.07-26.1s-1.72-17.44-2.49-26.17a116.74,116.74,0,0,1-.48-13.61c0-.89,2-1.73,3-2.59,1.94,3,5.06,5.74,5.62,9a220.89,220.89,0,0,1,3,55.7c-1.28,15.89-4.26,31.64-6.51,47.45-.81,5.69,4.71,9.21,7.24,10.72,6.25,3.71,9.47,9.66,15.21,15.16,0-7.38.49-13.92-.09-20.37-1.64-18.44-.82-36.81-.5-55.27.2-12-.81-24.48-1.24-36.74-.18-5.14-1.15-10.6.17-15.39,6.53-23.74-10.59-28.82-26.64-35.78-12.47-5.41-23.25-14-34.71-21.2-13-8.13-24.93-17.37-36.68-26.78-24.46-19.59-47.49-40.88-67.88-64.85-6.11-7.2-11.9-14.62-17.26-22.34q.31-5.17.66-10.29c17.13,23.68,37.27,44.74,58.88,64.41,16.67,15.18,33.24,30.92,51.87,43.38,22.09,14.77,44.49,29.69,69.94,38.68a3.76,3.76,0,0,0,2.17-.06c.52-2.72,1.84-5.78,1.08-8.14-3.18-9.81-.49-19.53-.51-29.28,0-8.32-8.73-6.79-13.29-9.63-9-5.64-19.21-9.37-28.69-14.32-15.65-8.16-31.66-15.78-45.52-26.95-15.78-12.73-31.11-26-46.67-39a328.53,328.53,0,0,1-47.2-48.4q.38-5.09.77-10.13c4.76,5.92,9.33,12,14.39,17.55,13.48,14.8,29.43,27.38,44.45,40.76,28.33,25.24,59.8,45.84,93.55,63q12.89,6.55,26,12.73c.68.32,2.91-1,2.9-1.07-2.77-8-.78-16.59.78-23.85,4-18.63-10.79-19.57-20.7-24.09-31.22-14.25-59.75-32.74-87.21-53-23.39-17.28-45.63-36-65.31-57.47q-3.12-3.42-6.12-7c.29-3.29.59-6.56.88-9.82,4.5,4.52,9,9.07,13.21,13.81,16,17.8,34.8,32.27,53.68,46.64,24.34,18.53,49.62,35.47,77.25,49.08,11,5.4,22,11,33.71,16.69.65-12.41,2.41-25.09,1.58-37.6-.56-8.35-10.57-7.11-16.29-9.54-26.08-11.09-48.45-27.91-71.63-43.69a583,583,0,0,1-63-49.24c-8.43-7.62-17-15.27-24.84-23.63q.57-5.52,1.16-11c9.07,9.6,18.16,19.17,28,27.9,17.72,15.75,36,31.27,55.79,44.19,26.59,17.37,52,37.13,82.07,48.57,5,1.88,10.62,3.65,9.49-6.39-1.15-10.37-.74-21-.13-31.46.75-12.86-11.39-11.78-17.52-15.06-16.89-9.06-34.72-16.48-50.6-27.38-16.56-11.38-33.15-22.82-48.78-35.41-17.27-13.92-33.76-28.85-50-44l-3.46-3.22q.62-5,1.24-9.86,11.59,11,23.18,22c15.39,14.55,32.5,26.9,49.6,39.29,18.18,13.17,36.13,26.65,56.22,36.88,11.84,6,23.5,12.42,35.49,18.13,7.58,3.6,5.9-5.83,6-6.81.77-10.71-.06-21.52.54-32.25.71-12.77-11.33-9.24-17-13.57-11.78-9-25.37-15.67-37.5-24.29q-34.8-24.73-68.72-50.68C588.46,986.79,575.18,973,563,958.18c.47-3.14.93-6.26,1.4-9.36,7.19,8.19,14.41,16.33,22.25,23.81,11.49,11,24.85,20,37.45,29.76,14.44,11.22,28.58,22.87,43.53,33.36,15.55,10.92,31.73,21,48.07,30.68,3.18,1.88,8,1.27,11.28,8.08,0-13.81-2.15-25.26.45-35.49,5.12-20.12-9.94-25.8-21.85-31.18-20.07-9.09-37.42-21.7-55-34.43C622,952.71,594.4,931,571.51,904q.82-4.9,1.67-9.75c6.75,7.66,13.55,15.28,20.73,22.52,18.74,18.91,40.87,33.82,61.76,50.19,21.1,16.53,45.31,27.87,68.05,41.66,1.9,1.16,5.5,2.77,5.36-2.94-.23-9.35.34-18.74.81-28.1.56-11.11-4.29-16.33-14.6-22-21-11.57-41.24-24.39-59.2-41.39-16.94-16-36.21-30-52-47.33-7.34-8.08-14.55-16.34-21.22-25q1.13-5.7,2.27-11.3,6.58,8.41,13.24,16.75A264.67,264.67,0,0,0,639.07,888c17.85,14.39,34.23,30.65,53.83,42.83,11.23,7,22.58,13.8,33.79,20.84,2.42,1.52,4.53,2.61,4.17-1.52-1.09-12.46-3-24.78-.25-37.39.77-3.59-4.9-3.09-7.61-4.48-22.13-11.39-42-26.24-61.19-41.8a305.7,305.7,0,0,1-60.57-65.76c-2.42-3.57-4.92-7.08-7.45-10.57q1-4.44,2-8.8c4.23,5.16,8.55,10.24,12.45,15.65a289.38,289.38,0,0,0,46.84,50.67c12.76,10.92,26.1,21.22,39.73,31,10.46,7.52,21.87,13.73,32.68,20.78,3.06,2,3.49,1.33,3.47-1.84-.06-17.15.59-34.33-.34-51.43-.35-6.56-8.75-6.26-13.39-9.15a641.85,641.85,0,0,1-76.67-56.53c-13.4-11.43-24.64-24.51-35.44-37.95q1.14-4.53,2.29-9c8.29,10.54,16.57,21.08,27.12,29.56,18.54,14.91,37.17,29.73,56.24,44,11.08,8.27,23.08,15.3,34.73,22.81a28.5,28.5,0,0,0,4.84,2,40.31,40.31,0,0,0,.57-4.74c.06-9.19-1.16-18.58.31-27.54,2.15-13.16-4.18-19.23-14.81-24.58-18-9-33.34-22-49-34.52a417.15,417.15,0,0,1-49.22-46.78c.86-3,1.73-6,2.6-9,14,15.3,29.11,29.14,44.85,42.56,17.32,14.78,36,27.52,54.9,40.06,3.13,2.08,6.54,3.75,10,5.7,3.76-14.38,2.53-28.71,2.05-42.79-.28-8.37-10.64-7.21-16.05-10.93-12.17-8.36-24.34-16.56-35.21-26.64-8-7.38-16.89-13.74-24.46-21.47-8-8.19-16.72-15.8-24.67-24.08.87-2.74,1.74-5.46,2.61-8.14,14.45,15.27,30.88,28.53,46.42,42.61C695.89,695,711.94,707,729.87,716c3.24,1.64,2.94-.16,3.11-2.4.54-7.17,2.16-14.38,1.73-21.48-.54-8.91-9.57-9.8-15.38-13.73-11.76-8-21.24-18.5-31.56-28.13-14.64-13.66-29.74-26.85-42.48-42.3q1.5-4.26,3-8.42a127.69,127.69,0,0,0,15.34,16.32c21.65,19.18,40.6,41.45,65.28,57.18,2.05,1.31,3.61,3.36,6,5.66,0-8.78-.42-17.35.14-25.85.39-5.78,2-11.51,3.32-17.19,1.91-8.08-5.82-9.12-9.6-11.55-14.61-9.39-26.3-21.94-38.43-33.88a302.73,302.73,0,0,1-27.23-29.92q1.83-4.57,3.63-9,7.11,9,15,17.48c14.71,15.85,29.52,31.65,47.16,44.41,9.84,7.12,9.78,7.08,10.07.49.19-4.29-.26-8.89,1.13-12.8,6.13-17.31-6.34-24.63-17.11-32.76-12.38-9.36-21.39-21.82-31.88-33a110.11,110.11,0,0,1-11.24-14.4q1.9-4.26,3.78-8.33a351.83,351.83,0,0,0,58,61.12c1.71-12.68,3.71-25.93,5.16-39.23.5-4.62-4.94-4.93-7.4-7.46-14.52-14.93-28-30.64-39.49-47.85q2.22-4.29,4.35-8.29a236.86,236.86,0,0,0,18.21,22.55c8.19,9.21,13.33,21,23.37,28.15,11.67-19.44-1-32.85-11-48.37-5.74-8.95-11.57-18-16.42-27.49,2-3.31,3.84-6.35,5.6-9.15a286.57,286.57,0,0,0,28.54,47.24c.07-12.65,2.07-23.11-3.86-35.69-5-10.54-8.73-21.61-10.19-32.93a71.6,71.6,0,0,1,6.52-41.4c5.12-10.52,15.31-12.36,25-10.32s15.69,10.08,17.78,19.61a76.85,76.85,0,0,1-1.56,38.8c-4.14,14.33-11.67,27.79-19.82,41.1-2.94,4.81.36,10.71.52,16.11.32,11-.85,22.1,2.37,33.14a516.27,516.27,0,0,0,34.76-54.45q2.15,4.49,4.45,9.41a242.28,242.28,0,0,1-26.87,39.6c-11.64,13.76-15.08,27.36-11.29,44.65,2.06,9.37.37,19.57.37,31.23,18.75-23.5,34.57-46.48,48.18-71,1.81-3.26,3.61-6.51,5.43-9.77q2,4.41,4,9c-6.86,12.68-14,25.21-21.92,37.14-9.13,13.66-18.18,27.94-30.7,39.23-3.88,3.49-2.79,8.38-2.75,13,.14,15.49,0,31,0,49.82,13.72-17.6,25.28-31.64,35.94-46.33,11.43-15.75,23.52-31,32.36-48.63,1-2.06,2.09-4.1,3.16-6.13q2.16,5.25,4.36,10.68a160.82,160.82,0,0,1-16.79,25.59c-11.16,13.69-20.43,28.9-31.25,42.88-6.76,8.73-14.56,16.7-22.44,24.46-2.58,2.53-3.63,4.78-3.45,8,.71,12.35,1.48,24.7,2,37.05a77.35,77.35,0,0,1-.64,9.22c5.08-.73,7.49-5.16,10.17-8.41,24.21-29.32,48.24-58.82,67.16-92q4-7.08,8.1-14.14,2,5.19,4,10.52a485.59,485.59,0,0,1-34.35,51.32c-14.29,18.73-27.72,38.22-44.44,54.71-10.8,10.65-11.23,22-10.12,35.24.8,9.41.16,18.93.16,28.86,8.33-9.54,16.2-18.75,24.29-27.79,24.39-27.26,48-55,66-87.21q5.75-10.24,11.21-20.6,1.92,5.33,3.84,10.76c-3.67,7.33-7.52,14.55-11.68,21.58-10.36,17.5-22.91,33.64-36.12,49.3-12.88,15.26-26.66,29.58-40.29,44.11-13.29,14.17-21.85,30-15.86,51,1.35,4.71-1.33,11.24.27,17,.4,1.43.28,4.23.61,4.26,2.81.27.73-2.79,1.78-3.29,8.53-4.05,13.9-11.77,20.2-18.13,13.79-13.91,26.58-28.81,39.73-43.36,8-8.89,16.63-17.39,23.81-26.94a362.54,362.54,0,0,0,21.9-33.61c3.59-6.08,7.08-12.21,10.54-18.37q1.66,5,3.33,10.14c-7.72,12.8-16.32,25.1-24.65,37.6-10.67,16-22.9,30.69-35.57,44.83a613.83,613.83,0,0,1-55.84,55.21c-9.41,8.12-4,17.35-6.72,25.71-1.93,5.91.63,13.29,1.21,20,.22,2.55.49,5.11.74,7.66a55,55,0,0,0,6.26-4.59c13-12.57,25.6-25.59,38.93-37.81,21-19.26,36.79-42.84,54.88-64.51,11.86-14.21,22.74-29.11,33.32-44.22q1.51,5,3,10c-9.81,13.69-20.3,26.9-30.85,40.09-16.6,20.75-31.89,42.65-50.89,61.31-16.42,16.11-33.58,31.52-51.17,46.33-6.72,5.66-4.29,12.62-4.87,18.57-1.16,11.95.25,24.15.66,36.24a37.1,37.1,0,0,0,.77,4.64,29,29,0,0,0,4-2.72c18.62-17.64,38.46-34.19,55.45-53.28,21.46-24.12,42.51-48.73,59.88-76.29,8.6-13.65,17.78-26.92,27.08-40.13q1.4,5,2.77,10-9.14,14.57-18.51,29c-13.31,20.35-28.84,39.06-44.15,57.94A469.64,469.64,0,0,1,804.88,946c-7.11,6-14.61,11.63-22.27,16.94-1.78,1.24-1.5,2.31-1.5,3.56q-.11,21.75,0,43.5a9.32,9.32,0,0,0,1,2.88,9,9,0,0,0,2.54-1.17c18.14-17.22,36.78-34,54.23-51.86,22.84-23.41,44.27-48.17,63.19-74.93,12.32-17.42,24.38-35,36.55-52.58.73,2.84,1.45,5.7,2.17,8.56-18.91,29.17-37.5,58.59-60.13,85-18.64,21.8-39,42.1-60.15,61.72-12.3,11.43-25.17,21.75-38.41,31.88-2,1.56-1.87,7.7-.88,11.21,3.21,11.35,1.07,22.81,1.81,34.18a37,37,0,0,0,.6,3.75,31,31,0,0,0,2.63-1.77c17.89-14.65,36.55-28.47,53.43-44.2a706.67,706.67,0,0,0,54.74-56.5c20.1-23.44,38.79-48.13,54.84-74.69A40.91,40.91,0,0,1,952.06,887.55ZM1024,8V1672a8,8,0,0,1-8,8H8a8,8,0,0,1-8-8V8A8,8,0,0,1,8,0H1016A8,8,0,0,1,1024,8Zm-8,1658.34V13.66l-48,48V1618.34ZM962.34,56l48-48H13.66l48,48H962.34ZM13.66,1672h996.68l-48-48H61.66ZM960,1613v-25.56c-12.35.23-24.69.27-37-.69-21.19-1.65-42.33-4.89-62.83-11.36-12.83-4-26.12-6.61-39-10.49-3.6-1.08-6.42-4.61-9.73-6.82-4.85-3.24-21.62,4.27-22.22,10.47-.73,7.59-2.16,16.13.53,22.7,1.88,4.58,9.8,7.87,15.65,9.46,26,7.11,53.09,7.7,79.35,12.77a151.28,151.28,0,0,0,25.07,2.55h11c8.84-.2,17.66-.81,26.5-1.39A107.85,107.85,0,0,0,960,1613Zm0-35.1V1543.8c-15.92-1.67-31.69-4.78-47.57-7.83a347.09,347.09,0,0,1-54.54-15.63c-10.61-3.93-14.8,1.54-20.58,5.93-9,6.82-17.33,14.5-26.54,22.32,30,17.22,63.64,20.46,96.55,26.55,13.48,2.5,26.84,1.73,40.29,2C951.72,1577.29,955.88,1577.54,960,1577.87Zm0-42.2v-35.82c-4.7-.27-9.41-.56-14.11-.8-20.28-1-39.89-5-58.55-13.33-1.67-.74-4.67-1.19-5.67-.28-8.81,8.15-17.33,16.61-25.88,25-.85.84-1.37,2.09.68,2.43,21.61,3.56,41.66,13.09,63.47,16.21C933.33,1531,946.59,1533.92,960,1535.67Zm0-43.19v-33.8c-1.36-.15-2.71-.3-4.06-.48-12.72-1.73-24.58-6.25-37.12-7.56-5.77-.6-8,6-12,9.13-6.73,5.16-12.89,11.07-20,17.31C912.23,1486.56,936.11,1489.85,960,1492.48Zm0-41.9v-35.43c-2.18-.47-4.35-1-6.51-1.72-2.71-.86-4.43.07-6,1.87-8,9-16,18-24.29,27.4A352.12,352.12,0,0,0,960,1450.58Zm0-62v-27.76c-10,10.5-19.87,21.09-29.42,32-16.78,19.13-34.83,37-53.33,54.23-21.63,20.19-45,38.57-67.48,57.81a229.24,229.24,0,0,0-17,15.6c-4.2,4.4-9.14,5.76-14.41,4.36s-3.42-6.53-3.39-10.15c.16-25,.41-50.09,1-75.12.45-20.59,1.93-41.17,1.86-61.75-.07-19.91-1.81-39.81-2.32-59.73-1-39.28-2-78.58-2.36-117.88-.24-27.8.93-55.62.89-83.43q-.11-63.36-1.06-126.72c-.35-25.78-1.18-51.56-2-77.34-.95-30.85-2.38-61.7-3-92.55-.5-23.35.87-46.7-.74-70.08-1-14.73-.19-29.58-.19-44.39,0-22.69.5-45.41-.16-68.09-.52-17.9-2.8-35.75-3.66-53.65-.61-12.56.08-25.17-.25-37.75-.36-13.86-1.2-27.72-1.9-41.57-.07-1.41.77-3.67-2.12-3.5s-1.61,2.41-1.75,3.76c-2,20.2-4.35,40.37-5.76,60.61-.9,13,0,26.09-.61,39.11-.64,13.67-3.24,27.34-2.78,40.93.26,7.6.7,15-.06,22.66-1.38,13.88-2.32,27.82-3.29,41.74-.65,9.36-1.34,18.73-1.48,28.11-.34,23.92-.27,47.84-.59,71.76Q742,848.51,741,887.23c-.63,27-1.16,54-2.24,81-.77,19.39-3.4,38.76-3.35,58.13.07,30.14-.65,60.28.2,90.45.49,17.3-1.8,35.15-1.9,52.49-.22,34.86-2.93,69.58-3.41,104.38-.16,11.39.66,22.8.69,34.2.09,39.94-1.09,79.92.53,119.8.75,18.44-2.37,36.91,1.2,55.37,1.18,6.13-.78,13-2,19.4-.61,3.12-3.13,6.4-6.61,6.31-2.31-.06-4.84-2.23-6.79-4-19.89-17.91-39.89-35.71-59.42-54-10-9.34-19-19.71-28.52-29.51-8.16-8.37-16.53-16.55-24.75-24.88-9.63-9.77-19.28-19.52-28.76-29.44q-20.7-21.63-41.14-43.52c-10.46-11.24-20.62-22.76-31-34-.95-1-2.68-1.35-4.06-2a18.23,18.23,0,0,0,1.42,3.49c9.28,13.69,18.49,27.43,28,41,8.86,12.67,17.56,25.47,27.1,37.61,14.22,18.1,29.13,35.66,43.72,53.46,31.16,38,67.65,71.1,99.79,108.19,8.86,10.23,19.9,19.75,22.23,33.87,1.53,9.27,0,19,0,28.58,0,7.5.14,15,.18,22.49h56.51c-.77-13.6-1.15-27.24-1.53-40.86-.29-10.49,2.32-17.83,13.74-23.43,18.14-8.9,32.52-24,48-37.1,26.12-22.24,49.3-47.51,73.36-71.83,15.49-15.65,29.61-32.69,43.93-49.45Q958,1391,960,1388.58Zm0-39.19v-13.75a10.58,10.58,0,0,1-1.61-2.88c-5.52-17.6-3.46-35.76-4.81-53.5-1.29-17.08,1.6-34.53,6.42-51.34v-71.59c-3,4.75-6.18,9.42-9.51,14-12.68,17.25-25.16,34.82-41.25,49.43-17.38,15.78-33.15,33.41-51,48.53-22.54,19-46.8,36-69.75,54.53-8.78,7.1-2.45,17.86-3.54,26.88a184.91,184.91,0,0,0-1.44,19.94c-.07,6.83.94,13.68.87,20.51-.3,29-.82,58-1.3,87-.2,12.22-.51,24.44-.66,36.66,0,1,.89,2,1.37,3.06.63-.46,1.28-.88,1.88-1.38,11.65-9.61,23.76-18.74,34.75-29.06,5.16-4.85-2.58-9.32-4-13.89-3.67-12.08-4.63-24.46-7.16-36.54-2.93-13.94-1.52-27.79-3.43-41.59-2.31-16.78-1.1-33.88,1.11-50.78.24-1.87,1-2.76,2.87-2.53a3.46,3.46,0,0,1,3.25,3.74c.21,17.41-.44,34.89.79,52.23,1.74,24.59,2.85,49.3,10,73.26,2.32,7.79,4.09,9.77,10.49,3.56,4.58-4.46,10-8.1,14.89-12.2,5.18-4.29.64-9.16-.63-12.51-9.94-26.32-11-53.92-11.2-81.32-.16-17.72,3.5-35.48,5.8-53.18.31-2.39,1.89-6.13,5.33-5.35,4.3,1,1.12,3.92.93,6.26-1.91,22.57-6.08,44.91-3.8,67.85,2.3,23.22,4.88,46.26,12.16,68.7,13-7.06,22-19,32.11-29.53,1.72-1.79-2.15-8.2-3.36-12.4-6.12-21.14-6.6-42.69-8.2-64.37-1-13.32.23-26.21.8-39.25.37-8.29,2.46-16.51,4-24.7a4.07,4.07,0,0,1,3.22-2.34c2.35.31,2.7,2.4,2.71,4.6,0,12.85-3.69,25.4-2.48,38.41,1,11,0,22,1.68,33.23,1,6.93-1.33,14.54.6,22.13,3,11.74,4.89,23.76,7.34,35.64a2.22,2.22,0,0,0,1.69,1.31c5.77-.25,31.23-32.11,28.73-36.87-6.38-12.14-8.29-25.3-8.87-38.41-1.06-23.84-2.1-47.79,2.71-71.48,1.22-6,1-12.45,2.72-18.32.91-3.09,1-9.83,6-8.19,4.13,1.35,2.14,7.46,1.34,11.16-3.18,14.74-3.85,29.63-3.76,44.61.08,12.44.56,24.9.12,37.32-.45,12.76,3.43,24.61,6.4,36.67.58,2.33,2.16,5.31,5.56,1.23C945.59,1364.48,952.12,1356.1,960,1349.39Zm0-208.78v-53.12c-5.44,7.53-11.12,14.9-16.82,22.26-23.24,30.08-46.46,60.23-73.08,87.4-24.31,24.81-50.73,47.33-80.62,65.37-8.52,5.15-5.56,13.08-5.81,20.29-.29,8.48-.4,17-.61,25.44-.06,2.37-.3,5.15,2.22,6,.94.34,2.79-1.87,4.21-2.94,18.67-14.17,38.17-27.38,55.79-42.75,21.69-18.91,42.4-39.06,62.4-59.77,12.45-12.9,23.34-27.43,34-41.92C948,1158.29,954,1149.47,960,1140.61Zm0-65.44v-60.8c-7.07,11.31-14.06,22.66-20.69,34.22-19.12,33.33-45,60.93-72.46,87.08a442.07,442.07,0,0,1-80.52,61.27c-7.78,4.59-1.24,10.32-1.8,15.29-1.57,13.94-1.1,28.11-1.47,42.19-.08,2.93,1.6,3.25,3.39,1.9,11.68-8.86,23.49-17.56,34.79-26.89,14.45-11.93,29.25-23.62,42.45-36.86,14-14,26.49-29.49,39.13-44.75,12.15-14.68,23.65-29.9,35.42-44.9Q949.13,1089.06,960,1075.17Zm0-73.29v-51.7c-5.54,9-11,18.15-15.83,27.54-15.71,30.3-37,56.57-59.47,81.64-20.55,23-43.82,43.43-70.19,60.15-10,6.37-19.2,14-30.7,17.79-.38.12-.71,1.08-.69,1.65.29,14.31,1,28.63.87,43-.08,11.32,5.83,4.23,8.28,2.52a661.06,661.06,0,0,0,60.8-47.85c23.93-21.27,45-45.09,64.81-70,11.86-14.89,20.71-32.17,31.16-48.22C952.64,1012.86,956.31,1007.36,960,1001.88ZM789.06,1616h54.88c-5.71-.92-11.43-1.81-17.16-2.61-13.26-1.84-26-4.68-37.72-13.5ZM765.32,447.2c11.58-18.06,18.09-38.08,15.26-59.82a20.09,20.09,0,0,0-13.33-16.23c-8.81,1.46-15.91,4.66-18.19,14-4.79,19.55-.66,38.52,4.73,57.14C754.32,444.11,755.55,462.43,765.32,447.2ZM713.19,1611.32c.4-7.44-2-8.62-8.06-6.14a188.27,188.27,0,0,1-37.6,10.82h45.61C713.1,1614.44,713.11,1612.87,713.19,1611.32ZM478.51,1264.49A27.45,27.45,0,0,0,478,1259c-4.63-15.25-15.19-27.22-22.57-40.93-3.59-6.68-9.89-10.63-15.14-10.25-6.36.45-8.31,8.1-6.88,18.51a56.37,56.37,0,0,0,3.54,7.91c8.3,14.6,20.85,24.24,36.34,30.19C474.79,1265,476.75,1264.5,478.51,1264.49Zm-93.93-42.09c1.87-7.29,4.89-15.91-3.85-20.61-7.91-4.25-13.93,1.36-18.53,7.25-12.32,15.73-16.95,34.06-17.34,53.75l.69,5.79c3.58-1.88,8.15-2.94,10.56-5.81C366.73,1250.15,380.22,1239.35,384.58,1222.4Zm-65.87,117.41c.55-1.3.07-3,.07-5.64-11.25,21.21-25.17,39.13-37.78,57.91-16.05,23.9-31.85,48-48,71.76-9.75,14.31-20.17,28.16-30,42.39-11.46,16.54-22.65,33.26-33.94,49.92-2.36,3.48-4.63,7-7,10.47a3.7,3.7,0,0,1-2.06,1.21c-1.08-1.17-2.71-2.49-2.77-3.83a751.27,751.27,0,0,1,2-98.73c2.84-33.61,4.09-67.24,3.93-101-.22-45.5.12-91-.14-136.49-.1-17.29-2.7-34.67-1.47-51.82,1.47-20.65-.92-41.07-.83-61.61.09-21.09-2.93-42.18-3.39-63.3-.67-30.55.64-61.17-.58-91.69-1.11-27.36-4.49-54.63-6.94-81.94-.07-.83-.92-1.58-1.69-2.82-1,19.14-1,37.8-3.18,56.2-2.33,19.37-1.87,38.89-4.49,58.29-1.27,9.4-1.28,19.68-1.28,29.57,0,21.6-1.55,43.1-3.21,64.64-1.54,20-.1,40.25-.83,60.36-1.27,34.94-3.53,69.85-4.74,104.79-.93,27-.95,54.14-1.28,81.22-.31,26-.67,51.94-.69,77.91,0,18.55,1.06,37.1.62,55.63-.43,18.22-2.53,36.4-3.23,54.63-.66,17.29-.49,34.62-.62,51.93,0,2.67.61,5.68-2.5,6.87a5.07,5.07,0,0,1-5.84-1Q90.4,1551.17,64,1526.78v38.08c2.57,3,5.23,6,8,8.84,12.74,12.84,23.44,27.71,34.38,42.3h69c13.36-21.9,25.85-44.33,40.51-65.51,11.73-17,19.61-36.61,29-55.16,16-31.65,32.28-63.19,47.64-95.16C302.09,1380.42,310.14,1360,318.71,1339.81ZM158.17,800.3c4.43-15.51,3.32-30.67,2.53-46-.32-6.19-2.23-13.93-10.13-14.42-5.76-.35-10.8,3.67-13.5,9.47A65.44,65.44,0,0,0,131,775a105.06,105.06,0,0,0,13.34,50.69c.64,1.16.25,4,2.81,3.08a6.21,6.21,0,0,0,3.57-3.46C152.93,816.9,155.8,808.59,158.17,800.3Zm-26.66,238.53c.25-3.48-1.49-5.29-4.48-7.12-13.45-8.22-23.79-20.08-35.08-30.8-9.7-9.2-19.33-18.48-27.95-28.67v44.89c14,15.65,28.3,31.08,43.53,45.62,5.88,5.62,12.54,10.46,19.06,15.36,3,2.24,2.22-.94,2.31-2.2C129.82,1063.55,130.65,1051.19,131.51,1038.83Zm-2.72,100.43c.21-3.54-2.42-2-3.64-2.61-17.78-8.3-30.26-23-44.35-35.85A196.59,196.59,0,0,1,64,1083v51.29l1.34,1.69c8.82,10.94,18.8,21,28.89,30.81,8.13,7.91,17.19,14.88,25.88,22.23,1.33,1.13,2.84,2,4.28,3,.74-2,2-3.89,2.14-5.89C127.38,1170.56,127.88,1154.9,128.79,1139.26Zm-2.55-4.93c2.41-17.09,3.71-33.28,2.14-49.35-.32-3.27-7.49-6-11.6-8.77C97.19,1062.77,80,1046.6,64,1029.28v43.28c2.33,2.67,4.68,5.31,7.09,7.9,11.79,12.68,22.87,26.12,36.86,36.71C114.34,1122,119.74,1128.16,126.24,1134.33Zm-1.1,74.43c1.3-8-2.2-11.35-8.46-15.15C96,1181.08,79.35,1164.27,64,1146.18v44.32q7.5,7.89,15.07,15.71c8.32,8.57,17.7,16.13,25.85,24.84a52.39,52.39,0,0,0,12.24,9.42,43.21,43.21,0,0,1,5.19,4.14c.19-2.25.42-4.5.58-6.75C123.61,1228.15,123.59,1218.32,125.14,1208.76Zm-4.56,147.81c2.46,1.54,2.42-1.11,2.29-2.71-.61-7.53-3.08-15.44-1.59-22.52,4.14-19.56-9.2-27.3-21.62-36.73A363.56,363.56,0,0,1,64,1263.27V1305c14.48,14.38,29.48,28.25,44.41,42.17A79.46,79.46,0,0,0,120.58,1356.57Zm2,61.61c1.25-9.64-9.08-10.75-14.74-14.31C92.14,1394,77.75,1382.41,64,1370.1v37.12q8.5,8.43,17.1,16.75c11.51,11.11,23.49,21.64,37.32,29.86a15.29,15.29,0,0,0,2.64.94c0-.88-.08-1.75-.07-2.63C121.08,1440.8,121.14,1429.53,122.62,1418.18Zm-.35-23.74c1.43-10.11,1.7-20.83-.31-30.78-.82-4.05-8.71-6.48-13-10.06-14.43-11.94-29.32-23.42-42.85-36.32l-2.08-2v45.14c16.9,15.93,34,31.79,54,43.52C125.44,1408.32,121.93,1396.8,122.27,1394.44Zm.06-134.42c.84-6-.25-9-5-12.14-19.93-13.08-37-29.41-53.28-46.5v51.13c2.31,2.42,4.63,4.83,7,7.21,11,11.11,23.19,21,34.77,31.58,2.29,2.08,3.82,5.66,6.4,6.58,3.19,1.13,4.5,6.94,8.22,4.5,4.17-2.73,1.64-8.25,1.14-11.69C120,1280.3,120.92,1270.06,122.33,1260Zm-1.26,202c.19-4.11-2.56-3-4.4-3.63-15.76-5.71-26.93-17.84-39.6-27.94-4.58-3.66-8.9-7.58-13.07-11.64v43.56c4.77,3.89,9.53,7.77,14,11.93,11.3,10.38,25.77,15.8,37.74,25a3.65,3.65,0,0,0,2.2.4c1.06-2.91,2.66-5.86,2.77-8.85C121.12,1481.25,120.62,1471.6,121.07,1462Zm-1.78,55.34c.88-10.47-2.89-14.86-12.05-18C90.62,1493.66,77,1483.27,64,1472.05v45.18c4.24,4,8.48,7.94,12.76,11.86,13.25,12.16,26.8,24,40.23,35.93a9.52,9.52,0,0,0,1.47.91,9.59,9.59,0,0,0,.73-2.63C119.14,1548,118,1532.55,119.29,1517.33ZM81.8,1616c4.32-1.1,8.63-2.38,12.91-3.88-6.82-7.78-13.77-15.66-20.67-23.58-3.57-4.11-6.42.83-9.78.83H64V1616ZM56,1618.34V61.66l-48-48V1666.34Z"/><path d="M948,818.9c2.3-3.28,4.86-6.86,9.75-6.68-1.27,2.94-2.13,6.16-3.88,8.77q-6.6,9.88-13,19.88c-.72-2.86-1.44-5.72-2.17-8.56Q943.32,825.59,948,818.9Z"/><path d="M952.43,756.56c2.84,2-.95,3.65-1.82,5.06-7.16,11.58-14.3,23.16-21.54,34.69q-1.38-5-2.77-10c6.44-9.16,12.94-18.3,19.33-27.5C947.19,756.58,950.31,755.06,952.43,756.56Z"/><path d="M940.68,706.14c4.93,2.89-1.79,10.38-4.48,15-6.16,10.5-12.9,20.59-20,30.44q-1.5-5-3-10c5.78-8.26,11.47-16.58,17.17-24.89C933.41,712.25,935,702.79,940.68,706.14Z"/><path d="M920,658c1.93.79.29,2.47-.25,4-4.82,14.11-11.54,27.1-19.09,39.63q-1.67-5.11-3.33-10.14c6-10.57,11.79-21.2,17.84-31.71C915.86,658.61,918.77,657.51,920,658Z"/><path d="M898,604.1c.22,3.52,1.75,7.66.43,10.45-5.3,11.18-10.47,22.46-16,33.51q-1.92-5.43-3.84-10.76,7.63-14.46,14.57-29.25C893.94,606.35,896.36,605.4,898,604.1Z"/><path d="M881.88,562.63c3.12,2,1.75,5.85.66,8.18q-7.71,16.4-16.73,32-2-5.32-4-10.52,7.65-13.31,15.53-26.46C878.11,564.48,879.39,561,881.88,562.63Z"/><path d="M867.06,512c.64,1.59,2,3.65,1.52,4.83-6.35,14.37-12.28,28.93-19.7,42.74q-2.21-5.43-4.36-10.68c6.52-12.31,13.77-24.26,20.67-36.38C865.43,512.1,867,511.93,867.06,512Z"/><path d="M844.3,471c.88,3,1.52,7.14.14,9.68-5.4,10-10.66,20.14-16.06,30.17q-2-4.6-4-9,7.82-14.08,15.59-28.21C841.07,471.64,844,470,844.3,471Z"/><path d="M828.31,417.18c2.94,4.71-.21,9.44-1.72,12.89-5.49,12.57-11.36,25-18,37q-2.31-4.94-4.45-9.41,9.23-16.68,17.23-34.06C822.6,420.94,826,419.29,828.31,417.18Z"/><path d="M724.05,436.42c-1.76,2.8-3.63,5.84-5.6,9.15-5.72-11.19-10.11-23-11.45-36.05-.17-1.68-1.09-4.27,2.21-4.57,2.78-.25,3.24,1.17,4,3.67A214.87,214.87,0,0,0,724.05,436.42Z"/><path d="M704.28,470.73q-2.13,4-4.35,8.29-6.24-9.33-11.64-19.31c-2.35-4.36-5.63-12.75-4.23-13.85,8-6.27,8.29,3,10,6.93A112.64,112.64,0,0,0,704.28,470.73Z"/><path d="M683.05,511.65l.59.79q-1.87,4.06-3.78,8.33c-6.28-9.4-11.6-19.35-18.17-28.54-.78-1.09-.27-3.1-.36-4.67,1.51.17,3.27-.1,4.49.59C675.09,493.32,677.24,503.85,683.05,511.65Z"/><path d="M649.82,527.12a267.76,267.76,0,0,0,16.95,24.18q-1.8,4.41-3.63,9a169.44,169.44,0,0,1-10.3-14.78c-3.51-5.68-6.68-11.6-9.67-17.57-.58-1.16,0-4.19.7-4.47C647,522.27,648.57,525.09,649.82,527.12Z"/><path d="M632.28,575.41a190.24,190.24,0,0,0,16,24.11q-1.5,4.15-3,8.42-3.19-3.87-6.18-8a211.75,211.75,0,0,1-13.67-22c-.63-1.13,1.6-3.86,2.51-5.84C629.42,573.25,631.47,574,632.28,575.41Z"/><path d="M634.79,639.05c-.87,2.68-1.74,5.4-2.61,8.14-7-7.29-13.41-15.09-18.3-24.25-1.26-2.37-.79-3.81.64-5.22,2.35-2.3,3.43.95,4,1.76A184.84,184.84,0,0,0,634.79,639.05Z"/><path d="M619.56,683.46l1.21,1.32c-.87,3-1.74,6-2.6,9q-3.92-4.31-7.73-8.71c-5.08-5.84-9-12.67-13.29-19.18-.52-.81,0-2.67.59-3.73,1-1.79,2.13-.47,3.27.2C609.52,667.33,613.28,676.52,619.56,683.46Z"/><path d="M607.41,733.62q-1.15,4.46-2.29,9c-6.22-7.73-12.29-15.58-18.54-23.32-2.14-2.64-2.61-5.09,0-7.34,2.86-2.5,3.29.89,4.57,2.24C596.94,720.32,602.18,727,607.41,733.62Z"/><path d="M580.5,759.18c4.06,8.16,9.58,15.25,15.29,22.2q-1,4.36-2,8.8c-4.94-6.84-10-13.61-14.79-20.54a30.66,30.66,0,0,1-3.83-9.14c-.24-.86,1.33-2.57,2.45-3.29C578,757,580,758.22,580.5,759.18Z"/><path d="M585.17,830.46q-1.14,5.6-2.27,11.3A198.72,198.72,0,0,1,566,816.13c-1.49-2.74-2.44-6.45.65-7.94s3.4,2.64,4.86,4.54Q578.27,821.63,585.17,830.46Z"/><path d="M573.18,894.21q-.84,4.85-1.67,9.75c-.15-.19-.31-.37-.47-.56-6.27-7.46-11.87-15.51-17.53-23.46-.53-.76.36-3.1,1.24-4.18,1.74-2.16,2.47.46,3.18,1.25C563.08,882.68,568.12,888.45,573.18,894.21Z"/><path d="M564.36,948.82c-.47,3.1-.93,6.22-1.4,9.36-3.39-4.1-6.7-8.29-10-12.52-2.6-3.38-5.51-6.54-7.91-10-.8-1.16-3.82-2.69-1.31-4.25,1.31-.81,4.71-.29,5.81.9C554.62,937.68,559.49,943.26,564.36,948.82Z"/><path d="M555.94,1009.84q-.63,4.9-1.24,9.86c-7.33-6.81-14.6-13.79-20-22.39-1-1.56-1.8-2.39-.31-4.19,2-2.47,3.44-.37,4.46.58Q547.41,1001.74,555.94,1009.84Z"/><path d="M549.85,1061.93q-.58,5.46-1.16,11a131.61,131.61,0,0,1-18.39-24.18c-1.08-1.86-.77-3,.84-3.42a4.61,4.61,0,0,1,3.77,1C540,1051.45,544.9,1056.69,549.85,1061.93Z"/><path d="M545,1110.38c-.29,3.26-.59,6.53-.88,9.82-5-5.85-9.75-11.89-14.53-17.9-.87-1.09-1-3.91-.24-4.88,1.36-1.67,2.84,0,4,1.26C537.25,1102.61,541.15,1106.48,545,1110.38Z"/><path d="M541.46,1152.6q-.39,5-.77,10.13-2.81-3.52-5.53-7.14c-3.52-4.67-9.58-7.8-10.25-14.44-.13-1.28.57-2.64.89-4,1.18.58,2.6.91,3.51,1.78A140.28,140.28,0,0,1,541.46,1152.6Z"/><path d="M538.63,1192q-.35,5.12-.66,10.29-6.45-9.25-12-19.12c-1.17-2.1-1.61-6.92-.68-7.45,3.12-1.77,3.71,2.2,4.84,3.93Q534.24,1186,538.63,1192Z"/><path d="M513.15,1222.09q.93,2.57,1.82,5.14c-2.64.25-5.48.57-8.49,1q-.6-1.83-1.26-3.66c-1.21-3.33,0-6.29,3.17-7.18S512.21,1219.53,513.15,1222.09Z"/><path d="M394.69,1265.48a49.64,49.64,0,0,1-1.6,5c-.52-.67-1-1.34-1.57-2Z"/><path d="M316.92,1254.78c.12,2.79.11,5.59.07,8.38q-2,2.56-3.75,5.42s-1-4.15-2.9-11.7c.2-1.52.43-3,.66-4.55.19-1.21,1.9-2.18,2.91-3.26C315,1251,316.83,1252.84,316.92,1254.78Z"/><path d="M310.73,1208.33c2.18,4.29-.35,8.68-2.52,12.63q-2.37,4.32-4.85,8.57l-2.58-9.86c1.4-2.65,2.78-5.32,4.26-7.91C306.34,1209.51,310,1207,310.73,1208.33Z"/><path d="M305.11,1154.89c4.93,4.75-2.23,11.13-5,15.82a103,103,0,0,1-9.11,12.5c-.8-2.93-1.61-5.91-2.45-8.94q4-5.82,8.08-11.62C298.88,1159.47,301.31,1151.23,305.11,1154.89Z"/><path d="M285.65,1121.14c.44,2,1.82,4.34,1.19,5.9q-3.22,8.07-7,15.78c-.9-3.15-1.8-6.34-2.73-9.57,1.26-3,2.51-5.92,4-8.75C281.83,1123,284.08,1122.24,285.65,1121.14Z"/><path d="M285.08,1067c.1,1.35.66,2.88.23,4-4.14,11.1-10.59,20.74-17.6,30-.83-2.81-1.67-5.65-2.52-8.5,5.75-7.82,11.34-15.75,17.12-23.55A11.43,11.43,0,0,1,285.08,1067Z"/><path d="M266.45,1028.27c.17,1.92.95,4,.43,5.71-2.69,8.67-7.26,16.33-12.32,23.67q-1.53-5-3.1-9.92c3.65-5.49,7.13-11.1,10.85-16.54C263.2,1029.89,265,1029.23,266.45,1028.27Z"/><path d="M257.18,977.12c-.07,3.63,1.19,8.07-.43,10.76-5.21,8.62-10.69,17.09-16.37,25.41q-1.5-4.57-3-9.13c4.49-6.58,9-13.17,13.37-19.82C252.56,981.57,253.29,978,257.18,977.12Z"/><path d="M238.53,948.93c3.91,3.83-1.93,8.17-4.08,11.75q-3.76,6.27-7.71,12.44c-.82-2.36-1.65-4.7-2.48-7,1.87-2.72,3.71-5.45,5.55-8.19C232.41,954,236.88,947.31,238.53,948.93Z"/><path d="M226.65,912.51c1.19,9.82-4.67,14.85-8.74,20.37q-1.92,2.61-3.85,5.19-1.49-4-3-7.9C216.05,924.2,221.22,918.3,226.65,912.51Z"/><path d="M209,868.49c1.25,1,2.35,4,1.74,5.22-4.14,8.25-7.67,16.84-12.16,24.89q-1.7-4.12-3.41-8.18c3.58-6.6,6.86-13.41,11.05-19.68C206.85,869.8,207,866.88,209,868.49Z"/><path d="M193.48,820.12c2.51,1.66,2.08,4.48,1.34,6.35-4.35,11-8.66,21.94-13.61,32.62q-2.19-4.65-4.39-9.11c4.63-9.27,8.82-18.78,13.34-28.12C190.69,820.77,191.39,818.73,193.48,820.12Z"/><path d="M132.73,980.69l-.74,1.84c-17.63-7.35-29.61-22-42.76-34.78A238.26,238.26,0,0,1,70.63,927c.86-2.63,1.72-5.21,2.59-7.72q9.41,10.07,18.68,20.28c8.2,9.08,16.31,18,25.79,26C122.7,969.82,128.19,974.29,132.73,980.69Z"/><path d="M85.67,822.9c7,8.11,13.6,16.62,20.47,24.87-1.46,2.34-3,4.81-4.46,7.43a171.41,171.41,0,0,1-20.89-28.34c-1.43-2.45-3.18-5.64-1.33-7.12C81.72,817.93,84.09,821.08,85.67,822.9Z"/><path d="M87,884.23q-1.65,3.69-3.3,7.6a223.92,223.92,0,0,1-14.53-20.16c-.91-1.43-.46-3.73-.64-5.62a10.36,10.36,0,0,1,1.57.31c-.23,4.1,4,2.14,5.68,4.27Q81.22,877.52,87,884.23Z"/></svg>