<svg id="Card" xmlns="http://www.w3.org/2000/svg" viewBox="0 0 1024 1680"><defs><style>.cls-1{fill:#f2f0ed;}.cls-2{fill:#8c1707;}.cls-3{fill:#16592d;}.cls-4{fill:#d82e21;}</style></defs><rect class="cls-1" x="14.5" y="14.5" width="995" height="1651"/><polygon class="cls-2" points="966 1619.17 966 60.83 1018 8.83 1018 1671.17 966 1619.17"/><polygon class="cls-2" points="60.83 58 8.83 6 1015.17 6 963.17 58 60.83 58"/><polygon class="cls-2" points="8.83 1674 60.83 1622 963.17 1622 1015.17 1674 8.83 1674"/><path class="cls-3" d="M886.34,1035.94a2.93,2.93,0,0,1-2.5-1.27c-.5-.73-.91-2.06,0-4.25a14.67,14.67,0,0,0,.71-3.21,15.46,15.46,0,0,1,1.22-4.67c11.17-22.87,22.44-45.45,32-64.51a26.93,26.93,0,0,1,3-4.45c.4-.51.78-1,1.12-1.48l3.94-5.56-.31,6.81c-.15,3.23-.21,6.54-.26,9.75-.25,15.22-.51,30.93-10.39,45.09-5.9,8.47-13.34,16.49-23.41,25.23C889.45,1035.09,887.76,1035.94,886.34,1035.94Z"/><path class="cls-3" d="M871.43,1032.72c-5.11-30.62,5.39-56.77,32.1-80a52,52,0,0,1,7.19-5.09,3.41,3.41,0,0,1,1.82-.47,9,9,0,0,1,2.05.32l1.3.29.46.86a4.6,4.6,0,0,1-.09,3.56q-4,7.56-8.08,15.11l-.12.23c-5.34,9.93-10.8,20.11-16,30.22-4,7.87-7.7,15.79-11.61,24.18-1.74,3.75-3.48,7.48-5.27,11.27l-2.73,5.76Z"/><path class="cls-4" d="M876,534.39a91.55,91.55,0,0,1-16.18-1.49c-.93-.17-1.87-.33-2.8-.48a59.07,59.07,0,0,1-9.31-2.07l-.1,0c-1.23-.41-4.1-1.38-4.59-3.86-.2-1,0-2.58,2-4.28C857.4,511.44,871.85,501.44,893,501h.24l2,.27c6.07.77,14.28,1.81,17.73,12,1.27,3.75,1.24,7-.09,9.63-2.2,4.37-7.17,6-11.16,7.26l-.83.27A79.87,79.87,0,0,1,876,534.39Z"/><path class="cls-4" d="M871.13,439.38A94.63,94.63,0,0,1,843.42,435c-1.93-.59-4-1.46-4.38-3.43s1.12-3.53,2.3-4.53c16.14-13.73,32.31-20.75,50.87-22.07l.36,0,.26.08c.87.25,1.7.47,2.55.69,6.43,1.68,15.12,3.95,15.27,14.82.15,11.5-9.53,13.89-17.31,15.82l-1.76.44A83,83,0,0,1,871.13,439.38Z"/><path class="cls-3" d="M908.43,828.79l1.28,3.25c3.06,7.76,1.62,17.16-4.16,27.19-9.36,16.2-28.52,31.11-42.72,33.24l-5,.74Z"/><path class="cls-4" d="M881.56,706.33a107.36,107.36,0,0,1-17.43-1.91c-3.78-.62-7.67-1.26-11.47-1.6a7.32,7.32,0,0,1-4.9-3.21c-1.47-2.23,2-5.49,2.13-5.62,10.22-9.62,23.79-15.43,42.7-18.28a18.86,18.86,0,0,1,2.73-.2,22.06,22.06,0,0,1,20,14.21l.24.6-.16.63c-2.54,10.13-10.44,11.54-16.79,12.67a49.44,49.44,0,0,0-5,1.07A42.35,42.35,0,0,1,881.56,706.33Z"/><path class="cls-4" d="M893.88,622.76a14.79,14.79,0,0,1-2-.14,141.72,141.72,0,0,0-15.1-1.07c-9.39-.32-19.09-.66-28.44-4.47-2-.79-4-1.86-4.31-3.8S845.2,610,846.4,609l.4-.37c9.53-8.7,21.37-13.65,38.4-16.05l.69-.1.6.35c1.93,1.13,4.44,1.35,7.1,1.58,4.57.39,9.73.84,12.81,6.2a14.62,14.62,0,0,1-.21,14.78A14.23,14.23,0,0,1,893.88,622.76Z"/><path class="cls-4" d="M875.87,349.09l-4.49-.35c-8-.62-15.59-1.21-23.12-1.87a4.69,4.69,0,0,1-2.48-1.13c-.18-.13-.34-.25-.5-.35l-1.85-1.09,1.23-1.77c.57-.83,1.13-1.77,1.67-2.68a22.51,22.51,0,0,1,4.72-6.19c9.54-7.87,20.19-12.61,30.79-13.71l1.73-.2a58.45,58.45,0,0,1,6.7-.51c2.59,0,10.49,0,14.2,8.27,2.42,5.43.34,11.43-5.18,14.95-5.93,3.77-12.59,4.86-18.47,5.81l-.11,0c-1.53.25-3,.49-4.36.76l-.2,0Z"/><path class="cls-3" d="M852.37,883.36l1.19-3.89c6.82-22.33,13.26-43.41,38.23-51.13l.39-.12a15.38,15.38,0,0,1,4.64-.93,8.47,8.47,0,0,1,2.44.35l2.64.79-1.56,2.27-1.47,2.1c-1.13,1.62-2.3,3.28-3.37,4.94-2.88,4.45-6.64,8.07-10.27,11.57-4,3.83-8.08,7.78-10.87,12.72-3,5.26-7,9.63-11.62,14.68-2.13,2.32-4.34,4.72-6.57,7.36l-.79.94Z"/><path class="cls-3" d="M839.48,788.84c0-.29-.1-.6-.16-.9a6.82,6.82,0,0,1-.1-3.2c2.25-8.16,7-19.89,16.69-29.48a49,49,0,0,1,34-14.41,14.77,14.77,0,0,0,4.26-1.3c1.46-.56,3.27-1.26,5.75-2.1l1.21-.41,1.65,3.13-1,.76c-4.57,3.45-8.76,6.57-12.82,9.58-8.94,6.65-16.65,12.37-24,18.52A149,149,0,0,0,852,781.74c-2.09,2.23-4.22,4.51-6.38,6.68a8,8,0,0,1-2.39,1.54c-.27.13-.54.26-.79.41l-2.65,1.51Z"/><path class="cls-4" d="M846.48,268.63c-1.93,0-3.87-.05-5.75-.15l-.56,0c-1.48,0-3.21-.1-4.13-1.58s-.09-3.36.19-4c4.48-9.59,26.58-22.42,43-22.42,4.3,0,7.81.94,10.44,2.81,3.09,2.2,3.16,4.82,3.26,8.44l0,1.38,0,.18c-1.57,7.63-10.2,9.83-15.91,11.29A125.07,125.07,0,0,1,846.48,268.63Z"/><path class="cls-3" d="M849.66,793.33l.85-.88a440.37,440.37,0,0,1,51.43-45.66l4.52-3.41-1.38,5.5c-6.63,26.37-25.89,36-52.39,46.82l-1.13.46Z"/><path class="cls-3" d="M821.16,1448.89a5,5,0,0,1-1.88-.46,5.31,5.31,0,0,0-.51-.18l-2.81-.73,1.68-2.37.21-.34a5.47,5.47,0,0,1,1.16-1.45c5.9-4.94,11.53-10.49,17-15.87,9.66-9.54,19.62-19.37,32.16-27.07l4.43-2.73-1.46,5c-7.91,27-29.64,37.07-48.81,46A2.61,2.61,0,0,1,821.16,1448.89Z"/><path class="cls-4" d="M835.84,1211.19a10.2,10.2,0,0,1-4.19-.8c-25-11.4-37.33-27.66-38.87-51.19a45.46,45.46,0,0,1,2.21-18.41c1.36-4,3.73-5.85,7.68-5.85l.85,0c10.42.77,15,8.88,18.71,15.4.6,1.07,1.19,2.11,1.8,3.11,8.16,13.48,12.63,28.75,17,43.51.57,2,1.13,3.88,1.71,5.81a10.34,10.34,0,0,1-.65,6.44,2.58,2.58,0,0,1-1.6,1.32A18,18,0,0,1,835.84,1211.19Z"/><path class="cls-3" d="M810.18,1442.51c-1.77-4.43-.06-10.85,4.82-18.08,9.35-13.86,28.63-28.74,42.41-28.79l6,0-4.74,3.61a270,270,0,0,0-45,43.81l-2.14,2.61Z"/><path class="cls-4" d="M805.66,223.84c-9.36-19.39-19-39.45-8.15-61.85a19,19,0,0,1,17.13-10.82,20.39,20.39,0,0,1,4.94.62c3.92,1,5.29,10.31,4.81,14-.2,1.58-.39,3.15-.58,4.73-2.19,17.8-4.46,36.21-14.63,53.47l-1.9,3.22Z"/><path class="cls-3" d="M743.3,1320.43c0-.36-.08-.81-.14-1.26a6.22,6.22,0,0,1,.36-4.19c12.52-21.71,27.16-34.7,46.08-40.89a72.4,72.4,0,0,1,8.79-2.1l.14,0c1.43-.28,2.92-.58,4.49-.92l6-1.34-4.12,4.62c-9.38,10.52-20.38,18.62-31,26.45-8.65,6.37-17.59,13-25.22,20.6a3.8,3.8,0,0,1-2.56.93l-.46,0-2.32.45Z"/><path class="cls-3" d="M785.68,1078.84c-31.9,0-59.42-18.22-73.63-48.76a4.75,4.75,0,0,1-.31-2.34c0-.18,0-.33,0-.48l-.08-2.72,2.62.73a2.24,2.24,0,0,0,.39.08,4.34,4.34,0,0,1,2.15.84c17.91,14.7,38.36,26.28,58.13,37.47l6.21,3.52c2.77,1.57,5.52,3.17,8.46,4.87l10.11,5.85-6.26.58C790.89,1078.72,788.26,1078.84,785.68,1078.84Z"/><path class="cls-3" d="M785.81,1061.43a4.83,4.83,0,0,1-1.67-.34l-1.12-.41a56.19,56.19,0,0,1-9.28-4.09c-13.42-8-26.39-15.81-40.13-24.1l-.93-.56-14.3-8.64-1-.6,1-3.16,1.16.05c26.64,1.25,46,9.72,60.88,26.68a7.54,7.54,0,0,0,1.9,1.27,8.44,8.44,0,0,1,3.34,2.68c4.4,6.85,3.23,9,2.84,9.7A2.93,2.93,0,0,1,785.81,1061.43Z"/><path class="cls-3" d="M760.9,1323.51c6.76-8.59,14.85-15.51,22.67-22.21,5.28-4.53,10.73-9.2,15.72-14.33l5.07-5.23-1.69,7.09a50.67,50.67,0,0,1-17.53,28.07c-6.77,5.41-15.16,9.09-22.47,9.84l-4.69.48Z"/><path class="cls-3" d="M774.79,979.52c-14.56-5.59-28.38-11.7-37.36-25-2.78-4.13-5.51-8.38-8.14-12.5l-2.07-3.24a12.83,12.83,0,0,1-1-1.92c-.12-.26-.21-.48-.32-.7l-2-4.3,4.5,1.56a9.05,9.05,0,0,0,.93.25A6.84,6.84,0,0,1,732.5,935,396.51,396.51,0,0,0,780,970.48l.46.1c1,.21,2.69.56,3.26,2.14a3.27,3.27,0,0,1-.77,3.2c-1.2,1.51-3.08,2.2-4.74,2.81-.62.23-1.26.47-1.81.73l-.77.37Z"/><path class="cls-3" d="M777.48,856.18,734.59,822.9,729.5,819l6.44.37c31.7,1.85,46.16,22.28,57.07,44.09l.53,1.07-2.6,2.13Z"/><path class="cls-3" d="M790.37,879c-29.14-2.73-43.91-19.92-57.12-44.9l-.57-1.07,2.63-2.18,61.8,48.78Z"/><path class="cls-4" d="M459,1324a55.91,55.91,0,0,1-11.66-1.52c-12.73-2.77-25.88-3.87-38.61-4.92-7.86-.65-15.93-1.32-23.86-2.38-27.2-3.6-55-6.17-81.92-8.66l-14.91-1.38c-8.44-.78-17.09-1.16-25.46-1.53-4.47-.19-9.48-.41-14.3-.69-.22,0-.45,0-.69,0-1,0-2.06.09-3.13.18s-2.39.2-3.54.2c-3.73,0-6-1.28-6.76-3.82-1-3.26,1.73-7,4.33-10.56.86-1.18,1.67-2.3,2.32-3.35,7.77-12.64,15.74-25.42,23.44-37.79l2.08-3.34q5-8.09,10.14-16.13c7-11,14.19-22.49,21-33.9,6-10,11.71-20.48,17.24-30.58q3.12-5.7,6.23-11.33c2.05-3.7,4.07-7.45,6-11.08,3.8-7.08,7.72-14.4,12-21.38,9.15-15,16.95-31.13,24.48-46.7,3.93-8.11,8-16.48,12.18-24.62,3.95-7.64,7.21-15.77,10.37-23.62,4.54-11.28,9.22-22.94,16-33.59,3.63-5.66,5.27-13,6.86-20.05.51-2.26,1-4.61,1.62-6.87a105.62,105.62,0,0,1,6.21-16.29c2.63-5.9,5.36-12,6.64-18.47,1.72-8.65,4.21-17.26,6.61-25.59,1.1-3.79,2.23-7.71,3.28-11.6s2.14-7.93,3.22-11.9c3-10.87,6-22,8.74-33.07,4.31-17.3,8.72-35.82,13.47-56.64,3.45-15.14,6.83-30.58,10.1-45.51l.2-.91q2.13-9.75,4.28-19.49c.05-.27.12-.58.19-.84l0-.16c1.1-6.44,2.12-12.76,3.11-18.87,2.2-13.57,4.27-26.31,6.93-38.93,5.71-27.11,9.12-54.51,11.69-77.75,1.5-13.5,2.57-27.29,3.6-40.61.92-11.8,1.86-24,3.1-35.95,1-10.05,1.54-20.31,2-30.24.64-12.84,1.29-26.12,3.1-39.2,2.39-17.31,2.15-35.35,1.91-52.79-.07-5.59-.15-11.36-.14-17,0-4.72,1.67-5.57,5.37-5.7,10.1-.33,20.49-.73,29.66-1.08l23.65-.87q14.78-.51,29.56-1l1.29,0q15.43-.49,30.87-1c5.6-.19,11.3-.31,16.8-.43,13.44-.29,27.27-.59,40.74-1.91,21.1-2.06,42.54-2.81,63.27-3.54l4.91-.18h.58a5.37,5.37,0,0,1,4.18,1.43c1.22,1.37,1.13,3.3,1,5-1.82,16.81-3.63,34.63-5.69,56.09-1.51,15.78-3,31.65-4.39,47l0,.26q-1.14,12.38-2.29,24.74c-.54,5.77-1,11.66-1.45,17.36-1,13-2.08,26.32-4.06,39.35C739.18,571.38,737,595.1,735,618c-.73,8-1.47,16.22-2.26,24.29-2.07,21.24-5.34,43.72-10,68.7-1.71,9.15-4.1,18.31-6.41,27.16-2.59,10-5.27,20.23-7,30.44-2.17,13.06-5.6,25.93-8.93,38.38-2,7.39-4,15-5.74,22.56-3.08,13.3-7.07,26.57-10.92,39.41-2,6.53-4,13.28-5.89,20-2.41,8.56-4.8,17.26-7.1,25.68-3.3,12-6.71,24.45-10.24,36.61a451.44,451.44,0,0,1-17.12,49.29c-5.13,12.25-9.69,25-14.1,37.34-4,11.22-8.16,22.83-12.75,34.07-3.95,9.7-8.57,19.28-13,28.54-4.61,9.54-9.36,19.38-13.35,29.31-5.87,14.55-13.62,28.27-21.11,41.54-4.34,7.69-8.82,15.63-12.87,23.6-9.26,18.3-20.91,35.72-32.18,52.56l-.15.23c-1.4,2.08-2.79,4.17-4.18,6.25-4.6,6.91-9.72,13.64-14.68,20.14-8.27,10.87-16.82,22.1-23,34.23C476.6,1319,469.3,1324,459,1324Z"/><path class="cls-3" d="M717.24,919.12l3.76-1.25a21.46,21.46,0,0,1,6.76-1c19.9,0,53.39,24,58.26,46.47l1.09,5Z"/><path class="cls-4" d="M736.05,698.93a2.92,2.92,0,0,1-2.27-1c-1.24-1.44-.88-3.8-.65-5.37a5,5,0,0,0,.07-.51c.63-5.28,1.48-10.43,2.46-16.41l.05-.3c.34-2,.68-4.13,1-6.35l.81-5.09,2.83,4.31c1.79,2.73,3.42,5.26,5,7.64,3.41,5.29,6.33,9.81,9.46,14.15,1.25,1.74,2.31,3.44,1.51,5.09s-2.86,1.85-5,2c-.54,0-1.07,0-1.6,0-.82,0-1.65,0-2.47-.06s-1.59,0-2.35,0a14.14,14.14,0,0,0-6.67,1.36A4.82,4.82,0,0,1,736.05,698.93Z"/><path class="cls-3" d="M708.36,1462.57l-.93,0-3-.19,1.39-2.72c8.27-16.23,19.83-29,32.07-42.41,4.19-4.61,8.53-9.38,12.66-14.25l2.62-3.09.86,3.95c2.55,11.67-5.75,27.24-14.35,37.93C729.29,1454.6,717.31,1462.57,708.36,1462.57Z"/><path class="cls-4" d="M739.19,315.34c-13-1.59-27.45-4.7-34.55-21.45-1.7-4-2.9-8.75,1-13.55a7.45,7.45,0,0,1,5.92-2.95,15,15,0,0,1,6,1.71c.51.23.95.43,1.36.59,12.49,4.88,21.85,14.43,29.36,23.12a19.59,19.59,0,0,1,3.17,6.05c.34.87.67,1.75,1,2.55l1.19,2.55-2.1.21-12,1.18-.16,0Z"/><path class="cls-4" d="M742.75,243.11a9.17,9.17,0,0,1-2.34-.33c-13.42-3.69-26-11.22-37.35-22.38-3.56-3.51-5.88-10.18-3.18-15.62a11.12,11.12,0,0,0,.57-1.63c.69-2.32,1.85-6.2,6.46-6.2a8.25,8.25,0,0,1,1.46.13c6.28,1.37,11.94,5,17.92,11.34,7.74,8.26,15.55,17.45,20.26,28.71.89,2.12.45,3.5-.07,4.29A4.14,4.14,0,0,1,742.75,243.11Z"/><path class="cls-3" d="M697,1459l.13-1.23c2.29-21.56,12.4-37.46,31.82-50a3.22,3.22,0,0,1,1.75-.48,8.09,8.09,0,0,1,1.55.2,6.73,6.73,0,0,0,.73.13l2.37.2-.61,2.3a3.58,3.58,0,0,0-.06.37,3.93,3.93,0,0,1-1,2.34c-12.13,12.17-22.25,26.4-32.82,46.14l-.58,1.09Z"/><path class="cls-3" d="M673.19,1267.32a67,67,0,0,1-7.46-.43,55.09,55.09,0,0,1-11.87-2.3,12.27,12.27,0,0,1-4.6-3.51,19.29,19.29,0,0,0-1.5-1.5l-2.89-2.58,5.59-1.28c1.21-.28,2.39-.55,3.58-.84,14.18-3.56,28.81-4.94,43-6.28,4.86-.46,9.87-.93,14.79-1.49a10.37,10.37,0,0,1,1.12-.06,25.08,25.08,0,0,1,2.53.18c.62.06,1.29.13,2,.17l5.73.36-4.71,3.28C702.54,1262.15,688.14,1267.32,673.19,1267.32Z"/><path class="cls-3" d="M641.33,1248c12.12-13,25.58-19.08,42.37-19.08,10.63,0,22.22,2.33,38.74,7.8l1.14.38-.33,3.35-1.19.15c-8.79,1.11-17.36,1.92-25.64,2.69-18.45,1.73-35.78,3.35-53.11,8l-6.73,1.81Z"/><path class="cls-4" d="M618,1505.54a4.73,4.73,0,0,1-3.89-1.91c-4.3-5.6-6.24-10.84-6-16,.71-12.17,1.57-24.51,2.4-36.45l.51-7.46a15.15,15.15,0,0,1,.6-2.9c.1-.35.2-.7.29-1l.61-2.56,2.3,1.28a11.4,11.4,0,0,0,1.13.5c1.24.5,2.78,1.11,3.42,2.58a103.8,103.8,0,0,0,5.88,10.86c5.16,8.71,10.49,17.71,9.57,29.48,1.44,7.44-1.72,14.09-9.63,20.31C622.35,1504.48,620.05,1505.54,618,1505.54Z"/><path class="cls-3" d="M654.06,1353.3c-19.21-3-38.8-8.26-52-26.83a65,65,0,0,0-5.77-6.7c-1.77-1.88-3.6-3.81-5.23-5.92-1.13-1.45-1.29-3.34-1.43-5a17.68,17.68,0,0,0-.2-1.77l-.72-3.92,3.58,1.77c.42.2.85.4,1.29.59a17.87,17.87,0,0,1,3.28,1.74c14.5,10.46,29,21,44.13,31.93l15.47,11.21-1.27,3.09Z"/><path class="cls-3" d="M645.42,1333.37c-17.8-14.65-33.34-25.9-51.37-33.23l-4.75-1.92,4.8-1.8a21,21,0,0,1,7.41-1.3c15,0,33.39,14,46.88,35.65l.67,1.08-2.66,2.33Z"/><path class="cls-4" d="M520,1535.2a10.9,10.9,0,0,1-4.13-.82c-3.25-1.32-6.51-6.4-6.59-10.25-.5-23.36,4.46-39.7,16.06-53a5.41,5.41,0,0,1,3.92-2.18c2.06,0,3.69,1.73,4.26,4.52s1.42,5.87,2.22,8.73c1.81,6.44,3.68,13.09,3.16,20.23.5,11.64-2.59,20.66-9.73,28.37A12.45,12.45,0,0,1,520,1535.2Z"/><path class="cls-4" d="M443.53,1402.75a80.51,80.51,0,0,1-48.66-22.32c-4.27-4-6.27-11.55-2.45-16.33a8.47,8.47,0,0,1,6.9-3.39,22.59,22.59,0,0,1,7.61,1.86,34.41,34.41,0,0,0,3.42,1.15c18.25,4.76,28,18.72,36.35,32.61a18.56,18.56,0,0,1,1.18,2.43c.16.37.29.68.43,1l1.23,2.65-5.83.38Z"/><path class="cls-3" d="M422,560.65l.18-1.18c.89-5.68,1.71-11.18,2.43-16,1.8-12.19,3.36-22.71,5.56-33.38a37.81,37.81,0,0,0,.54-6.1c.17-4.68.36-10,4.31-14.3a5,5,0,0,0,.12-1.11c.06-1.06.23-4.26,3.46-4.26a5.22,5.22,0,0,1,1.3.17c3.33.79,4.19,7.25,4.19,7.32,2.61,20.1-.29,38.55-8.62,54.83a64.61,64.61,0,0,1-5.43,8.31c-1.23,1.71-2.62,3.63-4.23,6l-.68,1Z"/><path class="cls-4" d="M408.7,1549.21a7.6,7.6,0,0,1-6.05-2.52c-1.61-1.93-2.11-4.7-1.48-8.22,4-22.35,20.91-33.82,36.43-42.83a4.45,4.45,0,0,1,2.2-.75c3.12,0,3.14,3.28,3.14,11.19,2.54,14-18.77,39.32-30.17,42.52A15.4,15.4,0,0,1,408.7,1549.21Z"/><path class="cls-3" d="M410.34,567.92c-.29-.39-.62-.76-.94-1.13a11.5,11.5,0,0,1-2.38-3.51c-10.9-28.48-.21-63.91,24.34-80.63l5.64-3.84-2.67,6.27c-1,2.33-2,4.63-3,6.93-7.68,17.71-14.89,34.36-15.15,53,0,1.55.08,3.16.18,4.71.27,4.36.56,8.86-1.59,13.38a9.69,9.69,0,0,0-.63,2.5c-.08.51-.17,1-.28,1.51l-.93,4.2Z"/><path class="cls-4" d="M336.16,393a7,7,0,0,1-1.23.12,2.92,2.92,0,0,1-2.6-1.25c-.87-1.32-.37-3,.17-4.21a18.33,18.33,0,0,1,3.21-4.68,22.38,22.38,0,0,0,2.16-2.8c10.39-17.16,25.06-28.54,43.61-33.83a25.76,25.76,0,0,1,6.85-1c4.3,0,7.64,1.33,9.93,4,6.22,7.11.79,13-3.17,17.25l-.13.14c-13.31,14.38-30.7,22.7-56.4,27l-2.45.41Z"/><path class="cls-3" d="M388.13,696.92c-17.49,0-35-6.41-56.64-20.77l-1-.66,1.18-3.15,1.18.16c30.28,4,56.84,9.91,81.46,15.64l6.48,1.51L414.56,692A74.79,74.79,0,0,1,388.13,696.92Z"/><path class="cls-3" d="M325,664.09l-.13-3.37,1.15-.31c13.1-3.5,24.22-5.2,34-5.2,20.61,0,32.92,7.6,47.18,16.41,2.59,1.6,5.54,3.42,8.55,5.2l1.09.63-1.22,3.29Z"/><path class="cls-4" d="M349,1447.63c-2.09-.48-4.27-.91-6.39-1.33-12.44-2.44-26.49-5.19-32.2-22-.08-.21-.16-.4-.23-.57a3.67,3.67,0,0,1,.88-4.64c2.84-2.83,5.84-4.26,8.91-4.26a10,10,0,0,1,2.8.4c12.07,3.48,25.74,7.43,35.87,17.79a15.83,15.83,0,0,0,1.94,1.54c2.32,1.66,5.82,4.17,3.88,8.46a6.87,6.87,0,0,1-6.81,4.19c-.79,0-1.6-.07-2.37-.14s-1.55-.13-2.28-.13a6.08,6.08,0,0,0-2.68.5l-.64.3Z"/><path class="cls-3" d="M320,874.68l31.56-80.89,1.38,6.58c6.64,31.74-6.88,53.07-29.22,75.32l-.86.86Z"/><path class="cls-4" d="M287.23,304.71a127.06,127.06,0,0,1,26.5-35.36c5.13-4.93,14.48-8.23,23.27-8.23,4.23,0,10.17.77,14.45,4.47,2.85,2.47,4.25,5.26,4.15,8.3-.18,5.28-5,9.45-7,11-17.82,13.43-39,18.57-59.19,22.68l-4.05.82Z"/><path class="cls-3" d="M308.86,880c-3.05,0-4.68-3.78-5.65-6.63-.18-.52-.39-1.06-.59-1.59a14.77,14.77,0,0,1-1.4-6.2c1-15.16,2.95-31.1,13.88-44.65,7.62-9.44,14.34-17,25.52-21.82l3.15-1.34-.37,3.4c-.89,8.11-4.47,14.8-7.94,21.26a80,80,0,0,0-5.67,12.14c-3.16,9.38-6.92,18.7-10.57,27.72-1.52,3.76-3,7.5-4.51,11.26C313.63,876.31,311.84,880,308.86,880Z"/><path class="cls-4" d="M293.83,1551.3a48.38,48.38,0,0,1-6.61-.47c-6-.82-10.22-3.7-12.64-8.54l-.35-.7.22-.75c3.23-11.08,12.29-15.22,20.28-18.88l.1,0c1.14-.52,2.26-1,3.35-1.56,1.77-.86,3.61-1.82,5.24-2.66,8-4.14,16.19-8.41,25.95-8.43,1.29,0,2.62-.08,3.92-.15l2-.11,2.29-.1-.21,2.28c-.06.65-.06,1.39-.07,2.11a13.41,13.41,0,0,1-.83,5.54C329.73,1533.64,316.89,1551.3,293.83,1551.3Z"/><path class="cls-3" d="M326.14,598.29c-22,0-43-8.9-65.92-28l-.94-.79,1.62-3,92.77,27.8L346.23,596A91.79,91.79,0,0,1,326.14,598.29Z"/><path class="cls-3" d="M260.31,560.37l3.73-2.43c5.45-3.54,12.09-5.33,19.75-5.33,18,0,40,10.12,56.18,25.78l.84.81-1.64,2.86Z"/><path class="cls-4" d="M249.13,1063.75c-7.19,0-8.51-6.38-9.39-10.6-.13-.62-.24-1.19-.37-1.72-2.47-10.19,5.22-15.21,11.4-19.24l1.07-.7c9-5.9,19.17-8.65,29-11.31,5-1.34,10.06-2.71,14.88-4.46a5.78,5.78,0,0,1,2-.33c.59,0,1.19.07,1.72.12s.81.09,1.19.1l2.27,0-.33,2.24c-.07.44-.1.89-.13,1.34a10.54,10.54,0,0,1-.81,3.92c-7.26,15-18.69,27.36-34,36.69-3.17,1.93-7,2.39-10.76,2.84-1.62.19-3.23.39-4.7.69A14.86,14.86,0,0,1,249.13,1063.75Z"/><path class="cls-4" d="M242.92,217.44c0-.73,0-1.47,0-2.21a27,27,0,0,1,.24-5.21c3.14-18.19,23.25-36.77,39.94-37a9.45,9.45,0,0,1,2.23-.27c3.74,0,7.21,2.39,9.05,6.23,2.54,5.27-1.46,9.76-3.61,12.17-8.81,9.87-20.23,15.5-31.27,20.95-4.52,2.23-9.18,4.53-13.55,7.07L242.85,221Z"/><path class="cls-4" d="M234.1,809.64c-6.59-18.06-3.88-35.71,8.05-52.46,5.12-7.18,12.11-11.13,19.68-11.13a24.2,24.2,0,0,1,8.92,1.78c4.38,1.74,8.78,5.94,4.9,16.07-5.83,15.21-17.07,25.94-27.94,36.31-3.44,3.28-7,6.66-10.28,10.12l-2.23,2.33Z"/><path class="cls-4" d="M244.13,487.51c-16.61-.44-32.3-.86-46-10.71-7.89-5.67-10.75-11.57-8.72-18,1.25-3.95,7.61-5.85,12.73-7.37l.49-.15a37.29,37.29,0,0,1,10.69-1.62c13.25,0,24.1,7.56,34.59,14.88l1.94,1.35c5.15,3.56,10.21,7.82,12.4,14.77a4.79,4.79,0,0,1-.31,4.26c-1.15,1.71-3.32,1.89-4.37,2-3.56.29-7.14.44-10,.55l-2.7.12h0Z"/><path class="cls-4" d="M179.59,995.81a30.34,30.34,0,0,0-5.16-.83c-3.67-.38-7.83-.81-11.29-4.05-7.21-6.74-10.73-10.94-9.95-15.21s6-7.23,15.23-11A188.37,188.37,0,0,1,227,951.12l.41,0a10.12,10.12,0,0,1,2.76.49c.36.1.69.19,1,.26l2.41.5-1,2.25c-.15.35-.29.7-.43,1a25.24,25.24,0,0,1-1.11,2.51c-10.42,19.81-27.4,32.49-50.47,37.68l-.5.11Z"/><path class="cls-4" d="M212.9,401.18a20.48,20.48,0,0,1-2.37-.18,16.78,16.78,0,0,0-1.9-.16,4.8,4.8,0,0,0-.55,0,19.28,19.28,0,0,1-2.65.14l-2.07,0h-.11c-1.37,0-3.14-.05-5.56-.05h-.07l-1.2-.12c-11.95-1.21-28.3-2.87-42.56-13l-1.46-1c-6-4.15-14.14-9.85-10.27-18.51,1.66-3.7,4.67-5.57,9-5.57a34.8,34.8,0,0,1,9.09,1.73c1.31.37,2.5.71,3.56.94,29.1,6.27,41,15.35,48.79,23.41a10.87,10.87,0,0,0,1.92,1.4c2,1.27,5.34,3.38,3.83,7.48C217.41,400,215.61,401.18,212.9,401.18Z"/><path class="cls-4" d="M183,196.11c-1.59,0-2.85-1.09-4.07-2.14a16,16,0,0,0-1.53-1.22c-14.62-9.74-24-38.17-17.92-54.32,1.05-2.8,4.26-11.3,12.88-11.3a14.44,14.44,0,0,1,1.46.08c7.6.8,8.83,7.07,9.72,11.64a31.83,31.83,0,0,0,.84,3.56c2,6,3,12.43,3.92,18.63.38,2.57.78,5.24,1.25,7.82l.12.66-.3.59c-1.65,3.31-1.47,6.62-1.26,10.46a32.28,32.28,0,0,1-.38,9C187,192.83,185.92,196.11,183,196.11Z"/><path class="cls-4" d="M113.78,917.4a30.51,30.51,0,0,0-7.31-2c-6.73-1.32-15.12-3-15-14.64.07-8.25,7.44-11.29,13.37-13.73,1.34-.56,2.58-1.07,3.71-1.61,11.63-5.6,24.32-6.64,36.59-7.64l2-.17c1-.09,2.13-.13,3.26-.13a88.71,88.71,0,0,1,13.66,1.41l3.92.59c1.42.21,1.92,1.61,2.11,2.14.06.18,1.55,4.41-.12,6.25-9.76,10.76-23.54,23.56-43.57,27.1-2.36.41-4.74,1-7.26,1.63-1.36.34-2.67.67-4,1l-.7.16Z"/><path class="cls-4" d="M156.78,307.51l-3.22-.42c-11-1.42-22.39-2.88-32.5-9.93l-1.12-.78c-6-4.13-14.22-9.79-9.08-19.67,2.43-4.69,6.17-7.17,10.82-7.17,4.45,0,9,2.21,12.74,4l.87.41c8.72,4.15,16.92,9.57,24.86,14.81l.16.1c2.37,1.57,4.74,3.14,7.12,4.67a35.49,35.49,0,0,1,5.52,4.72c.73.72,1.48,1.46,2.24,2.15l2.74,2.47-3.57.94-2.67.73c-2.18.59-4.58,1.25-6.93,1.78-1.51.35-3,.56-4.85.82l-.13,0-2.5.37-.21,0Z"/><path class="cls-4" d="M162.48,806.07l-2.62-.87c-22.56-7.28-38.46-22.6-47.27-45.54-2.46-6.42-5.65-18.4.67-26.43,2.17-2.76,4.57-4.15,7.11-4.15,4.14,0,7.33,3.51,10.14,6.62.86.94,1.65,1.81,2.34,2.43,12,10.7,18.91,24.91,25.65,38.65,1.62,3.33,3.29,6.73,5,10a35.5,35.5,0,0,1,2.84,9.35c.29,1.42.59,2.88,1,4.28l.11.39-.06.39c-.17,1.25-.35,2.55-.54,3.83l-.35,2.36Z"/><polygon class="cls-2" points="6 8.83 58 60.83 58 1619.17 6 1671.17 6 8.83"/><path d="M1024,8V1672a8,8,0,0,1-8,8H8a8,8,0,0,1-8-8V8A8,8,0,0,1,8,0H1016A8,8,0,0,1,1024,8Zm-8,1658.34V13.66l-48,48V1618.34ZM962.34,56l48-48H13.66l48,48H962.34ZM13.66,1672h996.68l-48-48H61.66ZM960,1616V1379.35c-12.67-3.27-25.49-6-37.93-10.06-8.84-2.89-14.24,5.14-20.85,8.65-6,3.17-10.42,9.34-16.49,12.13-11.64,5.33-6.4,16.37-9.35,24.46-3.79,10.39-28.31,32.56-39.44,34.74-7.45,1.46-13.89,6.42-22.19,5.93-11.75-.69-17.16-7.58-12.4-18.69,8.18-19.07,18.49-37.23,39.67-44.1,8.82-2.86,17.52-7,28.61-4.82,6.06,1.17,14.38-8.76,21.48-14,3-2.2,5.48-5.13,9.72-5.5-11.21-4.17-22.81-2.66-34.2-3.23-9.52-.47-19.08-1.52-28.58-1.14-16.62.65-34.43-1.1-49.41,4.44-11.5,4.26-20.48,17.41-28.35,28.22-2.84,3.89,2.25,11.88,1.31,19.07-2,15.49-29.2,48.5-44.69,51.72-5.45,1.14-10.51,4-15.85,5.82-14.33,4.76-11.64-6.2-12-13.59-1.4-25.12,12.86-41.14,31.64-55,8-5.85,17.55-6.09,25.65-10,7.37-3.58,12.89-11.07,19.1-17,3-2.86,5.77-6,8.63-9-4.25.19-8.55,0-12.75.62-28.79,3.9-57.6,7.66-86.3,12.07-17.84,2.75-35.21,7.68-52.31,13.53-15.15,5.19-14.5,10-9.4,26.55,5.64,18.31,22.74,29,26.82,47.55,2.58,11.73,2.87,22.84-4.42,33.21-5.53,7.88-12.48,12.3-22.17,9-10.47-3.6-11.74-13.81-12.2-22.24a194.62,194.62,0,0,1,4.78-55.81c2.16-9.15-4.35-20.44-7.5-30.58-.18-.57-5.65,0-8.43.83-19.08,5.65-38.27,11-57.06,17.54-8.48,2.94-4.7,12.13-3.36,16.92,1.7,6.08.45,12.12,2.63,18.17,6.6,18.34,15.52,36,13,56.89-1.78,14.91-13.49,30.22-26.49,30.35-11.16.12-19.82-16-17.79-30.24,2.78-19.61,11.08-36.31,22.16-52.39,2.45-3.56-.58-10.92-1.16-16.52-.07-.58-1-1.13-1-1.65,2.82-30.79-15.42-8.19-22.91-8-9.78.28-18.5,7.48-28.77,9.15-11.11,1.8-7.34,13-10.18,19.78-7.91,19-7.08,40-12.23,59.63-3.87,14.75-24.84,33.55-37.62,34-14.56.54-19.83-12.19-14-28.11,7.93-21.82,25.43-33,43.9-43.24,12.05-6.69,7-19.23,11.6-28.31.85-1.66.88-3.72,1.47-6.44-18.58,9.21-37.06,18.23-55.42,27.5-15,7.57-29.94,15.21-44.6,23.37-3.1,1.72-6.5,5.62-7,8.91-4.28,29.92-25.76,45.2-47.57,50.44-11.85,2.85-30.5-6.49-31.94-18.3-1.16-9.48,6.83-16.31,15.1-21.94,19.41-13.22,41.6-17,63.7-22.57,11.82-3,21.61-13.77,32.53-20.7,7.06-4.48,14.51-8.36,21.77-12.54a13.42,13.42,0,0,0,1.88-1.59c-.65-.69-1.18-1.72-2-2-9.46-3.49-18.81-7.44-28.52-10.1-9.14-2.5-18,4.11-27.53,1.85-17-4.06-33.94-8.51-40.95-26.95-1.4-3.69.51-10.59,3.41-13.54,4.94-5,12.68-7.67,19.57-5.38,15.77,5.24,34.07,9,42.82,24,10.56,18.12,29.51,17.68,44.75,25.14,3.3,1.61,10.37-2.53,14.76-5.44,17.4-11.6,37.64-16.45,56-24.73-17.16-9.37-33-22.37-55.47-20-14.12,1.5-39.47-19.5-43.06-31.1-2.16-7-2.47-12.78,3-17.87,7-6.51,14.76-3.78,22.69-1.69,23.4,6.14,34.47,24.55,47.14,42.93,5.78,8.39,20.17,10.45,29.87,16.62,17.43,11.08,30.88-2.79,45.44-6.95,24.12-6.9,48-14.59,72.16-21.58,17.8-5.15,35.51-10.53,53.55-14.83.62-.15,1.21-.74,1.8-.72,4.8.18,9.4-.44,13.59-3-3.92-3.63-7.74-7.38-11.77-10.88-4.43-3.84-7.88-2.46-13,.49-7.46,4.33-16,1.17-23.22-2.67-20.42-10.89-37.1-25.52-43.14-49-4-15.52,5.48-20,24.67-16.94,28.61,4.6,42.07,24.15,52.88,47.31,7.17,15.37,16.75,29,35,28.22,23.33-1,46.5-5.42,69.78-8.06,13.13-1.49,26.31-3.17,39.5-3.39,27.34-.44,54.73-.76,82,.38,23.29,1,45.85,6.26,68,14.4,1.77.65,3.56,1.22,5.37,1.76v-81.08c-5.39-1.8-10.76-3.66-16.08-5.64-21.08-7.85-43.17-11.56-64.76-17.29-10.07-2.68-20.36-5.9-30.62-6.18-12.58-.35-20.19,11.78-31.24,16-10.31,3.88-5.66,13.62-7.77,20.33-5,15.89-25.86,36-43,39.43-10.39,2-20.53,5.28-30.87,7.65-3.79.87-4.79-1.92-4.72-5.19.54-24.45,12.85-42.24,31.88-56.17,13.92-10.19,28.19-17,46.84-13.31,6.08,1.21,14-6.31,20.85-10.23,1.22-.7.39-2.65-1.77-2.85-14.07-1.29-28.11-2.81-42.18-4-11.22-.9-22.75-.06-33.65-2.33-16.9-3.52-26,8.75-38.4,15.35-23.5,12.55-48,17.42-72.38,1-16.19-10.92-10.29-19.81.9-30.5,16.47-15.73,36.27-15.45,56.12-13.32,12.89,1.38,25.79,5.27,35.15,15.84a6.19,6.19,0,0,0,4.17,1.71c11.38.14,22.79-.37,34.15.18,31,1.49,61.82,4.66,92.11,11.87,1.1.26,2.32,0,5.43,0-12.53-10.14-20-22.94-33.72-30.22-18.43-9.74-38.09-19.12-46.55-40.56-5.33-13.52-7.44-27.46-2.8-41.68,2.13-6.51,7-10.94,13.67-11.32,9.25-.53,16.89,4.06,22.09,11.49,14.62,20.87,23.18,44.45,27,69.35,2.6,16.87,17.45,23.22,25.62,35.08,14.68,21.32,39.83,16.92,59.51,25.76,7.28,3.27,15.11,5.36,25,8.71V1277c-11.66-10.11-22.11-18-31-27.39-14.81-15.58-25.92-34.07-38.12-51.69-12.08-17.44-19.37-37.28-28.77-56-5.58-11.13-8.51-23.56-13.1-35.23-3.61-9.19-14.09-8.31-21-12.91-8.16-5.48-18-8.38-26.58-13.31-6.56-3.77-3.69,4-7.32,5-15.53,4.6-28.95-.12-42.75-6.15-23.06-10.06-38.33-26.78-45.79-50.73-1.23-3.94-2.42-8.63.77-11.48,4.41-3.92,9-6,16.44-5.08,14.38,1.75,28,4.48,41,10.8,18.39,8.91,30.53,23,37.31,42.15,2.57,7.26,10.54,7.73,16.07,11.15,8.73,5.41,18,10,27.1,14.92-3.88-14.23-7.86-27.91-11.3-41.73-3.91-15.7-7.06-31.59-11-47.27-3-11.9-16.15-12-23.56-19-4.72-4.42-8.72.08-13,1.83-14,5.71-25.23-1.6-36.2-8.65-13.41-8.63-22.26-21.08-28.4-35.65-1.64-3.89-5.59-6.15-6.74-10.88-1.63-6.73-2.47-12.62,3.64-17.27a20.51,20.51,0,0,1,19.06-3.08c24.23,8.05,46.33,20.81,54.58,46,4.16,12.71,11.36,18.77,21.2,24.53l7.89,4.61c.17-3.26,1.26-6.81.36-9.74-5.07-16.57-6.3-33.66-8.23-50.73-1.32-11.72-3.41-23.49-5.7-35-.92-4.65-9.44-9.46-17.54-4.17-6.26,4.08-13.46.53-19.23-2-23.94-10.51-37.5-30.68-46.52-54.1-5.06-13.13,1.65-18.38,20.68-15.8,18.08,2.46,34.06,9.83,43.24,26.4,6.09,11,15.42,20.76,15.79,34.51,0,1.07,1.7,2.09,3.83,4.54-1.67-16.28-4.13-30.71-4.37-45.18-.26-15.6-2-31.1-2.6-46.67-.84-23.3-1.69-46.72-4.26-69.83-.52-4.66-14.79-7.05-21.7-11.92-7.25-5.11-14-2.27-21-1.24a20.67,20.67,0,0,1-9-.44c-12.64-3.47-11.38,7.51-12.83,13.95-5.86,26-10.21,52.35-16.55,78.22-5.44,22.2-13.17,43.83-19.28,65.88-5.87,21.18-10.57,42.69-16.53,63.85-5.21,18.52-11.21,36.83-17.33,55.07-4.45,13.29-9.52,26.39-14.57,39.47-9.15,23.71-18.08,47.51-27.88,70.95-7.4,17.7-15.37,35.22-24.23,52.22-10.89,20.9-23,41.17-34.54,61.73-7.14,12.72-13.09,26.28-21.64,38-8.06,11-14.82,22.91-23.07,33.87-9.68,12.85-19.88,25.73-28.19,39.54-10,16.56-28.72,24-46.79,16.55-5.36-2.2-11.54-2.74-17.42-3.32-28.61-2.84-57.28-5.18-85.87-8.2-20.42-2.15-40.74-7-61.12-7-12.14,0-23.9-1.85-35.65-3.13-19.64-2.15-22.09-10.22-11.21-27.48,12.5-19.82,24.39-40,36.55-60,11.74-19.31,24-38.35,35.13-58,11.56-20.31,22.2-41.14,33.13-61.81,9.42-17.82,19.17-35.5,27.89-53.67,9-18.69,16.86-37.89,25.15-56.9,1.34-3.07-2.49-3-3.25-3.23-9.82-3.21-18.35-8.79-27.17-13.91-2-1.14-3.55-.57-6.29,1.72-12.95,10.85-22.36,25.6-37.73,33.89-3,1.62-4.4,7.09-5.59,11.07-4.32,14.54-14.06,25.71-24.68,35.25a56.52,56.52,0,0,1-29.48,13.33c-7.94,1.13-13.67-3.22-17.74-8.88-6.29-8.75-6.7-18.82.58-26.94,13.26-14.79,31.53-19.53,50.27-23.86,16.25-3.76,31.05-11,41.4-25.64,4.3-6.1,11.68-10,17.7-15-20.09-12.29-39.34-24.47-57.33-38.61-3.82-3-8.35,1.86-12.35,3.22a265.44,265.44,0,0,0-30.47,12.49c-9.86,4.79-9.18,16.85-15.52,24.54-15.81,19.15-34.48,31.87-60.2,30.54-14.08-.72-29.42-24.26-22.17-34.32,6.73-9.32,18.26-12.65,28.95-15.47,19.29-5.09,38.49-9.78,58.87-11,13.21-.81,25.9-10.29,38.82-15.87,1.58-.68,3.18-1.31,4.12-1.7-18.82-17.92-38-35.88-56.79-54.23-7.94-7.75-14.12,1.39-21.24,1.45-3.69,0-7.25,3.64-11.07,4.18-17.32,2.44-13.49,22.14-25.41,30-19.48,12.77-39.1,22.87-62.72,16.71-7.73-2-16.25-6.34-17.88-16.71-2.52-16,8.84-21.44,20.07-26.89,14-6.79,29.35-8.47,44.49-9.76,7.64-.65,15.53,2.17,23.35,2.81,2.07.17,4.24-2.16,6.5-2.91q13.95-4.64,28-9c3.34-1,4.18-2,1.19-4.85C194.12,843.72,183,831,172.15,817.93c-4.28-5.18-13.85-5.93-20.93-8.88-17.57-7.3-31.66-18-40.71-35.69-5.2-10.2-8.68-19.46-8.21-31.2.35-8.94,2.73-16.69,9.44-20.44,5.83-3.27,13.21-.55,19.44,4.3,17.55,13.67,27.19,32.26,36.28,51.9,4.43,9.56,4.68,20.24,10.44,29.21,10.88,16.91,25.51,30.25,39.69,43.39,3.64-10.15,7.53-20,10.64-30.06,2.39-7.75-3.36-14.37-4.37-21.88-3.12-23.16,9.28-56.19,36.39-60.87,8-1.37,18.95,1.92,23.69,10.5,3.09,5.61,1.51,13.19-1.52,19.44a100,100,0,0,1-27.52,35.19C239.29,815.47,230.69,833,226.82,853c-2.23,11.55,7.59,13.6,12.83,18.65,15.9,15.34,31,31.61,49.27,44.39,5.05,3.54,5.28,3.7,7.53-5.29,1.5-6,4.22-11,7.46-16.13,1.28-2,5-7-2-10.46-9-4.42-9.91-13.81-9-23,1.88-18.45,6.61-35.6,19.94-49.69a81.2,81.2,0,0,1,32.35-20.79c6.72-2.4,16.1,10.19,16.87,21.08,2.13,30.2-11.24,55.12-33.92,71.18-16.19,11.46-18.13,27.95-26.77,41.88-2.3,3.72,5.13,5.32,7.87,7.19,25.29,17.18,50.53,34.61,78,48.17,10.66,5.27,7.45-6.76,9-10.4a428.69,428.69,0,0,0,17.33-47.12c6.72-22.29,12.29-44.92,18.28-67.43,4.94-18.55,10.19-37,14.55-55.72s7.69-37.48,11.59-56.21c2-9.59,3.54-19.35,6.56-28.61,4.75-14.56.47-17.19-19-20.29-13-2.07-22,1.29-32.37,7.62-15.19,9.25-31.91,4.8-47.54.39-15.06-4.24-28.86-11.42-40.06-23.19-4.79-5-10.4-9.06-8.64-16.85,1.86-8.24,9.6-11.77,16-13,21-4.16,42.4-6.11,62,5.69,10.18,6.13,22.63,11.36,28.79,20.54,6.05,9,13.13,3.7,19.24,6.54-13.37-16-26.87-32-40-48.18-5.63-6.93-10.54-14.45-15.86-21.64-6.83-9.23-19.13-7.18-27.53-13.21-4.61-3.32-7.39-.93-11.78,1.85-14.46,9.14-30.1,5.82-45.45,1.59-16.27-4.5-29.51-13.92-41.83-25.08a23.79,23.79,0,0,1-7.72-19.35c.74-7.93,10.51-9.08,17-10.94,28.85-8.27,51.92,5.42,72.4,22.75,8,6.8,12.45,17.82,24.57,19.68,1.89.29,5.08,1.45,5.42.88,1.6-2.7-2.33-2.45-2.78-3.83-3.94-12.16-13.34-20.95-19.49-31.77-10.32-18.18-23.42-34.84-33-53.33-4.72-9.05-11.37-3.7-16.71-6.11-7.55-3.42-16.36-3.94-24.28-6.7-6.55-2.27-9.07,4.13-14.32,5.25-15.38,3.28-30.26,2.3-45.4-.41-11.33-2-21.23-6.37-30-14.17-7.18-6.42-8.51-14-6.81-22.53C181.52,446.4,191.19,445.73,199,443c14.71-5.18,28.65-1,41,6.24,10.64,6.24,19.7,15.22,29.28,23.21,11.42,9.52,26.27,9.31,42.46,17.28-18.67-24.42-26.61-49.88-40.49-72.13-2.87-4.59-8.23-3.6-12.44-5.17-6.74-2.5-14-4-20.19-7.52-9.45-5.41-16.93,1.37-25.29,2.44-13.77,1.76-27,1.19-40.68-3.09-11.21-3.51-21.5-7.09-30.5-14.91-5.87-5.1-11-11.09-10.25-18.21,1.51-14.38,12.71-17.55,24.85-15.95,20.12,2.65,40.7,7.61,54.91,22.12,14.54,14.83,33.08,18,50.44,25.15,2.13.87,2.65.48,2-1.37s-.68-3.75-1.44-5.44c-10.82-23.9-21.32-47.95-32.8-71.54-4-8.19-14.5-5.12-21.46-8.83-4.28-2.28-9.46-2.94-14.27-4.17-15.27-3.92-29.39,5.94-44.41,3.91-18.95-2.57-37.55-6.24-47.81-25.34-4.15-7.72-3.52-15.16,2.54-21.51,6.77-7.09,15.05-9.1,24.56-6a139.53,139.53,0,0,1,48.44,27.83c13.23,11.58,29.33,11.21,43,18.62.54.29,1.47-.14,2.22-.24a10,10,0,0,0-.47-2.27,591.47,591.47,0,0,1-30.82-82.83c-3.79-13-12.68-19.22-22-26.62-19.48-15.43-27.91-45.93-16.13-68.11,4.87-9.17,14.55-12.55,24.93-11.45,8.41.9,10.24,8.78,12.59,14.76,6.6,16.78,10,35.28,5.57,52.14-6.22,23.75,7.53,41.45,12.65,61.75a12.54,12.54,0,0,0,1.73,3c2.73-2.5,5.25-5.29,8.23-7.45,16.53-12,13.16-32.95,22.09-48.25s22.24-26.61,40-29.05c10.6-1.46,21.62,4.08,23.3,15.8,1.21,8.49-4.36,15.53-12.39,21.91-24.66,19.6-58,27.82-75.34,57.08-2.38,4-.66,6.68.58,9.5,9.8,22.17,19.84,44.23,29.85,66.3.7,1.56,1.69,3,3.18,5.59.43-5.39,3.9-7.27,6.59-9.57,16-13.72,26.45-31.24,36.74-49.45,9.26-16.4,25.18-27.62,44.32-29.44,9.94-.95,22.11,3,24.83,15.54,3.05,14.08-6.24,23-16.94,29.53-17.06,10.49-36.44,15.86-55.68,19.66C276.88,319,275,331.76,265.41,336.9c-3.92,2.11-7,5.74-10.81,8.09-4.45,2.74,0,4.69.66,6.16,9.71,22,19.82,43.72,29.75,65.57,2.56,5.63,5.3,7.45,9.95,1.78,7.91-9.63,19.28-15.58,27.55-24.49,7-7.58,11.26-17.82,16.36-27.08C348,350.27,379.18,335,397.2,339.11c5.69,1.29,10.43,5.35,11.7,11.24,1.5,7-.47,13.15-5.37,19-12,14.46-28,22.69-44.95,28.89-7.18,2.63-15.61,2.88-23.41,2.57-12.39-.49-15.78,11.23-24.08,16.12-.84.49-1.15,1.8-1.92,2.5-5.27,4.81-15.44,10.19-14.91,14.2,1.14,8.76,7.41,17,12.11,25.11,10,17.34,20.12,34.64,30.66,51.66,9.34,15.09,19.35,29.75,29,44.65,9.77,15.14,19.29,30.45,29.22,45.48,3.79,5.74,8.43,10.93,12.95,16.7,1.63-13.07,3.24-25.57,4.7-38.08.19-1.6.77-4.33-2.16-4-12.66,1.32-14.26-9.31-15.35-16.73-3.75-25.45-2.72-50.17,18.63-69.34,3.29-2.95,5.56-7.08,9.34-9.91,4.92-3.68,9.09-8.7,16.22-6.29,9.47,3.2,10.17,11.52,11.55,19.63,3.2,18.76.26,36.81-6.17,54.39-1.57,4.28-3.61,9.37-7.05,11.81-12.41,8.81-15.48,21.64-16.59,35.28-.92,11.28-3.42,22.53-3.63,33.6-.19,9.76,10.49,15.54,16.25,23.09,9.6,12.59,20.37,24.29,30.71,36.31a30,30,0,0,0,4,3.26c.77-1.59,2-3.11,2.25-4.78,4.52-27.74,10.16-55.37,12.93-83.28,2-20,5.82-39.84,6-60.21.18-21.79,5.46-43.57,5.33-65.33-.17-27.22,6.42-53.85,5-81.08-.55-10.73.42-21.53.76-32.3.28-8.72,8-3.74,10.24-3.77,29.26-.36,58.41-2.12,87.58-4.36,21.93-1.68,44-1.07,66-2.35,24.69-1.44,49.31-4,74-5.77,7.34-.53,14.75,0,22.14-.11,4.64-.05,4.45,3.15,4.22,6.21-1.22,16,1.3,32.05-.56,48.16-.44,3.74,7.14,5.54,11.43,7.62,2.3,1.12,5.89,1.69,6.65,3.46,2.12,5,7.06,4.44,10.52,6.64.61-3.27,1.63-6.53,1.77-9.82.82-18.15.52-36.4,2.45-54.41,1.1-10.18-6.25-11.77-11.48-15.56a244.18,244.18,0,0,0-27.29-17.47c-3.27-1.75-8.43-1.15-12.42-.25-18,4.07-40.65-6.76-49.15-23.5-4.66-9.18-3.73-18.36,3.16-24.58,6.24-5.62,14.91-5.34,23.26-.88,15.22,8.15,30,17.66,35.77,34.09,3.44,9.74,11.71,9.2,17.12,14.07,6,5.37,13.33,9.22,20,13.7,1.54-14.67,3.88-29.39,4.32-44.17.22-7.51-9.31-7.69-13.94-11.87-11.38-10.26-24.06-19.08-35.73-29.05-6-5.09-12.14-.72-18.23-1.72-14-2.3-41.73-25.94-41.7-38.4,0-8.46,3-16.77,11-19.72,8.44-3.11,16.75,1.57,23.14,7.18,12.11,10.62,22.22,22.95,28.51,38.08,7.49,18,26.26,23.84,39.19,36a31,31,0,0,0,3.95,2.81c1.65,1.13,3.33,2.23,5,3.34.39-1.95.91-3.87,1.13-5.84,1.26-11.08,3.25-22.16,3.37-33.26.08-8-9.17-11.52-12-18.59C785.4,197,777.2,175,792.89,152.25c7.37-10.7,25.64-14.13,35.06-5.34,7.12,6.64,6,16.22,4.81,24.52-2,13.17-2.69,26.69-7.69,39.31-1.45,3.68-2.07,7.95-4.33,11-10.23,13.93-4,30.46-7.61,45.38-.53,2.16-.81,3.73,3,2.11,7.8-3.32,12.27-9.1,17.82-15.2A69,69,0,0,1,870,232.93c12.67-2.76,24.35-3.31,31.17,11,4.74,10,.2,20-11.93,25.06a98.76,98.76,0,0,1-56.48,6.11c-11.35-2-20.38,6.92-22,17.88-2.78,18.39-1.42,36.71-1.69,55.06,0,2.22-.38,3,2.73,1.51,8.35-4.1,18.27-5.77,25.48-11.18,5.13-3.86,7.92-11.06,14-15.15,14.84-9.89,31.09-14.89,48.49-11.79,6.15,1.1,13.09,6.87,15,14,2.74,10.31-1.08,20-10.23,25-21.53,11.83-44.29,9.28-66.7,2.35-6.28-1.94-27.57,3.67-28.66,9.75-1.59,9-1.87,18.22-2.05,27.36-.31,14.78-.09,29.58-.09,43.71,6.55-1.89,15.42-3.28,23.12-7.05,5.9-2.88,10-9.18,15.47-13.25a95.63,95.63,0,0,1,45.09-18.08c13.47-1.78,29.59,11.76,30,25.29.46,14-10.66,20.59-21.76,24.22-19.79,6.46-41.06,7.68-59.35-2.36-11.91-6.53-20.1-.52-29.88,1-6.79,1.06-5.35,7.54-5.38,11.34-.2,25.07-.45,50.2,1.35,75.16.35,4.94,7.91-1.75,12.37-1.84,20.37-.43,29.15-19.49,44.56-28.14,15.1-8.49,41.2-9.3,53.31.87,7.2,6.05,9.06,14.54,6.39,22-2.52,7-9.61,11.88-17.49,14.39-14.67,4.68-29.56,5.17-44.81,4.18-6.67-.43-11.84-3.07-17.51-5.78-10-4.8-18.83,2-28.05,4.24-16.35,4-6.81,17.33-7.72,25.77-1.42,13.09.36,26.57-1,40-.37,3.57-3.89,11.59,4.25,12.46,3.89.42,8-3.33,12.24-3.82,19.17-2.28,28-22.48,46.62-26.15,14.76-2.9,28.91-3.88,42.15,3.73,9.29,5.34,6.28,27.64-2.95,33.37-17.38,10.79-35.49,5.49-52.44,1.64C839.14,623,824.05,621,808.6,629c-2.07,1.07-1.52,2.34-1.49,3.56.6,22.57.84,45.16,2.29,67.67.34,5.17,6.09.62,8.5.28,17.65-2.52,31.71-12.43,45.73-22.89,16.84-12.57,43-11.31,53.89.8,4.7,5.23,7.85,11.66,4.88,17.29-4,7.63-11.09,13.06-20.16,15.48-18.08,4.8-36.92,4.08-53-2.95-15.17-6.65-24.63,3.75-36.8,4.95-2.59.26-1.34,2.71-1.34,4.08-.21,33.65,1.54,67.22,4.38,101.74,5.94-7.12,14-13,16.16-20.56,1.7-6-.19-13.75,1-21,2.63-16.39,27.92-40.64,44.94-42.62,10.44-1.2,20.52-6.18,31.31-1.87,3.14,1.26,4.48,1.77,3,6.23-2.94,8.58-.28,18.41-5.43,26.85-8.1,13.3-19.95,22-33.42,29.15a98.6,98.6,0,0,1-31.07,10.14c-11.33,1.81-27.52,35.53-24.49,46.47a103.1,103.1,0,0,1,3.38,28.76c-.23,13.74,3.2,26.85,4.73,41.09,7.78-10.24,17-17.47,15.94-32.75-2-28.87,25.08-62.91,52.49-69.77a98.93,98.93,0,0,1,17.6-3.09c11.13-.7,9.6,7.85,9.22,14.45-1.25,21.43-9.15,40-25.91,53.92-11.26,9.37-23.44,16.38-38.72,18.58-5,.72-8.17,10.43-13.22,14.85-16.93,14.83-13.38,32.64-11,52,3,24.1,8.52,47.53,13.2,71.2,2,10.12,5.15,20,8.12,29.91.33,1.1,2.35,5.55,3.55,2.91,4.69-10.25,11.48-21.26,10.91-31.62-.41-7.38-5.74-16-5.82-24.6-.13-15.4,5.54-29.58,12.71-42.69,7.35-13.46,17.49-25.28,31.84-31.92,7-3.23,14.37-8,22.76-4,1.62.79,3.68,3,3.64,4.53-.63,22.59,4.3,46-9.83,66.65-10.52,15.36-22.34,29.06-40.22,36.47-9.82,4.06-10,15.19-13,23.2-2.9,7.79-8.81,14.13-9.76,23.07-.59,5.54,2.36,9.49,3.64,13.52a435.6,435.6,0,0,0,24.72,60.5c9.87,20.11,20.25,40,33,58.29a146.44,146.44,0,0,0,35.44,36l3.11,2.23V803.76a10,10,0,0,1-2.57,0c-6.7-.81-7.89-7.62-8.7-13,.5-5.89,1.51-11.73,7.76-11.58a15.57,15.57,0,0,1,3.51.48V198.86a18.23,18.23,0,0,1-7.64,1.49c-9.05-.21-9.88-9.1-10.32-16.58-.5-8.36,6.21-10.66,11.75-10.45a15.26,15.26,0,0,1,6.21,1.49V113.22c-1.7,5.58-7.37,8.25-14,7.72-5.79-.47-11.41-2.14-11.07-11.9.93-5.69,4.44-10.67,12.93-11.16,6.82-.4,10.75,3,12.09,7.7V64H929.86a17.72,17.72,0,0,1,.25,3.15c-.12,9.26-5.8,12.66-14,12.5-8.56-.17-11.14-6.52-11-13.52,0-.69.06-1.4.13-2.13H64V224.83c8.1-.08,11.53,4,11.13,12.08-.28,5.74-1.73,13.55-7.25,13.45a20.93,20.93,0,0,1-3.88-.45V520.49a11.32,11.32,0,0,1,5.84-1.39c6.1-.1,13.6,1,13,9.44-.68,9.06-5.75,15.59-15.7,16.61a6.14,6.14,0,0,1-3.12-.42v49.5a13.71,13.71,0,0,1,6.53-3.08c7.91-1.51,12.71,4.31,13.43,15.26-.42,5.13,0,12.05-7.79,12.44-4.45.21-8.94-.61-12.17-3v65.84a16.05,16.05,0,0,1,0,1.7V1000.1c1.77-1.4,4.28-2.14,7.87-1.82,9.1.8,12.21,8.58,13,16.55.73,6.84-6.36,12.24-19.2,12.23a4.48,4.48,0,0,1-1.72-.45v103.54a8.3,8.3,0,0,1,8-4.66c7.63.06,18.41.08,16,12,0,9.88-4.79,15.36-12.47,15.22A13.42,13.42,0,0,1,64,1145.84v113.29c1.2-2.65,3.74-4.36,9.06-4.42,10.12-.13,14.61,6.57,15.25,13.75.57,6.27-1,15.36-11.93,14.63-6-.41-10.37-2.25-12.38-6.1v93a23.49,23.49,0,0,1,6.92-1.07c11.8-1.47,13,8,13.69,15.29.55,6.23-4.31,13.29-10.88,13a12.66,12.66,0,0,1-9.73-5.09v204.64c.58,0,1.19,0,1.83,0,9.27-1.69,13.47,7,14.53,15a6.26,6.26,0,0,1-1,4.25H239.17a18,18,0,0,1-.55-2.46c-1.55-10,4.22-15.53,12.21-16,6.86-.45,11.45,6,13.2,13.24a16.43,16.43,0,0,0-1,5.27h72.26a.38.38,0,0,0,0-.1,13,13,0,0,1,12.75-14.27c5.74-.09,12.91,4,12.95,12.41,0,.68,0,1.33-.1,2h73.2c-.1-1.36-.14-2.76-.19-4.12-.24-6.17,4.9-8.33,9.14-7.71,6.26.92,12.22,3.76,12.08,11.83H592.76a21.21,21.21,0,0,1,0-3.75c.28-3.78.69-8,5.26-7.71,6.26.4,15.17-1.92,14.64,11.46Zm-46.85-608.95c11.6-16.64,9.45-35.5,10.29-53.79a43.4,43.4,0,0,0-3.94,5.66q-16.11,32.19-32,64.5c-1.14,2.32-.88,5.3-1.86,7.74-1.23,3.1.71,4,4.41.75C898.62,1024.49,906.54,1016.54,913.15,1007.05Zm1.35-55.76a2.72,2.72,0,0,0,0-1.72c-.92-.2-2.12-.58-2.79-.18a50.8,50.8,0,0,0-6.92,4.89c-23.56,20.45-37,45.06-31.44,78.11,5.85-12.35,11.08-24.08,16.91-35.5C898.14,981.57,906.44,966.49,914.5,951.29ZM900.34,528.56c5.58-1.83,14.38-4.07,10.81-14.62-3.41-10.06-11.69-10-18.08-10.92-19.71.39-33.8,9.45-46.82,20.68-3.49,3,1,4.38,2.08,4.76,3.79,1.28,7.86,1.75,11.83,2.47A81.42,81.42,0,0,0,900.34,528.56Zm-9.26-93.68c8-2,17.71-3.6,17.57-14.29s-9.86-11.69-16.3-13.6c-20.25,1.45-35.78,9.75-49.71,21.6-2.82,2.4-1.85,3.55,1.37,4.53C859.57,437.89,875.27,438.91,891.08,434.88ZM862.53,890.49c20.44-3.06,54.08-35.49,45.32-57.72ZM893.1,702.77c7.45-2.19,17.53-.94,20.38-12.31-3.75-9.39-12.87-13.94-20.59-12.77-14.95,2.25-30,6.77-41.64,17.76-.88.82-2.12,2.61-1.83,3a5.42,5.42,0,0,0,3.42,2.33C866.25,702,879.62,706.74,893.1,702.77Zm-.93-82.13c10.12,1.46,17.54-10.32,12.5-19.07-4.22-7.34-13.28-3.61-19.19-7.05-14.2,2-26.92,6-37.34,15.56-2,1.83-4,3.13,1,5.15C863.08,620.92,877.87,618.58,892.17,620.64Zm6.05-279.87c4.57-2.91,6.44-7.92,4.42-12.44-4.1-9.17-13.93-7.09-20.59-6.39-10.79,1.12-21.09,6.14-29.73,13.26-2.58,2.13-4,5.61-6,8.47.71.42,1.39,1.15,2.13,1.21,8.82.77,17.65,1.44,27.53,2.21C882.9,345.72,891.14,345.27,898.22,340.77Zm.47,488.79c-2.22-.66-4,0-6.31.69-24.94,7.71-30.6,29.27-37.74,52.53,7-8.27,13.78-14.27,18-21.73,5.51-9.76,15.31-15.29,21.2-24.4C895.38,834.25,897.06,831.92,898.69,829.56Zm1.88-90.22c-6.29,2.13-8.42,3.44-10.59,3.51-27.66.82-43.18,21.93-48.83,42.42-.28,1,.2,2.24.32,3.36a12.22,12.22,0,0,0,2.75-1.62c6.48-6.51,12.42-13.67,19.44-19.52C874.39,758.54,885.85,750.47,900.57,739.34ZM891,253c-.15-4.34,0-6.23-2.46-8-12.13-8.61-45.18,7.43-50.51,18.82-1.37,2.94.75,2.61,2.8,2.72a118.77,118.77,0,0,0,35.73-3.82C882.53,261.14,889.74,259.13,891,253ZM851.94,793.85c24.64-10,44.68-19.51,51.2-45.46A437.53,437.53,0,0,0,851.94,793.85Zm-30.47,653c20.28-9.41,40.25-19.18,47.73-44.71-19.53,12-32.66,29.19-48.91,42.77a7.14,7.14,0,0,0-1,1.42C820,1446.5,820.93,1447.08,821.47,1446.83Zm18.47-238.22c.73-.19,1.31-3.63.83-5.25-5-16.74-9.38-33.86-18.45-48.85-4.36-7.2-8.06-16.75-18.91-17.55-3.44-.19-5.31.86-6.53,4.47a43.76,43.76,0,0,0-2.1,17.64c1.64,25.15,16.37,39.77,37.7,49.5C834.6,1209.53,837.6,1209.25,839.94,1208.61ZM812,1441.77a272.73,272.73,0,0,1,45.38-44.13C838.35,1397.71,806.91,1428.93,812,1441.77ZM822.41,165.54c.5-3.92-1.27-11.31-3.31-11.81a17,17,0,0,0-19.79,9.13c-10.39,21.4-1.28,40.56,8.15,60.11C818.3,204.57,820,184.9,822.41,165.54Zm-27.3,536.72c.46-1.87,1.38-3.76,1.28-5.6-.25-4.92-1.19-9.81-1.41-14.73-.78-17.25-3.17-34.7-1.41-51.71,1.18-11.36-4.86-15-11.65-18.93-11.14-6.46-22.89-11.87-34.6-17.84-2.1,18.85-4.25,37.48-6.18,56.13-.41,4-1.63,9.33.33,11.82,13.5,17.11,26.73,34.92,50.12,39.65A27.11,27.11,0,0,1,795.11,702.26Zm-2.18-99.76c1.43-10,1.36-20.51,1.06-30.2-.4-12.58.57-25.37-1.43-38-.31-3.05.5-6.19-3.45-8.43-9.73-5.51-20.79-8.77-29.28-16.55-.05-.05-3.83-4.46-4.44-.45-1.36,9-1.43,18.2-2.38,27.28-1.11,10.72-2.75,21.4-3.82,32.13-.48,4.82-1.54,13.38.07,14,13.35,5.16,25.31,12.73,37.61,19.72C791.54,604.7,792.55,605.16,792.93,602.5Zm-2-87.74c.68-4.33,2.31-8.76,1.86-13-2-18.64-1.91-37.24-1.2-55.93.19-4.86,4.49-10.76-.3-14.73-7.66-6.34-16.17-11.67-24.38-17.34-2.33-1.62-3.61-.77-3.81,2-1.84,25.21-3.7,50.41-5.51,75.06-2.36,6.53,1,10.37,5.94,11.49,7,1.59,12.74,5.52,19,8.52C785.26,512.24,788.09,513.47,790.9,514.76ZM803.45,1273c-5,1.11-9.24,1.69-13.23,3-20.76,6.79-34.42,21.7-45,40-.63,1.09,0,2.91,0,4.4.67-.13,1.58,0,2-.42C764.32,1302.88,786.5,1292,803.45,1273Zm-89.59-243.75c14.41,31,44.06,50.51,79.45,47.25-4.8-2.77-8.94-5.2-13.12-7.57-22.23-12.64-44.73-24.86-64.62-41.19a5,5,0,0,0-1.81-.53A5.72,5.72,0,0,0,713.86,1029.24Zm71,30c2.88,1.08,2.82-2.13-.9-7.93-1.05-1.64-3.71-2.17-5.06-3.71-15.46-17.6-35.48-24.88-59.47-26,19,11.45,37.12,22.46,55.35,33.29A62.3,62.3,0,0,0,784.84,1059.22Zm-22.37,265.53c12-1.23,32.34-11.74,38.25-36.39C788.25,1301.19,773.64,1310.57,762.47,1324.75Zm18.88-350.07c1.73-2.18-1.59-1.95-2.35-2.45a398.38,398.38,0,0,1-47.83-35.72c-.84-.75-2.27-.84-3.43-1.24a22,22,0,0,0,1.16,2.39c3.37,5.25,6.7,10.53,10.19,15.7,8.7,12.93,22.07,18.79,36.42,24.29C777.52,976.69,780.12,976.23,781.35,974.68Zm9.87-110.38c-12-24-26.88-41.32-55.4-43ZM790.56,877,735,833.12C746.92,855.62,761.17,874.21,790.56,877ZM758.64,363.21c.34-3.19-.09-4.35-3.65-4.22-22.71.81-45.39,1.5-68.06,3.71-19.11,1.87-38.43,1.69-57.66,2.35-20.57.71-41.15,1.31-61.72,2-17.76.62-35.51,1.36-53.27,1.95-2.66.09-3.47.1-3.48,3.7,0,23.39,1.39,47.07-1.79,70.09s-2.74,46.29-5.12,69.38c-2.63,25.43-3.88,51.07-6.7,76.57-2.9,26.15-6.29,52.16-11.72,77.94-3.87,18.35-6.48,37-10.06,57.88,0,0,0,.07,0,.1-.06.24-.13.54-.19.84-4.85,22-9.58,44-14.58,65.93q-6.48,28.39-13.48,56.67c-3.75,15.06-7.94,30-12,45-3.33,12.35-7.37,24.55-9.86,37.06s-9.74,22.81-12.87,34.87c-2.42,9.34-3.72,19.67-8.74,27.5-11.47,17.9-16.69,38.4-26.32,57-12.28,23.78-22.76,48.49-36.73,71.44-6.41,10.53-11.95,21.6-17.94,32.39-7.77,14-15.29,28.2-23.5,42-10.07,16.88-20.76,33.38-31.16,50.07q-12.8,20.54-25.52,41.12c-2.51,4.08-7.37,9.11-6.43,12.29,1.17,3.93,8,1.77,12.32,2,13.28.78,26.6,1,39.83,2.23,32.33,3,64.72,5.79,96.9,10,20.84,2.77,41.93,2.81,62.64,7.33,12.71,2.77,24.2,3.18,32.43-13.09,9.89-19.56,25.48-36.15,37.76-54.58,12.79-19.2,26-38.33,36.39-58.83,11-21.79,24.7-42.16,33.9-65,7.91-19.64,18.4-38.24,26.4-57.85,9.61-23.55,17-48,26.86-71.43a450.81,450.81,0,0,0,17-49.08c6-20.69,11.49-41.54,17.34-62.27,5.58-19.77,12.16-39.3,16.78-59.29,4.68-20.31,11.21-40.13,14.65-60.82,3.23-19.41,9.76-38.27,13.38-57.64,4.23-22.68,7.74-45.57,10-68.53,3.08-31.43,5.26-62.93,10-94.21,2.85-18.71,3.74-37.72,5.5-56.6,2.24-24,4.41-48,6.71-72Q755.65,391.26,758.64,363.21Zm-37,556.56,62.44,44C778.92,940.06,740.2,913.58,721.63,919.77ZM751.19,695c3.63-.2,4.45-.48,2-3.89-4.61-6.38-8.73-13.12-14.47-21.86-1.4,8.77-2.68,15.85-3.53,23-.18,1.49-1.22,6,2.11,4.28C742.06,694.11,746.59,695.29,751.19,695Zm-43.64,765.51c18.24,1.12,48.81-36.41,44.48-56.28C736.31,1422.79,718.62,1438.82,707.55,1460.55Zm43.18-1148.3c-1.27-2.73-2-5.93-3.91-8.13-8.06-9.33-16.91-18-28.58-22.57-3-1.19-7.5-4.23-11,.06-3,3.62-2.53,7.24-.73,11.5,6.48,15.28,19.61,18.61,33,20.25Zm-9.79-71.4c1.93.53,5.22.53,3.76-2.95-4.51-10.8-12-19.73-19.87-28.11-4.48-4.78-9.93-9.24-16.78-10.74-5.3-.87-5.18,4.22-6.38,6.62-2.28,4.6-.23,10.32,2.79,13.3C714.76,229.09,726.77,237,740.94,240.85Zm-8.69,1170.49c.39-.39.36-1.19.52-1.8-.94-.08-2.14-.56-2.77-.16-16.91,11-28.47,25.48-30.92,48.58C708.86,1439.68,719.15,1424.48,732.25,1411.34ZM717.34,1249.4a35.11,35.11,0,0,0-5.33-.3c-19.22,2.17-38.62,3-57.49,7.72-1.8.45-3.62.84-5.43,1.26,1.79,1.59,3.34,3.9,5.43,4.62a53.46,53.46,0,0,0,11.44,2.2C684.93,1267.09,701.36,1260.53,717.34,1249.4Zm-74.55-.06c25.45-6.83,50.91-7.19,79-10.74C691.82,1228.67,665.69,1224.75,642.79,1249.34ZM624,1500.63c6-4.71,10.52-10.63,8.85-18.62,1.4-16-9.6-26.82-15.26-39.66-.46-1-2.43-1.43-3.69-2.13a23.35,23.35,0,0,0-.83,3.62c-1,14.62-2.06,29.24-2.91,43.88-.32,5.6,2.4,10.6,5.54,14.69C617.8,1505.15,622,1502.22,624,1500.63Zm30.36-149.31c-20.58-14.91-39.59-28.71-58.64-42.45a29.68,29.68,0,0,0-4.29-2.16c.37,2,.13,4.49,1.24,5.92,3.43,4.43,7.82,8.13,11.05,12.68C615.73,1342.25,633.25,1348.07,654.36,1351.32Zm-59.56-53c18.39,7.47,34,18.82,51.89,33.54C630.8,1306.31,609,1292.94,594.8,1298.29ZM536.94,1502.4c.75-10-3.43-19-5.34-28.5-.44-2.17-2-4.53-4.71-1.42-13,14.85-16,32.83-15.57,51.61.06,3,2.77,7.39,5.35,8.44,3.42,1.4,7.59.7,11.07-3.06C535,1521.63,537.39,1512.61,536.94,1502.4ZM446.5,1400.58a32.63,32.63,0,0,0-1.51-3.22c-8.52-14.11-18.05-27.25-35.14-31.7-5.2-1.35-11.56-5.72-15.87-.31-3,3.76-1.39,10.18,2.26,13.63a79.05,79.05,0,0,0,47.52,21.78ZM433.64,545.71c8.66-16.93,10.84-35,8.42-53.67-.26-2.05-1.38-5.32-2.68-5.63-3.43-.83-1.55,3.1-2.88,4.55-5.16,5.59-3.09,13-4.42,19.51-3.12,15.16-5,30.56-8,49.31C428.71,553.07,431.64,549.63,433.64,545.71Zm-21.41,1001c10.81-3,31.15-27.89,28.71-40.45,0-9.62-.26-10.06-2.34-8.85-16.64,9.66-31.74,20.8-35.46,41.45C401.86,1545.94,406,1548.41,412.23,1546.67ZM414.2,545c.3-21.56,9.69-40.49,18.29-60.7-24.62,16.77-33.93,51.28-23.6,78.28.58,1.54,2,2.76,3,4.12a21,21,0,0,1,1.05-4.44C415.66,556.63,414.11,550.8,414.2,545ZM393.49,365.31c4.11-4.44,8.35-8.9,3.26-14.72-3.84-4.41-10.81-3.45-14.72-2.34-18.26,5.21-32.5,16.51-42.45,32.94-1.53,2.54-4.11,4.56-5.24,7.23-2.22,5.24,4,.71,3.89,3.26C359.43,388.15,378.65,381.35,393.49,365.31Zm-60.9,309.17c26.52,17.57,51.46,26.67,81.27,15.61C387.19,683.88,361.63,678.3,332.59,674.48Zm-6-12.14,88.19,16.2C389.21,663.53,375.47,649.28,326.56,662.34Zm36.05,779.9c1.73-3.83-3.19-5.49-5.43-7.78-9.6-9.82-22.32-13.61-35-17.27-3.67-1.06-7,.58-9.75,3.36-1.32,1.31-.62,1.82-.17,3.15,6.26,18.38,22.62,18.62,37.15,22C354.11,1443.43,360.05,1447.86,362.61,1442.24Zm-40.32-568c19.91-19.83,35.43-41.18,28.67-73.49C340.75,826.94,331.52,850.61,322.29,874.27Zm25.1-591c3.56-2.69,10.36-9.6,2.75-16.19-8.25-7.13-27.07-3.94-35,3.69A125.59,125.59,0,0,0,289,305.61C310.17,301.3,330.42,296.09,347.39,283.29Zm-19.5,550.63c3.71-11.07,12.13-20.29,13.52-33-11.15,4.77-18,12.84-24.75,21.24-10.36,12.83-12.39,28-13.44,43.53-.16,2.29,1.1,4.71,1.88,7,2.46,7.22,5.12,6.79,7.75.09C317.93,859.87,323.47,847.08,327.89,833.92ZM334.62,1518c.92-2,.52-4.66.73-7-2,.09-4,.26-6,.26-11.38,0-20.8,6.25-30.32,10.89-8.57,4.16-19.25,7.5-22.68,19.25,2.39,4.79,6.56,6.82,11.12,7.45C312.17,1552.26,326.62,1535.65,334.62,1518ZM261.5,568.75c27,22.5,52.74,32.38,84.29,25.26Zm3.63-9.13,73.45,20.2C317.71,559.57,284.38,547.11,265.13,559.62Zm34.76,462.67c.66-1.37.53-3.11.76-4.68-1.42,0-3-.47-4.23,0-14.48,5.25-30.31,6.9-43.48,15.56-6.27,4.13-13.89,8.45-11.63,17.8,1.16,4.79,1.49,12.48,10.55,10.46,5-1,10.74-.79,14.82-3.28C281,1049.39,292.48,1037.61,299.89,1022.29ZM289.26,189.86c2.8-3.14,5-6.36,3.3-10s-5.17-5.95-9.22-4.83c-16,0-35.24,18-38.23,35.3a48.14,48.14,0,0,0-.19,7.12C260,208.73,277.13,203.44,289.26,189.86ZM273.78,763.18c2.25-5.87,2.1-11.16-3.77-13.49-10.68-4.25-20.16.13-26.23,8.65-10.73,15.07-14.59,32-7.8,50.61C249.73,794.55,266.29,782.72,273.78,763.18ZM257.4,484.87c2-.16,3.88-.63,2.93-3.64-2-6.25-6.51-10.18-11.63-13.73C235,458,221.48,447.67,203.19,453.17c-4.35,1.3-10.92,3.15-11.88,6.2-2,6.4,2.07,11.56,8,15.81,13.36,9.6,28.62,9.9,45.47,10.35C247.92,485.38,252.67,485.25,257.4,484.87ZM229.28,957.22c.58-1.09,1-2.27,1.47-3.41a14,14,0,0,0-3.65-.7,186.15,186.15,0,0,0-57.92,13.43c-17.76,7.29-18.06,10.42-4.68,22.93,4.5,4.2,10.3,2.89,15.64,4.42C201.83,989,218.7,977.34,229.28,957.22ZM216.39,397c1.36-3.67-3.27-4.67-5.31-6.79-13.08-13.52-30.19-19.06-47.77-22.85-6.3-1.36-15.87-6-19.35,1.77s4.87,12.7,11.06,17.08c14.25,10.09,30.73,11.5,42.67,12.72,6.47,0,8.32.19,10.13-.05C210.78,398.51,215,400.66,216.39,397ZM185.8,189.18c1.52-6.84-1.45-13.44,1.8-20-1.59-8.77-2.27-17.84-5.09-26.17-1.68-5-.9-13-8.88-13.85-6.84-.72-10.2,4.47-12.26,9.93-5.87,15.6,3.23,42.68,17.16,52C181.58,193.11,183.93,197.62,185.8,189.18ZM168.51,886.5c.76-.84-.25-5-.79-5.07-6.77-1-13.68-2.42-20.4-1.86-12.87,1.07-26,1.88-37.93,7.62-6.45,3.1-15.88,5.06-16,13.56-.11,14.11,13.32,11,21.22,14.86,4.17-1,7.76-2,11.41-2.64C143.78,909.84,156.89,899.3,168.51,886.5Zm5.34-584.65c-2.49-2.25-4.72-4.88-7.5-6.67-10.49-6.74-20.72-14.13-31.92-19.45-6.72-3.19-16.44-8.41-21.8,1.9-4.6,8.85,3.46,13.63,9.57,17.89,10.69,7.45,23.31,8.46,34.78,10,3.12-.48,5.26-.7,7.34-1.18C167.52,303.61,170.68,302.69,173.85,301.85Zm-9,502.9c.19-1.28.37-2.57.54-3.81-1.21-4.56-1.62-9.31-3.65-13.22-8.75-16.87-15.69-35.11-30.2-48.1-4.1-3.66-9.89-13.78-16.69-5.15-5.23,6.65-3.33,16.75-.37,24.47,8.33,21.71,23.45,37.08,46,44.36C161.93,803.77,163.38,804.27,164.83,804.75ZM56,1618.34V61.66l-48-48V1666.34Z"/><path d="M958.94,381c2,10.11-6.54,10.13-11.91,10.6a9.15,9.15,0,0,1-9.9-9.66c.39-7.39,3.6-13.66,12.39-13.82S959.68,373.94,958.94,381Z"/><path d="M937,258.88c9.11.19,15,4.28,14.75,13.59-.2,8.86-8.51,6.88-12.71,8.64-11,.31-11-8.05-11.48-13.78C927.1,263,930.86,258.75,937,258.88Z"/><path d="M945.57,1099.81a9.42,9.42,0,0,1-9.61,10c-8.09.15-13.92-3-13.21-9.94.28-10.05,4.3-13.92,11.34-13.87C942.87,1086.1,945.14,1093.25,945.57,1099.81Z"/><path d="M934.3,459.09c9.08,1.21,10.83,8.64,10.65,16.24-.15,7-6,9.74-11.38,9.4-6.76-.44-11.85-4.55-10.64-12.77C922.58,464,925,457.86,934.3,459.09Z"/><path d="M899.84,159.33c2.47,12.81-5.15,18.69-15.71,19.33-8.92.54-10.79-8.58-11.59-15.36-1-8.23,2.88-15.9,12-15.94C891.36,147.33,898.6,150.69,899.84,159.33Z"/><path d="M879,91.92c7.53.27,12.34,3.78,12.58,13.09-.67,9-7.79,12.74-16.25,13.85-6.52.86-9.86-5-9.62-10C866,100.83,867,91.48,879,91.92Z"/><path d="M834.53,1585.74c.31,7.94-2.47,16.58-12.36,17-6.6.27-14.06-2.91-13.86-11.23.2-8,.14-17.81,12.52-18.4C829.63,1572.8,834.25,1578.37,834.53,1585.74Z"/><path d="M778.83,82.88C787.83,84,789.24,90.62,789,98c-.23,8-2.74,14-13,13-9.9,2.54-11.17-6.89-10.45-11.8C766.58,92.44,766.12,81.27,778.83,82.88Z"/><path d="M760.63,1548.68c1.92,8-.31,14.58-11,14.5-9.25-.08-12.93-5.73-13.19-13.3s2-14.76,11.86-12.85C758,1535.66,759.35,1543.3,760.63,1548.68Z"/><path d="M701.44,102.2c4.95.43,6.29,6.75,6,13.53-.27,5.91-4.77,9.15-10.1,9.1-5.52,0-10.08-3.44-10.27-9.51C686.74,105.16,689.65,101.91,701.44,102.2Z"/><path d="M671,1561.32c8.26-.08,12.3,6.83,11.83,14.61-.51,8.52-5.86,13.62-14.76,13-7.51-.51-11.55-5.26-12.49-9.83C655.32,1565.56,662.55,1561.4,671,1561.32Z"/><path d="M626.41,80.39c7.18-.28,12.91,2.31,12.52,10.73-.34,7.33-4.29,11.84-13,11.95-3.61-1.38-10.25-.94-9.71-7.82C616.67,88.84,616.81,80.77,626.41,80.39Z"/><path d="M601.9,123.32c6.66-.2,14,2.24,13.32,12.07-.94,7.08-3.4,13.21-11.81,13.57-7.59.32-13-3.89-12.14-11.47C591.92,131.47,594.24,123.54,601.9,123.32Z"/><path d="M581.22,1543.25c8-.49,14.87.62,13.86,10.53.7,10.25-6.48,12.64-13.12,12.94s-9.71-4.63-9.13-11.72C573.31,1549.14,573.7,1543.7,581.22,1543.25Z"/><path d="M555.51,174.44c5.87,0,10.78,4.17,9.67,11.88-1.13,5.73-1.65,12.77-9.68,12.51-6.21-.21-12.66-2.37-12.51-10.75C543.13,180,547.9,174.49,555.51,174.44Z"/><path d="M559.85,95.25c.75,9-2.29,15.28-11.59,13.83-9.14.38-11.32-4.47-11.26-10.82.09-8.33,5-11.2,12.91-11.46C556.31,86.58,559.4,89.68,559.85,95.25Z"/><path d="M519.64,1589.14c8,.17,16.31,1.91,15.44,12.52.44,8-4,13-10,12.91-5.71-.06-15.94,1.16-14-10.24C512.13,1598.58,508.78,1588.92,519.64,1589.14Z"/><path d="M517.52,142.62c-2,7-7,11.56-14,12.16-5.56.48-9.79-2.4-9.64-9.67.21-9.81,4.72-14.18,14.25-14.2C516,130.9,516.12,136.85,517.52,142.62Z"/><path d="M476.08,231.64c4.22-.4,12.43,2.14,10.91,10.8.37,10.82-6,13.91-15.28,13.1-5.11-.46-9.34-3-8.66-8.92C463.94,238.85,468.81,232.34,476.08,231.64Z"/><path d="M483.12,93c.08,9.27-4.65,12.26-11.52,12.36-7.8.11-12.09-4.39-12.57-11.94-.51-7.81,4.54-10.27,11.44-10.51C478.56,82.62,482.27,86.93,483.12,93Z"/><path d="M466.57,176.85c6.92,1.32,13.26,3.13,12.34,11.37-.69,6.18-3.09,13-10.66,12.49-5-.31-12.1-2-11.14-9.79C457.85,184.85,459.12,178.25,466.57,176.85Z"/><path d="M475.48,724.29s0,.1,0,.16A.62.62,0,0,1,475.48,724.29Z"/><path d="M437.72,256.76c.12,6.42-3.58,11.17-11.43,10.34s-8.77-7.1-9.12-12.56c-.4-6.3,2.93-10.6,10.5-9.56C437,243.43,437.62,251.08,437.72,256.76Z"/><path d="M435,138.67c.17,6-3.23,8.86-7.53,8.53-9.06-.14-14.38-3.68-14.19-10.95.14-5.52,4.37-9.56,10.86-9.39C431.79,127.07,434.8,131.83,435,138.67Z"/><path d="M393.2,102.84c1.11,10.17-7,10.06-12.79,10.54a8.51,8.51,0,0,1-9.18-9.53c.69-6.22,2.44-13.18,11.43-12.93C390.65,91.13,392.61,96.38,393.2,102.84Z"/><path d="M371,165.23c7.45.27,9.51,6.7,10.29,13-.55,6.11-1.46,11-9.18,11-8.5-.07-12.76-5.06-12.52-12.34C359.79,170.78,364.24,165,371,165.23Z"/><path d="M321.27,67.65c6.84,0,7.51,8.16,8.44,15.14-.76,4.7-3.63,9.79-9.62,10s-12.47-3.28-13.45-9.3C305,73.28,312.48,67.6,321.27,67.65Z"/><path d="M265.51,94c1.38,9.18-4.37,14.17-12.34,13.7-9-.53-8.35-9.68-9.85-13.33C242.06,82.46,248.05,83,254.37,82.8,262.57,82.52,264.59,87.91,265.51,94Z"/><path d="M220.68,1416.26c9.17-.09,14,6.58,12.94,15-1,7.83-8.26,9.54-16.9,10-6.72.55-7.58-6-7.48-11.14C209.38,1423.2,212.64,1416.34,220.68,1416.26Z"/><path d="M227.75,596.2c.74,7.73-1.71,14.26-11.24,12.8-11.81,1.36-11-7.51-11.8-14.08-.65-5.44,1.6-10,8.49-10C221,584.94,227,588.15,227.75,596.2Z"/><path d="M212.4,1535.6c5-.24,14,.59,12.67,10.42-1,7.2-2.16,15.12-11.88,14.87-6.9-.18-12.26-3.52-12.41-12.67C201.43,1541.79,205.94,1535.91,212.4,1535.6Z"/><path d="M184.71,1494.48c0,5.1-2.27,11.56-8.84,11.24-5.51-.27-14.06.92-13.07-9.31-1.94-10.81,7.27-11.91,13.13-12.84C181.36,1482.71,184.7,1489.43,184.71,1494.48Z"/><path d="M182.65,637.85c1.7,14.94-3.07,20.73-13.46,20-8.4-.59-9.31-8.69-9.95-14.68-1-9,5.53-12.35,13.48-12.11A10.59,10.59,0,0,1,182.65,637.85Z"/><path d="M148.77,1572.55c1,9.21-3.51,15.13-12.82,15.59-8.19.4-12.17-4.93-13.48-12.79,1.8-5.77,1.7-13.77,9.83-13.31C138.86,1562.41,147.71,1562.69,148.77,1572.55Z"/><path d="M128.46,480.12c7.52-.33,15.56.15,14.66,11.54-.63,8.07-3.58,13-12.7,11.24-8.88,1.81-11.36-3.41-11.44-10.8C118.91,485.66,121.67,480.41,128.46,480.12Z"/><path d="M134.93,1053.68c.42,9.32-2.26,17.25-13.41,18-8,.5-9.67-6.14-10.41-11.87-1.25-9.66,4-14.49,15.53-15.19C131.46,1043.86,134.66,1047.75,134.93,1053.68Z"/><path d="M125.7,1330c.55,9-8.84,10.38-13.79,10.34-7.6-.06-9.43-7.6-8.93-15.2-.74-6.78,1.32-11,9.84-10.49C123,1315.25,125.23,1322.53,125.7,1330Z"/><path d="M110.93,535.42c7.72.12,16,2.94,14.32,12.72-.28,8.07-2,13.39-10.17,12.91s-12.39-5.4-11.82-13C103.63,543,104.64,535.33,110.93,535.42Z"/><path d="M116,1442c5.92-.55,9.52,5.31,8.44,8-2.31,5.76-.38,16.31-12.14,15.2-8.39-.42-8.76-7.79-9-13.06C102.89,1444.39,109.52,1442.58,116,1442Z"/><path d="M113.74,640.69c7.75-.24,8.74,6,8,9.39-1.13,5.29-.57,13.7-10.55,13.1-7.19-.43-10.46-3.62-10.34-12.43C101.78,644.86,105.27,640.94,113.74,640.69Z"/><path d="M110.72,172.17c.28,8.67-6.52,12.75-14.38,12.65-6.48-.08-8.1-5.43-7.68-13.72.72-5.86,1.4-14.78,12.72-13.93C109.84,157.8,110.54,166.23,110.72,172.17Z"/><path d="M109,431c-1,6,.56,13.58-7.37,13.69s-15.7-1.65-15-13.73c.71-11.47,10-7.43,15.16-9.31C104.71,420.62,108.13,426.76,109,431Z"/><path d="M107.1,1532.61c1,4.58-7.16,8.47-13.67,8.43-6.94,0-13.28-2.66-13-10.18.29-7.2-.64-17.5,12.56-15.77C107.08,1512.67,105.53,1525.74,107.1,1532.61Z"/><path d="M97.06,352.69c1.14,10-7.11,11.6-13.24,11.95-7.42.42-7.36-7.58-7.46-12.52-.11-5.74,2.27-12.73,9.12-12.82C93,339.21,97.74,344.28,97.06,352.69Z"/><path d="M82.08,69.23C87,69.61,96,68.05,95,77.76c.39,9-3.25,15.27-11.84,14.92C76,92.39,71.32,86.53,71.1,79,70.9,72.13,77.07,68.83,82.08,69.23Z"/></svg>