<svg xmlns="http://www.w3.org/2000/svg" xmlns:xlink="http://www.w3.org/1999/xlink" viewBox="0 0 976 1600"><defs><style>.cls-1{fill:none;}.cls-2{fill:#f4f3ef;}.cls-3{clip-path:url(#clip-path);}.cls-4{fill:#6060bf;}.cls-5{fill:#50b271;}.cls-6{fill:#ffb85a;}.cls-7{fill:#d81e1e;}.cls-8{fill:#592116;}.cls-9{fill:#992d17;}</style><clipPath id="clip-path"><path class="cls-1" d="M960,22V1578a6,6,0,0,1-6,6H22a6,6,0,0,1-6-6V22a6,6,0,0,1,6-6H954A6,6,0,0,1,960,22Z"/></clipPath></defs><g id="Paper_Backing" data-name="Paper Backing"><path class="cls-2" d="M960,22V1578a6,6,0,0,1-6,6H22a6,6,0,0,1-6-6V22a6,6,0,0,1,6-6H954A6,6,0,0,1,960,22Z"/></g><g id="Wikipedia_Cropped" data-name="Wikipedia Cropped"><g class="cls-3"><path class="cls-4" d="M592.77,1448.8c-30.66-2.08-4.81-72.93,8.59-79.44C620.39,1385.4,626.16,1440.65,592.77,1448.8Zm114.26-41c-18.52,1.5-72.24-59-54.35-71.28C678.86,1334.69,753.25,1389.23,707,1407.78Zm-217.74-40.16c-29.05-.25-27.13-31.76-5.52-36.17,12.55-6.41,74.8-11.07,63.33,10.12C531.92,1354.34,512.16,1367.25,489.29,1367.62ZM294.82,1333.5c-16-4.64-41.57.17-43.41-19.7-7.31-2.1-5.45-3.14,1.62-5.23,31.47-7.65,55.44,22.42,58.51,8.14-1.82-16.61,40.89-60.28,39.44-29.78-6.46,13.1-16.9,41.38-37.07,41.12-4.56-3.49-7.57,1.41-11,3.47h0C302.31,1331.61,296.3,1333.42,294.82,1333.5Zm426.55-22.33c-28.11-5.87-48.49-37-56-61C683.85,1234.14,763.8,1297.56,721.37,1311.17Zm33.32-53.55c-32.13-10.15-1.34-70.09,15.15-84.29C789.19,1191.52,785.39,1251.9,754.69,1257.62Zm-260.17-.84c-55.78-9.52-21.47-43.54,17.11-40.84,16.71-1.93,62.82,12.32,27.12,27.28C525,1252.47,510.27,1254.85,494.52,1256.78ZM870.15,1215c-25.17-6-48.28-32.3-49-58.19C839.61,1147.51,906,1203,870.15,1215ZM703,1179.19c-88.25-4.38,30.93-58.79,42-20.74C746.4,1178,717,1179.55,703,1179.19Zm-152-22.33c-24.81,1.55-74.23-32.61-34.32-43C534.1,1114.78,597.31,1156,551,1156.86ZM893.55,1123c-30.08-6.45-39.8-26-51.71-46.83C833.46,1036.41,938.9,1107.36,893.55,1123Zm19.21-100.69c-27-9.1-54.18-43-46.61-67.55C895.25,951,954.59,1006,912.76,1022.35Z"/><path class="cls-5" d="M235.58,1214.13c-29.64-8.71-.59-45.46,12-60.67C278.35,1151.89,258.55,1207.39,235.58,1214.13ZM84,1196.06c-9.9.24-3.95-6.53-17.42-9.52,2.31-19.3,46.36-40.45,62.48-27.28C138.43,1180.09,104.61,1194.24,84,1196.06Zm84.23-127.49c-37.16-6.9,6.25-46.38,28.41-49.82,5.32,1.5,12-9.52,14.3-.2C210.49,1047.06,190.17,1061.17,168.22,1068.57Zm538.71-11.32c-32.17-23.3,16.91-75.38,48.93-74.31,11.84-.34,13,3.5,7.17,12.61C774.62,1023.92,733.37,1050.19,706.93,1057.25Zm-594.28-24.33c-19.91-13.38,2-71.17,23.84-74.47C159.17,979,144,1032.53,112.65,1032.92ZM905.93,858.37c-20.58-1.2-47.88-44.84-40.06-64.79,11,2.7,5.83,3.92,17.71-.48C903.67,799.21,935,850.79,905.93,858.37Zm-147.46-74c-13.22,1-16.15-9.31-27-10.85,8.93-30.3,50.54-38.47,76-24.47a4,4,0,0,1-.3,7.31C801.27,773.05,782.16,783.75,758.47,784.32Zm171.72-35.38c-28.56-3.35-58.44-74.72-27.12-83.58C936.7,677,946.46,709,946,738.3a4.32,4.32,0,0,1-4,3.32C936.13,741.45,936.55,750.19,930.19,748.94Zm-174.86-72c-67.86-4.06-19-49,22-46.13,8.64.8,47.22.49,36.51,15-4.11.9-9.2,2.79-8.2,8C798.47,667.21,776.28,675.72,755.33,676.9Zm54.32-92c-8.07-1.43-27.19.93-32.63-8.69,3.47-4.78-2.12-8.86.2-13.25,14.19-22.36,83.48-34.86,82.55,2C844.33,578.37,827.94,584.88,809.65,584.88Zm-539.14-198c-21.25-21.72-27.3-57.42-13.57-81.7,8.62-3.83,5.28,9.43,19.09,4.16C292,316.53,297,388.7,270.51,386.89Zm-71.44-78.41c-37-7,4.71-58.49,26.55-63C251.8,259.53,223,303.16,199.07,308.48Zm152.33-14.2c-27.5-.32-62.31-18.63-60-46.92,3.49-1.48,8.59-1.11,8.88-6.32,7.75-9.36,22.89,1.38,34.68,8.84,17.29,11.51,15.78,20.79,18.34,33.71C357.93,287.07,358.06,294,351.4,294.28Zm421.94-29.37C739.17,247.6,779,163.14,818.12,164.49c10.72,3.19-4.48,10.5-1.66,16.46C839,203.81,799.9,256.19,773.34,264.91Zm118.32-5.84c-9.07-4.11,2.1-5.29-14.32-11.48-13.6-29-20.35-77.81,10.67-92.85C918,171.49,914.62,239.78,891.66,259.07ZM157.12,202.4c-31-10.91,14.21-57.59,33.62-61.07C220.33,159.35,179.5,200.77,157.12,202.4ZM339,200.83c-21.92-1.36-41.17-9-53.93-24.72,7.66-37.94,48.33-13.05,65.79,8.21,7.89,5.54.81,8.4-2.48,13.32C347.14,201.61,342.15,200.57,339,200.83Zm430.7-69.49c-17.89-.53-56.09-8.3-62.3-26.49C748.65,45.06,903.7,116.46,769.65,131.34Zm-454-28.6c-21.05,0-41.15-8.57-53.77-22.94-8.93-37.18,67.5-20.11,67.68,6.17C357.93,93.9,333.88,102.85,315.62,102.74Z"/><path class="cls-6" d="M389.47,908.43C247.9,910.67,356.13,851.16,377.16,789c3.27-11.47-10.71-18.74-7.62-28.7,3.16-4.24-.74-10.47-5.86-9.5-47,7.63-104,13.89-145.87-8.12-18.42-17.2-24.64,9.13-49.08,1.2-4.24-.25-6.08,4.22-6.52,7.77-16.53,7.08-40.3,14.41-58.74,22.92-19.46-6.95,36.59-43.32,43-49.89,20.45-3.1,10-14.29,37.71-18.11,1.12-16.36,8.7-31.73,23.37-40.17,57.06-40,121.36-59.4,185.32-82.65,6.32,1.39,17.24,13.44,17.69-1-30.57-72.7-116.26-31.28-59.14-147,1.82-7.82,11.5-9.07,16.09-15.07-.76-17.41,16.84-31.52,25.63-46.52,38.33-49.16,87.63-93.35,141.14-129.19,5-6,12.54-10.43,20.46-4.33,14.49-4.89,24.12-25.31,39.68-25.87,9.82-.59,10.22,2.22,16.06,7,18.09-5.82,31.18-22.69,49.09-28.26,29.28,10,13.35-1.49,37.73-4.88,33.57.93-8.76,28.22-17.37,37.79-.09-.1-142.79,119.3-147.64,157.18,6.83,12.91-18,25.41-6.39,36.15,1.17,2.5,3.14,4.44,1.9,9.08-15.15,20.89,12.46,23.73,3.86,44.77-3.39,5.18-9.39,15.29.86,16.47,51.9-4.07,57.59,58.92,81,14.78,34.94-62.23,81.57-113.38,117.1-177.78,15.77-39,18.07,53.46,15.42,61.3,6.48,12.09,4.87,47.66,14.09,47.26,37.53,2.18,75.62,21.76,113.46,32.94,14.25,7.95-43.11,21.53-48.43,28-66.27,31.87-134.75,60.31-200.78,92.33-4.42,23.27-18.51,46.62-39.83,68.29-27.39,27.49-72.45,53.62-111.29,68.46-7.95,3.21-1.66,13.91,4.74,14.24,6.55-1.82,13.69-5.33,20.56-4.87,8.68,0,28.06,7.76,23.58,16.23-1.07,2.93-4.34,4.94-3.45,8.42,2.23,5.92,12.36,8.28,9.46,16-1.67,8.63,11.2,9.87,11.43,19.36,10.35,13.85,48.94-9.4,64.46,9.7,1.07,3.8,2.85,8.53,7.83,7.52,17.65-3.44,38.92-5.17,60.4-7.74,13.6,6.64,1.16,11,26.71,8.84,52.6,14-82.77,52.25-99,53.51-31,6.06-65.4,22.78-95.92,17-33.76,16-76.55,19.52-114.63,24.58Z"/><path class="cls-7" d="M464.09,973.3c-83.29-.8-161.25-35.26-223.74-83.86-19.84-14.68-127.83-119.93-89.92-132.5,19.45-5.18,46.78-25.66,67.11-10,24.37,17.14,61.28,17.07,91,17.82,23.94-2,61.73-10.32,59.53,28.35-31.12,58-122.33,113.65,8.43,118.49,45.78,1.8,509.33-86.19,274.32-112-59,13.9-48.79-12.54-97.57-1.4-8.89,3.71-10.93-3.51-14.8-11.66-10.45-4.17-9.55-13.6,2.67-11.28,120.18,7.41,227-54.67,317.78-106.81-32.07,181.9-210.85,311.4-394.85,304.87ZM780.44,740c-8.82-.21-20.51,3.51-31.22,9.07C656.2,824.65,894.31,764.38,780.44,740Zm-652.62-4.53C77,641.25,88.66,504.54,136.75,413c0-5,5.06-13.06,8.85-5.2,10.5,48.25,32.15,113.78,56.89,156.92,10.11,18.11,22.72,39.09,39.67,57.38,10.27,7.89,5.27,18.42-3.6,21.37C213.35,656.61,195,669.18,184,688.22c-6.71,26.62-35.86,25.42-50.77,43.93C132.48,732.62,129.6,735.75,127.82,735.44Z"/><path class="cls-8" d="M318.08,657.18c21.53-17.37,49.33-22.5,73.77-33.92a2.62,2.62,0,0,1,3.94,2.36c-.39,3.28.9,7.86-3.5,9.32-23.38,7.74-47,14.85-68.42,27.49-1.31.77-3.18.6-4,.73C308.62,662.93,316.82,658.8,318.08,657.18Zm38.81,3.49c-8,4.06-17.35,6.56-22.72,15.35,21.36-5.83,40.59-15.89,60.52-24.12,2.45-1,9.17-.65,7.49-5.85-2.38-7.37-8-1.61-11-.48A332.69,332.69,0,0,0,356.89,660.67Zm-106.57,30.4c10.8-10.13,22.84-17.85,37.11-22.31,3.48-1.09,9.22-2.34,9.12-6.84-.09-4.16-4.24-6.36-5.88-5.78-22.18,2.48-37.25,11-48.6,26.62-2.65,3.63-5,6.76-1.66,10.53C244.49,697.85,247.77,693.47,250.32,691.07ZM971.08,55.71a742.71,742.71,0,0,0-85.18,63.63c6.34,23.13-5.95,22.6,12,35.35,23.77,29.82,22.86,88.93-5.44,114.94-7.53,4.88-11.46-5.55-15.28-10.29-19.26-24.26-22.78-57.73-11.54-86.6,7-14.53,22.81-28.08,14-45.58-14.5,10.3-25.11,25.45-39.55,36.26-21.08,20.63.58,49.67-36.1,87.84-10.92,13.59-51,37.9-48.58,5.11-.84-18.66-3.48-38.2,5.8-55.42,11.36-21,28.39-38.22,53.13-39.23,18.25-.75,20.9-17.12,32.58-23.83,7.54-4.33,13.17-12,19.81-18.31-26.1-4.4-34.79-8.47-57.75,8.38-29.74,15.42-65.85,10.16-94.1-6-5.58-3.1-13.28-9-13.47-13.91-.49-13.13,11.83-18.64,21.08-25,33.61-19.15,85.26-6.43,111.23,21.34,5.76,6.16,14.56,1.46,21.62,4.15,15.52,5.63,26.79-2.56,38.31-12.85C897.39,89.72,989.31,24.37,971.08,55.71ZM815.62,115.39c-32.69-4.63-63.51-1.2-96.22-2.58C751.72,131.19,782.47,132.23,815.62,115.39Zm6.54-9.87c-27.57-21.06-82.43-33.47-111.73,1.88C748.78,100.76,783.28,100.84,822.16,105.52Zm-4.19,63c-28.31-1-62.43,53.6-51.85,81.35C776.81,218.76,796.65,193.48,818,168.49Zm2,20.31a382.89,382.89,0,0,0-48.42,71.76C797.22,255.44,820.05,214.28,820,188.8Zm61.34-28.26c-15.73,30.64-13.93,57.35-.4,85.3C881.1,217.89,876.73,191.22,881.34,160.54Zm10.32,94.53c17.76-23.3,19-74.83-2.17-96.61C887.75,191.22,890.22,222.94,891.66,255.07ZM378.8,621c3.13-1.08,7.3-2.1,7.37-6.24-3.71-11.67-59.55,14.88-68.58,25.29C340,635.53,357.47,627.57,378.8,621Zm215.27-33.32c41.22-16.25,80.17-38.59,119.86-58.41,33.3-16.46,67.53-31.11,100.27-48.7,3.31-.78,9.59-8.85,2.36-9.31C740.15,503.4,666.21,541.5,591.85,578.14,583.92,581.16,586.09,587.33,594.07,587.65Zm-456.49-391c1.47-26.16,25.85-52,49.91-60.44,12.21-3.73,19.52-11.09,26.9-20.85,7.81-10.33.67-18.2-2-25.89C203,62.7,191.74,36.62,177.49,12c-1.63-2.8.07-6,1.73-6.22,12.47-2.9,24.43,33,29.42,42.62,2.69,6.6,7.36,8,12.41,8.18,11.22.3,21.33,4.7,32,6.62,1.61.28,4,.49,4.94-.4,31.19-26.57,74.32,3.83,91.32,32,3.05,4.11-6.77,9.72-12.45,12.12-26.35,11.16-64.75-1.74-79-23-10.58-15.84-25.27-15.05-39.23-19.51-1.68-.4-2.46,3.13-1.24,5.32C229.8,91.32,234,115.69,241.2,139c1.2,3.89,3,5.64,6.84,6.91,14.2,3.84,27.42,15.1,42.49,8.56,29.4-8.42,54.87,7.7,68.7,33.71,2.52,3,6.22,5.8,4.54,10.17-3.41,8.86-11,11.54-19.55,10.48-26.65-1.63-54.93-12.76-67.56-38.19-3-6.21-11-6.23-17.29-8.18-4-1.25-6.81-5.47-11.6-5.29a319.52,319.52,0,0,0,12,58.51c2.37,5.62,12.23,7.36,16.68,11.32,9.45,7.63,19.95,3.9,30.14,3.91,28.57,1.54,52.23,32.26,59.1,58.05,3.78,10.22-3,11.45-8.84,11.85-28.49,1.94-49.77-10.2-65.87-33.66a62.23,62.23,0,0,1-10.25-23.45c-1.07-5.28-7.22-5.72-10.91-8.56-2.64-2-5.58-3.68-7.32-4.82,3.85,22.63.66,56.3,17.06,74.55,33.23,22.85,5.92,125.42-16.2,87.78-11-17.87-22.42-36.15-20-58,1.47-13.34,1.84-28.05,13.33-38.59,3.52-3.23.49-8,0-11.85-1.53-12.27-3.87-24.43-5.71-36.66-.47-3.13-1.17-8.94-3.16-7.76-19.05,11.29,12.19,37.95-36.53,69.16-65.88,43.37-29.72-63.12,9.19-65.13,11.62-1.85,18.7-6.56,24.18-14.55,7.16-10.41-.89-21-2.63-31.37-2.29-13.74-5.84-27.28-9.19-40.82-2.49-10-5.46-19.92-8.44-29.8-8.2-8-14.81,21.73-14.5,26.56.19,8.65-4.7,16.75-8.86,24.64-11.33,21.5-31.69,29.27-53.17,34.1C134.81,215.61,137.66,202.15,137.58,196.61Zm65.58,82.89c8-9.9,16.72-19.25,24.1-29.66-17.2,1.16-40.35,32-39.55,50C193,292.79,197.94,286,203.16,279.5Zm29.18-20.28c-12.16,15.06-24.87,28.8-35.08,45C214.7,302.46,234.25,275,232.34,259.22Zm42.22,53.85c1.73,22.27,3.47,44.68,5.29,68.27C287.92,353,284.77,317.11,274.56,313.07Zm29.69-71.3c16.05,9.46,30.2,20,44.53,31.92C347.19,260.31,317.88,239.49,304.25,241.77ZM293.84,253c10.49,23.55,30.8,38.59,59.05,36.66-15.22-14.67-35.06-25-52.08-37.83-1.77-1.21-4.57-.91-6.89-1.31C293.88,251.3,293.54,252.27,293.84,253Zm-34.2,55.2c-.82.78-2.19,1.47-2.36,2.37-7.11,25.54-2.3,50.09,13.23,72.37-3.31-23.53-8.4-44.62-7.78-68.17C262.79,312.56,260.72,310.34,259.64,308.15Zm34.85-146.44,56.15,28.18C334.13,172.92,320.21,156.68,294.49,161.71Zm-3.11,16.21c15.25,12,32.15,20.29,53.1,18.64C340.23,195.7,275.59,162.18,291.38,177.92Zm-26-111.51c20.12,5.34,39.33,11.4,59.4,14C313.06,65.46,282.45,58,265.34,66.41Zm-.49,10.75c20.61,23.45,57.89,26,74.46,16.2C314.71,90.2,291.19,84.28,264.85,77.16Zm-66.7,77.64c-13.5,15.19-26.2,30.79-42.27,43.53C171,200,200.61,169.51,198.15,154.8Zm-48.31,36.55c14.39-14.91,29.29-28.85,41.27-46C177.42,146.57,147.54,179.81,149.84,191.35Zm811,268.82c-24.3,37.55-42.65,78.48-59,120-7.81,18.2-16.13,36.27-20.66,55.69-1.29,5.5,15.56,25.07,21.15,25.12,35.62,3.71,59.61,56.2,46.86,89.65-5,12.38-13.85,4.9-20,3.51-29.49-6.6-36.8-30.68-42.32-56-7-30.38,11-19.94-8.67-47.62-9.48,33.6-16.26,63.67-25.58,96.17-3.26,9.86,5,14.2,7.95,21,1.19,2.72,4.32,4.65,5.31,7.4,12.54,23.89,42.82.75,57.45,65.12,11.61,53.81-77.57,6.43-63.51-45.45,1.7-12-6.19-16.86-9-25.2-.14-.42-1.15-.55-1.75-.81-1.31,3-3.5,5.91-3.79,9-6.92,42.51-14.84,84.63-23.64,126.95-.69,2.3,4.3,6.6,7.08,9.58,9.61,10.29,19.64,20.18,29,30.65,6.67,7.45,15.72,3.3,23.51,5.62,20.7,6.19,53.53,29.2,54.78,55.84.4,8.41-.68,18.11-10.06,22.33-26.84,12.67-65.59-32.89-67.58-56.8,0-15-10.08-23.76-20-32.45-6.82-6-10.35-15-18.65-19.45-3.83,18.26-8.35,36.4-11.06,55-1.81,12.44-1.7,25.39-7,37.54-1.86,4.31-2.87,10.84,4.91,15.68,8.54,5.3,15.37,14.07,21.43,22.43,7.08,9.78,17.42,9.11,26.89,10,23.59,2.33,52.4,24.77,57.8,47.26,2,15.39-15.8,27.88-30.17,20.48-27.45-11.17-40.9-33.11-50.17-59.87-5-11.68-20.35-19.8-28.91-29.87-4.17-5.2-5.62-1.6-6.16,1.86-4,21.53-5.11,43.9-10.27,65.08-5,9.89,2.34,14.62,7.89,20.23,24.2,26.49,16.64,20.71,49.42,28.87,19.65,9.79,41.31,25.8,44.73,52.06,1.36,10.41-15.18,21.26-25.89,15.7-21.5-11.18-38.45-26.86-46.42-51-4.71-14.29-13.16-26.58-26.64-34.53-6.85-4-4.93-3.08-9,5.49-4.13,8.75-4.55,17.34-4.72,26.09-.2,10.24,9.06,17.58,10,28,4.35,25-6.2,80.57-41.59,65-11.48-6.77-10-19.22-8.5-31.5,1.77-23,14.51-41.29,27-59.63,2.16-3,4-6.22,3.64-10.16-.28-27.52,5.71-54.26,9.91-81.23,3.5-32.46,9.73-64.78,14.17-97-14.06,3.29-15.48,17.39-20,29-33.4,76.46-63.55,19.44-103.14,95.34-13.45,17.63-16.83,40.3-26.49,59.94-.27.55.73,1.72,1.14,2.6,3.77-3.67,8.79-1.84,13.13-2.65,13.79-2.59,20.15-17.55,33.39-19.87,16.73-2.94,32.44-14.22,50.77-5.78,9.44,4.35,15.42,11.2,14.92,20.87-8.18,33.23-66.34,30.81-89.67,14.58-5.91-3.36-11.45,1.39-17.21,2-20,2.24-15.12,19.89-18.4,31.77-4.95,17.93,13.77,15.77,21.34,23.26,13.57,13.44,33.44,7,48.21,16.71,19.91,12.1,57.31,38.31,37.59,64.56-34.34,22.56-70.24-38.12-80.22-65.13-2.33-5.69-12.92-7.67-19.1-12.18-15.78-11.51-14.51,2.26-16.05,10.81-3,16.83-4.48,34-8.43,50.58-3,12.38,6,16.08,12.56,21.3s13.87,10.46,21.71,12.79c9.25,2.75,19.49.44,29.11,4.23,25.55,7.32,76.74,51.68,43.71,75.87-30.48,17.92-72.4-43.55-77.65-69.75-1.65-5.18-12.82-9.42-19.23-12.58-4.44-2.67-7.54-7.53-13.29-8-.65,12.47-2.25,24.87-3.46,37.29-.16,2-.08,4.68,1.09,5.93,25.23,26.3,25.33,86.67-18.15,91.79-10.38-1.3-20.28-17.8-17.38-27.86,2.84-9.86,1.07-20.81,5.16-30.71,4-9.62,6.58-20,13.62-28,8.14-9.36,4.4-20.62,5.38-31.12.57-6,.91-12.07,1.38-18.5-32.95,13-37.27,9.89-61.65,36.68-20.56,15.54-73,30.22-76.65-7.22,1.33-36.16,66.92-36.81,91.65-24.47,5,2.2,9.46-2.69,14.12-4.39,7-2.56,13.54-6.14,21.4-7,17.37-1.85,13.42-17.11,14.29-27.34,2.32-23,8.48-45,10.62-68-16.64,4.46-34.22,7.8-50.66,14.13-10.14,3.91-18.92,11.89-27.56,19-10.29,8.41-43.67,13.28-55.92,7.92-25.9-8.7-28.24-37.4-.78-45.11,63.3-23.1,51.61,16.73,116.29-1.34,19.75-2.9,21.63.63,26.46-20.67a138.86,138.86,0,0,0,6.47-19.2c1.26-4.88-4.07-4.33-6.09-4.71-15.47-2.92-30.45-7.44-45.52-11.92-7.68-2.29-15.54,4.14-24.22,3.93-20.22-.51-36.87-7.51-50.41-22.54-16.14-16.41,8.1-38.35,25.43-31,18.26,4.84,33.63,16.45,44.42,31.09,13.15,17.83,33.32,12.77,49.46,20,3.13,1.4,6.59,2.07,10.13,3.14a390.4,390.4,0,0,1,22.54-56.47c2.12-4.34-2.84-6.43-5-8.22-30.55-26.68-53.62-23.47-89.92-11.82-91.16,23.48-85.42-19.52-124.63.23-35.53,15.82-70.92,3.27-106.18-6-7-1-11.18,7.48-16.85,11.41-16.89,11.7-48.83,43.15-41.68,65,13.91,37.4-37.79,92.81-48.26,56.9-6.21-24.34,5.85-41.25,20.77-57.33,16.77-10.11,17.12-8.93,25.19-28,.38-.79-2.21,0-3.41.79-17.4,11.8-36.86,17.43-57.33,20.14-2.52.24-7.39.61-8.39,2.87-8.94,61.37-81.72,90.89-76.33,157.5-3.48,77.42,92.77,162.28,160,98.66,21.68-18.43,30.35-37.37,28.28-65.66-1.08-12.18-11.57-2.2-17.41-3.11-17.3-2.69-35.41-2.83-48.94-16.76-4.18-4.3-8-8.42-3.88-14.46,5.45-8,14.39-4.53,21.66-5.44,43.46-5.86,47,26.82,49.75,3,3.45-17.55,30.88-45.63,48.11-32.83,5.45,5.37,3.33,13.68,0,19.22-6.89,11.63-11.74,24.9-23.06,33.49-13.71,11.23-20.68,7.86-15.15,27.88,2.31,34.35-22.39,62-50.32,78.39-76.64,43.34-166.34-43.23-162.49-121.86-2-74.35,54.7-94,74.51-148.5.82-3.16,4.07-6.58,1.35-10.15-3.05-4-6.23-.87-9.61,0-5.21,1.39-9.4-3.41-16.15-.66-10.92,4.44-16.36,11.54-20.78,21.52-11.14,23.62-45.87,34.41-70.34,27.69C54,1196.5,56,1190,59.17,1183.71c14.77-28.77,40.78-36,69.77-32,10,1.35,11.25-4.85,21.6-8-33.82-21.06-44.48-64.41-39.79-102.15.33-4.55-6-4.22-8.1-8.48-7.14-14.72-4.68-28.79.29-43.19,4.11-18.7,40.19-58.32,48.42-21.43,10.87,75.15-51.17,48.05-24,132,6.42-7.93,12.8-15.64,19-23.5,5.29-9.33-10.7-9.59,6.86-35.42,6.69-14.14,49.3-43.49,61.07-24.29,4.67,7.83,1.69,16.45-2.82,23.77-12.25,19.9-29,32.34-53.16,35.72-2.35.33-4.47,2.29-6.49,4.91-2.83,4.29-6.73,9.36-8.87,13.71-5.81,6.81-14.66,12.74-4.94,23.13,9.37,11,22.27,24.27,37.78,22.85,8.47-.39,9.71-5.68,9.77-19.1,3.58-49.34,65.7-69.07,108.09-61.06,54.58,10.88,51.56-12.9,100.72-8.06,18,.56,34.68,6.77,51.75,11.64,9.24,2.64,16.5-5.83,24.82-8.78,62.34-27.36,135.56-8.16,185.7,35.59,2,1.75,2.91,1.66,4.17-.41,6.85-11.26,14.48-21.83,24-31.17,6.51-6.42,1.4-15.34,2.72-23.12,5.73-37.94,48.48-67,85.77-58.39,3.08.21,21.28-14,21.65-16.34,9.75-59.06,21.44-118.28,33.69-176.59-140,238.3-465.23,264.82-646.68,59.36-12-15.08-24.59-29.58-34.06-46.78-5-9-10.09-18.81-17.31-26.18-5.77-4.25-17.63,4.77-24.76,6.7-6.23,1.67-15.59,10.81-20.39,4.27-2-14.7,17.81-28.38,27.11-37.92,4.4-3.91,4.33-7,2-11.4-29.19-69.7-39.2-148.32-22.32-222.44,8.87-41.51,21.84-82.42,42.92-119.47,3.43-4.05,10.24-19.23,16.09-16.51,2.38,1.28,5.71,3.94,5.69,6a196.84,196.84,0,0,0,4.23,42.53c6,34,18.29,67.05,32.27,98.5,15.64,36.32,38.43,68.91,63.35,99.71,7.88,9.18,13.24,2.09,18.2-.55C310.15,603.83,348,593,384.92,580c6.38-1.75,3-4.4,1-7.08-10.94-14-27.1-20.19-42.28-27.69C254.2,492.51,406,336.94,451.81,293.55c37.47-28.9,109.87-104.61,158.84-88.56,11.92,5.62,18.82-4.4,26-9.43,22.54-14.42,57.86-24.43,81.27-8.85,13.68,6.41-30.68,40.95-36.11,47.23-41.45,38.83-86,74.12-123.81,116.4-5.07,6.88-10,14.26-15.72,20.91-3.07,3.61-5.85,6.8-4.07,13.62,3.25,10.63-5,20.92-10.59,29.65,12.06,12.42,3.33,22.71-2.81,33.35,17.36,4.78,18.19,24.61,6.43,38.6,13-1.39,26.56-1.13,36.43,7.18,9.44,7.24,17.21,16.69,28.56,21.58.78.34,1.07,1.78,1.32,2.24,11.49-17.66,24.28-34.64,34.23-53.15,32.22-57.58,76.11-107.4,105.42-166.64.55-1,3.32-2,3.67-1.64,2.24,2.3,5.45,4.78,5.85,7.56,3.59,34.48,8.35,68.84,13.65,103.13,1.7,13.14-1.11,26.26,16.4,26,10.12,0,19.59,3.07,28.61,6.45,16.13,6,33.12,9.41,48.87,16.87,9,4.25,19.49,5.28,29.38,7.47,6.56.54,7.36,9,1.32,10.81C804.22,511.72,724.44,551,643.16,587.23c-5.63,2.51-6.73,7.7-7.82,12.15-5,20.62-14.82,38.73-27.3,55.61-28,34.55-72.38,60.58-114.23,75.16,12.37,1.36,41.19,8.94,30.94,25.91-2.83,4-.15,4.52,2.36,4.8C642.41,772.36,774.3,725.41,856,643.2c-50.29,7.18-32.84,9.53-70.52,33.08-25.39,16-103.38,1.57-61.31-35.56,22.9-17.8,76.46-26.05,97.13-1.17,1,1.32,6.27.07,8.5-.71,9.74-3.33,20-3.46,30-5.13,12.79-2.12,9.73-12.31,12.69-18.71,9.28-20.14,17-41,25-60.77-53,3.18-24.93,27-67.54,34.49-15.83,3.79-32.88,5.94-47.6-2.24-6.89-3.82-22.75-.81-19.56-14.06,7.88-33.29,57.33-46.55,86.41-31.66,12.31,6.21,24.68,8.6,37,6.51,17.83-2.94,20.92-8.37,26.42-25C914.77,516.64,965.35,426.16,960.88,460.17ZM780.36,565.43l72.53-13.36C831.28,539.93,795.7,546.09,780.36,565.43ZM857.15,562,781,576.37C809,584.31,832.8,583.07,857.15,562Zm-55.39,92.54c-24.65-.21-48.63,8.47-75.53,10.27C753.22,680.58,781,671.26,801.76,654.51Zm11-12.55c-28.78-13.49-64.53-9.55-88.62,15C754.5,651.49,783,648.12,812.77,642ZM171.18,1060.25a33.61,33.61,0,0,0-3,4.32c19.8-7.13,39-21.56,38.71-45.9C198.14,1035.61,183.09,1045.8,171.18,1060.25Zm-13,1.47c12.68-12.58,25.08-24.9,39.35-39.08C176.42,1027.59,153,1050,158.19,1061.72Zm-34.59-34c16.59-12.76,24.14-40.08,16.57-59.85A259.47,259.47,0,0,0,123.6,1027.73Zm-10.95,1.19c5-22.84,11.23-44.59,21.45-67.26C113.57,979.47,102.66,1014.41,112.65,1028.92Zm12.44,130.89c-17.67-3.5-44.41,8.41-55.19,24.51C90.26,1180.32,106.89,1169,125.09,1159.81Zm3.51,7.54c-5.17-.59-7.92,3.87-11.86,5.82C105,1179,93.55,1185.26,80.85,1192,101.33,1192.49,117.14,1182.13,128.6,1167.35ZM315.06,1322c.42,1.41.87,4.09,3.77,2.22,14.38-9,22-23.1,28.08-38.28C354.8,1269.72,315.2,1292.47,315.06,1322ZM302,1327.65c-10.09-17.76-31.9-15.16-48.91-15.08-1.29,0-2.6,1.25-3.9,1.91,12.19,13.46,29.91,11.11,45.68,15ZM250.65,1156c-13.45,16.45-24.61,29.63-23.47,50.86Zm8.3,4.91-23.37,49.23C255.15,1198,259.11,1181.19,259,1160.9ZM299,1074.18c-3.34-1.51-7.59-1.19-11.22-1-11.47.5-23-2.48-34.65.2-21.17,7.71-46.35,16.2-52.14,41.1-1.31,8-3.39,17.22-3.31,25.15a9.59,9.59,0,0,0,5,.68c24.77-6.11,49.49-11.63,68.57-30.22,8.78-8.25,18.27-15.74,27.44-23.57,3-2.58,8.05-4.77,8.62-7.8C308.34,1073.23,301.94,1075.5,299,1074.18Zm134.67-4.1c-31.33-7.33-61-12.3-90.69.4C372.64,1080.38,402.33,1083.6,433.71,1070.08Zm154.59-3.44c-16.54-15.21-99.63-10.81-122.84,7.33C507.81,1092,548.29,1075.37,588.3,1066.64ZM563.65,1148c-58.52-63.06-89-7.75-12.7,4.9C553.87,1149.79,569.49,1152.74,563.65,1148Zm-18.91,79c-23.77-10-47.47-9.32-70.51,2.27-5.64,2.83-8.78,8.61-2.86,13.6,16.17,15.81,33,7.91,53.49,4.38C527.06,1241.69,559,1234.57,544.74,1226.94Zm-.81,107.81c-15.34-6.83-74.93-8.41-72.32,16.43,2.17,11.28,12.1,13.51,23.61,12,19.66-2.54,34.92-12.81,49.5-24.86C545.32,1337.86,548.13,1336.26,543.93,1334.75Zm59.86,41.76c-6-16.38-22.83,47.39-21.43,56.64-.65,2.74,1.28,9.77,7.86,11.34,8.17,1.94,12.68-5.62,16.75-11.64C620.15,1413.35,609.13,1395,603.79,1376.51Zm48.39-32.71c8.1,20,35.73,64.93,60.66,58.84,12.63-9.21-3.27-31.3-12-38.58-12.82-12.37-27.91-20.24-45.59-22.85C654.58,1341.11,650.09,1338.55,652.18,1343.8Zm17.21-89.36c14.1,19.24,27.86,54.61,56.78,51.77,4.43-1,3.45-13.18,1.3-17.15-13.91-18.9-31.22-33.11-54.91-37.92C670,1250.62,667.5,1251.66,669.39,1254.44Zm3.8-87.3c9.75,6.23,23.13,8.61,35,7.73,6.25-.52,12.88,1.63,18.77-2s15.6-4.68,14-13.76c-1.48-8.45-9.42-11.07-17.66-10C706.24,1152.22,685.22,1153.47,673.19,1167.14Zm89.36-163.76c-19.85,15.78-35.57,31.6-55.62,49.87C732.23,1046,758,1027.33,762.55,1003.38Zm.56-15.68c-26.13-5.62-57.78,20.75-65,54.28C720.41,1024.06,739.07,1002.87,763.11,987.7Zm6.74,189.63c-11.61,16.56-22,34.13-24.22,55-3.65,17.18,8.2,30.22,21.29,13.72C780.65,1225.93,780.19,1199.12,769.85,1177.33Zm54.76-15.71c2.93,11.63,8.71,22.44,17.1,30s15.16,18.83,28.61,19.39c1.74-.43,3.82.85,5.13-1.76,5.56-21.69-30.3-45.92-48.68-49.48C823.78,1158.69,823.89,1158.75,824.61,1161.62Zm19.48-92.56c8,22.81,23.59,44.42,49.62,50,2.91.11,4.94-3.6,5.66-6.38C904.77,1092.34,861.25,1065.87,844.09,1069.06Zm23.52-108.22c-2.52,18.31,48.39,83.86,55.38,45.71a26.2,26.2,0,0,0-4.2-14.92c-11.47-17.23-27.84-27.52-47.28-33.48C869.1,957,867.37,958.37,867.61,960.84ZM881.3,797.6c9.94,18.84,21,32.38,33.14,51.3-3.87-22.18-10.6-40.24-30.34-51.67C883.47,796.85,882.24,797.46,881.3,797.6Zm-14-.29c4.11,30.32,27,60.83,41.36,56.68C892.26,837.77,881.26,817.45,867.32,797.31Zm-348-12.9c-12.49,2.23-25.84,2.44-37.21,7.29-5.18,2.2-12.75,1.51-18.71,3.26-11.69,1.76-9.48,19.4-7.88,29.49a3.14,3.14,0,0,0,2.16.1c8.1-6,17.76-8,27.1-11,15.69-5.1,30.79-12.09,47.29-14.62C542.14,796.9,528.64,782,519.28,784.41Zm155.59,26.82c-.67-4.44-4.42-2.17-6.37-2-67.6,2.75-130.17,27.79-193.32,50,10.18,8.38,18.94,9,32,4.7,22.15-7.31,44.74-13.91,66.88-21.4,31.17-10.56,63.22-17.64,94.77-26.65C671.27,815.13,675.62,816.11,674.87,811.23Zm-81,34.16c-29.64,9.76-63.44,19.22-91.22,30.73,2.17,3.35,6.9,5.06,10.26,7.22,29.29-7.13,57.49-11.4,86.14-20.37,38.07-8.65,78.1-17.21,109.64-41.5-1.89-1.47-3.81-4.23-5.66-4.18-8.82.26-18.44-.75-26.29,2.39C649.74,830.49,621.59,837.14,593.86,845.39ZM381.12,789.46C375,824.54,341,842,325.73,871.81c-3.45,8.61-7.46,19,2.11,24.5,29.63,14.07,70.39,8.28,101.92,2.52,21.26-3.81,42.39-8.38,63.59-12.56,1.89-.37,2.86-1.94,1.32-2.51-11.35-4.14-20.13-17.45-35.16-8.8-10.85,6.24-23.67,4.71-35.68,6.4-15.57,1.82-32.08,5-47.24-.46,1.84-1.3,3.66-3.7,5.54-3.75,26.2-1.68,55.41-3.59,79.74-12.31,1.84-2-5.73-4.61-8.35-7.86-1.89-2.34-1.71-8.34-5-7-9.27,4.63-64.92,16.26-70.14,9-.73-2.59,2-3.64,4-4,14.83-2.77,29.9-4.56,44.44-8.36,7.91-2.07,23.17,1.8,18.32-16.06-.93-3.4-2.26-4.48-5.05-2.79-10.17,6.69-52.18,17.1-55.86,7.41-.18-.39,3.58-3.67,5.73-4,17.11-2.26,34-5.39,49.89-12.36,6.67-2.94,2.86-9.89,2.74-14.65-.1-4-3.38.09-5.24.35-7.1.6-43,12-44.2,1.87-.05-5.85,32.42-6.16,39.72-10,4.61-1.33,11.23.81,14-5,2.75-7.08,7.26-14.21,7.83-21.81-7,1.49-43.29,16.66-46.06,7.36-2.78-6.55,19.76-6,24.17-10.32,19.51-7.44,28.6-2.32,36.94-27.2-28.13,7.51-56.07,15.36-84.76,20.66-3.76.93-19.14-3.55-8.22,11C380.17,775.73,382,782.6,381.12,789.46Zm219.73,17.76c-13.8-11-41-5.75-58.53-1.86-28.48,8.79-57.69,16.08-85.14,27.77,4.1,5.47,2.08,14.45,9.29,17.84,5.89,2.77,10.74-1.42,16.18-3.69C520.7,830.21,562,821.3,600.85,807.22Zm-82-40.23c-11-3.9-22.19-2.31-33.36-2.93-13.68-1.15-22.28,3.6-25.18,19.18-1.33,6.31,1.36,2.81,3.44,4,18.22-5.34,35.61-12.11,55-12.37C527.76,777.23,525.15,769.49,518.85,767ZM472,752.59a21.12,21.12,0,0,0-.79,3.78c1.44.16,2.93.89,4.33.45,10.48-3.05,20.88-1.66,29.59-1.83,5.55.87,11.47-.57,13.25-5.16,1.87-4.8-5.19-5.1-8.08-7.4C499.26,734.37,476.56,741.79,472,752.59Zm109.1-203c-19.57,10.73-41.38,15.46-61.9,23.58-6.37,2.53-20.1,1.18-8.76,15.14,9.14,11.28,20.95,17.39,34.36,20.63,6.74,1.63,15,5.38,20.32,3,26.53-10.78,52.11-23.84,77.76-36.67,40.4-18.43,81.08-36.27,121.5-54.67,36.62-16,69.31-35.52,107.89-48.25-18-6.16-34-12.6-50.46-16.8-7.27-1.84-13.74-10.17-22.8-4-50.2,32.87-103.74,60.35-153.16,94.29-7.36,6.6-17.8-1.23-8.48-8.38,51.75-29.78,103.82-59.61,154.16-91.62-24.18-9.68-31.44-9-46.88,2.3-24.17,17.69-45.69,39.39-71.76,55.47-.11-3.78-1.61-6.13,1.52-9.12,20.3-19.43,41.32-37.94,64.52-53.93,4.43-3.06,11.81-4.86,11.13-12.35-.9-9.71-2.65-19.34-4.09-29.37-19.26,20.8-33.88,45-54.32,64.49-1.42,1.21-3,3.79-4.73,1.6-1.86-4.19,3-9,5.07-12.54,10.62-15.59,23.48-29.46,35.26-44.15,9.22-11.5,20.23-21.14,16.09-39.06-3.52-15.25-3.31-31.36-4.84-48.18-31,62.05-79.51,111-112.1,171.51-6,14.76-23.27,23.74-21.52,42.6C603.89,545.21,587.93,544.41,581.13,549.59Zm-5.2-35.34c-18.16,12.55-39.59,16.68-59.3,25.13-5.29,2.26-12.23,2.59-16.24,8.4,5.52,5.31-1.21,22.59,6.95,19.11,14.48-5.54,28.73-11.5,43.86-15.42a185.81,185.81,0,0,0,33.69-12.88c3.82-1.85,14.14,0,9.88-10.12-1.26-3-3.39-6.33-6.06-7.88C584.55,518.17,580.74,510.93,575.93,514.25Zm-52.29-17.86c-13.21,8.84-25.16,20-41.41,23.22.33.71.49,1.84,1,2.06,3.82,1.54,4.29,5.9,6.8,8.09,2.76,2.4,2.52,9.06,10,6.14,24.06-10.5,49.5-14.57,72.12-28.61-7.88-5.55-15-11.27-24.7-11.92C539.52,494.33,529.35,492.6,523.64,496.39Zm.91-43.11c-1.83-2.86-5.31.9-6.38,2-18.3,17.34-40.1,28.84-65.42,33,9.43,3.78,17.36,22.46,26.06,23.51C498.55,503.42,542.64,479.49,524.55,453.28ZM481.1,468.7c14.26-7.53,49.14-27.12,41.07-47.51-21,15.87-42.43,29.71-68.58,35.95-21.27,2.11-7.3,10.9-3.9,24.74C460.47,477.44,471.38,474.14,481.1,468.7Zm48.39-82.24c-5.09-6-43.31,8.32-54.23,8.39-28.88,1.25-31.31,32.42-33.55,55-.51,4,2.41,1,3.09.75C477.17,436.18,519.45,426,529.49,386.46ZM687.21,195.75c-65.75,50.46-127.88,108.07-172.52,178.5L524.81,376c1.24.34,4.05-3,6.44-7.24,17.35-30.84,45.07-53,70.82-76.38,33.92-31.38,68.17-62.4,102.25-93.6C714,190.7,690.62,191.51,687.21,195.75ZM579.57,258.22C536.64,295.14,501,339.36,467.36,384.48c4.43.88,9.1-.54,12.73-1.66,7.39-3.21,18.24-.1,22.51-7.52,13.37-23.24,29.88-44.08,47.4-64.05,16.82-19.18,35.54-36.67,52.8-55.48,16.91-18.43,36.35-33.53,57.2-47.1,3.29-2.14,5.41-6.09,8.07-9.2C650.09,190.3,594.18,245,579.57,258.22Zm-68.26,32.71C482.91,319.8,461,354,434.67,384.6c-1.8,2.09-1.91,5.63-2.82,8.49,2.44.59,5.62,2.46,7.19,1.55,6.94-4,14.62-5.66,20-13.8,39.14-61,91.35-112.17,143.75-161.47-7.13-.82-13.16-2-20.74,5.6C556.73,245.14,533.93,267.94,511.31,290.93ZM370.78,414c4.64,1.41,7.74-2.75,11.9-3,14.66-6,30.4-8.72,40.35-24.29,34.61-54.43,76.37-101.79,124.59-145.38-6.14-.26-7.54,5.09-11.13,7.05-20.77,11.35-37.37,28.27-55.85,42.62A480.19,480.19,0,0,0,370.78,414ZM251.2,644.05c-20.5,11.89-54.1,27-61.52,50.68-2.79,12.81,17.34,38.11,29.88,44.32,62.13,29,129.64,9.31,193.35-1.6,82-14.71,168.84-59.16,206.25-137.24-19.65,4.91-34.68,17.68-50.34,29.41-19.08,14.2-43.82,23.66-46.19,52.76-.13,1.66-1.25,5.43-4.65,5.39-2.81,0-2.54-2.76-3.55-4.49-4.18-7.23-.78-14.86,1.83-20.3,7.69-16.05,20.8-27.31,37.5-34.26,2.37-1,5.78-6.3,5.24-6.26-8.86.57-17.15-6.9-25.88-2.63-16.8,11.61-50.18,20.91-50.29,44.71-.06,2.35-.57,5.14-1.92,6.93-4.47,5.92-7.18.47-7.7-2.52-5.14-32.23,30.13-42.74,51.67-55.43-8.79-6.86-18.15-12.06-24.53-22-7.57-5.32-7.24-53.14-17.94-43s-24.15,16.17-37.35,22.34c-1.7.79-4.47,1-5.67-1.63-.79-1.72-1.07-3.32,1.19-4.57,5.63-3.12,10.87-7,16.72-9.62,19.77-8.67,23.28-17.49,12-30.68-1.79-2.11-2.89-2.06-4-.66-5.45,6.72-49.09,33.81-54.14,22.61-1-2.37.78-4.29,2.71-5.23,9.86-4.84,19.73-9.7,29.78-14.13,17.82-7.85,18.81-11.78,5-25-1.86-1.79-2.53-6.83-6.88-4.65-4.58,2.3-8.72,5.48-13.3,7.77-10.88,5.45-21.83,10.78-32.92,15.77-2.89,1.3-6.28.66-7.78-3-3.31-4.77,27-12.49,31.83-18.85,5.82-4.67,17.56-4.77,16.68-14.13-1.1-10.69-5.18-19.9-19.2-7.3-15,7.94-29.82,16.26-47,18.55-2.65.35-6.11.36-6.76-2.63-.41-1.91,1.64-3.83,4.53-4.72,21.87-8.34,70.79-24.27,62.22-51.61-12.61,6.13-57.44,29.59-68.77,22.72-2.07-1.16,1.42-4.78,3.67-5.75,7.65-3.31,15.93-5.36,23.19-9.32C408,435,434,433.09,440.7,405.64c-11.4-.83-22.6,5.84-33.78,8.25-9.42,2.94-19.14,5.29-28,9.42-8.28,3.85-19.49,3.62-23.77,13.95-6.21,15-13.43,29.44-16.77,45.7-13.84,73.25,94.58,32.49,76.44,141-1.06,7.31-9.41,9.08-11.9,1.52-1.51-8.12-1.95-16.51-4.22-24.39-1.37-4.79.32-14.29-6.76-13.31C344.7,604.62,296.85,622.92,251.2,644.05Zm-59.3,87.43c-2.61-2.76-5.08-5.54-5.9-8.75-3.82-15-11.72-11.48-20-5.32-4.69,3.49-5.61,9.59-4.75,15.17,5.87,13,24.91,7.92,35.2,3.9C195.1,734.77,193.48,733.13,191.9,731.48Zm-71-16c1.47,5.85,4.42,10.73,6.94,16a130.17,130.17,0,0,1,13.47-10.58c10.92-13.6,35.39-11.67,38.82-33.89,12.22-22.09,35.16-35.88,56.67-47.05,11.2-5.56,8-9.11,2.45-15.07-52.9-61.15-78.88-138.24-97.54-216.17C94.24,509.13,85.34,609.18,120.88,715.49ZM149.1,751.4c3.48-1.22,14.37,2.29,7.29-6.54-7.58-7.33-3.58-20.58-7.53-17-16.45,12.14-32.59,24.62-46.9,43C119.16,763.84,134.3,758,149.1,751.4ZM855,668.72c-92.57,74.14-200.3,112-320.37,110.48,17.12,8.12,4.72,18,17.43,15.14,14.68-2.41,29-6.36,44.21,0,5.64,2.34,10.66,8.54,17.19,7,16.49-3.93,32.52-7.45,50-4.77,17.34,1.7,81.82,12.09,54.2,38.34-12.79,5.71-25.68,11.27-38.83,16.08-63.78,23.46-131,34.78-197,50-39.25,5.87-171.81,39-178.53-19.6,9.15-37.46,47.51-54.59,61.07-89.35,2.91-9.77-9.73-26.91-19.48-26q-18,1.72-36,2.77c-30.89-.84-67.73-.45-93.76-18.68-16.49-13.07-42.1,3.56-59,9.3-4.37,2-14,2.31-11.91,7.08,9.88,22.14,24.12,42.09,39.32,60.73,172.07,217.25,517.06,176.38,641.3-68.51-9.23-1.49-13.9,7.65-19.18,12.93-18.42,17.12-55.47,23.8-78,13.1-5.13-2.44-8.88-7-5.81-11.38,15.92-30,56.09-50.68,87.15-27.31a17.41,17.41,0,0,0,10.39,3.75c18.15-1.8,23.47-32.85,27.26-47.63C848.79,690.42,855.71,679.8,855,668.72ZM805.7,752.58c-25.43-12.6-52-6.88-71.05,18.48A342.79,342.79,0,0,1,805.7,752.58Zm-59.28,24.9c13,8.43,46.66-3.71,53.19-13.29ZM901.79,669.15c12,22,23.68,43.62,35.56,65.11.83,1.5,3,2.26,4.56,3.36C942.32,709.32,933.09,680,901.79,669.15Zm-4.71,31.39c4.24,17.72,14.18,42.58,35.4,44.1-10.12-24-27.8-43.53-38.82-68C891.58,685.54,895.2,692.92,897.08,700.54ZM608.54,555.82c11.75-3.13,31.9-44.79,41.76-56.94,25.29-39.55,53.79-77.2,75.77-118.73-2.78-7.53-19.05,15.7-21,18.79-20.63,30.61-41,61.41-62.17,91.65-12.09,17.79-24,35.73-36,53.57-1.45,2.16-4.56,3.86-3.24,6.8C604.58,553,607.53,556.17,608.54,555.82Z"/></g></g><g id="Red_Japanese_Frames" data-name="Red Japanese Frames"><path class="cls-8" d="M0,20V1580a20,20,0,0,0,20,20H956a20,20,0,0,0,20-20V20A20,20,0,0,0,956,0H20A20,20,0,0,0,0,20ZM924,1548H52V52H924Z"/><path class="cls-9" d="M952.1,15.41,928.69,38.83A4,4,0,0,1,925.86,40H50.14a4,4,0,0,1-2.83-1.17L23.9,15.41A2,2,0,0,1,25.31,12H950.69A2,2,0,0,1,952.1,15.41ZM40,1549.86V50.14a4,4,0,0,0-1.17-2.83L15.41,23.9A2,2,0,0,0,12,25.31V1574.69a2,2,0,0,0,3.41,1.41l23.42-23.41A4,4,0,0,0,40,1549.86ZM936,50.14V1549.86a4,4,0,0,0,1.17,2.83l23.42,23.41a2,2,0,0,0,3.41-1.41V25.31a2,2,0,0,0-3.41-1.41L937.17,47.31A4,4,0,0,0,936,50.14ZM925.86,1560H50.14a4,4,0,0,0-2.83,1.17l-20,20a4,4,0,0,0,2.83,6.83H950.69a2,2,0,0,0,1.41-3.41l-23.41-23.42A4,4,0,0,0,925.86,1560Z"/></g></svg>