<svg xmlns="http://www.w3.org/2000/svg" xmlns:xlink="http://www.w3.org/1999/xlink" viewBox="0 0 976 1600"><defs><style>.cls-1{fill:none;}.cls-2{fill:#f4f3ef;}.cls-3{clip-path:url(#clip-path);}.cls-4{fill:#50b271;}.cls-5{fill:#ffb85a;}.cls-6{fill:#997664;}.cls-7{fill:#d81e1e;}.cls-8{fill:#592116;}.cls-9{fill:#992d17;}</style><clipPath id="clip-path"><path class="cls-1" d="M960,22V1578a6,6,0,0,1-6,6H22a6,6,0,0,1-6-6V22a6,6,0,0,1,6-6H954A6,6,0,0,1,960,22Z"/></clipPath></defs><g id="Paper_Backing" data-name="Paper Backing"><path class="cls-2" d="M960,22V1578a6,6,0,0,1-6,6H22a6,6,0,0,1-6-6V22a6,6,0,0,1,6-6H954A6,6,0,0,1,960,22Z"/></g><g id="Wikipedia_Cropped" data-name="Wikipedia Cropped"><g class="cls-3"><path class="cls-4" d="M862.85,1604c-15.51.29,38.52-45.23,34.23-72.08,1.88-10.56,9.28-1.4,13.22-8.11,19.2-10.89,47.93-7.51,65.7-23,9.67-2.93,1.37,96.61,4,99.16C981.74,1610.67,866.18,1600.7,862.85,1604ZM0,1604c-7.51,4.13-6-76.76,0-72.83,62.79-20.2,123.31-37.36,189.31-50.48,20,9-18.71,45.74-7.63,57.88,15.51,11.16,36.41,11.15,53.77,4.8,89.9,26.76,43.69-62.95,67.22-72,68.58-5.78,151.31-13.48,222.39-6.86h.12c43.09-1.37,7.87,18.72,34.9,28.15,23.55,12.12,1.85,27.13,44.63,27.83,31.22,1.62,22.17-36.79,39.47-39.63,36.89-.78-43.7,91.71-48.79,112.94C608.69,1622.42,4.2,1594.61,0,1604ZM629.91,768.61c-27.09-34.69-20.47-89.13-29.08-129.11-24.28,3.71-157.52,48.38-95.87-15.68,79.19-106.31,107.71-17.34,46.36-145.67-15.51-38.22,89.57,20.75,98.22,32.61,6.77,5.67,14.39,9.76,20.1,17.14,1.32,4.66,6.22,12.58,12,6.78,16.52-13.87,141.67-66.4,139.28-31C806.32,529,777,553,747.33,570.29c-5,3-2.8,9.21,1.46,11.61,29.49,21.66,46.39,55.7,58.74,88.59,4.12,6.64,1.5,15.34-8.35,12.91-32.8-4.92-59.51-22.95-87.67-36.06C687.06,685.09,672.73,736.56,629.91,768.61Zm202-320c-28.73-9.37-42.36-84.83-55.36-74.53C762.14,383.55,666.39,480,674.29,434.81c-3-58.42,47.56-119.16,4.6-107.71-167.86-1.91-57.88-64.76,27.3-78,11.6,1.87,21.35-1.08,15-14.68-5.69-29.07,4.43-57.07,7.5-85.51,5.26-64.88,83.78,66.47,84.3,90.66,4.1,9.33,2.81,26,13.44,29.36,15.76-2.21,39.89,13.19,44.76,27.85,4,6.29-3.92,12.13,1.75,17.16,6.27,3.29,16.43,27.91,1.43,27.07h.1c-8.07-.94-16.28-.91-14.6,9.92C859.77,379.75,855.59,427.27,831.87,448.65ZM368,410.26c-23-4.84-53.08-89.79-65.8-75.12-4.25,17.6-108.77,84.79-96.76,43,43.91-131.75,47-51.19-56.65-114.4-87.87-39,74.08-70,104.93-72.32,3.78-9.06-18.48-115.26,5-94.75C358.25,184.76,272,193,396.48,138.77c25.44,39.61-19.59,99.79-46.34,136.84,8.63,16.15,29.38,31.67,2.23,43.47-11.4,16.4,50.45,15.64,15.64,91.18Z"/><path class="cls-5" d="M216.12,1496.07c-7.39.78-25.17-2.73-19.58-11.65,15.45-32.08,13.55-67.46,18-103.49,1.89-82.71-34.86-172.59-13.08-256.52,5.37-18.28,31.68,11.64,35.93-4.89,16-55.3-136.9-23.53-109.32-187C143,802.64,85.86,743.61,177,622.61,157,581.48,163,584.93,198.1,603.9c23.54-13.18-42.49-56.35-59.31-63.67-15-7.43-15-14.56-5.44-22.86a6,6,0,0,0,1.22-8.53c-20.37-26.58-32.17-57.38-33.16-90.49,8.1-18.54,30.24,59.94,42,65.27,3.8,5.29,10.22,1.62,11.54-3.53,13.51-31.82,4.57,46.26,50,85,6.59,8.54,34.61,34.52,33.6,9.28-16.18-24.5-37.64-46.08-50.75-73-4.59-8.15,5.23-10.32,8.9-15.88-3.48-17.07-18.48-30.81-22.21-49.06-22.48-95.63,37.47,67,57.58,24.49,14.07-4.75,4,28.26,5.2,36.58-1.1,25.66,11.77,59.65,29.37,75.4C300,564.71,319,597.92,346,608.08A599.75,599.75,0,0,0,429,627.14c5.21-3.21,13.08,39.77,5.28,37.76-3.58,1.18-4.72,5.1-3.61,8.45-12.57,25.81-63.24,13.2-88.65,23.52-20.55,5.23-47.51,12.56-73.8,22.9-66.5,36.32-18.32,170.37,60.06,153.83,95-8.45,192.44-37.49,287.18-16.5,45.2,10.13,88.46,26.73,134.73,31.75,25.61,7.25,57.23-10.36,73.85,9.38,2.45,6-2.57,11.17-9,15.9-13.08,20.16-30,30-54.85,39.66-8.18,11.18,7.43,31.47,2.29,46,3.46,106.75-93.13,148.44-45,210,8.29,14.39,23.47,28.22,9,41.93-14.64,26.64-24.78,55.38-37.76,82.8-14,31.08-28.08,63.41-38,96.2-8,14.83-5.17,40.75-24.86,45.66-29.32-5-20-9.45-33.92-19.23C577.84,1456,564,1439,577,1427.76c18.91-47.68,33.88-104.29,31-155.19.09-37.12-6.92-72.49-41.11-91-16.13-11.15-88.48-57.48-56.39-70.33,10.53-6.8,57.55-10.15,41-27.39-7.2-5-14.92-29.34-25.3-19.06-73.68,26.57-166.81,31.14-182.18,32.83-13.88,9-5.5,37.55-10.84,53-3.69,40.82-10.89,84.4-17.53,125.73C299,1344.14,293.34,1418.06,293.12,1486c-6.05,14.72-32.18,9.55-43.58,3.23C238.56,1494.35,228.05,1495.67,216.12,1496.07Zm620-885.6c-15.84-10.82-7.31-60.18,1-83.72,1.12-13.33,26.56-36.26,7.53-39.25-15,7-96.31,7.91-84.37-16.36,19.26-23.38,45.66-55.59,66.17-24.3,13.42,10.5,29.19-33.57,29.75-43.84-.26-11.06,8.17-25.38,18.17-12.55,15.57,12.76,24.1,27.85,21,46.61,4.67,18.28,8.46,37.45,5.45,56.49,3.57,15.85,9.21,33.54,12.09,50.9C909.36,571.42,861.84,601.75,836.07,610.47ZM553.29,314.13c-15-29.65-32.51-67.14-59.11-90.2a6,6,0,0,0-5.93,5c-4.18,23.41-13.74,44.12-24,65-24.12,13.11,0-39.46-16.61-41.93-24.76,12.57-64.1,26.32-90.61,18.55-1.45-5.85,6.72-6.62,8.42-12.5,3.23-8.12,15.66-10.63,14.42-21.15,11.08-22,25-43.53,25.13-71.67-.53-11.39,7.27-25.34-8.88-28.44-9.75,1.58-33.84,21.23-43.07,11.26-15-20.28-44.66-84.11-30.52-108.86,45.76,30.59,104.89,40,144.63,80.64,18.91-27.78,21-74.45,47.37-98.48C554.82,48.1,554.27,107.3,559,146.77c30.87-7.17,70.85-9.8,100,11.35,16,27.74-71,68.67-91.86,79.63C566.75,258,568.94,301.22,553.29,314.13Z"/><path class="cls-6" d="M783.13,1604c-59.19-.54-128.54.23-188.28,0-4.42-.23-5.12-5.68-1.74-8.08,9.53-7.76,11.73-19.94,18.85-29.77,18.69-20.81,26-45.77,42.79-70.11,16.41-27.33,28.3-58,49.15-81.67,3.36-8.48,5.9-21.34,13.21-25.39a6,6,0,0,0,5.62-6c.66-20.57,15.42-35.34,25.54-49.45,4.11-23.7,20.21-44.92,31.56-64.29-.32-19.52,15.47-37.07,19.56-54.39,7.54-5.41,7.33-19.32,12.85-27,.83-7.78,9.79-9.85,9.52-17-.25-19.76,13.19-36.23,19.59-54.12,8.64-12.89,9.95-33.22,21-43.34,10.22-7.05.78-23.2,10.89-35.91,8.55-16.36,13.79-37.3,23.1-52.39.92-19.62,11.56-41,23.62-54-.6-29.34,11.24-56.09,18-83.45-3.32-7.81,8.45-15,6.15-22.19-2.68-8.29,1-18.28,1.06-27.21,1.14-3.38,5-6.09,2.34-10-3.31-11.42-5.15-28.44.15-38.58a6,6,0,0,0,3.17-7.72c-11.11-25.44-7.12-44.08-.17-60.66-12.14-27.22-16.34-50.31-16-83.55-25.29-42.05-27-102.26-33.22-152.4-2.94-19.28-3.6-37.17.13-57.4-2.79-11.31-9.65-5.14-10.08-21.78-3.31-16.39-7-30.47-6-47.76-10-14.43-18.56-33.12-17.89-52.86-10.1-15.71-23-35.07-24.08-55.82-9.93-14-20.13-31-20.88-50.32-8.75-11.13-17.38-21.1-16.85-40-24-28.74-27.37-74.56-39.89-111.9C744.7-13.25,811.84-.8,816.56-4c8.58,4.64,5.29,19.25,6.18,29a6,6,0,0,0,5.32,6.25c8,5.28,7.27,19.32,9.17,28.21,21.95,25,46,60.64,51.74,96.3,5.14,9.89,19.7,21.3,22.58,2.36-3.46-11.12-2.7-23-1.16-35.61,1.31-19.38,2.67-39.42,9.63-57.32-5.95-16.1-1-35,3.26-53.15,1.2-5.93-7.57-13.48,1.46-16h38.83c16.34,8-18.22,19.25-6.39,29.67,7.49,15.81-14.63,40.41-3.94,53.88,9.91,19.66-3.9,48.17,3.3,67.46,13,71.08,34.82,146.82,8.4,217.44-14.14,40.5-17.15,77-1.42,116.39,20.82,56.75-19.64,124,16.47,176.84-1.83,140.81,2.84,314.73-1.58,456.77-4.67,12.87,2.86,17.91-10.93,32.25-13.41,22.5-19.91,51.65-35.41,71.57,1.58,22.32-12,39.15-15.52,59.88-1.41,5.23-10.21,2-9.8,9-1.32,25.61-10.41,54.83-25.71,74.71-6.11-.26-6.45,6.62-6.1,11.05-9.5,13.07-23-20-26.57-28.46-9.82-6.26-22.33-11.09-31.67-21.21-24.39-29.14-19.31,49-31.14,59.52,4.55,26,11.31,53.16,18,78.63-.87,10.13-14.63,5.33-20.35,3.5-9.92,9.22-28.32,7.48-39,13.54-3,5-9.73,5.32-15,5.4a6,6,0,0,0-5.69,4.12c-1.72,5.24-10,6.26-13.4,10-9.3,16.73,56.84,27.74,67.58,36.61,60.84,3.55,52.55,7.25,32.63,55.91C818.08,1609.12,793.09,1603.33,783.13,1604ZM261.8,1547.12a44.24,44.24,0,0,1-26.84-6.5c-28.08,10.35-69.23,5.51-45.38-33.78,2.12-28.35,29.44,2.05,43.37-13.59,6.52-6,8.1,3,13.88,3.53,12-7.5,24.88,7.49,36.47-2.43,15.4-2.81,2,32.51,3.37,41.4C285.27,1543.42,270.48,1541,261.8,1547.12Zm349-30.25c-4.26.19-8.1-6.65-12.7-2.57-8.17,5.47-29.37-2-25.16-13.72,1.74-12.3-24.9-8.3-24.93-23.79,2.66-9.81,11.5-15.93,15.84-25.13,6.79-12,8.4-4,14.5,1.77,9.92,1.92,8.35,10.35,15.93,11.68,3-.91,5.44.91,7.16,3.24,6,3.61,10.84,8.56,16.65,11.11,4,.19,9.21-3.84,11.85.55C630.13,1491.09,624.48,1516.29,610.76,1516.87Z"/><path class="cls-7" d="M840.62,1604c-6.39-1.71-21.87,2.73-27.42-1.77-1.54-22.34,14.9-41,17.69-59-38-12.66-85.83-13.38-121.62-37.77,18.08-27.07,59.67-34.51,89.75-39.53,11.14-10.81-5.1-29.3-4.18-48-11.08-144.92,27.55-100.72,92-16.89,21.37-21.6,35.25-58.63,66.13-73.33,18.67,16.53,5.42,52.35,3.37,75.1,2.59,13.82-22,44.9-.91,47.61,31.79,4.55,23.65-1.12,24.52,30.41-2.36,6.15,4.72,25.75-4,28-18.72-3.91-39.32,10.87-59.13,10.72-6.45,2.31-20.52-7.37-20.51,5,4.48,32.15-24.6,54.2-36,77.56C859,1606.07,843.39,1603.11,840.62,1604Zm21.06-669.39c-11.42-22.29-5-75.46,5.49-97.3,11.53-26.42-93.22,35.74-147.63,17.46-14.23-13.54,6.31-37.49,15.21-48.09,10.23-25.13,88.61-55.11,74.83-66-21.35-17.57-44.05-38.53-45.06-61.58,10.56-5.32,28,6.4,38.84,4.19,16.47-1.7-9.49-26.79,9-24.83,21.47-2,43.24,8.7,65.08,11.12,8.08-21.31,20.64-82.32,45.92-79.37,11.38,16.43-4.4,33.43,8.16,42.71,13.68,32,7.77,67.53,12.27,101.14,4.6,13.25-7.07,15.23-.66,29C942.88,833.14,934.59,896.23,861.68,934.61ZM508.5,591.53c-15-11.26-25.73-116.93-53.21-94-15.66,11-146.37,69-128.43,24.54,11.29-45.29,24.89-76.95,57-114.75,12.13-11.08,23.34-21.9,7.28-35.44-3.92-13.74-49.82-51.82-39.55-55.7,33.09-10.11,63.64-11.58,96.42-6.66,24.58-7.42,27.76-43,40.66-67.42-1.6-15.54,14.12-10.44,19.18-.48,35.2,34.7,40.2,72.89,54.88,110.55,37.74,25.21,62.23,70.1,85,108.36-6.71,17-75.13,6.53-94,3.47-7.56-1.54-7.67,7.53-8.12,12.69C540.13,514.21,532.88,562.38,508.5,591.53ZM797.28,187.8c-10.77-4.18-18.93-22.17-25.67-31.6-10-7.42-21-27.71-34.62-25.83-8,5-5.82,28.19-16.06,26.59-30.94-6.82-70.84-21.28-93.43-47.85,19.34-27.67,92-27.25,103.35-48.67-7.86-17-4.46-42-14.2-59.48a4.2,4.2,0,0,1,4-5C797.3-2.66,750-20.67,784.91,82c.84,5.13-8.79,7.07-4.44,13.09,7.41,8.82,10.15,17.28,18,23.81C808.06,144,830.09,170.35,797.28,187.8Z"/><path class="cls-8" d="M976,335.84c2.78-17.28,4.59-34.67,6.93-52,2.44-18.09-3.21-35.58-5.89-53.28-2.15-14.23-2.65-29-6.45-42.77C957.75,131.5,954.62,72,965,15.19c6.77-30.51-18.21,7.92-24.11,14C934,37.6,927,46,919.83,54.59c3.37-14.75,2.94-29.83,8.16-43.94,2.82-6.62-5.46-12.14-7.15-1.58-6.66,19.82-9.5,40-10.9,61-1.71,30-6.47,57.64-9.46,88.25-13.26-35.83-29.65-66.51-49.66-98.23C839.13,41.2,831.44,20.74,824.12,0c-2-6.88-9.76-4.3-7.11,2.54,6.7,37.1-8.16,69.87-16.77,107-12.42-36.72-21.8-68.34-31-104.76-.55-2.32-.49-4-3.52-3.89-8.8,1.82,4.16,32,4.47,38.93,2.45,14.61,7.18,28.8,10.89,43.2C764.61,61.32,755.5,34.11,744.92,9c-1.09-2.83-2.84-7.4-6.3-6.43-7.86,3.13,8.5,29.82,9.32,37,4.92,15.44,14.16,28.68,21.24,43,4.89,9.89,10.12,19.91,18.41,27.88-26.91,3.63-53.41.84-80.35.63-13.63-.81-27-4.14-40.89-3.25-7.36-.68-10.56,6.24-2.31,7.28,18.12,1.94,36.2,4.48,54.36,5.75,23.94,1.22,44.18,1.54,68.84-.16-10.81,7.93-11.47,17.3-19,26.83-10.24-7.95-17.3-22.8-31.43-22.47-7.28-.19-5.26,10.67-10,14.63-4.32,3.62,2.27,15.18-8.25,12.94-31.66-7.57-62.31-21.7-87.06-43.27C661,88.73,697.09,81.78,730.73,71c2.78-.87,7.72-1,6-5.68-7.1-19.55-10.42-39.77-11.7-60.41-.42-4.48-6.71-6.08-6.61-.2-4.14,11.32.76,22.55,1,33.81.13,5.24.23,12.12,4.72,17.11.3.32,5.67,5.49-.06,7.27C691,73,655.88,80.22,627.57,101.33c-4.62,3.43-9.28,7.59-.9,15,14.25,12.59,29.51,23.22,46.18,31.23,15.75,11.11,54.33,7.53,45.79,35.55-6.11,20-5,39.63-1.81,59.62.38,2.45-.94,2.18-2.73,1.64-23-6.92-44.71,9.95-65.82,12.33-22.92-6-47.95-9.21-68.94-20.32,32.64-15.45,69.42-32.92,86.78-67.25,1.67-3.32,5.5-10.42-1.26-13.83-10.92-5.51-21.47-11.33-33.43-15.3-39.16-15.52-74.44,11.63-70.33-1.62,4.46-41.72-7-87.78-36.92-118C499.79-.83,468.36,96.07,466.3,114.09,433.93,64.7,366.82,69,325.47,32.26c-24.06-27.11-6.54,54.8-3,62.88,6,18.18,11.45,36.15,23.28,51.64,1.16,1.52,6.26,4.81,1.87,8.12-6.2,4.7-12.93,8.7-19.19,13.33-2.16,1.6-2.46,1.66-3.9-.83-14-23.45-48.67-75.34-75.8-80.21-10.48,4.08-3.37,24.29-4.38,33.31.86,22.32-.84,44.88,6.42,66.61.32.95,1.49,3.59-1.9,3.13-41.11-3.09-105.49,14.43-134.51,44.73-2.44,2.56-6.85,5.77-2.48,9.69,34.83,28.84,77,51.62,122.89,54.69-8.79,8-16.13,16.93-19.56,27.71-6.48,20.38-11.67,41.18-17.07,61.88-.73,2.81-1.51,7.94,3.22,7.86,39.09-2.84,76.84-22.63,99.8-54.33,1.42-3.22,6.35-5.44,8-.86,14.32,26.6,28.49,53.3,53.28,72.34,1.25,1,10,.75,4.66,7.76-22.61,30.68-36.62,66.72-46.05,103.37-3.64,12.58.31,18.26,12.95,17.92a292.38,292.38,0,0,0,115.77-34.95c5-2.83,13.85-22.09,21.87-1.3,12.49,27.43,21.63,56.09,29.61,85.1.92,2.4,4.43,5.81,6.29,5.81,17.89-7.2,39.86-89.64,40.1-113,10.56,25.5,20,48.64,36.74,67.82-27.3,10-50.67,29-69.64,50.46-9.51,13.05-35.84,39.16-32.48,55.29.92,5.09,6,2.47,9.2,2.78,36,1,77.06-2.1,109.4-20.15a93.55,93.55,0,0,0-.83,36.57c2.12,12.75,1,25.63,3.61,38.56,3.74,18.52,13.45,34.7,17.54,52.9.89,4,3,11.73,9.3,7.26,34.35-32.15,63.36-72.86,76.72-118.5.88-3.35,1-8.54,8-4,7.64,5,14.56,11.31,23.84,14.08,5.71,1.7,13.25,5,15.39,9.68,11.59,25.29,24.29,49.28,49.49,63.91,1.27,1,5.11,4.38,2.75,5.5-38.92,17.81-76.46,45.42-94.41,85.29-3.31,7.55-5.37,21.5,2.51,24.09,49.75,15,102.35-1,147.75-21.47-12.87,26.34-13.27,55.12-11.45,83.74.11,6.43.21,14.86,4,18.81,8.65,9,15.9-.95,22.34-5.47,14.23-10,26.5-22.4,39.31-35.86-25.21,84.73-59.53,165.68-93.84,247-21.8,54-43.36,108-70,159.85-28.84,57.74-59.44,114.74-92.29,170.27-3.8,5.79-9.23-1.8-14.1-.67-.11,0-1.28-2.21-1-3,15.44-35.3,25.2-72.85,41.27-108,13.53-31,27.08-62.08,38.84-93.78,5-13.4,21.68-24.4,9.64-42.74-5.71-8.69-10.32-18.31-15.91-27.26-36.27-50.83,37.69-54.29,49-167.21,2.9-23.55,15.1-62.8,40.71-69.47,17.12-.63,25.29-17.6,10.33-28.67-8.37-5.75-4.85-8.41,1.11-13,22.15-13.86,11.43-38-12.87-38.29-21.52-.26-42.9-.2-64.42-3.41-30.83-5.48-60.8-13.8-90.7-22.77-31.94-7.24-62.52-16.5-95.05-17.74-8.57-.89-17.86,1.68-25.85-.66-9.36-2.74-18.47-1.28-27.29-1-38.5,1.89-76,14.32-114.09,19.09-26.81,1-83.69,13.58-103.94-3.35-27.68-23.56-41.51-53.13-37.25-89.84,1.18-10.17,3.52-20.53,13.75-26.31,42-23.84,91.4-28,137.39-40.53,14.34-2.78,30.11-3.12,38.54-17.35C497.26,589.48,377,632.92,331,589.65c-36.78-34.78-63.14-14.52-73.59-37.85-26.68-47.37-1.23-86.26-26-100.4-3.56,3.81-2.41,11.86-8.13,13.05-1.78.49-5.15-3.51-7.28-5.94-16.4-19.65-30.49-41.18-40.27-64.92a10.26,10.26,0,0,0-9.49-6.76c-9.39,1.17-3.83,19.54-3.48,26a290.57,290.57,0,0,0,14.84,54c4,8.36,19.25,18.11,1.84,28.73-.68.42-.65,2.55-.46,3.8,7.63,31.54,39.72,49.93,55.35,76.9-12.72,9.13-21.88-15.23-30.67-21.81-13.43-14.48-23-30.5-28.66-48.13-4.23-12.2-5.41-25.88-6.28-39.36-10.4-3.84-15.86,9.33-21.38,15.64-14-25-29.71-49.19-36.72-77.31-.55-2.56-2-4.77-5.58-4.38-11.73,2.43-9.83,18.78-9,27.86,2.08,31.25,15,62,30.37,87.89-8.55,11.45-8.27,18.72,4.74,26.91a477.11,477.11,0,0,1,62.71,47.7c1.92,1.7,2.66,4.73,4,7.14-.75.06-1.92.46-2.2.13-7.68-9.17-19.64-12.27-28.27-20a6.69,6.69,0,0,0-8.55-.67c-9.32,5.91,5.5,32.28,9.2,40.3,2.3,4.22,4.62,8.84-.89,14.22a204,204,0,0,0-52.06,117.06c-5.23,49.2,11.19,97.33,7.78,146.32-6.07,38-9.41,77.15-.81,115.15,8.82,38.34,30.15,72.05,62.18,95.71,5.94,4.39,18.94,6.42,13.73,18.64-9,25.56-8.28,53.87-9.58,80.89.28,42.85,9.57,84.18,18.4,125.76,3.46,20.32.44,40.86.06,61.3-.21,11.74.41,24-2.71,35-3.27,11.6-4.08,23.1-5.46,34.78-.49,4.12.79,10.69-6,11.93-39.24,5.1-77.07,16.56-115.4,26-26.57,6.69-53.06,14-77.29,27.21-3.95,2-2.09,9.78,4.33,6.76,23.29-8,46.15-17.17,70.41-22.33,17-3.61,33.55-9.21,50.44-13.37,20.14-5,40.4-9.41,60.67-13.84,1.6-.35,6-1.83,5.24,1.58-1.86,8.51-4.2,17.14-7.87,25-11.73,25.1-11.33,27.32,5.48,34.82,10.89,4.86,21.49,6.89,33.3,4.56,6.05-1.2,11.82-6.28,18.5-2.55,19.16,10.73,49.64.46,57.92-19.38,1.52-3.64-1.59-6.61-.94-9.27,2.76-11.27,1.38-22.71,2.49-34,.37-3.69-2.93-10.13,3.1-10.74,24.11-2.41,48.29-4.14,72.47-5.61,13.34-1.71,182.79-10.23,169.63,6.46-5.66,9.89,1.81,12.82,7,16.89,6.12,4.75,17.14,4,16.53,16.1,2.15,11.73,17.13,12.74,26.56,14.16,18.42,4.39,32.93-3.9,40.34-21.77,2.66-6.41.05-23.62,17-13.69-18.16,35.61-41.35,68.55-60.59,103.59-1.55,2.8-2.42,6.55-.7,8.55,2.64,3,4.76-2.15,6.61-3.52,9-7.4,10.42-19.24,17.13-27.88,2.49-3.22,4.54-7.55,7.86-9.09,2.28-1.07,2.91,3.89,4.2,6.33,6.32,11.44,12.28,23.25,19.46,34.16,2.66,3.31,8.77-1.1,5.75-5-7.65-13.49-15.63-26.79-22.81-40.52a9.23,9.23,0,0,1,3.45-12.31c3.85-2.2,3.64,3.11,5.32,4.88,2.69,2.84,4.5,6.5,7.07,9.48,10.86,12.58,21.9,25,30,39.72,1.19,3.72,8.33,9.33,10.64,3.75-7.72-18.12-21.28-33.82-33.75-49.22-5.17-5.92-15.63-11.16-12.64-20.17,3.48-10.47,10.92-19.63,18.26-32.1-3,10.76,2.92,16.38,6,22.09,14.74,26.36,30.6,52,43.56,79.4a5,5,0,0,0,5.88,2c6-2.09-3.4-16.25-4.86-20.26-15.4-29.6-34.83-58.44-48.42-88.39,8.52-11.08,13.63-23.95,20-36.21,23.81,40,30.35,86.92,44.88,130.35,1.58,4.26,4,8.86,8.92,9.32,2.29,0,1.32-3.43,1-4.7-7.6-27.78-14.73-52-22.85-80.52,10,8,23.22,6.34,28.29,18.3,10.15,23.93,25.34,45.46,34.06,70.12.7,3.29,3.26,7.13,7.08,5.76,10-5.06-30.12-68.89-34.86-80,5.72,2.67,9.86,4.77,14.12,6.55,3.33,1.39,8.4.13,10,4,5.91,14.6,15.92,26.35,25,38.88,5.34,7.2,12.94,14.16,11.23,24.83.63,5.64,10.62,3.12,10.16-2.11,3.4-19.08,9.62-37.05,21-53,.7-1,.35-3,.06-4.37a4.06,4.06,0,0,0-4-3.65c-12.35-1.57-24.67-3.13-37-5.37-29.35-5.33-56.93-15-84.06-27,21.57-19.83,50.46-29.33,79-33.46,8.69-1,18.57-1.83,14.76-14.8a289.88,289.88,0,0,1-8.13-38.83c-4.29-28.45-1.52-56.69,2.42-84.9.12-.81,1.55-1.45,2.36-2.17,15.18,53.55,36.63,106.28,66.18,154,3.12,5.58,7.73,11.38-4.86,10.94-34.1,5.47-68.85,6.6-103.48,6.63-4.81.35-5.83,5.06-.3,5.17,34.81,3.64,69.9,3.29,104.25-3.91,1.34-.2,4.52-1.06,3.25,2.33-11.07,29.49-22.38,58.89-33.21,88.46-1,2.5-3.77,7,.14,8.81s4.77-2.57,6.23-5c12.1-29.42,21.6-59.92,33.51-89.48.91-2.38,2.08-8.37,5.32-6.16,29.68,26.59-1.27,69.73-22.1,92.49-4.58,4.61.48,9.67,4.86,5,66.68-58.59,4.21-107.87,83.73-19.39,3.09,3.49,6.87,5.85,11.43,5.65,1,0,.55-3.51-1.13-5.43-13.64-15.58-27-31.38-40.73-46.91-11.36-11.77,10.26-11.34,17.68-12.44,5.43-.64,46.36-11.43,40.78-17.83-1-1.22-2-2.58-4.87-1.4a249.43,249.43,0,0,1-54.78,13.93c-7.17,2-29-9-22.75-16.61,7.43-3.9,100-4.2,83.28-18.24-29.22,6.77-59.61,7-89.5,9.54,10.22-21.29,20.61-42.51,31.59-63.42,5.78-10.85,12.65-21.1,15.17-33.41,2.64-4.94-2.38-6.43-4.31-1.71-16.88,30.29-33.12,60.38-49.18,91.23-26.9-50.23-54.59-102.18-68.3-157.78,20.15,10.33,53.43,51.86,65.59,72.37,2.56,4.75,3.46,12.43,10.67,12,5.79-.34,6.71-7.74,8.89-11.8a213.93,213.93,0,0,1,52.12-63.63c1.61-1.34,4.8-4.15,5.59-1.34,2.25,8,5.58,17,3.94,24.55-2.61,27.21-5.62,54.32-14.53,80.5-1.36,3.65-11.47,12,.47,14.53,7.65,1.65,15.65,2.39,23.42,4.23,4.34,1.9,13.47.28,6.66-5.37-4.93-1.82-10.42-2.39-15-4.72-3.15-1.58-10.54-.32-9.17-4,9.75-32.8,21.67-72.87,12-106.5-2-5.87-1-15.91-11.26-11.15-31.85,17.79-48.22,45.24-66.2,78.65,1.59-9.69-6.17-13.23-3.47-19.51,9.85-22.86,20.46-45.42,29.7-68.52,12.06-30.91,20.81-63.11,31.48-94.52,11-26.61,19.35-55.6,33.48-80.46,7.3-10.26,3.27-19.27.24-29.44-14.34-45.1-.49-93.22-13-138.9-4.7-22.57-12.77-44.1-21.39-65.4-3-7.48-9.77-14.65-9.68-21.9.14-9.86,5.2-19.66,8-28.95a170.4,170.4,0,0,1,32.8,56.12,3.91,3.91,0,0,0,3.24,2.9c6.59-.54.44-12.26,0-16.17-6.1-19.76-17.42-36.55-33-50.9-4.25-3.92,1.67-7.46.81-11.38,0-.18,3.45-1.9,4.14-1.38,6.83,5.19,14.1,9.81,19.44,16.9,5.23,10.47,14.29,6.17,10.86.26-5.93-7.2-11.85-14.43-18.21-21.24-4.06-4.35-14-2.5-13-12.33.68-6.6,1.33-13.2,2-20.27,8,6.51,15,12.37,22.33,17.88,3.59,1.64,7-1.39,4.58-5.25-25.44-25.32-29.33-19.82-26.79-57.93,8,9.09,15.66,17.73,23.27,26.39,1.16,1.32,2.32,1.69,3.52,1.26,2.28-1,4.23-3.39,2.13-5.74-18.91-21-37.82-55.46-28.31-82.65,7.74,13.31,12.07,32.47,26.18,40.81,3.52.55,3.5-3.43,2.36-6.46-28.07-53.39-44.31-83.37-39.21-146.2,2.22-22.23,6.14-44.84,5.29-67.16-.75-13.94-4.86-27.68-7.35-41.53-11.11-61.34-13.9-62.54,11.27-120.69,4.7-13.27,9.78-26.67,12-40.44,4.87-26.06,1-52.94,6.4-79.16,1.94,15.7,8.76,30.58,8.76,46.1-1,12.26-3,24.68-3.88,36.89-4.23,41.51-25.28,81.53-24,123.69,1.4,13,8.5,25.34,11,38.37,21,64.84-15.29,124.68,13.64,177.63,1.18,2.19,2.88,4.39,5.34,2.67,4.06-2.58-.57-6.45-1.64-9.43-11.5-24.94-8.86-56.31-4.78-82.9,4.13-18,3.77-36.22,1.4-54.3-1.74-13.26-3.23-26.71-6.79-39.9-3.17-11.77-9.91-22.59-9.68-35.31C956.72,400.86,971.46,369.39,976,335.84ZM212.59,533.44c-7-11.35-15.39-22-21.22-33.87-3-6.16,6-7,9.7-9.79,1.86-1.4,4.55.26,2.3-4.16-14.06-24.56-26.44-45.68-31-74.88,13.79,25,26,44.8,46.63,63.29,3.3,3,5.85,1.3,16.06-10.54-.61,12.06-.31,22.67-1.8,33.43-.92,23.94,7.46,50.82,23.25,69.17.39.42-.5,3-1,3.06-4.87.61-11.57,7.07-13.86,2.69C234.08,557.25,221,547.15,212.59,533.44Zm-3.07,1007.17a19.57,19.57,0,0,1-17.23-3.26c-15.39-11,1.12-20.3,1.29-30.42.14-8.84,3.37-11.7,12.25-6.29,3.62,2.21,9.72.37,14.49.37-3.25,11-6.31,21.3-9.36,31.63C210.16,1535.32,212.84,1539.69,209.52,1540.61Zm20.44-4.5a7,7,0,0,1-9.15,4.65c-4.88-1.64.16-4.23.51-6a325.36,325.36,0,0,1,8.35-33.89c.78-2.5,5.29-3.84,8.08-5.71.52.8,1,1.61,1,1.61C235.74,1510.61,233.21,1523.45,230,1536.11Zm4.1-46c-11,1.74-22.3,3.85-33.28-1-2-.9-1.64-1.26-.76-2.66,9.69-15.4,10-33.32,12.78-50.41,2.93-18.09,4.37-36.46,5.73-54.76,4.61-51.84-14.47-101.45-18.14-152.9-1-12.67-1.92-25.72-2.38-38.23-.7-18.9,5.75-38,6.32-57,.24-11.88,2.58-12.1,15-8.09,12.45,2.51,9.08,9.6,9.81,19.77-2.33,55.36,12.16,117,22.15,172.9,8.77,31.55,5.29,63.35-.4,95,1.57,23.73-4.13,47.86-6.21,71.74C244,1489.73,237.29,1489.57,234.06,1490.09Zm36.76,13.45c-5.28,11.77-4.31,24.52-6.15,36.83-.8,5.33-6.41,1-8.66,2.57-29.5,1.38-5.22-19.55-5.4-34-.74-21.79,13.61-3.52,19.24-7.74C270.2,1502,271.06,1503,270.82,1503.54Zm11.89,31.62c-.23,1.51-4.51,3-7.08,3.33-1.05.15-1.09-2.59-.77-4.56,1.65-10.16,3.07-20.38,4.11-30.63.47-4.66,5-3.46,6.91-5.89C286.87,1510.71,283.72,1523.58,282.71,1535.16Zm185-82.12c-55.06.81-110.9-1.4-164.78,11.31-2.57.83-2.86-1.6-2.49-3.16,5.7-24.47,4.62-49.36,4.6-74.17s6-48.74,11.71-72.78c10.43-45.08,17-91,22.32-137,1.43-11.22,2.82-22.45,3.95-33.7.38-3.87,3.19-2.84,4.67-2.31,13.06,4.65,25.52-1,38.23-2,32.54-1.84,64.77-6.28,96.15-15.2,5.07-.68,10.71-5.37,15.6-3.95-1.77,10,6.81,15.6,11.65,22,10.46,14.06,24.36,24.85,38.27,35.47,14.57,11.12,32.26,18.6,42.37,35,7.77,12.57,8.68,27.12,9.81,41.27,3.33,38.59.54,77.43-10.62,114.64-4.5,26.25-11.46,52.16-27.43,74.08-4.61,6.35-5.72,16.41-13.65,16.66C519.32,1456,493.59,1452.85,467.69,1453Zm123.38-52.51c11.39-32.83,17-67.4,21.45-101.75,1.18-8.86,1.37-18-.64-27.07,0-37.72-6.35-73-42.92-93.61-23.24-15.1-49.64-33.07-63.8-57.76,0-2,1.62-3.84,6.49-5.33,13-4,25.53-9.21,38.32-13.78a3.26,3.26,0,0,1,2.87.8q24.75,29.31,49.35,58.75c19.67,23.47,29.11,51.81,39,80.1,14.74,35.9-2.5,73.65-11.35,108.93-11.13,33.85-23.46,67.31-35.83,100.57-3.26,7-9.87-.89-13.16-3.19-13.16-9.23,1.54-16.28,3.55-24S588.69,1408,591.07,1400.53Zm-35.34,82c-10-8.37,2.91-12.19,5-18,2-5.39,6.2-10,9.67-15.26a9.14,9.14,0,0,0,6.16,7.83c14.19,4.88,7.85,10.89,3.65,20.22C573.41,1492.4,565.33,1490.54,555.73,1482.53ZM597,1509.74c-4.6,5.87-12.08.53-17.69-1.54-3.64-1.35-4-5-1.08-9.31,6.59-9.57,12.1-19.89,18.11-30,2.43,2.09,4.22,5.73,8.52,6.68,5.66,1.26,5.9,5.28,3.91,9.73C605.08,1493.58,602.47,1502.78,597,1509.74Zm28.23-21.1c-2.49,5.92-5,12-6,18.3-.89,5.44-5.56,3.73-7.17,5.82-3.31.49-3.67-.77-3-2.81,2.79-8.08,5.45-16.2,8.43-24.21,1.5-4,6.09-2.13,8.85-3.9C627.66,1484.4,626.25,1486.28,625.25,1488.64Zm9.39-23.54c-5,12.9-15.47,5.1-23.64,3-12-3.17-10.89-9.62-6.24-19.68,21.08-44.65,36.83-91.55,48.1-139.61,4.55-18.45,8.51-37.26,6.12-56.52-1.32-10.65-8.16-19.18-12.16-28.8-6.61-15.89-9.33-33-18.8-48.17-28.1-47.32-71.7-83.37-99.33-130.76-15.91-25.33.7-34.18-20-55.41-.69-.75-3-1.28-3.26-.93-1.11,1.49-2.89,4-2.36,5,7.65,14.38,5.05,30.75,9.16,45.87,4,14.55,11.49,26.84,21.34,37.83,11.74,13.11,2.66,15.65-7.65,18.09-26.13,6.17-51.08,16.57-78,20.37-32.54,4.48-65.23,6.74-97.91,9.63-2.89.24-6.07,3.91-5.8-4.52.68-21.75-1.91-43.48-3.26-65.17,1.75-7.39-6-5.18-6.24,1.11-.21,73.73-11.15,146.76-23.1,219.44-7.53,42.08-20.67,83.49-18.76,126.8a433.06,433.06,0,0,1-5.88,71.93c.35,4.78,4.45,12.43.29,13.77-10.9,3.49-23.19,5.87-33.29-2.11,4.35-21.91,7.73-49.09,7.95-72.62.48-18.32,5.34-36.59,5.06-55.22-3.7-61.39-21-121.11-25.29-182.41-2.74-38.86.47-77.88,6.07-116.33.36-2.86.88-7.68-1.89-7.94-9.34,0-10.39,32.54-12.95,40.38-1.1,6.58-1.24,13.32-2.16,19.94-.6,4.33-4.42.86-4.75.66-20.26-12.62-43.55-21.66-58.35-41.21-16.44-21.62-31.18-44.74-35-72.18-8.41-35.06,1.38-70,2.89-105.2.37-107.28-37-158.74,40.35-259.8,5.08,7.22,32,49.36,41,41.39,2.22-1.82.62-3.54-.42-4.68-20.32-22.18-39.46-48.75-47-77.61,18,8.53,34.12,22.26,51.38,32.68,2.79,1.86,5.52,3.82,9,2.87,8.37-6.66-19.35-20-23.8-24.13-4.64-3.82,13.42-2.21,3-12.76-20.26-21.88-40.37-43.61-68.88-55.47-8.5-3.54-15-10.32-1.77-17.74,4.8-2.68,3.86-6.53.88-10.25-20.61-25.77-32.83-56.56-34-89.78,11.44,26.43,21.58,52.62,40.46,74.37,5.61,6.14,6.4-2.75,8.86-5s3.41-6,6.27-11.41C160.89,524,191.19,561.3,225.69,589c5.31,4,13-4,19.75-6.15,16.48-5.31,31.77-10.58,50-3,18.79,7.86,29.75,26.59,49.54,32,13.4,3.68,26.68,7.88,40.22,11,14.18,3.26,28.6,5.49,42.92,8.16.33.06.94,0,1,.13,1.87,9.79,3.8,19.59,5.06,29.46-17.41,4.48-40.58,1.56-58.28,8.75-1.38.45-5.2-.12-4,2.76,4.39,6.43,36-1.68,45.37-.9,3-.2,8.71-3.15,9.45,2.58.85,6.65-6.19,5.69-9.82,6.87A124.5,124.5,0,0,1,398.72,685a454.49,454.49,0,0,0-132,31c-69.6,32.25-23,179.15,61.9,161.54,80.43-9.39,161.07-25,242.16-24.24,61,6.42,118.19,32.8,179.06,39.49,18.83,1.47,37.77,2.26,56.68.29,5.73-.6,11.94,1.65,13.72,6.49,2.23,9.71-19.78,15.23-16.84,25.61.47,3,2.57,6.21,6.85,9.82,11.38,9.6,6.37,14.7-5.78,17.81-14.39,2.87-23.74,14-34.49,23.07-2.69-11.63-7.07-19.86-14.63-29-9-4.78-7.6,8.09-4.25,12.44,15.5,30.84,4.59,66-1.84,97.94-8.46,33-25.1,61.46-44.5,88.87-8.83,12.46-7.72,40.08,2.67,54.49,5.75,8,9.34,18.58,16,25.72,12.34,13.17-.45,20.53-4.56,30C688.16,1325,657,1393.24,634.64,1465.1Zm146.87,72.74a185.2,185.2,0,0,1,37.41,7.4c7.77,2.76.27,8.76-.57,12.72-1.66,7.84-5.49,15.21-8.47,22.92C805.72,1567.78,780.15,1547.3,781.51,1537.84ZM954.9,29c-6,41.62-19.73,82-42.7,119.09C917.53,104.73,910.7,57.14,954.9,29ZM910.41,199.58c.58-22.33,1.35-42.43,17-60.06C940,122.8,941.82,102,949.32,83.14l2.4.11c5.67,82.19-15.91,43.94-19.57,114.29-1.19,13.64-7.07,25.92-10.12,39-3.24,48-7.86,94.46-24.31,140.55C877.52,315,902.4,260.42,910.41,199.58Zm-.62,554.55c-31.14-23.51-54.44-52.27-88-70.47-10.64-4.85-8.87-13.23-12.9-21.14,21.8-.5,42.4,3.82,62.16,11.35,23.07,10.94,4-41.33,48.66-81.87,10.18,20.72-.93,40.08-4.54,60.16-2,11.13-2.14,22.61-4.41,33.66-3.79,18.47-.3,37.29-3.52,55.76C906.67,745,908.63,748.78,909.79,754.13ZM912,585.59c-54.11,54.37-26,92.1-53.65,74.23-16.85-2.74-33.27-7.89-50.79-6.21-1.82.17-4.9-5.87-6.32-9.46-8.74-22-21.07-41.48-39-57.18-3.91-3.42-7.89-6.76-11.84-10.14-2.79-2.39-.87-3.38,1.22-4.58,28.83-17.63,62.82-36.8,73.51-71,2.77-11.11,17.33-3.39,25.25-12.87-21.86,40.47-39.26,81.76-21.22,126,3.84,8.5,10.63-.71,14.62-2.11,27.11-8.94,47-29.72,66.54-49.63C917.78,557.31,915.35,583.43,912,585.59Zm-10.16-25.5c-6,6.42-67,61.69-68.71,41.57-.58-22.84-3.27-49.1,7.66-73.52,5.57-15,12.74-30.07,23.09-42.9,1.35-1.68,1.46-3.09.68-4.32-2.18-5.49-33.15,7.74-41.46,6.94-19.6,2.25-39.18-2.31-57.83-8.11-6.53-1.14-3.36-4.18-1.84-6.24,11.42-15.48,24.7-29,42.79-36.6,6.75-2.83,8,5.33,12.39,7.57.67,3.72,10.27,7.92,8.63,8.95-12.74,7.53-32.69,3.78-41.91,17.18,1.88.68,4,2.28,5.6,1.9,16.36-3.76,32.43-8.78,49.24-10.48,17.83-1.81,35.63-4,53.62-3,6.7-.05,1.86,22.35,4.33,28.16.85,4.69-5.5,10.74-8.76,16.09-12.75,20.95-25.65,41.82-38.17,62.9-1.09,1.84.17,5.07.33,7.65,2-1.26,4.73-2,5.85-3.85,14.52-21.46,26-46.95,41.64-66.7,5.23,13,6.11,28.35,9.94,42.09C910.49,552.21,905.73,556.57,901.85,560.09ZM652.5,460c-12.82-30.16-32.66-55.89-53.24-80.95-8.29-10.09-16.85-20.5-29.2-26.49-2.21-1.08-1.42-2.79.67-4,13.18-7.74,25.51-18.16,39.72-22.46,9.27-2.81,21.22,3.23,32,5.31,17.34,3.69,34.62,4.71,52,0-14.8,34.12-25.32,70.09-27.22,107.18a31.19,31.19,0,0,0,3.26,17.85c6,8.86,23.09-9.41,30.76-13.44-10.44,28.42-18.79,54.56-27,81.76-21.53-21.37-44.18-38.93-75.11-51.68,19.28.17,33.25.21,51.38-3.77C659.9,467.38,653.32,461.9,652.5,460ZM844.39,247.27c-7.21,4.6-13.69,10.36-20.47,15.65-5.63-21.69-6.52-44.24-20-62.86-1.65-2.27-1.75-4.13.84-6.5,4.87-4.89,8.44-11.25,12.5-16.87,13.6,19.2,19.29,43.29,29.36,64.54C847.41,243.29,847.48,245.3,844.39,247.27Zm7.83,5.93c2.94,8.64,5.55,15.19,9.1,24.6-6.57-5.54-13.57-7.64-19.47-11.32-7.81-4.87,2.71-5.36,3.54-8.63C845.89,255.85,849.83,254.72,852.22,253.2Zm-26.06,20.6c7.71-4.79,17.56,2.27,24.19,7.33,10.16,6.88,16.1,7.55,18.1,20.74,1,2.31-2.58,3.41-5.75,2.46-21.73-6.56-43.94-2-66.43-3.45C806,291.76,814.88,280.84,826.16,273.8ZM835,397.45C828.08,367.73,817,336,797,313.07c17.62,0,36.91.6,56.14-.19,15.85-.65,23.87,6,24.91,21.64.73,4-6.1,2.25-8.43,2.36-12-2.43-13.75,3.19-13.76,14,0,18.3-1.08,36.48-6,54.68-3.5,13-10,24.11-15,36.14-1.63,3-3.12,3.95-5.67.63-21.88-19.84-33.3-47.33-42-74.88-1.53-4.44-4.23-4-6.69-1.93-31.16,25.13-57.49,52.08-91.08,74.67,25.11-44,52.65-80.13,85.08-117.35,9.64-11.28,14.24-9,22.66,4.8a226.34,226.34,0,0,1,22.09,47.07c3.63,7.94,3.79,26.08,12.54,29.37C835.23,403.8,835.72,400.24,835,397.45Zm54.7,31.16c-9.35-5.59-18.4-11.66-28.75-15.43-1.1-.4-1.65-2.36-1.86-2.68,2-11.26,1.86-30.74,14.61-15.08,4.73,3.72,7.68,9.71,12.41,13.43,6.11,4.82,4.19,11.62,6,17.46C892.48,427.65,891.79,429.88,889.67,428.61Zm5.06,21.56c-3.12,1.75-5.92-.91-8.5-.85-16.75.95-33,.78-49.58,4.07,7.65-11,14.22-21,18.42-32.39.6-1.64,9,1.47,13.65,4.44,6.39,4.09,12.72,8.7,19.73,11.32C895.86,439.54,891.66,446.25,894.73,450.17Zm-29.12-69.81c-1.82-10.24-.41-22.08-1.19-32.7,0-1.11-1-2.54.9-2.48,5.17.15,14.52-.38,14.84,1,3.91,17.24,6.49,34.79,9.77,54.41C881.13,392.15,874.67,384.67,865.61,380.36ZM685.14,524.14c10.17-28.68,17.18-59.16,29.05-87,6.69-12.3,20.25-18.83,29.63-29.35,9.61-10.77,22.15-18.92,33.43-28.18,2.79-3,4.73-2,5.6,1.53,3.51,17.43,13.17,32,21.52,46.85-18,7.86-74.7,51-33.07,62.55-17.82,9.43-39.09,12.49-57.39,22-9.76,4.19-18.78,9.91-28.48,14A6.29,6.29,0,0,1,685.14,524.14ZM893,165.67C919,191.9,880.16,272.43,882.15,308.5c-3.06-9-6.34-17.94-9.14-27-4.33-14.05.69-27.67,2.75-41.31C880.93,215.39,886.74,189.76,893,165.67Zm-9.14-18.95c3.45,25-8,48.3-12.85,72.38-2.71,11.76-4.49,23.74-6.82,36.37-5.87-13.55-13.27-26-16.37-39.44-.1-38.29,26.81-73.14,16.87-113.08C871.56,120.44,880,132.47,883.9,146.72ZM841.31,72.39a15.27,15.27,0,0,1,1.22-3.47c.52.38,1.39.68,1.5,1.16,3.29,14,20.33,22.85,15,37.42.26,34.53-11.8,61-18.52,92.43C810.19,153,841.43,121.44,841.31,72.39ZM812,100.84c7.1-22.24,10.67-42.18,15.59-65.63,15.88,41.66-4.45,76.89-8.23,114.72C809,137.47,807.52,114.07,812,100.84Zm-31.11,41c3.84-7.11,8.76-13.64,13.89-21.45,6.13,14.53,12.63,28.56,17.64,43.1.87,2.54-5.06,7-7,11-9.78,20-13.25,2.24-18.38-3.15C778.29,158.44,769.92,157.34,780.92,141.88ZM664.1,262.64c15.16-5.28,30.37-9.6,46.35-9.55,17.21,1.56,19.73-2.6,14.53-19.84-4.43-14.71,0-29.62,1.61-44.43,2.53-19.89,4.74-37.69,11.37-57,44.45,38.45,65.49,80.07,79.34,135.31a3,3,0,0,1-.35,2.63c-9.93,9.12-18.94,19.81-30.28,26.62-7.31,4.38-6.12-6.89-7.16-10.34-9.35-32.08-18-64.55-22.3-97.77-.41-3.89-2.23-12-7.27-9.16-.38,3.83-1.1,7.77-.53,11.51,6.09,35.23,12.15,70.52,23.29,104.59-43.9-11.75-90.75-10.27-134.78-.08-2.36.42-3.54,2.65-2.84,5.05.78,2.71,3.17,3.58,5.59,2.85,42.73-9.9,88.79-8.86,131.08,2.15,2.49.7,3.41,2.4,2.08,3.92-14,16-28.87,31.3-41.71,48.17-21.19,27.31-41.23,55.59-55.07,87.32,2.88-30.65,6.85-60.8,17.14-89.83.08-8,19-31.32,4.56-31.84-36.61,1.71-74-.25-107.62-16.53C610.81,283.86,636.74,272.45,664.1,262.64Zm-33.49-.89c3.21-.63,2.67,1.85.36,3.17-18.05,8.93-33.3,21.5-47,36.12-12.65,12.39,21.24,15.51,13.75,21.84-10.61,5.37-21.13,10.94-31.86,16.07-5.06,2.42-6.84-.53-6.84-12.13-1.71-8.15,4.78-15.23,7-23.46C583.86,229.52,549.32,244.66,630.61,261.75ZM556.7,305.18c-.22,1.38-1.71,2.56-3.41,4.95-8.29-40.25-41.3-64.51-59.2-100.38,21.37,12.68,41.16,20.72,63.58,29.86,10,3.9,5.88,12.63,5.59,18.11C562.43,273.61,559.18,289.39,556.7,305.18ZM335.13,105.05c-7.25-19.87-13-40.35-12.55-61.78C354.53,69.84,399.3,74.05,433.78,98c14,8.45,21.92,22.07,34.68,30.91,2.87-4.69,7.07-9,8.36-14.13a304.18,304.18,0,0,1,35.79-86.05c1.79-3.28,1.06-5.12,5.16-.39,31.55,31.83,37.8,79.49,34.19,122.37-.3,4.58,4.77,4.78,6.8,3.78,14.33-7.08,30-9.77,45.34-10.62,10.4-.58,21,5.93,31.8,8.07,7.9,1.58,14.63,5.6,20.9,9.6,4.93,3.15-1,8.57-3.17,11.38-21.32,27.62-51.52,45.66-83.72,57.69-8.89,3.05-16.15-3.89-23.81-7.09-13.63-5.69-26.9-12.24-42.59-19.47,19.85-4.2,119.24-11.54,117.17-29.79-.81-1.11-3.83-1.68-5.28-1.09-25.21,10.34-52,12.62-78.63,15.86-10.51,1.28-21.06,4.11-31.46,3.59-4.13-.21-.52-8.1.49-11.44,6.71-29.92,12.13-60.47,11.2-91.08.13-4.89,2-12.72-5.08-12.3-4.92.29-3.08,8.54-3.52,13.12-1.73,36.59-10.38,70-15.81,106.71-45.87-30-91.33-59.12-129.91-98.1-2.93-2.66-8.15-6.11-10.46-3.62-3.44,3.71,2.8,5.62,4.89,8.12,9.66,11.58,20.08,22.45,32,31.8-7.13,1.62-29.1,15.62-32.88,9.87C346.6,133.48,340.29,119.51,335.13,105.05ZM460.52,248.17c.46-1.09-1.46-4.56-2-4.49-3.75.44-8.12.52-11,2.55-24.66,15.6-52.68,24.53-82,21.26-1.46-.24-3.17,1-4.76,1.59,8.41-4.1,8.65-15.84,18.59-18.63,35.09-8.94,69.34-24.45,102.71-37C492.86,221,467,287.36,458.64,293c-.72-.69-1.58-1.8-1.49-2.67C458.49,276.31,454.63,261.88,460.52,248.17Zm-72.77,38c-5.41-2.95-11.15-5.31-18.16-8.61,29.67.55,54.76-6.82,78.73-21.3-.38,15-1,30.06,2.55,45,.31,1.73.73,3.24-2.75,3.54C425.38,306.76,406.63,296.48,387.75,286.19Zm17.59,16.6c-41-1.12-24.68,18.44-42.14-18.12Zm-56.61,14.62-23.37-45.88c10.92-5.21,55.64,36.25,27.83,40.85C350.89,312.84,348.21,313.46,348.73,317.41Zm60.34-155.2c.1-3,.27-6,.4-9,18.18,10.07,32.42,25.59,51.43,34.64,7.21,3.53,13.24,9.48,19.59,14.18-17.19,10.26-36.53,16-55,23.75C341.24,259.08,410.2,230.77,409.07,162.21ZM175.85,210.82c24.24-6.77,49.18-14.37,74.43-13.21,4.14.34,8.48,3.36,11.88-.72,3.23-3.89-2-6.12-2.69-9.16-2.23-10.32-5.59-21-4.79-31.22.87-11.06-3.14-21.59-1.43-32.27A47.11,47.11,0,0,0,251.33,102c-.38-1.2,1.4-3.08,2.18-4.65a261.42,261.42,0,0,1,46.18,51c6.79,9.65,13.05,19.69,19.08,29.84,3.16,5.32,7.41,3.93,10.23,1.45,3.56-6.41,71.67-46.88,69.52-33.45,5.34,46.58-19.92,87.05-48.3,121.52-3.66,4.25-8.81-3.34-14.26-3.39-17.37-5.61-26.61-7.19-10.37-20.43,16.13-22.63,33.2-44.6,50.19-66.6,2.46-3.19-1.12-2.84-1.7-4-1-2.16-3.56-1.3-4.52.05-19.89,24-37.68,50.15-58,73.69-7.78-19.39-24.82-97.53-41.65-103.74-.15,2.51-1.27,5.51-.29,7.48,14.73,32.3,26.7,67.48,32.71,101.92-3.48,0-7.23.45-10.38-.68-15.49-5.57-31.8-7.42-47.71-11.07-39.5-7.13-75.44-9.41-116.3-5.4C144,223.49,159.47,216.61,175.85,210.82ZM368.68,405.34c-.35,2.33-2.49-.43-3.13-1-24.18-22.78-39-52.86-55.65-81.12-2.66-4.7-5.07-.22-5.59.78-8.63,16.8-23.11,28.17-37.32,39.47a103.92,103.92,0,0,1-49.91,21.68c-6.62,3.7-12,4.9-7.9-5.58,9.73-24.93,11.25-53.37,31.67-73.83,8.36-8.53,4.28-14.16-7.08-14.72-40.63-4.56-74-25.2-108.71-45.41,58.09-6.6,115.77,5,172.82,15.46,6.46,1.12,4.39,5.11,2.5,8.18-9.77,15.89-19.26,32-31.19,46.43-10.67,12.85-20.86,26.21-31.38,39.12-1,4.18-11.19,5.47-5.63,10.39,4.14,3.66,9.07-3.14,12.32-6.83,26.05-27.6,49.24-57.44,67.44-90.74,21.5,31.82,33.33,69.28,43.22,106.28,1.43,5.09,8.6,3.71,6.68-2.07-2.07-13.16-2.69-26.62-8.93-38.95,9.11,8.48,21.37,15.17,20.92,29.13C373.36,376.5,370.83,391,368.68,405.34Zm173.41,66.58c-2.35,20.93-4.27,41.87-11.92,61.84-8,17.56-9.43,38.49-21.67,53.77-10.06-33.88-19.65-67.94-38.45-98.15-4.83-8.18-11.89,1.78-16.81,4.71A282.25,282.25,0,0,1,393,521.44c-16.58,5.2-33.74,7.6-50.19,13-4.08,1.35-10.1,1.3-13.42-.87-2.9-1.91.75-7.06,1.42-10.81,9.41-41.19,27.67-81,56-112.73,6.22-6.53,13.74-12.9,17-20.84,2.91-7.1-5.25-13.61-9.29-19.6-12.86-17.42-24.22-36.32-41.72-49.63,107.57-33.11,93.32,41.21,139.45-75,1.33-3.26-.94-9.5,2.93-9.29,3.39.17,6.85,5.13,9.69,8.47,23.92,26.47,41.09,57.87,48.13,92.94,4.54,15.32-10.35,15.62-17.3,21.45-8.37,6.86-18.82,11.34-28.19,17,1.13-26.35,6.23-52.31.07-78.93-1.92-9.67-.64-19.95-6.15-28.94-.88-1.43-1.43-3.68-3.37-2.31-1.39,1-2.93,3.5-2.61,4.93,7.11,34.37,7.55,70.12,3.48,104.84-.35,3.57-1.79.84-2.77.3-24.87-12.54-75-46.74-101.05-45.15C407.17,346,430.92,347,447.25,357.17c14.89,8,30.25,15.63,43.52,25.86,4.58,3.53-5.47,9.11-9,11.46-30.35,20.39-57.2,44.9-84.49,69-6.19,6.46-51.59,42.92-45.35,48.56,3.07,2.94,5-.35,7.21-2.31,45.47-39.81,88.22-83,139.35-115.68,2.46-1.75,2.17-.2,2.43,1.46,4.09,26.62,5.66,53.46,6.83,80.31.92,15-2.92,30.37,1.53,45.11,9,6.2,5.84-53.82,5.77-60,.55-23-.63-44.89-6.35-67.9C542,403.78,569.1,423.85,600.51,438c3.38.87,6.24,8.66,9.51,2.76,2.06-3.72-4.72-7.38-8-9.31-28.76-16.05-56.18-35.31-87.71-45.47,11.57-11.67,27.82-19.77,41.86-28.58,16-12.82,81.08,89.23,87.93,104.91a249,249,0,0,1-92.35-2.89C543.25,457.43,542.78,465.77,542.09,471.92ZM382.83,368.08c14.89,13.76,14.35,19.61-3.87,39C380.09,393.32,384.27,381.26,382.83,368.08ZM712.76,642.61c-11.85-6.52-9.89,5.54-11.26,9.54-14.75,42.55-39.69,80.73-71.59,112.46-4.22-15.68-13.38-29.37-15.62-45.43-1.61-11.5-4.26-22.92-5-34.46-1.19-17.46-1.68-35-1.27-52.48.1-4,1-8.13-2.73-8.92-5.09-1.08-3.55,5.35-5.84,7.66-7,7-16.44,9.61-25.48,11.71-26.2,4.58-54.11,13.93-80.67,9.57-5.24-1.45.79-8.48,2.7-10.75,25.67-35.11,56.64-67.28,97.05-85.17,5.52-2.62.36-7.64-1.37-9.81-18.28-23.07-28.83-50.16-39.39-77.12,43.88,5.46,82.43,31.26,114.23,60.94,3.71,4.78,1.63,31.7-3.91,33.34-2.22.66-7.09-5.16-9.72-8.78-8.28-11.44-20.76-18.28-30.21-28.24-7.2-7.6-15.42-13.42-23.75-19.37-2.25-1.6-4.08-6.15-7-3.54-3.88,3.46.73,6.43,2.88,8.42,20,18.56,40.32,36.87,61.23,55.88-30.59,8.85-124.84,37.37-134.34,67.22,3.93,5.69,8-1,10.19-2.81,37.8-29,83.74-40.12,127.59-57.46-8.75,47.36-16.6,93.28-24.36,140.51-.46,4-1.81,9.87,3.39,11.17,6.36,1.6,5.82-6.2,6-8.55,6.15-44.95,16.63-89.14,23.08-134,1.9-8.17,7.32.91,9,1.87,30.24,17.54,60,36,86.05,59.55,2.65,2.38,6,2.3,7.56.78,2.41-2.31-1-4.13-2.53-5.71-26.41-29.47-61.28-47-94.4-67.06C704,552.05,742.75,542.23,774.9,522.5c5.38-1.38,2.19-6.13-2.42-3.78-31.47,14.52-64.25,26-95.13,41.72-3.79,1.79-2.43-2.67-2.14-3.6,3.31-10.59,6.66-20.94,18.65-25.6,10.69-4.15,20.78-9.85,31.43-14.12,28.74-11.21,58.31-23,89.78-20.1,18.37-.93-44.87,57.1-51.9,58.45-62.35,36.7,1.22,1.47,41.52,118.68C812.1,695.73,719.37,647.67,712.76,642.61ZM707,1495.33c-7.63-14.7-9.4-32.13-21.4-44.64-1.8-4.81,11.69-20.45,14.87-27.34,1.39,22.81,12.78,41.18,18.93,61.22C721.27,1490.56,710.21,1490.36,707,1495.33Zm30.26-16.8c-3.07-.12-6.69,4.3-9.7-1.61-9-17.65-13.78-36.49-19.11-55.41-3.38-12,6.36-17.62,7.56-26.85.27-2,2.54-2.72,3,.79,6.66,21.07,12.3,42.59,18.53,63.82C738.42,1464.75,745.86,1476.82,737.29,1478.53Zm27.1-9.76c-4,1.7-8.66,2.08-12.41,2.91-8.07-28.77-20.4-55.94-25.09-85.6-1.68-17.63,10.9-28.78,17.46-42.95-1.28,31,13.85,58,24,86.12,3.46,10.57,6.9,21.39,8.15,32.34C777.26,1468.17,768.79,1466.91,764.39,1468.77Zm35.25-6.39c-12.19,5.18-12.64-4.11-14.67-12.75-4.05-17.17-11.2-33.25-17.87-49.56-10.61-23.69-19.86-51.83-12.19-77.83,7.74-14.52,14.31-28.6,22.25-43.13C769.76,1342.3,784.05,1402.56,799.64,1462.38Zm8-179.86c-1.66,9.25.42,20.77-1,29.72-17.85,6.68-10.26,24.24-15.66,36.16-3.51,7.75-.87,16.24-3.73,24.26-3.1-35.17-1.94-70.18-3.54-105.45-1-12.06,9-22.72,13.56-34.24,1.28-3.24,4.51-5.67,3.21-14.27C810.06,1242.4,810.61,1262.18,807.63,1282.52Zm11.68,37.67c-5.11-4.4-2.35-10.93-2.61-16.25-.83-17.44,2.09-34.94.64-52.44-4.56-39.6-19.6-28.65,2.32-70.15,11.23,10.63,10.11,25.33,12.77,38.57,1,5.11-2.24,10.94-2.57,16.5-4,34,3.36,67.27,10.21,100.29C833.29,1331.35,826.08,1326,819.31,1320.19Zm51.63,52.7c-26.24-25.46-25.05-64.8-32.72-98.34-1.72-23.72,4.42-48,1.15-71.88-2-11.27-8.93-19.74-12.85-29.83-3.8-9.8,2.52-16.78,5.44-24.59,10.16-23.57,20.68-48.18,31.29-71,3.76,37.36-8.44,76.55-9.24,114.61-.87,30.56,6.93,59.79,12.45,89.47C871.27,1311.51,871.14,1342.25,870.94,1372.89Zm17.24-32.07c-2.35,4.39-3.91,9.21-7.15,17,2-50.22-9.06-95.36-16.36-144.18-3.81-27.18,3.3-53.25,4.61-79.86.67-13.51,2.19-27,2.81-40.49.8-17.77-5.43-36.18,4.61-53.87,7.42-13.09,11.36-28.16,17.47-44,6.54,36.19.84,68.32-3,103.06-.89,34.13-4.59,68.18-.71,102.44C897.47,1247.75,914.41,1296.59,888.18,1340.82Zm27.06-75.16c-1.35,3.19-1.57,6.84-2.6,11.65-3.36-33.07-12.26-63.7-14-95.55-2.37-43,2.47-85.51,7-128.1,2.09-23.8-1-46.33-5.42-69.32.39-14.89,9.49-28.24,14.61-43.5-.52,35.22,5.46,66.94,11.58,100.85,4,37.18-5.32,74.26-3.63,111.58C917.38,1208.38,941.2,1212.76,915.24,1265.66ZM947,948.15C971.39,1004,946.24,1067,972.27,1122c4.57,9.44-4.51,15.72-8.31,22.77-10.92,20.26-19.49,41.48-28.14,63.48-6.46-44.54-2.37-88.6,1.61-132.82,2.28-17.31.67-34-2.67-50.67-8.53-42.82-15.1-85.12-7.42-128.8C936.82,913.26,940.39,931.28,947,948.15ZM935.92,816.09c-2.57,52.12-30.84,87.91-74.24,114.52-.36-33-5.89-68.85,13-98.3a6.52,6.52,0,0,0-.83-7.45c-3-3.6-7.27-2.61-10.12-1.6-26,8.72-50.66,22.14-78.18,25.58-10.22,1.61-20.68,4.14-30.79,3.3-7.05-1.59-37.81,5.77-35.54-5.91,2.13-33.43,48.69-68.61,76.47-83.4,8.21-4.17,16-9.15,24-13.81,2.9-1.7,2.82-4.21.4-5.84-22.72-14.92-43.64-36.66-52.46-61.46,1.92-2.26,5,.37,7.7,1.13,10.17,2.93,20.55,4,31.19,4.72,16.56,1.12,26.26,15,38.21,24.35C864,727.5,884,743,902.21,759.68c-31.84,14-148.65,48.67-158.77,76.69,1.91,3.13,5,1.49,7.48.23,36.87-21.34,76-37.3,116.06-51.55q19.83-7.57,39.79-14.82c1.72-.63,4.21-1.45,5.4-.69,2,1.27-.5,3-.73,4.53-1.42,32.76-10.25,65.28-21.38,96.15-1.81,7.16-11.23,17.68-8,24.51a7.32,7.32,0,0,0,7.68-4.07c16.52-36.54,31.93-75.87,30.79-116.52C943.8,789.41,940.7,793,935.92,816.09Zm3.45-49.33-1.37,8c-5.85-5.74-18.37-12.26-2.26-15.45C942.49,758.83,937,764.58,939.37,766.76Zm-1.43-63c-1.24,39.16,14.91,41.35-17.36,50.81-7-20-1.48-42.18-1-63,2.58-18.6,3.73-38.32,8.77-56.2.86.91,2.29,1.72,2.48,2.76A422.2,422.2,0,0,1,937.94,703.79Zm28.75-481.56c-15.3,16.61-10.3,37.36-11.84,56.85a274.37,274.37,0,0,1-15.12,70.4c-6.53,18.42-18.55,35-20.4,54.78-1.94,26.74,7.21,53.38,11.68,79.63,7.56,35.72,4,66.9-1,103.84-9.69-45.52-22-83.91-23-129-8.34-41.86-2.57-83.45,13.58-122.67,6-31.4,9.29-64.12,11.15-96.35.11-13.78,8.27-27,9.64-41.48,1.62-17.31,1.45-35.19,11.23-50.5C957.36,171.88,962.13,197.85,966.69,222.23ZM665.57,901.67c4.11-15.52,46.41,8.23,53.67,9.07,6.88,3.62-2.52,12.2-6,12-13.63-3.1-27.06-7.09-40.5-11C667.8,910.3,665.14,904.73,665.57,901.67Zm13.62,39c-10-3.22-20-6.48-30-9.57-9.59-3.17,1.93-6.62,4.32-8.29,6.2,1,40.19,6.4,35.68,13C686.65,939.13,684.1,942.25,679.19,940.67Zm-94-50.34c1.77-4-.73-10.65,6.63-11.39,19-1.18,39.37,2.21,54.73,13.51-3.66,2.95-3.52,9.08-8.43,11-16.3-5.62-33-5.9-49.26-8.86C587.27,894.29,584,893.15,585.19,890.33ZM643,953.24c1.76,10.94-21.14,3-27,2.72-13.21.4-3.69-11.78,4.18-10.68C625,946.56,641.31,948.91,643,953.24Zm-28.37-32.46c-13.09-.76-26.14-2.39-39.17-4-1-.12-2.57-2.64-2.31-3.63,2.2-7.58,11.19-6.31,17.37-6.23,0-.3.11-.61.16-.91,9.52,1.65,19.07,3.12,28.51,5.13,1.52.33,2.53,3,3.78,4.65C620.17,917.56,617.29,920.94,614.61,920.78ZM584,944c-.3,3.17-3,3.33-5.64,3.12-5.87-1.72-32.31,1-31.35-6.25,1.65-8.51,7.87-5.33,16.71-5.87C566.8,936.72,584.85,934.91,584,944Zm-67.81-67c12.75-5.5,28.9-7.88,46.81-5.07,4.55,1.83,7.66,6.41,5.87,11.76-2.28,9.32-28,4.4-37,7.51C524.65,893.07,504.79,883.54,516.19,877Zm21.45,37.7c-9,1.74-18.43,1.67-27.68,2.37-4.45.34-10.1.46-10.47-4.66-.44-8.19,24.79-10.73,29.94-9.47,6.85,1,17.76-3.35,19.24,5C549.32,914.76,541.55,914,537.64,914.7Zm-16.56,23.2c-.5,7-10,7.47-17,7.68-6.86-.85-20.41,6.13-23-3.16-1.86-7.85,20.73-11,26.12-9.42C512,934.59,521.69,929.35,521.08,937.9Zm-88.69-45.42c-3-7.13,21.46-12.37,26.84-14,6.16-.69,32-4.88,33.45,2.08-5.38,16.34-32.68,11.82-42.62,16.25C441.26,897.46,436.32,896.21,432.39,892.48Zm43.32,18.77c1.73,8.27-6.38,6.12-9.62,7.07-10.6,3.12-21.67,4.62-32.56,6.72-9.7,1.52-10.91-7.22-1.6-10.41C439.37,911.93,473.39,900.55,475.71,911.25Zm-64.1-11.91c1.09,2-.25,5.85-4.2,6.83-14.65,3.67-29.27,7.53-43.9,11.31-5.59.92-8.07-1.15-8.65-6.87-1-10,7.29-10,12.79-11.35C379.31,897.66,405.67,884,411.61,899.34ZM272.73,628.53c3.17-10.78,17.91-11.33,27.64-14.14,5.83,2.82,17.17-1.46,14.41,11.49-1.11,5.21-25.65,12.87-30.82,10.31C279.72,634.09,271.05,634.6,272.73,628.53Zm-86.23,72.6c-2.29,6.85-5.07,13.55-7.18,20.45-1.16,3.81-1,9.58-6,8.92-5.23-.69-4.59-6.43-4.3-10.44-1.11-10,5.07-17.18,8.85-25.1,1.55-3.23,5.68-2.88,7.94-1.54C188.42,695,187.36,698.53,186.5,701.13Zm-33.07-5.92c-4.44-6.56,25.91-48.37,22.95-24.84C173.58,674.05,162,715.31,153.43,695.21Zm19.14,57.62c-1.43,7.09,1.2,28.38-4.55,31.63-11.51-3.39-7.54-24.5-4.54-33.09C165.36,747.13,175,744.92,172.57,752.83Zm-17.3-25.35c-2.25,5.76-1.16,25-9.71,27.19-13.17-5.67-1.48-25.82.56-35.66.6-1.82,2.2-5.06,5.43-3.76C156.48,717.22,154.78,721.78,155.27,727.48Zm-6.56,49.26c-.1,7.88,7.27,34.32-3.71,34.92-6.4,1.9-6.66-17.6-8.39-21.2C138.06,781.51,138.37,762.2,148.71,776.74Z"/></g></g><g id="Red_Japanese_Frames" data-name="Red Japanese Frames"><path class="cls-8" d="M0,20V1580a20,20,0,0,0,20,20H956a20,20,0,0,0,20-20V20A20,20,0,0,0,956,0H20A20,20,0,0,0,0,20ZM924,1548H52V52H924Z"/><path class="cls-9" d="M952.1,15.41,928.69,38.83A4,4,0,0,1,925.86,40H50.14a4,4,0,0,1-2.83-1.17L23.9,15.41A2,2,0,0,1,25.31,12H950.69A2,2,0,0,1,952.1,15.41ZM40,1549.86V50.14a4,4,0,0,0-1.17-2.83L15.41,23.9A2,2,0,0,0,12,25.31V1574.69a2,2,0,0,0,3.41,1.41l23.42-23.41A4,4,0,0,0,40,1549.86ZM936,50.14V1549.86a4,4,0,0,0,1.17,2.83l23.42,23.41a2,2,0,0,0,3.41-1.41V25.31a2,2,0,0,0-3.41-1.41L937.17,47.31A4,4,0,0,0,936,50.14ZM925.86,1560H50.14a4,4,0,0,0-2.83,1.17l-20,20a4,4,0,0,0,2.83,6.83H950.69a2,2,0,0,0,1.41-3.41l-23.41-23.42A4,4,0,0,0,925.86,1560Z"/></g></svg>