<svg xmlns="http://www.w3.org/2000/svg" xmlns:xlink="http://www.w3.org/1999/xlink" viewBox="0 0 976 1600"><defs><style>.cls-1{fill:none;}.cls-2{fill:#f4f3ef;}.cls-3{clip-path:url(#clip-path);}.cls-4{fill:#50b271;}.cls-5{fill:#ff8db6;}.cls-6{fill:#d81e1e;}.cls-7{fill:#592116;}.cls-8{fill:#992d17;}</style><clipPath id="clip-path"><path class="cls-1" d="M960,22V1578a6,6,0,0,1-6,6H22a6,6,0,0,1-6-6V22a6,6,0,0,1,6-6H954A6,6,0,0,1,960,22Z"/></clipPath></defs><g id="Paper_Backing" data-name="Paper Backing"><path class="cls-2" d="M960,22V1578a6,6,0,0,1-6,6H22a6,6,0,0,1-6-6V22a6,6,0,0,1,6-6H954A6,6,0,0,1,960,22Z"/></g><g id="Wikipedia_Cropped" data-name="Wikipedia Cropped"><g class="cls-3"><path class="cls-4" d="M484.52,1477.06c-20.62-22-3.86-88.53,37.2-88.65C545.39,1415.37,510.7,1466.45,484.52,1477.06Zm216.87-77.91c-22.89-3.31-51.45-45.77-33.28-64.93,3.22-.26,4.66,3.91,8,3.48,2.41,0,4.75-2.42,7.09-.62C703.19,1350.11,715.82,1385.18,701.39,1399.15ZM138.86,1191.61c-36-6.76,24.57-63.8,45.06-48.19,4.72,7.35,13.68-6.81,16.45,2.52-1.11,30.79-35.87,43.22-61.51,45.67Zm490.5-85.23c-32-17.75,5.21-66.28,25.81-77.32C691.32,1026.81,649.89,1104.55,629.36,1106.38ZM287.47,726.53c-28.19-17,3.21-60.18,25.43-72.19C341.5,664.94,308.09,721.53,287.47,726.53Zm526-183.63c-4-3.32-10.4-.69-13.16-4.9-2.85-31.25,26.25-55.93,51.73-67.61C904.2,455,847.13,544.45,813.43,542.9ZM199.7,275.05c-94-1.76-4.24-53.34,37.15-37.83,4.05-.39,10.28-1,9.68,4.95C268.8,265.58,213.82,276.72,199.7,275.05ZM336.79,150.63c-23.85,3.65-77.28-86.44-27.48-67.7C329.75,89.2,372.17,135.57,336.79,150.63Z"/><path class="cls-5" d="M588.43,1372.54c-25,2.33-35.53-22-53.5-28.94-12.77,7.87-27.3,18.05-43.41,17-7.71.33-12.22-1.66-12.82-12.3-4.31-30.66-42-4.35-41.22-26.33-4.68-38.59,27.21-54.39,43-80.39,20.89-33.31,42-66.53,62.41-102.24,25.41-5.93,26.25,34.39,37.05,50.68,20.41-3.3,37-7.3,58.57,4.26,17.5,9.46-16.65,34.37,13.65,42.62,27.24,9.69-9.38,34.53-19.8,42.16-.73,16.13,10.68,32.24,2,52-2.83,7.13-6.44,6.3-10.92,4.46-34.51-7.41-12.74,35.66-35,37ZM543.9,1241c-29.63,5.53-27,40.49,2.52,40.72C572.18,1278.48,568.13,1242.33,543.9,1241Zm-326-302.19c-46.51-15.15-36.95,20.68-45.76-29-5.3-13.63-32.69-1.94-26.6-18.86,2.8-18.35,23.54-26.33,20.64-40.32-13.33-12.41-16.14-67.36,9.53-55.32,31.85,2.76,22.28-33.52,37.1-33.86,16.24,3.83,31.61,11.65,42.59,23.84,7.75,11.63,24-20.93,56.72-20.47,3.13,0,8.44,1.39,8.85,10.67,3.12,40.8,42.88,4.95,41.95,26.67.65,11.34.25,24.62-7.69,37.15-5.29,10.38,29.61,17,34.58,36.55,4.49,7.08-1.18,13.31-3.61,19-5.94,14.36-8.76,41.87-28.17,31.7-36.17,10.58-20.35-43.13-47.48-49.7-9.68,10-14.28,13.78-29.3,15.37-14.5-2.27,11.44-24.95.49-32.95-9.13-12.57-18.27-10.64-30.1-3.32-5,2.33-9.45,11.67-8.34,17-.49,5.06,4.17,9.71,1.92,14.08-21.46,16.53-14.79,49.79-27.32,51.87ZM711.46,783.09c-17.62-3.11-33.27-32.4-23.92-46.39,5.69-15.63.41-22.38,12.24-37.66,3.36-3.69-.56-6.89-1.14-10.5-1.38-11.54,6.59-18.1,5.27-27.32.69-7.32-1.73-18.47,4.79-24.24,5.36-9.62-1.74-24.58,4-36,5-28.18-5-42,22.09-61.65,24.64,5.39,24,36.61,38.95,53.64,9.85-.34,19.32-7.37,29.68-6,48.06,1.59-10.69,23.26,50.2,41.46,2.84,12.51-12.54,29.3-18.66,37.62a6,6,0,0,0,0,8.33c13.88,13.34,24.93,46.8,8.74,63.1-43.16-9.22-16.13,33.13-37.67,31.55-16.72.42-28.56-8.16-41.19-16.7-4.88-3.17-8.39,1.55-10.77,5.34C743.57,768.49,727.76,780.2,711.46,783.09Zm30.15-95.93c12.2,4.64,29.94-11.41,26.25-23.84-4-3.48-.42-10.28-5.44-12.9-5.79-5.26-9.62-7.14-17.18-6.81-5.58-1.53-8.8,1.64-14,3.61-7.4,1.79-2.85,10.26-7.67,15C719.28,670.42,731.47,689.68,741.61,687.16Zm-.34-278.94c-23-2-1.59-60-4.34-75.51-5.3-22.16,2.91-29.26-25.61-25.06-12.31-.95-.82-14.95-3.74-21.55-2.23-9.5-3.65-14.14-13.33-18.26-3.09-3-6.26-3.19-10.32-3.28-6-1.5-5.26-9.56-11.46-9.48-11,2.19-18.18-16.69-28.33-11.12-1.6,1.6-6.43.78-8.43,1-14.14-4.53-33.5,12.73-39.64,0,3.67-14-9.58-24.88-10.13-37.62,12.14-10.43,31.79,3.24,31.06-21.72,30.66-73.31,37.79,21.39,68.78-26.41,2.27-6.82,8.76-5.82,12.75-.6,11.18,10.9,5.77,33,18.33,39.27,15.35-6.11,77-23.26,61.73,12.59-2,21.21,23.43,15.3,33,22.45,10.75,25.08-37.89,54.15-26.81,61.56,16.75,10,39.24,59.8,13.89,70.14-9.19-1-22.81-7.12-29.72,2.91-12.34,17.74,8.56,39.83-27.71,40.71Zm-316.21-51c-44.3-22.19-86.2,10.38-71.27-20,3.24-4.41,6.34-9,2.21-13.07-74.46-33.78,5-34.75-35.16-66.26-4.71-4.53-15.82-13.18-11.56-19.76,13.19-16.75,37.62-17,53.79-21.19,4.09-13.86,3.86-46.12,21.7-51,14.73,9.23,37.08,20.29,45.8-2.34.35-6.54,4.68-10.24,6.4-9.26,19.55,3.18,24.26,28.93,38.65,37.44,14.66-17.42,96.93-18.69,75.34,11.91C542.15,219.22,523,216,509.1,208.31c-10.74,6.35-11.4,21.95-23,30.69-5.14,5,3.91,10.36-.07,15.83-3.32,6.51,2.2,15.73-3.86,21.83-34.93,19.45-6-32.91-45.78-24.32-7.19,1.32-10.88,8.79-13.22,14.87-9.85,14.71,22,20.12,11,32.82-12.53,12.86,4.3,15.73,9.88,25.79,13,12.35-4.56,32.11-19.05,31.44Z"/><path class="cls-6" d="M237.55,1503.23c-22.65,0-20.35-40.79,3.94-38.06C268.5,1464.36,265.85,1506.05,237.55,1503.23ZM266.12,1429c-25.82-11.64-4.78-34.65-49.78-9.47-26.65-9.36-16.27-43-16.94-61.91-17.66-5.74-37-10.4-49.14-25.13-9-22.71,34.55-11.35-.53-54.74,9.09-20.84,36.37-14,54.64-17.92,9.3-26.87,31-53.14,46.13-79.65,4.77-13.52,69.66-91.42,26.72-81a56.16,56.16,0,0,1-42.73,19.35c-14.67-.66-3.35-30.24-27.26-29.31-8-2.1-17.52,14.58-23.22,3-21.91-26,7.5-46.31-3.34-59-11.14-5.86-27.08-17.16-27-31.15,13.14-10.92,29.79-17.8,12.52-35.13-15.84-33.84,36.8-29.41,55.89-28.22,6.75-12.91,4.19-29.85,15.91-42.06,4.1-5.08,12.51-10.57,5.91-17.47-4.2-15.31,9.3-27,23.61-27,30.21,2.12-.76,41.53,17.22,43,10.52,1.6,16.8-12.65,27-14.56,15.65,5.93,17.34,28.72,23,42.33,3,6.83,11.52,2.47,17.11,2.79,9.44-.57,16,5.69,24.37,6.36,65.53-167,90.43-346.44,101.95-528.09.45-10.06,5-24-9.37-21.81-13.36-3.88-47.39-16.64-29.67-30.06,35.06-20.88-24-34.79-.2-53.21,6.86-8.18-6.83-10.47-10.62-14.75-8.89-12-.61-34.18,14.76-31.68,13.43-.11,19.91,10.16,18.47,23.38-1.05,10.64,22.83,7.39,23.1-1.47-.74-21.53,5.83-41.57,20.08-61.26,7.9-10.1,13.39,6.7,24.08,3.86,18.94,3,21.08-19.85,34.22-21.71,24.51,6.11,28.29,34.48,36.66,53.9,23.94-1.72,58.77-9.59,73.09,16.21,1.74,6.24,8.27,3.31,12.79,3.68,22.11,1.19,23,23.72,19.87,39.2,7.11,8.29,21.27-1.82,29.6,4.69,3.66,19.7-4.08,44.17-4.09,62.68C718.74,487.58,714.68,605.2,687.47,714c-.81,16.54-10.84,33.46-8.54,49,22.17,2.73,16.84,53.87,41.88,36.88,61.78-19,14.81,28.67,57.6,29.27,26.26-2,8.34,40.39-2.31,49.6-3.09,3.27-1.52,7,1.22,10,29.26,61.31-8.24,28.13-18.54,41.94-15.89,11.49,7.72,35.37-9.87,37.49-13.94,2.2-25.88,2.54-38.12-8a6,6,0,0,0-8.91,1.42c-7.78,13.48-44.73,37.87-52.87,16.16.64-16.71-4-23.12-18.41-27.13-18.42-5.43-29.06,66.54-40.13,81.59-16.16,37.27-123.4,279.36-166.68,250.87-9.87-.6-35.53-13.39-33.93,5.51-3.71,7.66-23,13.18-15,22.86,70.47,60.12-20.93,28.1,3.78,73.29a7.06,7.06,0,0,1-3.93,11.84c-17.56,8-35.85,2.36-52.63-9.34C308.66,1383.86,298.12,1427.21,266.12,1429Zm495.76-51.84c-28.28,1.64-28-42.18-1-41.25C786.36,1334.48,787.93,1377.35,761.88,1377.11Zm-214.81-98c-26.22,3.89-28.76-36.68-4-36.33C566.84,1240.73,570.59,1278.64,547.07,1279.15Zm166.15-155c-21.86,0-28.32-40.06-.26-39.5,28.21-4.06,27.59,40.89.26,39.5ZM204.36,697.67c-25.92.15-22.65-40.88,3.27-38.87C233.07,659.31,233,700.61,204.36,697.67Zm543.31-10.74c-33.69-.55-28.31-40.6-2.4-43.38C772.38,643.32,773,687.08,747.67,686.93ZM243.39,573.46c-6.33-.28-8.39-7.63-5.74-13.2,6.65-50.57-69.75,4.1-39.88-68.15,2.32-5.88-4.16-8.16-8.43-9.27-20.1-9.27-34.37-24.56-43.64-46.76-2-11.82,26-12.65,30.91-27.61,4.81-15.16-27.35-38,5.81-41.25,13-8.48,49.91,1.42,47.11-13.69,2.4-16.47,12.19-36.13,26.33-45.66,8.65,1.49,22.35,19.07,31,17.2,13,1.62,27.86-35.37,41.38-13.08,9.23,11.46,13,24.82,17.07,37.89,11.12,9.27,46-10.76,71.44,7.47,6,3.42,5.75,7.73,1,11.53-45.34,51.49,62.74,36-15.92,85.88-10,9.6,12.71,29.29,7,49.05-3.62,16.91-28.15-1.49-37.44,15.11-16.48,9.79,3.78,37.14-14.65,40.45-17.26-2-34.23-4.72-46.16-18.67C299.1,533.54,286.22,573.22,243.39,573.46ZM221.28,193.15c-32.34.08-29.24-47.75.28-48.09C252.76,144.85,253.33,194.49,221.28,193.15ZM817,154.8c-33.94.33-35.14-52.83-.4-51.74C850.49,102.89,850.15,153.52,817,154.8Z"/><path class="cls-7" d="M976,195.75c6.61,24.12-19.59,25.19-19.16,7.55C956.25,191.94,971.4,183.06,976,195.75Zm-22.75-68.64c.13,24.14,28.89,18,22.75-2.69C973.23,115.46,951.4,115.17,953.25,127.11Zm7.87,633c-17.33-3.29-23.93,24.58-5,24.81C969.92,787.47,975.28,761,961.12,760.15Zm-8.3-715.1c10.86.4,16.12-4.47,16.34-15,.26-12.1-10-9.9-16.24-10.77-9.76-1.36-10.67,6.47-10.4,13.93C942.77,40.17,944,46.31,952.82,45.05ZM946,324.43c7.91-.92,16-4.76,15.1-15.85-.8-10.32-9.55-8-15.23-7.91C934.52,301.12,936.08,324.48,946,324.43Zm-5.65,499.11c-9.16,1-8.69,10.36-9.79,19.69-1.38,4.89,4.67,7.74,8.39,7.34C956.38,850.38,958.72,822.64,940.33,823.54ZM939.72,931c-8.14,0-8.32,6-9,11.43C931.18,949.51,932,956,941.2,955c8.16-.85,11.2-6.87,11.72-13.87C953.62,931.82,946.73,931,939.72,931Zm2.07-239.36c16-1.46,20-29.59,1.37-28.36-10,.15-9.49,10.55-11.4,16.49C930.32,684.17,934.75,692.5,941.79,691.59Zm-17-589.09c6.72-.84,11-6.83,10.07-17-.32-2.13,1.5-8.36-5.62-8.64C911.81,74.35,904.66,106.35,924.78,102.5ZM917,428.81c-10.76,1.23-10.53,23.86,1.6,24.14C935.35,453.82,935.29,427.4,917,428.81Zm-3.29,1026.36c-7.38-1.25-7.5,6.07-7.4,10.24.13,5.6-.47,13.89,9.64,11.45,6.38,1.4,10.45-2.12,10.76-7.23C927.18,1461.31,921.13,1456.44,913.68,1455.17ZM888.81,244.59c-1.08,18.61,25.75,14.5,25.85-1.2C918,225.56,889.09,230.15,888.81,244.59Zm28,506.79c1.55-15.31-21.89-12.83-21.84-.34C893.31,768.35,918,765.84,916.78,751.38Zm-4.53,362c-.59-16.36-22-16.23-19.42.73-.45,5.05.71,10.91,6.38,10.52C905.08,1124.19,913,1123.45,912.25,1113.35Zm-8.33,273.08c-8.92-.16-19.06-.78-16.91,13.77.32,7.23,4,11.24,11.88,10.38C909.88,1410.45,916.5,1388.25,903.92,1386.43ZM886.21,162.12c.1,8,4.67,12.77,13.08,13,10.2.53,10.5-7.88,10.46-13.73-.06-8.67-8.58-9.55-14.86-10.24C887.8,150.42,886.14,156.89,886.21,162.12Zm11.42,1042.56c11.77.32,14.31-25.66-.06-23.9C878.88,1180.43,879.23,1207,897.63,1204.68Zm-4,322.71c-7.62-.29-13.11,4.88-10.52,13.63-.71,6.65-.83,13.44,7.23,13.77,7,.3,13.29-2.73,12.65-11.74C902.55,1536.22,902.2,1527.71,893.67,1527.39ZM890,30.56c15-.36,21.68-28.59,1.47-27.42C875.2,4,871.52,33.41,890,30.56Zm.81,886.59c9.36-.8,9.44-8.39,9.66-14.17.26-6.82-2.69-12.7-11.8-12.16-8.85.53-12.56,4.74-11.77,12.91C876.5,913.93,881,918,890.83,917.15Zm.13,89.93c8.16-.94,8.18-7.6,8.09-13.82-.14-9.75-7.8-11.25-14.44-10.78-6.45.46-8.17,6.6-7.66,13.27C875.81,1006,882.61,1008,891,1007.08Zm3.42,297.72c1-9-6.41-11.33-12.84-10.62-12.56.65-15.86,27.13.09,24.84C892,1320.23,893.55,1312.11,894.38,1304.8ZM874.65,388.85c15.38,1.78,19.37-29.26,6.56-28.19C861.56,359.21,855.79,387.26,874.65,388.85Zm9.5,422.49c-.09-8.27-5.06-11.62-12.32-11.24-7.67.41-9,6.36-9,13.78C860.68,830.42,885.58,826.87,884.15,811.34Zm-174-20.52c2.9,18.89,5.75-6.52,46.34,2.37,4,.67,7.43,3.57,5,9.57-4.24,10.3,4.85,21,17.1,20.85,33.51.33,16.82,43.84,1.29,58.44-3.69,4.14,4.6,9.91,7.14,15.05a49.6,49.6,0,0,1,3.72,35.84c-1.73,6.5-6.1.39-8.48-.27-7.31-2-14.87-4.4-19.74,2.86s-6.72,15.78-1.59,24.23c7.39,12.19-5.42,11.85-9.81,12.78-15.12,3.21-30.62,4.27-42.64-9.06-1.12-1.23-2-1.72-3.69.88-9.13,19.27-58.74,44.56-61.67,10.11-.61-5,.21-11.05-4.54-13.57-16.17-8.56-14.56,8.18-16.94,14.43-20.3,53.09-42.14,105.68-69.35,155.61-1.77,3.41,2.56,4.47,4.29,5.17,13,5.15,19.66,28.75,23.54,41.41,11-21.27,23.13-41.49,31.52-63.18,2.82-7.28-.67-18.47-.45-27.88-2.79-17.15,42-80,57.72-58.15,15.14,36.93-15.71,70-45,88-8.44,5.68-11.88,19.35-16.51,29.91-2.45,5.57-8.1,9.66-7.8,17,25-23.44,54.87-41.72,87.69-50.69,3.91-.44,1.46-5.72,1.63-8.69-.16-24.41,33-35.06,46.86-14.85,10.62,14,4,32.8-13.11,39.26-19.07,7.88-22-9.67-35.53-9.06-34.36,15.14-67.57,35.45-94.14,62.37,21-1.75,40.59,1,57.49,14,8.42,7.67-25,28.69,9.22,38.43,15.78,4,10.63,10.46,6.66,19.13-5.83,12.7-15.66,21.53-27.16,28,12,8,25.56,11.19,37.19,19.33,18.9,12.77,42.77,18.51,59.65,34.69,4.35,3.9,7.1,3.46,11.27.25,12.47-9.62,32-3.17,36.84,11.92,17.12,46.9-60.22,46.5-47.75,1.39,3.51-13.21-70.49-40.07-80.72-50.22,2.13,9.81,11.78,20.53,26.28,30.27,20.66,13.88,30.87,33.25,28.65,58.2-.49,5.56-.54,14.38-7.1,15.52-34.33-1.93-51.86-43.12-41.67-74,1.14-4.19-6.84-10.35-9.23-16.16-2.24-5.43-7.9-6.73-10.4-11.52-.57,81.53-25.13,11-37,52.52-.63,2.19-.27,4.83-1.34,6.71-2.64,4.66,3.16,12.34-4.68,14.71-24,9.16-42.54-7.91-59.11-22.9-3.9,8.74-8,18-12.22,27.27-2.82,6.09,2.52,10.27,3.87,15.19,11.52,38.2-16.62,73.61-49.18,89.9-2.22,1.21-8.75.09-8.92-6.94-.36-14.47-3.94-29.24-1.95-43.28,2.33-16.38,11.6-30.27,24.83-41.58,19.93-14,26.65-13,33.2-40.21-13,8.94-54.47,27.42-54.76.18.24-10.59-13.72-19.55-23.75-15.77-22.84,6.64-22.31-28.25-16.45-42.38,2.26-5.1-4.37-4.87-6.92-5-8.73-.33-17.08-2.82-25.55-3.7-7.11-.74-9,9.19-15.15,12.5-26.48,14.28,19,18.42,22,52.52,2.41,16.23-46.16-6.8-24.08,36,7.53,14.08-7.41,13.91-12.39,15.61-20.18,6.91-38-1.25-54.84-12.89-15.64,44.18-48,31.15-65.12,69.49-.94,1.71-1,2.85,2.94,5.54,31.85,24.93-18,69.31-38.53,27-3.15-12.59,3.8-29.26,14.21-30.15,16.51-1.41,19.76-15.38,24.86-25.87,2.35-4.84-3.53-15.43-9.68-19.4-19.51-9.42-30.48,25.5-47.22-3.22-8.12-12.21-10.42-26.76-5.58-39.43,7.45-19.54-7.87-16.14-16.15-17.85-9.32-2-50.27-25.74-32.77-36.5,6.91-3.32,14.85-7.32,13.6-15.82-.91-6.1-3.5-13.29-10.31-17.08-3.61-2-5.92-6.31-4.94-9.88,9.46-18,33.2-22.14,51.92-21.74,5.64,0,4.71-9,7.93-13.43,15.28-20.9,25.7-44.75,40.29-66.22,14.43-21.23,25.9-44.49,38.36-67,.8-1.46-1-4.37-1.63-6.61a9.35,9.35,0,0,0-5.05,4.41c-5.62,10.52-17,13.19-26.95,15-16.32,3.05-29.44,11.18-42.37,20.37-4.94,3.51-.32,8.66-1.82,13.51-7.1,22.89-24.64,32.85-44.75,36.54-7.79,1.43-16,4.52-23.41,3.2-11.8-2.11-13.39-18.42-5.75-29.38,16.53-23.7,39.56-29.88,66.83-30.66,9.49-.27,19.4-8.22,27.83-14.42,4.87-3.57-6.69-23.22-13.77-24.8-6.41-1.44-11.5.15-16.82,3.8-26,12.77-28.79-47-13.69-60,1.93-2.42-2.33-2-3.4-3.31s-3.43-1.34-4.9-2.4c-9.85-6.39-36.11-27.35-18.34-38,17.31-7.75,19.24-19.17,3.69-30.12-19.95-14.24,19.39-20.57,14-40.28-1.53-10.91-6.53-17.53-17-19.5-30.45-3.17-3.39-37.36,8.18-48.91,5.22-5.47-3-9.83-5-14.2-8.45-17.73-4.48-34.92.27-52.17.94-3.41,4.66-6.68,8.94-2.5,6.9,6.74,15.15,4.31,21.48.92a20.89,20.89,0,0,0,10.82-18c2.38-31.91,46.23-3.59,58.38,10-1.42-10.63-31.85-90.35-42-77.22-12,4.21-22.38,0-29.45-8.64-7.89-9.68-7.28-21.37-.5-32.38,21-23.3,58.47,1.9,42.42,30.44-1.3,2.82,4.13,9.6,7.59,13.55,14.29,15.71,19.17,35.62,26.31,54.8,3.81-13,14.06-24.77,9.36-38.47-4.33-32.51,16.09-63.63,47.29-73.06,7.19-2.17,7.86,8,8.57,13,4.43,31.34-10.2,54.53-36.08,68.87-19.15,11.82-17.83,30.61-25.94,47.52,17-11.34,34.68-21.09,55.24-19.23,11.43,1.9-3.28,41.68,33.15,28.9,15.6-5.13,14.75,4.77,15.72,13.24,1.55,13.73.22,27.2-8.09,39.06-1.28,1.83-1.33,3.53,1.29,4.13,42.13,15.16,20,49.26,43.88-33C425.29,743.32,438.39,673.1,450.85,603c12.75-71.27,15.29-144,21.6-216,.25-3.09-1.62-1.69-2.65-2-15.48-4.52-32.79-5.18-41.37-22.46-50,57.59,39.06,40.49,3.75,74.15-8.94,8.74-17.15,18.3-29.8,22.91-4.67,1.7,1.94,6.15,3.29,8.52C414,482.81,415,498,410.83,513.7c-1.31,4.9-6.57,4.07-10.19,2.76-21.62-9-35,13.63-28.62,32.55,4.73,12.39-5.11,13.69-12.36,13.71-13.87,0-28.15,1.57-40.05-10-3.75-3.64-10.25-5.16-13.53-10.73-13.69,21.74-33.53,33.25-59.25,35.11-9.68.7-13.18-4.09-13.92-12.8-1.23-58.46-46.33,2.4-45.5-35-1.49-13.19-2.39-27,6.91-38.56.84-1.05.43-1-8.52-5.22-16.4-4.15-69.4-56.38-33.34-63.18,17.75-3.9,21.28-17.61,12.5-33.13-9.31-16.48-12.34-14.61,14-26.05,13.3-6,30.53-2.45,43.73-7,3.81-1.8,4.51-10.61,6.17-16.38,3.59-12.5,10.83-22.7,18.67-32.85,16-20.25,28.88,29.56,49.27,5.29,9.2-10.28,18.42-20.56,27.34-31.08,9.36-11-4.5-14.38-8.15-19.56-13.26-18.83-34.36-11.57-52.59-11.77-4.29,0-8.51,8.42-13,12.66-24,22-59.13,19.4-87.75,10.44-10.58-5.95-9.44-18.3.95-25.71,45-36,86.92-2.54,135.28-6.46-18-16.16-36.54-33.16-55.7-49.48-1.43-1.22-7.07,2.44-10.72,3.9-15.85,6.37-30.6-.56-37-17.42-8.31-20.9,21.5-48.14,41.21-33.18,11.35,8.79,18,19.83,11.54,35.36-1.9,4.57,5,6.27,7.82,8.52,15.07,12.06,29.71,24.35,41.83,39.6,12,15.65,18.59-15.3,56.53-12.93,14.24.61-.31-14,10.18-32.66,2.75-6.31-4.65-8.71-6.5-13.3-4.9-12.21-17.26-10.27-26.44-13.91C305.37,145,288,119.07,284.93,91.72c1.15-39.61,61.32,3.61,64.65,24.67,14,30.37-3.08,30.67,20.09,53.09,7.79-9.22,9.74-12.9,21.69-7.1,20.17,9.58,29.64,16,37.42-8.89,11.45-23,40.41,20.74,46.11,31.76,1.33,2.47,2.22,1.93,3.58.53,18.68-16.57,54-20.36,73.6-4.08,8.88,8,20.77,9.92,29.54,18,2.79,2.56,11.72-2.8,17.43-1.92,10.29,1.58,12.73-2.88,13.67-8.36.83-17.3,13-30.94,26.16-40.45,3.7-2.52,7.28,1.37,10,4.31,17.29,19.12,18.87,19.13,34.75-.11,17.59-24.36,29.31,20.73,32.12,34.44,19.94-14.93,38.91-33.12,62.54-42.83,9.88-3.33,7.84-11.43,8.77-18.8,2-16.17,14.3-28.83,29.88-28.74,40.93-.31,41.49,63.13-1.45,62.48-10.29-.52-15.54-6.57-22.18-11.49-6-4.47-8.89,1.85-12,3.48-18.1,9.32-34.06,22-52.9,36.62,19.87-7.58,36.42-5,53.47-1.89,9.4,1.7,8.45,7.06,6.84,11.74-15.22,46.46,39.26,7.42,28.76,46.44-1.9,15.22-8.53,28-20.33,36.4-11.11,7.9-8.73,10.58-.38,19.39,17.33,18.3,23,41.1,13.35,65.5-4.4,11.1-13.74,1.64-20.59,2.28-43.77-.47.72,38.67-31.54,42.83-6.23,2-25.45-1.25-24.73,7.31C731.58,461,725.68,504.07,722,546c7.19-2.34,7.42-16.23,13.65-14.45,7.31,2.65,14.34,8.69,19.13,15.06,8.24,11,14.9,23.2,18.39,36.78,2.71,8,15.24-24.2,18.93-26.47,4.89-6.52,2.31-13.31,2.62-19.77,1.13-38.86,32.64-64.9,68.23-72.14,12-.31,16.34,7.19,13.1,21.25-7.07,30.61-27.09,49.33-55.93,58.59-19.35,6.21-24.2,23.43-32.8,38.08-.12.21,1.5,1.94,1.8,1.8,11.95-5.26,23.89-1.35,35.67.4,17.84,4.08-11.23,28.15,20.19,33.77,29.11,5.38,4.71,37.24-6.55,49.59-1,1.22-1.73,1.88-.38,3.17,14.79,10,29.73,64.2,8,70.38-2.49.78-3.65-.61-5.41-1-8.87-2-18.6,5.73-19.62,15-.62,5.65,3.56,13.32-2.6,16.6-19.46,8.87-41.48-4.85-56.91-16.25-2.14-1.46-2.1-.63-3,.56-11.42,15.49-26.15,26-45.11,30.37C712,787.61,708.09,788.49,710.11,790.82ZM804,536.57c9.16-11.5,37.15-54.56,52.2-51.38,2.42,2.13-.7,4.46-2.05,5.58-16.38,13.55-28.47,30.69-40.73,48.13,29-8.39,57.58-34.76,54-67.52-4.51.75-9.74.28-13.42,2.45C828,486.87,803.81,505.35,804,536.57ZM794.27,130c2.77,27.23,41.81,27.09,44.67-.65C838.67,100.23,793.39,99.67,794.27,130ZM347,133.38c-5.91-20-16.2-36.94-36.23-45C306,86.4,296.86,77,292.86,88.15c1.74,23.18,20.21,50.17,39.88,56.78,3,2.19,9.07,2.47,4.84-2.06-9-10.18-18-20.32-26.78-30.68-1.12-1.32-5.11-1.83-2.33-5.48,4.39-8.57,28.55,20.67,31,25.62C341.68,135.61,349.21,143,347,133.38ZM221.48,149.06c-24.47,1-27.66,39.52,0,40.1C248.81,189.31,247.47,149.3,221.48,149.06Zm28.13,102.71C243,250.46,235.8,255,229,254.55c-13.16.56-25.29,5.8-38.16,7.27-1.74.19-3.78-2.22-5.68-3.43,1.6-1.15,3-2.9,4.83-3.34,17.49-4.41,35-8.6,52.58-12.85,0-.41-.05-.81-.08-1.22-27.7-3.51-53.31-3.75-76.24,14.35-2.42,1.7-3.65,5.3-4.88,8.25-.17.42,3,3.34,4.23,3.07,7.29-1.66,13,3.52,20.1,3.93C208.07,271.52,235.47,272.4,249.61,251.77Zm30.35,464c11.38-9.58,12.05-28.54,26.32-35.36,2.43,11.37-15.63,30.07-18.81,42.17,18.91-9.84,41.2-43.75,27.71-64.91C293.88,669.62,280.46,691.43,280,715.72ZM222.67,679c-.31-22.06-32.84-20.73-32.35,0C188.43,699.08,223.7,698.31,222.67,679ZM196.4,1146.46c-14.75,10.07-29.06,20.09-43.7,29.6-2.59,1.69-6.83,6.08-9.62,1.57-4.5-8,33.46-24,37.72-31.7-16.73-4.08-40.09,12.41-45.4,28-1.18,3.7-6.64,7.12-3.65,10.71,3.85,4.63,10.25,2.81,15.38,1.67,8.77-2,17.28-5,26-7.31C182.25,1176.57,197.66,1156,196.4,1146.46Zm45,322.71c-19.8-2.11-21.81,31.39-2,29.95C261.14,1500.3,262.48,1468.14,241.43,1469.17Zm280.29-76.76c-5.57,10.18-21,65.86-29.46,62.14-7.75-2.6,18.34-51.21,18.33-61.29-29.53,15.9-33.32,48.5-27.54,77.93.46,2.54,1.93,2,3.16,1.17C509.68,1455.79,533.94,1427.53,521.72,1392.41Zm177.49,2.19c1.29.42,3.62,1.53,3.62-1.45,0-20.17-1.93-39.59-21.85-52.73,1.6,6.75,16.22,32.27,10.89,34.38-2.19,1.13-4.39.37-5.77-2.64-5.94-11.19-10-24-17.68-34C660.81,1358.72,679.84,1388.35,699.21,1394.6Zm45.31-35.75c.48,18,32.5,19.94,32.31-1.09C778.72,1332.85,741.16,1335,744.52,1358.85Zm-46.24-256.68c-.71,23.63,32.63,23.71,32.12.2C729.72,1082.71,697.14,1084.44,698.28,1102.17ZM619.35,1092c.58,1.42,3.7,5,3.65.6,6.07-10.44,12.06-20.93,18.31-31.26,1.26-2.08,3.18-4.89,6.37-2.27,2.92,2.41.62,4.37-.5,6.8-5.29,11.43-10.52,22.85-17.88,33.17-.52.73,0,2.23.06,3.37,15.38-6.51,35.94-38.9,35.2-56.89.35-12.75-3.32-15.26-7.38-13-18.84,10.93-29,28.21-35.76,48.13C620.19,1084.32,622.8,1088.67,619.35,1092ZM589.77,210.84c5.79,10.35,12.11,20.47,10.21,33.24a5.81,5.81,0,0,0,2,2.57c12.18-6.29,25.48-5.69,39.51-5.72-5.76-6.85-18.64-14.73-19.93-21.68,2.14,1.16,2.83-3.46,5.59-1.12,14.45,11,26.85,25.44,43.41,33.13,2.26-8.43-12.48-52.23-2.52-52.51.89-.09,2.56.36,2.69.88,4.24,18.77,6.82,37.91,10.67,56.77,1.11,3.86,6.07,7.28,5.75.89q7-17.42,13.79-34.9c1.14-2.91,3.23-4.07,6.26-3.43,2.75.59,2.18,3.07,1.71,4.45-4.06,11.92-8.22,23.81-12.72,35.57-.77,2-2,4.63-.39,5.18,3.21,1.12,5.72,5.83,9.62,3.31C720.4,257.82,735.17,247.88,750,238c4-3.75,10.4,2.52,5,5.67-13.18,9.12-26.44,18.15-39.23,27.81-2.27,1.71-7.66,2.47-6.24,6.44.77,2.15-.5,7.27,4.27,6.91,9.33-.68,18.68,1.48,28.1-1.52,4.06-1.29,10.1.05,12.88,4.33,4.61,6.85-33.4,4.75-37.58,5.16-7-.31-7.82,4.28-7.81,8.19,0,4.88,4.59,1.45,6.9,1.72a80.39,80.39,0,0,0,16.12.12c6.91-.57,6.45,3.07,6.54,8.3-5.17,31.27,19.44,24.92,12.58,36-5.29,5.77-6.88-5.27-11.89-5.57-1.3,15.15-2.82,30.33-3.82,45.55-.55,8.47-5.53,20.84,12.27,15.94,5.16-1.42,13.75-4.41,13.42-6.34-1.87-11-3.44-21.89,4.35-31.74s19-7.73,27.46-5.34c11.91,3.37,11.24-3.32,11.53-9.93,1-23.62-7.09-42.78-27.76-55.82-3.92-2.47-3.18-6.42.54-8.85,13.8-9,24.32-20.81,28.76-36.75,1.79-6.4,8.52-17.4-8.86-15.1-13,1.71-26.67-15.16-22.28-25.29,2.78-6.4,6.52-12.07-5-14.16-16.9-3.08-32.63,1-48,6.59-12.25,9.36-12.91,9.06-15.28-6.88-3.39-12.12-4.45-28.11-15.87-35.47-13.58,25.65-31.64,24.94-47.63,2.2-2.24-2.37-2.19-1.63-3.82-.35C612,182.24,625.54,204.73,609.75,206,605.82,207.41,588,205,589.77,210.84Zm114,84.62c-2.43-14.45-6.71-21.93-18.32-22.34s-17.68,6.44-17,16.95C667.36,309.17,702.32,311.07,703.74,295.46ZM414.89,360.91c-18.4-9.38-37.31-9.52-57.06-5-4.43,1-10.62,13-14.76.29-34-106.29-30.4,6.55-77.52-37.88-2.95-2.75-9.24-7-9.9-6.36-9.74,9.48-15.3,21.58-21,33.86-3.47,7.52,4.24,24.62-17,20.06-10.64-2.28-23,3.05-34.51,5.29-30.51,2.91,7.26,24.61-3.28,39.6-6.89,9.95-16.47,17.62-28.64,21.06-1.43.4-2.62.94-1.87,2.73,22.12,53.43,60.71,40.22,53.16,56.25-5.86,12.9-15.26,47.12,9.37,39.87,18-5.4,36.41,15.21,29.39,31.21-1.9,4.32-.07,8,2.51,7.55,21.44-3.85,41.76-9.31,54-30.17,3.38-5.76,8.66-7.44,15.4-1.56,9.09,7.93,19.07,17.36,31.92,15.11,4.39-.76,18.91,10.08,15.74-7.8-8-22.49,18.31-44.62,38.2-37.57,13.2,4.44,2.22-35.95-2.9-40.51C385.39,450,414.74,450.2,427.6,425.35c6.26-7.63-16.12-7.11-22.39-23.18C393.6,376.25,424.51,364.08,414.89,360.91ZM439.18,347c4.46-3.94,8.09-9.9,3.61-16-3.79-5.17-7.76-14.26-14.7-10.88-12.7,5.72-8.79,21-16.85,18.69-2.14-.58-3-2-1.73-4.15,6.91-11.92,13.94-23.78,20.6-35.85,1-1.84,4.73-4,1.54-6.58-1.52-1.23-2.71-4.65-6-2.42-12.88,8.77-25.81,17.46-38.69,26.22-2.15,1.46-4.31,1.78-6.16-.05-5.25-8.09,36.64-27.09,39.89-34.83.34-.54-1.78-3.81-2.81-3.84-15.85-.39-31.72-.61-47.57-.47-3.35,0-6.31-.18-8.76-2.4-9.91-11.07,48.4-3,54.19-5.38,4.48-.11,3-4.25,5-5.92.76-.62.73-3.67.63-3.69-10.7-2.36-18.59-10.2-28.28-14.49-2.45-1.09-5.83-1.56-6.16-5.17-3.48-14.78,30.88,10.32,35.11,12.83.75.53,3.28,3.29,5.35.59,1-1.33,3.44-3.06,3.15-3.72-5.3-12.44-7-25.82-10.59-38.7-.92-3.32-2.64-7.15.84-8.64,7.37-4,11.53,30.57,14.2,36.09.76,2.93,1.34,5.9,2,8.85.89,3.77,12.38.64,13.73-3.82s8.85-31.19,14.12-28.84c3.85,1.31,2.85,4.72,2,7.11-1.25,7-14.62,27.23-8.39,31.71,1.08.71,3.08,1.75,3.62,1.32,14.75-11.55,29.21-23.47,36.74-41.37,2.35-5.59,6.45-9.38,11.16-12.66.49-.33,3.18,1.27,3.72,2.47,3.36,7.57,10.36,7,16.65,8,10.46,1.18,14.75-7.11,20.27-13.27.22-.24,2.65-2.76,0-4.79-20.38-15.83-54.31-14-73,4.17-2.79,2.72-6.86,3.23-7.83.36-7-15.15-16.52-31.87-32.07-39-3.81-1.5-2.15,6.7-4.87,9.67-2,2.19-3.4,5-5.45,7.09-8,8.35-23.56,7.77-35.07-.18-3.65-2.52-7.81-10.34-13.64.21-7.65,13.82-11.1,27.77-9.7,43.24.22,2.34.63,4.93-3.18,4.53-19.9-1.27-40.21,3.25-54.13,18.2,3.7,4.5,6.57,10.28,11.23,13.27,16.9,10.85,18.75,27.38,3.71,40.32-2.77,2.39-3.07,3-1.41,4.09,6.6,4.28,11,10.92,18.58,14.52,10.37,5,26.58,8.72,13.08,26.2-2.12,2.75-3.09,6.37-1.26,8.45,1,1.14,5.57-.45,8.35-1.35C402,332.71,420,365.47,439.18,347Zm43.64-94.53c2.86-10.3-18.29,9.52-18.77,13,2.44,4.46-.21,11.31,6.35,11.26C489,276.6,476.79,259.71,482.82,252.51Zm-41.89,4.11c-9.59.77-11.87,7.31-12,16.66-.92,9.2,6.81,12.55,14.12,12.69C463.4,287.49,462.6,253.51,440.93,256.62ZM472.78,377c6.82-71.1-17.79-62,52.37-61.94,6.31.26,2.19-6.17,5.69-7.25-1.86-7.37-30.34-10.27-29.68-19.24.54-3.8,4.08-1.57,6.17-1.57,10,0,17.32,7.09,26.1,10.42,4.67,1.77,6.69-3.53,10.62-3.06-2.91-15.3-4.77-30.82-7-46.24-.19-1.54,1.77-3.35,2.73-5,6.49,6.24,8.71,35.23,11,45.63,1,7.83,8.11,2.23,10.58,6.34,1.15,1.9,2.7.56,4-1.38,5.45-8.29,9.74-17.48,17.63-24,1.53-1.25,2-5.3,5-3,2.77,2.08,2.23,6.47.34,8-7.55,6.14-10.41,15.52-16.59,22.58-2.7,3.09-.64,7,1.34,10.37,1,1.76,1.27.14,2-.13,14.62-5.56,29.19-11.27,44-16.36,2.86-1,6.57.49,9.89.83-1.69,2.3-2.91,5.82-5.14,6.67-10.37,3.95-21,7.15-32.32,10.86C614,312,639.32,307,662.79,306.93c2.6-.15,1.91-.49.72-2.37-6-9.42-8.1-18.71-1.19-29.34,1.81-2.79,12.23-5.06,3.19-13.19-17.11-15.42-36.35-12.24-55.89-9.49-29.23,12.75-4.38-17.61-37.13-47.95-5.19-4.93-12.26-9.67-17.67,2.07-6.81,14.76-31.6,19.24-43,8.34-2.44-2.34-2.8-.95-3.87.52-13.56,18.74-20.91,39.33-19.1,62.81.11,1.4,3.34,4.94-3.39,5.59-16.47,1.61-32.56,5.78-44.73,18.94-3.9,4.22-5.71,8-3,10.34,5.84,5.17,13.74,8.92,15.3,17.66,2,11.25-.86,20.51-12.41,25C426.47,360.86,469.65,383.44,472.78,377Zm71.33-74.16c-5.2,1.15-6,5.49-6.56,8.42-.56,3.21,3.81,1.45,5.85,1.53,7.72.29,15.47.12,23.4.12C561.25,304,554.18,300.64,544.11,302.87ZM175.22,907.26c6.83,8.39,2.5,18.44,4.13,26.36,9.22-4.45,18.65-3.9,27.52-1.2,27.31,9.85,1-11.47,35.33-48.11-12.84,5.83-23.93,11.05-35.2,15.85-3.26,1.39-7.33,3.17-10.15-1-1.11-1.64-.45-3.25,1.69-4.22,13-5.91,26-12,39-17.86,4-.89,2.1-3.69-1.06-4-11.69-1.43-23.39-2.69-35.07-4.1-3.14-.38-4.95-2.57-5.46-5.48-3.44-5.92,36,1,40.4.52,2.82.29,4.81.71,6.11-2.47,1.37-3.33-.7-4.6-2.72-6.45-8.56-7.84-16.92-15.9-25.43-23.79-2.58-2.4-1.3-5.17-.83-7.74,0-.3,4.49-.74,5.13.15,6.08,8.47,15,13.76,22.45,20.63,3.72,3.42,5.37,10.57,12.58,6.44,8.2-4.33,2.48-28.2,3.5-36.81.55-4.21,6.61-11,7.91-2.18.53,9.55,1,19.11,2,28.62.22,2.12-2.32,5.57,2.56,6.7,4.44,1,7.36-1.31,9.24-3.87,7.76-10.52,16.69-19.92,26-29,2.19-2.13,4.85-.23,4.23,2.38-5.75,14.2-20.18,23.08-27,36.3,1.78,11.69,39.1-8.41,49.33-2.76-2.63,7.18-16.07,8.57-22.9,10.57-7.36,1.46-17.72.07-20.8,6.88-2.7,6-2.1,13.94-7.69,20.65,10.1-3.36,21.33-.14,23.61-14.42.21-1.35,2-6,4.59-6.31,11.91,5.95,19.13,18.71,25.17,30.76,4.34,9.41-1.64,29.89,21,23.53.48-.14,1.37,1,1.74.77,4.94-2.36,10.83,6.3,14.21.29a139,139,0,0,0,11.93-29.22c1.51-5.19,7.58-9.84,4-15.87-15.55-32.27-46.43-21.78-35.16-39.73,7.45-11.12,8.44-23.21,7.71-35.85-.16-2.89,1.37-6.44-4.9-3.66-18.55,8.23-36.19-3.12-37.05-23-.2-4.56-1.36-7.8-7-6.6-45.6,5.51-40.41,34.4-54,22.29-8.9-8.44-17.6-18.2-30.16-21.05-35.32-18.38.62,23.74-49,29.26-4.17-.14-11.81-6.22-13.18,1.14-12.88,47.67,18.49,49.12,9,57.79a69.56,69.56,0,0,0-24.24,38.09C158.8,896.59,168.49,898.31,175.22,907.26Zm100.46-46c-3.38-7.06-10.51-5.09-15.26-3.83-8.24,1.95-15.46,10.76-12.61,20.7,1.15-.35,2.68-.34,3.4-1.1,9.13-9.6,13.83-2.56,18.69,4.72,1.06,1.58,3.2,5.25,4.59,3A23.51,23.51,0,0,0,275.68,861.31Zm10.84,231.82c.61.9,1.29,1.76,1.93,2.64,7.79-13,15.16-26.34,22.43-39.66,2.82-5.26,7.79-12.17,6.26-16.27-2.36-6.34-9.64-10.76-14.51-16.28-3.69-4.19-7.17.34-10.82-.06-5-2.13-3.41,39.56-4.74,45.16-.12,2.6-1.51,4.13-3.89,4.28-3,.18-1.86-2.4-2.27-4-3.33-13-.86-26.06-.12-39.11.12-2.11,2.18-5.46-1.72-6.72-3.7-1.2-5.65,1.72-7,4-7.39,12.31-16.46,23.31-26,34-1.41,1.59-2.46,5.5-5.55,3.14-2.59-2-2.39-5.13-.36-8,9.65-13.41,19.26-26.85,30.43-42.45-16.75,5.16-30.06,11.37-46.25,17-2.23.81-5.88,1.38-7-1.87-1-2.92,2-3.34,4.14-4.24,12.72-5.25,25.38-10.64,38-16.06,5.32-1.66,4.33-8.6-1.52-7.48-16.68-1.36-33.38-2.62-50-4.26-2.89-.29-6.91-1.83-6.74-5.29.2-4,4.37-2.79,6.9-2.61,16.89,1.18,33.77,2.63,50.66,3.86,6.51,2.14,8.54-5.66,3.78-9.53-8.35-7.61-16.61-15.32-24.86-23-2-1.89-7.23-3.07-3.9-6.78s7.58-1,10.74,1.79c8.39,7.48,17.06,14.7,24.85,22.76,4.53,4.67,6.44.42,9.41-1.14s2.51-3.72,2.36-6.45c-.9-16.42-1.53-32.85-2.26-49.28-.93-5.51,7.69-5.28,7.88-.71,1.59,17.07,3.36,34.16,3.82,51.28.11,3.94,2.55,3.24,3.74,4.62,1.69,2,3.21-.67,3.78-1.59,7.14-11.61,13.93-23.44,21.18-35,3.23-9.44,11.62-4,6.67,3.79-6.91,12-14,23.89-20.87,35.9-5.05,3.85,2,7.22,5.78,4.18,5.23-3.65,10.85-6.77,16-10.49,17.15-10.45,36-17.51,41-39.53-6-1.7-11.36-4.54-18.45-3.79-26.95,7-17.51-21.78-30.92-37.66-3.29-4.41-4.7-12.76-13.66-3.12-13.59,14.63-29.61,12.82-42.76-1.89-.93-1-2.9-2.31-3.85-2-19.41,8.18-27.41,29.43-29.66,48.91-.62,3.76-.49,11.73-7.1,10.47-15-2.89-29.51-6.23-44.68.24-8.63,3.68-13.34,13.13-7.68,19.42,13,14.41,11,25.27-5.73,35.42-2,1.22-7.53,2.29-5.93,6,4,9.34,12.19,15.12,19.83,21.49,34.71,11.21-15.79,22.24,9.72,62.18,1,1.44,1,4.86,4.45,2,13.38-11.29,29.79-6.58,37.89,9.25,2.44,4.76-2.56,13.93,5.16,13.86,17.09-.15,31.72-7.53,42.35-21.29C280.64,1088.45,283.26,1088.33,286.52,1093.13ZM343.13,991.6c2.73-8.24,6.76-16,10.71-25.17-14.15,8.77-27.32,16.85-40.37,25.11a5.36,5.36,0,0,0-2.21,3.94c.11,2.66,2.54,1.28,3.92,1.39C325.09,995.78,338.29,1005.76,343.13,991.6Zm-10.67,15.47c-7.65.48-19.46-5.69-23.22,1.37-6.18,13.14,10.41,14.8,12,24C322.85,1029.41,338.81,1006.92,332.46,1007.07ZM288,983.83c-19-1.68-21,28.66-4.12,31.13C308.3,1017.87,308.23,985.12,288,983.83Zm98.95,302c-12-1.84-26.95-6.78-37.82-3.39-15.78,6.87-29.93,17.42-45,26.12-2.35,1.36-2.59,1.78-1.62,4.16,1.17,2.86,2.17,1.16,3.9.87q15.92-2.68,32-4.51c1.38-.16,3,1.9,4.53,2.93-6.67,5.43-23.83,8.06-32.77,8.19-4.41-.22-5.27,2.81-5.59,6.62s3.06,3.12,4.38,3.66c10.9,4.49,22.13,8.2,33,12.77,2.21.93,3.31,4.52,4.91,6.88-9.05,2.23-30.19-9.51-40.66-12.18-2.66-1-4.84-3.56-7.55.58-7.14,8.8,7.15,19.51,9.87,28.6,3.11,6.16-1.44,11.63-5.86,3.66-8.56-7.3-6.6-27.23-26.14-21.72-3,.86-5.59,0-6.76,4.12-3.49,8.51-6.35,29.36-14.36,33.2-8.29-1.8,6-28,7.19-33.93,1.67-5.18-1.69-11.06-5.09-10.19-9.74.71-36.36,17.91-41.85,11.23-1.22-1.32-1.61-3.63.76-4.55,10.75-4.13,21.59-8.06,32.34-12.23,1.39-.54,5.53.34,3.89-1.29-3.75-3.75,2.12-11-4.61-12.24-6.69-2.55-40.84-1.54-39.11-9.32,0-3.89,3.28-5,5.61-4.76a286.89,286.89,0,0,1,29.88,4.69c3,.66,6.44,2.25,7.89-.07,1.32-2.12,3.51-5.54-1.5-8.77-4.2-3.21-36.29-24.86-24.82-28.38,9.71,4.22,16.84,14,25.7,19.94,3.3,2.54,5.93,8.2,11.76,4.37,3.3-1.34-2.46-5.61-2.35-8.28-5.91-32.75-34.21-20.72-58.87-26.77-16.5-2-32.66-2.5-46.45,9.15-2.5,2.11-3,3.19.16,6.14,32,35.22-11.85,40-2.65,48.66,12.2,12.16,28,21.35,45.95,21.49,15.5.09-8.31,37.26,8.1,55.93,3.64,5.28,7.22,13,16.41,4.29,11.51-11,28.28-9,33.88,4.18,6.85,26.92,48.2-14.6,51.5-26.72,1.5-6,3.77-12.09,11.6-7.44,15.3,10.84,33.48,19.88,52.34,11.38,2.67-1.2,5.32-1.31,2.25-6-10.74-16.41-4.33-30.73,14.58-36.43,2.7-.82,10.19.41,8.53-4.09-5.45-14.85-17.38-25-29.47-34.58-1.91-1.51-5.67-1.74-5-4.78a10.28,10.28,0,0,1,4.94-6.25C376.22,1297.37,381.47,1291.74,386.92,1285.86Zm-109,19.3c-25.3-.23-24.77,38.1,3,36C301.74,1340.87,300.12,1304.28,277.92,1305.16Zm13.21-5.22c2.14,1.87,4.72,4.61,7.26,2.59,11.75-9.35,25.87-14.59,38.8-22.79-8.07-.94-15.47-2.18-22.91-2.56-7.29-.38-16.72-7.86-20.66,5.12-1.3,4.3-1.31,9.11-3.2,13.08C289.27,1297.79,289.48,1298.51,291.13,1299.94Zm-2.26-24.38c-7.49-5.82-17.23.8-24.15-4.8-11.39-.76,7.09,29.79,13.77,25.81C287.73,1293.4,283.68,1281.83,288.87,1275.56ZM545.9,1142c-14.39,19.58-22.1,43.89-37.73,62.93-2.12,2.8-6.38,6.85-3.55,9.88,8.23,8.85,17.65,16.56,26.27,25.07,3.09,3.06,4-1.16,6.16-.94s2-1.32,1.8-2.68c-1.91-14.94-4-29.87-5.66-44.84-.76-2.8-1.55-7,2.86-6.63,4.07-.06,4.68,3,5,6.32,1.67,15.07,3.36,30.14,5.31,45.18.13,1,2.35,2.09,3.78,2.58,3.06,2.25,11.89-24.85,15-28.75.5-1,2.73-1.5,4.22-1.64,7.22,12.22-16.94,27.76-6.09,40a2.69,2.69,0,0,0,2.44.43c12.42-5.72,24.79-11.57,37.21-17.29,2.44-1.12,4.93-1.71,6.76,1.39,1,1.68.91,3-.74,3.7-12,5.51-24.18,10.76-36.08,16.53-2,1-6.34.52-5.64,4.43-.06,7.67,30.8,8.46,38,13.63,16.34,14.56-36.51-4.21-40,1.07-1.31,1.69-3,5.25-2.25,6.07,9.69,11.14,19.77,22,29.75,32.84,1.42,1.54,3.85,3.56,1.36,5.2-1.57,1-5.57.87-6.79-.39-9.7-10.1-19.25-20.37-28.31-31-3.93-4.63-6.72,1-10,0-3.6.56-.91,16.15-1.7,20h-.19c0,3.66.19,7.34-.08,11-.12,1.75,1.61,4.91-2.19,4.84-2.79-.06-3.54-2.2-4-4.77a90,90,0,0,1-1-28.61c.51-3.95-5.43-3.16-7.66-5.68-1-1.13-2.06-1-3.29.37-8.46,9.34-17.3,18.34-25.42,28-1.86,2.2-2.89,6.15-5.85,4.11-8.24-7.09,27.15-31.35,25.22-40.58-.5-3.16-2.89-.84-3.86-.57-10.29,1.65-38.12,14.23-45.51,10.69-2.66-8.83,33.85-15.26,40.72-18.87,3.09-1.14,5.14-2.39,4.87-6.08-.15-2.09-.49-3.5-3-3.65a91.7,91.7,0,0,1-26.09-4.88c-7.16-2.57-13.2-1.28-17.53,6.81-11.8,20.6-36.67,35.78-31.13,62.77.46,2.76-.36,9.83,4.92,8,12.36-4.32,29.17,1.9,35.09,13.27,2.67,5.13-.48,14.69,6.4,15.21a54.82,54.82,0,0,0,37.87-12c21.43-18.86,25.41,22.84,59.88,23.86,12.52,3.12,9.84-12.33,11.46-20.6,1.25-11.73,18-21.22,28.34-15.75,10.56,6.2,8.79-35.73,4.74-40.83-1.17-3.14-5.79-4.53-3.88-9.58,3.46-9.16,13.14-10.44,19-16.54s11.44-12.45,13.06-20.84c.18-1-7.37-3.45-11.37-5.15-10.63-4.49-14.37-15.91-10.94-26.37,1.37-4.2,9.45-10.93,1-14.78-16.14-7.36-33.12-11.25-50.7-3.84-7.53,3.17-11.59.4-13.3-7.56C569.61,1173.45,561.38,1142,545.9,1142ZM521,1248.3c1.57.29,2.85,1.49,4.15-.67s-.36-2.53-1.34-3.47c-7.4-7.11-14.88-14.14-22.13-21.41-1.67-1.68-2.73-2.47-4.09-.17-4,6.83-11.66,11.12-13.08,19.1C496.49,1243.84,508.74,1246,521,1248.3ZM544.63,1275c19,2.64,19.42-27.6.31-28.06C525,1244.71,523.86,1276,544.63,1275Zm88.08-368.68c23-79.57,44.45-159.39,62-240.31,9.69-54.07,13.84-109,20.14-163.51,6.24-61.06,11.11-122.28,17.7-183.3.29-2.71-.09-4.52-3.71-4.18-78,3.75-157.31,8.84-235.25,7.22-5.64.05-8.95.39-8.81,4.92-1.64,87.56-7.08,175.68-19.63,262.4C445.59,704.43,423.26,820.21,384,930.09c-42.58,110.58-104.89,212.35-167.51,312.55-6.63,9.27-12.36,16.75,6,14.25,66.56,2.83,132.83,11.72,199,19.24,8.67,1.61,20.43,7.31,27.69-4.86,16-27.11,37-51,53.44-77.76C558.27,1103.83,600.31,1006.52,632.71,906.29Zm89.74-254.82c-.53-5.7-8.91-12.52-10.72-11.62-6.52,3.26-.67,11.65-4.18,17.69-1.73,3,3.55,3.32,7.29,3.42C722.12,662.61,722.8,655.17,722.45,651.47Zm-5.19,17.9c-3.82-.12-9.29-2.64-11.27,1.92-2.31,5.33-3.16,11.51-3.35,17.36,0,1,3.4-2.64,5.54-3.72,4.9-2.47,10-4.76,13.67-10.11C720.11,672.64,718.73,669.42,717.26,669.37Zm-45,190.72c.44-.75-6.05-7.85-9.4-7.92-4.5-.09-2.54,7.14-6.45,10.94C662.4,860.93,668.64,866.24,672.23,860.09ZM662,870.67c-12.47.59-7.18,11-10.7,16.37-.75,1.15-4.43,3.64-1.24,5.56,7.62-.43,14.56-9.22,21.06-13C668.49,875.74,669.71,870.3,662,870.67Zm47.48-62.25c-4.13,0-7.72-2.58-10.13-10.41a105,105,0,0,0-15.63-28.76c-9.16,21.6-12.1,46.11-18.62,68.82-1.67,7,5.87,8.63,9.13,12.65,2.51,3.09,8.1,2.48,9.25-.07.19-10.13-5.44-22.18-6.38-32.77-1.84-6.75,6.61-10.25,7.56-2.44,3,6.64,4.8,32.24,10.77,33.52,4.46,1.08,3.76-3.06,4.47-4.87,3.46-4.88,5.5-27.25,12.4-24.77,7.22.54-4.75,25.28-5.37,30.75-.61,1.85-1,2.33,1.23,3.32,1.62.73,1.92,1.3,3.65-.06,7-5.44,14.08-10.73,21.47-15.57,7.42-4.4,14.52,2.14,4.51,6.46-3.35,3.83-25.54,16-22.34,19.89,1.27,2.4,2.07,5.12,6.18,5.12,6.69-.43,13.54.67,20.18,1.95,8.37,1.05,10.32,11-.2,7.74-6.77.08-13.65-1-20.25-1.95-4.4,0-5.39,3.33-7,7.53s2.08,4.45,3.29,5.8c6.87,8.61,16.83,14.94,22.32,24.5-15.35,2.89-21-20.65-35.3-21.54-1.21,0-3.5,2.36-3.37,3.37,1.34,9.91,2.92,19.8,4.82,29.62.48,2.48,2.66,5.28-.61,6.6-13.73,3.75-3.87-38-19.08-36.81-1.7,0-4.31,4.55-4.81,7.32-1.5,8.34-6.51,14.76-10.39,21.85-1.68,3.08-4.05,3.19-6.54,2.61-6.38-.43,9.49-25.17,10.21-29.83,1-2.35,4.69-3.93,2.6-7.33-3.18-5.2-6.71-1.1-8.8.58-7.61,6.13-19.31,7.49-23.5,17.12-4.46,10.28-6.92,21.45-10,32.29-10,15.81,19.24-2.13,17.89,37,0,2.1.39,3.7,2.65,3.93,17,1.7,39.13-11.3,45.44-27.23,3-7.68,6.29-2.71,8.71-.43,8,7.56,16.68,12.81,27.07,10.93,3.82,0,7.14,1,9-.27,2-1.35,9.33,1.66,5.47-6-9.6-18.9,7-45,28.68-33.85,1.81.88,2.77-.06,3-2.38,1.06-9.22-1.45-17.41-5.19-25.81-22.38-26.87,11.25-14.24,9.19-60.07.75-10-27.67,7.25-35-23.74-1.11-4.45,4.25-10.47-.2-11.07C727.06,796,729.05,803.36,709.47,808.42ZM694,888.5c22.44.11,17.46-35.47-3.82-31.94C672.75,859,674.26,888.63,694,888.5ZM719.12,777c11.82-5.74,23-12,32-22,3.21-3.58,5.21-12.47,11.43-8.82,13.16,8.15,26.43,19.5,42.95,18.84,12,.28,4.17-8.36,5.08-12.28,3.7-15.93,17-24.67,32.1-19.48,2.08.72,1.82-.45,2.06-1.46,4.87-20.42,2.61-39.11-12.83-54.85-2.77-2.83-7.79-6.32-2.8-10.8,7.41-6.66,12.52-15.11,16.69-23.59,2-4,12.22-15.12-5.36-15.81-15.86-.63-25-16.19-19.86-30.93.69-2,0-2.34-1.94-2.83-13.75-3.54-26.83-2.55-39.68,4-7.88,4-8.24,3.51-10.55-1.66-9.53-18.09-12.92-41.79-32.33-52.16-3.21,9.75-18.38,10.2-17.36,24a121.28,121.28,0,0,1-2.11,34.71c-3.52,15.91-7.35,30.58,10.55,40.74,4.26,2.42,5.7-1.7,8.64-1.83a2.49,2.49,0,0,0,.36-1.62c-1.61-10.56-9.82-43-2.29-50.1,1,1,2.75,1.91,2.92,3,1.32,8.55,6.17,16.52,3.73,26.09.81,6.26,1.68,12.94,2.53,19.63.53,4.2,4.91-.74,5.83,2.48,6.13-3,9.41-31.78,17.36-26.42,4.38,2.46,0,7.71-.82,11.89-2,7.46-13.19,14.38-1.26,21,6.64,3.84,10.59-4.07,15.87-6.24,6.19-2.54,11.46-7.29,17.26-10.86,4.69-3.47,11.48,2.73,4.56,5.27-10.08,6.9-20.4,13.45-30.59,20.2-.91.61-2.18,2.25-1.94,2.76.87,1.77,2.77,4.8,3.49,4.6,9-2.61,17.85,1.36,26.78.45,4.29-.44,6.79,3.23,6.87,6.28.09,3.56-4,1.61-6,1.67-8.65.27-17.31.13-26,.11-5.82,0-3.47,6.8-7.15,8.64a3.55,3.55,0,0,0,.67,2.48c10.37,7,18.91,16,27.82,24.58,7.16,5.81,1.49,12.25-4.34,5.7-9.36-8.2-18.75-16.4-27.51-25.21-4.78-4.8-4.88,4.29-8.38,2.12-.13-.08-2.29,2-2.13,2.78,1.62,8,3.91,15.91,5.12,24,.58,7.16-6.69,12-7.75,2.19-1.78-6-1.2-26.49-8.14-27.08-1.72-.25-4.8.18-5.24,1.2-4.38,10.12-8,20.59-12.61,30.58-1.53,3.31-2.38,9.81-8.36,7.75-9.08-4.29,14.37-35.62,13.28-43.69-8.18-12-31.18,17.81-32.8,24.9-.51,4.54-2.86,9-2.81,13.45.17,12.7-13.18,24.94.48,38.46C702,771.12,704.33,784.18,719.12,777Zm8.24-111c.8,18,32.79,26.48,35.29,1,.28-10.45-5.84-17.85-16.53-19.43C739,646.55,725.79,659.53,727.36,666ZM854,1481.7c-5.08,0-13-1.18-13.3,8.33-.28,9.66,3.43,15.62,13.8,14.94,7.34-.49,6-6.73,6-7C861.57,1487.74,860.64,1481.7,854,1481.7Zm4.71-123.4c.26-15.6-21.92-14.36-21.83.39-.22,10.56,7.4,10.86,13.26,11.15C857.17,1370.2,858.66,1363.1,858.69,1358.3Zm-2.3-188.43c1.44-18.31-21.62-17.42-22.91-.67-.29,5.49-.16,14.53,7.6,14.09C852.68,1183.21,856.33,1176.33,856.39,1169.87ZM843,1233c-10.84-1.64-10,6.84-11,13.24-1.87,16.48,22.14,11.18,20.86-2.55C852.7,1238.05,851.6,1231.65,843,1233ZM829.49,60.58c18.73,1.55,16.7-24.21,2.65-25.37-7.48-.4-11.42,5.24-13.64,12.23C820.34,53.55,822.1,60.67,829.49,60.58Zm-4,1356.35c-13.78-2.26-14.71,21.76-.79,20.23,9,.46,11.21-6.69,11.92-12.46C837.47,1418,831.33,1416.64,825.51,1416.93Zm-13.76,121.46c-7,.76-3.4,23.2,8.63,22.39C833.09,1560.22,833.63,1537.8,811.75,1538.39Zm-46.38-80.91c-12.13,0-11.26,24.39,1.27,23.18C781.07,1480.31,779.12,1456.54,765.37,1457.48ZM762.64,56.18c12.27-1.55,5.87-25.86-4.79-23.15C743.5,34.21,744.27,59.65,762.64,56.18ZM737.89,1520.87c-11.92-.51-11.4,18.18.05,17.48C748.06,1538.87,749.21,1519.62,737.89,1520.87ZM718,1570.33c-2.35,1.09-4.9,5.35-4.8,10.11.26,12.18,10.29,8.21,16.45,8.19,5.94,0,4.93-7.78,4.75-10.7C734,1570.26,727.43,1568.64,718,1570.33ZM675,35.43c1.07,15.93,27.51,11,27.21-8.09.6-8.08-4.28-14.77-14.4-14.47C671.83,13.61,675.21,25.71,675,35.43Zm-7.74,1452c-12.54-.93-11.33,23.87,3,21.71,7.73,1.26,8-6,8.46-11C679.4,1490.94,672.82,1488.11,667.28,1487.45Zm-9.46-1364c20.68.88,23.11-28.57,4.69-26.07-11,1.71-10,11.88-10.09,20.08C652.37,123.14,656.88,123.62,657.82,123.48Zm-5.59,397.39c-9.25-7.09-18.25-14.52-27.2-22-4.32-3.62-7.08-3.28-10.29,1.72-18.54,27.18-38,60.12-71.34,70.31-6.57,1.44-9.12-3.83-3.6-7.75a239.3,239.3,0,0,0,63.9-71.43c3.33-5.75-3.23-4.52-5.9-5.62-24.53-9.47-23.28-11.21-34.45,10.42-6.65,7.11-11,16.39-16.43,24.63-3.11,4.67-7.71,2.09-11.68,1.82-3-.2-3.58-2.57-4.46-5.34-5.06-16-14.17-29.8-25-42.42C493.11,455.93,526,458,533.43,457a167.6,167.6,0,0,1,32.68,2.75c7.35,1.24,9.27-8,13.19-12.82,6.89-9.41,14.88-18.61,19.4-29.46-16.64,1.82-30.55,11.29-47.81,3.43-7.31-2.92-13.23-8.57-13.57-16.92-.18-4.53,3.71-8.06,8.62-4.26,27.87,22.16,51.47-11.3,71.12-.73,4.68,3.27,3.63,8.28,1.52,11.35-11.41,16.66-17.9,36.45-32.62,51-4.62,4.59,22.62,9.65,25.93,12.94,7.07,3.81,16-26.88,28.42-31.78,3.23-2,6.75-5.16,10.86-3,5,2.61,5.29,8.31,5.74,12.9,2.1,21.33,3.72,42.7,8.15,63.73C666.19,525,657.36,525.51,652.23,520.87Zm-101-47c-8.16-.86-16.82-1.7-25.89.81,1.59,9,11.07,12.81,12.78,22.1,1.21,5.37,3.79,4.28,6.31.43C546.41,491.38,566.76,473.44,551.21,473.9Zm93.63-.62c-.26-4.68-1.38-9.31-2.12-14-2.54,3.62-5.9,6.94-7.4,10.95-1.65,4.43-9.54,7.4-5.37,12.56,3.57,4.42,9.9,6.62,15,9.81C644.94,486.18,645.21,479.71,644.84,473.28Zm-19-394.39c16.57-.67,18.57-26.25,1.25-25.38C612.67,52.76,608.09,80.91,625.82,78.89ZM607.25,1535.18c-7.23-.43-7.64,6.26-8.24,11.46-1.13,9.71,6.85,12.9,13.34,13.82C627.43,1560.18,621.45,1533.64,607.25,1535.18Zm1.11-98.1c4.55-.3,10.57,2,9.46-6-.83-6,.41-13.21-10-12.36-7.53.62-10.57,3.77-10.86,10.81C596.54,1438.9,603.42,1436.71,608.36,1437.08ZM588,26.87c7.48-.62,10.79-5.76,11.09-13.25.42-10.5-7.84-9.92-14-10.44C578,2.58,576.54,8.12,577,14.7,575.92,22.5,579.34,27.61,588,26.87ZM577,652c11.42,11,19.29,36-4,36.51-9.8-.3-12.58,5.59-14.74,12.36-3.28,10.34-2.63,19.56,8.49,25.84,9,3.8,25.73,28.32,15.42,35.71-4.54,3.66-18.19-18.62-22.43-22.1-1.91-2.24-2-.82-2.78,1.24-2.85,12-5,44.85-23.58,26.69-7.67-7-14.3-15.24-22.14-22.08-6.64-11.35-23.68,62.77-26.24,68.72-4.46,15.84-10.31,31.3-14.69,47.16-8.2,23.88-10.62,43.8,19.25,50.77,16.06,5.78,31.91,2.33,47.51-2.57a120.88,120.88,0,0,0,37.89-19.31c1.47-1.13,4.11-3.74,5.49-1.24,2.76,5-2.22,8-4.58,11.33-24.31,32.93-103.06,44.88-123.56,2.56C440.21,878,474.81,803.16,481,770.72a187.11,187.11,0,0,1,16.26-38.62c1.35-2.42.56-3.29-.52-4.52-12.7-14.41-5-33.25,7-43.12,6-4.91,11.81-9.71,19.16-12.51,1.63-.63,4-3.69,3.64-4.48-2.53-8.54-19.41-6-17.19-14.23,1.05-3.74,3.52-4.79,7.49-4.18,10.16,1.56,20.78,3.46,24.06,14.58,4.57,15.51-8.69,20.65-18.46,27.34-9.13,4.95-23.81,16.23-12,26.55,2.09,2.89,3.09-1.17,4.73-1.76,15.84-8.51,27.88,5.84,27.8-9.5.79-17.36,11.06-29,27.77-31.34,8-.28-3.08-15.14-3.6-19.48C564.21,648.25,574.07,648.83,577,652Zm-47.2,77.08c-19.61-.93,3.06,14.79,7.51,20.73,1.94,2.14,3.46,3.52,5.17-.15C548.5,736.69,544,729.06,529.77,729.06Zm14.18,838c-11.1-1.89-13,21.57-2.09,21.6C556.39,1590,556.84,1567.46,544,1567.09ZM542.09,1505c13.72,2.76,14-19.88,2.33-19.47C531.05,1484.88,530.64,1507.65,542.09,1505ZM511.47,38.58C519,37.9,525.82,33.42,525,23c1.85-8.25-5.48-10-10.57-9.6C501.75,12.39,497.73,38.61,511.47,38.58Zm-.23,1011.36c24.65,56.9-37.43,101.84-87,110.75-.9.26-3.4-2.18-3.82-3.73-3.69-6,37.14-20.85,43.35-26.11,20.56-11.65,44.71-33.79,37.58-64.63-4.33-18.74-21.89-34.45-41.54-33-14.66,3.86,20.31,24.8-21.07,44.13-21.52,10.66-43.39,22.18-56.41,43.47-3.37,3.39-6.84,8.65-12.27,5.89-24.81-12.25,3.27-65.2,18.69-78.91C419.31,1012.43,487,1004.21,511.24,1049.94Zm-66.87.11c-1.52-5.54-.65-10.44-1.24-15.63-34.21,4.43-65.87,35.44-67.88,70A216.26,216.26,0,0,1,432,1062.57C437,1059.81,446.75,1058.73,444.37,1050.05Zm39.25-943.19c19.88,2.71,25.5-24.7,7.82-28.42-11.25-1.09-13,8.16-14.8,17.24C478.33,99.58,476.45,106.59,483.62,106.86Zm-4.6,1450c-9.36-.31-14.57,3.37-15,12-.36,7.23,5.43,7.82,10.52,8.08C487.65,1579.6,493.83,1554.34,479,1556.89ZM428,58.8c9.8.18,13.82-6.83,15.3-15.48.9-10.07-6.54-10.06-12.68-10.22C414.77,31.39,411.65,58.43,428,58.8ZM413.32,1509.36c-5.84.58-9.81,5.6-8.43,12.8-.47,7.11,2.05,11.45,10.26,10.95C431.43,1531.15,429.15,1507.24,413.32,1509.36Zm3.91-53.28c1.63-15.94-23-10.23-21.26,3.5C396.1,1473.67,419.33,1472.13,417.23,1456.08ZM365.59,38.78c7.49.2,11.61-5.08,11.62-14.22.46-8.13-5.84-10.91-13.37-11.49-6.77-.53-9.53,4-8.79,10.14C355.89,30,356.27,38.53,365.59,38.78Zm4.7,405.58c-1.91,5.25-8.38,3.17-13,2.29-12.68-2.39-25.28-5.25-38-7.26-1.5-.23-3.83,3.61-5.39,5.83-.34.48.75,2.32,1.56,3.19q14.46,15.49,29.06,30.88a4.75,4.75,0,0,1,0,7.08c-5.21,3.82-26.18-22.61-30.41-27.11-1.81-2.05-3.39-6.2-7.27-5-8.78,2.63-9,8.79-7.25,16.68,2.17,9.56,4,19.43,4,29.17,0,7.34-4.2,4.64-6.56.6-4.25-11.84-3.28-25.28-6.29-37.5-1.26-6.19-6.82-3.2-10.77-3.23,2.33,2.29-.17,4-1,5.52q-7.68,13.68-16,27c-.74,1.2-2.12,4-4.64,1.54-6.29-4.37,11.91-27,14.48-33.32,2.35-3.78,1.16-6.62-.92-9.57-2.87-4.07-6.11-.76-8.35.43-9.56,5.08-18.9,10.59-28.1,16.31-4.13,3.52-9.41-2.81-4.85-5.8a116.76,116.76,0,0,1,29.61-17c5.95-2.43,4.7-7.32,4.58-11.73-.11-3.89-3.2-4-6.36-4.3-10.24-1.13-20.47-2.44-30.63-4.18-6.67-2.73-4.66-7.36,0-7.76,12.68,1.57,22.14,2.37,31.44,4,6.13,1.09,9.62-2.24,10.95-6.72-2.69-10-20.18-22.31-27.27-31.17-2.13-2.2-3.48-5,0-7,7.37-5.21,24.87,23.53,30.84,28.68.82,1,3,2.15,3.49,1.79,3.35-2.41,9.12-5.22,9.12-7.9,0-11.69-1.67-23.39-2.79-35.08-.29-3-2.31-6.24.65-8.72,6.69-4.72,7.6.12,6.69,5.87,1.46,11.9,2.34,23.89,4.26,35.72.75,4.66,6.34,4,9.87,4.89,4,1,4.07-3.74,5.6-5.86,5.32-7.39,9.9-15.3,15-22.82,1.77-2.59,4.16-4.44,7.72-1.86,4.08,3-.2,5.09-1,6.42-5.88,9.42-12.44,18.4-18.55,27.68-3,4.6,2.4,7.13,3.47,10.78.84,2.87,2.66-.73,3.94-1.12,12.84-3.92,25.49-8.42,38.28-12.47,1.95-.62,4.76-.2,5.38,2.69,1.63,7.12-37.91,16-44.71,18.51-.89.24-1.53,4.38-.94,6.3C320.5,436.74,374.57,435.5,370.29,444.36Zm-59.58-17.84c-2.8-27.9-38.11-19.66-37.65,7.88-1.39,10.7,6.8,14.92,16,16.25C299.11,452.11,311.74,438,310.71,426.52Zm45.2,1126.38c-10.35-2.18-9.73,19.35.25,18C369.11,1572.22,370,1552.17,355.91,1552.9Zm-15.81-79c-5.82-.13-10.22,3.15-9.69,9,.4,4.53-2.37,12.28,7.83,12.2C350.34,1495.87,353.5,1474.59,340.1,1473.89Zm-25.66,45c-6.4.4-12.95,0-13.48,8.89-.4,6.71,1.15,12,9.08,11.39C323.26,1541.76,328.18,1518.74,314.44,1518.85ZM288.2,32.67c5.72-.42,11.89-3.27,10.85-11.46.27-5.23-1-10-7.1-10C277.6,9.05,273.26,32.38,288.2,32.67ZM271.13,1563.3c-6.48-.92-6,5.33-6.38,11.77-1.39,8.21,7.36,9,12.74,9.13,5.71.11,7.34-7.27,7.28-12.09C284.67,1563.72,276.35,1564.05,271.13,1563.3ZM213,53c17,1.07,16.64-25.37-.19-23.91C199.15,28.94,199.76,53.1,213,53Zm-2.55,57.9c13.94,1.21,12.16-22.78-.61-21.42C194.57,88.28,195.34,111.17,210.44,110.86Zm-10.77,1444c-12.37-2-12.17,22.49,2.64,21.69C215.57,1576.7,214.61,1552.71,199.67,1554.88ZM158.65,74c8.2-.2,10.72-5.1,10.49-12.43-.26-6-.85-12.13-8.95-11.5-5.3.42-13.95-2.14-13.8,6.65C146.51,64.05,146.14,74.3,158.65,74ZM130.47,1527c-14.1-2.55-15.63,20.74-1.83,20,5.67-.32,12.11-.92,12.18-8.3C140.88,1532.43,139.51,1525.62,130.47,1527ZM121.15,26.52c16.37,2.1,17.56-26.36.67-25.21C107.1.05,108.49,25.38,121.15,26.52ZM121,156.63c-10.23-.07-12.53,9.34-13.59,16.28-1.35,8.81,7.51,11.78,14,11.7C138,185.77,138,155.85,121,156.63Zm3.82,1300.15c3.35-12.22-7.41-10.3-13.47-10.71-10.24,1.52-7.15,22.93,5,21.11C123.17,1467,126.18,1464.27,124.83,1456.78ZM105.21,338.88c9.49-1.19,7.88-10.12,9.4-13.95,1.5-9.6-4.93-11.84-8.67-11.49C89.1,312.94,86.19,341.27,105.21,338.88Zm-3.07-224c12.8,2.21,11.47-7.53,11.77-15,.32-8.19-7.15-7.43-11.85-7.39-7,0-10.27,5.6-9.74,12C92.76,109.84,93,117,102.14,114.87ZM109,1098.43c3.92-13.71-17.7-18.94-18.67-4.75C88,1112,111.27,1112.66,109,1098.43ZM97.34,863.58c11.23-.75,10.27-22.36-2.51-21.13-8.55,0-9.2,6.8-9.7,12.45C84.36,863.6,92,863.66,97.34,863.58ZM72.24,744c-.94,8.3,5.26,11.59,12.05,10.62C95.74,754,97.22,730.27,82.47,733,73.65,731.06,72.89,738.37,72.24,744Zm.4,396.51c-13.7-.56-13.37,24.51,1.4,24.59,9.77.43,11.64-6.38,11.86-13.35C86.17,1143.45,81.21,1139.92,72.64,1140.55ZM69.14,231c-8.76.49-9.81,7.11-10.79,18.12-.18,1.14,2,5.92,7.16,5.44,6-.55,15.22.18,15.16-9.19C80.64,238.83,79.26,230.44,69.14,231ZM68.58,57.14c8.57,1.15,8.48-5.72,9-11.06.7-7-1.53-13.22-9.92-12.93C52.05,32,52,58.13,68.58,57.14ZM59.09,1477.37c-10.11.69-9.4,20.61,1.35,22.07,4.14-3,11.88-2,12.47-9.44C73.66,1480.59,66.29,1477.62,59.09,1477.37Zm-2,83.25c-10.28,1-10.77,20.09.48,18.68C74.17,1581.42,72.44,1557.5,57.09,1560.62Zm-6.8-160.44c.16,6.32,2.46,11.18,10.65,11,12.41,1.11,8.16-22.77-2.29-21.89C52.73,1389.21,50.14,1394.5,50.29,1400.18Zm3.63-371.56c10.75-.16,8-10.2,8.91-16.59.77-5.47-2.7-11.29-8.28-10.65C37.85,1001.83,40.37,1029.56,53.92,1028.62Zm-9.09-610c18.34-.28,18.66-27.07,2.07-25.56C32,391.69,30.76,418.52,44.83,418.6Zm13.82,847.21c.1-10.14-20.52-13.56-19.07,1.84.14,3.72,1.1,11.08,8.64,9.36C56.94,1277.84,58.48,1271.16,58.65,1265.81ZM48.77,165.15c15.85,1.26,10.6-25.34-2.14-25.79C35.82,137.15,30.53,166.33,48.77,165.15Zm-3,634.28c6.87.14,9.84-3.79,9.25-11.33,2-8.47-4.14-12-11.23-11.77C32.29,777,30.58,801,45.74,799.43ZM38.56,327.94c11.69-2.09,8.71-24.87-4.21-23.07C19.12,304.12,18.47,330.79,38.56,327.94ZM30.39,1070c-15-1.42-15.52,25.5.33,25,9.47.14,9.59-7.38,10.2-13.6C41.62,1074.31,37.22,1070.27,30.39,1070ZM17.1,1291.31c-13.8-2.94-21.34,21.78-2.76,25,6.14.47,11.49-3.85,11.32-10.28C25.5,1300.25,25.72,1291.67,17.1,1291.31Zm-6.56,230.15c-14.08.37-12.16,27.38,2.59,25.69C31.85,1546.35,26.69,1519.69,10.54,1521.46Zm-.28-60.22c4.58-.23,13.17,3.38,12.81-8.59-.65-5.52-1.64-13.07-10.52-13.45-6.54-.28-10.84,4.14-10.49,11.24C2.32,1455.76,4.14,1461.55,10.26,1461.24Z"/></g></g><g id="Red_Japanese_Frames" data-name="Red Japanese Frames"><path class="cls-7" d="M0,20V1580a20,20,0,0,0,20,20H956a20,20,0,0,0,20-20V20A20,20,0,0,0,956,0H20A20,20,0,0,0,0,20ZM924,1548H52V52H924Z"/><path class="cls-8" d="M952.1,15.41,928.69,38.83A4,4,0,0,1,925.86,40H50.14a4,4,0,0,1-2.83-1.17L23.9,15.41A2,2,0,0,1,25.31,12H950.69A2,2,0,0,1,952.1,15.41ZM40,1549.86V50.14a4,4,0,0,0-1.17-2.83L15.41,23.9A2,2,0,0,0,12,25.31V1574.69a2,2,0,0,0,3.41,1.41l23.42-23.41A4,4,0,0,0,40,1549.86ZM936,50.14V1549.86a4,4,0,0,0,1.17,2.83l23.42,23.41a2,2,0,0,0,3.41-1.41V25.31a2,2,0,0,0-3.41-1.41L937.17,47.31A4,4,0,0,0,936,50.14ZM925.86,1560H50.14a4,4,0,0,0-2.83,1.17l-20,20a4,4,0,0,0,2.83,6.83H950.69a2,2,0,0,0,1.41-3.41l-23.41-23.42A4,4,0,0,0,925.86,1560Z"/></g></svg>