<svg xmlns="http://www.w3.org/2000/svg" xmlns:xlink="http://www.w3.org/1999/xlink" viewBox="0 0 976 1600"><defs><style>.cls-1{fill:none;}.cls-2{fill:#f4f3ef;}.cls-3{clip-path:url(#clip-path);}.cls-4{fill:#6060bf;}.cls-5{fill:#50b271;}.cls-6{fill:#ffb85a;}.cls-7{fill:#ff8db6;}.cls-8{fill:#997664;}.cls-9{fill:#d81e1e;}.cls-10{fill:#592116;}.cls-11{fill:#992d17;}</style><clipPath id="clip-path"><path class="cls-1" d="M960,22V1578a6,6,0,0,1-6,6H22a6,6,0,0,1-6-6V22a6,6,0,0,1,6-6H954A6,6,0,0,1,960,22Z"/></clipPath></defs><g id="Paper_Backing" data-name="Paper Backing"><path class="cls-2" d="M960,22V1578a6,6,0,0,1-6,6H22a6,6,0,0,1-6-6V22a6,6,0,0,1,6-6H954A6,6,0,0,1,960,22Z"/></g><g id="Wikipedia_Cropped" data-name="Wikipedia Cropped"><g class="cls-3"><path class="cls-4" d="M842.31,1279.2C555.23,1274.64,260.42,1219,5,1089.34c-23.35,14-2-273.39-9-275.75,3.26-12.29,20.47,9.15,27.39,10.58,43.34,33.42,72.71,12.25,62.49,79-2.19,25.73,35.5,31.15,54.09,38,16.76-8.85.51-39,8.84-53.84,7.08-5,14.88,5.33,23.25,5.57,27.81,12.61,61.26,16.92,87.08,31.07,12.62,55.78-20.26,58.23,50.44,73.24,35.6,13.88.72-50.86,21.34-56.63,18.76,9.07,110.11,14.65,108.28,33.23,3.13,13.89-3.3,41.34,9,49,20.3,1.05,58.47,21.35,58.79-4,4.34-12.53-12.11-37.23,6.59-39.34,31.33,5.3,63.57,13.64,97.12,13.75,25.62-1.89,14.83,29.48,17.53,46.47,11.91,14.07,45.55,14.24,62.18,10.7,3.92-14.15-3.09-31.21,1.91-45.44,35.73-4.43,76.43,6.09,114.07,1.17,14.16,3,3.85,38.56,6.28,50.72,10.31,16.42,43.26,10,62.58,12.37,16.34-10.6-2.28-44.22,8.72-59.33,28-8.16,62.22-5.66,92.07-9.09,9.28,2.53,4.22,268.32,1.87,273.78-43.93,3.47-92.08,3.43-135.56,4.52Z"/><path class="cls-5" d="M0,1604c-11.3.73-.26-231.24-4-235.3-.21-5,8.82-5.55,10.26-1.37,80.29,61.34,186.24,90.5,282.24,119.75,210.24,54.93,426.36,91.14,644.2,75.65,13.33-.85,28.43-1.51,41.61-7,2.5-.4,5.87.93,5.7,4V1600C981,1611.77,3.91,1599.92,0,1604ZM490.15,836.53c-65.95-.95,33.53-66.63,51.89-40.16,15,26.27-29.57,39.52-51.89,40.16ZM251.28,773c-76.77-3-6.26-54.67,29.62-35.15C303.29,757,270.91,774.28,251.28,773Zm-83.21-26.8c-19.79-13.59-26.15-64.31-2-77,29.77,5.78,25.14,66,2,77Zm739.49-105c-8-2.26-22.44,3.87-27.29-3.66a6.08,6.08,0,0,0-5.06-5.68c-8.4-27.06,59.17-42.17,80.7-37.09C1009.45,604.92,926.56,647.45,907.56,641.19ZM37.72,576.74c-98.87,0,48.65-69.24,46-22.88C77.61,570.61,55,576.17,37.72,576.74Zm749.07-2c-23.39-15.13-37.28-67.93-13.72-85.43C799.38,501,814.55,559.21,786.79,574.72ZM894.53,470.56c-28.31-6-52.3-21.78-62.41-50.28v0C835.51,364.2,918.44,452,894.53,470.56ZM80.27,439.4c-37.88,0,19.7-72.81,43.12-52.26,2.9-.83,6.77-.15,6.79,3.58C131,418.62,107.58,439.67,80.27,439.4Zm12.1-66.5c-21.27-1.53-45.94-12.81-48.84-27.35,18.3-16,50.37-13.15,70.26,1.5,2.59,4.4,1.32,9.37,6.25,12.94C118.05,370.32,101.31,372.21,92.37,372.9Zm323-108.39c-26-14-49.88-61.09-27.31-86.06C424.19,184.91,443.17,243.25,415.37,264.51ZM483.2,252.3c-4.48-.12-4.27-7.2-9.39-6.56-3,.18-4.74-2.77-4.16-5.49,4.48-27.49,48.77-57.09,76.41-41.89C551.56,230.37,508.26,248.28,483.2,252.3Zm403.26-3.57c-26.16-32.29,32.43-70.83,62.92-67.63,34.4,3.06-9.23,51.2-25.56,56.93C912.86,243.47,899,245.47,886.46,248.73ZM91.72,188.85C74.12,192,24.54,161.22,53,151.44c20.37-.4,39.43-1.75,55.89,22.54,3.14,5.17-5.16,5.92-5.24,10.53C102.51,189.55,95.86,188.37,91.72,188.85Zm477.78-14c-25.57,0-50.6-20.29-57.08-38.51,2.49-19.67,37.9-13.77,53.32-8.75C597.44,136,612.87,174,569.5,174.82Zm219.25-40.49c-33.17-19.08,1.76-73.47,27.37-83C841.39,69.4,817.18,127.13,788.75,134.33Z"/><path class="cls-6" d="M870.93,1064.41c-34.85-1.13-65.23,1.91-57.87-43.55,1.56-18.11-5.86-42-.25-58.21,20.77-10.65,48.94-4,71.66-3.91,8.6,2.72-5.36,10.23-2.09,24.37,1.51,14.64-3.24,25.34-1.44,39C880,1036.29,885.46,1056.69,870.93,1064.41Zm-193.7-16.88c-34.52-3.31-50.68,4.78-49.67-36.27-3-6.6,4.41-10.77,1.93-16.71-3.88-13.29-6.11-31.54-2.54-45.4,16.1-5.21,35.79,3.8,53.33,2.16,6.81-.88,15.78.88,11.26,9.24-4,13,4.12,29.4-2.76,40.7a6,6,0,0,0,.68,7.37c4,5.5,2.52,23.48-1,30.64C683.47,1040.8,681.63,1045.83,677.23,1047.53Zm-181.67-22.77c-39.88-5.69-57.36,2.36-56.27-46,4.59-17.84-5.45-37.24-.24-56.45,4.5-13.88,29.85,2.17,41.24.89,10.67,2.72,34.87,1.35,27.45,18.51-.61,16.42-2.66,33.14-.93,49.2C507.27,1005.41,513.14,1020.28,495.56,1024.76Zm-184.7-33.92c-16.82-5.2-43.76-3.18-49.76-22.15,1.3-25.81-.89-58.61,1-84.63,8.78-17.67,36.63,2.32,51.76,2.34,17.08,1.88,9.59,19.93,11,31.38,4,14.1-4.73,22.78-.47,35.75C324.6,969.19,330.21,986.65,310.86,990.84ZM132.31,934.21c-13-3.27-23.07-10.26-36.53-16.15-7.76-3.72-1.07-9.14-6.78-13.18-5.38-14.32-.36-32.35-.94-47.69-4-7.37-.31-15-.88-22.77.15-7.3-3.51-16.24,1.88-21.92,17.42-.75,35.41,14.12,53.05,18.8,12.23,7.92,4.78,37.59,5.57,48.65-1.13,15.63.3,32-.23,48.5C146.34,934.86,137.08,931.27,132.31,934.21Z"/><path class="cls-7" d="M701.67,884.89c-15-4.78-27.9-14.61-38-27.6-16.6-8.53-37.77,30.74-57,15.13,0-81.51-69.8,5.7-31.55-78.47,4.56-9.25-49.13-34.25-21.84-48.83,29.05-16.8.38-21.83-.21-41,15.92-30.48,64.39-8.44,67.07-19.75,3.4-12.08,8.41-33.94,23.2-37.75,67,35.82,39.39-39.53,72.54-8.46C732.38,650.26,730.4,676.06,745,686c20-7.93,77.2,15.6,54.12,38.85-17.21,12.92-2.65,32.45,14.37,34.33,1.09.14,5.3,1.45,5.3,4.92-3.67,23.8-29,24.59-44,34.56,7.87,19.2.52,73.66-24.31,66.53C716.42,837.9,721.46,877.36,701.67,884.89ZM679.35,738.94c-27.12,1.14-31.81,37.75-5.51,43.87,11.18-.8,25.15-7.65,23.77-20.46C704.65,751.63,688.08,741.65,679.35,738.94Zm-464.88-69.6C196.08,666,186.64,650.06,172.88,638c-14.95,6.79-28.81,13.27-46.5,6.55-15-4.08-.37-20.89-7.75-29.11-5.49-9-22.1-4.29-26.56-15.11C81.5,581.86,110.55,563.56,106.21,547c-10.49-13.09-14.86-29.67-8.44-43.87,4.59-6.27,18.12-1.88,22.29-9.94,9.05-9.62-5.21-24.49,6.76-29.76,62-21.09,34.61,34.94,85.71-16.54,7.8-4.61,10.49-3,14.07,8.42,11,38.54,58.89-13.57,48.37,47.63-1.06,15.41,29.79,3.32,40.2,25.91,9.09,8.83-20.29,25.68-3.85,35.79,20.44,18.38-14.57,33.87-30.35,32.9-4.68-1.12-9.66,2.94-7.91,7.86,6.46,13.24-1.07,58.54-24.34,44.36C232.9,642.68,226.72,666.26,214.47,669.34ZM196.68,536.12c-11.13,3.69-22.59,17.47-16.41,29.61-.1,4.17,1.06,7.66,5.37,9.16,4.88,3.79,9.1,8.06,16.07,6.17,6,1.29,9.47-1.52,13.58-5.46,6.41-3,6.34-9.23,7.54-15.23C225,545.27,209.41,538.54,196.68,536.12Zm257.84-10.89c-13.54-5.12-27.09-13.15-37.09-25.91-10.4-6.85-27.62,20.75-52.7,15.88-6.29.41-15.94-.24-13.65-9C350,478.68,297.56,494,314.31,460.3c16.34-25-38.31-30.87-28.17-67.83,34.05-11.69,14.82-24,28.57-44.73,9.43-9.14,22.59-2.38,35,.64,13.8-9.2,7.21-45.33,36.08-54.9,25.9,25.45,21,12.86,47,.55,25.75,1.36,17.62,42,32.77,51.2,16.1-5.59,44.34-.68,56.45,8.13,9.08,8.18,1.88,12.29.08,17.16-9.87,36.7,61.43,29.28-12.72,65.47-10.46,17.95,29.94,55.36-16.18,58.69C462.78,495.7,470.21,524.75,454.52,525.23Zm-47.7-138.35C396.75,389,384.86,395.1,387,407c.85,11.48,4.12,20.29,17.11,20.94C431.37,430.61,433.35,390,406.82,386.88Zm412-77.37c-16.34-19.28-51.35-4.31-39.27-28.92,11.72-77.3-28.1-28.21-44-45.64-11.21-22.27-8-17.6-31.82-16.14-7.59,2.65-11.95,11.31-21.08,13.25-6.48,2.8-6,12.56-12,16.74-5.71,12.49-26.94-21.77-42.8-15.81-19.79,3-34.74-7.82-27.14-32.2,6.08-3.63,19.91.44,23.07-6.4,7.33-10-11.29-34.45,11.14-32.73,15.36-3.14,29.93,1,41.86,12.64,12.77,5.47,17.57-34.09,52.09-35.35,4.5,0,6.85,2.77,7.4,8.74,13.42,37.4,39.41-12.2,48.42,21.82,5.69,10-4.39,31.89,7.74,36.06,14.72-2.68,35,.26,42.79,16.37-14.61,20.53-5.56,27.81,13.16,36.72,1.92,16.65-24,22.58-25.84,36.51C822.92,300,824.92,308.58,818.78,309.51ZM188.41,212.44c-28.77-26.48-74,10.17-56.18-15.64,3.63-3.77,7-6.83,4.14-11.5-12.49-8.18-26.65-48.42-.88-51.31,16.45,1.37,18.75-20.35,20.47-31.49C179.36,82,197.19,120.42,214,115.61c9.52-15.68,25.39-23.69,43.42-26.49,20-4.83,13.79,16.43,20.35,27.19,10.38,13.9,41.78-5.41,37.56,20.74-.15,11.21-5.66,27.37-15.34,31.69-5.79.41-11.8-13.23-18.48-13.08-8.81,2.73-14.19,13.85-25.17,13-21.49-1.94-20.36-33.54-44.91-3.19-1.17,4.34-12.86,7.05-11.87,13.4C195.14,188.28,196.79,206.58,188.41,212.44Z"/><path class="cls-8" d="M835.67,951.57c-14.6-.08-23.48-.16-35.1-5.41-15.89,8.63-34.35,1.36-51.68,3-14-4.34-25-1.58-39.74-2.58-24.52-.9-47.25-6-71.08-6.41-85-10.45-165.05-23.95-248.58-44.07-68.58-17.12-138.91-30-206-57.71-24.49-12.81-64.11-13-83-37-19.5-1.27-38.7-12.13-57.39-22-11.71-2.25-19-17.94-30.33-18C6.32,757-1.13,770.89-4,760.5c-.14-16.94.13-46.94,0-64,.23-3.48,3.5-4.42,6.55-4,4.65-.06,3.31,5.79,7,7.27,17.94,6.11,29.82,20.32,43.24,31,26.64-.32,52.88,20.64,75.94,32.66,37.54,5.8,74.09,27.12,111.58,36.87,33,11.08,69.64,18.84,102.61,26.64,24.46,4,49.8,14.14,72.46,18.8,44.15,7,91.24,13.95,133.16,27.3,21-2.17,45.73,2.55,65.6,8.13,8.25-4.15,15.81,1.09,24.34,1.49,14.74,4.33,30.53-2,43.32,7,33.36-6.2,73.48,4.34,109.52,1.39,33.29,3.76,67.83-5.53,99.89,4,25-9.94,56.77-6.43,84.18-10,9.7.33,2.37,20.48,4.65,25.93v32.52a4,4,0,0,1-1.8,3.34C930.48,948.28,883.57,950.28,835.67,951.57Z"/><path class="cls-9" d="M853.65,1565.19c-193.06,1.18-384.78-31.48-571.28-80.86-95.7-23.57-197.89-70-282.37-111.63-7.62-2.93-7.51-288,0-290.9,19.36,6,35.39,23.39,54.75,31.43,284.79,130.34,605.58,184,917.74,160,17.15-6.32,8.1,288.3,3.55,290.54C935.86,1558.86,895.4,1566.11,853.65,1565.19Zm11.43-706.63c-22.67-.58-22.46-39,.53-37.55C892.49,819.38,892.78,860.81,865.08,858.56Zm-54.76-39.95c-11.86-2.56-23.75-6.08-32.48-16.88-4.67-10.08,37.08-7.32,42.27-33.79,1.63-11.63-17.73-9.74-23.25-18.21-15-14.79,8.8-23.9,11.29-37.33-3.85-4.52-11.76-18.63-16.61-19.55-15.81-4.62-29.89-15.9-47.47-6.44-17.39-17.44-11.84-50.61,10.52-63.58,9.77-8.15,14,7.95,23.31,8,30.59-5.4,30.09-29.1,43,23.75,5.61,9.72,28.62,5.07,37.65,17.41,13.6,8.21-5.94,19.1-3.68,28.12.12,8,12,9.65,15.28,17.84.12,14.18-16.81,18.93-24.57,28.63,5.38,12.27,19,56.41-10.21,47.67C819.32,790.8,820.09,820.34,810.32,818.61ZM449.77,794.76c-16.45-1.25-31.15-8.57-41.12-21.72-7.84-9.17-34,29.74-58.38,13,3.37-26.46-2.16-35.81-29.2-27.82-24.84-6.42-5.13-35.68-.06-50-11.49-9.55-33.49-16.3-31.36-36.39,5.69-5.53,21.24-9.34,20.72-15.63h0c3.31-5-18.53-21.88-8.08-27.49,13.09-13.75,35.82-8.46,53.65-5.46,7-18.89,8.34-44.84,30.53-53.69,9.42,3.37,14.46,19.42,25.18,17.4,10.74,1.77,15.5-12.78,25.05-17.44,26.3,6.71,11.8,55.2,39.57,44.62,34.27,9.34,5.93-29.6,33.24-50.87,5.75-11.13-27.33-19.91-23.87-49.49-2.26-25.41,32.89-15.07,30.88-36.51-1.64-10.52,9.25-11.15,17.19-11.62,11.42-2.76,22.69,19.39,30.88,7.24,5.9-16.38,23.36-35.89,42.08-36.8,12.36.3,7.75,20,23.19,21,31.06-17.8,41.59,5.62,40.17,34.78,8.81,13,40.21,9.61,45.08,30.57-3.26,7.93-19.16,15.65-16.82,24.42-4.76,7.76,23.48,18.58,14.57,29.07-8.31,16.24-24,15.51-36.86,21.66-2.38,3.57.8,7.37,1.87,10.73,5.2,14.72-7.38,54.53-28.53,40.45C622.47,633,623.1,707.07,581,634.78c-5-11.19-27,14.35-42.61,9.64-9.78,3.12-35-12.5-29.46,7.11,2,8.3,18.91,7.34,21.35,16.8-1,22.08-26.06,25.83-39.52,40.61,6.59,17.89,13.24,36.54,3.31,53.82-1.17,2.85-6.06,2.86-10.15,1.25C449.82,754.74,468.62,793.83,449.77,794.76ZM678.49,780.7c-29.6,3.49-24.27-42.81-2.77-39.57C703.07,738.57,702.94,781.51,678.49,780.7ZM105.94,707.79c-28,2.83-30.3-42.59-2.27-42C130.64,664.13,133.49,708.78,105.94,707.79Zm91.25-127.41c-29.31-.76-19.7-47.44,4.11-41.38C231.62,543.58,226,583.61,197.19,580.38Zm663.5-9.77c-26.35,1.76-26.94-43.18-1.08-41.6C888.89,527,889.91,572,860.69,570.61Zm-117.43-114c-1.55,0-7-1.69-7.72-5.44-24-45-40.21,46.88-64.51-27.51-5.89-10.92-19.13,4.47-28.94,1.55-6.56-1.13-31.68-1.14-27.59-11.82,10.56-10.8-1.23-33-22-28.42-31-4.82,1.55-43.92,12.51-56.14-9.66-13.25-18.41-27.35-16.73-44.44-.18-6.46,2.9-10.56,9.25-10.58,13.91,4.13,25-15.59,19.08-26.92-5.58-10.49,7.22-11.51,13.88-11.79,12.64,0,22,7.55,30.41,15.29,12.33,6,21.67-30.47,53.84-31.24,19.23-9.62,12.86,25.52,32.8,23.46,6.69,1.34,13.71-6.94,19.64-6.68,16.22,4.31,16.31,37.19,9.73,50.47-4.58,12.36,41.72,11.09,46.38,35.93-1.76,15.09-26.78,15.4-7.58,38.86,5.75,3.61,10.88,11.17,7.79,13.22-7.82,18.94-25,24.22-42.92,24.62-7.67,1.4-4.07,10.41-5.23,15.84C771.25,434.19,758,447.93,743.26,456.57Zm-336.8-30c-24,2.08-26.08-36.58-3.61-38C429.15,384.85,432.89,427,406.46,426.59ZM198.26,383c-14.42-5.25-6.68-29.46-25.17-30.12-7.4.37-14.86,14.64-21.77,4.08-14.41-21.25-2.36-40.51-1.21-60.25-15-7.44-38.36-13.09-38.15-35.6,28.76-19.95,13.86-18.42,10.35-43.82,29.53-33.31,68.8,5.5,70.84-11.35,1.49-24.74,15.37-44.42,40.07-52.72,6.15.56,9,14.82,16.5,16.48,15.62,9.45,29.33-25.74,41.9-4.5,11.3,9.65,11.66,25,17.48,37.48,17-.93,40.19-3,49.54,18.08-15.59,21.91-4.9,27.5,11.52,41.42-1.78,16.73-20.56,27.7-35.76,30.4a6,6,0,0,0-3.82,9.52C376,367.67,302.08,317,304.93,371c-.14,8.33-5,10.08-9.14,10.08-27.35,5.45-46.16-20.42-56.37-15C228.87,376.74,215.11,382.31,198.26,383Zm685.9-40.34c-24.12.46-24.56-37.78-.12-37.18C906.65,303.61,911.13,344.36,884.16,342.64ZM531.64,313.42c-28.95.35-25.54-45.61,4.16-40.25C556.46,273.32,555.45,316.14,531.64,313.42ZM867.12,152.11c-31.2,2.17-25.91-45.06,0-41.3C892.13,110.86,893.43,152.71,867.12,152.11ZM406.26,130.74c-29.85,1.78-27.77-42.81,2.53-39.94C431.49,88.07,432.39,133.37,406.26,130.74Zm229.93-7.85c-17.69,4.89-27-37.52-2-38.55C663,79.13,665.13,124.81,636.19,122.89ZM89,111.3C62.16,112.75,61.32,66,88.78,65.37,122.24,60.79,123.26,115.19,89,111.3ZM333.37,82.81c-24.24,1.12-22.88-39.9,1.42-35.83C358,45.56,359.76,85,333.37,82.81Z"/><path class="cls-10" d="M976.76,1273.38c0,2.47-.37,3.63-3,3.76-40.17,2.27-80.19,7.4-120.47,6-125.3,3.37-252.8-10.27-375-34.3-147.1-29.54-291-64.61-425.36-132-16.53-8.32-31.77-19.17-47.53-29-.7-.44-2.3-1-2.3-2,.21-1.78,3.75-3.11,5-2.46,15.73,8.86,31,18.59,47.06,26.79C228.26,1192.6,418,1231.59,606.39,1260.67c89.19,11.25,179.7,14.57,269.47,13.91,32.41-1.38,64.81-.73,97.13-3.56C974.8,1270.61,977.07,1270.62,976.76,1273.38Zm-13-384.11a6.37,6.37,0,0,0-1.71.57c3.12,6.41,9.56,10.74,13.94,16.38,1.68,1.44,2.73,4.12,0,4.79-8.62.42-13.73-11.92-19.25-17.4-3.39-4.45-8-2.65-11.87-2.4-16.45,1.08-32.87,2.71-45.69,3.83,13.48,14.43,28.51,30.61,43.65,46.67,8.85,7.36,22-1.48,32.42,1.63,4.09.54,1.24,5.92,1.9,9.06.57,2.45-1.37,2.57-3.06,2.68-20.23,1.4-40.59,1.88-60.63,4.68-9.93,1.39-20.2-1.4-29.73,2.92,5.43,8.37-4.58,40.48,6.22,38.35,27.75-.63,55.56.76,83.21-2.08,2.46-.2,4.18,0,4.19,3.25s-1.71,2.78-3.86,2.87c-25.5.73-51.45,4.52-76.72,5.57-11.09-1.07-12.5,3.57-11.94,13,.82,13.63.21,27.34.23,41,0,5.48-1.45,8.44-8.16,8.64a228,228,0,0,1-62.3-6.36c-9.31-2.32-5.23-10.58-5.43-16.43-.45-12.69-.22-25.4-.27-38.11,0-1.64-.7-2.17-2.49-2.13-19.11.34-38.34,1.94-57.31.39-16.24-1.32-32.5-2.47-48.75-3.6-4.18-.29-6.43-.69-5.64,5.58,1.27,10-1.08,20.56.81,30.37,1.51,7.83-1.29,13-7,13.37a177.66,177.66,0,0,1-57.93-7.29c-6.74-1.68-6.47-6.52-6.42-12.27a295.86,295.86,0,0,0-1.93-36.82c-.15-1.35-7.58-2.57-11.66-2.64-31.15-.53-61.69-6.54-91.8-13.08-15.42-3.35-9.55,6.8-9,10.36,2,12,.79,23.87,1.1,35.78-.18,12.18-54.6-2.25-63.69-3.61-7.92-1.88-9.11-8.88-9.53-16-.73-12.28-2.17-24.52-2.52-36.81-.28-10.2-8.9-7.52-13.49-8.33-29.15-7-58.73-12.87-87.59-20.43-6-1.73-6,.39-5.39,6.06,1.13,11,.25,22.24.4,33.37,4.51,17.09-7,21.86-20.65,16.46-14.46-4.11-28.93-8.17-43.47-12a7.58,7.58,0,0,1-5.33-6.55c-.48-10.89-4.2-21.4-1.86-32.77,1.57-7.65,1.76-17.66-2.06-23.67-3-4.7-13.14-4.75-20-7.07-21.75-7.32-43.6-14.37-65.08-22.4-4.16-1.56-9.26-2.07-12.23-4.17-9.57-6.77-6.94.35-7.41,5.26-1.33,14,2.52,28.33-1.95,41.89-4.4,17.19-47.6-10.09-57.34-14.4-11.51-5.74-10-15.13-9.74-24.76.36-12.94,1.66-26,.48-38.78-.51-5.63-9-6.15-14-8.17-23.49-10.82-47.63-24.08-67.16-40,.56-3.23,3.73-3.26,6.48-1.65,24.82,13.07,48,29.17,74.66,38.68-.44-21,9.26-40.77-17-48.79C46.55,795,29.43,783.9,13,772.07c-10.09-5.2-14.57-6.73-11.32-19.41a105.94,105.94,0,0,0,11,4.69c0-5.69-18-27-12.73-28.16,1.64.06,3.4-2.57,5.19.6,4.73,8.56,10.6,16.53,14.8,25.31,6.39,13.37,19.34,17.58,30.9,23.7,13.07,5.8,25.66,15,39.61,17.79-14.74-25.84-33.78-50-52-73.63-6-10.88-39.09-18-35.57-28.23,23.73,8.44,43.13,26.33,67.1,34.69,19.15,7.29,36.49,18.52,56.48,24.15,11.78,3.32,22.15,12.13,34,14.74,15.08,3.33,28.65,10.14,43.16,14.57,45.65,16.4,92.87,26.83,139.94,38.15,44.07,13.15,89,21.82,134.18,30.25,39.66,9.09,79.8,14.84,120.17,19.75,1.5.21,2.57,1.14,3-1.39,3.2-18.09-12.92-38.52-31.36-28.48-10,3.16-10.09-4.59-10.47-10.1-.91-13.1,3.2-25,11.35-35.27-27.43-.4-14.41,31.46-54.46,41-15.36,5.68-32.06,6.89-47.06.07-13.17-5.93-4.41-15.23-.44-21.43,9.31-14.5,24.17-21.45,40.31-26.75,22.4-9.07,37.27,8.07,57-.73-12.74-9.14-22.92-19.27-26.74-35-2.44-13.58,35-13.54,17.07-31.8-4.65-4.76-13.15-9.83-10.16-16.05,9.06-21.29,39.69-26.95,60.79-22.56,11.42,2.14,9.11-4.88,5.91-11-.78-1.49-4.33-1.51-6.6-2.22-18-5.6-24.73-20.32-30.15-35.94-14.67,16-33.37,19.28-54.49,13.92-2.53-.65-5.53.56-8.32.91,3.83,8.58,14.34,9.66,21.37,14.23,7.08,5.38,1.79,11.67-.71,16.55-7.74,15.06-21.95,22.94-36.54,29.89-2.52,1.2-2.7,2.23-1.62,3.89,11.36,17.53,10.28,35.6,3.73,54.56-4.3,12.43-10,2.28-14.15,1.24-44.37-9.74-1.25,38-36.68,31.31-39.69-.82-36.42-35.36-55.69-15.75-13.29,11.89-29.31,13.73-45.4,8.46-7.31-2.4-2.83-11.47-1.69-16.22,5.46-15.89-7.9-20.27-20.59-16.58-7.25,1.45-15.85,11-19.23-5-.67-3.16-8.66-3.7-10.92,0-13.05,20.94-32.8,25.3-54.85,22-8.91-.56-33-8.3-30.24-20.31,17-28.91,62.54-37.36,85.32-11.78,11.88,3.05,8.81-7.57,9.31-12.66.64-10,7.6-15.25,12.06-22.93-16.69-4.85-33.86-19.26-33.74-37.61,0-4.92,2-6.78,6.78-6.54,15.17.36,21-12.4,8.48-21.76-9.62-9.31-7.12-15.87,4.56-22.56,17.2-9.84,33.37-10.58,50.44-1.15,1.72.95,2.33.07,2.09-2.62-1.55-17.09,13.25-43.92,28.41-52.35,12.84-6.64,13.6,19.62,28.5,16.28,7.93-1.23,12.6-6.8,17.17-13.75,9.15-13.93,15.59.57,20.33,4.85,9.59,8.66,13.85,21.11,14.85,34.19.33,13,4.68,3.31,12.55,4.88,24,4.08-.68-27.78,28-48.46,1.21-1,1.78-2.72,2.64-4.11-13.56-2.61-28.82-26.51-26.84-39.63.84-4.26-3.68-8.35,0-12.47-7.26.21-8.93,7.28-11.65,12.7-1.54,3.73,2.59,9.88-2.66,11.58-19,3.54-42.24-12.68-52-28.77-1.14-2-2.79,0-3.95,1.15-15.89,15.81-35.72,19.43-57,18-3.67-.25-6.7-2.71-6.76-7.49-.21-15.52-11.12-24.95-25.73-21-21.22,6.36-15.12-32.76-8.79-42.54,1.44-2.66,1.42-4.53-1.42-6-19-10-30.35-25.7-31.27-47-.64-14.59-13-12.55-20.3-17.76-17.41-13.28-15.88-8.83-30.07,1.34-12.39,6.17-25,11.17-39,8.41-6-1.17-2.54-7.17-3.37-11-5.15-38.27-32.48-6.73-49.72,3.83-.86.62-2.11,1.91-1.94,2.57,7.62,35.4-34.23,69-66.86,58.34-5.32-2.42-5.6-11.44-4.66-15.89,4.5-21.55,19.16-35.91,38.59-44.5,8.63-3.82,19-3.9,28.65-5.2,5.81-.78,5.39-9.11,11.83-9.42-5.88-1.51-11.71-3.25-17.65-4.47-5.2-1.07-6.29,5-9.61,7.16-23.45,23.17-109.08-19-59.14-37.21,25.93-5.26,49.54-3.23,67.2,20.67,3.09,4.18,12.38,3.79,19.31,5.65-7.84-21.8-7.21-42.18,3.57-61.91-21.72-2.29-35-14.84-41.27-35-2.77-9,7-8.64,11.3-11.15,7.35-4.25,11.37-16.07,4.42-20.76-16.57-9.6,2.22-29.54,8.84-38.31-12.36-6.61-24.32.92-36.8,1.91C71.75,196.08,42.89,178.86,39.58,156c-.41-7.79,8.78-7.8,13.41-8.6,24-4.17,51.17,1.82,62,29,1.8,4.54,7.5,3.44,10.46,6.47,2.19-2.34-.51-4.17-1.22-5.5-6.5-12.11-8.27-24.49-6.4-38.28.69-5.07-5.29-10.87-7.67-16.57-3.06-7.37-6.76-8.81-14.87-5.91-11.72,4.21-29.68-10.06-30.37-22.53-4.26-53.17,75.75-39.45,49.33,12.7-3.7,6.58,5.38,13.07,7.85,20,3.31,9,24.76,3.09,25.15-7.06,3-21.47.53-29.23,24.93-28.57,13.3-1.1,22.38,8.43,32,15.86,3.7,2.87,5.33,9.48,10.58.09,10.82-16.4,39.81-29.65,58.91-21.86,5.27,2.23,5.44,9.26,5.42,15-.05,13.62,13.15,20.47,26,15.88,10.08-3.6,8.31-13.25,13.54-19,7.92-8.73.25-15.19-4.2-21.79-12.08-17.67,8.1-39.32,26.7-34,8,1.57,14.55,6.23,16.23,16.43,3.1,18.86-3.27,28-22.1,31.76-6.59,1.33-6,10.72-10,15.66-7.79,9.53-5.64,20.51-3.9,31.36.31,1.95.18,2,5.48.4,17.51-5.32,35-10.77,52.53-15.88,2.55-.75,2.71-1.52,2.21-3.71-9.28-29,34.75-44.71,46.06-19.09,15.23,24-17.42,52-38.41,31.81-7.58-6.87-16.05,1.71-23.69,3.75-14.2,3.8-27.62,10.39-41.63,15-7.37,2.76-7.38,10.38-11.27,15.43-14.59,10.76.29,22.64-1.43,33.83,1.9.28,3.92,1.13,5.67.74,19.61-4.44,37,3.65,48.11,19.6a4.6,4.6,0,0,1-.53,4.29c-12,17.32-11,22.72,7.85,32.2,9.57,4.81,3.4,11.45,1.25,15.44-7.77,14.42-20.23,23.27-36.55,26.94-4.39,1-.76,5.53.43,6.57,6.87,6.06,9.07,14.76,13.53,22.15,2.64,17.13,21.57-67.13,49.07-27.2,5,6.92,11.45,3.13,16.2-.29,5.67-4.09,7.75-9,6.3-17.74-2.12-12.74-12.45-12.7-19.38-18.18C379,243.47,367.85,206.19,381.3,178.1c2.68-6.48,10.06-3.81,14.89-2,33.28,12.24,43.79,55.47,31.49,86.23-2.09,4.43,2.21,11.87,3.59,17.93,11.12-7.33,20.53-18,30.1-27.33,4.58-4.95,2.9-12.82,4.84-19.3,5.78-19.4,20.34-29,36.5-36.21,15.05-9,60.09-15.58,47.1,14.83C541.6,240.73,509.7,253,484.12,257c-18.84-3.38-30.26,19-44.5,28-2.08,1.66-.38,1.68.28,2.18,31.05,21.13,19.17,69,32.37,52.63,13.16-6.21,44,2.14,55.52,10.26s4.09,12.45.67,18.65c-14.07,27.73,25.24,20.19,22.13,36.39-2.39,19.2-19.66,28.57-36.45,34.21-7.8,5.32,1.66,9.81,1.44,15.11,0,16.08,24.68-5.48,44.63,20.78,4.81-22.5,26.48-41.4,47.84-44.57,7.91-1.66,10.85,2.84,11,10.14,1.13,8.81,11.39,13.1,20.7,8.69,26.93-15.24,36.79,18,34.86,38.26-1.43,11.89,9.54,7,14.26,8.75,8.55,2.17,44.92,21.72,29,30.89-17.28,8.63-18.55,23.86-2.88,35,13.91,9.9,2.19,17.2-2.85,24.1-5.24,7.18-13.47,12.75-22.47,12.26-10.28-.56-11.38,3-8.58,11.15,5.42,15.12-1.23,27.8-8.48,40.54,25.46,1.1,13.42-42.66,41.32-22.57A38.62,38.62,0,0,1,730,646.62c5.46-11.55,28.74-47.92,41-25.6,6.35,11.31,27.2,1.17,29.13-7.16-.63-7.73-7.31-15-7.79-22.7-.85-13.4-15.54-11.56-19.9-21.37-5.71-12.87-11.77-25.07-13.94-39.44-3-14.91,2.16-60.2,24.73-40,24.07,21.84,27.92,58.12,14.6,86.48-1.87,3.92,2.37,10.75,3.84,16.27,9.75-5.26,18.21-12.3,26.89-19.09,6.71-5.08,14.13-7.89,9.09-20.3-4.58-11.26,2.24-22.19,14.12-27.09,26.71-11.59,48.6,24.62,26.45,42.59-8.83,7.08-18.77,8.79-29.28,2.68-6.26-3.64-7.8,4-11.19,6.08-59.31,39.36-19.4,22.33-12.85,69.12.7,3.24.36,3.7,3.73,2,11.73-5.74,25-9.29,35-17.08,4.29-3.33,5.86-12.89,11.37-18a90.18,90.18,0,0,1,47.26-23.25c14-4,73.27-2.5,53.73,22.14-22.38,31.67-67.63,38.78-103.35,28.67-8.68-2.73-16.9,5.5-25.27,8.8-14,1.42-1.73,9.66,5.54,12.17,6.63,1.51,11,6.05,15.38,10.63,7.11,7.49-1.47,11.43-4.51,15.73-15.87,24.34,31.84,16.12,7.44,43.23-4.89,6.24-10.4,11.84-18.39,14.07-12.3,2.37,17.58,22.66-1.66,53.16-2.13,3.62-6,1.95-8.84.92-10.59-3.76-19.66,2.45-19.32,13.32.17,5.53,5.31,4.6,8.12,6.35,26.88,20.37,23.73-17.52,51.69,2,8.68,5.72,9.61,15.39,7.88,24.21-6.14,25.31-48.73,22.91-46.15-6.81,0-6.29-8.53-5-12.61-8.19-13.73-10.81-33.25-5.89-47.18-17-2.39-1.91-1.84,2.72-1.78,3.76,1.14,19.32-4.83,35.81-17.84,50.28-13.53,15.21-19.9-12.36-33.9-6.52-8.36,3.6-15.11,9-16.07,19.07-.33,3.42,2.33,2,3.78,2.12,84.57,5.89,169.7,4.6,254.31.09,2.4-.22,4.76-.66,4.71,3.15C978.49,891.75,967.23,888.08,963.77,889.27ZM851.92,839.86c.07,18.77,27.31,19.36,30.22,2.86C885.24,822.52,851.82,816.69,851.92,839.86Zm23.94-212c19.66-6.18,39.77-12.63,60-18.72,3.72-1.12,9.34-1.28,10.56,2.57.92,2.94-4.36,4.26-7.64,5.34q-27.42,9-54.79,18.21c.09.55.17,1.1.25,1.65,28.5,1.89,56.21-1.76,78.7-20.18,3.42-2.48,10.21-7.7,6.31-13.38-2.3-3.35-8.58-4-13.84-4.66C928.13,595,891.06,604.11,875.86,627.9Zm-31.49-78c-.75,22.73,34.84,22.28,34.73-1.35C876.33,528.51,843.05,526.7,844.37,549.89ZM780.6,499.61c-9-11.86-11.31-4.86-13.53,6.25-5.14,19.47,3.73,52,19.72,64.86-3.33-3.71-1.81-8.36-2.79-12.54-3.25-13.91-5.55-28-8.09-42.11a4.1,4.1,0,0,1,3.4-4.83c2.48-.48,1.43,1.93,1.77,3.17,4.45,16.69,8.91,33.37,13.16,49.27C801.37,545.49,795.07,513.84,780.6,499.61Zm-307-257.87c18.11-10.21,33.56-24.71,52.87-33.06,1.62-.73,2.67-5,5-.87,1.82,3.16.72,5.51-2.2,7.45-15.72,10.46-32.07,20-46.07,33,21.52-2.61,64.22-22.28,59.16-48.41-1.72-4.16-7.73-1.86-12.47-1.25C504,201.89,479.51,214.26,473.57,241.74Zm-67.22-115c21.66,1.13,20-33.28,2.48-31.93C382.45,92.88,382.15,128.28,406.35,126.74Zm-72-48c19.46,1.32,19.48-28.93-.55-27.78C314.23,48.57,315.23,80.75,334.38,78.78ZM110.74,87c-.69-24.43-39.67-22.82-38.46,1.21C69.42,114,113.11,114.16,110.74,87Zm-43.8,77.48c1.63-2.71,3.75-1.33,6.16-.37,10.27,4.06,20.69,7.75,32.4,12.07C92.67,156.06,74.24,154.32,55,155.48c-1.33.08-9.07-1-6.58,4.58,7.22,16.29,32.79,28.13,51.21,23.94-10.46-4.82-20.21-9.23-29.88-13.83C67.56,169.12,65.18,167.37,66.94,164.43ZM116.2,361.12c-8.64-1.73-50.65,1.27-48.82-7.39.13-4.69,5.52-2.32,8.63-2.91,11.53-2.15,23.25,4.7,35.46-.51C92.9,337.1,73.61,336,53.56,343.68c-1.31.5-10.76,1-3.49,7.17C65.8,364.11,92.72,378,116.2,361.12Zm10,29.63c-13.05,9-22.31,21.49-32.93,32.53-2.66,2.76-5.8,4.76-9.34,3.58-3.94-6.37,26.21-33,31.7-39.44-19.09-.82-39.6,24-43.7,42C64.5,444.41,129.3,434.23,126.18,390.75ZM284.77,754c-12.87,0-26.49,1-39.12,4.78-1.84.69-5.2,1.88-6.55-1.12-4.92-10.78,36.8-12.48,43.73-12.78-.89-1.06-1.63-2.84-2.68-3-6.38-1.21-11.91-5.75-18.91-4.89C247.38,739.3,234,742.52,223.32,753c-3.84,3.76-6.7,6.88-.74,9.41C242.73,771,270.14,774.05,284.77,754Zm257.77,51.45c-1.78,0-3.78-.48-5.3.15-14,5.79-27.82,11.76-41.69,17.75-2.24,1-4.78,3.85-6.41.09-1.38-3.17,1-5.14,4-6.53,15-6.9,29.94-14,44.89-21-24.82-5.11-55.25,10.22-67.35,31-1.11,1.91.37,1.66,1.41,2.1C492.86,837.85,535,828.71,542.54,805.43ZM693.1,891c9.43,10.35,19.17,25.05,30.23,34.48,8.74,6.17,11,20.17,25.41,19.64,14.52-1.4,30.11,3.44,44.25.17,4.44-2.62,0-3.09-1.39-4.54-9.09-9.68-17.63-19.92-27.22-29.07-5.52-5.27-7.75-14.53-15.48-16.37C729.78,890.79,710.09,891.71,693.1,891Zm44.36-233.13c.85,8.35,4.29,16.43,6.61,24.52,15.41-9.06,26,2.62,25.65-4.76,1.65-7.26-2.08-30.92,5.5-32.51,2.06-.63,3.88.88,3.8,3.41-.23,9.62-.61,19.24-.79,28.86,0,2.06-1.85,4.34,1.07,6.2,8.33,5.29,16.18,9.57,22.54-2.7,2.18-4.21,6.45-9.49,10.88-5.88,3.37,2.74-4,6.45-4.36,10-.51,5.52-10.9,5.87-6.21,13.66,10.42,17.2,23.54-.83,36.65,3-5.48,13.45-25.93,9.72-33,22.32,6.84,5.2,22.29,9.55,25,17.71-7.05,3.54-13-3.83-19.76-5.44-4.21-1.57-8.93-6.63-12.91-2.93-7.91,10.12,6.9,18.17,15.09,21.52,5.2,2.59,14.52,1.33,11.61,11.44C819.55,784.76,802,798,781,799.33c6.2,8.28,14.82,10.69,23.32,13.79,7,2.57,9.9,2.59,10.95-6.29,1.4-11.81,14.64-19.22,26.05-15.65,2.61.81,4.46,1.75,5.44-1.19,4.84-14.48,3.54-28.89-6.6-40-5.31-5.93-1.34-7.19,1.64-8.46,6.64-1.8,33.78-20.35,20.66-26.58-13.8-8.08-15.35-19.43-4.92-30.82,3.53-3.85,1.78-6.64-1.32-8.85-24.09-20.4-37.87-3.89-39.23-14.94.59-10-3.08-19.14-6.61-27.9-1.58-3.92-5.47-13.14-13.74-4.2a21.6,21.6,0,0,1-32.87-1.46c-2.62-3.43-5.13-2.2-6.58-.94C747.37,633.91,736.23,644.13,737.46,657.89ZM424.85,239.77c-.83-22.3-12-55.17-37.75-56.94-10,29.19,3.63,60.15,28.27,77.68-6.51-17.74-12.44-34.56-19-51.14-1.41-3.58-2.39-6.42.17-9.4,6.2-4,20.3,44.3,25.57,50.78C425.82,247.79,425.27,243.58,424.85,239.77Zm-290-62c13.49,11.79,4,16.07-2.86,26.3,21.17-11.67,39.13-7.63,56.43,4.35,1.51-7.26,2.83-14.66,4.66-21.93.77-3,4.48-6,1.32-9.09-8.49-8.34-17.24-16.41-26.08-24.36-2.46-2.21-1.63-4.8-1.08-6.77.84-3,2.6-.1,3.8.32,18.34,4.51,24.74,34.79,37.26,16.47,6.34-8.34,16.21-17.32,28.7-13.61,4.62,1.37,6.52,10.57,11.3,13.06,17.74,9.87,28.55-16.05,33.85-12.94,5.2,3.9,10.76,7.79,14.67,12.84,3.24,4.18,5,1.81,5.89-.38,3-7.27,8.89-13.5,8.64-21.89-.15-4.85,1.11-10.35-2.67-14.23-1.16-1.19-4.78-.88-6.87-.12-10.88,3.91-32.78-2.45-31.34-19.87.6-7.21-1.16-15.13-12.21-12.9-46,5.35-34.63,44.06-61.42,21-8-6.19-16-13.5-27.05-12.8-4.37.28-12.17,1.81-11.19,6.28,2.26,10.31-6.61,26.77-16.69,29.92-4.86,1.52-12.72-1.34-14.24,3.92C123.91,154.35,125.43,169.38,134.84,177.79ZM288.36,377.46c4.61-2.18,12.41,3.39,12.57-6.5,1.66-64.49,69.91-1.82,25.41-67.83-2.35-3-4.69-6.92-3-10.66.81-1.85,4.51-3.14,7-3.4,15.59-1.62,27.14-9,35.17-22.54,2.1-3.54.18-4.4-1.85-5.37-11-5.24-23-20.34-13.7-34,1.36-2,7.4-5.33,3.24-9.16-29.17-29.14-50.46,4.68-50.55-14,.11-12.4-3.39-24.2-12-33.64-14.44-23.68-20.57,14.59-42.78,2.86a27.37,27.37,0,0,1-12.72-13.75c-1.06-2.39-1.43-2.75-3.64-1.74C209.88,167.66,198,184.14,197,208.21c-4,27.07-25.25-15.45-58.17,3.35-35.95,8.47,19.27,26.66-19.4,47.84-3.5,1.61-5.19,3.05-2.86,7.85,5.62,11.59,13.87,19.05,26.55,21.77,8.07,1.73,15.08,3,10.72,15.41-5.78,16.41-9.24,33.77.86,50.44,1.4,2.31,2,2.3,4.39,1.1,18.47-16.6,32.62.65,35.76,19.65.61,2.95,1.49,3.47,4,3.34,33.26-.2,42.06-27.13,47.21-21.11C257.27,372,272.19,375.86,288.36,377.46Zm204.7,113.22c42.45-2.24-.57-49.56,8.42-55.48,13.44-7,34.67-11.17,37.45-28.74,0-2-1-2.79-2.87-3.42-15.93-5.43-22.11-18.5-17.53-34.57,1-3.47,7.65-6.67,1-12-9.22-7.38-38.55-12.24-49.33-8.34-3.43,1.24-10.63,6.65-13.21-2.31-3.23-12.83-11.1-62.21-31.75-43.52-11.85,15.72-30.48,10.35-37.95-3.07-1.22-2.18-1.33-2.18-3.22-.85a53.52,53.52,0,0,0-22.73,36.34c-2.92,18.62-4.72,20.78-18.62,15.91-17.72-6.2-30.39-6.41-30,18.71.57,29.81-27.52,15.49-23.62,31.37,6.37,40.83,44.78,28.1,28.8,61.37-6,11.93-.27,20.84,12.62,20.85,12.5,0,24.13,11.32,24.6,23.82.06,1.52-1.19,3.94,2,4.16,18.56,1.31,36-1.61,49.36-15.77,7-7.43,10.58-2.88,14.73,2.45,9,11.58,21.5,18,33.36,23.63,10.72-.4,4-8.28,6.75-11.35C469.82,500.24,478.42,491.29,493.06,490.68Zm13.46,144.68c16.86-11.84-25.82-17.84-32.4-17.16-4.77.76-11.67,6.07-14.78.87-7.82-16.26-5.06-34.12-22.62-45.61a7.31,7.31,0,0,0-2.45,2.13c-12.1,19.79-31.89,20.62-44.25,1.1-3.57-5.63-4.83-2.55-7.36-.39-21.55,18-16.38,33.45-22.43,56.45C347.3,629.21,348,623,330.94,623c-9.29-.45-33,6.36-26.29,14.48,15.05,16,12.91,25.27-7.12,34-1.56.69-5.52.82-4.33,4.2,4.75,13.55,13.81,22.25,28.21,25.49,3.22.73,7.81-2.44,9.5,2.18.64,1.75-.62,5.07-2.12,6.57-6.87,6.87-12.63,14.12-14.88,24-2.63,11.56.9,25.3,15.4,18.67,8.93-3.55,16.63-1.27,22.16,5.2,5.38,6.28,4.89,14.72,2.35,22.42-1.18,3.58-.35,4.47,3,4.75,19,1.63,34-4.78,44.29-21.36,1.65-2.66,3.39-4.72,6.21.19,8,14,20.34,23.19,36.22,26.06,5,.91,13.86,3.78,11.86-9.16-2-12.67,11.74-23.68,24.29-21.75,3.77.58,10.41,2.92,10.81,2.09,16.85-35.5-16.18-51.69-2-57.71,12.14-6.06,23.16-13,32.48-22.95C543.07,657.07,491.18,670.67,506.52,635.36Zm109.84,27.19c7,1.43,10.72-28.72,32.88-18.47,18.18,14.67,28.91-21.64,24.86-34.52-2.73-7.63-11.26-18.23,7.31-19,11.81-.48,21.37-6.51,28.09-16.92,2-3.1,2.06-4.58-.62-6.24-20.21-12.56-18.68-30.1,0-42.55,2.64-1.77,3.17-3.53.64-5.94-10.22-9.72-22.45-15.86-36.22-17.52-13.86-.19-2.58-24.9-10.55-34.62-4.16-7-5.85-18.83-20-10.1-13.79,8.49-23.95,4.2-30.4-11-2.44-5.76-3.49-6.42-9.91-5-16.46,3.61-31.62,23.28-35,36.76-2.08,8.29-5.59,6.65-10.44,3.92-9.27-5.22-17-14.6-28.32-10.92-5.83-.35-8.7,1.34-8.12,6.32,1.16,9.83-3.35,15.15-12.39,18.56-8.53,3.2-18.38,4.19-18.46,18.44s7.85,32.12,21.14,37.24c21.4,6.22-10.19,18.69-10.62,36.85-1,9.73-7.27,21.9,7.89,28.41,5.46,2.35,16.05,5.83,12.39,13.51-6.71,14.07,5.49,7.69,9.2,10.15,1.46,1,3.84.9,5.75.75,13.46-1,27.25-1.11,35.81-14.61,1.47-2.32,4.7-4.06,7.47-4.88,3.28-1,3.42,3.44,3.71,4.63C586.46,641.92,598.63,660.89,616.36,662.55Zm-7,198.53c-4.64,15.6,12.11,11,20,5.77,8.85-6.39,21.15-8.06,26.39-19.63.76-1.67,5.6-7.63,6.85-2.58,3.91,15.88,16.49,23.31,28.32,30.74,4.21,2.65,14.08,12.84,18.75-3.83,6-21.36,27.56-25.08,43.66-9.24.76.75,3.05,1.25,3.57.76,37.84-40.58.75-65.38,16.81-70.32,16.3-5.16,36.2-9.09,41.07-28.68-13.09-3.1-24-9.26-27.36-22.6-2.63-9.1,5.29-15.56,11.15-21.89,1.64-1.77,4-5.24,3.38-6.4-9.15-16.07-37.12-29-54-23.67-18.94,7.52-13.53-40.7-45.75-56.36-20.29,56.78-55.54,6.76-63.71,20-18.19,21.56-12.63,48.39-19.42,43.35-17.07-9.79-34.59-8.54-51.29-.15-6.55,3.29-17.47,6.52-5.62,19.32,17.83,17.3,3.94,25-12.42,36.89,3.28,14.91,13.34,24,26.49,30.78,1.82.93,9.34-.55,5.41,6.72-5.62,12.47-15.89,27.07-13.16,41,1.27,3.34,6.41-1.94,9.86-2C599.25,826.12,608.94,841.54,609.36,861.08Zm52.8,2.67c-2.23-3-3.66-5.51-8.18-1.59-5.41,5.63-14.91,7-19.51,13.34,14.64,4.16,31.16,2.31,46.74,4.27C673.31,876.37,667.22,870.63,662.16,863.75Zm-175.91-1.07c34.32,45.35,31.91,64.93,95.12,66,2.63.39,1.66-2.09.37-3.7-4.35-5.42-7.84-11.78-13-16.27-14.69-12.84-17.21-38.61-43.51-39.44C512.59,868.89,500,865.13,486.25,862.68ZM132.77,766.53c9.1,13.15,18.37,27.88,29,41.52,7.25,9.27,11.79,21.84,23.22,26.63,18.1,7.59,36.94,13.39,56,20.13-11.83-15.52-22.78-31.07-35.05-45.49-5.95-7-9.19-18-16-21.36C171.35,778.84,151.09,773.13,132.77,766.53ZM102.32,900.41c2.54-1.62,10.57-.65,7-7.21-4.9-9.1-11.14-17.49-18.29-28.45,0,11,.87,19.45-.21,27.66C89.36,903.79,93.36,906.14,102.32,900.41Zm30.42,24.25c.93-2.52-2.91-1.58-4.21-4-3.65-6.66-7.12-14-14-18.17-5.92,3-10.85,6.47-16.32,8.06-4.84,1.41-1.89,3.25-.63,3.89,11.53,4.84,23.68,13.23,35.67,15.64C137.93,929.14,131.87,927,132.74,924.66Zm10-35.44c-4.19,1.7-8.58,3.38-12.09,6.09-2.1,1.62-7.82,2-6,5.16,5.44,9.51,12.14,18.29,18.77,28,0-13.32-.15-25.35.21-37.36C143.7,889.72,144.16,888.66,142.77,889.22Zm.73-41.8c-.48-3.89,4.19-9.59-2.87-12.4-15.22-6.06-30.32-12.47-45.47-18.72-9.22-5.33-2.93,17.8-3.58,23.14-5.88,16,6.73,25.78,15.67,36.19,5,5.83,4.54,23.23,20,13.16,5.46-3.55,15.28-2.24,16.45-9.48C145.41,868.92,144.79,857.94,143.5,847.42Zm17.59-19.69c1.69.64,3.63.6,5.46.87-9.08-17.71-23.17-33-34.48-49.49-5.43-7.23-9.24-15.85-17.78-20.58-18.92-8.6-35.93-18.89-56.41-25.19-1.36.77,1.39,4.3,1.95,5.54q17.86,24.71,35.88,49.28c7.41,10.08,13.73,20.91,27.2,25C135.92,817.09,148.36,822.87,161.09,827.73Zm95.66,55.11c-.36-2.62,1.47-6.4-3.08-7.9-15.59-5.16-31.09-10.59-46.64-15.88-12.64-4.31-25.78-7.55-37.74-13.26-5.78-2.77-12.74-1.7-17.52-6.5-1.37,4.69-.93,9.34.18,14-5.06,19.05-1.78,27,15.29,31.9,23.63,7.7,47.09,16.07,70.15,25.32,18.23,7.32,19.55,7.09,19.55-12.21C256.88,893.15,257.44,887.91,256.75,882.84Zm52.37-8.68c-8.22-11-14.34-21.43-22.56-29.78-11.77-12-17.18-30.06-34.75-36.35-17.77-5.37-33.2-11-52-17.47,19.24,20.62,31,44.72,50.66,63.76C266,868.29,289.28,864.9,309.12,874.16Zm-40.31,96c6.6-4.1,13.19-8.22,19.62-12.23-7.6-7.77-14.26-17.46-22.86-24.49-.71,12.57-1.36,25.86.31,38.32C266.86,971.24,267.86,970.76,268.81,970.17Zm44,15.6c.53-2-17.95-20.69-20.94-20.7-5.84,3.3-12.28,6.74-18.43,10.62-1.07.67-.93,2.78,1.71,3.32,11.86,2.46,23.65,5.24,35.48,7.81C311.32,987,312.71,986.3,312.84,985.77ZM320.91,967c-.16-6.21-.49-12.41-.75-18.62-5.68,3.34-11.39,6.62-17,10.08-.63.39-3.34.36-1.3,2.54,6.12,6.54,12.17,13.15,19.07,20.61C320.94,976.15,321,971.59,320.91,967ZM321,920.5c-.24-6.37-.15-13,0-19.47.33-5.77.15-9.69-7.67-10.66-9.5-1.19-18.61-5.17-28.05-7.21-20.17-4.36-20.21-4.17-20.21,17.43.66,6.72-1.7,14.63,1.57,20.72q12.4,14.07,25.06,27.89c2.24,2.46,5.29,5.67,8.4,3.35C310.85,944.5,326.81,939.51,321,920.5Zm48.32-33.56c1.82.4,3.66.73,5.49,1.09-9.71-12.75-19.72-25.27-29.64-37.85C339,842.39,334.09,831,326,827.76c-17.21-6.94-36.13-9.64-55.21-14.3,9.69,11.89,19.26,23.38,28.55,35.1,7.62,9.62,13.07,22.73,24.06,27.42C337.67,882.07,353.91,883.51,369.31,886.94ZM435,922.31c.17-3.31-1.87-4.59-4.19-5.12-30.16-5.4-59.51-14.48-89.38-21.27-23.46-8-6.39,19.53-13.71,33.53-.38,1.12,1.15,4,2.27,4.32q22.13,5.87,44.41,11.14c12.72,3,26,4.46,38.08,9.13,7.26,2.81,15.05.63,21.61,4.74.26-6.68.87-13.37.88-20h-.05C434.89,933.26,434.67,927.77,435,922.31Zm8.63-18.14a21.93,21.93,0,0,0,3.15.2c-4.55-8.63-11.5-16.34-18-23.49-11.73-11.46-14.15-31.06-32.24-36.77-19.07-5.38-37.09-9-57.07-13.92,7.83,14.4,23.79,29.87,34.67,44.36,5.25,6.32,9.89,15.47,16.68,17.73C407.8,898,425.91,900.43,443.6,904.17Zm16,96.49c2.33-1.85,11.86-1.23,5.2-8.34-6.51-6.31-13.25-13-21-17.87-.25,1.07-.95,2.27-.69,3.2,2.88,10.12,1.62,20.52,2,30.72C450.28,1005.73,455.5,1003.91,459.58,1000.66Zm36,20.1c-17.43-22.58-21.46-20.79-44.69-6.92C465.94,1018.79,480.71,1017.89,495.56,1020.76Zm8.28-13.36c-.39-7.33-.92-14.65-1.4-22-3,2.81-20.66,9.65-18.47,13.33,8.54,3.94,12.9,12.54,19.9,17.71C503.87,1013.47,504,1010.43,503.84,1007.4Zm-2.56-76.26c-18.44-3.57-37-6.56-55.36-10.45-3.84-.81-2.69.77-2.86,2.53-1.07,10.8-2.78,21.6-.22,32.73,1.52,11.6,12.24,16.17,19.77,22.6,14.89,19.11,16.25,10.31,33.83,1,12.42-2.87,3.64-28.3,7.43-38.91C504.16,939,507.35,932.31,501.28,931.14Zm16.39-12.85c-10.86-14.23-20.7-26.89-30.27-39.75-4.67-6.27-8-17.52-13.41-18.53-19.53-2.56-39.18-10.63-58.72-10.18,9.13,16.27,22.88,30.19,34.61,44.74,4.38,4.94,6.77,12.71,14.15,14.18C481.39,912.2,498.88,915,517.67,918.29Zm105.27,33.2c.66-2.37-1.53-2.61-4.62-2.49-34.45-1-68.47-9.62-102.37-15.58-13.93-4.5-1.57,15.72-6.5,25.37-1.67,5.53-2.17,13.66,6.45,15.39,34.38,8,69.41,11.21,104.17,16.53,3,.44,2.88-1,2.88-3C622.92,976.18,622.94,964.61,622.94,951.49ZM655.16,938c-11.57-13.64-21.61-26.22-32.48-38-7.59-8.25-11.2-20.9-27.38-19.63-13.75,1.86-28.07-6.27-42-4.59,7.44,14,20.18,25,29.55,37.84,4.61,5.65,8.13,15.36,13.61,16.57C615.35,934.34,634.87,935.56,655.16,938Zm-16.81,92.39c2-3.69,5.65-4.37,8.56-6.4,2.18-1.53,5.87-3,.77-6.19-5.65-3.59-10.67-8.17-16.73-12.91.71,7.68,1.6,14.56,1.76,21.47,0,1.3-2.4,3.41-.38,4.41C634,1031.6,637.82,1031.4,638.35,1030.41Zm38.88,13.12c-11.94-17.41-25.25-19-39.27-3C650.55,1041.51,663.9,1042.5,677.23,1043.53Zm11.1-26.89c-1-2.26-.59-6.51-3.3-5.28-6.28,2.86-11.92,7.14-17.82,10.84l18,14.77C689.7,1030.57,684.45,1022.9,688.33,1016.64Zm-3.07-61.43c-63.13,1.12-57.12-20.93-54.76,25-.83,13.31,7.17,18.8,15.77,25.12,7.78,5.72,14.66,16.12,25,3.64,10.57-4.09,18.83-10,15.93-23.85-1.57-7.54-.2-15.69-.32-23.56C686.86,959.31,691.86,954.93,685.26,955.21Zm41.21-11.67c.93-1.37,1.87-2.73,2.8-4.09Q713,925.22,696.75,911c-10.12-8.86-15.31-23.82-33.43-22.36-12,1-24.24-2.2-36.37-3.6-2.52-.3-4.56-3.36-7.77-1.25C671.21,940.68,645.61,940.11,726.47,943.54ZM809,996c-.26-11.54-.09-23.09-.09-35.35-35.89,2.61-73.25-2-110.73-3.67-3.49-.15-4.32,1.4-4.21,4.41q.59,16.1,1,32.2c.06,2,.08,3.21,2.8,3.41,16.13,1.15,32.21,3.19,48.36,3.75,19.29.67,38.63,0,57.95.26C808.18,1001.09,809.12,999.91,809,996Zm2.15-50c18.75,2.89,38.24.93,61.35.93-17.16-16.36-32-30.61-46.95-44.66-2.53-2.38-3-7.13-7.52-7.15-18.76-.09-37.52,0-57.14,0,10.21,11,19.54,21.32,29.18,31.35C796.87,933.46,803.32,944.78,811.18,946Zm14,99c19.4-18.41,19.4-5.53-8.1-32.78.13,13.26-.36,24.07.37,36.29C820,1047.4,823.05,1046.76,825.16,1045Zm45.77,15.39c-5.34-2-7.37-7.25-11.67-10.09-7.14-4.72-12.41-17.79-22.94-3.93-2.93,3.86-7.25,6.65-10.89,9.88C840.06,1061.38,855.6,1058.05,870.93,1060.41Zm6-45.14c-7.42,5.15-15.13,10.49-22.82,15.87-1.77,1.24-.92,2.34-.17,4,3.83,8.5,14.06,9.45,19,16.5.65.93,2.07,1.3,3.14,1.93C878.09,1041.05,876.41,1027.92,876.94,1015.27Zm6.75-52.6c-17.1-3.4-34.36.41-51.47-1-12.54-1-21.17.52-16.57,16.59,2.88,10.06-6.75,22.74,6.75,30.81a49.71,49.71,0,0,1,13,10.81c12.87,16.37,20.66-1.12,31.13-8.54,5.9-4.12,14.49-5.32,12.17-16.46-1.56-7.53.84-15.85-.5-23.47C877.16,965.59,877,962.6,883.69,962.67Zm-12.36-67.93c-12.91,2.65-27.08-1.93-39.68,1.77,3.48,7.49,9.15,13.11,15.71,17.41,43.08,47.41,28.32,27.63,88,31-12.6-11.24-25-21.32-35.59-33.47C892.43,903.13,886,892.73,871.33,894.74Zm97.73,662.93c-198,11-398.12-6.31-591-54.43-56.77-13.44-114.11-24.88-168.84-45.9-69.38-23.95-139.33-47.9-200.77-89.23-1.47-.93-3.37-4-5.35-1.27-7.43,3.68,37.25,29.46,41,31.82,140.47,72.08,295.71,109.83,450.07,138.48,85.1,16.25,171.06,28,257.66,31.45,73.22-.32,144.87,5.94,217.74-6.78.52.9,5,3.07,4.73-2C974.3,1556.17,971.07,1558.32,969.06,1557.67ZM513.11,146.61c-21-38.63,46.32-30.29,64.34-19.08,11.24,6.08,22.13,14.09,26.68,28.23.82,2.57,10.94,7,17.93,4.89,4.06-1.2,7.85-4.74,11.76-4.74,18.93,0,6.79-11.38,6.56-17.8-.31-8.26-5.51-11.24-13.7-13.67-21.33-7.59-15.79-43.08,7-45.44,21.74-5.65,40.38,27.32,22.84,40.36-19.43,13-.41,24.61-.9,36.58-.06,1.49,6.64,3.3,10.24,4.89,1.86.81,4.48.9,5.59,2.26,13,15.92,13.44-2.25,17.61-7,12.15-13.79,26.32-22.81,45.15-23.18,3.37-.07,5,2.28,4.7,5-1.47,11.41,5.28,16.89,14.72,18.77,12.21,2.43,17.8-5.67,21.33-16,3.07-9-3.84-16-4.38-24.42-.52-26.3,16.73-54.08,40.1-66.08,6.95-3.11,15.55,3.37,18.46,13.15,9.35,33.79-14.86,66.1-43.52,77.49-2.95,1.53-6.92,5.08-3.69,12.61,7.76,18.08,16.64,6.39,24.86,2.55,10.8-5,20.9-11.54,31.62-16.73,2.61-1.26,2.58-2.44,2.45-4.29-2.72-37.71,50.92-41,51.19-2.91,2.32,24.77-35.41,37.26-47.18,14.55-.63-1.13-6,1.2-10.23,3.67-13.31,7.73-26.77,15.2-40.16,22.79-2.09,1.18-3.37,1.81-2.33,5.35,1.44,4.94.89,10.58.54,15.87-.14,2-3.19,4.69-.93,6,15,2.41,12.75-7.38,34.08,5.09,5,2.66,9.19,6.78,14.18,9.43,6.91,3.66,2.92,7.23,0,9.94-15.56,12.29-1.91,30.54,11.36,29,10.41-3.92,21.81-9.1,23.71-23.63.82-43,89.17-71.47,91.95-40.51-3.62,22.51-21.32,46-43.45,54-13.05,4.63-26.82,10.73-41.36,3.74-13.14,6-26.68,13.64-34.58,27.38-3.34,6.22-11.61,9.93-17.95,14.34-4.93,3.86-1.6,9.28-2.52,14.12-3.25,12.58.41,17.31,14.32,16.46,5.12-.31,11.35-2.79,17.49.67,3,1.69,3.73-5,5.2-7.73,5.64-10.53,15-12.58,25.27-11.46,21.19,1.55,26.25,33.82,8.59,43.62-13,7.48-27.07,5.16-33.15-7.63-7.68-16.16-19.65-5.73-29.63-6.4-11.2-.75-20.13,2.57-20.7,16.44-.2,16,26.13,17.82,12.73,35.44-6.24,8.52,3.72,13.55,9,13.86,41.94-5.21,99.45,87.76,46.06,76.37-26.86-7.59-55.51-31.3-53.53-61.72,2.56-8.91-5.44-12.84-10.51-16.9-1.63-1.31-9,3-12.57,6-9.15,9.35-27.58-2.93-27,14.2-1.52,23.77-17.37,37.93-36.77,48-6.29,3.27-6.83-6.1-9.47-9.75-8.47-11.71-20.11-11.65-28.73.37-2.51,3.51-.55,11.09-6.62,10.56-9.74-1-16.07-9.59-22.18-16.49-4.09-5.88-5-13.38-8.48-19.43-4.34-7.52-9.19,1.44-14.19,1.59-14.77.46-29.49.07-42.73-6.69-5.79-2.94-1.88-7.62-.28-10.86,6.25-12.65.1-21.95-14.46-22.93-6.48-.44-16.1,4.85-18.87-5.9-2.58-10-1.19-20.25,2.28-30.13,2.57-10.64,30-23.84,6.63-27.15-11.51-3.18-21.28-9.9-32.22-14.05-6.18-2.34-10.45,3.61-16.18,4.62-17,3.84-32.31-9.84-29.19-27.37,3.82-32.16,54.06-24.81,49.2,6.07-3.3,8.79.93,10.57,7.55,12.93,9.5,3.39,18.1,9.16,28.38,10.94-7.69-14.16-14.44-27.95-7.71-44.44,1.8-4.42,4.81-3.39,7.7-3.31,7.11.19,15.74.5,17.88-7,2.63-9.23,5.78-19.9-5.05-27.77-10.51-7.09-22.13-49.87,2.4-41.06,11,2,12.4-5.55,13-12.82S617,172,610,168.41c-11-5.57-14.11,4.38-20.79,6.74C561.63,186,528.52,170.68,513.11,146.61ZM547,292.86c-.15-26-35.16-15.92-31.62.34C514.82,314.66,547.93,315,547,292.86ZM836,419.25c9.36,26.63,31.85,41.17,58.5,47.31.5-28.38-25.44-55.3-54-61.78,4.19,9.37,48.19,42.82,40.24,49.52-2.6,3.29-5.06-.8-6.84-2.56-11.46-11.33-22.76-22.82-34.06-34.3-1.11-1.13-1.77-2-3.52-.63C835,417.85,835.52,417.93,836,419.25Zm33.41-95.65c-1.12,17.58,28.1,20.63,29.61,3.77C900.76,304.27,870.25,304.09,869.44,323.6Zm13-88.26c16.06-11.39,29.91-20.6,46.23-30.61,1.28-.77,4,.89,6.11,1.42-.64,1.35-.92,3.17-2,4C918.48,221,904,231.65,886.46,244.73c14.09-3.9,25.74-5.26,35.54-10.26a71.72,71.72,0,0,0,32.67-33.76c6.58-13.78,6-16.08-8.72-15.54C916.33,186.94,888.63,204.68,882.47,235.34Zm-15.33-87.23c20.57.4,20.66-32,.11-33.3C841.68,114.17,844.25,150.16,867.14,148.11Zm-47.7,175.13c-2.85-11.59-28-26.6-40-24.13-2.76.57-6.2,5-8,1.13-4.85-14.73,12.78-24.27,2.88-49.06-1.65-4.54-2.15-16.76-13.86-8.48-14.65,10.17-33.51-1.14-35.57-18.09-.35-1.88-.77-3.93-3.28-3.32-21.39,4.17-40.65,12.86-49.93,33-7.92,18.59-20-22.83-49-14.15-2.4.63-4.69.84-2.54,4.84,6.17,11.45-1.56,27.1-12.76,32.78-5,2.55-15.32-4.6-15.09,6.54.35,16.56,2.78,32.68,20.28,41.21,1.24.61,4.71,3.24,1.2,5.36-13.79,8.33-25.61,18.53-28.28,35.23-.91,5.73-5.24,15.84,9,14.78,20-3.35,36.78,18,22.89,35.27,43.08,16.73,51.4-15.41,55.68-.39,3.09,12.36,6.63,24.46,16.83,33.25,2.56,2.21,4.7,3.51,7-.15,8.94-16.81,37.88-20.32,42.53,1.54.19,1,3.57,2.54,4,2.14,12.43-10.45,24.67-20.64,27.92-38.4,1.16-6.35-3.45-17.36,8.87-19.12,16.75-.15,33.12-5.62,39.58-22.28,1.84-4-4.73-5.74-7.11-8.85-8.83-11.51-11.76-22.4,0-34C815,327.67,820.64,328.13,819.44,323.24Zm-37.72-198.4c7.18-15.75,14.16-31.37,21.54-46.81.86-1.81,3.89-2.58,5.91-3.83,5.45,7.27-16.37,46.46-20.42,56.13,22.24-9.23,39.32-42.39,32-65.34-3.47-10.43-3.66-10.61-6.7-8.83C792.83,69.83,773.11,98.77,781.72,124.84ZM653.09,104.33c2.27-21.46-31.49-21.22-30.76-1.94C620.37,123.34,651.68,125.24,653.09,104.33Zm-47.66,98.82c-2.9-.23-2.28,1.56-2.36,3.11-1,19.11,3.84,23.68,22.43,22.78,16.87-.81,29.71,7.5,40.56,19.67,1.06-1.75,1.69-3.68,3-4.84,13.28-10.16-6.4-12.85-14.87-22.87-1.8-1.49-3.48-3.21-1.67-6.22,2-3.37,4-1.48,5.74-.32,5.55,3.6,11.33,7,16.36,11.22,7.92,6.67,12.3-1.48,18-3.71a4.06,4.06,0,0,0,1.9-6.18c-4.18-5.07-5.23-11.27-7.35-17.1-.93-2.56-4.07-6.31.58-7.24,2.81-.56,5.24,3.18,7.66,5.92,5,5.72.9,20.48,14.49,17.13,5.62-1.38,14.19,1.72,17.06-7.38a114.35,114.35,0,0,1,6.55-15.74c2.71-3.64,6.76-1.63,6.51,2.53a58.42,58.42,0,0,1-4,13.05c-4.34,9.07-4.55,17.6,2.4,25.31,5.45,6,11.74,1.58,17.9,1.41s10.88-8.06,16.1-4.14c14.84,11.17,17.11,36.65,10.78,52.53-9.69,20.33,14.18.35,35.55,23.44-.27-4.55,1.31-8-1.45-11.64-1-1.33-.44-6,.47-6.33,11.49-5.79,21.51-15.25,27-26.8a3.21,3.21,0,0,0-1.76-1.59c-14.46-1.55-24.15-15.94-16.37-32,1.15-2.37,6.76-4.18,3.35-7.18-23.64-24.29-50.67,3.36-47.44-23.26.78-12.67.77-27.52-8.74-37.45-.18-.25-2.92.93-4.1,1.89-13.45,10.88-30.7,5.62-37.18-10.78-.9-2.29.56-8.68-5.38-7.22C684,150.79,694,195,671.7,175.37c-9.58-8.67-21.08-12.63-33.67-9.91-3.74.81-14-1.85-10.77,8C634.1,194.29,626.77,204.82,605.43,203.15ZM516.19,135c6.47,21.68,50.87,50.07,74.84,28.27,0-3.89-4.76-1.42-7.35-2.29-8.53-5.14-54.35-11.16-51.85-21.08.74-4.91,6.58,1.45,10.37,1.13a286.12,286.12,0,0,1,51.52,12.4,63.84,63.84,0,0,0-69.51-23.9C521.58,130.41,514.52,130.28,516.19,135ZM758.73,343.46c0,4.26-9.44,2.89-12.58,3.36-9.12-.35-18.22-1.6-27.31-1.45-10.23-.62,26,25.05,27.77,28.16,2.35,2.06,6.93,4.16,3.49,8.17s-6.71-.25-9.05-2c-8.45-6.47-16.32-13.69-24.73-20.21-1.65-1.28-3.47-4.92-6.9-2.12-4.81,3.92-.27,7.86.38,11.34,1.67,8.95,4.85,17.61,7.21,26.44,1.46,12-11,13.75-9.64-1.77-1.66-10.25-7-19.65-6.61-30.35.11-3-3-1.66-4.81-1.9-3.43-.47-4,2.37-4.79,4.57-3.45,9.52-6.65,19.13-10.2,28.61-.88,2.35-1.71,6.18-5.63,4.42-8.78-3.7,7.57-28.75,9.11-36,2.51-6.15-7.36-5.82-5.9-10.71-13.94,4.5-23.21,16.26-36.6,21.38-1.57.59-3.06,3.06-4.52.85-5.34-5.48,27.54-25.54,33-27.32,1.66-.66,3-2.19,4.45-3.32-11.54-5.37-25.39-2.69-37.87-4.49-2.32-.14-4.89-1-4.72-3.37s1.57-5.18,5.19-4.76c11.16,1.28,22.32,2.56,33.5,3.73,4.55.45,5.56-2.4,1.6-4.37q-12.48-11.55-24.75-23.35a3.25,3.25,0,0,1,.41-5.2c5.24-5,25,18.31,30.58,22.08,1.29,1.2,1.72,1.1,2.52-.15,1-1.49,3.13-3.54,2.74-4.32-2.25-4.79-14.54-34.56-9.11-36.31,2.29-.69,5-.68,5.92,2,3.56,10,7,20.06,10.16,30.18.83,2.63,2.59,1.32,4,1.72,10.86,5.46,16.42-42.45,26.95-35.69,5.43,1.11-12,30.28-13.26,35.74-2,4.46,3.12,4.6,4.5,7.06,1.28,2.27,2.52-.12,3.85-.93,8.83-5.41,17.62-10.92,26.73-15.84,2.43-1.32,5,3.45,4.84,3.69C741,321.4,728.45,326,718.11,333.14a2,2,0,0,0-.16,1.69C730.27,341.56,747.89,333.27,758.73,343.46Zm-61.94-17.79c-18.54-.75-20.67,25.6-1.1,26.45C713.31,352.7,714,325.07,696.79,325.67Zm-45.93,445c-13.9,3.56-27.83,7-41.79,10.34-2.83.66-5.94.43-6.24-3.65-.45-6,5.36-5.39,8.15-6.09,13.21-3.31,26.65-5.68,40-8.29,3.34-.65,1.55-3.1,1.87-4.75s-.17-2.64-2.43-3.25c-17-4.57-34-9.4-50.86-14.36-12.29-7.32,1.92-10.7,8.89-7,15.41,4.7,30.59,10.15,45.89,15.21a2.78,2.78,0,0,0,2.41-.95c9.57-9.81-30.27-39.6-20.93-46.5,2.49-1.92,5.51.3,7,2.68,6.89,10.61,13.5,21.4,20.35,32,.7,1.08,2.87,2.49,3.46,2.16,4.09-2.34,11.57.42,11.22-8.8-.46-12.14.42-24.35,1.17-36.5.19-3.13,3.44-4.52,6.32-3.79,7,1.89-.23,5,1.64,14.43-.39,9.2-.67,18.41-1.27,27.6-.18,2.88-1.44,6.09,2,7.49,2.93,1.2,5.37,3,8.82-1.59,7.8-10.34,17.2-19.46,26-29.06,2-2.24,4.23-5,7.36-1.84s.26,5.71-1.64,7.71c-9.18,9.67-18.63,19.1-27.89,28.71-1.22,1.27-3.59,2.1-1.76,5.08,1.62,2.64,3,1.8,5.22,1.48,16-2.24,32-4.2,47.94-6.19,2.62-.33,4.92-.12,5.57,3.32.83,4.43-3.2,3.05-4.57,3.36-15.06,3.3-30.17,8-45.36,8.39-7.14.18-2.74,5.93-6.2,6,12.84,6.14,27,10.48,40.09,16.72,2.31,1,2.14,2.88,1.19,4.56-3,6.76-25.22-8.07-32.16-8.78-7.21-2.31-13.58-3-17.18,3-1.48,2.5,2.85,8.79,5.06,13.09,5.6,10.9,11.48,21.66,17.25,32.47,1.14,2.12,1.56,4.51-.9,5.63-2.8,1.28-3.69-1.77-4.72-3.37-8.55-13.34-17.57-26.42-23.15-41.46-.3-.81-2.59-.89-2.06-.73-8.68-.52-11.27,3-11.66,9.26-1.36,6.83,1.06,32.54-9.69,30.35-6.67-1.8-.75-6.92-.51-10,.78-9.85-.56-20,3.81-29.61.7-4.75-8.15-3.11-9.5.7C649.4,798,639.05,807.74,629.19,818c-1.75,1.8-4.46,4.82-5.51,3.42a7,7,0,0,1,.67-8.59c10.27-11.8,20.48-23.66,30.45-35.72.92-1.11.33-3.86-.21-5.65S652.45,770.23,650.86,770.63Zm10.06-11.31c-.93,24,33.41,22.32,31.79,1,.25-9.85-6.57-14.59-15.77-15.11C665.91,744.54,662.7,752.36,660.92,759.32Zm-43.84-154c-11.44-24.86-13.87-54.94-26.87-8.33l1.41.69c-2.21,3.43-4,7.34-6.81,10.14-2,2-5.07-3.71-3.67-7.64,2.44-9.15,6-18,9.34-26.84.57-1.48.37-2.33-1.26-2.31-2.65,0-3.2-5.79-7.3-2.16-8.57,7.61-17.49,14.85-26.26,22.23-2.22,1.88-4.22,3.56-7,.36-3.18-3.71.45-4.11,2.24-5.59,4.79-5.68,31.78-21.92,27.74-28-.93-2.19-3.17-1.1-5.11-1-12.22.84-24.45,1.44-36.68,2.11-8.94,0-10.59-9.44-.5-8.16,12.54-.56,25.07-1.29,37.6-1.92,1.55-.08,3.21.08,2.91-2.22-.18-1.41.46-2.64-1.7-3.93-11.77-7-23.31-14.38-34.76-21.89-1.87-1.22-4.78-3.47-2.55-6.23,3.47-4.28,6.52.11,9.08,1.6,11.13,6.45,22,13.4,33,20.08.65.39,1.76,0,2.66,0-2.29-11.57-9.32-22.15-14.08-33-1.75-3.37-.19-5.35,1.57-6.65,2.34-1.72,3.86.8,4.81,2.69,3.55,7.05,6.61,14.37,10.57,21.16,1.73,3,1.34,8.32,6.77,8.24,7.18-.1,11.47-2.42,13-10.86,2.05-11.09,6.49-21.75,10.13-32.52.31-.93,2.31-1.29,3.53-1.91.62,2.58,4.53,3.22,3.11,7.35-4.37,12.69-8.09,25.61-12,38.47-.11.35,1,1.53,1.28,1.45,2.77-.68,2.2,6.13,6.23,2.62,9-7.83,18.12-15.52,27.18-23.27,2.48-2.12,5.22-2.16,7.36,0,7.94,5.27-33.77,26.13-32.43,33.22.4,1.69,1.84,1.93,4.13,1.75,13.7-1.11,27.46-1.62,41.2-2.27,2.92-.13,5.58,1.27,5.78,4.14.21,3.2-3,1.77-4.63,1.94-13.61,1.43-27.24,2.67-40.86,4.07-1.49.16-3.83-1.31-4.27,1.8-2.11,6,24.15,15.68,29.4,20.33,3.71,2.19,10,5.66,7,9.44-3.52,4.44-9.74-.22-14-2.58-8.12-4.46-15.77-9.77-23.62-14.72-3.39-2.13-6-.5-8.49,1.75s.46,3.78,1.14,5.33c4.55,10.47,9.34,20.84,14.18,31.19,1.39,3-.9,4.57-2.51,5C620.17,611.56,618.25,608.08,617.08,605.34Zm-4.54-54.1c-.06-17.28-22.79-19.09-27.39-3.79C581.88,568.73,612.61,569.23,612.54,551.24ZM470.83,662.42c.38,9.39-30.31,11.32-38.35,14.79-2.86.72-1.26,3-1.31,4.5-1.84,10,23.72,9.66,31.11,13.42,7.84,1.4,5.23,9.36-2.69,6.92-9.9-1.24-19.38-3.72-28.9-6.45-1.14-.32-3.86,3.34-5.16,5.56s1.63,1.17,2.12,1.9c7.2,10.73,14.39,21.47,21.17,32.46.51.82-2.13,3.58-3.3,5.44-11.66-7.64-16.33-22.08-25.14-32.56-2.78-3.83-7.37.56-10.94-1-2,11.79-.72,23.62-.55,35.48,0,1.08-2.25,3.24-3,3-2.21-.57-5-1.11-5-4.51.22-10.78.13-21.59.78-32.35.2-3.41-2.62-2.58-3.62-3.24-10-8.06-21.28,30.33-30.75,22.42-3.92-3.35,1.15-6.86,3.23-9.48,5.46-6.86,11.55-13.23,17.33-19.85.34-.38.5-1.49.24-1.73-1.68-1.59-3.69-4.48-5.23-4.27-10,1.38-19.88,3-29.1,7.77-2.15,1.1-7.58,2.58-8.61-1.26-1.89-7,5.3-7,9.08-8.18,9.47-3.48,20.43-3.35,29.48-7.48-2.14-6.66-44.48-9.83-42.59-16.83a4.66,4.66,0,0,1,6.2-3.89q16.1,4.41,32.09,9.17c6.58,3.36,11.45-2.63,6.08-8.2-4.64-6.56-18.12-17.07-16.1-24.92,2.49.3,5.34-1.82,7.46.78,5.38,6.6,10.73,13.23,15.86,20,.87,1.15,1.4,4.36,2.59,2.84,2.62-3.35,9.46.7,9.55-5.87.08-5.5,0-11,0-17.66,2.46-5.12-3.86-12.64,2.79-18.36,3.79-3.26,4.1-.21,4.25,2.42.46,8.25.79,16.51,1.08,24.77.19,5.54-1.94,13.3,5.6,14.2,8.76-.56,15.1-16.07,20.54-22.64,4.59-6.67,13.84-.14,6.8,5.3-5.44,7.51-11.37,14.67-17.37,21.75-.94,1.11-2.9,1.69-1.26,3.14C432.37,674.14,467.59,657.55,470.83,662.42ZM423.2,683.27c-.53-21-33.32-19.34-32.08,1.34-.4,13.07,9.75,15,18.79,14.74C418.41,699.08,422.64,692.05,423.2,683.27Zm6.09-272.64c.89,5.82,7.37,4.84,11.46,6.13,8.26,2.61,16.86,4.11,25.23,6.41,6.64,2.35,1.39,10.16-4.33,7.65q-13.5-3.84-27-7.83c-3-.9-6.88-4.95-8.92-1.28-3.86,3.05,22.05,28.74,25.32,34,4.54,3.42-2.85,7.93-5.44,4.5-8.4-9-16.55-18.31-24.74-27.54-1.33-1.49-2.15-4.6-4.51-3.38s-6,1.19-5.46,5.9c.9,7.63.76,15.39,1.42,23.07.42,4.9,3,11.9-3.9,12.33-8.16.52-.58-7.52-4.05-10.32,2.38-8-3.48-15.16-1.1-23.06.26-.85,1.85-5.42-2.6-6.23s-8-2.38-11.32,3.38c-4.46,7.68-10.68,14.35-16.34,21.29-1.61,2-3.94,4-6.64,1.42s.54-4.43,1.52-5.86c4.42-8.43,19-21.24,18.66-29.67-12.78,4-25.08,9.51-37.78,13.81-1.53.55-5.26-.56-5.25-.82-1-9.9,28.7-15.35,36.77-19.42,5.57-.44,4.56-8.65-1-8.13-6.25-.11-48.15-2.64-46.67-9.47.29-3.77,3.34-3,5.2-2.81,12.87,1.24,25.74,2.63,38.57,4.31,4.3.56,9,.73,9.39-4-3-10.6-14.84-19.16-21.72-27.88-2.31-2.48-.62-4,.92-5.31a3.82,3.82,0,0,1,5.72.52c6.42,7.4,12.73,14.9,19,22.42,2.1,2.52,4.5,3.36,7.19,1.36,2.3-1.71,6.95.24,5.25-7.1-2.56-11-1.11-23-1.06-34.55,0-.89,2.86-2.79,3.51-2.47,1.7.86,4,2.58,4.15,4.14,1,10.69,1.71,21.43,2,32.16.07,2.72-.61,4.91,2.21,6.75,3.38,2.21,5.67,2.06,8.29-1.31,5.92-7.65,12.21-15,18.33-22.51,1.87-2.29,4.69-3.56,6.74-1.69,7.46,7.63-13.89,21.22-18,27.75-2,2.12-4.09,3.85-2.36,7.89,4.48,10.49,10.39,1.49,14.9.91,5.87.85,28.73-11.81,29.86-5.43.26,2.55-.7,5.61-4.33,6.48-9.25,2.22-18.54,4.33-27.62,7.12C435.17,405.34,428.22,403.61,429.29,410.63Zm-8.52-3.42c-.36-19.1-30.09-20-29.85-.2C389.53,427.75,422.61,427.64,420.77,407.21ZM0,568.81c7.41-24.6,37.32-37.06,61.89-33.49,8.75,1.25,19.61-.42,25.59,10.44,1.21,2.21,8.48,1.09,13.77,1.58-10.8-14.32-11.66-29.61-9.42-45.57.77-5.48,3.93-6.92,9-6.89,14.27.1,20.91-7.68,15.85-20.58C111.81,462,120.12,460,127.7,457.17c16.33-6.25,32.07-4.74,47.3,3.82,8.74,12.45,13,1.74,18.48-3.48,8.79-8.4,16.67-18.37,30.49-18.59,3.23-.05,4.86,1.17,5.13,4.57,1.43,18.63,16.57,29.64,32.68,20.78,16.72-9.21,17.25,1.55,19.06,11.74,1.42,8,4.33,16.2.46,24.68-4.08,15.62,17.27-9.24,43.94,31.72,2.54,3.06-2.63,5.78-4.85,8.05-12.83,13.15-12.8,16.29.93,28.17,13.84,19.32-24.67,37.78-42.1,34.5-2.75-.48-2.43,1.94-2,3.38,5.51,19.41,1,36.56-11.29,52.15-2.94,3.74-6.56.65-8.09-.14-14.65-7.6-25.3-4.33-31.79,10.78-5.33,12.4-13.64,4.09-19.94,2.53-13.52-3.37-22.38-13.62-30.06-24.14-6.92,13.32,5.92,20.54,10,30.65,12.85,21.59-3.59,103.25-32.95,57.51-23.45-63,17.09-59.62,13.34-86.44-11.61,7-21.67,16.7-34.56,22-2.85,1.3-6.17,3.74-3.06,9.22,6.59,11.62-1.16,20.89-8.7,27.73C110.52,717.05,93,713.86,85,704c-14.08-17.23.76-43.71,22.54-42.85,2.46,0,5.12,1.75,7.42,3.14,16.19,9.83,20.52-10.05,32-12.29-66.88.21-6.78-31.2-43.37-38.68-7.3-1.89-18,3.43-18.59-10.12-3.54-18.14,7-34.33,15.32-49.13C86,549.85,82.43,564.62,73.51,570.42c-14.66,9.54-30.42,10.05-46.73,8.27C19.27,576.59,2.24,576.91,0,568.81ZM121.5,686.25c0-21.76-35.41-21.8-34,.5C86.73,709.39,124.07,709.86,121.5,686.25Zm51.57-4.61c-1.44,8,4,45.13-4.78,45-3.83.18-3.37-4.26-3.37-7.37,0-14.56,0-29.12,0-46.16-16.62,20.29-10.64,46,.58,66.84,1.47,2.53,2.63,3.28,5.18.79C191.66,719.76,177.47,660.82,173.07,681.64ZM112.5,554.3c-8,8.51-11.28,19.41-16.44,29.33-5.3,10.21-.27,20.47,10.25,21.31,14,1.12,21.66,12.2,17.67,25.55-1.28,4.3-2.31,8.59,3.49,10.23,34.4,11.69,42.46-18,51.08-4.85,7.13,11.1,15.9,20.26,27.59,25.86,19.39,14.54,12.41-22.9,44.33-15.65,2.71.63,8.48,6.59,12.67-.31,7.83-12.89,11-26.75,5.53-40.7-6.2-15.89,6.53-11.52,12.2-11.5a42.46,42.46,0,0,0,27.92-9.93c17.3-14.32-17.21-16.31-3-39.69,2.2-3.94,10.65-6.68,6.19-12.7-9.19-12.42-21.23-19-37.4-14.39-3.26.93-8.32-2.45-7.18-3.64,4.92-5.1,2.66-11.53,4.65-17,2.79-7.69-.76-14.88-4.41-21.19-4.15-9-30.85,17.68-44.81-18.38-3.18-9.43-3.06-9.22-8.29-6.24-11,4-25.84,33.34-36.31,23.1-13-11.92-33.45-13.61-50-6.27-1.88.69-3.47,1.82-2.24,5.19,3.91,10.74.3,30-16.52,30.45-10.8.27-11.08,6.22-10.31,13.67C99.46,543,117.34,546.43,112.5,554.3ZM7.05,568.61c25.75,5.56,50.9,9,72.9-13.32-13.13-.94-24,2.77-35.19,5.19-2.22.18-14.35,2.12-13.26-1.44,1.46-1.66,2.31-3.71,5.16-4.2,14.05-2.39,27.52-7.64,43.7-8C59.61,539,26,539.69,7.05,568.61Zm251.59-276c-1.81,1.92-1.75,3,.17,5.2,8.51,9.75,16.72,19.77,24.84,29.85,1.29,1.61,3.82,3.56,1.4,6.25-2.66,3-4.41.22-6.24-1.12-11.37-8.31-18.2-20.67-27.44-30.88-1-1.15-1.35-3.45-3.61-1.78-1.76,1.3-5,.23-4.88,4.59-1,10.11,2.17,28.16-4.24,35.84-4.67-.13-6-7-5.64-11.1.92-8.79,1.58-17.64,1.62-26.47,0-1.28-3.9-3.27-6.23-3.74-4.77-1-5.83,4.45-6.75,6.62-4.48,10.59-14.08,17.26-19.49,27-2.64,5.28-13.09.89-7.35-4.79q12.12-16.39,23.7-33.19c5.43-2.84-.45-7.28-4.68-5-6.38,2-33.25,14.87-36.43,6.76,2-11.2,39.36-8.67,37.57-19.52-.63-3-2.85-3.42-5.32-4.11-11.94-3.35-23.88-6.71-35.63-10.62-1.64-.54-6.5-1.38-4.58-5,3.79-9.86,40.13,9.08,48.53,10.58,12.27-18.33-16-23-16.66-38.14.17-1.11,3.17-2.94,3.49-2.68,10.22,6.39,15.28,18,23.66,26,1.86,1.59,10.14,2.6,11.47-3.85,2.26-11,3.5-22.19,5-33.34.5-3.76.43-8.5,5-8.73,6.25-.31,3,5.28,3,7.81a148.8,148.8,0,0,1-5.44,37.25c-.21.76.18,2.41.51,2.48,2.27.42,4.29.38,6.25-1.64,9.31-9.58,19-18.77,28.17-28.5,3.18-3.39,4.49.43,5.82,1.11,2.35,1.18,0,2.88-1.14,4.18-8.77,10.22-17.31,20.65-26.4,30.56-2.83,3.08,2,3.91.69,6,11.91,1.7,35-14.76,45.54-10.09-1.47,2-2.53,5.22-4.47,5.91-11.08,3.93-22.39,7.22-33.58,10.84-1.81.58-5-2-5.34,1.79-.38,4.67,1.75,7.44,6.93,7.6,11.48,1.15,30.75.69,38.45,10-9.32,5.78-33.07-.64-44-3.06C261.34,288.42,260.38,290.73,258.64,292.58Zm-20.72-31.95c-20.16-.28-20.26,33.1.92,32.17C261.84,295.15,259.47,258.46,237.92,260.63ZM136.2,554c-.27-3.19,2.91-3.09,5.46-3.05,11.07.19,22.15.28,33.22.45,3.65,0,1.7-4.12,4-5.06-6.23-10-18-15-26.72-22.66-2.75-2.09,0-4.64-.5-6.93,11.76.61,34.34,27.15,37.26,19.1,4.22-11.38-5.58-23.26-3.91-35.2.08-1.45-.85-3.61,2-3.65,2,0,3.52.33,4.14,2.64,2.59,9.76,6,19.38,7.66,29.29.82,4.91,4.1,5.07,6.72,5.81,3.44,1,2.59-3,3.36-4.82C213,520,216.9,510,221.2,500.13c.49-1.11,3-1.33,4.6-2,4.74,8.76-6.3,22.89-8.55,32.55-.91,2.55-4.59,5.1-2,8,6,8.61,22.9-11,29.9-14.43,6.08-4.79,13.17,1.34,5.55,5.9-3.92,4.39-27.83,17.17-25.36,21.56,6.9,4.71,44.75-4.32,44.44,6.13.2,4.09-3.67,3.15-6.33,3.17-11.17.09-22.34-.1-33.5.06-1.53,0-3.52-.93-3.79,2.35-.22,2.71-1.74,5.28,1.39,7.14,7,4.16,13.95,8.37,21.06,12.32,6.08,3.21,3.43,11.14-2.9,6.31-7-4.3-14.35-8-21.44-12.15-4.22-2.46-5.75,1.85-8.37,3.12s.23,2.39.8,3.63c.95,4.47,14.38,25.47,9.17,26.52-10.06-.26-13-14.71-17-22.21-1.95-4.18-5.74-2.83-9-3.1s-2.34,2.14-2.81,3.92c-3,6.16-3.24,25.77-12.23,24.1-3.06-.53-1.93-3-1.7-4.32,1.12-6.63,1.24-13.93,4.3-19.59,3.7-6.85-.35-8.76-4.4-11.2-4.29-2.59-6.76,1.42-9.61,3.5-5.1,3.72-10,7.8-15.24,11.23-1.66,1.08-4,.91-5.88-1.65-5.72-5,22.69-17.21,24.29-23.94-3.58-1.06,1.57-8.05-5.82-7.43-9.51.8-19.19-.34-28.79-.59A5.67,5.67,0,0,1,136.2,554ZM199,576.25c8.24-1.2,19.77-3.31,18.42-12.51-.86-14.9-6.37-19.79-16.53-20.76C176.8,540.77,176.27,577.89,199,576.25Z"/></g></g><g id="Red_Japanese_Frames" data-name="Red Japanese Frames"><path class="cls-10" d="M0,20V1580a20,20,0,0,0,20,20H956a20,20,0,0,0,20-20V20A20,20,0,0,0,956,0H20A20,20,0,0,0,0,20ZM924,1548H52V52H924Z"/><path class="cls-11" d="M952.1,15.41,928.69,38.83A4,4,0,0,1,925.86,40H50.14a4,4,0,0,1-2.83-1.17L23.9,15.41A2,2,0,0,1,25.31,12H950.69A2,2,0,0,1,952.1,15.41ZM40,1549.86V50.14a4,4,0,0,0-1.17-2.83L15.41,23.9A2,2,0,0,0,12,25.31V1574.69a2,2,0,0,0,3.41,1.41l23.42-23.41A4,4,0,0,0,40,1549.86ZM936,50.14V1549.86a4,4,0,0,0,1.17,2.83l23.42,23.41a2,2,0,0,0,3.41-1.41V25.31a2,2,0,0,0-3.41-1.41L937.17,47.31A4,4,0,0,0,936,50.14ZM925.86,1560H50.14a4,4,0,0,0-2.83,1.17l-20,20a4,4,0,0,0,2.83,6.83H950.69a2,2,0,0,0,1.41-3.41l-23.41-23.42A4,4,0,0,0,925.86,1560Z"/></g></svg>