<svg xmlns="http://www.w3.org/2000/svg" xmlns:xlink="http://www.w3.org/1999/xlink" viewBox="0 0 976 1600"><defs><style>.cls-1{fill:none;}.cls-2{fill:#f4f3ef;}.cls-3{clip-path:url(#clip-path);}.cls-4{fill:#50b271;}.cls-5{fill:#d81e1e;}.cls-6{fill:#592116;}.cls-7{fill:#992d17;}</style><clipPath id="clip-path"><path class="cls-1" d="M960,22V1578a6,6,0,0,1-6,6H22a6,6,0,0,1-6-6V22a6,6,0,0,1,6-6H954A6,6,0,0,1,960,22Z"/></clipPath></defs><g id="Paper_Backing" data-name="Paper Backing"><path class="cls-2" d="M960,22V1578a6,6,0,0,1-6,6H22a6,6,0,0,1-6-6V22a6,6,0,0,1,6-6H954A6,6,0,0,1,960,22Z"/></g><g id="Wikipedia_Cropped" data-name="Wikipedia Cropped"><g class="cls-3"><path class="cls-4" d="M93.29,1531.06c-30,6,32.36-58.72,22.22-98.65-5-12.37-24.09,1.61-34.64-1.62-9.38-2.22-38.78,1.87-36.57-10.84,44.22-58.26,76.47-122.33,145.72-157.4,15.63,11.62,32.4,23.6,50,20.79,20.48-.78,49.72-3.79,67.39,5.3,4.84,9.32,11.69,5.68,20.35,3.31,7.63,5.67,13-2,17.35-7.73,2.41-2,6.41-2.12,6.84-6.06,7.23-15.57,18.6-27.45,23.53-47a4,4,0,0,1,4.45-2.65c9.63,35.08-6.9,83,43.6,100.67,14.73,6.33,37.07,2.32,45.25,17.84-3.2,66.85-52.34,129-101.64,171.08-18.47,16.78-12.21-79-37.45-64.64C262.52,1499.4,173.12,1515.62,93.29,1531.06Zm841-110.48c-46.41-63.34-132.38-71.21-202.3-75-14.26,11.9-1.38,39.9-19.45,44.68-44.5-21-87.75-67.34-91.58-116.61,4.3-12.83.88-23.78.44-35.56,5.27-14.37,39.2,21.16,69.2-5.42,77.31-10.52,47.34-31.44,81.41-92.39,11.58-4.11,4.34-19.48,9.08-27.93,10-13.85-56.26-38.77,20.65-29.73,19.33,2.42,9.56-10.52,22.81-14.1,5-1.44,8.62-5.26,7-10.68,8.95-15.14,6.7-34.19,9.63-50.47,47.22-5.73,105.09,34.31,138.79,59.17-.34,2.22,2.17,53.94-2.51,52.71-15.75,4.71-28.58,24.08-46.72,31.81-4.56,5.11.23,9.53,4.65,13.73C997.15,1235.24,965.49,1345.75,934.33,1420.58ZM850.51,909.29c-28.65.1-55.78-13.72-63.6-41.58.84-6.83-6.75-5.14-9.64-8.64-14.2-11.24-34.39-13.6-48.29.8-7.15,7-12.6,5-15.08-6.94-2.15-9.39-9.46-17-21.74-22.53-15.75-8.68-19.59-25.53-31.17-37.51-14.49-14.77-38.26,5.19-53.94,12-8.3-7.64-15-1.29-15.81-12.56-5.31-38.45-26.45-35-54.36-37.87,14.42-51.39,72-89,124.29-99.57,12.72,0,39.5-17.28,38.89,4.85,3.22,24.89,8.12,45.14,35.9,35,50,6.13,93.8,25.87,146,20.06,12.15,6.24,52.5-24.73,41.12,4.08-4.46,19.71-9.08,40.08-19.57,58.45-5.58,18.39-35.85,39.51-38.22,62,11.23,13.39,17,31.65,19.65,45.76C899.2,913.42,866.92,907.59,850.51,909.29ZM226.19,830.07c-64-13.59-103.18-62.67-129.48-119.5-31.94-46.85,7.44-33.83,40-34.8,4.61.15,7.64-5.44,5-9.24-19.87-31.28-21.41-65.12-24.82-99-3.19-42.59-8-83.76-31.68-121.71-2.87-2.41-8-10-.59-10.82,45.11,3,87.31,13.63,130.23,31.5,29.26,5.13,74.77,54.64,88.42,47.73,42.92-47.66,24.47-100.95,77.62-13.51,42.75,78.48,42,215.79-15.17,284.94-27.2-5.65-50.64,9.88-78.2,3.38-30.29-3.35-36.5,35-61.35,41Zm220.24-67.56c-13.22-85.7,24.16-187,74.37-258.12-8.51-21.83-16.89-44.19-18.27-67.72-4-9.37,2.51-28.23-8.92-32C446.33,379.84,389.46,360.18,336.83,385c-14.54,7-13.34-12.3-28.7,6.34-25.66-4,57-62.51,66.84-64.55,24-13.54,46.83-.62,68.73,10,21.79,7.07,37.9,19.49,47.21,39.8,28.48.19,25.9,33.86,49.51,30.34,45.61,5.48,46.94-56.34,67.88-37,18.83,12.36,6.15,21.25,32.9,19.75,94.93,0,126.65,57.12,182.7,116.93-1.12,5.67,5.76,7.15,9.8,8.16,13.17,19.64-63.92-.09-75.58-11.76-40.4-43.77-95.73-53.36-152.62-55.08-10.71,4.52-11.8,22.25-19.3,30.87-3.6,14-25.15,22.92-27.73,35.92-40.27,71.88-68.47,153-67.38,237.4C489.92,770.88,461.64,750.69,446.43,762.51ZM713.76,279.45c-19-8.69,22.41-30.69-7.3-47.1-3-2.3-10.14-3.36-6.07-8.64C729.78,188,777.14,159.05,823.18,184c23.43,12.47,50.41,20.53,76.88,27.41,6,.93,4.33,9,10.24,9.69a4,4,0,0,1,3.43,3.46c-45.15,33.95-114.9-10.05-159.05,27.51C740.8,260.72,729,273.42,713.76,279.45ZM514.8,278c-27.25-7.81-48.82-55.88-74.53-72.92-22.42-30.53-80.22-28-102-62.72,4-2.47,1.38-9.64,6.93-9.89,14.35,1.36,29,3.34,42.76,4.18,27.77,1.15,61-3.31,79.35,21.66,17,21.72,70,56.39,53.14,87.45C513.51,253.89,526.11,272.73,514.8,278Z"/><path class="cls-5" d="M505.12,1356.28c-75.5-34.58-127.46-17.25-120.62-122.47-12.13-29.69-23.07,61.36-69.55,53.28-38.23-15.59-90.41,11.58-118.61-24.83-11.75-23.51-23.68-46.24-40.24-65.92-37.21-54.79,64.53-75.28,16.36-81.57-31.93-6.88-35-47.9-49.08-70.67C113,1028,98.57,1014.71,101.1,992.45,121.74,948,111.81,895.58,180,905.34c17.88-6-9.48-39.83,29.73-51.76,30.57-12.85,38.73-59.57,74.82-62.47C323.48,798.4,372.09,768.8,398,814c2.68,5.69,11.6,3.3,11.35-2.81-1-31.88,40.94-59.15,72.46-49,23.32,10.37,46.6-3,69.12-4.91,53.62,4.2,30.68,47.46,45.92,57.78,13-6.22,25.93-23.36,43.64-22.88,26.38-2.47,33.73,33.86,56.18,42.94C710,838.68,709.45,861.7,720,866.91c56.62-47,66.87,29.69,112.35,52.89,44.57,33.57,0,72.88,3.61,115.28-1.3,33.72-47.8,45.11-77.29,38.28-5.73-.21-8.14,7.74-3.49,10.88,47.81,34.51,5.13,51.13-.08,88.51-4.77,37-12.85,48.7-52.06,52.35-27.74,12.29-49.6,23.88-79.1,3-13.1,4.63,5.68,41.19-14.56,65.51-9.88,17.15-25,14.1-38.53,20.64C549,1327.41,532.62,1356.31,505.12,1356.28Zm30.07-948.77c-18.5-8.45-30.82-37.1-52.15-47.17-28.13-23.6-7.76-75.35,26.31-81,12,2.42,8.82-41.06,15.8-44.87,9.54-31.7,51.79-75.78,89.48-48.88,31,14.91,13.18,68.79,43.3,49,19.26-7.09,48.59-8.55,57.48,12.11-3.56,26.63-30.92,47.37-20,76.85,7.73,71.23-54.57,79.67-96.06,38.3C582.29,383.09,572.86,405.75,535.19,407.51Z"/><path class="cls-6" d="M976.28,1061.53c-33.42-34.47-80.23-55.53-127.16-62.44-4.09-.73-2.4-2-1.64-4,16.39-30,17-59.33-12.29-82.17,19.67,2.36,62.94,8,56.29-22.43-5-18.91-8-42.85-25.32-54.73,13.81-9.33,21.34-23.73,30.66-36.59C914,776.07,923.2,748.06,928.57,720c1.18-5.58,2.92-12.27-.87-17.65-2.24-3.2-7.54-2.54-9.7-1-11.34,7.93-24.84,8-37.25,9-18.38,1.48-37.06-1-55.61-1.34-32.68-2.69-61.64-22.75-95.37-17.41-4.9.77-12.35,5.26-14.78.74-4.82-8.92-5.72-19.92-10.3-29-3.12-6.21,3.57-18-10.65-18.55-23.9-.9-46,7.2-67.87,14.64-37.17,13-77.74,47-91.06,84.72-2.61,16.49-21.75,14.71-34.62,14.9-3-.15-3.45-1.27-3.48-3.87a575.34,575.34,0,0,1,21.46-136.39c7.63-23.85,17.69-46.45,27.75-69.1,13.86-31.15,38.78-55.47,55.18-85.22,1.77-3.23-1.46-10.19,5.53-9.89,56.62,2.92,96.21,4,138,47.06,33.81,26.24,72.9,29.52,113.56,25.41,4.65-.47,3.22-4.11,1.73-5.65-13.66-11.05-31.35-18.33-43.48-30.87-36.43-40.35-67.11-90-125.12-99.94-3.15-.88-11.12.42-9.42-5.45,1.88-6.5,7.75-11.75,11.25-17.9,21.65-30.44-7.16-58.65,23-82.16,110.48-87.64,78.27-13,214.36-56.26,4.39-1.06,10.45-1.55,12.07-7.34.72-2.57-1.73-4.67-4.23-5.44-31.49-10.39-64.68-17.52-95.16-30.37-52.06-28.06-94.92-18.75-134.92,22.93-6.5,5.52-10.09,15.33-21.28,15-5.45-.14-10.91-1.06-16.69.79-8.44,2.71-17.13,4.34-24.55,9.73-3,2.16-2-.66-2.07-2.17.86-38.22-39.56-74.83-77-55.08-16.67,8.79-28.6,22.13-38.12,38-1.26,2.48-4.08,3.94-5.52.7-2.2-8.16-8.2-14-13.17-20.14-21.33-23.23-40-52.88-71.67-62.6-15.27-4-30.77-1-46.08-2.12-27.75-2-55.42-5.16-83.14-7.73-22.72.59,44.18,42.09,49.2,43.75,64.3,23.15,90,51.4,132.64,102.43,17.28,17-26.7,12.76-27.05,61.15,1.75,3.36,6.24,12.77-4.67,10-43.26-26.62-71.22-34.61-114.74-2-15.25,9.47-68.29,57.26-66.57,72.83,5.86,10.28,23.83-5.89,30.68-8.24,15.08-5.45,29.89-11.67,45-17.11,38.42-12.06,81.25-6.1,116.46,13.25,8.28,4.87,20.86,7,23.73,15.3,3.36,9.7,4,21,4.58,31.18,12.47,92.82,35.62,19.51-19.3,117.23-29.27,55.3-41.13,119-42,181-.36,11.3.67,22-11.79,27.69-13.56,8.22-20.4,23.3-19.63,39,0,.82-.87,1.64-1.33,2.47-11.94-24-30.29-22-22.95-33,50.83-101.81,55-244.55-30.95-328.78-5.58-5.35-13.18-8.36-17.42,1.56-7.3,17.05-17.09,32.54-26.44,48.44-6.62,11.26-8.73,10.44-17.44,1.9-17.56-17.24-39.82-28.09-61.76-38.92C217.38,453.71,50,405.88,77.24,444.11c49,66.79,15.24,157.31,59.56,225.17a71.7,71.7,0,0,0-42.24.64c-21.23,6.12-19.21,9.57-9.78,27.49,23.08,65.48,67.33,123.9,139.88,138.58-22.46,17-56.64,26-39.79,65.58C159,894.11,119.5,905,113,933.87c-7.15,49.6-36.17,61.18.38,106.68,26.35,34.5,10.4,68.28,66.07,81.2-34.34,16.25-50,53.56-24.53,84a199.72,199.72,0,0,1,29.89,48.72c.65,1.52,2.07,3.56-1.06,5.46-48.52,28.59-88.73,70.44-117.57,118.69C56.8,1394.11,49,1410.13,33,1420.12c-3.36,2.09-3.09,4.7.87,7.09,20.88,8.51,52.2,13.56,74.11,5.64,10.53-3.77-3,31-3.07,36.12-4.4,17.64-14,32.8-23.31,48-2.84,4.64-6.16,9.06-4.38,14.78.84,2.69,3.39,3.42,6.39,3.35,32,1.54,63.34-8,94.08-16,42.38-12,127.79-31.95,156.83-63,9.27,21.41,18.14,42.85,18.64,66.81.12,5.73,5.41,4.63,8.77,2.8,57.69-36.72,104.52-108,111.69-176.31,23.39,19.61,47.47,15.71,69.1-3.29,11.4-9.1,19.7-23.27,34-27.24,16.33-4.55,31.21-9.1,39.27-25.55.38-.77,2.67-.71,3,1.69,10.48,46.87,53.88,82.74,94.22,105,4.28,2.13,11.23,3.18,11.54-3.6.69-15,5-29.09,8.44-43.44.47-1.92,1.33-5,4.21-3.48,17.77,9.23,37.16,8.44,56.28,9.6,27,1.63,53,7.39,77.32,19.87,25.09,12.85,49.55,26.14,62.33,53.32.6,1.29,3,2.75,4.23,2.52,3.17-.58,5.06-3.14,5.49-6.34,7-46.83,31.89-89.55,32-137.41-.29-47.76-1.23-100.2-40.15-133.53-1.7-1.67-2-1.51.17-2.94,13.71-9.08,27.48-18.13,38.07-31,8.12-6.47.79-13.32-5.76-5.91-15.57,24.63-60.76,27.58-34.65,50.14,34.91,33.29,33.1,83.44,32.09,127.74-2,42-20.6,80.82-30.49,121.06-21.52-34.58-61.57-51.87-99.37-62.64-27.36-7.88-55.52-5.74-83.1-10.5-7.55-.83-16.5-9-22.15-1.44a54.41,54.41,0,0,0-11.18,31.2c3.12,48.09-86-55.43-86.55-70.65-3.67-8.76-9.32-17.33-7.06-28,2.22-10.54,4.09-21.28.25-32-.53-1.48.3-3.46.5-5.2,31.34,14.36,44.47,13,74.59-5.12-5.84,6.54-43.15,47.11-30.11,49.93,4.76,2.17,5.49-4.06,6.5-6.07,7.87-14,17.44-28.07,30-37.85,0,1.15.49,2.51,0,3.4-3,5.67-3.93,12.06-6.14,17.84-9.1,23.86-10.7,48.3-8.92,73.38-1,8.32,7.47,5.88,7.43-.83,0-8.1-1-16.4.41-24.26,3.31-15.28,3.24-32.89,11.14-46.53,12.63,10.75,18.54,29.11,22.51,45.25.41,2,2.84,3.64,4.34,5.45,1.09-1.76,3.43-3.81,3.1-5.23-3.68-15.51-7.12-31.07-18.12-43.76-3.61-4.16-12.69-6.34-7.49-15.49,3.67-6.46,5.16-18.43,9.62-19.48,48.36-11.58,24.12-56.48,50.23-84.69-2.49,16.4,1.82,83.45,15.59,90.29,3-1.27,3.6-4.64,2.42-7.28-13.36-35.66-12.71-73.58-8.85-111a406.47,406.47,0,0,1,42.68,58.09c4.64,7.65,14.07,14.37,6.38,25.39-4.12,15.08,1.14,32.06-.23,47.73-.27,20.24,3.47,39.66,9.84,58.7.91,2.73,1.39,7.14,5.74,5.55s2.61-5.57,1.77-9c-4.5-18.16-9.45-36.13-9.39-55.2,3-18.65-8.3-34.23,2.38-51.56a11.58,11.58,0,0,0,1.83,8.63c13.69,24.85,29.29,54.87,40.67,83.18,3.94,6.84,18.34,61.13,24.87,55.72-6.1-36.35-19.56-68.94-36.55-102.69,22.49,16.24,38.78,36.27,59.29,54.43,1.31,1.24,3,4.83,5.34,2.75,6.41-8.76-19.94-24.77-24.19-32.38-17.83-22.11-49.35-29.68-59.3-61-6-19.54-21.91-35.71-31.77-54.13,26.58,5.28,52.39,19.43,74,36.23,2.21,1.74,5.69,7.74,10.72,3.26-7-22-49.81-36-70.51-44.47-7.81-3-17.64-.36-23.55-7.65-13.62-16.81-26.17-34.55-43.63-47.84-1.27-1-2.82-3.4-1.28-3.4,11,0,23.79-5,32.81,1.86,25.58,19.52,54,32.72,85.91,29.48,4.91-.46,12.77-2.89,12.46-6-.64-6.31-6.66-3.75-11-2.12-28.37,3.93-55.75-8-79.25-23.09,17.52,1.81,34-4.28,51-1.59,17.6,2.78,35.9.16,53.54,4.7,1.7.43,4.68,1.17,5.09-1.44-6.19-13.63-81.84-12.38-99.21-12.52,21.15-10,39.72-20.33,61.89-17.9,1.79.2,3.84-.26,3.55-2.33-7.47-12-40-1.46-50.39,3.89,6.15-12.77,8.31-25.47,8.68-39.58.23-2.53-4.27-12.31,6.14-9.86a257.48,257.48,0,0,1,120.36,56.57c2.5,2.23,4.65,1.53,6.82-.17C981.24,1062.73,977,1062.34,976.28,1061.53Zm-370.15-382c26-16,57.36-20.22,86.73-27.68,3.62,0,2.88,7.89,3.53,11.47,2.63,14.49,5.3,29.35,17.37,38.62,3.51,2.69,12.27-2.88,19.2-3.16,14.74-.61,28.45,3.43,42.3,7.09,35.64,12,73.89,14.41,111.36,12.86,11.6-.11,23.11-3.71,34.54-9.39-6.84,46.43-29.84,86.58-60.52,121.44-5.55,6.74,2.94,11.29,5.71,16.17,8.73,13.81,12.27,29.13,16.58,44.55,6.14,16.26-8.61,11.56-14.2,12.37-29.64,5.68-66.26-3.61-77.65-34.87-1.22-3.09,3.88-1.75,6-1.66,5.63-.29,43.85,8.73,43.36.79.15-8-46.32-8-59.66-11,18.41-6.21,31.75-12.64,46.91-12,10,.57,12.64-7.37,1.42-6.61-18.25-2.13-34.88,3.53-50.42,12.24-7.94,4.44-11.69-3.56-17.84-4.61-12.47-2.13-22.78,1.21-31.67,8.28-6.22,5-8.49,10.23-11.38-2.37-2.79-12.21-12.49-20.08-24-25.28-14.22-7.45-17.5-24.62-28.92-34.79,46.22-8.41,61.93,30.32,109.8,29,5.21-1.07,13.34,6.41,15.37-.88.9-3.41-8.73-6.41-13.88-6.83C755,811.5,735.51,805.35,718,793.15c-.7-.49-1.8-.4-7.11-1.44,29.26-.65,49.12-7.19,76.69-9.52,6.83-.65,13.61,3.58,20.22,5.55a104,104,0,0,0,52.41,1.89c4.88-.69,10-1.16,12.33-6.18,1.49-3.67-8.66-2.36-10.64-2.12-20.35,5.48-40,2.4-60-3.32,12.6-3,43.89-13,50.31-22.6-2.81-3.89-7.51-1.08-10.27.07-30,13.93-60.89,17.95-93.6,23.34,15.56-13.22,30.83-25,48.19-34,3.88-2,13.56-1.53,9.74-8.89-4.85-11-65.85,36.35-71.83,43.79-3.34,3.09-11.42,1.28-17.31,1.34-14,.14-28,0-40.84,0a182,182,0,0,1,57-53.51c1.55-2,1.89-2.71.42-4.86-1.66-2.43-2.38-1.11-4.12-.26A149.24,149.24,0,0,0,668.77,777c-10.08,15.17-24.59-2.86-61.72,23.84-.43-8.47,5.37-14.61,8.44-21.23,4.2-9.08,4.58-22,16.3-25.54,22.55-6.84,38.38-22.38,53.72-38.84,2-2.14,5.34-5,2.59-7.71-2.46-2.41-4.82.86-7.24,2.68-16,12.08-28.06,29.91-48.38,34a296.91,296.91,0,0,1,40.78-59c2.21-2.48,6-5.64,2.83-9.23-.69-.79-7,1.47-8.74,3.81C643.93,707,624.79,737,608.2,769.12c-13.25-31.51,2.39-52.29,25.2-75.79,1.89-2.48,7.41-4.71,4.64-7.6-3-3.16-7.07.6-10.13,3.27-22.36,18.79-48.13,53.47-27.84,81.91,8.27,10.87-1.15,16.14-4,25.14-6.15-35.15-18.05-47.56-55.91-43.92C554.52,720.88,577.37,697,606.13,679.53Zm93.19,377.53c10.18,35.37,5.36,47.21-24.55,68.91-10,10.41-11.64,25.46-21.56,36-42.18,31.26-79.15,14.74-111.06-31.88,29.49,8.87,75.07-16.38,93.15-39.11,20.29-29.73,30.06-71.72,10.34-103.77,11.84-8.7,29.2-17.35,37.49-32.56,1.28-2-.07-6.35,6-4,28.53,11.15,28.39,40.6,15.73,59.48C694.84,1025,695.35,1040.53,699.32,1057.06ZM235.48,957.11c-7.75-58.67,51.75-73,88.14-33.6,3.93,3.65-4.52,8.52-7.76,11.84C299.67,952,313,981,297.43,1006.15c-8.45,16.38,7.2,40.74,25.82,43.05,2.82.35,7.89,3.34,7.77,3.66-2.76,7.93-5.85,14.36-17.14,12.05-15.91-3.25-31.9,1-47.62,3.61-41.57-4.94-46.66-31.24-30-64.79C241.72,988,240.94,972.12,235.48,957.11Zm282.9,89.44c.27,2.24-1.82,4.76-2.84,7.16-12-21.61-17.79-45.34-20.64-69.67-.2-1.52-2-2.84-3-4.26-10,12.15-1.38,29.21.24,42.79,1.7,14.45,11.07,26.25,14.55,39.75-18.66-2.51-27-7.25-35.34-24.44-5.61-11.45-13.69-21.94-15.32-35.27-.17-1.38-4.25-2.29-6.52-3.41-2.76,18,9.83,42.6,21.81,56.14.37.37-.33,2.7-.66,2.73-7.66.74-15.3,7.71-22.22-3.91-6.6-11.08-16.65-20.11-25.3-29.93-.66-.76-3.15-1.18-3.28-.94-1.14,2.09-3.33,5.12-2.6,6.46,7.42,13.74,17.76,25.26,28.94,36.83-40.36,25.13-43.18-23.06-78.33-34.2,14.44-30.9,45.18-39.17,73.27-51.53,46.09-29.54,108.56-28.75,155.65-3.57-15.11,12.15-11.85,40.63-35.24,43.49-2.69.9-5.36,1.18-4.75-4.29,1.24-11.19,1-22.56,1.12-33.85,0-2-1-4.22-3.64-3.6-5.44,1.28-7.27,6-7.13,10.52.37,11.26-1.71,22.47-.22,33.86.24,1.85-9,6-14.32,7.1-3.21.64-2.92-4-3-7.24-1.3-8.27.21-45.6-5.36-48-1.86,1-4.88,2.42-4.9,3.76-.32,19.28-3.32,38.84,4.13,57.49C525.67,1042.16,517.81,1041.78,518.38,1046.55Zm10.44-1.35c19-21.33,54.34-8.37,62.33-41.69,4.08-12.37,10.05-24.69,24.44-26s21.62,10.5,26.35,21.9c11.66,28.11,4.73,54.84-9.33,79.95-14.83,25.29-51.27,41.22-80.23,43.63-17,3.89-14.42-9.54-15.61-21.47-.95-9.52-3.77-19-12.57-25.41C519.61,1072.75,524.29,1050.48,528.82,1045.2Zm112.57-67.06c-4,.92-9.28-6-14.5-7.62-7.08-2.15-10.16-3.32-6.36-12.19,6.59-15.42-11.07-38.92-26.84-44-24.74-6.44-53.23,1.87-71.77-19.91,5.9-19.77,2.52-42,29.77-46,30.43,11.56,63.18-21.09,90.71.79,14.56,17.71-.69,37,20.87,57.7,13.73,14.68,21.08,26.28,11.3,42.49C666.84,962.25,657,974.54,641.39,978.14Zm-86.1-58.24c33.74-2.87,64.89,9.26,53.13,47.41-5.89,9.47-12.69-.12-17-1.94C552.84,946,510,945.74,469.23,957.19c5.06-10.88,8.34-22.84,11.66-34.37,3.16-12.73,26.07-24.58,37.82-18.75S540.3,920.57,555.29,919.9ZM450.06,964c-25.86,19.59-67.46,22.15-83.3,55.08-6.51,13.29-17.1,19-30.56,22.71-16.72-3.28-36.67-10.71-29-32.64,18.32-42.35-7.73-66.15,43.08-89.76,35.72-12.12,31.9-4.4,63.15-31.85C463.41,868.69,489.32,931.92,450.06,964Zm-173,113.16c78.85-9,21.84-3.81,63.32,44.29,11.32,15.23,24.88,27.39,41.9,35.72,19.86,9.73,2.43,21.42-.54,29.34-12.09,32.26-38.69,33.27-63.1,17.35-5.64-3.68-9.16-11-13-17-11.91-19-31.09-28.21-50-37.69C220.44,1124.5,233.48,1081.65,277.1,1077.16Zm88.48,59c-18-13.55-29-33.16-34.4-55.26-2.45-10,11.49-27.9,25.51-33.8,12.9-5.42,23.41-.15,33.72,13.16,9.27,12,19.06,26.54,36.84,24.3,10.65-1.35,21-7.32,30.86-12.35,59.87-28,101,56.8,35.89,79C453.52,1165,403.29,1167.58,365.58,1136.13Zm35.85,29.4c40.58,10.78,96.93,5.94,126.59-26.78,4.75-5.87,7-3.92,10.21,1.43,11,18.47,25.4,33.56,45.16,42.89,3,1.43,3.55,2.57,3.55,8.75,2.85,33.41-29.6,59.45-61.3,50.53-47-14.44-78.89,25.6-109.43-1.68-16.45-14.05-18.45-36.71-20.14-57C395.41,1176.94,399.85,1171.63,401.43,1165.53ZM674,903.77c-32.66-36.31,9-85.51-85.12-66.45,15.65-32.82,62-62.58,84.13-17.45,4.43,9,13.37,14.51,21.82,18.83,11.42,5.83,20,26.77,13.28,37.78C703,884.84,701,894.86,693,901.75,686.72,907.14,683.79,913.66,674,903.77Zm86.31-404.16c-13-8.6-22.91-20.51-35.39-29.27-34.23-22.46-77.1-22.55-116.35-26,.48-1.11.7-2.45,1.47-3.29,4.48-4.87,1.73-12.28,6.63-17.47,2-2.09,3.39-2.69,5.38-2.45,20.63,2.56,41.54,3.87,61.76,8.29,79.11,14.73,65.94,72.23,148.77,89.12C807.06,518,782.6,514.35,760.32,499.61Zm-45-90.07C764.18,427,779.6,476.74,819.94,506c-99.08-44.11-38.13-77.91-196.7-93.54-5.06-.85,0-7.66.63-11.38,2-12.64,14.44-7.52,19.64-7C668.15,393.35,692.23,401.18,715.33,409.54ZM835.48,234.89c-63-11.68-70.63,6.35-119.08,39.62-6.34,4.05-3.95-5.73-1.17-8.51,13.28-16.68-4.75-19.61,21-32.57,67.53-54.38,86.58-.21,173.57-8.37C882.71,231.93,859.5,237,835.48,234.89Zm-121.17-20c72.1-72.52,106.17-15.8,186.87,1.52-20.88,2.05-39.84-2.9-59-6.28-18.61-3.29-35.81-14-55.57-11.11-23.15,4.81-46,16.92-63.11,32.91-11,10.32-12.81-6.68-20.22-5.45C707,222.58,710.38,218.45,714.31,214.87Zm-55,23.5c14.53-5.17,30.12-7.16,44.58.64,24.53,12.83-17.69,38.07-14,65.58.11,7.62,1.11,15.24,2,22.83,6.5,39.09-29.24,72.45-65.5,49.22-44-25.65-34.37-71.31-7.91-104C629,257.68,641.74,244.6,659.27,238.37ZM528.83,236c9.36-22.12,21.38-41.16,43.93-52,31.53-11.76,59.42,15.6,62.46,45.72,2.14,16.12-13,21.18-19.8,31.27-15.12,22.44-30.14,44.54-28.53,73.38.38,6.83,0,6.89-6.54,4.56C537.4,323.56,506.35,280.7,528.83,236ZM387.66,140.67c14.75.9,29.59.46,44.33,1.49,31.41,4.54,67.07,57,86.52,81.27,5.55,7.49,1.65,14-1.68,20.54-1.37,2.68-2-.57-2.43-1.13-71-88-63-78.69-169.25-106.34C360.81,138.08,374.21,139.84,387.66,140.67Zm55.4,61.56c-28.23-30.71-70.31-30.37-101.4-57.8,45.19,15,94.25,12.45,125.09,53.24,15.64,18.56,31.62,36.87,46.63,55.94,4.35,5.53,1,13.56,1.42,20.42-3.12-.51-7.84.1-9.13-1.71C487.44,246.57,465.55,224.09,443.06,202.23ZM305.41,388.36c26.41-29.59,72.12-78,114.37-58.38,16.37,8.25,33.59,14.84,49.74,23.47,5.5,2.94,8.87,9.87,13.36,17.18C419,330.56,360.07,337.79,305.41,388.36Zm176.31,7.73C437,365.88,378.61,361.68,329.43,383.42c.48-5.83,5.8-5.78,9.45-7.64,35-22.12,60.1-31.87,100.24-13.73C456.44,368.8,474,374.9,491.58,381c4.44,1.54,3.23,4.08,3.72,7.62C497.53,404.47,491.28,402.43,481.72,396.09Zm4-38.73c-25.07-22.13-7.23-63,19.42-73.41,14-3.87,11.12,10.55,15.42,16.47,11.86,16.36,24.85,31.11,42.94,40.58,8.7,4.54,19,6.94,25.18,14.92,6.64,8.58-1.09,15.28-5.69,21.43-9.57,13.19-22.61,24.32-46.39,26-7.78,1.59-12.72-10.16-19.33-19.15C508.85,372.77,496,366.6,485.72,357.36Zm53,53.61c15.4.58,24.72-2.81,37.3-11.68,3,13.22-.61,31-15.55,35.11C549.7,440.71,523.59,413.79,538.73,411Zm-33.57,15.46c-2.51-14.56-1.22-28.54-2.34-44.22,9.36,8.14,13.75,18.46,22.76,25.37,4.53,4,2.1,13.62,4.84,19.09,21.93,41.1,67.45,5,52.16-32-1.46-3.82,8.08-11,10.72-17.39,5.25-12.72,8.36-6.8,16.36-1.44,14.23,9.55,4.62,19.64,2.46,28.05C590.43,496.21,519.21,574.45,505.16,426.43Zm-53,255.49c5-28.89,10-57.58,22.2-84.49,10-27.75,28.52-51.3,40-78.17,7.38-21.35,18,9.51,40.47-3.11C510.45,586.91,487.6,668.78,487.09,752c.87,12.22-15.64-5.36-40.66,6.5C449.45,733,447.66,707.42,452.13,681.92Zm-38.7,125.23c3.31-28.59,39.8-49.67,67.11-41.14,37.79,17.26,78.61-28.56,103.09,15.43,7.68,15.23,3.31,31.8-3.32,47.65-5.76,13.6-13.7,14.12-26.1,10.33-16.08-5.19-27.46,19.58-29.75,8.77-6-15-19.39-20.06-33.91-21-15.17-1-28.18-7.34-41.61-13.07-5.94-2.55-12.09-4.08-14.05-3.74-8.9,1-13.45-.59-17.48,2.44-1,.74-2.68.5-4.05.72C413.39,811.42,413.22,809.26,413.43,807.15Zm-13.49,28.64c30.74-34.14,58.63,3.35,94.14,3.15C511.23,840,523.37,860,516.28,876c-1.4,3.15-1.73,6.84-2.21,10.33-1.6,11.73-12.47,7-18.6,10.63-6.77,4-14.09,7.53-17.78,16.62-3.63-8.23-5.32-16.3-9.94-23.63-15-21.52-55.4-24.22-71.72-2.67-12.63,16.07-31.15,16.68-48.18,21.8-9.79,4.82-19.89,15.93-18.18-1.59-3.18-27.18,2.2-56.72,36.24-55.22C380.11,852.15,391.08,845.23,399.94,835.79ZM209.69,820.48c-62.52-17.66-93.47-78-120.07-132.15-5.48-13,9-8.3,11.6-8.52,16.26-2.14,33.14,2,49.27-1-.66-3.24-.38-7.17-2.14-9.63-18.19-25.35-22.78-54.4-25.77-84.58-4.83-50-6.5-104.2-37.94-145.55,74.91,6.11,150.68,30.34,207.73,80.3,8.12,7.3,11.4.77,15.35-4.3,14.2-18.21,27-37.24,34.25-59.82,78.1,77.89,78.22,203.6,39.35,300.92-16.36,42.62-12.34,16-45.1,26.52-8.7,2.8-10.72-5.43-14.83-9.3-4.84-4.55-8.41-10.62-11.86-16.43-5.79-9.75,5.33-15.6,6.07-23.72,1.74-19.07,21.32-22.75,30-35.83,18.34-27.73,33.55-58.65,35.32-92.16-3.94-8.4-10.11,3.58-9.73,7.73-6.46,31.93-17.39,68.24-42.74,90-2.89,1.95-3.74,1.42-3.09-.47,15.43-55.44,24.52-113.79,21.72-171.42,0-2.28-1.65-2.38-3.11-2.05-3.37.76-5.54,3.68-4.78,6.48,3.48,25.53.6,47.8-4.71,74.19-9.28-22.45-11.23-42.25-13.55-64.82-1.28-2.6-6.45-2.62-6,1.46-.27,20.37-.89,41.3,9.81,59.27,17,22.57-10.89,109.4-22.28,134.75-.2.49-2.06,3-3.28.38-11.4-24.19-24-47.94-33.4-72.9-3.15-8.42,1.83-20,3.48-30.06,3.73-27.68.59-56.3-6.07-83.28-1-3.74-3.06-7.27-6.13-6.7-4.19.78-.48,4.05-.21,6.32,5,33.7,9.3,67,.95,100.7-10-30.27-31.22-55.31-42.61-84,1.05-23-2.55-45.08-12.28-66-1.41-3-6.13-7.74-6.28-7.63-7.66,5.77.23,10.83,1.7,15.64,5,16.3,9,32.54,8.57,49.9-17.24-18.88-39.39-56.95-62.07-65.35.53,12.45,15.44,22,22.65,31.34,21,24.29,42.52,50.35,55.32,79.46-28.86-7-58.88-32.13-76-56.06-1.24-1.49-2.87-4.47-5.44-2.56-1.94,1.44-2.58,3.16-.69,6.41,20.34,32.22,52.93,53.18,88,65.67,7.86,3.18,9.61,13.8,13.23,21.7,8,20,20.78,38.56,26.63,59.09-34.26-10.47-62.47-33-85.23-60-2-2.07-3.86-5.55-7.12-3.43-9.61,6.84,52.08,58.8,62.15,60.84,45.92,21.37,30.53,1.5,53.08,48.78,1.41,2.46,4.79,4.68,2.69,7.46-.78,1-5-1-7.62-.77-18.18,1.89-34.64-6.39-52.14-8.75-16.12-2.18-24.91-13.48-32-28.54-5.8-12.36-15.18-24.44-29.83-29.59-1.59-.55-2.66-2.19-3.86.27-1,2,.06,3.08,1.47,4.46,13,12.76,25.53,24.28,32.51,42-18.41-4.52-34.23-14.76-50.86-23.29-2.46-1.38-3.61-.41-4.33,1.25-5.69,16,78.72,41.68,93.07,43.29,2.56.46,4.87,2.27,7.3,3.45-26.35,13.29-57.72,12.85-84.56.1-2-1-4.74-2.59-6.06-.49s.35,4.11,2.86,5.78c22,14.62,46.08,14.06,70.6,9.85,10.68-1.84,19.9-6.09,29-12.77,4.91-3.58,15.6.76,23.69,1.48,3.85.35,7.75,1,11.58.78,15.35-1,12.89,17.4,23.55,22.41-19.77.16-40.53-7-57.63,6.67-11.37,8.39-17.32,21.72-28.18,30.1C225.31,829.55,217,822.86,209.69,820.48Zm-19,59.67c-.4-13.6,11-18.42,21.75-23.43,31.39-12.85,39.59-64.51,77.63-61.07,21.62,4.11,41.36-3.22,61.94-4.91,15.25-1.26,43.93,16.58,44.28,31.82.17,7-9.84,12.6-17.56,16.44-12.27,6.1-26.95,1-39,9.64-22.18,13.89-19.53,37.57-18.84,60.86-23.46-26.14-73.82-26.71-89.48,6.79-4.24,9.49-8.59-.43-12,2.36C207.08,897.85,184.92,915,190.72,880.15Zm-17.49,230.69c-15.46-3.06-32.64-25.41-34.49-41.22-1.17-9.95-6.44-19-12-27.68-9.73-15.17-24.1-28.45-21.67-49,1-8.6,7.64-14.88,9.84-22.9,8.71-24,2.62-51.71,32.86-58.52,19.07-8.66,82.85,3.17,77.51,31.18-2,10.79,1.52,21.76,3.56,32.59,3.3,17.47-5.58,32.65-10.81,48.22-6.57,21.18,10.26,47.83,31.77,52.49-14.53,5.88-21.49,16.7-25.27,30.54-1.38,5-8,3.18-11.68,3.91A102.16,102.16,0,0,1,173.23,1110.84Zm-14.07,82.92c-24.79-37,22.86-71.26,58.27-73.34,8.67-1,8.19,6.38,10.6,11.58,8.18,17.7,24.25,27.17,40.29,36,15.05,8.26,26.06,20,34.54,34.4,14.42,21.61,52.85,30.34,72.81,10.83-20.05,52.63-30.85,82.91-93,63.35-19.09-.24-38.28,3.57-57.22-.21-10.2-2-20.86-6.6-25.5-15.87C188.19,1237,176.2,1214,159.16,1193.76Zm304.55,165.92c-6,54.51-58.29,125.25-102,157-4.15-21.71-6.75-43.52-18.37-63.25-9.87-17-16.2-1.12-21.67,2.48-36.46,22.23-77.76,34.55-118.5,46-37.09,9.66-74.05,22.38-112.58,25.08-3-.18-4.61,0-2.06-3.64,19.19-28.54,35.42-63.4,30-98.47-1.15-6-9.89-1.86-14.22-.84-19.28,5.18-37.87,1.86-57.06-1.34,33.61-39.38,53.08-87.67,94.28-120.36C156,1290,171.12,1278.79,186.65,1268c2.89-2,4.53-2,6.8.72,29.08,34.91,76,6.45,112.28,23.61-17.65,6.34-36.23,12.89-54.61,20-6.78,2.61-16.76-1-24.58-3.73-7.3-2.57-14.65-2-21.79-2.51-6.75-2.39-59.48,8.91-55.26,17.82,2.1,3.78,8.22,2.14,9.81.78,14-11.29,53.59-14.66,69.94-6.83,1.42.83,2.15,2.24,0,3.09-38.89,16.54-77.5,33.87-109.54,62.1-1.73,1.38-4.07,3.61-2.22,5.16,8.26,6.76,55.25-38,65.36-34.16-7.85,12.84-20.38,23.06-32.12,32.57-5.61,3.2-2,9.31,3.49,5.09,17.6-9.87,30.09-24.37,40-41.78,5.74-10.12,18-10.37,27.44-14.52,35.64-15.16,67.83-29.29,106.09-39.4-14.64,16.37-27.43,30.77-40.34,45.06-6.71,7.43-16.31,3.31-24.44,5.54-11.31,3.47-64.07,15.58-62,29.09,2.06,3.82,4,.13,5.5-.64,20.7-9.07,43.19-21.14,65.84-21.11-14,17.85-32.82,32.41-48.52,49.08-14.1,15.27-19.7,19.31-39.92,23.88-9.56,3.41-53,16-48.11,29,2.91,3.34,4.28-.47,6.28-1.86,16.21-10.3,33.16-19.28,52.77-20.37-16.17,14.53-32.54,28.83-48.94,43.09-1.56,1.35-.65,2.39.39,3.27,10.86,5.6,45.81-31.67,54.22-40.53,20.27-20.45,42.2-37.57,61-60.12,1.53,29.39-10.19,53-22.22,76.62-.64,1.26-2.48,4.32.72,5.48,2.29.82,3.71-.09,5.33-2.53,13.45-20.76,25.92-44.63,23.76-70.09-2.65-17.51,10.07-25,20.76-34.39,7.43-6.52,13.62-14.44,20.37-21.73,6.34-8,.53,26-.39,28.63-3.81,15.58-6.09,31.55-8.79,47.39-.47,2.77-1.3,7,2.31,7.82,3.81.89,4.66-4.07,5.21-6.16,7.48-29.5,14.12-59.59,12.6-90.24,6.89-11.67,18.44-22.06,27-33.34,5.7,20.88,16.31,20.65,5.15,41.77-8.5,23.38-12.74,47-6.5,71.7.88,3.48-.1,9.33,4.89,8.28,6.25-1.32,3.81-8.09,3.12-12-3.33-23.49-3.24-49.64,9.08-70.15,12.73,41.79,22.55,86.09,19.09,130,0,1.55-.46,3.85,2.11,3.57,1.38-.15,3.6-1.31,3.79-2.33,6.82-31.22.39-60.06-4-91.71,9.93,12,17.18,23.73,20.09,37.81.58,2.82,1,5.82,2.38,8.29,2.39,3.88,8.87,3.18,7.72-2.47-2.57-17.11-6.73-34.47-21.37-44.68-16.64-11.6-14.67-30.7-22.46-45.7-5-9.65-7.54-20.64-12.94-30-4.2-7.29-3.09-12.26,1.61-18.07,8.36-10.34,13.72-22.31,19.33-38.64,0,16.12.77,28.49-.17,40.73-1.67,21.8,22,54.93,43.52,59.89,11.88,2.75,23.65,5.94,35.48,8.88C469.06,1344.72,464.05,1355,463.71,1359.68Zm142.16-68c-8.82,15.77-24.82,12.57-36.93,19.07-20.71,11.61-31.78,34.66-56,40.47-16.23,4.47-26.36-5.61-38.47-12.72-12.73-7.47-27.81-8.65-42-12.21-46.78-10.56-47-65.44-42.49-104.79,13.41,34.77,47.4,48.76,80.7,33.2,15.66-5.9,31.93-6.23,49-2.26,33.82,9.32,72-10.39,76.38-51.65,3.74,12.56,13.87,20.9,17.52,33.48C619.61,1255,616.38,1272.82,605.87,1291.64Zm165.86-182.18c11.76,25.5-20.3,29.26-20.61,62.76-4.45,33-9.72,45.6-48.44,48.89-31.55,8.58-35.75,27.56-72.11,5.35-14.66-9-22.38-22.45-28.83-37.3-.84-2-.51-2.1,11.63-2.1,28.77,2.41,49-12.18,60.13-38.65,9.85-25.9,46.46-32.7,39.65-65.2-3.46-19.36,8.53-10.71,15.74-8C746.76,1081.94,762.73,1091.54,771.73,1109.46Zm60.17-74.06c-6.55,43.56-62.75,36.51-94.64,31.17-8.78-.76-17.8-4.33-25.64-8.59-5.41-2.94-3.37-10.7-4.64-16.33-3-13.48,4.61-23.51,10.37-34.23,12.67-23.2,1.1-56.72-26.79-64.47-2.58-.81-1.49-2.74-1.42-4.06a42.37,42.37,0,0,0-3.77-20.7c15.16-5.55,24-16.93,29.56-30.94,9-27.14,44.68-45.53,63.53-17,7.26,9.43,11.37,21.13,21.21,28.7C883.83,959.45,835,954.81,831.9,1035.4Z"/></g></g><g id="Red_Japanese_Frames" data-name="Red Japanese Frames"><path class="cls-6" d="M0,20V1580a20,20,0,0,0,20,20H956a20,20,0,0,0,20-20V20A20,20,0,0,0,956,0H20A20,20,0,0,0,0,20ZM924,1548H52V52H924Z"/><path class="cls-7" d="M952.1,15.41,928.69,38.83A4,4,0,0,1,925.86,40H50.14a4,4,0,0,1-2.83-1.17L23.9,15.41A2,2,0,0,1,25.31,12H950.69A2,2,0,0,1,952.1,15.41ZM40,1549.86V50.14a4,4,0,0,0-1.17-2.83L15.41,23.9A2,2,0,0,0,12,25.31V1574.69a2,2,0,0,0,3.41,1.41l23.42-23.41A4,4,0,0,0,40,1549.86ZM936,50.14V1549.86a4,4,0,0,0,1.17,2.83l23.42,23.41a2,2,0,0,0,3.41-1.41V25.31a2,2,0,0,0-3.41-1.41L937.17,47.31A4,4,0,0,0,936,50.14ZM925.86,1560H50.14a4,4,0,0,0-2.83,1.17l-20,20a4,4,0,0,0,2.83,6.83H950.69a2,2,0,0,0,1.41-3.41l-23.41-23.42A4,4,0,0,0,925.86,1560Z"/></g></svg>