<svg id="Card" xmlns="http://www.w3.org/2000/svg" viewBox="0 0 1024 1680"><defs><style>.cls-1{fill:#f2f0ed;}.cls-2{fill:#8c1707;}.cls-3{fill:#16592d;}.cls-4{fill:#d82e21;}.cls-5{fill:#f79d31;}</style></defs><rect class="cls-1" x="14.5" y="14.5" width="995" height="1651"/><polygon class="cls-2" points="966 1619.17 966 60.83 1018 8.83 1018 1671.17 966 1619.17"/><polygon class="cls-2" points="60.83 58 8.83 6 1015.17 6 963.17 58 60.83 58"/><polygon class="cls-2" points="8.83 1674 60.83 1622 963.17 1622 1015.17 1674 8.83 1674"/><path class="cls-3" d="M681.57,1094.2a8.25,8.25,0,0,1-5.71-2.48,13,13,0,0,0-1.4-1.1c-3.65-2.27-1.88-5.73-1.3-6.86.09-.19.24-.47.27-.57,4.75-14.38,12.79-27.37,20-38.19,6.14-9.18,12.62-18.35,18.88-27.21,8.08-11.44,16.4-23.22,24.08-35.11s16.79-22.92,25.59-33.56c6.69-8.1,13.58-16.45,19.76-25.08a35.68,35.68,0,0,1,3.18-3.65c3.31-3.47,5.29-5.79,4.23-9.52-1-3.41-5.3-4.26-8.76-5l-.79-.16c-17.34-3.54-32.95-11.45-48-19.09l-4.08-2.06c-10.29-5.19-20.39-11.09-30.15-16.8-5.17-3-10.51-6.14-15.82-9.13-4.32-2.43-8.8-4.79-13.13-7.08-16-8.43-32.47-17.15-45.33-31.17a4.84,4.84,0,0,0-.46-.24c-.89-.46-2.54-1.32-2.6-3.13s1.61-3.09,3.08-4c5-3,10.07-6.22,14.95-9.31,6.52-4.13,13.24-8.38,20.06-12.33a123.91,123.91,0,0,1,49.17-15.86,263.1,263.1,0,0,1,28.1-1.44c9.21,0,19,.43,29,1.29,11.56,1,23.14,3.33,34.34,5.61,6,1.22,12.12,2.47,18.15,3.5a18.61,18.61,0,0,0,3,.23A25.18,25.18,0,0,0,826,784a3.44,3.44,0,0,0,.23-.47,6,6,0,0,0,.54-2.42c-5.93-11.47-5.11-23.5-4.31-35.14.15-2.31.32-4.71.42-7.07.59-13.84,2.74-27.74,4.82-41.19,1-6.22,1.95-12.63,2.77-18.92a176.32,176.32,0,0,1,5.07-22.9c1.18-4.37,2.4-8.88,3.38-13.37,2.26-10.44,5.58-20.78,8.8-30.78l0-.16c1.14-3.55,2.32-7.22,3.43-10.83a42.07,42.07,0,0,1,1.92-4.82,34.43,34.43,0,0,0,1.91-4.9c.72-2.63,2.12-4,4.18-4,1.71,0,3.67,1,7.23,3.62,15.33,11.4,22.91,27.71,28.82,42.1,2.59,6.3,5.7,12.57,8.71,18.64,4.52,9.11,9.18,18.51,12.25,28.32,6.63,21.2,13,44.16,14.83,68.33a121.89,121.89,0,0,0,2.19,14,118.08,118.08,0,0,1,2.31,15.35,95.87,95.87,0,0,0,2.52,14.77c3.06,13.66,6.53,29.14-8.48,42.2-1.42,1.24-2.81,2.56-4.15,3.85l-.12.11c-.66.63-1.32,1.26-2,1.88L921.52,842l-1.26-2.18c-.47-.8-1-1.64-1.58-2.44a19.73,19.73,0,0,1-3.34-6.57c-1.09-4.8-3.26-9.35-5.37-13.75-1.35-2.83-2.75-5.75-3.88-8.77-1.92-5.1-4.09-10.23-6.18-15.2-3.91-9.25-7.93-18.78-10.63-28.7-4.88-18-9.67-36.24-14.31-53.93-3.25-12.4-6.61-25.22-10-37.86a7.87,7.87,0,0,0-1.61-2.52,3.51,3.51,0,0,0-.71.75A60,60,0,0,0,861,682.93c.07,26.19,4.33,52.44,8.44,77.82q.7,4.35,1.4,8.68c4.3,26.88,11,48.38,21.14,67.68,1.12,2.14,2.16,5.2.72,7.58-.65,1.08-2.06,2.36-5.06,2.36a14,14,0,0,1-2-.15c-2.34-.33-4.71-.72-7-1.1h-.1c-1.8-.3-3.61-.6-5.42-.87l-22.92-3.47-.1,0c-19-2.88-38.71-5.87-58.09-8.66-6.71-1-13.51-2-20.09-3.1-18.69-3-38-6.07-57.17-6.73l-1.6-.07c-1.06,0-2.08-.1-3.07-.1-4.67,0-5.69,1.16-6.1,2.41-.83,2.53,1,3.7,5.59,6l1.89.94c11.79,6.08,24.61,9.79,37,13.38l.11,0c3.82,1.11,7.77,2.25,11.64,3.45,10.66,3.31,21.7,6.06,32.37,8.72,7.26,1.81,14.76,3.68,22.1,5.71,15.4,4.27,31,8.81,46,13.2l1.08.32q9.49,2.77,19,5.52l3.07.89-2.15,2.37-13,14.32-.51.56c-10.58,11.66-21.53,23.72-32.26,35.75-6,6.69-11.94,13.57-17.73,20.22-6.85,7.89-13.88,16-21,23.87C790.69,987.74,783.75,995,777,1002c-3,3.19-6,6.31-9,9.44-1.23,1.31-1.23,1.88-1.23,1.9l.08.1h0a6.26,6.26,0,0,0,2.68-.83c3.61-2.2,7.24-4.53,10.75-6.79l.12-.07c5.36-3.45,10.9-7,16.57-10.25,23.06-13.15,43.21-30.86,62.68-48l.1-.08c5.3-4.67,10.79-9.5,16.26-14.16,6.89-5.88,13.41-12.49,19.7-18.88,3.15-3.19,6.4-6.49,9.68-9.67,1.26-1.23,2.51-2.33,4-2.33,1.21,0,2.6.79,2.87,3a18.71,18.71,0,0,0,2.15,5.92,24.81,24.81,0,0,1,2,4.78c4.66,17.72,13.15,34.14,21.36,50,2,3.91,4.11,7.94,6.12,12,5.53,11,11.51,22,17.78,32.65l.28.47v74l-3.69-5.86c-14.57-23.16-26-44.49-35.08-65.21-.47-1.08-.92-2.19-1.37-3.3-2-5-3.92-9.74-7.35-9.74-2.19,0-5.19,1.64-8.91,4.87-6.77,5.9-14.58,10.73-22.12,15.39-2.47,1.53-5,3.11-7.51,4.71l-3.63,2.35c-7.76,5-15.78,10.2-24.11,14.59l-4.24,2.25c-12.9,6.84-26.24,13.91-40.07,19.21-3.66,1.4-7.37,3-10.95,4.48-11.3,4.79-23,9.74-35.83,10.58-5.22.34-10.24,2.08-15.09,3.77a77.86,77.86,0,0,1-12.23,3.49c-6.77,1.16-13.66,2.14-20.33,3.09-8.59,1.22-17.43,2.47-26,4.11A9.67,9.67,0,0,1,681.57,1094.2Z"/><path class="cls-3" d="M958.24,995.06c-10-18.43-19.82-37.59-30.09-58.58A184.69,184.69,0,0,1,921,918.76c-1.87-5.1-3.79-10.36-6.07-15.3-.32-.71-.65-1.57-1-2.4-.7-1.85-2.35-6.17-3.66-6.17a2,2,0,0,0-1.15.56c-6.49,5.07-12.37,11.28-18,17.29-4.29,4.54-8.72,9.23-13.46,13.49C861.17,941,844,955.41,827.38,969.37l-6.13,5.16c-4.71,4-9.7,7.69-14.53,11.29-2.24,1.66-4.45,3.31-6.65,5l-1.05.81L796.47,989l.83-1c15-18.54,30.71-36,48.23-55.25,3.56-3.92,7.22-7.86,10.75-11.67,8-8.67,16.31-17.59,24-26.72a35.92,35.92,0,0,1,4.39-4.15c3.38-2.86,6.29-5.32,6.09-9.37-.1-2.19-1.77-2.64-5.54-3.15a22.75,22.75,0,0,1-3.07-.54c-14.21-3.88-28.74-7.56-42.79-11.12-10.34-2.62-21-5.31-31.43-8.07-22.93-6-46.15-12.49-68.61-18.74l-1.33-.36c-5.73-1.6-11.32-3.33-17.79-5.33l-.26-.08c-3.26-1-6.73-2.09-10.52-3.24L702.33,828l7.2-1.72c1.53-.36,2.54-.62,3.23-.8a9.5,9.5,0,0,1,2.19-.42l1.55,0c9.21,0,18.23,1.76,27,3.47,4.83.94,9.8,1.91,14.73,2.57l7.89,1c12.59,1.65,25.61,3.36,38.36,5.48,8.37,1.39,16.79,3,24.93,4.63,8.37,1.64,17,3.33,25.57,4.74,5.31.87,10.77,1.45,16.06,2,6.43.69,13.09,1.4,19.58,2.63.9.18,1.77.43,2.6.67a13.46,13.46,0,0,0,3.28.67,2.4,2.4,0,0,0,2-.88c1.85-2,1-4.54-.42-8.48-4.93-13.32-9.56-27-14-40.19l-.8-2.38a246.27,246.27,0,0,1-11.27-52.51,57.32,57.32,0,0,0-1.38-6.93c-1.41-5.81-2.86-11.8-.8-19l2-7,1.87,7c1.54,5.8,2.92,11.47,4.25,17,2.87,11.85,5.58,23.05,9.51,33.78,9.12,24.89,17.64,47.18,29.6,67.92,1.48,2.56,3.41,5.51,5.29,5.51,1.3,0,3-1.27,5-3.67,9.15-11.15,18.81-22.17,28.15-32.83l6.65-7.6v34.65l-.5.57c-4,4.6-8.33,9.49-12.64,14.31-3.43,3.84-2.25,5.33,1.65,9.06a108.94,108.94,0,0,0,10.68,8.92l.81.6v23l-3-1.68c-5.94-3.34-13-7.3-20.23-11.25a21.88,21.88,0,0,1-3.14-2.25c-1.4-1.14-3-2.43-4.06-2.43a1.38,1.38,0,0,0-.92.38c-.91.74.25,3.64,1.11,5.76.38,1,.74,1.86,1,2.75,5.89,18.42,12.13,38.07,18,58,3.26,11.06,7,22.12,11.08,32.85l.1.26,0,.36v18.74l-3.2.81Z"/><path class="cls-3" d="M958.1,954.06c-2.13-6.47-4.26-13.06-6.32-19.43-.88-2.75-1.76-5.46-2.63-8.16-2.8-8.65-5.46-17.15-8.28-26.14-1.32-4.22-2.62-8.39-4-12.6l-1.72-5.47,4.75,3.21c6.49,4.39,13.37,8.61,21,12.91l1,.57v55.76l-3.5.56Z"/><path class="cls-4" d="M718.56,438.72l.57-1.2c.76-1.59,1.49-3.18,2.22-4.78,1.57-3.43,3.19-7,5-10.35,2.21-4,4.6-8,6.91-11.82,4.23-7,8.58-14.27,11.88-21.76,1.39-3.14,2.84-6.33,4.25-9.41l0-.12c7.29-15.95,14.83-32.43,16.17-50.38a.6.6,0,0,0-.17-.49c-.78-.83-3.25-1.38-6.28-1.38h-.55c-12.09.29-24.38.72-36.27,1.14-7,.24-14,.49-20.95.71l-.69.06a14.1,14.1,0,0,1-1.48.11A3.94,3.94,0,0,1,695,325.2c-.3-3.11,1.72-5.43,5.28-6.07L716,316.34c17.31-3.07,35.16-6.24,52.74-9.19,3.25-.55,3.68-1.41,3.72-1.51s.26-1-1.52-3.38c-4-5.38-8.06-10.91-12-16.26-9.46-13-19.22-26.4-29.82-38.67-8.55-9.88-18.35-19-27.84-27.85-4.73-4.41-9.63-9-14.34-13.6-1.52-1.5-2.51-4.87-1.47-6.81a3.25,3.25,0,0,1,2.87-2,3.91,3.91,0,0,1,2.9,1.72c.13.14.33.37.41.44,28.08,17.27,53.68,40.19,78.22,70l5,6.16c5.74,7,11.65,14.21,17.63,21.16,1.29,1.49,1.9,1.51,1.91,1.51s.76-.12,1.91-2.83c3.8-8.93,7.78-17.88,11.63-26.54,4.15-9.34,8.45-19,12.51-28.62,3.69-8.75,7.11-17.8,10.42-26.55l.06-.15c1.5-4,3-7.95,4.53-11.91l.61-1.57,1.65.33,1.49.27,2.18.39-.41,2c-.71,3.51-1.38,7-2,10.56-1.49,7.83-3,15.89-5,23.74-2.27,9.23-4.93,18.49-7.5,27.45-1.26,4.4-2.52,8.8-3.74,13.21l-1,3.47c-1.6,5.72-3.25,11.62-4.6,17.49-.08.36-.18.73-.29,1.1-.5,1.85-.72,2.87.24,4.06.52.64.83.69,1.11.69a5.82,5.82,0,0,0,1.43-.29,12.05,12.05,0,0,1,1.74-.39c6-.8,12.07-1.57,18.11-2.35l.16,0c15.83-2,32.2-4.13,48.22-6.63,10.45-1.63,21-3.74,31.2-5.79,6.29-1.26,12.74-2.56,19.11-3.73,6.16-1.13,12.74-2.27,21.33-3.69l2.33-.39v27l-1.94.06c-16.47.47-32.29,2.13-51.25,4.26-13.29,1.48-26.84,2.26-39.94,3-6.59.38-13.41.77-20.18,1.26l-2.58.18a190.45,190.45,0,0,0-19.46,2c-.47.08-1.3.31-1.53.85s-.06,1.51.93,2.93a416.77,416.77,0,0,1,46.76,86.74,8.86,8.86,0,0,1,.47,3.08c0,.37,0,.71.05,1l.52,5.18-3.86-3.5c-.24-.22-.49-.42-.75-.63a10.5,10.5,0,0,1-2.13-2.09c-23.38-33.07-43.69-59.14-63.92-82.06-3.13-3.53-5.54-5.33-7.19-5.33-2.31,0-4.61,4.09-6.76,8.51-5.29,10.87-11.4,21.52-17.32,31.82-4.91,8.55-10,17.36-14.52,26.22-7.4,14.42-17.73,26.89-27.72,38.94-2.4,2.9-4.83,5.83-7.18,8.75l-.84,1Z"/><path class="cls-4" d="M582.54,1300.85a2.25,2.25,0,0,1-2.39-1.4,9.69,9.69,0,0,1-.75-5.16c3.51-15.83,8.51-32.14,16.2-52.87,1.79-4.8,3.44-9.75,5-14.53,2.68-8,5.45-16.31,8.92-24.2a394.15,394.15,0,0,1,20.94-40.53c6.41-10.89,13.5-21.58,20.36-31.92,2.53-3.81,5-7.59,7.53-11.39.89-1.37,1.77-2.76,2.64-4.15,3-4.74,6-9.59,9.91-13.67,2.87-3,8.44-3.74,12.61-3.82,13.4-.26,26.78-2.73,39.71-5.11l4.86-.89a4,4,0,0,1,.68-.06,6.52,6.52,0,0,1,1.38.18l.47.09,2.7.33-1.13,2.48c-.06.14-.12.28-.17.42a6.65,6.65,0,0,1-.84,1.66l-18.86,25.24-15.91,21.29c-6.41,8.58-12,16.14-17.14,23.11q-4.3,5.83-8.62,11.65c-8.42,11.37-17.12,23.1-25.39,34.82-.47.68-1,1.36-1.48,2-2.64,3.55-5.13,6.91-5.07,11l2.2-.9c3.16-1.27,6.43-2.58,8.7-4.63l7.09-6.42c17.69-16,36-32.48,52.93-49.66,27.49-27.83,52.67-58.12,74.11-84.33,6.1-7.46,17.71-9.59,28.25-10.69h.16c2.49,0,3.68,3,6.14,9.84.76,2.12,1.55,4.31,2.28,6,9.6,21.67,22.79,50,39.71,77,5.47,8.7,10.88,17.5,16.11,26l.11.17c4.7,7.64,9.56,15.54,14.4,23.27a3.91,3.91,0,0,0,1,.52c2.12-2,3.36-3.41,2.71-5.45-3-9.43-6-19-8.84-28.35-5.72-18.63-11.62-37.87-18.5-56.46-6-16.33-13.3-32.44-20.32-48q-3.28-7.27-6.52-14.55a2.29,2.29,0,0,0-.2-.31,3.37,3.37,0,0,1-.72-2.82,4,4,0,0,1,2.29-2.42,419.42,419.42,0,0,0,63.7-40.4c1.66-1.26,3.36-2.38,5-3.47l2.23-1.49,2-1.34,5,10.91c5.27,11.45,10.69,23.24,16.13,34.76l.22.44c.48,1,1.12,2.24.35,3.5a3,3,0,0,1-2.72,1.25l-.62,0c-2.6-.2-5.2-.35-7.8-.5l-.19,0a193.14,193.14,0,0,1-23.64-2.37,17.63,17.63,0,0,0-3.29-.33,10.71,10.71,0,0,0-7.35,2.63c0,.54.27,2.27,2.15,6.77,8.68,20.63,12.7,43,15.78,62.3,1.1,6.9,2.41,13.88,3.68,20.64,2.88,15.43,5.85,31.3,6.67,47.34,1.21,23.78,2.47,48.36-2.09,73a6.34,6.34,0,0,0,.51,2.46c.19.57.38,1.15.52,1.76l.78,3.44-3.35-1.1c-20.07-6.58-33.33-21.74-46.15-36.39l-.29-.33c-1.18-1.35-2.36-2.7-3.54-4-23.42-26.5-44.17-58.65-63.44-98.3a14.25,14.25,0,0,1-1-3.79c-.52-3-.84-3.15-1.33-3.15h-.24c-2.88.3-4.91,3.67-6.87,6.93l-.75,1.23c-9.77,15.84-22.21,31.19-38,46.94l-.38.38c-13.38,13.31-27.21,27.06-42.76,38.33-24.92,18-47.54,33.5-69.16,47.26-12.78,8.14-26.29,15.5-39.36,22.63l-.16.09c-5.36,2.92-10.9,5.94-16.3,9A7.75,7.75,0,0,1,582.54,1300.85Z"/><path class="cls-4" d="M653.83,547.67a6.55,6.55,0,0,1-4-1.56l-.52-.61,0-1v-.09c1.05-7.37,2.21-14.86,3.34-22.1,2.12-13.68,4.31-27.8,5.85-41.74,2.25-20.39,9.54-39.37,16.6-57.73l.27-.72c2.76-7.17,6.59-14,10.29-20.56,2.09-3.72,4.24-7.55,6.16-11.37l.15-.3c3-6,6.18-12.26,8-18.66a.81.81,0,0,0-.22-.78,3.91,3.91,0,0,0-3-1.27,4.69,4.69,0,0,0-1,.11,72.65,72.65,0,0,1-15,1.46,185.12,185.12,0,0,1-22.84-1.89c-4.29-.54-8.7-1.09-13-1.45-9.34-.77-18.71-2.46-27.77-4.09-4.5-.81-9.12-1.64-13.67-2.35s-9-1.36-13.39-2l-.16,0c-19.66-2.86-40-5.81-59.47-12.76l-3.27-1.16,2.65-2.24C542,332.45,556,324.68,569.45,317.17c3.55-2,7.2-4,10.81-6.08,15.48-8.91,31.64-15.24,48.23-21.47,11.69-4.4,24-7.53,36-10.55,4.76-1.2,9.65-2.44,14.48-3.76a48.29,48.29,0,0,1,5.07-1,24.72,24.72,0,0,0,7.16-1.86c6.73-3.39,7.21-5.39,7.19-5.93,0-1.8-4.81-3.91-7.37-5a23.3,23.3,0,0,1-3.91-2,417.79,417.79,0,0,1-43.92-35.84c-16.86-16-33-31.95-44.69-51.5a286.39,286.39,0,0,1-22.84-46.63c-.46-1.21-.82-2.61,0-3.78A2.77,2.77,0,0,1,578,120.6a7.36,7.36,0,0,1,2,.36c9.61,2.78,19.6,4.69,29.25,6.54,10.12,1.94,20.59,3.94,30.77,6.95,25.6,7.58,47.18,16,66,25.69,18.37,9.5,37.56,20.14,52.58,36.46,5.7,6.19,12.35,11.77,18.78,17.18l2.84,2.39a2.86,2.86,0,0,0,1.68.86c1.09,0,2.29-2.2,3-3.52l.12-.22a321.5,321.5,0,0,1,65.43-82.46c1.83-1.67,3.79-3.15,5.69-4.58a59.87,59.87,0,0,0,6-4.92c4.11-4,7.16-5.92,9.6-5.92a4.14,4.14,0,0,1,3.08,1.3c2.15,2.25,1.93,6.73,1.75,10.34a19.6,19.6,0,0,0,0,2.47c2.61,21.6,2.89,44.62.89,74.64-1.59,23.69-5.79,47.19-9.85,69.91-.9,5-1.8,10.06-2.67,15.1-.6,3.5-2.95,4-4.3,4a11.17,11.17,0,0,1-1.49-.13,7.6,7.6,0,0,0-1-.09,1.1,1.1,0,0,0-.26,0c-5.52,3.11-11.49,3.41-17.26,3.7-4.41.22-9,.45-13,2a5.39,5.39,0,0,1-1.89.38,3.08,3.08,0,0,1-2.54-1.19,4.16,4.16,0,0,1-.36-3.83q1.44-5.08,2.9-10.17c4.52-15.79,9.19-32.1,13.09-48.28a217.92,217.92,0,0,0,5.94-37.41,50,50,0,0,1,1.75-9.21c1.39-5.39,2.59-10,.68-15a9.33,9.33,0,0,0-.95-1.73,5.27,5.27,0,0,0-1.37,1.44c-1.89,4.1-3.8,8.2-5.7,12.29l-.07.15c-7.93,17.06-16.13,34.7-23.79,52.23-4.49,10.3-8.62,21-12.62,31.28-1.89,4.89-3.85,9.94-5.84,14.94a17.32,17.32,0,0,1-1.21,2.32c-.19.32-.37.63-.54.95l-1,1.78-1.77-1a11.4,11.4,0,0,0-1.05-.49,7,7,0,0,1-3.13-2.13c-21.38-29.08-41.31-50.92-62.74-68.7-27.32-22.67-50.33-36.3-74.59-44.18a3.73,3.73,0,0,0-1-.12,5.25,5.25,0,0,0-2.92.76c-.73,1,1,2.58,2.12,3.42,21.76,16.44,38.2,31.09,51.73,46.08,5.1,5.64,10.37,11.28,15.47,16.74,16.41,17.57,33.39,35.74,46.91,56.46l.37.54c.81,1.2,1.6,2.37,1,3.78s-2.53,1.94-3.92,2.22c-7.26,1.44-14.63,3.06-21.75,4.63-11.36,2.51-23.12,5.11-34.81,7-8.83,1.44-17.74,3.3-26.35,5.09-17,3.55-34.66,7.23-52.6,7.89-7,.26-14.18,1.78-21.11,3.24-2.73.58-5.82,1.23-8.79,1.78l-.62.1.15.23c.68,1.06,1,1.56,1.41,1.56a1.82,1.82,0,0,0,.58-.11,21.81,21.81,0,0,1,6.93-1,56.51,56.51,0,0,1,7.77.72,53.3,53.3,0,0,0,7.17.68h.49c13.1-.28,22.94-1.17,31.88-2.89a10.61,10.61,0,0,1,2.08-.2,16,16,0,0,1,4.66.84,11.23,11.23,0,0,0,3.24.65c19.12-.2,38.39-.28,57-.35h1.2q16.38-.07,32.77-.16h.21c3.06,0,6.4.34,8,2.86,1.88,2.91.93,7.39-3.75,17.73-2.33,5.15-4.64,10.4-6.87,15.48-7.14,16.23-14.52,33-23.58,48.5-2.33,4-4.63,8-6.93,12-10,17.43-20.26,35.4-33.43,51.25-.3.36-.67.76-1.06,1.2-3.19,3.49-3.32,4.53-2.43,5.43a2.2,2.2,0,0,0,1.4.8c1.1,0,2.67-1.88,3.72-3.12.42-.51.82-1,1.2-1.39,3.84-4.07,7.91-8.26,11.49-12,11.26-11.64,22.9-23.67,33-36.53,24-30.72,42.61-64.7,57.62-93.88a16,16,0,0,0,1-3.1c.68-2.67,1.61-6.34,5-6.34a5.29,5.29,0,0,1,.67,0c3.18.5,5.46,3.71,7.65,6.81.58.81,1.13,1.59,1.67,2.27q4.2,5.31,8.43,10.6c9.43,11.86,19.19,24.12,28.43,36.46,6,8,11.86,16.43,17.51,24.53l.08.11c4.32,6.19,8.78,12.6,13.29,18.79A173.59,173.59,0,0,0,888,447.51c.09.1.22.24.36.41.77.91,1.1,1.11,1.25,1.11a1.2,1.2,0,0,0,.54-.36,3.54,3.54,0,0,0,.8-4.18c-3.79-8.66-7.47-17.52-11-26.09-12.09-29.11-24.58-59.22-43.14-85.65a26.77,26.77,0,0,0-3.25-3.59c-.63-.63-1.25-1.24-1.85-1.87l-1.94-2.07,2.6-1.13c6.83-3,13.63-3.37,19.38-3.37,2.23,0,4.49.07,6.68.14s4.46.14,6.66.14a62.16,62.16,0,0,0,8.37-.49,4.3,4.3,0,0,1,.62,0c4.76,0,7.24,6.77,9.63,13.33l0,.12c.34.92.66,1.79,1,2.58,7,18,12.17,36.92,17.11,55.18,1.89,6.94,3.82,14.07,5.82,21,8.31,28.84,12,59,11.26,92.26a15.52,15.52,0,0,1-.46,3c-.08.36-.16.71-.22,1.06l-.56,3-2.52-1.67c-.26-.18-.53-.34-.8-.51a14.53,14.53,0,0,1-2.07-1.45A503.38,503.38,0,0,1,871,467.54c-8.67-9.51-16.2-20-23.49-30.13-6.48-9-13.17-18.31-20.55-26.76l-.52-.61c-2.8-3.22-5.44-6.25-8.11-6.25-2.47,0-5.53,2.54-9.09,7.56A417.35,417.35,0,0,1,754.84,473c-28.55,26.87-56.37,48-85.06,64.62a25.33,25.33,0,0,0-4.67,3.89c-2.84,2.77-6.05,5.92-11.15,6.12h-.13Z"/><path class="cls-4" d="M876.42,1180.15c-3.17-5.24-6.41-10.44-9.54-15.48-7-11.31-14.28-23-20.7-34.83-6.88-12.7-13.3-25.9-19.51-38.66-3.41-7-6.92-14.24-10.52-21.38a3.44,3.44,0,0,1-.31-3.19,2.73,2.73,0,0,1,2.2-1.33c4.78-4.23,8.87-6.29,12.49-6.29,7.28,0,10.81,7.88,14.07,16.65,2.25,6.08,4.93,12.14,7.52,18,2.87,6.48,5.82,13.14,8.24,19.92,5.61,15.68,10.66,31.82,15.55,47.43q1.43,4.56,2.85,9.09a8.93,8.93,0,0,0,.84,1.66c1.14,1.93,2.86,4.85.14,8.55l-1.77,2.4Z"/><path class="cls-4" d="M754.91,930.88c-2.19-9.11-4.38-18.19-6.73-27.91L747,898.28l4.12,2.51c10.17,6.19,16.37,14.54,17,22.89.49,6.47-2.23,12.4-7.88,17.15l-2.48,2.08Z"/><path class="cls-4" d="M654.82,1204.09l.82-1.06,7.05-9.07c4.89-6.3,10.45-13.43,15.7-20.3s10.38-13.6,15.56-20.41l.29-.37c7.62-10,15.5-20.39,23.37-30.57,2.19-2.83,4.34-5.76,6.42-8.59,6.13-8.36,12.48-17,20.29-23.87,4.29-3.78,10.49-4.87,17.67-6.14,3.4-.61,6.92-1.23,10.57-2.19l6.2-1.64L769,1091.24c-35.77,41.85-69.55,81.37-110.56,114.57l-1,.85Z"/><path class="cls-4" d="M644.73,1058.54a57.47,57.47,0,0,1-10.48-.93A77,77,0,0,0,620,1056.5c-3.37,0-6.84.13-10.19.25s-6.92.24-10.4.24c-2.68,0-5.07-.07-7.32-.23-27.82-1.89-54.86-8-75.3-13a138.51,138.51,0,0,1-15.86-5.31c-7.53-2.87-15.3-5.83-23.46-6.53a4.78,4.78,0,0,1-2.36-1.05,5.53,5.53,0,0,0-.46-.32l-2.33-1.34,2-1.85c.8-.75,1.6-1.59,2.38-2.4a31.41,31.41,0,0,1,6.05-5.31C505.27,1005.82,530,995.79,554,986.1l1.19-.48a423.14,423.14,0,0,1,56.08-18.11c11.47-2.87,23.37-4.53,34.89-6.13l.12,0c5.09-.71,10.36-1.45,15.5-2.28,3.68-.59,7.42-1.24,11-1.87,8.37-1.46,17-3,25.62-3.9a80.26,80.26,0,0,1,8.51-.4c2.82,0,5.76.1,8.35.19s5.13.18,7.62.19h1.19c2.65,0,3.38-.27,3.52-.49,0,0,.41-.77-.89-3.73-7.6-17.27-12.92-36.4-17.25-62.05a8.33,8.33,0,0,1-.05-2c0-.24,0-.45,0-.66l0-2.58,2.49.68.8.21c.67.17,1.31.34,1.93.54,4.64,1.52,8.72,4,12.66,6.46s8.07,5,12.67,6.4c5,1.55,5.35,7,5.62,11.71a24.53,24.53,0,0,0,.93,6.62A163,163,0,0,1,754.31,944c.76,4.67-2.58,7.5-5.27,9.77A15.55,15.55,0,0,0,745.1,958a176.06,176.06,0,0,1-12.28,19.47l-2.79,4a11.54,11.54,0,0,1-9.95,5.6c-15.8.37-31.65,3.09-47,5.72-7.5,1.28-15.23,2.61-22.89,3.65-17.85,2.43-35.07,6.57-51.72,10.57-9.33,2.24-18.64,5.41-27.64,8.47l-6.16,2.09a8.38,8.38,0,0,0-1,1.55,2.83,2.83,0,0,1,.28.2c1,.7,2.14,1.55,2.83,1.55,6.42.06,12.94.17,19.25.27,9,.16,18.28.31,27.39.31,11.74,0,21.48-.25,30.65-.81,6.19-.37,12.5-1,18.59-1.58,10.13-1,20.52-2,31-2,2.44,0,4.86.06,7.18.17l3.43.17-1.84,2.9c-1.67,2.63-3.45,5.16-5.17,7.6-3.78,5.37-7.35,10.45-9.44,16-3.92,10.49-12.45,11.3-19.3,12-1.6.16-3.09.3-4.49.54A111.69,111.69,0,0,1,644.73,1058.54Z"/><path class="cls-4" d="M634,1017a111,111,0,0,1-12.87-.7,48,48,0,0,0-5.61-.3c-2.22,0-4.47.11-6.66.22s-4.54.23-6.8.23a48.05,48.05,0,0,1-7.1-.48l-1.27-.19v-3.56l1.27-.21c8-1.27,15.93-3.25,23.63-5.18,10-2.48,20.2-5,30.7-6.16,12.41-1.32,25-3.83,37.09-6.26,5.67-1.14,11.54-2.31,17.38-3.36a15.26,15.26,0,0,1,2.72-.21l1.36,0,1.26,0a6.64,6.64,0,0,0,4.53-1.25,3.56,3.56,0,0,1,2.29-.72,12.26,12.26,0,0,1,2.45.35,12.74,12.74,0,0,0,1.42.26l3.07.29-1.52,2.69c-.23.39-.46.79-.7,1.18a17.7,17.7,0,0,0-1.24,2.27c-7.17,16.83-22,17.18-35.05,17.48-7.72.18-15.62,1-23.25,1.75C652.16,1016.1,643,1017,634,1017Z"/><path class="cls-3" d="M334.25,559.37l.75-1.08c2.78-4,5.36-7.62,7.77-11,4.94-6.95,9.21-12.95,13.11-19.13,13.9-22,23.95-42.64,30.73-62.94,2.23-6.66,4.39-14.18,6.43-22.34,1-4,.84-7-.49-8.74s-3.57-2-5.28-2a19.7,19.7,0,0,0-6.36,1.19A32.21,32.21,0,0,1,370.1,435c-2.51,0-5-.19-7.36-.38s-4.66-.36-7-.36c-.92,0-1.77,0-2.61.09-10.27.73-20.65,2.05-30.68,3.32-9.4,1.19-19.08,2.42-28.66,3.17l-.36,0a7.8,7.8,0,0,1-2.84-.69c-.33-.13-.63-.25-.93-.34l-3.86-1.12,3.23-2.4c.32-.25.66-.56,1-.88a8.37,8.37,0,0,1,3.45-2.2c19.69-5.14,40.08-7.42,59.8-9.62,3-.33,5.88-.65,8.79-1,7.37-.85,13.74-1.83,19.47-3,1.68-.35,2.47-.92,2.65-1.33s-.06-1.36-.72-2.42c-4.45-7.05-8.37-14.52-12.15-21.74-6-11.51-12.27-23.4-20.74-33.72-6.8-8.3-12.57-17.6-18.15-26.59-2.35-3.79-4.78-7.71-7.24-11.49a3.91,3.91,0,0,1-.46-2.59,3.75,3.75,0,0,0,0-.44l-.08-2.73,2.63.75a8,8,0,0,0,.9.18A5.63,5.63,0,0,1,331.7,319c26.2,28.33,45.8,53.5,61.66,79.2a140.71,140.71,0,0,0,9.23,13.7c.75.94,1.47,1.48,2,1.48s1.57-.72,2.73-2.75q5.94-10.45,11.91-20.9c7.06-12.36,14.36-25.15,21.46-37.77.46-.82.89-1.74,1.28-2.55,1.3-2.7,2.76-5.77,5.87-7.79l3.41-2.21-.33,4.05c-.57,7-3.13,13.26-5.61,19.34-1.17,2.88-2.38,5.85-3.34,8.82-1.34,4.18-2.79,8.4-4.2,12.48-3,8.78-6.13,17.84-8.33,26.9a2.14,2.14,0,0,0,.48,1.92c1.19,1.51,4,2.57,6.71,2.57H437c7.95-.24,16.18-.55,23.45-.82,18.38-.67,37.35-1.38,56-1.39h.37c20.67,0,41.66.56,62,1.09l.62,0c9.49.25,19.29.51,28.93.71h.89c1.57,0,3.2-.08,4.78-.16,1-.05,1.89-.1,2.81-.13l2.09-.07-.23,27.81-2.17-.21c-1.44-.14-2.88-.25-4.31-.36h-.14a98.51,98.51,0,0,1-10.28-1.14c-8.47-1.53-17.19-2.28-25.63-3-4.57-.39-9.23-.79-13.82-1.3C534,433.29,505.88,433,479.56,433L467,433H454.4c-3.56,0-7.12,0-10.68,0a35.74,35.74,0,0,1-4.63-.46,32.33,32.33,0,0,0-4.41-.45c-2.6,0-3.42.83-3.91,1.72-1.55,2.8.42,6.18,2.5,9.77a44.21,44.21,0,0,1,2.31,4.34c8.75,20.05,20.37,39,31.6,57.3,3.59,5.84,7.29,11.86,10.88,17.91a6.79,6.79,0,0,1,.76,2.68c0,.22.05.43.09.64l.92,5.2-4.14-3.28c-14.11-11.25-24.95-25.44-34.56-39.1a358.69,358.69,0,0,1-28.4-47.65,3.13,3.13,0,0,0-1.05-.53c-1.93.53-3.13,1.89-3.78,4.3a247.11,247.11,0,0,1-31.45,70.24c-9.36,14.46-20.51,30-38.51,45.29l-1,.86Z"/><path class="cls-3" d="M241.1,654.15q6-12.81,11.89-25.47c9.24-19.77,18.78-40.19,28-60.2q2.1-4.54,4.18-9.1c9.81-21.44,19.95-43.59,33.51-63.63a6.85,6.85,0,0,0,.42-4.43c-1.94-1.77-4.27-2.52-7.77-2.52-1.69,0-3.5.18-5.26.36l-2.68.27c-11.41,1.15-23.21,2.34-35,2.34-3.81,0-7.39-.12-10.94-.36-4.68-.33-9.45-.49-14.06-.65-8.93-.3-18.16-.61-27.19-2.13-7-1.17-14.13-2-21-2.74-11.73-1.3-23.86-2.65-35.64-5.87-8.45-2.31-17-3.81-26.13-5.39l-.17,0c-4.08-.7-8.3-1.44-12.54-2.26l-4.92-.95L120,468.7c7.88-5.05,15.88-10.23,22.95-14.8,18-11.61,34.91-22.58,52.57-33.34,21-12.82,44.22-22.11,66.62-31.1l5-2c10.19-4.1,20.83-7.47,31.12-10.73l.45-.15,6-1.89c4.54-1.46,7.15-3.17,7.76-5.09.83-2.61-1.91-6.25-4.56-9.78-.64-.85-1.25-1.67-1.82-2.47q-3.63-5.11-7.24-10.25l-.27-.38c-8.76-12.45-17.82-25.31-27.43-37.37-4.65-5.82-10-11.32-15.15-16.63s-10.59-10.89-15.34-16.83c-8.22-10.28-18.81-18-29.05-25.44l-3.48-2.54a6.51,6.51,0,0,1-1.91-2.71c-.14-.31-.27-.59-.42-.85l-1.15-2,2.13-.86c.49-.2,1-.5,1.58-.78a10.06,10.06,0,0,1,4.58-1.53h.2c29.08,1.25,55.27,7.3,80.09,18.52,42.15,19.06,76.82,48.89,106,91.19,4.11,6,6.25,6.62,7,6.62,2.09,0,3.7-6.11,4.56-9.4.69-2.59,1.22-4.64,2.07-5.83,4.29-6.09,8.51-12.38,12.58-18.47,10.12-15.11,20.56-30.7,33.27-44.64,14.06-15.4,28.88-29.12,46-45l4.93-4.56L508,234.08c-2.11,8.52-2.45,16.86-2.78,24.92-.4,9.49-.76,18.45-3.76,27.57-2.38,7.26-3.4,15.2-4.38,22.87-.62,4.92-1.27,10-2.27,14.91-3.15,15.56-6.92,31.15-10.52,45.68-1.34,5.4-2.87,10.83-4.34,16.08-1.69,6-3.43,12.18-4.88,18.29-.91,3.77-2.78,4.53-5.7,4.57-5.45.07-10.9.18-16.35.29q-7.1.15-14.15.26h-.12A4,4,0,0,1,435.2,408c-1.13-1.64-.34-3.68,0-4.66l.11-.29c4.29-12.67,8.78-25.51,13.12-37.93,1.84-5.28,3.66-10.48,5.47-15.69q1.5-4.29,3-8.6c3.4-9.68,6.92-19.7,9.95-29.69,1.74-5.77.42-7.05-.72-7.5a2.1,2.1,0,0,0-.76-.17c-1.33,0-2.57,2.31-3.47,4-.31.57-.58,1.07-.84,1.49-13.53,22-27.9,46.07-43.94,73.62a161.36,161.36,0,0,0-7.28,14.78c-1.13,2.51-2.31,5.1-3.58,7.78l-1.7,3.57-1.87-3.49c-7.61-14.18-16.41-26-24.91-37.48l-1.71-2.3c-11.12-15-24.22-32.28-39-47.39-19.94-20.41-37.37-33-56.49-40.88l-.27.08a6.34,6.34,0,0,0,.46,2c2.73,2.7,5.56,5.38,8.29,8,8.67,8.22,17.64,16.72,24.75,26.84,2.78,4,5.58,8,8.28,12,6,8.68,12.08,17.58,18.48,26,11.56,15.19,21.06,31.74,29.07,46.05,1.65,3,3.2,6,4.7,9l.06.13q1,2,2,4l1.22,2.36-2.61.52c-1.49.3-3,.64-4.48,1a80.23,80.23,0,0,1-10.14,1.86,457.16,457.16,0,0,0-66.58,11c-29.73,7.38-57.73,18-83.55,28.46a25.53,25.53,0,0,1-5.18,1.3c-2.39.42-4.64.81-6.4,2.11a7,7,0,0,1-2.59,1l-.26.07a7.1,7.1,0,0,0,3.38,1,2.38,2.38,0,0,0,.39,0c4-.69,8-1.69,11.9-2.66,3.19-.79,6.44-1.6,9.69-2.25,9.9-2,21.09-4.22,32-5.76,27.22-3.84,58-8.18,88.39-11.8a92.4,92.4,0,0,1,11-.55c2.5,0,5,.06,7.49.11s5,.12,7.42.12l2.79,0a20,20,0,0,0,3.8-.62,24.15,24.15,0,0,1,4.22-.72c.4,0,.8,0,1.21,0a46.09,46.09,0,0,1,4.69.32c.81.08,1.61.16,2.4.22l2.24.16-.41,2.2c-.23,1.21-.42,2.48-.6,3.71a43,43,0,0,1-1.83,8.5c-7.43,20.77-13.86,38-23.37,54.85a451.19,451.19,0,0,1-33.19,50.7c-7.15,9.44-13.9,19-19,26.21-.17.24-.36.48-.56.74a7.65,7.65,0,0,0-1.37,2.22l.1.07h0a11.62,11.62,0,0,0,4.52-1.79c18.83-11.7,33.79-27.63,47.5-42.94,19.75-22,35.48-49.71,48.11-84.58a12.44,12.44,0,0,0,.4-3.64c0-.94,0-2,.15-3.24l.55-6.76,3.2,6c18.27,34,42.13,72.42,80.6,99.25,1.63,1.13,3.19,2.37,4.7,3.56a58.05,58.05,0,0,0,7.18,5.11,1.55,1.55,0,0,0,.67.1,14.08,14.08,0,0,0,2.55-.38h0a6.93,6.93,0,0,0-.9-1.85c-3.28-4.43-6.75-8.85-10.1-13.13-7-8.9-14.21-18.11-20.19-27.93-3.12-5.13-6.39-10.3-9.55-15.31-11.38-18-23.1-36.56-30.8-57a4.32,4.32,0,0,1,.15-4.12c1-1.5,2.93-1.67,4.27-1.67h3.1c3.72,0,7.5,0,11.15-.09h.23c3.68,0,7.48-.09,11.22-.09,6.26,0,11.38.13,16.12.4,5.93.34,7.75,5.88,9.08,9.92a29.35,29.35,0,0,0,1.28,3.44c4.14,8.38,7.85,17.11,11.44,25.55,4.21,9.9,8.56,20.14,13.59,29.79,4.94,9.49,8.9,19.46,12.73,29.11,2.91,7.33,5.91,14.87,9.29,22.09,5.48,11.71,10.4,23.89,15.16,35.67,2,4.89,4,9.92,6,14.86a5.14,5.14,0,0,1,.32,2c0,.16,0,.3,0,.42l.18,2.23-2.33-.06-.43,0-.69,0a4.28,4.28,0,0,1-1.66-.29A679.21,679.21,0,0,1,485,578.36c-20.2-10.9-36.93-22.87-51.14-36.58-2.11-2-3.93-3.07-5.44-3.07-1.7,0-3.45,1.24-5.52,3.9-14.15,18.16-31.26,33.12-47.64,46.58-21.17,17.39-45.45,29.64-68.93,41.47l-.76.39-6.49,3.27c-12.09,6.13-24.55,10.8-37.75,15.75-5.81,2.17-11.78,4.41-17.7,6.78L239,658.73Z"/><path class="cls-4" d="M367.84,1618l-.73-.84c-8.36-9.61-17-19.53-26.34-28.3-14.24-13.38-29.34-26.35-43.95-38.9l-.21-.18c-6.26-5.37-12.72-10.92-19-16.43-16.21-14.16-35.32-30.32-56.92-42.94a60.38,60.38,0,0,1-6.43-4.57c-.91-.71-1.82-1.42-2.75-2.1l-2.22-1.63,2.25-1.61c.63-.45,1.28-1,1.9-1.51a16.29,16.29,0,0,1,5.16-3.3c8.05-2.65,16.29-5.14,24.27-7.54l.11,0,9.74-2.95q5.11-1.58,10.21-3.22l.17,0c7.23-2.31,14.71-4.69,22.19-6.66,7.95-2.1,16.06-4,23.9-5.81,7.56-1.76,15.37-3.59,23-5.59,10.12-2.64,20.21-6.07,30-9.39,15.71-5.33,31.95-10.85,48.85-13.33,2.23-.33,2.22-1.26,2.22-1.66a1.26,1.26,0,0,0-.06-.46h0a3.17,3.17,0,0,0-1-.11c-.34,0-.68,0-1,0l-.36,0-12.15.49-.76,0c-10.6.42-21.56.86-32.34,1.52l-11.65.67c-14.89.83-30.23,1.69-45.17,3.56-12.71,1.6-25.56,4.16-38,6.63-5.12,1-10.38,2.06-15.64,3.05-15.71,2.93-31.48,5.93-46.72,8.83l-6.62,1.25a26.24,26.24,0,0,0-2.55.69c-.47.14-.95.29-1.43.42l-2.67.73.14-2.76c0-.68,0-1.37,0-2a19.68,19.68,0,0,1,.47-5.22c1.3-4.84,2.73-9.73,4.12-14.45,2.55-8.69,5.18-17.65,7.06-26.57,1.93-9.16,3.38-18.6,4.78-27.72,1.18-7.72,2.4-15.67,3.91-23.45,3.77-19.47,5.56-40.83,5.47-65.29,0-1.31-.63-2-2.36-2.64a5.63,5.63,0,0,0-1.41,1.61c-1,2.19-2.06,4.38-3.1,6.57-3.26,6.84-6.62,13.91-9.19,21.07-3.77,10.57-7.39,21.39-10.9,31.86-4.92,14.72-10,29.92-15.6,44.68-7.06,18.64-12.57,38.14-17.9,57-1.51,5.33-3,10.66-4.56,16l-.92,3.18-2.39-2.3C128.53,1433,105.37,1414,82,1398c-6.48-4.4-13-8.74-19.06-12.76l-.9-.6v-47.75l5.6,4c22.44,16,45.65,32.6,65.67,52.55a5.31,5.31,0,0,0,2.48,1.38,4.65,4.65,0,0,0,1.07-2.31c2.15-27.21,12.38-52.44,21.05-71.37,12.48-27.24,26.63-56,45.44-82.08,9.21-12.77,16.44-22.49,23.42-31.5,4.89-6.31,6.4-8.13,8.48-8.13s2.82,1.72,3.64,3.39c6.49,13.12,9.61,28.43,9.82,48.18.32,29.66-.79,58.79-1.91,83.37-.32,6.8-1.25,13.62-2.15,20.23a204.78,204.78,0,0,0-2.19,21.83,19.4,19.4,0,0,1-1.12,4.77c-.78,2.42-1.84,5.73-.9,7,.47.64,1.71,1,3.5,1a23.37,23.37,0,0,0,3.53-.32,40.24,40.24,0,0,0,6.71-2,43,43,0,0,1,7.22-2.12q8.11-1.38,16.22-2.83c22.5-4,45.77-8.06,69.16-9.79,6.24-.45,12.82-.69,19.54-.69,18.23,0,36.21,1.68,52.93,3.49l7.92.84c23,2.42,46.8,4.92,69.24,13.32a16.17,16.17,0,0,0,1.87.52l1,.25,3,.78-1.94,2.41c-.22.27-.43.57-.64.86a9.77,9.77,0,0,1-2.14,2.41q-9.33,6.82-18.68,13.57l-.34.24c-11.18,8.09-22.73,16.45-34,24.89-17.87,13.4-38.78,25.64-63.92,37.41-12.34,5.78-25.38,10.48-38,15l-.2.07c-4.37,1.58-8.89,3.21-13.3,4.85a135.44,135.44,0,0,1-16.07,4.55c-3.7.88-7.48,1.78-11.11,2.88-4.29,1.32-5.92,2.29-7,4.16a3.41,3.41,0,0,0,1.3,4.6c5.06,2.94,10.2,5.81,15.18,8.59,10.37,5.79,21.07,11.77,31.16,18.39,14.8,9.72,28,18.7,39.27,30.06,17.08,17.16,30.62,33.25,41.41,49.2l2.11,3.12Z"/><path class="cls-4" d="M353.8,1618l-.55-.46c-17.61-14.56-36.82-27.59-55.39-40.18-7.48-5.07-15.21-10.31-22.79-15.62-9.54-6.69-19.66-12.83-29.44-18.77-8.08-4.9-16.43-10-24.45-15.34-13.1-8.76-26.91-17-40.27-24.93-5.93-3.53-12-7.17-18-10.83a10.87,10.87,0,0,0-5.34-2c-1.06,0-2.62.32-4,3-12.53,24.08-24.78,47.67-36.71,71.57-6.56,13.14-13,26.58-19.25,39.59q-3.06,6.38-6.13,12.76l-.54,1.13H80.24l.9-2.64c6.21-18.24,11.48-33.42,16.59-47.76,3.9-11,8-22.12,11.86-32.89l.2-.57c3.6-9.91,7.32-20.16,10.93-30.25a3,3,0,0,0-.22-1.85,4.18,4.18,0,0,0-2.21-.91l-3.3,1.26c-11.82,4.58-24,9.32-35.81,14.52l-4.92,2.15-.17.07c-3,1.32-6.17,2.69-9.26,4.1L62,1524.52v-28.41l1.32-.47c16.7-6,34.56-12.26,53.25-17,.53-.13,1.2-.27,1.94-.42,2.36-.49,7.87-1.63,8.4-3.5.1-.36.17-1.77-3-4.73-8.66-8-16.9-16.63-24.86-25-6.65-7-13.48-14.12-20.48-20.85-5.87-5.62-11.61-11.33-16-15.68l-.59-.58v-16.72l3,1.88c2,1.24,4.12,2.53,6.14,3.84,33.47,21.64,59.58,42,82.19,64.17l.39.39c.55.55,2,2,2.63,2,0,0,.55-.29,1.11-2.38,3-11.22,6.26-22.44,9.69-33.33l.54-1.72c5.2-16.48,10.57-33.53,16.42-50.11,3.81-10.81,8-21.67,12.06-32.18,2.32-6,4.69-12.15,7-18.19,1.87-5,3.66-10.14,5.39-15.11.82-2.36,1.64-4.73,2.47-7.09l.42-1.18,3.45.56,0,1.25a189.47,189.47,0,0,1-2.07,30.53l-1.38,9.91c-2,14.39-4,29.27-6.89,43.77-2.69,13.7-5.92,27.52-9.05,40.89-1.84,7.89-3.75,16.05-5.53,24.09-.58,2.64-.2,3.21-.16,3.26s.22.14.78.14a10.17,10.17,0,0,0,2.69-.49c25.46-7.43,50.49-14.34,76.71-17.13,7.72-.82,15.54-2.1,23.11-3.35,4.78-.78,9.72-1.59,14.62-2.28,8.59-1.22,17.35-2.34,25.81-3.42l.2,0,11.45-1.47,1.92-.25.31,1.91q.17.93.3,1.86l.24,1.66-1.59.53c-2.06.68-4.16,1.49-6.18,2.27-4.58,1.76-9.31,3.58-14.24,4.28-17.25,2.45-34.35,7-50.89,11.32l-9.22,2.42c-12.11,3.14-24.32,6.8-36.14,10.34-6.72,2-13.61,4.09-20.43,6-1.35.39-2.8.67-4.2.94-3.91.75-7.6,1.46-8.84,4.33-1.13,2.62.23,3.73,4.11,6a24.6,24.6,0,0,1,3.61,2.4,74.87,74.87,0,0,0,8.89,6.29l1.33.86C246.05,1512,275,1537,302.94,1561.21l.34.3,10.92,9.43.74.64c15.37,13.26,31.21,26.93,46.54,40.66a19.52,19.52,0,0,1,2.31,2.52l2.56,3.24Z"/><path class="cls-5" d="M206.3,1223.75a3.43,3.43,0,0,1-.56,0,107.77,107.77,0,0,1-13.6-2.9c-3.79-1-7.71-2-11.55-2.62-11-1.79-22.16-3.13-33-4.43l-5.72-.68a6,6,0,0,0-1.27.59,13.24,13.24,0,0,1-1.36.66l-5.2,2.11,2.7-4.92c.21-.39.41-.8.6-1.21a13.22,13.22,0,0,1,1.9-3.15c24-27,44.87-48.84,69.06-67.93s44.62-42,64.51-64.21a21.41,21.41,0,0,1,1.83-1.69c2.81-2.39,3.89-3.67,2.42-5.85a2.35,2.35,0,0,0-2.09-1.16,7.2,7.2,0,0,0-3.62,1.31l-1.78,1.15c-18.15,11.76-36.93,23.91-55.12,36.26-16.28,11.06-34.74,23.58-51.18,37.77-5.23,4.51-10.75,8.83-16.09,13-8.12,6.34-16.5,12.89-23.89,20.17l-2.73,2.69-.64-3.77c-.29-1.71-.64-3.47-1-5.17a101.13,101.13,0,0,1-1.82-11.6l-1-11.7c-1.72-21.08-3.5-42.88-4.62-64.38-.74-14.35-1.12-29-1.49-43.06-.3-11.39-.6-23.16-1.1-34.74-1-22.57-2.4-44.72-4-69.27-.09-1.35-.67-5.76-4.36-5.81-2.28,0-3.32,2.94-3.58,4.67-.48,3.24-1,6.49-1.48,9.73-1.74,11.23-3.53,22.85-4.44,34.32-1.71,21.82-3,45.62-4,72.77-.24,6.53,0,13.22.19,19.69.23,6.74.46,13.68.18,20.53a599.58,599.58,0,0,0,3.24,91.93c.23,2.06-.93,4.06-1.86,5.67l-.27.46a4.37,4.37,0,0,1-3.58,1.72,3.08,3.08,0,0,1-1.54-.38c-6.54-3.86-13.75-6.07-19.94-7.73l-1.48-.4V944.91l.1-.27c.91-2.34,1.77-4.6,2.62-6.86,3.56-9.38,7.23-19.06,12.06-28,9.1-16.8,16.8-34.11,22.5-47.31,1-2.4,2.26-4.73,3.44-7,.57-1.08,1.12-2.15,1.66-3.22l1-1.91,1.85,1.09c3.07,1.81,3.84,4.66,4.52,7.17a14.5,14.5,0,0,0,1.07,3,42.31,42.31,0,0,1,2.73,6.74,38.63,38.63,0,0,0,2,5.22c6.45,12.61,9.71,26.24,12.87,39.41.74,3.11,1.58,6.63,2.44,10,1.27,5,2.35,10.1,3.4,15.05,2,9.38,4,19.06,7.41,28,5.56,14.66,8.65,29.95,11.65,44.75l.07.36c.4,2,.8,4,1.21,6,4.55,22.11,5.92,44.95,7.24,67l-1.49.2,1.5-.09c.37,6.14.75,12.49,1.19,18.72a3.49,3.49,0,0,0,1.07,1.66,3.93,3.93,0,0,0,1-.83c4.68-9.07,12.18-15.53,19.44-21.78l1.18-1c24.36-21,46.44-36.48,69.5-48.74,15.52-8.25,31.81-14.26,45.85-19.24,8.17-2.9,16.68-4,24.9-5.1,5.4-.71,10.95-1.44,16.28-2.66l.34-.08a17.49,17.49,0,0,1,3.87-.58,4.4,4.4,0,0,1,4,1.79c.91,1.38.85,3.22-.19,5.64q-2,4.56-3.92,9.14c-7.14,16.71-14.52,34-23.13,50.34-8.4,16-18,31.6-27.3,46.72l-.12.2c-2.8,4.56-5.61,9.12-8.38,13.7-9.86,16.27-22.52,30-36.85,45.06A154.69,154.69,0,0,1,240.74,1188c-6.72,5.72-13.66,11.63-18.52,19.36-7.31,11.63-11.92,16.38-15.92,16.38Z"/><path class="cls-4" d="M270.23,1618l-.41-.2c-21.9-10.58-42.89-23.54-63.18-36.08l-6.78-4.18c-6.81-4.19-13.85-8.29-20.65-12.27l-.11-.06c-3-1.76-6-3.51-9-5.28a7.18,7.18,0,0,0-5.32,3c-2.22,2.95-4.51,6.06-6.52,8.81-4.27,5.81-8.67,11.82-13.32,17.5l-3.77,4.63c-6.36,7.8-12.89,15.82-19.58,23.49l-.6.68H96.4l1.32-2.84c.51-1.11,1-2.21,1.55-3.32,0,0,18.33-38.4,23.17-48.56,2.23-4.67,4.45-9.46,6.6-14.09l.06-.13c5.83-12.58,11.86-25.59,18.77-37.89a20.31,20.31,0,0,0,1.23-3.43c1.29-4.24,3.05-10.06,8.93-10.06,2.47,0,5.29,1.11,8.64,3.39,7.69,5.23,16.05,9.82,24.13,14.26,6.55,3.59,13.31,7.31,19.74,11.37,23.22,14.65,53.81,34.12,84.48,54.84,13.47,9.11,26.92,18.67,39.93,27.92l12,8.54Z"/><path class="cls-5" d="M316.31,1317a74.23,74.23,0,0,1-15.79-1.62c-8.71-1.88-18-2.09-27-2.28l-1.62,0c-9.67-.22-14.5-.67-17.08-3.81-2.43-3-2.13-7.4-.46-16.84,1-5.84,2.09-11.89-.8-17.59-1.08-2.12-.62-6.25,0-7.59a2.27,2.27,0,0,1,1.6-1.3,16.27,16.27,0,0,1,3.08-.27c1.34,0,2.67.12,4,.24l1.52.13c9,.67,17.25,3.72,25.27,6.66,4.2,1.55,8.55,3.15,12.9,4.35a1.94,1.94,0,0,0,.6.07,4.72,4.72,0,0,0,2.53-.68.68.68,0,0,0,.06-.15,7.31,7.31,0,0,0-1.28-1.28,12.4,12.4,0,0,1-1.36-1.28c-10.44-11.86-24.49-19.12-38.08-26.15l-5.52-2.87c-7.55-4-8-10.67-8.37-16.59a34.73,34.73,0,0,0-.75-6.07,102.87,102.87,0,0,0-5.47-15c-.75-1.76-1.47-3.44-2.16-5.15a9.19,9.19,0,0,1-.55-3.13c0-.37,0-.72-.08-1.07l-.47-4,4.31,2.47c.57.32,1.13.65,1.7,1,28.59,16,50.31,39.18,69.51,61.9,13.14,15.55,22.78,33.55,32.1,51l1.27,2.37-2.63.54C336.88,1315.07,326.72,1317,316.31,1317Z"/><path class="cls-5" d="M277.59,1264c-2.61-.41-5.17-1-7.64-1.46a76.23,76.23,0,0,0-13.29-2,4,4,0,0,1-3.2-1.53c-1.59-2.06-.85-5.35-.31-7.76.11-.45.19-.81.24-1.12.51-2.6,2-3,2.83-3,1.42,0,2.38,1.14,3.09,2,.1.12.22.27.33.38,5,2.59,9.95,5.45,14.76,8.21l4.49,2.57,1.09.62-1.15,3.29Z"/><path class="cls-5" d="M130.49,1383.75l-2.33-2.07c-6.52-5.76-12.67-11.19-14.55-22.9-5-31.47-8.49-63-11.82-93.45-.14-1.33-.18-2.81-.22-4.38-.2-7.45-.72-12.33-6-12.33a21.53,21.53,0,0,0-7.9,2c-6.59,2.8-13.35,5.36-19.89,7.83l-5.78,2.2v-24l1-.57a188.57,188.57,0,0,1,19.33-9.2c3.17-1.26,6.29-4,6.83-6.06-.27-.53-2.73-1.27-3.65-1.54-.71-.22-1.43-.44-2.08-.67-6.7-2.47-13.68-5.11-19.84-7.44l-1.64-.62V1188l2.49.63c6.23,1.58,11.73,3.12,16.82,4.7a25.34,25.34,0,0,0,7.19,1.41,4.38,4.38,0,0,0,3.31-1.06c1.63-1.7,1.79-5.78,1.53-11.38-1.86-40.43-2.93-79.75-3.19-116.86-.11-15.41.85-31,1.78-46.17.4-6.54.82-13.27,1.14-19.94l.34-7c.49-10.41,1-21.17,1.79-31.8A70.39,70.39,0,0,1,97,950.22c.32-1.48.65-3,.94-4.43l.24-1.29,3.62.21.09,1.31c.69,9.39.79,18.86.89,28,.06,5.25.12,10.66.29,16,.29,9.06.9,18.27,1.49,27.18.45,6.74.9,13.69,1.23,20.56.45,9.65.81,19.47,1.15,29,.55,15.08,1.12,30.58,2.06,45.8,1.16,19,2.88,38.24,4.54,56.88.5,5.65,1,11.23,1.48,16.81a13.15,13.15,0,0,1-.17,2.78,9.46,9.46,0,0,0-.14,2.3,2.62,2.62,0,0,0,.41,0c1.25,0,3.32-2.09,4.83-3.61.58-.58,1.14-1.15,1.68-1.65a6.62,6.62,0,0,0,1.13-1.75,9.45,9.45,0,0,1,2-2.89,916.85,916.85,0,0,1,82.92-65.57c9.18-6.49,18.59-13,27.69-19.25l.89-.61,12.89-8.9,1-.72,2.47,2.46-.71,1c-8.46,12.29-18,22.45-28.37,30.17-19,14.17-36.39,30-52.53,45-18.6,17.29-32.5,33-43.73,49.38a14.88,14.88,0,0,1-1.27,1.56c-1.46,1.66-1.34,1.83-1.21,2,1.06,1.46,3.35,2.89,4.63,2.89q3.88-.25,7.87-.26c11.21,0,22,1.43,33.45,2.93,10.36,1.37,21.07,2.78,32,3l6.62.13-5.59,3.56c-2.19,1.39-3.72,4-5.2,6.53-2.06,3.49-4.18,7.1-8.2,7.1a6.51,6.51,0,0,1-1.3-.13c-12.25-2.42-24.52-2.75-34.91-2.75-3.75,0-7.57,0-11.27.1h-.71l-5.87.06c-6.38.05-10.12,1.14-12.13,3.54-1.75,2.1-2.22,5.35-1.44,9.92,1.22,7.1,1.9,14.38,2.55,21.42.57,6.15,1.16,12.49,2.11,18.64.82,5.33,2,10.74,3.24,16a179.24,179.24,0,0,1,3.95,21.32c.32,3.12,1.68,6.09,3,9,1.85,4,3.77,8.23,3.06,13.08a175.66,175.66,0,0,1-4.6,20.2l0,.12c-.75,2.77-1.52,5.64-2.22,8.46L133,1386Z"/><path class="cls-5" d="M166.25,1281.66a23,23,0,0,1-7.82-1.92,35.26,35.26,0,0,0-3.93-1.3,72,72,0,0,1-9.14-3c-2.4-.92-4.83-1.85-7.23-2.54-6.43-1.81-7.13-6.54-7.7-10.34-.36-2.35-.66-4.38-2.06-5.85l-.94-1,.58-1.24c2.93-6.28,7.79-7.09,11.7-7.09,1,0,2,.06,3,.12s1.7.1,2.43.1a9.66,9.66,0,0,0,1.28-.07,128.28,128.28,0,0,1,14.7-.72c3.39,0,6.79.07,10.09.15s6.55.15,9.78.15c2.69,0,4.55.81,5.53,2.42.71,1.16,1.21,3.22-.44,6.45q-1.24,2.44-2.46,4.91c-2.83,5.74-5.76,11.66-9.68,16.82a9.27,9.27,0,0,1-7.65,4Z"/><path class="cls-4" d="M62,1618v-38.83c.66-5.61,1.38-11.25,2.07-16.71.73-5.75,1.48-11.64,2.16-17.47.16-1.34.24-2.81.32-4.37.3-5.76.66-12.9,6.06-15.9,8.39-4.66,17.58-8,26.47-11.32,3.47-1.28,7.06-2.6,10.58-4a4.16,4.16,0,0,1,1.49-.27,4.54,4.54,0,0,1,2,.46c1.64.82,1.46,3.16,1,4.17q-1.87,4.21-3.8,8.39l0,.09c-2.45,5.35-5,10.88-7.23,16.42-2.41,6-4.74,12.1-7,18-3,7.92-6.09,16-9.45,24-2.92,6.9-4.76,14.33-6.54,21.52-1.18,4.76-2.39,9.66-3.92,14.43l-.44,1.39Z"/><path class="cls-4" d="M87.17,1482.78a6,6,0,0,1-5-3c-6.09-8.75-12.8-17.2-19.71-25.81l-.44-.55v-41.18l3.4,3.33c3.84,3.76,8.38,8.22,12.88,12.73,2,2.07,4.21,4.14,6.29,6.15,7.25,7,14.71,14.2,20,22.69a31.14,31.14,0,0,0,3.45,1.38c4.75,1.7,10.66,3.83,10.78,8.07.09,3.29-3.3,6.22-11,9.49l-1.18.52c-2,.89-4.22,1.9-6.38,1.9a5.88,5.88,0,0,1-1.48-.18,2.82,2.82,0,0,0-.71-.09c-1.48,0-3.21,1.08-4.88,2.11-1.92,1.19-3.89,2.42-6,2.42Z"/><path class="cls-5" d="M62,1265.91l1.21-.52q8.62-3.69,17.26-7.36a84.75,84.75,0,0,1,8-2.81c1.24-.39,2.46-.78,3.67-1.18l2.83-1-.19,3a38.43,38.43,0,0,0,0,4.26c.19,4.07.37,7.91-2,9.75-5.57,4.34-12.08,7.5-18.38,10.56l-4.22,2.06-2.77,1.37L62,1286.73Z"/><path class="cls-5" d="M62,1212l2.67,1a71.66,71.66,0,0,1,8.65,4c2.12,1.09,4.29,2.2,6.41,3.1l4.19,1.77-4.14,1.89c-5.77,2.64-10.51,4.88-14.89,7L62,1232.22Z"/><polygon class="cls-2" points="6 8.83 58 60.83 58 1619.17 6 1671.17 6 8.83"/><path d="M1024,8V1672a8,8,0,0,1-8,8H8a8,8,0,0,1-8-8V8A8,8,0,0,1,8,0H1016A8,8,0,0,1,1024,8Zm-8,1658.34V13.66l-48,48V1618.34ZM962.34,56l48-48H13.66l48,48H962.34ZM13.66,1672h996.68l-48-48H61.66ZM960,1616V1097.05c-4.89-7.22-9.48-14.64-13.68-22.32-3.81-7-7.68-8.3-14.43-8.87-10.9-.92-21.7-3-31.75-4.52,4.31,16.36,8.47,32.76,13,49.08s5.65,33.5,9.23,50.17c5.93,27.59,5.69,56.05,4.4,84.31q-.62,13.53-1.89,27c-.18,1.91-1.29,4.62-2.77,5.37-7.63,3.85-14.5,1-21.1-3.23-22.67-14.36-39.87-34.1-55.88-55.3-15-19.81-27-41.39-39.8-62.49-.85-1.41,0-3.81-.78-5.31-2.14-4.08-4.74-7.93-7.16-11.87-2.74,3.63-5.79,7.06-8.16,10.91-12,19.54-27.25,36.2-44.66,51-9.67,8.25-18.22,17.88-28.29,25.55-6.42,4.88-13.76,8.47-20.16,13.82-9.66,8.07-20.57,14.69-31.2,21.54-16.45,10.58-32.7,21.22-50.48,30-13.16,6.47-27.27,11.81-39.59,20.29-3,2.1-4.69-2.48-4.46-3.9,1.88-11.72,3.6-23.55,6.73-35,3.88-14.21,8.83-28.14,13.72-42.06,7.41-21.08,15.89-41.8,27-61.21,13-22.78,27.71-44.6,40.48-67.51,6-10.69,9.23-22.9,13.38-34.55,1.33-3.74-2.19-2.89-4-2.89-23.59-.08-47.33,1.63-70.71-.57-22.54-2.12-45.26-3.66-67.42-10.78-16.08-5.16-32.83-8.61-48.89-14.29-5-1.77-12.24-3.73-12.43-7.92-.34-7.51,6.34-12.43,12.51-16.64,22.13-15.11,46.62-25.81,71.36-35.27,22.53-8.62,45.36-17.08,69.57-20.87,20.81-3.25,41.36-8.16,62.16-11.56a99.75,99.75,0,0,1,26.28-.85c8.66.91,5.68-3.18,4.55-7.33-5.24-19.35-10.34-38.74-15.66-58.07-1.68-6.1-8-7.48-12.43-10.23-15.55-9.6-31.82-18.06-47.35-27.69-10.09-6.25-19.54-13.84-25.5-24.37-3.55-6.26,3.41-9,6.82-11.47,16.68-12.22,33.93-24.37,53.23-31.33,21.08-7.61,43.61-10,66.47-9.09,15.7.63,31.29,1,46.72,4.13,7.18,1.47,14.37,3.06,21.64,3.83,3.48.37,11.84,6.59,8.48-5.23-4.38-15.44-1.12-31,.15-46.4,2.33-28.17,5.77-56.1,15.2-83.2,4.13-11.88,6.51-24.58,10.76-36.59a112.66,112.66,0,0,1,7.09-16c8.15-15.14,17.35-5.46,24.25.46,16.35,14.05,24.78,33.47,32.73,53,5.22,12.87,12.05,25.15,16.48,38.26A335.66,335.66,0,0,1,934.9,722.9c4.52,23.34,9.2,46.76,11.48,70.37,1.65,17,4,11.45,11,2.6.85-1.07,1.72-2.12,2.59-3.18V314.34c-16.17.83-32.34,1.71-48.49,2.89-9.37.68-18.61,3-28.11,4.55,16.24,25.77,22.28,55.72,31.43,84.46,4.16,13.09,8.82,26.56,9.49,40,.5,10.29,2.2,20.65,1.59,31.29s.93,21.58-.6,32.57c-1.34,9.67-6.16,9.8-12.23,5.74-22.57-15.13-41-34.71-58.08-55.64-10.29-12.64-21.92-24.65-29.71-38.73-10-18-13.29-2.94-17.35,2.48a494.49,494.49,0,0,1-56.51,63.22c-23.4,22.12-50,39.93-77,57.27-7.09,4.56-14.72,8.27-22.2,12.18-1.18.62-4,.66-4.22.19-1.91-4.66-4.42-9.41-4.8-14.29-.5-6.35.4-12.89,1.35-19.25,3.32-22.17,5.06-44.81,10.94-66.3,5.77-21.13,13.54-42.07,26.78-60.33,3.72-5.13,5.45-11.69,8.15-17.57.8-1.74-.07-2-1.48-2-12.79-.66-25.67-.6-38.35-2.18-19.67-2.46-39.23-5.92-58.8-9.17-12.08-2-24.18-4-36.1-6.78A201.18,201.18,0,0,1,527,350.2c-4.1-1.62-7-6.11-1.87-10.5,11.51-9.79,24-17.89,37.28-25.35,10.89-6.14,21.41-13,32.94-17.9,22.63-9.68,45.08-19.92,69.76-23.63,5.35-.81,10.58-2.54,15.79-4.1,1.43-.43,2.6-1.77,3.89-2.7-1-.73-2-1.49-3.11-2.17-16.82-10.78-31.57-23.74-45.85-37.88-11.74-11.63-23.37-23.18-32.89-36.52A226.21,226.21,0,0,1,574.58,137c-1.89-5.08-4.1-10.14-6.15-15.21-1.55-3.83-2.38-6.82.58-9.62s6.57-1.56,9.78-.68a408.24,408.24,0,0,0,45.79,9.77c11.52,1.8,22.81,6,33.76,10.29,16.93,6.61,33.76,13.62,50.12,21.52a190.47,190.47,0,0,1,48.55,33c7.39,7,15.8,12.84,22.6,20.68,2.29,2.64,3.58-4.34,4.83-6.61,13.54-24.56,31.64-45.39,51.1-65.33a153.39,153.39,0,0,1,26.8-22.2c10.61-6.84,16.1-3.76,18.93,8.68,7.49,32.85,6.72,66.08,3.24,98.93-2.43,22.9-5.38,46.18-13.71,70.23,18.25-3.14,35.59-6.25,53-9.05,12.07-1.95,24.13-4,36.23-5.71V64H64V920.12c5.42-12.43,13.5-23.75,18.68-36.27,5.37-13,12-25.21,18-37.84,1.63-3.47,2.46-8,6-8.65s6.09,3.65,7.48,6.82c5.92,13.56,12.27,27,16.93,41,6.08,18.29,10.79,37,15.94,55.62,4.72,17,9.88,33.92,13.67,51.13,3.58,16.3,5.1,33,8.54,49.39,3,14.34,1.06,28.7,2,43a14.7,14.7,0,0,0,.49,2.24,11.57,11.57,0,0,0,2.27-1.49c21.58-22.35,46.3-40.71,73-56.33,23.6-13.81,49.1-22.66,76-28.19,9-1.85,17.79-.51,26.55-1.77,12.5-1.79,12.85,4.48,9.39,13.38-9.8,25.13-20.1,50-33.51,73.52-17.25,30.25-34,60.76-58.34,86.22-2.72,2.85-5.1,6.16-8.24,8.41-15.14,10.85-1.63,13.8,5,18.59,11.63,8.44,23.63,16.3,32.79,27.82,7.31,9.18,15.93,17.31,23.54,26.27,14.77,17.4,27.81,36.14,36.52,57.25,3.3,8-7.3,9-11.3,10.17-15.46,4.59-31.28,5.17-47.75,3.32-13.5-1.51-27-4-40.48-4.47-4.28-.15-2,8.42-2.74,12.85-2.34,14.3-3.21,28.84-5.36,43.17-1.16,7.72,4.4,3.94,6.13,3.59,14.83-3,29.41-7.69,44.36-9.67,20.4-2.71,41-3.89,61.61-5,25.45-1.38,50.82,1.61,75.86,5.1,24.62,3.43,48.76,10.25,73.14,15.46,1.87.4,2.74.71,3.09,2.88,1.06,6.51-3.35,9.78-7.52,12.92-20.15,15.15-40.17,30.49-60.75,45-16.38,11.57-34.08,20.91-52.23,29.63a412.8,412.8,0,0,1-71.32,26.2c-5,1.36-11.34-.8-15.41,4.85,25.95,12.75,49.33,29,71.71,47.59,16.73,13.88,30.26,30,43.22,46.75A168.24,168.24,0,0,1,431.76,1616Zm0-537.7v-66.56q-9.5-16.08-17.85-32.78c-10.16-20.31-21.76-40.06-27.62-62.38-.94-3.58-3.66-6.74-4.17-11-.32-2.61-2.52-.43-3.5.52-9.82,9.55-19.07,19.77-29.47,28.64-25.62,21.85-49.77,45.58-79.35,62.45-9.34,5.32-18.21,11.48-27.39,17.08-1.36.83-3.93,1.53-4.83.84-2-1.52-.71-3.53.76-5.09,9.76-10.31,19.73-20.44,29.23-31,13.08-14.53,25.7-29.49,38.71-44.08,15.28-17.13,30.76-34.07,45.75-50.64-22-6.35-43.95-12.91-66-19-18.12-5-36.59-8.88-54.53-14.45-16.5-5.11-33.44-8.92-49.09-17-4.84-2.5-10.12-4.23-8.46-9.31,1.52-4.66,8-3.78,12.74-3.62,26.13.9,51.71,6.14,77.48,9.85,27.06,3.9,54.08,8.08,81.12,12.15,4.18.63,8.33,1.39,12.51,2,6.58,1,6-3.45,4.24-6.88-11.27-21.49-17.53-44.47-21.34-68.29-4.61-28.79-9.79-57.52-9.87-86.81a61.5,61.5,0,0,1,1.71-12.61c.26-1.22,1.91-2.15,2.92-3.21,1.12,1.64,2.79,3.12,3.27,4.92,8.16,30.58,16,61.25,24.29,91.79,4.11,15.11,11.27,29.14,16.75,43.72,2.88,7.67,7.49,14.65,9.33,22.78.68,3,3.08,5.65,4.7,8.45,2.1-2,4.14-4,6.31-5.89,19.23-16.74,6.41-36.7,5.27-55.34-.6-9.84-3.75-19.51-4.49-29.36-1.75-23.35-7.85-45.83-14.75-67.88-5.06-16.19-14.41-31-20.9-46.8s-14-30.69-28.16-41.25c-5.19-3.85-7.28-4.45-8.29-.74-.91,3.36-2.82,6.45-3.85,9.79-4.25,13.82-9.19,27.51-12.24,41.6-2.62,12.05-6.78,23.61-8.42,36.11-2.6,20-6.71,39.83-7.57,59.94-.6,13.71-3.2,28,3.7,41.28.68,1.31-.61,5.26-1.66,5.55a24.89,24.89,0,0,1-10.36.73c-17.47-3-34.76-7.61-52.33-9.09a297.22,297.22,0,0,0-56.75.15,121.94,121.94,0,0,0-48.39,15.6c-11.9,6.9-23.24,14.55-35,21.62-4.56,2.75-.45,3.32.36,4.21,16.09,17.59,37.83,26.58,58,37.93,15.32,8.6,30.23,18,45.89,25.88,16.58,8.35,33,17.18,51.62,21,3.76.77,9.67,1.61,11.08,6.52,1.94,6.81-4.46,10.37-7.7,14.89-14.38,20.06-31.82,37.7-45.3,58.56-13.69,21.19-28.94,41.37-43,62.34-7.91,11.81-15.3,24.07-19.8,37.7-.4,1.22-2.44,3.48.19,5.12,2.34,1.47,3.42,3.91,7.56,3.12,15.37-2.93,31-4.57,46.4-7.21,9.35-1.6,17.79-6.65,27.53-7.29,16.58-1.08,31.12-9.17,46.19-14.93s29.66-13.73,44.1-21.36c9.52-5,18.53-11,27.59-16.85,10-6.41,20.53-12.21,29.4-19.93,14.33-12.47,16.67-.53,20.77,8.88C934.93,1036,946.87,1057.43,960,1078.3Zm0-84.19V976.63q-6.19-16.25-11.13-33c-5.7-19.4-11.81-38.69-18-58-1.17-3.66-4.15-8.53-1.48-10.68,3.48-2.8,7.05,2.32,10.33,4.11q10.17,5.55,20.25,11.26V871.79a112.68,112.68,0,0,1-10.87-9.08c-3.72-3.56-6.56-6.47-1.76-11.84q6.36-7.11,12.63-14.3V808c-10.53,12-21.11,24-31.25,36.38-6.46,7.88-10.1,3.91-13.56-2.11-12.47-21.62-21.22-45-29.75-68.23-5.81-15.88-9-32.73-13.81-50.92-2.76,9.72,1.4,17.51,2.25,25.2a246.64,246.64,0,0,0,11.17,52.09c4.82,14.21,9.62,28.44,14.83,42.51,1.4,3.78,2.77,7.51,0,10.53s-6.13.85-9.7.16c-11.73-2.24-23.78-2.7-35.58-4.64-16.89-2.78-33.62-6.56-50.51-9.37-15.33-2.55-30.77-4.46-46.18-6.5-14.33-1.9-28.31-6.32-42.95-6a47.93,47.93,0,0,0-5,1.17c11.38,3.45,19.9,6.23,28.53,8.63,23.27,6.47,46.55,13,69.91,19.1,24.72,6.52,49.59,12.46,74.24,19.19,3.5,1,9.82.19,10.08,5.52.35,7.18-7,10.22-11,14.91-11.12,13.22-23.16,25.66-34.79,38.44-16.36,18-32.67,36-48.15,55.17,7-5.39,14.32-10.51,21.1-16.22,18.92-15.92,37.91-31.76,56.31-48.26,11-9.84,20.08-21.86,31.61-30.87,5.06-4,7.14,5.06,8.83,8.75,4.94,10.75,8,22.37,13.24,33Q944.4,965.14,960,994.11Zm0-40.68V900.12c-7.13-4-14.2-8.28-21.17-13,4.17,13.23,8.1,26,12.22,38.72C954,935.05,957,944.26,960,953.43Zm0-647V283.72c-7.11,1.18-14.21,2.39-21.3,3.69-16.8,3.09-33.49,6.9-50.36,9.53-22.11,3.45-44.35,6.07-66.54,9-2,.26-4,1.8-6.09-.73s-.84-4.75-.35-6.87c1.63-7.07,3.65-14,5.59-21,3.75-13.53,7.87-27,11.23-40.61,2.78-11.29,4.69-22.8,7-34.22l-1.69-.31c-5,12.9-9.66,25.94-15,38.67-7.81,18.49-16.28,36.69-24.14,55.16-1.94,4.57-4.11,5.4-7.18,1.84-7.73-9-15.18-18.2-22.71-27.35-22.36-27.19-47.65-51.1-77.76-69.63-1-.61-2-3.24-3.33-.84-.55,1,.15,3.49,1.11,4.44,14.11,13.86,29.4,26.67,42.29,41.57,15,17.41,28,36.59,41.86,55,3.39,4.52,2.47,7.06-3.47,8.06-22.84,3.84-45.64,7.95-68.45,12-2.12.38-3.87,1.52-3.64,3.9.28,2.8,2.73,1.95,4.36,1.89,19.08-.6,38.15-1.4,57.23-1.85,3.43-.08,9.3.49,9,4-1.63,21.85-12,41-20.63,60.57-5.18,11.74-12.64,22.45-18.87,33.74-2.68,4.86-4.82,10-7.21,15,12.4-15.34,25.65-29.73,34.68-47.34,10.06-19.62,22.19-38.2,31.82-58,5.18-10.65,8.66-13.34,17.25-3.62,23,26.11,44,53.83,64.06,82.23a16.43,16.43,0,0,0,2.59,2.39,13.94,13.94,0,0,0-.39-3.58,412.29,412.29,0,0,0-46.54-86.32c-2.37-3.39-1.62-6.28,1.9-6.9A223,223,0,0,1,848.55,315c20-1.43,40.12-2.05,60-4.27C925.72,308.79,942.83,306.93,960,306.44Zm-26.71,748.93c2.34.17,1.54-.8.82-2.32-6.81-14.43-13.45-29-20.17-43.53-2.27,1.55-4.8,3.11-7.16,4.9a424.72,424.72,0,0,1-64,40.59c-2.3,1.17-.89,2-.45,3,9.21,20.79,19,41.28,26.89,62.68,10.34,27.94,18.24,56.59,27.36,84.89,1.17,3.63-1.61,6-3.86,8.11-.37.37-2.87-.54-3.44-1.45-10.29-16.45-20.33-33.07-30.65-49.51-15.46-24.62-28.1-50.69-39.85-77.22-2.26-5.09-4.89-14.77-6.54-14.6-9.59,1-21.09,2.85-26.91,10-23.77,29.05-47.88,57.78-74.24,84.47-19.25,19.49-39.77,37.75-60.1,56.15-3.7,3.35-9.19,4.7-13.86,7-1.78-7.21,3-12.17,6.54-17.16,11.07-15.69,22.63-31,34-46.51q8.53-11.6,17.15-23.12,17.39-23.28,34.77-46.54a8.8,8.8,0,0,0,.79-1.7,6.75,6.75,0,0,0-1.92-.22c-14.87,2.7-29.67,5.73-44.89,6-3.84.07-8.87.75-11.2,3.2-4.87,5.12-8.41,11.54-12.33,17.53-9.38,14.35-19.15,28.47-27.84,43.23a390.1,390.1,0,0,0-20.83,40.33c-5.5,12.49-9.15,25.79-13.92,38.62-6.4,17.23-12.15,34.65-16.13,52.61a8,8,0,0,0,.68,4,4.74,4.74,0,0,0,2.74-.35c18.64-10.45,37.73-20.18,55.73-31.64,23.51-15,46.48-30.84,69.06-47.19,15.57-11.28,29.23-24.91,42.9-38.51,14.31-14.24,27.18-29.45,37.74-46.57,2.43-4,4.81-8.65,9.12-9.1s3.19,5.16,4.59,8c17.09,35.17,37.2,68.5,63.14,97.84,14.08,15.92,27.6,33.13,49.1,40.18-.37-1.63-1.34-3.44-1-5,4.46-24.08,3.3-48.24,2.06-72.52-1.17-23-6.72-45.21-10.32-67.76-3.36-21.05-7.31-42-15.65-61.85-1.19-2.84-3.08-7.71-2-8.75,3.22-3,7.37-4,12.65-3.06C912.18,1054.41,922.8,1054.6,933.29,1055.37ZM916.91,504.94c.69-31.09-2.43-61.31-11.18-91.67-7.32-25.44-13.2-51.3-22.87-76-2.18-5.59-5-15.31-9.13-14.74-13.45,1.83-27.3-2.33-40.56,3.43a56.06,56.06,0,0,1,5.28,5.68c24.16,34.42,37.7,74,54.35,112.09a5.51,5.51,0,0,1-1.26,6.44c-2.46,2.32-4.27-.5-5-1.25a173.58,173.58,0,0,1-13.95-16.48C862.17,418,852.38,403.2,841.75,389c-11.93-15.93-24.47-31.41-36.83-47-2.46-3.12-5-7.86-8.06-8.34s-3,5.36-4.54,8.32c-16.9,32.86-35.05,65.08-57.83,94.2C721,453.42,705,468.8,689.92,484.79c-2.26,2.4-5.32,7.64-9.2,3.75-3.13-3.14,1.48-7,3.37-9.32,16.06-19.32,27.64-41.56,40.17-63,11.85-20.26,20.63-42.33,30.36-63.79,6.69-14.79,5.91-17.82-2.66-17.77-30.32.19-60.63.19-91,.51-3.31,0-5.72-2.09-9.67-1.33a192.74,192.74,0,0,1-32.22,2.93c-7.23.15-14.45-2.86-21.78-.45-2.55.83-3.43-.94-4.54-2.65-1.8-2.76.71-2.76,2-3,10-1.83,20.07-4.67,30.19-5.05,26.83-1,52.47-8.68,78.7-12.95,18.95-3.09,37.63-7.9,56.49-11.63,3.54-.71,2.71-1.25,1.25-3.49-17.62-27-40.77-49.23-62.19-72.95-15.5-17.17-33.07-31.93-51.46-45.83-1.86-1.41-4.24-3.83-2.5-6.22.95-1.29,4.34-1.91,6.13-1.33,28.39,9.22,52.64,25.78,75.25,44.54,24.13,20,44.5,43.79,63.07,69.06.74,1,2.34,1.38,3.54,2.05a31.17,31.17,0,0,0,1.65-3.06c6.15-15.44,11.86-31.06,18.49-46.28,9.49-21.74,19.61-43.19,29.58-64.71.67-1.44,2.38-2.4,3.61-3.58a26.42,26.42,0,0,1,2.39,4c3.3,8.65-1.79,16.66-2.3,25.08a221.06,221.06,0,0,1-6,37.76c-4.73,19.65-10.48,39.07-16,58.52-.83,2.93,1.13,2.62,2.16,2.23,9.7-3.71,20.71-.34,30-5.59,2-1.1,5.3,1.75,6-2.42,4.88-28.16,10.57-56.08,12.49-84.8,1.66-24.91,2.11-49.59-.88-74.27-.42-3.45,3.26-21-11-7-3.5,3.44-7.94,6.09-11.72,9.55-26.1,23.84-48,50.92-65,81.94-1.43,2.62-3.64,7-7.85,3.45-7.49-6.33-15.18-12.56-21.8-19.75-14.68-15.95-33.48-26.44-52-36-20.7-10.7-42.91-18.83-65.62-25.55-19.81-5.86-40.29-7.79-60-13.49-2.3-.66-2.82-.2-2,2a285.27,285.27,0,0,0,22.69,46.3c11.77,19.64,27.86,35.45,44.35,51.08a420.62,420.62,0,0,0,43.71,35.67c3.78,2.72,22.8,6.78,3.82,16.36-3.75,1.89-8.43,1.86-12.6,3-16.82,4.58-34,8.14-50.28,14.25S596.57,304,581.26,312.82c-17.12,9.85-34.88,18.56-50.16,31.53,23.68,8.44,48.3,10.88,72.66,14.68,13.77,2.15,27.44,5.28,41.29,6.43,16.7,1.38,33.4,5.48,50.32,1.91,3.75-.79,7.33,1.77,6.58,4.44-1.88,6.69-5.11,13.06-8.26,19.32-5.35,10.65-12.12,20.71-16.37,31.75-7.21,18.77-14.5,37.56-16.75,57.95-2.37,21.38-6.16,42.6-9.2,63.91a4.45,4.45,0,0,0,2.51.93c6.8-.27,9.68-6.72,14.9-9.74,30.87-17.88,58.68-39.87,84.69-64.35a414.88,414.88,0,0,0,54.11-61.39c10-14.1,14.92-7.67,20.86-.86,15.75,18,27.7,39,44,56.86a501.23,501.23,0,0,0,41.15,40.67,24.24,24.24,0,0,0,2.66,1.79A23.83,23.83,0,0,0,916.91,504.94Zm-38.78,674.17c2.68-3.64-.49-5.88-1.28-8.42-5.94-18.88-11.71-37.82-18.37-56.45-4.6-12.86-11-25.08-15.76-37.9-4.61-12.42-9.37-22.09-23.59-9.35-.68.6-2.3-.28-1.19,1.91,10,20,19.35,40.35,30,60C857.17,1145.93,867.87,1162.17,878.13,1179.11ZM759,939.3c12.3-10.34,8.6-26.16-8.88-36.8C753.23,915.36,756.06,927.11,759,939.3Zm14.07,144.15c-11.27,3-21.66,2.82-27.43,7.9-10.29,9.05-17.93,21.17-26.45,32.18-13.17,17-26.11,34.25-39.21,51.35-7.53,9.83-15.17,19.59-22.76,29.38C700.21,1169.45,735.39,1127.49,773.07,1083.45ZM743.32,957.08c2.51-4.89,10-6.9,9-12.75a161.74,161.74,0,0,0-7.66-29.28c-2.13-5.84.55-15.31-5.26-17.1C730,895,723.12,888,714.06,885.08c-.86-.28-1.75-.48-2.63-.72a13.07,13.07,0,0,0,0,2.34c3.57,21.12,8.46,41.91,17.11,61.57,3.18,7.22-.88,7.05-5.66,7-8.09,0-16.27-.85-24.26,0-12.25,1.32-24.37,3.79-36.55,5.76-16.81,2.71-33.9,4.27-50.34,8.39a419.31,419.31,0,0,0-55.82,18c-24.61,10-49.36,19.92-72.13,33.87-3.07,1.88-5.42,4.94-8.1,7.46.66.38,1.3,1,2,1.11,14,1.19,26.14,8.55,39.63,11.89,24.77,6.14,49.57,11.24,75,13,14.1,1,28.66-1.66,42.36.87,10.29,1.9,19.78.43,29.12-1.19,7.81-1.35,18,.27,22.26-11.22,3.16-8.44,9.51-15.68,14.79-24-19.28-.93-37.85,2.31-56.54,3.43-25.72,1.55-51.61.45-77.42.23-1.94,0-3.86-2-5.78-3.13,1-1.4,1.7-3.63,3-4.07,11.25-3.77,22.46-7.84,34-10.61,17.16-4.12,34.29-8.2,51.92-10.6,23.36-3.18,46.4-8.84,70.1-9.39,4.16-.09,6.46-2,8.34-4.73C733.6,972.75,739.12,965.25,743.32,957.08ZM717.51,995.2a36.55,36.55,0,0,1,2-3.66c-1.61-.15-3.81-1-4.72-.32-3.39,2.7-7.21,1.18-10.77,1.82-18.2,3.27-36.27,7.69-54.61,9.64-18.53,2-35.94,8.41-54.23,11.33,8.75,1.31,17.19-.73,26.1.32,21,2.46,42-2.37,62.93-2.87C698.88,1011.12,711.07,1010.32,717.51,995.2ZM496.34,1394.79a15.3,15.3,0,0,0,2.41-2.92,31.73,31.73,0,0,1-3.08-.83c-24.73-9.25-50.76-11.23-76.68-14-24-2.6-47.79-4.58-72.1-2.79-28.8,2.12-56.9,7.77-85.19,12.59-4.74.81-9.2,3.32-13.95,4.09-16,2.59-7.46-9.79-7.33-14.48.38-14.06,3.69-28,4.34-42.1,1.27-27.73,2.21-55.51,1.91-83.26-.17-16.13-2.23-32.39-9.61-47.31-1.75-3.56-1.94-3.71-8.75,5.08-8,10.32-15.74,20.85-23.38,31.44-18.36,25.42-32.29,53.48-45.24,81.74-10.2,22.27-18.9,45.66-20.88,70.7-.12,1.49-1.32,3.76-2.46,4.09s-3.37-.79-4.49-1.9c-20.62-20.55-44.3-37.25-67.86-54.08v42.79c6.38,4.23,12.75,8.47,19.09,12.78,25.43,17.3,48.81,37.12,71,58.52,7.14-24.64,13.47-49.27,22.51-73.15,9.55-25.23,17.42-51.09,26.49-76.5,3.41-9.53,8.09-18.62,12.36-27.82.59-1.26,2.5-3.08,3.27-2.85,2.09.63,4.3,1.71,4.31,4.72.08,22.06-1.3,44-5.51,65.68-3.29,17-5.12,34.27-8.69,51.2-2.93,13.88-7.52,27.41-11.21,41.13-.59,2.17-.31,4.56-.43,6.85,1.38-.38,2.74-.87,4.14-1.14q26.67-5.07,53.34-10.09c17.9-3.34,35.71-7.43,53.74-9.69,18.87-2.37,38-3.1,57-4.25,15.08-.92,30.18-1.39,45.27-2,2-.09,4.47-.4,4.51,2.48,0,2.17-1.62,3.32-3.93,3.66-27.22,4-52.2,15.78-78.59,22.68-15.56,4.07-31.35,7.29-46.91,11.39-10.94,2.88-21.66,6.59-32.49,9.91-11.37,3.48-22.79,6.8-34.09,10.52-2.41.79-4.35,3-6.52,4.54,3,2.2,5.81,4.68,9,6.55,20.78,12.14,39.18,27.4,57.23,43.16,21.14,18.46,42.81,36.36,63.25,55.56,9.47,8.89,18,18.75,26.61,28.6h52.87c-12-17.7-26.1-33.77-41.17-48.91-11.44-11.5-25.3-20.83-38.95-29.8-14.89-9.77-30.81-18-46.24-26.92a5.4,5.4,0,0,1-2-7.32c1.58-2.79,4.28-3.9,8.14-5.08,8.93-2.72,18.3-4.11,27.06-7.39,17.19-6.42,34.75-12.12,51.33-19.88,22.25-10.42,43.78-22.36,63.57-37.2C460.83,1420.38,478.68,1407.71,496.34,1394.79ZM354.52,1616h7.7a18.66,18.66,0,0,0-2.07-2.27C341,1596.57,321.43,1579.85,302,1563c-28.5-24.65-57-49.32-88.85-69.69a90,90,0,0,1-10.45-7.31c-3.51-3-10.87-4.64-8.25-10.73,2.2-5.09,9.14-4.91,14.33-6.4,18.89-5.42,37.61-11.47,56.62-16.4,20-5.18,39.81-10.87,60.33-13.78,6.86-1,13.39-4.25,20.07-6.47-.09-.61-.19-1.22-.29-1.83-12.48,1.63-25,3.15-37.44,4.92-12.61,1.78-25.14,4.29-37.8,5.64-26.13,2.78-51.29,9.74-76.36,17.06-6.15,1.8-6.79-.86-5.82-5.26,4.78-21.66,10.3-43.18,14.57-64.94,3.49-17.71,5.73-35.68,8.25-53.57a188.88,188.88,0,0,0,2.05-30.21c-2.62,7.41-5.12,14.87-7.88,22.23-6.3,16.79-13,33.42-19,50.33-6,17.12-11.48,34.45-16.94,51.77q-5.21,16.51-9.67,33.25c-1.91,7.1-5.78,2.54-7.46.9-24.91-24.4-52.63-45-81.88-63.92-2-1.3-4-2.56-6.1-3.82v12.31c5.26,5.26,10.55,10.5,15.92,15.65,15.49,14.87,29.49,31.16,45.32,45.79,10.33,9.56-3.76,11-8.18,12.06-18.07,4.56-35.6,10.64-53.06,16.92v23.89c4.76-2.17,9.59-4.22,14.37-6.33,12.87-5.69,26-10.73,39.16-15.82,1.16-.45,3.33.39,4.37,1.36a4.46,4.46,0,0,1,.7,3.94c-7.59,21.26-15.42,42.44-23,63.71Q91.14,1592.06,83,1616h6.56c8.42-17.48,16.72-35,25.39-52.37,12-24,24.34-47.81,36.73-71.6,2.94-5.66,7.58-4.68,12.19-1.87,19.5,11.88,39.43,23.12,58.39,35.81,17.69,11.84,36.44,21.88,53.93,34.13C302.49,1578.51,329.74,1595.5,354.52,1616Zm-4.11-604.72c2.7-6.28-3.52-4.53-5.71-4-13.55,3.1-27.66,3-41,7.69-15.57,5.53-30.77,11.26-45.58,19.13-25.22,13.4-47.74,30-69.13,48.48-7.51,6.48-15.4,13-20.15,22.2-.53,1-2.75,2.37-3.26,2.06a5.65,5.65,0,0,1-2.58-3.67c-2-28.62-2.62-57.47-8.41-85.61-3.5-17-6.56-34.2-12.84-50.75-5.24-13.81-7.2-28.84-10.88-43.25-4.23-16.56-7.21-33.46-15.15-49-1.85-3.62-2.64-8.08-4.74-11.91-1.69-3.1-1.22-7.32-4.85-9.46-1.69,3.36-3.57,6.64-5,10.09-7,16.1-14.21,32-22.58,47.47-5.92,10.93-10,22.88-14.54,34.54v235.34c7.06,1.89,14,4.14,20.43,7.93a2.5,2.5,0,0,0,2.38-.61c.87-1.52,2-3.34,1.87-4.9a598.27,598.27,0,0,1-3.25-92.24c.54-13.38-.86-26.83-.37-40.21.9-24.31,2.14-48.62,4-72.86,1.17-14.8,3.75-29.48,5.93-44.18.45-3,2.29-6.43,5.59-6.38,4.29.06,6.09,4.07,6.33,7.68,1.54,23.09,3,46.19,4,69.31,1.11,25.92,1.25,51.89,2.59,77.79,1.32,25.37,3.52,50.69,5.56,76,.45,5.6,1.84,11.13,2.77,16.59,12.34-12.17,26.92-21.91,40.07-33.26,16.22-14,33.76-26,51.37-37.91,18.79-12.76,37.86-25.09,56.93-37.44,2.59-1.68,6.32-2.78,8.46.41,3.31,4.92-2.38,7.73-4.41,10-20.33,22.73-40.81,45.55-64.77,64.45-25.5,20.12-47.39,43.58-68.8,67.68a21.29,21.29,0,0,0-2.25,4c1.21-.49,2.49-1.52,3.62-1.39,13,1.57,25.92,3,38.78,5.13,8.48,1.38,17,4.51,25.07,5.51,4.23.51,10.69-9.28,14.55-15.42,7.91-12.61,20.64-20,30.57-30.46,13.35-14,26.52-28.1,36.59-44.72,12.15-20,24.85-39.8,35.74-60.51C333.54,1051.42,341.82,1031.24,350.41,1011.28ZM270.69,1616h70c-15.54-11-31-22.13-46.8-32.8-27.79-18.78-56-36.91-84.43-54.81-14.33-9.05-29.94-16.15-43.93-25.67-13.48-9.18-13.4,4.93-15.93,9.43-9.42,16.79-17.06,34.58-25.36,52q-11.58,24.28-23.17,48.56c-.52,1.1-1,2.2-1.55,3.3h20.54c8-9.16,15.62-18.65,23.31-28.07,6.93-8.47,13.19-17.49,19.79-26.24,1.67-2.22,3.83-3.5,7.36-3.82,10.13,6,20.36,11.81,30.38,18C223.79,1589.93,246.5,1604.31,270.69,1616Zm76.14-305c-9.67-18.06-19.05-35.45-31.87-50.62-20.07-23.74-41.42-46.07-68.95-61.44-.87-.48-1.72-1-2.58-1.47a14.29,14.29,0,0,0,.49,3.69c2.72,6.72,5.88,13.11,7.72,20.36s-1,16.59,8.11,21.38c15.74,8.27,32.07,15.73,44.17,29.47,1.35,1.53,4.2,2.83,2.72,5.17-.74,1.16-3.72,1.84-5.31,1.4-12.63-3.51-24.41-9.94-37.78-11-2.68-.2-5.45-.62-8-.13-.5.1-1.08,4.37-.24,6,3.17,6.24,2.09,12.6,1,18.85-3,16.8-1.95,17.9,15.61,18.3,9.71.22,19.63.33,29.05,2.36C316.72,1316.79,331.69,1314.09,346.83,1311Zm-90.1-52.48c7.29.25,14,2.35,21.17,3.47-6.43-3.66-12.8-7.43-19.35-10.83-.75-.39-2.56-3.93-3.19-.68C254.89,1253,253.08,1258.4,256.73,1258.52ZM131.36,1616h119l-3.35-1.76c-22.88-12.18-44.82-26.14-67.13-39.39-1.61-1-2.78-2.65-4.34-3.73-13.56-9.34-13.6,6.94-17.44,11.21-8.32,9.24-15.19,20-23.37,29.73Q133.06,1614.06,131.36,1616Zm91-497.59a124.78,124.78,0,0,0,27.92-29.7c-13.82,9.58-27.72,19-41.46,28.75a924.09,924.09,0,0,0-82.74,65.43c-1.34,1.2-1.78,3.39-3.11,4.62-2.44,2.26-5.22,5.79-7.86,5.79-4,0-1.88-4.45-2.1-6.94-2.13-24.57-4.52-49.13-6-73.74-1.53-24.9-2-49.87-3.21-74.8-.75-15.93-2.2-31.83-2.72-47.77-.46-14.59-.1-29.2-1.17-43.88-.93,4.84-2.32,9.64-2.68,14.52-1,12.9-1.49,25.82-2.12,38.74-1.07,22-3.07,44-2.92,66,.27,38.93,1.4,77.88,3.19,116.78.56,12.27-.92,17.31-14.63,13-5.52-1.72-11.1-3.25-16.71-4.67v18.66c6.72,2.54,13.44,5.08,20.18,7.56,2.91,1.08,7.73,1.74,7,4.6-.8,3-4.74,6.1-8,7.41A186.22,186.22,0,0,0,64,1237.9v19.89c7.66-2.91,15.35-5.77,22.89-9,19.17-8.13,16,8.31,16.89,16.29,3.41,31.2,6.83,62.31,11.81,93.35,2,12.39,9.25,17.47,16.24,23.81,2.35-9.54,5.4-18.94,6.81-28.59,1.11-7.58-5.26-13.7-6.07-21.55-1.29-12.51-5.25-24.72-7.18-37.2-2-13.27-2.38-26.81-4.65-40-2.29-13.36,5.87-15.72,15.52-15.8,17.73-.15,35.42-.89,53.17,2.62,6,1.19,7.19-9.38,13.24-13.23-25.27-.49-48.8-7.28-73-5.67-2.12.14-5.11-1.83-6.47-3.71-1.58-2.19,1.18-4,2.45-5.87,12.6-18.4,27.8-34.64,44-49.71C186.58,1147.82,203.72,1132.28,222.35,1118.41ZM184.26,1255c1.6-3.14,1.33-6-3.31-6-11.46,0-23-.9-34.34.41-5.07.58-12.86-2.63-16.79,5.8,4.54,4.76.16,13.19,8.85,15.65,5.52,1.56,10.74,4.24,16.29,5.56,5.73,1.36,12.46,6.42,17.35,0S180.52,1262.31,184.26,1255Zm-23,43.43c6.47-9.64,1.31-10.47-5.94-12-2.27-.47-4.28-2.08-6.52-2.86-4.43-1.53-8.93-2.86-13.4-4.27-.27,5.38-.68,10.62.92,16.05,3.32,11.22,5.9,22.65,9.3,36.06C151.25,1319.32,154.91,1308,161.29,1298.46ZM112.36,1513c.2-.45.17-1.45-.07-1.57a2.55,2.55,0,0,0-1.88-.12c-12.36,4.89-25.29,8.79-36.82,15.2-5.66,3.15-4.6,12.3-5.36,18.75C66.9,1556.6,65.34,1568,64,1579.35V1616H74.32c3.82-12,5.6-24.51,10.52-36.12,5.87-13.83,10.79-28,16.43-42C104.69,1529.48,108.67,1521.28,112.36,1513Zm-5.29-38.7c23.48-10-2.54-13.44-4-15.87-6.73-10.8-17-19.44-26.16-28.66-4.26-4.27-8.55-8.49-12.86-12.71v35.72c6.81,8.48,13.58,17,19.79,25.92,4.41,6.34,9.7-3.71,15.5-2.26C101.57,1477,104.58,1475.32,107.07,1474.26Zm-2.19-114.62a46.26,46.26,0,0,0,0-5.4q-4.91-36.08-9.91-72.14c-.22-1.57-.43-3.14-.64-4.71-1.17.79-2.28,2.12-3.53,2.27-7,.8-10.78,7-16.76,9.54q-5,2.16-10,4.41v35.83C77.83,1338.77,91.23,1349,104.88,1359.64ZM91.6,1268.49c2.28-1.76.9-8.24,1.19-12.56-3.85,1.3-7.81,2.35-11.54,3.94q-8.62,3.66-17.25,7.36v16.29l5.33-2.62C77,1277.1,85,1273.65,91.6,1268.49ZM73.73,1484.11c7.42-2.72,1.65-6,0-7.54q-5.09-4.68-9.75-9.67v20.83Q68.86,1485.9,73.73,1484.11ZM79,1221.92c-5-2.13-10-5.28-15-7.05V1229C68.91,1226.57,73.9,1224.23,79,1221.92ZM56,1618.34V61.66l-48-48V1666.34Z"/><path d="M478.45,528.23l0,0ZM626.61,422.85c1.77,8.69-4,22.6-12.67,22.14-25.05-1.32-50.08-3.12-75.14-4.48-13.83-.74-27.7-1-41.55-1.42a16.21,16.21,0,0,0-2.84.41,9.22,9.22,0,0,0,.81,2.05c13.63,19.52,22.39,41.5,31.81,63.14,8.54,19.6,17.29,39.1,25.42,58.86,6.58,16,12.42,32.25,18.47,48.43,1.17,3.13,1.31,7.59-2.14,8.19a26.09,26.09,0,0,1-13.39-1.74c-24.64-9.76-49-20.2-72-33.45-15.95-9.19-31.8-18.66-45.18-31.65-3-3-6.81-5.13-10.15-7.59-11.57,18.75-29,32.39-45.49,47.14-13.29,11.92-28.73,20.6-44,29a602.72,602.72,0,0,1-70.93,32.57c-9.64,3.75-19.4,8.1-29.69,10.34-1.22.26-3.91-.78-3.89-1.11.23-4.26-.15-8.93,1.5-12.67,14-31.7,28.8-63.08,42.63-94.86,8.6-19.74,18.23-38.79,30.56-56.46a6.23,6.23,0,0,0,.52-2.15,9.69,9.69,0,0,0-2.65-.54c-13.89,1.11-27.77,2.48-41.68,3.33-4.44.27-9-.79-13.46-1.25-19.53-2-39.17-3.24-58.55-6.2-20.58-3.15-41.27-6.29-61-13.63-1.78-.67-4.27.38-5.9-.43-4-2-10-2-10.94-7.66-1-5.85,3.94-8.42,8-11.21,15.28-10.55,30.75-20.85,45.76-31.76,18.92-13.74,40.24-22.89,61-33.27,22.52-11.28,47.06-16.91,70.45-25.76,1.75-.66,3.95-.09,6.66-.09-20.81-27.53-40.74-54.6-63.74-79.34a514.86,514.86,0,0,0-41.72-39.76c-2.31-2-5.95-5.4-5.44-7.08,1.2-4,4.79-6.69,9.33-8,20.39-5.84,39.81-1,59.68,3.7,23.25,5.49,43.36,17.21,63.66,28.65,26.63,15,45.93,38.06,64.75,61.45,1.06,1.31,1.2,3.33,2.17,4.75,2.18,3.21,4.61,6.25,6.95,9.36,2.76-4.25,5.66-8.41,8.28-12.74,18.41-30.37,39.9-58.11,66.52-82,6.67-6,14.23-10.72,20.59-17,2.4-2.37,4-6.35,8.91-5,6,1.65,5.86,7,6,10.89.55,17.54-1.42,34.86-4,52.29-3.52,23.56-7.56,47-14.12,69.8-4.19,14.54-4.58,30.33-13.16,43.57-.63,1-.41,2.5-.58,3.78,4.29.11,9,1.47,12.78.09,9.14-3.38,18.33-1.61,27.34-1.28,11.23.42,22.55.12,33.6.86,18.27,1.22,36.72.25,55,4.09C618.2,412,624.4,411.94,626.61,422.85Zm-9.92,17.45q.09-11.76.19-23.54c-2.86.1-5.73.34-8.59.28-30.62-.63-61.23-1.83-91.85-1.82-26.48,0-53,1.4-79.43,2.21-5.17.16-10.53-2.84-9.53-6.95,3.25-13.4,8.33-26.35,12.57-39.53,3-9.22,8.05-17.78,8.86-27.7-3.53,2.29-4.58,6.21-6.5,9.64-11,19.61-22.25,39.11-33.37,58.68-2.15,3.76-4.9,5.45-8,1.52a142.36,142.36,0,0,1-9.36-13.89c-17.61-28.53-38.72-54.34-61.43-78.89-.7-.76-2.25-.73-3.41-1.06,0,.67-.22,1.52.1,2,8.31,12.72,15.69,26.22,25.27,37.9,13.93,17,21.53,37.43,33,55.67,2.35,3.74.77,5.95-3.22,6.77-6.5,1.33-13.21,2.29-19.64,3-22.94,2.63-45.9,4.7-68.31,10.55-1.41.37-2.54,1.81-3.8,2.75,1.14.33,2.3,1,3.41.94,19.84-1.57,39.45-5.07,59.36-6.5,9-.64,17.83,2.36,27.23-.9,7.75-2.69,18.29-2.27,14.73,11.89-1.89,7.57-4.05,15.25-6.47,22.49-7.47,22.37-18.34,43.39-30.94,63.38-5.83,9.24-12.42,18-20.93,30.21,17.22-14.66,28.21-29.53,38.13-44.86A244.66,244.66,0,0,0,406,444.9c.8-3,2.48-5,5.35-5.75a3.77,3.77,0,0,1,3.2,1.62,355.11,355.11,0,0,0,28.25,47.38c10,14.19,20.51,27.8,34.17,38.68a8,8,0,0,0-.6-2.65c-14.76-24.83-31-48.83-42.59-75.43-2.25-5.15-7.58-10.73-4.73-15.88,2.66-4.8,9.72-1.86,14.71-1.84,39.62.19,79.25-1,118.81,3.46,13.17,1.48,26.47,1.95,39.59,4.32C606.92,439.68,611.83,439.83,616.69,440.3Zm-58.25,170a6.55,6.55,0,0,0,2.18.1,6.12,6.12,0,0,0-.19-1.83c-7-16.84-13.44-33.94-21.17-50.45-7.87-16.81-13.36-34.56-22-51.12-9.35-17.94-16.09-37.22-25-55.39-2.08-4.22-2.56-11.89-8.69-12.24-13.83-.8-27.74-.13-41.61-.23-2.56,0-3.51.78-2.64,3.09,9.79,26,25.9,48.54,40.19,72,8.78,14.42,20.1,27.29,30.19,40.91,1,1.31,1.35,3.06,2,4.6-2.35.22-5.24,1.41-6.93.46-4.29-2.42-8-5.93-12-8.77-36.23-25.26-60.11-60.62-81.22-99.94-.27,3.33,0,5.53-.66,7.4-11.29,31.18-26.27,60.42-48.5,85.24C348,560.2,333,575.9,314.39,587.44c-1.94,1.2-5.31,2.68-6.59,1.84-2.6-1.7,0-4.25,1.17-5.93,6.21-8.85,12.5-17.65,19-26.27a447.69,447.69,0,0,0,33-50.47c9.79-17.35,16.57-35.92,23.23-54.55,1.35-3.76,1.59-7.92,2.34-11.9a64.08,64.08,0,0,0-8.05-.5c-2.71.15-5.39,1.28-8.09,1.34-9.5.2-19.11-.77-28.48.34-29.5,3.51-58.93,7.64-88.35,11.79-10.7,1.51-21.32,3.62-31.93,5.74-7.26,1.45-14.37,3.67-21.65,4.92-2,.35-5.66-1-6.38-2.52-1.2-2.59,2.53-2.1,3.94-3.14,3.54-2.61,8.29-2.14,12-3.65,27.43-11.07,55-21.39,83.82-28.55a460.61,460.61,0,0,1,66.87-11.07c4.85-.47,9.62-1.85,14.42-2.81-2.25-4.35-4.38-8.78-6.78-13.06-8.82-15.78-17.91-31.36-28.91-45.82-9.38-12.33-17.9-25.33-26.81-38-9.23-13.14-21.5-23.37-32.81-34.54-1-1-.91-3.14-1.32-4.76,1-.24,2.29-1,3.1-.65,22.45,9.17,40.66,24.31,57.36,41.41,14.39,14.74,26.9,31.07,39.15,47.6,9.23,12.45,18.59,24.78,26.77,40,3.94-8.27,6.92-15.8,10.94-22.71q21.58-37.06,44-73.66c1.49-2.42,3.38-7.78,7.51-6.13s2.81,6.9,1.89,9.94c-3.91,12.92-8.55,25.61-13,38.37-6.21,17.86-12.52,35.69-18.59,53.6-.32,1-1.88,3.93,1.59,3.87,10.17-.15,20.33-.42,30.5-.55,2.21,0,3.12-.28,3.78-3,2.75-11.54,6.37-22.87,9.23-34.39,3.75-15.14,7.4-30.31,10.5-45.6,2.56-12.61,2.74-25.91,6.71-38,5.5-16.76,1.92-33.85,6.5-52.35-16.95,15.7-32,29.61-45.93,44.91-17.74,19.44-30.75,41.74-45.7,62.91-2.72,3.85-3.47,28.07-16.89,8.6-27.33-39.64-60.87-70.48-105.16-90.51-25.61-11.57-51.76-17.16-79.33-18.34-1.82-.08-3.7,1.41-5.55,2.16.58,1,.93,2.32,1.78,2.95,11.71,8.58,23.6,16.7,32.91,28.34s21.1,21.69,30.49,33.46c12.35,15.49,23.52,31.93,35,48.09,5.19,7.31,13.62,15.27-2.4,20.4-12.54,4-25.2,7.82-37.4,12.73-24.32,9.78-48.89,19.29-71.35,33-25.25,15.38-49.9,31.74-75.48,48.11,13.51,2.61,26.49,4.29,39,7.71,18.56,5.07,37.71,5.41,56.49,8.57,13.56,2.28,27.4,1.79,41.06,2.75,16.09,1.12,31.77-.58,47.59-2.17,5.43-.54,11.05-1.3,15.34,2.66,1.17,1.08,1,5.27-.17,7-15.36,22.69-26.12,47.73-37.53,72.45-13.1,28.39-26.4,56.7-39.91,85.67,18.93-7.57,37.83-13.6,55.29-22.45,26.17-13.27,52.68-25.89,75.81-44.9,17.23-14.16,33.66-28.72,47.33-46.26,4.7-6,8.76-6,13.93-1,15.11,14.58,32.34,26.35,50.7,36.26A675,675,0,0,0,558.44,610.31Z"/></svg>