<svg xmlns="http://www.w3.org/2000/svg" xmlns:xlink="http://www.w3.org/1999/xlink" viewBox="0 0 976 1600"><defs><style>.cls-1{fill:none;}.cls-2{fill:#f4f3ef;}.cls-3{clip-path:url(#clip-path);}.cls-4{fill:#6060bf;}.cls-5{fill:#50b271;}.cls-6{fill:#592116;}.cls-7{fill:#992d17;}</style><clipPath id="clip-path"><path class="cls-1" d="M960,22V1578a6,6,0,0,1-6,6H22a6,6,0,0,1-6-6V22a6,6,0,0,1,6-6H954A6,6,0,0,1,960,22Z"/></clipPath></defs><g id="Paper_Backing" data-name="Paper Backing"><path class="cls-2" d="M960,22V1578a6,6,0,0,1-6,6H22a6,6,0,0,1-6-6V22a6,6,0,0,1,6-6H954A6,6,0,0,1,960,22Z"/></g><g id="Wikipedia_Cropped" data-name="Wikipedia Cropped"><g class="cls-3"><path class="cls-4" d="M304,818.13c-19.18-11.68-42.9-16.49-29.51-43.66-2-8.35,11.27-18.45,2.51-24.79-16.57-10.75-67.13-50.66-36.72-62.15,20-15.69,69.46-2.79,70.74-26.73,38.06-126.29,41-14.85,82.76,9.72,116.88-14.2,44.47,13.06,23.58,66.43,6.3,21.57,18.93,45.73,16.23,67.94-25.88,5.06-55.06-12.66-81-19.92C336.78,793,321.64,811.33,304,818.13Zm205.81-123c-67.27,7.84-1.36-46.43-7-71.16-20.5-19.61-50.35-35.78-54-60.65,20.35-13.78,54.19-17.55,80.46-14.64,11.58-2,22.81-94.22,45.2-75.49,19.13,16.11,26.53,40.74,41,57.7,18.23-4.83,105.3-17.61,67.76,21.66-7.29,25.49-38,40.32-37.13,53.85,7.36,13.49,48.27,74,15,71.05C551.28,645.27,595,695.53,509.76,695.15Zm-367.35-28.6c-13.5,2.36-33-12.11-28.46-26.86,18.78-27.07,63.76-15.59,93.27-10.49C231.76,638.68,154.94,671,142.41,666.55ZM854.9,647c-21.94-1.87-43.66-10.51-59.23-20.21-4.27-14.83,30.21-19.63,39.58-20.25C862.67,600.87,898.63,641.77,854.9,647ZM275.72,580.78c-15.23-17.67.82-54.64,10.38-68.88,12.15-18.13,43.09-18.91,38.25,9.94C316.51,542.4,298.26,570.55,275.72,580.78ZM762,566.08c-7.44-.4-5.14-10.35-2.46-14.4C806.58,451.77,869,538.64,762,566.08Zm-551.52-1.36c-89.8-29.93-49.83-129.15-8.52-52.11C205.66,526.9,222.44,552.45,210.46,564.72Zm263.11-98.47c-23,1.65-75.15-16.43-56.07-48.54,22-23.47,53.42,11.83,74.25,22.64C524.91,457.14,495.31,465.94,473.57,466.25Zm193.16-21.42c-53.55-.35,10.78-38.65,34.37-38,25.85-3.42,46.74,24.71,15.28,33.76C701.07,442.71,684.85,444,666.73,444.83Zm-56.5-80.28c-9.33-3.14,0-18.12,3.59-23.74C666.39,262.82,715.75,340.33,610.23,364.55ZM465.33,359c-25.21,6.78-97.27-25.89-45.51-45.53C433.34,312.65,506.9,356.8,465.33,359Zm99.48-68.13c-16.68-12,2.56-38.83,6.65-54.12C607.53,185.38,636.83,253.23,564.81,290.87Zm-94.64-48c-102.84-31.48-63.26-124.75-11.62-37.65C460.67,215.81,480.75,235.45,470.17,242.89Z"/><path class="cls-5" d="M660.6,1281.23c-23,1.81-42.61-9.2-65.19-7.74-37.06,1.3-81.9,11.94-109.25-19.67-32.91-36.61-49.53-31.24-89.45-49.55-34.65-16.38-34.77-53.76-58.27-76.52-16.3-10.75-26.24-30.83-42.24-40.29-21.22,19.52-52.31,19.64-79.62,20.83-38.72,5.36-60.49-20.6-97.63-21.67-44.09,5.6-86.83-9.95-116.09-42.36-5.46-4.75,4-16.43-6.38-17.78-2.43-.77-2.79-3.75-3.29-5.87-2.82-45.93,21.33-88.08,60.17-113.52,29.11-22.69,32.44-67,67.83-85.12,28.24-12.48,56.88.45,83.68-11.47,34.92-23.25,111.66-10.56,100.6,43.68a6,6,0,0,0,2.91,7.5c9.14,3.26,9.05,12.9,15.2,17.33,20.47-5.72,41.4-29,68-26.27,14.42-1.71,27.63,7.29,40.81,8,10.44-19.72,37.13-18.41,56.25-19.57,6.77-18.9,19.49-36.79,42.86-44.35,4.94-1.48,4.12-6.56,3.48-10.6-1-6.55,6.42-8.31,4.39-14.27-1.68-7.8,3-13.39,7.09-18.51.48-20.67-6.43-40.92,12.1-61.5,49.31-55,67,8.85,170.2-24.87,53.73-3.38,60.64,57.67,95.09,84.3,37.41,27,39.42,89.76,81,110.73C936.62,883.16,922.56,941,881,939.17c-26.79-.5-52.5,28.78-78.17,23.93-61.69-16.35,1.92,43.6-6,74.22-5.19,19.78-16.13,37.59-11.71,58.75,10.6,35.56-16.38,59.86-34.75,87.3C726.83,1224.88,720.63,1290.72,660.6,1281.23Z"/><path class="cls-6" d="M905,854c-41.61-25.49-36.31-78.94-76.67-107.07-11.63-10.29-23.41-21.07-28.93-35.57-15.41-47.22-70-63.93-112-41,14-36.54,46.83-29.35,78.17-38.86,41.74-10.9,45.61,23.65,96.49,19.07,7.2-.58,15.61-4.88,18.65-12.82,5.22-35.74-49.84-41.22-71.72-29.85-11.39,5-20.76,14-35,13.51-19.58.65-39.08,7.29-58.82,9.64,10.43-14.38,19.89-28.63,30.68-41.79,5.06-6.17,7.26-15,15.94-18.18,9.94-3.66,19.67-7.92,29.61-11.58s16.62-11.82,24.74-18c26.92-21.28,10.79-49-20.72-39.27-17.38,7.58-27.87,22-36.19,37.77-4.57,8.68-3.3,21.21-9.14,28.32-26,30.13-47.83,64.16-72.22,95-5.14-17.9-10.63-35.75-21-51.31-4.77-7.3-5.71-10.71,2.11-16.73,18.54-15.37,32.72-38.49,39.56-61.39.89-8.71-6.26-10.45-14-12.32-18.94-4.58-37.38-.81-56,.86-4.55.41-9.79,6.45-13.6.59-8.14-12.55-15.29-25.76-22.92-38.65-1.56-2.62-2.55-4.5.88-6.82,14.4-9.71,29.17-20.4,43-30.71a3.33,3.33,0,0,1,2.47-.39c12,4.2,24.12,4.5,36.41,4.79,16.48.38,33.34.72,48.37-6.36,48.78-26.48-15.77-64.74-57.17-32.66-13.24,7.7-21.39,21-34.47,28.15-15.52,10.43-31.32,20.54-46.49,31.54-1.93,1.39-2.69.69-4.47-.47-11.27-7.37-11.62-19.93-15.54-30.91-3.72-10.41-6.48-19.85,3.95-28.44,4.36-3.59,6.49-9.92,10.89-13.44,10.79-8.63,13.87-26.07,30.74-27.49,22.14-2.2,39-17,57.37-28,10.1-6.19,14.93-15.49,12.75-26.69-19-35.84-59.4-2.07-71.86,22.68-4.75,7.62-4.48,17.06-11,24.23-13.53,14.89-26,30.72-39,46.12-1.42,1.77-3.19,1.53-3.71-.88-6-16.61-12.62-33-17.8-49.91-2.55-8.32-12.45-16.86-4-25.89,9.94-10.6,13.56-25.5,29.12-32.81,27.27-11.92,75.83-56.36,45.84-85.07-35.94-14.74-52.38,35.35-55,62.89-.64,7.07-.69,14.55-4.39,20.32-6.66,10.68-15.85,19.72-23,30.12-8.73-8.12-9.57-21.2-14.74-31.59-8.82-21.9-27.37-38.48-33.32-62.17-2.51-10-7.52-19.43-12.19-28.92-8-16.15-15.56-31.55-32.75-39.81-15.78-9-40.72,1.94-35.54,21.78,23.28,59.23,74.11,46.76,83.74,75.7,4.81,13.68,15.4,25.21,21.51,38.57,8.76,19.19,15.79,39.16,23.57,58.8.7,1.77,2,5-1.25,4-45.92-6.54-58-47.56-101-57.22-28-5.81-38,33.49-13.18,45.41,21.3,11.75,44.44,12.79,67.88,8.19,11.19-2.2,19.76,4.9,28.55,8.7,24.58,6.7,25.9,4.82,34.27,31.59,6.52,19.09,13.06,38.17,19.35,57.34.81,2.46-.7,1.16-2.07.71-9.05-3-18.13-6-27.34-8.53-7.29-2-16.33-1.14-21.9-5.22C487.52,429.58,466.28,413,440,404.07c-43.29-7.79-40.66,45.62-7.57,59,20.87,7.4,45.06,11.65,66.18,3.6,19.64-12.75,26.6-9.39,47.22-1.4,4.28,1.57,13.39,2.86,12.17,4.7-12.62,22.27-24.55,45-29.07,70.35-.17.87-1.19,2.37-1.41,2.3-24.63-4.36-50.78,2.74-74,10.71-9.31,3.78-18.78,7.89-8.63,20.24,5.42,6.61,10,14,16.11,19.95,11.67,11.39,24.05,22.08,36.31,32.86,3.63,3.18,3.91,2.87,2.53,4.62-11.37,14.35-19.86,30.36-24.13,48.05-1.51,6.26-7.18,13.11-1.17,20.35,2.81,3.38,5.64.06,8.33.34,21.26,3.1,42.5,1,63.81-.88-3.5,12.52-9.53,24.17-6.06,38.08.67,3.06,2.31,6.49,1.08,10.65-3.11,10.51-10.24,19.3-11.42,30.89-.43,4.26,2.18,11.31-3.9,14.48a85.34,85.34,0,0,0-35.87,34.75c-2,3.58,1.71,13.55-6.91,10.8-16.93-5.42-40,1.08-51,16-.76,1-1.59,3.35-4.27,1.85-31.3-19.47-69.56,4.58-67.34-6.82.59-18.7-6.38-38.15-.22-56.23,23.06,7.82,45,19.83,70.22,17.31,3-.22,7.84,3.42,8.09-3.25-.62-24.07-6.74-49.11-18.1-70-.63-2.33-.26-4.65,2.14-7,14.81-14.24,25.46-31.41,37.27-47.74,3.43-4.75,7.08-14.43-.59-17.09-44.34-16.24-72,11.16-76.61-9.23-1.56-9.44-37.91-75.82-47.94-59.72-17.83,17.65-21.89,41.93-31.22,64.19-2.35-3.9-7.92-4.18-9.63-9.2-.84-2.49-3.74-4.45-6-6.23-17.33-13.18-21.47-34.75-12.56-53.63,3.57-7.77,11.82-8.27,17.1-13.29,18-20.29,50.8-48.76,34-78.16-7.46-12.06-24.48-11.91-39.61,1.83-14.6,13.25-19.3,31.85-22.11,50.6-2.36,15.85,5.83,32.32-.15,48-1.38,2-2.83,11.35-5.65,9.57-3.89-4.4-8.8-8.33-11.31-13.42-7.52-15.23-26.88-21.59-27.23-43.1-1.23-25.19-19.22-81.37-51.76-76.3-13,2.46-19.88,12.82-20,26.44-.68,42.1,42.56,53.81,70.15,73.39,13.23,12.52,22.94,28.76,34.33,43.26,1.36,1.73,2.07,2.11-.64,2.41-18.33,2-36.5,4.3-54.73-1.93-21.74-7.76-92.09-9.92-92.57,22.12a25.36,25.36,0,0,0,15.26,25.13c56.74,21.76,81.45-37,121.76-34,7.58.91,17.32-5,22.77,1.1,10.16,11.26,19.67,23,32.3,33.08-18.23,2-82.35,8.68-73.81,34.55,12.14,19,26.56,35.84,45,49.09,1.6,1.15,5.89.37,4.5,5.57-2.78,10.33-8.19,20.28-6.33,31.51,2.56,15.61-20.88-7.8-56.48,13-43.15,21-87.66-12.49-121.42,39.07-8.74,14.2-16.22,29.18-25.22,43.19-16.47,26-53.5,36.23-60.19,68.53C-25.72,1025.2-17,1052.7,54.79,1086.46c35.61,16.67,66.14-5.61,114.37,19.79,29.89,12.48,100.15,11.8,124.44-11.24,2.13-2,2.92-1.41,4.73.45,16.12,17.77,35.16,32.21,49.1,52,7.29,18.24,12.76,31.2,27.11,45.58,13.12,15.72,30.65,22.38,49.2,28.23,11.91,3.76,25.15,4.23,34.83,14.12,31.3,36,63,54.94,111.85,45.12,41.44-8.3,84,17.56,123.64,3.24,45.5-19.93,40.54-85.18,75.05-116.79,38.39-36.62,10.48-72.13,27.86-112.13,13.16-28-4.4-55.3-13.87-81.22-9.94-22.56,18.7,15.4,74.21-21.17,8-5.19,15.48-7.81,24.93-7.5C932.13,941,942.8,882.72,905,854ZM862.87,617.71c7.06,3.69,11.46,12,7.41,18.22-13.26,17.86-56.81-3.47-72.47-12.53C818,609.64,839.8,605.65,862.87,617.71ZM761.43,556.9c26.25-75.25,93-46.53,33.65-10.1-10,6.09-20.91,10.75-31.83,15C759.38,563.28,761.6,558.7,761.43,556.9ZM650.36,434.72c15.11-12,30.89-22.71,51-23.93,7.68-1.09,29,4.64,27.43,14.19-2.19,6-7.2,10.8-12.95,11.62S639.94,446.2,650.36,434.72Zm-36.89-86c32.74-63.28,79.39-30.3,43.59-10.6-12.57,5.15-21.44,16.77-35.39,19.07-3.89.65-7.63,2.21-11.44,3.35C611.26,356.58,611.33,352,613.47,348.73ZM563.4,270.22c3.14-10.88,7.5-21.44,11.77-32,5.44-13.44,21.89-20.09,28.21-11.54,6.23,10.15.61,23-5.54,30.16-6.55,5.33-27.18,31.9-33.89,29.49C562.42,281.34,562,275.23,563.4,270.22ZM408.46,186.89c-3.6-11.9,10.88-14.64,18.94-10.8,25.58,10.55,30.16,40.54,42.77,62.8C443.17,227.92,419.05,215.48,408.46,186.89Zm66.06,166.62c-14.22,3.84-42.57.52-58.29-8.75-21.07-12.1-4.07-36.54,15.71-23.63,13.74,7.6,27.94,14.55,38.51,26.63C472,349.54,476.15,350.52,474.52,353.51Zm24.3,103.61c-26.37,10.54-73.18,5.72-81.68-26-1.73-6.64,7.16-18.07,15.28-18.09,24.74,5.35,46.31,23.88,67.34,37.75C505.33,454,504.83,456.33,498.82,457.12ZM289.33,514.26c8.59-13.11,34.69-19.09,31.2,6.41-3.56,11.53-11.84,24.94-23,36.6-7.36,9.49-10.54,13.82-21.8,19.51C271.05,555.31,277,532.2,289.33,514.26Zm-78.87,46.46c-18.38-7.72-36.54-20.16-46.59-38-7.2-14.69-7-23.24,4.22-34.45,19.91,1.86,26.16,14.2,30.06,25.6C204,528.76,210.82,544.1,210.46,560.72ZM143.67,662.54c-6.81.08-14.92-.33-20.76-6.69-28.76-39.58,69-28.46,86.84-22.05C189.35,648.84,169.07,662.23,143.67,662.54ZM543,688.72c-19,3.44-38.28,2.25-57.47,2.17-7.25-11.74,17.71-50.21,25.5-61.9,2.53-3.39-3-5.93-5.78-8.08-17.69-13.91-34.24-29-48.74-46.27-11.87-14.14,4.14-13.73,9.2-14.94,17.7-4.2,35.39-9.55,56.8-8.44,20.9,7.38,15.86-14.46,20-24.37,6.93-16.7,13.53-33.51,21.71-49.65,1.48-2.93,4.5-4,7.44-1.14,16.23,15.56,27,35,37.05,54.63,6.3,12.21,12.91,1.32,18.18.94,16.77,0,86.46-12.16,52.93,18.74-8,16.43-18.14,32.22-33.07,43.42-12.66,9.5-2,15.74,1.71,23.14,8.57,17.25,18.78,34.17,21.71,53.25,1.12,7.32-8.85,2.3-13.31,2.69-15,1.31-27.68-8.51-42.55-10.49-22.94-3-40.47,4.54-56.47,19.77C554.15,685.72,548.25,687.78,543,688.72Zm11.31,64.34c88.71-2.37,177.6,26.23,251.65,74.05-53-27.06-104.16-42-161.78-51.62a816.65,816.65,0,0,0-99.43-4C538.29,769.07,550.08,752.84,554.34,753.06Zm182.37,57.6c.24,24.25,11.65,44.85,14,68.63-36.11-30.43-55-83.92-110.33-78.45-10.91.47-10.09-11-14.87-16.73-.58-.69,4.5-1.18,6.72-.86a467.46,467.46,0,0,1,100,22.14C734.15,806,736.71,808.84,736.71,810.66Zm-187-30.23c20.38-2,42.71-1.86,62.75,1.52,5.31,1.26,8.73,12.15,11.83,19.18-23.2,7.15-43.58,4.86-64-9.49-3.8-2.42-9.51-1.85-14.66-2.71-1.54-2-6.63,4.69-6.66-2.73C539,777.58,546.23,781.24,549.74,780.43Zm-96.62,69.4c16.84-8.12,41.84-6.36,54.28,14.58,6.34,10.68,14.72,20.3,22.81,30,12.08,14.47,20.27,32.21,29.94,48.67,29.41,45.38,49.84,95.3,73.43,143.7,8.14,16.2,12.12,33.74,19.25,50.18.19.44-.23,1.15-.56,2.52-20-36.19-38.86-71-62.21-104.75-31.18-44.48-68.92-83.9-104.72-124.72-11.65-12.44-22.79-25.36-34.29-37.94C432.75,859.85,438.52,853.71,453.12,849.83ZM278.43,774.24c.41-14.24,16.16-22.23-4.49-30.83-16.22-11.89-30.09-25.94-39.55-43.49-3.67-6.82,6.57-8,10-9.64,9.11-4.48,19.37-7,29.43-9,11.14-2.2,22.76-2.06,33.8-4.57,6.4-1.45,5.48-9.54,7.17-14.64,6.2-18.61,11.08-37.66,22.2-54.25,8.31-10.25,35.51,44,38.17,51.55,10.53,30.91,41.6,1.94,80.61,14.28-57,84.58-48.12,25.11-24.89,123.27a12,12,0,0,1-.51,5.57c-4.24,0-8.68.38-12.69-.74-19.26-6.21-39.67-9.94-57.92-18.76-13.74-7.18-18.43,6.85-26.79,11.78-9.85,5.83-18.61,13.52-28.5,19.26-1.61.93-6.7-3.9-10.05-6.26a76.11,76.11,0,0,0-13.13-7.45C267.11,794.48,278.54,783.61,278.43,774.24Zm32.67,82.61c8.19-24.79-9-29.85,1-35.07,11.48-6.56,22.47-14,31.48-23.89,2.85-3.14,4.94-1.2,5.07,1.37,1,19.29,2.73,38.68,1.3,57.82-.33,4.38-12.45,7.43-18.47,12-5.69,4.31-7.57,1.41-10.65-3C318.19,862.18,313.93,859.42,311.1,856.85Zm-6.35,31.85c-58.09,15-117.69,28.5-171,57-40.6,20-70.3,44.45-111.78,66.91,47.06-44,96.76-76.1,154.67-101.69,40.34-18.16,81-39.28,125-46.9C315.06,865.47,323.91,882.81,304.75,888.7ZM0,1021.21c-.63.57-1.47,1-2.17,1.51C-8.49,1003.15,1.41,986,8.09,968.6c6.42-26.71,26.35-43.4,47.63-58.28C85.1,888.06,88.55,843.54,123,825.53c27-11.64,55.94.72,83.17-11.25,14.82-5.15,28.94-14.68,46.1-11.27,19,3.78,38.18,7.12,47.57,27.4,3.87,8.34,4.88,17.39.48,25.35-1.42,2.58-8.27,2.16-12.64,3.14-8.27,1.85-16.49,4.71-24.83,5.09-3.21.15-6.57-5.44-10.05-8.17-7-5.38-41.82-34.62-48.48-24.65-.63,3.14,2,4.79,4.55,5.85,15,6.22,27.92,15.86,40.53,25.83,1.4,1.1,9.93,4-.44,6.72a161.64,161.64,0,0,0-33.81,13.58c-10.18,5.38-16.79-2.49-24.7-4.72-15.21-4.29-30.62-7-46.14-9.7-6.61-1-30.08-4.83-31.49,3.55.34,2.62,2.29,2.82,4.46,2.8,12.66-.11,25.1,1.74,38.82,4.64C137.82,888.59,119.76,891.36,101,891c-1.73,0-4.09-.94-4.18,2.53-.08,2.93,1.13,3.26,3.68,3.78,21.3,4.29,41.24,1.35,59.15-11.32,12.37-8.75,23.41-1.49,34.79,2.09,1,.31,2.71,1.71-.5,3.13-23.71,9.7-45.44,24.63-69,34.1-24.72,2.56-51.84-7.44-76.77,1.49-1.88.57-4.41,1-2.82,3.2,3,4.14,8.5,4.43,12.23,2.66s7.29-.85,12.66-2.11c-10.78,11.24-21,20.12-33.29,26.6-3.75,2.56-17.12,9.76-17.27,13.8,2.4,0,3.86,3.16,6.86,1.64,19-9.59,36.24-21.5,50.58-37.31,4.43-4.58,25.59-1.21,35.1-2.17C70.15,959.1,31.77,984.53,0,1021.21Zm273.42,76.07c-18.76,5.37-38,6.16-57,7-37.07,6.07-67-25.18-104-21.38-18.06,1.62-36.35,1.55-52.89-6.25-19.3-9.12-40.19-17.07-53.39-34.8-5.25-7,6.42-9.47,10.4-12.37,38.75-26.66,79.54-55,121.83-74a3.67,3.67,0,0,1,.44,3.2c-4.61,13.45-7.67,27.83-14.75,39.84-3.41,5.79-14.39,7.22-22,10.38-14.23,6.07-48.38,22.94-48.3,39.91,1.89-.21,4.62.32,5.55-.73,15.58-17.72,36-27.82,59.22-37.83-4.09,9.94-7.1,18.27-10.91,26.21-2.34,7.28-11.91,14.68-10,22.24,12-1,16-18.82,21.45-27.51,11.19-23.42,25.65-47,29.11-73,1.32-19.2,19.56-16.48,30.41-22.78,9.74-5.65,21.19-8.38,31.92-12.32,10-3.68,4.92,6.65,4.87,7.24-1.34,14.31.6,29-4.32,42.91-3.17,9-12.26,11.13-18.58,16.44-21,17.6-38.08,37.8-45.25,64.91-.5,1.88-1.58,5.43,1.26,6.12,3,.73,4.91-2.39,5.88-4.87,11.32-27.81,27.64-50.79,53.85-67.6-7.14,24.36-15.51,44.76-24.87,67.63-.41,1,.28,3.51,1.06,3.83,3.11,1.28,5.35-1.54,6.29-3.39,17.83-35.31,31.28-73.69,34-113.33.4-5.93,2-12.46-1.12-19-3-6.34,4.57-5.9,7.71-6.89,20.32-5.7,40.36-13.65,61.28-16.62.31,0,3.54-.24,1.23,2.94-11.13,15.26-18.94,32.08-18.88,51.39-1.83,34.79-34.06,56.55-39.65,90.49-.31,1.55-.55,5.84,2.21,5.52,5.22-.59,6.19-6,7.51-9.93,6.86-17.91,17.35-34,27.79-49.92.82-1.16-1-4.29,1.86-3.33,1.22.42,1.63,3.27,2.39,5,7.11,16.51,2.52,33.47,2.1,50.3-.33,13,.5,25.75,9.41,36.81C293.22,1085.65,283.4,1094.41,273.42,1097.28Zm415.37,179.1c-15.22.68-30.56,1.39-45.71.24-10.86-.83-21.42-6-32.27-6.67-28.25-2.92-55.92,5.19-84.41,1.75-36.38-6-50.67-44.15-83.39-55.66-37.3-6-72.82-27.1-84.17-65.25-3.19-10.21-8.67-19.26-18-26.24-11.35-8.47-20.29-19.84-30.19-30a67.48,67.48,0,0,1-20.05-67.68c2.28-33.51-17.1-62-.13-96.49,25.18-54.42,102.75-101.42,153.65-53.07,9.17,9.24,17.13,19.67,25.47,29.71,3.9,4.7-2.18,5.09-3.64,7.47-6.63,10.81-16.23,13.34-28.62,12.75a313.18,313.18,0,0,0-76.49,6c-12.72,2.55-24.93,7.81-37.23,12.23-6,2.85-4.76,9.56,2.23,7.46,39.69-14.41,79.83-16.89,122-18-38.52,35.21-81.14,85.79-96.31,135.67-.67,2.5,1.49,4.31,2.17,4.13,1.94-.51,4.52-1.71,5.22-3.34a257.2,257.2,0,0,1,53.55-83.93c-2.08,39.43-10.62,79.78-26.3,116.25-1.42,3.2-3.05,7.45.64,9,4.06,1.74,4.77-2.54,6.72-5.75,15.61-28.65,21.89-60.9,25-92.93,1.25-11.47,4.37-23.13,2.12-35.07-.43-2.31,3.48-5.6,5.66-8.21,14.66-17.5,31.61-32.87,45.67-51.06,7.69-10,12,3.38,15.58,7.07,13.23,13.71,25.24,28.63,37.39,43.35,3.12,3.78-1.64,7.1-3,9.93-25.18,51.8-40,107.06-49.2,163.72-2.73,14.87-2.66,30.26-3.73,45.42-.14,1.88-1,5.06,2.64,4.51,2.47-.38,5.45-.37,5.53-4.75,1.16-36,8.54-70.13,18.78-104.66,9.69,42.09,15.45,81.58,21,123.77.45,3.16,2.16,6.87,5.43,6.59,9.25-9.13-4.06-71.58-6.94-86.8-4-19.2-10.68-37.32-15.73-56.1-1.67-6.25,3.4-14.53,6-21.66,8.34-23,17-45.9,25.53-68.81a4.37,4.37,0,0,1,2.1-1.88c.18-.1,1.06,1,1.53,1.55,22.91,31.35,52.19,60,69.09,95.07,2.55,6.82-2.33,16.43-3.91,24.77-4,21.11-6.27,42.6-10.14,63.57-3,5-3.22,95.27,7.14,69.81-1.27-26.21-2.38-50.87,2.45-77.42a314.73,314.73,0,0,1,27.5,61c2.17,4,4.44,15.34,10.5,13.16.85-.38,1.58-2.33,1.45-3.48-4-25.3-16.12-50.22-30.3-71-14.93-18.31-1.19-34.77.21-52,.47-5.79,1.47-11.53,2.51-19.4,28.21,51.39,55.38,98.5,73.59,153.63C686.61,1248.28,706.11,1274.44,688.79,1276.38ZM792.9,1037.21c-.22,7.83-5.22,13.93-7.93,20.84-13,29,9.22,61.73-11.69,88.09-24.49,25.55-39.08,57.9-50.81,90.93-3.29,9.54-10.18,17.86-15.57,26.66-.56.91-2,1.27-3.06,1.89-22.22-62.65-37.11-128.41-64.56-189.47-1.15-3.44.24-6.73,4.22-4.92,12.47,5.65,26.28,10.12,36.2,18.87,4.62,4.06,4.86,15.91,9.3,23.17,8.19,13.37,17.16,26.26,25.84,39.33,4.61,2.52,6.25,13.92,12.67,8.08,3.93-3.67-3.88-9.08-7-13.42a394.86,394.86,0,0,1-32.13-52.54c19.06,10.4,35.32,22.34,50.74,35.48.69.59,2.27.12,3.43.14,3.33-12.91-38-36.73-48.83-43.68-18.43-12.69-38.69-21.1-59.9-27.87-6.16-2.57-7.25-9.61-9.92-14.91-15.62-31.1-28-63.89-49.17-92.43a221.5,221.5,0,0,1,45.83,8c14.6,4,29.31,7.5,43.22,13.6,6.11,2.68,7.8,9.25,11,14.09,9.33,12.7,41.69,67.38,57.33,62.64,4.82-5.07-2.88-7.49-6.31-10.83-19.44-19.12-31.2-37.94-47.3-60.78,29.29,18.37,51.65,30.58,73.79,54.77,1.55,1.69,4,3.73,6.79.94,6.79-11.61-62.6-57.85-74.88-62.2-31.73-16.44-67.79-24.77-103.39-29-17.68-.22-18.63-16-25.8-26.09-9.63-15.06-22.77-28.38-30.22-44.59,34.08-7.39,69.93.29,103.66,5.93,9.35,2.16,16.74,12.62,25.1,19.21,8.49,6.18,37.91,26.18,46.86,19.29.94-3-3.14-4.16-5.41-5.25-17.14-8.23-34.28-16.4-48.75-30,14.55-1,28.38,2.48,42.3,4.24,5,.63,13.47,3.91,13.65-.17.29-6.5-9.09-6.93-14.42-8-55.28-9.69-112.67-23.87-168.64-12.7-5.08.84-5.81-6.87-9.44-10.06-4.94-4.34-8.44-10.27-13-15.05-5-5.21,1.35-7.38,2.59-10.66,14.62-28.51,48.19-39.71,74.61-19.68,44.69,19.27,86.77-26.69,128.18,31.71,18.29,30.59,59.25,47,61.25,86.27,2.36,19.74,5.75,39.25,14.09,58C784.72,1001.5,793.42,1018.16,792.9,1037.21ZM913.09,917.64c-17.65,28.69-37.86,8.06-58.35,24.68-22.89,14.88-81.82,34.57-81.59-10.09-.81-14.19-4.5-27.55-9.65-40.65-.5-1.27-.29-2.8-.61-6.47,14.29,15.25,27,28.73,39.58,42.39,1.91,2.08,3.82,1.84,5.67,1,2.87-4.63-21.48-29.71-25.6-35.14-6.64-7.14-11.06-16.49-22.48-19.6-3.26-.89-3.3-13.24-5-20.3-3.23-13.42-6.61-26.81-9.87-40.23-.6-2.46,1.49-2.61,2.75-2.07,13.13,5.67,26.57,10.8,39.09,17.6,5.61,3.05,4.07,11.38,5.62,17.2,8.27,31,19.09,60.61,41.1,84.88,1.38,1.52,2.39,3.07,5.16,1s1.72-2.94.54-5c-7.75-13.84-19.91-25.67-24-41.39,17.25,3.43,33.15,11.87,47.89,21.43,2.63,1.8,6.13,8.23,9.19,3s-3.91-7.3-7.25-10.39c-14.73-13.6-33.18-19.17-51.69-24.94-7.21-2.25-5.93-10.42-8.35-15.88-2.66-7.41-6.09-15.34-5.78-23.36,39.79,22,80.12,44.1,116.21,72C919.43,910.22,915,914.48,913.09,917.64Zm-141-121.87c26.62-16.37,34.84,13.56,66.92,13.32,2.13.15,5.35,1.47,5.64-1.77.12-1.29-3-3.63-5-4.22-12.13-3.47-25-6.38-34.42-15.52,5.06-5.71,28.55-1.4,26.39-8.41-.21-10.63-61.81,7.12-71,8.92-6.8,2-16.38-4.33-24.27-7.8-16.83-7.38-33.82-14.25-51.5-19.31-2.67-.76-2.27-2.36-1.28-3.61,26-31.34,63.88-.68,98.26-24.36,1.26-.66,2.44-3.71,1.94-5-1.91-3.25-8.66,1-11.8,1.13-15.46,5.2-31,8.5-47.39,4.15-2.6-.69-5.88,1.2-8.85,1.89l-.95-1.73c12.3-7.42,24.47-15.07,37-22.11,3.09-1.74,6.63-3,5-6.69-7.11-9.59-45.89,22-55.2,26.56-10.31,6.5-18.77,14.92-27.41,23.35-5.27,5.14-14,1.6-18.07-.48-11-5.61-23-5.92-33.91-6.41-18.63-.83-5.68-7.19-3.22-11.61,9.5-19.66,49.4,1.25,88.25-35.7,4.35-3.84,1.36-10.91-3.36-5.59-20.17,17-44.15,20.68-69.73,26.41,4.38-4.78,29.87-20.08,24.9-24.17-2.24-2.53-5.82-.6-8.24,1.25-9.35,7.16-18.58,14.48-27.86,21.74-1.46,1.15-2.65,1.55-4-.38-6-8.59-12-17.17-18.15-25.6-.82-1.12-1.81-4.2-3.76-2.31-11.08,6.33,12.87,27.67,16.45,34.48,2.55,3.76-1.12,3.1-1.67,4.45-9.45,25.22-34.68,8.74-53.69,14-13.14,3-7.79-9.39-8.53-13.74-4.08-23.87,21.42-54.1,44.92-58.32,18.47-3.31,33.69,5.42,50.32,8.79,47.56,11,86.74-33.14,128.23,7.3,11.33,10.54,14.37,26.06,23,38.37,23.43,30.17,54,46.43,64,86.66,10.75,42,57,46.37,58.84,81.31A945.14,945.14,0,0,0,772.14,795.77ZM560.92,620c-9.91,3.65-20.3,6-29.79,10.89-2.74.4-4.51-2.86-3-5.39,2.62-5.77,8.44-7.69,13.54-9.79,4.78-2,2.81-3.38,1.17-6.12-7.5-12.51-15-25.07-15.85-40.23-1.43-7.41,7-6,8,0,3.38,14.48,10.51,27.4,19,39.13,4.82,6.66,12.13-1.06,17.15-3,5.69-2.18-.44-8.67-1-13.24-2.22-18.06-5.85-36-5.12-54.28.19-6.77,8-6.08,8.09.87,3,21,3.52,42.3,9.74,62.74.34,1.12,1.3,3.11,1.53,3,3.53-.95,9.49-1.48,10.06-3.47,3.48-12.3,5.8-24.93,8.4-37.47.94-4.5,1.32-11.4,5.67-11.52,5.93-.17,4.83,6.45,4.16,10.69-2.08,13.17-4.57,26.27-7,40.05,2,0,4.1-.36,6,.07,3.45.79,9.82-2.7,9.78,3,0,6.34-7.16,5.39-11.72,5.91C593.36,613.8,576.82,614.13,560.92,620ZM302.63,752.09c-4.17-5.61,9.16-9.46,13.18-9.45,2.89-.1,3.47.79,1.9-2.73-5.85-13-11.25-26.29-7.3-41,1.53-4.63,6.15-4.93,6.72.47,2.41,11.4,3,23.28,8.34,33.92,1,1.92-.1,7.37,4.34,4.85,29.49-.6,1.73-13.31,9.3-61.43,4-4.86,8,3.07,7.85,6.66,2.23,14.88,4.06,29.82,6.15,44.72.57,4,2.32,7.11,7.2,6,4-.88,7.94-.76,8.88-7,1.87-12.35,5.06-24.5,7.93-36.68,1.75-2.39,7.44-2.08,6.71,2-1.12,10.09-2.11,20.25-4.2,30.16-.69,3.28,1.65,7.46-2.77,9.68,4.83,2.23,13.5-2.09,13.19,4.15-.25,5.22-9,4.25-14.59,4.81-21,2.1-41.88,5.12-62.21,11.29C310.06,753.44,305.94,755.35,302.63,752.09Z"/></g></g><g id="Red_Japanese_Frames" data-name="Red Japanese Frames"><path class="cls-6" d="M0,20V1580a20,20,0,0,0,20,20H956a20,20,0,0,0,20-20V20A20,20,0,0,0,956,0H20A20,20,0,0,0,0,20ZM924,1548H52V52H924Z"/><path class="cls-7" d="M952.1,15.41,928.69,38.83A4,4,0,0,1,925.86,40H50.14a4,4,0,0,1-2.83-1.17L23.9,15.41A2,2,0,0,1,25.31,12H950.69A2,2,0,0,1,952.1,15.41ZM40,1549.86V50.14a4,4,0,0,0-1.17-2.83L15.41,23.9A2,2,0,0,0,12,25.31V1574.69a2,2,0,0,0,3.41,1.41l23.42-23.41A4,4,0,0,0,40,1549.86ZM936,50.14V1549.86a4,4,0,0,0,1.17,2.83l23.42,23.41a2,2,0,0,0,3.41-1.41V25.31a2,2,0,0,0-3.41-1.41L937.17,47.31A4,4,0,0,0,936,50.14ZM925.86,1560H50.14a4,4,0,0,0-2.83,1.17l-20,20a4,4,0,0,0,2.83,6.83H950.69a2,2,0,0,0,1.41-3.41l-23.41-23.42A4,4,0,0,0,925.86,1560Z"/></g></svg>