<svg xmlns="http://www.w3.org/2000/svg" xmlns:xlink="http://www.w3.org/1999/xlink" viewBox="0 0 976 1600"><defs><style>.cls-1{fill:none;}.cls-2{fill:#f4f3ef;}.cls-3{clip-path:url(#clip-path);}.cls-4{fill:#50b271;}.cls-5{fill:#d81e1e;}.cls-6{fill:#592116;}.cls-7{fill:#992d17;}</style><clipPath id="clip-path"><path class="cls-1" d="M960,22V1578a6,6,0,0,1-6,6H22a6,6,0,0,1-6-6V22a6,6,0,0,1,6-6H954A6,6,0,0,1,960,22Z"/></clipPath></defs><g id="Paper_Backing" data-name="Paper Backing"><path class="cls-2" d="M960,22V1578a6,6,0,0,1-6,6H22a6,6,0,0,1-6-6V22a6,6,0,0,1,6-6H954A6,6,0,0,1,960,22Z"/></g><g id="Wikipedia_Cropped" data-name="Wikipedia Cropped"><g class="cls-3"><path class="cls-4" d="M781.63,1549.7c-38.86.64-75.38-3.25-110.94-24-14.07-6.42-25.57-29.7-42.16-23.55-32.62,14.51-71-.39-103,13.2-13.62,8.12-22-.08-25.85-13.72-30.64-50.9-30.32-123.2-.26-176.05,15.6-13.22,42.18-2.53,47.84-31,.66-2.29,2-4.48,4.57-4.48,18.78,16.44,24.74,33.52,56.22,25.14,6.38,4.28,9.82-1,14.77-3.62,15.88-8.87,35-9.77,51.16-11.23,68,6,60.44-73.1,100.18-54.87,39.06,15.68,63.6,52.27,81.82,88.16,8.85,14.3,14.36,36.88,32.27,41.54,13.88,3.93,1.93,14.85-5.6,18.73-65.56,39.69-67.25-13-62.43,97.33C822.76,1554.46,871,1546.09,781.63,1549.7ZM89.53,1405.34c-25.63-1.22-61.85-7.42-80.25-22.07C54.4,1360,30.8,1295.53,65,1259.65c21.06-16.23-32.91-33.19-38.9-52.42-7.8-18.2,23.26-30.78,37.48-43.23,21.53-14.8,90.88-37.15,101.14-4.6-3.65,39.74,55.69,42,79.24,61.28,25.9,10.37,21.78,64.24,59.91,52.74,8.57,1,27.5-20.78,30.19-7.59-17.76,39.49,19.21,53.13.93,67-20,21.88-42.24,42.1-69.35,54.63-20.36-.12-35-21.37-52.5-30.2-6.17-4-9,3.85-12.58,7.24-33.34,26.65-69.72,38.59-111,40.8ZM844.2,1219.56c-23.85-15.91-44.42-40.28-61.14-64.75-11.46-13.68,4.86-14.44,13.43-20.88,15.64-10.1,14.45-32.59,24.67-45.63,5.42-.92,5.09-6.43,4.65-10.71-.06-4.82,9.87-20,14.28-24.45,28.13-23.57,14-45.55-3-71-36.29-55.77,46.54-35.09,75.75-23.64,42,17.93-39.82,43.56,19,63.07,22.95,14,31.15,40.48,48.14,57,0,5.74-.48,50.07,0,54.32-1.55,2.73,3,31-2.62,31.34-29.39-28.28-58.35,5.49-92.72,0-5.8-.09-5.88,5.83-6.87,10.16-7.6,16.38-18.11,37.25-33.59,45.19ZM81.6,1063.18c-81.73-2.37-96-13.45-42.44-82.25C29,970.21,12.52,958-2,954.35c-5.61-1.71-.2-100.76-2-104.18,0-3.49,3.6-4.37,6.49-4,23.62,19.51,47-19.44,73.14-17.22,14.33-2.26,15.87-45.4,33-61.55,10.77-16.93,23,23.38,36.3,21.7,46.49,17.13,112,39.14,120.26,97.16-1.92,7.27,6.85,22.67-5,22.38-46.06-12.86-57.93,28.73-64.26,63.31-1.18,2.86-5.09,4.32-4.15,8.08,1.28,18.14-20.22,29.72-21.61,47.87,1,35-62.22,32.76-88.58,35.27ZM681.66,835.83c-9.64-3.15,2.17-18.23,2.67-24.94,8.95-26,16.44-52.26,15.94-80.29-.78-73.8-26.66-155.41-79.19-210.67-4.18-12.35-21.72,2.38-30.34-6.4-27.21,9.24-34,59.17-35.39,88.36-4.55,9,15.93,46.31,2.22,40.91-97.08-72.64,5.59-135.95-21.55-196.42,7.65-8.16,22.41.62,29.93-5.15,15.91-8.06,34.21-10.65,47.46-24.09,12.9-22.41,28.29-4.52,40.66,3.88,11,6,22.27,1,20.39,22.06,2.89,18.25-17.93,42.55-3.17,51.08C750.16,583.87,777.16,713.1,736.88,828,730.4,842.14,709.64,814.06,681.66,835.83ZM338.5,811.41c-14.51-3.51-19.94-11.27-27.62-20.13-24.29-28,23.6-38.78,35.3-50-.47-23.58-13.23-52.5-11.71-77.15C335.6,654,333,587.43,349.91,602.4c51.21,62.74,120.18,41.31,165.46,97.42,14.27-2.29,61.54-33.6,63.17-8.23C583,801.5,566.81,764.24,488,789.77c-5.13,11.49-6.46,16-16.33,5.56-8.71,3.1-14.63-1.22-23.36-3.8C414.27,821.49,373.59,783.43,338.5,811.41Zm-111-414.58c-47.77,1.34-91.34-23.62-137.55-27.73-9.24-16.58,20.4-29.63,23.72-44.55-18.8-17-42.84-28.18-63.09-55.46-8.69-11-21.68-26.22.91-27.89,52.87-6.85,85-62,140-56.24,19.32-29.72,28.86-75.4,60.19-90.73,36.32,55,143.93,92.83,142.12,164.58-35.2,27.65,7.28,61.28-10.94,63.72-14.56-3.8-28.65-11.36-43.77-7.92-22.63-5.35-48.32,18.58-40.82,44.25,2.8,32.46-48.69,36-70.8,38Zm556.29-87.49c-4.87-1.74-18.19-.9-14.16-8.77,9.81-10.81-.05-23.71,2.68-35.76-1.94-10.43,4.67-22.09-.71-31.81-3-13.54,50.91-49.68,66.89-50.44C863,186.74,886,211,895.58,231.6c-6,9.71,13.25,10.8,11,19.3-12.49,6.24-29.67-10-44.07-5.91C821.08,245,810,289.59,783.75,309.34Z"/><path class="cls-5" d="M438,1348.65c-42.32-14.82-123-12.67-104.5-76.77,1.72-5.13-4.46-9.68-8.87-6.82-21.42,13.19-49.37,15-57.5-16.68-8.58-52.57-97.19-33-102.06-89-16.61-45.94-24.33-58.53,16.21-90.19-30.87-43.2,10.42-63.27,18.06-106.87,3-15.64,4.48-32,17.56-44,13.19-19.73,53,0,50.36-16.7-4.7-12-3.24-24,4.6-37.73,20.15-18.34,42.43.94,58.72-37.94,13.69-29.57,47.06-27.85,74.29-20.25,26.94-3.28,52.87-10.5,75.5,10,16.45-21.51,20.19-39.13,56.49-34.73,26,1.19,52.2-27.89,76.45-2.25,9.33,8.13,21.17,10.4,31.54,11.89,40.75,9.65,10.41,63.4,31.89,52.79,32.74-33.49,74.63,2.81,98.55,27.26,7.37,6.32-2.73,28.26,9.16,31.13C831.59,903.37,819.4,952,835,981c49.48,55.8-9.13,64.35-20,116.09-7.29,54.7-66.76,26-26.81,67.88,15.53,36.08-32,55.74-42.39,87.58-14.48,29.67-37.87,46.88-67.36,46.51-42.36-5-91.23,43.46-120.43-5.73-11.93-11.94-18.95,27.25-35.79,23.52-33-1.82-53.63,30.41-84.21,31.83ZM423.93,587.42C400.59,584.47,391.42,552,366,542.76c-23.05-14.18-25.82-33.79-10.55-56.12,6.24-17.95-35,2.06-44.47-30.61-6.57-16.31-.6-29.33,2.39-44-1.8-41.47-40.3-91.11,25.6-97,11-5.77,56.87,23.46,51.4,1.24-30.67-37.51,18.71-62.15,29-98,19.48-35.59,58-7.9,78.67,8,17.72-21.39,6.35-52.36,54.93-47.59,24.42.76,36.16-22.76,60.77-21.64,18,0,39.87,9.35,45.11,29.86,8.3,11.49-3.09,32.66,9.34,37.84,30-18.6,82.89-28.61,101.12,11.23,3.78,21.22.35,47.29-2,68.1,89.91,35.57,30.48,46.89,27.8,97.57-.21,80.54-78.8,8.35-80.49,29.84,2.88,19.9-23.65,51.58-42.15,41.29,11.33-70.95-3.44-31.39-42.15-73.51-22.52,15.37-43.44,37.17-73.6,39.89-6.68,2.59-18-.91-23.11,5.33,16.86,29.93-3.79,92.18-45.21,90.11C482.66,565.73,456.73,590.41,423.93,587.42Z"/><path class="cls-6" d="M976.83,1125.76c-15.82-19.56-38.11-31-57.57-45.79.66-.3,1.35-.92,2-.85,8.93,1,18.07-2.12,26.89,1.64,3,1.27,5.47-1.46,6.46-3.47,1.83-7-24.76-6-29.41-6-23.21,4-42.32-9.86-62.77-18.46-28-6.09,16.54-20.51-11.24-55.44,10.53-5.27,23.12,4.9,33.69,7.94,2.54,1,6.1,3.72,7.22.52,2-8.15-23-11.31-28.71-14.89,6.91-5,22.89-10.35,25.56-16.53-10.39-7.81-40.64,21.06-43.5,15.7-4.15-10.37-11.9-19.42-12.16-31.16,0-1.74-6.27-4.08.88-6.16,16.7-4.86,32.81-3.08,49.42.37,59.24,17.93,35.16,13.5,23.86,44.82-1.75,5.19-8,13.31,2.18,16.87,28.61,9.09,45.7,34.3,59.56,59,4,7.46,12.83,6,6.85-3.39-12.17-26.85-29.62-48.91-57.28-61.7-1.68-.78-6.13-.79-4.88-3.78,3.85-9.24,8.09-18.32,14.58-26.21,6.19-7.52,7-10.37,4.57-11.76-16.25-9.44-31.46-20.26-50.91-23.81C843.36,933,829,952.89,829.32,935c-.76-20-22.53-35.77-40.18-35.91-4.52,0-4.24-2.32-4-5.36,4.62-29.47-19.48-41.55-40.77-55.51-7.37-4.28-4.39-9.83-2.29-14.28,18.71-42.09,19.86-88.79,18.55-134-7.1-74.26-38.19-147.7-89.59-202.18-3.56-3.8,2.67-6.06,2.16-9.55,0,0,1.25-.52,1.61-.3,6.14,3.73,12.4.72,17.11-1.8,17.59-9.39,29-23.62,29-46,14.65,13.61,32.22,15.41,49.24,16.55,45-2.7,20.2-54.48,42.54-78.54,5.86-7,13.18-15.77,9.83-25.46-3.76-10.9-9.25-21.63-20.21-28.27-2.29-1.38-9.47-2.56-6.5-7,17.54-25.09,36.87-60.22,72-57.71,15.53,1,30.5,7.45,43.95,16,6.16,4,13.94.68,8.16-6.33-15-31-55.12-96.63-95.42-80.31-14.84,9.24-29,19.19-42,31.07-4.28,3.92-8.65,14.46-14.08,10.25C749,202.08,719.78,198,695,206.42c-9.54,3.7-18.33,9.36-26.93,13.87,9.75-45.08-34.36-87.6-80-62.38-13.59,7.81-26,17.77-43.68,15.25-27.7-4.42-46.16,23.9-46.15,49-2.59-7.53-10.12-8.77-15-13-13.55-11.72-29.52-16.89-47.1-12.12-21.64,5.27-25.38,26.52-34,43.75C391.55,228.06,385,212,374.27,199.33c-12.17-15.66-26.77-29.05-42.47-41.23-12.14-9.42-23.53-19.83-35.92-28.88-11.79-8.61-23.61-17.07-31.19-29.79-10.1-16.93-9.79-17-24.12-2.86-11.92,11.8-22.45,24.26-30.8,39.25-7.13,12.79-13,25.58-17,39.51-.65,2.27-1.05,7.08-5.16,5.27C143.68,173.06,111,215,72.88,229.85c-11,4.79-22.49,9.39-35.25,8.09-2.8-.29-7.29-.1-6.81,5.7,11.9,32.93,40.17,58,69.67,76.21,2,1.1,9.85,2,6.14,5.68-7.11,7.08-11.27,16.21-18.32,23.07-5.37,5.21-6.86,12.73-6.62,18.69.36,9,8.92,5,14.8,6.24,19.28,4.12,39,8.25,56.85,16.25,42.6,15.47,92.27,20.76,133.1-2.38,4.06-2.76,10.31-10.2,13.13-7,19.66,22.91-2.69,44.78,3.05,69,5.08,16.62,21.54,37.82,42.25,35.71,2.86-.29,5.38-.82,2.66,4-25.95,50.92,22.76,54.1,46.18,83.67,14.35,28.42,55.71,24,74.78,5.44,11.15-10.3,22.4-21.2,20.95-38.67,0-.46,2.08-1.75,2.83-1.51,8.34,2.68,15.62.89,22.22-5.07C487.94,622.52,576.94,672.18,566,639.33c-10.42-33.3-6.76-71,9-102.62,4-7.05,8-18.33,13.88-18.66a47.07,47.07,0,0,1,41.82,20c59,79.46,80.52,187.18,45.4,281.14-9.29-37.68-29.35-29.15-56-42.25-12-7.46-22.84-18.14-39-14.09-2.05.51-2.14-1.34-1.79-2.6,3.49-15.4,17.2-89.66-10.61-83.11-16.13,4.72-32.85,7.65-48.1,15.33-1.7.85-4.83,5.25-7.39.75-16.6-26.28-48-39.86-77.2-44.3-34.5-7.67-61.05-30.37-87-52.84-5.67-4.78-12.36-9.13-13.94,3.67-2.6,21.08-7.62,41.65-6.54,63.44,1.18,24,6.09,46.67,13.58,69.14.69,2.07,1.54,5.84.72,6.39-8.83,5.81-18.18,10.83-27,16.66-21.46,14.17-19.87,35.25,2.89,48.25,4.94,2.82,11.57,8.41,11.66,12.85.23,10.9-19.58,29.78-30.17,32.61-12.24,3.28-27.91-.53-34.43,18.11-3.26-16.8-20.24-29.42-31.81-41.26-33.8-36.53-89.26-28.63-111.61-68-2.44-4.57-5.72-8-10.26-1-3.24,5.05-8.11,9-11.54,14-9.62,13.86-16.72,28.92-19.38,45.71-.68,4.32-1.88,6.66-6.64,6.37-25.34-1.33-44.75,25.38-68,24.13-1.19-.13-2.63,2-3.95,3.07,8.77,12.7,26.65,3.3,36.34-2.61,11.66-7.18,23.06-13.69,37.06-14.62,4-.26,10,1.6,11.14-4.57,3.8-21.48,12.8-40.67,24.8-58.6,1.57-2.34,3.75-5.79,6.4,0,18.25,34,66.3,30.16,95,53.14,17.56,12,31.28,27.31,43.93,44.15,7.6,10.11,1.89,21.23,4.9,31.46.55,1.89.21,4,.28,6.07-2.42-.11-5.18.51-7.2-.46-15.7-7.5-47.9,7.88-52.17,25-3.46,13.89-7.19,27.71-10.86,41.79-18.85-11.45-12.7-25.59-15.13-44.06-1.33-10.67-5.3-21.23-5.15-31.8.11-7.74-9-14-1.6-23a63.65,63.65,0,0,0,14.92-42.58c1.21-5.57-5.72-4.39-6.2.37-1.9,13.59-8,25.47-14.9,36.91-2.9-7.52-18.41-44.27-26.59-41.81-2.66,1.76-1.31,5-.25,6.67,15,22.87,22.28,47,28.36,74.08-14.22-12.5-27.37-23.72-40-35.48-2.47-2.3-3.69-7.92-7.58-4.35-3.07,2.8.46,7.33,3,9.87,12,11.87,23.18,25.16,36.93,34.64,15.45,10.66,9.73,26.74,14.63,39.93-2.31.29-.17,4.94-3.32,3.82-4.75-1.69-9.68-3.44-13.8-6.23-15.71-10.67-33.21-17.68-50.27-25.65-4.17-1.94-10.65-3.81-11.55-7C91.63,903.58,69.73,855,56,858.62c-1.61,4.5,13.12,20.12,15.47,26.21,4.9,8.34,9,17.18,13.26,25.86.48,1,.45,2.55-1.58,1.91C66.78,907.49,50.48,902.13,34,897.43c-3.51-1-8.25-2.57-11.36,1.6-2.53,5.26,20.7,10.21,24.82,11.9,20.77,6.21,42.89,12.36,61.35,23.2-21.42,11.58-47.49,15-72,14.79-2.73-.13-5.31.27-5.77,3.32-.25,11.15,61.2-2.19,69.28-4.26,8.49-1.73,14.77-11.83,25.67-5.38,10,5.92,21.74,9,31.52,15.22,22.73,4.4,4.66,14.86-6.55,23.87-15.56,9.62-28.06,26.12-50.08,21.43a88.75,88.75,0,0,0-36.07,2.55c-1.54,3.45,3.69,5.63,6.83,5.48,10-.22,20.24-4.13,31.21.8-7.43,4.16-39.73,13.3-39.53,18.4,1.74,2.5,9.18-.13,12-.46,20.46-4.89,38.13-16.85,57.12-24.49-2.11,9.33-16,21.91-15.07,30.82,8.27,6.47,28.33-41.32,34.89-45.33,8.5-5.65,17-11.52,22.88-20.22.55-.81,2.41-1.58,3.2-1.25,27.12,14.75-12.12,37.43-12.16,57.87-.74,4.71,2.25,12.1-4.38,15.34-41.67,20.12-89.6,20.12-134.2,10.57C-13.14,1046.7,30,1001.44,43,986c9.83-10.07-11.25-14.85-16.73-20.78-7-3.29-19.1-16.94-26.22-14.31-2.4.85-1.92,4.59,0,6.07,11,8.15,22.14,16.08,33.32,24,1,.72,2.3.53.61,2.11-13.48,14.71-45.68,50.06-28.67,69.35a95.14,95.14,0,0,0,43.64,14.38c32.28,3.49,66.11,2.54,97.42-7.31,11.27-3.72,23-14.38,31.05,4.68,1.09,2.56.54,3.63-.67,4.32-28.24,15.51-40.23,43.21-23.65,73.11-48.56-12-97.33,13-128.67,49.5-3.32,3.84-9,7.66-4.34,14.83,11.65,17.77,27.5,31,44.74,42.82,3.1,2.12,2.94,2.68.35,4.61-7.43,5.54-11.35,13.87-16,21.42-22.22,30.85-4.59,80.22-39.57,101.81-3.13,1.61-9.32.32-9.23,5.93,0,3.56,4.84,1.52,6.4,3.23,36.73,29.83,89.35,32.24,132.78,17,25.22-8.73,50.65-18.17,68.63-39.87.64-.77.89-2.49,3.16-.5,9.86,8.62,19.73,17.46,32.23,22.26,7.63,2.93,14.68,10.29,23,7.91,15.77-4.5,27.81-16.14,40.63-25.69,14.2-10.58,28.07-22.11,36.06-38.81.83-1.73,2.32-.54,4,.13,21.17,10.84,45.68,9.88,66.85,20.18,30.72,14,54.46-4.7,81.06-20.56-9.25,9.17-11.48,19.07-13.64,27.83-11.64,39.9-13.86,83.57.27,123.07,4.94,17.82,17,32.58,25.69,48.85,1.26,2.36,2.77,1.53,4.5.39,20.85-16.9,53.91-11.87,79.57-15,13-.61,27.61,1.48,38.7-9.29,1.42-1.38,4.14-2.41,6.4.37,15.62,19.29,35.44,33.2,58.83,40.62,44.56,16.1,93.28,12,139.81,8.09,2.66-.25,6.81-.54,8.89-5.68,4.08-10.1-5.91-10-8.87-14.72-17.45-33.46-12-72.07-8.89-108,.08-3.15.39-5.77,5.43-5.52a62.61,62.61,0,0,0,18.37-2.2c18.33-4.69,32.91-16,46.9-28,3.5-3,9.21-5.49,7.73-11.49-1.7-7.68-12.26-1-18.63-8.11-12.33-10.34-16.74-25.38-24-39a316,316,0,0,0-34.94-51.43c-36.25-49.82-80.08-32.89-60-52.23,11.48-12.28,29.19-20.26,28.8-41.1,0-2.43,2.1-.42,2.94.63,10.32,13,23.31,23.25,36,33.68,3.92,3.22,9.57,9.33,14.5,4.09,13.31-14.13,26.55-28.57,32.18-48.1.51-1.75-.46-8.57,5-6.11,9.12,4.06,17.59.57,25.7-1.81,19.82-5.8,39-18.89,59.8-2.82,8.45.58,2.86-6.62-1.44-9.1-26.58-22.69-54.14,10.56-83.16,4.87-12.29-3.15-12,2.45-13.6,12.55-4.92,15-15.76,26.14-24.59,38.66-2.9,4.11-5.73,4.86-8.23,2.29-18.71-19.2-39.67-36.48-53.64-59.82-16.09-22.14,18.38,7,34.36-62,6.74,13.53,6.24,27.67,9,41.06-3,8.08-9.65,14.94-13.06,23-1,2.09-4.69,6.25-.62,8.27,7.47,3.65,13.06-19,17.26-25.8,3.43,9.57,4.47,37,13.38,36.94,3-.34,1.37-4.66,1.08-6.87-2.84-21.49-12.83-41.49-12.55-63.28,7.84,5.91,16.09,12.49,24.75,18.49,3.07,2.13,6.93,5.68,11,1-8.67-16.87-43.08-20.14-42.27-47.48,0-3.49,13.21-25,16.31-23.39,7.86,4,17.51,5.5,23.12,12.82,12.14,15.87,22.36,33,32,50.56,1.79,3.25,4.35,8.19,9.73,7.35.84-.13,2.26-4.36,1.57-5.24-10.66-15.37-18.3-32.75-29.36-47.7,25.35,9.86,49.68,26.43,71.47,43.5,3.51,2,22.81,21.8,24.37,16.67C980.78,1129.61,978.49,1127.68,976.83,1125.76ZM640.23,403.12c-7.7-8.51,4-14.12,7.94-20,8.27-12.32,15-25.09,18.86-39.38.34-1.28,0-2.8,2-2.66A182.38,182.38,0,0,0,715.67,338c5.51-1.05,8.46,9.79,8,15.25-1.18,15.31-14.86,26.26-16.3,41.9-.49,14.39-4.62,28.86-21,27.9C667.6,421.88,651.76,415.84,640.23,403.12Zm-84.17,32.1C513.65,442,471.43,423,454.48,381.69c-4.63-11.16-9.15-25.54-.6-36.12,20.3-27,48.32,12.54,65.46,26.79,6.72,5.95,15.56,3.45,22.71,2.2,20.31-1.74,33.56-24.36,26.25-42.88-3.74-11.75,2.11-18.63,8.75-24.66,21.74-17.15,10.13-48.35,32.79-53.75,26.6-4.79,40.45,37.57,47.81,56.81C665.93,365.93,610,426.51,556.06,435.22ZM607.81,452c-2.36,8.87.12,19-11.2,20-13.13,1.25-20-7.54-25.55-18-10.3-19.27,12.8-8.8,14.94-16.93,4.83-.83,9.53-3.92,14.22-5.62C602.89,438.66,605.55,445.86,607.81,452Zm71.93,19c-3.49.08-5.43.88-3.47-4.87,9.87-22-2.28-34.26,6.28-33,7.77.92,14.27-2.11,21.12-5.5,9.27-4.58,6.17,4.1,7.27,7.14C710.93,450.3,693,470.62,679.74,470.92ZM782.16,223c52.92-47.71,62.68-49.47,110.09,6.43-13-7.81-20.09-16-30.69-18.85-14.25-3.85-26.57-2.14-38.75,7.22-16.21,12.46-32.53,24.71-47.39,39.74C784.17,227.4,764.87,232.18,782.16,223ZM775.62,271c-1.5-7.32,5.77-9.8,9.71-13,16.63-13.72,32.77-28.4,51.81-38.67,25-12.16,46.07,18.32,65.8,29.91C867,235,833.19,239.5,809.17,271.61c-7.54,10.11-13.75,21.21-21.24,31.36-4.29,5.82-9.57-1.06-15.2.07C781,292.54,777.82,281.84,775.62,271Zm-5.65,40c17.18.13,39.81,17,42.8,32.14,2,10.06-6.65,16.06-11.41,23-16.34,20.86-3.55,53.08-18.75,65.13-21.39,12.66-50.55.07-65.66-17.08-3.31-3.81.75-13.85,1.12-21.05.62-16.76,23.31-30.57,12.83-47.39-8.73-9.21-2.25-13.27,5.4-16.51a119.84,119.84,0,0,0,26.78-15.59C765.3,312,767.49,310,770,311.06Zm-77-93.87c8.39-4.32,17.82-4.7,27.44-4,24.06-3.69,51.93,14.92,46.13,41.29-4.26,29.11,10.57,41.06-23.16,60.91-21.54,13-45.35,14.74-68.8,19.06-12.73,3.13,5.07-23.43-22.33-61.51-2.09-3.29.37-4.51,1-6.25,3.28-9.36,6.92-18.6,10.73-27.75C669.32,226.09,682.15,222.76,693,217.19ZM512.83,201.86c5.71-13.56,17.6-21.14,35.64-19.39,16.95,1.64,30.15-6.14,43.17-15.26C610,154.37,648.32,161.78,655,187.9c8.88,24.31.75,49.69-8.25,70.85-4.93,5.51-17.33-29.13-45.68-14.37-1.68.81-6.18-2.91-8.66-5.27-12.13-11.53-38.5-12.59-53-4.43-11.5,5.89-17.42,16.24-26.38,24.16C505.59,241.27,505.79,220.36,512.83,201.86Zm5.9,67.2c28.69-49.73,84.88-23.23,67.89-11.62-4.66,8.21-4.66,17.51-7.3,26.14-15.24,30.55-27,17.78-20.29,60,.51,7.94-2.43,13.7-9.28,17.23-27.7,15.53-47.78-37.76-78.94-34-7.24.95-11.23-.63-9.75-7.91,0-15,9.87-25.3,24.38-25.79C502.05,292.56,511.05,281.25,518.73,269.06Zm-95.65-49.21c13.08-26.09,45.66-12.18,61.77,1.76,12.81,9.09,13.54,24,17.82,36.93,5.26,15.87-1.35,23.37-18.91,24.44-22.59,1.38-34.73,23.92-29.32,43.7.76,2.81.88,3.45-1.36,5.52-14.54,10.15-6.81,15.58-15.16,14.53-26.48-11.41-69.09-41.86-47.92-74.31C404.26,256.79,414.91,239.21,423.08,219.85ZM294.44,360c6.09,20.76-38.3,29.5-51.85,31.72-51.55,8.11-100.39-22.36-150.47-26-3.92-6.21,22.9-35,29.52-39,3.21-2.28-.53-6-2.77-7.05C86.58,304,60.18,278.82,41.35,248.55c25.55-6.47,49.75-14.18,71.31-29.88,22.81-14.86,47.5-33,76.46-30,12.45,3.84,11.61-8,13.69-14.25,9.63-28.91,23.38-55,47.2-74.84.78-.65,1.64-2.67,2.87-.12,7.16,14.93,20.48,24.27,32.34,34.81,39.81,34,87.44,62.28,107.5,113.31a7.39,7.39,0,0,1-1.69,8.31c-20.43,18.9-19.36,39.74-6.36,62.51-15.44-2.69-29.36-11.76-46.36-7.74-10.95,2.16-21.3-10.35-23.7-20.94-3.63-16.07,5.19-27.63,9.39-41.3,3.78-12.55,8.37-46.63-4.41-54.95-.89,2-2.74,4.2-2.5,6.09,2.09,20.65,2.29,41.06-7,60.14-10.34-37.33-23.09-71.6-41.15-105-.86-1.82-2-3.71-5-2.13-3.31,1.76-.71,3.22-.15,4.66,9.27,24,20.46,47.28,27.3,72.22q-18.29-16-36.56-32c-3.41-4.14-7-5.52-12.16-3.64,15.26,22.48,38.91,38,55.34,59.49,8.38,10.77,4.38,29.43,9.36,42.32-7.78-7.6-18-8.34-27.08-10.53-22.82-5.49-44.74-10.75-61.82-29.65a89.78,89.78,0,0,0-46.21-26.74c-3-1.78-7.44-6.61-9.2-2.54-2.12,4.93,3.93,8.66,8.32,10.42a153.57,153.57,0,0,1,54.11,36.56c-22.81-3.49-43.58-6.47-66.15-8.22-16-1.18-32-2.35-47.83-5.68-2.41-.51-5.4,1.76-8.13,2.75,2.22,5.4,7.84,6.07,12,6.7,24.43,2.88,48.43,6.22,73,8.53a160.43,160.43,0,0,1-43,17.54c-3.3.83-2.64,3.68-2,4.47,10.21,7.72,45-16.33,58.63-17.94,10.45-2.72,23,1.58,34.42,3.92,20.24,4.16,40.3,9.23,62.16,14.32C273.85,314.29,248,318,221.59,326.39c-3.19.87-6.84-2.56-9-4.12-8.29-5.91-18.5-6.29-27.06-11-1.73-1-5.19-1.57-6.44,1.68-1.1,2.88.73,3.57,3.3,4.56,7.32,2.81,14.39,6.27,21.56,9.49,1,.45,3.31-.65,2.7,1.62-.27,1-2.08,2-3.34,2.26-16.83,3.46-33.7,6.76-50.53,10.22-.88.18-1.55,1.43-2.31,2.18,2.34,1.26,5.06,4,6.95,3.55,12.78-3.32,26-2.27,39.06-6.41,13.07-4.3,28.28-4.22,41.43-9,1.45-1.33,4.45-1,6.76-1.37.48,3.79-3.64,3.25-4.86,5.1-7.44,11.21-18.52,18.19-29.15,25.68-2.53,2.93-17.87,7.91-15,11.74,1.21,1.56,2.47,3.28,5.27,2.1,50.59-20.29,35.36-42.53,94.15-63.82,7.28-4.79,17.08-6.27,22.29,1.82-.67,1.63-2.06,3.54-3.62,4.14C297.5,323,289.17,342.76,294.44,360Zm20.23,94.49c-9.71-29.39,14.7-44.46-4.48-77.17-15.24-30.1-4.4-58.09,29.54-58.4,37.22.94,61.93,22.54,92.65,36,10.57,3.45,8.59,13.47,10.06,20.48,3.37,23.87,23.74,35.82,11.9,37.48-23.93,4.92-43.13,19.17-63.58,31.21C366.31,461.63,337.64,496.8,314.67,454.52ZM477.5,554.37c-10.76,18.08-25.94,29.34-50.1,28.72-10,1.85-17.37-4.31-23.64-13.69-8.93-13.36-22.4-21.9-35.67-30-58.72-41.74,43-99,77.8-115.75,14.45-7.2,25.77-2.17,36.3,7.59,2.53,2.35-1.37,6-10.59,9.71-16.13,6.55-37.11,41.52-33.45,58,2.52,11.29,11.79,17.77,22.73,20C480.3,522.84,487.63,537.34,477.5,554.37Zm33.56-30.2c-7.56,6.5-16.18,9.1-22.53,1.07-8.72-11-21.6-12.54-32.66-18.18-17.7-9.63-6.13-34.24,5.71-44.16,10.16-9.21,18.57-22,33.05-23.44C552.31,441.32,543.71,491.1,511.06,524.17ZM571,526.48c-18.25,25.28-27.6,84.78-11.32,112.9-52.2-29.92-45.25-97.13-19.42-142.77,4.38-9.68,11.43-8.14,15.85-4.86,6.07,4.52-2.68,8.72-4.64,11.84-9.68,15.43-12.52,32.68-16.88,49.71-1.23,4.8,1.78,9-.4,13.34-.19.38,1,1.46,1.54,2.21,1.78-2.53,4.68-4.86,5.16-7.61,3.53-20,8.92-39.31,18.63-57.15,1.27-2.32,3-9.26,8.83-5C582.51,509.38,582.09,511.69,571,526.48Zm41.9-15.75c-31,11-32.51-31.9-63.57-29.73-9.38,2.05.77-23-9.59-33.08,19.57-3.45,20.9-1.92,27.36,14.92,9.11,18.87,32.94,25,44.2,10.85,4.91-6.18,6-31.86-.85-41.66-7-9.2,2.91-6.6,6.3-12.64,16.55-24.42,24.67,6.31,48.21,9.95,7.62,1.59,5.94,10.06,5.45,14.09C671.16,477.62,648,507.3,612.87,510.73Zm84.71,270.58c18.95-81.93-5.83-172.66-53.79-240.47A83.13,83.13,0,0,0,626.26,521c-7.13-4.09,23-9.52,34.47-25.07,3.51-3.82,5.56-1.69,7.41.69,17.46,22.43,35.23,44.68,47.42,70.67C757.49,647.52,761.67,741.55,733,826.9c-.76,2.64-2.36,2.48-3.56,1.77-16.71-10-32.46-6.31-47.82,3.16C686.77,814.72,693.54,798.6,697.58,781.31Zm2,52.87a15.71,15.71,0,0,1,4.7-.93c21.12-.91,31.57,12.56,44.66,20.72,8.36,5.21,17.57,9,22.86,18.69,8,15.53.17,41.28-13.4,52.13-12.95,18.18-29.95-7.67-48.34-2.09-5.13.79-7.8.3-7.08-5.87,3.33-32.43-60.63-28.57-51.24-40.79C667.25,861.56,677.91,841.51,699.6,834.18ZM549.45,1206.89c-1.33-11.06-4.25-21.2-11.43-29.82-2.14-2.55.85-2.81,1.51-3.6,12.62-15,30.66-20,48.13-26.45,20.49-7.53,27.22-32.15,14.23-49.5,11.52-4.51,7.68,7.78,11.81,11.47,18.86,17.56,42.68,29.16,68.79,28.42,5.43.32,2.91,6.64,2,8.69-5,11.09-12.6,18.26-25.65,21.42-42.71,14.36-44.77,55.31-106.57,49.25C545.79,1216.1,549.83,1210,549.45,1206.89ZM419.2,1112.65c11.93,8.83,26.15,12.22,40,16.34,3.08.92,1.61,3,1.06,3.72-3.15,4.13,2.25,15.33-9.79,12.11a161.82,161.82,0,0,1-35.82-14.33c-11.21-6.12-12.44-17.23-13.38-27.74-7-44.9,33.92-77.34,65.61-102.55a5.88,5.88,0,0,1,5.29-1.26c20,3.74,39.16.66,57.67-7.59,1.94-.87,4.51-.31,7-.42-4.59,8.94-2.81,51.52,4,61.49-12.25-.49-23.75,11-25.57-8.19-1.7-10.64-8.93-19.5-9.28-30.51,0-.93-2.31-1.78-3.55-2.67-9.2,8.93,7,40.53,12.19,48.88-8.29,2.49-11.43,13.48-16.41,3.4-7.91-13.11-15.29-26.47-21.16-40.61-1.54-4.12-6.39-5-6.07.54,2.33,18.21,12,33.14,21.88,47.93,1.34,2,2.64,3.58,0,4.85-3.2,1.51-4.17,9.52-9.31,4.66-11.93-11.32-24.1-22.54-32.81-36.8-1.86-3.06-5.27-4.57-8.4-3-4,2,.35,4.6,1.11,5.86,9,14.93,19.6,28.53,33.29,39.76,6.47,5.31-2.28,8.93-4,13.16-1.29,3.15-3.63.14-5.68-1.22-11.21-7.38-22.64-14.41-34-21.58-3.63-2.29-7.14-4.79-10.9-6.81-5.09-2.63-7.39,2.22-3.36,5.39,12.75,9.19,25.88,17.92,38,27.86,3.27,2.68,13.9.74,8.69,11.55-5.83,12.09-12.23,1.79-17.53.87-9.13-1.58-17.81-5.81-26.64-9C416.57,1104.85,416.15,1110.59,419.2,1112.65Zm-22.4-51c-4.71,3.27-10.88-4.07-16.3-6.78-14.11-6.32-39.85-37.9-15.82-46.41,29.22-9,26.2-50.92,58.58-53.84,15.75,3,26.35,12.49,33.57,26.06,2.29,4.3,9,9.2,5.62,13.05-16.19,16-37.77,27.13-49.69,47.58C408.36,1048.74,403.59,1056.93,396.8,1061.64Zm70.08,85.9c.92-40,28.86-72.54,65.61-87.06,11.84-4.34,15.63,5.22,21.85,10.76a110.89,110.89,0,0,0,37.22,21.86c4.93,1.73,9.94,22.39,8.57,28.1-4.63,19.32-22.31,20-36,25.22-12.85,4.89-22.57,13.1-31.54,22.51C510.6,1197.33,463.08,1184.66,466.88,1147.54Zm98.39-78.44c-26.09-19.09-26.39-55.39-19.78-83.73,3.69-11.69,15-17.85,25.11-24.49,11.17-7.32,23.12-11.76,35.85-15.42s44.57,11.91,44.48,24.62c-4.29,9.76-4,21.47-4.1,33.23-.08,9.85,7.29,17.72,6.31,27.9-.7,7.2-1.68,13.72-7.8,18.32-9.87,7.41-8.65,19.65-13,29.47C620.07,1105.5,581.67,1079.22,565.27,1069.1Zm82.79-118.29c-15.49-14.31-38.66-16.31-58.57-10.38,1.34-15.61,6.53-37.62-4.43-51-12.09-14.36,4.39-17,10.23-19.73,18.84-8.89,22.79-5.56,35.54,8.82a49.17,49.17,0,0,0,31.83,16.21c18,2,32.39,12.27,29.89,26.23-2.54,13.05-15.26,20.94-25.2,28.61C661.44,959,655.32,958.28,648.06,950.81Zm-65.6-28.7c7,31.06-30.84,30.76-42,54.4-7,13-21.61,10.52-33.07,14.33-3.84,1.27-8.11,2.27-12.06,1.93-10.15-.87-22,5.56-27.09-12.16-3.5-12.2-13.21-22.58-12.31-36.86.64-10.13,10.65-17.81,20.64-16.64,17,2,32.8-1.44,47.1-11.8C548.46,894.51,585.73,866.56,582.46,922.11Zm-42.1-30.9c-12.46,6-21,17.91-34.57,23.07-24.62,9.2-56.46-7.73-59.22,35.22-6.11-17-11.79-31.13-16.29-45.65-4.59-14.78,5.05-37,18-44.06,8.78-4.78,18-1.59,27-1.55,27.15,2.21,53.49-36.77,72.73-21.11,8,5.79,8.26,14.52,9.39,23.8C559.26,876.21,553.58,884.83,540.36,891.21ZM439,950.83c-21.75-10-49.72,4-56.08,27.53-1.91,7.07-23.92,27.52-30.07,26-8.1-1.93-14.5-8-21.23-13.14-7.68-5.85-17.71-8.23-24.72-15.42-17.13-17.56-16.6-43.49,10.66-52.88,20-6.86,35.4-17.2,50.1-33.54,16.24-18.07,45.2-15.84,54.46,15.75C426.65,920.49,433.18,935.21,439,950.83Zm-100.15,58.53c11.29,3.36,6.31,12.62,8.55,18.75,7.55,21.14,25.47,34.9,46.22,41.46,4,1.22-.14,7.1-.32,10.65-5.71,45.54,17,48.16-1.13,57.28-14.5,9.46-28.8,20.33-49.58,19.52-29.25,1.91-54.52-19.92-52.52-51.16-1.35-17.34-12.79-28.79-23.66-40.19-22.27-23.35-10.34-49.67,14.12-60.58C300.78,996.08,319.57,1003.59,338.88,1009.36Zm65,126.12c.34-.55,4.49.75,6.48,1.89,14.4,8.25,29,15,46.18,16.27,5.67.42,3.37,10.24,6,15.49,11.48,24.32,43.8,32.54,64.44,14.84,4.42-3.61,9.91,1.64,11.73,12.38,4.2,17.31,4.58,44.57-11.28,57.16-17.93,14-54.53-14.8-84.7-5-26.12,6.11-45.91-1.51-58.39-26.34-4.9-9.75-2.77-22.31-.69-33.55C386,1169.14,392,1151.21,403.9,1135.48Zm223.43-26.82c-3.59-2.45-6.48-5.92-10.05-9.25,32.36-5.92,20.66-25.73,32.64-42.11,14.7-12.16,15.78-27.1,8.9-43-6.6-15.27-2.34-29.85.44-44.7,1.47-7.88,9.37-10.14,14.45-13.64a114.42,114.42,0,0,0,23.68-22.12c5.15-6.26,14-3.81,20.13-2.27,22.92,5.78,40.73,18.72,47.21,42.74,6.47,28.55-28.39,34.85-26.14,68.59-.91,22.71.88,46.43-15.23,65.82C697.8,1136.75,655,1128.93,627.33,1108.66ZM610.72,781.81c9.79,8.53,21.64,11.12,33.6,12.84,36.07,13.85,17.82,52.74.55,74.56-3.41,4.83-6.17,5.1-9.83.57-15.76-19.54-48-16.24-60.49,6.05-1.07,1.91-2.25,4.37-5.44,3.8-4-.71-2.08-3.48-2-5.5,2.55-20.75-2.56-52.69-30.05-51.28-18.94-.7-39.78,28-42.84,11.26-12-25.83,4.37-50,32.65-49.33C567.85,791.28,577.46,755,610.72,781.81Zm-281,20.53c-8-8-15.29-16.67-22.87-25.07-2.28-2.52-.13-4.18,1.47-5.29,12.44-8.57,24.81-17.26,37.55-25.36,10.25-6.5,4.49-14.67,2.28-21.66-11-34.39-10.58-70.78-7-106.09.52-5.16.69-11.56,4.63-15.45,21.2,24.45,49.7,42.26,80,53.77,29.39,7.59,62.94,11.47,79.66,40,8.67,13.91,15.49,3.39,23,1.14,13.75-4.09,27.23-9.11,41-13,5.25-1.5,5,5.07,5,7,1.15,24.12,1.73,48.46-5.9,71.67-2.91,8.83-14.06,9-21.7,10.57-16.52,1.81-34.33-1.21-49.19,9.29-1.3-6.69,14.7-26,21.47-26.86,12.29-1.51,24.49-3.81,36.69-6,1.9-.34,4.27-2.94,2.8-4.27-10.31-9.56-28.71,4.2-40.4,1.46,5.48-8.79,12.88-16.45,19.5-24.44,2.21-2.49.63-4.28-.36-5.67-2-2.78-3.26.69-4,1.42-15.38,12.88-25.72,29.86-37.69,45.4-8.37-12.62-10.14-28.89-19.36-41.39-2.18-3.28-4.08-10.39-8.43-7.55-4.67,3,.09,8.91,2.09,13.06,6.73,14,15,27.41,20.3,41.91,2.68,7.34-5.68,14.26-8,21.8-.42,1.4-1.43,2.62-2.8,5-18.11-33-45-58.95-67.59-88.69-6.63-9.29-1.95-20.77-3.13-30.9-1.78-4.93,3.91-15-4.12-14-7.66,3.08-3.51,24.08-3.57,33.56-8-8.1-37.93-56.85-43.38-51.35-7,5.75,36.46,54.23,42.16,63.86,3.5,4.49,9.53,7.06,9.45,14-6.22-.64-48.91-19.32-47.66-10.79.31,5,5.58,6.41,9.57,7.53,15.66,4.39,31.37,8.87,47,13.25,7.83,2.19,12.81,14.55,19.05,22.33q13,16.2,26,32.4c1,1.29,2.55,2.64.92,4.21-14.51-5.42-28.89-13.07-45.12-14.63-9.55-1.22-13-13.56-18.34-20.56-3.56-2.62-6.46-10.12-10-7.73-4.73,3.2,1.3,7.32,3.34,11.07,2.51,4.61,4.68,9.31,10.59,14.29-7.85.32-37.26-7-35.45,2.66.28,5.06,6.86,4.74,10,4.54,16.06-1,30.89,5.6,46.58,6.68,4.42.31,8.66,3.24,13,5-25.54,10.46-40.7,4.93-65.74.54C347.45,791.28,343.86,817.78,329.74,802.34ZM275.37,866c4-7,11.54-6.11,17.19-6.36,42.84-1.34,36.35-55.29,80.23-56.07,7.13-.69,14.64,4.09,22.15,5.42,16,2.83,31.52-2.29,47.21-4.1,18.6-1.91,37.67,13.52,42.33,30.91,1.18,3.42,4.81,7.81,1.79,10.29-2.76,2.27-8.27,2.92-12,2a41.53,41.53,0,0,0-51.71,37.14c-17-26.62-60.42-17.28-72.51,9.8-11.34,19.18-43.55,10.34-58.13,35.9C276.14,910.48,259,891.05,275.37,866Zm-97.84,185.75c-7.56-11.56-3.8-30.78,5.28-41.73,11.24-13.54,17.14-29.51,20.49-46.85,2.82-36.65,26.91-65.51,64.75-45.11,36.78,23.86-.3,49.86,48.26,75-13.21-.46-24.38-.62-35.88,1.46-21,3.81-41.41,34.7-34,54.44,1.13,3,.7,3.17-3,3.27-18.89.5-37.41,2.81-55.27,10.19C181.06,1065.33,180.06,1055.57,177.53,1051.71Zm3.67,24.93c18.14-11.41,39-13.56,58.33-15.82,15.93-1,18.82,13.17,27.12,20,16.24,13.4,11.74,34.72,18.07,52,21,38.37,64.12,40,99.86,20.66-7.77,14-10.79,30-11.21,45.65-.25,9.74-2.5,16.29-9.95,22.81-10.25,9-18.85,19.82-28.35,29.68-18.79,19.56-55.93,30.44-64.07-4.41-15.4-54.93-77.05-36.39-98.73-74.33-4.19-9.18-2.21-20.28-7.12-29.7C147,1116.87,154.05,1091.5,181.2,1076.64ZM330,1332.06c-9.87,10.67-19.56,22.46-31.76,29.74-11.61,6.93-20.69,18-33.77,21.86-9.48,2.8-40-25.48-51.14-31-9.06-5.67-11.07,5.13-15.39,8.8-34.87,28.65-87.25,45.13-132.23,38-18.14-3.35-35-11.32-52.45-15.51,44.69-17.85,20.23-88.11,57.06-124.76,14.15-7.43,6.46-12.06-1.51-18.34-14-11-29.54-20.83-39.4-35.85-5.55-8.45,5.87-12.54,10.28-17.23,7.48-7.94,16.67-14.58,26-20.42,26.51-17.33,59.68-24.18,90.52-16.27,4.62.77,4.52,5.73,4.49,8.3-.74,41.19,43.47,43.89,71.89,57.79,2.57,1,2.29,1.83.74,4.55-9.49,16.68-21.28,8-33.43,4.34-12.73-3.81-25.57-7.43-39.26-7.71-5.77-.12-12.19-1.69-16.15-9.56-4.87-12-41.94-38.4-53.25-27.53-.63,2.46,1.42,3.35,3.47,3.94,16.66,4.83,30.67,13.82,43,27.76-13.06.22-47.28-14-54.55-4.82-.61,3,2.14,4.24,4.19,4.65,25.89,5.11,51.76,8.66,77.53,14.82-14,2.81-26.21,12.47-41.5,9.51-9.13-2.05-12.55,9.28-.91,7.92,19.47,2.7,36.64-4.85,53.62-12.49,11.88-5.35,20.64,3.78,30.92,5.65,14.27,4.84-40.55,45.27-45.63,53.13a11.55,11.55,0,0,1-9.1,3.63c-21.14-.42-41.61,2.76-60.9,11.91-3.86,1.84-8.4,4.31-6,8.8,2.14,4,6.65-.26,8.89-1.43,16.51-8.58,34.33-9.89,55.44-11.93-27.38,23.07-51.8,38.57-76.89,61.77-1.4,1.28-4.71,2.26-3.26,4.62,1.66,2.69,5,1,6.73-.19,21.48-15.23,42.81-30.68,64.47-46.3,1,17-11.31,29.47-19.87,42.59-1.89,2.83-7.52,5.86-3.14,9.1,8.59,5.64,22.94-25.62,27.1-31.92a38.49,38.49,0,0,0,3.41-25.51c-.64-3.4,8.31-8.67,13-13,9.06-8.16,17.79-16.7,27.29-24.32.14,2.48,1,5.19.29,7.42-4.41,14.22-3.29,29.67-9.78,43.4-2.74,5.8-5.57,11.59-7.84,17.57-.67,1.79-4.66,4.38-.58,6.05,13.47,2.08,22.26-43.54,24.61-54.4a147.55,147.55,0,0,0,2.28-27.66c0-3.41,4.6-7,7.37-10.23a36.38,36.38,0,0,1,5.54-4.79c4-3.1,6.93-11.4,11.87-8.57,6.11,3.51,5,12.09,4.54,19-2.81,22,5.76,42.37,15,61.87.49,1.07,2.58,1.4,3.93,2.08,4.51-11-5.82-21.18-7.3-32.15-1.66-8.65-.29-16.89-2-28.52,7.28,10.41,35.9,68.36,43.1,63.8,2.55-11.31-20.75-40.18-26.15-52.27,3.87-1,25.47,8.15,32.15,12.79,3.85,2.68,8.69,3.94,13.14,5.71,2.84.47,2-4.55,1.19-5.2-16-9.37-30.76-21.52-50.28-22.07-3.6-.11-2.78-2.87-3.71-4.19-5.47-7.8-10.81-15.76-15.47-24.06-6.64-11.81,6.75-13.38,11.24-18.83,3.18-3.85,6.94,2.23,9.87,5.49,7.67,8.52,10.25,19.56,15,29.46,13.32,25.56,44.53,19.16,63.57,3.94C312.28,1321.12,351.66,1315.75,330,1332.06Zm132.21,4.87c-28.86,21.09-57.87-9.24-88.53-9.25-49.52-4.61-45.5-59.29-17.18-87.09,4.64-5.49,10.2-10.2,15.1-15.48,2.78-3,4.17-1.38,5.08,1.22,7.32,20.67,25.13,29.33,43.79,34,10.53,2.61,22.82-2,34.33-3.2,29.67-4.3,61.58,26,86-2.57.18,12,4.78,22.46,3.77,33.91-.84,9.52-12.61,24.3-22.33,24.4C499,1313.06,480.58,1324.86,462.19,1336.93Zm310.55-87.61c48.22,19.07,69.73,68.72,93.06,110.85,4.89,7.61,10.41,17.59,21.93,19.07,1.24.16,2.31,1.64,3.45,2.5-3.38,2.94-6.33,6.8-10.24,8.64-10.46,4.91-18.89,13.43-31.28,15.24-9.3,1.36-18.43,3.84-27.93,3.27-3.69-.22-5.44,1-4.78,4.77,3,17.34-4.26,33.91-3.83,51,.23,8.89,3.27,17.76,3.09,26.6-.1,18.34,3.63,38.25,17.68,51.4-54.91,4.95-112,8.34-161.12-20.32-14.6-7.2-28.84-33.07-46.82-23.33-32.24,13.29-70.75-1.12-102.21,12.82-17.27,8.6-16.4-5-20.63-12.17-30.57-51.83-29.2-119.81-.27-172,11.48-12,35.58,5.74,49-33.52,1,.68,2.58,1.12,3,2.08,8.57,20,33.06,29.58,53.19,23.06-18.52,28.89-56.81,35-73.82,65.87-2.36,6.13-18,18.58-13.93,24.58,1.62,2.23,2.7.72,4-.32,10.44-8.33,15.77-20.89,25-30.21s18.72-18.77,32.53-25.53c-21.61,34-40.26,66.4-46.72,105.1-1,1.67,1,2.62,2.55,2.59,8.34-1.47,7.79-20.81,11.95-27.74,5.62-13.67,11.44-27.19,18.88-40.8,3.76,15.54,2.79,30.72-.34,45.79-.62,6-6.51,21.35-1.37,25.16,10.55-1.66,13.49-52.36,12.09-62.31-.81-8.53-7-17.19-1.42-25.44,13.94-20.21,29.12-39.61,44.28-58.93,1.52-2,2.46-2,4.16.11,6.94,8.72,14.6,16.87,21.45,25.67,5.48,7-.73,14.4-.93,21.63-.32,11.12-4.12,22.08-5.24,33.24,0,13.27-6.81,48.92,3.16,57.17,6.77-10.18.45-33.11,4.54-46.91,11.2-76.38-1.54-58.66,46.14-4.6,4.63,5.69,3.51,16.92,3.86,25.08,1.06,24.69,8.37,47,23.51,66.66,6.65,11.74,11.41.81,5.56-6.13-12.73-19.25-18.91-40.35-20.45-62.91,25.66,23,50.68,46.66,76.92,69,2.45,2.08,6.12,3.49,8.07,1.25,2.2-2.51-.62-5.35-2.75-7.5-30.6-30-60.72-61.19-88.52-93.66,26.16-3.15,47.51,9.89,68.54,21.86,2.21,1.28,4.71,5,6.93,2.23s-.66-6.39-3-8.06c-23.38-18.42-52.64-26-81.56-29.09-6.28-1.66-10.54-11.12-15.58-17.19-10.26-13.13-22.24-25.15-31.2-39.18,19.76-3.87,39.48-2.26,59.34-1.16,10.58.38,15.79,6.38,21.23,12.59,6.4,8.14,41.82,39.1,50.57,30.36,1.89-3.93-2.77-5.36-5.13-6.37-16.21-7-28.34-18.92-42.08-33.26,16.55,4.77,31.64,4.4,45.67,10,16.44,6.54,33,12.82,49.57,19,1.09.41,2.75-.68,4.14-1.07-.75-1.53-1.09-3.83-2.31-4.48-14.39-7.65-29.52-13.56-44.63-19.69-19-7.72-39.45-7.93-58.65-14.11,18.56-13.43,43.12-19.51,66-18.59,3,.19,8.54,4.64,8.51-1.52,0-4-6.07-6.06-11.1-6.58-40.55-6.25-70.75,32.42-111.13,22.42-11.57-2.76-23.23,2.4-34.7,4.45-6.42,1.15-5.5-5.33-11.47-5.14,21.68-8.14,42.54-7.21,62.87-9.89,30.69-3,47.62-30.42,61.82-54.51C756.91,1244.13,766.27,1246.88,772.74,1249.32Zm12-82.46c5.47,10,1,32.84-10.18,40.64-35.82,27.38-38.95,89.93-96.06,87.53a155.46,155.46,0,0,0-64.4,13.49c-23.74,10.68-47.77-1.08-57.11-26.87-4-11.1-9.06-21.78-7.65-35.55-1.85-14.63-3.34-23.64,14.08-18.78,51.12,4.54,62.35-38.67,103-51.76,36.2-10.82,19.67-39.38,31.56-40.71a46.45,46.45,0,0,0,13.8-5.87c17.11-10.16,24.83,8.15,37.22,12.17C763.43,1145.82,776.65,1152.11,784.71,1166.86ZM836.23,1051c-35,26.8-15.07,85.57-72.84,85.45-9.22-2.13-21.41-9.52-33.34-17.49-2.12-1.42-.09-1.69.55-2.35,14.73-15.16,18.84-34.29,18.23-54.25-.65-21.29,1.69-40.15,19-55.72,14.69-13.21,11.24-43.5-5.47-59.33-14.73-12.8,8.48-12.54,16.79-35.14,5.65-11.47,13.63-4.78,19.16-2.41,18.39,7.87,22.67,18.87,23.15,39.36-.4,24.21,17.39,43.86,29.07,63.8C854.68,1019.9,845.74,1042.6,836.23,1051Z"/></g></g><g id="Red_Japanese_Frames" data-name="Red Japanese Frames"><path class="cls-6" d="M0,20V1580a20,20,0,0,0,20,20H956a20,20,0,0,0,20-20V20A20,20,0,0,0,956,0H20A20,20,0,0,0,0,20ZM924,1548H52V52H924Z"/><path class="cls-7" d="M952.1,15.41,928.69,38.83A4,4,0,0,1,925.86,40H50.14a4,4,0,0,1-2.83-1.17L23.9,15.41A2,2,0,0,1,25.31,12H950.69A2,2,0,0,1,952.1,15.41ZM40,1549.86V50.14a4,4,0,0,0-1.17-2.83L15.41,23.9A2,2,0,0,0,12,25.31V1574.69a2,2,0,0,0,3.41,1.41l23.42-23.41A4,4,0,0,0,40,1549.86ZM936,50.14V1549.86a4,4,0,0,0,1.17,2.83l23.42,23.41a2,2,0,0,0,3.41-1.41V25.31a2,2,0,0,0-3.41-1.41L937.17,47.31A4,4,0,0,0,936,50.14ZM925.86,1560H50.14a4,4,0,0,0-2.83,1.17l-20,20a4,4,0,0,0,2.83,6.83H950.69a2,2,0,0,0,1.41-3.41l-23.41-23.42A4,4,0,0,0,925.86,1560Z"/></g></svg>