<svg xmlns="http://www.w3.org/2000/svg" xmlns:xlink="http://www.w3.org/1999/xlink" viewBox="0 0 976 1600"><defs><style>.cls-1{fill:none;}.cls-2{fill:#f4f3ef;}.cls-3{clip-path:url(#clip-path);}.cls-4{fill:#50b271;}.cls-5{fill:#ffb85a;}.cls-6{fill:#997664;}.cls-7{fill:#d81e1e;}.cls-8{fill:#592116;}.cls-9{fill:#992d17;}</style><clipPath id="clip-path"><path class="cls-1" d="M960,22V1578a6,6,0,0,1-6,6H22a6,6,0,0,1-6-6V22a6,6,0,0,1,6-6H954A6,6,0,0,1,960,22Z"/></clipPath></defs><g id="Paper_Backing" data-name="Paper Backing"><path class="cls-2" d="M960,22V1578a6,6,0,0,1-6,6H22a6,6,0,0,1-6-6V22a6,6,0,0,1,6-6H954A6,6,0,0,1,960,22Z"/></g><g id="Wikipedia_Cropped" data-name="Wikipedia Cropped"><g class="cls-3"><path class="cls-4" d="M763.75,1420.83c-23.19,3.74-37.83-22.11-56.74-21.85-39.32,34.81-81.71-21.18-93.44-55.3-7.61-11.17-6.72-31.74-18.8-37.72-34.83,24.56-50.06,11.59-72.42-16.09-24.46,26.8-81.53,42.06-107,5.8-33-59.5,31.55-110.86,72.85-138.5,8.37-29.2,29.94-52.75,44.75-76.31,12.64,19.18-8.83,74.82,28.16,77.15,26.64,1,18-34.83,30.33-41.76,14.7,9.1,15.42,30.6,26.88,42.92,6.9,6.75,19.62-1.23,28.37-.81,9.17-5.33,6.27-25,5.37-36.2,2.91-13.53,24.13,14.49,34.53,13.55,34.58,6.44,27.2-37.16,11.14-57.07-9.49-21.78,42.75,18,52.55,10.76,11.08.24,22.06,7.42,29.37,19.2,30.37,39.27-36.47,67-1.25,80.67,46.34,26.29,39.14,61,25.44,98.43C846.44,1331.36,832.17,1418.79,763.75,1420.83ZM172.9,1242.3c-25,1.12-43-26.61-47.94-47.75-43,8.31-84.92-41-58.46-79.18,2.82-9.34,24.19-10.88,26.91-21.61-9.25-21-4.53-52.73,14.76-67.49,18.13-17.53,43.74-4.85,63.33-6.54,3.16-12-.27-28.57,6.67-38.61,5.89-25.08,38.11-23.76,58.09-14.55,10-14.62,25.43-26,45.78-18.74,28.44,2.21,20.56,38.32,53.78,41.48,18.26,4.76-8,21.87,1.63,32.52,8.72,13.47,33.37,8.93,43.65,21.55,2.07,9.35-7.9,22.91-3,27.4,2.74,9.9,36.89,10.65,28.32,26.24-3.5,31-31.16,61.2-65.39,61.6-8.33,16.55-10.48,31.71-35.74,31.8-23.18,4.76-42.11-6.75-59.2-19.41-16.35,23.61-31.92,71.4-73.22,71.29Zm784.62-275C932.63,963,917,952.42,890,961.13c-40.29-2.56-77.44-22.88-111.82-42.29-31.72-15,31.1-25.89,32.75-46.8-.49-7.38,7.27-9.12,7.65-15.23-4.85-18.06-54.66-3-31.56-29.25,14.45-51.55,61.87-119.28,122.42-84,14.91-16.55,41.14-25.86,63.81-25,15.29-12.39,2.93,130.59,6.73,128.91C973.73,863.16,998.18,978.82,957.52,967.28ZM279.1,885.4c-19.78,2.75-40.88-9.46-58-20.74-54.22,24.91-100.58-16.64-53.6-64.17-8.29-9.55-26.46.15-37.88-1.39-18.05.55-47.74-20-50.61-38.22-3.24-54.71,5.83-14.78-19.55-54.69-16.07-57,25.27-68.88,69.84-60.61,11.31-12.07,23-18.07,36.32-16.07,40.09-.88,51.45,43,60.32,27.7,5.13-13.64,20.77-25.9,35.75-26.1,27.59-1,23,34.66,29.84,52.47,21.88-3.74,35-6.3,40.88,21.56,14.06,35.06.42,70.4-2.56,104.85-6.47,6.34-14.19-4.67-20.4-7.2-21.71,0-17.46,32.56-11.81,49C313.62,885.78,323.9,885.72,279.1,885.4ZM607.34,714c-57.61-52.19-86.43-135.11-115.43-202.61-4.57-1.45-9.46,4.23-13.57-.59-27.08-35.54-77.77-1-109.63-26-47.06,26.23-182-28.36-182.38-77.17,31.91-13.24,75-17.94,110.76-21.6,27.75,0,47.44,12.81,73.31,2.36,38,2.53,39.14,46.64,77,51.43,22.5,19.7,44,38.39,27.66-7.86-12.45-46.08-26.38-94-67.2-123.75h0c-4-2.44-3.35-6.49.95-9.19,32.89-37.38,33.89,13.67,70.24,13.51,26.47,1.93,53.28-58.56,71.62-17.86C515,350.47,502.07,438.51,533.88,501c20.43-19.11,22.92-53.68,52.63-76.41,8.75-10.46,28.12-18.06,43.17-10.12,10.18-4.12,22.33-14.63,35.06-12.51,27.56-4.22,32.41,32,55.37,20.45,48.72-5.45,100.14,7.53,134,44.77,44.74,40.37,13.84,31.3-22.94,47.56-70.76,21-62,69.61-133.17,29.94-46.43,24-74.55-32.29-117.91-35.86-15.06-9.81-27.22,6.26-32,19.15-3.58,3.84-10.68,5.62-6.61,12.7,17,55.38,52,103.77,83.89,151.51C634.9,699.11,613.58,712.12,607.34,714Z"/><path class="cls-5" d="M634.32,1158.65c-25.22-3.39-25.6-39.68-44.54-48-7.67,2.17-3.83,12.91-4.84,18.44-.58,32.75-43.54,37.27-45.67,3.68-5.08-41.08,1.61-85.88,9.16-127.08,11-29.77-6.14-7.17-3.38-37.28-.24-12.62,1.09-25.28,4.46-35.08-.59-7.17-6.43-14.2-5.63-22.34-5.11-21.9-3.1-50.15-20.36-64C503,823.35,480.85,862.31,479,881.21,473,921.1,503.1,958.46,531.85,987.92c0,5.39,12.87,6.93,6.45,12-25,23.6-51.84,46.59-78.77,66.26-20.17,23.35-106.9,27.92-75.94-20.73,8.14-15.85-37.54-7.61-44.74-23.84-8-7.61-1.69-15,1.23-21.74-.95-6.78,11.45-8.39,18-5.48,25.31,6.69,56.06,1,81.75-4.09,57.86-8.36,51.45-9.63,7.62-41.2-22.41,29.08-111.5,7.26-139.33-17.23-18.51-15.91-19.13-45.6,8.58-43,6.75,0,8.76,2.2,9.43,2.93,14.67,14.28,44.64,38.93,68.37,32.58a6,6,0,0,0-.64-7.26c-10.44-10.59-15.45-24.91-17.9-39.2-25.3-21.8-57.09-59.59-39.75-100.18,3-19,24.69-39.54,37.55-16,5.22,4.7,5,17.42,13.37,17.93,15.3-21.61,18.73-51.24,46.14-59.09,32.91-8.62,27.51,36.28,33.18,56,1.43,5.56,6.95,4.3,11.23,4,20.51-2.47,22.87,24.24,35.17,32.09,10.42-4.43,8.06-21.93,15.84-30.56,3.85-11.51,17.47-11.6,17.9-21.63-10.56-48.76,24.39-93.92,61.66-41.14,14.51-17.95,51.77-39.91,69.08-9.44,13.21,13-11.85,48.28,10.86,40.32,52.1-50.27,63.55,6.41,43.27,52.55-5.19,13.06-9.35,32.76-19.21,41.54-8.77,3.24-3.49,13.93-10,21.93-47.19,79.13,78.33-45.59,103.94-19,40.95,47.8-116.15,92.17-149.94,82-6.12-8.74-13.64,8.48-18.84-2.21-5.17-5.43-2-18.16-12.13-16.59-10.85-5.29-26,2.78-30,14.19,2.17,26.24-24.79,36.54-30.87,57.48,3.16,6.27,9.2,2,14,.89,15,11.55,15.27,41,27.71,56.86,10.1,35.63,49.27,55.91,47.2,95.39C653.34,1146.19,649.06,1158.7,634.32,1158.65ZM391.61,786c-7.8.25-5,8-5.73,12.92-13.51,23.5-5.52,52.53,8.05,72.29,14.35,5.34,26.67,15.46,38.7,23.29,6.39-1,9.71-9.23,17.2-7.44,15.37-5.8-12.23-39.7-3-57.63,1.9-6.49-3.41-8.09-7.75-10.55C428.65,802.14,411.68,790.83,391.61,786Zm223.68,37.84c14.26-2,14.74,18.66,25.44,20.69,15.84-17.37,7.69-69.9-14.19-77.22-17,1.38-18.83,2.16-25.4,17.76-6.33,6.72-3,18.7-11.38,22.93-10.26,2.74,0,17.7-7.25,22.32-5.68,3.19-2.12,13.07,4,13C596,839.37,602.18,822.41,615.29,823.81Zm128,264.71c-58.11-15.18-101-67.74-130.85-116-5-8.27,6.32-12.26,10.43-17.15,4.81-3.25,6.69-11.73,12.93-10.7,41.37,16,90,35.43,136.38,31.3,7.23-1.53,13.71,2,18.73,5.58,27.78,13.84,38.4,52.95-1.17,55.46-12.35,3.63-27.88-7.59-39.5-1.77C747.23,1048.26,781.19,1080.7,743.33,1088.52ZM477.85,312.67c-24.23-.47-43.34-40.63-57.65-26-13.57-1.61-21.29-2.67-33.68-4.23-23.26-3.05-44.17-12.74-64.71-21.93-26-7.47-67.52-62.27-21.83-66.07,63.32,3,80.89,65.2,114.8,72.09,5.59-8.38-6.1-21.58,2.21-30.85,2.71-4,9-7.78,4.38-12.94-38.05-71.46,44.62-70.4,32.93,3.3-.71,4.88,1.3,10.86,1.9,16.17-.19,3.77-4.82,7-1.33,10.89C462.71,265.76,489.28,304.37,477.85,312.67Zm21.8-9.71c-9.46-15.12,14.45-64.32,24.22-82.4,22.45-34.57,41.43-6.41,50.62-18.24,2.55-49.56,113.13-91.16,72.82-16.65-22.7,22.69-47.5,44-72,59.67-4.82,1.26-10-6.87-14.09,0C547.91,266.48,522.45,289.24,499.65,303Zm193.82-2.31c-3.26,2.68-117.23-19.29-94.72-28.27,45.38-1.57,87.28-34.71,127.92-10.06C753.13,287.88,719.44,304.14,693.47,300.65Z"/><path class="cls-6" d="M760.92,1604c-11.45-4.3,19-43.38,18.78-55.91,11.2-24.95,19.92-56.17,19-83.84-.38-15.27-11.69-27.23-14.44-41.94,8.44-9.35,24.46-11.5,33.13-27.64,1.79-3.8,4-8.15,7.17-7.71,13.7,0,10.95,51.66,26.87,30.64,14.31-86.77,15.32-176.13,13.26-263.68-1.15-29.75-7.29-67.81-23.17-96.36-15.34-13.61-24.72-30.61-26.7-49.86-4.13-13.74-16.15-21-30.26-28.4-8.68-12.3,27.3-8.13,20.61-34.72-.09-20.21,41.38,12.92,55,11.33,9.94,2.56,12.67,2.92,11.52,13.55,33.24,95.46,40.6,196.36,39.29,297.45-3.3,35.76,7.69,69.87,7.56,105.59-12.13,45.66-39.78,90.15-58.61,135-2.75,11.81-14,19.8-13.35,32.33-6.46,20.65-17.94,40.84-20.45,62.3C826.87,1606.63,762.61,1602.75,760.92,1604Z"/><path class="cls-7" d="M466.26,1139.4c-42.82-7.69-8.88-60.94,7.7-79.25,4.48-14.21,79.08-59.6,63.07-69.62-97.87-68.44-42.34-201-5-126.37,12.9,35.71,13.89,84.42,10.82,123.38-6,7.64,5.77,8.73,5.8,14.73C541.76,1056.2,526.31,1125.77,466.26,1139.4Zm226.47-3.15c-57.39-15.24-81.15-86-103-133.34-4.15-21.29-3.19-25.14-24.58-15.7-11.94-7.93,16.38-23.31,20.23-32.85,12.86-11.6,5.51-40.62,25.41-44.79,17.64-3.88,22.29,9.23,27.42,21.17,20.73,2.56,42.69-1.18,63.37-3.06,35.63-11,88.37-28.2,103.31,20-19.57,62-128.3,8.11-170.46-3-7.79,5.75-26.17,16.87-22.76,27,18.91,33.25,36.43,56.67,61.68,77.75C696.24,1064,735.57,1126.49,692.73,1136.25ZM392.18,995.84c-28.22-2.17-96.57-1.45-86.6-48.26,17.22-14.32,64.08,19.34,95.45,13.9,27.84-1.38,54.35-5.46,79.39,10.7C491.87,986.55,404.28,995.68,392.18,995.84ZM393.44,929C277.32,906.84,272.83,746,334.75,829,344.94,844,403.63,919.37,393.44,929Zm301.29-34.26c-16.71-3.91,17.29-39.55,18.72-51C764.92,729.76,870.56,815.15,694.73,894.69ZM430.6,890.85c-11.2-3.07-18.09-16.26-30.32-18.76-52-40.31-4.12-128.86,43.08-45.89,3.87,7.58,2.16,17,3,25.15-2.4,9.72,17.27,28.47,6.54,34.55C443.94,877.87,438.8,890.21,430.6,890.85Zm209.16-44.63C630.21,837.5,628,821,614.82,823.3c-11.67-2.8-14.29,14.63-23.7,17.84-12.64-26.44,30.15-110.49,52.24-53.31C646.82,805.5,653.81,833,639.76,846.22ZM513.53,811.43c-4-.59-6-5-7.92-8.39-6.87-32.18-40-16.58-36.17-38.16,12.85-73.69,78.29-69,71.73,2.86-11.24,8.64-18,20.47-22.39,38.57C517.78,809,516.3,811.21,513.53,811.43Zm131.12-475c-26.95-2.83-105.83-35.2-98.79-64.67C583.6,237.63,679,158.86,724.45,205.26c11.9,41-83.45,57.51-112.35,64C566.54,280.86,646.19,287,651.86,303,664.06,314.43,661.45,335.58,644.65,336.47Zm-320-2.72c-60.26-7.56-18.81-58.63,20.79-58.95,21.8-1.17,43.48,9.9,66.27,10.62C439.55,295.5,335.4,337.62,324.69,333.75Zm163-22.78C473,294.34,468.65,269.22,461,255c-10.48-19.95-11-91,25.7-74.26,5.36,5.21,11.6-1.05,10.61-7.2-6.69-38.46,54.53-77.8,48.93-18.11-12.26,38.29-23.82,68.16-45.41,94.36C495.56,269.05,501.19,295.77,487.73,311ZM415,273.85c-105.21-72.14-20.92-155.41,5.88-44.09C399.27,242.35,428,268.67,415,273.85Z"/><path class="cls-8" d="M980.4,958.63c-1.4-1.92-3.59-1.9-5.52-.5-26.72,17-42.9-12.2-67.32-4-43.85,10.57-87.72-17.94-125.42-37.75-26.76-12.27,10.81-6.85,32-40.61,1.46-2.38-.15-13.92,8.6-8.7,15.2,9.07,29.58,19.52,44.55,29,2.08,1.31,5.59.34,8.44.42-.46-8.88-41.22-30.07-51.12-38.52,10-1.72,19.25-3.76,28.58-4.77,8.67-.94,17.54-6.91,26.16-.07,16.57,17.51,25.22,8.68,18.08,35.42-1.49,12.35-9.3,23.93-14.38,35.85-1.1,4.14-4.55,8.41,1.18,10,3,2,3.44-1.32,4-2.66,7.82-17.65,16.91-34.86,19.47-55.08,13.21,15.08,26.16,29.71,35.7,47.14,1.61,2.93,3.91,10.32,8.49,7.55s-.4-7.56-2.35-11.35c-15.57-27.65-35.72-51.66-61.44-70.19,1.72-.88,3.56-2.71,5.12-2.48,6.65,1,13.86-3.69,20,3.93,9.09,11.33,23.62,14.84,36,21.28,4.66,2.44,12.4,9.11,17,1.68,2.61-4.36-6.22-5.57-9.13-6.78-14-5.59-26.54-13.29-39.71-22,17-1.17,32.89,0,48.84,1.45,3.45,0,10.44,2.82,12-1.35.35-2.58-.66-3.65-2.23-4.09-37.13-7.94-72.44-4.34-110.12-.12,12.69-8.41,23.66-15.92,34.89-23,6.44-4.08,11.32-13.66,18.74-12.32,8.08.86,43.54,8.11,45-2,0-5.58-32.88-3.14-39.15-4.65,7.42-10.7,14.22-20.49,21-30.3,1.73-2.51.52-4.55-1.56-5.93-1.54-1-2.66-.36-3.91,1.38-15.88,20.55-33.76,42.9-57.29,54.05,4.62-7.89,6.17-53.59-6.82-51.64-3.06.5-1.91,2.92-1.72,4.3,2.52,17.87,9.78,42.56-4.56,56.14-13,11.89-29.05,21-48.11,21.62-9.14.27-15.21-8.4-24.47-7.68-25,1.95-6.68-10.56-4.39-15.53,3.61-7.85,3.33-16.69,6.65-24,17.27-38.4,59.65-82.64,103.47-56.13,3.7,2.24,10.44,11.33,14.26-2.32,3.26-11.64,37.84-23.56,49.24-19.34,2.73,1.07,7.4-.17,9.51-3.3a2.26,2.26,0,0,0-1.55-3.76c-22.66-4.14-43.18-.81-59.42,17.17-2.84,3.14-4.47,6.19-9.65,1.73-10.67-9.2-24.57-11.55-37.41-8.49-29.79,7.11-50.34,27.54-66.44,52.44-4.67,7.22-3.4,16-17.75,8-16.56-9.29-32.56,3-47.38,13.09,4.21-13.9,5.44-28.26,9.86-42,4-12.62-8.52-31.5-21.69-32.09-20.66-1.76-30.84,12-43.38,25-.23-.53-.79-1.2-.63-1.56,3.39-7.7,4.5-15.47,4.63-24.11.35-22.5-16.5-40.12-39-36.63-10.8,1.68-16.64,3.09-23.21-8.39C606.05,644.43,516.23,548,566,515c46.15-10.13,72.09,50.26,118,40.51,6.41-1.6,12.27-9.75,18.22-5.73,43.5,35.42,60,7.16,98.09-15.14,18-9.23,36.9-15.77,55.61-22.89,9.72-3.7,19.45-9.49,30.76-6.7,6.44,1.58,10.21-1.85,12.15-7.23,1.88-5.2-3.11-6.62-6.21-8.52-31.33-19.66-52.28-52.16-89.58-62.93a200.72,200.72,0,0,0-82.35-9.78c-26.58,8.77-18.38-30.26-70-18-11,2.73-19.71,14.4-33,8.41-37.53-6.89-70.12,62.37-82.84,91.61-17.2-65.7-19.29-136.2,18.15-195.11,2-3.17,3.07-3.6,6.57-1,20.53,14.83,41.74,29.8,66.57,36.07,8.38,2.82,18.49,5.77,26.58,1.15,30.37-15.21-5-41.55,10-38.63,14.47,3.49,29,6.67,43.92,3.87,28.76-1.81,45.67-19.51,24.95-44.05-9.3-10.85-23.11-9-36.07-10.62,7.55-5.59,17-6.82,23.33-13.4,7.35-7.59,16.91-16,13.32-26.72-7.22-21.54-34.36-30-56.41-22.26a267.28,267.28,0,0,1-30.7,9c53.77-65.55-37.47-80.92-70.4-7.77-2.28,3.86-2.24,13-6.29,11.15-13.92-6.36-25.29-3.12-36.82,5.61,3-6.71,6.55-12.59,8.36-18.95,4-14.08,12.34-26.87,11.23-42.53-1.18-16.7-13.26-28.71-27.1-25.45-11.24,2.66-28.69,25.5-29.32,37.37-.44,8.36,1.38,17.06-2.35,25.15-18.46-21-28.28-5.26-38.42,9.6-1.61-14.27-13.68-27.26-25.6-28.12-15.37-1.11-16.87,12.33-22.31,21.54-20.79-27.13-55.4-9.31-47.35,23.45.42,1.45-.21,3.2-.35,4.81-100.16-69.34-115.2,30.84-19.56,59.69-53.13.89-79.3,66.46-9.71,65.13,21-1.6,38.54-11.58,57.14-19.76,5.9-2.59,9.95-16.62,21.6-5.24,40,38.06,53.84,91.58,66.67,143.25-8.64-8.3-17-16.29-27.73-21.09-7.79-3.48-17.9-4.8-23-10.58-9.11-10.29-15.61-22.61-26.59-31.87-8.57-7.23-33.51-12.31-42.47-5.62-4.4,3.28-8.63,2.62-13.3,1.07-30.51-9.78-61.94-6.88-92.61.52-21.46,4.18-42.62,11.14-64.94,10.92-4.1,0-8.42,4-6.71,8.49,8.1,29.43,34.68,45.9,60,59.56,37.3,18.19,78.88,36.26,120.86,26.39,4.48-.9,8.41-6.72,14-2.56,16,11.86,35.1,12.22,52.64,8.9,26.33-5,60.55,10.93,70.34,35.43,13.25,33.15,27.48,66,44.81,97.2,9.88,17.83,21.47,34.71,32,52.19,11.17,12-25-2.54-30.14,42.05-30.44-45.28-65.79-12.59-74.31,29.4.36-18.45-5.25-41.51-26.8-41.4-33,3.52-50.2,38.74-52.28,68.86-12.67-35.78-23.55-43.15-45.78-30.79,1.61-27.09-4.19-87.74-43.27-76.43-1.26.44-5.56,3.93-6.21-1.36-1.66-18-1.21-44-23.53-47.82-18.72-3.43-34.74,6.18-44,22.92-1.8,3.25-1.82,14.77-9.13,1.73-13-23.14-56-36.43-81.91-18.12-3.91,2.75-5.35,12.52-14.18,7.77-11.72-6.3-42.6-3.14-51.65,4.79C42.64,669.24,44.93,709,73.39,728.93c1.31.91,4.11,1.35,2.8,4-7.94,15.8-2.88,30.82,5.62,43.56,19.59,30.4,59.43,34.08,90.95,21.28-55.6,29-26.29,90.47,30.48,77.83,41.35-15.94,15.91,23.71,90.22,13.29-9.44,12.72-1.66,35.9,16.2,51.67-5.36,1.65-10.4,3.67-11.42,12.27-2-6.18-6.37-5.36-9.45-7-16.4-8.6-41.25-2.56-50.69,12.4-1.93,3.06-2,6.11-7.57,3.45-40.78-21.79-69.63,19.14-59.86,56.26-51.91-17.68-93.15,8.42-84.68,64.45.62,3.73,10.92,10.08-.18,14.87C53,1108.33,44.12,1145.61,62,1171c11.71,20.73,30.89,29.19,53.59,27.62,9.88-.68,9.35,4.73,10.27,10,16.58,51.21,79.21,47.54,102.1,3,6.38-12.63,13.42-24.84,18-38.23,21.25,27.89,82.41,33.63,95.62-3.16.13-20.23,8.41-.35,34.14-18.08,35.95-20.69,26.34-52.17,42.8-65.19,15.17-1.45,27.1-8.61,39.71-15.79-7.15,15.55-18.11,29.41-17.31,47.87.14,15.78,9.72,25.18,25.05,25.3,10.44.08,17.85-6.89,26.83-10.66-4.7,7.27-3.31,18.46-10.8,22.76-32.66,22.28-78.86,57.26-81.79,100-5.61,73.64,75.87,85.69,121,41.24,1.59-1.54,2.84-2.28,4,1.44,8.42,28,51.68,32.08,68.88,10.87.59-.75,2.63-2.93,2.48-.66-.49,7.21,4.22,12.24,6.39,18.28,4.68,13,7.25,27.65,14.91,38.68,11.25,16.2,20.78,34.31,41.25,43.18,15.9,6.89,33.46,8.5,45.76-3.23,12.05-14.31,22.51,27.72,65.2,20.65,7.55-1.09,9.43.2,14.1,7.3,21.14,36.48,5.33,77.42-8.49,113.33-2.78,9.2-25.54,49.56-20.25,53.88,6.83,1.29,9.1-6.94,10.79-12.17,6.33-13.09,13.29-25.88,17.29-40,13.14,5.23,32.25,15.9,45.35,6.93-1.3-1-2.57-2.83-4-3a148.59,148.59,0,0,1-26.09-5.94c-7.38-2.38-12.58-4.88-11.24-7.73,7.37-15.62,9.08-33,14-49.37,2.43-8.12-4.86-22.55,12.72-23.89,3.11-.24,8.67-6.46,8.31-12.14-.28-4.61-4,1.58-5.62-.78-1.92,2.43-15.45,12.44-15.84,6.47.47-11.88-5.26-21.41-11.38-30.87-8.24-10.87,14.68-5.67,31.19-32.17,1.39-2,2.59-7.84,4.9-4.88s6.13,8,3.86,13.16c-1.6,7.76-21.62,20.39-18,24.66,1.81,2.51,3.4.91,5.11,0,7.71-4.25,14-9.8,17.16-19.1.88,11.32,8.93,21.86,8.15,32.16-2.91,15.73-8.72,30.93-13.41,46.33-.58,1.89-3.49,4.16-.75,5.51,35.25-26.38,39.17-192.84,41-240.86-.76-10.06,24.42-1,32.08-6.27.91-.35,5.63-3.76,5.73,1.41,4.63,16.06-16.92,3-16.89,13.76,1.16,8.76,18-4.49,17.15,4.34-3.29,35.15,7.33,69.15,7.54,104.07,2.44,13-10.75,17.64-15.37,4.25-.65-2.06,1.63-6.3-2.26-5.89s-4,4.47-4.06,8c0,3.86,3,5.37,4.78,8,3,4.41,12.84,3.73,11,8-17,37.46-35,74.86-52.06,112.17-4.45,7.15-3.52,18-14.79,21.09-14.47,5.88-38.65-5.68-40.23.53-1.46,3.15,2,4.09,3.72,4.6,11.44,3.3,22.83,7.78,35.06,3.51a8.83,8.83,0,0,1,2.94,0c-4.89,19.3-14,37.67-19.92,56.79-1.28,3.4-2.24,8.92,2.29,10.65,7.55,6.75,17.93-39.75,20.79-45.09,16.64-44.67,36.26-87.83,57.84-130.22,8.74-19.64,22.1-38.16,20.58-60.91-12.48-82.36-4-165.7-13.64-248.27-3.47-50.85-19.22-98.65-34.22-147-.64-2.23-2.73-8.8,3.3-7.61,23.76,7.28,34.39-8.42,50.51.66,14.18,7.75,36.24,12,47.68-1.29C979.51,961.72,982.26,960.87,980.4,958.63Zm-196.31-31.7C810,941,803.47,966.84,774.8,971c-44.8,4.09-87.08-13-129-26.17-2.5-.8-7-1.51-6.28-4.74,3.21-10.5,25.48-1.12,34.15-5.47,25-2.28,49.58-6.05,73.15-15.44C760.57,913.93,772.49,919.4,784.09,926.93Zm-85.25,204.12c-48.36,5.37-89.74-91.64-105.3-129.52-5.17-14.13-2.79-23.13,11.78-28,1.57-.52,2.49-.91,3.75,1.34,14,25.09,30.18,48.34,51.3,68.33,14.12,13.35,31.52,24.13,39.06,43.65C705.2,1098.41,714.43,1123.8,698.84,1131.05Zm-155.28-68.76c2.76-6.77,6.22-73.24,15.21-64.2,5.26,12.36,7.84,25.4,10.33,38.56,2.56,16.12,9.86,31.41,10,47.9,1.37,21,10.9,67.57-20.24,68.1-21.6-4.19-18.44-44.76-16.18-61.54C544.26,1081.71,541.62,1071.55,543.56,1062.29Zm-63.25-93.85c-16.76-10.84-32.56-23.14-40.15-42.84-3.29-8.51-6.46-17.54-2.43-26.14,6.8-14.51,17-6.57,27.34-3.82,15.2,4.05,11.09,18,15.34,27.12,12.71,25.75,23.87,46,47.47,65.6A143,143,0,0,1,480.31,968.44Zm22.31,21.36c-21.63,12.31-46.65,15.38-69.92,23.9-20.58,7.54-40.19,20.86-64.21,17.43-10.46-1.49-19.46-5-26.82-12.32-7.08-7,2-13,2.6-19.52.33-3.38,8.11-2.47,12.66-1,12.78,4,26,3.19,39,2.61C418.68,1002.54,491.45,977.72,502.62,989.8ZM381.38,885.39c-1.19-4.74,2.45-6,4.52-8.36,5.83-8,26.78,9.86,33.88,12.9,16.29,9.94-5.16,24.06,21.29,57C415.54,933.92,388.8,914.46,381.38,885.39ZM393.44,925C287.61,897.9,282.61,782.88,319.15,815c17.73,23.87,36.66,47.1,51.72,72.59C378,899.73,382.69,913.46,393.44,925Zm99,1.84c-9.39-20.14-10.85-40.35-2.79-60.21,3.39-8.35,7.24-20.53,21.31-19.78,11.83,1.28,14.73,11.53,17.69,20,14.23,36.77,9.41,77.2,11.93,115.37,0,1.54-1.25,3.12-2,4.68C517.72,972.65,504.22,949.17,492.45,926.79Zm45.19-64c-5.65-16,13.63-39,30.66-31.48,18.19,11.4,18.24,53.84,7,70.94-1.94,3.32-4.2,2.48-6.18,3.36-8,3.53-15.1,7.84-19.48,17.75C546.39,901.57,544.84,881.72,537.64,862.76Zm11.42,102.13c-1.06-21.22,8.18-62.83,37.39-49.25,18.12,19.05-20.77,57.28-36.83,67C548.72,976.75,549.13,970.81,549.06,964.89Zm41.78-106.42c-.58-10.78,5.29-19.7,13.32-26.15C623.93,816.25,634.22,846,635,861.84c3.39,14.58.6,28.18-6.24,41-2.81,9.85-15.46-7.56-28.75,9.9-4.27,6.13-6-6.56-12.41-6.08C574.54,904.21,596.27,896.44,590.84,858.47Zm77.49-9.63c6.68-5.79,14.65-9.08,20.54-9.78,38,2.53-9.92,54-21.42,66.12-7.29,7.42-15.71,13.73-23.56,20.61-2,1.78-2,.59-3.16-1.11-8.47-12.49-.43-23.43,1.84-35.39C645.89,871.78,655.78,859.7,668.33,848.84ZM647.22,860c1.44-12.77,3.83-24.19,3.78-35.6-.09-22.69,14.9-33.13,32.06-42,5.31-2.74,12.59-3.6,16.53,1.18,5.17,8.83-2.27,21.86-4.05,31.68C685.91,841.43,672,825.35,647.22,860Zm-4.31-35.41c.1,5.84.82,11.82-3.15,17.65-5.89-24.35-35.7-34.21-47.52-4.92,4.44-23,3.32-37.41,16.4-54.91,5.21-6.39,11.51-11.33,19.65-8.88C643.85,779.25,643.44,810.8,642.91,824.57ZM626.21,944.9c-16.09,19-37.71,30.56-61,38.31,7.78-8.76,15.82-17.29,23.31-26.29,13.2-12.63,7.48-40.55,22.92-43.39C630.35,908.85,638.27,931.76,626.21,944.9Zm-47.59,98.59c-4.17-16.32-5.52-33-9.09-49.24-.62-2.82.7-5.38,2.2-4.82,3.3,1.23,6.71-6.33,9.21.15,4.81,12.44,8.18,25.57,14.24,37.34,12.09,23.51,22.44,48,39.52,68.83,8.75,10.69,18.09,22.44,14.69,38.6-1.42,7.21,1,16.09-10.49,19.56-9.57,2.9-13.64-3.38-17.47-8C596.76,1117,587.37,1079.63,578.62,1043.49Zm86.63-8.6c-6.47-6.1-60.63-67.23-46.94-69.59,4.57,1,3.74-11.56,10.66-3.72,24.61,26.22,56.4,45.33,87.95,62.14,16.17,5.06,30.18,15.48,35.77,32,1.69,4.43,6.58,8.23,4.28,12.9C753.15,1113.47,679.59,1049.12,665.25,1034.89Zm61.33-17c-37.41-13.49-66-40.43-97-63.61,5.17-11.29,11.85-2.39,17.06-.43,18,6.79,36.09,13.21,55,17.24,24.29,6.06,48.34,13,73.6,8.62,16.4,2,32.79,18.45,37.51,33.83C811.34,1049.46,746.38,1027,726.58,1017.93Zm78.18-167.09c7.88,3.11,6.94,11.31,2.89,18.27C783.76,904.85,728.2,918.67,688,924.88c-8.59.69-17.18,1.42-25.78,2-1.79.13-4.35,1.09-1.5-2.67,10.1-13.35,23.86-20.56,38.76-27.49A343.59,343.59,0,0,0,765.73,856C776,848,791.45,845.59,804.76,850.84Zm-34.94-57c37.45-1.53,12.42,41.13-4.91,51.33-22.8,16.26-45.18,35.69-71.46,45.33,11.71-24.61,26.37-49.53,39-74.16C739.66,803.92,754,796.21,769.82,793.88ZM679.3,772.07c6.82-22.73,51.65-59.3,59.42-19.1-4.79,30.24-12.48,57.85-25.53,85-1.47,3.35-1.93,2.65-3.53.86-6.8-9.28-19.57-5.91-7.32-17.59a82.54,82.54,0,0,0,6.51-38.8c-.78-9.22-19.28-13.53-29.4-8C679.38,773.63,679,772.7,679.3,772.07Zm-40.75-71c14.2-4.32,27.53-3.14,35.33,10.72,12.42,22.4-14.72,63.44-22,90.22-2.73-22-16.1-39.24-28.15-39.07-15.69,7.25-10.36-4.44-10.54-11C611.16,731.44,615.15,706.49,638.55,701.07ZM829.73,511c-24,9-46.49,20.48-66.73,36.61-14.82,11.82-26.18,14.52-44.3,1.47-10-7.21-18.38-10.52-29.35-6.93-37.44,21.62-67.14-37.52-112.5-37.72,19-13.1,41.24-17.49,63-23.52,11.35-3.32,20.52,3.61,23.39,15.09,2.81,10.15,11.49,34.16,23.06,35.84,0-2.35,1-5.84-.12-6.86-10.19-9-9.9-23-18.34-34.28,26.33,15.39,52.35,26.37,79.13,36.21,2.67-.35,7.83,1.9,7.59-1.7-.4-5.85-7.11-6.36-11.55-8.14-26.38-9.28-50.67-23.06-75.26-36.23-1.71-.92-4.36-2.51-4.32-3.72.08-2.49,2.92-1.77,4.81-2.07,26.12-4.26,52.32-3.17,78.58-1.58,13.92.84,22.66,10.3,33.13,17.28,4,1.93,28,18.35,29,11.29,3.31-3.59-30.08-19.65-34.27-23.3,33.32,3.78,66.15,7.66,98.85,17.12C858.48,501,844,505.66,829.73,511ZM549.2,486.38c11.61-24.36,41.54-82.05,75-69.19,11.41,5.11,16.44-6.62,25.11-9,20.77-5.69,37.47-.72,49.87,16.74,6.55,9.22,15.14,2.51,21.6,1.41,10.89-1.84,21.37-.9,32-.24,12,.74,24.49.21,35.54,5.64,16.43,8.1,36.73,9.51,48.74,25.19,8.44,11,21.66,16.33,30.11,27.85-45.62-11.51-91.6-17.45-138.7-22.49a203.06,203.06,0,0,1,46.84-13.21c6.52-1.85,15,.6,19.71-5-11.9-9.38-41.64,1.86-55.46,5.83-17.24,5.79-33,13.77-52.79,14.09-29.36-1-57.84,9-85.43,18.51,16.83-23.78,40.26-40.9,65.81-54.34,1.85-1.21,5.66-2.46,3.5-5.3-8.84-8.84-60.74,32.71-67.07,42,2.41-9.47.86-19,1.8-28.29.33-3.34,3.19-7.57-1.62-8.17-4-.55-6.77,5.46-6.37,8.29,1.49,10.36-2.45,20.2-1.11,30.79,1.43,27.74-44.34,29.18-52,59.19C536.88,514.78,536.72,513.9,549.2,486.38ZM653.76,326.82C640.6,348.51,563.3,298,549.58,285c34.86.94,72.41-4.18,99.35,20.65C654.79,312,657.67,319.5,653.76,326.82Zm70.65-61.2c7.18,4.93,8.32,14.24,6.05,21.9-18.36,19.09-78.21,5.27-101-4.26-8.34-3.21-17.58-4.1-30.24-6.91C644.42,275,684.63,242.3,724.41,265.62ZM616.61,154.53c13.27-7.09,38.11-12.13,35.87,10.32.74,21.56-60.46,63.86-78.88,76.84C572.4,206.49,583.94,173.09,616.61,154.53Zm-22.44,83.29c25.63-18.9,101.7-65.75,126.82-30.54,6.27,10.8-2.4,16.24-8.54,21.32C664.81,261,604.88,268.23,548.86,274.45,562.15,259.43,578.15,248.73,594.17,237.82Zm-92.91-63.93c-.7-46.76,47.3-64.9,41.08-19.53-8.21,31-22.45,57-37.05,85.88C505.28,216.6,499.17,195.46,501.26,173.89Zm26,48.87c10.26-19.45,47.95-26.84,38.52,5.5-13.37,31.07-39.63,51.17-66.09,70.7C507.09,272.39,512.11,245.74,527.22,222.76ZM461.37,200c3.46-15.84,20.19-29.55,27.13-8.07,14,37.79,8.1,76-.8,115.07C473,272.09,451,238.06,461.37,200ZM477,305.77c.35.94.56,1.93.83,2.9-22.32-2.1-84-59.6-50.4-75.63C453.39,248.32,466.94,278.43,477,305.77ZM420.87,176.13c6.59-6.4,13-4.15,17.64,1.56,18.22,20.16,9.21,41.39,13.72,65.05-6.39-9.35-16.39-14-25.25-20.25C417.25,216.05,410.09,184.78,420.87,176.13Zm-51.66,12.49c1.66-4.27,5.64-8.62,10-8.46,22.67.47,29,25.83,38.37,42.21.66,1.29,1.37,3.83.82,4.27-15.68,12.69-9.27,27.24-3,43.22C393.16,246.91,358.16,224.51,369.21,188.62ZM323.45,256.9c-68.18-37.65-46.51-91,38.47-31.4,7.95,4.77,12.15,15.39,19.06,22.36a315.89,315.89,0,0,0,30.22,26.9c3,2.35,4.39,7.15,9,7.95C386.39,280.09,353.62,272.5,323.45,256.9ZM350.82,324c-60.22,22.58-79.84-34.2-1.06-46.09,6.23-1.46,13.81,3.73,20.94,5,14.14,2.58,28.39,4.56,43.92,7C394.32,304.48,373.47,316.42,350.82,324ZM238,399c33.35-8.22,68.88-14.47,101.9-1.64,9.5,3.6,15.31-2.18,22.9-4.05,24.93-5.3,41.41,17.06,52,36,7.13,10.91,21.06,6.76,30.21,13.66,16.45,12.73,35,26.29,38,48.64-14.46-16.2-31.7-26-49.93-35.14-10.58-5.28-23.89-4.18-32.17-13.08-10.05-10.8-18.73-22.89-27.77-34.6-1.46-1.88-3-4.2-5-3.46-8.61,7,16.75,29.74,20.75,36.56-38.94,1.34-64.22-31.72-101.27-36.53-2.11-.29-3.74.06-3.81,1.68a5,5,0,0,0,2.73,3.83c15.91,5.91,33,11.21,46.27,22-50-5.5-92.07-9.63-142.47-25.28C209.34,404.2,223.7,401.78,238,399ZM481.47,508.3c-23.77-32.44-63.63-11-96.26-19.37-1.12-.18-2.75,0-3.27-.64-7.58-9.63-15.45-9-26-3.69-47.12,16.88-141.49-28.37-168.09-70.32,37.57,16.2,76.22,18.16,117.34,25-10.61,3.09-55.29,5.39-52.59,11.84.14,3.09,3.24,2.13,5.18,1.9,21-2.52,41.83-5.09,62.42-11.14,9.91-2.92,22.23,2,33.4,3.78s22.33,3.82,33.35,6.35c-1.22,1-2.45,2.76-3.66,2.75-19.88-.14-36.47,10.71-54.59,16.36-2,.64-5.19,6.4-1.72,7,20.63-5.25,40.4-14,61.69-17.55,37.41-6.22,77,16.1,95.55,48.14C483.27,508.62,481.9,508.84,481.47,508.3Zm78.76,138.06a541.59,541.59,0,0,1-58.74-125.19c-14.13-52-22.28-106.71-44.56-156.1-11.4-23-24.61-44.89-46.42-59.95-1.15-.8-2.05-.82-.28-2.16,4.12-3.13,8.35-6.24,11.87-10,12.63-13.4,15.24,3.84,21.3,7.58,14.4,8.88,27.94,20.51,46.07,14.11,14-5.52,25.07-18.75,37.79-26.73,2.85-1.5,5.35-8.36,10.2-2.89,4.63,5.22,15.28,7.37,4.83,18.67-38.38,54.78-34,129.39-18,191.51,15.34,75,55.88,140.74,100.18,202-5.79,2.58-8.78,8.1-13.28,11.21-7.37,5.09-7.87-4.12-11.41-7.24C582.41,686,572.58,665.13,560.23,646.36Zm-10.42,81.7c4-34.7,42.65-39.56,51.12-4.55,2,13.57,2.08,27.25,2.84,40.86.74,13.33-9.73,20.22-11.56,31.23-.61,3-.68,6.35-3.27,8.45-.6-.68-1.65-1.31-1.74-2-1.9-17.83-12.57-31.23-27.66-40.09-3-.9-8.86-1-8.92-1.79C549.78,749.46,548.75,738.63,549.81,728.06Zm2.86,41.68c20,3.44,28,30.52,28.21,48.65,3.33,27.86-17.66-27.47-51.23,28.32-3.4-3.19-9.56-6.23-9.73-9.58C518.77,816.65,526.86,770.26,552.67,769.74Zm-79.45-3.55c6-17.19,8.85-38.23,28.73-49.57,10.4-5.94,28.17,4.46,31.07,17.45,2,8.94,4.68,17.74,7.41,26.49.83,2.64-.87,3.33-2.15,4.33-14.66,10.67-18.81,26.86-24.78,42.54-1.41-1.93-3.33-3.67-4.16-5.83C495.55,762.88,469.67,782.08,473.22,766.19ZM465,789.71c27.64-19.83,39.66,19.78,43.76,41.32,1.89,6.8-5.3,5.32-8,6.92-16.69,9.73-22,25.85-25.81,43-.59,2.63,1.44,7.79-1.56,7.46-4.27-.47-10-3.16-11.92-6.65C446.76,855.78,444,813.12,465,789.71Zm-68.62-13.36c1.73-24,43-79.93,60.58-37.78,3.27,12.84.88,26.44,5.64,39-12.37,10.07-16.79,24.1-20.31,38.9C417.79,778.6,391.25,791.23,396.42,776.35ZM389,803.14C401.8,780,433.31,814,439.79,828c3.37,6.66,1.73,15.8,2.61,23.79,1.12,10.17,5.7,19.24,10.51,30.11-7.33-6.95-13.67-1-16.18,1.57-8.18,8.46-12-1.34-15.29-3.71-6.34-4.55-12.41-8.93-19.88-11.46C382.21,861.79,377.8,818.29,389,803.14Zm-37.27-46.06c18-11.33,28.84,26.54,30.54,40-11.19,19.72-9.33,44.41,2.07,64.18.62,1.36,2.57,2.79.4,4.16-6.58,4.17-13.9,12.29-19.09-1-4.71-12.1-15-20.12-21.15-31.09-9.65-17.23-14-34.42-4.68-53.84C343.56,771.79,344.42,762.4,351.77,757.08ZM240.51,872.49c-10.35-6.43-16.7-17.33-29.43-8.55C174,884.3,122.31,839,170.2,809.07c7.93-4.27,16-8.41,22-15.33-3.31-1-6.68-2.92-9.91-2.73q-25.28,1.51-50.49,4c-31.21.9-61.31-33.84-47.72-66,.68-1.76-6-7.42-10.19-9.7-18-13.67-18.13-43.52-4.74-60.76,13.26-16.11,37.32-13.65,55-6.58,9.17,2.29,17.44-22.4,40.89-18.48,28.93,3.34,42.27,13.35,54.67,41.33.28,1,2.53,1.44,3.88,2.14,6.23-15.64,7.54-30,24.5-38,17.94-9.55,32.8-.38,35.15,20.06,1,9.07,1.61,18.07,1.81,27.15.1,4.66,3.66,6.23,7.14,4.55,22.89-11,29.21-8.89,36.44,15.61a165.38,165.38,0,0,1,6.74,41.79c.63,20.44-11.45,38.73-8.49,59.26,0,.22-1.4,1-1.68.86-10.1-6.57-20.32-13-30.13-20-5.75-4.09-4.65-23.29.22-30.81,8.3-12.8,11.14-27.87,15.6-42.2.79-2.51,2-8.27-1.31-8.6-4.57-.46-5.13,5.39-6.5,8.94-5.64,12.72-8.7,27.32-15.38,39.21-5.43-6.5-21.82-79.57-33.65-73.33-4.3,2-.4,7.06,1.16,10.09,14.51,28,21.07,59,29.32,89C262,775.89,255.92,753,243.91,737.7c-7.37-8.82-30-42.94-40.41-42.17a5.06,5.06,0,0,0,.45,4.55c14.72,21,33.74,39.88,45.8,62.43-21-10.42-42-21.53-61.81-33.94-5.68-3.66-7.21-13.6-10.9-20.53q-12.67-23.82-25.63-47.47a3.94,3.94,0,0,0-6.06-1c-2,1.65-.39,3.67.83,5.87,3.36,6.05,5.58,12.71,8.84,18.82a246.12,246.12,0,0,0,13.49,22.67c3.34,4.9,2.42,11.93,8.49,15.4-30.58-12.82-58.4-31.74-91.34-37.84,15.27,12.34,33.58,18.26,50.53,26.89C160,724.81,185.68,736.1,207.83,752c-29.86,2.12-60.21,3.58-90.1,1-23.24,9.29,56.18,8.83,60.07,8.6,14-.3,27.91-3,41.47-2.49,14.71.56,26.22,13.1,40,18.74,3.14,2.22,18.61,5.17,12.11,10.07C260.71,796.85,249.52,809.2,235,800c-9.53-5.2-20.49-4.49-30.11-8.79-3.28.21-6.4,6.84-.93,7.9,12.86,3.58,25.67,7.32,38,10.86-17.78,11.24-36.31,22.92-56.75,31.17-3.44,1.39-6.84,4.5-5.41,7.85,2,4.75,5-.28,7.25-1.07,25.68-9.25,48.63-23.61,71.24-39.15-.46,5.59-2.39,11-1,15.29,3.92,11.77-2.59,22.35-2.32,33.56-.87,5.47,4.95,5.86,6.41.63,6.42-17.62,6-35.5,4.61-53.87-.29-3.9,8.15-9,13.28-12.59,4.82-3.33,7.56,2.79,11.39,4.26,14.78,5.67.89,12-.33,17.46-3.08,13.73-.3,26.45,3.51,39.35,2.88,9.77,8.59,17.93,14.24,26.14,1.22,1.77.33,1.89-1,1.86C284.57,880.42,261.4,885.23,240.51,872.49Zm58.65,26.24c.72-4.46,20.54-8.09,24-4.24,29.2,35.39,80.53,33.62,114.34,61.7C399.78,962.78,294.94,952.93,299.16,898.73Zm9.46,51.45c2.9-3.39,6.52-5.46,11.8-3.1,25.56,11.43,52.34,17,80.41,18.4,38.66.42,39.42-9.46,78.2,10.44-46.69,13-91,22.55-137.57,9.63-14.7-3.48-27.4-8.46-33.11-24.06C306.85,957.39,305.83,953.44,308.62,950.18Zm92.86,150.93c-2.62,20.08-26.42,51.13-46,51-15-.09-21.25,2.46-23.87,17.89-2.28,13.38-16.58,15.08-27.31,16.5-18.33,2.42-35.63-1.67-49.82-15.12-3.09-2.93-5.13-11-9.76-7.85-6.85,4.64-10.34,13.63-11.47,21.6-9.08,32.29-59.31,74.89-88.55,39.8-8.24-8.35-14-19-13.58-31.42.2-6.74-1-7-7.65-5-16.9,5.06-42.12.19-54.47-23.49-13.23-22.54-6.41-52.27,19.81-60.4,12.25-4.82,8.59-13.08,5.75-20.9-6.17-17,1.72-43.32,16-54.33,24.77-24.23,78.12,11.5,68.73-9.75-7.94-17.82,2.13-55.72,25.33-55.72,25.35-2.59,31.71,19,38.08,3.18,6.9-20.4,29.06-18.65,46-13.86,7.45.79,9.72,7.55,12,13.63,6,15.66,18.92,22.09,33.93,26.25,9.57,2.65.37,7.1-.41,9.11-11.67,28.73,15.43,32.82,37,37.74-12.22,5.06-23.8,10.77-36,14.54-6.61,2-10.22-6.74-16.34-8.48-17-4.85-14.85-22.22-21.66-33.66-8.19-13.76-15-28.34-22.63-42.44-.51-.94-1.21-3.94-3.8-2.41-9.75,1.59,24.39,55.63,25.65,65.51-3.53-.87-7.5-1-10.53-2.74-24.17-13.82-50.4-22.61-76.39-32-3-1.1-5.32-.17-6.36,1.88-1.54,3,1.86,2.65,3.42,3.31,21.82,9.78,43.76,16.88,64.66,28.88a190.28,190.28,0,0,1-65,8.66c-1.94-.08-5.38-1.84-5.45,2.71-.07,4.11,3,3.21,5.27,3.45,25.27,2.68,49.72,1,73.68-9.26,6.47-2.77,14.4,4.5,21,9,3.75,3.77,31,11.64,16,15.78-14.78,2.06-26.85,11.52-40.82,14.9s-26.89,15.72-41.19,10.78c-31-9.22-61.5-22-93.82-25.1-7.17-1.66-9.32-5.51-16.42,1.53,1.07,1,2,2.49,3.21,2.75,12.09,2.63,24.33,4.64,36.32,7.62,22.54,6,41.41,12.19,64.72,18.5-40.68,14.39-77.19,26.68-115.62,43.51-1.39.58-2.24,2.45-3.35,3.72,1.92.7,4.22,2.46,5.71,1.94,16.38-5.69,32.68-11.66,48.9-17.78,3.35-1.26,7.15,1.72,10.77-.93-11.42,14.07-22.74,28.21-34.34,42.12-1.64,2-.88,3.07.28,3.91a6.59,6.59,0,0,0,9-1.31c11.7-13.76,25.48-26.55,33.75-42.2,8.55-16.19,24.21-13,36-19.53,2-1.08,4.34-1.38,7.33-2.29-14.94,31.92-30,61.08-49.15,90.08-1.83,3-6.61,6.5-2.54,9.31,5,8.53,39.92-57.09,44.74-63.51,7.12-12.42,11.67-26.32,18.91-38.65,4.07-7,13.87-5.8,20.91-8.75,24.43-8.08,47.52-19.5,71.86-28.1a5,5,0,0,1,3.17.46c.07,2.07.37,4.43-.48,6.19a224.17,224.17,0,0,0-10.44,26c-2.57,7.7-13,5.8-19.71,8.88-7.74,3.18-46.28,28.59-45,35.81,1.48,1.9,3.62.8,5.61-.44,17.14-11.62,32.92-25.47,53.13-32-7.2,19.13-18.36,36.3-27.75,54.36-.82,1.58-3,3-.27,4.31,13.42,3,42.49-71,49.08-84.27,7.92,13.73,15.88,25,21.67,38.93,2.72,6.59,10.94,4.38,7.29-2.83-12.22-43-55.93-48.76,10-74.43-9.4,21.57-7.28,32.13,15.5,38.67C407.88,1088.94,402.62,1092.31,401.48,1101.11Zm55.66-38.1c-13.35,10-28.88,15.47-45.58,17.92-21.85.66-43.69-17.33-22.14-36,10.9-11.91,25.75-17.08,40.7-21.9,24.84-9.08,49.86-17.12,75.92-21.94,6.44-1.49,13.33-2,19.17-4.76,4.28-2,6.28,2,10.37.69C510,1021.06,485.18,1042.44,457.14,1063Zm10.38,72.12c-.84.26-1.74.34-1,.2-38-6.8-3.55-56.14,10.46-72.55,20.29-22.69,43.79-42.67,67.61-61.42-3,15.12-5.67,30.44-7.74,45.79C530.08,1085.61,506.63,1123.43,467.52,1135.13ZM490.88,1307c-38.69,15.73-81.37.8-80.94-45.64,3.21-45.76,40.46-66.22,70.23-96.42-6.23,21.91-7.68,40.76.4,60.1-7.4-1.42-57.18,2.72-51.3,14.77,2.47,4.28,5.94-1,9.06-1.5,12.68-2.15,25.4-4,41-6.39-8.29,6.1-57.18,57.93-47.9,61.76,3.47,2.94,5.92-2.1,7.9-4.42,8.42-9.89,16.5-20.07,24.95-30.45,2.06,11.26-1.57,22.44,2.5,33.11,1,6,5.41,3.24,6.1-.88,0-12.2-.68-24.4-.66-36.6,0-9.1,7.8-13,14-16.83,2.49-1.52,5,4.68,6.79,7.82,4.5,7.79,13.22,10.16,19.66,15.45C524.33,1281.15,513.84,1299.48,490.88,1307Zm291.46,106.5c-42.94,16.76-64.49-29.86-76.69-18.63-36.87,34.51-77-20-88.43-52.8-6.18-13.82-10.8-28.34-16.54-42.37-1.8-4.41-4.71-3.15-7.52-.07-32.11,35.67-69,3-67.91-34,.46-7.48-2.68-11.53-8.86-14.2-40.85-19.09-35.95-70-20.4-104.54,7.88-24.63,28.89-37.9,37-62,1.41,28.09-8.52,71.54,27.82,77.14,18.09,1.57,28.94-21.12,28.44-37.33-.18-1.35,1.43-2.94,2.22-4.42,5.73,4.57,7,12.47,11.17,18.22,5.08,7.81-2.65,12.75-4,19.06-1.73,8.35-5.26,16.33-8.17,24.42-2.6,7.21-9.92,7.44-15.47,8.73-18.4,4.26-35,12.6-51.69,20.86-2.57,2.25-15.17,5.65-12.86,9.22,1.17,2.37,3.89,3,6.54,1.87,21.51-9.86,43-19.64,65.95-25.51-.51,24.4-13.31,47-14.09,71.81-.31,3-4.6,7.52.6,8.19,4.06.52,4.7-5.28,5.76-9.34,10.61-38.9,21.15-77.34,34.53-115.28,47.53,79.25,13.32,19.39,9.22,122.9-.26,3.6,1.51,5.45,5.13,5.68,4.57.29,2.76-3.15,2.94-5.19,2-22.29,4.8-44.43,12.15-65.73.73-1.48,2.51-2.75,3.68-.56q11,18,21.78,36c.53.89.27,2.28.3,3.44.68,23.1.27,46.3,2.38,69.27,1.43,15.63,6.33,31,9.8,46.39,1.54,4.79,6.74,1.78,5.77-2.43-7.71-33.84-8.78-68.17-9.45-102.8,27.29,43.49,61.23,82,103.55,108.88,0-1.47.55-3.54-.19-4.3-17.74-19.06-39.29-36-54.49-56.81,3.15,0,6.54-.64,9.4.28,17,5.49,34.88,8.5,50.76,17.35.79.43,2.53-.85,3.83-1.33-10.92-20.11-57.92-19.43-76.83-29.62-12-7.55-17.7-26.9-27-38.3-5.72-6.63-1.37-8.29,4-8.41,27.47-.56,55-.71,82,5.64,2.28.54,5-.6,7.43-1-3.75-13.5-79.13-16-92.57-12.33-16.76,2.85-18.21-10.73-23.6-18.31-12.4-17.55-21.69-37.2-32.63-55.81,9.48-1.48,18.77-2.84,28-4.4,11.15-1.89,16.06,8,23.48,12.74,18.89,12.18,39.22,21.47,59.85,30,2.36,1.22,5,2.54,6.38.06,1.53-2.64-.45-4.95-3.14-6.3-23.48-12.89-47.45-20.46-68.15-38.53,11.51-1.78,80.33,4.59,77.23-4.5-.07-2.62-2.82-3.68-5.85-3.67-28.37.11-56.74,0-85.1.13-10.17.79,1.47-8.88-3.78-29.44,49.74,45.51,78.68,1.66,44.14-46.84,16.2,10.21,31.27,18.26,50,18.68,22.29.49,39.79,32.7,30.43,52.72a128.78,128.78,0,0,1-15.31,24.42c-19.55,23.41,55.71,23.54,45.18,86.54.57,8.57-18.21,26.17-12.54,30.34C834,1323.65,836.89,1393.76,782.34,1413.48Zm76.5-130.72c-2.57,45.15-5.31,91.41-13.35,135.59-4.75-12.64-8.41-25.17-15.31-36.56,7.81-34.75-.64-66.7-20.18-96.82-4-7.12,5.07-12.52,7.64-18.88,12.67-33.67-11-68.32-41.07-82.08-12.88-6.59-.32-10.86,2-14.43,19.22-29,21.34-61.12-15.94-78.71-7.84-3.7.25-6.8.94-9.21,4.12-14.59-3.54-37.53-16.28-46.45,14.65,5.28,29.73,6.31,45.16,6.15,12.7-.4,23.23-14.44,31.53.17,23.86,31.93,32.89,67.64,34.7,106.94C861,1193.13,861.55,1238,858.84,1282.76Zm23.8-261.36c2.63,12.83-13.75,7.51-20.14,13.08-2.56,1.47-8.76.4-6.64,4.77.92,1.91,2.81,2.51,5,2.51,10.41,1.39,29.9-16.87,27.63,1.31,13.32,63,20.41,128.12,17.47,192.51-.71,7.65-9.79,2.47-14.76,4.86-4.46,2.15-10.43,1.48-15.73,1.49-3,0-6.5.12-6.46-5-.28-57.29,6.16-117.14-19.41-170.56-3-5.91,5.37-4.58,8-4.94,5-1.13,24.56-4.68,24.58-10.08-.44-2.82-5.89-2.88-8.6-1.78-8.66,4.39-18.56,5.18-28,4.91-6.26-.15-7.55-9.61-12.58-13.28-24.23-23.91,1.74-42.53-46.56-65.41,19-4.84,24.21-17.73,23-34.54,19.25,7.94,36.94,15.77,58.73,21.28C856.58,968.27,846,974,835,978.71c-3.64,1.58-7.59,2.2-9.85,5.8,3.41,12.81,35.31-10.77,42.92-13.36C873,988.06,877.88,1004.71,882.64,1021.4Z"/></g></g><g id="Red_Japanese_Frames" data-name="Red Japanese Frames"><path class="cls-8" d="M0,20V1580a20,20,0,0,0,20,20H956a20,20,0,0,0,20-20V20A20,20,0,0,0,956,0H20A20,20,0,0,0,0,20ZM924,1548H52V52H924Z"/><path class="cls-9" d="M952.1,15.41,928.69,38.83A4,4,0,0,1,925.86,40H50.14a4,4,0,0,1-2.83-1.17L23.9,15.41A2,2,0,0,1,25.31,12H950.69A2,2,0,0,1,952.1,15.41ZM40,1549.86V50.14a4,4,0,0,0-1.17-2.83L15.41,23.9A2,2,0,0,0,12,25.31V1574.69a2,2,0,0,0,3.41,1.41l23.42-23.41A4,4,0,0,0,40,1549.86ZM936,50.14V1549.86a4,4,0,0,0,1.17,2.83l23.42,23.41a2,2,0,0,0,3.41-1.41V25.31a2,2,0,0,0-3.41-1.41L937.17,47.31A4,4,0,0,0,936,50.14ZM925.86,1560H50.14a4,4,0,0,0-2.83,1.17l-20,20a4,4,0,0,0,2.83,6.83H950.69a2,2,0,0,0,1.41-3.41l-23.41-23.42A4,4,0,0,0,925.86,1560Z"/></g></svg>