<svg xmlns="http://www.w3.org/2000/svg" xmlns:xlink="http://www.w3.org/1999/xlink" viewBox="0 0 976 1600"><defs><style>.cls-1{fill:none;}.cls-2{fill:#f4f3ef;}.cls-3{clip-path:url(#clip-path);}.cls-4{fill:#50b271;}.cls-5{fill:#592116;}.cls-6{fill:#992d17;}</style><clipPath id="clip-path"><path class="cls-1" d="M960,22V1578a6,6,0,0,1-6,6H22a6,6,0,0,1-6-6V22a6,6,0,0,1,6-6H954A6,6,0,0,1,960,22Z"/></clipPath></defs><g id="Paper_Backing" data-name="Paper Backing"><path class="cls-2" d="M960,22V1578a6,6,0,0,1-6,6H22a6,6,0,0,1-6-6V22a6,6,0,0,1,6-6H954A6,6,0,0,1,960,22Z"/></g><g id="Wikipedia_Cropped" data-name="Wikipedia Cropped"><g class="cls-3"><path class="cls-4" d="M0,1604c2.89-58.36-33.32-654.66,22.34-654.88,60.43-31.76,127.56-57.8,193.76-72.21,21.06-4,41.71-12,63.68-9.89,14.33-1.94,34.26,12.39,43.26,1.48,1.49-4.3,9.16-3.26,8.09-9.43,12.09-10.2,35.9-5.48,51.44-8,14.28-5,47.26,18.2,56,1.55,44.75-1.24,91.58,5.2,136.46,13.1,38,2.21,80.51,22.09,111.06,33.65,4-1,3.22-7.2,7.67-7.15,10.67,3.2,21.18,7.3,31.61,11.58,95.81,37.42,181.25,89.85,252.17,161.59,6.83,1.85.17,171.85,2.42,175.74.21,8.06-.15,349.52,0,358.93C981,1611.89,3.94,1599.84,0,1604Z"/><path class="cls-5" d="M992.84,1246.56c-1.85,5.58-12,2.36-16.84,3.78-29.84,3.25-60.28.48-89.59,6.85-95.67,15.16-187,50.26-267.43,104.25,98.88-8,199.2,10.43,289.93,49.8,13.25,5.82,25.2,14.62,37.58,22.32,1,.65.9,3.22,1.31,4.9-2.1.07-4.73,1-6.21.08A301.31,301.31,0,0,0,878,1408c-19.28-6.44-38.45-13.64-58.72-17.19-25.26-6-50.34-14.06-76.48-15.62-48.17-2.4-97.61-10-144.93,2.39-7.72,1.93-14.12,9.21-25,16.71,78.84-24.78,260.34,18.94,321.72,72.5-1.43.56-3.3,2-4.21,1.54-19.92-10.09-39.28-21.44-59.72-30.33-16.48-7.17-34.06-12.06-51.48-16.76-62.7-11.84-130.08-34.2-193.49-19,8.61,5.09,19.59,2.79,29.12,4.2,51.58,3.43,101.42,19.35,148.93,39.2a168,168,0,0,1,42.47,25.16c8.29,7.53,22.54,11.7,25.3,23.85-81.13-53-170.59-81.94-269.41-79.75-32.19,3.28-52.35,34.1-73.85,54.79-32.57,33.61-60.69,72.54-85,112.56-1.25,3-2.61,5.86-6.15,6.77-13.42-22.81,76.37-123.37,96.18-142.15,12.33-12.32-4.68-11.25-7.39-13.08-67.15-44.06-143.68-74.6-223.93-82.54-17.81-2.31-36-3.86-53.85-2.86-10.16.57-20.62-5.3-29.87,2,57.62,22.11,106.62,64.68,143,114.19,9.21,14.23,29.88,42.51,26.56,59.14-41.14-81-136.94-181.17-236.59-166,71.2,22.62,143.35,79.44,169.38,150.42,2.6,8.56,6.14,17.25,9.45,25.81.35.93,2.24,2.55-.41,2.85a4,4,0,0,1-3.22-1.6c-10.52-19.13-18.2-39.76-31.31-57.55-8.34-11.34-16.62-22.6-26.34-32.87-35.88-36.28-79.76-65.61-128.34-81.11-14.37-4.74-29.61,2.94-43.72,8.18-17.27,6.41-34.95,12-50.36,22.68-6.35,4.41-11-4.8-2.48-7.92,126-76.35,306-60.43,433.46,5.36,98.09,53.24,39.86,57.83,132.91-9.72,82.23-65.48,179.42-111.06,283-129.91,40.44-8.13,81.45-13.3,122.7-11.35a113.1,113.1,0,0,1,13,1.85C991.12,1243.37,993.1,1244.26,992.84,1246.56ZM25.94,951.83c63.69-33.45,131.69-59,202.21-73.45,39.5-13.14,82.25-6.63,120,9.17,67.48,25,117.73,76.91,164.45,129.39-42.91-73-105.78-120.6-185.65-147.48,45.62,3.88,86,29.57,125.59,50.95,49.08,28.35,92,64.77,132.42,104.05,2.36,1.89,7.45.62,3.52-2.55C524.67,943,432.59,887,335.12,859.31c65.94-15.26,130.09,13.82,184.38,49.09,57.18,35.05,100,88.05,137.52,142.85-43.59-96.42-120.76-155.79-216.53-195.14,57.43.29,116,9.19,173,20.58,48.47,12.11,90.18,38.53,132.6,63.62,75.74,44.19,139,106,187.13,179.1,2.92,3.75,4.8,12.08,10.09,10.18,3.73-1.34-.69-7.59-3-11.16-32.93-53.77-74.39-102.61-123-143-37.53-31.82-81.8-52.84-124.49-76.5.36-.9.72-1.81,1.07-2.71,71.47,26.93,142.87,58.69,204.05,105,26.67,21.22,52.24,43.78,77,67.13,1.5,1.35,3.62,3.33,5.51.77,1.7-2.34,2.13-4.75-.34-7.51a595.43,595.43,0,0,0-69.51-65.53c-66.11-52.11-144.33-89.39-224.31-114.94-69.37-19.21-140.48-33-212.35-38-32.23,1.38-64.52-3.59-96.37-1.33-84.38,6.28-169.65,21.16-249,51.29-24.66,9.13-49.8,17.09-73.26,29.36-18.9,11-71.85,24.66-65.15,52,3.7,3.57,7.2-4.41,9.89-6.48C7.26,960.66,16.7,956.34,25.94,951.83Zm410.59,109.08A767.58,767.58,0,0,1,693.07,1191.6c6.23,5,12.6-1.72,5-6.75-153.77-127-360.95-184.73-558.65-169.2-43.93,5.22-88.52,12.64-129.76,29.59-6,2.84-1.18,10-5.39,13.5,16.56,5.2,34.67-1.26,51.77.71,81.34,3.58,160.51,36,219.76,92.06,3.62,3.74,9,0,4.36-3.59-25-32.07-61.83-51-97.81-68.25-49.45-25.49-103.84-31.29-158.75-28.73,79.49-24.88,163.23-29.21,246.06-23.56,34.81,1.51,58.09,33.1,83.52,53.4C377,1102.6,395.64,1128,411.14,1156c12.65,20.07,15.36,44.92,27.8,64.48-7.72-77.53-64.2-147.26-130.09-187.06,17.09-5.53,94.44,46,105.92,61.3,28.11,27.43,51.09,59.28,75.06,90.44,16.69,22.59,28.37,48.26,41.5,73,.83,1.56-.51,6.23,3.35,4.4,3.45-1.63.71-5.24-.08-7.55-28.25-75.4-78.91-142.92-141.3-193.54,94.75,44.31,175.29,119.44,227.57,209.9,2,3.43,5.08,1.68,7,1.21,2.6-.65,0-2.71-.62-3.8-16.6-27.62-31.48-56.61-52.53-80.85-50.15-58.26-112.12-105.33-181.12-139.19C408.31,1050.93,422,1057.54,436.53,1060.91Z"/></g></g><g id="Red_Japanese_Frames" data-name="Red Japanese Frames"><path class="cls-5" d="M0,20V1580a20,20,0,0,0,20,20H956a20,20,0,0,0,20-20V20A20,20,0,0,0,956,0H20A20,20,0,0,0,0,20ZM924,1548H52V52H924Z"/><path class="cls-6" d="M952.1,15.41,928.69,38.83A4,4,0,0,1,925.86,40H50.14a4,4,0,0,1-2.83-1.17L23.9,15.41A2,2,0,0,1,25.31,12H950.69A2,2,0,0,1,952.1,15.41ZM40,1549.86V50.14a4,4,0,0,0-1.17-2.83L15.41,23.9A2,2,0,0,0,12,25.31V1574.69a2,2,0,0,0,3.41,1.41l23.42-23.41A4,4,0,0,0,40,1549.86ZM936,50.14V1549.86a4,4,0,0,0,1.17,2.83l23.42,23.41a2,2,0,0,0,3.41-1.41V25.31a2,2,0,0,0-3.41-1.41L937.17,47.31A4,4,0,0,0,936,50.14ZM925.86,1560H50.14a4,4,0,0,0-2.83,1.17l-20,20a4,4,0,0,0,2.83,6.83H950.69a2,2,0,0,0,1.41-3.41l-23.41-23.42A4,4,0,0,0,925.86,1560Z"/></g></svg>