<?xml version="1.0" encoding="UTF-8" standalone="no"?><!DOCTYPE svg PUBLIC "-//W3C//DTD SVG 1.1//EN" "http://www.w3.org/Graphics/SVG/1.1/DTD/svg11.dtd"><svg width="100%" height="100%" viewBox="0 0 372 587" version="1.1" xmlns="http://www.w3.org/2000/svg" xmlns:xlink="http://www.w3.org/1999/xlink" xml:space="preserve" xmlns:serif="http://www.serif.com/" style="fill-rule:evenodd;clip-rule:evenodd;stroke-miterlimit:100;"><g><clipPath id="_clip1"><rect x="2.899" y="2.408" width="366.554" height="582.592"/></clipPath><g clip-path="url(#_clip1)"><rect x="1.478" y="-4.592" width="369.726" height="595.404" style="fill:#d96038;fill-rule:nonzero;"/><path d="M156.137,260.919c31.198,0 57.75,-10.618 80.317,-33.189c22.568,-21.91 33.854,-49.122 33.854,-80.314c0,-31.867 -11.285,-58.418 -33.854,-80.321c-22.567,-21.903 -49.119,-33.189 -80.317,-33.189c-31.195,0 -57.746,11.286 -80.314,33.189c-21.906,21.903 -33.854,48.454 -33.854,80.321c0,31.192 11.947,58.404 33.854,80.314c22.568,22.571 49.118,33.189 80.314,33.189Z" style="fill:#fff;fill-rule:nonzero;"/><path d="M239.108,65.104c-22.567,-23.232 -51.108,-34.517 -82.971,-34.517c-32.524,0 -59.74,11.285 -82.309,34.518c-23.232,22.571 -35.178,49.783 -35.178,82.311c0,32.521 11.945,60.401 35.178,82.972c22.568,22.564 49.784,33.85 82.309,33.85c31.863,0 60.404,-11.286 82.972,-33.85c23.232,-22.571 34.519,-50.451 34.519,-82.972c-0.001,-32.528 -11.287,-59.74 -34.52,-82.312Zm-4.643,3.98c21.903,21.91 32.524,47.793 32.524,78.332c0,30.531 -10.621,57.082 -32.524,78.318c-21.243,21.91 -47.793,31.866 -78.328,31.866c-29.87,0 -56.422,-9.956 -77.66,-31.866c-21.906,-21.236 -33.189,-47.787 -33.189,-78.318c0,-30.538 11.283,-56.421 33.189,-78.332c21.238,-21.236 47.79,-31.86 77.66,-31.86c30.535,0.001 57.085,10.625 78.328,31.86Z" style="fill-rule:nonzero;"/><path d="M186.672,284.151c-37.834,0 -74.342,6.638 -109.524,19.252c-33.188,12.607 -63.724,30.531 -91.6,54.425l0,262.854l401.585,0l0,-262.854c-27.215,-23.894 -58.414,-41.817 -91.603,-54.425c-35.178,-12.614 -71.686,-19.252 -108.858,-19.252Z" style="fill:#858585;fill-rule:nonzero;"/><path d="M186.672,280.832c-37.173,0 -73.017,5.977 -108.195,19.253c-34.518,12.607 -66.378,31.192 -94.922,55.085l-1.326,0.668l0,268.162l408.224,0l0,-268.162l-1.329,-0.668c-27.877,-23.893 -59.74,-42.478 -94.918,-55.085c-34.519,-13.276 -70.362,-19.253 -107.534,-19.253Zm-104.877,25.223c33.189,-12.608 68.369,-18.584 104.877,-18.584c35.843,0 70.36,5.976 104.213,18.584c34.515,12.607 65.714,29.87 92.929,53.103l0,258.205l-394.947,0l0,-258.206c27.877,-23.232 58.41,-40.495 92.928,-53.102Z" style="fill-rule:nonzero;"/><path d="M93.078,552.32c-22.568,-8.635 -47.791,-11.953 -75.67,-9.957l-31.86,5.971l31.86,-3.319c27.215,-0.668 52.438,2.651 74.344,10.625c19.914,7.299 41.152,21.896 62.395,41.81l21.904,23.232l-5.31,-7.299l-14.604,-17.917c-20.574,-20.582 -41.153,-35.186 -63.059,-43.146Z" style="fill-rule:nonzero;"/><path d="M260.352,582.851c-33.189,-31.198 -67.707,-53.763 -103.551,-66.377c-21.238,-7.3 -43.146,-11.953 -66.377,-13.275l-55.758,3.98c-13.939,1.995 -25.887,5.976 -35.178,10.617c11.281,-3.318 23.232,-5.971 35.843,-7.96c42.481,-6.638 82.972,-3.319 120.145,10.617c32.524,11.954 67.039,33.851 102.884,65.057l35.845,35.172l-7.967,-10.618c-7.302,-8.628 -15.93,-17.918 -25.886,-27.213Z" style="fill-rule:nonzero;"/><path d="M71.839,503.198c-11.286,9.295 -19.913,17.917 -25.887,26.551l27.876,-24.562c36.508,-27.879 77,-45.136 122.8,-51.773c42.48,-5.976 86.955,-1.995 132.755,11.279c13.275,3.986 25.887,8.635 38.502,13.943l13.937,5.971c-11.947,-7.961 -29.206,-15.928 -51.773,-22.564c-45.136,-14.604 -90.274,-18.585 -134.085,-12.608c-25.222,3.318 -48.454,10.617 -72.351,21.896c-18.586,8.635 -36.509,19.252 -51.774,31.867Z" style="fill-rule:nonzero;"/><path d="M262.341,446.115l-3.98,3.319l17.92,-7.974c14.604,-6.638 29.87,-11.279 44.475,-12.607c15.931,-2.65 31.86,-2.65 47.13,0.668l19.248,2.651l-18.588,-5.97l-48.453,-1.336c-16.596,1.336 -31.199,6.638 -45.136,13.943l-12.616,7.306Z" style="fill-rule:nonzero;"/><path d="M48.607,445.447c-13.276,1.329 -24.563,3.987 -33.854,8.629c11.285,-2.657 22.567,-4.642 33.854,-5.978c57.085,-3.318 108.193,1.997 153.332,17.263c41.817,14.604 87.617,40.494 135.41,76.334l49.783,41.155l-11.949,-12.613l-35.844,-31.193c-47.129,-35.846 -92.265,-61.735 -136.074,-77.001c-46.464,-16.596 -98.238,-21.903 -154.658,-16.596Z" style="fill-rule:nonzero;"/><path d="M181.362,446.115l-19.249,-14.61c-24.561,-17.256 -49.122,-27.213 -74.345,-29.202c-14.604,-1.991 -29.206,0 -43.81,3.318c-13.275,3.319 -23.896,8.628 -33.854,14.604c-7.963,5.31 -13.937,11.279 -17.92,16.595c5.973,-5.315 12.611,-9.957 19.913,-13.938c9.292,-5.976 19.913,-10.624 31.86,-13.275c14.604,-3.986 29.205,-4.654 43.146,-3.986c23.896,2.651 48.458,11.286 73.68,27.881l26.551,19.251l-5.972,-6.638Z" style="fill-rule:nonzero;"/><path d="M152.156,448.099l6.638,3.32l-5.312,-5.304c-5.309,-3.318 -11.283,-6.638 -18.585,-9.956c-21.242,-9.956 -43.146,-14.61 -66.378,-13.943c-20.577,1.328 -41.82,7.306 -64.388,19.913c-6.638,3.318 -11.946,6.638 -17.259,10.624l-5.973,5.303l24.561,-13.937c23.232,-11.279 44.471,-17.256 63.724,-17.916c21.903,-0.668 43.807,3.318 64.384,12.607c6.639,2.651 12.612,5.97 18.588,9.289Z" style="fill-rule:nonzero;"/><path d="M182.688,367.784c17.924,-4.641 36.508,-6.638 55.096,-5.976c32.524,0 65.049,8.634 97.573,26.551c15.269,7.974 27.216,15.272 35.847,22.571l-9.296,-7.961c-7.299,-5.977 -15.929,-11.291 -25.222,-17.262c-32.524,-18.585 -65.049,-27.219 -98.902,-28.541c-18.588,0 -37.837,1.99 -56.421,6.638c-15.931,4.642 -30.534,9.957 -43.146,16.595c-9.957,5.309 -17.259,11.279 -23.232,17.917c7.963,-5.971 15.93,-11.279 24.558,-15.26c12.613,-6.637 27.215,-11.291 43.145,-15.272Z" style="fill-rule:nonzero;"/><path d="M182.026,387.037c16.594,-4.648 31.195,-6.638 43.146,-6.638l18.585,-1.997l-18.585,-1.322c-13.939,0 -28.544,1.99 -44.475,5.977c-13.939,3.98 -27.215,9.957 -40.49,18.578l-10.621,7.306l-3.319,3.986l15.269,-9.295c15.265,-7.967 28.54,-13.277 40.49,-16.595Z" style="fill-rule:nonzero;"/><path d="M217.205,399.651l13.276,-1.997l-13.276,-0.661c-9.956,0 -20.577,1.99 -31.198,5.31c-9.293,1.989 -19.249,5.97 -29.87,11.946l-10.618,7.967l11.946,-5.971c10.621,-4.654 19.914,-7.973 29.207,-10.624c9.291,-2.651 19.248,-4.647 30.533,-5.97Z" style="fill-rule:nonzero;"/><path d="M164.104,434.162l35.179,-10.618l35.847,-5.315l-11.285,-1.321l-25.887,3.318c-9.957,1.99 -17.924,5.31 -24.562,8.628c-6.638,2.651 -9.292,3.986 -9.292,5.308Z" style="fill-rule:nonzero;"/><path d="M387.133,357.828c0,-1.323 -3.982,-1.99 -12.61,-4.642l-33.189,-0.668c-11.285,1.329 -21.241,4.648 -31.199,9.958l-7.967,4.646l-2.654,2.658l11.95,-4.654c9.292,-4.642 19.249,-7.299 30.532,-9.289c10.62,-1.328 21.241,-1.328 31.862,0l13.275,1.991Z" style="fill-rule:nonzero;"/><path d="M219.86,448.767l21.906,9.957c16.594,6.638 33.851,15.927 51.773,25.884c15.93,9.956 31.859,20.58 47.129,32.527l19.249,14.604l-17.26,-17.262c-13.939,-11.94 -29.87,-23.232 -47.128,-33.189c-19.25,-11.278 -36.508,-19.245 -52.438,-25.216l-16.594,-5.977l-6.637,-1.328Z" style="fill-rule:nonzero;"/><path d="M138.881,466.69l31.86,7.299c23.232,7.299 47.129,17.256 73.016,30.531c20.578,11.291 43.145,25.89 66.377,41.823c17.26,13.275 26.552,19.252 26.552,19.252c0,-1.336 -7.967,-7.973 -24.561,-21.249c-23.232,-17.917 -45.136,-31.854 -67.039,-43.146c-25.226,-13.937 -50.448,-23.893 -73.681,-29.87l-23.896,-4.641l-8.628,0l0,0.001Z" style="fill-rule:nonzero;"/><path d="M68.52,345.214c17.26,0.667 33.854,4.653 50.448,10.624c13.276,3.987 20.574,6.639 20.574,5.971c0,-0.662 -6.638,-3.319 -19.913,-9.29c-15.93,-5.97 -32.524,-9.956 -50.444,-11.946l-51.776,1.99l-15.266,3.986l-5.313,2.651l20.578,-3.986c20.577,-1.984 37.836,-1.984 51.112,0Z" style="fill-rule:nonzero;"/><path d="M172.07,352.519l23.231,9.958l-21.905,-13.277c-19.249,-9.289 -37.833,-16.594 -57.085,-22.565c-21.904,-5.314 -42.482,-7.305 -61.066,-5.976l-18.588,3.318c-4.645,1.323 -6.638,1.991 -6.638,1.991l25.226,-2.652c19.25,-0.668 39.162,1.984 59.74,7.299c18.583,5.31 37.171,11.948 57.085,21.904Z" style="fill-rule:nonzero;"/><path d="M110.336,307.384l17.26,5.309c13.275,3.986 26.551,9.289 41.816,15.927c13.275,5.977 26.551,13.275 38.501,21.248l15.931,9.29l-13.94,-11.947c-10.621,-7.967 -23.896,-15.271 -39.162,-21.909c-14.604,-7.299 -29.206,-12.608 -42.481,-15.26l-13.275,-2.657l-4.65,0l0,-0.001Z" style="fill-rule:nonzero;"/><path d="M162.774,284.813l19.913,2.658c15.27,3.318 31.199,8.628 47.129,15.933c14.604,7.3 29.206,16.595 41.156,26.552l15.929,13.275c0,-1.336 -4.646,-6.638 -13.939,-14.611c-11.946,-11.279 -25.887,-20.575 -41.816,-29.202c-17.259,-7.967 -33.854,-12.608 -47.794,-14.604l-15.266,-0.661l-5.312,0.66Z" style="fill-rule:nonzero;"/></g></g><rect id="PATH77" x="2.92" y="2.74" width="366.67" height="582.52" style="fill:none;stroke:#000;stroke-width:3px;"/></svg>