<?xml version="1.0" encoding="UTF-8" standalone="no"?><!DOCTYPE svg PUBLIC "-//W3C//DTD SVG 1.1//EN" "http://www.w3.org/Graphics/SVG/1.1/DTD/svg11.dtd"><svg width="100%" height="100%" viewBox="0 0 372 587" version="1.1" xmlns="http://www.w3.org/2000/svg" xmlns:xlink="http://www.w3.org/1999/xlink" xml:space="preserve" xmlns:serif="http://www.serif.com/" style="fill-rule:evenodd;clip-rule:evenodd;stroke-miterlimit:100;"><g><clipPath id="_clip1"><rect x="2.857" y="6.786" width="366.755" height="578.576"/></clipPath><g clip-path="url(#_clip1)"><path d="M71.677,38.776l-1.361,-3.402c-1.363,-1.363 -2.043,-2.043 -3.402,-2.043c-1.362,0 -2.722,0.68 -3.403,2.043l-2.043,3.402c0,3.405 2.043,4.764 5.447,4.764c3.401,0 4.762,-1.359 4.762,-4.764Z" style="fill:#333;fill-rule:nonzero;"/><path d="M51.259,29.926c0,-3.402 -2.042,-4.763 -5.445,-4.763c-2.721,0 -4.765,1.36 -4.765,4.763c0,3.404 2.045,5.447 4.765,5.447c3.404,0 5.445,-2.043 5.445,-5.447Z" style="fill:#333;fill-rule:nonzero;"/><path d="M43.093,85.057c0,-3.403 -2.044,-4.766 -5.447,-4.766c-2.721,0 -4.762,1.362 -4.762,4.766c0,3.402 2.042,5.444 4.762,5.444c3.403,-0.001 5.447,-2.042 5.447,-5.444Z" style="fill:#333;fill-rule:nonzero;"/><path d="M140.418,27.206c0,-3.404 -1.357,-5.444 -4.762,-5.444c-2.725,0 -4.765,2.04 -4.765,5.444c0,2.72 2.04,4.765 4.765,4.765c3.405,0.001 4.762,-2.045 4.762,-4.765Z" style="fill:#333;fill-rule:nonzero;"/><path d="M107.069,29.246c0,-3.403 -1.364,-5.444 -4.764,-5.444c-3.404,0 -4.764,2.041 -4.764,5.444c0,2.726 1.36,4.765 4.764,4.765c3.401,0 4.764,-2.039 4.764,-4.765Z" style="fill:#333;fill-rule:nonzero;"/><path d="M222.771,9.51c-3.398,0 -4.763,2.042 -4.763,5.445c0,3.403 1.364,4.762 4.763,4.762c3.405,0 4.77,-1.359 4.77,-4.762c-0.001,-3.403 -1.365,-5.445 -4.77,-5.445Z" style="fill:#333;fill-rule:nonzero;"/><path d="M184.66,31.29c0,-3.403 -2.043,-5.447 -5.446,-5.447c-2.721,0 -4.083,2.043 -4.083,5.447c0,2.721 1.364,4.761 4.083,4.761c3.403,0 5.446,-2.04 5.446,-4.761Z" style="fill:#333;fill-rule:nonzero;"/><path d="M35.606,122.49c0,-3.403 -1.361,-5.444 -4.767,-5.444c-1.358,0 -2.722,0.677 -3.402,2.04c-0.679,0.682 -1.36,1.362 -1.36,3.402l1.36,3.404c0.68,1.361 2.043,1.361 3.402,1.361c3.406,0.001 4.767,-1.359 4.767,-4.763Z" style="fill:#333;fill-rule:nonzero;"/><path d="M58.063,154.48c0,-3.403 -1.357,-4.766 -4.761,-4.766c-1.363,0 -2.043,0.681 -3.404,1.362c-1.36,1.359 -1.36,2.041 -1.36,3.403l1.36,4.08l3.404,1.364c3.405,0 4.761,-2.041 4.761,-5.443Z" style="fill:#333;fill-rule:nonzero;"/><path d="M47.177,181.705c0,-3.403 -2.043,-5.448 -5.446,-5.448c-3.403,0 -4.763,2.044 -4.763,5.448c0,2.72 1.36,4.079 4.763,4.079c3.403,0 5.446,-1.359 5.446,-4.079Z" style="fill:#333;fill-rule:nonzero;"/><path d="M34.924,51.708c0,-3.403 -2.042,-5.447 -5.443,-5.447c-2.723,0 -4.768,2.044 -4.768,5.447c0,3.402 2.044,4.762 4.768,4.762c3.402,0 5.443,-1.36 5.443,-4.762Z" style="fill:#333;fill-rule:nonzero;"/><path d="M33.566,14.955c0,-3.402 -2.044,-5.445 -5.447,-5.445c-2.722,0 -4.085,2.042 -4.085,5.445c0,3.403 1.363,4.762 4.085,4.762c3.402,0 5.447,-1.359 5.447,-4.762Z" style="fill:#333;fill-rule:nonzero;"/><path d="M313.292,19.037l-1.363,-3.404l-4.083,-2.04c-2.723,0 -4.078,2.04 -4.078,5.444c0,3.404 1.355,4.766 4.078,4.766l4.083,-1.362l1.363,-3.404Z" style="fill:#333;fill-rule:nonzero;"/><path d="M280.624,25.163l-1.365,-3.401l-3.399,-2.045c-3.407,0 -5.446,2.045 -5.446,5.446c0,3.404 2.039,4.763 5.446,4.763l3.399,-1.359l1.365,-3.404Z" style="fill:#333;fill-rule:nonzero;"/><path d="M342.558,38.776c0,-3.402 -1.358,-4.765 -4.761,-4.765c-3.403,0 -5.451,1.363 -5.451,4.765c0,3.405 2.048,5.443 5.451,5.443c3.402,0 4.761,-2.038 4.761,-5.443Z" style="fill:#333;fill-rule:nonzero;"/><path d="M354.812,61.916c0,-3.402 -2.045,-5.447 -4.766,-5.447c-1.36,0 -2.038,1.362 -3.403,2.044c-1.362,0.681 -1.362,2.041 -1.362,3.402c0,2.722 1.362,4.761 4.766,4.761c2.72,0.003 4.765,-2.038 4.765,-4.76Z" style="fill:#333;fill-rule:nonzero;"/><path d="M239.785,28.568c0,-3.403 -1.362,-5.447 -4.766,-5.447c-2.718,0 -4.763,2.043 -4.763,5.447c0,2.722 2.046,4.081 4.763,4.081c3.407,0 4.766,-1.359 4.766,-4.081Z" style="fill:#333;fill-rule:nonzero;"/><path d="M356.168,15.633l-1.356,-3.402c-0.684,-0.677 -2.723,-1.359 -3.402,-1.359c-3.4,0 -5.449,1.359 -5.449,4.761c0,3.404 2.049,5.447 5.449,5.447l3.402,-1.363l1.356,-4.084Z" style="fill:#333;fill-rule:nonzero;"/><path d="M321.458,40.817l-1.362,-4.083l-3.4,-1.361c-3.403,0 -5.443,1.361 -5.443,5.444c0,3.402 2.04,4.766 5.443,4.766c1.36,0 2.042,0 3.4,-1.364l1.362,-3.402Z" style="fill:#333;fill-rule:nonzero;"/><path d="M351.409,85.057l-2.047,-3.403l-3.402,-1.362c-3.401,0 -4.759,1.362 -4.759,4.766c0,3.402 1.357,5.444 4.759,5.444l3.402,-1.361l2.047,-4.084Z" style="fill:#333;fill-rule:nonzero;"/><path d="M327.587,87.098l-1.363,-3.405c-1.359,-0.677 -2.038,-1.358 -4.087,-1.358c-2.718,0 -4.081,1.358 -4.081,4.763c0,3.403 1.364,5.445 4.081,5.445l4.087,-1.362l1.363,-4.083Z" style="fill:#333;fill-rule:nonzero;"/><path d="M351.409,131.337l-2.047,-3.404l-3.402,-2.04c-3.401,0 -4.759,2.04 -4.759,5.444c0,3.401 1.357,4.764 4.759,4.764l3.402,-1.363l2.047,-3.401Z" style="fill:#333;fill-rule:nonzero;"/><path d="M338.474,110.241l-0.677,-3.403c-1.363,-1.363 -2.724,-2.046 -4.087,-2.046c-2.719,0 -4.768,2.046 -4.768,5.449c0,3.401 2.049,4.762 4.768,4.762l4.087,-1.36l0.677,-3.402Z" style="fill:#333;fill-rule:nonzero;"/><path d="M357.53,156.519c0,-3.402 -2.04,-4.767 -5.441,-4.767c-3.402,0 -4.769,1.364 -4.769,4.767c0,3.403 1.366,4.766 4.769,4.766c3.401,0.001 5.441,-1.362 5.441,-4.766Z" style="fill:#333;fill-rule:nonzero;"/><path d="M263.608,14.273c0,-3.401 -1.364,-5.446 -4.764,-5.446c-2.721,0 -4.768,2.044 -4.768,5.446c0,2.722 2.047,4.763 4.768,4.763c3.4,0.001 4.764,-2.041 4.764,-4.763Z" style="fill:#333;fill-rule:nonzero;"/><path d="M164.92,14.955c0,-3.402 -1.363,-5.445 -4.764,-5.445c-2.723,0 -4.761,2.042 -4.761,5.445c0,3.403 2.039,4.762 4.761,4.762c3.401,0 4.764,-1.359 4.764,-4.762Z" style="fill:#333;fill-rule:nonzero;"/><path d="M85.971,15.633c0,-3.402 -2.042,-4.761 -5.445,-4.761c-3.399,0 -4.764,1.359 -4.764,4.761c0,3.404 1.363,5.447 4.764,5.447c3.403,0 5.445,-2.043 5.445,-5.447Z" style="fill:#333;fill-rule:nonzero;"/><path d="M55.342,52.388c0,-3.402 -2.041,-4.765 -5.445,-4.765c-2.72,0 -4.765,1.362 -4.765,4.765c0,3.404 2.045,5.444 4.765,5.444c3.405,0.001 5.445,-2.04 5.445,-5.444Z" style="fill:#333;fill-rule:nonzero;"/><path d="M34.924,145.629c0,-3.404 -2.042,-4.763 -5.443,-4.763c-2.723,0 -4.768,1.359 -4.768,4.763c0,3.403 2.044,5.446 4.768,5.446c3.402,0.001 5.443,-2.042 5.443,-5.446Z" style="fill:#333;fill-rule:nonzero;"/><path d="M35.606,225.263c0,-3.404 -1.361,-5.448 -4.767,-5.448c-3.402,0 -4.763,2.044 -4.763,5.448c0,2.722 1.36,4.761 4.763,4.761c3.406,-0.001 4.767,-2.04 4.767,-4.761Z" style="fill:#333;fill-rule:nonzero;"/><path d="M64.191,113.643c0,-3.401 -2.042,-4.766 -4.764,-4.766c-3.403,0 -4.768,1.364 -4.768,4.766c0,3.403 1.365,5.444 4.768,5.444c2.722,-0.001 4.764,-2.041 4.764,-5.444Z" style="fill:#333;fill-rule:nonzero;"/><path d="M43.774,108.877c0,-3.402 -2.044,-5.444 -5.447,-5.444c-2.722,0 -4.083,2.042 -4.083,5.444c0,3.403 1.361,4.766 4.083,4.766c3.403,0 5.447,-1.363 5.447,-4.766Z" style="fill:#333;fill-rule:nonzero;"/><path d="M32.883,74.849c0,-3.404 -2.043,-4.766 -5.445,-4.766c-2.723,0 -4.763,1.362 -4.763,4.766c0,3.401 2.04,4.766 4.763,4.766c3.402,-0.001 5.445,-1.366 5.445,-4.766Z" style="fill:#333;fill-rule:nonzero;"/><path d="M205.081,19.717c0,-3.402 -2.051,-4.762 -5.452,-4.762c-2.718,0 -4.079,1.36 -4.079,4.762c0,3.403 1.362,5.446 4.079,5.446c3.401,0 5.452,-2.042 5.452,-5.446Z" style="fill:#333;fill-rule:nonzero;"/><path d="M228.899,46.261c0,-3.403 -2.046,-4.762 -5.451,-4.762c-3.399,0 -4.757,1.358 -4.757,4.762c0,3.402 1.357,4.765 4.757,4.765c3.406,0 5.451,-1.363 5.451,-4.765Z" style="fill:#333;fill-rule:nonzero;"/><path d="M90.735,51.026c0,-3.402 -1.362,-5.443 -4.764,-5.443c-3.403,0 -5.445,2.041 -5.445,5.443c0,2.723 2.042,4.766 5.445,4.766c3.402,0 4.764,-2.043 4.764,-4.766Z" style="fill:#333;fill-rule:nonzero;"/><path d="M121.363,12.912c0,-3.402 -1.364,-4.761 -4.766,-4.761c-3.404,0 -5.445,1.359 -5.445,4.761c0,2.721 2.042,4.765 5.445,4.765c3.403,0 4.766,-2.044 4.766,-4.765Z" style="fill:#333;fill-rule:nonzero;"/><path d="M63.51,13.592c0,-3.403 -2.043,-4.765 -5.447,-4.765c-2.721,0 -4.761,1.362 -4.761,4.765c0,3.403 2.042,4.766 4.761,4.766c3.404,0 5.447,-1.363 5.447,-4.766Z" style="fill:#333;fill-rule:nonzero;"/><path d="M296.276,11.552l-2.041,-3.401l-3.403,-1.365c-3.398,0 -4.764,1.365 -4.764,4.766c0,3.402 1.365,5.443 4.764,5.443l3.403,-1.363l2.041,-4.08Z" style="fill:#333;fill-rule:nonzero;"/><path d="M335.75,13.592l-1.355,-3.403c-0.685,-0.679 -2.725,-1.362 -3.402,-1.362c-3.404,0 -5.449,1.362 -5.449,4.765c0,3.403 2.045,5.444 5.449,5.444l3.402,-1.358l1.355,-4.086Z" style="fill:#333;fill-rule:nonzero;"/><path d="M264.286,79.614c-16.33,10.887 -33.345,31.987 -49.683,63.294c-34.029,61.935 -51.046,142.927 -51.046,241.616l-25.181,200.779l227.321,0l0,-200.779c0,-98.688 -17.013,-179.681 -50.365,-241.616c-17.014,-31.307 -34.03,-52.408 -51.046,-63.294Z" style="fill:#858585;fill-rule:nonzero;"/><path d="M266.334,76.21c-0.685,-0.682 -2.726,-0.682 -3.403,0c-19.062,12.93 -36.755,34.709 -53.091,66.698c-32.669,61.253 -49.683,142.246 -49.683,241.616l-25.18,200.091l0,0.688l1.357,2.041c0.682,0.676 1.364,1.359 2.043,1.359l227.321,0c2.725,0 3.405,-0.684 3.405,-3.399l0,-200.78c0,-99.37 -17.016,-180.362 -49.685,-241.616c-16.336,-31.99 -34.714,-53.768 -53.084,-66.698Zm-55.134,80.309c15.653,-32.666 34.032,-57.851 53.086,-73.504c19.74,15.653 38.118,40.838 53.77,73.504c29.952,61.255 44.241,136.802 44.241,228.003l0,197.374l-219.836,0l24.501,-196.691l0,-0.683c0,-91.201 14.972,-166.748 44.238,-228.003Z" style="fill-rule:nonzero;"/><path d="M264.286,102.071c-1.355,0 -2.042,1.361 -2.042,2.722c-2.039,38.797 -4.081,87.798 -5.44,147.013c-3.404,118.42 -4.081,231.404 -2.727,338.263c0,2.039 1.363,2.724 2.727,2.724c2.041,0 2.723,-0.686 2.723,-2.724l-0.682,-110.259c0,-98.69 2.037,-201.463 5.441,-309.679c4.087,108.216 6.128,210.988 6.128,309.679l-0.678,110.259c0,2.039 0.678,2.724 2.716,2.724c1.366,0 2.044,-0.686 2.044,-2.724c2.047,-106.858 1.363,-219.157 -1.354,-338.263l-6.128,-147.013c-0.001,-1.36 -0.68,-2.722 -2.728,-2.722Z" style="fill-rule:nonzero;"/><path d="M240.465,106.838c-0.68,-2.046 -1.356,-2.727 -3.402,-2.046c-2.043,0.682 -2.721,2.046 -1.355,4.085l5.441,11.571c5.444,8.848 12.251,17.016 19.731,24.5c1.364,1.361 2.728,1.361 4.091,0c1.363,-1.358 1.363,-2.722 -0.686,-4.082c-7.482,-6.805 -13.613,-14.974 -18.37,-23.821l-5.45,-10.207Z" style="fill-rule:nonzero;"/><path d="M236.384,147.674l-11.57,-19.74c-1.365,-2.04 -2.043,-2.04 -3.404,-0.68c-2.038,0.68 -2.038,2.042 -1.36,3.403l12.935,20.419c8.844,14.291 17.69,25.181 26.543,32.668c0.679,1.362 2.719,1.362 3.404,0c1.355,-0.681 1.355,-2.04 0,-3.404c-7.492,-8.167 -16.339,-19.054 -26.548,-32.666Z" style="fill-rule:nonzero;"/><path d="M262.244,221.177c0.687,-2.041 0.687,-3.403 -0.677,-4.084c-14.975,-12.931 -27.909,-26.543 -38.797,-41.517l-13.611,-19.056c-0.681,-1.361 -2.041,-2.04 -3.402,-0.679c-1.364,0.679 -2.04,2.042 -1.364,4.084l13.613,19.054c11.569,14.976 25.185,29.95 39.475,42.199l4.764,0l0,-0.001l-0.001,0Z" style="fill-rule:nonzero;"/><path d="M260.205,263.376c1.362,-1.362 1.362,-2.724 0,-3.401c-13.612,-10.21 -27.902,-25.186 -44.238,-44.241l-20.417,-26.545c-0.679,-1.36 -2.729,-1.36 -4.086,-0.678c-1.36,2.04 -1.36,3.403 0,4.081l21.099,26.546c16.339,19.737 30.628,34.708 44.242,44.917l3.4,-0.679Z" style="fill-rule:nonzero;"/><path d="M259.526,305.571c0.679,-2.041 0.679,-2.723 -0.682,-4.084c-18.38,-14.29 -36.074,-31.306 -53.088,-51.722l-20.416,-26.545c-0.68,-2.042 -2.723,-2.042 -4.085,-0.678c-2.04,0.678 -2.04,2.039 -0.678,3.403c0,2.041 6.805,10.885 21.1,27.222c17.017,20.419 35.388,38.112 54.45,52.406l3.4,0l0,-0.002l-0.001,0Z" style="fill-rule:nonzero;"/><path d="M175.129,257.93l-2.72,0.68c-0.684,1.365 -0.684,2.042 0,3.403l26.542,30.626c21.098,22.459 40.156,40.157 56.488,53.769l3.405,-0.683l0.683,-2.041l-0.683,-2.04c-16.331,-12.253 -35.396,-30.627 -55.815,-52.41l-26.535,-30.625c-0.685,0.001 -0.685,-0.679 -1.365,-0.679Z" style="fill-rule:nonzero;"/><path d="M171.726,289.236c-0.681,-1.361 -2.039,-2.039 -3.402,-0.679c-1.362,1.362 -2.041,2.722 -0.681,4.082l25.177,31.309c21.106,24.502 42.199,43.561 61.942,57.856l4.081,-0.687c0.683,-2.038 0.683,-2.717 -1.363,-3.4c-19.733,-14.294 -39.475,-33.351 -60.569,-57.173l-25.185,-31.308Z" style="fill-rule:nonzero;"/><path d="M161.516,320.545l-4.083,-0.68c-0.68,1.362 -1.357,2.722 0,4.083l31.311,36.071c24.497,25.186 46.964,44.234 66.021,55.131c2.04,0.686 2.718,0.686 4.08,-0.686c0.682,-2.035 0.682,-3.401 -1.363,-4.081c-18.373,-11.566 -40.838,-29.266 -64.661,-54.448l-31.305,-35.39Z" style="fill-rule:nonzero;"/><path d="M264.286,104.111l9.531,-22.458c3.404,-14.976 0.678,-22.458 -9.531,-22.458c-9.521,0 -12.25,7.484 -8.162,22.458c1.357,7.487 4.758,14.974 8.162,22.458Z" style="fill:#ffe700;fill-rule:nonzero;"/><path d="M274.495,87.098c4.089,-11.569 4.089,-19.738 1.364,-24.501c-2.042,-4.083 -5.446,-6.126 -11.573,-6.126c-4.76,0 -8.162,2.044 -10.887,6.126c-3.403,4.764 -2.726,12.932 0.678,24.501c2.727,6.805 5.449,12.934 8.167,18.377c0.687,1.363 1.364,1.363 2.042,1.363c2.048,0 2.727,0 2.727,-1.363l7.482,-18.377Zm-10.209,-25.182c3.402,0 5.45,0.68 6.806,2.722l1.36,6.805c0,6.125 -2.716,14.976 -8.165,26.544c-4.759,-11.568 -7.482,-20.418 -7.482,-26.544l1.359,-6.805c1.362,-2.041 3.403,-2.722 6.122,-2.722Z" style="fill-rule:nonzero;"/><path d="M162.88,364.104c-1.365,-0.68 -2.724,-0.68 -4.084,0c-1.364,1.363 -1.364,3.406 0,4.09l29.947,29.257c23.142,21.103 44.915,37.434 66.021,49.011c2.04,0.679 2.718,0.679 4.08,-0.687c0.682,-2.037 0.682,-3.399 -1.363,-3.399c-20.419,-12.251 -42.192,-27.909 -65.339,-49.686l-29.262,-28.586Z" style="fill-rule:nonzero;"/><path d="M147.906,391.325c-0.684,-0.681 -2.722,-0.681 -4.083,0c-0.684,1.364 -0.684,3.405 0,4.091l34.028,31.306c27.229,22.457 53.09,39.474 77.589,50.368c1.364,0.677 3.404,0 4.086,-0.687c0,-2.04 0,-3.404 -2.045,-4.085c-24.5,-10.211 -49.002,-27.227 -76.227,-49.678l-33.348,-31.315Z" style="fill-rule:nonzero;"/><path d="M137.016,417.868c-0.682,-1.355 -2.039,-1.355 -3.402,0c-2.041,1.371 -2.041,2.727 0,4.09l22.462,20.417c17.691,14.973 32.667,26.54 46.277,34.029l3.404,-0.686c1.363,-2.032 0.679,-3.4 -0.676,-4.078c-12.937,-7.486 -27.91,-19.057 -45.602,-33.354l-22.463,-20.418Z" style="fill-rule:nonzero;"/><path d="M292.196,104.793c-1.364,-0.681 -2.728,0 -3.405,2.046c-4.764,10.886 -12.248,22.458 -24.504,34.029c-0.678,2.042 -0.678,3.404 0,4.082c1.364,1.361 2.726,1.361 3.403,0c12.935,-12.25 21.778,-24.5 26.546,-36.071c-0.001,-2.041 -0.001,-3.404 -2.04,-4.086Z" style="fill-rule:nonzero;"/><path d="M307.846,127.254c-1.359,-1.36 -3.398,-1.36 -3.398,0.68c-12.937,23.143 -25.188,40.158 -38.11,52.406c-2.05,1.365 -2.05,2.042 0,3.404c0.676,1.362 2.719,1.362 3.399,0c13.612,-12.25 26.54,-29.945 38.79,-53.086c1.361,-1.362 1.361,-3.404 -0.681,-3.404Z" style="fill-rule:nonzero;"/><path d="M324.187,155.84c-2.049,-1.36 -3.402,-0.682 -4.09,0.679l-12.928,19.056c-12.254,14.974 -25.183,28.586 -39.48,41.517c-1.354,1.364 -1.354,2.722 -0.676,4.084l4.079,0c23.144,-20.418 41.521,-40.837 53.772,-61.254c0.679,-1.362 0.001,-2.721 -0.677,-4.082Z" style="fill-rule:nonzero;"/><path d="M337.797,188.51l-4.087,0.678l-20.418,26.545c-16.331,19.056 -31.306,34.032 -44.237,44.241c-1.365,0.677 -1.365,2.039 0,3.401l3.397,0.677c21.106,-16.333 42.881,-40.155 66.021,-71.463c0.679,-0.676 0.679,-2.039 -0.676,-4.079Z" style="fill-rule:nonzero;"/><path d="M348.008,222.541c-2.049,-1.364 -2.728,-1.364 -3.407,0.678l-21.101,26.545c-17.014,20.417 -35.392,37.433 -53.087,51.722c-1.358,1.362 -1.358,2.044 -0.677,4.085l4.081,0c18.379,-14.292 36.757,-31.988 54.446,-52.406l20.422,-27.223c0.677,-1.362 0.677,-2.723 -0.677,-3.401Z" style="fill-rule:nonzero;"/><path d="M356.168,258.61l-4.079,0c-27.902,34.711 -55.128,62.618 -81.675,83.037l-0.678,2.039l0.678,2.041l3.403,0.682c17.015,-13.61 35.392,-31.308 56.489,-53.769l26.545,-30.625c1.365,-1.363 0.679,-2.724 -0.683,-3.405Z" style="fill-rule:nonzero;"/><path d="M360.935,288.558l-3.404,0.679l-25.86,31.309c-20.418,23.823 -40.837,42.879 -60.578,57.173c-1.355,0.684 -1.355,1.362 -0.679,3.4l4.082,0.687c19.74,-14.296 40.838,-33.354 61.255,-57.856l25.869,-31.309c0.677,-1.362 0.677,-2.721 -0.685,-4.083Z" style="fill-rule:nonzero;"/><path d="M271.774,410.385c-1.362,1.362 -2.039,2.047 -1.362,4.081c0.68,1.371 2.728,1.371 4.082,0.686c19.74,-10.896 40.838,-29.944 66.02,-55.131l31.312,-36.071c0.68,-0.682 0.68,-2.722 0,-4.084l-4.086,0.682l-31.306,35.39c-24.505,25.181 -45.602,42.88 -64.66,54.447Z" style="fill-rule:nonzero;"/><path d="M270.413,445.774c0.679,1.365 2.039,1.365 3.404,0.687c21.098,-11.577 43.562,-27.908 67.382,-49.011l29.266,-29.257c1.361,-1.37 1.361,-2.727 -0.687,-4.09c-0.675,-0.68 -2.039,-0.68 -3.399,0l-28.582,28.586c-23.82,21.776 -45.603,37.435 -66.705,49.686c-1.356,0 -1.356,1.363 -0.679,3.399Z" style="fill-rule:nonzero;"/><path d="M270.413,476.404c0,0.687 2.039,1.363 3.404,0.687c24.501,-10.895 50.369,-27.911 77.592,-50.368l33.347,-31.307c1.363,-0.684 1.363,-2.726 0,-4.088c-0.678,-0.684 -2.041,-0.684 -3.402,0l-33.345,31.313c-26.55,22.451 -52.409,39.467 -76.917,49.677c-1.356,0.681 -2.037,2.046 -0.679,4.086Z" style="fill-rule:nonzero;"/><path d="M425.59,394.047c-0.677,-1.357 -2.038,-1.357 -3.401,0l-42.876,38.12c-31.992,27.908 -61.257,49.004 -85.076,63.292c-1.361,1.365 -2.04,2.048 -0.676,4.084l3.4,0.683c24.498,-14.297 53.764,-36.071 86.432,-63.975l42.197,-38.115c1.363,-0.686 1.363,-2.72 0,-4.089Z" style="fill-rule:nonzero;"/><path d="M425.59,434.884c-0.677,-1.355 -2.038,-1.355 -3.401,0l-42.876,38.115c-31.992,27.91 -61.257,48.33 -85.076,62.618c-1.361,1.357 -2.04,2.725 -0.676,4.08l3.4,0.677c24.498,-13.608 53.764,-35.383 86.432,-63.284l42.197,-38.118c1.363,-1.365 1.363,-2.721 0,-4.088Z" style="fill-rule:nonzero;"/><path d="M425.59,475.719l-3.401,-0.678l-42.876,38.112c-31.992,27.906 -61.257,49.012 -85.076,63.299c-1.361,1.359 -2.04,2.042 -0.676,3.405l3.4,1.355c24.498,-14.29 53.764,-35.387 86.432,-63.289l42.197,-38.801c1.363,-1.355 1.363,-2.718 0,-3.403Z" style="fill-rule:nonzero;"/><path d="M245.23,386.563c-70.102,25.867 -139.525,79.632 -208.944,158.586l161.985,140.2c68.741,-78.945 111.616,-155.182 127.271,-228.68c5.448,-23.143 7.488,-44.24 6.127,-63.302l-2.728,-22.458c-21.095,-2.716 -48.997,2.721 -83.711,15.654Z" style="fill:#858585;fill-rule:nonzero;"/><path d="M34.245,547.868l4.765,-0.684c63.976,-73.499 127.953,-123.866 193.972,-151.769c35.391,-14.982 66.695,-22.463 93.922,-21.103l1.36,25.862c0,33.353 -6.806,69.422 -22.456,108.896c-21.781,56.494 -59.215,115.026 -110.258,174.231l-0.679,2.047l0.679,2.726l5.44,-0.685c68.746,-78.953 110.938,-155.178 127.952,-228.004c5.452,-23.138 7.492,-44.237 6.808,-64.657l-3.403,-24.505c0,-2.032 -0.677,-2.716 -2.04,-2.716c-23.82,-2.722 -53.084,3.4 -88.479,16.326c-70.101,27.228 -138.842,79.64 -207.583,159.267c-1.362,2.05 -1.362,2.727 0,4.768Z" style="fill-rule:nonzero;"/><path d="M313.978,388.612c-1.364,-0.686 -2.726,-0.686 -4.089,0l-87.795,93.915c-70.103,74.864 -134.763,148.375 -194.656,219.839c-1.36,2.042 -0.679,2.725 0.68,4.078l3.403,-0.677c74.869,-89.156 157.221,-181.038 245.701,-274.965c-78.271,99.366 -157.221,193.296 -237.531,282.451l-1.362,1.361c0,1.362 0.681,2.04 1.362,2.719c1.358,1.372 2.722,1.372 4.085,0c61.931,-69.414 125.229,-144.282 191.245,-223.915l79.636,-100.729c0.676,-1.364 -0.001,-3.4 -0.679,-4.077Z" style="fill-rule:nonzero;"/><path d="M289.469,372.275c-2.037,-0.679 -2.717,0 -3.4,2.038l-3.405,12.929c-2.039,10.895 -2.719,21.786 -2.039,34.03c0,1.37 1.362,2.047 3.402,2.047l2.726,-2.723c-1.363,-11.567 -0.685,-21.776 0.68,-32.668l3.399,-12.252c0.679,-1.363 0,-2.046 -1.363,-3.401Z" style="fill-rule:nonzero;"/><path d="M261.567,379.082c-1.362,-0.679 -2.723,0 -3.404,2.038l-4.086,24.507c-2.041,18.372 -3.403,33.346 -1.354,45.593l2.718,2.048c1.364,0 2.042,-0.684 2.042,-2.725c-0.678,-11.57 -0.678,-25.869 2.046,-44.236l4.081,-23.823c-0.002,-1.365 -0.002,-3.402 -2.043,-3.402Z" style="fill-rule:nonzero;"/><path d="M228.899,391.325c-2.046,0 -2.724,0 -3.4,2.044l-2.729,25.184c-0.677,20.419 0,40.835 3.405,61.257c0,1.361 0.678,2.718 2.724,2.718c1.357,-0.679 2.719,-2.036 2.042,-3.403c-2.726,-19.734 -3.401,-40.152 -2.042,-60.57l2.042,-23.822c0.677,-2.044 -0.684,-3.408 -2.042,-3.408Z" style="fill-rule:nonzero;"/><path d="M188.743,414.466c-2.04,0 -3.403,0.686 -3.403,2.724l-1.363,35.394c0,27.226 1.363,50.36 4.767,67.374c0,1.372 0.681,2.049 3.399,2.049c1.365,-0.678 2.044,-2.049 2.044,-3.404c-3.403,-17.016 -5.443,-38.793 -4.763,-65.335l2.04,-35.4c0,-2.031 -1.36,-2.717 -2.721,-3.402Z" style="fill-rule:nonzero;"/><path d="M163.557,428.078c-2.041,-0.679 -2.72,0 -3.4,2.046l-2.041,36.071c-0.684,28.587 2.041,55.812 6.804,79.631l1.363,2.042l2.041,0.684c2.042,-0.684 2.722,-2.046 2.042,-3.401c-5.446,-24.505 -6.809,-50.368 -6.809,-78.954l2.044,-35.393c0,-2.044 -0.681,-2.726 -2.044,-2.726Z" style="fill-rule:nonzero;"/><path d="M131.571,450.542c-2.044,0 -3.404,1.354 -3.404,2.725l0.684,42.87c1.358,31.997 4.08,59.222 7.483,81.674c0.682,1.37 2.043,2.047 3.405,2.047c2.042,0 2.042,-1.364 2.042,-3.405c-3.403,-21.093 -6.804,-48.318 -7.488,-80.314l-0.68,-42.87c0,-1.373 -0.682,-2.727 -2.042,-2.727Z" style="fill-rule:nonzero;"/><path d="M106.391,471.64c-2.043,0 -2.725,0.679 -2.725,2.046l-1.36,44.237c0,33.346 3.4,62.613 8.849,88.481c0.68,1.355 2.041,2.034 3.404,2.034c2.042,-0.679 2.721,-2.034 2.042,-3.403c-5.445,-25.177 -8.849,-54.448 -8.849,-87.111l1.361,-43.56c-0.002,-1.365 -0.68,-2.046 -2.722,-2.724Z" style="fill-rule:nonzero;"/><path d="M76.442,490.017c-1.365,0 -2.722,0.684 -2.722,2.717l0,49.691c2.041,38.112 6.805,68.061 14.97,90.521c0.68,1.362 1.364,2.044 3.404,1.362c1.361,-0.682 2.043,-1.362 1.361,-3.404c-7.486,-21.78 -12.249,-51.721 -14.294,-88.479l0,-49.691c0.001,-2.034 -0.679,-2.717 -2.719,-2.717Z" style="fill-rule:nonzero;"/><path d="M313.292,389.289c7.491,-2.725 14.972,-6.806 21.103,-10.886c12.926,-8.178 15.651,-16.338 8.164,-22.467c-7.485,-6.125 -14.293,-2.724 -21.1,10.888c-3.403,7.489 -6.803,14.295 -8.167,22.465Z" style="fill:#ffe700;fill-rule:nonzero;"/><path d="M348.686,364.789c0.677,-4.089 -0.678,-7.49 -4.085,-10.895c-4.086,-3.401 -7.487,-4.083 -12.255,-3.401c-5.442,1.362 -10.888,8.169 -15.65,19.732c-2.04,3.404 -3.403,9.531 -6.121,18.385l0.678,2.715l2.725,0.688c21.772,-8.176 33.342,-17.7 34.708,-27.224Zm-4.766,-1.365l0,0.68c-1.362,6.808 -10.21,13.615 -26.541,20.421c4.758,-17.015 10.885,-26.544 17.016,-28.588c1.355,-0.68 4.079,0 6.12,2.044l3.405,5.443Z" style="fill-rule:nonzero;"/><path d="M49.897,528.134c0,-1.368 -1.359,-2.727 -2.72,-2.046c-2.045,0 -2.723,0.678 -2.723,2.724l3.4,43.56c4.083,34.034 10.209,61.937 19.06,85.757c0.681,2.04 2.04,2.725 3.402,1.355c2.042,0 2.042,-1.355 1.361,-3.403c-8.167,-23.135 -14.971,-51.045 -18.376,-84.387l-3.404,-43.56Z" style="fill-rule:nonzero;"/><path d="M333.71,411.064c-1.364,-2.037 -2.04,-2.722 -3.403,-1.358c-11.569,6.131 -25.859,9.532 -44.238,10.21c-2.042,0.679 -2.042,2.042 -2.042,3.402c0,2.039 0.678,2.723 2.726,2.039c18.37,-0.685 34.031,-4.086 45.594,-10.892c2.048,-1.358 2.048,-2.034 1.363,-3.401Z" style="fill-rule:nonzero;"/><path d="M257.481,455.986c0.682,1.361 2.045,2.719 3.398,2.719c19.743,-1.357 42.201,-6.121 68.062,-16.33c2.049,-0.688 2.728,-2.043 2.049,-3.402c-0.686,-2.042 -2.049,-2.722 -3.404,-1.365c-25.867,9.532 -48.328,14.977 -67.381,14.977c-1.36,-0.001 -2.724,1.362 -2.724,3.401Z" style="fill-rule:nonzero;"/><path d="M232.983,486.614c0,1.362 1.36,2.719 3.4,2.719c32.671,0 61.254,-4.759 85.074,-12.929c2.042,0 2.728,-1.363 2.042,-3.404c-0.677,-1.359 -2.042,-2.036 -3.403,-1.359c-23.82,8.169 -51.723,11.569 -83.713,11.569c-2.041,-0.001 -3.4,1.363 -3.4,3.404Z" style="fill-rule:nonzero;"/><path d="M205.081,521.329c0,2.034 0.676,2.718 2.717,2.718c27.91,1.36 61.938,-2.04 102.091,-11.572c1.363,-0.679 2.041,-1.356 1.363,-2.726c0,-2.031 -1.363,-2.718 -3.405,-2.031l-34.028,6.806l-66.021,4.079c-2.041,0 -2.717,1.355 -2.717,2.726Z" style="fill-rule:nonzero;"/><path d="M176.494,555.359c0,2.031 1.357,2.716 2.721,2.716l80.312,-4.083l34.71,-7.486c2.041,-0.679 2.725,-1.355 2.725,-2.724c-0.685,-2.035 -2.046,-2.723 -3.4,-2.035l-35.396,6.805l-78.948,4.082c-1.367,-0.001 -2.047,1.357 -2.724,2.725Z" style="fill-rule:nonzero;"/><path d="M78.482,275.625l-16.333,-14.974c-18.375,11.572 -36.072,34.03 -53.769,66.699c-35.392,66.019 -53.767,151.772 -53.767,257.264l213.71,0c0,-105.491 -17.698,-191.246 -53.087,-257.265c-10.888,-20.414 -23.14,-37.429 -36.754,-51.724Z" style="fill:#858585;fill-rule:nonzero;"/><path d="M63.51,257.249c-1.361,-0.677 -2.043,-0.677 -3.403,0c-19.736,13.612 -38.794,37.433 -56.492,70.102c-34.708,66.019 -52.404,151.772 -52.404,257.264c0,2.048 1.359,3.404 3.403,3.404c2.722,0 3.405,-1.357 3.405,-3.404c0,-97.315 15.652,-178.31 46.278,-242.293c17.697,-35.387 36.752,-61.251 57.853,-77.586c20.418,16.335 39.476,42.199 56.493,77.588c31.305,63.983 46.279,144.977 46.279,242.292c0,2.048 1.363,3.404 3.404,3.404c2.722,0 3.402,-1.357 3.402,-3.404c0,-105.491 -17.695,-191.246 -52.407,-257.264c-11.57,-20.417 -23.139,-38.115 -36.751,-53.089l-19.06,-17.014Z" style="fill-rule:nonzero;"/><path d="M62.149,284.473c-2.042,0 -3.402,0.682 -3.402,2.043l-5.444,128.636c-3.404,102.772 -4.083,200.092 -2.043,294.022c0,1.354 0.68,2.722 2.723,2.722c1.362,0 2.724,-1.368 2.724,-2.722l-1.362,-95.962c0,-91.205 2.043,-181.731 6.805,-272.928c3.406,98.688 6.126,189.885 6.126,272.928l-1.36,95.962c0,1.354 1.36,2.722 2.724,2.722c2.041,0 2.72,-1.368 2.72,-2.722c1.364,-92.563 1.364,-191.251 -2.042,-294.022l-5.447,-128.636c-0.68,-1.362 -1.361,-2.043 -2.722,-2.043Z" style="fill-rule:nonzero;"/><path d="M36.287,289.236c-1.362,-1.361 -2.042,-2.039 -3.403,-1.361c-2.043,0.683 -2.721,2.045 -2.043,4.084l6.128,11.571c6.125,9.527 12.93,18.375 21.095,26.544c1.364,1.362 2.728,1.362 4.085,0c1.361,-0.682 1.361,-2.724 0,-3.405c-8.167,-8.168 -14.972,-17.014 -20.418,-25.858l-5.444,-11.575Z" style="fill-rule:nonzero;"/><path d="M19.954,312.377c-0.681,-2.042 -2.045,-2.042 -4.084,-1.358c-2.046,1.358 -2.046,2.04 -1.363,4.08l13.613,21.779c9.526,14.976 19.058,26.546 27.905,34.718c2.039,0.679 2.722,0.679 4.083,0c1.36,-0.686 1.36,-2.727 0,-4.087c-8.848,-7.489 -18.376,-19.738 -28.585,-34.032l-11.569,-21.1Z" style="fill-rule:nonzero;"/><path d="M2.938,343.004c-0.679,-2.04 -2.726,-2.04 -3.403,-1.357c-2.042,1.357 -2.724,2.039 -1.362,4.079l14.293,20.419c12.25,15.661 26.544,31.306 42.194,44.92l4.087,-0.68c1.36,-1.357 1.36,-2.042 0,-4.078c-15.654,-12.938 -29.266,-27.225 -41.519,-42.883l-14.29,-20.42Z" style="fill-rule:nonzero;"/><path d="M56.707,452.584c-13.614,-10.897 -29.269,-26.542 -46.285,-46.957l-22.459,-27.908l-3.403,-0.686c-1.361,0.686 -1.361,2.049 -0.681,4.086l22.465,27.908c17.013,20.418 33.348,36.747 46.958,46.959l3.405,0c2.04,-2.039 2.04,-3.402 0,-3.402Z" style="fill-rule:nonzero;"/><path d="M55.342,496.138c-19.056,-14.967 -38.114,-33.347 -56.489,-54.451l-21.781,-28.579c-0.682,-1.361 -2.04,-1.361 -3.401,-0.677c-2.041,0.677 -2.041,2.035 -0.682,3.405l21.779,29.256c19.055,21.788 38.114,40.836 57.169,55.817c2.044,0.677 3.405,0.677 4.085,-0.685c0.685,-1.36 0.685,-2.715 -0.68,-4.086Z" style="fill-rule:nonzero;"/><path d="M55.342,543.104c1.364,-1.357 1.364,-2.729 0,-4.08c-17.697,-14.294 -37.433,-32.676 -58.531,-55.814l-28.586,-32.667l-4.083,0c-0.68,1.354 -0.68,2.725 0,4.079l28.588,31.993c21.777,23.821 41.515,42.875 59.21,57.167l3.402,-0.678Z" style="fill-rule:nonzero;"/><path d="M55.342,580.536c0.682,-1.355 0.682,-2.725 -0.683,-4.084c-21.094,-14.287 -42.194,-34.706 -64.658,-59.896l-26.54,-33.348l-4.085,0c-1.358,0.688 -1.358,1.364 -0.678,3.405l27.224,33.343c21.776,25.869 44.24,45.609 65.334,61.256l4.086,-0.676Z" style="fill-rule:nonzero;"/><path d="M55.342,615.243c0.682,-1.353 0,-2.719 -1.361,-4.082c-19.737,-11.564 -42.878,-29.947 -68.739,-57.169l-32.672,-37.435l-4.082,0c-2.044,0.683 -2.044,2.046 -0.68,3.4l33.349,37.433c26.543,27.225 49.682,46.968 70.102,59.221c2.043,0.68 2.722,0 4.083,-1.368Z" style="fill-rule:nonzero;"/><path d="M62.149,285.836c3.403,-8.17 6.805,-15.654 8.167,-22.459c4.085,-14.975 1.361,-23.143 -8.167,-23.143c-10.209,0 -13.611,8.167 -8.847,23.143c2.04,6.805 4.761,14.288 8.847,22.459Z" style="fill:#ffe700;fill-rule:nonzero;"/><path d="M62.149,238.194c-5.442,0 -9.527,1.362 -11.568,4.764c-2.726,5.443 -2.726,13.613 1.359,25.862l6.807,17.696c1.36,1.36 2.044,2.042 3.402,2.042l2.042,-2.042c10.886,-20.417 13.613,-34.711 8.166,-43.558c-2.041,-3.402 -5.443,-4.764 -10.208,-4.764Zm-6.807,8.167c1.364,-2.045 3.404,-3.404 6.807,-3.404c2.721,0 4.767,1.359 6.125,3.404l0.68,6.125c0,7.489 -2.039,16.333 -6.805,26.542c-5.442,-10.209 -8.167,-19.054 -8.167,-26.542l1.36,-6.125Z" style="fill-rule:nonzero;"/><path d="M55.342,648.596c0.682,-1.354 0,-2.722 -0.683,-3.4c-21.776,-12.25 -44.916,-29.951 -70.1,-51.724l-31.308,-30.629l-3.403,0c-1.36,1.357 -1.36,2.726 -0.681,4.081l31.989,29.948c25.186,23.146 48.326,40.159 70.782,53.087l3.404,-1.363Z" style="fill-rule:nonzero;"/><path d="M90.735,287.875c-1.362,-0.678 -2.72,0 -3.404,1.361c-4.763,12.252 -13.609,24.504 -25.864,37.433c-1.36,0.683 -1.36,2.724 0,3.406c1.365,1.362 2.725,1.362 4.085,0c12.93,-12.934 21.778,-25.862 27.224,-38.116c0,-2.039 0,-2.723 -2.041,-4.084Z" style="fill-rule:nonzero;"/><path d="M107.749,311.019c-2.043,-0.684 -3.401,-0.684 -4.083,1.358c-12.932,24.501 -26.541,42.2 -40.155,55.133c-1.361,1.361 -1.361,3.401 0,4.087c1.358,0.679 2.722,0.679 3.403,0c14.294,-13.616 28.583,-31.995 41.518,-56.496c1.359,-2.042 0.679,-2.724 -0.683,-4.082Z" style="fill-rule:nonzero;"/><path d="M124.083,341.646c-1.359,-0.681 -2.72,-0.681 -3.399,1.359l-14.293,20.418c-12.252,15.658 -25.865,29.945 -41.521,42.883c-1.358,2.037 -1.358,2.721 0,4.078l4.084,0.68c24.503,-21.775 43.56,-43.555 55.813,-65.338c1.357,-2.04 1.357,-2.722 -0.684,-4.08Z" style="fill-rule:nonzero;"/><path d="M138.377,377.033l-3.401,0.686c-23.825,32.666 -46.284,57.849 -68.061,74.865c-1.363,0.684 -1.363,1.363 -0.682,3.402l4.083,0c13.612,-10.212 29.265,-26.541 46.962,-46.959l22.461,-27.909c0.679,-2.036 0.679,-3.399 -1.362,-4.085Z" style="fill-rule:nonzero;"/><path d="M149.947,412.431c-1.359,-0.685 -2.723,-0.685 -3.403,0.677l-21.776,28.579c-18.377,21.104 -37.437,39.483 -57.172,54.451c-1.364,1.371 -1.364,2.727 -0.68,4.088c1.359,1.361 2.039,1.361 4.085,0.684c19.734,-14.98 38.79,-34.029 57.167,-55.816l22.46,-29.256c1.363,-1.372 1.363,-2.731 -0.681,-3.407Z" style="fill-rule:nonzero;"/><path d="M158.796,450.542l-3.4,0c-30.628,36.757 -59.214,66.015 -87.121,88.481c-1.359,1.352 -1.359,2.723 0,4.08l3.403,0.678c27.903,-22.452 57.174,-52.404 87.119,-89.159c1.36,-2.038 1.36,-2.726 -0.001,-4.08Z" style="fill-rule:nonzero;"/><path d="M164.239,483.209c-2.041,-1.361 -3.402,-1.361 -4.083,0l-26.543,33.348c-22.46,25.189 -44.242,45.608 -64.659,59.896c-2.04,1.359 -2.04,2.729 -0.681,4.084l4.085,0.677c21.099,-15.646 42.88,-35.387 64.658,-61.256l27.223,-33.343c1.362,-2.042 0.681,-2.719 0,-3.406Z" style="fill-rule:nonzero;"/><path d="M168.324,524.047l-4.083,0.683c-35.389,41.516 -67.38,70.782 -95.287,86.432c-1.358,1.364 -2.039,2.729 -0.68,4.082c0.68,1.369 2.042,2.048 4.083,1.369c29.267,-17.699 61.256,-46.963 95.967,-88.479c2.042,-1.368 2.042,-3.405 0,-4.087Z" style="fill-rule:nonzero;"/><path d="M170.366,566.245c-1.362,-0.678 -2.042,-0.678 -3.404,0c-34.031,35.387 -66.698,61.253 -98.008,78.949c-1.358,0.679 -2.039,2.046 -0.68,3.4c0.68,2.048 2.042,2.726 3.403,1.363c32.67,-19.056 66.019,-44.924 98.689,-79.632c1.36,-1.354 1.36,-2.723 0,-4.08Z" style="fill-rule:nonzero;"/><path d="M92.096,74.167c-4.765,42.879 -4.765,92.562 1.362,148.374c12.248,113.657 44.919,204.182 99.363,274.283l134.767,-5.447c-57.174,-66.703 -93.928,-157.219 -109.58,-269.518c-8.167,-56.492 -10.21,-106.174 -6.807,-149.053l-119.105,1.361Z" style="fill:#e61f19;fill-rule:nonzero;"/><path d="M213.24,70.764l-2.041,-1.36l-119.104,1.36c-2.041,0 -3.403,0.681 -3.403,2.721c-4.763,44.24 -4.763,94.607 2.042,151.096c12.251,113.663 45.599,204.865 100.048,273.607c0.681,1.355 1.361,2.039 2.038,2.039l135.444,-5.443l2.727,-2.049l-0.686,-3.4c-55.812,-66.015 -91.881,-155.175 -108.213,-266.791c-8.166,-55.813 -10.893,-105.495 -7.49,-149.057l-1.362,-2.723Zm-5.442,5.446l-1.362,29.945c0,58.533 6.127,115.704 19.063,171.51c19.055,85.758 51.043,155.864 95.959,210.311l-126.588,5.442c-39.476,-51.044 -67.384,-113.662 -84.398,-189.889c-11.57,-52.407 -17.695,-108.215 -17.695,-167.429c0,-22.458 0,-42.199 2.043,-58.531l112.978,-1.359Z" style="fill-rule:nonzero;"/><path d="M156.752,113.643c0,-1.362 -1.357,-1.362 -3.403,-1.362l-25.182,4.084l-13.609,-0.68c-2.043,0 -3.406,0 -3.406,2.04c0,2.045 0,2.724 2.042,3.405l14.974,0.681l27.228,-4.763c2.036,-0.002 2.036,-1.363 1.356,-3.405Z" style="fill-rule:nonzero;"/><path d="M134.977,95.948c-1.363,-0.681 -2.724,0.679 -3.404,2.04l-2.722,33.349c0,24.502 5.442,43.56 16.333,59.212c0.681,1.364 2.038,1.364 3.402,0.682c1.36,-0.682 2.042,-2.043 0.683,-4.084c-9.53,-13.612 -14.976,-32.667 -14.976,-56.49l2.723,-31.308c0.68,-2.043 0,-2.722 -2.039,-3.401Z" style="fill-rule:nonzero;"/><path d="M151.991,129.296c-1.363,-0.682 -2.044,0 -3.403,1.361l-5.446,16.334c-6.806,2.722 -11.568,6.125 -15.653,9.527c-9.529,8.848 -14.973,16.334 -14.973,22.458l0.679,2.727c0,2.04 2.045,3.401 5.447,4.08c8.846,1.363 18.374,-10.208 28.583,-34.709l22.463,-0.681c5.443,2.723 8.847,6.125 9.527,10.891c1.362,5.443 -1.363,11.568 -7.488,19.737l-16.332,19.737l-3.405,2.042c-4.767,6.127 -6.805,11.571 -5.447,14.974c2.044,4.767 5.447,6.806 12.252,6.806c2.042,0 2.722,-0.68 2.722,-2.039c0,-2.046 -0.679,-3.405 -2.722,-3.405c-4.083,0 -6.805,-1.362 -7.488,-3.403c-0.679,-1.362 0.684,-4.084 5.445,-8.167l2.043,-3.403l19.055,-21.1c6.125,-8.844 8.168,-16.333 7.489,-23.139c-1.363,-6.125 -6.126,-10.89 -13.613,-14.293l-21.779,-1.358l4.083,-11.572l0,-1.362l-2.039,-2.043Zm-34.032,49.682c0,-4.081 4.765,-10.887 13.613,-17.692l8.167,-6.127c-8.167,17.696 -14.972,26.546 -20.42,25.182l-1.36,0l0,-1.363Z" style="fill-rule:nonzero;"/><path d="M173.767,270.182c4.084,-5.446 6.127,-10.207 6.809,-16.336c0.678,-7.484 -2.724,-14.29 -10.21,-17.692l-19.739,0c-3.403,2.721 -6.805,6.124 -8.847,10.209c-2.72,4.762 -3.403,8.847 -3.403,12.249c0,2.723 2.041,4.766 5.445,6.125l6.805,-0.682c4.768,-3.402 8.168,-11.567 10.21,-24.498l0,-0.682c2.043,-0.68 4.083,0 6.806,1.36c5.446,3.404 7.488,8.167 7.488,13.612c-0.682,4.765 -2.721,8.167 -6.125,12.934c-2.722,4.082 -6.806,6.807 -10.21,8.846c-1.362,0 -2.042,1.363 -1.362,3.403c0,1.363 1.362,1.363 3.403,1.363c4.764,-1.365 9.529,-5.449 12.93,-10.211Zm-27.223,-21.782c2.043,-2.722 4.083,-5.443 7.487,-6.805l0.681,-1.362c-0.681,10.889 -3.404,17.014 -6.805,19.742l-2.721,0l-1.361,-2.726l0,-0.677c-0.002,-2.047 1.359,-4.767 2.719,-8.172Z" style="fill-rule:nonzero;"/><path d="M167.643,292.64c-0.681,-2.038 -2.723,-2.038 -4.086,-2.038l-1.358,2.722l0,1.358c5.444,11.572 9.527,21.781 11.568,31.308c-12.25,0.68 -19.736,3.403 -21.776,7.489l0,3.401c0,2.723 1.358,4.767 5.443,7.489c3.403,2.041 7.486,2.722 12.253,2.722c5.443,0.682 8.846,-0.681 10.889,-3.403l1.359,-5.442l-1.359,-7.489l4.084,0c8.848,0.682 13.611,2.724 14.291,4.087l0,1.357c0,2.045 -1.362,4.766 -6.131,6.806c-0.678,0.682 -1.356,1.364 -1.356,2.043l0,1.361c0.679,1.362 1.356,2.045 3.407,1.362c7.481,-2.044 10.886,-6.805 10.208,-14.292c-0.687,-3.403 -6.129,-6.127 -15.657,-6.809l-10.208,-0.681c-2.043,-9.529 -6.125,-20.42 -11.571,-33.351Zm8.851,45.603l-0.685,2.041l-6.805,1.362c-4.083,0 -6.805,-0.681 -8.847,-2.045l-2.723,-2.724l0,-0.68c1.362,-2.721 6.807,-4.762 17.697,-4.762l1.363,6.808Z" style="fill-rule:nonzero;"/><path d="M186.703,297.406c-1.365,-1.362 -2.043,-2.043 -3.406,-1.362l-15.655,3.403c-2.042,0 -2.724,0.683 -2.724,2.722c0,1.361 0.682,2.044 2.724,2.044c7.487,0 14.292,-1.363 17.696,-3.401c2.04,-1.365 2.72,-2.046 1.365,-3.406Z" style="fill-rule:nonzero;"/><path d="M219.371,387.927l-6.809,-5.443c-5.442,-1.364 -13.612,-0.678 -25.185,4.08l10.211,-22.46l0.683,-0.68l-1.36,-2.043c-1.363,-0.682 -2.04,-0.682 -3.403,0c-5.45,4.085 -11.574,6.128 -18.379,4.085c-1.364,-0.678 -3.403,0 -3.403,2.043c0,1.36 0,2.717 2.041,3.401l4.767,0l10.89,-2.041l-10.89,22.456l-0.683,0.687l0.683,2.719l3.399,0c4.086,-2.042 8.85,-3.405 13.614,-5.441l15.651,-1.363l2.727,2.719c1.362,1.368 0.677,3.402 -1.365,5.449c-2.04,3.402 -6.806,6.127 -13.611,8.847l-16.334,3.401c-0.684,0 -2.043,0.686 -2.043,1.363c-1.36,1.358 -1.36,2.041 -0.68,2.725l22.458,40.836c4.084,7.485 10.21,12.929 17.019,17.015l21.095,0c6.127,-2.725 9.528,-11.577 10.894,-27.907l0.677,-27.224c0,-1.364 -1.364,-2.044 -2.718,-2.044c-0.685,0 -2.047,0 -2.047,1.358l-0.68,1.371c0,10.886 0,20.414 -0.677,29.938c-2.047,11.573 -4.088,18.38 -7.492,20.421l-17.015,-1.363c-6.119,-2.725 -10.887,-8.162 -14.288,-14.29l-19.74,-36.755l17.014,-4.759c6.807,-2.722 10.896,-6.128 13.612,-9.531l2.043,-7.484l-0.676,-4.086Z" style="fill-rule:nonzero;"/></g></g><rect id="PATH77" x="2.92" y="2.74" width="366.67" height="582.52" style="fill:none;stroke:#000;stroke-width:3px;"/></svg>