<svg id="Card" xmlns="http://www.w3.org/2000/svg" viewBox="0 0 1024 1680"><defs><style>.cls-1{fill:#f2f0ed;}.cls-2{fill:#8c1707;}.cls-3{fill:#d82e21;}.cls-4{fill:#f79d31;}.cls-5{fill:#16592d;}</style></defs><rect class="cls-1" x="14.5" y="14.5" width="995" height="1651"/><polygon class="cls-2" points="966 1619.17 966 60.83 1018 8.83 1018 1671.17 966 1619.17"/><polygon class="cls-2" points="60.83 58 8.83 6 1015.17 6 963.17 58 60.83 58"/><polygon class="cls-2" points="8.83 1674 60.83 1622 963.17 1622 1015.17 1674 8.83 1674"/><path class="cls-3" d="M849.81,1004.86c-.07-1.31-.17-2.62-.26-3.93-.21-2.89-.43-5.85-.46-8.81-.33-28.1,3.67-55.94,7.79-82,3.43-21.69,9.78-42.9,16-62.77q1.71-5.47,3.38-11l.06-.19c6.23-20.4,12.67-41.48,22.6-61.08,2.8-5.53.76-6.79,0-7.27a7.38,7.38,0,0,0-4-1.12,13.28,13.28,0,0,0-5.25,1.26l-1.13.5c-5.67,2.48-11.53,5.05-17.66,6.3q-7.19,1.46-14.36,3l-.6.12c-19.35,4-39.34,8.23-59.24,10.71-24.63,3.08-49.79,3.76-71.16,4l-3,0c-12,0-23.85-.82-36.41-1.68H686c-6-.4-12.15-.83-18.43-1.16h-.07l-9.44-1.43c-13.79-2.1-28.44-4.33-43.08-6.6a6.32,6.32,0,0,1-2.53-1.17c-.22-.14-.43-.28-.64-.4L609.7,779l1.53-1.86c.21-.26.41-.55.62-.83a8.65,8.65,0,0,1,2.23-2.4c10.78-7.34,20.7-16.19,30.29-24.76,7.81-7,15.89-14.18,24.47-20.62a464.84,464.84,0,0,1,59.72-37.93,511.21,511.21,0,0,1,56.49-26.22c20.78-8.12,44.31-17.3,68.41-23.61.64-.17,1.43-.34,2.29-.52,2.6-.54,7-1.45,7.8-3.11.14-.28.27-.75-.17-1.75-2.75-6.11-7.85-11.49-12.77-16.7-1.8-1.89-3.64-3.84-5.39-5.83-19-21.69-32.27-47.66-43.26-70.31-13.16-27.11-21.49-52.35-25.48-77.16a17,17,0,0,1-.14-3.21,8.58,8.58,0,0,0-.67-4.43c-1.21-2.45-1.3-4.73-.25-6.41a5.45,5.45,0,0,1,4.88-2.37,11.51,11.51,0,0,1,3.54.61c1.91.61,3.81,1.3,5.65,2,1.54.56,3.13,1.14,4.69,1.66,5.16,1.72,10.51,3.42,15.23,4.93,10.87,3.47,22.09,7,32.91,11.19,13.32,5.1,26.63,10.8,39.5,16.33,5.82,2.49,11.83,5.07,17.78,7.57,17.57,7.36,35.38,16.76,57.78,30.48q1.85,1.14,3.7,2.33l.92.58v80.94l-3.21-2.45c-5-3.84-9.58-7.07-13.92-9.87C930,585.6,916.8,574,904,562.73l-4.8-4.21c-22.58-19.76-47.12-40.56-73.49-58.74a4.75,4.75,0,0,0-2.17-1,2,2,0,0,0-1.43.75c-.67.64-.71.86-.72.87a5.07,5.07,0,0,0,.34,1c.17.41.35.87.52,1.41,1.78,5.54,5.52,9.4,9.48,13.49.91.94,1.81,1.87,2.7,2.83,4.59,5,9.15,10.13,13.55,15.12,9.83,11.14,20,22.67,31.18,32.58,8.07,7.15,15.57,15,22.82,22.54,6.42,6.69,13,13.6,20,19.94,4.54,4.16,9,8.55,13.27,12.8,8.18,8.1,16.6,16.43,26,23.36l.81.6v9.14l-1.36.46-13,4.45c-14.31,4.88-29.09,9.92-43.71,14.68-10.21,3.33-20.63,6.6-30.7,9.76l-.24.08c-13.26,4.16-27,8.47-40.43,13s-27.06,9.71-40.15,14.72l-6.44,2.46c-22.52,8.59-46.2,17.77-72.4,28.05a4.12,4.12,0,0,0-1.21,1.23,5,5,0,0,0,1.56.83h0a194.67,194.67,0,0,0,21.14-2.36c17.37-3.18,35-6.59,52-9.88,6.21-1.2,12.39-2.4,18.58-3.58,4.34-.84,8.73-1.63,13-2.4,9.92-1.8,20.14-3.65,30-6,13.6-3.29,27.3-7.07,40.54-10.73,5.84-1.61,11.68-3.23,17.53-4.8l44.34-11.94L962,690.26v52l-.25.45-.92,1.7-.59,1.11c-11.15,20.81-22.67,42.32-33.18,63.88C920.46,823,914.7,837.22,909.12,851l-2.26,5.57c-3.79,9.35-7.46,18.93-11,28.19l0,.11c-2.65,6.9-5.38,14-8.15,21-2,5-4.09,10.06-6.13,14.94-2.19,5.23-4.44,10.62-6.55,16a4.93,4.93,0,0,0,.3,2.16,4.1,4.1,0,0,0,1.06.19c.26,0,.74,0,1.34-1.41a207.15,207.15,0,0,1,12.91-25.91c3.45-5.65,7.25-11.2,10.92-16.57,5.39-7.88,11-16,15.42-24.51,8.48-16.21,17.86-31.62,25.08-43.23,2.91-4.67,6.22-9.16,9.41-13.51,2.32-3.15,4.72-6.41,6.92-9.69l3.66-5.43V890.3L960.74,892l-1.86,2.46c-4.31,5.74-9.17,11.15-13.87,16.38-4.08,4.54-8.3,9.23-12.09,14.08-15.81,20.2-34.19,38.42-52,56-6.15,6.09-12.5,12.38-18.64,18.66a36.61,36.61,0,0,1-6.48,4.89c-1,.63-2,1.26-2.87,1.9l-2.94,2.09Z"/><path class="cls-3" d="M907.9,870.4c0-.14-.1-.28-.16-.43a3.85,3.85,0,0,1-.28-2.88q1.18-3.08,2.35-6.13c2.47-6.46,5-13.13,7.87-19.59q2-4.43,3.91-8.87l.14-.34c8.32-19,16.92-38.55,27.62-56.85,2.71-4.63,5.44-9.65,8.87-16.27l.55-1,3.23.79v32.36l-.78,1.14c-1,1.45-2,2.9-2.93,4.34-2.44,3.73-4.89,7.43-7.34,11.14-12.81,19.36-26.05,39.39-36.41,60.66a6.44,6.44,0,0,1-2.61,2.46c-.31.2-.61.38-.87.58l-2.37,1.84Z"/><path class="cls-3" d="M762.3,729.58l1.12-.61a162,162,0,0,1,26.92-11.68c18.17-6,36.69-12.07,54.6-17.89l.2-.06,25.14-8.18q7.77-2.53,15.55-5c13-4.17,26.33-8.47,39.33-13.08,4.66-1.66,9.45-3.12,14.09-4.54,6.64-2,13.5-4.13,20-6.79l2.76-1.13v26.75l-1.47.41c-7.53,2.08-13.3,3.65-18.7,5.07-17.5,4.63-35.46,9.13-54.9,13.76-8.77,2.08-17.72,4-26.38,5.88l-.26.06c-6.57,1.42-13.37,2.89-20,4.41-5.3,1.21-10.67,2.54-15.87,3.82l-.13,0c-7.42,1.83-15.09,3.73-22.71,5.33-8.46,1.78-17.11,3.23-25.48,4.63l-.12,0c-3.74.63-7.49,1.26-11.23,1.92l-1.26.22Z"/><path class="cls-3" d="M958.67,638.75c-7.14-6.35-14.11-12.59-20.8-19.23S924.47,605.76,918,599c-7.08-7.51-14.37-15.24-21.82-22.54-11-10.79-22.55-21.41-33.73-31.67-4.92-4.53-9.82-9-14.68-13.56l-1.43-1.33,5.38-6.05,1.46,1.06c1.35,1,2.72,1.92,4.09,2.86a108.71,108.71,0,0,1,9,6.68c6.94,6,13.91,12.11,20.65,18.06,12.73,11.24,25.89,22.86,39.37,33.61,11.72,9.34,23.69,18.3,34.88,26.59l.81.6V641.7Z"/><path class="cls-4" d="M588.72,1090.75c-10.69,0-19.42-4.1-27.45-12.92-5.82-6.4-13.19-11.5-21-16.89-3.63-2.52-7.38-5.12-11.11-7.94l-4-3,5-.54c13-1.4,26.11-2.64,38.77-3.84,37.05-3.5,72.18-6.82,107.42-14.12C626.7,1023,582,1018.87,540,1018.87c-12.38,0-24.75.36-36.76,1.08l-1.17.07-1-3.17,1-.61,8.81-5.36,1.19-.72c7.86-4.77,16-9.7,24-14.69,2.64-1.65,5.27-3.49,7.81-5.27A124.23,124.23,0,0,1,556,982.37c7.71-4.15,16.24-6.08,26.83-6.08,6.15,0,12.39.64,18.43,1.25,3.59.37,7.28.75,10.91,1,11.31.75,22.47,3.06,33.26,5.3l5,1c18.68,3.82,34.68,8.71,48.91,15,12.22,5.36,24.36,11.39,36.1,17.22,4.27,2.12,8.51,4.23,12.76,6.3a11.35,11.35,0,0,1,2.94,2.32c.33.33.65.65,1,.93l1.7,1.48-1.67,1.51c-.3.27-.58.57-.87.86a11.16,11.16,0,0,1-2.7,2.23c-4.63,2.44-9.3,5-13.82,7.45-11.46,6.24-23.29,12.68-35.42,18-10.9,4.81-22.52,8.32-33.75,11.72l-.16.05c-3.13.95-6.26,1.89-9.37,2.87-6,1.89-12.19,3.64-18.15,5.33l-.12,0c-8.3,2.35-16.87,4.79-25.15,7.61C605,1088.35,596.82,1090.75,588.72,1090.75Z"/><path class="cls-3" d="M445.08,1618l-.2-1.77c-1.24-11-2.51-23.74-1.88-36.55,0-.55.09-1.13.16-1.73.38-3.56.08-4.21-1.15-4.57a15,15,0,0,0-4.34-.66,13.64,13.64,0,0,0-5.81,1.31c-3.12,1.47-6.29,3-9.36,4.58-9.15,4.58-18.57,9.29-28.49,11.82-7.2,1.83-14.43,4-21.42,6.07-15.07,4.49-30.64,9.13-46.88,10.88-24.41,2.64-52.85,5.45-81.48,5.45H241c-.81,0-3.25,0-4.22-1.89s.41-3.79.92-4.52c2.07-2.92,4.11-5.86,6.15-8.79,14-20.06,28.39-40.71,47.58-57.38,24.2-21,53.52-45.22,87.49-65.18l.16-.1c.58-.34,1.67-1,1.76-1.52.05-.24-.12-.76-.73-1.49q-4.37-5.28-8.77-10.52c-17.36-20.78-35.31-42.26-50.1-65.8-14.18-22.54-25.26-43.71-33.87-64.71-6.67-16.27-12.3-33.24-17.74-49.65-1.41-4.25-2.79-8.4-4.19-12.55a44.35,44.35,0,0,1-1.54-7.23c-.19-1.28-.4-2.6-.66-3.85a4.47,4.47,0,0,1,.68-3.9,4,4,0,0,1,3.27-1.38,13.91,13.91,0,0,1,4.7,1.13c8.1,3.25,16.16,6.91,24,10.46l.2.09,6.13,2.78c27.75,12.5,53.68,29,78.75,45l1,.61c18.91,12.06,35.58,27.13,51.7,41.71l.12.1c3.83,3.47,7.8,7.06,11.73,10.53A425.2,425.2,0,0,1,482,1402.05a2.66,2.66,0,0,0,1.77,1.12,3.42,3.42,0,0,0,1.67-.65c6.39-4.07,12.87-8.26,19.13-12.31l.9,1.2-.81-1.26c13-8.37,26.34-17,39.75-25.16,31.08-18.83,62.41-41.27,81-77.55a4.54,4.54,0,0,1,3.2-2.17l.11,0H629c1.61,0,2.76,1.77,3,2.58,5.83,18.12,6,36.79,5.59,51-.78,24.18-7.82,47.67-15.32,69.45-8.15,23.72-21.59,47.14-39.92,69.61-2,2.39-3,5.42-2.65,6.53.54,1.62,2.73,2.71,5.46,2.71.33,0,.66,0,1-.05,3.77-.37,7.61-.81,11.33-1.23,10.11-1.14,20.51-2.32,30.79-2.36h.44c10.19,0,20.48,1.4,30.43,2.76,2.31.32,4.61.63,6.92.93a260.09,260.09,0,0,1,28.89,5c9.86,2.42,19.7,5.39,29.23,8.26,3.11.94,6.18,1.87,9.26,2.78a12.32,12.32,0,0,1,4.25,2.66c1.94,1.67-.7,4.79-.81,4.92-16.65,20-39.35,29.65-65.14,39.39l-2.6,1c-23.71,9-48.23,18.27-74.14,21.52a23.45,23.45,0,0,0-4.44,1.25,20.38,20.38,0,0,1-6.78,1.56,9.69,9.69,0,0,1-6.6-2.57c-10.36-9.07-20.77-18.42-30.84-27.47l-6.07-5.44a13.13,13.13,0,0,1-1.86-2.3c-.2-.31-.4-.6-.61-.88l-2-2.61,3.22-.56.85-.17a13.61,13.61,0,0,1,2.74-.39h1.62c2.31,0,4.62,0,6.93.08s4.59.07,6.88.07c3.76,0,6.81-.1,9.62-.32,7.45-.6,15-1.45,22.38-2.27,13-1.46,26.4-3,39.65-3.15,7.87-.11,15.55-1.85,23-3.53a141.93,141.93,0,0,1,18.52-3.32c.66-.25,2.1-2.91,2.8-4.19.25-.45.48-.89.72-1.31a4.57,4.57,0,0,0-.88-.66c-20.63-2.69-41.83-5.31-60.07-7.54-10.4-1.28-21.06-1.66-31.37-2-4.76-.17-9.65-.34-14.48-.6-5.19-.28-10.5-.35-15.64-.41-7.56-.1-15.36-.19-23-1-2.89-.28-5.86-.43-8.74-.58l-4.33-.23-4.13-.26,2.76-3.08c.84-.93,1.71-1.83,2.56-2.71a37.28,37.28,0,0,0,5.14-6.07,59.64,59.64,0,0,1,7.9-9.89c16.85-17.62,32.19-37.76,46.89-61.56,9.94-16.11,19.92-33.67,25.61-52.92.26-.86.06-1.35-.66-2.28l-1.5,1.17c-4.43,3.37-7.19,8.29-9.86,13a58.55,58.55,0,0,1-7.13,10.74l-4.78,5.35c-14.53,16.28-29.55,33.11-46.55,47.67-10.11,8.67-20.1,17.86-29.76,26.74q-5.71,5.25-11.43,10.48a4.7,4.7,0,0,1-3.15,1.37,4.81,4.81,0,0,1-3.36-1.57q-4.35-4.18-8.68-8.39l-.62-.6-9-8.67q-8.19-7.89-16.41-15.76l-.6-.57c-13-12.43-26.37-25.28-39.39-38.11-11-10.82-22.71-22.87-36.83-37.9-2.49-2.66-5-5.35-7.42-8l-.1-.11c-8.86-9.66-18-19.65-28.39-28-.19-.15-.41-.36-.64-.58l-.05-.05a2.47,2.47,0,0,0,.14,1c2,3,4,6,6,9l.08.12c5.5,8.22,11.19,16.72,17.46,24.5,8.78,10.9,17.3,22.29,25.53,33.3,10.82,14.46,22,29.39,33.87,43.39,7.39,8.7,14.65,17.81,21.68,26.62,5.65,7.09,11.48,14.4,17.35,21.47,1.29,1.55,2.41,3.08,2,4.81s-2.41,2.56-4.11,3.22l-16.23,6.23c-24.45,9.39-49.73,19.1-74.42,29.15-18.13,7.39-34.73,18.49-50.78,29.22l-.77.52-5.09,3.4a13.12,13.12,0,0,1-2.2,1.06,7.83,7.83,0,0,0-1.88.93,2,2,0,0,0,.18.43,2.44,2.44,0,0,0,2.45,1.45,11.66,11.66,0,0,0,4.22-1.09c2.06-.86,4.11-1.76,6.16-2.66a158.69,158.69,0,0,1,16-6.36c5.67-1.79,11.49-3.32,17.12-4.8,6.7-1.76,13.64-3.59,20.27-5.84,20.1-6.81,41-12.75,62.08-17.67,10.27-2.39,20.23-5.42,30.78-8.64,4.62-1.41,9.41-2.86,14.25-4.27l2.92-.85-.38,3c-2.16,17.33-4.62,37-4.42,56.58.05,4.68.05,9.44,0,14,0,7.6,0,15.43.22,23.11l.06,2.06Z"/><path class="cls-5" d="M325.43,465.79c-.11-1.41-.22-2.75-.33-4-.35-4.25-.65-7.91-.59-11.76a89.36,89.36,0,0,0-1.58-15.37c-.94-5.86-1.92-11.91-1.55-17.91,2-31.65,3.9-60.16,7-88.67,2.94-26.67,7-54.12,12.49-83.92.34-1.79.16-2.23.07-2.34s-.27-.29-1.47-.29a9,9,0,0,0-1.11.07c-7.73.85-14.72,3.35-22.12,6L313,248.7c-17,6-31.09,10.77-44.47,15.17-13.78,4.54-27.46,9.47-40.66,14.66-17.07,6.72-34.68,12.74-51.72,18.57-6.69,2.29-13.61,4.66-20.41,7a9.75,9.75,0,0,1-2.76.42c-.31,0-.62,0-.93.07l-3.38.37,1.32-3.13c.09-.24.21-.47.32-.7a3.9,3.9,0,0,0,.32-.75c2.41-12.13,8.06-22.87,13.53-33.25.84-1.6,1.69-3.21,2.52-4.82,10.82-20.88,21.72-36.92,34.31-50.48,21-22.61,49.71-51.13,86-71.17,4.26-2.35,6.82-4.95,6.85-6.94s-2.18-3.57-4-4.67c-4.26-2.53-8.63-5-12.85-7.48-11.15-6.44-22.64-13.07-33.47-20.58C225,88.19,209.88,76.92,196,65.55L191.7,62h92.53l.45.25C296.32,68.7,310.1,76.21,324,83l5,2.46c24.46,12,49.76,24.47,75.84,33.88a6.48,6.48,0,0,1,2.56,2c.21.24.42.47.63.68l1.59,1.47L408,125c-.19.18-.37.36-.55.55a8.69,8.69,0,0,1-2,1.72L399,131l-.47.27c-6.7,3.84-13.63,7.81-20.63,11.46-6.38,3.33-12.92,6.58-19.24,9.74l-.21.1c-11.26,5.61-22.9,11.4-34,17.74a183.34,183.34,0,0,0-18.23,12.53c-5,3.7-10.06,7.52-15.4,10.86-9.35,5.84-17.74,13.25-25.85,20.4-5.69,5-11.57,10.21-17.77,14.87-1.32,1-5.47,4.49-3.62,8,.08.16.25.48,1.12.48a7.55,7.55,0,0,0,3.27-1q9.6-5.1,19.2-10.24l.14-.07c19-10.14,38.61-20.62,58-30.68,21.22-11,42.86-21.83,63.79-32.33l17.73-8.91a12.81,12.81,0,0,1,3.63-1c.46-.07.92-.15,1.36-.26l2-.47.41,2c0,.24.12.48.19.72a6.17,6.17,0,0,1,.35,2.84c-.67,3.76-1.32,7.5-2,11.25l-.07.37c-1.45,8.31-3,16.9-4.56,25.32-2.47,13-6,25.93-9.5,38.44s-7,25.2-9.4,38c-2.32,12.11-6.08,23.87-9.73,35.25-2.61,8.17-5.31,16.62-7.44,25.08-2.81,11.19-6.91,22.2-10.87,32.84-2.11,5.66-4.27,11.48-6.21,17.24a6.82,6.82,0,0,0,.61,2.32l.05.11a1,1,0,0,0,.23-.11c6.39-4.53,9.48-11.6,12.46-18.45a101.45,101.45,0,0,1,4.45-9.3c4.1-7.2,7.08-15.28,10-23.1,1.7-4.6,3.45-9.36,5.43-13.95,2.68-6.22,5.59-12.46,8.4-18.49,4.25-9.12,8.62-18.5,12.29-27.95,3.57-9.25,6.63-18.9,9.59-28.24,2.33-7.35,4.74-15,7.4-22.37a608.54,608.54,0,0,0,21.18-70.86c.24-1.06,1-4.28,3.87-4.28a5.46,5.46,0,0,1,3.28,1.37c5.45,4.21,11,8.46,16.43,12.56l.17.14c11.24,8.56,22.87,17.41,34,26.47,11.88,9.63,23.83,19.51,35.38,29.07,15.73,13,32,26.46,48.21,39.38a16.76,16.76,0,0,1,2.2,2.34c1.11,1.35,2.64,3.19,3.74,3.19a2.26,2.26,0,0,0,1.43-.83c1.49-1.5.52-3.33-2.39-7.15-.42-.55-.79-1-1.13-1.51-10.54-14.68-23-28.19-35-41.26l-.08-.09c-5.93-6.46-12-13.13-17.89-19.87-3.67-4.24-7.34-8.59-10.89-12.81-8.78-10.42-17.85-21.18-27.55-30.95-8.36-8.42-17.77-16.16-26.88-23.65-4.07-3.35-8.27-6.8-12.34-10.29L459,110.82l3.47-1.07c2.27-.7,4.54-1.45,6.73-2.17l.14,0c5-1.64,9.67-3.2,14.63-4.31,22.72-5.09,44-15.1,64.61-24.78l.27-.13c4.17-2,8.34-3.92,12.52-5.84a120.28,120.28,0,0,0,17.38-10.13l.51-.34h67.28l-6.26,3.72C629,72.41,618.58,78.13,608.35,83.2c-8.73,4.33-17.66,8.58-26.31,12.68-11.8,5.61-24,11.41-35.83,17.49a19.65,19.65,0,0,1-3.78,1.29c-2.07.56-4.64,1.26-5.21,2.45a3.12,3.12,0,0,0,.31,2.45c5.42,12.54,16,21.45,26.32,30.06,2.25,1.89,4.55,3.82,6.76,5.76,10,8.8,17.83,19.31,25.35,29.47,2,2.75,4.13,5.58,6.25,8.34,8.08,10.58,15,22.27,21.61,33.58q2.38,4.06,4.78,8.09l1.91,3.18c5.1,8.51,10.38,17.31,14,26.65,6.62,16.85,12.09,34.19,17.56,51.95,2.45,7.95,4.39,16,6.45,24.56,1,4,1.94,8.09,3,12.29l1.34,5.29-4.44-3.17c-12.08-8.63-23.83-16.55-35.19-24.21-7.19-4.85-13.92-9.39-20.79-14.12-18.08-12.49-37.76-22.5-56.8-32.17l-5.08-2.59c-8.36-4.27-17.18-8-25.72-11.53-13.4-5.62-27.26-11.42-39.82-19.61-2.81-1.84-5.24-2.77-7.21-2.77s-4.81.78-6.93,7.48L469.39,261c-3.9,12.35-7.93,25.12-12.73,37.39-11,28.09-27.58,53.68-42.36,75-11.34,16.36-24,32.14-36.25,47.4-14.54,18.12-32.37,32.89-49.38,46.45l-3,2.36Z"/><path class="cls-4" d="M534.14,1043.24c-18.2,0-32.44-4-44.8-12.75a5.42,5.42,0,0,1-1.43-1.63,3.2,3.2,0,0,0-.3-.45l-1.44-1.88,2.09-1.11a2.29,2.29,0,0,0,.29-.18,4,4,0,0,1,2-.8c20.25-1.11,41.91-2.15,63.18-2.15,11.88,0,22.77.31,33.29.94,13.72.83,27.58,2.45,41,4,6.09.71,12.31,1.44,18.43,2.09l1.85.2-.06,1.85c0,.34,0,.68,0,1l-.12,1.72-14.39,1.18L614,1036.93q-9.1.77-18.2,1.47l-.23-1.49.12,1.5c-14.29,1.13-29.06,2.31-43.55,3.79A174.65,174.65,0,0,1,534.14,1043.24Z"/><path class="cls-5" d="M378.86,1272.13c-26.25-24.22-55.64-54.22-74.51-93.14-12.48-25.72-20.68-54-25.06-86.56-.9-6.71,4.23-10.06,8.34-12.76a32,32,0,0,0,3.4-2.42c16.18-13.92,30.06-24.17,43.67-32.25a7.49,7.49,0,0,1,3.63-1.36,2.67,2.67,0,0,1,2,.86,4.15,4.15,0,0,1,.65,3.43c0,.35-.07.68-.07,1,0,4.37-.1,8.81-.22,13.11-.24,9.06-.49,18.43.57,27.43,1.41,12,3.43,24.18,5.38,36,2.18,13.1,4.42,26.61,5.85,40,1.05,9.87,3.78,19.5,6.43,28.81,2.3,8.09,4.68,16.45,6,25,.28,1.89,1.16,2,3.64,2.2l.66,0c0-.09,0-.17,0-.24a6.25,6.25,0,0,1-.14-2c2.92-21.65,2.4-43.86,1.89-65.33l-.08-3.55c-.37-16.27-1.5-32.8-2.59-48.79-.66-9.69-1.34-19.68-1.85-29.53-.34-6.58-.25-13.26-.16-19.72,0-3,.08-5.94.08-8.9v-3.83l3.14,2.19c4.5,3.13,9.1,6.41,13.55,9.58,10.67,7.6,21.67,15.44,33,22.55,2.21,1.38,4.4,2.79,6.59,4.19l.17.11c9.73,6.25,19.8,12.71,30.79,17.18,9.49,3.87,18.95,8.15,28.1,12.3,11.32,5.12,23,10.42,34.77,14.93,11.22,4.31,23.14,7.49,34.68,10.57,4.44,1.19,9,2.41,13.56,3.69a2.14,2.14,0,0,0,.41-.25c.73-3-2.21-4.67-3.33-5-15.63-5.22-29.94-13.39-43.77-21.28-6.94-4-14.1-8-21.31-11.69-6.87-3.48-13.52-7.59-19.94-11.56-6-3.72-12.22-7.55-18.54-10.82-10.64-5.52-20.14-12.8-29.33-19.84-6.59-5.06-13.39-10.26-20.49-14.73A246.36,246.36,0,0,1,388.22,1027c-2.87-2.23-6.11-4.76-9.37-7.2l-2.51-1.88,2.76-1.48,21.44-11.53,1.53-.83c16.35-8.8,31.79-17.11,47.71-25.57,11.65-6.18,23.43-12.35,34.83-18.31l.22-.12c11.85-6.2,24.1-12.62,36.1-19,7.34-3.9,15-8.31,24.89-14.3a5.13,5.13,0,0,0,1.34-1.7l-.64.15a9.16,9.16,0,0,1-2.35.4h-.84c-14.78,0-28.49,5.64-41.74,11.09l-.49.2c-6.41,2.64-13,5.3-18.88,7.66-21.84,8.79-44.41,17.88-65.67,28.86q-4.57,2.36-9.16,4.68c-11.95,6.08-24.3,12.37-35.84,19.69a6.54,6.54,0,0,1-3.49,1.13c-4,0-5.89-4.37-7.26-7.56a22.1,22.1,0,0,0-.94-2c-14.61-27-28.66-53.83-45.26-85.86-4.57-8.81-9.06-17.81-13.4-26.52l-.07-.15c-3.62-7.24-7.36-14.73-11.11-22.06a63.27,63.27,0,0,0-5.2-8c-.45-.62-.87-1.19-1.28-1.77a3.63,3.63,0,0,0-.54,1.41c-.49,6.86,1.55,13.5,3.53,19.92a109.13,109.13,0,0,1,2.93,10.87c3.13,15.85,8.7,31.25,14.08,46.15,1.8,5,3.65,10.1,5.4,15.21,1.87,5.43,4.11,10.86,6.28,16.11s4.39,10.62,6.27,16.07c.75,2.17,1.42,4.38,2.06,6.51,1.73,5.72,3.52,11.63,6.9,16.69.95,1.4,1.14,2.67.56,3.75s-1.78,1.67-3.53,1.67H327c-5.18-.24-10.53-.55-15.26-.83-11.3-.65-22.92-1.32-34.37-1.32-5.77,0-11.06.17-16.17.51C227,1000,200,1006.05,176,1016.88c-3.95,1.79-6.27,3.59-6.92,5.35a3,3,0,0,0,.2,2.41c.09.21.29.63,1.73.63a25.71,25.71,0,0,0,5.24-.9c1.05-.26,2-.49,3-.67a334.09,334.09,0,0,1,38.27-4.52c3.9-.25,7.83-.56,11.63-.85,9.75-.76,19.82-1.55,29.8-1.55a145.41,145.41,0,0,1,19.25,1.17,156.1,156.1,0,0,0,18.21.94c9.52.12,19.36.25,29.35,3l4.93,1.38-4.56,2.33c-22.67,11.6-41.27,28.27-59.26,44.39l-1.19,1.06c-6.86,6.15-13.76,9-21.69,9-6.42,0-12.87-1.87-19.71-3.86l-2-.57c-23.51-6.77-46.11-16.74-69.1-30.49-13.79-8.25-25.28-14.65-36.16-20.14-2-1-4.26-2.44-4.22-4.65s2.31-3.3,4-4.06l.66-.32c4-2,8.08-4.06,12-6.08,10.78-5.54,21.89-11.25,33.43-15.37,19.1-6.85,39.14-11.92,58.52-16.81l1.93-.49c8.71-2.2,17.66-4,26.31-5.71,6.31-1.25,12.74-2.53,19-4a10.77,10.77,0,0,0,.43-4.25c-1.52-8-3.25-16-4.91-23.78-3.3-15.37-6.71-31.27-8.69-47.13-2.91-23.25-5-48.13-.66-72.5a19.21,19.21,0,0,0-.22-5c-.43-3.49-.92-7.45,1.4-10.12,1.44-1.65,3.64-2.48,6.71-2.52h0c4.85,0,9.26,3.72,13.54,7.33,1.48,1.24,2.88,2.42,4.26,3.42,22.48,16.32,48.51,36.31,71.11,60.92,13.2,14.36,24.39,27.55,34.21,40.31,2.09,2.72,4.16,4.05,6.32,4.05,2.56,0,5.37-1.78,8.09-3.49,16.89-10.65,35.91-16.59,54.29-22.33,4.28-1.33,8.69-2.71,13-4.13,19.37-6.37,36.61-10.16,52.7-11.59,14.4-1.29,29.09-1.91,44.92-1.91,6.77,0,13.84.11,21,.35,12,.39,24.13,1.44,35.87,2.46,5.45.48,11.09,1,16.71,1.38,1.42.11,2.75.21,3.43,1.51s-.06,2.6-.86,3.95c-16.33,27.32-38.42,52.72-67.53,77.65-17.87,15.31-38.55,29.58-65.09,44.9a210.22,210.22,0,0,0-27.17,18.83c-1.33,1.08-2.05,2.11-2,2.81.18,1.57,3.57,3.19,5.2,4l.31.15c15.77,7.56,31.6,17.28,51.31,31.52a639.28,639.28,0,0,1,71.89,59.92c6.58,6.37,13.63,12.52,20.45,18.46,3.36,2.92,6.81,5.92,10.19,9a3.62,3.62,0,0,1,1,2.55,2.18,2.18,0,0,1-.74,1.72l-.58.54a8,8,0,0,1-3.47,2.32l-4.27,1.07c-18.08,4.57-36.77,9.29-56,9.29-1.14,0-2.29,0-3.44-.05-5-.14-10-.17-14.87-.19-17.23-.07-35-.15-52.44-5.56-10.49-3.27-21.34-6-31.83-8.65-9.92-2.5-20.17-5.08-30.13-8.12-8.5-2.59-16.7-6.38-24.63-10-2.87-1.32-5.77-2.66-8.63-3.92a12.21,12.21,0,0,0-4.59-1.32c-.32,0-.72,0-.87.23-.69.85,0,4,.34,5.57a17.86,17.86,0,0,1,.45,2.54c1.44,24.57,3.08,52.43-3.5,79.21-5.44,22.12-11.24,38.38-18.82,52.72l-1.22,2.3Z"/><path class="cls-3" d="M584.24,1618l-.58-.56-4.5-4.32-.51-.48c-9.16-8.76-18.62-17.81-26.81-27.71s-17.32-19.39-26.1-28.54c-6.12-6.36-12.43-12.93-18.44-19.65a4.48,4.48,0,0,0-1.82-1.39,4.35,4.35,0,0,0-.6,1.85q-.92,5.7-1.9,11.38c-.9,5.25-1.83,10.66-2.63,16-2.64,17.63-5.28,35.6-7.6,51.45l-.29,2H481.1v-2c0-5.42,0-10.9,0-16.2,0-8.35.09-17-.13-25.45a314.85,314.85,0,0,1,3.53-55.06,5.28,5.28,0,0,0-1.21-3.74,2.07,2.07,0,0,0-.57-.06,12.16,12.16,0,0,0-3.08.55c-5.59,1.62-11.21,3.32-16.64,5-8.73,2.64-17.73,5.36-26.65,7.79-9.59,2.61-19.38,5.06-28.85,7.42l-.11,0c-7.52,1.88-15.23,3.81-22.79,5.8-7.29,1.93-14.65,4.1-21.78,6.19q-4.84,1.44-9.71,2.84l-1.23.36-1.5-3.23,1.07-.71a123.53,123.53,0,0,1,25.44-12.91c21.74-8.29,43.46-17.78,64.47-27,8.08-3.53,17.17-7.51,25.89-11.24a7.16,7.16,0,0,0,1.29-.66,6.77,6.77,0,0,0-.89-1.25c-21.18-25.43-42.33-51.22-60.5-73.4a27.93,27.93,0,0,1-3-4.88c-.38-.73-.75-1.43-1.14-2.12l-2.51-4.34,4.81,1.42a9.49,9.49,0,0,1,4.17,2.64c.27.26.53.51.8.73,20.46,16.16,40.68,35.45,61.84,59,5.46,6.08,10.07,10.12,14.87,10.12,3.7,0,7.82-2.32,13-7.32,6.59-6.37,13.68-12.39,20.54-18.21,8.86-7.52,18-15.28,26.12-23.85,5.8-6.13,11.82-11.75,18.79-18.27,3.28-3.06,6.67-6.23,10.31-9.71l1-.91,2.82,2.31-.71,1.12c-1.82,2.86-3.44,5.48-5,7.94-3.09,5-5.76,9.32-8.74,13.46-7.07,9.82-13,17.56-18.75,24.34-3.61,4.27-7.17,8.73-10.62,13-8.12,10.17-16.5,20.66-26.32,29.75-.56.51-1.18,1-1.81,1.57-3.44,2.89-5.46,4.88-4.4,8,.66,2,1.91,2.81,4.17,2.81a19.87,19.87,0,0,0,5.07-.92,64.8,64.8,0,0,1,17.85-2.19c4.63,0,9.28.32,13.79.62,3.45.24,7,.48,10.51.57,18.82.49,37.88,2.08,56.32,3.62,6.61.56,13.44,1.13,20.23,1.64,5.88.46,11.84,1.07,17.6,1.67l.55,0,7.65.78,1.34.13.05,3.68-1.33.16c-23.43,2.94-48.42,5.19-81,7.31-8.43.55-17,.88-25.27,1.2h-.12c-7.19.28-14.62.57-21.91,1a11.23,11.23,0,0,0-4.25,1.68l-.37.2,0,.06a16.76,16.76,0,0,0,2.59,3.41c6.68,6,13.46,11.94,20,17.73,8.39,7.39,17.06,15,25.52,22.65,10.06,9.06,20.25,18.32,30.11,27.27l.27.25,13.43,12.2,3.84,3.48Z"/><path class="cls-4" d="M600.16,1259.8c-12.5-3.84-22.48-11.62-32.14-19.14-2.94-2.3-6-4.67-9-6.87l-.23-.17c-13.54-9.77-27.54-19.88-37.43-34.41-3.84-5.65-8.19-11.14-12.39-16.45l-.07-.1c-2.33-2.93-4.73-6-7-9-.94-1.26-.71-3-.36-4.46.43-2,3.1-2,3.4-2a4,4,0,0,1,.63,0c3.23.57,6.54,1,9.74,1.52,7.77,1.14,15.81,2.32,23.39,4.79,6.21,2,9.42,7.22,12.52,12.25,2,3.29,4.13,6.69,7,9a29.4,29.4,0,0,1,5.55,6.51,46.71,46.71,0,0,0,3,4c.38.43.74.91,1.11,1.41.5.68,1.54,2.07,2,2.17,0,0,.08,0,.22-.14.93-.72.52-3.5-.83-5.61-3.36-5.22-6.86-10.49-10.24-15.58l-.1-.15q-2.68-4-5.34-8a13.05,13.05,0,0,1-1-2c-.12-.26-.23-.52-.35-.77l-1.14-2.36,2.58-.48c.3,0,.61-.12.91-.19a12.59,12.59,0,0,1,2.66-.4l4.91,0h.23c2.48,0,5-.06,7.44-.06,3.11,0,5.72,0,8.2.15,9.62.38,9.82,7.79,10,12.7a18.7,18.7,0,0,0,.35,3.92c4.42,16.33,7.84,33.18,11.13,49.48,1.16,5.71,2.3,11.33,3.48,16.94a4.81,4.81,0,0,1-.06,2v2.7Z"/><path class="cls-5" d="M384.18,313.66l.13-1.32c.78-7.88,2.92-15.35,5-22.58.61-2.13,1.21-4.21,1.77-6.29,4.06-15.08,7.82-30.05,11.18-44.48,4.09-17.61,7.62-33.91,10.79-49.83,1.14-5.73,2.1-11.61,3-17.29,1.08-6.56,2.18-13.32,3.57-19.92a16.06,16.06,0,0,1,.78-2.37c.7-1.79.72-2.21.49-2.42a2,2,0,0,0-1.46-.53,13.29,13.29,0,0,0-4.22,1.2c-8,3.25-15.88,7.22-23.48,11.07-4.94,2.5-10,5-15,7.39-22.28,10.33-44.4,21.89-65.78,33.07l-9.55,5c-5.92,3.1-12,5.84-19,9-3.48,1.58-7.14,3.24-11.13,5.09l-1.13.53-2-2.86.88-.89a122.68,122.68,0,0,1,18.07-14.73c2.19-1.54,4.26-3,6.3-4.55a374.19,374.19,0,0,1,69.68-41.74c7.15-3.33,14.11-7.38,20.84-11.3,10.83-6.32,22-12.85,34.51-16.64A7.34,7.34,0,0,0,421,124l.31-.35c-.08-.11-.17-.21-.26-.32a8.14,8.14,0,0,0-2.43-2.38c-4.73-2-9.56-3.88-14.23-5.7-6.9-2.68-14-5.45-20.81-8.58C355,93.55,326.14,79.82,299.09,66.88c-.51-.23-1-.48-1.52-.73l-1.79-.88.76-3.27h23.92l.4.18c15.18,7,31.29,12.5,46.86,17.83l3.66,1.25c7.07,2.43,14.1,5.29,20.9,8,7.86,3.2,16,6.49,24.07,9.11l.87.28a22.21,22.21,0,0,0,6.33,1.43,3.65,3.65,0,0,0,2.8-1c1-1.07,1.57-3.27,1.5-6.35a64.27,64.27,0,0,1,1.4-12.72,65.26,65.26,0,0,0,1.34-11.53c0-1.7.07-3.39.13-4.68l.1-1.89h28l-.1,2.1A61.38,61.38,0,0,1,457,77.32c-.42,1.59-.4,2.73.07,3.39.64.88,2.4,1.42,5.26,1.6,1.42.1,2.88.15,4.34.15,10.57,0,21-2.57,31-5,2.82-.7,5.73-1.42,8.64-2.08a222.55,222.55,0,0,0,40.84-13.17l.39-.17h18.28l.81,3.2-1,.56c-1.75.95-3.4,1.8-5,2.61C542.08,77.44,523,85.34,501.86,94c-11.77,4.81-24,9-35.82,13l-5,1.68a5.83,5.83,0,0,1-1.9.29,16.54,16.54,0,0,1-1.8-.13,11.79,11.79,0,0,0-1.36-.11c-.66,0-.78,0-1,.78-.52,2.26.82,3.48,3.66,5.8l.77.63,4.16,3.44c13.54,11.21,27.51,22.77,40.14,35.34,7.87,7.83,15,16.59,21.89,25.06,3.57,4.37,7.25,8.9,11,13.26,6.93,8,14.09,16.12,21,23.94,3,3.43,6,6.82,9,10.23l.8.91-2,2.73-1.1-.5A62.68,62.68,0,0,1,547.86,219c-6.6-6.07-13.7-11.85-20.56-17.44s-13.9-11.32-20.52-17.4a325.17,325.17,0,0,0-48.46-36.18,29.78,29.78,0,0,1-2.71-2.05c-2.14-1.72-5-4.07-7.12-4.07-.47,0-1.89,0-3.17,3.44-4.15,11.19-7.24,23-10.22,34.5-2,7.69-4.08,15.63-6.46,23.36-2.06,6.67-4.57,13.3-7,19.7-2.91,7.69-5.92,15.62-8.12,23.59a97.47,97.47,0,0,1-5.12,13.37c-1.26,2.83-2.55,5.76-3.61,8.7C401,279,397,289.63,393.16,299.9q-2.51,6.68-5,13.34l-.46,1.23Z"/><path class="cls-3" d="M496.94,1618l.12-2.12c.73-12.11,2.51-24.34,4.22-36.17,1.58-10.86,3.2-22.09,4.08-33.45l.33-4.35,3.08,3.09q4.89,4.92,9.72,9.68l.34.35c9.58,9.5,18.61,18.46,27.31,28a16.67,16.67,0,0,0,1.55,1.4c2.47,2.08,6.6,5.56,3.76,10.94-3.47,6.59-7.28,13.66-11.65,21.61l-.57,1Z"/><path class="cls-5" d="M465.66,81.23a4.55,4.55,0,0,1-3.59-1.42c-.94-1.07-1.26-2.62-1-4.73s.63-4.15,1-6.15c.3-1.72.61-3.5.85-5.2l.24-1.73h62.16l.58,3.47-1.19.42a396.31,396.31,0,0,1-57,15.13A11.5,11.5,0,0,1,465.66,81.23Z"/><path class="cls-3" d="M369.22,811.14c-14.38,0-29-1.82-43.07-3.59l-1.7-.22c-18.29-2.28-36.28-5.26-53.47-8.85a19.49,19.49,0,0,0-2.89-.27c-3.44-.16-8.63-.4-10.82-6-4.81-12.31-9.64-24.62-14.4-36.74l-4.31-11,2.21-.55c9.44-2.36,19.68-3.46,32.2-3.46,7.36,0,14.8.37,22,.73h.14c2.36.12,4.71.24,7.07.34,20.38.91,41.86,4.52,67.59,11.36,6.21,1.65,12.56,3.15,18.71,4.61,18.1,4.29,36.8,8.72,54,17.33a3.72,3.72,0,0,0,1.67.42,3.52,3.52,0,0,0,2.46-1.12c.35-.34.37-.52.37-.52,0-.21-.39-.64-1.12-1.27l-.36-.31c-7-6.46-16-9.91-24.7-13.24-3.08-1.18-6.27-2.4-9.34-3.75-22.33-9.76-46.55-19.79-72.31-27-19.88-5.58-43.08-11.84-66.92-15.47a132.91,132.91,0,0,0-14.82-1.14c-4-.16-8.12-.32-12.14-.78l-2.42-.28.75-2.32c.18-.57.35-1.11.5-1.62.36-1.15.66-2.13,1-3.14,1.15-3,2.25-6,3.36-9.09l0-.13c2.57-7,5.23-14.33,8.33-21.31,1-2.24,2-4.48,3-6.72l.08-.18c5.68-12.94,11.54-26.31,19.34-38.59,4.49-7.06,8.82-14.41,13-21.51,5-8.48,10.16-17.23,15.64-25.6,6.6-10.08,13.81-20,20.78-29.54,3.24-4.45,6.55-9,9.75-13.48.48-.67.82-1.44-.55-2.87l-.2-.19a7,7,0,0,0-.65.68c-.22.24-.44.48-.65.69-2,1.92-4,4-5.74,5.76l-.07.08c-1.64,1.67-3.34,3.4-5,5.07-20.92,20.48-42.84,42.61-60.68,68.13-17.06,24.42-31.27,51.17-43.44,81.79l-1.58,4-2-3.76c-.74-1.37-1.54-2.73-2.24-3.94a65.32,65.32,0,0,1-4.28-8.24c-4.61-11.35-10.7-22.22-16.58-32.73-4-7.08-8.07-14.4-11.71-21.84-6.83-14-15.59-27-24.07-39.64l-1.88-2.81c-2.33-3.47-4.57-7-6.73-10.43-6.82-10.78-13.87-21.92-23.55-30.76-.48-.44-.71-.44-.8-.44a3.54,3.54,0,0,0-1.09.34l-.65.25a4.51,4.51,0,0,0,.36.73,34.54,34.54,0,0,0,2.14,2.88,20.46,20.46,0,0,1,3.76,6c4.88,14.4,12.41,27.84,19.69,40.83,3.44,6.15,7,12.51,10.25,18.91,14,27.56,24.92,56.8,35.47,85.08l2.61,7a3.84,3.84,0,0,1-.14,3.66,3.56,3.56,0,0,1-3.14,1.39c-.33,0-.69,0-1.09-.07a82.86,82.86,0,0,0-10.11-.6c-12.76,0-25.45,2.63-38.42,5.56a213.34,213.34,0,0,0-45.29,16.19,369.84,369.84,0,0,0-35.31,19.42L62,755.19V712.3l.63-.59c17.95-16.94,35.55-30.24,53.79-40.66.35-.2.75-.39,1.16-.6,2.32-1.13,3.6-1.76,2.29-5.29-1.76-4.76-3.93-9.46-6-14-1.81-3.91-3.67-7.93-5.29-12l-1.82-4.59C98,612.46,88.93,589.63,83.26,566c-1.94-8-3.55-16.25-5.11-24.2-1.67-8.51-3.4-17.31-5.51-25.84-3.74-15.11-5.2-30.14-6.74-46.05-.42-4.31-.85-8.7-1.32-13.08l-.39-3.65,3.28,1.65,4.66,2.38.24.12c2.84,1.46,5.29,2.73,7.79,3.89,22.85,10.66,40.25,21.61,54.75,34.45,22.28,19.74,40.67,39.32,56.22,59.88,3,4,6.24,8.18,9.07,11.85,6.89,9,14,18.19,20.57,27.63,3.47,5,7.7,7.87,11.6,7.87s6.37-2.83,7.78-5.2c8.87-14.87,21-27,32.71-38.63a425.3,425.3,0,0,1,104-75.7,8.44,8.44,0,0,1,2-.67l.65-.17,1.94-.6.56,2c.08.27.19.55.29.83a7.29,7.29,0,0,1,.64,3c-.18,3.78-.5,7.62-.81,11.33-.62,7.53-1.26,15.31-.77,22.81,1.57,23.82-4.79,46.69-11.22,65.91-9.05,27.08-20.73,58.75-38.71,88.38-4.56,7.51-6.15,11.76-5.15,13.78.83,1.68,4.06,2.74,10.47,3.45,12.68,1.4,27.5,3.55,41.21,8.82C399,710.3,420.6,721.82,444,737.41c12.09,8.06,23,17.67,33.56,27,5.21,4.58,10.54,9.28,15.92,13.72l.58.41c2.15,1.49,6,4.2,5.45,7.52-.54,3.07-4.45,4.1-5.73,4.43-4.77,1.26-9.59,2.68-14.24,4-8.57,2.53-17.41,5.14-26.46,6.88-24.92,4.81-49.76,7.35-70.77,9.2C378.19,811,373.77,811.14,369.22,811.14Z"/><path class="cls-5" d="M166.67,1222.32c-3.67,0-7.59-3.82-10.74-6.89l-.3-.29c-4.81-4.67-7.12-9.05-7-13.38.11-6.3,5.08-10.79,9.89-15.13a35.81,35.81,0,0,0,6.08-6.35c15.69-24.28,37.21-44.74,56.19-62.79,9.79-9.3,20-19,30.39-29,8.26-7.9,17.19-15.25,25.82-22.36,4.33-3.57,8.79-7.24,13.09-10.92,12.23-10.48,25.78-19,38.89-27.33l4.13-2.61c2.67-1.69,3.49-2.8,3.15-4.23-.71-2.95-3-3.27-6.73-3.46-.82-.05-1.6-.09-2.33-.19-6.72-1-13.7-1.29-20.45-1.6-5-.23-10.07-.46-15.07-.95-13.45-1.3-26.62-2-39.13-2a337.77,337.77,0,0,0-37.13,2,11.83,11.83,0,0,1-1.3.07,8.21,8.21,0,0,1-5.39-1.94l-3.17-2.58,4-.92c2.82-.65,5.69-1.38,8.46-2.08l.12,0a178.73,178.73,0,0,1,19.51-4.19,305.3,305.3,0,0,1,41.81-2.62c9,0,18.86.3,30.12.91,2.15.12,4.4.14,6.58.17,7.07.07,14.39.14,21.48,3.23a.8.8,0,0,0,.29.08,3.55,3.55,0,0,0,.05-2.64c-3-8-6.13-16.2-9.14-24.09-4.93-12.91-10-26.17-14.78-39.33-3.24-8.9-6.25-18-9.17-26.84-2-6-4-12-6-18-.62-1.76-1-4,1.76-5.6l1.74-1,1,1.74.47.79c.33.56.66,1.11,1,1.69q10.26,19.88,20.5,39.79c1.49,2.9,3,5.82,4.43,8.73l.06.11c2.82,5.61,5.72,11.37,8.75,16.91,2.67,4.86,5.51,9.72,8.25,14.41,4.79,8.19,9.75,16.66,13.91,25.38,2,4.16,4.19,6.19,6.72,6.19s5.67-2,8.35-3.79c.63-.42,1.25-.83,1.86-1.21,9.42-6,19.49-10.85,29.24-15.58,6.46-3.14,13.15-6.39,19.53-9.89a250.21,250.21,0,0,1,25.22-11.56c6.74-2.79,13.71-5.67,20.33-9,7.94-4,16.48-6.46,24.52-8.53l1.28-.33,1.34,3.39-1.16.63-20.14,11.07-.6.33c-16.34,9-33.24,18.28-49.91,27.34-3.7,2-7.45,4.13-11.08,6.18-10.26,5.81-20.84,11.79-31.91,16.21-5.27,2.1-8.2,4.33-8.7,6.62-.67,3,2.81,7,6.75,11.18,6.73,7.11,14.88,12.84,22.77,18.39,4.27,3,8.67,6.09,12.83,9.38,16.14,12.79,33.91,23.65,51.09,34.16l2.93,1.79c5.56,3.4,11.12,7,16.49,10.43,2.45,1.58,4.86,3.12,7.26,4.65l1.11.71-1.52,3.28-1.25-.39A249.23,249.23,0,0,1,446,1087.77c-32.79-18.45-58.71-35.9-81.58-54.91a2.16,2.16,0,0,0-.95-.21.94.94,0,0,0-.25,0,3.44,3.44,0,0,0-2.34,3.44c.37,41.21,2.35,82.21,5.86,121.86a137.71,137.71,0,0,1,.17,16.11c-.05,1.56-.09,3.12-.12,4.67a4.18,4.18,0,0,1-1.87,3c-.22.19-.43.36-.59.53l-1.41,1.54-1.47-1.48a4.37,4.37,0,0,0-.46-.37,4.07,4.07,0,0,1-1.85-2.58l-1.51-11.26c-2.24-16.65-4.55-33.86-6.55-50.84-2.66-22.71-5-45.47-6.85-64.74a23.91,23.91,0,0,1,.34-5.82,22.84,22.84,0,0,0,.35-4.52,20.27,20.27,0,0,1,.27-3.79c.45-3.35.38-4.48-.91-5a2.81,2.81,0,0,0-1.07-.22c-1.56,0-3.25,1.56-4.9,3.07a24.47,24.47,0,0,1-3.28,2.68c-8.79,5.58-17.13,11.86-24.92,17.8a434.49,434.49,0,0,0-64.06,60.52c-2.21,2.55-4.44,5.1-6.66,7.64l-.15.17c-10.19,11.65-20.73,23.71-30.22,36.2-8.48,11.17-16.26,23.21-23.77,34.85q-3.3,5.12-6.62,10.19a41.44,41.44,0,0,0-2.84,5.61c-1.6,3.59-3.26,7.3-6.32,9.54a4.76,4.76,0,0,1-2.84.91Z"/><path class="cls-4" d="M398.7,1243.19c.84-3.54,1.72-7,2.58-10.3a191.32,191.32,0,0,0,4.7-21.49,235.92,235.92,0,0,0,2-31.2c0-3.36.11-6.75.2-10,.27-9.42.54-19.13-1.05-28.6a4.39,4.39,0,0,1,1.29-3.28,2.51,2.51,0,0,1,1.94-1.08h.43l.4.18c1.55.67,3.25,1.33,4.74,1.91,4.56,1.77,9.27,3.6,13.16,6.62,2.77,2.14,2,6,1.41,9.42A25.39,25.39,0,0,0,430,1159a97.2,97.2,0,0,1-1.94,14.48c-1.37,7.34-2.79,14.93-1.16,22.42l.17.23,0,0c1-3.33,2.23-6.71,3.41-10,2.74-7.58,5.56-15.38,5.93-23,.15-2.92.59-11.8,7.8-11.8a20.48,20.48,0,0,1,6,1.31,18.9,18.9,0,0,0,4.66,1.13,20.31,20.31,0,0,1,5.56,1.27,28.92,28.92,0,0,0,2.95.88c6.22,1.35,9.86,3.64,11.12,7,1.82,4.89-2.12,10.14-5,14-.77,1-1.44,1.91-1.86,2.61a189.93,189.93,0,0,1-28.54,36.22c-7.55,7.46-16.06,13.73-25.08,20.38l-.09.07c-4,2.91-8,5.92-12.11,9.09l-4.48,3.49Z"/><path class="cls-5" d="M418.66,94.88a9.2,9.2,0,0,1-2.74-.48c-18.64-5.87-35.26-11.72-50.84-17.87-7.53-3-15.57-6.26-26.09-10.69l-1.13-.47.68-3.37h87.25l-.86,16.31c.25,1,.9,4.2-.51,6.65a9.56,9.56,0,0,0-.54,2.92C423.66,90.33,423.25,94.88,418.66,94.88Z"/><path class="cls-3" d="M246.27,820.43c-.19-.15-.41-.28-.63-.42a4.91,4.91,0,0,1-2.35-2.44c-1.87-5.52-3.71-11.12-5.49-16.53-4.11-12.48-8.35-25.37-13.1-37.83-.29-.77-.59-1.53-.89-2.28a56.94,56.94,0,0,1-3.09-9.46c-.38-1.79-1.36-2.94-2.51-2.94a4.12,4.12,0,0,0-2.64,1.39c-11.23,11-20.06,24.93-27,42.69-1.33,3.4-3.55,6.33-6.11,9.72-1.31,1.73-2.64,3.49-4,5.52l-4.15,6.08.5-7.35c.53-7.67,3-13.87,5.29-19.86a64.58,64.58,0,0,0,3.86-12.12c.95-5.43,3.41-10.31,5.78-15,3.49-6.93,6.79-13.48,5.42-21.38-.29-1.65-.41-1.65-1.62-1.65h-.15c-1.45,0-2.91,0-4.38,0-2.84,0-5.69,0-8.53-.09s-5.66-.09-8.48-.09a132.4,132.4,0,0,0-15.88.78c-13.59,1.59-27.34,4-40.64,6.33l-.2,0c-5.85,1-11.9,2.09-17.87,3.06a21.86,21.86,0,0,1-3,.22c-.69,0-1.49,0-2.47.1l-1.21.06-.88-3.28,1.08-.56c18.66-9.59,34.64-16.66,52-20l1.8-.35c15.3-2.92,31.12-6,46.9-7.17.7-.06,1.47-.08,2.42-.08l2.11,0,2,0c5.29,0,6.15-1.08,6.18-3.66,0-4.91-2.49-10.21-4.94-15.33-1.07-2.24-2.18-4.54-3.08-6.82-2.37-6-4.49-12.16-6.54-18.13-4-11.62-8.11-23.62-14.23-34.52a4.57,4.57,0,0,1-.07-3.48,8.4,8.4,0,0,0,.23-1.05l.84-6,2.9,5.31q3.66,6.75,7.32,13.38C192.52,656,198,666,203.42,676.4c3.11,6,6,12.15,8.7,18.14,1.56,3.4,3.13,6.83,4.72,10.16a2.08,2.08,0,0,0,.31.23,11.66,11.66,0,0,0,7.83-6c2.81-6,5.45-12.16,8-18.15,4.43-10.44,9-21.17,14.65-31.14,15.09-26.62,30.82-48,48.07-65.32l.95-.95,2.87,2.28-.7,1.13c-2,3.23-4.07,6.47-6.08,9.61-4.51,7-9.15,14.29-13.14,21.71l-2.76,5.13c-10.12,18.77-20.58,38.17-28.09,58.52-1.84,5-3.93,9.95-5.94,14.75-1.83,4.38-3.73,8.9-5.43,13.41-.72,1.9-.83,3.43-.31,4.18s1.66,1,3.38,1H241c2.17-.09,4.38-.13,6.58-.13,27.95,0,55.08,7.22,81.32,14.21l.17.05c10.65,2.83,21.25,6.29,31.5,9.64,4.65,1.52,9.46,3.09,14.2,4.58l1.84.58-1.46,5.35-1.87-.42-8.76-2c-6.71-1.55-13.64-3.16-20.51-4.51-2.4-.47-4.82-1-7.23-1.48-8-1.68-16.28-3.42-24.38-3.77-10-.44-19.76-.66-28.94-.66-10.23,0-20.2.28-29.63.82-1.1.06-2.26.08-3.45.11-5.72.1-11.64.22-15.17,5-2.48,3.4-1.18,5.33,1.77,9,1.58,2,3.2,4,3.81,6.55A92.66,92.66,0,0,0,245.72,772c3.31,8,6.74,16.21,6.31,25.62-.27,6-.66,12.37-1.17,19.34a4.49,4.49,0,0,1-1.29,2.58,5.21,5.21,0,0,0-.39.49l-1.21,1.8Z"/><path class="cls-4" d="M225.05,1610.92a3.31,3.31,0,0,1-.64-.06c-2.56-.46-5.09-1-7.53-1.56a121.65,121.65,0,0,0-12.32-2.26c-26.76-3-51.68-11-70.4-17.63-20.13-7.14-39.4-16.55-58-25.65L68.47,1560a8.11,8.11,0,0,0-3.44-1,3.66,3.66,0,0,0-.68.06l-2.35.42v-60.77l3.14,2.16c7.28,5,14.47,10.46,21.41,15.7,8.27,6.24,16.76,12.65,25.48,18.47,20.95,14,41.62,27.35,64.07,37.52a8.23,8.23,0,0,0,3.44.58c1.24,0,2.6-.13,3.93-.26l1.48-.14a7.39,7.39,0,0,0-2.12-2.49c-19.44-15.22-36.93-29-54.12-43.53-13.07-11.06-26-22.69-38.54-33.93l-.46-.42q-6.58-5.92-13.2-11.83a22.66,22.66,0,0,1-3-3.49c-.4-.54-.76-1-1.13-1.49L71,1473.89l1.88-1.21c.46-.3.9-.62,1.35-1a15.88,15.88,0,0,1,3.88-2.29c18.9-6.81,36.73-16.74,54-26.35l1.78-1c21.94-12.22,43.92-25.19,65.17-37.74l15.57-9.17a5.13,5.13,0,0,0,2.4-5.5,4,4,0,0,0-1.07-.47c-11.3,4.39-22.62,9-32.36,13-5,2.06-10,4.27-14.94,6.41l-.11,0c-10.45,4.57-21.25,9.29-32.26,12.93l-5.44,1.79c-21.92,7.24-44.58,14.73-66,24.35L62,1449V1402.5l2.17.07c.4,0,1.48-.19,3.68-1.5,4.56-2.71,10.24-6.09,16.23-7.82,15.5-4.46,32.15-8.88,54-14.34l6.92-1.73c14.19-3.57,28.82-7.24,43.4-9.91,10.31-1.88,20.87-3.3,31.07-4.67,8.63-1.16,17.48-2.35,26.13-3.8,1.28-.22,2.65-.56,4.09-.91a34.18,34.18,0,0,1,7.77-1.32,7.46,7.46,0,0,1,5.44,1.89c3.11,3-.45,7.07-3.31,10.37a35.43,35.43,0,0,0-3,3.77c-11.93,19.28-23.14,33.83-35.29,45.79-16.2,16-34.68,29.69-52.54,43q-4.55,3.38-9.07,6.76c-4.85,3.63-10.05,6.88-15.09,10-4,2.47-8,5-11.82,7.67-3,2.08-4.88,4.56-4.76,6.17.07.89.87,1.72,2.38,2.45,11.86,5.82,23.27,13.23,35.89,23.33,27.27,21.81,49.21,41.11,67.68,64.41,2.31,2.91,4.17,5.38,5.87,7.78,1.1,1.57.79,3.88-1,7.29-2.55,4.91-9.34,13.68-13.81,13.69Z"/><path class="cls-3" d="M124.79,922.73v-.62c0-.55,0-1.06,0-1.57.61-8.06.74-16.28.86-24.23s.25-16.14.87-24.25c1.91-25.34,10.08-49,18-71.92l1-3c.28-.8.62-1.62.93-2.33,1-2.43,1.61-4,.81-5.05-.42-.57-1.11-1.16-3-1.16a24.19,24.19,0,0,0-3.65.42l-1.32.21c-14.84,2.16-26.85,4-37.8,5.67-11.75,1.81-23.27,2.06-34,2.06L62,797V763.84l1.22-.51c20.7-8.77,40.13-14.31,59.4-16.93l7.63-1.06c16-2.23,32.46-4.54,48.94-4.54,3,0,6,.08,8.93.23,1.45.08,3.43.19,4.32,1.78s.14,3.06-.7,4.59c-12.17,22.2-19.33,45.88-24.73,66.11-3.55,13.34-6.06,27.24-8.49,40.69q-.71,3.91-1.42,7.83c-.08.4-.19.85-.32,1.34-.23.92-.68,2.64-.34,3.18.11.18.48.28.69.32a3.74,3.74,0,0,0,.78.09c1.47,0,2.32-1.36,3.16-5,3.31-14.52,9.83-27.92,16.13-40.87,1.88-3.85,3.79-7.79,5.58-11.67,4.69-10.13,10.42-20.11,16-29.77,2.23-3.9,4.55-7.93,6.76-11.91a44.69,44.69,0,0,1,5-6.85c.73-.86,1.55-1.84,2.29-2.79l1.81-2.34,1.49,2.55c.41.68,1,1.43,1.51,2.16,1.41,1.9,3,4,2.92,6.42-.1,2.62,1.23,4.71,2.65,6.92,1.26,2,2.7,4.2,3,6.91.48,3.91,2.38,7.76,4.21,11.49,4.13,8.4,8.8,17.91-1.24,30.22-5.55,6.81-10.8,14-15.88,21-11.17,15.38-22.73,31.28-38.33,44.05-4.27,3.49-8.55,7.12-12.69,10.63-10.21,8.66-20.69,17.55-31.94,25.23a9.08,9.08,0,0,1-2.08,1c-.25.09-.48.17-.71.27l-2.82,1.21Z"/><path class="cls-4" d="M62,1475.42v-23.26l6.21-2.54q5-2,10-4.09c13-5.43,26.63-10,39.78-14.43,4.88-1.64,9.88-3.32,14.8-5s10.12-3.41,15.06-5l6.6-2.16,1.19-.39,1.67,3-1,.79a133.32,133.32,0,0,1-21.58,14c-6.7,3.59-13.53,7.18-20.14,10.65-11,5.77-22.3,11.7-33.26,17.81a34.44,34.44,0,0,1-6,2.36c-5.23,1.68-8.65,3-8.65,6.23v2Z"/><path class="cls-4" d="M146.51,1551.82c-16-6.61-28.7-15.53-41-24.15-5-3.54-9.79-6.88-14.77-10.08-8.82-5.65-17.1-12.91-25.12-19.93l-3.66-3.2v-23h4.63v2a9.92,9.92,0,0,0,1.09,4c2.81,6,9,10.91,14.89,15.65,1.78,1.42,3.62,2.89,5.36,4.38,13.71,11.77,27.49,23.29,42.08,35.49l.65.54q8.72,7.29,17.86,15l1,.83-1.85,3Z"/><polygon class="cls-2" points="6 8.83 58 60.83 58 1619.17 6 1671.17 6 8.83"/><path d="M1024,8V1672a8,8,0,0,1-8,8H8a8,8,0,0,1-8-8V8A8,8,0,0,1,8,0H1016A8,8,0,0,1,1024,8Zm-8,1658.34V13.66l-48,48V1618.34ZM962.34,56l48-48H13.66l48,48H962.34ZM13.66,1672h996.68l-48-48H61.66ZM960,1616V903.81c-4.61,5.74-9.32,11.4-14,17-17.07,20.37-34.06,41.11-53.52,59-13.17,12.13-24.58,26.73-40.95,35.4-5.1,2.7-8,0-8.31-3.68A304.56,304.56,0,0,1,846.44,934c2.36-13.74,1.87-27.83,6.23-41.36,5.28-16.41,9.2-33.26,14.38-49.7,5.56-17.66,12.06-35,17.8-52.62,1.64-5,9.84-9.61,4.27-14.52-2.12-1.87-10.42,3.64-16,5.31-19.11,5.67-38.73,8.73-58.36,12.11A423.87,423.87,0,0,1,727.5,799c-23.17-.82-46.41-1.69-69.44-4.19-17.08-1.86-34-5.86-50.75-9.91-8.14-2-4.29-9-1.14-11.6,23.54-19.36,45.37-40.67,70-58.9,31-22.92,65-39.9,100-54.57,22.78-9.55,45.51-21.19,71.09-23.11,2.22-.17,4.26-2.59,6.39-4-1.13-1.41-2.18-2.9-3.41-4.22C832.9,610,821.4,587.66,807.84,566.56c-12.23-19-19.09-40-27.5-60.44-6-14.53-10.58-30.18-11.09-46.28-.6-19.28,4.39-21.82,23.5-14.6,15.61,5.89,31.85,10.1,47.55,15.76,16.52,6,32.79,12.64,49.08,19.23a386.65,386.65,0,0,1,61.34,30.89c3.08,1.94,6.18,3.86,9.28,5.8V64H656.47q-12.4,7.62-24.84,15.17c-16.78,10.2-34.74,18-52.58,26.09-10.76,4.87-20.86,11.14-32.48,14.12-2.07.53-.17,2.36.81,3.38,16.74,17.37,36.22,32.22,50.13,52.15,11.93,17.08,23.81,34.17,34.09,52.48,6.95,12.38,14.76,24.28,20.06,37.52A422,422,0,0,1,671,325.48c2.47,10.57,4.35,21.29,5.87,32,.38,2.64,2.51,7.75-1.2,8.26-3.37.47-7.88-2.08-10.8-4.57-14.23-12.12-29.77-22.31-45.58-32.14-11.48-7.13-22.65-14.84-34.52-21.24-13.94-7.53-28.89-13.2-42.66-21-14.39-8.15-30-13.27-44.75-20.47-4.55-2.22-8.75-5.21-13.42-7.1-3.21-1.29-5.38-2.14-7.36,3.89-6.49,19.7-12.5,39.4-22.2,58.31-15.4,30-34.26,57.53-53.89,84.42a270.06,270.06,0,0,1-62.42,61.19c-1.32.93-2.26,2.36-3.56,3.32-4.36,3.23-9.82,6.37-14.56,4.18-5.47-2.53-1.45-8.39-1.66-12.92-.62-13.15-3.72-26.18-4.3-39.33-.6-13.48.27-27.06,1.15-40.56.82-12.67,2.52-25.27,3.8-37.91,2.48-24.3,3.57-48.76,9.73-72.63,1.57-6.07,1.77-12.5,4.54-18.35.38-.79-.38-2.12-.61-3.19-3,.69-6.24.9-9,2.17-17,7.9-34.51,14.05-52.41,19.58-21.66,6.7-42.8,15.06-64.2,22.62-18.07,6.39-36.15,12.81-54.35,18.83-2.91,1-8.47,1.09-9.4-.45-2.61-4.33-1.73-9.74-.1-14.64,5.74-17.17,12.4-34.16,22.18-49.28,8.06-12.46,15.91-25,26.37-36.31,12.12-13.06,24.38-26,37.43-38,17-15.65,34.35-31,56.77-39.94-23.86-11.64-44.53-26.5-65.24-41.68-12.38-9.08-24-19-35.87-28.6H64V446.17a16.6,16.6,0,0,1,4,1.29c28.61,13.14,56.68,27.26,79.68,49.43,19.61,18.89,38.31,38.32,54.21,60.82,8.47,12,18.53,23.25,26.89,35.6,3,4.4,5,4.14,7.72-.51,13.61-23.23,33.33-41.26,53-58.95,21.07-19,44.76-34.85,69.34-49.14,6.45-3.75,13.4-9,20.24-9.22,14.3-.4,9.07,12.13,9.86,19.81.86,8.3.43,16.76.15,25.13-1,30.28-8.67,58.76-19,87.4-9.64,26.79-21.52,52.08-34.78,77-1,1.88-1.55,4,2,4.08,38.08.58,70.06,18,101.5,36.88,22.42,13.49,41.42,31.18,60.51,48.78a16.17,16.17,0,0,1,4.83,14.08c-.53,3.07-7.14,4.81-11,7-14.35,8-30.24,10-45.5,14.09-9.73,2.62-20.37,1.66-30.34,3.63-22.91,4.54-46.07,4.74-69.09,3.42-18.82-1.09-37.48-5-56.22-7.57a52.41,52.41,0,0,0-6.58,0c17.7,11.6,34.38,23.49,49.2,37.76,16.35,15.75,32.44,31.76,46.2,49.92,2.55,3.35,5,6.81,7.44,10.22,6.76,9.34,11.81-.36,15.84-2.62,17.74-9.93,37-15.51,56.17-21.19,18.16-5.4,36.45-10.84,55.49-13,22.19-2.46,44.32-4.89,66.72-2.45,18.3,2,36.64,3.61,55,5,10,.78,13.38,10.91,6.25,21.86-17.89,27.51-39.92,51.44-64.78,72.78-1.07.92-2.46,1.48-5.77,3.43,3.88,0,5.65,0,7.43,0,21.88,0,43.31,2.53,65,6.13,37.3,6.18,70.6,21,103.21,38.49,5.24,2.81,14.18,6,13.36,11.4-1.06,7.12-10.17,10.19-16.53,13.86a416.87,416.87,0,0,1-86,38c-22.52,6.91-45.33,12.83-68.92,19.45,12.77,12,25.81,24,38.43,36.4,6.72,6.58,13.49,13.3,16.84,22.5.87,2.39-7.46,6.62-12.33,8.08-13.47,4-26.93,7.56-41.09,8-2.76.08-1.84,3.23-1.37,4.45,9.76,25.46,12.62,52.25,16.18,79,.6,4.52,2.92,9.77-1.32,11.66-3.86,1.71-8.71-1.95-13-4-23.82-11.35-44.21-27.55-63.22-45.39a150.4,150.4,0,0,1-34.52-47.45c-3.67-8.12-10.51-5.18-15.47-7.58-2.68,14.91-11.13,27-20.66,38.26-10.5,12.41-21.91,24.07-34.8,34A161.6,161.6,0,0,1,402.69,1251c-8.95,4.82-11.61,13.52-15.05,21.64-5,11.69-11.27,6.6-16.5,1.34-13.47-13.55-26.61-27.35-39.05-42-18.45-21.72-31.39-46-42.49-71.87-7.23-16.89-8.29-35.14-14.47-52.14-1.43-3.94,1.83-8.54-.55-12.28-20.7,20.33-39.76,42.36-58.06,65-7.89,9.76-14,21-22.09,30.55-9.11,10.76-13.46,24.31-22.07,35.14-9.44,11.85-14.16-2.12-19.85-5.33-5-2.82-8.94-9.35-11-15.08-2.25-6.15,4.95-9.7,7.92-14.14a417.9,417.9,0,0,1,48.46-59.19c14.16-14.53,29.14-28.27,43.73-42.38a3.92,3.92,0,0,0,1.22-2c0-.32-1-1-1.65-1.17-14.93-4.08-30.8-6.13-44.62-12.58-25.7-12-50.24-26.48-75.19-40.08a120,120,0,0,1-15.5-9.83c-4.6-3.53-5.18-5.59,1.87-8.49,9.75-4,18.16-11.15,27.52-16.26,17.85-9.75,37.31-15.23,56.68-21.14a373.38,373.38,0,0,1,61.71-13.27c24.23-3.07,3-14.9,3.79-21.58,1.22-10.37-4.82-21.38-6.28-32.32a506.23,506.23,0,0,1-4.54-63.87c-.05-8-4-16-6.29-24-.91-3.17-2.73-3-4.39-.63-9.55,13.48-17.4,28.05-28.39,40.65-10,11.5-19.12,23.74-31.38,33.17-10.92,8.41-21.08,17.85-32.28,25.85-6.27,4.48-13.75,7.66-21.12,10.11-4.72,1.56-5.73-3.66-5.66-6.92.4-18.74.11-37.6,2.15-56.19,2.69-24.61,9.93-48.29,19.35-71.23,1.13-2.76-.21-3.84-2.76-3.36-13.18,2.46-26.26,5.89-39.55,7.24-8,.81-16.56.67-24.33,1.56a78.19,78.19,0,0,1-7.93.43v513c.16.61.32,1.21.47,1.82,2.9,11.35,2.41,23.52,4.8,35,2.3,11.07.9,21.78-.26,32.63-.48,4.46,2.35,5.26,5,3.88,24.13-12.56,50.78-17.29,76.76-23.12,19.52-4.37,39.15-9.32,59.42-11,18.85-1.54,37.49-5.41,56.53-5.85,8.46-.2,9.16,3.83,6,9.41-10.46,18.82-22.24,36.59-36.61,53-23.45,26.68-52.71,45.77-80.91,66.36-4.43,3.22-9,6.21-13.52,9.34-.92.64-1.76,1.39-2.64,2.1,1,1.19,1.72,3,3,3.49,16.94,6.39,29.62,18.94,43.25,30,21.22,17.23,40.9,36,56.56,58.7.49.71,1.39,3.31,3.13.5,19.85-31.93,47.9-55.47,77.77-77.5,14.85-11,29.51-22.05,45.44-31.4,1.93-1.13,3.16-2.41.78-5A541.6,541.6,0,0,1,316.14,1402c-13.78-20.72-24.24-43-34.31-65.29-8.3-18.4-12.82-38.5-18.89-57.9-2.8-9-5.88-17.92-7.56-27.12-.49-2.67-4.58-9.25,2.91-9.78,3.24-.23,6.59,2.53,10,3.48,20.95,5.81,40.09,15.8,59.42,25.4,18.16,9,34.73,20.53,51.64,31.59,17.75,11.6,35.39,23.52,50.15,38.62,16.9,17.28,36.06,32.38,50.71,51.84,3.4,4.51,6.32.5,8.48-1.09,26.55-19.59,56.25-34.45,82.65-54,21.61-16,41.74-34.62,51.79-61.14.75-2,3.33-4.52,5.11-4.57,2.38,0,5.53,1,6.68,4.11,5.81,15.68,8.41,31.67,9.32,48.59,1.22,22.91-3.76,44.48-9.49,65.89-7.35,27.44-18.27,53.61-36.51,76-3.45,4.25-7.09,8.34-10.56,12.58-.42.52-.32,1.48-.46,2.24a17.19,17.19,0,0,0,2.17-.32c28.64-7.55,57.52-4.89,85.89.19,23,4.12,46.4,8.14,67.48,19.51,8.35,4.52,2.86,9-.43,12.53-15.82,17-35.43,27.94-56.43,37.68-20.5,9.51-41.95,15.26-63.12,22.36-11,3.7-22.19,5.67-33,8.2q18.09,17.11,36.29,34.36Zm0-726.37V805.47c-5.25,7.8-11.31,15.15-16.29,23.14-8.77,14.1-17.28,28.33-25,43.1-7.54,14.38-17.91,27.26-26.4,41.19a203.08,203.08,0,0,0-12.78,25.66c-1.42,3.32-3.51,2.77-5.36,2.17-.81-.26-1.55-3.33-1-4.63,4.07-10.37,8.58-20.58,12.68-30.94,6.5-16.42,12.57-33,19.21-49.35,6.45-15.88,12.75-31.86,20.25-47.25,10.67-21.88,22.19-43.36,33.69-64.83l1-1.94V692.87l-52.75,14.2c-19.36,5.22-38.63,10.83-58.12,15.54-14.21,3.43-28.71,5.69-43.08,8.45-23.54,4.52-47,9.15-70.63,13.47A199.13,199.13,0,0,1,714,746.92c-1.47.11-3.08-1.52-4.62-2.34,1.12-1.23,2-3,3.4-3.58q36.15-14.19,72.42-28.06c15.49-5.91,30.95-12,46.67-17.21,23.68-7.92,47.63-15.07,71.38-22.81,19-6.18,37.84-12.7,56.74-19.12v-6.7c-14.44-10.69-26.22-24.24-39.39-36.29-14.83-13.58-27.65-29.06-42.78-42.46-16.29-14.44-30-31.79-44.87-47.84-4.82-5.22-10.26-9.75-12.61-17.07-.78-2.43-1.85-3.19.36-5.33,2.41-2.35,4.55-1.06,6.13,0,25.95,17.89,50,38.14,73.68,58.89,14.57,12.74,28.9,25.8,45.44,36.5,4.81,3.11,9.47,6.47,14,10v-75.8c-1.22-.78-2.44-1.55-3.67-2.3C937.83,514,918.9,503.44,898.83,495c-19.06-8-37.93-16.49-57.23-23.87-15.75-6-32-10.76-48.05-16.09-3.46-1.15-6.85-2.53-10.32-3.64-5.14-1.65-8,.82-5.76,5.39,1.48,3,.55,5.55,1,8.2,4.33,26.91,13.64,52.56,25.31,76.61,11.87,24.45,24.72,49,43,69.86,6.51,7.45,14.56,14.34,18.47,23,2.78,6.2-7.21,7.07-11.23,8.13-23.37,6.12-45.73,14.77-68.19,23.54a512.93,512.93,0,0,0-56.27,26.12A464.74,464.74,0,0,0,670,730.08c-19.08,14.32-35.16,32-54.85,45.44a13.4,13.4,0,0,0-2.42,2.84,8.87,8.87,0,0,0,2.51,1.34c18,2.79,36,5.52,52.39,8,20.38,1.09,39.1,3,57.8,2.83,23.67-.28,47.48-1.06,70.93-4,24.87-3.11,49.44-8.78,74.05-13.79,6.33-1.29,12.42-4.06,18.39-6.67,3.9-1.71,7.75-2.1,11.11,0,4.09,2.54,2,7.45.73,9.87-11.62,22.95-18.31,47.56-25.91,71.94-6.43,20.59-12.53,41.1-15.91,62.48-4.28,27.1-8.09,54.2-7.77,81.72,0,4.22.47,8.43.72,12.64,3.05-2.16,6.5-3.93,9.08-6.56,23.91-24.43,49.28-47.47,70.45-74.53,8.21-10.49,18-19.79,25.94-30.43C958.18,892,959.09,890.83,960,889.63Zm0-99.11V760c-2.86,5.52-5.79,11-8.92,16.36-12.35,21.11-21.72,43.59-31.57,65.86-3.71,8.4-6.86,17.05-10.18,25.61-.21.56.31,1.39.5,2.09,1-.77,2.42-1.33,2.91-2.34,12.37-25.39,28.44-48.44,43.87-72C957.71,793.84,958.86,792.18,960,790.52Zm0-104.7V663.57c-11.13,4.56-22.87,7.35-34.17,11.36-18.16,6.45-36.6,12.14-54.93,18.13-26.64,8.7-53.34,17.27-79.93,26.13a160.73,160.73,0,0,0-26.59,11.53c12.27-2.16,24.59-4,36.77-6.56,13-2.72,25.76-6.23,38.67-9.18,15.53-3.55,31.15-6.67,46.65-10.35q27.49-6.54,54.85-13.74Q950.68,688.42,960,685.82Zm0-48.57v-23c-11.77-8.72-23.49-17.51-34.94-26.64-20.64-16.46-40-34.5-60.07-51.71-4-3.46-8.61-6.31-12.94-9.44l-2.88,3.24c16.18,15,32.67,29.79,48.45,45.26,14.26,14,27.49,29,41.66,43.12C946,624.72,953,631,960,637.25ZM747.61,1030.88a17.69,17.69,0,0,0,3.17-2.8c-1.15-1-2.15-2.31-3.48-3-16.21-7.93-32.26-16.24-48.78-23.49C683,994.82,666.73,990.22,650,986.8c-12.61-2.57-25.1-5.43-38-6.28-18.53-1.21-37.39-5.91-55.09,3.61-7,3.74-13.15,8.84-19.87,13-11.29,7.06-22.71,13.9-34,20.78,62-3.69,122.92,2.38,183.62,13.3-51.23,11.73-103.24,14.42-156.34,20.16,11.63,8.81,23.62,15.46,32.37,25.07,15.11,16.59,31.34,13.47,49.21,7.38,14.3-4.88,29-8.47,43.47-13s29.26-8.47,43.07-14.56C715.33,1048.88,731.3,1039.49,747.61,1030.88Zm-12.25,478.6c.51-.61,1.19-2,1-2.1a10.58,10.58,0,0,0-3.53-2.26c-12.77-3.78-25.48-7.85-38.4-11a256.6,256.6,0,0,0-28.67-4.91c-12.47-1.61-25-3.72-37.52-3.67-14,0-28,2.21-41.94,3.58-3.84.38-7.58-1.09-8.55-4-.74-2.28,1.16-6.16,3-8.42,17-20.84,30.93-43.83,39.58-69,7.62-22.14,14.45-45.18,15.21-68.86.54-16.81-.21-33.94-5.48-50.34-.17-.5-.84-1.27-1.17-1.22a2.66,2.66,0,0,0-1.76,1.11c-18.21,35.56-48.61,58.28-81.73,78.35-19.91,12.07-39.3,25-58.94,37.51-2.13,1.35-4,1.44-6-.84a424.71,424.71,0,0,0-36.37-37.07c-20.39-18.07-40-37.29-63.3-52.15-25.81-16.46-51.5-32.91-79.46-45.51-10-4.52-20-9.2-30.21-13.29-1.34-.53-6.91-2.72-5.95,1.88.75,3.58,1,7.43,2.14,10.85,7,20.8,13.57,41.8,21.88,62.08a421.86,421.86,0,0,0,33.71,64.41c17.17,27.32,38.26,51.43,58.72,76.1,3,3.57-.31,5.28-1.72,6.11-31.44,18.48-59.71,41.09-87.19,65-21.78,18.92-37.09,42.68-53.4,65.81-1.18,1.68-1.66,3.24,1.67,3.26,28.3.21,56.36-2.39,84.49-5.43,23.6-2.54,45.41-11.15,68-16.9,13-3.32,25.14-10.47,37.49-16.27a15.87,15.87,0,0,1,11.57-.76c3.84,1.15,2.57,5.35,2.42,8.32-.6,12.17.51,24.2,1.87,36.22h28.29c-.37-12.39-.13-24.79-.26-37.19-.2-19.24,2.12-38.32,4.44-56.85-15.49,4.5-30.14,9.45-45.14,12.94q-31.41,7.32-61.89,17.62c-12.27,4.16-25.06,6.75-37.43,10.65-7.53,2.38-14.7,5.9-22,9-3.41,1.42-7.35,2.32-9.22-1.29-1.76-3.4,2.67-3.74,4.57-5,18.36-12.2,36.49-25,57-33.32,30-12.24,60.4-23.74,90.68-35.4,3.35-1.29,3.86-1.84,1.33-4.88-13.19-15.89-25.71-32.41-39-48.08-21-24.73-39.15-51.54-59.44-76.73-8.6-10.66-15.9-22.37-23.66-33.69a4.12,4.12,0,0,1-.13-3.64c1.29-2.21,2.69-.13,3.58.58C352,1341.43,363,1354.53,374.7,1367c12,12.82,24.24,25.52,36.77,37.85,18.61,18.33,37.58,36.3,56.39,54.42,6.1,5.88,12.17,11.78,18.27,17.66,1.2,1.16,2.33,1.47,3.77.16,13.7-12.47,27.18-25.21,41.24-37.26,18.72-16,34.77-34.55,51.14-52.83,6.64-7.43,9.06-17.8,17.27-24,1-.78,2-1.58,3-2.37,1.24,1.68,3,3,2.27,5.64-5.68,19.22-15.43,36.55-25.83,53.4-13.66,22.12-29.07,43-47.15,61.89a59,59,0,0,0-7.64,9.56c-2.08,3.37-5.23,6.08-7.91,9.07,4.38.27,8.78.39,13.15.82,12.82,1.28,25.73.67,38.59,1.36,15.31.82,30.7.75,46,2.63,20.06,2.46,40.12,4.94,60.16,7.56,1.14.15,3.09,2.27,3,2.41-1.78,2.78-3.61,7.51-5.8,7.71-14,1.26-27.18,6.66-41.64,6.86-20.65.29-41.24,3.75-61.9,5.41-8.35.66-16.79.12-25.19.19a20.62,20.62,0,0,0-3.27.53,19.88,19.88,0,0,0,2.21,2.89c12.26,11,24.49,22,36.89,32.89,5.43,4.75,10.87,0,16.25-.71,26.6-3.34,51.62-13.06,76.28-22.39C694.38,1539.48,718.41,1529.8,735.36,1509.48ZM669.63,354c-3.36-13.25-5.86-25.17-9.43-36.75-5.37-17.42-10.85-34.86-17.51-51.81-4.05-10.33-10.09-20-15.81-29.54-8.39-14-16.36-28.52-26.26-41.47s-18.74-26.49-31.33-37.53c-12.37-10.84-26.78-20.75-33.6-36.53-3-7.06,6-6.93,9.61-8.76,20.48-10.53,41.53-20,62.16-30.18C618.31,76,628.88,70.17,639.26,64H579.87A124.87,124.87,0,0,1,562.2,74.29C536.87,85.92,512,99,484.41,105.17c-7.13,1.6-14,4.24-21.35,6.49,13.23,11.32,27.18,21.8,39.34,34.05,13.69,13.78,25.79,29.14,38.53,43.86,17.7,20.44,37.21,39.31,53.05,61.36,2.56,3.55,6.74,7.8,3.32,11.24-4.36,4.38-7.62-2.62-10-4.55-28.17-22.44-55.62-45.78-83.6-68.46-16.55-13.43-33.72-26.1-50.59-39.14-2.59-2-3.44-.58-4,1.77a610.49,610.49,0,0,1-21.25,71.1c-6,16.75-10.59,34.05-17,50.65-6.12,15.8-14,30.92-20.71,46.51-5.34,12.36-8.9,25.65-15.5,37.25-5.45,9.6-7.69,21.45-17.49,28.39a9.31,9.31,0,0,1-2.7.88c-.46-1.84-1.76-4-1.25-5.47,5.62-16.67,12.77-32.94,17-49.93,5.09-20.26,13.18-39.53,17.15-60.22,4.93-25.73,14-50.66,18.9-76.39,2.33-12.21,4.4-24.59,6.59-36.9a8.66,8.66,0,0,0-.53-2.84,20.47,20.47,0,0,0-4.55,1.12c-27.2,13.68-54.46,27.24-81.5,41.23-25.91,13.41-51.6,27.27-77.36,41-2.55,1.35-5.87,2-7.1-.33-2.36-4.43,1.62-8.57,4.19-10.5,15-11.27,27.7-25.33,43.76-35.37,11.59-7.24,21.87-16.64,33.69-23.42,17.38-10,35.68-18.34,53.47-27.62,9.32-4.87,18.38-10.21,27.53-15.39a13.48,13.48,0,0,0,2.22-2c-.83-.77-1.53-1.91-2.51-2.26-27.93-10.08-54.46-23.37-81-36.42C309.8,78.29,296.73,71.21,283.71,64H197.29c15.24,12.5,31.12,24.14,47.36,35.39,14.87,10.31,30.71,18.79,46.2,28,10.67,6.34,1.67,12.57-2.87,15.08-33,18.24-60.16,43.48-85.49,70.78-13.79,14.85-24.6,31.89-34,50-6.32,12.2-13.16,23.89-15.86,37.51a9.62,9.62,0,0,1-.77,1.86,15.13,15.13,0,0,0,3.25-.39c24.06-8.42,48.35-16.25,72.06-25.58,13.46-5.29,27.2-10.23,40.77-14.7,14.84-4.88,29.67-10,44.43-15.16,8.48-3,16.67-6.23,25.79-7.24,5.24-.57,5.23,2.06,4.7,4.91-5.1,27.79-9.37,55.62-12.47,83.78-3.23,29.49-5.15,59-7,88.57-.68,10.95,3.31,22.14,3.13,33.19-.08,4.91.46,9.62.91,15.62,18-14.34,35-28.66,49.07-46.14,12.42-15.48,24.87-31,36.17-47.29,16.31-23.53,31.65-47.77,42.14-74.59,5.39-13.79,9.74-28,14.22-42.14,3.2-10.08,9.27-10.91,17.14-5.78,20.4,13.3,43.87,20.07,65.36,31,21.17,10.79,42.34,21.24,62.11,34.89C631.68,328.09,650.13,340.05,669.63,354Zm-23.44,678.3c0-.31,0-.63,0-.94-19.78-2.09-39.51-4.92-59.34-6.11-32.07-1.93-64.17-.56-96.23,1.21-.5,0-1,.49-1.47.75a7.21,7.21,0,0,0,1.29,1.66c18.75,13.2,39.78,13.59,61.47,11.36,20.59-2.11,41.25-3.55,61.89-5.27Q630,1033.59,646.19,1032.28Zm-6.51-148.79c1.32-2.21,1.18-2.27-1-2.43-17.5-1.31-35-3.27-52.5-3.84a537.64,537.64,0,0,0-65.68,1.55c-18,1.61-35.79,6.09-52.26,11.5-22.53,7.4-46.25,13.25-66.86,26.25-5.49,3.46-11,6.89-17.07-1-10.7-13.91-22.21-27.25-34.09-40.18-21.15-23-45.59-42.34-70.82-60.65-5.37-3.9-11.1-10.44-16.59-10.37-10.4.15-5,10.42-5.95,16-4.26,23.92-2.3,48.13.67,71.9s9.07,47.18,13.58,70.78c.4,2.08-.37,6.22-1.28,6.43-15.26,3.5-30.78,6-45.95,9.81-20.26,5.12-40.64,10.2-60.27,17.24-15.63,5.59-30.26,14-45.23,21.37-2.28,1.12-6.41,2.4-.39,5.44,12.35,6.24,24.41,13.11,36.29,20.21a288.4,288.4,0,0,0,68.62,30.29c15.13,4.35,27.22,8.63,41.5-4.16,18.64-16.7,37.47-33.77,60.87-45.74-16.1-4.49-31.87-1.89-47.28-3.92-20.09-2.65-40.23-.07-60.29,1.25a332.21,332.21,0,0,0-38,4.49c-4.46.81-10.53,3.24-12.15-.17-2.41-5.08,3.49-8.53,7.7-10.44,27.27-12.35,56.08-17.39,85.88-19.36,22.17-1.47,44.05.62,66,1.64,3.49.16,1.87-2,1.67-2.3-4.83-7.22-6.42-15.64-9.19-23.66-3.76-10.87-8.81-21.3-12.55-32.18-7-20.38-15.34-40.32-19.55-61.62-2.06-10.46-7.28-20.28-6.5-31.32a9,9,0,0,1,1.71-3.73,3.86,3.86,0,0,1,2.21,1,87.55,87.55,0,0,1,6.88,10.34C300.1,870,308,886.4,316.38,902.54c14.88,28.71,29.84,57.39,45.24,85.82,1.74,3.2,3.55,11.13,8.86,7.75,14.53-9.22,29.93-16.6,45.15-24.46,27.4-14.15,56.27-24.89,84.71-36.59,14-5.74,28.12-11.64,43.8-11.43,1.83,0,4.15-1.65,5.28.3.46.81-1.19,3.73-2.56,4.56-8.21,5-16.51,9.85-25,14.36-23.66,12.57-47.48,24.87-71.15,37.43-23.24,12.34-46.38,24.88-70.67,37.92,10.3,7.71,19.37,15.46,29.36,21.74,17.1,10.74,31.58,25.1,49.68,34.48,13.16,6.81,25.25,15.69,38.46,22.37,21.6,10.92,41.56,25.1,64.81,32.86,2.44.81,5.8,3.66,4.55,7.74a2.91,2.91,0,0,1-2.44,1.48c-16.32-4.64-33-8.36-48.78-14.42-21.31-8.18-41.74-18.62-62.9-27.25-13.67-5.56-25.59-13.93-37.86-21.64-16.18-10.15-31.51-21.66-46.62-32.18,0,9.5-.41,19,.08,28.52,1.35,26.13,3.84,52.23,4.44,78.37.53,23,1.27,46.21-1.83,69.2-.19,1.41,1.49,4.34-1.63,4-2.44-.24-5.83.13-6.45-4-2.76-18.25-10.43-35.26-12.41-53.89-2.71-25.43-8.25-50.55-11.23-76-1.58-13.42-.3-27.16-.36-40.76,0-2,1.26-4.85-3.2-2.2-15.56,9.23-29.77,20.33-43.38,32-4.18,3.6-12,6.13-11.07,13.39,4,29.85,11.7,58.8,24.88,86,17.65,36.4,44.71,65.46,74.07,92.54,8.7-16.47,14.21-34.22,18.65-52.27,6.37-25.93,5-52.26,3.44-78.62-.17-3.06-5.05-14.48,7.48-9,10.94,4.82,21.66,10.41,33,13.88,20.46,6.23,41.55,10.41,62,16.77,22,6.84,44.43,5,66.78,5.66,21.7.64,42.41-5,63.17-10.25,1.21-.31,2.22-1.52,3.23-2.42.16-.14,0-1-.3-1.28-10.24-9.15-20.85-17.92-30.7-27.47A641.89,641.89,0,0,0,535.3,1066c-16.3-11.77-32.89-22.65-51-31.34-3.2-1.54-10.64-4.83-3.94-10.28a211.79,211.79,0,0,1,27.43-19c22.82-13.18,44.77-27.54,64.79-44.69C598.73,938.25,621.91,913.23,639.68,883.49Zm17.09,634.09c-8.59-.84-17.16-1.83-25.76-2.49-25.48-1.94-50.94-4.6-76.45-5.26-13.74-.36-27.69-3-41.56.92-3.58,1-9.74,2.61-11.68-3.18-1.87-5.6,3.5-8.7,6.75-11.71,13.88-12.84,24.67-28.3,36.77-42.62,6.57-7.78,12.71-16,18.66-24.22,4.38-6.09,8.12-12.63,13.63-21.3-11.15,10.66-20.5,18.9-29,27.91-14.49,15.31-31.69,27.58-46.72,42.12-12.95,12.53-20,9-30.73-2.9-18.95-21.08-39.23-41.09-61.59-58.75-1.21-1-2.07-2.36-4.3-3,1.3,2.25,2.32,4.74,3.95,6.73q30.14,36.8,60.49,73.39c2.37,2.84,1.69,3.81-1.15,5-30.1,12.88-59.88,26.58-90.44,38.23a122.34,122.34,0,0,0-25,12.7c10.51-3,21-6.25,31.53-9,17.22-4.54,34.56-8.58,51.73-13.25,14.5-3.95,28.83-8.55,43.26-12.74,1.76-.51,4.41-1,5.45-.15a7.12,7.12,0,0,1,1.95,5.62,311,311,0,0,0-3.51,54.71c.36,13.89,0,27.79.11,41.69h7.64q3.79-25.87,7.64-51.73c1.38-9.15,3.07-18.25,4.54-27.39.84-5.21,3.84-3.75,5.88-1.47,14.6,16.32,30.57,31.31,44.59,48.25,9.58,11.58,20.78,21.85,31.67,32.34h29.68q-21.9-19.86-43.81-39.71c-15.07-13.58-30.41-26.87-45.54-40.39-1.72-1.55-2.82-3.8-4.21-5.72,2.47-1.08,4.89-3,7.42-3.11,15.75-.93,31.54-1.17,47.29-2.2C602.85,1523.12,629.79,1521,656.77,1517.58Zm-56-259.67a3.2,3.2,0,0,0,.1-1.34c-4.66-22.16-8.67-44.49-14.58-66.31-1.31-4.84,1.9-14.73-8.46-15.14-6.88-.28-13.79-.08-20.68,0a19.34,19.34,0,0,0-3.23.56,22.11,22.11,0,0,0,1.24,2.54c5.23,7.94,10.55,15.81,15.69,23.8,1.69,2.63,2.51,6.63.36,8.28-2.59,2-4.42-1.86-6-3.71-2.89-3.29-4.91-7.56-8.25-10.21-7.59-6-9.46-17.82-18.92-20.9-10.52-3.43-21.87-4.3-32.86-6.24-.57-.1-1.67.17-1.73.44-.21.9-.45,2.19,0,2.8,6.48,8.57,13.51,16.76,19.54,25.63,9.75,14.33,23.73,24.38,37.18,34.09C573,1241.47,584.82,1253,600.8,1257.91ZM548,1616h26.7l-15.25-14.25c-3.19-3-2.49-2.78-6.53,5.12C551.35,1610,549.7,1613,548,1616ZM564.65,64H548a225.85,225.85,0,0,1-41.21,13.29c-14.74,3.35-29.09,8.07-44.58,7-5.63-.37-8.58-2-7.13-7.51A60.51,60.51,0,0,0,456.71,64h-24c-.08,1.52-.14,3-.13,4.55.07,8.07-2.93,16.18-2.74,24.23.29,13-9,9.19-14.11,7.54-15.26-4.91-29.83-12-45-17.17C353.6,77.28,336.47,71.57,320,64H297.73c.74.36,1.48.73,2.22,1.08,28.07,13.42,56.16,26.8,84.43,39.8,11.43,5.26,23.38,9.36,35,14.26,1.85.79,3.09,3,4.62,4.61-1.65,1.52-3.05,3.85-5,4.43-20,6.08-36.39,19.15-55.09,27.84a371.1,371.1,0,0,0-69.31,41.52c-7.24,5.53-15.22,10.06-24.16,19.1,12.07-5.62,21.24-9.48,30-14.07,25-13,49.82-26.23,75.41-38.1,12.91-6,25.33-13.12,38.6-18.49,2.73-1.1,5.71-2.24,7.8-.28,1.86,1.74-.19,4.34-.68,6.66-2.59,12.31-4.14,24.85-6.6,37.19q-5,25-10.8,49.89Q399,261.81,393,284c-2.53,9.39-5.71,18.61-6.69,28.55,5.55-14.91,11.21-29.78,16.61-44.74,2.66-7.39,6.54-14.16,8.68-21.92,4.07-14.72,10.63-28.73,15.14-43.35,5.93-19.22,9.74-39.18,16.72-58,3.88-10.45,12.1-.71,15.93,1.68a328.54,328.54,0,0,1,48.75,36.41c13.22,12.13,27.88,22.69,41.08,34.84a61,61,0,0,0,16,11c-10-11.38-20.16-22.69-30.07-34.18-11-12.72-20.94-26.41-32.8-38.21-13.85-13.78-29.1-26.17-44.16-38.66-3-2.52-6-4.52-5.11-8.42s4.9-1.44,7.33-2.27c13.63-4.65,27.33-9.18,40.65-14.62,19.73-8.06,39.47-16.19,58.58-25.56C561.36,65.75,563,64.89,564.65,64Zm-15,1530.42c2.66-5-2.86-7.7-5-10.06-11.74-12.85-24.33-24.92-37.31-37.95-1.84,23.93-6.9,46.56-8.29,69.59h39Q543.95,1605.26,549.68,1594.42ZM524.06,64H464.91c-.51,3.69-1.34,7.5-1.84,11.35-.45,3.38.95,4.33,4.28,3.7A391.58,391.58,0,0,0,524.06,64ZM493.31,788.53c9.63-2.53.27-7.8-1.06-8.89-16.42-13.53-31.42-28.64-49.32-40.57-20.87-13.88-42.54-26.08-65.75-35-12.81-4.93-26.95-7.18-40.71-8.7-14.31-1.58-16.05-5-6.81-20.26,16.76-27.62,28.4-57.7,38.52-88,6.9-20.63,12.62-42.42,11.12-65.15-.74-11.37,1-22.91,1.58-34.37a10.64,10.64,0,0,0-.85-3.15,13.17,13.17,0,0,0-2.26.7,421,421,0,0,0-103.5,75.35c-11.94,11.9-23.73,23.7-32.4,38.23-5.56,9.33-15.57,7.78-22.74-2.55-9.36-13.48-19.69-26.3-29.6-39.41C173,534.92,154,515.31,133.58,497.19c-16.17-14.32-34.75-25-54.27-34.14-3.86-1.8-7.62-3.83-12.74-6.41,2.19,20.3,3.28,39.75,8,58.86,4.1,16.54,6.63,33.48,10.62,50,6,25.08,15.73,48.89,25.2,72.84,3.49,8.81,8,17.16,11.35,26.08,2.24,6.07-2,7-4.34,8.32C97.82,684,80.28,697.81,64,713.17v38.41a368.86,368.86,0,0,1,35.5-19.52,214.66,214.66,0,0,1,45.72-16.34c15.89-3.59,32.46-7,49.21-5,2.18.26,3-.36,2.26-2.29-11.61-31-22.9-62.19-38-91.88-10.12-19.93-22.8-38.6-30-60-1.06-3.11-3.87-5.6-5.7-8.49a19.86,19.86,0,0,1-1.43-3.8c2.07,1.41,3.81-2.22,6.65.37,13,11.86,21,27.29,30.59,41.56,9.27,13.83,18.7,27.58,26.09,42.68,9,18.44,20.58,35.57,28.34,54.7,1.64,4,4.13,7.74,6.43,12,11.77-29.61,25.95-56.85,43.66-82.2s39.05-47,60.92-68.41c3.66-3.59,7.17-7.34,10.85-10.91,1.14-1.11,2.31-3.27,4.35-1.13,1.52,1.59,2.14,3.43.73,5.41-10.19,14.3-20.88,28.28-30.49,43-10.05,15.36-18.79,31.58-28.64,47.08-9.08,14.3-15.42,29.88-22.24,45.23-4.4,9.92-7.84,20.26-11.7,30.43-.53,1.4-.93,2.85-1.51,4.66,8.8,1,17.92.54,27,1.93,22.85,3.48,44.93,9.28,67.16,15.52,25.08,7,48.92,16.77,72.57,27.11,11.78,5.15,24.77,8.3,34.6,17.35.81.75,3.56,2.61,1.16,5a5.32,5.32,0,0,1-6.43,1.07c-22.89-11.43-48-15.32-72.38-21.8-22.12-5.88-44.47-10.28-67.17-11.29-20.16-.9-40.57-2.74-60.84,2.32,5.87,15,11.89,30.28,17.88,45.61,2.29,5.85,8.39,4.23,12.26,5q26.42,5.52,53.31,8.83c19.18,2.4,38.38,4.93,57.47,3.25,23.59-2.08,47.17-4.66,70.57-9.17C466.63,796.75,479.79,792.09,493.31,788.53Zm3.58,157.08c-8.26,2.12-16.54,4.56-24.12,8.38-14.86,7.49-30.76,12.42-45.49,20.53-16,8.79-33.08,15.56-48.67,25.41-6,3.78-13.71,10.7-19.79-2-6.52-13.63-14.83-26.41-22.11-39.69-4.65-8.48-8.84-17.2-13.27-25.8q-10.23-19.9-20.5-39.79c-.42-.82-.92-1.59-1.38-2.39-1.35.79-1.45,1.6-.88,3.22,5.15,14.91,9.81,30,15.2,44.8,7.73,21.22,16,42.25,23.91,63.4,1,2.67-.14,6.33-3,5.09-8.9-3.87-18.42-2.74-27.37-3.23-23.81-1.3-47.8-1.58-71.55,1.69-9.41,1.3-18.62,4.13-27.91,6.27a6.48,6.48,0,0,0,5.21,1.43c25.55-2.84,51.09-2.52,76.67,0,11.85,1.15,23.87.86,35.62,2.56,3.34.48,9.35-.53,10.71,5.16.75,3.1-1.78,5-4,6.39-14.68,9.31-29.41,18.31-42.79,29.77-12.93,11.06-26.5,21.41-38.83,33.2q-15.17,14.54-30.39,29c-20.32,19.32-40.67,38.87-55.89,62.43-5.77,8.93-25.81,16.25-9.21,32.34,3.31,3.22,8.32,8.25,11.3,6.08,4.2-3.06,5.53-9.83,8.67-14.62,9.95-15.2,19.5-30.72,30.47-45.16,11.61-15.28,24.51-29.6,37.11-44.11a434.68,434.68,0,0,1,64.36-60.8c8.16-6.23,16.4-12.4,25.06-17.9,3.5-2.22,6.61-7.51,11.08-5.69,4.1,1.68,1.66,6.9,1.88,10.53.2,3.4-1,6.9-.7,10.26,2.12,21.59,4.32,43.17,6.85,64.71,2.44,20.72,5.29,41.38,8.05,62.06.09.67,1.14,1.21,1.74,1.81.67-.73,1.91-1.44,1.93-2.17.13-6.85.57-13.75,0-20.56q-5.4-60.9-5.87-122a5.46,5.46,0,0,1,3.56-5.3,3.75,3.75,0,0,1,3.26.49C391,1052.31,418.49,1070,447,1086a245.92,245.92,0,0,0,47.54,20.75c-7.9-5-15.73-10.17-23.72-15.06-18.53-11.34-37.08-22.51-54.22-36.09-11.86-9.39-25.3-16.85-35.81-28-7.32-7.75-13.16-14.72,2.66-21,14.86-5.93,28.64-14.61,42.78-22.29C449.85,971.52,473.35,958.53,496.89,945.61ZM466,1178.43c3.06-5,15.71-16.56-3-20.61-2.75-.6-5.41-2-8.15-2.1-6.45-.24-15.61-8.73-16.41,7.46-.55,11.3-6.05,22.37-9.44,33.51-.27.88-1.28,1.54-1.95,2.3-.72-.89-1.88-1.69-2.09-2.68-2.77-12.72,2.64-24.84,3-37.39.12-3.91,2.5-9.4-.12-11.43-5-3.87-11.54-5.72-17.49-8.29-.13-.06-1.37,1.41-1.27,2,2.19,13,.94,26,.88,39a239.64,239.64,0,0,1-2.06,31.46c-1.44,10.41-4.62,20.58-7.31,32,13.27-10.33,26.31-18.71,37.1-29.38A186.62,186.62,0,0,0,466,1178.43ZM316.39,1616H437.73a214.12,214.12,0,0,1-.83-32.65,19.42,19.42,0,0,0-.75-4.13c-1.38.58-2.82,1-4.14,1.75-17.34,9.29-35.65,16.24-54.39,22-10.61,3.27-21.25,6.92-32.15,8.72C335.79,1613.32,326.1,1614.78,316.39,1616ZM423.68,64H339.77c8.65,3.64,17.32,7.23,26.05,10.67,16.65,6.58,33.62,12.44,50.7,17.82,7,2.19,4.43-5.52,6.17-8.53,1.22-2.12.23-5.51.23-5.44C423.19,73.37,423.44,68.57,423.68,64Zm-50,683,.45-1.65c-15.19-4.77-30.24-10.11-45.61-14.2-28.65-7.63-57.38-15.3-87.48-14.06-6.18.25-7.35-3.15-5.56-7.91,3.57-9.47,7.86-18.66,11.36-28.14,8.24-22.32,19.76-43.06,31-63.91,5.81-10.81,12.81-21,19.28-31.42-19.24,19.32-34.5,41.52-47.75,64.9-8.86,15.62-14.89,32.84-22.58,49.15a13.66,13.66,0,0,1-9.52,7.2,2.74,2.74,0,0,1-2.19-1.31c-4.51-9.43-8.61-19.07-13.43-28.33-7.7-14.79-15.86-29.32-24.06-44.39-.18,1.28-.8,2.56-.4,3.27,9.38,16.69,13.9,35.28,20.89,52.89,3,7.61,8.24,15.31,8.16,22.91s-8.3,5.18-14.55,5.66c-16.26,1.26-32.41,4.42-48.48,7.49-17.79,3.39-34.13,10.88-51.44,19.78,2.72-.14,4-.08,5.3-.29,19.59-3.21,39.1-7.14,58.8-9.45,12.34-1.45,25-.4,37.47-.65,2.61,0,3.36,1,3.77,3.31,2.46,14.22-8.94,24.21-11.2,37.09-1.77,10.09-8.25,19-9.12,31.78,4.19-6.14,8.06-10.1,9.92-14.84,6.37-16.3,14.9-31.12,27.46-43.39,3.86-3.76,7.61-1.69,8.51,2.57s2.44,7.63,3.89,11.44c6.83,17.9,12.46,36.26,18.61,54.42.28.82,1.54,1.31,2.34,2,.47-.7,1.3-1.37,1.35-2.1.47-6.42.87-12.85,1.16-19.28.65-14.28-8.06-25.85-11.2-39-1.42-6-10.64-9.85-5.24-17.23,4.92-6.71,13.5-5.58,20.12-6a584.76,584.76,0,0,1,58.77-.16c10.69.47,21.32,3.22,31.91,5.29C354.21,742.4,363.94,744.8,373.71,747ZM254.88,1371.55c2.48-4,9.15-9.23,6.62-11.65-3.16-3-10.17-.05-15.59.87-19,3.2-38.23,5-57.17,8.47-16.87,3.08-33.52,7.45-50.19,11.61-18,4.51-36,9.18-53.91,14.32-5.54,1.6-10.76,4.64-15.77,7.62-2.15,1.28-3.72,1.82-4.87,1.78V1446c23.22-10.45,47.43-18.22,71.6-26.22,16.1-5.33,31.47-12.85,47.18-19.33,10.84-4.46,21.69-8.89,32.62-13.13.86-.33,3.22.77,3.43,1.57a7.09,7.09,0,0,1-3.25,8.07c-26.84,15.79-53.58,31.79-80.78,46.94-18.17,10.12-36.35,20.38-56,27.47-1.75.63-3.23,2-4.83,3a39.2,39.2,0,0,0,3.91,4.75c17.33,15.45,34.44,31.15,52.16,46.14s35.85,29.23,54.06,43.49a10.1,10.1,0,0,1,3.7,5.91c-4.2,0-9,1.37-12.49-.21-22.74-10.3-43.55-23.81-64.35-37.68-16.19-10.8-31-23.21-46.92-34.18v54.57a8.78,8.78,0,0,1,5.34,1.07c21.5,10.45,42.76,21.25,65.49,29.3,22.9,8.12,45.81,14.83,69.95,17.53,6.72.75,13.3,2.63,20,3.84,4,.73,15.61-14.71,13.44-17.79-1.86-2.63-3.81-5.18-5.81-7.7-19.44-24.53-43.08-44.67-67.36-64.09a192.24,192.24,0,0,0-35.52-23.09c-6.88-3.37-2.23-9,2.11-12.06,8.77-6.14,18.3-11.24,26.86-17.65,21.05-15.77,42.61-31,61.41-49.55C233.58,1403.48,244.78,1387.87,254.88,1371.55ZM227.65,821.14c13.59-16.67-1.78-27-3.4-40.2-.63-5.05-5.93-8.29-5.7-14.15.09-2.44-2.68-5-4.15-7.5-2.41,3.11-5.26,6-7.14,9.39-7.67,13.81-16.13,27.42-22.66,41.55-7.83,17-17.35,33.56-21.58,52.15-.76,3.33-2,7.38-6.31,6.45-3.85-.82-2-5-1.58-7.16,3-16.29,5.69-32.7,10-48.68,6.12-22.94,13.41-45.58,24.91-66.55,1.61-2.94.76-3.26-2-3.41-22-1.18-43.49,2.4-65.12,5.35-20.57,2.8-40,8.8-58.89,16.79V795c12.44.06,24.86-.12,37.24-2q18.9-2.94,37.82-5.67c3.43-.5,7.65-1.66,9.86,1.32,2,2.68-.35,6-1.46,9.22-8.35,24.24-16.93,48.24-18.91,74.39-1.22,16.2-.49,32.35-1.73,48.47,0,.69,0,1.39,0,2.08a14.08,14.08,0,0,0,2.44-1.07C145,910.92,159,898,173.72,885.93,196.2,867.54,209.91,842.91,227.65,821.14ZM64,1616H219.73c-13.21-1.39-26.47-2.5-39.38-5.27-16.28-3.48-32-9.42-47.91-14.69C114.55,1590.1,97.6,1582,81,1573c-1.9-1-3.47-2.65-5.26-3.9-9.1-6.3-11.2,1.66-11.76,6.18Zm69.76-181.39A132.5,132.5,0,0,0,155,1420.79c-7.21,2.38-14.46,4.67-21.63,7.17-18.21,6.32-36.7,12-54.47,19.42-5,2.07-10,4.08-14.93,6.12v40c9.07,7.91,18.1,16.1,27.86,22.36,17.33,11.12,33.19,24.88,55.41,34.06-21.7-18.22-41.3-34.44-60.6-51-7.47-6.41-16.87-12.37-20.76-20.7a11.67,11.67,0,0,1-1.28-4.85c0-7,10.4-7.38,15.71-10.34C98,1453.26,116,1444.15,133.76,1434.61ZM110.43,668.52c2.12-1.18,2.59-2.79,1-6.21-7.41-16.06-14.29-32.41-20.38-49-5.87-16-11.25-32.3-15.52-48.81-4.38-16.89-7.5-34.14-10.5-51.34q-.55-3.22-1-6.45V702A257.5,257.5,0,0,1,110.43,668.52ZM56,1618.34V61.66l-48-48V1666.34Z"/></svg>