<svg xmlns="http://www.w3.org/2000/svg" xmlns:xlink="http://www.w3.org/1999/xlink" viewBox="0 0 976 1600"><defs><style>.cls-1{fill:none;}.cls-2{fill:#f4f3ef;}.cls-3{clip-path:url(#clip-path);}.cls-4{fill:#50b271;}.cls-5{fill:#d81e1e;}.cls-6{fill:#592116;}.cls-7{fill:#992d17;}</style><clipPath id="clip-path"><path class="cls-1" d="M960,22V1578a6,6,0,0,1-6,6H22a6,6,0,0,1-6-6V22a6,6,0,0,1,6-6H954A6,6,0,0,1,960,22Z"/></clipPath></defs><g id="Paper_Backing" data-name="Paper Backing"><path class="cls-2" d="M960,22V1578a6,6,0,0,1-6,6H22a6,6,0,0,1-6-6V22a6,6,0,0,1,6-6H954A6,6,0,0,1,960,22Z"/></g><g id="Wikipedia_Cropped" data-name="Wikipedia Cropped"><g class="cls-3"><path class="cls-4" d="M567.09,1432.72c-57.76,0-124.55-2.68-181.1-19.93-7-2,1.59-14.61-8.54-14.33-40.17-2.47-79.34-20-111.42-45.41-5.67-12.58-20-5.19-11.11,8.54-15.67,9.61-46.32-18.25-66.54-27.11-71.81-43.43-134.25-103.56-185.47-165.63C-5,1177.09-20.84,306.78,9.19,337.48c.39,6.95,16.71,8.6,18.62,1.45,67.27-19.09,146.81-12.35,216.1.85,14.46,3.25,28.87,9.6,45.36,20,5.73,4.71,7.86-5.08,12.83-3.88,89.61,23.47,156.65,91.27,202.42,168.79,134.19,222.16,145.56,494.68,128.88,746.73,3.1,42.56.12,94.26,17.79,132C691.26,1442.31,589,1429,567.09,1432.72Zm192.81-72.24C789,1174.91,744.51,966.59,759,772.85,754,603,767,370.41,962.8,315.67h0c3-1.31,5.12,2.08,8,1.93,3.41-1,8.82-3.06,9.17,2.55-3.86,123.09,7.47,789.59-4,925.38-4.34,0-9.15-1.82-12,2.75C908.09,1300.93,841.44,1361.18,759.9,1360.48Z"/><path class="cls-5" d="M0,1604c-5.95-97.86-8.84-343.92,0-438.26,27.91,41.22,68.2,79.43,102.77,114.39A324.24,324.24,0,0,1,172,1329c8.23,6.12,22.52,7.75,28.09,17.87,26,12.13,60.21,22.64,83.72,39.8,32.89,7.1,70.47,17.3,96.75,35.92,23.48,0,49.47-4.17,70.87,11.31,66.14-6.83,133.79,8.9,199.64-6.46,24.94-3.51-7.08-24.59-2.54-37.94-5.26-14.55-5-29.7-8.29-44.19-3.28-10.68,2.15-21.58-2.84-31,2.71-36.79-4.8-77.8,8.92-111.8a6,6,0,0,0-1.51-8.12c-3.81-6.48-.65-16.11-.89-23.71-1.07-8.37,9.71-18.42,2.63-25-4.86-14.93-4.68-36,.67-50.9,3.73-5.52-4.45-8.81-2.82-14.37,3.63-10.73-5-24.06.84-34.62-8.77-74.94-13-148.7-25.95-224,3.09-15.26.58-10.53-6-23.16C610,773.88,600,749,598.19,724.79c-14.18-32.62-23-69.81-38.94-100.7-12.09-40.09-39.48-71.47-45.89-107.43-10.09-13-27.24-20.09-19.27-35.32-15-12.77-37.12-19.21-40.68-37.9-28-21.72-54.6-53.07-90.59-67-59.15-32.58-116.81-38.16-176.91-53-2.72-3.64-7.59-2.28-10.69.17-9,5.27-22.86,1.78-33.06.7-31.84-5.77-64.49,6.13-96.6,6.45-6.66-.16-13,1.25-19.8,2.8-4.56-.25-4.19-7-9.27-6.6-5.43-.17-7.28,6.66-7.24,10.85.34,5.11-6.25,3.81-9.25,4C-11.3,342.72-.26,4-4,0,302.89-11.6,663.9,0,976-4c12.72,56.06-.85,247.37,4,312.13-.91,7.71-8.22,1.47-11.85,1.69-24.78,14.91-49.7,17.21-78.44,35.38-64.93,37.92-101.58,109.78-114,180.35-.07,19.89-15.85,36.62-14.46,53.07,3.93,18.12-2.82,38.82-2.8,57.65C760,648,755,656.2,751,664.71c11,9.43,1.47,22.72,3.92,35.82-3.43,22.8,6.93,54.13-5,72.71-8.4,7,4.1,9.41,5.12,14.77-5.24,33.9,4.6,69.12-5.55,101.6-3,4.77,3,7.39,3.45,11.7,2.65,7.51-1.35,20.61-3.13,26.24-2.62,4.54,2.4,7.25,3.22,11.58,6.14,10-1.91,16.89.23,25.31,8.5,12.22-2.1,22,1.91,32.08,4.86,10.91,4.17,23.75-.49,34.16,14.07,33.28-3.31,37.17,4.62,52.7,4.3,12.3,4,24.69-.9,39,10.67,26.34,3.82,60.93,6.53,91.12-3.87,11.92-.78,12,1.82,21.8-4.18,21.29,1.57,37.55-1.59,59.49-.67,6,1.92,13.28-3,18.1-1.18,12.92-3.36,26.79-8.35,40.44,7.67,19.29,42.67,9.7,60,4.72,76.09-23,112.73-67.55,162.23-120.51,11.53-.72.09,358.37,4,362.47C980.94,1611.93,4,1599.81,0,1604Z"/><path class="cls-6" d="M976,494c-4.39-30.21-11.91-60.1-19.46-89.64-2.38-8.65-2.3-19.52-11.44-25.59,7.79-20.87,19.66-39.6,30.9-58.65,2.67-3.64,7.91-8.46,3.78-10.22-6.16-2.77-13.09-7.69-19.66-.14-2,2.42-5.58,4.13-8.75,5-22.52,5.93-43.59,15.64-63.62,26.95-51.86,28.31-83.1,81.1-103.56,135.16C776.52,499.69,755.58,515,742,534.79c-47.87,59.9-97.54,119-144.11,179.94-5.35-15.63-11.8-30.8-15.53-46.62-2.47-10.46-16.6-18.82-3.59-33C599,613,617,588.68,637.81,566.94c2.35-2.46,3.65-5-1.1-8.32-6.87-4.82-14.56-2.29-22.07-4.2,28.35-31.75,54.3-63,81.43-95.24,7.49,13.06.55,41.84-4.39,56-1.59,4.11-4.13,8.44-2.18,13.12.09.22,5.06-.63,6.61-2.15,29.53-26.37,72.07-58.45,66.27-103.08-7.16-22,9.27-48.07-10.61-64.87-8.19-5.9-13.36-12.46-3-21.27a651,651,0,0,1,67-74.64c18-17.81,43.61-24.56,60.93-43.49C905.9,188,923.76,149,951.63,117.28c7.73-8.37,16.24-16,24.38-24,3.92-3.84.61-8,.09-11.93-15.3-4.35-62,62-72.46,75.11-5.14-20.74-3.76-42.6-6.92-63.67-.49-4,0-11.64-6.92-11.37-4.35.17-3.2,5.75-2.74,8.89A379.13,379.13,0,0,1,891,144.68c2.29,9.73,5.08,21.72,0,30.55-12.5,19.75-29.21,37.25-49.31,49.5,1.2-22.95,1.65-45.91,1.13-68.95.1-2.67-1.65-6.73-4.92-6.44-3,.27-3,4-3,6.9-.57,20.28-.48,40.64-2.34,60.81-.82,8.85.4,20.79-12.84,23.17-3.48-5.89.5-13-1.11-18.71-4.13-10.18,4.56-35-5.41-40.24-3.73,0-4.25,3.87-4.26,7.13,0,14.5-1.56,29.22.5,43.41,2.22,12.32-1.58,20.67-11.86,26.75-1.32-14.4,0-29.07-.61-43.56-.08-4-.11-9.9-5.59-9.71-5.11.17-2.14,5.57-2.28,8.42-.69,14.23-.8,28.49-1.19,42.74-.13,4.41,1.26,10.45-1.06,13-25.57,27.44-46.59,58.73-69.67,88.23-8.47,12.47-37.89,22.31-51.84,17.22-10.71-3.91-19.85-9.78-29.06-16.05-8.22-5.6-13-12.83-9.5-15.87,26.09-22.49,51.67-45.45,73.64-72.22,69.76-80.86,137.41-168,178.34-267.1-1.52-.09-3.37-1.19-4.68-.44-3.27,2.81-7.92,5.73-8.73,9.35-2.83,12.75-10.12,23.3-16.14,34.3-47.23,82.73-105,158-167.58,229.6,31.56-89.61,67.68-177.67,98.53-267.6.8-2.31,4.54-4.08,1.78-7.21A14.88,14.88,0,0,0,780.12,0c-1.6-2.68-6.4,4.6-7,6C761.23,33.84,752.22,63,740.56,90.78c-3.23,6.78-2.39,15.78-10.76,20.2-19.91,10.5-39.59,21.43-59.32,32.27-5.19,4.43-6.7-.44-4.3-4.95q39.23-63,74.66-128.21C741.4,9,739.52,5.52,738.1,5c-.74,0-1.28,1.19-2,1.55-7.3,3.68-9.23,11.44-13,17.6-22.6,37.59-44.72,75.47-66.71,113.43-5,8.87-9.25,18.12-18.8,23.34-23,13.43-46.64,25.65-70.16,38.16-16.18,8.77-32.69,17.08-48.16,27-9.65,6.18-17.11,6.82-22.74-3.43-5.91-10.76-14.26-18-25.22-23.09-30.72-11.2-26.77,16.7-45.52,22.9-10.11,3.27-17.13,11.48-18.73,22.74-.54,3.81,1.35,10.79.14,11.27-28.05,13.37-71,33.71-76.1,67.19-.36,2.46,1.34,2.33,3.65,2.08,11.95-1.26,22.29-7.61,33.22-11.47,16.41-5.22,74.79-17.95,84.44-1.28,3.49,6.39,1.62,15.14-2.57,22-4.7,7.67-1.32,30.34,6.25,33.8,22.65,11,44.11,24.52,69.75,28.21-23,17.57-60,8-76.8,35.48-2.06,3-2.64,2.53-4.86.28-44.9-51.33-109.77-79.56-175.53-94.54,92.79-77,186.15-152.72,277.59-231.38,38.16-33,77.16-65,115.47-97.78,1.11-.94.85-3.47,1.23-5.25-1.79-.11-3.95-1.36-5.54-.48C632.66,20,611.76,42.05,588.5,60.2c-77.14,61.17-152.56,124.62-227.78,188.21-35.66,27.46-69.19,62-106.6,85.81-7.89.29-16-3.83-24-6.09,34.71-28.82,67.32-60.42,104.44-85.79,2.63-1.17,5.67-3.37,4.38-7.3-9.76-7.56-26.56,3.79-38.17,2.91-24,3.37-47.91,10.83-72,14.46-12.44,2.2-24.43,7.29-37.72,6.45,1.2-2.1,1.77-4.43,3.24-5.44C233,225.13,269.73,194,307.85,164.85c63.73-51.6,127.54-103.25,192-154,9.67-6,3.42-15.18-6.14-10.89C339,103.58,185.22,210,30.68,313.65c10.25-15.16,19.58-33,32.78-47.32C75.31,253.5,80.54,235.19,101,228.44c17.73-5.86,33.27-19.06,49-30.1C249.9,133.53,350.42,69.53,450.32,4.71c3.24-3,.21-7.79-4-5.06-5.95,3.6-11.95,7.11-17.88,10.76C317.18,79.8,210.23,149,98.52,218.71c16.17-22.17,28.93-40.6,44.66-62.15,7.13-9.76,13-21.61,22.43-28.28,69.81-44.48,145-80.09,215.55-123.42,5-2.46,2.92-8.18-2.67-5.16C344.67,14,314.24,35.54,281.69,52.27,246,69.81,213.32,92,177.49,109,200.43,75.81,224.18,44,247.6,11.2c2-2.75,5.53-6.16,2.56-9.49-2.48-2.56-5.9-.43-8.44,1.38q-30.4,22.65-60.87,45.23c-36.34,27-72.8,53.79-108.93,81l-1.52-1.8c44.27-42.63,88.64-85.35,134-129C199-2.15,196.75-3.19,193.87,0c-17.7,16.27-35.65,32.25-53.26,48.61C95.36,91.15,49.6,133.19,5.59,177c-3.79,3.74,1.32,12.64,6.72,8.43C85,132.7,154.05,77.1,227.27,24.56,213.14,47.19,195.72,67.42,181,89.74c-7.59,10.5-13.67,23.31-23.7,30.55-49.73,30.45-102.27,57.4-153,86.35-6.89,3.3-2.61,12.21,3.71,7.59,44.89-25.09,89.67-48.76,134.81-73.59C101.14,202.87,55.2,260.15,11.91,320.93c-5.19,7-8.28,14.53-5.77,22.56,2,6.28,9.8,2.3,14.73,3.78C83.33,351.92,137.41,388.94,186,426c9,7.19,1.08,10.65.52,15.34-.42,3.54-4.43.77-7,.54-12-1.09-24-3.4-35.87-2.52-30.12,4.15-62.82,7-88.72,24.4-1.45,1.08-5.85,1-3.79,4.13.86,1.32,5.21,1.49,7.35.63,38.92-15.09,81.72-22.11,123.46-18.66-2.77,8.16-4,18.07-14.25,18.95a319.86,319.86,0,0,0-56.72,24c-27,17.66-58.1,30.7-77.06,58-6.31,5.54-.39,9.7,4.7,3.46C75.31,520,121,496.07,167.25,477.54c2.35-.93,5-.17,3.49,2.22-5.77,9.38-6.18,22.36-15.17,29-42.22,32.19-89.46,57.83-128.86,93.65-2.05,1.93-2.27,4-1.5,5.63,1.21,2.64,1.74-.41,2.57-.84,44.29-26.82,84.74-57.67,127.44-87.24-8.17,15.48-7.13,32.84-17.53,47.14-33.56,42.86-76.13,77.21-115.64,114.28-2.37,2.19-7,4.85-3.66,8.33,2.77,2.91,6.69-.75,9.11-2.73,39.27-30.62,74.41-65.69,108.83-101.23,1.21,9.1-.76,18.62-1.55,27.75-.07,24.44-16.16,40-32.88,55.42q-27.14,28-55.47,54.9c-10.75,10.2-22.59,19.26-33.8,29-1,.86-1,2.8-1.52,4.24,26.4-9.34,46-35.14,67.2-53.46,17.79-15.67,32.92-34.07,49.77-50.38.57.91,1.7,1.87,1.64,2.74-.84,12.21-1.73,24.42-2.85,36.61-.69,7.47.82,17-3.17,22-26.92,36-66.23,59.4-97.36,91.21-3.71,9,9.67.53,12.34-1.45,27.2-21.52,56.55-41.61,77.25-69.85,1.3-2.18,4.2-3.4,6.36-5.07,1.36,11.09-3,22-1.25,33.26.23,4.08,2.57,7.91-1,11.93-11.25,12.82-21.64,26.46-33.5,38.67C72.75,829.4,52.65,840.8,41.24,858.64c19.77-1.41,63.88-54,78.17-71.73-2.15,20.86,3,40.29-14.59,56.46-18.43,17-34.17,36.85-53.73,52.87-2.93,2.41-4.29,6.74-6.37,10.19,18.56-1,56.29-50.4,71.89-64.95,1.21,28.9,2.35,34.62-21.72,52.73-15.71,13.72-31.59,27.24-47.14,41.13-2.6,2.32-6.62,5.46-4.33,9.63,1.25,2.27,3.56-.81,5.16-1.81,23.68-14.75,43.13-34.49,63.06-53.66,1.46-1.4,4-4.06,4.12-.22.29,6.85,1.3,15.46-2.18,20.34-21.86,29.73-48,56.25-72.87,83.44-1,1.11-3.14,2.54-.5,4.45,2,1.47,3.71,1.12,5.31-.46,24.57-22.64,45.37-48.27,67.41-73.49-1.18,18.14,2.46,35.25-12.78,52.78-21.65,24.89-42.3,50.71-65.51,74.27-1.94,2-2.36,3.54-.92,5.41,5.56,5.73,21.33-16.91,26.2-20.56,20.39-19.15,37-42.77,53.13-65.09,2.77,7-2.2,14,1.37,21.62,1.89,4,1.83,11.44-.71,14.74-27.63,35.6-56.09,71-90.94,99.92-9.23,6.26-3.33,12.79,4.53,5,35.73-27.36,61-60.46,88.63-96.27-3,17.51,2.49,33.69-10.62,47.82-12.24,13.2-20.27,29.91-31.18,44.47-6.74,11.12-38.47,38.47-33.25,50.57,2.46,2.28,4-.34,4.87-1.43,20.74-29.52,46.91-54.89,64.73-87-3.13,23.8-1,47.89-4.48,71.53-3,20.51-5.89,41-7,61.62-.24,4.72-2.18,13.59,1.28,13.77,8.69.25,2-10.58,6.61-15.35,1.59-37.31,10.45-73.2,11.1-110.64-.43-29.67,5.72-58.62,7.94-88.56,9.17,23.5,13.27,50.42,29.21,70.3.22-1.52,1-3.23.57-4.51-9.65-30.44-23.4-60.21-30.66-91.22-1.24-12.89-.85-26-.69-39,.95-7.15-.71-21.92,3.64-26.94,14.38,35.11,23.18,76.55,47.64,107.31-11.19-30.42-25.23-61.74-36-93.12-4.78-13.34-14.44-25.12-12.79-40.74,1.76-18.12,1.59-32.57,2.74-51.41C143.2,873.7,152,912.79,175.16,946.1c2.76-.87,1.19-3.54.19-5.45-15.42-31.36-23.22-65.72-36.36-98-2.44-6.61-7.91-12.93-8-19.44-.33-27,2.28-54,2.42-81.06,0-1,1.31-2,2-3,5.27,10.09,4.47,23.15,10.19,33C161.22,809.75,165.37,848.05,185,885c-9.8-50-27.82-97.65-37.6-147.72-1.93-9.33-10.67-15.66-10.17-25.33,1.72-28.6,4.19-52.55,6.47-82.15,17.52,51.38,23.75,102.76,39,152.13,5.75-3.88-.74-19.93-1.76-29.63-1.23-11.77-3.79-23.42-6.19-35-7.81-33-12.75-66.58-22.8-99.07-2.14-5.77-6.29-11.54-4.66-18.76,5-19.46,7.24-39.87,13.17-58.93.69.88,1.83,1.69,2,2.66,3.74,18.43,5.49,37.3,9.23,55.68,5.43,21.77,12.4,48.2,19.61,68.55,1.36-1.83,3.73-.29,1.5-9.36-2.75-15.79-5.05-31.66-7.67-47.47-3.08-18.5-6.1-37-9.58-55.46-2.39-12.7-8.65-25.55-7.48-37.79,3.76-25.61,21.33-48.51,27.63-73.84.35-1.68.31-7.59,3.47-5.94,5.54,2.91,11.11,6.94,9.66,15.3-2.27,13-4.21,26.14-5.74,39.28-1.25,24.44-7.77,77.82,5.2,97.11a1306.73,1306.73,0,0,1,6.9-134.38c.08-1-1.08-3.19,1.42-2.73,5.89,1.09,21.32,22.14,20.39,27.89-5.26,49.44-9.33,101.16,4.32,149.57,4.91,1,2.66-3.15,2.62-4.44-3.17-47.71-4.89-96-.25-143.75,9.26,7.16,15.38,18.27,23.28,27,1.4,1.77,3.44,5.55,3.14,5.78-8.78,6.86-5.26,17.39-6.5,25.7-3.1,20.76-3.44,42-4.54,63-.05,18.4-1.49,49.41,7.87,64.8,4-1.22,2.14-5,2.06-7.64-4.09-31.36-1.22-63.55-1.55-95.21.3-13.53,2.34-27,3.8-40.51.19-1.77,1.67-3.39,2.55-5.08,5.39,5.39,10.63,11.78,14,18.46,3.32,7.41,13.15,13.86,10.53,21.34-6.1,17.42-9.78,35.55-12.18,53.3-1.15,8.55-.61,18.83-1,28.3-.46,20.71-6.37,54.13,3.89,72.57,1.22-50,5.31-100.2,14.6-149.73,6.76,13,13.85,25.84,20.16,39.08,2.45,5.15,7.53,10.49,5.33,16.37-10.08,29.58-21.93,102.18-13.62,131,4.22-8.18,4.12-18.64,5.41-27.72a716.75,716.75,0,0,1,12.41-97.92c5.67,14.48,10.9,27,15.46,39.74,3.12,8.76,8,18.09,7.26,26.72-5.67,32.38-20.2,63.36-16.68,97.36q10.29-42.46,20.6-85.06c3.69,10.76,7.71,21.14,10.82,31.79,3.82,13.11-5.49,24.22-6.49,37-1.41,24.34-11.76,49.3-5.09,73.77,9.22-30.6,10.15-61.49,16.42-94.47,2,6,3.79,9.85,4.53,13.94,3.26,18.08,16.34,33,11.53,54.22-5.66,24.93-9.88,50.91-4.1,77.47,1.16-1.73,3.11-3.32,3.3-5.09,3.05-23.41,3.26-47.55,7.54-70.62.79.73,2,1.32,2.3,2.21,5.49,16.74,10.46,33.67,16.58,50.17,1.51,4.07,3,12.4,8.38,10.73,4.65-1.43,1-8.1-.44-12.54-2.87-8.69-5.34-17.52-8.1-26.7,24.61,16.8,37.36,43.64,58.28,63.06-9.48-24.12-27.09-43.42-44.81-61.94-5.24-5-15.4-4.34-16.94-11.57-3.9-18.28-11.29-35.37-17.19-55.74,24.62,27.76,46.56,53.87,71.58,80.71,1.42,1.35-.66,5,3.1,4.29-8.9-29.15-35.71-49.82-54.86-72.66-7.41-8-18.12-14.14-22.59-23.41-7.6-15.74-11.44-33.29-17.87-53.2,31.79,31.68,55,66.35,82.26,97.61-20.9-37.18-44.32-73.48-78.76-99.73-2.24-1.69-5.46-3.43-6.08-5.72-3.81-14.12-7.26-28.3-13.46-41.67-1-2.16-.28-5.11-.35-7.7,30.44,17.28,51.12,49,73.09,75.79,5.48,5.92,12.58,23.29,20.11,24.58-9.35-11.13-12.36-25-20.49-36.52-17.46-24.75-37.42-46.64-61.27-65.31-5.42-4.25-14.05-1.88-17.11-9.71-4.82-12.32-6.74-25.76-14.57-37-1.47-2.09-1.48-5.19-2.16-7.83,24.67,14.37,46.71,33.56,69.73,50.52,11.56,9.13,21.77,20,32.69,29.93,1,.91,2.72,1,4.1,1.5-21.92-32.42-57.3-57.87-90.33-80.29-8.59-7.75-22.54-7.91-27.15-21.62-3.16-10.86-11.66-20-15.54-30.58,30.62,13.87,60.08,33.51,84.29,57.4,6,6,10.83,13.21,20.69,19-21.94-34.89-53-59.72-89.81-75.24-24.32-10.66-34.9-31.51-48.4-50.45,29.83,10.39,57.46,29.37,85.09,45.28,8.82,5.5,16.89,13,30.16,16.36a139.81,139.81,0,0,0-28.66-22.41c-13.73-8-26.08-18.88-40.47-25.25-15.47-6.84-29.92-16-46.62-20.46-14.06-3.77-18.09-20-32.83-28.33,44.28,6.22,82.21,20.19,118,40.73-24.4-27.45-63.14-35-97.16-44.32-12.18-2.75-26.47.81-34-13.64-10.19-8.4-19.46-16.4-30.39-26.22,51.56,5,102.25,12.45,147.18,39.67,1.43.89,3.44,3.21,4.9.54-5.32-11-25.85-18.11-36.78-23.67-27.54-12.14-56.69-16.58-86.06-21.28-16.39-2.62-34.8,3.9-49.06-11.36-43-32.57-93.79-62.33-149-67.12,12.32-4.12,25.86-3,38.53-4.11,12.73-2.29,25.63-5.46,38.41-5.27,44.78,3.24,90.9,1.63,134.43,13,67.29,19,115.82,78.7,151.6,135.73,12,23.21,21.66,47.66,32.32,71.59,2.51,5.63,8.45,13,5.13,17.07-6,7.36.82,6.64,3.35,9,7.43,7.48,5.66,20.1,10.71,29,6.91,15.46,6.69,32.51,12.26,48.39,8.28,27.72,12.7,57.3,18.48,85.8,1.64,10.84,1.74,22.83,5,32.34,14.58,53.38,16.19,108.27,25.43,162.59.82,4.18,1.21,9.52,5,9.17s2.92-6.29,2.67-9.86c-.42-17.71-4.47-35.75-3.14-53.29,38,46.32,64.83,100.31,103.85,146.3.14-12.73-8.87-19.89-14.27-28.62-12.85-20.78-26.67-41-40.35-61.21C549.55,920.69,537.48,904,526,886.89c-7.72-11.52-21.12-19.89-20.91-35.95.27-19.56-5-38.37-8.19-60.35,19.27,28.35,38.92,51.21,57,79.54C566,890,580,908,595.22,925.32c.87,1,2.84,1,4.3,1.53-1.4-7-5.34-12.48-9.55-17.94-26.34-35.81-48.19-74.81-75.77-109.63-7-8.85-18-15.36-20.74-26.49C489.26,756,487.61,738.48,485,722c37.37,33.14,64.24,80.64,107.76,106.67-4.31-10.31-15-17.47-21.88-26.32-28.35-29.74-56.11-60-84-90.18-2.17-2.29-6.64-3-6.55-6.87.34-14.71-6.26-27.92-7.3-43.37,33.82,33.48,65.61,67,102.06,98.11,1.53.84,3.45,4.91,6,2.7,2.14-1.83-1-4.19-2.56-5.81-33.52-35.78-68.63-70.09-104.4-103.6-10.49-9.68-8.58-22.74-12.94-34-3.46-8.95-5.54-18.44-8.23-27.69,13.42,15.63,31.8,26.8,45.23,42.43,13.76,16,29.08,30.17,50.42,42.66-14.59-20.4-31.53-33.46-45.88-49-16.75-19.29-39.7-34.22-55.35-54.14-11.8-31.41-21.77-55.58-37.55-88.38,36.4,34.83,66.07,70.6,101.49,100.28-19.58-35.18-53.22-60.32-79.54-90.44-10.07-10.27-23.82-17.51-32-28.91-27.57-40-59.05-77.84-98.7-106.34,29.05,7.6,55,21.93,81.27,35.49,29.5,17.22,51.09,44.61,74.34,69.09,48.71,57.35,83.15,126.08,109,196.49,30.86,83.76,51.28,172.31,58.71,261.26,1.19,35.36,8.87,69.82,10.27,105.05,1.31,28.12-.29,56.4,1.57,84.46,4.07,71.27-14.08,141.5-3.53,212.5,1.52,27.9,1.63,56.22,15.2,81.72,2.17,4,20.68,16.09-1.53,18.79a611.08,611.08,0,0,1-68,4.06c-64.12,0-130.26-1-191.78-20.14,40.86-19.42,76-49.51,110.27-79.23,38.86-32.67,85.74-62.8,101.7-114.06C638.42,1101,558.71,967,447.08,930.19,397.58,911.34,340,915.71,295.54,945.4c-20.76,13.83-34.46,35.25-52,52.55-17.2,16.93-33,35.37-48.44,54-27.26,31.46-71.29,66.53-63,113.63,13,77.76,56.27,147.33,119,195-36.05-9.79-67.71-34.5-98.34-55.78-21.55-14.77-42.9-29.73-62.3-47.39-15.64-14.25-29.86-29.7-43.75-45.65-12.59-14.46-27.54-26.86-36.46-44.39-1.48-2.9-4.42-5.83-8.39-4C-14.47,1172.56,81,1265.48,94.29,1275c-9.61-.36-97.44-6.33-94.29,5.68,1.24,4.62,8.05,2.22,12.19,2.27,22,.26,44.08,0,66.12.2,9.17.1,19.5-1.41,27.22,2.22,12,5.65,22.26,15.06,34.75,24-34.11-2.4-64.21-2.85-97.65-3.16-14.21,1.23-28.7,1.78-42.63,3.8-5.13,3-2.29,5.92,2.24,5.07,49.05-.69,99.51,4,148,.53,6.5,4.41,13.88,8.66,18,14.9,2.21,3.32-5.15,7.67-8.57,11.3-4.09,5.11-5.16,12.78-13.52,11.27-31.41-1.45-62.75-5.63-94.28-2.25-14.54,1.55-29.13,2.57-43.62,4.45-3.85-.34-11.21,5.61-3.61,7.69,11.05-.55,22.2-.72,33.12-2.34,36.75-4.79,75.09.1,111.51-1-.61,7.13-2,14.43-1.62,21.64.27,5.66-.52,8.15-6.7,7.77-44-3.28-88-4.8-132-4.15-8.67.41-9.08,9.63,0,8.23,45.05-1.53,90.05,3.12,135,3.32,7.8-.12,9.27,2,10.59,7.35,1.4,5.69-.17,15.14-3.39,15.11-45-.5-89.82-1.19-134.94-1.84-5.56-.49-14.33-.81-14.32,5s9.1,4.84,14.3,4.88c42.22.28,84.44.22,126.65.07,5.26,0,7.66-.33,4.71,6.38-4.64,7.61,1,23.43-5.78,21.63-45.29-1.07-90.35-3.94-135.64-3.84-4.82.52-9.36,7.49-1,6.88,19.77.84,39.54,1.57,59.31,2.32,23.79.9,47.58,2.25,71.38,2.42,7.28.06,12.5.5,14.78,8.29,2.71,8.86,13.47,25.06-4.39,22-42.76-4.25-85.92.49-128.5.36-3.37-.24-12.09-.34-11.74,3.83.51,5.24,7.91,3.78,12.68,3.79,39.12,1.54,78-1.37,117-1.71,23.21-1.26,24.33.56,23.47,24.15-.1,2.92-.95,3.57-3.74,3.45-31.16-1.47-62.5-1.41-93.55-4.37-11.89-.75-52.31-6-58.28,4.3,49.27,3.56,99.9,7,149.76,6.22,14.73-2.36,1.11,12.08,13.63,17.26,1.23.59,1.87,2.42,2.78,3.69-52.86-1.57-106.74-1.21-160-.92-3.18,0-6.85.81-6.85,5.46.13,5.29,3.19,6.76,7.59,6.5,34.12,0,68.24-.26,102.36.09,248.27,3.13,496.71,1.43,745.15,1.95,5.67.72,7-7.5,1.3-8-64.49-4.73-129.35-.9-194-2.23-156.86-3.65-313.75-2.5-470.69-1.91,10.41-6.33,13.4-21.59,30.54-18.63,52.09.45,105.6-2.49,158.07-1.48,143.59-3.09,287.31-5.06,431-8.73,4.53.05,6.09-6.65,0-5.39-107-3.47-214.43,3.28-321.32.71-32.89,3.21-65.35,3-98.11,1.94-54.08,2.4-108.59,1.36-162.83,2.56,29-15.88,49,1.73,72.66-17.59,10.38-8.43,22.6-9.48,33.51-8.55,143.22,3.51,286.53.31,429.8,1.2,5.28,0,14.62-1.41,14.22-4.34-.9-6.49-7.85-2.63-12.64-2.75-135.38-5.76-270.92-1.54-406-3.24-9.42-.37-23-.17-25.94-3.05,28.72-17.21,52.42-5.63,81.1-1.43,12.91.6,25.13-2.62,37.38-10.41,6.07-3.86,13.6-7.51,20.5-7.6,29.2-.37,57.73,2.89,86.18,11.58a83.22,83.22,0,0,0,24.35,3.42c41.16-1.76,79.06-22.91,120.88-18.24,12.08.67,24.19-.9,36.31,1.62,2.9.6,10.34,3.1,10.61-3.54.23-5.69-5.78-6-10.48-6.06-13.81-.19-27.75.7-41.37-1-6.1-.76-11.79,2.78-18.29.19,78.18-44.12,77.85-10.3,144.29-21.09,19.58-5.83,51.59-26.28,53-47.89-1.92-5.08-8.24-2.69-12-2-18.89,3.65-37.59,5.08-56.8,1.94-17.32-2.84-35-5.74-52.37-5.37-17.05.19-2.66-7.38-3.7-12-1.52-13,14.88,9,60.52-8.61,63.14-20.31,116-63.56,154.84-116.51,1.58-2.51.2-6.33.34-9.15-1.11.44-2.52.57-3.28,1.34-8.21,8.38-15.81,17.43-24.56,25.17-24.15,21.32-49.38,41.44-76.84,58.38-31.42,23.2-68.71,37.08-108.09,36.14,25.6-56.49,10.3-120.71,12.94-180.74-3.74-110.21-13.3-220.08-12-330.42-.38-48.84,4.36-98,2-147-.61-62.08,6.74-124.78,23.74-184.51C799,454,832.17,395.28,882.19,359.55c25-17.71,54.81-27.07,82.29-40.19-14.81,32.25-48.48,51.57-69.35,80.05a786.63,786.63,0,0,0-59.89,84.07c-11.71,19-21.84,38.89-29.13,60.1-.28.81.55,2,.86,3,5.49-3.24,8.48-12.3,12-17.75,31.77-59.53,73-113.65,118.71-163.11-1.63,5.68-4.28,10.47-6.88,15.29-7.87,14.61-10.33,32.17-19.24,45.44-29.35,44-63.1,83-79.77,135,13.7-16,21.22-34.89,33-52.18,13.46-19.15,23.77-42.39,39.52-59.08-3.39,13.18-6.7,26.95-9.42,40.52-3.25,12.09-1.18,25.47-13.09,35.44-20.67,22-82.46,103.42-79.85,130.51,24.78-43.34,51.6-85.35,85.32-125.76,2.34,41.26-14.43,55-35.61,85.67-11.47,17.78-21.33,36.65-33.42,54-10.32,16.92-23.67,35-26.57,54.49,32.64-46.2,59.44-93.8,91.1-142.3-1.89,19.13-4.5,36.53-4.59,53.8-13.53,1.35-15.45,14.29-20.88,22.57-25.68,41.06-51.4,81.27-64.62,128.94,30.18-47.45,51.13-101.3,85.28-146.33,2.15,19.11-.84,38.82-1.1,58.11-.61,10.91.42,22.21-7.69,31.58-17.19,20.68-30.66,44.27-44.74,67.12-8.1,13.76-15.33,28-17.17,44.46,20-37.33,42-73.31,67.26-107.26,0,13.16,0,26.23,0,39.31,0,7.55,1.26,15.43-3,22.16-16.81,26-35.18,51.26-49.59,78.66-8.27,15.43-19,31.19-20.68,48.47,1-.69,2.44-1.14,3-2.1,6.68-11.69,13-23.58,19.88-35.17,15.43-25.9,31.76-53.31,48.95-77.69,0,16.53.5,33.9-.22,51.22-.32,7.71,2.78,15.66-3.61,23.31-26.61,34.23-46.15,74.39-61.22,114.9-.73,2-1.44,4.36.82,5.21,2.66,1,2.2-2.09,2.89-3.43,19-34.83,34.83-75.49,59.25-106.32,0,16.31-2,34.29.49,51.62,3.47,23.87-8.36,41-20.64,58.26-16.49,25.86-31.81,52.94-40.27,82.53,2.25,2.25,7.08-6.8,7.63-8.83,15.68-29.92,32.5-60.51,50.65-88.68,0,20.45,1.16,40.81-.62,60.9-.63,7.11,2,15-2.37,21.79a514.85,514.85,0,0,0-46.37,82.41c-5.24,11.91-13.19,23.36-12.28,37.73,20.56-33.7,33.49-71.23,58.52-104.68-7.06,40.43-14.3,76.85-20.3,116.82-4,21.09-10.35,41.31-16.09,61.82-.69,2.45.42,5.41.7,8.14.93-.41,2.44-.6,2.69-1.26,5.55-14.71,11.51-29.29,16.26-44.25,9-25.41,12.75-52.42,17.33-78.54,13.36,14.22,8.78,91.47,7.69,114.17-.26,2.23.7,4.31,3.32,4.72a2.05,2.05,0,0,0,1.58-1.22c3.59-31.5,5.5-63,2.06-94.53,1.23-21.32-14.45-28.11-11.81-45.75,4-28.74,8.89-52.67,11-82.54,9.5,37.54,21.11,67.09,27.32,103.84,2.86,20.15,7.95,40,9.69,60.33.29,3.43,2.41,6.71,3.68,10.06,2.34-3-1.18-5.47-.8-8.3,3.81-31.16-5.92-62.25-12.63-92.47-5.06-19.77-10.72-39.3-17.66-58.44-5.16-14.21-10.36-28-8.9-43.75,1.95-26,.66-48.54,2.84-75.29,31.4,59.44,45.4,122.21,63.39,186.06l-.1.11c2.31-1.2,3.44-2.19,2.65-5.62-6.52-33.42-11.85-67.19-23.26-99.35-5.31-17.48-14.78-33.67-20.4-51.08-33.53-61.87-20.14-36.77-22.74-105.8,3.55,1.59,3.43,3.32,4,4.74,9.06,20.91,18.76,41.54,27.2,62.69,11.39,28.54,21.78,57.48,32.77,86.18.59,1.54,2.79,2.45,4.24,3.66-9.34-50.57-36.21-100.14-53.71-149.12-5.71-15.18-15.79-28.9-13-46.62,3.48-22.2,1.83-40.34.56-64.06,33.78,58,50.22,120.28,76.37,180.34,1.52-9.35-3-16-4.95-22.88a840,840,0,0,0-52.8-137.55c-5-12.69-17.29-22-16.92-37.08.27-11.34-1.84-23.14.69-33.9,2.09-9-2.91-18.14,2-25.89,32.47,50.83,52,108.13,77.5,162.57,4.23-15.06-6.49-28-11.79-41.39-13.84-36.12-28.93-71.83-47.28-105.77-5.54-11.09-16.35-20.79-18.22-32.19-3.07-18.85-.83-38.57-.83-62,32.56,43.48,56.12,86.57,76.41,131.6-4.25-43.67-36.73-84.91-60.46-120.8-6.51-8.55-14-16.41-12.13-29.14,4.7-24.07,3.55-49.8,10.13-73.18,7.62,8.1,8.35,20.31,13.34,30,11.7,24,24.11,62,37.59,82.53-5.68-33.78-26.76-63.5-36.19-96.13-3.45-11.82-17.87-19.24-12.81-34.07,4.86-20.14,8.81-36.72,14.72-58.46,6,20.19,10.43,37.79,16.48,54.82C946,522,949.69,552.27,961,579.24c3-18.57-7.5-37.61-9.61-56.11-2.48-19-12.25-35.72-15.32-54.27-2.53-15.27-16.63-27.53-11.08-44.77A301.56,301.56,0,0,1,942.92,381c11.92,42.29,20.39,85.73,29.85,128.77C979.67,513.05,975.24,497.56,976,494ZM173.29,320.1c-7.91,4.35-20.42,1.45-30.66.24-24-2.84-47.44-1-70.91,4.32-15.12,3.68-30.88.16-46,4.9C154.88,242.21,282.4,151.88,413,66.94c-75,64.38-155.5,122-231.87,184.73-5.2,3.62-15.83,9-11.14,16.58,3.75,5.8,10.38,2.34,16.28,1.1,15.69-3.3,31.57-5.86,47.46-8.11,4.85-1.12,10.3-6.25,15-.69C221.69,277.68,200.46,303.71,173.29,320.1Zm16.84,1.46c-2.9-.74.21-3.1,1.21-4,21.12-19.11,44.27-36.11,65.07-55.48,16.44-13.56,37.93-11.58,58.66-16.15-26.74,23.42-52.35,43.7-79.72,65.55C218.91,329.07,212.27,328.49,190.13,321.56Zm562.52,93.88c6.15,20-5.53,39.51-14.91,56.57-7,11.65-18.36,19.32-29.26,30.53,4-21.12,10.14-39.22,5-59.14-3.52-9.84,6.66-7.81,10.64-9.91,8.37-4.42,17.69-6.95,23.92-14.87C749.18,417.22,751.1,416.48,752.65,415.44Zm-106-36.72c22.29,14.46,72.92,7.26,88.17-16,5.61-3.89,16.42,14.1,14.37,21.82-.76,25.64-42,36.29-62.38,38-16.22,2.54-31.15-2.51-45.28-10.06-23-10.06-64.09-50.19-30-70,6.57-1.22,4.84,6.36,6.69,9.89C624.54,364.71,636,371.59,646.63,378.72Zm5.07-212.41c6.92-8.63,19.42-12.91,29.63-18.76,15.32-8.78,30.84-17.23,48.12-26.85-23.23,56.55-44.2,109.73-64,166.72C659,306,639.87,312.11,630.16,327.18c6.74-14.6,3.91-26.13-9.46-34.88-12.18-8-26.08-4.68-39.46-5.51C605.05,246.52,624.82,204.19,651.7,166.31ZM535.56,227.76c32.08-17.89,64-36.41,97.18-52.14-18.69,37.82-44.12,71.87-63.12,109.66-3.27,6.18-11.31,2.06-16.71,1.35-10.69-1.41-23.17-1.43-26-13.56.11-10.16,5.87-16.55,4.38-24.36-.43-2.24.1-5.6-1.21-6.59C515.6,231.23,532.29,229.65,535.56,227.76Zm-99.3,61.8c-13.68-2.47-27.25.39-40.68,2-14.88.6-28.85,5.87-41.77,13.43,17.32-16,35.56-30.86,58.59-37.91,14.71-3.45,46.61-21.38,58.24-6.73,5.52,10.25-3,18.55-9.55,25.35C454.35,298.16,445,291.13,436.26,289.56Zm87.28,88.58c-96.67-35-32.62-32.31-58.82-75.14-4.11-5.82,1.49-7.92,4.34-10.51,24.27-20.37,12.19-52.21-20.8-46.61-10.09,4.77-22,3.57-31.71,9.61-8.31,1.3,9-27.62,25.58-28.23,5.26-1,7.52-2.8,7-8.23-.87-10,5.87-11.7,13.32-10.47,23.75,2.36,23,33.46,45.6,34.24,11.86.81,15.8,5.56,10.31,16.25-16.26,33.18,26.43,42.51,49.18,39.78,16.42,1.59,32.32-4.21,47.36,4.09,6.39,3.52,9.18,9.46,7.42,14.78-4.64,24.78-24.71,8-33.34,37.54-.52,1.85-.32,3.52-2.9,3.72-15.61,1.17-28.35,8.75-39,19.35C538.65,386.7,530.39,380.43,523.54,378.14Zm-65.18,67.57c-4.59-9.55,6.38-14.34,13.56-18.54,15.1-8.83,33.41-6.85,49.06-14.05,27.39-13,34.4-38.06,65.62-46.2,5.2,25.73,19.56,45.61,42.48,59.64-35.45-1.64-41.45,22.13-67.49,36.38-17,8.63-51.49,16.09-70.2,10.13C477.39,467.3,464.74,459,458.36,445.71Zm37.76,46.56c-2.33-2.58-.6-3.26,2-3.22,13.59.23,27.15.44,40.33-3.89,3.74-1.23,4.62.95,4.55,4.54-.51,24.75,9.25,46.21,23.45,69.86C537.89,539.31,519.18,517.07,496.12,492.27ZM567,632.47c-11.29-36.07-31.24-67.25-47.71-101.14,11.85,11.16,44.74,44.52,60.93,38.23,3-3.7-.43-7.29-2.35-10.44-12-19.64-15.66-41.84-21.19-63.69-5.39-21.33,13.21-18.64,22.26-23.82,10.33-5.92,17.32-13.83,24.43-22.66,20.9-10.7,47.56-18.63,71.18-9.77,5,3.58,24.53-1.84,19.14,8.27-28.95,38.43-66.9,71.07-92.56,111.48-.92,2.85,1.85,6.22,4.26,5.17,7.88-3.45,14.61,3.39,23.16.33C606.87,588.11,586.68,608.89,567,632.47ZM634.81,920.6c1.7-35.38-7.5-65.32-11.5-99.19-1-9,6.92-12.46,14-14.1,33.85-8.15,68.54-13.07,101.61-24.17,1.24-.35,2.77.37,4.17.59C711.54,832.75,669.42,871.54,634.81,920.6Zm93.87,89.7c-25.87,25.3-52.26,50.39-79.15,74.51-.47-1-1.58-2.29-1.31-3.07,4.82-23.7-12.21-30.42,14.95-46.29,27.24-24.18,58.93-45.83,86.45-69.3C760.39,988.91,740.76,998,728.68,1010.3Zm24.26-8.2c5.65,21.7-5.62,36.14-19.93,50.44-26.82,31.23-55.13,60.86-84.24,89.81-1.38-13.92-1.68-27.58-.11-40.22,1.37-8.53,10.79-13.1,17-19.11,29-27.74,57.38-56.43,86.72-83.66C752.53,1000.28,752.71,1001.2,752.94,1002.1Zm-105,169c3.66-33.19,34.86-46.13,51.87-69.55,16-21.28,37.25-40.14,53.64-61,16.91,39.27-48.24,90.26-63.09,127.22-7.35,14.06-19.86,12-29.43,18.2a146.07,146.07,0,0,0-13.73,5.17C647.42,1184.48,647.21,1177.75,647.94,1171.13Zm48,4c20.06-29.61,42.6-59.1,59.58-90.4,8.56,24.54-4.21,44.62-14.33,66-6.33,13.38-21.11,10.2-29,19.2-3.47,2.58-11.91,14.19-16,10C694.6,1178.56,694.68,1176.89,695.92,1175.1Zm58.52-539.17c-.16,19.69-.2,24.13-18.69,18.49-10.87-.52-21.61-3.71-31.77-5.66,18.34-22.15,34.33-47,54.4-67.35C758.87,599.44,755.31,617.8,754.44,635.93Zm-.86,37.35c-4.69,13.66-2.07,26-2.51,38.24-.55,15.8-1,31.7.19,47.43.7,9.41-2.88,12.08-11,14.08-33.61,8.3-66.09,18.76-100.34,24.84C678.63,757.86,715.5,716.45,753.58,673.28ZM637.17,938.88c-2.33-11.13,8.06-15.2,13.14-22,32.34-45,69.85-82.26,100.7-129-.74,16.51-1.61,31.39-2,46.29,0,26.24,8.58,58-22.44,69.79-28.6,13.63-56.32,30.54-85.28,43C637.52,947.56,637.8,941.88,637.17,938.88Zm113-31.38c-4,17.43,0,21-20.08,26.76,6.12-10.87,10.94-23.5,18.38-34A57.81,57.81,0,0,1,750.19,907.5Zm-96.4,41.71C680.86,937,704.17,926,731.58,911.69c-5.67,9.16-10.26,16.25-14.49,23.56-1.86,3.21-6.06,6.06-2.77,10.72,3.57,5.06,8.29,3.23,11.52.64,5.92-4.73,13-6.36,19.63-9.23,3.26-1.41,2.92,1.23,3.79,3.18,5,11.19,1,18.16-8.91,24.44-31.86,22.42-62.2,47.36-92.63,71.7-2.32-25.3-3.59-50.83-7.89-76.06C638.62,954.5,648.2,951.92,653.79,949.21Zm-6.57,422.17c-.68-3.65-.15-7.53-.15-10.61,22.38.48,45.4-1,67.58,1-26.14,33.37-31.07,15.2-63.5,20.49C649.79,1378.61,647.91,1375.11,647.22,1371.38Zm6,24.45c-6.17-15,21.11-1.41,27.64-5.61,7.57-.13-16.06,18.78-17,22.5C661.93,1416.27,653.85,1398.48,653.26,1395.83ZM442.35,1432c-8.08,8.77-31.91,12.73-80.33-4.9C390.67,1426.93,417,1422.74,442.35,1432ZM305,1418.7c-21.58-.92-43.25-4.16-64.85.16-7.5,1.5-8.72-7.59-14.71-8.94-2.19-.5-4.1-2.29-6.13-3.49-5.13-3.06-10.77-7.09-8.85-13.3,1.57-5.07,8-1.82,12.11-1.9,18.91-.37,37.9.8,56.72-.49,13.95-1,25.58,4.7,37.89,8.83,16.42,5.52,32.75,11.34,53.23,18.45C346,1414.84,325.7,1419.58,305,1418.7Zm10.53,8.32c-8.82,7.55-16.78,14.19-24.54,21.06-5.75,5.1-12.24,1.8-18.43,2.15-7.84.44-13.52,5.67-19.93,9.31-15.62,8.35-11.24-16.45-13.7-25-2-11,5-11.26,11.69-9.18C272.62,1429.3,293,1426.13,315.57,1427Zm83.08-36.14c-47.37,12.45-87.8-14.55-128.62-38,29.81,4,49.83,16.31,79.22,13.1,22-1.15,52.8-4.28,65.53,18.3C409.41,1386.47,404.15,1389,398.65,1390.88Zm-148-374.82c83.84-176.4,320.6-58.45,344.7,99.47,21.79,104.49-48.78,203.18-160.23,189.9C303.84,1293.44,202.42,1140.91,250.62,1016.06Zm-42.23,35c9.45-12.77,20.85-24.1,33.56-38.38-27.17,62.92,2.21,93.07-31.87,72.85-9.33.39-9.19-10.85-12.32-17.12C193.09,1059.08,204.43,1056.46,208.39,1051.1Zm-27.8,30.82c5.93-7.56,13.62-12.56,13.42-.09,1.75,10.65,10.49,12.22,17.79,12.86,14.76,1.31,19.08,9.09,19.43,22.63.22,8.51,3.3,16.94,5.17,25.77-15.15-10.5-26.48-26-45.1-31.42-5.32-1.55-11.56,2.25-15.87-2.94C166.37,1097.79,171.38,1089.49,180.59,1081.92Zm-18.2,22c3.77,10.68,8.78,16.84,23.17,16.26,19.85-1.08,31.5,25.1,50.78,29.1,7.63,2.29,4.71,11.48,8.56,16.56.24.32-.08,1,.09,1.46,1.2,3,6.16,7.15,3.41,8.57-3.75,1.94-9.4.25-14.24.07-38.77.47-51.24-44.69-86.42-49.32C150.45,1117.54,155.84,1110.35,162.39,1103.92Zm-16.6,54.15c-1.66-8.91-4.7-32.31,10.24-20.22,20.34,11.17,33.22,33.61,55.31,41.81,27,10.08,38.43-9,53.24,24.56-74.29,1-68.18-36.16-113.29-37.35C144.86,1167.39,146.32,1160.7,145.79,1158.07Zm9.66,41.14c-3.31-7.21-4.86-15.78-6-23.76,28.43-2.72,49.62,34.54,82.55,35,35.78-.72,39.94,2.24,60.19,30.94,1.47,1.58-6.22-.29-7.68,1.33-41.87,11.62-67.86-44.72-120.53-32.11C157,1212.18,157.55,1203.29,155.45,1199.21Zm11.38,28.14c-4.39-14.5,7-5.78,9.88-8.35,41-4.09,67.17,43,104.38,33.22,24.48-8.5,32.39,13.29,47.62,21.51,5,3,10.21,6.25,14,10.76-16.87,9.14-35.13,2.41-49.31-8.1-16.33-9.12-22.78,13.49-37.51-9.44-11.73-12.65-25.24-14.19-40.61-10.3C197.26,1261.21,172.25,1245.27,166.83,1227.35Zm21.45,36.79c1.63-.35,3.5-1.42,4.85-1,12.11,4.13,24.61,2,36.76,1.52,14.52-.57,20,11.36,28.79,18.22,18.8,13.94,21.08-8,39.31,6.54,9.23,5.38,17.87,8.59,28.88,5.9,21.89-5.36,41.58,1.37,61.71,10.42,38.45,15,79.56,13.55,120,3.08-14.87,11.94-28,22.93-41.8,33-1.8,1.32-7.1-1.53-10.49-3.08-36-14.85-71.56-4.3-107.15-26.6-7.19-3.51-14.65-1.64-21.66-.8-25,3-48.32.58-68-17-7.18-6.4-15.44-9.2-25-9.57-11.05-.43-22.77.73-32.85-2.73C195.83,1280.15,192.65,1270.4,188.28,1264.14Zm60.63,71.53C234.81,1322,221,1308,205,1292c19,7.06,37.56-1.78,53.59,14.76,14.66,15.13,37.1,17,58.63,15,38.38-6.92,58.23,21.77,97.78,16.64,12.09-1,23.89,2.52,35.41,6,3.39,1,6.32,3.53,13.08,1.68l-40.38,31.58c-5.64,4.42-5.55-3-6.43-4.24-9.55-12.83-23.9-13.6-37.63-16.65-19.18-4.25-38.65,1.94-57.65-2-17.54-2.62-35.83-12.29-53.23-12.46C259.15,1345.87,254.07,1340.66,248.91,1335.67Zm25.37,47.27c-68.81-5.27-57.13,17.84-66.45-30C228.39,1365,250.66,1373.2,274.28,1382.94Zm462.05,4.65c-.94,1.6-2.06,3.08-.09,4.15,2.52,1.37,5.88,3.66,8,3,24.81-8.32,48.37,2.82,72.51,4.15,17.85,1.92,35.28-2.38,52.92-3.33-16.66,22.35-43.15,33.46-70.4,32.78-13.6-.45-27.06-5.28-41-5.46-45.45-2.14-79.62,31.3-122.55,40.53-144.66,37.07-56.37-57.24-206.3,13.18-8.06,2.38-17.15.92-25.15-2.13-24.66-9.38-48.16-5.76-71.13,5.38-17.78,8.63-31.57,25.15-51.53,28.81-32.78,3-55.52,2-80.6,27.33-7.06,6.25-14.7,14.69-24.08,11.93-7.73-2.27-8.12-13.08-7.6-20.64,1.11-16.36,1.24-32.44-4.32-48.06-3.41-9.59-8.41-18.6-9-29.13-.83-20.46,16.95-39.51,5.18-59.22-10.24-19.76.49-34.71,10.94-50.35,5-7.45,8.09-3.16,12.57-1,22.34,10.79,17.69,31,15.82,49-3.63,32.53,31.65,20.2,29.23,55.17-2.34,18,10.21,38.21,29,24.34,19.69-15.71,31.47,4.23,51.18-24.25,9.88-12.92,27.21-18,41.21-10.51,28.62,13.94,67.17,27.93,96.19,8.23,11.36-8.49,24-6.44,36.81-5.51,28.21.43,56.39,4.48,84.57,1.92,8-1.09,16.66,1.82,24.63.53,23.63-3,47.76-2.82,70.57-9.77,19.58-23.59,44.71-43.24,65.72-65.74,9.64-11.36,17.7-24.07,28.8-39.38C750.19,1347.39,747.32,1368.87,736.33,1387.59ZM762.43,1279c-1.56,8.91-1.31,18.15-1.37,27.18,0,3.47-2.6,4.26-4.24,6.11-29.56,26.7-15.84,44-56.47,40.71-15.72,0-31.47-3.6-47.15,0-9.15,2.11-8.51-4.64-9.12-9.9-.88-11.62-6-23.52,11-18.87,22.71,0,45.41.53,68.12.71.89,0,2.52-1.77,2.52-2.72,0-1.78-.94-3.19-3.4-3.32-27-1.32-53.9-3-80.86-4.3-1.84-13.48,6.3-26.15,22.28-22.14,10.94,2.86,23.82-1.66,34.7,1.28,15.9,4.28,31.59,2.57,47.37,3.27,2.21.1,6,1.38,6-2.45,0-3.59-2.59-5.71-6.63-5.66-13,.08-26.05.78-38.89-2-13.43-2.88-27-2.78-43.07-2.28,14-5.81,25.86-10.61,37.6-15.59,5.1-2.16,8.12-8.09,14.52-8,11.25.14,22.52.61,33.75.15C762.65,1260.62,764.43,1267.44,762.43,1279Zm.29-43.89c-.87,3.86,0,18.93-3.63,19.77-11.37-3.63-23.19-1-36.08-2.27,12.93-7.5,24.6-14.48,36.52-21C762.38,1230,762.8,1233.71,762.72,1235.06Zm-1.82-21.53c.08,9.73-9,12.5-15.07,14.9C725,1236.72,709.35,1252.78,690,1263c-16.82,8-34.33,13.24-48.83,25.76-.37-20.82.51-41.15,3.82-61.35-1.62-19.07,8.18-35.36,31.93-35.59,19.51-.33,34.15-8.83,50.59-16.89,21.62-10.6,21.93-15.65,32.38-41.47C759.48,1160.13,760.49,1186.82,760.9,1213.53Zm-1.16-649c-17.19,30.47-48.11,53.58-66.33,83.57-7.63,15.08,9.18,11.13,13.83,12,12.43,2.3,24.32,7.59,37.36,7.57,2.42,0-1.07,5.27-2.59,6.93-39.09,41.29-77.77,83.12-116.36,124.85-4.43,6-7.27,3.35-8.37-1.57-3.75-16.71-6.77-33.58-10.31-50.34-10.71-25.06-3.59-24.89,11.23-41.27,20.65-29.12,45.42-55.47,66.73-84.22,30.78-39.45,59.42-79,91.33-117.66C770.59,526.32,769.08,547.56,759.74,564.48ZM870.91,183.29c-.39,3.64-.87,12.05-6.11,11.7-3-.31-1.67-2.76-1.8-4.3q-.27-34.09.07-68.24c0-2.81-2.48-8,2.17-8.26,10.81,1.71,4.41,28.2,6.23,36C873.14,161.46,869.47,172.24,870.91,183.29ZM577.2,1316.05c-2.94,15.51,34.53,60.71,43.52,78,1.88,2.91,8.43,5.48,5.09,9.56-2.75,2.94-5.26-.45-6.84-2-20.79-19-31.45-42.42-45.75-66.55-3.12,27.34-4.73,53,3.45,78.26.3,1.12-1.62,3.79-3,3.85-16-20.75-10.81-51-10.55-75.92.19-8.63,4.75-16.93,3.59-25.73-25.29,13.62-42.62,36.82-61,57.94-5.93,6-7.12,16.12-14,21.32-1.89-14.59,9.53-27.29,17.8-38.15,15.51-22.84,39-36.76,59.61-54.12,7.42-4.39,10.73-46.68,18.89-41.29,2.22.78.94,3,1.41,4.29a54,54,0,0,0,7,13.2c9.35,12.55,13.26,28.36,24.36,39.93,2.36,2.37,3.64,6.68,1.83,10C583.87,1298.15,592.18,1246.83,577.2,1316.05Zm-260.72-98.71c110.23,124.7,296.06,55.89,253.86-118.6C546,1008,449,929.87,353,955.59,237.42,989.71,244.4,1142.23,316.48,1217.34Zm-43.13-151.11C283.77,965.77,394,933.7,472.68,984.13,521.13,1013.55,557.4,1065,565,1121.5c17.61,72.4-36.4,152.81-114.27,149.44C348.72,1271.15,261.51,1166,273.35,1066.23Zm167.92,14.5c-18.34,42.68,19.4,82.59,58.86,93.49-7.93,30-24.74,52.3-52.08,67.25-3.22,2.27-11.7,11.55-3.53,12.94,33.54,11.06,66.56-9.66,86.48-35.69C601.24,1142.07,487.77,1000,441.27,1080.73Zm94.12,44.1c21.85,53-18.9,124.52-79.19,121.72,26-17,51.45-43.28,51.7-75.33-1.34-9.88-12.83-7.82-19.41-11.73-19.25-11.42-37.42-22.36-39.77-48.16-1.32-14.41.67-26.77,10.81-37.15C490.93,1053.06,527.27,1096,535.39,1124.83Zm-138.52-16.94c35.06-1.52,47.71-42.18,30.76-69.53-.75-1.44-6.34-6.07.47-7.06,6.34-.92,13.13-1.25,19.37,0,22,4.13,46.86,10.69,67.12,14.86,3.24-10.88-26.83-34.25-35.72-40.09C433.54,972.7,335,961.13,326.92,1036.61c-.44,12.1,4.06,23.1,9.11,33.48C345.88,1090.33,367.54,1110.73,396.87,1107.89ZM373,992.46c47.89-11.39,91.91,11.64,127.11,42.47-27.76-7.8-52.55-15.8-80.39-9.94-22.59,4.26,24.68,33-3,63C359.11,1132,297,1010.88,373,992.46Zm-74.19,133.07c14.88,51.37,59.81,127.59,123,111.17,51.8-25.51,19.84-94-22.61-112.71-44.28-20.44-43.77,24.54-53.91,16.31a181.56,181.56,0,0,1-38.31-57c-5.89-11.62-.64-25.8-8.27-36.27-1.23.94-3.36,1.73-3.53,2.82C288.86,1075.27,291.46,1100.61,298.79,1125.53Zm49.15,25.79c4.88,2.86,7,3.25,10-3.92,22.87-53.56,91.75,21.35,78.22,59.5-2.8,11.16-16.5,21.43-30.93,22.11-28.05,1.33-43.58-18.24-60.25-35.72-23.68-28.22-38.27-63.7-43.38-99.92C313.34,1115.86,325.12,1138,347.94,1151.32ZM152.28,386.12c-11.46-15.15,68.71-6.25,75.81-4.83,26.67,4,55.15,10.69,76.31,27.67C255.72,394.09,204,381.92,152.28,386.12ZM296.61,844.9A6,6,0,0,1,296,844Zm-72.87-86.26c9.69-12.49,6.59-26.2,4.65-39.36-2.38-16.12-2.29-32.65-7.43-48.34-.87-2.67,1.18-4.1,2.63-5.76,2.45,3.09,6.48,5.91,7.06,9.32,14.4,35.48,30.65,70.16,42.73,106.8C278.9,802.83,293.62,822,296,844c-26.78-40.18-38-87.47-58.63-130.64,8.23,31.05-1.65,64.4,15.07,94.66,15.36,27.8,27.69,57.27,39.44,87.38-21.41-24.6-30.6-56.8-47.2-83.89-.52,1.37-1.81,3-1.44,4,2,5.65-1.44,11.68,1.76,17.32,4.52,7.94.88,17,1.09,25.16.43,16,10.54,26.34,16.25,39.1,6.79,15.17,14.89,29.75,22.3,44.65.41.81-.22,2.14-.36,3.23-15.57-9.17-25.35-38.61-34.71-54.66-1.45,29.18,4,58,5.29,87.18.15,2.75-2.48,8-3.89,8-3.21.06-3.48-4.25-3.79-6.94-5.37-46.24-8.7-87.18-12.76-135.28-15.14,39.07-22.68,74.86-36.05,112.24-4.75-17.71,21.48-108.88,35.73-121.72,3.93-3.61.37-14.15.38-21.51-.43-16.25-1.5-33.2-4.16-49.11-15.78,31.24-26.88,64.29-39.43,96.82-.58,1.43-.61,4.71-3.27,3.77.83-28.68,15.92-57,25.52-84C216.09,772.44,219,764.75,223.74,758.64ZM152.35,386.23a.41.41,0,0,1-.13-.1h.06Z"/></g></g><g id="Red_Japanese_Frames" data-name="Red Japanese Frames"><path class="cls-6" d="M0,20V1580a20,20,0,0,0,20,20H956a20,20,0,0,0,20-20V20A20,20,0,0,0,956,0H20A20,20,0,0,0,0,20ZM924,1548H52V52H924Z"/><path class="cls-7" d="M952.1,15.41,928.69,38.83A4,4,0,0,1,925.86,40H50.14a4,4,0,0,1-2.83-1.17L23.9,15.41A2,2,0,0,1,25.31,12H950.69A2,2,0,0,1,952.1,15.41ZM40,1549.86V50.14a4,4,0,0,0-1.17-2.83L15.41,23.9A2,2,0,0,0,12,25.31V1574.69a2,2,0,0,0,3.41,1.41l23.42-23.41A4,4,0,0,0,40,1549.86ZM936,50.14V1549.86a4,4,0,0,0,1.17,2.83l23.42,23.41a2,2,0,0,0,3.41-1.41V25.31a2,2,0,0,0-3.41-1.41L937.17,47.31A4,4,0,0,0,936,50.14ZM925.86,1560H50.14a4,4,0,0,0-2.83,1.17l-20,20a4,4,0,0,0,2.83,6.83H950.69a2,2,0,0,0,1.41-3.41l-23.41-23.42A4,4,0,0,0,925.86,1560Z"/></g></svg>