<svg id="Card" xmlns="http://www.w3.org/2000/svg" viewBox="0 0 1024 1680"><defs><style>.cls-1{fill:#f2f0ed;}.cls-2{fill:#8c1707;}.cls-3{fill:#38408c;}.cls-4{fill:#16592d;}</style></defs><rect class="cls-1" x="14.5" y="14.5" width="995" height="1651"/><polygon class="cls-2" points="966 1619.17 966 60.83 1018 8.83 1018 1671.17 966 1619.17"/><polygon class="cls-2" points="60.83 58 8.83 6 1015.17 6 963.17 58 60.83 58"/><polygon class="cls-2" points="8.83 1674 60.83 1622 963.17 1622 1015.17 1674 8.83 1674"/><path class="cls-3" d="M909.79,898.12a14.72,14.72,0,0,1-2.29-.18c-20.35-.39-37.85-7.67-54.77-14.7l-1.52-.63c-1.75-.72-2.06-3.44-2.07-3.46a2.09,2.09,0,0,1,.9-2c.77-.51,1.53-1.06,2.28-1.6a25.18,25.18,0,0,1,7.26-4.11,76.77,76.77,0,0,1,22.23-3.59,53.26,53.26,0,0,1,29.91,8.89c7.77,5,8.61,10.39,7.95,14C918.83,895.29,915,898.12,909.79,898.12Z"/><path class="cls-4" d="M895.26,160.93c-17.16,0-38.68-6.09-53.55-15.15l-1-.63,1.11-3.21,14,1.67q23.26,2.79,46.55,5.54a2.75,2.75,0,0,0,.4,0l.62,0,.79,0a5.29,5.29,0,0,1,1.82.27l1.72.55c4.57,1.43,7.06,2.21,6.89,4.44-.28,4.14-4.16,4.76-6.47,5.13-.48.08-.93.15-1.34.25a51.06,51.06,0,0,1-11.5,1.16Z"/><path class="cls-4" d="M908.71,523.69c-.77-.34-1.54-.68-2.31-1l-62.74-29.32-8.15-3.81,5.76-1.26a64.19,64.19,0,0,1,13.79-1.57c24,0,40.36,14.74,56.42,31.15a4.81,4.81,0,0,1,1.06,3.35,7.05,7.05,0,0,0,.06.84l.59,3.64Z"/><path class="cls-4" d="M912.36,145.45c-4-.66-7.52-1.28-10.75-1.84-6.55-1.15-11.66-2-16.85-2.65-8.74-1-17.65-1.89-26.27-2.71-4.6-.45-9.18-.88-13.75-1.35a32.24,32.24,0,0,1-3.67-.66l-1.61-.35-4.13-.8,3.23-2.69c.4-.35.84-.77,1.25-1.19a11,11,0,0,1,4-2.9,58.09,58.09,0,0,1,18.87-3.14c10.83,0,22.11,2.87,35.51,9,2.47,1.15,4.87,2.33,8.2,4l.23.12c1.93,1,4.18,2.06,6.92,3.39l1.16.57-1.09,3.41Z"/><path class="cls-4" d="M886,441.58c-22.39,0-40.68-6.73-55.93-20.59a27.8,27.8,0,0,1-4.5-5.8c-.56-.86-1.14-1.76-1.73-2.58l-3.13-4.31,5.2,1.19c1.11.26,2.23.49,3.34.72l.13,0c2.55.53,5.18,1.08,7.74,1.88,16.52,5.19,38.25,12.06,59.87,19.13a37.46,37.46,0,0,1,6.82,3.28c1,.58,2,1.15,3.06,1.67l5.53,2.83-6.14.93A136.42,136.42,0,0,1,886,441.58Z"/><path class="cls-4" d="M898.64,533.72c-17.8,0-44.91-11.14-62.28-32.44l-.74-.91,2-2.65,76.44,33-5.16,1.6A34.44,34.44,0,0,1,898.64,533.72Z"/><path class="cls-4" d="M895.74,287.55c-3-3.7-5.82-7.38-8.67-11-6.7-8.56-13-16.65-19.84-24.52a134.88,134.88,0,0,0-13.62-13c-1.73-1.5-3.45-3-5.14-4.5a8.78,8.78,0,0,0-1.5-.92c-1.37-.71-3.06-1.6-3.62-3.46a5.1,5.1,0,0,1,.63-4,4.61,4.61,0,0,1,4.15-2.76c1.89,0,3.6,1.22,4.72,2,.29.21.52.37.71.49a123.7,123.7,0,0,1,39.24,36.44,36,36,0,0,1,6.49,24.12l-.49,4.89Z"/><path class="cls-4" d="M894.19,300.64a4.58,4.58,0,0,1-2.13-.45c-21.49-10.57-37-24.76-47.55-43.38a87.23,87.23,0,0,1-5.14-11.67c-.87-2.26-1.86-4.82-3-7.64l-2.89-6.95,6,4.6c17.57,13.54,29.71,27.54,39.27,39.45,3.5,4.35,7.46,8.51,11.28,12.52,2.07,2.17,4.2,4.4,6.24,6.65a12,12,0,0,1,1.7,2.69c.18.34.35.67.53,1l1.73,3-3.44,0a8.59,8.59,0,0,0-1,.08A14.68,14.68,0,0,1,894.19,300.64Z"/><path class="cls-3" d="M870.59,1000.12a15.25,15.25,0,0,1-10.7-4.73c-13.65-13.88-21-31.71-22.63-54.51-.2-2.87.29-4.89,1.49-6.18a4.26,4.26,0,0,1,3.21-1.35,9.36,9.36,0,0,1,5.91,2.81c10.38,10.17,22.15,21.69,31,35.53a5.29,5.29,0,0,1,.65,2.69,6.28,6.28,0,0,0,0,.64l.26,1.81-.34.08c0,.34.09.68.14,1a16.89,16.89,0,0,0,1.26,5.31c2.81,5.46,1.64,11.15-3,14.5A12.17,12.17,0,0,1,870.59,1000.12Z"/><path class="cls-4" d="M870.65,650.11C860,623.46,849,595.81,837.78,567.84l-1.71-4.27,4.29,1.67c7.46,2.89,16.11,9.46,28.82,37.67,7.82,17.34,9.58,33.17,5.24,47.06l-1.68,5.37Z"/><path class="cls-4" d="M909,432.78c-27.5-12.43-55.56-22.44-91-32.48l-5.32-1.51,5.06-2.24A54.34,54.34,0,0,1,839.89,392c28.15,0,57.27,19,71.49,37.71l.71.93L910,433.26Z"/><path class="cls-4" d="M861.78,650.75l-.2-.06c-.63-.18-1.26-.31-1.92-.45-2-.4-4.17-.86-5.58-2.44-1.87-2.09-4-4.18-6-6.21-5.73-5.67-11.65-11.55-13.91-18.73-.29-.94-.6-1.89-.9-2.84-4.41-13.85-9-28.16-3.25-42.74l1.73-4.42,1.95,4.33q2.7,6,5.4,12c4.43,9.92,9,20.18,13.83,30.24a77.71,77.71,0,0,1,3.79,10.17c1.79,5.57,3.63,11.33,7.56,15.86,1,1.14.33,2.67,0,3.32-.36.81-.86,1.92-2.22,1.92Z"/><path class="cls-4" d="M831.49,334.73c-18.75,0-47.71-8.55-64.48-24.41L761.4,305l5.61,1.43L848.1,327.2l4.2,1.08-3.55,2.49C845.08,333.36,839.11,334.73,831.49,334.73Z"/><path class="cls-4" d="M855.14,327.69c-22.38-10.09-44.83-16-66.53-21.72-7.37-1.94-15-3.94-22.37-6.06L763,299l2.41-2.41c4.08-4.06,10.24-6.12,18.31-6.12,20.52,0,49.4,13.3,73.57,33.9l1,.84-1.93,3Z"/><path class="cls-4" d="M747.86,661.54c1.77-33.78,7.66-68,18-104.6l1.69-6,2.11,5.89c5.49,15.33,6.38,38.22,2.38,61.23-4,22.85-12.11,40.23-21.22,45.34l-3.17,1.78Z"/><path class="cls-4" d="M704.12,499.76c12.25-14.86,24.13-29.27,36-43.66a11,11,0,0,1,2-1.79c.27-.2.53-.39.77-.59l2.24-1.84.92,2.75c.07.19.15.37.22.56a6.83,6.83,0,0,1,.58,2c1.06,10.19-5,24.23-15.77,36.61-11.11,12.76-24.23,20.6-35.1,21l-4.44.15Z"/><path class="cls-4" d="M735.18,668c-6.61-11.67-7.86-21.59-8.23-30.58a150.94,150.94,0,0,1,1.18-29.35c1.74-11.22,4.58-20,9-27.64,3.34-5.81,6.95-11.57,10.44-17.14,1.53-2.44,3-4.8,4.47-7.17l.66-1.08,3.26,1.32-.27,1.24c-7.81,35.66-15,70.87-16.72,109.5l-.32,6.93Z"/><path class="cls-4" d="M690.38,510.52v-1.26c.28-35,14.51-54.58,44.78-61.66l5.2-1.21-3.12,4.33a246.37,246.37,0,0,1-15.69,19c-10.49,11.88-21.32,24.14-27.29,40.25l-.44,1.18Z"/><path class="cls-4" d="M666.07,418.35c6.44-12.49,14.77-23.25,22.82-33.66,5.23-6.76,10.63-13.73,15.34-21l2.34-3.6,1.25,4.11c4.69,15.44-12.77,40.91-38.93,56.78l-6.07,3.68Z"/><path class="cls-3" d="M636.67,1054.66a113.75,113.75,0,0,1-22-2.16l-2.95-.58,1.68-2.5c12.79-19,31.87-29,58.33-30.51.49,0,1,0,1.44,0,9.07,0,14.19,5.18,14.43,14.57.18,7-4.45,12.06-13.76,15.11A119.42,119.42,0,0,1,636.67,1054.66Z"/><path class="cls-4" d="M655.8,420.4l0-1.17c-1.51-33.86,16.37-59.57,44.49-64l4.87-.76-3,3.94c-3.5,4.65-7.14,9.28-10.66,13.75C680,386.71,668.2,401.74,659.56,420l-.5,1.06Z"/><path class="cls-3" d="M612.6,870.79a39.87,39.87,0,0,1-7.82-1c-1.28-.25-2.6-.51-3.87-.69l-3.3-.47,2-2.69c.74-1,1.45-2.1,2.14-3.16a33.41,33.41,0,0,1,5.53-7c14.32-12.76,28.85-19.67,44.42-21.13l.21,0,.26,0c1.74.3,3.46.53,5.13.76a56.19,56.19,0,0,1,12.11,2.52c2.63,1,10.65,3.91,10.11,10.86-.5,6.72-6.28,9-10.93,10.88-.82.33-1.56.63-2.26.94-16.57,7.36-34.27,9-52.45,10.2C613.43,870.78,613,870.79,612.6,870.79Z"/><path class="cls-3" d="M617.28,773.08c-1.2,0-2.42,0-3.62-.11a3.18,3.18,0,0,0-.41,0q-.35,0-.66,0l-18.68-1.52,2.89-3c1.22-1.28,2.41-2.57,3.61-3.86l.09-.1c2.72-2.93,5.52-6,8.5-8.76,12.84-12,29-17.88,41.75-21.61a43.87,43.87,0,0,1,11.74-1.81c4,0,7.06.8,9.15,2.39,4.17,3.16,6.14,6.51,5.87,10-.43,5.56-6.5,9.51-11.74,12.33C651.67,764.48,635.68,773.08,617.28,773.08Z"/><path class="cls-3" d="M611.08,966.35c-3.06-.48-6.24-1-9.43-1.44-1.85-.27-3-1-3.35-2.25-.24-.79-.22-2,1.23-3.31,12.86-11.66,28.82-24.1,49.69-28a32.11,32.11,0,0,1,5.85-.55c8.72,0,14.3,4,15.29,11.08,1.31,9.36-6.54,12.46-12.85,15-1.3.51-2.76,1.09-4,1.68-11.89,5.58-24.26,7-37.37,8.47l-.57.07Z"/><path class="cls-4" d="M666.92,588.77c-14.64,0-33.89-10.47-47.89-26-11-12.24-16.67-25.37-15.53-36l.35-3.24,2.73,1.77c24.92,16.13,47.21,35.58,68.13,59.47l2.18,2.48-3.2.78A28.48,28.48,0,0,1,666.92,588.77Z"/><path class="cls-3" d="M625.16,1149.18a149.81,149.81,0,0,1-23.28-2.27l-1.83-.33-3.64-.68,1.21-2.38c.1-.21.19-.44.28-.66a6,6,0,0,1,1.37-2.3c12.2-11.71,27.69-18.49,48.73-21.33a20.33,20.33,0,0,1,2.71-.18c7.45,0,15.17,4.13,15.51,12s-7.2,10.38-13.26,12.46c-1.21.42-2.32.8-3.35,1.2a69,69,0,0,1-7.88,2.4c-1.16.3-2.28.59-3.4.91l-.07,0-.08,0A73.27,73.27,0,0,1,625.16,1149.18Z"/><path class="cls-3" d="M624.64,1245c-10.11,0-20.34-1.88-30.23-3.69-3.66-.68-7.43-1.37-11.16-2l-3.92-.63,2.83-2.78c12.54-12.29,27.65-20.12,46.19-24l.9-.19a55.55,55.55,0,0,1,11.37-1.55,21,21,0,0,1,13.55,4.52c5,4,7.41,8.75,6.74,13.48-.72,5.08-4.88,9.42-11.71,12.2A64,64,0,0,1,624.64,1245Z"/><path class="cls-4" d="M678,580.21c-23.18-26.67-43.23-44.84-65-58.91l-4.27-2.75,5-.9a38.1,38.1,0,0,1,6.63-.6c22.93,0,44,21.12,61,61.07l.5,1.18-3,1.88Z"/><path class="cls-4" d="M624.71,362.54a6.45,6.45,0,0,1-1.17-.1C603.93,359,581,333,577.2,309.85l-.91-5.56L580.5,308c4,3.58,8,7.08,11.86,10.52l.09.09c9.62,8.53,18.71,16.59,27.77,24.84a109.35,109.35,0,0,1,8.43,9c.94,1.08,1.88,2.16,2.84,3.22a4.9,4.9,0,0,1,1,2.22c0,.19.09.36.15.53l.77,2.14-2.22.48c-.64.14-1.34.36-2,.57A14.9,14.9,0,0,1,624.71,362.54Z"/><path class="cls-4" d="M603.92,268.33l.33-1.13c7.07-24.8,13.57-47.57,21-73.77l.32-1.12,3.29.09.26,1.14c6.81,30,.37,52.61-21.55,75.59l-.81.85Z"/><path class="cls-4" d="M629.13,343l-48.07-44.09-.91-.83,1.78-2.94,1.16.42c22.77,8.2,37.48,21.68,49.18,45.08l.56,1.11-2.78,2.1Z"/><path class="cls-4" d="M594.22,271.17l-.16-1.27c-3.44-26.75,1.9-49.42,16.82-71.34l.72-1.07,3.21,1.52-.36,1.23A653.14,653.14,0,0,0,598,270l-.23,1.26Z"/><path class="cls-4" d="M540.19,704.58c1.49-7.72,3.09-15.38,4.65-22.78,3.88-18.48,7.54-35.93,9.44-53.79.3-2.82.66-5.7,1-8.48,1-7.78,2-15.78,1.81-23.63a8.15,8.15,0,0,1,.74-3.15c.13-.34.26-.66.35-1l.94-3.14,2.36,2.27a10.56,10.56,0,0,0,.85.69,6.72,6.72,0,0,1,2.46,2.87c9,25,11,45.62,6.14,64.78-6.72,26.68-8.52,28.46-25.7,45.48L539,710.94Z"/><path class="cls-4" d="M561.93,172c-18,0-35-7-53.54-21.91l-1-.78,1.62-3L577.39,167l-.17,3.31-1.15.22A73.21,73.21,0,0,1,561.93,172Z"/><path class="cls-4" d="M534.8,698.88c-15.58-30.67-15.1-59.71,1.48-88.77a41.92,41.92,0,0,0,1.85-3.91c1.87-4.29,3.63-8.34,7-8.34a3.7,3.7,0,0,1,1.34.25,4.55,4.55,0,0,1,2.69,2.37c1,2.15,0,4.68-1,7.13a14.2,14.2,0,0,0-1.27,4.5c.2,15.24-1.89,29.85-4.1,45.32-1.89,13.15-3.84,26.75-4.18,40.59l0,1.17-3.22.73Z"/><path class="cls-4" d="M581.63,162l-78.19-24.73-6.95-2.2,7.09-1.66a80.86,80.86,0,0,1,18.37-2.2c20.56,0,40.13,8.7,61.59,27.37l.92.8-1.67,3Z"/><path class="cls-3" d="M525.79,1374.83a8.52,8.52,0,0,1-2.21-.3c-8.12-2.13-9-11.2-9-15-.1-19.17,1.09-41.58,10.71-62.51,1.48-3.22,3.1-6.41,4.66-9.51l2.13-4.24,1.43-2.89,1.95,2.57c10.13,13.32,9.76,29,9.44,42.81-.07,3.13.13,6.41.33,9.57.69,10.88,1.41,22.13-8.24,32-.48.49-1,1-1.42,1.5C532.78,1371.78,529.94,1374.83,525.79,1374.83Z"/><path class="cls-4" d="M445.76,594.24c0-.37,0-.74-.06-1.12a9.1,9.1,0,0,1,.2-3.45c6.77-21.12,23.83-32.53,40.32-43.56,3.49-2.34,7.76-3,12.7-3.77,2.32-.36,4.72-.73,7.21-1.31l1.18-.27,1.45,3.07-1,.74c-3.87,3-7.73,5.85-11.47,8.64l-.13.09c-12.61,9.39-24.51,18.27-34.74,29.08-1.87,2-3.65,4.19-5.37,6.32-1.16,1.45-2.47,3.06-3.79,4.58a11.11,11.11,0,0,1-2.44,2c-.33.21-.63.4-.92.61l-3.18,2.34Z"/><path class="cls-4" d="M426,490.74c-1.93-9.2,2.44-21.22,12-33,14.43-17.78,36-30.19,52.5-30.19a33,33,0,0,1,3.75.21l5.17.61-4.26,3c-26.28,18.58-47.76,38.27-65.64,60.19l-2.65,3.25Z"/><path class="cls-4" d="M451.72,598c17-15,35.4-30.73,56.13-45l1-.66,2.48,2.19-.53,1c-13.45,26-28.38,43.79-57.57,45.94l-5.95.43Z"/><path class="cls-3" d="M480.27,1016.49c-1.09-.18-2.23-.31-3.34-.44a41.43,41.43,0,0,1-7.62-1.36c-15.24-4.72-30.89-11.1-42-25.71-4.11-5.37-5.31-11.16-3.58-17.18a10.4,10.4,0,0,1,3-4.67l.26-.25.19.18.41-1.4,3.25.71c11.29,2.45,18.75,4.08,24.46,11.25,4,5.09,8.29,10.17,12.4,15.09,3.18,3.82,6.45,7.73,9.62,11.64.43.53.92,1,1.44,1.59,2,2.08,4.43,4.66,3.81,8.86l-.3,2Z"/><path class="cls-3" d="M475,900.76c-26.56-3.08-43.18-12.36-53.92-30.1-2.27-3.74-3.33-8.47-.58-10.62l.43-.35c2-1.6,4.55-3.59,8.2-3.59a11.67,11.67,0,0,1,3.88.7c17.54,6.16,31.91,17.71,45.24,36.36a22.11,22.11,0,0,1,1.63,2.78c.21.4.41.79.63,1.18l1.37,2.42-6.58,1.25Z"/><path class="cls-4" d="M443.8,491.52a4.5,4.5,0,0,1-4.08-2.62,4.89,4.89,0,0,1-.54-4.07c.72-2,2.76-2.84,4.56-3.58a9.19,9.19,0,0,0,2.11-1c10.77-9.25,21.8-18.6,32.46-27.63l11.21-9.5,2.69,2.25-.63,1.09c-10,17.2-20.26,35-40.85,42.19a12.62,12.62,0,0,0-1.92,1C447.3,490.51,445.6,491.52,443.8,491.52Z"/><path class="cls-3" d="M466.05,1131.34h-.27l-.11,0c-21.35-4.75-42.81-12.2-55.14-34.32-2.86-5.13-4-13.29,2.19-19.42a7.43,7.43,0,0,1,5.3-2.44c2.17,0,4.09,1.09,5.79,2a16,16,0,0,0,3,1.46c17.41,5.41,28.91,18,40,30.22,1.73,1.9,3.45,3.78,5.19,5.64,2.34,2.5,3.43,5.89,4.49,9.17.44,1.37.9,2.78,1.43,4l1,2.53-2.73.23-9.93.87h-.31Z"/><path class="cls-3" d="M465.5,1233c-24.24,0-45.28-7.38-64.33-22.57-3.71-3-5.83-7.83-7.84-13a7.85,7.85,0,0,1,1-7.48,12,12,0,0,1,9.55-5,9.75,9.75,0,0,1,3.33.57c1.94.7,3.93,1.32,5.85,1.92l1.92.6c23.45,7.43,40.28,23.15,58.31,41.4l3.13,3.17-4.44.24C469.81,1232.89,467.63,1233,465.5,1233Z"/><path class="cls-4" d="M409.74,364.79c6.44-18.77,30.55-35.3,52.66-36.09l2.3-.08-.24,2.29c-.6,5.6-5,6.68-7.84,7.4a10.47,10.47,0,0,0-3.53,1.29c-9.5,6.91-19.07,13.29-29.21,20q-5.53,3.69-11.13,7.46l-4.95,3.34Z"/><path class="cls-4" d="M414,372.69a279.16,279.16,0,0,1,65.25-38.88l4.74-2-2.13,4.69c-9,19.89-42,39.59-66.6,39.77l-5.75,0Z"/><path class="cls-3" d="M468.37,792.21c-3.27-1-6.62-1.84-9.85-2.69-7.43-1.95-15-3.95-22.09-7-19.73-8.59-23.8-18-25.18-26-.74-4.31-.09-7.72,1.95-10.14s5-3.49,8.92-3.49a24.31,24.31,0,0,1,3.6.29C439.5,745.32,469.06,776,470.91,790l.41,3.05Z"/><path class="cls-4" d="M405.46,258.54c9.49-12.81,18.47-24.91,27.6-37a24.82,24.82,0,0,1,4.73-4.39c.71-.55,1.43-1.11,2.08-1.67l3.49-3-.18,4.62c0,.89,0,1.85,0,2.79a19,19,0,0,1-.61,6.91c-6.78,19.87-19.31,35-37.22,44.85a13.72,13.72,0,0,1-4,1.23c-.73.14-1.56.31-2.47.54l-5.44,1.38Z"/><path class="cls-4" d="M381.24,273.62l.56-1.23c2.64-5.9,4.81-11.79,6.91-17.49,5.37-14.6,10.45-28.39,22.24-38.76a92,92,0,0,1,11.92-8.45l2.79-1.77a4.33,4.33,0,0,1,2.42-.63,13.37,13.37,0,0,1,1.85.17l.76.09,1.12.11.52,1.06c.17.35.86,2.75-.17,4.16-13.08,17.77-26.37,35.74-40.45,54.75l-7.28,9.85Z"/><path class="cls-3" d="M345.38,633.07c-1.27,0-2.55,0-3.82-.09L339,633c-11.52-.1-21.48-.2-31.13-3.89-1.46-.56-3.48-1.53-4.21-3.48s.26-3.77,1.05-5.22c.13-.26.27-.51.41-.77,7.55-15,21.66-18,35.3-20.88,1.71-.37,3.42-.73,5.09-1.11a74.29,74.29,0,0,1,16.47-2,49,49,0,0,1,18.68,3.48c3.07,1.26,11.24,4.6,10.16,13.39-.85,7.07-6.37,9.89-11.71,12.62A74.22,74.22,0,0,1,345.38,633.07Z"/><path class="cls-3" d="M295.89,532.91a10.64,10.64,0,0,1-2.81-.49c-.4-.1-.79-.21-1.18-.28l-2.21-.41.66-2.15a11.89,11.89,0,0,0,.27-1.19,7.08,7.08,0,0,1,1.54-3.72c17-18,35.61-27.12,56.73-27.92h.22c1,.11,2,.15,2.91.19a17.56,17.56,0,0,1,6.41,1.07c.51.23,1.07.46,1.65.69,3.85,1.56,9.09,3.69,8.38,8.72-.93,6.67-7,9.41-11.82,11.62-1,.45-1.9.86-2.75,1.29-15.37,7.71-32.18,9.63-48.44,11.48-3,.34-5.91.68-8.85,1A5.52,5.52,0,0,1,295.89,532.91Z"/><path class="cls-3" d="M300.57,858.82a11.52,11.52,0,0,1-1.18-.05,26.54,26.54,0,0,1-6.21-1.56c-.81-.28-1.6-.55-2.39-.78L288,855.6l1.81-2.32c.43-.55.83-1.11,1.24-1.68a23.07,23.07,0,0,1,3.38-4.05c16.22-14.42,33.53-21.78,52.92-22.51h.76c7.59,0,14,4.29,16.33,10.94,2.5,7.11-4,9.73-7.89,11.29a28.39,28.39,0,0,0-2.74,1.21c-12.94,6.87-27.27,8-41.13,9l-4.74.37c-.69.09-1.47.23-2.25.36A29.83,29.83,0,0,1,300.57,858.82Z"/><path class="cls-3" d="M312.26,757.57c-8,0-16.42-.57-23.84-1.06l-4.09-.28,2.72-3.05c15.91-17.86,33.08-26.55,52.48-26.55a69.78,69.78,0,0,1,9,.61c6.66.87,13.25,5.07,13,12.5-.31,8.35-7.32,10.44-13,12.11-1,.29-1.91.57-2.8.87C336.09,756,325.44,757.57,312.26,757.57Z"/><path class="cls-3" d="M306.5,969.56a60.17,60.17,0,0,1-24.46-4.7c-2.48-1.08-3-2.73-3.14-3.61a3.8,3.8,0,0,1,1.51-3.47c13.23-10.06,29.74-20.41,52-20.9h.12l.13,0c1.59.24,3.25.35,5,.46,7.47.49,16.76,1.11,18.82,12.21a11.87,11.87,0,0,1-1.89,9.54c-2.82,3.83-8.32,6.26-16.33,7.22-2.83.33-5.75.74-8.32,1.09C322.24,968.48,314.34,969.56,306.5,969.56Z"/><path class="cls-4" d="M324.26,303.34V222.42l3.35-.69.49,1.12c10.72,24.92,17,45.26,0,80.18l-.53,1.07Z"/><path class="cls-4" d="M313.88,305.33c-18.72-25.27-10.8-51.68-.25-78.78l.45-1.16,3.41.65V310.2Z"/><path class="cls-4" d="M254.88,372.23l6.53,1c9.38,1.51,22,8.09,32.09,16.78,11.45,9.83,17.69,20.5,17.13,29.26l-.28,4.19Z"/><path class="cls-4" d="M303.1,432.72c-10.61,0-24.82-7.88-36.19-20.06-10.33-11.08-15.88-22.94-15.22-32.57l.44-6.31,3.27,5.42c4.44,7.35,10.75,12.63,16.86,17.73,3,2.52,6.13,5.12,9,7.95,5.86,5.78,12.11,11.39,18.16,16.81,2.71,2.43,5.42,4.86,8.1,7.3l3,2.76-4,.69A19.75,19.75,0,0,1,303.1,432.72Z"/><path class="cls-4" d="M253.51,141.21c-18.57,0-42.72-6-68-16.82l-1.13-.49.71-3.36h1.23a518.65,518.65,0,0,1,95.16,9.16l4.15.81-3.26,2.69C275.94,138.52,266.23,141.21,253.51,141.21Z"/><path class="cls-3" d="M222.35,1110.75a13.27,13.27,0,0,1-1.86-.14c-9.21-1.35-10.33-9.72-11.23-16.44l-.1-.78a32.62,32.62,0,0,1-.12-5.12c0-1.25.06-2.69.06-4.51v-.1c1.68-24.09,6.47-44.21,14.65-61.52,1.25-2.64,2.87-3.19,4-3.19,2.68,0,4.42,3,4.83,4.53,2.63,9.15,4.73,17.62,6.41,25.9,3.06,15,5.16,32.67-2.46,49.51C232.11,1108.69,226.38,1110.75,222.35,1110.75Z"/><path class="cls-4" d="M277.87,122c-20.71-3.34-42.13-6.8-63.85-6.8a177.59,177.59,0,0,0-25,1.68l-7.17,1,5.63-4.55c11.21-9,27.15-10.93,38.55-10.93,22.06,0,46.66,7.5,53.72,16.38l3.21,4Z"/><path class="cls-4" d="M158.1,239.05a85.26,85.26,0,0,1-15-1.41c-4.62-.83-9.21-2.06-13.65-3.24l-2.74-.74a4.79,4.79,0,0,1-2.43-1.86c-.18-.21-.31-.39-.46-.54l-1.75-1.72,2-1.36c.18-.13.36-.28.55-.44a5,5,0,0,1,2.77-1.43c18.16-1.55,37.61-3.14,63.07-5.16a5.17,5.17,0,0,1,.57,0,15.15,15.15,0,0,1,2.2.22c.53.07,1.14.16,1.88.24l4.63.5-3.54,3A56.6,56.6,0,0,1,158.1,239.05Z"/><path class="cls-3" d="M187.18,638.94c-19.6-2.14-42.61-18.93-44.31-39.61-.06-.66-.13-1.33-.2-2-.49-4.81-1.17-11.37,4.55-13.56a12.85,12.85,0,0,1,4.59-.89c6.11,0,10.38,4.71,14.14,8.86.66.73,1.31,1.45,2,2.12,10.6,11,21.22,23.22,24.6,39.93.24,1.18.45,2.88-.53,4.08a3.14,3.14,0,0,1-2.55,1.1c-.29,0-.6,0-.91-.06a4.64,4.64,0,0,0-.48,0l-.35.14Z"/><path class="cls-3" d="M186.75,854.67c-.33,0-.66,0-1,0H184a10.12,10.12,0,0,1-4.12-.68,108.27,108.27,0,0,1-43.42-34.19c-2.73-3.59-3.73-8.27-4.69-12.79-.42-2-.84-3.92-1.38-5.72l-.13-.41.06-.42c.4-3.25.91-7.3,4.6-8.78a9.58,9.58,0,0,1,3.58-.69,13.44,13.44,0,0,1,6.85,2.14c22.2,13.15,33.72,34,42.87,54.61a9.29,9.29,0,0,1,.61,3.51c0,.43,0,.82.08,1.2l.27,2.39Z"/><path class="cls-3" d="M183.58,755.05c-13.7-4.69-28-10.17-39-20.89-9.5-9.28-18.74-20.91-15.27-36.84,1.77-8.11,6.83-9.32,9.7-9.32,4.64,0,9,2.93,10.72,4.19,16.05,12,27.19,28.34,33.1,48.41.72,2.47,1.37,4.88,2.12,7.67.37,1.38.76,2.82,1.18,4.36l1,3.65Z"/><path class="cls-4" d="M153.77,479.88l.54-1.11c4.26-8.69,6.58-17.86,8.82-26.72,2.54-10,4.94-19.52,9.9-28.51v-1c0-3.71,0-8.33,4.82-11.08l2.08-1.2.8,2.26a32.34,32.34,0,0,0,1.55,3.49c1.46,3,3,6.07,2.24,9-.64,2.64-1.24,5.33-1.82,7.92-3.29,14.76-6.7,30-18.23,41.95-1.2,1.23-2.48,2.33-4.1,3.72-.87.75-1.83,1.58-2.93,2.56l-.93.81Z"/><path class="cls-4" d="M117.5,326.11c8.81-17,29.59-27.19,55.6-27.19a105,105,0,0,1,15.17,1.13l1.23.18.14,3.47-1.21.28c-20.76,4.76-38.71,12.37-56.06,19.72-4.06,1.73-8.21,3.49-12.33,5.18L115,331Z"/><path class="cls-3" d="M171.29,969c-20.48-1.49-46.1-15.79-53.29-39.39-1.55-5.07,2-9.32,3.86-11.6a6.28,6.28,0,0,1,4.83-2.64c1.84,0,3.44.93,5.2,2,18.65,11.88,31.88,28.9,43.84,45.31.9,1.25,1.84,2.88,1.06,4.46s-2.74,1.69-4,1.71a7.52,7.52,0,0,0-.89,0l-.21.05h-.39Z"/><path class="cls-4" d="M144,486.74c-.24-.37-.52-.73-.81-1.11a8.86,8.86,0,0,1-2-3.63c-6.38-31.3,1.74-55.84,24.84-75l5.21-4.33-2,6.47c-1,3.13-2,6.15-2.91,9.11l0,.15c-2.09,6.46-4.05,12.54-5.74,18.7-2.8,10.16-5.44,20.5-8,30.49l0,.17c-1.21,4.71-2.41,9.41-3.63,14.11-.28,1.1-.6,2.17-.92,3.2l-1.57,5.33Z"/><path class="cls-4" d="M117.05,217.77l1-.7c1.36-1,2.73-2.08,4-3.13a48.69,48.69,0,0,1,9.68-6.54,50.36,50.36,0,0,1,21.73-4.69c10.62,0,20.89,2.72,31.75,5.6,2.25.6,4.51,1.2,6.78,1.77l1.14.29,0,3.33L192,214c-11.29,2.64-22.52,2.85-33.38,3-8.87.16-18,.33-26.81,1.88a5.7,5.7,0,0,1-.95.08l-.77,0-.52,0-.26,0c-2.61.43-5.25.91-7.8,1.37l-3.12.57Z"/><path class="cls-4" d="M137.47,337.55c-5.71,0-11.54-.26-18-.58l-1.32-.07-.27-3.63,1.29-.26c13.28-2.69,24.83-7.22,36-11.6s21.91-8.6,33.58-10.67l4.69-.83-2.69,3.93C177.27,333.52,159.71,337.55,137.47,337.55Z"/><polygon class="cls-2" points="6 8.83 58 60.83 58 1619.17 6 1671.17 6 8.83"/><path d="M1024,8V1672a8,8,0,0,1-8,8H8a8,8,0,0,1-8-8V8A8,8,0,0,1,8,0H1016A8,8,0,0,1,1024,8Zm-8,1658.34V13.66l-48,48V1618.34ZM962.34,56l48-48H13.66l48,48H962.34ZM13.66,1672h996.68l-48-48H61.66ZM960,1616V64H570.07c5.57,6.72,11.5,12.91,18.53,17.27,9.83,6.1,24.16,7,36.14,11.52,14.52,5.49,29.1,10.51,43.34,17,15.12,6.91,31.19,12.68,44.9,21.64,14.7,9.61,28,9.06,44,5.94,21.69-4.23,44-3.06,66.17-2.49,6.08.15,5.15-7,9.83-9.6,9.53-5.34,18.55-6.66,29.46-7.54,16.63-1.34,29.43,5.51,43.12,11.33a40.93,40.93,0,0,1,20.57,18.58c3.75,7.33,1.78,12.07-8.1,16.08-14.44,5.85-28.11,5.75-42.43,3.23-17.26-3-34.55-6.54-47.42-19.94-2.76-2.88-5.81-2.06-8.64-2.06a548.79,548.79,0,0,0-69.59,4.26,3.58,3.58,0,0,0-2.47,2.18c-.52,2.78,2.07,1,3.07,1.76,18,14,36.17,27.92,54.18,42,8.77,6.84,17.32,14,26,20.93.48.38,1.38.87,1.71.68,19.28-11.2,30.25,5.64,42.31,14.1,16.73,11.75,28.95,28.07,32.48,49.37,1.47,8.88-.37,18.93-6,23.44-6.24,5-16.41,1.12-23.78-3.21-16.57-9.72-31.37-21.84-39.4-39.7-4.48-10-9.22-19.84-11.06-31.35-1.39-8.75-12.42-13.69-19.94-19.5-9.08-7-18.6-13.54-27.18-21.12-13.08-11.53-28.21-20-42.62-29.45-16.07-10.55-32.4-21.19-49.85-29-25.94-11.67-52-23.51-79.5-31.31-3.51-1-6.82-2.69-11.54-4.58,12.24,17.5,23.73,33.83,35.1,50.23,21.47,31,39.47,64,57.19,97.17,7.69,14.37,13.54,29.72,20.72,44.38,3.61,7.39,11.51,2.6,17.22,4.13,13.73,3.65,26.64,5.36,42.21-2.18,20.5-9.93,43.79-3.64,64.15,7.78,11.08,6.21,22,12.95,29.17,23.72,2.77,4.17,5.46,10.75,4,14.76-1.8,5.06-8.75,6-14.63,6.79-16,2.18-32,2.43-47.38-2.32-18.37-5.66-36-13.31-47.17-30.32-4.16-6.3-11-2.5-16.38-5-5.9-2.79-13-3.1-19.59-4.39a13.08,13.08,0,0,0-3.44.26c1.34,3.7,2.27,7.62,4.08,11.08,12.4,23.74,25,47.38,37.51,71,2.44,4.6,7.83,4.85,11.45,5.05,10.72.6,21.34,2.32,30.7,6.78,8,3.8,10.88-3,16-4.65,17.77-5.67,35.06-5.62,52.64.74,16,5.78,29.42,15,41.28,27,6.85,6.92,12.89,15.13,9.72,24.51-3.49,10.36-15.58,9.87-23.64,9.54-15.86-.64-32.07.17-47.27-8.26-15-8.3-27.35-18.4-37.24-32.26-6-8.41-16.92-7.36-25.53-10.74-4.14-1.62-8.94-1.53-13.43-2.3-2.17-.37-4.31-.92-6.46-1.39.62,2.2.85,4.62,1.94,6.56,10.08,18,21,36,26.16,55.76,4.74,18,17.5,23,31.73,26.61,5.6,1.44,12.58-2.25,18.88-3.84,23.74-6,41.57,4.42,57.91,20.07,7.64,7.3,15.68,13.51,19.71,24.25,4.59,12.22-5.49,14.29-11.06,15.59-14.87,3.48-29.54.2-43.71-6-18.09-7.92-31-20.89-41.86-37-3-4.46-10.55-5.86-18.44-9.91,7.9,19.92,16.84,37.12,21.38,55.41,4.42,17.81,22.29,18.1,31.33,29.39,10.78,13.45,16.23,28.61,20,45.1,3.57,15.73-.54,30.65-2.06,45.92-.5,5.05-3.9,4.85-6.36,4.08-16-5-47.21-30.66-49.82-54-1.94-17.36-2.32-33.14,2.57-50.29,2.18-7.68-6.75-18.51-10.62-27.91-6-14.65-12.09-29.27-17.9-44-.82-2.06-2-3.53-3-1.36-7.87,16.74-17.47,33.23-20.29,51.42-1.35,8.71,5.51,18.56,8.1,28,4.18,15.29,3.69,30.33.07,46.06a172.88,172.88,0,0,1-13,37.39c-2.44,5-4.88,11.12-9.16,13.84-11.63,7.4-10.5,18-9.87,29s.91,22.34,1.11,33.52c.33,17.77,6.67,34.43,9.33,51.73,2.26,14.68,5.85,29,8.41,43.61,3,16.75,9.81,29.58,26.06,36.74,8.13,3.57,10.35,14.62,23,14.28,15.27-.42,27.9-4.8,41.27-11.32,17.12-8.35,56.28-7.15,66.61,16.66,2.29,5.3,2.42,10.73,0,15.64-2.94,5.89-8.7,8.75-15,9.13-18.39,1.12-35.44-4.91-52.43-10.86a12.46,12.46,0,0,1-4.78-3.84c-8.87-10.29-20.47-5.79-31.23-6-1.67,0-3.32-.85-5-1.31,1.07,1.89,2,3.89,3.25,5.66,6.9,9.86,12,20.6,16.94,31.56,1.88,4.18,7.8,6.59,12,9.67,13.74,10.13,27.82,21,34.12,36.8,4.22,10.61,9.68,24,2.14,35.48-6.09,9.26-27.62,4.94-34.84-5.12C839.51,982,829.92,964,832,945.51c2.09-18.74-6.31-30.72-15.3-43.69-9.09-13.13-19-25.75-32.83-34.36-1,3.57,7.64,25,9.76,33.73,4.19,17.39,14.42,32.37,17.79,50.06,1.79,9.38,7.36,18,10.49,27.18,6,17.66,11.36,35.53,17.27,53.22,4.6,13.77,10.31,27.2,14.33,41.13,11.08,38.38,20,77,20,117.53,0,21.62-2,42.48-10.61,62-8.49,19.24-24.52,32.81-40.33,46.1-1.82,1.53-4.63,1.95-7,2.7-17.36,5.41-12.75,21.52-15.12,33.33-3.73,18.55-9.06,37-7.35,56.47,1.87,21.27,6.92,39.85,27.67,51.07,19.86,10.74,41.48.18,44.44-22,1.06-7.9,3.24-15.31-2-22.53-.59-.82.51-2.86.82-4.34,2.37,1.39,5.58,2.2,7,4.25,11.27,16.79-5.26,53.43-27.16,58.47-28.87,6.65-56.85-20.14-60.92-45.81-3.77-23.79-2-47.15,3.79-70.42,2-8.06,2.88-16.39,4.24-24.6.56-3.38-1.2-3.49-3.81-2.8-13.8,3.68-28.13,5.8-41.47.45-8.27-3.32-13-12.5-14.45-21.36-3.89-23.39,15.84-46.38,38.9-46.33,15.1,0,33.59,18.73,32.75,34.73-.61,11.69,4,12.42,11.55,6.87,26.25-19.17,44.3-43.58,45.48-77.44.76-21.73.64-43.66-3.26-65s-8.14-42.71-15.12-63.43c-6.76-20.06-12.05-40.6-18.81-60.65-7-20.65-15-40.92-22.43-61.42-11.13-30.82-23.47-61.29-32.57-92.71-4.2-14.51-17.07-14.69-25.32-21.9-10.73-9.38-17-20.93-20.89-33.27a139.66,139.66,0,0,1-6.69-48.24,192.29,192.29,0,0,1,17.36-71.44c4.89-10.7-3.33-14.77-6.41-20.66-10.06-19.19-9.37-39.06-7.49-59.49,2.48-27.08,15.54-48.82,34.93-66.51,13.88-12.67,17.28-29.75,23.92-45.64a42,42,0,0,1,5.94-9.89c13.94-17.48-2-30.41-6.68-45.05-.34-1.06-1-2-1.41-3-3.61-8.72-6.72-12.45-7.44-11.17-4.14,7.32-15,9.32-14.64,20.43.73,21.59-3.68,40.75-22.27,55.65-12,9.61-23.82,17.35-39.15,17.41-7.48,0-10.47-6.2-10.39-13.27.22-21.1,4.41-41,21.73-55,11.61-9.39,25.21-14.43,40.55-16.38,8.83-1.12,14.33-10.74,19-18.2,2.12-3.39-2-8.84-4.12-13.35-9.23-19.35-22.24-36.73-29.46-57.1-.62-1.77-1.1-6.16-3.83-4.71-4.44,2.35-10.9,6.48-9.28,11.32,4.93,14.74-1.59,26.89-7.73,38.48-10.46,19.75-28.19,31.69-48.77,39.69-6.83,2.66-15.22-5.67-14-15.77,1.48-11.89,2.64-23.94,7.69-35.18,9.61-21.38,28.1-34.63,52.42-34.63,9,0,15.69-14,11.16-23.07-9.28-18.54-18.11-37.3-27.63-55.71-9.94-19.22-21.41-37.71-30.4-57.34-5.39-11.76-13.28-21.75-19.1-33.08-1-1.95-2.44-6.51-5.06-4-2.36,2.27-5.21,7.28-2.66,10.73,8,10.9,9.4,22.25,8,35.7-2.36,22.13-12.71,38.95-28.44,53.43-3.3,3.05-7.06,6.31-11.64,4.9-7-2.14-11.14-6.47-12.82-14.71-4.49-22.08,1.58-42.06,10.7-61.29,4.08-8.62,11-15.9,19.08-21.69,10.25-7.35,11.65-23.23,4.2-33.47q-22.2-30.56-43.44-61.82c-5.33-7.82-10.4-15.79-15.83-23.53H416.94s-2.44,1,6.11,12.69c11.2,15.34,23,30.3,33.36,46.19,6.86,10.51,17.6,3.72,25.77,7.88,6.65,3.38,12.34.75,19-3.38,11.83-7.28,25.76-6.25,38.92-2.36,17.42,5.15,33.71,12.19,45.44,27.28,10.16,13.08,7.75,21.3-8.08,24.74-34.38,7.45-61.86-4.2-84.37-30.12-6-6.92-15.37-5-23.08-7.48-1.6-.51-.66,1.89,0,2.94,17.9,30.06,33.86,61.11,46.69,93.68,2.91,7.41,4.11,15.48,6.43,23.15,1.87,6.18,4.92,11,12.5,11.87,11.61,1.31,19.42,10.53,29.33,15.52,4.85,2.43,8.9,2.74,14.13,2.62,18.57-.44,32.21,10.1,43.73,23.11,9.11,10.3,16.49,22,19.94,35.65,1.52,6,.29,12.62-4.16,16.18-5.15,4.12-12,6.66-19.27,4.37-15.2-4.78-28-13.21-36.3-26.89-7.22-11.93-13.75-24.22-16.41-38.45-1.57-8.39-11.89-9.06-17.73-13.95-5-4.21-11.28-7-18.77-11.48,4.17,16.87,8.17,31.84,11.53,46.95,3.46,15.57,6.52,31.25,9.35,47,2.47,13.7,5.47,27.43,6.29,41.26,1.39,23.62,6.25,47,4.6,70.86-.53,7.79,1.44,15.52,12.87,15.49,4.62,0,10.06,2.71,13.71,5.84,9.15,7.84,19.44,2.54,29.1,3.74,23.63,2.94,42,13.6,55.24,33.88,7.25,11.1,12.68,22.9,15.4,35.45,1.81,8.36-3.68,15.08-12.85,17-26.77,5.49-57.89-15-68.52-37.24-5.64-11.78-10.86-23.15-12.94-36.5-.78-5-13-8.28-19.95-12.33-.13-.07-.35,0-.49,0-3.42-1.4-6.84-2.82-10.25-4.23,1.42,6.88-2,13.37-.94,20.54,1.47,10,2.19,20.63.36,30.45-2.28,12.25-.38,21.09,6.62,32.26,15,23.87,14.88,51.62,10.22,78.78-3.51,20.43-17.72,33.89-33.1,46.49-7.63,6.25-2.94,15.91-3,23.84-.2,18,1,36,1.74,54,0,1.12.28,2.23.43,3.35,1-.66,2-1.28,3-2,10.32-7.62,22-12.73,33.82-17.27,6.76-2.6,8.71-8.44,11.88-13.1,8.24-12.13,19.52-20.6,32.07-26.79,12-5.89,24.34-11.94,38.68-10.55,8.67.83,16.66,2.72,19.89,11.53,3.5,9.54-1.44,16.66-8.63,22.72-24.34,20.51-52.85,24.2-83.26,21.75-4.37-.36-9.23,3.09-13.57,5.36-10.46,5.46-20.78,11.2-31,17.06-.92.53-1.25,2.77-1.21,4.19.56,19.62-1.54,39.31,1.84,58.85.29,1.65-.81,3.5-.92,5.28-.28,4.65-.37,9.31-.53,14,3.77-.94,7.74-1.4,11.26-2.93,9.77-4.24,19.15-9.4,29.06-13.27,7.59-3,6.7-11.26,11.54-15.72,17.3-16,35.36-29.26,61.31-25.32,10.16,1.54,18.76,2.94,25.19,12.2,7.5,10.82.53,17.89-6.51,22.08-16,9.53-33.52,14.23-52.77,15.28-11.62.64-23-2.7-33.82-.85-9,1.52-17,8.2-25.53,12.55-2.42,1.24-4.83,2.73-7.42,3.39-7.69,2-11.49,5.23-11.08,14.58,1,23,.36,46.09.28,69.15,0,3.23-.36,4.65,3.82,2.45,21.41-11.27,42.52-22.27,60.89-39,13.48-12.29,30.78-21.47,51.44-15.39,6.81,2,11.3,5.72,13.8,11.9,4,10-1,17-8.8,22.33-18.84,12.87-40.53,20.52-62.26,15.2-16.55-4-26.67,3.25-38.79,9.51a40.22,40.22,0,0,1-8.37,3.32c-12.7,3.29-11.72,14-10.73,22.74,2.08,18.45.73,36.84.79,55.23,0,8.42,2.39,8.35,8.49,5.21,13.56-7,27.29-13.5,42.14-17.53,2.71-.74,4.75-4.85,6.57-7.74,11.13-17.54,28-26,47.14-32.27,11-3.62,21.21-5.29,31.59.31,6.18,3.34,9.31,9.44,10.16,16,1.13,8.72-1,16.73-8.92,22.09-25.72,17.35-53.26,14.15-81.66,8.8-6.34-1.2-14.09,5.76-21.33,8.6-10.75,4.21-19.76,12-31.31,14.62-4.7,1.06-4.67,7-4.19,9.26,4.21,19.24-2.54,38.22-.69,57.38.54,5.67,3.31,6.58,6.6,5,10.09-4.84,21.05-8.13,30.69-12.93,8.62-4.29,15.32-13.85,24.5-19.4,15.42-9.34,32.24-13.61,49.57-10.82,9.91,1.59,16.87,10.86,16.43,21.59-.3,7.32-6.38,12.13-13.18,16.12-19.32,11.36-40.27,9.2-60.66,7.21-9.25-.9-18-6.6-27.57-1.32-7.75,4.28-15.06,9.2-24.35,10.27-4.59.52-3.47,5.85-3.66,9.16-1.27,21.7-2.31,43.42-3.29,65.14-.31,6.73,4.18,2.88,6.46,2.39,17.65-3.8,31-15,45.39-25.1,16.24-11.46,35.46-17,55.63-13.76,9.77,1.56,17.75,8.14,19.5,18.56,2.35,13.9-7.16,22.12-17.86,26.85-15.92,7-33.2,5.45-50,2.78-10.7-1.7-21.23-5.64-31.9-5.88-6.82-.15-13.6,6.26-20.64,6.85-13.54,1.15-5.74,10.39-7.37,16-4.44,15.37,9.32,26.4,9.38,41.17.1,22.73,8.77,46.38-9.83,66.19-5.66,6-13.54,10.58-21,8.53-12-3.29-14.71-14.73-15.57-25.82a129,129,0,0,1,2.53-38.42c3.48-15.64,8.36-30.67,17.48-43.53,10.78-15.21-4.95-14.81-10.64-19.2-8.93-6.91-19.43-11.75-28.78-18.17-4.93-3.39-8.91-4.41-14.89-2.38-19.07,6.47-36.65-1-54.19-7.3a56.78,56.78,0,0,1-30.1-24.1c-5.44-8.69-6-17.16.26-23.74,5.73-6,15.17-6.41,23.29-4.08,27.22,7.8,47.7,25.44,67.76,44.69,7.81,7.5,19.35,12.17,29,18.52,6.94,4.59,14.13,8.82,21.23,13.16a3.58,3.58,0,0,0,1.83.26c1.08-3.89,3.35-8,2.84-11.7-2.58-18.93.4-37.83,2.14-56.35,1.43-15.2-6-20.86-16-27-11.58-7.19-23.43-14-34.82-21.46-4.9-3.22-9.47-.22-13.95-.2-23.38.08-42.31-10.77-59.87-23.88-9.67-7.22-12.57-19.7-11.76-31.4.48-7,5.58-13.45,13.59-15.49,10.12-2.57,18.22,3.21,26.27,7.43a95.21,95.21,0,0,1,44.48,47.78c2.78,6.37,11.75,10.12,18,14.87,9.83,7.42,19.78,14.67,29.7,22,1.43,1.06,3,2,4.43,3a34.19,34.19,0,0,0,1-5q1.67-44.55,3.19-89.11c.29-8.91-5.19-13.93-12.12-18.67-11.51-7.87-21.38-18.65-34.5-23.51-7.08-2.62-15.54-2.05-23.43-3.86-23.34-5.36-43.89-14.32-54.58-37.32-3.65-7.84-2.22-17.06,4.43-22.75,5.86-5,14.57-3.91,21.39-1.47,23.55,8.44,35.83,28.63,49.11,48,4.1,6,12.13,9.21,18.12,14,9.15,7.3,18.1,14.85,27.15,22.27a24.88,24.88,0,0,0,2.45,1.57,12,12,0,0,0,.8-3.11c-.55-26-1.39-52-1.63-78.07-.08-8.53,3.05-17,.28-25.7-.52-1.63-.2-3-2-4.12-15.08-9.47-29.59-20-45.36-28.14-5.62-2.88-14.24.39-21.48.3a64.39,64.39,0,0,1-46.86-20.61c-6-6.33-14.68-13.33-12-24.77,3.48-14.67,18.54-16.9,33.65-10,17.31,7.86,28.58,21.33,39.38,35.56,5,6.51,12.42,8.42,18.29,13.1,9.73,7.75,19.95,14.89,30.06,22.13,1.52,1.09,4,2.28,5.36,1.71s2.49-3.5,2.18-5.08c-3.67-18.47-3-37.33-1.3-55.61,2-21.21-10.23-29.87-25.26-38.55-8.73-5-18.11-10-24.91-17.1-10.61-11.15-24.43-10.44-37.17-12.27-16.08-2.32-41.72-19-47.15-33.42-4.07-10.85-.14-20.72,8.35-25.66,9-5.25,19.34-1.11,28.35,4.48,18.52,11.49,30.15,28.3,40.07,47.26,3.33,6.37,12,10.07,18.34,14.73,11.09,8.11,22.31,16,33.51,24a23.08,23.08,0,0,0,3.61,1.73c.56-1.48,2-3.52,1.54-4.35-4.6-7.49-.88-15.56-1.36-23.2-1.83-29.18-1.45-58.5-2.78-87.72-.27-5.93-6.84-10-9.35-16.06-7-16.84-11.65-33.38-8.88-52.17,3.79-25.6,15.76-45.86,33.08-64.53,4.55-4.91,2.94-15.92,3.33-24.17.42-8.73-.14-17.51-.32-26.27a6.21,6.21,0,0,0-.54-1.7,15.38,15.38,0,0,0-2.62,1c-8.27,5.18-17.23,9.6-24.46,16-3.57,3.15-3.56,10.1-5.78,15.06C508,580.81,494.25,596.68,473,605a55.41,55.41,0,0,1-14.33,3.94c-17.43,1.74-23.45-6.23-17.63-24.18C448.79,561,467.14,547,489,537.9c8.26-3.43,17.65-5,28.19-2.08,5.73,1.6,14-8.82,22-11.65,13-4.64,12-14.11,12.09-24.82.24-27-3.89-53.67-4.92-80.55-.09-2.52-1.12-5-1.89-8.23C533.81,417,524,423.43,513.71,429c-10.93,6-10.53,18.45-16.75,27-14.64,20-29.69,39.51-57,43.3-6,.84-13.21,1.94-15.85-2.39-4.5-7.39-4.29-16.14-1.25-25.2,6.65-19.8,19.49-33.92,37.74-42.61,12.51-6,25.48-11.17,40.61-6.84,8.07,2.31,13.5-7.28,20.94-10,4.32-1.6,8.05-4.5,12.85-5.49,8-1.63,9.36-7.42,7.88-14.66-4.72-23.05-9.73-46-13.77-69.21-2.48-14.17-9.66-5.06-15-3.63-5,1.35-9.6,4-14.48,5.86-12.53,4.66-10.17,19-18.31,27.29-19.18,19.41-51.26,37.31-79.91,28.43-5.73-1.77-3.37-9.31-2.07-12.4,9.48-22.62,24.13-40.2,49.69-45.52,12-2.5,23.85-3.14,36.21-3.29,13.23-.16,26.64-9.29,39.1-16.1,1.51-.83-1.92-11.79-3.93-17.75-9.28-27.4-16.29-55.63-29.48-81.61-5.55-10.93-11.36-21.73-17.18-32.84-7.94,9.78-16.5,19.65-24.06,30.23-1.51,2.1.82,6.95,1.37,10.53,3.55,23.08-9.29,38.51-24.39,53.13-10.41,10.08-22.3,16.22-36.78,18.21-9.81,1.36-16.83-6.11-12.56-17.63,4.91-13.21,6.78-27.45,14.4-39.83,11.05-18,28.18-26.41,47-33.08,11.29-4,15-15.68,22.23-23.78,14.71-16.48-3.89-25.23-9.95-35.74-10.62-18.42-23.86-35.34-36.2-52.75-2.15-3-4.45.47-5.44,1.48q-25.14,25.77-49.81,52c-12,12.87-24,25.87-35.37,39.33-4.33,5.12.66,11.5.42,17.42s1.25,12.1-.65,18.12a2.21,2.21,0,0,0,1,1.94c15.66,6.49,15.93,22.18,19.77,35,6.07,20.25,1.16,39.94-7.88,58.51-2.83,5.81-6.29,11.77-10.9,16.14-5.65,5.36-10.5-1.07-12.8-4.58-9.87-15.14-21.48-30-18.22-50,3.12-19.09,6.12-37.92,18.29-54.39,5.52-7.47.71-18.08,2-29.51-14.95,21.86-32.13,39-44.42,59.81-5.09,8.62-12.4,15.93-17.46,24.56-10.07,17.19-26.29,32.85-14.72,56.17,2.15,4.33.79,10.51.64,15.83-.46,16.1,7.27,24.41,23.19,26.64,24.44,3.42,51.17,28.34,56.35,52.52,1.14,5.32,1.26,15.08-1.15,16.16a42,42,0,0,1-26.17,3.1c-22.36-4.56-33.25-21.06-42.25-39-4.26-8.5-4.94-18.78-7.28-28.25-.37-1.51-.92-3-4.38-4.34V545.38c12.54-4.91,27.62-10.09,42-16.83,4.78-2.25,7.56-8.58,11.46-12.85,13.84-15.18,30.89-24.19,51.35-26.81,8.91-1.15,17.59-2.22,25.4,3.94,14.32,11.3,13.11,20.74-2.49,30.93-16.07,10.48-34.42,13.64-52.37,16.49-6.95,1.11-15.72.66-23.85-.75-16-2.77-28.16,9.18-42.13,14.41-2.68,1-5.29,2.18-8,3.14-3.74,1.34-7.41,4.28-5.65,7.74,5.16,10.15-.93,19.87-.08,30,1.28,15.32-1.7,30.92,1.54,46.35.47,2.24.79,1.81,2.34,1.28,14.12-4.85,28.06-10.45,42.5-14.11,11.31-2.86,17.83-10.5,24.39-18.73s16.26-11.73,25.38-15.77c10.5-4.64,22-5.77,33.28-6.67,10.21-.81,19.79,2.48,28.67,7.48a17.92,17.92,0,0,1,8.82,16.31c-.55,10.44-6.69,17.57-17.13,22.47-26.07,12.26-53.29,10.37-78.58,2.74-20.94-6.32-32.93,8.6-49.41,11.73a34.78,34.78,0,0,0-7.29,2.18c-12.15,5.33-14.6,18.49-12.61,35.24a263,263,0,0,1,1,55.5,100.72,100.72,0,0,0,1.3,25.76c.45,2.65,4.32-.91,6.54-1.61,10.41-3.31,20-8.78,31-10.64,5.5-.92,7.46-7.39,11.2-11,20.13-19.42,41.12-30,70.18-22.25,7.86,2.09,13.3,7.65,14.23,15.87,1.4,12.44-7.06,18.34-17,22.07-20.4,7.64-42.15,10.46-62.83,5.44-19-4.61-30.71,8.19-45.71,12.8-16.9,5.19-7,20.1-8.22,29.82-2.33,18.75.17,38.06,0,57.13-.05,6.42,2.14,6.08,6.46,4,19.62-9.68,40.16-16.71,56.31-33.6,10.74-11.24,27.69-15.92,44-17.46,14.77-1.39,27.41,6.15,29.18,18.21,2.24,15.21-11.17,19.06-21,23.3-13.33,5.76-28.15,7.65-42.68,8.25-8.27.34-16.77-3.75-24.61-4.31-7.63-.55-15.85,6.41-23.74,10.21-4.05,1.95-7.74,5.33-12,6.1-12.23,2.24-13.7,11-13.81,20.75-.15,12.92.19,25.85-.14,38.77-.16,6.23.71,12.38-1.46,18.82-1.52,4.48.82,10.26,1.44,15.46,4.9-1.92,9.64-4.61,14.73-5.62,25.92-5.15,41.2-29.85,67-35.66,14.77-3.33,28.58-3.08,41.39,4.28,4.27,2.46,9,9.71,8.35,14-1.44,9.51-7.15,18.83-17.16,21.18-24.77,5.81-49.46,10.58-74.66-1.36-5.27-2.49-15.36,5.17-23.22,8.19a29.82,29.82,0,0,0-5.16,2.38c-5.65,3.54-17.77.24-13.46,14.3,2.29,7.48-.6,15.44,5.52,23.29,9.13,11.71,10.55,27.35,12.36,41.67,2.14,17,2.43,34.78-7.8,49.88-5.68,8.36-14.79,13.92-25.29,11.62-8.22-1.79-15.15-7.9-16.43-16.72-4.6-31.72,2.37-61.29,17.26-89.51,5.21-9.87,4-18.65-8.63-23.89a73.37,73.37,0,0,1-22.55-15.08c-4.79-4.68-8.81-1.36-12.62-1.18-31.11,1.44-55.76-17.8-64.73-44.15-2.34-6.89,1.39-15.61,9.06-19.9,8.22-4.59,15.55-.39,22,4.17,14.95,10.52,26.52,24.27,36.93,39.25,8.73,12.55,24.43,16.8,35,27.41,2.13,2.14,4.89,3.64,7.05,5.21,6.26-11.73.75-24.54,2.37-37.16,2.63-20.47,0-41.52,2.48-62.24a3,3,0,0,0-1.29-2.29c-10.4-6.17-18.46-15-30.79-19.44-25.57-9.13-51.09-20.51-64.25-46.83-4.78-9.55-9.48-21.18.55-30.79,5.73-5.48,13.34-5.61,20.15-1.25,24.82,15.91,40.51,38.4,48.29,66.8.7,2.54,5.79,3.81,8.75,5.8,5,3.35,10.72,5.62,14.19,11,.8,1.24,2.53,1.87,3.83,2.79.68-4.12,2.42-8.39,1.86-12.34a206.11,206.11,0,0,1-.49-53.6c2.48-20.2-10.05-28.47-22.76-37.64-16-11.59-37.41-10.47-53.65-22-15.36-10.89-32.23-31-28.22-53.81,1.66-9.41,18.63-16.09,27.92-10.94,20.86,11.56,31.87,30.94,39.93,52,4.11,10.78,7.37,21,19.79,24.79,2.24.68,4.21,2.6,6,4.23,3.31,3,6.42,6.15,9.62,9.24.24-4.73.73-9.46.68-14.18-.35-31.38,1.56-62.85-2.22-94.1-.92-7.65-11.1-8.21-15.11-13.49-10.32-13.6-25.52-5.34-37.95-9.51-14-4.68-36.3-28.72-36.51-43.37-.12-8.7,1.7-17.74,10.6-22,9.2-4.38,16.68,1.12,23.61,6.46C184,595.32,194,612.56,201.4,632c2,5.2,8.95,8.61,13.85,12.55,2,1.64,4.67,2.51,7.64,4-.74-10.09-.37-20.26-1.47-30.66-1.35-12.84,1.12-26,1.47-39.09.83-30.4.64-60.84,2.27-91.19,1.41-26.07.1-52.23,3.56-78.23,1.24-9.39-.18-19.09.31-28.61.71-14,2.63-27.88,2.91-41.84.21-10.42-1.35-20.87-2.18-31.31,0-.49-.59-.94-.9-1.4-.51.39-1.21.67-1.49,1.19-8,14.63-17.69,28.65-23.54,44.12-5.77,15.27-14.69,29.27-18.48,45.11-1.18,4.94,2.31,11,3.75,16.59,4.87,18.78-.47,35.49-8.61,52.47-6.69,14-19.91,21.61-28.47,33.68-3.38,4.78-12.5,1.85-14.63-3.55-9.13-23.16-11.83-47,1.71-69.41,8.45-14,17.84-27.74,34.59-33.94,2.48-.92,3.49-6.06,5-9.33,11.76-25.7,21.39-52.46,37.44-76.06a8.44,8.44,0,0,0,.69-2.69,21,21,0,0,0-2.5.26c-8.52,1.87-14.52,4.91-19.37,14.15-5.95,11.35-15.74,21-30.69,23.58-18.49,3.22-36.67,6.36-54.58-1.36-12.53-5.41-1-14.46.58-17.42,10.75-19.92,28.55-30.26,51.4-32.93,13.25-1.55,24.09,3.85,36,7.35,6,1.78,13.68-2.29,20.67-3.13,8.92-1.08,9.92-9.29,13.45-14.79,13.06-20.39,25.86-40.93,40.7-60.11a28.88,28.88,0,0,0,2.27-4.26,33.44,33.44,0,0,0-4.6.21,527.33,527.33,0,0,1-63.7,6.76c-3.31.17-6.16,6.55-9.47,9.81C183,246.2,166.45,248.16,147.67,246c-12.44-1.42-23.74-3.88-33.92-11-12.7-8.9-11.57-19.25,1.24-28.59,18.16-13.25,37.06-15,58.37-9.49,11.82,3.08,22.22,8.1,33.13,13,8.26,3.7,19.48,1.41,29.32.8,11.18-.68,23.06-5.58,33.26-3.06,17.31,4.27,20.88-10.08,27.17-17.83,12.25-15.1,25.44-29.27,38.19-44.73-12.14-3.28-24.43-7.15-37-9.82-9.45-2-14.91,7.78-23.07,9.68-20.63,4.81-41,5.78-62.13,0-13.44-3.67-25-9.77-36.48-16.82-9.57-5.87-6.26-15.56,7.16-24.17,29.34-18.85,77.64-13.89,98.7,6,17.59,16.59,38.75,18.73,58.62,26.55,1.78.7,6.13-3.41,8.42-6a350.43,350.43,0,0,1,42.19-40.69C397.17,84.6,401.37,77,407.05,71c5.1-5.39,1.64-7,1.64-7H64V1616ZM917.7,890.36c.91-4.94-2.46-9-7.07-12-16-10.44-33-10.33-50.47-5.06-3.26,1-6.07,3.51-9,5.45-.12.08.34,1.76.83,2,17.55,7.29,35,14.81,55.74,15.19C911.53,896.58,916.73,895.62,917.7,890.36Zm-5.11-736.11c.06-.83-4.67-2.09-7.26-3-1-.33-2.15,0-3.22-.15q-29.68-3.51-59.36-7.07c19.69,12,48.16,17.37,63.57,13.75C908.74,157.26,912.37,157.4,912.59,154.25Zm-2,368.1c-.17-1.06,0-2.49-.58-3.11-18.38-18.78-37.59-35.8-68.35-29l65.55,30.63C908.37,521.37,909.51,521.85,910.63,522.35Zm2.06-378.87c-7.59-3.7-11.42-5.66-15.31-7.46-17-7.82-34.4-12.13-52.9-5.82-1.77.6-3.11,2.45-4.64,3.73,1.7.33,3.38.81,5.1,1,13.35,1.36,26.73,2.49,40,4.06C892.9,139.9,900.72,141.5,912.69,143.48ZM905.92,438c-3.34-1.71-6.31-3.76-9.59-4.83q-29.87-9.76-59.85-19.12c-3.6-1.13-7.37-1.74-11.06-2.59,2,2.72,3.53,5.87,6,8.07C852.65,438.84,878.13,442.17,905.92,438Zm-68,62c19.86,24.34,53,35.79,70.4,30.38ZM897.3,286.3a34,34,0,0,0-6.15-22.79,122.2,122.2,0,0,0-38.61-35.85c-1.53-.91-4.79-4.22-6.8-.51s2.16,4.19,4.07,5.89c6.42,5.77,13.31,11.18,18.93,17.66C878.55,262,887.55,274.06,897.3,286.3Zm-.61,12.15a19,19,0,0,0-2-3.33c-5.85-6.44-12.16-12.5-17.6-19.27-11-13.73-22.74-26.64-38.93-39.12,3.47,8.34,5.21,14,8.07,19.1,10.87,19.26,27,32.9,46.7,42.57C894,298.9,895.43,298.46,896.69,298.45Zm-20,697.66c3.45-2.5,4.91-7.06,2.38-12-1.32-2.56-1.31-5.82-1.9-8.76l.38-.09a6.76,6.76,0,0,0-.4-2.53c-8.46-13.25-19.56-24.27-30.7-35.18-2.35-2.31-7.76-4.71-7.21,3.15,1.4,20.22,7.64,38.59,22,53.25C865.25,998,871.64,999.8,876.71,996.11Zm-4.2-346.74c4.88-15.6,1.2-31.56-5.15-45.64-11.29-25-19.26-33.34-27.72-36.63C850.82,595.07,861.87,622.72,872.51,649.37Zm-54-251c30.68,8.69,60.33,18.6,91.26,32.58C891.19,406.45,850,384.44,818.53,398.38Zm43.53,250.37c.05,0,.92-1.66.68-1.93-6.61-7.63-7.47-17.78-11.64-26.48-6.77-14.13-13-28.5-19.25-42.33-5.84,14.92-.25,30.1,4.2,44.25,2.9,9.23,12.55,16.41,19.52,24.21C856.92,648,859.83,648.1,862.06,648.75ZM768.38,308.87c22,20.8,66.38,29.32,79.22,20.27ZM766.79,298c29,8.29,58.93,14.24,89.17,27.88C821.5,296.51,780.39,284.43,766.79,298Zm24.67,994.93c3.17-18.39-9.58-33.88-20.61-33.86-12.67,0-25.79,13-25.79,26.67-1.77,11.27,6.55,17.19,16.09,16.14C771.69,1300.72,789.45,1304.57,791.46,1292.92Zm-41.6-631.28c18.53-10.4,29.43-72.06,17.94-104.16C758,592.07,751.7,626.52,749.86,661.64Zm9.56,182.93c-9.28-48.42-20.9-92.23-23.15-137.64C722.84,755,714.36,802.15,759.42,844.57ZM696,512.8c22.12-.76,51.11-34.61,48.95-55.39a10.1,10.1,0,0,0-.7-2.14,17.77,17.77,0,0,0-2.52,2.1C726.68,475.53,711.7,493.71,696,512.8Zm41,154.25c1.77-38.8,9-74.31,16.77-109.84-5,8.07-10.15,16-14.87,24.26s-7.24,17.43-8.71,26.95a148.44,148.44,0,0,0-1.16,29C729.35,647.16,730.89,656.41,736.92,667.05ZM692.39,509.28c9.18-24.77,29-40,43.24-59.73C704.55,456.82,692.64,477.91,692.39,509.28Zm-24.54-90c25.24-15.31,42.45-40,38.06-54.49C693.93,383.24,678.4,398.8,667.85,419.27Zm5.38,627.38c5.65-1.85,12.58-5.38,12.38-13.16-.21-8.32-4.54-13.1-13.76-12.58-23.31,1.33-43.07,9.24-56.78,29.63A113.57,113.57,0,0,0,673.23,1046.65ZM657.75,419.14c11.41-24.11,27.94-42.15,42.8-61.92C673,361.55,656.31,386.87,657.75,419.14Zm19.74,429.45c.38-5-5-7.42-8.81-8.83-5.23-1.93-11.07-2.18-16.83-3.18-17,1.59-30.9,9.6-43.28,20.63-3,2.68-5,6.56-7.38,9.89,4.17.59,8.4,1.93,12.52,1.66,17.66-1.14,35.36-2.74,51.77-10C670.23,856.62,677,855.07,677.49,848.59Zm-12.67-93.45c6.37-3.43,17.17-10.15,5.61-18.93-4.15-3.15-13.11-2-19.12-.25-14.87,4.37-29.33,10.25-40.94,21.15-4.25,4-8.09,8.41-12.12,12.64l14.52,1.18c.33,0,.66,0,1,0C632.76,772.13,649,763.64,664.82,755.14ZM652.63,956.7c7.06-3.31,17.09-5,15.75-14.54-1.32-9.35-11.32-10.23-18.79-8.84C630.42,936.9,615,948,600.87,960.83c-1.41,1.28-.42,1.88,1.07,2.1,4.69.68,9.36,1.44,13.64,2.1C628.52,963.56,641,962.18,652.63,956.7ZM605.49,526.93c-2.9,27.11,41.27,65.6,67.72,59.11A322.65,322.65,0,0,0,605.49,526.93Zm43.39,615.94c6.31-2.49,15.68-4.12,15.34-11.71-.31-7.16-8.4-11-16-10-17.75,2.4-34.31,8-47.62,20.8a8.59,8.59,0,0,0-1.25,2.41c.93.17,1.86.36,2.79.51,11.8,1.88,23.62,3.33,35.59,1.19C641.49,1145.06,645.3,1144.28,648.88,1142.87Zm-.44,95.68c12.41-5.06,13.89-14.83,4.49-22.26-7.75-6.12-16.49-4-24.18-2.39-16.46,3.4-31.76,10.26-45.19,23.42C605.46,1240.8,626.79,1247.36,648.44,1238.55ZM614.09,519.62c24.49,15.8,45,35.73,65.46,59.28C661.17,535.68,638.09,515.31,614.09,519.62ZM630.78,359.1A6.29,6.29,0,0,0,630,357c-3.65-4.07-7.11-8.38-11.13-12-12.76-11.63-25.74-23-39.7-35.44,3.74,22.92,26,47.7,44.71,50.94C626,360.84,628.48,359.6,630.78,359.1Zm-24.61-91.35c22.88-24,27.27-46.38,21.05-73.77C619.74,220.18,613.24,243,606.17,267.75Zm24.31,73.8c-11-22-24.77-35.7-48.07-44.09ZM596,269.64a653.9,653.9,0,0,1,16.49-70C598.85,219.79,592.45,241.72,596,269.64Zm-27,389.1c5.43-21.57,1.36-42.94-6.08-63.62-.4-1.12-1.85-1.87-2.81-2.79-.35,1.18-1,2.36-1,3.52.25,10.88-1.71,21.76-2.84,32.37-2.7,25.33-9,50.29-14.12,76.74C561.11,686.17,562.22,685.71,569,658.74ZM509.65,148.51c19.17,15.48,40,25.21,66,20.1Zm35.21,463.62c-.05-4.38,5.37-10.49.87-12.15-3.23-1.2-5.35,7-7.71,11.12C522,639.27,521.25,667.8,536.58,698,537.32,668.28,545.24,640.62,544.86,612.13ZM504,135.34l78.19,24.73C557.57,138.61,533.58,128.42,504,135.34Zm38.82,1190.37c.34-14.46.5-29-9-41.55-2.27,4.58-4.64,9.09-6.76,13.7-9,19.6-10.64,40.55-10.53,61.66,0,5.2,1.69,11.54,7.55,13.08,4.84,1.27,7.87-3,11.43-6.67C547.32,1353.86,542.54,1339.41,542.86,1325.71ZM506.58,543c-7.69,1.79-14.56,1.65-19.25,4.79-16.4,11-33,22.19-39.52,42.5-.38,1.21-.05,2.64-.05,4a17.75,17.75,0,0,0,3-2.27c3.13-3.6,5.95-7.49,9.22-11C473.46,566.78,489.73,555.92,506.58,543ZM494,429.77c-28.5-3.37-71.15,36.2-66,60.56C446.93,467.11,469.28,447.26,494,429.77ZM453,599.5c29.35-2.16,43.8-21.36,55.94-44.86C489,568.43,471.21,583.56,453,599.5Zm27.54,415c.62-4.17-2.7-6.27-4.82-8.9-7.28-9-14.85-17.71-22-26.75-5.56-7-13.43-8.37-25.2-11,.56.21-2,1.4-2.91,4.44-1.6,5.57-.34,10.72,3.25,15.42,10.45,13.68,25.29,20.13,41,25C473.31,1013.83,477,1014,480.58,1014.51ZM478.72,898.1a40.05,40.05,0,0,0-2.15-3.78c-11.43-16-25.16-28.92-44.27-35.63-5.08-1.78-7.94.82-10.62,2.92-1.65,1.29-.74,5,1.06,8,12,19.83,30.86,26.65,52.44,29.15ZM450.07,486.72c19.9-7,29.83-24.12,39.78-41.3-14.25,12.09-28.53,24.14-42.7,36.31-2.19,1.87-8,2-5.67,6.21C443.54,491.72,447.44,487.64,450.07,486.72Zm26.05,641.75c-1.78-4.26-2.57-9.46-5.53-12.62-13-13.89-24.84-29.26-44.35-35.32-4.21-1.31-7.64-6-12.11-1.55-5,5-4.7,11.92-1.85,17,12.11,21.72,33.35,28.78,53.82,33.34ZM462.6,330.67h5.58C465.49,327.79,464.14,329.93,462.6,330.67Zm-60.18,878.15c19.83,15.81,42.54,23.4,69.46,22-17.41-17.63-34.37-33.58-57.49-40.9-2.62-.83-5.26-1.61-7.85-2.55-6-2.16-13.54,3.8-11.35,9.35C396.9,1201,399,1206.05,402.42,1208.82ZM451.91,338c3.46-2.52,9.88-.9,10.56-7.28-21.26.76-44.57,16.46-50.84,34.74C425.4,356.15,438.92,347.43,451.91,338Zm-36.64,36.27c25-.18,56.33-20,64.79-38.6A277.82,277.82,0,0,0,415.27,374.25Zm22,406.42c10,4.34,20.93,6.45,31.7,9.62-1.7-12.91-30.82-43.16-43.52-45.16-8.34-1.31-13.74,2-12.19,11C415.51,769.49,426.3,775.91,437.23,780.67Zm3.48-554.56c1-2.78.35-6.08.47-9.13-2.19,1.9-4.8,3.49-6.52,5.76-11.89,15.74-23.59,31.61-36.28,48.7,2.72-.69,4.57-.78,6-1.58C422.22,260,434.18,245.24,440.71,226.11ZM430.54,209.7a3.4,3.4,0,0,0,0-2.16c-1.26-.12-2.85-.53-3.76.06-4.94,3.18-10.09,6.18-14.47,10-15.92,14-19.23,34.56-28.65,55.57C400.57,250.3,415.58,230,430.54,209.7ZM388.79,612.23c.76-6.23-4-9.26-8.94-11.3-11.1-4.55-23.12-3.85-33.94-1.38-14.46,3.31-31,4.92-39.06,20.94-1.27,2.51-3.26,4.81,1.69,6.7,10,3.84,20.31,3.65,33.12,3.79a72.24,72.24,0,0,0,36.49-7.67C383.51,620.57,388.07,618.21,388.79,612.23ZM366.48,507.15c.58-4.1-5.27-5.71-8.86-7.3-2.43-1.07-5.49-.75-8.65-1.1-22.31.84-40.2,11.3-55.36,27.29-.9,1-.92,2.73-1.35,4.13,1.37.25,2.78.88,4.09.71,19.25-2.42,38.87-3.41,56.64-12.33C358.32,515.87,365.54,513.87,366.48,507.15ZM352.83,846.7c4.1-2.18,12-3.36,9.68-10.07-2.05-5.84-7.81-9.86-15.13-9.59-20,.75-36.92,8.9-51.66,22-1.72,1.53-2.93,3.63-4.37,5.47,2.73.8,5.42,2,8.21,2.27s5.45-.55,8.18-.89C323.15,854.62,338.82,854.14,352.83,846.7Zm6.71-107c.23-6.24-5.58-9.71-11.24-10.45-24.43-3.21-43.43,7-59.76,25.29,19.74,1.32,38.47,2.5,56.59-3.68C351.09,748.79,359.24,747.85,359.54,739.67ZM338,964.34c7.11-.85,18.49-3.62,16.49-14.41-2.21-11.92-14.06-9.81-22.06-11-20.25.45-36,9.27-50.79,20.49-1.07.82-1.27,2.58,1.21,3.66C301.05,971,319.72,966.52,338,964.34ZM326.26,302.15c16.38-33.58,10.82-53.35,0-78.51Zm-10.77,2V227.28C305.34,253.35,297.14,279.38,315.49,304.14Zm-6.86,115c1.13-17.51-28.43-40.87-47.54-43.93Zm-54.94-38.95c-1.52,22,32.65,53.61,52.47,50.24-8.76-8-17.83-15.79-26.32-24.17S260.53,391.56,253.69,380.23ZM186.3,122.55c42.46,18.22,79.36,21.86,94.8,9.12A516.2,516.2,0,0,0,186.3,122.55Zm48.42,975.52c7.1-15.69,5.63-32,2.32-48.29-1.76-8.66-3.93-17.26-6.37-25.76-.41-1.45-3-5.5-5.11-1-9.51,20.11-13.13,41.63-14.46,60.76,0,5-.24,7.23,0,9.36.9,6.62,1.61,14.33,9.64,15.51C227.74,1109.65,232.13,1103.8,234.72,1098.07ZM278.19,120c-10.47-13.17-65.07-24.79-89.44-5.13C219.46,110.54,249,115.29,278.19,120ZM195,223.57a28.38,28.38,0,0,0-4.28-.43q-31.54,2.51-63.06,5.16c-.83.07-1.59,1-2.38,1.54.66.65,1.22,1.68,2,1.89,5.38,1.42,10.76,3,16.23,3.94C161.9,238.94,179.19,237,195,223.57ZM187.39,637c1.26-.52,4,1.38,3.15-2.78-3.24-16-13.35-27.76-24.08-38.95-4.9-5.11-10.13-12.81-18.53-9.6-4.91,1.88-3.5,8.28-3.07,13.55C146.53,619.45,169.08,635,187.39,637Zm-6.75,215.2c1.81.79,4.14.38,6.24.52-.16-1.38,0-2.92-.53-4.13-9.51-21.41-21-41.22-42-53.7-3.11-1.83-6-2.39-8.68-1.31s-3,4.14-3.36,7.17c1.82,6,2.18,13.17,5.75,17.88A106.54,106.54,0,0,0,180.64,852.15Zm3.59-99c-1.27-4.64-2.22-8.33-3.29-12-5.68-19.29-16.44-35.41-32.38-47.38-5.35-4-14.79-7.4-17.27,4-3.16,14.54,5.14,25.63,14.72,35C156.35,742.84,169.74,748.2,184.23,753.16Zm-1.65-328.63c.8-3.3-2.39-7.56-3.74-11.38-4.1,2.35-3.78,6.34-3.81,10.21a2.07,2.07,0,0,1-.15,1c-9.42,17-9.72,36.82-18.77,55.32,3.17-2.81,5.17-4.37,6.92-6.17C176.19,459.86,178.41,441.71,182.58,424.53ZM188,302c-31.82-4.65-58.71,5.68-68.7,25C141.15,318,162.19,308,188,302ZM171.42,967c1.53-.37,5.46.71,2.69-3.09-12.33-16.93-25.27-33.32-43.3-44.8-2.69-1.72-4.85-2.92-7.41.17-2.4,2.9-4.62,6-3.49,9.75C126.89,951.89,152.23,965.56,171.42,967ZM158.6,436.55c2.5-9.1,5.59-18,8.72-28-24.16,20.06-29.93,44.78-24.16,73.08.3,1.46,1.66,2.71,2.53,4,.42-1.43.87-2.85,1.24-4.3C150.81,466.42,154.51,451.43,158.6,436.55ZM131.44,216.92c19.59-3.46,39.69-.12,60.08-4.9-20-5.07-39.21-12-58.93-2.81-4.88,2.27-9,6.27-13.4,9.48,3.25-.59,6.5-1.2,9.76-1.73C129.76,216.82,130.63,217.06,131.44,216.92Zm57.64,95.79C166,316.8,146.3,329.56,119.55,335,148.35,336.39,172.36,337.16,189.08,312.71ZM56,1618.34V61.66l-48-48V1666.34Z"/></svg>