<svg id="Card" xmlns="http://www.w3.org/2000/svg" viewBox="0 0 1024 1680"><defs><style>.cls-1{fill:#f2f0ed;}.cls-2{fill:#8c1707;}.cls-3{fill:#16592d;}</style></defs><rect class="cls-1" x="14.5" y="14.5" width="995" height="1651"/><polygon class="cls-2" points="966 1619.17 966 60.83 1018 8.83 1018 1671.17 966 1619.17"/><polygon class="cls-2" points="60.83 58 8.83 6 1015.17 6 963.17 58 60.83 58"/><polygon class="cls-2" points="8.83 1674 60.83 1622 963.17 1622 1015.17 1674 8.83 1674"/><path class="cls-3" d="M427.07,1618l2-3.1c13.2-20.11,25.77-38.32,38.41-55.69,11.73-16.1,25.42-32.21,43.06-50.68q3.62-3.78,7.19-7.61l.2-.21c10.74-11.44,21.85-23.26,34.64-33.21,11.07-8.59,20.46-14,33.08-14.53,3-.12,6.14-.18,9.31-.18,15.6,0,31.3,1.45,46.49,2.86,4,.36,7.9.73,11.83,1.07a331.54,331.54,0,0,1,64.15,12.35,554,554,0,0,1,72.65,26.24c18.57,8.29,37.49,19.43,59.55,35.06a17.07,17.07,0,0,1,1.79,1.53,7.22,7.22,0,0,0,1.88,1.46,2.14,2.14,0,0,0,.24-.2c.13-.12.13-.17.13-.21,0-.64-.83-1.81-2.48-3.48-16.31-16.48-37.4-30.2-64.49-41.94-17.82-7.74-37.44-15-63.6-23.38-28.93-9.32-58.26-13.07-85.65-15.73-2.71-.26-5.53-.35-8.26-.43-5.79-.17-11.78-.35-17.58-2.18a9.09,9.09,0,0,1-2.4-1.3c-.27-.18-.5-.34-.74-.48l-2.89-1.74,2.91-1.71a4.63,4.63,0,0,0,.46-.31,4.93,4.93,0,0,1,2.38-1.11c3.28-.39,6.59-.83,9.89-1.27,8.34-1.1,17-2.25,25.54-2.68,3-.15,6.13-.22,9.23-.22a261.5,261.5,0,0,1,43.44,4c6,1,12.24,1.83,18.24,2.63,11.35,1.49,23,3,34.22,6,7.77,2,15.79,3.59,23.54,5.09,11.13,2.15,22.61,4.38,33.7,8.09q5.22,1.76,10.45,3.46l.16,0c16,5.25,32.45,10.67,48,17.9,10,4.67,20,9.93,29.58,15,5.76,3,11.7,6.18,17.63,9.18.22-.1.52-.26.79-.41q-2.94-1.93-5.87-3.88c-6.37-4.22-12.93-8.57-19.54-12.52-21.41-12.83-46-23.4-77.36-33.25-15.57-4.89-31.93-8.38-47.75-11.76-4.44-.95-8.89-1.9-13.32-2.88-22.07-4.87-51.26-10.69-81.42-12.54-6.82-.42-12.89-.63-18.58-.63a185.75,185.75,0,0,0-54.57,7.73l-1.23.36-1.53-3.2,1.06-.73c3.68-2.54,6.91-5.1,9.76-7.36,5.86-4.65,10.47-8.32,16-9.68a242.83,242.83,0,0,1,58.61-7.15c5.21,0,10.5.16,15.73.49,9.11.58,18.39,1.06,27.36,1.52h.13c14.32.74,29.14,1.51,43.68,2.69a310.9,310.9,0,0,1,39.17,6c5.8,1.21,11.58,2.89,17.17,4.52a187.27,187.27,0,0,0,20.24,5.1c17.12,3,33.61,8.56,49.56,14q4.76,1.62,9.47,3.2A296.75,296.75,0,0,1,961,1473.41l1,.58v144Z"/><path class="cls-3" d="M958.76,1468.36a19.28,19.28,0,0,0-2-1.44c-26.62-16.27-57.68-29.12-97.78-40.42-34.08-9.61-60.54-15.49-85.8-19.07-25.44-3.61-52.54-5.36-82.86-5.36h-2.43c-3,0-6,0-9.05-.07s-6.17-.07-9.26-.07a174.11,174.11,0,0,0-26.14,1.6l-1.21.18-1.18-3.22,1-.64c3.34-2.06,6.72-4.19,10-6.25,7.26-4.58,14.69-9.28,22.27-13.47,3.68-2,7.35-4.08,11-6.12l.31-.17c18.75-10.44,38.14-21.22,57.83-30.61,16.42-7.83,33.63-13.66,52.82-19.93,18.37-6,37.36-11,55.72-15.93l1-.27a488.45,488.45,0,0,1,59.71-12.25c2.49-.34,5-.7,7.44-1.06l.15,0c10.53-1.52,21.41-3.09,32.54-3.09h1.41c1.89,0,3.78,0,5.68-.07l2,0v180.36Z"/><path class="cls-3" d="M530.2,1476.3a6,6,0,0,1-2.92-.92c-9.61-5.49-18.88-11.79-27.85-17.87-12.44-8.46-25.31-17.19-39.11-23.76-3.47-1.66-6.92-3.34-10.38-5-11.35-5.52-23.09-11.23-35-15.72-20.35-7.65-44.11-16.22-68.58-20.94-5.83-1.12-11.71-2.41-17.4-3.67-13.89-3.06-28.23-6.22-42.68-7-2.23-.13-4.54-.14-6.78-.15a87.85,87.85,0,0,1-11.31-.55,327.93,327.93,0,0,0-43.71-2.87c-11.32,0-23.05.56-34.86,1.65-29.11,2.7-52.44,6.85-73.42,13.07-4.73,1.4-9.62,2.45-14.34,3.47-8.75,1.89-17.79,3.84-25.75,8-4.09,2.14-8.17,4-11.27,5.41L62,1410.68V1097.55l1.92-.08c3.26-.13,6.17-.19,8.88-.19,2.47,0,4.76,0,7,.15,13.84.66,27.8,2.67,41.29,4.61l.31,0,7.09,1c33,4.64,63.08,17.2,88.19,28.87,28.9,13.43,56.54,32.41,84.48,58a3.48,3.48,0,0,0,2,1.1,1.23,1.23,0,0,0,.76-.3l.05,0a7.23,7.23,0,0,0-.78-.93c-.23-.26-.45-.49-.61-.7-10.3-13.22-23.5-25.19-40.36-36.61-17.17-11.64-35.41-21-57.52-31.49-21.58-10.24-41.5-17.33-60.91-21.68-20.55-4.6-43.24-6.75-71.4-6.75-2.8,0-5.59,0-8.39.06l-2,0v-8l1.58-.34c7.78-1.69,15.67-3.62,23.3-5.49,14.45-3.53,29.3-7.17,44.15-9.34,22.78-3.32,47.66-5.3,78.29-6.23,3.4-.1,7-.15,10.73-.15,11.5,0,23.17.49,34.47,1,8,.34,16.27.69,24.4.86l1,0c15.09.31,30.7.64,44,9.42,19.91,13.11,37.48,29.19,54.48,44.73,22.53,20.63,41.66,45.49,58.48,76,8.47,15.37,14.29,32,19.91,48q2,5.71,4,11.42a5.79,5.79,0,0,0,1.15,1.75,1.3,1.3,0,0,0,0-.49c-5.39-22.74-12-46.9-24-69.46a273.9,273.9,0,0,0-60.24-76.55c-2.09-1.86-4.16-3.73-6.24-5.61-11.82-10.69-24-21.72-39.52-29l-5.82-2.73,6.34-1a28.64,28.64,0,0,1,4.78-.4c7.09,0,12.82,2.54,18.56,5.38a422.45,422.45,0,0,1,36.79,21l5.07,3.16.22.14c15.11,9.38,30.73,19.07,42.66,33,5.15,6,10.79,11.78,16.24,17.36,8.16,8.34,16.6,17,23.73,26.76,4.81,6.62,10,13.16,15,19.49,9.4,11.92,19.12,24.25,27,37.65q2.68,4.56,5.39,9.1c9.67,16.23,19.66,33,27.25,50.87a14.25,14.25,0,0,1,.6,2c.35,1.36.93,3.6,1.77,3.6a2,2,0,0,0,.64-.13.55.55,0,0,0,.19-.1,10.36,10.36,0,0,0-1-3.08c-.28-.63-.54-1.23-.73-1.81-7.62-22.78-18.94-45.7-36.7-74.3a452.8,452.8,0,0,0-52.49-69q-3.57-3.86-7.13-7.76c-13.43-14.66-27.31-29.81-44.09-41.37l-1.13-.78,1.81-3.25,1.25.55c21.95,9.58,42.34,22.46,62.05,34.92l.83.52c22.8,14.39,40.57,28.17,55.93,43.35,6.44,6.37,13.13,12.66,19.6,18.75,12.43,11.69,25.28,23.78,36.77,36.75,21.25,24,38.54,51.8,53.08,76,.8,1.33,1.51,1.5,2,1.5a6.45,6.45,0,0,0,2-.48l-.25-.31a8.33,8.33,0,0,1-.94-1.3c-2.79-5.21-6-10.34-9.15-15.3-3.5-5.55-7.13-11.3-10.14-17.18-12.21-23.81-29.09-43.85-45.52-62-9.73-10.71-20.78-20.62-31.47-30.2-7.74-6.94-15.74-14.11-23.25-21.6-13.05-13-28.68-22.94-43.8-32.55-3.72-2.36-7.94-5-11.94-7.66-17.48-11.48-36.54-23.33-57.34-32.16l-1.22-.52,1-3.5,1.31.2c.73.11,1.47.2,2.21.29a31.83,31.83,0,0,1,5.54,1c4.41,1.32,8.81,2.73,13.06,4.1,7.41,2.37,15,4.82,22.61,6.75,22.95,5.89,46.59,14.1,76.65,26.64,8,3.35,15.94,7.19,23.6,10.9,7.33,3.56,14.89,7.22,22.48,10.43,25.59,10.82,49.41,25.55,72.44,39.79,5.3,3.28,10.75,6.65,16.14,9.92,11,6.7,21.42,14.7,31.48,22.44,4.69,3.61,9.51,7.32,14.32,10.84a6.69,6.69,0,0,0,3.54,1.52,1.69,1.69,0,0,0,1.49-.83c.7-.95.52-1.75-2.41-4.21-27-22.68-56.71-43.66-91-64.15-31.75-19-66.11-34-99.34-48.46l-6.31-2.75c-14.51-6.33-30-11.28-44.93-16.07-4.12-1.32-8.25-2.64-12.35-4-33.54-11-68.37-18.13-98-23.63A636.15,636.15,0,0,0,276,1056.92c-5.36-.19-11-.5-15.9-.78-8.59-.48-17.46-1-26.15-1h-1.71l-4,0c-21.29.17-43.29.35-64.74,2.27-16.07,1.44-32.29,4.56-48,7.57l-.25,0-9.91,1.89c-16.6,3.11-29.18,6-40.81,9.33l-2.55.74V983.89l5.84-2.69c8-3.71,16.33-7.53,24.23-11.71,12.69-6.71,26.22-11.62,39.3-16.37,6.8-2.46,13.82-5,20.64-7.78,9-3.68,18.46-6.76,27.58-9.75,3.92-1.28,7.91-2.59,11.81-3.92,3-1,6.06-2.26,9-3.45,7-2.82,14.28-5.74,21.76-6.36a108.33,108.33,0,0,0,17.51-3.48,140.45,140.45,0,0,1,13.76-3.06c5.31-.8,10.73-2.05,16-3.25,9-2.07,18.27-4.21,27.52-4.28h.34c7.09,0,14.64,1.69,21.94,3.33,2.16.49,4.39,1,6.59,1.44,23.8,4.85,41.55,10.34,57.53,17.81,33.7,15.75,59.44,31.64,81,50a460.83,460.83,0,0,1,59.24,60.38c-17.1-27.5-39.3-51.7-67.47-73.63C426.38,944,391.52,925.64,349.52,911l-1.19-.42.58-3.47h1.27c1,0,2-.06,2.84-.1s1.52-.09,2.19-.09a10.47,10.47,0,0,1,2.79.33,486.35,486.35,0,0,1,60.55,21.1,565.77,565.77,0,0,1,66.57,34.32c25.13,15,49.82,32.73,75.48,54.22,8.77,7.34,17,15.4,25,23.19s16,15.62,24.58,22.8a2.29,2.29,0,0,0,.72.35l-.07-.09c-1.5-2-2.93-4.06-4.31-6.08-2.85-4.17-5.8-8.46-9.39-11.78-5.42-5-10.83-10.18-16.07-15.19-15.41-14.71-31.35-29.93-49.09-42.62a652.64,652.64,0,0,0-83.57-51.35c-27.38-14-57.09-25.18-90.85-34.22l-5.67-1.52,5.42-2.26c.94-.39,1.77-.8,2.57-1.2a13.69,13.69,0,0,1,5-1.74c12.75-.9,25.15-1.6,36.85-2.08,1.44-.06,2.9-.09,4.36-.09,22.11,0,42.36,6.64,60.95,13.8a405,405,0,0,1,77.84,40.13c33.43,22.17,58.44,43.3,78.72,66.51,12.17,14,25,28.9,36.08,44.91,3.1,4.47,6.3,8.93,9.51,13.34-19.83-37.41-45.55-69.6-78.22-98-34.6-30.08-76.07-55-126.77-76.22l-1.23-.52,1-3.51,1.32.2a100,100,0,0,0,15.68,1c2.63,0,5.31,0,7.91-.1h.16c2.5,0,5.33-.11,8-.11a93.56,93.56,0,0,1,18.26,1.49c8.41,1.68,17.07,2.29,25.44,2.87,9.68.67,19.66,1.36,29.5,3.69,10.94,2.6,22.32,4.38,33.33,6.1s22.49,3.52,33.63,6.13c31.35,7.36,59.48,22.44,86.68,37,3.29,1.76,6.58,3.53,9.87,5.27,19.18,10.19,41.6,22.62,62.5,37.61l.7.5c12.75,9.15,25.94,18.6,39.25,27.42s24.59,20.29,35.44,31.34l2.41,2.44c7.53,7.64,14.88,15.67,22,23.43l2.47,2.7c2.66,2.89,5.41,5.81,8.07,8.64l.09.09c7.25,7.69,14.75,15.65,21.34,24.14,5.31,6.86,10.25,14.14,15,21.19,5,7.45,10.28,15.16,15.92,22.32a38.53,38.53,0,0,1,2.43,3.73l.55.91v120.58l-2,0c-14.9.33-30.89,1.45-50.33,3.53-20.85,2.23-41.78,7.62-62,12.84l-2.33.6c-18.88,4.85-38.74,10.83-62.49,18.84-20.82,7-42.82,14.82-62.76,26.44-8.76,5.1-18,9.69-26.85,14.13-9.66,4.83-19.65,9.81-29,15.42-17.63,10.57-34.68,22.85-51.16,34.73l-1.53,1.1c-30,21.62-55.41,42.06-77.79,62.49a3.73,3.73,0,0,0-.39.41A4.11,4.11,0,0,1,530.2,1476.3Z"/><path class="cls-3" d="M958.3,1153l-3-4.88c-8.78-14.17-17.86-28.83-29.56-41.34a215.73,215.73,0,0,1-14.44-17.9,199.7,199.7,0,0,0-14.89-18.34c-15.86-16.63-35-36-56.5-53.63a422.82,422.82,0,0,0-69.17-46.32c-12.86-6.88-25.87-14-38.44-20.89l-.59-.32-15.94-8.73-1.6-.87.54-1.25,1.36-3.12.75-1.73,1.77.65c2.71,1,5.44,2,8.16,2.94l.22.08c6.17,2.19,12.56,4.46,18.74,7.06l3.22,1.34c16.33,6.86,33.23,13.94,49.51,21.68,24,11.41,43.72,21.37,62.05,31.34,23.94,13,44.42,26.41,62.61,40.87,11.38,9,23.52,19.14,38.23,31.8l.7.6v86.89Z"/><path class="cls-3" d="M62,1618V1416.66l1.3-.48q4.62-1.74,9.28-3.41,3.78-1.37,7.55-2.77c1.93-.71,3.89-1.48,5.86-2.25,9.42-3.69,19.14-7.49,28.91-7.49a32.06,32.06,0,0,1,10.27,1.6c31.88,10.58,60.5,25.35,85.07,43.9,14,10.59,30.11,23.11,44,37.72,9.25,9.7,17.2,20,26.29,32.56,8.95,12.34,15.67,26.08,22.17,39.37,2.73,5.59,5.55,11.35,8.51,17-.51-1.34-1-2.67-1.55-4-2.48-6.4-5-13-7-19.42-6.85-22.53-20.47-41-32.7-56.59a235.87,235.87,0,0,0-33.57-34.51c-12.55-10.65-25.79-20-38.59-29.07-19.56-13.83-42-22.12-63.33-29l-6.73-2.18,6.88-1.66a89.4,89.4,0,0,1,21.38-2.54c20.46,0,39.07,6.54,57.08,12.86l4.45,1.56c33.4,11.64,59.69,35.18,85.9,60.33A389.54,389.54,0,0,1,352,1525c5.05,7.2,9.28,15.08,13.37,22.7,1.38,2.58,2.76,5.16,4.18,7.71a13.43,13.43,0,0,1,1.13,3.08c.06.18.11.36.15.53a5.09,5.09,0,0,0,.08-2.55c-7.19-17.93-15-32.94-23.81-45.91-9.12-13.38-20.2-25.58-30.91-37.38-18.92-20.83-37.62-37.37-57.16-50.58a303.28,303.28,0,0,0-58.29-30.42l-3.58-1.41,3.21-2.12a22.91,22.91,0,0,1,13.19-3.7,70,70,0,0,1,8.86.76,65.39,65.39,0,0,0,8.3.73c.48,0,1,0,1.44,0,3.57-.18,7.3-.27,11.06-.27a332.79,332.79,0,0,1,43.15,3.18c21.35,2.77,46.14,6.23,70.08,12.34,15.84,4,31.43,9.94,46.5,15.64,5.18,2,10.54,4,15.89,5.93A283,283,0,0,1,464.72,1445c4.74,2.76,9.62,5.49,14.35,8.13,10.8,6,21.94,12.26,32.35,19.32a20.27,20.27,0,0,0,2.58.51c3.77.6,8.47,1.36,9.66,5,.89,2.69-.55,5.82-4.52,9.88q-3.4,3.48-6.85,6.92c-7.35,7.38-14.93,15-21.68,23-5.7,6.79-11.17,14-16.45,21-5.9,7.79-12,15.84-18.48,23.39-12.94,15-23.93,32.92-33.58,54.66l-.53,1.19Z"/><polygon class="cls-2" points="6 8.83 58 60.83 58 1619.17 6 1671.17 6 8.83"/><path d="M1024,8V1672a8,8,0,0,1-8,8H8a8,8,0,0,1-8-8V8A8,8,0,0,1,8,0H1016A8,8,0,0,1,1024,8Zm-8,1658.34V13.66l-48,48V1618.34ZM962.34,56l48-48H13.66l48,48H962.34ZM13.66,1672h996.68l-48-48H61.66ZM960,1616V1475.12A293.91,293.91,0,0,0,901.86,1448c-19.28-6.43-38.45-13.62-58.74-17.12-12.66-2.19-24.86-7-37.48-9.63a314.88,314.88,0,0,0-38.92-6c-23.67-1.92-47.43-2.71-71.14-4.21a241.58,241.58,0,0,0-73.73,6.6c-7.73,1.92-14.13,9.2-25.08,16.75,27.27-8.13,50.64-8.61,73.84-7.18,27.55,1.69,54.77,6.64,81.73,12.59,20.5,4.53,41.26,8.41,61.24,14.68,27,8.47,53.37,18.81,77.79,33.44,8.67,5.19,17,10.9,25.48,16.45a9,9,0,0,1,1.8,2.36c-1.42.62-3.3,2.16-4.17,1.72-15.91-8-31.44-16.86-47.57-24.38-18.81-8.76-38.7-14.73-58.38-21.32-18.7-6.27-38.2-8.17-57.11-13.15-17-4.47-34.85-5.63-52.28-8.57s-34.73-4.67-52.24-3.8c-11.81.59-23.55,2.53-35.31,3.94-.72.08-1.37.76-2.05,1.16a13.82,13.82,0,0,0,2.71,1.59c8.26,2.61,17,1.71,25.43,2.53,29.21,2.84,57.8,6.71,86.07,15.82,21.64,7,43.17,14.49,63.79,23.44,23.69,10.27,46.48,23.54,65.11,42.37,1.79,1.81,4.34,4.61,2.31,6.55-2.34,2.23-4.31-1.09-6.45-2.61-18.74-13.28-38.16-25.47-59.2-34.86a555.62,555.62,0,0,0-72.4-26.15,330.17,330.17,0,0,0-63.76-12.28c-22.45-1.94-44.76-4.64-67.38-3.74-12.72.51-22.13,6.5-31.93,14.11-15.55,12.09-28.47,26.86-41.81,40.83-15.13,15.84-29.8,32.51-42.89,50.48-13.28,18.23-26,36.78-38.36,55.61Zm0-149.21V1292.61c-2.21.05-4.42.08-6.62.07-13.77-.06-26.93,2.32-40.37,4.15a489.26,489.26,0,0,0-59.46,12.2c-19,5-38,10.09-56.63,16.17-17.8,5.82-35.73,11.8-52.58,19.84-23.53,11.21-46.22,24.21-69.05,36.84-11,6.08-21.47,13.09-32.18,19.67,15.33-2.32,30.63-1.45,45.51-1.48,28.29-.06,56.82,1.41,84.81,5.38,29,4.11,57.69,11.12,86.06,19.12,34.44,9.71,67.68,21.93,98.27,40.64A21.56,21.56,0,0,1,960,1466.79Zm0-184.7V1164a44,44,0,0,0-2.55-4c-11-14-20.06-29.46-31-43.52-9-11.56-19.47-21.94-29.39-32.75-8.05-8.78-16.06-17.6-24.42-26.08-11.78-12-23.37-24.12-37.53-33.51-13.56-9-26.79-18.49-40-28-19.76-14.17-40.88-26.1-62.27-37.46-30.92-16.43-61.26-33.95-96.07-42.12-22.23-5.22-45-7-67-12.23-18.25-4.33-36.67-2.9-54.87-6.55-16.05-3.23-33.15.34-50-2.27,95.12,39.79,172.37,99.18,216,195.58-7.66-10.56-15.52-21-22.94-31.7-10.93-15.78-23.31-30.26-36-44.73-22.84-26.14-49.8-47.25-78.31-66.16a401.77,401.77,0,0,0-77.46-39.93c-21-8.1-41.87-14.48-64.51-13.58q-18.41.75-36.79,2.08c-2.06.14-4,1.57-7,2.79,32.32,8.65,62.4,19.63,91.24,34.37a657.23,657.23,0,0,1,83.82,51.5c23.9,17.1,44,38.21,65.36,58,5.52,5.1,9.32,12,13.94,18.13.83,1.1,2.77,2.3.22,3.29a4.52,4.52,0,0,1-3.76-.82c-17.29-14.5-32.24-31.46-49.6-46a582,582,0,0,0-75.22-54,566.62,566.62,0,0,0-66.34-34.2,482.67,482.67,0,0,0-60.3-21c-1.92-.54-4.12-.07-7.28-.07,39.35,13.73,75,31.47,107.12,56.44,32.38,25.21,59.06,55.22,78.24,92.28-3.58-4.08-7.35-8-10.72-12.27A453.16,453.16,0,0,0,463,981.89c-24.3-20.71-51.77-36.27-80.53-49.71-18.19-8.5-37.34-13.64-57.08-17.66-9.44-1.93-19.4-4.8-28.45-4.73-14.41.11-28.72,5.31-43.2,7.51-10.58,1.61-20.47,5.62-31.4,6.55-10.3.86-20.21,6.27-30.29,9.71-13.12,4.48-26.47,8.42-39.29,13.63-19.89,8.09-40.61,13.94-59.75,24.07-9.47,5-19.27,9.4-29,13.91v89.22c13.46-3.87,27.19-6.79,41-9.38,19.37-3.63,38.76-7.78,58.34-9.53,22.85-2,45.91-2.12,68.89-2.31,14.61-.11,29.22,1.23,43.84,1.75a635.66,635.66,0,0,1,93.23,10.47c33.09,6.14,66.17,13.15,98.27,23.7,19.28,6.33,38.91,12,57.46,20.13,35.94,15.69,72,31.09,105.88,51.32,32.07,19.18,62.65,40.29,91.23,64.34,2.34,2,4.74,4.2,2.75,6.92s-5.33,1.57-7.83-.26c-15.19-11.12-29.64-23.44-45.66-33.18-28.84-17.51-57-36.34-88.32-49.58-15.58-6.58-30.47-14.81-46.07-21.32-24.9-10.39-50.16-19.83-76.38-26.55-12.05-3.08-23.8-7.3-35.74-10.87a54.48,54.48,0,0,0-7.48-1.2c20.63,8.76,39.37,20.32,57.66,32.33,19.24,12.62,39.45,23.91,56.05,40.46,17.81,17.76,37.94,33.31,54.79,51.88,17.28,19,33.8,39,45.82,62.39,5.64,11,13.32,21.33,19.27,32.44.63,1.17,3.52,3.39.79,4.21-1.74.53-4.79,2.24-7.12-1.64-15.89-26.43-32.44-52.63-52.87-75.69-17.41-19.66-37.55-36.89-56.28-55.41-16.81-16.62-35.63-30.48-55.59-43.08-20.29-12.82-40.5-25.65-62.61-35.3,19.91,13.71,35.37,32,51.56,49.42a453.16,453.16,0,0,1,52.72,69.26c14.68,23.65,28,48.14,36.89,74.72.81,2.4,3.5,6.38.36,7.51-4.36,1.56-4.67-4.53-5.52-6.52-8.93-21-21-40.2-32.52-59.73-12-20.4-28-37.93-41.88-57-11.8-16.21-27-28.95-39.87-44-13.1-15.32-30.62-25.36-47.49-35.93a416.91,416.91,0,0,0-36.62-20.91c-6.29-3.11-13.28-6.27-22.12-4.8,18.49,8.68,32,22.32,46.24,34.92a275,275,0,0,1,60.68,77.11c11.77,22.11,18.51,45.82,24.23,69.94.36,1.51-.6,3.33-.94,5-1.37-1.7-3.32-3.18-4-5.12-7.22-20-13.46-40.35-23.82-59.14-15.52-28.17-34.22-53.67-58.08-75.51-17.32-15.84-34.65-31.64-54.23-44.54-13.14-8.66-28.72-8.79-44-9.11-23.17-.49-46.37-2.37-69.5-1.67-26.07.79-52.28,2.45-78.06,6.21-22.67,3.31-44.85,9.94-67.32,14.8v4.31c27-.36,54,.85,80.26,6.74,21.05,4.72,41.53,12.43,61.33,21.82s39.54,19.28,57.78,31.64c15.32,10.38,29.36,22.34,40.81,37,.84,1.07,3.21,2.83,1,4.51-1.71,1.29-3.57.68-5.33-.93-25.27-23.17-52.79-43.21-84-57.7-28-13-56.74-24.35-87.63-28.7-16.12-2.27-32.28-4.88-48.5-5.65-5.23-.24-10.47-.17-15.72,0v308.11c3.77-1.7,7.51-3.45,11.17-5.36,12.53-6.53,27-7.63,40.44-11.6,24.2-7.17,49-10.84,73.8-13.14a348.9,348.9,0,0,1,79,1.23c5.9.8,12,.35,17.93.68,20.56,1.13,40.27,6.86,60.35,10.72,23.84,4.6,46.44,12.58,68.9,21,15.59,5.87,30.48,13.62,45.56,20.8,23.9,11.38,44.2,28.63,67.09,41.7,2.68,1.53,3.07.06,4.14-.91,24.67-22.52,50.91-43.11,78-62.63,17.28-12.45,34.59-25,52.83-35.92,18-10.82,37.68-19,55.88-29.57,20-11.64,41.47-19.32,63.13-26.61,20.66-7,41.53-13.46,62.63-18.88,21.33-5.49,42.86-11.16,64.65-13.49C926.18,1283.85,943,1282.47,960,1282.09Zm0-130.18v-79c-12.55-10.8-25.22-21.46-38.17-31.75a430.05,430.05,0,0,0-62.33-40.68c-20.31-11-41.06-21.36-62-31.29-17.28-8.22-35-15.58-52.64-23-8.86-3.72-18-6.72-27-10l-1.17,2.69c18.31,10,36.56,20.09,54.95,29.93a427.81,427.81,0,0,1,69.5,46.53c20.28,16.61,38.71,35,56.68,53.8,10.69,11.21,18.76,24.91,29.34,36.25C940.33,1119.46,950,1135.8,960,1151.91Zm0-93.59V64H64V969.61c4.94-2.17,9.86-4.38,14.63-6.87,23.6-12.32,48.88-20.37,73.66-29.6,21.81-8.12,43.92-15.7,66.36-21.8,21.84-5.94,44.25-9.85,66.46-14.35,22.76-4.6,45.78-7.52,68.76-10.77a444.88,444.88,0,0,1,47.74-4.4c15.61-.49,31.57-1.81,47.6.53s32.45,0,48.67.8c15.06.71,30.09,2.53,45.08,4.31,12.51,1.49,24.91,3.87,37.41,5.42a608.53,608.53,0,0,1,62.13,11.38c16.41,3.79,33.12,6.39,49.33,10.89,17.24,4.78,34.25,10.6,51,17,22.16,8.46,44.36,17.05,65.78,27.17,20.73,9.8,40.77,21.14,60.6,32.68A557,557,0,0,1,918,1023.37,502.88,502.88,0,0,1,960,1058.32ZM517.71,1486.41c11.9-12.15-5-10.71-7.41-12.32-14.88-10.09-31-18.32-46.59-27.38a282.67,282.67,0,0,0-45.55-21.59c-20.63-7.49-41-16.11-62.2-21.51-22.85-5.83-46.41-9.26-69.85-12.3-17.81-2.31-36-3.81-53.85-2.89-10.22.53-20.8-4.67-30.79,1.92A304.51,304.51,0,0,1,260.15,1421c21.32,14.41,40.12,31.74,57.45,50.82,11,12.1,21.94,24.15,31.15,37.67,9.85,14.46,17.52,30.1,24,46.29.88,2.18-.54,5.29-.9,8-3.12-1.47-2.71-4.88-4.06-7.31-5.64-10.18-10.78-20.75-17.44-30.23a385.55,385.55,0,0,0-48.25-56.62c-25.4-24.37-51.92-48.29-85.18-59.88-25.09-8.74-51.54-19.15-81.78-11.83,23.66,7.66,45.08,16,63.86,29.29,13.16,9.31,26.32,18.65,38.73,29.18a239.72,239.72,0,0,1,33.85,34.8c13.65,17.38,26.38,35.35,33,57.25,2.6,8.55,6.2,17.22,9.44,25.8a8,8,0,0,1,0,2.8c-1.16-.45-2.93-.56-3.37-1.39-10.52-19.49-18.63-40.28-31.74-58.36-8.15-11.23-16.48-22.24-26.12-32.35-13.36-14-28.41-25.87-43.8-37.5-25.71-19.42-54.29-33.58-84.49-43.6-14.35-4.77-29.62,2.87-43.71,8.12-5.6,2.08-11.24,4.07-16.83,6.17v198H420.27c8.81-19.84,19.56-38.5,33.89-55.15,12.27-14.26,22.82-30,34.92-44.37C498,1505.9,508,1496.3,517.71,1486.41ZM56,1618.34V61.66l-48-48V1666.34Z"/></svg>