<svg id="Card" xmlns="http://www.w3.org/2000/svg" viewBox="0 0 1024 1680"><defs><style>.cls-1{fill:#f2f0ed;}.cls-2{fill:#8c1707;}.cls-3{fill:#16592d;}.cls-4{fill:#d82e21;}.cls-5{fill:#f79d31;}.cls-6{fill:#38408c;}</style></defs><rect class="cls-1" x="14.5" y="14.5" width="995" height="1651"/><polygon class="cls-2" points="966 1619.17 966 60.83 1018 8.83 1018 1671.17 966 1619.17"/><polygon class="cls-2" points="60.83 58 8.83 6 1015.17 6 963.17 58 60.83 58"/><polygon class="cls-2" points="8.83 1674 60.83 1622 963.17 1622 1015.17 1674 8.83 1674"/><path class="cls-3" d="M954.78,1424.68c-20.32,0-36.51-5.94-49.48-18.15-3.58-3.36-7.06-5-10.64-5-2.72,0-5.63.88-9.13,2.76-6.44,3.46-12.16,5.14-17.51,5.14a24.26,24.26,0,0,1-8.85-1.66c-19.42-7.53-37.25-20.49-53-38.52-.94-1.09-2.23-2.31-3.58-3.59-4.42-4.19-9.9-9.39-10-15.89,0-3.77,1.66-7.33,5.23-10.89,13.81-13.82,17.48-28.42,11.57-46l-.12-.33c-.49-1.38-1.41-4-.09-5.84a3.72,3.72,0,0,1,3.24-1.51,8.3,8.3,0,0,1,1.81.23,56,56,0,0,1,7.41,2.46,43.45,43.45,0,0,0,8,2.53,50.93,50.93,0,0,0,8.72.8,30.64,30.64,0,0,0,19.69-6.48,31.82,31.82,0,0,1,3.47-2.28c.54-.33,1-.62,1.54-.94l2.6-1.65.45,3,.24,1.72c.14,1.09.29,2.2.49,3.25a36.74,36.74,0,0,1,.37,8.59,44,44,0,0,0,0,5.52c1.47,16.08,3.52,32.39,5.5,48.16q1.07,8.58,2.13,17.15a11.83,11.83,0,0,1,.05,1.22v.18a7.28,7.28,0,0,0,1.76-1l0-.47c-.66-13.36-1.34-27.17-2.82-40.65-.67-6.17-1.15-11.74-.14-17.59l.72-4.19,4.42,5.15c2.17,2.53,4.41,5.14,6.61,7.77a7.46,7.46,0,0,1,1,1.88c.08.19.17.39.26.58l4.39,8.74c5.1,10.18,10.38,20.7,15.51,31.12.4.8.72,1,.83,1a1.27,1.27,0,0,0,.48-.14c.71-.32,1.19-.66.73-2.08-5.39-16.86-11.73-30.69-19.39-42.3a54.72,54.72,0,0,0-6.62-7.64c-3.65-3.72-7.42-7.57-9.12-12.36-3.46-9.82-3.06-20.24-2.67-30.31.17-4.55.35-9.25.16-13.81a4.67,4.67,0,0,1,.77-2.48c.1-.19.19-.34.25-.49l.86-2,1.93,1,.83.41a10.33,10.33,0,0,1,2.44,1.44q8.61,7.28,17.2,14.62l.63.54,9.5,8.1a45.82,45.82,0,0,0,4.3,3.09c3.67,2.44,7.45,4.94,8.43,8.63,1.23,4.56,2.37,9.17,3.48,13.62,2.09,8.41,4.25,17.1,6.95,25.52a378.33,378.33,0,0,0,30.14,69.6,6.1,6.1,0,0,0,2.17,1.66l1,.58v28.15l-1.91.09C958.29,1424.64,956.51,1424.68,954.78,1424.68Z"/><path class="cls-3" d="M958.19,1384.47c-5.88-12.51-10.35-22.1-14.49-31.08a5.8,5.8,0,0,1-.22-3.29,7.87,7.87,0,0,0,.1-.86l.1-2.6,2.48.76c.25.07.52.12.79.18a6.46,6.46,0,0,1,2.92,1.14c2.93,2.39,6.1,4.59,9.17,6.72l3,2.06v27.32l-3.3.74Z"/><path class="cls-3" d="M958.86,1349.86c-3.65-2.55-7.54-5-11.55-7.42a8.94,8.94,0,0,0-2.83-.85c-2.59-.52-6.13-1.22-7.42-5.84-1.6-5.77-3.43-11.59-5.19-17.23-1.47-4.7-3-9.52-4.37-14.31a47.82,47.82,0,0,1-1.34-7.45c-.13-1.07-.27-2.15-.44-3.22l-.72-4.6,3.84,2.64,2.63,1.85c1.81,1.28,3.67,2.6,5.55,3.78,2.82,1.77,5.73,3.53,8.55,5.24l.16.1c2.72,1.65,5.8,3.51,8.77,5.37l7.5,4.74v39.4Z"/><path class="cls-3" d="M958.9,1306.3c-10.19-6.66-19-12.85-26.91-18.91l-3.12-2.4,3.78-1.11c.83-.24,1.63-.44,2.41-.64A21.83,21.83,0,0,0,939,1282q8.36-3.91,16.68-7.89l6.32-3v37.21Z"/><path class="cls-3" d="M924.51,1280.82a7.79,7.79,0,0,1-4.83-1.43c-13.79-11.13-27.64-22.67-41-33.82l-3-2.5-.18-.07a3,3,0,0,1-2.18-2.2c-.25-1.46.8-2.56,1.75-3.36,7.82-6.66,16.25-9.89,25.77-9.89,7,0,14.55,1.71,23.81,5.37l2.79,1.12.48.2c8.45,3.41,17.19,6.94,26.4,6.94a36.3,36.3,0,0,0,3.63-.19,3.23,3.23,0,0,0,1-.5l3.1-2v27.1l-1.21.52c-11.16,4.82-22.1,9.54-33.18,14.2a8,8,0,0,1-3.1.56Z"/><path class="cls-3" d="M958.5,1239.38a1.39,1.39,0,0,0-.4-.36c-2.53-.8-5.2-1.44-7.78-2s-5.53-1.32-8.27-2.19c-7-2.26-14.14-4.73-21-7.12l-.66-.23c-2.73-1-5.46-1.9-8.21-2.84l-4.23-1.45,3.9-2.18c10.52-5.89,21.12-9.36,31.38-12.71l.32-.11,4.44-1.46c.36-.12.77-.24,1.22-.37,1.3-.37,3.26-.93,3.68-1.74,0-.08.19-.35-.06-1.06s-.66-1.21-2-1.21a15.79,15.79,0,0,0-3.75.7l-.7.18c-22.42,5.73-45.09,14.3-71.34,27a10.17,10.17,0,0,0-1.53,1.49c-1.35,1.48-3,3.33-5.19,3.33-1.65,0-3-1-4.12-3-5.56-10.37-11.76-21.35-20.86-31.76l-3.41-3.9,5.14.59c2.3.27,4.46.59,6.55.9a75.87,75.87,0,0,0,11,1.12l1.28,0c5.84-.24,11.82-1.82,16.9-3.33a23.33,23.33,0,0,0,15.1-14,33.16,33.16,0,0,0-2.13-28.11l-.19-.31c-.78-1.21-2.38-3.7-1.26-5.83.46-.87,1.52-1.93,4-2,4.27-.14,8.83-.28,13.34-.28,13.37,0,29.11,1,44.58,8.43a72.07,72.07,0,0,1,6.84,3.73l1,.59v85.64Z"/><path class="cls-3" d="M867.85,681.1c-13.94,0-27-5-39.71-9.83l-.12,0c-3-1.14-6.09-2.32-9.1-3.4C804.06,662.55,791.1,660,779.3,660c-15.51,0-29.8,4.38-43.69,13.39L732,675.71l.54-4.27c.63-5,1.27-10,1.91-14.8l1.51.06-1.49-.2c1.54-11.72,3-22.79,4.07-34,.72-7.31,5.79-11.83,10.08-11.83a6,6,0,0,1,3,.77,161.47,161.47,0,0,0,22.19,10.94c7.2,2.73,14.43,5.66,21.42,8.49,6.67,2.7,13.57,5.5,20.43,8.11a10,10,0,0,0,2.25-.87l0,0a5,5,0,0,0-.74-1.25c-9.9-4.62-20.49-9.36-31.42-14.06-6.79-2.93-13.58-5.73-20.78-8.69l-9.92-4.1-3.94-1.64,3.78-2c2.5-1.31,4.87-2.58,7.17-3.82,5.47-2.93,10.62-5.69,15.9-8.09l1.25-.59c2.29-1.1,4.82-2.32,7.32-2.32a6.1,6.1,0,0,1,4.31,1.67c15,14.33,33.07,24.92,50.52,35.17l.19.11q4,2.36,8,4.72c5.78,3.44,12.24,6.1,18.49,8.68,4.4,1.81,8.92,3.68,13.27,5.83l.3.15a10.49,10.49,0,0,0,3.22,1.23c.15,0,.18,0,.28-.16a2.26,2.26,0,0,0,.11-2.06,2.1,2.1,0,0,0-1.38-1.35c-5.92-1.32-11-4.24-15.9-7.06a70.09,70.09,0,0,0-10.74-5.4c-4.46-1.62-8-4.11-11.71-6.74-4-2.84-8.17-5.77-13.52-7.38l-1.25-.37.52-3.54h1.3c2.41,0,4.58,0,6.59-.08h.2c1.68,0,3.25-.06,4.75-.06,2.39,0,4.25.07,6,.23,5.51.48,11,1.2,16.41,1.9,3,.39,5.88.77,8.79,1.12,1,.12,2.11.19,3.17.26a5.25,5.25,0,0,0-.8-1.35l-4.48-1.38c-6.51-2.05-13.24-4.16-19.8-4.41-3.11-.12-6.27-.2-9.33-.27-6.78-.17-13.79-.33-20.38-1-6.21-.62-11.81-4.87-17.22-9a81.51,81.51,0,0,0-8.11-5.67c-1.32-.76-3-2-2.89-3.94s2.42-2.95,3.16-3.24a59.34,59.34,0,0,1,10.56-3c2.67-.51,5.39-1.08,8-1.63l.18,0c7.64-1.6,15.54-3.26,23.44-3.65,3.09-.15,6.3-.47,9.4-.78a135.59,135.59,0,0,1,13.57-.91c7.72,0,13.88,1.37,19.36,4.31,8.81,4.72,17.08,10.63,25.08,16.34,2.64,1.88,5.27,3.76,7.92,5.6l1.48,1c8.85,6.16,18,12.53,29.14,13.52h0a5.07,5.07,0,0,0,1.84-.88,3.58,3.58,0,0,0-1.19-1.06c-14.59-4.61-26.44-13-39-21.83-4.65-3.28-9.45-6.67-14.4-9.85l-4.48-2.87,5.26-.79a68.21,68.21,0,0,1,10.15-.73,139.4,139.4,0,0,1,18.85,1.66l.23,0,4.71.62a174.9,174.9,0,0,0,21.82,1.68,84,84,0,0,0,9.19-.47l2.21-.24v57l-1.63.31c-2.31.43-4.69.79-7.08,1.07a118.11,118.11,0,0,1-13.9.71c-3.68,0-7.39-.11-11-.21-3.09-.09-6.29-.18-9.41-.2h-.13c-3,0-3.74,1-3.93,2.82-1.79,16.63-11.73,27.13-31.29,33.06a53.55,53.55,0,0,1-15.79,2.32Z"/><path class="cls-3" d="M739.61,602.5c1.8-16.14,3.62-32.43,5.42-48.74a81.64,81.64,0,0,0,.29-9c0-7.06,0-14.34,3.69-19.13l1.87-2.4c15.1-19.51,30.71-39.68,52.19-53.7,8.95-5.85,17.27-8.82,24.72-8.82a25.09,25.09,0,0,1,19.36,8.94c7,7.83,5.7,17.28,4.56,25.62-.28,2-.55,4.06-.72,6a3.64,3.64,0,0,0,.52,2.71,2.49,2.49,0,0,0,1.88.59,8.78,8.78,0,0,0,3-.59c17.79-6.75,33.94-12.33,51.33-12.33a75.23,75.23,0,0,1,21.9,3.2c15.62,4.7,28.62,17.18,32.36,31l.05.19,0,.26v53.27l-2,0c-2.17-.06-4.33-.16-6.48-.25-1.62-.08-3.16-.15-4.7-.2-15.23-.55-30.64-2.17-45.54-3.74-7.84-.83-15.94-1.69-24-2.38-2.1-.18-4.31-.26-7.16-.26-1.88,0-3.86,0-6,.07h-.24c-2.69,0-5.69.1-9,.1h-1.25l-.63-3.43,1.18-.44c27.39-10.32,49.83-19.5,68.42-35.63.3-.26.61-.51.93-.76,1.82-1.43,2-1.66,1.19-3-.42-.68-.67-.79-.67-.79a8.56,8.56,0,0,0-1.19.84,12.7,12.7,0,0,1-1.19.84c-3.21,1.93-6.43,4-9.53,5.91-12.41,7.81-25.23,15.89-40.08,19.59l-3.85,1,1.52-3.67c6.44-15.49,12.76-27.67,19.89-38.3l.09-.13c2.18-3.27,1.82-3.55,1-4.15a1,1,0,0,0-.6-.18,3.38,3.38,0,0,0-2.48,1.59,278.8,278.8,0,0,0-17.34,27.88,37.67,37.67,0,0,0-2.68,7.33c-1.64,5.67-3.51,12.1-10.59,15.39a230.91,230.91,0,0,1-58.48,18.06l-5.73,1-7,1.21,1.76-3.53c.43-.86.86-1.72,1.3-2.58l.1-.21c.86-1.7,1.72-3.4,2.55-5.11.54-1.09,1.08-2.18,1.64-3.26,1.46-2.91,2.94-5.82,4.06-8.76l2.13-5.49c6.23-16,12.66-32.6,14.71-50.14l.07-.58c.23-1.84.23-2.25-.29-2.79a4.24,4.24,0,0,0-1.27-.87c-.77.3-1.39.85-1.73,3-3,19.43-10.38,37.1-16.43,50.31l-1.46,3.19-2-2.88c-6.81-9.75-9.33-20.22-11.78-30.35l-.07-.32c-.3-1.21-1.06-1.93-1.62-1.93a1,1,0,0,0-.4.09c-1.35.58-2.52,2-2,3.58.63,2,1.19,4.16,1.69,6.07,1.3,5,2.65,10.21,5.46,13.91,10.52,13.79,8.9,28.73-4.44,41C772.35,592.14,763,596.67,754,601c-3.89,1.89-7.92,3.84-11.7,5.94l-3.39,1.87Z"/><path class="cls-3" d="M859.54,1108.18a5.36,5.36,0,0,1-4.56-1.91c-1.69-2.27-.71-5.57.08-8.21a13.67,13.67,0,0,0,.63-2.59c-4.23-17.45-21.71-31.17-39.78-31.17a32.06,32.06,0,0,0-10.86,1.86c-3.95,1.42-7.22,2.36-10.31,2.36-5.26,0-9.31-2.78-12.74-8.74-2.88-5-9.42-6.16-15.74-7.29-1-.17-1.93-.34-2.86-.53a6.37,6.37,0,0,1-2.57-1.32c-.24-.18-.45-.34-.67-.48l-2.76-1.7,2.76-1.7.71-.46a17.19,17.19,0,0,1,1.69-1c1.05-.53,2.14-1,3.19-1.41A18.39,18.39,0,0,0,771,1041a18.83,18.83,0,0,1,13.06-5.24c4.18,0,8.32,1.25,12.33,2.45,1.76.53,3.57,1.07,5.37,1.5,7.67,1.85,15.62,3.22,23.3,4.55,5.51,1,11.2,1.93,16.81,3.09a105.64,105.64,0,0,0,21.64,2.32,93.21,93.21,0,0,0,10.19-.56c2.64-.29,4.62-1.5,4.7-2.41a5,5,0,0,0-.51,0,16.22,16.22,0,0,0-1.74.14,18.38,18.38,0,0,1-2.09.16h-.24c-23.2-.73-43.47-4-62-9.83a48.49,48.49,0,0,0-7.51-1.52c-1.51-.22-3.09-.46-4.64-.77a14,14,0,0,1-2.89-1c-.43-.19-.77-.35-1.13-.49l-2.48-1,1.62-2.11a12.43,12.43,0,0,0,.85-1.31c.79-1.34,1.69-2.86,3.31-3.46,18.47-7,35.33-17.68,51.64-28,8.13-5.15,16.53-10.48,25.06-15.31,2-1.1,2.76-2,2.86-2.53,0-.07,0-.2-.18-.5a1.56,1.56,0,0,0-1.42-.56,7.47,7.47,0,0,0-3.58,1.18c-16,9.58-32,19.13-47.72,28.38a5.47,5.47,0,0,1-2.88.59,6,6,0,0,0-.75,0l-2.85.3.7-2.78c.06-.25.1-.5.14-.76a7.06,7.06,0,0,1,.78-2.49q2.28-3.78,4.54-7.57l.18-.31c5.3-8.88,10.79-18.08,16.63-26.86a4,4,0,0,0,.35-.6,15,15,0,0,0-3.11-.42,4.1,4.1,0,0,0-.62,0c-1.66,2.44-3.35,4.87-5,7.3-6.15,8.87-12.51,18-17.39,27.7-7,13.81-19.13,20-30.91,25.93l-.1,0c-1.6.81-3.19,1.61-4.78,2.44-6.84,3.57-13.52,7.21-20.6,11.06l-.14.07-9.79,5.32-3.63,2,.71-4.08c1.62-9.24,5.44-17,9.14-24.55,1.33-2.73,2.7-5.52,3.92-8.29,2.31-5.26,4.49-10.69,6.6-15.94,4.44-11,9-22.47,15.06-32.94,3.26-5.67,8.71-10,14-14.08a91.5,91.5,0,0,0,9-7.72c5.14-5.3,11.55-6.7,17.74-8.06,4.22-.93,8.58-1.88,12.16-4.14,2-1.24,3.93-2.46,5.9-3.68,9.82-6.09,20-12.39,28.37-20.61,0-.31-.13-.73-.19-1a2.49,2.49,0,0,0-.68.08c-10.38,6.32-22.13,13.46-33.57,20.77-1.58,1-3.2,2-5.11,2a5.27,5.27,0,0,1-3.35-1.24c-2.42-2,2-7.64,2.19-7.88,3.14-3.94,6.45-7.79,9.66-11.52,8-9.26,16.2-18.83,21.86-30a1.78,1.78,0,0,0,0-1.93,5.21,5.21,0,0,0-1.85,1c-3.83,4.72-7.62,9.51-11.27,14.14-6,7.56-12.14,15.37-18.5,22.85-7.35,8.63-15.1,17.08-22.6,25.24q-4.95,5.39-9.85,10.77l-1.2,1.33-1.45-1.05c-1.18-.85-2.37-1.7-3.54-2.57l-1.13-.82,7-24.24c1-3.45,2.08-6.93,3.12-10.31,2.32-7.53,4.7-15.27,6.44-23,4.84-21.57,9.12-42.75,8.27-64.63-.09-2.43-.1-4.85-.11-7.19,0-6.75-.06-13.71-2.13-20.21a6,6,0,0,0-2.28-.66c0,.32.12.73.16,1l.07.36c3.78,20.07.82,40-2,59.37l-.27,1.82c-.13.84-.24,1.68-.36,2.53-1,7.14-2,14.51-7.24,22.1L795.77,887c3.21,9.28.23,16.75-2.41,23.37a46.92,46.92,0,0,0-3.27,10.5c-.75,5.24-2.76,10.25-4.7,15.1-.84,2.1-1.68,4.2-2.4,6.25a24.66,24.66,0,0,1-1,2.43c-.16.35-.33.7-.48,1l-1,2.14-2-1.27a11,11,0,0,0-1-.57,7,7,0,0,1-3.09-2.44c-1.27-2.13-2.56-4.26-3.84-6.39l-.28-.47c-5-8.34-10.23-17-14.82-25.77-4-7.69-1-14.75,1.64-21a44.84,44.84,0,0,0,2.92-8.26c2.26-11.12,1.77-22.42,1.29-33.36-.19-4.3-.39-8.75-.42-13.17a6,6,0,0,0-1-1.37c-2.13,1.83-3.15,5-2.64,7,3.6,13.68.91,26.36-1.94,39.79-1,4.93-2.13,10-2.89,15.23l-.84,5.74-2.88-5c-6.35-11.15-10.24-22.44-14-33.35-1.69-4.92-3.44-10-5.37-14.89-.14-.36-.28-.75-.42-1.15a12.89,12.89,0,0,0-.66-1.67,6.78,6.78,0,0,0-1.07,4,233.38,233.38,0,0,0,21.59,58.34c1.42,2.65,2.81,5.3,4.2,8,6.56,12.53,13.34,25.49,22.73,36.76,3.72,4.46.66,9.9-2,14.7a32.69,32.69,0,0,0-3.11,6.6c-1.12,4.1-3.26,7.84-5.33,11.45-.67,1.18-1.44,2.52-2.12,3.81a17,17,0,0,1-2.28,3.1c-.33.38-.66.77-1,1.16l-1.66,2.11-1.55-2.18c-.26-.36-.55-.71-.84-1.06a11.8,11.8,0,0,1-2.19-3.41q-3.62-10-7.18-20l0-.13c-3-8.49-6.16-17.27-9.31-25.87a4.86,4.86,0,0,0-1.17-1.51,8.27,8.27,0,0,0-.82,1.46l.68,2.4c5.25,18.6,10.68,37.82,20.94,55,3.2,5.36-1.67,14.07-7.3,20.44a3.29,3.29,0,0,1-2.5,1.16c-2.61,0-4.85-3.07-6.83-5.77l-.62-.84c-2.49-3.31-4.89-6.7-7.21-10-4.91-7-10-14.13-15.82-20.33-4.82-5.13-3.74-10.4-3-14.25.12-.6.24-1.16.32-1.7,2.74-17.22,1.29-34.65-.11-51.51l0-.44c-.22-2.72-.45-5.44-.66-8.16,0,0-.28-3.52-1.82-3.52H711a2.25,2.25,0,0,0-1.69.83,3,3,0,0,0-.43,2.41c2.58,13.77,2.27,27.77,2,41.3l-1.5.07,1.5,0c-.1,4.24-.19,8.63-.2,12.92a6.82,6.82,0,0,1-2.93,5.1,2.38,2.38,0,0,1-1.33.39,6.6,6.6,0,0,1-4.58-2.73c-3.38-5.42-6.73-10.92-10-16.24l-.11-.18q-3.64-6-7.32-12c-.16-.26-.33-.55-.49-.85a11.55,11.55,0,0,0-1.2-1.83c-1.63,1.2-1.89,2.48-.93,4.29l1.72,3.22c7,13.19,14.28,26.82,24.33,38.58,5.07,5.93,9.35,13.19,12.51,18.86,1.15,2.06,2.53,5.06,1.2,7.32-.81,1.38-2.34,2.08-4.57,2.08a23.54,23.54,0,0,1-3.75-.4c-.61-.09-1.23-.19-1.57-.21-10.4,4.22-21.94,10.25-29.1,22.76a5.86,5.86,0,0,1-2,1.9c-.22.14-.41.27-.59.41l-2.26,1.82-.89-2.77-.19-.48a5.35,5.35,0,0,1-.56-2.31c.52-17.55-5.57-27.94-19.73-33.69-3.08-1.24-4.87-2.88-5.48-5-.94-3.24,1.31-6.38,3.13-8.9a13.06,13.06,0,0,0,1.93-3.19c3.1-12.92,7.19-25.8,11.14-38.25,2.46-7.74,5-15.69,7.27-23.64,3.11-10.82,6-21.91,8.8-32.64,2.58-9.9,5.22-20.05,8.06-30.06.89-3.16,1.71-6.43,2.51-9.59,2.71-10.79,5.49-21.88,11.75-31.59,6.39-9.88,17.69-15.78,30.24-15.78A38.66,38.66,0,0,1,756.2,803a1.07,1.07,0,0,0,.59.22c1.31,0,3.32-3.7,4.4-5.69.67-1.22,1.29-2.36,1.92-3.27,11.5-16.39,29-25.79,47.95-25.79a59.78,59.78,0,0,1,32.52,9.81c9.49,6.15,12,17.41,14.41,28.29.35,1.54.69,3.07,1,4.57,2.25,9.43,2,18.48,1.28,26.86a1.85,1.85,0,0,0,.14,1.12,2,2,0,0,0,1.2.24,16.16,16.16,0,0,0,2.38-.25l.76-.11a30.39,30.39,0,0,1,4.16-.28,34.32,34.32,0,0,1,25,11.38A33.47,33.47,0,0,1,903,875.23c-1.69,20.77-13.44,35.64-25.34,49.09a131.11,131.11,0,0,0-10.51,13.91,9.94,9.94,0,0,1-1,1.2c-1.14,1.22-1.1,1.28-.55,2a4.06,4.06,0,0,0,3.78,1.67c.34,0,.7,0,1.05,0,2.85-.16,5.36-.23,7.65-.23,19.45,0,27.48,5.65,37.35,26.28,5.86,12.22-.76,30.2-14.46,39.27-2.26,1.49-8.26,5.47-8.14,7.57.07,1.31,2.78,3.32,8,6,5.89,3,10.53,9.56,13.06,18.54,2.27,8.06,2.41,16.77.39,23.3-5.88,19-20.55,26.86-34.74,34.51-2.68,1.44-5.44,2.93-8.12,4.48a21.29,21.29,0,0,0-2.4,1.74,14.25,14.25,0,0,1-5.09,3A18,18,0,0,1,859.54,1108.18ZM789,819.46a5.08,5.08,0,0,0-1.86,2.58c-.73,18.19-.45,41.87,8.23,63.74l.2.51-.13-5.19c-.23-9.56-1.78-18.73-3.28-27.6-1.81-10.73-3.53-20.85-3.09-31.52v-.21A10,10,0,0,0,789,819.46Z"/><path class="cls-4" d="M861.93,1191.88c-23.61,0-44.4-10.08-62.74-19a4.56,4.56,0,0,0-1.66-.22l-1.33,0c-.35,0-.7,0-1.05,0l-1.21-.08-.46-3.38,1.15-.41c13.53-4.84,21.8-15.4,28.1-25.1a13,13,0,0,0,1.85-6.3c.45-10.32,3.88-15.55,10.18-15.55,3.9,0,8.07,2.06,11.75,3.88a30.41,30.41,0,0,0,4.94,2.15c17.17,4.45,30.76,15.95,38.28,32.41,3.32,7.29,2.57,15.72-1.91,21.49a24.6,24.6,0,0,1-18.05,9.73C867.17,1191.75,864.54,1191.88,861.93,1191.88Z"/><path class="cls-4" d="M835.79,1284.76a40.52,40.52,0,0,1-9.68-1.2c-23.56-5.79-37.91-21.81-51.71-39.13-1.39-1.75-3.12-3.92-2.62-6.28.45-2.15,2.5-3.46,4.24-4.36,13.43-7,21.87-24.7,10.44-48.56-.08-.16-2-4.24.26-5.5l.69-.38c1.48-.82,3.13-1.75,4.63-1.75a3.2,3.2,0,0,1,1.55.38c4.44,2.42,9.21,4.52,13.82,6.54,11.23,4.93,22.83,10,31.66,20.51,16,19,23.28,34.71,23.72,51,.47,8.54-1.82,15.76-6.61,20.83S844.12,1284.76,835.79,1284.76Z"/><path class="cls-5" d="M826.78,1117.88c-5.11,0-8.9-3.22-12.24-6.05-2.73-2.32-5.55-4.72-8.82-5.11a19.63,19.63,0,0,1-5.72-1.94,13,13,0,0,0-4.81-1.57h-.33c-1.22.11-2.32.17-3.28.17-2.36,0-5.65-.29-6.87-2.74s.49-5.8,3.54-9.87c1.83-2.43,2.28-5.59,2.75-8.94l0-.19c.09-.66.19-1.33.3-2,1.26-7.75,6.39-8.75,10.73-8.75.76,0,1.53,0,2.31.06s1.46,0,2.19,0a9.49,9.49,0,0,0,4.27-.73,5.15,5.15,0,0,1,2.42-.52c.57,0,1.12.06,1.65.11s.93.1,1.29.1h.15a34.3,34.3,0,0,1,26,12.28c5.62,6.74,8,15.09,6.6,22.91-1.49,8.14-7.5,9.4-12.32,10.42a28.51,28.51,0,0,0-4.55,1.21A14.51,14.51,0,0,1,826.78,1117.88Z"/><path class="cls-5" d="M768.69,1165.06a94.94,94.94,0,0,1-11-.65l-5.54-.65,4.69-3,1.82-1.17c5.93-3.76,10.62-6.74,12-12.33,1.6-6.54-.26-13.18-5.84-20.87-.65-.9-1.34-1.75-2-2.57-2.22-2.72-4.3-5.27-3.43-8.16.75-2.5,3.44-4.31,9-6.05a43.79,43.79,0,0,1,12.7-1.67c12.09,0,28.2,3.91,35,12.5,3.4,4.31,4,10.94,1.71,18.19-3.32,10.42-11.78,19.5-20.57,22.08A98.74,98.74,0,0,1,768.69,1165.06Z"/><path class="cls-5" d="M782.12,1341.51a8.33,8.33,0,0,1-1.47-.12c-18.3-1-25.26-12.3-32-23.21-11.69-18.93-21.3-36.34-20.42-57.83a59.71,59.71,0,0,1,1.21-8.64c1-5.27,2-10.72-.13-16a2.18,2.18,0,0,1,.26-2.1s1.45-2,3-2H733l.51.27.05,0c4.73,3,10.34,4.8,15.76,6.56,8.72,2.82,17.72,5.73,23.89,13.47a148.62,148.62,0,0,0,11.44,12.26c9.12,9,18.53,18.4,21.89,32.38,3.87,16-.7,29.41-13.94,40.86A17.12,17.12,0,0,1,782.12,1341.51Z"/><path class="cls-3" d="M547.58,1618h-.1c-18-2.28-38.17-7.59-50.83-29.78-4-7-5.21-14.64-6.4-22a98,98,0,0,0-2.81-13.41c-1.37-4.45-3.84-4.45-4.64-4.45h-.21c-.53,0-1.09,0-1.65,0-24.84,0-46.62-18.91-55.29-37.59-9-19.37-6.8-38.11,6.37-54.19a14.69,14.69,0,0,0,1.79-3.2,25,25,0,0,1,1.69-3.22c2.41-3.63,2-4.5,2-4.51s-.48-.81-4.46-.81h-1.1c-10.49,0-21.73-5.18-30.1-13.86-7-7.32-10.91-16.12-10.61-24.17A22.33,22.33,0,0,1,404,1387.21c11.87-5.32,12.71-10.23,10.12-19.23-3-10.39-2.22-25.67,18.56-39.47a9.71,9.71,0,0,1,5.52-1.42c3.26,0,7.05,1,10.72,1.93,2.31.59,4.7,1.21,6.8,1.53l.75.12a27.81,27.81,0,0,0,4.16.44,7.13,7.13,0,0,0,4.7-1.53,6.9,6.9,0,0,1,4.25-1.79c2,0,3.76,1.28,5.28,3.9,3.19,5.51,15.81,9.21,25.59,9.21a24.75,24.75,0,0,0,6.21-.67c13.12-3.5,26.82-8.34,38.16-20a5.15,5.15,0,0,1,3.88-1.34,33.58,33.58,0,0,1,7.53,1.37,51.13,51.13,0,0,0,5.09,1.13l2,.28-.29,2c-.23,1.55-.36,3.24-.49,4.73-.31,3.76-.63,7.63-2.15,11.11-2.44,5.56-2.89,11.76-1.15,15.8,2,4.68,2.29,8.16.85,10.64-1.91,3.29-6.18,3.76-9.61,4.14a22.38,22.38,0,0,0-3.51.55,24.69,24.69,0,0,1-6.65.9c-6.08,0-11.79-2.12-17.3-4.17a75.09,75.09,0,0,0-10.47-3.31,147.31,147.31,0,0,0-30.43-3c-4.22,0-8.64.17-13.11.49-2.72.2-5.44.42-8.16.64l-.32,0c-3.13.25-6.27.51-9.42.73-2.18.16-2.2.62-2.21.89,0,.54.15.72.21.77a2.69,2.69,0,0,0,1.81.48h13.49l11.59,0q6.43,0,12.87,0h.36c10.3,0,19.74,3,29.73,6.12,2.78.88,5.65,1.78,8.55,2.62l5.66,1.64-5.49,2.14c-10.82,4.22-21.74,7.81-32.3,11.29-17.55,5.77-34.07,11.21-50,19.18a28.5,28.5,0,0,1-5.92,1.93c-2.55.63-5.18,1.28-7.18,2.78a4.89,4.89,0,0,0-1.05,1.23,9.06,9.06,0,0,0,1.71.86c14.29-4.81,28.8-9.83,42.83-14.69,9.6-3.32,20.4-7.05,30.83-10.61,6.21-2.12,12.42-4,19-6q4.47-1.35,9.16-2.8l5.78-1.79-3.58,4.88c-15.86,21.7-34.89,37.84-56.33,55.21a8.93,8.93,0,0,1-.85.59l.27.29c.4.42.81.85,1.09.85a1.83,1.83,0,0,0,.86-.32,192.66,192.66,0,0,0,58.45-54c4.92-6.86,10-14,20.09-14.79a4.87,4.87,0,0,1,.55,0c.37,0,3.61.05,4.95,2.06,6,8.9,13.57,13.41,22.52,13.41a26.87,26.87,0,0,0,3.32-.2,28.45,28.45,0,0,1,3.14-.2c3.1,0,5.15.78,6.28,2.39,1.77,2.52.49,6-.74,9.4l-.4,1.11c-.77,2.17-1.66,4.34-2.53,6.44-1.89,4.58-3.81,9.25-4.51,13.91-1.76,11.64-10.14,15.09-17.54,18.14-2,.83-4.07,1.68-6,2.66q-4.85,2.54-9.72,5c-11.24,5.79-22.85,11.75-33.84,18.29-11.92,7.09-23.73,16-37.18,28.16-6.78,6.09-11.64,13.58-15.49,20.13a2.56,2.56,0,0,0,0,.65,3.44,3.44,0,0,0,.54,0,2.86,2.86,0,0,0,2-.91,104.15,104.15,0,0,0,9.12-9.9c4.53-5.37,9.22-10.92,15.55-15,7.95-5.13,15.69-10.72,23.89-16.63,3.74-2.69,7.59-5.47,11.63-8.33l1-.72,2.5,2.42-.7,1c-4.37,6.58-8.26,13.16-12,19.52-6.82,11.52-13.23,22.34-21.63,32a1.94,1.94,0,0,0-.58,1.28,1.12,1.12,0,0,0,.46.75,2,2,0,0,0,1.17.6c.5,0,1.08-.58,1.48-1.06,16.82-20.14,28-38.17,35.35-56.73,2.13-5.44,7.07-7.21,11.43-8.77a26.58,26.58,0,0,0,6.33-2.89,76.37,76.37,0,0,1,13.48-7.08c1.86-.83,3.78-1.68,5.62-2.57a5.86,5.86,0,0,1,1.71-.48l.43-.08,2.3-.51.14,2.34c0,.37.08.75.13,1.13a8.2,8.2,0,0,1,0,3.49c-2.49,8.8-5.11,17.92-7.43,26-4.71,16.32-9.57,33.19-14,49.89-3,11.28-5.09,23-7.14,34.37l-.11.63-1.08,6c0,.22-.09.46-.14.71-.16.76-.57,2.76-.19,3.23,0,.06.31.18.92.18h.22c3.35-.13,3.89-2.41,4.56-6.44.14-.89.28-1.72.48-2.51,4-15.92,7.75-32.16,11.36-47.86q2.47-10.8,5-21.59a4.09,4.09,0,0,1,2-2.39,4.27,4.27,0,0,0,.51-.37l1.69-1.45,1.26,1.83c.15.21.33.42.51.63a5.72,5.72,0,0,1,1.6,2.9c.41,2.86.84,5.74,1.27,8.61,2.48,16.73,5,34,4.89,51.38,0,.87-.06,1.75-.12,2.6-.24,3.67-.28,6,1.66,7.69.19-.56.39-1.11.58-1.65.95-2.64,1.94-5.36,1.76-7.73-.44-5.71-.44-11.55-.45-17.2,0-13.09,0-26.61-5.44-38.67-8.83-19.63-3.16-37.4,2.33-54.58l.05-.15c.66-2.08,1.32-4.15,2-6.23a3.53,3.53,0,0,1,3.44-2.86,7.39,7.39,0,0,1,3.79,1.49l.15.09c8.59,5.41,15.9,12.44,23,19.23,1.63,1.57,3.25,3.12,4.88,4.66,3,2.8,2.59,6,2.3,8.54,0,.32-.08.64-.11,1a181.18,181.18,0,0,0,5.92,65.77,4.88,4.88,0,0,0,.31.89l.71-.09.73-.1c.71-.08.9-.25.9-.26a5.65,5.65,0,0,0-.22-1.43l-.05-.24c-3.52-15.9-3.86-32.19-4.2-47.95-.08-3.94-.16-8-.3-12a6.15,6.15,0,0,1,.92-3.08,8.09,8.09,0,0,0,.38-.8l1-2.52,2.11,1.7c.18.15.37.29.57.43a8.44,8.44,0,0,1,1.88,1.65c3.86,4.91,8.1,9.7,12.2,14.33,9.41,10.62,19.12,21.58,25.36,35.08a28.86,28.86,0,0,0,4.46,6.25l1.23,1.45c.18.22.36.35.48.35a2,2,0,0,0,1.14-.78c1.79-2.19.94-3.63-1-6.43-.45-.66-.91-1.33-1.31-2a264.24,264.24,0,0,0-47-58.93c-2.24-2.13-4.46-4.34-6.6-6.47-8.59-8.55-17.47-17.39-29-22.33-2.35-1-6-3.69-3.95-10.23,2.51-8.09,5.13-16.2,7.67-24l2.08-6.44c1.55-4.83,5.67-5.62,8.68-6.21a20.64,20.64,0,0,0,2.56-.6,4.84,4.84,0,0,1,1.51-.26c3,0,4,2.87,4.5,4.41.09.26.17.51.26.73,2.18,5.29,4.82,10.54,7.38,15.63,5.7,11.32,11.59,23,13.07,36.45.08.45,1.31,1.46,2,2.06,0-.09.1-.18.16-.27.7-1.24,1.66-2.94,1.5-3.73-4.53-21.79-12-40.12-22.91-56a5.85,5.85,0,0,1,.75-6.58,42.64,42.64,0,0,0,14.37-28.74l.46-5,3.1,3.93c2.09,2.64,4.07,5.24,6,7.76a188.14,188.14,0,0,0,13,15.88c6.37,6.7,6.92,13.82,6.95,21.12a161.16,161.16,0,0,0,9.13,53.18c.37,1.07.66,2.24,1,3.47.7,2.8,1.49,6,3,6a3.11,3.11,0,0,0,.91-.17c.92-.32,1.08-.68,1.13-.8.49-1.15-.78-3.85-1.71-5.82a24.35,24.35,0,0,1-1.53-3.68c-3.11-11.13-4.6-22.58-6.05-33.65-.43-3.33-.87-6.64-1.34-9.95-.34-2.35-.76-4.67-1.35-7.87-.3-1.69-.65-3.57-1-5.78l-1.13-6.39,4.53,4.64c3.78,3.87,7.43,7.72,10.66,11.11,7.4,7.78,14.36,15.1,21.72,21.77a259.28,259.28,0,0,0,21.24,16.66c2.5,1.83,5,3.68,7.52,5.54a3.42,3.42,0,0,0,.72-.35,2.33,2.33,0,0,0,.51-.43,6.49,6.49,0,0,0-.45-.8c-3.55-5.34-8.65-9.32-13.58-13.17a109.08,109.08,0,0,1-8.6-7.21c-4.46-4.31-8.95-8.38-13.7-12.7-2.16-2-4.28-3.89-6.42-5.86l-4.3-3.95,5.82.49c1.21.1,2.41.15,3.56.15,15.89,0,24.4-9.85,33.12-21.74,8.29-11.32,8.71-24,9.15-37.53.08-2.39.17-5.1.31-7.81l.35-6.77,3.38,5.87c7.71,13.4,17.92,20.63,32.13,22.75,2.19.33,4.14,2.13,6,5.52,5,9.19,8.34,29.57,4.89,37l-.4.86c-4.08,8.85-7.94,17.21-17.21,22.76a2.08,2.08,0,0,0-1.06,1.35c-.23,1,0,3,2.48,6.76,7.88,12.14,4.54,30.52-7.46,41-7.87,6.85-18.63,14.72-32.09,14.72a40,40,0,0,1-13-2.31,2.2,2.2,0,0,0-.73-.15h0a3.75,3.75,0,0,0,0,1.89c.48,2.42,1,4.89,1.54,7.29l0,.18c1.74,8,3.54,16.26,3.7,24.52.22,10.79-4.66,27.63-15.89,39.1-7.26,7.41-16.07,11.32-25.49,11.32-1.06,0-2.15,0-3.23-.15-6-.54-12.15-.89-18.09-1.24-4.39-.25-8.86-.51-13.28-.83a4.61,4.61,0,0,0-.52,0c-2.84,0-2.92,1.78-3,2.37-1,21.17-15.24,33.75-30.43,44.2-10.68,7.34-20.78,12.08-30.89,14.5l-.17,0H547.58Z"/><path class="cls-4" d="M742.7,1111.16c-2.67,0-5.36-.13-8-.24s-5.19-.24-7.78-.24c-1.93,0-3.65.07-5.24.2l-.38,0a7.47,7.47,0,0,1-2.57-.57c-.3-.1-.57-.2-.85-.27l-2.43-.63,1.15-2.23c.37-.7.71-1.49,1-2.25a18.37,18.37,0,0,1,3.15-5.46c9.44-10.06,15.6-18.85,17.15-31.59,1.11-9.06,15.19-10.79,23.49-11h.13l.13,0c13.17,2,20.82,7.91,22.75,17.65,2.86,14.39-7,22.51-18.18,30.24C758.16,1110.4,749.8,1111.16,742.7,1111.16Z"/><path class="cls-4" d="M760,1234.78c-11.34,0-23.4-4.44-28.69-10.55a4.06,4.06,0,0,1-.59-4c10.38-22.16,8.76-31.18-8.64-48.24a2.82,2.82,0,0,1-.76-1.88c0-.24-.06-.54-.13-.94l-.5-2.82,2.82.5c2.2.39,4.38.91,6.49,1.41,4.15,1,8,1.92,11.83,1.92.48,0,.95,0,1.43,0,2.47-.16,5-.33,7.54-.33,5.47,0,11.86.69,17.71,5.78a49.1,49.1,0,0,0,4.2,3.17c3.9,2.73,8.32,5.83,10.25,11.75,5,15.48,2.58,29-7.13,39.15C772.68,1233,767.05,1234.78,760,1234.78Z"/><path class="cls-5" d="M681.45,277.3c-11.62,0-23.41-.64-33.41-1.26-1.13-.07-2.26-.17-3.38-.27-2-.17-4.13-.35-6.16-.35a21.38,21.38,0,0,0-7,1,3.83,3.83,0,0,1-1.14.18,7,7,0,0,1-2.12-.43c-.29-.09-.54-.17-.78-.22l-2.68-.53,1.32-2.39c.12-.23.23-.51.34-.78.45-1.11,1-2.47,2.43-2.88,15.4-4.21,29.19-12.46,42.52-20.45,4.6-2.75,9.33-5.58,14.07-8.22,3.15-1.75,6-4.49,8.71-7.14l1.58-1.52c7.18-6.85,18.84-10.94,31.2-10.94a44.38,44.38,0,0,1,20.94,4.78l1.06.57c8.95,4.8,17.4,9.33,20.36,20l.08.28v.38c-1.33,12.22-10.94,15.65-18,18.15-1,.37-2,.72-3,1.09C729.44,273.84,708.15,277.3,681.45,277.3Z"/><path class="cls-5" d="M732.47,1158.28c-15.49,0-30.6-5-43.93-9.47a12.34,12.34,0,0,1-1.43-.6l-.44-.21-2.41-1.1,1.72-2c1.53-1.8,1.32-4,1-6.83-.32-3.36-.69-7.17,2.52-10.35,7.19-7.11,16.42-8.53,25.36-9.91l2.17-.35a89.23,89.23,0,0,1,14.06-1.37,39.66,39.66,0,0,1,19.3,4.63c8.94,4.83,11.66,12.42,14.29,19.77l.88,2.44-.2.63c-3,10-11.8,11.8-18.83,13.29A68.36,68.36,0,0,1,732.47,1158.28Z"/><path class="cls-6" d="M454.91,1321.92a59,59,0,0,1-11.85-1.51c-13.1-2.78-26.62-3.9-39.7-5-7.83-.65-15.89-1.31-23.79-2.32-28.87-3.68-58.36-6.46-86.88-9.15l-8.47-.8c-8.22-.78-16.64-1.15-24.78-1.52-4.89-.21-10-.44-15-.75-.22,0-.45,0-.68,0-.95,0-2.05.1-3.12.2s-2.41.23-3.58.23c-3.71,0-6.08-1.37-7.05-4.08-1.07-3,1.47-6.41,4.16-10,.91-1.23,1.84-2.47,2.5-3.56q3.08-5,6.13-10.09c6.35-10.49,12.93-21.34,19.56-32,4.1-6.57,8.33-13.17,12.43-19.56,6.17-9.63,12.56-19.59,18.56-29.55s11.8-20.51,17.36-30.64c2.06-3.75,4.11-7.49,6.18-11.21s4.1-7.52,6.07-11.21l.08-.14c3.73-7,7.6-14.22,11.79-21.12,14.66-24.13,26.65-49.86,36.45-71.85,3.46-7.77,7.18-15.59,10.77-23.16,8-16.79,16.21-34.14,22.14-51.87,2.26-6.74,4.77-13.52,7.19-20.07,5.33-14.41,10.81-29.24,14-44.55,2.6-12.47,6.22-24.9,9.72-36.91,2.6-8.94,5.28-18.16,7.52-27.3,3.44-14,6.44-28.36,9.35-42.23l.07-.35c1.64-7.83,3.34-15.93,5.1-23.87,1.47-6.67,3.12-13.58,4.58-19.67,2.6-10.92,5.28-22.14,7.37-33.25,4.08-21.55,7.82-43.53,11.44-64.79,1.55-9.1,3.08-18.13,4.65-27.15a892.06,892.06,0,0,0,11.05-98.89c1.55-25.54,3.47-55.79,5.9-86.47,2-25.77,3.75-51,2.39-76.42a4.17,4.17,0,0,1,.93-3.21,4.12,4.12,0,0,1,3.19-1h.16c2.44,0,4.9,0,7.36,0h7.46l4.61-.29c16.81-1,34.17-2.13,51.32-2.13,2.91,0,5.79,0,8.56.09l2.28,0A222.24,222.24,0,0,0,614.72,361c6.41-.72,13-1.45,19.51-1.73,2.95-.12,6.12-.18,9.7-.18,3.74,0,7.54.06,11.21.13h.25c3.65.06,7.43.13,11.12.13,6.37,0,11.54-.2,16.28-.62,24-2.16,46.28-3.37,68.21-3.71h.27c1.45,0,3.25.16,4.41,1.46s1.13,3.22.94,5c-1.81,16.82-3.67,35.17-5.68,56.09-1.6,16.66-3.15,33.41-4.65,49.59q-1,11.21-2.08,22.4c-.54,5.8-1,11.74-1.4,17.47v.11c-.95,12.89-1.92,26.21-4.15,39.16-3.11,18.09-4.77,36.67-6.38,54.64-1.4,15.69-2.85,31.86-5.25,47.7-1.25,8.24-2.29,16.61-3.29,24.71-1.44,11.62-2.93,23.63-5,35.37-1.38,7.65-3.46,15.25-5.47,22.6a231.75,231.75,0,0,0-5.8,24.73c-2.19,13.88-5.63,27.59-9,40.85-.55,2.21-1.1,4.4-1.65,6.59-4,16.12-8.51,32.39-12.85,48.12l-1.4,5.06c-2.54,9.17-5.18,18.41-7.74,27.35l-.15.54q-2.91,10.14-5.77,20.31c-1.57,5.58-3.1,11.17-4.63,16.76-2.45,9-5,18.23-7.66,27.33a499.22,499.22,0,0,1-17.3,49.73c-5.76,14-11,28.48-16,42.5-4.69,13-9.53,26.46-14.8,39.49a247.14,247.14,0,0,1-11.08,22.85c-4.19,8-8.53,16.16-11.74,24.6-5.52,14.54-13.21,28.07-20.64,41.15-4.42,7.78-9,15.81-13,23.94-8.86,17.86-20.2,34.77-31.17,51.13l-.13.19-4.92,7.36c-4.62,6.95-9.77,13.73-14.74,20.28-8.23,10.85-16.73,22.06-22.92,34.11C472.57,1317.09,465.41,1321.92,454.91,1321.92Z"/><path class="cls-4" d="M704.28,320.93c-14.9,0-29.9-3.1-44.42-6.1l-6.13-1.26c-17.45-3.54-35.58-8.71-58.78-16.76-4.32-1.5-8.54-3.09-13.42-4.94l-7.83-2.94-1.15-.42.53-3.39,1.23-.06c6.89-.31,13.2-2.28,19.31-4.19,6.61-2.07,12.86-4,19.69-4a33.06,33.06,0,0,1,4.24.27c21.93,2.78,39.84,4.07,56.39,4.07,8.78,0,17.34-.38,25.47-1.12,4.56-.42,9-.8,13.41-.8,10.71,0,18.72,2.31,26,7.48l1.39,1c5.1,3.58,11.43,8,10.1,14.68-1.56,7.77-9.42,11.39-17.68,14.15A88.31,88.31,0,0,1,704.28,320.93Z"/><path class="cls-4" d="M700.88,1386.45c-9.67,0-18.39-4.14-23.32-11.07l-1.58-2.21c-5.79-8.08-11.78-16.43-14.33-26.38a5.57,5.57,0,0,1,.68-5c1.44-1.85,3.94-2.11,6.42-2.11h1.47a6.36,6.36,0,0,0,1.23-.07c14.65-3.62,21-15.41,25.35-26.47,1.54-4,1.69-8.76,1.84-13.39a78.15,78.15,0,0,1,.57-8.63,7.15,7.15,0,0,0-.22-2c-.41-2.05-1.15-5.85,3.49-8,1.33-.61,2.71-1.33,4-2,3.68-1.92,7.48-3.91,11.11-3.91,5.18,0,8.75,3.9,10.93,11.93,1.13,4.14,2.44,8.3,3.71,12.33,3.66,11.54,7.1,22.44,6.71,33.58,0,19.42-5.68,34-18,45.78C716,1383.69,708.63,1386.45,700.88,1386.45Z"/><path class="cls-5" d="M675.82,1073.51c-.9-16.55,5.86-35,17.23-47,8.54-9,19-13.78,30.39-13.78.83,0,1.67,0,2.5.07,6,.37,11,6.28,10.87,12.92-.23,10.19-.67,18.72-2.11,27.17-.91,5.39-3.67,6.52-5.82,6.52a13.64,13.64,0,0,1-5.69-1.82,12,12,0,0,0-2.49-1,80.06,80.06,0,0,0-11.67-1c-13.09,0-20.81,5-29.51,18.91l-3.35,5.38Z"/><path class="cls-5" d="M715.33,1219.93c-7,0-13.5-4-17.77-7-12.76-9-19-22.43-25.06-35.45-1.56-3.37-3.17-6.85-4.87-10.17-.94-1.82.12-4.95,1.63-6.14,1.1-.87,2.33-2,3.64-3.17,3.6-3.26,7-6.34,9.81-6.34a3.59,3.59,0,0,1,1.39.27c25.3,10.21,41.2,25.46,48.59,46.63A7,7,0,0,1,733,1201c0,.37,0,.75,0,1.18v.22c-.7,7.59-4.59,13.6-10.39,16.06A18.6,18.6,0,0,1,715.33,1219.93Z"/><path class="cls-5" d="M685.77,1119.69c-2.66,0-6.25-2.7-10.41-5.84-1.71-1.28-3.3-2.48-4.69-3.38-1.6-1-.72-2.71-.34-3.42a10,10,0,0,0,.69-1.52c1.72-14.73,10.43-25.76,18.86-36.42l.81-1c5.14-6.49,12.72-7,19.43-7H712c.42,0,.95,0,1.47,0,8.33,0,14.29,3,16.77,8.43,2.86,6.23-1,11-4.34,15.29-1,1.22-1.87,2.36-2.61,3.51-9.16,14.31-23.23,23.48-35.69,31A3.42,3.42,0,0,1,685.77,1119.69Z"/><path class="cls-5" d="M694.83,1276.61l-1.22,0c-16-.52-22.52-13.85-28.3-25.61l-.12-.25c-6.15-12.49-2.73-23.41.89-35,2.16-6.86,4.38-14,4.56-21.63l.18-7.18,3.56,6.24c11.49,20.15,24.79,30,44.47,33.11a7,7,0,0,1,4.77,3.56c3.1,5,3.72,14.19,1.45,21.39C719.77,1268.08,709.6,1276.61,694.83,1276.61Z"/><path class="cls-5" d="M584,278.9c-.47,0-.94,0-1.43,0l-5.79-.33,4.77-3.31c4.66-3.23,9.33-6.4,13.85-9.47l.46-.31c10.92-7.41,21.23-14.42,31.3-22.05,11.23-8.53,23-19.52,25.32-36.43,1.26-9.35,8.67-11.52,14.62-13.26,1.43-.42,2.77-.81,4-1.29a41.2,41.2,0,0,1,14.65-2.9,30.17,30.17,0,0,1,15.07,3.9c3.18,1.8,5,5.36,5.18,10.3.41,9.26-4.74,20.55-11.48,25.18-12.87,8.83-28.88,19.8-45.73,27.72l-2.32,1.09c-12.84,6-26.11,12.27-40.54,15.37a54.54,54.54,0,0,0-7.55,2.43C593.93,277.17,589.36,278.9,584,278.9Z"/><path class="cls-5" d="M663.83,1335.58c-12,0-23.65-8.77-30.32-22.9-4.19-8.89-4.76-20.24-1.55-31.16,1.27-4.34,5.5-7.21,10-10.24a50.35,50.35,0,0,0,6-4.51c4.68-4.38,6.22-10.79,8.18-18.91l.28-1.19,3.42.12.21,1.2c2.83,16.47,16.75,31.18,33.09,35,1.25.29,3,.87,3.61,2.51s-.4,3.34-1.26,4.61a6.32,6.32,0,0,0-.9,1.57c1.3,11.75-1.92,22.77-9.56,32.71C679.47,1331.61,671.94,1335.58,663.83,1335.58Z"/><path class="cls-4" d="M655,1159.11c-.6,0-1.19,0-1.8,0-20.65-1.92-23.57-12.36-24-20-.25-4.91,2-10.11,6.3-14.65,5.44-5.74,13.15-9.3,20.11-9.3,19.66,0,26.84,5.23,27.45,19.94.19,4.67-2.34,10.21-6.76,14.81A29.84,29.84,0,0,1,655,1159.11Z"/><path class="cls-4" d="M664.24,1072.21c-.75-2.08-1.47-4.25-2.11-6.15-4.37-13.06-8.49-25.39-22.57-31.52a4,4,0,0,1-2.51-2.52c-.47-1.68.54-3.12,1.35-4.28.45-.64,1.13-1.6,1-2a11.71,11.71,0,0,1,2.31-9.61c1.08-1.22,1.56-3.24,2.07-5.38,1-4.18,2.37-9.9,10-9.9a18.73,18.73,0,0,1,2.06.12c4,.48,7.62,4.45,9.91,7.69,3.52,5,6.82,12.53,5.74,17.32-1.22,5.46-.86,11.54-.51,17.41.06.95.11,1.81.16,2.66a95.44,95.44,0,0,1-3.1,26l-1.73,5.91Z"/><path class="cls-4" d="M640.06,1241.15a12.34,12.34,0,0,1-4.34-.8c-7.24-2.7-10.24-10.72-10.64-17.32-1.29-21.45,6.65-40.87,14.19-57.39a4.64,4.64,0,0,1,4.43-3,10.21,10.21,0,0,1,2.37.35,8.44,8.44,0,0,0,.89.17c1,.13,2.1.2,3.16.28,5.45.37,12.92.88,14.6,10a43.15,43.15,0,0,0,1.72,6c1,2.94,1.79,5.26,1.28,7.13-2,17.67-4.26,32.18-12.52,44.55C653.65,1233.55,648,1241.15,640.06,1241.15Z"/><path class="cls-5" d="M642.68,1113.4c-5.15,0-9.63-2.34-14.09-7.35-15.81-17.8-10.44-32.72-2.39-49a9,9,0,0,0,.6-2.21,11.81,11.81,0,0,1,1.05-3.41,20.54,20.54,0,0,0,1.31-3.89c1-3.5,2.12-7.84,6.41-7.84h.36c7.17.45,11.3,7.53,14.32,12.69,7.09,12.15,10.69,26.62,10.69,43v.28l-.1.35c-.42,1.12-.13,3.18.14,5,.42,2.9.81,5.63-.63,7.55a4.37,4.37,0,0,1-3,1.66,37.34,37.34,0,0,0-5.7,1.41A30.6,30.6,0,0,1,642.68,1113.4Z"/><path class="cls-5" d="M620.77,1277.31c-12.78,0-26.22-8.81-29.35-19.25-5-16.84-1-32.75,4.07-47.44,3.11-8.91,9.64-13.33,16-17.6a56.28,56.28,0,0,0,9.53-7.51l4.81-5.11-1.4,6.88c-.34,1.65-.69,3.3-1,4.94l0,.18c-3.48,16.39-6.76,31.87,3.23,46.77,3,4.5,6.68,6.59,11.5,6.59a26.56,26.56,0,0,0,8.61-1.71,9.32,9.32,0,0,1,3-.66,3.06,3.06,0,0,1,2.3.9c1,1.09,1,2.68.94,4.08-.39,11.2-14.76,26.12-27.46,28.51a24.82,24.82,0,0,1-4.7.43Z"/><path class="cls-4" d="M508.15,293.37l1.09-.69c22.51-14.25,39.53-27.5,53.55-41.72,15.19-15.42,25.33-32.13,31-51.09,3.26-10.91,15.86-17.09,25.85-20.35a37.28,37.28,0,0,1,11.48-2.15c5.64,0,10.16,2,13.42,6,10,12.27,4.58,25.36-.38,34.13-10.76,19.07-28.5,30.31-45.67,41.19l-.1.06c-2.83,1.79-5.75,3.65-8.6,5.51-25.06,16.38-52.75,24.79-79,32l-1.25.34Z"/><path class="cls-5" d="M592.37,1382.94h-.06c-9.24-.75-16.83-4.64-22-11.24-5.74-7.39-7.86-17.59-6-28.72.09-.56.2-1.13.31-1.7a24.26,24.26,0,0,0,.63-6.09c-1.06-13.42,7.78-16.3,15.58-18.84a39.81,39.81,0,0,0,7.3-2.89c12.49-7.18,21.52-14.54,25-27.11.94-3.41,3.68-5.37,7.51-5.37a12.83,12.83,0,0,1,2.42.25c1.57.31,3.45.88,4,2.56s-.7,3-1.54,3.94c-.15.17-.44.47-.6.68.68,3.77,1,7.67,1.28,11.45.76,9.5,1.53,19.31,8.39,26.39,7.27,7.52,5.17,14,3.14,20.34-.3.91-.59,1.82-.86,2.75-5,17.27-26.61,33.6-44.37,33.6Z"/><path class="cls-5" d="M590.3,1197.62l-.15,0a35.11,35.11,0,0,0-6.63-.72c-5.29-.23-10.75-.47-15.12-6.25s-1.61-10.61.28-13.75c.42-.71.82-1.38,1.13-2,8.06-16.85,23.11-21.51,39-26.45l5.25-1.64a16.66,16.66,0,0,1,5-.89c5.73,0,8.26,4.08,10.3,7.37a14.28,14.28,0,0,0,3.63,4.48c1.73,1.17,1,2.87-.91,7-.53,1.16-1,2.29-1.38,3.16-3.9,10-30.51,29.77-40.1,29.77Z"/><path class="cls-5" d="M596.41,1143.15a18.35,18.35,0,0,1-5.22-.71l-2.23-.65,1-2.11c1.35-2.94,2.67-5.91,4-8.88,3-6.8,6.14-13.84,9.67-20.56,2-3.78,4.28-5.61,7-5.61s5.15,2,7.26,3.69a13.26,13.26,0,0,0,3.52,2.39c.45.13,1,.27,1.58.42,3.33.86,7.9,2,9.46,5.33a5.94,5.94,0,0,1-.21,5.25l-.78,1.7c-3.45,7.54-7.74,16.92-19.67,17.59a49.44,49.44,0,0,0-6.77,1A43.94,43.94,0,0,1,596.41,1143.15Z"/><path class="cls-5" d="M560.08,1316a35.7,35.7,0,0,1-16.12-3.39c-7.51-3.79-10.8-11.3-9.78-22.34.16-1.69.26-3.43.36-5.11.42-6.88.86-13.94,4.59-20.65.8-1.44,1.58-2.93,2.33-4.38,4.49-8.63,9.1-17.5,20.35-20.65,4.75-1.33,8.31-4.43,12.08-7.72a59.5,59.5,0,0,1,7.44-5.8l2.86-1.8.2,3.37c.13,2.36.24,4.74.35,7.13v.29c.24,5.42.49,11,1.1,16.44,1.32,12,7,21,16.09,25.56,4.34,2.17,6.6,4.26,7.32,6.81.84,2.92-.42,5.84-2.74,9.61C598.74,1306.06,578.34,1316,560.08,1316Z"/><path class="cls-5" d="M492.08,294.54l.76-1c13.68-18.73,22.22-35.7,27.7-55,1.4-4.94,2.35-10.17,3.28-15.23,1.39-7.59,2.82-15.44,5.79-22.65,7.37-17.89,19.17-28.44,35.07-31.38a30.84,30.84,0,0,1,5.53-.53c8.09,0,14.34,3.57,18.56,10.62,4.71,7.85,2,15.59-.42,22.42l-.43,1.24c-9.39,26.89-28.36,45.18-47.47,60.94-8.94,7.39-18.14,13.76-28.79,21.14-5.14,3.57-10.42,7.23-16,11.27l-1,.74Z"/><path class="cls-5" d="M540.36,1238.87c-1.3,0-2.64-.06-4-.16l-4-.29,2.58-3c6.1-7.07,10.26-15.24,14.28-23.14,3.34-6.55,6.79-13.32,11.28-19.3l1.56-2.09,1.61,2.06c5,6.32,10.28,9.26,16.74,9.26h.87a23.65,23.65,0,0,1,5,.72c.74.17,1.48.34,2.21.46l3.25.54-2,2.63c-.46.61-.9,1.22-1.35,1.83l-.06.08c-.94,1.29-1.91,2.63-3,3.9C574.28,1225.77,561.57,1238.87,540.36,1238.87Z"/><path class="cls-3" d="M492.85,418.63c-2.15-2.87-4.18-5.76-6.14-8.57-4.33-6.18-8.42-12-13.38-17-2.45-2.48-4.91-5-7.28-7.49l-.09-.09C455.9,375,445.5,364.21,432.89,356c-3.41-2.22-6.81-4.57-10.1-6.85A214,214,0,0,0,402,335.88c-3.77-2-6.2-3.51-5.8-5.78s3.09-2.54,4.54-2.74a36,36,0,0,0,4.43-1,31.26,31.26,0,0,1,6.46-1.22c12-.58,23.23-4.83,34.11-8.94,6.2-2.34,12.58-4.75,19.09-6.5,7.65-2.06,15.57-3.41,23.23-4.71,6.85-1.17,13.92-2.37,20.7-4.07l4.22-1.05c12.43-3.07,25.27-6.25,37.15-11.64,2.54-1.15,5.34-1.24,8.3-1.33,1.29,0,2.62-.07,3.95-.21l4-.41-2.07,3.43c-11.92,19.83-19.44,39-23,58.53-.91,4.95-3,11.52-10.39,11.53a27.3,27.3,0,0,1-5.53-.78,24,24,0,0,0-4.56-.67,6.13,6.13,0,0,0-1.5.17,31,31,0,0,1-8.16.92c-2,0-4-.11-6-.22s-3.9-.21-5.78-.21h-.79c0,.18,0,.41,0,.6s0,.66-.06,1a179.87,179.87,0,0,0-.17,22.51c.39,11.28.79,22.94-2,34.75l-1,4.18Z"/><path class="cls-4" d="M499,1336a48,48,0,0,1-10.51-1.17c-5.16-1.15-13.16-5.1-12.66-10.77.45-5.19,4.35-10,7.8-14.34L485,1308c6.26-8,12.11-16.41,17.76-24.6l.32-.47c1.84-2.65,3.67-5.31,5.52-8q3.87-5.54,7.69-11.12l.26-.38c3.69-5.35,7.5-10.9,11.34-16.29,1.73-2.43,5.59-2.43,10.06-2.44a58.94,58.94,0,0,0,6-.2l5.76-.58-4.17,4c-17.67,17-22.24,48.37-12.75,59.34,4.66,5.38,6.37,9.28,5.54,12.64-1,4-5.29,5.73-9.46,7.39-1.54.62-3.09,1.23-4.44,1.94A54.54,54.54,0,0,1,499,1336Z"/><path class="cls-4" d="M479.78,298.08l.28-1.14c2.33-9.57,1.81-18,1.31-26.11-.18-2.82-.36-5.72-.41-8.63-.09-5.2-.51-10.52-.91-15.67-.68-8.74-1.39-17.77-.55-26.61,1.63-17.06,8-30.83,19-40.93,2.41-2.21,6.33-4.58,10.14-4.58a7.66,7.66,0,0,1,5.14,1.84l.88.76c5.3,4.53,11.89,10.17,10.1,20.28-4.24,23.84-9.37,43-16.15,60.39a131.61,131.61,0,0,1-25.09,41.06l-.78.88Z"/><path class="cls-5" d="M474.06,299.21C452,282,437.74,259.54,429.26,228.68c-2.06-7.5,0-19.6,4.91-28.14,2.82-4.95,6.2-8.08,9.79-9.06a15.86,15.86,0,0,1,4.18-.6c8.41,0,12,7.73,14.91,13.93.48,1,.94,2,1.4,2.93,7.48,14.77,9.52,30.93,11.11,47.58.63,6.53.68,12.85.74,19.53a218.68,218.68,0,0,0,1,22.56l.52,4.71Z"/><path class="cls-4" d="M461.23,305.2c-7.87,0-15.56-1.65-23-3.26-3.46-.74-7-1.49-10.39-2.07-18.52-3.11-34.13-11.83-49.8-21.26-8.45-5.07-17.71-14.65-16-24.94,2.1-12.78,17.36-13.08,25.55-13.24h.93c11.48,0,21.84,4.16,31.86,8.19,2.43,1,4.93,2,7.38,2.9,6.44,2.42,9,8.22,11.32,13.34a45.39,45.39,0,0,0,2.83,5.67c6.1,9.71,13.88,17.55,22.11,25.84,1.67,1.68,3.32,3.35,5,5.05l2.8,2.87-4,.51A50.32,50.32,0,0,1,461.23,305.2Z"/><path class="cls-5" d="M380.19,325.2c-3.45,0-6.89-.15-10.23-.45-21-1.86-43.21-5.28-63.1-17.57-7.18-4.43-9.7-10.57-7.31-17.74A22.38,22.38,0,0,1,315,275.22,94,94,0,0,1,340.16,272a129.58,129.58,0,0,1,21.21,1.85c6.34,1.05,11.93,5.38,17.34,9.56a85,85,0,0,0,8.5,6.05c15.81,9.33,31.05,14.49,46.59,15.77a50.34,50.34,0,0,1,8.91,1.81c1.54.4,3.12.81,4.82,1.2l7.49,1.7-7.36,2.17C424.73,318.82,403.09,325.2,380.19,325.2Z"/><path class="cls-3" d="M401,947.43a6.59,6.59,0,0,1-3.81-1.57c-13.71-10-29.46-14.41-43-17.36a64.63,64.63,0,0,0-13.8-1.41c-9.26,0-18.53,1.71-27.5,3.36-8.19,1.51-16.65,3.07-25.17,3.36-4.08.14-8.24.43-12.26.71-5.79.4-11.72.82-17.55.82-10.58,0-24.43-1.17-37.73-10.25-6.57-4.49-8.43-11-10.08-16.75A49.92,49.92,0,0,0,207.5,901c-1.57-3.36-2-3.49-3.48-3.49a14.29,14.29,0,0,0-2.08.2,45.52,45.52,0,0,1-6.75.51,37.4,37.4,0,0,1-25.85-9.76c-8.21-7.56-10.63-17.78-6.64-28,6.45-16.56,19.11-25.13,37.64-25.46a71.94,71.94,0,0,0,15.37-2.33A9.92,9.92,0,0,0,217,829a.15.15,0,0,0,0-.07h-.77c-.41,0-.78,0-1.12,0-27.53-2.23-52.17-5.28-74.93-19.92-13.47-8.66-21.6-36.11-18.08-51.06,3.31-14.08,12.83-18.61,21.5-21.74,5-1.8,6.3-3.37,6.53-4.37.45-2-2.68-5.16-5.44-8l-.39-.4c-8.86-9.13-11.86-20.95-14.75-32.38l-.43-1.67c-3.76-14.78-3.05-30.68,2.16-48.61,4.46-15.34,13.9-26.36,26.58-31a22.23,22.23,0,0,1,7.63-1.42c11.23,0,19.26,9.59,24.32,16.8,4.15,5.92,8.82,11.68,13.33,17.25,1.08,1.32,2.13,2.62,3.18,3.93.24.29.47.61.71.94.82,1.14,1.37,1.83,2,1.83a2.2,2.2,0,0,0,.82-.21c1.16-.5,1.27-1.06,1.23-3.27a17.15,17.15,0,0,1,0-2l.17-1.9c.88-9.65,1.87-20.59,12.44-26.86a14.83,14.83,0,0,1,7.62-2.16c5.38,0,10,2.85,14.74,6,15.91,10.76,23.73,26.42,32,43,1.12,2.25,2.25,4.51,3.4,6.76a148.94,148.94,0,0,1,6.78,16.36c3.46,9.42,7,19.16,13.94,26.86.18.19.36.41.54.63a6.37,6.37,0,0,0,1.13,1.17.63.63,0,0,1,.16-.1c1.85-1.26,2.81-2.53,2.95-3.22,1-5.38,6.5-11.25,15-16.11,7.83-4.48,16.89-7.26,23.66-7.26a18.62,18.62,0,0,1,5.87.85c13.26,4.48,19.45,13.36,19.48,28,0,8,4.92,10,11.13,12.52a45.8,45.8,0,0,1,6.46,3c12.65,7.65,20.32,20,22.18,35.64,1.35,11.49,2.28,23.21,3.18,34.53.92,11.63,1.87,23.63,3.28,35.35.65,5.44,2.4,10.92,4.1,16.22a125.81,125.81,0,0,1,3.55,12.56c1.65,7.87-1,14.91-3.51,21.72a70.4,70.4,0,0,0-3.2,10.07,2.66,2.66,0,0,1-2.62,2.26c-1.49,0-2.83-1.15-4.43-2.65l-.3-.28c-3.07-2.85-6.19-5.68-9.21-8.43-7.78-7.07-15.82-14.37-23.21-22.12-5.25-5.5-3.37-12.39-1.86-17.93a43.44,43.44,0,0,0,1.26-5.56c2.3-18.41,1.18-36.43,0-50.07-.21-2.34-.39-4.68-.56-7v-.16c-.78-10.54-1.58-21.44-5.88-31.41-.83-1.93-1.57-2.84-2.33-2.84a1.79,1.79,0,0,0-.56.1,1.91,1.91,0,0,0-.48.19,7.46,7.46,0,0,0,.47,1.34,8.75,8.75,0,0,1,.69,2.21c.59,5.2,1.34,10.45,2.06,15.52.61,4.26,1.24,8.67,1.78,13.06,2.5,20.3,1.39,40.85.31,60.73l-.28,5.16c-.08,1.37-.22,2.77-.35,4l-.51,5.16-2.9-2.43L367.88,855c-.84-.72-1.67-1.42-2.5-2.08-1.94-1.5-3.87-3.08-5.73-4.61a130.61,130.61,0,0,0-13.49-10.11c-7.94-4.91-6.2-12-4.93-17.22l.2-.8c2.26-9.36,1.39-18.95.55-28.23-.41-4.51-.84-9.16-.91-13.8-.24-15.93-1.93-32.13-3.56-47.79l-.72-6.94c-.27-2.73-.71-4.54-2-4.54a3.21,3.21,0,0,0-.71.09,3.6,3.6,0,0,0-.71.23,10.39,10.39,0,0,0,.49,1.37,8.6,8.6,0,0,1,.85,3.16c.17,13.71.15,27.22.13,40.27v.25c0,4.06,0,8,0,11.89v7l-7.93-12.8c-4.77-7.7-10.17-16.43-15.71-25.15-.67-1.06-1.8-2.32-3.35-2.32a3.81,3.81,0,0,0-.74.08,3.39,3.39,0,0,0-.67.26l.55,1c1.07,2,2.15,4,3.06,6.08,2.9,6.71,7.22,13,11.4,19.05,8,11.56,16.19,23.51,16,39.7a31.14,31.14,0,0,1-.62,5.23c-.52,3-1,5.91.17,8.57a2.52,2.52,0,0,1-.33,2.45,2.43,2.43,0,0,1-2.06,1.43h-.49l-.43-.22c-.54-.28-1.09-.54-1.64-.8a22.06,22.06,0,0,1-4.65-2.7c-5.2-4.25-10.43-8.6-15.49-12.8-7.24-6-14.74-12.26-22.27-18.28-13.89-11.1-20.54-23.84-20.91-40.09-.16-7-1.84-14.21-3.46-21.16-.85-3.67-1.73-7.41-2.39-11.12-4.42-24.77-12.84-48.13-19.67-65.73-.75-1.93-2-3.17-3.21-3.17a2.18,2.18,0,0,0-.9.21,3.91,3.91,0,0,0-1.43.92,8.15,8.15,0,0,0,1.34,1.77,8.63,8.63,0,0,1,2,3.05c1.33,4.47,2.74,9,4.11,13.39,4.85,15.58,9.87,31.67,12.35,48.34.77,5.16,2,10.38,3.26,15.43,1.94,8,3.95,16.17,4.15,24.69a11.08,11.08,0,0,1-.47,3c-.1.35-.19.71-.26,1.06l-.56,2.87-2.47-1.56c-.25-.16-.53-.31-.8-.45a8.23,8.23,0,0,1-2.44-1.76c-12.23-13.94-26.66-30.42-41-47q-7.92-9.12-15.8-18.26c-7.91-9.16-16.09-18.63-24.29-28a7.92,7.92,0,0,0-1.76-1.62,6.06,6.06,0,0,0,.31,4.62c7.18,9.82,14.54,19.28,21.87,28.11,17.06,20.6,34.14,40.78,48.59,57.8a38.25,38.25,0,0,0,4.64,4.32c1,.84,2.06,1.71,3.06,2.65s2.09,2.14,3.06,3.2c.48.54.95,1.06,1.43,1.57l2.88,3-4.18.32c-.71.06-1.43.07-2.16.08a13.17,13.17,0,0,0-3.69.38,35.63,35.63,0,0,1-10.57,1.68c-11.8,0-21.08-6.47-30.05-12.72-5.73-4-11.64-8.11-18-10.3a71,71,0,0,1-12.59-6.34c-1.41-.83-2.87-1.69-4.32-2.5l-.72-.41a10,10,0,0,0-3.47-1.5.41.41,0,0,0-.4.2,10,10,0,0,0,3.62,4,199.32,199.32,0,0,0,18.77,11c9.29,5,18.87,10.18,27.56,17.53l5.5,4.66L219.08,777a74.92,74.92,0,0,0-12-.86c-3.89,0-7.84.21-11.65.41h-.11c-3.81.2-7.75.41-11.62.41-8.45,0-14.94-1-21.05-3.2a9.58,9.58,0,0,0-3.3-.47c-1.08,0-2.25.1-3.37.19l-1.11.09c0,.25,0,.49,0,.67,1.57,1.51,3.76,2.06,6.28,2.69l1.22.32c11.21,2.93,23.14,4.3,37.55,4.3,10.56,0,21-.74,30.85-1.49,1.57-.12,3.28-.18,5.4-.18l3.47,0h.19l3.26,0c5.06,0,10.42-.31,15.4-2.55a9.24,9.24,0,0,1,3.8-.85c4.2,0,7.52,3,9.95,5.61,10.69,11.53,23.24,21.38,35.38,30.92,6.14,4.83,12.5,9.82,18.56,15,1.95,1.66,2.78,3.24,2.54,4.84-.15,1-.8,2.36-3,3.32L323,837.39c-6,2.59-12.27,5.27-18.62,7.36a18.25,18.25,0,0,1-5.75.91c-4.25,0-8.23-1.37-12.08-2.7a46.76,46.76,0,0,0-8.4-2.32c-6.12-.85-12.26-2-18.2-3s-12.13-2.21-18.25-3.05a16.18,16.18,0,0,1-2.53-.64,13.21,13.21,0,0,0-3.24-.72,1,1,0,0,0-.42,0,3.5,3.5,0,0,0-.06,1.23c.25,2.9,2.22,3.32,7,3.67a22.24,22.24,0,0,1,5,.71,108.93,108.93,0,0,0,14.7,3c8.41,1.29,17.11,2.63,25.75,7.11l5,2.59-5.5,1.15c-4.84,1-9.42,1.92-14.9,3-11.88,2.37-23.06,4.6-34.19,7.45a59.78,59.78,0,0,1-12,1.45c-2.38.12-4.83.25-7.19.57a15.61,15.61,0,0,0-4.64,1.8,7.43,7.43,0,0,0,4.83,2.1,5.76,5.76,0,0,0,.82-.06l5.91-.8c10.51-1.41,21.33-2.86,31.71-5.3,3.44-.8,7-1.4,10.35-2,7-1.19,14.29-2.43,20.91-5.55,4.38-2.07,9-3.73,13.46-5.34a118.64,118.64,0,0,0,16.34-6.85c5-2.7,9.43-4,13.68-4,6.27,0,12.05,2.91,17.68,8.9a90.36,90.36,0,0,0,9.85,8.61c1.56,1.23,3.3,2.61,5,4l2.13,1.8-2.38,1.44c-20,12.11-37.33,20.29-54.58,25.74-13.61,4.31-27.67,7.84-41.26,11.27l-7.26,1.83c-2.49.63-2.62,1.09-2.67,2.07a2.87,2.87,0,0,0,0,.42,8,8,0,0,0,1.1-.12l1.06-.13c16.18-1.06,31.91-5.78,47.12-10.35,2.31-.69,4.59-1.38,6.87-2,20.14-5.93,37.76-15.7,52.35-24.48a5.49,5.49,0,0,1,2.89-.89,5.9,5.9,0,0,1,4.2,2.17l.42.41c3.2,2.94,6.51,5.9,9.7,8.77,9.38,8.41,19,17.06,27.54,26.54,4.66,5.21,2,11.58-.41,17.19a46.17,46.17,0,0,0-2,5.44,45.71,45.71,0,0,1-2.31,6.16,28.36,28.36,0,0,0-2.73,8.75C404.44,945.82,403.18,947.43,401,947.43Z"/><path class="cls-4" d="M268.26,359.22c-11.14,0-24.38-2.94-39.28-6.49a16.88,16.88,0,0,1-11.65-11.31c-3.23-10.12,4.45-14.95,10.06-18.48l.11-.06c.66-.42,1.31-.83,1.92-1.24,12.42-8.27,27.39-12.37,45.75-12.53a38.89,38.89,0,0,0,8.16-1.3,41.8,41.8,0,0,1,9.2-1.4,15.24,15.24,0,0,1,9.68,3.2c11.74,9,25.79,12.63,39.37,16.11,3.91,1,7.94,2,11.91,3.19a1.17,1.17,0,0,0,.26,0,5.25,5.25,0,0,0,2.12-.95,7,7,0,0,1,3.66-1.38c1.7,0,3.13,1,4.27,3.07a2.24,2.24,0,0,1,.14,1.8,6.31,6.31,0,0,1-2.77,3.08c-1.76.83-3.57,1.6-5.31,2.35l-.12.05c-1.87.8-3.8,1.63-5.64,2.51-21.55,10.33-43.57,16.06-71.41,18.57A40.63,40.63,0,0,1,268.26,359.22Z"/><path class="cls-5" d="M221.94,415.13a82.18,82.18,0,0,1-8.32-.42c-6.86-.71-14.36-2.55-18.12-10.84-4.58-10.1,1.32-17.77,4.48-21.9,6.12-8,14.69-12.66,23-17.19,2.7-1.48,5.5-3,8.12-4.62a7.07,7.07,0,0,1,3.8-1,29.49,29.49,0,0,1,7.59,1.51,40.39,40.39,0,0,0,5.4,1.3,121.92,121.92,0,0,0,16.27,1.21,72.37,72.37,0,0,0,15.28-1.52,96,96,0,0,1,13.76-1.57c5.63-.36,11.43-.73,17.12-2.43L316,356c13.64-4,27.74-8.1,40.3-15.45a23.52,23.52,0,0,1,2.76-1.28c.94-.39,2.11-.89,3.76-1.62l1.17-.51,1.93,2.95L365,341c-11.25,10.37-21.39,17.71-31.2,24.81l-4.16,3a326.13,326.13,0,0,1-59.71,34.42C251.32,411.46,236.53,415.13,221.94,415.13Z"/><path class="cls-4" d="M271.89,459.18a17.81,17.81,0,0,1-9.13-2.67c-10.95-6.4-7.61-18.2-5.4-26A61.81,61.81,0,0,1,264.61,414c3.83-5.95,9.91-8.34,15.79-10.64a61.73,61.73,0,0,0,7.51-3.36c15-8.49,30.49-17.28,44.67-27.89,7.23-5.42,14.45-10.85,22.15-16.65l11.79-8.87-3.07,7c-8.74,19.93-18.23,37-29,52.11S311.6,436,295.35,446.09a60.26,60.26,0,0,0-6.06,4.53C284.09,454.83,278.72,459.18,271.89,459.18Z"/><path class="cls-3" d="M157.45,1272.44a54,54,0,0,1-28.72-7.71c-11.79-7.22-23.37-17.11-19.78-35.73a4.84,4.84,0,0,0-.9-4.08,5,5,0,0,0-3.91-1.74,5.83,5.83,0,0,0-1,.09,40.84,40.84,0,0,1-6.83.59c-16.41,0-27.5-10.28-33.91-18.91l-.39-.53v-81.3l.67-.6c8.34-7.39,19.15-9.7,28.63-11.29l1-.16c2.55-.39,4.14-.72,4.75-2a2.69,2.69,0,0,0,.15-2.17,4.83,4.83,0,0,0-2.37-2.6c-12-5.88-9.24-16.76-7.45-23.95,3.4-13.67,7.71-24.56,17.64-33.28,7.86-6.91,27-11.55,40-11.55a37.27,37.27,0,0,1,7.86.72c11,2.39,20.31,7.73,29.31,12.91,4,2.32,8.22,4.73,12.47,6.8,4.47,2.19,8.33,3.3,11.47,3.3a11,11,0,0,0,1.55-.1,7.29,7.29,0,0,0,2.89-.81A11.68,11.68,0,0,0,209,1056c-1.18-1.55-2.39-3.14-2.33-4.91.54-15.3,7.49-26.36,20.66-32.84a35.41,35.41,0,0,1,15.77-3.85c7.9,0,15.76,2.87,23.36,8.53,1.8,1.33,3.62,2.64,5.44,4,9.2,6.62,18.71,13.46,24.94,23.95a3.57,3.57,0,0,0,1.21.22,1.49,1.49,0,0,0,.35,0,5.38,5.38,0,0,0,2.59-2.39c2.27-10.31,9-16.46,18-16.46a25.61,25.61,0,0,1,12.88,3.87c4.35,2.54,8.69,5.12,13,7.69l1.14.67c13.28,7.87,8,17.07,3.74,24.45-.68,1.18-1.39,2.4-2,3.59-3.61,7-7.09,14.08-10.76,21.64-1.71,3.49-3.47,7.13-5.36,10.94l-2.59,5.27-1.16-5.76c-.74-3.67-1.42-7.15-2.07-10.5-1.67-8.59-3.12-16-4.95-23.42-.13-.52-.23-1.1-.33-1.72-.19-1.14-.62-3.76-1.36-3.76a2,2,0,0,0-.64.13c-2.59.87-2.58,3.19-1.58,8.06.09.45.16.79.22,1.13.85,4.42,2,8.9,3.17,13.24,2,7.58,4.07,15.4,4.47,23.29.53,10.31-5.67,22.48-17,25a8,8,0,0,1-1.69.19c-6.73,0-13.12-8.69-17.35-14.44-4.05-5.51-8-11.19-11.9-16.69-7.05-10-14.34-20.42-22.18-30a196.27,196.27,0,0,1-11.38-16l-.06-.1c-1.93-2.92-3.92-5.94-6-8.84a11.46,11.46,0,0,0-2-2c-1.43,1.34-1.71,1.68-1.13,3,6.07,13.34,15.14,25,23.92,36.36,1.63,2.1,3.25,4.19,4.86,6.3a42.14,42.14,0,0,1,3.93,6.66c.51,1,1,2,1.53,2.92l1.2,2.16-2.36.72a14.43,14.43,0,0,1-4.35.62,36.12,36.12,0,0,1-4.84-.44c-.89-.12-1.7-.23-2.53-.31-18.41-1.74-35.34-8.42-51.7-14.89l-.23.06c18.11,11.77,36.05,17.7,54.84,18.14,11.27.27,18.64,6.65,27.1,15,6.12,6,8.39,10.09,7.62,13.58-1,4.3-6,6.09-13,8.57l-1.25.44a55.14,55.14,0,0,1-18.87,3.29c-10.44,0-20.56-2.91-29.08-5.75-19.48-6.5-37.36-16.35-54.66-25.88-4.09-2.25-8.25-4.54-12.36-6.75-10-5.38-19.24-12.44-28.17-19.27-3.86-3-7.85-6-11.86-8.87a4.7,4.7,0,0,0-2.68-1,2.7,2.7,0,0,0-2,.85l-.19.2c.26.16.59.33.8.44a7.94,7.94,0,0,1,1.62,1c12.64,11.34,26.86,22.35,44.73,34.66l1,.72-1.47,3.19L155.55,1121c-8.24-2.2-16.75-4.48-25.14-6.68h0c0,.16.07.32.1.47,4.57,1.44,9,3.31,13.38,5.12,9,3.74,18.22,7.61,28.15,7.61a38.71,38.71,0,0,0,5.17-.35,15.57,15.57,0,0,1,2.05-.14c5.59,0,10,2.93,14.25,5.76l1.88,1.24c8.72,5.59,18.29,9.45,28.15,13.24a15.05,15.05,0,0,0,2.45.63c2.54.51,6,1.22,7.59,5.13l.81,2-2,.66c-1,.32-2,.71-3,1.08a30.2,30.2,0,0,1-7.17,2.1c-30.43,3.84-61.42,4-91.39,4.19-9,0-18.21.1-27.35.25-1.06,0-2.12,0-3.18,0-2.81,0-5.65,0-8.4-.1h-.19c-2.82,0-5.68-.1-8.5-.1-2.27,0-4.31,0-6.21.1a3.55,3.55,0,0,0-.87,1,1.24,1.24,0,0,0,.06.54A6.57,6.57,0,0,0,78,1165l.9.08c15.32,1.66,30.75,2,49.21,2h9.8l10.08,0h6.39l6.51,0-5.41,3.63c-16.08,10.81-32.44,17.5-49.17,24a8.81,8.81,0,0,1-2.37.45,10.12,10.12,0,0,0-1,.13,2,2,0,0,0,2.07,1.88,3.73,3.73,0,0,0,.73-.09c10.36-2.51,20.85-6.63,33-13,5.06-2.64,10.05-5.72,14.88-8.7,3.88-2.39,7.85-4.84,11.79-7,4.43-2.45,9.69-2.78,14.25-2.78,1.92,0,3.91.07,5.84.14s4,.14,6,.14a48.23,48.23,0,0,0,6-.32c4-.48,8-.66,11.93-.82a107.75,107.75,0,0,0,16.42-1.56,5.34,5.34,0,0,1,1.08-.11,11.21,11.21,0,0,1,2.93.51,12.51,12.51,0,0,0,1.28.31l3.38.6-2.19,2.64c-.22.27-.42.54-.63.82a15.11,15.11,0,0,1-2.08,2.35c-4.42,3.78-9,7.8-13,11.35-13.09,11.58-26.63,23.56-41.83,33.22-4.67,3-8.89,7-13,10.84-1.61,1.51-3.21,3-4.82,4.48a7.42,7.42,0,0,0,.76,0,1.6,1.6,0,0,0,.42,0c4-2.72,8.13-5.44,12.12-8.06,13.89-9.14,28.24-18.57,40.32-30.12l3.57-3.41-.19,4.94c-.56,14.22-5.07,27.78-9.44,40.9q-.81,2.43-1.61,4.86a5.46,5.46,0,0,0-.13,2.78,4.68,4.68,0,0,0,1.13.14l.49-.62c1.89-2.42,3.85-4.93,4.53-7.51.75-2.86,1.53-5.72,2.32-8.58,2.83-10.25,5.75-20.82,6.75-31.31,1.22-12.78,9.6-18.72,17.7-24.46,3.86-2.74,7.85-5.57,10.77-9.07,3.54-4.24,10.1-5.09,17.06-6a68.53,68.53,0,0,0,9.19-1.61c6.34-1.76,12.73-3.77,18.91-5.71q4.83-1.53,9.67-3a19.27,19.27,0,0,1,2.64-.56l1.1-.19,3.75-.73-1.54,3.49c-.13.3-.25.61-.38.91a23.86,23.86,0,0,1-1.16,2.53q-4.78,8.58-9.53,17.16l-.79,1.42c-8.93,16.11-18.13,32.7-27.43,48.88-.69,1.2-1.38,2.42-2.07,3.65-4.39,7.78-8.92,15.82-15.43,21.66-3.79,3.38-9.15,4.63-14.33,5.84a58,58,0,0,0-8.42,2.4c-4.51,1.81-9.06,3.78-13.46,5.68-13.82,6-28.12,12.15-43.58,14.75a79.68,79.68,0,0,1-13.25,1.17Z"/><polygon class="cls-2" points="6 8.83 58 60.83 58 1619.17 6 1671.17 6 8.83"/><path d="M1024,8V1672a8,8,0,0,1-8,8H8a8,8,0,0,1-8-8V8A8,8,0,0,1,8,0H1016A8,8,0,0,1,1024,8Zm-8,1658.34V13.66l-48,48V1618.34ZM962.34,56l48-48H13.66l48,48H962.34ZM13.66,1672h996.68l-48-48H61.66ZM960,1616v-26.86a12.31,12.31,0,0,1-3,.41c-7.7.13-11.31-6-11.2-13,.09-6,3.66-11.66,10.15-11.27a19.69,19.69,0,0,1,4,.64V1490.6h-.16c-5.54.05-10.27-5.54-10.25-10.71,0-4.73,1.88-11.2,10.41-10.9v-37.76c-17.76.38-35.16-2.5-51.12-12.33-6.84-4.21-11.58-15.15-22.54-7.81-9.62,6.45-19.82,5-30.09,2-16-4.72-28.56-14.91-40.61-25.86-4.43-4-8.86-8-13.38-12-.24-.2-2-2.15-2.22.54-1.4,15.41-6.44,29-18.23,39.87-1.17,1.08,2.34,6.9,3.25,10.63,3.89,15.94-5,36.37-19.13,46.06-10.81,7.41-22,13.07-35.53,11.86.24,3.11,0,6.37.81,9.31,3.64,12.76,2.65,25.06-2.26,37.32-7.07,17.67-19,30.24-37.5,35.44-9.78,2.75-19.85.18-29.34-1.79-7.15-1.48-9.66-3.08-11.64,6.38-3.21,15.33-14.21,26.6-26.6,35.92a113.72,113.72,0,0,1-14.32,9.2H714.76c-.5-6.83,4.84-8.7,11-8.93s9,4.1,9.78,8.93H891a13.18,13.18,0,0,1-.69-5c.22-7.16,5.08-9.76,11.78-10.13,6.21-.34,7.06,3.4,7,8.18,0,3-.8,5.32-2.3,6.94Zm0-193.44v-25.08a7.32,7.32,0,0,1-2.92-2.42,377.45,377.45,0,0,1-30.3-70c-4.16-12.95-6.95-26.17-10.46-39.23-1.16-4.34-7.93-7.17-12.1-10.72-9.11-7.75-18.19-15.54-27.33-23.26a16.15,16.15,0,0,0-2.92-1.61c-.3.7-.89,1.41-.86,2.1.61,14.57-2.49,29.68,2.4,43.53,2.63,7.41,10.93,12.61,15.52,19.57,8.7,13.19,14.81,27.73,19.63,42.79.69,2.17,0,3.69-1.83,4.52s-3,.07-3.91-1.83c-6.56-13.32-13.25-26.58-19.9-39.85A10.61,10.61,0,0,0,884,1319c-2.71-3.25-5.48-6.45-8.24-9.67-1,5.69-.47,11.27.16,17,1.52,13.86,2.19,27.83,2.88,41.77,0,.88-2.51,2.49-4,2.71-2.27.32-1.64-1.9-1.81-3.28-2.64-21.78-5.64-43.53-7.63-65.37-.41-4.47.56-9.25-.36-13.9-.33-1.67-.5-3.38-.75-5.07-1.62,1-3.34,1.92-4.84,3.1-9,7.06-19.37,7.9-30,6.08-5.31-.91-10.27-3.79-15.56-5-5-1.14-2.93,3.56-2.5,4.86,6.3,18.67,2.09,33.87-12,48-12.16,12.15,2.79,21.16,8.44,27.64,14.21,16.29,31.52,30,52.19,38,8.46,3.28,16.87.82,24.69-3.38s14.64-4.46,22.09,2.54C922,1419.53,940.39,1423.47,960,1422.56Zm0-38.94v-25.08c-3.85-2.69-7.76-5.3-11.39-8.27-.76-.62-2-.65-3-1,0,1.09-.47,2.36-.06,3.24Q952.69,1368.12,960,1383.62Zm0-35.4v-34.46l-6.56-4.14c-5.79-3.63-11.7-7.09-17.49-10.72-2.83-1.78-5.51-3.78-8.25-5.67.55,3.48.74,7.06,1.72,10.42,3.06,10.56,6.62,21,9.57,31.56,1.44,5.16,6.28,3.68,9.34,5.51Q954.33,1344.28,960,1348.22Zm0-43.59v-30.35c-6.71,3.19-13.42,6.39-20.15,9.54a48.22,48.22,0,0,1-6.64,2C941.92,1292.47,950.89,1298.67,960,1304.63Zm0-40.41v-22.06a4.46,4.46,0,0,1-1.9.82c-12.32,1.27-23.4-3.9-34.24-8.2-17-6.71-32.57-8.56-47.55,4.18-2.38,2-.16,2,.49,2.48,14.66,12.2,29.31,24.42,44.14,36.4,1.31,1.06,4.25,1.27,5.89.58C937.92,1273.75,949,1269,960,1264.22Zm0-26.17v-79.26a69.71,69.71,0,0,0-6.65-3.63c-18.34-8.8-37.58-8.61-57-8-4.56.15-1.43,4.17-.86,5.16,9.19,16.21,4.49,39.51-14.14,45.06a72.48,72.48,0,0,1-17.39,3.41c-6,.24-12-1.18-19.11-2,9,10.26,15.18,21.06,21.12,32.13,2.84,5.28,6-1.57,8.21-2.64,23.13-11.15,46.81-20.72,71.7-27.08,2.74-.71,7.48-2.37,8.83,1.62,1.41,4.18-3.7,4.9-6.11,5.71-11.85,3.94-23.85,7.43-35.79,14.12,10,3.44,19.88,7,29.84,10.17,5.26,1.68,10.78,2.58,16.05,4.24A3,3,0,0,1,960,1238.05Zm0-89.82v-500a82.62,82.62,0,0,1-15.89.72c-7.31-.35-14.5,4.77-21.8.32-.65,2.65-1.14,5.35-2,7.94-4.73,14.62-16.61,22.15-29.52,27.63-14.72,6.26-29.72,3.28-44.9-.43-24.24-5.92-46.77-19.17-72.85-17.34-14.77,1-27.6,7.49-39.33,15.61-5.9,4.08-3.56,12.75-4.2,18.94-2,19.45-8.22,37.8-12.27,56.68q-4.11,19.2-8.13,38.42a5.54,5.54,0,0,0,.31,1.92,9.2,9.2,0,0,0,2.19-.61c14.3-8.17,28.58-13.46,43.86-1.75,1.92,1.47,3.38-2.22,4.33-4,14.5-27.09,50.57-37.27,78.29-24.32,18.4,8.59,22.88,24,26.95,40.85.23.94,1.1,2,.9,2.72-6.53,24.5,17.52,18.78,27,27.36,8.33,7.51,15.88,28.45,15.35,39.49-1.16,23.75-17.56,36.82-30.39,52.81-1.46,1.83-1.86,4.45-5.09,5,16.08-1.36,30.25,2.39,40.67,14.63,12.39,14.55,17.6,38.87-.06,54.5-5.82,5.16-11,9.1-.74,17.14,14.29,11.23,14.53,39.62,1.45,58.41-12.68,18.2-33.43,25.23-52.55,34.15-2.52,1.18-5.49,1.38-8.22,2.13a7.87,7.87,0,0,0-1.93,1.19c.73.84,1.33,2.21,2.22,2.44,13,3.36,23.67,10.5,32.6,20.39.78.86,1,1.85,3,1.12,18.5-6.64,36.93-6.11,55.64,0A114,114,0,0,1,960,1148.23Zm0-508.67V586.44c-10.43,1.13-21,.09-31.47-1.22s-21.26-3.4-33.39-1.59c17.9,11.48,33.12,25.19,52.93,31.45,1.44.46,2.45,2.27,3.66,3.44-1.7.85-3.48,2.55-5.1,2.4-12.29-1.09-21.85-8.14-31.58-14.89-10.8-7.49-21.28-15.64-32.81-21.82-12.94-6.94-27.5-3.05-41.28-2.38-10.52.52-21,3.31-31.38,5.28a58.05,58.05,0,0,0-10.2,2.94c-2,.76-3.06,1.81,0,3.59,8.31,4.81,16,13.53,24.53,14.39,9.5,1,19.75.87,29.59,1.26,8.37.32,16.68,3.45,24.86,5.9,1.53.46,2.28,3.55,3.39,5.43-2.21-.15-4.44-.21-6.65-.47-8.38-1-16.73-2.27-25.14-3-5-.44-10.14-.08-17.41-.08,10.51,3.15,16.22,10.83,25.34,14.15s16.58,10.2,26.4,12.39a4.41,4.41,0,0,1,2.48,6.5c-1.38,2-3.86.65-6.34-.57-10.48-5.18-21.91-8.65-31.89-14.58-20.48-12.17-41.57-23.56-59.08-40.27-2.82-2.69-7.42.14-10.67,1.61-7.43,3.37-14.53,7.44-23,11.86,10.95,4.55,20.88,8.56,30.72,12.8q15.86,6.82,31.51,14.11c1.23.57,1.75,2.67,2.6,4.06-1.94.63-4.27,2.3-5.74,1.74-14-5.35-27.82-11.28-41.85-16.6-7.91-3-15.14-6.94-22.46-11.07-3.77-2.12-9.39,2.58-10.07,9.51-1.54,16-3.86,31.87-6,49,28.19-18.28,55.54-16.24,85.07-5.74,20,7.11,40.69,17.83,63.48,10.92,15.69-4.76,27.93-13.25,29.88-31.36.37-3.51,2.67-4.64,6.06-4.61,11.36.08,22.84,1,34-.29C955.39,640.34,957.71,640,960,639.56Zm0-62V526.45c-3.78-14-16.75-25.35-31-29.64-25.7-7.72-48.65.25-71.94,9.08-3,1.13-8.6,1.76-8-4.75.87-10.32,4.58-21.24-3.34-30.12-10-11.18-24.43-10.93-41.5.22-22.06,14.41-37.81,35.33-53.57,55.66C745.77,533.11,748,544.8,747,554c-1.9,17.15-3.81,34.29-5.7,51.25,12.45-6.9,26.76-11.88,37-21.28,10.7-9.82,15.41-23.59,4.2-38.29-4.23-5.55-5.25-13.6-7.47-20.59-.85-2.7,1-5.11,3.15-6s4.18.86,4.75,3.21c2.47,10.23,4.89,20.45,11.55,30,7.42-16.2,13.56-32.44,16.27-49.79.4-2.55,1.29-4,3.32-4.7.8-.27,2.33.66,3.1,1.46,1.35,1.4,1,2.85.77,5-2.31,19.77-9.93,37.85-17,56.12-1.6,4.18-3.8,8.14-5.77,12.18-1.29,2.65-2.64,5.27-4,7.91,3-.51,5.92-1,8.87-1.53a231.08,231.08,0,0,0,58-17.9c9.26-4.31,8.39-14.58,12.36-21.87A281.86,281.86,0,0,1,888,511.05c1.57-2.22,4.22-3.13,5.92-1.84,2.7,2.05,1,4.54-.67,7-8,12-14.28,24.91-19.7,38,18.24-4.55,33.22-15.75,49.07-25.28,1.66-1,3.59-3.71,5.77-.23s-.67,4.72-2.51,6.32c-19.16,16.63-42.24,25.9-69,36,9.83,0,16.26-.46,22.61.09,23.15,2,46.24,5.28,69.42,6.11C952.52,577.28,956.25,577.5,960,577.6Zm0-73.09v-107a9.66,9.66,0,0,1-5,1.76c-5.42.26-12.71.31-12.42-8.12-.17-7.8-1.06-15.63,9.08-16.09a12.8,12.8,0,0,1,8.38,2.21V64H580.15c-1.21,5.27-4.78,9.43-12.26,8.92-6.63-.45-9.35-4.1-10.46-8.92H64V481.25a33.67,33.67,0,0,1,7.67-1.92c5.29-1,8.78,5.54,8.76,9.19,0,6.13-1.71,13.54-10.8,13.39a22.8,22.8,0,0,1-5.63-.73v508.49a9.13,9.13,0,0,1,3.75-.94c8.82-.52,7.51,6.78,8,11.37.73,7.17-6.15,8.29-10.83,8.6a6.9,6.9,0,0,1-.91,0v84a33.51,33.51,0,0,1,11.8-4.83c4.93-.92,8.33-1.84,5.22-9.08-6.38-14.85.56-28.74,7-41.62,9.14-18.24,25.23-25.38,45.31-28.74,25.9-4.34,44.06,9.32,63.59,21.26,1.06.65,2.1,1.32,3.16,2a14,14,0,0,0,.8-3.62c-1.32-27.12,28.13-45.27,50.35-40.56,13,2.77,24.41,11.45,34.43,20.76,2.7,2.51,5.95,4.07,8.11,7.86s3.46-2.09,5-3.32c16.66-13.54,29.49-6.8,44.23,1.9,4.81,2.83,10.36,5.64,13,11.43.5,1.12,2,2.09,2.91,0,8.55-19.6,16.2-39.67,26-58.6,4.82-9.28,7.4-19.2,11.11-28.66,4.57-11.66-8.95-11.93-14.92-15.29-12.89-7.27-28.15-9.58-42.49-9.61-14.5,0-28.91,6.24-43.54,7.39-29.29,2.3-59.56,8.46-85-14.09-6-5.33-6.86-12.91-8.66-19.63-1.31-4.86-3.22-4.54-6.51-4.51-15.44.14-29.42-3.76-37-18.33s-7.1-44.88,17.36-50.6c1.34-.31,2.55-1.22,4.47-2.18-17.33-4.32-33.25-9.74-47.06-20.36-18.8-14.46-21.81-34.51-19.48-55.85,1.72-15.73,14.28-22.42,27.17-27.29-12.65-15.73-18.76-33.37-19.8-53.84-1.31-26,2.89-48.85,24.09-66.28,15.19-12.5,35.92-8.74,48.28,9.2,1.57,2.28,2.77,4.84,4.53,7,2.47,3,5.29,5.63,8,8.42,1.15-3.06,2.51-6.06,3.43-9.19,6.64-22.45,28.7-18.94,42.22-9.8,24,16.2,31.66,42.54,42.8,66.76,3,6.53,5,13.51,7.72,20.16.6,1.47,1.15,4.59,4.08.55,19.21-26.45,39.67-26.74,59.14-16,9.94,5.49,13.35,17,14.12,28.26.22,3.3.75,5.45,4,6.65,26.69,10,33.95,32.16,36.2,57.58,2.14,24.13,2.63,48.44,8,72.2.14.64.76,1.17,1.16,1.76.5-.65,1.29-1.22,1.46-1.94q9.66-42.54,19.2-85.12c4-18,8.3-35.92,11.91-54,4.33-21.65,8.49-43.35,12-65.14,5.59-35,11.09-70,12.7-105.5,1-21.66,4.69-43.2,5.57-64.86.52-12.75,2.2-25.46,2.15-38,0-6.69-6.57-13.88-11.33-19.93-15.24-19.39-31.78-37.67-51-53.25a205.9,205.9,0,0,0-47-28.47c-8.13-3.57-10.68,6.46-12.33,12-7,23.38-20.14,43.37-33.18,63.47-13.38,20.61-31.47,36.7-52.25,49.16-9.38,5.63-22.21,10.16-31.06-1.09-6.45-8.21-8.75-18.67-2.68-29.33,1.94-3.41,1.53-8.15,2.2-12.28-4.23.79-8.53,1.36-12.69,2.43-14.18,3.65-38.46,5.08-49.3-8.24-8.65-10.62-6.93-27.64,5.17-36.51,6.92-5.09,14.13-9.77,21.3-14.51,2.51-1.66,4.84-2.43.94-5.63-17.12-14-14.1-29.09,7.25-40.2,19.71-10.26,40.86-11.94,62.43-11.95,4,0,4.22-.1,3.54-2.16-4.54-13.69,3-21.3,13.47-27.86,14.5-9.09,30.57-5.74,46.08-6,5-.08,5.16-1.25,4.13-5.05-3.59-13.27,3.22-23.75,16.57-27,19.19-4.62,35.87,3,53.85,10.42-5.06-11.17-4.5-22.23-4.41-33.27.09-12.21,11.56-28.52,23.3-30.63,8-1.45,14.59,5.4,18.06,10.77s9.29,10.77,9.66,18.75a101.46,101.46,0,0,1,15-31.4c6.43-9,15.65-12.62,25.8-10.24,8.06,1.88,10.82,10.58,15.5,17.42,8.56-12.34,19.55-21.47,35.41-24,17.68-2.85,29.93,9.2,32,24,11.65-9.64,24.23-16.49,40.15-13.79,9.14,1.56,15.11,6.56,17.24,15.66.92,4,1.59,4.77,5.66,2.12,15.74-10.26,49.07-11.77,53.19,11.57a12.86,12.86,0,0,1-1.11,7.92c-5,9,2,7,6.14,6.6,19.81-2.09,37.19,2.16,50.67,17.94,9.8,11.49,7.44,23.45-7.51,31.73-9,5-18.57,9.18-29.36,11.11,7.05,4.78,15.75,5.91,20.54,14.24,8.92,15.52-2,21.46-12.29,27.06-14.68,8-30.61,7.52-47.11,6.64-30.53-1.62-59.41-9.87-88.18-18.75-10.78-3.33-20.77-9.33-30.94-14.47-7.23-3.65-6.54,4.05-7.35,6-7,17.11-13.09,34.57-19.55,51.89-2,5.47-1.2,6.8,5.24,6.24,22.27-1.92,44.61-3.1,67-4.27,13.13-.69,26.61.76,39.36-1.73,10.78-2.12,21.54-.2,32.32-2.94,8.69-2.21,18.38-.28,27.62-.61,12.1-.43,24.19-1.2,36.27-2,4.73-.31,5.56,2.1,5.43,6.1-.83,23.78-1.09,47.59-2.38,71.34-1.42,25.93-3.48,51.84-6,77.69-.38,4-1.42,8-1.46,12.72,13.25-15.65,26-30.76,40.82-44.05,16.52-14.8,36.55-18.93,54.25-9.93,9.68,4.93,15,19.56,11.44,29.68-1.09,3.07-.17,6.85-.17,10.12,25.92-14.82,53-19.55,81.26-7.49C947,494.53,954.38,498.79,960,504.51Zm-60.09,502.21c12.87-8.52,19.2-25.39,13.76-36.74-10.49-21.91-18.08-26.3-43.09-24.91-2.55.14-4.76,0-6.55-2.44-2-2.74.56-4.11,1.5-5.51A133.31,133.31,0,0,1,876.2,923c12.31-13.92,23.25-28.26,24.85-47.93,1.56-19.11-16.64-36.77-36-34.12-2.58.35-7.1,1.48-6.74-3.14.7-8.86.86-17.44-1.24-26.24-2.79-11.68-4.49-25.09-14.6-31.64-25.58-16.58-58.87-11.45-77.74,15.45-2.43,3.46-5.28,12-9.61,9.29-15.57-9.72-37.72-6.48-48,9.39-7.92,12.28-10.11,26.84-14,40.64-5.9,20.82-10.87,41.9-16.86,62.7s-13.37,40.94-18.39,61.81c-1,4-10.75,10.72-.77,14.77,16.55,6.71,21.46,19.32,21,35.6a7,7,0,0,0,.65,2.12c.71-.57,1.68-1,2.11-1.74,6.9-12.06,17.74-18.63,30.3-23.71,1.55-.63,13,4,7.48-5.88-3.59-6.44-7.65-13.12-12.28-18.53-11-12.87-18.46-27.5-26.29-42.16-2.08-3.9.39-6.08,1.67-7,2.08-1.44,3.37,1.67,4.41,3.37,5.83,9.45,11.51,19,17.39,28.41.58.94,2.62,2,3.12,1.72a4.83,4.83,0,0,0,2-3.43c0-18,1.62-36.06-1.74-53.95-.6-3.21,1.37-5.46,4-5.61,2.86-.17,3.86,3,4,5.36,1.54,20.16,4,40.23.79,60.57-.6,3.81-2.71,9.13,2.12,14.27,8.69,9.25,15.48,20.28,23.17,30.49,1.86,2.48,5.05,7.37,6.85,5.32,4.37-4.94,9.86-13.43,7.08-18.09-10.85-18.2-16.22-38.11-21.86-58-.38-1.35,1.55-3.35,2.41-5.05,1.17,1.32,2.85,2.46,3.42,4,5.6,15.31,11,30.7,16.53,46,.53,1.47,1.84,2.67,2.78,4a28.72,28.72,0,0,0,3-4c2.59-4.88,5.86-9.61,7.29-14.84,1.82-6.7,9.84-14.33,5.53-19.5-11.48-13.79-18.85-29.54-27.15-45a233.85,233.85,0,0,1-21.78-58.83c-.45-2,.83-5.77,2.32-6.42,2.32-1,2.83,2,3.64,4,6.12,15.5,10.09,31.9,19.25,48,2.8-19.1,9.68-36,4.88-54.23-.77-3,.8-7.82,4.65-10,.25-.14,3,2.42,3,3.73.09,15.67,2.31,31.25-.91,47.06-1.88,9.2-10,17.87-4.75,27.91,5.79,11.11,12.46,21.76,18.89,32.53.65,1.09,2.31,1.58,3.5,2.35.49-1.11,1.07-2.19,1.47-3.33,2.44-7,6-13.79,7-21,1.61-11.26,10.81-20.27,5.37-34-8.07-20.34-9.25-42.56-8.37-64.55.06-1.64,2.31-4.43,3.68-4.53,2.54-.16,2.33,2.68,2.25,4.62-.8,19.47,5.87,38.05,6.37,59,5.59-8.1,6.16-16.29,7.27-23.78,3-20,6.16-40.17,2.33-60.52-.24-1.29-1-3.8,1.77-3.69,1.42.07,3.73.81,4.05,1.77,3,9.18,2.06,18.75,2.43,28.21.86,22.19-3.51,43.73-8.32,65.15-2.54,11.28-6.35,22.28-9.59,33.41Q794,933,790.7,944.49q1.75,1.29,3.53,2.56c10.83-12,21.95-23.68,32.41-36,10.24-12,19.77-24.68,29.74-37,1-1.18,2.89-1.57,4.37-2.32.66,1.73,2.06,3,.82,5.41-8.05,15.91-20.83,28.15-31.73,41.85-1.2,1.52-2.84,4.81-2.51,5.08,2.07,1.66,4,.43,6.13-.93,11.11-7.09,22.37-14,33.63-20.8.88-.53,2.22-.29,3.35-.41.14,1.39,1,3.46.34,4.07-10.3,10.21-22.88,17.28-35,24.94-9.06,5.72-21.28,3.41-29.54,11.9-7.28,7.49-17.74,12.79-22.7,21.41-8.81,15.29-14.41,32.41-21.56,48.68-4.56,10.39-10.76,20.1-12.92,32.39,10.63-5.74,20.52-11.23,30.55-16.46,13.38-7,27.36-12.49,34.94-27.55,6.31-12.51,14.87-23.9,22.77-35.56.65-1,4-.54,5.87,0,.95.25,2.24,1.14.61,3.59-7.51,11.28-14.3,23-21.3,34.66a10.18,10.18,0,0,0-.7,2.71c1-.1,2.08.1,2.82-.34Q848.53,992.3,872.33,978c2.65-1.59,6-2.23,7.64-.09,1.87,2.53-1.18,4.76-3.3,6-25.64,14.51-49.09,32.92-77,43.46-1.41.53-2.19,2.71-3.27,4.12a23.81,23.81,0,0,0,3.69,1.43c4.11.83,8.39,1.08,12.36,2.34,20,6.35,40.55,9.08,61.44,9.74,2.31.08,6.29-1.36,6.53,1.46.22,2.62-3.26,4.32-6.47,4.67a103,103,0,0,1-32.46-1.79c-13.35-2.76-26.94-4.47-40.17-7.65-9.91-2.38-19.35-7.85-29,.83-2.39,2.15-5.92,3-8.91,4.55-.78.4-1.5.93-2.26,1.4a9.09,9.09,0,0,0,2.57,1.54c7.38,1.44,16.13,2.15,20,8.78,5.67,9.85,12,8.6,20.64,5.5,21.57-7.75,47.83,8.3,53.27,30.77.69,2.84-6.83,13.82,5.86,10.51,2.55-.67,4.59-3.13,7-4.53,16.62-9.63,35.22-16.16,42-37.85,3.84-12.39-.78-33.58-12.44-39.46C887.84,1017.58,887.83,1014.71,899.91,1006.72Zm-13.67,173.83c4.25-5.47,4.51-13.2,1.67-19.43a55.34,55.34,0,0,0-37-31.3c-7-1.82-23.33-16.25-24.37,7.66a15.17,15.17,0,0,1-2.17,7.31c-7.26,11.17-15.7,21.1-29.11,25.89,1.6.12,3.42-.22,4.76.43,22,10.65,43.82,20.82,69.52,18.41A22.59,22.59,0,0,0,886.24,1180.55Zm-59.65,101.07c17.25,4.24,35.43-3.1,34.2-25.52-.49-18.16-10.26-34.34-23.25-49.78-12.13-14.4-29.66-18.27-44.92-26.59-1-.58-3.37.91-4.93,1.75-.27.15.14,2,.57,2.89,9.17,19.13,7.62,41.35-11.32,51.19-4.69,2.44-3.66,4.26-1,7.62C789.6,1260.29,803.84,1276,826.59,1281.62ZM847,1104.8c3-16.42-12.31-32.92-30.82-32.83-1.49,0-3.26-.53-4.44.09-6,3.11-16.6-3.43-18.45,7.91-.69,4.27-.88,8.6-3.45,12-5.2,6.92-5.59,10.18,4.83,9.25,3.62-.33,7.42,3,11.28,3.5,9.47,1.14,13.8,14.82,25.41,10.2C837.24,1112.6,845.32,1114,847,1104.8Zm-50.35,54c14.94-4.38,25.77-27.07,17.85-37.11-8.27-10.48-32.69-14.17-45.51-10.16s-7,7.61-2.55,13.69c4.72,6.51,8.22,14.09,6.16,22.53-1.72,7-8,10.41-14.67,14.7C772.21,1164.09,784.55,1162.33,796.66,1158.77Zm-5.33,177.15c11.91-10.3,17.16-22.89,13.31-38.88-4.68-19.44-21.57-29.6-32.95-43.86-9.6-12-26.69-11.72-39.14-19.58-.14-.08-1.49,1.13-1.39,1.37,3.59,8.66-.58,17-.93,25.46-.88,21.53,9.36,39.28,20.12,56.7,6.54,10.59,13.25,21.35,30.58,22.28C783,1339.82,787.72,1339,791.33,1335.92ZM788.24,1389c3.87-8.37-2.2-38.67-9.33-39.74-14.7-2.2-25.41-9.57-33.56-23.73-.89,17.09.38,32.45-9.85,46.42-9.71,13.25-19.25,24-38.46,22.4,6.93,6.37,13.68,12.34,20.16,18.59,7.33,7.06,16.63,12,22.45,20.7,1.27,1.89.91,2.94-.55,4-.71.51-2.14,1-2.6.7-9.9-7.44-20.25-14.41-29.39-22.69-10.8-9.79-20.54-20.74-32.47-33,1.14,6.45,1.88,10.07,2.4,13.72,2.08,14.5,3.35,29.08,7.34,43.34,1.09,3.89,6.58,10.78.82,12.73-5.54,1.87-5.83-6-7.41-10.5a163.3,163.3,0,0,1-9.24-53.84c0-8-.8-13.86-6.4-19.75-6.72-7.09-12.32-15.23-19.08-23.78a44.74,44.74,0,0,1-15,30.05,4.09,4.09,0,0,0-.43,4c11.82,17.26,19,36.44,23.22,56.75.46,2.22-1.94,5.05-3,7.59-1.61-1.67-4.44-3.2-4.64-5-2.1-19.07-13.3-34.48-20.31-51.55-.66-1.62-1.17-4.6-3.79-3.73-3.59,1.19-8.39.61-10,5.52-3.27,10.15-6.58,20.28-9.74,30.47-1,3.15-.79,6.24,2.83,7.8,14.76,6.35,25,18.57,36.15,29.19A265.63,265.63,0,0,1,685.69,1515c1.88,3.25,5.63,6.44,2.12,10.72-1.17,1.42-3.12,2.34-4.7.44-2.15-2.59-4.59-5.14-6-8.14-8.83-19.12-24.62-32.88-37.32-49a12.19,12.19,0,0,0-2.13-1.75c-.41,1-1.2,2.06-1.16,3.07.67,19.93.1,39.94,4.45,59.61.35,1.59,1,3.93-2.34,4.35-2.27.28-3.1.77-3.92-2.16a182.25,182.25,0,0,1-6-66.49c.26-2.7,1-5.44-1.57-7.84-8.83-8.31-17.2-17.14-27.55-23.66-1.54-1-3.62-2.38-4.4.17-6,19.46-14,38.29-4.43,59.56,8,17.71,4.62,37.61,6.06,56.54.31,4.07-2,8.33-3.17,12.5-6.47-2.68-4.74-8.39-4.7-13.28.18-20.14-3.29-39.88-6.14-59.7-.13-1-1.16-1.78-1.77-2.66-.65.56-1.73,1-1.88,1.7-5.43,23.17-10.54,46.41-16.36,69.48-1,3.78-.57,10.22-6.93,10.46-4.62.18-3.24-4.25-2.83-6.48,2.52-13.76,4.8-27.62,8.37-41.12,6.73-25.41,14.3-50.59,21.43-75.88.34-1.21-.12-2.63-.2-4a7.77,7.77,0,0,0-1.71.41c-6.33,3.07-13.15,5.46-18.81,9.48s-14.24,3.58-17.06,10.76c-8.39,21.34-21.11,39.84-35.67,57.28-1.83,2.2-3.64,2.27-5.49.7-1.57-1.34-1.49-3.25-.09-4.86,13-15,21.32-33,33.51-51.34-13,9.21-24,17.54-35.6,25-10.06,6.48-15.84,16.89-24.4,24.7a5.06,5.06,0,0,1-5.34,1.13c-.43-.11-.88-2.49-.41-3.28,4.45-7.56,9.28-14.73,15.95-20.73,11.72-10.56,24-20.37,37.5-28.39,14.18-8.43,29-15.74,43.66-23.36,9-4.69,20.41-5.87,22.44-19.33,1.07-7.11,4.68-13.83,7.14-20.73,2.08-5.85,4.79-11.33-6.17-10-11.87,1.4-21.07-4.19-27.73-14.09-.57-.85-2.45-1.26-3.67-1.16-9.1.76-13.73,7.13-18.63,14A194,194,0,0,1,483,1442.17c-3,1.8-4.1-.92-5.29-1.68-1.91-1.23.63-2.19,1.64-3,20.09-16.28,39.91-32.86,56-54.84-10,3.09-19.1,5.71-28.1,8.78-24.62,8.4-49.16,17-73.81,25.35-1.31.44-3.37-1.34-5.09-2.09.9-1.2,1.58-2.68,2.73-3.54,4-3,9.43-2.91,13.4-4.9,26-13,54.24-19.55,82.44-30.54-13.31-3.86-25.09-8.75-38.07-8.66-12.64.09-25.28,0-37.92,0-2.32,0-4.14-1-4.06-3.33.09-2.19,2.1-2.66,4.07-2.8,6-.43,11.93-1,17.9-1.4a158.9,158.9,0,0,1,44.09,2.58c11.16,2.33,21.56,9.93,33.47,6.61,5.41-1.51,16.75.81,11-12.61-2-4.62-1.46-11.43,1.16-17.39,2-4.59,1.74-10.18,2.49-15.33-5.07-.72-12.68-3.91-14.79-1.74-11,11.29-24.26,16.56-39.07,20.51-9,2.41-29.26-1.2-34.05-9.47-2-3.5-4-3.59-6.56-1.54-3.53,2.78-7.26,2-11.15,1.38-7.34-1.12-17-5.44-21.63-2.35-12.47,8.28-22.5,20.81-17.75,37.25,3.58,12.41-1,17-11.22,21.61a20.31,20.31,0,0,0-11.6,17.83c-.66,17.55,19.81,36.28,39.2,36,7.91-.14,8.77,2.36,4.76,8.42-1.38,2.08-2,4.68-3.6,6.58-13.18,16.09-14.42,34.19-6.11,52.08,8.06,17.36,29.44,37.26,55.09,36.4,3.34-.11,5.61,2,6.8,5.86,3.6,11.55,2.86,24.22,9,35.06,11.58,20.3,29.73,26.31,49.28,28.78H584.6c10.85-2.59,21-7.84,30.22-14.2,14.79-10.17,28.56-22.26,29.56-42.65.14-2.92,2.29-4.5,5.62-4.25,10.46.78,21,1.14,31.4,2.08,27.5,2.5,42.82-29.13,42.43-48.24-.21-10.58-3.16-21.14-5.24-31.64-.68-3.42.7-4.94,3.34-4,17.28,6,30.45-1,43.17-12,10.85-9.46,14.59-26.83,7.09-38.38-2.18-3.37-4.79-8.49-.77-10.91C780.46,1406.34,784.15,1397.86,788.24,1389Zm-23.08-285.86c10.38-7.15,20.06-14.57,17.35-28.2-2.18-11-12.1-14.72-21-16.06-9.76.26-20.73,2.54-21.55,9.25-1.71,14-8.89,23.35-17.68,32.71-1.81,1.94-2.61,4.82-3.87,7.27a10.24,10.24,0,0,0,3.13.77C736.13,1107.65,751.24,1112.74,765.16,1103.15Zm9.24,125.14c9.82-10.25,11.17-23.35,6.67-37.15-2.39-7.33-8.93-9.73-13.87-14-7-6.07-15.12-5.54-23.8-5-6.56.44-13.31-2.07-20.23-3.31.2,1.14.14,1.57.32,1.74,18,17.69,19.8,27.56,9,50.52a2.08,2.08,0,0,0,.29,1.82C741.05,1232.42,766.34,1236.68,774.4,1228.29ZM747.75,264.54c7.61-3,18.31-5,19.66-17.51-2.84-10.3-11.55-14.6-20.44-19.38-14.49-7.79-38-5.39-49.81,5.85-3.37,3.21-6.7,6.74-10.7,9-18.62,10.36-36.05,23.11-57,28.85-.71.2-1.05,1.76-1.56,2.69,1,.2,2.16.82,3,.53,5.73-1.92,11.49-.85,17.27-.49C681.87,276.15,715.63,277.09,747.75,264.54ZM763.5,1143c-3-8.19-5.08-15.67-14-20.5-10.76-5.81-21.51-4.74-32.09-3-9.15,1.46-19.14,2.48-26.44,9.7-4.92,4.88.83,12-3.46,17.06a16.37,16.37,0,0,0,1.66.73c18.51,6.16,37.1,12.17,57,8C753.33,1153.36,760.81,1151.74,763.5,1143Zm-8.87-781.71c.33-3.11,0-4.33-3.6-4.27-22.74.35-45.39,1.66-68.06,3.7-16.1,1.44-32.45-.14-48.65.55-15.44.66-30.86,3.85-46.23,3.51-21.54-.48-43,1-64.45,2.33-4.93,0-9.88,0-14.81,0-1.3,0-2.41-.08-2.29,2.15,1.37,25.63-.38,51.15-2.4,76.69-2.28,28.79-4.14,57.61-5.89,86.43a898.16,898.16,0,0,1-11.08,99.11c-5.32,30.67-10.31,61.39-16.09,92-3.35,17.78-8.06,35.3-12,53-4.9,22.16-9.13,44.47-14.53,66.5-5.26,21.5-12.72,42.5-17.22,64.14-4.69,22.5-14.05,43.34-21.25,64.85-8.66,25.85-21.83,50.18-33,75.2-11,24.64-22.53,49-36.57,72.08-6.4,10.53-11.91,21.61-17.9,32.4-7.79,14-15.31,28.19-23.58,41.91-10,16.59-20.75,32.71-31,49.14-8.69,13.94-17.15,28-25.68,42-2.43,4-7.49,9-6.48,11.86,1.6,4.51,8.19,2,12.67,2.34,13.27.83,26.59,1,39.82,2.28,31.84,3,63.7,5.91,95.41,10,21.18,2.7,42.61,2.84,63.65,7.31,13,2.76,24.52,3.18,32.87-13.09,10-19.51,25.5-36.15,37.78-54.59,12.7-19.07,26-38,36.09-58.46,10.84-21.82,24.84-41.9,33.58-64.91,6.22-16.36,16.28-31.23,22.84-47.49,10.94-27.07,19.71-55,30.83-82a499.7,499.7,0,0,0,17.23-49.54C659,933.75,662.84,919,667,904.31c4.51-16.08,9.21-32.1,13.66-48.19,4.88-17.68,9.81-35.34,14.24-53.13,3.89-15.66,8-31.23,10.57-47.27s8.41-31.42,11.28-47.37c3.57-19.87,5.3-40.06,8.32-60,5.15-34,5.8-68.44,11.64-102.38,3.2-18.63,3.78-37.71,5.54-56.59,2.24-24,4.43-48,6.73-72Q751.65,389.29,754.63,361.25ZM748.31,302c1.18-5.9-5.46-9.91-10.69-13.64-11.85-8.46-24.66-7.55-38-6.32-27.52,2.53-54.94.51-82.29-3-14.59-1.86-27,7.24-42.9,8,8.45,3.14,14.79,5.63,21.21,7.86,19.19,6.66,38.46,12.62,58.52,16.69,26,5.27,51.63,11.78,77.83,3.05C738.49,312.48,746.87,309.2,748.31,302ZM737,1333c.52-14.76-6.13-29.77-10.35-45.32-4.71-17.36-14.3-8.78-23.32-4.7-4.58,2.07-1.72,5.64-2.11,8.42-1,7.49.11,15.69-2.53,22.47-4.87,12.49-11.71,24-26.73,27.68-2.38.59-9.9-1.42-8.34,4.71,2.68,10.47,9.39,19.21,15.6,27.93,8.77,12.33,29.5,13.65,40.4,3.22C731.79,1365.76,737,1351.44,737,1333Zm-2.16-307.36c.13-5.73-4.22-10.58-9-10.87-31-1.87-49.4,32.88-48,58.6,11.24-18,21.39-22.07,43.17-18.83,3.37.5,10.17,7.25,11.74-2A185.66,185.66,0,0,0,734.81,1025.67ZM731,1202.28a13,13,0,0,0-.2-3c-8.09-23.17-25.84-36.72-47.45-45.44-2.67-1.08-8.62,5.62-12.85,9-.85.67-1.53,2.81-1.09,3.66,8.17,16,13.71,33.94,29.3,44.89,6.69,4.69,14.78,8.8,23.11,5.28C727.5,1214.2,730.44,1208.27,731,1202.28Zm-9.41-115.1c3.34-5.21,9.88-10.19,6.81-16.89-2.54-5.56-9-7.55-16.44-7.23-6.62-.06-14.68-.08-19.7,6.26-8.59,10.88-17.55,21.81-19.26,36.45-.13,1.08-1.4,2.92-1.25,3,5,3.22,12.42,10.14,14.8,8.71C699.83,1109.54,712.94,1100.69,721.59,1087.18Zm1.57,163.47c2.88-9.12.6-21.56-4.62-22.37-20.68-3.22-34.38-13.91-45.9-34.1-.5,20.72-15.06,36.55-5.66,55.67,5.82,11.84,11.82,24.26,26.69,24.74C709.27,1275.09,718.46,1265.58,723.16,1250.65ZM693.37,227.24c9.64-6.62,14.79-27.37,6.45-32.09-9-5.1-19-4.31-28-.87-6.58,2.52-16,2.89-17.37,12.95-2.31,17-13.47,28.17-26.09,37.75-14.54,11-29.92,21-45.68,31.88,8.74.5,15.45-4.16,22.84-5.75,15.06-3.23,28.74-9.89,42.43-16.31C664,247.26,678.7,237.3,693.37,227.24Zm-.76,1064.6c-.28-2.51,5.38-5.67.09-6.91-16.3-3.8-31.55-18.79-34.61-36.6-2,8.48-3.68,15.15-8.76,19.9s-13.8,8.22-15.45,13.85c-2.74,9.33-2.9,20.55,1.44,29.75,11.22,23.75,34.63,28.86,48.13,11.33C690.57,1313.91,693.88,1303.33,692.61,1291.84Zm-39.29-134.78c16,1,28.13-12.77,27.76-22-.55-13.39-6.59-18-25.45-18-11.81,0-25,11.18-24.41,21.85C631.93,1152.53,641.88,1156,653.32,1157.06Zm16.22-131.52c1.45-6.43-7.25-21.79-13.93-22.58-11.58-1.36-8.18,9.77-12.39,14.5a9.66,9.66,0,0,0-1.87,7.75c.83,3-5,5.75-1,7.5,17.2,7.49,20.35,23.71,25.76,38.83a93.69,93.69,0,0,0,3-25.38C668.77,1039.28,668.07,1032.12,669.54,1025.54Zm-3.79,160.72c.76-2.19-2-7.18-3-12.37-1.67-9.14-9.63-7.9-16-8.69-1.73-.21-4.33-1.57-5.63,1.27-8.19,17.94-15.23,36.17-14,56.44.41,6.81,3.56,13.41,9.34,15.57,7,2.62,13.5-2.93,17.12-8.37C661.59,1218.05,663.73,1203.86,665.75,1186.26Zm-8.65-78c4.7-.64.37-9,1.84-12.85,0-15.89-3.44-30-10.42-42-3-5.19-6.78-11.33-12.72-11.7-4.33-.27-4.19,6.9-6.19,10.66-.89,1.67-.78,3.87-1.62,5.57-7.88,15.94-13.08,29.7,2.1,46.78C640.51,1116.45,648.57,1109.4,657.1,1108.25Zm-6.17,140c.1-2.81-.11-3.57-3.6-2.36-8.39,2.91-16.48,3.19-22.43-5.66-11.53-17.18-6.23-34.89-2.46-53.4-8.12,8.61-20.55,11.46-25.06,24.4-5.34,15.37-8.78,30.43-4,46.21,3.44,11.48,19.42,19.74,31.76,17.43C636.83,1272.71,650.57,1258.55,650.93,1248.3Zm-8.5-1031.75c5.81-10.29,9-21.59.57-31.89-6-7.3-15.38-5.65-22.73-3.24-10.1,3.3-21.59,9.12-24.55,19-6.12,20.43-17.11,37.31-31.51,51.92-16,16.23-34.48,29.72-53.9,42,27.4-7.54,54.31-16,78.4-31.76C608.68,249.56,630.14,238.33,642.43,216.55ZM635,1348.78c2.16-7.38,5.59-13.5-1.8-21.14-10.24-10.58-7.76-25.86-10.27-39.24-.34-1.82,5.51-4.09-.2-5.21-3-.59-6.57-.07-7.61,3.69-3.84,13.9-14.14,21.54-25.92,28.31-8.59,4.94-23.16,3.73-21.89,19.84.22,2.72-.5,5.55-1,8.29-3.4,20,6.77,36,26.07,37.62C609.6,1381,630.19,1365.27,635,1348.78Zm-6.08-181.66c1.05-2.7,3.53-7.4,3-7.73-5.54-3.69-5.49-14.52-17.26-10.73-17,5.47-34.53,9.15-43.1,27-1.79,3.73-6.1,7.79-1.62,13.69,5.53,7.31,13.11,4.44,20.56,6.22C598.88,1195.83,625.2,1176.7,628.93,1167.12Zm1.48-46.25c2.77-5.94-6-7.18-9.6-8.25-4.7-1.42-10-11.8-15.45-1.45-5,9.55-9.13,19.58-13.61,29.35,6.6,1.92,13.17-1.14,19.91-1.52C623.22,1138.35,626.79,1128.63,630.41,1120.87Zm-25.59,171.45c3.92-6.38,4.28-9.56-3.77-13.58-10.37-5.18-15.89-15.4-17.19-27.13-.89-8-1-16.08-1.47-24-7,4.39-11.78,11.44-20,13.76-12.27,3.43-16.07,14.33-21.47,24.07-4.43,8-3.93,16.58-4.71,25-.74,8,.65,16.32,8.69,20.37C562.3,1319.6,594.48,1309.18,604.82,1292.32ZM586,202.31c2.49-7.15,5.51-14.49,1-22-5-8.42-13-10.82-22-9.15-17.19,3.17-27.51,15.43-33.58,30.17-4.85,11.79-5.48,25.24-9,37.67-5.33,18.81-13.83,36.25-28,55.66,17.26-12.38,31.53-21.42,44.73-32.32C559.4,245.69,577.2,227.61,586,202.31ZM584,1211.07c1.53-1.83,2.88-3.82,4.32-5.73-2.39-.4-4.79-1.21-7.16-1.15-8.57.23-14.35-4.16-19-10-9.74,13-14.26,29.34-25.64,42.55C558.78,1238.38,571.84,1225.57,584,1211.07ZM562.61,288.7c-4.29.44-8.41-.09-11.63,1.37-13.38,6.07-27.62,9.29-41.7,12.81-14.46,3.62-29.52,4.9-43.9,8.77-17.95,4.83-34.48,14.58-53.63,15.51-3.6.17-7.11,1.7-10.71,2.18-4.26.58-3.83,1.69,1.93,4.77,10.94,5.85,20.71,13.47,31,20.19,15.83,10.33,27.85,24.25,40.77,37.32,7.41,7.49,12.95,16.82,19.7,25.81,4.51-19.39.36-38.3,2.09-57,.18-1.88-.21-3.38,2.07-3.42,6.77-.11,13.9,1.25,20.22-.43,6.87-1.83,17.49,7.92,20.52-8.68C543.07,327.45,551.13,307.79,562.61,288.7Zm-18.52,957.83c-6.1.62-12.89-.59-14.6,1.81-6.53,9.18-12.82,18.54-19.28,27.78-7.78,11.1-15.25,22.42-23.67,33.11-3.61,4.59-8.27,9.75-8.73,15-.35,4,6.27,7.57,11.1,8.65,12.06,2.69,23.6.39,34.53-5.34,7.84-4.11,20.12-4.64,7.78-18.89C521.35,1297.21,525.6,1264.35,544.09,1246.53ZM522.76,196.94c1.68-9.49-4.81-14.43-10.31-19.17-3.49-3-9.11-.54-12.62,2.69-11.54,10.63-16.93,24.86-18.34,39.65-1.32,13.84,1.23,28,1.47,42.05.19,11,2.28,22-1,35.25A129.32,129.32,0,0,0,506.72,257C514.27,237.62,519.12,217.43,522.76,196.94ZM64,1616H514.1c-11.16-6.08-20.41-15.26-26.53-29.31-2.14-4.91-4.45-10.72-3.77-15.71,2.46-17.86-12.26-14.33-21.09-17.86-25.46-10.21-42.33-27.11-48.11-55-3.34-16.11.31-29.07,10.59-40.83,5.15-5.89-.1-7.17-3.63-8-15.88-3.68-26.55-13.49-34.59-27.19-8.25-14.07,2-39.39,17.94-43,2.7-.62,2.23-2.32,2-3.65-3.9-18.95-1.08-35.64,18.51-48.51-26.37,1.79-49.07-4.93-72.33-6.34-19.86-1.21-39.65-3.6-59.47-5.46-21.37-2-42.76-3.87-64.11-6.07-10.22-1.06-13.1-13.48-6.1-23.64,6.11-8.87,11.76-18,17.37-27.25,1.14-1.87,1.18-4.41,1.72-6.65-2.37.66-4.93.94-7.1,2-20.31,10.19-41.05,19.2-63,25.53-23.27,6.71-56.49-6.39-68.79-28.19-1.42-2.53-2.94-5.87-2.45-8.47,2.16-11.33-4.37-10.2-12.55-11.82A52.77,52.77,0,0,1,64,1218.63v279.83a8.42,8.42,0,0,1,5.5-1.45c6,.19,11.72,1.29,11.56,9.34-.15,7.44-3.85,11.83-11.38,11.62a8.39,8.39,0,0,1-5.68-2ZM475.29,297.63c-1.64-14.89-.41-28.4-1.72-42.12-1.56-16.38-3.52-32.29-10.9-46.87-3.65-7.21-6.93-18.31-18.18-15.23-9.48,2.59-16.35,23.67-13.3,34.74C438.63,255.24,451.4,279,475.29,297.63Zm-47.12.27c13.07,2.19,25.86,6.65,39.39,4.91-9.95-10.2-19.89-19.34-27.35-31.23-3.89-6.19-5.18-15.2-13.16-18.2-12.79-4.79-25.23-11.23-39.43-10.95-9.78.19-21.89,1-23.62,11.56-1.46,8.88,6.4,17.7,15.07,22.91C394.45,286.15,410.08,294.86,428.17,297.9Zm18.92,12.25c-5.24-1.19-9.3-2.63-13.45-3-17.18-1.41-32.8-7.39-47.45-16-8.53-5-16.17-13.87-25.15-15.36-14.79-2.46-30.49-2.81-45.49,1.37a20.46,20.46,0,0,0-14.1,12.92c-1.95,5.84-.48,11.12,6.46,15.41,19.25,11.89,40.58,15.36,62.23,17.28C396.36,325.09,421.3,317.75,447.09,310.15ZM416.17,896.82c2.16-10.36,9-19.91,6.71-31-2-9.77-6.5-19.14-7.68-29-2.79-23.22-3.72-46.66-6.46-69.88-1.69-14.26-8.49-26.47-21.22-34.17C380,728.32,369,728.08,369,715.57c0-12.8-4.77-21.54-18.12-26.05-11.86-4-39.57,8.79-41.92,21-.32,1.7-2.2,3.42-3.79,4.5-2.06,1.4-3.27-.72-4.44-2-11.17-12.46-13.64-29.24-21-43.64-9.37-18.32-17.09-37.09-34.74-49-5.79-3.91-12.71-8.25-20.22-3.8-10.32,6.12-10.66,16.91-11.64,27.23-.24,2.56.78,5.54-2.47,6.94s-4.43-1.37-5.86-3.15c-5.64-7-11.43-13.93-16.59-21.28-7.34-10.46-16.75-19.38-29.62-14.65s-21.42,16.19-25.35,29.71c-4.53,15.58-6.23,31.49-2.14,47.56,3,11.89,5.77,24,14.67,33.15,6,6.19,11.45,11.37-1.45,16-9.62,3.48-17.29,7.81-20.23,20.32-3.46,14.67,4.52,40.76,17.21,48.92,22.76,14.64,48.18,17.51,74,19.61,1.74.14,4.22-.48,3.69,2.46-.33,1.87-1.3,4.82-2.52,5.12A73.6,73.6,0,0,1,200.38,837c-17.45.31-29.66,8.37-35.82,24.19-3.91,10.05-1,19.26,6.14,25.84,8.38,7.72,19.58,10.45,30.94,8.74,4.81-.73,5.75.31,7.67,4.42,3.66,7.84,3.24,17.37,11.91,23.29,20.89,14.26,43.89,9.15,66.34,8.37s43.73-10.29,67-5.26c15.91,3.45,30.79,8.16,43.81,17.7,3.92,2.87,4.25-.21,4.38-1.76.47-5.6,3.73-10.17,5.1-15.26,1.83-6.78,8.11-15,2.89-20.77-11.35-12.65-24.55-23.63-37.1-35.18-1.26-1.16-2.54-3-5.13-1.45-16.73,10.07-33.9,19.12-52.81,24.69C297.75,899.8,280,905.76,261.24,907c-1.63.11-4.47,1.22-4.3-2.27.13-2.5,1.65-3.27,4.18-3.91,16.2-4.11,32.49-8,48.41-13.07,19.12-6,37-15.13,54.14-25.54-5.17-4.35-10.59-8.1-15-12.79-8.67-9.23-17.5-10.74-28.94-4.5-9.4,5.12-20.18,7.65-29.91,12.24-10.11,4.77-21.11,5.2-31.65,7.67-12.41,2.91-25.16,4.39-37.81,6.13-3.74.52-6.86-1.7-9.27-4.62,2.57-1.1,5-2.82,7.72-3.18,6.27-.86,12.54-.34,18.95-2,15.87-4.06,32.05-6.91,49.18-10.48-13.5-7-27.4-6.11-40.11-9.94-4.62-1.4-12.83.71-13.4-6.13-.49-6,5.75-2.44,8.51-2.06,12.2,1.68,24.26,4.4,36.45,6.09,8.51,1.18,16.35,7.13,25.33,4.19,7.19-2.37,14.15-5.46,21.13-8.44,3.16-1.35,1.72-3.33,0-4.8-18-15.36-37.89-28.57-54.11-46.06-3.1-3.34-6.91-6.35-11.46-4.3-9.21,4.16-19,2.13-28.39,2.84-23,1.77-46.23,3.11-69.06-2.87-3.26-.86-6.45-1.4-8.72-3.86-.61-.67,0-3.65.15-3.66,3.37-.13,7.07-.87,10.09.22,18.23,6.6,36.92.05,56.06,3.15-14.53-12.3-31.58-18.35-46.18-28.43-2.56-1.77-5.28-4.89-4.28-6.52,1.68-2.73,4.87-.53,7.36.86,5.47,3,10.76,6.68,16.59,8.7,19.28,6.65,32.75,29,57.36,21.32,2-.62,4.19-.38,6.3-.54-1.47-1.56-2.86-3.21-4.41-4.68-2.58-2.42-5.58-4.46-7.85-7.14q-24.45-28.78-48.61-57.81-11.42-13.76-22-28.21c-1.21-1.66-1.36-5.44-.27-7.1,1.38-2.11,3.73.33,4.85,1.6C191.75,682.48,205,698,218.4,713.39q20.43,23.55,41,47a12.3,12.3,0,0,0,2.81,1.84,17.78,17.78,0,0,0,.69-3.68c-.33-13.7-5.41-26.54-7.39-39.88-3.15-21.19-10.34-41.12-16.4-61.45-.73-2.48-6.86-5.39-.85-8.13,2.84-1.3,5.52.76,6.8,4.06,8.36,21.51,15.71,43.31,19.78,66.1,1.94,10.88,5.63,21.68,5.88,32.58.38,16.7,7.69,28.62,20.16,38.58,12.74,10.18,25.14,20.78,37.78,31.09,1.72,1.41,3.93,2.23,5.94,3.27,0,0,.68-.83.57-1.06-2.19-4.86.23-9.86.27-14.64.24-24-18.82-38.41-27.27-57.94-1.29-3-3-5.79-4.45-8.68a13.51,13.51,0,0,1,2.92-1.41c2.83-.62,4.9,1.06,6.21,3.12,7.2,11.33,14.22,22.77,19.95,32,0-16.13.11-34.26-.12-52.39,0-2.45-3.59-5.7.93-6.73s5,4.25,5.2,6.51c1.86,18.16,4,36.37,4.26,54.59.22,14.14,3.75,28.26.3,42.53-1.31,5.44-3.21,11.49,3.84,15.85,6.89,4.27,13,9.84,19.4,14.85,1.31,1,2.56,2.14,3.84,3.21.17-1.77.38-3.54.48-5.32,1.16-21.85,2.68-43.7,0-65.54-1.17-9.54-2.75-19-3.84-28.58-.22-1.88-3-4.79.74-5.9,2.83-.85,4.27,1.49,5.3,3.87,5.4,12.53,5.41,26,6.6,39.21,1.51,16.8,2.15,33.54,0,50.5-.87,7-6,15.47.07,21.86C390,875.33,401.29,885,412.14,895.1,413.31,896.18,415.78,898.69,416.17,896.82ZM360.31,332.76c.78-.37,1.91-1.79,1.74-2.1-2.87-5.16-5.54,1.21-9.12.17-17.84-5.2-36.47-7.74-51.94-19.64-8-6.18-17.16-.15-25.8-.08-15.93.14-31.36,3.34-44.66,12.2-5.68,3.77-14.42,7.72-11.29,17.5,1.49,4.69,5.34,8.81,10.2,10,18.37,4.38,36.86,8.52,48.94,5.29,29.42-2.64,50.62-8.69,70.85-18.39C352.87,335.93,356.66,334.49,360.31,332.76Zm3.3,6.76c-4.22,1.86-5.33,2.22-6.32,2.8-14.49,8.48-30.45,12.57-46.42,17.31-10.52,3.13-20.88,1.88-31,4-10.82,2.3-21.48,1.76-32.23.33-5.28-.71-12-4.23-15.48-2.13-10.55,6.45-22.71,11.11-30.55,21.32-4.39,5.72-7.88,11.84-4.25,19.85,3.38,7.46,10.12,9,16.5,9.68,19.47,2,37.61-3.49,55.27-11.31a321.33,321.33,0,0,0,59.34-34.21C339.58,359.08,350.87,351.27,363.61,339.52Zm-30.8,65c11.32-15.89,20.52-32.85,28.81-51.75-9.9,7.45-18.86,14.2-27.84,20.93-14.17,10.61-29.49,19.31-44.88,28-7.58,4.3-17.48,5.38-22.61,13.34a59.85,59.85,0,0,0-7,15.95c-2.4,8.48-4.79,18.31,4.49,23.73,13.06,7.62,21.59-4.85,30.52-10.39C310.15,434.53,321.92,419.82,332.81,404.55Zm13.22,667c4.58-8.78,12.48-17.42-1-25.4-4.71-2.79-9.43-5.59-14.16-8.35-13.06-7.64-24.87-2.78-28,11.29-.33,1.5-2.19,3-3.72,3.78-1,.49-3.49.06-4-.74-7.19-12.3-19-19.41-30-27.57-11.6-8.64-24.22-10.82-37.06-4.49-12.42,6.12-19,16.59-19.54,31.12-.11,3.25,9.31,8.56-.73,10-4.51.63-9.87-1.27-14.18-3.38-13.67-6.68-25.71-16.17-41.32-19.56-11.69-2.54-37,2.39-46.1,10.38-10,8.82-14,20.3-17,32.26-2,7.84-3.8,16.66,6.39,21.68,2.52,1.24,4.67,4.38,3.13,7.46-1.26,2.52-4.3,2.7-7.19,3.18-10.32,1.73-20,4.1-27.63,10.82v79.74c8.9,12,22,20.4,38.79,17.54,4.69-.81,9.15,2.69,8.12,8.08-3.23,16.77,6.69,26.19,18.87,33.65,12.38,7.59,26.31,8.67,40.6,6.27,20.12-3.38,38-12.82,56.62-20.32,7.33-3,16.76-3,22.16-7.87,7.28-6.52,12.09-16.08,17.11-24.82,12.83-22.33,25.19-44.93,37.73-67.43.58-1,1-2.18,1.46-3.27a35.16,35.16,0,0,0-3.54.7c-9.54,2.91-19,6.06-28.62,8.74-8.58,2.39-20.67,1.45-25.25,7-9.09,10.89-26.3,14.46-28,32.44-1.3,13.58-5.64,26.9-9.13,40.21-.89,3.4-3.51,6.43-5.74,9.33-.45.58-3.55.23-3.95-.5a6.67,6.67,0,0,1-.16-4.75c4.88-14.87,10.34-29.58,10.95-45.22-15.71,15-34.67,26.14-52.76,38.42-1.15.77-3.32,0-5,0,.43-1.05.56-2.42,1.32-3.1,6-5.34,11.49-11.38,18.17-15.62,20-12.69,36.75-29.16,54.57-44.4a22.42,22.42,0,0,0,2.47-2.92c-1.52-.27-3.14-1-4.55-.72-9.44,1.9-19.11,1.26-28.5,2.41-10.67,1.3-23.12-2-31.38,2.58-8.82,4.88-17.51,10.95-26.72,15.74-10.68,5.57-21.71,10.29-33.45,13.13-2.62.63-5-.85-5.24-3.31-.35-3.18,2.77-2.15,4.64-2.87,16.39-6.33,32.67-12.94,48.78-23.76-26.4-.12-51.09.68-75.68-2-2.2-.23-4.73,0-4.56-3.07.05-1,1.63-2.78,2.56-2.82,8.91-.34,17.81.21,26.75.07,39.55-.65,79.14.55,118.52-4.42,3.34-.42,6.52-2,9.78-3.1-1.64-4-5.81-3.45-8.91-4.64-9.83-3.78-19.51-7.66-28.51-13.43-4.95-3.18-10.21-7.45-16.83-6.56-17.85,2.42-32.33-7.77-48.22-12.66-.76-.24-.87-2.6-1.28-4a9.93,9.93,0,0,1,3-.13c11.42,3,22.82,6.06,34.22,9.1a443.05,443.05,0,0,1-44.93-34.81c-1.16-1-5.18-1.73-2.31-4.56,2-2,4.76-1.83,7.24,0,13.19,9.47,25.62,20.38,39.81,28,21.73,11.68,42.85,24.53,66.7,32.49,16,5.33,30.36,8.28,46.65,2.48,12.08-4.3,19.21-6.18,5.91-19.28-7.88-7.75-15.09-14.15-25.75-14.4-20.67-.48-38.91-7.43-55.92-18.49a12.25,12.25,0,0,1-2.18-2.49c1.39-.42,3.07-1.56,4.13-1.14,16.63,6.58,33.2,13.11,51.3,14.82,3.71.35,7.25,1.34,10.94.21-1.74-3.13-3.14-6.52-5.3-9.34-10.52-13.78-21.74-27.06-29-43-1.57-3.45,1.29-4.62,2.83-6.54a26.22,26.22,0,0,1,3.73,3.55c5.82,8.25,10.86,16.93,17.32,24.88,12.18,15,22.71,31.24,34.14,46.8,4.5,6.12,11,14.83,17,13.49,9.93-2.2,15.94-13,15.42-22.93-.62-12.17-5.28-24.11-7.6-36.26-.74-3.88-2.49-9.72,2.69-11.46,4.32-1.44,4.27,4.25,4.9,6.77,2.58,10.44,4.43,21,7,34C335.91,1092,340.77,1081.66,346,1071.56ZM56,1618.34V61.66l-48-48V1666.34Z"/><path d="M957.18,880.09c.56,8-4.62,10.78-11,10.8-8,0-9.27-6.07-9.22-12.54.06-6.67,3.71-11.09,10.07-11.2C955.23,867,956.46,873.7,957.18,880.09Z"/><path d="M955.26,250.58c0,5.52-1,12-8.37,11.23-7.15-.73-13.47-4.22-12.78-13.23.48-6.22,3.66-10,8.41-9.73C952.22,239,955.19,243.85,955.26,250.58Z"/><path d="M934.65,689c5.78-.08,9.43,3.51,9.25,9.18-.2,6.12-.15,13.34-9.79,12.89-8.13.64-8.91-5.81-8.9-11.06C925.21,694.56,927.76,689.13,934.65,689Z"/><path d="M929.71,786.76c7.37.15,11.41,3,11.25,10.2-.2,9-4.37,15.14-13.8,16.14-11.65,1.77-9.5-9.21-9.35-13C918,794.61,920,786.57,929.71,786.76Z"/><path d="M927.69,136.23c4.38.9,12.85.88,12,9.29-.51,5.06,1.07,13-9.16,11.2-6.85.11-10.11-3-10-10.61C920.58,140.43,923.81,135.44,927.69,136.23Z"/><path d="M939.11,339.37c.12,7.33-2.54,12.51-9.5,12.4a9.61,9.61,0,0,1-9.49-9.34c-.46-8.41,5-11.21,12.46-11.5C939.44,330.67,938.61,335.83,939.11,339.37Z"/><path d="M927.41,1537.77c.41,7.82-6.11,11-11.39,10.68-6.21-.39-8.22-6.64-7.26-12.16-.56-7.37,3-9.06,9-9.5C926.38,1526.15,927.1,1531.76,927.41,1537.77Z"/><path d="M920.86,209.1c.43,6.84-1.35,13.45-11,11.86-10.12,1.4-14-4.69-13.7-13.2.21-5.62.3-13.32,9.75-12.83C915,195.4,920.31,200.45,920.86,209.1Z"/><path d="M913.05,285.1c.3,6.72-4,9.79-9.74,9.8-8.5,0-11.08-5.34-10.49-13.37.49-6.56,3.91-8.73,10.93-8.68C911,272.78,912.74,278.39,913.05,285.1Z"/><path d="M905.49,412.53c2.85,10.29-5,12-11.41,12-5,0-9.74-3.9-9.75-11.29-.61-8.29,6-10.11,12.9-10.37C903,402.66,904.22,408,905.49,412.53Z"/><path d="M900.63,100.13c.69,9.28-6.3,14.73-15.13,13.76-7.33-.81-9.5-9.11-10.07-14.89-.62-6.24,3.4-11.75,11.43-9.93C896,87.3,900.16,93.74,900.63,100.13Z"/><path d="M893.14,738.71c.61,7.48-5.39,11-11.7,11.17-7.47.15-12.31-5.91-12.15-13.13.13-6,5.25-9.18,11.44-9.84C888.89,726,893.15,729.41,893.14,738.71Z"/><path d="M877.72,1470.64c6-.48,14.39,1.71,13.27,11.6-.67,5.94.08,13.67-8.23,14.59-8,.89-17.29,1.43-15.9-11.78C867.53,1478.09,870.85,1471.18,877.72,1470.64Z"/><path d="M885.11,332.64c.22,8.52-5.53,12.05-12.38,12.11-6.13.05-9.63-5.1-9.69-11.27s.45-12.12,9.26-11.6C879.42,322.31,885,324.17,885.11,332.64Z"/><path d="M862.35,246.78c7,1.42,11.91,3.69,10.89,11.09-.28,6.3-.65,13.33-7.45,12.76-7.14-.59-16.32-3-16.37-12.5C849.38,251.48,852.47,244.8,862.35,246.78Z"/><path d="M858.31,1564c6,.33,11.56,2.32,11,7.58-.29,10-5.78,10.94-11,11.4-6.28.54-9.09-4.08-9.12-9.2S852.07,1563.65,858.31,1564Z"/><path d="M838,137c4.8.4,10.88,1,10,8.16-.82,6.47-2.14,13.5-11.64,11.91-6.51-1.09-11-3.89-9.27-11.83C824.92,135.27,832.22,136.5,838,137Z"/><path d="M828.56,1511.07c9.89-1.58,13.49,5.28,13.44,13.93-.06,9-6.85,10.73-13.93,10.57-5.47-.11-7.68-3.91-6.91-10.92C823.31,1521.07,820.38,1512.38,828.56,1511.07Z"/><path d="M815.24,279.47c8.9-.25,13.08,6.45,12.67,15.57.15,8.49-7.7,6.94-12,7.62-7.07,1.11-9.79-5.06-11-11.13C803.46,283.49,810.12,279.61,815.24,279.47Z"/><path d="M811.5,93.94c2.77,9.24-7.06,8.4-12.22,8.67-7.31.4-11.86-4.44-10.36-12.8,1.06-5.9,3.21-10.76,10.25-10.85C807.85,78.86,810.82,84.21,811.5,93.94Z"/><path d="M786,1564.21c6.54.07,10.54,4.23,10,7.49-1,9.47-1.29,16-8.33,16-6.62,0-13.18-3.51-12.35-11.32C775.86,1570.88,778.77,1564.13,786,1564.21Z"/><path d="M749.83,155.15c8,.41,12.74,5,11.14,13.47.26,5.1,1.11,10.53-5.69,11.17-9.7.91-15.64-3.9-16.16-13.55C738.76,159.57,743,154.8,749.83,155.15Z"/><path d="M704.58,106.77c8.17-.73,10.8,6.76,10,14.89-.67,6.62-4.45,13.18-13.21,11.44-8.2-1.62-13.17-6.53-12.42-15.64C689.59,109.46,694.57,106.81,704.58,106.77Z"/><path d="M674,70.35c8.58.3,12.31,6,11.86,13.71-.38,6.72-5,9.88-11.89,9-12.67,1.7-9.25-9.26-10.41-14.85C662.21,71.84,668.62,70.16,674,70.35Z"/><path d="M529.29,109.69a13.44,13.44,0,0,1-12.91,10.75c-4.17.14-11.44-1.88-12.13-8.52-1-10.16,6-15.87,14.46-16.49C526.48,94.85,527.61,103.17,529.29,109.69Z"/><path d="M440.71,1585.91c9.29-.62,12.81,5.83,12,13.45-.56,5.25-.29,14.12-7.92,14.11-6.37,0-17.17,1.64-15.32-14.61C430.24,1594.91,430.56,1586.58,440.71,1585.91Z"/><path d="M434.49,93.07c6.83-.22,8.76,5,8.34,10.18-.47,5.64-1.36,12.33-11.55,11.93-5.39.48-8.64-2.32-8.47-9.8C423,97.3,426.77,93.31,434.49,93.07Z"/><path d="M389.12,1552.62c6.42.68,9.76,4.46,9.74,10,0,11.54-9.6,12.51-17.67,13-5.59.31-6.45-5.26-6.23-10.11C374.75,1555.73,379.26,1551.59,389.12,1552.62Z"/><path d="M377.14,159.52c.11,6.73-2,11.14-9.85,10.59-7.46-.52-9.89-5.36-10.28-11.68-.41-6.73,3.27-10.47,9.91-10.47C374.38,148,377.09,152.69,377.14,159.52Z"/><path d="M366,89.25c.24,8.24-6.11,9.88-12.7,9.73-8.5-.18-9.36-6.89-10.61-12.33.42-7,1.81-12,9.44-11.71C361.29,75.32,365.78,80.82,366,89.25Z"/><path d="M329.78,193.43c5.58.38,14.85-2.32,14.44,9.28C344,210.52,340.94,215,333,215c-8.39,0-7.54-6.48-8-10.55C324.88,198.89,324.92,193.11,329.78,193.43Z"/><path d="M326.33,1488.71c9.08-.86,13,3.34,12.28,11.15-.42,4.54,1,13.07-6.75,11.47-9.09-.47-14.59-2.6-13.82-11C318.52,1495.12,318.1,1489.49,326.33,1488.71Z"/><path d="M337.13,1578.69c0,5.33-1.21,10-6.08,10.09-5.35.16-12-1.7-11.62-8.4.3-4.93,1.95-11.43,9.88-11.52S336.2,1574.75,337.13,1578.69Z"/><path d="M290.74,155.12c0,5.37-2.78,10.28-9.85,10-7.31-.39-11.36-4.67-11.76-11.56-.26-4.4-.56-10.32,6.5-10.56C284,142.73,290.71,145.7,290.74,155.12Z"/><path d="M288.65,204.6c.7,15.05-.47,16.46-11.2,16.46-7.53,1.78-8.64-3.82-8.39-9.63.31-7.11,4.57-12.11,11.5-13.14C284,197.77,288.47,200.56,288.65,204.6Z"/><path d="M283.68,1506.38c.71,6.52-4.62,6.71-9.85,6.86-7.13.21-9.76-4.14-9.6-9.68.16-5.74,3.22-10.27,10.18-8.41C284.94,1492.88,283.15,1501.51,283.68,1506.38Z"/><path d="M279,1602.13c1.13,7.37-5,8.67-10.41,8.68-6.42,0-6.86-6.33-7.48-10.86-.55-4,1.92-8,6.58-7.67C273.18,1592.64,279.49,1593.11,279,1602.13Z"/><path d="M250.73,242.43c7.87-.49,11.7,2.64,10.28,10,.48,6.11-.91,9.91-6.93,10.74-9.39,1.29-9.67-6.57-10.68-11.87A7.51,7.51,0,0,1,250.73,242.43Z"/><path d="M248.64,112.53c.38,6.54-2.67,12-10.89,11.45-6.87-.5-9.84-4.19-8.77-11.16.49-4.12-1.22-10.3,6-9.71C241,103.59,248.19,104.78,248.64,112.53Z"/><path d="M237.61,1544.23c.25,5.56-1.53,11-9.75,11-9.18,0-10.68-6.47-10.34-12.36.3-5.22,2.79-11.61,10.71-9.84C237.94,1531.35,237.38,1539.26,237.61,1544.23Z"/><path d="M237.72,193c0,6.78-3.59,12.81-11.43,12.87-7.69.07-8.29-6.57-9.29-10.14-.45-11,5.38-12.37,12.36-12.86C237.06,182.35,237.72,188.64,237.72,193Z"/><path d="M225.08,1465.92c.69,7.25-3.92,7.52-9.64,7-5.78,1.94-10.18-1.94-9.91-6.86s1.82-11.36,10.35-11.41C224.72,1454.64,224.53,1460.08,225.08,1465.92Z"/><path d="M211.07,543.58c1.27,8.84-4.68,12.95-11.62,13.1-7.14.14-11.8-6-12.11-12.91-.24-5.29-1.37-12,8.42-13.18C206.76,529.32,211.74,532.35,211.07,543.58Z"/><path d="M207.8,240.61c.58,6.65-3.37,9.13-9.5,8.38-8.9,1.27-6.79-5.25-7.39-10-.8-6.26,2.38-8.94,8.12-9C206.05,230,207.35,235.41,207.8,240.61Z"/><path d="M198.35,276.87c5-1.31,7.49,2.65,7.42,6.8-.11,6.45-2.4,12.34-10.72,12.41-5.68,0-8.49-2.18-8.21-8.34C187.17,280.55,190.11,276.63,198.35,276.87Z"/><path d="M200.54,161.09c.2,4-.13,12.2-8.13,10-7.94.91-10.77-3.94-11.18-9.22-.35-4.53.9-9.87,7.15-10.95C196.39,149.56,200.24,155.11,200.54,161.09Z"/><path d="M174.2,1495.17c8.19.19,6,8.08,7.66,12.91-1.34,6.48-5.42,11.17-11.74,10.56-6.47-.63-7.57-7.18-8-12.65C161.47,1497.51,167.73,1495,174.2,1495.17Z"/><path d="M173.14,962.22c.85,6.7-4.09,8.83-8.27,8.19-4.74-.72-14.23,2.27-12-9.13.57-6.35,2.37-12.3,10.46-12.23C172,949.12,172.33,955.8,173.14,962.22Z"/><path d="M167.88,1415c0,5.38-.61,12-9.53,10-5.75-.8-13.32.25-13.29-8.91,0-7.29,3.11-14.3,11-14.87C164.46,1400.66,167.85,1407.6,167.88,1415Z"/><path d="M153.8,83.06c7.66.23,13.32,3.52,13.39,13.73-.59,9.76-10.55,8.65-16.74,9.76-6.65,1.19-6.9-7.07-7.12-11.36C143,89,145.93,82.83,153.8,83.06Z"/><path d="M163.49,243.06c.26,4.92-1.59,7.49-6.23,6-7,.41-10.28-1.77-10.54-8.91-.23-6.34,3-8.15,7.84-7.87C160.85,232.62,163.18,237.27,163.49,243.06Z"/><path d="M156.16,496.82c6.61-.15,7.34,3.5,7,8.66-.35,6.87-2.52,11.63-10.9,11.74-6.63.08-8.88-4.24-8.79-8.85C143.57,500.89,148.23,497,156.16,496.82Z"/><path d="M149.3,1544.86c5.38.26,11.33-1,10.6,5.87s.42,16.09-10.16,16.47c-8,.28-7.55-6.87-7.75-12.09S141.08,1542.9,149.3,1544.86Z"/><path d="M134.12,150.78c6.12.67,12,1.72,11.56,8.86-.42,6.49-.91,14.89-11.84,13.32-9,1.87-10-5.9-10.38-11.17C123.09,156,125.22,149.79,134.12,150.78Z"/><path d="M121.06,286.23c5.91.65,13.9.24,13.77,9.35-.06,3.94-.06,10.67-6.07,10.29-6.23-.39-16,1.08-13.66-10.66C114.35,290.15,115,285.57,121.06,286.23Z"/><path d="M124.75,534.87c5.51-.09,8.95,2.73,8,7.34-.89,4.4-.66,11-8.35,10.9-6.15-.05-8.27-4-8.14-9C116.43,538.89,118.56,534.44,124.75,534.87Z"/><path d="M125.27,899.46c5.19.11,8.76,4.82,8.76,10.62,0,6.77-2.83,11.19-10.44,11-6.37-.16-8.74-3.78-8.88-11.09C115,904.54,118.49,899.32,125.27,899.46Z"/><path d="M119.86,1461.45c5.52,1,13,2.79,11.2,11.56,1.4,7.85-3.79,11.78-9.53,11.68-8.53-.15-9.5-8.35-10.28-14.79C110.58,1464.38,116,1460.75,119.86,1461.45Z"/><path d="M128.53,356.81c.36,5.63-2.45,10.51-9.74,8.14-6.19,1.26-8.49-1.43-7.86-7.27.72-6.76,5.18-10.2,11.22-10.55C128.42,346.76,128.31,353.42,128.53,356.81Z"/><path d="M123.06,1385.43c.59,8.21-4.86,12.8-11.76,13.23-5.72.36-8-5.43-8.67-10.32-.3-7.12,1.27-12.52,8.75-13.31S122.55,1378.43,123.06,1385.43Z"/><path d="M116.68,967.69c.12,5.24-3.3,10.17-8.81,9.5-11.06-.38-13.49-7.85-14.55-14.87-.76-5,3.07-8.41,9-8.2C111.21,954.45,116.47,959.39,116.68,967.69Z"/><path d="M112,76c.18,6.83-2.12,12.13-10,11.81C93.6,87.5,95.22,81,94.82,75.53c-.43-6,1.91-8.61,8.87-8.63C108,67.53,111.81,70,112,76Z"/><path d="M109.64,701.68c.5,8.24-7,8.28-11.83,9S92,706.09,90.54,702c2.06-4.62,2.86-10.65,9.4-10.9C106.64,690.83,109.29,695.89,109.64,701.68Z"/><path d="M98.93,1566.27c7.18.17,12.09,4.66,12.09,12.58,0,6.09-2.16,10.55-11,10.25-6.06-1-12.65-3.8-12.92-12.61C86.88,1569.11,93,1566.13,98.93,1566.27Z"/><path d="M93.91,220.71c6.91-.28,14.59.14,13.3,8.74C107,236.9,106,241.08,99,241.16c-7.89.08-10.94-5-11.31-11.24C87.52,226.48,89.07,220.9,93.91,220.71Z"/><path d="M101.73,137.53c.64,9.18-7,12.37-12.61,12.76s-10.68-5.58-10-12.42c.63-6.21,2.56-12.47,10.54-13C98.41,124.81,101.19,129.93,101.73,137.53Z"/><path d="M99.14,636.39c0,7.23-1.76,10.75-8.48,10.8-7.74,0-11.3-4.66-11.44-10.88-.16-7.4,5.26-11.94,12.49-11.11C98.43,626,97.75,633,99.14,636.39Z"/><path d="M88.23,824.86c6.3-.35,8.92,3.78,8.53,8.4-.53,6.2-2.44,12.89-11.14,11.78-6.13.47-9.12-2.21-8.65-8.14C77.52,830,80.37,825.29,88.23,824.86Z"/><path d="M92.44,575.66c.26,2.33-1,9.86-5.52,8.93-5.16-1.05-13.44-.13-14-9.14-.3-5.21.12-10.2,5.8-11.46C87.17,564.33,91.72,569,92.44,575.66Z"/><path d="M78.93,1414c8.17,0,12.67,5.59,11.86,13.19-1,9-7.93,11.4-16.44,10.22-6.31-1-5.58-6.54-5.94-11C67.82,1419.15,71.4,1414.05,78.93,1414Z"/><path d="M88.45,1327.23c1.6,12.29-5.34,13.7-11.55,13.53s-9.62-5.6-9.75-11.37c-.19-8.6,5.88-13.13,13.55-13.09C89.5,1316.34,87.63,1324.61,88.45,1327.23Z"/><path d="M84.32,327.88c.18,4.6-3.67,8.26-8.62,8-5.7-.34-10.4-3-10.89-10,.61-6.43,4.64-9.55,10.94-9.73C84,315.85,84.13,322.77,84.32,327.88Z"/></svg>