<svg id="Card" xmlns="http://www.w3.org/2000/svg" viewBox="0 0 1024 1680"><defs><style>.cls-1{fill:#f2f0ed;}.cls-2{fill:#8c1707;}.cls-3{fill:#16592d;}</style></defs><rect class="cls-1" x="14.5" y="14.5" width="995" height="1651"/><polygon class="cls-2" points="966 1619.17 966 60.83 1018 8.83 1018 1671.17 966 1619.17"/><polygon class="cls-2" points="60.83 58 8.83 6 1015.17 6 963.17 58 60.83 58"/><polygon class="cls-2" points="8.83 1674 60.83 1622 963.17 1622 1015.17 1674 8.83 1674"/><path class="cls-3" d="M370.3,1618l1.66-3c8.94-16,20.67-30.39,31-42.64,2.6-3.1,5.28-6.37,7.64-9.25,14.15-17.26,28.78-35.11,49.32-46.74,4.18-2.37,8.25-5.12,12.18-7.78,6.86-4.64,13.95-9.44,22.06-12.57,3.92-1.51,7.86-3.25,11.67-4.93,10.24-4.52,20.79-9.17,32.64-10.36a236,236,0,0,0,24.31-4.15c20.85-4.35,43.47-6.29,73.32-6.29h1.2c16.89,0,33,.78,47.82,2.23a781.51,781.51,0,0,1,81.79,12.36,10.54,10.54,0,0,0,2.21.2,26.08,26.08,0,0,0,2.87-.19,8.64,8.64,0,0,0-3.1-1.84c-4.08-1-8.28-2.12-12-3.1-13-3.39-26.32-6.9-39.63-8.73-30.81-4.24-54.33-6.12-76.27-6.12-4.17,0-8.31.07-12.33.21-9.67.34-19.52,1.53-29,2.68-8.92,1.07-18.12,2.19-27.25,2.62-15.27.73-29.7,4.4-43.16,8.09-5.64,1.54-11.34,3.39-17.95,5.52-3.35,1.08-7,2.25-11,3.53l-1.23.38-1.57-3.2,1.06-.73c38.2-26.52,70.86-47.35,106.07-62.78,23.22-10.18,47.34-19.37,70.07-27.92a76.46,76.46,0,0,1,27.34-4.65c11.27,0,22.37,1.86,33.69,3.93A353.07,353.07,0,0,1,788.32,1407c16.8,5.85,34.17,11.89,50.61,20.27,7.23,3.68,14.42,7.67,21.38,11.53l.12.07c6,3.35,12.28,6.81,18.49,10a3,3,0,0,0,1.28.22,18.86,18.86,0,0,0,2.64-.28h.08a2.94,2.94,0,0,0-.58-1,66.58,66.58,0,0,0-8.92-6.74,341.88,341.88,0,0,0-71.78-34.37c-3.55-1.2-7.06-2.53-10.46-3.82-7.78-2.95-15.82-6-24.16-7.43l-1.44-.25.58-3.89,1.45.19c51.11,6.55,101.75,24.33,163.66,57.51-3.09-4.74-7.7-7.11-11.87-9.26L914,1437c-22.25-11.5-45.26-23.39-69.78-31-26.92-8.42-56-16.66-86-19.94a6.29,6.29,0,0,1-2.11-.72c-.18-.09-.36-.18-.54-.25l-2.63-1.09,1.92-2.11a6.35,6.35,0,0,0,.42-.54,4,4,0,0,1,2.73-2.07l2.78-.28c3.5-.35,7.08-.72,10.65-.72.59,0,1.18,0,1.76,0a373.63,373.63,0,0,1,59.6,6.88c3.88.78,7.77,1.52,11.65,2.26,8.28,1.57,16.83,3.2,25.19,5.19,13.92,3.32,26.81,9,41.89,16.6s31.34,15.46,49.29,23.89l1.15.54V1618Z"/><path class="cls-3" d="M959,1428.46c-14.52-7.93-30-16.25-46-23.18l-5.75-2.52c-14.8-6.49-30.1-13.2-46.47-16-5.08-.87-10.15-2.14-15.06-3.36-6.75-1.69-13.7-3.43-20.55-4.09-4.27-.41-8.53-1.06-12.65-1.69-6.73-1-13.67-2.08-20.57-2.08-1.94,0-3.85.08-5.68.25s-3.66.25-5.68.25c-4.83,0-9.73-.47-14.91-1-3.34-.32-6.78-.64-10.4-.86l-1.32-.09-.24-3.63,1.3-.24c34.55-6.59,63.73-11,93.85-11.44,2.79,0,5.57,0,8.36,0a521.61,521.61,0,0,1,74.35,5c10.16,1.45,19.87,3.25,28.85,5.35l1.55.36v60.66Z"/><path class="cls-3" d="M543.89,1446.84a13.27,13.27,0,0,1-7.52-2.58c-2.25-1.53-4.38-3.23-6.45-4.88a69.7,69.7,0,0,0-8.85-6.35c-5.32-3-10.64-6.15-15.79-9.19-15.26-9-31-18.28-47.73-25-36.14-14.59-64.78-22.74-92.85-26.45-7.3-1-14.62-2-21.71-3.1-19.53-2.91-39.72-5.92-59.84-6.3-3.09-.06-6.19-.09-9.21-.09-35.3,0-67.59,3.87-98.73,11.84a325.06,325.06,0,0,0-56.22,19.5l-3,1.36c-14.67,6.74-29.84,13.71-43.21,23.3-2.55,1.83-5.1,3.63-7.67,5.44L62,1426.53V1269.46l1.7-1.51c7.16-6.36,14.56-12.93,23.15-17,6-2.85,11.59-6.8,17-10.62,10.27-7.26,20.87-14.76,35.49-16,7.79-.68,15.79-1,23.75-1a306.78,306.78,0,0,1,39.37,2.62c12.52,1.62,25,4.71,37.09,7.7,7.67,1.89,15.6,3.86,23.46,5.42,14.29,2.84,28,7.88,41.26,12.75,4.12,1.51,8.8,3.23,13.31,4.8,10.63,3.7,21,8.42,31.09,13,5.71,2.59,11.52,5.22,17.28,7.64A340.25,340.25,0,0,1,419.63,1306c6.2,4,12.35,7.91,18.77,11.33a500.22,500.22,0,0,0-127.83-68.89c-49-17.74-102.18-28.19-158.15-31.07l-1.24-.07-.48-3.42,1.18-.4a25.49,25.49,0,0,0,5.31-3,37.37,37.37,0,0,1,8.12-4.45c8.91-3.19,17.85-6.83,26.5-10.34,12.46-5.07,25.28-10.28,38.27-14.3,16-5,32.7-8.52,48.84-12,6.28-1.34,12.73-2.72,19.1-4.17,1.69-.39,3.46-.87,5.18-1.34,4.35-1.2,8.82-2.43,13.17-2.43a21.64,21.64,0,0,1,3.07.22c2.64.4,5.29.88,7.86,1.34a138.5,138.5,0,0,0,16,2.24A319.19,319.19,0,0,1,381,1169.6a248.24,248.24,0,0,1,52.08,15.57c6.68,2.83,13.53,5.5,20.15,8.1,9.76,3.81,19.81,7.74,29.46,12.19,6.75,3.12,13.32,6.86,19.66,10.47,6.78,3.86,13.79,7.85,21,11,8.75,3.89,16.73,9.17,24.44,14.27,5.78,3.83,11.67,7.74,17.9,11-64-49.25-131.56-79.66-206.21-92.86l-1.29-.23.16-3.62,1.31-.11c4.3-.37,8.71-.55,13.11-.55,29.83,0,58.49,8.46,83.79,15.92a582.2,582.2,0,0,1,89.11,34.64c10.9,5.28,21.67,11.22,32.08,17l.12.07c6,3.3,12.15,6.7,18.28,9.94a18.69,18.69,0,0,0,4.55,1.43c1,.23,2.07.47,3.11.8a9,9,0,0,1,1.22.54l.08,0c.38-1.17-.08-1.69-2.36-3l-.1,0-.83-.48c-3.48-2.12-6.94-4.26-10.41-6.4l-.15-.1c-15.51-9.59-31.55-19.51-48.63-26.81-6.54-2.8-13.16-5.72-19.56-8.53l-.15-.07c-10.16-4.47-20.66-9.09-31.09-13.38-6.59-2.71-13.52-5-20.22-7.23-3.05-1-6.1-2-9.13-3.07l-1.76-.61.49-1.8c.15-.56.3-1.13.44-1.69l.46-1.81,1.8.27c3.27.51,6.61,1,9.85,1.42l.18,0c7.36,1,15,2.07,22.34,3.71,17.84,3.94,36.78,8.25,55,13.65a451,451,0,0,1,51,18.06c12.23,5.29,24.22,11.55,35.82,17.6,2.82,1.47,5.69,3,8.58,4.46a236,236,0,0,0-58.5-33c-14.46-5.55-30.86-11.84-47.26-17.43l-3.91-1.34-.48-.16c-9.83-3.4-20-6.91-30.13-8.13-7.65-.93-15.27-2.3-22.63-3.63-3.67-.65-7.42-1.33-11.12-1.94a3.87,3.87,0,0,1-2.47-2,4.72,4.72,0,0,0-.35-.5l-1.8-2.07,2.52-1.08a2.83,2.83,0,0,0,.48-.26,4.46,4.46,0,0,1,2.2-.77,2.42,2.42,0,0,1,1,.21,25.29,25.29,0,0,0,10.54,2c2.67,0,5.44-.26,8.13-.51s5.7-.52,8.58-.52a36.46,36.46,0,0,1,5.72.41,172,172,0,0,0,22.22,1.54c6.3.16,12.8.33,19.16,1.08,10.83,1.28,21.69,3.4,32.2,5.45,4,.78,8,1.56,12.06,2.3,4.29.79,8.7,1.49,13,2.17H606c10.25,1.63,20.85,3.31,30.94,6.33l7.55,2.26c25.28,7.55,51.41,15.35,75.85,26,22.22,9.73,43.55,19.9,60.36,37.19a5.07,5.07,0,0,0,3.56,1.74,3.91,3.91,0,0,0,2.7-1.14.86.86,0,0,0,.26-.32c0-.39-1.17-1.46-1.7-2a16.7,16.7,0,0,1-1.26-1.28c-10.25-11.83-24.05-19.36-37.39-26.64-1.61-.88-3.22-1.75-4.82-2.64-21.4-11.79-44.88-19.9-67.59-27.73l-8.85-3.06c-27.19-9.47-55.71-14.58-83.28-19.52l-6.89-1.23c-15.94-2.87-29.41-4.91-43.36-5.59-6.32-.31-12.72-.75-18.9-1.18-11.26-.78-22.85-1.58-34.27-1.58-4.14,0-8,.1-11.76.31l-.33,0c-2.15.12-4.37.24-6.64.24-5.23,0-9.07-.72-12.08-2.27-8.31-4.3-16.38-9.28-24.19-14.09-5.77-3.56-11.73-7.24-17.74-10.6-14.89-8.35-34.73-18.89-56.15-26.32l-8.85-3.09c-18.16-6.35-36.9-12.91-55.67-18-9.5-2.59-19.45-4.28-29.08-5.92-8.14-1.38-16.55-2.81-24.74-4.79a353,353,0,0,0-64.76-9c-11.53-.61-21.92-1.12-32.5-1.12-20.87,0-37.63,2.11-52.75,6.64-3.08.93-6.21,1.82-9.23,2.68-2.61.74-5.23,1.48-7.83,2.25l-2.57.76V913.17l1-.58c3.64-2.08,6.47-3.63,9.17-5,8.47-4.36,18-6.08,27.22-7.74,2.61-.47,5.26-1,7.84-1.48a245.19,245.19,0,0,1,49.67-4.78c2.89,0,5.84.05,8.78.13,15.12.43,30.37,3,45.11,5.46,3.87.65,8.25,1.39,12.5,2.05,10.18,1.6,20.69,3.25,30.48,6.82,6.11,2.24,12.37,4.37,18.43,6.42,11.09,3.76,22.56,7.65,33.6,12.41,21,9,41.06,20.07,57.95,29.65,9.32,5.3,18,12,26.34,18.49,2.53,2,5.4,4.19,8.22,6.31l4.83,3.61c12.53,9.33,25.45,19,35.56,31.63a10,10,0,0,0,3.1,2.31c-.69-.84-1.4-1.68-2.12-2.48-1.61-1.78-3.19-3.62-4.73-5.4a141.56,141.56,0,0,0-12.3-13.1c-3.76-3.36-7.5-6.82-11.12-10.17C400,977.05,388.12,966,375,957.45a417,417,0,0,0-71.29-37.12c-22-9-42-16.78-63.1-21.12L234.58,898c-18.47-3.84-37.56-7.82-57.09-7.82-1.06,0-2.12,0-3.19,0s-2.17,0-3.26,0c-6,0-12.11-.35-18-.69s-12.07-.69-18.07-.69c-1.56,0-3.09,0-4.54.07a24.74,24.74,0,0,0-5.36,1,26.11,26.11,0,0,1-6.76,1.19,12,12,0,0,1-4.88-1l-4-1.73,3.93-1.9a387.14,387.14,0,0,1,59.25-22.91c4.08-1.2,8.24-2.5,12.27-3.75,13.77-4.31,28-8.76,42.41-10.13,7.63-.73,15.73-1.1,24.07-1.1a369.66,369.66,0,0,1,42.24,2.63c15.8,1.81,31.6,5.32,46.89,8.71,6,1.34,12.9,2.86,19.49,4.2a404.92,404.92,0,0,1,70.8,21.56C457.63,896.46,481,914,503.52,930.89l4,3c6.42,4.8,13,9.6,19.4,14.24,21.13,15.36,43,31.22,62.19,50.12,14.5,14.23,28.52,30,45.46,51.19,11.61,14.51,22.2,31.89,32.38,53.16.27.47,2.16,1.09,3.07,1.39l.25.08a2.52,2.52,0,0,0,.15-.27c-1.88-3.55-3.76-7.18-5.58-10.7-5.39-10.45-11-21.23-17.34-31.21-15.57-24.41-31.58-44.69-49-62C576.79,978.21,552.74,960.14,528,942q-9.84-7.18-19.66-14.39l-14.56-10.67,1.73-3.18,1.22.47c12.08,4.62,26.1,10.43,38.54,18.49,5.56,3.61,11.23,7.19,16.72,10.66,19.29,12.17,39.22,24.75,56.84,40.07,2.45,2.13,4.9,4.24,7.36,6.36l.42.36c11.55,9.94,23.48,20.22,34.2,31.37,10.1,10.52,19.11,22.31,27.83,33.7l.09.11,5.07,6.62c6.11,7.91,12.15,16.07,18,24l.09.12c5.5,7.45,11.2,15.15,16.94,22.61,3,3.94,4.77,4.77,5.71,4.77a1.08,1.08,0,0,0,.36,0,18.48,18.48,0,0,0-1.79-2.22,19.58,19.58,0,0,1-1.79-2.22q-2.68-4.08-5.36-8.2l-.27-.41c-8.1-12.44-16.49-25.31-25.46-37.42-13.77-18.59-25.48-33.1-36.86-45.66-8.08-8.91-17.31-17.12-26.23-25.06l-.16-.14c-2.85-2.53-5.7-5.07-8.51-7.63-4.88-4.43-10.44-9-17-13.86-6.4-4.79-13-9.51-19.43-14.07l-.49-.35-7.7-5.49-.94-.68,1.19-3.07,1.15.13c.46.06,4.49.55,6.41,1.69q4,2.31,7.94,4.58c8.51,4.9,17.31,10,25.57,15.58,4.65,3.15,9.43,6.22,14.06,9.18,10.09,6.46,20.5,13.12,30,21,6.33,5.28,13.13,10.27,19.7,15.09,7.93,5.81,16.1,11.8,23.57,18.4,20.1,17.76,39.61,36.76,58.48,55.13l1.8,1.76c9.7,9.44,19.87,20.13,32,33.64,6.44,7.18,12.76,14.65,18.86,21.89l.13.14c4.14,4.91,8.43,10,12.71,14.91a31.74,31.74,0,0,0,4.73,4.14,16.17,16.17,0,0,0-3.83-4.57,17.05,17.05,0,0,1-3.26-4.58,24.11,24.11,0,0,0-1.73-2.79c-2.78-3.56-5.58-7.21-8.29-10.74l-.27-.36c-11-14.38-22.38-29.25-35.74-42.05-9.14-8.75-18-18-26.52-27l-.17-.19c-5.14-5.41-10.45-11-15.77-16.41-13.33-13.56-28.34-25.72-42.86-37.48-5.78-4.68-12.34-10-18.51-15.19-12.84-10.83-27-20.08-40.7-29l-.17-.11q-3.39-2.21-6.75-4.42A820.81,820.81,0,0,0,529,913.88c-25.19-12-52.4-23.61-83.18-35.44-29-11.14-58.6-18.06-83.7-23.36-4.27-.9-8.59-1.88-12.77-2.83l-.14,0c-12.16-2.76-24.73-5.6-37.19-6.84q-2.32-.23-4.65-.48a224,224,0,0,0-22.83-1.57,85.54,85.54,0,0,0-14.35,1.12l-5.56.95,3.72-4.24a9.09,9.09,0,0,1,5.13-3.12c3.6-.69,7.24-1.48,10.76-2.24,8.61-1.87,17.52-3.8,26.45-4.48,9.86-.76,19.87-1.93,29.55-3.06,13.46-1.57,27.32-3.19,41.13-3.75,7.11-.28,14.37-1,21.39-1.64,9.42-.9,19.13-1.82,28.78-1.82h.8c2.3,0,4.61.05,6.91.1,2.62.05,5.3.1,7.92.1,4.15,0,7.54-.13,10.67-.4,6.36-.55,12.81-.63,18.82-.63l8.2,0c2.7,0,6.26,0,9.81-.13q1,0,2.1,0a167.56,167.56,0,0,1,18.4,1.42c3,.35,6.18.7,9.16,1l12.24,1c23,1.94,46.83,3.94,70.21,7.22,3.17.45,6.33.87,9.5,1.3l.38,0c28.81,3.88,56,7.55,81.67,23l5.19,3.1c20,12,40.69,24.3,56.14,42.47,16.9,19.88,34.38,40.43,49.39,62.76,13.24,19.69,24.72,41.36,35.09,66.24l3.23,7.81c5.39,13,10.92,26.39,17.14,39.44-2.86-11-7-21.75-11.09-32.19-2.16-5.53-4.36-11.2-6.36-16.85a326.3,326.3,0,0,0-28.92-60.29c-6-10-13.09-19.48-19.92-28.67-6.27-8.44-12.74-17.14-18.43-26.22l-.71-1.13L782,909.2l.95.94c27,26.8,58,58.41,83.29,94.43,16.72,23.78,28.32,50.36,39.55,76.07,2.86,6.56,5.82,13.34,8.83,20a5.26,5.26,0,0,0,2.23,2.34c-1.63-4-3.34-7.94-5-11.81-3.67-8.59-7.43-17.38-10.58-26.26-7.06-19.92-17.14-40.21-30.8-62s-30.61-43.13-52.09-65.47l-5-5.16c-15.14-15.82-30.8-32.17-48.46-46a212.52,212.52,0,0,0-19.44-13c-7-4.33-14.27-8.8-22.24-14.66l-1.08-.79,1.82-3.19,1.23.53c4,1.76,7.55,3.3,10.7,4.7,5.87,2.6,10.46,4.63,15.14,6.45,32.44,12.53,58,34.24,83.43,57.27,17.25,15.61,33.06,33.3,48.36,50.4l-1,1.09,1.12-1c5.13,5.73,10.43,11.66,15.7,17.41,13.66,14.91,25.65,32.59,36.64,54,1.49,2.91,3.05,5.82,4.56,8.64,5,9.39,10.22,19.09,13.36,29.71.32,1.1,2,2.29,3.55,3.37v-1.23H962v277.86l-2.53-.7c-24.48-6.79-49.76-8.8-69-9.79-13.27-.68-24.34-1-34.85-1-25.66,0-48,2-68.24,6.24-4.52.94-9,1.85-13.56,2.77l-.45.09c-24.51,5-49.84,10.09-74.11,18.6-8.21,2.88-16.66,5.55-24.83,8.14-12.5,4-25.41,8-37.73,12.94a636.26,636.26,0,0,0-76.72,36.46,32.64,32.64,0,0,0-4.62,3.46C552.13,1443.81,548.52,1446.84,543.89,1446.84Z"/><path class="cls-3" d="M956.76,1090.06v-2a1.8,1.8,0,0,0,0-.48c-5.68-7.17-8.55-15.56-11.33-23.69-2-5.73-4-11.65-7-17-1.92-3.46-3.81-6.94-5.7-10.41-7.89-14.54-16-29.54-26.8-42.5-10.18-12.28-22.08-26.51-34.39-40l-3.42-3.77c-13.32-14.7-27.1-29.89-43.22-41.92-3.65-2.72-7.12-5.74-10.47-8.65-6.06-5.28-12.34-10.74-19.72-14.4L788.28,882l7.13-.6c.4,0,.79,0,1.16,0a11.85,11.85,0,0,1,4.72.95c17.09,7.23,34.77,15.39,52.51,24.26a718.45,718.45,0,0,1,99,60.19c2.69,1.92,5.47,4.06,8.5,6.54l.74.6v116.17Z"/><path class="cls-3" d="M62,1618V1439.91l1.41-.44c17.45-5.44,33.7-8.08,49.67-8.08a144.1,144.1,0,0,1,19,1.27c22.91,3.07,45.08,10.89,67.78,23.91,11.82,6.79,23.15,14.82,34.1,22.58,4.77,3.39,10.12,7.18,15.33,10.72l-.57-.71a43.51,43.51,0,0,0-6.07-6.59c-20.91-17.12-41.59-30.36-63.2-40.48-23.64-11-47.3-13.89-67.32-15.21-1.51-.1-3.06-.16-4.61-.16-12.22,0-24,3.06-37.66,6.6l-5.38,1.39-2.5.63v-5l.87-.6c2.75-1.88,5.35-3.72,7.64-5.34,7.24-5.13,13.5-9.56,20.52-12.86,19.22-9,38.59-17,57.58-23.74l3.14-1.11c14-5,28.47-10.14,43.56-10.14a60.56,60.56,0,0,1,18.41,2.78c29.08,9.15,52.62,22.89,72,42,15.54,15.37,28.78,32.78,41.6,49.62,3.3,4.34,7,9.25,10.67,13.92.34.44.67.94,1,1.41a8.24,8.24,0,0,0,1.62,2l.11-.06c.55-.33.61-.58.63-.69.16-.71-.41-2-1.68-3.83l-4.27-6.24c-10.7-15.63-21.76-31.77-35-46.18-14.48-15.8-31.62-29.56-52.4-42.06l-6.6-4,7.7.25c13.51.45,24.83,6.47,35.78,12.29l1.34.7c21.66,11.49,41.39,27.8,60.33,49.87,7.46,8.7,15.17,17.36,22.63,25.73l.16.18c4.59,5.15,9.33,10.48,14,15.75a3.15,3.15,0,0,0,1.22.92,7.25,7.25,0,0,0-.57-.92l-1.06-1.43c-12.07-16.15-24.53-32.83-38.81-47.78a281.16,281.16,0,0,0-45.28-38.54c-4.89-3.34-10.37-5.78-15.67-8.13a118.11,118.11,0,0,1-13.79-6.88l-1.1-.68,1.38-3.28,1.24.31a247.36,247.36,0,0,1,51.73,19.48,241.52,241.52,0,0,1,46.81,30.73c13.24,11.14,26.31,22.92,38.94,34.31,6.49,5.85,13.18,11.88,19.83,17.77-1.42-2.07-2.89-4.15-4.45-6.09-5.73-7.11-12.69-13.3-19.42-19.28-4-3.58-8.18-7.27-12.07-11.15-18.9-18.87-41.85-35.44-70.17-50.67-20-10.75-41.82-17.91-66.7-21.86-1.67-.26-3.77-1.53-4.36-3.21a3.36,3.36,0,0,1,.22-3.22,3.86,3.86,0,0,1,3.34-1.34h.61l7-.07c3.62,0,7.25-.08,10.87-.08s6.85,0,9.82.13,6.07.15,9.11.21c10.39.21,21.14.43,31.6,1.84,19.19,2.58,38.5,6.57,55.1,10.1,2.83.61,5.67,1.2,8.52,1.79,14.25,3,29,6,42.84,10.93,35.83,12.73,68.1,31.43,103.57,52.78,1.5.9,2.92,1.75,3,3.45s-1.18,2.62-2.26,3.37-2.33,1.66-3.48,2.51c-2.07,1.52-4.14,3-6.32,4.4a603.93,603.93,0,0,0-82,61.15c-22.37,20-43,44.41-64.83,76.76-.88,1.29-1.77,2.59-2.68,3.88-3.23,4.65-6.57,9.46-8.91,14.6l-.54,1.17Z"/><path class="cls-3" d="M62,1071.12l2.08.08a383.68,383.68,0,0,1,73,9.64,382.42,382.42,0,0,1,53.57,16.55c5.31,2.11,10.6,4.48,15.72,6.78,10.44,4.68,21.22,9.52,32.55,12.2a3.28,3.28,0,0,0,.76.08H240a1.29,1.29,0,0,0-.39-.39q-3.91-2.08-7.81-4.21l-.14-.07c-8.24-4.48-16.77-9.11-25.48-12.79-14.37-6.06-30-11.85-46.5-17.22-25.28-8.22-48.08-12.47-69.7-13a150.07,150.07,0,0,1-16.92-1.71c-2.5-.36-5.08-.72-7.63-1l-1.28-.15-.12-3.58,1.27-.23a479.12,479.12,0,0,1,85.89-7.85c91.09,0,183.44,26.57,282.33,81.22l3.41,1.89-3.52,1.67c-8.8,4.18-17,4.43-24.95,4.68a93.52,93.52,0,0,0-10.77.75c-16.62,2.45-33.62,4-50.06,5.52-10.24.94-20.79,1.9-31.15,3.08-5.09.57-10.24,1.68-15.22,2.75-4.71,1-9.58,2.07-14.48,2.68a30.68,30.68,0,0,0-8.06,2.72c-3,1.33-5.87,2.58-8.6,2.58a8.7,8.7,0,0,1-.89,0,34.61,34.61,0,0,0-3.68-.2c-7.2,0-13.93,2.24-20.45,4.41-2.12.71-4.3,1.44-6.48,2.08-21.68,6.37-43.2,14.82-63.39,22.94-15.53,6.23-30.25,13.6-42.6,20-22.39,11.57-43.4,26-62.76,39.91-1.58,1.14-3.15,2.3-4.7,3.46l-3.2,2.4Z"/><polygon class="cls-2" points="6 8.83 58 60.83 58 1619.17 6 1671.17 6 8.83"/><path d="M1024,8V1672a8,8,0,0,1-8,8H8a8,8,0,0,1-8-8V8A8,8,0,0,1,8,0H1016A8,8,0,0,1,1024,8Zm-8,1658.34V13.66l-48,48V1618.34ZM962.34,56l48-48H13.66l48,48H962.34ZM13.66,1672h996.68l-48-48H61.66ZM960,1616V1434.85q-24.81-11.65-49.34-23.91c-13.37-6.71-26.89-13-41.45-16.44-12.16-2.9-24.51-5-36.77-7.44a369.21,369.21,0,0,0-59.28-6.84c-4.95-.18-9.95.49-14.91,1-.68.07-1.26,1.29-1.88,2a8.42,8.42,0,0,0,2.1.83c29.59,3.24,58,11.16,86.37,20,26.4,8.25,50.56,21.11,74.86,33.64,5.68,2.93,13,6.38,15.87,15.94-53.87-29.32-108.35-52.44-168.21-60.12,12.19,2.08,23.32,7.4,34.92,11.33a346,346,0,0,1,72.2,34.56,69.53,69.53,0,0,1,9.18,6.94c1.08,1,1.37,2.78,2,4.21-2.6.11-5.7,1.19-7.69.15-13.44-7-26.48-14.76-40-21.63-16.15-8.23-33.23-14.2-50.36-20.16a352.6,352.6,0,0,0-52.39-14.09c-20.08-3.68-40.22-6.8-60,.62-23.5,8.84-47,17.81-70,27.88-36.49,16-69.77,37.63-105.73,62.59,12.21-3.84,20.55-6.74,29-9.07,14.29-3.92,28.55-7.44,43.6-8.16,18.81-.89,37.5-4.64,56.31-5.3,29.77-1,59.49,1.88,88.94,5.93,17.5,2.41,34.64,7.56,51.84,11.87,2.77.7,5,3.47,7.52,5.28-3.47.19-7.1,1.13-10.4.45a773.81,773.81,0,0,0-81.57-12.33c-15.9-1.55-32-2.19-47.63-2.22-24.64,0-49.58,1.13-74.11,6.25a240,240,0,0,1-24.52,4.18c-15.94,1.6-29.37,9.6-43.79,15.17-12.54,4.84-22.52,13.73-34,20.22-23.83,13.49-39.44,35.32-56.42,55.54-11.21,13.34-22.19,27-30.74,42.33Zm0-189.29V1371c-9.51-2.22-19.11-4-28.68-5.32a534.85,534.85,0,0,0-82.4-4.88c-31,.4-61.33,5.27-93.5,11.4,11.46.7,21.19,2.45,30.69,1.58,13.44-1.24,26.22,2.27,39.27,3.52,12,1.16,23.76,5.42,35.76,7.47,18.7,3.21,35.49,11.2,52.68,18.66C929.7,1410.33,944.88,1418.45,960,1426.71Zm0-65.42V974.84c-2.73-2.23-5.52-4.4-8.41-6.47a721.56,721.56,0,0,0-98.68-60c-17.25-8.62-34.67-16.71-52.41-24.21a10,10,0,0,0-4.92-.75c11.72,5.81,20.26,15.61,30.5,23.24,17.63,13.16,32.18,29.73,46.92,45.94,11.85,13,23.2,26.55,34.45,40.11,13.44,16.19,22.53,34.94,32.71,53.22,7.33,13.18,8.71,28.61,18.18,40.5a2.62,2.62,0,0,1,.42,1.66c0,1-.2,2.1-.17,3-2.52-2.18-6.51-3.93-7.3-6.62-4-13.61-11.44-25.6-17.78-38-9.87-19.27-21.63-37.56-36.34-53.61-21-22.92-41-47-64-67.77-24.84-22.47-50.7-44.48-82.81-56.89C743.09,865.39,736,862,724.46,857c16,11.76,29.75,18.31,41.73,27.67,19.66,15.36,36.45,33.44,53.62,51.31,19.56,20.35,37.51,42.07,52.35,65.8,12.26,19.59,23.15,40.33,31,62.42,4.65,13.13,10.55,25.83,15.84,38.74a6.35,6.35,0,0,1,.28,2.72c0,.12-1.45.5-1.76.22-1.63-1.4-3.58-1.91-4.73-4.46-14.74-32.57-27.34-66.07-48.2-95.74-24.25-34.49-53.23-64.57-83.06-94.16,11.86,18.94,26.78,35.73,38.36,54.92a330.1,330.1,0,0,1,29.1,60.66c7.42,21,17.44,41.33,20.39,63.79-10.41-19.67-18.56-40.17-27-60.57a378.81,378.81,0,0,0-34.9-65.89c-14.88-22.14-32.09-42.4-49.25-62.58-16.55-19.46-38.94-32-60.84-45.16-28.28-17-59.44-19.63-90.8-24-27.4-3.84-54.84-5.88-82.34-8.24-9.68-.83-20.25-2.63-29.43-2.34-12.16.38-24.5-.33-36.72.73-8.5.74-17.12.25-25.68.21-17.07-.09-34,2.78-50.88,3.46-23.72,1-47,5-70.61,6.8-12.43,1-24.68,4.33-37,6.7a7.08,7.08,0,0,0-4,2.47c14.29-2.43,28.47-.47,42.37.91,16.93,1.68,33.59,6.2,50.31,9.73,28.5,6,56.67,13,84,23.45,28.23,10.85,56,22.46,83.32,35.51a816.92,816.92,0,0,1,97.76,55.48c16.16,10.64,32.73,21,47.81,33.71,20.66,17.42,42.5,33.45,61.51,52.8,14.22,14.46,27.77,29.59,42.41,43.61,16.88,16.16,30.24,35.11,44.5,53.37,1.75,2.26,2.71,5.25,4.76,7.12,2.66,2.44,4.92,4.85,5.21,8.56,0,.34-1.19,1.17-1.29,1.09-2.62-2.08-5.51-4-7.68-6.44-10.64-12.24-20.85-24.85-31.68-36.91-10.31-11.48-20.86-22.79-31.91-33.55-19.77-19.25-39.54-38.56-60.21-56.82-13.63-12-29.26-21.78-43.23-33.46-13.7-11.47-29.2-20.14-43.85-30.1-10.73-7.29-22.18-13.53-33.4-20.09C579,949.51,575,949,575,949c9.23,6.63,18.55,13.13,27.65,19.94,5.9,4.41,11.68,9,17.13,14,11.87,10.79,24.3,21.12,35,33,13.16,14.52,25.31,30,37,45.81,11,14.89,21,30.61,31.15,46.13,1.46,2.23,5.84,5.55,3.31,7.08-3.25,2-6.94-2.28-9.06-5-11.86-15.42-23.12-31.31-35-46.7-10.59-13.72-20.89-27.8-32.85-40.26-13-13.55-27.63-25.61-41.85-38-22.53-19.58-48.44-34.4-73.34-50.56-11.74-7.61-24.8-13.19-38.16-18.3q16.57,12.14,33.16,24.29c24.69,18.06,49.07,36.4,70.84,58.1,18.94,18.87,34.95,40,49.23,62.33,8.71,13.64,15.72,28.36,23.33,42.69.31.58-1.4,3-1.53,2.94-2.07-.81-5.09-1.38-5.85-3-8.94-18.69-19.21-36.63-32.13-52.77-14.2-17.74-28.9-34.91-45.3-51-25-24.51-53.77-43.52-81.39-64.19-24.05-18-48.12-36.65-76.32-47.93a406.47,406.47,0,0,0-70.46-21.46c-22.05-4.47-43.94-10.33-66.21-12.88-21.78-2.5-44.14-3.61-65.89-1.53-18.38,1.75-36.36,8.55-54.31,13.81A383.74,383.74,0,0,0,114.2,888.3c5.58,2.42,10.75-1.22,16.14-1.4,14.7-.48,29.48,1.6,43.92,1.27,23-.51,44.86,4.57,66.79,9.08S283.69,910,304.5,918.48a416.74,416.74,0,0,1,71.64,37.3c17.36,11.4,32.25,26.63,47.85,40.6,6.27,5.61,11.53,12.36,17.18,18.65,1.95,2.16,3.73,4.48,5.53,6.78,0,0-1.14,1.2-1.32,1.09-2.83-1.59-6.32-2.72-8.23-5.11-11.24-14.09-25.86-24.24-40-34.89-11.27-8.47-22.16-17.73-34.35-24.66C344,947.58,325,937.3,305,928.69c-17-7.33-34.66-12.46-51.93-18.79-9.58-3.5-20-5.13-30.1-6.72-19.06-3-38.18-6.95-57.36-7.49a252,252,0,0,0-58,4.61c-11.77,2.41-24,3.61-34.54,9-3.07,1.58-6.1,3.27-9.1,5v141.6c5.68-1.68,11.4-3.22,17.06-4.92,28.15-8.44,57.25-7.13,85.92-5.61a359,359,0,0,1,65.13,9.1c17.79,4.29,36.26,5.92,53.88,10.72,21.85,6,43.23,13.7,64.65,21.15,19.71,6.84,38.31,16.28,56.47,26.46,14.13,7.92,27.5,17.23,41.87,24.66,5,2.58,12,2.13,18,1.79,21.83-1.21,43.43,1.4,65.14,2.45,14.81.72,29.32,3,43.61,5.62,30.42,5.48,60.9,10.53,90.48,20.83,26.17,9.11,52.47,17.55,76.75,30.93,15.19,8.39,31,16.2,42.75,29.72,1.61,1.85,5.07,4,2.57,6.34-2.34,2.23-6,2.49-9.07-.66-16.78-17.25-38.48-27.44-59.73-36.75-26.73-11.7-55.12-19.81-83.17-28.22-14.17-4.25-29.17-5.78-43.81-8.46s-29.32-6-44.13-7.73c-13.73-1.63-27.84-.48-41.46-2.63-11.23-1.77-22.55,3.32-33.47-1.51-.48-.21-1.38.53-2.08.83.54.62,1,1.71,1.64,1.81,11.21,1.85,22.31,4.17,33.66,5.55,11.86,1.43,23.47,5.83,34.92,9.73,15.91,5.42,31.64,11.43,47.34,17.45,24.09,9.24,45.84,22.53,65.9,38.67a14.84,14.84,0,0,1,1.75,2c-.88,0-1.94.46-2.61.12-17.48-8.76-34.55-18.42-52.45-26.16a451.82,451.82,0,0,0-50.81-18c-18.05-5.35-36.48-9.55-54.88-13.62-10.61-2.35-21.49-3.46-32.25-5.13-.15.59-.3,1.18-.46,1.77,9.83,3.41,19.84,6.39,29.45,10.34,17.07,7,33.86,14.72,50.83,22,21,9,40,21.62,59.44,33.44,2.09,1.27,5.52,2.5,4,6.27-.9,2.21-2.33.68-3.63.26-2.66-.84-5.59-1.1-8-2.37-16.84-8.91-33.28-18.63-50.41-26.94A577.5,577.5,0,0,0,456,1172.74c-31.25-9.22-62.43-18.15-96.16-15.3,82.69,14.62,154.61,50.44,218.8,102.5-20.85-6.52-36.31-22.37-56.09-31.15-14-6.2-26.75-15.1-40.65-21.51-16.19-7.47-33.12-13.31-49.55-20.27a245.41,245.41,0,0,0-51.66-15.44,317.8,317.8,0,0,0-37.45-4.33c-8.23-.51-16.08-2.39-24.08-3.6-6.57-1-13.82,2-20.68,3.52-22.65,5.16-45.65,9.25-67.79,16.1-22,6.81-43,16.83-64.68,24.61-5.51,2-9.42,6.09-13.47,7.47,110.9,5.71,212.2,40.57,300.52,110.68-12.37-4.37-23.46-11.22-34.5-18.37A340.12,340.12,0,0,0,365.17,1279c-16.13-6.76-31.78-14.83-48.26-20.57-17.93-6.24-35.48-13.74-54.3-17.48-20.22-4-40.06-10.46-60.42-13.1a290,290,0,0,0-62.69-1.59c-21.76,1.89-34.35,18.17-51.79,26.47-8.73,4.16-16.18,11-23.71,17.63v152.32c2.56-1.8,5.11-3.6,7.65-5.43,14.42-10.34,30.58-17.52,46.5-24.85a330.12,330.12,0,0,1,56.56-19.62c35.66-9.12,71.8-12.51,108.48-11.81,27.57.52,54.57,5.84,81.77,9.42,32.37,4.27,63.19,14.41,93.34,26.58,22.49,9.07,42.76,22.42,63.76,34.32,5.51,3.12,10.15,7.73,15.43,11.31,9.71,6.57,15-3,21.47-6.67a635.52,635.52,0,0,1,77-36.58c20.43-8.13,41.9-13.84,62.64-21.11,28.93-10.14,58.64-15.36,88.37-21.53,34.36-7.12,69.09-7,103.6-5.28C913.89,1352.63,937.36,1355,960,1361.29Zm0-398.35V64H64V901.53q4.71-2.58,9.5-5c19.11-9.94,38.23-20.09,58.18-28.1,21-8.42,42.74-15,64.5-21.28,23.41-6.71,47.07-12.75,70.9-17.77,18.34-3.85,37-6.18,55.68-8.27,28.19-3.16,56.5-5.17,84.69-8.3,30.73-3.42,61.52-1.62,92.27-1.57a468,468,0,0,1,59.37,4c19.45,2.52,39.06,3.55,58.31,9,11.61,3.28,24.62,1.22,37,4.5,20.7,5.49,41.92,9,62.63,14.48,13.54,3.57,26.65,8.9,39.8,13.85,22.52,8.47,45.31,16.38,67.27,26.14,24,10.7,47.75,22.18,70.32,36C911.45,929.66,929,939.47,945,951.53,950,955.3,955,959.08,960,962.94Zm-426.82,489c2.4-1.67,1.39-2.27-.61-3.47-33.17-20-66.61-39.6-103.21-52.6-16.46-5.84-33.94-9-51.11-12.65-18.21-3.88-36.51-7.6-54.95-10.08-13.35-1.8-27-1.63-40.5-2-9.18-.27-18.39,0-27.58,0-1.2,0-3.13-.24-2.36,1.89a4,4,0,0,0,2.79,1.9c23.63,3.76,46.23,10.73,67.34,22.08,25.78,13.86,49.67,30.08,70.63,51,10.33,10.32,22.35,19.07,31.64,30.6,2.2,2.74,4.17,5.67,6.15,8.57.25.35-.06,1.09-.11,1.64-1.36-.29-3.1-.15-4-1-19.75-17.47-39-35.5-59.21-52.47a238,238,0,0,0-46.42-30.47,246.87,246.87,0,0,0-51.31-19.33c9.45,5.79,20.24,8.71,29.55,15.07a283.81,283.81,0,0,1,45.6,38.81c14.78,15.47,27.33,32.4,40,49.39a27.35,27.35,0,0,1,2.05,3.91c-2.2.62-4.07.59-5.8-1.39-12.22-13.92-24.71-27.62-36.77-41.68-17.1-19.93-36.72-37.19-59.75-49.4-10.92-5.79-22.65-12.31-36.25-12.76,19.72,11.86,37.23,25.38,52.84,42.42,15,16.41,27,34.57,39.41,52.63,1.7,2.46,3.41,5.6.42,7.38-2.45,1.45-3.85-2-5.31-3.87-16.79-21.59-32.45-43.91-52.1-63.35-20.44-20.21-44.34-33.09-71.15-41.52-22.46-7-43.33,1.19-63.84,8.45-19.5,6.89-38.69,14.86-57.4,23.66-9.22,4.33-17.4,10.88-27.88,18v1.43c17.58-4.49,32.46-8.94,48.28-7.89,23.51,1.55,46,5.1,68,15.4,23.26,10.89,44,24.69,63.62,40.74,3,2.42,5.3,5.63,7.75,8.61.41.49,0,1.7-.1,2.58-1-.08-2.13.19-2.81-.28-16.61-11.25-32.55-23.67-49.9-33.63-20.71-11.88-42.7-20.4-67-23.66-23.78-3.19-46-.05-67.83,6.74V1616H364.31c3.07-6.74,7.67-12.73,11.75-18.77,18.92-28,39.91-54.54,65.16-77.13a609.89,609.89,0,0,1,82.24-61.35C526.82,1456.64,529.93,1454.15,533.18,1451.89ZM397.43,1142.48c11.08-1.64,22.66.67,35.15-5.26-115.36-63.76-235.25-97.22-366.89-73.15,8.12.94,16.23,2.51,24.37,2.71,24.17.57,47.47,5.66,70.27,13.08,15.76,5.13,31.39,10.84,46.66,17.28,11.55,4.88,22.48,11.25,33.58,17.14,1.26.66,1.89,2.5,2.81,3.79-1.64.11-3.39.61-4.92.25-17.1-4-32.39-12.67-48.55-19.07a377.26,377.26,0,0,0-53.28-16.46A384.22,384.22,0,0,0,64,1073.2v181.54c1.56-1.17,3.14-2.34,4.73-3.48,20.27-14.54,40.84-28.61,63-40.07,14-7.23,28.17-14.21,42.77-20.07,20.91-8.4,42-16.65,63.57-23,9.95-2.93,19.82-7.61,31.39-6.36,4.64.5,10.79-4.45,17.09-5.25,10-1.26,19.73-4.32,29.72-5.44C343.31,1148,370.54,1146.45,397.43,1142.48ZM56,1618.34V61.66l-48-48V1666.34Z"/></svg>