<svg xmlns="http://www.w3.org/2000/svg" xmlns:xlink="http://www.w3.org/1999/xlink" viewBox="0 0 976 1600"><defs><style>.cls-1{fill:none;}.cls-2{fill:#f4f3ef;}.cls-3{clip-path:url(#clip-path);}.cls-4{fill:#50b271;}.cls-5{fill:#997664;}.cls-6{fill:#d81e1e;}.cls-7{fill:#592116;}.cls-8{fill:#992d17;}</style><clipPath id="clip-path"><path class="cls-1" d="M960,22V1578a6,6,0,0,1-6,6H22a6,6,0,0,1-6-6V22a6,6,0,0,1,6-6H954A6,6,0,0,1,960,22Z"/></clipPath></defs><g id="Paper_Backing" data-name="Paper Backing"><path class="cls-2" d="M960,22V1578a6,6,0,0,1-6,6H22a6,6,0,0,1-6-6V22a6,6,0,0,1,6-6H954A6,6,0,0,1,960,22Z"/></g><g id="Wikipedia_Cropped" data-name="Wikipedia Cropped"><g class="cls-3"><path class="cls-4" d="M290.25,1132.52C77,908.58-8,304,0-4,51.1-.32,280.87-7.72,326.58-3.08c29.7,32.65,41,90,48.93,134.68,4.58,54.7,11.33,124.85-23.27,169.07-38,1.67-85.32-29.29-117.8-49.22-14.06-3.68-46.81-53.23-53.93-33.47-1.4,41.09,1,83.33,2,125.19,7.9,157.08,31.15,313.4,65.61,466.85,18.58,76.24,34,155.55,45,230.81C292.59,1059.12,310.67,1134.36,290.25,1132.52Zm611.79-126c-16.7-11.19-14.3-37.95-20.42-57.51C869.15,904.31,860.39,856.86,848,813c-6.65-10.68-20.76-127.19-36.26-97.88C810.12,728.4,780.48,879.71,773,838.9c.57-5.67-6.16-4.57-7.31-8.86-1.58-14.54-9-28.78-7.14-42.15-5-17.23-13.4-38.06-14.84-57.28-21-72.59-42.55-145-70.94-217.54C609.37,340.92,504.34,145.45,403.08,0c-2.57-8.93,48.75-1.8,51.36-4,4-.1,4.25,6.13,8.6,5.89C482,8.73,503.11.61,523.19,7.81c14.88-3.9,31.9-2.14,47.46,3.92,37-7.8,77.24,7.12,114.36,5.61,17-1.25,30.88,11,46.48,6.18,19.72-2.94,32.74,15.32,48.51,5.56,63.11,13.86,129.31,9.55,190.82,33.59,17.71-4.17,6,51.92,9.18,58.71-1.89,10.12-48.19-7.4-58.76-7.18-49.59-10.74-99-18.56-149-27.92C660.54,65.71,741,99.56,777.84,134.71c85.57,67.71,155.49,172.14,180.22,279.46-7.92,22.89-18.17,1.5-30.38-4-28-14.32-113.87-65.14-61.11,4.36,25.93,42.7,48.56,89.25,64.8,135.69C974.71,651.25,973.41,930.64,902,1006.52Z"/><path class="cls-5" d="M394.13,1604c-37.59.41-109.24-.34-147.5,0-10.52-2.87,4.91-12.76-1.82-19.45-17.95-47.78-38-90.85-57.14-137.74-12.16-40.13-46.22-60.18-61.93-97.19-10.47-14.6-6.4-65.84-18.92-72.9-13.24.91-24.45-7.83-30.68-14.32-25.42-25.76-31.95-59.62-45.41-91C19.5,1148.45,14.14,1117.49-4,1100.62v-91c2.51-9.86-4.79-416,2.51-424.32,30.47,17,47.53,58.6,61.74,88.6,21.29,46.56,21.74,82.67,29,128.73,5.08,16-4.76,12-2.85,22.06,17.45,38.41,20,73.71,32,115.26,19.52,74.9,42.95,148.44,68.79,221.46,64.92,21.64,102.54,97.1,99.4,163.55,46.92,82,99.43,159,151.6,237.75C486.17,1627.21,453.53,1597.45,394.13,1604Z"/><path class="cls-6" d="M507.88,1287.67c-33.87-5.35-42.71-52.35-65.95-74.42a1122.65,1122.65,0,0,1-117-238.57C262.6,810.3,232.38,632.67,216.75,468c-3.45-43.78-8.74-87.22-12.36-130.8-2.43-16-1.78-24.36,18.42-18.1,76.74,1.71,153.14,3,229.71,7.95,12.54-7.22,5.88,80,9.91,91.34,3.52,87.43,11,171.81,31.2,259,31.29,208.19,119.6,401.43,237.25,574.79,16.43,25.7-40,12.34-52,17.67C621.53,1274.31,565.81,1280.71,507.88,1287.67Z"/><path class="cls-7" d="M978.14,66.57c-1.77,3.28-5.91.59-8.43-.06-17.27-5-33.42-14-52.2-13.65-4.63.08-9.31-2.1-16.53-3.86a317.42,317.42,0,0,1,63.46,70.1c1.14,2.68,6.43,5.58,2.42,8.5-3.72,2-3.26-1.69-4.51-3.23C947.25,105.71,931.52,87.62,914.1,71c-18.89-21.52-21.05-24.78-51.42-27.23C885.28,66.74,903.73,86,922,110.28c3.31,4.93,8.24,8.79,7.33,15.39-6.59-3.44-9.7-11.91-15.14-17-18.7-21-38.93-40.7-57.82-61.57-8.36-7.78-27.52-5.41-41-8.6,28.7,23.61,49.64,49.33,69.43,80,6.07,5.58.77,9.83-3.9,3.37-19.34-29.16-45.24-52.68-69.38-77.51-9.4-10.61-20.82-7.31-31-11.19-.69-.26-1.62.11-2.44.18,18.85,26.41,42.14,50.22,60,77.66,1.31,1.76.39,2.35-.77,3-1.59,1-3,1.74-4.71-.34-16.38-20.32-33.22-40.41-49.38-60.88-15.13-19.19-33-26.18-55.74-25.24,19,20.09,37.57,41.13,53.27,64.08,5.42,3.68-2.72,7.95-5.26,2.88C762.84,77.7,749.67,61.38,734.3,46.65c-7.78-7.45-14.42-17.45-24.1-21-11.34-4.2-24.4-3.76-37.34-5.41,20.32,21.59,39.85,41.41,56.9,64.49,1.17,1.58,3.74,3.25,1.49,5.33s-4.36.72-6.32-1.41c-20.24-22-40.6-44-60.84-66-6.56-6.78-26.62-3.32-37.09-5.47,11.61,10.14,58.17,50.75,53,64.63-3-2.61-6.65-4.74-8.76-7.92C658.86,55.27,642,41,625.91,26.07c-6.86-3.76-4-10.92-10.44-11.35-12.07-.48-24.14-1.27-37.65-2,13.44,14.69,60.41,55.35,57.1,72.13C615.08,66,599.17,42,578.49,23.19c-13.1-13.11-29-12.95-45.55-14.09,7.2,9.47,67.87,77.53,58.7,83.26-2.73,2-3.61-1.17-4.65-2.6-16.73-22.92-35.72-44.19-52.21-67.09C518.55.13,497.84,13.2,476,7.5c41.28,35.25,64.22,76.09,94.72,118.56,5,7.22,10.63,1.46,15.51,1.29,13-.43,25.8,3.15,39.14-2,14.63-5.61,30.55-7.94,46-11.29,29.37-7.24,59.76-6.28,89.74-8,5.41-1.38,5.09,5.24-.3,5-46.16,6.53-89,7.27-134.38,21.52,21.47.79,38.19,9.77,56.08,11.69,21.71-.15,44.81-9,67.36-9.27,17.52-1.3,34.75,2.14,52.07,4,3.39.84,8,.84,10.07,4-9.24,4.35-19.39,0-28.9.31-26.57.58-54.11-.35-79.88,6.55.55.78,1,2.1,1.68,2.25,14.64,3.05,26.28,15.7,42.82,12.87,20-3.43,39.82-2.19,59.59.21,9.19,1.11,18.38,2.48,27.56,3.75,5.89.78,11.89,1,15.05,6.9-1.78.37-3.71,1.39-5.32,1-15-3.42-30.29-2.79-45.42-4.53-10.58-1.23-21.31.63-31.84-2.39-2.19-1.14-21.89.33-16,4.75C765,181,774.5,196,791.17,195.45c28,0,55.6,4.36,83,9.79,3.08,1.43,4.37,7.65-1.12,5.75-27.23-2.73-53-9-80.64-7.89C802.14,210,810,217.33,818,224.58c8.91,8,21.88,6.67,32.94,9.54,6.76,1.75,13.64,3.19,20.57,4.3a217,217,0,0,0,30.82,2.75c1.53,0,3,2.06,4.55,3.16C898.34,250,886.71,246,877,246.1c-14.21-.28-28-6.85-42-7,21.36,47.52,98.6,34.77,95.75,49.5-3.08,7.49-21.09-2.06-28-2.05-11.69-2.41-23.39-4.69-34.49-9.34-.47-.2-1.23.28-1.85.44,14.27,33.16,50.62,36.44,79.4,49.56,1.81.76,4.47,3.53,2.82,4.84-12.54,6.13-36.65-14.28-51.2-14.41,10.1,33.09,41.29,45.1,70.21,57.43-10.4,4.13-27.66-5.36-39.33-9.76,13.62,31.34,36.8,60.5,41.76,94.59-12.62-23.31-24.93-46-37.44-69.11,3.49,14.77,4.47,29.82,7.11,44.66.33,6.36,5.53,26.63,1.12,30.13-9.71-30.14-12.47-63.39-20.27-94.48-.93-4.37-4.57-8.5-7.8-12-9.42-10.13-12.3-24.72-24-34.5,6.79,32.38,19.21,63.2,13.58,96.33-13.61-53.08-9.11-113-55.91-151.61,6.75,35,18,75,15.22,112.54C861,387.37,855,389,857,382A648.29,648.29,0,0,0,837.68,258.6c-6.94-13.45-21.76-22.67-32.73-34.21,12,41.48,21.31,82.39,23.92,125.28.06,1.11-1.91,3.28-3,3.29-2.65,0-.63-2.24-1-3.44-10.31-43-13.88-87.77-28.45-129.78-6-14.46-25.86-21.25-38.17-30.56,14.51,45.44,31.62,91,34.26,139-.21,1.14,1.1,2.91-1.2,2.76A3.5,3.5,0,0,1,789,328.6c-6.11-26.44-10.53-53.4-18.63-79.2-6.38-20.31-13-40.71-20.35-60.8-4.91-13.34-17.09-12.3-24.7-19.34-1-.88-5.68-1.54-3.72,3.34,14.21,38.69,31.12,77.13,38.68,117.87,1.57,6-3.91,4.52-5.07.44-4.15-27.61-17.6-52.19-25.56-78.57-5-16.48-10.74-33.25-19.6-47.78-6.55-8.23-26-11.56-37.45-13.87a.58.58,0,0,1,.1.12c-10.34-5.18-21.72-6.86-32.84-9.25-3.22-.69-.92,2.45-.62,2.89,14.16,24,24.43,50.65,31.67,77.29,2.09,6.4-4.23,9-5.59,1.6-9.52-23.9-19.44-47.65-28.27-71.81-5.14-14.05-16.27-14.09-27.76-14.25-1.27,0-5.36.26-2.68,4.84,11,21.25,26.15,41.94,33.89,64.18-1.31-.34-3.19-.24-3.85-1.09C620,186,607.79,163.92,597.83,140.62c-5.46-11.89-15-3.72-23.57-7,18.61,23.89,32.9,50.56,44.89,77.8,10.05,22.85,31.43,23.81,48.5,33.26,8.32,5.86,23.14,6.15,29.16,13.83-1.91.79-4.3,2.76-5.65,2.2C672,252.89,651,249.47,632.63,236.44c16.69,36.17,14.15,36.14,51.16,48.14a217,217,0,0,0,61.56,18.49c.88.13,1.54,1.71,2.3,2.62-22.55,9.76-68.74-16.6-92.14-24,7,52.39,73.39,52.5,114.38,59.29,2.44.2,3.3,2.13,3.15,4.33-.18,2.76-2.48,1.68-3.85,1.67-32.37.83-63.71-8.7-93.8-19.55-1,7.62,4.27,14.5,6.35,21.68,5.77,18.22,67.63,18.81,86.32,24.19,12.35,2.23,24.47,1.66,36.67-.4,2.88-.48,5.53.69,5.62,3.38.09,3-3.3,2.08-5.3,2.88-17.77,7.05-35.56,2-53-.6-5.85-.87-12.78,1.41-18.1-3.33-6.47,1.06-.29,8,3,9.47,19.27,13,42.29,15.52,63.79,22.09,16.19,6.12,35.41,5.1,50.82,12.47C854.14,432,768.67,405,759,402.71c18.14,25.42,47.69,32.52,71.31,50.33,17.37,11.15,35.81,20.14,54.89,27.95,3.78,2.23,9.94,3.4,10.76,8.32-31.22-.1-76.09-35.69-104.58-50.76,23.69,51.89,40.14,60.23,86,88.72,12.71,9.05,26.75,15,40.41,22,1.79,1,4.3,4.32,3.87,6.65-32.83-5.35-65.5-34.9-94.36-52.86,15.93,42,22.77,64.74,65.66,88.08,11.35,7.92,23.57,13.94,35.73,20.26.62.32.75,1.58,1.1,2.41-22.31,3.38-48.08-22.71-65.95-34.51-1.83-2.18-4.31-1.41-4.5.71,4.51,15,8.36,30.84,14,45.51,3.4,8.46,12.5,12.52,20,17.36,17.16,12,36.5,21.54,52.68,34.58-19-1.67-36-14.85-51.27-25.76-3.6-2-11.46-9.9-15.23-8.06a4.11,4.11,0,0,0-.33,3.3c4.67,8.89,3,20.07,8.06,28,4.91,7.79,13.57,13.38,21.05,19.34,14.62,11.66,29.27,23.34,45.79,32.43-27.22-2.45-43.85-23.29-64.58-38,2.62,14.66,3.62,29.27,8.32,42.57,2.26,6.39,11.18,10.79,17.68,15.24,15.05,10.29,30.61,20,45.8,30,2.38.81,5.42.33,6.25,3.72-4.9,1-8.79,1.7-12.69-1.17C936.11,768.23,914.57,758,900.15,742c2.65,66.33,11.11,53.75,49.83,102.75,1.78,4,12.08,9,7.67,13-10.88,1.43-41.19-41.91-51.65-54.16,5.84,26.45.93,51.72,20,71.8,12.49,13.13,22.24,28.77,33.08,43.26.68.91.62,2.38.9,3.59-22.92-9.82-31.47-37.62-48.6-54.82,0,12.36,1.27,25-.3,37.31C908.73,924,922.88,935.8,929,951.46c2.63,8.37,18.05,23.89,16.83,30.33-8.21,3.79-31-41.49-36.19-49.79-1.89,24.47-5.07,46.48-7.64,70.52-2.57,10.8.51,32.56-8.87,39,.58-38,5.26-75.7,7.61-113.66-9.42,22-20.47,42.95-35.43,61.61-2.24,3.22-4.27,9.51-8,7.26-3.27-2,.32-8.54,2.52-11.35a228.13,228.13,0,0,0,24.45-39.27,392.56,392.56,0,0,0,17.75-42.45c4.89-15.55-.53-31.77.58-49.18-10,26.54-32.3,88.38-55.21,99.12.08-1.73-.51-4,.35-5.11,14.81-20.13,25.29-42.66,35.46-65.28,17.34-31.84,20.5-49.46,14.69-85.36-11.76,35.77-27.41,70.49-57.49,94.56,27.15-46.52,67.88-86.49,49.54-148-6.48,22.26-36.68,95.11-56.68,102.24.29-1.7.11-3.68.94-5.05,6-9.79,11.94-19.59,17.58-29.58,13.23-25.05,27.49-51.4,34.48-78.74,2.38-11.69-2.23-24.94-4.51-37.36-.83-4.57-.17-9.84-3.74-13.4-11.52,28.26-22.27,57.16-37.63,84-9.53,14.67-15.59,35.07-31,44.28.19-2-.25-4.37.67-5.93,8-13.46,17-26.38,24.26-40.24,7.71-14.78,13.81-30.34,20.53-45.6,5.56-12.63,8.83-27,17.09-37.5,8.49-10.77,1.08-18.75.46-27.84-.32-4.68-2.79-9.21-4.73-15.15-10.35,32.9-23.43,65.3-46.51,91-1.34,1.33-2.41,2.89-4.5,1.37-2.85-2.08-.37-4.22.52-5.57,13.13-20,25.14-40.7,34.48-62.79,4.8-11.34,12.49-23.09,12.27-34.53-.27-14.37-7.31-28.61-11.35-42.63-5.95,15.68-11.73,31.15-17.76,46.52-.78,2-2.75,3.81-5.45,3.06-2.67-.53-1-2.77-.38-4,21.35-70.32,25.14-45.23-5.46-115.89.4,24.92,8.68,53.1-4.06,73-.86-1.9-2.69-3.75-2.45-5.57a167.79,167.79,0,0,0,1.22-45c-1.21-39.13-12.07-55.12-31.81-87.78,2.36,9.8,20.06,71.87,7.47,71.79-4.18-2.66-2.46-7-3.11-10.81-3.64-21-7.83-41.87-13.15-62.63-11.7-40.35-54.43-69.45-90.07-85.29,4.54,17.95,12.63,35.64,19.47,53,5.86,13.43,18.36,22,27.39,33.23,12.52,15.5,26.06,30.18,39,45.33,1.1,1.29,1.14,3.48,1.68,5.26-27.07-15.72-42.74-44.15-64.23-66.15,2.69,8.45,5.3,16.92,8.1,25.33,4.86,14.62,5.46,30.88,16.08,43.29,23.43,25.25,43.1,54.6,69.85,76.46.78.6.54,2.53.77,3.85-28-7-52.69-52.93-73.37-75.38,3,17.69,5.8,32.2,15,45.51C768.51,583.43,790,614.24,819,638.38c2.51,2.65,8.52,5.94,6.19,10-1.56,2.26-3.81,0-5.51-1.24-32.6-23.41-55.16-55.58-76.08-89.9,2,10.18,3.18,19.48,5.6,28.45,3.67,13.63,3.61,28.15,11.79,40.76,16.26,25.1,30.06,51.84,49.44,74.89,1.93,2.29,5.31,5.83,2.09,8.55-9.16,4.84-45.45-61.59-53.87-73.7,4.14,22.84,3.54,42.35,9.83,63.27,9.87,26.44,25.84,50.59,39.48,74.69-12.3,4.72-33.1-45.11-38.41-56.49.62,10.16-.51,18.1,1.94,24.71,2.72,7.34,2,14.85,2.83,21.94,2,17.79,11.21,33,14.49,50.15,2.52,13.24,10,23.94,16,35.46,1,1.95,3.29,4.41,1.11,6.17-2,1.59-3.83-1-5.14-2.53-14.16-16.38-18.78-36-23.71-56.46,0,16.06,0,29.82,0,45.49C776,851,779.34,871.51,775,877c-1.29-1.26-3.66-2.48-3.72-3.79-1.42-30.6-1.34-63.31-5.24-93.35-4.66,8.31-20.86,63.72-27.45,61.74-3.91-3.52.25-8.7,1.51-12.78C757.54,779.16,770,760.82,758.39,706c-5.11,8.61-24.77,68.91-31.9,64.48-3.51-1.81-.09-3.86.54-5.5,7.22-18.81,12.84-38.31,22.4-56,10.4-19.29,4.09-37.52,1.89-56.35-1.14-5.51.27-11.82-2.74-16.72C743,650.47,739.87,666.3,733,680.6c-7.16,13.42-11.77,35.89-25.65,43.29-.06-1.46-.62-3.14-.1-4.36,7.29-17.06,15.25-33.88,22.21-51.06,6.81-19.41,18.09-38.47,15.25-59.91-2.3-15.3-6.28-30.35-9.9-47.24-12.53,31.8-15,66.95-39.13,91.32-.24.33-2.44-.22-2.43-.32.09-2.38-.54-5.5.73-7,13.84-16.63,17.31-37.7,24.79-57.19,15-41.86,14.88-36.27,3.75-79.34-2.68,9.79-26.95,84.24-34.35,77.7-4-2.05.4-6.55,1.49-9.41,1.79-4.73,3.69-9.43,5.63-14.12,8.86-21.4,18.51-42.56,21.87-65.74,2-19.37-8.5-36.1-13.11-54.63-9.26,23.57-17.33,46.4-27.54,69.09-4.21,6.72-4.73,16.78-12.91,19.78-2.33-10.7,6-19.81,9.1-29.71,9.35-24.36,24-49.39,26.18-75.42-.84-15.89-9.7-30.09-15.21-46-4.8,41.93-21.3,76-39.57,112.21-5.18,5.86-6.74-5.12-4.12-7.72,14.63-25.64,22.83-54,32.51-81.69,9.46-25.87,7.22-41.67-4.79-67.34-8.32,29.86-15.61,56.34-27.31,84.45-4.07,9-6.6,20.58-14.94,26.59-.14-3.58-1.64-7.86-.21-10.61,4-7.75,7.63-15.68,10.91-23.72,6.2-15.17,11.26-30.75,15.88-46.35,4-13.64,11.57-27,10.62-41.74-.61-9.49-9.87-16.45-10-26.58,0-.16-1-.51-1.07-.45-7.77,16.27-9.94,35.09-16.7,51.91-5.51,15.52-12.46,30.51-18.82,45.7-2.37,3.68-3.73,14.85-9.67,12.56-2.81-1.5-2-4.77-1.18-6.74,7.33-17.61,15.64-34.86,22.35-52.72,7.25-19.3,14.59-38.81,18.77-58.88,1.21-9.89-10.6-21.24-12.53-32.57-7.41,38-20.53,73.28-42,105.08-.8,1.37-2.65,2.24-3.65.53-3.42-6.45,14.29-28.07,16.34-37.4,6.93-17.45,11.45-35.87,18.7-53.18,6.58-15.74,6.15-32.66-6.54-44.42-7.89,23.9-15.84,49.4-25.8,73.12-3.12,9.2-7,19.07-17.59,22.31,12.59-29.63,23.54-60.56,35.86-90.51,6.7-15.82-2.21-28.71-9.68-39.87-9.17,26.41-16.9,54.23-29.58,79.74-2.86,5.37-5.42,14-13,13-.36-7.95,6.17-13.89,8.8-21.07,12.47-33.16,45.37-79.85,10.67-109.71-1.11,3.19-3,6.32-3.19,9.57-1.1,15.36-9.18,28.54-13.12,43-3.4,12.54-7.52,25.26-15,36.08-1.86,6.82-8.57,1-5.51-3.64,8.29-15.83,12.27-33.5,19.68-49.65,6.78-14.75,9.27-30.4,10.83-45.88.64-6.36-6.86-13.74-11.14-20.34C550.14,109.85,541,96.53,531.06,81.6c1,45.87-2.54,89.68-15.84,133.34-2.65,9.69-9.08,4.28-6-2.8A659.64,659.64,0,0,0,524,116c2.45-21.37,4.29-43.12-11.85-61-7.94-8.8-16.14-17.36-24.91-26.78,9.46,36.72,11.23,73,9.2,110.32-1.18,7.06-5.78,37-13.51,36.83-2.36.29-1.84-1.73-2-3.13-.93-10.74,5.18-19.9,6.48-30.4q1-8,1.5-15.86A325,325,0,0,0,487,64.79c-3.77-20.16-.95-49.29-23.26-58.67-5.71-2-2.37,7.7-1.93,9.49,2.31,9.35.19,18.17-.66,27.23-4.3,26.16,1.52,56-14.74,78.59-.83,1.25-2.33,2.52-3.69.92-.91-1.07-1.81-3.24-1.32-4.25,7.73-16.28,9.38-33.68,10.82-51.15,1.85-22.29,4.28-44.56,2.22-66.95-.8-2.8-.23-9.81,4.34-6.27C469.55,4.33,482.76-2,494.65-1c28.08,2.44,56.29,2.89,84.45,4.48C649.66,9.87,720.41,14.15,790.2,27c37.14,6.32,75.13,9.52,112.06,16.35,18.14,4.77,37.79,2.94,54.76,13C961,59.75,981.17,61,978.14,66.57ZM738.62,1250c20.26,27.6-26.14,23.9-42.23,26.85-42.07,1.1-83.44,8.83-125.31,12.24-21.51,2.4-43.08,4.5-64.48,7.67-13.56,2-19.29-7.74-25.86-15.66-77.88-103.17-138.23-220.32-177.83-343.38C280,861,256.47,784.31,240.62,705.81c-16.65-71.43-21-144.67-29.3-217.37-3.74-53.72-10-107.45-10.4-161.33,1.15-6.12-3.11-17.85,3.92-18.14,47.6,2.4,95.14,5.53,142.74,7.88,1.88.1,4.45,1.38,5.78-1.31s-.4-4.26-1.79-6.23q-3.94-5.61-7.84-11.25c-14.14-19.65-25-37.79-41.57-56.32,5.3,7.29,11.9,58.86,3.45,59-2.85.1-2.43-3.2-2.71-5.5-2.69-35.34-5.58-72.54-37.85-94.57,6.19,21.49,18.35,77.81,2.75,94.2-1.69-24.87,1.56-50.13-5-74.62-3.72-15.14-4.28-32-19.75-42-5.6-3.6-10.33-8.54-15.1-12.56,9.06,28.89,13.73,58.84,18.28,89,2.25,5.07-6.94,19.8-9,12.14,1.13-29.11-6.59-57.45-12-85.65-2-31.23-31.52-40.27-51.86-57.82,3,9.52,25.72,49.25,17.31,54.62-3.2-.3-4.92-2.89-5.53-5.51-5.12-21.87-15.27-42-28.2-59.47-7.36-9.95-22.69-14-34.46-20.68-1.76-.15-1,1.61-.62,2.59,2.75,7.19,24.16,42,15.91,45.85-2.56,1-3.92-1.35-4.82-3.53-7.21-17.44-13.47-35.54-24.48-50.87-6.64-8.41-20.38-9.76-30-14.5,3.64,74.05,74.31,84.57,113,130.36-3.28,2.74-10.75-4.52-14.43-5.82-33.45-21-60.39-40.36-88.15-70.75,7.26,16.23,3,31,15.28,41.82,29.58,29.06,57.87,60.35,95.25,79.72,2.5,1.32,5.84,3.73,4.32,6.86-1,2.12-4.35,1.24-6.94,0-38.94-19.45-67.43-50.4-98.2-82.6,2,12,5.1,22,5.09,32,0,22.69,17.88,31.71,31.14,44.77s26.87,25.21,41.86,36c4.08,3,8.52,4.82,9.95,10.25-12.72,6-69.47-51.17-79.13-63.1,1.23,11.18,3.22,22.33,3.55,33.54,2.94,39,41.75,54.56,67.64,76.92,3.35,3.18,8.87,4.58,9.31,9.8-20.53-1.24-60.14-37.12-72-54.66-7.14,39.71,33.91,83,64.63,105.94,2.33.27,5,3.06,4.54,4.85-11.19,11.52-57.56-45-64.19-57.32,2.26,15.87,6,28.92,5.54,41.79-.87,22.74,15.37,34.41,27.7,48.86a257.82,257.82,0,0,0,34.4,33.71c1.75,2.4,10.57,5.55,7.56,8.8-16.32,3.28-57.06-48.15-69-64.18,6.49,18.17,1.3,33.2,6.21,47.45,12.29,35.85,47.76,50.54,71.68,75.89-5.64,15.94-64.56-47.08-71.18-56.09,4.73,17.19,1.89,32.94,6.5,46.53,11.69,38.15,48.86,57.79,74.19,82.37-2,2.79-5.41,2.21-7.73.81-26.65-14.58-44.79-37.38-63.61-60.77,1.36,11.73,3.14,23.13,3.91,34.59,3.43,28.68,42,50.19,61.77,68.17-5.9,15.6-48.11-34.1-55.46-38.88.4,13.85.92,30.07,6.57,41.93,5,9.45,18,14.88,28,21.41s20.32,12.1,30.43,18.24c3,1.84,8.53,3.38,5.27,8.28a3.53,3.53,0,0,1-.49.61c-21.93-5.58-42.43-23.54-60.92-36-.64,54,39.52,54,73.26,86.34-24.4-7.13-45.21-23.31-64.53-39.42-2-2.06-2.29.39-2,1.42,6.33,19,3.76,40.54,26.56,53.71,18.55,10.73,36.93,21.76,56.1,31.35,7.52,1.92,5.22,12.5-2,7.52a331.78,331.78,0,0,1-67.31-38.06c-6,49.59,45.77,66.42,80.44,89.43-27.55-.53-46.15-20.64-67-35.11-2.68-2-3.26,0-2.78,2.06,3.92,16.71,4.85,34.28,18.42,47.62a378,378,0,0,0,58.11,46.89c2.79,3,17.15,7.91,14.6,11.67-13.38,7.73-65.93-41.41-76.49-52.27,6.5,52.17,39.92,73,79,101.45-27.21-.47-47.75-26.15-64.36-46,8.2,43.21,24.35,58.49,57.61,83.25,5.13,5.5,21.17,16,22.29,22.21-5.55-.24-9.11-3.41-13.2-6.6-15.93-12.82-34-23.42-46.8-39.62,9.27,39,33.72,68,64.38,91.15,3.69,2.79,11.89,4.54,9,10.16-6.94,4.74-43.81-31.33-50.24-38.5,11.22,28.12,27.12,52.26,39.63,78.92.91,3.11,6.18,7,1.84,9-3.28,1.53-6.09-4.28-7.92-7.67-12.61-21.48-21.62-44.66-36-65,.28,18.58.23,37.44-5.89,54.85-.92,3.12,1.79,9.29-3.29,8.61-3.85-.52-2.08-7-1.85-10.58,1.36-21.08,5-42.08,4.28-63.23-.7-13.17-9.51-26-14.05-39-4.9,18.28-7,53-19.77,65.84-1,1-1.39,3.16-3.14,1.54a4.2,4.2,0,0,1-.67-3.82c9.37-21.35,11.07-44.55,16.59-66.88,4.76-21.58-9.41-37.7-12.93-57.24-3.62,11.73-25.21,83-35,82.55-1.28-1-2.58-4-2-5,8.16-14.06,12.94-29.51,18.5-44.64,2-5.5,4.14-11,6.57-16.3,3.53-7.75,2.53-17.44,4.77-25.93,4.22-16-7.7-28.39-8.53-46.56-9.25,32.5-17.22,59-37.75,84.81-.23.3-1.74.05-2.2-.4-2.14-2.15-2.25-4.4-.54-7.09a200.73,200.73,0,0,0,16.45-32.12c6.11-14.88,10.79-30.36,15.12-46.14,5.11-18.65-4.74-32.86-6.89-52.56-5.5,20.48-24.64,79.14-42.08,83.3-1.48-7.13,11.3-22.27,14-30.22,9.27-20.71,18.23-41.69,22.37-64.25,2.37-13.53-5.4-25-6.51-40-8.67,31.89-22.12,56-40.16,82-.94,1.47-2.16,2.52-4,.57-4.36-3.82,8.85-18.16,10.63-23.3,22.61-39.13,39.06-78.58,18.8-123.28-4.24,18.47-7.28,35.19-15.51,50.23-7.64,14.83-14.23,32.93-29.81,43.41,22.47-45.63,47.49-88.15,38.34-143,0,11.42-36.72,89.67-43.39,75.73,24.91-47,49.22-74.85,32.59-131.5-9.41,24.26-15.06,45.16-30.42,65.41C110,711.94,108.42,726,97.4,726c28.77-52.61,53.69-90.13,38.82-152.79-5.86,35.12-23.66,66.59-45.22,94.38-2.72,4-9.52,4.26-4.8-1.23,19.2-33,42.28-65.09,42.17-105.18-.63-14.29,3.17-28.93-.58-44.88-10.31,39.83-24.47,79.89-52.3,110.48-.4-13.31,10.85-23.41,16.12-34.78,4.11-8,7.84-16.25,11.23-24.59,9.18-23.17,19-46.68,20-71.91.62-10.53,5.47-21.24-.79-31.68-13.12,42.48-41,76.7-69.15,110.16-1.49,2-3.61,4.77-6.37,2.5-3-2.45.74-3.87,1.87-5.41C84.94,524.1,129,470,117.52,406.44c-16.64,28.63-28.62,61.63-51.6,87.37-6.77,6.48-9,20.5-18.3,23-1.35-2.7,0-5.61,1.89-8.1C65,484.81,81.2,461.31,93.18,435.3c16.38-36.76,26.68-40.17,18.91-82.36-.07-1.89-1.47-3.49-2.92-.57-5.57,19.28-18.66,34.8-27.4,52.46a152.79,152.79,0,0,1-27.6,39.52c-4.9,3.86-14.82,19.69-20.79,18-1.13-2,.16-3.56,1.45-5.26,11.73-15.42,26.52-28.44,35.35-46,16.54-34.16,49.72-68.62,35.66-109.12-1-5,2.71-10.4-2.22-14.73-13.87,47.28-40.68,91.32-74.95,125.73a1.87,1.87,0,0,1-1.63-.77c-2-5.58,2.31-8.68,5.1-12.06,11.43-16.33,25.44-30.88,34.92-48.53,15.23-25.75,24.08-54.34,34.39-82.23,2.43-5.83-.67-10.8-.87-16.13-.35-9.67-2.68-19.26-4.3-29.68C80.22,267.52,59,308.15,29.53,344c-.15-1.25-1.06-2.75-.53-4,15-29,34.79-55.18,46.15-86,5.66-15.46,12.51-30.51,19.23-45.56,1.93-4.32-1.27-7.19-1.58-10.84-.83-10-2.3-19.94-3.83-32.39-12.45,37.34-24.7,69.5-49.77,98.45-4.86,5.67-7.77,15.41-17,15.39,16.07-24.88,34.09-49.16,45.74-76.82,6.31-14,8.76-29.72,15.39-43.49s-4-25.06-2.44-37.7c.07-.59-.65-1.27-1-1.91-12.39,27.42-24.67,54.8-44.18,78.31-1.7,2.19-3.43,5.55-7.1,2.39-4-3.42.18-4.83,1.7-6.95,15.18-21.2,28.45-43.37,36.92-68.29,14-26.32,4.35-38.79-1.24-66.35C58.42,82.93,44.09,130,21.09,141.07c.27-2-.2-4.68.92-6,12.72-15,20.13-32.83,26.77-50.94,5.69-15.53,13.83-30.81,9.1-48.34C55,25,46.43,18,40.32,9.29,38.71,7,33.78,6.1,35.78,2.49c1.94-3.95,6.38-.61,8.1.88,30.86,18.5,67.53,20.89,102.64,21.54,2.68.13,6.2-.2,6.19,3.2,0,3-3.32,2.45-5.8,2.63-29.69,2.63-59.38-1.95-86.76-11.14,4.26,12.21,7.31,25.62,13.63,37.26,3.51,6.46,12.31.63,18.61-.26,9.84-.41,57.57-13.05,61.17-5.34C131,60.53,106.92,60.28,81.35,66c25.37,7.09,48.44,14.4,73.68,11.3,12.18-1.5,24.77,0,37.07-2.13.54-.09,1.27,1,1.91,1.51-1.83,1.46-3.47,3.81-5.51,4.23a210,210,0,0,1-57.87,3.77c-1.1-.08-2.24.42-6.42,1.28,15.15,3.77,23.93,13.49,36.54,17.58,13,4.21,25.93,7.75,39.38,9.53,11.52,1.53,23.1,2.74,34.68,3.79,4.6.42,8.49,4.27,13.65,2.31,1.49-.56,2.36,1.59,1.59,3.24-2.22,4.78-6.84,2.4-9.8,2.23-20.49-.87-40.79-5.5-61-7.6.34.61.53,1.57,1,1.78,12.62,5.43,21.63,16,33.08,23.09s24.61,10.14,37.48,12.72c12.47,2.5,25.44,2.41,38.18,3.62,1.34.13,2.57,1.37,3.86,2.1-2.83,1.45-5.67,4.16-8.49,4.14-17.68.93-34.85-3.2-51.6-6.87,7.6,11.14,20.31,14.39,30.35,21.38,19.1,13.3,40.77,20.79,62.41,28.47,1.57.56,2.57,2.72,3.84,4.14-2.19,1.64-4.4,1.51-7,.83-15.89-4.13-31.44-9.06-45.86-17.12-.84-.47-2.17-.06-3-.06,8.55,9.51,16.07,20.11,25.75,28.1,21.49,15.54,43.44,31,65.25,46.12Q379.9,279.59,395.77,289c1.68,1.11,3.9,2.87,2.34,5.5s-4.42,1.12-5.75.34c-28.73-16.7-51.11-29.84-78.05-52.13C330.2,262,340,278.94,353.58,298.86c3.53,5.4,5.07,13.42,9.89,16.34,5.69,3.45,13.92,3.32,21.1,3.62,23.31,1,46.65,2.25,69.95,1.83,14.88-.26,11,9.69,11.16,17.17,3.95,108.78,10.48,218.62,33.8,325.25,18.57,94.78,39.51,189.76,73.9,280.21C617.05,1051.12,678.36,1151,738.62,1250Zm-13.89.21C666.24,1158,609.09,1063.27,567,962c-27.8-64.63-43.53-133.39-60.7-201.43C486.06,663.47,464.68,566.2,461,466.71c-1.45-42.72-6.49-85.4-5.69-128.12.18-1.62,3.47-7.22-3-7.57-76.36-4.95-153-6.25-229.49-7.95-4.38.39-14.42-4.76-15.58-.2.82,8.94,1.38,17.9,2.22,26.83,12.21,117.88,20.26,236.44,43.13,352.88,11,56,27.54,110.65,42.2,165.73,9.09,35.86,18.53,70.77,33.74,104.7a1120.7,1120.7,0,0,0,116.71,238c13.52,19.55,28.81,38.15,40.42,58.6,6.53,12.94,19.21,16.17,32.31,13.12,63.89-8.77,128.14-14.28,192.4-19.22,6.43-.7,14.32,2.38,19.64-2.59C732.69,1258.26,726.13,1254.19,724.73,1250.21ZM695.54,194.35c-7-14.9-12-30.64-22.8-43.53-5.17-.41-4.57,3.91-3.17,5.67,22.18,34.68,33.36,74.83,48,113.05.45,1.22-.12,3.36,2.48,2.45,2.06-.72,3.76-1.82,2.94-4.25C716.47,242.4,705.4,218.66,695.54,194.35ZM463.7,1599.43c-7.21,6.88-24-29.57-28.77-34.4-14.08-20-28.39-39.88-41.45-60.53-16.15-25.53-30.69-52.07-46.76-77.65-22.6-32.49-47.87-63.63-63.78-100.26-2.83-6.41-8.8-3.67-13.06-5.3C205.64,1288.84,199,1195.7,174,1135.14c-23-63.73-42-128.73-59.5-194.16-12.09-40.71-15.12-84.47-35.8-122.2C54,771.94,17.89,729.68,4.52,677.83,3.2,676.09.85,674.7.85,672.56a4.4,4.4,0,0,1,1-2.58c.43-.59,2.24-1,2.47-.76,13.77,16.36,18.12,38.71,29.53,56.62,15.87,29.85,37.2,57.57,51.65,87.74l1.24-.13c-3-22.9-6.77-45.71-9.75-68.61-9.93-57-34.32-114.75-76.47-155.27-2.19-1.67-3.61-4.71-.53-6.34,1.72-1,3.7-.42,5.6,1.16C25.71,601.14,40.36,621.28,52,645.15,80.87,696.45,91,754.2,96.73,812.05c7.57,66.2,30.22,129.25,45.83,193.64,11.59,50.59,32.11,98,46.82,147.6.54,2.24,4.64,3.92,7.38,5.26,25.5,12.46,45.7,30.71,62.59,53.54,13.94,18.84,24.4,39,29.38,61.72,3.39,15.45,2.93,31.32,1.8,47-.6,8.39,5.49,13.23,8.91,19.18,35.81,58.57,76.64,113.91,111.34,173.24,17.37,27.55,35,54.92,52.52,82.39C464,1596.67,466.39,1597.38,463.7,1599.43ZM282.29,1309c-2.63-13-2.23-26.29-4.87-39.44-11.78-43.53-41-78.76-80.31-101,.51,17.56,10.08,32.1,12.63,49.1,29.21-22,49.63,32.8,47.11,52.83-.94,4.23-6.12,4.28-6-.63-2.42-13.47-10.86-49.38-28.2-48.54-7.81,32.25,22.72,81.21,53.53,93.18C280,1316.22,282.87,1312.58,282.29,1309Zm112.08,282.21c-25.15-47.07-49.56-94.56-78.22-139.63-.84-1.37.17-5.67-3.08-4.12-1.57.74-2.19,4.44-2.35,6.85,22.24,48.9,52.71,95.06,77.88,142.91,2.37,6.78,7.9,3.29,6.28-3.76C395,1594.06,395,1592.46,394.37,1591.23ZM260.24,33.24c.06,18.5-3.72,37.23-2.64,55.58,11.67-4.21,11.46-58.21,8.31-72.42C272.47,25,276,32,281.59,36.44,298.4,49.62,292.2,68.76,294,85.06c1.6,14.33-3.21,29.36-5,44.1-.18,1.5,1,3.18,1.6,4.77,11.91-8.65,12.14-61.21,7.37-77.21,3,4.61,3.7,6.47,5,7.69,31.35,30.18,12.38,78.78,14.57,115.67,14.46-17.63,8.26-57,9.46-80.94,6.82,17.6,20.79,28.09,24.43,47.81,4.3,28.62-2.93,56.9-1.71,84.89,7.09-2.71,4.89-9.86,6.18-15.19,6.14-20.91,2.15-40.93,3.18-62.64,41.51,65,23.33,49.48,26.71,117.93,12.51-11.39,5.43-39,7.21-56.38,13.12,19.71,20.92,41.55,37.77,58.75,1.16,1.22,1.84,3.67,4.17,2.28s.95-3.22,0-4.71c-15.77-23.6-27.68-45.65-40.83-71.89,21,18.34,40.51,42.31,65.6,48.63,2.14-3.54-3.79-7.92-7-9.88-30.29-19.48-57.82-44.5-77.74-74.45-7.05-11.45-13.18-23.76-20.63-35.7,7.66,2.6,11.74,8.77,18.41,12.83,14.12,9.76,29.8,20.13,47.68,21-3.94-9-15.79-10.43-23.56-15-16.6-7.68-30.84-19.21-45.23-30.07C334,104,326.85,81.08,310.31,60.82c18,11.43,56,41,74.19,34.4,1.29-2.39-2.15-3.37-4.14-4.27-35.87-15.65-79.92-37-101.12-71.5,22.17,5.94,44.05,15.43,67.36,17.89,6.53.83,12.69,3,18.7-1.19-10.68-8.53-25.95-6.3-38.48-10.71C305.44,17.47,280.54,15,262.46,0a2.68,2.68,0,0,0-3.94,0c-3.27,2.69-.77,6.56-.49,9.86C258.69,17.67,260.5,25.48,260.24,33.24Zm74.35,1560a15.09,15.09,0,0,1,.66-2.09c-21.05-55.35-51.83-106.37-82.38-156.58-16-46.46-10.85-83.89-45.23-125.79-2-2.75-3.8-4.9-7.47-4.34,12.27,30.57,30.55,58.31,33.08,92.69,7.88,58.55,56,101.91,74.82,157.41,6.95,15.09,13.11,30.92,21,45.5,1.46,2.74,7.27,3.77,7.1,0C336,1598,334.25,1595.22,334.59,1593.2Zm-86.06-10.13c-17.41-46.48-38.32-91.72-57.08-137.56-8.34-24.24-23.11-43.7-39.43-62.63-26.14-26.53-32.39-64-35.12-99.78-.4-5.8-2.71-10.67-10.75-10.36-50.89.16-76.25-131.2-100.81-172.39-.83-5.9-6.59-3-4.93,2.28,5.32,21.67,14.08,42.18,22.89,62.43,14,32.21,19.42,68.34,43.67,96,9.11,10.37,18.44,19.12,33.12,20.47,2.67.24,7.8-4.23,8.73,2,4.25,35.64,5.37,72.85,31.62,100.28,37.17,37.27,49.88,88.67,70.44,135.52,10.4,24.34,22,48.18,30.77,73.2.83,2.34,1.43,6.64,5,6.64C256.73,1599.34,249.61,1588.21,248.53,1583.07ZM40.31,950c17.43,34.76,29.93,72.56,45.66,108.27,12,34.83,22.21,70.24,32.84,105.54,7.13,20.42,38.25,183.11,55.68,176.34,5.86-1-.54-5.52-1.39-8.51-8-28-16.44-56-23.85-84.13-16-67.92-30.9-135.94-57.95-200.5-16.67-49-42-94.36-63.81-140.95-3.14-6.58-19.2-50.17-24.82-45-3.73,3.08,1.46,11.51,2.71,15.22C18.33,900.23,26.51,926.34,40.31,950Zm19.23,184.77c8.44,24.44,18.06,48.49,27.63,72.52,1.45,3.63,3,8.75,7.9,9.5,3.1.48,1.47-2.94,2.28-5.18-24-59.16-38.48-123.22-72.76-177.66-6.29-10.2-13.78-19.65-20.81-29.39a4.32,4.32,0,0,0-6.15-1.19c-2.57,2.25,1.73,4.1,2.37,6.25C26.38,1048.15,45.49,1090.34,59.54,1134.79Z"/></g></g><g id="Red_Japanese_Frames" data-name="Red Japanese Frames"><path class="cls-7" d="M0,20V1580a20,20,0,0,0,20,20H956a20,20,0,0,0,20-20V20A20,20,0,0,0,956,0H20A20,20,0,0,0,0,20ZM924,1548H52V52H924Z"/><path class="cls-8" d="M952.1,15.41,928.69,38.83A4,4,0,0,1,925.86,40H50.14a4,4,0,0,1-2.83-1.17L23.9,15.41A2,2,0,0,1,25.31,12H950.69A2,2,0,0,1,952.1,15.41ZM40,1549.86V50.14a4,4,0,0,0-1.17-2.83L15.41,23.9A2,2,0,0,0,12,25.31V1574.69a2,2,0,0,0,3.41,1.41l23.42-23.41A4,4,0,0,0,40,1549.86ZM936,50.14V1549.86a4,4,0,0,0,1.17,2.83l23.42,23.41a2,2,0,0,0,3.41-1.41V25.31a2,2,0,0,0-3.41-1.41L937.17,47.31A4,4,0,0,0,936,50.14ZM925.86,1560H50.14a4,4,0,0,0-2.83,1.17l-20,20a4,4,0,0,0,2.83,6.83H950.69a2,2,0,0,0,1.41-3.41l-23.41-23.42A4,4,0,0,0,925.86,1560Z"/></g></svg>