<svg xmlns="http://www.w3.org/2000/svg" xmlns:xlink="http://www.w3.org/1999/xlink" viewBox="0 0 976 1600"><defs><style>.cls-1{fill:none;}.cls-2{fill:#f4f3ef;}.cls-3{clip-path:url(#clip-path);}.cls-4{fill:#50b271;}.cls-5{fill:#ffb85a;}.cls-6{fill:#997664;}.cls-7{fill:#592116;}.cls-8{fill:#992d17;}</style><clipPath id="clip-path"><path class="cls-1" d="M960,22V1578a6,6,0,0,1-6,6H22a6,6,0,0,1-6-6V22a6,6,0,0,1,6-6H954A6,6,0,0,1,960,22Z"/></clipPath></defs><g id="Paper_Backing" data-name="Paper Backing"><path class="cls-2" d="M960,22V1578a6,6,0,0,1-6,6H22a6,6,0,0,1-6-6V22a6,6,0,0,1,6-6H954A6,6,0,0,1,960,22Z"/></g><g id="Wikipedia_Cropped" data-name="Wikipedia Cropped"><g class="cls-3"><path class="cls-4" d="M900.61,1604c-13.92-9,29.69-29.76,33.19-40.67,15.19-15.84,26.61-38.53,42.2-51.77,9.09-3.25,1.74,86.07,4,88.44C982.67,1609.15,903.29,1601.71,900.61,1604Zm-724.4,0c-8.2-1.68-1.81-12-1.55-17.19,1-6.85-2.76-13.81-1.29-21,6.18-11-2.5-18.59-.34-36,1.2-24,0-47.36,0-71.58,0-25-1.45-48.92-3.19-75.34-4.83-20.71,18.78-32.66,30.35-47.86,16.4-13.62,24.59-37.49,41.74-50.94,10.27-11,17.27-30.83,30.05-39.52,15.76-33.18,40.14-66.41,56.61-99.08,7.22-19.61,22.65-34.64,27.1-53.84,5.78-13.15,14.51-25.55,20-38.23-1.16-7.83,3.38-14.31,6.33-18.42,6.6-6.67.39-23.34-8.36-12.6-4,7-6,14.58-10.89,21.21-4.28,3.07-7.82,6.38-7.42,12.24-53.93,90.86-112.33,176.47-181.54,258.72-11.54,6.55-5.05-14.56-7.16-19.44-5.29-47.59-1.56-93-2.36-141-4-95.2-8-189.36-10.84-281.92-2.14-7.88-1-14.89-2.72-23.37-3.84-8.05,4.84-17.45,1-24.46-7-12.82-.73-30.38-4.7-43.83,0-47.24-4.25-97.12-8.1-142.89-.61-3.77-1.43-8.93.88-13,.15-10.77-8.3-19.73-1.7-32.72,6.53-7.36-3-11.44-3-18-3.7-13.25,4.86-40.15-10.09-44.7-10.56,1.49-4.55,16.93-6.17,24.22-5.91,17.92,3.25,38.53-.81,58.19-1,27.41-2.83,52.23-1,80.53.36,5.17.41,8.49-1.93,11-6.66,8.6,7.36,16.2,1.39,28.06-4.26,129.71-3,264.52-5.59,398.92-1.45,127.44,3.17,250,1.92,379.27-3.1,19.31,7.9,42.21-1,61.45a6,6,0,0,0,.57,8.53c5.66,4.06,4.58,14,7.42,20.6.56,10.49-125.17,4.27-123.87,0-.1-185.18.27-374.45,0-558.09.06-80.08.26-165,0-244.62.2-59.82-2.5-140.45,11.22-198.18C21.9,525.7,44.06,447.91,94.27,391.86c9.31-7.35,14.46,31.92,26.25,14.05,14.07-73.88,78.55,93.86,87.15,113C254.55,646.41,282,781.77,301.74,915.41c1.77,18.9,8,18.39,24.37,14,21.88-5.31,44.92-5.63,67.37-4.26,11,6.67-7.55,35.75,8.53,40.41,43.37-43.48,30.76-32.9,38.52,26.24,5.37,45.79,3.42,93.73,1.89,139.76,2.09,28.94-12.58,64.46-3.8,90.27,12.79-.18,15.75-22.86,23.75-30.12,8.56-12,17.7-26.32,27-35.82,10.7-3.7,45.88,55.89,36.58,3.39-19.91-64.39,133.19,47.11,146.78,62.82,12.63,11.87,28,25.35,40.73,37.61,18.4.57,12-68.72,20.72-83.5,22.55-127.8,51.72-345,130.17-444.9,16.9-2.12,8.18,55.42,32.06-2.86,41.35.75,71.7,133.53,78.34,175,10.22,42.62,3.59,118.17,4.56,162,1.63,75.58.7,170.28.08,245.26-4.31,25.18,15.8,161.57-18.41,174.63-11.05,9.22-78.38,101.45-71.27,52.74-.06-68.94-3.78-138.11,1.07-206.33-2.17-21.32-3.76-48.44-2.33-68.62,0-14,1.58-31-1.26-45.49,2-3.87,8.5-6.77,4.9-12.08-10-20.28-1.59-42.1-5.14-62.51.47-10.44-4.87-20.86-.45-32,3.2-4.35-2.62-9.13-1.57-13.6,2.31-14.31-7.29-26.94-.61-40.41,1.1-14.84-4.25-33.93.07-49.71-.76-10-1.23-21.42-.15-32.33-2.92-7,4.89-21.33.82-29.81-.93-15.46,7.91-96.13-15.69-56.88-6.41,8.15,7,16,1.5,27-3.78,8.19,1.25,16.36-3.61,23.09a6,6,0,0,0,.06,8.2c3,12.52-2.22,26.92-.38,40.69-6.62,16.38.15,36.82-6,54-5.59,6.84,4.94,12.45-.06,21.34-4.36,9.22,2.31,20.24-3.82,26.17,1.66,32.6,2.31,69.11,1.61,103.9-4.83,11.4,3.65,16.59.46,29.27-1.92,7.37-1.14,16.12-.63,24.23-3.74,8.34-1.09,12.06-.37,21.23-.12,28.26-3.9,42.31-1.17,72.43v-.15c-3.55,56.09-1.52,117-1.89,175,1.06,73.33-4.06,61-50.36,16-2.94-2-7.72-3.59-7-8.44-1.37-8.35-11.67-7.71-16.83-15.65-7.8-2.44-6.89-15.52-14.06-18.21-5.3-.6-7.75-8.8-12-12.27-3.13-5.38-10.48-8.38-11-15.6-1.82-8.81-11.79-4.41-15.46-15.46-7.93-7.83-11.37-19.74-21.17-25.5-20.32-18-33.1-44.4-52.42-62.56-9.08-9.57-15.69-19.63-22.74-29.35-5.37-7.51-16.18-13-18.49-24-5.06-9.64-17.85-14-20.79-26.87-1.32-8.57-20.86-13-16.56,0,5.59,5.69,2.6,13.11,6.86,18.4,30.34,35.63,51.62,75.11,80.46,115.21,20.12,30.31,45.24,59.11,65.85,89.27,31,30.6,53.37,66.82,85.07,97.41C824.12,1616.53,179.23,1597.53,176.21,1604Zm206.05-587.37-264.17-505c-3.62,5.11-1.23,13.84,6,12.76,5.65-2.28,10.83-19.88,5.87-24.26C121.26,491.89,117.5,504.4,118.09,511.64Z"/><path class="cls-5" d="M521,1181.91c-21.53-13-39.35-41.79-42.07-67.61-3.83-21.22,23.62-39.14,31.49-12.58C514.36,1117.51,541.49,1177.54,521,1181.91ZM400,967c-14.55-19.45,3.07-59.83,12.47-77.56,10.77-20.53,40.13-11.6,34.72,12.19C443.4,929.65,419,949.62,400,967ZM880.83,753c-22.23-21.39-26.64-95.1,10.39-100.21C917.78,661.46,902.46,734.71,880.83,753ZM114,410.76c-56.39-53.54,5.13-141.67,20.35-85C136.67,350.74,135.18,387.87,114,410.76Z"/><path class="cls-6" d="M820.15,1604c-63.8-73-131-151.29-183.28-234.62-24-32-44.45-62.85-64.14-98.74-3.88-6.91-17.33-19.57-9.63-29.37,80.25,105.15,160.37,211,254.71,304.3,20.86,21.69,42.71,45.69,36.36-4.3-2.44-36.8,2-77.76.58-113,7-144-.78-286,12-430.3,4.17-37.58,2.83-75.34,5.06-112.84,4.48-12.44-5.1-36.53,8.9-42.31,13,74.4-3.55,162.23,2.33,240.28,7.16,130.25,3,265.92,5.85,394.77,4.46,14.46-10.6,78.44,10.23,72.34,24.9-18.07,52.94-59,77.56-82.74,7.2-.68,1.72,44.91,3.36,48.06a4.15,4.15,0,0,1-4.81,4c-16.55,4.94-24.54,27.59-39,40.75C890.55,1613.27,886.71,1604.19,820.15,1604Zm-704.28,0c-8.53-283.26-4.26-581.62-.33-870.75,2.9-74.27,2.3-144.31,1.84-214.06,2.86-12-7.64-41.6,6.32-43.39,14,42.46,9.37,99.4,15.2,144.74,10.24,181.94,21,363.9,24.92,545.83-.48,47.78,2,90.52,4.35,137.28a6,6,0,0,0,6,5.68c44.12-42.15,81.47-97.24,115.31-149.12,39.63-56.94,60.54-99.58,93.21-151.51,14.8,10.87-23.92,72-29.89,88.3-49.64,101.29-108.65,189.74-184.23,274.41-5.41,51.59,8.64,105.94,6,158.28,2.87,21.82-5.61,47.71,5.63,66.37C187.48,1612.8,120.37,1600.32,115.87,1604Z"/><path class="cls-7" d="M984.5,1255.46a24.87,24.87,0,0,0-11.17,6c-22.74,24.73-49.21,47-79.61,61.23-1-12.35-2.58-25.27-1-37.41.66-4.33-5.9-9.54,1.39-13.15,9.88-4.9,19.47-10.36,29.29-15.41,10-4.44,55.41-34.76,50.53-45.51-3.55-3.63-6.69.88-9.49,3.51-20.62,20.83-46.79,34.77-71.51,50.08-1.19-13.27.28-27.07.06-40.51,0-2.44-4.46-5.11-.16-7.24A385.8,385.8,0,0,0,931,1195.21c15.6-10.2,33.45-17.86,45-33.13,2.19-3,3-6.9,0-9-2.65-1.75-5.26,3.27-7.94,4.35-1.31.53-1.78,2.86-3,4C947.68,1178,926,1188.1,906,1200.71c-10,6.28-10.42,5.16-13.12-4-3.27-11.08-.77-22.39-1.74-33.54,0-.64.51-1.82,1-1.92,14-3.22,26.84-9.82,39.31-16.48,16-8.55,32.77-16.56,44.58-31.19.74-1.58,5.09-2.55,1.85-5.3-2.1-1.64-4.32-2.08-6.72-.08-20.62,17.74-45.29,30-69.91,41.53-8,3.27-11.47,4.1-10.3-6.25.45-4-1.38-8.22-.92-12.19.9-7.64-7.07-18.87,6.69-21.72,14-3,90-39.14,86.73-53.2-1.66-2.74-4.84-1.93-7.42.07-5.49,5.1-93.23,62-87.08,41-3.41-58.1-12.95-27,48.27-58.55,12.07-7,25.57-12,34-24.22,4.23-4.91-2.11-7.77-6-4.88-19.46,17.85-43.46,27.33-67.34,37.09-7.52,3.07-12.33,3.44-11-7.41a99.8,99.8,0,0,0,0-23.43c-.81-7,2.27-9.56,8.11-11a518.69,518.69,0,0,0,53.45-22.29c12.28-6.32,25.43-12.59,33.6-24.24,1.18-1.67,5.1-4.55,1.32-8.31-2.54-2.54-3.59-.39-4.82.68C952.63,972.89,921,986,890,998.5c-5.53.77-2.27-3.24-2.51-5.14-.8-6.29,1.68-12.36.74-18.91-.8-5.57-.72-13.83,2.62-16.82,26.7-15.72,58.77-24.71,80.77-48.31,2.7-1.72,3.06-6.39-.8-6.47-25,16.13-50.46,31.89-77.41,44.87-4.16,2.08-4.33,1-4.32-2.5q0-17,0-34c0-2.29.34-3.34,3.08-4.45,27.58-11.09,51.51-26.54,69.4-49.08,3.29-5.18,19.16-23.6,14.47-28.38-4.79-3.88-18.06,20.1-22,23.66-15.73,22.35-40.33,34.27-64.21,45.79-.25-7.21-2.12-14.86-.34-21.53-5.43-41,19.86-4.64,70.83-74.48,6.57-6.27,2.22-18.37-3.72-8-8.55,11.89-19.06,22-30,31.66-3.42,3.24-36.3,29.91-35.65,17.57,1.29-7.29-2.28-32.55,2.22-35.71,24.31-15.24,49.69-30.15,66.4-54.24,1.41-2,5.61-5.32,1.55-8.16s-5.93,1.67-8,4c-14.49,16.3-30.63,30.8-49.18,42.36-14.57,9.08-14.73,8.66-14.88-8.89.28-9.15-2.88-17.49-.91-26.59,6.72-13.7,13.07-27.6,17.24-42.35,4-14,3.82-27.69,2.5-41.93-1-10.35-.33-21.87-12.21-24.72-10.3-2.47-21,4-26,12.17-30,43.66,16,87.4,3.39,132.15-1,6.37-3.28.54-3.6.14-8-9.79-16.09-19.58-22.89-30.21a127.8,127.8,0,0,1-9.52-17.6c-1.22-2.8-3.77-1.51-5.59-1-7.44,3.92,22.14,45.91,27.55,50.64,22.42,20.44,8.72,24.65,12,51.07-20.83-16.62-36.11-38.51-49.23-61.33-1.34-2.38-3.47-3.56-5.75-2.46-5.24,7.21,22.67,48.09,30.18,53.67,15.92,13.75,29,24.75,22.67,47-3.14,15.65-52.7-37.76-54.5-45.45-3.35-3.43-4.7-14.88-10.65-13.21-1.31.54-3,1.25-2.27,3.65,7.46,23.34,24.31,40,42,56.51,22.27,15.82,27.69,10.56,21.74,43,4.62,23.5-22.58-2.15-29.07-6.49-13.81-12.37-28.46-24.11-39.26-39.35-2.33-3.29-4.38-8.29-8.63-5.25-5,4.37,6.09,13.49,8.29,17.83,16.86,22.07,36.48,41.13,62.17,53.54,2.29,1.11,7.46,1.14,6.15,5.65-3.32,11.47-1.19,23.12-1.88,34.66-.11,2-.3,3.33-2.78,1.83-14.88-9-29.49-18.42-42.29-30.21C805.2,947.11,792.41,935.19,784,920c-1.8-3.23-4-.77-6-.65-.19,0-.77,2.48-.29,3.23,17.3,29.27,42.08,55.48,72.76,71.16,3.88,1.69,9.82,5.2,9.88,8,.27,12.22-1.27,24.49-2.15,36.7-33.4-17.24-65.07-42.31-84.17-75.36-2.1-3.86-9.06-2.68-6.95,2.08,8.89,27.63,52.57,63.5,77.62,78.53,6.91,3.51,16.46,5.87,12.35,17.74-6,11.09,7.19,33.72-14.53,21.86-29.2-14.45-57.08-31.73-78-57-2.39-1.88-4.76-7.56-8.31-4.14-3.37,4.51,4.22,10.13,6.29,14.05,20.6,25.54,49.61,43.63,78.65,58.22,5.11,2.63,13.37,2,13.66,10.31.44,12.31.08,24.66,0,37,0,.86,1.24,3.48-1.34,2.41-38.59-13.78-70.85-38.73-98.57-68.53-1.84-1.82-3.67-3.66-5.45-5.53-1.42-1.49-1.26-4.71-4.33-5-.62,0-1.91.7-1.9,1-1.61,8.86,4.89,13.56,9.79,19.64,26.59,29.81,58.52,55.89,97.41,67.58,2.63.8,5,2.21,4.7,6.24-.59,12.37.23,24.81-.61,37.2A328.53,328.53,0,0,1,747,1118.92q-2.38-2.91-4.6-6c-1.87-2.62-3-8.3-7.62-5-6.21,3.08,8.18,17.42,10.49,21.11a357,357,0,0,0,91,70.58c33.3,10.53,13.32,18.26,18.18,46.94.2,3.34-1.35,2.68-2.51,2.24-46.15-18.79-87.05-49.74-119.32-87.42-2.35-2.56-6.31-4.35-8.59-2.59-2.94,2.27,1.33,4.49,2.64,6.2,3.49,4.6,6.87,9.37,10.46,13.93,17.13,19.88,37.76,36.68,59.75,51.12,16.54,10.25,31.37,23.57,51.4,27.33,5.31,1,6.09,4.81,5.79,10-1.23,12.44,1.67,25.29-1.91,37.45-1.68-.43-4.36-.35-4.87-1.36-2.61-5.18-8.22-6-12.38-8-29.21-13.76-53.21-35-78.22-54.55-9.28-7.26-17.24-16.22-25.18-25.19-4.36-3.29-9.69-15.31-15.54-12-2.47,3.55,11.8,17.58,14.09,21.86,13.66,19.55,34.21,31.81,52.22,46.72,14.7,13.29,30.49,25,48.55,32.72,23,9,22.68,10.67,22.07,36.07.05,1.59-.62,2.2-2.12,1.46-25.69-12.67-52.28-23.86-73.29-44.31-1.28-1.25-2.3-5-5.27-2.18-2.11,2-1.5,4.08,0,6.12,17.43,21.73,42.23,33.28,66.83,45,4.8,2.3,12.66,5.41,12.92,8.65-.78,39.52-1.24,79.38-1.19,119-.67,30.19,2.24,60.61-2.54,90.59-14.95-11.19-27.68-25.57-41.58-38.14-2-2-8.18-1.61-3.21-8.41,9.81-13.8,36.69-60.88,28-75.82-1.45.88-3.86,1.49-4.19,2.68-4.88,17.36-13.27,33.26-20.1,49.81-6.25,15.15-13,20.91-18.62,13-4.35-6.12-17.06-9.28-11.17-20.76,24.21-32.69,35.69-73,41.24-113,.59-2.7-1.72-6-2.7-9.07-5.15,2.09-4.89,12.16-6.95,17.08-3.27,13.46-5.57,27.24-9.84,40.37-8.16,20.42-14.78,45.12-30.2,61-3.26,2.5-7.47-6.66-10.76-11-.22-.3-1.31-.14-1.37-.35-1.66-6.26-14.81-8.22-6.12-18.64,19-24.15,47.37-94.21,38-123.18-6.57,4.61-5.76,14.34-7.65,21.49,1.19,11.82-33.86,126.82-49.28,90.87-4.8-9.16-20.49-15.25-6.82-28.89,14.37-16.24,46.22-85.85,37.66-105.37-11.33,20.62-13.12,47.18-25.25,68.29-7,12.82-13.69,25.81-20.81,38.55-1.13,2-3.23,5-6.45,1.19-3.79-4.43-9.16-7.83-11.85-12.76-2.1-3.85-9.46-6.49-6.56-10.93,24.4-32.25,44.6-68.43,48.16-109.47.28-2.08-2.15-4.53-3.31-6.81-1,1.07-2.91,1.94-3,3.14,1.2,6.91-3.15,12.32-4.58,18.49-2.18,9.36-2.67,19.57-6.86,27.92-10.22,20.37-22.12,39.9-33.51,59.67-.44.77-1.56,4-3.48,1.62-6.66-8.06-13.62-16-19-24.87,27-35,47.67-79.91,48.67-125.64.2-3.11-1-9.78-5.22-9.59-7.68,3.1-3.24,20.51-5.68,27.8-4.11,35.52-21.25,67.22-39.48,97.23-1.12,2.33-3.11,4.37-7.23,1.1-6.35-5-7.87-13.79-15.45-17.75-2.15-1.12-3.1-5.32-.54-8.23,16.82-22.88,29.24-49.09,34-77.29,1.21-8.82,9-41,1.46-45.67-7.31-1.58-8.07,47.62-12.07,56.18-5,20.86-16.93,39-25.78,58.32-1.64,3.58-5.1,5.6-5.76,4.07-4.55-10.49-25-14.39-10.44-33.11,16-23.72,19.63-56,25.39-83.92-.21-5.6,4.56-15.54-2.73-17.86-2.8-.79-3.57,2.12-3.89,3.27-7.86,34.54-9.42,73.65-31.68,102.63-7.54-14.7-21-11.91-6.41-33.66,7.58-13.88,26.48-86.53,12.93-96-1.06,1.46-2.94,2.87-3,4.38-2.64,29.1-6.29,58.56-16.24,86.24a82.82,82.82,0,0,1-4.11,8.74c-4.5,8.39-5.08-1.16-6.94-2.08-2.45-1.22-4-4.71-5.37-7.53-2.64-5.61-10.36-9.73-7-17.17,10.33-22.77,16.6-46.26,17.76-70.77a172.93,172.93,0,0,0-.13-19.44c-.14-2.19.77-4.92-3.2-4.53-3.35.32-4.65,2-4.91,5.28.07,28.11-5.75,55.38-14.27,81.82-.24.92-2.3,4.45-3.4,1.88-3.85-9-15.65-15-10.36-27.66,5.76-26.3,10-54,6.1-81,.19-4.55-8.87-6.62-8.11-1.2,0,26.14,1.35,53.48-5.61,78.79-17.21-12.75-15.3-38.16-19.94-57-3.75-15.83-11.31-66.75-34.45-60.56-38.22,14.14-9.51,68,9.16,87.56,5.7,6.51,14.54,10,19.13,16.08,7.35,9.77,9.27,23.22,18.1,32.94-25.8-4.13-47.48-21.12-70.34-33-1.79-1.06-3.83-6.32-6.74-1.59-2.17,3.47.24,6.77,3.48,8.72a286.06,286.06,0,0,0,32.94,18.15c13.47,6.52,25.44,16.13,41.58,15.08,6.42,2.56,10,20.39,16.41,25.95a363.82,363.82,0,0,1-81-32.78c-2.07-1.07-4.37-4-6.24-1.31-6,13.23,60,34.27,71.25,38,24.85,2.94,24.92,9.4,36.33,30-39.41-5.07-71.81-22.44-106.73-39-2.34-1.26-5.2-2.17-6.74.25-1.83,2.91,1.3,4.43,3.3,5.58,28,14.08,56.06,31.08,87.39,35.65,21.44,2.2,36.4,13,43.34,33a539.47,539.47,0,0,1-134.33-39.56c-15.5.06,12.4,14.8,15.63,16.07,32.58,14.64,68.18,21.71,103.21,28.35,11.49,1.55,24.51.38,31,14.57,4.34,9.45,11,17.82,17.5,28-33.71-4.24-67.14-5.27-99.47-15.45a257.58,257.58,0,0,1-70.59-28.85c-2-1.21-5-1.78-6.79.74-2.17,3.09,1,4,2.77,5,5.79,3.34,11.62,6.63,17.57,9.67,49.17,24.37,105,38.77,160.1,35.39.78-.11,2,1,2.62,1.83,7.95,12,16.67,23.5,23.93,35.9-70,6.14-141.56-10-204.62-40.61-5.26-1-3.68,6.76-.2,8.3,58.42,29.75,125.8,45.8,191.47,41.81,6.94-.55,15.57-5.67,21.54,1,6.47,7.21,11,16.11,16.93,23.87,10.86,11.91-67.57,9.57-74.37,9.31-47-1.09-94.09-12.19-137.08-31.57-4.08-1.69-10.94-5.87-12.7-2.56-2.43,4.56,4.42,6.12,8.3,7.86,39.17,20.87,82.5,31,126.61,34,31.86,4,67.54,1.24,97.7-4.87,9,9,16.44,19.73,23.86,30.22.72,1,5.81,4.82,1.64,5.75-82.51,17.9-170,6-246.91-27.79-3.19-1.28-6.37-6.63-9.31-2.7-1.33,1.77,3.17,7,6.87,8.83,74.51,36.45,161.6,47.37,243,32.47,6.09-.64,11.79-9.32,18.88.09,10,13.24,21.51,25.28,32.13,38,1.78,2.14,3.37,5.5,3,8-.34,2.8-4.18.37-6,1.44-4.24,2.55-9.11.85-13.29,2.18-45.69,11.73-93.36,6.76-139.45-.08-44.58-3.06-85.41-19.9-127.37-33.92-5.86-4.72-8,1.43-2.49,5.25,37.08,14.88,74.28,30.85,114.34,35.13,56.71,10.26,128,17.92,181.93-3.26,11.94,13.22,23.89,26.57,36.11,39.68,2.48,3.67,4.41,3.42,9.13,2.35-27.32-40.48-63.86-76.5-94.26-115.44-30.19-38.86-60.5-77.71-86.07-119.79a814.92,814.92,0,0,1-64-98.47c-3.61-6.32-10.08-11.25-11.79-23.6,60.3,94.85,133,171.15,204.16,256,24.48,26.07,49.54,52.45,76.95,75.5,5,3.37,13.66-4.88,13.49-13.17-3.3-45,.58-90.15-.26-135.15,2-41.8-.16-83.47,4.17-125.42,1.25-101.47-2.7-203.24,7.77-304.41,6-50.26.83-102,8.88-151.72,4.6,82.73-4,169.1-.37,253.08,6.59,66.47,1.63,133.59,4.36,200.06,2.47,19.76-.82,39.13.12,58.71,2.83,39.79-2.25,79.54,1.17,119.4.29,23.18-.24,46.38.38,69.55.12,4.37-3.32,10.94,1.38,13.13,10.35,6.43,57.19-50.26,65.61-59.73,8.42-12,22.61-21.2,25.48-36.08-3.6-1.27-5.88,2-7.82,4.39-24.48,27.94-49,55.83-75.93,81.53-3.5-25.37,4.11-50.12-2.7-76.62,3.39,3.92,6,3.32,9.33,1.63,11.31-5.74,22.48-11.56,33-18.82,13.31-9.22,27.67-17.12,36.05-31.75,1.7-2.81,5.91-6.63,1.63-9.33-3.51-2.31-5.12,2.55-7.13,4.85-18.32,22.44-45.13,36.84-70.69,49.88-2.58-15.68-.4-32-1.07-47.87,2.34-.69,3,3.53,6.66,1.25,25.87-12.67,53-25,70.94-48.79a5.58,5.58,0,0,0,.34-6.72c-1.34-2.27-3.13-.36-4.14.59-21.1,20.76-45.4,36.32-72.26,48.53-.74-1.62-2.42-3.46-2.09-4.83,3-12.64.26-25.42,1.31-38.07.11-1.29-.88-3.2,1.52-3.57,21.14-2.81,87.29-43.72,88-65.42-3.33-.68-4.66.75-6.63,2.89-24.27,22.75-51.28,43.45-82.52,55.54-.14-3.63-1.37-7.67-.2-10.8,3-8.13-7.13-18.08,8.18-25.25C927,1316.25,977.35,1282.71,984.5,1255.46Zm-461.32-78c-5.28,2.13-7.68-3.69-9.69-6-10.18-11.69-21.28-23.29-25.5-38.65-1.76-6.38-7.48-12-4.7-19.1-2.63-17.09,15.47-33.54,23.47-10.36C510.44,1109.49,530.32,1177.18,523.18,1177.45ZM884.42,744.79c-5.37,11.45-8-4.34-9.39-8.33-7.91-25.2-13.51-63.49,9.4-77.5C915.68,643.05,894,734.19,884.42,744.79Zm90,768.84c1.69,2,.35,4.09-1.29,6.27-12.27,15.2-23.67,31.12-36.27,46-10.28,13.12-24.66,21.92-36.25,34.08-1.79,2.1-3.55,4.78-6.73,3-11.42,1.63.41-8.8,3.48-10.79,27.76-21.75,48.66-50.35,71.22-77.12C970.33,1513,972.72,1511.81,974.42,1513.63ZM329.23,1155.9c36.92-4.09,76.23-5.5,109.2-24.54,2.35-2.06,8.49-3.12,6-7.77-2.19-3.33-5.37-.93-7.78.28-32.52,16.09-68.24,22-104.44,23.38,32.17-70.45,22.65-20.92,107.9-64,4.45-2.13,33.08-15.56,30.38-20.07-.82-1.06-3-2.19-4-1.8-35.87,14.86-69.07,36-109.56,36.89,2.69-5.2,5-10.74,8.22-15.64,5.79-8.75,5.63-23.25,20.66-23.39,19.91-1.77,36.54-12.93,53.88-21.7,5.79-4.54,19.54-7,18.75-15.94-5.44-5.89-13.7,4.6-19.08,6.83a202.34,202.34,0,0,1-59.68,24.23c-.74-6.05,2.66-11.09,5.67-15.31,6.11-8.56.68-22.64,16.67-27.07,12.56-3.49,24.19-9.28,35.26-16.17,8.44-6.92,28.92-14.92,29-26.78-2.68-4.58-24.86,14.86-29.85,16.93-8.37,5.47-17,10.49-26.44,14-3.73,1.41-12,7.2-12,2.48,0-10.07,1.56-21.31,8.11-30.11,16.39-22,39.35-38.59,46.47-66.74,3.4-36.82-33.24-40.58-47.46-9.11C394.45,913.2,390.79,934,392,954.6c1.06,18.11-8.65,29.78-14,46-6.16-25.81-13.45-46.72-17.64-71.84q-2.1-12.62-3.13-25.4c-.32-3.92.5-9.63-3.35-9.73-3.51-.09-5.56,5.36-4.94,9.94,2,14.89,3.32,29.92,6.18,44.68s8.26,29.13,10.64,44c1.3,8.16,11.94,13,7.17,22.64-4.56,8.41-8,17.93-13,25.94-8,8.31-6.09-3.49-6.52-4.43-12.87-31.63-31.5-69.12-24.75-103.87,2.18-3.46-1.75-9-5.38-6.67-1,3-2.95,5.47-3.93,8.52-1.71,14,1,28.33,3.46,42.18,4.56,21.84,11.35,42.83,21.61,62.66,2.66,5.15,8.55,11.54,7.2,15.28-3.41,9.45-10.11,17.72-15.29,26.15-6.13-7-7.42-15.87-10.64-24-6.12-15.32-11.52-30.75-14.83-47-5-18.38-3.05-38.2-7.93-56.18-9.35-10.65-5.9,24.44-5.75,28.2a402.62,402.62,0,0,0,26.53,95.9c2,6,9,12,4.55,18-5.66,7.59-11.17,15.32-16.24,23.2-5.43-11.93-10.86-23.44-15.95-35.11-13.27-28.44-14.31-59.92-20.58-90.22-.3-1.62.34-5.32-3.24-4.23-2.59.79-3.84,3.18-3.33,6.22,3.21,19.19,2.95,38.79,7.82,57.85,21,93.15,49.91,47.94,2.35,113.51-10.25-27.92-23.54-54.76-29.65-84-7.92-26.41-4.84-54.89-10.13-81.53-2,1.41-4.42,2.55-4.3,5.61.75,20.21.2,40.26,3.16,60.62a311.24,311.24,0,0,0,23.08,80.73c3.35,7.64,2.94,19.7,15.71,20.82-4.58,12.09-14.77,22.45-21.32,33.9-1.15,1.74-2.92,3.16-4.2,1.28-17.14-28.36-28.06-59.81-37.27-91.8A364.12,364.12,0,0,1,203.06,1042c1-8-6.42-8.91-7.22-.6-1.2,54.36,16.8,107.6,40.54,155.85,2.86,6.31,11.67,11.65,9.14,18.09-3.6,9.17-11,16.87-17,25-.94,1.27-2.42.72-3.43-1-15.35-26.78-29.38-54.18-40.38-83.08-1-2.67-4.39-4.45-6.67-6.64-6.93,12,32.24,85.71,41.9,99.4,1.56,2.24.62,3.11-.84,4.85-15.77,18.79-31.36,37.71-48.31,58.17,0-7.17,1-12.73-.18-17.79-4-17.34-2.57-35.1-1.75-52.25-1-54.08-.5-108.35-3.77-162.5-2.5-96.81-14.52-36.62,61.53-95.7,11.85-7.41,86.22-68.66,77.82-79.66-1.89-2.66-4.46.75-7.33,3.87-23.66,25.17-48.14,49.71-76.21,70.06-16.86,12.93-36.25,22.53-54.38,33.83-3.63,2.26-3.31.25-3.45-2.22-.35-6.23-.55-12.43-1.38-18.68-.8-6.09-5-15.89,2.57-19,43-18.24,79.5-47.52,110.93-81.71,4-5.6,14.84-13.69,12.09-20.65-18.29,9.86-30.09,30-46.57,42.8A375,375,0,0,1,166,963.17c-3.41,1.74-5.35,2-5.57-2.32-3.76-61.44-3.68-19,56.27-69.53,23.66-19.34,45.81-40.84,67-63,2.42-1.81,2.79-12.1-1.78-9.72-12.48,14.26-28.37,25.77-41.06,40-20.34,21.43-44.09,38.17-69.86,52.14-4.13,2.24-13.4,14.11-12.6-3.87a82.61,82.61,0,0,0-1.5-20.41c-2.12-10.19,5.67-9.43,11.29-12.42,26.76-14.58,93.53-61.63,100-90.81-16.94,11.42-29,30.13-46.09,42.23-19.56,17.4-39.84,36-64.74,45.18-.08,0-1.28-1.77-1-2.31,2.57-9.11-7.6-30.58,1.59-36.35,39.82-27,85.58-56.82,105.67-101.82-3.12-6.75-7.11,0-9.57,4.15-10.83,13.35-20.49,27.65-33.21,39.45-16.64,15.44-34.32,29.52-52.34,43.32-10.26,7.86-16.38,9-15.39-5.91.54-8.12-5.21-18.74,4.29-24.44,36.87-25,89.74-65.89,105.05-107.71-5.75-3-21.1,22.91-25.78,27.44C213.1,736.22,182.1,758.27,153,782.15c-2.31,1.86-1.94-.44-1.94-1.53q-.07-18.37,0-36.77a2.64,2.64,0,0,1,1.69-2.92c34.46-20.31,64.84-48.54,85.93-82.65,1.42-2.37,4.45-5,3.63-8.1-.58-3.07-4.37-3-6.1-.79-13,14-23.23,30.7-35.71,44.89-16.42,14-31.8,30.29-51.27,40,.36-8.42-2.57-21.63,1.6-24.5,15.52-9.62,84.44-76.22,75-92.63-8,2.58-20,25.27-26.8,32.87-14.48,20.18-32.24,37.12-51.68,53.06-.47-8.15-1-15.73-1.34-23.31-.26-5.51-2.6-14.17-.07-16,23.15-17.82,78.17-61.07,76.21-91.72-18.61,28.25-40.89,54.44-67.38,76.29-6.15,5.25-12.08,8.06-11.27-4.58.41-6.34-3.66-14.32,1.11-18.76,25.42-21.62,49.13-45.48,69.41-72.18,5.8-4.63.06-11.93-4.47-4.81C188.4,570.28,171,596.44,145.33,614c-1.5,1.08-3.23,2.25-4.2-.5-10.08-41.28,50.91-54.37,59.63-91.91-.71-4-4.35-1.19-6.72,1.65-15.11,20.85-34,38.06-54.82,53.06,2.54-14.34-10.34-27.36,6.21-39.28,18.93-12.63,34.82-29.65,48.44-48.13,2-2.71,7.7-6.43,4-9.89-2.68-2.47-6,3.18-8.43,5.62-15.38,16.15-30.38,32.67-47.8,46.7-1.71,1.39-6.06,2.66-6.22,2.36-7-13.08.25-30.63,11.72-39.07,9.42-7,44.25-35.92,39.28-47.62-4.16-.66-6.64,7.16-9.93,9.63-13.91,14.27-28.42,28.1-44.22,40.29-.4-5.25-1.95-10.77-.82-15.68.89-3.9-5.43-7.08-.24-10.68,11.71-7.34,47.29-41.83,44.74-55.05-6.79,1.64-9.61,8.76-14.36,13.27-8.22,9.55-16.4,19.14-24.73,28.59-1.94,2.2-5.85,5.41-7.33,4.75-4.73-2.12-3-26.67,1.77-29.93,10-6.84,13.88-18.4,21.17-27.47,1.14-1.41,5.09-6.32,1.41-8.28-3.24-1.7-6.2,4.65-8.54,7.37-6,8.05-12.8,15.58-19.26,23.34.91-4.23-2.79-6.56-3.1-10.08-1-11.09,7-18.91,9.49-28.38,4.91-19.91,10.32-40.14,6.48-61-1.51-8.22-.71-18.67-10.2-22.48-14.46-5.82-25.38,1.55-33.67,12.75-7.07,9.55-5.84,20.91-7,32.26-1.94,19.09,4.85,34.58,11.71,50.87,3.7,8.78,16.8,12.94,12.38,25.78-13.45-8.08-27.16-16-37.89-27.69-1.28-1.4-2.75-3.26-5.74-.79-3.33,2.75-.18,4.12.55,5.07a96.37,96.37,0,0,0,11,11.95,115.74,115.74,0,0,0,18.68,13.9c4.94,3,12.36,4.63,13.82,10.62,1.74,7.15,1.1,14.94,1,22.44,0,1.38.65,6.57-3.37,4.4-19.27-10.4-38.34-21.62-53-38.15-2.63-3-5.57-8.26-9.47-4.88-8.15,9.86,47.82,47.89,57.88,50.84,4,1.81,9.2,1.45,9.26,7.65-.44,3.91,2.06,32.5-3,30.27C85,500.24,59.9,484.69,38,465c-2-1.76-4.12-4.35-6.65-2.42-4.21,5.28,8.84,17.2,13.3,19.47,19.16,13.46,36.65,29.38,59.32,37.46,3.62,1.29,10.37.33,10.82,6.29.68,9,.16,18.11.17,27.18,0,2.17.39,5-3.06,3.88-37.49-11-66.46-39.42-96.55-62.66-2.63,11,9.67,17.07,16.39,23.35,21.44,20.13,44.88,37.86,73.16,46.47,12.25,3.76,8.82,11.78,9.5,18.83.86,8.88.21,17.9.21,27C81,595.38,48.37,579,21.06,554.55c-2.8-1.4-10.23-11.61-12.37-8.84-6.17,5.86,5.63,10.77,8.47,15.33a167.11,167.11,0,0,0,43.41,33.71c16.16,8.94,33.49,15.75,50.21,23.7,1.39.66,5.27-.33,4,2.86-3.65,9.24-1,18.74-1.81,28.07-4.3,8.56-54-20.21-62.92-23.81a165.17,165.17,0,0,1-38.91-25.71c-3.22-2.38-6.63-8.27-11.14-4.54-4.63,3.19,7.7,9.58,9.72,12.35,25.81,21.94,57.94,37,89.16,50.11,23.06,4.63,11.06,15.33,14.11,33,.5,8.22,1.81,13.81-10.74,8.59-33.89-15.1-67.67-30.88-95.9-55.23-4.4-3.55-12.68-.9-6.36,5,13.91,10.22,26.35,22.51,41.85,30.33,13.63,7.32,27.38,14.39,41,21.65,17.89,8.51,34.68,4,29.8,34.23.18,13.48.43,16-16,9.65-22.18-5.3-41.16-18-61.46-27.43C24.33,712.47,15.58,702.65,6,694.8c-5.56-6-10.53.78-4.92,5.54C28.35,725.27,62,743.41,96.91,755.27c26.85,5.19,7.62,17.63,15.35,32.24-3.35,1.09,2,9.1-5,6.8C72.85,782.46,39,767.62,10.18,745c-3-3.45-9.12-7-10.11-.27,1.07,5.93,9.27,9.6,13.49,13.68,111.52,77,96.58,8.53,97.41,87.15,0,2.35-.34,4.25-3.2,3.18-12.66-4.77-25.33-9.57-37.9-14.58-24.13-9.63-44.63-25-64.26-41.56-2.55-2.06-5.27-2.67-7.62-1-3.07,2.38.7,4.51,2,5.74,6.73,6.39,13.75,12.48,20.89,18.44,23.76,19.83,51.8,31.32,80.5,41.75,2.58.94,9.21-2.67,9.24,6.13,0,8-4.44,16.1.05,24.25,1.21,10.54-17.09-.24-22.15-1C56,875.73,25.73,859,0,836.52c-6.58,1.68-2.13,9.59,2,12.34,30,23.92,65.07,45.53,103.38,51.93,5.17.37,4.55,2.19,4.45,5.55-.21,7,1.86,14.85-.78,20.63-2.06,4.47,9.14,19.83-9.14,13.76C82.65,935,64.47,931.47,48,924c-14.66-6.65-27.42-17.46-41.2-26.12-5.6-5.51-17-3.06-9.5,2.63,23.32,19.58,50.58,35.52,80,43.63,10.16,2.56,19.8,10.63,31.65,5.28,0,13.08,0,25.9,0,38.72,0,2.12-.54,3.32-2.81,2.62C66.85,982,31.54,962.88,0,938.56c-2.55-.32-6.06,2.34-3.79,5.07,6.47,5.46,12,11.73,19.12,16.59,101.52,69.34,93.88,3.16,93.61,80.94-22.33-7.74-45.25-14.19-66-26.05C34,1013.1.22,982.76-2.65,990.22c-1.52,2.23-.2,4.39,2.29,6,28.86,23,59.63,41.45,95.36,51.37,21.25-.84,10.53,2.6,12.39,29.43-.06,3.23,3.26,7.86-4.68,6.07-34.94-7.84-69.09-17.36-98.24-39.56-5.34-4.82-11.62,2.59-4.47,6.63,27.93,22.66,63.07,33.39,97.73,41.25,2.88.6,8.74-1.62,8.92,2.54.7,15.75.3,31.54.24,47.32,0,1,.94,2.92-1.77,2.33-7.89-1.73-16.28-2.13-23.65-5.09-27.72-11.14-56-21.44-78.42-42.45a4.56,4.56,0,0,0-7,.35c-4.42,8.1,26.2,23.74,32.5,27.81,21.89,13,44.3,24.65,70.35,27.24,2.56.26,9.2-3,8.57,5.13a180.79,180.79,0,0,0-.35,27.92c.62,7.94-3.87,7.12-8.37,6-34.36-8.64-67.15-23.48-93.89-47.13-1.54-1.43-3.6-3.67-5.46-1.93-2.06,21.92,79.66,57,100.06,57.8,15.71,1.08,2.11,27.13,9.27,38.2,0,0-2,1.53-2.85,1.32C71.76,1230,36.67,1221.47,8.51,1199c-2.55-2-5.35-7.11-8.51-3.68s1.67,7.54,4.1,9.81c24.28,21.81,54.61,30.71,84.79,40.19,6,1.88,16.31-1,17.44,5.92,2.31,14.07,1.3,28.7,1.59,43.1,0,1.67-.56,2.93-2.76,2.24-36.22-11.07-74.26-18-105.16-41.44-14.52,11.71,49.22,36.23,57.76,37.67,60,23.64,48.12-7.11,51.1,49.2,0,.72,1.32,2.91-1.48,2.36-39-5.63-75.75-21.29-108.29-42.75-2.61,21.08,75.3,47.33,94.31,49.42,24.31,1.62,13.72,15.07,15.5,33.44,3.94,16.65-7.11,6-17.69,6.55-32.58-2.65-58.49-23.69-85.33-40.14-1.9-1.18-3.69-5.2-5.88-3.93-4.92,3.57-.31,8.83,3.6,11,113.6,84.71,106.32-2.42,105.36,97.42-37.75-3.31-74.8-19.09-103.86-43.55a5.37,5.37,0,0,0-5.1-1.4c-4.92,1.64-2.1,3.52,0,5.83,9,13.94,23.7,20.76,37.77,27.6,80.18,41.1,71.77-9.62,71.12,65.76,0,.93.46,2.59-1.69,1.93-35.06-2.81-69.11-11.79-98.52-31.72-2.35-2.25-9.69-1.29-8.68,3.23a186.43,186.43,0,0,0,31,19.26c23.6,10.86,48.24,18.48,74.6,18.72,2,0,2.9.2,3.53,2.7,2.82,11.06.72,22.28,1.65,33.3,1.78,21.21-12.74,9.7-20.7,10.75-2.76.36-5.78-2.33-8.8-2.73-26.05-3.43-48.76-14.77-70.41-28.94-8.13-5.65-17.65-.44-5.12,5.46,24.05,18.32,53.65,29.83,83.1,35.56,11,2,25.82-.64,24.86,17.93-.13,2.38-.35,4.58,2.16,4.58s3.64-2.48,3.16-5c-3.09-17-.28-34.09-1.41-51.21-2.76-218.55-2.88-435.89-.77-654.38,3-33.8,1.37-67.57,1.3-101.53,3.83-102.68,3.29-205.63,3.63-308.21,3.69.78,2.15,6.9,3,9.46,9.18,99.08,12.92,199,20.06,298.34C150,850.86,148.22,914.23,153,978c2.89,67.82,8.11,135.67,6.66,203.92.75,46.08,2.82,92.21,5.45,138.25.09,1.62,1.86,3.26,3.12,4.64.22.24,2.12-.52,2.71-1.24,24.6-31.76,52.3-60.73,75.46-93.46,49.57-69.39,97.26-141.44,136.2-217.44,2.23,5.5-1.26,9.53-3.54,13.88-9,31.23-25.17,59.61-40,88.36-29.73,58-63.55,114.25-102,166.9-16.52,22.41-34.28,43.79-52.57,64.78-6.65,7.62-15.48,13.47-19.58,23.25-5.74,13.7-.31,27.7-.58,41.52-.38,19.28,3.44,38.6,4.5,58,2.16,40.28,1.8,80.66,2.38,121,.05,2,3.1,3.93,4.94,5.71.5.17,2.25-1,2.28-1-1.95-5.3,2.78-10.38-.09-16.13-1.82-3.64-.82-8.71-.93-13.14,0-.23,1.48-.71,2.26-.7,79.9,2.87,166.9,2.27,236.94-41.32,8.1-3.44,3.21-9.74-3.45-6.3-22,9.94-43.26,20.79-67.36,26.3-47.12,12.1-95.1,15-143.49,14.22-26.66,1.59-25-3-25.27-28.62-.26-2.52.07-2.87,3.1-2.54a290,290,0,0,0,86.11.55c40.88-3.67,80.64-14.5,117.22-33.32,7.85-4.3,43.05-19.7,41.21-28.23-2.45-4.76-33.37,17.17-40.31,18.85-48.77,22.34-102.64,37.22-156.51,37.43-14-.45-27.86-2.3-41.82-2.82-5.34-.2-9.62,1-9.09-7a209,209,0,0,0-.14-29c-.3-4.17.84-4.57,4.13-4.22,31.39,4.33,63.11,6,94.65,2.08,44.24-7.93,92.08-15.73,127.8-45,2.14-1.89,7.87-2.65,4.87-6.49-2.45-3.13-7-.55-10.43,1.45-11.61,6.71-22.8,14.52-35.13,19.48-13.75,5.53-28.76,7.82-42.86,12.58-42.58,13.84-87,12.09-130.88,9.93-9.46.1-13.91-2.82-12-12.75-5.62-35.67,12.32-14.47,43-19.49,53.54-4.73,107.42-13.32,157.22-34.23,13.81-6.16,29.91-8.71,40.41-21.38,1.18-1.42,3-2.5,1.29-4.42-.68-.75-2.45-1.45-3.19-1.08a481.2,481.2,0,0,1-57.25,24.3c-56.23,20.46-115.71,26.68-174.78,29.76-5,.25-9.45-1.91-7.74-13.52,1.39-9.41-.66-21.31-2.86-31.88-1-5,2.31-5.48,5.66-4.45,50.32,13.5,127.64,7.06,176.39-9.88,16.8-5.92,56.91-22.39,63.94-38.87-1.18-2.5-3,.54-4.4,1-15.66,5.7-28.88,16.09-44.83,21.89-61.22,24.67-128.54,30.83-193.28,18.67-4.57-.94-4.94-5-2.28-8,9.38-10.55,19.12-20.78,28.81-31a4.59,4.59,0,0,1,3.41-1.41c28.59,4.93,58.2,10.51,87.14,8.1,32.61-3.47,78.3-5.39,100.29-33.18-2.11,0-4.68-.67-6.25.28-31.5,17.37-67.42,23.26-103,23.67-23.73.52-47-2.61-70.38-5.15-.91-.1-4.37-.27-2.3-3.15,7.66-10.67,18.08-19.19,23.69-31.55,1.51-3.31,6.77-8.25,8.51-7.6,13.07,4.83,26.9,3.73,40.1,4.69,45.14,4,92-5.94,132.86-25.78,4.37-2.19,1.73-7.53-2.33-5.62-4.68,3-10,3.42-15.08,4.78-15.79,4.21-31.51,8.73-47.27,13.08-32.37,8.46-66.14,3.5-99.13,2.9-11.84,2,12.32-21.4,12.7-25.53,4.85-8.78,10.34-10.34,18.65-9.26,46,5.11,106.43-.82,146.85-24.28,3-1.87,7.93-4.21,7-9-.56-2.94-4.69-1.45-6.05-.62-23.68,14.37-50.62,19.32-77.26,23.34-24.32,3.68-49.13,3.39-73.8,2.43-2.69-.11-2.59-.73-1.33-2.89,5.28-9,9.94-18.48,15.7-27.19,1.38-2.08,2.82-5.89,7-5.87,48.44-2.15,103.75-8,141.91-39.77-8.65-4.06-32.95,13.26-44.33,15.55-31,9.4-62.49,17.44-95.5,16.34,4.39-7.7,8.2-14.69,12.31-21.51C321.06,1167.34,324.63,1156.41,329.23,1155.9Zm69.83-208.77c1.74-15.77,8.7-66.69,34.37-65.46,10.9,2.26,9.52,11.72,9.71,20,.38,16.73-12.54,25.85-21.26,37.27-6.87,8.28-13.75,17-21.93,24C398.39,956.93,399.23,956.42,399.06,947.13ZM116.83,402.35a34.43,34.43,0,0,1-2.84,4.41c-5.85-10.4-14.55-19.08-15.93-31.66-5.16-21.06-6-66,26-61.6,7.12,2.15,5.81,10.56,6.52,16C133.94,355.15,127.53,379.24,116.83,402.35Z"/></g></g><g id="Red_Japanese_Frames" data-name="Red Japanese Frames"><path class="cls-7" d="M0,20V1580a20,20,0,0,0,20,20H956a20,20,0,0,0,20-20V20A20,20,0,0,0,956,0H20A20,20,0,0,0,0,20ZM924,1548H52V52H924Z"/><path class="cls-8" d="M952.1,15.41,928.69,38.83A4,4,0,0,1,925.86,40H50.14a4,4,0,0,1-2.83-1.17L23.9,15.41A2,2,0,0,1,25.31,12H950.69A2,2,0,0,1,952.1,15.41ZM40,1549.86V50.14a4,4,0,0,0-1.17-2.83L15.41,23.9A2,2,0,0,0,12,25.31V1574.69a2,2,0,0,0,3.41,1.41l23.42-23.41A4,4,0,0,0,40,1549.86ZM936,50.14V1549.86a4,4,0,0,0,1.17,2.83l23.42,23.41a2,2,0,0,0,3.41-1.41V25.31a2,2,0,0,0-3.41-1.41L937.17,47.31A4,4,0,0,0,936,50.14ZM925.86,1560H50.14a4,4,0,0,0-2.83,1.17l-20,20a4,4,0,0,0,2.83,6.83H950.69a2,2,0,0,0,1.41-3.41l-23.41-23.42A4,4,0,0,0,925.86,1560Z"/></g></svg>