<svg xmlns="http://www.w3.org/2000/svg" xmlns:xlink="http://www.w3.org/1999/xlink" viewBox="0 0 976 1600"><defs><style>.cls-1{fill:none;}.cls-2{fill:#f4f3ef;}.cls-3{clip-path:url(#clip-path);}.cls-4{fill:#50b271;}.cls-5{fill:#ffb85a;}.cls-6{fill:#997664;}.cls-7{fill:#d81e1e;}.cls-8{fill:#592116;}.cls-9{fill:#992d17;}</style><clipPath id="clip-path"><path class="cls-1" d="M960,22V1578a6,6,0,0,1-6,6H22a6,6,0,0,1-6-6V22a6,6,0,0,1,6-6H954A6,6,0,0,1,960,22Z"/></clipPath></defs><g id="Paper_Backing" data-name="Paper Backing"><path class="cls-2" d="M960,22V1578a6,6,0,0,1-6,6H22a6,6,0,0,1-6-6V22a6,6,0,0,1,6-6H954A6,6,0,0,1,960,22Z"/></g><g id="Wikipedia_Cropped" data-name="Wikipedia Cropped"><g class="cls-3"><path class="cls-4" d="M868.31,1066.27c-44.54-7.41-90.55-28.69-126.21-57.63-45.31-48.53-28-32.15-84.65-18.51-30.81,6.46-30.35-.52-45.4-24.85-1.61-4.49,4.57-11.79-3.53-13.65-28.56-4.8-57.51-16.89-75.78-37.5-4.26-7.33-12.43,1.74-18.52-1.76-75.77-19-151.36-97.2-149.64-178.91-1.36-7.49,6.29-26.28,8.89-38.68-1.17-3.87-7.56-3.67-6.05-8.55,23.37-49,32.52-129.42-9.53-165.24,21.88-4.67,47.93,19.5,64.12,33.6,44.81,29.32,40.69,98.6,72.66,112.64C543.94,693.11,585,733.44,626.9,770c45.34,44.19,79.71,94.47,112.76,147.25C751,946,755.9,927,775.78,938.55c22.71,8.43,47.7,12.29,71.58,15,25.87-6,63.37-3.48,31.37,27.24,7.88,15,24,17.11,4.09,34.79,1.54,7.66,9.79,18.84-1.9,23.84-11.66,8.82,17.35,27.72-12.61,26.9Z"/><path class="cls-5" d="M359.72,1539.76c-14,.45-20.23-5-31.32-12-6.82.59-17.38,3.8-22.13-3-13.52-18.32,11.71-47.36,31.53-52.45,27.75-10.62,61.94,2.58,76.52,27.37,3.06,10.84-13.9,9.13-20.21,8.3-7.78,5.24-20.67,5.47-24.27,14.07C368.61,1527.94,365.69,1537.39,359.72,1539.76ZM786.17,1214.4c-4.85-.56-4.85-8.65-11.1-6.86-5.62-.83-2-9.67-8.37-10.23-4.72-.38-6-5.15-10.37-5.18-9.57,4.87-16.62-6.92-25,1.42-21.43,12.71-15.88-18.48-5.2-26.94,21.81-23.94,60.06-28.28,89.8-16.21,14.61,5.62,41.82,42.08,16.52,47.29-13.15-5.46-20.46,5.46-32.49,1.86C791.78,1199.54,793.73,1212.81,786.17,1214.4ZM501.68,1010.63c-72.44-18.94-140.22-90.58-176.84-151.12-37.6-75.78-38.27-153.22-68.29-232.73-21.12-77.12-94.86-81.19-44.45-95.34,21-8.57,43-10.61,65-7.24,60.3-27,123.9-5.29,119.24,74.65,2.6,56.53-33.26,88-37.08,140.18,1.65,77.23,73.77,153.43,145,174.23,16.92,5,36.37,2.36,47.95,18.76,13,10.88,29.15,17.91,50.93,22.14,3.31.48,4.45,5.33,1.57,7.18-9.62,10.31-34.24,13.79-40.51,28.58C537.05,1003.2,514.16,1008.61,501.68,1010.63ZM333.61,540.94c-27.89,1.42-38.9,45.75-1.41,42.41C361.09,580.93,360,541.64,333.61,540.94ZM814.19,655.58c-8-1.17-5.62-15-13.92-15.14-5.3-.44-12.44-.91-16.85-4.06-3.83-4.94-11-1.08-16.22-1.4-15.66-5.34,0-30.57,8.73-35.6,22.3-22.59,61.91-18.26,87.35-3,12.91,8.71,33.61,48,12.12,56.21-7.37-1.35-11.75-9.31-19.84-6.34-5.58.51-10.87-6.27-15.51-1.07C833.19,652.58,820.88,647.72,814.19,655.58Z"/><path class="cls-6" d="M750,1604c-114.94,2.8-23.1-2.2-118.71-47-33.71-17.86-69.79-35.06-104.11-48.56-8.24-6.28,14.62-19.16,14-32-.22-8.76,6.24-13.88,15-9.5,30.77,4,15.38,44.2,42.44,52.16,43.53,15,38-25.25,68.81-30.65,62.83-16.32-26-84.58-43.55-110.31-26.76-5.51-49.94-29.08-78.44-38.93-67.39-31.38-131.63-55.31-201.34-79.31-29.8-13.85-68.72-18.71-89.27-47a6,6,0,0,0-8.73-1.76c-38.18.63-20-60.75-3.62-76.12,25.66-36.92,64.34-57.73,109.48-73.18,19.34,12.6,22.76-.76,38.88-10.88,33.14-23.58,49.75,10,64.65.66,5.43-11.16,9.42-23.4,26.41-23.71,20.66-7.18,123.8-8.85,98.4-44.25-1.81-5.46,5.73-7.52,9.56-9.74,20.21-23.65,43.78,13.16,22.24,25.1-18.83,10.68-32.15,30.6-51.35,40.84-8.59,7-30.9,6.38-30.73,19.15-20.26,31.2-68.33,46.26-87.91,77.9,64.87,24.24,130.07,43.27,191,78.37,22.35,12.08,37.58,20.1,61.3,32.82,4.91,3.05-2,11.67,5.87,13.16,16.16,3.16,30.1,10.84,45,14.64,9.9-8.4,25.08-45.82,47.12-31.91,15,15.22-7.79,47.61.65,52.93,41.57,26.33,111.11,61,139,115.38,14.81,7.91,24,12.94,38.17,20.37,22.5-5.82,4.5,153.84,9.69,165.12C985.58,1614.82,753.81,1598.55,750,1604ZM255.35,1383.27c-72.31-37.59.36-52-52.14-78.63-21.34-7.21-24.79,16.85-35.55-11.07-9.92-10.5-10-36.53-25.78-30.41-47-60-97.85-122.48-124.92-196.72C31,1017.11,58.5,1085.73,69.11,1102c27.66,39.29,51.9,81.69,91.26,113.62,16.48-5.13-15.1-70.07-13.62-88.81-14.91-92.3-51.31-182.39-50.86-276.31,40.94-5,31.44,72.43,41.23,101,18.59,89.19,44.76,179.06,69.5,267C247,1370,326.41,1320.62,255.35,1383.27ZM737,902.62c-19.32-17.74-30.28-50.33-50.31-71.25-2.31-2.38-1.91-8,2.78-8.71,67.25-40,145.11-80.21,194.16-135.16,12.09-17.82,23.64,6.22,25.69,17.8,7.8,1.59,15.54,10.52,12.87,19.88,13.26,49.74-45.85,73.1-76.81,99.3C808.69,849,775.14,880.82,737,902.62ZM679.17,565.3c-5.92-2.95-15-8.88-13.82-17.31,5.86-25.36-17.71-48.53-41.69-40.79-20.94-5.92-36.76-31.49-47-48.24-1-7.74,7.21-11.53,7.81-18.09-.32-5-3.93-14.24,2.7-16.82,21.43,16.1,40.17,39.52,60.7,58.25C711.88,548.58,738.06,515.26,679.17,565.3ZM545.93,418.57c-46.47-32.22-53.21-142.29,1.93-37.42C536.46,394.84,567.83,412,545.93,418.57Z"/><path class="cls-7" d="M309.48,1588.58c-31.67.41-24.8-21.37-56-16-81.42-1-103.17-123-10.19-123.76,5.55-.38,6.46-6.34,4.61-10.68-8.3-43.09,36-95.28,77-94.59,51.28,2.75,62.54,32.7,82.76,64.51,61.62-35.45,175.51,14.78,119.87,90.09-20.89,18.56-49.28,30.61-78.44,36.38-1.09,25.06-25.11,34.25-47,33.29-14.58.7-27.55-5.45-39.53-12.24a6,6,0,0,0-5.93,5.08C351.07,1582.28,326.33,1586.9,309.48,1588.58Zm11.71-60.95c15.53-5,32.34,29.77,41.36,14.57.12-41.53,67.44-23.19,31.15-54.41C330,1442.89,284.31,1537.29,321.19,1527.63Zm295.37-6.7c-31.53-4.27-48-23.78-34.55-57.34h0C626.19,1405.68,691.7,1504.67,616.56,1520.93ZM119.84,1501.3c-56.41,7.93-69.88-81.46-5.44-83C165.88,1422.6,168.09,1490.69,119.84,1501.3ZM607.61,1425c-27.38,1.67-44.9-48.28-17.47-57.35,16.5,2.41,21.05,17.56,26.16,29.49,36.71,2,13.34,28.24-8.69,27.86ZM193,1363c-37.54,1.7-35.24-60.9,1.89-57.5,21.09.35,26.34,17.1,27.83,33.22C220.43,1352.61,208.51,1361.72,193,1363ZM906,1315.16c-48.06.5-39.8-78.87,7.47-70,5.09,1.27,7,7,13,4.62,10.73,3,17,20.43,18.55,30.45C944.27,1299.89,925.84,1316.3,906,1315.16Zm-72.64-57.46c-18.51,1.54-35.63-11.32-48-23.33-19,19.67-50.14,27.47-73,12.18-5.07.79-7.53,6.94-13.33,2.71-30.24-26.84-100.59-34.14-107.51-86.18-6.86-51.38,56.84-77.65,96.11-52.37,17.49-32.35,44.3-69.07,88.89-65.83,38.81-.59,77.66,25.91,82.77,66.7.22,3.4,2.69,6.46,6.2,6.4,65.82-13.94,111.31,87.36,31,105.49C856,1221.65,890.32,1254.93,833.38,1257.7Zm-89.16-65.14c18.52-2.06,31.14,10.7,42.91,21.24,26.77-28.48,67.74-1.12,37.76-47.71C766.3,1116.32,684.4,1204.6,744.22,1192.56Zm-195.61-21.21c-11.83-5.11-62.39-16.39-61.71-28.72.44-20.45,19.64-35.3,38.5-39.6,20.26,3,39.28,13.37,43.24,35C571.22,1156,566,1171.26,548.61,1171.35Zm358-264.41c-44.59-1-44.67-69.36-3.38-70.83,32.19,1.25,52.94,38.67,26.13,62.26-1.39,1.72-6,2.23-8.6,1.31C915,900.35,913.52,908.48,906.63,906.94ZM708.52,740.52c-23.91,2.37-32.07-43.37-3.34-44.1C736.63,692,740.15,741.76,708.52,740.52ZM778,700.94c-14.85.45-39.94-16.83-40-29.27-1.86-9.42,7.17-19.06-1.36-24.31-57.6-5.9-83.77-95.85-14.43-108.19,9.65-4.13,21.62-.58,31.41-.64,12.92-35.45,36.37-61.85,78.71-60.11,37.86-3.33,58.75,29.78,75.56,56.71,92.34,14.26,83.76,144.38-18,130.58-1.48,43.33-49.74,36.68-72.5,12.54C805.7,686.62,797.78,702.84,778,700.94Zm-4.41-65.88c24.7-4.86,38.5,32.63,48.17,21.66,6.2-9.55,18.32-11.91,28.8-11.74,8.16-3.13,23.41,11.73,25.84-1.76,1.23-19.16-7.32-37.78-25.47-44.85-21.53-9.64-55.52-11.46-71.72,7.73C772.56,614.79,758.92,632.48,773.62,635.06ZM323.32,581.2c-32.17-8.5,1.09-52.5,24-31.23C359.85,568.9,338.74,584.32,323.32,581.2Zm308.57-9c-44.31.06-42.12-67.89,1.89-65.18C676.66,511.65,672.87,568.9,631.89,572.16ZM544.65,570c-28.26,1.48-27.7-44.25-.45-42.76C573.73,526.94,570.08,570.94,544.65,570ZM67.26,554.84c-26.19,3.08-45-11-64.48-10.09-2.32,2.36-7,.61-6.78-2.89C-.17,537.88-11.42-4.89,0-4H202.8c8.6,1-.56,15.64,8.82,16.85C272,21,335.48,60.17,362,111.53c51.2,80.87-56.62,155.66-131.31,126.68-20.57,5.73,41.8,47.19-27.33,87.2-25.11,15.91,102.28,17.07,60.37,94.2-22.54,38.17-68.14,31.25-102.8,29,36.72,60.32-29.42,109.58-93.68,106.23Zm612.45-57.21C629.3,488.35,634.46,426,682,419.58,734.51,425.21,734.36,499.19,679.71,497.63ZM562.28,460.16c-31.81-.76-29.68-35.84-8-48.43-30.48-34.46,23.76-66.94,35.26-24.58,1.37,9.46,10.27,3.64,16.33,3.09,48,1.46,16.72,63.86-17.4,33.2C574.11,429,594.39,459.92,562.28,460.16Zm360.86-29.34c-20.12,1.2-40.92-24.26-59.28-22-33,5.59-71.52,20.59-100-6.42-26.08-32.53-5.53-70.05,22.58-89.19-24.28-37.21-2.08-66.47-26.23-58.75-90.07,15.79-198.46-59.22-173-157.59C598.15,34.57,671.84,19,727.42,8.2c4-.36,5.84-4.66,5-8.2C735.28-7.56,977.13-7.53,980,0c-3.85,4,7.45,396.92-4,396.08-25.64-6.22-12.82,35-52.87,34.76Z"/><path class="cls-8" d="M976,588.15c-8-25.38-30-52.1-58.44-55.69-3-.35-8.84,1.47-10.63-4.72-17.53-69.17-119.34-72.92-148.5-11.3-2.37,6.64.13,21.73-15.67,16.39-7.29-2.46-15.65,3.45-21.11-.57-12.53-9.22-27.08-16-37.32-28.81,28.79.37,47.37-28.5,41.39-55.74-1-5.44-11.46-10.2-2.77-16.91a98.24,98.24,0,0,1,14.41-9.58c2.61-1.36,1.16-3.45,2.27-4.85-5.63-4.64-11.38,1.14-16.55,2.56-5.3,1.11-7.52,10.72-14.36,5.6-31.87-23.42-74.28,4-67.91,42.72L609,437.76c44.11-7.43,27.28-63.31-8.67-50.63-5.54,2.14-6,0-7-4.07-3.86-15.27-18.31-22.49-33.78-18.72-4.53,1.11-8.06,7.78-10.08,5.43-8.91-10.39-16.71-21.76-24.44-33.1-3.85-5.65-8.34-9.67-15.2-7.52-5.44,1.7-8.89,5.5-9.05,12.31-.83,38.72,39.73,60.36,34.74,99.89-2.77,14.53,15.91,27,30.69,23.06,1.4-.37,1.7-.64,2.9.9,8.46,10.9,16.67,21.88,27.24,31.16,5.59,4.92,18.09,10.64,4.92,22.24-8.57,7.54-2.17,29.38-23.79,25.31-1-.18-2.16.74-3.28.88-8.94,1.3-4.11-23.31-30.64-23.21-24.43.85-17.43,23.56-27.72,22.51-8.25-.73-16.7-5.86-24.68-2,.78,1.5,1.24,4,2.38,4.33,7.07,2.26,14.2,4.87,21.49,5.65,4,.42,5.91.43,6,4.79.09,11.24,19.57,20.55,30.21,17.4,14.65-4.33,17.29-27.43,37-22.35,1.55.39,3.45-.71,5.21-.91s2.82.08,3.76,2.49c10.51,27.08,42.1,30.5,60.4,14.35,2.39-2.11,5.21-7.77,6.78-5.94,4,4.62,12,6.54,10.68,15.41C669.78,614,695,639,724.78,647.27c4.61,1.29,12.86.2,8.49,10.66-3,7.15-1.64,16.36,2.43,22.62,13.18,20.24,41,32.13,64,19.2,2.36-1.33,5.89-7,10.49-2.4,29.67,30.21-27.89,56.24-47.18,74-5.91,5-8.87,1.89-12.86-2.92-6-7.32-10.44-16-18.15-22.11-13.88-8.44,12.24-12.22.8-39.87-12.23-25.73-49.79-17.08-51.88,11.87-.61,13.5,11.42,25.87,24.77,28.29,5.59,1,11.25-5.56,16.19.83,36.09,50.05,37.52,23-26.28,68.1-2.6,1.93-7.34,11.52-12,4.74C643.48,767.43,592.38,725,539.83,685c-12.59-9.62-25.68-18.38-40.41-24.92-4.78-2.11-12.31,1.55-14.21-5.11-15.94-76.31-74.64-151.52-158.29-151.81-12.64-.43-24.27,2.35-36,6.63-6.25,2.28-10.89,9-18.6,7.16-18.74-7.28-85.25,6.12-87.64,25.66-.35,2,.32,5.66,1.52,6.15,36.71,16.62,54.11,56.19,66.32,92.06C299.13,802.82,281.66,872.66,431,986.65c-18.79,1.54-39.06,8.73-45.66,28.44-.86,2.75-1.91,6.31-4,7.64-8.37,5.21-15.13,12-21.12,19.62-5.27,6.66-6.74,13.61-19,16.25-22.56,4.84-43.08,18-62.07,32.1-32.78,23.63-66.37,59.67-62.38,103.23,9.92,23.72,37.62,35.37,60.26,45.26,100.22,43.58,206.72,72.73,303,125.16,10.31,4.76-19.61,15.7-2.84,48.08,13.29,25.43,51.54,23,63.63-2.42,1.21-2.28,1.14-2.61,2.81-.76,14.11,17,48,45.57,34.18,69.52-5.14,6.81-13.76,3.93-20.94,3.63-1.65-34.25-40.88-54.67-67.93-32-8.68,6.77-14.88,19.53-28.87,10.47-4.14-2.67-11.52.35-12.8-6-2-9.84-4.13-19.35-9.57-28-27.27-40.92-87.66-42.92-128-21.85-1.24.63-2.49,2-2.64-.63-4.57-41.26-54-73.93-95.08-65.48-7.55,1.93-15.27,10.34-23.58,4-35.53-27.31-58.45-68.08-72-110.19-19.54-61.38-33.43-124.73-50.14-186.75-9.4-32.16-18.49-64.12-23.86-97.16-3.18-18.42-9.33-36.5-10.77-55-1.64-21.07-5.91-39.22-26.41-49.23-22.19-15.22-13.68,20.31-14.09,32.35.43,34.11,14.32,66.75,18.68,100.5,8.66,52.26,17.57,104.4,33.18,155.11,5.23,28.36,12.14,54.84,19.92,83-29.08-33.64-57-66.34-79.46-104.73-13.26-20.23-26.94-40.21-39.36-60.94-3.48-5.8-8.54-7.88-12.41-6.29-6.79,2.78-15,6.07-16.39,14.94-3.15,33,32.84,78.86,48.94,107.93,30.33,48,66,92.15,101.45,136.38,6.89,8.62-3.07,12.23-4.53,18.33-.38,1.59-1.14,2.1-2.83,1.63-17.1-4.75-34-9.89-50.21-17.37-1.64-.76-4.31.6-6.45,1.18-.21.06-.33,2.12,0,2.32,11.44,6.32,23,12.33,35.53,16.34,10.39,3.32,22.74,3,24.16,19.6,2.17,21.74,35.59,33,51.61,17.86,2.39-2.4,4.81-3.35,8.14-.4,9.51,8.42,19.38,16.41,29.12,24.55,1.77,1.48,2.42,2,1,5.14-16.76,34.47-.89,52.16-12.49,51.45-41.84,5-73.79,33.64-61.64,78.71-6.85-7.6-12.46-14-18.27-20.24-5-5.31-7.66-9.48-3.48-17.94,30.86-53.81-48-106.31-84.23-47.86-27.71,41,26.56,95.93,69.77,64,2.23-1.6,3.62-.93,5,.74,28.14,32.82,55.66,66.33,83.39,99.25,20,5.61-9.18-27.34-12.31-32.17,14.78,3.73,28.74,12.9,44.92,6.76,3.8-.83,8.61-1.16,9.59.32,18.39,30.09,78.27,21.39,89.75-11.37.35-.93,1.06-3.69,3.88-1.27,22.45,19.15,86.68,14.09,87.74-22.76.17-2.56,1.55-2.38,3.28-2.46,15.29-.72,29-6.59,42.62-12.91,7.72-3.57,13.67-12.71,22.83-10.93,20.73,4,38.94,15.19,58.37,23,19.59,7.84,37.31,19.23,55.13,30.5,15.11,9.57,31.41,17.22,43.64,30.92,2,2.55,5.72,3.85,8.86,1.82,6.62-3-7.1-15.31-9.5-18-45.36-33-98.12-54.67-149.59-76.66,23-19.94,11.51-39.28,23.8-34.74,13,4,24.22,7,20.75,24.43,5.94,14.14,12.52,24,24,28.46,15.16,5.85,41.31,3.1,50.17-15,4.89-8,9.3-16.2,21.95-15.3,13.07.93,25.32-12.24,23.41-25.32-4.4-36.48-37.35-57.29-59.33-83-24.92-33.13-46.1-69.06-72.85-100.87-7.84-8.1-15.71-24.82-26.27-27.69-.35,1.53-1.51,3.58-.91,4.51,4.18,6.54,8.72,12.85,13.14,19.24,23.75,30.69,48.74,59.71,67.91,93.47-38.09-25.84-81.32-43.33-123.49-62-12.29-5.76-26.2-7.81-36.42-18.52a130.42,130.42,0,0,1-25.15-38.36c-6-13.77-10.13-28.4-22.49-38.28-1.13-.9-1.91-4.25-4.56-1.79-5.35,4.91,9.67,15.71,10.47,21.9,7.19,18.32,14,36.75,29.39,56.06-13.56-7.39-25.95-6.88-32.8-17.51-10.53-23.64-31.58-40-43.37-63.14-13.22-25.56-28.52-50.24-24.94-80.89.35-6.72-7.67-6.43-8.26.09-8.23,56.57,37.84,105.28,70.51,146.88-119.15-46.8-224.1-53-78.28-175.33,3.63-3.09,11.71-5.65,9.13-9.93-3.76-6.24-8.57,1.72-13.08,3a10,10,0,0,0-3.18,2c-33,28.26-78.38,59.94-73.77,109,.11.63-.19,1.85-.5,1.92-1.35.3-3.65.87-4,.29-24-18-8.2-52,6.17-70.9,23-32.23,57.09-54.85,94.84-66.14,5-1.63,9.49-8.07,15.1-4.08,6.53,4.63,12,8.1,19.24,1.53,18-19.08,47.18-30.89,68.29-12.27a13.07,13.07,0,0,0,7.8,3c14.42-2.12,8.81-29.35,32.71-27.45,27-5.44,54.75-9.35,81.58-16.67,10.86-3.54,20.18-8.36,24.86-19.51,2.72-6.5-4.19-9.37-6.22-13.8,2.41-1.46,4.66-3.38,7.26-4.3,7.64-2.71,15.2-17.83,23.12,1,1.63,3.89,2.74,6.8,2.55,9.28-.22,2.79-2.08,5-6.67,7.53-7.46,4.06-13.83,10.2-20.48,15.67-10.23,8.43-19.11,19.54-30.69,25.08-33.76,17.08-71.65,23.44-107.8,34.66-19,4.89-38.14,9.22-57.08,14.29-3.35.9-6,4.23-9,6.44,3.89,4.34,12.2,1.26,17.44,1,41.63-9.6,83.34-18.2,123.71-32.26-24.46,21.37-50.5,39.38-75.44,60-4.89,3.8-10.93,10.62-15.22,9.78-6.44-.73-34.5-7.29-36.09-.34,0,2.43,4.13,7,6.24,6.9,102.6,17,196.38,65.35,286.77,115-38.07-4.63-75.64-10.26-112-22.41-1.94-.64-4.78,1.41-7.2,2.21,10.66,25.4,190.53,29.4,164.06,58.21-16.23,20.65-8.5,39.49,1.35,61-24.5-26.52-51.46-50.09-85.68-63-2.54-1-5.56-1.62-7.32.79-2.32,3.15,1.2,4.36,3,5.59,5.63,3.8,11.08,8.22,17.26,10.77,17.93,7.38,31.18,20.86,44.84,33.63,14.81,13.82,28.5,28.84,43.15,42.84,2.12,2,6.89,1.29,10.44,1.84.09-1.4.72-3.09.17-4.15-8.71-17.68-19.64-34.44-27.1-52.71-2-6.2-2.54-12.38.53-18.1,11.62-21.64,14.9-49.34,41.06-62,19.35-9,15.59,28.2,9.46,38.53-6,8.07-6.34,17.3-5.29,26.55.31,2.75,4.3,7.6,5.26,7.3,6-2.38,1.16-13.38,2.62-18,49.76,26.28,93.18,61.17,135.16,101.42-14.42-7.3-26.88-11.93-41.36-18.09-2.7-1.12-6-2.25-7.94.72-2.38,3.69,1.39,5.3,3.68,6.46,30.57,14.14,59.92,30.68,89.73,46.35,4.45,1.69,8.53-1.23,5.66-6.27-37.19-43.06-85.72-75.29-130.64-109.87-10.56-7.53-22.18-13.56-33.29-20.34a2.23,2.23,0,0,1-.87-1.94c16-8.35,36-10.47,53.82-14.27,3.9-.63,3.8.88,3.91,3.48,1,23.68,37.3,42.4,57.64,29.79,37.08-17.71,26.8-74.36-12.46-78.77-16.72-2.07-30.3,5.29-39.63,18.24-4.57,6.19-3,18.52-12.52,20.4-19.82-.45-40.09,6.53-58.22,15-1.93,1-7.47,2-6.54-3.5,1.68-9.84,5.27-19.34,4-29.67.36-7.84,12,1.8,16.29,1.86,19.13,5.71,51.11-.13,60.43-21.74,1.44-3.38-1.26-9.88,5-10.13,48,3.22,83.28-48.3,51.48-88.3C917,1121.8,892,1107.75,865.62,1114c-.77-15.51-7.29-29.44-17.06-42.46,7.13,1.29,13.82,4.42,19.38,3,8-2,20.75-3.69,18.39-15.37-1.8-8.9-9.26-14.72,2.12-23.85,6.3-5-2.62-13.07-9-18,17.43.71,24.27-20.9,8.07-29-6.07-2.75-5-5.84.66-9.5,6.27-4.08,10.94-9.09,7.32-18.74-9-23.76-42.65-12.36-62.48-16.73-28.39-3.1-55.19-11.54-81.83-20.8-5.17-1.79-6.81-8.35-8.39-13.58-.93-3.07,2.72-3.18,4.32-4.4,18.46-14.14,36.59-28.79,55.82-41.82,20.53-19.59,19.69-13.44,46-11,10.09.39,20.17,10.18,17.88,18.38-2.47,24.59,19.48,43.12,44.23,41.49,45.65-9.33,51.62-65.37.5-79.35-13.81-5.11-27,3.47-36.51,15.29-1.16,1.44-3.82,3.49-4.72,3.06-11.46-5.52-23.34-9.38-36.54-10.15,14.82-9,26.62-21,41.49-29.08,25.08-15.7,64.88-50.7,57.2-83.36-7.47-28.82-14.85-37.18-37.56-56.16C944.65,674.86,992.23,642,976,588.15ZM543.23,565.92c-20.29,0-22.07-33.29-.51-34.66C571.07,530.15,562.73,569.82,543.23,565.92Zm165.7,170.6c-18.88,2.55-28-34.86-3.51-36.11C730.71,696.62,735.73,736.54,708.93,736.52ZM77.27,1444.36c7.28-11.28,15.75-21.16,37.3-22.06,12.73,2.32-6.41,13.3-2.49,19.15.16.24-.93,1.13-.9,1.68,1.51,22.82-12.64,9.34-20.58,8.39C87,1451.16,73.2,1450.39,77.27,1444.36ZM123,1496.81c-24.41,3.8-44.84-8.69-48.7-34.77-.37-2.14-.11-4,2.5-3.49,22.38,4.58,45.77,12.39,60.06,31.26C132.26,1492.18,127.76,1494.81,123,1496.81Zm21.66-16.15c-1.42,2.77-3.12-.31-4.25-1.46-4.13-4.21-7.77-9-13.5-11.23-17.06-6.5-4.27-18.51-5-27.93-.21-2.72,2.21-5.56,3-8.47,2.47-9.65,8.62-4.59,11.65-1.85A38.61,38.61,0,0,1,144.66,1480.66ZM192.92,1359c-17.25,3-34.25-29.67-17.11-24.79,11.67,3.85,18.05,13.68,24.56,23.16C201.25,1358.66,200.85,1358.94,192.92,1359ZM217,1327c-3.89,8.48-34.31-1.88-43.11-2-1.84-.29-3.83-.44-2.5-2.68C180.86,1303.82,213.4,1305.36,217,1327Zm-5.53,24.84c-5,4.55-10.46-9.22-14.25-12.15,7.47-.94,14.23-3.23,21.57-1.87C217.55,1343.12,216.14,1348.28,211.47,1351.84Zm38.65,23.27c-8.4-6.34-17.76-11.82-24.76-19.46-4.33-4.73,1.1-12.31,2.49-18,5.27-26.27-27.47-48.84-49.53-33.6-11.4-10.93-52.68-119.89-66-110.51-5.38,3.75,2.21,7.75,4.14,11.27,9.59,17.54,19.13,35.08,25.44,54.37-18-28.32-40.59-52.94-58.75-80.88-25.53-32.72-44.32-70.1-61.28-107.85-2.13-5.77-.66-12.61,5.89-16,8.31-4.17,11.27,3.87,13.88,7.91,8.72,13.49,15.58,28.18,24.1,41.82,32.57,52.55,73.33,98.89,115.75,143.66,2.29,2.35,6,3.63,8,6.84a4.86,4.86,0,0,0,2.35-.93c3-2.63.71-5.59-.86-6.86-15.89-12.84-19.51-30.52-22.67-49.53-9.54-28.22-14.9-58.67-21.22-88-8-50.5-25.15-99.07-32.67-149.52-5.12-36.52-19.68-71-14.58-108.49,6.21,5.74,15.91,8.47,18.76,16.36,7.73,27.38,8.82,56.71,14.61,84.61,6.26,42.17,20.23,82.62,31,123.54,6.93,33.93,16.44,67,25.82,100.27,10.95,34.69,18.18,70.58,35.27,103,13.72,27.5,33,50.22,56.14,69.93,3.76,3-7.33,8.19-9.28,10.75-.31.24-2.05-.87-2.72-1.68-7.3-8.84-14.5-17.74-21.84-26.55-1.05-1.25-2.1-2.51-3.16-3.76-2.18-1.47-6.2,1.63-5.83,4.08a5,5,0,0,0,1.31,3.24c7.19,8.2,12.37,18.06,21.13,25s-.35,11.7-2.88,16.64C255.18,1382.48,252.56,1377,250.12,1375.11Zm88.09,201.36c-17.87,13.49-73.28,10.82-58.11-22.09,8.27-15.85,23.51-21.11,39.48-22.67C348.52,1533.65,367.26,1564,338.21,1576.47ZM430,1558.9c-19.25,6.35-38.27,7.37-57-1.91-14.18-7.45-3.48-30.65,6.8-37.48,13.6-8.6,28.49-9.41,43.08-1.53,6.63,3.58,14.18,5.67,18.15,13.41C446.43,1541.88,441.42,1555.16,430,1558.9ZM525,1495.15c-11.42,10.9-65.49,43.42-77.46,29.91-7-6.71-9.78-13-5.73-22.72,5.18-17,9-34.61,17.75-50.46,1.13-2.5-.38-3.77-2-4.9-6.54-3.56-24.56,51.76-24.47,59-.39,2.31-1.52,5.58-3,4.64-3.77-2.43-11.65-1.91-11.29-6.29A193,193,0,0,1,438.22,1435c1.68-3.41,1.79-7.4-1.47-9.11-2.86-1.5-3.4,2.59-4.49,4.55-11.3,20.35-20.32,42.22-20.31,65.22,0,14.29-7.8,5.58-13.67,9.27-3.55-23.74,1.65-48.88,8.44-72,3.69-8.32-4.89-10.85-7.35-2.36a178,178,0,0,0-10.53,70.28c.49,10.59-9.61,7.13-13.72,11.61-1.3,1.41-1.24-5.47-2-8.48-3.58-13.51-2-27.29-1.77-41,.28-16.1,2.41-32.18,3.79-48.26.2-2.44,2-6.67-1.11-6.44-2.49.18-6.38,4.55-6.71,7.41-2.21,18.92-4,37.89-4.51,56.9-.3,9.9-.27,19.81.19,29.74,2.1,14.6,6.27,19-3.24,33.52-11.05-32.2-15-61.36-14.76-94.45-.54-10-1.35-19.94-1.85-29.92-.13-2.55-1.56-2.45-3.31-2.46-3.91,0-4.82,3.55-4.67,5.7,2,39.84.23,81.14,15.35,118.87.55,1.21.35,2.77-1.3,1.89-20.43-6.35-20.65-29.7-26.3-47.05a310.4,310.4,0,0,1-10-58.82c-.07-1.07-2.18-2-3.34-3-8.46,18,1.85,48.63,6.21,67.7,2.7,9.57,3.88,19.59,8.91,28.44.24.43-.59,1.47-.92,2.22-4.48-2.46-10.86,2.74-14.08-2.28-14.93-21.17-21.39-46.21-30.59-70.13-.79-2.17-1.67-1.11-3-.61-3.38,1.28-3.85,3.7-2.81,6.65,7.17,20.45,11.45,42.33,24,60.26,8.19,11.7-5,9.25-6.91,14-13-17.23-24.6-35.3-41.64-48.91-1.79-1.58-4.69-4.74-7.75-1.84-3.36,3.19.81,5,2.24,6.52,4.87,6.07,45.36,47.94,37.21,52.23-9.74,7-8.23,28.55-18.81,28.22-77.93,3.62-112.81-104.74-24.14-115.84,10.24-.56,19.16.81,14.3-16.07-8.11-39,35.07-90.53,72.8-89.5,31.46,3.17,57.42,15.63,70.21,47.08,2.92,7.06,4.27,23.1,15.44,17.31,36.33-17.72,86.87-16,115.85,15.17C540,1442.31,543.08,1479,525,1495.15Zm81.74,10.38c1.12,15.06-8.6,7.36-15.35,1.67-7.44-6.89-13.16-14.92-9.44-27.38C611,1484.9,617.65,1474.73,606.7,1505.53Zm-20.58-34.74c-4.23-.7-1.07-4.44-.49-5.44,8.23-14.47,32-19.58,46.23-10.4,2.88,1.86,4.12,3.39.77,5.51-7.22,4.57-10.27,16.65-18.42,13.48C602.17,1472.65,594.08,1472.11,586.12,1470.79ZM618,1516.72c-4.93,1.29-3.06-3.63-2.77-5.37,3.73-17.32,11.22-35.72,26-46.17C656.69,1485.49,640,1513.05,618,1516.72Zm-3.8-113.66c6,.56,16-2.19,17.79,3,.87,3.85-5.41,9.18-10.76,11.62-12.32,6.42-26.19,3.11-34.53-8C594.6,1405.34,606,1401.53,614.19,1403.06Zm-23.78-31.37c9.93.89,15.62,12.59,20.21,20.65-8.3,1.69-17.09,1.38-24.59,6.42-1,.7-4,.54-4.54-.26C576.57,1392.13,582.8,1372.06,590.41,1371.69Zm329.06-107c7.07-21,10.63-6.51,16.22,0,4.21,4.88,3.73,10.9,5.39,16.35,1.25,5.84-2.89,10-5.25,14.11-2.69,4.76-4.27-1.41-6.33-2.34C913.58,1285.63,913.9,1281.26,919.47,1264.7Zm-41.35,5.38c4.52-14.19,20-23.7,34.65-21,4,.73,2.55,4.1,1.72,5.3-5.53,8-5.62,17.47-7.9,25.38-8.11-1.59-16.24-3.7-24.49-4.59C878,1274.71,876.75,1274.38,878.12,1270.08Zm10.29,14.67c13.86,3,27.14,7.94,38.29,17.33,6.59,5.07-15.24,9.68-18.61,9-15.73.86-26-8.07-30.4-21.26C874.53,1280.49,885.08,1284,888.41,1284.75Zm36.86-437.4c11.94,7.63,10.76,17.19,12.6,29-2,5.4-9.43,26.79-17,17-14.51-14.39-4.23-28.26.44-42.21C921.89,849.56,924.86,847.1,925.27,847.35Zm-43.86,5.94c5.15-8.66,14.15-14.61,21-13.22,25.54,1.76,4.66,11.57,7.82,16.75.47.76-1.35,2.69-1.65,4.17-4.61,22.64-11.9.94-17.26.22C888.6,860.84,878.36,858.41,881.41,853.29Zm1.33,13.83c11.43,8.41,23.07,16.58,28.48,30.64,2.42,6.29-2.56,4.47-4.58,5.18C876.8,902.67,866.21,856.4,882.74,867.12ZM711.08,439.75c14.56,16.69,2.77,49.09-18,52.73-3.85.73-5-.32-3.78-3.42C694.62,456.49,684.75,465.19,711.08,439.75Zm-29.94-16.27c6.2,1.41,13,2.32,18.19,5.64,13.77,8.86-5.76,9.18-4.43,15.16-3.56.61-5,3.81-6.85,6.07-4-6.54-4.24-14.76-10.51-20-1.23-1-1.56-3.13-2.3-4.73C677.22,424.85,679.42,423.09,681.14,423.48ZM665.35,430c2.79-.22,7.16,6.87,9.12,11.33,8.75,17.66,7.45,34.81,5.24,52.26-15.28-1.19-26.61-14.28-31.81-28.18C644.45,455.7,654.83,430.87,665.35,430Zm-59.13-35.81c24.84-3.32,27.76,32.93,3,33.32C587.2,429.07,584.6,396.19,606.22,394.23Zm-38.63-22.59c26,.06,23.41,37.9-4.88,35.3C542.85,403.06,544.79,370.33,567.59,371.64ZM512.92,359.9c-2-4.63-3.59-23.33,4.88-18.45,9.22,12.65,17.93,25.67,26.43,38-5.94,12.81-.78,21.4,6,29.69,1.83,2.24-1.11,2.73-2.09,4-1.83,2.37-3.39,1.41-4.52-.32C532.42,395.76,519,380,512.92,359.9ZM565.29,456c-28.79,4.12-32.32-36.62-5.43-37.65C583.59,416.14,586.64,453.8,565.29,456Zm38.33,85.37c-4.45-14.78,13-31,27.66-30.37,6.64,0,12.55-.65,6.15,9.14-5.29,5.2-.76,30.18-13.22,23.27-1.78-1-4.57-.1-6.82-.48C612.67,542.13,605.67,545.58,603.62,541.37Zm39.15,24c-16,8-29.54-1.48-38.56-14.7,14.64,1.68,28.18,1.92,39.06,11.71C645.33,564.27,644.63,564.28,642.77,565.41Zm13.76-10.93c-1.06,1.75-3.24,2.82-4.91,4.2-2.65-4.94-10.19-6.16-10.46-12.68-.44-10.69,3.77-20.54,6.62-30.51C661.59,525.92,665,540.52,656.53,554.48ZM679,561.25c-3.2-4.29-10.78-6.23-9.68-12.58,5.8-24.47-15.69-52.21-41.57-46-17.05,4.29-29.56-25.48-41.09-34.51-8.8-7.69-7-13.15-.23-20.69,5.1-5.65-1-13.27,1.5-19.48,37.64,38.75,75.22,78.31,121.61,107.77-11.47,6.92-22.92,12.73-28.77,24.94A2.23,2.23,0,0,1,679,561.25Zm97.45,135.66c-13.16-.52-34.51-16.15-34.44-25.21.18-23.7,8.86-32.65,31.68-32.64C819.13,640.29,824.78,696.64,776.42,696.91ZM439.59,993.83c6.6-.81,14.42,6.64,21.36,10.87,2.35,1.42.19,2.14-1.48,2.24a351.24,351.24,0,0,0-64.35,7.63C406.05,998.77,423.29,995.85,439.59,993.83Zm151.53-50.27c-21-4.45-37.53-16.12-53.16-29.19-4.06-3.4-3.58-12.23-5.18-18.57,43.08,22.75,89.37,45,139.34,45.12,10.3.34,20.33-4.7,31.09-.15,5.95,2.53,13.15,2.13,21.88,3.34C674.6,956.87,640.23,958,591.12,943.56Zm-55.19-74c-.26-1,4.93,1.11,7.6,3,10.56,7.4,22.9,10.89,35.1,14.43,10.54,3.06,22.87,3.18,31.46,9,21.11,14.41,39.35,25.34,64,35.42-50.44-4.5-96.33-21-139.33-46.16C528.36,881.11,537.42,875.27,535.93,869.56Zm4-16.75c5.26-2.75,2.53-9.57,6.1-13.54,11.54,14.2,24.17,27.56,40.21,40.08a213.24,213.24,0,0,1-45.68-19.27C537.14,858,533.52,856.15,539.89,852.81Zm6.61,314.29c-18-6.75-36-13.46-53.86-20.37-2.86-1.1-1.09-4.16-2.08-8,1.77-4,3.53-9.56,6.85-14,21.09,4.25,42.06,22.64,51.2,42.56A9,9,0,0,1,546.5,1167.1ZM504.37,1116c6.47-3.84,14.69-6.23,21-8.92,23.76,6.54,26.88,1,13.41,24.66-.71,1.21-1.39,4.38-3.84,2.15C526.2,1125.28,514.71,1121.75,504.37,1116Zm41.8,29.53c-5.06-5.92,5.13-19.46,8.86-24.87,12.72,11.23,14,33,2.83,45.66C554.89,1159.09,551.91,1151.74,546.17,1145.48Zm19.38,29c-2.57-1.37,1.63-6.24,3.18-9.06,29.08-66.45-71.16-94.29-86.26-25.31-2.52,7.46-9.9.1-14.71-.63s-9.11-4.28-14.38-4.75c-1.11-.1-2.1-1.46-3.14-2.24,58.06-44.66,116.56-88.64,172.36-136.12,6.7-6.06,6.4,11.17,15,7.15,3.6-2-.28-5.77-1.54-7.89-6.55-11-13.88-22-20.65-32.53,19.87-5.34,21.8,14.14,31.2,23.53,4,4,7.07,8.92,10.8,13.22,1,1.21,2.51,4.26,4.54,1.53,4.17-7.82-14.19-25.45-16.56-34.5,1.51-.6,3.11-1.88,4.51-1.69,10.75.5,15.91,9.54,21.91,17.53,2.63,1.91,8.92,11.91,11.67,9,6.82-4.76-9.58-20.36-12.14-26.34,10.88-2.1,22.51-5.46,27.62,6.39,19.25,27.49,43.93,51.66,74.42,66.79-38.49,2.09-76.91,26.52-82.33,66.81-.13,2.5-1.37,3.57-3.37,1.53-16.51-14-36.56-14.09-55.8-11.42-37.87,7.11-58.31,60.47-36,91.58C584.77,1182.61,574.73,1179.37,565.55,1174.5ZM769,1242.63c-21.54,14.95-57,10-62.28-16.13,0-28.73,38.25-36,60-25.18C784.53,1209.38,785.62,1232.78,769,1242.63Zm101.56-10.2c-9.6,32-74.7,26.33-80-6.61C796.06,1187.28,872.19,1196,870.51,1232.43Zm-17.64-130.72c6.83,20.58-2.78,23.74,21.47,19.18,30.67-2.61,66.76,29.24,61.76,61.7-5.06,20.93-20.28,30.6-40.86,37.06-21,6.6-22.48-15.45-35.6-19,3.44-6.22,37.65-41.72,27.7-46.08-6.08-1.09-7.23,6.47-10.35,10.4-8.23,10.36-16.08,21-24.53,31.2-1,1.24-4-2.87-10,1.31,7.6-9.51,31.91-55.1,22.31-58.92-2.94-.75-3.83,3-4.51,5.2-5,16.13-13.81,30.46-21.32,45.39-2.27,6.46-9.39,4.27-14.08,3.21-2.48-.44,1.57-2.91,2.18-4.73,5.9-17.51,12-34.94,17.72-52.52.58-1.81-1.59-6.45-2.36-6.43-6.41.24-5.62,6.85-7.12,10.42-3.21,7.65-6.16,15.4-9.06,23.17-3.87,10.33-7.65,20.69-11.84,30.88-.91,2.21-6.7,3.85-9.83,3.32-3.35-.56-.39-3.69.1-5.84,2.78-12.3,6.84-24.35,9.56-36.67a109.08,109.08,0,0,0,2.93-24.74c.39-5.29,5.15-17.09-.9-19.56-4.13-.54-4.57,6.16-4.94,9.13-5.32,31.54-10.15,62.71-25.15,91.56.8-35.6,2.94-69.32-1.29-104.18-.48-3.87-4.11-10.81-4.88-10.62-5.5,1.35-3.51,6.21-3,10.08,3.15,25.69,2,51.52,1.81,77.3,0,5.24-1.6,10.48-3.27,20.58.41-8.53-3.24-9.81-5.19-9.87-10.93-.31-6.68-7.71-7.52-13.58-1.41-9.93-.9-20-1.39-30-.36-7.42-1.26-14.8-3.91-22-3.43-5.25,1-19.86-6.39-20.87-2.45.09-2.22,2.53-2.14,4.31,1,24.2,4.95,48.19,4.26,72.48,1.45,7.64-8.16,6.89-10.1,1.26-5.51-17.72-7.17-36.51-16-53.17-3.81-4.82-5.86-19.27-13.45-17.14-1.27.37-2.25,1.88-1.32,4,4.65,10.8,10,21.43,13.23,32.66,3.31,11.68,4,24,7.77,35.62.24.74-6.26,4.33-10,5.49-3.38,1.06-1.74-2.5-2.37-4-7.89-18.92-14.92-38.32-29.15-53.78-1.69-1.84-3.79-5.86-6.5-3.16-4.09,4.08.76,8.13,2.67,11a146.79,146.79,0,0,1,19,39.67c2.44,5.13,10.39,12.6,3.33,18.15-2.28,1.57-3.67-.8-4.86-2-9.26-9.49-39.38-42-52.29-38.73-.24,1.91-1.05,3.94,1.31,5.76,13.39,10.33,26.82,20.67,38.38,33.14,21,16.77-11.23,14.52,11.29,48-26.92-14.28-53-31.16-81-43.92-17-8.3-25.26-22.82-27.76-40.31-6.36-45.1,50.2-72.91,86.92-49.2,10.54,5,13.42-.38,15-6.59C714.48,1034.14,832.2,1028.28,852.87,1101.71Zm-100-161.19c13.09-8.26,20.9,4.5,31.5,5.72,23.08,3.69,45.82,12.49,69.56,10.82,7.39-1,14.78-2.62,22.2-2.79,5.58-.13,11.09,2.39,10.61,9.32-.41,6-4.32,9-10.72,9.52-14.45,1.13-28.74,2.81-43.35.39-19-3.14-37.47-7.61-55.37-14.74-4.36-1.07-20.09-7.11-21.9-1.64-.24.83,2.08,3,3.61,3.66,20,9.3,39.48,19.08,62.46,20.89,14.19,1.12,28.39,4.31,42.64,2.94,7.26-.69,22.58,7.59,23.88,15,2.63,21.61-63,2.88-74.71-.3-17.59-5-33.42-13.6-49.62-21.57-6.35-4.66-10.84.91-3.64,4.75,31.76,25.11,73.58,33.41,113,37.19,6.74.61,11.57,5.14,9.71,12.36-1.23,4.75-6.86,4.52-12.64,5.28-35.68-7.33-72.14-19.77-103.5-39.21-15.64.65,36.07,28.55,39.88,29A343.31,343.31,0,0,0,862,1043.6c5.77,1.17,12.61,4.08,15.81,11.71,2.65,6.32-1.41,6.46-4.48,6.74-26.18,1.68-48.69-14-72.6-22.16-40.13-15.33-69.53-46.26-98.26-77.07-2.59-2.69,1.69-2.53,2.64-2.67C722.65,957.55,738.28,949.75,752.9,940.52ZM740,933c-57.34,4.72-105.32-34.4-149.77-65.18a234.46,234.46,0,0,1-79.45-114.35c-1.06-2.67,1-8.56-3.8-7-13.53,7.68,17.26,60.59,21.8,71.39-29.12-15.25-57.21-32.3-81.8-54.44-12.84-9.94-20.73-23.93-30.66-36.27-1.5-1.86-3.64-5.73-7.44-3.12-4,2.74-1.16,5.92.36,8.16,27.41,39.26,66,70.26,108.61,91.67a53,53,0,0,1,13.85,10.58c2.48,2.52,5.47,8.82,4.63,9.62a12.47,12.47,0,0,1-14.55,2c-20.14-11-40.55-21.68-59.81-34.11-18.31-11.82-35.25-25.72-47.31-44.56-1.41-2.2-2.5-5.65-6.29-5.53,11.67,50.66,70.92,67.37,109.49,93.64,4.93,3.09,12.32,8.49,7.92,16.78-6,11.41-13.3,2-19-.39-31.87-12.82-56.14-36.56-82.13-58.08-1.79-1.39-3.38-4.67-6.12-2-8.45,4.91,48.33,52.12,55.83,54.3,12.78,6.94,25.68,13.65,38.46,20.58,5.05,2.58,16,16.45,10.58,20.95-18.74,4.82-57.38-19.56-73.43-30.53C404.68,843.69,367.86,792,368.57,733.8c.57-40.57,27.89-58.73,64.9-47.35,9.44,3.49,14.73-2.91,4.73-7.27-45.65-21.5-85.46,9.23-82.89,59.89,1.05,49.47,28.4,92.46,62.4,126.89,32.32,30.17,71.16,52.73,115.66,56.68,5.89.8,11,8,16.3,12.44,15.26,12.8,33.24,19.22,52.74,23-10.38,7.44-21.23,14.26-33.28,18.59-8.29,2.46-10.06,12.26-.28,12.8,4.23,1.6,12.42,1.45,11.37,5.92-1.44,6.06-8.07,10.15-15.23,11.59-21.32,4.28-42.64,8.57-63.86,13.28-9.81,2-19.22,5.23-29.16,7-8.44,1.48-13.66,8-15,16.8a8,8,0,0,1-5.52,6.66c-3,1-3.81-1.92-4.95-4.26-17.64-23.58-58.87-3.24-74.85,15.15-6.24,5.63-13.08-2.63-7.86-8.32,30.06-48.9,95.06-27.49,139.11-45.6-1.16-.84-2.39-2.45-3.78-2.67-25-4.14-46.17-16.43-65.2-32.34-39.72-33.58-81.09-68.39-105.58-115.07-36.37-72.48-39.24-156.83-68-232.14-10.78-29.32-27.31-58.43-52.95-77-3.13-2.58-11.11-4.47-9.66-6,19.73-11.27,47-19.07,69.67-14.92a29.33,29.33,0,0,0,10.21.56c11.56-1.32,21.1-8.71,32.58-9.87a130.49,130.49,0,0,1,51.31,4.43c56.69,16.71,97.83,71.29,110.22,126.89,4.9,21.15,22,18.79,33.22,27,42.4,28.46,81.55,61.79,119.19,96.3,37.56,35.21,66.36,78.2,95.76,120.13,8.09,11.75,15,24.3,22.43,36.54C743.86,932.08,742.73,932.73,740,933ZM899.06,689.72c7.46,6.9,4.92,23-3.23,28.57-20,16.79-40.75,32.61-63.12,46.28-37.77,22.88-71.77,51-107.32,77-7.56,7.84.8,13.4,7.36,6.28,49.45-39.69,101.92-74.58,153.1-111.9,9.27-7.4,19.63-13.18,26.64-23.15.37-.53,1.25-3.19,2.17-1,1.76,4.17,6.17,8.21,3.24,13.15-5.91,10-14.66,17.35-24,23.93-23.68,16.62-47.32,33.31-71.28,49.53-6.37,5.26-34.06,18.27-31.42,26.91,1.76,3.2,3.23,1,4.93-.17,41.49-30.3,89.82-52.31,124.81-90.57,1.6,50.19-88.71,86.69-122.09,119.43C779.61,869.52,759,883.27,739,897.82c-3.3,2.4-4.2-1.27-5-2.58-13.58-22.89-27.45-45.58-44.18-66.38-2-2.48,1.33-2.28,2-2.66,23.22-13.8,47.08-26.59,69.67-41.34C800,761.54,836.73,735.47,873.23,709c1.49-1.1,4.67-2.14,2.86-4.72-1.74-2.35-3.76-.91-5.84.41-18.12,12.11-36.47,23.88-54.74,35.76,7.91-5.61,9.93-14.22,11.59-23.13,2-10.79-4.26-17.77-11.16-24.24-6.11-5.26,2.3-13.13,6-5.89,14.78,17.93,40.27,19.41,58.84,9.44C888.8,691.53,888.89,678.29,899.06,689.72Zm-15-13.4c-5.23,25.13-45.41,20.47-58,2.75-8.67-10-2-25.45,10.12-27.86,5.08-.83,9.93-3.76,15-1.92,11.46-2.11,18.78,6.33,27.05,11C882.1,662.43,884.72,671.09,884.05,676.32Zm85-64.11c-2,33-42.4,55.9-73,48.29,5.58-8.55,45.14-32.41,37.92-42.85-2.58-2.18-3.83,1.69-5.51,3.12-13.7,11.58-27.43,23.14-41,34.84-1.37,1.19-1.92,1.57-2.85-.09-.86-.87-2-1.42-.65-2.62,14.61-16.1,22.66-36.44,34.58-54.3,1.64-2.46,2-7.13-1.63-8.88-3-1.45-2.94,2.26-4.14,4.11-11.42,17.79-22.87,35.58-34.86,53-3.46,5-6.3-2.49-10.07-2.27-3-1.41,9.62-16.27,10.31-20.15,3.46-6.78,24.29-57.57,13.67-58.92-1.42-.12-3.89,4.14-4.76,6.78-6.89,20.93-12.44,42.46-25.35,60.67-2.27,3.21-.38,10.66-8.12,9-10.62-2.21-3-9.25-2-12.16,6.22-18.29,11.68-36.79,15.11-55.82.47-5.65,3.15-28.35-3.7-29.52-2.17-.16-1.91,2.4-2.15,4.23-2.79,20.95-5.65,41.94-13.32,61.73-6.36,11.41-3.48,37-21.33,35.81-2.86-.13-.1-5.25.65-8.28,5.28-21.22,20.37-89.89,1.71-104.23-.83,1.7-2.52,3.5-2.34,5.09a221.31,221.31,0,0,1-.11,49.22c-2.47,21.45-7.56,41.58-12,63.51-11.56-14.88-2.11-30.52-3.79-45.29-1.63-10.11-2.17-53.91-11-57.25-5.23-2.12-.77,29.15-.19,32.42,3.65,16.39.49,33.17,1.49,49.69.11,1.81-1.93,3.74-3,5.62-3.1-4.35-12.86,1.64-12.29-6.87,2.17-16.52.17-32.65-3.13-48.85-1.15-4.79-3.32-21.3-10.67-17.67-5.79,3.87-.73,9.34.47,13.35,5.19,17.38,4.33,35.3,5.13,53.13,0,.22-6.14.69-9.41,1.08-2.79.33-2.67-1.46-2.79-3.43-.91-15.73-5.33-30.89-10.55-45.65-1-2.77-2.72-9.38-7.27-6.61-5.44,3.3-.42,8.92.53,13.3,3.09,14.42,7,28.67,9.83,43.13.24,1.18-4.48,4-7.28,4.94-2.08.68-2.64-1.92-3.32-3.93-.73-6.25-22.1-43.09-28.63-36.59-2.22,2.46-1.83,5.14.55,7.51,10.51,11.52,20.08,25.6,22.08,41.2-24.5-7.93-52.81-19.21-56-48.43-2.59-32,7.34-45.36,38.2-53.33,7.84-2,16-3.42,24.63-.4,12.06,4.22,12.3-6.64,14.86-13.83,17.31-57.52,105-62.6,130.88-9.43,7.57,9.76.93,21.37,12.59,19.71C943,539,969.5,577.37,969,612.21Zm7,981.12a17.88,17.88,0,0,1,1.46,2.49c-.49,1.24-.9,3.08-1.28,3.08a9.31,9.31,0,0,1-4.69-1c-26.71-16.33-49.2-37.47-71.86-59-37.31-35.45-60.66-81.27-99.23-115.17-2.31-2.44-7.62-5.74-4.11-9.33,4.47-4.56,7.77,2.05,10.64,4.11,44.38,32.92,65.21,87.71,107.7,121.94-25.53-53.59-40.74-112.62-74.3-162.49-4.79-6,1.25-11.86,5.61-4.29C901.13,1440.31,901.18,1541.54,976,1593.33ZM652.57,244.26c35.24,16.55,75,24.81,113.85,17.68-1.12,16.37-1.19,32.78,9.8,47,.92,1.2,3.18,2.67-.6,4.52-24.56,12.73-38,40.73-30.91,67.92,5.32,45,62.59,54,98.21,41.36,38.77-16.92,57,28.68,92.59,16,27-9.11,40.52-34.54,33.32-61.43-4.54-32.13-44.05-63.91-71.24-33.79-9.46,9.62-15.85,21.28-12.17,35.25,1.12,4.24,2.15,12.23,8.17,11.56,3.33-.37,1.48-7.73.94-11.89-2.44-18.77,16.89-34.37,29-33.77,57.07,12.23,36.69,111.32-24.28,73.91C865,388.69,832.75,421.1,795,412.92c-30.62-4.6-40.79-25.35-38-54,.32-18.31,15.59-26.8,26.88-37.73,22.49,9.33,44.26,15.54,68.48,4.83,21.69-16.13,12.92,5.8,33.3,0,9.51-3.4,16.19-11.46,29.26-9.81,58.34,1.06,40.11-103.53-13.25-63.05-11.06,10.78-24.34,14.55-39.34,11-22.93-5.36-43.05,10.33-39.36,31.05.13,5.15,11.8,12.31,11.6,4.15-5.15-4.34-3.83-9.18-1.52-14.29,3.64-8.08,10.65-10.57,18.61-11,15.39-2,23.81,18.82,13.31,29.68-17.1,17.73-48.17,21.37-69.13,8.66-14.65-11.29-19.14-28.55-19.59-45.8.38-5,2.79-9.47,10.65-11.66,6.44-1.8,12.13-6.09,18.43-8.54,13.37-5.18,18.13-23,36-22.41,15.93-.36,26.51-18.66,44-16.22,28.52-11.21,42.24-57.37,14.67-76.31-6.24-3.69-3.39-5.34-1.26-9,34.1-44.29-2.73-109.33-58-105.2-26,1-49.5,11.46-71.62,25-22.81,14-40.32,34.92-64,47.74-9.6,5.91-30.92,4.47-27.46-10.33C681.91,66.05,687,52.76,700.36,45c5-1.92,2.14-9.93-3.12-7-20,5.57-40.06,42.39-26.26,59.61,17.12,19.8,44.13,4.26,59.39-9.33C759,66.31,786,42.36,823,34.28c67.37-16.72,100.31,54.46,49.78,96.93-24.61,20.1-71.66,43.2-93.82,9-15.53-25.4,8.91-48.94,34.16-55,7.68-2.1,15.51.28,18.76,7.36,3.32,7.23-3.43,13.19-7,19.12-4.51,5.83-1,9.51,5.23,6.07,9.69-6.35,18-22.24,11.25-32.81-5.19-8.28-13.1-13.87-23-13-32.57.46-70.29,36.3-53.5,69.58,4.25,7.52,9.29,12.54-5.6,14.06-37.5,8.94-6.38,60.91,31.76,45.49,5.09-.11,3.37-8-1.4-6.58a38.66,38.66,0,0,1-24-1.85c-8.33-3.39-14.42-9.83-12.2-19.48,1.63-7.07,8.61-7.28,15.08-8.48,10.12-1.87,18.69,2.79,28,4.08,19.08,2.65,33.79,27.64,24.78,44.36-27.82,45.8-91.6,45.69-136.78,29.66C606,224,557.66,129.71,608.58,61.39c28.13-33.54,94.2-46.34,136.61-50.53,3.4,0,8.7-.95,8.93-5.73-8.22-12.29-51,.79-64.31,2.69-32.57,5.76-66.69,21.32-89.78,46C549.27,115.22,582.63,213.19,652.57,244.26Zm259.08,13.08c10.72-4.22,24.13-2.29,26.63,8,2.3,7.62,6.28,16-.6,23.9-6.48,7.42-10.81,17.73-23.46,16-2-.28-3.55.14-2-3.29C925.53,273.33,895.76,266.47,911.65,257.34Zm-37,53.23c6.72-8.18,7.94-19.12,4.85-29.12-.71-2-5.3-6.08-.25-8.29,41.16-15.23,26.59,50.84-5.88,40.79C873.82,312.81,874,311.47,874.69,310.57Zm-6.51-158.24c6.49-3.78,11.76-9.59,17.78-14.25,4-3.12,6.82.75,9.18,2.87,6.71,6,7.57,14.81,9.79,21.88,0,13.64-19.34,37.63-30.58,37.2-3.69-.14.73-5.13,1.12-7.79C885.16,156,855.65,162.49,868.18,152.33Zm-44.61,17.1c10.89,0,19.75-8.58,30-7.86,26.63,4.09,7.63,56.64-14.88,50.91-2.12-1.56-1.57-6.75-1.91-8.7,1.6-13.8-4-22.87-12.36-30.74C823.23,172,820.9,169.44,823.57,169.43Zm-44.1,1342.45a128.82,128.82,0,0,1-10.74,55.44c-4.89,11.48-12.09,22-18.73,32.68-.77,3.5-7.59,4.17-8,0,18.12-28.68,31.24-62.48,28.68-97.31-1.35-21.32-2-43.32-16.19-61.42-5.08-6.08,2.22-8,5.95-3.65C779.29,1459.34,778.07,1484.85,779.47,1511.88Zm-34.33-26.07c-1.35,36.49-26.21,60.7-54.54,65.2-2,.31-4.77.73-5.41-2.14s1.76-3.18,3.85-4.11c40.59-14.24,58.48-61.48,33.28-97.86-33.8-56.27-84-100.16-126.22-149.91-1.4-1.57-5.26-3.48-1.72-6.74,3.81-8.32,44.9,43,51.55,47.81C684.63,1381.43,739.9,1424.14,745.14,1485.81ZM442.25,1193.08a30.4,30.4,0,0,0-3.06.88c18.55,14,36,29.3,48.25,49.25,4.69,8.18,29.53,37.2,22.16,45-2.22,2.21-3-.41-3.64-1.37-24.45-38.75-51.45-77.23-92.16-100.31-8.63-5.16-19.43-6.16-27.47-13.34-24.35-19.52-13.94-56,11.39-68.63,9.95,3.28-19.41,20.54-14.74,41.73,1.89,15.38,12.24,22.57,25.58,26.61,41.41,12.83,87.66,18.23,122.82,45.58,3.93,3.25,10.13,9.34,7.58,12-4.78,4.89-9.06-2.92-12.6-5.63-14-10.72-29.9-17.48-46.64-21.33C467,1200.52,456.35,1190.45,442.25,1193.08ZM333.6,536.94c-31.85,2.35-45.43,49.34-5.21,50.12C365.18,589.44,367.55,538,333.6,536.94Zm13.26,24.25c-.79,12.14-8.51,16.24-20.52,15.74-10.12,1.69-12-4.7-11.3-13.55C314.12,545.93,348.63,542.86,346.86,561.19ZM264,544.06c2.78,2.77,1.15,5.66-3.19,5.12-6.57-1.19-24.11,2.82-25.34-5.7.54-3.33,3.4-5,7-5.28C251.23,535.26,259.2,538.23,264,544.06ZM97.8,559.31c44.62-5.47,99-49,77.93-98.22-3.6-6.19,6.89-3.52,10.19-3.93,34.32,4.35,72.56-11.14,89.34-41.76,17.1-44.67-23.86-79.95-65.36-85.09,10.4-4.64,16-12.49,22.36-19.46,14-16.31,13.56-38.73,7.28-57.62,31.31,2.42,59.68,4.6,87.76-12,41.35-21.77,71.64-70.78,51.94-116.54C356,68,300.93,29.61,243.19,13.87,227,8.45,210,5,192.89,6.94c-5.19-1.39-5.23,5.13-.74,6.12,39.54,7,80.15,16.21,112.47,41.08,66.7,48.91,101.87,125.85,13.47,175-40.57,18.9-101.84,15.6-124.41-27.86-4.55-8.61-6.12-19.59,1.31-28.59,15.95-24.16,64.78-13.49,59.81,17.68-.9,3.67-.1,4.78,3.58,4.78,7.29,0,13.14-11.32,11.09-18.75-2.67-9.65-10.39-14.65-16.51-21.12-19.81-18.47-60.69-11.77-72.9,12.31-.63,1.42-1.67,1.65-3.42.12-15.84-10.28-34.71-13.81-53.11-16.89-30.67-4.1-62.14-3.34-87.17,16.3-23.11,17.79-22.52,39-2.89,56.95,30.8,28.67,77.08,22.29,110.73,46,31,27-12.16,54.3-39.94,53.26-17.88-.12-34.69-7.22-52.48-6.32,5.85,17.05,50.39,17.4,66.71,21.05-13,9.38-29.33,14.24-30.25,36-.87,20.63,22.71,42.4,39.7,43.24,16.58.49,11.64,4.38,14.07,15.57-104.63-30.09-96.55,75.8-30,72.43,49.52-1.43,18.56-64.14-16.72-45.54-4.77,2.16-6.58,9,.59,9,7.28-3.35,14.59-2.76,21.29.59,11.7,5.05,16.39,21.74.09,24-41.58,12.29-62.08-52.79-17.49-52.41,12.46.93,25-.73,37.2,4,41.31,15.63,39.11,54,9,81.2-37.59,30.38-92.7,31.49-136,13.32C6.12,536.61-2.4,539,0,545.6c13.7,6.37,29.18,13,43.9,14.81C61.64,561.85,79.75,562.52,97.8,559.31ZM145,173c6.76-.23,27.78,4.2,29.91,10.57a40.18,40.18,0,0,0,4,20.68c5.93,11.94-4,12.36-10.93,14.52-10.31,3.24-41.32-6.85-48.13-15.31C110.12,190.27,128.79,170.2,145,173ZM169,296.81c4.31-45.9-47.75-53.88-81.35-62.31-19.76-3.51-68.43-22.23-49.75-49,20.18-26.3,53.55-25.37,83.33-24.28,2.06,0,5.74,1,6,2.27.72,2.79-2.49.87-3.78,1.76-25.65,14.58-29.11,46.89,1.63,57.25,15.69,6.58,37.44,14.58,52.62,2.81,8.55-6,14-.91,18.55,4.27,6.74,7.68,16.52,10.83,23.6,17.81,14.42,14.07,16.9,29,9.05,46.66-14.66,33.44-60.24,42.47-90.54,33.84C152.39,325.16,167.45,309.44,169,296.81ZM99.25,370.25c1.7-11.77,12.91-15.5,21.47-21.11,13.73-9,29-6.14,45.27-5.89-19.44,14.75-21.42,31.86-12.19,52.26C143.56,428.08,93,397.17,99.25,370.25Zm54.27,58.52c-8.05-8.56,2.81-30.89,15.54-21.71,16.93,11.7,60,1.84,53.35-24.26-3.59-7.87-8.67-16.71-20.27-15.92-6.92-.43-14.27-.33-18,7,1.66.32,3.44,1.2,5,.87,10.06-2.12,20.24-.45,23.06,9.6,2.51,8.94-6.58,13.2-14.4,16.35-16.83,6.77-41.05-10.26-38.46-28,2.46-16.82,16.29-24.21,30.19-29.36,29.63-9.63,70.7,14,77.91,44,2.48,10.44-.28,20.42-6.93,30.07-16.29,24.36-38,30.21-68.74,30C177.4,449,164.66,442.67,153.52,428.77Z"/></g></g><g id="Red_Japanese_Frames" data-name="Red Japanese Frames"><path class="cls-8" d="M0,20V1580a20,20,0,0,0,20,20H956a20,20,0,0,0,20-20V20A20,20,0,0,0,956,0H20A20,20,0,0,0,0,20ZM924,1548H52V52H924Z"/><path class="cls-9" d="M952.1,15.41,928.69,38.83A4,4,0,0,1,925.86,40H50.14a4,4,0,0,1-2.83-1.17L23.9,15.41A2,2,0,0,1,25.31,12H950.69A2,2,0,0,1,952.1,15.41ZM40,1549.86V50.14a4,4,0,0,0-1.17-2.83L15.41,23.9A2,2,0,0,0,12,25.31V1574.69a2,2,0,0,0,3.41,1.41l23.42-23.41A4,4,0,0,0,40,1549.86ZM936,50.14V1549.86a4,4,0,0,0,1.17,2.83l23.42,23.41a2,2,0,0,0,3.41-1.41V25.31a2,2,0,0,0-3.41-1.41L937.17,47.31A4,4,0,0,0,936,50.14ZM925.86,1560H50.14a4,4,0,0,0-2.83,1.17l-20,20a4,4,0,0,0,2.83,6.83H950.69a2,2,0,0,0,1.41-3.41l-23.41-23.42A4,4,0,0,0,925.86,1560Z"/></g></svg>