<svg xmlns="http://www.w3.org/2000/svg" xmlns:xlink="http://www.w3.org/1999/xlink" viewBox="0 0 976 1600"><defs><style>.cls-1{fill:none;}.cls-2{fill:#f4f3ef;}.cls-3{clip-path:url(#clip-path);}.cls-4{fill:#6060bf;}.cls-5{fill:#50b271;}.cls-6{fill:#ffb85a;}.cls-7{fill:#592116;}.cls-8{fill:#992d17;}</style><clipPath id="clip-path"><path class="cls-1" d="M960,22V1578a6,6,0,0,1-6,6H22a6,6,0,0,1-6-6V22a6,6,0,0,1,6-6H954A6,6,0,0,1,960,22Z"/></clipPath></defs><g id="Paper_Backing" data-name="Paper Backing"><path class="cls-2" d="M960,22V1578a6,6,0,0,1-6,6H22a6,6,0,0,1-6-6V22a6,6,0,0,1,6-6H954A6,6,0,0,1,960,22Z"/></g><g id="Wikipedia_Cropped" data-name="Wikipedia Cropped"><g class="cls-3"><path class="cls-4" d="M484.14,940.8c-21.54-13.28-39-33-59.84-48-30.59-16.47-46.94-71.49-64.43-68.52-48.3,30-106.11,5.12-158.57,10.83-9.84-4.22-37.53,18.65-38.23,3.06,2.69-4.19,7.92-10.37,1.87-14.2-9.81-75.84,119.43-246.09,179.67-122.32,4.14,12.25-7.86,12.16-16.08,11.1-36,2.88-80.56,15.63-91,41.57,11.43,7.54,25.49-10.36,39.87-12.77,27.75-7.32,58.77-22.56,82-7.08,6.49,8.93,33.62-22.85,50.48-18.13C432.29,715,451,723,465.52,738.79c23.41-22.67,61.88-22.76,92.6-10.73,16.43-3-20.58-63.33,24.23-61.45,27.61,3.09,60,8.08,90.58,21.59,23.55,6.08,41.59,33.4,61.5,31.6-5.53-32.36-60.5-49-84.5-59.31a400.63,400.63,0,0,0-54.83-11c-6.43,1.1-18,2.94-17.09-4.58,16.59-93.72,151.23-36.76,169.9,33.41,3.51,15.53,26.91,54,9.83,68,4,12.22,16.34,25-7.81,22.17-42.67-6-82,2.74-124.34-6.89-82.85-37.37-7.24,10.07-49,76.61C556.57,879.79,523.35,920.47,484.14,940.8Zm-13-201.44c-8.9.63-5.35,10.31-2.83,15.46,10,26.2,14.14,51,15.61,76.86C490,1019,528.14,762.79,471.14,739.36ZM437.94,663c-19-18-11.67-57-2.8-81.71,3.8-21.13,44.49-38.7,47.61-11C478.6,604.67,458.53,638.27,437.94,663Zm-85.16-72.35c-30.2-24.91-4.46-89,29.76-102.11C440.66,476.38,371.42,579.83,352.78,590.66ZM534.35,551c-28.39-4.84-62.67-24.59-63.27-57.73-1.91-8.54,2.42-23.45,15.79-22.75C504.79,469.32,556.91,541.7,534.35,551Z"/><path class="cls-5" d="M590.55,1604c-14.52-1.26-54.7,1-68.81-.1-9.35-1.94-38,7.17-26.65-12.86,19.51-170.32,22.59-341.2,45.62-511.2,4.4-67.34,13.56-133.54,24-200.09,9.07-43.12,36.4-75.36,25-121.71.56-14,18.21-.17,25.38,1.84,4.53,2.93,10.77.37,15.16,4.89,8.49,3.88,26-1.13,32.37,7-17.24,101.77-37,211.81-40,316.73-14.3,132.55-5.85,117.75,43.28,5.71,58-101.78,116.82-194.49,193.37-281.5,12-12.29,120.41-133.09,112-94.79-53.58,69.58-93.7,149.46-138.12,225.05-24.15,40.58-42.59,83.53-59.7,127.39-5.7,20.52-22.47,41.68-15,59.84,26.43-12.11,42.21-46.5,64.94-64.08,40.12-36.76,81.55-90.4,131.09-109.57-66.73,86.43-150.68,172.12-192,278.77-76.41,190.93-48.2,125.69,57.26,23.75,37.59-32.78,79.34-58,121.89-83,37.38-10.73-19.51,30.64-22.92,40.67-67.94,85.51-133,182.49-151.26,290.6C739,1644.78,823.52,1595.17,590.55,1604Zm-175.64,0c-38.72.06-107.72-.08-146.57,0-3-5-72.24,7.44-68.27-4.94,18.34-108.78-13.42-233.6-55.22-333.86-27.94-55-48.64-97-92.21-149.72-65.47-67.85-6.12-32.37,31.46-6.47,40.4,29.54,90.82,72.61,125.68,113.83,77.1,121.51,60.63,90.63,34.92-24.51C195.27,1038.9,129.06,878.52,19.16,752.84c44.78-.1,87.53,50.37,121.54,76.73,101.88,85.58,147.22,221.35,211.32,329.6,11-71-20.53-153.43-31.83-226.49,2.93-18.71-35.66-89.91-19.3-92,23.8-1.56,44.06-5.46,62.59-18.95,15.27,16.58,24.75,42.3,40,52.6,11.5,10.34,15.7,24.15,19,37.4,40.37,179.32,66.75,367.06,55.5,550.67.37,48.69-5.69,91.5-13.88,138.63C465.33,1608.18,417.28,1602,414.91,1604ZM235.6,675.76C192.86,616.25,161.91,533,108.84,475.65c-7-16.44-106.21-95.24-85.11-99.33C167.63,416.15,269,543.1,334.34,669.56,327.7,690.31,305.22,628.92,235.6,675.76Zm471.57-56.44c-43.54-33-81-9.84-50.37-59.53,59.38-131,142-250.26,253.29-343.13,9.74-7.62,64.45-60.66,65.63-38.52C848.69,304.14,765.47,456.08,707.17,619.32Z"/><path class="cls-6" d="M493.14,908.51c-11.92-7.54-3.41-28-6.16-40.19-2.92-46.27-6.38-99.11-30-138.21-11.17-13.91-43.95-8.15-32.79-33.64,3.25-11.93,22.95-60.23,36.7-38.19,16.35,23.8,39.47,56.8,13.61,76.45,22.85,33.56,28.75,78.38,24.4,120.46C495.72,870.89,506.22,898.1,493.14,908.51ZM231.32,762.7c-13.17-13.25,40.66-36,54.4-41.11,20.22-10.88,42-8.31,61.94-6.4-5.81-37-16.24-70.14.79-107,11.16-38.11,54.76,83.24,19.49,116.54C326,726.87,273.91,736.91,231.32,762.7Zm327.44-34.94c-17.67-10.31-38.46-1.62-39.44-30.06-.83-20.5,1-50.64,18.74-67.74a6,6,0,0,0,3.21-7.23c-4.95-21-8.08-49.45.17-69.45,32,21,34.67,65.28,35.24,89.73,5.48,13.17,30,4.27,42.77,10.26a266.17,266.17,0,0,1,71.47,25.19c7.89,3.45,65.73,41.37,41.5,45.39-18.84-13.82-39.24-28.1-63.16-37.52-34.2-11.08-71.85-24-104.22-16.27C546.43,692.53,568.41,722.34,558.76,727.76Z"/><path class="cls-7" d="M728.07,577.28c19.69-46.92,39.35-94.49,62.08-140C841.63,344.37,904.89,256.54,978.81,180c11.29-6.42-.45-16-9.28-10.31-45.93,23.92-80.44,64.41-119.65,97.55-82.19,78.14-141,176.05-190.43,277.38-4.55,9.26-7.42,19.52-13.06,28-3.52,5.28-2.44,15-8.79,15.87-23.79,1.85-41.48,12.37-57.83,29-3.58-16.26-7-32.47-16.13-47-4.78-7.52-14.71-12.12-16.08-20-5.16-29.85-19-54.62-40.72-74.87-31.32-30.18-52.18,9.68-36.37,36.52,10.76,23.67,30.45,33.52,53.19,40.87,4.29,1.39,13.29-.1,12.47,4.16-3.7,19.23-5.6,38.17-1.37,57.5.77,3.5,2.08,9.21.46,10.47-18.63,18.34-22.12,45.51-21.7,70.29,0,8.41,10.51,22.64-10.65,19.75-.86-.11-2.34,1.66-2.76,1.39-3.09-2-7.91,6.08-8.73-.06-3.58-26.58-15.34-48.59-34.42-67-1-1-1.56-.68-.6-2.84,9.44-21.24,26.3-39,29.9-62.91,1.62-10.75,4.23-23.85-6.48-30-31.64-16.06-55.67,24.68-55.75,52.8-1,18.59-2.88,36.91,6.19,54.38,1.38,2.65,4.81,6.34,2,9.9-6.89,8.71-9.49,18.92-12.68,29.28-1.29,4.19,6.32,12.43-3.47,12.59-17.67-.65-25.18,1.52-40.64,9.91-1.34-6.38,6.38-11.14,7.51-17.25,9.13-31.54,1.33-67.14-15-95-3.15-5.38-11.36-10-8.23-16.48,4.15-8.55,11.61-15.45,17.28-23.32,14.3-21.36,53-68.8,22.21-89.54-45.92-3.15-77,62.95-59.1,101.62C342.93,588,353.16,593,347,602.45c-7.88,18.25-13.34,36.35-11.85,58.16C306.59,604,269.87,555,228.36,507.88a311.9,311.9,0,0,0-45.75-47.64c-48.15-41.89-105.89-73.7-167.5-91.07-3.36-.9-7.39.19-10.93,1.09-.91,1.34.1,3.67,1.63,5.26,14.76,13.66,29.55,27.32,43.61,41.68,31,33.63,63.34,66.26,89.12,104.11,31.29,43.92,55.29,92.8,81.48,139.87,6.54,10.37,9.49,24.6-4.87,30.83-16.22,20.63-30.7,42.3-39.68,67.23-7.37,20.44-15.53,40.59-16.67,62.76-.62,12-2.78,14.07-8.12,10.8-32.54-30.61-97.6-91.41-143-91.84-1.19.17-3.57-.17-3.57,1.1a55.52,55.52,0,0,0,10.4,14.11c70.36,68.35,112,160.42,154.34,247.52,45.09,99.58,79,202.41,98.85,310.17-31.32-73.53-74.63-122.42-135.78-171.81-23.62-20.58-99.53-86.6-130-70.67,43.59,34.15,75.6,81.36,103.55,128.64,70.15,117.19,101.82,255.89,94.64,392-.5,2.63-.2,7.35,3.89,7,5.59-.69,1.82-10.75,3.59-14.69,11.29-182.56-55.79-372-182.13-505,42.2,18.77,81.87,50.4,116.37,82,62.78,51.91,115,120.34,133.72,200.93a1374.8,1374.8,0,0,1,14.87,173.24c2.14,19.82.5,40,.73,60.09,0,1.13,2,2.24,3,3.36,7.84-42.85,2.81-89.27.91-133.26-.59-25.68-4.15-51-8-76.37-17.61-143.2-60.16-284-123.4-413.66-39.89-78.27-75.13-160.17-140.9-221.2,45.63,13,80,47.9,115.24,78.09,104,95.32,162,229.56,216.57,357,4.65,10.53,1.14,23,2.9,34.17,6.24,54.52.21,109,1.49,163.68l-2.14.27c-13-58.67-19.26-118.76-39.92-175.51-29.32-88.76-62.86-179.26-120.31-254-1.39,4.87,1.65,8.13,4.14,11.63,19.46,32.63,38.84,65.38,54.28,100.22,46.74,98.06,75.44,202.74,93.85,309.52,9,33.17,8.68,67.09,6.07,101.07,1.47,40.6-5.67,80.45-9,120.31,7.51-2.13,9.38-29.28,10.95-36.91,3-37.9,6-75.84,7.25-113.84,9.52-120.11,4.76-240.48-9.36-360-8.59-62.39-23.89-123.69-36.35-185.32-5.53-19.61-12.61-38.77-19-58.13-.51-1.55-.51-2,1.71-2.15a177.69,177.69,0,0,0,32.1-4.61c3.48-.83,10.72-8,13.62,1.25,21.81,69,44.14,137.9,50,210.37,27.51,148.56,17,299.83,18.9,449.88-1,32.76-8,66.14-4.92,98.47a8.68,8.68,0,0,0,2.84,2.73c6.39-18.31,4.26-39,7.16-58.24,1.52-20,3.73-39.93,3.89-59.92-3.07-49.64-1.43-99.18.92-148.81-.26-44-3-88-2.86-132-4.17-29.39-4.46-59.37-8.16-88.73-2.9-18-5.95-36-7.65-54.15-5.63-57.49-18.3-114.13-36-169.08-3.63-11.83-9-23.31-11-35.38-1.51-9-16.61-19.05.65-28.68,3.3-1.85,2.33-3.73,4.49.44,9.38,18.14,20.39,35.38,35.63,49.07,28,26.54,35.45,142.52,46.75,185,30.71,156.5,34.15,316.89,22.57,475.61-2.18,17.51-4.76,34.84-9,51.94-.86,3.45-4.43,8.24-.85,10.22,4.45,2.13,7.74-4.09,8.66-8,7.59-32.27,11.12-65.17,12-98.26,2.05-79.76,3.83-159.72,1.3-239.45-4.72-42.55-10.23-85.53-6.75-128.66,1.5-30.29,2.12-61.82,6.52-91.64,7.47-28.9,5-81,26.38-102,18.65-16.11,34.29-33.48,50.69-52.42-9.52,75.3-20.57,148.37-25,223.95-7.31,73.56-18.62,147.12-23,221-6,89.5-8.13,179.08-18.22,268.3-.28,2.75,1.1,4.35,3.84,4.34,2.93,0,2.28-2.4,2.28-4.22,0-9.23,2.48-18.14,2.89-27.46,14.85-106.26,14-214,23.58-320.77,18.82-121.09,22.13-243.91,43.14-364.63,2.87-28.81,22.92-50.58,26.47-79,2.23-12,1.15-23.54-1.88-35.22-.83-3.22.55-7,.91-10.55,5.68,3.47,13.51,4.35,18.74,7.91,4.91,4.52,17.65-1.61,15.89,11.24-.85,6.2-3.38,12.15-4.87,18.27-20.26,86.79-38,174.55-46.81,263.34C572.87,1149.75,563,1243,560,1336.62c-1.73,17.44-1.06,35.1-6.87,52.17-11.17,40.2-19.18,81.3-26.1,122.36-2.12,11.73-2.9,23.69-4.5,35.52-1.22,17-11.08,39.53-2.81,55,2.71.71,3.21-2.58,3.56-4.59,5.83-37.62,12.18-75.17,17.63-112.85a1549.48,1549.48,0,0,1,94.24-312.36c32-80.61,77.92-154.77,127.52-225.65C820.42,858.53,887.41,777.9,969.83,711.8,923.26,772.11,889.84,841,849,905.27,833.27,934.57,817,963.8,801.16,993c-15.75,39-34.09,77.15-46.37,117.43-3.35,12.7-6.81,25.53-12.07,37.5-16.73,24.76-36.31,49.07-53.41,74-21.26,33.15-38,63.5-56.92,99.34,36.22-117.66,89.87-225.75,142.4-336.4,7.07-17.83,17.47-34.34,26.31-51.48,1.65-2.78,5.81-8.37.73-10.26C726.89,1057,660.41,1196.52,619.14,1344.5,597,1400.41,570.75,1455.27,553,1513c-4.52,18-26.15,77.66-16.8,90.51,9.28-9.35-1.25-5.08,5.77-20.3,27.36-102.6,65.86-203,118.21-295.57,43.65-74.12,93.15-144.92,153.89-206.2,43.14-44.41,85-88,137.31-122.34-108,114.18-201.73,246.76-237.34,401.65-.56,5-1.32,9.75-3.82,13.74-11.31,18.07-22.21,36.31-33,54.71A470.21,470.21,0,0,0,627,1586.93c-1.67,5.61,5.94,9.79,7.29,2.08,5.26-20.36,8.81-41.29,14.46-61.58,43.72-152.48,160.51-281.36,302-349.84-32,27.74-56.19,63.29-81.06,97.64-49,68.61-92.23,147.66-106.22,231.54-1.87,16.14-16,74.23-4.78,83.8,4.2-.07,4.36-5.37,4.39-9.34.14-16.74,3-33.19,6-49.58,6.66-32.78,11.75-66.71,22.88-98.23,24.26-53.78,50.32-107.59,86.4-154.59,13.49-17.82,28.12-34.85,40.52-53.39,15.73-23.13,36.57-41,57.15-59.23,10.68-7.21,1-11.45-6.37-6.53-101.52,42.34-185.76,112-250.37,201.69,11.07-27.51,15.75-50.87,27.57-77.19,15.41-36.55,32.11-73.09,50-108.44,46-84.69,111.37-156.73,175.88-227.65,4.41-3.63,1.93-10.29-3.62-7.11-84.55,43.26-144.34,119.65-210.64,186.29,7.42-32.13,22.19-59.87,34.5-89.84,20.92-55.85,52.06-106.58,82-158,34.34-53.85,60.17-113,100.93-162.55,4.16-4.87,2.19-19-6.59-12.83-12,9.18-25,17.41-35.95,27.71-132.65,125.61-239,279.56-311.6,447-.55-.72-1.61-1.45-1.59-2.15-.14-26.85,4.69-53.33,6.77-80,5.27-100.44,14.4-201.31,38.37-299.23,2.87-11.08-1.59-28.09,20.13-26.5,28.35,2.08,57.37-3.46,84.85,8,3,1.19,12,4.83,10.4-1.52-17.54-53.29-19.28-115.31-65-154.57-1.11-1-2.63-3.17-2.25-4C719.57,605.36,722.84,590.92,728.07,577.28ZM575.42,659.41c6.05-11.82,32-3,43.25-2.22,42.12,9.56,91.48,26.83,116.11,63.43-43.25-34.81-97.09-54-152-57.48C578.52,665,570.23,667.41,575.42,659.41ZM542.76,557.06c21.39,20.5,39.14,73.35,25.55,97.13-5.33,3.26-6.9-4.12-9.34-7.08C537.32,620.87,539.8,590.18,542.76,557.06Zm-12.21-10.52c-17.69-5.66-37-12.69-47.41-29.76-4.13-7.49-9.69-14.62-7.9-24.19-1.09-6.89-.28-14.39,6.52-17,21.26-7.84,50.74,49.63,55,66.78C538.68,548.33,533.8,547,530.55,546.54Zm4.74,91.37c.89-1.89,3.18-3.11,4.47-4.32,6.87,9.95,11,21.52,22.5,27.73,3.91,2.11-.34,5.72-1.49,8-8.94,17.4-11.14,35.05-2,54.48-10.25-5.42-19.93-7-29.32-9.63C515.1,694.59,525.78,658.86,535.29,637.91Zm-76.74,23.88c12.72,16.28,22.3,34.13,24.08,58.26-.79,6-9.81,7.25-15.12,12-3.44,3.07-4.49-3.95-7.41-5-11.91-4.26-9.11-12.3-7.48-21.84,1.82-10.69-1.84-21.25-8.31-30.51-6.08-8.71,3.42-12.94,6.78-18.08C453.13,653.48,456.85,659.62,458.55,661.79ZM438.76,583c5.42-11.43,11.26-21.46,25.38-22.79,7.88-.75,13.93,1.06,14.61,10.06-.32,25.17-15.67,43.93-26.39,64.59-4.86,7.92-7.76,17.63-14.42,24.14C426.51,644.37,430,600.13,438.76,583Zm-9,108.57c.62-5.74,4.86-11.09,7.45-16.55,7.07,9.91,7.46,20.52,8.07,31.58.69,12.47-5.58,10.2-12.26,7.51C419.84,708.8,429,699,429.79,691.58Zm-76-170.06c4.68-13.89,46.06-51.44,47.17-17.86-2.8,30.7-28.48,54.49-44.06,79.68-2,3.7-5.75,4.48-7.62.13C340.53,562.11,343.46,541.19,353.77,521.52Zm.23,82.15c23.89,34.43,35.25,82.34,10.52,119-1.48,2.45-3.91,2.38-5,0C339,684.23,338,644,354,603.67Zm-9.47,119.22C303.87,726,266.38,738.2,231.32,758.7,253.29,737.08,315.57,702.76,344.53,722.89Zm-159.88-142c-21.88-37.51-44.17-74.84-72.73-107.76-27.22-32.92-61.15-60.64-88.69-92.77,134.8,34.14,247.18,170,307.24,290.27-16.76-11.15-32.67-20.07-54.19-16-8.49,1.2-7.88-8.76-11-13.63C233,586.84,204.37,529.58,160.53,483.54c-9.44-9.6-19.79-18.3-29.87-27.25-1.27-1.13-3.41-1.27-6.27-2.26,59.91,57.07,102.5,126,139.4,199.19,1.69,3.11.7,2.9-1.76,4.09A93.68,93.68,0,0,0,245.74,667c-18.21,14-16.49-6.7-20-12.84C211.67,629.93,199.85,604.49,184.65,580.84Zm-18.59,236.9c13.53-59.55,52.57-154.88,124.8-154.51C325.63,662.39,353.21,712,336,709c-71.63-1-134,49.87-167,109.77C168.57,822.29,165.83,820.65,166.06,817.74Zm141.75,82.09C329,987.06,347.23,1072.7,353.56,1163v-.77c.68,4.15.85,5.23,1,6.3l-1,.08c-17.18-52.24-43.55-97-67.07-145.7C254.09,962.17,220,900.32,170.4,851.8c-3.51-3.15,1.2-4,2.75-4.59,36.6-12.84,76.23-8.31,113.9-3.8,6.51.92,5.93,8.68,7.62,13.38C299.76,870.89,304.65,885.21,307.81,899.83Zm38.72-73.17c-20.35,8.66-42.15,11.47-63.42,7.74-27.31-4.78-54.51-3-81.77-3.32-11.64-.12-22.44,4.87-34.88,9.19,34.28-56.64,90.35-98.52,156.39-105.56,11.41-1.32,37.82-9.77,34.23,10.8C335.22,804.66,377.51,817.68,346.53,826.66Zm22.65-9.23c-29.57-57.4,7-114.73,73.5-92.11,14.29,5.27,17.16,19.35,21.93,31,12.43,30,14.24,62.89,17,94.83,3.23,18.51-.79,37.19,2.66,55.71,1.69,9.11.54,18.76.64,28.16,0,2.24-.9,2.12-2.36.91C440.58,900.39,393.61,868.3,369.18,817.43Zm75.2,172.67c-7.8-29.45-13.62-59.23-20.66-88.86,16,10.74,30.46,23.51,45.8,35.12,2.08,1.61,3.07,3.7,2.26,5.5-11.36,29-16.29,52.15-22.27,84.26C447.53,1011.05,447.56,1000.06,444.38,990.1Zm42.13-33.33C475,1013.66,469.1,1066,466.11,1125.83c-2.63-19.44-4.13-35.92-7.27-52.08-2.67-13.8-5.74-27.21-1.87-41.31,7.54-26,11.3-53,20-78.55.84-2.95-.55-9.1,2.61-8.08S486.83,953.13,486.51,956.77Zm8.35-55.53c0,1.09-1,2.18-1.55,3.27-.74-1.84-2.09-3.67-2.13-5.53.15-43.13-1.76-86.47-13.68-128.32-2.74-9.27-4.89-18.62-9.68-27-1.25-2.19.41-2.44,1.13-3.48,1.7-2.49,2.07.18,2.61.79C508.33,786,491.9,847.84,494.86,901.24Zm91.21-103.42c-11,55.93-49.24,97.12-90.43,134.18,12.9-44.52,20.47-165.62-19-195-3.94-2.16,1.06-3,1.13-3.06,32.73-18.43,89.37-12.74,104.08,25.62A89.1,89.1,0,0,1,586.07,797.82Zm72-9.69c-19.6,79.69-30.71,161.67-35.14,243.56-5.09,60.75-9.67,121.74-14.52,182.44-1.81,12.38-9.36,23.83-13.57,36-9.52,28-18,56.32-26.81,84.53l-1.6-.09c11.42-140.82,10.67-283.08,38.82-422,10.32-46.93,19.73-94.06,31.29-140.68.77-3.54,4.17-1.36,6.32-1.67,1.52-.22,3.17.81,4.77.85C661.56,771.37,662.22,774.31,658.06,788.13Zm92.64-23.64c-41.36-6.06-83.06,2.63-124.23-6.86-36.84-8.58-83.43-45-56.62-85.07,2.13-2.4,8-1.42,12-2,51,4.27,99.82,20.09,140.32,51.84C735.86,732.1,745,745.87,758,755.86c1.92,1.48,1.9,5.47,2.78,8.3C757.41,764.31,753.91,765.12,750.7,764.49Zm-6.47-84.67c7.71,18.32,12.89,37.28,17.07,58-38.88-57.87-98.43-84.29-165.39-92.83-4.82,2-14.17,1.51-14,.77,2.82-29.11,26.14-45.38,53-47.13C683,598.57,726.19,636.62,744.23,679.82Zm-37.06-64.5c-6.35-3.83-12.49-6.53-17.27-10.77-3.58-3.18.14-7.91,1.52-11.32,8-19.82,16.3-39.53,24.37-59.31,12.61-29.93,30.37-57.84,45.45-86.68.8-1.56,1-5.12.33-5.42-2.11-1-2.09,1.65-3,2.86C724.33,491.5,703.93,546,682.76,599.44c-1.46,3.53-4.33-.41-5.71-1-7.85-3.6-15.81-6.44-24.41-7.51-4.86-.61-4.43-4.76-3.18-7.27C706.89,465.27,770,344.51,872.1,258.41c32.52-28.92,60.53-63.36,100.75-83.06C849.88,301.3,759.51,446.51,707.17,615.32Zm68.21,760.33c-38.5,60.86-61.88,131.38-74.36,202-1,6.13-.66,12.81-5.62,17.32-3.37-2.8-4.91-6.35-4.14-12.85,5.46-33.22,16-70.25,25.77-104,15.78-49.21,40.71-94.22,70.14-136.39,23.89-36.06,50.61-69.8,81.88-99.79,1.34-1.41,1.87-.52,2.74.24,2.47,2.16.7,3.78-.7,5.42-12.22,14.35-24.83,28.4-36.57,43.13C813.37,1318,793.9,1346.6,775.38,1375.65Zm-134.57,41c-23.35,57.89-37.44,119.06-48,180.54-1.22,3.73-7.6,5.74-5.76-.74,10.63-88.55,38.86-174.49,77.31-254.69,20.06-40,39.2-80.18,61.74-118.84,9-14.68,16.49-31.49,29.84-42.54-17.85,42.5-44.95,76.87-61.32,119.52C676.06,1338.46,654.54,1375.84,640.81,1416.67ZM353.74,1164.92c-.32-.57-.13-1.15-.18-1.87ZM273,1596.45c2,6-5.88,5.93-6.05.27,1.16-25.49-.79-50.77-2.41-76.17-2.43-130.78-63-251-139-354.39-.7-1.05-3.09-2-1.1-3.44,2.65-.67,5.28,2.47,7,4.43,39.78,48.25,72.22,103.94,98.55,160.49C265.81,1412.22,275.94,1505.2,273,1596.45Z"/></g></g><g id="Red_Japanese_Frames" data-name="Red Japanese Frames"><path class="cls-7" d="M0,20V1580a20,20,0,0,0,20,20H956a20,20,0,0,0,20-20V20A20,20,0,0,0,956,0H20A20,20,0,0,0,0,20ZM924,1548H52V52H924Z"/><path class="cls-8" d="M952.1,15.41,928.69,38.83A4,4,0,0,1,925.86,40H50.14a4,4,0,0,1-2.83-1.17L23.9,15.41A2,2,0,0,1,25.31,12H950.69A2,2,0,0,1,952.1,15.41ZM40,1549.86V50.14a4,4,0,0,0-1.17-2.83L15.41,23.9A2,2,0,0,0,12,25.31V1574.69a2,2,0,0,0,3.41,1.41l23.42-23.41A4,4,0,0,0,40,1549.86ZM936,50.14V1549.86a4,4,0,0,0,1.17,2.83l23.42,23.41a2,2,0,0,0,3.41-1.41V25.31a2,2,0,0,0-3.41-1.41L937.17,47.31A4,4,0,0,0,936,50.14ZM925.86,1560H50.14a4,4,0,0,0-2.83,1.17l-20,20a4,4,0,0,0,2.83,6.83H950.69a2,2,0,0,0,1.41-3.41l-23.41-23.42A4,4,0,0,0,925.86,1560Z"/></g></svg>