<svg xmlns="http://www.w3.org/2000/svg" xmlns:xlink="http://www.w3.org/1999/xlink" viewBox="0 0 976 1600"><defs><style>.cls-1{fill:none;}.cls-2{fill:#f4f3ef;}.cls-3{clip-path:url(#clip-path);}.cls-4{fill:#50b271;}.cls-5{fill:#ffb85a;}.cls-6{fill:#d81e1e;}.cls-7{fill:#592116;}.cls-8{fill:#992d17;}</style><clipPath id="clip-path"><path class="cls-1" d="M960,22V1578a6,6,0,0,1-6,6H22a6,6,0,0,1-6-6V22a6,6,0,0,1,6-6H954A6,6,0,0,1,960,22Z"/></clipPath></defs><g id="Paper_Backing" data-name="Paper Backing"><path class="cls-2" d="M960,22V1578a6,6,0,0,1-6,6H22a6,6,0,0,1-6-6V22a6,6,0,0,1,6-6H954A6,6,0,0,1,960,22Z"/></g><g id="Wikipedia_Cropped" data-name="Wikipedia Cropped"><g class="cls-3"><path class="cls-4" d="M0,1604c-7.65-3-7.58-587.7,0-590.68,25.72-6.39,46.16-30.34,74.49-36.8,5.46-3.19,19.74-1.21,18.73-10.72,7.14-13.52,29.28-15.32,41.53-19.07a6.07,6.07,0,0,0,4.27-8.41c11.6-16.73,40.95-19.47,57.39-27.05,119.38-37.64,259.18-48.51,373.35-17.52,6.1-8.12,19.74,7.8,25.3-2,34.2-7.94,76.64,20.38,110.8,32.86,11.69-8.56,10.45-5.06,24.11-1,5.49,0,5.79-7.76,12-6.51,24.68,7.66,48.78,17.26,73.35,26.37C871.62,964.91,925.47,995,976,1024.8c11.45-.91.15,571.23,4,575.21C980.94,1611.9,4,1599.83,0,1604Z"/><path class="cls-5" d="M934,673.81c-74.49-9-130.34-62.77-204.49-74.19-32.62,27.74-78.89,34.1-121.19,36.94-6.1-2.13-55.26-8.46-38.86-17.08,9.08.17,82.6-13.25,48-23.68-47.17-2.95-95,13.45-143.06,4.3-45.93-13.07,49.48-20.05,55-27.06-1.5-12.58-10.67-17.36,9.88-19.85,46.22,8.28,8.8-14.55,36.94-20.79,22,3.73,21.22,13.75,30.73-10.69,7.88-8.3,16,2.29,23.81,3.85,10.45.41,2.13-31.78,29.08-9.89,12.71,10.31,15.86-24.34,39.57-8.29,47.78-27.28,11.09,17.45,50.43-45.18,11.53-14.11,31.49-13.83,45.22-7,8.11-2.29,15.59-6.7,23.61-6.93,16.41,1.41-6.43,21.4,6.14,26.21,4.44,1.65,5.32,6.61,7.16,9.82,19.72,28.44-45.7,17-9.22,44.17,1.37,15,25.37,10,26.12,25.22.12,4.21,4.35,5.9,8,5.84,12.24-.07,22.44,4,22.74,16.92,7.63,5,18.26,3.91,21.68,14-.76,25,12.31,10.64,20.75,28.51,1.8,7-8.28,8.78-8.15,15.08,8.83,12.9,29.44,16.22,35.5,30.94h0C955.29,674.66,939.83,673.45,934,673.81ZM532.32,533.75c-53.69-3.74-96.45-39.34-145.39-55.49-19.73-5.56-44.08-21.84-64-16.41-36.66,29.34-88.29,38.27-132.48,31-64.94-13.84,11.38-15.27,31.66-25.94,27.68-28.55-117,2.15-131.51-4.09-44.07-2.17-34.24-16.94,1.9-21.52,15.39-6.69,44.11,4.64,31.47-21.63,7.92-14.45,27.77-.25,38.53-6.63,1.65-8.64-2.56-20.78,11.93-20.56,22.68,4.09,20.74,13.17,30.83-10.94,8.81-8.93,16.9,5.34,25.64,3.67a6.48,6.48,0,0,0,4-6.76c2-20.1,19.94-4.67,27.92,0,11.17-7.7,20-22.28,35-11.35,7.37-1.82,13.38-13.57,22.53-8.93a6,6,0,0,0,8.81-3.2c21.54-61,49.3-34.33,85.9-46.52,15.61-.81,1.92,16,4.13,22.85,3.74,3.92,9.51,6.44,10.48,12.34,17.11,23.51-17.62,17.28-21,32.81.94,6.08,9.35,5.4,11.6,10.93,4.16,3.41,1.32,11.13,8.27,11.45,17-1,13.9,15.9,23.53,20.51,8.27.45,23.84,1,24.8,12.4,1,12.56,26.85,6.72,23.66,26.08-.1,18.34,34.65,7.62,11.55,36.25C520.63,505.64,575.74,532.8,532.32,533.75Zm414-206C872.2,322,809.51,256.13,736.51,255.63c-35.12,29.6-90.43,39.21-133.8,30.89-59-13.37,17.56-15.95,33.72-25.23,31.9-28.75-118.75,1.4-132.17-4.49-43.64-2.16-33.54-17.18,2.05-21.5,16.7-7,43.67,4.78,31.67-21.78,6.36-17,40.77,6.89,38.86-13.06-3.56-5.4,4.22-15,11.42-14.06,8.58-.85,15.75,7.92,23.69,4.76,5.46-15.7,10.62-25.23,28-12.32,18.35,6.53-2.78-34.87,36.82-6.38,11.14-7.66,20-22.33,34.91-11.48,8.47-3.59,15.15-14,25.72-7.94,20.54-29.34,28.8-50.08,54.21-48,14.07,4.27,25.36.85,39.14-2.79,10.36.12,4.67,12.87,2.29,18.24-2,7.61,19,20.73,14.3,27.16,1.51,11.33-34.72,14.33-19.18,26.6,2.17.36,7.31,7.09,8.23,12.3,3.25,10.08,25.72,7.31,24,20.59,3.14,12.81,24.7,1.7,29.41,14.82,2.22,3.72-.6,10.48,6.08,11,25.24,3.49,12.79,18.91,21.6,27.09,7.33,2.56,20.64,10.27,15.46,19.32-2.64,2.28-7.59,4.07-7.16,8.46C934.26,299.57,989.92,326.73,946.35,327.74Z"/><path class="cls-6" d="M453.84,714.27c-14.6-9,40.36-79.87,56.71-81.55,11.82-11.61,88.28-9.29,76.36,8.88C536.81,656.25,495,683.17,453.84,714.27ZM51.72,574.43c-14.65-9,40.77-80.31,57.12-81.87,10.65-11.34,90.79-9.12,76,9.36C134.93,515.71,92.26,543.9,51.72,574.43ZM465.58,368.55c-14.93-8.05,41-80.63,57-81.82,10.29-13.88,101.86-4.85,72.47,9.85C546.72,312.16,505,337.81,465.58,368.55Z"/><path class="cls-7" d="M976.39,1028.48c-4.62,5.35-31.56-20.2-39.76-22.64-62.51-34.31-129.13-65.09-197.43-84.45A395.27,395.27,0,0,1,891,1059.26c-50.34-54.61-104.69-110.84-176-136.72.29,3.66,3.85,3.61,6,5.11,44.28,30,72.91,73.08,102.55,116.57-3.56.09-13.8-9.29-16.37-12.92a560.17,560.17,0,0,0-59.54-70.51C713,927.12,646,896.9,598.65,893.45c64.67,25.12,118.71,72.09,156.92,129.65,4.08,4.7-.71,10.22-4.14,3.74-31.85-36.3-63-74-106-97.66-24.17-12.07-44.83-28.07-72.08-33.72,39.95,19.83,73.51,48.31,101.95,82.27,7.68,9.49,14.8,19.44,22.23,29.15,1.58,2.06.27,3.49-1,4.69-.27.25-2.16-.72-2.87-1.52-29.16-34.5-60.6-67.14-98.67-91.77-69.89-47-155.79-42.07-235.76-34.91C284.4,891.83,211.49,903,142.84,937.2c36-3.84,66.91-2.65,101.11,6.76,52.17,9.94,100.52,34.4,135.32,75,2.73,4-4.81,3.65-6.44,1-45.67-49.09-114.85-68-179.3-76.25-27.27-1.12-72.73,6.53-96.4,21.38,81.78-9.77,177.06,2.84,235.93,65.38-41.55-34.31-94-48.05-146.15-56.15-66.12-10.82-126.62,2.89-180.14,43.28-1.74,1.12-3.69,2.77-5.2,1-.82-1.44.09-4,.92-5.22,7.09-9.78,18.2-14.67,27.47-21.76,108.51-86.31,248.47-117.44,384.42-123.37,140-6.87,281.32,15,410.14,71.24C851.91,952.13,972.68,1005,976.39,1028.48ZM972,1362.84c-150.51-28.42-309,31.36-426.12,124.91-22,18.65-79.76,69.75-79.94,97.83,8.19-1.81,14.41-17,21.44-22.64,27.79-29.55,56.59-57.85,89-82.33,34.67-28.31,79.6-39.33,123-45.24,56.26-9.1,113.29-.06,166.46,17.66-.68-1.77-.86-4.53-2.11-5.16-11.86-6-23.86-11.38-36.73-15.21-58.6-14.9-119.7-15.13-177.64,2.68,32.55-22.94,77.7-23.15,116.42-28.83,53.51-5.54,106.93,1.91,157.62,19.3,1.2.41,3-.76,4.45-1.2-21.76-17.83-55.27-21.07-82.78-25.56-12.81-1.42-26.12,0-38.52-2.86-12-2.75-23.43.33-35.15-.62-10.25-.84-20.8,2.13-31.24,3.3-.88.1-1.88-.75-2.82-1.16,71.55-31.43,156.07-40.15,233.76-28.48C976.07,1371.43,976.73,1363.69,972,1362.84ZM973.76,1158c-93.06-78.42-219.29-104.74-338.38-106.65-98.1-3.66-203.67,6.73-284.48,66.3-102.84-10.4-212.73-8.43-307.39,37.51-14.57,7-34.55,10.77-42,26.77.14,1.76,4,3,4.66,2.61,6.64-4.87,15.28-5.4,21.88-9.44,15-9.16,31.75-10.31,48-11.63,54.39-8.17,109.9,3.64,159.19,28.39,4.18,2.26,6.49-.85,2.68-3.35-45.47-34.7-105.16-40.78-160.45-35.32,48.17-20.36,101-24.86,152.19-28.84,15.15-4,27.39,2.38,40,6.31,72.46,24.78,122.59,69.83,165.31,131.33,2.31-5.13-1.34-10.78-3.58-15.25-36.3-56-88.66-102.59-153.38-122.55,27.29-3,51.38,11.22,74.74,22.8,50.65,25.09,89.25,69.26,124.55,112.64,4.61,8.52,12.15,3.4,5-3.93-31.26-45.74-65.83-82.6-113.94-114,62.39,22,115.19,60.59,166.41,101.27,3.92,2.7,7.23.55,2.78-2.65-44.17-47.35-101-83.62-161.34-106.71,106.62,19.68,211.48,60.39,288.86,139.06,1.32-3.39,1.19-5.57-1.09-7.8-26.31-26.25-52.15-53.7-85.3-71.27-64.09-39.41-137.18-59.27-210.38-73.8,1.82-2.23,3.17-5.47,5.51-6.53,46.6-22,96.87-39.65,148.21-45.62,100.74-13.86,224,63.84,287.79,138.42,1.3,1.53,3.11,3.63,5.49,1.75,6.27-2.54-9.61-17.37-11.63-21.06-52.32-58.78-121.76-101.73-197.53-123,50.11-3.65,98.06,13.22,143.23,33.3,64.2,24.45,116.13,70.89,165.73,117.07,3.26,3.27,7.83,9.85,11.64,6.4,4.75-4.32-1.08-8.56-5.08-11.91-59.72-62-132.52-114.53-215.43-141.1,74,6.27,146.92,29,212.81,62.87,17.77,9.53,34.7,20.66,51.74,31.48,2.46,1.57,3.15-.16,4.65-.42C974.89,1160.28,974.67,1158.7,973.76,1158ZM453.17,377.71c11.06-40.37,31.6-83.64,72.58-100.07,36-12.28,75.27-9.69,111-24-11.13,2.44-22.35.84-33.46,1.61-30.35,2-61.2,8.34-91.52,7.06-13.43-1.7-40.77,1.94-44.35-15.87,2.27-13.77,60.49-20.65,73.34-20.09-6.32-2.24-9-6.77-8.26-12.75,3.22-15,28.8-14.53,39.92-8.75.59.31,2.52.88,2.22-1.37-4.95-28.85,20.46-20.53,37.84-13.15-2.28-26.73,17.58-24.41,33.68-12C641.48,153,662.77,152,673.93,167.16c8.47,11.7,10.22-30.38,38.82-8,2.14,1.87,2,.29,2.21-1.6,3.09-8.69,20.17-17.09,22.84-3.78,10.7-29.32,34.41-67.16,69.85-48.59,8.29.07,23.46-12.36,30.52.31.69,1.22,1.27,3.25.73,4.31-11.08,25,44.49,35.41-10.53,58.07,4.9,5.15,12.26,8.25,13.25,17,.38,3.35,5.2.69,8,1.53,9.06,2.69,13.94,6.88,13.57,16.93,0,12.32,29.13-5.69,32,21.57.62,5.45,7.22,3.58,10.84,5.64,8.59,4.88,12.51,10.94,10.33,20.83-.58,2.63,2.41,2.78,4.24,3.57,9.48,4.07,19.81,7.45,18.38,21-.75,7.06-7.36,7.19-12,10,78.3,43,35.14,60.27-28.07,36-53.47-17.23-100.26-49.64-154.54-64.42-7.19-2.2-11.55,6.59-16.29,10.37-35.82,27.63-81.58,24.41-123.5,32.82-51.24,13.92-99.18,39.13-137.36,76.39C464.51,381.51,451.9,388.41,453.17,377.71Zm381.1-95.92c-41.41-40.72-78.76-56-109.85-49.84,3.72,2.89,7.68,5.76,11.4,8.9s6.79,8.82,11,9.68C778.24,257.18,804.25,269.05,834.27,281.79Zm65.63,3.28c-15.68-5.83-32.27-5.43-48.66-5.9-2-.06-6.13-1.41-5.8,1.23.45,3.72,1.38,8.52,5.58,10.44,35.16,13.6,68.2,37.45,108,31.82C946,301.77,921.49,293.66,899.9,285.07Zm-15.84-26.4c-16.95-.1-34-.06-48.67,9.84,7.86,5.12,18.23.23,27,.85a105.67,105.67,0,0,1,52.91,11c5.64,2.84,10.66-.69,15.12-4.16C923.31,259.83,899.66,259.47,884.06,258.67Zm1.47-22.21c-21.5-.1-43.89,7.34-59.76,21.88,2.7,2.58,2.57,2.31,10.16-1.14,24.11-11.92,49.12-8.48,74.57-6.75C909.49,237.15,895.65,236.38,885.53,236.46Zm-33.42-16.7c-15.15,4.7-26,16-38.11,25.22-1.22.93-4.42,1.71-2,3.69,8.38,13.34,20.76-20.37,66.93-21.82,2.67-.13,5.29-1.42,7.93-2.17-1.73-1.86-3.19-4.88-5.24-5.36C872.77,217.81,862.49,215.17,852.11,219.76Zm-19-22.14C816.83,206.38,805,219.93,793.62,234c-.83,1-2.1,1.8.12,2.9,4.26,2.12,8.39,4.51,12.87,7-.6-7.6,7.63-8.33,10.95-13.31,6.84-10.29,18.52-15,29.72-20,3.08-1.37,9.6.75,9.05-4.06C855.45,198.93,840.18,193.84,833.14,197.62ZM826.32,178c-24.2,2-35,29.15-43.48,47.89-.68,1.86-3.29,3.28.18,4.77,2.72,1.18,4.79-.42,5.68-2.46,7.6-17.54,22.13-28.35,37.19-38.64,2.13-1.45,7.69-.9,6.22-3.84C830.56,182.6,827.6,177.65,826.32,178Zm6.82-45.64c-10.13,11.35-17.74,26.38-34.3,29.39-2.27.3-3.9,6-5.62,9.33-.21.41.82,1.48,1.29,2.26,12.12-5.32,23.72-10,34.93-15.44,9.51-4.63,21.56-9,7.76-22.33C835.84,134.24,835,130.46,833.14,132.35Zm-54.73.46c7.61.67,10.75-8.48,21.47-3.29,7.3,4.62-1.29,14.27,2.1,21.29,17-7.64,25.1-24.6,30.74-41.16C833.66,95.61,784.66,128,778.41,132.81ZM745.8,153.5C765.63,142.36,778.18,120.84,801,110,775,104.76,755.64,120.88,745.8,153.5Zm-6.6,23.29c-.08.28.6.79,1,1.27,8.16-5.83,16.6-14.95,27.33-12.55,9.42,2.83,3.51,12.12,6.33,18.3,11.76-11.21,17.7-27.66,20.44-43.29,1.13-4.25.27-4.67-6.83-1.33C769.18,147.94,747,155.59,739.2,176.79Zm-14,20.27c-5.13,4.46-11.9,9.21-16,14.35-2.62,4.74,7.22,4.51,8,8.08.33,1.45,1.31,5.2,4.57,5.2,16.84-5.57,33.65-5.61,49.64,1.66,1.35.58,3,1.55,3.22-1,1.76-18.5,15.47-30.65,24.23-45.93-21.79.29-28.49,22.87-37.3,39.47-.67,1.19-3.09,2.46-4.24,2.12-2.45-.73-1.38-2.79-.57-4.5,5.7-13.14,11.77-28.62,8.21-42.9C750.44,177.08,737.42,188.45,725.2,197.06Zm-16.61,4.55c10.48-9.53,19-14.7,22.27-24.25,1.9-5.51,7.29-10.48,4.21-17-3.63-12.57-18.82,1.17-19.53,8.77C713.5,178.5,716.5,188.81,708.59,201.61Zm-19.42,9.3c4.65-1,11,4.67,13.32.55,6.13-11.1,7.34-25,6.28-37.39-2.16-5.07-.28-14.41-9.9-12.77-7.68,1.31-12.71,7.38-15.56,14.43C678.16,188.49,687.68,199.09,689.17,210.91ZM653,175.13c1.85,8.49,17.06,42,29.15,37.52-1.14-11.65-7.84-24.45-11.33-36-2.53-6.73-7.5-11-15.22-9.48C650.16,168.21,654.57,173,653,175.13Zm-32.41,17c4.86,8.61,13.87,11.75,20,18.52,2.54,2.81,1.46,10.08,8.52,8.41,5.41-1.55,10.85-3,16.2-4.74,1.23-.39,2.09-1.54.68-3.1-9.86-11-18-23.84-31.54-30.9-3.6-1.88-8.2-6-12.32-2C618.34,181.91,617.16,186,620.6,192.11ZM584.49,204c6,10.81,18.14,10.17,27.31,15,16.48,14,12,9.29,31.09,1.15-11.49-8.46-49.18-39.33-61.8-26.1C577.74,198.83,582.76,200.82,584.49,204Zm10,40.71c-24.54-17.91-59.08-10.22-87.35-5.48-9.51,2.12-19.87,2-29.12,9.31,38.15,10.07,74.78.39,112.89-1.67C592.18,246.8,593.38,245.5,594.53,244.68Zm21.75-13.23c-20.56-8-40.9-20.84-63.9-20.31-10.9.33-14.78,3.58-4.09,11.79,8.38,7.75,19.24,3.86,28.81,5.11C590.22,229.76,602.17,245.06,616.28,231.45Zm55.77,8.1c11.47-6.11,21.69-19.8,37.89-11.42.32.17,1.09-.55,1.65-.85-22.25-15.85-81.52,4.58-102.84,18.08C629.77,244,651.83,249.62,672.05,239.55ZM584,278c15,.08,25.45,10.33,39.4,8.55,37.75-5.68,83-5,111.16-35.07-2.45-1.38-5.53-4.45-7.22-3.82-9.92,3.22-17-17.06-33.38-10.3C659.38,258,625,272.21,584,278Zm-88.75,34.87c5.2-.78,8.54,3.54,12.68,4.69,5.6,1.55,6,12.43,12.39,8.37a376.85,376.85,0,0,1,77.46-34.19C561.47,274.94,521.58,282.25,495.29,312.86Zm-29.71,51.69c16.94-12.51,27.09-23.95,45.18-32.37-8.39-5.53-17.52-20.41-26.76-3.5C478,339.71,472.53,351,465.58,364.55ZM574,612.65c17.15-2.7,33.92-7.78,50.76-12.94-11.7,3.21-23.62.11-35.33,2.12-16.41,3.36-33.88.15-50.19,3.72a177.41,177.41,0,0,1-39.52,2.52c-13.28-1.12-40.87,2-44.24-15.76,2.11-13.35,61-21.13,73.44-19.75-14.46-5.79-8.72-22.57,5.08-23.88,14.3-5.61,30.82,6,28.57.71-10.23-16,12-24.87,24.67-17.94,4.21,2.1,9.47,1.56,13.09,6-1.45-28.11,16.37-26.07,34-13.19C628.81,499.69,651,497.61,662,513.2c9.06,11.09,10.48-30.83,38.81-8,2.35,1.85,1.93.07,2.11-1.76,2.87-8.38,20.24-16.81,22.63-4.25,11.56-27.82,34.45-66.94,69.82-48.27,16.44-1.38,34.17-16.75,29.26,12.54-1.49,8.3,5.12,9.06,7.9,12.87,16.66,19.54,4.61,30.35-16.32,37.42,5.17,5.26,12.4,8.47,13.45,17.22.38,3.15,5.17.58,8.08,1.48,8.71,2.72,13.92,6.58,13.42,16.5-.57,13.56,26.31-6.66,32.05,21.55,1.06,6,8,3.73,11.9,6.31,7.5,5,11.55,11.11,9.49,20.3-.41,1.83.46,2.33,4.14,3.89,9.27,4,19.44,7.21,18.34,20.59-.61,7.47-7.4,7.49-11.93,10.37,13.22,6.65,44.06,23.95,41.32,40.23-14.09,17.27-51.31,0-69.53-4.27-53.23-17.25-100-49.25-154-64.22-7.71-2.42-11.66,7.22-17.56,11-43.1,31.83-98.77,21.54-146.76,39.06-34,12.49-65.93,31.14-95,52.79a187.33,187.33,0,0,0-22.19,19.32c-3,3.1-6.13,4.29-9,2.85-4-2-.75-5.84,0-8.5,6.66-25.52,16.59-49.72,34.43-69.47C499.5,621.32,539.47,617.44,574,612.65Zm-75.24,65.83c-8.38-7.41-19.34-19.81-27.47-2.9-5.34,10.86-10.86,21.65-17.41,34.69C470.3,698.5,481.22,686.55,498.72,678.48Zm87.11-40.73c-36.51-16.9-76.41-9.46-102.77,21.35,5.19-1,8.3,2.93,12.07,3.88,6,1.51,6.9,12.88,13.19,8.9A383.1,383.1,0,0,1,585.83,637.75ZM822.57,628c-38.8-38.71-77.75-56.13-110.27-50.37,4.42,3.63,8.55,7.29,13,10.57,3.56,2.67,4.91,8,10.11,8.75C766.89,602.94,792.62,615.15,822.57,628Zm65.73,3.12c-15.79-5.92-32.58-5.53-49.14-6-1.95,0-6.13-1.47-5.72,1.31.53,3.67,1.36,8.44,5.66,10.39,34.87,13.72,68.3,37.5,107.71,31.77C934.44,647.77,909.46,639.77,888.3,631.14ZM874,604.73c-17.52-.28-35.18-.09-50.75,9.4,6.07,8,31.63-2.11,38.66.88,16.19,2.91,29.29,4.67,41.05,11.19,5.37,3,10.95.36,14.11-3.19C924.1,610.85,882.37,603.24,874,604.73Zm-.16-22.27c-21.72,0-44,7.24-60.13,22.19,4.15,8.14,7.28-.07,10.88-1.69,24-11.83,48.85-7.9,74.07-6.63C897.12,583.35,884,582.28,873.83,582.46Zm-33.75-16.68c-15.15,4.7-26,16-38.11,25.22-1.2.91-4.43,1.68-2,3.68,8.4,13.34,20.69-20.39,66.94-21.83,2.66-.13,5.27-1.44,7.9-2.2-1.74-1.85-3.22-4.85-5.27-5.33C860.72,563.8,850.45,561.16,840.08,565.78ZM820.9,543.84C804.64,552.48,793,566,781.73,579.9c-.75.93-2,1.4-.18,3,21.51,17.11,18.41-20,63.37-29C844.41,545.77,828.25,539.93,820.9,543.84Zm-9.53-19.08c-20.93,1.22-33.2,30.57-40.54,47.24-.58,1.64-3.35,2.8-.14,4.46,2.93,1.52,5.11-.16,6.07-2.37,8.1-19.48,27.56-32.59,43.62-42C818.14,528.8,815.66,523.7,811.37,524.76Zm9.78-45.87c-5.89,4.12-9,12-14.4,17.09s-12.23,8.78-18.43,13.07l-2-2.11c-1.74,3.86-4.42,7.41-4.81,11.72,11.81-3.72,24.39-7.9,34.63-14.46,5.51-3.81,22.64-2.83,12.42-17.82C826.72,483.62,825.48,475.86,821.15,478.89Zm-55.43.36c9.26-.85,12.62-8.56,22.15-3.74,7.26,4.6-1.26,14.24,2.1,21.3,17-7.61,25.1-24.61,30.75-41.15C821.32,441.66,772.88,473.94,765.72,479.25Zm-32.88,22.89c4.63-5.58,9.4-8.55,13.82-12,13.59-10.51,23.83-25.11,39.79-32.83,1.49-.72,1.65-2.09-.18-2.14-12.06-.37-25.31-1.34-33.16,9.37C745.11,475.48,737.25,487,732.84,502.14Zm-5.47,21.3c1.11-.39,2.52-.47,3.28-1.22,6-5.9,13.48-8.79,20.35-11.45,13.74.89,8.74,11,10.62,18.89,10.56-8.5,15.25-22.29,18.77-34.76.77-3,4-12.53.1-11C760.61,491.87,734.35,500.12,727.37,523.44ZM713,543.08c-5,4.4-11.58,9.27-15.84,14.09-2.49,4.36,5.71,5.13,7.35,7.69,1.13,1.77,1.76,5.78,5.19,5.78,16.73-5.49,33.5-5.49,49.44,1.53,1.43.6,3.2,1.68,3.4-.54,1.64-18.72,15.6-30.9,24.35-46.38-3.51-.18-8.4-1.61-9.28-.31-5.86,8.62-17.2,12.38-20.22,23.52-1.33,4.91-4,9.51-6.29,14.12-1.15,2.48-3,6.21-5.92,4.31-3.3-2-.47-5.4.76-7.7,6.24-11.68,8-24.26,8-37.23C755.12,511,716.93,540.59,713,543.08Zm-13.54,1c7.52-5.84,15.84-11,19.16-20,2.1-5.72,7.38-11.16,4.33-18-3.58-12.46-19.17,2-19.53,9.66C701.74,525,704.47,535,699.47,544.13ZM677.65,556.7c.31,1.48,7.4,1.59,11.38,2.13,1.39-.07,2.16-2.1,2.59-3.3,4.14-8.82,12.07-49.61-4.66-48-7.87.32-13,7.31-15.73,14.63C666.54,534.66,675.2,545.23,677.65,556.7Zm-14.17,1.69c.63,1.07,4.35.34,6.64.28a4.16,4.16,0,0,0,.3-2.39c-2.44-7.23-4.68-14.55-7.57-21.6-3.51-8.58-3.37-20.08-14.71-21.72-6.89-.14-6.51-.09-7.17,5.2C638.59,537.12,655.63,545.2,663.48,558.39Zm-54.76-20c4.41,7.89,12.38,11,18.32,16.68,3.35,3.18,2.48,10.95,11.18,9.62,4.11-1.16,9.55-2.6,14.92-4.29,1.16-.36,2.39-1.48,1-3.07-10-11.1-18.2-24.13-31.94-31.19-3.5-1.79-8.09-6-12.29-1.65C606.1,528.4,605.45,532.55,608.72,538.39ZM572.49,550c6,10.8,18.14,10.17,27.32,15,16.47,14,12,9.27,31.08,1.14-11.49-8.46-49.18-39.33-61.8-26.1C565.74,544.83,570.76,546.82,572.49,550Zm10.13,40.73c-24.82-17.86-59.09-10.25-87.51-5.49-9.49,2.11-19.85,2-29,9.32,38.2,10,74.79.37,112.94-1.69C580.24,592.8,581.42,591.44,582.62,590.7Zm21.68-13.25c-17.79-6.36-58.15-30.38-74.66-16.31,8.38,15.54,21.15,12.21,35.45,12.91C578.22,575.73,590.17,591,604.3,577.45Zm34.62,15.25c7.06,1.54,16-5.8,24.17-9,10.91-4.32,19.35-17.39,33.76-9.64.62.34,1.82-.41,2.74-.65-23.2-16.67-81.7,6.54-107.2,19.69,6.05-.66,8.38-1.27,10.65-1.11C614.93,592.8,626.59,590,638.92,592.7Zm-69,30.76c16.81,1.18,26.54,9.27,41.17,8.88,37.54-4.07,78.41-5.89,109-31.27,9.26-7-13.54-7-17.74-13.21-6.72-5.81-15.78-8.69-24.74-2.26C644.91,605.61,611.57,618.45,569.93,623.46ZM417,1446.13c-48.92-40.9-106.36-75-169.42-87.73-26.63-3.07-52.66-10.48-79.38-12.22,77-12.92,154.74,7.17,225.69,37,25.82,9.65,50,22.42,71.59,39.64,13.82,9.82,24.33,24.67,40.05,31.51-48.71-79.35-219-129-308.89-123.34l-.45-1.71c73-21.76,148.85-35,225-37.55,26.63-1.24,53.26.75,79.88,1.91,20.94.26,44,8.13,64,3-32.22-10.15-67.72-11.83-101.59-14.37-18.85-2.58-37.69-1.12-56.34-.19-89.43,4.1-178.48,19-261.93,52.31C93.61,1359,29.42,1380.74.62,1432.51c23.73-9.35,40.16-36,65.57-43,75.58-24.23,145.52-5.31,214.91,27.58,34.93,15.45,67,37.12,92.89,65.33,8.3,10,19.29,17.69,29.14,26.35,5.56,4.88,8.76,12.25,16.71,14.52-72.78-102.19-203.6-176.39-332.59-148.39,56.56-34.18,123.53-12.57,183.28.07,74.45,22.7,140,68.74,189.72,128.16C481,1514.25,421.09,1447,417,1446.13ZM525.54,309.3c4.62-.45,9.7.39,9.59-6.05.06-4.85-2.62-6.24-6.75-6.3C522,295.48,520.76,309.4,525.54,309.3Zm-9.1,333.64c-4.32-.13-5.63,2.56-5.6,6.66-.32,3.8.6,6.73,4.51,5.4,4.43.31,7.67-.37,7.77-5.69C523.22,644.49,520.59,643,516.44,642.94ZM41.61,574.62c35.31-111.79,89.2-87.26,181.26-113.93-.08-.52-.16-1-.25-1.55-41.76,2.75-84,9.85-125.77,9.08-11.8-.79-24.88.38-36.38-6.43-32.17-20.64,55.14-30.53,66.44-29.31-6.8-3-10.11-7.74-7.88-14.75,6.23-13.05,28-12,39.33-7,.5.21,2.24-.91,2.21-1.3-3.91-28.93,20.36-20.84,37.88-13.14-2.27-26.66,17.55-24.59,33.66-12.12-4-25.64,16.46-26,27.77-11.08,8.55,11.65,10.83-30.82,38.83-8,2.09,1.86,2,.46,2.26-1.49,3.6-9.33,21-17.79,23.11-2,8.82-31.3,34.69-68.29,69.54-50.49,8.44.14,23.34-12.29,30.52.3.7,1.21,1.3,3.25.76,4.3-11.77,23.86,45.17,36-10.57,58.06,4.86,5.22,12.31,8.25,13.25,17,.38,3.52,5.2.73,8,1.57,9.05,2.67,14,6.81,13.61,16.88-.08,12.42,29.1-5.67,32.07,21.56.66,5.52,7.49,3.59,11.23,5.82,8.26,4.92,12.12,11,10,20.68-.61,2.71,2.34,2.81,4.14,3.59,9.47,4.08,19.8,7.42,18.44,21-.71,7.11-7.31,7.24-12,10,14.36,5.65,65.84,40.05,28.64,47.21-61.59-1.62-114.52-38.47-169.91-60.91a310.86,310.86,0,0,0-41.47-14.79c-7.22-2-11.44,6.67-16.1,10.41-35.78,27.71-81.59,24.41-123.5,32.83a280.93,280.93,0,0,0-60.94,23.15c-27.42,14.2-54.27,30.13-76,53-2.42,2.56-5.94,6-8.79,5.87C31.14,588,40.69,577.19,41.61,574.62ZM422.3,488.51c-34.48-30.12-66-56.57-112.22-50.93,4.47,3.57,8.82,6.87,13,10.41,3.29,2.82,6,7.93,9.54,8.57C365.73,463.31,389.74,475.48,422.3,488.51Zm63.63,2.57c-15.68-5.83-32.26-5.47-48.66-5.91-2-.06-6.13-1.38-5.83,1.2.43,3.73,1.38,8.55,5.56,10.46,35.15,13.6,68.21,37.45,108,31.83C532,507.77,507.49,499.66,485.93,491.08Zm-31.15-26.81c-11.77-.15-23,3.91-33.65,9.62,4.6,7,20.32-.25,28,1.22,18.21.1,35.9,2.87,52.36,11.46,5,2.59,10.32-.16,13.39-3.32,3.52-3.62-1.13-7-3.95-9C493.86,462.43,474,464.52,454.78,464.27Zm16.89-21.8c-21.66-.07-43.89,7.34-60,22,3.83,7.44,6.45.59,10.2-1.15,24.15-12.37,49.35-8.17,74.87-7.14C494.84,443.23,481.94,442.31,471.67,442.47Zm-33.91-16.68c-14.89,5-25.63,15.95-37.62,25.13-1.25,1-4.4,1.72-2.26,3.63,8.36,13.67,21-20.54,67.37-21.7,2.55-.11,5.06-1.32,7.58-2-1.84-1.92-3.4-5-5.58-5.53C456,422.91,445.69,422.27,437.76,425.79Zm-20.07-21c-15.92,8.18-26.63,21.57-37.64,34.83-.71.85-2.83,1.82-.79,3,4.35,2.57,8.91,4.77,13.38,7.12-.85-7.48,7.51-7.76,10.66-12.74,6.8-10.73,18.68-15.24,29.9-20.42,3-1.41,10.17.76,8.89-4.37C439.81,403.13,426.21,400.41,417.69,404.79Zm-5.19-19.22c-23.37-3.39-34.66,28.87-43.32,45.48-.69,1.46-4.75,3.91-.11,5.56,3.29,1.16,4.49-1,6-3.8,9.1-18.78,26.2-30.41,43.72-40.74C416.73,389.82,415,386.43,412.5,385.57Zm6.67-46.72c-5.89,4.1-9,12-14.4,17.08s-12.22,8.82-18.41,13.14l-2-2.13c-1.75,3.85-4.32,7.41-4.85,11.68,11.83-3.58,24.4-7.86,34.61-14.41,5.47-3.82,22.84-2.65,12.47-17.76C424.7,343.67,423.44,335.88,419.17,338.85Zm-54.54-.12c7.49.62,10.42-8.19,21-3.35,7.7,4.52-.91,14.23,2.07,21.35,17.22-7.37,25.22-24.32,31-40.79C418.73,301.63,371.19,333.81,364.63,338.73Zm-32.84,20.78c19.83-11.16,32.38-32.67,55.2-43.48C361,310.71,341.81,326.73,331.79,359.51Zm-6.39,25.13c18.81-15.25,28.56-22.32,34.4,5.13C370,381,375,367.67,378.32,355.17c.81-3.22,3.83-12.59.44-11.35C359,351.92,330.42,360.57,325.4,384.64ZM311,403.08c-5,4.26-10.84,9-15.46,13.5-3.6,4.87,5.23,5.61,6.95,8.28,1.14,1.77,1.78,5.78,5.2,5.78,16.72-5.49,33.5-5.5,49.44,1.53,1.42.6,3.2,1.68,3.39-.53,1.63-18.73,15.61-30.9,24.35-46.38-3.49-.19-8.39-1.62-9.26-.33-5.85,8.63-17.2,12.38-20.22,23.51-1.33,4.92-4,9.53-6.3,14.13-1.22,2.7-3.28,6.44-6.33,4.11-2.52-1.74-.11-5.21,1.13-7.5,6.33-11.64,8.06-24.25,8-37.21C353.15,371,314.92,400.58,311,403.08Zm-13.53,1.07c7.47-5.88,15.81-11,19.13-20,2.11-5.72,7.4-11.14,4.35-18-3.63-12.5-19.17,2.07-19.54,9.64C299.73,385,302.47,395,297.49,404.15Zm-22.32,12.77c4.65-1,10.93,4.67,13.34.53,6.13-11,7.24-25.12,6.25-37.39-2.1-5.08-.24-14.42-9.9-12.76-7.68,1.33-12.71,7.38-15.55,14.44C264.19,394.49,273.67,405.1,275.17,416.92Zm-36.85-34.44c1.72,15.91,15.52,24.26,23.56,36.13.7,1,4.4,0,6.7,0-2.51-12.33-7.68-24.42-11.84-36.36-2.49-6.35-7.54-10.65-15.09-9.06C235.9,374.36,240.64,379.32,238.32,382.48Zm-31.7,15.78c4.37,8,12.45,11,18.31,16.71,3.29,3.22,2.52,10.87,10.78,9.84,1.89-1.41,20.71-3.11,16.15-7.72-7.05-8.12-32-41-43.85-32.68C204.18,388.07,203.35,392.24,206.62,398.26Zm-37.92,9.6c4.15,5.91,8.74,11.89,16.1,12.09,20.4,4.06,17.87,22.88,44.26,6.26-12.35-8.8-48.08-38.73-61.86-26.43C164.76,402.83,166.73,405.07,168.7,407.86Zm11.76,43c-5.22-6-25.88-11.85-34.41-11.38-25.27,1.73-59.71,2.24-82.14,15C102.84,463.22,142.51,457.38,180.46,450.89Zm21.81-13.41c-17.42-6.38-58.57-30.48-74.63-16.3,8.77,15.76,21,12,35.51,12.87C176.23,435.82,188.2,451.06,202.27,437.48Zm53.12,9.72c15.43-8.44,21.58-19.23,42.22-13.65-20.53-17-81.88,6.43-103.71,17.71C215,449.84,235.13,455.16,255.39,447.2ZM168,483.47c16.81,1.27,26.61,9.3,41.24,8.86,21-3.66,42.65-2.27,63.38-9.09,5.58-.81,60.34-22.26,44.53-28-16.57-2.41-26.93-22.75-44.34-7.6C240.78,466.11,208.35,478.76,168,483.47ZM81.55,518.7c4.73-.33,8.14,3.45,12.14,4.66,5.64,1.71,6.54,12.45,12.37,8.72,24.41-14.16,50.73-26.18,77.77-34C148.2,480.15,107.87,488.28,81.55,518.7ZM51.72,570.43c16.4-12.44,27.78-23.09,45-32.17-8.38-6.34-18.48-20-27.08-3.3C64,546,58.48,557.07,51.72,570.43Zm59.69-55.12c4.65-.46,9.75.4,9.71-6,.11-4.8-2.47-6.31-6.64-6.41-4.52-.1-5.66,2.67-5.63,6.62C108.86,512.37,108.54,515.31,111.41,515.31Z"/></g></g><g id="Red_Japanese_Frames" data-name="Red Japanese Frames"><path class="cls-7" d="M0,20V1580a20,20,0,0,0,20,20H956a20,20,0,0,0,20-20V20A20,20,0,0,0,956,0H20A20,20,0,0,0,0,20ZM924,1548H52V52H924Z"/><path class="cls-8" d="M952.1,15.41,928.69,38.83A4,4,0,0,1,925.86,40H50.14a4,4,0,0,1-2.83-1.17L23.9,15.41A2,2,0,0,1,25.31,12H950.69A2,2,0,0,1,952.1,15.41ZM40,1549.86V50.14a4,4,0,0,0-1.17-2.83L15.41,23.9A2,2,0,0,0,12,25.31V1574.69a2,2,0,0,0,3.41,1.41l23.42-23.41A4,4,0,0,0,40,1549.86ZM936,50.14V1549.86a4,4,0,0,0,1.17,2.83l23.42,23.41a2,2,0,0,0,3.41-1.41V25.31a2,2,0,0,0-3.41-1.41L937.17,47.31A4,4,0,0,0,936,50.14ZM925.86,1560H50.14a4,4,0,0,0-2.83,1.17l-20,20a4,4,0,0,0,2.83,6.83H950.69a2,2,0,0,0,1.41-3.41l-23.41-23.42A4,4,0,0,0,925.86,1560Z"/></g></svg>