<svg id="Card" xmlns="http://www.w3.org/2000/svg" viewBox="0 0 1024 1680"><defs><style>.cls-1{fill:#f2f0ed;}.cls-2{fill:#8c1707;}.cls-3{fill:#16592d;}.cls-4{fill:#38408c;}.cls-5{fill:#d82e21;}.cls-6{fill:#f79d31;}</style></defs><rect class="cls-1" x="14.5" y="14.5" width="995" height="1651"/><polygon class="cls-2" points="966 1619.17 966 60.83 1018 8.83 1018 1671.17 966 1619.17"/><polygon class="cls-2" points="60.83 58 8.83 6 1015.17 6 963.17 58 60.83 58"/><polygon class="cls-2" points="8.83 1674 60.83 1622 963.17 1622 1015.17 1674 8.83 1674"/><path class="cls-3" d="M958.25,772.79c-9.13-16.53-18.28-33.35-27.14-49.62L922,706.42l4.46,1.14c16.22,4.19,28,15.31,34.88,33.07.1.25.67,1.8.67,1.8V773l-3.19.83Z"/><path class="cls-3" d="M954.09,787c-3.31,0-5.88-1.68-8.37-3.3l-1.26-.81c-16.18-10.19-21.52-26.72-25.26-41.42-.41-1.61-.91-3.27-1.39-4.87-1.89-6.26-3.85-12.73-2.15-20.52l1.17-5.39,2.55,4.89a505.15,505.15,0,0,0,34.25,57,28.94,28.94,0,0,1,3.45,7.88c.37,1.16.76,2.36,1.19,3.46l.81,2.06-2.14.6A10.94,10.94,0,0,1,954.09,787Z"/><path class="cls-4" d="M936.65,1060.33a13.47,13.47,0,0,1-7.53-2.46c-23.45-15.93-35.89-33.75-39.16-56.08a7.63,7.63,0,0,1,.49-3.46c.11-.38.22-.73.29-1.07l.43-2,3,.75c.88.22,1.7.42,2.51.66,20.49,5.87,36.53,17.19,47.68,33.66a26.34,26.34,0,0,1,4.63,16.09,15.1,15.1,0,0,1-3.45,9.85A11.55,11.55,0,0,1,936.65,1060.33Z"/><path class="cls-3" d="M931.18,881.79c-3.58-5.36-6.66-10-9.73-14.63-5.36-8.09-11.11-16.79-16.85-25.6a7.3,7.3,0,0,1-.93-2.67c-.06-.29-.11-.56-.18-.83l-.66-2.31,2.39-.22a6,6,0,0,0,.69-.13,7.43,7.43,0,0,1,1.7-.25,3.1,3.1,0,0,1,1.65.43c14.61,9,23.9,21.67,27.63,37.62l3.93,16.88-3.2,1.38Z"/><path class="cls-3" d="M930.44,896.34c-16.13,0-35.85-28.15-41.37-59.07l-.21-1.19,3.13-1.29.69,1c4,5.78,7.79,11.57,11.44,17.18,9.42,14.47,18.32,28.15,30.09,39.7l2.65,2.6-3.63.78A12.89,12.89,0,0,1,930.44,896.34Z"/><path class="cls-4" d="M918.42,1161l-.13,0c-20.55-3.49-31.73-15.87-40.76-28.72a140.54,140.54,0,0,1-8.23-13.85c-.61-1.13-1.22-2.26-1.84-3.37a13.43,13.43,0,0,1-1.23-3.9c-.1-.5-.19-1-.32-1.48l-.68-2.55,2.86,0c1.17,0,2.47-.11,3.73-.23s2.76-.24,4.11-.24a11.66,11.66,0,0,1,5.49,1.11c2.11,1.09,4.24,2.14,6.38,3.2,11.78,5.82,24,11.83,32.41,23.21,4.93,6.64,6.62,12.8,5.16,18.84-.74,3.08-3.24,8-6.79,8Z"/><path class="cls-3" d="M913.73,296.59l-.06-1.18c-.26-5.57-.55-11.12-.83-16.65v-.2c-1.41-27.16-2.73-52.82-1.41-79.13l.17-3.25,2.82,1.61c9.29,5.29,14.9,19.67,15.41,39.47a136.46,136.46,0,0,1-12.34,58.9l-.49,1.07Z"/><path class="cls-3" d="M903.17,286.62c-14.68-29.79-14.94-57-.8-83.13l.6-1.1,3.31,1.08-.17,1.25c-2.33,16.68-1.34,33.12-.3,50.53.59,9.93,1.21,20.19,1.15,30.5v1.19l-3.26.75Z"/><path class="cls-4" d="M894.71,1252.94c-11.37-.16-18.12-7.27-24.65-14.16-1.94-2-3.75-4-5.66-5.66-8.33-7.45-14.6-18.42-17.66-30.88l0-.2c-.47-1.87-.75-3,.07-4a2.43,2.43,0,0,1,2-.91,8.62,8.62,0,0,1,2.56.61,16.72,16.72,0,0,0,2.9.58,14.69,14.69,0,0,1,4.87,1.29c20.29,10.7,36.33,20.56,43,41.62,1.05,3.31.7,6.51-.94,8.75a7.54,7.54,0,0,1-6.36,3Z"/><path class="cls-5" d="M481.16,1010.92c-32.9-.29-63.66-8.34-86.79-15.33-19.59-5.92-42.23-13.22-62.85-24.92-21.8-12.37-44.88-26.11-65.94-42.78a389.27,389.27,0,0,1-59.94-59.69c-12.77-15.69-28.77-36.79-39.22-60.83a4.58,4.58,0,0,1,0-3.94c1.33-2.69,5.28-3.67,9.09-4.63a30.23,30.23,0,0,0,4.56-1.36c10.53-4.69,21.45-8.45,30.74-11.51,4.83-1.59,9.57-3,14.52-3a22.49,22.49,0,0,1,14.45,5.21c13.48,10.73,29.83,13.07,47.14,15.55l.2,0a290.5,290.5,0,0,0,41.31,3.2c4.82,0,9.63-.15,14.27-.46,3.24-.21,6.56-.61,9.77-1a125.39,125.39,0,0,1,14.94-1.2h1.14c6.09.11,12.73,4.13,17.34,10.49,4.32,6,5.92,12.67,4.29,18-4.46,14.56-14.52,24.73-24.25,34.56a170.82,170.82,0,0,0-13.37,14.6l-.51.64c-9.33,12-19,24.31-22.89,39.42-2.1,8.12,9.8,21.72,21.95,25.1a182.17,182.17,0,0,0,49.6,6.56,261.32,261.32,0,0,0,52.67-5.79c9.16-1.88,18.51-3.3,27.55-4.67,8.23-1.26,16.7-2.55,25-4.16,11-2.16,22.12-4.79,32.88-7.33,6.35-1.5,12.89-3,19.37-4.48,7.22-1.6,14.57-3.15,21.68-4.65l.22,0c11.13-2.34,22.59-4.76,33.78-7.41A808.69,808.69,0,0,0,702.47,889c12.48-4.5,24.86-10,36.83-15.31l1.39-.62c3.46-1.54,5.57-5.29,5.36-9.56-.24-5.12-3.57-9.39-9.9-12.7-13.39-7-27.74-9.13-42.94-11.39l-6-.9a78.55,78.55,0,0,0-12.29-.93c-13.1,0-26,3-37.39,5.73a10.33,10.33,0,0,1-2.35.27h0c-4,0-7.46-2.27-10.81-4.46a34.42,34.42,0,0,0-5.22-3,42.74,42.74,0,0,0-16.8-3.23c-6.57,0-13.26,1.22-19.73,2.39q-3,.54-5.93,1c-.43.07-.84.15-1.23.23l-.12,0a16.84,16.84,0,0,1-3.1.41c-5,0-5.4-5.34-5.53-7.1-.27-3.46-3.54-5.41-6.44-7.13a27.82,27.82,0,0,1-2.8-1.83L553,817.29l5.75.05c1.75,0,3.5,0,5.24,0,58.2,0,114-9.23,166-27.43,52.21-18.3,101.89-46.15,147.67-82.79l2.91-2.33.33,3.71c.64,7-1.77,13.54-4.32,20.45a81.37,81.37,0,0,0-3.92,12.7c-3.47,18.23-8.61,31.9-16.15,43a15.67,15.67,0,0,1-13.25,7.17,18.8,18.8,0,0,1-11.25-4c-8.69-6.62-17.67-9.83-27.46-9.83-9.06,0-18.9,2.72-31,8.57-10.8,5.24-17.28,14.8-23.56,24.06q-1.31,1.92-2.62,3.83a3.5,3.5,0,0,0-.62,3c.52,1.92,2.7,4,5.69,5.38,6.93,3.24,15.57,5,25,5,19.1,0,39-7,50.76-17.81a40.91,40.91,0,0,0,3.78-4.23c3.56-4.35,7.59-9.28,15-9.28a19.76,19.76,0,0,1,2,.11l2.89.33-1.35,2.58a416.94,416.94,0,0,1-46,69.85,380.66,380.66,0,0,1-66.81,64.26c-22.31,16.81-48.08,31.64-78.81,45.35-20.16,9-43.05,16.44-72,23.42-22.5,5.43-45.67,6.66-67.35,7.18-4.93.12-10,.36-14.85.6-7.06.34-14.35.69-21.55.69Z"/><path class="cls-6" d="M585,654.87c-3.68,0-7.79-1.29-11.76-2.53-1.87-.58-3.58-1.12-5.21-1.52-16.56-4.08-28.07-11.33-36.22-22.83-3.42-4.83-4.47-8.34-3.29-11.06,1.52-3.5,6.12-4.13,9.81-4.64a19.18,19.18,0,0,0,4.08-.81c7.94-3.26,16.2-6,24.18-8.64,12.6-4.16,25.63-8.48,37.53-14.93a92.11,92.11,0,0,1,12.66-5.29c1.31-.47,2.62-.94,3.93-1.43,6.8-2.55,7.29-6.8,5.81-13.75-.64-3,1.6-6,3.76-9,.57-.77,1.1-1.5,1.55-2.18,4-6.15,8.19-12.36,12.21-18.37l1.33.7-1.24-.83c7.37-11,15-22.42,22.12-33.84,9.8-15.7,20.63-31,31.1-45.8,2.57-3.64,5.14-7.26,7.69-10.9,3.49-5,7.08-9.95,10.55-14.78,16.27-22.65,33.09-46.06,45.08-74l.46-1.07,3.27.52.1,1.17c.53,6.08.84,11.92,1.15,17.56.64,11.92,1.24,23.18,3.76,33.79,3.78,16-4.78,25.39-12.34,33.69-2.1,2.31-4.26,4.69-6.15,7.15Q744,460.36,737,469.38l-.09.12c-7.9,10.28-16.07,20.9-24,31.5a4.67,4.67,0,0,0-.32,2.5c.21-.18.45-.42.62-.59a12.42,12.42,0,0,1,1.06-1c8.39-6.68,14.8-15.45,21-23.93,3.87-5.29,7.86-10.74,12.33-15.72,5-5.53,9.83-11.38,14.53-17l.08-.1q3.17-3.81,6.35-7.6l2.89-3.43.62,4.44c.44,3.12.89,6.19,1.34,9.23,1,6.84,2,13.28,2.68,19.89.81,7.55-4.87,10.6-9,12.83-1.11.6-2.15,1.16-3,1.76-20.56,13.85-39.19,30.69-57.21,47l-5.44,4.92c-2.49,2.24-3.15,3.94-3.1,5.37l1.21-.52a29.15,29.15,0,0,0,6.69-3.5c8.64-6.8,17.31-13.84,25.69-20.64l.3-.25c5.76-4.67,11.71-9.5,17.59-14.2l4-3.21c7.74-6.22,15.68-12.59,23.91-18.31a14.39,14.39,0,0,1,8.48-2.66,33.77,33.77,0,0,1,9.7,1.93,31.44,31.44,0,0,0,8.56,1.78c2.95,0,5.65,1.1,8.78,2.36,1.43.57,2.89,1.16,4.45,1.67l4.23,1.38L818,487.62q-12.87,7.5-25.59,14.88c-20.17,11.72-39.18,22.77-58.52,34.25-8.42,5-16.84,10.32-25,15.46-6.64,4.19-13.5,8.53-20.35,12.68-7.07,4.29-15,8.67-25,13.79a6.66,6.66,0,0,0-3.53,3.85,3,3,0,0,0,2.94,3.92,10.38,10.38,0,0,0,5.41-2.12c10-7.25,20.7-13.57,31.07-19.69,9.45-5.57,19.21-11.33,28.32-17.74,12.49-8.78,26.11-16.27,39.29-23.52,7-3.86,14.25-7.84,21.21-11.95,9.38-5.55,21.64-13,33.36-21.31a13.65,13.65,0,0,1,8-2.8c3.91,0,7.22,1.83,10.43,3.6a25.82,25.82,0,0,0,5.87,2.67c12,3,23.79,7.25,35.23,11.33l.16.06c4.54,1.62,9.23,3.29,13.86,4.87l4.82,1.63-56,25.15q-9.69,4.35-19.39,8.67l-.1.05c-15.57,6.94-31.67,14.12-47.39,21.43-10.15,4.73-20.39,9.73-30.29,14.57l-.16.08c-10.12,4.94-20.59,10.06-31,14.9-8.74,4.07-17.72,8-26.41,11.76-15,6.51-30.44,13.25-45.06,20.92-13.17,6.91-26.93,12.89-40.24,18.68l-.11,0c-4.66,2-9.49,4.12-14.21,6.23a11.31,11.31,0,0,1-4.67.9ZM837.48,514.61c-7,2.69-14.21,5.47-21.07,8.65-20.23,9.41-41.66,19.55-67.44,31.93-29.08,14-57.42,27.72-84.23,40.84-9.23,4.51-18.51,9.18-27.48,13.69l-.13.06c-6.74,3.39-13.71,6.9-20.59,10.3l-.67.32c-2.5,1.2-3.11,1.66-2.85,3s.81,1.47,3.07,1.77a15,15,0,0,1,2.19.38l.47-.08a5,5,0,0,0,1.09-.26c5.62-2.61,11.31-5.3,16.82-7.91l.13-.06c12.05-5.71,24.51-11.61,37-17,9.38-4,18.53-8.88,27.37-13.59,5.53-2.94,11.24-6,17-8.81Q739.4,567.51,760.63,557l22.43-11c16.42-8.07,35.72-17.63,54.44-27.41,3.31-1.72,4.54-3.2,4.21-5.13a2.87,2.87,0,0,0-.82-.18ZM628.91,589.42a1.31,1.31,0,0,0,.36.51c1.25,1.3,2.48,2.61,3.91,4.15l.15.16c.49-.38,1-.75,1.46-1.1a18.55,18.55,0,0,0,4.39-4c2.9-4.37,5.68-9,8.37-13.4,2.92-4.8,5.9-9.73,9.07-14.44,4.65-6.92,9.5-13.82,14.19-20.5,6.85-9.73,13.9-19.76,20.38-29.9,12.08-18.91,24.07-38.34,35.67-57.14l.13-.21c6.26-10.15,12.73-20.64,19.14-30.93a10.76,10.76,0,0,1,1.18-1.49l.26-.3a7.07,7.07,0,0,0-2.5,1.25,55.16,55.16,0,0,0-7.84,9.07c-6.94,10.15-13.86,20.4-20.55,30.31S703,481.77,696.07,491.85q-11.16,16.31-22.35,32.6l-.51.74C659.32,545.41,645,566.32,631,587a8.07,8.07,0,0,1-1,1.16c-.84.84-1,1.16-1,1.29Z"/><path class="cls-3" d="M803.06,604.21c8.51-12.11,28.44-20.57,48.45-20.57,10.49,0,19.77,2.44,26.14,6.87l3.94,2.74-81.34,15Z"/><path class="cls-3" d="M833.66,622.89c-8.79,0-18.3-1.51-29.07-4.62l-1.14-.33.15-3.33,84.61-16-5.63,4.86C867.19,616.71,851.65,622.89,833.66,622.89Z"/><path class="cls-3" d="M797.37,302.93a7.42,7.42,0,0,1-2.22-.39,2.14,2.14,0,0,1-1.41-1.35,3.94,3.94,0,0,1,.16-3.2c2.13-3.42,4.25-6.88,6.38-10.34l.1-.15C813,267,826,245.88,842.72,227.18l4.1-4.56-.62,6.1c-1.68,16.62-5.09,28-11.42,38.2-8.24,13.25-18.49,28-35.83,35.7A3.91,3.91,0,0,1,797.37,302.93Z"/><path class="cls-3" d="M752.3,698.79c-.51,0-1.06,0-1.69,0s-1.67-.06-2.74-.06H742.8l3.7-3.46c16.27-15.21,34-22.61,54.15-22.61a99.4,99.4,0,0,1,28,4.35,3.83,3.83,0,0,0,1.08.12l1,0c.39,0,.79,0,1.17,0a6.3,6.3,0,0,1,5.33,2.46,10.58,10.58,0,0,0,.84.81l1.83,1.54L838,683.36a4.17,4.17,0,0,0-.37.36,4,4,0,0,1-2.4,1.45c-5.08.71-10.32,1.37-15,2-9.1,1.16-18.52,2.37-27.72,3.88-8.24,1.36-16.56,3.12-24.6,4.81-4.41.93-9,1.9-13.52,2.79A10.67,10.67,0,0,1,752.3,698.79Z"/><path class="cls-3" d="M783.69,822.1a64.55,64.55,0,0,1-15.25-1.89l-7.51-1.82,19.81-5.46c12.35-3.41,24-6.64,35.56-9.69a7.19,7.19,0,0,1,1.91-.24,18.93,18.93,0,0,1,2.82.29,16.2,16.2,0,0,0,1.7.22l4.45.33-3.2,3.1c-.41.4-.8.84-1.19,1.27a15,15,0,0,1-3.44,3C806.69,818.66,795.36,822.1,783.69,822.1Z"/><path class="cls-3" d="M788.4,290.44c-4.53-8.85-4.46-26.48,9.34-49.41,12.58-20.91,30-34.55,44.48-34.76l4.45-.06-2.9,3.36c-19.17,22.28-40.55,48.71-51.7,80.62l-1.54,4.41Z"/><path class="cls-3" d="M761.09,812.71a6.61,6.61,0,0,1-1.24-.14c-.21,0-.39-.06-.57-.07l-2.85-.15,1.12-2.63c.05-.12.09-.25.14-.38a5.23,5.23,0,0,1,.77-1.59c11.19-14.75,25.27-22.9,40.72-23.57l3.4-.18c2.29-.14,4.63-.28,7-.28,6.17,0,14.08.85,20.48,7.51l2.55,2.66-9.49,1.82c-20.33,3.87-41.34,7.88-60.6,16.7A3.39,3.39,0,0,1,761.09,812.71Z"/><path class="cls-4" d="M779.13,1295.52a11.84,11.84,0,0,1-6-1.67c-7.22-4.15-6.13-15-5.41-22.13,2-20.13,11.8-36.47,21.65-51.48.59-.9,1.22-1.78,1.84-2.62l.84-1.17,2.08-2.93,1.39,3.31q.24.56.45,1.11c.3.75.61,1.51,1,2.2a57.5,57.5,0,0,1,5.94,29.21c.53,13.19-2.19,24.57-8.31,34.79C790.25,1291.37,784.61,1295.52,779.13,1295.52Z"/><path class="cls-3" d="M793.72,169.34c-17,0-33.78-4.83-51.42-14.78l-1-.58.91-3.21,1.18,0c5.7.24,11.64.35,18.72.35,5.79,0,11.63-.08,17.28-.15s11.52-.15,17.3-.15a307.71,307.71,0,0,1,43.28,2.53l6.28.88-5.65,2.88C824.48,165.36,809.16,169.34,793.72,169.34Z"/><path class="cls-3" d="M733.33,145.92C747.9,127,769.58,123,785.2,123c21.54,0,45,7.73,61.27,20.18l5.35,4.11-6.72-.53c-20.14-1.56-36.45-2.29-51.34-2.29a341.81,341.81,0,0,0-58.5,4.62l-5,.87Z"/><path class="cls-3" d="M779.11,714.78A57.76,57.76,0,0,1,749,706.37l-5.48-3.29,6.38-.42c12.49-.81,24.38-3.06,35.89-5.23,13.68-2.58,26.6-5,39.82-5.06l5.24,0-3.89,3.51C822,700.3,803.93,714.78,779.11,714.78Z"/><path class="cls-3" d="M729.9,1091.28l54.52-49.88,2.2-2,1,2.8c1.35,3.69.25,8.69-3.18,14.47-9.12,15.34-34.22,35.31-52.93,38.08l-6.46,1Z"/><path class="cls-3" d="M720,1081.64C728.59,1048.8,754,1025,780.42,1025a42.28,42.28,0,0,1,7.21.62l5.11.89-4.38,2.77c-14.84,9.38-27.89,21.32-40.51,32.86-7.9,7.23-16.08,14.7-24.72,21.6l-4.72,3.77Z"/><path class="cls-4" d="M725.38,1217.52c-7.25,0-16.77-3.23-26-6.36l-.93-.32c-.86-.29-3.44-1.17-3.73-3.43s2-3.76,2.78-4.25c8-5.22,16.63-10.45,27.21-12.1,3.14-.49,6.34-1.11,9.43-1.71,4.14-.81,8.42-1.64,12.7-2.18a31.48,31.48,0,0,1,3.93-.26c9.18,0,15.13,4.41,16.34,12.11,1.28,8.16-5.61,11.26-10.65,13.52a41.18,41.18,0,0,0-4.2,2.06c-3.93,2.33-8,2.52-12.46,2.52h-4.68c-1.79,0-4.18,0-6.88.23A19.89,19.89,0,0,1,725.38,1217.52Z"/><path class="cls-4" d="M745.43,1349.17c-4.06,0-7.75-1.64-10.82-3.24-16.72-8.7-26.08-23.74-35.13-38.29-2.49-4-5.06-8.13-7.73-12-1.47-2.14-1-3.74-.63-4.5a4.49,4.49,0,0,1,4.2-2.11,7.75,7.75,0,0,1,1.57.16c22,4.46,40.3,17.06,56,38.51,1.48,2,1.78,4.53,2,6.38.05.46.11.92.16,1.14l.07.27v.35a24.58,24.58,0,0,0-.1,3.7c.08,3.25.18,6.93-4.3,8.66A14.53,14.53,0,0,1,745.43,1349.17Z"/><path class="cls-4" d="M731.09,1445.74c-5,0-9.93-2-15.52-6.37a129.69,129.69,0,0,1-41.27-54.79c-.59-1.49-1.15-3.37-.19-4.81a2.91,2.91,0,0,1,2.52-1.25,7.64,7.64,0,0,1,2.63.63l.26.1a83.33,83.33,0,0,1,46.64,23.2c8.5,8.21,16.19,16.62,16.91,29.32.19,4,.5,10.61-5.69,12.84A18.45,18.45,0,0,1,731.09,1445.74Z"/><path class="cls-6" d="M545.43,417.78a12.86,12.86,0,0,1-6.71-1.84,3.81,3.81,0,0,1-1.9-2.8c-.28-2.38,1.83-4.52,3.86-6.58a18.76,18.76,0,0,0,2.14-2.4,463.42,463.42,0,0,1,64.32-77.48c5.73-5.51,11-11.7,16.18-17.69,4.62-5.38,9.38-10.93,14.47-16a200.7,200.7,0,0,1,18.79-16c2.17-1.7,4.63-3.62,6.94-5.49q10.79-8.7,21.61-17.34l.18-.15c8-6.37,16.19-13,24.25-19.48,4-3.2,8.61-3.46,14.26-3.46h1.89l.2,0,5.16,1.42,2.66.73-1.52,2.3c-.4.61-.79,1.29-1.17,1.94a20.49,20.49,0,0,1-3.3,4.61c-11.65,11.2-24,22-35.86,32.52-6.78,6-13.77,12.11-20.59,18.29s-13.95,12.44-20.8,18.45c-13.79,12.08-28,24.59-41.14,37.72-3.52,3.53-7.13,7-10.62,10.42-15.8,15.32-32.13,31.16-42.27,51.54A12,12,0,0,1,545.43,417.78Z"/><path class="cls-6" d="M523.21,917l1.15-1.71c1.95-2.9,4.88-3.48,7.23-3.94a22.5,22.5,0,0,0,2.32-.55c10-3.25,20.13-6.66,29.93-10l.22-.07c17.31-5.84,35.21-11.88,53.05-17.2,7.88-2.35,15.89-4.59,23.63-6.75,19.72-5.52,40.11-11.22,59.48-19.1,5.48-2.23,11.74-2.29,17.79-2.34,2.72,0,5.5,0,8.11-.26l.61,0c3,0,4.63,1.88,5.93,3.4a11.5,11.5,0,0,0,1.24,1.32l1.84,1.61-1.94,1.49c-.78.59-1.54,1.2-2.3,1.8-1.67,1.33-3.4,2.71-5.25,3.93-15.82,10.4-33.43,17-51.59,23.5-9.35,3.34-19.2,5.58-28.72,7.75-4,.91-8.58,1.95-12.9,3-6.09,1.54-12.27,3.2-18.25,4.8-14.34,3.85-29.15,7.82-44,10.52l-5.09.91a246.55,246.55,0,0,0-28.12,6.14l-.87.26Z"/><path class="cls-6" d="M517.84,910.44c-4.85,0-8.28-2.67-11.3-5-2.55-2-4.75-3.7-7.55-4l-1.18-.14-.38-3.33,1.12-.4q9.42-3.36,18.86-6.67c14.35-5.06,29.18-10.29,43.71-15.69,28.91-10.77,53.6-17.3,77.69-20.55,6.12-.83,12.29-2,18.25-3.16,11.22-2.16,22.82-4.39,34.64-4.39,1,0,2,0,3,.05a6.88,6.88,0,0,0,.81-.08,12,12,0,0,1,1.42-.12c1.17,0,3.92.44,4,4.47s-2.44,5.24-4.92,5.91q-12.66,3.42-25.34,6.76c-22.65,6-46.06,12.21-68.94,19-25.32,7.51-52.27,15.87-77.91,26.13a16.07,16.07,0,0,1-6,1.26Z"/><path class="cls-6" d="M492.81,426.81l-2.11-.66-2.17-.67.94-2.07c.06-.13.11-.26.16-.4a6.06,6.06,0,0,1,.93-1.74c7.31-8.76,14.53-17.86,21.51-26.65,11.47-14.46,23.29-29.36,35.93-43.32,14-15.44,29.12-29.95,43.77-44,4.79-4.58,9.74-9.32,14.64-14.08,24.72-24,45.46-40.25,67.22-52.59.73-.41,1.45-.84,2.17-1.28a30.25,30.25,0,0,1,8.37-4,5.93,5.93,0,0,1,1.29-.14,13.48,13.48,0,0,1,5.06,1.41c.75.32,1.51.65,2.19.86l2.9.9-2,2.31c-.79.93-1.57,2-2.31,3-1.79,2.43-3.63,4.93-6.2,6.59-23,14.82-41.53,30.09-56.81,46.69-7.56,8.22-15.46,16.36-23.09,24.24-9.74,10.05-19.77,20.39-29.19,31-20.54,23-35.73,43.48-47.81,64.31-3.13,5.39-9.41,6-15,6.54a32.25,32.25,0,0,0-8.67,1.61,29.52,29.52,0,0,1-7,1.59c-1.26.18-2.48.36-3.77.61l-.54.11Z"/><path class="cls-4" d="M616.67,1486.8a13.39,13.39,0,0,1-3.21-.41,11.59,11.59,0,0,1-7.25-5.45,12.86,12.86,0,0,1-1.7-9c1.75-22.27,7.23-40.77,17.21-58.21,1-1.69,2.16-2.55,3.53-2.55,2.8,0,4.09,3.56,4.42,4.66,1,3.43,2.21,6.92,3.39,10.29,5.31,15.21,10.8,30.93-.37,47.65l-.48.73C628.59,1480,624.08,1486.8,616.67,1486.8Z"/><path class="cls-6" d="M315.2,795.82c-27.52,0-51.27-4.9-72.61-15-13.08-6.19-34.06-33.05-30.9-46.6,2.72-11.58,12.67-20.13,21-26.29a272.77,272.77,0,0,1,41.61-25.74c17.93-8.76,36.77-16.35,55-23.69l7.93-3.2c10.43-4.23,21.17-8.19,31.55-12,5.89-2.18,12.51-4.62,18.8-7,2.95-1.12,5.94-2.49,8.84-3.82,6.17-2.83,12.54-5.76,19.24-6.67a8.5,8.5,0,0,1,1.2-.09c6.11,0,6.69,6.2,7.12,10.73a24.69,24.69,0,0,0,.59,4.16,102.43,102.43,0,0,1,2.7,15.1c.37,3,.77,6.09,1.32,9.07.5,2.74,3.63,3.67,5.19,3.72a8.69,8.69,0,0,0,3-4.75c2.68-23.14,3.85-45.37-11-63.1-9.7-11.55-24.13-21.24-40.64-27.28-18.84-6.88-31.11-31.5-25.25-50.67,4.91-16.09,11.24-31.69,17.35-46.15,3.5-8.3,11-10.54,17.59-12.51a54.53,54.53,0,0,0,7.17-2.5c6.8-3.18,14.13-5.32,21.22-7.4,2.36-.69,4.72-1.38,7.07-2.11,9.07-2.83,18.76-5.7,29.59-8.77a4.91,4.91,0,0,1,1.39-.19,11.4,11.4,0,0,1,2.5.37c.43.1.81.19,1.18.24l2.65.35-1.08,2.44c-.17.38-.35.76-.54,1.13a13.45,13.45,0,0,0-.87,2.05c-5.47,19.56-20.84,25-35.7,30.2a110.48,110.48,0,0,0-16.31,6.71,97.46,97.46,0,0,1-14.36,6c-3,1.07-6.08,2.17-9,3.43a7.86,7.86,0,0,0-2.87,2.44,13.89,13.89,0,0,0,5.61,1.08,14.28,14.28,0,0,0,4.29-.62c12.43-4.06,24.45-8.82,36.69-13.75a116.1,116.1,0,0,0,11.42-5.61c1.39-.75,2.7-1.46,4-2.14a9.47,9.47,0,0,1,4.19-1.42c3.7,0,3.92,4.47,4,6.38.88,17.23-10.87,23.39-22.23,29.34l-2.27,1.2C420,519.6,406.18,526.45,391.43,531a5.66,5.66,0,0,0-2,2.15l0,.07c.24.45.81,1,2.58,1a17.46,17.46,0,0,0,2-.15c14.94-1.89,28.33-8.9,41.28-15.67l4.68-2.44.73-.34a4.22,4.22,0,0,0,.93-.5c4-4,7.69-6,10.84-6,5.4,0,8.89,5.56,9.82,15.65.7,7.72-5.77,10.38-11,12.51a27.23,27.23,0,0,0-6.49,3.32c-6.15,4.94-13.23,7.94-20.07,10.83-3.71,1.57-7.53,3.19-11.12,5.09a3.63,3.63,0,0,0,.12.65,3,3,0,0,0,3,2.22,5.71,5.71,0,0,0,1.8-.32,157.43,157.43,0,0,0,32.14-15.19c1.23-.77,2.54-1.72,3.81-2.64,3.71-2.7,7.55-5.48,11.65-5.48h.17c4.46.09,8.53,4.61,12.13,8.6.49.54,1,1.07,1.42,1.56,4.9,5.3,6.73,9.34,5.75,12.74-1.26,4.36-6.61,5.8-11.34,7.07-2.37.64-4.82,1.3-5.79,2.13-5.77,4.95-13.14,8-20.26,10.93-3.14,1.3-6.38,2.63-9.41,4.11-.41.19-2.4,1.25-1.84,2.62a2.88,2.88,0,0,0,3.07,1.84,10,10,0,0,0,2.37-.33c11.48-2.83,21.65-8.55,31.91-14.67l1.76-1c4.37-2.57,8.5-5,11.63-8.86a4.18,4.18,0,0,1,3.19-1.76c1.77,0,3.09,1.33,3.93,2.32,5.7,6.77,7.84,12.26,6.73,17.28-1.3,5.94-7.09,11-18.76,16.48-3.54,1.66-7,3.68-10.38,5.64-1.8,1-3.65,2.12-5.52,3.14-2.48,1.36-2.31,1.7-1.8,2.71a1.76,1.76,0,0,0,1.73,1.12,4.23,4.23,0,0,0,1.74-.43l2.32-1.09C482.27,602.5,494,597,503.6,588.47a33.33,33.33,0,0,1,3.89-2.85c.58-.39,1.16-.77,1.72-1.17l2-1.44,1,2.3c.56,1.31,1.23,2.67,1.87,4,1.57,3.15,3.16,6.37,3.64,9.87l.19,1.35c1.45,10.66,2.82,20.72,8.39,30.08,5.19,8.7,13.05,14,20.66,18.77a22,22,0,0,1,2.19,1.58c.33.25.61.48.91.7l2.11,1.57-2.73,2.11c-.55.43-1.13.89-1.76,1.31a123.67,123.67,0,0,1-15.81,8.42c-10.54,5-21.42,10.12-27.89,20.89-4.49,7.49-6.15,15.42-4.79,22.92.28,1.58,1.31,3.18,2,3.18.19,0,.9-.12,2.09-1.62.87-1.1,1.41-3.24,1.45-5.72.35-17.1,12.79-24.33,23.77-30.71l.13-.07q2.07-1.2,4.13-2.43c2.17-1.32,4.36-2.78,6.47-4.2,5.85-3.92,11.89-8,18.59-9.61a24.55,24.55,0,0,1,5.92-.67c5.11,0,10.41,1.26,15.54,2.47,1.46.35,2.89.69,4.29,1a2.11,2.11,0,0,1,1.68,1.85c.26,2.22-4.22,7-6.77,8.27-31.17,15.19-37.47,31.33-39.51,45.11-.4,2.75-.35,6.63,1.11,8.55a2.64,2.64,0,0,0,1.86,1.06l.36,0c1.48,0,2-1.85,2.51-6,.12-.87.23-1.72.37-2.5,3.61-19.69,18.54-30,33-39.9l1.43-1q2.72-1.87,5.45-3.73c8.27-5.63,16.81-11.46,24.68-18,6.73-5.56,14.51-8.83,22.75-12.3,3.26-1.37,6.63-2.79,10-4.4l5.16-2.44-2.51,5.13C628.47,674.46,606,701,576.44,721.42a380.51,380.51,0,0,1-97.23,48.73c-13.56,4.47-28,6.92-41.88,9.3-6.47,1.1-13.16,2.24-19.68,3.57-33.46,6.84-60.85,10.74-86.19,12.29-5.6.34-11.07.51-16.26.51Zm0-97.79c-21.83,2.67-36.36,10.56-47.15,25.59l-.76,1c-2.71,3.66-3.41,5-1.37,7.24a3.34,3.34,0,0,0,2.21,1.34c1.24,0,2.78-1.57,4-2.83q.6-.63,1.17-1.17c11.52-10.78,23.79-18.11,37.52-22.41l1-.31c3.82-1.15,6.73-2.21,6.66-4.6a4.31,4.31,0,0,0-3.13-3.93Zm106.9-13.51a8,8,0,0,0-3.25,1.49,12.15,12.15,0,0,1-3.64,1.77,79.09,79.09,0,0,0-18.32,7.07c-3.06,1.57-6.23,3-9.29,4.48-7.47,3.48-15.13,7-22.19,12.33,18.27-6.08,34.94-13.77,51.12-21.23l1.9-.88a35.46,35.46,0,0,0,5.81-3.07C423.52,685.18,422.8,684.52,422.11,684.52Zm-79.25,16.81c.49-.08,1-.14,1.45-.2a8.15,8.15,0,0,0,2.8-.64c19.26-11.26,40.51-18.25,61.06-25l7.25-2.4c2-.67,2.21-1.91,2.18-5a20.5,20.5,0,0,1,.09-2.82l-.05-.07a.63.63,0,0,0-.46-.22.79.79,0,0,0-.34.08c-7.93,3.53-16.19,6.6-24.19,9.56-17.09,6.34-34.75,12.9-49.69,24.27a7.12,7.12,0,0,0-1.6,2.15Zm61-48.73a8.3,8.3,0,0,0-3.15.6,175.32,175.32,0,0,1-17.75,6.53c-12,3.94-24.42,8-34.19,17.28a16.38,16.38,0,0,0,4.78-1.52,30.31,30.31,0,0,1,3-1.18c13.3-4.12,27.85-9,45.79-15.27l.94-.32c4.52-1.51,5.15-2.38,4.82-3.64C407.56,652.92,405.2,652.6,403.84,652.6Z"/><path class="cls-6" d="M494.47,894a10.91,10.91,0,0,1-4.81-1.13c-5.17-2.46-6.35-7.23-7.39-11.44-.61-2.5-1.25-5.08-2.71-6.91l-1.63-2,2.41-1c1.47-.63,2.92-1.29,4.37-2l.1,0A90,90,0,0,1,495,865.29l10.5-3.35c19.63-6.29,39.93-12.79,60.11-18.49,7-2,14.46-2.91,21-3.71,2.94-.36,5.64-.69,8.18-1.09H595c1,0,1.86,0,2.75,0A77.48,77.48,0,0,1,624,843.26a4.26,4.26,0,0,1,2.15,2.07c.12.19.22.36.33.51l1.25,1.61-1.63,1.21c-.21.16-.41.34-.62.53a6.35,6.35,0,0,1-2.55,1.61c-28.9,7.86-55,16.07-79.77,25.1-4.49,1.63-9,3.42-13.44,5.14-7.14,2.8-14.47,5.68-21.89,8.06a31.78,31.78,0,0,0-4.44,2C500.73,892.49,497.76,894,494.47,894Z"/><path class="cls-6" d="M460,437.26c-.63-.31-1.38-.63-2.1-.94-2.75-1.17-4.41-1.88-4-3.77L454,432c.6-3.06,1.28-6.54,3.4-9,10.75-12.38,20.9-25.64,30.72-38.46,14-18.25,28.38-37.07,44.84-53.83,23.4-23.83,46.51-46.91,71.82-67.29,4.39-3.54,8.49-6.47,14.24-6.47a17,17,0,0,1,1.87.1c1.31.14,2.7.17,4,.19l1.93,0,3.94.14-2.44,3.1c-.43.55-.85,1.13-1.27,1.71a25.73,25.73,0,0,1-3.3,4c-5.58,5.15-11.34,10.26-16.91,15.2-12.07,10.69-24.54,21.75-35.61,33.68-10,10.76-19.91,22.07-29.49,33l-7.93,9a599.19,599.19,0,0,0-49.4,65.05c-4.43,6.67-10.15,9.19-15.67,11.63a61.11,61.11,0,0,0-6.85,3.37l-.93.55Z"/><path class="cls-6" d="M529.38,609.39a4.15,4.15,0,0,1-3.18-1.32c-1-1.13-1.44-2.89-1.22-5.22.47-5.23.6-9.57-2.41-13.69l-.84-1.16.83-1.18c3.5-4.92,8.51-6.45,12.93-7.81a40.55,40.55,0,0,0,4.37-1.5c6.72-2.87,13.72-5.27,20.49-7.6,13.12-4.5,26.65-9.15,38.43-17.31a6.35,6.35,0,0,1,3.66-1.22c3.1,0,5.63,2.43,7.86,4.58a20.4,20.4,0,0,0,3.4,2.86c3.73,2.16,6.08,6.85,6.91,8.77,1.45,3.33,1.62,5.93.53,7.95-1.57,2.93-5.18,3.57-8.08,4.08a14.17,14.17,0,0,0-3.13.76,202.25,202.25,0,0,1-34,12.89c-15.31,4.18-29.88,9.92-43.5,15.44A8,8,0,0,1,529.38,609.39Z"/><path class="cls-6" d="M523.78,578c-4.71,0-8.86-2.59-12.68-7.91-4.21-5.88-5.49-9.76-4.16-12.59,1.55-3.31,6-3.62,9.88-3.9,2.12-.15,5.3-.37,5.94-1.23,5.06-6.76,13-11.39,20.76-15.88,1.05-.61,2.09-1.21,3.1-1.81,2.9-1.71,6.7-2.54,11.62-2.54a95.3,95.3,0,0,1,12.64,1.14l.87.12c9.4,1.27,17.44,5.14,23.25,11.21l.86.92,2.58,2.77-2.21,1.25c-1.35.77-2.69,1.58-4,2.37a71.26,71.26,0,0,1-8.75,4.76A213.46,213.46,0,0,1,562.26,564c-9.44,2.89-19.2,5.88-28.08,10.67C531.15,576.33,527.55,578,523.78,578Z"/><path class="cls-4" d="M574.6,1194.86c-19.25-2.42-32.93-8.64-43-19.57-3.06-3.32-4.49-6.54-4.25-9.59a9.35,9.35,0,0,1,3.94-6.64,14.81,14.81,0,0,1,9.38-3.19,24.76,24.76,0,0,1,8.83,1.84c15.48,5.84,27.16,17,38.46,27.71l1.18,1.12c1.68,1.6,2.26,3.09,1.72,4.43-.33.83-1.21,1.83-3.45,1.83h-1c-4.54,0-8.12.63-10.64,1.88l-.54.27Z"/><path class="cls-4" d="M520,1294.86c-11.77,0-21.52-4.65-28.2-13.45a7.06,7.06,0,0,1-1.52-5.41c.38-2.71,2.35-5.41,5.83-8,6.66-5,14.22-6.36,21.53-7.68a69.4,69.4,0,0,0,10.72-2.52l.52-.19.54.11a86.88,86.88,0,0,0,14.36,1.24c8.18.25,15.91.49,23.34,4.53,3.35,1.84,8.73,5.43,7.08,8.86s-5.31,5.77-9.27,8c-14.87,8.53-27.75,13.07-40.54,14.28C522.88,1294.79,521.41,1294.86,520,1294.86Z"/><path class="cls-4" d="M514.58,1405.72a25.82,25.82,0,0,1-15-4.63c-4.55-3-8.94-8.75-6.34-14.85,3.06-7.19,9.47-11.91,20.16-14.89a15.17,15.17,0,0,0,2.06-.8,12.28,12.28,0,0,1,5-1.37,6.74,6.74,0,0,1,3.27.83,112.55,112.55,0,0,1,18-1.53,81.28,81.28,0,0,1,27.19,4.45c1.36.47,3.2,1.31,3.45,3.14s-1.36,3-2.05,3.42l-.17.11c-12.64,10.85-28.52,22.41-50.18,25.7A36.14,36.14,0,0,1,514.58,1405.72Z"/><path class="cls-6" d="M397,456.62a8.53,8.53,0,0,1-1.6-.2,5.72,5.72,0,0,0-.68-.12l-2.05-.2.27-2.05c0-.21,0-.44,0-.67a4.24,4.24,0,0,1,1-3.18c6.85-7,12.34-15.28,17.65-23.32a193.64,193.64,0,0,1,14.26-19.72c5.17-6,10.39-12.28,15.43-18.33,5.49-6.58,11.15-13.37,16.8-19.91,7-8.14,15.79-14.9,24.27-21.43,3.61-2.78,7.33-5.66,10.85-8.58L503.82,330c10.15-8.49,20.62-17.25,31.1-25.66,7.41-5.95,15.14-11.71,22.62-17.28l.15-.11q4-3,8-6a14,14,0,0,1,2.67-1.48c.37-.17.72-.33,1.06-.51l1.15-.59,2.09,2.9-.92.9c-28.23,27.6-53.41,52.69-75.84,80.28-12.71,15.65-24.63,32.4-36.16,48.6-6.91,9.71-14.06,19.74-21.31,29.46-3.25,4.36-8.26,5.12-12.68,5.8-2.79.43-5.66.87-8,2.15a93.15,93.15,0,0,1-14.29,6c-1.72.61-3.45,1.22-5.15,1.87A3.7,3.7,0,0,1,397,456.62Z"/><path class="cls-6" d="M480.54,866.13a3.14,3.14,0,0,1-2.3-1c-1.5-1.59-1.45-4.62-1.25-7.85,0-.33.05-.9.05-1.13-1.55-7.2-1.09-12.55,1.41-16.33,3.34-5.07,9.4-6.24,15.27-7.37,1.57-.3,3.17-.61,4.62-1,14.74-3.78,31.44-8.08,48.46-8.48h.37c8,0,11.28,5.54,14.19,10.43l1.16,2-.4,1c-.51,1.11-3.51,4-5.74,4.38-11.39,1.87-22.39,5.88-33,9.75-4.57,1.67-9.28,3.39-14,4.92a288,288,0,0,0-27.22,10.35A4,4,0,0,1,480.54,866.13Z"/><path class="cls-6" d="M502.09,554.05c-2.88,0-6.66-3.66-13.08-10.88l-.74-.83c-1.12-1.25-2.15-2.58-3.15-3.86-2.52-3.25-5.14-6.61-9.15-8.4l-5.84-2.6,6.28-1.19c13.34-2.54,27.43-6,40-14.35,1.7-1.12,3.42-2.21,5.14-3.3,6.65-4.22,13.52-8.58,18.83-14.69,1.7-1.95,6.11-3,7.61-3a2.23,2.23,0,0,1,2.15,1.15l.85,1.5c2.93,5.14,6.57,11.53,3.21,18.4-11.08,22.61-32,33.8-50.91,41.76A3.05,3.05,0,0,1,502.09,554.05Z"/><path class="cls-6" d="M466.23,493.09a2.54,2.54,0,0,1-2.17-1.09c-.87-1.28-.29-2.74.33-4.29a8.33,8.33,0,0,0,.69-2.25c-2.51-17.72,5.68-32.92,12.92-46.34,1.89-3.51,7.44-4.36,12.81-5.19,1.61-.25,3.09-.47,4.39-.75,13.6-2.95,29.69-6.36,45.91-9.3.69-.12,1.46-.34,2.27-.56a19.41,19.41,0,0,1,5.22-.95,7.67,7.67,0,0,1,6.44,3.26l.5.68-.14.84c-2.95,17.75-14.48,27.46-25,35.16a221.52,221.52,0,0,1-32.63,19.24,160.11,160.11,0,0,1-30.39,11.38A4.3,4.3,0,0,1,466.23,493.09Z"/><path class="cls-6" d="M474.23,523.12c-3.06,0-4.22-3.14-5.14-5.66a13.28,13.28,0,0,0-1.44-3.12,10.64,10.64,0,0,1-1.77-4.86,14.06,14.06,0,0,0-.63-2.52c-1.69-4.27-1.84-7.21-.45-9.26,1.11-1.63,3-2.43,5.82-2.43a32.69,32.69,0,0,1,3.8.3,21.5,21.5,0,0,0,2.39.22,1.81,1.81,0,0,0,.41,0c23.17-8,45.44-16.55,63-33.91.85-.85,3.21-2.62,5-2.62a2.61,2.61,0,0,1,1.39.38,9.7,9.7,0,0,1,3,3.57c.14.23.23.39.31.5l.46.66-.11.79c-2.47,17.31-14.41,26-25.95,34.38l-.1.08L520.93,502c-10.83,8-23.37,12.66-35.49,17.15-3.15,1.16-6.4,2.37-9.57,3.61A4.44,4.44,0,0,1,474.23,523.12Z"/><path class="cls-6" d="M486.42,829a4.24,4.24,0,0,1-3.41-1.27c-1.09-1.33-.85-3.15-.41-5.39,2.84-14.61,9.3-20.3,23-20.3,1.12,0,2.32,0,3.56.11,1.68.1,3.51.15,5.74.15,1.42,0,2.83,0,4.24,0h.21l4.07,0c6.29,0,13,.34,19.72,2.84,4,1.48,5.51,4.22,7,6.88l1.78,3.2-2.73.51c-.67.13-1.34.28-2,.43a34.8,34.8,0,0,1-4.86.85c-20,1.56-34.75,4.94-47.86,11a9.54,9.54,0,0,1-3.45.87,2.09,2.09,0,0,1-.61-.08l-.35,0C488.53,828.84,487.36,829,486.42,829Z"/><path class="cls-6" d="M497.16,799.2a3.85,3.85,0,0,1-3.35-1.54c-.86-1.22-.91-2.88-.14-5.07,2.65-7.47,14.51-15.52,29.06-15.52,5.56,0,10.16,1.4,13.29,4a13.55,13.55,0,0,0,3.06,1.56c2.21.93,4.72,2,5.52,4.17a4.58,4.58,0,0,1-.36,3.75c-3.32,6.52-9.63,6.52-11.7,6.52-1.34,0-2.62-.11-3.76-.2-.87-.08-1.69-.14-2.32-.14h-.4c-2.82.08-5.35.1-7.79.12-7.19,0-12.83.08-18.33,1.81A9.5,9.5,0,0,1,497.16,799.2Z"/><path class="cls-6" d="M413.52,946.43c-.9,0-1.8,0-2.69,0-4-.14-8.12-.16-12.1-.18-16.13-.07-32.75-.14-48.1-7.92-2.44-1.23-4.22-3.63-5.14-6.94-2-7.12.13-17.93,5-25.7,5.11-8.14,11.73-15,18.13-21.68,5.55-5.77,11.28-11.72,15.82-18.33,1.37-2,2.81-4,4.21-5.92,6.61-9.13,13.42-18.55,14.51-30.49a26.3,26.3,0,0,0-4.12-17c-3.91-5.61-5.07-9.23-3.76-11.75.92-1.77,2.84-2.63,5.85-2.63a38.34,38.34,0,0,1,4.85.43,27.06,27.06,0,0,0,3,.3,2.21,2.21,0,0,0,.37,0c13.26-3.69,26.88-6.84,40.05-9.89,6.77-1.57,14.33-3.32,21.54-5.08,4.48-1.09,9-2.55,13.32-4,2.26-.73,4.82-1.56,7.32-2.32a3.08,3.08,0,0,1,.86-.12,3.78,3.78,0,0,1,3.13,1.57c.64,1.09.28,2.38-.2,3.61-1.56,4-10,17.76-12.84,18.6-6.75,2-13.74,4-19.91,5.88-8.7,2.59-17.69,5.27-26.62,7.81-1.71.49-1.66.78-1.47,1.86.08.46.28,1.55,2.23,1.55a3.62,3.62,0,0,0,.47,0c14.21-1.47,26.59-4.69,37.86-9.83a7.62,7.62,0,0,1,2.37-.57l.71-.1,2.19-.4.16,2.22c0,.23.07.47.11.71a5.28,5.28,0,0,1-.07,3q-.93,2.43-1.84,4.89a122.28,122.28,0,0,1-6.21,14.72c-2.5,4.73-7.27,5-11.11,5.24a21.85,21.85,0,0,0-4.31.54c-9.09,2.54-18.6,3.94-27.79,5.3l-.23,0c-2.43.36-4.85.72-7.26,1.1-2.09.32-2.58,1-2.79,2.17a2.13,2.13,0,0,0,0,.3,8.07,8.07,0,0,0,1.13.2c.36,0,.68.09,1,.15a37.22,37.22,0,0,0,7.48.72c6.9,0,13.81-1.72,20.5-3.38,3.93-1,8-2,12.07-2.66a13.88,13.88,0,0,0,2.94-1c.55-.24,1.09-.47,1.65-.68l2.6-1,.09,2.77c0,1.3.1,2.59.15,3.88.14,3.26.29,6.63.21,10-.09,3-3,4.22-4.19,4.74-11.3,4.85-23.29,7.25-34.89,9.57-5.81,1.16-11.74,2.35-17.47,3.82-.34.08-.74.14-1.16.21-.24,0-.63.09-.94.16a5,5,0,0,0,3,2.08c1.15,0,2.3.07,3.44.07,11.64,0,24-2.21,37.65-6.76a40.12,40.12,0,0,0,4.21-1.81c2.78-1.32,5.4-2.56,7.76-2.56a5.33,5.33,0,0,1,2.35.51c3.34,1.64,3.1,5.31,2.91,8.26-.15,2.33-.29,4.53.72,6.18a2.37,2.37,0,0,1,.11,2.37c-.8,1.51-2.65,1.58-5.46,1.7a20.73,20.73,0,0,0-3.1.25c-16.37,3.42-33,6.69-49.54,9.73-.47.09-1,.17-1.48.25l-.22,0c-4.29.72-7.83,1.47-7.77,3.45,0,.83,0,1.25,1.59,1.25a21,21,0,0,0,3.55-.47,25.62,25.62,0,0,1,2.83-.43l1.1-.09c19.14-1.42,38.93-2.9,57.05-10.6a6.32,6.32,0,0,1,2.5-.64c2.39,0,3.21,2.16,3.65,3.32.38,1,1.53,4,3.09,5,3.43,2.18,7.9,5.5,7.11,9.2-.61,2.86-4,4.65-10.64,5.63-5.22.77-10.47,1.61-15.54,2.43-17.42,2.79-35.44,5.67-53.56,6a8.7,8.7,0,0,0-3.41,1.54c5.32.46,10.62.68,16.09.68,15,0,28.94-1.74,41.79-3.62a83.48,83.48,0,0,0,14.1-3.77c5.41-1.8,10.53-3.49,15.83-3.88.37,0,.74,0,1.11,0,6.52,0,13.09,4,19.45,7.93,2.45,1.5,5,3,7.4,4.29a2.83,2.83,0,0,1,1.76,3c-.25,1.72-2,2.65-3.58,2.95q-10.72,2.09-21.44,4.24c-14.28,2.84-29,5.78-43.63,8.39-2.79.5-5.6,1.05-8.42,1.6C434.3,944.38,423.84,946.43,413.52,946.43Z"/><path class="cls-3" d="M373.94,333c-25.73-.55-49.66-16.8-58.19-39.5a4.64,4.64,0,0,1-.08-2.49c0-.19.06-.36.07-.52l.15-2.11,2.1.27c.65.08,1.4.09,2.14.11,1.89,0,4,.08,5.69,1.23C342.38,301.28,359,313,375.94,325a6.88,6.88,0,0,1,2.1,2.85,9.24,9.24,0,0,0,.51.95l1.29,2.07-2.28.86-2.9,1.09-.26.1-.37,0Z"/><path class="cls-3" d="M372.14,314.1c-.49-.16-1.09-.29-1.68-.42-1.63-.35-3.47-.74-4.67-2.1-6.87-7.71-15.39-13.22-24.41-19-4.78-3.1-9.72-6.28-14.54-9.9l-4.72-3.53,6.43-.07c16.12,0,26.27,8.85,35.29,17.91,1.86,1.87,3.53,3.91,5.14,5.89.8,1,1.59,2,2.41,2.9a11.18,11.18,0,0,0,.91.87c1.3,1.16,3.27,2.91,2.4,6.11l-.55,2Z"/><path class="cls-3" d="M363,238.81c-11.79,0-21.73-3.45-33-8.63a50.68,50.68,0,0,1-9.81-6.42,69.47,69.47,0,0,0-5.68-4.11A7.23,7.23,0,0,1,312,216a12.23,12.23,0,0,0-.58-1.28l-1.64-3,3.58.06c.36,0,.77,0,1.17-.06s1-.07,1.49-.07a6.21,6.21,0,0,1,2.57.47c13.72,6,27.27,12.11,41.61,18.54l16.05,7.19-7.54.72C366.76,238.72,364.85,238.81,363,238.81Z"/><path class="cls-3" d="M311.36,200.37l6.45-.85a70.33,70.33,0,0,1,9.33-.67c18.38,0,29.24,8.64,48.11,29.3l.84.92-2.1,2.78Z"/><path class="cls-3" d="M340.11,141c-17.1,0-35.79-7.85-54.06-22.72l-.94-.76,1.55-3,1.17.32c26.47,7.11,50.45,13.26,75.76,16.54l6.22.8-5.54,2.95A51,51,0,0,1,340.11,141Z"/><path class="cls-3" d="M348.81,122.4c-16.41-2.09-32.27-6.46-47.61-10.68-4-1.1-8-2.21-12-3.28l-4.57-1.21,4.05-2.44c4.51-2.7,10.56-4.13,17.51-4.13,16.35,0,34.6,7.57,44.39,18.42l3.62,4Z"/><path class="cls-3" d="M301.92,422.36l-5.62-72.6,3.06,1.35c8.16,3.61,10.39,20.72,11,27.91,1.18,14.61-.54,30.53-4.62,42.6l-.39,1.16Z"/><path class="cls-3" d="M294.27,425.45c-17.34-24.12-22.1-48-15-75.1a5.82,5.82,0,0,1,2.29-2.94c.28-.24.55-.45.77-.68l2.12-2.17,1.16,2.81c.3.73.68,1.5,1.06,2.25a17.57,17.57,0,0,1,2.12,6c.35,3.67.48,7.38.6,11,.16,4.28.31,8.7.84,13,.34,2.76.64,5.53.94,8.33,1.22,11.26,2.49,22.88,6.61,35.75l.4,1.22-3.18,1.6Z"/><path class="cls-3" d="M257.75,1249.29c8-16.85,15.15-31.91,23-48.44l.92-1.92,3.28.73v1.19c.09,12.06-1.27,20.84-4.43,28.48-3.81,9.21-10.32,16.58-19.91,22.52l-5.77,3.58Z"/><path class="cls-3" d="M249.34,1248.05l-.08-1.17c-1.46-22,10.56-35.5,22.19-48.58l.85-1,3,2-22.71,49.36Z"/><path class="cls-5" d="M153.05,773.23a3.42,3.42,0,0,1-2.2-.81c-4.45-3.74-6.43-10.49-7.93-16.53-1.82-7.34-4-14.73-6.12-21.89-2.72-9.2-5.53-18.7-7.6-28.24A258.13,258.13,0,0,1,125.39,680c-.68-6-1.39-12.18-2.38-18.19-3.49-21-2.57-42.06-1.34-61.87,1.45-23.31,5.84-48.1,13-73.69,6.76-24,14.88-49.55,28.43-73.43a6.34,6.34,0,0,0,.3-2c.05-.7.11-1.49.24-2.42l.17-1.24,3.49-.14.27,1.22a737.86,737.86,0,0,0,20.82,73.53c10.6,31.57,22.48,59,36.31,83.87,13.37,24,26,42.41,39.75,57.82.51.57,1.05,1.12,1.58,1.67,2.47,2.55,5,5.13,4.41,8.5-.48,2.84-3,5.25-8.08,7.81l-.54.27c-21.6,10.82-46.08,23.1-55.18,46.45-5,12.78-14.55,17.76-23.8,22.57-6.16,3.21-12,6.23-16.21,11.44a7.63,7.63,0,0,1-2.44,1.83,8,8,0,0,0-1.08.66,29.46,29.46,0,0,0-3.35,3.51C157.46,770.88,155.43,773.23,153.05,773.23Z"/><path class="cls-3" d="M223,346.77a2.92,2.92,0,0,1-2.87-2.08c-1.6-4.69,2.15-8.14,5.15-10.91a22.21,22.21,0,0,0,4.12-4.51A62,62,0,0,1,237.66,319c1.57-1.7,3.19-3.44,4.64-5.22,2.84-3.5,5.54-7.05,8.4-10.82,1.3-1.71,2.62-3.44,4-5.21l2.72-3.54.83,4.39c2.29,12.2-11.51,36.16-24.2,42a32.09,32.09,0,0,0-4.28,2.73C227,345.25,224.89,346.77,223,346.77Z"/><path class="cls-3" d="M209.6,339.07c-1.92-13.47,19.5-44.84,32.74-48a4.18,4.18,0,0,1,.86-.09h.17a5.52,5.52,0,0,0,1.72-1.23c1.16-1,2.59-2.28,4.72-2.28a5.93,5.93,0,0,1,2.24.47l2.25.91-1.32,2c-.62.94-1.2,1.91-1.78,2.87a52.8,52.8,0,0,1-4.31,6.37c-8.28,9.93-16.76,19.89-24.95,29.53l-.08.09-8.75,10.31-2.88,3.39Z"/><path class="cls-3" d="M190.74,1103.63c.25-.41.48-.84.71-1.26a15.82,15.82,0,0,1,2.15-3.26q6.35-6.81,12.71-13.58l.2-.21c6.11-6.51,12.42-13.24,18.57-19.92a15.52,15.52,0,0,0,2.17-3.75c.33-.72.67-1.46,1.06-2.17l2.28-4.21,1.39,4.58c2.67,8.77-7.37,29.19-17,34.69-3.05,1.73-6.05,3.67-8.95,5.55-2.36,1.53-4.76,3.09-7.19,4.54a15.25,15.25,0,0,1-4.11,1.49c-.58.15-1.11.29-1.63.45l-5.11,1.64Z"/><path class="cls-3" d="M176.12,240.64l2.8-3.29A133.57,133.57,0,0,1,191.42,225c6.08-5.5,12.36-11.19,16.84-18.42a37,37,0,0,1,6.38-7,60.53,60.53,0,0,0,4.52-4.55,5.15,5.15,0,0,1,1.54-1.16c.13-.08.26-.14.38-.22l2.17-1.45.83,2.47c.06.16.13.32.21.49a5.17,5.17,0,0,1,.58,2.39c-1.17,16.95-28.14,43.16-44.39,43.16Z"/><path class="cls-6" d="M201.66,783a26.06,26.06,0,0,1-9.95-1.95c-3.71-1.5-7.73-3.49-8.43-8.16-1.12-7.41.88-13.65,5.51-17.12,3.51-2.63,8.09-5.65,12.36-5.65,5.17,0,8.71,4,10.84,12.1.78,3,3.51,5.87,6.15,8.65,1.34,1.4,2.71,2.83,3.9,4.34l1.77,2.23-2.71.91-2.65.9C213.06,781.13,207.58,783,201.66,783Z"/><path class="cls-3" d="M172.18,231.73c-1.72-5.42,3.4-14.06,8-20.36,12.76-17.46,27.77-27.89,34.91-27.89h3.82l-2.16,3.14c-10.29,14.42-22.48,26.81-34.27,38.8-2.32,2.36-4.65,4.72-7,7.09l-2.32,2.4Z"/><path class="cls-3" d="M180.56,1102.49c-1.69-3.11-1.5-7.15.56-11.67,5.06-11.13,22.72-26.22,40-30.07l6.78-1.52-46,45.61Z"/><path class="cls-6" d="M124.34,809.63c14.2-18.26,30.41-30.89,47.16-43.27a4.56,4.56,0,0,1,2.67-1.1A2.53,2.53,0,0,1,176,766a4.24,4.24,0,0,1,.92,3.16c0,5.75,1.42,9.87,5.13,14.7,1.63,2.14,3.36,4.88,2.24,7.14s-4,2.23-5.27,2.23c-.71,0-1.45,0-2.19-.07s-1.25-.06-1.81-.06a3.74,3.74,0,0,0-1.13.09c-11,5-22.29,9.51-34.26,14.3q-6.3,2.52-13,5.21l-6.9,2.81Z"/><path class="cls-3" d="M145.6,1067.66a256.55,256.55,0,0,1,16.54-60l1.92-4.76,1.8,4.81c8.1,21.64,2.58,41.81-16.85,61.65l-4.27,4.36Z"/><path class="cls-3" d="M106.63,1234.19c-.75,0-1.51,0-2.29,0l-7.39-.33,6.55-3.44,10.77-5.7c8.83-4.69,17.16-9.11,25.6-13.29a20.61,20.61,0,0,0,3.29-2.27c2.28-1.79,4.86-3.81,8.51-3.81a10,10,0,0,1,1.22.08l3.8.46-2.55,2.85c-1,1.13-2,2.36-2.93,3.56-2.23,2.82-4.53,5.72-7.54,7.78C132.35,1227.78,121.75,1234.19,106.63,1234.19Z"/><path class="cls-3" d="M134.91,1070.15c-10.46-15.91,1-52.49,21.89-69.89l.92-.76,2.68,2-.5,1.08c-8.92,19.69-15.31,39.69-21.37,66.86l-1,4.62Z"/><path class="cls-3" d="M92.44,1224.51c4.23-13.24,30.48-27.26,51.07-27.26a33.94,33.94,0,0,1,5.79.47l5.62,1-5,2.75c-2.78,1.54-5.56,3.12-8.24,4.65l-.12.06c-6.32,3.61-12.29,7-18.66,10-6.21,2.9-12.49,5.19-19.14,7.62-2.87,1-5.8,2.12-8.69,3.23l-3.89,1.49Z"/><polygon class="cls-2" points="6 8.83 58 60.83 58 1619.17 6 1671.17 6 8.83"/><path d="M1024,8V1672a8,8,0,0,1-8,8H8a8,8,0,0,1-8-8V8A8,8,0,0,1,8,0H1016A8,8,0,0,1,1024,8Zm-8,1658.34V13.66l-48,48V1618.34ZM962.34,56l48-48H13.66l48,48H962.34ZM13.66,1672h996.68l-48-48H61.66ZM960,1616V796.58a67,67,0,0,0-6.93-2.54c-29.43-6.65-36.78-30.67-42.25-56-2.08-9.6-2.57-18.2,1.13-28,1.6-4.25-5.69-11.85-9.82-19.56-5.33,19.93-10.25,38.11-15.06,56.33-3.5,13.25-6.18,26.75-10.47,39.73-3.33,10.06,5.06,14.49,8.16,21.42,1.15,2.58,4,4.45,5,7,4.62,12.4,17.33,11.21,26.38,16.1,19.54,10.57,26.46,28.84,31.14,49,1.49,6.4,3.36,12.85-.7,17.94-5.65,7.09-14.79,7-21.94,3.91-29.33-12.51-45.33-35-40.85-67.13,1.66-11.93-5.89-16.92-9-25.16-.18-.5-1.09-.73-1.67-1.09-1.35,3-3.65,5.87-3.91,8.93-2.38,27.68-11.27,54.14-15,81.67-2,15-4.23,30.65-8.68,45.58-.68,2.29,4.33,6.57,7.11,9.55,9.57,10.26,19.58,20.13,28.93,30.59,6.67,7.46,15.73,3.33,23.51,5.65,20.43,6.09,53.52,29,54.82,55.73.05,1,.07,1.91.07,2.88,0,7.7-1.74,15.74-10,19.48-11.43,5.16-22.08,1.1-31.77-5.49-15.67-10.67-25.87-25.95-34.49-42.38-1.35-2.59-1.47-6-1.45-9.1.08-16.75-12.85-24.94-22.76-35.17-4.56-4.72-9.08-9.52-13.24-14.58-2.76-3.35-3.29-1.29-3.78,1.12-4.46,21.77-8.81,43.53-11.93,65.58-1.1,7.79-.18,16.3-4.85,24.12-2,3.34-3.57,10.72,4.57,15.2,7.63,4.2,14.5,11.57,19.08,19.13,7.39,12.18,18.75,13.18,30.37,13.77,21.53,1.09,53.08,26.43,57,47.44,1.09,5.92-2.24,12.16-6.52,16.39-7,6.88-15.06,7.35-24.41,3.46-27.21-11.32-39.39-33.64-49.74-59.61-4.68-11.75-18.66-19.81-28.45-29.5-1.35-1.34-2.88-2.49-4.33-3.72a54,54,0,0,0-2.14,7.32c-3.38,22.68-4.8,45.7-11.38,67.83-2.55,8.58,5.41,10.88,9.27,15.34,6.74,7.81,13.41,16.28,21.84,21.84,7.81,5.15,18.48,3.85,27.78,7,19.8,6.63,43,32.6,44.41,52.51.75,10.8-15.47,21-26.15,15.33-21.34-11.38-38.38-26.85-46.22-51.1C836,1197,827.5,1184.79,814,1176.88c-6.84-4-5.73-3.78-8.77,5.72a150.74,150.74,0,0,0-4.71,19.52c-2.52,13.82,9.18,22.5,10,34.76,1.44,21,.87,41.58-13.54,58.82-7.72,9.24-19,11.25-28.24,5.79-11.47-6.75-10-19.2-8.5-31.48s4.74-23.84,10.79-34.42c5.75-10,12.58-19.46,18.9-29.17a4.2,4.2,0,0,0,.92-2.2,209.71,209.71,0,0,1,4.26-49.85c3.79-18,3.15-36.78,9.46-54.46,2.18-6.12,1.95-13.23,2.15-19.91.53-18,4.94-35.37,8.11-52.94a25.47,25.47,0,0,0,0-5c-18,4.69-15.21,22.38-21.86,34.37-11.44,20.62-26.39,40.72-50.11,43.63-24.86,3.06-32.9,20.5-44.87,36.29-15.92,21-22,46.46-32.75,69.82-.54,1.16.1,3.66,1.45,2.51,4.06-3.42,8.92-1.67,13.25-2.6,13.64-2.93,20.09-17.85,33.2-20,16.63-2.7,32.31-14.08,50.44-5.58,9.46,4.43,15.74,11.3,15,21.25-.65,9.36-8.79,15.36-16.73,19-24.89,11.4-49.27,8.69-72.82-4.67-6-3.41-11.49,1.24-17.23,1.87-19.87,2.19-15.2,19.78-18.57,31.7-5.1,18.1,13.17,16.39,21.36,23.28,17.52,14.74,43.61,7.77,60.51,24.19C747.87,1309.46,766,1318,765,1339.68c-.78,17.52-15.73,25.33-31.49,17-19.38-10.27-34.46-25.3-42.16-45.46-7.52-19.72-21.34-31.29-39.37-39.52-4.93-2.25-4.22,3.78-4.42,4.7-5.12,22.81-9.21,45.79-11,69.17-.76,9.83,8.85,9.8,13.2,14.45,5.52,5.91,13.82,10.35,21.73,12.58,9.13,2.57,19.17.48,28.61,4.19,23,9,42.08,22.76,51.73,46,4.4,10.57,4.16,23.2-8,29.89-9.33,5.13-19.27,4.82-28.74-2.11-11.07-8.1-21.51-17.17-29.38-28-8.56-11.79-15.85-24.65-19.5-39.56-1.24-5-11-8-16.9-11.84-.65-.43-1.62-.34-2.28-.75-4.44-2.73-8.84-5.54-13.25-8.32-.35,5.82-.58,11.66-1.1,17.46a33.69,33.69,0,0,1-1.63,8c-5,14.32,6.67,23.35,10.75,34.82,8.48,23.84,13.16,47.42-9.55,66.92-7.81,6.71-16.89,12.25-26.29,5.33-7.95-5.86-10.89-14.41-9.87-26a153.51,153.51,0,0,1,10.79-45.34c3.8-9.31,13-15.91,13.11-27s.62-22.4.95-33.6c-4.11.9-8.38,1.37-12.29,2.79-8.71,3.18-18.06,5.61-25.64,10.62-8.67,5.72-15.05,14.85-23.59,20.85-17.87,12.54-37.37,22.8-59.89,15.51-8.32-2.69-16.07-10.35-16.45-21-.5-13.74,8-22.42,19.73-26.22,23.64-7.67,47.66-10.25,71.47.7,5.35,2.46,9.77-2.55,14.55-4.25,7.07-2.5,13.54-6.11,21.4-7,17.34-1.83,13.39-17.06,14.26-27.28,1.54-18.26,6.47-35.82,8.78-53.85.6-4.7,1.25-9.38,1.9-14.27-16.63,4.48-34.21,7.83-50.64,14.15-10.14,3.91-19,11.84-27.62,18.9-10.65,8.69-43.49,13.18-56.24,7.75-11.42-4.87-20.64-11-20.06-24.82.49-11.75,10.13-16.51,18.95-19.82,21.29-8,43.76-11.59,64.68-.46,18.32,9.75,34.77.61,52-1,4-.37,8-1.88,12-1.78,13.52.35,11.34-11.37,14.56-18.7a114.46,114.46,0,0,0,6.61-19.66c1.06-4.49-4.08-4.16-6.28-4.58a282.65,282.65,0,0,1-45-12c-5.5-2-10.39,3.29-15.76,3.71-25,2-46.42-5-62.07-25.72-3.8-5-3.36-10.8-.91-15.83,4.43-9.1,12.94-12.42,22.44-12.34,14.28.13,24.14,9.79,35.47,16.8,12.27,7.6,17.33,23.22,31.74,27.52,10.9,3.26,22.22,5,33.32,7.6,3.5.81,6.88,2.09,10.22,3.13a384.75,384.75,0,0,1,22.49-56.47c2-4.15-2.71-6.44-4.86-8.2-17.05-14-35.76-24.37-58.88-20.19-10.77,2-21.3,6.13-31.88,8.29-31.44,6.41-63.32,13.86-94.24-3.49-10.48-5.88-20.71.37-30.33,4-25.26,9.47-50.19,9.69-76,1.72-9.75-3-19.75-7.12-29.67-7.87-8.06-.61-13.21,9.09-19.93,13.84a182.28,182.28,0,0,0-22,18.71c-7.55,7.41-9.28,18.25-14.39,27.12-2.91,5-4.55,9.16-2.6,15.37,6.4,20.39-1,47.2-19.42,60.45-6.36,4.59-11.23,12.41-20,7.93-13.84-7.07-12.11-21.69-9.15-32.12,5-17.81,14.27-34.77,33.19-42.57,9.24-3.81,7.92-14.12,13.77-19.83.17-.16-.37-1.5-.59-1.5a4,4,0,0,0-2.25.58c-18.93,13.39-40.48,19-63.14,21.2-4.2.41-4,3.88-4.19,6.24-3,31.41-26.84,50.36-44.06,73-18.71,24.64-32.86,50.51-31.4,82.56,1.8,39.15,16.93,72,48.05,96.18,14.5,11.28,31.78,18.76,49.5,23.2,21.44,5.38,63.38-17.59,76.57-36.59,10.77-15.53,13.9-31.5,14.1-49.68.17-16-10.6-5.76-14.49-6-10.36-.64-20.74-.76-30.76-3.55-9-2.51-16.05-8.33-23.15-14.47-5.22-4.52-3.26-8.37-1.62-12.33,1.56-3.74,5.62-4.42,9.64-4.76,17.31-1.49,35.21-3.72,50.31,6.53,8.3,5.63,10,5.08,11.83-4.17,3.69-18.68,17.35-29,33.52-35.86,3.73-1.6,11.07.13,14.07,3.07,5.51,5.4,3.22,13.66,0,19.22-7,12.13-12.36,25.77-24.1,34.47-4.46,3.31-9.41,6.46-13.83,9.64-5.06,3.64-.58,11.35-.28,17.22.79,16-3.5,30.43-12.14,43.66-9.8,15-23.86,25.23-38.53,35.09-17.52,11.78-37.44,15.47-56.44,10.72-44-11-77.61-37.33-95.75-79.59a136.71,136.71,0,0,1-10.21-66c1.79-19.72,8.73-38.38,19.53-55.64,14.38-23,35.43-40.81,48.77-64.39,4.16-7.34,6.28-15.85,9-23.94.28-.84-2.35-3.64-2.54-3.54-7.8,4.26-15.71-1.72-24.11,1-11.61,3.76-16.67,11.55-21.09,21.66-7.46,17.06-36.45,31.93-55.06,29.11-5-.75-9.84-.2-15-1.62-10.84-3-9-9.42-5.61-16,14.9-28.65,40.9-35.79,69.87-31.85,10,1.36,15.39-7.21,24.45-5.24-13.21-8.69-23.64-19.43-31.21-33.09-7.24-13.07-10.65-26.78-12.1-41.68-1-10.29-.26-20.11.48-30.19.34-4.52-6.05-4.16-8.09-8.44-6.89-14.53-4.72-28.35.18-42.69,5.41-15.82,14.38-28.21,29.64-35.73,9.53-4.7,17,2,18.88,13.84,3.93,24.4-.72,46.09-18.5,63.35-20.95,20.33-11.49,42.43-5.86,64.64a22.69,22.69,0,0,1,.12,2.49,7.19,7.19,0,0,0,.45,1.45c5.94-7.47,11.32-15.3,17.83-22.05,4.45-4.62-.14-7.44-.29-11.1a42.48,42.48,0,0,1,8.24-26.5c9.86-13.9,23.77-22.69,39.77-28,7.11-2.34,14.9-3.81,20.45,3.5,5.2,6.88,2.93,14.42-.4,20.94-11.44,22.32-29.11,35.52-54.68,39.51-5.93.93-10.33,11.68-15.41,17.92-.19.23-.1.68-.27.93-3.5,5-12.07,9.1-9,15.51a54.51,54.51,0,0,0,25.11,25.84c2.5,1.24,4.88,3.25,7.49,3.62,17.92,2.58,19-.07,19.13-18.56.11-13.84,6.9-26.36,17.61-36.28,15.12-14,32.31-22.55,53.05-25a168,168,0,0,1,59.85,3.81c16,3.84,29.39-8,44.67-10.22,11.35-1.67,22.47-1.57,33.75-1.19,17.86.6,34.39,6.6,51.27,11.61,9.51,2.82,16.82-5.85,25.29-8.82,21.77-7.63,43.57-14.64,66.9-12.83,25.2,1.94,49.49,6.55,72.71,18.44,16.61,8.51,32.11,17.79,46,30,1.92,1.69,2.95,1.83,4.19-.31a168.43,168.43,0,0,1,24.06-31.67c6.25-6.59,1.29-15.64,2.75-23.59,3.76-20.54,15.11-36.36,32.09-45.9,16-9,33.66-18.17,53.88-11.52,3.34,1.1,20.81-15.71,21.47-19.23,3.1-16.54,6.66-33,9.78-49.52,2.26-12,3.91-24.11,6.17-36.1,4.11-21.79,8.41-43.55,12.76-65.29,1.54-7.71,3.44-15.35,5.72-25.38-8.33,13.08-14.74,24.58-22.51,35.07-21.89,29.57-46.41,56.73-75.46,79.59C736.12,953,716,967.37,694.08,978.34c-23.13,11.57-46.82,21.83-72,29.29a362.92,362.92,0,0,1-89.94,14.78,455.7,455.7,0,0,1-83.06-4.06c-18.61-2.73-37.32-7.63-55.75-13.54-19.88-6.37-39.89-12.24-58.4-21.65-25.73-13.07-50.85-27.27-73.37-45.86C241.83,921,221.92,905,205.91,884.89c-12-15-24.47-29.56-34-46.67-5.07-9.11-10.54-18.74-17.59-26.52-1.86-2.06-10.71,1.49-16,3.43-7.59,2.8-14.8,6.64-22.3,9.72-2.31.94-5.68.69-6.53-1.87a11.32,11.32,0,0,1,.49-8.17c6.65-12,16.73-21.09,26.74-30.07,4-3.6,4.26-6.41,2.08-10.6-10.32-19.81-14.45-41.56-20.08-62.91a335.17,335.17,0,0,1-10.55-79.48c-.42-24,1.13-48.41,6.28-72.43,4.26-19.9,7.91-39.92,14.62-59.12,8.27-23.64,17.42-47,30.16-68.7,2.79-4.74,6.65-8.84,9.58-13.52,1.86-3,4.51-4.08,7-2.66s5.29,3.3,5.33,7.51c.32,31.47,6.63,61.76,17.55,91.29a696.19,696.19,0,0,0,30.57,71.47c14.61,29,33.23,54.81,54.34,79,5.77,6.64,11.16-1.28,15.29-3.45C316.44,652,335.05,646,353.34,639c13.55-5.13,27.42-9.42,41.12-14.17,3.18-1.1,6.16-3.29,9.38-3.64,13.4-1.48,7.87-6.21,2.65-12-11.06-12.22-26.38-17-40.27-24.44-11.76-6.3-20.66-15.41-23.44-29.67-5.08-26-.27-50.53,12.52-72.84A559.85,559.85,0,0,1,408,406.38c21.17-25.89,43.27-50.76,68-73,22.77-20.45,47.07-39.29,71.52-57.75,16.39-12.38,33.94-23.78,53.73-29.88,10.24-3.16,21.79-6.06,32.59-.82,12.08,5.87,19.47-4,26.64-9.16,16.05-11.59,33.74-15.35,52.57-16.61,10.46-.7,20.45.48,29,7.65,4.46,3.73,2.41,7.33,0,10.32-10.68,13.52-23.4,25.08-36.15,36.6C687.7,290.31,669.5,307,651.13,323.53c-10.56,9.5-23,17.47-31.62,28.43-11.24,14.23-26.79,23.75-37.65,38.5-5.24,7.12-9.61,15.46-16.54,21.46-8.08,7,.3,16.77-4.2,24.4a20.93,20.93,0,0,0-2.11,6c-1.37,6-9.59,9-3,18.73,5.54,8.13-.65,19.73-9.59,28.43,6.53-1.67,11.27-.61,13.5,3.82,3.8,7.56,5,15.63.28,23.54-1.62,2.72-3.22,5.46-4.67,8.27-.17.32.81,1.76,1.09,1.71,15.76-2.57,31.31-.14,40.87,12.55,6.9,9.17,18.69,9.44,24.21,17.9,11.34-17.43,24.09-34.41,34-52.9,16.79-31.2,37.8-59.5,58.19-88.17,17.78-25,32.39-51.74,47.21-78.44.56-1,3.3-2.05,3.64-1.71,2.26,2.28,5.5,4.73,5.91,7.5,1.89,12.83,2.66,25.82,4.4,38.68,2.92,21.65,6.29,43.24,9.42,64.86.45,3.11,1.1,6.31.78,9.37-1.23,11.92,5.7,15.9,15.84,16.42,16,.81,30.28,7.45,45.19,12,20.38,6.26,40.75,12.54,61.18,18.62,2.73.82,5,1.35,5.54,4.62.65,3.72-2.08,5.29-4.42,6.44-22.14,10.85-44.16,22-66.67,32-16.82,7.5-33.17,16-49.94,23.4-25,11-49.5,23-74.12,34.75-16.95,8.1-34.39,15.17-51.42,23.12-9.3,4.33-8.31,15.12-10.73,22.59-5.4,16.62-14.16,30.78-24.08,44.63-13.78,19.24-32.57,32.2-52.37,44.72a404.77,404.77,0,0,1-42.11,23.46c-5.72,2.73-12,4.28-19.39,6.84,11.89,2.2,22.56,3.48,30.31,12.66,4.1,4.86,3.53,9,.68,13.12s-.39,4.58,2.62,5c17,2.39,34.08,2.47,51.16,2,25-.75,49.32-6,73.72-11.47,22-5,43.21-12,64.11-19.86,20.26-7.56,39.64-17.38,59-27.39,16.27-8.43,31.79-17.52,45.79-29.06,12-9.84,22.93-20.84,35-31.94-8.6,1.61-16.63,3.07-24.64,4.62-3.56.69-7.6.69-10.54,2.45-12.58,7.55-21.81,19.21-35.5,26-22.6,11.26-50.6,7.5-69.7-5.49-8.09-5.49-5.51-12.27-.88-18.27,23.64-30.57,55-32,89.25-23.9,7.75,1.84,12.75,5.48,17.28,11.4.73,1,4.92-.36,7.36-1.11,10.09-3.12,20.77-3.65,31-5.13,12.48-1.79,10.35-11.66,12.49-17.69,7.59-21.4,17.75-41.61,26-62.2-7.75,1.59-15.8,4.2-24,4.67-10.36.6-12.47,9.81-16.7,15.54-7.33,10-17.79,12.25-27.89,14.67-15.69,3.76-32.56,5.83-47.11-2.27-6.91-3.84-22.81-.65-19.68-14,2.19-9.31,8.2-20.21,17.83-25.36,21.71-11.61,44.54-18.37,68.5-6.42,17.1,8.54,34.41,10,51.62,1.95,7.44-3.49,8.24-12.93,11.62-19.84A390.72,390.72,0,0,1,960,521.76V119.42c-2.43,1.74-4.85,3.49-7.24,5.28-14.64,11-28.57,22.9-42.74,34.49-2.46,2,1.13,3.15,1.12,5.05,0,5.46,1.24,11,.53,16.35-1.13,8.51,6.65,10,10.47,14.24,11,12.08,12.94,26.64,15.37,41.89,2.91,18.24.74,35.28-6.64,51.64-3.55,7.86-7.81,17-14.48,21.43-7,4.64-11.37-5.61-15.06-10.17A79.88,79.88,0,0,1,883.7,254.4c-.86-13.84.12-27.85,6-41.72,5.74-13.65,21.6-24.19,15-42.25-.4-1.08-.73-2.19-1.08-3.28a15.73,15.73,0,0,0-2.8,1.62c-12.52,11.24-23.49,24-36.72,34.64-9.9,8-10.5,20.7-11.14,32.87-1,20-9.89,36.7-22.24,52-10.22,12.67-23.09,21.57-38.79,24.21-13.38,2.25-11-10.49-12.78-18.1-1.12-4.91-.21-10.29-.21-18.57-1.45-19.79,4.35-40,22-55.78,9.24-8.27,20.63-19.31,31-18,22.4,2.86,27.18-16.67,40.22-25.19,6.35-4.14,11.42-10.23,17.12-15.37,1.23-1.12,3-2.13-.27-2.52-11-1.35-22.36-4.78-33-3.21-8.69,1.29-16.5,8.55-24.67,13.23-13.47,7.71-28.41,7.57-43.19,7.9-18.52.41-35.49-6.24-50.18-16.18-5-3.37-19.27-8-11.36-19.72,5.6-8.3,13.25-15.44,23.2-19.52,22-9,43.71-8.89,66.26-1.29,13,4.38,26.48,8.43,35.62,18.26,12.73,13.69,29.51,7.72,44,12,8,2.37,12.38-7.38,17.85-11.84a524.35,524.35,0,0,1,46.4-34V64H221c4.28,8.15,8.3,16.44,11.75,24.94,2.63,6.45,7.93,7.52,12.3,7.64,11.22.32,21.35,4.69,32.06,6.66,1.6.29,4,.44,4.93-.46C298.5,87.57,316,92.42,334.17,99s28.63,21.62,39.15,35.8c3.08,4.15-6.75,9.72-12.43,12.13C334.7,158,296.51,145.38,282,124c-10.64-15.72-25.2-15.13-39.19-19.53a3.71,3.71,0,0,0-1.58.12c.06,1.8-.37,3.91.43,5.33,12.06,21.5,16.17,45.7,23.59,68.77.85,2.65.72,5.4,5.11,6.65,10.1,2.87,19.83,7.15,29.59,11.13,5.41,2.2,10.51-.32,14.61-2.16,24.08-10.77,40.26,2.88,56,17.4,5.06,4.68,8.36,11.21,12.75,16.66,2.49,3.08,6.13,5.77,4.39,10.2-3.38,8.62-10.84,11.31-19.11,10.35-14.65-1.71-29.33-3.45-42.37-11.71-10.78-6.83-19.79-14.68-25.53-26.56-3.48-7.19-12.94-5.91-19.25-9.43-5-2.78-12.49-10.1-8.58,4.91,4.3,16.55,4.95,34.36,11.32,49.93,2.89,7.06,15.95,9.72,24,15,6.75,4.4,12.92-.43,19.39-.27,20.89.55,45.88,18.71,53.9,38.34,2.7,6.61,5.6,13.1,8.18,19.82,4.1,10.67-3.12,11.58-9.15,12-28.27,1.81-49.36-10.32-65.37-33.55-5.23-7.59-7.74-15.39-10.58-23.75-2.74-8.05-14.25-7.18-18.92-15.23,2.09,17.32,5,33.44,6.59,49.83.87,9,3.08,19.06,11.42,26.87,17.81,16.69,17.13,38.44,14,60.83a63.74,63.74,0,0,1-10,26.9c-7.45,11.43-12.95,11.64-20.16-.07-11-17.86-22.42-36.12-20-57.92,1.47-13.33,1.77-28.08,13.32-38.6,3.56-3.25.49-8,0-11.86-1.54-12.42-3.89-24.73-5.72-37.12-.45-3-1.49-8.51-3.09-7.41-3.64,2.5-8.55,8.19-7.78,11.28,6.44,25.63-10.21,46.87-28.26,57.71-7,4.23-13.86,8.89-22.55,10.56-14.11,2.7-14.65-7.94-13.85-15.27,3-27.23,16.15-52.13,45-60,10.68-2.93,18.72-6.48,24.21-14.46,7.24-10.52-.84-21.27-2.65-31.79-2.39-13.88-5.76-27.62-9.14-41.31-2.43-9.84-5.51-19.53-8.5-29.23-.26-.83-2-1.22-3-1.82-3,6.89-13.1,9.54-10.86,19.67,3.17,14.36-13.73,46-27.36,53.74C196.26,245,184.94,250,172.8,252.61c-13.94,3-11.28-10.18-11.2-15.62.18-12.88,6.56-23.86,15.1-34.26,7.31-8.89,15-16.65,24.91-21.9,8-4.24,18-5.49,25-10.8,14.42-10.88,16.8-23.38,10.23-40.35-5.91-15.28-10.59-31.28-18.51-45.46-3.65-6.52-6-13.59-9.16-20.22H64V1616Zm0-844.18v-29c-.18-.47-.35-1-.53-1.43C953.38,725.74,943,713.89,926,709.5,937.23,730.21,948.53,751.06,960,771.82Zm0-50.05V543.15c-7,13.87-13,28.18-19.78,42.1-6,12.38-10.11,25.44-16,37.8-8,16.77-13.1,34.93-19,52.64-1.73,5.18,15.42,25.21,20.92,25.25C937.2,701,950.49,710.14,960,721.77Zm-3.59,62.9c-1.44-3.67-2.22-7.79-4.42-10.92a508.69,508.69,0,0,1-34.38-57.24c-2,9.27,1.57,16.78,3.53,24.47,4,15.81,9.39,30.77,24.39,40.22C949.15,783.48,952,785.89,956.41,784.67Zm-9.47,261.63a24.18,24.18,0,0,0-4.29-14.89c-11.39-16.83-27.23-27.32-46.57-32.86-1.12-.32-2.25-.59-3.38-.88-.27,1.28-.94,2.61-.76,3.83,3.6,24.62,18.73,41.42,38.3,54.71C938.25,1061.65,946.94,1056,946.94,1046.3Zm-8.35-157-3.65-15.66c-3.72-15.93-12.93-27.85-26.72-36.36-.64-.39-1.86.14-2.81.23a10.65,10.65,0,0,0,.87,3q8.36,12.84,16.84,25.59C927.71,873,932.34,879.92,938.59,889.31ZM891,836.92c5.74,32.14,26.94,60.38,41.77,57.17C916.23,877.81,905.25,857.35,891,836.92Zm32.39,315.68c1.5-6.24-1.06-12.11-4.82-17.18-9.67-13-24.42-18.78-38.11-25.82-3.39-1.75-8.4-.37-12.66-.42.44,1.65.57,3.48,1.37,4.93,3.18,5.76,6.19,11.68,10,17,9.32,13.27,20.24,24.63,39.38,27.89C920.71,1159.07,922.77,1155.34,923.43,1152.6Zm-7.76-857.28c17.1-36.83,15.81-85.51-2.25-95.79C911.82,231.27,914.14,262.93,915.67,295.32ZM905,285.74c.15-27.82-4.56-54.56-.83-81.3C889.68,231.17,891.26,257.92,905,285.74Zm-10.25,965.2c4.89,0,7-4.25,5.41-9.15-6.69-21.17-24.15-31-42-40.45-2.19-1.15-5.05-.93-7.47-1.74-2.79-.93-2.69-.78-2,2.16,2.86,11.63,8.7,22.39,17.05,29.87S881,1250.75,894.71,1250.94Zm-24-509.64c2.17-11.44,9.19-21.8,8.21-32.6C785,783.89,678,820.45,558.74,819.34c2.75,2.22,9.52,4.43,10,10.37.52,6.78,3.51,5.3,7.66,4.62,14.44-2.39,28.52-6.37,43.56-.07,5.68,2.38,11,8.57,17.16,7.11,16.67-3.93,32.83-7.56,50.45-4.83,17,2.64,34,4.41,49.53,12.5,5.71,3,10.66,7.5,11,14.38.22,4.63-2,9.44-6.55,11.48-12.66,5.62-25.34,11.29-38.35,16A817.88,817.88,0,0,1,614.24,917c-18.49,4.38-37.16,8-55.71,12.11-17.45,3.88-34.77,8.38-52.3,11.82s-35.11,5.27-52.48,8.83c-34.53,7.06-68.91,8.75-103.21-.8-13.4-3.73-25.69-18.46-23.35-27.53,4.08-15.78,14.06-28.37,23.76-40.79,12.55-16.08,30.88-27.59,37.29-48.52,3.21-10.45-8.4-25.67-19.76-25.88-8.54-.16-17.1,1.62-25.68,2.19-18.76,1.23-37.29-.09-56-2.76-17.33-2.48-34.35-4.88-48.31-16-9.12-7.26-18-4.87-27.09-1.86a323.16,323.16,0,0,0-30.56,11.44c-4.54,2-14.74,2.37-12.6,7.3,9.6,22.08,23.87,41.85,38.94,60.37a385.8,385.8,0,0,0,59.63,59.38c20.65,16.35,43,29.73,65.69,42.61,19.59,11.12,40.8,18.21,62.44,24.75,28.28,8.54,56.63,15,86.23,15.24,12.81.12,25.65-1,38.34-1.28,22.64-.54,45.18-1.87,66.93-7.12,24.36-5.87,48.52-13,71.68-23.31,27.77-12.39,54.33-27,78.42-45.12A378.18,378.18,0,0,0,803,868.17a413,413,0,0,0,45.77-69.51c-10.24-1.17-13.72,7.83-19.19,12.88-18.67,17.21-55.14,23.86-78,13.2-5.14-2.4-8.93-6.94-5.86-11.37,7.45-10.76,14.17-22.35,27-28.55,20.6-10,40.4-13.85,60.52,1.47,7.1,5.41,16.53,4.79,21.63-2.72C863.42,771,867.88,756.19,870.72,741.3Zm23.86-229.56c-16.37-5.56-32.46-12-49.1-16.21-7.18-1.82-13.51-10.3-22.69-3.78-10.79,7.66-22.1,14.65-33.5,21.4-20.09,11.88-41.36,22-60.37,35.39-19.21,13.51-40.41,23.63-59.37,37.41-2.89,2.1-8.33,4.36-11,0-1.75-2.87-.05-7,4.08-9.07,8.41-4.32,16.75-8.81,24.84-13.72C702.7,554,717.55,544.11,732.85,535c27.69-16.44,55.61-32.51,84.12-49.14-5-1.63-8.79-3.91-12.62-3.93-8.61-.06-17.13-7.29-25.59-1.41-9.6,6.67-18.66,14.13-27.8,21.44-14.57,11.65-28.93,23.57-43.59,35.1-3,2.37-7,3.54-10.48,5.26-1.72-4.1.17-7,3.1-9.67,20.22-18.23,40.16-36.77,62.87-52.07,4.52-3.05,12-4.81,11.19-12.71-1-9.59-2.62-19.12-4-29.06-7,8.32-13.79,16.75-21,24.78-11.62,12.94-19.72,28.84-33.58,39.88-1.33,1.05-2.72,3.43-4.37,1.57-.88-1-.74-4.06.17-5.27,12.55-16.66,25.36-33.13,38-49.71,8.9-11.64,22.66-20.07,18.13-39.17-3.74-15.8-3.3-32.58-4.95-51.64-14.66,34.15-36.14,61.1-55.83,89.13C693.48,467.13,680,485.59,667.9,505c-11.06,17.72-23,34.9-34.45,52.38-2,3.08-5.61,6.88-5,9.62,1.62,7.62.88,13.06-7.07,16-5.5,2.07-11.2,3.83-16.34,6.61-19.62,10.64-41.48,15.27-61.9,23.66-5,2.06-19.67-.52-9.73,13.5,8.7,12.28,21,18.59,35.07,22,6.77,1.67,15.09,5.61,20.35,3.26,18.19-8.11,36.69-15.59,54.44-24.9,23.19-12.17,47.77-21.67,71.56-32.72,20.62-9.58,40.86-20,61.47-29.55,22.18-10.32,44.59-20.14,66.9-30.16Zm-18.07,80.41c-18.37-12.77-58.38-5.9-71.81,13.21Zm4.76,9.77-76.13,14.43C832.89,624.36,856.75,623.08,881.27,601.92ZM833.08,265.86c7-11.22,9.74-23.58,11.13-37.34-19.48,21.72-33.63,46.44-48.63,70.56-.24.37-.05,1.5.15,1.55a3.88,3.88,0,0,0,2.41.16C814.28,293.65,824.11,280.28,833.08,265.86Zm3.68,416c-1.07-.9-2-2.26-3.25-2.61-1.7-.49-3.74.18-5.44-.32-29.39-8.67-56-4.81-80.2,17.8,3.06,0,4.69.26,6.21,0,12.74-2.51,25.38-5.5,38.18-7.61,14.19-2.34,28.51-3.88,42.76-5.85C835.65,683.11,836.18,682.3,836.76,681.82ZM818.35,809.53c1.64-.95,2.84-2.66,4.24-4-1.93-.14-4-.81-5.78-.34-15.21,4-30.36,8.27-47.9,13.1C788.37,823,803.71,818.08,818.35,809.53Zm-28.17-520c10.75-30.77,30.4-56.08,52.07-81.26C813.16,208.69,777.88,265.51,790.18,289.53Zm38.46,503.09c-8.44-8.78-19.89-6.84-29.37-6.44-16,.69-29.31,9.72-39.22,22.79a6.8,6.8,0,0,0-.66,1.53c.78,0,1.69.38,2.32.09C783,800.83,805.93,797,828.64,792.62Zm-27.75,456.7a55.12,55.12,0,0,0-5.73-28.28c-.56-1.11-1-2.29-1.46-3.43-.88,1.24-1.81,2.45-2.64,3.73-10.2,15.55-19.4,31.35-21.33,50.58-.78,7.74-1.42,16.84,4.42,20.2,7.35,4.23,14.4-1.81,18.71-9C799.1,1272.7,801.38,1261.33,800.89,1249.32ZM839.66,155.38c-32.67-4.6-63.5-1.2-96.38-2.56C775.76,171.13,806.49,172.28,839.66,155.38Zm-104.74-8.24c36.79-6.34,73.26-5.23,110.33-2.35C816.57,122.81,760.82,113.47,734.92,147.14Zm90.66,547.23c-24.3.07-48.36,8.51-75.59,10.29C778.45,721.77,809.63,708.7,825.58,694.37Zm-94.33,398.39c24-3.56,59.37-36.65,54.52-49.88Zm56-65.2c-27.1-4.74-56.15,19.43-65.41,54.59C744.35,1064.22,763,1042.9,787.29,1027.56Zm-36,185.32c5.77-3.42,15.25-4.9,13.89-13.55-1.4-8.94-9.67-11.25-18-10.18-7.4.94-14.69,2.74-22.07,3.89-9.91,1.54-18.26,6.44-26.43,11.79-2.59,1.69-2.61,3.06.5,4.12,10.82,3.67,21.62,7.44,28.95,6.39C738.76,1214.51,745.38,1216.37,751.26,1212.88ZM750,1346.3c4.41-1.71,2.55-5.79,3.12-10.64-.32-1.3-.25-4.67-1.83-6.82-13.87-18.89-31.21-32.93-54.82-37.73-2.6-.52-5,.64-3.1,3.36,12.31,18,21.34,38.87,42.13,49.69C740.11,1346.54,744.9,1348.29,750,1346.3Zm-13.33,96.43c4.52-1.63,4.58-6.45,4.37-10.85-.68-12.05-8.26-20.23-16.3-28a81.23,81.23,0,0,0-45.64-22.68c-.71-.11-5.07-2.6-3,2.62a126.83,126.83,0,0,0,40.64,54C722.79,1442.45,729.33,1445.39,736.7,1442.73ZM730.54,234.48l-5.1-1.4c-6.75,0-11,0-14.62,3-15.3,12.37-30.72,24.61-46,37-8.63,7-17.76,13.48-25.57,21.3-10.73,10.76-19.75,23.24-30.68,33.76a459,459,0,0,0-64,77.15c-1.88,2.83-8.07,6.87-4.71,9,4.23,2.65,11.77,2.23,14.89-4.06,12.57-25.26,34-43.18,53.26-62.48,19.64-19.71,41.33-37.49,62-56.24,18.73-17,38.15-33.23,56.4-50.77C728.11,239,729.16,236.57,730.54,234.48Zm2,626.79c-1.92-1.68-3-4.49-6.29-4.21-8.49.72-17.8-.6-25.32,2.46-27.09,11-55.43,17.6-83.29,25.92s-55.41,18.22-83.15,27.22c-3,1-6.45.65-8.51,3.71l11,7c11.59-3.44,22.51-5.12,33.42-7.1,20.94-3.8,41.43-10.06,62.11-15.29,13.85-3.5,28.05-6,41.44-10.73,17.64-6.27,35.32-12.88,51.16-23.29C727.74,865.21,730.11,863.16,732.58,861.27Zm-37-5.91c2.26-.61,3.49-1.38,3.44-3.94-.07-3.58-2.67-2.26-4.3-2.31-19-.63-37.09,5-55.6,7.48-26.78,3.61-52.16,11.09-77.26,20.44-20.77,7.73-41.73,14.94-62.6,22.37,8.6,1,12.1,12.65,23.91,7.92,25.45-10.18,51.76-18.38,78.08-26.19C632.45,871.86,664.06,863.84,695.54,855.36ZM684.05,248.67c3.3-2.13,5.41-6.09,8.07-9.21-2.52-.78-5.29-2.62-7.49-2.09-3.53.84-6.75,3.17-10,5-24.87,14.1-46.34,32.38-66.82,52.28-19.66,19.12-39.82,37.53-58.32,58-20.31,22.45-38.08,46.77-57.38,69.91a7.33,7.33,0,0,0-.81,1.69l2.19.69c4.09-.79,7.45-.91,10.37-2.09,7.49-3,18.51-.17,22.65-7.3,13.6-23.46,30.16-44.57,48-64.64,16.86-18.91,35.13-36.56,52.3-55.21C643.76,277.31,663.15,262.16,684.05,248.67ZM631,1472.72c13.06-19.56,2.11-37.78-3.28-56.26-.35-1.17-2.11-5.51-4.29-1.69-9.55,16.68-15.18,34.65-17,57.59-.85,3.27.94,10.47,7.46,12.09C622.24,1486.52,626.85,1479,631,1472.72Zm12.38-833.3c-11.85,5.6-23.22,8.88-32.37,16.43-9.63,7.95-20,14.73-30.27,21.79-14.59,10.05-30,20.08-33.58,39.59-.79,4.31-.58,10.66-5.45,10.08s-5.4-7.17-4.71-11.89c3.58-24.14,20.44-36.79,40.62-46.62,2.64-1.28,6.36-6.19,5.54-6.37-8.19-1.78-17.18-4.69-24.85-2.81-8.76,2.15-16.47,8.72-24.51,13.58-12.44,7.52-26.69,13.52-27.06,31.53,0,2.35-.51,5.19-1.88,6.93-4.15,5.24-7.12.62-7.67-2.44-1.55-8.56.59-16.88,5-24.31,10.08-16.79,29.45-20.08,44.3-29.95.8-.53,1.53-1.14,2.29-1.72-1-.73-1.91-1.54-3-2.18-8.31-5.16-16-10.59-21.33-19.45-6-10.11-7.31-21-8.84-32.18-.63-4.61-3.51-8.91-5.37-13.35a60.82,60.82,0,0,0-5.44,3.89c-10.45,9.29-23.06,14.91-35.5,20.76-2,.92-4.71,1.14-6.1-1.6s.45-4.17,2.62-5.36c5.35-2.94,10.5-6.26,16-8.84,19.66-9.2,22.61-17.29,11.35-30.66-1.85-2.19-3-1.89-4-.59-3.79,4.68-8.91,7.37-13.92,10.36-10.3,6.14-20.71,12-32.45,14.89-2.86.71-6.33.77-7.77-2.69-1-2.33.86-4.23,2.81-5.18,9.88-4.81,21.21-7.86,29.25-14.76,4.85-4.16,26.7-2.32,11.21-19.06-3.56-3.85-8-9.44-12.11-9.52-4.8-.1-9.78,4.86-14.55,7.82a158.28,158.28,0,0,1-32.55,15.38c-2.89,1-6,.4-7.32-3.06-.32-.82-.37-2.5,0-2.73,10.39-5.68,22.17-8.52,31.65-16.13,5.82-4.68,17.56-4.79,16.72-14.09-.69-7.46-3.84-21.64-17.27-8.37a8.54,8.54,0,0,1-2.14,1.19c-14.92,7.71-29.55,16.15-46.63,18.31-2.68.34-5.82.43-6.84-2.5-.35-1,1.9-4,3.45-4.44,14.33-4.43,27.63-11,40.85-18,12.06-6.4,24.31-11.64,23.44-28.67-.26-5.21-1.54-5.24-5.29-3.29-5.16,2.69-10.22,5.67-15.61,7.84-12.16,4.89-24.37,9.72-36.82,13.79-3.66,1.19-8.84.91-12.07-.91-2.11-1.18,1.37-4.75,3.63-5.73,7.66-3.3,15.93-5.38,23.18-9.36,18.28-10,43.82-9.86,51.05-35.7a26.86,26.86,0,0,1,1.5-3.45c-1.43-.19-3-.84-4.26-.48q-14.82,4.2-29.55,8.76c-9.42,2.93-19.16,5.27-28,9.41-8.28,3.85-19.4,3.64-23.76,14-6.37,15.08-12.46,30.17-17.28,46-5.61,18.34,6.22,41.7,24,48.2,15.55,5.69,30.7,15,41.48,27.88C443,618,441.42,641.28,438.8,664c-.29,2.46-3.11,6.5-4.8,6.52-2.77,0-6.68-1.64-7.36-5.36-1.47-8-1.77-16.24-4-24-1.37-4.81.3-14.32-6.72-13.37-9.5,1.3-18.4,6.86-27.64,10.38-16.75,6.39-33.7,12.3-50.31,19C316.9,665.7,295.64,674,275.22,684a272,272,0,0,0-41.3,25.55c-8.67,6.38-17.79,14.52-20.28,25.14-2.91,12.44,17.29,38.41,29.81,44.33,28.06,13.27,57.36,16.15,87.89,14.29,29-1.77,57.52-6.45,85.91-12.25,20.48-4.18,41.62-6.31,61.33-12.81a377.49,377.49,0,0,0,96.72-48.47C604.77,699.4,626.9,673.12,643.41,639.42ZM624.86,847.06c-.51-.66-.9-1.68-1.56-1.91a74.88,74.88,0,0,0-28.21-4.52c-8.62,1.35-19.1,1.94-29,4.74-23.68,6.7-47.09,14.35-70.54,21.83-5,1.58-9.65,4-14.46,6.11,4.27,5.37,2.14,14.33,9.39,17.79,6.3,3,11.12-2.11,16.66-3.9,12-3.85,23.52-8.91,35.26-13.18,26.32-9.59,52.95-17.81,79.93-25.15C623.29,848.62,624,847.68,624.86,847.06Zm-2.48-582.32a44.79,44.79,0,0,0,4.36-5.46c-2-.07-4.09,0-6.12-.24-6-.67-10.19,2.35-14.64,5.94-25.57,20.59-48.68,43.75-71.64,67.13-28,28.47-49.42,62.2-75.48,92.2-1.89,2.17-2.47,5.64-3.06,8.62-.09.46,3.07,1.56,5.06,2.53,7.66-4.57,16-5.52,21.87-14.39a604,604,0,0,1,49.57-65.26c12.38-14.07,24.72-28.38,37.45-42.08C586,296.21,604.77,281,622.38,264.74ZM609.06,578.58c3.78-1.82,14.1-.11,9.72-10.19-1.3-3-3.41-6.29-6.08-7.84-4.15-2.41-8-9.63-12.78-6.31-18.14,12.57-39.56,16.69-59.27,25.11-5.31,2.27-12.2,2.64-16.46,8.63,3.5,4.8,3.24,10,2.78,15.06-.39,4.18,1.55,5.1,4.69,3.82,14.35-5.82,28.71-11.42,43.72-15.52A199.88,199.88,0,0,0,609.06,578.58Zm-13.81-30.77c-.81-.87-1.24-1.35-1.69-1.82-6-6.29-13.93-9.51-22.08-10.61-7.92-1.07-17.75-2.57-23.84,1-8.17,4.83-17.78,9.82-23.28,17.17-3.63,4.85-24.85-3.09-11.63,15.36,6.88,9.59,13.42,7.83,20.5,4,15.69-8.46,33.32-11.19,49.47-18.1C587,553,590.91,550.27,595.25,547.81Zm-8,643c2.77,0,1.69-1.63.45-2.81-11.75-11.17-23.34-22.51-39-28.41-5.69-2.16-11.44-2.73-16.26,1.05-5.3,4.16-3.24,9.21.54,13.3,11,11.86,25.24,16.86,41.82,19C578.15,1191.25,582.61,1190.72,587.27,1190.8ZM551.6,1120c20.79-3.25,40.79-9.77,60.84-13.29-19.59-15.26-109.43-10-122.75,7.63A124.13,124.13,0,0,0,551.6,1120Zm20.77,151.51c.8-1.67-3.26-4.61-6.24-6.24-11.31-6.15-24.07-3-37.13-5.57-9.54,3.42-22,2.62-31.72,9.92-3.4,2.54-7,6.52-3.92,10.61,7.61,10,18.81,13.59,30.81,12.46,14.23-1.35,27.37-6.93,39.74-14C567.14,1276.79,570.92,1274.54,572.37,1271.48Zm-3.53,106.58c.54-.46,3.45-1.83-.62-3.24-14.76-5.15-29.66-5.25-44.93-2.72-3.42-2.31-6.39.35-9.35,1.18-7.84,2.18-15.51,5.89-18.86,13.74-2,4.79,1.45,9.63,5.61,12.41,5.62,3.77,11.44,5,18.94,3.89C539.14,1400.36,554.47,1390.39,568.84,1378.06Zm1.49-1097.25a23.51,23.51,0,0,0-3.45,1.81c-10.28,7.73-20.7,15.28-30.71,23.32-14.07,11.3-27.84,23-41.71,34.51-11.78,9.79-25,18.34-34.89,29.78-10.84,12.56-21.45,25.69-32.22,38.23-11.8,13.75-19.36,30.3-32,43.15-.52.52-.29,1.78-.41,2.7.91.09,1.94.5,2.71.21,6.45-2.45,13.2-4.41,19.18-7.74,6.42-3.58,15.36-1.16,20-7.4,19.35-25.92,37.15-53.05,57.52-78.12C517.51,332.75,543.71,306.84,570.33,280.81Zm-14.27,558c1.62-.26,4.35-3,4.23-3.24-3.11-5.16-5.83-10.71-13.44-10.54-16.45.39-32.25,4.37-48,8.42-10.28,2.64-24.33,1.59-19.84,22.37.32.58-1.37,9.79,2.34,8.16a292.43,292.43,0,0,1,27.41-10.42C524.45,848.39,539.58,841.48,556.06,838.77Zm-3.62-327.61c3.19-6.52-.92-12.51-4-18.08-.22-.41-5.13.62-6.49,2.18-6.87,7.9-15.83,12.71-24.38,18.35-12.37,8.16-25.93,11.82-40.77,14.64,6.11,2.72,9,8.27,13,12.76,3.86,4.32,10.43,11.94,12.8,11C523,543.37,542.11,532.24,552.44,511.16Zm1-84.34c-3.27-4.4-8.18-1.66-12-1-15.34,2.78-30.61,6-45.85,9.28-5.54,1.2-14,1.44-15.86,4.94-7.48,13.87-15.08,28.34-12.7,45.1.33,2.26-3.23,6.61-.23,5.83a158.84,158.84,0,0,0,30-11.24,222.46,222.46,0,0,0,32.34-19.07C540.32,452.57,550.71,443.15,553.43,426.82Zm-5.1,38c-.48-.67-1.31-2.63-2.78-3.54-.67-.42-2.9.92-3.94,2-17.92,17.73-40.51,26.4-63.76,34.39-3,1-16-4.72-10.74,8.55.9,2.24.72,5.14,2.11,6.89,2.11,2.66,2.39,9.22,5.92,7.83,15.22-6,31.2-10.59,44.6-20.51C532.13,491.24,545.74,483,548.33,464.85Zm.49,348.81c-1.55-2.77-2.68-5.4-6.34-6.76-11.05-4.12-22.25-2.13-33.4-2.79-15.83-.94-21.72,4.19-24.52,18.57-1,5.09-.05,4.52,7,3.85-1.69.34.37.3,2.09-.49,15.42-7.08,31.81-9.83,48.54-11.14A61.38,61.38,0,0,0,548.82,813.66Zm-6.36-24c2.13-4.18-5-4.73-7.73-7-9.79-8.29-35-1.14-39.17,10.61-1.61,4.57,1.66,4.21,3.78,3.55,7.74-2.43,15.65-1.68,26.6-2C529.85,794.55,538.51,797.44,542.46,789.69ZM517.53,926.22c1.51-.29,2.85-1.36,1.29-2.16-8.88-4.55-18.25-12.59-26.91-12-9.56.69-19.18,6.09-29.78,7.63-20.53,3-40.78,5.14-64.52,2.32,5.09-2.64,7.39-4.85,9.72-4.9,23.26-.43,46-5,68.85-8.42,9.13-1.35,13.4-4.4,2.75-11.16-1.84-1.16-3.05-3.76-3.89-6s-1.31-2.48-3.5-1.55c-18.77,8-38.82,9.35-58.79,10.84-3.47.25-10,2.93-10.11-2.28-.13-4.4,6.55-4.93,11.11-5.77q24.81-4.56,49.49-9.72c2.52-.53,8,0,7.16-1.31-2.89-4.7,1.21-11.72-2.81-13.69-2.92-1.43-8.43,2.51-12.81,4-13.56,4.5-27.44,7.33-41.79,6.79a6.69,6.69,0,0,1-4.85-3.55c-1-2.67,2.13-2.48,3.56-2.84,17.34-4.44,35.37-6.12,52.07-13.29,1.85-.79,2.94-1.61,3-3,.11-4.57-.21-9.15-.36-13.73a28.23,28.23,0,0,1-4.95,1.78c-13.53,2.24-26.6,8.17-40.77,5.31-1.56-.31-4.15-.08-3.64-3,.41-2.35,1.89-3.41,4.45-3.81,11.74-1.84,23.66-3.19,35-6.38,4.7-1.32,11.34.61,14.19-4.78,3.25-6.15,5.43-12.88,8-19.4.31-.8-.1-1.88-.17-2.83a11,11,0,0,0-2.61.52,122.17,122.17,0,0,1-38.49,10c-2.09.21-4.4-.52-4.87-3.18-.38-2.19.33-3.39,2.89-4.12,15.54-4.42,31-9.18,46.52-13.69,1.94-.57,12.89-17.56,11.88-19.26a1.91,1.91,0,0,0-1.69-.56c-6.92,2.08-13.73,4.6-20.74,6.31-20.51,5-41.21,9.3-61.54,15-3.38.94-20.7-5.93-9.16,10.59a28.15,28.15,0,0,1,4.47,18.36c-1.37,15.1-11.19,25.91-19.06,37.36-9.87,14.35-24.46,24.91-33.91,39.94-6.41,10.2-7.81,26.19-.67,29.8,18.75,9.49,39.47,7.18,59.37,7.88,13.79.49,27.81-3.06,41.59-5.54C474.23,935,495.85,930.43,517.53,926.22ZM367,1110.48c29.63,9.92,59.33,13.1,90.81-.42C426.31,1102.81,396.64,1097.72,367,1110.48ZM374,331l2.87-1.08c-.68-1.09-1.1-2.55-2.07-3.23-16.63-11.78-33.27-23.54-50.09-35-1.73-1.19-4.6-.71-6.95-1a5.8,5.8,0,0,0-.12,2.17C325.79,314.5,348.89,330.42,374,331Zm-1.21-18.76c.72-2.67-1.58-3.63-2.9-5.16-2.48-2.89-4.76-6-7.45-8.68-9.17-9.22-18.88-17.51-34.38-17.32,13.82,10.36,28.47,17.12,39.24,29.21C368.41,311.52,370.91,311.58,372.77,312.2Zm-1.58,1012.92a15.78,15.78,0,0,0,.5-3.87c-1.71,0-3.6-.57-5.11,0-13.07,4.58-27.48,25.54-27.52,40.85l1.07,2.79c1.2-.58,2.45-1.08,3.6-1.75C358.5,1354.51,365.15,1340,371.19,1325.12ZM330.79,228.36c11.69,5.37,23.26,9.57,37.68,8.19-17.75-8-34.22-15.36-50.74-22.63-1.31-.58-3.06-.14-4.6-.17.78,1.43,1.2,3.44,2.4,4.2C320.74,221.21,324.92,225.66,330.79,228.36ZM318.07,201.5l55.7,28C352.82,206.56,341.94,198.35,318.07,201.5Zm-30.76-84.73c27.69,22.53,54.95,27.79,76,16.59C338.68,130.17,315.16,124.25,287.31,116.77ZM333,1117.16a18.38,18.38,0,0,0-2.68-1c-16.69-3.33-33.21-3.67-50.37-1.84-25.85,2.76-49.52,19.86-56.37,44.5-4.27,15.35-2.09,21.57,7.15,20.07a152.27,152.27,0,0,0,48.53-17c15.63-8.47,26.77-21.78,39.76-33.12C323.43,1124.9,328.05,1121.24,333,1117.16Zm-7,250.63c-1.8-2.43-3.2-5.35-5.47-7.19-13-10.45-28.55-7.95-43.55-8-1.26,0-2.52,1-3.78,1.48,1.05,1.05,2.07,2.13,3.16,3.13,12.09,11.1,28,8.27,42.31,12.23ZM289.67,106.51c19.79,5.25,38.95,11.3,59.39,13.91C335,104.88,304.46,97.63,289.67,106.51ZM303.82,421c8.51-25.22,5.26-63.38-5.27-68C300.28,375.28,302,397.76,303.82,421Zm-7.93,3.3c-5.22-16.27-5.91-30.44-7.64-44.45-1-7.93-.69-16-1.44-24-.26-2.64-2-5.15-3-7.72-.88.9-2.28,1.66-2.56,2.73C274.49,376.5,278.58,400.2,295.89,424.28Zm-36.33,825.87c19.61-12.16,23.55-29,23.39-49.28C275,1217.73,267.7,1233,259.56,1250.15Zm-8.3-3.4,21.68-47.12C261.38,1212.63,249.85,1225.64,251.26,1246.75ZM261.5,679.64c12.23-6.13,5.75-10.09,1.5-14.86-15.82-17.72-28.55-37.57-40-58.18-14.91-26.81-26.68-55.09-36.46-84.2a738,738,0,0,1-20.87-73.73c-.34,2.43-.15,4-.78,5.12-13,22.94-21.14,47.73-28.24,73-6.76,24-11.43,48.53-13,73.27-1.27,20.35-2.09,41,1.31,61.42,2.41,14.57,3,29.48,6.17,43.87,3.68,16.89,9.55,33.28,13.71,50.08,1.46,5.87,3.31,12.15,7.28,15.48,2.35,2,6.32-5.06,9.76-7.8,1-.81,2.44-1.22,3.22-2.19,11-13.52,31.73-13,39.7-33.48C214.27,703.16,239.06,690.89,261.5,679.64ZM233.19,338.78c11.95-5.53,25.19-28.56,23.07-39.85-4.34,5.64-8.25,10.95-12.41,16.07s-9.4,9.65-12.72,15.29c-2.95,5-10.94,8.34-9.1,13.76C223,346.86,229.22,340.63,233.19,338.78Zm18.11-49c-3.55-1.44-4.85,2.48-7.51,3.14-.32.08-.67,0-1,.1-12.42,2.92-33,33.62-31.22,45.73,11.16-13.16,22.55-26.47,33.77-39.92C247.65,296.11,249.33,292.85,251.3,289.82ZM214,1092.8c8.78-5,18.56-24.34,16.12-32.37-1.14,2.1-1.93,4.58-3.52,6.32-10.41,11.32-21,22.46-31.48,33.72a25.58,25.58,0,0,0-2.62,4.2c1.78-.57,3.75-.83,5.32-1.76C203.23,1099.65,208.42,1095.94,214,1092.8Zm8.92-895.43a6.38,6.38,0,0,0-.68-2.12,6.78,6.78,0,0,0-1.51,1c-3.43,4-8.33,7.48-10.72,11.35-7.76,12.54-20.17,20-29.52,31C195.5,238.69,221.78,213.17,222.87,197.37Zm-2.4,579.1c-3.61-4.57-9.09-8.61-10.42-13.73-3.88-14.86-11.76-11.57-20.06-5.35-4.67,3.5-5.58,9.63-4.73,15.22.52,3.46,3.47,5.1,7.2,6.61C202.72,783.37,211.56,779.44,220.47,776.47Zm-5.36-591c-12.86,0-44.4,35-41,45.64C188.3,216.5,203,202.52,215.11,185.48Zm-32.79,916.06,39.2-38.84C200.14,1067.48,176.46,1090.74,182.32,1101.54Zm-9.24-310.17c2.73-1.24,14.34,2.81,7.38-6.28-4.2-5.47-5.56-10-5.54-15.93,0-1.71-.28-2.63-2.23-1.19-16.44,12.15-32.57,24.62-46.77,42.89C143.14,803.87,158.31,798.07,173.08,791.37Zm-25.5,276.57c16.73-17.08,25-36.45,16.41-59.55A254.76,254.76,0,0,0,147.58,1067.94Zm5.07,139.42c-5.19-.63-8,3.85-11.89,5.81-11.73,5.81-23.23,12.08-36.33,19,16.06.7,27.27-6.34,38.11-13.76C146.55,1215.64,149.32,1211.09,152.65,1207.36Zm-16.07-138.31c5.1-22.87,11.28-44.69,21.5-67.25C137.63,1018.83,126.68,1054,136.58,1069.05ZM149,1199.69c-18.34-3.17-50.18,11.54-54.61,25.43,9.48-3.64,18.85-6.66,27.7-10.79C131.16,1210.08,139.76,1204.75,149,1199.69ZM56,1618.34V61.66l-48-48V1666.34Z"/><path d="M843.49,512.36c1.34,4.4-2.46,6.67-5.06,8-18,9.42-36.24,18.47-54.49,27.43q-32.45,15.95-64.89,31.89c-14.89,7.31-29.14,15.89-44.45,22.44-18.19,7.79-36,16.58-53.91,24.91a13.33,13.33,0,0,1-2.52.6c-2.47-.92-6.34.1-7.11-3.84-.64-3.33,2.13-4.31,4.59-5.52,16.1-8,32.08-16.17,48.21-24.06q42-20.57,84.24-40.84,33.64-16.15,67.47-31.94c8.06-3.74,16.42-6.85,24.72-10.06C841.15,511.06,843.3,511.73,843.49,512.36Z"/><path d="M749.22,418.9c2.18,1.7-.38,3.15-1.39,4.78-18.34,29.42-36.29,59.09-55,88.3-11,17.16-23.21,33.51-34.59,50.43-6.1,9.09-11.39,18.72-17.44,27.84-1.72,2.58-4.81,4.25-7.7,6.71-2.08-2.22-3.69-4-5.31-5.65-2.44-2.55.68-4.26,1.49-5.46,21.55-31.81,43.41-63.42,65.1-95.13,13.8-20.18,27.36-40.52,41.16-60.7a57.43,57.43,0,0,1,8.13-9.41C745.05,419.37,748.32,418.19,749.22,418.9Z"/><path d="M426.11,685.7c.72,1.33,1,2-6.83,5.67-19.81,9.13-39.62,18.39-62.38,25,11.83-12,26.09-16.69,39.09-23.35a81.67,81.67,0,0,1,18.79-7.24C418.2,685.05,422.41,678.88,426.11,685.7Z"/><path d="M416,663.19a2.52,2.52,0,0,1,3.66,2.18c-.47,3.39,1.15,8-3.64,9.61-23.2,7.71-46.63,14.79-67.93,27.24-1.46.85-3.45.78-5.29,1.15l-4.57-1c1.15-1.73,1.93-3.92,3.49-5.11C364,680.36,391.14,674.28,416,663.19Z"/><path d="M410.06,654.57c1.06,4.06-4,5.29-7,6.36-15.2,5.34-30.47,10.53-45.86,15.29-3.78,1.17-7.49,4.14-12.54,2.16,15.08-16.73,36.76-18.66,55.25-27C402.75,650.08,408.85,650,410.06,654.57Z"/><path d="M320.54,701.87c.13,4.53-5.61,5.79-9.09,6.88-14.09,4.41-26.06,12-36.75,22-2.66,2.49-5.92,7.24-10.24,2.56-3.68-4-.7-7.1,2-10.82,11.19-15.58,26.29-23.68,48.49-26.4C316.21,695.61,320.42,697.67,320.54,701.87Z"/></svg>