<svg xmlns="http://www.w3.org/2000/svg" xmlns:xlink="http://www.w3.org/1999/xlink" viewBox="0 0 976 1600"><defs><style>.cls-1{fill:none;}.cls-2{fill:#f4f3ef;}.cls-3{clip-path:url(#clip-path);}.cls-4{fill:#50b271;}.cls-5{fill:#ffb85a;}.cls-6{fill:#d81e1e;}.cls-7{fill:#592116;}.cls-8{fill:#992d17;}</style><clipPath id="clip-path"><path class="cls-1" d="M960,22V1578a6,6,0,0,1-6,6H22a6,6,0,0,1-6-6V22a6,6,0,0,1,6-6H954A6,6,0,0,1,960,22Z"/></clipPath></defs><g id="Paper_Backing" data-name="Paper Backing"><path class="cls-2" d="M960,22V1578a6,6,0,0,1-6,6H22a6,6,0,0,1-6-6V22a6,6,0,0,1,6-6H954A6,6,0,0,1,960,22Z"/></g><g id="Wikipedia_Cropped" data-name="Wikipedia Cropped"><g class="cls-3"><path class="cls-4" d="M521,1570.25c-64.87-2.87,22.53-60.56,49-42.06C608.27,1541.15,539.2,1574.08,521,1570.25Zm274.09-33.32c-21.61-1.57-39-8.38-44.51-24.76-6.17-13,24.89-16.9,33.95-17.44,9.86-.92,53.27,11.27,43.82,25.84-4.43,1-4.3,5.24-4.73,8.77C816.4,1535.07,804.23,1536.22,795.09,1536.93Zm114.54-59.27c-24.74-13.53-20.66-90.75,9.1-95.74C942.38,1404.36,951.88,1477,909.63,1477.66Zm-314.06-9.09c-26.19-7.43-51.82-54-23.83-70.65C596.1,1402.07,624.45,1456.83,595.57,1468.57Zm235-22c-31.39-7.77-37.59-66.79-6.81-79.27C848.16,1383.37,859.92,1434.21,830.61,1446.52Zm-126.28-8.35c-24.68-.93-64.56-7.12-71-35.13,2.36-7-16.18-9.44-4.68-15,28.7-3.24,66.39,2.4,83,28.66C713.39,1431.88,747,1436,704.33,1438.17Zm187.81-79.57c-10.17-.75-43-.93-29.46-15,4.35-20.91,28.4-34.84,48.25-34,13.51.4,25.81,2.35,34.62,10.27,2.55,4.71-1.83,10.06,4,14.12C940.08,1351.67,911.76,1357.26,892.14,1358.6Zm-34.38-307.09c-38.45,2.9-82.52-34.06-19-36.24,13.73,1.36,43.19,2.75,47.15,18.43-3.56,4.58,3.25,7.65,2.05,12C880.39,1052.35,866.49,1050.43,857.76,1051.51Zm-91.22-81.17c-17.69,1.18-48.74-14.21-42.82-33.77C773.44,900.72,861.42,961.16,766.54,970.34Zm127.85-33.63c-16.73-13.9-5-69.73,31-79.64C944.06,876.8,933.45,931.6,894.39,936.71ZM836.71,847c-5.19-4.61-11.05.54-15.07-3.58-6.38-28.07,5.36-51.91,25.4-66.16a12.6,12.6,0,0,1,5.28-2c5.55.38,8.47-13.3,13.4-4.09C870.93,793,857.57,835.68,836.71,847ZM723.19,819.6c-33.8-7.07-77.89-22.09-73.75-59.11,10.49-18.74,51.18,5.91,61.66,13.86C723.85,786.08,748.65,813.3,723.19,819.6Zm50.62-84.2c-6-.51-60.67-3.79-52.34-18.87,3.68-1.44,4-5.39,3.36-8.77,3.14-8.09,16.8-8.63,24.34-12.42,17-3.75,38.46-.1,53.75,6.59,1.59,11,10.81,8.4,18.83,11.5h0C831.51,728.58,785.11,735.42,773.81,735.4Zm147.76-34.09C902,666.79,931,617.75,968.09,604.66,988.15,638.88,947.91,692.72,921.57,701.31Zm-299.4-38c-50.27-3.26,5.7-55.34,31-48.89,9.22.66,24.13,1.27,34.15,4.42,3.51,3.05-.42,9.24,3.89,12,2,1.46,1.8,4,.76,6C679.18,656.29,646.8,661.54,622.17,663.26Zm-107.25-52c-5.51-1-19.56,1.6-18.29-6.93.87-6.34-5.88-10.63-.21-17.19,19.87-30.44,64.67-28.65,93.72-18.75C603.05,586.62,534.24,613.26,514.92,611.21ZM378.09,607c-46.21-22,51.62-83.32,79.51-63.2C460.51,577.56,409.84,599.75,378.09,607Zm316.73-96.61c-22.26-14.13-35.35-55.16-19-83.61C708.57,437.27,722.35,490.8,694.82,510.34Zm-216.36-2c-26,1.43-82.35-30.6-68.3-59,33.33-5.34,68.73,20.54,72.08,50C490.53,502.06,485.75,510.12,478.46,508.37Zm127.75-18.19c-80.91-47.59-21-146.15,8.69-44.53-.89,10.15,8.38,28.56.65,35.47C609.35,481.09,611.74,490,606.21,490.18Z"/><path class="cls-5" d="M556.47,1416.15c-19-4.92-38.1-6.22-41.37-17.88,3.47-25.79,13.29-51.57,18.88-77,8.08-5.38,7.17-11.75,17.58-16.59,5.38-2.25,14.62-7.42,7-13.5-6.54-5.64-18.38-8.27-22.08-16.83-12-5.85-27.44-11.89-39.56-20.27-2.89-2.35-3.16-8.17-8.12-7.72-11.67.15-24.1-10.15-34.09-15.74-1.67-5.35-6.12-7.34-11.12-5.13-9.66-3.51-18.85-9-27.9-12.66-4.11-5.76-6.37-6.81-13.35-5.83-20.89-9.85-40.56-15.37-61.6-23.35-28-3.45-57.45-1.91-80.2,17.08-5.2,12.72,12.31,38.58,22.08,51.62,7.48,2.95,3.88,18.9,11.43,22.1,1.78-1.17,4,5.36,5.05,9,8,12,5,35.74-13.29,35.57-9.82,6-15.83,17.91-31.5,16.16-15.13-3.19-2.65-35.57-16.35-45-5.41-17.48-11.56-13.16-22.39-23.8-21.42-14.59-52.37,124.07-83.36,126.48-2.76.68-7.41.12-9.67-2.09-6.06-5.17-15.93,1-23-4.25-32.92-10.08,1.45-34.27,7.86-52.11,9-20.88-9.08-46.14,3.52-64.42,28.87-24.5,68.34-46.55,75-89.4-13.1-9.75-14.36-31.94-25.14-42.52-30.28-45.57,31.53-50.26,56.12-67.2-34.49-54.17-65.26-124.15-83.35-185.75-15.05-28.13-18.5-63.45-3.34-92.18,7.72-16.59,25.55-16.14,29.42-1.18a6,6,0,0,0,5.85,4.7c12.84,6.69,25.64,23.65,39.54,30.12,49.15,39.44,112.91,38.9,172.83,54.14,207.69,45.78,398.29,170.19,520.27,346-22.28,55-78.14,98.06-131,125.16-18,7.42-54.32,29.56-68.08,23.2-1.52-3.76-5.62-4.14-9-3.06-10.36-6.58-21.87-13-28.65-20.59-6.14-6.44-22.32-7.8-30.22-12C583.14,1324.3,577.71,1390.72,556.47,1416.15ZM188.41,885.51c-29,10.31,30.3,145.44,44.79,95,11.89-18-3-26.24-12.41-39.24C205.92,924.73,202.55,898.44,188.41,885.51Z"/><path class="cls-6" d="M395,1537.21c-86.48-14,83.95-86.83,50.94-30.63C432.54,1525.75,415.87,1535.8,395,1537.21Zm-119.16-12.68c-64.13-19.12,33-62.83,58.58-54C330.3,1493.16,304.29,1521.16,275.84,1524.53Zm-132.51-17.15c-72-21.85,120.18-97.15,40.51-15.3C170.8,1504.28,158,1507.42,143.33,1507.38Zm-83-46.29c-22.86-2.57-19.16-32.93-.66-37.25,11.24-8.38,76.63-16.41,57.9,9.29C104.58,1444.82,86.07,1458.74,60.29,1461.09ZM464.6,1407c-21.4-5-40.44-60.19-7.41-65.68C480,1342,481.36,1402.68,464.6,1407Zm-80.82-5.92c-33.06-7.14-32.42-101.34,2.68-52.51C389.46,1364.1,397.73,1391.08,383.78,1401.08ZM301,1393c-73.41-37.63-4.24-96.53,2.7-36.86C302.82,1365.93,313.31,1390.34,301,1393Zm-90.78-9c-20.15-14.21-35.24-42.89-27.75-64.09,8.1-13.79,30.23-4.12,31.48,8.35C221.13,1344,221.73,1372.15,210.24,1384ZM936.54,554.5c-73.19-1.4,15.85-55.87,42.15-35C996.81,544.16,954.57,554.59,936.54,554.5Zm-150-.21c-41.82,4.57-76-60.1-29.6-49.78C767.53,511.17,806.14,549.37,786.56,554.29Zm-11.31-93.88c-65.39-.84-75-82.24-13.8-33C767,433.51,792.42,456.4,775.25,460.41Zm160.23-9.24c-64.21.69-14-36.23,20.25-37.77,44,7,4.06,39.45-20.25,37.77ZM778.27,375.53c-18.8-3-35-12.51-51.57-26.56-13.67-8.83-7.77-47.67,12.72-31C746.72,323.7,792.57,362.1,778.27,375.53ZM0,369.5C-11.55,370.33-.08,4-4,0c3.06-7.64,981-7.62,984,0-2.72,3.45,8.52,143.26-7.87,132.75C926,146.22,881.39,109.88,858.81,75.41c-32.64,38.52-84,65.61-133.47,46.48-18.33.72-22.83-20.72-33.76,7.7,18.24,22.67,3.9,65.59-28.18,63.43-36.85-15.5-84.28,17.82-102.19-21.77-.29-26.35-44.37-9-50.31-57.88-8.85-20-21.23,29.34-44,23.35-13.36,8.48-2.21,38.5-32,46.18-63,25.49-98.92-44.73-153.19-44.4-4.3,14.6,4,35-10.37,47.35-9,10.67-23.68,15.77-38.8,15.08-6.94,2-18.28-7.85-22.2,1.39-6.08,27-28.48,33-48.9,42,11.64,33.38-16.42,59-52.7,67.63-10.36,6.6-32-8-34.92,6.15C67.39,356.65,33.08,371.69,0,369.5Zm319.14-6.41c-17.92,1-53.15-5.78-45.43-32.77C278.05,305.13,425.83,349.19,319.14,363.09Zm203-7.61c-17.05-15.85,6.69-52.77,27.85-57.69C594.8,295.59,547.85,354.65,522.14,355.48Zm408.22-.21c-51.63-.52,9.81-40.43,33.63-32.14C1002.53,335.72,945.28,358.13,930.36,355.27Zm-485-68C430,264.68,460,224.11,486.22,221.22,515.66,239.14,466.77,280.16,445.4,287.29ZM354,271.74c-46.2-.58-64.63-98.48-19.8-61.55C342.89,219.17,369.27,259.27,354,271.74Zm417.39-5.27c-75.94-7.27-60.3-98.41-10.24-36.34C765.82,239.24,787.17,260.33,771.34,266.47Zm140.57-2.65c-21.86-12.24,21.26-40.11,40.49-38.23,9-.69,17.75,6.79,18.51,15.68C965.86,265.79,930.65,260.84,911.91,263.82Zm-75.48-31.08c-23.74-14.9-25-99.81,18.36-81.92C862,175.33,857.53,214.47,836.43,232.74Z"/><path class="cls-7" d="M976,1136c-24.06-49.87-48.83-99.68-77.68-147-3.27-5.17-9.47-12.22-8-16,13.18-50.68,63.2-42.29,46.47-108.4-15.1-39-54.5,15.71-55.22,37.2-8.81,45.73,19.82,29.53,1.32,60.89-3.15-2.84-7.34-5.12-9.3-8.63-11.57-20.73-28.87-36.85-43.15-55.36-4.39-5.68-15.56-9.18-11.11-19.2,7.84-26.86,17.42-15.9,31.93-36.75,14.24-18,31.07-57.08,13.38-76.91-3.51-3.1-8.06-.56-11.42,1.33-27,16-48,43-37.39,74.82,3.43,11.39,1.42,18.67-2.54,27.95-2.89,6.8-5,3.81-8,.82-20.33-19.72-41.71-38.18-65-54.39-1.6-1.11-4.66-2.32-2.89-4.74,4.12-5.66.58-10.73-1.51-15-15.77-32.35-43.2-46.17-73.17-47.82-45.58.52-12.68,42.69,4.78,55.62,14,10.06,29.42,17.17,46.61,19.61,7.52,1.06,17-1.59,22.44,2.07,45.81,32.64,85.94,74.28,118.19,120.24-4.52,1.83-8.86-1.9-12.68-1.19-33.43,4.76-40.21-29-79.66-25.82-8.29-.26-16.82,3.17-25,5.66-17.77,3.28-28.4,17.74-14.24,33.11,17.83,18.58,55.18,23.6,78.12,12.08,8.42-4.23,15.74-14,22.94-14.24,19-.76,39.29-4.63,52.55,18.62,11.83,20.74,26,40.39,37.89,61.3.73,1.29.82,3.59-1.54,2.89-22.36-2.22-17.63-17.1-39.28-23.5-15.09-7.9-97.72-12.56-70.91,20.61,17.21,19.5,46.33,25.68,71.34,21.35,8.27-2.17,15.71-3.74,22.62-11.08,30.26-7.78,39.79,34.41,52.11,54.26,4.47,6.71,19.15,44.9,26.28,41.85C977.34,1140.82,977.43,1138.45,976,1136Zm-50.61-275C933,886.2,933.68,909,905.54,931,912.14,907.76,918.61,885,925.39,861.07Zm-10.12,1.52L894.4,932.71C887.06,907.66,890.41,896.77,915.27,862.59Zm-53.43-90.47c5.17,20.23-8.28,57.94-25.13,70.84C844.65,818.94,856.2,797.14,861.84,772.12Zm-12.47,8.35a14.4,14.4,0,0,1,3-1.25c0,1.25.49,2.68,0,3.7-9.45,19.14-16.16,40.69-27.26,58.5C820.42,815.6,830.66,793.94,849.37,780.47ZM674.89,797.8c-9.15-6.62-20.69-17.45-23.47-28.34,24.13,13.71,48.44,27.31,71.77,46.14C705,812.13,689.24,807.08,674.89,797.8Zm-.79-26.45c-6.2-4.17-13.3-7-19.94-10.54-.52-.28-.7-1.23-1-1.87,33.56-2.82,68.34,19.19,78.13,52.91C713.91,793.82,693,784,674.1,771.35Zm129.84,172c-27-2-52.6-3-78.36-3.2C751.48,926.56,777.27,923.85,803.94,943.31Zm-8.13,16.61c-24.37,9.59-45.23,9.77-66.09-8.64,25.46-.94,51.44,1,75.17,4.11C801.87,956.91,799,958.68,795.81,959.92Zm86.7,71.65c-24.61-2.4-45.71-9.6-67.84-9.24C837.35,1016.85,859.27,1018,882.51,1031.57ZM828.8,1042.7c-55-26.82,23.56-4.5,38.65-2.55,5.54,1.29,12.17-1.74,16.73,4.17C865.51,1048.59,846.89,1049.08,828.8,1042.7Zm35.45-474.43c13.81-2.82,26.45-15.09,40.68-15.72,22.7,11.23,48.82,8.06,71.07-3.53,35.74-20.76-3-64.56-59.5-23.17-7.83,5.41-8.87,15.77-17.77,19.11-12.74,4.79-25.47,9.63-38.4,13.84-2.59.84-5.92,8.69-8.54,1.1-5.86-23.18,0-47.82-5.08-71.39-.46-2.59-2.16-7.26,3.17-9.84,10.91-5.29,20.84-12.9,32.09-17.1,8.43-3.15,13.58-12.64,27.19-7.5,21.31,9.44,70,.57,73.58-27.72-5.13-24.62-39.86-18.45-56.66-10.23-12.92,5.71-20.52,17.93-31.26,25.92-13.58,10.1-30,16.25-44.61,25.13-6.5,4-5.12.5-5.17-3.37-.23-20.63-.38-41.26-.95-61.88-.13-4.7-2.64-9.76,3.62-12.2,14.79-5.76,27.3-15.55,41.14-23,27-21.79,37.84,11,87.15-20.12a14.47,14.47,0,0,0,2.22-23.55c-12.78-10.52-34.31-7.4-51.76,1.12-11.33,5.68-16.72,18.43-26.3,25.21-17.79,12.6-37.85,22-56.42,32.41,1.08-16.46-8-65.66,2.26-76,25.52-13.43,46.14-40.2,77.31-38.32,16.26,1.81,61.57-7.68,52.69-30.54-8.88-27.78-51.23-15.42-66,2.09-7.82,9.37-9,23.07-22.61,29-16.37,6.59-29.19,20.72-44.75,28.7.79-16.94-1-33.9-1.17-50.85-.34-11.69,9.72-18.49,13.56-28.25,6.37-18.09,21.67-80.77-11.12-76.59-39.14,10.8-32.5,61.23-17,88.43,2.64,5.92,8.57,10.53,8.57,17.36-4.83,15.42-.67,31.41-5.22,46.77-15.6-13.76-38.52-20.6-48.51-39.66-11.05-20.26-30.66-60.27-58.76-49.71-13.21,6.27-12.68,17-8.5,29.85,5,15.36,26.94,29.26,40.17,33.25,10.45,3.16,22.79-1.18,31.38,6.26,9.68,8.39,20.8,14.73,30.24,23.18,4.95,4.44,14.24,5.19,14.46,13.86.34,28.71-.51,57.43,1.76,85.89-21.39-12.52-44.55-24-57.37-47.85C769.79,336.81,733,298.29,720.66,313c-26.29,36.66,31.1,60.92,61,65.08,17.24,2.45,29.57,19.15,45.21,27.77,13.46,3.52,5.39,50.17,8.27,63.28.93,12.75,2,20.43-12.71,7.81-10.68-9.15-25.65-14.17-34.19-24.7-12.61-15.56-23-32.42-41.29-42.61-9.67-5.39-18.82-6.18-27.31.11-20.36,18.62,10.13,42.78,27.78,49.5,19.25,9,44.43,0,59.84,19.86,9.31,12,33.18,9,30.51,34.5-2.09,20.09,3.15,40.93,5,61.45.18,2-.16,2-2.11.73-9.31-5.86-19.08-11-28.33-16.93-4.59-3-10.68-3.92-13.28-9.82-9.26-20.29-42.38-71.87-66.31-44.25-13.71,22.81,11.37,44.54,29.7,50.32,16.83,5.31,35.87,1.54,50.86,15.38C826,582.12,847.79,584.81,847,608.61c-.86,25.38,5.08,50.06,10.58,74.71-32.88-32.68-74-54.51-112.4-79.94-6.14-4.08-15.44-4.64-18-12.9-5.11-16.63-10.52-33.31-13.73-50.37-2.4-12.74-13.28-24.45-2.87-39.5,6.94-10,5.4-23.21,2.79-35.81,0-11.82-34.8-64.31-43.23-41-12.3,29.57-7.67,71.24,20.51,90.54,2.07,1.18,5.24-1.34,6.39,2.87,6.92,21.78,10.81,45.6,19.84,66.22-.24,2.32-2.8.81-4.56-.45C684,561.51,638.05,548.6,628,511.67c-2-7.93-10.33-17.4-8-22.65,5.07-11.25,4.88-21.31,3.21-32.63-1.93-27.65-15-59.73-46.87-61-4.37-.41-11-1.13-13.62,6.51-12,33.26,2,71.17,32.26,89.5,5.82,3.56,14.09.56,17.46,6.5,4.91,8.63,7.49,18.54,13.76,26.56.38.48.17,1.42.23,2.14A862.06,862.06,0,0,1,488.59,417.51c-3-3.19-.15-4.56.8-6.17,4.42-7.51,9.22-14.8,13.88-22.18,5.45-8.64,9-21.76,16.71-25.05,18.93-8.06,35.19-18.32,47.12-34.81,15.86-20.24,3.27-48.28-23-35.7-19.11,7.65-28.19,23.85-31.46,44.09-1.25,7.74,3.44,15.53-2.11,23.25-8.46,11.77-15.43,24.62-23.85,36.43-2.59,3.64-4.22,14.9-10.45,8.79-18.78-18.39-35.37-39-53.42-58.18-4.86-5.17-4.57-7.5,0-12.5,5-5.45,8.09-12.65,12.29-18.9,5.42-7.72,5.85-20.45,15.16-25,22.6-10.33,40.34-24.63,49.7-48,3.17-7.94,4.18-16.46-1.17-23.65-4.91-6.59-13.5-7.08-19.82-4.27-25.05,11.14-40.47,30-42.05,58.36,3.53,23.08-11.4,39.72-22,58.46-1.6,2.8-2.38,3.19-4.67.27-10.09-12.93-20.72-25.43-30.71-38.44-5.3-6.9-13.09-14.2-13.81-21.87-.52-24.3-21.68-84.59-52.41-77-10.18,3.72-9.72,15.14-10.62,25-1.29,14.35,11.07,36.52,22.67,45.22,11.13,8.36,27.19,6.12,35.73,19.84,10.59,17,23.13,32.82,35.27,49.77-13.28-2.41-25.87,6.45-39.1-.33-19.37-9.93-39.77-17.38-61.54-19.81C267,307.75,253.56,341,275.68,358c22,16.1,46.89,13.81,70.42,4.3,14.06-5.68,24.82-19.79,42.58-15.49,5.61-2.08,14.25-2.13,18.26,1.79,49.12,54.29,98.78,109.6,159.3,151.32-19.35,2.73-37.12,19.63-57.24,5.19-4.63-3.5-13.44-2.65-15.51-8.12-3.81-10.07-11.07-17.52-17.22-25.48-10.23-17.29-69.92-45.77-73-12.91,7.37,32.42,47.14,62.18,81.58,54.9,3.69-.77,4.72-6.17,9.63-3.76,6.5,3.19,13.44,5.49,20.34,8.22-9.47,3.82-18.89,7.46-28.19,11.41-8.54,3.63-18.38,12.32-25.07,10.28-37.47-12.26-81.12,7.09-98.25,41.87-13.54,27.6,14.19,32,33.95,25.08,23.65-5.82,41.86-19.88,58.39-37.11,6.32-6.58,6.57-17.08,12.55-21.7,26.25-15.91,58.07-23.4,85.83-36.82,12.51-5.62,22.89-6.55,33.75,3.93,15.71,16.65,37.6,24.94,55,39.37-4.33,4.61-10.45,1.51-15.68,3.77-11.75,2.27-25.58,9.51-34.84,5.69-17.4-7.19-34-9.77-52-7.44-18.91,2.43-36,8.2-47,25.24-8.29,12.84-5.77,28.8,5.58,32.85,34.48,9.06,72.58-8.49,96.84-33.22,1-1.11,1.8-3.61,1.23-4.7-2.67-5.12,1.39-4.74,4.07-5.34,9.93-2.25,19.83-5,29.7-7,8.54-1.77,15.84-7.71,25.28-1.57,25.9,17.06,52.41,33.18,78.65,49.65-1.77.63-3.64,1.83-5.54,1.88-10.24.25-20,7.74-30.31,3.31-18.11-7.76-37.53-9.26-56.15-7.68-15.47,1.31-32.21,7-40.07,23.32-3.66,7.59-11.57,15.63-5.53,25,20.27,18.47,63.45,7.3,86.33-5.31C706.25,642.3,694,631.38,702.56,629c8-1.7,15.84-4.08,23.83-5.83,6.65-1.45,15.12-5.55,19.84-3a682.46,682.46,0,0,1,124.46,89.61c-21.47-1.47-41.86.15-61.21-11.41C780.85,684.38,744,681,719,704.08c-4.33,4-9.1,8.31-6.44,15.13,10.53,25.77,82.34,25.43,102.76,12.51,12.54-7.31,23.93-20.08,39.82-14.66,16.43-1.45,28.07,4.27,38.46,18.3,16.3,22,33.27,43.29,46.52,67.48,9.26,16.89,17.75,34,24.55,52,2.08,5.49,4.77,13.27,9.65,11.83,6.87-1.67-.25-7.64-1.3-11a270.6,270.6,0,0,0-34.49-76.32c-11.15-17-24.68-32.16-13.6-54.44,2.73-5.49,1.93-14.73,5.9-17.24,14.09-8.88,23.2-21.94,31.91-35,11.58-18.3,22.1-43.88,13.24-65-4.53-10.81-12.37-9.53-21.39-3.12-31.54,18.58-52.84,55-44.11,92.06,1.55,5.49,7.57,9,6.93,13.68-1.34,9.91-4.78,19.53-7.39,29.36-8.3-10-16.38-20.1-24.8-29.87-5.76-6.68-15-12-17.38-19.62a187.57,187.57,0,0,1-9-46.7c-.92-17.34-3.63-34.58-5-51.9C853.09,582.23,849.61,572,864.25,568.27Zm52.1-31c13.23-9,26.28-18.82,44.73-18.22,10.54-.65,20.15,2.41,17.3,15.19-2,8.47-12.42,9.59-19.56,12.29a63.28,63.28,0,0,1-43.07.46C905.61,543.43,915.37,537.89,916.35,537.23Zm-6.89-99.12c11.85-11.87,26.77-18,42.68-20.44,17.91-3.24,28.49,15.39,7.66,22.18-9.11,3.66-18.12,8.48-27.85,7.07C927.52,447.39,898.73,444.41,909.46,438.11Zm54.19-111c3.8.33,9.08,1.46,9,6-.14,8-8.46,9-13.64,11.39-14.4,6.83-30.45,8.71-46.14,4.19C925.7,330.69,943.27,325.37,963.65,327.11ZM910.16,255c8.64-17.75,24.68-24.09,42.54-25.43,13.62-.67,21,18.36,5.45,22-14.35,7.62-30.24,6.85-45.71,8.19C909.29,260.07,908.71,258,910.16,255Zm-78.32-30.86c-2.22-17.48-12.55-33.86-6.87-52.43,3.43-11.21,10.74-19.2,21.95-20,7-.51,7.49,7.59,6.88,12.69-.56,23.3-2.24,46.42-17.37,64.35C834.84,227.22,832.06,225.85,831.84,224.15Zm-59.43,38c-18.77-1.24-38.87-11.47-48.53-29.09-5.47-9.79-1.84-19.63,11.46-20.14,11,1.86,17.87,13.39,25.52,23.69C763.89,242.17,775.62,256.58,772.41,262.14Zm5.84,109.39c-18.43-3.69-57.5-20.73-55.28-43.42,1.42-6.73,3.26-14.52,14.15-6.86C754.17,334.32,771.06,351.71,778.25,371.53Zm-3.53,84.83c-16.62-3.41-33.5-6.51-45.45-20.11-6.91-6.44-8.48-21.22,5-21.25,18.27,6.34,35.76,22.71,43.19,41.09A9.38,9.38,0,0,1,774.72,456.36Zm8,93.49C731.81,545.31,730,496,754.85,507.92c15.46,9.61,24.66,24.72,33.74,39.83C789.89,549.91,788.58,550.94,782.73,549.85ZM675.87,430.73c5.64,26.33,11,51.19,19,75.61C681.14,496.58,667.34,467.56,675.87,430.73Zm26,67.5c-5.31-21.57-10.28-41.74-15.56-63.2C703.06,453.75,710.13,473.44,701.92,498.23Zm-131.28-62c0-7.48-4-16.8.91-23,1.05.92,2.54,1.65,3.09,2.81,10.65,23.87,23,45.17,31.57,70.16C588.45,472.36,573.62,458.94,570.64,436.22Zm42.5,41.32c-9.62-24.94-22.28-48.43-34.34-72.19,32.85,5.87,32.49,45.39,36,71.85ZM521.06,343.9c0-19.62,11.7-36.14,30.2-42.32,3.37-1.13,7.88-2.18,10.75,1.13,10.87,19-21.34,42.06-36.75,47.94C516.5,354.21,523.75,345.22,521.06,343.9ZM485.83,225.26c1.21-.27,3.88.94,4,1.74.63,4.14,2.07,8.94.65,12.48-8,21.87-25.22,33.56-45.09,43.81C443.85,257,459.73,231.1,485.83,225.26ZM351.38,267.1c-26.27-9.54-38.32-24-38.32-47.42-.54-4.74-.38-12.26,3.73-13.93,5.92-2.41,11,3.54,15.26,8.06,13.58,14.29,19.78,31.89,22.87,50.88C355.45,267.92,354.81,268.34,351.38,267.1Zm1.13,81.47c-21.8,12.46-51.7,16.29-71.4-.28-5.4-5-5.08-11.3-3.54-16.91,2-7.33,9.48-4.85,14.53-4.92,21.63-.32,40.34,10.5,60.24,16.85C355.37,344.34,355,347.25,352.51,348.57Zm88.42,108.59c14.86,6.44,28.7,16.23,35.56,31.53-23.73-8.54-41.3-27.26-65.75-35.37A52.84,52.84,0,0,1,440.93,457.16Zm-29.66,1.44c23.31,17.52,45.92,32.88,71.51,45.54C460.15,506.63,419.37,488.38,411.27,458.6ZM370.14,599c.88-36.27,47.84-56.3,83.55-54.39C421.13,559.56,392.53,574.49,370.14,599Zm84.22-42.54c-20.18,24.46-44.31,40.13-76.27,46.53,23.79-22.74,48.5-36.29,76.54-49.28C454.56,554.6,454.86,555.87,454.36,556.42Zm43.32,38.22c13.07-31.74,50.23-29.84,81.2-26.86C546.2,573,525,583.36,497.68,594.64Zm54.68,4c-16.39,6.79-34.2,10.88-52,7.05,28.48-17.42,56.55-23,89.79-33.37C577.92,585.48,565.87,593.23,552.36,598.66Zm125.91,22.79c2.25.49,6.87-2.23,6.84,2.15,0,3-4.12.72-6.3,1.48-25,8.28-50.42,17.23-74.76,26.89C619.59,621.38,639.3,613.05,678.27,621.45Zm8.39,16.91C665.5,655,638.36,661,611.59,658.27c24.45-8.49,48.06-16.73,71.73-24.79,1.6-.54,3.66.29,5.5.48C688.12,635.45,687.8,637.39,686.66,638.36Zm63.6,60.83c16.44-4.64,32.13,2.08,48.13,4.13.75.09,1.37,1.19,2,1.82-23.1,4-47.95-.46-71.48,3.92-.05-.55-.09-1.1-.14-1.66C736,704.63,742.92,701.26,750.26,699.19ZM818.36,719c-31.14,18.5-62.53,14-95.29,1.17,23.27-5.08,45.52-1.76,67.48-3.9,10-.58,20.82-3.15,30.2,1.12C820,718,819.18,718.54,818.36,719ZM968.1,608.66c5.37,35-11.59,59.29-33.11,83C942.89,662.45,956.5,636.75,968.1,608.66Zm-9.49,3c-15,28.66-27.8,55.58-36.88,85.7C913.85,660.24,929.76,634.65,958.61,611.61Zm13.84,979.87c-9.94-9-19.89-18-30.37-26.34-8.64-6.89-14-14.13-13.44-26.31.53-11.86-3.38-23.89-3.16-35.8.15-7.58-6.93-16.61,3.37-23.27,25.06-18.23,17.74-89.66-11.39-101.2-17.16-2.18-25.38,29.13-27,42.88-3.18,22.87-3.27,44.13,15.18,61.34,3.28,3,9.15,7.28,8.58,9.76-.75,17.07,2.21,33.18,4,50.24-20.9-14.23-40.82-30.43-61.25-45.48-2.08-1.58-6.5-1.46-5.7-5.56,1.87-9.46-1.57-18.1-3.6-27-1.43-6.26-6-15.91-3.57-18.2,7.72-7.34,9.42-15.67,8.9-24.89-1.15-20,.24-41.18-19.16-54.66-5.66-3.93-11.06-9.46-19-1.22-20.79,20.2-26.57,76.3,8.71,83.36,4.08.67,9.59,3.72,11,7.12.9,2.72,12.61,34,5.86,30.07-28.19-19.71-59.89-33.24-89-51.46-8.69-5.19-20.32-5.53-26.77-13.93-20.08-26.18-46.62-39.23-80.27-38-49.56,3.45-2.56,51.43,21,58.19,18.55,7.4,37.1,2.73,55.66-2.16,9.3-1.54,18.64-.87,28,4.91,40.17,23,80.52,45.61,117.54,73.67-9-1.23-24.86,3.52-30.59-2.63-16.53-24.83-57.56-33.19-81.9-17.67-18.08,8.18-16.8,22.84-.19,32,21.57,14.63,45.15,17.45,69.22,9,8-2.28,11.63-12.64,21-10.31,9.58,2.37,19.21,1.13,28.77,1,4-.06,7.66-2,11.53,1.08,27.87,20.2,55.44,40.91,79.89,65.27C968,1600.42,980.25,1597.71,972.45,1591.48Zm-62.82-117.82c-16.77-16.65-15.43-53.41,0-83.81Zm-279.28-81.77c30.74-3.59,54.7,4,77.52,23.44-26.26-10-51.35-18-78.78-23.29Zm89.88,41.25c-27.36,2.91-71.71-1.17-83-29.35,20.31-1.64,64.71,17.28,84.1,29.21Zm110.38,9.38c-26-10.43-27.79-44-14.14-67.9C821.17,1399.25,827.43,1419,830.61,1442.52Zm9.56-6.52c-5.36-21.2-10.86-43-16.37-64.75C841.45,1387.56,848.31,1415.43,840.17,1436Zm-31.28,95c-19.16,5.49-35.74-1.15-51.56-11.4,18,3.77,36.22,4.57,54.25,7.11,2.76.38,6.2-3.23,8.37,1.08C816.26,1528.81,812.58,1529.89,808.89,1531Zm-56.29-22.24c21.12-14.12,49.45-14.79,74.71,8C802,1515.79,777.45,1513.66,752.6,1508.71Zm168.52-45.59c-2.71-26.36-6.42-51.63-5.23-78.38,20.76,22,26.17,64.25,6.75,88.16C919.42,1470.07,921.47,1466.38,921.12,1463.12Zm-66.65-106.46c28.23,15.15,71.59,9.75,96-13.26,4.31-4,5.42-12.33,14.27-11.24,1.36.17,7.15-5.28,3.34-6.18-9-2.12-14.56-8.49-21.86-12.52-18.47-9.39-43.18-11.82-62-2.82C872.78,1315.46,834,1345.07,854.47,1356.66Zm15.36-24c18.32-20,50.5-26.41,73-9.94l-1.57,1c-25.66-.91-48.91,4-72,10.69C869.45,1333.79,869.45,1333,869.83,1332.64Zm-5.21,14.44c26.33-10.2,52-13.22,81.1-11.9-23.37,18.33-56,25.5-82.88,14C863.43,1348.44,863.88,1347.32,864.62,1347.08ZM421.1,858.65c-14.41,7.37-27.29,10.19-43.12,14,14.91-.52,25.94,6.26,39,1.47,12.88-4.72,26.83-7,40.52-8.83,8-1.06,15.85-6.08,24.43-2.38-17.43,11.21-37.44,13.53-56.49,18.68,6.48,5.2,17.7,7.19,42.5,5.19,14.66-1.18,28.25-9.73,45.74-7.69-15.88,7.5-30.11,13.32-44.48,16.55,25.08,17.23,52.52-8.56,78.55-5.49-8.3,13.13-29.63,13.42-43.94,18,41.69,20.76,47.6-3.64,83.14.52-10.8,9.23-27.55,11-40.72,15.55,35.46,28.09,58.59-1.85,92.1,2.65.36,4.19-4.06,5.44-6.44,5.94-15,3.11-29,10.11-44.82,10.56,26.48,27.47,58.59.58,90.77,6.67-17.61,8.17-34.94,11.15-52.85,13.33,13,12.4,27.64,10.53,43.12,8,12.69-2.05,25.79-1.54,38.71-2.09.43,0,.91.73,1.36,1.13-13,10.24-37.77,8.58-56.35,11.66,33.44,15.19,67,1.82,98.61,11.76-14.77,6-29.42,5.35-44,5.37-6.43.7-13.88-2-19.39,2,22.31,28.32,57.86,8.8,86.82,17.7-16.46,8-37.27,5.66-55.06,6.17,21.85,25.88,53.83,15.56,80.24,23.94-7.07,6.81-33.84.76-45.62,2.3,8.62,14.17,22.25,18.28,37.28,17.45,12.55-.69,24.48,5.26,37.06,2.54.28-.06,1,1.69,1.44,2.6-13.9,7.25-29.51,2.4-44.1,2.88-1.45,0-3-1-3.72.81,18.63,24.25,51.09,10.64,74.36,24-7.7,6-18.21,3.14-27.07,2.27-6.68-.86-13.68,1.16-20.32-2.08,11.1,8.66,15.21,25.32,35,23.91,13.81-1,28.08,4.37,42.75,7-15.79,9.81-31.55-.49-46.56,2.92,14.66,28.51,53.39,16.16,74.18,38.42l-52.35-10.24c14.89,26.59,51,18.47,68.27,39.37-14.52-2.09-29.52-5.15-43.09-11.42-.89-.45-2.16-.15-3.26-.2,7.15,14.81,19.81,26.72,24.2,43.28.37,1.23,1.45,2,.14,3.28-8.78,3.48-20.48-23.32-26-29.17-57.39-69.4-118.87-136.79-193.72-187.68-126.43-91.38-278.66-135.88-431-160.28-6.45-2-20.37-6.72-18.27-11,1.47-3,4.43-3.94,6.8-2.79,15.12,6.53,31.49,7.43,47.34,9.3,21.8,2.58,43.11,9.3,64.84,9.82C379.75,867.09,398,857.15,421.1,858.65ZM881,1251.36c-3.61-5.84-12-11.94-10.31-19.34,6.21,1.65,10,8.43,15.13,12.21,6.9,7,15.34,13,21.33,20.69C903.29,1277.2,885,1255.59,881,1251.36Zm-13.8,6.87c8.57,6.53,18.18,12,25.89,19.45-6.65,11.37-18.76-5-24.57-9.87-2.85-3.2-5.92-6-5.29-10.76C864.59,1257.42,866.15,1257.47,867.22,1258.23Zm-7.9,20.26c4.47,5.29,8.71,10.79,14.35,14.62.57.39.74,2.63.57,2.7-2.08.84-4.42,2.31-6.38,2-8.44-2.19-28.56-27.13-29.28-34.46C847.93,1265.73,853.81,1272,859.32,1278.49ZM820,1288.63c4.67-3.52,8.43,3.86,12.76,6.36,4.81,2.78,23.75,19.74,11.75,22.63-8.57-3.23-11.11-11.56-17.26-17.06C823.69,1297.42,817.64,1290.43,820,1288.63Zm3-74.61c-15.29-20.83-34.75-39.5-47.37-61.86l2.84-.74c21.56,13.81,34.19,36.75,50.08,56.22,1.65,2.21,4.1,4.59.55,7.7C826.16,1218,824.4,1215.66,823.07,1214Zm-1.36,396.11c-43.94-35.9-96.36-59.84-145.6-87.35-15.07-9.66-37-8.14-46.25-26.57-6.52-13-22.47-22.33-16.94-40.56.43-15.85-6.69-31.36-15.52-44.84-7.44-10.32-25.06-19.25-32.69-15.15-8.22,8.48-10.74,21.79-8.32,33.79,10.78,52,47.18,34.37,60.5,66.86-18.6-3.58-37.72-12.48-56-18.54-17.8-7-36.75-9.4-54-17.09-6-2.66-14.52-.46-17.76-8.59-3.18-8-6.73-15.84-9.2-24-1.88-6.25-8.69-11.53-6.53-18.13,8.28-21.15,16-69.47-15-74.7-21.52-1.23-28.88,23.49-22.67,43.13,4.12,13,13.45,21.54,22.39,31.36,9.61,10.56,14.07,25.85,20.63,39.15,1.75,3.53.94,4.57-3.4,3.66-23.26-5.64-48.06-7.47-70.72-14.81-5.89-2.82-13.09-38.91-11.12-45.38,5.78-19,3.38-37.48-7.06-54.09-24.48-27.22-50.22,15-23.56,47.06,11.45,16.23,28.39,28.6,29.2,51-14.7-2-29.62-4-43.93-7.75-8.26-2.28-19.29,2.71-24.69-7.95-4.33-8.55-11-17.07-11.75-26-3.71-20.9,6.29-53.8-14.33-67.17-5.46-2.71-2.39-3-.46-5.12,23.06-16.14,8.1-42.81-3.1-60.94-9.18-15.42-20.65-30.22-32.66-43.71-2.82,10.14,11.85,29.42,18.45,37.42,6.64,7.29,8.58,13.34.38,21.86-7.18,7.48-16.13,10-24.86,12.82-21.34,9.31-13.65-21.73-28.6-20.79-4.86,2,.64,9.18,1.39,12.67,4.35,12.78,9.68,25.36,12.61,38.46,4.12,25.82,22.71,14.31,20,22.38-11.78,40.49,46.05,46.06,51,80.33-22.12.9-45.12-6-67.27-5.36-37.9-2.06-26.38-32.84-20.33-57.89,2.71-17.06-1.82-31.5-12-44.53-4.36-5.58-12.72-6-17.59-9.64-9.27-7-16.38-16.56-19.29-28.19-6.54-15.51-14.14,15.89,15.63,32.94-15.12-3-7.69,17.14-25.41-13.47-1.8-3.23-1.57-9.9-6.11-8.1-4.1,2-.8,11.77,2.1,15.23,8.87,11.8,15.19,26,12.94,40.84-9.93-10.44-16.55-23.82-25.37-35.25-1.09-1.54-3.4-2.21-5.14-3.29-1.87,8.78,13.92,30.69,20.95,36.57,19.44,19,42,37.1,47.77,65.39.31,2.19,5.16,7.51.09,7.69-16.92.6-33.9-.36-50.85-.7-18.55,1.65-36.06,1.79-54-4.24-26-6.77-77.14,5.26-71.25,39.45,10,36,56,11.41,75.66-3.21,9-6.68,11.54-20.66,27.59-19.93,26.94,1.23,54-1.64,83.28,2.53-13.64,5.42-19,19.49-34.07,20-9.14.32-18.14,4.09-27.24,6.17-14.22,3.24-23.82,13.66-34.62,22.18-11.19,8.83-10.17,23.85,1.28,32,28.08,17.12,62.26-8.33,75.12-33.87,5.82-11.54,3.07-26.53,17.41-35.14,10-6,18.87-11.93,30.69-10.77,37.27,3.65,69.2,7.06,107.35,13.34-13.91,6.45-19.83,19.53-34.47,19.75-24.61,4.89-63.66,13.36-74.29,38.44-5.33,14.88,7.62,29.82,24.22,29.13,26.91-1.11,44-18.91,56.08-39.84,9.17-14.73,25-43.67,43.08-45.61,31.88,7.74,65.43,12.17,97.18,18.06-13,9-24.56,20.13-43.08,20-24.2-2.59-87.65,27.87-51,54.78,26.3,14.37,63.69-8.16,74.57-32.72,3.07-9,3.47-19.47,13.23-25.18,19.84-16.21,22.19-14.11,45.19-5.35,36.47,9.73,72.22,20.25,107.1,35-29.84,20.29-39.81,7.77-70.44,10.52-18.75,3.28-35,10-48.07,23.93-14.39,15.72-6.56,27.1,13,28.48,23.62,5.29,49.92-3.11,67.77-19,9.36-10,12.54-25.67,29.09-29.06,7.9-1.62,17-10.57,22.54-8.43,66.29,25,126.84,62.3,187.48,98.48C822.73,1620.09,827.13,1614.62,821.71,1610.13ZM596.49,1464.57c-20.47-7.41-38.39-31.78-30.39-57.54C573.86,1427.83,588.08,1445.51,596.49,1464.57Zm7.51-7.87q-16.44-27.66-32.57-54.79C588.14,1403.23,606.67,1439.1,604,1456.7Zm-135.1-58.82c-5.74,20.06-29.41-24.82-25.32-36.81,1.7-4.55,2.12-14.46,11.76-15.63C475.09,1343.65,471.73,1385.52,468.9,1397.88Zm-84.07-3c.11,3.35-1.92,2.08-3.56.94-12.06-8.38-21.69-34.46-18.3-48.69,2.76-13,17.95-7.58,19.62,2.45,2.49,9.19,3.54,18.77,5.2,28.18C388.78,1383.91,384.64,1389.11,384.83,1394.92ZM282.26,1291.14c.26-4.49,5.5-9.69,9.84-12.53,2.27-1.49,2,4.2,3.22,6.36,2.95,5.06,3.87,10.53,4.31,18.68-.25,4.29-5.34,7.87-10.13,11.27-2.55,1.81-1.94-2-2.18-2.75C285.22,1305.22,281.85,1298.05,282.26,1291.14Zm-25.79,39.8c-9.88,3.39-2.12-15-9-28.18-3.75-7.12,15.34-.92,24.21-7.3,6-3.07,4,3.73,4.88,5.75C283.84,1317.05,274.59,1331,256.47,1330.94Zm46,55.91c-3.22,11.72-34.57-29-31.33-35.57.33-7.85,3.4-15.88,12-15.64,8,.23,15.62,3.25,16.43,15.11.54,7.73-.66,16.31,4,23.27C301.65,1378.58,301.05,1382.65,302.47,1386.85Zm-187.61,43.3c-11.17,10.69-55.24,41.91-65.89,18-3.8-11.82,4.31-16.78,12.4-20.69,17.39-7.42,40.23-12.73,57.13-2A31.89,31.89,0,0,1,114.86,1430.15Zm95.92-51.42c.2,2.19-1.48,1-2.24.19-13.22-13.93-22.88-29.94-24.6-49.27-1-17.49,23.91-15.1,26.1-.69,1.45,7.92,7.82,15,4.46,23.47C217.35,1361.94,209.93,1369.64,210.78,1378.73Zm-11.95,83c-15.92,56.54-100.54,48.94-54.89,15.68,15-12.43,34.18-14.66,52.29-19.26C198.93,1457.44,199.27,1459.89,198.83,1461.7Zm84.94,57.45c-8.85,3-17.29,1.21-22.93-6.14-6.33-8.26,1.44-14.41,6.32-18.55,18.1-15.37,41.1-17.5,64-21.61C320,1494,306.51,1511.47,283.77,1519.15Zm162.37-22c-24.68,55-100.2,36.19-58.77,9.3,16.21-11.16,35.5-13.19,54.05-17.08C445.88,1488.44,448.5,1492.15,446.14,1497.16Zm120.23,32.67-63.09,24.88C509,1538.69,547.49,1526.4,566.37,1529.83Zm-65.26,32.46,77.23-27C569.86,1559.54,524.68,1573.57,501.11,1562.29Zm288.83-260.07c-1.44-3.1-.58-3.43,3.2-3.2a83.16,83.16,0,0,1,21.12,19.86c3.53,3.46,9,5.49,8.47,12.1.62,3.63-3.36,4.44-5.56,3.16-3.26-3.47-6.74-6.74-10.16-10.08C800.38,1317.6,794,1310.92,789.94,1302.22Zm-7.5-103.91c8.19,8.8,13.37,20.28,20.73,29.86-1.93,3.07-3,6.55-6.69,3-12.71-11.56-21.11-26.54-31.46-40-3.35-5-7.09-10.11-8.72-16C769.09,1176.33,774.66,1190.19,782.44,1198.31ZM775.05,1327c-1.67-2.11-1.54-5.65-2.52-9.67a137.06,137.06,0,0,1,28.31,28.94c1.68,4.43-2.63,6-5.61,4C788.29,1342.7,781.43,1335,775.05,1327Zm-2.52-85.44c-.58-6.89-50-55.65-26.18-47.18,3.26,1.14,7.51,6.56,11.72,12.49,7.26,10.23,16.48,19,21.89,30.64C782.72,1243.94,775.24,1248.5,772.53,1241.56Zm-1.19,114.91c-.77,1.87.8,4-1.84,4.56-5.75,1.14-7.56-5.5-10.52-9-5.52-9-13.51-16.81-15-27.64,3.66.26,5.52,3.07,7.61,5.47C758.88,1338.29,768,1345.5,771.34,1356.47Zm-9-233.58c5.07,4.36-2,10.51-5.75,5.07-14-16-30.62-29.28-46.39-43.41-4.09-3.66-10.51-5-11.63-13.42C726.57,1081.24,744.43,1102.1,762.32,1122.89ZM754.46,1251c2.51,8.27-4.6,10.6-7.17,5.28-2.32-9.79-30-38.38-24.44-42.32C730.85,1207.67,752.83,1246.6,754.46,1251ZM737,1361.75c-7.86-10.14-16.62-24.25-16.8-28.58,2-8.34,29.52,29.89,32.26,33.64,1.16,2.41-1.15,7-4.63,5.91C745.76,1372.11,741.54,1367.58,737,1361.75ZM688.92,1092.3c7.15,5.33,58.92,43.17,46.93,50.91-2.08,2-3.89-.06-5.35-1.52-15-16-32.57-30.06-45.38-47.88Zm22.35,147c3.52-3.68,5.92,1.46,7.83,3.2,2.73,2.39,18.63,20.09,7.25,18.17C721.92,1260.66,708.8,1241.86,711.27,1239.29ZM707.12,1158c-10.36-14.22-25.46-23.52-36.71-36.76,4.57-10.69,42.85,27.15,44.74,34.33C713.1,1159.87,710.56,1164.08,707.12,1158Zm4.76,200.4c1.35-1.18-4.27-7.78-8.08-11.09-31.11-27.07-61.12-55.34-94.61-79.57-72.93-49.77-158.43-75.64-238.78-110.45-13.24-5-26.56-9.73-39.92-14.43-7.93-2.79-16.69-3.39-23.54-9.08-32.13-27.06-57.18-62.66-69-103.1-16.09-41.55,13.12-59.7.56-74.85-22.83-24.93-41.22-55.06-44.74-89.57-.12-1.75-1-4.52-3.2-2.23-26,29.68-9.39,74.75,5.78,106.19,17.49,25.24,27.92,18.89,28.78,55.78,9.11,29.46,21,57.54,42.16,80.7,1.05,1.16,2.6,2.25.77,3.51-29-17.67-51.67-49-70-78.48-26.4-46.55-44.06-97.43-60.78-148.06-1.25-3.81-6.89-7.86-3-11.85C151.9,852.25,165.55,827,166,800.5c-.16-4.07-.07-8,2.22-11.37,16-23.83,26.15-49.36,24.63-78.47-.26-5.1-2.16-13.46-7.4-12.88-5.73.65-2.23,7.23-.6,11.34-1.31,26.22-8.17,51.08-23.21,73.28-.49-3-4.52-4-2.78-8.31,3.66-9,6.07-18.44,6.13-28.29-.49-7.79,2.9-27.11-8.32-27.83-.69.1-1.84,2.2-1.56,2.82,7.58,16.37-.71,31.66-3,50.58-3.76-15.37-2.69-25-11.21-36.72-2.76-4.64-8.72-12.64-14.63-8.32.11,4.74,3.42,7.8,5.85,11.55,6.67,10.27,7.92,22.64,10.47,34.3,1.42,6.46-7.35,3.82-10.65,7.72-14,16.57-16.45,36.61-18.63,56.74s13.22,34.8,17.07,53.3c8.36,35.68,23.71,69.51,36.38,103.84,13.07,24.15,23,49.71,40.58,70.74,4,5,.89,6.8-2,8-19.1,5.16-41.18,1.75-53.35,22-5.34,8.61-9.43,17.15-7.85,27.28,4,24.39,30.91,46,29.58,70.54-23.72,62.81-91,48.73-74.21,111,10.55,54.94-35.31,65.74-18.72,80.79,14,12.4,42.9,16.66,60.31,10.68,14.51-5.65,17-20.52,21.82-33.14,2.28-4.53,4.87-10.83-3.67-10.58a50.21,50.21,0,0,1-24.58-6.51c-9.66-5.21-22.72-8.41-21.65-22.34,2.61-40.55-17.74-42.43,25.12-67.78a151.66,151.66,0,0,0,59.22-92c1.92-10.54,4.47-21.8,13.89-28.79,10.08-7.48,22.62-8.26,34.44-10.49,8-1.51,16.29-3.82,23,4.32,13.32,18.47,33.56,10.23,37,26.55,3.12,14.66,4.91,34.6,19.81,42.15,3-9.16-8.3-26.68-10.06-37.4-.82-2.88-4.5-6.51-1.39-9.48,2.9-2.29,20.18,7.79,18.87,12.5.17,12.8,6.87,23.43,12.49,34.37,1,2,5.44,2.37,8.29,3.49-1.36-10.27-8-19.7-10.26-30-.42-2.61-5.83-9-.91-9.88,5.85-.38,16,3.22,17.26,7.26,5.48,13.7,12,51,29.61,51.42-7.13-17.9-15.36-33.92-20.42-53.4,7.57,12,24.38,8,27.89,19,4.52,18.16,14.44,33.72,25,48.92,3.39,4.2,8.65,2.4,5.07-2.64-6.17-13.73-12.5-27.37-18.88-41-.87-1.85-1.38-5.31.69-4,8.8,5.65,20.83,5.93,26.34,17.35,7.63,15.21,12.24,34.13,28.35,43,2.88-6.17-3.3-11.2-5.18-16.89-4.27-8.52-8.63-17.07-13-25.78,5,1.39,10.57,1.52,14.13,4.28,5.72,4.43,14.92,3.21,17.74,12.62,5.22,15.26,12.27,41.86,27.22,49.57,1.85-6.54-3.85-12.64-5.46-18.91-4.23-10.21-8.29-20.49-11.83-31,3.43,1.14,7.5,1.48,10.15,3.6,5.45,4.35,15.41,1.91,17.54,10.19,4.89,19.08,12,36.89,25.53,51.38.84.91-.69,4.8,2.54,3,4.76-3-.55-8.36-1.45-12.21-5.72-13.49-11.41-27-17.21-40.77,29.39,13.46,59,28.73,84.69,48.69,7.45,7.17,4,18.43,7.92,27.32,5,10.95,5.14,25.75,16.49,32.58-1.45-16.31-8.2-33.08-11.36-48.74,37.83,16.65,21.27,54.61,46,78.11,4.25-12.2-8.09-36.33-11.12-50.39,5.21,4.17,9.61,7,13.2,10.72,5.32,5.42,13.85,7.27,15.33,17.13,2.3,15.27,9.19,29,18,41.59,2,2.68,6.83,1,5.27-3.07-4.72-12.12-8.91-23.86-13.53-36.32C701.47,1354.06,705.28,1363.51,711.88,1358.43ZM222.15,984.77c-16.61-16.94-26.23-38.87-32.38-61.47-2-7.22.75-15.12-3.26-21.87,1.4-6,3-6.69,4.63-1.16,10.93,21.48,20.38,43.79,40.58,59.26,4.79,3.66-3.11,9.84-3.76,15.38C227.56,978.38,224.19,981.49,222.15,984.77Zm-92.24-120c-10.3-22.3-6-48.22,4-70,3.1-6.37,7.84-11.13,15.29-9.54C170.88,794.72,140.84,852.63,129.91,864.76Zm9.4,497.35c4.32-6.77,10.12-1.67,15.27-.88,1.4.21,1.07.5-2.65,6.38-4.81,9-10.48,18.84-21.27,21.62l-4.85-.73C128.69,1379.05,134.43,1370.62,139.31,1362.11Zm-18.63-13c20.46,7.43,4.18,15.77-.13,30.35-6,9.84-15,4.92-21.86,2.5-25.69-9.3,9-29,11.25-44.4C112.56,1342.86,115.53,1347,120.68,1349.12ZM241.77,1112.8c-39.05-2.8-56.7,25.31-59,60.87-6.92-32-48.16-56.9-7.6-81.39,10.18-5.85,23.5-4.85,34-11.24,17.45-10.63,14,12,23.53,14.93,5.36,2.16,10.07,9.58,13.72,14.72C244.86,1111.43,243.28,1112.87,241.77,1112.8Zm441.85,65.75c-5.63-5.62-10.11-12.39-15.6-18.17-2.28-2.4-5.43-5.39-4-7.64,2.23-3.46,4,1.5,6.15,2.22,11.77,4.12,18.5,14.57,24.32,24.6C691.16,1189.49,687.18,1184,683.62,1178.55Zm6.43-121c-1.79,1.64-3,5.16-6.69,2-16.1-13.53-32.35-26.89-48.58-40.26-2-2.42-15.62-9.44-10.35-12.1,15,1.6,24.66,11.21,34.93,19.44,10.44,8.36,20.18,17.6,30.34,26.33C691.6,1054.59,691.54,1056.14,690.05,1057.5Zm-15.92,141.56c-4.7,0-25.37-17.65-24.94-20.93s2.66-4.43,5.76-2.05c8.08,3.52,14,11.3,20.86,16.9C677.29,1195.08,677.91,1198.94,674.13,1199.06Zm-48.54-157.12c17.65,7.21,33.36,18.1,42.82,35.1-.71,2.44-3.77,1.94-5.32,1.11q-20.08-15.64-39.91-31.59C617.92,1042.16,619.94,1038.06,625.59,1041.94ZM655,1210.82c.5,13.48-12-.62-13.88-5.66C640.61,1198.7,655.5,1207.38,655,1210.82Zm-51.75-151.23c20.1,5.46,31.52,22.59,47.12,33.93,2.29,3.2.41,11.47-4.78,5.53C637,1090.13,602,1069.62,603.21,1059.59Zm21.55,58.72c-9.45-9.26-22.29-16.48-29.53-27.46.63-1.44-1.23-3.35,1.85-2.51,14.39,3.92,24.68,13.15,33.29,24.72C633.11,1116.19,627.63,1121.17,624.76,1118.31Zm-42.5-6.53c-2.29-2.64-9-6.28-4.72-9.82,3.19-2.62,9.06,2.18,12.72,5.24,7.43,6.21,14.44,12.92,21.42,19.63,3.29,4.12,2.77,5.87-2.84,7.5C598.52,1128.42,589.88,1120.56,582.26,1111.78Zm26.07-116.69c-1.62,2.37-3.93,4.27-7.21,2.55-18.35-9.62-36.71-19.23-55-29-1-.53-1.25-2.43-1.84-3.69l6.17-2.67a239.27,239.27,0,0,1,55.33,28.55C607.29,991.81,610.08,992.53,608.33,995.09Zm-23.75,23.32c-3.91-3.79-41.6-19.89-33.14-24.61,9.35.84,46.7,14.88,39.35,26.38C588.27,1022.89,586.55,1019.56,584.58,1018.41ZM568,1131c3.16-11.38,15.5,5.22,18.76,9.27,1,1.35,1.2,4.59-5.1,3.32C577.47,1141.3,572.36,1136.59,568,1131Zm.93,177.91c4,16.66,10.34,33.06,11.94,50a8.16,8.16,0,0,0,3.07,4.27c.2.14-.19,1.07-.31,1.63-9.41-1.75-13.65-19-16.66-27.19-2.75-9.9-5.47-19.8-8-29.76-.87-3.45-3.09-1-3.66-.65-3.42,1.93-9.73,5.12-9.39,6.38,4.69,21.29,14.19,42.31,17.72,63.51-9.32,11.86-23.2-49.94-25.79-54.79-5.49,26.14-16.15,51.5-18.63,77.81.06,2.68-.55,4.81-4.44,4.23-4.86-.72-4-8.68-3.82-13.82.93-21.68,7.6-42.14,12.73-63,7.77-30,38.51-34.62,63.45-43,7.63-1.41,7,4.91,7.38,7.38,2.51,15,4.87,30,9.53,44.46,1.29,4.94,3.94,7.68,2.66,13.35-12.26-14-18.39-31.77-23.71-49-.85-2.71-2.47-5.82-3.76-5.13C573.38,1298.56,565.79,1299,568.92,1309Zm-10.76-287.31c7.93,4,20.3,7,20.12,19.3-1.58,0-3.52.57-4.7-.13-12.49-8-26.35-14.63-37.93-23.78C544.77,1012.2,552.8,1017.86,558.16,1021.64Zm13.19,136.19c.42,1.39-2.2,6.1-3.39,4.87-3.55-4.33-14.35-8.37-12.25-15.09C563,1148.63,569.19,1150.76,571.35,1157.83Zm-39.84-125.3c14,.61,22.62,9.33,32.29,15.86,2.4,1.63,1.83,4.78.36,7.22-1.8,3-3.29.34-4.7-.5-10.65-6.51-23.29-10.79-31.48-20.72Zm-6.33,20.79c8.23,4.33,18.39,9.75,26.71,18,.32,4.82-7.64,5.29-10.44,3.17C537.06,1071,501.82,1051.5,525.18,1053.32Zm-2.35,38.56c.21.74-2.22,3-2.39,2.95-5.12-3.15-11-5.32-14.36-10.73,0-.09,2-1.42,2.88-2C515,1084.21,521,1085.28,522.83,1091.88ZM522,953.63c-3.22,4.87-4.43,3.2-9.47,1.32-3.81-5.45-66-23.52-35.82-24.55C482.81,931.85,526.51,945.57,522,953.63Zm-46.08,2.53c13.09,3.75,26.56,7.46,36.33,18.7,3.41,3.21-1.53,6.87-4.47,5.78C497.05,972.17,484,968.38,472,962.52c-1.92-.94-5-3.7-4.72-4.28C469.06,954.59,472.59,957.92,475.9,956.16Zm28.85,154.35c-3.51,7.07-10.81-1.13-15.58-3l7.08-2.87C500.46,1105.5,503.52,1107.05,504.75,1110.51Zm-31.6-128c10.32,3.67,23.05,4,30.31,15.84,1,1.68,1.9,1.95-.19,3.33-1.46,1-1.62,3.39-4.52,1.84C494.79,1000.05,449.2,982.79,473.15,982.48Zm-1.9,23c6.61,3,18.08,3.36,23.69,14.22.55,1.06,2.21,2.67-.06,3.73-1.36.63-3.27,1.6-4.33,1.12-8.5-3.89-16.93-7.95-25.21-12.29C458.06,1007.69,462.15,1003.3,471.25,1005.48Zm-14.53,22.24c8.43,1.51,26.69,5.89,21.88,16.48-7.51,3.09-16.13-6.26-23-9.15C449.05,1032.53,452,1029.55,456.72,1027.72Zm-10.59,31c5.18.79,10.78,1.9,12.52,7.42.83,2.64-4.41,3.09-5.75,2.62-4.57-1.58-10.09-3.18-11.54-8.36C440.6,1057.71,444.47,1059.78,446.13,1058.71Zm-.47-129c.06.26-2.79,1.21-4.5,1.93-7.19-3-63.52-18.49-60-24.24,1.34-3.13,4.59-3.05,7.39-2.22,8.31,2.47,16.61,5,24.82,7.77,9.49,3.19,18.87,6.73,28.34,10C445.1,924.15,445,927.19,445.66,929.76Zm-17.29,156c.34-7.12,16.26-.07,16.38,4.61.53,3.67-.32,5.7-2.21,4.54C437.72,1092,430.2,1092.68,428.37,1085.76Zm-44.57-153c2-3.27,5-.59,7.63-.53,14.64.36,27.52,7.32,41.16,11.38,1.92.57,3.17,3.42,5.21,5.78-2.06,1.41-4.09,3.81-5.21,3.44C423.51,948.66,385.8,940.11,383.8,932.79Zm42.63,46c-10.76-4.09-21.32-8.68-31.92-13.16-2.13-.9-5.89-1-5.2-4.08.73-3.28,4.37-2.77,9.69-2.4,9.71,3.58,27.55,3.84,33.66,17.55C430.56,977.49,428,979.42,426.43,978.82Zm-7.6,22c-9.2-3.11-18.21-6.82-27.15-10.64-2.12-.91-5.7-1.65-4.64-5.35,1.18-4.1,5.8-2.61,7.57-2.39,7.69,1,32.52,7.36,32.06,16.62C425.47,1003.86,420.93,1001.54,418.83,1000.84ZM385.09,1008a21.22,21.22,0,0,1,3.69-2.78c11.37,2.89,22,6.11,29.91,14.38,4.94,3.27,1.15,7.11-3.73,5.44C410,1021.74,384.53,1012.71,385.09,1008Zm-5.89,36.61c22.92-11.17,23.62,10.07,13.81,6.53C388.12,1049.73,382.44,1049.82,379.2,1044.64ZM296.67,901.12a32.38,32.38,0,0,0-5.26,2.2c10.19,17.76,32.57,3.24,38.72,13.09,1.33,5.9-6.85.89-10.22,4.16-3.12,3-11.87-2.87-12.44,3.21-1.22,19.33,30.93,12.88,41,22.42-10.1,7.23-22.47-.63-33.27-2.13.5,4.37-2.12,9.47,2.59,12.87,10,7.82,22.3,9.31,34.07,12.73-6.63,6.22-17,3.53-24.73.72-3.3-1.48-6.6-5.63-10-3.54-4.42,2.75-1.51,8.68-2.55,13.09,7.62,9.06,25.29,14.63,35.85,21.42.51.28.4,1.7.58,2.58-17.74,3.37-36.47-11.8-49.91-22.21-4.85-4.24-.37-9.73-2.22-13.35.69-14.26-3.06-26.58-8.07-38.62-1.52-5.13-9.6,6.48-13.3,5-12.63-1.22-5.52,5.82-4.07,9.54s4.41,6.76,6.44,10.27c8.66,6.38,1.3,7.05-5.16,3.1C259.86,947,254.53,930.39,249,914.24c-10.71-28.18,9.48-23.6,26.41-21.39,7,.34,14.12,0,21.18.11,2.53,0,6.11-.84,6.23,3C303,899.57,299.7,900.41,296.67,901.12Zm-.29,279.05c.79,5.56,13.56,27.47-.68,16.92-9.91-12.15-12-27.19-17.26-41.61C284.53,1142,294.51,1175.56,296.38,1180.17ZM271,1189.49c1.36,3.57,2.9,7.11,4.56,10.66-2.21,8.08-10.95.53-11.78-3.45-3-6.93-13.28-29.56-2.59-33.46,4.24-.9,4.42,3.67,4.63,5.62A82.05,82.05,0,0,0,271,1189.49ZM253.2,795.4c1.68,19.52-14.44,35.83-28.57,47.68-3.53,2.9-8.72,7.47-13,2.44-2.17-3.1,1.5-4.37,3.18-5.66,13.78-10.59,23.48-24.67,32.2-39.48C248.29,798.25,251.11,797,253.2,795.4Zm-22.15,399.15c-.76-3.8-5.39-17.78.57-18.29,3.77-.48,4.64,3.67,5.21,6.08a88.45,88.45,0,0,0,9.52,24.9,11.54,11.54,0,0,1,2.39,7.48c0,.2-1.52.52-2.55.86C236.39,1213,233.9,1203.06,231.05,1194.55Zm1.18-417c1.43-2.79,4.18-4.89,6.32-7.32.69,1.24,1.39,2.48,1.9,3.38-5,23.22-19.9,41.77-37.6,56.31-4.26,2.37-17.84,14.93-21.74,9.88-1-1.51-2-3.35.9-5.3A150.42,150.42,0,0,0,232.23,777.58ZM221,1236.16c-9.86-10.83-15-23.15-14.23-38.33,1.44-6.09,8.09-1.53,7.7,2.24.53,12.61,8.66,21.66,13.71,32.28C231.66,1238.48,224.51,1241.78,221,1236.16Zm-8.11-468.92c-1,19-23.77,48.38-44.66,53.93-7.1-4.35,5.18-8.66,7.78-11.63,14.36-11.52,23.22-27.37,31.22-44,1-2,2.08-5.79,5.54-4.56C217,762.47,212.94,765.15,212.93,767.24Zm-7.33,491.19c-4.35-5.1-22.56-40-14.76-43.45,4-1,5.72,1,6.67,3.42a110.62,110.62,0,0,0,14.08,31.66c2.8,4.39,6,7.63,6.95,13.15-.63,1-1.24,2-1.84,3C212.9,1263.61,208.09,1262,205.6,1258.43Zm-8.49,16.34c2.21,4.09,6.53,7.35,6.78,12.18-8.3,4.78-32.57-30.26-22.66-33.26C188,1259.06,191.68,1268,197.11,1274.77ZM75.33,333.17c2.22-4.64,1.69-13.89,6.48-13.38,39.42,5.73,81.65-15.79,87-56.55,2.67-5.82-4-15,.61-16.22,18.27-4.79,32.32-14,42.13-30.56,1.83-3.11.55-10.89,10.24-10.12,40.43,9.41,72.13-19.86,63.67-61.47-1-3.48,6-1.16,7.87-1.44C310,145.79,321.68,161,336,169c35.75,25.58,116.31,47.63,129.34-13.64.35-4.14,1.45-11.42,3.21-11.74,17.18-3.14,30.83-10,35.73-29.58,3.54,23,14.64,36,35.23,45.47,5.13,2.37,14.12.72,15.22,8.19,3.26,22.25,31.29,38.56,52.17,30,11.63-4.74,23.72-6.77,36.13-2,37.74,17.46,75.62-22.75,56.21-58.87-3-7,.46-10,4.33-13.61,1.66-1.44,4.11-4,5.56-3.62,49.22,28.81,118.43,8.82,149-38C876.86,122,932.49,155.44,976,134.89c2.67-.46,2.71-4.93,0-6-2.19-1-5.53.16-7.31.73-32.19,7.73-63.4-9.54-86.81-30.48-28.35-22.89-4.78-56.14-9-85.92-9.58-29.06-9.79,24.08-11.57,30.59-2.88,22.86-13.3,40.79-31.18,54.32-30.78,23.3-64.9,32.95-102.6,20.18-6.89-1.13-19.91.52-14-12.17,1.63-4-1.5-16.52,11.31-10.56,12.41,5.78,25.53,5.85,38.13.78C795.54,83.43,826.26,52,827,15.15c0-2.66-.18-6.42-3.22-6.33-2.87,0-4.13,3.25-4.59,5.85-7.07,43.3-57.47,94.14-102.32,66.84-10.08-7.22-10.19,26.76-28.09,41.71C660.64,151,621.31,161.7,582.43,158.13c-14.86-1.29-29.43-4.07-42.86-9.82-31.89-11.09-37-80.31,7.95-72,7.75,2,14.72,13,26.61.41,20.65-31.56,102.27-10.16,71.81,28.49-9.43,8.29-33.81,16.9-42.17,4.8-4.14-6.77-1.16-15.15,5.81-20.67,2.52-2,8.82-2.24,5.16-7.36-2.76-3.87-7.26-1.13-10.18,1.1-9.26,7-14.83,15.81-11.65,28.16,5.14,19.57,29.66,17.53,44.77,11.91,75.14-32.95-20.25-102.37-64.15-61.88-3.57,2.72-7,9.6-13.11,6.85-17.11-7.72-32.32-4.6-46.93,6.74-10.3-37.2-57-48.9-82.58-20.66-13.4,15.11-6.08,4.37-29-1.72-30.48-8.9-58.89,19.74-54.83,48.64.46,3.21-.89,4.67-2.8,5.48-24,7.86-47.36-21.35-41.22-44.67,4.78-12.1,2.87-59.29-13.71-58.48-2.7,1.19-2.25,4.41-.69,7.6,12.83,26.23,8.1,61-19.54,74.45-20.89,15-23.74-2.08-44.07-.62-2.36.24-2.42-1.35-1.54-2.88,12.91-22.86,19.81-66.16-7.39-80.5-13.32,1.56,13.64,16.84,7.2,46.48a100.1,100.1,0,0,1-14.43,39.39c-4.8,7.76-12,4.1-18.3,3.38-2.61-.3-7-2-7.22-3.49-2.63-20.73-18.16-28.39-34.86-34-20.95-7-32.94-2.48-45.8,15.49-1.71,2.38-3.89,2.29-6.19,2.12-14.11-1-27.16,3.2-39.4,9.25C-6.25,108.25-3.27,233.44,82.51,214c4.47-1.25,9.95-11,16.74-.4,26.79,46.79,64.21,21.66,61.57,49.51C152.54,314.49,43.45,331,57.1,267.83c3.7-9.4,8-20.47,20.15-18.24,10.92,2,15.42,11.37,13.24,23-.25,1.33,1.24,4.26,1.8,4.22,2-.11,5-.55,5.92-2,8.79-13-2-34-17.49-35.95-39.63-.81-49.84,56.9-16,73.9,4,2.17,6.22,4.49,4.43,9.64C60.85,346,36.42,373.33,9.13,362.62c-2.29-1-4.2-3.38-6.72,0-2.5,3-.52,5.32,2.46,6.75C32.65,386.54,64.34,358.15,75.33,333.17Zm490.61-166c38,5.66,81.09,4.48,111.63-21.65,3.62-3.64,8.39-7.34,13.18-8.29,4.19-.83,3.53,5.86,3.78,8.22,5.47,40.66-24.68,51.17-58.84,38-26-4.44-54.58,20.61-70.8-13.82C564.38,168.28,562.82,166.6,565.94,167.2ZM393.2,62.37c33.15,2.77,27.24,28.76,36.81,28.35,4.19-1,3.27-5,3-8-.6-5.58-9-11.3-4.17-15.73,26.86-34.22,86.33-17.46,70.62,31.8-2.92,9.59-5.23,19-12.88,25.68-29.44,26.53-50.11-21.48-85.86-4C348.14,137.93,342.11,64,393.2,62.37ZM291.35,80c1.77-1.93,3,1.09,3.52,2.43,4.26,24.66,29.45,40.18,52.35,32.9,7.36-2.29,7.17,5,10.06,7.76,28.4,27,58-10.53,87.46,14.76,4.29,3,14.25.26,12.11,10.35-8.91,52.18-78.94,36.77-110,14.65C330,151.22,315.7,135,294.38,135.79c-19.39-4.1-16.32-27.66-33.31-35.94C274.05,96.15,284.18,90.32,291.35,80ZM147.79,236.61c-43.53-6.24-36.73-52.57-56.45-38C61.4,217,24.6,197,23.15,162.27c-4.82-43.16,32.28-91.1,79-78.44,5.53,1.75,7.29-5.77,9.68-10.62,6.43-13.08,28-15.51,41.7-7C164.6,73,174.77,78.67,173.46,94.32,175,109.84,201,88.9,212.24,118.24c4.27,10.81.77,21.82-10.23,29.87-12.65,9.26-25,18.6-40.64,8.56-8-5.13-10.24-2.37-15.08,3.8C135.63,174.08,119.67,174.19,109,162c-14-23,5.67-59.44,33.86-37.86,2.56,2.16,3.72-.32,5-1.2,2.68-1.82.68-3.7-.64-5.34-8.69-10.9-27.76-11.46-40.11-2-15.36,11.73-14.59,38-6.83,51.42,10.86,18.73,33.61,18.37,48.26,4.75,5.67-5.26,9.27-4.87,15.7-2.91,19.66,6,45.23-8.11,55.21-26.54,10.19-18.12.35-29.88-8.17-44,32.89-14,63.47,23.8,65.49,54,6,32.3-30.81,54.31-59.47,41.21C200.23,184.88,210.35,244.18,147.79,236.61Z"/></g></g><g id="Red_Japanese_Frames" data-name="Red Japanese Frames"><path class="cls-7" d="M0,20V1580a20,20,0,0,0,20,20H956a20,20,0,0,0,20-20V20A20,20,0,0,0,956,0H20A20,20,0,0,0,0,20ZM924,1548H52V52H924Z"/><path class="cls-8" d="M952.1,15.41,928.69,38.83A4,4,0,0,1,925.86,40H50.14a4,4,0,0,1-2.83-1.17L23.9,15.41A2,2,0,0,1,25.31,12H950.69A2,2,0,0,1,952.1,15.41ZM40,1549.86V50.14a4,4,0,0,0-1.17-2.83L15.41,23.9A2,2,0,0,0,12,25.31V1574.69a2,2,0,0,0,3.41,1.41l23.42-23.41A4,4,0,0,0,40,1549.86ZM936,50.14V1549.86a4,4,0,0,0,1.17,2.83l23.42,23.41a2,2,0,0,0,3.41-1.41V25.31a2,2,0,0,0-3.41-1.41L937.17,47.31A4,4,0,0,0,936,50.14ZM925.86,1560H50.14a4,4,0,0,0-2.83,1.17l-20,20a4,4,0,0,0,2.83,6.83H950.69a2,2,0,0,0,1.41-3.41l-23.41-23.42A4,4,0,0,0,925.86,1560Z"/></g></svg>