<svg xmlns="http://www.w3.org/2000/svg" xmlns:xlink="http://www.w3.org/1999/xlink" viewBox="0 0 976 1600"><defs><style>.cls-1{fill:none;}.cls-2{fill:#f4f3ef;}.cls-3{clip-path:url(#clip-path);}.cls-4{fill:#50b271;}.cls-5{fill:#ffb85a;}.cls-6{fill:#997664;}.cls-7{fill:#592116;}.cls-8{fill:#992d17;}</style><clipPath id="clip-path"><path class="cls-1" d="M960,22V1578a6,6,0,0,1-6,6H22a6,6,0,0,1-6-6V22a6,6,0,0,1,6-6H954A6,6,0,0,1,960,22Z"/></clipPath></defs><g id="Paper_Backing" data-name="Paper Backing"><path class="cls-2" d="M960,22V1578a6,6,0,0,1-6,6H22a6,6,0,0,1-6-6V22a6,6,0,0,1,6-6H954A6,6,0,0,1,960,22Z"/></g><g id="Wikipedia_Cropped" data-name="Wikipedia Cropped"><g class="cls-3"><path class="cls-4" d="M760.33,1604c-9.3-2.38.15-9,.73-13.74-.29-12.37.06-26,1-37.93-11.54-25.32,14.44-39.09,30-53.53,10.53-11.21,25.14-17.68,34.83-28,1-1.73,68.31-69,68.42-69.09,27.58-30.42,53.73-63.94,80.71-95.27,9.41.56,1.51,63.69,3.75,68.32.57,38.28,0,86.63.25,125.19.13,23.76-.1,75.86,0,100C980.83,1611.14,764.31,1600.37,760.33,1604Zm-515.47,0c-12-17.16-135.08,10.86-81.42-35.53,5.36-4.61,3.11-11.68,8.23-18,3.46-9.15,11.33-12.75,13.62-23.64,16.61-18,21.89-40.18,36.42-59.46,7.1-14.49,11.53-32.16,23.35-45.06a6,6,0,0,0,2.58-6.74c-1.14-5.23,5-9.07,6.35-14.6,3.27-9,12.77-15.48,12.42-25.5,6.29-7.73,5.2-19.09,14.81-25.86a6,6,0,0,0,2.38-6.1c-4.45-12.81,27.55-43,9.55-47.73-8.25,2.06-10.43,13.64-15.69,19.81-2.82,3.55-9.61,1-9.93,7.28.2,17.71-14.26,24.79-23.85,33.47-5.16,28.67-22.3,36.52-34.26,58.58-11.3,11.79-14.54,30.59-29.35,39.67-30,43.82-53.76,110.58-43,3.93,8.93-130.15,8.93-255.39,2.43-385-1.78-40-4.12-85.85.41-122.55-12.67-20.78,2.54-41.94-6.38-63.63-25.18-136.57-28,371.19-33.77,382.26,6.31,64.73,2,131.8-1,196.66.93,71,9.86,81.26-48.93,25.48-17.13-11.23-29.49-37.12-49.77-39.12a4,4,0,0,1-4-4c-.66-71.87.52-197.62,0-271.15-3.46-125-.42-265.15,72.38-371.61,61-79.92,32.63-3.64,60.69-20.39,16.19-74.66,86.26,97.76,92.49,122,24.87,76.57,38.2,156.94,48.87,235.79,3.56,25.12,4.15,48.83,7.83,73.28,7.51,16,23.57-12.87,35.1-14.46,11.38-1.65,2.41,17,5,24,11.71,19.58,41.3-29.48,44.69-37.37,55.55-20.81,43.44,34.88,90.74,40.27,21.66-7.33-37.92-61.3,44.9-9.22,18.83-1.5,5.52-33.75,10.55-58.16,1.93-15.66,1.47-34.83,2.34-51.58,4.89-88.45,13.2-177.93,25.77-265.31C558.77,713.57,583,579.2,651.26,464.48c17.55-29.64,39.17-57.41,67.22-76.23,10.29,4.4,6.79,27.27,18.71,30.33,13.21-2,11-31.27,24.3-31.75,69.81,56.6,100.17,157.1,128,241.36C940.39,804.75,964,988.55,980,1174.9c-3.91,2.49,6.59,111.52-4,108.42-14-2.06-22.49,15.81-32.76,23-7,9.74-18.2,18.11-25.22,28.66-7.19,6-12.48,3.59-14.9,13.33-4.65,9.21-27.32,31.8-33,34.68-10.08,12.22-20.8,25.13-35.34,32.89-8.45,11.68-21.5,20.77-33.22,29.75-6.37,6.94-46.5,49.83-47,26.75,2.58-169,1.91-331.8-.57-499.23v0c-.82-41.71-5.77-78.49-1.57-118.23-1-17.66-5.68-35.74,1.33-53a6,6,0,0,0-.93-7.45c-5.64-5.76-1.27-14.26-2.18-20.17-6.69-13.18,4.12-26.9-.31-38.09-1.45-18.48-4-41.53.86-59.33,3.22-5.2-5.53-8.5-3.57-13.4,2.41-43.6-3.85-88.44-4.33-131.82,1.85-17.86-6.17-35,.79-50.52.87-5.31-3.09-12.71-8.52-13.52-9.93,3.25-10.67,19.16-8.62,28-1.54,16.15-5,31.21-7.12,47.12,4.31,11-.5,26.1-3.07,38.27,1.35,10.25,1.34,21.16-1.62,32.08,1,26.13-3.57,52.27-2.36,77.2,3,18.23-1.9,36.29-4.36,52.6,5.75,14.24,2.42,35.77,1.09,51.48,1,19.89,2.4,42,1.52,63.08-3.08,17.43-.66,36.57-.57,55.16-5.7,7.19-.87,11.59-1.25,20.28-1.62,36.72-2.17,69.45-3.11,106.95,2.24,17.16-1.66,40.25-3.2,55.36,4.29,16.16,3,35.73,1,51.82.37,18.58.32,40.75-2.32,59.23,7.2,10.17-3.75,26.33,1,37.94,1.23,4.16-4.94,7-1.79,11.34,4.43,10.09-4.15,24.37,1.44,34.53,2.39,4.75-3.11,11.21-5.31,15.32,10.41,34.65,2.39,78.82,4.93,116.43-2.5,23.93,12.27,65.28-21.58,26.36-8.51-8.5-17.46-18-27.8-25.88-6.8-2.29-6.53-12.56-13.74-14.2-37.15-34.41-72-73.89-107.06-108.56-10.87-14.12-25.66-23.1-32.79-39.86-2.69-3.68-13.08-9.38-17.55-6.19-5.78,6.71,2.05,17.3,8,21.35,9.06,9.37,12.49,24.83,22.48,32.83,23.07,30.28,42.76,61.58,69.88,87.85,7.68,5.09,7.87,15.84,13.81,21,8.89,4.16,18,14.79,24.07,23.15,12.48,11.37,27.12,24.64,35.65,38,9.75,2.83,19.85,17.07,25.36,26.28,2.34,7.7,14.5,8.32,14.68,17.64.58,25.46-5.41,47-.4,72.08C719.18,1620.91,245,1595.66,244.86,1604ZM0,1604c-7.32.1-2.82-17-4-20.93,3.51-.11-9.56-130.19,10.67-96.44C96,1620,164.64,1604,0,1604Z"/><path class="cls-5" d="M321.77,1232.66c-13.42-15.47,4.07-54.4,12.78-65.52,10-19.76,41.27-8.09,30.25,15.17C357.19,1203.72,341.89,1224,321.77,1232.66Zm129.32-4c-57.8-11.67-57.29-96.59-16.26-52.63C439.07,1187.82,473.24,1223.84,451.09,1228.69ZM122.87,792.27C99.36,776.6,91,700.68,127,696,153.85,698.67,140.89,786,122.87,792.27ZM735.71,415.81c-19.27-10.9-29.72-86.45,6.86-88.61C777,338,759.9,400.79,735.71,415.81Z"/><path class="cls-6" d="M695.36,1604c-7.13-1.39-2-6.72-1.44-11-3.44-32.23,11.39-69.61-16.34-94-60.73-66.44-125.65-129.77-175.86-205.15-4-8.15-49-61.4-19.59-47.78,69.67,73.92,137.28,152.24,215.84,215.34,15.18-7.74.9-51.5,5.65-68.67,0-.1,1.71-254,1.7-254.13,0-94.21,4.35-185.36,8.55-279.87,0-94.45,1.72-187.86,8.77-282.1,1-37.36,2.08-75.88,6.51-113.08-.25-1.33,2.47-7.18,6.38-6.47,11.66,4,4.28,38.06,7.34,49.82,2,71.58,5.68,142.87,4.18,214.57,6.17,179,5.19,356.08,8.08,533.88,9.3,73.43-8.13,153.18,2.9,224.27,80.43-52,151.33-136.76,215.35-204.37,11.62-3.49,5,22.12,6.62,26.85-.47,4.57-7,4.72-8.4,9.27-47.39,59.17-97.2,115.54-154.06,166-13.65,20.08-61.78,35.42-60.45,57C756,1625.48,791.73,1600.53,695.36,1604Zm-599.48,0c-4.51-.08-4.12-5.25-4-8.47-13.24-19.84-30.12-40.72-46.67-59-16.86-13.31-24.76-41.35-45.21-47.35-8.32,1.62-2.22-37.37-4-40.52,4.61-11.74,12.64,3,16.48,7.33,119,113.83,76.41,82.91,88.15-64.9-1.86-147.37,6.59-294.5,11.2-441.66,25.51-370.83,33.68,294.11,31.31,361.88-12.51,290.1-19.92,215.75,121.3,23,9.53-14.45,50.4-80.9,27.25-17-41.2,99.74-91.92,188.36-148.08,278.5C147.46,1611.52,102.11,1601.19,95.88,1604Z"/><path class="cls-7" d="M982,1418.67c-.47,10.78-76.31-4.43-86-7.61-6.71-2.08-8.37,5-12,8-6.87,5.7-13.07,12.2-19.91,18.73,35.68,11.85,71,16.23,107.09,15.23,12.69,1.09-2.55,9.16-7.43,7.72-33.79-.75-68.75-.68-100.15-14.94-2.65-1.18-5-1.42-7.51,1.1-7.52,7.61-15.36,14.91-23,22.43-.86.85-4.4,2.38-.29,3.52,44.2,12.16,89.57,25.47,135.56,24.29,2.59-1.22,6.74-.75,8.51,2.33-23.28,17-115.1-9.14-143-19.11-10.75-3.9-15,1.69-20.9,6.25-8.82,6.79-17.12,14.26-26.23,22,42.26,21.55,90.36,27.74,136.89,28.66,17.44,3.75,36.19-3.66,53.18,2-11.08,13.54-55.14,6.66-73.34,7.66a284.14,284.14,0,0,1-67.3-11.57c-16-6-35.22-5.13-48.35-17-2.2-1.58-5.85-4.86-6.48-4.37-14.27,8.59-22,20.65-15.6,36.86,18,19.82,69.13,15.46,95.18,22.68,34.75,5.9,68.78,1.53,102.61-6.15,3.53-.58,9.2-2.74,10.56,2-4.62,12.15-85,18.09-99.62,15.44-24.1-2.12-47.86-7.8-71.86-11.3-13.23-1.94-25.9-4.8-37.57-13.41,0,10.25,0,20,0,29.74.07,3.86,1.08,9.16-4.72,9.12s-4.78-6.78-4.92-9.37c-.95-18.21-.36-36.46-2.29-54.68-1.09-10.33,2.3-17.42,13.5-23,46.28-28.35,83-71,121.39-109,28.71-29.59,54.3-62.11,80.52-93.9,2.38-2.93,5.13-8.88,9.16-6,3.68,2.56.6,5.39-1.69,7.57-13.21,18-26.7,35.84-41.79,52.37-6.59,6.86,32.14,4.73,36.38,6.06,3.27.21,7.94-.85,8.13,3.94-.76,8.69-42.17,2.57-49.44.88-8.78-2-9.43,8.92-15,12.78-5.78,4-10,10.22-15,15.53,24.35,9.39,51.05,9.59,76.73,12.62C978.57,1414.67,983.32,1415.32,982,1418.67Zm-227.74,66.12c-5.64-1.57-3.53-7.47-3.56-11.16-.22-23.6-1.39-47.36.85-70.77,6.76-81.37-4.16-162.49-2.64-243.92,4.4-150.15-4.51-300.16-5.93-450.26-.39-36.71.66-73.46-.18-110.15-1.67-30.48-4.86-60.87-3.91-91.45-.38-14.2-1.23-28.4-1.92-42.59-.07-1.48.61-3.82-2.18-3.26-.72.14-1.56,1.75-1.64,2.74-2,22.42-4.25,44.82-5.57,67.28-.91,15.29,1,30.87-1,46-1.75,49.45-7.92,98.44-7.53,147.92q.81,130.93-7.39,261.52c-1.14,152-9,304.52-2.95,456.35.67,7.4.14,25.09-8.6,25.72-24-15.88-44.24-39.17-66.34-58.08-52-53.4-105-106.11-154.62-161.83-.77-.85-2.63-1.86-3.24-1.5-2.12,1.25.38,1.61.83,2.29,55.13,89.47,127.31,165.72,199.16,241.64,24.44,24.93,22.17,29.21,22.33,62.15,1.6,9-2.83,17.32-.48,26.29,1.43,5.45.23,11.66-.23,17.49-.11,1.37-2.19,2.64-3.18,3.81-6.24-7.82-4.58-20.11-5.18-29.65.36-7.32-1.81-8.69-8-6.15-63.63,23.15-134.1,19-196.95-3.93-3.73-1.41-7.57-2.51-11.4-3.62-9.14-4.46-4.66-10.59,2.9-6.28,74.63,23.28,137.54,26.72,212.57,3.25,5.26-1.46,2-7.56,1.88-11-.27-11,6.68-24.67-7-30.67-6.32-2.89-12.48,4.81-19,7.1-16.31,5.72-33.45,7-50,11.06a303.5,303.5,0,0,1-118.86-1.66c-4.83-2.38-33.94-5.78-31.27-11.31,1.26-2.86,4.74-1.57,7.25-1.12,30.43,5.77,62.24,13,93.14,10.2,36.68-3,73.33-9,108.75-20.22,9.37-2.56-4.21-9.31-5.52-13.81-8.44-13.71-18.06-15.1-32.66-7.54-11.1,5.75-24.7,7.37-37.43,9.12-44.62,6.72-90.05,4.69-134.29-3.86-7.42-2.37-19.54-2.93-23.83-9.77,1.2-.74,2.53-2.26,3.59-2.09,18.49,3,36.94,6.2,55.41,9.33,21.44,1.28,43.1.8,64.58.38,25.61-1,50.41-6.33,75.31-12.94,16.77-4.44,4.13-7.5,1.38-10.82a148.28,148.28,0,0,0-15.19-15.81c-5.13-4.57-9.94,1.07-13.81,2.67-13.9,5.73-28.48,7.06-42.94,8-46.15,3.77-93,1-136.9-14.73a3.57,3.57,0,0,1-2.57-4.6c.11-.47,2.82-.64,4.22-.36,59.91,11.87,124.42,19.12,183.26.4-1.47-3.86-5.81-5.13-8.1-8-15.31-24.9-36.14-9.19-55.2-8-10.61.64-21.08,3.22-31.95,1.61-34.76-3.39-71.09-5.22-102.76-21.22-1.76-.73-5.33-1-4.13-3.5,1.06-2.19,4.27-3.47,7.42-2.24,23.41,9.13,47.36,15.13,72.76,16,31.35,3.42,63.06-.51,94-5-15.68-21.16-17-29.25-44-23.9-14.92,1.51-30,1-45.12-.13-24.85-2-48.8-8.43-72-17.16-2.61-.93-7.46-2.08-6.36-4.65,1.64-3.84,6.56-1.94,9.78-1a282.19,282.19,0,0,0,123.71,13.46c1.26-.1,6,1.6,3.14-2.61-6.23-9-13-17.64-19.9-26.14-3.08-3.81-6.14.88-9.34,1.11-18.14,2.73-115.76-7-118.41-24.87.69-1.1,4.29-1.22,6.17-.6C452.72,1336,491.65,1340.56,531,1341c-39.33-55.26-3.74-16.16-84.74-37.3-6.83-3.31-42.3-7-38.74-16.18,3.6-.18,7.53-1.13,10.77,0,26.61,9.09,55,15.88,83.21,14.35-2.88-5.72-13.94-28.22-20.81-26.62-12.76,4.13-24.34-1.76-36-4.54-11-2.6-21.25-7.9-32-11.39-3.25-1-4.24-3.06-5.47-5.47,2.49-.14,5.3-1.11,7.42-.3,20.62,7,42.06,14.71,63.92,15.13-3.8-10.51-10.47-20.11-16.59-29.36-5.48-7.41-15.37-6.88-23.16-10.15C425.25,1223.5,407.2,1206,401,1190c-9.68-19.8,12.21-42.74,29.13-25.23,14,13.65,25.05,29.93,30.63,48.58,5.22,17.42,21.48,24.44,31.1,37.5.47.64,1.76.67,2.67,1-.46-11.42-3.81-23.11-5.21-34.64-1.91-11-4.24-22-8.09-32.6-1.2-3.3,0-6.28,3.17-7.19s3.83,2.1,4.77,4.67c7.49,20.44,12.28,41.59,11.54,63.33.05,25.16,21.36,34,34,51.48,2.21-27-6.75-51-13.59-76-.58-2.49-1.16-6.48,2.27-7.21,16.3,12.27,20.86,70,20,90.89-.12,3.15,5,6.66,7.92,9.74,6.72,7,13.61,13.93,21.67,22.15,1-32.48-1.92-61.71-11.88-91.89-1.23-2.68,1.26-4.35,3.2-5.25,2.2-1,2.31,1.22,3.08,2.7,13.33,25.46,13.73,53,13.92,80.8.07,9.92-6,22,6,29.07,8.93,5.3,12.94,15,21.17,20.2,5.75-30.12.43-61.6-5.05-91.87-.37-1.27,2-3.34,3.12-5,17.47,16.29,13.26,78.62,8.92,101.43-.87,7.65,8.34,9.21,11.89,14.59A66.59,66.59,0,0,0,641,1404.83c.57-1.07,1.7-2.19,1.61-3.2-1.42-17.15,2.38-34.08,1.14-51.44.5-7.21-8.21-46.76-.24-47,4.89.34,4.89,6,5.2,8.94,2,19.52,6,39,4.24,58.72-1.21,13.46-3.64,26.83-4.3,40.29-.28,5.72,7,7.4,10.48,11.32,2.82,3.2,6.24,5.86,9.55,8.91,4.55-21.59,4.67-44.85,5.93-67.12.36-13.35-5.09-27-2.61-40.16.17-.52,2.26-1.06,2.4-.85,2,2.94,5,5.83,5.49,9.06,6,34.22,3,69.19-3.71,103.11-1,5,4.46,8.12,7.15,10,5.89,4.18,10,9.74,15.61,16.13-1.81-43.35-1-85.25-1.84-128.34,6.64-23.84-11-28.61-26.68-35.71-12.39-5.61-23.23-14-34.69-21.24-38.26-24.87-126-97.16-134.48-141,14.51,12.86,22.77,33.39,37,47.15,27.49,27,56.41,54.32,87.1,77.52,8,4.07,78.12,54.14,73.17,31.66-9-19.52,12.33-34.93-13.71-40.15-72.5-31.65-134-85-182.75-146.49-2.93-4-.44-12.54,4-5.23,21.39,26.27,44.26,50.39,70.85,71.66,35.2,31.6,76,55.45,118.81,75.21.71.33,2-.64,3.07-1-6.14-26.43,15.49-37.46-20-47.91-60.62-29.4-116.92-69.66-161.29-120.52-3-5.28-14.89-13.94-12.07-19.81,1.42-1.63,2.87.13,4,1.36,52.42,59.19,117.41,105.17,189.45,137.89.6-12.53,2.44-25.4,1.36-38-.68-7.85-10.73-6.76-16.54-9.24-44.39-20-81.87-51.62-120.34-80.78-8.19-6.37-62.81-55.45-56.85-62.68,4-3.68,4.56,2,6.4,3.91,42.74,46.89,95,83,147.9,117.59A149.56,149.56,0,0,0,699,1144.45c3.09.89,1.82-1.69,1.83-2.66.1-13.84,1.19-27.8-.4-41.45-.82-7.08-10.65-7.92-16.31-10.65-66.48-30.54-125.09-78-173.54-132.5-3.17-2.87,1.65-7.47,3.89-3.77,37.39,36.84,77.21,70.81,121.25,99.48,16.71,11.52,35.49,19.33,53.34,28.81,12,6.4,13,6.26,12.68-7.63-2.76-32.62,11.72-31.44-15.59-40.55-59.76-39.36-122.9-78.1-164.9-137.51-.81-1.26-4.14-2.89-1.47-4.71a4.82,4.82,0,0,1,6.3,1.21c18.44,24,39.6,45.24,64.4,62.75,35.93,28.25,72.23,55.09,112.42,76.79-4.85-32,15.07-49.55-21-64-20-8.87-37.4-21.17-54.7-34-31.87-23.37-63.94-47.6-87.15-80.06-2.42-4.86-13.62-13.13-9.49-18,1.6-2.17,2.35.11,3.2,1,2.53,2.79,5,5.61,7.53,8.44,43,52.15,99.54,91.1,158.43,123.22,2.11,1.28,5.52,2.52,5.3-3-.42-11-.74-22,.09-32.94.59-7.93-2-11.3-9.34-14.72-20.69-9.69-40.44-21.73-57.18-37.13-36.31-30.54-72-63.21-96.62-104.5-1.55-2.74-2.48-6.51.46-8,3.69-1.85,3.6,2.8,5.13,4.76,41.66,57.5,95.69,106.74,158.64,139.75,1.21-13.1-3.34-26.22.38-39.61.93-4.21-5-3.48-7.73-4.91C641.34,838,595.6,791.14,560.19,737.15c-3.24-5.42-12.54-14.16-6.78-20,24.59,30.66,47,65.38,77.93,91,22.14,19.46,46.67,36,71.86,51.19,2.93,1.91,3.78,2.05,3.76-1.8-.1-17,.51-34-.29-51-.32-6.77-8.58-6.5-13.18-9.33-46.24-28.93-90.74-63.1-122.8-107.64-2.56-5.12-13.87-12-8.11-17.59,3.18-2.63,3.51,1.26,4.84,2.65,15,15.73,26.12,34.91,43.24,48.68,30.82,24.21,60.76,50.42,95.6,68.67,1.8-10.61-1-21.74,1-32.23,2.14-13.11-4.13-19.18-14.75-24.6C652.3,712,617.19,680,586.74,645.26c-2.3-3.07-21.79-26.55-9.63-22.72C585.45,627.05,589,636,595,642.8A495.56,495.56,0,0,0,706.2,732.72c4.51-13.49,3-28.12,2.53-42.08-.76-8.81-10.57-7.52-15.94-11.12-12.43-8.34-24.54-16.89-35.61-27-12.11-11-72.69-60.39-66.83-74.71,2.27-2.54,3.46.64,4.06,1.5C600.63,593.08,701.94,687.18,709,674c1.24-19.09,7.87-26.82-13.33-35.42-30-25.52-60.6-52-84.19-83.67-2.47-5.41-15.58-18.49-7.67-22.43,3.26-3.62,8.46,12,10.94,14.12a139.55,139.55,0,0,0,27.19,31.93c21.3,18.18,39.21,40.36,63.72,54.79,1.93,1.14,4.09,2.27,5.28,5-.11-83.1,20.86-19.69-44.68-88.27-10.09-9.09-51.47-54.6-46.13-66.73,3-.91,4.74,1.9,5.94,3.91,20.86,32.9,48.17,62,78.89,85.93,1.32-1.9,2.76.66,4.19,3.13,6.73,12.24,5.46-12.85,6.93-15.69,6.54-17.56-6.82-24.68-17.27-32.66-18.32-16.33-35.18-34.89-48.22-55.48-4.15-6.82-8.14-13.73-12.86-20.18-.8-1.09-.35-3.1-.48-4.68,13.81.61,19.45,24.71,28.93,33.25,15.63,19,32.05,37.6,51.43,52.72,1.74-12.58,3.59-25.54,5.3-38.51.73-5.56-5.1-5.7-7.69-8.38-19.67-20.32-37.43-42.14-51-66.93-1.4-4.35-9.57-14.87-1.66-16.09,4.19-1.2,5.21,3,6.06,5.32a95.41,95.41,0,0,0,11.15,21.06c5.69,8.28,12.35,15.9,19,23.52,8,9.14,13.07,20.74,23.27,28,15.12-27.11-15.06-47.26-25-70.75-6.19-11.08-9.74-23.88-14-35.76.4-3.36-2.22-9.21,1.63-9.65,7.45-.84,6.86,7.73,7.83,11.62,7.47,25.08,21.3,45.23,36,66.94.07-12.79,2.37-23.14-3.6-35.57-11.25-23.48-16.1-49.24-3.93-74.72,10.31-20.31,40.27-11.06,42.91,9.66,6.43,30.11-6.7,54.89-21.25,79.61-2.31,3.92.22,10.63.33,16.05.22,11-.82,22,2.34,32.83,20-26.47,35.81-55,50.41-84.48,1.14-4.86,5-7.29,8.69-10.12,5.49,12-36.44,79.24-47.23,89.85-11.62,13.56-14.46,27.34-10.74,44.37,2,9.27.37,19.35.37,32.11,26.69-34.86,45.34-67.8,67-104.51,2.08-3,1.44-10,6.82-7.66,2.15,1,.5,8.58-1.83,12.73-19.69,36.3-38.42,73.11-67.09,103.41-7.07,7.32-2.24,18.2-2.52,27.42-.31,10.51,1.11,21.07,1.83,32.55,19.23-25.67,38.94-48.85,56.62-75.11,10-15.73,18.21-32.59,27.2-49,2.76-3.65,3.76-9.8,8.08-11.6.6,1.64,2.17,3.69,1.66,4.84-2.9,6.59-5.73,13.21-8.65,19.79-7.59,17.06-15.83,33.78-27.79,48.62-15.77,19.57-28.3,42.62-46.63,59.8-21.05,15.11-4,40-10.34,60.09.35,2.9,3.39,1.09,4.72,0,37.51-40.28,68.12-86.48,95.23-134.21,2.06-2.53,2.83-9.24,6.64-8,3.33,1.28,1.79,5.71.67,8a549.21,549.21,0,0,1-59.93,96C787.19,642.59,775,658.2,760.11,671.5c-6,5.36-8.86,13.52-7.61,23.23,1.61,12.42.39,25.21.39,38.48,30-35.27,61.18-66.91,85.18-106.12C849.83,608.84,858.44,589,868.71,570c1.4-2.58,3.07-6.84,5-5.65,9.58,11.66-37,82.86-47.07,95.27a615.49,615.49,0,0,1-55.37,62.83c-14,13.77-22.86,29.77-16.77,50.87,1.92,4.53-4.41,16.69,2.67,18.56,23.2-16.36,40.07-40.28,59.77-60.6,29.56-29.15,48.4-66.3,68.77-102,3-3.79,4.18-11.83,10.05-11.58,3.6,1.37-6.13,18.32-7.08,21.68a501.15,501.15,0,0,1-71.77,104c-17.79,19.65-36.87,38.19-56.22,56.32-12.18,11.6-3.87,37.36-5.08,52.82,59-46.37,103.85-108.49,146.48-169.64,3.57-3.47,10.22-21.48,15.26-17.41,5.11,2.41-11.55,25.58-13.64,29.81-42.33,58.82-86,118.2-143.41,163.3-10.5,6.51-5.16,47.64-4.56,60A586.68,586.68,0,0,0,875.2,786.46c14.58-23.1,30.79-45.18,46.37-67.63,1.57-2.25,4.66-3.77,6.82-2.34,3,2-.84,3.66-1.69,5q-6.09,9.86-12.19,19.7c-36.64,60.34-79,118.58-133.26,164.26-5.48,6-23.08,14.48-24.13,21.32.58,15.27-1.49,31,.89,46,45.08-37.08,85.5-81.13,120.58-128.16,15-21,27.57-44,44.42-63.39,1.79-4.93,5-8.28,10.66-9.1-32.92,63.45-79.28,119.46-130.27,169.31-57.83,59.46-43.81,8.7-44.65,88.75,41.31-32.52,78.31-64.6,111.84-104.18,20.08-23.45,38.78-48.13,54.81-74.7,3.12-4.11,11.09-16,16-16,.63,6-2.37,9.85-5.49,14.44-7.63,11.84-15.39,23.62-23.41,35.2-23.16,34.15-50.67,65.07-81,93-22.27,21.22-46.21,40.28-70.28,59.27-3.94,3.11-2.2,7.42-2.15,11.47.18,14,.07,27.92.07,42.34,81.06-46.75,135.25-123.27,183.47-201,1.75-1.82,2.42-8,5.55-6.34,1.8,1,2.54,2.64,1.11,5-37.52,65.68-77.42,131.47-139.35,177.09-56.3,47.62-51.86,6.91-49.81,81,.13,5.64,6.21-1.86,8.63-2.42,48-32.8,91.73-72.54,126.29-119.36,19.84-26.91,34.29-57.72,55.21-84,1.1-2.22,3-2.6,5.56-3,1.5,4.84-2.3,7.8-4.33,11.71-46.15,83-105.45,159.39-189.09,207.27-7.88,4.67-1.11,11-1.87,16.34-1.43,14.18-2.13,29.16-.67,43.39,80.83-48.64,133.4-130.28,192.18-201.85,3.28-4.67,9.28-2.17,3.48,2.76-35,56.93-78.46,109.23-126.26,155.84-20.24,18.3-41.07,35.89-64.85,49.63-5.92,3.42-6,10.22-4.88,15.26,3,10.23-4.54,28.28,1.71,35.92,41.35-27.84,81.83-62.91,117.13-99.84,33.58-30.63,51-74.31,82.35-106.28-34,85.27-109.28,149.09-181.5,203.45-8,5.76-18.76,9.19-19,21.38-.21,10.49,2.31,21.3.5,31.42-2.52,14.11,1.11,27.8-.28,41.89-1.81,36.45-2.6,74-.83,110.31,12.48-9.71,25.06-19.48,36.69-30.16,5.35-5-2.44-9.71-3.87-14.32-7-25.74-9.07-51.94-10.64-78.17-2-4-2.14-70,7.37-48.93.71,43.2-1.19,88.69,12.42,130,5,7.9,7.14-3,11.49-3.45,2.8-.31,4.94-4.59,7.88-6.06,8.19-4.09,6.21-10.56,3.93-16.54-15.3-43.42-13.62-89.83-5.65-134.43.35-2.44,1.89-6.12,5.3-5.42,4.31.89,1.35,3.86,1,6.24-7.21,45.49-5.59,92.35,8.31,136.58,13-7.08,22-19.21,32.21-29.66,1.4-1.43-2.26-8.15-3.46-12.42-5.48-19.53-6.93-39.31-8-59.45-.39-12-2.42-67,8.09-71,5.72-1-1,36.86.2,43.15,1.18,21.59,0,43.34,4.26,64.36,1.8,8.75,3.4,17.53,5.18,26.28a2.32,2.32,0,0,0,1.56,1.49c5.41.25,31.41-32,28.88-36.78-6.52-12.27-8.5-25.67-9-38.87-.89-23.7-1.92-47.53,2.73-71.12,1.35-6.8.1-14.13,3.6-20.54,1.37-2.51,1.3-8.32,5.68-5.91,3.49,1.92,1.73,7.42,1,11.09-3.15,14.91-4,29.95-3.71,45.12.58,24.73-2,49.85,6.46,73.54.62,2.44,2.22,5.2,5.55,1.16,6.6-8,12.92-16.63,20.92-23.06,9.31-7.49-.26-12.44-1.68-17.33-5.46-25-10-93.46,7.17-112.15,1.11,2.34,3.64,5.1,3.1,7-9.12,36.37-6.39,76,1.11,112.17,4.12-2.8,23.79-26.92,26.71-22.16,7.18,4-29.26,34.23-33,40.78-50.81,60.43-110.38,111.56-170.25,162.48C764.71,1484.77,759.66,1486.3,754.24,1484.79ZM454.5,1224.5c-1.45-17.86-15.41-31.28-23.19-46.53-9.12-15.72-26-13.09-22.08,8.08C416,1203.78,434.36,1223.33,454.5,1224.5ZM741.05,407.42c12.18-18.76,29.57-63.73,2.15-76.27-9,1.43-15.89,4.83-18.16,14.12C719.72,352.83,726.55,429.87,741.05,407.42ZM287.2,1340.32c-.25.66.2,1.58.32,2.38,30.1-12.19,58.32-28,85.9-45.07,4.39-3.93,8.35,1.52,3.39,4.74-15.14,12.74-32.73,21.53-50.1,30.61-11.79,6.17-23.42,13.88-36.08,16.83-16.53,3.85-13.3,19.7-21.25,28.34-.28.31.83,2.5.92,2.48,22-6.13,43.25-14.09,62.72-26.49,13.72-8.74,28-16.57,42.09-24.74.44-.25,1.33.27,2,.44-.37,13.14-86.08,58.26-101,55.9-16.8,1.61-16.55,18.37-24.65,27.69-1.06,3,9,1.53,10.65,1.21,28.48-7.14,57-16,82.79-30.37,6.9-2,29.86-23.22,33.55-15.85,1.74,2.9-1.89,3.67-3.74,4.89-36.53,26.77-80,43.89-124.53,51.11-8.94,2.44-8,12.57-12.73,18.53-3.82,5.16-6.5,11.47-9.1,17.44,51-3.08,96.53-33.84,140.25-58.25,1.94-1.23,4-3,5.88-1.12.5.5-1.15,4.46-2.71,5.53-29.91,22-63.4,38.67-97.77,52.53-61.35,22.06-40.38-8.94-67.37,42.65,56.77-13.19,112.48-28.66,160.28-63,1.42.33,2.31-2.12,4.79-1.34.81,1.86-1.17,4.93-2.73,6.17-37.24,30.45-82.69,47.86-129.36,57.57-12.06,3-23.75,5.35-29.68,6.3-3.71-.34-8,3.81-9.71,5.76-4.27,5-7.76,10.72-11.69,16-2.76,3.76-1.61,4.18,2.53,4,24.43-1.2,48-6.31,71.18-14,35.28-10.13,69.2-22.76,100.33-42.53,2.17-1.19,4.31-3,6-.51s.29,4.49-2.68,6c-22.6,11.42-43.41,26.78-67.73,34.22-35,10.83-71.45,23.06-108.34,24.36-14.53-.43-12.6,12.64-18.65,19-1.54,1.62.93,3.26,3.35,3.22,45.72.24,92-6.26,135.63-20.44,16.49-5.34,31.6-14.87,47.52-22.13,3.63-1.66,9.43-6.33,11.28-2.94,2.08,3.82-4.23,7.13-8,9.13-53.55,28.65-114.06,45.89-175.09,43.31-12.34-1-27.9-.52-32,17.3-.44,1.92,1.7,3.05,7.14,3.84,27,3.93,54.63,4.86,81.08,1.11,31.94-4.54,64.94-5.23,95.63-18.39,9.57-3.57,20.05-10.82,30.9-8.67-7.42,12-30.18,14.75-42.77,20.53-26.49,8.87-53.85,9.66-81,14.48-21.91,2.22-44.74,1.89-66.65.66-9.24-1.31-19,.4-27.43-4.8-2.26-1.37-3,1.42-4,2.75-1.7,3-6.28,5.77-8,1.39-.6-1.78.11-4.15,1.28-6.09,13-21.46,25.54-43.25,39.16-64.33,34-54.17,61.94-111.72,89.38-169.39,9.36-19.81,17.5-40.2,26.07-60.37.55-1.3.07-3,.07-5.59-47,76.67-99.91,147.36-149.77,221.89-3.31,3.78-8.46,18.38-11.9,7.48-.05-32.71-2.19-65.32,2.21-97.73,6.61-117.36,4.3-235.12,1.57-352.58-5.65-79.39,2.74-160.65-13-238.71-1.18,39.21-4.09,76.47-8.08,115.16-3.5,86-5.37,172.63-9.6,258.75-3.65,89.88,1.65,180-4.58,269.65-.66,17.5-.46,35-.56,52.54,0,2.41.15,5-2.44,6-1.85.71-3.88,1-5.89-.83-27.63-25.68-55.4-51.21-83-76.92a41.08,41.08,0,0,1-7.48-10.26c.32-3.75,5.5-1.73,7.2.15,28,26,55.69,52.8,85.22,77,1.34-19.6.3-39.66,0-59.37-.12-3.21-2.29-4.37-4.88-5-33.88-9.56-75.81-49.78-97-77.48,3.39-.63,5.23-.43,7.18,2,9.15,8.5,18,17.34,27.27,25.67,20.54,18,42.35,35.64,66.48,48.12,6-11.79,1.91-25.38,3.32-38,.22-4.52-3.18-2.87-4.77-3.47-37-19.06-64.91-52.28-92.3-82.57-3-4.63-4.69-9.6,2.94-6.14,6.49,6.31,12.65,13,19.06,19.36,24.24,22.56,45.35,49.93,74.81,65.91.45-12.34.18-24.63,1.78-37,1.13-9.22-9-10.35-14.59-13.87-30.24-19.39-56.82-43.59-79.88-71-1-1.11-.93-3.16-1.35-4.78,1.46.45,3.31.49,4.33,1.42,28.43,25.3,54.18,54.61,86.93,74.37,7.52,4.43,3.9-7.19,4.18-9.16,1.42-10.3,1.76-21.17-.25-31.3-.8-4.06-8.51-6.81-13.17-10-29.33-21.64-56.89-46.57-78.74-75.86-1.65-3.06-7-7.26-4.13-9.89,5.32-3.11,7.39,4.39,10.4,7.4,9.52,9.53,17.89,20.22,27.45,29.72,18.65,17.41,36.11,36.68,56.79,51.69,2.46,1.53,2.39-1.12,2.31-2.74-.63-12.7-1.52-25.39-1.8-38.1-.09-4.08-1.77-6.48-4.73-8.58a440.65,440.65,0,0,1-73.83-66.55A287.62,287.62,0,0,1,0,1177.48c-3.53-7.26,1-9.2,4.82-3.14C32.93,1206,62.1,1237.44,96,1262.86c.86-1.67,2.72-3.52,2.45-5-2.43-13.26-1.91-26.43.39-39.62.64-3.64.16-6.8-3.41-9-27.43-17.22-49.07-41-70.91-64.32-8-8.58-17.72-16.33-22.67-27.63-.77-1.47-3.42-3.36-1-4.79.85-.58,3.68.52,4.76,1.66,10.5,11.06,20.52,22.6,31.26,33.42,19.25,20.36,39,40.28,61.4,57.12,1.41-11.9,1-24,2.91-35.84,1.29-7.92-2-11.32-8.39-15.2-39.3-24.84-67.48-62.66-91-102-2.16-4.75,2.25-7,5-2.43,26.66,38.17,55.26,75.91,93.9,102.7,5.2-17,.83-31.12,2.21-50,.08-3.38-1.55-5.58-3-6.24C71.32,1080,49.66,1054.41,29.13,1030c-6.79-9.14-14.43-18.53-19.71-28.44.68-2.79,3.61-1.88,4.64-.14,26.49,34,55.68,64.1,88,92.73a189.47,189.47,0,0,0,2.32-48.84c-.25-3.15-7-6-10.93-8.62-21.69-14.64-40.36-32.75-57.73-52C25.37,973.13,17,959.78,7.81,947.21c-.7-1-1.1-3.31-.57-3.76,1.58-1.35,2.65,0,3.92,1.35,30.35,31.6,56.46,69.52,93.26,93.75,1.74-13.19,1.93-26.6,3.16-39.87.29-3.71-1.87-5.41-4.73-7.06C75,971.23,50.2,945.94,29.33,918.4c-1.73-2.78-6.22-6.35-4-8.79,3.46-3.08,5.58,2.8,7.44,4.75,11.28,11.82,20.53,26,33.16,36,15.08,11.91,23.43,28.34,41.76,37.84,0-14.67,1.59-28.16,1.65-42.51-18-10.22-29.13-24-43.64-37.25-12.62-12-23-26.46-34.18-39.9-1.95-4.77,4.63-4.37,6.26-1.49,23,25.51,45.9,50.76,71.89,73.38,1-10.61,1.37-21.55,3.35-32.18,1.69-9.07-6.09-10.83-10.23-14.12-18.52-15.79-53-44.93-58.36-68.14a13.93,13.93,0,0,1,1.61.29c-.25,4.09,4,2.22,5.64,4.3,7.5,9.34,15.26,18.51,23.43,27.27,9.12,9.78,17.14,20.74,28.3,28.42,3.52,2.42,4.66,9.11,9.19,7.62,5.42-10.77-.81-29.52,4.3-41.77,1.2-3.62-.22-4.58-4-5.59-8.22-2.2-13.22-9.53-19.12-15C83,820.73,55.06,794.27,55.36,779.27c9.76,4,14.4,14.59,21.46,21.94,9.83,12.21,21.07,24.9,32.73,35,2.38.66,4.5,6.74,7.14,1.94,1.9-3.45,1.7-8.11,2.21-12.25.41-11.65,6-25.66-2.51-35.24-17.51-26-26.32-74.07.08-95.93,35.86-16.51,30.33,47.62,25.41,68-2.38,13-11.57,24.16-12.11,37-.62,14.81,2.26,29.76,3.91,47.82,12.48-23.54,21.32-42.71,32.47-65.79.53-1.07,1.27-3.24,3.3-1.72,8,5.56-27.07,66.54-33.07,75.63-5.18,10.55,2,31.58,3.46,44.83,15.37-22.72,29.15-46.08,42.45-70,.59-.89.75-3.51,2.53-2.34,1.32.92,2.54,3.39,2,5.05-6.67,13.87-14.37,27.14-22.17,40.44-13.61,23.19-36.77,44.51-21.89,74.48,19.72-22.89,36-54.82,60-73.7-.77,3.44-.52,7.66-2.47,10.18-25.28,37.66-71.63,68.27-58.09,119,23.68-29.29,45.87-60.43,67.43-91.65,1.22-1.61,3.16-5,5.65-3,1.13,1.39-.52,4.41-1.91,6.71-20.61,34-42.65,66.7-70.54,95.26-3.38,3.31-2.73,12.46-1.47,18.4,1.92,9,1.21,18.07,1.94,28.72,29.79-37.58,59.1-73,83.48-113.93,1.72-2.86,2.49-6.4,6.51-7.06.38,5.66.79,10.28-2.83,14.45-6.71,10.83-13.82,21.43-21.22,31.79-20.42,26.4-37.42,56.72-63.29,78.2-7.31,5.06-1,11.14-1.84,16.57-1.5,10.15.62,20.83,1.27,31.91,34.38-38.23,67.72-77.37,94.38-121.23a1.48,1.48,0,0,1,2.09-.15c3.79,3.23.4,9.56-1.77,13.15-24.2,38.69-54.48,73.88-85,107.5-11.66,7.4-9.24,18.07-8.29,29,1.34,9.38-3,19.36.84,28.39C191,1125,222.45,1072.46,261,1026.89c1.36,8.07-5.45,15.37-8.88,22.18-31.06,41.92-62,84.69-99.42,121.23-8.62,8.16-4.64,16.62-5.47,25a199,199,0,0,0,.37,31.26c20.32-19.25,35.78-43.45,55.27-63.66,21-24.76,41.75-49.94,55.06-79.58,3.73-4.46,6.9-.3,4.94,3.6-1,2.6-2.07,5.18-3.19,7.72-16.44,39-48.4,68.43-74.26,101.23-12,14.38-23.76,28.92-37.73,41.48-1.7,13.63-.13,28.3-.59,42.22a11.82,11.82,0,0,0,1.09,3.35c16.27-14.16,30.71-31,45.63-46.67,32.12-36.51,53.67-80.86,82.9-119.58,1-1.28,3.88-2.86,4.38-2.45,5.27,5.2-11.83,23.6-14.65,29.56-18.74,28.36-34,58.84-56.21,84.76-18.66,23.68-42.11,43.47-63.12,64.43-.06,15.89,0,31.79,0,47.14a840.38,840.38,0,0,0,124.31-152.91c5.23-6.44,7.13-16.79,15.94-19,.9,16.78-30.5,54.31-41,69.46-25.59,32.86-50.16,66.56-82.16,93.82-14.1,12-19.22,26.68-18.06,45.94.62,10.44-.46,22.22-2.45,33.43-4,35-2.47,64.36-5.26,101.59,11.55-17.14,20.91-31.3,30.55-45.27,8.41-12.17-2.45-22.58-3.1-34-2.56-23.25-7.48-46.26-2.63-69.8,5,2,3.91,6.5,3.76,10.28-1,25.72,5.77,50.38,10.15,75.36,1.48,4,5.85-1.34,7.47-2.81,2.45-3.36,3.56-7.92,6.48-10.65,10.87-10.14,2.24-19.79-.66-29.11-4.55-14.66-3.82-29.85-6.21-44.7-.1-8.91-4-20.22,1.89-27.74,1-1.3,3.57-1.91,4.15.86.26,1.24-1.24,2.8-1.12,4.13,1.85,27.79,5.83,52.4,12.22,80.27,5.76-8,10.44-14.84,15.63-21.33,2-2.52.29-4.7-.3-6.1-4.86-11.51-5.19-23.79-6.64-35.85-1.26-15.72-5.14-31.72-1-47.28,1.45-2.77,6.91-1.78,5.92,2-3.22,18.8,3.12,36.89,4.27,55.36.42,6.84.67,14.1,4.6,20.24,32.07-25.69,3.75-69.7,9.26-103.34.2-2.42,3.35-6.64,4.87-6.53,4.55.33,1.06,4.07,1.22,6.21,1.63,21.91,3.3,43.79,10.73,64.53,33.09-24.63-6.62-71.53,13.82-101.85.69,1.46,2,2.94,2,4.38.33,21.51.42,43.54,8.26,63.82,6.35-10.67,13.55-20.33,17.86-31.14,1.94-4.87-1.77-12.08-3.14-18.17a153,153,0,0,1-3.92-35.19c.6-5.69-.69-17.12,5.2-19.8,4.31,2.83,3.11,7.68,2.8,11.92-.94,12.76,1.31,25.31,3.4,37.77.53,3.14-1.08,7.63,3.1,9.84,1.46-2.88,2.24-6.54,4.49-8.52,23.72-22-4.71-64,33.06-101.8,18.41-21,42.27,3.34,32.28,25.66-7.58,22.23-23.4,38.79-42.41,52.56-10,7.3-7.76,21.5-13.62,31.51-1.07,1.84-1.41,4.1-2.16,6.38,23.05-11.44,39.69-30.23,58.86-46.1-19.49,41.94-64.58,48.23-66.58,70.63-1,9.19,5.56,1.72,6.21,1.47,25.17-9.87,49.09-22.15,70.87-38.7,6.79,13.72-61.6,46.58-75.94,47.08C295.62,1309.73,291.44,1332.69,287.2,1340.32Zm34.18-114c.09.57.24,1.45.39,2.34,14.67-6.2,34.57-30.75,38.91-46.42,1.9-7.29,4.67-16.1-4.11-20.57C332.74,1153.48,319.82,1206,321.38,1226.32ZM129.22,777.8c7.07-21.07,10.35-42.49,7.41-64.2.59-15.86-17.22-18.45-23.64-4-5.81,12.27-6.95,25.16-5.73,38.45C109.57,757,121.23,810.76,129.22,777.8ZM95.48,1592.13c-15.43-18.86-30.23-40.46-47.43-58.44-14.69-14.84-25.15-32.91-40-47.38-1.41-1.37-.84-5.47-4.48-3.72-3.23,1.36-1.45,4.84-.14,6.37q19.41,25.68,39.38,51c-10.61,4.4-22.24,3.8-33.44,3.08-3.57-.27-6.23,1.9-8,4.79,0,.24,2.75,3.1,4.15,3.07,11.57-.34,23.14-1.48,34.71-1.46,3.43,0,6.42-5.06,10.19-.58,6.66,7.93,13.6,15.64,20.33,23.34-21.72,7.51-44,9.77-66.8,8.89-1.42,0-2.94,1.51-4.37,2.31,10.26,11.3,36.77,3.8,50.71,3,11.16-1.31,22.87-13.55,34,.66,3.29,3.15,7.57,9,12.63,8.27C98.91,1593.52,95.53,1593.2,95.48,1592.13Z"/></g></g><g id="Red_Japanese_Frames" data-name="Red Japanese Frames"><path class="cls-7" d="M0,20V1580a20,20,0,0,0,20,20H956a20,20,0,0,0,20-20V20A20,20,0,0,0,956,0H20A20,20,0,0,0,0,20ZM924,1548H52V52H924Z"/><path class="cls-8" d="M952.1,15.41,928.69,38.83A4,4,0,0,1,925.86,40H50.14a4,4,0,0,1-2.83-1.17L23.9,15.41A2,2,0,0,1,25.31,12H950.69A2,2,0,0,1,952.1,15.41ZM40,1549.86V50.14a4,4,0,0,0-1.17-2.83L15.41,23.9A2,2,0,0,0,12,25.31V1574.69a2,2,0,0,0,3.41,1.41l23.42-23.41A4,4,0,0,0,40,1549.86ZM936,50.14V1549.86a4,4,0,0,0,1.17,2.83l23.42,23.41a2,2,0,0,0,3.41-1.41V25.31a2,2,0,0,0-3.41-1.41L937.17,47.31A4,4,0,0,0,936,50.14ZM925.86,1560H50.14a4,4,0,0,0-2.83,1.17l-20,20a4,4,0,0,0,2.83,6.83H950.69a2,2,0,0,0,1.41-3.41l-23.41-23.42A4,4,0,0,0,925.86,1560Z"/></g></svg>