<svg id="Card" xmlns="http://www.w3.org/2000/svg" viewBox="0 0 1024 1680"><defs><style>.cls-1{fill:#f2f0ed;}.cls-2{fill:#8c1707;}.cls-3{fill:#593831;}.cls-4{fill:#d82e21;}.cls-5{fill:#f79d31;}</style></defs><rect class="cls-1" x="14.5" y="14.5" width="995" height="1651"/><polygon class="cls-2" points="966 1619.17 966 60.83 1018 8.83 1018 1671.17 966 1619.17"/><polygon class="cls-2" points="60.83 58 8.83 6 1015.17 6 963.17 58 60.83 58"/><polygon class="cls-2" points="8.83 1674 60.83 1622 963.17 1622 1015.17 1674 8.83 1674"/><path class="cls-3" d="M735.74,1243.06c-3,0-5-2.67-6.61-5.54l-3.72-6.56c-7.4-13-15-26.48-22.71-39.63a28,28,0,0,0-3.43-4.39c-.95-1.07-1.94-2.18-2.83-3.39-8.62-11.83-2.31-20.1,3.27-27.4a42,42,0,0,0,5.53-8.54c2.1-5,4.51-10,6.85-14.79,7.94-16.39,16.15-33.34,12.71-52.6-2.8-15.72-9.38-30.61-15.88-44.5-6.58-14-15.73-26.85-24.58-39.24C674.69,983,664.71,969,657.91,953.27c-2.27-5.28-3.18-11.13-4.06-16.79-.21-1.37-.42-2.72-.65-4.05-.33-1.91-1.11-3.15-2-3.15h0a4.83,4.83,0,0,0-1.23,1.28,4.51,4.51,0,0,0-.72,1.38q.64,2.89,1.26,5.79c2.34,11,4.76,22.34,11,32.15,4.35,6.87,8.66,13.93,12.82,20.76l.1.16c6.79,11.13,13.79,22.61,21.15,33.55,13.51,20.08,20.21,42.9,24.53,60.54,2.26,9.23-1.64,19-5.09,27.54-.34.86-.69,1.72-1,2.56a254,254,0,0,1-23.39,46,9.85,9.85,0,0,1-1.93,2c-.23.2-.47.4-.68.61l-1.73,1.67-1.33-2c-.14-.22-.3-.43-.45-.65a17.17,17.17,0,0,1-1.12-1.73c-2-3.75-3.87-7.57-5.69-11.27-4-8.12-8.15-16.51-13.22-24-5.78-8.48-8.83-15.12-9.87-21.52-1.31-7.94.5-15.75,5.53-23.87,9.91-16,6.14-24.29-6.68-37.94-7.11-7.57-15.78-13.22-24.16-18.68a176.37,176.37,0,0,1-18.42-13.18c-8.88-7.59-12.6-18-16.2-28-1-2.83-2.06-5.75-3.21-8.54-5.72-13.89-11.15-28.67-16.14-43.94-3.45-10.53-6.42-21.09-9.57-32.26l-.07-.24c-1.4-5-2.83-10-4.33-15.2l-1.46-5,4.44,2.76c19.62,12.21,34.9,18.41,45.41,18.41,7.87,0,12.41-3.56,13.88-10.88l.39-1.93,1.92.35a67.39,67.39,0,0,0,12,1.16,44.56,44.56,0,0,0,19.79-4.35c4.27-2,7.47-3,10.07-3,7.61,0,8.89,8.11,9.16,15.17s-.78,13.73-1.79,20.31c-.6,4-1.23,8.06-1.55,12.05-.93,11.94,7.26,22.1,13.5,28.71,9.16,9.68,19.39,18.52,29.28,27.07,5.73,4.95,11.63,10,17.28,15.27,13.2,12.21,29.58,16.06,46.61,19.22a104.78,104.78,0,0,0,19.43,1.71,209.64,209.64,0,0,0,29.84-2.61c3.91-.56,7.88-2.13,11.71-3.64,5.23-2.06,10.64-4.19,16.47-4.19a23.07,23.07,0,0,1,4.57.46c3.17.64,6.57,1.07,9.87,1.49,12,1.52,24.35,3.09,32.19,14.67,10.42,15.44,17.35,28.56,21.81,41.31,2.38,6.84-4.36,12.1-9.79,16.34-1.48,1.16-2.89,2.25-4.1,3.34C900.64,1097,889,1107.66,877.67,1118c-9.63,8.83-19.59,18-29.57,27a120.65,120.65,0,0,1-10.05,7.94c-1.34,1-2.62,1.93-3.88,2.88a3.19,3.19,0,0,1-2,.58l-.67,0-2.41.18.21-2.35a12.29,12.29,0,0,0,0-1.23,6.15,6.15,0,0,1,.85-4.06c3.85-5,7.62-10.21,11.26-15.24,11.54-15.93,23.44-32.37,39.68-45.08,8.68-6.79,12.36-16.66,9.61-25.77-2.34-7.73-8.72-14.3-17.5-18-2.39-1-4.75-2.14-7-3.23-7-3.34-14.17-6.78-22.22-6.78l-1.25,0c-8.25.35-14.31,2.9-17.07,7.18-2.06,3.19-2.15,7.35-.27,12,2.73,6.81,10.45,11.06,17.92,15.18,1.26.69,2.5,1.38,3.71,2.07a22.25,22.25,0,0,0,11.34,3c.7,0,1.42,0,2.16-.08a2.07,2.07,0,0,0,.49-.68,2,2,0,0,0-1.66-2.53c-8.48-2-14.45-7.39-20.22-12.62-1.9-1.73-3.86-3.51-5.87-5.12-1.75-1.4-2.11-5.24-2-6.26a2.18,2.18,0,0,1,1.25-1.82l1.14-.55c2.59-1.24,5.26-2.53,8.1-2.53h.52c13.83.83,26.28,6.35,38,16.88,6.16,5.5,6.49,12.69.88,19.23-4.72,5.5-9.67,10.92-14.46,16.17-10.63,11.65-21.58,23.64-30.56,37-9.93,14.77-20.91,29.15-31.53,43l-.07.09c-4,5.25-8.16,10.68-12.19,16.05a33.49,33.49,0,0,1-8.21,7.58l-1,.66-2.48-2.18.53-1c4.77-9.35,7.24-19.66,9.62-29.64l.84-3.5c.64-2.68,1.33-5.37,2-8.06l.07-.25c4.88-19,9.94-38.71.51-58.25-.4-.84-1.43-2.93-1.43-2.93-7.13-14.59-14.5-29.67-1.71-46.45.61-.81,1.23-2.39,1-2.94,0-.13-.35-.23-.48-.26a4.34,4.34,0,0,0-1.18-.18c-2.09,0-3.33,2-4.85,4.89-.29.55-.54,1-.79,1.45-7.91,13.68-8.12,25.88-.64,38.39,11.78,19.71,8.88,41.44,4.49,60.11-4.68,19.92-9.52,40.52-20.08,61.56l-.54,1.07-3.28-.82,0-1.21c.08-2.74.21-5.38.34-7.92.47-9.58.88-17.8-1.55-26.21a155.59,155.59,0,0,0-6.13-16.47c-1.84-4.42-3.74-9-5.27-13.67-1.76-5.33-1.58-10.28-1.4-15.08.07-1.85.14-3.74.09-5.59a9.56,9.56,0,0,1,.11-1.47,8.23,8.23,0,0,0,.08-1.13L751,1121a1.89,1.89,0,0,0-.39,0c-.6,0-1.08.5-2.07,2.11-4.57,7.46-3,14.89-.88,22.49,1.42,5,3.4,10,5.31,14.89,4.12,10.48,8.38,21.32,7.62,33.07-1.07,16.32-2.17,33.18-17.36,45.66-3.42,2.8-5.44,3.85-7.46,3.85Z"/><path class="cls-4" d="M808.8,883.45a83.45,83.45,0,0,1-13.59-1.09,15.55,15.55,0,0,0-2.39-.15c-.76,0-1.56,0-2.37.06s-1.81.06-2.71.06c-5.63,0-12.3-1.38-14-12.11-1.26-8.17,2.69-10.85,7.15-12.53,8.13-3.05,14.56-8.73,20.78-14.23,2-1.79,4.13-3.65,6.29-5.42,9.16-7.49,15.55-14.76,20.08-22.87a2.54,2.54,0,0,0-.2-3.31,5.66,5.66,0,0,1-.91,1.78c-15.47,18.09-32.34,31.57-51.57,41.19-4.34,2.17-5.77,2.86-7.08,2.86a3.44,3.44,0,0,1-2.48-1.14l-.19-.18c-3.19-2.91-5.3-5.48-5.24-8.54.05-2.82,1.87-5.51,6.28-9.26,10.51-8.93,20.27-20.74,30.72-37.17l1.34-2.08c1.57-2.42,3.19-4.93,4.53-7.48l.25-.46c.92-1.69.82-1.76.17-2.19a1.51,1.51,0,0,0-.76-.32c-.42,0-1.1.89-1.56,1.48l-.71.89c-12.89,16.28-26.22,33.09-41.48,47.86l-3.67,3.55.28-5.1a37.19,37.19,0,0,0-2.68-16.12l-.41-1,.64-.9c11-15.3,22-32.1,28.42-51.17.8-2.38-.1-3.28-.7-3.67a5.24,5.24,0,0,1-.69,2.44c-3.6,5.45-6.94,11.22-10.17,16.8-5.62,9.72-11.42,19.75-18.89,28.63l-1.63,1.93-1.52-2a56.78,56.78,0,0,0-10.27-10.74l-1.28-1,.78-1.46c9.59-17.86,15.82-36.91,20.17-51.51,1.61-5.39-.19-6.11-.87-6.38a1.26,1.26,0,0,0-.41-.11c-.44,0-1.23,2.24-1.49,3-.2.57-.37,1-.55,1.48-2,4.91-3.85,10-5.67,14.84-4.4,11.78-8.95,24-15.06,35.25l-1,1.89-1.81-1.15a111.7,111.7,0,0,0-16.48-8.56l-1.76-.75.66-1.78c1.11-3,2.2-6,3.26-9a137.54,137.54,0,0,0,6.51-28.83,121.32,121.32,0,0,0,.36-18.69c-.08-2.49-.16-5-.18-7.55,0-.33,0-.68,0-1s0-.69,0-1a4.33,4.33,0,0,0-2,1.83c-1.3,18.59-5.48,38.38-13.15,62.2l-.63,2-2-.7a164.38,164.38,0,0,0-19.36-5.7l-1.9-.43.38-1.91a159.31,159.31,0,0,0,3-25.58c.19-5.8.77-11.65,1.33-17.32l.28-2.8a6,6,0,0,0-1.18-4.4,2.62,2.62,0,0,0-1.81-1h-.22c-.54,0-.83,0-.9,3.07,0,.72,0,1.4-.1,2.06-.33,2.89-.64,5.78-1,8.67-1.29,12-2.62,24.28-5.18,36.33l-.39,1.83-1.86-.27a99.91,99.91,0,0,0-14.57-1.13c-1.54,0-3.07,0-4.57.13l-2.67.15.61-2.61a87.32,87.32,0,0,0,.34-38.74,11.7,11.7,0,0,1,0-3.59,9.74,9.74,0,0,0,.07-2,1.88,1.88,0,0,0-.41,0,5.56,5.56,0,0,0-.67,0c-1.84.24-2.39.7-1.8,5.35a24.19,24.19,0,0,1,.24,2.68,201.11,201.11,0,0,1-3.15,38.19l-.24,1.36-1.36.26c-9.77,1.84-16.21,5.47-19.88,8.2l-2.33,1.72-.79-2.79a10.82,10.82,0,0,1,0-5.19c3.58-16.36,2.86-33.06-2.2-51.06a7.94,7.94,0,0,0-1.09-2.71l0,0c-2,1.1-3,2.33-2.24,5.32a112.77,112.77,0,0,1,1.88,40.2c-.08.65-.2,1.31-.31,2a16.94,16.94,0,0,0-.34,2.68v.43c-.12,7.52-.15,9.53-3.43,9.53H617l-.65,0c-5.54-.26-11.82-.55-13.55-10-.48-2.64-.9-5.33-1.3-7.94-1.44-9.26-2.92-18.83-7.6-27.22a12.49,12.49,0,0,1-.83-2,6.68,6.68,0,0,0-.75-1.71,3.47,3.47,0,0,0-.88.27,1.63,1.63,0,0,0-1,1c-.36,1,.15,2.62.69,3.69,3.56,7.06,4.68,14.64,5.77,22,.83,5.59,1.68,11.37,3.63,16.7a5.59,5.59,0,0,1-.12,4.93c-1.31,2.18-4,2.57-6.4,2.91a11.34,11.34,0,0,0-2.57.55c-7.19,3.46-14.63,7-20.37,12.49a5.55,5.55,0,0,1-3.82,1.74,5.79,5.79,0,0,1-4.13-2.17l-.28-.28c-22.7-15.89-33.67-34.49-33.48-56.83.2-22.79,12.16-39.08,35.56-48.42a64.42,64.42,0,0,1,24.24-4.79c13.54,0,27.18,4.18,44.25,13.56a7.67,7.67,0,0,0,2.9,1.15h0c0-.33-.05-.69-.07-.86a16.13,16.13,0,0,1-.1-2.17c.65-12.42,3.25-21.94,8.19-30,12.53-20.29,31.47-32.74,59.6-39.18a85.34,85.34,0,0,1,19-2.15c25.68,0,48.06,11.63,58.4,30.36,8.07,14.61,17.13,34.3,15.49,57.14a15.66,15.66,0,0,1-1.35,5.33c-.84,1.84-.75,2.92.37,4.26a2.16,2.16,0,0,0,.25.26,5.84,5.84,0,0,0,.67-.33,4.91,4.91,0,0,1,2.4-.78l.31,0c1.54.14,3.11.26,4.68.37,6.06.44,12.32.9,17.93,3.18,10.78,4.37,22,9.58,31.43,18.09,15.44,14,25.05,30,29.38,49,4.59,20.19,2.65,36.09-6.13,50-10.62,16.91-23,26.93-39.08,31.55A104.46,104.46,0,0,1,808.8,883.45Z"/><path class="cls-4" d="M733.53,919c-.9,0-1.8,0-2.69-.11-43.58-5.12-53.67-27.08-54.47-44.6-.58-12.57,18.25-33,31.48-34.13,2.71-.24,5.4-.36,8-.36,21,0,33.84,7.6,40.89,14,8.62,7.8,13.69,18.29,13.9,28.8.18,8.45-3.93,17.79-11,25A36.55,36.55,0,0,1,733.53,919Z"/><path class="cls-5" d="M751.26,844.3c-2.48,0-4.17-1.76-5.52-3.17a7.73,7.73,0,0,0-2-1.71c-1.59-.62-2.49-1.54-2.68-2.74-.28-1.84,1.27-3.09,2.4-4a8.54,8.54,0,0,0,.87-.77l1.51-2.06c2.5-3.41,5-6.89,7.5-10.33l2.13-3,1.36,3.39a41.46,41.46,0,0,1,3,17.83l0,.78-.56.55c-1,.94-2,1.88-3,2.82l-.09.08A7.18,7.18,0,0,1,751.26,844.3Z"/><path class="cls-4" d="M529.76,1321.69c-10.57,0-17.91-4.63-23.78-15-7.81-13.8-17.52-27-26.9-39.81-4.46-6.07-9.05-12.33-13.39-18.58-9.24-13.28-17.21-27.49-24.91-41.23-4.88-8.7-9.92-17.69-15.21-26.31-16.39-26.68-29.53-55.49-42.25-83.35l-.1-.24q-3.71-8.1-7.43-16.2c-5.28-11.45-9.44-23.6-13.45-35.35-4.1-12-8.33-24.38-13.74-35.91-7.84-16.7-13.45-34.3-18.87-51.32l-.94-2.94C323.25,938,318.07,919.36,313,898.3c-3-12.52-6.66-25.13-10.16-37.34-2.25-7.87-4.59-16-6.76-24.11-4.72-17.56-9.58-36.53-14.88-58-4.1-16.61-8.05-32.85-11.35-49-2.94-14.35-5-28.49-6.68-40.42l-1.52-10.86c-3.55-25.33-7.21-51.46-10.06-77.25-.5-4.57-.94-9.18-1.36-13.64-.79-8.41-1.61-17.11-2.89-25.63-3.4-22.71-5.77-45.86-7.83-67.5-.81-8.57-1.28-17.29-1.73-25.73-.44-8.21-.89-16.64-1.66-24.93C235,432,233.54,420,232.15,408.35c-.83-6.87-1.76-14.63-2.58-22.13-.54-4.93-.94-10-1.33-14.79-.32-4-.64-8-1-11.94a4.12,4.12,0,0,1,.85-3.34,3.86,3.86,0,0,1,3-1.09h.89a28.66,28.66,0,0,1,6.72,1.06,25.9,25.9,0,0,0,5.76.94c16.63,0,33.51.55,49.82,1.07,13.27.43,26.94.87,40.37,1,12.09.13,24.34.66,36.19,1.18,6.05.27,12.2.54,18.25.75q10.49.38,21,.69h.41c12.37.4,25.16.81,37.77,1.33,4.79.2,9.63.6,14.32,1,4.06.34,8.25.69,12.36.9,2.2.12,3.77.85,4.66,2.19,1.42,2.11.48,4.75,0,6.17-.07.18-.14.38-.18.51-.91,9-.29,18.09.31,26.93.33,4.81.67,9.78.76,14.71.16,8.78,1,17.69,1.81,26.3.94,9.92,1.9,20.16,1.84,30.23-.07,10.6.66,21.3,1.38,31.66.44,6.41.9,13,1.16,19.6.74,18.45,3,37.19,5.27,55.32.49,4,1,8,1.45,11.88,2.32,19.46,5,38.9,8.05,57.78,2.52,15.8,5.54,31.8,8.46,47.28l1.6,8.48c2.54,13.57,5.38,28,8.93,45.45q1.68,8.24,3.3,16.49c3.06,15.44,6.22,31.36,10,46.84,2.5,10.29,5.48,20.67,8.37,30.71,3.25,11.33,6.59,23,9.29,34.57,4.67,20.06,10.48,45,19.76,67.55,3.36,8.16,6.41,16.51,9.36,24.59,4.33,11.89,8.81,24.14,14.27,35.82,4.13,8.82,8.08,18,11.9,26.79,4.38,10.13,8.91,20.6,13.75,30.68,10,20.88,21.43,41.54,32.48,61.52q4.38,7.92,8.7,15.79c4.54,8.28,9.48,16.53,14.25,24.51,2.54,4.24,5.12,8.55,7.61,12.81q5.37,9.21,10.69,18.46c7.06,12.23,14.36,24.88,21.82,37.16,5.77,9.5,11.82,19,17.68,28.29l-1.21.89,1.27-.8c6.38,10.07,13,20.47,19.24,30.87.55.91,2.23,3.7,1,5.89-1.14,2-3.72,2-4.7,2-.58,0-1.18,0-1.74-.07s-.85,0-1.2,0h-.3c-10.53.81-21.22,1.53-31.56,2.23-13.4.91-27.2,1.84-40.75,3-7.4.61-14.92,1.53-22.19,2.43s-14.75,1.81-22.21,2.42c-28.51,2.34-59,5.15-88.86,9.82a70,70,0,0,1-10.6,1Zm-66.41-299c-2.64,0-5.07,2.09-6.1,4.16a6.08,6.08,0,0,0-.55,4.72,4.58,4.58,0,0,0,2.72,2.56c2,.84,3.9,1.79,5.76,2.7,1.68.82,3.36,1.64,5,2.38l.29.13c8.25,3.66,10.74,4.76,11.5,7,.55,1.6-.2,3-1,4.51-11.08,20.85-10.15,40,2.75,56.78,10.56,13.77,18,29.87,22.71,49.24,1.11,4.55,2.13,9.14,3.11,13.59,3.81,17.26,7.76,35.12,17.21,50.71,7.36,12.15,18.64,21.53,33.54,27.9a54.33,54.33,0,0,0,21.84,4.3c7.86,0,16.33-1.36,26.65-4.29,26.85-7.64,44.23-20,54.7-38.94.13-.23.27-.46.41-.69a4.47,4.47,0,0,0,.45-.83,2.26,2.26,0,0,0-.32-.38,1.43,1.43,0,0,0-.53-.4,5,5,0,0,0-1,.73l-.56.46-4.81,3.76c-10.95,8.61-22.27,17.51-35.79,22.46-11.31,4.14-23.51,8-36.14,8a53.86,53.86,0,0,1-26.42-6.68c-25-13.67-33.11-37.9-37.37-57.47-6.56-30.17-13.39-57-30.73-80.12-7.57-10.09-9.49-21.26-5.7-33.19a70,70,0,0,1,3.1-7.52c3.43-7.47,6.65-14.49.81-22.37l-.54-.74.2-.93a6,6,0,0,1,2.71-3c8.74-4,14.15-11.82,19.38-19.37l1.52-2.19c10.22-14.59,7.06-39.49-2.85-48.13A25.6,25.6,0,0,0,492,955c-7,0-15,2.55-23.68,7.57l-3,1.74v-3.47c0-.23,0-.46,0-.68a5.21,5.21,0,0,1,.21-2.46l1.34-3.44c5.3-13.54,10.78-27.53,19.42-39.91,1-1.39.95-4.54.25-6.15a2.74,2.74,0,0,0-.83-.09c-.48,0-1,.05-1.61.1a18.64,18.64,0,0,1-2,.13h-.47l-1,0c-6.86,0-12.14,3.94-17.24,7.75a61.14,61.14,0,0,1-8.71,5.77,105.22,105.22,0,0,0-9.2,5.53c-7.44,4.83-15.12,9.81-25.11,9.81-.8,0-1.62,0-2.43-.1-.44,0-.92-.09-1.41-.15a20.26,20.26,0,0,0-2.4-.2c-1.86,0-2,.57-2.05,1.58-.19,3,1.91,5.37,6.22,7a24,24,0,0,0,8.85,1.73c8.22,0,15.41-4.4,23-9.06l.92-.56a15.75,15.75,0,0,1,4.13-1.57c.57-.16,1.1-.3,1.61-.48l2.54-.85.1,2.68a14.81,14.81,0,0,0,.21,1.7c.26,1.7.56,3.64-.48,5.17-6.57,9.71-10,21-13.34,31.94-1.93,6.35-3.92,12.91-6.52,19.17-1.93,4.62-2.61,11,1.8,13.71a4.66,4.66,0,0,0,2.46.74c3,0,6-3.14,7.06-6.06,4.72-13.51,13.51-24.19,26.89-32.66,5.16-3.26,9.34-4.71,13.55-4.71a17.48,17.48,0,0,1,7.29,1.62c7.52,3.42,8.15,10.58,8.66,16.33a31.3,31.3,0,0,1-6.71,22.71l-.41.51c-6.82,8.56-13.87,17.41-25.58,17.41A27.61,27.61,0,0,1,465,1023,5.18,5.18,0,0,0,463.35,1022.72ZM425.29,922.07a1.31,1.31,0,0,0,.31.34,2.93,2.93,0,0,0,1.92.82,3.94,3.94,0,0,0,2.08-.72c7.3-4.64,12.15-11.84,16.83-18.81,1.23-1.83,2.48-3.69,3.76-5.49l2.69-3.76c8.89-12.42,18.08-25.26,20.84-39.79-.22-1.51-.37-2.87-.5-4.08a23.13,23.13,0,0,0-1.11-5.92c-2.8-7-13.76-12.46-24.95-12.46a26.37,26.37,0,0,0-9.06,1.47l-.66.24c-2.06.76-4.87,1.8-7.19,1.8-2.84,0-4.59-1.57-4.69-4.21-.34-9.06-4.15-17-7.83-24.76a127.07,127.07,0,0,1-5.45-12.61c-.92-2.66-1-4.52-.23-6a6.45,6.45,0,0,1,4.22-3c5.1-1.58,10.31-3,15.36-4.48,4.06-1.15,8.23-2.33,12.35-3.57,2.1-.63,5.61-2.14,5.53-5.2,0-1.2-.19-1.2-1.11-1.2a16.73,16.73,0,0,0-1.76.15,16.34,16.34,0,0,1-2,.17h-.16l-1.54,0c-8.51,0-15.81,1.68-22.32,5.15-4,2.11-7.45,3.14-10.57,3.14-4,0-9.38-1.78-12.74-10.3a38.42,38.42,0,0,0-5.84-9.56c-.24-.31-.49-.65-.74-1-.68-.93-1.69-2.34-2.39-2.34a1.94,1.94,0,0,0-1.05.48c-2.59,1.93-1,5.56-.19,6.68,11.21,16.38,18.22,34.87,25,52.75,1.35,3.55,2.69,7.09,4.06,10.61,1.15,2.94,4.64,11.88-4.59,16-16.33,7.3-29.36,17.53-38.72,30.4-3.67,5-3.31,13.32-1.32,19.3,1.58,4.74,4.15,8.07,6.89,8.92a29.22,29.22,0,0,0,8.62,1.33c17.22,0,31-15.77,36.49-30.41.93-2.48,1.12-5.58,1.32-8.86.26-4.23.55-9,2.83-12.81,2.67-4.42,7.51-6.64,14.78-6.78.92,0,1.83,0,2.74-.09,1.24-.05,2.53-.1,3.78-.1,4.12,0,8.79.51,12.26,4.32,4.11,4.52,1.34,9.92-.69,13.86-.41.8-.78,1.52-1.11,2.23-4.17,9-9.92,17.09-15.48,24.94-6.83,9.64-13.9,19.62-17.86,31.06-.12.34-.25.66-.37,1a5.08,5.08,0,0,0-.39,1.2ZM414.84,678.86c7,0,12.39,2.72,15.19,7.68a33.37,33.37,0,0,1,1.3,28.89C428,723,423,729.77,418,736.34c-2.08,2.79-4.24,5.68-6.21,8.56-2.26,3.31-2.54,4.61-1.25,5.76a3.32,3.32,0,0,0,2.24.78,6.87,6.87,0,0,0,3.58-1.16c14.87-9.43,24.15-24,28.36-44.47,2.56-12.48.4-22.4-6.41-29.48-6-6.21-19.26-10.07-34.68-10.07-12.76,0-24.59,2.72-31.66,7.27-23.76,15.34-32.32,33.38-26.93,56.79l.18.8c1.55,6.75,3.16,13.73,10,15.75a12.16,12.16,0,0,0,3.5.56c3.64,0,6.71-2.12,11-7.54,8.47-10.82,14.23-22.44,20.33-34.74q1.76-3.52,3.52-7a21.94,21.94,0,0,0,1.51-6.25c.83-5.52,2-13.1,11.07-13.1a21.77,21.77,0,0,1,4.19.46A28.92,28.92,0,0,1,414.84,678.86Zm-33-173.3c12.11,0,20.9,3.2,26.88,9.77,10.77,11.83,4,23.61-1.35,33.08-.62,1.09-1.23,2.16-1.8,3.21-4.38,8-9.78,15.64-15,23s-10.78,15.2-15.12,23.3c-6.67,12.48-8.21,22.9-4.35,29.35,3,5,9.4,7.72,18.44,7.72.63,0,1.26,0,1.91,0,7-.28,8.46-1.83,8.45-4.23,0-1.84-1.67-2.43-5.45-3.34-.92-.22-1.86-.44-2.74-.72-3.57-1.13-8-2.53-9.89-6.26-1.26-2.49-1.23-5.59.1-9.47,4.36-12.8,12.31-23.39,20-33.63,7.07-9.41,14.37-19.14,18.84-30.54,5.25-13.4,5.77-25.61,1.47-34.37-3.34-6.79-9.52-11.55-18.38-14.13-13.34-3.9-20.1-6.63-22.39-11.6-1.85-4-.46-8.75,2.39-15.12,1.14-2.55,1.47-4.43,1-5.59a3.82,3.82,0,0,0-2.46-1.85,3.27,3.27,0,0,0-1-.2c-1.16,0-2,1.33-3.07,3.36a20.35,20.35,0,0,1-1.53,2.54c-1.21,1.58-1.6,4.42-1.79,6.42-1.66,18.27-16.63,23.16-29.48,25.37a4,4,0,0,1-.67.06,3.31,3.31,0,0,1-2.46-1.05c-1.78-1.86-1.6-5.75-1.38-10.68a41.29,41.29,0,0,0-.19-9.05c-1.23-6-2-12.78,1.37-17.95,2.25-3.42,5.93-5.61,11.27-6.7a20.45,20.45,0,0,0,4.51-1.74,29.34,29.34,0,0,1,4.33-1.79c2.4-.71,4.84-1.49,7.19-2.25l.1,0c8.76-2.82,17.81-5.74,27.64-6h3c4.68,0,7.74-.61,8.52-3.64.85-3.29-1.09-4.24-6.43-5.94l-1.36-.44a29.78,29.78,0,0,0-9.48-1.54c-5,0-10.1,1.15-17.07,3.85s-14.12,5-21.07,7.3c-3.11,1-6.22,2-9.33,3.08l-2.64.9v-2.79c0-.43-.06-1-.13-1.68-.2-1.89-.48-4.48.42-6.76,2.65-6.78,2-14,1.39-20.92-.1-1.06-.19-2.11-.27-3.16-.59-7.44-4.49-10.07-14.9-10.07l-2,0a8.32,8.32,0,0,1-3.33-.84,5.37,5.37,0,0,0-1.71-.54c-.14,0-.51,0-1.16.83-1.62,2.1-1.34,4.55-.43,7.57.15.5.47,1.54,3.47,1.54.57,0,1.2,0,2-.11.42,0,.81-.06,1.18-.06,3.63,0,4.68,2.54,5.18,4.76,1.54,6.78.4,13.24-.7,19.48a63.21,63.21,0,0,0-1.38,12.5c.15,6.43-3.51,10.43-10.06,11l-2.36.22c-2.45.23-5,.46-7.46.46-5.93,0-10.38-1.33-14.43-4.3a6.64,6.64,0,0,0-3.55-1.22,3,3,0,0,0-2.53,1.27c-1.12,1.48-.64,2.32.92,4.52q.47.65.9,1.32c4.37,6.84,10.32,10.17,18.18,10.17a40.41,40.41,0,0,0,8.93-1.11l.13,0a23.56,23.56,0,0,1,5.07-.76,6.08,6.08,0,0,1,4.77,1.86c1.43,1.6,1.95,4.09,1.57,7.61-.94,8.73-.52,15.75,1.33,22.11.12.4,2.81,9.84-.84,13.06-12.49,11-17.52,25.51-22.84,40.89l-1.71,4.9c-2.55,7.23-2,14.23,1.52,19.2A14.84,14.84,0,0,0,319.14,585a22.73,22.73,0,0,0,2.69-.17c8.3-1.07,14.29-8.14,19.09-13.81l.12-.14c2.95-3.48,5.5-6.49,8.82-6.49,3.8,0,6.16,4.11,7.6,7.2.81,1.74,2.88,3.54,5,3.54a3.59,3.59,0,0,0,1.75-.47c1.31-.73,1.45-.8.1-3.24a9.54,9.54,0,0,1-1.46-4c-.12-2.36-1.58-4.4-3.26-6.75-2.72-3.82-5.81-8.13-2.87-14.42,1.6-3.46,3.11-7,4.58-10.52,1.92-4.58,3.9-9.27,6.14-13.8a30.59,30.59,0,0,0,1.74-5.26c1.3-4.8,2.92-10.78,9-11.06C379.43,505.59,380.67,505.56,381.85,505.56Z"/><path class="cls-5" d="M728.3,835.7a55.91,55.91,0,0,1-5.79-.43,63.58,63.58,0,0,0-6.39-.45h-4.56l3.09-3.36a154.1,154.1,0,0,0,22.73-32.24l1.14-2.15,1.88,1.54a60.57,60.57,0,0,1,11,11.48l.91,1.27-1,1.19a97,97,0,0,0-6,8.32c-3.11,4.61-6.31,9.37-10.56,13C733.26,835.12,731.22,835.7,728.3,835.7Z"/><path class="cls-5" d="M692.56,838.54q3.36-8.7,6.83-17.49l.13-.34c4.53-11.54,9.2-23.44,13.56-35.3l.73-2,1.93.82a116.45,116.45,0,0,1,17.08,8.86l1.56,1-.88,1.64a114,114,0,0,1-9.15,14.43c-2,2.6-3.8,5.43-5.6,8.16-6,9.19-12.27,18.69-23.64,22.79L691,842.63Z"/><path class="cls-5" d="M682.71,839.69,682,839l-.06-.08c-.76-1-1.47-2-2.18-3s-1.48-2.09-2.25-3.09c-8.18-10.62-4.4-20.21-.74-29.48.87-2.19,1.74-4.41,2.46-6.62a180.64,180.64,0,0,0,5.26-20.25l.4-2,2,.45a167.36,167.36,0,0,1,19.84,5.84l1.81.65-.58,1.83c-1,3.11-2.08,6.4-3.33,10-3.67,10.71-8.17,21.29-12.52,31.51l-.1.25c-1.77,4.15-3.6,8.45-5.34,12.69a3.82,3.82,0,0,1-3.13,1.94Z"/><path class="cls-3" d="M501.83,601.9c-.67-7.22-1.3-14.49-1.93-21.79-1.47-17-3-34.5-5-51.79-1.36-11.71,4.84-19.09,10.83-26.23a83.18,83.18,0,0,0,5.69-7.32c13-19.71,27.27-38.51,38.25-52.69,4.27-5.52,8.13-11.49,11.86-17.27,5.59-8.64,11.35-17.56,18.7-25.36a179.1,179.1,0,0,0,13.43-16.78c5-6.84,10.23-13.9,16.41-19.86,13.15-12.68,22.24-25.35,27.8-38.75a132.19,132.19,0,0,1,8-15.36c4.81-8.28,9.77-16.83,11-26.64,0-.09,0-.2,0-.31a5.32,5.32,0,0,1-.64,1c-7.54,9.54-13,20.61-18.32,31.32a252.37,252.37,0,0,1-12.23,22.73c-3.75,6-8.33,11.15-12.75,16.14s-9,10.11-12.46,15.85a4.14,4.14,0,0,1-2.18,1.58,4.19,4.19,0,0,0-.46.2l-2.81,1.49-.13-3.18a4.36,4.36,0,0,0-.06-.49,4.12,4.12,0,0,1,.3-2.88c4.19-7.07,8.31-14.35,12.29-21.4,6.45-11.43,13.12-23.24,20.34-34.56a131.19,131.19,0,0,0,15.63-36,70.3,70.3,0,0,1,16.37-29.14,7.18,7.18,0,0,1,5.25-2,7.9,7.9,0,0,1,5.93,2.46c7.32,8.14,9,16.47,5.72,27.83-4.15,14.22-11.09,27.1-17.81,39.56-2.85,5.29-5.78,10.72-8.43,16.15-4.32,8.82-9.16,17.55-13.84,26-5,9-10.08,18.16-14.55,27.45a453.51,453.51,0,0,0-25.49,63.83c-5.4,17.54-13.37,37.56-31.52,53l-5.8,4.94,2.62-7.15a208.68,208.68,0,0,0,6.46-22.68c2.56-10.44,5-20.3,9.51-29.82-4.09.1-6,3.24-7,5.88-1.18,3.39-2.47,6.91-3.6,10-3.81,10.46-7.75,21.26-9.86,32.14-3.88,20.11-13,38-21.92,55.31-2.33,4.54-4.73,9.22-7,13.87-4.86,10-10.47,19.65-15.9,29-2.37,4.1-4.81,8.3-7.12,12.44l-3.15,5.61Z"/><path class="cls-4" d="M638.11,883.3c-22.1-1.11-39.5-12.17-54.86-34.82-7.3-10.75-14.35-23.41-5.59-37.59,8.38-13.55,17.75-19.33,31.36-19.33a81.51,81.51,0,0,1,18.67,2.63c28.14,6.68,40.45,26.28,48.78,44.57,5.88,12.94-2.89,30.55-20,40.1a36.47,36.47,0,0,1-18.36,4.44h0Z"/><path class="cls-5" d="M666.38,810.59a6.68,6.68,0,0,1-4-1.65c-9.15-7.13-13.94-14.12-9.54-26.92.94-2.76,1.76-5.6,2.43-8.43l.35-1.45,1.49-.09c1.56-.09,3.18-.13,4.79-.13a103.45,103.45,0,0,1,15.15,1.17l2.11.31-.44,2.09c-.91,4.24-2,8.34-3.08,12.18-.53,1.76-1.16,3.55-1.78,5.28-1.43,4-2.89,8.1-3.14,12.29C670.56,808.49,668.84,810.59,666.38,810.59Z"/><path class="cls-5" d="M640.74,793.07c-2.42-.71-4.92-1.45-7.44-2.24-3.38-1.08-7-2.71-8-6.58l-.35-1.32,1.09-.81c4-3,11-6.93,21.52-8.92l2.85-.53-.51,2.85c-1,5.64-2.25,11.36-3.7,17l-.52,2Z"/><path class="cls-3" d="M356.46,1618l5.13-3.63a252.15,252.15,0,0,0,37.55-32.06c12.74-13.38,20.08-30,27.18-46,4.41-10,9-20.25,14.79-29.77a276.47,276.47,0,0,1,42.25-52.81c8.71-8.55,18.25-16.51,27.47-24.2,10.06-8.38,20.44-17,29.7-26.43,12.83-13,22.56-29.19,32-44.82l.12-.2c2.15-3.57,4.37-7.26,6.6-10.85,1-1.59,1.94-3.24,2.95-5,4.47-7.73,9.06-15.67,16.37-18.68,10.82-4.45,22.13-4.83,34.11-5.24a174.88,174.88,0,0,0,20.34-1.49l5.26-.8-3.43,4.07c-5,6-10,11.94-14.84,17.73l-.07.08c-11.35,13.61-22,26.43-33.34,39.16l-4.93,5.55c-18.27,20.6-37.16,41.92-57.07,61.58-15.19,15-31.21,31.13-45.54,48.76-12.93,15.92-25.37,32.71-37.4,49-6.41,8.66-13,17.57-19.66,26.31-12.31,16.21-25.81,33.39-41,49.19l-.59.61Z"/><path class="cls-3" d="M304.49,1618l1.27-2.82c8.74-19.41,19.13-39.66,35.79-56.31,5.92-5.93,12.62-11.17,19.09-16.25,4.47-3.49,9.05-7.08,13.32-10.84,15.51-13.66,28.53-30.28,40.53-46.14,10.42-13.75,22.45-26.41,34.1-38.66,14.3-15,29.09-30.61,40.88-48.21a25.9,25.9,0,0,1,2-2.53c2.6-3.11,3.07-4.07,1.36-5.7a4.24,4.24,0,0,0-1.26-.93,10.31,10.31,0,0,0-1.06,2.18,9.52,9.52,0,0,1-1.73,3.13l-2.66,2.74c-15.85,16.23-32.25,33-47.68,50.16-7.65,8.48-15,17.52-22,26.26-4.53,5.58-9.2,11.35-13.91,16.92-2.2,2.6-4.37,5.24-6.55,7.88-7.11,8.64-14.46,17.57-22.81,25.25-5,4.61-10.23,9.07-15.3,13.38-11.53,9.81-23.4,19.93-33,32.21s-15.9,26.66-22,40.51c-1,2.2-1.93,4.4-2.9,6.58l-.53,1.19H193.82l4.5-3.57c1.91-1.52,3.71-2.84,5.48-4,4.15-2.82,8.32-5.8,12.35-8.68,9.71-6.93,19.75-14.1,30.48-19.67,28.12-14.63,48.87-32.67,63.42-55.18,16.33-25.23,34.39-46.48,55.23-65,4.35-3.86,9.07-7.43,13.63-10.88,6.4-4.85,13-9.87,18.55-15.65,20-20.94,37-44.66,53.45-67.59,5.45-7.62,9.73-15.9,13.87-23.91l.07-.13c1.47-2.83,3-5.76,4.53-8.62a9.49,9.49,0,0,1-.23-2.77,7.24,7.24,0,0,0,0-1.15.8.8,0,0,0-.22-.07,1.63,1.63,0,0,0-.36,0c-.5,0-.91.62-1.68,1.94-.25.43-.48.82-.73,1.2q-2.52,3.86-5,7.72c-6,9.27-12.2,18.83-18.8,27.89-10.95,15-20.91,27.8-30.47,39-14.69,17.32-27.54,30.31-40.42,40.87a8.34,8.34,0,0,1-3.94,1.46,12.84,12.84,0,0,0-1.33.28l-3,.85.53-3.11c.07-.43.12-.86.17-1.3a13.13,13.13,0,0,1,.75-3.54c1-2.55,2.16-5.09,3.25-7.54,1.88-4.25,3.83-8.65,5.29-13.09,8.94-27.15,4.05-51.22-14.51-71.55-.47-.52-.9-1.07-1.31-1.6a9.79,9.79,0,0,0-1.75-1.91,1.26,1.26,0,0,0-.28.23c-.77.74-1,5,.14,6.58,16.74,23.59,20.42,46.69,11.27,70.61-7.42,19.37-16.39,39.68-31.7,57.11l-.26.3c-9.65,11-19.61,22.32-27.22,34.73-11.9,19.39-25.05,33.29-41.37,43.73-21.85,14-42.78,28-62.21,41.71-6.79,4.8-13.22,9.93-18.07,13.86l-.55.45H136.63l3.74-3.47c8.44-7.83,16.74-16.1,24.78-24.1,12.54-12.5,25.52-25.42,39.34-37a39.56,39.56,0,0,0,5.35-6c3.9-5,8.31-10.77,17-10.77a23.2,23.2,0,0,1,3.88.35,33.83,33.83,0,0,0,5.65.47c21.3,0,42.67-18.35,49.28-35.48,1.31-3.38,1.59-7.16,1.87-10.82.46-6,1-12.89,6.37-18.43,12.92-13.29,26.29-27,38.79-41.7,5.39-6.32,11.69-15,12.55-26.56,1-13.77-28.62-40.56-41-48.48-.92-.58-3.69-.8-6.14-1-5.42-.42-11.56-.89-13.44-5.29-1.54-3.62.46-8.62,6.31-15.75,7.43-9,10.25-22.1,7.75-35.84l-.78-4.32,3.77,2.24c3.21,1.91,6.42,3.74,9.53,5.52,7,4,13.54,7.75,19.89,12.1,8.15,5.59,17.36,9.49,26.27,13.26,4.2,1.78,8.53,3.61,12.76,5.62,1.65.79,3.36,1.66,4.87,2.44,6.27,3.2,12.75,6.51,19.6,6.51a21.55,21.55,0,0,0,4.8-.55,31.55,31.55,0,0,0,7.77-3.43c3.31-1.81,6.72-3.68,10.47-4,11.49-1.08,21.75-6.06,32.26-15.67,6.85-6.25,13.59-12.89,20.11-19.31,2.57-2.52,5.06-5,7.56-7.41,1.16-1.13,2.72-2.43,4.58-2.43a4.24,4.24,0,0,1,3.47,1.89c2.32,3.07,4.56,6.25,6.72,9.33,3.25,4.62,6.6,9.38,10.23,13.75,1,1.21,2,2.45,2.95,3.68,5.79,7.34,10.75,13.64,20.54,13.64a26.44,26.44,0,0,0,4.71-.45c2.5-.45,5-.92,7.5-1.39,11.26-2.12,22.9-4.32,34.67-4.32,2.69,0,5.34.12,7.88.35a19.54,19.54,0,0,1,2.39.39l1,.19,2.77.49-1.37,2.46c-.17.29-.31.61-.46.92a8.15,8.15,0,0,1-1.83,2.8c-5.83,5.34-10.1,12.13-14.24,18.7-2.12,3.37-4.29,6.82-6.66,10.09-3,4.17-5.93,8.63-8.72,12.94-6.25,9.62-12.7,19.57-21.18,27.18-7,6.26-14.22,12.42-21.23,18.38-18.33,15.6-37.29,31.72-52.89,50.95A281,281,0,0,0,418.66,1536l-1,2.18c-5.2,12-10.58,24.36-20.26,34.59-1.51,1.61-3,3.21-4.52,4.82-7.22,7.7-14.68,15.67-22.9,22.87a137.79,137.79,0,0,1-13.57,10.09c-3.31,2.25-6.73,4.58-9.89,7l-.54.43Z"/><path class="cls-4" d="M491.38,387c-4.51,0-4.94-4.88-5.1-6.72-.88-9.94-.69-17.51,9.82-24.33,7.77-5,14.53-12.1,21.07-18.93,2.35-2.45,4.78-5,7.24-7.42a7.42,7.42,0,0,0,.14-1.86H523a4.57,4.57,0,0,0-2.34.35c-3.82,3.33-7.56,6.81-11.17,10.19-7.21,6.73-14.67,13.7-23,19.6a8,8,0,0,1-4.77,1.67,10.83,10.83,0,0,1-2.88-.47,6.78,6.78,0,0,0-1.73-.33l-.27,0-3.58.38,1.57-3.24c.24-.5.46-1,.67-1.51a19.73,19.73,0,0,1,2.07-3.92A187.63,187.63,0,0,0,498.34,315a18.27,18.27,0,0,1,.89-1.69c.62-1.11,1.46-2.62,1.24-3.35-.11-.36-.62-.68-1-.88a1.75,1.75,0,0,0-.72-.2c-1.1,0-2.38,2.09-3.14,3.34l-.55.88c-7,10.85-15.25,23.72-22.68,36.93a19,19,0,0,1-4.17,5.22l-1.69,1.44-1.26-1.82a109.86,109.86,0,0,0-13.62-16.11l-1.07-1,.7-1.32c3.17-6,5.4-12.56,7.57-18.92,1.36-4,2.76-8.13,4.4-12.14.19-.48.36-1,.53-1.51s.34-1,.52-1.48c1.56-4.13,1.66-6.45.3-7.31a3.5,3.5,0,0,0-.87-.42,10.85,10.85,0,0,0-.82,2.08,20.41,20.41,0,0,1-.8,2.19c-2.77,5.94-5.61,11.94-8.36,17.73q-3.45,7.26-6.87,14.54l-1.07,2.28-2-1.56a91.26,91.26,0,0,0-16.53-10.45l-1.48-.72.43-1.6c1.1-4.11,2.21-8.61,3.37-13.75a38.11,38.11,0,0,0,.62-7.63c.07-5.17.16-11,4.28-15.9a8.59,8.59,0,0,0-1.77-2.85l-.09-.07a3.52,3.52,0,0,0-.66,1.3c-1.38,4.62-2.71,9.35-4,13.92l-.06.22c-1.63,5.75-3.31,11.71-5.09,17.53l-2,6.7-2-.71a80.42,80.42,0,0,0-22.57-4.55l-2.05-.12.17-2c1.23-15.57.95-27.68-.9-39.23a37.37,37.37,0,0,1-.33-5.44c0-3.44-.08-6.41-1.83-9.08A7.18,7.18,0,0,0,390,256a4.4,4.4,0,0,0-.93,1.67A49.94,49.94,0,0,0,389,268.1c1.63,15.9.7,31.53-.3,43.38l-.14,1.71-1.71.12a53.06,53.06,0,0,0-17.55,4.08l-2.67,1.16-.13-2.9c-.12-2.82-.29-5.37-.53-7.8-1.07-10.89-3.28-21.89-5.43-32.54-.59-2.93-1.17-5.79-1.72-8.64a2.41,2.41,0,0,0-2.52-1.84,2.54,2.54,0,0,0-.9.15,12.1,12.1,0,0,0-.25,5c.66,4.41,1.49,8.9,2.29,13.23,1.29,7,2.62,14.22,3.33,21.42.57,5.77,1,10.85,1.3,15.53l.07,1.11-.91.65a47.39,47.39,0,0,0-14.4,16.75l-3.2,6.06-.56-6.83c-.94-11.32-4.67-22.32-8.27-33-1.36-4-2.76-8.15-4-12.26a9.6,9.6,0,0,0-1.76-.88l-.3.56c-.86,1.6-1.49,2.76-1,4.58l1.09,4c3.62,13,7.35,26.48,9.89,40,.93,4.92.53,8.33-1.22,10.44a7,7,0,0,1-5.72,2.31,30.23,30.23,0,0,1-6.37-1A23.51,23.51,0,0,0,321,352c-8.74,0-9.83-7-10.63-12.17a28,28,0,0,0-.93-4.49c-3.88-11.24-8.28-23.07-15.55-33.26a13.1,13.1,0,0,1-.77-1.26,11.62,11.62,0,0,0-1-1.62l-.13.14c-2.12,2.31-1.16,4.42.72,7.95a30.24,30.24,0,0,1,1.55,3.19c1.47,3.73,3.05,7.49,4.58,11.12a246.35,246.35,0,0,1,9.48,25,3.23,3.23,0,0,1-.44,3c-1.05,1.42-3.05,1.59-4.46,1.59a35.66,35.66,0,0,1-3.61-.25c-.74-.07-1.51-.15-2.05-.16l-3.26-.09c-12.35-.35-25.12-.71-37.6-2.26a158.26,158.26,0,0,0-19.52-1c-4.07,0-8.23.09-12.25.18l-1.29,0c-5.71,0-8.48-4.21-10.93-7.93-.63-1-1.28-2-1.94-2.81-16.4-21.26-16.9-38.46-1.71-59.38,7.86-10.81,25.67-15.65,39.83-15.65a51.58,51.58,0,0,1,15,2.05,190.67,190.67,0,0,1,46.52,21.87,2.28,2.28,0,0,0,1.14.48s.06,0,.15-.09c.84-.91,1.15-4,1-6.34-2.4-30.84,10.54-53.36,37.42-65.13a96.93,96.93,0,0,1,39-8.49,92.43,92.43,0,0,1,33,6.2c13.77,5.24,27.9,11.58,36.17,26.21a77.19,77.19,0,0,0,5.82,8.41c3.46,4.56,7,9.25,9,15.3.92,2.81,2,2.81,2.55,2.81,1.61,0,4-1.32,6.29-2.6l1.6-.88a55.88,55.88,0,0,1,26.69-6.84c10.92,0,22.46,3.1,35.29,9.47,14.8,7.34,30.46,17.47,34.42,37,3.69,18.07-1.7,36-15.57,52-15.29,17.56-35,27.63-58.51,29.95a26.5,26.5,0,0,0-6.31,1.75,43,43,0,0,1-5.19,1.63A14.9,14.9,0,0,1,491.38,387Z"/><path class="cls-5" d="M441.77,356.21c.41-1.15.76-2.44,1.09-3.67.81-3,1.63-6.09,3.52-8.55a52.9,52.9,0,0,0,4.86-7.65l1.25-2.36,1.92,1.87a115.3,115.3,0,0,1,14.12,16.69l1,1.49-1.37,1.17c-4,3.43-8.5,3.89-12.38,3.89-1.57,0-3.15-.09-4.69-.18s-3-.17-4.47-.17a25.77,25.77,0,0,0-2.77.13l-3.15.32Z"/><path class="cls-4" d="M420.43,1302.25a6.26,6.26,0,0,1-4.64-2.6c-9.81-17.3-14.13-36.46-13.22-58.58a129.37,129.37,0,0,1,2.42-17.89l.16-.91c.48-2.61,1.94-10.56,8.29-10.56,3.51,0,7.1,2.66,10,4.8.71.53,1.37,1,2,1.43,13.61,9.22,20.59,23.4,21.34,43.34v.19c-1.53,17.72-10.15,31.7-24.93,40.42A2.62,2.62,0,0,1,420.43,1302.25Z"/><path class="cls-5" d="M428.93,358.65a14.93,14.93,0,0,1-6.3-1.92,10.78,10.78,0,0,0-3.81-1.34c-.49,0-1,.13-1.71,1.11l-.79,1.12-3.24-1.87.58-1.25a210.08,210.08,0,0,0,12.55-35.43l.62-2.35,2.19,1.06a96,96,0,0,1,17.25,10.91l1.24,1-.67,1.43c-3.58,7.62-6.48,13.93-9.1,19.87C435.45,356.14,432.57,358.65,428.93,358.65Z"/><path class="cls-3" d="M325.07,218.64c.59-2,1.12-3.94,1.62-5.82a100.85,100.85,0,0,1,3.66-11.7c3.58-8.85,7-17.94,10.3-26.73,6.22-16.56,12.62-33.59,20.4-49.82a350.77,350.77,0,0,0,21.76-58.71,18,18,0,0,0,.5-2.17l.27-1.69h40.89l-1.8,3c-7.31,12.31-15.86,26.9-23.88,41.87-3.45,6.45-6.47,13.31-9.4,19.94-3.16,7.16-6.42,14.56-10.27,21.55l-.67,1.23c-8.6,15.63-17.47,31.74-27.52,46.93-7.25,11-14.07,18.24-22.8,24.31l-4.67,3.25Z"/><path class="cls-5" d="M401.86,357.11c-6.28,0-10.3-1.37-12.27-4.19-2.67-3.81-.83-8.86.8-13.3a25.71,25.71,0,0,0,1.5-5l0-.27c.9-7.61,1.82-15.49,2.43-23.21l.15-1.95,1.95.11a84.64,84.64,0,0,1,23.69,4.79l1.79.64-.74,2.46c-2.85,9.45-5.8,19.21-9.73,28.44a6.88,6.88,0,0,0,.09,2.43c.27,1.91.63,4.51-1.07,6.52-1.36,1.6-3.71,2.43-7.2,2.54Z"/><path class="cls-4" d="M386.34,892.6c-1.9,0-3.38-1.78-4.86-3.77-1.93-2.61-3.19-6.83,1.72-12.09a139.13,139.13,0,0,1,26.42-21.66,7.9,7.9,0,0,1,4.09-1.61,3,3,0,0,1,2.3,1c1.06,1.16,1.08,2.89.93,4.6-.15,15.69-15.17,32.3-30.37,33.54h-.23Z"/><path class="cls-4" d="M357,1287.2a5.79,5.79,0,0,1-5.09-3.64c-1.78-4.63-3.32-9.44-4.8-14.08l-.19-.59c-.48-1.5-1-3-1.45-4.49l-.05-.15,0-.21c-1.69-17.75,5.49-33.14,21.33-45.84,7.65-6.12,17.49-9.23,29.24-9.23,1.42,0,2.88,0,4.34.14a3.15,3.15,0,0,1,2.51,1.18c.78,1.13.42,2.3-.13,4.07a58.34,58.34,0,0,0-1.91,7.82,91.28,91.28,0,0,1-24.53,48.18c-4.83,5.08-10.12,10.2-16.18,15.65A4.55,4.55,0,0,1,357,1287.2Z"/><path class="cls-4" d="M396.26,1308.78c-10.94,0-21.76-4-33.06-12.24a2.92,2.92,0,0,1-1.14-2.48c0-2.93,3.49-8.5,8.62-12.13,8.77-6.2,15.14-14.42,22-24.87l2.55-3.88,1.07,4.52c.79,3.36,1.47,6.69,2.13,9.91,2.67,13.05,5.19,25.36,13.93,35.41l2,2.26-2.85,1A48.41,48.41,0,0,1,396.26,1308.78Z"/><path class="cls-4" d="M354.26,725.29v-.45c.51-23.31,9.75-36.08,30.91-42.69a20.32,20.32,0,0,1,2-.5c.29-.06.57-.11.84-.18l2.54-.59-.09,2.61a8.14,8.14,0,0,0,0,.85,6.35,6.35,0,0,1-.38,3.2c-7.08,15.15-14.21,29.87-23.59,43.34a9.45,9.45,0,0,1-4.17,2.89c-.56.25-1.13.51-1.59.77l-1.93,1.11Z"/><path class="cls-5" d="M381.16,356.1a4.06,4.06,0,0,1-2.21-.71,2.82,2.82,0,0,0-1.47-.29,19.79,19.79,0,0,0-2.09.17,22.81,22.81,0,0,1-2.47.19c-4.34,0-5.46-3-5.63-5.51-.47-6.48-.5-13.06-.53-19.43,0-4.93-.06-10-.28-14.87l-.06-1.38,1.26-.54a57.11,57.11,0,0,1,18.87-4.42l2.33-.15-.2,2.32c-.48,5.83-1.08,11.75-1.66,17.48l0,.24c-.73,7.27-1.49,14.79-2,22.22-.26,3.45-2.13,4.68-3.8,4.68Z"/><path class="cls-3" d="M304.59,276c-9.26-9.07-21.57-12.81-31.26-15-.74-.17-3-.69-3.47-2.6s1-3.11,1.66-3.73l.15-.14c13-18.63,20.84-37.12,24.07-56.51a1.7,1.7,0,0,0-.13-.58h0c-2.09,4.18-4.32,8.54-6.29,12.38-5.64,11-11.47,22.34-16.25,33.86-3.54,8.5-9.18,12.64-17.22,12.64a43.05,43.05,0,0,1-9.87-1.39,3.51,3.51,0,0,1-2.66-2,4,4,0,0,1,.69-3.61l28.79-45.61c3.27-5.18,6.74-10.31,10.1-15.27,8.55-12.59,17.34-25.57,23.31-40.21,13.66-33.54,28.28-61.46,44.71-85.37l.6-.87h28.32L378,67c-2.31,6.44-4.67,13-7.28,19.43-3.82,9.37-7.8,18.77-11.65,27.87l0,.11c-3.41,8-6.93,16.37-10.31,24.59l-.86,2.1c-5.09,12.39-10.35,25.2-15,38-2.56,7.11-4.94,14.44-7.24,21.53-3.12,9.62-6.33,19.5-10,29A116.27,116.27,0,0,0,308,274.56l.09,4.88Z"/><path class="cls-4" d="M350.89,1114a10.61,10.61,0,0,1-6.37-1.92,5.26,5.26,0,0,1-2.24-3.41c-.43-2.73,1.45-5.29,3.27-7.77a20,20,0,0,0,2-3.07,90.55,90.55,0,0,0,7.55-29.39,7.46,7.46,0,0,1,.73-2.35c.11-.24.2-.44.28-.65l.75-2,2,.92c.16.07.34.12.52.18a3.75,3.75,0,0,1,2.61,1.92c3.16,7.75,6.15,15.33,9.32,23.36l1.65,4.2v.29C372.84,1102.8,361.93,1114,350.89,1114Z"/><path class="cls-5" d="M356.71,353.76a19.64,19.64,0,0,1-4.11-.61,17.91,17.91,0,0,0-3.53-.55,2.7,2.7,0,0,0-1.6.4,2.89,2.89,0,0,1-1.67.58,2.4,2.4,0,0,1-1.79-.79c-1.06-1.13-1-3.1-.86-5.57l0-.48a63.57,63.57,0,0,0-.13-8.82l-.05-.58.27-.52a51.41,51.41,0,0,1,15.62-18.15l2.92-2.07.24,3.57c.63,9.44.84,18,.64,26.17C362.55,352.47,359.36,353.76,356.71,353.76Z"/><path class="cls-4" d="M348.5,532.15l0-1.21a14.51,14.51,0,0,0-1.46-4.75c-1.19-2.82-2.54-6-1.19-9,.93-2.06,3-3.59,6.2-4.66,1-.33,2-.59,2.91-.83l3.64-1-.16,2.77a10.41,10.41,0,0,0,0,1.12,9,9,0,0,1-.44,3.59c-1.29,3.35-2.73,6.69-4.13,9.93l0,.12-1.47,3.41-.48,1.12Z"/><path class="cls-4" d="M301.45,1176.43a99.32,99.32,0,0,1-25.12-3.6c-3.4-.9-6.35-3.63-8.53-7.9-3.69-7.21-4.49-17.76-1.88-24.54,7.25-18.76,31.82-27.31,51.58-27.31,10.76,0,20.45,2.36,27.28,6.64,8,5,10.4,13.4,12.5,23l.12.56-.18.53c-4.85,13.7-16.74,20.93-28.86,26.71A61.18,61.18,0,0,1,301.45,1176.43Z"/><path class="cls-4" d="M134.23,1176.86c-27.65,0-53.43-12.63-62.37-24.84-9.51-13-8.32-38.78,2.48-54.16,10.58-15.06,22.48-24.9,36.38-30.07a6.88,6.88,0,0,1,2.43-.4,20.25,20.25,0,0,1,4.35.65,16.51,16.51,0,0,0,3.21.53,1.83,1.83,0,0,0,.9-.17c1-.59,1.36-1.07,1.4-1.33.1-.55-.91-1.78-1.64-2.68a10.35,10.35,0,0,1-2.57-4.57,31.82,31.82,0,0,0-1.92-6.07,45.14,45.14,0,0,1-1.81-5.33c-8.48-34.11,10.53-69,44.23-81.17,15.5-5.6,29.52-8.32,42.86-8.32a93.56,93.56,0,0,1,9.36.46c18.42,1.85,31.32,8.24,39.43,19.53,3.14,4.39,6.32,6.52,9.7,6.52,3.67,0,7.59-2.44,11.38-4.8,1.13-.7,2.29-1.43,3.46-2.1a64.21,64.21,0,0,1,32.19-8.77,66.62,66.62,0,0,1,15.93,2c5.28,1.31,6.33,7.26,7.26,12.51a33.47,33.47,0,0,0,1.7,6.93c3.81,8.92,7.33,18.1,10.73,27,3.32,8.67,6.73,17.59,10.4,26.21,2.46,5.76,1,10.84-.37,15.32-.4,1.35-.77,2.62-1,3.87-2.81,13.48-6.18,27.7-13.58,40.34A9.4,9.4,0,0,1,336,1107l-1.22.85-1.16-.92a87.73,87.73,0,0,0-15.64-9.82l-1.51-.74.47-1.62c3.65-12.36,4.19-24.7,4.42-36.29.22-10.45.45-21.24-2.35-31.57a5.32,5.32,0,0,0-.73-1.66l-.48.27c-2.14,1.17-2.74,1.73-2.46,3,3.16,14.64,1.77,29.3.2,40.45-.5,3.56-1.15,7.16-1.77,10.64-.71,4-1.45,8-2,12.05l-.31,2.51-2.37-.89a96,96,0,0,0-12.1-3.63l-1.55-.36v-1.59c0-21-2.57-38-8.18-53.76-2.06-5.75-3.41-6.61-4-6.61a1.4,1.4,0,0,0-.4.09c-.8.32-1,.67-1.12.9-.5,1.2.57,3.7,1.28,5.36a21.61,21.61,0,0,1,.94,2.43,172.72,172.72,0,0,1,6.12,43.37c0,2,.11,4.11.19,6.2l.1,2.64L288,1088a105.43,105.43,0,0,0-14.32-1c-1.09,0-2.19,0-3.3,0l-1.76,0-.28-1.74c-3.07-19.75-8.92-36.41-17.87-50.92-.15-.24-.31-.52-.48-.83a7.61,7.61,0,0,0-1.54-2.22l-.2.12c-2.86,1.9-2.15,4,0,7.92.34.61.65,1.19.9,1.72,6.08,12.89,10.07,27,12.56,44.42l.29,2-2,.25a128.07,128.07,0,0,0-15.78,2.92l-1.69.42-.65-1.62c-6.16-15.56-14.63-33.16-30.69-45.82a3.53,3.53,0,0,0-2-.94c-.17,0-.68,0-1.47.86s-1.1,1.18.62,3c13.33,14,21.09,30.29,26.93,44.41l.82,2-2,.68a105.44,105.44,0,0,0-18,7.75l-1.58.87-1-1.48c-8.93-12.8-19-27.31-33.75-37.13-.19-.12-.58-.38-.89-.56a.14.14,0,0,0,0,.06,6,6,0,0,1-1.26,1.78c-.12.13-.28.3-.38.43a3.94,3.94,0,0,0,.63.68c11.25,10,21.5,22.16,31.34,37.27l1,1.62-1.58,1.11a66.62,66.62,0,0,0-12.86,11.64l-1.65,2-1.5-2.08a233.36,233.36,0,0,0-29.38-33.07c-2.07-1.94-5.32-3.58-7.1-3.58-.22,0-.61,0-.76.2a1.87,1.87,0,0,0-.59,1.12c.09.7,1.72,1.88,2.81,2.66a20.92,20.92,0,0,1,2.67,2.15c9.59,9.71,19.1,21.22,29.92,36.21l.77,1.06-.67,1.13a49.09,49.09,0,0,0-6.06,16l-.48,2.62-2.38-1.19a16.29,16.29,0,0,1-6-5.83c-7.6-11.5-18.6-20.34-29.23-28.88-4.08-3.28-8.27-6.65-12.23-10.13a6.68,6.68,0,0,0-4.28-1.71,3.21,3.21,0,0,0-2.42.9,1.13,1.13,0,0,0-.22.28,9.31,9.31,0,0,0,2.1,1.75c.52.37,1.06.74,1.53,1.14a494,494,0,0,1,46.3,44.86,5.16,5.16,0,0,0,.39.41,3.42,3.42,0,0,1,1.29,2.85,3.67,3.67,0,0,1-2.08,2.46,14,14,0,0,0-2.53,2.19c-1.73,1.73-3.69,3.69-6.29,3.69a5.88,5.88,0,0,1-3.87-1.6c-12.55-10.88-26.72-18.8-40.16-26a11,11,0,0,0-5.2-1.36,10.16,10.16,0,0,0-4.85,1.25,10.8,10.8,0,0,0,.67,1.36c8,1.54,14.46,5.89,20.7,10.09,2,1.34,4,2.72,6.09,4A226.49,226.49,0,0,1,163,1160a2.15,2.15,0,0,1,.78,1.93c-.15,1.52-3.23,8.58-6.66,10.35C151.29,1175.27,143.36,1176.86,134.23,1176.86Z"/><path class="cls-4" d="M319,574.94a3.55,3.55,0,0,1-2.79-1.23,5.38,5.38,0,0,1-.89-4.46c1-14.74,7.48-27.32,13-36.64,1.61-2.66,3.38-5.26,5.87-5.26,3.4,0,4.38,4.68,4.7,6.21.21,1.05.54,2.14.85,3.19a35.33,35.33,0,0,1,1.09,4.37c1.77,10.89-9.32,29.62-19.77,33.4A6.17,6.17,0,0,1,319,574.94Z"/><path class="cls-5" d="M332.19,1108.17a14.7,14.7,0,0,1-4.86-1.12,11.68,11.68,0,0,0-3.48-.88l-.32,0a6.34,6.34,0,0,1-.76,0,16.74,16.74,0,0,1-1.77-.13,14.38,14.38,0,0,0-1.56-.12,4.13,4.13,0,0,0-3,1.22l-.91.81-2.75-2,.49-1.11a77.73,77.73,0,0,0,3.74-10.16l.67-2.29,2.13,1.06a91.41,91.41,0,0,1,16.36,10.26l2.1,1.67L336,1107A6.61,6.61,0,0,1,332.19,1108.17Z"/><path class="cls-4" d="M282.11,1256.85h-.76A42.72,42.72,0,0,1,251.78,1243a32.38,32.38,0,0,1-8.72-24.58c0-18.44,17.69-37.34,35-37.48h.39c12.4,0,23.32,4.31,30.75,12.13,7.1,7.48,10.52,17.74,9.9,29.68C318.2,1240,299.88,1256.85,282.11,1256.85Z"/><path class="cls-5" d="M299.86,1108.72c-2.13,0-3.63-.6-4.57-1.81-1.47-1.89-.86-4.32-.37-6.27a9.28,9.28,0,0,0,.33-1.6c.17-4.2.25-7.92.26-11.37v-2.5l2.44.56a100.18,100.18,0,0,1,12.6,3.79l1.49.55-.21,1.58c-.32,2.52-.53,4.82-.63,7-.4,9-6.58,10-11.2,10Z"/><path class="cls-4" d="M259.75,1348.55a2.55,2.55,0,0,1-2.41-1.8c-.29-.67-.59-1.33-.88-2-2.14-4.7-4.33-9.51-.47-17.11l.92-1.82c6.15-12.14,12-23.61,22.22-32.84a59.81,59.81,0,0,1,5-3.87c.76-.55,1.51-1.08,2.24-1.63l2.18-1.64.91,2.58c.33.94.69,1.87,1,2.8a45.84,45.84,0,0,1,2.28,7,24.59,24.59,0,0,1,.25,6.24c0,1.53-.1,3.43-.1,5.9v.12l0,.13c-1.83,11-4.6,27.56-24.11,34.49-3.29,1.18-5.28,2.06-6.46,2.59A6.46,6.46,0,0,1,259.75,1348.55Z"/><path class="cls-5" d="M273.23,1117.65c-.26-1-.59-2.06-.92-3.08a30.39,30.39,0,0,1-1.67-7.36c-.45-7.87-1.19-15-2.26-21.85l-.34-2.24,2.26-.07c1.15,0,2.29,0,3.42,0a108.58,108.58,0,0,1,14.87,1l1.67.23.06,1.69c.25,8,.32,15.86-1.6,23.32-1.18,4.56-5,6.13-8.34,7.51a20.85,20.85,0,0,0-4,2l-2.37,1.71Z"/><path class="cls-4" d="M242,1531c-.79,0-1.57-.08-2.32-.15s-1.31-.13-1.89-.13H235.2l.66-2.5c.14-.54.33-1.09.52-1.63a7.5,7.5,0,0,0,.58-2.42c-.4-10.55,2.51-20.39,5.33-29.91.88-3,1.78-6,2.57-9,2.77-10.68,8.9-19.16,14.81-27.36,1.14-1.57,2.26-3.13,3.37-4.71s2.51-3.23,3.78-4.71c.56-.65,1.09-1.26,1.59-1.87l1.51-1.85,1.55,1.82c5.65,6.64,11.62,15,13.07,27,1.61,13.24-7.74,38.55-19.88,47.27-5.12,3.68-10.67,6-16.05,8.17-1.22.5-2.44,1-3.66,1.52A7.35,7.35,0,0,1,242,1531Z"/><path class="cls-4" d="M248.76,1326.71c-6.9-14.62-16-31.18-31.38-43.1l-.33-.26c-1.79-1.37-4-3.08-4.2-5.32a3.51,3.51,0,0,1,1-2.72l.58-.64c3.88-4.23,8.28-9,13.68-10.88a62,62,0,0,1,20-3.64c13.27,0,24.86,5.41,34.46,16.08.12.14.26.28.4.42a5,5,0,0,1,1.9,3.6,4,4,0,0,1-1.59,2.89c-13.2,11.27-26.46,23.89-30.78,43.16l-1.27,5.68Z"/><path class="cls-5" d="M257.84,1137.66c-1.1-3.53-2.17-7.14-3.21-10.63l0-.13c-2.3-7.75-4.69-15.77-7.49-23.49-1.73-4.74-3.43-9.37-5.21-13.85l-.84-2.13,2.21-.55a132.67,132.67,0,0,1,16.27-3l1.94-.23.28,1.94c.46,3.21.88,6.61,1.27,10.39.88,8.56,1.81,16.23,4.14,23.48,1.63,5-.72,8.43-2.8,11.44-1.44,2.1-2.69,3.91-2.61,6.12l.05,1.31-3.57.61Z"/><path class="cls-4" d="M234.46,1489.4c-6.32-14.06-12.07-25.51-19.6-35.67a16.7,16.7,0,0,1-.93-1.46,5.25,5.25,0,0,0-1.14-1.57c-6.91-4.45-9.78-8.08-9.31-11.77s4.45-6.66,13.24-9.54a46.13,46.13,0,0,1,14.41-2.33c9.11,0,18.15,2.7,26.86,8,3.27,2,4.93,4.1,5.08,6.43.22,3.47-3,6-5.8,8.3-1.58,1.27-3.21,2.58-3.7,3.61-1.6,3.39-3.51,6.66-5.35,9.82-4.39,7.54-8.93,15.34-9.95,25.54l-.75,7.45Z"/><path class="cls-4" d="M209.58,1200.4a65.91,65.91,0,0,1-14.75-1.66c-1.27-.29-2.56-.57-3.86-.84-10.73-2.26-22.89-4.82-24.91-20.55-2.24-17.37,11-23.39,21.62-28.23l2.25-1a49.8,49.8,0,0,1,21.16-4.57c9.69,0,20.12,2.43,32.81,7.65,10.17,4.19,15.41,11.76,15.14,21.88-.08,13.77-11.17,18-20.09,21.46l-.22.09A81.47,81.47,0,0,1,209.58,1200.4Z"/><path class="cls-3" d="M247.27,671.35c-.26-.16-.53-.3-.8-.44a8.59,8.59,0,0,1-2.32-1.59A704.7,704.7,0,0,0,189,617.73c-9.44-7.83-18.43-16.52-27.12-24.92-3.92-3.79-7.91-7.64-11.91-11.39L148,579.6l2.29-1.36c.48-.28,1-.58,1.42-.88a28.66,28.66,0,0,1,3.53-2c4-1.81,6.21-3.38,6.68-4.68a1.11,1.11,0,0,0-.07-.92c-.62-1.28-1.1-1.28-1.33-1.28-1.05,0-2.67,1.06-4.1,2A28.43,28.43,0,0,1,154,572a9.6,9.6,0,0,1-4.33,1c-7.87,0-18.86-8.25-24.49-18.39-12.4-22.3-2.49-39.95,7.53-52.84,11.07-14.22,18.89-31.66,24.6-54.86,5.63-22.86,16.41-44.45,32-64.17a225.77,225.77,0,0,0,13.94-20.57c2.12-3.38,4.3-6.87,6.56-10.29a17.62,17.62,0,0,1,2.18-2.57c.3-.31.59-.61.87-.93l1.57-1.74,1.48,1.82c.73.91,2.28,1.53,3.78,2.13,2.71,1.08,6.43,2.57,6.06,6.88-2.11,25.36.4,51,2.82,75.71.49,5,1,10.06,1.44,15.1.73,8.08,1.15,16.27,1.55,24.19.39,7.69.79,15.65,1.48,23.44,2.35,26.68,5.14,53.64,8,81.21.62,5.91,1.48,11.92,2.32,17.73.52,3.63,1.05,7.31,1.52,10.94a5.84,5.84,0,0,1-.44,2.74c-.09.27-.17.49-.22.7l-.71,2.9-2.41-1.77-.63-.42a10.05,10.05,0,0,1-1.86-1.47c-1.69-1.83-3.41-3.65-5.13-5.47l-.23-.24c-14.11-14.94-28.69-30.39-33.73-51.91-3.39-14.56-3.46-29.38-.19-45.3,1.36-6.66,3.28-13.32,5.13-19.76,4.26-14.79,8.65-30.06,6.4-45.84-.13-.91-.25-1.83-.37-2.76-.9-6.87-1.83-14-6.64-19.45-.29-.33-.58-.69-.87-1.06a10.29,10.29,0,0,0-1.51-1.65l0,0a7.43,7.43,0,0,0,.09,4.85c5.75,13.62,6.5,28,2.44,46.58L202.75,472l-2.53-5.11c-1.46-2.94-2.7-5.93-3.9-8.82-3.13-7.53-6.09-14.63-12.21-19.76-1.71-1.42-2.51-1.53-2.71-1.53s-.12,0-.23.11a5.17,5.17,0,0,0,.14,3.27c5.2,6.59,8.1,14.29,10.9,21.73,2.12,5.64,4.31,11.45,7.47,16.61,1.64,2.66.24,6.29-1.24,10.13a36.86,36.86,0,0,0-1.55,4.57c-1.74,7.58-3.42,15.13-5.19,23.12l-2.14,9.62-3.49-.15-.17-1.24c-2-15-7.39-28-14.84-42.9a23.38,23.38,0,0,1-1.06-2.7c-.93-2.73-1.6-4.38-3.05-4.38a4.46,4.46,0,0,0-1.32.25c-1.15.39-1.34.76-1.34.76-.15.45.88,2.08,1.31,2.78a12,12,0,0,1,1.45,2.76c4.8,15.47,10.14,31.75,17.34,52.79,5,14.73,11.32,31.61,22.27,45.7,12.51,16.1,23.55,29.09,36.82,40.16,1.62,1.35,2.24,3.83,2.48,5.68,1.49,11.64,3,24.21,4.92,40.76a7.74,7.74,0,0,1-.38,3c-.08.32-.16.6-.22.88l-.55,2.84Z"/><path class="cls-4" d="M244.65,1351c-.5,0-1,0-1.57-.06s-.88-.06-1.29-.06a5.74,5.74,0,0,0-.6,0l-.1,0H241c-16.36,0-37.11-19.82-38.29-36.56-.07-.9-.14-1.79-.2-2.67-.6-7.67-1.16-14.84,2.3-22.94,1.06-2.48,2.81-5.78,5.7-5.78s4.45,3.22,5.38,5.15c.1.21.22.46.3.61a165.32,165.32,0,0,1,32.52,54.84c.59,1.63,1.24,4,0,5.75S245.44,1351,244.65,1351Z"/><path class="cls-5" d="M250,1147.44c-14.82-1.48-18.77-12.48-22.25-22.19-1.59-4.43-3.23-9-5.81-12.52s-5.26-7.34-7.78-11l-1.91-2.75,1.94-1.07a109.56,109.56,0,0,1,18.65-8l1.77-.58.71,1.71c2.13,5.16,4.15,10.46,5.87,15,5.76,15.27,9.15,27.32,11,39.08l.4,2.56Z"/><path class="cls-3" d="M206.83,1273l-1.48-1.77c-.76-.9-1.36-1.61-1.93-2.37-2.69-3.65-5.54-7.31-8.3-10.84-6.51-8.35-13.23-17-18.51-26.3-5.55-9.81-11.49-21.61-13.43-34.8a3.89,3.89,0,0,1,.74-3.27,2.84,2.84,0,0,1,2.2-1,4.28,4.28,0,0,1,2.66,1.07c8.3,6.81,18.1,9,30.05,11.27,7.23,1.35,9.47,6.8,11.44,11.61a23.69,23.69,0,0,0,3.39,6.39c2.1,2.45,4.09,5,6,7.52,5.11,6.64,10.39,13.5,17.93,17.86a7.47,7.47,0,0,1,2.08,2c.2.24.39.48.59.69l1.47,1.55L240.1,1254a8.09,8.09,0,0,0-.73.72,6,6,0,0,1-3.13,2.09c-8.2,1.53-18.49,4.52-25.19,14a7.11,7.11,0,0,0-.45.89c-.12.29-.26.6-.43.95l-1.36,2.81Z"/><path class="cls-4" d="M206.3,944.7a3.63,3.63,0,0,1-2.69-1.1,4.79,4.79,0,0,1-1.13-3.48c.74-17.69,2-36.45,8.38-54.23a8.37,8.37,0,0,0,.32-2.61,10.11,10.11,0,0,1,1.74-6.2c2-2.77,4.11-4.12,6.43-4.12,2.48,0,4.89,1.59,7.35,4.87a43,43,0,0,1,8.81,29.23c-.31,16-11.74,31.65-27.18,37.24A6.08,6.08,0,0,1,206.3,944.7Z"/><path class="cls-4" d="M223.58,1531.07l-.09,0c-17.89-3-39-16.71-43-39.72-1.77-10.13-1-19.18,2.51-31.25,1.71-5.8,5.19-13.27,12.07-15.83a3,3,0,0,1,1.07-.19c4.37,0,11.64,10.44,12.46,11.63l2,2.88c9.05,13.19,18.42,26.81,21.78,43,1.33,6.48.2,13.36-.89,20-.36,2.16-.76,4.59-1,6.87-.25,2-2.39,2.22-5.11,2.51-.49,0-.89.09-1.14.14l-.25,0Z"/><path class="cls-5" d="M225.81,1140.5a8.82,8.82,0,0,0-5.36-1.34c-1.13,0-2.33.09-3.49.18s-2.46.18-3.68.18c-3.17,0-7.14-.56-9.66-4.94a196.5,196.5,0,0,0-11-16.95l-.92-1.26,1-1.2a70.81,70.81,0,0,1,13.62-12.34l1.7-1.18,1.13,1.73c3.84,5.9,7.66,12.28,11.67,19.49a14.75,14.75,0,0,0,2.49,3,18.17,18.17,0,0,1,3.21,4,20.66,20.66,0,0,1,1.85,6.15c.16.82.32,1.65.51,2.42l1.31,5.24Z"/><path class="cls-4" d="M194.8,915.69c-8.52-12.57-18.18-25.31-34.12-31a3.6,3.6,0,0,1-2.62-2.54c-.37-1.82,1-3.14,2-4a4.8,4.8,0,0,0,.45-.44c8.18-9.73,18.73-14.87,30.5-14.87A47.33,47.33,0,0,1,205,865a6.81,6.81,0,0,0,1.9.16h.46c.5,0,1,0,1.6,0l2.9.16L210.66,868c-4.35,9.72-6.43,20.08-8.45,30.1-1.13,5.63-2.29,11.4-3.82,17l-1.15,4.17Z"/><path class="cls-3" d="M151.62,442.19l-.1-1.3c-.36-5.07-.88-9.88-1.38-14.53-1.61-15-3-28,1.36-41,2.45-7.24,7.88-12.63,13.12-17.84,2-2,4-4,5.81-6,4.66-5.33,9.17-11,13.53-16.46,2.79-3.5,5.68-7.13,8.61-10.67.25-.3.55-.72.87-1.17,1.43-2,2.66-3.72,4.41-3.72a2.54,2.54,0,0,1,2.3,1.51,18.18,18.18,0,0,0,3.48,4.29c3.59,3.67,8.5,8.7,2.2,17Q202,357.32,198,362.37l-.11.15c-14.63,18.87-29.76,38.38-38.51,61.33a58.86,58.86,0,0,0-2.29,9.33c-.44,2.3-.94,4.88-1.64,8l-.28,1.27Z"/><path class="cls-5" d="M185.91,1144a9.73,9.73,0,0,1-4.53-1.08l-1.33-.67.26-1.47a53.23,53.23,0,0,1,6.56-17.33l1.55-2.65,1.79,2.49c2.67,3.7,5.43,7.61,8.67,12.3.8,1.16,1.62,2.67.86,4.13a3,3,0,0,1-2.88,1.46c-.29,0-.61,0-.9,0l-.31,0-.8.35C191.81,1142.8,188.93,1144,185.91,1144Z"/><path class="cls-4" d="M194.77,947.16a5.67,5.67,0,0,1-1.44-.22l-.3-.08-1.44,0c-23.09,0-40.51-18.73-40.53-43.57l-.06-.89c-.31-4.38-.83-11.72,5.25-13.93A7.8,7.8,0,0,1,159,888c4.64,0,8.61,3.84,12.12,7.22l1.13,1.08c13.76,13,26.08,26.48,25.72,47.17C197.87,946.19,196.26,947.16,194.77,947.16Z"/><path class="cls-4" d="M182.43,247.13c-2.14,0-3.48-1.94-4.37-3.23-.18-.27-.33-.48-.47-.66-15.89-20-22.37-39.64-20.37-61.67-1.17-4.55-1.05-7.52.35-9.35a4.63,4.63,0,0,1,3.85-1.76c2.19,0,5,1.06,8.82,3.32,12.56,7.43,21.09,19,24,32.69a48.52,48.52,0,0,1-8.3,38.5A4.36,4.36,0,0,1,182.43,247.13Z"/><path class="cls-4" d="M175.54,706.21a5.51,5.51,0,0,1-4.09-2.15c-1.46-1.62-3.69-2.73-6-3.91-5.85-2.91-13.14-6.53-12.29-20.17l0-.24.09-.29c.92-2.38,1.88-5,2.9-7.85,2.88-8,6.45-17.83,11.22-27,1.1-2.14,2.52-2.59,3.52-2.59,2.39,0,4,2.5,5.47,4.71a13.59,13.59,0,0,0,1.24,1.73c5.74,4.89,9.49,14.9,10.05,26.78.54,11.49-2.1,22.15-6.88,27.81C179.49,704.51,177.76,706.21,175.54,706.21Z"/><path class="cls-4" d="M144.58,265.9c-15.07,0-27.36-6-36.53-17.93a38.54,38.54,0,0,1-3.16-5.05c-.43-.79-.86-1.56-1.31-2.31l-1.28-2.13,2.35-.79c1.33-.46,2.7-1,4-1.56,3.12-1.27,6.34-2.58,9.74-2.85,4.79-.39,9.16-.58,13.37-.58,12.19,0,22.71,1.62,32.16,5,3.86,1.37,6.5,5.23,9.3,9.32,1.29,1.87,2.62,3.81,4.11,5.59l1.65,2-2.31,1.12c-1.95,1-3.9,2-5.78,3.12-4.42,2.5-8.57,4.85-13.26,5.77A67.9,67.9,0,0,1,144.58,265.9Z"/><path class="cls-4" d="M142.06,724.68c-9.56,0-19.55-3.22-29.69-9.58-11.07-7-14.94-19.57-17.08-29.79a3.73,3.73,0,0,1,.59-3.26,3.49,3.49,0,0,1,2.83-1.19,9.84,9.84,0,0,1,2.19.31l.31.06c25.48,5.25,46.79,14.07,65.14,26.94a9.7,9.7,0,0,0,3,1.08c.67.16,1.35.34,2,.57l3.48,1.16-2.86,2.3C162.56,720.85,152.5,724.68,142.06,724.68Z"/><path class="cls-4" d="M144.24,688.76a2.17,2.17,0,0,1-1-.21,148.61,148.61,0,0,0-44.71-12.68,4.34,4.34,0,0,1-3.5-2.21c-1.54-2.84.45-6.95,2-10.25.3-.61.56-1.15.75-1.59C106,642.45,120,632.93,143.21,631l.26,0,.33.05c1.27.33,2.62.62,4.06.92a54.53,54.53,0,0,1,12.1,3.57,6,6,0,0,1,3.54,3.74c.76,2.76-1,5.41-2.32,7.34a13.22,13.22,0,0,0-.86,1.39q-1.2,2.56-2.43,5.11c-4.95,10.32-9.62,20.06-9.2,31.59a3.19,3.19,0,0,1-1.06,2.29C147.56,687,145.83,688.76,144.24,688.76Z"/><path class="cls-4" d="M100.19,233.05c-3.68,0-4.13-4.34-4.4-6.94a14.48,14.48,0,0,0-.25-1.83c-5-18,12.16-47.8,30.62-53.15a27.57,27.57,0,0,0,5.07-2.29c2.48-1.32,4.81-2.56,7.3-2.56a6.62,6.62,0,0,1,2.39.43,12.44,12.44,0,0,0,1.92.14c.64,0,1.26,0,1.84-.07s1.17-.06,1.69-.06a5.3,5.3,0,0,1,4.29,1.59c1.26,1.47,1.53,3.74.92,7.59-2.73,17-1.15,30.12,5,41.16,1.3,2.32,1.66,6.43.11,8.62-1,1.43-3,1.62-4.56,1.62-1,0-1.93-.08-2.8-.14l-.7-.06c-5.76-.39-10.15-.57-14.24-.57-12.8,0-23,1.92-32.2,6.05A4.88,4.88,0,0,1,100.19,233.05Z"/><polygon class="cls-2" points="6 8.83 58 60.83 58 1619.17 6 1671.17 6 8.83"/><path d="M244.42,359.07c-4.16,0-8.33-2-12.5-2-1.49,0-3-.31-2.72,2.22.88,8.89,1.39,17.82,2.36,26.71,2.1,19.24,4.74,38.43,6.51,57.7,1.56,16.85,1.79,33.81,3.39,50.65,2.14,22.51,4.47,45,7.82,67.39,2,13.11,2.82,26.24,4.26,39.35,3.25,29.42,7.48,58.73,11.57,88,1.87,13.48,3.93,27,6.66,40.3,3.35,16.4,7.32,32.68,11.33,48.94q7.17,29,14.87,58c5.51,20.54,11.92,40.85,16.93,61.5,4.66,19.18,9.88,38.42,15.8,57,5.74,18,11.48,36.48,19.71,54,10.77,23,16.56,48.24,27.2,71.27,15.54,33.65,30.17,67.85,49.66,99.58,13.67,22.28,25.05,45.87,40.06,67.45,13.55,19.5,28.82,38.1,40.39,58.55,8.77,15.5,19.64,15,32.33,13,29.54-4.62,59.25-7.39,89-9.83,14.84-1.22,29.57-3.64,44.4-4.85,24.08-2,48.22-3.34,72.32-5.18,2.48-.19,9.22,1.62,5.38-4.76-12-19.94-24.9-39.34-37-59.24-11.15-18.36-21.69-37.1-32.53-55.65-7.28-12.46-14.95-24.71-21.88-37.37-14-25.64-28.61-51.06-41.23-77.4-9.06-18.88-16.81-38.59-25.66-57.49-9.25-19.78-15.43-40.49-23.67-60.5-9-21.8-14.5-44.83-19.86-67.86-5.1-21.93-12.33-43.37-17.65-65.26-5.09-21-9-42.24-13.29-63.4q-4.62-22.71-8.94-45.48c-3.49-18.58-7.09-37.15-10.07-55.81q-4.61-28.85-8.06-57.86c-2.67-22.41-5.83-44.85-6.73-67.36-.68-17.1-2.66-34.09-2.54-51.35.12-18.69-3.3-37.51-3.65-56.48-.26-14-2.49-27.88-1.05-42,.12-1.08,3.21-6.28-2.58-6.58-8.9-.46-17.77-1.52-26.66-1.89-19.71-.82-39.44-1.34-59.15-2-18.13-.64-36.25-1.74-54.39-1.93C304.54,360.83,274.48,359.07,244.42,359.07Zm90.47,746.26a7.53,7.53,0,0,0,2.1-2.43c7.23-12.33,10.51-26.11,13.35-39.74,1.15-5.53,4.38-11.29,1.52-18-7.47-17.55-13.63-35.65-21.13-53.18-2.67-6.24-1.5-16.78-7.6-18.29a61.92,61.92,0,0,0-46.65,6.59c-8.71,5-17.44,13.34-27.16-.19-9-12.52-23.49-17.25-38-18.71-17.48-1.75-34.68,1.73-51.34,7.75-32.43,11.71-51.19,45.76-43,78.81,1,3.92,3.1,7.6,3.76,11.55.61,3.67,7.9,6.94,1.88,10.62-2.65,1.62-8-1.66-11.23-.45C96.33,1075.28,85.15,1086,76,1099c-10.23,14.56-11.6,39.43-2.51,51.83,14.19,19.36,61.07,30.78,82.76,19.64,2.8-1.44,5.93-8.64,5.56-8.93a222.24,222.24,0,0,0-21.73-15.17c-8.52-5.2-16.21-12.05-26.57-13.89-1-.18-2.37-4-2.18-4.16a12.37,12.37,0,0,1,13.32-.73c14.23,7.6,28.2,15.54,40.53,26.23,4.17,3.61,7-2.59,10.39-4.51,1.83-1,1-1.37-.1-2.64A488.75,488.75,0,0,0,129.34,1102c-1.88-1.6-6.07-3.38-3.58-6,2.14-2.31,6.49-2,9.49.67,14.42,12.66,31.11,23.23,41.81,39.4a14.29,14.29,0,0,0,5.22,5.15c4.11,2.08,8.21,0,12.85-2,.74-.31,4.53,1.07,2.11-2.43-2.85-4.12-5.72-8.21-8.65-12.27a57.21,57.21,0,0,1,5.67-8,198.16,198.16,0,0,1,11.09,17.12c4.56,7.92,15,.61,21.62,5.29-.68-2.73-.89-5.71-2.18-8.1-1.39-2.59-4.26-4.36-5.69-6.93-3.67-6.6-7.51-13.09-11.6-19.37a83,83,0,0,1,7.65-4.76c2.76,4,5.52,7.94,8.39,11.84,8.53,11.6,6.63,31.9,26.65,33.9-2.08-13.29-6.09-26-10.88-38.68-1.9-5-3.81-10-5.85-15,1.73-.59,3.51-1.14,5.36-1.67,1.66-.48,3.31-.92,4.93-1.32,1.82,4.59,3.53,9.25,5.23,13.91,4.09,11.26,7.21,22.88,10.77,34.34-.24-6.47,7.88-9.69,5.51-17-2.46-7.62-3.4-15.84-4.23-23.88-.36-3.46-.77-6.9-1.26-10.32,3.65-.44,7.18-.7,10.59-.8,1.13,7.24,1.85,14.6,2.28,22,.19,3.39,1.66,6.7,2.53,10.05,3.9-2.82,10.22-3,11.61-8.4,1.91-7.4,1.78-15.22,1.54-22.76,3.21.44,6.27,1,9.19,1.69,0,3.8-.11,7.61-.26,11.44-.1,2.43-3.1,7.58,2.62,7.6,4.65,0,9-.91,9.34-8.11.11-2.41.34-4.82.65-7.22a96.32,96.32,0,0,1,9,3.9,80.2,80.2,0,0,1-3.83,10.42c3.15-2.83,5.87-1.27,8.27-1.51C327.08,1103.82,331.29,1107.86,334.89,1105.33Zm132-751.65a17.07,17.07,0,0,0,3.73-4.68c7.1-12.63,14.85-24.89,22.74-37,1.41-2.17,3.44-6.48,7-4.72,4.4,2.18.94,6-.16,8.52a189.07,189.07,0,0,1-21,35.88,31.23,31.23,0,0,0-2.55,5.11c2.81-.3,4.79,2.23,8.7-.53,12.43-8.79,22.69-19.8,34-29.67,1.52-1.32,4.79-.63,7.24-.87-.22,1.8.25,4.29-.75,5.28-9.32,9.19-17.88,19.66-28.68,26.66-9.65,6.26-9.77,12.86-8.92,22.47.5,5.67,2.49,5.21,5.83,4.47,4-.89,7.77-3,11.75-3.42,23-2.26,42.26-12.12,57.19-29.27,12.33-14.15,19-31.42,15.12-50.25-3.65-18-17.83-27.88-33.35-35.58-19.63-9.75-39.84-13.56-60.14-2.66-5.42,2.91-10.88,6.88-13.29-.46-3.07-9.31-10.17-15.36-14.69-23.36-7.73-13.66-20.8-19.86-35.14-25.32-24.17-9.21-48.14-7.52-70.46,2.25-26.3,11.52-38.52,33.71-36.23,63.14.25,3.14-.13,11.11-5.33,7.8a187.32,187.32,0,0,0-46-21.65c-15.73-4.89-42.87-.61-52.67,12.87-14.72,20.27-14.1,36.54,1.67,57,3.26,4.22,5.4,10.09,11.46,10,11.08-.24,22-.53,33.14.85,13.45,1.67,27.1,1.94,40.67,2.33,2.9.08,9.51,1.53,8.58-1.59-3.66-12.3-9.27-24-14-36-1.68-4.26-6-8.71-1.89-13.22,2.54-2.78,3.94,1.39,5,2.93,7.33,10.27,11.71,21.89,15.81,33.77,1.95,5.64.27,15.32,9.66,15.31,5.95,0,18.8,7.39,15.78-8.69C334,326.52,329.81,312,325.8,297.5c-1-3.71,1.3-5.64,2.23-8.36,1.59.93,4.23,1.53,4.61,2.82,4.56,15.15,11.09,29.87,12.4,45.79a65.73,65.73,0,0,1,.14,9.11c-.08,1.47-.53,5.7,1.13,4.51,4.57-3.27,14.13,5.62,14.38-5.08.21-8.64-.06-17.33-.64-26a46,46,0,0,1,8.43-4.74c.51,11.39,0,22.87.8,34.25.47,6.66,7.33,1.72,10.75,3.9,1.65,1.06,2.76-.15,2.93-2.44,1-13.33,2.62-26.63,3.73-40,1.54-.11,3.13-.17,4.77-.17s3.28,0,4.88.13c-.62,7.84-1.54,15.68-2.46,23.55-.81,7-11.95,20.9,9.34,20.27,10.29-.31,5-7.09,6.4-10.27,4-9.34,6.9-19.12,9.85-28.88a80.46,80.46,0,0,1,8.67,3.64,213,213,0,0,1-12.67,35.77c5.27-7.52,13.66,10.13,20.44-5.18,2.94-6.65,6-13.28,9.12-19.91,2.91,2.31,5.57,4.68,8,7a55.93,55.93,0,0,1-5,7.92c-2.41,3.15-2.92,7.75-4.31,11.68C451.5,356.07,460.31,359.31,466.88,353.68Zm290.9,484c15.33-14.83,28.51-31.51,41.72-48.18,1.15-1.45,2.58-3.75,5.28-2,2.52,1.67,1.07,3.69.25,5.25-1.76,3.35-3.91,6.5-5.95,9.7-8.81,13.85-18.79,27.15-31.11,37.62-7.56,6.43-7,9.31-1,14.81,1.27,1.15.94,1.43,7.51-1.86,19.88-9.95,36.54-23.86,50.93-40.69.82-1,1-4.61,3.25-2.52a4.72,4.72,0,0,1,1.14,6.32c-5.25,9.38-12.38,16.75-20.56,23.44-8.81,7.21-16.48,15.78-27.63,20-3.66,1.38-7,3.17-5.88,10.35,2.2,14.12,13.23,9.4,19.79,10.48,13.75,2.25,27.76.8,41.61-3.19,17.32-5,28.71-16,37.94-30.69,9.7-15.43,9.71-31.66,5.87-48.54-4.36-19.14-14.25-34.84-28.77-48-9.06-8.21-19.89-13.28-30.84-17.72-6.73-2.73-14.63-2.71-22.05-3.41-1.48-.14-3,2.5-5,.12-1.74-2.1-1.71-4-.64-6.38a13.66,13.66,0,0,0,1.16-4.63c1.47-20.45-5.59-38.57-15.24-56-12.81-23.2-44.34-34.28-75.19-27.23C680,640.28,659.47,651.25,646.05,673c-5.38,8.72-7.36,18.76-7.89,29-.08,1.53.55,4-.13,4.43-1.74,1-3.42.28-5.58-.91-21-11.56-42.38-18.4-66.79-8.66-21.78,8.69-34.1,23.66-34.3,46.58-.21,24.28,13.49,41.78,32.68,55.21.8.55,2.6,3.75,5.65.86,6-5.67,13.43-9.26,20.89-12.85,2.83-1.35,10.21,0,8.07-5.89-4.56-12.51-3.19-26.33-9.3-38.44-1-1.91-2.22-5.86,1.31-7.39,4-1.72,3.85,2.26,5,4.34,6.19,11.1,6.91,23.71,9.12,35.77,1.5,8.21,6.57,8.12,12.33,8.4,1.75.09,1.72,0,1.85-8a48,48,0,0,1,.66-4.86,110.52,110.52,0,0,0-1.83-39.49c-1.08-4.46,1.11-6.36,3.2-7.53,2.43-1.37,3.46,1.83,4,3.89,4.82,17.16,6.05,34.53,2.22,52a8.75,8.75,0,0,0,0,4.23c.76,2.85,3.42,4.15,6.68,5.19,3.55,1.12,7.13,2.14,10.35,3.1q2.14-8.31,3.67-16.85a71.22,71.22,0,0,1,9.33-1.12q-1,4.37-2.49,8.62c-4.15,12.08.6,18.24,8.88,24.69,3.85,3,5-.17,5.11-2.24.39-6.39,3.29-12.26,5-18,1.18-4,2.18-8,3-12,3.07.45,6.29,1,9.67,1.82a181.45,181.45,0,0,1-5.32,20.47c-3.74,11.61-11.36,22.17-2,34.27,1.52,2,2.9,4.06,4.42,6,.06.07,1.16-.32,1.31-.69,6.06-14.75,12.76-29.28,17.92-44.34q1.71-5,3.31-10c1.09.38,2.19.79,3.31,1.21q2.91,1.1,5.59,2.23c-6.61,18-13.79,35.69-20.53,53.16,14.07-5.07,19.92-19,28.32-30.27a113.15,113.15,0,0,0,9-14.18,80.5,80.5,0,0,1,7.4,5.35,156.88,156.88,0,0,1-23,32.66c6.71,0,14.12,2.25,17.28-.46,6.62-5.68,10.62-14.27,16.36-21.1a44.48,44.48,0,0,1,5.2,9.42c-3,4.16-6,8.28-9,12.41-1,1.35-5.05,3.08-1.48,4.47,3.16,1.23,5.1,7.82,10.28,3C755.76,839.59,756.78,838.63,757.78,837.66ZM1024,8V1672a8,8,0,0,1-8,8H8a8,8,0,0,1-8-8V8A8,8,0,0,1,8,0H1016A8,8,0,0,1,1024,8Zm-8,1658.34V13.66l-48,48V1618.34ZM962.34,56l48-48H13.66l48,48H962.34ZM13.66,1672h996.68l-48-48H61.66ZM960,1594.9v-189a29.82,29.82,0,0,1-3.55-.32c-8.47-1.27-10.8-9.1-9.49-17.26,1.27-7.9,6.64-10.07,13-9.52V1256.5a13,13,0,0,1-2.22.16c-7.2-.12-15.69-2.75-14.73-13.15.84-9.15,1.49-19,14.85-18.61a12.7,12.7,0,0,1,2.1.25v-994c-10.19-.59-11.42-6.91-11.87-12.42-.49-5.92,4.3-9.52,9.78-9.58a18.17,18.17,0,0,1,2.09.11V64H816.79c2.77,2.3,4.38,6.08,4.39,11.73-.64,6-4.78,10.69-12,11.18-9.13.61-11.43-6.52-11.24-13.44.09-3.33.74-7,2.77-9.47H430.28c-9.79,19.71-19.4,39.52-29.27,59.19-9.12,18.19-17.13,36.92-28.42,54.07-4.68,7.11-8.16,15.07-13.83,21.64-.79.91-1,2.31-1.51,3.49a22.29,22.29,0,0,0,3.69-.45c29-8.2,57-4.62,83.19,9.47,12.94,7,22.57,18.64,28.76,32.07,6.07,13.17,14.52,9.55,25.16,7.14,15.95-3.61,31.84-3,47.53,5,14.47,7.41,27.41,15.67,36.72,29.15,9,13,7.82,42.21.36,56.56-11.35,21.89-29.7,35-51.1,44.29-10.14,4.38-22,7.49-32.85,6.82-14-.88-12.11,7.43-11.28,14.77,2.94,25.95,5.87,51.85,5.77,78,0,5.74,1.59,11.5,2.56,18,9.52-13.11,18.54-26.18,28.24-38.72,15.69-20.32,30.68-41.14,43.43-63.41,13.69-23.92,25.74-48.81,39.82-72.5,8.38-14.1,17.27-27.83,23.9-42.9,5.15-11.72,10.24-23.48,16-34.89,7.38-14.62,16.72-18.75,27.09-12.88,7.42,4.21,12.22,23,10.49,31.23-4.84,22.94-17.78,42-27.83,62.48-5.57,11.32-13,21.76-18.28,33.19-9.51,20.48-20.45,40.26-27.79,61.83-8.84,26-17.09,52.25-36,73.64-15.76,17.8-27.06,38.91-38.74,59.54-10,17.73-21,35.28-28.09,54.2-3.24,8.65,1.42,20.48,3.17,30.75,3.74,21.93,7.88,43.79,12,65.66.67,3.58,1.81,7.07,2.56,10,9.25-12.26,18.26-23.56,34.51-30.45,24.43-10.37,45.56-6.51,67.4,4.36,1.92,1,2.93,1.14,5.17-9.17,6-27.68,25.37-43.16,49.2-53.64,22.85-10,47.67-12,71.12-3.94,20.72,7.17,33.34,24.62,42.15,44.79,6.59,15.07,8.27,30.45,8.16,46.63-.06,8.66,9.18,4.73,13.37,5.43,16,2.68,28.57,10.47,41.13,20.31C876,758.92,885.61,777.69,890,799A74.81,74.81,0,0,1,885,845.94c-8.3,18.83-22,30-39,37.49-20.67,9-42.66,9.2-64.42,2.46-2-.64-4-2.33-4.48,1.62-3.31,25.6-31,44.72-56.52,37C708.7,921,695,919.84,686.17,908.91c-11.42,27.11,2.13,36.75,19.59,54.64,9.87,10.11,21.56,17.75,31.18,27.93,8.92,9.42,18.29,16.13,33.34,16.26,14.56.13,29.27,3.2,44.21,3,12.23-.15,22.83-5.63,34.17-8.41,13.57-3.33,25.65.79,38.14,3.3,22.44,4.53,30,23.4,38.59,41.26,2.15,4.5,5.59,8.41,7.57,13,6.29,14.45-4.19,22.5-12.87,30.54-17.71,16.42-35.92,32.31-54,48.35-21.12,18.74-42.52,37.19-63.43,56.17-20.18,18.32-39.89,37.17-59.85,55.75-1.52,1.41-2.11,2.22-.79,4.46,7.23,12.34,14,24.92,21.19,37.3,5.93,10.26-2.37,15.56-8.67,16-14.18,1.06-28.53,2.37-42.6,3.64-14.73,1.32-31.5-1.58-44.18,7.35-10.31,7.26-18,18.4-26.39,28.2-8.9,10.38-16.94,21.52-26,31.77-10.41,11.8-22.14,22.46-32.17,34.55-16,19.28-34.4,36.12-51.75,54-19.27,19.89-36.41,41.6-53.32,63.48s-31.8,44.87-50.41,65.47c-5.8,6.42-11.59,12.81-17.52,19H482.3a21.56,21.56,0,0,1-1.36-6.63c-.37-6.72,8.25-10.51,9.14-9.85,6.26,4.64,17.31,3.09,19,11.34a27,27,0,0,1-.45,5.14H629.16a20.23,20.23,0,0,1-1.79-6.51c-.77-6.93,3.19-12,7.51-11.16,12.69,1,16.69,5.69,16.16,14.19a15.4,15.4,0,0,1-.6,3.48H952c-3-2.19-4.84-5.73-4.77-10.81.1-6.21,2.37-12.48,10.94-10.06A16.26,16.26,0,0,1,960,1594.9ZM910.9,1085c5.74-5.18,15.79-10.52,13.34-17.54-5-14.4-13-28.11-21.58-40.85-9.47-14-26.46-12.41-40.8-15.32-11.45-2.33-21.32,5.84-32.06,7.39-16.42,2.36-32.87,4.07-49.93.89-17.65-3.28-34.12-7.26-47.6-19.72-15.44-14.27-32.14-27.09-46.65-42.44-8.27-8.75-14.94-18.67-14-30.24.84-10.65,3.75-21.24,3.33-32.12-.51-13.52-4.6-16.09-16.36-10.44-10.63,5.12-21.63,5.42-33,3.36-3.69,18.34-25.56,16.65-62.31-6.22,4.88,16.8,8.95,32.37,13.95,47.64,4.83,14.77,10.17,29.42,16.09,43.8,5.13,12.47,7.9,26.38,18.86,35.75,13.53,11.56,30.16,18.63,42.74,32,13.36,14.22,17.35,23.51,6.92,40.36-10.17,16.44-5.29,29.15,4.29,43.22,7.49,11,12.75,23.56,19,35.42.42.78,1,1.49,1.48,2.23a14.74,14.74,0,0,0,2.32-2.28,253.7,253.7,0,0,0,23.21-45.63c3.62-9.18,8.35-19.41,6-28.89-5.14-21-11.89-41.53-24.25-59.9-12-17.77-22.63-36.41-34.1-54.52-7.51-11.87-9.54-25.44-12.52-38.71-.32-1.41,2.16-4.78,3.59-4.94,2.32-.26,3.83,1.9,4.33,4.79,1.17,6.87,1.87,14.1,4.58,20.39,12.93,29.91,37.15,52.87,51,82.39,6.82,14.58,13.25,29.35,16,45,4.57,25.63-10.38,46.4-19.69,68.52-4.56,10.83-19.93,19-9,34,2,2.74,4.68,5.05,6.37,8,8.93,15.33,17.67,30.78,26.44,46.21,3.25,5.72,5.21,5.93,11.06,1.13,14.49-11.9,15.59-28.33,16.63-44.24,1.09-16.71-8.4-31.53-12.85-47.29-2.41-8.53-3.73-16.2,1.09-24.07,1.12-1.83,2.26-3.47,4.58-3,2.69.57,1.6,3,1.63,4.57.17,6.69-1.1,13.09,1.21,20.1,3.36,10.23,8.4,19.73,11.42,30.2,3.2,11.07,1.67,21.71,1.29,34.75,10.47-20.84,15.19-41,19.92-61.12s6.78-40.16-4.26-58.62c-8.45-14.15-7-27.27.63-40.42,1.78-3.06,3.71-8.57,9.09-7.09,3.66,1,1.24,5.35.49,6.34-12.87,16.88-4,32,3.35,47.3,11.12,23.05,2.92,45.62-2.46,67.9-2.74,11.32-5.18,22.93-10.62,33.58a31.79,31.79,0,0,0,7.74-7.13c14.71-19.61,30.07-38.79,43.73-59.11,13.15-19.56,30-35.68,45.16-53.36,4.15-4.84,5.36-11-.69-16.44-10.55-9.44-22.6-15.52-36.83-16.37-2.91-.17-6,1.58-8.81,2.89-.33.15.1,3.86,1.15,4.7,8,6.39,14.57,14.86,25.29,17.35A4,4,0,0,1,863,1074c-.19.88-1.26,2.16-2,2.22a24.67,24.67,0,0,1-14.91-3.15c-8.6-4.92-19-9.56-22.5-18.25-5.19-12.95,3.56-21.3,19.11-22,11.84-.51,21.23,5.85,31.38,10.14,8.9,3.77,16,10.49,18.63,19.28,3.3,10.9-1.84,21.32-10.29,27.93-21.14,16.54-34.63,39.22-50.58,60-.74,1-.33,2.82-.46,4.26.55,0,1.25.12,1.63-.16,4.64-3.52,9.5-6.8,13.8-10.71C868.2,1124.1,889.42,1104.4,910.9,1085ZM731,916.94c21.75,1.68,38-18.52,37.65-34.29-.4-19.86-19.85-44-60.62-40.46-11.52,1-30.19,20.33-29.65,32C679.62,901.67,702.33,913.57,731,916.94Zm-56.13-644.8c3.12-10.7,1.45-18.44-5.29-25.94-2.11-2.36-6.52-2.26-8.22-.41a68.65,68.65,0,0,0-15.91,28.3,132.41,132.41,0,0,1-15.87,36.58C617.93,328.91,608,348,597,366.58c-.33.55,0,1.5,0,2.26.64-.34,1.54-.52,1.87-1,7.1-11.64,17.8-20.18,25.23-32,11.09-17.66,17.66-37.77,30.67-54.23.86-1.09.91-2.92,2.73-2.75,2.41.21,1.58,2.27,1.42,3.52-2.07,16.06-13.22,28.1-19.2,42.51-6.21,15-16.22,27.81-28.26,39.42-11.23,10.83-19,25.16-29.77,36.57-12.14,12.88-19.76,28.69-30.44,42.48C538,460.42,525,477.81,513.1,495.87c-6.55,9.93-17.91,17.5-16.2,32.22,2.85,24.63,4.69,49.37,6.92,73.63,7.6-13.56,16-27.11,23-41.37,10.87-22.3,23.91-43.61,28.75-68.68,2.8-14.48,8.65-28.4,13.53-42.44,1.38-4,4.27-7.32,9.3-7.22,1.91,0,2.26,1,1.48,2.63-7.91,16.43-9.5,34.79-16,52.56,16.7-14.24,24.94-32.72,30.91-52.11A457.37,457.37,0,0,1,620.35,381c8.75-18.16,19.53-35.34,28.39-53.45C657.7,309.23,669,292.15,674.86,272.14Zm-19.35,605c15.74-8.79,24.66-25.38,19.14-37.52-9.63-21.15-22.44-37.52-47.42-43.45-22.41-5.33-36-3.46-47.87,15.8-7.79,12.61-2.13,24.11,5.55,35.42,13,19.19,29.09,32.73,53.21,33.94A34.39,34.39,0,0,0,655.51,877.11Zm-7.63,214.63c15.64-23.36-.88-58-32.55-65.93Zm-42.8,284c16.28-18.34,31.74-37.4,48.22-56.93-18.48,2.81-37.33-.25-54,6.6-8.26,3.4-13.1,14.35-18.38,22.87-12,19.42-23,40-39,56.22-17.84,18.1-39,32.84-57.19,50.66a273.15,273.15,0,0,0-41.94,52.42c-15.15,24.77-21.32,54.16-42.23,76.13A254.76,254.76,0,0,1,362.75,1616H399.5c14.78-15.33,28-32,40.89-49,19.07-25.08,37.25-50.87,57.1-75.31,14-17.28,29.76-33.19,45.68-48.92C564.79,1421.41,584.89,1398.47,605.08,1375.72Zm9.63-489.43a4.21,4.21,0,0,0-1-2.33c-7.51-4.52-14.39-10.29-21.86-14.46-18.55-10.38-27.57-39.12-23.66-56.27.63-2.77.53-5-1.77-5.66-9.83-3-16.78-10.1-25.07-16.45.13,2.62-.12,4.84.39,6.87,3.17,12.85,5.65,26,10,38.4,4.47,12.64.47,28.5,16.33,37.16,13.15,7.18,25.83,14.4,41.06,15.26C611,888.91,612.91,887.27,614.71,886.29Zm-32.63,444.57c.88-.8,1.27-2.13,1.88-3.22-1.08-.19-2.15-.47-3.23-.56-16.85-1.52-33.26,2.43-49.52,5.34s-22.33-8.24-30.09-17.56c-6.11-7.35-11.22-15.51-17-23.15-1.61-2.13-3.48-.79-5.06.76-9.2,9-18.24,18.11-27.72,26.77s-19.95,14.91-33.42,16.18c-6.16.58-11.73,6-18,7.42-11.38,2.62-21-4-30.58-8.54-13.13-6.25-27.11-10.68-39.3-19-9.19-6.3-19.14-11.51-29.31-17.55,2.46,13.51,0,27.51-8.17,37.47-18.09,22,7.64,15.78,12.8,19.08,12.42,8,43,35.19,41.89,50.31-.84,11.22-6.4,19.94-13,27.71-12.33,14.47-25.61,28.15-38.88,41.79-8,8.19-4.16,19.13-7.8,28.58-7.95,20.61-34.32,40.15-57.14,36.26-14.27-2.44-17.23,9.78-24.64,16-22.6,19-42.43,41-64.05,61.08h42.83c5.94-4.82,11.95-9.54,18.18-13.94q30.63-21.63,62.28-41.77c17.28-11,30.05-25.66,40.74-43.08,7.77-12.68,17.82-24.08,27.69-35.31,14.61-16.63,23.59-36.29,31.33-56.5,9.46-24.72,4-47.54-11-68.74-1.52-2.13-1.52-7.61.09-9.17,2.53-2.47,4.19,1.14,6.22,3.36,19.73,21.61,23.9,46.27,14.93,73.53-2.33,7.09-5.77,13.81-8.59,20.76a21.09,21.09,0,0,0-.8,4.41c1.53-.43,3.41-.43,4.54-1.36,14.8-12.13,27.84-26.08,40.17-40.61C421,1395,431,1381.94,440.68,1368.64c8.39-11.5,16-23.6,23.77-35.53,1.29-2,2.13-4.59,4.89-3.94,3.05.71,1,3.72,2.23,6.1-6.1,11.17-11.34,22.92-19,33.64-16.82,23.48-33.68,47-53.64,67.83-9.57,10-21.86,17.39-32.3,26.65A311.93,311.93,0,0,0,311.73,1528c-15.92,24.62-38.08,42.29-64.18,55.86-15,7.82-28.51,18.66-42.63,28.23-1.84,1.25-3.62,2.58-5.36,4h98.56c7.28-16.34,13.84-33,25.12-47.51,13.95-17.89,32.15-30.75,48.51-45.83,10.74-9.89,19.71-21.74,29.18-33,12.11-14.32,23.45-29.31,36-43.23,16.31-18.1,33.38-35.51,50.4-53,1.8-1.85,2-9,6.86-4.44,4.19,4-.65,7.19-3.05,10.79-21.48,32.08-51.89,56.41-75.05,87-12.48,16.49-25.24,32.73-40.8,46.43-10.53,9.28-22.43,17.11-32.32,27-15.93,15.93-26.25,35.46-35.38,55.72h37.76c7.57-5.93,16.16-10.73,23.37-17.07,9.82-8.61,18.39-18.14,27.29-27.56,10-10.58,15.26-23.43,20.83-36.2A284.11,284.11,0,0,1,457,1469.32c21.68-26.73,49.06-46.87,74.33-69.56,12.07-10.83,19.87-26.4,29.62-39.81C568,1350.25,573,1339.13,582.08,1330.86ZM475,1284.35c1.2-1.06,2.27-1.79.95-4-6.73-11.44-16.83-20.61-22.38-33.27,2.65,16.4-1.61,30.51-9.87,44.43-9.06,15.28-23.18,23.59-39,25-26.87,2.37-50.3-3.61-65.7-48.17-5.5-15.91,8.36-47.2,30.64-60.59,19.52-11.73,45.28-8,65.37,7.83-4.59-7.27-7.9-11.9-10.59-16.86-13.87-25.58-29-50.6-40.81-77.12-6.76-15.23-10.63-17.6-20.89-3.89-2.3,3.08-3,3.76-1.32,7.79,4.26,10,7.73,21-.5,30.76-13.42,15.93-29.87,26.75-52.23,27.18,11.09,6.12,20.88,27.85,18.25,40.69-4.13,20.12-15.17,34.16-36.05,39-2.76.64-5.35,2-8,3,11.65,4.9,9.54,20.79,22.36,26,17.25,7.06,32.67,18.61,50,25.55,17.92,7.21,34.63,25,57.12,9.47,6-4.15,16-2.82,21.7-7.18C448.41,1309.12,461.45,1296.38,475,1284.35Zm-30.27-23c-.68-18-6.57-32.35-20.46-41.76-5.23-3.54-14.27-12.72-17.16,3a133.85,133.85,0,0,0-2.55,18.52c-.84,20.28,2.83,39.66,12.95,57.5.51.89,2.65,1.88,3.26,1.52C436.1,1291.13,443.37,1277.18,444.74,1261.36ZM421,64H385.29a21.94,21.94,0,0,1-.55,2.39,351.2,351.2,0,0,1-21.89,59c-11.9,24.85-20.35,51-30.65,76.44-2.15,5.31-3.34,11-5.21,17.34,9.56-6.65,16.17-14.54,22.27-23.77,10.28-15.53,19.18-31.79,28.11-48,7.36-13.38,12.44-28,19.66-41.47C404.63,91.76,412.73,77.84,421,64ZM398.81,1221.83c1.7-9.55,3.76-10.57,1.37-10.72-11.7-.75-23.28,1.51-32.2,8.65-13.6,10.9-22.4,25.08-20.6,44,2.09,6.37,4,12.82,6.41,19.07.64,1.68,3.1,3.32,4.94,1.67,5.54-5,10.94-10.14,16.07-15.54A89.4,89.4,0,0,0,398.81,1221.83Zm12.05,82.5c-11.33-13-12.56-29.49-16.5-46.17-6.69,10.18-13.26,18.86-22.52,25.4-5.64,4-8.83,10.36-7.46,11.36C378.4,1305.14,393.46,1310.1,410.86,1304.33ZM377,64H352.55c-18.24,26.55-32.44,55.36-44.51,85-8.41,20.65-22,37.45-33.57,55.8L245.68,250.4c-.71,1.12-1.09,2.14.74,2.57,10.63,2.5,19.48,2.66,24.78-10.07,6.59-15.86,14.92-31,22.61-46.37.47-.95,1.79-1.46,2.72-2.18.42,1.33,1.38,2.75,1.18,4-3.51,21.11-12.31,40-24.47,57.42-.37.53-3.41,2.36.54,3.28,12,2.77,23.38,6.92,32.21,15.57A118.35,118.35,0,0,1,313.77,229C320.2,212.39,325,195.19,331,178.45c4.88-13.54,10.39-26.86,15.86-40.18,7.23-17.57,14.83-35,22-52.56C371.8,78.56,374.37,71.27,377,64Zm-6.05,1030.39c-3.62-9.17-7.16-18.19-10.81-27.16-.23-.55-1.4-.72-2.13-1.06a10.48,10.48,0,0,0-.89,2.49,92.87,92.87,0,0,1-7.72,30c-1.69,3.72-8,8.72-3.69,11.8C353.73,1116.28,370.82,1104.61,370.93,1094.39Zm-15.6,48.8c-2-9.08-4.19-17.13-11.61-21.78-20.45-12.81-66-6.14-75.93,19.7-3.8,9.84.26,27.47,9,29.78,17.09,4.47,34.3,5.66,50.66-2.14C339.38,1163.09,350.74,1156.16,355.33,1143.19ZM342.87,64H264.43a12.26,12.26,0,0,1,.15,1.93c-.07,6-3.57,12.11-10.72,11.8-5-.22-11.34-1.34-10.94-10.48a27.54,27.54,0,0,1,.73-3.25H162.42a9,9,0,0,1,.14,1c.79,9.48-5,17.21-14.43,17.51-5.81.18-9.4-6.72-9.32-14.62A25.91,25.91,0,0,0,139.87,64H64v8.19c.44,0,.89,0,1.37,0,9.28.09,10.94,6.76,12,13.46C76.62,90.94,76,95,69.78,96c-2,.32-3.94.64-5.78.81V361.64c1.11-2.84,3.09-5.06,7.64-5.55,6.84-.75,14.62-.93,14.69,8.12,0,6.5-1.4,14.73-11.4,14.85-4.63.05-8.6-.78-10.93-4.12v725.94a49.89,49.89,0,0,1,6.31-10.15c10.9-13.4,23.42-24.33,40.19-29.6,1.27-.4,2.31.14,1.17-2.17-5.53-11.2-6.51-22.58-5.68-35.49,1.3-20.13,10.34-35.48,23.65-48.1,12.74-12.09,29.28-19,48-23-13.26-5.53-22.73-13.45-28.15-26.12-6.25-14.6-6.86-28.66.14-43.12,10.31-21.3,28.72-31.67,50.33-27.27,20.95,4.27,13.52-14,20.78-20,2.16-1.77,2.83-5.27,4.47-7.79.44-.68,2.48-1.25,2.84-.9,1.32,1.27,2.84,2.58,1.92,5-3.13,8.3-5.38,17-9.26,24.92-4.73,9.64,5.26,9.8,8.44,12.78,13.77,12.88,18.52,40.56,9.07,57.21-7.05,12.44-14.95,18-23.71,23.3,16.14,1.35,30.38,7.83,40.12,18.87,8.76,9.94,14.41,6.45,22.27,1.36,10.29-6.67,21.8-9.64,33.83-7.52,11.53,2,9.67-4.93,7.91-11-5.6-19.1-12.11-37.93-17.61-57-6.44-22.36-14.75-44.61-17.52-67.48-2.8-23.18-18.93-32.3-34.28-44-12.52-9.53-23.29-21-34.1-32.47s-22.92-21.63-35-31.68c-4.92-4.07-7.65,3-11,4.88-21.48,12.34-55,8.67-70.63-16.41-16-25.64-10.36-52.05,8.93-70.55,12.26-11.76,34.93-16.17,52.11-9.74,24.79,9.28,38.29,31.29,35.42,58.77-.46,4.37-1.4,9.58-4.1,12.66-10.45,11.92.68,17.66,7.15,22.59,16.18,12.36,28.2,28.69,43,42.22,9.25,8.44,18.92,16.41,28.46,24.52.78.66,2,.78,3,1.15a10.41,10.41,0,0,0,.21-2.92c-3.23-14.44-6.33-28.91-9.86-43.28-4.52-18.45-8.62-36.93-10.34-55.93-.23-2.63-4.83-4.91-7.48-7.27-16.8-15-33.87-29.65-50.34-45-9.82-9.14-18.38-19.62-28.09-28.89a304.57,304.57,0,0,0-28.41-24.49c-23.08-17.13-37.16-47.43-18.29-75.52,5.52-8.23,10.79-16.62,16.15-24.94,7.61-11.8,6.5-25.27,6.66-38.26.17-14-.93-28.05-1.85-42.05-1.39-21,13-33.13,25.21-46.82,8.62-9.68,17.81-19.06,23.57-31,2.8-5.81,1-12,1.15-17.94.25-10.56,2.82-19.7,9.09-28.74,4.21-6.09-5.7-5.83-8.53-9.23-11.25-13.54-19.57,2.17-29.1,4.17-23.24,4.86-43.24,1-59.14-17.2-8.7-10-12-21.82-12.75-35.4-1.39-24,9.62-40,28.35-52.41s51.57-6.46,66.79,10.09C200,192.33,206.6,209.35,201,230.29c-1.87,7-3.84,14.17-9.49,19.45-1.47,1.37-1.45,2.84.17,4.18a29.66,29.66,0,0,1,3.57,3.12c9,10.29,17.23,6.87,28.4,1.87,11.47-5.14,13.18-15.61,18.92-23.47,13.79-18.89,25.07-39.57,38.38-58.82,14.48-21,21.69-45.38,34-67.29C323.65,93.86,331.63,77.89,342.87,64Zm-8,1345c1.44-18.41-12.51-27.41-23.83-37.86-9.55-8.83-22.48-11.92-33.09-19-1.72-1.14-2.85-1.23-4.29.25-4.2,4.34-15.13,2.2-11.86,13.9a45.89,45.89,0,0,1-.64,27.54c-1.08,3.15-3.23,3.79-5.61,3.7-2.93-.11-2.53-2.69-2.66-4.87-.58-9.74-.16-19.75-2.41-29.11-1.33-5.55-9.15-3.78-13.94-4.31-18.15-2-39.26-26.4-42.25-44.33-2.17-13,3.47-22.49,6-33.63,2.14-9.56-7.6-15.49-12.85-22.16-13-16.58-24.53-33.67-28.5-54.85-1.44-7.67-2.78-15.39-4.81-22.9-.84-3.11-3.62-1.44-5.79-.51-26.13,11.18-68.9-3.23-84.31-27.68v235.09a26,26,0,0,1,6-1.18c6.36-.58,12.32,2.09,12.8,9.36C83.59,1408.68,77,1414.66,65,1414c-.34,0-.64-.06-1-.1V1616h63.44c15.14-13.86,29.18-28.87,43.54-43.57,12.23-12.51,25.49-24,38.58-36.27-11.72-3.9-32.86-30.09-35.35-44.15-4.5-25.48,4.65-43.54,22.19-59.9,11-10.25,40.71-15.09,54.87-8.19,5,2.45,10.11,4.79,15.22,7.06,5.79,2.57,6.7-4.42,10.85-5.8,4.64-1.53,8.43-5.63,12.64-8.53.89-.61,1.52-3.28,3.22-.46,1,1.62,2.2,2.67.47,4.59-3.2,3.56-5.63,8.09-9.38,10.84-9.23,6.76-6.45,12.76-.18,19.44,3.42,3.63,4.81,8.36,5.3,14.1A286.6,286.6,0,0,0,323.07,1429C327.81,1422.86,334.21,1417.44,334.88,1409Zm-17.77-186.38c1.37-26.39-17.67-39.87-39-39.71-16.35.13-33,18-33,35.58-1.64,20.87,18.51,35.87,36.34,36.35C298.79,1255.31,316.28,1238.43,317.11,1222.62Zm-26.18,87.77c0-6.75.42-9.34-.1-11.72-.71-3.27-2.14-6.38-3.26-9.56-2.38,1.79-4.9,3.42-7.1,5.39-10.49,9.44-16.38,21.64-22.7,34.08-3.92,7.71-1,11.84,1.41,17.39.58,1.37.64.24,8.95-2.72C286.11,1336.86,289,1322,290.93,1310.39Zm-27.44,208.77c11.22-8.06,20.66-32.3,19.06-45.41-1.29-10.64-6.26-18.46-12.6-25.91-1.67,2-3.63,4.13-5.27,6.46-6.94,9.9-14.69,19.14-17.89,31.42-3.3,12.68-8.34,24.91-7.83,38.36.06,1.53-.76,3.09-1.17,4.64,2.14,0,4.57.68,6.38-.09C250.75,1525.83,257.44,1523.51,263.49,1519.16ZM282,1281.62c2-1.69.22-2.81-.9-4-14.66-16.3-32.79-18.62-52.37-11.89-5.17,1.78-9.53,6.73-13.44,11-1.61,1.75,1.48,3.94,3.32,5.37,14.58,11.33,23.8,26.55,32,43.83C254.92,1306.47,267.91,1293.65,282,1281.62Zm-30.24,171c2.25-4.76,16.08-9.12,5.19-15.78-11.6-7.09-25.31-10.19-39.61-5.5-12.64,4.14-17.33,8.81-3.46,17.73,1.14.74,1.72,2.34,2.59,3.52,7.86,10.6,13.67,22.36,19.81,36C237.79,1473.55,246.43,1463.85,251.76,1452.57ZM257,1173c.27-10.15-5.4-16.48-13.9-20-17-7-35.09-11.13-52.37-3.12-10.85,5-24.93,10.11-22.73,27.18,2.07,16.11,15.66,17,27.24,19.7,14.52,3.35,29,1.23,42.73-4C247.07,1189.26,257,1185.56,257,1173Zm-8.72-503.36a11.33,11.33,0,0,0,.57-3.23c-1.57-13.58-3.18-27.17-4.91-40.73-.2-1.54-.7-3.5-1.78-4.4-14.19-11.84-25.88-26-37.12-40.47-10.69-13.76-17-29.93-22.58-46.28-6-17.54-11.87-35.14-17.36-52.85-.82-2.63-5.9-6.84-.15-8.78s6.25,4.61,7.86,7.83c6.79,13.59,12.88,27.52,15,43.52,2.46-11,4.71-21.3,7.06-31.53,1-4.51,4.72-10.46,3-13.21-7.42-12.13-9.3-26.82-18.24-38.15-1-1.29-1-4.83,0-5.89,1.55-1.61,3.84-.24,5.66,1.28,8.94,7.48,11.41,18.68,16.62,29.22,3.47-15.91,3.84-30.74-2.33-45.37-.87-2.07-.84-6.06.46-7.16,2.07-1.75,3.62,1.09,5.2,2.89,5.89,6.71,6.37,15.32,7.49,23.25,3.3,23.14-7.06,44.32-11.55,66.28-3.12,15.2-3.23,29.83.18,44.44C207,574,224.33,590.07,240.07,607a14.46,14.46,0,0,0,2.2,1.64,8.23,8.23,0,0,0,.62-2.7c-1.24-9.58-2.85-19.12-3.85-28.72-2.83-27.07-5.63-54.14-8-81.24-1.4-15.84-1.6-31.79-3-47.63-2.75-30.33-6.81-60.54-4.26-91.16.4-4.74-6.77-4.31-9.41-7.58a29.37,29.37,0,0,0-2.87,3.26c-6.85,10.35-12.92,21.31-20.6,31-15,19-25.88,40-31.65,63.41-5,20.15-12.16,39.16-25,55.61-12.14,15.62-18,31.45-7.36,50.64,6,10.75,19.17,20.14,26.17,16.6,3.36-1.69,8-6.61,10.6-1.28,1.76,3.65-3.72,6.53-7.58,8.29a50.42,50.42,0,0,0-4.76,2.79c13,12.23,25.37,25,38.94,36.23a704.87,704.87,0,0,1,55.33,51.74A13.81,13.81,0,0,0,248.32,669.65Zm-7.4,679.29c2.9-.4,8.27,1.87,5.9-4.67A162.83,162.83,0,0,0,214.61,1290c-.75-.84-3.65-10.55-8-.43-3.66,8.57-2.55,16.1-1.95,24.68C205.81,1330.07,226.14,1349,240.92,1348.94Zm-2.21-144.38c.07-.17-1.42-1.36-1.84-1.2a52.93,52.93,0,0,1-22.53,3.75c-2.48-.13-2.49,1-1.31,2.6,8.57,12.06,15.71,25.41,29.57,33C238.53,1230.18,233.83,1217.85,238.71,1204.56Zm-2.83,50.26c1.09-.2,2-1.56,2.94-2.38a11.7,11.7,0,0,0-2.22-2.32c-10.74-6.21-16.71-16.77-24.46-25.81-4.82-5.63-4.21-15.57-13.68-17.33-11-2-21.94-4.31-31-11.69-1.44-1.18-2.65-.66-2.35,1.36,1.82,12.35,7.27,23.64,13.19,34.1,7.44,13.14,17.65,24.7,26.67,36.93.85,1.14,1.81,2.2,3.35,4.07a16.24,16.24,0,0,1,1-2.13C215.89,1260.48,225.37,1256.79,235.88,1254.82Zm-2.37-347.89A40.75,40.75,0,0,0,225.1,879c-4-5.38-7.35-5.21-10.56-.78-2.1,2.91-.84,5.64-1.8,8.32-6.22,17.33-7.5,35.46-8.26,53.64,0,1.14.33,3.24,3.17,2.21C222.07,937.2,233.21,922.27,233.51,906.93Zm-5.08,621.23c1-8.74,3.66-18,1.95-26.23-3.52-16.9-13.82-31-23.45-45.11-3-4.38-9-11.5-11.18-10.7-5.5,2.05-8.94,8-10.85,14.53-3,10-4.39,19.29-2.46,30.33,3.68,21,22.62,35,41.38,38.1C224.88,1528.89,228.36,1528.73,228.43,1528.16Zm-19.6-660.94c-1.82-.1-3.22.1-4.44-.28C187.9,861.82,173,865.89,162,879c-.81,1-3.68,2.76-.67,3.83,16.16,5.78,26,18.32,35.11,31.78C200.73,899.08,201.94,882.63,208.83,867.22ZM204.24,351c7.44-9.79-3-13.25-5.89-19.2-.78-1.61-3,2.27-4.24,3.79-7.46,9-14.49,18.38-22.18,27.17-6.56,7.48-15.34,13.73-18.53,23.19-5.57,16.58-1.41,33.64.12,54.78,1.93-8.69,2.4-13.37,4-17.61C168,395.8,186.87,373.86,204.24,351Zm-8.32,592.43c.35-20-11.92-33.18-25.1-45.68-3.91-3.7-8.89-9.2-13.89-7.39s-4.11,9-3.87,12.94c0,24.59,17.6,42.34,40,41.54C193.94,944.83,195.87,946.16,195.92,943.45ZM184.31,243.81c16.72-23.57,9.15-54-15.09-68.31-8.34-4.93-12.73-4.45-10,5.9-2.24,23.73,6.06,43.12,19.92,60.6C180.3,243.45,182,247.07,184.31,243.81Zm-5.1,457.93c9.51-11.25,8.56-42-2.93-51.77-1.69-1.43-4.72-9.19-7.17-4.46-6.39,12.31-10.56,25.76-14,34.59-1.11,17.7,12.2,16.34,17.83,22.63C175.11,705.16,176.92,704.45,179.21,701.74Zm-3.38-447.88c-4.74-5.64-7.72-12.6-12.55-14.31-14.29-5.05-29.59-5.5-44.7-4.28-4.51.36-8.86,2.81-13.29,4.31a71.89,71.89,0,0,0,4.34,7.17c12.3,15.95,29.11,19.49,47.64,15.84C163.68,261.33,169.47,257,175.83,253.86Zm-5.11,457.86c-1.95-.65-4-.86-5.52-1.91C145.71,696.13,124,688,100.79,683.19c-1.21-.25-4.14-1.15-3.54,1.71,2.34,11.19,6.26,22.28,16.18,28.51C132.44,725.32,152,726.79,170.72,711.72ZM158.5,647.1c1-2.26,6.22-7.18.61-9.82-5.28-2.48-11.38-3.21-15.73-4.34-20.18,1.72-35.1,9.27-43.66,29.66-1.25,3-6,10.63-.88,11.29a150.62,150.62,0,0,1,45.29,12.85c.47.22,2.58-1.35,2.56-2C146.18,670.72,152.9,659.18,158.5,647.1Zm-3.45-422.58c1-1.44.76-4.72-.23-6.49-7.49-13.48-7.46-28.46-5.22-42.45,1.56-9.76-3.41-5.9-9.22-6.93-4-1.7-8.43,2.89-13.66,4.4-17.25,5-34,33.48-29.26,50.69.63,2.23,0,8.76,3.9,7,15.38-6.93,31.25-6.77,47.41-5.65C150.93,225.26,154.24,225.65,155.05,224.52ZM56,1618.34V61.66l-48-48V1666.34Z"/><path d="M946.84,953.5a11.39,11.39,0,0,1,11.94,11.3c-.08,7.53-2.08,15.26-12.53,14.29-10.73,1.36-12.24-7.06-13-13.71C932.27,956.61,940.89,954,946.84,953.5Z"/><path d="M958.05,106.34c.13,10-6,14.17-16.12,13.08a10.94,10.94,0,0,1-8.46-11c.52-6.71,4.73-13.11,12.48-14C954.25,93.36,958,99.25,958.05,106.34Z"/><path d="M938.79,1127.28c8.91,0,16,5.56,15.56,15.12-.52,10.44-9.27,13.27-19.1,14.8-6.53-1.94-7.38-9-7.7-14.11C927.1,1135.9,929.5,1127.34,938.79,1127.28Z"/><path d="M937,588.81c9.78,0,12.75,4.44,12.27,13.71-.42,8.12-5.64,11.83-11.8,12-7,.16-11.89-4.41-10.52-12.87C927.55,595.36,927.43,588.83,937,588.81Z"/><path d="M926.77,1301.55c5.39.39,14.47,3,13.05,12.18-1.21,7.9-1.16,18-13.86,17.35-9.26-.5-12.13-5.83-11-14.5C913.9,1307.82,917.85,1300.9,926.77,1301.55Z"/><path d="M933.34,420.49c.44,8.43-5.18,13.38-13.38,13.26-7.34-.12-10-5.31-9.05-12.46.72-4.58-1.41-11,6.56-11.36C925.28,409.57,932.85,410.93,933.34,420.49Z"/><path d="M919.46,1450.92c7.48-.22,14,1,13.68,9.47-.35,10.85-4.51,19.89-17.14,20.5-5.91.28-9-5.14-7.86-9.82C910,1463.46,902.9,1449.59,919.46,1450.92Z"/><path d="M920.18,152.28c6.39.52,12.1,3.79,11.25,11.82-.71,6.69-3,12.31-12.16,11-10.06,2-8.42-6.36-8.83-12C910,156.85,913.41,151.73,920.18,152.28Z"/><path d="M930.9,487.05c.3,5.42-2.79,11.28-8.2,10.21-4.77-.94-14.64,2.72-13.82-9.39-.58-8.41,5.66-12.15,13.08-12.65C929.16,474.75,930.59,481.47,930.9,487.05Z"/><path d="M916.74,733c9-1,13.9,4.4,13.89,12.36,0,6.37-3.18,13.54-11.15,13.39-6.09-.11-11.29-3.69-10.61-12.85C910.77,742.19,907.75,734.05,916.74,733Z"/><path d="M918,877c7.1.31,11.65,3.34,11.17,11.45-.78,8-6.38,12.18-13.29,12.23-7.48.06-7.5-7.45-7.41-12.67C908.61,882.42,910.38,876.62,918,877Z"/><path d="M914.15,265c8.08,0,14.4,2.95,13.6,12.38-.53,6.34-4.68,9.91-11.16,9.74-7.06.21-10.53-4.26-10.38-9.84C906.34,272.44,905.79,265.05,914.15,265Z"/><path d="M924,347.6c.89,9.82-5.82,14.38-13.67,14.87-4.78.3-6.49-6.31-7.76-11.76,2.69-4.17,1.59-11.8,9.63-11.63C917.6,339.2,923.31,340.44,924,347.6Z"/><path d="M926.06,1555.81c-.86,6.93-2.81,14.89-10.55,14.59-4.58-.18-13.66.75-14.64-8.79-1.13-11.07-.24-21.68,13.56-22.16C923.83,1539.12,925.36,1548,926.06,1555.81Z"/><path d="M901.87,646.92c10.66.27,12.11,7.57,11.75,15.76-.26,5.92-2.17,11.07-6.71,10.66-11.81-.37-15.76-5.17-15.95-13.46C890.79,652.44,892.76,646.7,901.87,646.92Z"/><path d="M890.76,216.42c5.91-.1,11.45,4.36,10.46,12.59-1.11,9.21-6.13,13.73-15.18,14-8.5.29-11.25-4.75-11.23-12.38C874.79,220,882.82,216.56,890.76,216.42Z"/><path d="M895.83,534.46c0,5.37.5,12.64-7.93,10.6-9.12.43-14.36-3.93-14.64-11.33-.27-7.15,6-12.2,12.28-12.32C892.45,521.28,895.84,527.85,895.83,534.46Z"/><path d="M871.88,1229.77c7.7,0,15.3,3.37,13.18,13,0,8.24-2.07,11.84-6.31,11.67-7.54-.31-15.38-.92-15.67-11C862.9,1237.23,864.48,1229.75,871.88,1229.77Z"/><path d="M875.61,1492.44c4.77.47,8.51,4.2,7.46,9.69-.05,11.82-7.86,17.33-17,18.2-4.85.46-9.06-6.59-9-13C857,1494.88,865.18,1491.41,875.61,1492.44Z"/><path d="M870.46,103c7.08-.39,13.67.81,12.44,10.17-.89,6.71-3,13.68-11.86,13.84s-10.92-5.85-11.06-13.15C859.85,107,862.09,102.09,870.46,103Z"/><path d="M852.62,921c9.48.42,9.09,8.3,10.94,14.6-1.12,11-9.46,12.91-17.52,13.32s-8.91-6.77-9-12.71C837,926.11,842.25,920.53,852.62,921Z"/><path d="M860.93,1436.54c.72,8-2.68,15-11,16.25-9.54,1.42-15-4.11-15-14.66,1-4.25.85-10.8,9.23-12.31C853.33,1424.17,860,1426.33,860.93,1436.54Z"/><path d="M858.8,400c.07,5.26-3,11.25-9.22,10.76-6.74-.53-15.12-1.75-12.71-11.17,0-7.35,1.65-13.21,8.12-13.48C853.61,385.73,858.68,391.67,858.8,400Z"/><path d="M848.06,299.07c7.86-.28,8.93,6.54,8.66,11.7-.28,5.38.07,12.71-9.56,12.45-10-.27-8.2-8.16-10-11.62C836.19,301.27,841.81,299.29,848.06,299.07Z"/><path d="M832.77,165.33c5.45.13,13.66,1,13,9.38-.46,5.8-1.15,14.18-9,14.92-8.16.78-15.88-2-15.92-14.93C820.91,168.94,826.31,165.18,832.77,165.33Z"/><path d="M845.24,459.49c.33,7.66-4.34,8.71-9.79,8.86-6,.16-10.28-2-8.44-8.42-.41-6.4,1.31-10.93,7.57-10.85S844.91,452.05,845.24,459.49Z"/><path d="M831.48,564.13c7.44,0,13.23,3.51,13.15,11.6,0,7.84-3.48,13.27-10.8,12.95s-11.29-6.57-11.54-13.43C822.09,569.77,825,564.1,831.48,564.13Z"/><path d="M840.41,1588.53c1,8.93-5.49,15.59-14.65,15.22-8.2-.33-11.14-8.47-10.36-15.09.67-5.81,1.7-14.24,12.81-13.82C836.72,1574.1,839.71,1582.34,840.41,1588.53Z"/><path d="M813.78,496.76c7,.55,11.34,3.46,11.11,10.34-.25,7.55-4,12.73-13.48,11.95-10,2-10.12-6.58-9.95-12.57C801.63,500.08,806.07,496.15,813.78,496.76Z"/><path d="M807,1510.87c7,.73,11.94,5.66,11.73,13.31s-5.11,14.46-13.41,14.47c-5.13,0-13.76-.39-12.27-9.76C794.32,1521.12,793.1,1510.83,807,1510.87Z"/><path d="M790,359.07c5.91.55,13.92-.66,12.91,11.44-.83,3.46.06,10.34-8.06,10.5-7.19.14-13.94-1.68-13.8-10.8C781.15,364.63,782.12,358.33,790,359.07Z"/><path d="M793.91,248.67c.86,8-2,14.13-11.78,14.46-8.36.29-9.11-6.39-8.8-11.21.37-5.58.32-13.71,10.16-13C790.6,238.15,793.34,243.32,793.91,248.67Z"/><path d="M787.76,130.47c1,10-4.29,15.43-14.07,14.34-6.45-.72-7.3-7.37-7.44-12.55-.26-9.17,2.8-11.77,12.67-11.66C787.6,117.61,787.22,125,787.76,130.47Z"/><path d="M781.79,762.78c1.85,1.05,2.93,3,1.86,6.2-6.41,19.12-17.16,35.63-28.69,51.7a44.48,44.48,0,0,0-5.2-9.42h0c11.64-13.84,19.05-30.31,28.92-45.24C779.54,764.72,778.29,760.8,781.79,762.78Z"/><path d="M769.89,489c.29,6.89,1.5,15.44-9.07,15.95s-13.88-3.16-13.88-15c.85-4.31,2.48-10.66,10.28-10.78C763.43,479,769.56,481.33,769.89,489Z"/><path d="M769.5,1570.47c1.2,8.55-.48,17-11.91,17.69-14.11,1.25-12.5-11.18-13.83-18.06a12.07,12.07,0,0,1,11.55-14.23C765.88,1555.29,768.47,1563.12,769.5,1570.47Z"/><path d="M757.42,739.46c3,1.19,3.39,4.31,2.05,8.81-5.36,18-11.52,35.48-20.33,51.89a80.5,80.5,0,0,0-7.4-5.35c8.56-15.81,13.94-33.19,20.64-49.89C753.47,742.23,754.19,738.16,757.42,739.46Z"/><path d="M749.07,304c.83,11.25-8.55,12.28-15.19,12.43-5,.11-6.75-7-7.39-16.76-1.06-7.45,8.9-7.74,15.29-8C746.79,291.44,748.67,298.48,749.07,304Z"/><path d="M731.33,1473c8.93-.13,12.42,6.39,12.37,13.38-.06,7.43.6,17.91-12.2,14.53-12.58,2-12.51-7.28-13.39-14.55C717,1477.05,722.68,1473.1,731.33,1473Z"/><path d="M741.74,438.4c0,1.92-4.38,4.17-9.48,4.51-5.48.37-9-2.84-9.26-8.52-.29-6.28,4.21-10.56,9.17-10.78C737.48,423.37,741.55,427.82,741.74,438.4Z"/><path d="M711,162.11c8.86-1.1,15.83,1.18,14.06,10.74.29,12.08-7.14,12.52-14.09,12-7.74-.53-7.94-7.29-8.21-13A9.07,9.07,0,0,1,711,162.11Z"/><path d="M725,721.29c.07,8.85.89,17.8-.2,26.51a139.6,139.6,0,0,1-6.6,29.25q-1.61,4.53-3.27,9.05-2.69-1.14-5.59-2.23c-1.12-.42-2.22-.83-3.31-1.21,6.46-20.08,11.57-40.53,13.06-61.79.09-1.36,2.38-3.46,3.83-3.63C725.74,716.9,725,719.63,725,721.29Z"/><path d="M721.82,104.55c.24,7.81-6.74,7.23-10.8,8.71-9.46.3-10.85-6.27-10.82-12.15,0-7.19,5.13-10.54,12.28-10.14C721.3,91.47,721.63,98.39,721.82,104.55Z"/><path d="M688.92,1539c7.72.63,10.7,6.32,12.4,11.9-.86,9.21-3.7,15.82-13,15.12-6.95-.52-12.68-6-12.77-12.2C675.41,1546.43,678.4,1538.15,688.92,1539Z"/><path d="M686.26,723.37c3,.22,5.22,3.67,4.83,7.63-.65,6.66-1.38,13.32-1.6,20a161.19,161.19,0,0,1-3,25.9c-3.38-.77-6.6-1.37-9.67-1.82,3.15-14.81,4.4-29.81,6.11-44.8C683.22,727.4,682.3,723.08,686.26,723.37Z"/><path d="M666,1465.39c6,0,15.88.65,14.66,10.54-.89,7.22.1,18.31-11.19,17.27-9.8-.3-16.28-3.27-16.28-11.86C653.21,1473.35,657,1465.44,666,1465.39Z"/><path d="M665.47,1206.8c1.78,1.77.55,2.93-.2,4.29-12.28,22.2-32.6,33.26-55.9,39.89-16.55,4.7-33.49,6.9-49.83-.09-14.15-6.05-26.34-15.3-34.46-28.7-12.07-19.92-15.15-42.69-20.55-64.87-4.21-17.27-11.07-33.78-22.36-48.49-14.06-18.34-13.68-38.7-2.93-58.94,1.93-3.64,1.89-3.62-9.84-8.82-3.62-1.6-7.12-3.51-10.76-5.07-5-2.15-4.77-6.84-3.18-10,1.72-3.43,6-6.37,10.25-4.85,16.36,5.83,24.77-5.17,33.05-15.55A29.21,29.21,0,0,0,505,984.3c-.54-6.09-1.19-11.82-7.5-14.69-6.89-3.14-13.13-.71-18.94,3-12.12,7.67-21.19,17.65-26.07,31.63-1.54,4.4-7.1,9.66-12.46,6.36-5.55-3.43-4.82-10.85-2.6-16.18,7.06-17,9.47-35.82,20.06-51.47.87-1.28,0-3.75-.08-5.67-1.79.6-3.77.9-5.34,1.86-10.64,6.5-21.07,13.28-34.55,8-4.47-1.73-7.77-4.65-7.5-9,.3-4.66,5-3.33,8-3.09,14.6,1.17,24.11-9.14,35.67-15,9.21-4.7,16-14.35,28-13.71,2.39.12,5.7-1.07,6.63,1.07s.92,6.14-.44,8.09c-9.22,13.21-14.72,28.13-20.54,42.93a7.45,7.45,0,0,0,0,2.42c17.42-10.09,32.16-10.54,43.32-.79,10.82,9.45,13.67,35.79,3.17,50.79-6,8.5-11.61,17.59-21.69,22.22a4.33,4.33,0,0,0-1.61,1.66c8.63,11.65-.39,21.58-3.61,31.69-3.76,11.82-1.5,22.2,5.39,31.38,18.08,24.1,24.87,52.31,31.08,80.89,5.06,23.22,14.22,44,36.38,56.14,20.46,11.17,41,5.9,60.91-1.42,15.15-5.55,27.43-16.13,40.06-25.92C662,1206.49,663.37,1204.71,665.47,1206.8Z"/><path d="M664,144.38c1.17,9.06-4.47,12.35-11.68,12.43a9.82,9.82,0,0,1-10.21-9.3c-.74-9.61,5.35-14.07,13.88-14.36C663.12,132.91,664.65,138.44,664,144.38Z"/><path d="M657.6,734.43a89.56,89.56,0,0,1-.35,39.62,71.22,71.22,0,0,0-9.33,1.12A197.78,197.78,0,0,0,651,737.36c-.06-3.59-2.28-9.33,3.31-10C659.61,726.65,656.94,731.4,657.6,734.43Z"/><path d="M611.08,80.64c7.76-.4,11.06,2.79,10.16,8.32,0,9.36-4.06,13.16-10.64,14C602.4,104,599.76,98.25,599,91.62,598.05,82.83,603.77,81,611.08,80.64Z"/><path d="M621.06,1523.05c1.23,8.59-4.67,12.14-11.89,11.73-9.77-.55-9.51-9.36-10.12-16.36-.53-6.19,1.06-12.19,9-11.61C617.24,1507.48,621.67,1513.16,621.06,1523.05Z"/><path d="M568,117.14c5.92.24,12.24,2.32,11.8,9.94-.33,5.88-2,12-10.14,12-7.91-.05-10.9-4.54-10.76-11.79C558.48,120.69,561.87,116.89,568,117.14Z"/><path d="M560.9,1561c9.15-.64,11.37,5.62,10.7,13-.56,6.16,1.29,15.13-9.5,13-10.55.72-15.09-5-14.91-13.69C547.35,1565.44,553.41,1561.55,560.9,1561Z"/><path d="M539.66,193.2c6.53-.83,12,2.55,11.12,9.81-.94,7.57-1.82,16.78-13.12,16.39-8.66-.3-7.76-7.52-8.83-12.39C528.92,198.87,532.75,194.07,539.66,193.2Z"/><path d="M522.85,149c.77,9.59-8.17,5.85-10.89,7.65-9.4,1.7-9.42-3.87-9.39-8.48.06-7.36,3.42-12.85,11.5-13.1C524.22,134.72,522.4,143.31,522.85,149Z"/><path d="M507,88.89c.57,8.08-3.12,13.1-11.49,14.18-9.94,1.28-12.12-6.52-11.92-12.83.2-6.49,3.76-13.32,12.72-11.12C504.87,77.27,506.52,82.75,507,88.89Z"/><path d="M474,843.92c1.12,2.81,1,6.09,1.78,10.77-3,16.57-13.85,30.48-23.93,44.68-6.31,8.87-11.56,18.74-21.15,24.83-2.13,1.35-4.34,1.48-6.38-.28-1.77-1.54-.79-2.77-.13-4.68,7.29-21,24.18-36.32,33.42-56.18,2.18-4.68,5.92-9.73,2.13-13.9-4.26-4.68-10.83-3.6-17.26-3.48-20.29.39-13.41,17.33-17.1,27.15-7.15,19-26,36.95-47.57,30.29-8.68-2.68-13.21-22.23-6.6-31.31,10.2-14,23.79-24,39.53-31,7-3.11,5.15-9.31,3.54-13.43-8.38-21.51-15.59-43.6-28.84-63-1.67-2.42-2.74-6.9.64-9.42s5.34,1.18,6.95,3.22a40.85,40.85,0,0,1,6.13,10.07c4.33,11,12.21,10.53,20.51,6.12,7.92-4.21,16.16-5.55,24.83-5.36,2.59.06,6.92-1.81,7,2.83.1,3.88-3.4,6.1-7,7.17-9.2,2.76-18.51,5.2-27.69,8-3,.91-4.19,2.12-2.69,6.42,4.39,12.61,12.85,23.67,13.39,37.95.16,4.24,6.69,1.52,9.86.37C450.25,827.12,469.67,833.21,474,843.92Zm-59,15c.29-3.26-.33-4.7-4.23-2.17a137.2,137.2,0,0,0-26,21.35c-2.39,2.56-4.25,5.9-1.57,9.53.89,1.2,2.29,3.05,3.32,3C400.58,889.44,414.84,873.64,414.94,858.93Z"/><path d="M465.63,293.3c3.05,1.93,1.78,6.33.5,9.7-.38,1-.67,2.05-1.07,3.05-4.22,10.32-6.81,21.32-12.05,31.23-2.41-2.34-5.07-4.71-8-7,5-10.76,10.21-21.5,15.22-32.26C461.5,295.3,461.58,290.75,465.63,293.3Z"/><path d="M443.71,128.85c6.84.07,12.93,2.86,12.8,8.8-.13,5.71-3.37,13.34-10.37,14s-12.45-4-12.1-12C434.31,133.41,436.7,128.44,443.71,128.85Z"/><path d="M439.79,674.94c8.49,8.83,9.16,20.39,6.93,31.27-3.84,18.68-12.38,35.06-29.25,45.76-2.75,1.74-6.07,2.1-8.22.18-2.89-2.57-.88-5.73.93-8.38,6.6-9.65,14.71-18.63,19.32-29.14a31.24,31.24,0,0,0-1.21-27.11c-3.41-6-10.79-7.47-18-6.28-15.6-3.3-11.53,11-14.94,17.76-7.32,14.48-13.8,29-24.07,42.12-5.33,6.8-9.68,9.71-16.61,7.67-8.28-2.44-9.95-11-11.57-18-6.14-26.66,6-44.84,27.8-58.92C388,660.86,427.1,661.74,439.79,674.94Zm-51.47,11.75c.43-.91.12-2.17.16-3.27-.9.21-1.82.36-2.7.64-20.1,6.28-29,18.3-29.51,40.82l3.51,7.93c1.74-1,4.08-1.58,5.12-3.07C374.28,716.26,381.39,701.52,388.32,686.69Z"/><path d="M434,277.37c1.42,1.14,3,4.61,2.52,5.16-6.24,6.78-3.22,15.59-5,23.22-1,4.64-2.16,9.25-3.39,13.83a80.46,80.46,0,0,0-8.67-3.64l1.43-4.7c3.21-10.49,6-21.12,9.14-31.65C430.54,277.92,431.94,275.74,434,277.37Z"/><path d="M404.44,496.33c24.7,7.21,26.61,29.71,18.21,51.15-9.44,24.11-30.57,39.9-38.82,64.08-3.19,9.36,2.58,11.31,8.5,13.18,4,1.26,9.57,1.42,9.59,6,0,5.55-6.12,6.07-10.37,6.24-23.8.93-31.39-14.64-17.84-40,8.66-16.18,21.33-30.19,30.11-46.31,5.49-10.06,14.37-22,3.43-34-7.57-8.32-18.9-9.49-29-9-6.62.3-6.38,9.8-9.05,15.21-3.92,7.91-7,16.25-10.7,24.27-4.1,8.8,5.93,13,6.32,20.23.16,3.08,5.11,6.43.33,9.08-4,2.21-8.16-1.11-9.49-4-4.77-10.22-8.6-5.56-13.2-.13-5.54,6.54-11.6,13.37-20.37,14.5-15.63,2-24.46-12-18.88-27.81,6-16.89,10.85-34.08,25.12-46.63,1.9-1.68,1.25-7.53.24-11-2.21-7.61-2.21-15.35-1.4-22.88.95-8.85-4.42-7.57-9.11-6.52-11.94,2.69-22.11,1.21-29.24-9.94-1.63-2.56-4.19-4.87-1.72-8.12,2.66-3.51,7.09-1.74,8.85-.45,7.26,5.32,15.2,3.88,22.91,3.24,4.58-.38,8.37-2.74,8.22-8.93-.27-10.54,4.6-20.74,2.13-31.59-.69-3-1.87-3.37-4.23-3.15-3,.28-6.64.32-7.59-2.84-.86-2.84-1.59-6.33.76-9.37,2.71-3.52,5.19-.17,7.74-.23,9.18-.19,18,.56,18.9,11.89.65,8.2,2,16.7-1.25,25-1,2.55-.15,5.82-.15,7.71,10.18-3.44,20.4-6.51,30.32-10.35,9.18-3.56,18-5.62,27.89-2.35,5.1,1.68,10.64,2.82,9.11,8.78s-8.95,5-13.44,5.14c-12.19.31-23.11,4.83-34.41,8.19-3.09.91-5.89,2.93-9,3.57-13.34,2.73-13.09,12.56-11.08,22.28,1.4,6.75-1.89,19.9,2.4,19.16,12.42-2.14,26.29-6.68,27.83-23.59.24-2.56.71-5.51,2.18-7.44,2-2.69,3.12-8,7.87-6.38s4.75,5.49,2.67,10.15C379.27,486.73,381.88,489.74,404.44,496.33Zm-48.33,21.16c.48-1.22.23-2.73.31-4.1-1.26.34-2.52.64-3.76,1.05-10.64,3.52-2.28,10.74-2.18,16.46C352.38,526.44,354.37,522,356.11,517.49ZM320.4,572.64c9.54-3.45,20.09-21.27,18.48-31.2-.41-2.52-1.41-5-1.93-7.47-1.85-8.84-5.47-2.69-6.89-.33-6.61,11-11.94,22.67-12.78,35.85C316.92,571.82,317.53,573.68,320.4,572.64Z"/><path d="M395.43,271.56c2.13,13.34,1.95,26.53.91,39.71-1.6-.09-3.23-.13-4.88-.13s-3.23.06-4.77.17c1.2-14.28,1.78-28.58.3-43a52.57,52.57,0,0,1,.07-10.86c.17-1.53,1.67-2.92,2.57-4.38a20.2,20.2,0,0,1,3.33,3.19C396.06,261,394.62,266.48,395.43,271.56Z"/><path d="M367.94,307.65c.26,2.63.43,5.27.54,7.91a46,46,0,0,0-8.43,4.74c-.33-5.16-.78-10.32-1.29-15.46-1.15-11.59-3.87-23-5.61-34.55-.35-2.34-.18-6.31,1.11-7,2.14-1.14,5.87-.23,6.5,3C363.43,280,366.58,293.76,367.94,307.65Z"/><path d="M321,1026.34c2.86,10.55,2.65,21.22,2.42,32.13-.25,12.42-.89,24.6-4.5,36.82a96.32,96.32,0,0,0-9-3.9c1-7.58,2.67-15.13,3.73-22.72,1.86-13.24,2.68-26.52-.18-39.75-.71-3.29,2.14-4.44,4-5.48C319.42,1022.28,320.51,1024.66,321,1026.34Z"/><path d="M289.21,1033.25c6.34,17.75,8.33,35.94,8.3,54.43-2.92-.68-6-1.25-9.19-1.69-.08-2.19-.16-4.36-.2-6.49a171.26,171.26,0,0,0-6-42.86c-.83-2.92-5.07-9.07.09-11.1C285.65,1024.18,287.78,1029.25,289.21,1033.25Z"/><path d="M259.81,117.15c7.43-1.1,9.35,5.23,9,10.57-.44,6.22-2.6,12.66-11.17,11.32-10,1.56-11.14-5.69-11.47-12.11C245.68,117.66,254,118,259.81,117.15Z"/><path d="M252.21,1033.39c10,16.12,15.33,33.53,18.15,51.66-3.41.1-6.94.36-10.59.8-2.16-15.1-5.76-29.79-12.39-43.85-1.55-3.28-5.73-8.48-.19-12.16C249.82,1028.1,251.25,1031.83,252.21,1033.39Z"/><path d="M243.75,1088.82c-1.62.4-3.27.84-4.93,1.32-1.85.53-3.63,1.08-5.36,1.67-6.57-15.9-14.34-31-26.53-43.79-1.93-2-2.68-3.51-.64-5.72s4.14-1.72,6.15-.13C228.13,1054.54,236.77,1071.21,243.75,1088.82Z"/><path d="M200.25,84.17c6.75-.23,8.85,5.5,8.36,10.46-.53,5.47-1.47,12.87-9.14,13.13-6.34.21-11.21-3.22-10.67-14.36C189.26,89.92,192.4,84.43,200.25,84.17Z"/><path d="M215.15,1099.71a83,83,0,0,0-7.65,4.76c-8.78-13.48-18.78-26-31-36.87-3.07-2.73-.15-3.58.48-5.13.92-2.29,2.23-1.52,3.88-.41C195.56,1071.87,205.37,1085.69,215.15,1099.71Z"/><path d="M164.63,1083.1a236.59,236.59,0,0,1,29.63,33.36,57.21,57.21,0,0,0-5.67,8c-9.12-12.63-18.74-24.85-29.72-36-2.61-2.64-8.46-4.62-5-8.64C156,1077.45,161.75,1080.4,164.63,1083.1Z"/><path d="M156.05,800.85c5.14.76,11.7,2.39,10.39,7.49-1.72,6.67,2,17.59-9.73,19.28-8,.39-16.4,0-15.32-10C142.21,810.08,142.3,798.82,156.05,800.85Z"/><path d="M164.41,1362.82c.84,8.84-2.75,15.37-12.93,15.15-5.6-.12-9.61-2.82-10.25-8.83-.92-9.64,1.24-16.61,12.53-16.13C159.79,1353.27,163.88,1357.24,164.41,1362.82Z"/><path d="M144.35,1492.29c.53,9.34-7,12.62-15.95,12.87-11.08.3-8.61-9-9-14.12-.68-8.3,4.29-13.5,14.17-11.9C145.9,1475.44,144.07,1487.33,144.35,1492.29Z"/><path d="M124.56,305.21c8.55,0,16.25,4.22,16.17,13.9-.06,7.93-2.61,16-16.6,15.83-5.82-1-10.68-7.79-11.76-15S115.74,305.21,124.56,305.21Z"/><path d="M106.74,1211.09c8.43-.6,14.92,1.9,14.8,12.51-.11,9.94-3.47,16.56-14.41,15.31-8.49-1-7.75-8.36-8.3-13.94C99.15,1218.52,98.52,1211.66,106.74,1211.09Z"/><path d="M111.5,432.77c8.71-1.95,10.55,4.52,9.53,12.33-1.11,8.43-4.78,15.29-15.2,13.92-5.65-.75-9.23-4.12-9.37-9.95C96.24,440,97.8,432,111.5,432.77Z"/><path d="M105.05,113c7.65.06,12,5.23,11.7,12.12-.27,6.37-5.78,9.58-11.43,11.1-8.07-1.25-10-7.21-10.1-12.88S98.55,113,105.05,113Z"/><path d="M111.35,1307.78c.06,8.3-5.4,7.46-11.1,7.2-13.16,2.33-8.65-8.72-9.84-14.66-1.32-6.6,5.77-9.28,9.49-8.81C108.33,1292.6,111.29,1299.43,111.35,1307.78Z"/><path d="M93.21,855.52c5.58-.11,15.66.06,14,11.66-.87,8.44-3.72,14.84-14.25,14a9.81,9.81,0,0,1-9.24-10C83.65,864.67,84.82,855.68,93.21,855.52Z"/><path d="M83.55,746.18c8.39-.8,13.74,4.06,13.41,12.92-.33,8.44-5.74,11.95-15.69,12.15-4.15.55-8.94-2-8-8.11C74.25,756.51,73.75,747.12,83.55,746.18Z"/><path d="M84.29,555.2c7.47-.29,11.79,5.57,11.46,12.47-.3,6.36-4.87,11.76-11.58,12.12-6.41.35-11.84-2.62-11-13C74.06,562.21,76.47,555.51,84.29,555.2Z"/><path d="M77.45,938c7.78-.46,12.26,3.8,11.69,12.14-.31,9.08-3,18-13,18.34-6.2.23-12.57-5.26-11-13.61C66.41,947.49,67.25,938.64,77.45,938Z"/></svg>