<svg xmlns="http://www.w3.org/2000/svg" xmlns:xlink="http://www.w3.org/1999/xlink" viewBox="0 0 976 1600"><defs><style>.cls-1{fill:none;}.cls-2{fill:#f4f3ef;}.cls-3{clip-path:url(#clip-path);}.cls-4{fill:#6060bf;}.cls-5{fill:#50b271;}.cls-6{fill:#592116;}.cls-7{fill:#992d17;}</style><clipPath id="clip-path"><path class="cls-1" d="M960,22V1578a6,6,0,0,1-6,6H22a6,6,0,0,1-6-6V22a6,6,0,0,1,6-6H954A6,6,0,0,1,960,22Z"/></clipPath></defs><g id="Paper_Backing" data-name="Paper Backing"><path class="cls-2" d="M960,22V1578a6,6,0,0,1-6,6H22a6,6,0,0,1-6-6V22a6,6,0,0,1,6-6H954A6,6,0,0,1,960,22Z"/></g><g id="Wikipedia_Cropped" data-name="Wikipedia Cropped"><g class="cls-3"><path class="cls-4" d="M506.77,851.34c-5.7.3-64.83-17.56-49.3-32.54C493.9,801.15,555.7,847.4,506.77,851.34Zm.58-54.57c-27.61-2.72-39.59-37.07-58.84-46.81-15.6,5.79-84.14,35.57-91.43,11.25,1.85-109.74,42.37-34.93-19.27-131.06-7.72-24.47,76.69-1.11,90.2,3,19.89-17.14,28.44-48.3,52.05-68,25.7-32.25,32.19,65.08,33.06,79.68-.6,8.85,9.1,8.05,17,10,14.48,3.84,62,18.75,62.11,34-19.55,20.51-49.69,25.1-71.66,37.24C516.74,742.46,526.66,791.51,507.35,796.77ZM168.16,727.12c-1.38-4.91-8.89-5.42-11-.85-8-26.36,6.32-52.65,10.3-74.61-21.36-11.87-64.84-22.24-67.46-50.87,13.91-20.65,58.4-25.06,79.74-25.87,4.37.12,6.21-4.09,6.27-7.81,5.08-24.81,10.54-49,21.35-71.4,12.09-16.6,34.6,30.56,43.51,38.29,7.37,11.23,13.44,22.45,28,14.23,18-2.83,35.3.5,52.28,4.95,24.47-2,6.46,23.42-.86,30.39-71.37,57.76-5.88,19.51-12.73,108.77-1.67,24-66-23.66-77.86-27.78C214,700.1,205.75,701.14,168.16,727.12Zm641.47-42.76c-9.45-1.78-38.91,1.74-36.09-11.65,18-17.69,34-38.06,63.55-37.62C896.25,648.17,847.92,691.64,809.63,684.36ZM697.18,654.44C664.87,642,636,586.53,670.23,577,692.73,576.82,713.88,643.49,697.18,654.44Zm60.27-91.1c-41.52-57.25,37.92-127.79,28.88-59.75C781.75,524.66,775.31,549.75,757.45,563.34ZM441.6,519.22c-20.21,3.12-77.73-41.5-45.17-56.27C414,459.43,470.47,513.89,441.6,519.22Zm132.76-35.68c-6.36-.42-14.61.95-21.17-.81-12.93-19.35,38.45-43.34,57.6-42.09C667.41,449.72,599.85,488.25,574.36,483.54Zm-423.58-4.83c-23.85,6-78.72-33.25-35.88-45.51C142.56,434.42,214.38,474.44,150.78,478.71Zm93-25.37c-6.12,1-7.79-5-5.14-9.82C302.41,354.76,362,447.59,243.75,453.34Zm202.32-26.52C427,428,390.26,398,387.72,379.31c-1.13-13.7,17-19.9,25.53-10.56C422.94,375.48,467.75,423.58,446.07,426.82Zm-255-15.76c-23.89-13.42-47.9-76.58-12.44-86.84C204.34,325.56,205.31,401.19,191.09,411.06Zm346.47-41.62c-12.14-11,23.12-50.25,40.41-53C650,303.62,569.13,375.29,537.56,369.44Zm-58.12-62.68c-44.34-43.91-11.7-136.49,10.22-57.8C491.3,266.94,494.27,296.45,479.44,306.76Z"/><path class="cls-5" d="M238.56,1271c-37.18,1.55-26.6-19.2-42.15-46-9.53-19.61-34.12-33.51-33.74-53.87-9.35-2.46-14-6.72-20.12-16-44.84-48.79,23.7-96.72,3.37-149.86-4.47-15.88-5-29.85-1.58-42.72,1.9-9.5-11.16-6.77-15.77-11.77-30.73-23.84-41.07-58.63-85.15-65.63-33.58-11.47-60.26-57-16.47-76.35,32.24-17.15,45.61-67.77,86.22-67.53,21.15-.37,40-1.52,56.89-11.86,47.51-45.34,142.63-57.61,171.6,14.25,6.73,19.09,16.47,43.4,5.57,62.36-13.37,11.39,51.37,16.3,69.65,44.35,7.83,14.79,5.81,15.17,23.57,14.61,7.38-.71,11.94,1.9,17.83,4.78,9.37-2.94,20.85-2.46,30.72-.62,26.61,1.94,46,13.93,65.87,26.13,9.36-2.28,7.13-15.05,18.5-19.31a6,6,0,0,0,3-6.94c2.72-25.9,15-51,32.7-73,31.13-39.42,118.12-59.91,133,3.42C760,836.59,834.75,821,850.55,850c20.26,18.19,3.23,49.43,14.25,71.3,18.6,38,50.54,76.2,27.65,119.95-21.66,45.27,25.31,123.81-26.74,153.11-25.07,12.47-50-13.62-74.4-14-24.56,3.42-52.58,17.82-72.09,15.47-31.82,3.78-49.29-23.73-80.36-25.22-37.72,7.46-71.78-6.61-92.66-38.62-10.06-10.29-25,16.89-34.78,15.14-45.23,9.6-94.7,9.93-121.23,54.36-12.54,16.44-28.5,26.93-47.22,29.64C298.44,1232.6,275.88,1260.92,238.56,1271Z"/><path class="cls-6" d="M906.62,1006c1-46.27-47.84-75.78-39.71-123.87,1.48-16.44-3.72-29.46-17.69-40.79-39.19-35.79-90-8-104.44-50.28C733.85,755,715,768.36,720.24,752.45c4.54-11.67,4.88-24.91,8.72-36.94,1.95-6.11-1.55-14.55,5.83-18.26,6.31-3.16,13.42-4.72,20.1-7.16,7.12-2.61,13.62-7,22-4.47,13.65,4.13,28,6.2,42,4.82,18.6-1.52,45.66-6.31,51.82-26.9,2.9-12.14-3.18-22-13.72-28.59-18.83-11.71-47.79-4.7-66.6,13.52-13.55,13.13-22.74,32.43-44.37,35.4-3.57.49-8.77,6.12-10.36,1,2.37-28,12.32-57.2,17.47-85.3,5.46-49.92,34.76-39.33,40.14-101.82,4.92-26.78-16.57-37.68-36.33-19.55-18.67,15.25-19,59.06-10,76.86,2.42,4.78,7.86,9.67,5.53,15.36-13.57,39.3-18.57,77.14-28,118.57-6.19-17-21.05-28-16-47.46,2-7.74-3-17.2-4.39-25.93-2.14-13.11-6.11-25.42-16-34.81-14.94-17-37.47-11.31-38.74,12-1.16,18,7.87,32.88,18.79,46.32,12.5,15.4,35.52,20.47,41.72,42.23,2.47,8.68,13.41,13.65,11.06,24.41-2.8,12.84-5.43,25.76-9.24,38.32-1.13,3.74,2.49,13.2-7,10.7-66.26-13.88-124.44,46.84-131.13,109.54C574,880,556.37,876.43,556.59,891c-25.61-19.33-54-27.81-85.24-26-6.88.4-14.14,2.25-20.79-2.81a22.12,22.12,0,0,0-21.09-1.84,197,197,0,0,1,6.95-36.63c.34-.77,8.3-.17,10,2,11.31,14,26,22.56,42.61,28.35,11.07,3.86,22.54,8.53,33.75,1.68,12.91-7.89,11.05-26.45-4.72-36.37-35.32-26.47-86.94,15.13-80.87-14.29,4-16.67,8.44-33.24,12.71-49.86,8.92,16.91,57.54,67.31,69.36,37,6-15.93,5.49-32.33,6.12-48.87.19-4.9-8.41-12.9,2.18-15.57,20.28-5.11,38.64-14,56.33-24.94,26.56-16.62,3.85-28.44-11.53-37.91a110.27,110.27,0,0,0-43.87-14.58c-17.81.68-9-15.69-11.62-27.32-1.9-12.74-4.4-25.41-7.2-38-3.54-15.91-16-29.43-12.72-47.23.2-1.1-1.12-2.4-1.14-3.61-4.94-21.63,2.7-19.78,19.2-28.55,16.82-10.46,34.19-19.22,54.74-17.71,22.58,4.16,95.73-18.77,59.65-47.26-8.41-6-17.41-5.54-27.76-4.43-29.1,3.21-48.75,25-62,47.31-15,4.35-27.26,14.24-41.54,20.1-6.85,2.82-4.89-.58-5-3.51-.77-22.26-1.13-44.54-2.25-66.78-.6-12.08.13-21.29,10.69-31.32,31-35.52,88.16-27.13,110.77-71.56,1.28-2.52,4.35-6.09,1.34-10.71-7.55-11.57-16.93-12.79-30-10.47C547.77,313.53,543,344.9,525.5,369c-10.09,12.06-23.8,21.09-35.66,31.22-4-27.77-2.1-56.7-4.13-84.61,2.82-10.53,6.75-20.39,8.06-31.72,1.78-21,5.37-68.09-23.13-70.53-8,.09-15,6.37-17.43,14.45-12.54,37.14,16.51,64.51,26.17,96.71,2.12,8.34-1.64,17.93-.43,26.84,1.56,28.47.57,56.82,1.64,85.22-20.82-4.49-30-34.92-42.66-50.56-10.48-17.44-39.8-42.89-54.29-15.95-8.27,29.77,27.29,47.25,49.71,57.1,10.27,4.56,23.69-1.65,31.8,9.9,4.14,5.9,14.57,6.6,15.46,14.44,2.3,27.63,2.16,55.32,5.32,83a12.16,12.16,0,0,1-3.27-1.66c-7.87-7.21-20.34-8.17-25.72-18.66-12.37-26.07-33.89-63.74-69.55-54.14C364,483.52,409.54,519.74,433,521.14c20.67-.7,36,11.92,52.3,22.65,11.22,6.45-7.11,15.72-11.29,21.25-16.62,15-28.08,33.69-39.45,52.64-2.44,4.06-.23,14.56-11.09,11-12.49-4.11-25-8.26-37.67-11.63-15.52-4.12-31.5-1.49-47.26-1.7-2.66,0-8.88,2.49-7.34,7.28,6,18.72,14.42,36.16,28.51,50.55,3.85,3.92,13.25,6.42,7.26,15.48-9.55,16.91-13.93,36.4-15,55.75,0,.84-1,1.65-1.48,2.47-.73-.77-1.86-1.43-2.12-2.33a74.64,74.64,0,0,0-22.6-35.77c-1.49-1.34-3.2-2.6-2.6-5.33,6.1-27.73,1-53.57-14.14-77.33-17.76-23.7,18.78-13.64,39.54-60,7.42-17.73-24-19.08-34.93-23.35a47.5,47.5,0,0,0-26.21-1.15c-13.44,3.31-23.54,5.51-31.91-10.24C246.7,514.81,233,501.27,219.39,488c-4.44-4.33-9.29-14.44-4.84-17.44,8.18-5.5,16.35-12,28.48-12.1,21.24-.25,42.43-4.72,61.08-15.93,31.56-16.24,9.3-54.57-25.28-39.57-21.14,7.76-36.63,22.33-45.47,42.55-4.43,10.15-15.27,8.82-20.6,16a1.55,1.55,0,0,1-1.25,0c-1.37-3.74-2.81-7.46-3.9-11.28-.58-2,.07-4.54-.83-6.32-10-19.64-4.29-41.2-2.72-61.78,1.31-23.11,2.18-60.86-26.78-64.91-38.45,4-18.26,77.11,4.21,92.49,4.39,4,12.38,6.87,12.88,12.57-1.23,9.56,2.94,17.6,3.95,26.37,2,13.62,9.84,24.73-10.06,14.82-118.62-97-128,30.51-25.17,19,9.72-2,17.18-12.7,28.51-7.37,6,2.8,17.38.34,14.77,11.95-1.83,8.16-7.41,15.17-10.35,23.44-5.09,14.31-8.87,28.91-13.63,43.22-1.84,5.56,3.93,16.41-8.3,16.92-15.67-4.76-83.91,14.51-81.8,34,13.76,25.15,37,38.69,64,46.5,2.61.76,7.53,1.64,6.25,4.39a134.53,134.53,0,0,0-9,25.27c-3.1,13-5,26.06-3,39.58.47,3.13,4,9.44-2,10.48-28.17,4.74-60.36.5-80,26.06-16.84,20.23-32.58,41.62-55.7,56-16.27,9.45-19.17,28.94-9.22,44.08C26.66,897.57,70,885.71,95.64,924.2c8.46,10.62,15.89,23.71,29.6,28.53,12.73,4.49,16.44,10.9,11.19,23.59a17.62,17.62,0,0,0-.53,11.26c30.1,71.33-34,96.31-10.17,152.6,18,40.92,60.76,66.67,75,109.44,4.85,15.41,7.8,27,27.11,26.18,14.68-.6,29.73-.72,41.77-10.76,32.59-31.94,83.68-16.2,115.43-48.3,12.77-13.31,22.4-29.6,38.12-40.11,35.92-23.32,86.4-8.32,117.17-40.7,2.51-3.23,3.31-.32,4.1.91,18.31,30.44,53.84,44.64,88.48,38.44,21.85-1.49,37.78,14.32,56.82,21.24,34,15.56,63.08-1.81,95.58-11.18,14.8-3.78,27.23,5.32,39.39,11.47,26.84,13.68,55,3.52,65.51-22.93,17.69-38.25-4.33-78.14,3.74-116.93C899.13,1040.17,905.24,1023.66,906.62,1006ZM837,639.09c18.11.29,28.86,15,19.57,28.1-16.14,17.59-57.45,14.69-80.25,8.37C793.85,658.39,809.16,638.63,837,639.09ZM759.46,491.22c4.61-7.88,12.86-13.3,20.36-9.35,7.08,3.74,4.19,14.5,2.51,21.18-3.76,20.88-10.69,39.72-24.88,56.29C749.22,536,746.47,513.42,759.46,491.22ZM697.81,650.41c-18.44-7.08-34.94-28.92-37.81-49.06-1.13-7.84-.68-17,6.23-19.6C689,574.13,702.88,636.14,697.81,650.41ZM464.44,820.15c18.64.38,50.44-2.64,55.37,21.68-.74,17.27-57-8.08-62.35-18.36C459.79,822.3,462.21,820,464.44,820.15Zm90-344.41c9.21-19,61.16-47,74.25-21.14.93,4.75-3.57,7-6.94,9.7-18.27,13-43.87,18.18-68.21,14.33A15.19,15.19,0,0,1,554.45,475.74Zm-15.36-114c9.37-17.66,18.95-35.52,40-41.45,6.82-1.93,14.72-6.41,22.06.32,1.26,1.16,2,1.92,1.64,5-6.5,20.28-44.36,38.79-65.2,39.85A36.58,36.58,0,0,1,539.09,361.73Zm-62-63.93c-11.38-21-22.68-46.93-12.74-70.5.87-2,4.83-4.31,6.75-3.85,20.94,4.9,18.66,65.82,8.64,79.32C478.82,301.11,478,299.42,477.05,297.8Zm-32.66,125c-16.11.22-69.32-37.81-46.53-53.62,5.14-3,9.4.21,13,2.84C428,384.38,438.2,402.27,448.5,420,449.9,422.45,449,423,444.39,422.77Zm.66,92.2c-19.86,3-51.56-21.12-54.76-40.73,1.12-4.3,2.2-8.36,8.3-7,25,5.45,36.89,24.93,48.11,45.07C447.39,513.52,447.05,514.66,445.05,515ZM242,445.63c52.52-78.74,120.06-5.72-.56,3.62C241.62,448,241.42,446.58,242,445.63Zm-49.13-41.1c-.24,2.57-2.41,3.63-3.2,1-.86-2.86-3.35-2-4.53-3.51C128.75,323.24,211.54,284.68,192.88,404.53ZM162,472.86c-19.45,6.63-68.77-7.53-56.24-32,12.8-13.07,60.68,14.21,68.82,27.81C170.34,470.1,166.23,471.81,162,472.86ZM576.07,879c13.81-7.93,62.38,20.52,77,28.09,65.69,37.83,121.51,92.4,157.82,159-68.13-78-144.66-143.63-246.73-173.35C566.11,888.18,569.09,882.22,576.07,879Zm-126.85-9.8c1.39-.07,1.61.82-1.43,3.78-20.18,19.64-41.12,38.57-60.54,58.94C325,996.11,279.94,1076.74,249.67,1160.59l-.81-.11c21-94.34,71.53-181.68,136.68-252.51,10.47-10.72,20.65-21.72,30.77-32.77C425.83,864.8,438,869.82,449.22,869.24ZM376.17,687.32c2-4.15,2-8.72-2.17-12.48-14.49-12.9-24.26-29.19-32.58-46.43-.94-2-.77-6,2.4-4.84,9.3,3.42,18.72.6,27.95,1,17.54.68,33.78,6,49.76,11.43,13.34,4.55,16.39-4.49,20.27-11.79a256.68,256.68,0,0,1,48.69-63.72C504,586,507.92,616,509.12,644.86c-.1,13,12.16,11.91,20,13.88,22.91,3.85,40.29,16.32,60.47,27.09-44,39.89-77.69,20.09-73.87,51.65.87,14.62.43,29.67-2.75,44.29-.09,11.63-3.75,13.43-14.1,8.24-35.51-15.66-34.54-58.29-65.48-38.75-14.4,7.41-30.18,12-46.76,14.51-8.32,1.24-15.41-3-23.19-.94-2.92.79-2.3-2-2.36-3.69A155.15,155.15,0,0,1,376.17,687.32ZM355.06,800a33.8,33.8,0,0,0,2.27-20.55c-3.14-18.18,18.89,10.7,77.27-19.26,4.1-2,4.51-1,4.3,2.88-2.77,11.77-5.71,23.8-8.41,35.88a307.19,307.19,0,0,0-7.62,47c-.57,4.33-3.13.62-3.46.23-13-15.39-30.47-24-48.25-32.13C362.09,807.76,347.47,816.9,355.06,800ZM171.55,657.4c4.23-8.6,3.49-10.76-12.32-14.16-17.62-4.94-32.41-15.57-46.63-26-13.48-14.57-11.93-18.79,7.14-26.2,20.41-7.93,41.16-12.87,63.18-12,8.14.33,6.13-6.82,7-11.1,4.94-24.12,10.25-48.07,21-70.46,4-11.79,42.76,49.32,48.3,54.74,5.94,7.8,13.84.78,20.06,0,16.14-1.7,32.4-1.49,47.24,4.74,4.87.58,14.24-.4,13.42,3.07-6.06,19.15-24.62,33.41-40.37,44.8-20,12.57-.61,20.83,2.87,30.1,8.43,19.27,15.87,40.29,10.38,61.4-22.53-7.18-44-19-64.29-31-9.88-10.45-13.48-8.22-20.14,4.94-5.85,11.57-13.18,22.88-26.53,29.38-12.6,6.12-23.58,15.6-35.23,23.65C148.61,735.89,166,662.76,171.55,657.4Zm92.13,26.94-36.41,3.95c4.3-5,8.18-10.4,9.63-17.17C237.42,663.27,250.89,682,263.68,684.34ZM9.19,827.69c11.55-13.71,30.23-18.39,41.28-33,17.63-19.68,33-49.35,62.77-49.51,55.23,2.15,62.87-20.91,105.77-41.89C287.82,676.89,353.08,721,347,796.6c-1.82,11-8.36,8.59-16.11,7.63-21.26-2.66-23.45-21.8-31.72-35.46-12.48-20.62-29.69-36.49-48.75-50.52-5.24-3.86-12-5.74-18.07-8.37-.76-.33-2.18-1.63-2.9-.68-.85,1.27-.39,5.08.63,5.58,9.56,2.53,54.19,39.32,52.4,47.91-7.79-.27-32.87-21.34-38.9-18.4,3.47,14,34.43,24,47.42,29.69,6.4,2.33,9.19,14.58,13.62,22.32-4.39,1.87-8.66.11-13-.4-18.64-2.2-37.36-1.72-56-.85-11.16.52-11.93-10.54-18.37-15.32-8.9-6.53-47.17-36.25-56-27.12-2.49,3.24,25.9,15.34,29.84,18.77-12.07-.78-24-.74-35-5.57-6.27-3.7-9.45,2.64-2.38,5.51,20.25,12.6,51.33.35,64.54,22.15,1.74,2.57-2.14,3.09-3.46,3.24-14.11,1.58-28.27,2.7-42.38,4.28-20.68,1.9-26.34,7.33-45.61-5-11.42-4.46-23-8.55-35.43-9.06-7-.89-8.48,3.8-.53,6,11.28,3.47,22.66,6.65,34,10.1,1.17.36,2,1.82,3,2.77-22.09,5.35-45.06,5.58-66.66,14.23-10.49,3.22-45.68,16.12-54,12.22C7.86,830.74,8.16,828.91,9.19,827.69Zm315.42-17.27c-14.45.75-25.8,7.56-38,11.91-5.7,2-11.53-2.3-17.35-3.22-31.61-6.39-59.66-6-92.63-8C199.53,803.83,289.36,797,324.61,810.42ZM142.93,949.88c-14.44,6.4-41.09-34.45-51.61-44.11-12.82-14.2-29.36-20.67-47-24.59-10.92-2.42-34-23-35.67-34-.55-3.51,2.78-3.61,4.07-3.89,47.92-9.53,94.88-21.1,144-21.92-14.9,10.3-23.94,26.31-44.34,23.78-13.18-1.64-26.33,1.27-38.81,5.91-3.5,1.3-10.23,2.21-8.45,7,1.51,4,7.69,1.35,11.19-.12,11.17-4.69,22.63-5.41,34.12-4.72C102.49,859.53,94.66,865.65,87,872c-.9.75-3.48,2-1.38,3.8,1.41,1.23,3.22,2,5.38.49,26.22-17.49,54.86-32,76.39-55.5,2.65-1.94,7.48-2.24,11-1.51,15.1,3.54,30.54.2,45.55,2.43a264.79,264.79,0,0,1-31.46,38.67c-5.91,5.45-13.11,2.76-19.4,4-4.9,1-43.12,9.72-33.62,16.55,12.84-3.65,25.37-8.55,38.54-8.55-4.27,5.49-37.2,28.5-33,34.06,2.74,2.74,7.2-2.25,9.69-4.36,18.46-15.71,39.89-28.09,55.21-47.26,5.54-6.93,13.17-12.31,15.9-21.63,6.35-20,33.86-5.66,50-4.82-26,14-40.64,39.13-63,55.58C180,899.88,153.43,910.27,142.93,949.88Zm84,313.78c.05,1.43,0,3.88-2,2.94-4.33-2-10.26-2-11.78-8-3.14-12.36-6.72-24.52-13.24-35.65-16.46-24.66-36.55-46.62-54.23-70.41-27.49-29.74-10.5-60.46,2.4-92,16.61-36.12-13.11-72.14,4-107.63,22.22-59.77,56.81-36.53,101.27-93.35,41.79-46.54,117.56-55.27,160.78-6.37,4.26,4.15,4.7,9.2-.29,14-10.2,9.86-19.92,20.21-30.2,30-7.15,6.79-10.72-2.85-14.05-5.18-15.4-9.37-69.42-45.93-84.39-37.7a3.88,3.88,0,0,0,1.45,2.67c16.94,8.11,34.07,15.85,50.87,24.24,7.46,3.72,14.29,8.7,21.36,13.19.51.33.55,1.39.81,2.11-51.49-4.18-115.41.24-159.46,28.44,1.42.63,3.08,2.11,4.22,1.78,17.12-5,33.87-12,51.31-14.9,17-2.84,33.75-8.83,51.54-7.52,7,.51,14.09-1,25.87-1.91-26.61,12.35-46.47,22-69.12,32.2-3.27,1.5-9.47,2.26-7.75,6.29,1.81,4.24,7.92,1,11.15-.23,26.28-10,51.13-23,75.86-36.42,9.22-5,20.8,1.37,32,.92C284.7,1016.91,355.94,943,234,1000a323.61,323.61,0,0,0-60.52,44.07c-2.11,2.23-7.44,5-5.27,7,3.15,3,7.75-1.1,10.62-3.38,26.95-21.33,54.78-41.1,89.09-50.9q-20.68,19.93-41.36,39.88c-1.43,1.38-4,2.56-2.15,5,6.7,6.14,47.65-38.81,53-46.32C288,982.57,304.33,983.93,319.3,979a407.76,407.76,0,0,0-36.83,61.65c-5.25,11-10.22,22-14.42,33.48-4,10.95-16.86,12.67-25.78,18.06-8.76,4.42-71.37,48.25-63,56.52,2.64,2.77,4.44-1.47,6-2.69,12.92-9.23,22.47-24.12,37.36-30.25-3.71,13.91-16.76,24.73-19.79,39.09,3.34-1.49,8.2-2.06,9.76-4.63,6.58-10.84,15.37-21.75,17.34-33.64,2.46-14.82,14.56-15.07,22.59-21.46,2.22-1.76,5.24-2.52,7.9-3.73C240,1146.32,225.53,1204.78,226.92,1263.66Zm283.43-120.38c-51.85,11.29-92.76,8.19-125.14,58-11.16,13.82-24.58,23.07-42.85,25.9-29.24,4.54-57.71,11.41-81.13,31.88-5.43,4.75-14.47,5.41-21.89,7.8-1.66.54-2.63-.63-2.24-2.26,8.15-65.95,25.18-132.26,59.92-189.51,1.29,1.7,3.18,3.2,3.78,5.12,4.16,13.31,10.05,26.52,11.31,40.15.82,9-5.28,18.56-8,28-3.78,13-7.58,26-10.69,39.13-.59,2.46,2,5.69,3.13,8.56,3.26-1.46,4.44-3.91,4.61-7.53.91-17.93,10.82-32.83,12.67-50.63,6.8,9.51,4.81,20.59,6.86,30.64,1.83,8.93,1.68,18.28,2.2,27.46.13,2.33.68,3,3.14,3.06s3.05-.82,3.08-3.11c-.23-42.75-6.69-87.1-24.24-126.22-5.71-12.39,4.52-18.44,8.75-26.4A470.12,470.12,0,0,1,362.14,971c7.2-7.69,10.61,1.75,12.15,4.5,10.76,19.15,21.68,38.39,30,58.65,4.25,10.36-2.86,21.79-5.68,32.52-2.85,14-13.2,45.38-5,57.12,1.17-1.21,3.14-2.26,3.38-3.63,3.53-22.45,6.93-44.7,13-66.68,5.77,8,7.25,17.8,8.94,27.45,3.19,18.24,7.72,36.32,6.22,55.13-.11,1.43,2.19,3,3.36,4.58,10.2-15.37,2.57-36.18.27-53-7.13-41.86-25.4-80.77-47.75-116.53-14.91-10.85-4.07-16.86,3.1-24.12,7-7.85,14.72-15,21.7-22.85,4.29-4.82,9.45-2.41,12.5-.55C436,934.33,453.57,945.27,470,957.7c3.94,3,3.2,11.95,5,18.07,4.72,22.57,15.18,43,23.68,64.21,3,13.06,10.27,4.86,6-3.86-6.5-22.79-19.48-44.89-23-67.92,21,14.95,36.54,36.77,54.55,55.1,1.67,1.8,3,5.19,5.62,3.34,3-2.05-.31-5.26-1.31-6.73-24.67-36.07-56.89-64.72-93.34-88.69,31.36-2.11,61.74,3.35,91.9,11.32,4.23,1.68,8.13-3.87,2.63-4.18-30.9-14.4-67-17.2-100.69-14.12-9,1.29-15.69-6-24-7.8-.22,0-.49-2.25,0-2.73,25.26-23.77,35.7-50.28,75.35-40.11,45.26,5.63,83.73,40,106,78.56,19.64,45.64-42.15,58.69-45.2,98.5-1.26,13.92-.21,28-.25,42.08C552.87,1110.9,527.73,1138.47,510.35,1143.28ZM858.56,1193c-17.29,2.25-31.83-5.47-46.86-12.06-45.09-18.3-82.15,38.68-145.17-6.71-25.56-18.94-59.82,6.13-85.7-15-8.71-8.61-41.32-25.14-28.47-39.49,22-24.89,3.87-57.31,16.68-84.1,5.38-9,12.28-17.08,20.67-23,16.91-12,25.19-40.08,18.48-60.56C601.58,933,586.84,920.88,573.3,903c65.44,28.8,49.59,3.82,46.4,64.25-.86,34.38.08,68.46,6.11,102.51,4.43,16.21,6.46,61.72,19.48,70.17-.32-20.43-9.48-41-11.43-61.69-3.14-20.82-4.27-42-6.45-64.64,11.88,22.46,19.36,44.95,27.58,67.14,1.31,3.54,4,7.67,7.24,7.37,2.09-.2-.08-4.93-.9-7.72-7.28-24.91-16.72-48.68-30-71.23-11.77-22.41-.37-56.25-.86-81.89,11,8.79,69.46,34.83,63.59,49.27-15.21,48.74-6.44,107.07,6.84,155.61,1.6,5.23,4.07,17.71,11.07,17.31-.38-4.81.35-10.06-1.32-14.37-7.3-18.89-9.55-38.74-12.56-58.5-.92-6.1-3.16-12-.2-18.67,15.65,19.87,25,42.67,36.22,65,.68,1.23,2.29,4.9,4,2.53,5.18-12.92-22.15-60.19-33.31-69.07-18-16.77-7.08-36.25-8.76-54.46-.69-7.43,2.18-15.15,2.91-22.79.23-3.44,1.91-6.06,5.61-2.91,20.68,16.07,39.1,34.85,59.16,51.45,15.44,12.78,11.79,28.48,15.21,43.41,3.21,14.06,6.59,28.09,9.57,42.2,2.76,13,4.53,26.21,12.11,37.78,3.7,10,9,6.36,5.82-3.5-7.92-15-8.71-31.84-13.26-47.68-4.81-15.57-8.93-32.15-8.54-48.55,25.18,25.78,44.12,60.55,60.42,93.45,7.13,14.11,12.07,29,17.37,43.76C863.94,1192.78,861.62,1192.62,858.56,1193Zm30.16-153.18c-20.42,47.52,17.9,104.72-16.87,148.29-.92-1.79-2.42-3.5-2.67-5.37-3.32-24.87-16.08-46.37-25-69.19-19.2-51.31-53.5-94.29-87.59-136.37,12.09-2.68,22.25,5.15,33.8,5.84,5.21.31,5.28,5.43,7.32,8.17,10.27,11.87,40.42,52.58,55.83,49-14-19.87-34.66-34-50.22-52.87,17.39,5.13,33,10.72,47,20.17,5.28,2.67,10.41,8.15,16.58,7.56-10.85-23.59-75.47-43.78-100.55-45-28.28.29-38.24-24.86-58.32-35.3-9.46-5.24-18.38-12.24-26.75-19.21,8.5-8.39,41.53-15,54.09-17,8.17-.84,17,7.69,26,10.65,19.43,5.29,40.65,17.52,61,12.54-1.37-1.57-2.58-4.32-4.12-4.52-25.53-3.83-48.69-13.9-73-21.83,25.39-3,50.51-5.68,76.08-4.35,4.5-.59,10.25.79,13.63-2.78-37.47-14-122.22.69-157.83,19.49-6.87,5-10.81-1.49-15.2-3.71-8.61-4.35-16.43-10-25.65-13.57-5.55-2.17.17-7.87,1.83-10.14,6.25-8.6,12.87-17.4,21.11-23.9,3.86-3,11.83-.42,17.78-1.37,19.38-3.64,39.89-6.51,57.56-15.47-5.45-5.51-13.26-1.85-18.8.09a316.3,316.3,0,0,1-49,9c11.13-15.23,26.75-24.36,41.05-35,2.68-2,8.44-2.91,5.8-7-17.32-5.31-61,44.58-74,57.77-2.1-23,7.17-45.37,13.48-67.17-8.06-18.29-19.1,43-20.28,48.14-2.54,12.13,1.74,24.63-4,36.63-3.23,6.73-6.32.67-7.13.27-12.12-6-25-8.95-38.13-11.7-12.76-3,20.43-66.1,28.73-72,30.5-37.07,111.84-58.83,126.38,2.38,20.41,43.36,73.79,14.34,109.36,52,19,18.39,1.6,48,13.3,70,10.3,26.88,36.15,53.68,35.59,83A132.26,132.26,0,0,1,888.72,1039.84ZM401.17,693.71c-2.39-6.75,9.09-8.25,13.28-6.41,3.73,1.45,8.52,2.57,9.74-.12,2.32-10.17-1.83-22.41-.76-33,.08-1.4,3.78-9.83,7.63-1.18,2.56,6,2.05,10.62,2,17.7-2.39,5.2,3.23,11.13,1.29,17.62,8.6,5.24,12.82,3.44,14.32-6.28,3.81-8,12.12-45.64,21.06-44.76,8.42,5-18.13,49-13.7,57.56,2.8-1.19,5.82,4.31,8.41-.11,6.5-11.05,14.86-20.51,24.32-29.06,1.42-1.28,2.49-4.34,5-1.46,1.88,2.17,2.19,4.51.13,7-7.63,9.14-15.29,18.27-22.72,27.58-2.72,3.41,2.08,3.21,3,3.88,3.51,4,24,12.1,20.22,17.55-5.18,6.4-33.58-17.27-46.43-17.24q-18-3.41-36.1-5.74C407.89,696.69,403.84,697.13,401.17,693.71ZM189.42,598.28c-3.29-5.18,4.34-8.66,6.78-3.33,5.05,8.78,13.41,15.28,17.11,25,1.56,2.27,7.95-.31,8.24-2.17-1.6-13.92-3.62-27.79-5.43-41.68.16-5.08-3.9-12.7,2.62-15,.36-.16,2,1.38,2.25,2.32,3.44,16.12,6.88,32.24,9.94,48.44.52,2.77,1.46,3.24,3.74,3.06,2-.17,4.51.78,4.3-2.93-.67-11.6,1.12-22.93,3.91-34.16.93-3.73,2.21-8.6,5.78-8.45,4.9.19,1.1,5.47,2.76,8.35-1.22,11.11-5.57,21.93-4.47,33.5-.24,6.66,6.47.46,11.18,1.73,4.31,0,10.64-.07,10.37,5-.24,4.65-6.35,2.94-10.43,3.37-22.92,1-43.27,10.16-63,21.41-7.33,2.67-4.58-8.31.07-9C216.7,627.2,192.49,610.69,189.42,598.28Z"/></g></g><g id="Red_Japanese_Frames" data-name="Red Japanese Frames"><path class="cls-6" d="M0,20V1580a20,20,0,0,0,20,20H956a20,20,0,0,0,20-20V20A20,20,0,0,0,956,0H20A20,20,0,0,0,0,20ZM924,1548H52V52H924Z"/><path class="cls-7" d="M952.1,15.41,928.69,38.83A4,4,0,0,1,925.86,40H50.14a4,4,0,0,1-2.83-1.17L23.9,15.41A2,2,0,0,1,25.31,12H950.69A2,2,0,0,1,952.1,15.41ZM40,1549.86V50.14a4,4,0,0,0-1.17-2.83L15.41,23.9A2,2,0,0,0,12,25.31V1574.69a2,2,0,0,0,3.41,1.41l23.42-23.41A4,4,0,0,0,40,1549.86ZM936,50.14V1549.86a4,4,0,0,0,1.17,2.83l23.42,23.41a2,2,0,0,0,3.41-1.41V25.31a2,2,0,0,0-3.41-1.41L937.17,47.31A4,4,0,0,0,936,50.14ZM925.86,1560H50.14a4,4,0,0,0-2.83,1.17l-20,20a4,4,0,0,0,2.83,6.83H950.69a2,2,0,0,0,1.41-3.41l-23.41-23.42A4,4,0,0,0,925.86,1560Z"/></g></svg>