<svg id="Card" xmlns="http://www.w3.org/2000/svg" viewBox="0 0 1024 1680"><defs><style>.cls-1{fill:#f2f0ed;}.cls-2{fill:#8c1707;}.cls-3{fill:#16592d;}.cls-4{fill:#38408c;}.cls-5{fill:#d82e21;}</style></defs><rect class="cls-1" x="14.5" y="14.5" width="995" height="1651"/><polygon class="cls-2" points="966 1619.17 966 60.83 1018 8.83 1018 1671.17 966 1619.17"/><polygon class="cls-2" points="60.83 58 8.83 6 1015.17 6 963.17 58 60.83 58"/><polygon class="cls-2" points="8.83 1674 60.83 1622 963.17 1622 1015.17 1674 8.83 1674"/><path class="cls-3" d="M920.43,377.39c-.43-.06-1-.07-1.48-.09a7.53,7.53,0,0,1-4.45-1.06c-15.7-11.69-34.45-16.74-52.57-21.63l-.17,0c-4.59-1.24-9.34-2.52-14-3.89a12,12,0,0,1-3.52-2c-.55-.4-1.16-.84-1.83-1.26l-3.4-2.15,3.77-1.41a66.69,66.69,0,0,1,23.31-4.51c16.63,0,32,7.25,46.95,22.14a82.56,82.56,0,0,1,6.79,8l.11.14c.59.77,1.17,1.53,1.77,2.28a4.62,4.62,0,0,1,.84,2.45,4,4,0,0,0,.08.55l.64,2.81Z"/><path class="cls-3" d="M898.68,386.17c-16.16,0-30.75-7.61-45.91-23.94l-3.65-3.94,5.34.59a127.11,127.11,0,0,1,34,9.14l4.11,1.65c6.15,2.49,12.48,5,18.66,7.68a8.14,8.14,0,0,1,2.86,2.38,11.68,11.68,0,0,0,.82.89l2.59,2.49-4.21,1.07c-.94.25-1.92.5-2.91.71A56.53,56.53,0,0,1,898.68,386.17Z"/><path class="cls-3" d="M863.62,310.15a73.36,73.36,0,0,1-22.57-3.52c-14.57-4.7-28.31-11.84-43.27-22.48l-6.08-4.33,7.43.71a249.22,249.22,0,0,1,47.81,9.3q5.88,1.71,11.77,3.45l.21.06c6.45,1.91,13.13,3.87,19.72,5.73a7.35,7.35,0,0,0,1.23.2c1.47.16,4.89.54,4.77,4.25-.09,2.69-3.91,4.85-5.84,5.21A84.71,84.71,0,0,1,863.62,310.15Z"/><path class="cls-3" d="M876.5,487.43c-10.91-32.81-22.44-58.38-36.3-80.46l-2.83-4.49,5.09,1.51c9.24,2.76,20.43,15,28.51,31.13,9,17.92,12.39,36.9,9.39,52.07l-1.47,7.43Z"/><path class="cls-4" d="M845.49,849.31h-.07c-3.34-.52-6.84-.94-10.21-1.35-8.47-1-17.19-2.07-25.41-4.75-2.6-.85-3.3-2.32-3.43-3.4-.33-2.8,2.81-5.15,5.93-7.08l.23-.15c11.54-10,23.21-18.9,38.86-18.9a43.89,43.89,0,0,1,5.1.31c11.56,1.41,20.33,8.14,23.47,18a8.83,8.83,0,0,1-.29,7.1c-1.93,3.6-6.46,4.89-10.46,6a34.82,34.82,0,0,0-3.91,1.26c-4.1,1.75-8.56,2.06-13.29,2.39-2,.14-4,.28-6,.54l-.21,0Z"/><path class="cls-4" d="M830.31,746.86c-11.9,0-23.18-4.2-31.69-7.87a3.38,3.38,0,0,0-.38-.06c-.84-.1-2.41-.3-3-1.82s.7-3,1.18-3.49c11.57-12.37,24.42-24.45,43-24.45,1.37,0,2.76.07,4.16.2,17.13,1.63,20.72,8.27,21.94,13.86l0,.13v.13c.58,14.44-9.25,17.5-17.15,20-1,.29-1.89.59-2.79.89A47.34,47.34,0,0,1,830.31,746.86Z"/><path class="cls-3" d="M884.26,298c-29.25-12.59-59.75-19.59-88.47-25.68l-1.16-.25-.1-3.32,1.13-.32a87.37,87.37,0,0,1,23.42-3c29.42,0,57.89,12.52,67.71,29.77l3,5.18Z"/><path class="cls-3" d="M872.78,500.48c-30.09-17-42.35-43.27-36.42-78.1l1.07-6.32,40.78,87.49Z"/><path class="cls-4" d="M795.33,651.48,779,649.93l-2.59-.24.9-2.45c1.7-4.57,5.1-7.38,8.39-10.09,1.23-1,2.46-2,3.54-3.11,13.26-13.11,26.06-19.67,40.28-20.65.45,0,.89,0,1.31,0,4.05,0,7.25,1.28,9.27,3.72s2.59,5.58,1.88,9.39c-2.5,13.26-19.21,23.33-33.26,24.41-1.51.12-3.11.18-5,.18-1.36,0-2.72,0-4.08-.06l-2.18,0-.08.72Z"/><path class="cls-4" d="M769.9,559.38c-1.19,0-2.39,0-3.57-.13L752,557.93l1.61-2.72c1-1.6,1.85-3.32,2.73-5,2-3.88,4.15-7.89,7.14-11.19a119.87,119.87,0,0,1,20.36-18.45,39.57,39.57,0,0,1,22.62-7.47,35.47,35.47,0,0,1,7.27.76c4.13.87,11.15,6.91,10.52,10.83-1.14,7.1-3.7,17-12.67,21.38L809,547.36C796.85,553.27,784.28,559.38,769.9,559.38Z"/><path class="cls-3" d="M814.71,204.73c-17.37,0-34.47-6.79-52.57-14l-5.43-2.15.62-3.39,1.23,0c3.53-.05,7-.08,10.34-.08,29.2,0,54.2,2,78.67,6.24l5.24.91L848.27,195A63,63,0,0,1,814.71,204.73Z"/><path class="cls-3" d="M773.53,463.33c10.19-22.06,16.4-43.13,23-65.44l2.55-8.65,2.2,5c8,18.15-6.43,59.63-24.82,71.59l-5.81,3.77Z"/><path class="cls-3" d="M847.77,190.31c-22.75-6.51-48-9.55-79.46-9.55-5.59,0-11.36.09-17.64.28l-5.35.16,3.93-3.63a62.27,62.27,0,0,1,43-16.45c25.16,0,49.12,13.3,57.76,26.15l3,4.55Z"/><path class="cls-3" d="M770.62,454.69c-6.24-5.71-8.48-31.17-4.79-40.09,3.45-8.3,8.36-14.59,15-19.23a19.84,19.84,0,0,1,5-2.28c.72-.25,1.4-.48,2-.74l2.77-1.13,0,3c0,.74.05,1.56.1,2.34a16.79,16.79,0,0,1-.36,6c-4,12.88-8.25,25.82-12.33,38.33-1.4,4.31-2.81,8.61-4.2,12.9l-1,2.95Z"/><path class="cls-4" d="M753.25,1027.3c-4.54,0-9.41-1.62-14.48-4.82-3.76-2.37-4.45-6.33-5.07-9.82a26.7,26.7,0,0,0-1-4.14l-.2-.55.13-.57c3.43-15,7.31-32.1,17.29-46.61a6.51,6.51,0,0,0,.62-1.66,7,7,0,0,1,1.71-3.43,11.05,11.05,0,0,0,1.94-4c.94-2.75,2.11-6.17,5.68-6.17a5.84,5.84,0,0,1,1.15.12c6.55,1.39,8.94,8.12,10.86,13.53.21.6.42,1.19.63,1.76,5,13.62,6.43,26.27,4.29,38.66-1.92,11.14-5.35,22.08-17.37,26.61A17.67,17.67,0,0,1,753.25,1027.3Z"/><path class="cls-5" d="M533.77,1327.69c-10.72,0-17.83-4.49-23.79-15-7.82-13.81-17.52-27-26.91-39.82-4.43-6-9-12.3-13.38-18.58-9.22-13.25-17.17-27.44-24.87-41.16-4.89-8.72-9.94-17.73-15.25-26.38-16.39-26.68-29.54-55.5-42.25-83.37l-.13-.27c-2.46-5.39-4.91-10.78-7.4-16.15-5.34-11.57-9.54-23.84-13.61-35.71s-8.26-24.12-13.56-35.57c-7.22-15.56-13.76-33.39-20-54.48l-2-6.66c-4.94-16.6-10.05-33.77-13.74-51.06-2.2-10.34-5.27-20.72-8.23-30.76-1.52-5.13-3.07-10.39-4.5-15.6q-2.79-10.17-5.63-20.31l-.08-.27C293.31,818.08,288,799,283.34,780.05c-3.84-15.6-6.88-31.64-9.82-47.15q-1.18-6.23-2.38-12.45l-1.15-5.9c-2.73-14-5.54-28.43-7.57-42.77-2.59-18.45-4.18-36.7-5.27-50.54-1.91-24.08-4.91-49.65-9.43-80.49-1.58-10.78-2.4-21.82-3.2-32.49-.44-5.88-.89-12-1.47-17.93q-2-21.1-4.15-42.2l0-.32c-1.83-18.39-3.72-37.39-5.48-56.08-.3-3.17-.32-6.37-.33-9.45,0-5.47-.06-11.12-1.7-16.42a3.72,3.72,0,0,1,.34-3.45,4,4,0,0,1,3.47-1.35h.77a29.1,29.1,0,0,1,6.72,1.05,25.45,25.45,0,0,0,5.77.95c16.59,0,33.45.54,49.75,1.07h.19c13.2.42,26.84.86,40.25,1,12.1.13,24.34.66,36.17,1.18l.29,0c5.89.25,12,.52,18,.73q10.27.36,20.55.68l.87,0c12.32.39,25,.79,37.74,1.32,4.8.2,9.64.6,14.33,1,4.06.34,8.23.69,12.35.9,2.2.12,3.77.85,4.66,2.18,1.41,2.1.49,4.74,0,6.16-.07.19-.14.39-.18.52-.91,9-.29,18.13.31,27,.32,4.81.66,9.78.75,14.69.16,8.76,1,17.66,1.81,26.26a301.57,301.57,0,0,1,1.84,30.28c-.07,10.6.66,21.3,1.38,31.65.44,6.41.9,13,1.16,19.6.74,18.44,3,37.17,5.27,55.29l0,.22q.72,5.85,1.43,11.69c2.32,19.42,5,38.86,8,57.78,2.53,15.83,5.56,31.86,8.48,47.37l1.59,8.39c2.54,13.56,5.38,28,8.93,45.45,1.12,5.48,2.2,11,3.29,16.46,3.07,15.46,6.22,31.38,10,46.87,2.51,10.33,5.5,20.73,8.39,30.8,3.23,11.26,6.57,22.89,9.27,34.49,4.66,20,10.47,45,19.76,67.54,3.35,8.13,6.4,16.5,9.36,24.59,4.33,11.86,8.8,24.12,14.27,35.82,4.13,8.83,8.08,17.95,11.89,26.77,4.4,10.17,8.93,20.65,13.76,30.72,10,20.86,21.41,41.49,32.45,61.44q4.38,7.92,8.73,15.85c4.54,8.29,9.48,16.53,14.25,24.51,2.5,4.18,5.09,8.5,7.61,12.81,3.64,6.23,7.24,12.48,10.85,18.72l.2.35c7,12,14.13,24.49,21.46,36.56,5.76,9.48,11.79,19,17.62,28.18l.08.12c6.4,10.09,13,20.52,19.28,30.94.55.91,2.23,3.7,1,5.89-1.13,2-3.72,2-4.69,2-.59,0-1.19,0-1.76-.07s-.83,0-1.18,0h-.31c-10.48.8-21.15,1.53-31.48,2.22l-.24,0c-13.31.9-27.07,1.83-40.59,2.94-7.44.61-15,1.54-22.21,2.43s-14.78,1.81-22.18,2.42c-28.5,2.34-59,5.14-88.86,9.82A70,70,0,0,1,533.77,1327.69Z"/><path class="cls-3" d="M707,141.42a134.79,134.79,0,0,1-36-5.19l-6.53-1.8,6.46-2c21.09-6.66,42.49-9.63,69.39-9.63,6.65,0,13.72.18,21.62.55l7.42.35-6.59,3.42C744.14,136.73,725.9,141.42,707,141.42Z"/><path class="cls-3" d="M654.55,124.82c18.81-17,37.49-25.28,57.11-25.28,15.14,0,30.74,4.86,47.69,14.86l1.08.64-1.23,3.28-1.24-.24a135.42,135.42,0,0,0-25.54-2.36c-21.32,0-41.24,4.58-62.33,9.42-4.5,1-9.14,2.1-13.77,3.11L649,129.86Z"/><path class="cls-3" d="M675.67,396.15c.1-.36.19-.73.28-1.1a26.38,26.38,0,0,1,.82-2.87c4.7-12.78,9.56-26,14.44-39.05l.23-.63c4.68-12.49,9.52-25.41,14.49-38,.61-1.54,2.06-2.36,3.35-3.08a12.06,12.06,0,0,0,1.23-.75l2.47-1.8.66,3c.55,2.47,1.1,4.94,1.55,7l.46,2v.15c.61,28.66-10.14,53.36-32.88,75.49a7.42,7.42,0,0,1-3.34,1.64c-.38.11-.75.22-1.1.35L674.64,400Z"/><path class="cls-3" d="M666.16,396.55c-7.56-27.43-1.5-52.69,18.53-77.23,1.21-1.48,2.38-3.06,3.51-4.58,3.24-4.35,6.58-8.84,11.44-12.11a6.69,6.69,0,0,1,1.73-.77l.5-.17,2.46-1,.26,2.63a5.67,5.67,0,0,0,.1.57,4.66,4.66,0,0,1,0,2.79q-4.29,10.56-8.63,21.11l-.17.42c-5.41,13.2-11,26.85-16.34,40.39-2.54,6.44-4.68,13.1-6.76,19.53-.93,2.89-1.84,5.72-2.78,8.5l-2.08,6.2Z"/><path class="cls-4" d="M690.74,793.2a15.71,15.71,0,0,1-2-.13h-.07l-.08,0c-2.3-.53-4.56-1-6.83-1.52-19.49-4.27-39.65-8.67-51.06-29.68-2.93-5.39-2.75-10.12.51-13A18.46,18.46,0,0,1,643,744.47a13.57,13.57,0,0,1,5.87,1.24c2.06,1,4.21,1.94,6.29,2.86,10.33,4.6,21,9.34,28.41,19.2,1.36,1.8,2.83,3.6,4.26,5.34a80.53,80.53,0,0,1,8.42,11.57c1.29,2.3,1.47,4.29.52,5.91C696,791.78,694.43,793.2,690.74,793.2Z"/><path class="cls-4" d="M682.19,883.12c-16.21,0-29.61-5.29-41-16.17-4.65-4.44-11.68-11.16-7.51-18.37,2.23-3.87,5.81-5.83,10.63-5.83a37.84,37.84,0,0,1,10.93,2.15c21.41,6.71,35.75,17.38,45.12,33.58l1.42,2.45-2.78.52A91.64,91.64,0,0,1,682.19,883.12Z"/><path class="cls-4" d="M677.28,691c-2.82,0-5.76-1.39-8.61-2.73-1-.46-2-.94-2.92-1.31-9.48-3.79-20.23-8.08-29.07-16.24a41.17,41.17,0,0,1-13.18-24.06,7.39,7.39,0,0,1,1.51-6.18c1.8-2.12,5-3.24,9.35-3.24a31.38,31.38,0,0,1,3.26.18h.11l.11,0c20.93,5.42,35.43,17.67,43.1,36.43.26.63.54,1.27.83,1.92,1.9,4.32,4.48,10.17-.31,13.84A6.73,6.73,0,0,1,677.28,691Z"/><path class="cls-4" d="M663,573l-5.25-1.4-.11,0c-17.9-4.7-36.41-9.57-47.55-27.81-2.79-4.56-2.27-10.12,1.46-15.65,2.46-3.62,5.5-5.45,9.05-5.45,3.24,0,6.44,1.55,9.14,3.08,16.4,9.24,28,23,40.33,40.83,1,1.49,1.28,2.83.74,4-.86,1.83-3,2-5,2.2a12.73,12.73,0,0,0-1.8.24l-.53.14Z"/><path class="cls-3" d="M617.37,308.64a16.57,16.57,0,0,0-.21-1.73,9,9,0,0,1,.21-5.05c4.76-10.62,7.85-22.14,10.82-33.29,3.66-13.67,7.44-27.8,14.4-41.09l2.73-5.22,1,5.81c5.66,32.64-1.52,58.54-21.94,79.18a17.23,17.23,0,0,1-2.71,2.12l-1.12.78-3,2.25Z"/><path class="cls-3" d="M604.06,315.28c-5.65-25.68.59-50,19.65-76.44a4.21,4.21,0,0,1,2.95-1.45c.26,0,.5-.08.7-.14l2.39-.73.18,2.49c0,.23.06.46.1.7a6,6,0,0,1,0,2.81c-6.12,20.81-12.59,42.62-19.22,64.83-.57,1.89-1.24,3.68-2,5.58-.32.85-.64,1.72-1,2.6l-2.35,6.52Z"/><path class="cls-3" d="M598.61,387.79c-19.55,0-35.33-10.76-53-26.91l-.9-.83,1.74-2.94,1.15.4L560.74,362c10,3.4,19.49,6.62,28.71,9.83,2.73.95,5.46,2,8.1,3,3.8,1.47,7.64,2.95,11.5,4.16,2,.64,4.12,1.69,4.44,4.68.26,2.12-2.42,2.78-5,3.23A56.5,56.5,0,0,1,598.61,387.79Z"/><path class="cls-3" d="M603.56,370.28c-15.3-5.38-29.75-10.46-44.28-15.65a3.56,3.56,0,0,1-1.95-2.4,2.85,2.85,0,0,1,.22-2.62,5.8,5.8,0,0,1,3.75-2.46,62.07,62.07,0,0,1,7.1-.42c15.25,0,28.2,6.18,38.48,18.37a6.91,6.91,0,0,0,.91.3,7.68,7.68,0,0,1,2.13.83,8.53,8.53,0,0,1,2.05,2.06c.33.41.69.86,1.15,1.38l5.09,5.76Z"/><path class="cls-3" d="M570.57,466.62c-.25,0-2.43,0-3.19-1.56-8.76-17.17-17.23-33.92-26.2-51.65l-6.91-13.68,6,3.72c21.39,13.17,27.62,34.83,33.64,55.78l.53,1.86c.52,1.74-.86,3.39-1.87,4.59l-.11.14A2.41,2.41,0,0,1,570.57,466.62Z"/><path class="cls-3" d="M564.59,263.54h-1.46a5.31,5.31,0,0,1-2.37-.46c-17.4-8.17-36-14.22-54-20.07l-.36-.11-6.73-2.2a4.93,4.93,0,0,1-2.5-2.4,8,8,0,0,0-.47-.71l-1.3-1.63,1.67-1.23c.12-.09.23-.19.35-.3a4.27,4.27,0,0,1,2.23-1.28c3.84-.61,7.68-1.16,12.12-1.8l4.61-.66.4.11c16.15,4.36,34.54,11,48.49,26.91a5.77,5.77,0,0,1,1.11,2.48c.07.25.12.46.19.67l1,2.87Z"/><path class="cls-3" d="M563.4,474.64c-.3-.11-.62-.2-.93-.29a9.6,9.6,0,0,1-2.78-1.15C546.05,464,540.25,450,534.64,436.32c-1.1-2.69-2.22-5.39-3.36-8-.29-.65-.59-1.29-.89-1.94l0-.1c-2-4.32-4.27-9.22-2.71-15.33l1.23-4.8,8.84,15.52c9.1,16,18,31.68,27,47.4a14.16,14.16,0,0,1,.94,2.16c.09.27.19.53.29.78l1.64,4.1Z"/><path class="cls-3" d="M550.23,274.6c-13.48,0-30-7.84-49.21-23.31l-1-.79,1.67-3.06,66.15,21.88-4.23,2.18A29,29,0,0,1,550.23,274.6Z"/><path class="cls-3" d="M528.88,176.48c-18.38,0-34.33-6.86-46.18-12.84-6.39-3.23-11.87-7.28-17.68-11.56l-3.52-2.59,1.6-3.15,11.58,3.7q21.82,7,43.63,14c6,1.92,11,3.59,15.67,5.23a4.53,4.53,0,0,1,2.82,3.67,3.21,3.21,0,0,1-.77,2.48,3.66,3.66,0,0,1-2.87,1l-.52,0C531.4,176.45,530.13,176.48,528.88,176.48Z"/><path class="cls-3" d="M532.79,164.45c-1.33-.55-2.65-1.12-4-1.69-2.78-1.19-5.66-2.43-8.53-3.43-13.45-4.7-27.15-9.42-40.41-14l-23.19-8,7.29-1.43a78.27,78.27,0,0,1,15.11-1.51c16.71,0,32.49,5.91,46.9,17.58.76.62,1.65,1.21,2.5,1.78,2.82,1.88,6,4,7,8.37l.86,3.77Z"/><path class="cls-3" d="M381.88,295.84c-2.07-3.85-.51-7.37.62-9.93a18.41,18.41,0,0,0,1.06-2.74c3.81-14.52,8.14-29.13,12.34-43.26l1.3-4.4.26-.89c1.08-3.81,2.32-8.13,5.37-8.13a3,3,0,0,1,1.31.31c3.79,1.84,3.36,5.8,3.08,8.43a7.86,7.86,0,0,0,0,3l.12.26,0,.37c.73,18.88-6.63,34.5-13.75,49.6l-1.48,3.14c-.95,2-3.23,3.06-5.25,4a23.8,23.8,0,0,0-2.2,1.08l-1.8,1.09Z"/><path class="cls-3" d="M368.06,303.87c-9.7-35.47,6-66.86,24.68-81l5.89-4.47-2.83,6.83c-8.18,19.67-13.45,39.56-19,60.61-1.58,6-3.19,12-4.85,18l-1.94,7Z"/><path class="cls-4" d="M298,1255.29a125,125,0,0,1-12.85-.65l-2.92-.31,1.36-2.6c10.41-20,26.65-31.28,49.66-34.61a19.69,19.69,0,0,1,2.69-.19c7.28,0,15.94,4.06,20.16,9.44,2.33,3,3.18,6.13,2.45,9.1-1.87,7.65-8.63,12.71-20.08,15C327.54,1252.74,313,1255.29,298,1255.29Z"/><path class="cls-3" d="M340.9,201.9q-3-5.84-6-11.63c-4.5-8.74-9.14-17.77-13.62-26.73-2.42-4.85-4.6-9.9-6.7-14.78l-1.39-3.21a28.27,28.27,0,0,1-1.27-3.84c-.15-.53-.29-1-.44-1.54L310.22,136l4,1.77c.53.23,1.12.45,1.7.66a14,14,0,0,1,4.28,2.13c14.2,11.61,22.34,27.08,24.89,47.31.08.6.17,1.21.26,1.81.53,3.6,1.13,7.65-.85,12.14l-1.7,3.85Z"/><path class="cls-4" d="M279.76,1160.76c-3.24,0-7.77-.93-9.86-3.54-2.49-3.11.46-5.86,1.87-7.19a10.4,10.4,0,0,0,1.41-1.47c11-16.46,24-24.61,41.08-25.65h.22l.28,0c1.51.35,3.06.56,4.69.78,6.48.89,14.55,2,18.13,12.55,3.4,10-3.56,13.31-8.16,15.52l-.1,0-1.27.62a62.69,62.69,0,0,1-28.39,7,59.42,59.42,0,0,1-6.65-.37,10.65,10.65,0,0,0-1.15-.06,28,28,0,0,0-5.56.8,32.33,32.33,0,0,1-6.49.9Z"/><path class="cls-3" d="M335.92,208.55c-7.39-.33-15.75-6.62-22.91-17.24-8.87-13.16-15.51-33.11-11-45.8l1.81-5.11,1.95,5.06a276.22,276.22,0,0,0,31.91,59.94l2.34,3.33Z"/><path class="cls-4" d="M248.08,1073.36c-3.77,0-6.42-1.16-7.87-3.46-2.76-4.36,1.38-7.09,4.11-8.9a13.21,13.21,0,0,0,3.65-3c9.43-14.73,22.6-24.5,38.09-28.26a19.2,19.2,0,0,1,4.64-.55,22.1,22.1,0,0,1,19.79,12.54c1.8,3.92,2.08,7.59.82,10.91-2.19,5.76-8.42,9.09-13.61,11.35-10.2,4.44-22.91,9-39.86,9-1.28,0-2.59,0-3.91-.08-.3,0-.92.08-1.58.16A34.25,34.25,0,0,1,248.08,1073.36Z"/><path class="cls-4" d="M233.22,969.42c-3.59,0-5.88-1.43-6.8-4.24-1.38-4.23,3-7.26,7.14-10.18a35.18,35.18,0,0,0,4.84-3.79c12.63-13.21,28.54-14.9,41-14.9l2.4,0c5.23.09,9.33,3.82,11,9.95,2.54,9.58-5.61,13.28-8.29,14.5A91.5,91.5,0,0,1,245.89,969l-2.52,0h-.19l-.24-.06a6.3,6.3,0,0,0-1.72-.2,30.2,30.2,0,0,0-3.73.34A34.71,34.71,0,0,1,233.22,969.42Z"/><path class="cls-4" d="M261.48,851.13c-4.53-2.1-9.26-2.28-14.11-2.28h-4.18c-1.54,0-3.63-1.35-3.92-3a4.87,4.87,0,0,1,1.75-4.29c2.92-2.25,5.82-4.54,8.72-6.84,7.46-5.89,15.17-12,23.2-17.4,3.82-2.57,6.6-3.77,8.74-3.77a4.47,4.47,0,0,1,3.24,1.28c1.81,1.82,1.8,4.85,1.78,8.06,0,1.79,0,4.79.68,5.34a3.43,3.43,0,0,1,.95,3.22,6.08,6.08,0,0,0,0,.71c2.9,5.21,3.6,9.09,2.13,11.85-2.06,3.86-7.35,4.28-12.46,4.68l-2.33.2c-.76.07-1.57.1-2.62.1h-2.45c-2.47,0-4.86.14-7,1.9l-1,.81Z"/><path class="cls-3" d="M236.29,240.24l2.86-.55a10.27,10.27,0,0,1,1.93-.19c4.88,0,10.72,3.49,16.45,9.81,10.53,11.62,20.51,32.91,19,48.45l-.57,5.83Z"/><path class="cls-3" d="M263.83,302.75l-.37-.16c-1-.44-2.21-.84-3.34-1.23-3-1-6.05-2.06-8.29-4.25a71.36,71.36,0,0,1-21.65-43.4,4.45,4.45,0,0,1,.9-2.85,4.07,4.07,0,0,0,.32-.55l1.22-2.6,2,2c.15.16.32.32.49.47a13.3,13.3,0,0,1,1.41,1.53A155.65,155.65,0,0,1,246.13,267c3.9,6.79,7.93,13.79,13.27,19.69a36.08,36.08,0,0,1,5.07,8.08c.67,1.3,1.36,2.64,2.12,4l.57,1-.55,1c-.6,1.14-1.09,2.06-2.37,2.06Z"/><path class="cls-4" d="M230.06,1405.2c-6.13,0-14.16-8.14-15.08-15.27-2.53-19.47-1.81-35.54,2.27-50.57a42.63,42.63,0,0,1,3.21-7.7c.53-1.08,1.08-2.17,1.55-3.24l1.17-2.61,2,2c.73.71,1.53,1.41,2.31,2.09a33.82,33.82,0,0,1,5.12,5.23c8.27,11.29,17.63,24.09,19.32,46.92,2,9.12-7.78,16.13-18.7,22.35A6.48,6.48,0,0,1,230.06,1405.2Z"/><path class="cls-3" d="M172.31,159.78a70.65,70.65,0,0,1-28.41-5.65l-5.51-2.44,5.87-1.34,14.83-3.41c14-3.24,28.44-6.57,42.82-9.58a16.54,16.54,0,0,1,3.42-.33,42.22,42.22,0,0,1,5.75.52c1.29.17,2.61.34,3.85.42l2.1.14-.24,2.09c-.55,4.73-4.14,6.79-7,8.44-.73.42-1.43.82-2,1.22C198.68,156.26,186.09,159.78,172.31,159.78Z"/><path class="cls-3" d="M201,414.17a8.83,8.83,0,0,0-.91-.66,7.93,7.93,0,0,1-2.68-2.58c-6.8-12.5-10.69-26.19-14.44-39.43q-.87-3.08-1.76-6.15c-.42-1.45-.91-2.94-1.38-4.37-1.82-5.56-3.69-11.29-3-17.84l.4-3.68,2.86,2.36c10.84,8.93,17.28,21,20.88,39,.38,1.92.81,3.83,1.23,5.74,1.59,7.21,3.24,14.67,2.67,22.45a22,22,0,0,1-.42,2.78c-.08.38-.15.76-.22,1.14l-.58,3.42Z"/><path class="cls-3" d="M134.6,142.35c16-16.88,32.65-25.44,49.65-25.44,10.34,0,20.75,3.08,31.84,9.42l5.63,3.22-6.46.51c-18.72,1.49-37.11,5.89-54.9,10.15-7.81,1.87-15.88,3.8-23.9,5.47L130.22,147Z"/><path class="cls-3" d="M186.37,411.75c-15.07-12.45-25.6-48.24-18.48-62.79l2.26-4.6,4,13.51c5,16.88,10.11,34,15.39,51.77l1.87,6.29Z"/><path class="cls-4" d="M172.77,578.26a29.57,29.57,0,0,1-8-1.64c-15.22-4.63-36.73-19.64-33.61-42,.6-4.33,1.6-11.57,12-11.78h.7l.55.42c7.26,5.53,16.32,13.29,22.06,24.26a141.73,141.73,0,0,1,7.3,17.6c.84,2.29,1.7,4.66,2.59,6.95.53,1.39,1,3.18,0,4.65A4.11,4.11,0,0,1,172.77,578.26Z"/><path class="cls-4" d="M148,715.51c-2.26,0-4.45-1.35-6.21-2.44a13.24,13.24,0,0,0-1.54-.87c-30-9.45-39.12-22.58-44.14-34.19-2.48-5.73-2.47-11.25,0-15.13,2.12-3.31,5.73-5.11,10.43-5.21H107c16.35,0,38,18.8,43.64,38,.29,1,.63,2,1,3,1.33,3.86,2.71,7.85,1.81,11.56C152.36,714.82,149.59,715.51,148,715.51Z"/><path class="cls-4" d="M144,1279.1C121.48,1274,106,1264.75,95.23,1250c-4.64-6.38-4.91-12.26-.75-16.55a9.54,9.54,0,0,1,7-3.11c3.55,0,6.76,1.82,9.34,3.27l.56.32a99.32,99.32,0,0,1,38.93,38.57c.81,1.46,1.63,3.34.72,4.9a3.71,3.71,0,0,1-3.4,1.53l-.9,0-.78,0a2.14,2.14,0,0,0-.62,0l-.61.31Z"/><path class="cls-4" d="M147.68,831.44a7.38,7.38,0,0,1-1.94-.34,6.85,6.85,0,0,0-1.05-.22c-.56,0-1.11,0-1.66,0a16.4,16.4,0,0,1-4.46-.52c-23.26-6.69-46.12-16.53-55.86-43.06a9.82,9.82,0,0,1,.61-8.92c1.92-3,5.83-5.07,10.47-5.48h.28c12.42,1.16,22.72,6.91,32.41,18.1l.08.09c8.72,10,17.73,20.45,23,33.59,1,2.34,1.39,4.17.47,5.53A2.77,2.77,0,0,1,147.68,831.44Z"/><path class="cls-4" d="M139.46,1175c-27.31-6.16-50.36-27.73-56.06-52.46-.64-2.77,1.84-5.87,2.62-6.75a4.45,4.45,0,0,1,3.38-1.2,5.92,5.92,0,0,1,3,.69c21.84,12.94,38,28.45,49.39,47.42a21.05,21.05,0,0,1,2.2,6.4c.21.91.42,1.83.68,2.68l.59,2-5.3,1.32Z"/><path class="cls-4" d="M139.48,953a9.8,9.8,0,0,1-2.39-.38c-1.52-.41-3-.89-4.46-1.36-.79-.25-1.57-.51-2.36-.75-21.53-6.55-36.5-17.84-45.77-34.53a12.21,12.21,0,0,1-1.31-7.81c.35-1.86,2.15-2.93,3.34-3.64l.09-.05.43-.26.65-.54.84.1c22.53,2.64,49.06,27.07,54.16,44.47a3.82,3.82,0,0,1-.38,3.49A3.36,3.36,0,0,1,139.48,953Z"/><path class="cls-4" d="M138.22,1060.39l-4.27-1-.1,0c-3.28-.78-6.67-1.59-10-2.45-13.83-3.6-25.43-12.2-35.46-26.3-2-2.75-2.56-5.57-1.65-7.74a4.42,4.42,0,0,1,3.45-2.71l.15,0h.2c21.74.91,33,12.79,41.89,25.49a23.07,23.07,0,0,0,2.84,3.11c2.47,2.41,5.28,5.14,5.42,9.68l.08,2.62Z"/><path class="cls-3" d="M69.05,272.43l.77-.89c17.79-20.67,36.72-30.71,57.89-30.71a78.79,78.79,0,0,1,22,3.33l1.13.33-.15,3.33-1.17.22c-23.11,4.4-44.76,13.28-67.69,22.68-3.21,1.31-6.44,2.64-9.73,4l-1.09.45Z"/><path class="cls-3" d="M94.82,491.05l.24-1.17c3.86-19.31,10.06-37.27,16.06-54.65,3.12-9,6.34-18.4,9.16-27.72l1.89-6.3,1.93,6.29c10.06,32.82-5.58,57.44-25.48,84l-.72,1Z"/><path class="cls-3" d="M77.83,279.54,78.9,279c12.1-6.6,24.93-10.65,38.52-14.94,10.2-3.22,20.75-6.55,31.62-11.17l1.07-.46,2,2.64-.73.91c-18.64,23.14-41.14,24.67-62.9,26.15-2.79.19-5.66.38-8.45.62l-1.21.11Z"/><path class="cls-3" d="M88.4,487.17c-3.77-3.86-5.42-8.69-5.34-15.67,0-1,0-1.95,0-2.92V467c.38-23.17,11.6-41.45,22.52-56.29a3.59,3.59,0,0,1,2.17-1.23,1.89,1.89,0,0,0,.34-.09l2-.75.59,2.09a6.9,6.9,0,0,0,.29.73,4.37,4.37,0,0,1,.37,3.6c-7,15.27-11.32,31.78-15.48,47.74-.8,3.08-1.6,6.16-2.42,9.23l-.16.58a8.46,8.46,0,0,0-.35,1.47c-.31,2.94-.58,5.88-.85,8.82l-.68,7.33Z"/><polygon class="cls-2" points="6 8.83 58 60.83 58 1619.17 6 1671.17 6 8.83"/><path d="M1024,8V1672a8,8,0,0,1-8,8H8a8,8,0,0,1-8-8V8A8,8,0,0,1,8,0H1016A8,8,0,0,1,1024,8Zm-8,1658.34V13.66l-48,48V1618.34ZM962.34,56l48-48H13.66l48,48H962.34ZM13.66,1672h996.68l-48-48H61.66ZM960,1616V838.68a20,20,0,0,1-2.53.2c-8.64.11-10-7-10.64-13.57-.63-6.15,4.17-14.15,7.22-13.42a26.08,26.08,0,0,0,6,.18V172.63a22.68,22.68,0,0,1-2.87.18c-7.06,0-9.79-5.38-10.26-12.21-.7-10,6.36-11,13.13-11.5V64H811.06v.07c-.55,6.22-1.54,12.09-10.23,11.07-7.24-.36-11.57-3.54-12.05-11.14H534.27l8.81,11.09c11.15,13.4,24.47,22.35,35.12,33.55C587,118,598,125.24,607.06,134.36c6.37,6.39,11.86,5,18.55,1.62,4.8-2.44,10.12-5.92,15-5.67,15.94.81,11.11-15.56,19.11-21.64,11.26-8.57,23.22-13,36.84-16.14,23.39-5.42,42.94,3.39,62.66,13,6.37,3.12,12.78,9.13,13,15.11.28,7.9-8,12.78-14.88,16.25-32.35,16.33-64.61,16.52-98,1.56-10.05-4.5-21.84,2.84-32.21,7.3a28.69,28.69,0,0,0-3.1,1.68c15,13.58,30.43,27.36,45.59,41.46,3.81,3.54,6.63,1.12,10.18.14,19-5.22,38.6-7.49,58.14-9.16,8.46-.73,6.67-8.09,10.66-11.65,17-15.26,36.73-17.61,57.58-12.88,18.52,4.21,36.75,10.14,48.05,27.37,5.06,7.71,2.53,13.22-4.67,18.92-16.6,13.12-35.35,13.41-54.08,9-16.55-3.85-32.75-9.56-46.79-20.35-3.46-2.66-10.53-1.62-15.72-.84-13.94,2.1-27.78,4.92-41.64,7.59-3.42.67-8.78,1-9.66,3-1.39,3.2,3.71,4.54,5.92,6.82,18,18.61,36,37.21,53.81,56,2.46,2.61,4.57,3.88,8.26,4.18,7.94.66,15.89-1,23.92,1.51,5.62,1.74,10.67-.8,16.23-4.76a53.51,53.51,0,0,1,41.88-8.41c20.63,4.31,39.44,13.92,54.26,29.57,4.52,4.77,10.68,10.93,8.38,17.38-2.79,7.84-9.43,13.06-19.2,14.36-36.91,4.9-64.94-11.55-90.6-35.31-5.39-5-13.82-3.81-20.53-3.23-6.27.54-5.58,1.7.27,8.91,12.91,15.9,25.19,32.32,37.76,48.5,4.65,6,12.28,1.84,17.86,5.24,12.18,7.42,18.8-6.18,28.69-8.22,15.37-3.18,29.32-.91,43.56,4.75,18.83,7.49,30.78,20.89,37.72,39.56,2.06,5.53-7,12.28-16,14.33-34.22,7.75-56.49-9.78-76.31-34-4.92-6-13.93-2.28-20.1-6.2-1.11,2.36-4.09-5.62-4.18.69,0,1.76,1.79,3.55,2.8,5.31,6.35,11.16,11.91,22.91,19.46,33.2,3.23,4.41,11.32,4.9,16,8.67,21.42,17.31,34.24,39.08,36.22,67.43.74,10.52.86,20.32-2.69,30.05-3.44,9.43-9,13.86-19.29,7.83-21-12.25-34.32-30.17-38.26-53.87-1.68-10.12-.16-21.13,1.7-31.42,3.14-17.45-8.72-28.72-15.47-42.13-2.33-4.64-5.05-9.09-7.33-13.18-8.12,13.31,3.44,24.72,4,37.34.73,16.67-1.08,32.84-9.83,48-5,8.7-11.82,15.22-18.7,22-7.21,7.09-13.25,8.3-16.51-3.58-4.1-15-9.92-29.37-8.6-45.57,1.45-17.84,14.33-35.9,33.52-39.09,8-1.32,4.68-9.6,6.48-14.55,8.44-23.09-11.85-34.41-22.16-49C762.43,302,747,287.11,733.36,270.92c-4.26-5.06-7-4.55-8.07,1.33-1.63,9.27-7.87,16.86-9.34,25.68-.85,5.14,3.76,11.05,5.35,16.77,5.58,20-.44,38.31-9.68,55.61-8,14.88-16.93,29.08-32.56,37.83-10.58,5.93-.09,12.69,1.43,18.1,6.74,24,15.27,47.47,22.66,71.29,5.61,18.08,10.62,36.36,15.63,54.62,1.84,6.74,2.9,13.69,4.09,19.41,23.89-6.66,28.85-31.27,44.15-46.4,9.21-9.1,18.29-17.45,32.28-18.4,8.36-.57,16.21-3,23.91,3.33,10,8.21,11.56,17.95,4.73,29.12-11.54,18.86-30.75,25-49.77,25-20.11,0-35.88,7.62-51.72,17.11-3.59,2.15-.59,7.4.27,10.75a451.69,451.69,0,0,1,10.53,54.44c.59,4.62,3.1,9,2.09,14.91,10.72-9.62,26-9.57,35.46-19.9,7.35-8,14.43-16.21,23.37-22.71s18.19-11,29.82-12.42c10.69-1.32,16.31,3.31,20.87,10.58,4.87,7.74-4.52,26.22-13.85,32.21-17.82,11.43-37,11.93-56.69,8.56-14.48-2.49-24.67,6.59-36.39,11.57-2.29,1,.76,2.63,1,4.08,2,12.92,4.24,25.81,6.09,38.76,1.64,11.46,2.88,23,4.29,34.44,10.94-4.52,22.47-7.78,32.31-13.81,8.81-5.4,15.5-14.14,23.55-20.9,15.42-12.93,39-15,55.3-4.17a21,21,0,0,1,9.26,18.74c-.63,12.06-9,18.47-19.13,22.42-22,8.53-42.84,3.46-64-4.58-4.93-1.88-12.6,3.06-18.88,5.25-4.24,1.49-8.15,3.89-12.37,5.45s-5,4.34-4.6,8.26Q758,798.69,761,834.13c.41,4.79,3.29,9.36.62,14.48-1,2,.63,2.06,2.52,1.44,11.61-3.82,24.26-5.75,34.55-11.75,6.33-3.7,9.59-13.2,16.31-18.16,19.34-14.24,52.23-24.86,70.53,4.94,3.09,5,5.26,11.5,1.3,16.87-4.31,5.84-10.71,9.26-18,11.19-23.6,6.26-45.74-2.08-68.59-5.19-9.65-1.31-20.76,5.76-30.77,10-14.2,6.08-4.63,18.31-5.33,27.35-1.19,15.6,1.43,31.45,1,47.15-.26,10.11,8.84,13.45,12.15,21,9.32,21.24,13.83,54-4.76,74.7-7.25,8.06-19,9.25-28.89,6.31-10.5-3.12-17.68-10.82-17.63-23.51.12-27.56,14.21-49.43,27.8-71.68,2.9-4.75-1.47-10.76-.46-15.11,4.67-20.17-13-19.13-22.83-25-8.33-4.91-17.19-9.75-26.46-12-6.78-1.62-14.58,1.32-21.95,1.8-16.46,1.08-30.79-3.91-43.31-14.9-5.61-4.91-12.5-9-13.79-16.7-3.65-21.7,16.77-26.28,32.62-20.3,15,5.67,32,10.92,39.31,25.73,11.28,22.93,35.07,24,52.91,35.35,2.08,1.32,3.11.72,3-1.7-.78-14.42-1.52-28.84-2.4-43.25-.38-6.23-2.5-12.75-1.3-18.62,3-14.72-6.55-19-16.94-23.6-9.42-4.21-18.72-8.81-27.7-13.91-4.29-2.44-6,1.93-9.35,2-20.53.53-39.59-4.86-56.29-16.23-8.09-5.5-16.76-13.11-17.71-23.77-1.57-17.78,12.54-26.29,31.17-20C674.63,746.6,692,760,701.86,781.51c6.11,13.29,21,11.63,30.18,19.35,1.42,1.19,3.87,1.09,5.48,2.13,7.73,5,10.57,3.28,9.48-6-2.87-24.51-5-49.12-8.37-73.55-.93-6.69-9.49-8-14.41-11.69-6.67-5-16.92-5.64-22.72-11.19-10-9.53-21.27-2.54-31.45-5.46-22.37-6.42-42.79-16-52.57-38.77-3.25-7.57-4.7-17.48,3.48-23.81,10-7.72,20.35-2.93,30.24,1.18,22.22,9.24,32.66,28.15,42.34,48.8,4.75,10.14,18.7,11.14,28.42,16.39,1.67.91,3.64,1.23,5.31,2.14,2.57,1.39,5,3.06,7.47,4.6,0-4.79.54-9.66-.18-14.34-1.52-9.84-3.74-19.57-5.62-29.36-4-21-7.57-42.12-12.48-62.91-.76-3.2-7.69-5-11.84-7.34-8.53-4.79-17.26-9.23-25.57-14.36-3-1.88-4.86-1.81-8-.39-12.66,5.66-24.37-.32-35.77-4.52-12.39-4.57-23.38-11.4-31.13-23.07-5-7.51-5.17-15.62-1.84-21.91,4.82-9.13,12.64-16.3,25.14-10.78,23.15,10.23,38.64,27.47,50.64,49.55,3.49,6.42,14.77,8.64,22.55,12.67,3.88,2,7.89,3.76,11.93,5.67,2.69-14.61-4.26-27.41-7-40.79a660.61,660.61,0,0,0-26.33-92c-4.63-12.84-6.28-27.14-12.87-38.75a106.35,106.35,0,0,1-11.43-29.41c-3.81-16.66.41-32,8.39-46.23,8.23-14.69,15.39-32.32,31.48-38.64,18.81-7.39,19.29-24.94,27.41-38.22.71-1.15-3-5.59-5.29-7.9-17.72-17.91-35.62-35.65-53.38-53.52-2.35-2.37-4.28-5.16-6.4-7.75-2,5-3.65,10.16-6.12,14.91-7.17,13.74,4.42,24.42,5.62,36.77,1.29,13.35-1.69,26-6.35,38.36-6.79,17.95-19.06,31.53-34.22,42.85-6.65,5-19.11-.08-21.13-8.37-8.39-34.34,11.31-76.42,40.44-95.07,6.73-4.3,5.14-14.68,9.51-21.26,12.88-19.39-6.94-24.11-15.55-32.35-22.41-21.46-46.45-41.2-69.27-62.24-8-7.33-17.55-17.25-24.37-26.65L523,64H375.19c2,3.66,4.09,7.31,5.82,11.1,6.29,13.77,12.54,27.57,18.3,41.57,3,7.26,9.78,3.83,14.55,5.91,9.32,4.07,19.56,6,29.27,9.26a7.36,7.36,0,0,0,7-.6c14.43-8,30-5.26,45.1-3.13,15.86,2.23,28.57,11.92,40.71,21.35,6.73,5.22,13.21,13,12.71,22.36-.43,8.16-8,13.16-15.13,12.75-14.34-.81-29.19.41-42.6-7.4-14-8.17-30.9-12.68-40.83-26.24-9.76-13.32-25.36-11.48-37.64-17.86-2.3-1.2-4.68-2.22-7.56-3.57,6.1,20.43,16.27,38.7,25,57.57,5.1,11,10.58,21.87,14.87,33.19,3.55,9.37,11.94,2.46,17.39,6.33,4.73,3.37,11.91,3.11,17.09,6.06,8.2,4.67,10.77-2.91,15.73-5.64,20.24-11.11,37.72-1.25,54.81,8.17,12.45,6.87,23.83,15.71,27.45,30.38,2.19,8.86-7.55,11.66-12.26,13-33.87,9.57-56.6-9.15-78.36-31.59-5.41-5.58-15.42-6.77-23.36-9.84-3.91-1.51-8.5-6-11.63-2.87-1.63,1.62,2.78,7.51,4.75,11.43,8.68,17.35,16.22,35.27,24.8,52.67,4.8,9.76,11.42,18.64,16.13,28.44,6.19,12.91,20.08,10.33,29.72,16.12,10.35,6.22,20.23.23,29.46-2.48,21.54-6.35,37.54,2.39,52.56,15.82,4.07,3.64,8.1,7.36,11.82,11.35,8.3,8.92,5,21.58-6.72,25.24-29.34,9.21-57.19-7.59-75.1-29.37-5.14-6.25-19.06-14.2-29.51-14.18,7.63,14,15.06,27.88,22.76,41.61,4.43,7.9,14.58,5.46,20.72,11.26,14.62,13.79,22.24,30.77,26.08,50,2,10.28,4.65,20.31-2,30-2.58,3.76-6.21,3.64-9.25,2.44-11.68-4.61-22.5-10.49-28.83-22.27-8.77-16.32-21.92-32.78-17.26-51.54,4.11-16.59-6.87-25.37-11.59-37-6.19-15.3-15.95-29.13-23.83-43.78-11.84-22-23.68-44-34.91-66.33-6.13-12.19-11-25-16.48-37.54s-11.17-25-17-38.18c-3.7,8.85-8.66,17-10.21,25.79-.92,5.23,3.61,11.37,5.56,17.15,5.28,15.66-.89,29.88-5.22,44.5-5,16.74-16.34,27.6-30.4,36.58-3.69,2.36-7.62,4.44-11.54,2.72-5.89-2.58-8.39-9-8.91-14.39-1.74-18.2-2-37.11,6.27-53.53,6.8-13.55,16.39-26.41,30.75-34,10.09-5.32,9.18-16.95,14.4-25.16,9.8-15.41-4.27-26.89-8.94-39.66-8.33-22.78-17.17-45.43-27.17-67.51-2.49-5.5-5.16-11-7.71-16.49h-14q-24.48,22.47-48.91,45c-1.36,1.27-3,4.15-2.47,5.2,2,3.83,4.24,9.49,7.49,10.36,18.75,5,30.34,17.69,37.54,34.4,4.23,9.85,6.16,20.77,8.42,31.36,1.62,7.59-.43,16.43-5.72,20.49-8.47,6.49-18.66,2.33-26.9-2.95-19.94-12.78-29.37-39.71-23.69-62.17,1.92-7.59,2-16.06-3.52-23.32-1.77-2.33-1.9-.54-2.63.2-20,20-38.18,41.59-53.61,65.44-4.26,6.58-10,12.17-13.53,19.38-2.29,4.63,4.83,21,10.13,21.53,22.58,2.17,34.81,17.27,43.41,35.9,5.94,12.89,10.18,27,4,40.84-4.4,9.85-14.23,5.59-20.82,3.08-20.59-7.84-29.74-24.75-35.52-45.31-4.11-14.62,6.14-31.67-8.91-42.9-9.77,15.29-20.54,31.69-30.82,48.38a250.45,250.45,0,0,0-15.57,30c-3.21,7.29,3.09,18.59,4.64,28.18.91,5.58,5.46,6.47,9.12,8.88,19,12.52,24.14,31.48,27,52.91a102.81,102.81,0,0,1-.64,30.57c-1.43,8.92-9.11,13.84-16.89,9.34-18.68-10.8-26.75-28.41-31.55-48.41-3.08-12.84-4.46-26.43,2.63-37.13,6.42-9.68-.63-17.68,1.32-26.22.24-1.05-1.13-2.46-1.75-3.71a75,75,0,0,0-4.51,7.72c-11.26,25.7-23.32,51.11-31.71,77.94-2.34,7.47,5.46,12.65,6.72,20,4.29,24.95-6.84,44.53-19.52,64-5.65,8.7-13.62,14.18-22.29,19.28-2.38,1.4-2.08-.55-2.49-1C74.78,486.21,70,468.92,76.9,448.77c6.76-19.79,15.48-38.2,33.75-50.18,11.47-7.52,10.91-21.14,16-31.82,6.74-14.2,13-28.71,19.05-43.21,8.39-20.26,19.57-38.93,29.33-58.39,2.89-5.77,6.64-11.11,10-16.67.59-1,1-2.1,1.49-3.15-1.32-.07-2.85-.6-3.92-.12-7,3.11-14.8,3.74-21.59,6.44-4.37,1.74-6.24,9.33-9,14.22-8.26,14.52-22.9,16.82-36.35,20.87-10.61,3.2-22,3.39-33.22,2.4-6.59-.58-15.93-1.29-18.36-5.53V1616h71.45a9.69,9.69,0,0,1-.46-6c-.47-6.35,1.78-11.26,7.88-10.8,7.09.54,13.23,4.9,13.84,12.52a11.76,11.76,0,0,1-.43,4.27H375c.5-8,5.33-11.11,14-11.19,9.68-.1,9.1,6,8.63,11.19h46.36c-3.54-1.86-4.8-5.9-5-10.89-.2-6.74,4.87-9.71,10.1-9.84s11.56,1.88,10.46,9.19c-.55,3.63.71,9.13-2.22,11.54h129c.51-5.69,1-13,9.87-13,9.5,0,14.19,4.39,14.88,13H746.48c.08-6.84,1.27-13.69,11.22-12.52,4.71.56,13.76.37,12.14,10.68.11.6.22,1.22.33,1.84h119c0-.25-.07-.48-.09-.74.75-6.37-.48-15,9.86-16.17s12.6,6.73,13,14.52a21.16,21.16,0,0,1,0,2.39ZM920.7,375.41c-.17-.75-.11-1.66-.54-2.2a113.77,113.77,0,0,0-8.51-10.28c-19-18.95-40.84-27.39-68.15-17.18,2.1,1.33,3.36,2.57,4.85,3,23.12,6.84,47.29,10.94,67.34,25.87C916.89,375.52,919,375.18,920.7,375.41Zm-7.14,6.65c-1-1-1.86-2.35-3.08-2.87-7.53-3.22-15.14-6.25-22.73-9.32-10.44-4.22-21.1-7.62-33.51-9,15.82,17.05,33,26.93,55.77,22.06C911.2,382.68,912.38,382.36,913.56,382.06Zm-30.92-78.6c.08-2.52-2.71-1.94-4.54-2.46-10.6-3-21.14-6.18-31.72-9.25a248.3,248.3,0,0,0-47.44-9.23C813.7,293,827.1,300,841.66,304.73a74.47,74.47,0,0,0,36.78,2C880.07,306.46,882.6,304.64,882.64,303.46ZM878.4,486.8c6.72-34-19.72-75.88-36.51-80.89C857.57,430.89,868.93,458.32,878.4,486.8ZM864.52,844.53c5.53-2.34,16.48-2.68,13.53-11.94s-11.16-15.33-21.8-16.62c-17.69-2.16-30.36,7.7-42.5,18.19-.36.31-9.35,5.17-3.33,7.14,11.34,3.7,23.73,4.23,35.3,6C852.36,846.46,859,846.87,864.52,844.53ZM845,742.46c8.09-2.76,19.18-4.35,18.6-18.8-2.06-9.46-11.67-11.49-20.18-12.3-19.77-1.87-33.11,10.38-45.5,23.63-2.09,2.23.57,1.76,1.43,2.13C814.05,743.47,829.36,747.78,845,742.46ZM796.2,270.39c31.08,6.59,60.41,13.56,88.85,25.8C872.53,274.18,828.9,261.26,796.2,270.39Zm77.56,228.35-35.43-76C832.47,457.16,844.88,482.43,873.76,498.74ZM840,626.09c1.44-7.69-3.53-11.16-10.35-10.7-15.74,1.08-28.14,9.32-39,20.07-4,4-9.34,6.77-11.46,12.48l16.37,1.55c0-.18,0-.37,0-.55,4.32,0,8.67.28,13-.06C821.85,647.85,837.63,638.53,840,626.09ZM822.31,524.4c.39-2.43-5.34-7.79-9-8.55-10.05-2.12-20.05.6-28.34,6.39a119.64,119.64,0,0,0-20,18.15c-4.07,4.51-6.48,10.51-9.63,15.84l11.11,1c16.38,1.16,30.34-6.23,44.27-13C818.46,540.57,821.07,532.08,822.31,524.4ZM758.59,187.19c31.12,12.29,58.34,24.58,88.64,6.13C818.59,188.34,790.61,186.72,758.59,187.19Zm16.76,277c18.25-11.86,31.61-51.92,24.08-69.11C792.57,418.29,786.12,440.84,775.35,464.17Zm73-275.78c-13.14-19.56-63.83-40.57-97.71-9.35C784.29,178,817,179.42,848.32,188.39ZM788.49,402c.75-2.39.15-5.19.17-7.8-2.24.91-4.74,1.46-6.68,2.81-6.62,4.62-11.14,10.75-14.3,18.36-3.54,8.54-1.2,32.82,4.29,37.84C777.46,436.29,783.11,419.19,788.49,402ZM774.88,999.23c2.22-12.89.27-25.51-4.2-37.63-2-5.51-3.93-12.73-10-14-4.47-1-3.93,6.64-7,9.57-1.15,1.1-1.09,3.36-2.06,4.77-9.53,13.86-13.31,29.77-17,45.93,1.61,4.5.82,10.17,5.21,12.94,5.64,3.56,12.48,6,18.93,3.52C769.93,1020.1,773.06,1009.79,774.88,999.23ZM761.8,125.31c-32.38-1.52-60.9-.3-90.32,9C702.72,142.89,731.22,141.19,761.8,125.31Zm-105.91,1c34.2-7.48,65.78-17.14,102.44-10.18C720.05,93.53,687.87,97.38,655.89,126.3Zm25.49,268.81c20.53-20,32.92-43.64,32.28-73.92-.52-2.36-1.24-5.64-2-8.92-1.33,1-3.39,1.65-3.9,2.94-5,12.81-9.88,25.72-14.71,38.62s-9.64,26-14.43,39c-.45,1.24-.71,2.54-1,3.81C678.87,396.17,680.47,396,681.38,395.11ZM702.8,306c.27-.67-.12-1.6-.2-2.41a9.56,9.56,0,0,0-1.84.74c-6.25,4.2-9.88,10.61-14.52,16.29-18.44,22.6-25.91,47.29-18.15,75.44,3-9.06,5.88-18.76,9.57-28.12C685.82,347.17,694.43,326.61,702.8,306ZM689,791.09c4.49.56,8-.89,5.49-5.43-3.37-6-8.35-11.13-12.54-16.69-8.61-11.42-21.86-15.73-34-21.45-4.62-2.19-11.19-.84-15.45,2.87-3.07,2.68-2,7-.07,10.51C644.72,783.47,667.52,786.12,689,791.09ZM642.6,865.51c16.06,15.38,35.08,17.89,56.06,14-10.19-17.62-25.6-26.91-44-32.67-7.42-2.33-15.28-4.07-19.23,2.77C632.12,855.32,637.8,860.92,642.6,865.51Zm37.64-177.45c4.12-3.15.78-8.7-1.15-13.41-8.29-20.28-24.15-30.7-41.68-35.24-8.33-.88-12.78,1.67-11.94,6.93A39,39,0,0,0,638,669.25C646.41,677,656.33,681,666.5,685.1,671,686.92,676.68,690.78,680.24,688.06ZM663.51,571.11c2.39-.64,7.36.18,4.91-3.36-10.84-15.65-22.67-30.65-39.67-40.23-5.2-2.93-10.86-5.17-15.55,1.75-3,4.46-3.92,9.38-1.41,13.49C623.6,562.09,644.15,565.85,663.51,571.11ZM623,305.84c21.26-21.49,26.58-47.49,21.39-77.43-12.57,24-14.55,50.59-25.16,74.27-.72,1.61.08,3.9.17,5.87A29.46,29.46,0,0,0,623,305.84ZM628.11,242a8.35,8.35,0,0,0-.17-2.79c-.89.27-2.18.25-2.61.85-16.09,22.35-25.56,46.48-19.32,74.84,1-2.78,2.08-5.39,2.88-8.07Q618.57,274.38,628.11,242Zm-19.92,143c1.18-.21,3.34-.81,3.31-1.05-.18-1.67-1.14-2.38-3-3-6.65-2.08-13.07-4.9-19.66-7.2-13-4.53-26-8.91-41.83-14.29C566.06,376.86,583.86,389.25,608.19,384.92ZM611.62,371c-1.37-1.55-1.93-2.53-2.77-3.07-1.05-.66-2.74-.63-3.46-1.48-11.52-13.69-26.17-19.35-43.86-17.3a3.91,3.91,0,0,0-2.35,1.62,2.23,2.23,0,0,0,.77,2C576.81,358.77,593.7,364.69,611.62,371ZM571,464.53c.71-.85,1.82-2.12,1.59-2.89-6.2-21.52-11.95-43.34-33.3-56.49,10.06,19.89,20,39.47,29.92,59A2,2,0,0,0,571,464.53Zm-9.34-203.24c.88.42,2.06.18,3.1.25a7.76,7.76,0,0,0-.93-2.5c-13-14.83-30.24-21.64-47.5-26.3-6.32.91-11.32,1.6-16.29,2.39-.62.1-1.14.8-1.71,1.22.67.84,1.18,2.18,2,2.46C521,245.59,541.84,252,561.62,261.29Zm2.45,211.46a20.54,20.54,0,0,0-1.11-2.69c-11-19.39-22.07-38.77-33.38-58.62-1.61,6.31,1.37,11.15,3.53,16.08,7,16,12,33.45,27.69,44A14.49,14.49,0,0,0,564.07,472.75Zm-61.79-223c26,21,46.39,27.22,60.44,20Zm30.26-75.34c1.38-.07,2.35.18,2.26-1.37a2.63,2.63,0,0,0-1.49-1.87c-5.17-1.83-10.38-3.55-15.61-5.22q-27-8.69-54-17.3c6.54,4.79,12.74,9.61,19.89,13.22C499.23,169.74,514.89,175.26,532.54,174.39Zm1-11.79c-1.1-4.81-5.51-6.37-8.82-9-17.71-14.34-37.63-20.12-60.36-15.66,18.9,6.52,37.76,13,56.58,19.55C525.23,158.93,529.36,160.87,533.55,162.6ZM390.31,290.7c7.56-16.14,15.8-32.15,15.05-51.72-1.21-2.76,1.94-8.43-2.09-10.38-2-.95-3.3,4.59-4.15,7.48-4.69,15.82-9.44,31.63-13.62,47.59-.93,3.57-4.11,7-1.86,11.22C385.92,293.52,389.37,292.7,390.31,290.7ZM370,303.34c7.43-26.82,13.35-53.36,24-78.89C374.52,239.17,360.89,270.07,370,303.34ZM342.68,201c2.05-4.65,1-8.66.44-12.89-2.33-18.48-9.63-34.12-24.18-46-1.51-1.24-3.67-1.69-5.52-2.51a47.76,47.76,0,0,0,1.63,5.17c2.61,6,5.14,12.05,8.05,17.9C329.49,175.43,336.09,188.11,342.68,201ZM338.16,64H64V269.93c1.9-5.84,6-11.21,11.53-16.16,19.06-17.23,41.08-21.19,65.24-18.71a40,40,0,0,1,13.43,4c11,5.47,20.53-1.27,30.44-3.42,17.9-3.89,21.26-21.64,29.79-34,13.19-19.21,26.46-38.31,41.23-56.33,3.67-4.49,7.42-8.9,11.68-14-11.17,1.36-21.67,3.44-32.21,3.67-8.9.2-11.36,6.31-15.31,12.06-9.17,13.34-22.85,18.55-38.41,20.08-17,1.68-33.44-1.62-48.78-8.34-14.39-6.3-3.57-18.45-.3-23,12.39-17.39,31.22-26.29,52.62-26.41,11.9-.06,24.25,3.33,33.84,11s19.83,6,30,4.47c8.4-1.3,16.72-1.89,25.17-2.37,6.39-.37,9.39-7.18,13.21-11.46,12.94-14.52,27.91-26.76,42.28-39.7C332.26,68.68,335.2,66.34,338.16,64ZM336,206.55a278,278,0,0,1-32.14-60.37C297,165.76,318,205.75,336,206.55Zm-61.49,91c2.23-22.68-20.93-58.63-35-55.91Zm-10.28,3.19a6,6,0,0,0,.62-1c-2.44-4.21-4.07-8.52-6.94-11.69-9.53-10.52-14.64-23.85-23-35.08a18.14,18.14,0,0,0-1.72-1.79c-.36.77-1.12,1.59-1,2.31a69.33,69.33,0,0,0,21.06,42.21C256,298.35,260.5,299.16,264.24,300.75ZM206.61,148.23c2.86-2,7.63-3.45,8.19-8.26-4.17-.27-8.54-1.48-12.48-.65-19.47,4.07-38.81,8.69-57.61,13C163.65,160.69,190.55,159.54,206.61,148.23ZM202.92,408.9c.69-9.5-2-18.48-3.87-27.66-3-14.78-8.27-28.05-20.19-37.88-.85,7.79,2.28,14.51,4.29,21.43,4.45,15.37,8.31,31,16,45.18.61,1.12,2.05,1.78,3.11,2.66C202.51,411.39,202.83,410.15,202.92,408.9ZM215.1,128.07c-18.8-10.75-46.74-18.54-79,15.65C162.28,138.27,188,130.22,215.1,128.07ZM187.64,410.21c-6.18-20.8-12.1-40.7-17.95-60.37C163.18,363.13,172.92,398.05,187.64,410.21Zm-38.5-164.13c-32.9-9.61-57.24,2.87-77.8,26.76C98.51,261.81,122.63,251.12,149.14,246.08ZM97,490.27c19-25.36,35.14-49.67,25.17-82.18C114,435.21,102.88,461,97,490.27ZM79.86,280.71c24.15-2.06,49.48-.61,70-26C124.42,265.48,100.83,269.26,79.86,280.71Zm29.69,133.54c.33-.71-.49-2-.77-2.95-.54.2-1.3.24-1.59.63C95.07,428.39,85.41,445.85,85.06,467c0,1.5,0,3,0,4.49-.06,5.31.88,10.27,4.77,14.25.37-3.95.72-7.91,1.13-11.86a15.14,15.14,0,0,1,.57-2.37C96.7,452.18,101.11,432.59,109.55,414.25ZM56,1618.34V61.66l-48-48V1666.34Z"/><path d="M957,324.68c1.8,10.85-8.11,11.43-14.74,11.71-5.3.23-5.5-7.24-5.8-12-.49-7.74,4.21-13,11.17-13C954,311.3,957.52,316.77,957,324.68Z"/><path d="M946.3,712.83c6.4.26,11.3,1.35,10.75,9.23-.57,8.32-3.37,16.12-12.49,16.86-6.12.49-13.81-1.49-11.94-9C933.18,718.79,935.66,712.4,946.3,712.83Z"/><path d="M939.86,1408.66c6.35.27,13.44.31,13.28,12.38-.77,6.33-5.19,12.13-14.35,12.89-8.18.69-8.71-6.19-8.46-11.34C930.62,1416.61,929.77,1408.23,939.86,1408.66Z"/><path d="M938.59,1322.73c11-.6,13.82,7.92,13.39,15-.51,8.39-8.13,12.89-16.56,13.2-7.43.27-10.33-6.81-10-11.67C926,1331.79,928.58,1323.55,938.59,1322.73Z"/><path d="M943.55,421.68c5.56-.64,8.84,5.67,7.32,11.48-1.39,5.34.41,13.43-8.71,14-9.2.08-12.58-6.19-12.85-13.3C929,425.13,937.42,422.38,943.55,421.68Z"/><path d="M939.8,1512.94c11.35-2.5,11,7.73,10.65,14-.25,4.93-1.69,13-9.25,14-12.42,1.59-15.44-7.29-16.14-17C924.41,1515,927.51,1512.94,939.8,1512.94Z"/><path d="M948.41,84.15c1.09,2.52-3.65,7.51-8.35,6.74-5.57-.91-11.82-2.13-11.17-9.37.23-8.4,3.3-14,11.47-13.4C950.61,68.84,946.07,78.72,948.41,84.15Z"/><path d="M936.73,535.49c5.2.21,12.16,3.68,10.19,12.15,2,10.77-6.69,9.68-12.4,10-4.76.25-8.32-3.48-8.85-9C924.86,540.38,929.81,535.21,936.73,535.49Z"/><path d="M933.9,937.3c7-.7,11.56,3.69,11,10.94-.48,6-.66,14.35-9.54,13.49-6.83-.67-14.26-3.56-13.4-14.41C920.05,938.46,927.9,937.91,933.9,937.3Z"/><path d="M929.35,1141.32c7.69.24,13.94,5.37,13.44,14.28-.51,9.23-7,13.83-15.43,13.13-6.22-.52-8.94-6.35-9.49-11.32C918.23,1148.45,920.63,1141.06,929.35,1141.32Z"/><path d="M941.2,885.59c-1.75,4.74-1.66,12.37-9.85,12.66-6.32.22-12.07-1.82-12.57-10.29-.47-8,2-13.44,10.49-13.56C935.51,874.32,941,876.68,941.2,885.59Z"/><path d="M935.25,220.82c0,8.87-5.57,11.72-12.31,12-7.57.3-7.93-6.05-8-11.88-.12-7.28,2.73-11.22,10.72-9.84C933.6,209.45,935.24,213.55,935.25,220.82Z"/><path d="M927.33,483.19c6.06-.32,7.78,4.9,7.71,10.26-.13,8.46-5.7,12.12-13,12.36-5.51.19-7.58-4.22-7.07-9.55C914.4,487.49,919.89,483.57,927.33,483.19Z"/><path d="M927.75,1011.69c.09,6.69-3.08,13.21-10.63,13.06-7.94-.15-11.54-6.66-11.92-14-.31-6.07,1.44-11.43,9.43-9.64C923.08,999.78,927.65,1003.89,927.75,1011.69Z"/><path d="M927.47,1220.32c-2,6.12-1.65,14.38-10.81,14.57-9.6.2-16.79-4.25-16.29-15,.29-6,3-11.2,11-11.09C919.59,1208.93,925.8,1210.88,927.47,1220.32Z"/><path d="M923.07,778.26c2.35,8.49-4.86,10.19-9.18,10.28-7.08.13-12.29-5.71-12.5-12.42-.27-8.83,7.57-11.16,14.55-10.93C924.43,765.47,921.62,773.51,923.07,778.26Z"/><path d="M909.8,112c4.79.62,15.88,1.19,13.17,12,.75,6.68-1.54,10.71-8.16,11s-12-1-11.87-9.27C903,119.79,905.4,111.39,909.8,112Z"/><path d="M917,1274c.07,6.85-2.58,12.8-10.13,12.88-7.89.08-14.15-4.68-13.57-12.93.42-5.89,1.56-14,9.3-13.19C913.43,1260.92,916.92,1266,917,1274Z"/><path d="M903.94,651.5c4.47.56,13.36,0,11.14,8.86-.2,10.85-3.7,18.34-15.06,17-8.68-1-8.63-9.76-8.47-15.31A11.32,11.32,0,0,1,903.94,651.5Z"/><path d="M910.47,1094.38c.57,10.7-9.9,9.48-16,10.18s-8.7-5.13-7.39-11.28c-1.28-8,2.57-12,10-12.24C905.82,1080.8,910.1,1087.29,910.47,1094.38Z"/><path d="M907.27,176.75c1.56,7.07-5.34,8.11-10.48,8-5.8-.17-9.62-3.92-10.06-11-.63-10.26,6.61-10.6,12.8-10.44C906.34,163.4,907,169.58,907.27,176.75Z"/><path d="M890.08,905.74c9.88.55,11.62,7,10.67,14.53-.61,4.84-2.66,10-10.79,9.68-9.71,3.78-12.43-4.45-12.53-11.7C877.34,911.66,880.81,905.23,890.08,905.74Z"/><path d="M872.19,64.13c6.75-.62,13.68,1.21,12.82,10.32.36,6.83-.44,13.89-7.77,14.13-5.26.16-13.52.31-14.29-8.87C862.33,72.31,863.21,65,872.19,64.13Z"/><path d="M872.6,983.92c0,6.34-1.75,14.55-9.85,14.69-6.34.11-14.14-2.44-14.88-11-.86-9.85,4.28-15,18.2-14.14C868.48,974,872.56,978.46,872.6,983.92Z"/><path d="M872.53,1230.63c.38,4.62,2.11,12.43-7.46,12.5-9.32.07-13.59-4.65-13-13.45.38-5.66,2.52-10.79,11.82-10.91C870.22,1218.33,872.07,1225.17,872.53,1230.63Z"/><path d="M863.06,1055c1.81,10.14-6.74,11.11-13.51,11.78-6.11.6-7-5.2-6.53-10,.65-7,0-15,11.36-13.9C861.84,1043.53,863.06,1044.45,863.06,1055Z"/><path d="M849.52,1421.79c6.78-.33,13.88,4.93,12.54,13.77-.85,5.65-1.74,13.26-8,12-11.1-1.13-17.71-1.69-17.53-13.25C836.67,1424.18,844.6,1422,849.52,1421.79Z"/><path d="M843.6,111c5.83,0,8.34,4.35,7.26,9.39s2.58,14.78-9,12.5c-5.5.87-10.51-.63-10.67-6.41C831,118.57,833.37,111,843.6,111Z"/><path d="M845.09,1348.77c.35,10-3.46,16.41-11.05,15.85-8.8-.65-14.89-6.18-13.19-16.91,1.77-11.27,11.3-7.5,17.22-8.3C845.12,1338.45,844.73,1345.75,845.09,1348.77Z"/><path d="M823.88,1169.52c7.3.61,17.32,1.2,17.29,13,0,6.92-2.29,12.84-10.25,13.19-9.34.4-15.73-3.11-13.92-14.18C815.9,1175.53,817.76,1169,823.88,1169.52Z"/><path d="M825.08,1257.28c8,.47,11.89,7.82,11.67,15-.28,8.63-8,12-15.22,12.47-5.84.39-12.67-1.64-10.54-10.1C810.53,1264,814.36,1256.66,825.08,1257.28Z"/><path d="M825.48,1570.22c3.92,0,10.33,3.53,9.23,12.51-.81,6.7-4.11,14.29-13.29,13.18-5.67-.68-11.36-6-9.84-10.66C813.23,1580.15,809,1569.37,825.48,1570.22Z"/><path d="M769.35,1510.27c6,.47,13.5-.09,12.33,5.76-1.1,11.49-3.12,17.74-12,18-8.65.25-10.94-4.59-11-12.69S761.7,1509.67,769.35,1510.27Z"/><path d="M764.88,1389c9.49-1.22,12,6.07,11.29,12.22-.68,6.31-4.87,11.94-13.44,12-9.86,0-9.42-8-9.24-13C753.69,1394.7,756.1,1387.59,764.88,1389Z"/><path d="M248.43,365.07c-4.17,0-8.34-2-12.5-2-1.5,0-3.41-.24-2.66,2.2,2.66,8.62,1.29,17.53,2.11,26.27,3.1,32.88,6.49,65.73,9.66,98.6,1.62,16.77,2.22,33.68,4.66,50.32,3.93,26.8,7.3,53.62,9.44,80.62,1.33,16.84,2.91,33.7,5.26,50.42,2.3,16.28,5.57,32.43,8.7,48.57,3.85,19.88,7.35,39.85,12.18,59.5,6.34,25.82,13.78,51.36,20.82,77,4.25,15.5,9.42,30.79,12.76,46.47,4.15,19.5,10.08,38.67,15.68,57.57,5.36,18.12,11.72,36.58,19.89,54.21,10.67,23,16.54,48.25,27.18,71.28,15.54,33.65,30.17,67.85,49.66,99.58,13.68,22.28,25.05,45.87,40.06,67.45,13.55,19.5,28.81,38.1,40.39,58.55,8.77,15.49,19.63,15,32.33,13,29.54-4.62,59.24-7.39,89-9.83,14.83-1.22,29.56-3.64,44.39-4.85,24.09-2,48.23-3.34,72.33-5.18,2.47-.19,9.22,1.62,5.38-4.76-12-19.94-24.9-39.34-37-59.23-11.15-18.37-21.68-37.11-32.53-55.66-7.28-12.46-14.95-24.71-21.88-37.37-14-25.64-28.61-51-41.23-77.39-9.06-18.89-16.81-38.59-25.66-57.5-9.25-19.78-15.43-40.49-23.67-60.5-9-21.79-14.5-44.82-19.86-67.85-5.1-21.94-12.33-43.37-17.65-65.27-5.09-21-9-42.24-13.29-63.4q-4.62-22.71-8.94-45.48c-3.49-18.58-7.09-37.15-10.07-55.81q-4.61-28.85-8.06-57.86c-2.67-22.41-5.83-44.85-6.73-67.36-.68-17.09-2.66-34.09-2.54-51.34.13-18.7-3.3-37.52-3.65-56.49-.26-14-2.49-27.88-1-42,.11-1.09,3.2-6.29-2.59-6.59-8.89-.46-17.76-1.52-26.66-1.89-19.71-.82-39.43-1.34-59.15-2-18.13-.64-36.25-1.74-54.38-1.93C308.54,366.83,278.48,365.07,248.43,365.07ZM767.26,1298.6c5.81,10.29-2.55,15.49-8.87,15.88-14.22.86-28.36,2.85-42.66,3.38-24.21.91-48.27,5.63-72.41,8.51-15,1.79-30.09,3-45.12,4.72-22,2.45-44,4.71-66,7.75-13.22,1.83-18.94-7.81-25.4-15.61-8.71-10.52-16.49-21.85-24.15-33.18-11.69-17.31-24.25-34-34.29-52.45-13.3-24.47-29.16-47.58-41.77-72.37-9.74-19.12-19.5-38.33-28.23-58.07-10.59-24-19.44-48.63-30.45-72.43-8.13-17.56-12.89-36.69-18.83-55.23-5.85-18.22-11.57-36.49-16.82-54.89-5.46-19.14-10.61-38.37-15.25-57.72-2.31-9.66-4.92-14-17-11.37a92,92,0,0,1-42.38-.22c-7.64-1.95-12.34,4.13-18.49,6.17-8.33,2.76-16.56,5.83-24.76,8.94-.73.28-1.33,1.88-1.35,2.88-.74,30.09-1.67,60.18-1.78,90.27,0,4.9-3.11,12.7,2.21,14.5,3.17,1.07,8.48-6.47,13.5-8.11,14.73-4.8,20.44-19.34,31.6-28.07,15.32-12,31.18-19.12,50-12.36,7.57,2.72,12.43,10.42,12.56,19.87.16,11.61-8.21,16.05-16.62,19.51-20.48,8.43-41.52,10.81-63.38,4.66-3.08-.86-7.8,3.36-11.51,5.63-7.67,4.7-19.9,5.07-18,19,3.34,24.65-1.21,49.66,3.29,74.27a1.66,1.66,0,0,1,.07.49c-.63,4.48-3.25,10.29-1.37,13.06s7-1.42,10.67-2.82c4.24-1.64,8.32-3.88,12.69-5,19.13-4.84,23.83-23.92,35.82-35.77,10.1-10,21.59-19.78,35.63-20.75,10.41-.73,21.52,3.88,28.67,14.47,8.74,13,1,22.92-6.87,29.65-9.94,8.51-23.67,11.63-37,13.15-10.84,1.23-21.5,2.63-32.7.41-12.85-2.54-21.46,9.88-33.14,12.48-19.37,4.31-12.05,17.64-10.67,29.55,1.65,14.24,2.21,28.61,3.25,42.93.34,4.76.78,9.51,1.07,14.28.22,3.57,2.48,2.53,4.15,1.7,18.4-9.15,37.56-16.43,56.64-24,4.08-1.62,5.32-9.73,8.48-14.44,11.33-16.92,27.6-25.79,47.71-26.54,13.39-.5,26.86,10.27,27.79,23.29.84,11.93-8.28,18.69-18.75,22.27a116.81,116.81,0,0,1-63,4.1c-8.05-1.7-13.64,4.53-20.26,7.13-12.81,5-25.13,11.29-37.68,17-3.79,1.72-3.41,5-3,8.06,2.55,18.45,4.89,36.94,8.09,55.28,1.58,9,3.55,17.88,4.08,27.09.22,3.79,2.91,7.44,4.47,11.16L231.3,1284c14.32-8.37,28.95-16.27,42.79-25.38,4.08-2.69,6.55-8.49,8.71-13.34,6.08-13.61,16.41-22.36,29.62-28.61,12.6-6,25.38-8.45,38.71-3.47,8.88,3.32,16.8,10.41,17.14,19,.38,9.38-7.78,16.49-16.64,20.86-21.64,10.65-45,9.75-68.16,10-9.78.12-14.84,8.92-22.46,13.09-12.26,6.7-24,14.32-36,21.55-4.16,2.5-2.29,19.39,2.35,23.16,19.7,16,31.51,36.23,31.62,62.14.08,18.5-24.76,37.25-41.59,25.92-8-5.35-10-14.89-10.22-23.66-.41-19.51-1.25-38.84,7.07-57.89,4.16-9.52-1.61-19.74-14.13-22.24-15.62-3.11-28.25-13-42.7-18.76-8.25-3.29-17-.33-25.5-3.11-19.73-6.42-36.24-17.12-46.29-35.14-3.9-7-2.11-16.58,5.64-22.57,7.92-6.11,16-1.87,22.66,1.68a100.43,100.43,0,0,1,44.7,46.74c4.67,9.76,17,10.25,25.93,14.79,6.87,3.49,14.39,5.7,21.26,9.19,3.69,1.87,3.23-.15,3.08-2.19-1.25-17.27-5.86-33.92-9.33-50.79-1.84-8.93-4.59-18.18-3.82-27,1.54-17.5-13.46-18.17-22.61-24.69-14.8-10.55-31.71-14.61-49.7-16.51-22.71-2.39-50.89-39.29-46-61.26,2.29-10.23,11.58-10.81,20.85-4.8,19.84,12.86,39.73,26.61,49.19,48.59,8.66,20.14,30,20.31,42.89,33,2.15,2.11,1.67-1,1.55-2.23q-3.37-32.5-6.82-65c-1-9.73-.7-19.53-1.54-29.31-1.16-13.41-13.13-12.31-19.34-18.55-2.9-2.91-7.55-4-10.95-6.5-10.3-7.59-22.85-4.63-34.19-7.19C108,1061,80.82,1040.34,79,1029.23c-.88-5.41.07-11.05,4.72-14,7.23-4.65,15.23-2.46,22.7.14,18.64,6.49,29.1,21.54,39.26,37.23,7.27,11.24,21.4,13.82,31.09,22.26,1.77,1.54,4.85,3.81,6.19,3.21,3.54-1.58-.2-4.38-.23-6.74-.36-27.79-.48-55.63-2.26-83.35-.46-7-11-8.42-15.76-13.65-14.49-16.09-36.21-15.08-53.85-23.48-16.31-7.77-29.18-20-35.82-37.53-1.8-4.73-.25-9.35,3.19-13,5.42-5.82,12.72-4.66,18.76-2.87,23,6.82,41.2,21.18,50.26,43,6.43,15.5,21.25,18.73,31,28.85,3.24,3.36,2.67.26,2.68-1.57,0-8.83,0-17.67,0-26.5h2c0-22-1.71-44.27.56-66.07,1.71-16.36-8.52-21.65-17.8-30.33-14.26-13.33-33.41-7.92-49-15.54-18.13-8.86-44.15-28.15-41.9-48.17,1-8.89,12.86-18.09,21.6-15.91,30.39,7.58,47.86,28.84,58.5,56.44,5.08,13.16,18.47,15.57,27.23,23.8.44.42,2.71-8.12,2.44-11.93-.74-10.75.86-21.14,2-31.71,1.43-13.59,0-27.67,2.84-40.86C192.82,745,179,743,172.49,735c-.39-.47-1.17-.63-1.51-1.12-7.95-11.51-19.75-14.31-32.82-16.36-19.72-3.08-35.1-13.8-45.27-31.39-9.75-16.85-8-28.76,5.1-34.81,10-4.61,36,6.72,43.4,15.45,11.76,13.79,19,28.52,20,46.59.07,1.4,3.71,2.47,5.46,4,4.49,3.8,8.89,7.72,13.27,11.65,3.53,3.16,7,6.4,10.47,9.61.79-4.92,1.72-9.82,2.35-14.76,2.35-18.49,5.38-37,6.66-55.52,1.22-17.66,4.45-34.91,7.32-52.28,2.06-12.48-10.72-14-16.07-21-10.55-13.82-29-9.15-41.83-17.88-14.33-9.75-27.2-21.11-29.47-38.87-1.2-9.3,5.58-17.45,15.06-21.48s16.06,1.56,22.33,7.12c14.37,12.73,19.19,30.55,25.9,47.66,4.64,11.8,17.16,17.86,26.16,26.48,1.79,1.7,1.81-.89,1.92-2,2.81-26.7,11.24-52.05,19.65-77.25,6.39-19.12,2.59-37.59.73-56.48-1.54-15.63-2.12-31.38-2.73-47.09-.74-19.17-1-38.37-1.64-57.55-.17-4.76.87-7.25,6.25-6.81,17.95,1.44,36,4.31,53.86,3.57,23.33-1,46.29,2.61,69.5,2.89,33.38.39,66.71,3.74,100.07,5.51,10.87.58,21.78.12,32.68.2,2.15,0,2.23,1.22,2.35,3.29,1.21,20.23-.84,40.46,1.71,60.8,2.73,21.78,2.1,44,3.87,65.88,2.38,29.5,5.52,59,8.61,88.39,2.19,20.89,4.14,41.84,7.46,62.56s8.3,41.08,12.39,61.64c3.91,19.68,7.27,39.47,11.52,59.07,4.1,18.92,9,37.67,13.6,56.49,4.89,20.14,9.15,40.47,14.86,60.37,6,20.76,11.2,41.68,18.79,62,9.32,25,18.94,49.8,29.56,74.3,13.16,30.34,27.54,60,43.44,88.95,14.49,26.37,28.82,52.84,43.84,78.9,13.75,23.86,28.51,47.13,42.5,70.84C751.91,1270.4,759.37,1284.63,767.26,1298.6ZM356.63,1235c2.06-8.37-12.63-17.4-23.07-15.89-21.73,3.14-37.91,13.86-48.18,33.55,17.86,1.86,35.44-.59,52.71-4.1C345.57,1247,354.5,1243.68,356.63,1235Zm-29.48-84.31c4.8-2.42,11.66-4.6,8.54-13.76-4-11.76-13.75-10.25-21.31-12-18.55,1.13-30.34,10.95-39.54,24.76-1.38,2.06-5.28,3.92-3.38,6.3,1.57,2,5.48,2.8,8.35,2.79,4.48,0,9.07-2.12,13.42-1.63A59.56,59.56,0,0,0,327.15,1150.68Zm-30.25-88.54c7.22-3.15,16.84-8.6,11.77-19.59a19.84,19.84,0,0,0-22.14-10.89c-15.5,3.77-28.1,13.7-36.88,27.4-2.43,3.78-10.48,5.46-7.75,9.77,2.58,4.08,10,2,12.11,2C271.26,1071.55,284.5,1067.53,296.9,1062.14ZM283.63,959c5.5-2.5,8.83-6,7.19-12.16-1.19-4.46-4.14-8.38-9.08-8.47-15.57-.28-30.19,2-41.9,14.26-4,4.13-12.91,7.71-11.52,12,1.82,5.55,10.46,1.06,15.1,2.4A89.87,89.87,0,0,0,283.63,959Zm-8.2-112.08c8.31-.81,18.77-.16,11-13.89-.5-.87.25-2.75-.33-3.21-4.29-3.39,4.13-21.73-12.08-10.82-11,7.43-21.27,16-31.82,24.17a2.93,2.93,0,0,0-1,2.36,2.48,2.48,0,0,0,2,1.37c6.44,0,12.91-.43,19.12,2.46C266.32,846,271,847.3,275.43,846.88Zm5-40.83c-1-2-2.76-4.37-3.29-6.95-4.28-20.87-8.09-41.84-12.55-62.67-2.38-11.15-3.59-23.43-20-9.53-10.69,9-23.7,15.82-37,21.43-13.94,5.87-9,20.37-9.75,30.24-2,27.21-.71,54.67-.71,80.8.31-.15,2.66-1.37,5.06-2.46,8.24-3.77,19.68-5.26,24.15-11.64C240.14,825.49,259.24,814.71,280.47,806.05Zm-29.26-94.44c2.73-1.74,8.43-.68,7.56-6.12-3.07-19-7.29-37.84-9.6-56.91-2.33-19.28-2.73-38.78-4.32-58.16-.56-6.83-2.44-13.55-3.19-20.38-1.52-13.88-2.69-27.8-4-41.71-.12-1.18-.16-2.37-.23-3.56-1.86.12-2.1,1.25-2.47,2.93-4.54,20.35-9.86,40.55-13.75,61-4.65,24.48-8.78,49.1-11.94,73.81-3.4,26.6-5.42,53.38-8.09,80.57C218.18,732.43,234.75,722.11,251.21,711.61Zm-18.92,691c10.19-5.8,19.57-12.36,17.7-20.35-1.59-21.86-10.17-34-18.94-46-2-2.68-4.78-4.72-7.21-7.06-1.58,3.54-3.65,7-4.66,10.65-4.45,16.4-4.4,33-2.22,49.79C217.88,1396.8,227.25,1405.51,232.29,1402.64ZM165.4,574.71c9.21,2.79,10.5,1.62,9.12-1.94-3.16-8.16-5.75-16.63-9.79-24.34-5.26-10-13.58-17.56-21.5-23.6-8.56.17-9.42,5.58-10,10.06C130.3,555.59,149.89,570,165.4,574.71Zm-13.87,135c1-4.06-1.45-9.09-2.78-13.55-5.53-18.65-26.62-36.85-42.11-36.53-9.44.2-12.68,8.24-8.65,17.55,8.28,19.17,24.79,27.36,42.9,33.07C143.16,711,149.65,717.49,151.53,709.75Zm-7.05,567.4c1.86-1,7,1.55,4.11-3.67a97.45,97.45,0,0,0-38.16-37.8c-3.79-2.12-9.67-5.83-14.51-.83-4.56,4.71-1.64,10.45.93,14C108.59,1265,125.58,1272.87,144.48,1277.15Zm.13-448.27c1.95-.07,5.6,2.69,3.14-3.41-5.2-12.87-14-23-22.78-33.12-7.78-9-17.33-16.13-31-17.42-6.32.56-12,4.58-9.38,11.72,9.21,25.1,30.86,35,54.52,41.82A18,18,0,0,0,144.61,828.88Zm-1.9,343.46c-.86-2.89-1.17-6.11-2.67-8.62-12-20-28.84-35-48.71-46.73-1-.58-3.22-.56-3.81.11-1.16,1.32-2.51,3.52-2.17,5,5.89,25.56,29.77,45.37,54.55,51Zm-5.1-221.7c1.61.43,4,.83,3.17-1.88-5-17-30.72-40.49-52.47-43-.64.52-2.91,1.46-3.16,2.78a10.27,10.27,0,0,0,1.1,6.46c9.87,17.77,25.65,27.82,44.61,33.59C133.11,949.24,135.34,950,137.61,950.64Zm1.08,107.81c-.17-5.51-5.23-7.89-7.9-11.7-9.15-13-20.24-23.8-40.28-24.64-2.36.38-3.21,3.5-.49,7.32,8.66,12.17,19.45,21.65,34.33,25.52C129.11,1056.18,133.91,1057.29,138.69,1058.45Z"/><path d="M724,1557.06c3.89,9.73-4.53,14.09-13,14.6-9.52.57-11.32-9.11-11.34-16.1,0-8.85,8.12-10.37,15.07-10.37C720.08,1545.19,723,1549.33,724,1557.06Z"/><path d="M691,1489c1.54,8.47-5,13.71-11.35,13.42-8.12-.37-13.67-6.92-13.15-16.42.39-7.2,5.21-9.24,11.21-9.49C685.87,1476.13,692.07,1478.36,691,1489Z"/><path d="M659.84,1582.34c.6,8.19-1.72,15-16.41,14.6-3-.18-7.92-4.23-7.7-11.32.2-6.2,2.12-13.18,11-12.63C652.93,1573.37,659.28,1574.69,659.84,1582.34Z"/><path d="M636.47,1386.39c7.54-.33,15.93.5,14.59,12.13-.58,4.79-.48,12.56-6.11,11.9-7.05-.82-17.67-1.11-16.32-14C629.2,1391,631.77,1386.6,636.47,1386.39Z"/><path d="M637,1524.79c1.38,9.19-5.3,11-12,12.17-5,.9-7.88-2.3-8-7-.13-6.27-1.93-14.3,7.32-15.63C631.36,1513.32,637.61,1515.41,637,1524.79Z"/><path d="M582.59,1483.44c.4,8-7.68,6.9-12.39,7.35-8,.75-12.38-3.68-11.18-12-1.45-8.77,5.19-12.9,10.86-13.34C582.12,1464.47,582.18,1475.33,582.59,1483.44Z"/><path d="M554.12,1559c10.85-1.83,10.73,7.49,10.52,13.72-.25,7.64-7.59,10.23-14.26,10.2-8.48,0-9.22-7.28-9.24-13.39C541.11,1561.8,545.8,1558.25,554.12,1559Z"/><path d="M565.06,1409c-2.25,4.84-4.65,9.74-11.5,10-8.86.33-11.85-5.62-12.52-13-.59-6.61,2.89-11.25,9.65-10.87C558.28,1395.56,563.21,1400.13,565.06,1409Z"/><path d="M512.41,1513.21c5.45.44,13.54.77,13.16,8.89-.28,5.93,1.23,14.8-9.69,15.05-9,.2-12.95-4-13.15-15.74C502.55,1517.72,505.31,1512.64,512.41,1513.21Z"/><path d="M502.46,1474.62c.66,7.15.62,16.29-10.17,14.54-7.07-.16-13.37-.06-13.64-8s1.82-14.47,11.82-14.29C496.2,1467,502,1469.23,502.46,1474.62Z"/><path d="M465,1546.61c.37,6.22-1.36,12.18-8.26,12.14-8,0-15.92-2.07-15.95-13.23,0-8.45,4.2-12.21,12-12.52C462.08,1532.63,465.47,1538,465,1546.61Z"/><path d="M386.66,1509.28c1.31,8.11,3.78,19.64-14.5,20.17-7.47,1.12-11.4-6-11.93-14.55-.46-7.33,5.32-11.83,12.27-11.65C377.61,1503.37,385.85,1504.23,386.66,1509.28Z"/><path d="M333.37,1568.92c4.7,1.28,12.29.24,11.74,10.11-.45,8-5.32,12.1-12.35,11.75-7.67-.38-9.2-7.39-9.71-13.67C322.55,1571,326.41,1568.69,333.37,1568.92Z"/><path d="M295.05,1534.92c.91,6.91-3.42,10.64-9.06,11-11,.67-14.21-8.11-15.56-16.61-1.2-7.61,6.41-8.16,11.17-9.38C287.94,1518.3,294.58,1526.31,295.05,1534.92Z"/><path d="M269.85,1463.25c7.06.55,16,1.69,15,12.16-.66,7.34-4.67,13-12.95,14-10.78-1.29-7.22-10.53-8.54-16.15C262.55,1469.74,264,1462.79,269.85,1463.25Z"/><path d="M235.25,1555.22c6.86-.22,7.43,7.57,7.23,11.47-.23,4.27,2.12,13.46-7.56,12.17-6.06-.8-14.37-.25-14.06-11.71C220.55,1558.49,227.55,1555.47,235.25,1555.22Z"/><path d="M227,1495.34c.63,6.25-2.38,9.79-10,9.89-4.14-1.72-11.83-.26-11.85-8.67,0-4.8.34-11.33,7.37-11.44C219.28,1485,226.13,1486.64,227,1495.34Z"/><path d="M174.53,1536.2c8.23.18,11.83,5.55,10.93,11.79-.75,5.15.61,15-10.67,13-10.26,1.46-10.83-7.23-11.35-13.28C162.91,1541.52,166.14,1536,174.53,1536.2Z"/><path d="M118.1,1461.12c10.36-1.29,17.43,3.24,16.23,14.12-.55,5,.38,14-8.3,13.89-10.62-.39-16.75-5.59-16.53-14.56C109.62,1469.87,110.44,1462.08,118.1,1461.12Z"/><path d="M124.68,1360.55c.42,6.07-1.09,13-10,12.46-7.46-.46-12.22-3.94-11.82-11.8-.2-6.14,2.93-10.86,7.92-11C117.19,1350,124.15,1352.9,124.68,1360.55Z"/><path d="M110.78,1546.92c1.22,11.48-7.47,13.44-14.85,13.64s-9.08-7.06-8.8-13.21A10.23,10.23,0,0,1,97,1537.29C103.29,1537.2,110.05,1538.81,110.78,1546.92Z"/></svg>