<svg xmlns="http://www.w3.org/2000/svg" xmlns:xlink="http://www.w3.org/1999/xlink" viewBox="0 0 976 1600"><defs><style>.cls-1{fill:none;}.cls-2{fill:#f4f3ef;}.cls-3{clip-path:url(#clip-path);}.cls-4{fill:#50b271;}.cls-5{fill:#592116;}.cls-6{fill:#992d17;}</style><clipPath id="clip-path"><path class="cls-1" d="M960,22V1578a6,6,0,0,1-6,6H22a6,6,0,0,1-6-6V22a6,6,0,0,1,6-6H954A6,6,0,0,1,960,22Z"/></clipPath></defs><g id="Paper_Backing" data-name="Paper Backing"><path class="cls-2" d="M960,22V1578a6,6,0,0,1-6,6H22a6,6,0,0,1-6-6V22a6,6,0,0,1,6-6H954A6,6,0,0,1,960,22Z"/></g><g id="Wikipedia_Cropped" data-name="Wikipedia Cropped"><g class="cls-3"><path class="cls-4" d="M0,1604c-2.45-3.48-18-720.38,5.83-712.8a233.25,233.25,0,0,1,79.46-37.73c7.47-23.33,112.41-48.64,141.57-46.8,10.59,1.6,12.74-1,17.86-8.55,37.43-9.17,79.67-15.3,118.86-15.59,95.35-8.59,195.57-4.33,287.57,19.17,14.64,5.08,27.13,15.39,41,21,6.14.74,4.66-8.28,9.88-8.46,22.82,6.28,41.62,17.81,62.12,28.4,4.76-1.21,8.55-5.43,13.89-2.2,71.47,24.84,136.24,78,197.91,117.39,11.41-.88.2,378.91,4,382.9,0,1,0,258.1,0,259.24C981,1611.92,3.94,1599.81,0,1604Z"/><path class="cls-5" d="M976.42,1341.75a482.44,482.44,0,0,0-245.76-9.38c12.46.54,22.34,1.8,32.11,1.2,43.37,1.63,87,11.22,126.43,29.51,20.3,8.81,39.54,19.58,58.85,30.22,1.93,1.06,5.08,2.66,4.72,6.16-37.9-8.06-69.55-36.34-107.77-45.1-22.82-4.47-95.4-21.57-112.64-10.88a453.47,453.47,0,0,1,163.25,54.09c5.81,3,13.12,6.59,16.23,16.22-54-29.49-108.5-52.62-168.37-60.37,39.07,10,78.07,24.87,110.65,49.06,2.63,2.23,10.35,4.53,6.9,7.78-4.59,4.33-11.32-1.26-15.73-4.21-24.23-16.23-51.06-27.07-78.22-36.48-44.33-15.68-94.55-26.44-138.85-5.68-53.68,19.3-103.93,45.22-148.82,80.76,68.4-23.09,143.15-25.88,214.3-15.38,15,3.27,49.19,7.42,59.09,17.35-63.75-8.59-128.6-20.2-193.53-11.38-96.05,3.09-173.76,73-216.43,154.7-15.6,7.38,3-24.91,6.4-28.3,36.35-60.61,91-104.35,149.26-142.66,2-2.62,16.72-8,10.1-10.53-47.82-29.42-97.77-56.6-154-65.27-31.61-7-63.46-12.69-96-12.1-7.47.66-25.06-2.16-29.95,1.75,49.69,11,98.15,32.81,135.35,69.53,14.41,14.78,35.25,27.21,43.23,46.43-23.3-13.51-41.69-37.31-63.76-53.75-28-23.45-61.92-40.3-97.4-49.34,50.95,19.31,88.19,62.8,117.51,107-4.72,5.07-36.37-37.07-42.43-42.56-24.46-26.87-55.06-55.94-91.92-60.76,31.36,19.43,56.35,47.39,77.94,77.12,3.16,5.34,14.3,17.64,10.63,23.35-2.14,1.73-3.63-1-4.58-2.34-17.1-24.08-34.73-47.79-56-68.32-30.62-28-72.93-48.73-115.36-35-38.07,13.94-72.25,24-105.51,49.63,62.94-22.68,124.55,1.37,174.72,39.78,4.11,3.48,17,14.69,17.34,18.79-67.65-46.55-124.35-80.08-208.12-43.86-4.23,1.72-9.24,3.34-13.81,1.22-2.7-1.13-.31-3.44,1-4.18,43.13-32.92,90.3-60.3,143.57-72.83,116.69-27.53,246-5.88,347.06,58.54,17.16,10.83,18.54,21.13,36.87,4.6,100.9-53.11,216.2-91.11,331.14-84.48C903,1314.87,948,1315.38,976.42,1341.75ZM121,855.4c107.73.42,216.58,45.26,292.18,122.45,4.21,4.27,14.79,8.76,5.6-1.56C367.14,915.21,294,876.11,217,857.23c-36.27-9.17-74.2-10.16-111.79-10.25-5,.28-9.83,3.55-15,1.28,36.38-15.36,74.32-31.33,113.43-36.6,68.74-4.39,138.44,12.5,202.65,36.07,28.07,11.27,52,29.83,75.95,47.73,63.41,44.06,125.67,96.69,158.87,168.18.73,2.87,7.24,5.08,7.35-.18C606.27,976.6,549.54,930.17,472,876c58.53,24.67,110.47,64,155,109,24.2,26.39,44.27,56.48,66.11,84.83,2.2,2.88,6.17,7.18,9,5.36,3-2-1.75-5.17-3.25-7.47C660.65,1005.37,612.66,949,551,909c33.82,13.89,63,38.7,93.47,58.9,45.63,31.85,81.6,74.07,121.79,112.25,13.14,12.42,23.09,28.16,35.16,41.8,1.74,2,4.57,8.15,7.57,5.36s-1.53-6.32-4.19-9C684.22,949.15,456.05,808.75,245.9,801.94c57.76-14.78,117.26-15.92,176.45-19.13,15.94-1.53,31.83,1,48-1.11C483.57,780,497.5,784,511.16,785c46,5.36,94.37,6.13,138.51,20.41,81.71,33.77,138.2,110,170.39,190.24,4.26,11.18,7.7,22.8,13.24,33.3,4.42,8.39,6.54,18.39,15,25.68-19.84-67-44.68-130.39-91.39-183,25.21,24.62,49.46,49.54,71.13,77.09,27.15,34.53,44.41,73.87,61.19,113.73.71,1.7,4.29,3.67,5.75,3.18,1.74-.57-.5-2.72-1.12-4.25C873,999.94,842.56,942.26,796.06,896.25c-28.21-31.52-56.6-56-94-78,72.91,23,122.53,80.22,171.65,135.19,23.77,26.41,38.79,57.55,54.6,89.3.46,2.55,4.83,10.35,6.34,4.33-1.51-6.74-5.06-11.06-7.23-16.64-18.07-44.74-44.75-84-78.57-118.2-23-25.76-48.12-50.1-77.26-68.87,55.7,19.4,107.62,51.21,156,85,9.51,4.4,41.45,40.67,46.29,36.09,7.31-6.32-33.56-38.17-39.34-42.91-61-46-130-79.79-202-104.59-44.14-17.69-92.13-27.27-138.91-32.76-96.24-19.73-195.82-15.84-292.79-3.33-87.2,10.6-174.09,33-251.39,75.6-11.38,5.78-52.69,28.63-49.64,39,6.1,5.72,44.44-27.72,57.91-29.44C78.12,858.81,99.72,857.49,121,855.4Zm327.57,253.85c83.54,2.2,169.54,14.8,247.08,48.6,21.43,9.37,43.24,19.74,60.14,37.15a5.86,5.86,0,0,0,8.35.38c2.86-2.44-.62-4.65-2.17-6.4-57.5-50.36-137.58-68.32-211-81.7-35.2-6.45-71.56-8.19-107.42-8.28-6.27.18-13.09,1.84-18.95-1.54-83.79-55.6-182.51-84.35-282.16-92.08C114,1003.89,85,1002.59,57,1011c-8,2.07-61.84,16.48-45,24.22,7.78,4,14.35-2.36,21.65-2.2,45.31,1,91.07,9.77,133.19,26.48,17.28,5.82,34.09,18.51,52.56,18.58-.8-1.18-1.33-2.88-2.44-3.47-11.4-6-22.59-12.55-34.43-17.52-44.22-20.65-92.3-29.75-140.76-33,131.6-24.23,251.41,9.44,366.94,73.15-13.06,5.75-25.15,4-36.63,5.19-44.82,4.26-89.62,9.66-133.75,18.66-80.39,19.94-158.07,57-220.29,112.09-4.77,4.46-14.83,9.36-11.55,15.71,5.16,8.44,9.43-2.39,14.09-5,35.25-19.7,64.34-58.07,107.47-58.88,86.62.44,170.75,31.31,246.85,70.69,18.39,9.51,34.39,23.31,54.12,30.24-88.32-70.11-189.66-104.89-301.5-110.7,36.84-16.47,75-33.86,115.09-40.69,21.93-3.51,42.41-12.25,66.18-8.29,67.34,5,131.05,28.7,189.42,62.15,19.32,10,35.46,25,56.47,31.57-64.23-52-136.06-88-219.94-102.76,65.22-2.44,126.7,24,185.16,49.79,17.4,8.48,34.26,18.1,51.24,27.42,2.65,1.46,6-1.13,8.21,2.13,4.2,3.84,6.16-4.34-.51-6.59-43.26-28.12-90.84-49.37-139.72-65.74.17-.66.33-1.31.5-2,46.8,7.16,93.31,18.39,137.16,36.36,19.2,7.1,36.64,21,55.83,26.74-41.74-36.1-97.34-55.15-150.34-68C479.38,1116.44,440.86,1112.86,448.57,1109.25Z"/></g></g><g id="Red_Japanese_Frames" data-name="Red Japanese Frames"><path class="cls-5" d="M0,20V1580a20,20,0,0,0,20,20H956a20,20,0,0,0,20-20V20A20,20,0,0,0,956,0H20A20,20,0,0,0,0,20ZM924,1548H52V52H924Z"/><path class="cls-6" d="M952.1,15.41,928.69,38.83A4,4,0,0,1,925.86,40H50.14a4,4,0,0,1-2.83-1.17L23.9,15.41A2,2,0,0,1,25.31,12H950.69A2,2,0,0,1,952.1,15.41ZM40,1549.86V50.14a4,4,0,0,0-1.17-2.83L15.41,23.9A2,2,0,0,0,12,25.31V1574.69a2,2,0,0,0,3.41,1.41l23.42-23.41A4,4,0,0,0,40,1549.86ZM936,50.14V1549.86a4,4,0,0,0,1.17,2.83l23.42,23.41a2,2,0,0,0,3.41-1.41V25.31a2,2,0,0,0-3.41-1.41L937.17,47.31A4,4,0,0,0,936,50.14ZM925.86,1560H50.14a4,4,0,0,0-2.83,1.17l-20,20a4,4,0,0,0,2.83,6.83H950.69a2,2,0,0,0,1.41-3.41l-23.41-23.42A4,4,0,0,0,925.86,1560Z"/></g></svg>