<svg xmlns="http://www.w3.org/2000/svg" xmlns:xlink="http://www.w3.org/1999/xlink" viewBox="0 0 976 1600"><defs><style>.cls-1{fill:none;}.cls-2{fill:#f4f3ef;}.cls-3{clip-path:url(#clip-path);}.cls-4{fill:#ffb85a;}.cls-5{fill:#997664;}.cls-6{fill:#d81e1e;}.cls-7{fill:#592116;}.cls-8{fill:#992d17;}</style><clipPath id="clip-path"><path class="cls-1" d="M960,22V1578a6,6,0,0,1-6,6H22a6,6,0,0,1-6-6V22a6,6,0,0,1,6-6H954A6,6,0,0,1,960,22Z"/></clipPath></defs><g id="Paper_Backing" data-name="Paper Backing"><path class="cls-2" d="M960,22V1578a6,6,0,0,1-6,6H22a6,6,0,0,1-6-6V22a6,6,0,0,1,6-6H954A6,6,0,0,1,960,22Z"/></g><g id="Wikipedia_Cropped" data-name="Wikipedia Cropped"><g class="cls-3"><path class="cls-4" d="M610.81,1312.71c-6.36-.61-10.66-7.75-16.82-9-8.94,2.94-17.46-1.59-26.31,1.72-21.18-1.24-7.85-26.44-4-37.36,5.46-11.31,17.4-15.16,26.41-21.7,18-7.26,38.55-8.29,57.09-4.22,14.52,1.64,58.47,43.76,23.24,42.84-11.58-7.2-18,9.77-30.18,5.07-7.39.83-8.62,12.73-16.06,14C617,1301.74,617,1312.8,610.81,1312.71Zm-385.87-5.18c-84.33-1.78-86.1-127.19-1.82-130.07C309.71,1175.89,311.66,1305.46,224.94,1307.53Zm2-326.15c-10.46-1.19-8.49-15.76-17.05-17.94-11.08-1-19-6-24.69-15.75,10.64-57.29,107.47-60.36,129.15-9.59,11.84,52.67-13.45,21.42-36,29.19-5.48-.13-9.32,5.32-15,2.19-6.56,1.42-10.25,9.18-16.8,11.24C240.15,980.5,233.49,978.64,226.94,981.38Z"/><path class="cls-5" d="M775.85,1604c-80-.35-213.26.19-292,0-18.48-21.48-37.28-46.61-60.83-66.36-154.69-151.09-155.8-11.25-195.17-179.16,8.16-23.43,28.9,50.53,87.7,30.1,56.85-49.2,45.52,20.41,90.38-14.13,16.8-25,19.69-61.78,43.4-81,21.38,31.15,21.18,27.43,55.32,43.08-5.19,20-21.37,38-22.36,59.6-.93,17.36,8.25,30,23.19,34.13,9.47.84,22.94,14.93,30.68,6.26,46.34-37.27,31.48-65.72,59.17-68.78,21-10,22.95-26,46-12,56.67,13-9.1,87.39-25.29,113-4.23,16.44,28.42,12.15,38.08,21.65,19.1,9.86,39.93,18.73,67.53,28.73,49.34,17.75,66.19,53.58,110.18,76.25C853.55,1610.92,777.37,1601.65,775.85,1604ZM653.48,1124.57c-43.44-50.3-108.57,17.19-45.88-61.37,60.54-62.21,3.82-164.88,54.24-143.14,24.55-5.09,39.44-24.23,36.11,15.11,1.88,10.51-3.22,49.63,12.9,42C775.57,918,740.24,819.9,749.36,742.65c-3.46-17.55,14.83-43.65,4.43-55.48-7.51-55.09,9.72-117.43,10.74-174.93.57-39.51,9.7-171.46,52.29-70.58,1.66,33.83-.18,68.49-.87,102.55-.52,36.91-4.23,73.46-3.75,110C808.89,664.53,800.56,665,794,669.55c-30.82,22.89-27.83,76.52,3.79,94.83,24.55,23.82,7,58.43,13.61,88.33,3,27.83-13.26,30.77-29.67,40.25-32.24,77.63,23.78,73.75,11.89,100-15,17.66-27.83,36-42.36,53.38-10.87-.06-7.7,14.07-12.95,20.2-5.35,9.15-13.93,15.07-24.82,17.11C691,1087.25,672.67,1113.18,653.48,1124.57Zm-487.57-48.09c-8,1.17-9.43-43.37-9.26-51.68,11.09-3.67,21.63,12.18,35.34,9,21.12.34,31.58-6,41.16-28.36,10.54,7,14.25,22,29.8,26.72,4.09,1.11,5.15,14,2.77,18.51C232,1047.43,191.93,1049,165.91,1076.48Zm15.88-220.07c-10-7.29-31.7-.33-29.76-15.55,2.8-29.21-.83-67.92-2.33-99.17C147.07,684.52,144.37,628,139.27,571c-5-47.81,7.56-96.32-4-142.76-7.1-29.65-7.66-61.3,2.9-89.34,1.58-3.85,2.42-9.09-2.33-11-6.61-18.32-.19-43.37-2.5-62.91,4-27.65-42.68-187.07,18.58-162.75,32.83,14.6,19.09,74.84,25.64,105.84,7.38,68,25.45,137.22,19.48,205.12-11.8,26.2,6.36,53.64,7.72,83.17,1.06,32.26,16.53,67.95-6.65,94-7.71,23.39.05,49.69,22,62.71,5.42,3.86,5.15,14.63,4.12,18.46-5.44,34.21,12.9,67,5.83,102.4C229.59,781,217.3,785.56,212,790.6c-14,8.71-12.11,34.41-27.21,41.72C179.54,840.25,195.56,854.77,181.79,856.41Zm499.62-53c-3.68.76-11.08-4.3-16.54-3.79-4.84-.84-21.79.47-20.82-4.9-.58-55.65,7.43-113.27,1.34-168.16-1.85-56.4,43.48-38.83,42.75,3.92-1.29,29.86,3.94,60.92.49,91,3.25,8.52-7.41,9.63-6.38,16.92C683.4,755.35,703.3,794.61,681.41,803.37Z"/><path class="cls-6" d="M826.21,1474c-51.93-2.32-25-47.92-41.77-53.72-21.37,9.11-46.7,7-63.91-9.73-31.5-31.12,3.55-64.06-14.22-66-15,8.83-33.33,19.45-53.67,13-11.31,3-25.39-18.38-34.48-9.33-21.5,34.69-80.46,31.48-83.76-13.93-42.57,8.65-89.55-22.69-85.93-69.53-7.55-18.6-22,14.6-34.88,15.39-23.37,16.81-59.49-6.12-50.43,30.34,7.14,49.67-48.54,97.26-95.57,72.26-12.94-.91-29.41-39.46-39.42-26.24-35,91.6-195.31,46.89-136-52.27,2.82-19.6-45.49,3.88-63.29-58.36C13.26,1200,47,1153.17,94.65,1155c11.38-5.88,48.69,21.27,50.16,2.93-16.25-61,47.62-122.62,110.63-105.06,28,3.41,40.33,25.8,57.51,42.67,10.23-6.49,22.25-14.2,35.35-13.16,31.78-.68,51.86,33,37.37,60.19,15.55,10.92,37.1,14.8,49.88,32.7,11.27,12.65,16.89,25.77,17.18,40.13,5.24,20.75,27.35-31.18,77.81-10,5.12.12,7.44-5.86,4.93-9.87-19.53-44.91,31.62-95.76,71.95-90.52,32.13-.19,55.41,30,55.27,61.32,3.3,12.41,16.26-1.48,23.29-1.92,31.32-13.18,72.3.06,90.79,28.52,33,48.33,4.74,113.4-59,114.53-7.25.21-6.24,7.75-4.36,12.53-3,38.74,25.7-5.12,45.34.87,12.14-2.45,20.45,8.1,30.82,9.41,16.57-.28-1-43.34,42.67-45.22,44.21,1.38,45.14,70.91-1.69,69-7.2-.09-25.61-10.74-20.67,5.9,9,44-24.21,38.66,31.36,43.3,5.53,1.31,3.44,8.81,9.53,9,5.22.47,7.39,5.36,9,12.54C864.59,1447.42,853.4,1474.38,826.21,1474ZM579.08,1304.76c15.59-5.17,34.24,20,42.74,8.76,10-40.22,85.73-8,40.44-55.23-22.31-15.71-56.07-14.64-77.88.06C568.38,1265.67,546.77,1313,579.08,1304.76Zm-352.82-5.25c76.7-3.22,72.41-116.4-4.88-115.3C148.06,1191,152.15,1300.78,226.26,1299.51ZM912,1229.86c-80.73,3.66-83.41-104.76-9.43-109.23C968.63,1122.86,976.47,1215.82,912,1229.86Zm-380-140.8c-34.54,3.4-50.2-25.35-58.27-52.43-12.66,1.95-22.06,16.42-38.47,14.58-50.13-11.44-20.07-53.89-35.72-57.92-13.72,5.76-27.25,12.46-41.95,12.82-10.51,3.84-27.07-9.47-33.95.57-13.13,34.78-70.59,35.52-84.38,1.31-11.84-16.2-16.64,29-43.38,24.15-26.54.36-60.46-22.48-56.85-47.1.87-4.07-3-7.12-6.7-7.19-95.57-26.46-50.75-156.44,58.07-121.07C190,808.05,221,765.18,275.07,766c44.76-.58,93.95,42.55,80,92.09-4.07,15.42,10.5,9.11,19.3,8.33,21.89.1,39.37,14.07,54.73,25.48,7.6-4.29,14.79-9,23.25-6.84,41.55,5.81,34.31,73.4-10.18,59.32-48.35,59.35,28.81,8.19,34.55,65,5.74,18.88,26.64-24.54,52.54-18.58C590.35,993.56,593.18,1081.86,532.05,1089.06ZM232.93,910.83c-18.12,3.86-35.36,20.08-40.56,36.31-9.54,9.87,4.83,12.58,11.9,16.12,14.89.53,22.63,48.09,34.24,30.66,12.77-27.78,44.63-28.52,68.23-24.9C323.78,926.42,268.57,903.46,232.93,910.83Zm594.24,82.48c-77.42-8.58-67.51-118.5,5.29-118.46C916.48,880.34,904.64,995.11,827.17,993.31ZM661,916.51c-87-2.13-70.86-134,13.69-112.47C739.1,825.66,724,912,661,916.51ZM74.41,849.27C-4,850.61,16.21,733.93,88.23,758,136.72,780.23,124.57,841.73,74.41,849.27Zm757-75.64c-72.08,2.65-80-110-4.52-115C906.55,653.58,909.85,772.9,831.4,773.63ZM250.8,657c-68.89,6.76-74.21-97.23-6.54-97.9C305,561.69,312.51,645.56,250.8,657Zm-173-152.13C16.93,496.1,25,398.63,88.13,403c28.91,1.53,41.2,17,45.23,36.4C150.61,476.05,114,507.65,77.77,504.89Z"/><path class="cls-7" d="M936.89,1126.22c-23.6-16.51-58.37-12.81-77.1,9.11-4.9,5.74-8.69,4.22-13.94,1.62-12.7-5.45-29.27-15.22-42.66-7.24,5,6.74,16.1,4.37,21.56,9.75,7.4,6.3,26.7-1.32,22.34,19.09-2.85,13.34-9.94,20.53-23.57,22.56a306.61,306.61,0,0,0-37.3,8.18c-3.35.94-4.69,1.83-6.67-1.51-12.63-21.3-32.65-30.49-56.22-32.71-18.71-1.76-36.7,1.11-52.23,12.94-1.6,1.21-2,.78-2.08-1.23-3.69-41.2-21.79-33.64,2.33-51.4,17.87-16.27,40.31-25,61.72-35.33,12.06-6.57,18.41-18.21,24-30.14,8.15-17.31,22.67-30.08,32.89-46,3.79-8.38,5.89-17,19.78-9.93,44.93,22.62,95.34-24.41,87.24-71.45-.08-3.66.66-5.9,4.4-7.61,8.66-3,37.77-23.93,30.84-33.53-2.64-2-4.16,1.11-5.75,3-8,9.52-17.11,18.17-28.77,22.16-10.35,3.54-10.37-8.71-13.86-13.57-11-15.32-42.89-28.05-60.68-22.51-3.63,1.13-9.15,3.44-8.41-5.64,1.09-13.4,1.72-27.18-.22-40.39-2.18-14.87.27-29.61-1.41-44.33-.12-1-1.37-3.48,2.3-2.26,43.23,13.92,86.7-26.4,79.79-70.74-2.42-23.31-23.23-48.31-46.43-52.71-5.45-1-3.71-4-3.55-6.62,0-6.65,5.47-18.25-3.69-20.41-2.86-.36-2.3,3.87-3.46,5.59-4,5.85,5.2,16.55-7.59,19-16.26,4.17-16.21-7-13.52-19.56-1.31-52.89,4.4-105.5,4.11-158.4,0-21.42,2.5-43.23-13.77-61.05-48-66.2-44.87,109.17-50.64,131.71-3.82,40.33-7.15,80.64-11.48,120.91-.32,52.72-1.06,105.18-1.28,158a327.61,327.61,0,0,1-.81,47.11c0,46.87-.18,76.18-41,107.78,0-18.21-.55-36.39.27-54,.33-7.23-4.19-13.67,3.57-22.35,20.81-23.26,23-51.52,5.78-78.71-6.49-10.23-16.1-17.78-17-31.72-2-29.08-2.23-58.1-1.81-87.2-.74-26.08-3.9-52-.23-78.09,2.51-14.46-10.22-34.07-24.86-38.85-6.79-2.21-18.42-5.23-20.37,6.21-3,17.7-7.49,35.18-5.89,53.8,1.65,19.19,4.71,38.46,1.69,58.07-1.82,11.8.53,24.19-.63,36.15-1.32,13.61-3.37,27.12-3.92,40.84,3.34,27.77-16.5,13-30.08,38.59-1.71,3-3.06,9-9.09,8.07-14.32-1.44-30.69-11.76-44.45-3.76,4.82,6.89,22.15,6.23,30.49,9.71,4.55,1.27,13.48,1.61,12.23,6.46-11.33,70.35,42.24,62.87,37.38,91.2-3,25.41,1.43,52.74-3.89,77.61-5.1,16.23-14.38,31-24.4,44.92-11.89,16.57-21.94,35-36.16,49.19-10,10.05-24.33,15.73-31.94,29.29-11.09,19.74-17.6,39.55-6.27,61.44.41,1.85,2.41,5.82-.75,5.47-23.37-8.58-56.49-8.74-72,13.92-2.1-2.07-2.54-4.48-2.6-7-2.64-31.4-30.16-52.08-57.55-63.45-1.83-.74-8.1.37-6.18-4,6-13.5,4.3-25.92-1.74-38.87-10.41-22.3-47.21-31.93-67.31-18-3,2.1-8.43,13.66-14.25,2-7-14-19.49-22.13-31.75-30.49-5.17-3.53-3.54-9.25-5.24-13.87-.8-2.18,1.42-2.06,2.89-2.09,20.23-.14,46.48-6.61,53.47-28.9.51-1.85,1.71-3.26,3.51-3.26,22.8,7.6,44.61,1.7,65.56-7.4,0,1.47.51,3.14,0,4.37-4.56,10.72-1.69,21.17,4.32,29.39,19.81,27.09,40,29.25,66.14,8.49,2.3-1.83,3.37-1.68,4,.23,9.57,75.51,109.68,66.2,109.81-5.3-5.94-52.31-71.43-69.93-101.15-24.68-2.38-24.18-15.3-39.65-40.58-41.65-1.38-.12-12.28,5.81-7.51-3.9,3.18-6.46,3.37-16.65,19-14.58,19.74,2.62,38.52-13.72,34-39.58-1-6,1.37-7.7,4.77-10,12.05-8.27,18-20.76,23-33.75.43-1.12,3.07-6-1.07-7.34-3.6-1.21-5.21,1.2-6.58,4.54-4.9,12-13.94,20.95-22.85,30-1.89,1.92-2.64.61-3.87-.58-17.72-17.19-27.6-18.51-49.42-6.79-20.29-18.62-43.88-30.86-71.09-22.54,20.1-71.34-59-126.88-124.07-97.37,1.77-16.56-.14-32.91-2.28-49.31-1.73-13.28-8.92-25.86-4.68-40,1.25-4.17.47-9,.14-13.54-.1-1.27-2.77-2.61-.93-4,1.05-.8,3.3-.65,4.78-.2,10.53,3.19,20.72,2.35,30.83-1.82,1.52-.62,5.18,0,5.26.44,1.84,10.64,6.51,21,3.08,32.22-4.29,8.46,4,19.11,6.53,8.86,5.1-14.08,2.88-28.18-.56-42.22-.63-2.57-1.74-4.41,1.2-7.1C332.63,609,275.7,526.36,217,561.18c-3.5-21-3.25-42.28-6.27-63-5.19-21.64-9.05-43.36-9.62-65.61,9-75.94-11.1-149.93-19.62-224.81-2.08-24.5-4.34-49-6.15-73.5-1.24-16.68-4.49-29.37-22.17-36.53C124,86,115.59,111.35,118.21,135.17q-.13,23.4-.54,46.8c-.24,14.95,5.17,28.93,7.64,43.41,3.31,39.34,5.23,77.44.23,116.76-2.13,18.18-1.77,36.89-.16,55.18,2,14.81.07,14.78-12.37,6C41.52,368.05-5.62,477.93,68.52,506.92c8.14,3.28,19.74,2.26,10.68,16.46-4,9.84,5.2,13.41,8.18.85,2.12-5.06.79-14,7.05-14.66C111.75,507.7,123.54,498,134.5,486c-4.78,52.8-.26,106.71,6.3,159.49C144,710.9,145,776.41,147,841.87c.12,4-1.08,5.36-5.06,5.12-11.72-.73-21.82,5.34-32.74,8-1.57.38-2.16,4.63-3.94,1.67-10.93-15.06,5.91-13.53,15.23-37.58,4.4-10.16.15-39.76-6.57-48.6-15.7-21.94-48.18-29.89-71.09-14.61-4.36,2.87-8,9.67-13.83,7.51-9.48-4.17-18-10.63-29-11.64-.93-.29-1.79-.25-2.59,1.41-1.55,3.2.74,4.64,2.87,5.71,6,3,12.45,5.12,18,8.73,2.23,1.45,8.45,1.94,6.15,6.48C-1.09,814.69,41,868.75,86.48,852.55c2.19-.68,5-2.82,6.09-.66,2,4,5,10.4,3.37,12.68-35,39.81-21.07,110.18,35.9,116.22,1.45.76,2.28,2.19,1.77,4.93-3.58,19.09,14.72,26.51,18.26,43.8.94,7.83.87,16,1.88,23.83,1.43,11.1,6.28,22.85-.54,34.27-12.36,20.71-17.57,42.88-12.4,66.94.1,2.38.95,7.32-3,6.07C100,1139.1,41.35,1149.79,25,1193.48c-17,45.42,9.9,107.64,63.65,106.31-17.49,27.7-21.82,53.31-2.25,81.51,33.42,50.46,102.7,36.41,136.09-4.34.93-1,.43-6.9,3.61-1.73,17.58,28.65,7.56,73.34,48.78,84.08,31.83,1.28,51.85,14.16,78.51,29.64,34.08,21.43,62.85,50.11,91.06,78.51,10.82,10.42,19.63,23.28,31.41,32.54,6.46,2.59,11.59,1.68,3.79-7.13-42.73-52.47-122.35-132.65-191.16-142-50,.56-33.89-57-59-84.93-.89-1.08,1.87-5.25,3.1-7.91.18-.39,1.32-.34,2-.49.51,5.31,5.32,7.59,8.22,11.08,9.68,11.64,21.1,20.55,36.32,24.75,10.8,3,21.78-.13,32.51,3.45,8.7,2.9,12.25,10.81,18.82,15.49,17.18,12,34.83,23.49,53.67,32.72,53.8,17.94,88,65.78,112.72,114.17,5.38,6.57,21.7,48.86,30.14,42.82,2.08-1.87,2.13-3,.57-5.62-27.76-57.74-57.57-120.93-117.72-151.16-15.42-7.36-31.23-13.88-47.6-24.5,43,5.53,90-29.44,90.84-73.35-.57-4.51-6.55-6.68-6.24-.81-3.65,9.41-6.48,19.29-11.33,28-20.66,41.24-86.51,53.62-116.34,15.65,6.14-3.38,13-6.06,18.36-10.46,5.66-4.84,11.39-9.08,13.51-7.78,9.8,6,18.47,13.91,30.14,16.8,5.84,1.44,24.89-6.79,28-12,14.56-24.51,20.81-53,37.32-76.67,3.37-4.84,3.62-2,4.39,0,7.42,22.42,29.41,31.26,50,37.85-14.89,28.06-41.75,77.25-.15,94.86,10.86,3.94,21.93,7.73,32.07,13.15,20.87,11.14,41.75,21.74,64.18,29.86,18.35,6.64,38.12,9.29,55.34,18.19,22,11.38,44.82,20.54,68,28.94,43.86,14.61,69.16,55.68,109.6,76,1.82,1.41,4.9,3.21,6.33,0,2-3.5-1-5-2.79-6.26-23.1-16.87-43.44-37-65.39-55.17-20.7-19.08-48-25.65-73.69-34.72-23-11.14-45.83-22.56-70.51-29.58-3.32-.94-3.32-1.44-1.44-4,19.21-28,48.1-54.55,44-91.68-6.54-20.64,12-6.12,35-24,.65-.48,1.88-.17,2.84-.23-5.07,22.66-3.71,45,15.52,61.39,17.66,18.38,40.84,19.9,64.55,12.58-7.63,83.78,115.76,54.6,73.81-15.86-2.12-2.78-1.4-3.23.16-4.22,8.46-5.36,14.62-13,20.26-21,1.35-1.92-.24-5.92-.47-9-8.53,1.12-13.59,12.92-20.66,17.78-11.62,13.71-18.23-2.7-44.2,2.21,9.72-23.62-2.63-44.61,5.47-40,43.34,15,72.6-42.92,37.11-69.57-26.64-17.84-64.16-.6-63,34,.06,1.63,1.42,3.89-2.77,1.86-19.16-9.26-38.93-12.94-58.23-.51-10.62,6.84-13.56,4-13.24-7.75.06-2.42-1-4,.66-4.27,10.61,1.25,21.25.19,31-4.12,58.07-22.78,31.79-63.83,61.52-69.85,14.87-2.88,28.32-9.31,40.65-18,3.36-2.36,5.19-4.15,9.45-.24C925.05,1275.22,1004.56,1176.44,936.89,1126.22Zm-373.49-113c17.78,17.91,9,46.83-5.94,61.39-2.68,2.78-5.77,5.88-9.15-1.54-3.2-7-11.75-11.5-15.13-18.46-2.41-17,11.93-35.26,23-47.3C561,1002.08,561.67,1011.19,563.4,1013.23Zm-74.72,4.83c10.06-19,35.81-29.8,58.52-19,8.77,1.23-22.13,20.52-22.46,45.05-.15,1.62-1.32,3.82-4.08,1.34C505.69,1029.33,468.1,1038.74,488.68,1018.06Zm2.82,23.6c22.33,5.53,40.75,21.25,52.28,40.55-28.18,11.37-60.88-10.87-62.24-39.27C481,1035.92,489,1041.12,491.5,1041.66Zm-160.29,47.87c27.7-12.77,66.49,13.38,52.85,44.42-1.19,2.54-11.57,1-17.71.93-14.83-.26-29.08,1.93-43,9.37C333.94,1120,303.9,1097.41,331.21,1089.53Zm-35.71-62.76c-24.27,11.63-73.54-16.47-45.47-42C292.17,943.7,356.71,1003,295.5,1026.77Zm-32.63,21c-24.07-4.15-47.28-4.69-69.72,5.92-10.17,4.16-19.69,9-26.49,18.26-1.23,1.66-2.55-1.42-2.56-2.77a204.9,204.9,0,0,0-4.72-40.79c0-2,2.18-.75,3.12-.27,21.95,16,66.55,14.37,71.28-18.82,6.43,13.28,15.77,20.89,27.47,26.39C263.24,1036.67,262.4,1043.64,262.87,1047.82Zm175.74-66.76c48.56.51,42.92,66.06-2.56,66.13C396.83,1042.38,398.25,979.72,438.61,981.06Zm38.25-59.57c-1.49,15.93-18.73,24.17-32.94,19-.86-.23-.82-3.82-1.19-5.85-1.91-12.94,9.9-5.42,14.12-9.31,5.49-4.7,13.82-6.06,19.44-11C476.5,916.72,477.14,919.16,476.86,921.49Zm-24.79-32.42c7.23.49,21,10,20.81,14.54-4.91,7.73-13.77,9.28-21.05,13.49-11.22,6.47-10.64-2.55-12.68-8.55C434.51,896.31,432.36,886.92,452.07,889.07ZM254.27,652.8c-33.67,7-67.68-30.38-51.59-60.13,26.73,5.54,45.27,30.46,59,52.38C264.82,650,263.6,651.47,254.27,652.8ZM278.56,578a52.85,52.85,0,0,1,11.82,30.85c.94,8.86-16.87,50.19-24.54,27.49-.85-11.78-20.61-22.25-16.6-30,5.72-10.13,11.61-20.18,17.82-30C271.66,569,276.49,575.4,278.56,578ZM259,565.08c3.47.89,2.33,3.71,1.2,4.95-34.88,48.69,1.17,34-54.59,14C219.09,566,236.89,559.45,259,565.08ZM61.13,494.36c-26-14.56-29.25-59.17-5.63-77.17,5.57-4.24,7,2.05,8.53,4.14C76.92,435.59,106.19,524.8,61.13,494.36ZM83.51,436.2c-3.33-9.84-10.89-16.85-16.35-25.33,21.5-10.29,46.8-.75,59.14,15.91,1.63,1.9,2,3.45-1.46,4.7C85.93,443.14,92.49,459.63,83.51,436.2Zm50.15,20c-1,23.33-18,40.41-39.69,44.65-.42-1.65-.84-3.3-1.14-4.46,2.94-12,.14-23.05-1.6-34.25-2.43-8.05,24.3-17.56,30.61-20.8C130.51,437.75,134.08,444.31,133.66,456.16Zm9.61,114.61c-1-39.35-1-78.71,1-118.09,1-8.64-2.57-18.24-5.64-26.86-3.65-10.29-1.8-20.95-3.85-31.13C129,360,148.28,329.77,155.33,297.21c10.87-38.92,9.49-80,1.75-119.56-1.4-8-2.86-16-3.88-24.1-.36-2.85-1.74-2.49-3.64-2.54-2.94-.08-2.77,1.91-2.59,3.71,2.18,22.6,5.52,45.16,6.2,67.8.81,35.29-3.82,68-15.79,101.68-.19-39.95,1.93-72.08-5.49-109.74-3.16-17.87-9.9-35.39-5.44-54.66,5.27-16.1-8-38.92,3.8-52.79,6.14-5.62,13.86-2.69,20.65-.91,14,3.65,15,15.33,16.13,27.17,3.85,25.1,5.39,50.08,6.54,75.22,7.43,70.14,26.83,140.64,18.64,211.4-9.45-23.52-19-48.79-17.21-74.94,1.87-8.62-4.64-5.47-5.85.78-5.76,40,16.44,70.44,23.63,108.5,9.24,32.09,8.18,66.37,14.77,98.66,5.64,26.76-31.53,32.44-10,82.21,7,17.73,27.17,17,22.82,35.38-6,34.45,12.75,68.07,5.73,102.85-.8,5.49-11.56,9.11-16.92,14.43-10.63,10.56-16.67,23.72-20.12,38.41,3.1-69.15-8.29-137.5-15.33-206-3.17-34.77,2-70.12-2.8-104.82-.15-1.22-1.9-2.23-2.91-3.33-.75,1.1-2.14,2.19-2.17,3.32-.63,20.89-1.23,41.78-1.54,62.67-1.28,69.64,14.51,137.67,15,207.16,1,19.09-3.06,39.57,1.81,58.07,7.91,16-6,6.37-7.16,5.39-5.54-4.76-19.37,3.81-18-7.29,1.95-15.67,1.47-31.4.19-46.43C153,720.26,149.69,645.35,143.27,570.77ZM44.93,767c13.14-8.6,26.91-10.36,42-5.17-8.74,9.68-16.79,19.54-22.63,31.31C57.05,779.78,32.75,773,44.93,767Zm31.79,77.82c-67.94,4.79-52.63-88.78-33-59.95,14.64,15,30.16,29.21,41.8,47.19C94.66,846.2,81.31,842,76.72,844.77Zm16.67-14.33c-7.29-24.12-32.47-25.22-16-42.57,4.74-6.81,11-12.55,16.38-18.92,2.16-2.54,4.14-1.68,5.62.09,7.55,9,16.76,17.24,15.62,28.71C117.07,807,101.28,850.1,93.39,830.44Zm41.35,143.75c-51.07-5.34-64.32-69-30.94-102.92,20.4-19.78,57.78-18.91,82.94-8.53,5.76,2.45,11.6.89,10.41-8.3-12-75,85.2-110.9,134.57-61,18.36,16.44,25,38.71,19.44,63.79-.63,4.34-2.91,24.3,6,19.78,12-10.74,26-6.07,39.24-1.36C445.7,892,445.6,961,403.17,985.22c-21.13,14.86-48.24,22-73,12.95-3-1.06-3.67-9.3-5-14.37-.77-3,2.49-2.48,4-3.36,10.11-4.35,60.51-45.3,53.41-55-4.68-3.33-7.6,2.24-9.39,4.75-3.53,7.63-54.23,57-57.74,40.93a229.42,229.42,0,0,0,42.67-62.66c.9-2.08,6.61-7.59,1.31-9.57s-6.68,4.15-9.09,8.32c-10.83,18.74-23.33,36.4-36,54-4,6.48-11.29,5.65-15.63,3.16-6.47-2.84-.21-8.5,1.51-10.54a115.28,115.28,0,0,0,10.32-14.4h0c4.88-7.19,30.32-58.7,20.09-62.3-3.82-.71-4.85,3.37-5.55,5.7a237.38,237.38,0,0,1-19.77,46.69,252.65,252.65,0,0,1-20.5,31.22c-3.55,4.64-10,.18-16.58,6,15.44-22,22.64-42.93,30.13-66.51,3.38-10.69,6.09-22.35,4.86-34.18-.22-2.19,1.81-4.6,1.64-6.81-.25-3.21,2.53-8.49-3-9-4.78-.48-4.37,5.51-4.6,7.88-2.84,30.92-24.3,104.24-52.52,119,18.19-38.65,29.1-80.86,26.29-123.77,0-3.93-.07-9.72-3.65-9.73-4.49,0-5.24,6.08-5,10,2.85,43.61-8.16,83.36-27.41,122.77-1.38-20.84,5.25-104.25-11.3-111.29-3.42,13.63,3.1,27.75,3,41.62.89,23.56-.16,47,.18,70.66-10.91-6.52-7.74-17.92-9.53-26.86-2.23-11.1-4.94-21.93-8.19-32.66q-2.11-7-4.56-14c-3-8.46-9.79-14.51-11.82-23.27-.76-3.26-4.39-1.69-6.52-1.4-2.6.35-1.75,3.38-1.14,4.5,12.07,23.45,20.38,50.15,25,75.78-31.9-3.33-18.14-37.9-61-69.65-4.18-2-6,4.65-3.1,7,16.69,15.44,26.17,35.57,35.76,55.47-18.29,6.85-19.59-23.85-48.94-38.82-4.77-2.65-8.16,4.82-3.58,7.37,8.25,8,16.8,15.76,24.44,24.33,4,4.43,11.71,10.32-.68,15.17C145.68,963.17,143.19,975.51,134.74,974.19Zm16.77,34c-29.54-33.37,22.42-58.56,50.8-41.48,30.68,18,29.82,62.84-9.59,61.21C176.6,1026.12,162.3,1020.35,151.51,1008.23Zm281.42,296.64c-11.26,17.27-18.09,36.9-26,55.9-7.2,17.28-22.88,19.56-39.65,11.72-29.12-13.17,12.27-27.34-3-76.77-1.52-5,1.2-2.53,2.17-2.43,26.81,2.25,57.57-6.74,75.22-27.49C449,1281,441,1292.5,432.93,1304.87Zm12.8-69.31c-10.56,40.48-54.67,55.75-92.3,47.45-2-.45-5-2-6.07,1s1.88,5.1,3.86,6c9.34,4.45,7.38,14.16,7.95,20.82,4.95,48.59-42.94,90.84-89.67,68.41-25.1-10.21-38.09-56-42.88-29.65-18.18,59.84-116.09,77.64-139.52,12.7-12.08-29.5,4.84-45.9,15.72-69.33-3.53-3.92-10.54-1.38-15.34-2-45.83,3.25-72.28-63.51-50.36-99.88,20.81-40.59,74-36.63,108.68-18,4.25,0,6.61-5.8,5-9.13-33.56-127,169.23-154.89,164.34-20.1-1.17,9.22-1.11,17.7,12.95,9.56C378.93,1127.87,465.09,1172.61,445.73,1235.56ZM874.54,1133c20.73-12.26,40.79-10.72,59.49,2.65a123.57,123.57,0,0,0-24.95,36.21c-2.81,6.26-2.76,12.45-10.44,2.35C889,1157.44,846.26,1147.47,874.54,1133ZM834.36,979c-2.62,18.43-13.73,6.77-20.85,5.84-21.8-2.87-38-30.3-36.71-46.1-1-9.88,6.63-46.07,17.08-38C820.16,919.9,832.75,946.64,834.36,979Zm50.86-56.86c3.95-.53-.17,7.77,1.67,10.57,5.38,37.23-47.34,64.11-45.63,50.78,8.89-15.83-11.24-35.42,7.22-45.05C859.64,930.9,871.77,923.93,885.22,922.12ZM865.29,890A77.67,77.67,0,0,1,880,905.4c9.44,13-5.78,9.52-9.31,11.07-12.86,5.63-24.78,12.13-34.93,22.75a100.78,100.78,0,0,0-37.48-46.59c-3-2,.35-3.58,1.63-4.39C818.35,876.66,845.23,874.21,865.29,890ZM843,665.14c.3-1.74.5-2.18,2.42-1.5,36.71,10.82,48.57,47.78,33,80.5-.62,3-4.77,1.24-6.66-.19C845.28,723.92,837.54,697,843,665.14Zm-5,51c5.39,17.66,18.7,27.51,32.38,36.62-16.76,20.35-46.27,20.6-69.15,9.32C818.45,750.88,831,736.4,838,716.17Zm-12.4-53.46c12.46-.57,9,7.26,6.88,11.55-3,6-.46,11.19-.19,16.5,1.3,26-12.42,44.17-30.65,59.76-13.23,12.66-21.42-11.63-23.76-25.1C769.86,695.55,796.93,664,825.63,662.71ZM712.77,853.56c-.42,20.2-5.91,33.75-17.74,44.52-3.93,3.57-5.83,2.57-9-1.93-14.84-27.56-37.79-22.06-24.69-47.15,5.23-11,11.92-21.24,18.16-31.71,2.74-4.59,6.2-5.15,10.65-1.61C703.79,826.55,711.85,840.27,712.77,853.56ZM647.4,769.29c1.07-28.93,6.6-58.39,5.25-87.21-3.16-28.75-6.46-57.62,2.6-85.63.3-1.36,1.46-2.43,3.82-2C676.61,597.5,686.23,612,684.16,630c-1.51,13.17-.07,26.43,1.14,39.78,2.4,19-1.21,37.83-.56,57.59-14.83-26-4.2-88.38-16-91a5.83,5.83,0,0,0-3.88,6.16c.73,12.86,1.7,25.71,2,38.58,1.34,36.11,18.15,69,19.89,105.08,2.27,22.24-10.11,9.2-23.66,9.29-5.2-.85-14.88-.18-15.1-1.45C646.61,786,646.9,777.54,647.4,769.29Zm-31.67,58c12-17.33,36.09-25.86,57.95-19.37-7.51,14.72-19.21,27.25-22.75,44.21-1.64,6.31-1.91,6.19-13.87-1.83-6.46-4.34-12.68-9.24-19.64-12.55C610.63,834.52,612.25,831.47,615.73,827.28Zm-7.92,46.4c-3.68-9.81-2.5-19.52-.66-28.91.48-2.93,2-1.11,3.18-.46,26.71,15,50.39,33.68,70.16,57.13,6.43,7.62-3.07,8.32-5.68,9.09C647.46,918.64,615.66,900.9,607.81,873.68Zm-2.95,201.45c20.14-13,27.85,3.69,43.36,1.54,2.88-5.65-6.87-7.7-10.38-9.81-8.55-4.62-17.28-5.33-26.93-1.42,39.23-49.48,31.36-83.81,32.57-142.11-.09-4.42,9.84-.63,12.88-.9.32.05.75,2.25.43,3.2-4.11,12-.9,24.23-1.74,36.32a105.6,105.6,0,0,0,0,12.58c.14,2.94-1.43,8,2.42,8,10,1.05,4.52-42.61,5.51-50.85-.22-6.72,3.39-10.13,8.77-10.36,8-.34,13.62-5.33,20.52-7.86,4.16,12.8-.16,26.33,2.48,39.55,1.79,9,2.87,18.69,1.48,27.87-1.21,7.94-10.58,11.4-15.46,17.66-3.49,4.48-12.08,6.82-8.78,13.6.94,1.93,8.48-5.2,12.65-8.4,33.07-24,67.5-54.73,66.44-99.06,7.77-68.56-6.91-139.63,10-206.84,12.51-52.83,35.53-103,36.78-158.36.64-15.06.08-29.51-2.73-44.09-.16-.87-1.22-1.57-1.86-2.35-.84.93-2.42,1.89-2.4,2.79.24,7.77-1.57,15.22-.59,23.4,1.53,12.68-2.62,25.93-2.74,39-2.62,43.61-22.06,83.25-32.4,125.18,1.37-48.51,6.54-96.48,11.78-144.81,5-42.09-.07-86.61,16.42-126.45,2.17-4.15,5.88-7.29,10-1.38,7.05,10,19.24,17.31,19.55,31,1.1,65.56-.35,131.59-5.72,196.63-1.17,4.76,3,9.11,1.28,14.69-2.7,8.66-11.37,9-16.86,13.35-32.57,25-30.57,80.22,4.13,101.33,14.65,9.4,8.71,21.38,9.84,32.26,1.82,17.55.53,35.41,1.93,53,1.25,15.7-3.85,26.64-17.38,31.76-4.24-.13,1.21-7.37.35-9.94,0-16.13,4-32.08,2-48.29-1.18-9.52-2.34-19-3.31-28.6-.26-2.56-.63-4.81-3.63-5-3.76-.19-2.54,2.89-2.49,4.7.39,15.08,1.33,30.3,1.08,45.19-.21,12.68-2.22,26-4.05,39-2.59,18.36-13.18,34.6-11.63,54.08-1,19.29-25,29.12-34.4,44.63-3.06,4.54,1.44,9.55,4.86,3.67,54.7-44.49,13.81-38.28,51.24-3.35,4.3,3.64,2.64,6.85.16,9.88-13.88,17.11-28,34.5-40.7,52-1.19-5.31-10.79-34.62-16.45-33.08-3.69,3.28-2.47,7.47-1.45,11.37,15.16,18.81,10,53.1-18.89,58.7-13.55,2.53-25.92,12.26-37.12,21.46-7,5.78-13.65,12.07-20.25,18.33-2.86,2.71-3.5-.64-4.21-1.56-14.36-18.74-46-21.09-66.59-17.13C591.5,1091.69,596.49,1081,604.86,1075.13ZM503,1422.47c-13.16-3.24-14.24-13.74-17.16-26.22,6.4-15.47,14.25-32,20-49.17,4.51-13.68,15.43-7.54,24.69-10.78,3.7,22.79,13.51,40,39.38,39.36,8.41,0,2.33,7.16.71,9.71-7.6,13.51-18.14,24.83-28,36.75C527.74,1440.05,516.17,1425.73,503,1422.47Zm103.3-65.89c-13,11.47-43.08,16-57.46,2.68-6.29-5.83-7.11-13.36-7.83-19.53,0-21.71,14.2-27.08,30.08-30.25C599.52,1302.74,635.73,1330.53,606.26,1356.58Zm20,90.44a104.35,104.35,0,0,0-12.07,17.4c-3.24,6.11-7.46,4.87-12.38,3.61-20.29-5.21-2-14.15.13-16.19,13.65-13.07,46-58.25,28.47-74.84-1.12,1-3.19,2.06-3.23,3.15-1.07,28.41-20.25,47.3-34.63,69.15-14.21,22.16-33.69-3.36-49.8-8-5-2-3-3.32-.92-5.2,14.38-13.21,27.9-27.12,36.34-45.09,3.2-15.17,2.79-16,18.49-19.46,22.81-7,15.41-26.41,43.19-12.07a55.37,55.37,0,0,0,14.67,4.31c3.19.39,4.59,1.28,4.26,4.61C659.59,1398.13,646.91,1423.4,626.22,1447Zm79.93-110.46c-17,21.25-56.84,26.92-77.9,4.49-12.09-17.36.24-41.9,20.6-46.53,13.25-3,25.89-5.6,37.93.48C710,1306.71,714.27,1326.94,706.15,1336.56ZM724,1408.19c-2-1.79-15-10.29,1.83-13.83,8.74-2.08,16.68-11.16,24.57-16.37,17,3.2,32.22,9,45.38,19.07,7.75,6-.81,10.52-3.54,12.74C772.57,1425.78,743.8,1426.39,724,1408.19Zm127.8,47.88c-13.36,22-50.45,17.62-56.76-8.25-.89-3.19,6-5.9,14.78-5.58,14.11-.1,27.88,2.19,41.43,5.79C858.64,1450,853.23,1453.59,851.79,1456.07Zm-4.33-39.32c7.12-2.9,7.69,7.22,9.21,12.09,2.79,9-.8,14.32-10.49,9.74-7.26-3.43-14.49-4-26.15-3.24C832.75,1429.6,838.75,1420.3,847.46,1416.75Zm-7.5-9.69c7.88,5.92-37.32,28.72-43.7,27.88-.18-.06-2.92-.66-2.89-1C794.82,1411,819.56,1399,840,1407.06Zm-7.3-118c40.74,4.24,38.75,61.3-2.23,61C791.16,1344.41,792.47,1291.52,832.66,1289.08Zm-38.41,50.85c12.85,9.15,17.2,38.72,9.91,52.82-11.79-11.19-26.58-16.62-41.5-21.74-1.78-.61-3.83-.32-1.24-2.63C786.68,1347.64,781.79,1322.93,794.25,1339.93Zm-30.74-14.81c10.77.62,20.14,4.45,10.36,13.75-15.13,21.42-34.34,38.49-57.92,50.3-6.62,3.32-5-3.33-5.42-5.67C708.88,1350.68,730.92,1321.76,763.51,1325.12Zm-11.93-30c-10.9,4.44-22.14,6.61-33.53,8.33-8,0-10.51-7.91-16-11.36,11.72-14,23-28.82,30.68-45.67,1.07-2.08,5.2-5.82,1-8.13-4-2.21-6.31,2.44-8,5-8.72,13.25-17.05,26.72-29,37.49-2.91,2.63-3.73,9-9.08,3.54,6.32-7,28.42-65.39,19.87-69.63-2-.35-3.72.19-4.81,3.64-6.36,20.11-12.4,41.12-22.2,59.88-1.76,2.43-4.31,3.79-9.22,2.82-10-2-1.64-8.22-1.26-10,.56-2.63,1.13-5.25,1.69-7.88,1.54-8.93,12.08-53.56,1.59-56-2.83.16-4.21,2.24-4.35,5.35-1.07,23.13-6.8,45.35-13,67.5-2,7-9.09,6.63-13.32,6.3-3.67-.28-.47-6.09.11-9.18a200.39,200.39,0,0,0,3.35-31.15c-.12-11.25,0-50-7.44-56.69-1.8,3.4-5.64,7.19-5.07,10.12a169.3,169.3,0,0,1,3,44.52c-1.24,15-3.75,30-5.62,44.95,1,5.19-3.94,7.62-6.76,11.18-4.48-15.21-6.5-112.66-22.93-108.32-3.64.81-1.5,4.29-.61,7.31,4.48,15.2,5.84,30.84,6.54,46.68-.68,12.45,11.11,56.24,3.51,63-6.57-3.31-13.12-5.85-12.8-15.76.6-18.77-4.75-36.84-9.27-54.86-2-8.1-3.4-16.62-8.67-23.53-2.88-6.5-9-3-6.88,3.21a519.82,519.82,0,0,1,15.64,79.64c0,1.12,3.94,2.94.09,3.36-2.55.28-5.94,1.79-7.74-2.29a310,310,0,0,0-14-28.31,153.34,153.34,0,0,0-21.87-30.1c-4.08-3-4.86-14.88-11.68-11-2.5,1.73-1.57,3.77-.49,5.5,13.44,21.92,28,42.92,39.8,65.84-13.7,4.94-13-8.8-19.68-14.72-14.15-11.24-27-24.09-40.54-36.12-1.3-1.16-3.59-1.2-5.42-1.76-.46,2.48-1.85,5,.52,7.31,5.55,7.49,51.11,45.57,45.58,49.87-3.72,5.41-9.46,5.53-14.67.2-10.39-10.62-24-16.42-36.57-23.76-4.08-2.22-8.26,6.34-.38,9.12,12.15,6.41,23.75,13.44,33.32,23.47.87.91,2.46,1.14,3.1,1.42-4.18,18.82-18.45,16.51-32,14.5-45-3.33-64.24-55.2-47.56-93.83,10-26.5,32.92-35.52,59.9-29.4,7.06,1.61,14.13,4.58,22.2,2.84,15.32-1.2-22.34-23.77,5.37-69,14-22.11,34-29.27,57.44-31.34,39.5-3.42,59.75,38.33,55.48,72.93-.69,6.49,6.74,5.08,8.4.83,9-19,43.62-21.11,62.43-18.29C786,1178,813.73,1264.81,751.58,1295.16Zm93.24-81.07c-9.12,6.54-21.2,7-29.51,14.19-6.63-3.28-15.87,8.22-19.63.65-1.24-10.47-4.46-20.33-8-30.15-.08-.21,5.15-3,8.1-3.58,15.45-3.19,32-2,45.86-11.69,2.61-1.83,2.36,2,2.85,3.26,2.66,6.88,4.2,14.06,7.69,20.8C854.54,1212.21,847.51,1212.17,844.82,1214.09Zm60.48,11.05c-28.61.89-52.64-20.26-51.92-49-.8-8.63-1.49-17.2,3.69-19.9,4.46-2.34,9.62,5.27,14.6,8.25,21,12.55,34.68,31,43.83,53C920.44,1229.35,908.67,1225.13,905.3,1225.14Zm21-4.76c-1.89,4.51-6.16-18-9.65-21-10.33-12.59.27-22.08,5-31.81,3.95-8.09,10.35-15,15.9-22.27,2-2.68,3.54-3.12,6.28.65C961.78,1171.09,952.7,1205.94,926.32,1220.38ZM776.68,1598.86c-4.42,7.4-24.35-10-33.8-11.56-16.73-5.9-31.32-14.35-42.72-28.11-9-10.87-16.2-23.23-27.08-32.6-8.56-5.91-6.42-3.3-10-13.12,32.81,12.17,44.49,54.61,80.58,63.84,10.75,3.51,20.49,10.23,30.51,15.83C775.84,1594.08,778.08,1596,776.68,1598.86Zm-135.85-7.35c.69,1,.88,2.42,1.46,4.09-2.62,8.36-8.47.89-10.47-3q-22.85-32.22-44.94-65c-8.27-12.24-16.68-24.28-27.34-34.61-2-1.9-3.94-4.35-2.15-7.16C579.64,1488.1,624.38,1569.84,640.83,1591.51Zm-30.77,1c1.35,1.13,3.47,1.34,5.47,2.07-4.32,6.5-6.77,6.93-11.85,3.2-13.18-10-26.19-20.23-39.29-30.36-38.87-31.31-66.42-73.66-98.33-111.5-1.66-2.06-1.36-3.9.11-5.85,2.13-2.83,3.17.27,4.14,1,34.23,26.73,53.38,67.43,86,95.79C573.7,1562.67,592,1577.43,610.06,1592.52ZM325.14,1211c-24.23,4.28-44.32,8.53-68.93,15.1,13.62-9.84,25.33-17.89,37.88-27.57,3.22-2.5,9.85-5.57,6.45-10.46-3.07-4.42-7.12,1.19-10.16,3.21-13.39,8.89-26.14,17.85-39.61,27.11,10.48-23,25.22-42.78,37.6-64.68.67-1.13.05-3,0-4.59-8.09-.74-25.61,33-31.54,40.78q-7.2,11.74-13.67,23.94c-.83,1.57-.5,3.88-3.09,2.87-.52-.2-.62-2.52-.3-3.7,5-18.25,10.13-36.47,15-54.74,2.58-6.07-4.29-9.19-7.18-3.21-7,20-11.48,40.4-17.69,61-2.18-12.41-3.53-23-4.87-35.08-2.35-9.14-1-37.78-9.24-41.12-3.71.56-3.2,4.59-2.9,7.62,2.38,23.9,4.73,47,7.22,71.38-8.62-17.89-16.37-33.75-24.49-51-19.9-17.51,11.2,44.46,13.31,48.31.61,1.24,3.34,2.08,1.17,3.73-.55.42-2.93-1-4.09-2q-11.62-10.07-23.21-20.16c-4.17-2.21-24.47-25-26.47-19.62-5,7.94,16.63,19.38,21.19,25.26a136,136,0,0,0,26.59,23.29c-1.55,1.78-3.1,2.64-6.79.5-13.54-7.8-27.5-14.91-41.35-22.16-1.54-.81-3-4.27-5.27-.07-2,3.75,0,6,2.24,7.25,13.1,7.45,26.41,14.52,39.65,21.72-.06.51-.12,1-.17,1.52-22.31-4.76-44.61-9.65-67-13.92-3.22-.08-8.6,6.27-2.33,7.72,22.78,6.48,47.6,9.66,69.61,17-17.88,7-36.79,11.25-55,17.37-19.38,18.29,53.74-7.83,59.56-9-18.23,14.55-36,28.29-53.48,42.93-4.21,3.53-12.27,8-10.09,12.78,2.53,5.51,7.45-1.75,11.34-3.25,10.44-8.82,21.57-17.41,32.39-25.92,8.47-5.7,15.54-14.35,25-18.09-.18,1.33.06,2.94-.61,3.93-5.23,7.7-10.21,15.54-14.81,23.58-1.79,4.81-17.82,28-11.61,30.1,3.18,1.35,4.47-1.31,5.84-3.56,10.48-17.18,20-32.68,31-50.72-4.78,14.22-5.28,21.17-7.51,33.88-3.28,16.09-8.46,31.75-13.33,47.4-.74,3.56-1.91,8.63,4,7.14,4.07-1,4.43-6.6,5.63-10.6,8.48-23.71,12.21-48.74,19.13-72.85.89,1.09,2.42,2.11,2.56,3.29,2.15,17.35,4.1,34.72,6.13,52.09.21,1.79-.86,4.16,2.42,4.49,9.86.16,3.86-13.39,4.6-19.37-1-14.69-1.92-28-3-43.74,13.46,23.77,18.08,46.54,29.83,70.06,4.31,8.22,12.41,2.07,6.1-4-11-23.08-15.42-44.57-26.75-69.5,12.12,16.75,26.58,27.43,40.28,41.39,3.35,3.85,9.45-2.05,5.07-5.41-13.55-14.1-27.21-28.06-40.32-42.56,6-2.79,8.66,3.32,13,5a113.39,113.39,0,0,1,19.58,6.81c7.81,1.88,42.88,25,45.71,20.5,3.76-9.36-34.95-23.48-42.48-28.21-8.21-3.82-16.5-7.47-24.78-11.15-2-.89-5.52-1.12-4.88-4.26.61-3,4-1.75,5.58-1.3,15.55,4.4,31.58,2.38,47.4,3.57,2.12.16,4.42-2.07,6.64-3.2-4.29-8.63-41.6-3.28-54-9.2,21.25-10.15,45.31-10.22,66.83-19.22C330.78,1216.6,330.05,1209.44,325.14,1211Zm-83.65,30.83c-.85,10-6,17.74-18.14,19.68-7.43-3.43-16.63-6.85-16.95-16.7-.33-10.51,6-18.92,17.25-19.44C233.93,1224.89,242.5,1229.73,241.49,1241.82Z"/></g></g><g id="Red_Japanese_Frames" data-name="Red Japanese Frames"><path class="cls-7" d="M0,20V1580a20,20,0,0,0,20,20H956a20,20,0,0,0,20-20V20A20,20,0,0,0,956,0H20A20,20,0,0,0,0,20ZM924,1548H52V52H924Z"/><path class="cls-8" d="M952.1,15.41,928.69,38.83A4,4,0,0,1,925.86,40H50.14a4,4,0,0,1-2.83-1.17L23.9,15.41A2,2,0,0,1,25.31,12H950.69A2,2,0,0,1,952.1,15.41ZM40,1549.86V50.14a4,4,0,0,0-1.17-2.83L15.41,23.9A2,2,0,0,0,12,25.31V1574.69a2,2,0,0,0,3.41,1.41l23.42-23.41A4,4,0,0,0,40,1549.86ZM936,50.14V1549.86a4,4,0,0,0,1.17,2.83l23.42,23.41a2,2,0,0,0,3.41-1.41V25.31a2,2,0,0,0-3.41-1.41L937.17,47.31A4,4,0,0,0,936,50.14ZM925.86,1560H50.14a4,4,0,0,0-2.83,1.17l-20,20a4,4,0,0,0,2.83,6.83H950.69a2,2,0,0,0,1.41-3.41l-23.41-23.42A4,4,0,0,0,925.86,1560Z"/></g></svg>