<svg id="Card" xmlns="http://www.w3.org/2000/svg" viewBox="0 0 1024 1680"><defs><style>.cls-1{fill:#f2f0ed;}.cls-2{fill:#8c1707;}.cls-3{fill:#16592d;}.cls-4{fill:#d82e21;}</style></defs><rect class="cls-1" x="14.5" y="14.5" width="995" height="1651"/><polygon class="cls-2" points="966 1619.17 966 60.83 1018 8.83 1018 1671.17 966 1619.17"/><polygon class="cls-2" points="60.83 58 8.83 6 1015.17 6 963.17 58 60.83 58"/><polygon class="cls-2" points="8.83 1674 60.83 1622 963.17 1622 1015.17 1674 8.83 1674"/><path class="cls-3" d="M868.31,1257.54a6.68,6.68,0,0,1-4.76-2.31c-4.07-4.11-8.26-8.17-12.31-12.1-14.84-14.39-30.19-29.27-41.2-47.61a15.24,15.24,0,0,0-1.24-1.57c-1.94-2.27-4.85-5.68-3.59-9,.95-2.51,3.79-4,8.93-4.75,5.59-.79,11.44-7.5,13.1-9.53,8.6-10.56,12.47-23.35,16.64-39l1.35-5.06,2.36,4.68c4.91,9.69,6.18,19.57,7.41,29.13.51,4,1,8.14,1.84,12.1a6.34,6.34,0,0,1-1,4.19c-1.29,2.13-2.64,4.27-4,6.34l-1.32-.71,1.26.8c-2.88,4.56-5.86,9.27-8.28,14.11-.18.34-.4.74-.65,1.16-1.88,3.28-1.56,3.85-.85,4.35a2.22,2.22,0,0,0,1.16.46c1.18,0,2.49-2.2,3.19-3.38l.36-.59a56.78,56.78,0,0,0,4.43-9.83c.67-1.78,1.35-3.61,2.12-5.38a12.57,12.57,0,0,1,2-2.94c.29-.35.54-.66.78-1l1.52-2.06,1.63,2,.29.3a4.43,4.43,0,0,1,1.34,2c.73,2.91,1.44,5.81,2.15,8.71l0,.14c1.24,5.1,2.53,10.36,3.94,15.48.92,3.35,1.95,5.29,3.52,6.44h0a14.19,14.19,0,0,0,.45-4.66,221.71,221.71,0,0,0-5.75-24.59c-3.39-12.36-6.9-25.14-6.94-38.46v-4l3.22,2.45c2.22,1.68,4.47,3.41,6.73,5.15,5.85,4.51,11.9,9.17,18.14,13.5l.74.52c1.54,1.1,3.29,2.34,4.79,2.34a3.15,3.15,0,0,0,2.25-1.06l-.54-.44a61.16,61.16,0,0,1-4.64-4.08c-3.79-3.7-8.71-6.68-13.46-9.57-11-6.64-23.34-14.16-23.44-32.17,0-3.77,8.46-18.64,13.54-23.75,1.54-1.54,2.81-2.26,4-2.26a3,3,0,0,1,1.31.31,77.84,77.84,0,0,0,7.46,3.2c6.21,2.41,12.64,4.9,17,10.8A425.24,425.24,0,0,1,927,1156.7l.06.11c1.41,2.6,3.33,6.16,6.59,6.16h.37a8.53,8.53,0,0,0,.52-1.77,4.48,4.48,0,0,0,.07-.73c-4.9-6.28-8.6-13.34-12.19-20.17-4.42-8.42-9-17.12-15.72-24.08a5.47,5.47,0,0,1-1.25-3,8.18,8.18,0,0,0-.16-.83l-.78-2.7,2.82.16H908l.62,0a4.39,4.39,0,0,1,2.07.45c19.09,10.27,34.92,19,50.46,29.41l.88.59v50.61l-1.44.42a54.39,54.39,0,0,0-6.31,2.27l-1.89.81c-10.36,4.5-21.08,9.14-32.32,9.14a37.19,37.19,0,0,1-9.19-1.13,21.34,21.34,0,0,0-5.17-.8c-4.1,0-4.42,2.31-4.74,9v.34a6.56,6.56,0,0,1-.64,2.29c-.09.21-.16.38-.22.54-4,11.54-11.27,21-18.29,30.21-2.21,2.9-4.5,5.89-6.64,8.89-2.3,3.23-4.47,4.73-6.82,4.73Z"/><path class="cls-3" d="M958.92,1133.33c-3.53-2.27-7.14-4.54-10.63-6.74l-3.48-2.19a9.49,9.49,0,0,1-2.3-2.25c-.25-.3-.48-.58-.72-.84l-1.73-1.85,2.2-1.26a2.22,2.22,0,0,0,.27-.19,3.62,3.62,0,0,1,2.16-.89h.19a34.62,34.62,0,0,0,4,.21c2,0,4-.12,6-.24,1.67-.1,3.35-.2,5.05-.24l2,0v18.51Z"/><path class="cls-3" d="M935.78,1114.35a21.87,21.87,0,0,1-7.53-1.13c-10.62-3.78-21-8.58-31.06-13.22l-.12,0c-3.76-1.73-7.64-3.53-11.47-5.23-.93-.42-2-.78-3-1.13-3.12-1.07-6.65-2.28-7.78-5.51-.86-2.47,0-5.61,2.51-9.58,7.88-12.28,6.26-29.73-3.68-39.72l-2.44-2.46,3.35-.88a25.54,25.54,0,0,0,2.53-.88,14.46,14.46,0,0,1,5-1.3,5.55,5.55,0,0,1,1.7.26c7.14,2.31,14.18,5.18,21,8,1.56.64,3.12,1.28,4.69,1.9.61.25,1.23.57,1.84.88a9.56,9.56,0,0,0,2.68,1.08,1.78,1.78,0,0,0,.08-.18,1.5,1.5,0,0,0-.14-1.3,7.33,7.33,0,0,0-4.37-3.12c-5.53-1.68-11.07-3.66-16.93-5.76-2.61-.93-5.31-1.89-8.17-2.89l-6.67-2.33,6.9-1.51c7.4-1.63,12.82-5,18.06-8.29,2.55-1.59,4.94-3.09,7.53-4.39a1,1,0,0,0,0-.1,3.7,3.7,0,0,0-1.1-.45c-8.49.81-15.71,5.28-22.7,9.59-3.17,2-6.45,4-9.87,5.7a12.46,12.46,0,0,0-1.46,1c-1.39,1-2.81,2-4.37,2a3.41,3.41,0,0,1-3.19-2.28,102.91,102.91,0,0,0-4.62-9.29c-3.68-6.81-7.48-13.85-7.76-22.23-.16-.2-.46-.5-.64-.68-1-1-2.42-2.43-1.92-4.37s2.77-2.91,4.69-3.48a78.41,78.41,0,0,1,22.49-3.14c8.16,0,16.78,1,28,3.37,8.53,1.79,16.57,4.87,24.34,7.84l4.32,1.65c3.28,1.23,10.89,5.25,12.12,9.16a3.66,3.66,0,0,1-.45,3.23l-2,2.92-.28.39c-4.78,6.81-9.72,13.85-12.27,21.64a32,32,0,0,1-1.57,3.71c-1.32,2.8-2.8,5.95-1.9,8.1.54,1.32,2,2.38,4.39,3.24a93.51,93.51,0,0,1,20.08,10.13,72.64,72.64,0,0,1,6.66,4.9l.72.6v44.67l-3,0c-2.08,0-4.22.07-6.28.13-1.33,0-2.66.09-4,.11-1.91,0-3.94.23-5.91.41C940.5,1114.13,938.11,1114.35,935.78,1114.35Z"/><path class="cls-3" d="M806.6,1587.73c-2.81,0-5.65,0-8.44-.1s-5.71-.11-8.57-.14c-11.47-.15-23.34-.3-35-2.67-19.28-3.93-39.76-9.16-58.88-20.72a110.29,110.29,0,0,1-14.82-11.4c-6.6-5.7-13.43-11.6-21.89-14.65a4.3,4.3,0,0,0-1.49-.28c-1.41,0-2.72.83-4.11,1.71a22.13,22.13,0,0,1-2.47,1.4c-12.36,5.65-25.37,5.8-37.94,5.95-3.8,0-7.7.09-11.49.29-4.26.22-8.65.28-12.9.33-13.81.18-28.08.37-39.89,6.16-4,2-7.35,2.93-10.16,2.93-7.14,0-9.35-6.07-11.13-11a31.78,31.78,0,0,0-2.24-5.19c-15.14-25.37-22.59-54.12-22.78-87.9-.1-15.67,3.48-31.16,6.95-46.14l.69-3c2.72-11.78,7.41-23.37,14.75-36.48,3-5.31,8.45-5.51,12.06-5.64,19.63-.7,30.15-8.32,36.31-26.32a6,6,0,0,1,.86-1.53l.25-.37,1.16-1.84,1.74,1.32c.25.19.54.36.83.54a6.14,6.14,0,0,1,2.67,2.48c5.8,12,14.73,19.37,26.54,21.91a66,66,0,0,0,13.89,1.93,25.39,25.39,0,0,0,10.33-2l5.49-2.4-3,5.21c-7.45,13.18-19.52,20.62-31.19,27.83-4.43,2.73-9,5.55-13.21,8.62-10.27,7.52-21.88,16.62-29.7,29.65a94.84,94.84,0,0,1-6.93,9.58,88.92,88.92,0,0,0-7.3,10.2c-.69,1.19-.6,1.39.27,2.58l.08.1.33-.3c.24-.22.47-.43.71-.62,5.7-4.54,9.94-10.6,14-16.46a100.08,100.08,0,0,1,10.72-13.6l.75-.76c9.08-9.15,18.46-18.6,32.19-24.74l6.25-2.79-3.76,5.72a454.77,454.77,0,0,0-27.35,47.25c-5,10-8.85,20.51-12.57,30.68-1.15,3.15-2.3,6.29-3.48,9.43a48.47,48.47,0,0,0-2.22,11.19c-.22,1.79-.44,3.62-.74,5.4,0,.07,0,.13,0,.18a3.17,3.17,0,0,0,.53,0h.2c1.82-.07,2.4-1.22,3.37-4l.12-.34c1.12-3.18,2-6.51,2.82-9.74a105.22,105.22,0,0,1,3.78-12.41c5.22-13.15,11.4-26.58,18.87-41l2.44-4.71,1.28,5.15c3.49,14,3.41,28.91-.25,46.85-.3,1.44-.61,2.87-.93,4.31-1.31,5.94-2.67,12.09-2.25,18.23l.07.11c2.36-.53,3.13-3,3.86-6.06,3.85-16.13,7.81-34.93,6-54a43.12,43.12,0,0,0-1.75-7.71c-1.72-5.92-3.67-12.62.65-19,6.92-10.3,14.56-20.33,21.95-30,2.45-3.23,4.9-6.44,7.32-9.66,4.94-6.58,10.09-13.08,15.07-19.36.67-.84,1.78-2.25,3.55-2.25s2.89,1.25,3.76,2.34c3.37,4.24,7,8.41,10.43,12.44,3.68,4.28,7.46,8.68,11,13.18,4.32,5.48,2.59,11.09,1.06,16a26.41,26.41,0,0,0-1.5,6.84c-.16,6.44-1.5,12.85-2.79,19a134.6,134.6,0,0,0-2.47,14.31c-1.38,14.13-1.72,28.44-2,42.28-.07,3.22.88,6.68,1.8,10,.14.49.27,1,.4,1.47a5.27,5.27,0,0,0,.7.54,4.88,4.88,0,0,0,1-1.82c.3-5.14.28-10.41.26-15.5,0-9.11-.06-18.5,1.66-27.86,2-10.79,3.24-21.91,4.45-32.67.59-5.26,1.19-10.62,1.87-15.89a6,6,0,0,1,2.29-3.69,2.37,2.37,0,0,1,1.47-.47,4.75,4.75,0,0,1,3.33,1.59c4.88,6.41,9.94,12.76,14.84,18.89,7.27,9.1,14.75,18.46,21.58,28,4.68,6.51,4.72,16.1,4.75,25.37,0,2.88,0,5.86.19,8.6,1.19,20.1,8.51,38.69,23,58.51,1.78,2.43,2.65,3.12,3,3.31,1.58-1.66,1.08-4.45-1.47-8.29-12.36-18.65-19.17-39.67-20.82-64.28l-.33-5,20,18.18c14.78,13.46,30.06,27.38,45.13,41,4.07,3.68,8.34,7.29,12.48,10.79l3.22,2.72a6.83,6.83,0,0,0,3.9,1.8,1.49,1.49,0,0,0,1.26-.56c.69-.85-.8-2.83-2.57-4.42a474.09,474.09,0,0,1-39.42-39.52c-9.65-10.93-19.65-21.88-29.32-32.47l-.48-.53c-5.47-6-11.11-12.18-16.63-18.29a12.51,12.51,0,0,1-2-3.33c-.2-.44-.39-.86-.61-1.27l-2-3.85,4.25,1c.46.1.94.25,1.41.39a6.88,6.88,0,0,0,1.8.42h.15a56.4,56.4,0,0,1,5.68-.29c16.76,0,31.22,7.58,45.2,14.92,1.08.56,2.16,1.12,3.23,1.69,2,1,4,2.16,5.92,3.24,1.64.91,3.24,1.81,4.85,2.68a14,14,0,0,1,2.25,1.61,7.34,7.34,0,0,0,2.08,1.4s.07-.06.19-.2a1.41,1.41,0,0,0,.34-1.16c-.16-1.35-1.57-3.07-2.83-4a145.79,145.79,0,0,0-49.94-24,121.16,121.16,0,0,0-17.25-2.75c-4.65-.51-9.45-1-14.08-2-5.22-1.09-9-6.93-12.71-12.57-1-1.61-2-3.11-3-4.45-9.14-12.52-18.24-24.62-29-35a11.48,11.48,0,0,1-2.31-3.74c-.23-.5-.45-1-.69-1.43l-1.34-2.47,2.77-.46,1.71-.28c1.16-.18,2.24-.35,3.32-.56a116.89,116.89,0,0,1,22.75-2c7.09,0,14.27.43,21.22.85,3.66.22,7.74.47,11.63.63,10.53.46,15.78,6.43,20.85,12.21l.11.13c12.4,14.12,26.23,24.42,42.28,31.47a10.45,10.45,0,0,0,4,1,2,2,0,0,0,2-1c.28-.5.21-.7.18-.77-.32-.93-2.63-1.88-3.5-2.24l-.17-.07c-16.76-7-29.23-19.12-42.63-33.12l-4.11-4.29,5.86.93c3.64.58,7.2,1.06,10.65,1.52a178.44,178.44,0,0,1,21.47,3.77c18.77,4.89,38,11.92,62.19,22.77a5.69,5.69,0,0,0,1.24-.36,5.34,5.34,0,0,0-.75-1.54c-13.3-7-27.55-12.72-41.33-18.27l-3.11-1.25c-10.47-4.23-21.62-6.23-32.41-8.16-8.69-1.56-17.66-3.16-26.24-5.91l-3.45-1.11,2.78-2.33c9.87-8.26,22-11.56,33.71-14.74,2.24-.61,4.78-1.3,7.25-2a62.14,62.14,0,0,1,17.5-2.67,49.11,49.11,0,0,1,14.28,2.1,9.3,9.3,0,0,0,1.35-1.11c-1.58-3.12-5-4.18-7.69-4.5a75.88,75.88,0,0,0-9.3-.57c-18.78,0-35.9,7-48.73,13.18-12.35,5.92-25.81,11.39-40.54,11.39a60.31,60.31,0,0,1-14.66-1.82,26.28,26.28,0,0,0-6.51-.77c-5.54,0-11.33,1.48-16.92,2.91-3.41.87-6.92,1.77-10.42,2.35a9.15,9.15,0,0,1-1.61.14c-3.1,0-4.72-1.67-6-3s-2-2.07-4-2.07l-.44,0-1.29.08-.76-3.49,1.21-.46c16.07-6.13,31.36-7.36,46.16-8.55,5.72-.46,11.61-.94,17.32-1.69,17.36-2.3,31.89-11.39,44.41-27.79a107.26,107.26,0,0,0,7.72-12.27,97.12,97.12,0,0,1,8.61-13.39c1.68-2.07,4.23-3.11,7.6-3.11,4.2,0,9.12,1.62,13.8,3.37,28.18,10.53,45.9,32.62,63.05,56.27,7.06,9.73,12.41,20.46,17.58,30.84a261.48,261.48,0,0,0,13.29,24.44l1,1.62c4.62,7.28,9.85,15.53,19.87,16.7,1.55.18,2.62,1.38,3.48,2.35.3.34.58.65.82.87l1.74,1.56-1.81,1.48c-1.05.86-2.1,1.83-3.12,2.78a32.89,32.89,0,0,1-7.88,5.92,102.18,102.18,0,0,0-10,5.73c-6.56,4.11-13.33,8.35-21.91,9.62-2.36.35-4.74.77-7,1.18-5.91,1-12,2.12-18.25,2.12-1,0-2.06,0-3.06-.09-.22,0-.43,0-.63,0-1.33,0-1.68.29-1.76.39s-.31.49-.09,1.78c1.8,10.36.1,20.45-1.55,30.22-1.2,7.06-2.43,14.35-2.25,21.5a78.56,78.56,0,0,0,1.57,12c.87,4.77,1.77,9.7,1.62,14.64-.38,12.14,1.2,21.94,4.84,30,.65,1.44,1.22,2.87,1.83,4.39,2.2,5.51,4.47,11.19,10.08,15.25l4.24,3.06-5.2.55A481.63,481.63,0,0,1,806.6,1587.73Z"/><path class="cls-3" d="M807.76,347.35a14.85,14.85,0,0,1-5.28-1.34,13.65,13.65,0,0,0-4.49-1.19,4.38,4.38,0,0,0-.82.08l-5.25,1,3.31-4.19c6.89-8.71,5.1-17.32,3-27.3-.2-1-.41-2-.6-3-1.43-7.24,4-10.78,7.94-13.36,1-.67,2-1.31,2.8-1.95,3.4-2.76,6.79-5.58,10.07-8.3,13.38-11.13,27.21-22.63,43.08-30.87a25.13,25.13,0,0,1,11.71-2.84,32.36,32.36,0,0,1,17.56,5.58c9.21,6,18,12.9,26.54,19.56,3.54,2.76,7.18,5.61,10.82,8.37l1,.73-1.43,3.07-1.17-.26c-4.5-1-8.84-2.36-13-3.68-7.76-2.44-15.08-4.74-22.84-4.74a37.2,37.2,0,0,0-4.38.26c-21.26,2.52-38.59,12.55-51.5,29.8-3.83,5.12-7.38,10.62-10.81,15.93-3.33,5.16-6.75,10.45-10.44,15.45a7,7,0,0,1-5.77,3.17Z"/><path class="cls-3" d="M797.5,297.19c.29-1.62.62-3.21.94-4.76,1.59-7.6,2.95-14.12-1.46-20.88a3.82,3.82,0,0,1-.59-3c.51-2.19,2.84-3.57,5.1-4.91a19.54,19.54,0,0,0,2.6-1.71l3.36-2.95c13.86-12.21,28.19-24.83,46.11-32.23a25.18,25.18,0,0,1,9.64-2c9.64,0,17,6,24,11.71l1.26,1c6.61,5.36,12.29,11.73,18.87,19.11,3.16,3.55,6.43,7.22,10.15,11.17l.88.94-2.22,2.81-1.12-.65A141.87,141.87,0,0,1,902,262.08c-5.77-4.21-10.76-7.86-16.86-9.55A48.37,48.37,0,0,0,872,250.59c-8.55,0-16.36,2.82-23.89,8.62l-4.24,3.27c-14.51,11.15-29.51,22.69-43,36.46l-4.52,4.61Z"/><path class="cls-4" d="M790.76,1178.56c-1,0-1.94,0-2.9-.07h-.12l-.12,0c-8.29-1.76-19.52-7.56-34.34-17.73a3.64,3.64,0,0,1-2-2.52,3.3,3.3,0,0,1,1.34-2.67l.16-.16c13-13.18,18.94-30.89,18-54.12-.71-17.9,1.11-38.63,20-56.64,5.48-5.22,8.48-13.09,8.44-22.17a48.37,48.37,0,0,0-14.86-34.07c-3.76-3.52-5.28-6.17-5.09-8.84.23-3.27,3.06-5.89,7.24-8.81,5.22-3.65,10.07-10.05,14.85-19.57,2.52-5,5.89-7.57,10-7.57,3.36,0,6.5,1.66,9.28,3.13.89.47,1.74.92,2.51,1.26,19.57,8.68,23.43,20.16,24.3,41.07a69,69,0,0,0,13.37,38.68l1.4,1.86c5.12,6.82,10.42,13.87,13.4,21.81,5.16,13.72-.74,27.2-8.88,34.47-19.07,17.06-26.56,39.16-34.49,62.55l-1.38,4C825.54,1168.32,809.77,1178.56,790.76,1178.56Z"/><path class="cls-4" d="M791,478.64c-.68,0-1.36,0-2-.09-15.94-1.42-29.67-6.48-42-15.46S737.57,444,740,435a49.9,49.9,0,0,0,2-9.44c.4-5.52,3.48-9.51,6.47-13.37,2.59-3.34,5.26-6.8,5.75-11.11.12-1,.27-2,.42-3,.66-4.37,1.24-8.14-1.34-11-3.68-4.05-5.11-7.57-4.39-10.77,1-4.54,6.09-6.95,10.74-8.86,8.28-3.4,16.56-8.2,26-15.09l.8-.59c1.88-1.42,3.78-2.84,6.32-2.84a6.46,6.46,0,0,1,1.38.14c18,.14,40.4,16.91,44.45,33.32,2.13,8.6-3,14.61-7.56,19.91-1.4,1.65-2.73,3.2-3.83,4.78-8,11.5-9.36,24.34-10.12,36.5-.09,1.38-.15,2.77-.21,4.16-.4,9.26-.81,18.83-9.07,25.38A28.75,28.75,0,0,1,791,478.64Z"/><path class="cls-4" d="M619.89,1354.4c-18.28,0-33.51-11.88-40.74-31.79-.57-1.58-1.17-3.16-1.77-4.74-3.61-9.5-7.34-19.31-6.07-31.43-.08-.75-.19-1.59-.31-2.48a47.41,47.41,0,0,1-.63-9.5c0-.33,0-.65.06-1,.19-3.56.48-8.94,7.8-8.94a20.84,20.84,0,0,1,2.7.2,84.26,84.26,0,0,0,11.32.78c23.74,0,45-10.65,65.08-32.54,8.4-9.15,19.6-15.77,33.27-19.66,15.47-4.39,24.58-16.38,24.36-32.07-.06-4.71,1-7.44,7-8.42,4.12-.69,8.15-2.92,12.62-5.56a19.86,19.86,0,0,1,10.2-3.08c6.63,0,11.83,3.87,17.34,8l.09.06c.9.67,1.81,1.35,2.74,2,5.88,4.2,13.05,6.76,20,9.22,2.44.87,5,1.77,7.4,2.73,7.31,2.87,13.38,9.27,17.08,18,4.48,10.59,4.81,23,.85,32.51-2.6,6.18-7.11,9.72-11.48,13.14a60,60,0,0,0-5.31,4.49c-10.76,10.59-17.6,23.19-24.84,36.52-.69,1.26-1.37,2.53-2.07,3.79-15.59,28.53-36.74,42.4-64.67,42.4h-.41c-20.91,0-42,4.48-62.83,13.31a47.83,47.83,0,0,1-18.71,4Z"/><path class="cls-4" d="M771.18,973.62c-4.8,0-9.64-2.36-14.58-5a36.1,36.1,0,0,0-16.89-4.39,30.69,30.69,0,0,0-4.91.39,20.55,20.55,0,0,1-3.3.31,6.31,6.31,0,0,1-4.8-1.67c-1.6-1.65-1.86-4.11-1.76-7.56.33-11.16-13.19-23.58-23.9-25.07-7-1-13.73-3.37-20.28-5.69l-.18-.07c-2.15-.76-4.38-1.55-6.56-2.27l-1-.34-.3-1.13c-.19-.85-.06-4.92,1.63-6.49a178.61,178.61,0,0,0,13.24-14.25c9.58-11.09,19.48-22.56,34.81-27.82a5.06,5.06,0,0,0,.69-.4,5.21,5.21,0,0,1,2.4-1c.85-.08,1.77-.11,2.83-.11l1.81,0,.82,0c.48,0,1,0,1.58,0,13.53,0,22.73,7.1,31.63,14a118.59,118.59,0,0,0,9.74,7c1.61,1,3.3,2,4.94,2.89,7,4,14.22,8.1,18.58,16.51,7.26,14,2.89,39.28-8.5,49.12a32.4,32.4,0,0,0-4.88,5.44C780.32,971.15,776.13,973.62,771.18,973.62Z"/><path class="cls-4" d="M696.86,376.72a6,6,0,0,1-4.63-1.81,5.9,5.9,0,0,1-1.21-4.79c2.73-22.17-6.9-40.95-16.68-56.39-2.08-3.3-.46-5.33.41-6.42a3.79,3.79,0,0,0,.5-.71L677,302c3.14-8.24,6.38-16.72,10.06-24.87,5.49-12.19,16.51-16.61,27.17-20.88,2.26-.91,4.52-1.82,6.66-2.77a36.47,36.47,0,0,1,14.92-2.88,55.25,55.25,0,0,1,8,.61c2.15-.2,4.26-.3,6.29-.3,18.87,0,32.87,8.6,41.62,25.56,3,5.75,1.6,11.69.4,16.93-1.53,6.73-.61,13.47.28,20A79,79,0,0,1,793.43,328c-.69,13.12-10.87,19.74-20.72,26.14-1.3.85-2.55,1.66-3.77,2.48-17.13,11.52-36.66,14.54-55.54,17.46l-.14,0c-4.81.74-9.79,1.52-14.63,2.42A10.31,10.31,0,0,1,696.86,376.72Z"/><path class="cls-4" d="M702.88,1168.91c-17.19,0-34.37-6.06-52.53-18.53a53.31,53.31,0,0,1-7.07-6.19c-1.06-1-2.13-2.09-3.25-3.11l-2.95-2.7,3.93-.75c18.75-3.55,23.66-13.37,25.79-29.14.54-4,2-9.51,5.59-12.5,12.93-10.66,15.77-23.91,8.67-40.52-6-14.18-3.37-27.94-.77-41.25l0-.17c.31-1.63.63-3.25.93-4.88,1.31-7.07,6.92-10.11,11.42-12.56a40.3,40.3,0,0,0,4-2.36,115,115,0,0,0,23-21.39c2.83-3.45,6.6-5.12,11.52-5.12a41.48,41.48,0,0,1,10.3,1.73l.62.16c25.74,6.69,41.39,20.53,47.86,42.33,3.62,12.18.67,23.46-8.53,32.63-11.29,11.27-16.68,24.4-16.94,41.31,0,1.1-.05,3.94-.05,3.94-.26,20.73-.52,42.16-15.42,60-6.76,8.12-16.1,13.74-27.76,16.71A74.55,74.55,0,0,1,702.88,1168.91Z"/><path class="cls-3" d="M705.24,866.4c6.5-18.13,12.63-35.24,16.21-53.59l.39-2c2.65-13.54,5.38-27.54,4.49-40.64-.16-2.52-.33-5-.49-7.54-1.53-23.45-3.1-47.7-9.72-71.2-6-21.37-13.73-46.43-25.22-70.29-4.62-9.59-10.85-18.68-16.87-27.47-2.6-3.8-5.28-7.71-7.82-11.64a81.54,81.54,0,0,0-17.13-19.35c-.7-.58-2.15-1.78-1.89-3.57.32-2.18,2.47-3.56,11.52-7.36a71.55,71.55,0,0,0,24.44-17.06c1.76-1.86,3.46-2.77,5.18-2.77s3.4,1,5,3c20.92,26.6,42.47,55.45,56,89.82.87,2.21,1.75,4.41,2.63,6.62l.24.62c6.21,15.59,12.63,31.71,16.4,48.34,6.24,27.5,9.16,52.67,8.95,76.94-.25,28-5.21,55.49-10,82.06l-.84,4.66c-1.14,6.32-3.48,12.44-5.75,18.35-.79,2.09-1.58,4.16-2.31,6.18s-3.48,2.33-4.5,2.33a4.09,4.09,0,0,1-1.2-.17c-11.58-3.51-18-5.45-23.26-5.45-6.2,0-11.59,2.7-23.38,8.6L701.81,876Z"/><path class="cls-4" d="M710.71,465c-19.6-1-35.65-7.72-47.72-20.1-2.5-2.56-3.68-5.08-3.61-7.72.1-4.36,3.66-7.66,6.79-10.57a26.33,26.33,0,0,0,3.69-3.86c10-14.72,16-27,19.2-39.91.37-1.42,1-3.8,4.07-3.8h.38c3.58.21,7.18.31,10.7.31A183.53,183.53,0,0,0,739.09,376a7,7,0,0,1,1.28-.12c7.1,0,9.31,11.16,9.49,17.06.24,7.74-3.72,13.87-7.54,19.79-2.63,4.08-5.34,8.29-6.49,12.86a216.36,216.36,0,0,0-4.71,23.1c-2,14.39-13.78,15.62-20.1,16.28h-.31Z"/><path class="cls-4" d="M702.89,513c-2.18,0-3.9-.05-4.93-1.5s-.67-3,.15-5.5c3.37-10,5.93-19.06,3.19-28.62-.57-2-.42-3.56.46-4.73a4.42,4.42,0,0,1,3.77-1.62,8.66,8.66,0,0,1,1.11.08,23,23,0,0,0,2.61.15c6.24,0,11.86-2.72,17.81-5.6a12,12,0,0,1,5-1.48,4.21,4.21,0,0,1,3.08,1.2c1.49,1.52,1.45,3.85,1.42,5.9a9.27,9.27,0,0,0,.11,2.3l.23.43v.5c0,17.26-18.7,38.49-33.9,38.49Z"/><path class="cls-4" d="M682,999c-4.76,0-8.76-4-12.36-8.41-4.83-5.84-26-11.55-38.28-11.55a20,20,0,0,0-6.39.8l-.22.16c-1.29,1-4.29,3.2-7.07,3.2a4.43,4.43,0,0,1-3.34-1.43c-1.4-1.53-1.9-4-1.55-7.93.09-1,.29-3.24.29-3.24,1.06-11.49,2.16-23.38-1.93-34.54a15.83,15.83,0,0,0-2.29-3.75c-.46-.64-1-1.35-1.45-2.08s-1.22-1.77-1.92-2.74c-2.82-3.91-4.22-5.84-2.74-7.47a54.37,54.37,0,0,1,21.54-15,25.93,25.93,0,0,1,9.2-1.85c9.25,0,15,6.05,21,12.46,1.27,1.33,2.57,2.71,3.91,4a47.62,47.62,0,0,0,28.91,13.23,39.7,39.7,0,0,1,21.81,8.5c6.42,5.29,9.81,12.12,9.81,19.76v.13l0,.12c-1.58,9.15-9.22,15.71-17.32,22.65-1.69,1.45-3.44,3-5.12,4.47a14.55,14.55,0,0,1-2.2,1.58,7,7,0,0,0-2,1.62C689,996.61,685.67,999,682,999Z"/><path class="cls-4" d="M585.77,1259.89a44.88,44.88,0,0,1-10.08-1.06,6.48,6.48,0,0,1-4.33-2.73c-1.27-2.06-.69-4.43-.23-6.33a8.22,8.22,0,0,0,.37-2.24c-1.44-12.75-4.86-21.76-11.08-29.22a4,4,0,0,1-1.14-3.37,4.08,4.08,0,0,1,2.44-2.71l.36-.2c11.56-13.57,27.51-19.25,42.93-24.74l.2-.07c1.93-.69,3.86-1.37,5.78-2.08a29.42,29.42,0,0,0,18.35-19.58,29.92,29.92,0,0,0-5.14-26.84l-1.66-2.17,2.57-.93a14.41,14.41,0,0,1,4.85-1c5.61,0,6.81,5.13,7.61,8.53.46,2,.94,4,2,4.95,21,18.61,41.52,27.28,64.73,27.28l2,0h.17a5.15,5.15,0,0,1,4.64,2.16c1.32,2,1.1,5.09-.65,9.14-5.38,12.35-13.89,19.58-26.79,22.76s-23.79,10.19-31,19.77c-12.21,16.35-43.45,30.7-66.87,30.7Z"/><path class="cls-3" d="M624.33,554.3c-9.77,0-14.59-6.4-18.84-12a44.29,44.29,0,0,0-5.65-6.59c-7.53-6.7-15.11-12.7-25.15-12.7-.48,0-1,0-1.45,0l-.74,0a5.38,5.38,0,0,1-4.07-1.38c-1-1-1.46-2.47-1.45-4.85,0-1.48,0-3,.07-4.48.2-8.13.4-16.53-5-23.23l-2.32-2.88,3.68-.36c.87-.09,1.74-.13,2.59-.18a21.64,21.64,0,0,0,4.68-.57,21.46,21.46,0,0,1,6-.94c8.65,0,11.6,7,14.2,13.13.67,1.59,1.36,3.23,2.14,4.73,5.58,10.77,15.35,17.46,25.49,17.46a22,22,0,0,0,9.78-2.27,15.1,15.1,0,0,0,8.5-13c.06-1,.13-1.9.19-2.86v-.1c.73-10.75,1.48-21.87-6-30.95-.92-1.11-2.19-2.64-1.72-4.42.44-1.63,2-2.43,3.7-3.06a14.1,14.1,0,0,0,6.28-4.72c4.82-6.84,9.52-10.17,14.37-10.17,5.51,0,10,4.2,14.29,8.26,3.28,3.08,6.66,6.26,10,7a24.65,24.65,0,0,1,5.54,2.12,22.74,22.74,0,0,0,5.65,2.1c9.07,1.67,8,10.51,7.48,14.75-.07.64-.15,1.23-.19,1.75l-.2,2.72c-.83,11.29-1.7,23-7.78,33-11.61,19.14-28.75,30.33-51,33.26l-2.94.41c-2.7.39-5.5.79-8.3,1C625.56,554.27,624.93,554.3,624.33,554.3Z"/><path class="cls-4" d="M594,921.62a8.22,8.22,0,0,1-1.6-.17,4.26,4.26,0,0,1-3.55-6.29,4.91,4.91,0,0,0,.24-.93c.86-15,1.74-30.47-9.5-42.42a22.13,22.13,0,0,0-16.82-7c-.62,0-1.26,0-1.89.06-9.83.67-18.11,5.91-26.12,11-1.72,1.09-3.44,2.17-5.17,3.21-3.2,1.92-5.12,2.67-6.87,2.67-3.74,0-5.38-3.47-6.58-7.22-3.72-11.53-7.93-24.59,2-37A38.81,38.81,0,0,1,549,822.65l1.74,0c3.28.14,6.77.27,10.22.27,9.32,0,20.26-.88,30.67-7.46a35.08,35.08,0,0,1,18.92-5.75c8.91,0,17.78,3.69,25.65,10.66,9,8,20.11,10.39,31.62,12.29,13.49,2.23,25.4,19.25,23.58,33.73-2.2,17.51-11.27,30.33-20.86,43.91l-.87,1.22c-1.73,2.45-3.58,3.64-5.66,3.64-2.81,0-5-2.32-6.43-4.07a33.53,33.53,0,0,0-26.29-12.18c-13,0-24.88,6.79-30.89,17.72l-.18.34c-1,1.84-2.5,4.62-6.14,4.62Z"/><path class="cls-4" d="M669.59,301.52c-1.84,0-4-1.33-5.74-3.55-8-10.15-14.83-14.29-23.54-14.29a47.07,47.07,0,0,0-14.24,2.69,6.44,6.44,0,0,1-2,.32c-3.15,0-5.46-2.38-7.32-4.29-.41-.43-.82-.84-1.21-1.21-6.88-6.47-16.25-9.88-27.11-9.88A58.56,58.56,0,0,0,563.82,277c-8.22,3.91-13.47,10.2-19,16.86-1.25,1.5-2.54,3-3.87,4.57a6.26,6.26,0,0,1-3.88,2.31h-.11c-1.94,0-3.41-2.36-3.68-3.69-3.67-17.78-6.55-36.71,1.71-55.47,6.43-14.59,16.61-21.39,32-21.39,1.79,0,3.68.09,5.61.28,1.46.14,2.93.21,4.37.21,14.8,0,26.62-7.43,37.47-15,6-4.22,14.3-6.54,23.33-6.54,17.26,0,38.13,8.83,43.15,28.23.47,1.81,1,3.64,1.54,5.42,1.64,5.54,3.19,10.76,2.61,15.32a142.27,142.27,0,0,1-12.31,51.44A3.38,3.38,0,0,1,669.59,301.52Z"/><path class="cls-4" d="M563.36,479.24c-43.94-3.6-72.31-22.14-86.71-56.68-4.93-11.86-9.44-26.91-.4-38.15,5.42-6.76,11.17-10,17.59-10s13.64,3.28,22.79,10.33A214.39,214.39,0,0,1,545,411.35c.87,1,4,2.07,10,2.07,8,0,18.82-2.08,23.09-5.58,13.74-11.25,16.54-20.72,11.52-38.95-3.11-11.29,4-18.11,10.26-24.13,1.65-1.59,3.19-3.07,4.55-4.61,7-7.91,9-17.21,11.21-27,.46-2.11.94-4.27,1.47-6.4,2-8,7.61-13.36,16.25-15.4a23.09,23.09,0,0,1,5.26-.63c8.7,0,15,5.6,20,11.08,13,14.34,19.35,32,24.91,47.65,4.07,11.41.9,24.06-3,37.1-6.45,21.55-19.34,40.91-40.57,60.93a113.56,113.56,0,0,1-59.51,29.76c-5,.88-10.2,1.52-16.72,2.05h-.34Z"/><path class="cls-4" d="M639.45,1132.55a40.43,40.43,0,0,1-11.82-2c-15.22-4.77-27.85-11.13-38.6-19.44-16.55-12.77-23.95-28.61-24-51.36a86.14,86.14,0,0,1,2.52-34.73c3.46-11.45,13.39-17.8,23-23.94l.35-.23,2.38-1.53c10-6.46,21.17-11.3,36.37-15.69a19.39,19.39,0,0,1,5.4-.69c12.34,0,31.42,9,38.53,18.1,2.67,3.42,3.63,6.69,2.87,9.71a127.24,127.24,0,0,0-3.51,34.23c.09,3.86,1.49,7.48,3,11.32,1.89,4.88,3.85,9.93,3.17,15.84-.86,7.46-2.07,14-8.26,18.78s-7.84,11.55-9.6,18.75a85.26,85.26,0,0,1-2.48,8.74C655.35,1127.78,648.85,1132.55,639.45,1132.55Z"/><path class="cls-3" d="M618.11,514.12c-11.79,0-18.44-7.59-24.79-19-3.1-5.57-3.84-9.28-2.39-12,1.76-3.33,6.15-3.72,10-4.07s6.59-.71,7-2.39A2.08,2.08,0,0,1,610,475l.4,0h.27c3.34-1.43,6.65-2.89,10-4.36l4.62-2,.74,2c2.68,7.2,5.36,14.39,7.64,20.49l.22.6-.16.61a48.82,48.82,0,0,0-1.07,6.51c-.77,6.59-1.66,14-11.69,15.1A27.93,27.93,0,0,1,618.11,514.12Z"/><path class="cls-4" d="M529.27,1227.06h-.06c-15.65-1.24-26.88-6.18-33.36-14.68-6.71-8.79-8.52-21.64-5.36-38.19,2.87-15,7.49-27,14.13-36.59a106.73,106.73,0,0,1,39.64-34.27l1.21-.62c4.81-2.5,9.77-5.08,15.49-5.08a19.43,19.43,0,0,1,7.3,1.43c4,1.55,6.11,4.54,8,7.19a20.44,20.44,0,0,0,4,4.54c9.75,7.37,21.63,15.57,35.75,20.38,4,1.34,6.82,9.22,8.18,13.79,1.57,5.27,3.06,12.78,2.1,16.61-4.16,16.57-17.47,20.56-29.21,24.09-2.81.84-5.72,1.71-8.39,2.72-12.73,4.8-22.05,13.34-30.49,21.67-10.12,10-19.17,15.37-28.47,17l-.19,0Z"/><path class="cls-4" d="M562.26,406c-4.5,0-8.83-1.57-13.21-4.8-4.63-3.4-9-7.21-13.33-10.9-9.27-8-18.82-16.25-30.7-20.42a23.15,23.15,0,0,0-7.48-1.28,17.78,17.78,0,0,0-2.47.16,27.89,27.89,0,0,1-3.74.29c-3.33,0-5.65-.86-7.09-2.63s-1.85-4.33-1.18-7.73c.09-15.91,10.64-27,26.29-27.61,15.47-.6,24.29-11.58,30.25-21.08,13.84-22.06,29.52-32.33,49.34-32.33h.62c11,.12,20.51,4.67,26.06,12.48,1.26,1.77.08,3.86-1.28,6.28a16.46,16.46,0,0,0-1.72,3.67c-4.9,21.88-17.35,40-28.33,56-3.39,4.93-2.14,10.56-.7,17.09a48.13,48.13,0,0,1,1.57,11c-.15,8.92-3.61,14.94-10.58,18.41C569.92,404.94,566,406,562.26,406Z"/><path class="cls-4" d="M507.12,1035.22c-11.21,0-14.77-7.12-16.78-14.08a77.37,77.37,0,0,0-5.3-12.43c-3.78-7.6-7.68-15.45-7.1-25.1.63-10.27,9.9-18.62,20.66-18.62a20.5,20.5,0,0,1,2.22.12,76.69,76.69,0,0,0,8.72.51,61.53,61.53,0,0,0,37-12c3.19-2.32,6.35-4.88,9.4-7.35,9.26-7.52,18.83-15.28,31.41-18.35a19.62,19.62,0,0,1,4.67-.6c7.34,0,12.61,4.82,14.45,13.22.28,1.24.59,2.49.91,3.75,1.48,5.82,3,11.76,1.19,18.16,2.48,15.82-3.88,26.31-21.21,35a50.6,50.6,0,0,0-21.43,20.36c-5.27,9.68-14.86,11.25-23.32,12.63a64.32,64.32,0,0,0-10.08,2.21,35.85,35.85,0,0,1-11.44,2.12c-.65,0-1.3,0-1.92-.08s-1.25-.07-2-.07c-1.61,0-3.3.13-4.93.26S508.83,1035.22,507.12,1035.22Z"/><path class="cls-3" d="M362.7,849.23c-4.4,0-7.93-3.22-11.05-6.06-9.94-9.09-16.86-16.69-22.43-24.64a5.55,5.55,0,0,1-1.16-4.2,6.33,6.33,0,0,1,3-3.93l4.8-3.31c10.69-7.4,21.71-15,32.82-22.12,7.15-4.56,5.16-9.68,2.84-15.6-.53-1.36-1.08-2.77-1.5-4.15-5.77-19.1-8-38.22-9.59-61.06-.63-9,.36-17.69,1.32-26.13a184.48,184.48,0,0,0,1.48-19c0-3.9,1.11-7.65,2.26-11.61.49-1.71,1.05-3.64,1.5-5.58l1-4.09,2.58,3.31c11.64,15,26.27,25,40.43,34.64l2.45,1.67c14.13,9.66,26.86,15.85,38.94,18.93,4.23,1.08,8.64,1.93,12.89,2.75,7.91,1.53,16.06,3.1,23.76,6.21,16,6.47,34,15.72,46.08,35.26,1.79,2.89,3.2,2.89,3.67,2.89,1.82,0,4.13-1.72,6.36-3.38s4.44-3.29,6.84-3.89c7.24-1.8,14.49-4.25,21.5-6.61,6.4-2.16,12.95-4.37,19.53-6.12a7,7,0,0,1,1.87-.27c5.28,0,5.59,6,5.74,9q0,.57.06,1c1.75,20.83.41,43-4.07,67.83-2.07,11.38-12.37,13.18-20.65,14.62-1.64.29-3.12.55-4.49.86A55.81,55.81,0,0,1,559,817.5c-1.36,0-2.72,0-4.09,0s-2.72,0-4.07,0c-6,0-12.4.4-18.26,3.3l-6,2.91-7.06,3.43-.12-3.06c-.39-10.35,16.59-27.92,25.81-29.06,10.36-1.31,20.84-3.38,31-5.39l3.54-.7a2.91,2.91,0,0,0,1.26-1c-2.3-1.47-4.48-2.82-7-2.82a7.23,7.23,0,0,0-1.66.19c-7.26,1.67-14.65,3.1-21.8,4.49l-6,1.16a2.78,2.78,0,0,1-.58.06,4.76,4.76,0,0,1-1.79-.43l-.4-.16-2.35-.68,1.13-2.17c.16-.31.32-.64.47-1a12,12,0,0,1,1.52-2.66L546,779.6c4.64-5.78,9.44-11.74,14.42-17.42.87-1,.72-1.36-.42-2.77l-.08-.1c-.14.19-.28.4-.37.53a6.66,6.66,0,0,1-.87,1.12c-15.52,14.63-26.38,28-34.17,42.16a8.31,8.31,0,0,1-2.3,2.47c-.31.25-.58.46-.82.68l-1.47,1.38-1.36-1.49c-.26-.27-.55-.54-.85-.81a8.23,8.23,0,0,1-2.35-2.94c-1.37-3.41-2.7-7-3.87-10.16-3.56-9.6-7.23-19.52-13.15-28.16-.54-.79-1.08-1.73-1.59-2.63-.71-1.25-2.37-4.17-3.16-4.29a.75.75,0,0,0-.18.11c-2.32,1.65-1.41,3.82,1.06,8.06.54.92,1.1,1.87,1.54,2.8,2.21,4.6,4.62,9.22,7,13.69l-1.29.79,1.33-.69c4.76,9.12,9.68,18.55,13.27,28.36,2,5.39-1.14,10.48-3.89,15a31.85,31.85,0,0,0-3.82,7.63,11.92,11.92,0,0,1-2,3.64c-.4.56-.88,1.25-1.37,2l-2,3.2-1.52-3.45c-4.94-11.22-12.65-20.62-20.11-29.71-2.75-3.36-5.6-6.83-8.27-10.35-6.5-8.54-13.51-17-20.28-25.08l1.08-1-1.15,1c-6.26-7.52-12.73-15.29-18.81-23.17-4.54-5.88-4-12.85-3.47-19a44.5,44.5,0,0,0,.1-9.57,5.89,5.89,0,0,1,.15-2,4.44,4.44,0,0,0,.1-.56c-.83-2.24-.47-4.93-.13-7.52.24-1.84.58-4.36,0-5a1.52,1.52,0,0,0-1.05-.25,6.56,6.56,0,0,0-.73,0c-2.77.32-2.73,9.66-2.72,14.16,0,1.15,0,2.25,0,3.26a81.35,81.35,0,0,0,.44,8.33v.1c.13,1.55.27,3.2.39,5l.42,6.48L388.28,693a22.86,22.86,0,0,1-1.57-2.46c-.7-1.22-1.76-3-2.45-3a2,2,0,0,0-1.07.49c-1.45,1.07-.78,3.19,2.39,7.57l.06.08c14.65,20.28,27.74,37.74,40,53.39a32.94,32.94,0,0,0,3.29,3.41c3,2.86,6.51,6.11,6.49,11.77v2.72l-11.7-3.72c-10.6-3.37-21.56-6.86-32.48-10.15a1,1,0,0,0-.25,0,10,10,0,0,0-3,.9l-.15.07c2,3.06,5.57,4.14,9,5.19,8.29,2.55,16.81,4.89,25.05,7.15,7.07,1.94,14.32,3.94,21.38,6,5.92,1.77,10,8.31,14,14.63a87,87,0,0,0,5.25,7.74l7.81,9.77c6.14,7.67,12.46,15.57,18.62,23.39a7.44,7.44,0,0,1,1.26,3.54c.08.43.13.79.22,1.13l.94,3.53L488,835l-1.13-.34c-.81-.25-1.73-.52-2.63-.88-2.54-1-5.06-2.06-7.57-3.11-10.56-4.39-21.47-8.94-33.41-10.15-7.76-.79-11.55-7.29-14.89-13a49.07,49.07,0,0,0-4.37-6.68c-.73-.87-1.49-1.88-2.3-2.94-1.32-1.75-4.31-5.71-5.54-6.09-.47.35-1,.82-1,1.26-.12.89,1.21,2.45,2.38,3.82a18.57,18.57,0,0,1,2.88,4.06A41.1,41.1,0,0,0,429.63,814l3.92,3.85-5.48-.44c-2.93-.23-5.71-.48-8.38-.72-5.94-.54-11.55-1-17-1.18l-1.35-.06c-.67,0-1.37-.07-2.06-.07-4,0-4,1.26-4,2.48a2.34,2.34,0,0,0,.56,1.88c.66.68,2,1,4,1,.84,0,1.65-.06,2.3-.11l.63,0c1.11-.07,2.23-.1,3.35-.1,8.37,0,16.47,1.8,24.31,3.53a131,131,0,0,0,19.18,3.28c3.52.25,6.79,1.85,9.95,3.4,1.33.65,2.71,1.33,4.05,1.86l5.45,2.18-5.64,1.6c-1.63.47-3.26.92-4.89,1.37-3.48,1-7.09,2-10.62,3.08a42.67,42.67,0,0,1-13.37,2c-7.32,0-14.5-1.58-21.45-3.11a123.47,123.47,0,0,0-16.2-2.84c-1.06-.09-2.13-.13-3.19-.13-8.51,0-16.19,2.8-21.64,7.87-3.28,3.06-6.34,4.55-9.35,4.55Z"/><path class="cls-3" d="M583.66,682.6c-27.3-19.35-40.17-40.34-41.75-68-1.44-25.22,4.85-49.56,20.4-78.92,2.82-5.31,6.32-7.9,10.7-7.9a12.82,12.82,0,0,1,3.65.56c5.18,1.5,7.81,3.47,8.29,6.19.68,3.87-3.65,7-6.53,9.14-.53.39-1.4,1-1.65,1.28C569.37,557,566.11,570.6,563,583.75c-.74,3.08-1.57,6.57-2.44,9.91a13.37,13.37,0,0,0,.09,5.45,18.82,18.82,0,0,1,.3,5.14,7.93,7.93,0,0,0,2-3.26c3.9-22.68,10-41.58,18.76-57.79.16-.3.33-.66.51-1.06,1.11-2.39,2.94-6.32,6.91-6.32a8.29,8.29,0,0,1,4.8,1.83c6.9,5,10.52,8.34,11.16,12.55.72,4.74-2.68,9.72-8.38,17.36-8.1,10.88-13.22,24.51-15.67,41.67-.39,2.71-.84,5.45-1.27,8.11-1.36,8.26-2.77,16.81-2.33,25,.06,1.1.11,2.2.16,3.3.51,11,1,22.33,9,34.22l.69,1-2.5,2.42Z"/><path class="cls-4" d="M468.41,989.87c-1.86-5.29-3.81-10.31-5.69-15.17-4.18-10.78-8.13-20.94-10.1-31.48-3-16,1.39-30.39,12.33-40.43,5.42-5,11.61-7.29,19.49-7.29a56.42,56.42,0,0,1,8.28.68,39.71,39.71,0,0,0,5.74.43c13.37,0,25.37-7.09,37-13.94l3.17-1.88c10.07-6,16.73-9.92,23.26-9.92,5.49,0,10.45,2.87,16.07,9.3,5,5.72,5.49,13.37,5.28,20.79,0,1.32-.05,2.63-.05,3.93-.06,9.82-.12,20-13.77,25.6-6.72,2.78-12.33,7.34-18.27,12.17-6.21,5.05-12.63,10.28-20.54,13.42-8.48,3.37-17,3.64-25.3,3.9-3.09.1-6.28.2-9.43.47-13.65,1.18-23.08,11.09-22.93,24.11a12.8,12.8,0,0,1-.22,2.05c-.11.72-.25,1.6-.42,2.87l-.16,1.17-3.32.34Z"/><path class="cls-4" d="M462,1386.67a49.66,49.66,0,0,1-20.16-4.6c-17-7.6-30.71-11.41-44.29-12.36-12.4-.86-23.31-6.07-30.71-14.67-7.09-8.22-10.49-19.13-9.56-30.7,1.54-19.24,12.41-34.33,22.84-46.55.83-1,1.64-2,2.44-2.94,4.44-5.41,8.62-10.52,13.85-10.52,4.83,0,9.2,4.35,13.78,13.71,7.05,14.43,26.75,19,34.89,20.37a35.31,35.31,0,0,0,5.6.42c5.34,0,11-1,16.53-2,3.73-.67,7.51-1.35,11.23-1.74a66.78,66.78,0,0,1,7-.36c10.69,0,21.69,2.37,35.65,7.7a42.11,42.11,0,0,0,15,2.81c10.87,0,20.5-4.32,27.13-12.17l3.41-4,.12,5.27a92.88,92.88,0,0,0,2,15.08c1.21,6.44,2.34,12.51,1.79,19.11-.9,10.9-13.26,26.19-24.19,26.31-23.19.27-42.19,12.76-59,23.77C479.17,1384,470.64,1386.67,462,1386.67Z"/><path class="cls-4" d="M538.87,1299.74c-5,0-9.93-1.45-14.7-2.85-1.37-.4-2.69-.79-4-1.15l-1.63-.44c-12-3.24-24.37-6.6-36.78-6.6a61.66,61.66,0,0,0-14.26,1.6,76.58,76.58,0,0,1-17.22,2.17c-19.29,0-33.12-9.28-43.53-29.2-5.5-10.54-3.09-23.65-1-35.21.37-2,.72-4.08,1.07-6.13,1.32-7.77,2.68-15.81,5.46-23.29,3.09-8.29,8.29-15.76,13.32-23l.92-1.31a2.23,2.23,0,0,1,1.89-.94c1.44,0,4.29,1.29,10.12,4.18l3.45,1.73c11.62,5.83,23.63,11.86,37.29,11.86a7,7,0,0,1,5.25,1.85c2,2,1.9,4.93,1.86,7.3a12.44,12.44,0,0,0,.1,2.57c3.09,13.68,18.2,28.22,40.11,28.22a34.82,34.82,0,0,0,21.28-6.71c3.2-2.43,5.85-3.61,8.1-3.61,5.57,0,6.64,6.51,7.35,10.82a21.55,21.55,0,0,0,.85,3.88c2.39,5.72,4.62,11.62,3.43,15.4-.19,2.26-.35,4.49-.5,6.66-1.07,15.13-2,28.2-14.64,37.64a22.05,22.05,0,0,1-13.61,4.55Z"/><path class="cls-4" d="M522,572.14a11.21,11.21,0,0,1-7.63-2.91c-9.78-9.48-19.71-15.36-31.25-18.5-11.73-3.2-16.15-12.12-13.11-26.49,1.49-7,9.3-18.4,19.89-28.93,11.23-11.15,22-17.87,28.74-18h.49c9.1,0,18.2,3.44,27.5,7.28,12.66,5.21,16.62,11.77,16.31,27v.18a94.08,94.08,0,0,1-12.43,36.13c-6.87,11.43-13.39,19.35-24.59,23.53A11.13,11.13,0,0,1,522,572.14Z"/><path class="cls-4" d="M478.26,1187.35a16.77,16.77,0,0,1-4-.56c-10.86-2.7-22.1-7.11-35.38-13.87-13.64-7-14.76-20.13-15.66-30.72-1.94-22.89,3.42-41,16.88-56.93a306.11,306.11,0,0,1,49.22-46.5,8.81,8.81,0,0,1,5.55-2,14.75,14.75,0,0,1,2.71.29,84.39,84.39,0,0,0,15.51,1.45c13,0,26.07-3,40-9a7.46,7.46,0,0,1,3.08-.57,21.38,21.38,0,0,1,2.41.18,11.53,11.53,0,0,0,1.17.11H562l-.21,2.19c-2,20.51-3.09,40.55,4.78,60.3l1,2.58-2.76.16a91.83,91.83,0,0,0-14.92,2.56l-2,.45a7.43,7.43,0,0,1-1.6.19c-6.77,0-8.36-9.51-9-13.57-.74-4.4-2.54-8.67-4.29-12.79-2.24-5.31-4.56-10.78-4.91-16.94-.21-.14-.49-.31-.74-.45l-.39.72c-.62,1.13-1.73,3.14-1.56,3.71a198,198,0,0,1,6.4,21.1c1.71,7.07,4.66,12.77,7.78,18.8l1.4,2.71-1.62,1c-.75.45-1.56.85-2.41,1.28a16.57,16.57,0,0,0-4.92,3.18c-2.09,2.29-3.78,3.31-5.47,3.31-2.79,0-4.4-2.67-6-5.26a355,355,0,0,1-21.44-40.79,5.21,5.21,0,0,0-1.83-1.55,2.49,2.49,0,0,0-.27.94c2.42,18.63,13.2,34.59,21.86,47.41,1,1.51,1.9,3.14,1.39,4.86a4.11,4.11,0,0,1-2.59,2.58c-.54.23-1.26,1.43-1.79,2.31-1.1,1.82-2.46,4.08-5.07,4.08a6.13,6.13,0,0,1-4-1.8c-15.39-13.39-25.78-24.89-33.69-37.31a5.25,5.25,0,0,0-4.2-2.78,3.73,3.73,0,0,0-1.6.37,2.73,2.73,0,0,0-.54.29,10.79,10.79,0,0,0,1.15,1.25,6.59,6.59,0,0,1,1.19,1.35c7.84,13,17.87,27.85,32.79,39.07,1.18.87,3.77,4.15,2.56,6.31a80.44,80.44,0,0,1-7.32,11l-.56.71-1,.09h-.07c-.88,0-2.68-.84-5.34-2.5l-12.46-7.82-1.5-1c-10.05-6.31-21.43-13.46-32.4-20.25l-.37.09v0a7,7,0,0,0,.62,2.31c11.27,9.83,23.86,18.4,36,26.68l2.08,1.42a11.44,11.44,0,0,0,2.9,1c2.53.63,5.67,1.42,7.14,4.19,1,2,1,4.41-.17,7.54-2,5.5-4.82,8.17-8.56,8.17-2.75,0-5.3-1.48-7.76-2.9a16.74,16.74,0,0,0-4.33-2c-6.88-1.37-13.55-4-20-6.51-2.16-.84-4.61-1.8-7-2.66a2.41,2.41,0,0,0-.78-.16c-.37,0-.39.11-.42.27a3.42,3.42,0,0,0,1,2.25c10,7.49,22.1,11,33.8,14.48l.28.08q2.63.77,5.24,1.56a4.51,4.51,0,0,1,3.37,2.86,4.09,4.09,0,0,1-1,3.83c-.71.84-.78,2.83-.84,4.58-.13,3.39-.34,9-6.82,9Z"/><path class="cls-4" d="M462.8,388.83a5,5,0,0,1-2.22-.43C435,376.15,416.21,363.06,407.72,339c-3.6-10.18-1.51-21.44,5.33-28.69,12.45-13.21,22.42-29.13,32.32-51.63,5.53-12.56,17.07-15,27.62-15.71h.18c13.92.71,24.13,7.95,34,15,0,0,1.9,1.35,2.67,1.88,10.53,7.39,13.39,18.35,16.16,28.95.77,3,1.57,6,2.53,8.9,2.72,8.2,2.57,14.39-.47,18.92-3.3,4.93-10,7.68-20.33,8.41a29.48,29.48,0,0,0-22.52,12.65,34,34,0,0,0-4.78,28.58c1,3.54.64,4.93-2,7.46-1,.95-2,1.83-3.08,2.68-3.27,2.72-6.36,5.28-6.78,9.71C468.36,388.79,462.86,388.83,462.8,388.83Z"/><path class="cls-4" d="M314.44,972.13c-1.35-1.79-2.59-3.64-3.8-5.43-2.55-3.8-4.95-7.37-8-10-15.24-12.9-13.83-36.46-4.76-52.07,4-6.87,11-6.95,16.16-7,.83,0,1.57,0,2.28,0,21.63-.91,32.23-15.71,39.74-30.08,8.07-15.46,21.69-24.2,40.46-26,.54,0,1.09-.08,1.64-.08,4.32,0,8.65,1.52,12.84,3a56.08,56.08,0,0,0,8.69,2.54,54.61,54.61,0,0,0,9.42.77c7.68,0,15.47-1.39,23-2.72,4.52-.81,9.17-1.63,13.79-2.17a29.31,29.31,0,0,1,3.14-.17c15.1,0,33.1,11.6,37.78,24.34.44,1.2,1,2.43,1.61,3.61a39.6,39.6,0,0,1,1.94,4.4,24.74,24.74,0,0,0,1.13,2.53c1.47,3,3.47,7,.15,10s-8.55,3.12-10.09,3.12a17.61,17.61,0,0,1-3.24-.28,60.35,60.35,0,0,0-11.14-1.1c-20.63,0-34.44,12.54-38.88,35.31l-.85,4.36-2.7-3.52a35.55,35.55,0,0,0-29.12-14.34c-12.74,0-26.08,6-33.19,14.9-1.39,1.75-2.75,3.63-4.06,5.46-4.95,6.87-10.07,14-19.05,16.73l-1.7.52c-10.13,3.09-19.7,6-28.65,11.62-4,2.47-6.58,5.79-9.34,9.31l-.08.1c-.64.82-1.29,1.64-2,2.47l-1.61,2Z"/><path class="cls-4" d="M447,625.63c-10.26,0-16.25-8.18-22.05-16.09-.88-1.2-1.74-2.38-2.62-3.53-7.81-10.21-18.67-17-29.18-23.52l-2.3-1.43c-10.53-6.58-16.71-14.43-18.39-23.32-1.84-9.79,1.79-20.88,10.79-33,22.19-29.77,53.25-46.78,85.82-63a31.76,31.76,0,0,1,14.16-3.6c8.2,0,16.17,3.77,24.38,11.55a4,4,0,0,1,1.3,3.76c-.21,1.12-.85,4.51-12.54,9.24C480.88,489,461,523.37,464.13,538.41c1.79,8.6,8.6,14.82,20.26,18.49,13.89,4.37,21.75,10.06,24,17.38,3,9.62-4.19,20.67-11.62,30.21-11.59,14.87-22.9,20.06-44.74,20.5A21.67,21.67,0,0,1,447,625.63Z"/><path class="cls-4" d="M419.84,1104.94a6.78,6.78,0,0,1-3.74-1.5,5.75,5.75,0,0,0-1.21-.71c-16.24-3.49-37.84-27.86-37.89-42.76-.11-9.07,6.32-11.7,12-14,1-.4,1.89-.78,2.77-1.18,10.74-4.9,16-14.08,21.61-23.8,1.67-2.91,3.4-5.92,5.29-8.8C427,999.43,436.46,993,446.83,993c11.23,0,22.77,7.69,33.37,22.24,1.08,1.49,2.05,3,3,4.56s1.87,3,2.88,4.39c2.25,3.06,3.14,5.77,2.71,8.29-.63,3.68-3.9,5.91-6.79,7.88-1,.68-2,1.38-2.84,2.07-2.28,1.91-4.57,3.79-6.86,5.67-12.5,10.27-25.42,20.88-34.38,35.29a112.18,112.18,0,0,1-7.38,10.05c-2.3,2.9-4.68,5.9-6.7,9A4.77,4.77,0,0,1,419.84,1104.94Z"/><path class="cls-4" d="M365.91,516.39c-12.23,0-24.16-8.51-29-20.7s-2.09-22.92.51-33.43a113.14,113.14,0,0,0,2.69-13c1.37-11-3.08-21.88-7.61-31.05-11.24-22.72-9.18-42.89,5.51-54,6.48-4.89,14.25-5.81,21.1-6.62,1.68-.2,3.22-.38,4.64-.61l.15,0H364c29.85,1.14,53.27,14.63,75.91,27.66l2.34,1.35c2.88,1.65,5.85,3.36,8.83,4,15,3.35,16.64,17.12,17.52,24.52,1.26,10.6,5.66,20.46,13.86,31.05,1.7,2.2,2.22,4.09,1.6,5.77-.85,2.3-3.47,3.09-5.37,3.48-18.78,3.85-35,13.87-50.74,23.56-4,2.46-8.1,5-12.24,7.43-5.75,3.37-10.88,7.9-15.84,12.29-7.68,6.79-15.63,13.81-26.29,17.1A26.05,26.05,0,0,1,365.91,516.39Z"/><path class="cls-4" d="M376,1046.4c-2.75,0-6.39-2.51-10.25-5.17-1.13-.78-2.2-1.52-3.16-2.13-3-1.9-6.16-3.75-9.2-5.54-8.06-4.76-16.41-9.67-23.33-16-9.93-9.13-14.66-21.74-12.36-32.92,2.2-10.66,10.45-19,23.22-23.48,19.72-6.91,34.93-17.11,49.3-33.07,6.88-7.62,16.17-12,25.51-12,15,0,27.11,10.66,32.35,28.52,3.06,10.45,7,20.47,11.21,31.09l.09.22c1.83,4.63,3.72,9.42,5.52,14.24l1.68,4.48-4.37-2a34.88,34.88,0,0,0-14.41-3c-17.72,0-34.06,12.15-38.85,28.88-3.82,13.34-14.37,18.75-24.56,24-2.16,1.11-4.39,2.25-6.49,3.45A3.88,3.88,0,0,1,376,1046.4Z"/><path class="cls-4" d="M373.78,1199.22a30.39,30.39,0,0,1-4.16-.28c-.84,0-1.75,0-2.65,0-20.46,0-35.11-6.49-46.1-20.42-7-8.88-7.76-19.37-8.5-29.52l-.18-2.47c-1.32-16.81-12.6-28.41-22.55-38.65-13.2-13.57-14-26.36-12.36-34.7,2.49-12.6,12.51-23.83,26.8-30a50.68,50.68,0,0,1,20.61-4.25c11.74,0,23.27,3.7,34.42,7.28l.42.13,4.14,1.32c9,2.85,9,9.14,8.94,14.19,0,2.31,0,4.49.74,6.2,3.5,7.7,8.17,16.5,16.21,23.43,9.43,8.14,17.9,14,28.62,16.12,2.23.42,2.12,2.59,1.79,9.79-.05.93-.09,1.78-.11,2.51-.09,2.7-.23,5.45-.36,8.1-.26,5-.51,10-.45,14.94v1.19c0,4,.08,8.59,1.82,11.49,3.53,5.88,4.66,10.88,3.45,15.28-1.82,6.64-8.34,10.17-14.65,13.59-1.53.83-2.92,1.58-4.22,2.36l-1.12.68C394.79,1193.29,384.91,1199.22,373.78,1199.22Z"/><path class="cls-3" d="M250.92,434.88c-14.07,0-28.57-2.37-41.06-4.58-12-2.14-23.7-5.81-35-9.35-9.2-2.89-18.7-5.88-28.24-8-3.1-.68-6.17-1.53-9.13-2.35-6.55-1.83-13.32-3.71-20.54-3.71h-.56c-2.1,0-3-1-3.39-1.75-1.08-2.22.74-4.81,3.64-8.5.59-.76,1.15-1.47,1.43-1.9,8.56-13.68,16.65-22.71,26.23-29.29a1.39,1.39,0,0,0,0-.46,5.37,5.37,0,0,0-2.84-3.93C121.58,352,103.12,338,85.05,318c-5.42-6-10.11-12.69-14.65-19.18l-.09-.13c-2-2.89-4.11-5.88-6.23-8.74l-1.54-2.08,2.41-1c.88-.35,1.8-.79,2.69-1.22a22,22,0,0,1,6.73-2.38c26.32-3.27,48.07-17.55,69.1-31.35l.18-.12q4.29-2.82,8.59-5.6c14.86-9.58,31.7-20.44,49.24-20.44a40.11,40.11,0,0,1,6.61.54,33.27,33.27,0,0,0,5.32.48c9.4,0,10.44-5.5,11.77-12.46a40.13,40.13,0,0,1,1.61-6.48c7.91-21.21,18.07-39.46,31-55.77a28.58,28.58,0,0,1,3.43-3.44,23.85,23.85,0,0,0,3.09-3.11c4.08-5.39,7.53-7.9,10.85-7.9,4.84,0,7.43,5.31,9.52,9.58,1,2.07,2,4.22,3,5.08,21.56,19.23,41.73,36,61.65,51.4,26.94,20.75,45.75,41.16,59.22,64.22,1.08,1.85,2.14,3.71,3.21,5.58l.1.18c1.18,2,2.35,4.09,3.54,6.12,3.46,5.86,6,12.87-1.67,20.54-15.6,15.67-16.68,29.49-4.28,54.76a12.73,12.73,0,0,1,.72,2c.07.26.15.5.23.73l.94,2.8-2.95-.16h-1.24a6.36,6.36,0,0,1-2-.27l-5.06-1.75c-9.36-3.27-19-6.65-29.13-6.65a44.68,44.68,0,0,0-8.43.79,14.92,14.92,0,0,1-2.9.28c-5.17,0-10.48-2.69-14.95-7.57a34.56,34.56,0,0,1-8.06-15.22c-2.75-12.18,1.33-21.92,5.28-31.34,1.48-3.55,3-7.21,4.16-10.95a88.26,88.26,0,0,0,.48-49.42c-.13-.48-1.49-1.36-2.29-1.89h0c-.57,1-1.28,2.27-1.2,2.91,1.76,13,1.08,25.61.09,39.61-.37,5.12-2.23,9.19-4.2,13.5a63.63,63.63,0,0,0-3,7.36l-2.06,6.58-1.78-6.66c-7.43-27.77-17.56-55.78-31-85.63-2.37-5.26-5.33-10.4-8.19-15.37l-.12-.2-1.9-3.31c-.46-.82-.84-1.24-1.12-1.24a2.21,2.21,0,0,0-1,.36,2.64,2.64,0,0,0-.42.26l.3.4a7.08,7.08,0,0,1,.94,1.51l.34.84c10.76,26.12,21.87,53.11,28.53,74.67l2.16,7-5.41-4.91-8-7.2c-8.51-7.65-19.08-17.16-29.24-26.79-.51-.49-1-1-1.49-1.47-2.18-2.19-3.9-3.93-6.4-3.93a6.36,6.36,0,0,0-1,.09c.44.61.87,1.22,1.29,1.82a57.16,57.16,0,0,0,5.51,7c4.95,5,10.14,10.05,15.16,14.9,11,10.62,22.31,21.54,32.06,33.48,4.59,5.63,5.55,13.94,6.48,22,.32,2.73.65,5.54,1.11,8.11a33.12,33.12,0,0,1,.37,3.34,21.4,21.4,0,0,0,4.26,12.36l.79,1.13-2.87,2.41-1-1c-8.81-8.79-17.18-10.64-25.28-12.44-1.33-.29-2.64-.58-3.93-.9l-1.05-.25c-22.62-5.5-44-10.7-61-29.45a89.45,89.45,0,0,0-45-26.51H196a3.32,3.32,0,0,1-1.5-.51c-.48-.33-1-.71-1.51-1.12-1.17-.89-3.32-2.52-4.24-2.53a1.31,1.31,0,0,0-.14.24,2.89,2.89,0,0,0-.09,2.37c1.06,2.66,5.43,4.64,6.75,5.18a159.26,159.26,0,0,1,55.17,37.12l3.62,3.75-5.2-.36c-8-.57-15.84-1.88-23.4-3.15-9.41-1.58-18.28-3.06-27.49-3.24-12.41-.24-24.95-1.78-37.08-3.27l-5.86-.71c-2.14-.26-4.29-.61-6.36-.95a75.06,75.06,0,0,0-12-1.32,29.05,29.05,0,0,0-6.41.67c4.86,4.06,11.05,4.53,17.05,5,2.45.19,5,.38,7.43.8,13.38,2.3,27.1,3.79,40.37,5.22,5.4.58,11,1.19,16.43,1.83l5.82.69-5,3c-11.84,7.08-25.53,12.68-41.86,17.11-1.56.43-1.56.43-1.57,2a2.18,2.18,0,0,0,0,.56h.15a8,8,0,0,0,1.21-.14c16.62-2.59,29.95-7.3,40.76-14.4a34.3,34.3,0,0,1,19.42-5.75c6.12,0,12.22,1.34,18.12,2.63,1.75.38,3.49.76,5.23,1.11,3.61.72,7.34,1.21,11,1.69,7,.92,14.21,1.87,21.28,4.53,7.74,2.9,15.92,4.61,24.57,6.41,3.61.75,7.7,1.6,11.7,2.55l4.34,1L323,341.4c-10.56,7.37-21.89,11.05-32.85,14.6l-2.09.68c-15,4.9-28.62,9.14-42.62,11.51a6.75,6.75,0,0,1-1.19.1c-3.34,0-6.56-2.16-10-4.44a37.14,37.14,0,0,0-5.7-3.38c-7.3-3.11-14.86-5.64-20.62-7.5a6.16,6.16,0,0,0-1.75-.32c-.82,0-1,.28-1.23.86-.34,1.13-.38,1.25,1.59,1.95,5.76,2,11.4,4.63,16.86,7.14,1.92.88,3.84,1.76,5.77,2.62a11.45,11.45,0,0,1,2,1.26l.68.49,2.47,1.66-2.48,1.66c-.31.21-.61.46-.92.71a7.85,7.85,0,0,1-3.24,1.82c-7.54,1.55-15.08,3.06-22.62,4.58l-.6.12c-8.87,1.78-18,3.62-27.09,5.5l0,0,.43.27a9.69,9.69,0,0,0,3,1.56,116.45,116.45,0,0,1,18.25-2.82c6.85-.68,13.91-1.39,20.72-3.57a133.19,133.19,0,0,1,19-4.09,159.58,159.58,0,0,0,16.12-3.22,11.64,11.64,0,0,1,2.55-.34,4.24,4.24,0,0,0,3-.92c1.56-1.42,3.87-1.45,5.91-1.48a20.11,20.11,0,0,0,2.12-.1l2.23-.27v2.25c0,3.38-2.57,4.56-4,5.2a4.69,4.69,0,0,0-1.29.73c-10.62,14.56-25.63,23.7-40.14,32.53l-3.35,2a8.69,8.69,0,0,0-.8.51l.4.44c.78.86,1.17,1.23,1.59,1.23a2.21,2.21,0,0,0,.8-.19c20.63-8.43,34.32-18.24,43.07-30.9,9.84-14.23,23.88-20.49,37.47-26.54,4.44-2,9-4,13.42-6.33,4.62-2.43,8.5-4.3,12.71-4.3a14.67,14.67,0,0,1,9,3.26,23.63,23.63,0,0,1,2.44,2.2l.9.89,1.47,1.38-1.4,1.46c-.37.38-.77.89-1.15,1.37a9,9,0,0,1-3.88,3.37c-6.15,2.08-11.74,7.47-15.33,14.79-4.18,8.48-5.11,18.11-2.49,25.75,1.09,3.18,3.36,9.8-4.59,16.07-15.09,11.89-33,16-48.53,18.41a105.22,105.22,0,0,1-16.23,1.18Z"/><path class="cls-4" d="M319.39,1311.85c-12.81,0-21.5-8.69-28.17-28.17-8-23.21-27.27-32.76-45.12-39-2.91-1-5.91-2-8.81-2.94-13.28-4.31-27-8.76-37.53-19.61-6.29-6.49-7.11-14.41-8-22.8l-.09-.87c-.72-6.8-4-13.07-7.17-19.14-2.89-5.53-5.88-11.24-7.08-17.51-4.63-24,12-37.78,27-47.07,18.16-11.23,39.09-13.62,57.56-15.73l1.35-.15h.05c.46,0,.87,0,1.27,0,11.31,0,16.45,7,21,13.18a39.35,39.35,0,0,0,6.23,7.25c11.28,9.34,13.11,22.25,14.89,34.73.87,6.14,1.77,12.48,3.82,18.17,4,11.07,22.82,26.22,36.65,29.48a80.09,80.09,0,0,0,18.53,2.26,70.29,70.29,0,0,0,25.4-4.75,63.38,63.38,0,0,0,8.05-4c1.58-.88,3.22-1.79,4.9-2.61a9.86,9.86,0,0,1,3-.8c.34,0,.68-.1,1-.17l4-.85-2.24,4.59c-.38.78-.76,1.57-1.18,2.35a78.86,78.86,0,0,0-9.07,38.45c.2,13-4.16,21.93-15.06,30.87-5.16,4.22-9.58,9.48-13.86,14.56-6.48,7.71-13.18,15.67-22.84,20.82-12.35,6.58-21.14,9.52-28.51,9.52Z"/><path class="cls-3" d="M113.5,1443.27a180.86,180.86,0,0,1-24-1.69c-8.19-1.1-15.6-3.75-23.44-6.56l-4.1-1.46v-41.7l0-.18c.41-1.7.76-3.43,1.08-5.31.74-4.54,1.4-9.24,2-13.78,3.58-25.34,7.28-51.5,26.07-71.36,5-5.27,7.08-8.78,6.81-11.38-.3-2.81-3.52-5.52-9.35-9.52-8.09-5.56-15.4-12.41-22.46-19l-3.6-3.37-.64-.59v-30.66l.54-.57c7.68-8.28,17.36-14.87,25.82-20.23a135.49,135.49,0,0,1,48.83-19.06,73.19,73.19,0,0,1,12.9-1.09c8.72,0,17.36,1.35,25.71,2.65l.38.06,4.07.62c6.58,1,6.44,7.39,6.39,9.79v.34c-.43,26.22,17.54,36,35.17,42.1,8.75,3,17.4,6.6,25.76,10l.11.05c3.25,1.34,6.51,2.68,9.77,4a4.66,4.66,0,0,1,2.94,2.56c.53,1.52-.21,2.82-1,4.2-.12.21-.25.43-.38.67-4.15,7.44-9.14,10.91-15.71,10.91-4.57,0-9.07-1.68-13.84-3.46-1.9-.71-3.86-1.44-5.77-2-12.19-3.75-25.25-7.45-39.18-7.81-3.12-.09-12.61-.35-17.86-10.73-4.84-9.6-14.63-15.73-24.09-21.65l-2.22-1.4a34.47,34.47,0,0,0-18.57-5.64c-.51,0-1,0-1.53,0a5.63,5.63,0,0,0-3.09,1.16.64.64,0,0,0,0,.14h0s.32.45,2.17,1c17.28,5.07,31.71,14.44,44.13,28.64l3.8,4.36-5.68-1.08-20.23-3.8-17-3.18L123,1248a42,42,0,0,0-7.82-1,13.49,13.49,0,0,0-5.78,1.19,6,6,0,0,0-.15.78c3,2.51,6.8,3,10.84,3.43,1.51.18,3,.36,4.53.65,15.24,2.92,30.62,5.67,46.89,8.58l.21,0c6.69,1.2,13.56,2.42,20.68,3.71l1.16.21.19,3.33-1.13.34c-4.21,1.28-8.15,2.52-11.91,3.69l-.3.1c-9.4,3-17.51,5.49-25.89,7.46a7.3,7.3,0,0,1-1.64.18,16.66,16.66,0,0,1-4-.68,15.15,15.15,0,0,0-3.53-.62,4.53,4.53,0,0,0-2.18.52c-.3.16-.62.31-.94.46a8.19,8.19,0,0,0-1.21.64l0,.16a3.71,3.71,0,0,0,2,1.8,39.07,39.07,0,0,0,9.57,1.14c7.68,0,15.21-2,22.2-4.17,3.57-1.11,7.2-2.56,10.71-4,7.1-2.83,14.43-5.76,22-6.19.51,0,1,0,1.56,0,6.71,0,13.48,2.42,20,4.76,2.84,1,5.77,2.07,8.62,2.89a2.13,2.13,0,0,1,1.46,1.59s.55,3-.9,4.33c-20.09,19.44-37,35.74-54.34,52.09-1.41,1.35-3.65,1.54-5.66,1.54l-1.08,0h-2.63c-22.35,0-41.38,3.87-58.16,11.83-2.38,1.13-5,2.46-5.48,4a2.41,2.41,0,0,0,.32,2c.35.65.58.65.76.65,1,0,2.62-1.09,3.71-1.82a16.66,16.66,0,0,1,1.68-1c15.91-8.26,33-9.93,52.68-11.88l10.95-1.08-5.91,4.32c-7,5.13-13.2,10.38-19.19,15.45-8.55,7.24-16.6,14.05-25.83,19.57a81.23,81.23,0,0,0-11.37,8.78c-1.18,1-2.29,2-3.4,2.93-6.37,5.38-12,10.37-17.28,15.24a9.44,9.44,0,0,1-1.63,1.12c-.22.13-.54.32-.81.5a4.82,4.82,0,0,0,.8.06A5.75,5.75,0,0,0,99,1407c17.54-12.41,35.16-25.12,52.19-37.41l15.14-10.91.41,3.36c1.3,10.78-3.88,19.14-8.9,27.22-1.24,2-2.51,4.06-3.64,6.09a58.84,58.84,0,0,1-4.89,7c-.95,1.24-1.94,2.52-2.84,3.82a19,19,0,0,1-2.13,2.4c-.85.85-2.27,2.27-2.21,2.88,0,.16.26.52.91,1a2.08,2.08,0,0,0,1.21.4c2,0,4.62-2.69,6.4-5.21a211.23,211.23,0,0,0,17.1-28c4.08-8.2,4.82-15.45,2.24-22.14-.9-2.34,1.81-5.41,4.24-7.58,9.95-8.88,20.18-17.78,30.08-26.38l1.19-1c1.33-1.16,2.74-2.23,4.09-3.27l1.91-1.48,3.15-2.48.09,4c0,.71.1,1.5.17,2.26a14.64,14.64,0,0,1-.19,5.88,124.33,124.33,0,0,0-3.58,18.22c-1.25,8.63-2.55,17.55-6.37,25.88-.7,1.53-1.42,3-2.14,4.56l0,.09c-1.77,3.73-3.6,7.57-5.06,11.45A9.13,9.13,0,0,1,196,1390a9.64,9.64,0,0,0-1,1.45,2.38,2.38,0,0,0,.37.24,2.31,2.31,0,0,0,1.15.31c1.32,0,2.83-1.17,3.95-3.06,9.67-16.46,14-34.63,16.86-50.23a105.51,105.51,0,0,0,1.34-14.57,120.18,120.18,0,0,1,1-13c1-6.48,6.11-10.6,11.05-14.59a51.42,51.42,0,0,0,6.67-6.06c.26-.31.54-.69.85-1.11,1.44-2,3.39-4.6,6.22-4.6a5,5,0,0,1,3.4,1.44c5.95,5.44,5.46,13.18,5,20l0,.92c-.71,11.3-.68,24.59,4.88,37.47,3.11,7.22,6.64,15.39,10.36,23.36a5.17,5.17,0,0,0,.68.3,3.48,3.48,0,0,0,.4-1.24c-.19-5.43-2.26-10.33-4.45-15.51a64.57,64.57,0,0,1-4.3-12.54,68.59,68.59,0,0,1-1-12.5,89.9,89.9,0,0,0-1.39-16.57l-.24-1.24,3.29-1.24.64,1.09c3.16,5.4,6.11,10.47,8.93,15.31,6.48,11.14,12.08,20.76,18,30.42,2.61,4.28,5.7,8.42,8.69,12.42,1.43,1.92,2.88,3.87,4.29,5.84a3.45,3.45,0,0,0,.24.3l.09-.07c.72-.65.73-.66.26-1.92-4.3-11.36-10.56-21.57-17.18-32.37-3.43-5.59-6.92-11.28-10.21-17.25l-2.3-4.16,4.58,1.26c12.91,3.57,23.82,9.29,33.89,14.85a69.17,69.17,0,0,0,9.51,4.06l2.09.77a11,11,0,0,0,0-1.41c-2.11-1.3-4.21-2.63-6.32-4-12.83-8.11-26.09-16.49-41.74-17.86-4.07-.34-5.1-2.46-5.79-3.87a5.26,5.26,0,0,0-.43-.8c-5.11-7.63-10.51-15.77-15.51-24.17-2.07-3.47-2.74-6.48-2.05-9.17,1-4,4.84-6.26,8.19-8.24a18.84,18.84,0,0,0,5-3.66,5.13,5.13,0,0,1,4.05-2.2c3,0,5.31,2.86,7.53,5.63.56.7,1.08,1.35,1.58,1.9,6.05,6.75,9.22,14.88,12.29,22.75.94,2.4,1.91,4.88,2.94,7.28,3.56,8.22,18.33,16.59,29.27,16.59a15,15,0,0,0,6.4-1.25c2.54-1.19,5.16-2.26,7.69-3.29,5.95-2.42,12.05-4.89,17.13-9l4.75-3.88-1.54,5.93c-4.48,17.22-9.56,36.72,5.7,54,3.91,4.43-.75,8.8-4.16,12a28.9,28.9,0,0,0-2.78,2.82c-11.34,14.33-26.17,24.84-40.52,35-3.51,2.49-7.13,5.06-10.68,7.66-6,4.44-12.45,6.69-19.06,6.69-7.89,0-15.8-3.32-22.86-9.61l-.71-.63c-8-7.14-16.32-14.53-25.55-19.6a4.87,4.87,0,0,0-2.29-.69c-2.24,0-4.19,2.72-6.07,5.35a27.39,27.39,0,0,1-3.77,4.55c-11.6,10.25-22.83,17.4-34.31,21.84l-3.58,1.4c-13.75,5.34-28,10.86-42.54,14.11A135.49,135.49,0,0,1,113.5,1443.27Z"/><path class="cls-4" d="M210.07,1104.35c-6.53,0-10.06-9.92-12.63-17.17l-.13-.38c-6.27-17.66,3.08-30.86,12.11-43.63l.91-1.28c12.09-17.1,16-37.09,18.36-56.14,2.49-19.8,21.34-35.91,42-35.91,1.31,0,2.64.07,3.94.2,19.31,2,28.59,14.78,36.77,26.07,2.17,3,1.9,7.26,1.63,11.4a44.7,44.7,0,0,0-.13,5.12c.9,16.14,10,28.41,28.64,38.63l1,.56-.88,3.22-1.18,0c-5-.16-9.23-.26-13.27-.26a124,124,0,0,0-22.32,1.7c-10.16,1.82-20.67,10.07-27.42,21.52-6.23,10.57-8.07,21.69-5.07,30.5.53,1.54.93,3.29,0,4.61a3.06,3.06,0,0,1-2.66,1.22,10.15,10.15,0,0,1-1.45-.13,10.32,10.32,0,0,0-1.29-.12h-.18a194.8,194.8,0,0,0-54.75,9.94,6.4,6.4,0,0,1-2.05.35Z"/><path class="cls-3" d="M214.57,1013c-1.34-1.36-2.95-2.67-4.5-4-3.83-3.13-7.42-6.08-8.42-10.13-1.51-6.16-1.73-12.61-1.93-18.86-.14-4-.27-8.22-.76-12.22s-1.43-8.34-2.3-12.42c-1.42-6.57-2.88-13.34-2.8-20.1,0-2.37-1-4.72-2.16-7.2-2.2-4.88-4.71-10.41.75-17.09,10.15-12.46,15.08-26.48,14.65-41.67,0-.21,0-.42,0-.64s0-.5,0-.75a4.52,4.52,0,0,0-2,2c-2.45,15.22-9.53,28.26-15.42,37.92l-2.13,3.48-1.45-3.81c-4.67-12.27-10.81-26.48-20.91-38.81a7.79,7.79,0,0,0-2.83-1.89,1.09,1.09,0,0,0-.4.65,4.94,4.94,0,0,0,.95,3.25,137.79,137.79,0,0,1,17,33.61c3,8.91,5.62,18,8.41,27.68l0,.16c1.27,4.41,2.6,9,4,13.76l2,6.65-5.21-4.58c-4.07-3.57-8-7-11.78-10.3l-.08-.07c-10.14-8.85-19.72-17.21-28.93-25.67a14,14,0,0,1-2.32-3.09c-.5-.8-1.33-2.14-1.75-2.29a3.77,3.77,0,0,0-1,.76c-.34.36-1.05,1.1.07,3.25a20.4,20.4,0,0,0,4,4.89c3.39,3.28,6.72,6.71,9.93,10,8,8.26,16.31,16.8,25.71,23.17,11.07,7.52,12.05,18,12.92,27.3.43,4.6.87,9.36,2.49,13.56l1.54,4-2.62-.86c-.25,2.25-1.3,3.4-3.14,3.4a6.64,6.64,0,0,1-3-.94c-11.81-6.26-24-12.22-35.79-18-5.58-2.73-11.9-5.83-17.94-8.84-2-1-4.38-1.92-6.68-2.8-6.06-2.35-12.33-4.77-14.68-9.56a115.67,115.67,0,0,1-5-12.53c-2.13-6.06-4.33-12.32-7.91-17.63-1.59-2.37-3.06-4.86-4.47-7.28-4.09-6.95-8.3-14.13-15.7-18.22h0a1.43,1.43,0,0,0-.54-.07,6.71,6.71,0,0,0-.86.08v.09c1.79,2.7,3.67,5.42,5.5,8.05l-1.16,1,1.23-.86c3.4,4.89,6.91,9.95,10,15.2,3.78,6.49,7.07,13.34,10.26,20q1.55,3.25,3.13,6.48a2.23,2.23,0,0,1-.22,2.23s-1.39,2.14-3.07,2.14h-.18l-.25-.05-.12,0c-5.69-1.74-11.28-3.49-16.88-5.24-8.65-2.72-17.59-5.52-26.43-8.13L62,940.71V885.78l1-.59c11.5-7,23-13.33,37.06-14.24.75-.05,1.52-.05,2.29-.06,4,0,6.44-.06,7.5-5.46.27-1.38.5-2.81.73-4.2v-.1c.83-5.06,1.69-10.29,4.35-15.51,1.87-3.67,3.58-7.5,5.24-11.2,3.69-8.27,7.5-16.81,13.36-24.27,1-1.28,2.09-2.47,3.15-3.62.47-.51.95-1,1.41-1.56l1.66-1.86,1.46,2c.32.44.65.86,1,1.29a21.21,21.21,0,0,1,2.34,3.44c4.71,9.32,12.91,16.62,23.69,21.1,7.19,3,14.68,5.66,21.92,8.23,16.35,5.81,33.25,11.81,48.24,22.12,15.82,10.87,29.54,24.73,44.49,44.93,4.88,6.59,4.55,13.61,4.26,19.8-.2,4.28-.39,8.33.95,12.16,0,.06,2,6.32-.85,7.83a10.26,10.26,0,0,1-4.69,1.06,10.6,10.6,0,0,1-3-.43,43.49,43.49,0,0,0-12.81-2c-12.59,0-24,5.9-32.24,16.6-7.24,9.45-9.48,20.46-11.86,32.12a153.75,153.75,0,0,1-4.68,18.84l-1,3.07Z"/><path class="cls-3" d="M104.66,1101.31a229.24,229.24,0,0,1-41-3.48l-1.64-.3v-69.15l.54-.57c.9-1,1.8-1.94,2.72-2.91,1.76-1.84,2.58-3.36,2.43-4.54s-1.12-2.21-3-3.36l-1.32-.81-1.42-.86v-21l2.07.07c.42,0,.83,0,1.24,0,2.25,0,4.57-.2,6.81-.4s4.41-.4,6.64-.42C92.51,993.52,107,991,123,985.87c2.19-.69,4.39-1.54,6.52-2.37,5.49-2.12,10.68-4.13,16.39-4.13a22.93,22.93,0,0,1,12.81,4c4.35,2.83,9.07,5.33,13.63,7.75,2.46,1.3,4.93,2.62,7.34,4,3.05,1.71,6.13,3.49,9.1,5.21l.26.16,4.8,2.78,2.19,1.26-1.73,1.84q-1.63,1.74-3.25,3.5c-2.51,2.71-5.35,5.79-8.22,8.61a36.07,36.07,0,0,1-6.45,4.73l-.14.09c-3.74,2.32-7.4,5.1-10.93,7.8-9.62,7.33-19.55,14.91-33,14.91a38.62,38.62,0,0,1-8-.87,40.3,40.3,0,0,0-8.52-.83,116.27,116.27,0,0,0-14,1.17c-1.84.23-3.66.46-5.47.65-.61.06-1.26.11-1.92.15a14.27,14.27,0,0,0-3.79.56A1.61,1.61,0,0,0,91,1048c.72.74,2.37,1.18,4.42,1.18.26,0,.53,0,.79,0,2.46-.13,5-.47,7.5-.8a80.81,80.81,0,0,1,10.58-.92,30.6,30.6,0,0,1,13.36,2.8l4.19,1.94-11.12,4.47c-10.6,4.25-20.61,8.27-30.63,12.41a.88.88,0,0,0-.15.21l.7-.06a37.92,37.92,0,0,0,7.41-1.05,217.7,217.7,0,0,0,54-24,6.09,6.09,0,0,1,3.1-.7c.33,0,.62,0,.9-.06l2.78-.38-.55,2.75c0,.24-.07.49-.1.74a6.51,6.51,0,0,1-.74,2.74c-1.66,2.84-3.36,5.67-5.05,8.51l-.14.24c-2.84,4.76-5.79,9.68-8.56,14.58a4.54,4.54,0,0,0-.22,1.82,3.42,3.42,0,0,0,1-.22c6.08-5.7,10.43-13,14.63-20.09,2-3.38,4.08-6.86,6.34-10.17a35,35,0,0,0,2.6-4.88c1.65-3.52,3.52-7.51,7.8-10.25,7.87-5,15.94-10.83,21.57-19a6.15,6.15,0,0,1,4.45-2.41,3,3,0,0,1,1,.16,15.9,15.9,0,0,1,10.21,9.66c1.73,4.91.85,10.72-2.42,15.93-1.79,2.86-3.76,5.65-5.67,8.34-5.61,7.91-11.37,16.05-12.86,26.49a20.84,20.84,0,0,0,0,3.79c.23,4.11.54,9.74-5.19,12.67-18,9.18-38.4,14.64-60.78,16.22C118.78,1101.05,111.53,1101.31,104.66,1101.31Z"/><path class="cls-3" d="M66.74,991.06c-.93,0-1.85,0-2.78,0l-2,0V946l2.64.88c2.73.92,5,1.6,7.22,2.14,17,4.17,33.3,10.66,49.1,16.95q5.07,2,10.12,4a6.48,6.48,0,0,1,2.46,2c.21.24.41.47.62.67l1.71,1.61L134,975.62c-.35.26-.69.57-1,.87a9.9,9.9,0,0,1-3.31,2.25C105.67,987.14,85.67,991.06,66.74,991.06Z"/><polygon class="cls-2" points="6 8.83 58 60.83 58 1619.17 6 1671.17 6 8.83"/><path d="M1024,8V1672a8,8,0,0,1-8,8H8a8,8,0,0,1-8-8V8A8,8,0,0,1,8,0H1016A8,8,0,0,1,1024,8Zm-8,1658.34V13.66l-48,48V1618.34ZM962.34,56l48-48H13.66l48,48H962.34ZM13.66,1672h996.68l-48-48H61.66ZM960,1616V1199.49c-7.91,2.35-15.77,5.87-23.75,8.19s-16.23,5.77-25.21,1.84c-6-2.63-5,4.56-5.6,6.63-5.91,19.37-19,33.9-32.44,47.87-4.41,4.56-10.14-1.14-13.78-4.19-12.72-10.63-25.92-20.84-36.28-34-.86-1.09-3-3-3-.58.47,20.88-17.33,28.77-28.76,41.08-5.16,5.55-9.58,10.14,2,12.47,25.14,5.06,42.9,21.5,58.25,40.08a313.35,313.35,0,0,1,34.63,51c7.28,13.57,11.76,28.58,23.93,39a17.92,17.92,0,0,0,7.31,3.88c4.07.93,9.87-1.89,11.41,4.19s-4.36,8.72-8,11.71c-8.63,7-17.39,14.08-26.78,20-11.46,7.25-24.89,9.08-38.08,10-5,.36-5.5,2.31-5.56,5.7-.33,18.29-5.4,36.36-3.09,54.72s1.91,37.24,12.41,53.62c2.94,4.59,12.45,4.49,8.48,14.29-2.08,5.15-6.26,5.4-8.9,5.65-23.08,2.14-46.23,3.15-69.45,3.6-24.43.48-47.61-4.48-70.29-11.69-23.53-7.48-43.39-21.54-59.16-40.89-2.26-2.77-4.92-1.24-6.42.12-11.4,10.42-25.94,8.3-39.21,9-21.89,1.08-43.64,2.7-65.24,6.31a4.58,4.58,0,0,0-1.36.51c-16.27,8.24-15.7,7.92-17.25,5.19-3.63-6.39-7.78-12.5-11.85-18.64-8.09-12.24-13.15-25.93-16.75-39.86-3.87-15-7.46-30.2-6.73-46.24.71-15.49,1.83-30.77,5.47-45.83,3.73-15.43,7.07-31,16.35-45.77-11.69,6-20.41,14.52-31.71,19-15.64,6.22-30.78,8.28-46.84,1.19a149.32,149.32,0,0,0-43.12-11.86,41.09,41.09,0,0,1-16.11-5.9c-10.87-6.69-14.74,1.2-19.71,8.12-11.32,15.75-26.75,26.92-42.55,37.65-5.89,4-11.65,8.2-17.51,12.24-12.13,8.37-22-.09-32.43-4.38-12.39-5.08-22.24-13.79-32.15-22.34-1.95-1.68-2.16-.43-2.83.38-18.06,21.81-43.59,31.34-69,40.13-29.46,10.2-60.56,13.12-90.33,3.52-3-1-6-1.86-9.06-2.79V1616Zm0-426.67v-48c-16.07-10.81-33.16-20.09-50.29-29.31a6.42,6.42,0,0,0-2.47-.19c.29,1,.27,2.35.93,3,12.5,12.92,17.27,30.75,28.25,44.66.74.94-.53,5.2-1.34,5.36-5.44,1-8.09-4-9.81-7.19a424.6,424.6,0,0,0-31.52-50.17c-5.77-7.79-15.71-9.24-23.78-13.41-3.22-1.66-16,20.17-16,23.91.14,24.36,23.39,27.73,36.3,40.32,5.32,5.19,7.17,5.14,5.83,6.69-4,4.64-7.9,1.23-11-.9-8.67-6-16.93-12.63-24.94-18.7.06,21.64,9.4,41.56,12.67,62.75.39,2.52-.58,5.25-.92,7.89-4.39-1.31-5.92-5-7-8.83-2.22-8.07-4.08-16.24-6.14-24.36-.15-.58-.81-1-1.23-1.55a20,20,0,0,0-2.52,3.53c-2.24,5.17-3.76,10.75-6.69,15.47-1.26,2-3.61,6.84-7.55,4.1-3.17-2.21-.18-6,.85-8.05,3.59-7.16,8.21-13.8,12.37-20.68a4.38,4.38,0,0,0,.76-2.76c-2.67-13.27-2.25-27.24-9.07-40.72-3.92,14.69-7.9,28.52-17,39.72-3.65,4.48-9.14,9.51-14.37,10.25-14.11,2-4.33,9.55-2.66,12.34,13.88,23.12,34.48,40.43,53.21,59.33,2.92,3,5.55,2,8.54-2.17,8.9-12.47,19.52-23.76,24.68-38.61a8.19,8.19,0,0,0,.74-2.26c.38-8,.47-13.45,12.42-10.38,14.5,3.72,28.81-3,42.11-8.72A57.35,57.35,0,0,1,960,1189.33Zm0-57.68v-12.8c-5.09.11-10.2.83-15.25.27-.46,0-1,.53-1.5.82a15.42,15.42,0,0,0,2.63,2.77C950.59,1125.68,955.32,1128.63,960,1131.65Zm0-20.38v-41.71a71,71,0,0,0-6.47-4.77,92,92,0,0,0-19.66-9.92c-11-3.9-3.91-12.14-2.15-17.55,3-9.33,9.19-17.3,14.84-25.47,1.9-2.75-6.47-7.78-10.73-9.38-9.27-3.49-18.45-7.32-28.37-9.4-16.62-3.47-32.77-5.2-49.46-.27-7.1,2.1-.75,4.5-.71,6.25.27,11.72,8,20.81,12.24,31.11,1.14,2.75,4.23-.63,6.28-1.65,11-5.48,20.39-14.26,33.29-15.49,1.21-.11,2.54,1,3.81,1.47-.48,1-.71,2.38-1.47,2.75-8.06,4-14.87,10.45-26.27,13,9.45,3.3,17.15,6.24,25,8.63,3.88,1.18,6.84,4.23,5.81,7-1.18,3.21-4.72.4-7.23-.61-8.47-3.41-16.89-7-25.56-9.81-2.22-.72-5.31,1.2-8.15,1.95,11,11.08,12.05,29.57,3.94,42.21-6.81,10.61,1.7,10.76,7.41,13.31,14.11,6.29,28,13.27,42.51,18.45,5.87,2.1,13.15.3,19.79.16C952.47,1111.43,956.25,1111.23,960,1111.27Zm0-52.38V64H64V278.14c11.83.71,22.59-3.77,32.8-8.21,29.17-12.68,52.94-35.41,83.06-46.32,10-3.62,20.93-6.55,32.09-2.84,3.84,1.27,4.31-3.07,4.73-4.84,8.49-36,29.87-63.64,56.44-87.93,4.36-4,7.27-3.41,10.3,3,7.82,16.48,21.6,27.69,36.21,38.19,12.56,9,24,19.58,36.28,29.06,16,12.35,30.62,26.08,43,41.94,8.51,10.85,16.86,22,22.23,34.93.9,2.19,3.22,3.79,4.88,5.66,1.62-3.37,3.63-6.61,4.79-10.13,5.07-15.36,12.48-29.07,29.27-33.61,17.61-4.76,33.5.53,47.08,12.15,4.9,4.2,12.37,5.52,15,13a52.71,52.71,0,0,1,7-26.84c8.46-15.27,21.11-24.74,39.17-22.15,17.64,2.53,30.11-7.4,43.66-15.23,24.74-14.3,53.55-6.16,68.27,11.4,12.3,14.68,13.48,32.67,12,51,8.48-4.53,17.25-10.51,26.92-14.08,13.74-5.07,28.31-4.18,42.72-2.18,12.39,1.73,21.2,9.22,30.91,16.36,5.2,3.82,9.64-6.54,14-10.52,12.84-11.73,26.87-21.6,41.54-30.78,14.28-8.93,34.89,1.54,47.77,13.66a210.73,210.73,0,0,1,48.25,67.06c.84,1.86,3.3,4.67.88,6.05-2.21,1.26-6.37,1.69-8.28.41-13.36-8.95-28.4-15-43.77-16.58-16.71-1.68-32.53,5.93-43.94,18.36-11,12-20.38,25.76-29.46,39.41-2.75,4.15,4.29,5.49,6.66,6.95,10.89,6.68,16.4,17.38,20.12,28.28,3.31,9.69-4.06,18.44-9.9,25.45-9.88,11.85-10.59,25.39-11.79,39.6-2,23.23-4,35-30,38.18a62.16,62.16,0,0,1-50-15.86c.18,22.49-11.44,36.61-29,46-4.61,2.48-11,5.66-17.07,1.69-.32-.21-1.58.35-1.57.46.4,3.44-5.75,5.68-2.16,9.47A308.61,308.61,0,0,1,749.86,607c6.91,14.54,13.21,29.55,17.78,45.31,2.52,8.7,5.79,17.54,8,26.35,7.88,31.49,11.51,63.24,8.42,96.08-1.73,18.42-2.94,36.85-7.21,54.79-3.36,14.14-8.65,27.83-13.2,41.68-.63,1.92,6,8.2,11.23,11.76,12.75,8.66,27.9,15,33,31.63a18.88,18.88,0,0,1,1.11,5.08c.19,9.93-2.06,19.24,13.58,21.74C844,944.9,852.81,961.73,855,982.18c.17,1.52,0,3.41,2.29,2.58,29.23-10.46,56-1.33,82.21,10.7,6.41,2.94,10.56,9.89,18,12.08a1.18,1.18,0,0,1,1,1.19c0,1.2-1.3,2.91-2,3.84-7.65,9.92-14.15,20.52-18.56,32.22-1.28,3.39,3.24,3.16,5,4A108.32,108.32,0,0,1,960,1058.89Zm-44.65,363.2c-1.06-.95-2.05-2.59-3.2-2.72-11.77-1.38-17.39-11.5-22.35-19.23-11.33-17.67-18.26-37.89-30.81-55.19-16.78-23.14-34.14-45.11-62.13-55.57-6.53-2.44-15.44-5.43-19.15-.87-6.23,7.67-10,17.37-16.29,25.61-11.87,15.55-26.31,26-45.74,28.56-20.19,2.68-40.92,1.69-63,10.13,6.47-.4,5.64,6,11.84,5,11.5-1.91,23.18-7.34,34.66-4.46,19.77,5,36.82-1.27,53.86-9.43,18.71-9,38-15.41,59.13-12.8,4,.49,8.12,2.29,9.69,6.64.2.55-2.8,3.31-3.68,3-10.47-3.33-20.91-2.55-31.13.42-14,4.09-28.72,6.73-40.24,16.37,19.13,6.13,39.66,6.4,58.79,14.12,15.12,6.1,30.24,12.06,44.67,19.64,1.24.65,1.63,2.94,2.42,4.47-1.55.39-3.45,1.56-4.6,1-20.14-9-40.64-17.14-62-22.71-10-2.61-20.47-3.42-31.92-5.24,13.12,13.7,25.45,25.8,42,32.65,2,.82,6.36,2.51,4.48,5.9-1.73,3.1-5.66,2.14-8.59.85a122,122,0,0,1-43-32c-5-5.74-9.8-11.24-19.54-11.66-18.44-.78-36.77-3.13-55.15.45-1.68.32-3.38.56-5.07.84.86,1.58,1.39,3.5,2.63,4.69,11.08,10.67,20.23,22.9,29.27,35.28,4.36,6,8.77,15,14.51,16.24,10.19,2.12,21,2.07,31.42,4.77a147.17,147.17,0,0,1,50.63,24.37c2.24,1.65,5.09,5.4,2.82,8.06s-4.72-1.14-7-2.35c-3.61-1.93-7.13-4-10.75-5.91-16.65-8.67-33.06-18.14-53-16.1-1.29.13-2.66-.54-4-.84.75,1.41,1.26,3.05,2.3,4.2,15.46,17.12,31.17,34,46.45,51.3A468.76,468.76,0,0,0,813.81,1529c2.16,1.93,4.63,4.91,2.79,7.17s-5.53,1.12-8-1c-5.28-4.48-10.62-8.91-15.75-13.56q-30.78-27.87-61.45-55.86c1.52,22.7,7.66,44,20.49,63.3,1.85,2.79,4.46,7.77,1,11-1.82,1.71-4.42-1.74-5.87-3.73-13-17.79-22.06-37.08-23.4-59.57-.67-11.19,1.17-24.94-4.56-32.92-11.46-15.95-24.41-31.07-36.39-46.81-.39-.51-1.69-1-2-.75a4,4,0,0,0-1.52,2.36c-2.09,16.23-3.37,32.6-6.33,48.66-2.66,14.41-1.06,28.77-1.89,43.12-.09,1.54-1.61,3-2.47,4.49-1.08-.9-2.82-1.61-3.12-2.71-1.07-4-2.39-8.11-2.3-12.16.33-14.15.67-28.35,2-42.43,1.1-11.14,5-22.11,5.25-33.21.18-7.22,6.43-14.55.87-21.6-6.89-8.74-14.51-16.9-21.43-25.61-2-2.46-2.89-1.73-4.18-.1-5.07,6.4-10.14,12.8-15,19.32-9.86,13.12-20.07,26-29.21,39.61-5.54,8.25.63,16.92,1.43,25.45,1.75,18.52-1.77,36.72-6,54.65-.72,3-1.76,7.41-6.48,7.69-.44,0-1.34-1.31-1.39-2.06-.54-7.91,1.64-15.42,3.21-23.08,3.08-15.09,4.17-30.3.27-46-7.13,13.8-13.33,27.12-18.79,40.87-2.89,7.29-4,14.83-6.57,22.07-.92,2.62-1.79,5.56-5.33,5.7-1.54.06-3.08-.4-2.73-2.55.95-5.68,1.07-11.68,3.06-17,5.1-13.52,9.55-27.17,16.13-40.3a459.06,459.06,0,0,1,27.47-47.45c-13.77,6.15-23,15.71-32.34,25.08s-14.49,21.9-24.94,30.21c-1.22,1-2.3,2.74-4,.44-1.16-1.58-1.62-2.63-.39-4.76,4.12-7.13,10.16-13,14.24-19.81,7.72-12.86,18.67-21.77,30.24-30.23,15.27-11.16,33.84-18.15,43.84-35.82-8.33,3.64-17.1,2-25.44.21-12.93-2.78-22.13-11-27.92-23-.48-1-1.92-1.54-2.91-2.29a8.19,8.19,0,0,0-.91,1.48c-6.55,19.15-17.6,26.94-38.13,27.67-3.61.13-8,.32-10.38,4.62-6.38,11.38-11.59,23.12-14.55,36-3.7,16.08-7.69,32.22-7.59,48.69.17,30.72,6.57,60.2,22.5,86.89,4.37,7.32,3.45,21,20.93,12.43,15.93-7.8,35.47-5.75,53.57-6.69,16.36-.85,33,1.09,48.7-6.06,2.91-1.33,5.46-4.37,9.58-2.89,14.76,5.32,24,18.31,37.06,26.22,18.22,11,37.94,16.33,58.25,20.47,14.23,2.91,28.68,2.42,43.17,2.77,19.73.49,39.06-.81,59.68-3-7.65-5.53-9.48-13.62-12.56-20.43-4.28-9.44-5.36-20-5-30.86.27-8.8-3-17.67-3.19-26.54-.42-17.22,6.87-33.94,3.83-51.43-.61-3.55,1.13-4.7,4.57-4.49,9.5.57,18.63-1.81,27.94-3.19,12.34-1.82,20.87-10.19,31.29-15.17C908.73,1428.64,911.84,1425,915.35,1422.09ZM927,289.21c-12.36-9.37-24.29-19.39-37.24-27.84-8-5.24-18.17-7.36-27.26-2.65-19.57,10.17-35.81,25.19-52.81,38.95-4,3.28-11.53,5.83-10,13.37,2.14,10.82,5.39,21.51-2.82,31.89,5.54-1,10.83,5.89,15.13.06,7.5-10.16,13.7-21.28,21.26-31.39,13.17-17.6,30.95-28,52.86-30.59C900.37,279.31,912.88,286.07,927,289.21Zm-10.91-20.09c-11.51-12.23-19.23-22.32-28.82-30.1-9.14-7.4-18.94-16.2-32.92-10.43-19,7.85-33.8,21.58-48.91,34.83-2.52,2.21-8.65,4.15-6.76,7,5.85,9,2.5,17.51.82,27.08,14.88-15.2,31.24-27.42,47.44-39.91,12.09-9.32,24.48-11,38.76-7C896.23,253.54,903.26,261.72,916.06,269.12Zm-50.58,815.26c8.39-7.5,12.82-20.35,8.34-32.28-3.15-8.38-9.07-15.87-14.53-23.17a71.34,71.34,0,0,1-13.77-39.8c-.86-20.59-4.46-31-23.11-39.32-5.44-2.41-13.44-9.24-19.2,2.25-3.79,7.55-8.8,15.63-15.49,20.31-7.67,5.36-8.63,8.28-1.93,14.55,16.9,15.81,21.35,44.95,6.43,59.15-16.59,15.8-20.24,33.82-19.39,55.11.82,20.53-3.29,40.15-18.59,55.61-1.17,1.18-1.36,1.24.17,2.29,11.88,8.15,24.13,15.4,33.55,17.41,20.79,1.07,36-9.79,41.09-24.67C837.39,1127.36,844.88,1102.8,865.48,1084.38ZM825.6,405.93c4.77-6.89,13.57-13,11.09-23.07-3.91-15.84-25.88-31.8-42.74-31.8-2.77-.69-4.78,1.23-7.09,2.91a127.76,127.76,0,0,1-26.45,15.32c-7.57,3.1-14.23,7-5.63,16.44,3.9,4.3,2.06,10,1.43,15.54-1.12,9.84-11.52,14.68-12.21,24.39-.87,12.13-11,24.74,4.18,35.81a80,80,0,0,0,41,15.09c5.71.51,13-1.5,17.43-5,8.72-6.92,7.87-17.84,8.52-28.1C815.94,430.35,817.59,417.51,825.6,405.93Zm-17.24,830c6.91-16.5-.3-41.44-16.81-47.92-9.47-3.72-19.6-6.32-27.81-12.19-8.82-6.32-16.34-13.85-28.18-6.87-4.17,2.46-8.67,5-13.31,5.81s-5.34,2.26-5.29,6.42c.23,16.75-9.63,29.43-25.81,34-12.43,3.54-23.67,9.64-32.34,19.09-21.14,23.08-46.17,36.72-78.15,32.39-8.42-1.14-8,3.28-8.29,7.87-.29,4.38.67,8.85,1,11.86-1.5,13.71,3.69,24.4,7.71,35.48,9.31,25.64,32.18,37.06,56.79,26.62,20.56-8.74,41.78-13.51,63.89-13.47,30.39.05,49.59-16.73,63-41.36,7.92-14.49,15.24-29,27.26-40.78C797.53,1247.51,804.9,1244.22,808.36,1236ZM787.56,959.1c11.08-9.57,14.68-33.85,8-46.69-5.09-9.82-14.48-13.47-22.79-18.62-12.94-8-23.26-21.46-41.9-20.66a51.2,51.2,0,0,0-5.28.06c-.9.08-1.7,1-2.62,1.28-21.49,7.37-31.93,27.35-47.34,41.65-1,.92-1.2,4.53-1,4.59,8.83,2.9,17.58,6.68,26.67,7.95,12,1.67,26,14.94,25.63,27.11-.17,5.93.78,8,7.54,6.89a36.93,36.93,0,0,1,23.06,4.2c9,4.8,17.27,8.51,24.83-2A34,34,0,0,1,787.56,959.1Zm3.87-631.17c.6-11.41-4-22.91-1.32-34.85,1.13-4.94,2.43-10.52-.21-15.65-9.65-18.71-25.32-26.15-46.18-24.17-7.32-1.1-15.31-.91-22,2.09-12.2,5.44-26.53,8.68-32.82,22.64-4.33,9.59-8,19.49-11.75,29.32-.61,1.6-2.94,2.42-1.09,5.35,11.12,17.56,19.64,36.06,17,57.7-.58,4.72,3.67,4.52,5.25,4.23,23.76-4.42,48.43-5.38,69.56-19.59C778.31,347.94,790.71,341.67,791.43,327.93ZM780,1043.18c8.39-8.37,11.57-18.71,8-30.65-6.94-23.39-24.49-35.26-46.44-41-6-1.57-14.87-4.17-20.39,2.56a116.82,116.82,0,0,1-23.38,21.76c-5.06,3.56-13.09,5.47-14.6,13.64-2.78,15-6.87,29.81-.32,45.15,6.87,16.07,5.39,30.8-9.24,42.85-2.78,2.29-4.26,6.61-4.88,11.23-2.2,16.28-7.71,27.11-27.4,30.84,3.53,3.23,6.49,6.65,10.1,9.13,21,14.4,43.82,22.38,69.28,15.91,10-2.55,19.61-7.53,26.71-16.05,15.38-18.44,14.68-41.07,15-62.72C762.75,1068.6,768.05,1055.11,780,1043.18Zm-4.49-286c.23-26.13-3.22-51.43-8.9-76.48-4.31-19-12-37.06-19.18-55.29-13.16-33.41-33.91-61.58-55.72-89.32-1.93-2.46-4-3.32-7.11-.05a73,73,0,0,1-25.13,17.53c-11.32,4.76-11.45,5.63-9.13,7.54a84.25,84.25,0,0,1,17.54,19.81c8.42,13,18.13,25.45,24.81,39.33,10.86,22.55,18.5,46.33,25.35,70.62,7.37,26.18,8.5,52.71,10.28,79.14.95,14-2.12,28.81-4.92,43.19-3.93,20.18-11,39.15-18,58.78,22.27-11.15,22.26-11.13,48.14-3.28.94.29,3-.28,3.23-.92,2.86-8,6.48-15.93,8-24.22C769.85,815,775.26,786.61,775.52,757.17Zm-41.63-332c2.89-11.52,14.35-19.73,14-32.1-.16-5.41-2.3-16.2-8.39-15a186.4,186.4,0,0,1-46.07,3.06c-1.72-.1-2,.72-2.4,2.28-3.72,14.84-10.84,27.88-19.49,40.55-3.68,5.4-15.71,10.79-7.09,19.62,12,12.31,27.53,18.58,46.39,19.5,8.12-.85,16.67-2.67,18.33-14.57A220.78,220.78,0,0,1,733.89,425.14Zm1.05,49.33c-1.38-2.58,2.42-11.6-7-7.08-7,3.4-13.64,6.62-21.59,5.66-3.06-.37-3.94,1.11-3.18,3.74,3,10.38,0,20.27-3.21,29.81-1.45,4.33-.45,4.32,2.89,4.36C716.53,511.1,734.93,490.78,734.94,474.47ZM715.7,794.68c2.49-24.1,1.4-47.89-1.16-71.55-2.31-21.32-8.91-42-15.86-62.42-10.19-30-25.92-57-44.27-82.23-7.53-10.38-17.92-18.93-33.71-19.94-18.32-1.17-18.08,13.38-23.37,22.67-10.8,18.95-12.53,40.09-12.54,61.67,0,13.3,2.35,25.82,5.93,38.39.72,2.53,1.73,6.65-1.41,7.53a15.71,15.71,0,0,1-10.4-1.18c-22.15-11.23-34.6-30.24-41.9-53.31-3.6-11.39-4-45.34,1.48-61.28-6.8,5.82-14.15,8-22.59,4.62-1.28,4.33-2.41,8.72-3.88,13-5,14.42-14.66,24.46-27.48,32.79-9.15,6-18.46,7.45-28.75,9.08-17.34,2.74-27.88-5.93-36.69-18.24-7.82-10.9-18.11-18.71-29.58-24.67-23.81-12.37-32.22-35.91-17.83-60.75,2.11-3.62,1-4.06-2.15-3.75-21.66,2.17-37.74-19-42.93-35.91-4.4-14.32,3.61-26,4.92-38.93a42.73,42.73,0,0,0-8.12-30c-.45-.62-9.48,5-14.48,7.77-17.29,9.66-35.54,15.06-55.63,13.57-9.26-.69-18.75.66-27.86-.72-16.1-2.44-32.06-4.87-47.63-11.17-18.34-7.42-38-11.83-57.41-16.22-5.6-1.27-14.05,3-14.67-5.82-.42-6.06,1.2-13.56,6.35-18.75,7.06-7.11,11.38-16.3,18.62-23.47,3.4-3.37-3.85-4.09-5.88-5.27C100,345.8,80.31,326.11,64,302.93V874.29c1.1-.58,2.22-1.13,3.35-1.63,10.42-4.55,20.39-10.34,32.31-9.7,3.39.18,4.83-1.82,5.22-4.61,3.51-25.16,16.14-45.69,33-63.84,4.55-4.9,7.21,1.13,8.7,4,10,19,27.59,26.74,46.63,32.41C217.3,838.06,238.74,849,258,866a173.56,173.56,0,0,1,28,30.86c1.7,2.45,3.56,4.59,3,12,8.16-23,27.52-15.25,40.7-21.7,13.51-6.61,18-19.75,24.54-31.25.82-1.45-7.86-8.7-12.58-12.76-9.43-8.12-19.54-17.1-18.12-30,1.26-11.54,14.39-15.35,22.78-21.88,6.26-4.88,13.78-8.12,20.46-12.51.83-.55.44-3.85-.19-5.57a228.49,228.49,0,0,1-14.11-70.43c-.64-17.42,2-34.07,4.55-50.94,1-6.45,1.16-13.69,4.35-19,4-6.57,8.58,1.25,11,3,14.31,10.42,27.15,22.92,41.76,32.84,13.75,9.33,28.71,16.41,45.59,20.1,17.5,3.83,35.36,7.25,50.87,18.51,10.42,7.57,19.9,15.11,26.69,26.11,2.54,4.12,5.75-.34,7.86-1.35,15.21-7.28,31.56-10.95,47.71-14.83,13.67-3.29,15.45,9,15.8,17.41.92,21.88.39,43.88-5.45,65.32-.31,1.12-.53,3.41,1.46,2.83,14-4.09,24.51,4.06,34.72,10.9a64.1,64.1,0,0,0,26.21,10.48c19.7,3.08,31.06,18.08,34.42,34.85C706.1,837.19,713.41,816.83,715.7,794.68ZM695.14,987c9.26-8.38,20-15.68,21.8-25.89,0-14.88-14.28-25-29.79-26.27A49.38,49.38,0,0,1,657,921.07c-9.28-9.12-16.07-20.22-32-14.19a52.49,52.49,0,0,0-20.77,14.48c-.57.63,3.13,5.1,4.86,7.79,1.33,2.07,3.12,4,3.94,6.22,4.63,12.65,2.88,25.86,1.75,38.65-1.17,13.16,8.73,4.24,9.29,4,9.67-3.71,40.73,3.56,47.11,11.28,5.74,6.95,12.09,12.48,19.42,1.29C691.57,989.08,693.7,988.32,695.14,987Zm13.4,198.84c.82-1.89,3.51-8.62-2.28-8.5-26.87.57-48.42-10.32-68.06-27.76-4.36-3.88-.64-16.38-12.41-12.1A31.84,31.84,0,0,1,611.68,1187c-17.47,6.39-35.49,11.46-48.15,26.39-.69.81-3.65,1.14-1.58,3.62,7.31,8.76,10.27,19,11.54,30.28.33,2.94-3.55,8.13,2.65,9.57,22.11,5.15,60.91-10.15,74.9-28.89,8-10.71,19.82-17.48,32.07-20.51C696.13,1204.27,703.69,1197,708.54,1185.86ZM694.37,483.67c.33-4.24,2.62-12.85-5.66-14.37-4.25-.77-7.51-3.44-11.24-4.23-12.05-2.56-20.49-28.79-36.63-5.86a16.17,16.17,0,0,1-7.2,5.43c-3.24,1.22-3,2.08-1.15,4.34,8.68,10.54,7,23.17,6.25,35.3A17.13,17.13,0,0,1,629.12,519c-13.34,6.52-29.7-.21-37.93-16.07-4.39-8.47-5.66-20-20-15.92-2.37.68-5,.56-7.62.82,6.86,8.51,5.4,18.92,5.37,29,0,3.22.79,4.38,4.15,4.2,11.65-.64,19.93,6,28,13.16,7.61,6.76,10.83,19.16,24.86,18.07,3.73-.29,7.47-.91,11.14-1.4,21.6-2.85,38.32-13.88,49.5-32.32C693,508.09,693.46,495.48,694.37,483.67Zm-5,382.5c1.64-13.08-9.1-29.39-21.93-31.51-11.53-1.9-23.16-4.37-32.62-12.76-13-11.5-28.35-13.46-42.17-4.72-13.3,8.4-27.22,8.12-42,7.5a36.77,36.77,0,0,0-30.84,14.07c-9,11.26-5.59,23-1.7,35.13,2.25,7,4.43,7.11,10.52,3.45,10.06-6.06,19.72-13.61,32.19-14.47,7.94-.5,15,1.9,20.3,7.58,11.83,12.58,10.93,28.28,10,43.91-.1,1.76-2.29,4.3,1.72,5.14,3.54.74,4.67-1.8,5.76-3.79,12.21-22.21,44.66-25.39,60.48-5.84,2.72,3.36,5.63,5.18,8.91.54C677.55,896.86,687.16,883.71,689.37,866.17Zm-6.29-618.35c.73-5.56-2.19-12.69-4.1-20-6.72-26-45-33.43-63.39-20.55-13,9.12-26.21,16.82-43.18,15.18-18.37-1.77-29.09,5.11-35.62,19.93-7.94,18-5.33,36.07-1.58,54.26.17.83,1.16,2.12,1.69,2.09a4.45,4.45,0,0,0,2.51-1.63c7.09-8.1,13-16.89,23.55-21.92,16-7.63,39.14-9.36,54,4.59,2.36,2.21,4.94,5.9,8.51,4.74,18-5.82,28-2.92,40,12.26,2.14,2.71,4.76,3.63,5.51,1.92A140.5,140.5,0,0,0,683.08,247.82Zm-4.5,138.11c3.55-11.84,7-24.77,3-35.86-5.87-16.48-12.12-33.36-24.51-47-6.63-7.27-13.46-12.18-23.31-9.85-7.26,1.71-12.82,6-14.77,13.93-2.95,11.94-4.24,24.22-13.12,34.29-6.71,7.61-17.92,14-14.38,26.89,5.09,18.49,2.32,29.15-12.18,41-7.31,6-31.32,8.31-35.86,3.3a215.41,215.41,0,0,0-28.09-26.41c-15.89-12.23-26.91-13.94-37.6-.62-8.48,10.55-4,25,.69,36.13,15.58,37.38,46.74,52.32,85,55.46,5.69-.47,11.05-1.07,16.54-2A112.37,112.37,0,0,0,638.56,446C656.19,429.35,671.36,410.06,678.58,385.93Zm-1.46,685.94c1.14-9.9-5.94-17.57-6.15-26.89a128.88,128.88,0,0,1,3.57-34.76c3-11.79-30.35-28.74-44.3-24.71-12.76,3.69-24.68,8.21-35.84,15.45-10.13,6.57-21.34,12.8-24.9,24.6a84.19,84.19,0,0,0-2.44,34c0,23.15,7.9,38.08,23.19,49.88,11.53,8.91,24.41,14.86,38,19.11,11.72,3.66,23.51,3.27,28.66-10.91,3.57-9.82,3.38-21.2,12.74-28.4C675.38,1084.87,676.34,1078.67,677.12,1071.87ZM620.75,512c11.3-1.18,8.72-11.27,11-20.13-2.28-6.1-5-13.29-7.64-20.49-4.29,1.89-8.56,3.79-12.86,5.63-.43.19-1.4,0-1.43.09-1.84,8.35-25.68-2.47-14.79,17.08C600.81,504.46,607.6,513.36,620.75,512Zm3.6,649.09c1.46-5.81-4-26.32-9-28-13.41-4.57-25.08-12.18-36.32-20.68-4.41-3.34-5.76-9.2-11.52-11.46-8.62-3.4-15.33.57-22.35,4.19a105.44,105.44,0,0,0-38.92,33.63c-7.19,10.4-11.3,22.69-13.81,35.82-6.07,31.87,6.43,48.09,36.94,50.51,10.24-1.78,19.14-8.3,27.4-16.44,9.13-9,18.5-17.34,31.19-22.12C601.87,1181.26,619.51,1180.34,624.35,1161.07ZM610.67,299.68c.67-3,4.25-7,3.32-8.35-5.82-8.19-15.47-11.54-24.44-11.64-22.45-.25-36.88,13.26-48.26,31.39-7.28,11.61-16.49,21.42-31.86,22-14.51.57-24.37,10.81-24.37,25.81-1.51,7.3,2.52,8.88,9.74,7.89A24.3,24.3,0,0,1,505.68,368c17.79,6.25,29.89,20.82,44.55,31.6,8.42,6.19,15.56,5.15,23.46,1.22,6.7-3.34,9.34-8.91,9.47-16.65.15-9.85-6.5-20.53-.52-29.23C594.52,337.67,606,320.52,610.67,299.68ZM586.46,995.73c15-7.52,22.85-16.62,20.06-33.37,2.27-7.44-.5-14.55-2-21.35-1.67-7.6-6.87-13.5-16.7-11.11-16.25,4-27.32,16.07-40.1,25.38-14.28,10.4-30.16,13.76-47.12,11.82-10-1.14-20,6.5-20.66,16.63-.87,14.27,8.8,24.66,12.32,36.86,5.11,17.71,16.93,11.33,27.07,12.18a32.07,32.07,0,0,0,12.55-1.94c11.15-3.81,25.49-1.41,32.29-13.91A52.52,52.52,0,0,1,586.46,995.73Zm8.17-195.19c4-22.18,5.94-44.71,4-67.3-.23-2.71.11-9.32-5.16-7.91-13.84,3.69-27.18,9.28-41.07,12.74-6.3,1.57-13,13.22-19.05,3.49-10.89-17.67-27-27.14-45.13-34.46-11.68-4.71-24.37-5.8-36.4-8.87-14.06-3.59-27.34-10.86-39.57-19.22C397,668.57,381.47,658.4,369,642.28c-1.41,6.07-3.68,11.4-3.71,16.75-.11,15-3.88,29.6-2.81,45,1.43,20.63,3.52,40.79,9.52,60.62,2.18,7.22,8.24,15.37-2.18,22-12.73,8.13-25.12,16.8-37.56,25.39-1.61,1.11-3.31,2.57-1.37,5.33,6.35,9.07,14,16.89,22.14,24.31,5.45,5,9.94,8.75,17.69,1.53,6.79-6.33,16.58-9.09,26.36-8.27,16.74,1.4,32.91,9.61,50.24,4,5.14-1.65,10.38-3,15.57-4.47-4.46-1.78-8.83-4.8-13.4-5.12-15.67-1.1-30.5-7.67-46.57-6.72-2.63.16-9.82,1.13-9.66-4.81.15-5.36,5.91-4.38,9.49-4.29,7.95.2,15.88,1.14,25.51,1.91a42.89,42.89,0,0,1-9.71-13.7c-1.83-4-8.88-7.91-3.4-11.71,2.63-1.83,7.14,5.62,10.37,9.49,5.64,6.73,8.25,18,17.93,19,15.06,1.53,28,8,41.52,13.39,1.18.47,2.42.79,3.63,1.18-.35-1.33-.34-2.94-1.12-3.94C478.71,818.05,469.84,807,461,796c-6-7.53-10.7-19.44-18.27-21.7-15.34-4.58-31-8.46-46.45-13.2-4-1.24-7.95-2.54-10.29-6.34-.33-.53.05-2.2.49-2.36,1.71-.67,3.8-1.72,5.34-1.26,13.94,4.19,27.79,8.67,41.61,13.05,0-6.78-5.83-9.45-9.35-13.93-13.76-17.51-27.05-35.4-40.09-53.45-2-2.74-5.67-7.76-2-10.44,4.21-3.08,5.73,2.67,7.85,5.4L425.21,737c-.36-5.49-.91-9.55-.84-13.6.12-7.06-.79-18.77,4.5-19.38,7.94-.93,2.12,9.2,4,14.11.32.82-.31,2-.18,2.91,1.32,9.21-3.31,19.49,3,27.63,12.66,16.41,26.62,31.84,39.17,48.34,9.94,13.08,21.73,24.82,28.62,40.46,1.47-2.35,2.72-3.64,3.14-5.15,2.05-7.46,10.39-14.21,7.76-21.38-5.31-14.51-13.45-28-20.19-42-2.05-4.27-7-9.76-2-13.36,3.2-2.27,5.54,4.1,7.74,7.31,8.13,11.87,11.94,25.61,17.23,38.71.49,1.23,1.85,2.1,2.81,3.14.93-.87,2.15-1.58,2.73-2.65,9-16.28,21.12-30,34.54-42.65.8-.76,2.05-4.13,4-1.63,1,1.29,2.79,3.1.58,5.62-6.14,7-11.92,14.34-17.78,21.59a19.27,19.27,0,0,0-1.77,3.3c.62.18,1.28.6,1.83.49,9.25-1.82,18.52-3.53,27.7-5.64,4.36-1,7.7,1.29,10.74,3.22,1.71,1.09-.7,4-2.46,4.35-11.51,2.27-23,4.65-34.65,6.11-8.76,1.09-24.4,18-24.06,27,3.38-1.65,6.83-3.3,10.25-5,12.65-6.26,26.58-1.59,39.31-4.5C579.65,812.46,592.45,812.55,594.63,800.54ZM595,566.37c10.94-14.69,11.35-17.13-2.36-27.1-6-4.38-7.89,2.29-9.28,4.88-9.62,17.88-15.11,37.19-18.55,57.18-.47,2.73-3.43,5-5.24,7.53-.51-.8-1.64-1.91-1.43-2.35,2.15-4.36-.85-8.55.39-13.35,4.38-16.85,7.1-34,16.54-49.36,1.17-1.92,16.56-9.06,1-13.58-4.48-1.3-8.55-.19-12,6.36-13,24.55-21.79,49.49-20.17,77.87C545.53,643,559.7,663.16,584.82,681c-9-13.57-8.8-26.38-9.45-38.52-.59-11.07,2-22.36,3.62-33.5C581.18,593.6,585.78,578.81,595,566.37ZM581.21,900.9c.21-7.25-.28-14.26-4.79-19.41-12.52-14.33-20-8.88-39.27,2.48-14,8.28-27.88,16.68-44.72,14.19-10-1.48-18.51-.89-26.13,6.1-11.52,10.58-14.27,24.86-11.71,38.59,2.82,15.09,9.76,29.41,15.71,46.36.43-3.19.62-3.91.62-4.63-.16-13.79,9.86-24.84,24.76-26.12,11.39-1,22.86.25,34.16-4.24,14.94-5.93,24.49-19.67,38.79-25.58C582.72,922.82,580.89,912.21,581.21,900.9ZM568.5,1328.34c1-11.42-3.49-21.88-3.77-34-10.88,12.88-28.73,15.91-44.38,9.94-13.26-5.06-27.14-8.76-41.7-7.22-11.34,1.19-23,5.05-33.89,3.3-14.17-2.29-30.07-8.57-36.37-21.46-11-22.49-18.08-10-26.75.17-11.29,13.23-20.95,27.68-22.37,45.41-1.88,23.62,14.72,41.57,38.42,43.22,15.85,1.1,30.67,6.15,45,12.52,15.38,6.85,29.74,5.77,43.59-3.33,18.4-12.09,36.79-23.83,60-24.1C556.11,1352.7,567.69,1338.09,568.5,1328.34Zm-2.85-77.86c1.15-3.12-1.25-9.29-3.31-14.22-2-4.7-.34-20.07-13.24-10.27-21.3,16.16-58.7,3.22-64.55-22.66-.75-3.33,1.76-10.16-5.23-10.16-15.27,0-28-7-41.08-13.51-3.39-1.68-9.62-4.82-10.06-4.18-5.26,7.57-10.82,15.31-14,23.86-3.43,9.22-4.65,19.3-6.44,29.08-2.09,11.37-4.38,24,.77,33.92,13.5,25.83,32.76,32,58.53,26,18.54-4.33,36.06.71,53.64,5.46,10.22,2.76,20.41,7.37,30.6-.22C565,1283.32,564.1,1268.11,565.65,1250.48Zm-4.72-738.93c.28-13.84-2.74-20-15.07-25.08-8.65-3.57-18.14-7.26-27.2-7.13-14,.2-43.75,31.36-46.7,45.31-2.43,11.5-.53,20.82,11.68,24.15,12.66,3.45,22.85,10,32.11,19a9.42,9.42,0,0,0,9.45,1.76c11.27-4.21,17.62-12.79,23.58-22.69A92,92,0,0,0,560.93,511.55Zm3.74,580.88c-8-20-6.91-40.41-4.91-61.23-1.35,0-4-.72-5.86.11-18.18,8-36.91,11.44-56.65,7.74-2.43-.46-4.33-.48-6.68,1.31a304.71,304.71,0,0,0-48.9,46.2c-14.29,16.93-18.15,35.07-16.42,55.47,1,11.26,2.29,22.84,14.58,29.11,11.25,5.73,22.72,10.67,34.95,13.71s6.24-8.38,9.6-12.41c.78-.94,1.42-2.64-1.43-3.5-13.83-4.19-28.06-7.55-39.94-16.43a5.24,5.24,0,0,1-1.76-4.17c.26-1.6,1.79-2.42,3.86-1.67,8.83,3.23,17.53,7.27,26.66,9.09,5.74,1.13,13.42,11.55,18.38-2,3.53-9.62-5.89-8.16-9.12-10.36-13.13-8.94-26.31-17.78-38.3-28.24-1.19-1-1.13-3.48-1.64-5.28,1.18-.21,2.72-1,3.47-.53,15.6,9.65,31.1,19.45,46.65,29.19,1.43.89,4.17,2.43,4.37,2.17a78.19,78.19,0,0,0,7.15-10.73c.39-.7-.93-2.94-2-3.74-14.17-10.65-24.31-24.7-33.3-39.64-.69-1.14-5.18-3.79-.93-5.74,3.16-1.46,6.37.09,8.33,3.16,9,14.17,20.77,26,33.31,36.87,5,4.39,5.56-3.58,8.76-4.92,2.14-.9,1.76-2.34.31-4.48-10-14.85-19.8-29.91-22.18-48.27-.17-1.32.9-2.8,1.39-4.21,1.54,1.24,3.82,2.15,4.52,3.76a360.12,360.12,0,0,0,21.32,40.56c2.63,4.36,4.07,6.21,8.24,1.63,2.09-2.29,5.44-3.43,7.79-4.83-3.36-6.51-6.62-12.58-8.48-20.29a197.69,197.69,0,0,0-6.34-20.89c-.73-2,1.89-5.25,3-7.92,1.24.88,3.53,1.71,3.56,2.64.42,10.83,7.45,19.59,9.2,30,.85,5.1,2.61,13,8.22,11.76S558.85,1092.77,564.67,1092.43ZM507.6,323c17.94-1.25,24.41-8.56,19-24.7-4.28-12.9-5.09-27.82-17.94-36.84C498,253.9,487.61,245.71,473.13,245c-10.57.72-20.92,3.14-25.93,14.52-8.37,19-18.23,36.84-32.7,52.19-6.62,7-8.05,17.73-4.89,26.66,8.74,24.79,29.53,37.58,51.84,48.26,1.37.66,5.12-.28,5.16-.73.64-6.8,6.38-9.71,10.46-13.64,2-2,2.27-2.58,1.45-5.47C473,347.2,485,324.54,507.6,323ZM510.31,886c2.93-2.6-.65-6.91-1.84-10.34-1-2.74-2.54-5.26-3.54-8-4.94-13.47-24.61-24.52-38.81-22.87-15.55,1.8-30.92,6.84-46.79,4.1-7.67-1.33-15.34-6.1-22.64-5.42-16.65,1.57-30.62,9.09-38.88,24.91-8.81,16.85-20.05,30.25-41.43,31.15-5.5.23-12.83-.75-16.79,6.06-8.41,14.48-10.47,37,4.32,49.55,4.82,4.09,7.95,10.18,12.13,15.73,3.67-4.49,6.61-9,11.87-12.31,9.68-6.06,20.14-9.08,30.82-12.35s15.56-13.28,22.14-21.53c12.68-15.9,46.62-25.08,65.46-.53,5.48-28.09,24.67-41,52.35-35.8C502.4,889.11,507.71,888.35,510.31,886ZM495.61,480.9c9.25-3.75,13.12-7.32,10.61-9.7-10.48-9.93-22-14.72-36.27-7.61C438,479.5,406.89,496.4,384.84,526c-14.56,19.54-16.58,38.61,7.06,53.38,11.48,7.18,23.41,14.19,32,25.44,7.44,9.74,14,21.75,27.88,18.19,20.7-.38,31.78-4.78,43.43-19.73,15.3-19.64,20-34.55-11.43-44.45-10.23-3.22-19.34-9-21.62-20C458.7,522.12,479.47,487.45,495.61,480.9Zm-17.75,560c4.78-4,13.18-6.57,6.6-15.53-2.11-2.88-3.78-6.07-5.88-8.95-17.2-23.62-39.49-31.85-58.24-3.14-8.07,12.35-13,26.62-27.74,33.33-6.05,2.77-13.71,4.26-13.6,13.37.05,13.83,20.83,37.49,36.3,40.81,2.09.44,4.4,4.3,6.85.55,4.33-6.63,10-12.53,14.06-19C447,1065,462.82,1053.5,477.86,1040.88Zm.47-588c3.45-.71,5.59-2.19,2.59-6.07-7.35-9.49-12.79-19.61-14.27-32-1.17-9.83-3.52-20-16-22.81-3.55-.79-6.9-2.82-10.13-4.67C417.22,373.88,394,360.14,364.06,359c-7.32,1.18-17.27,1.14-24.86,6.86-16,12.05-14,33.16-4.92,51.48,5,10.13,9.21,20.92,7.8,32.19-1.88,15.09-9.78,29.18-3.32,45.44,5.42,13.63,20.42,22.64,34.27,18.37,17.09-5.27,27-20.55,41.71-29.21C435.22,472.1,454.41,457.8,478.33,452.89ZM463,990.82c-5.85-15.63-12.38-30.37-16.87-45.69-9.27-31.58-38.22-33.75-54.45-15.75C377,945.71,361.52,956,341.58,963c-28.45,10-27.58,37-10.17,53,9.37,8.63,21.33,14.48,32.25,21.37,4.33,2.73,10.87,8.13,13.25,6.78,11.61-6.62,25.73-10.94,30.12-26.25C413.73,994.53,441.25,981.07,463,990.82Zm-58.6,194.34c10-6,25.43-10.65,14.74-28.49-2.21-3.68-2.06-9.07-2.12-13.68-.1-7.71.56-15.43.81-23.14.12-3.57.61-10.14-.07-10.27-11.74-2.32-20.84-9-29.54-16.56-7.65-6.6-12.5-14.85-16.72-24.12-2.87-6.29,3-15.7-8.46-19.31-19.24-6.06-37.91-13.37-58.19-4.56-25.11,10.89-36.92,37.73-13.81,61.5,10.95,11.26,21.77,22.8,23.11,39.89.83,10.74,1.1,21.81,8.26,30.9,11.78,14.93,27.72,20.19,47.33,19.62C382.37,1198.74,393.61,1191.65,404.43,1185.16ZM412.37,299c6.2-6.22,5.13-11.75,1.37-18.11-2.32-3.94-4.55-7.94-6.86-11.89-14.9-25.52-35.57-45.82-58.71-63.65-21.26-16.38-41.73-33.62-61.76-51.49-4.84-4.31-7.06-24.76-20.47-7-1.85,2.44-4.63,4.17-6.54,6.58a199.8,199.8,0,0,0-30.74,55.23c-3.25,8.7-.17,23.13-20.89,19.73-19-3.12-37.65,8.78-54.45,19.61-24.58,15.84-48.31,33.6-78.7,37.38-3.07.38-6,2.28-8.93,3.47,6.9,9.34,13.08,19.34,20.84,27.9,15.91,17.54,33.93,32.64,55.79,42.57,3.4,1.55,5.18,6.46,3.18,7.82-10.92,7.48-18.88,17.8-25.73,28.74-1.48,2.36-8.14,9.15-3.37,9.09,11-.14,20.55,3.89,30.66,6.11,21.31,4.69,41.44,13.45,63.15,17.31,18.94,3.36,38.38,6.23,56.63,3.39,16.11-2.52,33.22-6.67,47.6-18,6.6-5.2,5.15-10.32,3.94-13.85C313,384,322.2,362,337.44,356.79c1.69-.58,2.84-2.79,4.24-4.24a39.84,39.84,0,0,0-3.17-2.94c-6.89-5.18-12.71-2.41-19.59,1.21-17.66,9.29-37.47,13.86-50.18,32.24-10.42,15.07-26.74,24.58-44,31.61-2.54,1-3.61-.46-4.91-1.86-1.94-2.08.22-3.13,1.38-3.84,15.62-9.55,31.54-18.64,42.67-33.89,1.27-1.73,4.88-1.42,4.86-4.74-2.37.29-5.48-.24-6.93,1.07-2.14,1.93-4.28,1.13-6.38,1.71-11.59,3.16-24.06,3.74-35.06,7.28-13,4.18-26.28,3-39.06,6.43-1.89.5-4.59-2-6.92-3.17.79-.89,1.45-2.37,2.38-2.56,16.82-3.49,33.68-6.78,50.51-10.24,1.25-.26,2.31-1.46,3.46-2.23a17.54,17.54,0,0,0-2.38-1.58c-7.46-3.33-14.81-7-22.48-9.71-2.87-1-3.54-2.1-2.83-4.41.88-2.87,3.7-2.43,5.5-1.86,7,2.26,14,4.67,20.79,7.56,5.45,2.32,11.08,8.38,15.75,7.59,14.35-2.43,28.42-6.91,42.33-11.44,11.6-3.78,23.44-7.36,34.42-15-12.79-3-25.13-4.77-36.51-9-10.5-3.94-21.32-4-31.92-6.13-13.82-2.76-27.25-7.49-41.28,1.72-12.33,8.1-26.74,12.4-41.49,14.7-1.66.26-3.8.63-3.78-2.41,0-2.26.41-3.16,3-3.88,14.58-4,28.66-9.31,41.35-16.9-18.77-2.23-38-3.81-56.9-7.07-8.52-1.47-18.09,0-25.5-6.27a11.63,11.63,0,0,1-1.77-2.66c.86-.25,1.72-.54,2.59-.74,8.67-2,17,.51,25.55,1.54,14.21,1.71,28.47,3.7,42.74,4,17,.33,33.41,5.15,51,6.39a157.31,157.31,0,0,0-54.49-36.66c-4.2-1.73-9.91-5.36-7.72-10.22,1.64-3.64,6,.62,8.84,2.58a3.15,3.15,0,0,0,1,.23,91.49,91.49,0,0,1,46,27.11c16.85,18.58,38.59,23.64,61,29.1,9.3,2.27,19.46,3.19,30.15,13.86-5.26-7.52-4.18-12.17-5-16.5-1.79-10-1.44-22.15-7.17-29.17-14.16-17.34-31.32-32.22-47.1-48.25-3.14-3.2-5.52-7.14-8.26-10.74.6-.44,1.15-1.12,1.82-1.28,5.39-1.3,7.95,2.42,11.38,5.68,13.52,12.82,27.49,25.17,37.18,34-6.71-21.71-17.77-48.52-28.81-75.34-.59-1.43-3.19-2.87.05-4.68,2.61-1.46,3.87,0,4.82,1.64,3.57,6.27,7.34,12.48,10.29,19a566.48,566.48,0,0,1,31.07,85.93c2.24-7.18,6.56-12.81,7.1-20.4.93-13.12,1.7-26.12-.07-39.21-.25-1.9,1.59-4.08,2.46-6.13,1.7,1.42,4.46,2.56,5,4.32a90.78,90.78,0,0,1-.5,50.54c-4.15,13.66-13,25.2-9.4,41.27,2.41,10.68,12.49,23.12,23.58,21,15.85-3,29.5,2.89,43.63,7.67a10.75,10.75,0,0,0,2.74.17,20.7,20.7,0,0,0-.85-2.48C395,330.16,395.93,315.49,412.37,299ZM407,1196.69c.56-1,1.06-2.13,1.58-3.19a15.2,15.2,0,0,0-3.54.8c-4.4,2.17-8.56,4.94-13.12,6.68-14.71,5.59-29.31,6.29-45.1,2.57-13.87-3.27-33.68-18.55-38.07-30.75-6.24-17.33-1.93-38.64-18.11-52-8.19-6.78-11.05-20.64-27.06-20-19,2.17-39.84,4.34-58,15.59-16.47,10.19-30.29,23.3-26.12,45,2.48,12.86,12.86,23.39,14.28,36.82.87,8.27,1.51,16.28,7.53,22.49,12.46,12.85,29.63,16.44,45.56,22,21,7.39,38.64,17.78,46.35,40.28,11.14,32.54,27.44,31.62,53.85,17.53,15.69-8.36,23.33-24.48,36.37-35.16,9.51-7.8,14.54-15.83,14.33-29.29A81.28,81.28,0,0,1,407,1196.69Zm-53.7,176.15c2.91-3.66,10.57-8.21,7-12.24-15.43-17.45-11.26-36.12-6.14-55.8-7.54,6.17-16.76,8.61-25.24,12.6-11.44,5.39-33.56-5.27-38.35-16.35-4.35-10-7.24-21-14.89-29.49-3-3.31-6.64-9.75-10.11-5.42-4.34,5.44-18.18,6.74-11,18.8,4.87,8.19,10.14,16.15,15.45,24.07,1,1.53,1,3.48,4.73,3.8,18.88,1.65,33.85,12.86,49.4,22.39.72.44.5,2.66.4,4,0,.4-1.29,1.19-1.7,1-4.31-1.66-8.77-3.09-12.79-5.31-10.42-5.75-20.9-11.2-33.45-14.67,9.66,17.53,20.9,32.4,27.51,49.88.78,2.07.54,2.92-.8,4.12s-2.36.73-3.29-.56c-4.37-6.11-9.15-12-13.06-18.38-8.52-13.92-16.59-28.11-26.94-45.76,2.36,12.19.63,20.39,2.36,29.06,2,9.94,8.43,18.21,8.79,28.38,0,1.27-.88,2.58-1.35,3.86-1.19-.59-3-.89-3.46-1.84-3.64-7.79-7.06-15.69-10.47-23.59-5.31-12.31-5.86-25.24-5-38.38.42-6.86,1.16-14.3-4.33-19.32-3.29-3-5.91,2.12-7.6,4.09-5.75,6.72-15.91,11-17.26,19.66-1.4,9-.67,18.33-2.4,27.59-3.33,17.83-7.83,35.08-17.11,50.87-2,3.37-5.09,5-7.79,3.49-3.59-2,.54-4.51,1.31-6.58,2.08-5.54,4.82-10.83,7.3-16.23,6.38-13.91,5.49-29.47,9.86-43.86.7-2.28,0-5-.07-7.5-2,1.56-4,3-5.93,4.69-10.46,9.09-20.92,18.17-31.25,27.4-1.64,1.46-4.15,4.19-3.7,5.36,3.24,8.43,1.28,16.52-2.32,23.75a216.83,216.83,0,0,1-17.26,28.27c-2.13,3-6.54,8-10.38,5.29-4.6-3.2,1-6.23,2.93-9,2.5-3.6,5.5-6.89,7.62-10.68,5.65-10.12,13.84-19.41,12.3-32.09-21.69,15.63-43,31.11-64.59,46.35-1.52,1.08-5.42,1.32-6.3.3-2.14-2.47,1.43-3.31,2.71-4.5,5.66-5.24,11.46-10.32,17.35-15.3,4.89-4.12,9.59-8.66,15-11.9,15.54-9.28,27.83-22.43,44.87-34.91-21.26,2.12-39.1,3.45-55.62,12-2.19,1.14-6.7,5.45-8.84,1.35-2.36-4.53,2.21-6.92,6.07-8.75,19.46-9.23,40.1-12.26,61.41-12,1.9,0,4.46.13,5.61-1q27.36-25.85,54.33-52.08a3.66,3.66,0,0,0,.27-2.56c-9.84-2.82-19.86-8.09-29.54-7.53-10.89.62-21.41,6.72-32.2,10.06s-21.58,5.86-32.84,3.06a5.6,5.6,0,0,1-3.37-3c-.88-2.36,1.45-2.88,3-3.72,4.14-2.22,8.38,1.23,11.87.41,11.74-2.75,23.19-6.73,38-11.21-24.62-4.45-46.25-8.2-67.8-12.34-5.72-1.1-12.1-.55-16.8-5-.49-.46,0-3.09.66-3.43,5.44-2.76,11.07-1.32,16.66-.26l37.2,7c-12.49-14.29-26.56-23.16-43.18-28-2-.59-4.3-1.6-3.41-3.86.49-1.26,3.11-2.27,4.82-2.35a36,36,0,0,1,21.25,5.91c10.34,6.52,21.55,13,27,23.84,4,7.86,10.35,9.47,16.12,9.63,13.85.36,26.83,3.93,39.72,7.9,12,3.69,23.78,12,33-4.48,1.34-2.42,2.32-3.44-.56-4.6-11.82-4.76-23.51-9.9-35.54-14.06-21.23-7.35-36.94-18.66-36.52-44,0-2.33.4-7.35-4.68-8.11-14.06-2.12-27.84-4.84-42.41-2.25a132.56,132.56,0,0,0-48.11,18.78c-9.08,5.75-18.19,12.1-25.43,19.9v29c8.36,7.77,16.53,15.82,25.83,22.21,11.52,7.91,14.48,11.64,2.86,23.92-21.72,23-22.79,54.56-27.59,84.1-.31,1.85-.67,3.65-1.1,5.41v40c8.6,3,16.86,6.25,25.81,7.45,17.87,2.4,35.48,2.44,52.66-1.39,15.65-3.49,30.8-9.6,45.83-15.42,12.54-4.86,23.53-12.49,33.71-21.48,4.31-3.81,7.2-13.42,14.41-9.46,9.71,5.33,18.26,13,26.63,20.49,12.24,10.89,26.58,12.23,39.41,2.8C320.26,1402.05,339.34,1390.44,353.27,1372.84ZM304.6,1034.48c11.46-2,22.61-1.88,36-1.47-16.22-8.89-28.6-21.06-29.68-40.27-.3-5.24,1.46-11.91-1.12-15.46C301,965.2,292.21,953.86,274.44,952c-20.42-2.11-41.19,13.5-43.77,34-2.5,19.92-6.66,40-18.71,57-9.17,13-18.89,25.83-12.77,43.08,2.37,6.67,6.27,18,12.29,16a197.21,197.21,0,0,1,55.34-10c2.46-.11,5.31,1.65,3.75-2.94C263.39,1068.06,283,1038.35,304.6,1034.48Zm-18.32-90.22c.74-.39.49-3.7-.11-5.4-3.55-10.13,2.67-21.16-4.93-31.43-12.62-17.06-26.4-32.37-44-44.47-21.4-14.71-46.4-20.41-69.8-30.15-10.29-4.28-19.35-11.46-24.71-22a34.72,34.72,0,0,0-3.16-4.46c-1.5,1.69-3.1,3.31-4.49,5.09-8.32,10.59-12.38,23.37-18.39,35.14-3.27,6.42-3.69,13-4.91,19.28-1.61,8.27-6.93,6.83-11.62,7.14-13.65.88-24.78,7-36.15,13.95v52.32c14.47,4.28,28.82,8.94,43.25,13.36.35.11,1.63-1.26,1.53-1.48-4.33-8.83-8.37-17.84-13.32-26.32-4.72-8.1-10.44-15.61-15.6-23.45a3.48,3.48,0,0,1,.16-2.72c1.29-.29,3-.61,4,0,10.51,5.81,14.64,16.89,20.86,26.13s8.24,20.68,13,30.4c2.83,5.78,13.31,7.89,20.45,11.45,17.93,9,36.08,17.47,53.78,26.85,5.4,2.86,1.8-3.94,4.46-3.06-5.08-13.12.91-29.34-14.67-39.92-13.38-9.07-24.14-22-35.91-33.41-3.08-3-7.19-7.77-4.09-11,4-4.13,5.28,2.22,7.81,4.54,12.61,11.57,25.61,22.71,40.76,36-4.59-15.44-8.14-28.62-12.46-41.54a136.45,136.45,0,0,0-16.8-33.12c-1.15-1.71-2.51-5.3.43-7,.94-.53,3.9,1.17,5.06,2.57,9.56,11.68,15.83,25.19,21.23,39.37,7.1-11.64,13-23.63,15.16-37.2.24-1.49,2.28-3.4,3.83-3.79,2.45-.62,2.13,1.81,2.17,3.39.46,16.26-5.12,30.74-15.1,43-7.31,9,1.95,15.25,1.86,23.05-.12,10.73,3.74,21.44,5.08,32.26,1.26,10.25.22,20.94,2.65,30.84,1.23,5,7.91,8.62,12.4,13.15,6-17.73,5.34-36.52,16.84-51.54s29.13-20.88,47.23-15.3A8.87,8.87,0,0,0,286.28,944.26ZM209,1032c5.72-9.12,3.1-19.23-6.76-22.64-.81-.28-2.57.63-3.15,1.49-5.76,8.38-13.84,14.27-22.14,19.58-5.72,3.66-6.54,9.76-9.83,14.58-7,10.28-12,21.94-21.29,30.62-.94.87-2.89.67-4.37,1,.13-1.69-.28-3.69.48-5,4.45-7.87,9.2-15.57,13.77-23.37a9.2,9.2,0,0,0,.6-2.85c-1.09.15-2.37,0-3.22.48A218.25,218.25,0,0,1,98.64,1070c-3.28.94-6.82,1-10.25,1.33-.35,0-1.22-1.1-1.11-1.3.55-1.06,1.13-2.51,2.09-2.9,12.14-5,24.36-9.89,37.48-15.16-10.69-5-20.66-1.42-30.5-.89-3.82.2-7.85-.83-7.77-4.5,0-2.5,4.29-2.19,7.5-2.53,9.58-1,19.23-2.95,28.61-1,22.21,4.72,34.79-11.84,50.5-21.58a35.66,35.66,0,0,0,6.25-4.54c3.94-3.88,7.62-8,11.41-12.06-4.71-2.71-9.39-5.48-14.14-8.14-7-3.94-14.35-7.4-21.08-11.78-12.3-8-22.66-.86-34,2.76-14.45,4.6-29.3,7.72-44.83,7.87-4.89.05-9.81,1-14.78.8v17.75c.61.37,1.22.73,1.81,1.11,5.13,3.23,5,6.74.9,11-.91,1-1.81,1.92-2.71,2.89v66.69c20.6,3.72,41.38,4.13,62.07,2.67s41.18-6.37,60-16c6.29-3.21,3.46-10.4,4.11-15C192.26,1053,201.9,1043.28,209,1032Zm-8.84,76.74c1.16-.67,2.64-1.27,1.27-4.51-8.07-19.12-19.77-8.56-31.05-4.8-14.58,4.86-29.67,6.7-45,8.54-17.58,2.11-34.7-.08-51.93-1.13a85.9,85.9,0,0,1-9.49-1.12v109.49c16-14.38,34.4-25.35,55.43-31.63,17.56-5.24,36.09-7.39,54.5-2.35a21.06,21.06,0,0,0,3.19.39,11.09,11.09,0,0,0-.77-3.28C158.31,1148.44,177,1122.15,200.17,1108.7ZM129,976.85c1.41-.49,2.52-1.86,3.77-2.82-.81-.76-1.48-1.87-2.44-2.24-19.43-7.59-38.59-15.86-59-20.87-2.49-.61-4.94-1.36-7.38-2.18V989C86.47,989.49,107.94,984.23,129,976.85ZM87.67,1295.08c3.83-3.9,3.66-4.79-.64-7.7a196.62,196.62,0,0,1-23-18v66.34a87.09,87.09,0,0,1,9.12-21.17A106.5,106.5,0,0,1,87.67,1295.08ZM56,1618.34V61.66l-48-48V1666.34Z"/></svg>