<svg id="Card" xmlns="http://www.w3.org/2000/svg" viewBox="0 0 1024 1680"><defs><style>.cls-1{fill:#f2f0ed;}.cls-2{fill:#8c1707;}.cls-3{fill:#16592d;}.cls-4{fill:#d82e21;}</style></defs><rect class="cls-1" x="14.5" y="14.5" width="995" height="1651"/><polygon class="cls-2" points="966 1619.17 966 60.83 1018 8.83 1018 1671.17 966 1619.17"/><polygon class="cls-2" points="60.83 58 8.83 6 1015.17 6 963.17 58 60.83 58"/><polygon class="cls-2" points="8.83 1674 60.83 1622 963.17 1622 1015.17 1674 8.83 1674"/><path class="cls-3" d="M956.52,1457.54c-9-14.53-19.68-25.46-31.88-32.5-22.62-13.06-43.26-24.3-66.75-29.56l-4.52-1c-10.34-2.36-21-4.81-31.38-4.81-.66,0-1.31,0-2,0-1,0-2,0-3,0-8.95,0-17.76-1.16-26.28-2.28-4.72-.63-9.57-1.27-14.35-1.7a32.06,32.06,0,0,1-8.56-2.53c-2.77-1.12-5.64-2.26-8-2.26a5.44,5.44,0,0,0-4.64,2.43,51.8,51.8,0,0,0-10.76,30.54c0,.35,0,.74,0,1.16a26.78,26.78,0,0,1-.85,7.89c-1.44,4.45-4.56,5.39-6.92,5.39l-.6,0c-5-.33-10.76-3.3-17.66-9.09-26.2-22-50.89-44.4-64.9-76.61-.31-.72-1-2.29-1-2.29-3.19-7.23-6.49-14.71-6.2-22.16a91.44,91.44,0,0,1,1.36-11.19c1.17-7.14,2.38-14.51-.18-21.77a12.62,12.62,0,0,1-.16-5.82c.1-.74.2-1.5.23-2.18l.11-2.66,2.53.84c.57.19,1.21.36,1.83.52a14.22,14.22,0,0,1,4.6,1.79c7,4.83,15.36,5.77,23.43,6.67,1.81.21,3.85.44,5.8.71a22.59,22.59,0,0,0,3.16.22c7.33,0,13.56-3.6,20.14-7.42a76.35,76.35,0,0,1,13.72-6.74l1.11-.38,1.79,2.8-.81.85a212.81,212.81,0,0,0-29.25,37.93c-.21.35-.46.73-.73,1.13-2,3-2.59,4.58-.75,6.22.23.2.48.47.74.75.1.11.23.26.37.4,1.73-2.65,3.34-5.46,4.9-8.18,1-1.76,2.06-3.59,3.14-5.37,6.3-10.44,14.37-20.26,27-32.83l5.26-5.25-1.92,7.19c-.38,1.41-.65,2.5-.88,3.39a35.46,35.46,0,0,1-1,3.53c-6.11,17.13-11.31,32.66-13.15,49.19a227.31,227.31,0,0,0-1,40.92,12.09,12.09,0,0,1,0,1.52,4.14,4.14,0,0,0,0,.78h0a2.58,2.58,0,0,0,.39.22,2.11,2.11,0,0,0,.84.27c.06,0,.36-.19.69-1.41,1.37-5,1.41-10.43,1.45-15.64a88.54,88.54,0,0,1,.6-11.58c1.53-11.11,4.18-22.21,6.74-32.95,1-4.07,2-8.2,2.87-12.27a4.43,4.43,0,0,1,3.64-3.21h0a5.24,5.24,0,0,1,3.73,2.14,104.92,104.92,0,0,1,20.55,45,7,7,0,0,0,1.94,2.48,11.46,11.46,0,0,0,1.45-2.07c-.39-1.6-.77-3.19-1.15-4.79-3.23-13.52-6.56-27.49-17.17-37.78-9.39-9.12-10.37-10.07-8.88-11.78,2.44-2.74,3.34-6.51,4.29-10.5,1.69-7.07,3.6-15.07,14.71-17.8,17.36-4.26,23.15-19.79,26.83-35.93.86-3.78,1.41-7.78,1.94-11.65,1.66-12,3.37-24.41,14.06-34.59l3.61-3.43-.35,7.39c-.45,9.55-.87,18.57.3,27.56.51,3.86.93,7.79,1.34,11.6,1.61,15,3.26,30.48,10.49,44.4.18.35.34.71.5,1.06s.39.86.58,1.17l.06,0c1.94-.88,2-3,1.3-4.68-7.32-16.33-8.75-33.85-10.14-50.8-.36-4.46-.74-9.07-1.22-13.57-1.15-10.81,0-22,1.07-32.82.49-4.81,1-9.79,1.29-14.72l.3-4.86,3.2,3.66a444.78,444.78,0,0,1,43,58.45c.84,1.36,1.8,2.73,2.73,4.06,4.67,6.68,9.95,14.23,3.48,24.45a8.36,8.36,0,0,0-1.21,4.43c.14,5,.38,10.14.61,15.08.41,8.6.82,17.44.71,26.16-.25,18.73,2.94,37.72,9.74,58,.14.41.27.88.41,1.35.76,2.68,1.19,3.17,1.74,3.17a3,3,0,0,0,1-.22c2-.71,1.91-1.62.9-5.19-.13-.47-.27-.93-.38-1.39l-1-3.86c-4.16-16.65-8.46-33.87-8.52-51.82,0-2.1.06-4.23.12-6.28.18-6.25.37-12.62-1.21-18.94-1.64-6.54-3.17-16.29,2.48-25.46l2-3.25,1.53,3.5c.4.9.74,1.71,1,2.45a36.89,36.89,0,0,0,1.54,3.4c2.2,4.06,4.5,8.16,6.74,12.12,4.69,8.34,9.5,16.9,13.63,25.65,2.14,4.53,4.37,9.12,6.52,13.56,8.73,18,17.71,36.49,23.24,56.07a66.22,66.22,0,0,0,4.71,11.13c1.33,2.68,2.68,5.39,3.77,8.24a16.73,16.73,0,0,1-.49-2.12c-3.55-22.82-13-44-22.11-64.58q-2.58-5.77-5.11-11.56-1.11-2.58-2.2-5.16l-3.88-9.12,5.51,3.6c.87.56,1.81,1.11,2.71,1.64a33,33,0,0,1,6.16,4.28c7.47,7.1,15.18,14.51,22,21.06,8.89,8.55,18.09,17.39,27.21,26a10.86,10.86,0,0,1,1.13,1.3,8.15,8.15,0,0,0,1.36,1.46l.9.59v114.39l-.1.36c-.58,2.07-1.17,4.14-1.76,6.19l-1.25,4.34Zm-27-86.79a30.59,30.59,0,0,1,1.61,9,2,2,0,0,0,1.49,1.3.75.75,0,0,0,.34-.09c.41-.2.63-.55-.34-3.23-.46-1.27-1.07-2.57-1.67-3.82C930.5,1372.89,930,1371.84,929.56,1370.75Z"/><path class="cls-3" d="M958.56,1328.45c-2.34-2.43-4.81-4.85-7.19-7.19a169.29,169.29,0,0,1-14.22-15.09c-6.72-8.4-15.72-14.89-24.42-21.17-14.38-10.37-29.24-21.09-35.71-41-4-12.37-12-23.86-19.64-35-3.55-5.13-7.21-10.44-10.48-15.8a9.23,9.23,0,0,1-.94-2.35c-.1-.34-.18-.61-.28-.87l-.93-2.55,2.71-.14a7.13,7.13,0,0,0,.9-.11,11.53,11.53,0,0,1,1.69-.16,4.68,4.68,0,0,1,1.67.28c2.34.91,4.65,1.91,6.87,2.87a114.84,114.84,0,0,0,10.76,4.23c17.67,5.58,34.65,15.08,53.42,29.92a15.83,15.83,0,0,1,1.48,1.42c1.2,1.26,2.69,2.81,4.13,2.81a3.21,3.21,0,0,0,2-.9c-.07-.47-.64-2.42-5.14-6.9a4.15,4.15,0,0,1-.42-.32c-17.67-16.4-40.11-25-61.82-33.3l-1.8-.69a36.48,36.48,0,0,0-8.69-1.7c-5.56-.63-11.86-1.35-16.18-6.71q-3.23-4-6.4-8l-.11-.14c-11-13.88-22.29-28.21-36.66-39.23-.73-.56-3.32-3.11-2.59-5.34a2.51,2.51,0,0,1,2.41-1.7c2.92-.07,6.09-.46,9.16-.84a88.54,88.54,0,0,1,10.83-.91c5.51,0,9.69,1.11,13.15,3.48,14.67,10.05,29.21,19.56,45.79,25.44a85,85,0,0,0,28.5,4.92,89.64,89.64,0,0,0,12.91-1c4.06-.59,8-1.56,9.27-4.54a4.4,4.4,0,0,0-3-1.33,2.73,2.73,0,0,0-.59.07,72.58,72.58,0,0,1-18.74,2.49,75.83,75.83,0,0,1-18.93-2.47A153.56,153.56,0,0,1,835,1128.6a5.18,5.18,0,0,1-1.75-2.37,6.19,6.19,0,0,0-.31-.63l-1.62-2.79,3.22-.22.59-.06a8.46,8.46,0,0,1,1.3-.12,4.36,4.36,0,0,1,.81.07,57.4,57.4,0,0,0,9.53.73c4.67,0,9.45-.44,14.08-.86,4.8-.44,9.73-.89,14.68-.89a64,64,0,0,1,9.92.72,174.8,174.8,0,0,0,22.51,1.55c10.11.26,20.56.53,30.75,3.14l.22.06a9.84,9.84,0,0,0,2.26.42,1,1,0,0,0,.43-.06s0-.09.05-.26c.17-1.06-1.89-1.89-3-2.19-23.85-6.29-47.92-7.51-66.22-7.87-2.85-.06-6-.09-9.76-.09l-8.26,0h-.61c-3,0-6.14,0-9.51,0h-1.2l-.74-3.3,1.09-.51,5.36-2.55.57-.27c16.91-8.08,32.89-15.71,50.83-15.71a62.57,62.57,0,0,1,6.71.36,3,3,0,0,0,.82-.38,6,6,0,0,0-.41-1.24c-1.47-.23-3-.51-4.42-.79a54.19,54.19,0,0,0-9.7-1.25,17.27,17.27,0,0,0-3.73.37c-2.57.57-5.21,1-7.76,1.41-7.4,1.19-15,2.43-21.41,7.27l-1,.74-2.59-2.26.61-1.06c5.39-9.44,8-19.78,8.14-32.54,0-.87,0-1.82,0-2.83-.14-4.58-.3-10.28,2.87-13.55a8.47,8.47,0,0,1,6.31-2.39,21,21,0,0,1,6.25,1.13c5.74,1.84,11.63,3.47,17.34,5.05,13.22,3.65,26.9,7.42,39.78,14.09,7.74,4,15.47,8.34,23,12.86l1,.58v104l-.94.59-3.24,2c-3.8,2.35-7.74,4.78-8.86,9.35-.06.27-.16.63.92,1.58A148.24,148.24,0,0,1,961.47,1209l.53.57V1332Z"/><path class="cls-3" d="M874.5,947.32c-16.62,0-30.4-4.1-42.16-12.53-9.41-6.77-15.19-16.61-19.17-24.43a5,5,0,0,1-.44-2.28c0-.18,0-.36,0-.52l-.24-2.2,2.2,0,1.94-.05c.93,0,1.84-.06,2.76-.06.63,0,1.26,0,1.89,0a113.07,113.07,0,0,1,13.81,1.94,91.33,91.33,0,0,0,16.2,2,38.88,38.88,0,0,0,4.38-.23,11.09,11.09,0,0,1,1.18-.06c.68,0,1.38,0,2,.1s1.29.09,1.87.09c1.31,0,1.57-.25,1.58-.27s.12-.22.12-.69c0-1.38-3.1-2.66-7.69-3.19-10-1.14-20-2.3-31.25-3.6L803.36,899l-.36-3.36,1.14-.38c3.73-1.27,7.25-2.55,10.65-3.78,12.39-4.5,23.08-8.37,34.65-8.37.72,0,1.43,0,2.15,0h.54c3.24,0,5.91-1.07,6.31-1.66a.83.83,0,0,0,0-.34c-.35-.39-2.44-.45-3.33-.47a20.23,20.23,0,0,1-2.1-.13,67.19,67.19,0,0,0-8.25-.52c-13.37,0-27.08,4.22-40.74,12.54a10.27,10.27,0,0,1-5.33,1.73c-2.78,0-4.65-1.57-6.14-2.82a8.52,8.52,0,0,0-2.1-1.47,35.62,35.62,0,0,0-12.63-2.25c-10.44,0-20.19,4-26.07,10.78-1.29,1.46-3.8,3.9-6.26,3.9a5.09,5.09,0,0,1-.56,0c-3.48-.54-3.67-4-3.78-5.81,0-.47,0-.9-.11-1.3-1.4-9.55-8-18.2-18.11-23.71a58.79,58.79,0,0,1-23.84-23,96.65,96.65,0,0,0-7.89-10.94c-1.17-1.47-2.28-2.87-3.31-4.24L686.05,831l3-.71a59.12,59.12,0,0,1,14-1.7c18.06,0,34,8.62,47.27,17s30,13,48.19,13h1.46a6.51,6.51,0,0,1,1.14.09,32.74,32.74,0,0,1,3.94,1.22,18.19,18.19,0,0,0,5.14,1.32c1,0,1.57-.26,2-1.64l0-.06c-1.25-1.76-7.65-4.06-12-4.32-20.91-1.29-41.06-8.4-63.4-22.36l-6.1-3.81,7.19.11,2.77,0c15.19,0,28.8-2.06,40.12-4.07,3.92-.7,8-1.33,11.57-1.88,4.35-.67,8.81-1.37,13.16-2.18a28.87,28.87,0,0,1,5.19-.47c6.46,0,12.4,2.12,18.14,4.17a75.28,75.28,0,0,0,11.62,3.45,118.08,118.08,0,0,0,20.86,1.94A96.73,96.73,0,0,0,892.75,825a7.94,7.94,0,0,0,.85-1.59l-.53-.06a39.26,39.26,0,0,0-4.17-.31,11,11,0,0,0-2.51.25,108.42,108.42,0,0,1-24.54,3,83.62,83.62,0,0,1-28-4.66,26.76,26.76,0,0,0-5.36-1c-1.24-.15-2.63-.32-4.19-.58l-1.26-.2v-3.54l1.26-.2c12.95-2.12,24.06-7.14,34.79-12,3.83-1.73,7.78-3.51,11.74-5.13a10.84,10.84,0,0,0,3.06-3,3,3,0,0,0-1.61-.42,12.22,12.22,0,0,0-4.49,1.37l-.11,0-.9.4c-15.67,6.57-36.57,14.53-59.25,17.69-7.68,1.07-15.17,2.39-23.84,3.91l-.18,0c-4,.7-8.2,1.43-12.71,2.19l-1.17.2-1.3-3.09,1-.7c4.13-3,8-5.85,11.77-8.61,8.4-6.19,16.33-12,24.42-17.45a117.49,117.49,0,0,1,13.91-7.58c2.12-1,4.3-2.09,6.4-3.19l.55-.28c3.48-1.81,3.42-2.27,2.66-3.77-.53-1-1-1.16-1.47-1.16a8.22,8.22,0,0,0-3.2,1.17c-.39.2-.73.38-1,.51-22,10-42.48,24.17-62.72,43.46a12.32,12.32,0,0,1-9,3.4,39.85,39.85,0,0,1-5.27-.47,35.14,35.14,0,0,0-4.69-.44c-.38,0-.77,0-1.15,0-5.07.45-10.55.66-17.24.66-4,0-8-.07-11.91-.14h-.1c-3.71-.07-7.55-.14-11.24-.14h-4l2.36-3.19c11-14.84,24.72-31.8,43.1-45.08a83.55,83.55,0,0,1,7.5-4.65c2.17-1.23,4.38-2.5,6.41-3.89l.16-.11c.48-.33,1.28-.88,1.34-1.21,0-.16-.08-.63-.64-1.4a4.31,4.31,0,0,0-.6-.68l-.46.38a6.74,6.74,0,0,1-1.43,1c-24.14,11.9-44.2,29.93-59.61,53.59-4.58,7-10.66,8-16,8-1,0-2,0-3-.06h-.12c-.88,0-1.75-.06-2.61-.06a22,22,0,0,0-2.74.14c-14.12,1.62-25.14,8.49-36.81,15.76l-2,1.28-1-1.91c-2.31-4.44,0-7.64,1.81-10.22a22.87,22.87,0,0,0,1.5-2.28,26,26,0,0,0,1.69-4.54,23,23,0,0,1,2.7-6.39,39.51,39.51,0,0,0,4.12-9.28c2.34-6.7,5-14.3,13.8-16.83,22.54-6.49,38.43-23.2,52.45-37.94l.54-.57c3-3.17,2.89-3.81,2.34-4.37-.16-.16-.46-.43-.68-.43-.66,0-2,1.29-2.84,2.15-.42.42-.85.83-1.27,1.21l-4.86,4.37c-8.61,7.73-17.49,15.71-26.85,22.8-3.73,2.83-8.31,4.31-12.35,5.6-1.61.52-3.14,1-4.45,1.55l-4.68,1.88,2.11-4.58c10.15-22,25.77-41.45,40.88-60.26l2.8-3.49a6.84,6.84,0,0,0-.08-1.8,3.24,3.24,0,0,0-1.16.43c-14.57,13.41-27.1,29.07-38.31,47.88l-2.57,4.31c-7.61,12.76-15.44,25.88-22.33,38.9l-1.92,3.62-1.68-3.74c-15.59-34.88,5.7-57,26.29-78.29.5-.51,1.08-1,1.7-1.53a11.12,11.12,0,0,0,2.35-2.37l0,0a1.73,1.73,0,0,0-1.32-.63c-1.74,0-4.39,2.26-5.39,3.11-12.58,10.77-27.8,25.85-33.86,47.11-3.44,12.12-1.44,24.16,5.48,33s2.75,14.86-.63,19.63a21.88,21.88,0,0,0-3.26,5.65l-.4,1.24-3.55-.6,0-1.31c.34-12-3.13-22-10-29.13-7.45-7.66-18.48-11.71-31.91-11.71a73.86,73.86,0,0,0-11.83,1l-3.75.62,1.62-3.44c10.69-22.75,26.24-42.47,47.57-60.29,20.65-17.27,45-25.85,63.91-31.4,14.26-4.18,28.25-8.13,42.55-10.43a4.06,4.06,0,0,1,.76-.07c4.61,0,5,5.94,5.36,10.28.07,1,.14,1.91.24,2.59,1.86,12.77,5.24,27.34,16.21,38.56l.1.1a8.5,8.5,0,0,0,.69-.58,6.35,6.35,0,0,1,2.36-1.5,63.72,63.72,0,0,1,18.22-2.54c12.92,0,25.59,3.44,37.85,6.76l1.31.36c2.85.77,5.68,1.56,8.5,2.34l.46.13c15,4.19,30.58,8.52,46.92,9.74,9.59.73,20.08,1.06,33,1.06,6.66,0,13.42-.08,20-.16l2.83,0c10.53-.13,21.41-3.12,33.27-9.13l3.78-1.92-.93,4.14c-.64,2.86-1.26,5.73-1.88,8.58-1.33,6.18-2.71,12.57-4.32,18.83-5.67,21.83-12.8,38.25-22.44,51.69-2.63,3.66-5.15,7.55-7.58,11.31-6.14,9.48-12.49,19.28-21.42,27-6.76,5.82-3.85,9.91.17,15.57.73,1,1.47,2.06,2.14,3.12A104.69,104.69,0,0,1,907,925.57a15.41,15.41,0,0,0,1.2,3.4c.21.48.42,1,.62,1.44,2.11,5.32,2.27,9.17.49,11.78-2.11,3.11-6.22,3.54-10.35,3.54h-3.1a18.19,18.19,0,0,0-2.45.12A131.09,131.09,0,0,1,874.5,947.32Z"/><path class="cls-3" d="M737.69,317.46a3.39,3.39,0,0,1-2.68-1.18,4.74,4.74,0,0,1-.68-4.06,16.77,16.77,0,0,1,3.37-7.49c4.06-4.79,5.59-9,5.12-14.15-.82-9,5.74-12.64,11-15.58a36.42,36.42,0,0,0,4.61-2.88c15.22-12.05,36-25.9,61.93-25.93,8.9,0,18,2.89,24.9,5.41,21.4,7.81,43.81,11.6,68.49,11.6,2.47,0,5,0,7.54-.12,1.11,0,2.24-.05,3.61-.05H928l6.26,0h1.33l.44,3.62-1.29.32c-23.89,5.88-43.77,10.37-64,10.37-3.8,0-7.58-.16-11.25-.49-4.83-.42-9.71-1-14.43-1.63-7.38-.93-15-1.9-22.51-2.13l-1.59,0c-16.94,0-30.93,8.39-43.53,17.44l-6.78,4.89c-9.52,6.86-19.37,14-29.18,20.78A7.69,7.69,0,0,1,737.69,317.46Z"/><path class="cls-3" d="M741.3,276.57c-3.47,0-6.77-1.92-10.09-5.89a10.17,10.17,0,0,0-3-1.93c-.7-.36-1.42-.72-2.14-1.16L724,266.28l3-3.1c16.86-17.25,34.28-35.08,57.91-43a76,76,0,0,1,24.13-4,72.91,72.91,0,0,1,31.2,7c24.4,11.46,53.23,24.19,86.56,30.14l1.17.21.19,3.33-1.13.34a38.2,38.2,0,0,1-10.22,1c-13.86,0-35.37-3.06-41.63-4-8.35-1.27-16.51-4-24.41-6.61-10.48-3.49-21.31-7.09-32.3-7.09a48,48,0,0,0-8.28.7c-20.89,3.64-40,13.33-56.75,28.78C749.73,273.41,745.7,276.57,741.3,276.57Z"/><path class="cls-4" d="M802.52,1113.64a100.41,100.41,0,0,1-16.32-1.37l-5.14-.83c-14.73-2.39-29.95-4.85-44.41-10.27-5.79-2.17-6.5-7.1-7-10.37-.06-.45-.13-.88-.2-1.28-2.91-16,.63-30.65,10.53-43.51,8.46-11,3.81-38.78-5.49-48-7.08-7-13.5-11.11-20.83-13.4-2.39-.77-2.62-4.78-2.56-5.73a41.63,41.63,0,0,0-3.29-19.18,4.17,4.17,0,0,1,.22-3.1,2.4,2.4,0,0,1,1.48-1.36c16.05-4.62,22.59-18.18,28.92-31.28.93-1.92,1.86-3.85,2.81-5.75,5.69-11.3,15-19,27.79-23a32,32,0,0,1,9.41-1.51c10.21,0,19,5.79,26.26,17.19,9.37,14.8,20.16,29.78,35.59,39.08a92.33,92.33,0,0,1,29.73,28.58c3.83,5.72,4.38,12.32,5,20,.07.88.15,1.78.23,2.7l0,.21,0,.28c-1.21,6.14-3.78,12.14-6.51,18.5-1.63,3.8-3.3,7.7-4.67,11.63a90.36,90.36,0,0,0-4.87,30c.26,23.66-8.21,38.68-25.9,45.91A81,81,0,0,1,802.52,1113.64Z"/><path class="cls-3" d="M847.27,560.61c-7.21,0-14.3-1.41-21.15-2.77-2.84-.57-5.77-1.15-8.68-1.63-15.49-2.53-28.05-10.84-40.19-18.88-2.47-1.64-5-3.33-7.58-5-4.11-2.61-7.47-6.27-10.71-9.82-1.82-2-3.68-4-5.62-5.81-12.86-11.82-29.5-16.54-45.6-21.11l-3.31-.94c-16.36-4.67-33.45-5.62-50-6.54-6.18-.34-12.57-.7-18.9-1.25a15.9,15.9,0,0,1-2.52-.48l-1-.22-2.31-.5.87-2.2a6.07,6.07,0,0,0,.25-.82,5.59,5.59,0,0,1,1.54-2.93c2.08-1.8,2.43-4.37,2.83-7.34.43-3.23.92-6.88,3.84-9.92,2.3-2.4,4.22-3.38,6.63-3.38a9.88,9.88,0,0,1,1.17.07l9,1.05c12.51,1.45,25.44,2.94,38.13,4.92,28.28,4.44,60.28,12.78,83.25,41,9.09,11.19,18.25,21.87,30.27,29.5l2.09,1.33c10.4,6.64,20.21,12.9,32.59,14.28a19.39,19.39,0,0,1,6.5,2.35c2.19,1.1,4.27,2.14,6.52,2.14a7.81,7.81,0,0,0,1.18-.09l1.45-.24.72,3.87-1.43.3a48.65,48.65,0,0,1-9.89,1Z"/><path class="cls-3" d="M843.29,547.92c-24.91-8.81-43.65-21.94-60.75-42.56-15.78-19-36.62-32.12-61.92-38.91-15.55-4.18-31.63-6.24-47.18-8.24-8.73-1.12-17.69-2.27-26.49-3.78a4.6,4.6,0,0,1-3.48-2.25c-1.28-2.36,0-5.35,1.24-8.24a18.41,18.41,0,0,0,1.17-3.19c1.24-6.66,5.29-10,12-10a40,40,0,0,1,7.29.87c1.1.2,2.11.39,2.91.47,3.45.36,7,.43,10.5.5,6.32.12,12.85.24,19.44,2.06,12.65,3.48,27.57,7.77,42.26,13.2,18.08,6.69,33.83,18.41,51.09,38,5.82,6.61,11.3,13.66,16.6,20.47,5,6.4,10.12,13,15.49,19.2,3.58,4.12,8,7.71,13.15,11.87,2.58,2.08,5.5,4.44,8.63,7.13l.94.82-1.74,3Z"/><path class="cls-4" d="M684.07,1278.63c-9.22,0-18.91-3.31-30.49-10.4-15.51-9.52-23.41-24-29.63-38.16a3.28,3.28,0,0,1-.06-3.26c1.11-1.7,2.93-1.75,13.68-1.75h.13c2.09.18,4.14.27,6.11.27,23.57,0,41.54-13.11,52-37.93,5.92-14.08,15.76-22.25,27.06-30.73A30.56,30.56,0,0,0,735.05,1134c.08-1.31.25-2.6.4-3.75.38-2.92.71-5.44-.09-8.31-1.38-4.9-1.25-8.19.38-10.35a6.18,6.18,0,0,1,5.24-2.28,22,22,0,0,1,7.76,1.85c17.77,7,37.63,16.19,48.48,36.9,7.75,14.77-.15,25.81-8.9,34.66-7.82,7.9-9.75,18.33-11.17,29.22-2.38,18.16-5,29.51-12.1,37.46s-18.32,12-38.59,13.77c-6.75.59-13.06,4.38-19.16,8l-2.23,1.34A40.34,40.34,0,0,1,684.07,1278.63Z"/><path class="cls-4" d="M706.71,951c-3,0-6.21-1.78-10-5.63-12.11-12.29-14.13-26.21-16.27-41,0,0-.32-2.22-.46-3.16-2.67-17.89-13.82-26.59-34.09-26.59-1.31,0-2.69,0-4.08.11a90.78,90.78,0,0,0-13.43,2.07,108.51,108.51,0,0,1-16.53,2.48l-4,.22,2.26-3.34c14.29-21.08,29.5-40.09,58.34-41.13l1.1,0c14.14,0,20.47,10.22,26,19.23.87,1.41,1.74,2.81,2.63,4.18C703,865.8,710.27,872,719.74,876.9c6.64,3.43,12.17,10.79,14.78,19.69,2.4,8.14,1.86,16.13-1.48,21.92-1.41,2.46-2.63,5.15-3.8,7.75-2.69,5.93-5.45,12-10.94,16.76-1,.85-1.92,1.81-2.81,2.73C713,948.32,710.42,951,706.71,951Z"/><path class="cls-4" d="M676.15,424.57c-14.25,0-29-5.36-36.72-13.34-17.91-18.54-21.77-29.75-22.37-42.85v-.11c.67-22.7,12.08-40.55,23.71-56.88,13.08-18.35,26.41-29.47,41.93-35,8.79-3.13,16.65-4.65,24-4.65a45.74,45.74,0,0,1,22.14,5.5c5.09,2.78,8.07,6.41,8.87,10.77,1.23,6.72-3,13.41-6.85,17.84-17,19.79-14.9,41.91-12.66,65.32,1.4,14.66-3.75,29.85-14.5,42.79C698.08,420.81,688.28,424.57,676.15,424.57Z"/><path class="cls-4" d="M632.14,1219.8a41.07,41.07,0,0,1-13.5-2c-23.2-8.18-32.72-18.65-54-46.49l-3.77-4.94,5.94,1.81a47,47,0,0,0,13.65,2c11.09,0,21.41-4,29.17-7.47,16.66-7.48,35.55-16,47.89-32.59,10-13.4,16.12-29.26,20-51.43,3.12-17.84-.07-33.79-10.07-50.18a3.36,3.36,0,0,1-.65-2.87c.47-1.55,1.78-2.15,6.65-4.39,15.24-7,26.06-16.87,33.08-30.2l.2-.39c.66-1.26,1.48-2.85,3.65-2.85a8.21,8.21,0,0,1,2.94.72c12.27,4.83,20.51,13.1,23.83,23.93,3.83,12.51.84,27.65-8,40.5-9.6,14-7,30.75-3.74,43.81l.44,1.72c4.57,18,9.31,36.7-6,52.62a72.9,72.9,0,0,1-10,8.18,76.05,76.05,0,0,0-9.56,7.78c-4.87,5-7.75,11.37-10.54,17.58s-5.81,12.93-10.94,18.38C670,1212.45,649.49,1219.8,632.14,1219.8Z"/><path class="cls-4" d="M664.07,1020.59c-3.74,0-6.54-2.92-8.21-4.66l-.53-.54c-2.86-2.91-6.06-3.59-9.76-4.37l-.86-.19a5.73,5.73,0,0,1-4.13-2.69c-1.18-2.19-.23-4.64.46-6.44l.14-.37c2.9-7.58,2.29-16.35-1.72-24.68-4.69-9.74-13.2-17.38-22.76-20.42-8-2.55-16.37-2.76-24.5-3-9.7-.25-19.73-.5-29.17-4.67a67.25,67.25,0,0,1-18.7-12.82c-1.71-1.65-.65-4.16.83-7.65a26.31,26.31,0,0,0,1.83-5.26c.14-.84.27-1.68.4-2.51,1.94-12.47,4.12-26.52,20.12-32a39.53,39.53,0,0,1,5.15-1.26c.82-.17,1.68-.34,2.58-.54l.53-.12.52.17a44.69,44.69,0,0,0,14.09,2.17c8.64,0,17.39-2.17,25.84-4.27a158,158,0,0,1,19.19-3.93,97,97,0,0,1,11.32-.87c9.49,0,16.42,2.82,21.82,8.89,7.19,8.07,7.16,18.44,7.13,26a41.7,41.7,0,0,0,12.55,30.48c21.6,21.8,21.76,37.51.61,60a58.88,58.88,0,0,1-22,14.92A7.51,7.51,0,0,1,664.07,1020.59Z"/><path class="cls-4" d="M571.25,1165.56c-11.24,0-11.73-10-12.17-18.8-.07-1.47-.15-3.13-.28-4.73-.94-11.37-4.71-19.13-11.89-24.41-1.35-1-2.2-2.86-2.5-5.54-.91-8,2.92-23.54,7-28.24,8.52-9.91,19.75-12.64,30.61-15.28a117.09,117.09,0,0,0,13.14-3.73c8.23-3,14.34-10.45,18.15-22,4.21-12.74,10.62-26,26.22-27.34.78-.07,1.56-.11,2.3-.11,14.54,0,21.55,12.43,26,23.26,10.44,25.26,7.49,51.1-9.29,81.32-11.78,21.19-32.53,30.49-54.57,38.9l-1.56.6c-7,2.7-14.28,5.49-23.73,5.49-.62,0-1.25,0-1.89,0A26.59,26.59,0,0,1,571.25,1165.56Z"/><path class="cls-4" d="M612.6,385.74h-.79a3.27,3.27,0,0,1-1.7-.41c-3.59-2.1-7.36-4.11-11-6.06-12.51-6.69-25.37-13.58-34.9-25.16-1.32-1.6-2.73-3.23-4.09-4.82-7-8.11-14.14-16.44-15.82-26.62a75.28,75.28,0,0,1,1.08-27.4c6.76-29.83,17.78-49.57,35.76-64,10.33-8.3,20.11-12.22,30.78-12.31,21.35.1,41.68,17.23,47.31,39.84,2,8.27,4.08,20-2,26.62-1.89,2.06-3.94,4.11-5.93,6.08A103.14,103.14,0,0,0,640.86,303c-15,20.46-29.5,42.75-27.92,70.55,0,.58,0,1.15,0,1.65-.06,1.66,0,2.36.93,3.05,1.38,1,1.16,2.77,1,4.32-.06.43-.11.87-.12,1.18l-.05,2.06Z"/><path class="cls-3" d="M566.94,550.85c-10.33,0-18.92-6.93-25.52-20.6-8.2-17-10.58-35.46-12.88-53.35-.52-4.07-1.11-8.68-1.77-13.12-1.25-8.43-1.33-16.86-1.41-25,0-4.08-.08-8.27-.27-12.37a9.27,9.27,0,0,1,.3-2.44c.05-.26.11-.53.15-.79l.48-3,2.56,1.59.59.35a8,8,0,0,1,1.89,1.31,97.31,97.31,0,0,1,8.28,9.85c3.41,4.44,6.93,9,11.47,12.68,3.12,2.5,3.51,7,3.88,11.33a29.22,29.22,0,0,0,1.56,8.52,26.49,26.49,0,0,0,15.56,15.12,26.08,26.08,0,0,0,9.38,1.88c6.72,0,12.74-3.18,17.41-9.18,9.41-12.1,11.38-24.24,6.19-38.2-1.23-3.28,1.7-6.82,5.09-10.93,2.2-2.66,4.46-5.41,5.44-7.9,1.64-4.2,4.36-9.78,9-9.78,3.89,0,7.18,3.85,10.78,8.51a8.38,8.38,0,0,0,2.71,1.79c2.54,1.29,6,3.06,6,8.24v.22l-.07.29c-1.55,4.89-3.05,9.8-4.5,14.56-3.26,10.66-6.62,21.68-10.53,32.32-8.11,22-16.48,44.8-33.4,62.54-9.71,10.17-19.51,15.55-28.34,15.55Z"/><path class="cls-4" d="M527.49,1394.63c-10.48,0-19.07-6.3-27.37-12.4-12.37-9.06-27.14-11.63-39.95-13-19.54-2-40.65-24-45.78-41.56-2.24-7.68-2.44-15.33-2.63-22.72-.17-6.75-.35-13.73-2.16-20.41-1.29-4.75-.18-10,1-15.48.55-2.59,1.11-5.24,1.46-8l.89-6.93,2.91,6.35c6.24,13.6,12.76,22.49,21.15,28.85a45.24,45.24,0,0,0,28.16,9.68c8.25,0,17.3-2,28.48-6.21a78.4,78.4,0,0,1,28.26-5.13,99.43,99.43,0,0,1,22.29,2.69,73.45,73.45,0,0,0,16.62,1.91c27.74,0,48.06-15,54.34-40.2.6-2.43,1.22-4.85,1.77-7l1.86-7.38,2.51,3.43c11.81,16.13,23.66,36.14,21.94,62.29-1.44,21.69-20,42.3-41.27,45.93-8.25,1.41-16.29,6.6-25.31,16.34-11.81,12.77-26.5,28.65-48.89,28.88Z"/><path class="cls-4" d="M624.16,1011.15c-3.1,0-6.77-1.42-12.28-4.77-7.93-4.82-17.88-8.57-29.57-11.16a202.61,202.61,0,0,0-25.92-3.5h-.11c-2.47-.22-4.61-.41-6.38-.62-1.07,0-2.16,0-3.24,0-16,0-28.35,2.88-40.27,5.66-3.33.78-6.48,1.52-9.72,2.2a13.77,13.77,0,0,1-2.46.21l-.86,0-3.71.21,1.86-3.21c.18-.31.37-.61.57-.91a6.93,6.93,0,0,0,.76-1.37c1-3.07,2.08-6.16,3.11-9.15,2.53-7.3,5.13-14.84,7-22.37,2.75-11,18.84-21.87,32.49-21.87a18.18,18.18,0,0,1,8.13,1.73,104,104,0,0,1,10.34,6.15c7.21,4.67,14.65,9.5,24,9.5l1.26,0c1.55-.07,3.17-.1,4.83-.1,5.95,0,12,.44,17.8.87,2.27.17,4.53.33,6.8.47,8.21.52,16.42,5.86,22,14.28,5.7,8.64,7.4,18.59,4.54,26.62-1.85,5.2-4.76,11.16-10.92,11.16Z"/><path class="cls-4" d="M449.67,1116.06a20.64,20.64,0,0,1-6.19-1c-9.56-2.95-15.5-10-21.25-16.91-1.91-2.28-3.88-4.64-5.93-6.75a71.59,71.59,0,0,0-25-17.1l-1.85-.73.73-1.86c7.07-18.11,22.19-32.12,42.58-39.45,10.3-3.71,20.26-8.68,29.89-13.49,14.47-7.22,29.43-14.69,46.09-18.24a178.23,178.23,0,0,1,37-4.05,155.87,155.87,0,0,1,59.08,11.55c3.18,1.28,6.49,2.36,9.7,3.41,1.71.56,3.42,1.11,5.11,1.7.76.26,3.07,1.06,3.43,3.16s-1.45,3.55-2.53,4.42l-.29.24c-5.28,4.37-7.49,10.69-9.62,16.79a72.6,72.6,0,0,1-4,10c-4.32,8.21-11.22,13.39-20,15-.25,0-.52.11-.8.17a11.81,11.81,0,0,1-2.72.43,4.07,4.07,0,0,1-3.16-1.3c-1.06-1.18-1.41-3-1.13-5.6a259.73,259.73,0,0,0,1-26.45c0-2.57,0-5.13.05-7.69a1.87,1.87,0,0,0-.43-1.3.47.47,0,0,0-.38-.16,1.35,1.35,0,0,0-.44.08c-3.8,1.29-5.65,4.45-5.51,9.37.13,4.5-.11,9-.35,13.4-.35,6.48-.71,13.19.18,19.77a2.76,2.76,0,0,1-.61,2.08c-2,2.62-10.78,6.21-15.66,6.88a4.47,4.47,0,0,1-.71,0,3.92,3.92,0,0,1-2.85-1.13c-1.59-1.62-1.56-4.3-1.53-6.89,0-.68,0-1.29,0-1.83-.63-15.17-1.68-30.5-2.63-43.5a5.51,5.51,0,0,0-1-1.38l-.57.35a16.66,16.66,0,0,0-2.14,1.47c0,4.18-.24,8.36-.42,12.41-.64,14.53-1.31,29.55,4.37,43.53,2,4.81-1.19,7-3.07,8.39-1.68,1.18-2.08,1.61-1.93,2.51.34,2.13-.7,4.2-1.62,6-.35.71-.71,1.43-1,2.08l-1.56,4.18-2.08-4-1.41-2.65-.07-.13c-1.09-2-2.21-4.11-3.24-6.21-10-20.51-13.89-42.44-16.33-61.18a5.25,5.25,0,0,0-1.23-1.72,5.09,5.09,0,0,0-1,1.62c-2.72,9.46-.63,18.93,1.39,28.08.68,3.09,1.39,6.28,1.91,9.45,1.71,10.33,6.25,19.91,10.64,29.17,1.13,2.37,2.29,4.81,3.4,7.28a7.26,7.26,0,0,1,.49,3c0,.32,0,.6,0,.87l.29,3.17-3-1.1-.78-.31a11,11,0,0,0-1.44-.51c-1.82-.47-3.82-.8-5.75-1.12-4.62-.77-9.39-1.56-13-4.28A52.42,52.42,0,0,1,493.59,1079c-1.59-3.41-3.51-6.79-5.35-10.07-4.42-7.8-9-15.87-10-25.53a21.51,21.51,0,0,0-2.68-1.29c-.07.62-.15,1.22-.22,1.82-.39,3-.78,6.21.09,8.55.7,1.87,1.38,3.75,2.07,5.63,4.62,12.72,9.4,25.87,19.39,35.81a2.78,2.78,0,0,1,.93,2.57c-.31,1.56-1.71,2.14-3.65,2.94-.93.39-2,.86-3.29,1.49a18.52,18.52,0,0,1-8.43,2.35c-6.8,0-10.55-5.29-13.87-10a31.78,31.78,0,0,0-4.64-5.65c-4.75-4.16-8.59-9.34-12.31-14.35-1.87-2.52-3.76-5.07-5.72-7.43a5.17,5.17,0,0,0-1-.33c-.15.33-.31.64-.47,1a14.49,14.49,0,0,0-1.19,2.82c6.69,11.69,15.5,22.73,28.55,35.76l2.07,2.08-2.68,1.17c-1.68.74-3.38,1.6-5,2.44C461,1113.39,455.76,1116.06,449.67,1116.06Z"/><path class="cls-4" d="M567.68,444.31c-14.19,0-20.55-7.55-25.31-15.71-4.92-8.45-13.2-14.31-21.21-20a140.58,140.58,0,0,1-13-9.95,37.5,37.5,0,0,1-12.66-28.18c-.12-13,5.93-26.84,15.79-36.05,2.76-2.57,6.42-5.9,10.41-8.93s7.4-4.52,10.36-4.52c6.12,0,8.73,5.93,11,11.15a48.91,48.91,0,0,0,2.44,5c10.06,17,22,29.44,36.55,38.19,5.11,3.07,10.56,5.79,15.83,8.42,3.62,1.81,7.36,3.68,11,5.66,11.4,6.21,7.79,15.06,4.88,22.17-.37.91-.74,1.83-1.09,2.74-4.92,12.92-31.4,29.94-43.2,29.94C568.92,444.29,568.29,444.31,567.68,444.31Z"/><path class="cls-4" d="M466,1292.8a38.92,38.92,0,0,1-27.38-10.74c-11.19-10.42-17.87-25-19.31-42.21l-.12-1.43c-.8-9.21-1.61-18.72,1.66-28.5,1.51-4.52,4-6.81,7.31-6.81a13.63,13.63,0,0,1,5.7,1.7,14,14,0,0,0,2.16.88,126.64,126.64,0,0,0,28.62,3.27,144.81,144.81,0,0,0,29.88-3.22c14.31-3,30.83-7.5,44.83-18.3a103.79,103.79,0,0,0,12-10.92c2-2.12,3.76-3.53,5.83-3.53,2.69,0,4.48,2.44,5.75,4.57,12.7,21.34,27.8,35.73,46.16,44,4.53,2,4.1,7.06,3.92,8.82-.06,20.11-5.86,34.18-18.25,44.3-8.91,7.25-19.62,10.93-31.83,10.93a72.68,72.68,0,0,1-14.43-1.54,122.14,122.14,0,0,0-24.55-2.63,95.93,95.93,0,0,0-35.64,6.72A61.45,61.45,0,0,1,466,1292.8Z"/><path class="cls-4" d="M550.71,893.43c-2.14,0-3.2-2.2-4.1-4.45-4.83-12.12-15.62-18.77-32.06-19.75-13.65-.83-25.7-6-37.35-11l-4.51-1.92c-5.42-2.3-10.55-3.56-14.43-3.56a14.77,14.77,0,0,0-1.52.07c-1,0-2,.07-3.11.07H450c-2.89,0-5.46.13-7.75,1.67a7.36,7.36,0,0,1-3.35,1,9.61,9.61,0,0,0-1,.15l-2.31.48-.1-2.36c0-.59-.07-1.19-.12-1.79a22.53,22.53,0,0,1-.07-4.43c2.11-18.65,15.26-29.43,26.49-36.75a52.53,52.53,0,0,1,29.55-8.65A85.36,85.36,0,0,1,514,805.6,64.92,64.92,0,0,0,531.24,808a57.36,57.36,0,0,0,21.62-4.11,57.77,57.77,0,0,1,21.7-4.49c15.79,0,28.21,7.53,35,21.2,6.49,13.12,5.4,28.8-3.41,49.34-4,9.23-9.38,13.53-17.05,13.53a39.9,39.9,0,0,1-11.49-2.12,13.31,13.31,0,0,0-3.78-.56c-6.09,0-11.65,4.37-17,8.6L555,890.79c-.44.34-.82.69-1.15,1A4.66,4.66,0,0,1,550.71,893.43Z"/><path class="cls-3" d="M579.82,477c-10.41,0-17.49-9-21.91-15.81-1.19-1.84-2.76-5.78-1.06-8.92,1.25-2.3,3.79-3.47,7.57-3.47h.42c.69,0,1.35,0,2,0,12.65,0,21.86-3.12,29-9.83a6.28,6.28,0,0,1,2.85-1.34c.29-.08.58-.16.84-.25l2.46-.92.23,2.61c.31,3.53.62,7.05,1,11.78l0,.16,0,.21c-1.26,9.56-5.47,21.61-18.42,25.07a19.48,19.48,0,0,1-5,.68Z"/><path class="cls-3" d="M471.56,800.38l-.63-.62s-1.84-1.9-1.8-3.64c.17-6,.19-12,.2-17.89,0-14.21.07-28.9,2.33-43.08,3.5-21.85,6.95-39.47,10.86-55.46,7.39-30.19,20-60,39.81-93.72,6.24-10.65,11.83-21.93,17.24-32.84l1.57-3.17c.42-.85,1.42-2.84,3.39-2.84a4.16,4.16,0,0,1,2.8,1.38c6,5.56,12.23,8.26,19.06,8.26a33.54,33.54,0,0,0,12-2.47l5.21-2-2.75,4.85c-3,5.3-6.08,10.4-9.06,15.33-6.84,11.33-13.3,22-18,33.67-2.11,5.28-4.34,10.61-6.49,15.76-7.21,17.24-14.65,35-18.72,53.74-5.19,23.9-9.68,45.52-11.93,68.06-.35,3.49-.73,7-1.11,10.46-1.37,12.57-2.78,25.56-2.69,38.42,0,.25,0,.51,0,.77.06,1.48.14,3.3-1.09,4.57a3.67,3.67,0,0,1-2.78,1.09,7.35,7.35,0,0,1-1.91-.28A66.64,66.64,0,0,0,490,796.06a34.18,34.18,0,0,0-16.67,4.08l-.45.24Z"/><path class="cls-4" d="M459.18,1203.07c-24.51,0-48.19-8.41-70.38-25-17.85-13.36-30.13-33.14-35.52-57.18-2.48-11,10.91-29,26.53-35.64a26.92,26.92,0,0,1,10.51-2.28c8.94,0,17.32,5.2,25.6,15.91l1.91,2.48c8,10.51,16.34,21.38,29.85,21.38a25,25,0,0,0,3.1-.19c8.63-1,17.23-5.36,25.54-9.57,1.45-.73,2.88-1.46,4.3-2.16a55.43,55.43,0,0,1,24.43-5.71,52.67,52.67,0,0,1,41.12,19.15c6.69,8.19,9.28,19.52,7.12,31.07-2.22,11.92-9.29,22.29-18.9,27.76-31.71,18.05-44.06,18.63-64.52,19.58l-3.29.16C464.13,1203,461.64,1203.07,459.18,1203.07Z"/><path class="cls-3" d="M539.83,287c-1.8,0-2.52-1.72-2.91-2.65l-.13-.32c-5.27-6.25-10.51-12.64-15.58-18.82-10.87-13.26-22.12-27-34-39.69-9.47-10.16-21.42-18.38-36.53-25.12-13-5.82-26.73-8.44-41.23-11.22-13.63-2.62-27.73-5.32-42-10.9l-1.22-.47.85-3.51,1.29.13c5.3.52,10.25,1.05,15,1.56,10.44,1.13,19.41,2.09,28.61,2.57,3.56.19,7.36.28,12.32.28,2.18,0,4.35,0,6.53,0s4.36,0,6.55,0c4.88,0,10.68.07,16.63.56,15.95,1.3,26.7,11.62,37.09,21.59,1.34,1.29,2.69,2.59,4.05,3.86,17.79,16.68,32.52,35.21,49.17,57.92,5.72,7.79,2,14.82-1.21,21l-.61,1.15C542.34,285.42,541.51,287,539.83,287Z"/><path class="cls-4" d="M499.84,954.49c-1.26-3-2.3-5.9-3.31-8.73-1.87-5.25-3.61-10.17-6.48-14.75-4.28-6.81-10.83-11.39-19.48-13.6a77.26,77.26,0,0,0-19.08-2.73c-12.71,0-22.47,4.53-29.83,13.83C411.21,941.73,397,945,383.18,948.24c-3.54.82-7.2,1.67-10.73,2.67a8.53,8.53,0,0,0-3.93,2c-3.38,3.88-6.59,5.85-9.55,5.85h0c-4.38,0-7.19-4.12-7.51-11-.07-1.53-.16-3.07-.25-4.62v-.29c-.79-13.63-1.61-27.73,8.1-40.22,8.4-10.8,20.05-12.29,30.34-12.33,11.88-.06,22.27-5,32.69-15.72C432.56,864.11,443.07,859,454.44,859c7.24,0,14.93,2.15,22.87,6.41A102,102,0,0,0,517.87,877,28.81,28.81,0,0,1,540,890.77a28.15,28.15,0,0,1,2.43,25.67A41.51,41.51,0,0,0,540,926.65c-1.21,9.46-7.77,10.05-13,10.53-2.49.23-4.84.44-6.51,1.47L518.19,940l-.19.11c-5.65,3.37-11.49,6.85-14.46,14.31l-1.8,4.52Z"/><path class="cls-3" d="M538,316.11a3.47,3.47,0,0,0-1.23-.18c-.51,0-1.1.06-1.67.12a19.61,19.61,0,0,1-2,.13,6.16,6.16,0,0,1-5.41-2.7c-18.76-27.52-42.09-51-64.51-72.19-13.93-13.2-31.6-23.25-54-30.72-15-5-30.87-11.46-44.75-24.65l-.88-.83,1.77-2.91,1.15.4c17.73,6.15,34.85,9.43,51.41,12.6l.11,0,6.69,1.29c27.16,5.29,50,18.81,67.86,40.18,5,6,10.25,12.15,14.89,17.61,10.45,12.29,21.23,25,31.39,37.84,3.57,4.52,2.93,10.25,2.35,15.3a40.84,40.84,0,0,0-.4,6.71l.17,3.07Z"/><path class="cls-3" d="M515.64,442.7c-2.6,0-5.89-1.43-10.65-4.64a152,152,0,0,0-62.59-24.45,168.29,168.29,0,0,0-25.23-1.95,142.65,142.65,0,0,0-43.54,6.63c-4.45,1.43-8.94,3.1-13.28,4.71l-6.25,2.29-2.93,1,.26-3.09c.47-5.7,4.75-7.15,7.88-8.21a20.7,20.7,0,0,0,2.67-1c4.47-2.28,8.92-4.89,13.21-7.41,11.89-7,24.18-14.18,39.05-15.84a70.49,70.49,0,0,1,7.72-.43c14.85,0,28.71,4.72,41.63,9.55,16.6,6.19,34.48,12.81,52.7,19.23,4.73,1.67,4.82,4.74,4.89,7.21a20.08,20.08,0,0,0,.12,2c.82,6.55.34,10.43-1.57,12.6A5.29,5.29,0,0,1,515.64,442.7Z"/><path class="cls-3" d="M325,429.86l.88-1.09c21.65-26.78,46.12-46.74,74.8-61a46.41,46.41,0,0,1,20.87-5c9.92,0,20.59,3.12,32.61,9.56,5.94,3.17,12.23,6,18.32,8.73,7.23,3.25,14.69,6.61,21.72,10.6,5.19,2.95,8.61,8.45,12.57,14.81l.17.28c.58.93,1.16,1.87,1.77,2.82l.64,1L507,413l-1-.64c-26.71-16.88-53.13-25.43-78.54-25.43-33.6,0-66.78,15-98.62,44.59l-1,.95Z"/><path class="cls-4" d="M359,1083.66c-2.36-.84-4.9-1.5-7.36-2.15-9.28-2.44-19.81-5.2-23.28-18.14-1.1-4.09-.73-9.62,1-14.8,5.37-16.32,9.76-31.29,9-49.15-.9-21.07,18.24-33.41,35-41.81,5.91-3,12.42-4.41,18.72-5.82,7.89-1.76,16.06-3.59,22.77-8.42,3.53-2.54,6.92-5.49,10.2-8.34a137,137,0,0,1,11.26-9.12c3.72-2.6,9-4,15.24-4,13.61,0,31.57,7,38,20.05,14.47,29.16.11,49.19-14,63.39-6.16,6.19-15,9.6-23.54,12.89-3.65,1.41-7.4,2.85-10.83,4.48l-3.46,1.63c-17.68,8.31-36,16.9-45.12,35.51-6.22,12.64-15.92,19.76-32.45,23.83l-.58.15Z"/><path class="cls-3" d="M117.37,1569c-1.05,0-2.1,0-3.12-.1H112.9c-.83,0-2.68,0-3.5-1.6s.13-3.22,1-4.5a182.67,182.67,0,0,0,24.17-46.9c6.75-19.92,8.63-36.06,5.92-50.81-.11-.6-.25-1.36-2.25-1.36a26.46,26.46,0,0,0-6.76,1.45c-1,.29-1.76.53-2.45.69a100.77,100.77,0,0,1-24.08,2.89,118.79,118.79,0,0,1-22.63-2.26c-2.63-.5-5.26-.94-8.31-1.44l-4.1-.68-4.36-.73,3.43-2.79c13.38-10.9,22-25.4,30.3-39.42,3.57-6,7.23-12.18,11.22-18,14.74-21.5,29.55-39.54,45.3-55.17,14.42-14.31,31.5-27.58,55.38-43a5.45,5.45,0,0,1,3-1,5.37,5.37,0,0,1,4.13,2.4c13.5,16.39,30.75,18.6,45.85,18.6,3.9,0,8.17-.16,13.85-.52,5.88-.36,12.12-.72,18.25-.72,14.4,0,25.43,2.07,34.73,6.53l4.4,2.1-4.61,1.59c-16.27,5.61-35.19,12.21-53.79,19.59a18.58,18.58,0,0,1-6.85,1.18c-6.59,0-14.06-2.52-20.06-4.54-5-1.68-10.17-1.87-15.18-2-2-.07-4.11-.15-6.15-.32-1.49-.12-3-.19-4.56-.19-11.5,0-23.13,3.6-33.12,7a94.12,94.12,0,0,0-11.71,4.54l-.63.31c-1.17.57-3.35,1.62-3.64,2.5,0,.06-.08.21.11.59a2.84,2.84,0,0,0,2.82,1.37,7.48,7.48,0,0,0,3.81-1c8.64-7.4,19.56-8.67,29.18-9.8,2.42-.28,4.7-.54,6.93-.9a83,83,0,0,1,12.88-1,55.9,55.9,0,0,1,23.1,4.5A4.87,4.87,0,0,1,256,1358a4.79,4.79,0,0,0,.39.6l1.23,1.61-1.62,1.21-.36.29a6.15,6.15,0,0,1-1.42,1c-6,2.76-12.17,5.44-18.13,8-15.62,6.79-31.76,13.8-46.67,23-14.54,9-28.44,19.2-41.88,29.06l-2,1.45a13.36,13.36,0,0,0-2.72,2.38,3.24,3.24,0,0,0,2.26.92c2,0,4.45-1.68,6.09-2.94,17.47-13.45,34.37-24,51.64-32.2a10.6,10.6,0,0,1,3.44-.91,2.11,2.11,0,0,1,1.94,1.12c1.35,2.74.09,4.63-1.16,6-9.7,10.4-19.72,21.14-31.5,29.82-1.56,1.14-1.75,1.77-1.77,1.93s0,.18.22.48.35.3.43.3a7.22,7.22,0,0,0,2.41-1.06l.35-.19c15.89-9,28.71-22.39,39.19-41,4.46-7.93,12.35-10.27,20-12.52a72,72,0,0,0,8.36-2.86c23.85-10.55,48.36-20.13,71.29-28.9,7.25-2.76,14.84-4.87,22.88-7.11,3.91-1.08,8-2.21,12.23-3.48l6.75-2-12.53,14c-11.36,12.72-22.09,24.74-32.76,36.56a9.62,9.62,0,0,1-5.65,3.25,219.52,219.52,0,0,0-64.34,16.93,49.13,49.13,0,0,0-8.75,4.56c-.81.56-1.69,1.06-2.63,1.6-4.72,2.67-5.16,3.6-4.2,5.38.34.64.56.64.7.64,1,0,2.76-1.26,4.06-2.19a25.26,25.26,0,0,1,2.47-1.61c16.72-8.84,35.4-15.2,58.78-20a4.45,4.45,0,0,1,.81-.08,7.06,7.06,0,0,1,2.05.37c.26.07.5.14.74.18l2.51.48-1.06,2.32a9.19,9.19,0,0,0-.35.92,7.51,7.51,0,0,1-1.67,3.06q-9.76,9.67-19.58,19.3l-.36.36c-8.73,8.58-17.75,17.46-26.57,26.25-1.81,1.8-3.74,3.46-5.61,5.06a65.92,65.92,0,0,0-7.89,7.54c-5.16,6.18-12.53,7.93-19.65,9.62a82.31,82.31,0,0,0-8,2.19c-2.71,1-5.48,1.86-8.15,2.74-13,4.28-26.36,8.7-36.79,18.35l-.34.31a10.59,10.59,0,0,0-2.3,2.59c-.22.47-.34.92.45,1.79a2.74,2.74,0,0,0,.82.68,7.18,7.18,0,0,0,1.28-1.37,10.72,10.72,0,0,1,1.83-1.93c10.47-7.8,22.54-12.14,34.22-16.34,5-1.81,10.22-3.67,15.18-5.78a2.6,2.6,0,0,1,1-.21,4.24,4.24,0,0,1,1.42.29,1.88,1.88,0,0,0,.3.09l2.51.54-1.14,2.31c-.12.25-.22.51-.33.78a6.65,6.65,0,0,1-1.61,2.74c-10.23,9.56-20.34,18.84-29.73,27.44-5.13,4.72-10.47,9.56-15.86,14.38.07,0,.15.12.26.19a3.37,3.37,0,0,0,2,.78,5.06,5.06,0,0,0,2.5-.87c18.9-11.35,34.14-26.61,48.12-41.26,12.07-12.64,25.33-24.5,38.15-36l.16-.14c5.8-5.19,11.81-10.56,17.61-15.93a32.63,32.63,0,0,0,3.09-3.43c.55-.66,1.1-1.32,1.68-2l4.53-5.18-1,6.79c-.62,4.07-1,8.24-1.35,12.27-.86,9.68-1.74,19.67-6.15,29-2.82,6-5.52,12.14-8.13,18.11l-.14.31c-2.13,4.89-4.34,9.94-6.61,14.87-.17.37-.37.75-.56,1.13-1.13,2.22-1,2.34-.57,2.61a1.53,1.53,0,0,0,.77.34c.59,0,1.84-1.83,2.31-2.52,12.37-18.22,19.86-35.64,22.9-53.25a45.67,45.67,0,0,0,.24-14.45c-2.53-16.76,7.83-25.33,17.85-33.63l.11-.1c1.2-1,2.41-2,3.6-3,5.13-4.39,9.73-9.68,14.18-14.8,2-2.24,4-4.55,6-6.76,1-1.06,2-2.1,3.38-2.1s2.75.73,2.79,4.19a111.8,111.8,0,0,1-3.19,28.48c-3,12.22-5.07,24.93-7.08,37.22-.55,3.37-1.1,6.68-1.66,10l0,.23c-.71,4.16-.28,5,.84,5.3a1.73,1.73,0,0,0,.38.05c1.21,0,1.92-2.79,2.25-4.13l.17-.64c3.3-12.29,6.13-24.77,8.41-37.07,3.57-19.29,4.92-36.48,4.12-52.55-.13-2.47,1.81-4.54,3.68-6.54.51-.54,1-1,1.36-1.51,5.2-6.26,10.33-12.34,15.75-18.78l8.81-10.47L374,1326c.82,2,1.5,4.1,2.17,6.08,1.37,4.1,2.66,8,4.87,11,6.12,8.43,2.83,15.67-.08,22.06-.6,1.33-1.23,2.71-1.74,4-10.05,26.19-12,50.84-5.88,75.36.59,2.44,1.16,2.44,1.34,2.44a1.7,1.7,0,0,0,.44-.08c1.31-.36,2.16-1,2-3.2-.26-3.63-.64-7.3-1-10.84-1.06-10-2.15-20.35-.57-30.75.24-1.53.45-3.06.68-4.59,1.42-9.87,2.89-20.08,7.48-29.51a8.91,8.91,0,0,1,1.83-2.32c.25-.25.48-.47.68-.7l2-2.33,1.3,2.8c.12.26.24.52.37.77a15.27,15.27,0,0,1,1,2.22c5.91,18.57,10.48,38.87,14.81,65.79,2,12.28,3.47,24.29,4.47,35.7a93.2,93.2,0,0,1-.49,15.88c-.3,3.43-.6,6.92-.66,10.27,0,.26,0,.52,0,.8a10.29,10.29,0,0,0,0,1.11h.24c1.26-.08,1.77-.26,2.05-1.86,4.6-25.61,3.33-52.26-3.89-81.49a17.87,17.87,0,0,1-.23-5.29c.05-.88.1-1.78.1-2.76v-5.09l3.46,3.73c11.08,11.92,18.12,26.11,22.15,44.67a3.19,3.19,0,0,0,3.16,2.7.8.8,0,0,0,.71-.28,3.5,3.5,0,0,0,.42-2.62c-2.38-15.61-6.12-33.09-20.27-43-11.68-8.14-14.79-19.61-17.8-30.71-1.48-5.45-3-11.08-5.56-16.06a130.51,130.51,0,0,1-5.71-13.62,102.41,102.41,0,0,0-7-15.87c-4.38-7.43-4-13.33,1.24-20.35a125.84,125.84,0,0,0,10.8-16.51,113.7,113.7,0,0,0,5.43-12.78c1-2.48,2-5.19,3.19-8.13l.46-1.15,3.39.66v1.24c0,4.81.07,9.3.13,13.66.14,9.14.26,17.78-.31,26.24-1,14.21,15.64,42.59,27.21,50.37,10.5,7.07,22.5,9.88,34.1,12.59,5.94,1.39,12.08,2.82,18,4.81,8.81,3,6.92,11.3,5.91,15.78a23.47,23.47,0,0,0-.54,2.84c-.92,11.62-4.11,24.08-9.47,37-4.31,10.44-10,20.44-15.51,30.12-1.66,2.92-3.31,5.81-4.92,8.72-6.73,12.14-15.42,23-23.82,33.54-2.95,3.69-6,7.5-8.89,11.29-9.93,13-22.26,23.41-34.18,33.49l-4.12,3.49a5.46,5.46,0,0,1-1.78.93l-.44.16-2.06.88-.64-2.14-.25-.75a12.2,12.2,0,0,1-.59-2.12c-3.22-20.31-6.56-41.32-17.58-60.26-2.46-4.23-4.75-6.38-6.81-6.38-2.36,0-4.88,2.81-7.11,5.28a26.37,26.37,0,0,1-4.21,4.06c-17.13,11.65-36.05,19-52.44,24.93-22.41,8.15-44.4,15.93-67.08,21.62-8.76,2.2-17.59,4.8-26.13,7.31-16.53,4.87-33.6,9.89-51.17,12.34-4.13.58-8.33,1.56-12.38,2.5C131.49,1567.4,124.56,1569,117.37,1569Z"/><path class="cls-3" d="M250.47,868.16c-4.23,0-8.16-1.82-12-3.58A48.82,48.82,0,0,0,233,862.3c-23-7.26-42.69-18.92-58.57-34.68A219.85,219.85,0,0,1,131,765.55c-2.54-5.35-5.56-10.63-8.49-15.74a187.47,187.47,0,0,1-10.71-20.65c-1.56-3.76-1.65-6.6-.25-8.7s3.9-3,7.78-3c1.34,0,2.64.11,3.69.2.76.06,1.35.11,1.73.11H125c4.25-.33,8.83-.5,14-.5,5.56,0,11.21.19,16.67.37,4.39.14,8.85.29,13.21.34a14.42,14.42,0,0,0,3.53-.66c-.2-2.61-.41-5.31-1.57-6.92-18.93-26.15-23.33-56.58-26.21-85.5q-.94-9.51-1.85-19l0-.29c-1.18-12.33-2.4-25.07-3.77-37.52-3.21-29.3-12.29-56.35-27.75-82.71a18.88,18.88,0,0,0-2.31-2.88c-.61-.69-1.29-1.44-2-2.36l-3-3.6,4.7.32c21.7,1.51,41.35,5.29,57.71,8.79a407.21,407.21,0,0,1,72,22.84c29.19,12.18,53.63,27,74.71,45.27,5.5,4.77,8.56,6.72,10.56,6.72,2.41,0,4.84-3.39,8.86-9,1.19-1.66,2.54-3.55,4.11-5.65C345,534.37,355.53,519,361.64,501.5c.57-1.63,1.12-3.25,1.72-5l1.71-5.06,2.27,2.32a212.92,212.92,0,0,1,35.79,47.85A227.47,227.47,0,0,1,424,594.84q1,3.88,2,7.78l0,.14c4.07,15.34,8.28,31.21,6.74,48-.53,5.8-.64,11.77-.75,17.55s-.22,11.65-.73,17.54c-3.33,38.34-7.68,75.67-24,110.86-1.17,2.52-2.32,5.2-3.33,7.56a147.93,147.93,0,0,1-7.17,15.1c-1.66,2.9-4,4.37-7,4.37a17.17,17.17,0,0,1-4.46-.77c-.57-.15-1.1-.29-1.6-.39a38.42,38.42,0,0,0-7.36-.72,50.35,50.35,0,0,0-15.6,2.73,12.88,12.88,0,0,1-3.87.64c-5.21,0-7.86-3.75-10.21-7.06a23.77,23.77,0,0,0-2.71-3.4c-5-4.71-8.62-10.81-12.12-16.7l-.09-.16c-4.29-7.23-.77-12.68,2.33-17.48,1.59-2.46,3.23-5,3.59-7.55,1.84-13.21,10.92-20.22,19.71-27,6.14-4.75,12.5-9.66,15.91-16.62,2.25-4.57,4.75-9.07,7.17-13.41,5.66-10.17,11.51-20.67,14.18-32.49a117.7,117.7,0,0,1,3.45-11.55c1.83-5.44,3.73-11.07,4.29-16.82a33.88,33.88,0,0,1,.59-3.46c1.13-5.52.74-6.54-1.1-7a3.1,3.1,0,0,0-.75-.1c-2.53,0-3.43,5.33-3.92,8.2l-.09.54A195.56,195.56,0,0,1,358,741.82c-1.29,1.63-4.83,4.68-7.57,4.68a3.29,3.29,0,0,1-1.31-.26,3.38,3.38,0,0,1-2.15-2.34c-.35-1.6.75-2.85,1.55-3.76a6,6,0,0,0,.77-1c4.94-19,8.22-38.83,11.4-58l.07-.46c.85-5.11,1.7-10.21,2.58-15.31,5-28.73,6.84-58.4,5.74-90.69a13.77,13.77,0,0,0-.61-3.62,4.76,4.76,0,0,0-1.18.29l0,0c-1.59,1.66-2.55,2.77-2.14,4.54,1.65,7,1.43,14.19,1.22,21.11-.12,3.85-.24,7.81,0,11.63.5,9.2-1.39,18.35-3.4,28-.87,4.19-1.77,8.52-2.47,12.94l-.19,1.15-3.29.29-.94-2.68c-6.18-17.52-12-34.07-11.18-52.3.14-3.09-.7-6.43-1.5-9.66l-.33-1.32a3.6,3.6,0,0,0-.88-.14h0a2.88,2.88,0,0,0-1,1.32v.42c-.44,19.87-.9,40.42,9.41,57.72,9.23,15.47,6.49,29.63,3.59,44.62-.71,3.67-1.45,7.46-2,11.23-1.69,12.24-5,24.13-8.13,35.63-1.12,4.07-2.25,8.2-3.3,12.28-2.15,8.34-5.54,16.44-8.82,24.27l0,.09c-1.18,2.83-2.41,5.76-3.55,8.65-.17.43-1.51,2.64-3.68,2.64-.79,0-2.26-.32-3.24-2.44-3.24-6.89-6.64-13.87-9.93-20.62-8.07-16.56-16.38-33.59-23.05-51-2.88-7.51-.77-16,1.27-24.28.74-3,1.52-6.13,2-9.07,2.19-13.37,1.72-26.65.34-42.49a213.12,213.12,0,0,0-6.59-38.59c-1-3.75-2.76-5.82-3.58-5.82l-.5.08c.14.39.39.94.57,1.31a10.15,10.15,0,0,1,1,2.94c.59,4.93,1.26,9.95,1.91,14.81,2.28,16.91,4.62,34.37,4,51.8-.31,7.94-1.67,15.63-3.1,23.76l0,.13c-.61,3.5-1.25,7.13-1.79,10.73l-1.1,7.39-2.74-7c-11.14-28.21-26.47-54.14-40-75.78a19,19,0,0,1-2.76-10.44c1.06-22.85-3.08-44.37-12.32-64-.16-.35-.34-.76-.54-1.22l-.05-.11c-1.31-3-2.28-4.7-2.89-5-3.39,2.29-2.62,4.16.24,8.48a19.56,19.56,0,0,1,2.53,4.65c6.27,19.58,9,35.25,8.84,50.8L233,608.6l-3.5-4.36q-5.61-7-11.07-13.89c-9.18-11.58-17.86-22.51-27.13-33.31-4.14-4.82-9.3-9-14.29-13.09l-.09-.07c-1.78-1.45-3.61-3-5.39-4.46a4.08,4.08,0,0,0-.71-.06,3.68,3.68,0,0,0-.07,1c3.75,7.72,9.81,14,15.67,20.06,2.18,2.26,4.37,4.53,6.44,6.86,14.84,16.67,33.71,39.19,48,65.59a53.25,53.25,0,0,0,3.31,4.95c2.92,4,5.22,7.22,4.51,9.68a3.1,3.1,0,0,1-1.88,2,10.48,10.48,0,0,1-4,.77c-5,0-10-3.25-14.47-6.13l-.13-.08c-1-.68-2.07-1.34-3.07-1.94-17.94-10.73-31.33-20.83-42.15-31.77a91.85,91.85,0,0,1-8.28-10.11c-1.78-2.4-3.62-4.86-5.56-7.12-.16-.19-.35-.42-.54-.67-.36-.45-1.19-1.51-1.56-1.56a1,1,0,0,0-.29.19c-1.13.91-1.75,1.41-.33,3.84,13.05,22.34,33.1,36.45,56,51.3,4.84,3.14,10.64,5.19,16.26,7.17a93.58,93.58,0,0,1,14.93,6.26c6.69,3.74,9.36,10.65,11.94,17.33.75,1.94,1.52,4,2.39,5.81,5,10.71,10.14,21.55,15.15,32l.38.8c3.3,6.91,6.61,13.81,9.87,20.74a14.54,14.54,0,0,1,1,4c.08.52.16,1,.27,1.54l.71,3.27L291,743.91c-1.18-.34-2.36-.68-3.53-1-23.29-7.46-42.32-21.54-57.87-34.34-6-4.93-11.25-10.85-16.33-16.57-2.38-2.68-4.78-5.38-7.2-7.93-.39-.42-.78-.89-1.18-1.37-.84-1-1.89-2.28-2.63-2.28a1.89,1.89,0,0,0-1,.45c-.38.27-.58.52-.61.75-.1.82,1.2,2.36,1.9,3.18l.42.5c15.33,18.66,34.5,39.53,60.54,52.89a167.06,167.06,0,0,0,34.13,13.35c4.93,1.28,6.13,6,7.19,10.12a24.85,24.85,0,0,0,1.59,4.87c2.45,4.81,5.06,9.6,7.59,14.23,1.83,3.34,3.71,6.8,5.53,10.25a10.72,10.72,0,0,1,.95,3.42c.07.44.13.83.21,1.21l.54,2.41-3.93,0c-1,0-2,0-3,.05-.74,0-1.49,0-2.23,0-12.14,0-23.9-2.79-35.27-5.5-6.15-1.45-12.5-3-18.79-4-18.42-3-27.22-16.74-33.41-29.78-7-14.74-16.62-24.31-28.66-28.46a6.83,6.83,0,0,1-1.18-.54,3.51,3.51,0,0,0,.58,1.73C200.4,737,206,742.7,212.51,749.09c7.19,7.11,11.6,15.77,15.85,24.77l1.14,2.42-2.65.41a15.8,15.8,0,0,1-2.28.17c-4.6,0-8.46-2.05-12.18-4a43.81,43.81,0,0,0-5.38-2.57c-6.94-2.54-13.55-6.09-19.95-9.53-2.91-1.56-5.92-3.18-8.91-4.67a11.06,11.06,0,0,1-2.31-1.73,7,7,0,0,0-1.7-1.26,4.2,4.2,0,0,0-.78,1.06,3.43,3.43,0,0,0-.47,2.72c.55,2,3.08,3.59,4.14,4.19,31.66,17.83,59.42,28.39,87.36,33.21a19.41,19.41,0,0,1,6,2.49c.78.43,1.57.87,2.34,1.23l3.78,1.76-3.75,1.84c-1,.51-2.08,1.09-3.1,1.66a35.54,35.54,0,0,1-7.8,3.52,128.09,128.09,0,0,1-33.26,4.74,96.28,96.28,0,0,1-41.64-9.3c-.43-.21-.87-.45-1.32-.69a7.53,7.53,0,0,0-2.39-1c-.09,0-.21.11-.36.38-.33.57-.54.94,2.62,2.95l.44.29c12.12,7.81,25.92,11.6,42.2,11.6a154.2,154.2,0,0,0,26.12-2.52c9.91-1.69,19-5.71,28.62-12.65a10.48,10.48,0,0,1,6.35-1.72,52.69,52.69,0,0,1,10.61,1.63,71.09,71.09,0,0,0,8.08,1.46c1.85.17,3.78.19,5.64.22,1.48,0,3,0,4.54.12,6.21.34,12.54,1.41,15.65,10.16,1.1,3.08,3.83,5.81,6.48,8.45,1.26,1.26,2.44,2.44,3.51,3.7l2.79,3.29h-4.32c-3.64,0-7.32,0-11,0h-.44q-5.46,0-11,0c-5.48,0-10,0-14.27.15-14.6.34-23.59,9.84-33,21.28-1.34,1.64-2.64,3.39-3.89,5.09a64.27,64.27,0,0,1-8.53,10A14,14,0,0,1,250.47,868.16Z"/><path class="cls-4" d="M251.14,962.66a8.74,8.74,0,0,1-4.51-1.71,6.21,6.21,0,0,0-2.08-1,.2.2,0,0,0-.12,0l-2,1.38-1-2.21c-3-6.82-9.21-9-15.75-11.27a72.42,72.42,0,0,1-7.24-2.85,8.88,8.88,0,0,1-5.07-6.23c-5.76-20.81,1-34.32,22.06-43.8,12.45-5.62,20.81-16.41,28.89-26.83,2.08-2.69,4.45-5.74,6.8-8.57l2.16-2.6c9.69-11.75,19.71-23.9,35.47-23.9a32.11,32.11,0,0,1,6,.57,69.9,69.9,0,0,0,13.17,1.19c9.43,0,18.81-1.65,27.89-3.25,6.6-1.16,13.41-2.36,20.26-2.93.55,0,1.12-.07,1.7-.07,15.44,0,44.4,17.48,44.63,34,.1,7.81-9.43,13.58-18.77,18.18-5.86,2.9-12.16,3.4-18.25,3.89-7,.56-14.29,1.15-20.45,5.59-10.78,7.78-16.59,16.77-17.76,27.47-.75,6.81-.57,13.8-.39,21.2.09,3.28.18,7,.18,10.69v5L343.5,951c-11.83-12.37-25.36-18.38-41.37-18.38-1.83,0-3.73.08-5.65.23-19.87,1.64-32.75,9.66-39.36,24.52-.58,1.31-2.35,5.27-6,5.27Z"/><path class="cls-4" d="M372.07,1255.93c-9.61,0-20.21-3.63-30.64-10.49-4.94-3.25-8.22-8.78-11.39-14.13-.74-1.24-1.44-2.43-2.16-3.57-8.6-13.76-22.16-21.65-35.27-29.28-4.44-2.59-9-5.26-13.41-8.14-9.37-6.15-21.88-16.38-22.22-34.13-.31-15.69,7.13-26.76,23.4-34.83,15.44-7.66,32.27-8.44,48.54-9.19l5.7-.28c.76,0,1.72-.16,2.73-.3a38.11,38.11,0,0,1,4.94-.44c3,0,5,.79,6.26,2.42s1.52,4.12.65,7.34c-1.19,14.81,6.1,24.61,13.15,34.09,1.3,1.74,2.63,3.52,3.89,5.31a107.24,107.24,0,0,0,41.05,35.11c5.83,2.89,9.13,6.21,10.08,10.15,1.39,5.72-2.51,11-5.95,15.72a30.16,30.16,0,0,0-3.82,6C398.75,1251,383.39,1255.93,372.07,1255.93Z"/><path class="cls-4" d="M340.89,1325.15c-6.65,0-13.64-1.5-22-4.74a39.36,39.36,0,0,0-14.43-2.28c-3.26,0-6.62.22-9.88.43-2.8.18-5.7.37-8.56.42-3.16.06-6.48.23-9.42.37-4,.2-8,.4-11.93.4-8.46,0-19.48-.82-29.75-7.27-.86-.53-1.81-1-2.81-1.55-4.42-2.31-9.89-5.18-9.44-13.29,0-.49-.53-.94-1.8-1.85a11.42,11.42,0,0,1-4.45-4.93,203.59,203.59,0,0,0-34.58-55.14c-6.43-7.37-8.66-18.45-6.09-30.4,3.09-14.43,12.3-26.72,24-32.1q2.44-1.11,4.91-2.19l.1,0a115.77,115.77,0,0,0,16.6-8.39c4.17-2.7,8.56-2.86,12.43-3a31,31,0,0,0,6.5-.69,14.21,14.21,0,0,1,3.52-.49c6.17,0,7.63,5.08,8.8,9.16a25.21,25.21,0,0,0,1.3,3.8c7.8,16.47,22.52,25.57,39.54,34.94,14.54,8,26,19.53,35.14,35.23,6.53,11.23,26.35,20.73,43.28,20.73a31,31,0,0,0,11.46-1.93c5-2,9.74-3.89,15.92-10.14l.88-.88,2.87,2-.5,1.14c-2.57,5.79-4.81,11.68-7,17.36-8.05,21.12-15.65,41.06-37.76,51.57A38.72,38.72,0,0,1,340.89,1325.15Z"/><path class="cls-4" d="M290.33,1109.63c-13.11,0-29.23-7.66-34.35-14.25-12.23-15.77-6.46-30.28-.87-44.31.83-2.07,1.67-4.17,2.42-6.23,5.13-13.92,3.22-27.21,1.2-41.29-.36-2.51-.72-5-1-7.58-2.32-18,.76-32.07,9.14-41.73,8.57-9.87,22.62-15,41.78-15.27,12.53.5,26.73,11.67,40.46,22.48a4,4,0,0,1,1.6,3.12c.08,2.9-2.77,6.67-9.52,12.59-5.58,4.89-8.56,11.8-7.78,18,1.75,14-2,26.88-5.68,39.33-2.43,8.26-4.94,16.8-5.67,25.38-1.13,13.26,9.69,21,19,25.22a13.74,13.74,0,0,0,3.35.78c1.92.3,4.09.64,5.71,2a6.32,6.32,0,0,0,2.28.53c1.58.19,3.36.41,4.34,1.89a3.79,3.79,0,0,1,.32,3.25c-1.93,6.49-5.29,13.93-14.27,13.93a20.72,20.72,0,0,1-4.92-.64,47.69,47.69,0,0,0-11.32-1.27c-6.42,0-13,1-19.37,2.05-5,.79-10.12,1.6-15.22,1.94C291.39,1109.62,290.87,1109.63,290.33,1109.63Z"/><path class="cls-4" d="M214.61,1154.57a83.76,83.76,0,0,1-17-1.67c-17.6-3.66-35-26.78-36.89-43.14-1.1-9.63-6.39-18.51-11.71-26.79-2-3.17-4.34-6.33-6.56-9.38-8.53-11.74-17.35-23.88-15.39-40.81.61-5.31,3.1-9.7,5.5-13.95a43,43,0,0,0,4.47-9.71c.42-1.62.86-3.24,1.29-4.86l0-.19c2.49-9.26,5.05-18.83,6.43-28.36,1.93-13.21,10.26-21.5,26.22-26.1a77.69,77.69,0,0,1,21.55-3.09c14.65,0,29.49,4.26,44.08,12.67,9.11,5.24,17.08,11.1,14.58,24.95-1.41,7.7.38,15.83,2.1,23.69.51,2.33,1,4.72,1.48,7.1,2.62,14-2.24,26.5-6.93,38.58-1.37,3.51-2.76,7.09-3.92,10.6-2.67,8-1.06,19.26,4.2,29.27,4.81,9.17,11.75,15.65,19,17.78a41.4,41.4,0,0,1,4.57,1.75c.88.38,1.84.79,3,1.23l4.64,1.87-4.65,1.85c-12.58,5-20,13.8-24,28.55-1.6,5.86-7.12,5.86-9.48,5.86h-2.48a10.14,10.14,0,0,0-1.81.12A124.29,124.29,0,0,1,214.61,1154.57Z"/><polygon class="cls-2" points="6 8.83 58 60.83 58 1619.17 6 1671.17 6 8.83"/><path d="M1024,8V1672a8,8,0,0,1-8,8H8a8,8,0,0,1-8-8V8A8,8,0,0,1,8,0H1016A8,8,0,0,1,1024,8Zm-8,1658.34V13.66l-48,48V1618.34ZM962.34,56l48-48H13.66l48,48H962.34ZM13.66,1672h996.68l-48-48H61.66ZM960,1616V1474.8c-2.28-.54-3.22-3.31-4.26-5.29-11.1-21.14-29.51-33.59-49.83-44.9a239.6,239.6,0,0,0-52-21c-11.17-3.15-23.18-3.65-34.87-4.47-19.59-1.36-39.51-.21-57.75-9.74-2.7-1.42-3.64,1.61-4.14,3.64-3.5,14.32-7.6,28.44-8.46,43.42-.39,6.65-7,5.44-11.87,3.12-23.8-11.4-43.94-28.14-61.09-47.5-14.53-16.4-29.64-33.61-32.79-57.06-.41-3-2.23-2.52-3.66-1.09-1.25,1.26-1.88,3.12-2.89,4.65-7,10.56-16.56,17.34-29.34,18.29-11.26.85-17.53,8.81-25,15.52-14.85,13.33-29.18,28.39-50.43,30.32-11.52,1-22.11-4.34-31.3-11.61-.82-.66-1.76-1.17-2.65-1.75a15.68,15.68,0,0,0-.56,3.26c.67,16.67-4.52,32.47-10.62,47.19-8,19.21-17.43,38-29.94,55.07C442,1514.66,427,1534,408.45,1550c-7.78,6.72-15.24,15.12-26.78,16.55-4.11.51-4.63-1.77-4.67-4.44-.34-23.72-9.35-44.92-18.56-66.23-10.46,12.94-25.16,18.42-39.06,25.17-28.35,13.78-59.17,20.65-88.72,31-22.3,7.83-46,11.8-69.18,16.88-13.85,3-27.9,6-42,6.74-5.44.3-13.91,2.81-17.63-3.35s2.28-11.14,5.17-16.71c8-15.41,17.89-29.88,22.16-47.23,2.45-9.93,5.22-19.76,7.1-29.85.48-2.61-1.62-3.39-1.64-5.3a4.06,4.06,0,0,0-2.76-.5c-18.05,7.56-36,3.16-54.2.4a72.6,72.6,0,0,1-13.7-3.08V1616Zm0-165.79v-113c-1.09-.72-2-2.24-2.76-3-16.51-15.57-32.75-31.44-49.2-47.06-2.46-2.33-5.7-3.82-8.58-5.7,1.17,2.74,2.32,5.48,3.5,8.21,10.82,24.93,23.11,49.32,27.36,76.63.58,3.72,2.91,7.15,4.22,10.78.7,1.94,1.66,4.58-.67,5.72s-4.66-1.34-4.7-3c-.21-11.21-7.83-19.64-10.74-29.93-6.86-24.28-18.92-46.58-29.65-69.32-6.08-12.89-13.53-25.12-20.32-37.67-.89-1.64-1.52-3.42-2.65-6-4.89,7.94-4,16.71-2.24,23.93,2.19,8.76,1.13,17.27,1.15,25.69.06,19.06,4.91,37,9.42,55.2.85,3.39,2.69,7.31-1.77,9s-4.81-2.83-5.73-5.55c-6.37-19-10.11-38.47-9.84-58.71.18-13.71-.95-27.44-1.32-41.16a10.43,10.43,0,0,1,1.52-5.55c7-11-1.19-18.27-6.22-26.38A440.76,440.76,0,0,0,808,1155.12c-1,16-4,31.84-2.37,47.21,2.28,21.37,2.09,43.45,11.2,63.76,1.17,2.62.72,6-2.3,7.32-2.33,1.06-2.79-1.24-3.75-3.1-9.24-17.82-9.51-37.41-12-56.66-1.3-9.92-.69-19.71-.2-30.33-13.63,13-12,30-15.43,45.23-3.82,16.77-9.93,32.92-28.3,37.43-15.89,3.9-10.61,19.43-18,27.67-.2.23,5.62,6,8.76,9,12.32,12,15.06,28.09,18.91,43.68.37,1.47-2.09,3.64-3.24,5.49-1.41-1.71-3.71-3.26-4.09-5.18A102.44,102.44,0,0,0,737,1302.55c-.51-.65-1.4-1.41-2.09-1.38a2.53,2.53,0,0,0-1.76,1.65c-3.36,15-7.49,29.88-9.58,45.06-1.25,9,.35,18.43-2.1,27.46-.49,1.82-1.48,3.81-4.34,2.42-2.17-1.06-1.35-2.38-1.47-4.18a230.67,230.67,0,0,1,1-41.28c1.93-17.35,7.49-33.46,13.26-49.64.52-1.46.82-3,1.83-6.77-11.07,11-19.76,21-26.67,32.45-2.78,4.59-5.28,9.36-8.23,13.84-1.56,2.36-3-.11-4-1-4-3.58-.25-7.62,1.09-9.86A214.9,214.9,0,0,1,723.52,1273c-13.39,4.52-23.25,16.07-37.93,14-10.3-1.43-21-1.44-30.09-7.71-1.66-1.14-3.94-1.39-5.94-2.06-.1,2.43-.93,5.12-.18,7.26,4,11.51-.64,22.5-1.07,33.7-.3,7.77,3.76,16,7,23.57,13.79,31.69,38.61,54.27,64.36,75.88,4.72,4,10.79,8.25,16.49,8.62,6.89.44,6.19-8.52,6.26-12.46a54,54,0,0,1,11.17-31.71c5.91-7.78,15.14.87,23,1.58,14.44,1.3,28.57,4.37,43.37,3.93,12.73-.39,25.73,3,38.36,5.86,24.33,5.45,46,17.49,67.31,29.78,13.61,7.85,24.24,19.65,32.58,33.18C958.82,1454.41,959.41,1452.31,960,1450.21Zm0-123.15V1210.34a148.44,148.44,0,0,0-11.44-11.14c-1.46-1.28-1.84-2.34-1.54-3.56,1.29-5.24,5.67-8.05,9.76-10.58l3.22-2V1081.3q-11.18-6.72-22.87-12.79c-18.23-9.44-37.83-12.93-56.81-19-15.18-4.86-12.69,8.51-12.78,15.75-.15,11.92-2.29,22.81-8.4,33.51,9-6.86,19.9-6.82,30-9,6-1.32,12.79.81,19.18,1.73.74.11,1.6,2.45,1.56,3.74,0,.65-2,1.88-3,1.77-22.35-2.42-41.09,7.88-62.53,18,10.92,0,19.56-.15,28.18,0,22.49.44,44.83,2.17,66.69,7.94,2.52.66,4.83,2.14,4.48,4.42-.44,2.9-3.58,2-5.44,1.48-17.48-4.49-35.6-1.91-53.07-4.65-16.33-2.57-32.18,3-48.23.29a10,10,0,0,0-2.24.14c.46.79.74,1.88,1.43,2.34a150.75,150.75,0,0,0,45.7,20.1,70.66,70.66,0,0,0,36.66,0c2.91-.77,6.68,1.86,6.13,3.47-1.59,4.64-7.18,5.68-11,6.24a87.72,87.72,0,0,1-42.37-4.06c-16.88-6-31.51-15.58-46.25-25.68-8.67-5.94-21.2-1.64-32-1.38-1.42,0,.08,2.47,1.36,3.45,17.37,13.32,30,30.94,43.51,47.76,6,7.39,16.05,4.74,24,7.79,23,8.79,45.84,17.28,64.26,34.38.12.11.27.18.39.29,4.91,4.87,6.87,8.38,5.29,9.78-4.82,4.27-8.35-1.56-10.33-3.13-16.08-12.71-33.09-23.37-52.78-29.58-6.06-1.92-11.8-4.84-17.75-7.14-1-.38-2.28.06-3.44.12a15.8,15.8,0,0,0,1.05,2.87c10.35,17,24.32,32.78,30.31,51.18,10.2,31.39,41.91,39.19,59.79,61.54C945.07,1312.88,952.89,1319.67,960,1327.06Zm0-256.73v-803c-1.82.55-3.59,1.29-5.44,1.71-22.22,5.07-43.83,12.53-66.88,14.34-18.09,1.42-35.6-.67-53.36-3.05-18-2.42-34.54,2.87-49.4,13.37-19.31,13.65-40.38,24.91-55.79,43.68-7.66,9.35-4.31,19.94-3.11,29.24,1.37,10.52-1.11,19.53-3.54,29.06-2.53,9.9-8.26,17.95-14.37,25.86-7.87,10.19,4.41,8.27,6.74,8.91,24.43,6.68,48.14,15.35,66.51,33.08a408.13,408.13,0,0,1,42.13,48.17c13.64,18.1,31.21,32.49,51.43,43.28a56.51,56.51,0,0,1,9.3,6.37c.84.69.88,2.74.7,4.09-.08.64-1.5,1.5-2.38,1.59-40.66,4.17-79.72.77-113.56-25.29-10.94-8.43-20.41-19-32-26.3-20.56-12.92-44.53-15.52-68.1-18.26-12.66-1.47-25.43-2.26-38.17-2.77-6.61-.26-3.5,6.51-5.22,9.69-16.23,30-41.42,54.33-55.29,85.63-10,22.65-20.25,45.17-27.75,69.06-7.9,25.2-11.4,50.81-15.68,76.54A394.7,394.7,0,0,0,521,794.57c0,3.49.9,4.34,4.41,4.49,9.24.4,18.5-.34,26.86-3.73,3.43-1.39,5.35-7.32,7.26-11.5C576.79,746,604.9,719.17,643,703.07c24-10.16,48.64-18.61,75.35-18.18,13.72.23,7.32,12.12,10.34,18.26,4.51,9.15,5.33,20.18,10.17,29.08,2.59,4.75,10.19.13,15.25-.64,16.61-2.5,32.35.84,47.93,5.52,18.31,5.49,36.25,11.33,55.81,12.41,15.41.85,30.94,2.28,46.14.9,12.64-1.14,26-1.52,37.77-8.86,4-2.46,12.36-2.58,11.64,5.92-1.26,15-4.79,29.52-8.91,44.14-7.22,25.57-22.74,45.93-37.4,67-4.55,6.53-10.73,11.92-16.1,17.75,10.57,6.48,13.64,18.42,17.87,29.61s7.7,22.56,7.38,34.6c-.32,11.88-11.26,9.83-18.14,12.34-12.32,4.51-25.09,2.46-39.06,0,17,14.11,26.58,31,23.61,51.93-1.47,10.4-7.17,20.22-11.15,30.22-1,2.46-2,3.33,2,4.07,23.47,4.33,46.47,9.09,68.14,20.87C947.82,1063.36,954,1066.77,960,1070.33Zm0-815.07V64H64V1455c11.55-9.87,18.29-23.32,26.19-36.36a394.72,394.72,0,0,1,37.2-51.42c23-27.06,50.17-48.9,80.32-67.24,3.09-1.88,1.77-3.87,1.1-5.43A200.13,200.13,0,0,0,179,1245.79c-22.14-26.82-14.26-63.08,16.86-79a84.71,84.71,0,0,0,7.64-5c-16.27-4.28-31.23-10.41-39.92-24.66a105.47,105.47,0,0,1-12.21-30.8c-2.35-10.18-8-18.09-13.88-25.6-17.21-21.84-25.51-44.14-10.15-70.69,6.4-11,7.68-24,9.45-36.47,1.5-10.51,15.36-22.66,24.13-27.29,11.23-5.94,22.63-8.2,34-6.85,11.8,1.38,12.19-.92,10.45-11.76-3.8-23.67,13.24-33.86,31.18-42.85,4-2,7-5.74,10.85-9C209.86,867,179,848.42,155.26,819.7a245.38,245.38,0,0,1-38.7-64A178.76,178.76,0,0,0,102,726.52c-6.45-10.15,6.46-13.18,10.9-14.69,15.21-5.19,31.37-6.94,47.44-2.92-12.12-18.78-20.61-38.37-21.64-61.07-.57-12.44-5.76-24.86-5.22-37.14.74-17.17-2.84-33.58-4.51-50.32-2.46-24.63-10.88-47.33-22.73-68.87-1.42-2.56-3.81-4.64-4.95-7.29-1.45-3.37-5.51-7.3-1.93-10.69,5.55-5.26,13.28-3.62,20-3.17,13,.87,26.17,2.13,38.94,4.78,19.34,4,38.64,8.07,57.54,14.37,26.27,8.76,50.5,21.34,73.81,35.75,11.21,6.93,22.61,13.88,30.93,25.13,3.93,5.31,6.22-3.19,7.45-5.12,10-15.74,20.29-31.31,27.72-48.62,5.43-12.66,12.47-12.41,22.38-2.24a205.75,205.75,0,0,1,35.47,48.69c10.38,19.9,15.7,41.61,22.1,63.06,6.84,22.91,6.2,45.79,5,68.58-1.46,27.39-3.18,54.89-10.74,81.8-6.19,22.07-13.22,43.68-24.41,63.53-3.7,6.57-1.28,7.17,2.92,10.27,7.63,5.63,14.89,11.91,18.71,21.08a7.91,7.91,0,0,0,1.28,1.64c.5-.81,1.46-1.65,1.41-2.42-1.4-21.67,11.18-34.8,27.74-45.45,1.93-1.24,3.51-2.34,3.59-4.83.6-17,1.13-34,1.85-51,1-23.84,6-46.92,11.35-70.17a314.21,314.21,0,0,1,28.86-76.09c10.48-19.85,22.86-38.69,34.5-57.92,3-5-1.57-8-3.08-11.31a132.7,132.7,0,0,1-12.06-48.4c-.62-10.44-1.17-21.9-4.64-31.12C514.8,446.11,502,443.94,493.6,439c-23.08-13.72-48.57-18.21-74.64-19a113.22,113.22,0,0,0-41.29,6c-15.42,5.46-30.7,11.31-45.93,17.26-7,2.73-11.95,8.92-20.05,10.55-4.63.94-7.4,1.87-9.6-2.57-1.82-3.67.59-6.83,2.51-9.31,19.6-25.31,41.19-48.37,68.32-66.2,17.87-11.75,35.75-21.14,57.78-18.66,17.15,1.94,30.71,12.89,46.19,19,2.38.94,4.14,3.83,6.52,4.37,12.58,2.85,4.67-9,4.69-10,.36-17.47,6.52-31.77,19.92-42.95,1.28-1.08,2.84-1.81,4.2-2.79,5.75-4.13,11.3-6.19,3-15.33-26.3-29-49.49-61.17-84.28-80.9-15.38-8.72-33.32-12.93-48.67-21.68-18.39-10.48-36.93-21.33-51.7-37.14-1.42-1.53-2.66-2.73-1.75-5.1,1-2.63,3.16-1.59,4.66-1.46,27.71,2.57,55.37,5.74,83.12,7.73,15.15,1.09,30.47-1.84,45.6,2.07,16.28,4.2,28.33,14.63,39.44,26.27C513,211,524,223.25,534.63,235.86c4.9,5.85,8.35,12.9,12.56,19.35.67,1,2.09,2.6,2.69,2.41a6.29,6.29,0,0,0,3-2.81c9.61-15.8,21.49-29.17,38.2-37.95,23.31-12.23,48.64-2.5,63.77,16.58,8.88,11.2,12.56,24.44,13.07,38.6.05,1.29-.68,4.15,1.63,2.39,7.88-6,17.18-8.18,26.41-10.28,4.84-1.1,10.07-.64,15.13-.6,13.17.11,17.21-12.22,25.3-18.83,18.32-14.94,34.52-31.06,60.63-34.59,26.59-3.59,48,4.93,70.6,15.71,16.32,7.78,34.52,11.63,51.94,17.07C933,247.12,946.61,250.87,960,255.26ZM938.88,776.7c2.33-9,4.13-18.17,6.19-27.35-11.33,5.75-22.75,9.21-34.15,9.35-18.61.23-37.22.55-56-.86-19.7-1.48-37.69-7.26-56.25-12.28-18.39-5-36.92-10.27-56.3-4.59-1.7.5-3,3.67-5.14,1.46-10.77-11-14.6-24.86-16.76-39.67-.54-3.75-.09-11.76-4.06-11.12-14.29,2.3-28.37,6.29-42.31,10.38-22.8,6.69-44.6,15.47-63.19,31-19.77,16.53-35.84,35.77-47,59.61,32.35-5.28,57,10.08,56.09,41.88,2.38-7.46,12.81-12.43,4.22-23.44-7.64-9.78-9.23-22.79-5.82-34.8,5.67-19.9,19-34.86,34.48-48.08,2.94-2.51,6.69-5.25,9.46-2.34,2.19,2.3-2.17,4.75-4,6.69-20.58,21.33-40.83,42.7-25.9,76.08,7.7-14.54,16.37-28.89,25-43.29A212.36,212.36,0,0,1,696,717c1-.93,2.83-1,4.28-1.43,0,1.85.82,4.34-.08,5.46-16.24,20.26-32.8,40.27-43.47,63.4,4.67-1.88,11.43-3.16,16.34-6.88,11-8.36,21.25-17.83,31.59-27.07,2.38-2.13,4.81-5.63,7.55-2.84,2.51,2.56-.8,5.53-2.86,7.71-15.36,16.16-30.75,32-53.35,38.49-11.84,3.4-11.06,16.92-16.82,25.32-2.12,3.1-2.47,7.36-4.28,10.74s-5.63,6.16-3.3,10.63c11.83-7.37,23.2-14.5,37.86-16.19,7.39-.86,16.58,2.75,23-7.1,15.17-23.29,35.19-41.87,60.41-54.3,1.44-.71,2.58-3.38,5-.11s.18,4.5-1.34,5.55c-4.46,3.07-9.48,5.34-13.87,8.51-17.26,12.47-30.76,28.59-42.66,44.65,13,0,26.75.84,40.31-.37,6.27-.56,13.34,3.34,19-2,18.81-17.93,39.57-33.09,63.28-43.83,2-.88,6.09-3.92,8.3.39,2,3.92-1.34,5.3-4.06,6.73-6.73,3.52-13.85,6.46-20.13,10.66-11.55,7.74-22.61,16.22-36.12,26,14.27-2.41,25.48-4.56,36.78-6.14,20.52-2.86,39.77-9.59,58.76-17.56,2.71-1.13,7.2-3.78,10.37,0,.25.3-2.71,4.48-4.79,5.33-14.92,6.09-29,14.32-47,17.25,4.38.71,7.29.75,9.89,1.66,17,5.92,34.06,5.62,51.38,1.62,3.37-.77,7.13.17,10.7.31-1.06,1.8-1.75,4.73-3.25,5.24-17.48,5.94-35.18,6.58-53.44,3.3-11.5-2.07-21.83-9.45-34.23-7.15-8.21,1.53-16.52,2.59-24.75,4.06-13.77,2.45-27.6,4.33-43.27,4.08,20.2,12.63,40,20.68,62.46,22.06,5.14.31,14.8,3.56,13.9,6.78-1.73,6.27-8.62,1.7-13.4.67a4.39,4.39,0,0,0-1-.06c-18.07.2-35.71-3.85-50.53-13.29-18.91-12-37.69-20.42-59.7-15.09,3.39,4.53,7.95,9.61,11.33,15.37a56.85,56.85,0,0,0,23.07,22.21c8.94,4.88,17.39,13.34,19.13,25.18.31,2.14-.19,5,2.22,5.42,1.49.23,3.7-1.72,5-3.2,9.4-10.77,27.33-14.3,40.92-9.08,3.35,1.28,5.27,6.71,11.82,2.72,15.14-9.22,32-14.62,50.28-12.29,2.65.34,7.59-.51,7.18,3.2-.24,2.2-5.16,3.53-8.91,3.37-15.15-.63-28.47,5.79-46.73,12,19.76,2.28,35,4.05,50.2,5.79,4,.46,9.43,1.72,9.46,5.16,0,4.46-5.33,2.48-8.58,2.84-11.85,1.3-23.09-3-34.72-3.66-2.14-.12-4.3,0-6.45.06a6.6,6.6,0,0,0,.26,2.12c4.64,9.11,10.21,17.71,18.56,23.71,18,12.93,38.76,13.71,59.57,10.69,5.94-.86,20.13,3.16,13.84-12.69a25.74,25.74,0,0,1-1.93-5.27,103.38,103.38,0,0,0-15-39c-4.09-6.49-11.57-13-1.92-21.28,12.23-10.52,19.45-25,28.67-37.92C927.71,812.45,934.17,794.84,938.88,776.7Zm-4.66-511.64c-7.13,0-10-.08-12.86,0-26.3.82-51.9-2.53-76.77-11.6-7.72-2.81-16.13-5.3-24.22-5.29-23.5,0-43,11.53-60.69,25.5-5.49,4.34-15.81,6.4-14.87,16.71.58,6.32-1.7,11-5.58,15.62a14.74,14.74,0,0,0-2.93,6.57c-.85,4.47,3.18,2.54,4,2,12.08-8.4,24-17.05,35.93-25.65,13.9-10,28.66-18.34,46.35-17.79,12.38.39,24.69,2.68,37.06,3.77C883.65,277,906.82,271.8,934.22,265.06Zm-58.75-12.82c8.46,1.27,41.45,5.94,51,3.06-32.05-5.72-59.77-17.48-87.06-30.3a71.45,71.45,0,0,0-53.84-2.94c-23.76,8-41.21,26.25-58.39,43.82,2,1.24,4.29,2,5.59,3.52,7,8.32,12.38,5.54,19.33-.87,16.38-15.1,35.91-25.47,57.77-29.28C832.88,235.23,853.32,248.89,875.47,252.24Zm-2.15,749.23c-.78-8.68-1-15.81-4.93-21.73a90.17,90.17,0,0,0-29.1-28c-15.6-9.4-26.49-24.3-36.25-39.72-7.77-12.28-18.36-19.47-33.39-14.84-11.63,3.59-20.95,10.74-26.59,21.95-7.78,15.45-13.7,32.5-32.95,38.05-.3.09-.62,1.3-.42,1.78a43.86,43.86,0,0,1,3.44,20.08c-.09,1.24.44,3.45,1.16,3.68,8.53,2.67,15.17,7.52,21.63,13.89,10.47,10.32,14.72,38.86,5.68,50.6a51.18,51.18,0,0,0-10.15,41.93c.58,3.21.51,8.12,5.9,10.14,15.93,6,32.58,8.27,49.18,11,15.73,2.6,31.66,1.57,46.06-4.32,18.88-7.72,24.88-24.14,24.66-44a92,92,0,0,1,5-30.69C865.88,1020.77,871.46,1011,873.32,1001.47ZM856.76,557.68c-5.76,1-9.87-3.83-14.75-4.38-13.7-1.53-24.43-8.86-35.53-15.91-12.39-7.86-21.63-18.7-30.75-29.93-21.07-25.92-50.56-35.39-82-40.32-15.61-2.44-31.35-4.11-47.05-6-2.29-.27-3.86.34-6.13,2.71-5,5.21-1.58,12.87-6.8,17.38-.73.63-.84,2-1.24,3a28.07,28.07,0,0,0,3.23.67c23.15,2,46.51,1.37,69.25,7.86,17.78,5.08,35.63,9.55,49.71,22.5,5.47,5,9.91,11.52,16,15.41,14.81,9.41,28.82,20.57,47,23.55C830.69,556.35,843.35,560.46,856.76,557.68ZM844,546c-9.17-7.9-16.42-12.81-22-19.21-11.14-12.83-20.86-26.91-32.08-39.66-14-15.94-29.7-29.85-50.28-37.46-13.86-5.13-27.87-9.24-42.1-13.15-10-2.75-19.88-1.48-29.62-2.5-5.56-.58-17.76-5.21-20,7.07-.67,3.59-5.83,10.44-.56,11.34,24.57,4.21,49.46,5.51,73.85,12.06,25.51,6.84,46.61,19.87,62.94,39.56C799.63,522.84,817.67,536.74,844,546ZM786.9,1181.28c8.91-9,15.53-19,8.55-32.32-10.16-19.4-28.18-28.39-47.44-36-9.21-3.63-13.57-1.76-10.73,8.38,1.29,4.58,0,8.5-.23,12.71a32.61,32.61,0,0,1-13,24.2c-11.07,8.31-20.66,16.22-26.42,29.91-11.17,26.54-31.43,41.43-60.07,38.87-12.41,0-12.7.13-11.79,2.21,6.49,14.8,14.19,28.26,28.85,37.25,16.17,9.91,32,14.64,49.42,4.29,7-4.18,14.18-9,22.23-9.66,38.72-3.39,44.38-15.06,48.89-49.5C776.57,1200.92,778.48,1189.79,786.9,1181.28ZM731.31,917.51c6.91-12-.3-32.54-12.49-38.83-8.55-4.41-16.65-10.52-22.3-19.15-6.83-10.43-12.17-23-28-22.48-27.17,1-42.16,18.72-56.75,40.25,11.39-.62,20.36-4,30-4.55,19.71-1,36.77,4.79,40.26,28.19,2.3,15.46,3.67,30.31,16.18,43,10,10.18,13,2.59,18.86-2.44C724.53,935,726.67,925.59,731.31,917.51Zm-1.92-612.93c6.19-7.21,11.65-18.39-1.46-25.55-14.43-7.87-30.08-5.88-44.56-.73-17.5,6.21-30.27,19.24-41,34.25-12,16.84-22.7,34.17-23.34,55.74.53,11.54,3.47,22.57,21.81,41.55,13.47,13.94,48.28,18.59,61.34,2.87,9.72-11.7,15.47-26.4,14-41.32C714,347.45,712,324.81,729.39,304.58Zm-1.92,747.3c13.6-19.79,15-49.67-14.92-61.44-3.08-1.21-3.21-.45-4.29,1.59-7.6,14.42-19.34,24.35-34,31.08-6.12,2.81-6.11,2.84-5.14,4.41,9.71,15.93,13.67,32.49,10.33,51.56s-8.72,36.62-20.35,52.28c-12.44,16.76-30.77,25.18-48.68,33.22-13.15,5.9-27.78,10.52-44.22,5.53,21.65,28.29,30.7,37.92,53.11,45.82,15.69,5.54,46.42-1.86,58.07-14.22,9.93-10.55,11.41-25.7,21.51-36,6-6.09,13.86-10,19.52-15.94,15-15.63,9.53-34.66,5-52.47C719.4,1081.34,718.11,1065.49,727.47,1051.88Zm-40.09-48.13c20-21.28,20.92-35.58-.57-57.26a43.52,43.52,0,0,1-13.13-31.89c0-8.33-.19-17.46-6.62-24.68-8.84-9.93-20.77-8.63-31.41-7.36-20.1,2.41-39.28,12.7-60,5.94a77,77,0,0,0-7.52,1.74c-15.88,5.45-17,19.43-19.19,33-.63,3.94-4.52,9.93-3.26,11.14a65.25,65.25,0,0,0,18.13,12.44c16.9,7.47,35.66,1.87,53.47,7.55,18.79,6,33,28.68,25.74,47.73-.9,2.36-2.52,5.85,2.08,6.83,4.22.91,8.11,1.53,11.62,5.1,1.93,1.95,5.14,5.89,9.39,4.2A57.17,57.17,0,0,0,687.38,1003.75ZM656.78,1119c13.92-25.07,20.75-51.63,9.19-79.58-4.72-11.4-11.86-23.21-26.31-21.93s-20.42,13.63-24.5,26c-3.46,10.49-9.38,19.58-19.36,23.27-14.65,5.42-31.43,5.06-42.92,18.43-4.47,5.21-9.35,27.51-4.78,30.87,8.88,6.54,11.89,16.1,12.69,25.86,1,12-1,24.8,15.81,21,10.81.48,18.68-2.87,26.65-5.91C624.38,1148.91,645.15,1139.9,656.78,1119Zm-1-834.9c5.05-5.51,3.74-15.76,1.5-24.79C652,238,633,221.06,612,221c-11.39.1-20.89,4.91-29.55,11.87-20.19,16.23-29.56,38.62-35.06,62.9a73.18,73.18,0,0,0-1.06,26.63c1.92,11.65,11.72,21.07,19.48,30.5,12.06,14.66,29.53,21.55,45.36,30.76.41.24,1,.09,1.59.12,0-1.31.59-3.38,0-3.82-2.43-1.73-1.63-4.05-1.76-6.22-1.6-28.28,12.63-50.45,28.31-71.84C644,295.38,650.45,289.9,655.8,284.07Zm-14,141.28c.07-6.08-6-5.82-8.25-8.79-5.89-7.61-11-13-16.36.78-2.5,6.4-12,13.51-10.52,17.4,5.71,15.36,2.87,28.11-6.48,40.13-7.5,9.64-18,12.25-29.09,7.93a28.45,28.45,0,0,1-16.68-16.21c-2.75-6.55-.58-15.64-4.85-19.06-8.17-6.57-12.81-15.58-19.9-22.67a12.06,12.06,0,0,0-2.14-1.38,14.69,14.69,0,0,0-.43,2.83c.56,12.38-.19,24.7,1.66,37.18,3.31,22.36,4.46,45.18,14.47,65.89,13,26.87,32.5,23.52,50.62,4.54,16.63-17.43,24.85-39.77,33-61.85C632.45,456.74,636.84,440.94,641.79,425.35Zm-.57,878c1.59-24.15-8.64-43.35-21.55-61-.71,2.82-1.66,6.54-2.59,10.27-9.18,36.78-44.59,46.42-73.35,39.76-17.24-4-33.55-3.64-49.39,2.36-20.48,7.76-39.88,10.38-58.56-3.75-9.82-7.44-16.24-17.58-21.76-29.61-1.11,8.64-4.21,16.31-2.49,22.67,3.85,14.18.55,28.59,4.78,43.09,5.11,17.5,25.71,38.24,44.06,40.13,14.26,1.47,28.77,4.42,40.93,13.33,8,5.87,16.51,12.11,26.43,12,20.79-.21,34.52-14.27,47.44-28.24,7.54-8.14,16.2-15.2,26.44-17C622,1344,639.85,1324.1,641.22,1303.35Zm-8-304c5.55-15.61-8.36-37.19-24.76-38.23-9.73-.61-19.51-1.68-29.21-1.24-15,.67-24.65-9.94-36.55-15.83s-34.6,6-37.79,18.83c-2.68,10.73-6.69,21.13-10.16,31.67a15.22,15.22,0,0,1-1.5,2.65,21.83,21.83,0,0,0,3-.21c15.79-3.31,31.27-8.42,53.8-7.86,6.88.81,20,1.37,32.68,4.17,10.44,2.31,21.12,5.9,30.18,11.4C624.1,1011.46,629,1011.19,633.2,999.32ZM619,1019.46c1.25-1,4.1-3,0-4.38-5-1.72-10-3.18-14.9-5.14-30.88-12.39-62.07-14.41-94.9-7.4-27.5,5.86-49.9,22.35-75.72,31.65-18,6.46-33.91,19.12-41.4,38.3a73.26,73.26,0,0,1,25.67,17.57c8.09,8.35,14.19,19.39,26.33,23.14,10.12,3.12,17.95-3,26.27-6.65-11.18-11.17-21.27-22.85-29-36.35-.81-1.42,1.49-4.61,2.34-7,1.27.46,3,.54,3.72,1.43,6,7.19,10.89,15.5,17.81,21.55s10,20.54,24.71,13c4.23-2.17,6.94-2.38,5.51-3.8-11.79-11.73-16.36-27.28-21.92-42.16-1.53-4.09.07-9.35.23-14.07,2.23,1.23,6.26,2.29,6.4,3.72,1.32,13.45,9.85,23.76,15.23,35.33a50.59,50.59,0,0,0,14.73,18.36c4.62,3.5,11.9,3.48,18,5a24.37,24.37,0,0,1,2.43.88,10.67,10.67,0,0,0-.35-3.19c-5.45-12-12-23.66-14.19-36.94-2.1-12.72-7-25.23-3.25-38.41.44-1.54,1.89-2.78,2.87-4.16,1.13,1.51,3.07,2.92,3.28,4.55,2.73,20.91,6.79,41.43,16.15,60.56,1.48,3,3.12,6,4.69,8.94.89-2.38,2.82-4.91,2.47-7.09-.79-5,7.63-4.33,5.13-10.47-7.5-18.44-4.29-37.9-4.1-57,0-1.41,3.33-2.79,5.11-4.19.89,1.31,2.46,2.57,2.56,3.93,1.05,14.5,2,29,2.63,43.55.14,3.27-.72,8.4,2.83,7.91,5.31-.73,14.8-5,14.56-6.71-1.53-11.23.48-22.28.15-33.38-.14-4.94,1.57-9.52,6.86-11.32,2.46-.84,3.92,1.21,3.9,3.29-.14,11.46.15,23-1.06,34.34-.69,6.36,3.09,4.54,5.46,4.11,8.38-1.53,14.66-6.56,18.55-14C609.59,1037.76,610.34,1026.62,619,1019.46Zm-8.12-605.84c3-8,8.24-16.39-2.88-22.45-8.89-4.85-18.23-8.9-26.89-14.12-15.85-9.54-27.83-23-37.24-38.88-4.7-7.91-6.14-22.26-20.9-11.08a133.94,133.94,0,0,0-10.25,8.8c-16,15-22.69,43.7-3.16,61.28,11.46,10.32,26.71,16.95,34.56,30.42,5.81,10,12.27,15.22,25.38,14.68C580.76,442.32,606.41,425.31,610.86,413.62ZM611,1230.3c.17-1.71.58-5.44-2.74-6.93-21-9.43-35.59-25.51-47.06-44.79-3-5-5-4.31-8.4-.69A104.61,104.61,0,0,1,540.59,1189c-13.47,10.39-29.13,15.23-45.64,18.68-19.94,4.15-39.47,4.56-59.36-.06-3.51-.82-9.6-6.71-12.82,2.92-3.31,9.87-2.26,19.55-1.45,29.12,1.31,15.6,7.17,30.2,18.68,40.92,13.91,13,31.36,12,47.57,5.69,20.33-8,40.29-8.46,61.32-4.19,15.7,3.2,31.43,1.74,44.59-9C606.47,1262.52,611,1248,611,1230.3Zm-6.73-361.17c6.83-15.92,10.8-32.81,3.46-47.66C597.64,801,575.17,797,553.61,805.72c-12.66,5.12-26.81,5.5-40.18,1.81-17.72-4.88-34.69-5.41-50.62,5-13,8.45-23.72,18.73-25.59,35.29a39.19,39.19,0,0,0,.2,5.92c1.24-.26,2.7-.19,3.68-.84,4.19-2.82,8.86-1.74,15.44-2,4.59-.45,10.74,1,16.93,3.64,13.27,5.6,26.19,11.85,41.2,12.76,14.48.87,27.85,6.09,33.8,21,2,5.14,2.63,3,5.25,1,7.2-5.58,15-12.64,24.43-9.79C590.53,883.17,598.42,882.75,604.27,869.13Zm-3-418c-.41-4.73-.72-8.25-1-11.77-1,.38-2.29.49-3,1.18-9.16,8.63-20.67,10.63-32.4,10.35-9.17-.21-6.77,6.91-5.22,9.29,5.65,8.68,13.47,17.29,24.72,14.29S599.93,461.2,601.26,451.09ZM579.14,556.16c-13.39,5.17-23.92,2.38-33.17-6.19-1.3-1.2-1.94-1.32-3,.88-6,12.17-12,24.42-18.87,36.13-17.22,29.39-31.41,59.73-39.6,93.19-4.48,18.33-7.87,36.87-10.82,55.3-3.18,19.86-1.92,40.44-2.51,60.7,0,.76,1.23,2.23,1.26,2.21,11.53-6.22,23.34-4.78,35.29-1.58,3.94,1.05,3.26-2,3.25-4.21-.12-16.48,2.17-32.74,3.81-49.09,2.31-23.1,7-45.65,12-68.28C532,650.71,542.83,628.4,552,605.4,558.81,588.36,569.42,573.36,579.14,556.16ZM533.4,1181.34c18.8-10.69,24.88-39.09,11.22-55.83-15-18.44-41.56-23.57-63.11-12.91-9.8,4.85-20,10.71-30.5,11.93-17.72,2.06-27.43-12.49-36.67-24.44-10.2-13.18-20.88-18.46-33.75-13-14,5.92-27.68,23-25.36,33.36,5.06,22.58,16.48,42.33,34.77,56,22.22,16.62,47.76,26.32,76.48,24.36C488.79,1199.73,500.45,1200.1,533.4,1181.34ZM540.84,284c3.27-6.32,7.28-12.85,2-20.08-14.94-20.37-30.39-40.26-48.93-57.64-11.76-11-22.69-23.51-39.93-24.92-13.92-1.14-28,0-42-.76-13.56-.71-27.06-2.51-43.74-4.14,29,11.36,57.55,10.68,83.29,22.15,14.25,6.36,27,14.63,37.17,25.59,17.45,18.72,33.16,39.08,49.69,58.68C538.88,283.41,539.45,286.64,540.84,284Zm-.3,631.71c6.67-16.34-5.35-35.38-22.82-36.73a103.81,103.81,0,0,1-41.36-11.75c-19.94-10.69-36.85-7.33-52.6,8.78-9.05,9.26-19.88,16.25-34.11,16.32-10.77,0-21.29,1.94-28.77,11.56-10.39,13.37-8.11,28.92-7.42,43.81.45,9.68,6,12.7,13.55,4A10.43,10.43,0,0,1,371.9,949c17.1-4.88,35.53-5.7,48.19-21.72,13.3-16.81,32.53-16.52,51-11.8,7.62,1.95,15.4,6.08,20.67,14.48,4.6,7.34,6.38,15.37,9.94,23.76,3.66-9.2,11-12.63,17.74-16.76,6.06-3.74,17.1,1.4,18.63-10.56A43,43,0,0,1,540.54,915.68Zm-1.79-601.44c-.39-7,3-15.15-1.52-20.88-14.9-18.87-30.81-37-46.24-55.41-17.6-21-40-34.29-66.71-39.5-19.08-3.71-38.22-6.95-58.49-14,13.48,12.81,28.65,19.09,44,24.2,20.47,6.82,39.39,16.6,54.76,31.17,23.53,22.29,46.36,45.5,64.78,72.51C531.69,315.81,535.7,313.09,538.75,314.24ZM506.11,436.4c10.16,6.85,15,6.39,13.21-7.8-.46-3.58.73-6.05-3.7-7.61-17.64-6.22-35.2-12.71-52.73-19.25-15.63-5.84-31.22-10.93-48.43-9-19.78,2.21-34.79,14.48-51.57,23-3.65,1.86-9,1.79-9.47,7.63,6.53-2.35,13-4.9,19.6-7,22.82-7.31,46.4-8.29,69.68-4.76A154.44,154.44,0,0,1,506.11,436.4Zm.94-25.75c-4.72-7.43-8.27-14.09-13.81-17.24-12.84-7.3-26.95-12.34-40-19.31-16.78-9-34.08-13.3-51.65-4.55-28.8,14.33-53.24,34.63-74.14,60.48C382.35,379,441.81,369.43,507.05,410.65ZM474.13,1004c16.43-16.51,26.38-35.44,13.65-61.09-8.46-17-38.34-23.72-50.33-15.32-7.53,5.27-14,12.07-21.44,17.44-12.44,9-28.67,7.85-41.76,14.41-16.64,8.33-34.75,20.28-33.91,39.93.77,18.25-3.76,33.64-9.1,49.87-1.4,4.24-2.07,9.46-.95,13.65,4,15,18,14.9,29.38,18.92,13.89-3.42,24.52-9.33,31.14-22.77,10.08-20.46,30.23-28.94,49.51-38.07C451.79,1015.5,465.69,1012.44,474.13,1004Zm13.65,395.67c.34-4.25,4.89-13.56-4-16.56-17.5-5.88-36.38-6.72-52.6-17.64-12.29-8.27-29.1-37.26-28.09-52.17.84-12.28.18-24.66.18-39.76-3.63,9-5.64,15.29-8.7,21.09a126.27,126.27,0,0,1-11,16.78c-4.48,6-5.35,11-1.12,18.14,5.4,9.19,7.87,20,12.76,29.59,7.76,15.16,5.91,34.32,22.72,46,14.42,10.06,18.52,27.37,21.11,44.3.41,2.62-.59,5.26-3.14,5.21a5.14,5.14,0,0,1-5.08-4.28c-3.49-16.06-9.71-30.87-21.66-43.73,0,3-.46,5.43.07,7.57,6.72,27.19,8.91,54.56,3.92,82.32-.48,2.71-1.92,3.38-3.89,3.51-3,.2-2.33-2.26-2.3-3.93.15-8.7,1.88-17.76,1.16-25.95-1-11.73-2.57-23.77-4.46-35.55-3.57-22.24-7.92-44.1-14.74-65.51a23.37,23.37,0,0,0-1.24-2.75,13.8,13.8,0,0,0-2.22,2.59c-5.15,10.57-6.25,22.12-8,33.52-2.1,13.82.63,27.46,1.61,41.15.2,2.81-1,4.58-3.46,5.27-3,.85-3.88-2.25-4.26-3.81-6.5-26.15-3.64-51.56,5.95-76.56,2.93-7.62,8.72-15.06,2.07-24.21-3.51-4.83-4.78-11.28-7.28-17.51-7.6,9-15.05,17.83-22.41,26.69-1.75,2.11-4.69,4.52-4.58,6.67.89,17.88-.91,35.52-4.15,53q-3.48,18.77-8.45,37.23c-.56,2.08-1.42,7-5.18,6.15s-2.79-5.06-2.32-7.81c2.68-15.83,5-31.79,8.77-47.36a110.11,110.11,0,0,0,3.13-28c0-3.26-1.21-2.37-2.7-.76-6.72,7.32-12.86,15.31-20.35,21.73-11,9.45-23.54,17.31-20.88,34.92a47.75,47.75,0,0,1-.25,15.09c-3.42,19.82-12,37.48-23.22,54-1.81,2.66-3.3,4.46-5.85,2.71s-.59-4,.43-6.23c5.09-11,9.7-22.31,14.89-33.3,6.07-12.85,5.21-26.83,7.33-40.72a70.41,70.41,0,0,1-4.92,5.58c-18.67,17.26-38.31,33.6-55.83,52-14.89,15.6-30,30.46-48.54,41.59-2.47,1.49-4.56,1.59-6.73,0-1.06-.77-2.05-1.83-.48-3.24q8-7.15,15.91-14.42,14.91-13.66,29.73-27.44c.76-.7,1-2,1.5-2.94-.52-.11-1.14-.46-1.55-.29-16.45,7-34.28,10.93-49,21.88-1.95,1.46-3.34,5.93-6.6,2.37-2.84-3.09.25-5.61,2.3-7.51,12.93-12,29.66-15.92,45.64-21.51,9.18-3.21,20.13-3.26,26.77-11.2,4.12-4.91,9.22-8.36,13.62-12.74,15.43-15.38,31-30.58,46.52-45.92.84-.82,1.08-2.24,1.6-3.38a8.09,8.09,0,0,0-2.83-.48c-20.24,4.15-39.85,10.07-58.24,19.8-3,1.58-7.62,6.63-9.93,2.34-2.73-5.08,3.94-7.13,7.44-9.57a50.88,50.88,0,0,1,9.11-4.76,220.41,220.41,0,0,1,64.93-17.08,7.73,7.73,0,0,0,4.37-2.6c13-14.4,25.9-28.89,40.59-45.34-13.23,3.93-24.38,6.5-35,10.54-23.92,9.15-47.79,18.5-71.2,28.86-9.4,4.16-21.7,4.39-27.41,14.53-9.82,17.45-22.4,31.85-39.95,41.76-2,1.14-4.1,2.49-5.72.47s.17-4,1.91-5.28c11.64-8.57,21.42-19.06,31.22-29.57,1.29-1.39,1.52-2.35.86-3.69-.1-.19-1.87.25-2.75.67a283.63,283.63,0,0,0-51.28,32c-3,2.27-7.42,5.16-11,1.85-2-1.9,1.16-4.1,3.2-5.6,14.32-10.51,28.51-21,43.73-30.41,20.73-12.82,43.2-21.14,65-31.17a8.68,8.68,0,0,0,1.41-1c-.56-.73-1-1.81-1.69-2.14-11.21-5.06-24.39-5-34.85-3.3-11.3,1.79-24.9,1.49-35.12,10.24-1.53,1.31-7.72,3-9.72-1-1.58-3.17,2.61-4.86,5.06-6.08a96.74,96.74,0,0,1,12-4.65c12.49-4.21,25.34-8,38.49-6.87,7.15.59,14.48,0,21.8,2.46,8.13,2.74,18.5,6.2,25.53,3.4,18.21-7.22,36.62-13.67,53.88-19.62-15.85-7.59-34.36-6.71-52-5.61-23.54,1.48-45,1.07-61.37-18.81-1-1.19-2.2-2.49-4.5-1-19.59,12.68-38.5,26.35-55.06,42.78-16.83,16.7-31.55,35.17-45.06,54.88-13.34,19.47-22.49,42-41.91,57.84,4.88.82,8.68,1.4,12.46,2.13,15.33,2.94,30.45,3.17,45.86-.61,4-1,12.87-4.83,13.9.8,3.22,17.52-.33,35.09-6,51.81A184,184,0,0,1,112.07,1564c-2.56,3.6.54,2.83,2.32,2.94,12.42.84,24-3.89,35.9-5.56,26.51-3.69,51.39-13.16,77.09-19.61,22.68-5.69,44.88-13.56,66.89-21.56,18-6.55,35.83-13.71,52-24.7,5.39-3.67,11.62-18.42,21-2.31,11.05,19,14.48,39.88,17.83,61a19.86,19.86,0,0,0,.77,2.6,6.66,6.66,0,0,0,1.71-.77c13.43-11.42,27.1-22.4,38-36.67,11.19-14.63,23.56-28.37,32.55-44.59,7.06-12.73,14.8-25.24,20.33-38.63C483.23,1424.52,486.8,1412,487.78,1399.63Zm-57-749c1.76-19.3-4.2-37.3-8.76-55.27a225.06,225.06,0,0,0-20.64-52.78,212.25,212.25,0,0,0-35.46-47.41c-.87,2.57-1.61,4.8-2.39,7-5.75,16.49-15.21,31.06-25.48,44.8-12.15,16.28-12,20.79-26.44,8.25-22-19.11-47-33.6-74.17-44.93a405.93,405.93,0,0,0-71.65-22.73c-18.64-4-37.24-7.35-57.43-8.75,2.15,2.56,3.61,3.89,4.56,5.51,15.17,25.87,24.68,53.15,28,83.5,2.08,18.89,3.77,38,5.65,56.87,3,30.17,7.54,59.24,25.84,84.53,1.73,2.4,1.77,6.15,2.05,9.31,0,.34-3.68,1.46-5.65,1.44-14.59-.18-29.24-1.35-43.71-.22-2.89.23-16.38-3.22-11.43,8.65,5.24,12.58,13.29,24,19.16,36.3,10.92,23,25.11,43.75,43,61.51,16.16,16,36,27.33,57.76,34.19,7.84,2.47,16.45,10.15,25.17,2.39,4.73-4.22,8.13-9.92,12.21-14.88,9.12-11.07,18.68-21.64,34.51-22,12.37-.29,24.76-.06,36.75-.06-3.35-4-8.55-7.75-10.34-12.77-2.64-7.42-7.67-8.49-13.89-8.83-3.41-.2-6.85,0-10.24-.35-8.09-.74-18.78-5.29-23.69-1.74-9.28,6.7-18.59,11.15-29.45,13-24.18,4.12-47.94,4.68-69.74-9.37-2.34-1.51-5.3-3.15-3.72-5.91s4.36-.59,6.67.51c23.89,11.36,48.56,11.2,73.52,4.44,3.7-1,7-3.32,10.54-5-2.61-1.22-5.12-3.09-7.86-3.56-31.52-5.44-60.38-17.88-88-33.44-3.11-1.75-7-5.11-4.43-9.64,2.7-4.74,5.08,0,7.42,1.13,9.54,4.76,18.72,10.47,28.66,14.11,6.11,2.24,11.66,7.44,18.85,6.34-4.25-9-8.58-17.41-15.44-24.19-5.84-5.76-11.61-11.6-17.23-17.58a5.07,5.07,0,0,1-1-4.17c.77-2.6,2.15-.83,3.72-.28,14.68,5.06,24,17.21,29.82,29.49,7.11,15,15.86,26,31.92,28.67,18.65,3.06,36.67,10,55.92,9.44,1.48,0,3,0,4.46-.06a16.7,16.7,0,0,0-1-4.14c-4.32-8.2-8.93-16.25-13.13-24.5-2.44-4.79-1.89-12.51-7.5-14a168.22,168.22,0,0,1-34.54-13.5c-24.89-12.77-43.77-32.21-61.17-53.39-1.46-1.78-4.63-4.94-1.35-7.33,3.47-2.52,5.42,1.29,7.46,3.44,7.75,8.16,14.73,17.25,23.35,24.34,17.25,14.19,35.54,27,57.21,34,1.53.49,3.09.92,4.64,1.37-.37-1.71-.43-3.56-1.16-5.1-8.43-17.88-17.1-35.64-25.41-53.57-3.7-8-5.53-17.78-13.49-22.24-9.85-5.54-21.91-7.4-31.3-13.49-21.68-14-43.1-28.74-56.68-52-2-3.37-1-4.94.8-6.41,2.38-1.92,4.08,1,5.17,2.3,4.77,5.54,8.62,11.95,13.74,17.12,12.35,12.49,26.76,22.49,41.76,31.47,6.17,3.7,13.54,9.84,19.89,7.24,3.16-1.29-4.32-9-6.95-13.88-12.95-23.91-29.74-45-47.74-65.21-7.85-8.82-17.14-16.51-22.43-27.41-.5-1,.08-2.57.16-3.87,1.23.15,2.85-.15,3.64.52,6.83,5.83,14.28,11.17,20.08,17.92C205.81,570.92,218,586.82,231,603c.18-17.59-3.53-33.9-8.74-50.17-1.52-4.74-9.44-10.42-2-15.41,2.95-2,5.18,4.58,6.41,7.19,9.66,20.49,13.56,42.23,12.51,64.91a17.07,17.07,0,0,0,2.45,9.28c15.21,24.32,29.51,49.1,40.17,76.11,1.75-11.75,4.46-23,4.9-34.41.85-22.26-3.22-44.25-5.86-66.29-.29-2.42-4-5.94.57-6.55,2.6-.35,4.8,3.46,5.84,7.27a217.55,217.55,0,0,1,6.65,39c1.26,14.46,2,28.77-.36,43-1.77,10.82-7.05,22.71-3.37,32.31,9.37,24.44,21.77,47.72,32.92,71.48,1.32,2.83,3.17.1,3.25-.1,4.3-10.86,9.44-21.53,12.33-32.77,4.07-15.8,9.13-31.32,11.39-47.68,2.55-18.4,9.79-35.86-1.36-54.56C338,627.6,338.59,606.64,339,586.28a4.41,4.41,0,0,1,2.31-3.11c.89-.39,3.25.26,3.38.82,1,4,2.24,8.21,2.06,12.27-.84,18.38,5.27,35.09,11.62,53.13,2.31-14.41,6.56-27.62,5.85-40.55-.59-10.79,1.36-21.73-1.14-32.4-.69-3,1.13-4.79,2.75-6.48.79-.83,3.81-1.07,4-.74a15,15,0,0,1,1.2,5.46,444.28,444.28,0,0,1-5.77,91.1c-4.27,24.74-7.78,49.59-14.1,73.93-.44,1.69-4,3.48-1.28,4.7,1.37.61,5-1.89,6.5-3.83a192.54,192.54,0,0,0,38.8-87.7c.69-4,1.71-11.58,7.19-10.26s2.47,8.12,2,12.57c-1,10-5.62,19-7.78,28.62-3.88,17.19-14,31.05-21.5,46.34-8.48,17.28-32.42,21.38-35.44,43-1.14,8.12-12,14-6.18,23.73,3.45,5.81,7,11.87,11.86,16.43,4.11,3.89,6.14,12.12,14.81,9.36,7.79-2.49,15.62-3.71,24-2.06,3.35.66,7.91,3.06,10.94-2.24,4.14-7.25,6.95-15,10.42-22.51,16.24-35.06,20.51-72.37,23.8-110.19C430.32,673.93,429.72,662.22,430.78,650.6ZM402.72,879c7.74-3.82,17.75-9.37,17.66-16.36-.21-15.09-29.17-33.24-44.16-32-20.55,1.73-40.26,9-61.86,5-19.28-3.64-30.55,11.89-41.67,25.24-10.95,13.15-20.06,28.56-36.41,35.94-19.87,9-26.57,21.15-20.95,41.45a7,7,0,0,0,4,5c8.5,4.09,19.35,4.79,23.95,15.11,3.58-2.48,7.81,7.63,12-1.76,7.62-17.12,22.78-24.2,41-25.7,18.81-1.55,34.73,4.23,48.62,18.76,0-11.56-.89-21.95.22-32.11,1.35-12.31,8.26-21.42,18.58-28.87C375.74,880,390.43,885.08,402.72,879Zm3,347.62c3-8,20.34-19.65.67-29.42a109.91,109.91,0,0,1-41.8-35.75c-8.32-11.82-18.92-22.43-17.37-41,2.86-10.25-7.5-6.88-12.51-6.62-18.12.94-36.62.91-53.45,9.26-13.54,6.72-22.61,16.56-22.29,33,.3,15.47,10.38,25.32,21.32,32.5,17.47,11.48,37.48,19.17,49.28,38,3.8,6.08,7.31,13.38,12.95,17.09C366.83,1259.75,393.65,1258.88,405.73,1226.63Zm-5,25c-6.46,6.53-11.42,8.52-16.6,10.59-16.92,6.75-48-3.84-57.21-19.66-8.38-14.45-19.36-26.21-34.38-34.48-16-8.81-32-18.22-40.38-35.83-2.5-5.28-1.79-13.84-11.31-11.39-6,1.55-12.39-.44-18.34,3.42-6.76,4.4-14.47,7.39-21.87,10.77-21.55,9.88-31.45,43.11-17.25,59.36a204.86,204.86,0,0,1,34.91,55.69c1.72,4.1,6.59,4.48,6.41,7.66-.47,8.46,6.49,10,11.31,13,15.59,9.78,33,6.5,50,6.19,11.24-.2,23-2.56,33.62,1.57,12.66,4.91,25,6.84,37.31,1C384.19,1306.61,388.69,1278.78,400.72,1251.62ZM355.07,1093c1-3.53-4.22-1.84-6.3-3.58s-5.89-1.27-8.6-2.49c-11.75-5.3-21.27-14-20.14-27.21,1.84-21.6,14.22-41.37,11.36-64.29-.83-6.63,2.2-14.32,8.44-19.79,8.43-7.4,10.14-11,8-12.64-13.71-10.79-27.48-21.58-39.19-22-43.54.6-52.61,26.36-49,54.75,2.16,16.92,6,32.88-.26,49.81-5.76,15.66-15.16,31.47-1.85,48.62,6,7.77,24.47,14.08,34.2,13.44,15.49-1,30.93-6.45,46.51-2.66C349.14,1107.57,352.75,1100.84,355.07,1093ZM274,1116c-3.19-1.28-5.2-2.3-7.33-2.92-17.67-5.16-30.24-32.52-24.58-49.6,5.16-15.57,14.05-30.72,10.78-48.18-1.95-10.47-5.48-21.09-3.58-31.52,2.28-12.6-4.61-17.68-13.61-22.86-20.2-11.63-41.84-15.8-64.08-9.39-11.48,3.31-22.62,9.6-24.79,24.47-1.64,11.35-4.88,22.5-7.82,33.63-2.17,8.22-8.9,14.59-9.91,23.38-2.38,20.52,11.92,33.77,21.64,48.88,5.57,8.66,10.88,17.72,12,27.64,1.89,16.35,19.15,38,35.31,41.41,12.88,2.68,25.92,1.75,38.55-.55,3.71-.68,10.54,1.58,12.2-4.51C252.47,1132.37,259.39,1121.8,274,1116ZM56,1618.34V61.66l-48-48V1666.34Z"/></svg>