<svg xmlns="http://www.w3.org/2000/svg" xmlns:xlink="http://www.w3.org/1999/xlink" viewBox="0 0 976 1600"><defs><style>.cls-1{fill:none;}.cls-2{fill:#f4f3ef;}.cls-3{clip-path:url(#clip-path);}.cls-4{fill:#50b271;}.cls-5{fill:#d81e1e;}.cls-6{fill:#592116;}.cls-7{fill:#992d17;}</style><clipPath id="clip-path"><path class="cls-1" d="M960,22V1578a6,6,0,0,1-6,6H22a6,6,0,0,1-6-6V22a6,6,0,0,1,6-6H954A6,6,0,0,1,960,22Z"/></clipPath></defs><g id="Paper_Backing" data-name="Paper Backing"><path class="cls-2" d="M960,22V1578a6,6,0,0,1-6,6H22a6,6,0,0,1-6-6V22a6,6,0,0,1,6-6H954A6,6,0,0,1,960,22Z"/></g><g id="Wikipedia_Cropped" data-name="Wikipedia Cropped"><g class="cls-3"><path class="cls-4" d="M736.09,1501.2c-69.32-7.2,13.92-58,42.95-42.47,6.63,13,5.89,5.06,14.92,10C784.55,1491.29,752.77,1500.75,736.09,1501.2Zm-125-55.94c-55.17-6.15,12.38-59.45,41.58-53.16,19.25-.34,12.47,3,20.32,13.66a4,4,0,0,1,2,5.41C665.75,1432.17,634.08,1445.61,611.13,1445.26Zm-119.91-68.09c-57.24,3.89-11.54-46.85,23-42.18,6.24,2,36.47-2.86,32.48,10.22-4.56,4.82,5.27,9.68,0,13.83C529.65,1371.24,511.5,1377.17,491.22,1377.17Zm305.1-14.7c-22.54-3-48.29-93.45-12.49-81.15C801.92,1293,833.65,1360.71,796.32,1362.47Zm-147.87-56.26c-27.82-18.28-51-55.7-36.42-84.75-1.67-3.62-.22-8.73,4.46-7.7,28.94,12.27,50.85,54.34,34.15,80C649.12,1298.07,656.38,1305.18,648.45,1306.21Zm123-192.53c-17-27.44,17.35-78.22,40-64.92,16.24,24.38-10.65,51.26-24,62.52C780.78,1113.37,779,1107.78,771.41,1113.68ZM623,1051.77c-34.33-5.14-53.11-20.17-65.88-48.95-1-3-.75-6.86,2.86-7.49,5.57-1.61,5.49-9.43,12.88-8.49C596.3,983.86,658,1033.59,623,1051.77Zm69.67-7.87c-19.18-21.31,9.44-63.73,23.09-76.62,5.87-6.73,12.1,2.43,18.68-1.95,19.09,17.8-1.65,63.3-24.39,77.83C701.74,1044,703,1037,692.66,1043.9Zm-95.3-133.16c-78.94-5.66,13.95-67.93,48.77-42.7C664.8,899.75,622,910.94,597.36,910.74ZM450.81,886.55c-39.39-17.17,23.82-72.24,49-70.92C535.75,832.82,475.42,887.81,450.81,886.55Zm-109.14-7.14c-19.23-15.31,25.47-96.09,53-66.93,17.07,21.79-14.12,51.09-31.68,62.16C355,883.43,352,869.5,341.67,879.41Zm464.9-22.55c-24-27.23-10.75-101.78,31.4-111C857.77,778.47,844.1,822.16,824,846,802.5,848,817.68,850.9,806.57,856.86Zm-587.74-4.12c-7.21-1.85-.87-11.08-10.42-14,2.35-27.91,40.19-41,66.47-41.57,20,4.69-.44,6.89,21.6,17.31C290.34,848.07,247.28,852.82,218.83,852.74Zm503.05-60.4c-29.83-.42-42.06-162.66,17-87.43,14.49,24.38,13.6,56.36-.61,78.52-3.49,4.47-10.73-.66-12.6,6.12A4,4,0,0,1,721.88,792.34Zm-426.59-24.4c-21.75,0-37.11-13.22-52-26-8.59-42.52,65-16.65,80.48,3.79a4.05,4.05,0,0,1-1.22,6.08C316.11,767.57,313.28,767.7,295.29,767.94Zm292.32-47.62c-41-11-66.09-48.17-64.11-78.07,18.52-18.2,44.84-.47,55.22,18.69,6.43,14,26.51,35.87,12.19,48.92C589.82,713.57,594.15,719.84,587.61,720.32ZM565.32,608c-21.3-1.29-34.89.37-44.4-22.76,8.57-27.16,60.68-24.61,79.52-1.81-3.44,4.09-1.5,7.7,1,11.5C596.37,606.39,577.81,607,565.32,608Z"/><path class="cls-5" d="M154.9,1298.13c-75.43-13.44,25.48-57,51.46-63.49,8.67.16,7.06,10.19,4.36,15.84C205.94,1274.1,182.38,1299.3,154.9,1298.13ZM315,1289.92c-35.81-8.12,3.83-67.48,23.3-75.17C357.8,1224.83,338.4,1291.08,315,1289.92Zm85.86-32.33c-31.33-4.06,6.44-68.8,24.26-76.23C440.38,1202.86,429.09,1253.24,400.83,1257.59ZM219,1164.84c-20.08-3.35-40.7-8.44-55.85-27.5C142.92,1080.3,256.63,1153.79,219,1164.84Zm81.64-54.08c-19.58-3.48-68.44-57.09-32.3-70.27C288.76,1050.75,312.49,1091,300.6,1110.76Zm85.58-39.1c-55.67-30.26-36.29-112.58-5.48-64.51C387.55,1026.33,399.37,1051.15,386.18,1071.66ZM260.39,611.52c-18-.57-43.49-6.54-39-30.78,14-34.87,116.85,33.21,39,30.78Zm498-40.8c-100.26,2.69,16-61.85,36.23-23.42C801.63,568.52,771.24,568.56,758.37,570.72ZM251,533.65c-21.8,1.28-64.56-13.65-48.07-40.59C217.79,475.72,306.08,538,251,533.65Zm153.61-6.9c-18.75-10.46,28.26-42.51,40.26-48.95,12-6.64,26.31,2.71,26,16.86C469.31,523.4,426.1,520.26,404.64,526.75ZM572.5,499.67C503.44,493,485,390,546.74,448,552.41,458.22,592.29,495.07,572.5,499.67Zm164.34-5c-87.61,2.13,51.36-80.52,55.56-23.91C786.35,493.49,756.05,493.53,736.84,494.63ZM233.77,438.5c-68.05,6.5-85-62.39-35.29-42.2C206.2,402.13,252.36,429.59,233.77,438.5Zm137.73-3.27c-15.12-14.35,31.7-57.72,46.93-51.8C483.91,391.29,399.81,440.5,371.5,435.23ZM596.39,401.5c-32.17-1.73-92.18-61.11-48.1-83.24,31.9,3.09,47.55,43.68,52.13,72C602.16,393.28,602.59,401.8,596.39,401.5Zm133.07-.31c-44.22-6.91,51.3-69.73,66.59-42.89C812,391.3,750.15,398.23,729.46,401.19Zm-399.24-52c-21.75-8.63,22.46-51.8,32.8-54.81,12.68-7.6,32.32-2.65,32.72,14C385,331.27,354.53,345.87,330.22,349.23ZM198.13,339.4c-22.55.79-89.5-42.74-49.7-58.8C159.27,278.8,233,341.92,198.13,339.4Zm458.22-30.95c-18.18-13.36-14.19-50.32-11.41-67.2,2.14-12.51,37.1-45.87,40.68-16.57C689.57,254,674.86,289.94,656.35,308.45Zm-397.7-23.59c-78.5-71.73,19.68-141.23,12.88-57.22C266,245.73,272.07,272.47,258.65,284.86Z"/><path class="cls-6" d="M973.88,1524.55c-34.87-42.27-81.91-73-126.94-104-7.37-4.67-18.51-8.4-20.8-15-4.38-12.64-13.55-23.65-8.09-40.74,10-33.4-9.55-72.21-37.42-92.17-10-6.92-10.55-1.09-13.79,4.37a47.69,47.69,0,0,0-6.62,18.57c-3.76,28.06,7.09,49.94,25.75,70,6.23,6.71,18.49,5.63,20.18,17.21.78,5.35,1.94,10.75,6.35,15.68-12-2.1-20.91-8.45-30.45-12.76-12.13-5.47-24.51-10.15-36.94-14.66-9.48-3.46-19-6.81-28.45-10.35-10.35-3.87-24.8.27-30.42-14.42-3-15.88-18.54-26.08-22.92-41.65-4.08-15.71.37-32.26-3.91-48.48-5.21-19.76-16-34.39-33-44.88-8.77-5.41-18.88-10.13-23.16,4-10.17,34.52,7,72.92,34.75,94.89,6.35,4.64,15.53,2.19,19.62,8.85a235.84,235.84,0,0,0,20.1,28.5c.61.72.55,2,.8,3-12.19.17-24.44-4.06-36.65-5.36a368,368,0,0,0-71-4c-3.3.12-7.07,1.59-9.49-.71-19.45-18.47-43.61-12-65.52-10.29-17.91,1.41-31.47,14.72-37.39,32.62-1.78,5.37-4.41,12.86,5.46,16.65,28.43,8.77,61.42,5.3,85.13-13.19,5.3-4.2,10.13-12.15,15.53-12.48,49.83-3.32,99.83,4.88,147.45,19-.46.66-.8,1.78-1.38,1.92-13.09,3.22-21.14,17.29-38.55,13.05-20.29-4.93-41.18-1.57-60.45,9.14-12.17,4.12-39.68,39.53-24.12,48.38,31.2,14.6,67.09-.22,89.31-24,8.71-8.93,8.31-24.33,23.36-28.84,10.12-3,19.35-14.56,28.49-14,14.28.92,27.52,8.09,40.34,14.07,26.37,12.51,53.06,24.83,77,41.76-8.67,6.39-19.93,8.37-29.7,12.82-6.82,2.62-14.38,8.54-20.34,7.22-16.3-3.6-31.86-6.45-48.9-3.66-21.08,3.46-36.86,12.67-45.06,32.44-1.77,4.27-7.81,11.48.74,15.47,32.29,18.48,68.31,5.33,94.55-17,7.13-5.6,5.35-17.46,16-20.49,8-2.29,15.45-7.34,23.55-8.68,9.6-1.59,15.76-14,29.68-4.06,23.48,16.75,47.32,32.91,68.5,52.49,10.64,9.84,23.67,17.08,32.1,29.42C971,1536.86,979.6,1530.94,973.88,1524.55ZM774.15,1282.14c3.66,26.91,13.91,51.51,22.17,76.33C774.49,1341.9,765.8,1312.79,774.15,1282.14Zm33.56,73c-9.41-22.11-17.72-44.28-23.88-69.83C799.76,1300.2,816,1345.19,807.71,1355.15Zm-196.85-114.3c-.48-3-2.34-5.61.23-8.38,14.5,23.19,23.52,45.13,37.36,69.74C626.73,1285.32,614.82,1265.53,610.86,1240.85Zm41.25,45.77c-7.24-15.31-17.36-28.16-23.3-43.49-2.92-9.1-10.89-16.33-13.48-25.49C641.8,1228.7,654,1258.78,652.11,1286.62ZM471.4,1357.45c19.44-23.19,46.15-19.36,72.2-15.5-.06.31,0,.8-.19.9-2.32,1.34-4.67,2.63-4.87,2.74-26.39,1.27-46.25,9.57-69.33,15.52A24.78,24.78,0,0,1,471.4,1357.45Zm-3.86,13.12c25.93-6.92,50.7-12.51,76.84-14.78C521,1372.53,495.87,1376.52,467.54,1370.57Zm196.19,26.54a7.38,7.38,0,0,1,1.94,1c-.93.88-1.72,2.19-2.83,2.58-24.28,9.14-44.52,24.64-69.75,31.91C602.61,1405.05,638.62,1392.25,663.73,1397.11Zm-20.45,37c-13.3,5.82-27.85,8.82-43.81,6.19,20.35-8.22,40.11-15.58,58.33-26.27a34.11,34.11,0,0,1,13.64-4.61C665.52,1421.56,654.77,1429.08,643.28,1434.11Zm131.8,27.07c.79,0,1.55.81,2.32,1.24-17.93,9.93-39.28,14.3-58.46,22.06-1.64.57-3.56.37-6.13.6C728.52,1462.13,751.37,1460.45,775.08,1461.18Zm-58.62,32.93,74-23.31C769.68,1490.7,746.62,1503.37,716.46,1494.11ZM570.92,1099.27c27.26-2.4,54.51,1.15,81.53,4.26,12.29,1.42,25.77,2.54,36.33,10.51,14.77,11.15,26.54,25.48,39.13,38.94,83.4,83.63,155.46,177.62,238.87,261.16,3.79,2.94,9.79,1.57,4.25-4.11-47.32-64.24-103.59-120.61-153.93-182.27-18.53-20.44-37.62-40.38-56.58-60.43-1.21-1.28-.77-1.21-.12-2.66,3.9-8.72,6.49-18.08,11-26.46,3-5.69,3.08-15.46,9.8-16.4,21.56-5.15,44-37.71,41.11-60-.71-7.43-.13-16-7.19-20.64-28-14.31-55.94,31.12-56.17,55.54-1.11,15.2,6.7,29.28-.91,46.09-7.9,17.46-11.39,12.17-19.65,2.41a332.56,332.56,0,0,0-41.73-41.33c-7.69-6.36-14.29-14.09-5.94-26.27,6.93-10.12,8-24.51,22-29.23,25.8-9.94,51.36-73.64,21.84-90.15-9.25-4.8-16.93,2-24,6.72-14.13,9.55-21.78,24.11-27.44,39.61-4.32,11.8-5.05,23.79-2.84,36.66,1.14,6.63,8.79,10.5,6.12,17.51-3.08,8.08-6.86,15.9-10.22,23.56-6.53-5.83-13.45-11.73-20-18-5.17-4.91-14.67-8.53-14.49-15.24.61-23.77-13.94-38.88-28.39-53.84-12.37-12.85-29.54-15.66-46.17-13.21-15.6-.95-21.92,1.92-16,21.21,9.39,29.54,31.48,48.56,61.8,54.1,7.16,1.37,17-1.23,21.39,2.7,13.76,12.25,25.5,26.76,34.18,36.21-76.22-17.7-160-1.2-234.43,20-7.87,3.07-13.3,11-20.5-2.51-25.48-39.37-9.49-87.46-34.31-121.13-42.36-27.46-41.73,47.25-16.42,64.77,7.51,6.74,18.56,10.8,23.5,18.85,8.74,14.2,13.59,30.73,21,45.83,2.71,5.53-2.52,4.48-3.26,4.62-17.09,3.32-32.82,10.75-49.2,16.16-8.18,2.71-15,9.52-22.65-2.6-8-12.62-23.69-19.15-23.61-38.3.11-24-10.94-44.5-28.33-61.39-35.16-28.24-37.31,33.48-16,48.49,9.82,8.91,19.85,17.32,30.15,25.61,13.91,11.19,24.67,26.52,39.88,37.91-19.16,5.78-35.51,19.31-53.68,28-4.48,2.49-11.76,7.9-13.16,6.69-21.63-15.65-29-18-40.94-43.89-12.25-18.15-49.84-48.77-69.49-27-7.11,7.89-4,16.05.4,24.44,5.23,9.86,15.19,12.83,23.47,18.47,18.76,12.79,44.52,5.15,61.89,21.74,4.51,4.31,9.64,8,14.41,12,1.66,1.41.07,1.35-.87,2.09-7.81,6.09-15,13.09-23.3,18.41s-11.75,18-26,15.74c-29.37,3-58.18,18.16-81.12,36.36-5.35,3.85-11.4,10.74-8.31,19.46,22,48.11,96,11.06,100-31.75,1-6.73-2.13-16.12,3.12-20C261.38,1202,306,1177,352.45,1155.42c-2.1,9.53-6.28,18.14-8.11,27.72-1.7,8.94-4.89,19.28-11,25.37-20.27,20.15-40.26,39.79-38.26,71.46,1.23,14.58,17.46,21.82,30.19,14.78,22.68-14.61,26.52-48.3,24.53-72.93-.57-5.87-6.5-9.8-3.63-16.72,4.48-10.81,6.45-22.69,11.24-33.32,3.62-8.06-.6-19.87,14.25-23.29,18.68-4.29,36.59-12,55.92-18.87h0c1.3-.46,2.59-.92,3.9-1.37-5.8,11.71-6,20.86-8.64,32.14-5,16.45-16.7,29.46-26,43.65-13.26,17.09-27.69,69.21,10.4,60,29.75-10.82,38.5-62.21,23.78-87.47-3.25-4.91-1.19-10,.5-15.22,2.55-8.06,5-16.31,5.45-24.6.54-9,4.54-12.11,12.28-13.73C489.91,1115.63,529.49,1101.81,570.92,1099.27Zm240-46.54c5.24,26.28-9.92,41.11-26.22,55.56C793.09,1090.46,801.5,1072.63,810.89,1052.73Zm-9.42-3-30.06,60C766.56,1079.73,787.87,1053,801.47,1049.69Zm-67-80.36c8.6,11.41-.77,54.46-26.5,70.43C717.21,1015.09,725.94,991.88,734.43,969.33Zm-43.35,56.42C687,1007.15,726,952.37,722.91,973c-.72,2.09-1.07,4.44-2.26,6.22-13.39,18.24-15.24,42.95-28,60.67C689.59,1035.94,691.6,1030.44,691.08,1025.75Zm-110.32,4.41c-9.24-8.6-16.59-19.19-20.15-30.88,23.62,13.1,40.2,32.63,62.38,48.49C605.6,1044.69,592.36,1040.1,580.76,1030.16Zm-12.09-38.23c21.48-7,60.87,26.4,61.81,48.58A585,585,0,0,0,568.67,991.93ZM387.3,1052.51q-.56,7.58-1.12,15.15c-3.86-3.44-7.68-6.93-11.58-10.33-12.49-9.82-34.14-53.42-11.1-59.94C378.46,992.45,388.67,1041.64,387.3,1052.51ZM296,1105c-14.54-6-52.67-49.88-29.41-60.86,22.73,12.12,31.55,38.62,34,62.64A37.62,37.62,0,0,1,296,1105ZM215,1160.56c-11.76-2.46-58.84-16.47-49.23-37.26C179.69,1104.52,244.83,1165.91,215,1160.56Zm-6.15,82.83c-5.38,17.28-11,34-28.46,43.76-17.72,9.74-41.27,10.62-49.81-5.37,2.37-10.46,12.19-11.55,18.26-16.78,15.81-13.66,36.74-16.31,54.61-25.55C206.27,1238,210,1238.11,208.81,1243.39ZM342.24,1229c-1.83,14-3.44,28-9.09,41.39-7.13,19.18-30.91,21.4-28.14.36.18-10.93,6.34-20.89,13.78-30.38C323.65,1232.76,341.55,1204,342.24,1229Zm68.93,20.08c-4.39,4.34-11.36,6-15.86,2.83-10.74-13.52,16.93-57.07,28.92-66.67C431.37,1205.26,427,1233.9,411.17,1249.11ZM205.54,343c2.53-.27,4.21-2.54,7.67-1,15.27,6.78,30.92,12.72,46.32,19.22,6,2.53,15.09,4.37,16.9,8.88,10.33,25.7,15.18,53.31,26.26,78.86.14.31-1,1.68-1.28,1.6-17.29-5.87-35.17-10.51-51.62-18.19-13.55-6.32-19-22.56-32.43-30.65-11.54-7-21.9-15.71-35.94-16.7-20.25-.89-22.92,25.79-11.22,37.83,18.39,23.1,49.11,19.45,74.54,19.28,14.88,2.52,29.28,9.05,43.27,15.29,7.49,3.36,17.6,2.57,21.19,13.8,6.09,19.07,13.82,37.61,20.68,56.44,1.52,4.17,4.51,10,2.88,12.54-1.88,3-6.36-1.93-9.83-3.05-5.21-1.68-11.4-1.61-15.72-4.47-10.19-6.77-23.36-1.51-33.53-12.32-15-16.89-73.14-63-80.81-19-1.85,32.44,43.5,41,68.4,35.83,20-7,40.22,5.07,59.44,10.12,6.37,2.26,15.62.45,18.85,7.07,1.61,5.22,28.7,58.22,18.5,54.4-15.71-2.64-31.41-5.3-47.09-8.08-5.47-1-13.71-.42-15.87-3.72-14.44-22.06-35.69-29-60.27-31.55-16-1.52-24.68,15.37-18.72,28.32,9.23,19.51,41.62,29.73,62.32,20.43,6.33-2.84,13.39-7.25,19.62-6.55,16.64,1.88,33,6.09,49.48,9.5,7.13,1.47,18.59,1.14,20.55,5.24q13.68,28.58,28.74,56.4c13.74,25.23,29.33,49.43,49.94,69.56-4.89,3.42-10.49,3.83-16.23,4.86-13.61,2.43-26.84,7-40.45,9.38-25,9.33-22.21,7.17-46.48-3.84-6.57-3.35-12.45-7.76-16.08-15.72-17.31-31-65.8-37-96.59-23.41-4.14,1.89-10.14,6.45-6.1,9.91,8.67,7.42,14.48,17.15,23.37,24.61,16.06,13.47,32.86,19.89,53.63,19.49,27.48-5.76,21.53-15.5,51.62.35-7.49,4.85-16.58,7.68-25,10.47-12.71,3.41-22.81,14.29-38.46,9.72-32-9.33-59,1.42-81.52,24.71-13.51,13.34-17.59,34.58,6.2,37.86,31.29,6.68,70-.71,85.16-32.25,3-6,2.14-14.48,10.66-17.51,35.57-12.88,70.05-26.53,106.89-36-5.25,5.9-9.87,11-14.42,16.24-3.21,3.65-6.14,10.37-9.52,10.59-19.24,1.2-32.67,11.72-45.4,24.55-14.88,15-18.34,33.67-17.55,53.41.23,5.68-.58,17.37,9,14.57,28.29-7.46,63-30.51,63.67-63.32-.34-10.88-4.39-21.89,5.75-31.08,13.28-10.38,17.72-29.58,36.76-30,38.79-7.58,80.57-5.4,117.19,9.57-15.2,10.45-30.55,21.09-46,31.54-2.48,1.68-5.94,4-8.28,3.44-9.08-2.29-18.18-.6-25.82,2.59-27,11.26-45.84,30.55-53.4,59.71-3.53,13.6.34,20.3,12.68,20.22,32.79-.67,78-28.36,75-65.73-.4-4.48.82-7.59,4.48-10.19,12.73-9.07,25.25-18.44,38.07-27.39,4.21-2.58,12-10.65,16.79-9.42,17.57,8,34.37,17.89,50.79,28.14,24.84,18.57,50.65,33.37,72.35,56.7-16.21-2.78-29.41,7.76-44.66.23a66.23,66.23,0,0,0-22.68-8.22c-30.58-4.7-55.08,7.45-74.73,30-2.62,3-11,7.93-1.68,14.58,29.44,22.28,90.49,23.9,101.63-18.93,3.4-5.21,24.67-6.41,31.43-7.53,9.23-.86,17.1-6.2,25.56,2.29,57.45,56.7,101.72,123.71,152.4,186.12,34.13,44.49,66.84,90.09,102.16,133.66.72.91,2.5,1,3.79,1.4-8.66-40.09-42.64-69.15-63.56-103.26-33.92-46.92-70.72-91.63-104.75-138.4-5.26-7.79-13.39-13-8.12-25.68,6.3-15.13,7.86-32.16,13.1-47.81,8.79-39.58,33.09-29.88,43.21-75.64,3.19-18.12,7.32-53.17-8.18-66.23-20.33-13.93-46.56,22.79-51.68,40.33-7.54,23.79-8.17,46.89,1.58,70.47,2.32,5.61,11.09,7.81,8.45,14.63-8.14,21-12.18,43.09-18.54,64.38-57.81-63.19-35.94-42.08-47-121.51-3.9-19.85,12.29-16.07,17.25-48.73,6.76-30.11-7.08-87.57-47-82-6.44,1.43-10,7.6-12.16,13.11-13.09,33.36-8.61,74.27,16.83,100.79,6.74,6.66,14.3,11.65,14,24-1.42,17.73,5.64,36,4,53.58a119.34,119.34,0,0,1-17.18-16.22c-12.49-15.11-33.41-21.64-40.43-42.67-21-63.31-25.77-130.78-24.81-197-3.1-22.6-1.38-21.78,19.78-29.16,51.41-31.28,72.18,6.71,119-12.66,15.94-5,26.54-26.45,10.26-37.46-18.21-13.92-37.27-9-55.93-1.06-11.64,4.95-19.49,16.72-30.2,21.58-19.54,8.87-39.45,17-58.73,26.57-3,1.47-5,0-4.8-4.16.67-13.67.43-27.4,1.59-41,.47-5.59-2.12-12.74,5.67-16.44,8.44-4,16.51-8.79,24.76-13.2,7.9-4.23,16.84-13.21,23.53-11.77,25.4,5.47,49.84,8,75.06-.72,30.35-11.39,29.5-48.17-6.4-52.55-25.71-.84-45.11,13.05-62,29.32-16.11,15.5-35.6,25.52-53.18,38.53-1.7,1.26-4.43,1.12-6.69,1.63,0-17.66,1.46-35.3,1.51-53-.55-11.7-1.17-25,12.81-28.18,22.37-6.6,36.8-27.23,63.69-24.93,25,5.52,83-11.11,81.34-43.42-12.21-32-54.55-16-73.89,1.11-10.21,8.42-16.8,20.27-26.65,28.17-15.91,12.7-35.08,21.6-52.45,32.12-6.35-3.82-1.74-15.18-1.57-21.43,1.73-17.71,2.69-35.36,3.12-53.13.25-10.55-.41-22.17,3.75-31.31,17.75-27.6,37.63-57.5,34.17-92.39-1.11-11.66-10.77-24.67-18.58-22.9-49,8.82-50.77,71-30.53,106.94,1.89,3.66,6.89,7.62,6.21,10.41-5.4,22.09-3.8,44.84-6.83,67.14-.9,6.62-3.42,13.58-1,21.14,1.38,4.3-2,10.1-3.18,15.23-66.54-41.17-15.81-54.51-64.72-100.33-22.37-24-60.18-10.67-47.23,27.81,6,22.8,22.77,37.44,43.58,47.61,12.54,6.12,28.73,1.81,39.12,14.84,8.75,11.79,29.09,15.15,28.6,33-2.32,26.33-3.43,52.76-5.13,79.15-.15,2.44,3.9,4.89-.26,7.36-3.54,2.1-3.93-2.37-4.67-3-18.47-16.47-40.58-28.73-53.8-51.28C564.84,458.85,553.6,437,530.79,426c-8.11-3.9-16.9-5.62-23.85,3.07-20.11,27.38,22.71,63.63,47.45,70.6,9.6,3.19,21,.11,28.51,5.06,16,10.5,30.07,23.83,44.75,36.23,2.94,2.49,9.14,1.21,8.63,8-.79,10.51-1.27,21.07-1.2,31.61,0,5.29-2.72,4.3-5.94,4.21-16.6-.48-27.79-13.14-42.18-18.69-18.9-7.29-37.62-12.83-56.33-1-64.12,43,55.24,71.26,83.57,30.59,6-2.17,13.6-1.1,20.15.32.68.14,1.07,2.29,1,4.93-4,13.52.47,20.82,1.46,33.93-3.45,37,.92,73.62,4.9,110.35-12.83-14.84-39.37-17.94-37-43.66-11.05-29.64-26.48-74.17-66.57-72.5-32.62.2-21,31.39-12,49.94,11.6,24.15,35.79,48.51,64.25,46,1.85-.16,2.68-3.61,5.66-.66A157.68,157.68,0,0,0,625,747c7.05,4.31,16,8.48,19.42,15.12,6.84,13.2,5.64,29.42,12.64,43.06.43.84-.13,2.18-.22,3.28C603.11,770.6,540.54,739.94,473,746.05c-9.43,3.32-15.14,7.46-21.43-5.56-33.26-50.68-63.34-103.55-86.4-159.67-2.74-7.43-13.47-16.88.16-25,11.29-4.28,19.06-19.28,29.46-22,24.32-6.22,78.38-4.93,82.68-36.12,1.71-9-1.68-15.07-6.25-21.12-17.82-18.65-41.34,3.27-56.24,15.34-11.47,10-17.07,24.76-27.82,35-10.14,9.61-22.39,17-33.65,25.3C347,535.3,339.8,518,333.63,500.33c-3.88-11.1-14.95-23.76,2.26-33.16,13.94-7.63,21-24.28,40.27-25.68,24.6-1.79,48.47-7.5,65.33-29.49,6.36-8.3,10.83-14.74,5.64-24.48-22.75-31.36-69.57,2.47-82,29.46-2.68,5.26-.93,13.92-4.62,17.31-12.09,11.11-25.74,20.5-40.87,32.15,4.27-6.86-1.57-8.15-2.71-11.77-5.58-17.81-11.63-35.46-17.36-53.22C288.46,379.57,299.06,379,313,365c7.95-8.62,19-7.55,28.45-11,19.66-6.72,65.52-26.68,60.94-52.72-21.12-40.94-69.45,3-79.67,29.38-3.26,7.24-.83,16.28-7.19,22-7.73,7-16.25,13.15-24.25,19.87-6.59-15.06-9-31.91-13.69-47.7-4.42-17.65-9.89-34.12-5.47-53.51,6-26.31,21.12-78.6-14.86-89.67-8.73-1.79-17.35,2.17-24.11,8.19-21.13,18.82-12.06,53.61.62,74.69,6.46,10.75,18.84,19,23.91,28.83,9.59,18.71,11.92,40.57,17.19,60.77.2.77-.4,1.76-.63,2.64-6.8-3.11-13.63-6.29-20.13-9.93-14-8.08-31.3-8.24-43.34-22-15.37-17.54-30.53-35.83-51.61-47.58-6.6-3.68-23.86-2.48-26.19,3.05C118.73,318.83,176.65,345.53,205.54,343ZM234,434.5c-17.63-.52-33-2.68-47.09-9.68-12.34-6.13-17.12-22.37-8.28-27.89,12.46-8.42,51.07,25.58,56.39,37.18Zm32.35,92.22c-15.87,7.72-40.08.68-55.27-8-6.41-3.83-5.76-10.38-8-14.91C203.72,474,259.09,517.34,266.36,526.72Zm18.69,76.39c-.66,1.81-1.66,2.15-2.75,2.09-17.05,1.73-32,5.15-48.8-4.23-12.05-5.3-12.61-29.45,3.49-26.06C250.78,576.79,284.84,585.71,285.05,603.11Zm29.31,157.73c-25.71,10.36-53.67-5.26-69.84-24.42,22.6,3.75,45,14.39,67.5,20.47C314.25,757.61,317.13,757.75,314.36,760.84Zm-65-35.1c11.79-8.9,56.69,4.7,71.33,22.53ZM211.52,836.26c6.84-21.78,48.2-41.63,69.68-32.65-23.47,8.74-45.54,18.17-65.69,31.62C214.13,836.15,212.92,838,211.52,836.26Zm81.14-18.35c-14.36,28.47-45.46,30.37-73.83,30.83C220.9,843.5,298.79,806.88,292.66,817.91Zm92.82-8.38c-8.12,6.64-37.67,50.29-43.81,65.88C337.66,847.36,364.82,807.27,385.48,809.53Zm-24.42,61.09c-.56.3-4.6,7.57-5.48-.06-.19-1.69,4-3.5,5-5.77a201.58,201.58,0,0,1,33.81-48.32C400.54,838.41,377,862.2,361.06,870.62Zm80.71,2.62c-3.19-18.22,37.08-54.41,58.76-53.6Zm6,9.08,61-54.83C502.66,855.43,467.91,885.52,447.72,882.32ZM644.4,871.64,572,887.77C592.73,868.74,621.2,860.52,644.4,871.64ZM646,887.41c-9.38,21.44-59,24.09-76.17,12,25.57-4.49,51.89-13.88,78.07-15.81C647.3,884.87,646.63,886.12,646,887.41ZM838.31,749.9c8,33.09,7.06,64.69-17.34,93.5C826.37,811.29,836.08,781.28,838.31,749.9ZM805,784.39c4.3-12.43,11.69-25.67,24.12-31.19-6.07,33.29-16.81,66.1-22.57,99.66C796,830,797.9,807.15,805,784.39Zm-98.92-91.9c5.25,31.93,10.37,63,15.78,95.85C702.41,767.51,692.75,735.83,706.1,692.49Zm17.62,38.64c-3.14-14.55-5.16-28.88-9.27-43.27,16.33,3.45,29.44,31.71,30.68,47,1.19,14.71-2.86,28.33-6.44,42.13-.48,1.83-3,3.12-4.56,4.67C730.56,764.87,727.17,748,723.72,731.13Zm3.53-177.38c16.44-9.94,50-26.71,63.67-4.87,3.71,8.71-4,11.82-9.2,13.64-19.8,6.28-42,3.45-60.53-.74C723.18,559.05,724.58,555.31,727.25,553.75Zm-12.46-74.43c18.49-13.41,45.48-35.13,68-19.73,12,8.75,2.26,20.87-8.41,25.43a107.06,107.06,0,0,1-63.63,1.33C707.73,485.55,712.48,481,714.79,479.32Zm53.48-121.5c8.59-2.55,17.19-4.22,25,3.35,5.07,4.91,3.09,8.53-.21,12.61-12.59,15.57-30.95,18.32-48.92,20.87-8,1.13-16.49,5.56-24.44-.87C732.15,377.19,747.66,363.93,768.27,357.82ZM649.15,287.67c-4.15-15.17-3-30.36-.27-45.71,1.51-8.36,19.21-25.85,27.48-24.75,7.7,1,3.79,8.88,6.37,13.14,1.19,2,.2,5.21.2,7.87-2.29,21.11-11.63,40.13-21,58.65-2.76,2.14-4.69,9-6,7.31C652.36,299.68,650.73,293.44,649.15,287.67ZM590,394.66c-74.14-15.62-63.35-123.8-4.76-42.72,6.54,12.7,6.7,26.72,11.44,39.72C600.66,402.56,591.65,394.91,590,394.66Zm-14.9,100.08c-26.65-1.4-51.05-19.11-61.35-44.78-1.86-4.82-4.84-14.58,6.88-15,12-.54,16.48,8.77,23.23,15.79,12.19,12.68,20.08,28.34,31,41.85C575.22,493.11,575.35,494.59,575.09,494.74Zm21.51,87.57c-24.56-2.68-48.35-1.15-72.08,1.21C538.84,568.86,555.68,561.78,596.6,582.31ZM540,600.93a14,14,0,0,1-10.62-7c22.61-1.74,45.83-1.7,68.09,1.71C579.19,606.47,559.7,605.1,540,600.93Zm-14.71,44.9c19.63,26.36,38.57,48.65,62.33,70.49C551.18,706,535.34,680.91,525.28,645.83Zm67.12,56.93c-21.75-19.06-40.17-41.24-59.83-63.17,21.58-4.35,33,8.54,42.8,23.54C582.41,675.25,591.32,688.71,592.4,702.76ZM403.45,520.27c10.94-16.87,25.73-29.67,43.32-38.93,25.6-9.1,28.62,30.5-2.92,33.8-12.78,1.65-25.35,4.94-38,7.48C404,523.23,402.55,522.12,403.45,520.27Zm-7.66-125c7.92-9.56,33.62-10.59,42.22-1.59,2.29,2.4.46,4.65-1.08,6.87-14.68,23.49-39.78,28.21-65.43,30.73C374.45,415.28,386.63,406.28,395.79,395.22Zm-66.94-55.9c30.66-69.2,85.09-41.35,52.79-18.49a137.17,137.17,0,0,1-42.06,23.39C334.83,344.8,323.59,348.15,328.85,339.32Zm-68.24-62.1c-.18,1.28-1.28,2.43-2,3.64C240.84,265,217.49,214,244.26,197.45c5.94-2.91,14-7.74,19.19,1.65,2.68,4.85,4,10.45,5.84,15.4C266.37,235.76,263.55,256.5,260.61,277.22ZM143.1,286.09c12.51-10.14,54,37.62,61.61,48.14-24.7,1.25-51.2-11.71-63-36.32C140.16,294.35,138.86,288.52,143.1,286.09Z"/></g></g><g id="Red_Japanese_Frames" data-name="Red Japanese Frames"><path class="cls-6" d="M0,20V1580a20,20,0,0,0,20,20H956a20,20,0,0,0,20-20V20A20,20,0,0,0,956,0H20A20,20,0,0,0,0,20ZM924,1548H52V52H924Z"/><path class="cls-7" d="M952.1,15.41,928.69,38.83A4,4,0,0,1,925.86,40H50.14a4,4,0,0,1-2.83-1.17L23.9,15.41A2,2,0,0,1,25.31,12H950.69A2,2,0,0,1,952.1,15.41ZM40,1549.86V50.14a4,4,0,0,0-1.17-2.83L15.41,23.9A2,2,0,0,0,12,25.31V1574.69a2,2,0,0,0,3.41,1.41l23.42-23.41A4,4,0,0,0,40,1549.86ZM936,50.14V1549.86a4,4,0,0,0,1.17,2.83l23.42,23.41a2,2,0,0,0,3.41-1.41V25.31a2,2,0,0,0-3.41-1.41L937.17,47.31A4,4,0,0,0,936,50.14ZM925.86,1560H50.14a4,4,0,0,0-2.83,1.17l-20,20a4,4,0,0,0,2.83,6.83H950.69a2,2,0,0,0,1.41-3.41l-23.41-23.42A4,4,0,0,0,925.86,1560Z"/></g></svg>