<?xml version="1.0" encoding="UTF-8" standalone="no"?><!DOCTYPE svg PUBLIC "-//W3C//DTD SVG 1.1//EN" "http://www.w3.org/Graphics/SVG/1.1/DTD/svg11.dtd"><svg width="100%" height="100%" viewBox="0 0 372 587" version="1.1" xmlns="http://www.w3.org/2000/svg" xmlns:xlink="http://www.w3.org/1999/xlink" xml:space="preserve" xmlns:serif="http://www.serif.com/" style="fill-rule:evenodd;clip-rule:evenodd;stroke-miterlimit:100;"><g><clipPath id="_clip1"><rect x="4.001" y="1.699" width="366.133" height="584.501"/></clipPath><g clip-path="url(#_clip1)"><path d="M141.016,72.374c5.957,1.319 14.565,0.659 27.142,-4.642c-2.647,-5.288 -5.957,-11.249 -9.93,-17.868c-3.31,-4.635 -7.945,-7.279 -16.549,-8.611l-10.592,-1.318c13.24,-3.311 21.185,-7.945 23.832,-13.24l9.929,-28.47l-15.225,0.665c-7.944,0 -13.901,1.326 -18.537,3.976c-5.295,2.644 -9.93,6.62 -13.902,11.249l-4.632,5.96c-1.325,-5.3 -4.635,-9.93 -9.929,-15.231c-4.636,-4.629 -18.538,-9.263 -39.72,-12.574l1.322,14.565c0.663,7.939 1.988,14.559 3.311,17.868c3.972,6.62 10.592,10.596 20.521,12.58c-10.592,0.66 -19.859,3.31 -26.479,7.279c-7.282,3.976 -11.915,12.58 -15.224,25.819l17.871,2.651l20.522,3.969c7.283,-1.985 13.24,-5.294 17.875,-10.588l-1.326,3.309c-1.985,3.31 -2.647,7.279 -2.647,12.581c0,5.954 1.985,10.589 5.957,15.884l6.62,6.62c0,-2.644 2.647,-5.294 6.62,-9.264l9.267,-9.271c1.988,-4.635 1.988,-11.92 0,-21.184l3.973,1.985l9.93,5.301Z" style="fill:#d96038;fill-rule:nonzero;"/><path d="M59.594,-7.73l0,1.326c1.322,1.985 1.322,5.294 1.322,10.589c0.662,10.59 1.987,17.875 3.972,22.51c1.325,3.31 5.298,6.62 9.93,9.27l-15.225,5.288c-7.945,5.302 -13.24,13.906 -16.55,28.47l0,0.659l1.322,2.651l3.31,0c1.988,0 7.283,0.66 14.564,3.31l22.507,3.31l11.255,-3.969l-0.663,6.62c0,5.954 2.648,12.574 6.62,17.869l7.283,6.62l3.31,1.325l1.985,-2.644c0,-1.992 2.647,-4.642 6.62,-9.271l7.945,-8.611c1.985,-2.644 2.647,-5.954 2.647,-10.589l-0.662,-5.294l9.267,3.31c5.96,1.985 15.228,1.326 28.468,-3.976l2.647,-1.978l0,-1.332l0,-1.318l-10.592,-18.541c-3.31,-4.629 -8.604,-7.938 -15.887,-9.264c6.62,-3.976 11.255,-7.285 13.24,-10.596l9.267,-29.124l0.663,-0.665l-1.325,-1.979l-3.31,-1.332l-9.267,0.666c-9.929,-0.666 -18.534,1.325 -24.491,4.635c-7.282,3.31 -12.58,7.279 -16.55,13.24l-8.609,-11.255c-3.31,-3.311 -10.592,-6.62 -22.507,-9.264l-19.197,-3.976c-1.325,-0.666 -1.987,0 -3.31,1.326l0.001,1.984Zm100.619,9.264l-8.605,23.169c-1.325,5.301 -9.267,9.27 -21.185,12.58c-1.985,0 -2.647,1.325 -2.647,2.651l0,0.659c0,1.991 1.325,2.65 3.31,2.65c12.577,0 20.521,3.311 23.832,8.604l8.604,13.905c-9.93,3.31 -17.871,3.969 -21.844,3.31l-9.268,-3.976l-3.31,-3.31c-1.988,-0.667 -3.31,-0.667 -4.635,0l-0.663,3.31l0,0.666l1.326,11.908l-1.326,6.62l-6.62,7.285l-6.62,7.945c-5.958,-5.96 -8.605,-11.255 -8.605,-17.209c0,-7.286 0.663,-11.262 2.647,-13.24l1.325,-0.666l0,-1.984l-0.662,-2.651l-3.973,0l-0.662,0c0,0.66 0,0.66 0,0c-4.632,5.301 -9.93,8.611 -16.55,9.93l-19.86,-3.97l-13.239,-3.309c2.651,-9.93 6.62,-15.891 11.917,-19.2c6.62,-3.31 15.225,-5.961 25.817,-6.62l2.647,-3.31c0,-1.984 -0.663,-3.31 -2.647,-3.31c-9.267,-1.319 -15.225,-5.294 -17.875,-10.589c-1.985,-3.31 -2.647,-9.93 -3.31,-19.2l0,-7.938c17.212,3.31 28.467,7.279 32.439,10.589c4.632,4.628 7.942,9.929 9.267,13.898l3.31,2.651c1.322,0 1.985,0 3.31,-1.991l3.973,-5.954c3.969,-3.976 7.942,-7.286 12.577,-9.93c4.632,-1.985 11.915,-3.31 21.844,-3.31l5.961,-0.663Z" style="fill-rule:nonzero;"/><path d="M80.775,8.154l-2.647,0.666l-0.663,1.325l0.663,1.319l12.577,9.27c8.607,7.946 15.89,15.231 20.522,22.51l0,13.24c0,10.589 -0.663,19.859 -1.985,25.82l-0.663,0.659l1.985,1.985c0.663,0 1.987,0 1.987,-1.985c3.31,-8.611 3.31,-22.51 1.985,-41.044l0,-1.325c-7.282,-11.249 -18.534,-22.511 -33.761,-32.44Z" style="fill-rule:nonzero;"/><path d="M143.664,16.105c0,-1.331 -1.322,-1.331 -2.647,-1.331c-5.294,3.309 -11.915,8.61 -19.197,15.23l-10.592,10.589c-13.904,10.59 -28.465,15.891 -42.368,16.55c-1.325,0.66 -1.984,1.325 -1.325,2.651c0,1.985 0.663,1.985 1.988,1.985c14.562,-1.326 29.789,-6.62 45.013,-18.535l9.93,-9.93c6.62,-6.62 13.239,-11.92 17.875,-14.565c1.985,-0.666 2.647,-1.325 1.323,-2.644Z" style="fill-rule:nonzero;"/><path d="M114.537,40.594l-3.31,0c0,1.325 0,2.65 0.663,2.65l10.592,7.279c7.941,4.635 15.224,7.945 21.182,9.271c1.325,0.659 1.988,0 2.65,-1.326l-1.325,-1.984c-5.957,-1.325 -12.577,-4.635 -20.521,-9.27l-9.931,-6.62Z" style="fill-rule:nonzero;"/><path d="M279.369,220.653c6.619,2.645 17.213,2.645 30.452,0c-2.647,-13.239 -5.957,-21.843 -7.942,-25.813l-11.254,-7.286l-9.268,-3.976l14.561,-4.629c4.636,-2.65 10.593,-13.239 17.214,-31.114c-11.916,-3.31 -20.522,-5.294 -27.802,-3.31c-4.637,1.325 -9.932,3.31 -15.891,7.945l-8.604,6.62c-0.662,-6.62 -3.312,-12.58 -7.283,-17.209l-18.534,-15.23l-13.9,-9.93l0,7.945l-0.664,20.525c-0.662,10.589 0.664,19.193 4.637,26.479c-7.945,0.659 -14.564,2.644 -20.521,5.954l-19.86,12.574l27.144,15.89c5.957,2.65 12.575,1.325 19.194,-3.97l-1.983,3.97c-1.324,4.635 -1.986,8.611 -1.986,13.239c0,7.945 3.31,16.55 10.592,27.139c10.592,-4.629 18.535,-11.908 23.17,-20.519c3.973,-8.604 5.956,-13.899 5.293,-16.55l2.651,3.311c2.642,3.311 5.951,5.961 10.584,7.945Z" style="fill:#fcce00;fill-rule:nonzero;"/><path d="M313.793,144.526c-11.914,-3.31 -21.844,-5.294 -29.789,-3.31c-5.293,1.326 -12.577,5.295 -20.521,11.914c-1.983,-5.294 -3.973,-9.929 -7.28,-13.239l-18.535,-15.224l-14.563,-10.595l-3.312,-0.659c-1.321,1.325 -1.983,1.991 -1.983,3.31l0,9.27l-0.662,18.534l0,5.954c0,7.285 0.662,13.24 3.309,18.54c-7.282,0.66 -13.239,3.311 -17.211,5.961l-19.86,12.574c-1.323,0 -1.985,1.325 -1.985,2.644c0,1.332 0.662,1.991 1.985,2.65l27.142,15.89c3.973,2.65 9.268,2.65 13.901,0l-0.661,10.589l0,0.659c0,8.611 3.311,17.216 10.592,28.471c1.324,1.319 2.646,1.985 3.973,0.659c11.914,-5.294 19.859,-12.58 25.154,-21.844l4.635,-10.595c2.646,2.65 5.958,5.301 9.268,6.62c7.945,2.65 19.197,3.31 33.1,0.666l1.984,-1.984l0.663,-1.326l0,-1.325c-2.647,-13.898 -5.958,-22.509 -8.604,-26.479c-1.988,-2.65 -6.62,-5.961 -13.901,-8.604l6.619,-1.985c5.957,-3.31 11.914,-14.563 18.533,-33.099l0.664,-1.326l-0.664,-1.325l-1.991,-1.986Zm-27.805,3.31l22.511,1.985c-5.298,15.89 -10.593,24.494 -13.901,25.819l-13.902,5.295c-1.983,0 -2.646,1.325 -2.646,2.644c0,1.991 0.663,2.65 2.646,3.309c3.31,0.667 6.619,2.651 10.593,4.642c4.631,1.978 6.619,3.969 7.94,5.289l6.62,20.525l-25.153,0l-9.269,-6.62l-1.987,-1.985l0,-1.325c-1.321,-1.325 -1.983,-1.984 -4.631,-1.325c-1.326,1.325 -1.988,1.991 -1.988,3.31l0,0.66c0,2.651 -1.983,7.286 -5.295,14.571c-3.311,5.954 -9.268,11.908 -19.196,17.209c-5.298,-8.611 -7.944,-15.89 -7.944,-21.851l0,-0.659l1.324,-11.914l2.648,-5.295l-1.326,-2.65c-1.322,-0.659 -2.646,-0.659 -4.633,0c-5.297,4.635 -10.592,5.96 -14.563,3.969l-22.507,-13.239l15.224,-9.93c4.635,-2.644 11.256,-4.629 18.538,-5.288l2.646,-1.991l0.662,-1.318l-0.662,-1.992c-2.646,-5.294 -3.973,-11.915 -3.973,-19.2l0,-4.629l0.662,-19.859l0,-2.65c15.225,9.93 23.17,17.209 26.48,21.185c3.309,3.976 5.955,8.604 6.619,14.565c0,1.985 0.662,2.65 2.647,3.31l3.31,-1.325l7.281,-5.295c5.96,-4.637 10.594,-6.621 15.225,-7.947Z" style="fill-rule:nonzero;"/><path d="M237.666,146.511c0,-0.66 -0.663,-1.319 -2.646,-0.66l-0.662,1.985l15.886,34.424c-5.957,16.55 -8.604,29.789 -8.604,40.378c0,1.325 1.322,1.991 2.646,1.991l1.984,-1.991c0,-5.96 1.326,-14.558 3.973,-25.154l3.973,-15.224l0,-1.325l-16.55,-34.424Z" style="fill-rule:nonzero;"/><path d="M293.271,159.75c-0.662,-1.318 -1.984,-1.985 -2.646,-1.318c-13.902,3.969 -26.48,10.588 -39.719,21.178l-25.154,5.96l-12.581,1.985c-1.983,0 -1.983,0 -1.983,1.325l1.983,1.984l13.239,-1.984l26.479,-5.301l0.664,-0.659l10.592,-7.939c9.269,-5.961 17.875,-10.596 27.144,-12.581c1.982,0 1.982,-1.324 1.982,-2.65Z" style="fill-rule:nonzero;"/><path d="M284.666,204.104c1.322,-0.666 1.322,-1.985 0,-2.644l-18.537,-13.239l-12.576,-7.952l-2.646,0.666c-1.326,0.666 -0.664,1.325 0,2.644l12.575,7.285l19.195,13.24c0.665,1.326 1.327,1.326 1.989,0Z" style="fill-rule:nonzero;"/><path d="M113.214,360.336l-40.381,-17.216l16.549,76.128l0.663,83.413l-10.592,25.146l28.464,-3.31l2.647,-18.528l-1.322,-83.412l3.972,-62.221Z" style="fill:#fcce00;fill-rule:nonzero;"/><path d="M116.525,360.336l-1.988,-3.311l-40.381,-17.215l-3.31,0.664l-1.322,2.646l0,0.666l16.55,76.787l0.662,80.756l-10.593,25.161l0,3.308l3.31,1.319l29.789,-3.312c1.322,0 1.985,-1.317 1.985,-3.31l2.647,-18.528l-1.322,-83.412l3.973,-62.219Zm-39.06,-11.921l31.777,13.897l-3.31,60.245l1.322,83.412l-1.984,15.22l-20.522,3.31l7.945,-21.179l0.663,-0.659l0.66,-12.58c0,-39.718 -0.66,-63.547 -1.322,-70.833l-15.229,-70.833Z" style="fill-rule:nonzero;"/><path d="M252.23,342.454l-58.256,13.239l12.576,17.216c9.271,13.239 17.213,23.17 23.832,29.788l3.311,20.525l3.31,27.141c0,3.31 -3.974,12.58 -10.593,26.478l-13.239,24.488l-12.577,17.882l31.114,-2.65c25.817,-41.044 39.058,-66.856 39.719,-78.118c0,-7.939 -2.646,-25.813 -9.267,-54.938l-9.93,-41.051Z" style="fill:#fcce00;fill-rule:nonzero;"/><path d="M254.877,341.136c0,-1.991 -1.324,-2.651 -3.971,-1.991l-57.594,13.24c-1.322,0 -1.984,0.665 -2.648,1.991l0,1.317l0.664,1.332l12.576,17.869l23.17,29.129c3.971,25.153 6.619,41.036 6.619,46.34c0,3.31 -3.311,11.914 -9.93,25.152l-13.24,23.834l-12.578,17.869c-0.661,0.66 -0.661,1.991 0,3.311c0,1.325 1.326,1.99 2.648,1.99l31.776,-2.648l1.985,-1.991c26.479,-41.039 39.719,-67.517 40.381,-79.438c0,-7.939 -2.647,-25.813 -8.608,-54.276l-11.25,-43.03Zm-21.184,60.896l-1.322,-1.979c-8.607,-9.27 -19.857,-23.168 -33.1,-42.367l50.309,-11.256c11.918,47.663 18.537,78.112 18.537,90.032l0,1.318c-0.662,10.59 -13.24,35.75 -37.733,75.469l-23.17,1.985l7.944,-11.915l13.24,-24.494c7.94,-14.564 11.914,-23.835 11.914,-28.463l-3.311,-27.141l-3.308,-21.189Z" style="fill-rule:nonzero;"/><path d="M303.201,290.827l-15.225,-7.285c-29.789,-11.915 -54.947,-18.535 -76.127,-17.875c-11.92,0.659 -28.468,4.635 -50.313,11.255c-13.902,5.294 -23.832,4.635 -29.127,0c-6.62,-6.62 -11.917,-11.915 -15.227,-17.875c-5.957,-9.93 -4.632,-21.844 1.988,-34.418c7.942,-5.301 14.562,-10.595 19.859,-17.215l26.479,-26.479l1.985,-8.604c1.988,-1.326 2.647,-3.311 2.647,-7.279l-2.647,-10.596l-4.632,-8.604c-1.325,0 -5.96,1.319 -14.564,4.629l-20.522,5.96c-15.225,2.65 -25.154,4.635 -29.789,7.945c-3.972,-5.294 -8.604,-13.24 -13.902,-24.495l1.988,-13.899l1.322,-15.89l-4.632,-1.985l-3.31,0l-5.298,13.24l-9.93,-23.169l-4.631,0l-4.635,1.985c-0.663,0.659 0,8.61 3.31,24.494l3.31,24.495l27.805,26.479c-14.564,17.209 -23.832,31.108 -27.805,41.704c-1.984,5.954 -2.647,16.549 -1.984,32.433l1.322,35.749l-1.322,31.78c0,12.573 3.31,22.504 9.267,29.789c7.283,9.93 20.522,17.209 38.394,23.17c18.537,5.955 34.424,7.278 49.648,5.955c19.2,-2.646 47.665,-10.597 84.073,-24.496l56.27,-31.773c10.593,-10.596 16.549,-17.215 16.549,-19.859c-0.002,-2.646 -3.974,-5.296 -10.594,-9.266Z" style="fill:#fcce00;fill-rule:nonzero;"/><path d="M289.299,280.232l-0.66,0c-29.129,-11.914 -54.281,-18.534 -76.789,-17.875c-13.24,0.659 -28.467,3.969 -47.001,9.93l-19.196,5.96c-3.973,0 -7.945,-1.325 -9.93,-3.31l-4.635,-3.97l-9.93,-10.595c-3.31,-5.294 -4.631,-9.929 -4.631,-15.225c0,-5.301 1.322,-11.254 5.294,-17.875l19.859,-17.215l26.479,-27.138l2.647,-9.271c1.326,-1.319 2.647,-4.629 2.647,-7.938l0,-1.326l-2.647,-11.255c-2.647,-5.294 -3.972,-8.604 -5.957,-9.929c-0.663,-0.659 -2.646,-0.659 -4.635,0l-13.24,4.635l-19.859,5.294c-12.577,1.992 -21.182,3.97 -28.464,6.62l-10.594,-20.519l2.647,-27.804l0,-1.985c-1.322,-2.65 -4.631,-4.635 -10.589,-4.635l-3.972,1.325l-1.988,6.62l-6.62,-16.549c-2.647,-3.31 -5.958,-3.31 -12.577,0l-0.663,0.66c-1.985,1.325 -2.647,2.65 -2.647,5.301c0,5.954 2.647,21.837 6.62,46.999l1.325,1.984l25.154,24.495c-13.902,17.209 -21.844,30.449 -25.816,40.378c-1.326,5.301 -2.647,12.58 -2.647,22.51l0.663,58.918l-0.663,17.209c0,14.56 3.31,25.82 9.93,35.084c7.942,9.931 21.182,17.216 39.719,23.17c18.535,6.619 35.747,8.604 50.971,6.619c19.86,-2.644 47.665,-10.596 84.737,-25.152l57.59,-31.114l0.662,-0.666c11.256,-11.907 17.213,-19.194 17.213,-22.505c-0.002,-5.295 -9.932,-11.915 -27.807,-19.86Zm11.917,13.241l9.269,6.618l-15.225,17.216l-55.609,31.768c-37.067,13.24 -64.873,21.191 -83.406,23.836c-14.564,1.324 -30.452,0 -48.326,-5.954c-17.212,-5.3 -29.789,-12.579 -36.409,-21.19c-6.62,-8.599 -9.268,-18.527 -9.268,-31.107l1.326,-16.551l0.659,-12.58l-1.322,-47.657c0,-9.271 0.663,-15.89 1.985,-19.2c3.31,-9.93 12.577,-23.829 26.479,-41.044l1.325,-1.985l-1.325,-2.65l-26.48,-25.822c-3.972,-24.488 -6.62,-39.054 -6.62,-44.348l3.31,-1.991l9.267,21.851l3.31,1.984l3.31,-1.984l3.973,-11.255l2.647,0.666l-2.647,27.139l-0.663,0.659l0.663,1.325c5.297,13.24 9.93,21.185 13.239,24.495c1.326,1.985 2.647,1.985 4.635,1.319c3.973,-2.645 13.902,-4.629 28.464,-7.28l20.522,-6.62c6.62,-1.984 11.255,-3.309 13.24,-3.968l3.31,7.279l1.985,9.271l-1.322,3.969c-0.663,0.659 -1.325,1.325 -1.325,2.651l0,1.319l-1.984,5.96l-2.647,2.65l-22.51,23.169l-19.197,16.549l-1.985,0.659c-3.972,7.945 -5.957,15.89 -5.957,22.51c0,6.62 1.984,12.581 5.957,18.535l11.252,11.914l3.31,3.311c3.973,4.635 9.271,5.96 15.228,5.96l21.181,-5.96c18.538,-6.62 34.424,-9.271 45.018,-9.93c21.181,-0.659 45.676,5.301 74.139,17.209l0.664,0.666l14.56,6.619Z" style="fill-rule:nonzero;"/><path d="M223.102,323.927l-1.983,6.619c-1.326,5.954 -1.326,12.574 0,19.194c0.661,6.619 5.293,13.238 12.575,21.843c7.283,8.612 11.256,14.565 12.578,17.876l12.578,45.673c1.324,3.311 -3.309,13.905 -11.916,33.1l-17.871,33.765l-4.637,5.954l-6.619,10.596l26.479,0l3.973,-20.525l17.871,-28.458c10.595,-17.88 16.55,-29.788 17.875,-33.765c0,-3.31 -0.662,-10.595 -3.972,-21.185c-3.311,-10.59 -5.295,-17.868 -3.973,-21.844c1.324,-4.636 3.973,-11.256 9.929,-19.859l10.594,-19.193c1.324,-4.643 3.31,-13.24 3.972,-24.501l0,-16.55l-77.453,11.26Z" style="fill:#fcce00;fill-rule:nonzero;"/><path d="M303.864,312.665c0,-2.644 -0.663,-3.31 -3.312,-3.31c-1.983,0 -3.31,0.666 -3.31,3.31l0,16.55c-0.662,11.262 -1.984,18.54 -3.312,23.17l-9.268,15.23c-6.618,11.248 -10.591,19.199 -11.916,24.488l0,3.976c0,3.976 1.325,10.595 4.635,19.858l3.311,16.55l0,2.645c-1.325,5.301 -9.93,21.19 -26.479,47.004l-9.267,14.565l-3.973,18.534l-17.213,0l7.944,-11.256c19.86,-37.067 30.452,-59.577 30.452,-68.184l-0.662,-1.984l-11.918,-45.02c-1.322,-3.97 -5.295,-9.265 -11.252,-16.55l-8.607,-11.248c-2.646,-3.971 -5.295,-7.945 -5.295,-11.922l-1.324,-9.264c0,-3.976 0.662,-7.287 1.324,-9.931l1.984,-3.976l0,-1.979l-1.984,-2.65c-1.324,-1.325 -3.309,-0.658 -3.973,1.32l-2.646,7.283c-1.326,6.62 -1.326,13.24 0,20.525c1.324,5.955 6.619,15.219 15.887,25.813c5.957,7.285 9.269,11.914 9.931,13.905l11.918,45.672c0.66,2.646 -2.651,13.24 -11.256,29.789l-17.875,34.425l-4.632,5.96l-6.62,11.249c-0.662,0.66 -0.662,1.991 0,2.651l2.647,1.983l26.479,0l3.312,-2.645l3.973,-20.526l7.94,-13.238c17.875,-27.804 26.479,-44.354 27.806,-48.982c0.662,-3.976 -0.662,-11.92 -3.974,-22.51c-3.31,-9.93 -4.631,-16.551 -3.973,-20.518c1.325,-3.978 4.635,-11.923 11.256,-22.512l9.267,-15.891c1.324,-5.295 3.311,-13.239 3.974,-25.154l0,-17.205l0.001,0Z" style="fill-rule:nonzero;"/><path d="M137.043,425.202l15.228,-64.866l-56.269,-13.24c5.294,6.62 9.268,19.193 13.24,38.389l5.294,31.779l2.647,43.028c0.663,25.153 0.663,39.719 0,43.028l-7.942,19.859l11.251,0l17.212,-1.991l-1.984,-18.527c-0.661,-43.694 -0.661,-70.174 1.323,-77.459Z" style="fill:#fcce00;fill-rule:nonzero;"/><path d="M148.961,359.67l-9.267,39.719l-5.96,25.154c-1.322,7.944 -1.985,34.424 -1.322,78.118l1.985,16.55l-20.522,0.66l6.62,-15.231l0.663,-15.883l-1.322,-43.029l-1.988,-29.124l-1.985,-6.619c-4.635,-33.764 -9.93,-54.949 -16.55,-64.221l-4.635,-1.318c-0.662,1.318 -1.984,1.984 -1.984,2.65l1.322,2.646c5.297,7.284 10.592,27.804 15.89,61.563l1.322,7.278l1.987,30.455l1.322,42.363l-0.663,11.261l-7.942,19.858l0,3.31c1.322,0.659 1.985,0.659 3.31,0.659l29.126,-1.991c1.984,0 2.647,-1.318 2.647,-3.311l-1.985,-18.527c-1.325,-42.369 -0.663,-67.529 1.322,-76.793l5.96,-25.154l9.268,-39.719c0,-1.991 -0.663,-3.31 -2.647,-3.97c-1.987,0.001 -3.972,0.662 -3.972,2.646Z" style="fill-rule:nonzero;"/><path d="M35.099,122.682c-1.985,0 -3.31,0 -3.973,1.984l-1.984,3.31c-0.663,1.325 1.984,5.294 6.62,13.239l7.945,11.255l-15.891,9.93c-2.647,0 -1.322,2.651 1.988,7.938l11.252,-1.319l13.24,-1.99l30.452,19.199l6.62,-8.604l-26.479,-26.479l-3.31,-25.154c-0.662,-1.325 -1.984,-2.65 -2.647,-3.31l-3.973,0.659c-1.984,0.659 -2.647,2.65 -3.31,7.945l0,6.62c-8.605,-9.928 -14.562,-15.223 -16.55,-15.223Z" style="fill:#fcce00;fill-rule:nonzero;"/><path d="M32.452,129.302l1.985,-3.31c1.988,0.66 6.62,5.295 15.227,14.559l3.311,0.666c1.322,0 1.984,-1.325 1.984,-3.31l0,-1.326c0,-4.628 0,-8.604 1.325,-9.929l1.985,-0.66l3.31,25.154l1.325,1.325l26.479,27.139c1.985,1.325 3.31,1.325 5.294,0l0,-1.985l-0.662,-2.644l-25.817,-25.819l-3.31,-24.495c-1.322,-3.31 -3.972,-5.295 -9.267,-4.635l-1.325,0c-2.647,1.325 -4.632,4.635 -5.294,9.93c-6.62,-6.62 -11.255,-9.93 -13.902,-10.59c-3.31,0 -5.957,1.319 -7.942,5.295l-0.663,1.325l-0.662,2.65c0,2.645 4.635,10.589 13.24,23.169l-11.915,7.279c-1.988,0 -2.65,0.659 -3.31,1.985l0,1.985c0,2.65 1.322,5.959 3.31,9.27c1.322,1.319 2.647,1.984 5.294,1.984l12.577,-1.984l7.946,-1.992l29.789,18.541c1.985,1.319 3.311,0.66 4.632,-0.659c0.662,-1.992 0.662,-3.311 -1.322,-4.642l-29.79,-19.194l-1.988,-0.666l-9.93,1.991l-12.577,1.985l-1.322,-3.311l15.225,-8.604l1.325,-2.651l0,-0.659l-0.663,-1.325c-7.945,-11.913 -13.24,-19.191 -13.902,-21.842Z" style="fill-rule:nonzero;"/><path d="M88.057,196.16l-3.31,-10.59l-13.24,-2.65l-23.169,1.99l3.972,7.939c3.973,5.961 8.605,9.27 13.902,11.255c6.62,1.326 11.915,0 16.549,-2.644l5.296,-5.3Z" style="fill:#fcce00;fill-rule:nonzero;"/><path d="M88.057,186.229c0.663,-1.984 0,-3.969 -1.984,-3.969c-17.875,-3.31 -30.452,-3.97 -38.397,0c-1.984,0.66 -2.647,1.985 -2.647,3.31l4.635,9.93c3.973,5.96 9.268,9.93 16.55,11.915c6.62,1.325 12.577,0.666 18.534,-3.31l6.62,-5.294c1.325,-1.991 0.663,-3.311 -0.663,-4.635l-4.631,0l-5.298,4.635c-3.969,2.65 -8.604,3.309 -13.239,1.985c-6.62,-1.985 -11.252,-6.62 -14.562,-13.24l31.773,1.325l2.647,-0.659l0.662,-1.993Z" style="fill-rule:nonzero;"/><path d="M139.031,166.37l-18.538,0.66c-5.957,1.99 -9.929,7.285 -12.577,15.23c0,1.985 0,3.31 1.325,3.31c1.985,0.659 3.31,0 3.972,-1.325c1.985,-6.62 4.632,-9.93 9.268,-12.574l15.224,-0.667c1.325,1.326 2.647,0 3.31,-1.325l-1.984,-3.309Z" style="fill-rule:nonzero;"/><path d="M134.396,178.95l-1.985,-4.635c-1.325,-1.325 -1.988,-1.984 -3.973,-1.984c-1.325,0 -3.309,0.659 -4.635,1.984c-1.322,1.325 -1.322,3.31 -1.322,4.635l1.322,3.97l4.635,2.65l3.973,-2.65l1.985,-3.97Z" style="fill-rule:nonzero;"/><path d="M80.115,214.7c-0.662,-1.332 -1.325,-1.991 -2.65,-1.332l-17.208,5.301c-1.326,0.659 -1.988,1.984 -1.326,3.31c0.663,0.659 1.326,0.659 2.647,0.659l17.212,-5.294c1.325,0 1.985,-1.325 1.325,-2.644Z" style="fill-rule:nonzero;"/><path d="M60.916,233.894l13.239,-4.635c1.325,-0.66 1.988,-1.319 1.325,-1.985c-0.662,-1.984 -1.325,-1.984 -2.647,-1.984l-13.24,5.294c0.663,-0.666 1.984,0 1.984,1.326l-0.661,1.984Z" style="fill-rule:nonzero;"/><path d="M70.186,238.528c-0.663,-1.325 -1.326,-1.325 -1.988,-1.325l-8.604,4.635c1.322,0 1.322,0 1.984,0.659l0,2.65l7.945,-3.31l0.663,-3.309Z" style="fill-rule:nonzero;"/><path d="M158.228,292.147c0,-1.985 -0.662,-1.985 -2.647,-1.985l-17.212,3.311c-0.663,0 -1.325,0.666 -1.325,1.984c0.663,1.324 1.325,1.99 1.988,1.324l17.872,-2.645l1.324,-1.989Z" style="fill-rule:nonzero;"/><path d="M154.918,304.066c0,-0.666 -1.326,-1.332 -2.647,-0.666l-10.592,0.666c-1.326,0 -2.647,0.66 -2.647,1.979c0,1.332 1.322,1.991 2.647,1.991l11.914,-1.325c1.325,0 1.325,-0.666 1.325,-2.645Z" style="fill-rule:nonzero;"/><path d="M153.593,316.641l-2.647,-1.983l-5.294,0.659l-1.988,-0.659l-1.985,1.983c-0.663,0.666 0,1.326 0.663,1.985l3.31,0.659l5.957,-0.659l1.984,-1.985Z" style="fill-rule:nonzero;"/><path d="M148.298,325.904l-4.635,0c-1.985,0 -1.985,0.666 -1.985,1.992c0,1.317 0,1.982 1.985,1.982l4.635,0l1.985,-1.982l-1.985,-1.992Z" style="fill-rule:nonzero;"/><path d="M197.945,278.907l-1.982,-1.985l-16.55,4.635c-1.326,0 -1.326,0.659 -1.326,1.985c0,1.325 1.326,1.984 2.647,1.325l15.886,-3.31c1.325,0.001 1.325,-1.325 1.325,-2.65Z" style="fill-rule:nonzero;"/><path d="M198.609,290.162l-1.988,-2.645l-7.279,1.979l-4.635,0.667c-1.325,0.665 -1.985,1.325 -1.985,3.311c0.66,0.665 1.322,1.324 2.648,0.665l11.251,-2.649l1.988,-1.328Z" style="fill-rule:nonzero;"/><path d="M195.301,301.417l-1.988,-1.326l-9.268,1.326c-1.985,0 -2.647,1.317 -1.985,1.983c0,1.326 0.663,1.984 2.647,1.984l9.268,-1.984l1.326,-1.983Z" style="fill-rule:nonzero;"/><path d="M196.621,310.688c0,-1.332 -0.658,-1.99 -1.984,-1.332l-6.619,0.666l-1.326,2.645l1.988,1.332l5.957,-0.666l1.984,-2.645Z" style="fill-rule:nonzero;"/><path d="M224.426,275.597c-1.324,0 -1.984,0.659 -1.984,1.991c-0.662,1.319 0,1.979 1.984,1.979l6.619,0.666l11.916,1.326c1.324,0.659 1.987,0 2.65,-1.326c0.658,-0.666 0,-1.985 -1.326,-1.985l-12.577,-2.65l-7.282,-0.001Z" style="fill-rule:nonzero;"/><path d="M226.41,287.517c-1.984,0 -1.984,0.66 -1.984,1.979c0,1.332 0,1.992 1.326,1.992l13.898,1.318l1.988,-2.644l-1.988,-1.985l-13.24,-0.66Z" style="fill-rule:nonzero;"/><path d="M227.736,296.115c-1.326,0 -2.646,0.666 -2.646,1.99c0,1.319 0,1.984 1.984,1.984l10.592,1.326c0.662,0 1.984,0 2.646,-1.326c0,-1.324 -0.662,-2.645 -2.646,-2.645l-9.93,-1.329Z" style="fill-rule:nonzero;"/><path d="M234.355,306.711l-5.957,0c-0.662,0 -1.324,0 -1.324,1.325c0,1.985 0.662,1.985 1.324,1.985l5.957,0l1.983,-1.985l-1.983,-1.325Z" style="fill-rule:nonzero;"/><path d="M280.693,292.806c0,-1.318 0,-1.979 -1.324,-2.644l-11.914,-3.976c-0.663,-1.319 -1.984,-0.66 -2.646,0.666c0,1.326 0,2.644 1.983,3.311l11.256,3.976l2.645,-1.333Z" style="fill-rule:nonzero;"/><path d="M276.723,302.734c0.662,-1.979 0,-2.645 -0.662,-2.645l-7.942,-3.311c-1.325,-0.665 -1.988,-0.665 -2.646,0.666c-0.664,1.318 0,2.645 1.32,2.645l7.283,3.311l2.647,-0.666Z" style="fill-rule:nonzero;"/><path d="M275.398,310.021c0.66,-0.666 0,-1.985 -1.323,-2.646l-7.946,-3.312c-1.32,0 -1.984,0 -2.646,1.979c0,0.666 0,1.332 1.326,1.991l7.941,3.311c1.325,0.004 1.986,0.004 2.648,-1.323Z" style="fill-rule:nonzero;"/><path d="M272.75,319.95c0.662,-0.665 0,-1.983 -1.323,-2.644l-3.972,-1.332c-1.326,0 -2.646,0 -2.646,1.332c-0.664,1.318 0,2.644 1.32,2.644l3.973,1.325c1.325,0 2.648,0 2.648,-1.325Z" style="fill-rule:nonzero;"/><path d="M235.02,498.685l-6.621,1.326c-1.323,0 -1.323,1.318 -1.323,2.65c0.661,1.317 1.323,1.979 2.646,1.317l5.961,-1.317l11.914,-1.332c1.984,0 2.646,0 2.646,-1.979l-1.984,-1.988l-13.239,1.323Z" style="fill-rule:nonzero;"/><path d="M218.469,497.361l-5.298,0.657c-1.321,0 -1.983,0.665 -1.321,1.991l2.646,1.318l3.973,0l10.594,1.332c1.321,0.659 1.982,0 1.982,-1.332c1.326,-1.318 0.663,-1.979 -0.661,-1.979l-11.915,-1.987Z" style="fill-rule:nonzero;"/><path d="M122.482,501.329l-6.62,1.332c-1.325,0 -1.325,0.659 -1.325,1.979c0.663,1.331 1.325,1.991 2.647,1.331l5.96,-1.331l12.577,0l1.984,-1.979l-1.984,-2.65l-13.239,1.318Z" style="fill-rule:nonzero;"/><path d="M97.987,500.011l-7.942,0c-1.325,0 -1.988,1.318 -1.988,2.65c0,0.659 0.663,1.979 1.988,1.979l7.942,0l11.918,0.666l2.646,-1.984c0,-1.325 0,-1.991 -1.987,-1.991l-12.577,-1.32Z" style="fill-rule:nonzero;"/><path d="M5.31,539.069l1.988,50.31l367.398,0l0,-56.929c-68.849,-14.57 -150.933,-17.882 -246.92,-9.93c-47.661,3.97 -88.704,9.265 -122.466,16.549Z" style="fill:#858585;fill-rule:nonzero;"/><path d="M129.102,519.211c-47.664,3.97 -89.367,9.265 -124.454,16.549c-1.985,0 -2.647,1.318 -2.647,3.311l1.988,50.31c0,2.65 0.66,3.311 3.31,3.311l367.398,0c1.984,0 3.312,-0.659 3.312,-3.311l0,-56.93c0,-1.331 -1.326,-2.65 -2.65,-2.65c-68.185,-15.233 -150.269,-18.542 -246.257,-10.59Zm-120.482,21.837c42.366,-7.279 86.719,-13.239 133.059,-16.549c89.366,-5.954 165.495,-1.979 229.708,11.261l0,50.31l-361.442,0l-1.325,-45.022Z" style="fill-rule:nonzero;"/><path d="M332.99,505.971c13.24,-23.169 27.143,-56.934 43.028,-100.628l-7.282,-137.025c-25.815,60.239 -43.027,104.591 -51.634,133.714c-5.956,20.525 -11.255,37.74 -16.55,50.313c-6.619,13.239 -13.9,26.479 -24.494,40.387c-13.898,18.525 -29.125,49.647 -45.676,91.345l66.198,-1.318c11.257,-27.805 23.834,-53.617 36.41,-76.788Z" style="fill:#fcce00;fill-rule:nonzero;"/><path d="M370.063,265.008c-1.984,0 -3.311,0 -3.974,1.985c-27.141,62.887 -45.013,107.241 -52.296,133.721c-5.956,21.845 -11.255,38.395 -17.211,50.968c-5.957,13.239 -13.24,25.819 -23.17,39.061c-13.902,18.54 -29.127,48.987 -46.338,92.018l0.662,3.311l2.646,1.318l66.198,-1.318l3.31,-1.991c11.256,-28.457 23.169,-53.617 36.408,-76.128c12.577,-23.169 27.143,-57.586 42.366,-101.94l0.663,-1.325l-7.282,-136.366c0.002,-1.329 -0.658,-3.314 -1.982,-3.314Zm-67.525,189.983c5.299,-13.24 11.255,-31.107 17.876,-52.294c8.604,-29.123 23.169,-68.842 46.338,-120.48l5.957,121.807l-14.563,39.061c-11.255,26.479 -20.521,46.998 -27.804,61.557c-12.578,21.191 -24.495,46.339 -36.409,74.81l-58.916,1.317c16.551,-40.377 31.11,-69.508 43.692,-86.057c9.93,-13.242 17.873,-26.482 23.829,-39.721Z" style="fill-rule:nonzero;"/><path d="M322.398,384.165c-1.984,0 -1.984,1.317 -1.984,1.983l-1.986,36.409c-1.324,24.493 -3.309,41.703 -5.296,50.313l-5.958,26.479c-11.256,50.311 -19.197,84.067 -21.186,100.616l1.326,1.991c1.983,0 2.646,0 2.646,-1.331c1.326,-10.59 8.608,-44.348 21.187,-101.276l5.956,-25.818c1.984,-8.61 3.312,-25.16 5.296,-50.309l1.323,-37.074l-1.324,-1.983Z" style="fill-rule:nonzero;"/><path d="M295.918,458.967c-1.32,0 -1.984,0.667 -1.984,1.985l-1.983,23.169l-4.636,40.378l-7.944,37.741c-5.294,19.191 -7.942,31.107 -7.942,35.743c0,1.324 1.323,1.982 2.648,1.982l1.984,-1.982c0,-2.646 1.987,-15.226 7.281,-35.084l7.945,-38.4l4.631,-39.719l1.326,-23.828c0.662,-1.318 0,-1.985 -1.326,-1.985Z" style="fill-rule:nonzero;"/><path d="M266.129,559.589c3.311,-8.609 4.637,-15.89 3.311,-21.185c-0.658,-5.294 1.987,-20.524 7.945,-45.672c0.663,-0.666 0,-1.332 -0.662,-1.991c-1.322,-0.66 -2.646,0 -2.646,1.325c-6.62,25.813 -9.932,42.361 -8.604,47.003c0.657,3.97 -0.664,10.591 -3.312,19.194c-4.636,11.255 -7.283,22.502 -9.271,33.766c0,1.978 0.664,1.978 1.325,1.978l2.646,-1.317c2.649,-11.923 5.299,-22.512 9.268,-33.101Z" style="fill-rule:nonzero;"/><path d="M339.609,337.166c-1.984,0 -2.646,0.659 -2.646,1.979l-1.326,69.508c-1.982,48.331 -3.31,80.771 -5.293,95.987l1.324,1.991l1.985,-1.991c2.646,-15.218 3.972,-46.997 5.956,-95.321l1.325,-69.508l-1.325,-2.645Z" style="fill-rule:nonzero;"/><path d="M261.498,524.499l-17.213,11.261l9.268,3.311c7.945,3.312 15.887,6.621 23.17,10.591c11.254,5.96 21.848,8.604 31.776,6.619l-1.988,9.27c-1.321,6.62 -1.983,12.574 -0.662,17.21l5.299,29.13l31.11,-23.835c3.974,-2.645 5.961,-7.944 5.298,-15.226l-1.324,-8.61l3.973,4.643c3.971,3.31 8.604,5.954 14.563,8.598c8.604,3.311 20.519,3.311 35.084,0l-1.325,-12.573c-2.646,-9.264 -5.957,-17.216 -10.591,-23.17l-12.578,-12.571l-3.971,-1.333c5.295,-0.658 11.914,-3.969 18.535,-9.93c6.619,-6.621 11.254,-18.528 13.901,-35.744l-32.438,-2.644c-3.31,0.659 -7.944,3.97 -14.563,9.93l-7.945,8.599l1.326,-19.193c-0.664,-3.976 -5.958,-10.596 -14.566,-20.525l-13.237,-12.572l-7.942,9.93c-4.635,7.286 -7.945,13.904 -8.607,19.859c-1.983,8.604 0,19.858 4.636,33.765l-23.169,0.659c-3.976,1.977 -13.243,6.613 -25.82,14.551Z" style="fill:#d96038;fill-rule:nonzero;"/><path d="M242.961,539.069l9.928,3.312l21.85,9.929c9.267,5.289 19.195,7.939 29.127,7.939c-1.326,5.96 -1.985,11.255 -1.985,15.23l1.322,8.598l4.636,27.812c0,1.318 0.662,2.645 1.984,3.311l3.311,-0.666l31.113,-23.835c4.632,-3.971 6.62,-9.266 6.62,-16.55l0,-1.319l12.576,7.28c8.604,3.969 21.844,3.969 37.733,0.657l1.985,-3.31c-0.663,-15.217 -4.636,-28.457 -13.239,-37.728l-11.256,-11.255l13.24,-8.604c6.619,-7.28 11.917,-19.201 15.228,-37.069l0,-0.666l-0.663,-1.983c0,-0.659 -1.325,-1.325 -1.983,-1.325l-34.426,-2.645c-3.973,1.318 -9.929,5.287 -17.874,12.574l1.324,-9.931c-0.662,-4.635 -4.635,-11.914 -13.238,-20.525l-15.887,-15.884l-1.987,0c-1.322,0 -1.984,0 -2.648,0.666l-7.94,10.59c-5.299,8.604 -8.607,15.223 -9.271,21.178l-1.322,6.619c0,6.621 1.985,14.572 5.295,24.501l-19.858,1.318c-5.295,1.992 -13.239,5.961 -25.815,13.9c-10.594,6.618 -16.551,9.93 -19.196,11.261c-0.664,1.317 -1.326,1.979 -0.664,3.31c-0.004,1.979 -0.004,2.645 1.98,3.31Zm66.197,-63.552c0.663,-5.955 5.298,-14.563 13.901,-25.813c14.564,14.559 23.171,24.488 23.832,29.123l-1.324,19.192l1.324,3.311l4.636,-1.318c8.604,-10.589 15.887,-15.89 20.52,-17.209l27.805,2.645c-2.647,13.904 -6.62,23.836 -12.577,29.79c-5.298,5.954 -11.255,8.604 -16.551,9.264c-1.986,0 -2.646,0.666 -2.646,2.651l0,0.657l1.984,2.651l3.974,1.99l11.25,11.908c5.961,7.284 9.932,17.882 11.256,31.12l-31.115,-1.331c-4.631,-1.979 -8.604,-4.63 -12.576,-7.938l-3.973,-3.969c-1.321,-1.332 -2.646,-1.991 -4.632,-1.332c-0.662,1.332 -1.324,1.991 -1.324,3.31l0,1.331l1.324,8.6c0,5.301 -1.324,8.61 -3.973,11.262l-26.479,20.519l-5.294,-30.447l1.984,-11.921l1.326,-5.961l0,-1.318l-0.663,-1.991l-3.311,-1.318c-9.268,1.984 -19.198,-0.659 -30.452,-5.961c-7.945,-4.628 -16.549,-8.604 -26.479,-12.58c19.857,-11.907 32.436,-18.526 38.393,-21.179l21.186,-0.659l2.647,-0.666l0.661,-2.644l0,-0.666c-3.31,-9.932 -5.956,-19.858 -5.956,-27.146l1.322,-5.957Z" style="fill-rule:nonzero;"/><path d="M378.008,557.599c-6.621,-2.645 -16.549,-8.599 -27.805,-16.551l-16.55,-11.906l-0.663,-1.333l-48.986,3.312c-0.662,0 -1.326,0 -1.326,1.331c0,1.979 0.664,1.979 1.326,1.979l48.323,-1.979l17.212,13.239c10.594,7.279 19.86,13.24 27.143,15.885c1.326,0.666 1.984,0.666 1.984,-0.666l-0.658,-3.311Z" style="fill-rule:nonzero;"/><path d="M326.371,472.206c-1.984,0 -2.648,0.666 -2.648,1.325l-0.662,14.56c0,14.57 2.648,28.47 7.283,42.369c-1.326,15.23 -4.635,31.78 -9.93,48.988l0,0.66l1.984,1.989c0.661,0 1.323,0 1.987,-1.332c5.295,-18.525 8.604,-35.075 9.93,-50.307l0,-1.318c-1.325,-3.977 -3.311,-9.271 -3.973,-15.892c-3.311,-13.239 -3.973,-26.479 -2.647,-38.399c0,-1.318 -0.662,-2.643 -1.324,-2.643Z" style="fill-rule:nonzero;"/><path d="M374.696,502.661c-0.661,-1.332 -1.324,-1.332 -2.649,-1.332c-8.604,5.302 -21.844,14.572 -40.379,27.146c-1.324,0.666 -1.324,1.324 -0.662,2.645l2.647,0.666l15.886,-10.596c10.594,-7.939 19.197,-13.24 24.496,-15.885l0.661,-2.644Z" style="fill-rule:nonzero;"/><path d="M358.146,67.732c5.295,-6.62 9.268,-18.527 11.253,-35.743l-13.901,1.984l-18.535,0.659c-5.957,1.991 -10.592,5.302 -13.902,9.271l-4.633,6.62c0,-12.58 -1.985,-20.519 -5.959,-26.479c-1.984,-3.97 -8.604,-9.27 -17.209,-16.55l-13.24,-9.929c0.658,6.619 -1.324,19.199 -4.635,37.067c-1.324,7.952 0,15.891 3.973,23.835c-2.646,-3.31 -7.944,-5.294 -14.564,-5.294c-7.282,-1.325 -15.225,0.659 -22.507,4.629l-9.929,5.96l3.31,9.93c3.974,7.279 9.269,12.58 14.563,14.564c9.269,4.635 19.859,5.954 31.773,3.31l-13.238,11.255c-2.647,2.651 -3.311,6.62 -3.311,11.915c0,1.985 0,4.635 0.662,6.62l11.252,-1.325l11.256,-1.984c3.973,-1.984 7.281,-6.62 9.267,-11.915l-1.321,3.969c-0.663,3.311 -0.663,6.62 0.658,10.589c1.325,5.301 7.282,10.596 17.875,14.571c7.945,-7.951 11.914,-15.229 11.914,-20.525c0,-3.31 -1.321,-7.945 -2.646,-11.915l-1.984,-4.635c2.646,5.294 9.93,7.945 21.845,8.604l18.536,0c0.658,-6.62 -2.649,-13.899 -7.944,-20.52c-3.974,-4.635 -7.945,-7.944 -11.255,-9.27l-5.296,-0.659l5.958,-0.659c3.971,-0.664 8.606,-3.974 11.914,-7.95Z" style="fill:#d96038;fill-rule:nonzero;"/><path d="M284.004,-5.085l-3.311,-0.66c-1.324,0.66 -1.982,1.991 -1.982,3.311l0,2.65l-1.988,18.534l-2.646,15.224l-0.663,3.97c0,2.65 0.663,6.62 2.647,13.239l-9.269,-1.318c-7.282,-1.325 -15.886,0 -23.831,4.628l-11.253,6.62l-0.663,2.651l0,0.66l3.975,11.261c4.631,7.279 9.267,12.573 15.888,15.883l22.506,4.635l-4.632,3.97c-2.651,2.65 -4.637,7.944 -4.637,13.24c0,3.31 0,5.959 0.664,9.27l2.646,1.984l2.646,0l7.945,-1.325l13.901,-1.985l3.969,-3.31l0,3.31c1.326,6.62 7.946,12.574 19.859,17.216c1.325,0.659 2.649,0 3.311,-0.666l7.283,-8.604c3.973,-5.96 5.956,-9.93 5.956,-14.565l-1.321,-7.945c9.268,3.969 21.183,4.635 34.42,3.31l2.651,-3.31l0,-0.66c0,-7.945 -2.651,-15.23 -9.271,-22.51l-7.278,-6.62l9.268,-7.279c5.957,-6.619 9.267,-19.2 11.914,-37.068l0,-0.666l-1.322,-2.644c-1.325,-0.666 -2.649,-0.666 -3.31,0l-12.579,1.319l-19.861,0.659c-5.293,1.991 -9.928,5.3 -14.561,9.27c-0.662,-7.939 -2.648,-13.899 -5.299,-18.534l-17.87,-16.55l-13.902,-10.595Zm81.422,42.369c-3.309,14.565 -6.619,23.829 -9.928,28.47c-3.971,4.628 -8.605,7.279 -13.24,7.279l-1.984,0c-1.324,0 -2.647,0.66 -3.311,3.31c0,1.319 1.325,2.65 3.311,3.31l1.324,0c3.312,0 7.279,3.31 11.914,8.604c4.636,4.635 6.621,9.93 7.947,15.224c-20.523,1.326 -31.777,-1.318 -34.426,-8.604l-0.662,0c-0.662,-1.985 -2.648,-1.985 -3.973,-1.325c-1.984,0.659 -1.984,1.325 -1.984,2.65l0,1.985l3.309,5.294l1.986,11.255c0,4.635 -3.311,9.93 -9.268,16.55c-8.604,-3.31 -12.577,-7.286 -13.903,-11.255l-1.322,-5.294l1.985,-7.945l0,-0.66c0,-1.325 -0.663,-2.651 -2.647,-3.31c-1.325,-1.325 -2.646,0 -3.31,1.985l-0.662,0c-1.984,4.635 -3.973,8.605 -7.943,10.596l-9.928,1.319l-7.945,0l0,-3.31c0,-3.97 0.661,-6.62 2.646,-8.605c7.281,-6.62 10.592,-9.93 12.576,-9.93l1.326,-3.31l-0.662,-1.325c-0.664,-1.318 -1.986,-1.985 -3.312,-1.985c-11.252,1.985 -21.182,1.326 -29.127,-2.644c-7.944,-3.976 -13.239,-10.596 -16.549,-20.525c9.931,-6.62 19.194,-9.93 28.463,-8.604c6.621,0 11.256,1.984 13.903,4.628l1.324,3.976c1.32,1.326 2.646,1.326 4.631,1.326c1.326,-0.66 1.326,-1.326 1.326,-3.31c0,-2.651 -0.662,-4.636 -2.647,-6.62c-3.31,-6.62 -4.634,-13.24 -4.634,-18.541l2.646,-17.869l1.988,-15.89c13.24,9.271 21.845,16.549 25.155,21.851c3.972,4.629 5.298,12.574 5.298,24.488c0,1.325 1.322,2.65 2.646,3.31c1.984,0 2.648,-0.659 3.312,-1.984l3.973,-5.294c3.969,-4.636 7.941,-6.62 12.576,-8.611l17.213,-1.319l10.589,0.659Z" style="fill-rule:nonzero;"/><path d="M293.934,24.044c0,-1.319 -0.662,-1.985 -2.646,-1.319c-0.662,0.659 -0.662,1.319 -0.662,2.644c7.281,17.875 12.576,36.41 15.224,54.284l1.988,9.93l2.646,21.844c0,1.325 0.663,1.325 2.647,1.325l1.324,-1.325l-1.987,-21.844l-2.646,-10.589c-3.311,-18.541 -8.606,-37.075 -15.888,-54.95Z" style="fill-rule:nonzero;"/><path d="M350.203,50.523c-0.664,-0.659 -1.326,-1.318 -3.312,-0.659c-9.93,3.31 -23.17,12.58 -39.719,27.138c-9.93,1.326 -19.858,-0.659 -31.114,-3.969l-15.224,-4.635c-0.662,-0.666 -1.326,0 -2.647,1.325c-0.662,0.659 0,1.985 1.321,1.985l15.228,5.294l33.101,4.635l1.321,-0.666l13.24,-11.249c10.592,-8.611 19.198,-13.898 26.479,-16.549c1.326,0.001 1.326,-1.324 1.326,-2.65Z" style="fill-rule:nonzero;"/><path d="M321.076,81.638c-7.283,-2.644 -11.255,-3.976 -13.239,-3.976c-0.663,-0.66 -1.326,-0.66 -1.326,0.666l-15.224,17.875l-6.621,6.62c-0.662,0.659 -0.662,1.985 0,1.985l2.648,0.666l6.619,-6.62l14.564,-17.216c15.224,4.635 25.816,8.604 33.759,13.906l1.987,-0.666l0,-2.644c-6.618,-3.977 -13.899,-7.286 -23.167,-10.596Z" style="fill-rule:nonzero;"/><path d="M313.132,150.48c-1.984,-2.644 -7.942,-7.279 -18.534,-15.218c-3.973,-2.65 -9.932,-3.975 -19.197,-3.309l-12.58,1.318l1.324,11.255c0,5.954 0,9.93 1.984,13.239c2.65,4.635 9.271,9.931 20.523,14.565l-21.846,-1.326c-3.972,0 -9.931,1.985 -15.888,5.295l-8.606,5.301l12.576,11.907c5.299,5.961 11.256,9.271 15.892,9.93c8.604,0.666 15.224,-2.643 21.845,-8.598l-3.311,3.97c-1.984,3.969 -3.312,8.604 -3.974,13.899c-1.983,9.27 0.662,20.519 7.283,35.75c1.983,-3.311 5.293,-6.62 10.591,-9.93l14.563,-11.921c6.621,-7.279 10.594,-14.558 11.256,-21.838l2.647,3.97l7.281,8.605c3.974,3.309 11.914,4.635 21.844,4.635c-1.983,-2.651 -1.983,-5.96 -1.983,-10.589c0,-5.96 0,-9.93 -1.324,-12.58l-6.621,-9.93l-4.632,-4.635l2.646,1.325l8.605,-1.325c4.635,-1.985 10.591,-7.945 19.198,-16.549l-11.255,-7.286c-5.957,-4.629 -10.593,-7.28 -13.238,-7.939l-10.594,1.985l-4.632,3.31c4.632,-3.31 7.279,-7.944 8.604,-13.239c0.662,-3.31 0.662,-7.945 0,-13.239l-0.662,-7.945c-6.621,0.659 -13.239,3.31 -19.86,7.945c-3.311,3.31 -6.618,7.945 -8.604,12.573l-1.321,6.619Z" style="fill:#d96038;fill-rule:nonzero;"/><path d="M296.582,132.612c-3.973,-3.31 -10.594,-4.635 -19.197,-3.97l-15.225,1.319l-1.986,2.65l0,3.309l0.662,6.62c0,8.604 0.662,13.899 2.646,16.549l7.943,8.605l-6.619,0c-4.634,0 -10.593,1.984 -17.211,5.294l-9.269,5.96c-0.662,0.66 -1.325,1.985 -1.325,3.31l1.988,1.985l8.604,7.945c7.945,9.929 15.225,13.899 20.521,14.558l13.902,-2.644l-1.987,7.945l-0.663,4.629c0,9.27 3.309,20.525 8.607,32.439l2.647,2.65l3.31,-2.65c0.664,-1.985 3.973,-4.629 9.931,-8.605l14.563,-11.914l9.933,-15.89l5.956,7.278c4.633,3.311 12.576,5.302 24.49,5.302c1.326,0 2.652,-1.326 3.312,-2.651l0,-0.659l-0.658,-2.651l-1.326,-4.628l0,-8.611l-1.326,-8.604l-6.618,-9.93l3.973,0c5.299,-1.985 11.917,-7.945 20.521,-17.875l1.326,-1.984l-0.663,-1.326c-0.663,-1.318 -1.325,-1.985 -2.647,-1.985l-7.944,-5.294c-7.281,-6.62 -12.578,-9.27 -16.549,-9.929l-5.295,0.659l1.983,-3.97l0.663,-8.611l-0.663,-9.263l-0.661,-5.294l-3.311,-2.651c-7.942,0.66 -15.226,3.31 -21.845,9.271c-4.635,3.31 -7.944,8.604 -9.93,15.224l-14.563,-11.912Zm-3.973,5.294l1.988,1.325c9.267,7.279 14.561,11.914 15.886,13.239l3.973,1.319l1.985,-2.644l1.323,-6.62c1.984,-3.976 3.974,-7.945 7.283,-9.929c4.633,-3.976 9.268,-6.62 15.224,-7.286l0.663,9.929l-0.663,5.961c-1.323,4.635 -3.973,9.27 -7.281,11.921l0,0.659l-1.322,1.984l0.659,1.985l4.636,0.66l3.973,-2.645c2.647,-1.325 5.957,-1.984 8.604,-1.984c2.647,0.66 7.283,3.31 12.578,7.939l6.619,5.3l-15.226,11.915l-5.293,1.325l-1.988,-0.659c-1.984,-0.666 -2.646,-0.666 -3.973,1.319l-0.66,1.99l1.323,2.645l3.972,3.31l5.957,9.931l0.662,5.294l0,12.58c-6.619,0 -11.254,-1.325 -14.563,-3.31c-1.985,-2.65 -4.633,-4.635 -5.958,-7.945l-2.646,-3.976c0,-1.319 -1.326,-2.643 -3.311,-1.978c-1.324,0 -2.646,0.659 -3.312,2.644c-0.662,7.286 -4.635,13.906 -9.93,19.859l-13.239,10.596l-8.604,7.279c-3.973,-10.589 -5.961,-18.541 -5.961,-24.494l0.664,-3.976c0.662,-4.629 1.324,-9.264 3.974,-12.573l2.646,-3.311l0.662,-2.644l0,-1.991c-1.324,-1.985 -3.309,-1.985 -4.635,-0.659c-6.621,5.294 -13.238,8.605 -20.52,7.938c-3.973,-0.659 -9.271,-4.629 -15.892,-11.908l-6.618,-5.96c7.944,-5.301 13.903,-7.945 18.537,-7.945l21.182,1.325c1.326,0.66 3.311,0 3.973,-1.991l0,-1.319l-2.646,-2.651c-9.93,-5.294 -16.55,-9.27 -17.875,-13.899c-1.322,-1.325 -1.983,-5.96 -1.983,-13.239l0,-6.62l25.153,1.985Z" style="fill-rule:nonzero;"/><path d="M353.512,169.68l-1.983,-1.984c-10.593,0 -19.2,1.984 -28.468,4.635l-10.592,5.294l-31.773,4.635l-13.239,0c-1.326,0 -1.983,0.66 -1.983,1.985c0,1.325 0.657,1.984 1.983,1.984l13.239,-0.659l33.099,-4.635l10.594,-4.635c8.604,-2.65 17.871,-3.969 27.142,-4.628l1.981,-1.992Z" style="fill-rule:nonzero;"/><path d="M331.668,141.882l-2.65,0.66l-7.278,13.239c-4.636,8.604 -7.945,16.55 -10.592,23.169c-1.325,15.225 -5.958,29.13 -13.902,41.037c-0.662,0.666 -0.662,1.992 0,2.651l3.31,-0.659c8.604,-12.581 13.239,-26.479 15.225,-42.369l9.932,-23.169l6.618,-11.915c1.322,-1.325 0.659,-1.984 -0.663,-2.644Z" style="fill-rule:nonzero;"/><path d="M284.004,147.836c-0.662,0 -1.326,0 -2.646,1.326c-0.662,0.659 0,1.984 1.32,2.65l11.92,7.938c8.604,6.62 13.901,13.24 16.55,20.519l1.984,0.666l8.606,4.635c5.957,4.629 11.915,10.59 16.55,18.534l2.646,1.326l1.322,-1.992l-0.66,-1.319c-7.281,-11.92 -15.889,-19.859 -27.142,-24.494c-3.311,-7.286 -8.607,-14.564 -17.212,-21.185l-13.238,-8.604Z" style="fill-rule:nonzero;"/><path d="M284.004,60.453c-3.972,-0.659 -8.604,-3.969 -13.902,-9.271c-5.957,-5.288 -11.252,-8.598 -15.887,-9.93c-6.619,-1.318 -13.238,-1.318 -19.857,1.991l-8.604,4.629c2.646,-3.31 3.97,-7.938 3.31,-13.899l-4.636,-16.549c-3.309,-7.279 -4.635,-12.581 -4.635,-15.224c-13.239,11.255 -21.845,19.859 -25.153,25.154c-1.324,3.311 -2.646,6.62 -2.646,10.589l0.662,3.976c-5.297,-3.976 -13.239,-5.295 -23.169,-5.295c-5.298,0 -11.917,1.985 -17.875,3.97l-11.914,3.969l5.294,12.58c3.973,9.271 7.283,15.231 11.255,17.209c5.295,3.31 11.252,4.642 15.887,3.976l-13.904,15.883c-1.325,2.651 -3.973,8.611 -6.62,15.89l-4.637,13.899c20.522,-0.659 33.762,-2.644 39.718,-7.279c5.961,-3.31 11.256,-10.589 15.229,-21.844l2.648,6.62l6.619,15.884c2.646,3.976 7.943,7.286 16.549,11.261c9.931,3.97 15.226,6.62 16.55,7.279l-1.324,-28.47c0,-4.629 -1.985,-9.93 -5.295,-17.209l-4.636,-8.604l7.281,0.666l15.229,-0.666c7.279,-1.325 15.886,-7.945 28.463,-21.185Z" style="fill:#858585;fill-rule:nonzero;"/><path d="M284.666,57.803c-3.309,-1.319 -7.281,-3.97 -11.916,-7.938c-5.958,-5.96 -11.914,-9.93 -17.873,-11.921c-7.281,-1.979 -14.564,-1.319 -23.169,2.65l0.663,-6.62l-4.635,-17.209l-4.634,-14.565l-1.983,-3.311l-3.312,1.326c-13.238,11.249 -21.844,19.859 -25.815,25.154c-1.988,3.311 -3.312,7.286 -3.312,11.255c-4.635,-2.65 -11.255,-3.31 -19.859,-3.31c-6.62,0 -13.902,1.985 -21.185,5.294l-7.942,2.644l-2.65,1.332l-0.659,1.978l0,0.666l5.957,15.224c4.631,9.27 8.604,14.564 12.577,16.549c3.31,2.65 6.62,3.311 9.929,3.97l-9.267,11.261c-1.988,3.969 -4.635,9.93 -7.283,19.194l-3.972,10.595l-0.662,1.979l0.663,1.991l3.31,1.319l17.875,-1.319c11.252,-1.325 19.197,-3.31 22.507,-5.96c5.295,-3.31 9.267,-8.604 13.238,-16.55l6.62,15.89c3.31,5.295 10.593,9.93 23.168,13.899l10.595,5.301l3.31,0.659c1.985,0 2.647,-1.325 2.647,-3.31l-1.326,-28.47c0,-4.629 -1.984,-12.574 -7.278,-22.503l17.21,0c7.281,-1.326 17.211,-8.604 30.451,-21.844l0.662,-3.31l-2.65,-1.99Zm-66.859,-48.983l3.312,10.595l4.635,15.217l0,1.991c0,3.97 -1.326,7.28 -2.649,9.931l-0.66,1.318l1.322,2.65c1.325,1.325 2.646,1.325 3.973,0l8.604,-3.969c5.961,-3.311 11.256,-3.311 16.549,-2.651c4.637,1.325 9.933,4.635 15.229,10.589l9.931,7.286c-10.593,9.929 -17.873,15.883 -23.171,16.549l-13.901,0.666l-7.944,-0.666c-1.322,0 -1.985,0 -3.31,1.325l0,3.31l5.959,11.249c2.647,5.301 3.971,9.93 3.971,13.24l0.662,22.51l-7.282,-2.651c-10.589,-4.628 -17.208,-7.939 -19.196,-11.248c-2.646,-4.635 -5.294,-9.93 -6.619,-15.231l-1.986,-7.279c0,-1.319 -0.66,-1.985 -2.646,-1.985c-1.325,-0.666 -2.651,0 -3.973,1.325c-3.974,10.589 -7.945,17.868 -13.902,21.844c-4.635,2.644 -15.886,4.635 -32.436,5.294l1.984,-6.619c2.647,-8.605 4.635,-13.899 7.283,-17.209c3.31,-5.301 7.945,-9.93 13.24,-15.23l0.662,-2.644l-0.662,-1.326c0,-1.318 -1.326,-1.985 -3.31,-1.985c-3.973,0 -8.605,-0.666 -13.24,-3.31c-3.973,-1.985 -8.605,-9.929 -13.902,-24.494l5.297,-2.651c8.605,-2.644 15.225,-4.628 20.52,-4.628c8.607,0 15.228,1.318 20.521,4.628c0.664,1.332 2.647,1.332 3.974,0l1.326,-2.644l-0.662,-0.666l0,-3.31c0,-2.644 1.319,-5.954 2.646,-9.264c1.976,-3.308 8.596,-9.927 19.851,-19.857Z" style="fill-rule:nonzero;"/><path d="M214.496,26.695c-0.662,-0.66 -1.325,0 -2.646,0.659c-4.636,12.581 -7.281,24.495 -7.281,36.409l0,1.325l-13.903,16.549l-21.843,21.844l-0.663,1.992l0.663,1.319c1.322,1.325 1.984,1.325 2.647,0l36.409,-39.719l0.663,-0.659c-0.663,-11.921 1.984,-24.495 7.282,-37.734c1.321,-1.326 0.656,-1.985 -1.328,-1.985Z" style="fill-rule:nonzero;"/><path d="M223.102,61.112l-16.55,2.651c-8.604,0 -18.534,-1.984 -29.789,-5.96l-14.562,-5.954c-0.663,-0.666 -1.988,0 -2.647,0.666c-0.663,1.319 0,2.645 1.322,2.645c1.987,1.325 7.282,3.31 14.564,6.62l31.112,6.619l16.55,-3.31c11.256,-1.984 21.185,-1.984 28.467,0l2.646,-1.984l-1.984,-1.992c-7.946,-1.319 -17.876,-1.319 -29.129,-0.001Z" style="fill-rule:nonzero;"/><path d="M208.54,65.088c-0.663,-1.325 -1.326,-1.325 -2.647,-1.325c-1.324,1.325 -1.324,1.991 -1.324,2.651l7.281,15.89l11.914,23.169l2.646,0.659l0.664,-2.651l-18.534,-38.393Z" style="fill-rule:nonzero;"/></g></g><rect id="PATH77" x="2.92" y="2.74" width="366.67" height="582.52" style="fill:none;stroke:#000;stroke-width:3px;"/></svg>