<svg xmlns="http://www.w3.org/2000/svg" xmlns:xlink="http://www.w3.org/1999/xlink" viewBox="0 0 976 1600"><defs><style>.cls-1{fill:none;}.cls-2{fill:#f4f3ef;}.cls-3{clip-path:url(#clip-path);}.cls-4{fill:#50b271;}.cls-5{fill:#ffb85a;}.cls-6{fill:#997664;}.cls-7{fill:#d81e1e;}.cls-8{fill:#592116;}.cls-9{fill:#992d17;}</style><clipPath id="clip-path"><path class="cls-1" d="M960,22V1578a6,6,0,0,1-6,6H22a6,6,0,0,1-6-6V22a6,6,0,0,1,6-6H954A6,6,0,0,1,960,22Z"/></clipPath></defs><g id="Paper_Backing" data-name="Paper Backing"><path class="cls-2" d="M960,22V1578a6,6,0,0,1-6,6H22a6,6,0,0,1-6-6V22a6,6,0,0,1,6-6H954A6,6,0,0,1,960,22Z"/></g><g id="Wikipedia_Cropped" data-name="Wikipedia Cropped"><g class="cls-3"><path class="cls-4" d="M903.93,1604c-15.9-8.7-15.46-6.32-14.73-25.71.75-23.66-.58-45.27-2.16-69-7.18-23.94,28.86-29.32,38.47-42.53,17.9-12.8,34.39-31.78,51.88-42.53,7.47,36,.1,136.25,2.62,175.72C984.4,1608.46,905.69,1602.16,903.93,1604Zm-206.7,0c-53.81-81.63-100.48-176.42-128.16-271.36-6.33-17.52-32.09-140.92,9-105.46,34.58,17.74,13.68-14.17,10.92-31.39,167.1-9.74,108.8,77.32,136.38-125.47C738.81,961.85,756.82,846.07,788,740c4.81-22,84.52-243.55,86.25-142.9,7.8,51.08,26.88-12.55,30.12-22.83,8-10.82,17.43,13.6,24,22.46,93.33,191.49,37.21,516.53,51.7,726,.05,6.46-.22,50,0,57.67-6.56,9.71-21.84,13.82-29.75,19.85-13.52,8.64-29,14.65-42.67,23.06-7.8,6.43-14.93,11.63-20.13-6.29,5-168,2.65-338.51,3-505.26-.89-11-.51-19.54,4.15-27.77-1.55-14.1-7.74-31.17-.88-46.88-1.66-16.52-5.94-37.18-.93-54.65,3.47-6.42-5.49-14-1.45-20.53,1-3.22.7-4.17.27-7-4.75-14.94,3.37-24.41-.55-36.41,1.39-21.5,2.6-83-13.48-31.35-.53,4.55.9,10.88,2.76,15.33-.9,5.84-7.63,11.33-4.66,17.08,1.6,33-3.34,70.61-6.48,103.08.89,29.57-2.53,60.91-7.42,90.69.22,14.4.47,31.35-3.77,46.93-2,10.93,1.94,24.14-1.72,36.1-4.51,20-1.4,40-4.26,60.56-2.66,8.67-8.72,11.78-1.85,21.32,5.4,14.54-3.55,29.64-4.52,41.85,4.7,39.83-2.63,78.12-3.88,118.25-3.67,47.21-5.85,96.1-5.3,145,2.94,27.13-.15,50.31-29.62,24.09-32.84-25.6-67.31-49.1-95.61-79.54-14.88-11.82-33.75-19.9-44.44-37.73-3.62-4.41-10.9-4.9-14.52-10-11.54-5.73-10.45,8.5-5.36,14.47,11.3,11.37,24.43,24.84,32.8,40.07,21.79,25,48.71,47.19,67.18,75.16a6,6,0,0,0,4.5,5.63c11.14,5.26,21.77,19.17,29.33,29.45,15,13.57,31.88,26.46,47,40.4,8.06,17.16.67,34.81,2.25,51.43-2.16,8.49,2.9,17.76-1.91,26.05a6.18,6.18,0,0,0,.89,8.43c5.41,5.26.5,18.82,2.13,27.19C837.41,1612.41,699.71,1600,697.23,1604ZM0,1604c-11.46.69-.14-316.18-4-320.29,1.32-7.11,11.52-4.36,11.8,2.14,17.66,34.68,45,62.84,71.34,90.25,7.8,8.16,2,15.07,4.07,22.5-.72,13.48,2,28.45,1.48,42.62-3.52,20.68,6.61,46.2-3.6,64.75-6.63,5.6,6.31,28.71,1.39,42.81-2.8,14.71,3.83,31.81,1.17,46.85C78.94,1609.4,11.43,1602.41,0,1604Zm129.36-4.6c-12.14-2.35-3.68-18.58-5.63-26.32-8.63-10.1,6.5-22.84,2.57-32.56-6.1-11.21-1.6-32.31-4-45.61,1.49-17.74-4.46-38.43.73-56.51,3.51-9.29-11.15-23.77-2.3-33.8-4.5-22.64,23-40.36,30.66-60,1.75-12.3,16.47-20.71,19.15-31.62,5.78-10.45,10.12-27.71,19.9-34.39a6,6,0,0,0,3.21-7.35c-.14-9.94,9.62-17.22,10.75-27.87-7-34.81-64.49,69.25-79,74.06-16.39-6.56-11-77.69-8.43-92.92,3.63-6.62-4.4-14.68-2-23.71-2.92-13.69,6-28.86-2-40.11,2.93-36.21-4.93-69.14-3.55-104.63-1.08-10.9-8.22-85.13-15.89-51.71-5,25.1-2.45,49.82-4.39,75.21-2.12,30.6,3.26,61.94-1.77,93.47,1.36,34.38,3.59,72.79,0,108,16.28,107.27-61-17.8-91.33-33.62C10.71,1144.53,27.73,1023,80.59,934.3c8.35-6.67,8.81,10,11,14.9,13.19,19.23,17.19-28.6,30.1-20.2,28.18,40.72,39.41,121.12,46.58,173.36,12.14,75.21-15.85,59.62,54.78,75.26,7.62,15.26-36,55.73,13.75,34.63,7.57,2.35,21.7-21,26.33-9-3.27,87.76-11.34,187-25.59,274.09C215.65,1590.31,251,1585.38,129.36,1599.4Z"/><path class="cls-5" d="M592.64,1233.39c-56.82-12.54-54.57-84-14.89-50.67C582.51,1192.37,609.45,1229.54,592.64,1233.39Zm-376.81-14.52c-13.31-19.07,28.17-65.23,49.65-63.38C300.18,1170.24,238.89,1218.9,215.83,1218.87ZM97.14,958.41c-14.1-17.51-24.59-74.75,6.25-81C141.28,884.06,111,943.55,97.14,958.41Zm786-343.58c-17.69-16.66-15.59-56.81-3.67-82.45C919.6,498.3,908.43,601.5,883.14,614.83Z"/><path class="cls-6" d="M835,1604c-3.42-.22-4.37-3.26-3.94-6.28-.55-35.26.88-67.89-.27-106.07-44-44.67-91.87-90.36-134-138.42-8.27-13.37-78.25-81.18-63.67-87.61,26.92,11.47,191.39,180.83,204,150.74,1-241.94,25.14-483.61,43.3-724.36,1.27-6.74,1.41-30.41,10.4-18.16,1.85,148.93-2.47,300.75.08,450.83-1.06,99.63-.31,197.13-2.27,296.53,6.59,25.41,83.57-49.47,91.35-32.7,4.47,30-9.44,39.9-28.89,55.91-21.76,20.46-49.33,32.69-63.93,54.57,2.61,34.15,3.73,69.5,4.8,103.11C893.14,1606.76,836.5,1602.63,835,1604Zm-747.49,0c-8.55-5.27-2.87-23.22-4-32.91,2.29-58.45,1.25-120.22,3-178.32,1.25-14-12.18-23.17-21.69-32.73-24.62-20.43-38.17-55.33-62.08-72.32-2.82.34-6.87-.32-6.77-4,2.55-3.63-5.56-43.32,5.22-40.26a327.18,327.18,0,0,0,78.13,84.26c18.61,5.44,6.59-37.27,10.66-48.46-6.6-256.3,15.68-443.17,25.42-36.22-5.83,144.59,15.87,56.83,73.57-1.32,42.54-50.73,4,31.16-6.61,47.24-17.16,46.62-67.93,84-62.13,136.35,2.5,57.58,1.72,115.59,3.28,172.87C128.57,1609.56,91.08,1601.85,87.53,1604ZM640.4,1135.84c-17.77-6.51-26-87.42-41.77-67.5-8.23,20-35.35,84.09-44.43,29.12-7.33-12.48-1.23-37.59-13.64-44.89-21,3.44-44.08-54.14-44.64-72.27,7.38-10.41,70.11,11.8,61.89-10.47-36.31-41.62-24.17-36.19,13.38-35.52,10.35-3.19,21.64-5.39,32.53-8.12,27.59-11.52-98.43-50.4-43.49-49.93,15.24,1.61,28.17,3.9,43.09-4.14,4.67-2.11,4.22-9.49-.68-11-16.61-1.51-75.34-60.33-46.19-59C652.71,828.72,740.74,925.66,726,1029.78c-42.12-12.12-15.93-15.4-29.75,60-.12,10.49-9.85,4.25-13.64-.63C639.82,1024.67,662.21,1116,640.4,1135.84ZM146.2,805.52C116.9,766,140.56,680,160.58,640.64c33.23-37.27,21-94.94-9.7-129.47-3.52-15,25.35,5.74,34.52-2,10.72.65,1.68,14.82,8.77,18.69,3,1.91,6.4,5.63,5.94,9.72,37.61,62.59-4.34,121,14.38,178.26-.16,10-17,17-23.68,24.67-6.7,2.88-7.29,13.48-14.59,16.67-7.83,6.39-8.69,20.1-19.44,25C155.63,789.82,153.77,801.89,146.2,805.52Zm109.49-353c-10.9-3.5-1-19.33-9.34-23.29-4.35-5.45-15.45-15.41-15.8-20.76,45.51-23.16,98.41-35.77,146.68-54.91,3.42-1.84,10.77-3.27,9.81,3-.31,6.8-11.06,8-8.27,15.28-25.57,27.05-68.68,43.55-99.13,66.29l.13,0C272.52,442.05,260.43,451.43,255.69,452.56Z"/><path class="cls-7" d="M182.85,506.62c-92.72-7.6-45.2-105.8,24.94-96.06C279,419.84,236.84,503.39,182.85,506.62Zm728.76-36.16c-163.38,6.09-331.12-93.73-411-233.21-32.88-64.57-53.77-121-61.53-196-3.38-10.83,2.38-30.57-9.07-36C402.21-19.42,977,3.64,976-4c11.49-.82.12,465.06,4,469.08-1.11,6.89-6.74,2.19-10.79,1.69C952.35,468.08,929.54,470.68,911.61,470.46Z"/><path class="cls-8" d="M995.49,1370.74c-4.37-2.18-14.59,7.72-19.49,9.67-21.84,13-43.66,26.64-67,36.77-4.79,2-13.56,17.12-17.7-1-1.17-5.15-1.51-11.22.12-16.08,1.91-5.71-1.51-14.9,1.72-16,35-17.82,69.18-37.89,97.48-65.33,5-2.43.63-7.1-3.06-3.53-30.68,23.72-65.54,41.75-95.9,65.3,4.08-10.42-2-36.44,3.37-42a312.32,312.32,0,0,0,74.22-63.68c2.4-3.17,9-9.84,5.74-13.25-4.86-2.76-7,5.78-10.61,9.27-22.24,21.42-44,43.91-70.88,59.74-1.13-17.06-.26-34.21-.42-51.31,0-1.47-.7-2.9,1.65-4.44,19.47-13.71,80.07-53.17,86-73.44-2-.06-3.52-.14-4.81,1.27-26.79,20.4-52.22,42.94-79.74,62.24-3.11,1.92-2.52-.22-2.47-2.12.46-15.84.85-31.69,1.29-47.54,0-1.31-.06-3.57.49-3.77,12.73-4.65,21.79-14.53,32.52-22,16.41-12.41,43.77-28.34,48.53-49.06-8.87,1.1-12.24,9.52-18.48,14.84-19.78,16.93-40.32,34.76-62.8,47.24-1-18.16-.28-36.4-1.07-54.58-.08-2.57.9-2.34,2.33-3.12,26.3-15.19,54.54-31.61,71.14-57.67-9.26.71-11.83,7-17.76,12.28-18.55,11.7-34.29,28.14-54.23,37.34-.74-13.45-1.66-28.17,0-41.29,21.42-11,76.52-48.26,78.4-72.27-8.5,2.95-12.49,12.74-19.32,18.3-18.15,16.71-36.9,34.06-58.92,45.37-1.25-10.64-1-21.37-.81-32.07.21-6-.42-10.23,7-15.53,26.82-19.07,53.49-40.44,68.77-70.82-1.29-3.77-4.78-3.09-6.32.23-18.13,23.64-39.93,43.59-62.74,62.53-1.59.91-6.8,5.27-7.49,2.47,1.79-12.08-.62-24-.76-36,0-1.56-1.33-5.48,2.16-7.57a245.44,245.44,0,0,0,45-34.46c11.6-11.23,21.43-24.32,31.55-37,1.64-2.43.29-6.36.47-9.14-24.16,26.63-48.18,54.26-79,73.28-1.37-8.84-.58-18-.44-27,.4-6.86-3.64-16.53,1.95-20.09,26.82-18.24,69.55-49.47,80-80.55-7.26.75-10,8.18-14.25,12.77-21,21-41.3,44.12-67.33,58.85,1.94-20.64-5.18-39.13,16.45-53.49,22.5-16.47,43.17-38.4,56.29-64-3.67-1.26-5.73,1-7.92,3.38-19.8,21.27-38.4,44.31-62.63,60.86.06-14.84-7.21-32.91,11-44.34,26.27-17.15,48.4-42.06,65.14-68.61,2.44-3.1,5-10.13,2.17-12.9-2-1.11-2.89,1-3.76,2.86-19.57,29.91-46.63,55.22-74.72,77.25-1.34-9.8-.71-19.77-.72-29.64.1-4.66-1.24-10.94,1.21-13.68,22.89-23.41,49.87-44.4,67-72.76,2.41-5.68,14.61-19.05,8.62-24.23-2.23-1.69-5.18,3-7,6a305.49,305.49,0,0,1-69.27,79.12c-2.67-5.47.52-10,.27-15.79-1.3-8.94-3.85-22.52.78-26.6,25.11-21.92,68.18-66,77.45-97.56-6.59,1.33-16.84,19.5-22.54,25.23-16.43,21.83-32.89,43.85-53.83,61.68-1.89,1.59-2.73,1.89-2.73-1,0-14.79,0-29.58.15-44.36,0-.91,1.09-2.07,2-2.67,16.59-11.2,30.12-26.16,42.63-41.63,6.17-9.46,16.32-18.43,17.49-30C936,619.4,920.1,645.78,895.88,663c-1-6.87-3.3-13.41-2.37-19.45.81-5.21-2.29-12,2.5-15.6,14.17-11.91,50.11-41.22,46-59.3-13.08,19.13-30,34.54-46.58,50.68-.51-4.2-1.59-7.59-.24-11.26a135.3,135.3,0,0,0,13-32.83,94.23,94.23,0,0,0,.87-41.08c-2.84-14.86-24.08-21.93-31.86-7.81-17.18,28.76-8.73,58.33-4.15,89.5C863.2,604.44,853,596,848.68,582.07c-3.31-4.82-3.31-19.67-11.33-17.85-6,2.58-1.17,7.66-.37,11.59a74,74,0,0,0,10.57,25.93c20.71,30.92,35.8,15.19,26.81,59.86-23.8-15.8-39.19-39-59.15-58.28-1.21,2.39-3.56,4.6-1.25,7.56,14.68,19.61,30.49,39.24,49.43,54.74,7.52,5.82,14.33,9.7,10.38,20.37-2.69,6.91,6.76,20.36-2.46,24.34a268,268,0,0,1-63.62-61.51c-3.76-7.55-9.81-2.34-5.65,4.16,14.82,24.94,36.1,44.22,58.9,62,4.47,3.51,15.1,3.5,11.55,13.59-3.31,14.6-.83,25.32-1.55,42.47-12.74-17.17-29.66-25-43.11-40.55-13.38-15-26.42-30.67-34.94-49.11-.93-2-2.88-3.18-4.95-2.29-6,.4,10,28.58,12,31.63,16.49,23.88,38.69,42.68,59,63.2,3.53,3.58,11.42,2.78,10.92,9.77-.69,9.71-2.29,19.36-3.48,28.84-27.63-20.68-53.68-43.89-74.54-71.43-4.47-4.32-6.56-12.59-13-14.06-2.68-.08-2.27,2.66-1.72,3.69,19,40.31,57.12,67.55,89.46,95.72-2.64,10.21-1.13,20.56-1.57,30.82-.1,2.37.28,4.64-3,1.79-28.15-25.24-60.27-47.05-80.9-79.38-3.1-4.35-6.21-8.69-9.45-12.92-1.24-1.61-1.5-5.52-4.63-3.18-2.3,1.71-2.21,4.43-.19,7.33,7.38,10.6,13.66,22.08,21.75,32.17,18.34,22.87,40.72,41.63,63.29,60.18,4.35,3.56,12.58,4.74,11.19,13.66-1.52,9.74-3.07,19.54-3.46,29.36-.26,6.4-1,4.69-4.59,1.76-19.59-14.44-39.38-29.53-55.31-48-10.1-12.06-20.17-24.23-29.18-37.18-4.68-5.14-6.52-13.39-12.61-16.79-4.59,11.56,6.25,19.81,11.71,28,19.57,32.39,48,58.85,78.36,81.28,4.5,3,13.48,5.22,10.63,13.47-2,10.51-1.67,20.4-4.49,30.68-36.77-22.22-68.36-52.59-94.23-87-4.9-5.11-8-17.53-13.74-19.59-5,13.13,8.42,23.12,15,32.47,21.72,31.24,51.41,56.14,81.89,79,4,2.72,12,2.63,11.63,9.6-.53,10.91-2.41,21.75-3.62,32.63-.32,2.84-1.07,2.14-3.06,1.1A371.85,371.85,0,0,1,735.38,906.56c-2-5.2-6.39-3.52-6.07,1.33,5,12.15,13.39,22,22,31.56,26.34,27.68,54.7,55,88.3,73.77,3.86,1.76,10.14,4.65,10.22,7.19.4,12.06-.83,24.18-1.84,36.25-.16,1.83-.86,6.08-4.44,3.86-35.46-21.34-70.49-44.14-97.76-75.76-40.89-41-16.29-69.84-84-130.16-26.13-23.16-80.23-62.31-116.32-57.06-.73.13-1.86-1.1-2.59-1.89-38.34-50.24-98.27-73-160.15-73.4-22.19-2.54-44.58-3.08-65.29,3.58C282.53,737.78,216.91,738,214.39,690.22c6.46-55,29.15-115.84-.8-167.62-12.68-18.37,16-25.7,24.36-39.31,5.31-7.19,8.49-16.82,15.44-21.73,17.45-12.3,36.24-22.6,54.32-33.94q51.23-33.09,103-65.32c16.43-10.38,32.83-20.83,49-31.55,6.5-3.45,6.32-13.28-3.08-10.62-51,16.95-101.64,35.25-152,54.06-27,9.54-54.06,20-81.34,28.69-10.15,2.71-21-4-31.85-.73-12.53,3.72-24.78,7-36.4,14.2-30.64,21.68-30.42,43.51-33.86,76.8-1.51,13-4.16,26.27-1.91,39.33,5.94,30.6,31.28,59,28.69,91-7.42,62.14-42,128-15.36,189.61,23.3,59.79,81.77,105.25,145.88,112.05,9.53.78,17.5,4.26,23.64,12.46,21,26.51,38,55.27,52.78,85.54,16.18-14.68-20.43-73.22-33.56-89.33,49.38,12.78,95.46,25.19,143.87,39.53,6.57,2.18,16.34-.54,19.34,7.74,8.12,22.45,19.22,43.49,30.15,64.66,5.47,10.58,18.74,16.65,21.12,27,3.13,13.6,8.81,25.89,13.21,38.78,4.95,14.49,20.34,21.18,26.63,11.63,10.65-15,18.11-31.78,24.85-48.76.79.89,2.27,1.78,2.26,2.67,0,8.45,2.57,16.31,5.18,24.14,4.43,11.61,18.51,55.37,32.71,53.71a7.65,7.65,0,0,0,4.17-4.91c4.23-20.66,13.22-40.38,12.35-62.08,0-1.63,1.53-3.07,2.33-4.64,9.24,7.38,30.37,42,41.26,21.75,1.22-25.7,6.81-50.62,1.82-76.32,4.74,3.49,8.24,6.12,11.8,8.66,21.75,17.69,11.49-21.41,24.64-4.48,24.37,32.48,54.83,62,91.25,80.67,4.68,2,11.77,6,12,9.5,1.26,17,.57,34.06.57,53.09-43.08-36.2-79.26-70.08-110-115.29-1.17-1.89-2.85-4.57-5.56-3.19-13.39,7.37,48.11,68.26,55.76,77.88a334,334,0,0,0,46.94,42.06c5.35,4,14,7.88,10.8,17.84-4.34,13.95-.1,28.41-3.09,42.46-35.64-24.61-65.46-59-92.15-93.22-7.65-9.93-14.17-20.72-21-31.28-2.76-3.12-4.36-10.29-9.67-8.71-5.35,3,6.18,18.5,8.25,22.67,27.49,42.09,60.79,81.19,100.7,111.86,4.28,3.45,12.28,6.69,12.37,10.19.47,17.76-1.1,35.58-2,54.46-5.6-9.18-14.32-13.82-20.85-20.62-26.06-29.93-53.87-58.6-76.92-91-6-8.16-11.49-16.71-17-25.23-4.34-5.52-6.35-13.4-13.56-15.8-.73,29.66,82,114.49,104,140.21,9.41,10.87,26.43,15.72,23.73,37.17-3.88,28.07.35,56.52-1.3,85-27.92-60.8-56.11-121.32-95.77-175.3-1.9-2.47-5.2-9.12-8.47-6.53-3.68,2.91,1.1,7.72,3.29,11.19,36.82,54.67,64.11,113.3,94.11,172.21-20.09-11.15-37.61-27.94-56.44-41.57-5.78-4.59-14.45-7.1-15.89-15.56-2.42-25.26-1.35-55.74-14.55-78-3.91,5.55-1,13.38,0,19.81,4.72,17.74,5.79,36.09,7.36,54.82-9.87-8.49-20.07-16.48-29.28-25.49-5.58-5.47-.1-13-1-19.71-3.35-34.29-9.69-68.66-23.38-100.59-.48-1.88-2.26-4-4.15-1.6-3.21,5.52,4,22.3,5.22,29.22,8.78,27,14.81,55.71,14.94,84.13-11.27-4.94-19.93-14.75-29.85-22-6.58-5.47-10.67-11.52-9.91-21.38,2.66-26.1-5.12-51.33-13.1-75.88-1.77-3.78-1.56-10.58-5.93-12.15-2.61,0-.83,2.25-.94,3.46a42.53,42.53,0,0,0,0,7.82c5.63,27.41,14.08,53.74,12.36,82.18-8.56-8.33-20.56-14.91-23.87-24.49-4.25-12.29-2.11-27-6.24-40.07-4.66-13-4.54-30.77-17.41-39-.89,9.39,4.16,19.11,6.49,28.28,5,14,6.46,28.63,7.86,43.88-6.15-4.91-10.79-11-16.33-16.11-3-2.74-7.24-4-8.54-8.48-5.36-18.41-11.8-36-25.3-50.2-21.18-22.29-46,7.71-30.75,29.81,23.75,33.17,59.39,25.44,66.81,50.78-17.73.56-36.52-3.31-54-6.79a223,223,0,0,1-26.53-7.63c-1.16-.42-2.8.49-4.22.78,9.84,16.58,68.88,22.7,88.06,21.63,1.81-.08,4.9.35,5.32,1.39,4.46,11,14.68,17.65,20.42,28.42-32,1.38-63.89-1.14-94.29-11.39-4.31-1.4-8.45,2.26-3.35,4.82,5.59,4.16,12.26,5.68,18.87,7.38a201.74,201.74,0,0,0,64.87,7c10.2-.57,21.39-2.32,28.9,7.42,5.22,8.81,12.27,17.94,17.8,25-40.17.78-83-1.64-121.16-16-2.33-.14-8,4.09-2.56,5.9,11.7,7.06,24.89,9.48,38.07,11.87,25.26,6.39,51.23,5.29,76.87,7,5.87.8,12.43-3.56,16.87.66,9.81,9.33,18.65,19.67,27.87,29.62.87.94,2.32,2.48-.4,2.52-42.73,1.15-85.83,2.6-127.44-8.85-7-.56-14.35-6.29-20.8-2,22.9,17,71.1,18.45,99.74,20.5,12.27.37,24.49,1.75,36.83-.89,7.1-1.52,16.61-3.58,21.65-.26,8.23,5.44,13.69,15.06,20.33,22.92,1,1.18,2.57,2.39-.62,2.69-22.64,3-46,3.84-68.6,4.92-13.47,1.35-26.71-1-40.19.21-10.54.94-21.55-3.26-32.44-6.23-3.22-.12-9.42-4.57-10.69,0-3.19,7.21,45.94,13.06,52.45,13.77,29.26,2.73,58.12,1.12,87.11-2,11.29-1.23,23.62-8,32.28,6.64,3.51,6.89,12.54,10.35,15.89,17.5-16.64,5-35.7,7.16-53.2,8.68-38.46,3.47-76.93.42-115.28-3.52-2.21-.2-5.17-2.94-6,.9-.7,3.1,2.82,4,5,4.16,10.95.83,21.48,4,32.26,5.79,21.86,3.54,43.78-.38,65.65,2.81,19.87.85,41-5.51,61.07-7.42,6.25-1,14.09-5.42,18.31-3.07,9,5,16.19,13.41,24.33,20.61-47.75,12.61-96.9,17.76-146.11,16.45a97.7,97.7,0,0,1-31.19-2c-3.18-.7-8.48-.71-9.14,2.42-1,4.55,4.1,2.81,6.82,3.66,40.33,7.28,83.54,7.89,123.68-.19,14.06-2.26,28-5.59,42.07-7.48,9.73-1.31,20.32-13.56,29.33.13,6.14,9.33,1.47,20.48,2.17,30.77,0,.15-1.14.3-1.7.56-60.37,17.94-124.49,11.79-186,3.58-1.94-.23-3.69-3-5.76-.74-5.86,10.48,19.92,7.1,25.5,10.2,51.42,9.5,105,9.81,156.31-.69,6.66-1.06,16.13-5,10.86,5.5-.13,30.91,5,24.49-27.1,28.32-40.31,7.33-81.6,4.52-122-.6-2.93.38-19.15-4-17.92,0,.09,1.5-.48,3.45,2.32,4.73,24.48,6.84,50.7,6.81,75.92,9.52,24.12-.8,49.23-.1,72.82-5.74,23.54-7.16,16.45,8.09,17.23,24.48-1.08,5.28,7.33,8.37,8,2.45-.46-36.28,1.05-73.06-.3-109.18-2-9.53-11.7-13.45-18.2-19.57A1767.08,1767.08,0,0,1,633.1,1269.62c21.09,13,36,34.75,56.68,48.46,15.5,11.29,28.22,25.48,43.66,36.78,31.83,25.68,61.66,53.84,97.94,73.56,2.48,1.56,5.67,4,9.27,1.84.6-53.22,1.44-107.84,2.58-161.59,2.47-38.76,6-77.48,6.48-116.34,4.67-39,6-78.27,7.32-117.54,3.15-40.1,9-80,10.06-120.24.2-19.18,5.62-38.37,5.56-57.34a1796.54,1796.54,0,0,1,14.21-183c3,91-1.12,182.13-1.78,273.16,3.49,159.33,1.48,318.91-.6,478.27-.61,15.77,7.07,8.14,11.87,6a505.11,505.11,0,0,0,53.3-27.92C957.32,1398.4,997.31,1379.34,995.49,1370.74ZM593.18,1229.37c-14.82.25-62.54-40.51-31.57-51.43,5.12-1,10,2.85,12.84,7C577.62,1187.66,599.69,1230.69,593.18,1229.37ZM508.35,776.75c32.16,25.31,44.48,69,83.26,86.48,1,.44,1.45,1.92,2.16,2.92-36.29-.22-73.94-9.33-108.48-19.56,3.87-3,9.62-.88,13.67-3,4.89-2.28,13.83-5.57,12.41-9.49a51.41,51.41,0,0,0-20.64-25.44c-7.59-4.86-13.72-12.21-23.18-14.17-1.3-.27-2.16-2.65-3.22-4,28.1-9.12,1.59-30.08-10.15-44.58C474,752,491.58,763.27,508.35,776.75ZM624.08,970.91c-.13,1.42-.77,2.51-2.15,1.58-14.59-11.23-33.77-20.28-42.34-37.09a206.3,206.3,0,0,0,33.07-7.72c7.77-2.49,6.21,6.3,7.31,9.47A81.35,81.35,0,0,1,624.08,970.91Zm-22.73,22.68c-.69,5-1.9,10-2.88,14.93-6.06-3.29-54.65-60-59.77-70.41,10.76,0,20.87-.06,31,0,3.31,0,1.26,3.1,1.92,4.58C580.94,966,609.38,965.48,601.35,993.59Zm-6-70.51c-7.17-.43-15,0-21.19-.14-26.17,5.25-50.8,1-74.95-4.36-4.43-1.32-66.33-17.14-57.38-21.21,22.78-10.43-8-25,3.52-29.66,16.55-4,5.94-13.23,1.56-21.7a2.31,2.31,0,0,1,.56-2.29c2.61-2.71,4.64,1.47,6.58,2.86,23.59,16.85,50.73,23.9,78.48,30,5.92,1.32,10.28,8.7,15.93,12.44,15.17,10,30.64,19.57,45.95,29.38C596.21,919.25,598.12,923,595.36,923.08ZM373.12,870.33c9.76-5.48.81-15,.17-22.78,19.53,10.53,37.79,22.43,61.12,22.69,1.06.07,2.94,1.78,3.18,2.39-2.54,6.21,6.87,8.68,4.36,13.82-.62,1.23-6.89.37-10.22-.65C411.6,883.49,390.65,881.9,373.12,870.33Zm20,40.5c-26.67-6.94-50.9-18.3-72.21-41.08,17.39,5.46,34.62-1,47.24,13.39,3.63,4.14,10.34,6.21,16,7.77,9.79,2.67,7.94,12.59,12.48,18.48C398,911.09,394.27,911.13,393.12,910.83Zm51.59-51.5c1.28.9-1.85,1.82-3,1.43a316.61,316.61,0,0,1-67.17-28.32c11.48-1.85,22.09-.38,32.73-2.81,9.62-2.2,17,5.77,25.68,8.26C443.85,840.91,437.15,853.88,444.71,859.33ZM265.1,442.64l-9.41,5.92c-8.86-23.1,13.32-20.75,23.41-27.18a332.77,332.77,0,0,1,29.66-16.6c20.71-10.25,41.93-19.45,61.66-31.52.56-.33,1.54,0,4.65.18Zm-9.16-41.55c42.52-15.37,84.47-30.19,127.2-45.33-1.57,6.95-9,6.51-13.28,8.78-39.11,20.56-78.67,40.29-118.14,60.15-1.69.79-4.68,2.51-5.3-1.71-3.84-4.47-8.07-9-12-13.53C241.61,406.66,248.73,403.74,255.94,401.09Zm-82.62,18.18c6.88-2.16,14.31-2.61,21.14-4.9,7.38-2.48,14.06,1.51,21.22,1,3-.21,1.24,2.28-.16,3.84-11.85,13.62-41.61,25.11-54.3,6.67C165.24,423.63,169,420.62,173.32,419.27Zm-22.58,12.82c2-1.59,4.68-2.08,6,0,16.86,25.64,56.5,9.1,68.91-12.45,39.39,26.17,1.07,67.35-29.34,80.33C152.06,514.12,111.46,467.42,150.74,432.09ZM267.05,905.61c-72-21.42-145.42-95.73-128-175.84,5.5-37.09,20.34-73.41,19.77-111.08,1-43.75-44.5-80.72-26.66-125.54,7.24,5.16,14.21,11.47,21.91,15.6h0c8.93,4.89,18.65,7.39,30.13,4.57,3.25-.79,2.94,1.42,2.64,3.09,5.21,11.4-37.61,4.11-43.77,7.59,4.61,9.73,18.2,9.87,27.16,10.08,7.33,1.14,18.43-7.09,23.94-1,5.47,5.8-2.4,6.35-6.47,5.87-9.78,1.71-26.79-.7-34.48,4.23,5.67,8.08,15.48,5.56,24,6.13,7.86,2.26,25-8.9,25.88,3.55.76,5.4-18.41,4.69-22.62,5.7-3.46,1-10.6-1.2-11.2,3.39,3.3,10,26.75,3.43,34.67,1.56,3.84-1.09,4.33,2,4.49,3.56,4.68,29.48,6.56,59-.91,88.33-1.38,20.4-7.89,44.27,3.58,62.64,15.05,22.7,46,26.06,72.07,25-67,55.22-58.36,99.93-8.92,162.25C271.89,905.41,269.37,906.05,267.05,905.61Zm-16.48-56.76c-22.65-57.2,28.3-107.07,82.4-114.36a556.24,556.24,0,0,1,81.86.7c15.25,1.25,44.67,27.42,52.82,40.26.85,1.33,2.87,3.11-.37,3.37-26.77,3.65-54,2.51-78.77-9.52-2.79-1.3-5.72-3.12-8.88-.7,11.06,14.57,30.81,23.26,47.77,23,28.79,1.5,53.33,17,70.69,38.57,2,2.87,2.82,4.93-2.45,4.8-27.78-.67-54.92-5.2-79.36-18.59-13.42-8.86-22.89-25.09-37.13-33.85-11.81-8.67-24.76-15.21-40.41-16.29-1.65-.11-4.57-1.27-4.33.93.37,3.48,4.14,5.39,7.13,5.67,16.22,1.05,50.81,30.34,60.56,43.45-18.1,6-48.54-6.14-66.56-12-16.49-4.55-27.56-20.93-43.09-27,13.7,36.22,48,24.57,79.94,87.46-20.37-7-39.89-3.78-58.32-12.86-15.34-7.56-29.87-15.32-42.3-27-2.2-2.06-3.38-1.2-5.64.59C260,833.43,292,855.32,296.77,862.3c7.94,9.33,15.78,18.75,23.52,28C293.58,890.38,263.36,882.52,250.57,848.85Zm54.36,63.91c-8.93-5.69-16.83-13-25.14-19.68-.37-.29-.27-1.15-.39-1.74,1.8,0,3.92-.59,5.35.15,13.15,6.78,27.44,7.54,41.65,7.16,11.06.34,13.44,10.07,27.08,13.65C336.4,917,320.42,922.63,304.93,912.76Zm46,12.47c8.47-7.85,15.83-8.24,25.65-4.81,9.31,3.25,20.89,1.92,28.59-5.2,5.56-5.14-2-11-4.05-17.53,25.8,12.91,51.18,23.61,78.75,31.12,62.29,18,38.26-7.89,71.86,43C481.44,968,417.52,942.56,350.89,925.23Zm246.28,135.52a219.94,219.94,0,0,1-28.41,54.54,2.85,2.85,0,0,1-2.4.81c-3.79-.71-4.37-4.54-5-7-10.72-31.64-13.15-65.25-8.79-98.52.29-4-2.59-11.26-5-11.68-4.28-.76-4,4.91-5,8.76-3.43,13.21-6.41,26.39-6.35,40.11,0,1.93-1,3.26-2.61,1.25-11.25-13.86-22-28-27.93-44.91-2.21-5.53-2.64-11.94-5.46-17.27-2.49-4.59-1.56-6.51,6.52-5.25,13.61,3.61,30.43-.37,46.67,2.24,14.14,5.78,16.49,26.86,39,32.67,7.74,2.42,7,6,5.73,11.46C595.86,1038.8,601.1,1049.59,597.17,1060.75Zm48.09,49c-2,6.85-3.1,14-4.86,22.13a239,239,0,0,1-31-156.09c6.68,0,12.44,7,20.67,5.86.94.62,2.62,7.22,2.75,9.16C635.69,1037,662.58,1062.1,645.26,1109.71Zm49.12-34.77c-.61,5.64-1.83,11.23-2.38,16.9-34.38-28.93-42.73-66-52.44-107.88-2.12-11.87-10.5-27.27-7.66-38.7,27.47,8.18,33.87,37.18,49.51,56.58C703,1021,697,1049.5,694.38,1074.94Zm21.12-52.45c-24.49-21.33-43.26-47.27-54.37-77.4-4-10.81-3.89-24.25-8.46-35.32-4.57-10.69-12-36.77-27.27-35.16-1.3.77-1,3-.2,4.36,11.4,20.26,24.46,41.87,25.32,65.49-27.08-32.1-68.49-40.35-99.84-65.14,21.66,3,44.84,5.46,63.45-8.71,17.85-16.15-32.1-2.15-62.87-65,54.35,10,119.89,61.32,146.51,109.64C713,946.59,730.7,993,722.64,1027.67,720.25,1026,717.71,1024.41,715.5,1022.49Zm116.11,81.89c-36.88-22.44-69.5-53.5-95.57-87.15-4.89-11.46-2.7-24.54-5.13-36.67,11.9,13.76,23.26,28.18,36.93,39.64,19.57,16.45,41,30.12,62.79,43.29,13.73,4.54,21.58,22.12,14.86,35.85C847,1119.8,836.86,1107.91,831.61,1104.38Zm53.21-494.6c-6.75,6.36-9.7-31.78-10.29-40.75-1.81-9.55,3.49-22.35,8.65-35.16,1.78-4.42,5.37-6,9.62-4.68C914.43,540.68,894.93,593.57,884.82,609.78Zm103.81,793.55c-2.7,27.61-41.82,48.3-60.46,66.47-8.34,7.43-18.23,15-29.67,19.87-12.79,5.39-5.93,18.65-7.21,28.52,1.22,12.54-2.33,29.75,14.52,16.9,25.22-15.53,46.75-36.16,70.62-53.15,1.64,12.21-64.56,62.31-76.88,63-6.94.82-6.6,4.09-6.53,8.87,1,13.42-1.37,28.19,1.12,41,30-13.61,54.86-34.84,80.13-57.06-3.13,21.24-46.39,45.12-63.32,58-9.07,6.51-24.91,13.73-23.83-4,.6-31-2.14-61.8-3.93-92.67-.26-8.29,7.72-11.93,13.38-16.45q26-20.78,52.06-41.39c10.12-8,19-17.21,27.37-26.85C979.89,1410.14,982.72,1405.14,988.63,1403.33ZM425.06,6.48c-.36-1.69-1.59-5.14,2.43-5.22,4.42-.08,10.33-.64,11.33,5.06,5.76,39,6.68,78.63,19.78,116.34,22.31,76.06,57.45,149,115.75,203.94C637.26,385.85,711.71,435.19,797,453.51c23.91,6.34,47.5,12.28,72.55,11.38,16.1.73,32.23,1.85,48.32,1.5,17-.37,33.9-2.1,50.82-3.6,3.59-.31,5.94.55,7.31,2.27,3.45,5.55,1.28,12.63-7.08,12.06C934.68,482,900,484.85,865.56,481,623,464.06,426,248.41,425.06,6.48ZM555.67,1423.76c-1.48,2.68-4.06.3-6.21.21-17.64-1-35.24-.9-52.77,1.41-11.67.94-12.57,12.11-16.91,19.1-9.94,16-18,33.23-27,49.83-1.14,2.1-3.93,5-5.52,4.8-3.26-.51-2.77-4.37-2.19-6.74,5.16-25.23,19.38-42,32.72-64.85-30.55,12.74-56.61,25.25-86.61,37,19.75-17.35,43-32.66,68.82-38,.88,0,1.84-1.63,2.77-2.51-20-9.65-43.22-7-63.68-14,16.28-13,59.41.68,78.43,6.34,6.91,2.1,3.34-6.86,3.12-9.92-2.6-53.86,5.64-107.49,1.79-161.39-.2-5.1-6.39-9.93-8.08-16.27-1.27-4.74-1.94-8.77.72-12.43,11-15.11-.27-29.69-1-44.45-.45-9.69-3.93-19.19-5-28.89-3.51-29.24-4.4-58.79-10.06-87.74-.64-4,.12-9,3.71-9.54,9.69,1.16,6.68,21.87,9,29.43,5.55,46.07,10.43,92.44,21.86,137.52,4.31,17.7,1.32,34.7,1.29,52-.71,48.59-.13,97.34-3.88,145.82-.85,9.16,4.41,6.5,9.44,5.67,17.38-2.85,34.88-7.06,51.89,1.44C554.35,1418.58,557.34,1420.74,555.67,1423.76ZM436.94,984c-.81-2.28,1.3-3.3,2.7-4.48,1.84-1.55,2.92.34,4.12,1.37q17.78,15.12,35.54,30.24c2.46,3.23,10.17,5.39,7.66,10.33-1.94,3.17-4.78-.13-6.28-.7a77.18,77.18,0,0,1-13.61-6.88,103.19,103.19,0,0,1-21.26-18.32C442.59,992,436.9,990.37,436.94,984Zm-23.2-2.64c9.91,12,19.63,24.14,29.43,36.22,4.67,5.33,5.78,9.13,13.26,12.38-22,1.54-35.43-29.06-48.81-43.15C400.44,979.7,408.25,971.78,413.74,981.35Zm-18.75,7c7.51,17.55,15.61,28.72,18.91,48.79A244.24,244.24,0,0,1,384.8,984c-3.33-3-6.61-8.74-2.57-10.19C389.31,971.89,392,983.42,395,988.37ZM389.25,1345c-36.44-2.68-46-19.32-74.15,15.41-8.11,6.18-14.22,20.42-24.61,22,3.91-17.8,18.9-28.07,32.54-42.37a257.41,257.41,0,0,0-56.73,23.33c-3,1.68-6.91,4-9.17,1.31-2.47-3,2.16-4.83,4-6.65,15.86-15.86,36.32-21.56,56.72-26.77-15-8.7-34.94-11.08-51.62-17.19,20.9-8,43.65,3.38,62.85,11.69,3,1.47,4,.18,3.72-2.1-1.87-13.2,5.34-24.1,9.23-35.67,11-30.71,18.92-62.44,27.81-93.78,2.2-7.89,10.89-17.66.22-27.84-4.19-4-2.53-13.85,1.15-19.62,7.67-12,1.16-23.63.3-35.3,1.24-10.5-11.71-80.79-3-78.25a6.44,6.44,0,0,1,6.31,5.32c2.34,12.84,5,25.7,6.05,38.67,1.86,23,6.38,45.65,9.89,68.44,2.47,16-2.33,31.43-6.06,46.72-9.62,46.28-26.85,89.95-43.56,134-.6,1.86.49,2.63,2.4,2.66,16.08.27,31.69,2.92,46.27,10C395.49,1341.75,397,1347.13,389.25,1345ZM368.61,974c8.73,17.19,18.9,35.49,18.66,54.17-5-2.11-4.62-8.25-7.16-12.29-5.24-12.63-10.92-25.25-15.71-38-2.75-3.14-8-7.14-3.42-10.49C365.77,963.85,367.17,971.47,368.61,974Zm-78.5,579.23c-22.75,13.21-48.19,19.88-73.42,26.58-27,8.3-54.5,12.17-82.67,14.52-2.32.28-7,3.29-6.67-2,.24-4.59-4.53-12.91,5.25-13,9.12-.09,17.57-3.31,26.22-4.88,24.07-4.34,46.9-13.71,69.11-23.84,18.61-8.9,42.11-9.78,56.29-26.25-2.11-5.23-6.09-1.29-8.9.47-44.16,15.76-87.07,36.15-133.15,45.75-25.5,13.67-18.82-25.36-1.49-27.26,49-6.76,94.68-29,137.76-52.42,5.33-1.36,1.26-7.65-3.15-5.36-24.26,11.53-48.38,23.74-73.47,33.32-18.66,6.73-37.92,11.77-56.8,17.9-15.93,5.18-18.05,3.93-17.87-12.73,0-3.18-2.19-8,3.61-8.71,22-2.88,42.64-11,62.85-18.88,27.15-10.66,54.29-22.19,78-39.57,1.67-1.22,7.5-.77,4.69-5.28-2.15-3.46-6.72-1.2-9,0-10.57,5.58-21.15,11.16-31.81,16.53-28.85,14.55-58.34,27.58-90.17,34.93-6.45,1.49-21.3,17-19.13-7.49,0-5.41-3.09-15,2.52-15.8,11.08-1.7,20.69-7.15,31.46-9.62,27.26-7.09,53.93-18.8,79.32-31.15,5.75-3.5,36-19.27,33-25.78-1.19-4.28-15.06,6.12-17.82,7.31-35,22.91-75,35.08-114.24,48.37-15.36,5.92-15.47,6.45-15.47-10.26,1.25-5.37-3.19-17.29,3.55-18.86,39.93-10,78.29-25.76,116-42,5.36-3.49,32.52-13.25,28.69-20.17-2.2-3.8-7.13.79-10.56,2.34-36.76,17.76-74.79,33.78-114,45.11-6.53,1.8-23.42,8.62-25.16-1.43-3.89-12.09-.16-22.2,11.82-24,25.07-4.48,47.69-14.88,70.85-24.79,15.75-4.7,29.49-13.75,43.15-22.71h0c3.89-1.82,4.51-3.75,4.63-8.43-42.86,18.32-84.24,42.22-131.18,51.28C133,1381.28,140,1364.64,152,1353.56c5.73-3.74,14.22-2.93,21.21-5,22.75-8.57,51.31-10.37,68.66-28.57-3.44-4.74-10.35,1.35-14.94,2.27a404.34,404.34,0,0,1-69.07,22.38c-.75.19-1.75-.57-2.63-.88,14.3-26.92,20.2-24.25,46.48-33.79,33.26-14.66,66.67-30.68,95.07-53.79,6.83-4.74,2.49-13.89-4-6.17-36.18,27.87-75.69,45.44-118.38,62.23,7.86-9,9.44-25.62,18.06-30.13,22.65-9.36,43.32-21.68,64.77-33.06,13.73-8.1,26.57-17.69,37-30.26,2.17-2.59,7.71-5.37,4-8.86-2.63-2.45-6.56,1.82-9.4,4.34-25,24-56.08,38.87-86.48,54.62-1.56.82-2.84,3.59-4.76,1.46-.66-.73,0-3.66,1-4.75,12.9-18.47,10.7-44.77,39-49.38,7.85-1.64,15.27-6.63,21.51-13,7.72-9.64,29.32-33.72,19.46-45.45-17.92-20.6-46.74,7.72-56.85,23.66-15.38,28.4-11.41,40.45-40.59,61.89,6.26-22.31,8.78-46.08,17.84-67.62,1.27-7.12,11-15.81,3.82-22.19-5.42-.86-9.39,16.68-11.82,21a384.6,384.6,0,0,0-16.68,61c-1.28,6.69,2,14.15-2.31,19.66-15.28,19.68-31.12,38.92-46.66,58.21A1202.32,1202.32,0,0,1,180.71,1162c2.41-4.91.77-21.55-5.18-9-6.37,14.46-12.59,29-18.53,43.61-15,36.87-28.14,67-38,107.28,1-28.39-2-53.33,1.18-77,10.15-13.68,55.24-84.93,48.87-97.82-1.47-1.69-2.75.34-3.38,1.54-15,27.75-28.53,57-45.54,83.39-2.52-20.65-5.39-45.22,13-62.38,10-7.78,37-49.33,32.84-60.57-8.33,3.24-12.08,17.16-17,24.53-8.16,16.11-19.79,29.61-32,45.17,0-15,.36-27.85-.23-40.69-.16-3.49-1.1-6.13,1.58-9.36,13.74-17.36,29.6-35.92,35.39-57.48-2.76-6.25-7,.95-9.28,5.27-9.35,14.22-17.17,29.49-28.52,42.27-1.85-9.24-5.65-38-1.47-45.33,8.85-10.14,26.51-27.71,26-41.36-1.12.5-2.61.71-3.32,1.56-8.52,10.31-16.92,20.71-25.88,31.74-.65-9,.37-17.51-2-25.83-.9-3.14-.77-8.22,1.17-10.22,5.88-6.64,29.81-33.71,22.81-41.47-2.24-1.57-2.15,2-3.11,3.21-4.19,5.18-7.8,10.86-12.2,15.84-3.31,3.75-8.63,16.89-10-1.15-1.14-15.15-7.56-30.41,3.32-44.91,11.55-15.3,17.81-33.09,13.72-52.95-2-10.16-9.1-16.86-18.67-18.12-19.72-1.83-27.07,22.9-26.62,39.41-.93,22.91,14.31,42.74,10.06,66-1.57,8.53-.25,17.6-.25,27.27-7.49-7-29.36-38.83-36.76-36.53-1.15,5.33,5.3,9.71,7.61,14.16,8.06,11.61,18.6,22.26,28.35,32.13-3.43,10-.66,20.54-2.43,32.28-13.28-15.58-25.44-29.83-38-44.5-1.05-1.23-2.47-2.76-4.16-1.2-2.41,4.08,3.6,7.68,5.22,11.17,4.12,5.64,8.29,11.25,12.21,17C72.1,1044.41,93,1055.21,85,1079.4c-.55,1.66,1.09,5-3,1.81C64.17,1067.05,49,1050.29,34.35,1033c-.82-1-1.34-4.43-3.78-2-4.77,5.47,5.38,11.79,7.78,16.72C47.1,1059.07,56.29,1070,67.69,1079c5.74,4.53,14.23,8,16.53,13.85,3,7.67,1.16,17.26,1.3,26,0,2.64-.71,2.8-2.61.86-16.47-16.86-35.35-31.43-48.22-51.72-2-5.86-13.73-8.15-8.88.85,16.1,23.72,40.34,46.15,60.28,64.88-3,12.26.65,24.62-2,37-3.3-8.63-11.67-12.25-17.32-18.5-13.87-15.3-28.61-29.81-43.18-44.47-2.53-2.29-4.26-5.45-8-5.87,0,1-.42,2.29,0,3,15.67,22.35,34.46,42.3,53.88,61.34,8.39,8.21,18.17,13.71,15.88,27.88-1.77,9.67.67,19.89-1.2,29.61-23.65-23-44.57-49.58-69.46-71.79-3.32-2.39-8.48.37-3.91,3.78q31,32.71,60.67,66.75c4.29,5,12.75,6.94,13.22,14.29.23,13.86,1.51,28.36-.66,42-28.53-19.33-52.52-45.81-75.11-72-1.29-1.51-4.31-1.5-6.17-2.15,14.17,28.76,41.57,50.43,64.91,72.25,7.8,6.68,21.15,9.66,17.38,24.75-.18,6.84-.35,13.75-2.81,20.36-19.72-12.21-34.83-30.51-51.36-46.54-8-8.39-15.19-17.58-23.07-26.11-1.33-1.44-4.35-1.32-6.59-1.93,8.94,24.94,65.62,84,91.06,90.31,6.81-110.31-5.1-221.36,6.73-331.39,11.8,107.85,13.86,216.51,12,324.94,2,23,47.79-49.56,53.82-54.24,12.59-15.67,25.71-30.93,40.69-48.87-.76,4.88-.63,6.65-1.31,8-8.36,17-16.45,34.16-25.38,50.85-17.23,32.1-34.8,64-55.89,93.75-9.62,15-7.66,31.23-6.46,48.09,1.94,27.26,0,54.69,1.59,82.1,2.71,29.42-1.29,59.85,1.87,89,2.68,4.69,30.92,0,37.37,0,27.85-4.48,55.14-12.15,82.46-19.12C244.64,1581.64,312.55,1554.37,290.11,1553.19Zm-72.19-348.31c10-19.15,23.82-44.54,48.08-45.39a6.39,6.39,0,0,1,5.84,5.75c-1.31,22.25-33.55,46.33-55.88,49.63C216.58,1211.52,216.53,1207.86,217.92,1204.88ZM102.63,942.62c-1.87,3-3,6.56-5.28,11.8-7.73-19.58-10.89-37-8-57.23C96.49,863.55,139.55,884,102.63,942.62ZM206.2,767.16c2.43,3.42-1.08,6.49-4.27,4.86-11.13-3.7-34.18-44.22-16.28-47.06,5.89-.32,2.92,4.32,3.34,6.79C191.21,745,199.43,755.91,206.2,767.16Zm-20.69-307c4-14.39,34.69-3.89,9.17,11.24C187.55,470,185.68,464.37,185.51,460.11ZM170.39,676.72c4.19-11.23,16.06-18.68,25.47-25.69.67-.43,2.24-.72,2.42-.44,7.5,7.51-21,27-26.08,27.33C171.82,677.68,170.35,677.11,170.39,676.72Zm-14.76,29.6c.4-1.28.41-3,1.27-3.78,11.66-10.71,23.23-21.56,35.33-31.76,3.47-3.78,4.61-1.29,5,3.26-2.73,10.49-12.8,14.93-19.89,22C171.4,701.28,164.05,707.83,155.63,706.32Zm30.33,78c5.13,7.46-2,9-5.8,3.19-8.8-7.88-26.56-55.69-11-60.13,7.37-.3,2.23,7,3.54,9.26C173.65,753.53,180.24,769,186,784.34Zm-17,17.24c.4,1.16-.2,2.65-.33,4-20.17-10-20.65-31.4-22.86-53-2.44-7.6-.62-19.15,3-30.69,1.19-4,3.43-5.62,6.86-4.76,3.79.89,2.3,3.29,2.07,6.34C154.75,750.21,157.69,776.93,169,801.58Zm-42.75,694v-.1C126.29,1495.22,126.27,1495.49,126.26,1495.6ZM90.53,1393.08c-1.16,69-2.3,138.34-3,206.92-5.11,7.11-15.14,2.41-20.46-2.17-21.69-17-43-34.52-64.48-51.81-1.87-1.51-2.28-3.42-1-5.27,1.63-2.31,3.56-.2,4.65.7,19,15.58,40.19,28.36,58.07,45.44,3.78,3.61,9.14,5.58,13.81,8.24,2.62,1.25,2.58-6.09,2.31-7.38-2.72-9.58-.09-19.59-2.31-28.85-.93-3.87-7.66-6.28-11.62-9.52-21.38-18.25-43.73-36.77-63.67-56-.16-2.63,2.69-1.13,5-.15,26.85,14.27,45.86,38.49,70.62,55.34,3.67-30-4.74-38.74-25.78-55.63C36.24,1475.39,11.5,1462,2.25,1439.3c27.31,16.24,47,45.11,73.86,62.86,3.08,2,4.66-.94,4.71-3.27.24-11,1.07-22.2-.43-33-24-22.87-49.4-48.68-72.81-73.17-2.14-2.92-5-7.45-4.28-11.32,23,18.34,45.47,39.74,64.11,63.2,2,2.12,13.31,16,13.54,8.3-.36-13.81-.48-27.64-1.22-41.43-.11-2-2.85-4.21-4.86-5.65-11.19-8-22-16.49-32.72-25.11-2.93-1.65-56.72-50.78-36-41q31.73,27.42,63.34,54.95c3.15,1.91,6.12,6.54,10,5.67-3.25-6.74,3.49-14.33-3.32-21.41-26.95-28-54.11-56-72-91.23-4-5.52,1.63-8.9,5.72-2.82,18.07,25,35.78,50.3,57.75,72.4C77.61,1367.2,91.78,1376.8,90.53,1393.08Z"/></g></g><g id="Red_Japanese_Frames" data-name="Red Japanese Frames"><path class="cls-8" d="M0,20V1580a20,20,0,0,0,20,20H956a20,20,0,0,0,20-20V20A20,20,0,0,0,956,0H20A20,20,0,0,0,0,20ZM924,1548H52V52H924Z"/><path class="cls-9" d="M952.1,15.41,928.69,38.83A4,4,0,0,1,925.86,40H50.14a4,4,0,0,1-2.83-1.17L23.9,15.41A2,2,0,0,1,25.31,12H950.69A2,2,0,0,1,952.1,15.41ZM40,1549.86V50.14a4,4,0,0,0-1.17-2.83L15.41,23.9A2,2,0,0,0,12,25.31V1574.69a2,2,0,0,0,3.41,1.41l23.42-23.41A4,4,0,0,0,40,1549.86ZM936,50.14V1549.86a4,4,0,0,0,1.17,2.83l23.42,23.41a2,2,0,0,0,3.41-1.41V25.31a2,2,0,0,0-3.41-1.41L937.17,47.31A4,4,0,0,0,936,50.14ZM925.86,1560H50.14a4,4,0,0,0-2.83,1.17l-20,20a4,4,0,0,0,2.83,6.83H950.69a2,2,0,0,0,1.41-3.41l-23.41-23.42A4,4,0,0,0,925.86,1560Z"/></g></svg>