<svg xmlns="http://www.w3.org/2000/svg" xmlns:xlink="http://www.w3.org/1999/xlink" viewBox="0 0 976 1600"><defs><style>.cls-1{fill:none;}.cls-2{fill:#f4f3ef;}.cls-3{clip-path:url(#clip-path);}.cls-4{fill:#6060bf;}.cls-5{fill:#50b271;}.cls-6{fill:#d81e1e;}.cls-7{fill:#592116;}.cls-8{fill:#992d17;}</style><clipPath id="clip-path"><path class="cls-1" d="M960,22V1578a6,6,0,0,1-6,6H22a6,6,0,0,1-6-6V22a6,6,0,0,1,6-6H954A6,6,0,0,1,960,22Z"/></clipPath></defs><g id="Paper_Backing" data-name="Paper Backing"><path class="cls-2" d="M960,22V1578a6,6,0,0,1-6,6H22a6,6,0,0,1-6-6V22a6,6,0,0,1,6-6H954A6,6,0,0,1,960,22Z"/></g><g id="Wikipedia_Cropped" data-name="Wikipedia Cropped"><g class="cls-3"><path class="cls-4" d="M204.19,1367c-27.79-8.44-16.47-59.57-8.4-79.14C222,1283.56,250.45,1364.86,204.19,1367ZM119.3,1240.92c-24.39-1.74-76.78-39.24-41.79-52.58C91.71,1187.41,151.28,1239.38,119.3,1240.92Zm154.51-23.65c-4.24-.18-8.9.23-12.85-1l.48.18c-13.3-15.61,31.12-41.32,47.9-41.33C376.88,1191.42,307.29,1222.79,273.81,1217.27Zm-157.62-79.9c-20.45-.27-79-47-51.22-65.26C83.75,1079.1,138.17,1123.88,116.19,1137.37Zm139-14.61c-41.55-6.48,46.27-70.14,60.32-27C318.53,1125.6,274.08,1119.08,255.16,1122.76Zm-30.65-87.43c-13.91-.51-14.5-11-1.85-19C284.88,938.59,330.87,1042.28,224.51,1035.33Zm-109.72-13.09c-15,2.27-75.93-32.13-45.39-44.41C88,976.84,127.23,1011.67,114.79,1022.24Zm614.56-32.88c-43.8.19-10.51-74.17,7.2-85.6C762.85,916.57,766,984.88,729.35,989.36ZM208.42,931.18C180,921.1,238,889.6,253.53,894.68c17.3-2.33,27.28,23.44,4.68,29.33C241.31,931.54,225.53,931,208.42,931.18ZM115.4,915c-20.88-2.07-77-35-51.24-53.16C80.7,860.85,135.62,899.59,115.4,915ZM662.65,845c-22.31,7.18-83.48-31.88-41.52-44.84C638.17,798.22,706.47,842,662.65,845ZM238.24,813.41c-7.75-5.13-20.19,1.87-24.92-7,5.14-12,35.11-38.56,48.94-32.72C272.5,811.11,275.52,806.45,238.24,813.41Zm583.32-2.1c-10.9-2.34-56.82-2-34.54-20.21,11.9-10.42,27.64-21.75,45.83-19.09C875.42,782.78,858.25,814.23,821.56,811.31ZM122.47,792.94c-36.37,7.68-106.22-74.58-37.73-58C92,735.72,144.38,786.53,122.47,792.94Zm542.69-37.46c-21.58-4.32-71.89-16.24-59-48.23C623.45,687,698.36,746,665.16,755.48ZM806.6,708.72c-85.62-1.08,8-65.63,34.09-30.52C853.48,699.64,822.53,708.46,806.6,708.72ZM124.19,677.45c-27.6-3.74-83.6-47.37-41-61.77C103.35,612.91,149.11,661,124.19,677.45ZM653.27,653c-21.41.71-86.66-50.66-40.07-57.77C634.26,596.52,681,640.19,653.27,653Zm118.67-39.48c-53.47,2.44,17.76-45.55,34.69-42C845.55,582.58,794.84,620.16,771.94,613.52ZM148.31,541.8c-25.23-.38-69.41-55.64-26.42-59.93C136.77,493.17,166.19,528,148.31,541.8Zm492-6.49c-20.81-5.43-42.84-9.27-55.8-30.4-7.58-11.1,5.35-29.32,18.58-22.24C615.53,487.66,666,529.65,640.29,535.31ZM740,521.16c-43,3.49,45.44-79.79,61.86-39.45C802.1,512.12,764.7,520.39,740,521.16Z"/><path class="cls-5" d="M849.76,462.79c-31.86-14.51-54.36-57.29-33.24-87.31,1.87-4.68-7.48-12.08,1.35-13.54C849.78,372.2,872.76,439.75,849.76,462.79ZM73,454.23c-34-15-7-66.89,7-84.8,6.67-4.95,9.37,2.74,18.2-5.26C117.86,392.09,95.16,432.55,73,454.23ZM539.7,436.86c-23.85-11.73-35.24-41.88-38.08-66.4,1.16-4.67,8.35-2.16,9.23-7.43a4,4,0,0,1,6.3-2C539.24,377.36,566.53,421,539.7,436.86Zm211.12-7.77c-7.66-.69-.22-9.69-5.71-12.79-15.79-21.71-3.9-72.88,28.27-64.93C795.51,361.12,771.48,419.28,750.82,429.09ZM178.3,376.63c-12-8.1-9.17,0-17.36-3.12-19.1-21.08-33.08-61.33-7.61-73.71C173.1,302.18,191.73,364.35,178.3,376.63Zm475.15-16.12c-39.93-5.77-3.48-85.11,23.12-100.38C713.4,272.24,684.34,347.59,653.45,360.51ZM575,349.68c-18.36.25-43.56-11.65-53.68-28.74,3.74-9,5.17.48,12.54-14.25,21.1-8.15,38.93,6.7,55.08,19.29,2.75,1.36,2.59,4.87.79,7C588.75,347.84,597.9,348.26,575,349.68Zm299.78-1.51c-15.53-.2-39.14-9-48.32-28.44,2.61-8.29-10.9-7.37-10.78-14.51C840.24,273.7,946.89,340.66,874.78,348.17Zm-293-69.35c-14.28-21.27-2.24-62.87,20.62-83.41,13.06,4.73,9.89-8.82,18.33-11.32C639,220.11,614.36,266.51,581.74,278.82Zm257.81-6.68a75.14,75.14,0,0,1-22.82-3.51c-12.8-6.05-39-12-45.44-28,2.44-4-1.87-6.49-2.72-9.85,3-8.6,16.9-6.45,26.06-7.66C831.06,217.24,902.36,266.43,839.55,272.14ZM346,267.27c-25-27,18.73-117.74,39.32-73.76,1,22.32-5.35,54.81-25.08,65.2C351.12,253.92,352,265.7,346,267.27Zm-105.59-2.61c-25.57-5-51-54.86-23.09-67.09C240,200.06,273.66,259.31,240.43,264.66ZM66,245.52c-51.29-10.33,15.63-51.26,37.71-46.9,16.15,1.54,29.56-.89,23.79,19.36C114.87,234.21,84.94,245.52,66,245.52Zm459.31-9.24c-22.16-.83-43.52-15.4-50.91-33.87-4.53-1.94-5.59-10,.86-11.2C498.7,176.89,582.41,228.9,525.26,236.28ZM311.73,170.43c-28.74-4-50.88-60.52-25.46-77.84C313.83,103.7,341.87,166.48,311.73,170.43Zm478.92-3.7c-14.84.38-70.67-13.44-67.27-30.81C760.06,89.55,890.17,155.9,790.65,166.73ZM504.7,138.46c-28.95-1.18-47.16-11.68-67.55-26.48-10.12-39.88,64-13.06,76.27,8.66C512.4,129.13,519.28,140.48,504.7,138.46ZM148.84,121.78C76.1,119.09,126.28,73.08,160.55,75c10.66.9,30.34,2.6,34.21,14.15-3.34,4-.75,7.33,0,11.42C187.58,116.93,165,120.75,148.84,121.78Zm528.95-18.29c-12.75-1.63-30.21-.62-36-13.2-4.35-2.63-18.41,3.62-12.71-6.83,34.83-31.24,68.75-33.53,107.68-10.56,4.75,3-1.52,7.91,1.37,11.85C728.59,104,696.71,101.11,677.79,103.49Z"/><path class="cls-6" d="M509.88,1289.67c-33.21-4.7-43-52.63-65.94-74.41-40.3-64.8-78.38-131.79-103.75-203.6C259.08,811.79,227.51,598.75,210.77,385c1.91-15.62-14.61-61.42,1.15-66,71.92,5.55,144.28,4.09,216.49,8.06,10.18,2.12,37.21-4,33.18,12.79-2,45.31,4.87,84,5.41,127.62,3.18,83.72,19.44,165.22,35.32,247.41,32.07,195.93,121.2,375.18,230.58,539.24,17.24,25-40.57,12.76-51.87,17.65-57.43,4.47-113.16,10.85-171.16,17.83Z"/><path class="cls-7" d="M943.86,1427.38c.27-6.68,2.71-15.68,10.59-15.85,13.17-.88,18.46,28.15.94,23.23C948.61,1436.52,943.62,1433.44,943.86,1427.38Zm5,124c-14.09-1.86-12.22,31.67,1.66,27.76C973.26,1579.9,969.15,1549.29,948.84,1551.34ZM953.22,73.69c5.22-.9,12.4-2.77,11.91-12.09,1.17-7-4.67-10.5-10.21-10.18C942.91,50.73,940.08,74.36,953.22,73.69Zm.18,257.2c-7.48.07-5.94,5.69-6.5,9.85-1.83,7.47,3.14,9.28,8.32,9.06,6-.25,10.13-3.16,10-10.59C965.07,330.24,959.43,330.84,953.4,330.89Zm1.28,897.05c5.78-.3,9-2.55,8.66-8.77-.42-5.18.46-11.34-7.14-12.16-6.51-.7-13.78-1-14.78,7.78C940.39,1223.92,945.23,1228.42,954.68,1227.94ZM951,1041.12c-15.26-4.3-12.18,22.18,2.56,20,5.54,0,10-.21,9.71-8C962.91,1044.84,960.91,1039.37,951,1041.12Zm.38-574.47c16.79-.63,15.4-23.81-1.35-23.19C937.33,442.76,938.63,467.75,951.33,466.65Zm-.63,489.08c18.55,0,10.34-29-5.54-25.66C933.26,931.65,932.6,958.45,950.7,955.73Zm2.86-752.95c-8.3,0-10.16,4.39-10.63,10.11-.65,7.9,5.66,9.11,10.8,9.94,6.3,1,6.84-6,6.69-9C960.21,209.4,960.46,202.12,953.56,202.78Zm-8.62,579.9c3.53-14.35-9.45-9.93-14.73-10.75-3.7-.57-7.88,7.19-7.39,13.28C921.94,805.42,950.13,802.61,944.94,782.68ZM922.88,120.42c.53,6.92,2.89,12.63,10.57,12.42,6.43-.17,12.52-2.55,11.31-14.44-.46-2.58.64-10.18-8.67-9.32C929.47,109.69,922.12,110.44,922.88,120.42ZM933,284.47c2.4-17.78-21.79-16.69-20.54-.49.19,4.92.27,12.56,5.92,12.41C925.06,296.22,934.87,295.34,933,284.47Zm0,397.76c.67-7.85-4.1-9.56-10.89-9.32-9.44-.77-12.31,4.81-13.39,13.43C906.81,705.79,933.69,702.43,933.05,682.23Zm-15.28,686.66c-11.1-1.9-11.23,6.47-11.39,13.27-3.15,18,21,13.59,22.55-.81C930.73,1372.8,926.31,1368.71,917.77,1368.89Zm-6.52-58c19.84,1.35,24-28.49,3.52-28.13C900,1282.76,895.21,1309.76,911.25,1310.89Zm15.64-917.7c4.17-16.95-22-13.53-21.58.68.23,7.13,3.6,13.4,12.81,13.33C927.29,406.64,925.42,398.52,926.89,393.19Zm-11.2,1079.75c-12.25,0-15.45,2.15-14.62,11.22.86,9.48,3.82,18.69,16.33,16.72C929.22,1500,931.4,1467.69,915.69,1472.94Zm.53-1422c4.69.65,9.28-4.19,8.21-6.85-2.19-5.43,2-14.61-4.16-15.56-12.8-.76-15,5-15.34,12.43C904.56,48.92,910.64,50.13,916.22,50.9Zm-5.58,466.75c5.73-.32,14.37.62,12.29-10,1.76-8.53-5-12-10.3-12.2C899.68,493.46,897.15,517.82,910.64,517.65Zm-3.45,379.78c-16.4.12-10.48,26.32,4.65,24.36,8.57.17,8.68-7.73,9-13.6C921.31,900.75,916.91,896.9,907.19,897.43Zm-3.85,231.3c19.1,2.74,21-27.65,2-27.41C891.9,1100,889.05,1127,903.34,1128.73Zm3.91-270.45c7.83-.15,9-7.19,9.68-13.1,1-8.22-5-10.8-11.53-10.76-6.77.05-11.51,3.47-10.44,11.28C893.81,855.15,899.67,858.42,907.25,858.28ZM890.91,180.77c.1,6,.37,12.51,8.37,12.06,6.6-.37,12-3.25,12-11.87,0-7.09-1.27-11.58-9.64-9.83C893.79,169.57,890.79,173.38,890.91,180.77Zm-.06,275.16c-1.26,16.17,20.92,10.81,20.38-2.83-.56-4.74-1.48-10.18-7.56-9.94C896.21,443.45,890.83,447.11,890.85,455.93Zm2,528.82C908,985.34,907.6,957,891,961.08,874.82,957.68,880.17,985.87,892.88,984.75Zm-4,184.14c-18.77-2.31-16.21,28.58,4,26,8.72-.24,9.77-7.93,10.06-14.38C903.3,1171.05,896.25,1169.36,888.85,1168.89Zm.94-420.34c4.33,0,11.53-1.68,9.28-10.16-1.38-4.94,1.47-13.1-7.5-13.23-6.89-.11-14.45,2.31-14.2,10.86C877.56,742.78,882.71,748.62,889.79,748.55Zm1-653.51c6.63-.36,8.93-4.33,8.16-11.24C901.9,73,890.59,72.64,885.84,72,878.54,71.64,872.76,98,890.79,95ZM878.27,1220.67c-11.73-1.29-14,27.26,4.41,26.19C897.4,1247,897.41,1219,878.27,1220.67Zm1.51-609.16c-14.08-2.08-17.51,23.86-3.78,25.92,11.35,1.26,15-6.19,15.07-17.08C893.16,611.35,884.25,612,879.78,611.51Zm-4.25,947.24c-8.47.22-9.61,7.12-10.47,13.46-1.24,9.15,3.68,14.5,12.54,14.66C892.9,1587.13,891.11,1558.3,875.53,1558.75Zm-4.86-494.19c6-.33,16.49.35,15.84-10.35-.43-6.9-4.74-12.8-14.07-13.46-4.5,1.37-9.72,2.47-9.6,10C863,1057.13,862.14,1065,870.67,1064.56Zm1.86-919.86c5.1.16,12.07-.58,10.54-8.72.08-6.21-.52-12.37-7.31-12.77C858.81,120,858.44,143.61,872.53,144.7Zm4.16,732.39c1.72-16-25-15.05-23.28,1.2.1,7.37,3,15.36,10.08,12.63C875.27,889.07,876.11,883.64,876.69,877.09ZM776.27,808c-9.64-1.31-20.72,5.82-30.75,10-14.44,6.07-5.27,18.59-5.12,27.29.29,16,.67,32.07.74,48.12.05,9.2,8.91,12.74,12.2,20.07,9.54,21.27,13.78,54.34-4.74,74.73-14.44,15.23-46.93,7.33-46.57-16.35-.25-27.74,14-49.89,27.69-72.28,3.09-5.05-1.42-11.09-.29-15.53,4.12-16.22-8.12-18.23-17.76-22.79-19.16-9.25-31-18.85-53.2-12.23-16.76,1.07-31.31-3.83-44-15.38-5.44-4.94-12.09-8.84-13.37-16.43-4-42,61.84-15.66,71.81,5.52,11.3,22.93,35,24.2,52.92,35.38,2.6,1.63,3.24.57,3.11-1.89-.32-20.33-3.14-41.31-3.69-61.37C728.15,780,718.69,775.56,708,771c-9.09-3.85-18.5-7.52-26.53-13.07-5.1-3.53-7,1.23-10.51,1.29-76.05,1.5-100.33-71.71-42.77-59.87,22.58,6.33,39.8,20.48,49.66,42.1,6.07,13.34,21,11.6,30.16,19.39,8.89,3.34,16.89,10.76,15-4.34-2.8-24.35-5-48.78-8.34-73-.93-6.76-9.49-8-14.38-11.71-6.63-5-16.88-5.67-22.74-11.2-10.13-9.55-21.6-2.43-31.91-5.5-22.12-6.57-42.49-16-52.13-38.73-3.22-7.6-4.74-17.51,3.47-23.83,9.95-7.67,20.32-3,30.25,1.16,22.12,9.15,32.57,28,42.18,48.45,8.1,13.95,29.29,13.37,41.46,23.45.18-24.2-8.26-47.79-10.07-72a171.21,171.21,0,0,0-8.26-33.68c-1.43-3.86-7.89-6.49-12.58-8.37a83.86,83.86,0,0,1-21.58-12.4c-5.69-4.58-10.58-1.22-16.29-.38-22.83,1.11-48-10.51-61.86-29.22-11.49-16.21,3-41.6,23.47-32.74,23,10.26,38,27.64,50.41,49.22,6.2,9,23.61,12.63,34.4,18.23,1.88-23.33-8.63-45.68-13.6-68.2-9.5-32.95-18.72-66-29.76-98.46-4.06-11.08-12.31-20.49-14.4-33-6.19-26.08,16.33-75.16,40.14-85.87,18.76-7.53,18.88-24.42,27.41-38.24-17.54-24.85-45.82-44.9-65.37-69-22.39,44.64,14.57,33.58-6.79,90.19C620.26,258.5,586,306.82,571,276c-7.55-35.12,10-75.72,40.19-95.17,7.6-5.88,6.13-18.83,12.4-26.36,6.77-15.39-10.41-19.8-18.15-27.23C565.05,89.33,519.85,56,489.62,8.72c-1-1.34-.15-4-.16-6.06,13.12.38,18.45,14.48,25.23,23.25C535.05,53.63,562,74.55,586.93,97.74c3.8,3.64,8.37,1.46,10.82-.07,8.9-5.55,19-7.35,28.61-10.54,2.39-.79,2-1.54,2.16-3.42,7.78-40.25,80.44-38.39,107.16-18,17.92,9.88,15.54,23.53-2.23,31.16-32.35,16.36-64.61,16.47-98.09,1.66-11.07-5.06-24.27,4.15-35.38,8.83,15,13.58,30.32,27.35,45.47,41.3,2.56,2.35,4.74,2.43,7.92,1.61,21-6.33,42.66-8.61,64.22-11.59,4.7-.91,4-7.47,7.56-11,30.69-36.42,143.56,7.8,95,37.78-31.7,16.27-67.89,3.5-95.31-15.1-3-2.31-8.93-1.9-13.24-1.17-18.07,3.63-36.88,5.72-54.43,11,20.19,21.38,41.9,42,61.54,64.2a8,8,0,0,0,5.5,2.56c8.44,1,16.92-1,25.45,1.62,5.7,1.72,10.67-1,16.2-4.85,31-21.18,71.89-3.23,95.87,21,4.68,5,11,11.06,8.57,17.79-19,36.52-89.92,2-109.53-21.05-5.68-5.33-13.93-3.19-20.59-3.29-6.37-.09-5.84,1.57.09,8.85,12.83,15.77,25.17,31.95,37.43,48.17,4.77,6.32,12.21,2.08,17.79,5.54,12,7.43,18.89-5.85,28.7-8C857.75,285.68,895,304,906,337c1.95,5.17-6.41,12.15-15.22,14.18-34.21,7.9-57.1-8.94-77-33.69-6.07-6.63-15.26-1.93-26.6-9.22,8.78,15.41,14.43,32.11,25.73,42.89,8.21,7.83,21.46,10.68,29.14,21.59,11.48,16.28,20.75,32.63,21.79,53.48,1,14.3.88,49.78-21.94,38.13-30.9-16.85-45.3-51.57-36.7-85.32,3-22.34-14.91-37-22.81-55.32-8.34,12.17,3.27,24.73,4,37.24.71,16.69-1.12,32.85-9.81,48-5.91,8.64-29.87,42.87-35.24,18.44-11.75-30.6-16.37-75.32,24.9-84.69,8.6-1.57,4.18-10.75,7-16,7.26-22-12.43-33.09-22.44-47.29-12.25-17.37-27.69-32.49-41.72-48.61-3.05-4.23-5.82-5.62-7.46.28-2.63,7.78-5.21,15.63-8.68,23.05-3.85,8.2,3.19,13.51,4.69,20.18,4.56,20.29-.67,38.46-9.92,55.74C679.77,345,671,359.34,655.17,368c-5.08,2.77-5.38,5.79-4.15,8.8,13,25.26,18.24,53.92,28.14,80.64,7.11,24.17,15.24,49.58,19.7,74.15,21.51-5.93,28.1-26.4,40-41.7,14-18.56,46.64-36,65.31-16.13,3.88,4.73,4.79,11.22,2.24,19.39C799.75,514.37,781.64,517,765.22,523c-11.34,4.12-23.88-.11-34.89,3-10.4,2.93-20.62,9.29-28.54,16.7-2.65,2.47,2.09,12.8,3.38,19.55,2.66,14,5.58,27.9,7.73,41.94.84,5.44,4.46,10.49,2,17.68,11.18-10.09,26.48-10.06,36-20.36,14.24-18,55.72-53.54,74-24.4,7.7,35.45-43.21,48-70.24,40.8-14.72-2.56-25.06,6.31-36.68,11.81-1.1.51.56,7.1,1.14,10.84,4,21.84,5.65,44.83,11,66.14,11.54-4.82,24.94-7.5,34-15.25,20.3-20.85,47.48-42.7,76.5-23.6,16.92,12,8.12,36.39-10.24,41.11-22,8.5-42.83,3.39-64-4.74-4.88-1.88-12.6,3.27-18.9,5.52-6.11,3.69-18.5,4.38-16.7,13.83,2.18,22.45,4.52,44.89,6,67.39.38,5.75,4.11,11.39.9,17.47-1,1.85.28,2.34,2.43,1.64,11.59-3.84,24.25-5.76,34.56-11.74,6.35-3.68,9.56-13.22,16.3-18.16,19.47-14.28,52.17-24.85,70.57,4.9,9.78,12.86-3.55,25.48-16.64,28.09C821.32,819.42,799.15,811.07,776.27,808ZM775,697.05c16.63,7,33.65,11.24,51.09,3.63,8.37-3.65,18.58-7.51,11.17-20.49-4.89-8.57-13.93-6.84-20.21-9.41-19.25,1.1-31.63,12-43.19,24.26C772.19,696.77,774,696.63,775,697.05Zm-19.81-89.18,16.78,1.65c0-.2,0-.39.05-.58,16.7,2.06,40.22-5.47,44-22.76,1.54-8-3.73-11.16-10.72-10.66C784.46,577.34,767.24,592,755.15,607.87ZM733.79,517c23,.62,60.73-4.62,64.47-33.45-17.94-25.56-56.38,10.91-65,29.94C733.09,513.71,727.81,516.66,733.79,517ZM762.21,367.9c1.32-4.4,5.38-9.8,2.08-13.21-2.55-2.64-6.56,2.81-9.82,4.64-2.46,1.37-3.7,4.75-5.79,6.94-8.15,8.53-8.61,38.59-.62,47.33C752.85,398.19,757.64,383.08,762.21,367.9Zm13.44-13.23c-7.17,23.55-13.39,46.2-24.83,70.42C770.33,410.14,781.92,375.27,775.65,354.67Zm42.22,11.27c15.78,24.88,27,52.37,36.36,80.26C861.58,416.56,836.78,372.14,817.87,365.94Zm31.89,92.85L814.41,382.9C808.37,417.46,821.16,442.39,849.76,458.79Zm39.73-117c-7-6.23-17.32-7.65-25.65-11.88a124.4,124.4,0,0,0-33.55-9.07C846.56,338.72,866.16,349.24,889.49,341.82Zm-69.84-36.11c23.3,11.56,51.15,11.91,72.59,29.08,1.07.78,3,.38,4.54.54C881.21,308.84,850.8,293.56,819.65,305.71Zm39.2-42.57c-28.14-9.77-52.78-17.2-84-20.71C796.38,257.75,835.83,278.6,858.85,263.14Zm-86.29-32.6c30.8,6.3,60,13.51,87.94,25.34C851.75,235.09,801.73,220.18,772.56,230.54Zm50.55-77.29c-28.57-4.84-56.45-6.44-88.49-6.12C765.72,159.47,792.92,171.82,823.11,153.25Zm-97.28-14.17c34.44-1.09,67.12.4,99.8,9.59C799.45,121.24,756.34,112.68,725.83,139.08Zm8.42-53.28c-28.48-3.17-57.38-.15-86,8.22C672.4,102.05,713.9,101.9,734.25,85.8Zm-102.51.64c34.42-7.77,66-17.27,103-10.1C695.94,53.4,663.84,57.56,631.74,86.44ZM604.05,202a9.52,9.52,0,0,0-.07-2.81c-19.74,18.37-27.41,48.11-22,75.67C590.34,250.83,596.6,226.24,604.05,202Zm16.15-13.91c-12.21,26.51-16.33,54.19-25,80.47C618.71,246.87,626.26,220.22,620.2,188.06Zm49,125.59c-5.69,14.09-10.89,28.45-15.75,42.86,25.24-16.54,41.39-52.85,34-84.33-1.33,1.05-3.51,1.86-3.87,3.18C680,288.58,674.44,301,669.2,313.65ZM653.55,328c7.52-21.61,19.36-42.61,25.09-64.4-27.44,21.63-44.79,57.64-34.52,92.38C647.15,346.9,649.9,337.28,653.55,328Zm-9.38,199.17c-12.25-15.67-23.41-32.25-42.73-40.87-5.92-2.65-8.65-.84-11.91,2.74-14.63,24.41,33.92,38.56,50.76,42.25C642.2,530.52,646.12,530.39,644.17,527.19Zm10.89,107.35c-8.54-20.08-24.18-30.84-42.81-35.42-7.15-.38-11.72,2-10.8,7a39.15,39.15,0,0,0,11.17,21.66c8.67,8.5,19,13.08,29.91,17.3C655.22,652.33,662.57,648.91,655.06,634.54Zm13.76,109.05c-10.68-17-39-45.23-60.31-33.11-3.17,2.31-1.93,6.89,0,10.47,12.2,22.48,34.93,25.09,56.64,30.53C671.75,750.53,671.65,748.72,668.82,743.59ZM674.37,839c-10.17-18.44-27.88-27.46-46.66-33.57-5-1.87-12.4-2.36-16.18,3.78-2.34,3.82-.45,8.5,2.33,11.63C628.59,838.3,652.4,845,674.37,839Zm62.4,68.76c-5-.24-5.8,7.83-7.92,12.58-10.14,13.93-14.39,30.51-18.17,46.84,1.61,4.9.63,10.72,5.26,13.67,17.33,12.52,33.77-3.34,34.91-21.35C753.66,948.17,749.29,910.8,736.77,907.77Zm84.79-100.46c7.76-.82,36.89-2.43,32.5-14.59-2.81-9.19-11-15.43-21.7-16.74-17.65-2.17-30.4,7.58-42.54,18-.55.48-9,5.41-3.47,7.21C797.53,804.9,809.72,805.46,821.56,807.31ZM852.88,48.6c7.82-.1,8.42-7.31,8.16-14,.8-9.46-6.47-11.07-13-10.44-8.89.86-9.73,8.32-9.11,15.71C839.7,48.77,847.76,48.66,852.88,48.6Zm-4.27,895.3c-.05-5.49-4.12-9.95-6.13-10.36-14.43-.94-19.49,4.32-18.63,14.12C825.74,962.28,850.38,963.91,848.61,943.9Zm-9.43,234.95c-16.53-.58-14.45,26.58,2.05,24.27,9.61-.14,7.7-8.1,7.32-12.64C848.11,1185.3,846.34,1178.45,839.18,1178.85ZM830,1002.67c-11.11-.38-10.33,7.14-11,13.87-.5,5,.22,11,6.86,10.22s15-1.71,13.17-11.61C839.19,1008.08,839.09,1003,830,1002.67Zm-4.51,379.11c-4.92.24-12.87,2.38-13,12.51-.16,11.57,6.42,12.16,17.35,13.21C839.54,1410.06,843.91,1380.79,825.53,1381.78ZM817.86,92.93c11.6,2.18,7.89-7.38,9-12.57S825.39,71,819.54,71C804.81,69.66,801.52,96.71,817.86,92.93Zm3.29,1216.2c-.48-3.32.05-10.64-7-9.73-6,.76-15.44-3-17.25,8.29C793,1327.91,823.57,1332,821.15,1309.13Zm-14.22-153.45c8-.36,10.27-6.33,10.27-13.24,0-11.73-10-12.31-17.34-12.93-6.14-.52-7.92,6.06-6.88,12C791.18,1152.57,797.6,1156.09,806.93,1155.68Zm-9.5,89c18.22.71,21.39-24.51,3.74-27.41-11-.65-14.68,7-14.17,17.66C784.9,1243.4,792,1245,797.43,1244.7Zm-.76,285.35c-11.5-.52-7.54,10.08-9.1,15.22-1.44,4.78,4.21,10.1,9.89,10.67C813.45,1557.52,817.49,1528.52,796.67,1530.05ZM780.06,35.43c5.31.63,6.48-5,7-11.35.84-9.89-7.21-8.5-12.52-9.06C759,13.31,761.9,36.7,780.06,35.43Zm-34.47,1434.8c-7.65-.41-12.47,2.57-10.47,11.26-1.62,8.39,2.14,12.7,10.29,12.54,9-.17,11.08-6.33,11.77-14.11C758,1470.56,751.53,1470.56,745.59,1470.23ZM729.46,1360.6c-.13,5.19,0,13.4,7.06,12.72,10.72-.19,15.07-5.61,15.59-12.36C754.51,1344.66,728.15,1344.72,729.46,1360.6Zm4.24,202.88c-11.71-1.4-11.28,8.32-11.21,16,.1,10.22,8.41,13,15.85,12.24,11.2-1.13,8.72-10.39,7.53-17.67C747.46,1563.84,738.42,1564,733.7,1563.48ZM573.53,1291.09c-21.68,2.39-43.4,4.53-65,7.68-13.55,2-19.29-7.78-25.85-15.71C380.27,1148.73,312.1,990.82,273.06,827c-4-25.05-26.78-1.42-59.33-11.64-7.65-1.95-12.34,4.13-18.5,6.17-5,2.58-26.23,6.8-26.11,11.86-.61,34.49-2.08,69-2,103.49,0,.93-.46,3.89,1.49,2.38,8.26-6.4,19.91-9.07,26.16-15.73,6.62-7.05,13-14.8,20.26-21.49,15.93-17,55.62-25.41,62,4.25,3.81,31-58.94,34.45-79.71,27.34-3.08-.87-7.76,3.38-11.51,5.57-8,4.64-20.24,5.46-18.22,19.38,3.57,24.51-1.24,49.39,3.3,73.86,1.72,5.49-3.72,9.76-1.33,15.25,12-4.54,23.64-10.08,35.52-14.94,7.82-3.19,9.28-11.45,13.4-17.31,15.95-24.24,52-50.84,74.62-19.25,20.23,37.86-52.77,48.31-77,43.25-12.68-2.33-21.07,10.07-32.66,12.48-19.41,4-12,17.51-10.79,29.15,1.8,19.2,3.09,38.47,4.4,57.71.14,3.23,2.3,2.48,3.81,1.84,17.29-7.34,34.32-15.35,51.87-22,11.79-4.51,11.79-17.26,19.75-24.77,16.29-19.6,66.62-28.46,69.53,6.47-4.07,30-59.15,29.27-82.06,24.84a13.94,13.94,0,0,0-8.05.81c-16,8.66-33,15.39-49.44,23.21-3.53,1.56-3.79,4.29-3.35,7.31,3.28,22.88,6,45.88,10.34,68.56,1.66,8.55-.25,18.22,6.61,25,17.86-10.15,36.62-20.37,54.79-31.54,3.78-2.32,6.12-7.92,7.86-12.49,8.64-22.67,37.52-38.47,62.34-34.79,25.89,4.44,32.3,31,5.83,42.31-28.82,16.81-64.81-.3-90.32,22.69-11,8.1-23.33,14.26-35.11,21.21-4.39,2.6-2.89,19.63,1.93,23.54,19.74,16,31.54,36.26,31.62,62.18-2.06,33.45-53.51,42.5-51.85,1.65-.34-19.35-1.08-38.5,7.12-57.4,4.17-9.62-1.86-19.69-14.27-22.19-15.6-3.14-28.23-13-42.65-18.79-30.36-2.47-55.7-10.08-71.76-38.32-3.86-7-2.07-16.63,5.77-22.49,21.91-13.13,59.87,29.93,67.71,49,4.5,9.22,16.57,9.78,25.22,14.19,6.58,3.35,14.07,5,20.48,8.54,6.92,3.87,4.28-2.06,4-3.7-3.64-25.18-10.44-50.66-13-75.84.5-21.64-20.41-19.23-30.54-28.66-14.37-13.37-35.15-7-50.93-16.26-17.06-10-41-30.92-37.41-56.8,7.33-30.09,67.68,27.71,70.61,43.26,8.64,20.19,30.09,20.22,42.86,33,1.68,1.68,1.88-.23,1.72-1.76-3.19-31.66-7.23-63.13-8.49-95-1.38-13.22-13.11-12.33-19.46-18.42-17.56-12.94-25-11.27-44.67-13.65C84.12,1021,57.31,1001,55.05,989.49c-3.91-16.7,15.64-20.18,27.21-14.27,18.63,6.48,29.19,21.5,39.39,37.2,7.39,11.36,21.53,14.2,31.51,22.47,1.73,1.43,4.47,3.73,5.75,3.2,3.54-1.46-.11-4.11-.14-6.3-.41-27.68-.69-55.38-2.12-83-.43-8.31-11.09-8.8-15.73-14.24-28-27.37-68.68-10.34-89.86-61.07-4.51-12.83,11.64-21.26,21.77-16.15,23.19,6.84,41.54,21.33,50.63,43.36,6.36,15.42,21.13,18.42,30.73,28.45,3.78,4,2.68-.47,2.69-1.86.46-30.6-1.09-61.72,2.5-92.07,2.42-16.66-8.75-21.75-18.09-30.55-14.15-13.33-33.07-7.84-48.53-15.39-18.12-8.84-44-28.27-42-47.67,15.89-45.59,74.8,13.41,80.14,40,5,13,18.22,15.35,26.44,23.93,1.17,1.22,4.67-7.58,3.32-12.65-2.32-8.75.5-17.22.6-25.78.18-15.48.68-31.31,4.11-46.3,3.55-15.52-10.43-17.37-16-25.61-13.92-12.89-15.51-15.9-35.86-17.34-16.4-1.23-43.2-22.49-48.66-37.9-8.63-21.32,6.63-33.64,27.66-27.45,23.58,3.37,43,34.89,44.3,54.69.3,4.55,1.37,7.18,5.26,10,8.69,6.41,15.75,15,24.37,21.57,1.86-26.33,8.28-52,9-78.55.4-14.07,4.27-28.13,7.33-42s-10-15.82-15.89-23.1c-11.55-14.39-31.66-9.24-45.15-19.87-12.28-9.69-23.69-20.07-26.12-36-1.43-9.42,4.83-17,13.26-21.64C118.82,472,126.08,478,133,484c26.52,26.52,14.8,49.57,52.17,74.07,1.72,1.56,1.63-1.26,1.74-2.29,3-26.5,11.25-51.72,19.56-76.79,6.38-19.27,2.78-37.9.75-57-3.27-34.64-3.09-69.54-4.26-104.3-.13-4.21.21-7.28,5.69-6.84,40.34,4.6,80.71,3.41,121,6.41,41.58.28,83.27,7.86,124.89,5.36,15.3-1.21,13.18,8.16,13.23,17.66-.08,36.78,3.75,73.29,5.74,110,6,122.71,30.94,243.44,60.76,362.34C570.08,972.45,656,1114.13,740.65,1252c20.4,28-27.22,23.65-43.31,26.76C655.77,1280.07,614.93,1288,573.53,1291.09ZM150.08,532.86c-2.93-18.28-15.94-37.71-30.58-47.77-28.22,7.39,3.56,48.89,21.86,49.21C143.18,534.49,151.17,542.94,150.08,532.86ZM124.76,656.28c-5.57-18.7-26.89-37.09-42.19-36.58-9,.3-13.12,8.44-9.15,17.1,8.71,18.94,25.07,28.11,43.78,33.56C130.19,679.3,128.8,665.88,124.76,656.28Zm-.39,130.49c-7-17.19-40.25-64.12-61.52-48.67-4.47,4.31-3.46,9.6-.79,14,13.71,22.35,34.56,33.42,57.23,36.76C125.11,789.13,125.41,788.93,124.37,786.77Zm-7.6,121.81c-3.64-16.48-34.83-42.38-52.61-42.78-3.8,1.05-3.77,6.1-2.15,9.06,10.09,17.73,25.92,28,45,33.77C109.56,908.88,117.49,913.87,116.77,908.58Zm-2,109.66c-9.74-15.63-29-42-50.06-34.39.27,2.34,0,3.75.6,4.59C76.36,1005.92,94.53,1015.7,114.79,1018.24Zm.28,104.28c-11.73-19.64-28.5-34.1-47.94-45.67-4.27-2.54-4.36,2.18-6,3.5-.9,16.72,29.32,48.14,48.33,50.47C120.07,1136.13,120.58,1131.78,115.07,1122.52Zm9.61,111c-5.27-11.64-39.88-50-52.79-38.63-4.46,4.73-1.61,10.4,1,14,11.71,16,28.6,23.86,46.43,28C125.69,1237,126.35,1236.5,124.68,1233.54Zm136.69-21.32c16.73,2.34,64.84,1.2,71.57-16.72C322.43,1160.26,271.08,1188.48,261.37,1212.22Zm-66.19,87.62c-3.45,13.12-10.94,68.08,12.63,62.48,34.12-10.79,11.62-57.43-8.33-72.92C198,1292.87,196.14,1296.24,195.18,1299.84Zm52-183.71c7.11,4.71,14.51.88,22,1a59.71,59.71,0,0,0,33.94-6.45C335.94,1095.85,276.67,1058.89,247.19,1116.13Zm-29.36-87.47c2.56,4.27,10,2.1,15.3,2.24,13.92.87,27-3.42,39.34-8.56,24.54-7.1,11-35-10.09-30.65-15.31,3.76-27.87,13.6-36.58,27.18C223.34,1022.7,215.39,1024.59,217.83,1028.66ZM204,924.54c1.39,4.3,6.9,2,10.7,2.36,14.05.8,28-.76,41-6.18,6-2.38,14.2-4.86,11.12-14.28s-10.85-7.55-18.65-7.75C236,896.72,207,914.62,204,924.54ZM177.19,703.1c17-10.68,33.55-21,50-31.5,2.79-1.78,8.53-.58,7.52-6.59-12.61-59.39-13-120.17-21.6-180.12C190.84,555,184.22,629.62,177.19,703.1Zm79.31,63c-9.85-23.11-11.14-49.87-17.56-74.3-1.83-8.84-1.8-17.18-14.76-7a164.92,164.92,0,0,1-40.06,23.14c-14.54,5.84-9.57,20.79-10.35,31-2.05,27.08-.7,54.43-.7,80.47,8.07-5,24.08-6.89,29.23-14.13C216.18,785.48,235.23,774.62,256.5,766.08Zm6.22,27.23c-.57-1,.1-3-.61-3.6-4.34-3.48,3.48-19.35-10.2-12.05-12.28,6.55-22.57,16.81-33.68,25.5-6,6.51,15.74,1.93,20,6.25C246.19,802.29,273.37,813.82,262.72,793.31ZM520,1284.69c44.75-7,90-9.27,134.87-15,19.15-1.68,38.39-2.31,57.51-4.22,6.66-.66,14.66,2.28,19.65-2.57-54.48-92.82-117.68-188.24-159.2-290.08C515.9,837.66,491.63,691.2,469.26,547c-6-68.64-11.18-137.87-11.86-206.75.09-1.55,3.07-6.67-2.5-7.13-80.76-6.78-162.45-3.56-243-10-1.52,0-2.92-.23-2.68,2.28,7.65,82.26,14.64,164.58,25.49,246.47,7.68,102.45,34.55,201.07,62.2,299.5A1210.58,1210.58,0,0,0,447.23,1213c13.53,19.54,28.82,38.14,40.42,58.59C496.4,1287,507.21,1286.7,520,1284.69Zm170.68,220.49c-7,0-15.08,1.55-15.07,10.4,0,7.05,1.93,16.71,11.42,16.11,8.41-.54,16.94-4.91,13-14.53C699,1509.31,696.08,1505.21,690.64,1505.18Zm-36.82-68.74c-17.83-.83-12.71,26.48,1.76,26,6.37.33,12.92-4.86,11.44-13.34C668.11,1438.5,662,1436.11,653.82,1436.44ZM622.77,1533c-16-.51-14.36,25.15.92,24.14,10.36.21,12.73-6.63,12.17-14.78C635.34,1534.74,629,1533.35,622.77,1533Zm-2-162.67c6.73.36,6.2-8.09,6.32-13.76.21-10.32-7.95-10.51-14.39-10.16-5.59.31-8.64,5.18-7.77,11.37C603.57,1370.06,614.66,1370,620.73,1370.32ZM602,1474c-9.87-.5-7.78,7.28-9.13,11.55-.1,6.48.53,11.87,7.39,11.32,6.15-.49,12.45-1.71,12.88-10.44C613.58,1478.16,610.08,1474.42,602,1474Zm-29.58,89c-10-.12-9.56,8.58-10.22,14.47-.88,7.87,2.85,13.46,12,11.47,7.58.91,12.66-.48,12.94-9.53C587.52,1568.77,583.14,1563.11,572.46,1563ZM546,1425.35c-13.5-.15-17.5,26.41.64,25.73,3.34-2.52,12.22,1,11.92-7.5C558.28,1435.53,558.4,1424.82,546,1425.35Zm-15.73,93.59c-8.07-.74-12.84,2.44-13.08,10-.21,6.38.42,13.71,9.13,14,6.74.2,14-2.56,14.32-10.13C540.89,1526.54,541.09,1517.18,530.27,1518.94Zm-.7-139.92c6.83-.27,9.32-5.08,11.49-10-.9-15.25-25.19-20.31-24-3C517.71,1373.41,520.66,1379.38,529.57,1379Zm-41,94.14c-14.41-1.34-12.86,25.66,1.89,24,12.15.94,10.82-8.9,11.07-15.33C501.88,1474.15,494,1473.77,488.62,1473.16Zm-11.89,96.38c-13-1.07-13.89,25.32,2.76,25.22C496.67,1594.54,497,1568.53,476.73,1569.54Zm1.65-134.69c-1.56-11.48-26.49-12.15-23.76,6.55.33,7.81,6.79,7.65,13.91,7.74C479,1450.8,479,1442.1,478.38,1434.85ZM428.91,1493c-18.4.31-15.58,27.94,3.76,25.77,6.93,0,8.7-5.84,8.38-12.06C441.49,1498.16,438.24,1492.66,428.91,1493ZM425,1555.27c-13.86-1-13.5,24.57,1.84,21.74,10.88,1.52,7.93-7.49,8.69-12.64C436.61,1557.1,430.16,1555.13,425,1555.27Zm-59.8,9.63c-9.9-.53-15,3.72-14.28,13.94-1.09,8.07,5.16,11,10.56,10.91,11-.19,12.71-7.88,11.8-17.57C372.74,1566.28,370,1565.17,365.22,1564.9Zm-2.53-95.63c-.85-5.1-9.06-5.86-14.17-6-7-.23-12.71,4.37-12.3,11.59.48,8.56,4.37,15.72,12,14.59C366.43,1489,364.05,1477.46,362.69,1469.27ZM151,225.33c3.46-6.72,7.82-13,12.69-21-32.36,5.31-25.61,7.52-43.34,30.32-13.66,12.24-43.93,16.4-61.9,14.47-7.26-.72-17.75-1.18-19.07-7-3.3-32.73,41-48.65,67.59-48.22,26.37,1.24,23.74,13.4,53.59,1.83,18-3.83,21.27-21.69,29.82-34.09,16.73-24.5,33.44-47.84,53-70.4-11.2,1.38-21.72,3.51-32.27,3.72-20.92,3.16-11.27,31.06-60.74,32.43-15,.57-28.63-4.12-42.32-8.7-7.89-2.64-5.82-18.28,4.36-28.49,23-24.77,61.38-27.64,88-6.88,6,4.34,12.07,2.66,18.58,1.76,10.32-1.42,20.81-1.4,31.15-2.72,6.55-.83,9.29-7.41,13.16-11.64,13.12-14.35,27.89-26.81,42.33-39.7,6.31-5.63,13.43-10.46,19.67-16.17A51.88,51.88,0,0,0,337.06,0c.65-2.19,5.05-4.36,5.74-.78-.48,12.31,7.35,21.62,12.19,32,7,15,13.87,30.05,20.18,45.33,1.6,3.88,4.26,4.75,7.1,5,12.53,1.51,24.26,7.19,36.68,10.19,3,1,4.73,1,7.46-.66,13.41-8.11,28.63-6,42.34-3.55,18.16,1.23,69.36,31,52,52.24-22.88,11.84-50.06-.1-70.41-10.89-8.58-4.15-18.09-8.57-23.18-16.71-9.57-14.34-31.09-14.75-45.47-21.91,8.09,31.28,26.94,60.38,39.24,90.49,3.62,8.34,11.52,2.2,17.25,5.86,4.86,3.27,11.91,3.13,17.14,6,8,4.4,10.38-2.73,15.3-5.47,24.66-16,76.48,12.35,82.67,38.44,2.18,8.79-7.58,11.61-12.37,13-33.9,9.58-56.57-9.25-78.31-31.67-5.42-5.59-15.5-6.64-23.41-9.83-4-1.34-7.7-4.78-12-3.22,14.4,34.21,29.78,69.58,50.87,100.2,3.69,4.61,13.56,3.73,19.71,7,17.7,9.54,33.32-3.73,49.9-3.36,19.91.73,40.12,17,51.42,32.8,5.26,9,.78,19.61-9.26,22.48-30.61,8.77-56.32-8.2-74.6-29-6.12-6.95-18.76-14.62-29.64-14.74,8,14.58,15.22,29.32,23.92,43.16,4,6.31,13.7,4.41,19.53,9.76,17.56,15.19,37,59.22,23.84,80.42-2.57,3.55-6.19,3-9.47,1.93-20.76-6.47-30.73-23-38.55-41.57-4.24-10.09-10.61-20.33-7.63-31.34,6-22.23-12-34.81-19.31-51.44-28.44-57.6-59.65-112.62-84-172.5-3.19,7.88-5.6,15.14-9,21.9-5.49,20.59,17.49,15.29-.82,65.75-3.45,18-44.44,61.87-50.83,25.6-5.4-34.37,5.71-70.94,37.58-88.73,9.64-5.19,8.73-16.78,13.82-24.89,9.64-15.35-4.36-26.58-9-39.2-11-30.88-23.87-60.93-37.81-90.58-1.73-4-2.95-1-4.39.32Q305.7,43.43,277.9,69c-1.31,1.21-3,4.27-2.58,4.72,3.09,3.39,2.68,9.85,7.63,11.06,31.52,8,47.9,44,45.47,74-2.87,16.12-16.86,19.57-32.31,9.16-18.31-12.35-30.2-39.89-23.46-62.36,1.51-5,1.15-11.19-.16-16.37-1-3.88-2.44-11.18-9.87-3.25a528.3,528.3,0,0,0-54.38,68.29c-7.22,11.25-14.31,15.5-4.2,30.12,1.72,2.56,3.59,4.4,5.12,4.51,35,2.66,53.78,46,49.71,72.68-2,13.36-12.91,10.1-20.86,8-18.21-4.89-33.71-27.52-37.66-45.44-3-14.84,5.38-33.17-8.6-43.73-17.51,33-60.49,70.89-40.23,111,2.82,5.3,11.91,6.9,16.42,11.77,17.89,20.13,21.34,50.39,17.36,76.32-1.6,8.87-9.21,13.8-17,9.29-18.7-10.85-26.69-28.51-31.49-48.53-3.08-12.88-4.35-26.45,2.67-37.17,6.44-10.44-.5-18.82,1.13-28.4-.56-2.51-3.41-1.27-5.51,3.77-10.63,24.74-19.64,50.21-30.81,74.71-5.61,14.83,14,26,3.2,55.08-32.3,93.27-81.06,42-43.91-23.44,6.91-12.12,16.09-21.19,27.15-29.66,5.72-4.37,7.2-14.57,10.06-22.34A901.27,901.27,0,0,1,151,225.33ZM85.45,374.42c.35-.78-.33-2-.53-3.05-15,14.06-32.55,52-19.29,74.3C69.22,421.39,75.53,397.16,85.45,374.42Zm12.77-6.25c-8.3,27.1-19.29,52.93-25.25,82.06C92,425.09,108.07,400.81,98.22,368.17Zm60.94-43.34c5.55,15.83,7.4,35.28,19.14,47.8.48-24.33-3.64-52.34-23.43-69.14C154,311.22,157.17,317.93,159.16,324.83Zm-13.48-15c-6.41,13.82,2.37,45.53,18.06,60.86C157.42,349.34,151.49,329.36,145.68,309.79Zm69.93-108L250.15,257C253.77,237.81,230.46,198.61,215.61,201.75Zm-7.45,11.52c3.68,19.58,11,40.68,32.27,47.39-8.19-17.87-21.08-33.18-31.18-50.33C208.7,211.73,208,212.58,208.16,213.27ZM286.27,96.59l34,68C319.3,135.26,312.41,113.41,286.27,96.59Zm25.64,69.84a283.9,283.9,0,0,1-32.11-60.26C273.75,127.43,294.62,166.69,311.91,166.43Zm57.94,18C349.9,199.83,337,231,346,263.27,353.32,236.47,359.44,210,369.85,184.47Zm12,12.77c-.64-3-.56-8.16-2-8.66-3.5-1.17-2.91,3.73-4.32,5.75-1.75,2.51-1.51,6.34-2.44,9.51-3.88,13.34-8.21,26.56-11.6,40-.86,3.45-4.61,7.08-1.26,10.82C371.62,251.81,383.73,209.35,381.83,197.24ZM514.7,364.17c10.32,20.29,19.81,39.06,29.5,57.73.45.88,0,4.27,2.78,2.58,1.65-1,1.56-2.53.77-4.68C542.45,397.63,534.9,378.2,514.7,364.17ZM509,387.24c7.42,16.6,12.7,36.76,30.66,45.62-9.73-20.92-22.82-40.38-34.17-61.55C504.14,377.66,506.93,382.35,509,387.24Zm26.07-76.69c.39.77.6,2,1.19,2.24,16.7,6,33.44,11.91,50.17,17.83l.64-1.08c-1.89-1-4.3-1.5-5.58-3C569.87,313.17,552.6,304.65,535.11,310.55Zm-10,11.63c18.26,14.31,37.91,29.64,62.53,21.53C582,337.78,572.3,337.43,565,334l-39.24-13.68C525.54,320.91,525.33,321.54,525.12,322.18Zm14.19-92.25L481.53,210.8C498.36,224.34,515.17,237.85,539.31,229.93Zm-64.84-33.44c.3.86.85,2.06,1.57,2.29,22,6,43.4,15.75,64.6,22.82-10-17.09-31.12-23.56-48.14-28.85C486.91,194.23,477.26,193.37,474.47,196.49ZM439.86,98c24.37,7.82,47,15,69.93,24.3C492.36,102.26,467.24,92.73,439.86,98Zm-.35,10.73c20,15.15,43.56,26.69,69.05,25.61,1.41-.08,2.37.11,2.24-1.43a2.68,2.68,0,0,0-1.59-1.8c-7.34-2.54-14.69-5.07-22.1-7.43C471.26,118.66,455.38,113.73,439.51,108.75ZM190.79,99.93c-24.07-2.11-47,8.74-71.08,12.57C141.84,120.44,176.3,121.17,190.79,99.93Zm.09-11.8c-21.5-13.93-52.66-14.32-78.15,15.44C138.29,98.37,163.79,90.14,190.88,88.13Zm-66.59,127.4c-23.87,9.8-47.34,13.79-68.64,24.35C71.53,246.24,110.52,233.3,124.29,215.53Zm.92-9.64A68.39,68.39,0,0,0,49.73,230.4c1.57.09,3.42.77,4.66.17A325,325,0,0,1,125.21,205.89ZM308.53,1529c-14.06-2.92-11.66,21.76.31,21.79,7.12.41,11.91-4,12.28-11.78C321.75,1529.53,314.65,1529.7,308.53,1529Zm-44.86,38c-11.06-1.78-9.46,8.25-10.08,13.44-.6,5,1.76,11.68,9.3,12.86,10-2.61,13.36-9.88,13-19.13C275.55,1566.25,268.5,1567.81,263.67,1567Zm-1.34-61.11c16.82-1.24,7.28-28.11-4.64-25.91-4.43.08-12.4,1.49-11.29,9.1C247.69,1497.87,251,1506.78,262.33,1505.92Zm-1.44-70.9c.68-10.23-8-11.22-14.94-11.78-5.92-.49-7.39,6.38-6.57,10,1.29,5.64-2.25,14.82,8.44,16.27C256.28,1448.35,260.37,1442.67,260.89,1435Zm-42.41,91.76c.11-4.08-.27-12-7.64-11.59-7.53.44-14.32,3.49-14,10.85-.13,12.68,8.17,12.19,14.52,12.84C220.74,1539.84,218.36,1530.89,218.48,1526.78ZM203,1454.87c-1.11-8.28-7.82-9.88-14.43-9.76-7.06.13-7.4,6.62-7.4,11.43,0,8.42,7.68,7,11.91,8.77C200.86,1465.09,203.84,1461.27,203,1454.87Zm-14.75,113.54c-6.54.57-7.62,6.38-7.23,12.71-1.41,6.78,2.56,12,9,11.2C208.92,1592.91,206.52,1566.58,188.22,1568.41Zm-37.79-72.23c-8.08-.13-11.41,5-11,11.21.45,6.35,1,15,11.47,13.65,11.38,1.91,9.77-8.09,10.52-13.15C162.39,1501.65,158.62,1496.31,150.43,1496.18Zm-31.36,63c-6.7-.68-8.46,4.67-8.11,10.85-1.27,7.69,4.62,11.58,10.2,12.54C138.85,1584.12,134.52,1559.09,119.07,1559.2ZM93.82,1421.14c-7.31.93-8.13,8.63-8.36,13.2-.45,9.14,5.84,14.14,15.12,14.72,10.26.66,9.31-8.75,9.82-13.6C111.56,1424.54,104.26,1419.81,93.82,1421.14Zm6.86-100.88c-.88-12.74-23-14.08-21.85.09C78,1337.81,104.14,1337.07,100.68,1320.26Zm-27.31,177c-12.72-.83-14.4,23.4-1.28,23.29C90.42,1522.36,93.3,1496.54,73.37,1497.28ZM31.71,1561c-15.85-2.8-12.39,23.73.46,23.6C48,1585.94,49.56,1558.93,31.71,1561Zm3.48-162c5.64.2,9.08-2.34,8.08-7.2-.29-7.91-1.41-14.25-9.23-14.66C18,1375.69,18.92,1401.17,35.19,1399Z"/></g></g><g id="Red_Japanese_Frames" data-name="Red Japanese Frames"><path class="cls-7" d="M0,20V1580a20,20,0,0,0,20,20H956a20,20,0,0,0,20-20V20A20,20,0,0,0,956,0H20A20,20,0,0,0,0,20ZM924,1548H52V52H924Z"/><path class="cls-8" d="M952.1,15.41,928.69,38.83A4,4,0,0,1,925.86,40H50.14a4,4,0,0,1-2.83-1.17L23.9,15.41A2,2,0,0,1,25.31,12H950.69A2,2,0,0,1,952.1,15.41ZM40,1549.86V50.14a4,4,0,0,0-1.17-2.83L15.41,23.9A2,2,0,0,0,12,25.31V1574.69a2,2,0,0,0,3.41,1.41l23.42-23.41A4,4,0,0,0,40,1549.86ZM936,50.14V1549.86a4,4,0,0,0,1.17,2.83l23.42,23.41a2,2,0,0,0,3.41-1.41V25.31a2,2,0,0,0-3.41-1.41L937.17,47.31A4,4,0,0,0,936,50.14ZM925.86,1560H50.14a4,4,0,0,0-2.83,1.17l-20,20a4,4,0,0,0,2.83,6.83H950.69a2,2,0,0,0,1.41-3.41l-23.41-23.42A4,4,0,0,0,925.86,1560Z"/></g></svg>