<svg id="Card" xmlns="http://www.w3.org/2000/svg" viewBox="0 0 1024 1680"><defs><style>.cls-1{fill:#f2f0ed;}.cls-2{fill:#8c1707;}.cls-3{fill:#16592d;}.cls-4{fill:#d82e21;}.cls-5{fill:#f79d31;}.cls-6{fill:#593831;}</style></defs><rect class="cls-1" x="14.5" y="14.5" width="995" height="1651"/><polygon class="cls-2" points="966 1619.17 966 60.83 1018 8.83 1018 1671.17 966 1619.17"/><polygon class="cls-2" points="60.83 58 8.83 6 1015.17 6 963.17 58 60.83 58"/><polygon class="cls-2" points="8.83 1674 60.83 1622 963.17 1622 1015.17 1674 8.83 1674"/><path class="cls-3" d="M857.05,1131.21c-16.82,0-41.53-8.29-49.43-19.4-10.59-14.88-22-28.79-31.84-40.43-1.06-1.26-2.22-2.94-1.79-4.68s2.11-2.46,3.23-2.93c15.78-6.56,18.74-14,18.54-24.78-.22-11.17-3.61-20.41-11.36-30.89-5.55-7.52-13.58-11.53-22.09-15.78-2-1-4.13-2.06-6.2-3.17l-1.17-.62,1.3-3.4,1.29.32a19.78,19.78,0,0,0,4.83.55,58.11,58.11,0,0,0,10.47-1.35,61.07,61.07,0,0,1,11.26-1.42c7.23,0,12.83,2.71,17.61,8.51,2.5,3,6.12,5.25,9.63,7.41,5.07,3.12,10.31,6.34,13.16,12.19a100,100,0,0,1,5,13.32c1.62,5,3.28,10.25,5.81,14.77,7.19,12.88,15.36,25.51,23.25,37.72l.25.37c2.19,3.41,4.39,6.81,6.57,10.22a3.5,3.5,0,0,0,3.16,1.65,7.14,7.14,0,0,0,2.24-.39c-.14-.23-.29-.47-.41-.64l-.16-.25q-2.85-4.45-5.74-8.87l-.22-.34c-6.22-9.57-12.66-19.46-18.44-29.53a213.17,213.17,0,0,1-9.65-19.87c-1.5-3.38-3-6.84-4.74-10.47l-2.88-6.17,5.76,3.63c3.45,2.17,6.78,4.16,9.72,5.91a159.63,159.63,0,0,1,17.31,11.31c14.84,11.64,31,21.85,46.68,31.73l7.65,4.84a5.32,5.32,0,0,0,1.8.86l0,0a3.93,3.93,0,0,0-.69-2.2c-5.38-4.34-11.22-8.75-18.94-14.33-7.89-5.7-15.75-11.29-24.07-17.21,0,0-7.8-5.54-11.13-7.92l-3.78-2.7,4.55-.89a56.52,56.52,0,0,1,11-1.06c6.91,0,13.24,1.15,19.36,2.27l2.05.37c3.43.61,7,.9,10.52,1.17,8.34.66,17,1.34,24.82,6.34a5.52,5.52,0,0,0,2.76.73,2.55,2.55,0,0,0,2.68-1.47.59.59,0,0,0,.06-.25c-.1-.27-1-.75-2.56-1.42-.51-.21-1-.42-1.43-.63-11.75-5.75-24.81-7.15-37.43-8.5-5.54-.59-11.22-1.2-16.75-2.16a20.09,20.09,0,0,0-3.44-.27,63,63,0,0,0-7.61.65,66.8,66.8,0,0,1-7.75.66,16.12,16.12,0,0,1-7.6-1.57c-11.05-5.66-21.23-13.24-31.08-20.57-3.57-2.66-7.27-5.41-10.94-8a13,13,0,0,0-2-1c-2.14-1-5.69-2.58-4.67-6.47.62-2.42,3.95-2.88,9.34-3.41l1.11-.12c25.28-2.73,51-5.42,75.18-7.94,2.07-.21,4.3-.65,6.47-1.08a52,52,0,0,1,9.77-1.3,16.16,16.16,0,0,1,5.64.9l6,2.22c14.25,5.25,28.94,10.67,43.61,15.22l1.41.44v59.5l-1.31.48c-2.65,1-5.11,3-3.29,10.54,3.32,13.76,1.15,25.51-6.27,34-6.48,7.41-15.61,11.17-27.15,11.17a67.44,67.44,0,0,1-11.09-1,32.84,32.84,0,0,0-5.24-.5c-3.26,0-4.11.78-4.33,1.11-7.82,12.12-18.93,19.85-36,25a35.42,35.42,0,0,1-10.24,1.3Z"/><path class="cls-3" d="M959.4,985.07a218.5,218.5,0,0,1-29.55-11.41l-2-1,1.22-1.9c2.66-4.15,6.86-4.15,9.64-4.15h1a12.89,12.89,0,0,0,4.65-.59c4.29-1.7,8.93-3.39,15.05-5.48l2.65-.91v26.23Z"/><path class="cls-3" d="M920,960.81c7-10.64,16.38-19.61,25.5-28.28,2.92-2.78,6-5.65,8.84-8.54,1.25-1.24,2.61-2.54,4.27-4.08l3.36-3.13v38.57l-1.39.44c-11.12,3.58-24.43,7.33-38.8,8.11l-3.94.21Z"/><path class="cls-3" d="M804,975.06c3.26-4.77,6.36-9.37,9.37-13.83,6.92-10.26,13.45-19.94,20.35-29.32a66.17,66.17,0,0,0,3.73-6c3.55-6.11,7.57-13,16.08-14.67,19.36-3.71,38.26-11.6,61.29-25.57.21-.12.44-.25.7-.38a10.4,10.4,0,0,0,1.11-.66c-.82-1.06-1.39-1.45-2.08-1.45a4.09,4.09,0,0,0-1.7.49c-2.63,1.3-5.25,2.62-7.87,3.94-14.68,7.41-29.83,15.06-48.13,18.71L851,907.53l3.94-4.46c3.34-3.76,6.57-7.43,9.74-11,7.93-9,15.42-17.49,23.08-25.92,2.35-2.6,3-5.82,2.09-7l-.07-.07a16,16,0,0,0-1.13,1.59,11.85,11.85,0,0,1-1.37,1.88c-6.95,7.14-14.22,15-22.23,24-2.79,3.15-5.71,6.36-8.28,9.18-10.13,11.12-20.6,22.62-28.56,35.76a11.24,11.24,0,0,1-3.37,3.17c-.43.31-.92.65-1.32,1L821,937.86l-.66-3.29c-.1-.5-.31-1.16-.51-1.79-.68-2.17-1.32-4.2,0-5.62,1.91-2,1.57-4.35,1.18-7.06a20.51,20.51,0,0,1-.32-4c1.12-19.81,1.57-40,2-59.47l0-1.18c.11-4.75.21-9.49.33-14.24a4.32,4.32,0,0,0-.22-1.41,1.87,1.87,0,0,0-.19.5c-.4,1.75-.92,3.54-1.37,5.13-1.11,3.9-2.26,7.92-2,11.61.38,6.49-.52,12.86-1.39,19-.93,6.55-1.89,13.33-1.22,20.08a123.11,123.11,0,0,1-.08,18.82,129.38,129.38,0,0,0-.22,16.7c.05.69.1,1.37.16,2v.16c.56,6.8,1.14,13.84-4,20.3a67.17,67.17,0,0,0-5.68,8.25c-6.58,11.35-11.56,17.12-20.52,17.12h0a38,38,0,0,1-9.11-1.37l-4.11-1,3.41-2.51c18.76-13.83,23.12-24.82,16.1-40.54-6.48-14.52-21.15-23-43.59-25.34l-3.26-.33,1.78-2.75c.75-1.15,1.51-2.28,2.27-3.41l.09-.13c6.22-9.24,11.59-17.21,7.17-27.93-1.56-3.79-1.09-7.69,1.19-9.93,5.41-5.26,10.53-11,15.49-16.54,7.84-8.76,15.94-17.82,25.48-25.44C810,813.6,822,805.61,836.06,805.61a41.08,41.08,0,0,1,17.18,3.92,42.29,42.29,0,0,1,9,6.05c4.74,3.81,8.84,7.09,15.45,7.09a23.59,23.59,0,0,0,5.46-.69,25.5,25.5,0,0,1,5.89-.66c11.67,0,25.4,7.14,35,18.18,8.72,10.06,12.65,21.7,11.06,32.78-.31,2.14,0,5.13,1.17,6.49a1.76,1.76,0,0,0,1.39.65,5.87,5.87,0,0,0,2.8-1,165.84,165.84,0,0,1,18.71-9.61l2.81-1.24v45.85l-.75.6c-11.12,8.94-21.6,18.74-31.27,28a52.42,52.42,0,0,0-6.68,8.67c-3.93,5.9-8,12-15.19,13.74-12.62,3.07-25.73,4.6-38.41,6.07-5.25.61-10.66,1.25-15.92,2l-3.95.55,1.93-3.5c4.31-7.81,11.18-12.93,17.82-17.89,4.63-3.45,9.4-7,13.19-11.42,4.65-5.44,11-9.34,17.15-13.11,3-1.83,6-3.71,8.83-5.73,2.41-1.75,1.89-2.92,1.15-4a3.34,3.34,0,0,0-.24-.29c-.2.12-.56.39-.82.58l-.26.19c-4.3,3.1-8.72,6.17-13,9.14-16,11.14-32.56,22.65-45.49,37.52-8.41,9.67-18,10.38-28.18,11.14-5.13.37-10.43.77-15.64,2.43l-5.54,1.76Z"/><path class="cls-4" d="M760.13,444.07c-.74,0-1.49,0-2.24-.06-17.06-1-34.69-2.08-52.11-4.89-21-3.38-42.12-10-64.65-20.15-11.23-5.07-24-10.82-34.82-20.12l-.95-.81,1.74-3,1.17.41c11.28,4,23.27,4.47,34.86,4.94,2.32.1,4.63.19,6.93.31,3.21.17,6.52.26,9.84.26,16.19,0,33.49-1.93,56.1-6.24a126.33,126.33,0,0,0,12.88-3.47c3.45-1.05,7-2.15,10.46-2.95a30.17,30.17,0,0,1,6.8-.77c8.78,0,18.15,3.66,27.87,10.88,6.54,4.87,14,10.38,14.74,19.79A21.46,21.46,0,0,1,783,434.9C777.63,440.73,769.29,444.07,760.13,444.07Z"/><path class="cls-5" d="M725.05,981.57a84.56,84.56,0,0,1-13.17-1q-3.42-.55-6.87-1.08c-18.81-2.93-38.26-6-56.22-14.36a23.26,23.26,0,0,0-5.64-1.49c-1.24-.23-2.5-.46-3.74-.79h-.09a7.22,7.22,0,0,0-.9.1,10.06,10.06,0,0,1-1.5.14c-2.23,0-3.62-1.45-3.73-3.87,0-.6-.09-1.23-.17-1.89-.34-3.12-.82-7.39,3.66-9.86,28.39-15.65,56.59-29.92,89.45-32.72,3.69-.32,7.3-.48,10.73-.48,13.78,0,25.79,2.52,36.74,7.7,8.76,4.16,14.47,13,15.67,24.19l0,.16,0,.21c-2,17.3-16.07,24.69-24.29,27.56C750.68,979.05,737.25,981.57,725.05,981.57Z"/><path class="cls-4" d="M766.8,1060a83.36,83.36,0,0,1-12.07-1.2l-2.78-.4c-14.33-2-26.71-8.52-38.68-14.83l-.12-.06c-1.82-1-3.65-1.92-5.48-2.86-.67-.35-1.35-.68-2-1-5.83-2.84-13.08-6.37-9.06-18.25A25.37,25.37,0,0,0,693,997.57c-1-1.24-2.15-3.08-1.31-4.8s3-1.76,3.68-1.76a13.52,13.52,0,0,1,1.37.07c.94.09,1.9.13,2.87.13a28.3,28.3,0,0,0,11.07-2.14l.42-.19.46,0c26.6,1.12,50.11,3.61,68.42,22.88A38.82,38.82,0,0,1,790.09,1039c-.3,6.47-2.53,11.69-6.44,15.12C779.09,1058.11,773.73,1060,766.8,1060Z"/><path class="cls-3" d="M512,547.07c16.2-20.54,34.26-41.39,61-50.85,14.17-5,27.07-7.43,39.43-7.43A89.49,89.49,0,0,1,650.06,497a15.83,15.83,0,0,0,6.56,1.19c4.39,0,9.37-1.09,14.19-2.14,1.89-.42,3.65-.81,5.4-1.14a67.55,67.55,0,0,1,12.49-1.15c11.45,0,22.41,2.77,31.62,5.48,23.07,6.77,40.94,22.12,59.85,38.37l4.1,3.52H670.69l-.72-3.32,1.11-.5,11.09-5L683,532c10.59-4.74,19.69-8.83,28.75-13.22a12.63,12.63,0,0,1,2.83-.84c.85-.19,2.61-.58,2.88-1h0a3.07,3.07,0,0,0-.56-1.51c-.18-.32-.75-1.32-3.17-1.32a13,13,0,0,0-5.15,1.23c-6.05,2.88-12.1,6.11-18,9.23-10,5.36-20.4,10.89-31.19,14.93a37.65,37.65,0,0,1-13.41,2c-2.91,0-5.87-.17-8.74-.33s-5.7-.32-8.47-.32h-.53c-5.62,0-11.68.06-19.07.06H575.78l41.6-29.41a22.18,22.18,0,0,1,2.6-1.53c3.88-2.08,4.07-2.68,3.2-4.38-.61-1.2-1.1-1.2-1.31-1.2-1.16,0-2.93,1.38-4.09,2.3-.42.32-.79.61-1.11.84-4.31,3-8.72,6-13,8.89-11.66,7.89-23.66,16-34.5,25.34-4.08,3.52-9.1,4-13.93,4-1.16,0-2.34,0-3.51-.06s-2.3-.06-3.44-.06a31.94,31.94,0,0,0-5,.32c-6.33,1-12.67,1.91-18.92,2.84l-1.62.24-8.9,1.32-5,.75Z"/><path class="cls-3" d="M624.18,594.7c-18.39,0-37.58-4.84-58.67-14.81-8.77-4.14-17.61-8.52-27-13.15l-.12-.06c-4.7-2.33-9.6-4.75-14.82-7.31L518,556.63,528,555c10.06-1.71,19.55-3.32,28.69-3.32a57.59,57.59,0,0,1,26.55,5.94c11.95,5.93,24.95,10.4,37.52,14.71,4.32,1.49,8.79,3,13.16,4.6l.29.11a6.68,6.68,0,0,0,2,.51c.33,0,.82,0,1.32-1.27a2.39,2.39,0,0,0,.17-1.72c-.27-.52-1.08-.95-2.44-1.3-17-4.4-32.79-11.6-46-18.06a6.09,6.09,0,0,0-.9-.32,8,8,0,0,1-4.62-3.17l-2.24-3.16h3.87c2.21,0,4.43,0,6.64,0s4.4.06,6.59.06c3.14,0,5.73-.06,8.15-.18,4.88-.23,9.79-.62,14.54-1,7.21-.58,14.66-1.18,22-1.23h2.39c8.75,0,17.62.31,26.19.6,7.18.25,14.61.51,21.94.58,2,0,4,0,6,0a621.73,621.73,0,0,0,65.77-3.59,42.88,42.88,0,0,1,4.47-.21c1.56,0,3.14.06,4.66.12s2.73.1,4.09.11l2.2,0-.22,2.18c-.44,4.32-3.33,6.41-5.88,8.25a20.13,20.13,0,0,0-2.54,2c-20.36,20.25-41.89,30.52-64,30.52a74.43,74.43,0,0,1-10.39-.75,69.12,69.12,0,0,0-9.85-.69c-10.72,0-21.07,2.35-31.07,4.61a194.54,194.54,0,0,1-22.35,4.15,98.17,98.17,0,0,1-10.48.55Z"/><path class="cls-5" d="M652.3,395.2a237.29,237.29,0,0,1-36.14-2.58c-20-3.06-41.67-7.29-65.11-17.45l-1.09-.48.61-3.31,1.2-.05c8.5-.35,15.3-.92,21.3-1.42,2.17-.18,4.24-.35,6.3-.5,26.53-2,49.13-5.63,69.09-11a227.54,227.54,0,0,0,57.44-24.74c5.43-3.24,12-4.82,20.2-4.82,8.69,0,17.7,1.87,23.72,3.28,8.49,2,20,6,21.66,18.06,2.25,16-12.06,23.35-21.52,28.19-19.9,10.18-42.29,13-61.73,14.91C675,394.58,663.25,395.2,652.3,395.2Z"/><path class="cls-4" d="M630.75,947c-1.38,0-2.54-.82-3.45-2.45C617.08,926.3,599.37,923.1,579,921.05a5.08,5.08,0,0,0-1,.55,6.65,6.65,0,0,1-4.34,1.33l-1.43,0c-.75,0-1.6-.06-2.67-.06h-6.72l5.63-3.67q7-4.56,13.45-8.91l.18-.13c9.59-6.39,18.64-12.43,28-18,22.28-13.27,42.62-24.76,65.9-31a175.94,175.94,0,0,1,38.82-6c.51,0,1,0,1.52,0,11.55,0,23.94,5.56,30.83,13.84,4.42,5.33,6.19,11.21,5.12,17-.11.55-.21,1.12-.31,1.71-1.54,8.69-3.64,20.59-20.18,21-21.67.51-44.4,6.78-67.56,18.64a247.32,247.32,0,0,0-21.46,12.9l-.11.07c-2.84,1.83-5.78,3.74-8.7,5.56l-.23.14A5.5,5.5,0,0,1,630.75,947Z"/><path class="cls-5" d="M718.9,1143.09c-1.32,0-2.66,0-3.95-.09h-.11c-1.22,0-2.4-.08-3.58-.09-1.48.12-3,.18-4.49.18-23,0-39.09-13.72-53.63-27.76-20.59-19.87-36.93-42.45-50.19-61.91-4.49-6.58-1.81-11.71.56-16.23,1.45-2.78,2.71-5.19,2.39-7.77l-.4-3.1,3,.94c1.53.49,3.12.93,4.65,1.37a73.36,73.36,0,0,1,10.45,3.52c11.86,5.32,24.68,10.6,39.49,11.56.51,0,1,0,1.51,0a44.27,44.27,0,0,0,11.32-1.93,43.94,43.94,0,0,1,11.1-1.91c6.17,0,12.73,4.49,17.14,7.86,3.37,2.59,7,5,10.57,7.33,9.24,6.08,18.79,12.35,24.92,22.75,13,22,11.22,41.58-5.42,59.75C729.78,1142.42,724.23,1143.09,718.9,1143.09Z"/><path class="cls-4" d="M548.89,364.53l1.16-.56c17.42-8.39,31.56-18.21,45.24-27.71,7.22-5,14-9.73,21.17-14.2a145.58,145.58,0,0,0,37.25-33.58c7.74-9.79,24.81-16.63,41.5-16.63,10.32,0,18.76,2.64,23.78,7.44,8.33,8,7.52,23.5-1.83,35.33-18.32,23.18-44.42,30.8-69.66,38.16-17.3,5-35.31,7.47-52.72,9.82-6.51.88-13.16,1.78-19.67,2.8-3,.47-5.86.65-9.18.87-4.07.26-8.67.56-14.71,1.48l-1.28.19Z"/><path class="cls-5" d="M666,1039c-10.49,0-20.65-3.5-29.36-6.79a244.08,244.08,0,0,1-29.12-13.73,18.88,18.88,0,0,1-8-9.55c-3.49-9.6-11-14.78-22.1-20l-1.08-.52.74-3.29h1.2c3.63,0,7,0,10.05.05h.13l7.78,0c3.65,0,6.62,0,9.36-.13a37,37,0,0,0,24.17-9.92,10.51,10.51,0,0,1,7.32-2.72,29.58,29.58,0,0,1,8,1.54,36.6,36.6,0,0,0,5,1.23c18,2.57,29.87,9.77,37.34,22.64,4.8,8.26,5.76,19.67,2.4,28.39-2.11,5.48-5.69,9.27-10.08,10.68A44.65,44.65,0,0,1,666,1039Z"/><path class="cls-4" d="M661.58,1225.41c-10.93-3.21-19.43-7.29-26.76-12.81-23.82-18-36-44.08-47.78-69.31l-1.31-2.82a4.23,4.23,0,0,1-.12-3.83c1-2.11,3.81-2.68,5.63-3.06.42-.08.75-.15,1-.23,12.08-3.58,19.59-11.52,23-24.27.4-1.54,1-3.85,3.49-3.85a7.23,7.23,0,0,1,3.45,1.2c25.16,14,44.63,27.77,57.91,49.7,7,11.61,12.22,32.26,8,47.67-2.19,8-6.59,13.8-13.06,17.25a44.68,44.68,0,0,1-8.55,3.19c-1.3.39-2.49.74-3.65,1.14l-.61.21Z"/><path class="cls-5" d="M590,893.91c.13-.29.27-.58.41-.87a6.71,6.71,0,0,0,.57-1.37c2.23-11.68-1.48-19.65-11.66-25.06a5.66,5.66,0,0,1-3-4A8.57,8.57,0,0,1,578.2,856c1.83-2.1,3.67-4.28,5.45-6.4l.08-.1c10.23-12.17,20.81-24.74,36.84-30.95,6.48-2.5,11.76-3.67,16.63-3.67a28,28,0,0,1,2.92.15c12.35,0,25.61,5.18,33,12.84,3.87,4,5.83,8.36,5.69,12.62-.42,12.06-9.42,15.81-17.37,19.11-1.82.76-3.54,1.47-5.16,2.28C632.13,874,613,884.56,596.22,895.24a10,10,0,0,1-2.79,1.08c-.35.09-.66.18-1,.28L588.23,898Z"/><path class="cls-5" d="M537.6,362.94l.89-.94a294.26,294.26,0,0,0,49-68.46c2.63-5.1,5-10.48,7.26-15.68,6.13-14,12.45-28.45,24.78-39.65,9.55-8.69,18.13-13.09,25.49-13.09,7.63,0,13.78,4.57,18.27,13.59,6.94,13.9.35,27-7,38.08-11.35,17-26.65,31.43-46.77,44.09-7.55,4.76-14.93,10.11-22.07,15.29-5.95,4.32-12.09,8.78-18.37,12.92s-12.94,7.75-19.41,11.25c-2.88,1.56-5.84,3.16-8.71,4.78l-1.12.64Z"/><path class="cls-3" d="M452.84,1574.36c-13.38,0-24.58-2.94-33.28-8.73-9.55-6.34-21.88-17.21-26.35-32.94-.91-3.25-3.21-4.43-4.53-4.43a1.64,1.64,0,0,0-1.37.62c-3.88,5.36-8.43,8-13.9,8-4.57,0-9.05-1.8-13.39-3.54l-1.68-.67c-1-.42-2.13-.83-3.21-1.24-10.49-4-21.33-8.15-24.68-21.2s-6.31-30.07,0-48.11c5.07-14.55,12-33.64,20.85-52.21l.68-1.43a172,172,0,0,1,8.56-16.48c.5-.81.5-.81-.24-1.65a9,9,0,0,1-.82-1l-.09.08c-.23.22-.45.42-.66.59-9.47,7.52-20.48,11-35.7,11.23-2.14,0-4.26.07-6.37.07-12.58,0-23.05-1.33-33.28-7.81-18.64-11.81-22.35-27.93-11.35-49.26a66.81,66.81,0,0,1,8.53-12c1.59-1.91,3.23-3.88,4.69-5.89,2.3-3.16.88-5.78-1.64-9.78a27.13,27.13,0,0,1-2.67-5c-6.26-17.47-3.74-34.2,8.18-54.22,9.27-15.57,23.25-27.15,42.76-35.4a9,9,0,0,1,3.46-.76c3.71,0,6,2.73,7.84,4.92a14.32,14.32,0,0,0,2.37,2.45,38.53,38.53,0,0,0,22.12,6.79,44.19,44.19,0,0,0,20.92-5.38c13.62-7.37,23.6-16.28,28.06-35.85l.29-1.29,3.62.35,0,1.33c.38,14.11.65,24.3,5,33.78,6.06,13.22,15.82,22.48,31.64,30,8.24,3.93,8.1,12,8,18.44,0,1.75-.06,3.4.06,4.89.4,4.85-5.95,5.76-10.58,6.43a40.35,40.35,0,0,0-4.1.71c-9.47,2.41-19.65,3.53-32,3.53-8.11,0-16.34-.48-24.3-.94s-16.17-.94-24.2-.94c-3.91,0-7.5.11-11,.34-3.89.25-8,.37-12.57.37-6.37,0-12.85-.24-19.12-.48-5.38-.2-10.88-.4-16.27-.46a3.36,3.36,0,0,0-.86.63c0,.92.52,1.53,3.65,1.82l.91.1a141.3,141.3,0,0,0,21.55,1.2h4.87c3.45,0,7.13,0,10.73.18,7.36.33,14.78.36,21.75.36H380c11.9,0,23.62.09,36.12,1.23l1.2.11.43,3.36-1.14.41c-29.43,10.44-59.86,21.24-85.37,41.39a29,29,0,0,1-2.4,1.64c-3.16,2-5,3.36-4.48,6.17a7.18,7.18,0,0,0,.73,0,5.9,5.9,0,0,0,2.3-.34c1.3-.78,2.59-1.54,3.89-2.3,6.66-3.93,13.55-8,19.59-12.8,8.66-6.87,18.72-10.54,28.46-14.08,4.77-1.73,9.7-3.53,14.33-5.67,9.36-4.31,19.29-7.67,28.89-10.91l.13-.05c3.94-1.33,8-2.71,12-4.13a22.16,22.16,0,0,1,3.05-.8l1.26-.27,3.06-.74-.63,3.08c-.11.53-.17,1.14-.24,1.73a9.85,9.85,0,0,1-1.39,4.81c-2.37,3.35-4.72,6.74-7.06,10.12-11,15.91-22.42,32.35-37,46a18.31,18.31,0,0,0-4.38,5.34,12.25,12.25,0,0,1-.93,1.57c-.13.2-.39.59-.63,1a12.8,12.8,0,0,0,1.46-.26c1-.23,2.12-1.33,3.23-2.4.34-.34.68-.67,1-1,15.16-13.8,28.88-30.12,41.93-49.89a100.52,100.52,0,0,0,5-8.83,73.33,73.33,0,0,1,7.57-12.46c2.27-2.82,7-4.53,13.95-5l.33,0a3,3,0,0,1,2.4,1c1.07,1.26.79,3,.54,4.5a7.77,7.77,0,0,0-.18,1.69c.4,2.88,1,5.84,1.52,8.7,1.43,7.42,2.9,15.08,1.83,22.44-1,6.72-5,12.88-8.82,18.84-1.29,2-2.62,4.05-3.79,6.06l-9.88,17c-13.89,24-28.23,48.78-42.86,72.84-4.55,7.48-10.14,14.43-15.54,21.15-2.4,3-4.86,6-7.19,9.09-.75,1-1.56,1.92-2.34,2.83a27.75,27.75,0,0,0-4,5.43,14.82,14.82,0,0,1-1.44,2.2c-1,1.34-1.48,2.15-1.42,2.41a.87.87,0,0,0,.27.28,1.31,1.31,0,0,0,.83.33c1.29,0,3.16-2.28,4.16-3.5,8.86-10.83,17.65-21.93,26.14-32.66l4.28-5.4a60.73,60.73,0,0,0,4.32-6.2c.54-.92,1-2,1.5-3,1.41-3,3-6.5,7-8.3l3.22-1.43-.41,3.5c-.15,1.21-.26,2.44-.36,3.67a55,55,0,0,1-1.17,8.35c-3,12.22-6.65,26.67-10.81,41.17-.15.55-.34,1.11-.53,1.67-1.08,3.17-.84,3.47-.29,3.76a1.42,1.42,0,0,0,.65.19c.88,0,2.13-1.56,3.05-3.79,6.22-15.18,12.8-33.35,14.43-52.94,1.55-18.78,8.36-36.6,20.83-54.48a147,147,0,0,0,8.56-14.6c1.34-2.51,2.69-5,4.08-7.46.66-1.14,1.4-2.18,2.11-3.19.35-.5.7-1,1-1.49l2.65-4,1,4.67c.12.6.33,1.27.52,1.92a11.38,11.38,0,0,1,.72,5.51c-1.57,7.81-1.57,15.9-1.58,23.72,0,4.9,0,10-.39,14.94-2.32,31-5,61.8-8.06,91.48a157.37,157.37,0,0,1-3.46,18.68c-.81,3.54-1.62,7.12-2.27,10.64,0,.2-.09.42-.14.64a6.09,6.09,0,0,0-.22,1.47,1.38,1.38,0,0,0,.28.07,1.76,1.76,0,0,0,.38,0c.76,0,1.38-.63,1.83-1.87,5.7-15.8,8.25-32.37,9.84-45,1.33-10.7,2.28-21.58,3.29-33.1v-.15c.46-5.27.94-10.73,1.48-16.44l.11-1.2,3.38-.4.39,1.15q2.83,8.29,5.52,16.17c5.47,16,10.62,31.1,15.58,46.17a2.06,2.06,0,0,0,1.86,1.63h.16c1.36-.64,1.88-2.3,1.33-4.31q-1.26-4.63-2.49-9.27l-.08-.28c-5.38-20.16-10.94-41-21.72-59.51-2.83-4.86-2.07-9.87-1.4-14.28a42.64,42.64,0,0,0,.58-5.43c.18-11.16.14-22.26.11-34,0-4.88,0-9.85,0-15v-5.43l3.52,4.13c12.33,14.47,22.4,29,32.13,43,11,15.93,21.07,32.77,30.77,49.05,1.44,2.42,2.86,4.82,4.3,7.21l.32.57a4.91,4.91,0,0,0,1,1.42,3.83,3.83,0,0,0,.61-.39c1.83-1.46,1.71-2.65-.62-5.83-.28-.39-.54-.75-.73-1.05-3.48-5.48-6.56-11.25-9.55-16.83-3.28-6.12-6.66-12.44-10.54-18.34-3.38-5.15-6.67-10.48-9.84-15.63-10-16.19-20.23-32.87-34.77-45.69-4.46-3.93-5-8.35-5.45-12.26a30.15,30.15,0,0,0-.65-3.95,45.3,45.3,0,0,1-1.06-10.65,42.66,42.66,0,0,0-1.12-10.75c-1.19-4.17-1.08-7.12.35-9a5,5,0,0,1,4.19-1.91,15,15,0,0,1,5.9,1.59c5.84,2.66,11.88,5.18,17.73,7.62,11.13,4.64,22.58,9.41,33.2,15.36,4.7,2.64,5.32,11.6,5.86,19.51,0,.7.1,1.38.15,2,1.06,14.18,6.46,27.31,11.67,40l0,.1c.93,2.26,1.85,4.51,2.76,6.77.52,1.31,1.5,2.83,2.53,2.83a2,2,0,0,0,1-.3c.59-.33.71-.39-.29-2.65-.22-.5-.45-1-.63-1.51-.95-2.54-1.93-5.07-2.91-7.6-4.67-12-9.49-24.48-9.89-38.12a17.77,17.77,0,0,0-1-4.58c-.28-.91-.6-1.93-.83-3-.32-1.38-.56-2.78-.8-4.14l0-.17c-.11-.6-.21-1.21-.33-1.81l-.61-3.26,3.17,1c.82.25,1.66.47,2.5.68a28.16,28.16,0,0,1,5.9,2c17.48,9,36.2,18.72,54.67,28.66a11,11,0,0,0,4.93,1.46c1.66,0,2.12-.72,2.28-1a.88.88,0,0,0,.14-.3c-.16-.48-2-1.42-2.81-1.87-.62-.33-1.25-.66-1.81-1a417.18,417.18,0,0,0-74.27-37.32,34.72,34.72,0,0,1-7.17-4.17c-1-.68-2-1.38-3-2l-4.61-2.88,5.38-.8a131.82,131.82,0,0,1,19.4-1.43,143.48,143.48,0,0,1,19.86,1.42c9.8,1.36,20,1.61,29.81,1.85,5.11.13,10.39.26,15.61.54a24.55,24.55,0,0,1,5.43,1.1,32.5,32.5,0,0,0,3.31.81,4.74,4.74,0,0,0,.75.06,2.37,2.37,0,0,0,1.71-.53.92.92,0,0,0,.21-.78,2.88,2.88,0,0,0-2.86-3c-4.64-.44-9.34-1-13.88-1.6-6.91-.86-14-1.75-21-2.15-12.81-.73-26.52-1.4-40-1.4-11.12,0-21.16.44-30.69,1.36a17.21,17.21,0,0,1-1.77.08c-5.71,0-11.5-2.54-17.1-5a73,73,0,0,0-10.73-4.08c-14.38-3.72-14.69-14.27-15-23.57a60.45,60.45,0,0,0-.52-7.49c-.33-2.11,1.73-2.88,5.13-4.14a31.44,31.44,0,0,0,5.26-2.31c15.86-10.27,25.85-26.18,32.4-51.57l.3-1.14,3.32,0,.27,1.15c6.6,28.63,21.31,48.7,45,61.36a28.24,28.24,0,0,0,13.22,3c11.81,0,24.15-5.7,30.7-14.17,1.94-2.51,3.69-3.63,5.69-3.63a8.31,8.31,0,0,1,4.74,1.92c30.46,21.27,40,38.59,45,51.31,3.4,8.73,1,18.92-6.53,27.26-3.31,3.68-3.49,6.91-.64,11.14,7.41,11,8.53,25.16,3.08,38.83-5.61,14-17,24.53-29.68,27.35a38.48,38.48,0,0,1-8.37,1c-12.88,0-21.71-7-31.06-14.49l-1.55-1.23c-2-1.58-3.91-3.25-5.77-4.86-1.38-1.2-2.8-2.43-4.21-3.6a3.76,3.76,0,0,0-.47,1.32c1.21,6,2.52,12.15,3.78,18.07l0,.12c1.43,6.7,2.91,13.62,4.25,20.47,4.41,22.63,2.63,42-5.44,59.18-6.46,13.75-13.41,19.61-23.25,19.61-5.82,0-12.89-2.14-22.24-6.76a15,15,0,0,0-6.2-1.85c-1.2,0-4,0-4.21,6.7-.63,21.17-6.54,37.52-18.07,50-11.23,12.14-22.08,20.62-38.51,22.59A105.46,105.46,0,0,1,452.84,1574.36Z"/><path class="cls-4" d="M596.6,981c-21.6-1.83-45.56-7.23-73.25-16.5-7.4-2.49-7.18-8.9-7-14,.09-2.46.17-5-.51-6.9a3.92,3.92,0,0,1,.22-3.34c1.35-2.43,5.05-3.23,8.64-4,1.18-.25,2.29-.49,3.11-.75,18.14-5.87,34.76-8.73,50.79-8.73a128.73,128.73,0,0,1,16.48,1c15.31,2,33.26,19.87,33.69,33.62.18,5.79-2.24,13.49-14.83,17.25a57,57,0,0,1-11.12,1.74c-1.86.17-3.78.35-5.78.6l-.17,0Z"/><path class="cls-5" d="M577.72,1131.25c-11.21-1.59-17.3-9.07-23.18-16.3-2-2.47-4.07-5-6.27-7.21-7.7-7.68-6.71-16.58-5.83-24.43.49-4.4,1-8.94,0-13.07-2.71-11.16-5.36-21.16-10.27-30.58a7.17,7.17,0,0,1-.62-2c0-.21-.08-.4-.13-.59l-.69-2.6,2.7.09.31,0,.64,0a3,3,0,0,1,1.89.6c9.88,7.84,21.78,12,33.29,16.1,3.94,1.39,8,2.82,12,4.4C600.2,1063,611,1077.67,612.73,1098c.93,10.69-13.78,28.58-25.39,30.88-2,.39-3.92.93-6,1.5-1,.27-1.91.53-2.87.78l-.39.1Z"/><path class="cls-4" d="M530,360.83c-.87,0-2.9-.41-2.9-4.24V343.83c.53-3.82,1.21-7.82,1.92-12.05,1.75-10.28,3.72-21.93,4-33.5a131.74,131.74,0,0,1,8.53-44.09l.75-2c8-21.11,16.28-42.94,41.85-50.87a9.59,9.59,0,0,1,2.86-.44c8.4,0,15.71,10.79,15.95,23.55C603.12,234.6,600,244,597,253c-1,3.07-2.07,6.22-3,9.33-8.09,28.18-24.43,52.09-41.89,76.12-3.95,5.42-8.78,10.26-13.45,14.93-1.91,1.91-3.87,3.87-5.74,5.84A4.39,4.39,0,0,1,530,360.83Z"/><path class="cls-5" d="M575.94,1260.32a39,39,0,0,1-25-9.4c-26.15-22-32.78-51.51-36.05-80.08-.21-1.86-.58-3.74-.93-5.55-.74-3.79-1.44-7.36-.89-10.85,0-2.34-.08-4.73-.12-7.09v-.18c-.2-10.64-.39-20.69,1.5-30.81a2.8,2.8,0,0,0,.06-.42c.19-1.63.91-2.24,2.45-3a26.45,26.45,0,0,1,11.67-3c9.64,0,16.55,6.31,23.87,13,.77.71,1.55,1.41,2.33,2.11,16.6,14.9,30.54,33,42.64,55.2,10.48,19.26,16.88,55.64,1,71A32.13,32.13,0,0,1,575.94,1260.32Z"/><path class="cls-5" d="M578.87,1047.46a42.8,42.8,0,0,1-15.56-3.31c-30.32-12-47.13-35.87-59.57-57.66-2.82-4.94,1.37-8.2,4.14-10.35a16.41,16.41,0,0,0,2.78-2.47c3.19-4.14,6.62-6.15,10.48-6.15,4.18,0,7.92,2.38,11.53,4.67a28.39,28.39,0,0,0,6.45,3.41,135.55,135.55,0,0,1,48.45,26.28c8.1,6.72,12.19,14.61,12.16,23.46.1,6.87-1.87,12.57-5.69,16.45C590.38,1045.49,585.14,1047.46,578.87,1047.46Z"/><path class="cls-3" d="M342.16,704.67a4.38,4.38,0,0,1-2.54-.92c-3-2.13-3.59-5.58-1.56-9.25,8.52-15.29,18.7-29.73,28.54-43.69,3.89-5.51,7.92-11.22,11.81-16.93,2.62-3.86,5.32-7.7,7.93-11.42,7.9-11.23,16.06-22.83,22.2-35.09,13.24-26.42,28.12-58,38.08-91.64,7.24-24.51,14.34-50.74,14.62-78.1a57.69,57.69,0,0,1,1.61-11.24c.35-1.65.69-3.29,1-4.88.69-17.24-.93-34.68-2.49-51.55l-.23-2.46c-.4-4.22,1.19-4.85,4.65-5.19l.93-.1a32.41,32.41,0,0,1,3.53-.2c11,0,18.89,5.86,26.51,11.52,4.12,3.07,8.38,6.24,13,8.26s8.93,4,13.25,5.95c18.69,8.49,38,17.26,58.62,21.44a28.87,28.87,0,0,1,7.59,2.89c4.22,2.23,6.2,4.28,6.44,6.66.32,3.07-2.35,5.29-5.45,7.85l-.08.07c-.53.43-1.08.89-1.63,1.37-12,10.34-23.63,21.6-34.86,32.5l-5,4.88c-2.66,2.57-5.36,5.13-8.06,7.68-8.55,8.08-17.36,16.41-24.84,25.49l-5.72,6.93c-16,19.35-32.57,39.36-45.51,61.53-3.95,6.75-8.51,13.26-12.92,19.57-6.16,8.78-12.52,17.87-17.12,27.51-4.71,9.92-10.68,19-16.44,27.87-3.82,5.84-7.76,11.87-11.26,18q-12.48,21.9-24.89,43.81c-3.44,6.06-9.16,6.62-14.21,7.12-3.94.39-7.34.72-9.84,3.2a34.86,34.86,0,0,1-8.17,5.47c-1.15.63-2.3,1.25-3.37,1.9a7.19,7.19,0,0,0-.51.72C345.08,703.14,344.08,704.67,342.16,704.67Z"/><path class="cls-5" d="M521.22,877.55c2.72-10.5,2.23-20.22-1.57-31.49-2.62-7.81,2.26-14.39,6.56-20.2,1.13-1.52,2.19-3,3.12-4.4,10.18-15.76,25.07-24,44.25-24.51h.63c4.52,0,8.1,1.31,10.64,3.9s3.9,6.44,3.82,11c-.38,21.07-12.71,37.24-23,47.08-3.74,3.59-9.13,4.83-14.84,6.13-5.14,1.18-10.44,2.4-14.46,5.44-2.4,1.81-4.79,3.63-7.3,5.54l-9.29,7.08Z"/><path class="cls-5" d="M511.93,935.8c-2.62,0-5.57-2-8.42-3.88-1.08-.72-2.05-1.37-2.93-1.88l-.7-.4-.29-.9v-.06c-.32-1.41,1-4.72,1.85-5.9,3.18-4.56,6.15-9.38,9-14,6.62-10.7,13.46-21.77,23.22-30.72a40.85,40.85,0,0,1,27-10.34c8.46,0,15.82,2.78,20.73,7.81,2.44,2.5,3.1,5.3,3.73,8,.21.87.42,1.76.68,2.61l.2.64-.23.63c-5.09,14.34-16.89,21.91-29.56,29-14.23,8-29.53,14.15-42.62,19.11A4.53,4.53,0,0,1,511.93,935.8Z"/><path class="cls-4" d="M520.75,1107.1c-7.89,0-16.27-4.8-21.34-12.22-8-11.67-11.41-25.1-14.73-38.09l-.07-.3q-.74-2.87-1.48-5.73a116.39,116.39,0,0,1-3.94-37.24,30.84,30.84,0,0,1-.17-8.21c.26-4,.52-7.83-1.41-11.45a3.3,3.3,0,0,1-.22-3.14c.72-1.44,2.3-1.68,3.34-1.84a6.17,6.17,0,0,0,.66-.12,21,21,0,0,1,8.55-2.08c8.46,0,12.74,7.27,16.72,15.38,3.1,6.28,6.67,12.51,10.12,18.53,4.28,7.47,8.67,15.13,12.27,23.05,9.61,21.12,11.26,38.5,5.21,54.68C532.17,1103.9,527.25,1107.1,520.75,1107.1Z"/><path class="cls-5" d="M520.35,360.8c-2.73-5.33-5.55-10.55-8.27-15.6-6.38-11.81-12.39-22.95-17.16-34.85C489.13,295.9,486,280,483.29,265.89c-3.48-17.88-2.73-36-1.39-52.89.54-6.81,2.27-16.59,11.07-22.88a11.37,11.37,0,0,1,6.66-2.29c4.67,0,8.39,3,11.79,6.1,6.83,6.2,11.35,15.12,13.43,26.52.55,3,1.19,6.14,1.82,9.15,1.84,8.86,3.74,18,3.64,27-.13,11.52-1.41,23.15-2.65,34.41-.72,6.53-1.45,13.18-2,19.71-.7,9.1-1,18.36-1.28,27.31q-.12,4-.26,8c-.11,2.81-.08,5.6-.06,8.83V355c0,1.53,0,3.14,0,4.86v1.18l-3.24.78Z"/><path class="cls-4" d="M467.72,846.84c-2.53-21.36-2.25-59.66,28.12-76.16,5.2-2.82,9.78-4.2,14-4.2a16.22,16.22,0,0,1,8,2c9.76,5.38,13.67,13.78,11.32,24.27A82.49,82.49,0,0,0,527.63,804a76.77,76.77,0,0,1-2,13.41,34.82,34.82,0,0,1-4.37,9c-2.29,3.73-4.65,7.58-4.52,12.16l.1,3.77-3.18-2c-6.6-4.22-12-6.19-17.13-6.19-7.45,0-15.08,4.16-25.5,13.93l-2.89,2.7Z"/><path class="cls-5" d="M481.21,928.84a14.09,14.09,0,0,1-4.58-.67c-4.19-1.48-6.68-8.34-7.26-12.31a96.14,96.14,0,0,0-2-9.5c-1.51-6.08-3.08-12.36-2.42-19.09,1-14.15,3.1-28.9,16.49-39.46,4.35-3.43,9.65-6.93,16-6.93a19.78,19.78,0,0,1,8.81,2.18c13.63,6.69,11.55,19.77,10.18,28.43-3.43,21.62-14.87,39.92-24.46,53.45C490,927.63,485.17,928.84,481.21,928.84Z"/><path class="cls-4" d="M510.24,357.31a3.59,3.59,0,0,0-.46-.05,4.61,4.61,0,0,1-2.34-.68c-32.86-22.86-57.32-47.61-74.78-75.65-8.46-13.6-18.34-31.18-19.59-46.54v-.12c0-10.79,1.71-18.77,5.07-23.7a13,13,0,0,1,11.07-6,18,18,0,0,1,3.95.47c11,2.5,17.26,10.19,23.28,17.62,1.95,2.41,4,4.9,6.11,7.15,12.57,13.19,15.1,29.53,17.55,45.33,1.49,9.56,3,19.45,6.82,28.29,4.62,10.74,10,21.4,15.25,31.71l1.57,3.12c1.58,3.11,3.51,6.14,5.38,9.08,1.09,1.72,2.18,3.43,3.21,5.16a3.72,3.72,0,0,1,.33,2.5,3.22,3.22,0,0,0,0,.39l0,2.37Z"/><path class="cls-5" d="M480.11,983a25.28,25.28,0,0,1-18.57-8.77,19.4,19.4,0,0,1-4.47-16.11,26.25,26.25,0,0,1,8.14-19.25,29.67,29.67,0,0,1,20.51-7.64c.8,0,1.61,0,2.42.08,13.29.88,22.81,9.09,23.69,20.44a27,27,0,0,1-6.57,20.21c-5.62,6.48-14.11,10.39-23.89,11Q480.74,983,480.11,983Z"/><path class="cls-5" d="M476.07,1166.33c-9.29,0-13.87-8.1-17.92-15.26l-1-1.69c-8.16-14.19-6-28.88-3.9-43.09.61-4.18,4.11-4.33,6-4.4a5.27,5.27,0,0,0,2.45-.44c6.65-4.71,10.93-11,13.49-19.67a41.26,41.26,0,0,1,2.71-6.46l.05-.1c.42-.86.84-1.73,1.23-2.6l1.82-4.06,1.83,4c.38.84.84,1.71,1.28,2.55a25.46,25.46,0,0,1,2.62,6.35c2,9.47,7.25,17.47,15.61,23.78,3,2.28,2.38,5,2,6.41,0,.18-.12.52-.15.72l.23.29,0,.57a69.75,69.75,0,0,1-7.36,39.33c-4.24,8.4-12,13.53-20.75,13.73Z"/><path class="cls-4" d="M462.42,1252.83c-7.75,0-13-4.82-18.11-9.48-1.22-1.13-2.6-2.39-3.95-3.49-15.57-12.74-16-31.89-14.32-48.93,1.6-16.48,4.74-37.87,14.9-57.22a9.27,9.27,0,0,0,.58-2.55c.14-.86.29-1.86.54-3.07l.25-1.23,3.49.08.2,1.24c3.27,20.77,7.21,37.09,25.37,42.44a26.1,26.1,0,0,0,7.43,1.11c9,0,16.73-5.08,21.73-14.3l2.92-5.38,1.33,9.79c2.92,21.3,5.67,41.42-5,61.31-7.67,14.27-16.77,28.31-36.08,29.64-.43,0-.86,0-1.28,0Z"/><path class="cls-5" d="M445.34,1100.46c-8.67,0-13.85-8-15.64-14.83-4.95-18.88-.67-37.08,3.61-50.84,4.23-13.58,11.76-25.2,19-36.43,2.35-3.61,4.74-7.3,7-11a4.85,4.85,0,0,1,4.3-2.55,9.41,9.41,0,0,1,2,.27,5.67,5.67,0,0,0,.79.15c5.26.59,6.32,3.59,6.28,6-.05,3,0,6,0,9,0,1.36,0,2.62,0,3.89.22,7.36.79,14.89,1.35,22.17,1,13.21,2.05,26.87,1.06,40.51-1.3,17.57-13.07,31.67-28,33.51A13.57,13.57,0,0,1,445.34,1100.46Z"/><path class="cls-5" d="M457.64,940a2.62,2.62,0,0,1-1.18-.27C434.72,929.06,410.08,917,398,890.23c-3.88-8.63-3.65-17.72.6-24.3a17.2,17.2,0,0,1,14.91-8h.12c17.94,1.49,26.38,14.28,34.55,26.66l.07.09c.7,1.07,1.4,2.13,2.11,3.19,8.2,12.2,13.28,25.64,18.19,39.48a5.13,5.13,0,0,1-1.26,4.94c-.69.64-1.49,1.44-2.33,2.28C461.37,938.26,459.47,940,457.64,940Z"/><path class="cls-5" d="M454.12,884.89C448.25,871.64,437.49,863.32,428,856a14.43,14.43,0,0,0-9.28-3.13h-.58c-23.42,0-36.65-13.53-37.24-38.11-.26-10.45,1.3-22,14.83-28.23a18.15,18.15,0,0,1,7.61-1.75c6.93,0,12.52,4.28,17.52,8.9,19.57,18.08,32.19,42.74,39.73,77.6.59,2.72-.34,5.57-1.32,8.58-.49,1.51-1,3-1.37,4.69l-1.35,5.83Z"/><path class="cls-4" d="M373.92,1045.08c-11.46,0-18.86-9.17-18.86-23.36v-.14c1.57-16.49,16-25.4,30-34l.15-.09c1-.62,2-1.24,3-1.87a165.55,165.55,0,0,1,56.48-21.93l.6-.13a9.11,9.11,0,0,1,2-.29c1.32,0,3.07.57,3.91,3.3a50,50,0,0,0,2.19,5.41c2.13,4.76,4,8.87,2,11.55a267.13,267.13,0,0,1-29.2,33.69c-16.23,16-31.72,24.79-48.77,27.58A22.08,22.08,0,0,1,373.92,1045.08Z"/><path class="cls-5" d="M473.41,340.13c-23.67-6.69-43.64-14.91-62.84-25.85-25.2-14.37-45.22-30.48-61.2-49.25l-.26-.3c-10-11.78-20.37-24-22-40.79a9.57,9.57,0,0,1,2.15-7.68c1.84-2,4.72-3.1,8.31-3.1h.33c16.92.29,30.91,8.23,44.44,15.91,2.28,1.29,4.55,2.58,6.85,3.85,17.06,9.37,25.18,25,33,40,3.8,7.3,7.74,14.85,12.62,21.47a225,225,0,0,0,40.39,42.25l.94.77-1.58,3Z"/><path class="cls-5" d="M395.14,965.13c-2.94,0-5.67-.12-8.35-.38-15.56-1.49-33.18-3.17-44.14-19.87a17.65,17.65,0,0,1,11.6-27.66c1.28-.26,2.56-.56,3.84-.87a49.62,49.62,0,0,1,11.54-1.79,23.88,23.88,0,0,1,4,.33c21.05,2.24,39.62,7.94,56.67,17.41,2.08,1.16,4.32,2.15,6.5,3.12s4.58,2,6.81,3.27a14.77,14.77,0,0,0,3.07,1.06c2.92.81,7.8,2.17,6.66,7.25-1.5,6.78-4.58,13.81-16,14.4-6,.31-12.09,1.05-18,1.77A200.41,200.41,0,0,1,395.14,965.13Z"/><path class="cls-5" d="M368.53,1230.94h-.08c-18.16-2.11-27.91-10.88-29.82-26.79-2.81-23.54,7.21-42.67,16.9-61.17l1.44-2.76c2-3.77,5.51-4.25,8.37-4.25,1.05,0,2.12.07,3.15.13s2.1.14,3.12.14a10.77,10.77,0,0,0,4.21-.68c18.49-7.89,31.65-21.57,41.42-43.07.64-1.41,1.32-2.8,2-4.19l1.83-3.78,1.84,1c2.52,1.34,3.16,3.56,3.67,5.35a13.29,13.29,0,0,0,.55,1.65c1.08,2.44,3.05,5.56,5.05,6.35,5.56,2.17,8.94,5,10.32,8.5,2,5.16-.41,10.9-3.54,17.33-5.64,11.56-9.3,24.21-12.84,36.44-4.4,15.21-8.95,30.91-17.37,45.08-6.63,11.15-26.44,24.76-40.11,24.76Z"/><path class="cls-3" d="M388.84,585.27l-.57-.85c-.42-.61-.85-1.26-1.29-1.84-8-10.51-7.39-21.59-6.71-33.33.16-2.74.33-5.47.5-8.22l0-.18c1.26-20.13,2.58-41-2.74-61.06-.57-2.15-1-4.31-1.43-6.4-1-5.09-2.09-10.36-5.05-14.86a9.89,9.89,0,0,1-1-2.16,9.7,9.7,0,0,0-.45-1.12h0c-2.07.61-1.62,3-1.33,4.06,3.76,13.34,7.15,26.47,7.33,40.26,0,3.07.19,6.2.33,9.23.41,8.82.84,17.94-1.19,27.08a17.38,17.38,0,0,0,.33,6.43c.59,3.52,1.26,7.5-.84,11.47a8,8,0,0,0-.56,2.1c-.08.47-.17.93-.28,1.38l-.8,3.29-2.49-2.28-1-.91c-.67-.6-1.29-1.16-1.89-1.74-13.05-12.57-19.67-28.81-26.07-44.52l-.19-.47c-.81-2-1.63-4-2.46-6a195.33,195.33,0,0,0-28.21-47c-9.37-11.77-21.24-25-38.28-33.75A6.18,6.18,0,0,0,270,423c-.37,0-.79.12-1.37.95-.35.5-.28.78-.25.89a2.87,2.87,0,0,0,1.5,1.52c11.78,6,20.54,15.51,29,24.7l2.24,2.42a35.21,35.21,0,0,1,3.8,5.26c.48.77,1,1.54,1.48,2.28l2.89,4.21-5-1.13c-.92-.21-1.85-.39-2.77-.58a50.6,50.6,0,0,1-6.27-1.52c-4.38-1.47-8.68-3.29-12.84-5-8.91-3.76-18.12-7.65-28.08-8H254a15.29,15.29,0,0,0-1.75.12,9.35,9.35,0,0,0,2.74,2c2.52,1,5,2,7.55,3.06l.17.07c10.66,4.33,21.66,8.8,32.74,12.12,12,3.6,24.26,8.28,30.77,22.23,1.68,3.6,3.38,7.18,5.08,10.77,2.43,5.12,4.92,10.38,7.32,15.58a5,5,0,0,1,.08,3.22,5.45,5.45,0,0,0-.14.75l-.29,2.77-2.53-1.16c-.21-.1-.44-.17-.66-.25a5.68,5.68,0,0,1-2.41-1.34c-18.51-19.25-40.5-32.45-65.37-39.23l-1.65-.45c-9.05-2.48-18.4-5-27.85-5a43,43,0,0,0-14.43,2.34,3.62,3.62,0,0,1-1.19.19,7.15,7.15,0,0,1-1.4-.17l-.57-.09-2.46-.22.73-2.36a3.9,3.9,0,0,0,.12-.46,7.39,7.39,0,0,1,.58-1.62c3.13-6,5-12.75,6.81-19.24,2.05-7.34,4.17-14.92,8.13-21.92,11.44-20.21,27.85-31.8,45-31.8a44.47,44.47,0,0,1,21,5.63C311.26,410.34,318,420.1,324,429.6c4.84,7.75,8.66,10.77,13.6,10.77,2.8,0,6.21-.95,10.41-2.9a56.3,56.3,0,0,1,23.87-5.4c23.7,0,47.21,15.51,61.35,40.48,10.86,19.19,4.69,34.33-1.85,50.37l-.05.13c-1.08,2.67-2.21,5.43-3.23,8.17-4.8,13-9.93,25.74-15.25,37.86a67.43,67.43,0,0,1-6.3,10.6c-1.26,1.87-2.57,3.82-4,6l-.64,1-3.21-1.19.18-1.21c1.41-9.36,2.22-18.47,3-27.27,1-11.82,2-22.94,4.33-34.15,3.63-17.59,3.41-35.25,2.71-50.21a4.6,4.6,0,0,0-1.42-1.47,2.89,2.89,0,0,0-2.45,3c.68,16.59-1.62,33.1-3.84,49.06l-.15,1.08c-1.63,11.78-2.89,23.84-4.11,35.5-.7,6.79-1.43,13.78-2.23,20.71a7.38,7.38,0,0,1-1.79,3.57c-.27.35-.53.69-.72,1l-1.61,2.6Z"/><path class="cls-3" d="M239.91,923.71a24.2,24.2,0,0,1-9.4-2.34c-13.66-6-21.36-17.58-22.88-34.51-.59-6.58-2.77-8.15-8.59-9.27a22.56,22.56,0,0,1-15.43-11.81,24.75,24.75,0,0,1-1.4-21c3-7.17,7.51-11.47,14.68-13.92.91-.31,1.92-1.57,2.81-2.69l.28-.35a25.52,25.52,0,0,0-9.45-5.17c-19.41-5.34-41.39-11.38-58.36-26.94-5.62-5.14-10.83-13.84-8.6-22.82,4-16.19,10.53-31.39,31.08-33,3.11-.24,5.16-1.08,5.63-2.3s-.55-3.51-2.73-5.79c-15.38-16.09-22.21-36.4-20.28-60.37.81-10.13,5.88-22.33,13.23-31.82,6.44-8.32,17.51-18.41,33.67-19.17,1.05-.05,2.13-.07,3.2-.07,15.71,0,28.63,5.42,43.2,18.12a110.9,110.9,0,0,1,15.93,17.66c.6.8,2,1.37,3.46,2l.6.25c.41-.73.84-1.44,1.26-2.14,1.45-2.42,2.94-4.91,3-7.06.1-8.09,5.07-15.63,14-21.24a51,51,0,0,1,26-7.65,25.59,25.59,0,0,1,11.73,2.46C322.17,631,330.71,645.43,332.6,667c.9,10.19.78,20.58.67,30.63-.07,7-.15,14.33.12,21.47,0,.15,0,.36,0,.6,0,5,1.07,5.28,1.28,5.28s1.2-.15,3-1.5c1.2-.92,1.89-3.25,2.54-5.51.27-.92.55-1.87.88-2.77,4.4-12,17.86-20.75,32-20.75a29.25,29.25,0,0,1,14.94,3.91c13.62,8.07,18.74,25.25,11.92,40-1.35,2.94-2.15,6.88-.68,8.6a2.24,2.24,0,0,0,1.6.42,17.19,17.19,0,0,0,6-1.56,11,11,0,0,1,4.3-.93c4.89,0,8.64,3.64,11.65,6.55.46.44.9.88,1.35,1.29,5.57,5.19,6.95,12.23,4.09,20.9-.53,1.59-.94,3.31-1.34,5l-.1.38c-.56,2.31-1.73,7.12-5.91,7.12a8.41,8.41,0,0,1-4.72-1.82c-4.95-3.48-9.91-5.24-14.76-5.24a21.36,21.36,0,0,0-13.36,5c-12,9.47-16.38,27.88-12.26,38a58.92,58.92,0,0,1,2.51,8.58c.13.56.27,1.13.4,1.69a3.89,3.89,0,0,1-.64,2.85,4.5,4.5,0,0,0-.25.48l-.79,1.89-1.87-.83c-.35-.16-.71-.3-1.08-.44a16.46,16.46,0,0,1-2.86-1.36c-9.48-6.12-17-9-23.54-9-7,0-13.4,3.36-19.56,10.26a32.73,32.73,0,0,0-7,13.6c-.81,3.38-.6,7.17-.4,10.83.09,1.64.18,3.33.18,4.95v4.71L317.56,867c-16.58-16-7.77-29.09,0-40.61,2.61-3.87,5.31-7.87,6.91-11.79,4.3-10.57,9.41-20.95,14.36-31,6.89-14,14-28.41,19-43.44a4.82,4.82,0,0,0-.31-2,2.3,2.3,0,0,0-.35.17c-8.21,16.56-16.26,33-24.77,50.48l-7.76,15.89-.9-6.5c-1.41-10.14-.42-19.34.54-28.24.19-1.8.38-3.57.55-5.35a74.13,74.13,0,0,0,.17-10.12,12.65,12.65,0,0,1,.15-2c0-.3.08-.68.11-1a19.21,19.21,0,0,0-1.84,4.3c-2.85,10.09-3.16,21-3.45,31.52-.5,17.68-1,36-13.17,51.94,0,.14-.07,1-.09,1.76s-.08,2.11-.23,3.66l-.62,6.29-3.11-5.51c-2.72-4.81-5.5-9.43-8.19-13.89-6.44-10.67-12.49-20.71-16.59-31.57-1.92-5.1-.48-10.86,1.05-17a53.89,53.89,0,0,0,1.91-10.31c.32-7.25,1.15-14.54,1.95-21.58.72-6.23,1.45-12.66,1.81-19,1.07-18.64.71-37.69.36-56.13-.06-3-.12-6.07-.17-9.1a9.49,9.49,0,0,0-1.66-4.16c-.43,9.41-2.35,52.22-2.85,63.19l-.28,6.1-3.38-5.08c-4.73-7.08-6.47-14.15-8.16-21A81,81,0,0,0,265.29,695a29,29,0,0,1-1.42-5.59,23.49,23.49,0,0,0-1.31-5.08c-1-2.33-1.94-3.51-2.77-3.51a1.91,1.91,0,0,0-.76.2c-.36.17-.63.29.24,3,.15.43.28.86.4,1.26,1.39,5,2.52,10.27,3.61,15.34,2.37,11,4.82,22.4,10.13,31.78,6.47,11.42,4.95,21.91,3.35,33-1.13,7.85-2.3,16-.56,24.81l.25,1.25-3.29,1.24-.65-1.09-11.73-20-1.34-2.3c-9.59-16.37-18.65-31.82-27.81-47.25-9.76-16.44-21-33.55-36.94-47.36,2.39,3.49,4.87,7,7.28,10.36,3.54,5,7.18,10.1,10.62,15.3,7.4,11.17,13.93,21.57,20,31.79a13.39,13.39,0,0,0,2.31,2.58c2.35,2.23,5.56,5.28,3.52,10.67l-.95,2.52-11.25-8.63c-9.82-7.52-20-15.3-29.84-23.11a5.19,5.19,0,0,0-2.29-1.31,1.44,1.44,0,0,0-.69.22h0l.27.31a8.09,8.09,0,0,1,1,1.27c7.33,12.66,19.77,20.18,31.8,27.46l1,.61c19.14,11.59,29.68,28.61,38.84,45a4.59,4.59,0,0,1,.25,3.12,6.91,6.91,0,0,0-.09.69l-.12,2.12-2.1-.24c-.69-.08-1.45-.11-2.18-.14a15.77,15.77,0,0,1-5.56-.91C236,785.58,214,780.55,192.71,775.69c-4.17-1-8.34-1.9-12.51-2.88-3.56-.84-7.06-2-10.44-3.2l-2.52-.85-.68-.25a9,9,0,0,0-1.41-.43,2.77,2.77,0,0,0-.11.38c-.12.46-.41,1.68,2.34,2.64,18.58,6.55,38.62,13,59.34,16.15a5.3,5.3,0,0,1,4,3.82,3.39,3.39,0,0,1-.65,2.81,3.25,3.25,0,0,1-2.55,1H227l-.35,0h-.15l-5.45,1.82c-8.13,2.69-16.52,5.47-24.76,8.43a4,4,0,0,0-.54,1.77c.19.54.31.54.52.54a7.24,7.24,0,0,0,1.9-.48,10,10,0,0,1,1.57-.46c10.28-1.79,20.22-5.57,29.83-9.22l.12,0c2.95-1.12,6-2.28,9-3.37a10.89,10.89,0,0,1,3.69-.64c3.73,0,7.3,1.79,10.75,3.52a31.58,31.58,0,0,0,7.48,3c15.24,3,20.48,14.67,25.1,25,2.37,5.27,4.81,10.72,8.44,14.87.24.28.61.65,1,1.06,2.11,2.07,4.49,4.39,4,6.84a3.43,3.43,0,0,1-2.36,2.51c-3.33,1.24-7.47,2.78-11.83,2.78a15.87,15.87,0,0,1-8.59-2.4c-14.5-8.92-26.16-14.7-37.83-18.73a17.5,17.5,0,0,0-5.06-1.15c-1.12,0-1.26.32-1.31.43.19.61,2.62,1.62,3.42,2,.6.26,1.16.49,1.67.73,7.35,3.45,14.42,7.08,21.91,10.92l.79.41,7.62,3.89,1.06.53-.78,3.25H245.44l-16.44,0c-1.87,0-3.75-.06-5.63-.11s-3.94-.1-5.94-.1c-1.74,0-3.28,0-4.71.13h-.81a12.52,12.52,0,0,0-1.51.07,6.69,6.69,0,0,0,4,2.32,456.7,456.7,0,0,0,49,2.35c10,0,20.77-.22,34.85-.7h.64c8.38,0,11,5.84,13.06,10.53,1.35,3,2.52,5.67,4.86,7l4.87,2.77-5.52.94a16.31,16.31,0,0,0-1.74.43,13.76,13.76,0,0,1-3.54.64,5.7,5.7,0,0,1-1.52-.19c-8.86-2.4-15.92-3.52-22.2-3.52a39.13,39.13,0,0,0-21.56,5.9c-9.6,6.07-14.89,16.12-14.89,28.29,0,12.49-6.78,14.36-10.83,14.36Z"/><path class="cls-5" d="M365.72,1131.73c-6.74,0-12.16-2.51-15.67-7.25-4.18-5.64-5.06-13.81-2.43-22.43,5.37-17.58,15.3-32.52,24.91-47l1.73-2.61c3-4.56,8.06-5.19,12.5-5.75a27.39,27.39,0,0,0,6-1.2c9.88-3.65,17.95-10,26.49-16.8l.1-.08c2.91-2.3,5.92-4.69,9.07-7l4-2.93-.82,4.87a137.62,137.62,0,0,1-4.4,17.25c-2.14,7.08-4.17,13.76-4.69,20.94-1.23,16.41-8.5,32.61-22.25,49.52-6.87,8.46-17.82,19.78-33.44,20.42Z"/><path class="cls-4" d="M405.82,331.62c-25.08,0-45.39-2.05-63.91-6.45-47.63-11.32-68.26-25.11-82.17-37.11-.79-.68-1.66-1.37-2.56-2.09-5.55-4.43-13.15-10.5-9.67-20.39,3.67-10.43,13.8-13,23-14.52a74.4,74.4,0,0,1,12.41-1c15.35,0,30.07,4.48,44.3,8.82,3.39,1,6.89,2.09,10.34,3.08,5,1.42,8.63,6.22,12.16,10.85a57,57,0,0,0,5.71,6.78,219.52,219.52,0,0,0,41,30.55l1,.58c8.69,5.1,17.68,10.38,27.49,17l5.16,3.48-6.22.18C417.22,331.53,411.32,331.62,405.82,331.62Z"/><path class="cls-4" d="M406,916.69c-7.17-2.45-14.49-3.42-21.57-4.36-8.47-1.13-16.47-2.19-24.27-5.54-24.22-10.41-37.32-33.54-32.61-57.55,2.34-12,9.28-18.54,19.54-18.54,5.47,0,11.77,1.93,18.75,5.75,7.32,4,13.39,9.43,19.27,14.68,2.53,2.27,5.14,4.6,7.81,6.78a4.46,4.46,0,0,1,1.8,3.11c.15,2-1.21,3.47-2.41,4.79A7.5,7.5,0,0,0,390.7,868c-4.79,18.17,3.47,31.31,17.34,45.45l.83.85-1.79,2.83Z"/><path class="cls-5" d="M332.11,1021.51a67.35,67.35,0,0,1-12.91-1.46c-6.76-1.33-12.68-5.09-18.66-9.16-11.39-7.75-7.11-25.52-2.28-33.31,9.13-14.73,23.21-18.8,39.32-22.27a13.25,13.25,0,0,1,2.85-.32c5.06,0,9,3,12.44,5.74,2.28,1.77,4.63,3.6,7.14,4.48,10.57,3.71,21.6,3.78,33.28,3.84,2.54,0,5.12,0,7.73.08l7.71.15-6.81,3.62c-22.21,11.78-38.36,22.58-50.25,40C347.7,1018.69,341.31,1021.51,332.11,1021.51Z"/><path class="cls-4" d="M265.6,1203.3a18.2,18.2,0,0,1-8.23-1.6c-11-5.69-17.67-22.73-14.2-36.46,6.52-25.77,21.25-48.91,45-70.76,3.91-3.6,9.83-4.58,15.56-5.53a61.5,61.5,0,0,0,8.75-1.88c15.36-5,28-15.54,37.59-31.29a34.25,34.25,0,0,0,1.59-3.07c1.54-3.23,3.29-6.89,7.72-6.89a12.33,12.33,0,0,1,5.31,1.45c.3.15.64.29,1,.43,1.56.65,3.31,1.38,3.75,3.09.48,1.93-.88,4-2.26,5.67-12.48,15.44-25.32,34.43-26,58.23-.2,7.54,3.5,14.73,10.14,19.74l1.42,1.07-.89,1.53c-9.34,16.12-22,31.67-38.75,47.53C303.16,1194,279.61,1203.3,265.6,1203.3Z"/><path class="cls-5" d="M295.37,1084.84c-12.65,0-20.3-8.91-20.46-23.84.33-9.33,5-16.56,9.52-23.55,1-1.54,2-3.13,3-4.71a28.55,28.55,0,0,1,4.65-5.42,36.88,36.88,0,0,0,3.27-3.51c2.41-3.13,5.12-4.65,8.3-4.65s5.82,1.42,8.48,2.8a22.1,22.1,0,0,0,4.12,1.81,36.84,36.84,0,0,0,9.11,1.12c6.78,0,13.42-1.77,19.85-3.47l.19,0a6.7,6.7,0,0,1,1.88-.33c1,0,2.91.43,3.65,3.3,3.82,14.68,0,27.36-11.63,38.78-14.48,14.19-27.59,20.88-42.48,21.69l-1.42,0Z"/><path class="cls-4" d="M306.94,956.5c-18.42,0-34.51-9.12-46.52-26.37-6.88-9.87-7.05-22.09-.5-35.33,4.36-8.8,13-13.42,26.3-14.14,1.29-.07,2.6-.1,3.9-.1,21.43,0,38.61,9.37,57.81,23.45a54.74,54.74,0,0,0,4.64,2.93c.86.51,1.72,1,2.62,1.57l4.34,2.66-5,1c-7.56,1.51-13.39,5.4-16.86,11.25-3.77,6.33-4.43,14.38-1.86,22.69.78,2.52.63,4.45-.46,5.92-1.5,2-4.21,2.3-6.4,2.3-.89,0-1.8-.05-2.6-.09s-1.4-.08-2-.08a4.78,4.78,0,0,0-1.21.1A62.49,62.49,0,0,1,306.94,956.5Z"/><path class="cls-6" d="M286.48,1568.53a3.75,3.75,0,0,1-3.33-3.14c-.31-10.18-5.36-18.63-9.72-24.85-1.36-2-1.86-3.72-1.51-5.42.52-2.59,2.8-4,4.63-5.18a17.36,17.36,0,0,0,1.46-1c10-7.89,20.31-15.69,30.29-23.24,2.94-2.22,5.86-4.42,8.77-6.63a11.27,11.27,0,0,1,1.83-1.09c.23-.12.46-.23.68-.36l2-1.12.85,2.11c.22.52.54,1.12.82,1.66.81,1.51,1.72,3.22,1.55,5.09-.63,6.89,2.84,11.77,6.52,16.94,1.1,1.54,2.22,3.13,3.22,4.75l1,1.59-27.26,19.67-.7-2.88c-.28-1.14-.51-2.31-.72-3.35a27,27,0,0,0-1.83-6.52l-.28-.58c-.65-1.35-2-4.17-3.09-4.17a1.65,1.65,0,0,0-.74.25c-2,1.17-1.64,3.14,0,7.13.24.57.46,1.1.64,1.59,1.92,5.22-.67,13.07-3.48,18.21-3.18,5.8-7.22,9.61-11.09,10.46l-.12,0-.17,0h-.2Z"/><path class="cls-5" d="M248.92,1011.41c-2.55-.33-5.18-.6-7.5-.83C228,1009.24,215.33,1008,207.5,995c-2.72-4.52-3.26-10.52-1.54-16.91,2.38-8.75,8.6-17,15.87-20.95,12.06-6.58,24.94-11.34,37.07-15.5a7.46,7.46,0,0,1,2.46-.43c3.38,0,5.52,2.43,7.4,4.57a14,14,0,0,0,3,2.81l.41.24c8.34,4.86,16.22,9.46,25.73,10.32a3.55,3.55,0,0,1,3.1,2.11c.67,1.59.82,4.59-5.53,12.36-5.1,6.23-7.88,13.45-8.76,22.69-.7,7.38-6.88,8.36-11.39,9.07a21,21,0,0,0-4.69,1.07c-5,2.08-10.51,3.05-15.35,3.91-1.91.33-3.86.68-5.64,1.07l-.34.08Z"/><path class="cls-3" d="M201.34,1395.87c-5.08,0-10.74-9.41-11.37-10.48-11.06-18.92-22.49-38.48-18.92-62.84,2.86-19.46,9.44-35.68,20.13-49.59,14.66-19,34.74-29.59,65.1-34.16l4.86-.75c9.27-1.45,18.83-2.94,28.73-2.94,1.76,0,3.52.05,5.23.14l3.7.21-2.2,3-3,4-.18.25c-10.34,13.79-20.1,26.82-20.51,44.37-.08,3.29-1.73,3.78-2.7,3.78a4.15,4.15,0,0,1-2.65-1.33,4.81,4.81,0,0,0-.5-.41c-11.91-8.47-24.64-14.59-40-21.69a10.54,10.54,0,0,0-4.15-1.17,2.08,2.08,0,0,0-2.21,1.44c-.31.75-.31,1.13-.26,1.23.16.36,1.61.8,2.3,1a10.69,10.69,0,0,1,3,1.28c5.48,3.8,11.71,6.72,17.74,9.55,7.9,3.71,16.05,7.53,23,13.46l2.77,2.36-3.48,1.07c-22.28,6.86-43.44,16.46-63.92,25.74l-5.53,2.51c-1.87.85-2.34,1.51-2.45,1.83,0,.1-.13.37.17,1,.18.35.31.49.88.49a10,10,0,0,0,2.41-.49l.63-.17a53.18,53.18,0,0,0,6.19-2c4.8-2,9.58-4,14.36-6.08l.28-.11c3.61-1.54,7.21-3.08,10.83-4.59a4.25,4.25,0,0,1,1.71-.31l.64,0h.45l2.18-.08v2.08a5.83,5.83,0,0,0,.06.71,5.42,5.42,0,0,1-.26,2.91l-1.29,2.9c-4.7,10.55-9.53,21.39-14.51,32-.1.22-.21.44-.32.66a17.79,17.79,0,0,0-.83,1.85l.39,0c2.39,0,4-3.39,5-5.62l.09-.21c1.5-3.14,3.06-6.25,4.57-9.26,4.74-9.45,9.64-19.21,12.38-29.79,1-3.94,6.48-6.07,11.76-8.12,1.94-.76,3.76-1.47,5.28-2.22,3.68-1.82,6.73-2.71,9.31-2.71,7.77,0,9.26,7.82,10.34,13.53a33.37,33.37,0,0,0,1.55,6.17c.77,1.8.46,3.84-10.75,12-10.71,7.77-19.61,17.75-28.23,27.4-2.21,2.49-4.5,5-6.81,7.56-8.82,9.63-17.94,19.58-28.52,27.76A4,4,0,0,1,201.34,1395.87Z"/><path class="cls-5" d="M230.83,1111.66A48.36,48.36,0,0,1,208,1105.5c-9.09-4.94-14.93-11.94-16.87-20.23-2-8.52.28-17.73,6.56-26.63,14.94-21.2,36.53-35.68,67.93-45.59a161.84,161.84,0,0,0,15.12-5.9c2.39-1,4.86-2.08,7.35-3.08l2.61-1.06.14,2.81c0,.54,0,1.11,0,1.66s0,.81,0,1.06c3.31,2.38,4.95,4.72,5,7.14.08,3.46-3.05,5.84-5.57,7.75a20.65,20.65,0,0,0-2.57,2.17c-22.45,24.64-20,39.76-14.54,51.3,3.4,7.26,4.1,12.8,2.12,16.94-2.64,5.53-9.06,7.11-15.27,8.64-3.42.84-6.63,1.63-8.61,3A35.47,35.47,0,0,1,230.83,1111.66Z"/><path class="cls-6" d="M153.15,1618l1.83-3c7.7-12.8,16.43-27.82,22.48-44.14a10.59,10.59,0,0,0,.37-2.23c.29-2.83.83-8,7.41-8a15.71,15.71,0,0,1,2.28.18c2.2.33,4.46.56,6.65.79,5.83.6,11.79,1.21,17.54,3.58a2.22,2.22,0,0,0,.82.18c1.06,0,1.91-1.27,2.33-2-.29-.16-.68-.34-1-.47l-.19-.08a59.55,59.55,0,0,0-25.12-5.86c-.94,0-1.91,0-2.87.08h-.5c-3.57,0-3.67-2.78-3.73-4.28l0-.55c-.22-4.91.73-8.41,2.91-10.68,2-2.06,4.76-3,8.81-3a52.22,52.22,0,0,1,6.43.52h0a4.82,4.82,0,0,0,1.83-.79,5.23,5.23,0,0,0-1.77-1.18,45.28,45.28,0,0,0-5-1c-4.44-.7-9.46-1.49-11.8-5.34-1.62-2.67-1.67-6.35-.14-11.22-1.27-4.07-2.57-8.09-3.87-12.11l-.09-.3c-3-9.29-6.1-18.89-8.73-28.47-4-14.71-3.26-27.61,2.36-39.41,4.61-9.65,12.24-16.47,19.61-23.07,5-4.43,10.07-9,14.06-14.32,3.79-5,7.23-8.4,11.73-8.4,2.84,0,5.75,1.38,8.9,4.2a53.68,53.68,0,0,0,5,3.78,52.93,52.93,0,0,1,5.53,4.23c3.73,3.37.92,6.52-.75,8.4l-.35.4c-1.7,1.93-3.44,3.85-5.18,5.78l-1.18-.93,1.11,1c-5.7,6.28-11.59,12.78-16,19.93-8.26,13.55-9.08,29.13-2.66,50.5l1.63,5.42-4.67-3.19a17.74,17.74,0,0,0-10.47-3,59.22,59.22,0,0,0-7.12.56l-.38,0a5.29,5.29,0,0,1-2.36-.71l-.6-.28s-.07.11-.11.19c-1.15,2.23-1.11,3-1,3.31a.84.84,0,0,0,.11.27h0a1.71,1.71,0,0,0,.4,0,10.53,10.53,0,0,0,1.38-.15,11.38,11.38,0,0,1,1.17-.15c1.75-.14,3.47-.21,5.12-.21,6.8,0,15.53,1.22,18.53,7,4.37,8.48,6.06,18.37,7.68,27.92l0,.2c.39,2.3.8,4.69,1.24,7,1,5.11,1.64,10.33,2.29,15.38.62,4.87,1.26,9.91,2.17,14.78,0,.15.07.38.1.67.3,2.36.68,3.1.86,3.32a5.27,5.27,0,0,0,1.75-1.29c4.44-4.36,9.26-8.37,13.93-12.24s9.19-7.62,13.35-11.7c3.36-3.3,5.95-4.77,8.39-4.77,3.74,0,5.64,3.5,7.32,6.58.36.67.73,1.34,1.12,2a17.33,17.33,0,0,1,2.05,6.85,29.29,29.29,0,0,0,2,7.09c2.41,6.5,5.14,13.87-3.38,21.34l-3,2.61-.34-3.94c-.61-7.1-1.75-12.32-5.51-16.37l-.28-.3a8.17,8.17,0,0,0-.94-.93,1.74,1.74,0,0,0-.35.32l-.35.37c-.94,1-.94,1-.45,1.87,10.09,17.8,2.62,33.15-5.9,47.35l0,.1c-.33.78-1.22,2.86-3.31,2.86a3.57,3.57,0,0,1-2.65-1.36c-2.89-3.2-6.66-5-10.65-7-.85-.4-1.7-.81-2.54-1.23-10.57-5.32-20.22-9.72-31.17-9.72-.59,0-1.18,0-1.77,0a3.55,3.55,0,0,0-1.16.68,3.83,3.83,0,0,0,.55.6,77.75,77.75,0,0,1,29.4,10.58,40.26,40.26,0,0,0,5.91,2.81c1.4.59,2.86,1.19,4.24,1.86l1.07.53-.76,3.27Z"/><path class="cls-6" d="M244.11,1404.88a5,5,0,0,1-2.2-.55c-6.1-2.91-11.37-7.46-16.46-11.86l-.09-.08c-1-.87-2-1.75-3-2.6a2.16,2.16,0,0,1-.75-1.51c-.14-1.86,2.62-6.19,3.86-7.59,9.88-11.28,20-22.53,29.82-33.4l1-1.16c1-1.14,2.55-2.5,4.06-2.5a2.46,2.46,0,0,1,.72.1,5.62,5.62,0,0,1,2.85,2.46,6.85,6.85,0,0,0,.54.71l.89,1-.62,1.2c-4.67,9.1-5.56,17.93-2.58,25.54,4.64,11.85-3.37,16.69-9.23,20.22l-.31.38a5.17,5.17,0,0,1-1.43,1.34c-.78.46-1.43,2-2,3.28C248.23,1402.12,247,1404.88,244.11,1404.88Z"/><path class="cls-3" d="M130.2,1203.46c-13,0-23-5.69-32.5-18.46a5.07,5.07,0,0,0-3.71-2.35,2.88,2.88,0,0,0-1.23.29l-2.6,1.21-.19.09c-8,3.77-16.32,7.67-25.86,8.22l-2.11.12v-23.26l.26-.46c.09-.16.16-.32.23-.47a4.5,4.5,0,0,1,.72-1.18l3.83-4c6.44-6.66,13.09-13.53,18.93-20.81,6-7.51,11.69-15.47,17.18-23.18l.11-.15c2.38-3.34,4.84-6.79,7.29-10.16l2.19-3,1.3,3.47c.22.58.42,1.15.6,1.7a21.09,21.09,0,0,0,1.2,3c1.14,2.13,2.3,4.25,3.45,6.37l.24.44c8,14.76,16.37,30,19.7,47.39a14,14,0,0,1,.06,3.38c-.07,1.19-.19,3.17.3,3.68a1.5,1.5,0,0,0,.95.23l.46,0a2,2,0,0,0,1.51-.72c.59-.76,1.16-2.56.5-6.88-2.9-19.4-12.24-36.77-21.27-53.56l-1.5-2.79a15.58,15.58,0,0,0-1.62-2.25c-1.79-2.24-4.22-5.28-2.3-9.18l.37-.74c8-16.22,16.21-33,39.22-33.78h.9c4.56,0,6.9,1.59,7.83,5.32a209.39,209.39,0,0,1,4.21,21c.83,5.85,1.56,11.81,2.26,17.57,1.18,9.69,2.39,19.62,4.11,29.27a31.87,31.87,0,0,1,.37,4.1c.12,2.76.24,5.22,1.56,7.09,1.57-7.62.92-15.47.29-23.07-.28-3.46-.58-7-.67-10.57-.25-9.59-1-19.62-4.61-28-1.62-3.72-1.87-7.26-2.11-10.67a27.51,27.51,0,0,0-1.27-7.75l-.06-.16c-1.58-4.17-.43-4.71,13.55-11.33.49-.23,1-.47,1.44-.71.86-.44,1.73-.89,2.66-1.26a19.83,19.83,0,0,1,2.63-.76l.11,0,.93-.23,3.8-1-1.41,3.67c-.12.29-.2.6-.3.91a7.38,7.38,0,0,1-1.4,3c-5.13,6-6.79,14.82-4.56,24.18,2.6,10.89,9.72,20,18.58,23.66a19.08,19.08,0,0,0,4.17.85c3.51.49,7.86,1.1,10.27,4.31,1.51,2,2,4.67,1.5,8.08a27.7,27.7,0,0,1-3.32,8.55c-.56,1.07-1.14,2.18-1.63,3.26a140,140,0,0,1-42,53.34c-10.75,8.43-23.48,13.3-38.9,14.88A46.44,46.44,0,0,1,130.2,1203.46Z"/><path class="cls-3" d="M171.43,1054.05c-3.51,0-6.85-1.35-10.21-4.14-7.3-6.09-8.14-13.36-8.88-19.77a59,59,0,0,0-.91-6.14c-4.59-20.52-11.1-37.67-19.9-52.44-.24-.39-.47-.84-.72-1.31-.43-.81-1.34-2.53-1.89-2.75-.45,1.69-.27,4.85.36,6,7.64,13.69,11.8,28.68,15.83,43.19,1.15,4.16,2.35,8.47,3.61,12.7a8.49,8.49,0,0,1-.1,4.2c-.09.45-.19,1-.23,1.37l-.27,2.58-2.42-.92c-.24-.09-.49-.16-.73-.24a9.34,9.34,0,0,1-2.16-.91l-25.35-15.69-1.61-1c-15.74-9.75-32-19.83-48.07-29.72-.5-.3-1-.68-1.61-1.07a21.1,21.1,0,0,0-3-1.84L62,985.59v-28l1.68-.27a57.38,57.38,0,0,1,9.21-.72,68.3,68.3,0,0,1,7,.37c1.27.13,2.73.27,4.12.27,3.9,0,6.47-1.1,8.87-3.81,10.37-11.72,25.31-17.66,44.42-17.66.85,0,1.69,0,2.53,0,22.09.62,41.22,12.26,55.42,22.33.25.18.53.36.83.56,3.1,2.08,9.54,6.4,5.12,15.19-3.61,7.14-4.06,14.56-1.23,20.36,6.09,12.54,17.15,19,37,21.74l6.09.83-5.41,2.91A192.07,192.07,0,0,0,218,1032.47c-10.86,7.68-21.12,14.93-34.06,18.24a39.87,39.87,0,0,0-4,1.33A24,24,0,0,1,171.43,1054.05Z"/><path class="cls-3" d="M108.87,1071.85a10.47,10.47,0,0,1-6.88-2.35,205.92,205.92,0,0,0-38.88-25.36l-1.11-.55V988.12l4.59,3c9.43,6.28,19.09,12.55,28.43,18.61l-.72,1.32.82-1.26c7.86,5.11,16,10.38,23.94,15.64,9.72,6.43,19.51,13.09,29,19.54l1,.68q5.79,3.94,11.59,7.88l2.54,1.73-2.6,1.63c-7.51,4.7-15.37,6-23,7.28-5.26.87-10.22,1.69-15,3.58l-1.93.79-.17.08C117.13,1070.07,112.91,1071.85,108.87,1071.85Z"/><path class="cls-3" d="M62,1080.33l1.77-.21c9.3-1.08,16.44-2.11,23.13-3.33a95.77,95.77,0,0,1,10.84-1.12c6.66-.43,13.54-.88,19.61-4.17a2.84,2.84,0,0,1,1.38-.33c1.91,0,4.1,1.67,4.79,2.31,1.58,1.46.27,4.39-.37,5.58-1.23,2.31-2.4,4.76-3.53,7.13-2.83,6-5.75,12.09-10.12,17a31.84,31.84,0,0,0-3.94,6.12c-3,5.5-6.38,11.74-16.39,12.79a144.77,144.77,0,0,0-24.62,4.8l-2.55.74Z"/><path class="cls-3" d="M62,1132.07l1.45-.41c5.1-1.46,10.22-2.85,15.63-4.32,3.87-1,7.86-2.13,12-3.29l5.65-1.56-3.51,4.69-1.86,2.5c-.88,1.19-1.39,1.89-1.94,2.57l-7.61,9.55q-8.14,10.21-16.26,20.45L62,1166.77Z"/><path class="cls-3" d="M62,1047.79l2.94,1.56a179.14,179.14,0,0,1,29.25,19.2l3.48,2.83-4.43.7c-2.73.42-5.46,1-8.09,1.48-6,1.17-11.66,2.28-17.5,2.28h-.78c-.8,0-1.68,0-2.69.13l-2.18.2Z"/><polygon class="cls-2" points="6 8.83 58 60.83 58 1619.17 6 1671.17 6 8.83"/><path d="M1024,8V1672a8,8,0,0,1-8,8H8a8,8,0,0,1-8-8V8A8,8,0,0,1,8,0H1016A8,8,0,0,1,1024,8Zm-8,1658.34V13.66l-48,48V1618.34ZM962.34,56l48-48H13.66l48,48H962.34ZM13.66,1672h996.68l-48-48H61.66ZM960,1616V1095.93a15.82,15.82,0,0,1-3.08,3.79C944.88,1110,931,1115,915,1111.15c-9.48-2.27-10.92,7.14-15.95,11-20.56,15.72-41.43,21-67.36,12.43-20.62-6.83-31.16-21.59-43.76-36.78-8.26-10-13.38-23.94-25.84-29.19-7.35-3.1-15.87-6.32-25.22-5.06,14.29,13.32,20,29.31,18.35,48.65-1.62,19.53-18.39,41.21-40.77,39.26-10.61-.92-21.12-1.69-31.33-4.82a14.14,14.14,0,0,0-1.95-.31,6.67,6.67,0,0,0,.65,2.23c14.28,17.88,17.8,38.64,12.78,60-5.12,21.79-39.19,30-56.18,14.77-7.89-7-18.09-11.46-25.18-22.77,3,12.92,4.28,24.17,1.54,34.89-3.72,14.58,10,13.89,15.95,19.29,17.74,16,35.56,31.72,37.93,57.32a24.89,24.89,0,0,1-5.76,17.15c-7.93,8.74.83,14.5,2.78,20.63,5.47,17.18-4.62,47-20.47,57.35-18.53,12.08-39.64,13.13-57-3.06a11.64,11.64,0,0,0-3-1.46,12.25,12.25,0,0,1,1.31,2.64c4.38,20.69,8.26,41.32,3.45,62.63-3.17,14.08-7.29,27.2-19.41,36.42-10.42,7.93-21.11,5-31.79,1.22-2.91-1-5.8-3.9-8.69-2.25-2.54,1.45-2.28,4.85-2.65,8-2.76,23.76-13.88,42.45-32.73,57.94-17.31,14.23-36.73,13.78-55.9,11.26-23.3-3.07-38.33-19.53-49.85-39-.74-1.24-.37-3.3-2.59-2-15.54,8.73-29.28.81-42.94-5.06-6.91-3-9.85,2.61-13.13,5.29-15.86,12.94-32.49,25.09-45.17,41.59A169.88,169.88,0,0,0,265,1616Zm0-568.32V991.05c-16.77-5.2-33.22-11.4-49.74-17.47-6-2.2-13.94.86-21,1.59q-37.59,3.92-75.18,7.94c-3.09.33-8.38.69-8.73,2-.83,3.17,3.61,3.75,5.86,5.35,13.75,9.77,26.89,20.81,41.77,28.44,6.83,3.51,17.39-1.13,25.83.34,18.31,3.17,37.48,2.4,54.73,10.84,2.14,1.06,6,1.92,4.9,4.82-1.38,3.55-6.18,3.1-8.37,1.7-10.71-6.82-23.1-5.17-34.63-7.23-9.73-1.75-19.82-3.93-31.69-1.59,12.38,8.83,23.84,16.92,35.21,25.14,6.44,4.65,12.83,9.4,19,14.39,1.06.85,1.81,3.57,1.23,4.65-1,1.92-3,1.06-4.68,0-18.49-11.74-37.19-23.12-54.49-36.69-7.62-6-16.39-10.51-26.87-17.1,5.29,11.3,9.11,21.14,14.31,30.19,7.58,13.19,16.12,25.84,24.35,38.65.91,1.41,2,2.89.16,3.64-3,1.2-6.45,1.15-8.35-1.84-10.24-16-20.88-31.84-30.14-48.42-4.85-8.69-6.44-19.16-10.83-28.18-4.56-9.37-16.25-11.59-22.53-19.21-13-15.75-28.93-2.1-43.11-5.62,10.45,5.58,21.71,9.71,29,19.52,7,9.45,11.5,19.13,11.75,32,.3,15.7-7.84,21.71-19.77,26.67-2,.83-3.18,1.49-.68,4.47,11.08,13.16,22,26.55,31.94,40.56,9,12.71,42.18,22,57.46,17.35,14.71-4.47,26.49-11.12,34.93-24.21,1.67-2.59,7.24-2.23,11.58-1.5,13.43,2.23,27.08,1.14,36.41-9.53,7.69-8.78,8.67-20.41,5.83-32.19C954.12,1055,954.36,1049.74,960,1047.68Zm0-64.52v-20.7c-5,1.72-10,3.5-15,5.45s-11-1.27-14.31,4A219,219,0,0,0,960,983.16Zm0-29.27V921.37c-1.43,1.33-2.84,2.67-4.22,4-11.91,11.87-25,22.67-34.08,36.49C934.84,961.19,947.48,957.91,960,953.89Zm0-41.44V870.63a163.6,163.6,0,0,0-18.48,9.49c-7.18,4.35-9.09-3.2-8.38-8.12,4-27.53-28.85-53-49.48-48.07-16,3.8-21.1-8-31.24-12.58-20.3-9.16-36.23-.14-52,12.44-15.43,12.33-26.86,28.26-40.82,41.85-1.58,1.55-2.07,4.5-.74,7.74,5.43,13.18-2.81,22.75-9.7,33.32,19.25,2,37.31,8.8,45.22,26.51s1.31,29.66-16.74,43c13.55,3.4,18.39.74,27.41-14.81a70.22,70.22,0,0,1,5.84-8.49c5.15-6.48,4-13.49,3.4-21.12-.86-11.75,1.47-23.77.31-35.47-1.32-13.34,3.38-26,2.6-39.17-.34-5.68,2.14-11.55,3.46-17.31.38-1.65,1.65-2.82,3.29-1.79.75.46,1.09,2.1,1.07,3.2-.61,25-.94,50-2.35,74.95-.22,3.85,2.27,8.48-1.4,12.36-.78.83.61,3.71,1,5.65,1.44-1.2,3.34-2.14,4.26-3.66,10.21-16.85,24.13-30.63,37.05-45.22,7.26-8.2,14.66-16.28,22.29-24.12,1.45-1.5,3-6.27,5.54-3.29,1.87,2.23.59,6.56-2.14,9.58-10.67,11.76-21.11,23.73-32.8,36.93,21.26-4.24,38.17-13.94,55.5-22.48,3.28-1.62,4.95-.16,6.29,1.57,1.7,2.21-1.18,3.2-2.39,3.93-19.34,11.73-39.42,21.5-62,25.82-10.29,2-13.22,12.55-18.58,19.85-9.82,13.35-18.86,27.28-29.68,43.1,15.52-4.94,30.81,1,42.92-13,16.56-19.05,38.43-32.26,58.82-47,1.42-1,2.65-2.12,4.13,0,2.07,2.93.53,5.19-1.61,6.74-8.58,6.19-19,10.74-25.63,18.52-9.38,10.93-23.72,16.17-30.78,29,17.94-2.48,36.41-3.7,54.13-8,10.05-2.43,13.57-14.83,21-21.91C938.77,930.83,949.07,921.24,960,912.45Zm0-50.54V64H64V950.78c6.72-.75,13.56-.11,20.24-.87,5.14-.58,9.5-6.55,14.59-9.43,24.7-14,49.46-15.66,75.5-2.29,10.91,5.6,21.29,11.46,30.4,19.53,2.46,2.18,3.57.92,5.16-.65,11.81-11.72,28-14.29,42.55-20.14,1.08-.44,4.19.69,2.88-1.49-1.64-2.73-2.23-8.63-5.7-7.68-28.47,7.84-46.25-18.32-48.43-39.6-.94-9.18-8.07-4.65-11.82-6.65-15-8-20.66-36.43-8.29-47.9,1.93-1.79,1.54-5.79,7.87-4.8-20.78-7.19-39.34-12.69-55.81-23.73-12.71-8.53-20.24-29.49-13.87-43.59,5.75-12.76,12.35-24.56,28.29-26.74,2.55-.35,1.53-2.37.12-4-14.48-16.3-20.59-35.82-18.48-57,2.55-25.59,13.58-47.72,38.45-57.74,15.66-6.3,32.92-5.74,49.09,3.34a93.3,93.3,0,0,1,29.19,24.76c2.38,3.1,4.3-1.46,4.4-2.9.93-13.52,11.71-18,21.34-23,18.87-9.81,40.63-6.19,51.86,8.78a91.78,91.78,0,0,1,12.7,22.5c3.06,8.21,3.85,17.26,5.57,25.63,14.34-20.56,28.22-41.85,43.56-62,12.2-16-3.92-24.09-9.44-33.32-14.09-23.57-33-43.72-54.53-61.1-20.22-16.31-41.63-29.89-68.14-33.73-13.72-2-27.13-5.12-39.73,3.89-1,.74-4.6-.3-5.6-1.59-3.23-4.21-.34-9,1.84-11.78,7.69-9.93,8.16-22.05,10.86-33.29,2.64-11,25.68-41.57,35.32-45.28,42-16.2,57,2.91,75.32,29.67,6.9,10.08,12.28,3.73,17.2,1.75,19.7-7.93,50.76-2.63,66.09,10.67,6.54,5.66,12.86,11.45,17.79,18.26,4.72,6.52,7.54,14.42,11.53,22.38,2.47-11.92,5.12-23,7-34.14,2.22-13.34,4.41-26.75,5.4-40.22,1.32-18.13,1.32-36.66-3.34-54.11-4.51-16.94-13.28-18.11-32.38-14.84-15.2,2.59-31.28,1.57-46.84.35-22.06-1.72-43.87-5.8-64.71-13.64-23.94-9-47.23-19.2-64.34-39.48-11.22-13.3-5.72-27.59,14.37-36.37,17.66-7.72,35.06-3.79,52.41,1.43,5.25,1.58,10.57,2.93,15.89,4.27.42.11,1.59-.81,1.54-1.08-.41-2-.64-4.18-1.65-5.87-5.81-9.63-10.71-19.74-5.21-30.78,6.42-12.9,18.55-9.5,28.69-7,20.24,4.93,38,15.18,53.3,29.38a10.45,10.45,0,0,0,2.39,1.26,22.28,22.28,0,0,0,.24-3.72c-1.08-11.06-1.16-22.22,6.61-31,10.3-11.69,37.86-4.62,46,10.74,3.14,6,8.27,10.89,12.81,16.69,4.78-12.52,1.56-26,8.37-37.84,4.5-7.82,9.07-13.19,18.34-12.54,9.78.69,16.88,6.2,22.34,13.93,11.37,16.1,12.52,35.08,14.66,54,7.73-18.47,14.76-36.53,32.5-48.42,19.16-12.85,37-6.68,41.83,16,1.73,8.09.55,16-.89,25.37a76.82,76.82,0,0,1,27.81-21.44c12.91-5.9,31.49,4.67,34.35,18.48,2.33,11.24-.2,21.26-3.88,31.44a6.12,6.12,0,0,0,.16,2.3,15.84,15.84,0,0,1,1.9-1.1c14.39-5.83,29-9.9,44.52-4.69,14.87,5,23.22,28.27,14.94,41.44-3.3,5.25-6.37,10.65-9.76,16.34,13.64,1.17,27.36-1.44,40.65,4.08,12.5,5.19,22,18.84,19.23,30.57-.72,3-13.74,16.57-24.09,25,17.66,2.89,30.58,12.67,38.94,27.81,7.14,12.92-6.13,32.67-20.49,35.34A137.89,137.89,0,0,1,728,448.58c-23.57-3.49-47.75-5.53-69.71-16.62-8.13-4.11-17.15-6.42-25.43-10.27-8.71-4.06-17.38-8.12-25-14.4-7.36-6.06-12.19,2.65-15.78,6.08-22.45,21.48-45.64,42.21-66.35,65.53a813.42,813.42,0,0,0-51.32,64.39c-5.53,7.66-12.53,15.25-14.43,25.68,10.18-4.14,21.34-7.36,31.12-13,14.73-8.46,22.32-24.28,33.76-36.22,16.86-17.6,36.59-29.43,60.62-35.13,23.26-5.52,44.64-3.1,67,5.42,9.17,3.5,21.68-2.6,32.71-3,26.41-.91,51.14,6.29,71.64,22.55,10.9,8.65,23.76,16,31,29.1,3.17,5.74.79,11-2.06,14.1-13.48,14.65-27.95,28.63-47.18,35.43-20.08,7.1-40.85,7.61-61.67,3.1-6.17-1.33-11.29,1.69-16.54,3.78-24.68,9.82-49.13,5.58-73.74-.41-24.22-5.89-45.49-18-66.22-31-10.82-6.81-19.06.48-27.75,3.62-13.09,4.73-26.47,8.59-38.26,17.1-15.31,11.06-21.71,27.88-31.18,42.73-12.5,19.6-24.29,39.65-36.76,59.27-1.81,2.84-.79,3.47,1.1,4.31,19,8.38,26.19,24.18,19.8,43.06-.81,2.37-1.1,5.71,3,5.78,23,.4,31.46,21.94,23.85,35.59-10,17.87,5.05,24.48,9.81,35.68,3.07,7.24,7.44,13.93,11.35,20.81a17.73,17.73,0,0,0,2.89,3.07,24,24,0,0,0,.75-3.6c1.13-20.09,3.76-39.52,17.79-55.66,17.92-20.62,46.79-27.05,59.2.79,3.73,8.35,1.91,17.52-2.66,28.46,11.5-8,21.7-11.86,32-15.58,12.73-4.57,30,7.08,29.91,20.4,0,3.31,1.62,6.48,0,10.05-.72,1.61.33,4,.57,6.06,1.63-1,3.59-1.75,4.82-3.13,12.5-14,28.77-16.41,46.29-15.61,22,1,40.67,17.78,40.05,36.51-.09,3-1.36,5.89-2.19,9.22,13.92-7.86,55.06-4.38,65.59,8.81.84,1.05,1.38,2.17,2.92.32,9.79-11.71,21.24-22.35,29.3-35.13,14-22.15,58.57-36.73,78.18-20,11.14,9.5,20.87,6.31,31.44,8.14,24.41,4.23,40.27,19,50.48,40.81C946.88,864.54,949.64,866.05,960,861.91ZM758,442c16.1,1,30-9.1,28.75-23.65-.71-8.5-7.7-13.71-13.94-18.35-9.69-7.2-21.39-12.47-33-9.77-7.65,1.78-15.67,4.95-23.42,6.43-21.87,4.18-44.16,7.21-66.42,6-14.07-.74-28.54-.5-42.34-5.36C618,406.2,629.88,411.7,642,417.15c20.61,9.31,41.71,16.38,64.15,20C723.36,439.93,740.63,441,758,442Zm29.27,504.35c-1.06-9.92-5.87-18.48-14.54-22.59-14.49-6.86-30-8.44-46.44-7-32.74,2.79-60.78,17.12-88.65,32.48-4.09,2.26-2.6,6.48-2.46,9.91s3.08,1.35,4.73,1.79c3.23.86,6.76,1,9.72,2.4,19.84,9.29,41.41,11.89,62.56,15.27,17.54,2.8,35.59-.64,52.12-6.39C775.15,968.41,785.65,960.58,787.28,946.36Zm-4.95,106.26c9.51-8.31,6.67-28.39-3.85-39.46-18.09-19-41.56-21.19-67.05-22.26a31.11,31.11,0,0,1-14.93,2.17c-2.86-.27-4.33.24-2,3.27,6.06,7.8,6.64,17.68,3.94,25.66-3.86,11.42,3.64,13.5,10.12,16.84,14,7.2,27.48,15.29,43.64,17.55C762.87,1057.88,773.53,1060.31,782.33,1052.62ZM671.9,539.14h107c-19.09-16.4-36.46-31.32-59.11-38-14.08-4.14-28.23-7.11-43.18-4.28-9.05,1.71-20,5.27-27.34,1.94-25.6-11.58-50.42-9.6-75.56-.72-26.2,9.26-43.68,29.37-60.11,50.2,9.62-1.44,19.53-2.87,29.43-4.4,8.35-1.29,18.29,1.94,24.88-3.74,14.94-12.86,31.61-23.13,47.64-34.35,2.17-1.52,6.84-6.31,9.44-1.21s-3.34,6.26-6.43,8.45l-36.46,25.78c15,0,30.6.08,46.21,0,10.23-.08,21.42,2.16,30.46-1.22,17-6.35,32.54-16.26,49-24.1,3.09-1.47,8.9-2.62,10.92.91,3.12,5.48-3.55,4.92-6,6.13C700.23,526.54,687.6,532,671.9,539.14Zm99,15.75c2.81-2.8,7.35-4.2,7.84-9-4.34,0-8.72-.48-13,0a616.16,616.16,0,0,1-72,3.57c-16.84-.17-33.67-1.28-50.49-1.17-12.17.09-24.32,1.65-36.49,2.23-7.15.35-14.32.07-21.48.07,1.63,2.3,3.39,2.18,4.77,2.85,14.74,7.19,29.69,13.78,45.66,17.92,1.81.47,5.23,1.62,3.63,5.69-1.47,3.76-4.47,2.41-6.16,1.8-17.09-6.16-34.7-11.36-50.89-19.4-18.53-9.2-36.26-5.41-57.82-1.8,15.84,7.77,28.78,14.32,41.88,20.51,21.56,10.19,44.73,16.58,68.1,14.08,21.19-2.26,40.82-11.34,63.76-8.06C726.49,588.14,750.79,574.89,770.9,554.89ZM749.05,376.62c10.17-5.2,22.47-11.72,20.45-26.13-1.41-10.07-10.83-14.21-20.14-16.39-14.31-3.35-30.75-5.67-42.43,1.31A229.29,229.29,0,0,1,649,360.36c-22.48,6-46,9.24-69.46,11-8,.61-16.16,1.45-27.67,1.93,22.81,9.89,43.73,14.11,64.61,17.31,23.66,3.61,47.56,3,71.58.68C709.28,389.27,730.11,386.31,749.05,376.62Zm1.25,508.86c2.85-15.35-17.35-29.22-35.41-28.46a174.5,174.5,0,0,0-38.39,6c-23.66,6.38-44.63,18.46-65.4,30.83-13.63,8.12-26.66,17.26-41.6,27,3.09,0,4.43.24,5.64-.06,1.37-.35,2.69-1.85,3.92-1.73,19.67,2,39,4.87,50,24.51,1.25,2.24,2.31,1.4,3.84.44,10.09-6.29,19.87-13.21,30.42-18.61,21.43-11,44.44-18.3,68.42-18.86C747.67,906.16,748.69,894.15,750.3,885.48Zm-17.57,250.77c16.27-17.76,17.6-36.32,5.18-57.38-8.24-14-22.9-20.22-35-29.51-4.62-3.54-10.58-7.47-15.91-7.45-7.91,0-15.11,4.36-24.07,3.79-14.64-1-27.31-6-40.18-11.74-4.72-2.13-9.91-3.23-14.88-4.8,1,7.95-9.67,13.75-3.28,23.12,15,22,30.78,43.12,49.93,61.6,15.83,15.29,32.6,28.91,56.68,27C718.75,1140.93,727,1142.46,732.73,1136.25ZM715.59,313.38c8.5-10.75,9.91-25.08,2-32.64-13-12.4-49.49-7.27-62.33,9a147.3,147.3,0,0,1-37.76,34c-21,13.08-40,29.2-66.6,42,11-1.67,17.31-1.32,23.88-2.35,24.13-3.77,48.59-5.7,72.14-12.56C672.47,343.41,697.94,335.71,715.59,313.38Zm-36.44,721.56c10.66-3.41,14.3-22.83,6.56-36.16-8-13.81-20.92-19.52-35.89-21.66-6.25-.89-13.3-5.38-18.73-.54-7.51,6.7-15.74,10.1-25.43,10.43-8.12.27-16.25,0-27.39,0,11.74,5.58,19.47,11.13,23.12,21.15a16.88,16.88,0,0,0,7.05,8.48,239.06,239.06,0,0,0,28.88,13.62C650.72,1035.37,664.42,1039.65,679.15,1034.94Zm-5.1,184.35c20.48-10.93,14.17-45.84,4.31-62.12-13.7-22.62-34.74-36.53-57.17-49-3.13-1.74-3.4-1-4,1.41-3.43,13-11.14,21.77-24.33,25.68-1.88.55-6.94.81-5.28,4.35C599.86,1166,611.73,1192.67,636,1211c7.8,5.89,16.38,9.63,26.11,12.49C666,1222.16,670.32,1221.28,674.05,1219.29Zm2.77-378.84c.4-11.71-18.2-23.39-36.84-23.39-6.19-.67-12.61,1-18.69,3.39-18.36,7.1-29.34,22.82-41.58,36.9-1.16,1.33-3,5.63.55,7.49,11.18,5.94,15,15.12,12.68,27.22a13.67,13.67,0,0,1-1.1,2.64,15.41,15.41,0,0,0,3.31-1.15c19.43-12.33,39.66-23.15,60.25-33.43C664.15,855.75,676.36,853.77,676.82,840.45ZM654.59,275.68c7.33-11,13.21-23.39,6.88-36.08-8.6-17.26-22.88-16-40.63.09-16.58,15.07-22,36.05-31.6,54.76a297.45,297.45,0,0,1-49.3,68.93c9.36-5.28,19-10.06,28-16,13.73-9.05,26.56-19.47,40.47-28.23C626.75,307.65,642.56,293.7,654.59,275.68Zm-2.43,1053c6.36-7.08,9.52-16.54,6.16-25.2-8.52-21.92-25.39-37.21-44.27-50.39-3-2.07-4.77-2.5-7.7,1.29-10.47,13.55-32.88,19-46.44,11.72-24.57-13.14-39.33-33.77-46-62.67-5.77,22.37-14.71,40.74-33.25,52.75-3,2-9.65,3.51-9.5,4.46,1.71,11-2.63,25.13,14,29.43,9.83,2.54,19.66,9.85,28.91,9,23.8-2.29,47.37-1.31,71,0,11.69.67,23.31,2.64,35,3.76a4.9,4.9,0,0,1,4.67,4.81c.18,2.67-2.4,3.78-5,3.35-2.86-.48-5.65-1.73-8.52-1.88-15.2-.83-30.57-.33-45.58-2.41a134.18,134.18,0,0,0-38.7,0c3.28,2,6.3,4.65,9.81,6a417,417,0,0,1,74.63,37.49c2.35,1.5,7,2.91,5.08,6-1.78,2.78-6.14,2.17-9.84.18-18.1-9.74-36.36-19.22-54.63-28.64-2.48-1.27-5.38-1.73-8.08-2.56.38,2,.68,4,1.14,6,.6,2.65,1.82,5.26,1.9,7.92.47,16.1,7.24,30.42,12.67,45.08,1,2.55,2.84,5,0,6.6-3,1.7-5.21-.72-6.33-3.53-6.16-15.42-13.33-30.45-14.61-47.47-.52-7-.84-17.61-5-19.93-16.13-9.05-33.86-15.2-50.78-22.91-9-4.09-9.25,1.49-7.69,7,2,7.2.41,14.65,2.19,21.44,1.3,5,.12,10.48,5.49,15.22,19.46,17.15,30.93,40.38,45,61.72,7.48,11.37,12.86,23.78,20.11,35.2,1.22,1.93,5.34,6,.91,9.51-2.89,2.3-4.07-.77-4.89-2.13-11.31-18.93-22.39-38-35-56.15-9.9-14.29-19.76-28.52-32-42.89,0,17.34.17,33.17-.08,49-.1,6.25-3,12.57.55,18.67,12.6,21.62,18,45.78,24.49,69.54.77,2.82,0,5.53-2.45,6.66-1.1.52-3.77.09-4.73-2.81-6.58-20-13.46-39.91-21.09-62.33-1.73,18.4-2.84,34.13-4.79,49.75-1.93,15.42-4.63,30.74-9.94,45.46-.74,2-2.18,3.54-4.45,3.12-2.78-.51-1.8-3.08-1.53-4.51,1.8-9.74,4.71-19.35,5.71-29.16q4.65-45.66,8.06-91.43c1-12.93-.59-26,2-38.9.41-2.05-.78-4.42-1.24-6.64-1,1.52-2.15,3-3.06,4.55-4.24,7.41-7.87,15.23-12.74,22.21-11.3,16.21-18.86,33.91-20.48,53.51-1.57,18.88-7.52,36.32-14.57,53.53-.89,2.17-3.12,6.38-6.48,4.61-2.86-1.51-1-4.84-.17-7.75,3.9-13.61,7.4-27.35,10.79-41.1.94-3.82,1-7.85,1.48-11.78-4.57,2-5.4,6.76-7.63,10.5a61.63,61.63,0,0,1-4.46,6.41c-10.08,12.72-20.12,25.47-30.4,38-1.86,2.27-4.75,5.84-7.79,3.54-2.89-2.19.91-5.12,2-7.37,1.56-3.16,4.33-5.72,6.52-8.58,7.61-10,16.13-19.41,22.61-30.07,18-29.67,35.29-59.82,52.72-89.85,4.58-7.89,11.12-15.7,12.36-24.19,1.43-9.82-1.92-20.36-3.35-30.56-.28-1.94,1.57-5.71-1-5.52-4.37.33-10.15,1.34-12.54,4.32-5.08,6.29-7.94,14.3-12.44,21.13-12.13,18.37-25.92,35.4-42.25,50.27-1.59,1.45-3.24,3.4-5.15,3.84-7.89,1.78-2.94-3.31-2.17-5a19.92,19.92,0,0,1,4.85-6c17.5-16.33,30.15-36.47,43.82-55.8,1.06-1.49.9-3.83,1.3-5.78a37.18,37.18,0,0,0-4.1,1c-13.66,4.9-27.7,9-40.83,15-14.1,6.5-29.77,9.48-42.38,19.5-7.32,5.82-15.63,10.43-23.7,15.24-1.5.9-5.52.73-5.71.16-2.15-6.4,4-8.37,7.29-10.94,24.93-19.69,54.36-30.5,85.94-41.71-22.74-2.07-43.44-.66-64-1.58-12.28-.55-25,.52-37.37-1.4-1.58-.25-6.42-.05-6.24-4.31,0-.81,1.8-2.23,2.75-2.22,16,.16,32,1.61,47.93.57,30.4-2,61,5.75,91.15-1.93,4.68-1.19,13.51-1,13.18-5-.59-7.26,2.14-17.37-6.92-21.68-14.39-6.84-25.72-16-32.6-31-4.46-9.73-4.78-19.7-5.18-34.56-4.65,20.42-15.12,29.63-29.06,37.17-14.3,7.73-31.81,7.73-45.13-1.53-3.37-2.35-5.55-9-11.75-6.41-17.37,7.35-31.88,17.88-41.82,34.58s-14.89,33.35-8,52.52c1.91,5.32,8.58,10.41,4.05,16.65-4.29,5.89-9.63,10.94-13.06,17.59-9.35,18.13-8.59,34.46,10.64,46.65,12.26,7.77,25,7.66,38.55,7.43,12.82-.21,24.36-2.76,34.49-10.8,1-.81,2.23-2.65,3.54-.39.85,1.48,2.9,2.29,1.21,5a186.3,186.3,0,0,0-9.13,17.72c-8,16.89-14.61,34.33-20.77,52-5.58,16-3.91,31.43.07,47,3.43,13.37,15.84,16.79,26.69,21.08,9,3.54,18.38,8.3,26.61-3.06,2.13-2.94,7.81-1.38,9.45,4.43,4,14.09,14.92,24.78,25.53,31.83,12,8,28,9.57,44.21,7.64,16.67-2,27.41-11.29,37.28-22,12.35-13.35,17-30.54,17.54-48.69.31-10.53,7-9.68,13.29-6.58,22.62,11.15,33.15,8.64,42.8-11.91,8.71-18.55,9.15-38.15,5.29-58-2.53-12.91-5.48-25.75-8.06-38.65-.25-1.2.71-2.69,1.31-3.95a3.19,3.19,0,0,1,2.09.45c3.46,2.84,6.74,5.89,10.25,8.68,11.47,9.1,21.89,18.25,39.31,14.38,24.15-5.37,41.19-39.62,25.37-63.11C648.33,1337.84,647.86,1333.52,652.16,1328.72Zm-38.79-352c7.36-2.2,13.67-6.63,13.4-15.27-.41-13.07-18.21-29.94-31.94-31.7-22.8-2.92-44.86.63-66.41,7.6-3.78,1.22-12.06,1.71-10.7,5.51,2.36,6.57-2.88,16.66,6.27,19.73,24,8,48.5,14.35,72.79,16.41C603.08,978.22,608.45,978.22,613.37,976.75ZM587,1127c10.81-2.14,24.62-19.18,23.79-28.75-1.7-19.79-12.38-33.78-29.93-40.73-15.67-6.2-32.23-10-45.8-20.8-.36-.29-1.1-.09-1.66-.11a10.27,10.27,0,0,0,.59,2.16c5.12,9.81,7.83,20.29,10.44,31,2.93,12.08-5.84,25.44,5.3,36.56,8.65,8.65,14.15,20.93,28.31,22.94C581,1128.47,584,1127.54,587,1127Zm5.17-865.19c3.53-12.29,9.06-24.09,8.8-37.26s-8.43-23.66-16.22-21.24c-25.41,7.88-33.21,30.31-41.32,51.63a129.39,129.39,0,0,0-8.4,43.43c-.37,16.44-4.12,32.81-5.91,45.7v12.56c0,2,.58,3.21,2.44,1.24,6.43-6.78,13.57-13.07,19-20.57C567.52,313.88,584,290.12,592.12,261.77Zm5,988.13c15.36-15,8.39-50.65-1.41-68.66-11.08-20.38-24.72-39-42.22-54.67-10.46-9.4-19.67-19.62-35.66-11.82-1.54.75-1.19.8-1.41,2-2.29,12.24-1.47,24.58-1.36,37.9-.8,4.82,1.18,10.33,1.82,16,3.44,30.06,10.7,58,35.35,78.78C566,1260.93,585.29,1261.47,597.16,1249.9ZM564,1042.29c19.34,7.64,34,1.24,33.69-17,0-9.34-5-16.55-11.44-21.91a134.3,134.3,0,0,0-47.73-25.9c-8.16-2.4-16.75-15-26.32-2.63-2.55,3.3-9.57,5.69-6.76,10.61C519.45,1010,536.32,1031.34,564,1042.29ZM587.11,406.5c5.58-4.8,10.77-7.54,1.1-12.66a27.17,27.17,0,0,0-7.06-2.7C555.54,386,532.49,374,508.88,363.62c-14-6.17-23.58-21.46-42-19.42-3.67.4-4.08.13-3.8,3.12,1.67,18.07,3.46,36.13,2.72,54.43-.89,5.3-2.51,10.59-2.56,15.9-.28,27.1-7.15,53.09-14.7,78.65-9.43,31.88-23.33,62.28-38.21,92-8.26,16.49-19.83,31.37-30.27,46.73-13.62,20-28.43,39.25-40.25,60.47-1.33,2.4-1.46,4.93,1,6.65,2.6,1.85,2.94-1.46,4.36-2.33,3.78-2.29,8.1-4,11.17-7.08,6.69-6.61,18.4-.5,23.72-9.89q12.42-21.92,24.89-43.81c8.81-15.47,19.86-29.41,27.64-45.76,8-16.72,20.69-31.11,30.11-47.23,14.55-24.92,33.24-46.65,51.42-68.72,9.9-12,21.8-22.45,33-33.34C560.26,431.26,573.28,418.4,587.11,406.5Zm-.44,405.33c.13-7.31-3.65-13.13-13-12.88-18.46.48-32.72,8.27-42.62,23.6-4.53,7-12.37,14.22-9.46,22.87,3.67,10.89,4.58,21.14,1.61,32.63,4.34-3.3,8.16-6.23,12-9.13,8.82-6.66,22.5-5.06,29.13-11.41C576.6,845.72,586.34,830.24,586.67,811.83Zm-2.78,74.87c-1.09-3.5-1.15-7-3.93-9.8-10.42-10.69-32.05-9.21-44.93,2.6-13.78,12.65-21.54,29.46-32,44.42-.89,1.28-1.78,4.23-1.5,4.39,3.7,2.12,8.55,6.38,11.31,5.33,14.45-5.48,28.9-11.43,42.35-19C567,908.06,578.94,900.64,583.89,886.7Zm-51.5,210.92c6.79-18.16,2.51-36.29-5.16-53.15-6.49-14.28-15.42-27.43-22.36-41.53-4.91-10-9.76-18.11-22.69-12.34-1.08.49-4,0-2.8,2.32,3.64,6.86.45,14.09,1.82,20.46a114.37,114.37,0,0,0,3.86,36.87c4,15,7,30.37,16,43.5S528,1109.26,532.39,1097.62Zm-4.08-841c.13-11.92-3.27-23.92-5.43-35.82-1.76-9.66-5.55-18.82-12.8-25.4-3.94-3.57-9.48-8.28-15.95-3.66-7.27,5.2-9.58,13.1-10.24,21.41-1.38,17.48-2,35.08,1.36,52.34,2.9,14.91,5.91,30.1,11.53,44.11,6.81,17,16.41,32.86,25.35,50.28,0-5.4-.13-9.67,0-13.92.42-11.79.64-23.59,1.55-35.35C525.1,292.6,528.11,274.64,528.31,256.63Zm-1.17,535.68c2.34-10.45-2.35-17.67-10.34-22.08-6.23-3.44-13.49-1.33-20,2.21-25.67,13.95-30.52,45.19-27.08,74.17,17.64-16.52,28.63-18.5,45.08-8-.24-8.69,7-14.26,9-21.74C525.88,809,525.33,800.36,527.14,792.31Zm-12.72,78.87c1.54-9.7,2.82-20.48-9.08-26.32-8.93-4.37-15.8-.92-22.7,4.52-12.47,9.84-14.72,23.69-15.74,38.09-1,9.8,3.1,18.76,4.45,28.1.58,3.95,3,9.67,5.94,10.71,3.74,1.31,11.07.25,13-2.5C501.6,907.85,511.32,890.76,514.42,871.18Zm-3.81-515.84c0-.62.26-1.39,0-1.84-2.86-4.81-6.13-9.39-8.65-14.36-5.84-11.54-11.77-23.07-16.88-34.94-10.13-23.58-4.24-52.32-24-73-8.68-9.12-14.51-21.06-28.38-24.2-10.91-2.47-17.65,5.94-17.65,27.26,1.16,14.18,9.81,30.39,19.3,45.64,19,30.48,44.84,54.63,74.22,75.07A5.56,5.56,0,0,0,510.61,355.34ZM481.24,980.93c17.53-1.11,29.82-13.33,28.6-29.06-.86-11-10.58-17.86-21.83-18.6-16.87-1.1-28.95,10-28.95,25C456.65,972.05,470.27,981.62,481.24,980.93Zm14.15,170.77a67.6,67.6,0,0,0,7.15-38.24c-1.2-1.58,1.87-4.14-1.37-6.58-8.3-6.26-14.15-14.44-16.37-25-.63-3-2.48-5.67-3.76-8.49-1.32,3-3,5.82-3.9,8.91-2.5,8.52-6.77,15.44-14.26,20.74-2.55,1.8-7-.67-7.61,3.5-2.09,14.18-4.14,28.25,3.65,41.8,4.28,7.46,8.45,16.15,17.45,15.95C483.82,1164.16,491.2,1160,495.39,1151.7Zm2.63,70.5c11-20.46,7.26-41.63,4.27-63.82-7.33,13.51-19.54,17.69-31.49,14.16-19.87-5.86-23.67-24.3-26.78-44-.66,3.23-.64,4.87-1.31,6.15-9.28,17.68-12.83,37.45-14.68,56.48-1.55,16-1.61,34.75,13.6,47.19,6.56,5.36,12.35,13.14,21.93,12.48C481.63,1249.55,490.33,1236.51,498,1222.2Zm-24.9-155.52c1.53-21-1.79-41.68-2.41-62.53,0-4.31,0-8.62,0-12.93,0-3.13-2.45-3.76-4.5-4-1.6-.18-3.68-1.31-5.19,1.18-9.29,15.28-20.34,29.36-25.82,47-5.15,16.54-8,32.94-3.59,49.73,1.85,7,7.06,14.26,15.25,13.24C461.91,1096.5,472,1082.2,473.12,1066.68ZM466,930.86a3.21,3.21,0,0,0,.72-2.8c-4.8-13.55-9.89-27-18-39-8.8-13.11-16.73-27.52-35.19-29-13.67,0-20.25,14.82-13.69,29.44,11.43,25.44,34.35,37.18,57.48,48.48C458.76,938.59,463.14,933.45,466,930.86Zm-10-46.78c1.19-5.13,3.4-9.08,2.69-12.4-6.26-28.93-16.89-56-39.14-76.55-5.79-5.35-13.28-11.25-22.93-6.8-11.41,5.28-14,14.6-13.67,26.36.56,23.18,12.94,36.33,35.67,36.16a16.35,16.35,0,0,1,10.65,3.55C439.67,862.48,450,870.66,456,884.08Zm-2.1,98.26c1.88-2.61-2.92-10-4.51-15.2-.8-2.59-2.25-1.89-4.21-1.51a163.3,163.3,0,0,0-55.8,21.67c-14.67,9.13-30.68,17.78-32.27,34.42,0,15.16,8.72,23,20.12,21.09,19.13-3.13,34.35-13.86,47.68-27A267.77,267.77,0,0,0,453.85,982.34ZM474,338.21a227.92,227.92,0,0,1-40.73-42.61c-15-20.29-20.24-47.32-45-60.93-16.08-8.83-31.21-19.18-50.35-19.51-5.26-.1-9.38,2.32-8.78,8.59,1.59,16.36,12,28.5,21.8,40,17,19.94,37.72,35.73,60.67,48.81C430.28,323.21,449.74,331.36,474,338.21ZM451.41,946.56c1-4.61-5.55-4.33-8.75-6.12-4.29-2.39-9-4-13.31-6.39-17.51-9.72-36.3-15.08-56-17.19-6.53-1.09-12.59,1.08-18.67,2.32-11.94,2.43-16.83,14.68-10.33,24.6,10.18,15.51,26.56,17.44,42.66,19,16.85,1.62,33.52-2.5,50.26-3.36C447.14,958.89,449.94,953.21,451.41,946.56Zm-14.26,177.22c5-10.28,7.62-17.88-5.71-23.09-2.66-1-4.88-4.53-6.15-7.4-1-2.16-.86-4.73-3.33-6-1,2-2,4-2.9,6.06-8.95,19.69-21.83,35.28-42.46,44.08-6.14,2.61-14.71-2.27-17.86,3.75-10.19,19.53-21,38.71-18.12,62.76,2.15,18,15.13,23.54,28,25,12.52,0,31.84-12.75,38.4-23.78C422.09,1179.8,424.44,1149.84,437.15,1123.78Zm-11-593.25c6.81-18.4,17.52-35.34,5.26-57-16.8-29.66-50.13-49.38-82.64-34.26-13.42,6.25-19.37,2.86-26.55-8.62-5.82-9.29-12.44-18.83-23-24.48-27.22-14.54-50.42,2.53-63.36,25.39-7.36,13-8.15,28.08-14.91,41.11a10.1,10.1,0,0,0-.56,1.74,6.24,6.24,0,0,0,2.32.17c15.45-5.39,30.9-.77,45.12,3.11a143.93,143.93,0,0,1,66.28,39.77,8,8,0,0,0,2.46,1.16c.1-1,.59-2.15.23-2.92-4.06-8.81-8.28-17.55-12.39-26.34-5.89-12.62-17-17.39-29.53-21.16-13.84-4.15-27.2-9.93-40.64-15.31-2.43-1-4.27-3.44-6.38-5.21a44.84,44.84,0,0,1,6.59-.71c15,.56,27.73,8.55,41.49,13.16a90.7,90.7,0,0,0,8.84,2.05c-1.68-2.45-3.1-5.15-5.1-7.31-9.26-10-18.22-20.34-30.69-26.7-1.81-.92-3.61-3-2-5.34s3.64-2.16,6.41-.73c15.91,8.2,27.7,20.19,38.92,34.28a198.52,198.52,0,0,1,28.5,47.49c7.49,18,13.78,36.35,28.25,50.3.93.89,1.91,1.74,2.86,2.61a17.39,17.39,0,0,1,1-3.94c3.08-5.83-.89-11.89.33-17.4,2.66-12,1-23.93.81-35.85-.18-13.59-3.59-26.73-7.26-39.75-.87-3.08,0-5.73,2.7-6.52s2.57,2.42,3.68,4.1c4.41,6.71,4.78,14.45,6.74,21.85,6.14,23.21,3.61,46.88,2.29,70.08-.7,12.09-1.1,22.32,6.3,32,.68.89,1.28,1.84,1.92,2.77.77-1.24,2.07-2.42,2.22-3.74,2.17-18.75,3.76-37.57,6.35-56.26,2.3-16.54,4.66-33,4-49.78a4.92,4.92,0,0,1,4.49-5.14c1.05-.1,3.31,2.1,3.37,3.33.8,17,.7,34.11-2.74,50.78-4,19.61-4,39.57-7.31,61.32C405,578,408.71,573.44,411,568.28Q419.15,549.65,426.18,530.53ZM426.42,773c2.29-7,1.9-13.72-3.56-18.81-4.1-3.83-8.62-9.33-15.15-6.53-3.69,1.57-8.19,2.64-9.94.6-2.06-2.41-1.35-7,.39-10.74,6.44-13.89,1.56-29.88-11.13-37.4-15-8.9-38.06-.61-44.06,15.81-1.16,3.18-1.75,7.39-4.09,9.18-8,6.08-7.42-4.14-7.49-5.89-.66-17.33.73-34.79-.78-52-1.54-17.57-7.69-33.56-25.05-42.62-14.06-7.35-48.51,4.16-48.77,24.68-.05,3.95-3.47,7.86-5.33,11.79-2.23-1.18-5.19-1.81-6.56-3.63A110.5,110.5,0,0,0,229.25,640c-12.95-11.3-26.23-18.45-45-17.56-27.25,1.28-43.57,31.39-45,49.15-1.78,22.17,3.84,42.2,19.74,58.83,5.05,5.28,5.11,10.74-4.19,11.46-19.47,1.51-25.48,16-29.3,31.47-1.93,7.78,2.41,15.74,8,20.87,16.2,14.85,36.95,20.82,57.54,26.48,4.83,1.33,8.25,3.89,11.77,6.86-1.74,1.78-3.18,4.45-5.29,5.17-6.61,2.26-10.77,6.27-13.48,12.8-5,12.1,2.55,27.62,15.36,30.06,6.26,1.2,9.49,3.16,10.2,11,1.27,14.14,7.35,26.59,21.69,32.86,11.25,4.91,17.43,1.48,17.43-10.19,0-12.9,5.67-23.56,15.82-30,14-8.87,29.88-6.81,45.36-2.62,1.76.48,3.94-.58,5.93-.92-7.34-4.17-5-17.69-17.5-17.26-28.06,1-56.14,1.35-84.12-1.66-2.12-.23-5.19-2-5.78-3.8-1-3,2.8-2.51,4.15-2.59,5.45-.33,10.94.06,16.41.08,12.54,0,25.09,0,37.71,0-10.3-5.22-20.17-10.45-30.27-15.19-2.81-1.32-7.24-2.47-6.08-5.26s5.75-1.47,8.86-.4c13.55,4.68,26.08,11.44,38.23,18.92,6.39,3.94,13.13,1.51,18.67-.55,3.47-1.29-2-5.54-3.46-7.22-11.13-12.76-10.75-34.95-32.42-39.2-7.11-1.4-14-8.43-20.85-6-13,4.67-25.63,10.34-39.32,12.72-1.66.29-5,2.53-6.24-1-.39-1.13.58-3.81,1.52-4.15,10.13-3.65,20.38-7,30.6-10.38,1.07-.36,3.12.68,2.78-1.59a3.36,3.36,0,0,0-2.32-2.13c-20.53-3.09-40.2-9.37-59.7-16.24-2.22-.78-4.28-2.3-3.63-5,.71-3,2.87-1.78,4.79-1.13,4.23,1.42,8.45,3,12.78,4,25.86,6.09,52,11.1,76.59,21.73,2.13.91,4.77.63,7.17.9.05-.92.47-2,.09-2.73-9.67-17.36-20.11-33.4-38.13-44.31-12.37-7.49-25.7-15.31-33.5-28.77-.76-1.31-3.37-2.72-.49-4.34,1.93-1.08,3.37-.19,5.2,1.26,12.84,10.17,25.9,20.07,38.93,30.08,2.26-6-3.54-7.91-5.68-11.52-6.35-10.75-13-21.31-19.92-31.71-5.94-9-12.39-17.59-18.46-26.47-.57-.83,0-2.44.07-3.69a15,15,0,0,1,3.21,1.67c15.72,13.52,27.15,30.44,37.61,48.07,13,21.87,25.79,43.85,40.89,69.57-4.26-21.56,8.11-38.38-2.57-57.24-7.92-14-9.49-31.58-13.93-47.56-.65-2.33-2.23-5.33.44-6.57,3.39-1.59,5.21,2,6.21,4.32,1.46,3.34,1.39,7.33,2.76,10.72,3.9,9.69,4,20.77,11.18,31.49,1.09-24,2.07-46,3.16-70,2.43,4.83,5.29,7.91,5.35,11,.37,21.79,1.05,43.64-.19,65.37-.77,13.48-3.17,26.91-3.76,40.52-.4,9-5.86,19.1-3.09,26.46,5.76,15.24,15.49,29,24.65,45.19.38-3.86,0-5.53.72-6.43,19-25,8.62-55.65,16.28-82.79.69-2.45,2.64-6.57,3.77-6.49,3.14.22,1.66,3.61,1.74,5.71a76.63,76.63,0,0,1-.18,10.39c-1,10.62-2.75,21.22-1.1,33.13,10.27-21,19.92-40.86,29.72-60.61.47-1,2.26-1.27,3.43-1.89.32,1.82,1.37,3.87.86,5.41-8.58,26-23.12,49.36-33.37,74.55-6.44,15.82-28.14,30.13-7.37,50.21,0-5.22-1-11,.28-16.25a34.81,34.81,0,0,1,7.47-14.46c13.82-15.49,27.91-13.11,45.67-1.64a26.34,26.34,0,0,0,3.67,1.65c.29-.7.94-1.49.8-2.09a72.14,72.14,0,0,0-2.82-10c-4.63-11.38.67-30.74,12.87-40.35,9.53-7.5,20.34-6.93,30.51.21,5.08,3.56,6.53,0,7.54-4.13C425.39,776.62,425.83,774.76,426.42,773Zm-5.89,288.66c1-13.16,6.85-24.82,9.12-38.37-12.43,9.17-22.51,19.11-36.16,24.16-5.87,2.17-13.73.41-17.56,6.18-10.28,15.49-20.8,30.72-26.4,49.05-4.49,14.7,2,27.69,17.23,27.07,13.72-.56,23.85-9.69,32-19.68C410.15,1096,419.17,1079.92,420.53,1061.62Zm3.27-732.28c-10.12-6.82-19.36-12.21-28.37-17.5A222.4,222.4,0,0,1,354.06,281c-5.91-5.62-10.28-15.23-17-17.16-21.47-6.13-42.9-14.77-66.17-10.82-9,1.53-18.18,3.92-21.45,13.22-3.52,10,6,15.44,11.65,20.3,23.33,20.13,51.74,29.64,81.32,36.67C368.94,329.54,395.67,330.15,423.8,329.34Zm-35,538.1c.76-2.89,6.18-5.26,2.84-8-8.81-7.19-16.52-15.66-26.77-21.26-21.27-11.63-32.46-3.41-35.37,11.43-4.7,24,8.67,45.53,31.44,55.32,14.22,6.11,30,4.48,45.7,9.85C392.91,900.84,383.64,886.89,388.77,867.44ZM401,971.13c-14.78-.29-28.42.61-41.63-4-7.52-2.64-12.4-11.77-21.35-9.84-14.7,3.17-29.1,7-38,21.37-4.56,7.36-8.41,23.72,1.71,30.61,5.7,3.88,11.47,7.58,17.92,8.85,10.83,2.14,24,3.09,30.43-6.34C362.83,993,380.61,981.94,401,971.13Zm-35.36,84.07c.92-1.14,2.15-2.83,1.88-3.92s-2.33-1.56-3.66-2.21c-8.39-4.06-8.9,2.6-12,7.75-9.11,15-21.6,26.57-38.68,32.15-7.86,2.57-18.17,2-23.58,7-20.8,19.12-37.28,41.54-44.43,69.78-3.12,12.34,2.61,28.74,13.18,34.19,10.4,5.36,41.93-5.87,53.47-16.81,15-14.18,28.2-29.48,38.4-47.08-7.06-5.32-11.16-13.09-10.94-21.39C339.84,1091.45,351.5,1072.67,365.62,1055.2Zm-27.75,6.49c10.51-10.3,14.89-22.26,11.09-36.85-.6-2.33-1.88-1.86-3.27-1.49-9.82,2.61-19.22,5.07-30,2.36-5.52-1.4-12.36-9.07-18.83-.68-2.38,3.09-5.8,5.47-7.79,8.75-5.17,8.54-11.82,16.52-12.2,27.2.15,13.88,7.42,22.49,19.77,21.83C313.36,1081.91,326.3,1073,337.87,1061.69Zm16.27-151.48c-2.8-1.72-5.22-3-7.39-4.59-18-13.21-36.51-24.25-60.42-23-11,.59-20.09,3.89-24.62,13-5.18,10.47-7.13,22.56.35,33.3,14.85,21.32,36.13,29.92,60.55,23.34,3.36-.91,13.83,2.61,11.29-5.63C328.68,929.82,336.22,913.8,354.14,910.21ZM348.5,1401c-2.27,2.9-5.46,1.67-8.15,2.51-22.8,7.15-44.66,6.61-65.48-6.83-3.39-2.19-6.25-10.64-13.33-1.82-10.93,13.61-25.11,24.66-35.57,38.55-11.89,15.78-12.87,33.36-7.82,53.63,5.46,22,15.66,43.51,12.94,67.19a9.52,9.52,0,0,0,.35,2.38,10.76,10.76,0,0,0,1.91-1c4.15-3.45,8.13-7.08,12.39-10.37,16.16-12.48,32.64-24.55,48.53-37.35,11.1-8.92,28.07-13.59,25.66-33.26a23.54,23.54,0,0,1,1.38-11.16C329.74,1442.52,335.88,1420.57,348.5,1401Zm-16.4-186.7c-3.18-13.71-3-27.39,3.66-43.22-12.93,14-25.53,24.18-40,32.27-19.61,10.94-45.49,14.37-57.82-12.76-4.36-9.59-3.23-21-.28-31.92a125.39,125.39,0,0,1,11.73-27.94c4.89-8.83,11.64-16.64,17.63-25-11.89,4.9-22.86,10.6-35.78,11.62-8,.63-5.93,9.94-7.28,14.47-6.15,20.6-19.25,35.83-33.52,50.85-17.84,18.78-38.85,29.39-65.06,28.38-9.06-.35-18.22-3.64-23.18-10.41-9.49-12.95-19.27-5.92-28.78-2.32a32.91,32.91,0,0,1-9.4,1.33V1616h82.64c13.33-23.61,27.85-46.81,29.27-75,1-18.83-4.42-36.55-11.48-54.12-4.6-11.44-4.16-24.15-2.44-36.9,1.75-12.93,9-21.86,16.81-30.83,4.1-4.73,9.38-8.42,14-12.68,2.62-2.4,5.29-4.75.34-7.84-14.37-9-19.19-24.67-25.52-38.72-12.39-27.49-1.41-72.62,20-95.2,20.89-22,47.05-30.18,75.89-34.34,10.11-1.46,20-2.35,29.92-1.24,13.49,1.51,22-8.47,33.09-12.49C328.56,1215.92,330.5,1215,332.1,1214.26Zm-9.3,290.94c.17-1.86-1.44-3.88-2.23-5.82a19,19,0,0,0-2.29,1.3c-13,9.9-26.18,19.7-39,29.85-2.53,2-7.86,3.61-4.18,8.86,5.49,7.83,9.78,16.1,10.08,25.95,0,.43,1,1.27,1.39,1.18,7.88-1.73,15.8-18.76,13.12-26-1.19-3.25-4.33-8.53.23-11.14,3.66-2.1,5.6,2.67,6.91,5.36,1.49,3.07,1.82,6.71,2.69,10.26l23.34-16.85C328.56,1521.17,321.89,1515.06,322.8,1505.2ZM293.88,972.3c5.81-7.1,6.64-11,3.8-11.21-10.11-.91-18.37-5.81-27-10.82-3.77-2.19-5.86-8.62-11.17-6.79-12.56,4.31-25,8.93-36.76,15.37s-20,24.36-13.58,35.07c8.73,14.51,24.37,13.44,40,15.51,6.13-1.36,13.83-2,20.65-4.88,5.18-2.16,14.08-.26,14.86-8.48C285.54,987,288.13,979.34,293.88,972.3Zm1.11,265c-13.36-.74-25.79,1.62-38.41,3.53-25.37,3.82-47.61,12.34-63.81,33.4-11.13,14.48-17.12,30.8-19.74,48.66-3.44,23.46,7.61,42.62,18.67,61.54,2.23,3.81,7.94,11.36,10.9,9.07,10.34-8,19.37-17.82,28.27-27.53,11.26-12.27,21.68-25.32,35.33-35.23,3.9-2.83,10.74-8,10.09-9.59-3.32-7.9-.57-24.83-18.47-16-5.64,2.79-14.93,4.92-16,9-3.68,14.19-11,26.51-17.08,39.41-1.31,2.76-3.44,7.49-7.63,6.92-3.13-.42-1.42-3.13-.37-5.34,5.43-11.53,10.6-23.19,15.79-34.83.35-.78,0-1.86,0-2.8a6.7,6.7,0,0,0-2.21.12c-8.5,3.57-17,7.24-25.47,10.78a57.92,57.92,0,0,1-6.84,2.19c-2.08.58-4.63,1.39-5.82-1-1.48-2.93,1.14-4.58,3.23-5.53,22.71-10.27,45.31-20.83,69.69-28.34-12-10.28-27.81-14-40.58-22.89-2.24-1.56-7.8-1.1-5.76-5.94,1.73-4.12,6.35-2.57,9-1.32,13.9,6.42,27.78,12.94,40.34,21.87,1.11.78,2.62,2.9,2.7-.45C271.35,1267,283.58,1252.68,295,1237.25Zm-8.87-213c3.38-3.71,13.45-7.22,3-14.41-.67-.46-.23-2.53-.3-3.92-7.73,3.12-15,6.64-22.62,9-26.73,8.43-50.43,21.47-66.9,44.83-12,17-8,34.37,9.64,44,13.57,7.38,29.16,8.37,41.24.08,8.46-5.8,32.52-1.66,21.08-26.07C261.44,1056.81,272,1039.72,286.12,1024.25Zm-12.68,557.2c10.55-9.26,1.55-18.09.69-26.73a15.12,15.12,0,0,0-1.78-6c-3.29-5.55-4.92-12-13.71-3.4-8.53,8.37-18.61,15.41-27.28,23.94-5.53,5.44-5.84-2.52-6.07-3.76-1.88-10-2.56-20.19-4.47-30.16-2.23-11.74-3.46-24.27-8.77-34.57-3-5.77-13.61-6.39-21.71-5.75-1.76.14-4.45,1.16-5.15-1.48-.37-1.39.46-3.29,1.2-4.73,1.5-2.93,3.49-.13,5-.3,6.55-.78,12.88-1.41,19,2.74-5.43-18.06-7.07-35.83,2.86-52.12,5.81-9.51,14-17.61,21.41-26.08,1.84-2.09,3.67-3.81,1.26-6-3.25-3-7.24-5.07-10.52-8-7.91-7.08-12.54-3-17.7,3.91-10,13.33-25.94,21.29-33.46,37-5.95,12.49-5.74,25.25-2.24,38,3.78,13.77,8.44,27.3,12.71,40.94.05.15.2.34.16.46-5.18,15.45,7.23,13.31,15.41,15.63,1.73.49,3.09,2.26,4.63,3.44-1.84.86-3.79,2.64-5.49,2.43-8.84-1.13-16.46-1.43-15.9,11.11.1,2.2-.09,3,2.14,2.9,10.17-.55,19.72,1.74,28.94,6,1.57.72,3.07,1.32,2.23,3-1.09,2.2-3,4.22-5.83,3.07-7.65-3.15-15.76-3-23.72-4.24-8.75-1.3-6.71,5.62-7.9,8.82-5.84,15.76-14.06,30.22-22.64,44.47H243.6c-3.42-1.67-7.38-2.92-10.33-4.77a75.74,75.74,0,0,0-28.77-10.32c-1.13-.17-2-1.92-3-2.94,1.32-.8,2.6-2.24,3.95-2.3,12.4-.55,23.19,4.49,33.93,9.89,4.9,2.46,10,4.42,13.77,8.63,1.78,2,2.52-.82,2.8-1.29,8.55-14.24,15.22-28.86,5.88-45.34-1.35-2.39-.14-3.27,1.07-4.58,2-2.16,3.31-.37,4.5.91C271.77,1568.59,272.85,1574.57,273.44,1581.45ZM263,1348.22c-.76-.87-1.43-2.28-2.43-2.57-.69-.2-2,1-2.74,1.82-10.34,11.47-20.68,22.93-30.85,34.54-1.59,1.8-3.72,5.91-3.32,6.25,6.1,5.15,12.09,10.89,19.16,14.27,4.36,2.08,4.08-5.72,7.41-7.65.67-.39,1-1.3,1.71-1.7,6.72-4.06,12.27-7.89,8.4-17.78C256.81,1366.52,258.4,1357.08,263,1348.22ZM218.71,1122.9c1.69-11.44-9.88-9.08-14.73-11.11-18.33-7.65-27.71-35.83-14.76-51,.74-.86.91-2.2,1.34-3.32a33.12,33.12,0,0,0-3.45,1c-1.36.54-2.64,1.29-4,1.92-13.76,6.51-13.45,6.39-12.48,9,2.16,5.81.57,12,3.34,18.32,3.77,8.66,4.53,19,4.78,28.72.32,12.4,3.17,24.91-.46,37.3-5.8-3.23-4.2-9.65-5.06-14.45-2.77-15.52-4.16-31.28-6.38-46.91a208.18,208.18,0,0,0-4.17-20.81c-.77-3.1-2.55-3.93-6.72-3.79-22.16.77-29.89,17.19-37.87,33.41-1.9,3.85,2.24,6.53,3.89,9.59,9.75,18.17,19.88,36.19,23,57,.59,3.89.84,9.47-3.81,9.89-5.8.53-3.34-5.94-3.91-8.88-3.77-19.67-14-36.41-23.19-53.63a41.76,41.76,0,0,1-1.91-5c-8.2,11.25-16,22.75-24.64,33.56-7,8.78-15.06,16.78-22.87,24.91a11.87,11.87,0,0,0-.66,1.26v20.61c10.21-.58,18.93-5.17,27.92-9.34,2.84-1.31,5.63.32,7.39,2.69,8.82,11.87,19.26,19.07,35.34,17.42,14.24-1.46,26.75-5.75,37.87-14.46a137.53,137.53,0,0,0,41.4-52.59C215.6,1130.44,218.13,1126.81,218.71,1122.9Zm18-104.93c-17.67-2.4-31.19-7.74-38.52-22.84-3.65-7.5-1.95-15.82,1.24-22.14,4-7.94-2.44-11.18-5.32-13.22-16.27-11.54-34.32-21.4-54.32-22-16.34-.45-33.44,3.44-45.39,17-4.45,5-9.48,4.75-14.69,4.21A59.82,59.82,0,0,0,64,959.3v25a46.67,46.67,0,0,1,4.83,3q37.56,23.13,75,46.41a14.37,14.37,0,0,0,2.54,1c.17-1.61.84-3.36.41-4.79-5.62-18.76-9.56-38.09-19.28-55.48-1.3-2.32-1-8.2.17-8.71,2.93-1.28,4.21,2.57,5.55,4.81,9.83,16.49,15.94,34.28,20.13,53,1.85,8.31.2,17.37,9.12,24.8,8.5,7.06,14.28,2.1,20.91.4C203.5,1043.63,217.6,1028.27,236.74,1018Zm-114.85,47.94c12-4.76,25.4-3.05,37.61-10.7-13.83-9.37-27.59-18.87-41.54-28.09-17.43-11.52-35.08-22.73-52.47-34.31l-1.49-1v50.52A206.93,206.93,0,0,1,103.26,1068C108.58,1072.35,116.62,1068,121.89,1065.91Zm-.5,12.21c.52-1,1.16-2.81.76-3.18-1-.94-3.05-2.12-3.85-1.68-9.75,5.29-20.73,3.62-31,5.5-7.7,1.4-15.47,2.44-23.26,3.35V1125a146,146,0,0,1,25-4.87c12.82-1.35,13.37-11.93,19.05-18.26C113.92,1095.23,117.09,1086.16,121.39,1078.12ZM87.88,1131c.86-1.08,1.66-2.21,3.76-5-10,2.78-19,5.13-27.64,7.6V1161C71.92,1151,79.92,1141,87.88,1131Zm5.05-60.9a177.53,177.53,0,0,0-28.93-19V1074c1-.09,2.06-.15,3.1-.14C75.53,1074,84,1071.5,92.93,1070.1ZM56,1618.34V61.66l-48-48V1666.34Z"/></svg>