<svg xmlns="http://www.w3.org/2000/svg" xmlns:xlink="http://www.w3.org/1999/xlink" viewBox="0 0 976 1600"><defs><style>.cls-1{fill:none;}.cls-2{fill:#f4f3ef;}.cls-3{clip-path:url(#clip-path);}.cls-4{fill:#50b271;}.cls-5{fill:#d81e1e;}.cls-6{fill:#592116;}.cls-7{fill:#992d17;}</style><clipPath id="clip-path"><path class="cls-1" d="M960,22V1578a6,6,0,0,1-6,6H22a6,6,0,0,1-6-6V22a6,6,0,0,1,6-6H954A6,6,0,0,1,960,22Z"/></clipPath></defs><g id="Paper_Backing" data-name="Paper Backing"><path class="cls-2" d="M960,22V1578a6,6,0,0,1-6,6H22a6,6,0,0,1-6-6V22a6,6,0,0,1,6-6H954A6,6,0,0,1,960,22Z"/></g><g id="Wikipedia_Cropped" data-name="Wikipedia Cropped"><g class="cls-3"><path class="cls-4" d="M685,1424.49c-33-2.67,1.21-49,18.38-58.1,6.48-4.77,11.24,6.9,17.1.5,2.73-2.3,4.64-7.51,8.86-6.52C745.05,1379.47,698.72,1428.38,685,1424.49Zm108.4-13.79c-30.69-14.33,20.14-56.82,40.26-57.49C872.54,1364.67,815.07,1410.84,793.42,1410.7ZM631,1315.41c-26.75-1.56-49.18-17.24-65.24-40.15-5.1-4.78.18-10.94-.07-16.26-1.16-4.51,3.93-5.61,7.33-5.19,27.64-.44,53.82,23.71,54.42,50C631.94,1306.09,639.77,1313.42,631,1315.41Zm108.53-27.06c-12.95-2.85-1.06-8.82-20-4.22-7.14-27.3,38.44-53.66,60-55.06,5.84.54,4.18,7,.45,9.33C782.75,1260.09,761,1288,739.54,1288.35Zm-89.31-59.12c-17.71-1-24.1-1.17-32.83-16.18-6.06-16.32,28.9-26.44,42.24-26.15,13.38,1.74,35.07,1.41,42.1,12.07-.64,3.29-5.11,4.92-3.73,8.9C688.12,1224.06,663.69,1228.47,650.23,1229.23Zm109.86-188.18c-25.18,5.89-91.83-42.89-67.36-60.85,18.11-9.67,83.62,18.3,70.36,45.44C771.36,1035,781.51,1040.5,760.09,1041.05ZM861.5,997.69c-44.89-1,3.12-96.5,31.55-91.31,19.78.55,7.8,11.46,10.06,25C904.41,957,885.28,988.29,861.5,997.69ZM751.3,940.93c-20.78-3.85-47.57-24.78-51.13-47.6,2.64-4.05-.67-8-4.25-9.91-2.69-18.8,31.71-4.27,43.27,6.15C756.22,901.13,777.8,935.09,751.3,940.93Zm88.09-86.39c-5.61-.07-2.78-8.21-8-9.3a4,4,0,0,1-2.57-4.74c4.92-21.53,10.94-44,35.58-53.13,24.2-7.6,30.73,11.13,18.42,33.57C873,840.62,857.55,848,839.39,854.54ZM284.67,842.25c-25.59-20,4-79.38,33.55-83.91,4.25,2.59,10.51-5.41,12.61,1.7,8.29,38.75-15.49,62.72-29.69,77C291.22,839.42,295.34,834,284.67,842.25Zm481.06-1.75c-24.24,2.14-69.25-35.29-54.7-62.94,23.88-.51,67,26.88,54.25,50.77C766.15,832.61,774.8,838.9,765.73,840.5Zm62.78-83.38c-8.38-7.65-16.64-1.19-15.27-12.52C837.46,660.41,946.13,708.71,828.51,757.12ZM364.17,658.91c-16.5.38-68-13-61.35-39.82C343.49,591.91,444,654.34,364.17,658.91ZM299.4,560.47c-26.41,5.09-100-42-40.1-50,18.64,1.09,58.25,12.39,58.31,35.88C339.39,559.66,311.83,559.88,299.4,560.47Zm88.14-30.26c-25.74-15.55-3.07-95.41,27.12-87.89,18.44,15.1,5.15,49.35-2.17,66.51-3.77,4.27-7.06,15.34-14.32,14.45-5.4-.47-5.26,7.26-10.63,6.93Z"/><path class="cls-5" d="M269.49,1513.36c-61.16-6.44,32.8-62,46-41.67C312.69,1491.85,296.07,1512.54,269.49,1513.36ZM385.68,1511c-39.08-4.45,37.81-87.29,35.31-45C422.41,1482.45,400.32,1510.13,385.68,1511ZM496,1497.19c-27.73-6.54-6.81-64.82,9.3-70.21C522.44,1440.39,523.24,1492.57,496,1497.19Zm98.2-30.44c-18.41-2.29-11.59-41.29-9.49-56.15C586.2,1360,640,1463.55,594.19,1466.75Zm-269.34-57c-14.64-2.09-45.56-9.84-39.31-31.9C300.77,1358.33,375.65,1409.29,324.85,1409.72Zm93.37-45.2c-18.19,1.93-78.17-30.25-43-45.8C390.13,1313.91,446.9,1364.07,418.22,1364.52ZM441.66,1290c-57.53-9.44-119.58-16.65-177.37-22.82-16.35-5-75.49,8.89-49.46-22.42C314,1092.11,399.55,932.08,432.5,751.15c27.82-112.9,41.93-225.5,47.68-343.54,10.32-85.07-24.72-89.67,74.72-85.43,57.18.21,118.9-5,175.78-7.17,14.37-.29,5,20.9,6.25,29.61-7.07,92.58-22.61,187.11-27.19,278.85,9.18,1.39,38.62,38.61,15.13,35.61-8.3,2.09-23.54-3.36-24.3,8.5-9.35,49-21.88,97.51-34.75,145.7C620.33,978.54,561.13,1167.69,441.66,1290Zm372.28-115.79c-50.57-3.14-66.4-111.77-18.81-72C803.11,1114.83,833.48,1168.21,813.94,1174.24ZM225.29,1025.65c-16.89-1.06-15.17-30.37.27-35.12,16.08-8.22,36.49-17.93,53.79-15.81C281.14,998.35,250,1025.38,225.29,1025.65Zm-68.62-67.78c-18.65,1.55-44.47-25.11-16.42-34.39,22.15-5.71,47.56-19.12,69.45-12.59C209.31,935.83,174.9,954.53,156.67,957.87Zm-66-78.28c-88-23.59,70-67.57,56.85-30.4C136.44,863.71,113.43,877.15,90.63,879.59ZM212,772.92c-14-13.37-6.77-38.22,4.12-56.82,8.94-15.69,46.95-16.54,37.71,8.18C244.79,744.67,228.6,760.3,212,772.92Zm-69.32-2.36c-57.7-9.34-80-110.63-32.6-74.46C123.29,711.52,154.46,753.59,142.64,770.56ZM857.87,668.32c-61.63.23-32.18-28.18,10.53-34.58C909.25,636.69,892.62,671.74,857.87,668.32Zm8.74-83.42c-14.22-3.45-29.58.2-44-6.24-15.5-13.81,20.73-27,41.44-27.06C892.26,547.77,892.45,585.69,866.61,584.9Zm-14.44-88.23c-66.18-.47-17.54-36,13.8-37.38C914.76,463.66,887.16,500.84,852.17,496.67Zm-637.62-47.3c-30.26,6.64-83.31-35.11-24.45-42.15C216.25,408.49,272.13,454.19,214.55,449.37Zm632.56-47.92c-71.35-.4-6.67-40.16,21.74-38.07C913.36,373,875,407.54,847.11,401.45ZM188.73,363.2c-21,.21-74.17-4.17-72.61-35.15C120.87,304,223.6,350.92,188.73,363.2ZM317,355.09c-39.9-.68,54-82.09,62.1-40.14C372.75,340.63,339,351.52,317,355.09Zm535-44c-64.15,3.06-19.37-33.95,14.39-33.8,30.71,2.53,13.15,35.46-9.49,33h0C855.27,310.52,853.68,310.93,852.05,311.08ZM715.32,277.36c-10.86-1.33-28.36-3.45-36.5-22.71C665.27,201.25,766.57,279.51,715.32,277.36Zm-585.69-7.49c-19.73,1.24-71.17-27.9-33.1-41.76C117,231.79,189.21,268.14,129.63,269.87Zm135.4-.36a4,4,0,0,1-3.56-5.83C312.34,167,387.52,253.51,265,269.51ZM823.55,230.6c-40.75-1.37,24.63-44.69,43-29C886.51,225.3,839.09,230.93,823.55,230.6ZM718.66,205.08c-18.25-4.5-38.27-14.8-44.77-30.91-4.64-10.46,7.43-25.82,18.5-16.18C700.33,163.39,738.38,197.32,718.66,205.08Zm65.07-17.38c-47.22-55,17.23-108.09,18.47-62.45C799.28,145.43,798.91,172.76,783.73,187.7Zm-564.35-5.78c-6.12-.16-5.08-7.76-2.75-11.27C249.91,91.16,320.77,147.46,219.38,181.92Zm-59.85-23.36c-52.81-25.38-16.93-106.9,1.72-60.44C165.74,115.77,173.7,145.73,159.53,158.56Z"/><path class="cls-6" d="M977.28,1254.5c-59.8-43.3-80.31-57.71-112.43-126.78-10.89-23.68-23-48.82-29-73.62a253,253,0,0,1,13.46-32.46c2.56-5,1.53-11.92,8.83-14.87,22.62-9.15,37.33-26.62,46.77-48.43,7.48-17.3,3.21-35.94,4.16-54-2.8-12.27-19.63-5.34-26.41-1.49-27.42,13.68-43.14,45.16-44.79,75,0,9.1,5.69,17.56,6.1,25.56.91,5-7.22,28.55-12.29,31.29C818.09,1002,814.24,965,808,929.93c-2.37-19.4-6.46-37.59,11.1-51.85,5.54-4.49,6.27-14.48,13.4-15.39,35.46-5.4,63.35-36.55,64.27-72.22,3.65-20.37-13.23-14.27-26.79-11.42-27.27,6.55-54.66,41.63-52.55,70.81,1.08,15-8.81,21.52-15.31,31.16-5.33-18.24-5.8-36.73-6.54-54.91-.47-11.65-8.47-24-.32-35.15,18.73-29.25,25.16-24.54,53.9-35.88,13.25-7.1,25-15.66,33-28.82,5.17-8.47,2.68-18.25,5.48-26.87,4.58-13.76-27.26-5.75-33.32-4.67C832,697.51,806.59,725.07,807,747.6c.07,3.8,2.22,8.61.6,11.21-4.36,7.05-10.23,13.16-16.65,21.05.42-35.82-7.19-71.79-2.56-106.66,12.19-1,21.62-11.66,36.81-5,16.2,7.1,35.28,7.95,53.43,2.84,49.52-18.11.33-61.53-39-32.75-14.79,8.61-28.17,19.54-45.58,22.2-2.45.37-8.25,4.63-8.56-.21-1.46-22.52-1.71-45.12-2.3-67.69,0-1.22-.65-2.54,1.44-3.6,32.61-18.16,66.5,15.6,99.44-3.86,9.35-5.74,12.49-27.82,3.13-33.35-13-7.7-27.16-6.68-41.72-4.06-19,3.42-27.73,24.12-47.12,26.38-4.2.49-8.37,4.24-12.26,3.82-8.09-.89-4.58-8.79-4.21-12.43,1.37-13.42-.53-26.94,1-40,1-8.34-8.63-21.46,7.38-25.55,27.5-11.15,20.57-4.11,45.49,1.36,20.55.44,51.47,2.53,62.57-18.2,2.87-7.45,1-16-6-22.18-11.9-10.44-38.62-10-53.69-.81-10.94,6.65-18.41,17.36-29.22,23.35-8.36,4.64-18.59,5.92-29,9,1.25-28.16-2.64-59.41,1.72-86.9,9.74-.63,17.18-11.94,28.91-4.74,23.38,16,101.69,11,82.72-31.32-17.58-26-52.62-10.63-72.64,4.44-11.69,13.22-22.34,16.34-38,19.65,0-19.09-1-38.86.29-58.48,1.11-17,16.77-27.08,31.72-22.17,23.75,9.41,80.66,11.19,75.86-26.79-9.17-26.24-44.65-14.95-62.23-3.83-6.69,4.28-10,12.79-15.73,15.89-8.86,4.8-18.86,8.61-28.35,12.88,4.05-22-11-77.47,23.93-75.92a99.4,99.4,0,0,0,56.07-6c30-11.64,8.13-46.07-17.45-36.42a70.9,70.9,0,0,0-37.41,21.56c-1.87,3-22.93,23.92-20.66,11.93,1.9-7.1,1.32-14.6,1.41-22-1.45-12.27,7.16-21.85,10.53-33.4,5-12.63,5.85-26.15,7.66-39.34C818,75.19,730.32,102,770.47,179c2.84,6.62,11,11.93,11.62,18.32.83,13.16-2.11,26.48-4.24,39.5a50.39,50.39,0,0,1-9.37-6.4c-12.81-12.08-31.41-17.9-38.83-35.77-7.62-17-30.73-52.11-52.18-45-30.37,17.58,10.89,52.74,31.39,57.87,5.93,1.09,11.93-3.39,17.39,1.29,11.68,10,23.26,20.11,35.87,29.07,5,3.54,14.43,4.81,14.37,11.55-.13,15-2.66,30-4.2,45-6.6-4.56-13.61-8.41-19.36-13.64-5.52-5-14.1-4.1-17.65-14.12-5.19-17.21-42-48.51-59.12-33.42-21.32,24.75,19.45,55,46.37,48.11,3.91-.74,8.85-1.43,12,.28a224.86,224.86,0,0,1,27.26,17.53c4.94,3.71,12.59,4.86,11.51,15-3,21.4.16,43.5-4.34,64.69-7.22-1.71-10.64-7.75-17.15-10.16-4.26-2.11-11.06-3-11.34-8.27-.64-12.68,1.37-25.53.08-38.1,0-5.86,6.62-17.69-9.48-15.66-16.57,2.09-33.37,4.27-50,3.66-64.84,1.81-129.46,6.8-194.27,9.17-2.11.15-9.84-5.58-10,3.48-.22,59.86-6.54,119.24-11.08,178.89-4,49.59-8.58,100.37-21.26,148.2-12.93-11.94-23.92-26.35-35-40-5.6-7.45-16.21-13-15.82-22.79,4.16-23-.95-52.6,20.11-68.55,3.45-2.48,5.61-7.44,7.2-11.71,8.22-15.46,16.54-89.84-17.06-71.79-27.3,19.46-40.19,51.44-32.41,83.93,1.34,7.45,3.33,17.43,15.61,16,2.71-.31,2,2.76,1.8,4.31-1.45,12.38-3.07,24.74-4.71,37.64C357.63,543.52,337,505.89,313,470.41c-13.86-25.25-33.34-49.83-42.78-76.81-.57-3.75,9.51-9.07,14.69-13.75.88-.8,1.2-2.36,2.16-2.91,8.35-4.86,11.76-16.6,24.17-16.1,26.19,1.39,50.06-12.54,68.13-31.1,7.68-8.47,7.89-23.53-2.44-28.84-15.77-8.1-51.61,6.89-62,25.77-13.31,30.57-23.47,31.18-44.53,52.34-4.56,5.55-7.12,2.71-9.13-1.65Q246,344.24,231.2,310.9c-.68-1.54-4.7-3.2-.82-5.86s7.33-6.5,11.54-8.69c9.5-5,11.3-17.44,24.45-20.1,23.54-5.41,78.6-16.75,72.25-49.83-14.82-32.62-56.33-5.73-69.85,15.09-7.94,10.43-8.68,24.88-20.19,33.3-8.84,6.46-16.76,14.17-24.67,21a5,5,0,0,1,.32.65C213.68,274,203.51,251,193.32,228.33c-1.2-2.7-3.22-5.37-1-9.11,17.56-29.43,50.93-38.12,76-57.73,8.08-6.34,13.49-13.54,12-22.1-10.62-32.94-53.67-7.75-63.51,14.34-10.43,23.73-5.26,37-30,54.88-7.41-21.11-20.09-40.64-14.43-64.67C177.7,131.21,171,77.84,153.7,77c-10.38-.73-19.69,2.53-24.57,12-11.66,22.51-2.91,53.36,17.21,68.11,8.9,6.52,16,13.15,20.12,23.79,9,28.93,18.8,57.73,31.81,85.27.58,1.25.6,3.12-1.41,2.57-13.63-7.54-29.77-7.15-43-18.56-17.58-15.64-72.67-51.91-78.58-8.59,3,20.4,40.43,39.55,60.78,33.81,11-3.11,22.54-8.47,34.82-4.32,4.4,1.5,9.35,1.92,13.25,4.19,7.4,4.32,18.38.4,23,11.17,10.58,25.57,23.7,50.12,33.47,76-12.78-3.43-29.87-5.41-39.12-13.55-14-17.45-87.3-56-93.14-18.19-1.21,19.5,25,29.18,40.48,33.68,13.49,4.44,26.7,4.18,40.42,3.34,7.22-.44,12.47-8.42,20.64-4.3,4.82,2.43,10.41,3.36,15.22,5.81,7.18,3.66,17.35,1.45,22.14,8.79,14.27,21.84,21.87,47.38,40.31,71.47-13.87-6.8-30.35-7.49-41.33-16.49-9.75-7.91-18.47-17.59-29.25-23.58-12.61-7-26.83-11.88-41.94-6.43-7.83,2.82-17.51,3.45-19.6,13.9-5.52,21.17,19.23,33.7,36.76,36.75,15.16,2.75,30.13,4,45.44.18,5-1.25,8.46-6.43,12.8-5.75,10.69.6,20.21,6.69,30.31,8.12,4.17-.26,8.54-1.38,11.95,5.17,15.46,29.51,37.72,55.39,52.6,85.11.51,1.56,4.33,1.31,3.09,3.93-.23.49-4-.88-6.23-1.14-12.29-1.47-16.08-13-24-19.55-20.6-16.94-43.38-30.75-72.07-22.52-58.55,11.89,43.17,80.06,77.62,53.93,4.52-2.86,7.55-5.24,12.23-1.92,8.32,5.92,20.4,4,27.16,13,17,24.61,37,46.89,56,69.94-6.36-2.59-13.51,2.13-19.57-6.94S381,621.1,371,615c-19.61-11.84-41-9.79-62-5.66-43.87,13.43,12.36,49.4,33.25,53.31,15.55,4.11,32.16,8.6,47.14-.68,10.39-6.44,19.42-9.67,32.38-7.55,19.1,3.13,22.4,4.29,19.21,18.44-18.72,86.66-36.12,174.53-68.8,257.24-1.53,3.56,1.74,15.35-8.77,10.13-27.45-13.62-52.74-31-78-48.17-2.76-1.88-10.16-3.59-7.93-7.17C286.1,871,288,854.51,304.18,843c22.81-16.17,36.27-41.28,33.94-71.67-.86-11.18-10.43-23.07-17.26-20.55-30.4,9.87-50.6,38.92-51.89,70.31-.94,9.18-.05,18.63,8.93,23,11.74,5.84-6,15.22-6.43,29.81,2,18.83-48.78-37.32-54.24-40.51-5.53-5-16.11-11.9-15.15-15.36,4.12-14.85,5.56-30.88,17.46-43.35C236.4,757.57,266,736.16,260,708.43c-25.64-35-69.95,19.35-60.43,49,9.64,18.93,1.38,35.23-6.1,53-13.66-12.8-27.91-25.91-38.9-42.37-12.08-29.12-20.27-60.89-46.6-81.29-21.63-17.76-32.77,4.89-29.85,25,2.72,22.39,27.79,50.18,48.48,57.51,7.42,1.48,16.86,3.14,21.11,8.27a451.36,451.36,0,0,0,35.44,38.59c2.18,2.08,1.44,2.83-.56,3.51-11.91,3.75-24.3,8.31-35.86,12.33-22.24-6.49-93.41.33-87.87,33.93,1.63,10.4,10.19,14.68,17.92,16.69,23.66,6.17,43.28-4,62.76-16.76,11.91-7.83,8-27.6,25.43-30,3.82-.53,7.29-3.8,11.11-4.25,6.41-.76,13.67-7.67,18.54-3.34,20.46,18.22,39.81,37.69,59.21,56.37-14.31,5.17-28.56,16.64-43.12,17.52-26.17,1.51-50.6,7.94-74.57,17.09-20.69,5.08-17.84,26.27-3.75,37.37,26.25,18.82,62.16-6.57,76.93-30.07,3.62-5.85,3-14.35,10.62-17.71,10.32-4.54,20.45-9.64,31.08-13.26,4.16-1.42,8.67-6.65,13.19-3.15,18,13.91,37,26.19,57,38.3-23.92,16.52-27,34.33-59,40.64-22.92,4.51-69.2,19.67-51.14,50.31,20.19,27.54,60.76-12.1,69.9-33.3,2.81-5.38,2.91-14.46,6.94-16.48,12.36-6.19,18.84-18.37,29.48-25.45,5.44-3.63,8.23-17.35,20.17-8.22,6.4,4.89,14.71,7.23,21.88,11.21,1.19.66,5,.44,3.7,3.49-42.94,103.69-102,199.58-160.26,295.2-8.19,13.6-1.07,24.34,12,23.41,19.58,2,39.18,3.66,58.75,5.53,41.7,3.32,82.94,9.66,124.64,12.23a47.28,47.28,0,0,1,18.39,3.2c39.75,15.69,53.62-33.09,75-56.14,40.83-58.76,75.43-122.14,104.7-187.45,20.76-54,42.72-107.88,58.53-163.62,10.56-43.65,23.46-86.65,35.82-129.78,6.35-25.91,10.7-52.31,16.54-78.36,1.45-6.45.28-17.29,12.81-13.93,10.4,3.25,19.8-5.56,30,1.68,6.94,4.84,21,7,21.75,11.91,6.37,54.07,3.44,106.91,11.13,161.35-2-2.29-3.75-3.3-3.79-4.36-.44-13.92-9.86-23.83-16.12-34.92-5.56-20.59-75.56-43.24-63.57-10.16,8.18,24.89,39.21,67.18,69.36,55.15,7.34-5,9.46,4.5,14.8,4.58-.93,8.6,1.71,16.72,3.18,25,3.53,19.91,2.71,40.53,9.91,59.86,1.34,3.58-.49,12-1.23,11.24-8.31-8.61-24.75-8.55-26.3-24.23-7.19-26.7-31.8-42.93-56.56-50.94-23.45-5.47-31,14.68-15.86,31.32,9.33,23.36,37.58,53.33,65.23,44.16,7-2.85,33.52,6.41,35.47,13.48,7.32,30.56,14.14,61.91,22.28,92.11-7.57-3.81-16.33-7-23.61-12.25-6.28-4.51-16-4.9-19-13-7-19.29-19.06-33.47-37.71-42.42-14.64-5.85-45-17.7-57.47-5.41-2.77,2.52-1.75,7.32-.56,11.15,7.92,25.52,24.71,42.7,49.31,52.56,12.67,5.07,25.19,8.88,39.3,4.46,3.57-1.12.84-8.76,7.31-5.07,8.62,4.9,18.46,7.81,26.6,13.31,25.9,10.59,19.07,7.66,27.57,33.13,24.58,57.42,53.92,112.3,105.21,150.87-16.69-5.76-31.64-10.25-48.24-15.27-10.14-3.39-22.85-1.19-30.21-11.73-7.92-13-26-20.56-30.81-35-4.93-25.25-19-90.51-51.66-88.54-10.2,1.3-14.3,10.1-14.74,19-1.79,35.64,17.49,63.1,51,74.81,14.81,5.17,21.35,19.7,33.8,29.69-36.6-4.92-69.1-12.36-105.4-11.87-9.23.35-18.45-2.69-27.72-.1-.69.19-2-.91-2.66-1.7-21.3-22.25-68.31-23-91.86-2.55-10.89,9.43-13.41,20.22-2.5,28.87,22.56,17.89,51.1,13.74,74.8.74,11.8-6.47,20.4-19.33,36.83-15.3,25.32,3.49,51.33,3.82,76.85,6.17,2.18.16,3.77,1.88,2.06,2.92-27.29,22.53-29.61-4.59-67.31,23.27-19.21,14-31.69,31.89-32.13,56.57-.06,3.3,1,5.91,4.86,5,25.68-5.84,52.49-11.35,68.24-35.29,6.64-9.91,3.24-24,13.35-32.52,14.2-7.94,28.09-18.6,45.77-14,45.2,11.2,89.75,24.5,133.9,39.34C978.76,1262.4,984.93,1259.8,977.28,1254.5ZM901,911.11c-4.05,15,.49,27.34-4,38.92-5.41,13.85-12.19,27.5-25.33,35.66-1.41,5.17-5.55,6.84-10.11,8,7.24-26.12,22.65-49.24,33.66-73.91C896.25,917.56,897.91,915.62,901,911.11Zm-13.37-1.58c.69-.44,1.86-.13,2.81-.17-11.43,28.78-30,54.08-40.35,83.58C841.4,958.64,863.71,924.93,887.58,909.53ZM859.1,841c-6.61,3.12-12.62,7.5-19.71,9.56C853.49,830.71,869,812.2,884,792.47,888.63,807.07,874.46,833.8,859.1,841Zm4.45-48.79c3.58-1.65,6.78-4,10.94-2.87-12.34,18.31-30.57,32.66-41.81,52.14C837.6,821.44,842,801.11,863.55,792.19ZM878,709.28c-.94,12.06-10.67,30.36-49.53,43.84C845.5,736.08,861.11,721.91,878,709.28Zm-60.92,36.31c6.8-26.48,26.41-43.22,56.43-44.21C853,716,835.46,732.65,817.36,748.53A9.05,9.05,0,0,1,817.12,745.59Zm9.75-89.8c14.37-12.84,52.39-30.64,62.57-5.18-2.75,10.95-12.47,10-19.64,12.12-13.82,4-27.61-.71-41.4-1.92C826,660.29,824.22,657.88,826.87,655.79ZM822.7,571.6c7.45-12.64,55.92-26.92,59.66-4.93-1.19,8.32-5.31,14.58-16.67,14.22C859.87,577.48,821.24,581.46,822.7,571.6Zm6-92.89c14.82-11.77,30.67-18.94,50-13.64,13.37,4.74,11.7,20.8-.68,23.2-11.66,2.35-23.54,6.54-35.74,3.1C831.7,489,810.58,490.44,828.72,478.71ZM818.6,388.65c53.22-45.87,88.61-5,51.17,5.9A88.37,88.37,0,0,1,819.64,393C816.43,392,816.22,390.67,818.6,388.65Zm10.1-93.54c9.13-9.08,42.29-22.47,49.89-6.87,6.64,22.95-44.64,19.47-56.32,15.55C824.39,300.86,826,297.4,828.7,295.11ZM814,223.88c5-11.23,37.74-27.46,50.32-19,2.49,1.68,2.64,3.47,2.31,10.43-.55,3.92-8.13,5.79-13.91,7.26C849.4,224,810.31,230.57,814,223.88ZM775.25,123.1a17.37,17.37,0,0,1,19.63-9.62c4.82,1,3.63,8.84,3.34,11.3-1.61,20.74-4.93,39.81-14.47,58.92C774.18,163.39,764.91,144.41,775.25,123.1Zm-58.4,77.74c-14.39-4.59-36.75-15.36-40.22-31,1.9-8.44,4.79-14.38,13.53-8.52C695.58,161.9,732.79,204.48,716.85,200.84Zm-1.53,72.52c-35.64-.74-44.62-42.4-21.1-31.81,13.6,6.17,26.89,16.56,32.5,30.73ZM315.69,341.15c9.83-16.33,23.83-27.85,42.07-32.66,5.36-1.41,15.13-3.28,17.48,7.32-7.53,21.27-44.39,37-65.74,34.69C311.57,347.39,313.77,344.35,315.69,341.15ZM291.07,230.91c36.51-25,73.45,15.75-26,34.6A126.56,126.56,0,0,1,291.07,230.91Zm-72-55.94c18.5-65.88,101-40.3,1.85,2.38C217.68,179.18,218.85,176.1,219.11,175Zm-58.24-22.11a3.56,3.56,0,0,1-1.35,1.7c-9.64-6.21-17-14.4-20.41-25.5C134.71,115,130,99.33,145.5,90.14c10.42-6.17,10.88,7,12.93,12.8C164.23,119.16,163.5,136.54,160.87,152.86Zm-15,110.27c-19.8,4.5-46.71.18-58.3-18.41-3.39-7.29,6.07-15,12.4-12.17,18.1,4.5,32.38,16.29,47.47,26.45C151.33,261.6,150.33,262.74,145.89,263.13ZM192.35,357c-1.46,3.78-5.93,1.46-9.06,1.91-1.63.23-3.32,0-9.37,0-12.27-1.46-28.87-2.52-43.22-13.07-6-4.41-13.79-9.25-10.88-16.29,3.49-8.44,13.14-3.53,19.5-2.2,17.45,3.68,34.37,9.32,47.45,22.48C188.92,352,193.83,353.14,192.35,357Zm37.54,87.93c-20,.83-40,2-57.2-11.69-15-13.33,3.11-21.14,16.87-22,13.67,1.33,45.55,17.8,46.59,31.91C236.82,445.23,232.26,444.82,229.89,444.92ZM314,539.69l-72.58-20C258.85,506.49,296.33,520.54,314,539.69Zm-35.76,13.18c-13.35-5-26.62-10.24-37.94-23.2l81.77,24.4C306.47,556.81,292.24,558.13,278.26,552.87ZM412.59,450.79c6-21.37,15,40.58-12.45,68.68,2.93-18.49,4.92-33.9,8-49.1C409.45,463.84,407.41,456.43,412.59,450.79ZM389,521c-1,1.59,1.47,5-1.4,5.2-1.28.1-3.71-3.33-4.13-5.45-6.91-28.39-.37-58.68,25.13-76.62-9,20.58-18.08,39.82-18.6,61.54C389.88,510.81,392.23,516,389,521Zm-.39,117.14L304.55,622.7C331,610.06,365.36,618.72,388.61,638.15Zm-80-3.67c29,3.8,54.57,9.43,81.24,15.62C360.05,661.14,335.12,652,308.63,634.48Zm18.29,126.4c6.89,32.21-8.87,53.47-28.62,73.38C307.53,810.61,316.75,787,326.92,760.88Zm-47.46,64.54c-.57-24.87,12.18-50.63,34.85-62.8,2.66-1.22,2.64-1.27,2.62,2.89-4.65,10.29-9.95,21.38-14.69,32.7-6.4,13.06-8.71,28.4-17.57,40C280.39,835,279.32,829.39,279.46,825.42Zm-60-107.22c4.94-8,21.63-12.5,28.44-7.2,13.51,16.33-25.73,46.35-36,57.92C205.24,750.4,209.75,734,219.49,718.2ZM139.3,764.85c-60.53-18.78-62-97.67-31.7-65.53,17.89,20,29,40.24,35,67.24C142.14,765,140.45,765.24,139.3,764.85Zm5.2,81.67c-13.87,16.84-32.2,25.76-53.87,29.07-7.7-3.87-20.93-.69-21.18-14.32-.9-14.92,42-21.73,53.44-21.49,6.9-.4,13.91.79,20.82,1.67C144.23,841.51,145.26,845.67,144.5,846.52Zm54.5,80c-10.14,15.85-25.85,22.88-42.33,27.35-7-1.33-13.25-.91-18.33-6.55-9.84-10.94-9.47-14.15,3.59-20.21,16.46-7.63,34.93-7.88,51.68-14.54,3.64-1.45,8.64.5,13,.88C206.07,919,201.72,922.27,199,926.52ZM276,982c-9.94,18.48-25.49,38.15-47.86,39.27-9.09,2-9.67-5.39-10.87-10.56-4.3-20.1,44.64-30.6,59.18-33.31C276.31,979,276.62,980.72,276,982ZM770,531.88c.36,10,.75,20.91-1.37,31.1-.68,3.29-4.06-.33-5.65-1.16-12.51-6.53-24.33-14.34-37.66-19.47-1.59-.61-.63-8.93-.14-13.59,3-20.35,5-40.78,6.38-61.31,1.78.75,4,1.08,5.29,2.33,7.83,7.35,18,10.45,27.18,15.34C772.73,488.55,768.75,521,770,531.88Zm-27.1-158.07c8.2,5.68,16.82,10.9,24.35,17.37,4.87,4.2.29,10.45.18,15.69-.37,18.2-.82,36.35,1.32,54.5.5,4.26.29,9.74-2,12.86-2.14,2.88-5.05-2.39-8-3.46-6.63-2.44-12.33-6.85-19.5-8.52-4.68-1.08-8.34-4.62-5.73-10.52q2.78-38,5.55-75.86C739.28,373.17,740.48,372.14,742.89,373.81ZM703.43,626.29c-8.36,62.83-25.64,124.6-41.47,186-29.65,117-70,232.14-130.06,337.23-22.31,45.07-53.42,84.29-80.84,125.9-7,12.5-18.86,6.27-27.25,4.83-66.23-7.52-132.4-15.93-199-19.3-13.72,1.13-17.16-.36-6.57-14,8.56-14,17.12-28.11,25.84-42.06,52.71-80.1,95.72-165.65,135.75-252.49,5.67-9,5.12-21.73,9.58-31.79,10.77-21.38,15.72-44.71,21.86-67.67,15.29-55.4,28.15-111.48,39.92-167.71,23.21-116.43,34.23-235.3,35.47-353.94-.09-2.15.64-4.68,7.25-5,20.34,0,40.68.15,61-.05,36-.94,72.29-.78,108.21-3.45,22.53-2.2,45.06-3.08,67.64-3.71,3-.09,4.05.44,3.88,3.42-2.08,21.07-2.37,42.45-6.14,63.2C721.15,466,712.37,546.09,703.43,626.29ZM727.07,655c-21.32-1-17.43,12.29-12.35-25.69,5.77,8.81,9.82,15.61,14.51,21.94C732.17,655.24,730.05,654.77,727.07,655ZM771,661.92c-24-3.26-39.44-22.89-53.59-40.19.42-22.52,1.55-46.16,6.41-68.44,12.83,7,25.89,14,38.81,21.27,5.32,3,7,6.76,6.85,14-.4,22.16,1.37,44.36,2.62,66.53C772.24,657.63,772.86,660.29,771,661.92ZM764.7,819.34c.08.47-.32,1-.5,1.54-14.57-7.11-25.27-20.74-39.79-28.48-3.91-2.31-6.4-8-13.16-10.84C731.65,780.45,761.56,802.49,764.7,819.34ZM711.63,793.6C729.82,808,747.51,822,765.91,836.5,740.84,835.45,723.35,818.24,711.63,793.6Zm46,141c-8.09,8.81-37.14-11.37-42.47-21.48-4.36-5.64-9.05-10.74-11.54-17.65,1,.17,2.43,0,3.08.56C722.09,910.78,741,921.83,757.58,934.57Zm-59.36-54.42c16.91-7.2,53.22,17.31,62.36,44Zm53.39,123.1c2.34,3.11,15.63,11.69,8.81,15.43-2.65,1-7.19-1.95-10.41-3.89-17.9-10.78-35.66-21.8-53.67-32.87C717.91,981.55,735.78,990.09,751.61,1003.25Zm-50.91,2.54c-3.18-6.41-9-11.65-11.08-18.47a719.11,719.11,0,0,0,79.58,48.92C745.26,1040.76,712.45,1025.91,700.7,1005.79Zm116.22,161.29c-.69,5.52-6.21,2.32-8.32,1.38C734.08,1135.86,784,1026.34,816.92,1167.08Zm-168.09,58.13c-7.9-1.23-18.35,0-23.67-7,22.28-6.06,44.44-7.22,69-9.4C679.38,1219.18,665.16,1225.6,648.83,1225.21Zm-30-15.87c22.82-24.64,49-20.62,78.9-10.75C669.69,1202.17,644.21,1202.47,618.86,1209.34Zm118.59,74.87,38.93-35.37C773,1266.14,751.89,1286.25,737.45,1284.21Zm-3.74-13.29c-4.09,3.27-7.75,7.1-12.33,9.68,0-1.64-.72-3.65,0-4.86,12.53-22.17,31.69-39.59,58.1-42.67C765.44,1248.24,748.69,1258.5,733.71,1270.92ZM951.46,25.56C953,11.88,977.57,14.4,975.17,31.7,973.75,47.16,950.3,42.64,951.46,25.56Zm6.71,673.3c-17.12-.49-13.37-25.66,5.7-23.94C974.52,677.91,972.1,699.29,958.17,698.86Zm8.05,641.74c-11-7.82-24.29-8.55-36.3-13-21.93-8.13-44.39-13.19-67.54-14.1-26.51-1-53.08-.86-79.61-.38-37.27.92-74.15,9.46-111.28,11.45-43.73-.8-33-69.66-88-75.54-57.34-8.58-5.44,58.88,18.43,65.93,21.52,13.14,26.18-6.37,35.73,2,3.94,3.82,8.14,7.37,12.22,11-47.07,11.41-94.31,26.2-141.13,40.17-14.56,4.18-28,18-45.46,6.93-9.69-6.16-24-8.26-29.82-16.65-12.66-18.43-23.8-36.79-47.19-43-8.12-2.14-16-4.7-23.07,2.16-16.7,20.67,23.47,47.77,42.06,48.69,22.22-3.18,36.34,8.56,53.13,19.9-15.31,6.36-31.7,12.75-47.7,20-7.48,3.39-15.47,12.8-22,10-15.11-6.64-33.72-5.94-44.22-24.1-8-14.81-48.34-33-63.07-20-15.71,19.53,18.63,39.68,36.64,41.27,9.72.86,18.78-4.39,28-2,10.16,3.38,21.85,5.9,30.67,11.94-7.3,5.47-15.94,9-23.52,14.17-8.29,5.25-16,12.65-24.35,17.28-22.22,10-87.18,16-87,48.28,17.55,40.31,75.93,7.8,79.41-32.26.76-4.93,6-8.85,10.39-10.87,31.7-17.15,64.21-32.84,96.41-49-2,2.29-.61,4.86-1.29,6.78-1.62,4.57-2.19,9.52-3.32,14.24-5.05,25-41,18.33-51.78,57-2,6.65-5.48,13.59-1.42,20.38,17.68,23.4,46.87-8.22,52.35-27,6.73-18.93,4.67-40.27,12.57-59,2.86-6.82-.95-17.93,10.2-19.76,10.26-1.68,18.94-8.59,28.79-9.25,10.31-1.78,23.94-21.47,23.67,9.46.7,5.6,3.94,13,1.54,16.53-15.34,19.14-40.33,79.64-1.84,82.84,12.43-2.69,22-16.79,23.73-30.07,2.87-30-16.51-53.87-16.36-83.36-1.2-7.11,2.81-8.93,8.53-10.51,12.47-3.44,24.65-9.71,37.21-10.45,8.57-.51,22.08-19.94,27.26,3.71,1.59,7.22,7,14.1,4.6,21.65-6.5,20.86-7.91,41.94-3.49,63.2C592,1496,633.33,1453.46,612,1419c-8.18-15.09-22.49-26.68-24.48-45.42-.85-8-6.72-16.49,6.38-19.28,6.69-1.43,13.86-1.38,20.16-3.76,43.83-14.07,90.27-18.74,135.91-22-8.91,7.47-16.74,22.28-26.85,25.49-16.59,3.73-30,11.11-41.52,22.81-14.32,14.56-19,32.46-16.5,52.31.46,3.67,5.15,6.06,8.16,5.38,28.78-6.23,69-37.19,64.61-69.08-2.66-9.3.37-13.4,5.62-17.92,7.78-4.75,13-17.69,21.13-19.93a240.29,240.29,0,0,1,48.25-3.82c23.37,1.91,42.11-1.24,66.74,4.4-14.71.59-22.63,19.83-34.1,19.3-10.93-2.15-19.54,1.87-28.19,4.65-19.2,1.89-64.13,61.56-27.39,63,22.29-1.19,51.25-20.41,61.37-40.47,3-8.26-2.12-19.47,9.55-24.91,10-4.57,25.8-24.25,36.94-20.57,21.38,6.94,43.89,9.87,64.74,18.65C967.44,1350,973,1343.16,966.22,1340.6Zm-342.56-48.5c-19-14.63-34.3-26.59-54.12-34.19C594.79,1256.49,609,1270.32,623.66,1292.1Zm-44-6.91c-3.2-5.79-13.09-10.91-12.1-18,1.83-2.05,3.2.71,4.47,1.83,17.58,15.58,38.39,26.74,59,42.41C609.21,1308,591.64,1302.19,579.64,1285.19Zm-161.42,75.33c-13.67-.42-57.19-16.93-48.34-35.11,4.31-5.46,10.65-1.12,15.84.22,18.1,4.87,28.67,19.44,36.86,34.89Zm-79.79,42c-2.71,5.16-8.57,1-13.58,3.21-14-3.63-30.35-3.59-36.37-21.88-3.21-4,6.41-8.06,9.54-6.66,12.7,3.57,25.4,7.4,35,17.17C335.31,1396.68,340.62,1398.36,338.43,1402.51Zm-27.94,75.7c-18.75,51.59-93.86,28.44-35.25,3.78,11.09-5.88,23-12.11,36.29-10.83C311.21,1473.53,311.43,1476.13,310.49,1478.21Zm77.64,28.47c-5.83,1.62-11.08-2.18-9-8.42,4.11-20.16,18.87-31.26,35.27-40.85,2.21-1.3,2.5-.68,2.5,8.62C419.43,1478.94,398.8,1503.65,388.13,1506.68ZM507.62,1434c5.07,18.13,10.76,40-3.94,55.5-6.48,7.22-15.67,3-16.37-5.5-.44-18.8,2.69-36.75,15.65-51.58C505.69,1429.31,507.2,1431.89,507.62,1434Zm81.08-23c.76-3.57-2.07-9.77,1.91-10.21,5.26-.58,4.83,6.74,7.35,10.31,6.41,9.06,11.67,18.8,11,31.41,3.3,12.75-20.44,32.07-21.67,10.33A117.07,117.07,0,0,1,588.7,1411Zm116.87-41.29c.72-.47,1.82-.36,2.75-.52,0,.7.28,1.7-.07,2.06-13,13.16-23.39,28.18-33.32,47C677.69,1395,688.82,1380.53,705.57,1369.75Zm-22,50.65c11.27-21.25,28.52-37.77,44.71-56.19C731.53,1384.88,700.52,1422.62,683.54,1420.4Zm104.05-18.06c-2-15.83,23.75-41.24,46.09-45.13A289.6,289.6,0,0,0,787.59,1402.34Zm5.83,4.36c18.78-14.12,31.56-32.51,51-44C841.27,1380.72,813.2,1405.54,793.42,1406.7ZM940.83,285.13c-.44-14.07,20.65-20.74,23.32-4.6C968,297.81,938.82,304.42,940.83,285.13Zm22.55,580c.4,15-24.09,18.27-24,1.18C938,849.05,963,846.5,963.38,865.08ZM939,1113.38c-1.13-20.4,25.16-15.8,22.44,3.15C960.57,1132.07,935.64,1129.09,939,1113.38Zm3.12-622.93c6.35.28,16-1.1,15.94,9.05,0,7.51-2.58,15.66-13.1,15.54C930.63,516.46,928.15,490.86,942.13,490.45Zm-.85-76.19c-.42-9.25,7.68-12.7,14.69-12.78,8.13-.1,10.12,7.61,11.15,14.58-.93,9.74-8.44,12.84-15.84,12.58S941.56,420.4,941.28,414.26ZM924.91,752c-2.59-18.16,20.47-15.85,18.86-.18C943,768.6,925.63,767,924.91,752Zm4.78-618.73c19.74.86,16.48,28.84-1.72,27.06-8.65-.36-9.51-9.17-10-16.51C917.48,135.51,924.1,133.19,929.69,133.31Zm-18.82-63.6c.83-15.24,26.87-16.39,25.66.36C936.8,83.63,910.22,86.4,910.87,69.71ZM913.12,342c-1.09-16.66,25.33-20,21.82-.91,2,10.12-6.57,10.11-11.91,10.59A9.17,9.17,0,0,1,913.12,342ZM903.5,227.45c.17-14.53,26.55-9.33,24.2,4.88-.09,8.91-8.33,7.06-12.43,8.73C904.05,241.58,904.05,233.24,903.5,227.45ZM910.1,1046c13.87-.3,16.2,23.56,1.85,23.83C894,1072.16,895,1045.18,910.1,1046ZM898.92,431.91c-1.57-21.39,25.63-14.24,22,3.95C919.54,450.09,895.72,446.43,898.92,431.91Zm-17.78-405C878.43,8.91,906.22,7.4,906,26,908.1,44.21,879.71,44.09,881.14,26.86ZM876,119c2.06,11.72-4.22,18.85-15.28,19.74-9.31.76-9.89-8.47-11.81-13.26C844.6,104.46,871.51,100.55,876,119ZM841.56,69.43c0-7.06.51-16.11,10.82-17.4,8-1,13.63,2.06,14.87,8.68C870,78.32,842.41,87,841.56,69.43ZM787.44,16.49C787.81,10.57,789.55,3,798.59,3c9.79,0,16.16,3.89,14.91,14.68C814,30.75,785.7,36.1,787.44,16.49ZM810.55,1546c1.66,21.88-26.42,20.79-26.3,4.75.52-7.25.21-16.24,10.91-17.57C804.77,1532,810.24,1537.48,810.55,1546Zm-69-1486.57c1-7,.63-18.11,13.36-16.57,9,1.08,10.3,7.75,10.12,15.12-.19,8.24-3,14.08-13.3,13C742,73.46,740.94,64.07,741.56,59.45Zm-4.94,1449.08c6.39,19.09-25.16,19.67-24.15,1.5-.27-7.4,1.65-14.9,11.94-12.94C734.05,1495.22,735.3,1503.33,736.62,1508.53ZM671.43,61.89c7.5-.31,12.09,3,11.7,11.48,1.51,7.2-3.26,10.64-9.12,11.44A9.2,9.2,0,0,1,663.27,76C663.15,70.44,661.82,62.28,671.43,61.89ZM645.16,15.13C646,9,645.25.31,655.61.65c5.84.19,13.86.12,12.89,8-.79,6.41-1.39,15.89-11.75,16.66C649.66,25.23,644.09,23,645.16,15.13ZM658.87,1534.5c2,17.93-26.13,19.38-27.5,2.75C630.84,1517.19,659.14,1515.77,658.87,1534.5ZM592.16,55.35c.4-6.38.54-14.53,10.16-15,7.14-.31,12.91,2.23,12.61,10.62C615.84,65.93,591.84,66.38,592.16,55.35Zm-24.93,42.5c.45-6.23,3-14,10.32-14.5,6.87-.48,14.34,2.09,13.22,15.76C590.53,111.13,566.12,113.64,567.23,97.85Zm21.88,1476.07c1,14.09-22.55,14.68-20.26.67-.09-5.07-.37-10.21,5.23-10C580.36,1564.77,589.39,1562.22,589.11,1573.92ZM571.24,1515c.58,14.91-25,16.22-22.27,1.09-.46-8.48,2.2-13.55,11.16-13.18C568,1503.27,571.42,1506.75,571.24,1515ZM549,16c-2.24-14.54,24.7-15,21.88-1-.65,6.59-3.76,12.21-13.82,12.25C550.46,28,549.28,22.23,549,16ZM531.48,134.42c5.78,0,10.77,4.07,9.71,11.76-1.12,5.87-1.65,13-9.92,12.65C514,160,515.73,134.33,531.48,134.42ZM513,58c-1.53-13,22.51-15.92,22.84-3,.59,8.65-1.56,15.75-11.37,14C515,69.62,512.88,64.59,513,58Zm-1.81,1504.48c-.27,7.37-4.19,12.36-10.57,12.14-5.6-.19-15.24,1-13.39-12,2.83-3.34-2.86-13.88,8.45-13.51C503.76,1549.38,511.59,1551.14,511.18,1562.46ZM469.87,105.21c.24-9.74,4.49-14.43,17.94-14.21,3.4.31,5.53,5.12,5.15,11.13C493.05,115,469.72,121.57,469.87,105.21ZM463,200.59c-.17,7.41-.26,15.46-11.82,14.51-18.6,3.89-13.19-22.09.57-23.49C455.24,190.85,463.14,193.12,463,200.59ZM435,53c-1.32-13.71,25.21-14.36,24.06,1.87C459.24,70.71,433.56,67.76,435,53Zm-1.94,98c.28-20.69,23.34-15.49,21.81-2.9C454.68,166.45,431.74,162.78,433.09,151Zm-2,1425.81c1.07,8-4.65,9.79-10.34,10.07-10.6.54-10.54-7.71-10.84-15C410.29,1557.83,433.52,1564.28,431.07,1576.83ZM413.83,216.64c-.39,17.83-22.24,11-20.67-2C392.16,199.78,416,201.69,413.83,216.64ZM399.91,86.84c12.8-1.51,15.86,21.39,2.4,20.3C387,109.12,384.09,86.81,399.91,86.84ZM387.25,15.08c0-4,1-10.22,7-9.91,5.79.3,14.66-1.67,13,9.54,1.9,7.92-3.34,9.4-9.24,10.36C390.12,26.34,387.26,21.2,387.25,15.08Zm-40,48.43c.79-6,2.53-12.81,11.26-12.6,8.25.21,10.38,5.45,11,16.46.63,5.69-7.39,5.58-12.94,6A8.6,8.6,0,0,1,347.23,63.51Zm-11.72,73.13c1.37-16,22.19-14.73,21.75,2C358,155.23,333.67,150.7,335.51,136.64ZM337,1573.91c.32,18.82-24.56,19.78-25.69,2.13C309.5,1559,336,1555.9,337,1573.91ZM282.73,45.43c-.3-14.28,7.61-18,14.82-17.81,6.71.16,8.09,8.59,8.06,14.41C306.26,56.54,285.92,54.65,282.73,45.43Zm-63.67,6.62c-.82-6.46,1.53-10.85,9.07-8.88,9.12-1.92,12.4,3.49,13.42,10.8C243.87,71.33,218.72,74.46,219.06,52.05Zm21,1518.53c-1.88,3.93.55,12.1-6,10.86s-17.21,5.33-19.4-7.71C211.42,1554,237.21,1551.83,240.05,1570.58Zm-30.4-179.27c-1,7.81-8.36,9.44-17.81,10-5.69.63-6.59-5.89-6.61-10.79C183.91,1370.85,212.36,1372.1,209.65,1391.31Zm-29-836.75c-2.07-14.8,23.78-11.41,23.06,2,.63,7.83-2,13.72-11.23,12.49C180.56,570.34,181.36,561.3,180.67,554.56Zm19.93,954.68c-1,3.57-1.38,12-11.3,11.66-16.76,1.39-15.55-24.48-1-25.28C193.2,1495.3,202.34,1495.8,200.6,1509.24ZM166.74,16.67c.45-8,3.67-10.8,11-9.57,10.49-1.9,11.67,5.82,12.12,12.61.26,3.94-.43,10-6.73,9.92C174.74,29.5,166,29.56,166.74,16.67ZM135.27,603.51c-2.75-16,24.26-16.75,24.19-1.26.8,10.38-3.7,16.07-13.94,15.67C136.69,617.58,136.1,609.35,135.27,603.51Zm26.16,851.86c-2.72,4.34-3.19,10.87-10.31,10.59-7.36-.28-13.6-2.46-13-11.79.6-8.73,8.47-10.15,14-10.62C158,1443.06,159.6,1450,161.43,1455.37ZM124.83,1533c3.08,20.53-29.82,19.6-25.74.1,1-5.37,2.53-12.48,10-11.28C115.53,1522.87,124,1523.31,124.83,1533ZM95,451.9c0-6.45,2.78-11.57,9.66-11.8,7.36-.24,15.23.11,14.47,11.25-.54,8-3,13.34-12.39,11.53C97.59,464.85,95.05,459.48,95,451.9Zm-8.3,566.55c-.82-16.63,26.59-19.66,24.31-2.33-.49,8.75-4,15.53-13.92,15.51C88.09,1031.61,88.29,1023.94,86.69,1018.45Zm2.37,256.2c10.11.72,12.3,8.12,12.65,15.59.41,9-9,10.22-14,10.13-7.15-.12-9.3-7.44-8.69-15C78.09,1278.34,80.34,1274,89.06,1274.65ZM87.35,495.42c7.34.35,15.88,2.75,13.93,12.08-.29,8.32-1.62,13.87-9.86,13.55C74.5,521.93,76.82,494.76,87.35,495.42ZM100.43,1410c-2.17,5.83-.39,16.26-12.1,15.25-8.37-.42-8.8-7.72-9.07-13C77.72,1400,102.3,1398.37,100.43,1410ZM97.78,610.29c-1.07,4.84-.45,13.14-9.84,12.87-6.81-.2-11-2.39-11-9.9,0-8.13,3.73-12.46,13.4-12.49C97.52,598.78,98.58,606.67,97.78,610.29ZM77.64,117.19c12.87,1.2,13.67,29.41-5.54,27.6-6-.16-8.07-5.21-7.66-11.15C65.48,125.38,65.93,116,77.64,117.19Zm7,273.74c-.21,5.55,1.1,13.61-6.92,13.71-6.71.08-16.48.06-14.62-12.24-2.35-12.85,9.33-8.58,15-10.8C80.15,380.8,84.82,386.35,84.65,390.93Zm-1.53,1101.7c.34,10.45-28.36,12.45-26.68-1.78.31-7.19-.64-17.52,12.55-15.76C83.09,1472.66,81.51,1485.76,83.12,1492.63ZM73.06,312.75c1.09,10.05-7.17,11.56-13.29,11.88-7.43.4-7.33-7.64-7.42-12.58C50.68,295,75,295.27,73.06,312.75Zm-26-273.33C46.68,32.16,53,28.9,58.16,29.2c4.65.28,13.42-1.11,12.87,8.69C73.65,56.85,47.68,57.59,47.09,39.42Zm5.46,1203.7c-11.12-.42-14.53-6.41-13.72-16.68C39.36,1219.75,40,1214,49.3,1215,66.4,1211.66,71.72,1243.54,52.55,1243.12Zm11.79-144c-.09,16.57-21.28,17.26-25.46,4.91-.72-11,1-18.34,9.21-18.62S65.28,1087.09,64.34,1099.13ZM60.82,974.85c.69,16.39-28.85,15.93-25.63.12C33.89,951.55,60.18,953.16,60.82,974.85ZM35.16,1340.28c-1.9-8.69,4.07-11.29,12.46-11.41,11-1.59,12.23,7.9,13,15.22C59.1,1365.45,37,1358.51,35.16,1340.28ZM59.74,566.36c-.34,5.33.18,12.29-7.71,12.5s-15.88-2.54-16.7-11.43C32.12,547.76,63,544.61,59.74,566.36Zm-24.18-68.5c2.54-6.63-2.82-18.37,10.13-18.75,6.07-.18,13.65.74,13.13,9.28C60.37,501,37.77,513.72,35.56,497.86ZM56.37,1571.7c1.61,11.94-24.58,10.78-26.68,1.15-1.94-8-2.08-16.31,12.09-16C51.3,1555.14,55.24,1563.84,56.37,1571.7ZM37.72,184.76c8.94-.24,14,2.65,13.44,12.23-.34,5.72-1.74,13.48-7.37,13.39-9.35-.15-15.91-6.14-14.73-17.14C27.73,186.17,31.46,184.93,37.72,184.76ZM19.45,1164.3c-.34-6.86,2-16.19,10.37-16.66,15.07-2.58,23.59,31.19,3.55,27.24C24.69,1176.87,19.8,1171.47,19.45,1164.3Zm12.12-141.42c10.21-.87,10.46,7.27,11.23,13.37,1,8.23-6.57,10.27-12.15,10.24C18.44,1046.21,17.17,1023.3,31.57,1022.88ZM13.93,649.62c-.09-6.32,2.56-15.74,10.87-16.1,5.5-.24,15.79-.7,15.24,9.79-.43,8.23.91,19.35-13.42,17.68C17.61,662.59,14,654.86,13.93,649.62Zm25.3-391c-.34,8.82-5.65,12.35-13.74,12.42-9.64.08-6.39-8.32-7-12.82C15.33,240.65,39.4,241.9,39.23,258.59ZM17.94,358.86c7.34-.11,11.5,2.69,11,9.84-.39,6.29,1,14.29-9.1,14.28C7.27,384.13,4.13,357.71,17.94,358.86Zm11,1079.07c-1.29,14.28-27.31,11-23.9-4.94C2.73,1416.36,31.82,1415.61,28.89,1437.93ZM7.44,96c0-3.18,3.08-9,7.06-8.49,7.92,1,16.44,3,14.24,17C21.76,116.88,6.13,109.7,7.44,96Z"/></g></g><g id="Red_Japanese_Frames" data-name="Red Japanese Frames"><path class="cls-6" d="M0,20V1580a20,20,0,0,0,20,20H956a20,20,0,0,0,20-20V20A20,20,0,0,0,956,0H20A20,20,0,0,0,0,20ZM924,1548H52V52H924Z"/><path class="cls-7" d="M952.1,15.41,928.69,38.83A4,4,0,0,1,925.86,40H50.14a4,4,0,0,1-2.83-1.17L23.9,15.41A2,2,0,0,1,25.31,12H950.69A2,2,0,0,1,952.1,15.41ZM40,1549.86V50.14a4,4,0,0,0-1.17-2.83L15.41,23.9A2,2,0,0,0,12,25.31V1574.69a2,2,0,0,0,3.41,1.41l23.42-23.41A4,4,0,0,0,40,1549.86ZM936,50.14V1549.86a4,4,0,0,0,1.17,2.83l23.42,23.41a2,2,0,0,0,3.41-1.41V25.31a2,2,0,0,0-3.41-1.41L937.17,47.31A4,4,0,0,0,936,50.14ZM925.86,1560H50.14a4,4,0,0,0-2.83,1.17l-20,20a4,4,0,0,0,2.83,6.83H950.69a2,2,0,0,0,1.41-3.41l-23.41-23.42A4,4,0,0,0,925.86,1560Z"/></g></svg>