<svg xmlns="http://www.w3.org/2000/svg" xmlns:xlink="http://www.w3.org/1999/xlink" viewBox="0 0 976 1600"><defs><style>.cls-1{fill:none;}.cls-2{fill:#f4f3ef;}.cls-3{clip-path:url(#clip-path);}.cls-4{fill:#50b271;}.cls-5{fill:#d81e1e;}.cls-6{fill:#592116;}.cls-7{fill:#992d17;}</style><clipPath id="clip-path"><path class="cls-1" d="M960,22V1578a6,6,0,0,1-6,6H22a6,6,0,0,1-6-6V22a6,6,0,0,1,6-6H954A6,6,0,0,1,960,22Z"/></clipPath></defs><g id="Paper_Backing" data-name="Paper Backing"><path class="cls-2" d="M960,22V1578a6,6,0,0,1-6,6H22a6,6,0,0,1-6-6V22a6,6,0,0,1,6-6H954A6,6,0,0,1,960,22Z"/></g><g id="Wikipedia_Cropped" data-name="Wikipedia Cropped"><g class="cls-3"><path class="cls-4" d="M238,1515.67c-28.68-4.94-86.25-25.66-80.65-63.27,26.13-20.43,67.22,9,78.52,37.22,2.39,4.72-3.2,6.59-2.9,10.93C233,1506.2,249.76,1511.59,238,1515.67Zm117-8.29c-31.71-6.14-98.75-65.62-54.36-90.25C332.13,1415.6,391,1481.65,355,1507.38Zm122.14-14.27c-19.41,2.63-77.17-66.16-41-85.24C466.12,1408.37,512.93,1475.6,477.16,1493.11ZM313.86,1333.5c-13.56-26.16,58.07-106,77.44-76.87-3.85,29.68-34.21,76.91-68.42,71.49C318.56,1327.58,317.76,1333.41,313.86,1333.5Zm-185.5-67.69c-32.86-19-50.18-72.63-24.71-100.76C138.3,1184,158,1239.6,128.36,1265.81Zm506.48-134.28c-11.28-1.08-37.83-3.45-48.66-18.56C594.41,1059.45,737.35,1119.05,634.84,1131.53ZM334.65,1131c-16.65.83-19.73-7.08-20.95-19.83,7.59-18.63,59.73-34,82.72-19.54C385.39,1114.35,361.46,1132,334.65,1131Zm-219.24-8c-15.75-.13-32.83-8.88-43.18-20.84-3.24-4.19,4.33-7.56,1.37-12.09a4,4,0,0,1,2.09-5.44c26-14,54.76-5.15,80.84,9.36,14.52,18.6-26.2,29.22-41.12,29Zm331.83-72.34c-27.1-23-37.78-71.45-23.62-104.14C463.63,961.56,471.57,1024.74,447.24,1050.61ZM701,1048.7c-15.59-.08-67-8.88-42.73-34.74C696.08,983.37,787.3,1041.48,701,1048.7Zm-464.41-16c-38.38-6.37,3-61,34.52-72.82,22.71,2.66,7.15,33.09-.94,42.17C262.18,1012.38,251.69,1027.88,236.58,1032.65Zm-74.37-30.08c-25.39-5.39-67.75-101.63-24.9-103.19,32.36,16.57,41.53,55.53,37.4,87.91C162.12,995.75,169.72,1000.39,162.21,1002.57Zm555.47-33.79c-16.86-.28-32.69-5.2-40.9-19-10.61-13.31,32.82-20.94,41.1-20.59C775.89,931.16,783,964.84,717.68,968.78ZM514.23,938.69C490.13,922.15,457.63,845,495,835.58,525.21,853.29,541.69,916.83,514.23,938.69Zm80.2-67.33c-29.69-19.26-49.35-76.71-18.52-96.5C608.93,792,613.44,847.16,594.43,871.36Z"/><path class="cls-5" d="M640.75,1457.26c-25.75-7.45-38-33.37-43.08-56.54C584.52,1354.26,690.62,1448,640.75,1457.26Zm73.51-44.93c-26-6.81-44.88-39.78-46.37-63C703.79,1341.66,753.69,1406.5,714.26,1412.33Zm73.22-52c-24-4.1-39.25-22.87-53.74-46.3C733.44,1274.83,849.73,1346.05,787.48,1360.33ZM847,1293.7c-19.46-.39-34.14-14.52-48-26.75-31.19-28.29,40.38-19.9,49.09-9C865.58,1264.12,869.14,1292.84,847,1293.7Zm-331.13-2c-16.49-15.82,0-47.32,7.6-66.08C571.72,1182.72,540.17,1285.2,515.9,1291.67Zm88.17-22.48c-18.22-17.06-10.77-69.47,16.18-82.25C661.85,1179.08,626,1261.69,604.07,1269.19Zm87.48-42.46c-18-17.91-4.39-54.66,6.37-73.16,8-15,31.79-14.16,29.21,5.37C724.46,1187.25,710,1210.08,691.55,1226.73Zm82.72-19.29c-10.2-15.17,10.05-51.58,19.07-67.14C854.31,1090.38,867.42,1175.11,774.27,1207.44ZM798.7,872.67c-10.85,1.83-66.32-14.44-47.43-29.47C791.22,825.52,861.51,865,798.7,872.67Zm-584.35-66c-25.57,7.22-88-40.35-42.29-49.93C196.08,755,296.22,804.42,214.35,806.67Zm612.71-3.94c-18.59-1.5-42.57-8.75-52.67-23.76,8.73-14.27,49-15.38,64.88-6.87C855.55,783.86,845.25,803.72,827.06,802.73ZM686.71,764.55c-64-19.68-51.37-95.17-22.22-64.41C676.68,718.81,699.86,746.65,686.71,764.55Zm-370.57-9.93c-13.83-6,.9-31.52,6.79-37.88C386.34,652.13,408.85,732.36,316.14,754.62Zm532.83-27c-14.31,0-36.57-9.2-42.54-17.58,3.56-15.19,37.21-16.19,51.67-12.31C885.74,703.17,871.39,729.36,849,727.58ZM183.6,717.21c-28,8.85-90.13-38-40.48-53.4C166.39,665.66,249.89,723,183.6,717.21Zm327.23-.28c-71.61-3.58-29.3-30.77,9-34.84C563.06,684.14,542.93,720.32,510.83,716.93Zm208.38-27.17c-19.82-.52-62.33-55.81-33-66.46C703.06,628.58,734.17,677.48,719.21,689.76Zm151.95-34.52c-11.25.39-57.07-4.27-41-20.46C861.41,606.48,938.53,646.14,871.16,655.24Zm-510.34-1.18c-21.63,6.39-90-38.07-49.74-48.9C321.06,604,374.68,643.87,360.82,654.06Zm-159-23c-19,1.88-54.23-43.4-46.65-62.06,5.7-17.52,24.49-21.53,33.78-3.36C195,580,220.61,625.08,201.86,631Zm303.67-7.68c-80.18,7.52,46.59-74.53,41.27-16.7C540.32,618.33,518.52,622.07,505.53,623.33Zm241.26-6.56c-48.42-19.57-37-113.38-2.38-57.32C748.05,577.62,762.49,605.31,746.79,616.77Zm-386.49-54c-20.23-1.62-39.83-1.28-55.61-18.66-14.88-10.2-3.81-33.33,5.81-30.56C326.39,513.62,383.68,553.52,360.3,562.75Zm451.91-4.16C795,547,808.08,507.8,813.49,493.92c5-15.21,38.88-25.47,35.4-1.45C845.37,515.9,831.52,544.15,812.21,558.59Zm-340.78-27c-21.85-11.11,39-45.21,47.84-44.73,47,9.92-20.27,50.49-47.88,44.73ZM350.58,479.79c-36.17,8.23-91-57-43-50C321.24,433.46,376.44,475.62,350.58,479.79Zm102.08-36.56c-33-.78,23.21-55.14,39.66-53.48C549.09,387.29,478.28,447.77,452.66,443.23ZM321.29,393.31c-17.62-2.35-56.67-20.25-49.91-46.86C284.92,321.73,366.41,397.14,321.29,393.31Zm102.49-39.69c-27.83-6.06,21.11-60.95,37.58-64.48C503.19,291.93,444.58,353.58,423.78,353.62Zm-76.55-54.85c-25-7-70.6-64.78-29.34-77.83C341.2,232,360.89,276.68,347.23,298.77Z"/><path class="cls-6" d="M901.15,641.31c-.9-10.85-8-13.44-17-16.8-17.82-6.64-34.21-3.94-49.48,5.07-9.37,5.54-17.67,11.77-29.31,9.44-7.12-1.46-18.22,3.83-13.07-8q6.66-20.74,12.77-41.67c2-6.5,1.15-15.11,5.59-20.59,9.61-11.22,20-21.55,28.31-34.1,8.27-11.31,26.26-55.35,7.24-61.69-12-5.21-21.75,1-30.32,8-16.5,14.79-19.61,46.7-16.1,67.33a60.64,60.64,0,0,1,.8,27.22c-6.94,23.48-16.15,46.48-23.75,69.79-.83,1.5-1.63,4.62-3.64,2.3-26.48-31.85-4.07-80.43-38.07-108.11-7.44-6-15.78-3-19.72,2.93-11.83,17.87-4.26,50,11.85,64.67,9.84,9,22.7,14.9,28.95,27.81,5.6,11.54,18,20.67,11.15,36.21-6.28,14.19-12,28.63-17.81,42.63-15.8-19-22.28-30.16-27.52-54.8-4.62-13.44-14.62-23.27-23.52-33.88-5.21-6.21-11.81-7.88-18.45-5.79-22.11,11.17-.71,40.67,8.12,54.11,4.15,7.08,11.53,14.14,17.36,14.82,18.56,2.16,24.21,18.15,35.19,28.25,2.32,2.14,4.49,7.25,3.51,9.72-8.51,19.88-15.67,40.75-26.14,59.62-.8-.55-2-.92-2.34-1.67-6.36-12.58-20.91-20.15-21.65-36.31a37.75,37.75,0,0,0-4.27-15.13c-7.93-12.41-23.64-54.64-42.58-43.58-8.45,4.22-12.81,12-12.35,22.16,1,21.66,15.85,33.92,30.64,46.3,10.1,8.45,26.55,6.24,33.47,20.21,4.56,9.2,19.5,12.86,10.59,29.09-8,14.54-15.79,29.56-21.64,45.5-4.87,13.26-13.92,25-21,37.42-11.41,20-21.9,40.64-37,59.23-6.06-19.76-10.37-38.73-18.34-56.63a49.81,49.81,0,0,1-4.06-21.87c8.79-31.61,9.88-67.23-18.56-90.63-42.95-41.86-48.86,78.54,7.13,100.2,4.14,1.73,4.63,6.32,6,10.08,5.49,17.34,11.46,34.53,16.18,52.07,1.82,6.76,9.85,13.11,1.06,21.93C609.5,974,602.06,986.11,593.38,997c-9.94,12.5-20.07,24.84-30.26,37.14-1.07,1.29-3,5-4.77.63s-4.76-8.49-5.48-12.39c-4-21.7-15-41.14-19.32-62.65-1.72-8.52-6.51-16.09-2.86-25.82,13.2-33.72,2-75.36-25.78-98.9-4.51-3.49-8.5-11.34-16.64-8.89-14.85,4.48-13,18.42-14.94,29.17-2.94,34.86,12.56,71.93,41.13,92.82,2.25,1.66,5.27,1,6.76,5.24,9.59,27.2,15.64,55.56,27.14,82.14,11.47,16-27.43,38.39-35.79,51.22-11.12,13-23.39,25.06-35.91,38.33-4.86-19.4-9.47-35.6-12.83-52.06-1.89-9.28-8.33-17.91-3.9-28.35,16.09-36.19,7.06-81.44-28-102.45-4.95-3.73-10.62-6.1-13.89,1.72-12.19,27.81-5.15,93.19,24.4,108.76,4.63,2.37,7.44,3.87,8.68,9,4.31,17.75,9.54,35.29,13.38,53.13,1.26,5.89,8.7,12.5-.81,18.91a166.28,166.28,0,0,0-23.77,19.58c-73.89,66.19-171.27,97.41-266.5,119.33,14.17-13.61,20.55-30.91,33-44.29,7.73-8.32,12.42-19.44,18.56-29.25,26.9-42.54,24.11-57.25,77.58-67.5,9.19-3.38,19.07,5.09,28.9,5.25,26.87.46,48.7-10.5,64.78-32,2.61-3.5,6.81-9.62,3.8-12.75-25.49-22.59-66.87-10.18-89.42,12.14-4.46,4.54-5.05,12-10.06,14.48-9.84,5-20.62,8.09-32,12.36,41.5-72.66,78.28-148,106.35-227.08,9.93-34.68,22.14-69.75,27.42-105.4,3.51-20,9.77-39.8,9.27-60.6-.09-3.81-.11-10.4,7.23-12.4,9.45-2.57,18.32-7.19,27.68-10.21,6.87-2.21,13.62-9.25,20.76-5.62,22.87,13,70.83,21,83.13-9,1.87-8.31-2.82-14.77-10.46-18.44-29-14.07-55.49,5-79.44,18.22-13.54,3.36-26.39,8.17-39.16,13.41-2.27.94-4.15,4.22-6.77,2.81-3-1.61.41-3.95.82-5.71,3.9-11.3.64-55.19,9.26-60,23.14-7,41.37-28.22,67.62-23.71,15.9,4,63.64-3.11,61.7-24.58-2.8-33.09-42.36-22.57-60.89-8.82-10.82,6.49-16,18.48-26.08,24.89-11.1,7-23.47,12.14-35.36,17.91-6.2,3-11.82,7.32-10.49-6.1,2-20.41,1.52-41.07,2-61.63.13-5.65-1.3-11.6,6.56-13.85,15.83-4.54,25.22-21.55,45.93-18.89s40.62-5,56.14-21c22.9-18.33.17-43.2-22.61-31.15a105.87,105.87,0,0,0-40.14,31.11c-3,3.79-3.88,8.79-9.66,11.54-12.49,6-23.94,14.13-35.66,21.3-1.8-18.84-4.34-37-6.39-55.74-.89-8.9-5.23-21.16-1.09-26,7.8-9.2,16.43-20.82,32.29-19.32,22.11,6.55,82.16-30.45,69.43-53.92-15.92-26.33-63.3,6.82-71,27.84-3.07,6.16-3.83,13.57-11.63,17.31-7.26,3.47-13.53,9-20.12,13.83-.76.55.21,3.23-1.91,2.48-7.17-15.6-8.36-34.81-13.83-51.46-2.22-8.31-7.29-15.05,1.64-24C411.88,368,422.15,359,437.54,353.67c20.75-7.23,32.32-26.71,43-45.13,9.11-13-6.05-31.24-20.73-25.23-48.78,19.09-35.41,65.9-68.12,92.27-5.05-12.46-10-25.67-15.74-38.55-8.1-18.19-20.7-34-20.46-56.09.23-21.3-6.81-41.5-23.06-57.34-18-22.44-43.88,1.32-37,24,8.7,27.37,26.49,47.26,53.71,58,3.24,1.28,5,4.29,7,9.74,14.19,33.41,26,64,34.51,98.44-18-14.87-44.56-12.42-55.49-38.58-7-18.53-25.57-28.41-43.43-36.73-7.81-3.63-15.65-7.34-23.4.41-21.16,26.87,28.8,59.17,53.1,60.36,6.1.89,11.71-3.64,17.72-.62,14.33,7.2,28.91,13.94,42.87,21.8,3.63,2,9.69-3.8,11.32,5,3.8,22.49,14.27,43.86,11.42,67.13-3.34-1.2-7-1.84-10-3.69-10-6.3-23.85-6.16-31-16.82-13.38-19.84-30-36-51.7-46.07-16.18-10.77-34.25,5.26-26.31,22.33,22.26,48.36,67.5,24.39,103.75,49.11,6.73,4.06,18.37,2.46,18.71,15.3.42,16.11,2,32.18,2.75,48.29.34,7.12,3.38,17.87-10.56,8.16-7.52-5.24-19.07-6.26-24.4-12.79-13.45-17.31-57.77-64.24-79.62-41.19-23,32.46,39.17,58.35,63.35,51.53,11.87-5.86,29.29,8.84,41.09,13.06,3.84,1.9,10.54,4.6,10.49,6.81-.68,28.06-2.34,56.1-3.81,85.18-13.58-11.91-30.46-14.51-41.9-30.08a127.77,127.77,0,0,0-47.87-39.73c-10.29-5.73-26.72,2.86-22.8,16.18,2.26,15.71,15,22.22,26.55,28.78,21.14,12,48.61,8,67.6,26.14,4.8,4.59,15.64,4.73,15.59,11.7-1.45,41-10.12,81.76-17.23,122.09-9.48,41.86-17.72,85.72-37,123.89-13.07-44-28.9-87.31-46.25-129.74-3.85-10.94-12.6-20.21,1.64-33.27,27.1-19.35,65.79-19.23,77.8-55.44,3.06-10.11-.78-18.28-8.69-23.75-16.16-9.38-39.74,7.06-50.91,19.75-9.53,11.84-16.68,23.42-16.73,38.66,0,11.06-10.88,15.14-14.71,23.69-26.56-41-38.52-90.64-70.41-128.52-5-6.24-7.94-12.58-7.28-21-2.3-18.77-9.7-37-17.26-54.38-12.38-29.53-44.77-24.64-50.46,6.51-1.5,26,25.16,51.08,44.25,59.65,6.46,2.9,16.43,1.3,20.39,5.71,17.11,21.79,28.69,51.56,41.49,75.36-1.69,11.72-7.38-.69-11.35,1a3.79,3.79,0,0,1-2.94,0c-7.94-4.7-19.06-1.74-25.37-9.83-15.27-20-66.51-65.59-89.78-39.5-7,8.43-6.89,20-1.94,29.06,12,22,41.39,32.83,62.65,27.49,25.07-6.29,46.61.81,69,8.42,3.4,1.15,7.33-1,9.59,4.44,9.41,22.68,19.49,45.1,29.51,68-15.66-5-31.78-8.8-45.64-18.27-18.42-15.46-92.39-60.67-97.9-16.33,8.77,40.63,62.06,49.44,95.63,36.61,4.62-1.49,8.95-6.23,14-3.32,8.06,4.66,17,6.37,25.47,9.68,6.09,2.38,15.17.71,17,11.1,7.37,25,17.61,49.41,25.8,74.2C332.51,912.43,333.69,930,346,943c.48.5.31,2-.08,2.86-32.57,77.06-70,151.63-115.59,222-8.09-30.4-27.55-74-19.27-103.11,5.3-8.6,9.63-20.48,18.52-23.27,30.57-10.63,59.84-43.06,59.26-76.49-.24-3.67.42-8.33-6-10.33-10.44-3.26-18,1.27-25.85,6.32-22.42,14.45-40.93,31.26-42.44,60.79-.42,8.17,7.08,16.85-1.7,24.88-5.32,5-8.07,12.59-13,18.15-8.11-14.8-12.1-31.73-18.51-47.38-1.9-5.19-6.46-13.86-5-15.08,15.49-17.95,2.79-69.8-10.54-87.83-6.36-9.55-16.51-14-26.06-19.34-8.48-6.63-17.12-5-20.46,3.46-19.84,35.65,6.77,100.21,46.14,110.94,4.67.52,12.83,27.1,14.61,32.25,6,21.94,15.11,42.76,20.48,64.79-1.41,0-3.07.88-4.36.2-7.77-4.37-21.69.88-27.75-5.4-7.72-17.44-25.53-18.44-39.65-23.86-17.22-6.62-35.55-8.08-52.91,3.22-7.53,4.9-14.34,16.9-9.23,22.89,19.92,27.5,53.25,31.29,84.09,19.55,27.5-13.5,16.45-10.38,46.31-9.14,12.66,2.23,14,33.4,18.91,44.16,2.88,9.15,9.64,19.49.74,31.15-23.42,31.74-44.05,66.49-67.05,98.41-2-6.09-9.2-16-8.09-21.79,12-34.65,7.64-65.81-18.88-91.94-5.74-5.65-12.57-14.67-22.59-11.09-24.83,17.94-13.33,59.69-1.34,83.16,6.57,11.05,13.79,21.18,26.51,24.73,9.59,2.68,19.44,22.65,13.52,31-18.87,26.62-38.11,53-57.27,79.39-19.89,26.42-38.81,53.51-57.43,80.83-7,12.36-31.74,37.5-24.12,51.35,4.11,2.95,6.59-1.66,9.28-4.63a198.1,198.1,0,0,1,91.59-62.52c11.19-4.62,21.32-17.09,34.49-5.35,6.13,5.38,15.15,6.51,16.17,17.88.93,10.28,6.11,20.7,13.19,28.15,20.68,20.58,51.22,38.73,81.45,33.82,19.57-3.78,1.66-13.94-.9-25.2-17.62-40.94-45.26-58-90.37-54.53-5.19-2.24-9.88-6.53-16.19-9.22,39.28-15.14,83.78-28.86,124.78-33.31,6.88,8.71,18.28,15.42,17.63,29.17-3.53,38.49,29.33,65.64,58.76,82.76,8.19,5.09,20.31,10.76,28.6,2.94,7.55-7.13,4.29-19.25,3.52-29.56-1.16-15.54-11.32-26.49-18.38-39.08-10.37-18.52-26.45-29.35-47-31.3-36.51,3-17.57-13.61-36.74-14.94,5.58-1.88,7.83-3.18,10.15-3.33,20.19-1.34,39.46-8.72,60-8.42,9.45.14,19.63-.93,28.27-4.43,25.09-10.9,38.6,3.87,50.27,23.9-1,40.36,18.53,82.31,59.06,95.52a36.43,36.43,0,0,0,13.47,1.87c12.72-.65,7-8.48,6.2-15.37-1.63-22.51-5.31-39.41-19.84-57.17-5.62-11-15-16.75-25.28-22.28-7.52-4.06-17.24-1.7-23.14-6.18-7.24-5.48-11.62-14.75-17.23-22.39-1.54-2.09-.75-3.58,1.5-4,19.43-3.77,38.91-7.25,58.31-11.18,19.05-3.86,38.45-6.76,56.9-12.61,22.3-7.05,30.39-5.75,44.23,13.56,7.41,10.33,14.77,19.35,17.32,33.77,15.57,90.64,110.75,75,49.42,4.93-12-9.13-26-14.9-38-23.22-14.86-10.33-26-26.06-38.19-38.9,15.7-6.52,30.85-12.94,46.12-19.07,5.1-2,12.49-6.36,15.42-4.44,10.76,7.07,20,16.45,30,24.66,3.08,2.51,6.43,4.18,6.11,9.07-.54,8.2,4.44,14.94,7.18,22.11,8.95,21.72,35.38,56.58,61.1,40,19.71-18.7-10.18-52.68-27-62-27.09-6.94-45.41-16.73-64.33-37.58-2-1.82-1-3.33,1.58-4.71,12.91-7,27.46-10.51,39.44-19.39,2.72-2,5.83-4.94,9.81-2.06,13.5,9.8,32.8,11.32,40.08,30.16,5.08,13.12,16.59,21.89,25.69,32.31,11.9,13.62,31.86,19.79,47.09,11.16,9.25-5.24,14-15.43,10.3-25-9.14-27.31-43.45-37.29-70-38.81-4.21.05-7.69,3.52-12.87,0-10.44-7.13-22-12.66-33.55-19.12,14.83-12.23,31.28-24.93,45.41-37.81,19.84,7.35,39.94,12.86,55.15,30.52,14,18.11,49.53,41.8,70.37,20.16a22.17,22.17,0,0,0,1.74-25.12c-17.32-27-52.23-31-80.71-21.81-9.49,2.33-21.55-6.47-32.64-9.79-7.58-2.26-2.57-4.34-.63-7.26a36.56,36.56,0,0,1,8.67-9c31.08-16.3,66.55-28.51,82.72-62.43,23.86-60-79.44-58.07-78.72,49-28.18,27.13-56.36,49.29-89.2,72.86,10.6-17.64,9.43-36.2,24.16-52.9,15-17.58,30.77-36.49,31.74-62.4.51-13.7-1.09-25.3-16.63-28.09-21.12-2.51-36.09,30.28-37.54,47.8-1,14.73-3.59,29.9,4.22,43.92,1.06,1.92,1.31,3.37.18,6.07-4.83,11.57-7.92,23.9-13.1,35.28-3.49,7.67-4.14,17.82-13.14,21.86-22.56,9.53-44.72,20.44-68,28,1.71-4.67,2.86-9.59,5.58-13.77,6.58-13.78,7.42-30.7,22.56-39.83a29.66,29.66,0,0,0,9.36-9.8c10.68-16.78,30.49-64.54,5.33-75.42-11.38-3.85-20.48,2.87-28.6,12.87-13.87,17.09-14.81,35.9-13.61,56.14.61,10.36,10.16,19.11,4.86,30.37-4.63,9.83-9.19,19.7-13.38,29.71-2.79,6.66-3.6,15.39-11.12,17.92-22.14,7-44.43,14.49-67,19.8,1.83-6.24,6.37-12.83,6.88-18.9,3.66-18.14,13.58-32.56,23.84-46.9,11.34-15.85,21.94-31.79,21.39-52.38,1.5-16.23-15.78-25.71-28.57-15-11.2,8.17-13.78,20.87-17.55,32.89-4.26,13.58-6.51,27.19-3,41.65,1,4.32,7.56,6.72,3.4,13.61-5.07,8.38-6.73,18.76-11.17,27.62-3.62,7.23-3.42,17.41-12,21-51.12,10.44-103.74,18.67-155.48,26-13.4.92-26.3,2.18-38.95,6.55-1.14.4-2.59-.1-3.89-.19,11.32-16.36,19-38.27,41.35-44.65,21.17-7.68,39.91-24,53.17-41.87,7.9-9.82,8.69-22.65,12-34.37,2.14-7.5-4.41-21.87-9.81-20.55-27.66,4.65-48,25.18-63.68,47.26a84.94,84.94,0,0,0-16.72,39.77c-.75,4.9,2.15,9.87-1.95,14.89-7.33,9-12.92,19.4-20.49,28.13-4.29,4.93-5,12.94-14.58,14.1-37.44,3.4-72.72,16.07-108.23,27.41-47,15-94.73,33-133.93,63.53-.22-7.59,6.35-13.48,10.77-18.31,30.54-37.94,58.54-77.53,87.38-116.75,11.92-16.1,25-31.43,35.72-48.28,5.47-8.55,11.87-14.82,20.85-15.38,100.33-13.06,197.34-56.44,274.44-122,19.51-15.62,36.38-35.65,56.52-49.9,17.62-.76,34.87,2.89,52.29,4.57,8.57.83,17.92-.54,23.17,9.53s38.15,21.92,48.76,19c93.45-21.09,2.72-72.11-44.2-46.54-5.94,2.92-8,13.79-18,8.92-3.23-1.57-7.25-1.67-10.94-2.09-12.78-1.43-25.56-2.71-38.35-4-3.36-.35-1.4-1.7-.47-2.71,17.58-19.25,37.19-36.63,52.95-57.58,1.64-2.18,4.66-5.45,6.42-5.1,13.29,2.65,26.67,1,40,1.66,8.13.41,19.48-.8,23.66,3.85,18.8,19.51,54.48,26.39,78.77,16,48.89-21.18,1.2-45.89-28.17-51.18-16.8-3.33-40.77,3.13-50.32,17.73-1.39,2.13-4.1,5.27-5.82,5-16.22-2.14-32.49-1.56-48.75-1.64-2.68,0-3.65,0-1.3-2.8,6.28-7.59,11.31-16.38,18.31-23.17,13.21-12.81,16.64-35.72,39.08-38.84,7.65-1.07,16.76-2.36,22.72,2.57,10.94,9,23.49,13.88,36.69,16,16.71,5.15,89.59-13.65,58.41-36.37a75.85,75.85,0,0,0-34.64-14c-57.71-12.55-52.57,28.15-84,19.5,19.78-29.54,36.62-61.32,52.92-93,3.31-6.69,9.52.44,14.47.3,8.12-.22,18.77-2.49,24,1.63,21.13,16.8,43.46,27.13,71.07,24.29,14.34-1.47,22.46-14.42,14.53-26.1-11.22-15-40.73-18.65-58-15.09-20.83,5.78-41.31,9.85-62.29,3.79,19.12-17.24,14.06-64.76,49.12-56.83,6.12,1.68,13.73-1.76,19.41,1.72,19.22,16.93,66.62,39.15,80,5.6,5.06-30.4-38.42-29.38-58.11-24.51-11.41,1.86-20.41,11.62-33.08,9.34-5.92-1.42-22,2.55-23-5.05,5-12.43,10-24.84,14.86-37.31,4.62-11.82,8.72-24.09,25.78-20.1,6.06-.53,17.94-4.06,22.15-.62,14.54,15.14,45.14,24.24,64.57,16.77,13.27-3,19.06-23.63,6.46-31.28-14.22-8.17-30.51-9.59-45-3.78-5.75,4-68.53,18.65-59.51,3.11,3-8.57,5.16-17.72,9.68-25.44,5-8.43,1-25.26,19.19-22.54,9.76,1.46,19.73-5.29,29.27.27C839.56,659.81,903.68,667.92,901.15,641.31ZM808.83,536.18c.35-20.52,4.12-54.68,31-53.93,17.34,3.49-11,55.56-19.67,62.46-3,3.4-6.36,11.84-8.84,9.47C807.3,550.38,808.79,542.54,808.83,536.18Zm-60,73.54c-.07,1.71-1.14,4.4-3.8,2.25-15.78-12.77-26.73-28.31-28.06-50.33.4-6.08,1.88-14.39,9.42-14.92C743.7,545.56,750.46,596.55,748.8,609.72ZM717,685.28c-13.81-2.68-49.15-43.17-32-58.15,20.05,9.71,30.24,35.41,34.82,56.12C720.5,686.78,719.07,685.69,717,685.28Zm-30.27,75.27c-18.6-5-53.14-37.59-41-57.13,1.88-3.53,4.47-6.68,9.88-6.65,4.31,0,4,3.48,5.22,5.09C673.58,719.08,686.85,738,686.71,760.55ZM568.2,786c8.89,27.56,17.43,54.07,26.23,81.36C570.19,845.43,559.88,819.45,568.2,786Zm31.67,66.71c-8.8-25.42-17.35-50.11-25.72-74.26C594.7,788.53,607.61,824.19,599.87,852.71Zm-85.64,82c-22.12-23.86-37.32-59.55-28.6-91.79,8.31,24.58,16.8,49.75,25.33,74.91C512.86,923.42,516.19,928.59,514.23,934.69Zm7.68-13.21c-9.56-27.18-19.15-54.46-29-82.49C520.18,855.8,530.71,904.79,521.91,921.48Zm-98.28,29c8.32,33.87,15.72,64,23.61,96.14C421.9,1018.78,420,987.29,423.63,950.47Zm30,84.16c-7.61-27.81-14.63-53.48-21.7-79.33C458,975.33,460.29,1002.49,453.63,1034.63ZM320,1123.45l65.06-20.7C373.21,1123.36,332.6,1132.65,320,1123.45Zm72.46-31.51-75.23,21.17C326.82,1095.78,355.61,1087.48,392.43,1091.94Zm83.93-389.18c18.62-13.51,44-22.68,61.8-11.32,1.9,1.06,3.62,4.83,3.3,7.06-8.25,21.59-51.71,14.86-67.2,6C475,703.91,475.65,703.33,476.36,702.76Zm14.92-96c10.09-9.29,22.33-14.27,35.49-17.11,16.51-2.1,24.27,18.65,6.17,23.08a79.55,79.55,0,0,1-39.31,6.22c-4.16-.63-10.46,2.4-11.71-2.72C481.37,613.91,487.87,609.84,491.28,606.71Zm-21.44-81.4c8.8-12.08,49.29-48.53,61.38-28.47,1.61,4.12-1.74,6.37-4.09,9-14.85,16.79-34.45,21.33-55.65,21.71C470.39,527.59,468.19,527.31,469.84,525.31Zm-19.28-96.67c6.95-17.42,39.38-44.79,57.72-32.94,8.11,19.82-45.55,48.75-62.88,42.69C447.13,435.14,448.93,431.93,450.56,428.64ZM424,332.77c9.93-15.51,21-34.42,39.88-40.12,9.9,1.41,10.62,8.19,6.76,13.72-9.66,13.85-17.67,29.48-33.53,37.9C421.34,354.49,412.66,349,424,332.77Zm-76.72-38c-20.19-8.41-60.92-52.26-31.37-70.38,10.37,6.1,19.27,13.27,22.86,24.49C344.44,263.64,349,278.45,347.23,294.77Zm-30.78,93.88C299,383,283.21,374.41,274.37,357c-2-5.22.34-12.88,7.07-12.29,12.23,4.54,24.26,10.61,33.42,20.87,3.46,3.88,8.85,5.31,11.1,11,1.57,4,5.17,7.28,5.57,12C326.48,388.69,321,390.13,316.45,388.65ZM352.52,476Zm.76-.24c-54.82,3.14-76.8-55.82-45.44-41.44,19.44,8.44,35.66,23.23,46.64,41.08Zm6.65,83c-7.43-.62-14.94-2.3-22.27-1.73-11.83.92-36.61-17.34-36.6-26.45.55-13.73,8.38-14.95,16.91-11.17,17.49,8.56,37.54,20,44.67,39.1A14.77,14.77,0,0,1,359.93,558.73Zm-13.31,90.16c-70.58-20.46-47.76-78.45,14.2,1.17C356.08,649.72,351.14,650.09,346.62,648.89Zm-20.57,70.35c7.43-13.4,48.86-39.24,49-8.45A47,47,0,0,1,353,734.39c-11.21,5.7-23.14,10-34.47,15.46-3.68,1.77-3.35.26-3.57-2.23C313.92,736.32,319.74,727.13,326.05,719.24ZM203,627c-18.15,1.72-49.68-38.82-44-56.8,22.54-42.89,42.7,35.45,46,53.09C204.53,624.63,205.94,626.68,203,627Zm-2.83,85.8c-25.81,1.63-63.94,1.36-71.11-30,4.5-40.18,66.84,12.7,77.44,27.82C204.39,711.37,202.31,712.68,200.17,712.76Zm43.2,81.52c-17.47,19.07-81.81,5.41-82.53-25-.76-22.07,52.06,2.38,62,10.55,4.1,2.69,8.27,5.26,12.36,7.94C238.26,789.75,244.14,790.76,243.37,794.28Zm35.26,173.2c3.08,20.62-24.75,53.09-42,61.17C248.8,1007.72,264.53,988.69,278.63,967.48Zm-5.95-4c-15.19,21.13-33,39.76-46.62,63.26C221.91,1005,244.18,975.73,272.68,963.5ZM162.21,998.57c-1.12-.18-3.85.31-4.52-.56-19.15-26.55-45.12-57.89-29.92-92.73,11.79,29.4,21.68,59.43,34.77,88.09C163.07,994.88,162.36,996.83,162.21,998.57Zm8.17-11.78c-12.42-28.11-22-55.8-35-83.93,20.38,11.49,31.09,27.67,33.62,49.34C168.92,961.92,175.64,979.28,170.38,986.79ZM89.05,1110.32c-4.85-3.36-10.7-5.22-13.69-10.71,23.8.17,47.37,7.62,71.06,10.49,1.75.28,3.7-.69,5.56-1.07C131.22,1118,110.25,1125.34,89.05,1110.32Zm64.12-9.44c-21.53-3.46-43.49-4.13-64.68-9.76-3.76-1-8.54,2.07-11.29-2.84,8.53-2.71,14.06-7.93,23.66-7.22,17.64,3.1,41,4.42,55.89,19.1C155.55,1100.42,154.3,1101.06,153.17,1100.88Zm-24.81,160.93c-27.37-18.27-38.46-55.92-28.57-86.9,7.82,24.42,15.39,48.5,23.3,72.46C124.69,1252.21,129.91,1255.76,128.36,1261.81Zm9.47-14.35c-.14,1.15-1,2.21-1.53,3.31-12.7-27.23-17.9-54.82-32.64-81.72C131.12,1188,141.44,1216.38,137.83,1247.46Zm94.32,243.71a5.34,5.34,0,0,1,.17,1.51c-23.33-13.13-42.73-28.83-65.92-43.19C195.08,1448,221.2,1465.11,232.15,1491.17Zm5.82,20.5c-37.38-7.66-65.87-20.55-80.35-55.28Zm62.43-90.55c21.83,1.5,35.89,14.56,46.88,31.94,8.05,12.73,18.29,24.75,15.16,42.18-21.39-25.84-43.58-49.27-66.21-73.18C297.63,1421.73,299,1421,300.4,1421.12ZM290.32,1434c.09-.71.12-1.43.17-2.15,21.91,23.55,43.55,47.05,64.53,71.51C327.32,1494.24,289.23,1466.2,290.32,1434Zm196.11,47.23C470,1456.87,449,1437,436,1411.87,458.21,1413.18,486,1446.37,486.43,1481.25Zm-26.08-16.7c5.53,7.34,9.78,15.73,17.28,21.52.73.57.81,2,1.19,3-31.27-6.68-48.2-40.49-51.12-69.94C436.22,1436.08,449.15,1449.69,460.35,1464.55Zm139.27-73.17c23.47,8.37,44,25,49.54,50.33.84,5-1.21,8.33-5.07,10.61-3.65,2.15-7.11.19-10-1.68C612.56,1437.72,603.58,1415.07,599.62,1391.38Zm74.71-40.12c25.45,8.35,44.7,21.07,50.63,48-.21,7.83-10.3,11.5-17.14,7.21-19.7-12.34-29.15-31.91-36.66-52.74C670.15,1351,672.4,1350.62,674.33,1351.26Zm67.41-44c17.6-2.11,53.39,15.32,59.19,33.19,0,14.07-10.89,19.55-22.88,13.39-18.31-9.41-30.86-24.38-40.84-41.79C734.74,1307.72,739.68,1307.56,741.74,1307.25Zm53.87-52.54c15.26-10,66.57,3.71,63,25.53-10,25.26-44.71-5-56.29-15.71C799.51,1261.57,792.71,1259.46,795.61,1254.71Zm1-112.1c9.4-13.21,28.78-18.31,39.6-7.38,7.37,7.46,1,15.15-2.2,21.5-11.9,24.06-36.93,35.23-59.74,46.71C778.66,1182,783.48,1161.09,796.61,1142.61Zm-95.32,13.13c5.69-11.2,24.26-12.45,21.85,2.6-1.46,27.38-16.84,45.41-31.59,64.39C682.29,1201.18,689.45,1175.42,701.29,1155.74Zm-102.35,84c-4.14-33.41,32.12-68.33,35.75-40.84-.4,25.8-10.55,47.93-29.15,65.57-3.4,3.23-3.93-4.79-4-5.89C601,1251.6,597,1245,598.94,1239.7Zm-85.69,32.9c4.69-15.6,5.86-51.49,26.64-53.2,7.08,1.08,4.77,7.76,5.16,12.64.3,16.63-10.26,28.63-18,41.84a33.37,33.37,0,0,1-11.16,13.79C513.26,1283,512.07,1277.55,513.25,1272.6Zm-125.86-16.82c-4.81,32.37-27.31,60.83-58.16,70.61A683.77,683.77,0,0,1,387.39,1255.78Zm-11-2.38c-20,24.08-41.21,47.23-62.52,76.1C325.9,1292.93,344.59,1267.72,376.38,1253.4Zm293-141.13c-27.14-7.55-51.7-9.15-77.22-9.48C615,1091.74,643.53,1092.35,669.4,1112.27Zm-2.83,5.26c-25.44,16.76-49.6,10.35-76.47-3.77C617.89,1111.38,642.18,1115.25,666.57,1117.53Zm-6-100.32c20.37-14.57,57.55-6.05,72.92,9.56-26,0-52.88-.46-76.85-5.28C658,1020.05,659,1018.31,660.58,1017.21Zm72.95,17.84c-18.91,12.27-43.37,14.45-77.8-3C683.73,1035.81,708.2,1034.77,733.53,1035.05Zm-20.07-70.41c-6.34-.93-25.23-4.1-28.23-9.73,22.32-4.8,49.61-.32,75.45-1.81C744.19,960.62,729.29,965.71,713.46,964.64Zm46.66-20.45c-27.18,3.44-53-5.39-82.33,1.71C707.05,927,732.81,931.53,760.12,944.19Zm-8.07-97.06c8.67-1.66,17.36-3.24,26.42-4.91,11.63,3.67,40.36,2.35,40,19-1.82,7.41-10.81,7.14-16.65,7.39-19,.82-35.8-5.84-50.46-17.88C750,849.45,749.55,847.55,752.05,847.13ZM783,776.82c9.75-4.35,20.18-5.28,31.13-6,7.18,1.8,15.23-1.34,22.71,4.44,16.55,12.9-.7,27.18-16.41,23C815.6,800.14,762.2,776.74,783,776.82Zm70.56-76.06c6.06,1.65,13.1,1.46,15.19,8.28,3.55,11.57-7.64,11-13.44,13.49-10,4.39-39.19-5.83-45.61-14.85C823.86,702.65,837.63,696.43,853.55,700.76Zm39.25-56.55c-.7,3.49-3.28,4.77-7,4.82-18.13,3.29-37.35,3.46-53-6.08-2.16-1.31-4.71-2.43-.7-4.69,18.36-10.32,37.09-14.26,56.62-3.22A8.19,8.19,0,0,1,892.8,644.21Z"/></g></g><g id="Red_Japanese_Frames" data-name="Red Japanese Frames"><path class="cls-6" d="M0,20V1580a20,20,0,0,0,20,20H956a20,20,0,0,0,20-20V20A20,20,0,0,0,956,0H20A20,20,0,0,0,0,20ZM924,1548H52V52H924Z"/><path class="cls-7" d="M952.1,15.41,928.69,38.83A4,4,0,0,1,925.86,40H50.14a4,4,0,0,1-2.83-1.17L23.9,15.41A2,2,0,0,1,25.31,12H950.69A2,2,0,0,1,952.1,15.41ZM40,1549.86V50.14a4,4,0,0,0-1.17-2.83L15.41,23.9A2,2,0,0,0,12,25.31V1574.69a2,2,0,0,0,3.41,1.41l23.42-23.41A4,4,0,0,0,40,1549.86ZM936,50.14V1549.86a4,4,0,0,0,1.17,2.83l23.42,23.41a2,2,0,0,0,3.41-1.41V25.31a2,2,0,0,0-3.41-1.41L937.17,47.31A4,4,0,0,0,936,50.14ZM925.86,1560H50.14a4,4,0,0,0-2.83,1.17l-20,20a4,4,0,0,0,2.83,6.83H950.69a2,2,0,0,0,1.41-3.41l-23.41-23.42A4,4,0,0,0,925.86,1560Z"/></g></svg>