<svg xmlns="http://www.w3.org/2000/svg" xmlns:xlink="http://www.w3.org/1999/xlink" viewBox="0 0 976 1600"><defs><style>.cls-1{fill:none;}.cls-2{fill:#f4f3ef;}.cls-3{clip-path:url(#clip-path);}.cls-4{fill:#6060bf;}.cls-5{fill:#50b271;}.cls-6{fill:#d81e1e;}.cls-7{fill:#592116;}.cls-8{fill:#992d17;}</style><clipPath id="clip-path"><path class="cls-1" d="M960,22V1578a6,6,0,0,1-6,6H22a6,6,0,0,1-6-6V22a6,6,0,0,1,6-6H954A6,6,0,0,1,960,22Z"/></clipPath></defs><g id="Paper_Backing" data-name="Paper Backing"><path class="cls-2" d="M960,22V1578a6,6,0,0,1-6,6H22a6,6,0,0,1-6-6V22a6,6,0,0,1,6-6H954A6,6,0,0,1,960,22Z"/></g><g id="Wikipedia_Cropped" data-name="Wikipedia Cropped"><g class="cls-3"><path class="cls-4" d="M434.47,1288.88c-65.17-10.39-131.57-15-197-21.8-31.77.49-44.58,2.15-20.15-30.85,60.57-96.47,120.21-195.52,161.2-301.72C423.65,798.07,455.3,653,469.59,510.36c3.29-58.52,11.3-117.11,9.26-175.64.85-19.33,17.88-7.23,28.91-10.49,274,11.47,229.55-79.86,212.94,145.82C701,724.1,616,1108.86,437.47,1291.88Z"/><path class="cls-5" d="M277.27,1505.46c-8.3-2.54-2.08-17-1.43-23.51,5.72-29.48,24.42-52.92,37.32-79-7.41-15.81-58.8-8.33-57.2-19.73,27.73-45.9,75.68-90,129.78-96.32,16.78-3.54,49.71,15.79,62.62,1,17.2-22.61,31.31-53.17,52.57-69.66,15.65,8.74,45.5,7,52.71-11.56,8.42-16.9,11,30.19,35,27.13,11.74,3.68-6,35.78,7.52,42,2.41,32.69,23.4,41.06,48.28,43.92,6.78,71.68-47.63,131.7-100.2,174.6-19,28.72-28-14-32.13-29.54-1.4-5.09-7.59-5.36-10.92-2.09-23.74,14-48.62,11.26-73.71,12.37C381.48,1477,321.68,1485.16,277.27,1505.46ZM844.64,1495c-36.58,4.09-60.44-21.94-79.46-43.19-60.1,32.6-70.94,11.23-80.66-49.64.55-31.1-11.74-89.79,26.74-97.11,16.3-9.34,24-26.48,33.57-42.16,9.54-12.19,24.15-16.91,27.56-33.18,2.18-5.65,8-10.33,3.25-16.45-8.1-22.56,46.36,21.67,56-18.24,6.4-36,121.17,34.39,119.25,58.88-5,12.1-18.76,20-28.22,28.47-12.33,6.06,21.32,35.85,12,66.73-2.65,43.64-20,93.09-15,140.67-4.65,2.83-10.65,1.84-16.23.65C883.84,1486,865.52,1497.32,844.64,1495ZM232.87,895.08c-41.21.86-84-8.35-124.5-2.41-13.32-3.43,3.23-17.14,5.71-23.76,45.37-62.89,34.26-32.3-20.77-63.27-29.45-19.85-69.07-36.48-83.06-67.79,13.48-6.15,31.34-6.16,45.93-14.38,37.58-13.69,70.7-38.4,111.16-44,16.17-8.84-15.89-38.28-23.1-48.87-6.55-7.84-3.1-10.81,4.55-12.61,68.94-34.23,155.89-20.13,219.38,21.14,86.28,54.16,67.34,70.83,46.11,153.4C410.37,884,304.46,896.44,232.87,895.08ZM718,885.9c-12.11-12.92-11.77-26-33.74-26.58C644,859.48,664,828,669.28,804c.92-4.7,7.9-4.15,9.29-8.55-4.26-14.61,4.64-27.5,11.37-39.69-17.9-73.38,48.45-99.56,110.91-104.52,27.9-4.53,56.32-5.89,83.87-12.21,6.39-.21,20.09-14.58,22.33-3.4-11.82,127.4-99.48,124.48-37.79,160.58,60.32,29.12-67.77,86.52-93.77,87.33-5.41,2.25-11.61-3.75-13.44-7.18C748.9,859.91,728,878.52,718,885.9ZM444.45,638.8c-12.15-15.21-2.71-46.27-14.12-63.5-4.1-1.85-9.24,1-11-5-39.77-120.48-190.17-43.86-132-97,13.58-15,43.7-26.53,65.63-28.93,16.23-3.42,30,15.45,43.93,14.57,1.94-30.22-24.57-64.18-36-93.52-1.3-8.77-10.91-5.13-17.11-6.68-9.51-.23-46.74-13.73-33.71-27.32,20.18-.08,40.81.7,54.44-13.67,22.47-10.81.45-28.34,25.89-31.53,12-16.94,22.1,5.93,16.67,19.19-1.2,5.44-9.15,9.17-5.05,15,4.8,8.81-14.6,16.92-4.71,24.36,25.65,55.67,73.81,138.63,64.26,205.07-3.24,24.59-7.35,50-11.15,73.94C449.23,623.9,450.72,639.82,444.45,638.8Zm271.17-60.34c-8.12-5.31,1.32-38.23,5.25-48,.71-8.85-4.2-18.6,0-28.25-.35-21.45,16.81-29.29,27.22-43.29,37.26-59.34,104-51.55,146-8.34-10.67,10-33.06,7-47.09,12.32C791.63,481.68,753.65,539.67,715.62,578.46ZM152.68,394.62c-15.88-3.77-16.08-2.64-9.5-18.83,9.4-39.77,42.07-77.14,85.85-76.65,11.11-.43,8.42,16.95,17.59,18.43,7.8,1.26,25.93,6,27,14.57-21.05,14.95-56.51,10.38-79.17,26.89C178,366.75,168.17,386.23,152.68,394.62Zm274.5-137.08c-13.72-2.77-2.49-20.91-5.42-28.75-1.38-5.92-3.87-27.81,7.56-22.76,39.21,4.56,112.06.1,130.29,39.85,9.57,2.92,2.27,10.85-5,8.91C512.14,244.1,470.17,252.55,427.18,257.54ZM200,242.33c-13.58-5-24.44-21.76-39.32-25.56-21.7-9.94-53.52,10-72-2.3,14-23.88,46.46-41.91,77.14-44.83,19,3.24,49.19,5.26,41,30.79C203,210.3,218,236.16,200,242.33Zm211.63-54.42c-9.32.11-10.7-10.08-17.91-11.9-42-14.67,26.75-36,40.42-46.38,28.5-12.79,56.1,11.19,81.22,21.56,5.16,4.14-2.56,10.5,1.52,16.3C473.15,179.22,465.46,147.27,411.61,187.91Z"/><path class="cls-6" d="M633.56,1316.37c-54.08-6.51-24.68-65.79-39.62-83.41-24.41,3.54-27-36-39.77-24.51-6.47,16.27-66.56,22.9-48-4.44,26.42-45.13,53.06-87,73.37-135.3,20.1-42.11,36.74-85.92,51.5-128.64,3.18-19.68,13.27-41.58,18.51-60.32-.87-11.63,5.37-31.48,20.37-21.57,14.41,5.43,30.87.54,39.61,19.06,2.25,3.94,2.46,10.69,8.31,10.6C728,882.67,734,869,746.41,871c16.06-.74,22.21,19.35,39.26,19.85,13.31,2.64,21.67,12.82,22.92,27.93,4,12.71,19.59,26.5,18.48,39.95-10.22,32.35,12.27,11.39,26.1,25.65,11.45,16.94-1.68,38.38,19.74,57.63,6.85,12.16,5.34,25.21-4.07,34.91-12.73,14.88-5.47,43.09-27.58,50.06a6,6,0,0,0-1.61,10.13c10.19,8.52,9.6,26.46-1.47,34.47-5,8.4-3,19.45-9.35,27.73-19.44,33.18-57.82-12-59.38,10.09,11.87,37.35-24.31,39.31-33.51,66.26-21.91,48.37-64.9,26.59-102.38,40.67ZM311.94,329.91c-30.29.11-70.69-5.57-79-36.6-29.54-.17-44.32-37.38-23.67-59.58,6.32-8,.72-20.47-.47-30.38-7.88-18.87,42.64-62.18,57.86-59.92,26.62-7.76,36.2,37,47.73,24.23,10.37-17.29,22.16-21,39.37-21.61,22.91,5.43,24.21,29.56,45.62,37.91,27.88,20.25,16.2,31.55,18.69,55.27,6.05,22.87-13.93,42.46-33.07,47.93-3.66-.65-7.8,1-8.27,5.13C373,321.88,338.84,331.41,311.94,329.91Z"/><path class="cls-7" d="M961.24,1528.42c-.08,11.64-8.63,14.08-16.56,14.14-6.49,0-6-7.52-6.49-12.36C935.27,1512.89,962.42,1510.92,961.24,1528.42ZM942.72,110.91c-18.78-1.79-17.49,28.66.77,26,5.77-.59,11.52-2.88,10.42-7C952.29,119.05,953.61,110.85,942.72,110.91ZM923.33,1466.18c-2,10.58,10.54,39.52-10.63,30.78-15.55-6.08-30.18,1.56-45.15,3.18-36.5,4.68-79.83-.86-97.32-38.07-5.63-12-13,.34-19.21,2.11-14.89,4.26-30.32,13.21-45,6.16-27.57-19.07-30.61-77.36-28.8-108.54.78-15.46,2.54-30.87,9-45.69,2.41-5.51-5.85-1.58-8-1.65-8.38-.28-16.82,1.62-25.26,2.58-1.92.22-2.07,1.19-1.89,2.7a119.48,119.48,0,0,1-8.48,61.81c-20.83,54.17-65.13,93.65-108.29,130.6-9.23,8.84-10.74-5.13-12.59-8.26-6.71-11.38-13.29-23.28-14.76-36.94-.16-1.48-.4-2.32-2-1.17-25,17.61-53.9,13.44-82,15.8-47.93,4.72-99.63,9-143.46,30.18-24.69,17.89-5.95-45.15-2.33-53.31a150.67,150.67,0,0,1,19.46-37.88c7.9-9.84,17.81-19.54-1.54-21.22-12.65-2.76-25.72-3.65-38.33-6.55-26.66-10,40.41-72,53.84-77.74,15-8.64,28.19-20.58,44.33-27-14.15-4.9-28.65-2.38-42.74-4.72-21.07-3.5-42.39-7.12-63.63-7.33-13-.12-25.44-4.06-38.21-2.74-15.6-.19-19.91-11.47-11.09-23.12C272,1127.31,352.49,1003.71,390.37,865.25c-69,44.37-154.6,38.51-233.09,34.76-18-.48-36-3.52-53.92.85-12,2.72-13.1-4-7.45-12.58,44.49-89.49,67.23-37.48-13.76-81.58-13.31-8.18-25.86-18-38.93-26.33-14.93-9.54-25.8-21.93-36.52-35-9-10.91-4.77-16.53,8.59-16.5C69.61,722,114,675.52,169.14,675.41,159,658.85,149.43,643.2,137.7,629c-13.49-19.55,42.58-29.05,55.44-33.26,89.72-17.78,181.25,23.17,240.39,90.09,13.88-52.74-12-108.1-40.41-151.73-25.82-31.44-84.31-34.63-122.06-33.23-9.42-.54-37.08-2.24-20.95-15.52A214,214,0,0,1,312,450.8c28.11-14.52,55.76-18.65,80.67,4.94-8.64-31.41-22.38-62.08-38.29-90.51-1.3-2.11-8-.77-12.21-1.21-13.94-1.46-26-6.8-35.34-17.55-10.4-12-20.86-12.46-36.37-6.47-15.32,5.93-31.82,8.76-47.77,13.07-37.77,7.89-59.52,41.49-84.46,67.79-4,4.49-8.73,2.91-12.74,1.73-3.71-1.09-1.09-5-.48-7.4,9.08-33.25,21.57-66.43,41.39-95,13.51-15.62,32.87-18.74,51.31-24.21-13.62-12.33-27.71-24.34-23.22-45.53,2.21-11.12-11.23-11.58-17.1-17.28-19.14-18.61-42.51-9.88-64.65-8.45q-17.45,1.13-34.86,2.33c-4.54.31-9.1-.78-13.64,1.63-10.5,4.44-5.31-8.42.27-11.93,38.51-30.32,90.37-72.27,139.78-39.92,14.65-.23,35.38-34.61,55.62-39.76,11.87-4.5,37.79,6.43,43.26,18.11,1.49,3.18,4.46,5.68,6.74,8.48C320.12,144,355.56,132,366.79,145.51c16.34,19.72,24.87.73,35.45-3.64C423.07,131,445,112.59,470.1,123.39c16.43,6.5,77.37,34.3,80.63,50.18-12.26,9.45-54.52,1.72-69.91-1.2-25.05-5.67-43.85,4.44-62.92,16.95-.6.4-.87,2.72-.49,3,3.89,2.66,1.42,10.82,8,10.47,49.79-.71,103.07,6.69,145.36,34.23,7.35,4.72,14,10.56,21,15.8,7.7,5.4,1.2,12.4-6.49,11.11-26.61-.6-51.74-12.65-78.54-10.69-27.34,2-54.75,4.21-81.72,8.78-27.72,9.83,1.81,40.24-22.3,73.14-6.54,9.82,3.87,15,7.19,21.36,21,45.13,43.85,88.28,51.41,138.24,4.71-9.94,2.49-18.65,3.53-26.94,2.06-16.43.75-33.24,2.63-49.49,2.52-21.79,4.3-43.68,5.4-65.48a187.9,187.9,0,0,0-.23-26.82c-1-10.8,8.14-4.26,9.73-4.37,74.1-4,148.46-6.37,222.34-11.21,9.34-2.66,18.66-.12,27.93-1.41,4.53-.64,4.47,2.8,4.38,6-.85,53.61-3.6,106.92-9.5,160.23,23.78-22.8,40.16-59.11,75.33-64.09,36.8-5.23,67.07,12.55,97.71,29.78,4.27,1.91,7.31,4.82,6.5,9.69-.72,4.34-5.45,2.92-8.21,4.36-19.29,10-41.58,8.51-61.68,15.87-30,15.19-52.39,41-76.24,64.17-11.61,14.64-45.75,44.09-45.93,61.09-1.07,22.63-6.32,44.65-9.7,66.94-.62,4.08-1.91,9.91.14,12.12,3.64,3.92,6.86-2,9.8-3.84,40.37-26.71,91.23-26.37,137.7-32.72,20-2.2,40.14-5.4,57.29-18.75,4.2-3.28,5.31,5.17,4.63,8.85-9.49,64.49-22.41,97.71-65.53,147.47,25.4,9.89,60.13,41.25,25.68,64.41-26,21.22-51.89,41.34-86,47.16,16,3.16,20.84,13.59,22.82,25.45s13.13,17.91,16.57,29,7.31,21.18-.63,31.9c20.24-5.1,38.15,4.45,36.15,23.73-2.15,20.64,10.59,33.13,16.76,49.1,9.34,22.23-15.45,34-15.64,54.47-.61,14.49-10.29,27.85-23.84,32.59,12.68,7.1,12.72,16.92.49,43.67,42.67,10.1,85.42,29.37,111.13,66.67,6.11,8.42-.73,23.87-10.56,29.14-6.5,3.49-11.61,9.62-17.07,14.85-.67.63-.19,3.38.64,4.53,11.41,15.84,17.31,33.45,15,52.89C935.86,1385.92,928,1425.86,923.33,1466.18ZM425,226.35c43-2,85.85-5.66,127.14,11.3-10.49-9-21.85-14.4-32.6-15.86-29.66-6.11-58.9-12.93-89.53-10.87-1.6,0-4-3.31-4.38-1.19C424.55,215.12,424.85,220.8,425,226.35Zm0,24c.56,2.39.13,3.6,3.63,3,20.33-2.93,40.92-4.12,61.24-7.17,13.45-2,26.95-2.7,40.2.22,9.51,2.1,18.69,5.44,30.25,4-36.09-18.1-75.89-19.93-115.4-15.78C434,236,420.24,230.25,425,250.36Zm398.37,885.26c-16.4,3.65-30.88-16.8-36.2,3.52-6.46,40.07-35.34,38.85-18,52,16.13,13.34,40.71,27.36,56.45,5.86,5.83-7.89,3.84-18.88,9.18-27.46,3-4.74,9.59-7.72,8.13-14.39C843,1142.5,835.22,1136.06,823.34,1135.62Zm-292.11,33.27c-6.82,11.22-13.49,22.6-19.17,34.42-1.78,3.7-8.63,6.18-5.79,10.12,7.81,10.86,38.14,4,45-7.85,9.43-16.4,2.48-36.43,13.72-52.25-6.3,6.11-13.58,9.66-21,13.16C539.77,1168.46,534.11,1164.16,531.23,1168.89Zm38.94-69.48c-11,20.14-21.69,39.69-32.35,59.26C564.8,1154.77,575.75,1118.53,570.17,1099.41Zm-70.44,123.22c-4.86,5-10,10.91-13.25,16.92-9.16,17.07-23,30.51-34.15,48.87,4.33-4.47,8-2.05,11-2.66,53.89-13,63.78,39.66,93.77,18,17.78-16.62,36.17-39.83,31.08-66-18.29-2.27-26.48-14.12-30.55-30.87-.59,13.21-31,24.52-41.9,21.09C510.33,1225.7,501.44,1220.87,499.73,1222.63Zm100.58,6.45c9.3-.39,18.9-1.74,27.94,2.19,26.86,10.45,37.51-29,64.64-26.27,10.81.49,12.67-8.14,13.62-15.09,1-7.17-4.49-13.18-10.66-16.64-11.93-6.71-23.79-13.28-32.49-24.26a12.62,12.62,0,0,0-3.53-2.45c-7.48,10.41-21.71,13.17-27.87,25.34-5.61,11.09-20.53,13.81-31.34,7.55-12.33-6.84-16.63-19.06-23.08-30.25C562.67,1175.62,556.47,1231.51,600.31,1229.08Zm130.52-155.59c2.32-7.15-.85-15.56-5-20.36-16.15-18.58-15.66-41.26-19.17-63.25-1.08-6.72-2.59-14-11.85-17.28a39.27,39.27,0,0,0-47.47,20.48c-2.82,8.12-4.27,16.64-10.61,23-2.39,2.41-2.74,5.33-.43,7.37,16.5,14.63,14.75,36.87,5.72,56.26-1.15,2.47-9.92,5.39-2.32,11.45,11.56,9.22,24.57,14.12,38.54,18.37C698.37,1115.7,734.49,1102.36,730.83,1073.49Zm-98.5,17.87c-16.89,9.74-53,17.13-49.23,42.21.69,19.89,19.75,55.55,41.73,34.62,6.15-6.67,10.61-15.53,19.37-18.89,9.2-3.52,12.85-9.51,13-22.28C658.58,1111.37,640,1104.77,632.33,1091.36Zm103.46-38c4.06,8.36,2.37,23.87,19.28,19.09,22,2.41,51.84-13.18,40.71-40.92-5.38-12.63-16.79-21.15-21.54-33.94-2.53-6.82-3.47-14.47-7.1-20.58-7.38-12.42-32-15.3-43.71-5.88-3.5,2.8-11.18,3.57-9.71,8.77C722.28,1017.49,713,1016.17,735.79,1053.4Zm4.7-104.3c-3.6-8.92-12.45-11-19.88-15.09-14.33-5-31.3-38.17-41.35-32.31-1.37.45-3,3.55-2.7,5.12,2.39,13.16-4.17,23.46-10.17,34-3.51,6.2-13,9.29-13.8,14.24-1.1,6.6,1,14.23-2.2,22.81C688,940,703,982.44,718.28,965c2.53-3.15,7.46-2.79,10.78-4.43C733.72,958.23,745.33,961.09,740.49,949.1ZM705.9,879c-6.17-12.88-18.23-13.69-30.49-14.7-5.32-.45-11.49-5.94-15.42-4.4-5.74,2.24-4.38,10.86-6.69,16.53-1.16,2.87,2.44,3.83,4.87,4.81,8.33,1.92,11.33,15.53,16.94,13.58,3.59,1.84,6.22-2.71,10.73-1,7.61,3,13.23,7.9,18.52,13.57,1.86,2,3.52,2.4,4.37-.32C711.75,897.37,710.17,887.89,705.9,879Zm-57.26,13.79c-5.67,13.26-5.16,28.37-13.11,40.83-1.1,1.71-1,6.24.07,6.91,4.43,2.71,12.1,7.48,13.85,6,16.5-12.66,27.2-42.39,6.44-56.18C653.38,888.47,651.08,887.06,648.64,892.76Zm-15,56.44c-3.72-1.26-3.82,3.62-4,4.61-2.74,13.05-7.88,25.89-13.5,37.16-7.24,14.51-1,18.32,9.13,23.63,2.55,1.34,3.88,1.44,5.3-.9,9-14.83,11.18-31.71,14.39-46C646,958.08,642,952.13,633.64,949.2Zm-23.93,66.17c-6.09-3.32-8.06,17.7-11.43,21.77-4.93,11.15-10.08,22.2-15.15,33.29-1.78,7.6-14.09,19.56-3.88,25,5.09-1.84,6.66-16.86,10.31-22.09,4-6.57,16.83-38,23.07-37.63,2.12.47,3.4,3.78,2.28,6.25-8.36,18.51-17.07,36.88-25.12,55.53-.78,1.82-5.75,6.34-1.11,6.78,4.25.41,10.88-3.33,11.94-8.39,3.27-15.65,12.42-28.45,19-42.47.75-1.6,2.77-3.77,5.22-1.91,1,.74,2.18,2.68,1.85,3.43-5.59,12.52-11.4,24.93-17.31,37.7C653.92,1079.23,644.77,1027.94,609.71,1015.37Zm130.07,159.91c29.63,1.16,32.78-21.26,41.32-43.06,6.37-12.32,22.49-21.49,13.48-38.33-3.61-6.77-4.81-18.68-18.63-15.09-11.35,3-23.22,5.24-34.61-.67-3,37.42-48.05,51.15-84.1,32.88,12.93,21,1.32,22.18,7.84,29C686,1159.16,709.81,1176.14,739.78,1175.28Zm81.77-190.23c-10.84,3-15.8,15.66-27.62,17.28-7.16,1-4,4.24-1.36,7,21,22,20.26,42.77-2.46,62.86-1.31,1.16-1.13,1.59.2,2.94,10.86,11.05,18.91,23.45,12.5,39.59-6.24,14.79,22.49,11.74,30.67,10.47,28.76-4.69,17-34,32.49-51,7.43-7.67,10-18.52,3.45-30.16-6.39-11.33-19-20.65-14.75-33.65C857.55,980.07,841.2,979.6,821.55,985.05Zm-36.66-90.23c-11.74-2.32-20.95-7.81-28.32-17.18-19.44-10.41-33.63,10-39.53,29-1.3,3.56-5.12,9.16-4.17,10.08C726,929.65,751,932.17,751,955.18c0,2.12,1.33,1.44,2.49,1.88,40.05,11.35,14.43,47.72,42.78,34.86,10-8.56,27-17.43,26.77-32.88-.68-18.66-15.9-25.56-18.48-39.89C803.62,907.3,797.77,897.37,784.89,894.82Zm-84.7-198.63c-4.47,15.55-9.5,32.46-10,48.63C699.54,731.33,706.46,716,715.1,702c.77-1.32,2.84-1.89,4.3-2.82.37,2,1.68,4.4,1,5.82-8.77,17.56-18,34.9-26.77,52.47-4.72,9.44-11.39,18.12-12.79,29.9,13.73-7.12,26.75-13.68,39.56-20.62,4.08-2.21,10.2-4.88,10.93-8.3,3.47-17.2,33.53-73.91,52.31-73.06-.09,1.32.35,3.24-.36,3.88-18.83,18.59-27.6,41.21-41.36,64.4C783.13,731.51,819,705,855.06,675.86c2.55-2,5.21-4.53,8.81-1.93,1.56,1.12,1.48,2.45,0,3.72-26.09,24.79-51.06,41.65-82,63.76,19.35-2.32,35.87-4.38,52.42-6.22,2.1-.23,5.5-.06,6.24,1.17,4.36,7.1-26.11,7.27-30.72,10.94-15.66,5.88-33.3-7.11-47.94,5.72-23.8,15.93-50.51,27.44-75.35,41.75-.82.44-3.51-.79-2.36,1.7,8.08,5.47,19.55,7.21,29,9.7,7.27,1.25,15.55,7.78,21.35,3.64,20.71-14.13,44.66-26.95,70.37-26.91,5.71-.06,8,6.46,1,6.25-20.1,2.91-37.82,12.3-55.85,20.78-1.57.74-2.6,2.65-3.87,4,25.82,7.07,53.36-.35,79.8-1,2.59-.21,3.6,1.62,4.21,3.38.18.54-1.68,2.51-2.76,2.65-40.63,7-74.32,9.28-114.18-3.41,19,25.32,49.14,24.87,76.21,31.94.06,0,0,1.46-.2,1.54-13.21,7.27-27.23.38-40.85-2-17.6-4.21-34.27-12.89-44-27-8.14-11.79-20-10.66-29.35-16.75-.19-.13-1.75,1.08-2,1.86-2.76,10-5.89,20-7.85,30.23-.94,5-7,11.31.8,15.37,5.64,2.91,12,3.86,18.62,4.66,16.29,1,28,10.14,33.26,26.55,1.63-1.27,3.94-2.2,4.79-3.87,6.15-12.08,34.84-17.34,42.76-3.65,1.48,2.55,5.26,6,7.31,5.63,17.9-3.47,35.52-6.63,52-16.51,18.09-10.86,35.47-22.32,50.68-36.72,4.36-4.11,14-9.65,2.1-18.56-11.33-8.5-21-19.18-34.06-25.51-3.3-1.6-6.65-5.18-4.13-8.87,12.5-18.64,28.3-35.47,39.3-55,12.07-26.55,21.38-54.39,24.4-83.64-56.19,26.71-124.18,8.31-178.62,42C715.79,682.81,703.77,686,700.19,696.19ZM890,450.38c-63.3-17.77-90,1.38-133.66,44.76-9,8.85-14.6,21.67-24.43,29.15-17.31,13.16-10.16,31.67-16.33,50.17C746.24,536.25,799.73,472.28,846.11,459,860.29,456,874.57,453.4,890,450.38ZM724.86,502.57a59,59,0,0,0-1.64,18.1C755,485,796.63,432.49,850,436.68c8.18,1.61,16.7,1.5,27,2.32a125,125,0,0,0-38.59-15.52c-41.07-13.31-66.4,9.89-89.7,41C739.2,476.1,724.05,484.32,724.86,502.57ZM403.87,291c-4-17.43-10.3,3.72-17.89.92-6.67-2.47-5.73,8.87-6.39,13.46C377.16,317.26,409.47,319.19,403.87,291Zm109-124.26c-38.63-20.91-76.39-16.73-110.11,11.8,17,18.86,18.77-24.3,76.42-15.16C491.05,164.88,502.6,168.24,512.92,166.78Zm-128.5-1.36c9.81,14,18.45,2,25.87-1.95,13.3-7.05,26.27-15.42,40.94-18.15,21.33-4,40.89,6.43,62.34,9.46-24.44-9.82-50.2-33.23-77.66-21.57-17.32,8.68-34,18.68-50.9,28.18C383.38,162.31,382.7,163,384.42,165.42Zm-53.6,48.11c13.2,25.14,45.64,34.8,50.21,65.8-.36,4.51,4.06,4.43,7.19,3.2,11.12-7.94,26.18-15.67,26.66-31.19,0-11.89-3.64-23.77.21-33.7,0-15.28-8.35-23.53-18-30.41-29.41-16-25.13-34.58-43.78-37.21C345,149,339,153.09,332,154.89c-6.72,1.72-18.28,19.11-18.47,26C313.08,195.43,324.89,202.76,330.82,213.53ZM99.53,203.15c21.35-7.83,43.19-16.05,66.05-17,13.64-.75,24.69,9.61,37.21,13.93.38-5,2.5-13.62.86-14.4C164.12,160.77,133.86,180.59,99.53,203.15Zm102.89,8.26c-36.5-31.25-70.51-8-109.8,2.72,23.46,1.75,46.2-8.54,69.39-1.13,12.51,4.48,22.06,13,31.83,21.45,2,1.69,5.15,4.39,6.61,3.79C205.54,236.15,207.18,214.73,202.42,211.41Zm30.18,73.87c14.52-21.56,26-44.17,31.19-70.07,2.93-14.58,13.2-26,28.63-26.3,11.26-.21,14.64-.59,10.71-12.54-6-18.18-17.8-29.31-34.28-29.31-17.17-.9-21.54,10.49-32.51,20-12.35,9-26.14,16.28-23.59,35.79,1.44,11,7.22,23.59-.34,33.35C190.07,258.61,216.44,299.49,232.6,285.28ZM144.76,388.16c35.51-52,26.44-61.56,92.05-76.37-3.22-2.55-2.87-9.29-8.55-8.61-52.4,2.3-72.13,41.21-85.52,85.53C143.45,388.56,144.48,388.59,144.76,388.16Zm123.51-58.27c-24.42-16.15-73-6.81-89,19.59-8.82,13.75-17.74,27.4-26.57,41.14,36.06-38.43,55.14-46.44,107-55.71C261.75,333.68,273.6,333,268.27,329.89Zm72.38-6.57c40.86-9.12,39.72-51.74,10.71-74.18-13.84-8.07-23-20.14-30.53-33.93-5.47-10-13.18-17.6-25.52-18.12-14.7-.61-26,15.9-27.86,33.51-2.09,19.61-11.83,34.84-22.93,49.76C216.69,325.76,314.56,330.17,340.65,323.32Zm55.78,5.36c1.29-1.59,1.58-4,2.33-6-23.26,3.42-21.13-12.63-31.37-2.22-15,15.65-36.61,14.78-57.3,14.9,7.85,13.3,21,17.31,34.29,19.37C367.41,358.27,383,345.22,396.43,328.68ZM291.14,471.94c49.07-10.6,93.7-9.09,121.43,45.67-3.53-28-12.44-49.58-34.84-62.36C344.42,436.24,319,461.08,291.14,471.94Zm134,97.76c-1.55-11.6-1.78-24.39-8.66-33.59-8-10.66-14.48-22.27-23-32.7-27.54-37-79.32-30.94-117.56-15,5.65,4.47,13,2,18.9,2,67.34,4.08,102.88,15.23,129.57,80.34C424.67,570.41,425.18,570,425.14,569.7Zm19.44,65.1c4.53-28.49,9.22-57,13-85.55,1.35-10.58,4.66-21.84,2.45-31.76-4.87-21.84-11.81-43.34-19.49-64.4C428.83,421,416,389.29,400.23,358.92c-1.69-3.27-2.33-17.49-13.09-8.06a61.37,61.37,0,0,1-22.72,12.63C408.84,448.65,435.21,539.1,444.58,634.8ZM402.46,825.41c2.23-11.43,6.89-22.52,7.91-34,.49-5.47,14.37-17.58-4.94-18-17-.36-35.16-7.82-48.3,11.58-5.8,8.56-19.79,13-22.72,21.75-9,27-27.73,51.6-55.49,60.83-5.48,1.5-7.37-4.39-2.25-6.49,21-9.7,38.63-27.75,46.53-50-45.73,26-95.72,44.7-147.67,53.17-1.52.25-4.44-2.06-5.08-3.78-.85-2.31,1.91-1.25,3.1-1.55,34.89-7.08,65-19.24,99.8-31.2-28-7.37-51.71-1.94-79.08,1.33-2.19.25-4.94-.2-5-2.79,0-1.11,2.81-2.75,4.59-3.24,18.64-7.1,38.13-5.63,57.54-7,14.05-.35,26.58,11.53,42.17,1.44,23.43-15.15,48.83-27.28,68.47-48-49-.36-102.35-17.11-147.18,10.7-7.78,6.63-57,28.24-63.6,16.85-1-2.36,2.34-3,4.26-3.61,26.09-5.06,45.77-16.46,73.46-28.94-39,3-71.6-.34-109.72-1.57-11-1.48-29.93-.19-36.19-11,38.53,1.63,76.51,2.84,115.37,4.91,27.52-.1,54.78-1.68,82.44-1-31-23.75-70-32.84-105.82-45.83C190.27,698,243.56,725.71,261.54,732c15.15,6,22.92,23.15,41.51,23.57,21.22.48,42.38,3.32,64.27,5.19-2.05-3.68-3-7.9-5.6-9.59-9.91-6.45-14.29-17.69-22.87-25.15-6.74-5.88-12.2-15.42-20.86-16.47-19.92-3-80.56-9.27-90.81-25.39-.17-.52,2.86-3,3.36-2.7,23.69,11.22,50.74,12,76,18-16.62-11.1-31.71-23.89-50.39-30.55-10.64-3.8-18-13.35-29.09-16.63-3.23-.95-10-1.33-7-7.23,2.49-4.9,7.74-.34,10.44.92,27.87,15.69,58.7,26.72,83.78,46.8,11.78,9.53,23.07,19.65,35.67,30.44C338.6,695.91,329,668.38,307.82,647c-2.67-2.71-.47-6.82,3.21-4.34,9.61,5,15.6,13.6,21,22.44,8.7,14.32,16.75,28.91,21.56,45.28,2.33,7.93,1.69,16.85,4.63,23.36,3.77,8.35,11.23,15.72,17.23,23.26,10,12.59,28,3.88,40.78,11.3,3.59-14.68,7.31-29.33,10.49-44.1,1.61-7.55,5.72-17.39,2.64-22.63-40.39-60.52-119.47-97.5-191.27-98.75-29.82-.49-59.59,4.66-86.79,18.65-1.39.71-10.22.27-4.22,6.22,14.2,14.1,23.21,31.64,33.13,48.57,2.24,3.82,2,7-4.26,6.94-41.65,1-76.63,28.72-114.72,42.53-14.55,5.83-28.83,12-44.67,13.31-1.48.12-4.15-.49-1.65,2.39,3.82,4.39,7.18,9.31,11.56,13,32.93,26.22,67.81,53.36,109.29,63.87,5.14,1,12.28-1.82,15.05,4.36s-3.7,11-6.87,13.85c-15.52,14.1-24.52,32.66-36.19,49.37-.43.88-1,2.95.8,2.7,69.88-7.09,141.64,13,211.2-5.41C352.22,873.76,392.34,862.07,402.46,825.41Zm-46.07,449.76c21,2.56,42.23,3.29,63.22,7,22.2,6.39,24.1,1.72,35.86-18.22,131.31-172,191.44-383.78,237.25-592,17.51-114.82,25.87-230.82,37.85-346.3.36-2.92,0-5.07-4.19-4.67-22.59.53-45.11,1.64-67.64,3.73-56.15,3.52-112.51,3.58-168.81,3.5-4.94.57-7.31-1.64-7.08,6.38,3,38.29-3.53,75.94-4.79,114.1-4.92,91.86-16.75,183.53-39,272.8-16.23,71.86-30.61,145.19-56.79,214.3-42.57,110.8-105.33,212.48-167.88,312.92-7.35,9.69-11.88,16.48,6.18,14.16C266,1264,311.23,1270.56,356.39,1275.17ZM636,1321.1c-25.78,3.79-41.42-21.77-43.72-44.73-3,7.25-9,17.47-14,22.39-25.74,29,27.35,35.11,20.58,105.14,0,1.76-.87,5.22-4.28,5.1-6.58,1-3.48-28.13-5.71-34-1.71-13.17-5.81-25.58-15-36.89-2.66,20.34-1.16,39.77-6.68,58.58-5.57,14.54-8.78,52.41-22.36,59.43-3-.37-2.18-3.32-1.75-4.82,8.41-22.65,12.07-46.69,17.82-70.11.26-1.17-.3-2.51-.48-3.78-13.49,13.09-25,28.87-31.73,46.82-.6,1.76-4.46,3.79-6.35,3.41-7.25-3.26,13.08-34.69,17.8-38.77,7.36-7.91,16.16-15.56,20.35-25.08,6.31-14.3,1.58-30.44,2.2-45.78.1-2.59-1.55-5.89-5.94-2-5.74,5-13.13,8.19-18.65,13.39-5.91,5.55-15.53,6.75-18.87,14.46-8.62,26.33-17.6,53-37.48,73.34-2.09,2.25-2.07,8.58-7.09,4.78-4.62-3.51-.23-7,2-10,13.61-19.78,28.79-41.17,33.82-64.59-18.38,10.85-38.54,21.22-55.27,34-2.17,13.38-32.22,65.27-45.69,65-2-.4-1.51-3.72-.15-5.56,12-16.69,27-32.9,33.47-52.44-11.42,3.2-20.1,11.09-30.14,16.68-22.38,12.47-44.61,25.08-61.67,44.85-1.28,1.49-2.2,4.6-5,2.52-9.82-6,34.89-41.35,42.94-45.26-3.42,0-5.71-.6-7.49.1q-24.6,9.69-49.05,19.82c-2.73,1.67-9.4,5.56-9.33-.4,14.44-13.89,42.46-23.26,62.32-28.35,9.15-1.85,19.49,2.23,27.71-5.24,19.58-13.53,39.91-22.41,61.74-35.13-20.86-3.43-38.26,4.22-56.33,5.79-2.27.2-5-.18-5.12-1.29-.73-11,56-16,65.95-15.53,4.31.11,9.45,1.32,12.8-.53,13.57-7.51,26.59-16,40.9-24.83-30.16-2-57.42-4-86.6,1.67-12.85,2.06-27.81.7-33.59,17.21a14.72,14.72,0,0,1-5.36,6.78c-8.27,5.81-39.67,28.37-48.08,19.18-.53-3,3.31-4.28,6-5.4,14.9-6.59,31.54-13.66,39.45-29-1.35-.29-2.87-1.14-4-.79-13.76,3.66-26.84,10.78-41.44,9.47-2.44-8.58,49.63-20.28,57.81-21.79,33.44-8.59,69.22-6.51,103-6.43-26.68-34.8-71.22-7.13-106-18.1-22.27-4.68-43.95-6-63.41,5.48-35,23-72,46.16-91.27,85.24,19.88-1.78,38,5.14,56.06,11.94,5.09,1.91,7.51,4.13,2.72,10-21.49,27-38.57,59.69-41,94.5,46.63-21.42,99.4-27.43,150.06-30.41,24.44-1.09,49.26,1.66,71.84-11.81,4-2.38,11.57-11.61,15.27-.59,4.72,12.6,6.6,32.22,16,41.5,54.52-39.06,107.37-100,112.42-171.15C643.31,1324.3,642.14,1320.09,636,1321.1Zm96.45-47.26c14-34.55,35.47-21.77,34.83-51.52a45,45,0,0,0-4.56-19.53c-10.83-31.73-22.68-9.88-45.43-21.58-1-.49-2.58.06-3.85.35a4.12,4.12,0,0,0,.06,2.18c4.41,12.38-.52,25.93-13.59,28.77-35.47,4.16-41.19,37.13-73.56,28.94-25.78-6.58-24.36-4.71-25,21-.22,9.06,2.42,18.2,3.77,27.3,1.94,13.06,21.51,25.93,33.33,21.89C674.22,1295.7,707.47,1323.34,732.4,1273.84Zm198.27,74.83c7.36-46.37-29.2-57.33-11.87-68.53,5-3.38,10.71-6.85,13.71-11.75,4.66-7.59,23.75-10.2,8.75-25.71-23.17-24.93-52.14-44.4-86-50.34-6-1-14.8-13-19.85,3.84-8,26.36-36.4,23.49-57.14,13.11,2.52,7.57,8.43,12.91,11.26,20.57,1.53,4.42,3,13.64,7.57,12.39,8.39-2.32,17.32,0,25.73-8.29,14.81-14.67,34.3-22.56,56.53-19.15,10.07.22,9.14,8.09-.3,6.18-18.77-1-34.14,7.13-51.62,17.85,15.92-.45,88.7.82,89.48,15.4-.1,1.65-1.8,3.77-3.38,2.52-5.33-4.26-11.9-4.09-17.83-4.62-13.42-1.22-26.72-6-40.5-2.33,10.76,7,21.79,13,34.56,15.65,3,1.15,8.63,0,10,3.28a7.49,7.49,0,0,1-6.67,4.28c-14.36.06-25.87-7.52-37.81-14.1-6.69-3.68-10.17-12.72-19.87-11.44-6.79.9-14.26-.39-20.32,2-5.07,2-22.86-4.65-12,13,5.16,8.41,2,21.63,14.66,25.68,25.72,5.14,48.22,21.51,67.37,38.93,3.72,3.71,10.9,7.16,8.79,13.6-.85,2.6-5.24-.7-8.19-3.29C866,1321.05,841,1301.32,815.88,1297c-4.06,2.74,1.9,7.14,3.26,10.92,1.67,4.62,4.82,8.85,5.78,13.57,5.31,26.24,20,44.78,43,58.49,8.63,4.27,36.53,27.66,31.43,38-2.79,2.71-2.6-.83-3.25-1.5-14.66-18.64-32.59-29.14-52.19-44.37,9.15,28.67,25,51.48,43.34,74.53,1.24,1.52,4.6,3.27,1.92,5.68-2.32,2.08-4.63-.72-5.84-2.16-28.57-25.63-43.85-61.57-57.55-96.74-9.23,23.27,6.31,72.86,15,96.83,1,2.63,2.36,6.41-.61,8.19-3.79,2.26-3.65-2.67-5-4.3-11.48-24.48-17.32-50.66-20.44-77.49,3-53.22,11.12-29.62-12.5-84-14.45,32.56-16.35,67.89-12.47,102.85.38,3-.4,7.7-2.4,9.09s-3.47-2.27-4.55-5.14c-9.24-29.63-3.08-60.18,4-89.45,5.09-17.41,18.44-28.25,5.44-48.23-.84.49-2,.76-2.47,1.49-4.67,7.77-9.68,15.38-13.72,23.47-7.06,14.16-14.23,28.35-19.83,43.1-2.1,5.55-8.37,10.84-4.54,18,11.32,21.12,12.87,43.32,7.15,66.2-.41,1.62-1.94,4.78-5.26,4-3.73-.86-.71-2.88-.56-4.18,2.27-19.45.94-38.42-7.07-57.44-6,17.18-10.32,33.88-10.83,51.4-.09,3.22.76,8.23-3.16,8.1-18-14.36,13.55-84.2,22-102.17-29.48,6.28-42.66,74.81-46.44,55.86-2.17-5.38,1.94-9.3,3.55-13.72,6.19-17,13.07-33.2,29.52-43.83,6.85-4.42,16.17-5.53,20.56-13.58,8.22-15.06,15.42-30.74,27.09-43.67,2-5.15-8-21.37-9.88-28.41-11.66,30.59-12.7,19-30,38.58-9.71,15.94-17.59,33.49-35,43.55-5.72,3.3-14.56,1.14-17.48,8.29-14.49,35.07-12.6,121.66,17,147.29A110.19,110.19,0,0,0,760,1449.24c15.27-10.15,20.6,28.64,51.69,36.83,18.48,6.24,36.83,5.44,55.87,3.6,12.3-1.19,24.27-8,37.25-3,3.47,1.33,7.79.42,11.72.53C908.72,1440.9,928.81,1395.11,930.67,1348.67ZM941.3,851c-8.14-1.41-12,4.24-11.9,11.36.08,6.34-.45,16.12,8.9,16.24C954.54,880.6,960.47,849.45,941.3,851ZM937.08,32.6c17.95.52,17.56-27,6.18-25.21C921.59,6.8,922.3,32.9,937.08,32.6Zm13.5,275.94c-.4-8.16-7.64-13.29-14.82-13.11-7.7.19-9.5,8.24-10.87,13.51C923.28,332.27,953.37,329,950.58,308.54ZM933.34,392.6c-7.61,1-8.6,7.18-7.84,10.5,1.29,5.67,1.72,13.06,5.7,15.12C954.39,423.74,955,388.57,933.34,392.6Zm3.06-155.85a13.14,13.14,0,0,0,11.39-13.65c-.51-8.54-.1-19.9-15.22-18-10.6-3.2-12.31,6.18-11,12.06C923.27,225.1,922.21,238.27,936.4,236.75Zm1.07,735.44c-16.1-.64-17.1,30.19-.34,29.6C954.67,1003.08,955.82,973.17,937.47,972.19Zm-1.91-395.12c14.7,2.35,15.7-25.17,2.06-24.09C920.63,551.92,917.26,577,935.56,577.07ZM914.77,773.31c-.65,12.05,6.44,16.74,16.16,17.54,8.26.68,8.76-7.07,10-12.55C946.08,760.19,913.63,754,914.77,773.31ZM900,1144.67c9.34.67,14.78-5.58,15.16-15.18,1.19-11.44-7.22-14-15-14.17C885.51,1115.71,885.06,1144.11,900,1144.67ZM881,282c-2.4,16.47,22.81,24.18,25.86,6.14.77-8.35-1.83-15.28-13.27-15.49C887.69,272.36,881.85,273.89,881,282Zm.08,234.79c-1.85,19.93,23.36,21.28,23.54,1.47A10.62,10.62,0,0,0,895.69,508C891.74,512,881.48,506.81,881.09,516.81Zm8.26-433.08c17.54,2,18.56-28.11,1.5-28-6.85,0-12.87,5.48-12,14.82C877.09,78.67,881.06,83.91,889.35,83.73Zm3.77,851.59c13.8-1.81,13.41-29.41-2.82-28.09C870.21,905.39,874.77,937.3,893.12,935.32Zm-2.74,639.57c-17.48-2-17.85,26.65-1.76,23.91C901.75,1599,904.93,1572.67,890.38,1574.89ZM859.21,143.8c.69,7.77,1.5,16.82,7.75,17.29,16.42.17,20.87-6.17,20-16.61C886.23,128.48,857.3,126.78,859.21,143.8Zm9.55,185.13c-8.06-.7-13.16,1.75-13.94,10.93-1,12.14,8.46,15.45,16.21,16.59C887.58,358.22,886.77,325.86,868.76,328.93Zm-13.19,256c-8.09.14-13.68,3-13.53,10.81.17,9.45,3.75,15.54,15.45,14.18C871.75,608.84,867.93,583.64,855.57,584.91ZM849.44,38.48c17.57,2.07,17.23-23.43,3.28-25-7.18.22-16.76,2-15.52,12.81C838,33,838.19,42.86,849.44,38.48ZM807,188.87c.79,15.4,30.17,12.15,27.83-3.31-.82-11.85-11-11.59-19.59-12.63C809.5,172.89,806.83,177.74,807,188.87Zm5.92-99.81C830.7,92,832,61.89,816.27,61.55c-7.35-.67-14.12,3.6-13.43,13.6C803.34,82.43,801.56,90.78,812.91,89.06ZM803,1522c-13.89,3.18-14,32.21,9.47,26.83,6.25-.94,10.24-5.29,8.57-11.88C822,1522.71,813.85,1520.22,803,1522ZM763.33,167c-.05,5.28,2.36,13.28,7.91,13.39,6.06.12,14.78-1.88,13.75-12.26C784.85,152,763,150.33,763.33,167Zm5.78,59.93c-10.18-1.2-13.16,23.26-.07,21.7,4.33-.49,13,.94,11.7-8.16C779.79,234,778.8,226.45,769.11,226.93ZM770,589.62c-15.56-.11-22.1,24.46-2.23,22.79C778.72,614.26,780.86,590.72,770,589.62ZM754.9,95c-1,11.24,7.62,12.51,14.93,12.62,4.92.08,6.86-5.85,7.17-10.72C778.67,83,753.06,79.82,754.9,95Zm-2.72-48.53c19.45,3.31,16.94-24.67,7.17-23-9.48.94-17.65.1-17.92,8.26C741.22,37.92,745.57,45.47,752.18,46.48Zm-2.35,1448.37c-16-.12-17.3,23.21-2,23.75C760.79,1518.86,762.37,1497,749.83,1494.85ZM744,1555.21c-6.89.2-12.69,3.14-11.32,10.48.24,9,4.15,14.29,11.45,14.16,11-.19,10.23-10,10.7-17.13C755.25,1556,748.54,1555.08,744,1555.21ZM685,128.5c.41,9.15,7.32,10.1,14.25,10.57,8.55.57,9.62-5.31,10.15-14.72C711.21,113,682.8,111.37,685,128.5Zm13.72,62.38c-11.4-.58-12.93,7.94-13.13,15.59-.23,9,8.6,7.07,13.6,7.29C712.56,215.35,712.53,190.33,698.7,190.88ZM692.4,72.93c15,1.61,15.41-26.73-.91-21.73C673.15,46.66,677.06,74.24,692.4,72.93Zm-24.26,1452.2c-10-.19-8.08,8.52-9.24,14.46-1.85,10.38,4.89,13.56,12.54,13.14C691.38,1550.85,687.4,1523.92,668.14,1525.13Zm-6.38-52.53c0-12.87-10.33-14.23-20-14.43-13.21-.22-6,30.6,10.62,26.81C663.3,1487.62,661.75,1477.91,661.76,1472.6ZM642.82,201.2c7,.09,12.54-1.84,12.14-10,1-14.32-25.73-18.09-24-2.32C630.92,196.94,634.75,201.1,642.82,201.2ZM609.82,1569c-9,0-8.88,6.79-8.91,13.87-.95,7.78,2.83,11.46,11.3,12.35C631.09,1596.2,627.32,1567.07,609.82,1569ZM607.7,101.83c14.92,1.46,21.41-31,3.32-25.28C592,72.64,590.39,101.75,607.7,101.83Zm-22.27,1408.3c-17.17-2.53-17.25,25.82,1.28,25.68C602.9,1536.46,600.8,1508.9,585.43,1510.13ZM545.51,34.4c8.88-.12,11-8.79,11.31-15.88.47-10.87-10.15-7.6-15.46-8.82C527.9,10.29,531.19,36.1,545.51,34.4ZM514.58,1565.31c-8.31.33-11.75,8-12.31,15.23-.88,11.43,8.41,8.77,15.53,9.31C531.76,1589.12,526.94,1563.89,514.58,1565.31ZM497.49,66.75c20.09,1.9,21.69-28.09.13-28C485.82,39.52,484.33,67.36,497.49,66.75ZM431.55,1527c-10.54,1-8.53,9.24-8.55,15.89,0,11.88,9.33,11.34,16.93,11.4s8.08-5.86,7.05-11.77C448.69,1530.52,442.68,1526,431.55,1527ZM401.16,45.29c13.24.48,11.89-10,13.57-17.3,1.21-5.28-3.52-9.84-8.83-9.29-8.48.87-14.13,5.69-13.14,13.29C393.14,39.69,392.46,45,401.16,45.29Zm-2.23,51.5c13.15.36,10.48-24.36-2.06-23.71-7.32-.6-10.07,4.14-10.07,11.66C385.9,93,392.05,96.19,398.93,96.79ZM333,98.94c7.32-.37,10.48-5.08,10-12.94.5-4-.59-9.53-5.79-8.63-6.1,1.06-15.89-.67-15.35,10.88C322.25,95.5,326.09,99.29,333,98.94ZM287.72,1568.79c-10.8-1.07-14.35,4.55-14.85,12.37-.21,13.15,8.25,14.61,16.46,14.44,10.19-.22,11.16-9,11.51-16.38C301.25,1570.65,294.8,1569.49,287.72,1568.79ZM252,88.65c15.83,3.12,21.67-29,10.24-27.39-7,2.31-18.65-1.06-18.68,13.77C246.22,78.93,243.55,88.39,252,88.65Zm-47.63-47c5.61,0,14.64.59,13.28-9-.79-5.56,1.05-16.24-8.77-14.92-6.93.93-17.53,1.6-17.92,13.18C190.67,40.57,198.14,41.61,204.32,41.65Zm-.48,1471.1c-16.67-4.37-20.27,26.09-4.68,26C214.89,1540.28,223.27,1515.67,203.84,1512.75Zm-1.69-158.38c-17.41-2.35-18.42,24-2.25,25.34,7.84.58,10.08-5.68,10-11.83C209.85,1362.36,210.66,1354.5,202.15,1354.37ZM190,132.84C210.59,135,209.25,106.7,195.2,107c-7.95.63-15.45,2.23-13.7,15.67C182.86,125.25,182.55,132.77,190,132.84Zm-2.82,428.42c9.43-.66,16.69-1.66,15.87-12.18-.62-7.94-5.09-12.52-12.89-12-7.06.52-11.69,4.94-11.15,12.64C179.43,555.78,179.92,562.31,187.19,561.26ZM181,1568.94c-12.56,1.87-11.37,31.63,4.39,28.09C204,1595.37,197.48,1566.69,181,1568.94Zm-2.47-101.4c-.24-5.51-1.5-14.29-9.91-12.8-10.54.16-15.48,4.19-15.67,13.34C153.28,1485.52,179.67,1483.53,178.51,1467.54Zm-18-965c17,.12,18.25-31.3-1.47-28.9-8.36,1-9.51,8.05-10.19,13.88C145.34,498.94,152.45,503,160.52,502.54ZM151.66,80.47c7.9.64,16.48-4.31,17-13.65,1.36-14.94-22.08-16.09-26.58-3C145,70,143.37,79.81,151.66,80.47Zm-12.78,999.62c-8.93-1.43-10.41,5.31-11.06,12.19-.84,8.88,3.25,13.66,12.08,13.71C161.26,1107.18,158.7,1081.14,138.88,1080.09ZM132.57,1035c18,3.46,18.32-28.56,2.17-27.57-7,.38-13.05,5.12-12.36,13.41C122.92,1027.29,120.48,1037.06,132.57,1035Zm-.8-896.78c11.89.51,13.55-8.57,14-17.6.25-5.27-3.62-7.84-8.34-7.92C121.11,110.23,116.7,137.28,131.77,138.2ZM129,1324.59c-13.67,1-13.74,28.13,1.17,28.83,10.64-2.17,14.06-9.85,13.74-19.77S135.12,1324.13,129,1324.59Zm-7.34,198.23c-10.88.52-11.18,9.2-12.17,15.63-.94,6.16,4,10.25,10.31,10.48C134.52,1550.64,134.47,1524.77,121.62,1522.82Zm-8.72-383.74c-6.72,1-14.78,2.45-14.41,14.41.33,10.62,7.56,11.59,15.29,12C130.08,1167,131.51,1136.88,112.9,1139.08ZM89.28,543.74c.38,15.28,25.76,9.81,28.21-2.37-1.72-6.57-.68-15.32-10-15.16C96.84,526.39,89.36,532.34,89.28,543.74ZM101.89,1431c-8.88-1.66-15.22.37-13.16,10.43-1.08,7.79,2.2,11.61,8.49,12.07C109.64,1455.58,114.5,1433.61,101.89,1431ZM88.77,90.81c7.11-1,14.22-3.91,14.31-13.39.06-7.66-2.75-12.62-13.06-12.65C76.92,61.53,74.73,93.24,88.77,90.81Zm-.84,219.84c6.63-.83,15-2.24,13.13-11.84,0-8.95-5.34-14.22-13.81-13.8-11.8.59-8.06,10.35-8.9,16.78S83.43,311.2,87.93,310.65Zm-2-139.71c8-.3,9.8-7.51,10.87-13.18,1.66-8.78-6.07-10-11.83-9.52C73.32,149.6,74.3,172.45,85.91,170.94ZM65.06,1201.42c-.49,11.5,2.82,16.39,10.66,15.25,9.7-1.41,12.77-10.55,15.16-18.63,2.29-7.72-3.37-10.66-9.74-11C69.37,1186.48,66.35,1194.83,65.06,1201.42ZM82.42,1261c-8.34.36-15.57,2.68-15.57,14.24-1.25,7.16,6.11,11.22,10.45,11C93.66,1286.61,96.09,1260.43,82.42,1261Zm-7.18-295.9c-14.67.14-14,26.74,2.52,24C92,991.87,88.45,963.09,75.24,965.13ZM74.88,365c-12.94-3.79-13.4,20.72-2,19.71,5-.33,13.12,1,12.52-8.26C85,370.35,84.21,363.7,74.88,365ZM60.61,465.67C58.39,479.13,85.05,482.13,83,465c-.85-7.76-4.45-13.6-13.31-14C61.64,450.55,60.83,456.09,60.61,465.67ZM57.22,44.77c6.32,0,13.62-1.46,13.72-10.29.08-6.16-1.85-11.58-12.23-12C47.09,19.08,43.77,45.36,57.22,44.77Zm-5.78,1514c-8.14.56-10.83,4.87-10.35,11.66.5,7.13-.28,16.15,9.73,14.89,8.4-.26,15-.65,16.18-9C68.64,1564.61,64.92,1557.83,51.44,1558.74Zm3.11-181.38c-7.58-.25-12.87,5.13-13.63,13.55-1,10.46,4.66,15.86,14.23,15.91,9.2,0,9.21-8.46,10.78-15.46C63.8,1385.64,62.15,1377.6,54.55,1377.36ZM44,1040.74c-6.72-.54-7.18,7.82-7.32,13.42-.19,8,4.59,12.08,12.49,13.16C72.48,1063.85,62.78,1039.67,44,1040.74Zm14.71,461.5c.6-22.29-24.22-20.38-23.29,1C35,1517.65,60,1515.68,58.67,1502.24Zm-18-889.44c16.46,3.74,22.36-27.5-.47-28.56-8.14-.4-8.94,8.92-8.51,12.94C32.26,602.66,30.9,612.55,40.64,612.8Zm-15.7,523.39c-.1,19.08,27,17.27,24.87-4.36C50.49,1116.23,22.84,1120.68,24.94,1136.19Zm6.54-997c5.95-1.43,15.19,0,15.09-9.3-.06-5.59-3.35-12.12-11.66-13.11C19.63,114.43,15.55,138.11,31.48,139.19ZM32.6,526.84c11.1-.41,5.61-10.77,7.68-13.73,5.62-21.41-24-15.57-19.63,2C21.73,522.85,25.61,527.1,32.6,526.84ZM25.66,335c16.9,3.79,20.63-23.83,3.14-23.81C14.58,309.65,7.47,337.05,25.66,335ZM21.89,1338.72c8.21,0,18.19-2.37,16.66-13.58-.76-5.6,2.24-16.75-9.76-16.05-8.79.51-18.06,1.79-15.83,14C12.79,1330.73,12.69,1338.75,21.89,1338.72ZM5,421c.3,7.93.69,16,15.21,16.32,8.39,1,12.63-6.39,12.58-16.06C34,405.78,3.77,403.73,5,421Zm9.26,809.7c-6.66.92-7.84,4.53-7.14,9.31,1.16,8,2.82,16.3,14.71,15,4.19.66,10.78-.44,8.7-5.46C27.45,1242.14,29.81,1228.55,14.23,1230.7Zm.51,194.58c-6.71.18-14.37,2-13.85,12.6-1.67,11.71,9.58,11.47,15.78,12.53C31.85,1452.17,29.31,1423.49,14.74,1425.28ZM9.58,84.86c16.91,1.38,15.15-23.25-2.7-22.19C-5,62-5.25,86.88,9.58,84.86Z"/></g></g><g id="Red_Japanese_Frames" data-name="Red Japanese Frames"><path class="cls-7" d="M0,20V1580a20,20,0,0,0,20,20H956a20,20,0,0,0,20-20V20A20,20,0,0,0,956,0H20A20,20,0,0,0,0,20ZM924,1548H52V52H924Z"/><path class="cls-8" d="M952.1,15.41,928.69,38.83A4,4,0,0,1,925.86,40H50.14a4,4,0,0,1-2.83-1.17L23.9,15.41A2,2,0,0,1,25.31,12H950.69A2,2,0,0,1,952.1,15.41ZM40,1549.86V50.14a4,4,0,0,0-1.17-2.83L15.41,23.9A2,2,0,0,0,12,25.31V1574.69a2,2,0,0,0,3.41,1.41l23.42-23.41A4,4,0,0,0,40,1549.86ZM936,50.14V1549.86a4,4,0,0,0,1.17,2.83l23.42,23.41a2,2,0,0,0,3.41-1.41V25.31a2,2,0,0,0-3.41-1.41L937.17,47.31A4,4,0,0,0,936,50.14ZM925.86,1560H50.14a4,4,0,0,0-2.83,1.17l-20,20a4,4,0,0,0,2.83,6.83H950.69a2,2,0,0,0,1.41-3.41l-23.41-23.42A4,4,0,0,0,925.86,1560Z"/></g></svg>