<svg xmlns="http://www.w3.org/2000/svg" xmlns:xlink="http://www.w3.org/1999/xlink" viewBox="0 0 976 1600"><defs><style>.cls-1{fill:none;}.cls-2{fill:#f4f3ef;}.cls-3{clip-path:url(#clip-path);}.cls-4{fill:#50b271;}.cls-5{fill:#997664;}.cls-6{fill:#ff8db6;}.cls-7{fill:#d81e1e;}.cls-8{fill:#592116;}.cls-9{fill:#992d17;}</style><clipPath id="clip-path"><path class="cls-1" d="M960,22V1578a6,6,0,0,1-6,6H22a6,6,0,0,1-6-6V22a6,6,0,0,1,6-6H954A6,6,0,0,1,960,22Z"/></clipPath></defs><g id="Paper_Backing" data-name="Paper Backing"><path class="cls-2" d="M960,22V1578a6,6,0,0,1-6,6H22a6,6,0,0,1-6-6V22a6,6,0,0,1,6-6H954A6,6,0,0,1,960,22Z"/></g><g id="Wikipedia_Cropped" data-name="Wikipedia Cropped"><g class="cls-3"><path class="cls-4" d="M613.65,1502.64c-21.38-14.39,3.13-66.41,19.27-73.37,5.73,3,8.81-.35,13.65-2.43C667.52,1456.73,636.85,1494.19,613.65,1502.64Zm200.63-61.13c-29.77-5.28-49.13-28.69-58.88-53.06-7.75-15.83-11-23.87,6.88-32.74C792.71,1355.75,844.65,1422.11,814.28,1441.51Zm-582-198.82c-28.16-30.44,23.25-82.78,57.09-81.72C323.08,1188.9,264.42,1238.57,232.25,1242.69Zm608.22-91.9c-77.93-4.42,8.22-58,43.76-39.46C908.72,1124.21,855.76,1155,840.47,1150.79ZM255.92,997.52c-18.93.56-39.53-5.71-53.07-15.46C161.74,957,208,941.91,235.21,943c35.65,4.88,85.87,53.15,20.71,54.54Zm564.26-46c-68.1-2.71-37.27-38.77,12.46-39.81,9.2.22,51.14,5.41,38.45,19.93C856.88,945,840.24,951.49,820.18,951.49Zm20.39-144.2c-27.33.2-71.76-39.28-43.44-61.56C820,739.3,856.71,791.08,840.57,807.29ZM300.09,767.55c-65.13,3.2-27.27-39.74,10.5-40.88C373.62,730.09,350.13,768.15,300.09,767.55Zm-207.77-47c-71.64-8.74,21.62-59.44,53.33-42.73C168.28,706.46,111.1,722,92.32,720.54Zm825.84-11.21c-29.45-3.54-56.75-26.62-58.27-55C881.24,618.28,969.93,704,918.16,709.33ZM467.27,622.79c-24.27-3.31-45.35-28.49-47.8-54.3,1.45-5,9.44-1.45,10.32-7.52.55-2.24,2.81-3.26,5-3.2C454.75,555.13,500.26,622,467.27,622.79ZM577.4,526c-25.83-.24-74.63-35.18-59.4-60.45C537.44,446.48,624,521.72,577.4,526ZM159.05,300.67c-24.2-5.48-70.58-39.59-57.66-67.07C133.2,230,182.52,269.57,159.05,300.67Zm719.46-1.54c-25.25-28.1,19.81-71.09,49-72.93C954.23,240.81,898.62,300.47,878.51,299.13Zm-444-33.3C406.31,246,437.18,197.51,467.85,190c11.58-3.92,14.25,7.71,11.51,17.06C482.79,240.48,464.12,258.27,434.49,265.83Zm199.4-19.66c-26.08-1.07-50.06-14.19-62-36.85-8.16-17.14,21.79-18.62,32.57-20.68,22.83,3.61,47.14,15.71,47.41,37.27-3.37,3.53.26,6.93,1,10.45C650.88,243.34,641,245.91,633.89,246.17ZM786.74,229.7C759.68,211.16,780,152,809.82,144.38,841.67,162.14,817.35,218.12,786.74,229.7Z"/><path class="cls-5" d="M0,1604c-7.55-2.84-7.5-201.16,0-204,4.31-.93,7.94,3.2,12,.71,5.07-3.11,11.06,1,14-4.78,29-19,67.59-31.93,97.12-48.81,16.7-.36,20.84-22.1,32-32.63,44.26-57.59,86.77-44.4,142-35.41,8.37-.35,3.92-10.94,11.85-13.4,23.58-6.37,49.55-39,73-26.91,52.38,34.3-17.7,31-1.53,57,13,21,26.11,31.29,46,36.52,4.63,11.64-3,27.6,3.3,39.47,13.45,19.6-18.15,22.84-26.14,32.7-20.94,31-54,44.49-86.17,59.94-30.4,28.79-65.64,47.7-96.54,74.55-17.3,11.76-33,30.06-50.29,40.18-7.56-.25-5.26,8.27-11.55,11.6-3,2-2.62,5.63-1.72,8.6C159.35,1612.14,4,1599.89,0,1604Zm456.82-400.49c-10.34-1.49-24.08-7.75-8-18.1,8.9-3.27,12.19-33.91,23.84-26.07,8.55,4.18,13.71,11.25,4.77,18.29C467.73,1184.78,468.29,1200.66,456.82,1203.51Zm34.82-224.08c-9.28-8.32-8.91-25.45-20.8-35.64-12.85-13.07,17.83-39.69-3.75-48.57-39.63-30.1,16.86-62-24.11-107.39-23.2-16.35-47.09-39.2-67-61.17-7.21-13.33-57.49-43.34-29.52-53,7.41-1.47,11.23-8.17,5.17-13.7-11.37-13.62,14.71-32.24,26.76-22.82,21.66,12.39,34.19,27.38,56.23,37.65,22.48,15.21,43.91,35,71.53,35.79,6.43,1.88,11.07-1.08,11.91-7.66,12.76-14.19,27.37-28.85,43.52-39.36,4.38-.8,3.08-7.15,7.4-7.67,9.29-2.13,11.69-16,23.22-15.54,11,.67,23.93,10,17,21.64a19.07,19.07,0,0,0,.7,14.73c7.42,19.07-16.94,34.67-28.16,46.31-12,17-24.55,37.29-37.28,54.43-7.45,11.49,11.64,25.81,10.35,40.56,1.2,5.07-5.46,9-.8,13.55,9,9.57,9.06,21.54,12.52,32.66-.89,25.47,9.15,54.79-7.18,79.47-6.59,6.84,4.3,15.49-5.52,23.2-6.68,6.7-11.61-1.14-19.84-.4C517.18,966.08,499.55,973.92,491.64,979.43Z"/><path class="cls-6" d="M494.34,1418.33c-11.76-7.88-7.21-44.57-37.12-28.92-21.93,22.77-34.56-30.44-28.21-48,3.83-9.6-8-9.85-14.12-12.32-20.83-10.28-35.35-28.51-36.74-46,7.18-7.87,26.47-8.58,26.18-21.72-2.35-14.78-20.28-18.31-27.9-27.18,12.39-29.68,54.25-41.84,82.35-29.1,14.05-9.76,17.63-49.17,44-31,19.51-3,21.92.12,32.36,15,39.66,13.7-29.3,92.36,11.07,80.09,69.85-18.06,18.41,38.33,47.14,39.23,41.74,13.16,61.93-38.33,70.48,4.56,19.58,58.3-42,12.41-26.91,61.32,4.36,11.47-1.71,13.57-9.7,14-20.73,5-37.3,2.63-58.84-8.32-13.94-9.29-25.32,34.76-71.6,38h0A8.6,8.6,0,0,1,494.34,1418.33ZM522.89,1317c22.41-2.66,26.36-21.21,14.46-37.73-.21-10.19-7.55-8-14.7-8.29-14.54-5.63-28,7.84-29.49,21.93-2.57,7.92,10.78,11.06,11.55,17.92C507.69,1316.75,517.59,1314.9,522.89,1317Zm249-183.22c-19.23-17.67-56.9,4.89-52.36-13.74,8.24-20-11.07-34.12-13.92-50.39,3.08-5.52,7.38-9.6,2.3-15.43.1-11.82-14.9-19.47-25-14.54-10.43,4.08-9.75,16.61-11.75,26.07,2.73,7.38,16.18,3.47,19.93,11.64-10,16.9-34.11,8.27-34.55-10.38-16.71-6.25-43.3,22.46-45.75,36.89-5.67,15.42-26.12-5-37.06.74-8.79-.8-5.26-7.64-8-11.32-2.62-6.88-9-9.32-7.2-19.18,7.46-14.62,27.75-12.44,30.87-33.79.87-4.41,5-7,11-7,7.78,2.16,15.23-1.84,11.08-10.44-3.69-19.59-2-51.67,17.38-62.42,6,.15,16.63,10.26,22.35,9.35,6.87,5.35,18.56-27.45,30.55-26,22.29,2.14,33.7,24.14,49.43,38.87,15.63-6.48,34.25-4.07,49.51,2.1,33,9.84-22.8,38,12.59,46.1,39.56,2.46,4.35,51.78-20.18,53.53C758.27,1094,785.21,1124.35,771.85,1133.8Zm.85-414.36c-24.54,3-45.15-31.05-52.22-21.88-11.15,13.21-28,18.23-43.55,21.48-15.41-1-11.26-29.47-30.65-27.08-25.94,12.76-34.19,1.79-35.32-25.24-1.08-6.49,6.13-18.64-3.26-21.16-14.82-4.09-33.48-22.82-33.08-40.57,8.38-3.72,18.79-9.59,19.45-18.71,4.32-11-28.75-25-6-34.16,14.29-16.36,38.67-8.5,57.32-12.14,3.46-2.05,6-6.31,8.11-13.82,3.21-14.48,29.15-51.1,42.78-30.59,23.72,39.91,33.35-32.89,57.42-1.5,22.18,15.15,2.88,49,36.28,39.64,57.87,6.81,12.92,19.37,23.38,42.58,4.44,3.35,14.08,3,20.27,2,20.13,5.89,5.53,35.51-6.74,42-2.1,1.08-4.29,2.46-4.71,5,7.74,16,11.73,32.27,7.17,46.48-2,10.66-7.43,12.74-12,12.69-55.77-22.53-7.27,33.06-44.72,35ZM716.43,575.15a29.49,29.49,0,0,0-23.58,30.66c-1.55,4.47,3.07,6.33,4.73,9.76,2.62,9.31,12.91,9.66,20.89,12.85,12.19-3.54,25.51-8.22,27-22.08C746.42,588.1,733.57,577.16,716.43,575.15Zm-584.74,3.1c-15.87,4.32-9.89-27.54-18.88-32.08-5.07-4.76-15.38,3.39-24.18,4.2-19.29-8.61-7.21-39.31,0-57.13,3.29-6.77-4.92-8.69-9.29-10.62-14.86-9-24.88-22.25-29.78-39.4-2.88-4.07,4.89-10.47,12.26-13.06,24.32-11.39-11.83-25-9.23-37.74,9.92-35,51.84-12.45,61.55-26.17,2.64-17.9,13.29-33.7,29.12-39.17,10.7,2.95,12,20.48,23,23.22,4.17-.44,6.54-3.22,9-7.79,19.11-36.11,35.29,8.9,40.77,26.63,4.22,7.81,15.37,1.14,22.45,3.67,11.13,2.37,44.23,10.16,34,28.21C256,432.42,297,418.2,295.39,438.16c-9.26,55-28,37.52-65.3,27.89-12.4-1.07-4.29,12.34-7.21,19.73-5.55,14-22.16,18.79-32.73,8.38-23.1,12-13.47,44.13-10.36,62.68C163.78,562.53,149.87,576.4,131.69,578.25Zm37.09-160.69c-32.46,1.31-25.84,44.68-.8,51.56C204.42,465.88,196.67,428,168.78,417.56Zm446.11,18.1c-34.66-5.12,12.79-44.5,6.32-59.89-13.73-11.16-41.33-48.21-18.42-59.89,9,2.55,26.16.63,26-10.84.27-7-10.67-21.51-8.09-27,18.57-15.61,44.8.64,62.22,8,10.81-12.38,16.07-28.43,35.78-37.34,16.36-9,16.61,22,33.13,19.66,9.59.87,19.81-21.51,26.52-2.6,8,9.95,2.35,36.28,16.23,38.17,19.38-2.82,44.39,2.26,57.58,16.86-.53,8.47-13,21.92-7.77,28.37,1.88,10,21.11,7.26,27.49,15.44-.55,18.89-19.25,37.12-37.56,36-59.14,2.48-16.31-29.52-54.56-41.14-33.18,25-12.28,31.53-48.74,1.71-6.87-7.72-24.54,10.81-28.75,16.26-5.57,9.18-11.39,16.61-10.76,28.71-2.06,20.8-36.13-7.74-61.22,22.55-5.11,4.53-10.44,6.92-15.41,6.92Z"/><path class="cls-7" d="M719.06,1476c-25.57-1.63-29.74-37-2.71-36.74C739.6,1437.25,745.83,1475.21,719.06,1476Zm91.11-137.63c-34.21-5.94-6.35-51.39,18.56-30.63C840.31,1322.49,829.38,1342.88,810.17,1338.39Zm-112.35-17.16c-16.56-.16-32.22-14.93-39.44-28-10.32-8.74-29.89,28-67.32,13.11-18.24-6.23,4.64-22.94-6.19-33.45-7.39-9.7-21.91-9.73-32.48-4.73-29.18-13.62,5.14-49.42-.8-65.68-13-7.5-16-22.12-24.84-31.63-18.14,3.25-39-1.08-54.43-12.75-9.91-7.43-20.68,36.9-51.06,43.21-43.42,10.19,3-54.61-55.88-20.2-20.3-4.67-11.47-41-14.71-56.11a6,6,0,0,0-4.33-2.06c-14.84,2.74-64.6-26.69-41.9-43.85,23.26-9.2,21.14-19.41.34-29.93-26.31-19.24,28.71-44.56,46.82-35.85,11.77-1.69-2.69-31,11.17-46.59,22.88-61.19,50,23.84,70.35-28.35,1.89-4.74,4.92-5.74,7.13-5.74,22.4,6,39.16,21,45.75,40.42,6.28,9.9,46.74-17.08,70.71,1,18,9.89-19.34,36.95,6.12,41,43.65-5.55,28.64,41.2-3.72,53.39-3.87,1.63-4.62,6.86-1.83,9.81,18.58,40.24,6.06,19.89,49.78,32.24,8.22-16.68,22.44-38.47,41.93-41.6,10,3.33,15,22.36,26.76,20.1,6.93,1.56,25-13.59,10.8-18-19.7-2.75-14.37-34.37,7.26-29.75,28.11,16.16,3.61,26.67,8.94,36.24,7.07,9.48,16.46,18.88,16.15,36.54-6.32,21.74,11.12,12.4,23.5,12,12-.55,45.28,11.61,34.44,27.9-41.58,41.29,65.95,24.15-20,76.55,7,19.53,14.67,40.67-.11,57-4.49,13-15.63,4.19-24,2.88C711.66,1288.84,711.48,1325,697.82,1321.23Zm-177.12-6.37c-27.06.79-36.94-43.11-5.58-43.8C543.37,1269.68,554.33,1314,520.7,1314.86ZM181.85,1121.09c-26.95-5.89-18-35.51,3-35.17C211.4,1086.35,204.88,1120.79,181.85,1121.09ZM714,903.05c-21.63-.28-18.3-38.84,3.6-37.55C744.9,864.06,739.72,906.51,714,903.05Zm-494.6-84.37c-27.12,1.88-25.68-41.7-.05-39.74C246.08,778.4,246.72,819.46,219.44,818.68Zm44.23-108.27c-12.76-4.8-17.16-34-33.65-13.8-3.37,3.19-8.43,12.52-12.43,9-16-10.19-12.26-29.51-18.87-44-13.2-1.4-35.93-2.44-42.63-15.78-3.63-10.29,13.47-18.84,6.46-30-3.9-7.87-11.78-10-19.57-8.7-18.21-2.17-7.26-22.65,2.46-29.83,10.79-10.12,26.18-12,35.61-21.14-7.51-17.85-6.76-40.73,2.48-53.14,2.5-5.06,8.88-3.93,12.9-1.71,35.25,9,20.4-30.87,39-30.45,23-1.76,33.48,15.34,47.55,27,23.09-20.81,50.62-8.61,40.39-34.94-48.4-9.87-14.9-22.3-31.26-36.76-34.07-4.8-14.25-20.11-17.35-38.72-31-20,24.12-39.34,41.65-42.32,7.47-.85,4.42-9,6.35-14.06,33.75-74.43,38,9,69-24.2,13.3-37.34,52.58,28.78,50.75,43.84,10.65,10.66,36.4-.72,49.4,12.54,17.45,10.59-24.51,32.64,9.8,37,33.4,5.95-7.57,39.5-24.42,44.4-6.49,16.66-4,39-17.07,54.66-4.78,9.24-12.56,2.91-18.82.12-38.54,1.5-.72,40-54.64,22.28-6,33.75-8.21,41.66-31.66,65.28,5.93,10.8,34.13,39.9,12.37,47.89-7.89-1.93-16.36,4.9-18.65,10.9-4.06,5.56,3.75,16.66,3.7,21.64-15.79,17.38-38,6-55.84,2.52-8.72,14.31-14,35.22-33,40.43ZM717.11,625c-28.91.69-26.37-48.36,1.54-45.9C751,578.35,750.72,630.21,717.11,625Zm116.75-71.81c-5.31,0-14,.11-12.81-7.19-1.77-10.95-19.29-11.95-28.63-13.28-6.87-1.7-16.79,6.82-22.45,1.08,2-13.69-5.37-21.26-3.82-30.8,4.32-6-.25-15.62-8.19-14.45-3.79-.62-4.11-6.42-8.65-5.85-5.33-1.32-12.09-9.91-15.43.17-14.52,32.63-26.29,24.27-46.47,4.37-12.8,5-24.18,14.91-28.85,28.37-1.44,4.61-5.19,4.85-5.93,4.85-57.3-35.93-2.52-31.81-10.4-58.24-2.11-7.34-15.57-7.86-18-15.12,2.5-19.89,24.65-31.56,42.47-31.62,34.93,7.83,19.76-6.54,31.58-28.71,32.83-42.45,22.58-21,55.64-3.43,13,2.12,15.47-18.48,24.9-20.84,21.62,1.94,14.57,33.91,27.66,40.65,18.05-2.88,49.21-.16,54.59,18.21-39.74,50.3,28.33,19.58,5.6,54.44-5.73,12.06-28.25,15.89-26,29.27C846.3,517.06,850.65,549.33,833.86,553.22ZM172.34,466.83c-23.49,1.91-35.23-46.52-5.1-45.79C191.8,419.63,202.23,467,172.34,466.83Zm338.2-148.95c-24.25,1.36-29.7-36.93-3.36-39.12C532.31,279.52,536.53,317.32,510.54,317.88ZM319.88,254.77c-27.5,1.53-24.07-39.29,1-39.61C346.73,216.24,345.68,256.57,319.88,254.77Z"/><path class="cls-8" d="M933.19,684.91c-2.64-16-29.88-40.72-46.21-42.06-9.65-.79-19.17-2.55-28.91-3.16-9.39-.58-18.32-8.58-27.38-13.46-.28-.16,0-2.53.5-2.78,11.15-5.4,15.21-15.63,17.12-26.63,7.2-30.75-16.25-17.05-31.56-25.42-2.39-3.61-.06-9.18,3.51-12.47,6.64-6.71,19.22,4,24.64-3.51,6.06-13.49,8.47-27.56,4.61-42.38-1.14-4.41-7.45-10.76-1.39-13.46,12.53-5.59,20.63-15.15,28.07-25.58,5.87-8.25,1-18.55-9.12-21.07-39.49-11.57,31.51-25.86-15.89-51.16C862.7,398.53,872,385.4,877,375c19.79-43.3-62.46,8.61-6-68.75,3.51-5.63,9.25-1.6,13.46-3.42C908.68,292.33,928.06,276.92,935,250c6.38-25,1.88-28.28-14.79-24.83-28.1,5.19-57.39,33.71-54,63.45,3.05,11.61-4.31,16.87-9.59,22.91-2.22,2.54-8.84-2.28-13-4.8-16.4-9.84-34.06-8.88-52.19-6.88a91.42,91.42,0,0,0-6.21-33.38c-2.4-6.16-6.79-11.17-5.45-19.28,3.72-21.63,57.27-24.56,49.25-81.22-1.62-9.18-4.23-18.74-12.33-24.41-7.41-5.19-12.61,1.9-18.56,5.17-18.35,10.11-31.33,40.41-30,60.92.75,11.66,8.68,22,3.65,35.26-6.69,17.73-25.06,26.83-34,6.65-12.24-23.95-21.13.11-37.07,1.42-5.84-1.55-10.73-6.54-16.1-9.94-9.46-6-23.92-4.91-27.07-19.92C646.14,188,600.67,172,569.7,195.75c-3.88,3-5.48,6-3.66,10.83,12.59,31.33,56.42,57.38,88.35,38.92,2.31-1.44,3.07-6.14,7.23-4.37,6.31,2.69,13.11,4.69,18.73,8.44,6,4,20.43,5.39,8.58,18.33-1.15,1.27-.91,4.17-2.15,4.93-2.84,1.74-.44,11.58-7.59,5.92-16-12.64-33.63-17.35-53-11.39-5.51,1.7-18.23.7-12.93,13.89,2,4.95,5.49,9.48,6.51,14.56,9,15.74-2.85,12.48-14.62,15.35-6.49,2.19-16.1-.32-16.53,11.68-.83,23.28,11.22,39.63,27.23,54.25,1,.88,3.93,1.16,1.8,4-11.38,15.4-27.11,33.93-16.69,54.14,3.88,6.85,10.07,2.57,15.09,3.82,1.71.42,1.57,1.11,1.06,2.43-3.43,8.93,4.75,11.64,9.34,15.16,4.22,3.23,12.18,5.16,11.7,10,.45,11.64-22.52,15.37-18.6,27.25,5.75,11.07,13.28,21.57,25.2,26.94,9.35,4.22.57,9.82,1.66,14.69.38,3-5.22,1.44-6.64,1.18-21.15-5.25-40-1-57.4,12-12.06,9-12.8,13.55-1.74,22.75,9.88,8.22,9.3,20.84-1.22,26.79-13.58,7.7-14,14.12-3.81,26.95,3.22,4.05,12.07,8.21,7.74,14-5,6.63-13.82,10.23-20.44,15.81-15.37,13-30.23,26.51-45.66,39.39-7.1,5.92-14.13,13.89-24.94,10.43C477.21,700,464.8,690,451.76,681.43c-23.45-15.37-46.1-32-69.24-47.83-2.22-1.52-2.38-2.68-2.49-5-.82-18.15-9.72-35.74-22.78-40.49,19.37-13.15,26-20.35,32-47.24.31-1.41,1.83-5.21,3.43-2.9,6.69,9.65,21.34,12.64,21.42,28.06,2.12,29.11,30.55,68.22,63.58,60.92,3.74-.81,6.48-2.07,4.46-7.81a47.85,47.85,0,0,1-2.65-14.82c-.13-21.29-22.47-49.11-42.24-53-15.13-3-28.72-6.55-38-20.16,10.49-1.06,22.37,6,24.49-10.78,1.82-13.74,11.61-18.55,25.17-13.32,2.92,1.12,6.45,5,8.75,2.65,32.47-30.18,11.3-67.88,33.28-50.48,3.9,3,10.46,2.68,12,8.05,4,14.27,11.92,26.26,21.79,36.68,13.93,14.71,30.23,26.39,51.55,26.53,9.84,1.24,21.85-5.59,17.39-17.71-10.14-31.16-45.32-60.14-78.79-55.59-10.73,2.14-16.44-5.86-24.45-9.08-2.76-1.11-1.26-2.5.9-3.47,10-4.47,17-12.22,23.72-20.62,10.29-12.92,7.6-25.46-6.74-29-17.43-4.34-17.08-4.15-8.16-20.25,2.43-4.38,6.6-10.68-1.34-15-31-20-54.3-.1-53-21.27,0-3.11-3.4-6.4,1.8-7.75,8.83-2.76,17-8,25.89-10.1,6.82-1.59,13.49-10.24,21.05-3.15,17.88,19.57,48.29-3.35,38.43-26.5-11.68-28.51-52.91-19.43-47.84,11.07.62,3.91.7,5.57-3.25,6.93-10.72,3.69-21.17,8.25-32.05,11.33-2.89.82-7.1,5.77-10.31.47-8.05-13.24-18.72-23.64-32.82-30.67,7.14-6,12.94-14,20.57-16.59,40-9.35,65.93-31.95,56.48-75.25,2.17-27.58-30.62-6.36-41.73,2.1-20.5,14-25.95,34.38-24.25,56.17,1.45,19-18.47,23.07-26,36.37-4.17,7.47-5.28,17.56-16.32,15.69-21.93-4.73-22.82-32.09-31.94-48.68-.9-2.3-4.69-3.73-2.68-7.11,6.52-10.94,10.76-21.49.45-33.15-8.5-9.62-17.77-13.39-29.79-8.19-27.95,11.18-17.31,55,15.33,49.37,13.5-2.26,11.36,14.84,17.22,22.39,10.61,13.77-22.32,18-23.64,46.89-.1,3.57,1.6,10.64-4.83,10.64C299,341,285.92,350.24,272,357.1c-11.4,5.9-22.14,17.92-36.32,11.68-5.68-2.29-15.71,5-16.69-7.88-3.57-29.12-42.05-48.46-51.21-88.45-6.23-38.25-77.12-57.1-74.15-34.34,6.38,37.54,41,66,76.8,70.4,5.49,5.89,21.1,11.36,6.46,23.88-19.55,28.81-16-15.5-37.39-9.95-14.57,5.29-21.77,18-27,32.31-1.33,4.19,2.29,13.7-6.59,11.85-10.79-2.12-21-1.27-31.61.1-15.81,2-25,11.85-28.65,25.44-2.6,9.78,7.63,16.87,14.22,22,8.13,6.33,4,7.08-1,11.06-6.49,5.15-18.16,9.25-14.68,19.4,6,17.6,16,33.29,34.44,41.31,2.23,1,5.75,4.37,5.62,4.56-9.9,18.31-18.55,44.71-3.76,62.33,6.33,7.2,13.8,1.79,20.93-1.26,13.4-5.91,11.77,12.93,13.71,21.08,1.56,7.74,9.53,14.33,17.42,10.76-7.57,18.45-11.59,26.18,12.05,27.87a16.28,16.28,0,0,1,8.67,3.6c15.82,12.56-15.43,25.57-5.95,32.93,13.63,10.49,28.12,18.49,46.64,17.71,6.87-.29,0,9.86,4.71,13.44.07,0-.75,1.87-1.16,1.87-40.78,5.79-46.78-10.22-82.86-10.3-29-3.11-85.33,45.12-31.68,53.14,56.09,13.49,56.3-30,97.72-35.69,7.1,0,16.63-.68,22.17,5.53,18.23,19.22,14.8,43.7,14,67.72-.61,4,.38,9.38-4.3,11.74-13.19,6.66-21.91,21.76-17.2,32.67,5.84,13.55,12.48,22.25,32.34,17.44,10.73-2.59,15.47-10.77,17.28-20.37,2.11-11.14-2.23-20-12.35-25.94-2.65-1.57-7.55-.81-7.51-6.22.14-19.64-.43-39.29.31-58.89.3-8,9.66-10.06,14-15.64,9.22,4,17.25,24.38,26.66,20.68,11.81-6.4,19.52-17,27.71-27.5,1.68-2.14.18-8.45,1.06-12.15.73-3.11,3.14-4.37,10.53.26,9.61,6,22.22,2.42,30.72,13.36,13.3,18.65,32.66,33.38,45.53,52-14.14.35-27.08-3.81-39.28-12.61-14.46-10.83-32.51-11.14-49.89-5.15-28.82,13-50.77,42-3.28,45.92,56.48,10,50.11-29.44,94.41-17.78,3.81.68,7.75-3.08,11.49,1.37,24.17,28.3,76.88,54.74,53,98.17-3.48,7.84-5,16.37-.11,25.19,9.18,16.64,16.13,34.14,15.07,53.77-.12,2.25.85,4.22-3.23,2.06-20.88-11.1-23.45-10-35.15,10.8-9,22.75-27.06-14.14-41-8.75-17.83,9.2-25.2,25.63-31.63,43.87-.81,7.49,8.88,26.49-11.78,17.11-19.52-8.54-40.86-11.15-56.68-30.78-19.32-24-46.83-38.08-79.71-22.72-8.87,4.15-20.76,7-23.78,16.28,1.65,17.72,28.55,32.21,44.77,38.6,19.28,7,37.79,7.64,57,.72,5.11-1.84,8.07-8.8,13.69-7.26,12.67,4.45,27.22,6.94,38.35,14.38-13.6,3.64-26.78,6.89-35.8,19.14-11.25,14.66-9.36,21.7,7.6,30.51,3.53,1.84,12.57,5.09,9,9.69-14,16.82-25.65,19.82-46.62,17.93-15,1.49-30,4.27-45,5.52-8.1.68-16.4,5-24.3-4-9.15-10.38-19.92-5-29.77,1.29C151.94,1096,158.45,1124,178.36,1125c34.78,2.32,17.47-27.55,41.74-28.23,116.32-15.14,35-3.94,118.86,31.26-18.73,6.61-26.81,27.71-49.92,28.06-20.35-.52-36.12,11.86-50.61,26.1-16.25,16-20,34.66-16.92,55.78.37,2.51-.47,7.38,5.26,7.13a75.72,75.72,0,0,0,28.89-6.51c29.35-13.22,46.81-34.6,51.48-66.5.77-5.27.68-10.17,7.22-14,11.46-6.64,21.49-15.76,33.61-25-5,7.25-.77,13.58-1.71,20.07-1,6.83,2.29,13.22,4.6,19.65,11,37.16,29.77-3.8,40.6,4.69,3.6,5.22,7.69,16,4.53,22.15-16.61,30.3-50.52,40.23-79.21,55.42-12.62,7-24.18,16.33-39.82,13.71-45.15-10.23-95.77-1.21-123.77,38.06-9.24,11-15.91,24.69-28.82,31.87-36.93,20.18-75.1,38.1-113,56.39-4.42,2.24-9.43,6-7.68,10.64,2.17,5.11,6.46-.06,9.79-1.44,5.73-2.82,8.78-.55,7.48,5.06-4.14,15.57,1.1,31.68,4.19,47,8.76,49.91,37.64,90.85,80.25,118,25.28,1.89-21.85-29.53-25.88-34.87-36.23-34.12-49.29-84.09-51-132.34.47-4.49-.92-10,3.69-12,11.08-4.58,23-12.21,34.43-14.78,8.25,11.64,17,23,24.08,35.38,10.71,18.87,20.66,38.21,30,57.79,9,19,16,39,33.9,52.15,3.45,2.54,6.79,5.61,10,1.83s-1.22-7-3.57-9.09c-22.85-19.91-30.17-49.06-43.35-74.44-44.86-90.27-72.39-51.18,7-93.31,2.38-1.18,2.17.46,2.09,1.73,1.94,30.48,54.74,20.24,73.2,12.06,2.89-1.07,9.39-7.63,10.37-.45,7.4,37.34,21.88,73.15,46.33,102.59,1.35,1.48,1.92,4.36,4.76,2.53s1.69-4,.44-6.26c-7.69-14.19-16.33-28-22.66-42.75-7.49-17.48-13.19-35.75-19.09-53.87-1.05-3.26-6-8.33-.09-11,21-9.6,37.27-24.86,51.57-42.39,1.86-2.27,7.63-5.81,3.94-9-4.33-3.7-7.73.25-9.53,5-14.4,14.66-30.24,28.24-48.94,37.81-20.39,10.16-41,18.46-64.18,16-9.36.46-21.76-6.67-15.21-17.57,20.63-28.32,39.84-62.24,78.1-68,12.71-4.29,34.34,5.65,20.78,19.26-13.48,12.5-26.14,26.37-45.28,30.67-2.73.61-6.11,3.86-7.88.93-4.89-8.38,17-20.29,22.14-26.7,1.78-1.51,4.73-2.83,2.81-5.21-5.65-6.52-25.56,14.4-30.6,18.75-13.43,14,1.24,29.8,16.73,21.32,16.88-5.47,30.36-16.47,43.45-28.34,11.91-10.81,14.14-19,5.39-32.66,10.81-.67,21,2.91,31.4,3.65,59.78.65,34.17,76.83,93.16,134.68,2.58,2.26,5.47.16,4.53-3.32-1-7.13-6.49-11.63-10.14-16.73-26-34.8-24.16-81.79-52.53-114.81-1.9-2-5.61-6.16.86-9.39,19.13-9.55,37.91-19.79,56.91-29.6,8.39-4.85,14.15,5.92,20.87,9.28,11,6.45,11.37,15.16,1,21.9-9.66,6.25-23.82,9.1-12.42,27.11,9.8,15.48,20.93,27.62,37.44,35.48,3.17,1.5,10.56-2,9.56,5-1.37,9.52-.23,18.83-.38,28.19-.12,7.07,12.24,14.67-.61,21.61-8.9,4.8-17.29,15.06-24.81-1.39-12.62-23.2-27.59-45.12-40.79-68-4.68-12.42-11.68-6.11-7.34,3.88,9.56,26.35,29.11,46.71,41.93,71,2.1,4,12.65,6.55,5,14-8,7.87-17.44,14.59-24.39,23.29-7.9,9.91-14.67,4.53-19.13-1-21.71-27.21-40.24-56.4-50.38-90.14-.81-2.7-2.18-5-4.69-4.57-12.36,8.38,10,45.74,15.79,55.34,39.64,72.88,64.93,36.94,1,70.5C296.8,1473.39,284,1493,263,1501.93c-4.19,1.78-7.08,9.28-11.76,5.87-19.23-14-34.95-31.72-50.18-49.81-14.91-17.72-24.84-38.75-37.6-57.9-1.92-7-9.14.13-5.91,4.64,20.24,39.27,44.12,76.9,79,104.92,2,1.61,8,2.8,5.57,6-4,5.22-9.86,9-15.08,13.21-15,12.11-29.9,24.34-45.2,36-5.49,4.2-8.56,18-19.73,4.31-7.68-9.41-20-14.94-28.31-24-20.42-22.11-32.52-49.42-44.87-76.46-1.68-3.69-4.64-8.3-8.63-7.3-3.51.88-.31,4.79.48,7.48,37.39,114.26,101.47,105,71.64,121.13-1.08.58-1,3-1.89,4.31s-2.75,2.93-.78,4.06c5.48,4.48,24.76-13.32,29.46-17.31,37.2-37.25,85.58-60,123.6-96a95.3,95.3,0,0,1,27.35-20.39c13.68-7,29.76-8.74,41.55-19.75,16.58-15.48,33.15-31,50.35-45.78,3.18-2.73,8.95-10.65,12.1-5.74,7.84,12.22,14.85,9,23.42,2.31,11.54-10.2,24.83.59,26.4,13.81,1.62,22.2,24.39,9.59,37.8,5.51,15.58-6.21,27.79-16.12,36.25-30.56,1.21-2.06,1.86-4,4.7-2.23,22.13,12.46,51.84,20.78,75.36,7.65,9.22-5.39,8.15,5.92,13.21,7.16,2.83.7,2.2,4.81,1.34,5.47-6.12,4.62-6.36,12.94-14.22,17.42-26.7,15.18-38.28,39.85-37.36,70.17,2.73,33.71,36,6.09,45.77-8.36,27.83-33.29-7.19-59.34,15.08-77.22,9.78,10.43,20.31,21.57,30.69,32.85,1.42,1.54,4.52,2.72,2.58,6-5.52,9.16-6,18.68.46,27.21,6.88,9.1,17.83,11.64,28.27,12,9.6.3,20.15-15.62,19.13-26.17-1.13-11.61-14-21.48-24.92-22.09-6.2-.35-12.5,5.44-19.38-2.11-16.57-18.2-34.82-34.88-52-52.47a22.23,22.23,0,0,1-5-23.36c4.39-11.85,27.78,1.09,31.07-11,1.26-4.65.35-9.94.13-14.93-.2-4.62-9.61-16.24,6.41-7.63,8.8,4.73,19,4,28.56,5.69,14.68,2.68,22.47,16.6,33.85,24.86,8.44,3.35-5.59,9.19,3.78,28,11.31,25.77,24,50.43,53.57,61.15,14.64,5.31,28.34-.91,27.87-16.08-2.89-29.23-20.45-57.08-46.82-70.29-9.91-6-21.35-3.89-30.32-9.52-7.83-4.92-14.21-12.11-21.51-18-4.08-3.25-11.44-5-12.58-8.8-3-9.88,3.92-17.39,11.61-22.07,15.45-10,19.63,15.1,29.27,2.25,5.31-12.54,11-15.2,19.56-3.06,4,5.65,14.15,7.83,13,15.65-6.12,25,22.05,43.16,41.83,28.58,22.65-12.1,3.36-52.32-19.64-43.2-10.78,4-17.71,3.8-24.94-4.79-4.58-6.87-22.09-10.61-16.76-20.68,4.32-9.32-2.74-34.87-11.61-41.1,20.18-3.43,34.74-19.64,40.64-37.93,2-11-10.35-6.73-14.64-11.41s-15.62-5.2-9.94-15.78c24-42.68,79,19,115.2-35.69,8.05-11.33,7.84-16.79-4.57-22.28-21.74-9.44-46.76-3.75-67,6.93-11.19,5.45-12.2,20.58-24.63,24.37-7.45,4.44-12.38,2-12.16-7,.85-10.33-1-20.36-3.51-30.46-13.73-23.94,13.7-4.27,34.5-43.05,10-16.77,6.3-26.42-10.77-32.94-4.95-1.89-15.12,0-13.78-10.13.6-4.63,4.07-8.88,6.15-13.34,2.14-4.61,9-8.88,2.35-14.41-15-13.08-35.3-15.72-54.46-14,7.79-8.94,18.57-15.79,28.17-22.78,2.91-1.87,6.94-5.87,11.49-3.5,30.25,14.15,68.81,12.28,92.27-13.89,16-15-12.08-20.72-23-24-22.81-7.76-43.45-2.59-63.52,8-16.7,8.8-24.35,27.73-41,37.07a32,32,0,0,0-12.79,12.64c-7.81,15.18-15.33-17.22-25.44-18.54-3.76-1.66-2.77-4-2.17-6.32,1.72-6.73,2.79-13.85,5.85-20,2.75-5.48.18-15.77,9.15-15.9,18.58-.27,25.45-23,19.39-35.28-20.36-27.25-53.37-6.48-42.26,24.66,2.17,5,9.44,6.73,8.57,11.74-1.42,8.17-5.39,15.86-7.62,23.94-1.67,6-2.06,10.47-11,7-31.53-14.21-11.26,32.66-49.28,20.35-4-1.73-5.65-9.93-12.26-5.37-18.5,12.75-25.74,46.45-17.93,68.76,1.05,3,.92,4-2.26,3.79-4.25-.28-7.72,1.35-9.6-6.14-2.27-9-13.06-8.44-21.34-10.09-6.65-1.33-21.75,3.62-13.39-13,3.74-7.43,6.89-14.7,4.83-22.8-.73-2.89-6.84-6.9-6.61-7.19,6.07-7.36,3.71-16.92,6.89-24.83,18.84-43.87,2.43-91.36-9-134.92-2.27-9.93-13-18.83-7.38-29.27,16.53-29.53,40.92-60,63.59-82.6,9,27.36,36.73-22.19,47.32,15.91,1.22,4.68,2,12.47,7.7,12.69,44.56,2.22,51.13-34.48,60.24-20.39,9.54,11.6,23,17.43,37.78,19.79,7.37,1.18,17.8,15.28,16.61,22.65-5.23,33.88,22.44,61.3,53.88,66.11,24.77,7.25,9.37-23.84,6.17-35.8-8.68-24.26-27.2-35.1-51.83-38.44-5.82-.79-6.2-8.8-8.25-13.65-.8-1.89,4-4.55,7.55-4.19,2.43.24,1.5-1.18,1.72-2.43,4-9.62-8.53-31.4,3.3-33.91,12.27-3.55,28.56,12.94,35.15-4.8,5.72-14.18,6.79-30.42-.31-44.2,44.32,16.1,6,32.2,54.81,67.06,7.5,5.41,17.79,7,26.89,10.1C931.92,719.17,943.1,700.48,933.19,684.91ZM886,255.06c10.81-12.5,26.51-25.23,43.69-24.12.8,29.8-22.7,55.08-51.18,64.19,12.64-13.66,23.91-25.93,35.33-38.06,6.49-22-35.32,26.4-38.77,31.94C875.19,274.89,878.6,264.08,886,255.06ZM647.07,237.75c-23.32,13.91-60.9-8.24-71.7-30.35-5-9,6.63-8.22,10.55-10.66,23.18-10.58,54,3.16,62.84,26.61-11.21-.36-49.06-22.5-55.32-11.49-.7,3.87,4.63,4.13,6.88,4.76C604,217.46,656.65,235,647.07,237.75ZM423.36,569.44c13.2,8.62,23.79,19.86,33.41,32.12,1.3,1.65,3.4,4.29,5.53,2.39,2.61-10.51-22.68-32.51-28.63-42,21.95,2,38,31.66,41.18,52.44.22,1.34-.31,4-.57,4C447.76,621.06,427.11,593.06,423.36,569.44Zm93.92-93.83c1.08,0,2.41-.51,3.2,0a366,366,0,0,1,48,34c30.16,8.76-38.08-41.09-46.6-43,31.23,3,52.53,21.05,64.59,47.49.77,1.84.85,5.88.42,6-3.55,1-7.39,2.15-11,1.75C548.58,518.35,527.41,499.48,517.28,475.61Zm-9.51-192.89c18.81,1.69,24,30.08,2.78,31.16C490.72,315,486.54,284.23,507.77,282.72Zm-71.33-64.41c7.94-11,19-21,32.43-24.49,11.81-3.1,6.15,9.32,6.46,13,4.07,28.26-13,48.19-40.84,55,5.32-8.81,36.35-47.32,28.43-52.31-2.55-1.14-4.88,1.32-6.53,3.71-9.36,13.59-18.8,27.12-28.94,41.73C428.63,241.22,429.39,228.1,436.44,218.31ZM321.65,250.72c-22.59,2.9-22.65-28.4-2.27-31.42,7.26-1.39,17.59,8.09,17.55,15.93C335.42,242.93,331.33,250.18,321.65,250.72Zm-200.67,7c14.66,10.84,26.67,24.3,38.07,38.91-28.12-8.79-52.54-30-57.65-59.07,30.47-.34,53.84,17.83,61.44,48.52-5.76-6.22-39.25-41.45-44.73-35.55C114.9,254.1,118.36,255.83,121,257.76ZM102.13,715.88c-9,1-20.61,1.67-29.82-4.84-2.4-1.69-4.64-3.56-2.67-5.66,10.74-11.4,21.52-22,38.6-24.78,12.24-2,23.69-1.07,36.74,1.15-13.68,5.29-27.84,4.82-40,11.16-4.55,3.41-18.18,5.47-16.69,12.6,1.72,3.82,3.61-.08,5.11-.55a406.25,406.25,0,0,1,55.23-13.4C137.76,708.48,119.82,713.84,102.13,715.88Zm175,45.41c-14.54-1.42-9.37-8.58-1.77-15.72,19.06-19.26,43.28-17.45,67.05-7.4-6.37-.09-73.65,9.09-50.15,14.87,18-1.87,36-3.8,54.65-5.78C325.71,764.91,301.87,765.72,277.1,761.29ZM284,977.77c-11-1.54-66.89-19.65-71-10.34-.7,3.86,3.52,5,5.31,5.25,21.86,3.25,42.9,7.32,63.69,15.38-32,13.16-72.13,2.7-92.7-25-1.88-2.25,1.17-3.48,3.32-4.65C205.8,951.26,219,945.06,234.73,947c17,2,29,12.94,41.94,22.26C279.86,971.51,284.39,973.17,284,977.77Zm-85.38,125.36c-.72,9.08-9,11.78-16.76,14-18.85-3.06-14.77-28.25,3.28-27.17C192.8,1090,199.26,1094.93,198.61,1103.13Zm84.53,103.51c-12.7,16.7-30.66,27.29-50.8,32-.71.19-3-2.21-3.14-3.58-5.62-34.7,26.4-67.94,60.14-70.13-6,2.63-68.52,66-40.76,55.26,15.09-17.16,28.37-35.15,48.42-47.17C295.21,1185.72,290.94,1196.6,283.14,1206.64ZM616.59,1498c-1,.71-3.73.87-3.9.48-1.34-3-3.28-6.16-3.12-9.19.94-18.26,4.82-35.61,17.58-49.79,2.13-2.36,4.13-7.45,6.77-5.88,3.59,2.13-.38,6.47-1.62,9-1.82,4-16.22,36.93-9.39,36.73,2.11.31,3.37,0,4.38-2.51,6.24-15.49,12.79-30.86,19.1-45.94C655.94,1461.46,639.58,1481.2,616.59,1498Zm99.52-54.67c18.43-2.22,24.24,28.08,2.92,28.74C700.51,1470.67,692.74,1444.09,716.11,1443.28Zm37.3-77.82c14.46,15.29,27.28,30.27,41.53,44.46,2.28,2.07,2.79,8.58,7.27,5.09s-.3-7.43-2.39-10.61c-9.77-17.15-25.73-29.56-37.13-44.71,22.48,3.72,40.5,23,49.5,43.59,3.85,9.59,9.82,19.74,6.41,30.41-2.5,7.81-9.92,1.36-13.51.46C778.48,1428.61,754.74,1391.05,753.41,1365.46Zm60.81-58.28c10.67-.92,15.4,4.73,14.69,15.26,1.4,14.14-11,11.14-17.48,11.88C793.84,1334.05,792.46,1307.38,814.22,1307.18Zm45.08-182.5c-2.14-2-4.39-.56-6.72-.51a123.5,123.5,0,0,0-39.27,9c18.11-20.4,45.14-24.59,70.08-17.9,8,1.71,1.24,7.87.48,8.94-16,24.48-45,26.06-70.82,18,13.55-5.75,27.61-8.38,41.65-11.19,2.22-.45,4.16-2.37,6.14-3.75A8,8,0,0,0,859.3,1124.68ZM817.44,917.22c18.61-4,36.38-.27,53,8.83-21,23.51-49.94,24.78-79.77,17.46,17.9-6.66,33.44-10.28,52-10.47,6.33-.78,4.92-9.14-1.31-8.15-20.6-1.82-39.59,5.1-58.82,9.64A71.28,71.28,0,0,1,817.44,917.22Zm-114-31.83c-.77-20.27,28.15-20.75,28.27-4.51-.31,9.39-2.46,18.31-16.05,18.08C706.7,900,703.29,892.81,703.45,885.39Zm88.43-129.53c4.79,12.44,16,18,22.55,27.56,5.54,6.39,12.89-.58,6.1-6-8.3-8.78-17.24-17-23.11-27.73,24.54-2.09,39.29,27.11,43.65,50.37,1.44,3.79.08,3.38-2.73,2.9C811.75,798.46,793.29,782.43,791.88,755.86ZM786.11,171c10-14.37,27.68-37.54,32.57-8.13,7.38,25.41-10.09,49.63-31.94,62.87,7-18.55,11.8-36.46,21.11-52.49,2.09-3.6.85-6-1.31-7.63-6.91-5.11-24.55,44.62-26.31,51.14C775.8,208,779.44,179.53,786.11,171ZM608.79,429.68c-9.81-6.88,14.61-39.09,18.89-47.82,7.06-7.57-35.29-26-28.22-59.34,1.14-4.84,6.81-1.56,10.28-1.38,27.67-1.21,26.31-18.26,16.14-35.76-4-6.31-.49-7.51,3.83-8.18,20-3.14,37.52,1.12,51.65,16.83,9.71,5.8,6.3-25.75,39.3-41.81,10.29-6.68,11.71,17.65,25.81,19.43,17,6.28,23.13-19.75,28.13-4.5,4,11.13,8.12,22.21,8.56,34.38.23,6.39,6.88,8.13,11.16,6.69,10.62-3.57,20.51.48,30.43,1.79,7.11.93,13.71,5.88,20.47,9.18,2.52,1.23,4.51,2.42,1.92,6-14.5,20.18-7.8,34.83,15.06,38.27,9.57,1.44,6.24,6,3.41,10.84-12.38,21.29-20.66,25-46.87,20.83-9.39,1.1-13.29-.39-16.24-11.12-6.57-19.49,10.5-15.28,20.29-23.81-1.32-6.25-11.1-5.15-15.32-2.72-8.15,4.56-14.83,7.69-22.93-1.36-9.83-10.77-23.53,23.76-31.13,20.28-1.23-1.24-2.4-2.89-.78-5.57,7.9-13,15.2-26.43,23.07-39.48,2.06-3.42,2.33-6.57-.59-8.53-3.16-2.13-4.25,1.68-5.59,3.68-8.72,13.48-17.72,26.82-27.25,39.73-1.63-1.76-2.73-3.68-4.39-4.6-10.37-5.78-3.16-14.21-2.71-21.11s3.85-13.3,5.74-20c.7-2.49-.19-5.06-2.93-5.43-3.48-.48-7.68-.91-8.89,3.79-3.22,12.43-3.52,25.53-9.36,38.67-6.59-13.14-11.7-25.75-20-37.53-1.7-2.55-1.84-8.35-6.17-6.33-4.71,2.21-1.34,7.57-.05,10.47,5.46,12.36,11.79,24.34,17.88,36.42,2.11,4.19-2.83,4-3.9,6.24-.5,1.07-1.88,3.09-4.69.95-11.77-8.95-23.87-17.47-36-25.91-6.12-5.45-11.93,2.17-4.28,6.27,10.6,7.67,21.21,15.31,31.75,23,8.15,4.85,2.56,12.43-5.61,9.12-12.17-2.25-24.45-2.06-36.73-1.52-1.52.06-3.5.41-2.84,2.43.84,6.66,28.56,5.33,35.52,7.39,2.91.37,9-1.7,4.63,5.73-3.59,4.7,1.7,20.12-8.49,16.45C642.12,397.06,627.16,440.05,608.79,429.68Zm39.59,84.51a53.75,53.75,0,0,1-18.49-21.58c-.45-.93,2.64-4.18,4.63-5.6,17.79-11,17.23-30.92-3.39-38.07-4-2.1-3.6-4.18-1.83-7.18,13.37-25.24,40.06-23.88,64.85-19.05,5.22,1.4,3-4.3,2.7-6.27-3.29-20.6,7.35-34.43,22.09-46.2,4.52-3.6,4.85-3.19,5.15-5.73,15.12,13.81,30.74,37.46,49.38,10.26,1.8-3.08,2.48-9.32,6.36-8.07,4.26,1.37,8.71,5.78,10.63,10a69.58,69.58,0,0,1,6.2,22.4c.11,18.41,29.09-2.82,54.29,15.13,15.07,9.88-1.89,14.52-4.35,20.68-14.37,34.07,35.39,15.27,17,38.46-7.14,9-16.58,15.12-25.55,22-8.43,6.43,1.71,12.18,2.12,18.49.71,11.07,2.17,22.06-1.73,32.61-1.71,4.63-7,2-10.76,2.5-7.08.17,5.18-11.8-20.69-17.59-10.43-3.85-21.69-3.2-32.42.86-.33.13-1.42-.66-1.38-.79,2.8-9.24-1-17.51-4.11-25.6,7,4.46,13.93,8.91,20.94,13.16.79.48,1.11,4,3.36.75,1.3-1.9,2.45-3,.31-4.83-7.35-6.38-14.65-12.8-22.58-19.73,13.67,2,26.31,5,39.83,5.78,2.62-.42,2.37-4.95.47-5.8-18.45-4.69-33.11-9-53-10.51,8.65-5,59-17.51,53.41-24.27-4.76-6-51.78,16-63.35,18.42,11.12-10.52,34.74-33.39,35.54-47.43.14-.67-1.27-2.39-1.55-2.3-1.73.55-4.19,1-4.86,2.34-7.44,14.49-20.23,24.64-31,39.38.16-12.25,8.19-46.26-.44-51.68-9.6,15.14-5.11,32.59-7.49,50.72-8.22-9.68-15.71-18.63-23.37-27.42-1.42-1.64-3.2-5-5.73-2.6-5.85,4.62,14.59,23.66,17.71,30.05-10.83-1.51-21.1-2.69-31.25-4.54-3.17-.57-4,1.44-4.73,2.93-1.31,9.8,32.31,9.73,39.25,12.15-4.3,7-6.91,17.51-15.27,20.29-14.69,3.78-16.24-15.44-26.91-18.91-14.37,6.58-28.21,16.53-33.65,32.7C653.4,518.75,649.67,515.06,648.38,514.19ZM271.66,369.65c14.38-8.87,28.37-19.18,46.16-20.58,9.27-.73,7.77-7.81,8.11-13.31a53.17,53.17,0,0,1,23.79-33.36c8.27-3.65,12.29,27.4,38.55,13.28,13.21-7.8,6.38-26.25,23.53-10.31,30.7,18.34,21.12,58.69,35.29,54.5,14.73-2.16,29.22-1.6,42.69,6.82,8,5-.57,8-1.45,9.9-8.47,18.19-4.18,25,12.76,27.65,20.08,3.12,5.11,12.4,2.67,16.41-7.07,11.61-19.82,16.7-31.75,22-3.09,1.36-3.48,2.76-3,4.92,4.4,18.75-4.05,34.5-12.35,49.9-3.77,7-9.35-.92-13.62-1.76-11.89-2.34-25.58,5.94-26.25,18.12-.55,10-8.31,12.42-21.28,4.49-8.2-5-14.46-7-24.63-4.09-14.12,4.09-15-7.25-12.91-22.51,4.39-13.83-11.65-12.82-20.69-14-8.72-1.17-9.09-4.51-8.17-10.57C331,449.29,314.79,463.72,301,450c-2.82-2-.59-11.89.24-18.13,1.1-19.75-39.25-.12-21.81-34.92C287.72,382.58,259.08,380,271.66,369.65Zm12.13,125.12c-14-19.53-.65-9.62,12-33.08,5.07-9.07,10.1,3.8,16.3,2.72a14.55,14.55,0,0,1,4.38-.53c2.33.21,4.65,1.6,4.51,6.53,2.11,8.75-6.6,7.8-11.53,8.19C298,479.61,291,487.31,283.79,494.77ZM128.11,574.1c-6.34-.49-2.89-9.46-4.49-14.5-9.77-43.66-40.91,7.2-40-24.46-1.57-14.77,2.58-28.6,9.5-41.95,9.66-17.48-25.73-3.86-39.74-51.07-1.37-4.79,7-6.1,10.84-8.78,26.5-16.72-3.76-24.26-7.81-39.84,2.55-9.1,10-14.75,20.1-17.66,28.6-8.71,41.06,14.15,42.16-13.29C122.33,349.24,129,338.92,141,332.1c1.47-.83,2.43-1.92,4,.24,5.4,5.85,12.52,21,19.43,23.17,4.63,0,11.81-5.06,14.51-11.44,2.32-5.48,5.8-11.18,11.57-10.55,15.14,4.69,16.4,27.12,22.8,39.71,3.57,8.52,17.53.83,24.67,3.55,11.55,1.44,22.08,6.54,31.73,14.35,3.64,2.94-.38,7.05-1.44,9.22-7.5,15.43-.51,29.14,17,30.49,5.68.44,6.5.57,6.17,7.12-.78,15.54-6.29,27.87-19.43,35.74-6.06,3.64-10.52-4.32-16.48-5.6C238.1,464.38,221,459.34,203.76,455c-3-.77-7.89-1.4-7.5-3.94.59-3.76-2.71-9.9,7-10.63,11.93-.88,23.54-6.25,35.21-9.95,1.11-.35,1.64-2.57,2.44-3.93-7.13-7.27-46.12,12.14-47.73,6.83.09-4.15-9.44-3.58-4-10.1,6.63-7.93,12.12-16.81,18.44-25,1.91-2.47.71-3.48-.94-4.51-1.83-1.14-4.11-1.85-5.69.26-6.6,8.78-12.89,17.8-19.47,26.61-.85-4.89-8.69-2.41-8.69-9.13,0-13.51-1.18-27-1.76-40.51-.12-2.66-1.07-4-3.84-4.05-2.67-.19-2.1,2.15-2.4,3.89-4.13,13.38,1.17,26.83-.29,40.24-.18,1.67,1.38,3.88-1.8,3.83-3.91-.08-7.27,4.79-11.83.32-3.27-2.31-31.12-31.62-31.66-25.21-.7,2-.84,5.34.35,6.61,7.71,8.23,15.88,16,23.8,24,1.62,1.64,4.68,2.65,2.81,6.23s-3.54,4.36-8,3.35c-12.66-2.88-25.59-4.69-38.48-6.44-10.59-1.46-8.19,10,3.51,8.85,12.62,1.54,24.49,7.29,37.46,6.43,1.79-.12,2.86,1.19,2.11,2.38-2.05,3.24,4.19,6.51-.42,9.6-4.2,4.15-39.24,22.71-32.79,27.24,4.81,5.52,27.67-16.19,34.61-19.12,1.26-.84,3.85-1.78,4.4-1.24,5.1,5.05,2.15,9.91-.52,15q-9.78,18.6-19,37.51c-.6,1.24.53,3.32.85,5,14.9-4,19.22-35.92,30.1-46.16,1.95,12.52.48,25.83.73,38.59-1,6.67,5,8.93,7.63,2.77,1.69-11.78.58-24.12,1.45-36.07.08-2.49,2.45-2.22,4.09-2.79,1.23-.43,2.1-1.38,3,.78,2.35,5.72,6.26,11.09,7.19,17-11.62,19.09-19.88,38.59-8.38,61.57,2.11,4.22-.77,5.3-2.69,5.55C156.46,558.11,145,577.37,128.11,574.1Zm65-112.1c4-1.19,9.28,1.82,13.94,3.1,20.57,4.62,14.21,30.4-5.77,31.84-6.51-4-7.07-13.77-12.3-20.17C183.05,469.53,185.94,464.14,193.08,462Zm-19.9.81c-18.83,2.76-31.29-38.43-5.66-37.77C186,424,197.13,461.6,173.18,462.81Zm62.13,332c6.09,23.18-32.92,28.14-32,4C202.26,779.83,231.78,777.1,235.31,794.77Zm60.08-131.49c-6.2-1.83-4.44,9.19-6.67,12.75a52.87,52.87,0,0,1-22.67,29.44c-8.89,6-15-37.62-38.92-11.63-2.69,2.82-6.91,8.68-7.45,8.35-5.61-3.48-8.42-9.45-10.53-15.5A80.17,80.17,0,0,1,205,658c-3.94-13.76-5.94,8.49-36-6.59-16.85-6.33-6.49-14.16-2.1-22.94,5.11-10.22-4.11-23.9-15.71-25.54-4.71-.67-12.7,2.33-13.35-3.1-.21-21,28.3-30.61,45-37.44,11.06-3.6.93-12.11-.83-16.69-5.74-15-1.58-28.11,5.18-40.75,2-3.82,7.45.42,11,1.32,13.76,3.45,31.62-9.08,30.79-23.05-.48-8.12,2.94-8.65,9.3-8.2,17.7,1.25,30.43,9.5,38.13,25.58,2.66,5.58,5.72,7,10.71,1.54,15.53-17.15,35.9-20.43,57.73-12.87,8.32,2.8,1.15,8.4,1.56,12.14,2.07,18.53,6.83,24.44,24.83,22,10.9-1.49,9.44,7.19,9.06,10.92-2.16,21.3-11.81,38.46-31.53,48.65-2.17,1.11-1.58,2.65-1.66,4.16-.25,5.07,4.76,6,7.47,7.6,7.59,3.92,29,41,7.38,35.8-18.15,5.33-22.26,21.22-13.14,35.82C328.84,679.67,314,670.62,295.39,663.28Zm359.74,679.1c-20.41-1.45-30.24,14.13-21.89,33.43,4.55,10.51-5.92,7.79-9.07,8.74-44.58,13.32-59.51-30.75-76.64,2.68-13.26,16.54-31.77,22.42-51.26,26.68-1.28.28-3.19,1.29-3.18-1.42,0-8.53-4.67-15.35-8.27-22.5-4.27-8.47-24-10.91-30.61-3.21-8.27,9.68-11.6,4.24-15.17-3.63-5.9-13-10.61-26.06-6.2-40.62,4.55-15-9.11-14-16.35-17.15-17.71-7.69-27.34-22.11-34.64-38.56-1.61-3.64,4.29-4.41,6.64-5.26,13.69-4.7,27.06-17.12,15-30.77-5.13-8.88-14.79-12.15-23.16-17.36,10-18.88,30.55-25.79,49.83-29.65,14.83-5.39,33.77,17.94,39.28-4.93,20.17-43.43,19.25-17,41.9-21.25,14.08-4.47,14.3,10.26,21.61,14.79,21.44,13.3,6.45,28.87,4,44.12-1.67,10.42-5.6,19.56-10,28.78-.48,1,.27,3.21-2.1,1.91-1.25-.69-3.38.79-3.84-2-2.45-18.82-1.93-37.69-4.19-56.52-4.37-6.57-9.19,2.87-7.63,6.83,2.42,14.17,1.16,28.43,2.05,42.61.19,2.92,4.07,6,.2,8.59-1.33.89-5.3.6-5.63-.17-3.73-8.84-12.42-12.49-18.83-18.42-5.29-3.45-22.37-23.06-27.58-15.88-1.62,2.49,1.07,3.56,2.92,5.14,11.52,9.79,22.78,19.87,34.08,29.91,5.26,3.4,1.75,11.08-4.35,9.63-16-3.24-32.09-6.41-48.09-9.83-3.37-.56-9.53,1.18-8.75,5,1.49,2.34,3.88,2.57,6.57,3.09,16.16,3.12,32.23,6.72,49.05,10.32-2,18.78-22.1,17.6-31.19,28.4-2.16,2.56-6.59,4.28-4.35,8,2.19,6.58,28.48-15.46,33.34-17.78,2.51-1.78,3.28-1.7,5.82.21,13.07,9.84,5.44,19.43.65,29.61-5.75,12.21-10.69,24.8-15.9,37.26-1.23,5,7.26,5.16,8.82-1.35,7.18-16.49,14.1-33.09,21.18-49.63,3.31-4.91,12.86,4.43,19.29-1,7.43-4.89,10,43.74,21.35,37.27,4.34-2.93-.41-7.89-1.35-11.53-2.17-8.47-6.17-16.45-9.16-24.73-1.1-3-.38-5.85,2.82-7.62,4.78-2.64,7.53,2,10.45,3.65,7.55,3.63,38.49,22.69,44.23,15.83,1.29-2.77-1.66-3.82-3.34-4.67-15-7.61-29.88-15.25-45.09-22.32-3-1.41-1.79-3.49-1.21-3.86,3-2-3-8.17,3.92-8.06,4.8.07,9.63-.42,14.42-.16,25.25-3.17,7.57,9.79,16.65,16.68,20.46,5.13,43.37,7.58,61.7-6.61,9.56-8,11.17-7.07,16.06,10.76,1.78,6.51,2,13.45,3,20.19C663.86,1340.32,662.89,1342.93,655.13,1342.38ZM451.59,1188.29c7.94-7.58,12-17.45,16.86-27,3.44,2.39,6.9,4.73,10.23,7.26.2.15-.53,1.93-1.15,2.69-6.57,8.08-14,15.57-16.85,26.1-.27,1-2.51,1.45-3.86,2.16C447.37,1196.85,439.9,1195.8,451.59,1188.29Zm95.55,84.7c10.72-2.59,21.34-8,31.8.91,3.18,2.71,5.42,5.88,3.73,9.64-1.46,3.24-5.34,1-8.09,1.31-8.61.45-17.33-.17-26,.11-5.47.1-6.46-4.22-7.82-8C540.13,1275.19,542.75,1274.05,547.14,1273Zm-8.84,24c-4.48,23.16-39.13,13.86-39.24-6.5C499.9,1263.78,541.26,1276.62,538.3,1297Zm236-152.15c8.23,6.52-26.17,20.78-5.61,38.7,19.1,11.71,26.7,10.1,8.92,26.94-5.77,8.22-15.58,11.73-25.28,14.75-11.79,4.69,12.29,13.56,8.73,42.81-.47,9.37-7.12,15.69-11.35,22.88-1.16,2-9.94-4.26-16.54-4.46-8.27-.26-22.64,8-24.21,16.66-2.7,15-8.37,16.86-23,11.23-18.53-4.18-28.59-41.75-36.54-28.77-13,19-36.16,22.89-57,17.08-10.32-3.93-2.15-10.79-1.07-15.37,4.68-19.85-17.58-29.29-31.46-26.19-3.44.76-7.46,5.46-10.1,1.61-4.57-6.64-5.72-14.65-4.23-22.87,2.12-11.63,8.53-21.42,13.17-32,1.47-3.34-.93-5.78-3.65-7.7-15-10.63-22.78-25.15-24.38-43.5-.38-4.36-3.93-9,.31-12.56,8.45-7.46,20.8,2.09,31.21-1.12,9.22-1.43,10.78-17.31,10.58-24.64-1.74-14.5,6.92-9,14-8.2,7.5.86,13.94,2.74,19.39,8.57,1.75,1.85,6.36.74,6.81-3.74,2.12-21.27,15.86-33.14,33.73-41.48,5-2.33,5.46,2.9,7.32,5.55,10.47,15,26.58,21,41.19,2.33,3.85-4.93,4.88,0,6.4,1.66,12.3,11.88,15.48,28.63,11.25,45.73C710.47,1149.76,743.84,1110.91,774.3,1144.81Zm-87.18-67c-10,6-18.87,7.5-25.24-3.94C667.5,1070.91,667.5,1070.91,687.12,1077.81Zm5.4-32.78c5.89.49,17.37,18.21,7.23,20.88-8.84.75-19.68,5.06-21.49-9.07C677.23,1048.76,683.06,1045.23,692.52,1045Zm-90.39-7.61c5.85.58,12.69,2.12,16.6-2,3.67-3.88-2.63-8.62-3.28-13.1-3.26-17.56-2.47-35.2,7.68-50.9,2.85-2.69,2.06-10.57,10.62-5,38.62,28.3,29.63-33.39,58.67-14.79,13.92,7.91,26.28,18,31.71,34.38,4,11.12,13.91-14.2,55.31,2.56,28.66,8.68-29.06,31.67,12.59,46.1,4.94,1.65,13-.06,14.4,4.74,3.15,19.83-17.72,38.59-36.21,41.56-5.47,1.17-6.57,5.2-5.73,9.9,2.24,12.53,4.71,25,7.36,38.93-15.26-9-29.67-11-44.88-5.13-2.78,1.09-4.8,0-3.68-3.36,7.21-20.71-7.06-35.52-14-50.16,3.17-8,8.28-5,13.77-3,5.41,1,21.85,9.44,24,1.78,2.61-5.53-27.59-10.42-32.5-13.22-1.46-.49-2.22-3-3.3-4.66,10.45-8.47,25.94-7.6,35.59-16.65-2-1.25-4.48-4-6-3.51A261.4,261.4,0,0,0,711.09,1042c-5.34,2.28-5.42-3.22-8.52-4-2.23-.6-.87-1.86,0-3.52,1.84-5.87,15.91-25.93,8.22-29.2-2.78-1.29-3.79.56-4.74,2.65-3.68,8.12-7.49,16.18-11,24.36-1.21,3.85-5.93,3-7.68.52-5-10.2-9.63-20.55-14.6-30.75-1.19-2.46-3.81-4.76-6.4-2.92-3.33,2.37-2.28,7.17-.76,9.42,5.65,8.34,7.25,18.93,14.73,26.19a2.45,2.45,0,0,1-.08,2c-3.54,1-5.25,5.6-10,4.48-7.86-1.85-15.5-5.31-23.83-4.23-2.5.33-6.45-2.37-7.33,2.16-2.4,8,25.54,11.53,31.19,10.89-.48,9.12-2,11.39-12.63,10.68-18.83-1.25-48.29,24.5-50.78,42.66-.35,2.54-1.08,3.59-4.85,2.09-8.7-3.44-17.76-5.89-27.65-4.85-5.76.6-1.6-7.14-5.21-9.47-5.76-10.32-13.81-17.13,4-24.78C597.52,1055.35,587.24,1035.11,602.13,1037.42ZM562.26,1019c6.65.94,14-.12,19.87,2.48,7.75,3.47,3.58,12.24,2,17-4.19,13.12-14.76,21-27.33,26.55-14,6.28-2.66,13.73.51,20.8,7.17,13.71,7.37,27.91,4,42.85-2.49,11.06-9.9,5.19-14.63,4.25-19.67-5.52-32,9.8-26.46,28.74,2.7,11.89-8.65,5.37-11.8,5.27-14.94-.47-28.27-6.32-39.33-16.81-1.15-1.09-4.4-2.06-4.51-1.86-2.1,3.69-4.83,7.4-5.52,11.44-.62,14.45-48.17,56.72-55.08,31.12-1.14-8.61.19-20.3-9-23.93-16.62-5.49-32.53,27.56-38.19-3.25-3.71-13.67-1.5-27.22-.17-41,.23-4-3.27-3.85-6.1-3.74-21.5.87-36-10.53-47.54-27.1-5.43-7.77,2.67-8.16,6-10.64,4.35-3.28,11.08-4.54,13.8-8.64,9.39-14.17-5.16-18.2-12.27-25-2.62-2.5-9.8-2.65-9-6.11,3.93-20.54,28.19-27.82,46.91-24.62,11.27,2.64,16.89-1.09,12.4-13.35-5.91-16.9,4.18-34,13.06-48.08,19.36-32.64,37.63,40.12,62.91-15.58,2-5.08,4.89-2.85,7.21-2,19.32,7.31,33.43,19.4,39.4,40.33,1.89,6.63,9.41,4.13,13.61,1.28,10.09-8.7,70.13-14.46,59.07,9.93C549.41,1000.12,543.88,1016.89,562.26,1019ZM600,698.07c-5.63,5.26-9.63,11.63-14.55,17.28-9.51,10.91-9.65-4-12-6.44-5.25-3.95-17.36-19.2-23.48-12.46-2.62,2.82.95,3.38,1.86,4.38,7.48,8.16,16.89,14.84,21.18,25.46,2.29,5.66-4.23,8.15-6.52,12.14-6.57,11.48-16.77,20.64-21.66,33.29-.35.91-1.55,1.5-2.36,2.25-6.08-4.31-16.28-30.2-24-26.21-2.23,1.8-1.85,3.86-.42,6.15,11.94,21.54,31,41.55,32.74,67-20.12-13.65-50.36-26.57-68.36-2.16-.86,1.34-1.52,2-.18,3.16a6,6,0,0,0,7.41.43c21.26-14.84,39.41-2.06,55.28,7.14,14.49,8.4,13.76,23.13,17.83,35.94.88,2.77-.52,6.26-.87,9.42-24.46-2.37-31.84-29-57.93-25.49a3.15,3.15,0,0,0-.86,2.43c2.07,3.63,5.28,4.7,9.47,5.6,11.11,2.39,16.64,13.43,26.22,18.45,18.65,13.42,24.94,2.17,25.87,12.14.65,15.55.34,31-4.36,46.15-2.64,8.53-4.13,7.78-11,2.89-17.5-12.44-37.32-13.07-57.53-6.88-2.55.78-3.08,2.5-2.83,4.93.32,3.14,2.66,1.93,4.17,2,17.62.48,35.84-2.9,51.81,8.06,7,4.78,14.38,9.66,6,19.14-2.41,2.72-5.52.92-8-.32-9.22-4.65-44.49,2.79-51.27,11.54-3.14-13.18-9.08-23.92-17.74-34.22-8.43-10,7-35.54,20.32-36.14,15.09-.68,30.23-2.2,44.8,3.84,1.51.63,3.73-.46,5.62-.75-4.41-14.17-21.2-12.91-33.07-13.66-12.67-1.27-24.14.17-34.42,8.29-.74-15.08,4.87-29.93-.1-44.62-1.76-3-2.23-12-7.18-8.06-1.62,3.51-.29,7.23.11,11,1,9,.78,18.2.64,27.32-4.1,6.16-6.69-.36-9.53-3.82-18.55-29.28,21.7-55-8.28-86.44C435,782.33,463.35,743,476.9,731.82c1.66-1.78,5.86-3.07,3.49-6.41-2.7-3.83-6.46-1.72-9.2.33-19.14,13-25.87,33.26-34.76,53-34.89-28.61-65.53-62.27-95.37-95.92-1.7-7.73,30.34-5.33,13.63-25.49-4.05-4.79-1.07-9.61,2.17-12.6,5.32-4.91,12.24-8.63,19.44-4.23,11.08,6.78,21.61,14.46,32,21.5-11.8,8.1-21.78,20.6-35.83,25.21-3,.72-6.22,4.57-4.53,7.43,3.65,6.18,8.66.42,12.46-.58,22.47-6.61,28-37,52.92-15.38,20.83,14,40.22,32,65.76,35.13,18.27.75,33.52,4.41,45.75,18.91,3.33,3.73,10.91,2.42,6.45-3-5.08-14.08-17.58-19-30.06-24.2,10.66-13.52,25.09-24.65,38-36.17,8.88-7.2,15.11,3.21,21.15,7,3.47,2.16,7,6.07,11,8.51,5.49-6.44-4-13.37-7.74-17.52-3-3.33-8.26-4.57-14.14-7.56,7.8-1,9.71-7.22,13.75-11,5.89-5.5,9.62-5.68,16.88-2.13,7.71,3.76,8.07,6.4,5.34,13.89C599.28,676.11,617.09,684.66,600,698.07ZM824.8,616.92c-3.71,2.29-14.8,5-9.49,11,14.24,11.18,12.89,27.61,10.16,43.11-2.39,15.43-13.29,7.5-21.06,5.08-14.51-2.7-21.47,1.22-21.47,18.83,4.63,11.61,2.32,23.4-15.9,19.8-43.82-7.19-35.8-47.56-48.75-21-8.58,12-22,15.29-35.31,20-14.2,5-12.63-6.4-15.49-12.24-5.09-10.42-17.81-16.54-28.57-12.19-4.58,1.85-11.72,6.69-13.21,5.32A33.13,33.13,0,0,1,615,667c.39-4.92.47-9.73,1.83-14.74,3.6-13.22-10.07-8.69-15.22-13-10.26-8.55-19.33-17.44-23.58-30.48-.76-2.35.6-1.47,1.46-1.78,17.27-6.17,27.51-26.19,8.72-39.78-10.2-7.38-.46-9.31,2.48-12,12-11.07,27.09-12.13,42.07-9.94,14.53,2.17,20.77-4,24.69-18,4.31-15,14.39-26.92,28.76-34.07,4.89-2.43,6,3.82,7.58,6.05,13,18.77,27.33,15.09,36.49-1.14,8.12-14.39,14.45-7.21,20.75-1.15A44.39,44.39,0,0,1,765.11,531c-.12,5.74-1.22,11.88,10.11,8.75,13.22-3.64,27.75-2.77,40.44,5.29,3.9,1.18-5,11.46-5.52,14.37-7.33,14.88-3.41,21.65,13,23.78,5.25.68,14.19-3.78,15.17,2.38C840.24,597.77,836.4,609.6,824.8,616.92Zm89.47,88c-25-4.88-42.75-22.51-51.09-46.07-.45-.89.38-2.42.62-3.66,1.67.52,3.69.6,5,1.63,11.1,9,22,18.3,33.15,27.29,1.06.86,3.29.26,5,.34-5.47-15.81-22.75-22.73-35-35.33,20,2,34.83,10.69,46.72,24.55,6.48,7.55,9.16,17.1,12.33,26.29C932,703.31,920.77,706.48,914.27,704.92ZM789.33,615.17c-10.35-2.57-21-4-31.12-7.36-2.82-.92-9.1,2.73-9-4.14,0-2.12-2.29-5.36,1.81-6.62,10.78-3.31,21.67-6.34,32.21-10.3,2.71-1,8.08-.81,7.56-6-.14-1.41-3.21-3.91-4.32-3.61-11.74,3.13-24.7,4.58-34.6,10.83-9.52,6-6.16-3.62-9.13-5-4.47-2,.21-4.22,1.19-5.92,4.27-7.35,8.66-14.67,13.52-21.64,2-2.84.66-4.48-1-5.84-4.43-5.31-17.28,20.75-21.09,24.23-4.42,6.34-7.49-4.05-11.86-1-1,.73-2.3-.15-2.51-2-2.18-12.14-1.57-22.43-2.1-30-1.17-12.86-12.51-16.73-9.89-.78.4,9.52.31,19.2,2.2,28.46,1.57,7.68-5.52,4.67-7.59,7.78-1.61,2.41-4.86,1-7.15-1.28-7.36-7.39-14.86-14.63-22.37-21.86-3-4.42-11.57-1.53-8.68,3.52,9.29,9.89,20.46,19.33,29.23,29.37-1.14,2.22-3,6-4.29,5.92-11.91-1-23.78-2.58-35.64-4.14-4.58-.6-10.58-3.4-12.82,1.75-2.08,4.79,3.92,4.48,7.15,5.81,13,6.22,27.49,3.24,40.57,7.19-.26,6.8-23.71,15.36-30.18,20.86-2.08,1.33-7.85,1.47-5.61,5.51,5.36,9.12,27.77-10.72,35.41-13.38,3.91-2.83,7,5.53,6.62,7.21-4.47,3.79-26.13,33.37-21.51,37.22,1.9,1.41,3.51,1.66,5-.52,7.88-10.83,14.94-22.32,23.86-32.33,3.63,3.56,11.62.61,12.41,8.5.93,9.18,2.14,18.33,3.09,27.51.31,2.94.43,6.31,4.32,5.75,8.11-1.34,1.15-26.53,1.92-33.42-.13-1.74-3.78-3.77-.1-5.12,4.41-1.63,11.41-5,13.22-3.33,7.22,4.7,25.3,35.82,32.72,30.88.93-9.72-18.55-26.45-24.88-35-2.36-2.57-2.57-4.12-.9-6.55s3.88-1.14,6-.68q17.73,3.76,35.49,7.35C792.65,624.45,795,617.59,789.33,615.17Zm-70,5.75c-27,2.72-23.09-40.48-.78-37.79C744.34,582.53,747,623.55,719.33,620.92Zm12.59,558.16c-10.53.87-21,2.16-31.55,3-7.12.59-15.56,4.34-19.19-6-2.43-6.89,4.66-7.41,7.73-10.55,4.11-4.22,9.27-7.7,12.35-12.53,2-3.06,9.58-4.28,5.29-9.71-6.56-6.42-24.66,19.84-31.12,24-3.41,3.3-6.59-2.16-10.1-.73-2-13.08,1.55-27,1.76-40.31.7-4.87-5.84-6.07-6.25-.78-2.45,11.9-.85,31.59-8,41-3.93,2.35-5.77-2.53-7.59-5.11-7-9.94-13.71-20.09-20.56-30.14-3.13-4.74-10-2.38-7.06,3.44,7.34,10.76,14.94,21.35,22.58,31.91,6.29,5.74-2.48,13.19-8.62,8.32-13.2-7.53-26.59-14.71-40.11-21.65-1.46-.75-4.18,1-6.31,1.51.42.75.64,1.82,1.28,2.19,15.07,9.71,32.28,17.41,46.35,28.13,2.79,3.11-31.09,3.81-35,5.28-4.52.59-12.46-.15-12.16,4.87.47,7.61,8,3,11.76,2.34,9.88-1.88,19.89,1.06,29.86-2.54,7.52-2.71,6,6.36,8.81,10,2.11,2.71.09,3.91-1.24,5.24-5.56,7.42-33.83,29.17-31.72,35.93,10.1-1.34,25.92-21.55,35-28.73,2.27-2.18,4.64-5.07,7.46-3.83,2.23,1,6.73.65,6.32,5.36-.55,6.43-.94,12.87-1.41,19.3l.47,0c0,4-.27,8,.09,12,.24,2.64-1.94,7.36,2.2,7.4,8.78-.84,4.18-29.41,5.84-37,.24-7,9.5-1.42,10.52-7.42,7.73,3.55,28.91,52.8,34.58,47.35,5.51-5.81-21.78-40.29-25.66-49.15-.5-.82-2.5-1.26-.48-2.47,1.17-.71,2.67-2.07,3.58-1.77,13.24,4.3,26.38,8.9,39.6,13.24,6.36,3.66,12.65-3.67,3.88-6.29-11.92-3.67-23.38-10.2-35.57-12.67-2.09-.27-4.69,2.55-4.32-1.9.27-3.29-2.2-8.18,4.71-8.69C694,1190.23,748.12,1188.15,731.92,1179.08Zm-55.51,13.7c-.88,19.7-36.69,18.46-34.88-2C640.9,1170.09,678.79,1169,676.41,1192.78ZM529.62,1020.26c-17.88,5.25-33.75,14.65-49.75,23.81-1.57.9-3.74,2-4.69-.16-1.36-3.05-6.83-3.53-5.41-7.85,3.5-10.7,7.56-21.21,11.05-31.92.67-2.06,1.43-5.1-1.45-6.73a3.59,3.59,0,0,0-5.38,1.68c-3.86,9.64-7.43,19.4-11,29.15-.68,1.84,1.18,5.35-1.74,5.47-6,.23-16.12,1.34-17.37-1.3-6.22-13.15-10.18-27.37-14.71-41.28-.76-2.34.47-6.46-3.3-5.83a6,6,0,0,0-4.81,7.59c3.66,12.29,7.77,24.45,11.52,36.72.91,3,2.56,7,1.35,9.07-2.53,4.32-5.41.35-8.27-1.12-6.42-2-33-20-36-12.82-1.73,2.64.85,3.45,2.42,4.34,10.41,5.91,20.77,11.93,31.38,17.45,2.33,1.21,3.93,1.75,3.5,4.67-1.58,8.47-22.57,4.42-29.64,6,0-.23,0-.46,0-.69-12.9.8-25.8,1.67-38.71,2.35-3,.15-3.55,2.64-4.91,4.36a3.15,3.15,0,0,0,1.49,1.71c20.06,4,40.23.1,60.15-.92,8.58-.44,10.07,1.4,10.66,7.24.16,1.64-4.2,4-6.78,5.6-9.4,6.84-34.46,17.13-34.11,30,8.42,1.34,32.13-20,41.94-25.06,1.33-.9,2.17-4.51,4.85-1.36,2.12,2.51,4.85,5,2.29,8.42-9.52,12.83-13.71,28.28-21,42.21-2.21,3.18,1.85,10.58,5.5,5.57,7.53-14.78,15.42-29.41,22.12-44.57,3.64-8.23,9.5,1.41,13-2.84,4.2,8.37.92,44,11,43.68,3.53.18,3.26-3.29,3.06-5.09-1.34-11.82-2.74-23.65-4.8-35.36-1.12-6.34,4.29-6.13,7.08-8.52s3.43,1,4.73,2.24c9.6,8.77,19.07,17.69,28.75,26.38,1.65,1.48,4.19,2.5,6.28.4,2.35-2.37-.82-4.66-1.51-5.36-8.33-8.47-17.1-16.49-25.67-24.73-4-3.44-8.23-8.08-2.07-11.59,13.56.63,27.2-2.21,40.73,1.1,4,.16,10.39-6.34,2.36-7.65-8.2-5.25-44.85,3.16-42.72-5.57,1-13.89,14.75-12.25,22.35-17.81,8.5-6.22,19-9.65,28.57-14.45,3.08-1.55,2.09-4.17,1.07-6.61C531.91,1017.72,530.86,1019.9,529.62,1020.26Zm-79.72,59.8c-23.66.23-22.57-38.91,1.07-38.75C478.46,1041,477.76,1084.83,449.9,1080.06ZM310.78,402.87c14.35.26,27.58,7.64,42.18,6.44,2.2-.18,4.56,1.77,6.85,2.74-2,2.13,1.51,6.1-3.84,7.71-12.48,3.76-24.62,8.71-36.79,13.47-2.26.88-6,2-4.57,5.63.67,1.7,4.29,4.09,4.92,3.68,12-8,27.61-6.57,39.22-15,5.4-3.91,4.81,1.88,6.66,3.27,2.29,1.71,2.28,3.9,0,6.53-6.24,7.08-12.59,14.19-17.59,22.12-1.64,2.6-7.17,5.53-3.46,10.19,2.43,3.05,5.09.91,6.73-1.07,6.17-7.42,11.68-15.44,18.31-22.41,2-2.13,2.68-7.31,7.56-6a11,11,0,0,1,3.69,2.16c-4.92,10.1,1.11,21.31-3.34,31.64-1.22,2.83-2.61,8.49,2,10.64,11.26,4.33,4.87-42.74,12.9-43.42,2.85-.36,7.46-1.18,8.42.21,7.25,10.48,15.29,20.49,20.56,32.3,1.42,3.18,4.74,7.31,8.7,4.95,6.89-3-18.65-37.51-22.27-42.42-2.08-2.65,1.74-3.93,1.73-6.22,6.89-4.22,34.23,15.8,39.72,7.52,2.64-4-1.85-3.73-3.81-5.24-6.93-5.3-15.34-6.63-23.17-9.57-2.5-.93-7.17-.06-6.93-4.92.08-1.61-1.57-4.21,1.78-4.75,11.48-1.84,21.95-7.75,33.83-8.31,1.85-.09,6.77-.28,6.13-4.82-.61-8.46-31.31.78-37,2.64-2.06.79-6.05,2.85-8-.61s-6.15-6.91-2.47-11.78c4.74-6.28,9.32-12.69,14.2-18.86,1.71-2.18,3.3-4,1.58-6.84-2.27-3.79-4.16-.22-5.65.57-9.1,4.81-12.53,14.56-18.43,22.14-4.7,6-7.92-1.63-12.32-.61-3.5.81-.63-2.51-.49-3.77.65-12.62,1.14-28.61-8.83-37.62-6.31,8.52,4.67,30.28.2,43,0,.21-1.89.54-2,.3-6.95-11.56-18.59-18-28.48-26.38-5.41-7.58-11.91,1.05-5.93,5.95,7.45,7.27,15.47,14,23.12,21.05,1.18,1.1,5.16.83,3.12,3.8-2.46,3.6-2.65,9.34-9.85,8.77a294,294,0,0,1-44.46-7.35c-2.62,2-6.49-2-7.77,2.83C306.53,400.32,308,402.82,310.78,402.87Zm59.14,12.34c.53-7.73,5-18,15.35-16.37,13,0,19.36,6.27,19.31,16.25C405.94,439.35,369.26,437,369.92,415.21Zm79.87,291.66,3.12,1.66c-1,1.75-1.71,3.91-3.17,5.18-11.07,9.59-18.27,21.6-22.74,35.4-.79,2.45-2.81,2.12-4.53,1.88C408.33,748.61,440.28,703.62,449.79,706.87ZM295.47,562.75c10.73-8.09,21.25-16.46,31.81-24.76,2-1.59,2.12-3,.37-5.36-2.06-2.77-3.18-1-4.73,0l-37.56,25.8c-.35-1.7-.46-3-3.07-3.82-16.4-3-4.45-10.77-3.37-28.08,1.47-6.91-5.09-9.45-7.73-2.18-1.81,5.85-3,11.91-4.23,17.92-.51,2.42-3,4.17-1.56,7.4.76,1.73-10.9,3.53-12.36,1.79q-11-13.07-22.35-25.82c-.59-.67-3-2.94-3.26-.86s-3.84,3.34-1.38,6.43c6,7.53,10.77,16.18,17.43,23s-2.16,8.75-2.71,13.14c-.4,3.2-4.23,2-5.26,1.35-5.15-3-11.54-.67-16.67-4.82-2.35-1.91-7.28-.72-11-.6-3.14,5.55,2.69,8.06,7.41,8.7,7.12,2.23,14,5.49,21.68,5.06,1.94-.1,2.29,1.2,2,2.6-.37,1.75,1.39,4.14-1.29,5.2-10.33,4.08-20.82,7.78-30.93,12.33-3.23,1.45-9,1.95-7.82,8-.2,7.66,26.81-9.48,32.48-9.31,3.47-.93,8-6.84,11.62-1.53,3.81,5.55-3,7.52-5.38,10.92-1.66,3.94-18.27,21.36-13.67,23.22,1.83.92,5.7.83,6.82-.43,6.41-7.27,12.41-14.92,18.15-22.73.93-1.27,1.39-3,2.85-2.06s3.27,3,3,4.25c-2.29,11.31-5.07,22.51-7.53,33.79-2.09,5.62,2,13.31,7.48,6.81,3.07-11.74,5.68-23.59,8.36-35.42.49-2.19-1.07-5.07,3-5.7s5.71,1.61,6.79,4.68c2.66,4.62,8.28,34.07,14.52,29.5,1.47-.62,3.07-4.14,2.58-5.69-2.76-8.73-5.48-17.59-9.59-25.72-2-3.88.18-4.73,1.57-6.89,2-3.13,3.68-.51,5,.33,6,3.87,11.53,8.49,17.75,11.91,5.14,2.83,11.4,12.09,15.4,6.73,4.33-5.8-6.41-8.71-10.24-13.2-6.37-7.46-24.06-8.54-14.94-25.43,1.53-2.83,2.67-2.36,4.43-1.47,5,2.84,28.83,7,29.47-.49-.06-1.47-2.63-4.08-4-4.06C318.13,577.3,282.56,574.56,295.47,562.75ZM267,598.15c-25.13-.78-27.08-34.87-3.11-38.39C291.56,556.55,294.74,596.5,267,598.15Zm-6.74,778.44c-5.18-3.79,6.7-7,8.13,2.29a273.85,273.85,0,0,0,37.19,74.74c4,5.72-1.24,6.72-2.57,9.8C290.56,1457,255.57,1389.79,260.23,1376.59ZM180.8,1489.2c-10.52-12.81-21.85-25.07-30.08-39.66-4.15-9.37-38.09-61.9-26.65-66.19,2.6-1,4.13,1.35,4.93,3.57,8.3,22.92,20.41,43.83,34.44,63.56,12.72,17.88,26.66,34.8,43.4,49.24,2.11,1.83,2.8,5.32,4,8.13,0,.13-2,1.07-3.35,1.79A70.37,70.37,0,0,1,180.8,1489.2ZM80.44,1592.83c1.3,1.18,1.68,3.36,2.49,5.08-12.16,5.83-21.81-8.66-28.66-15.28-7-7.46-42.2-46.39-33.16-54.86,3.1-2.29,3.93,1.66,5,3C43.48,1552.22,57.74,1576.38,80.44,1592.83Z"/></g></g><g id="Red_Japanese_Frames" data-name="Red Japanese Frames"><path class="cls-8" d="M0,20V1580a20,20,0,0,0,20,20H956a20,20,0,0,0,20-20V20A20,20,0,0,0,956,0H20A20,20,0,0,0,0,20ZM924,1548H52V52H924Z"/><path class="cls-9" d="M952.1,15.41,928.69,38.83A4,4,0,0,1,925.86,40H50.14a4,4,0,0,1-2.83-1.17L23.9,15.41A2,2,0,0,1,25.31,12H950.69A2,2,0,0,1,952.1,15.41ZM40,1549.86V50.14a4,4,0,0,0-1.17-2.83L15.41,23.9A2,2,0,0,0,12,25.31V1574.69a2,2,0,0,0,3.41,1.41l23.42-23.41A4,4,0,0,0,40,1549.86ZM936,50.14V1549.86a4,4,0,0,0,1.17,2.83l23.42,23.41a2,2,0,0,0,3.41-1.41V25.31a2,2,0,0,0-3.41-1.41L937.17,47.31A4,4,0,0,0,936,50.14ZM925.86,1560H50.14a4,4,0,0,0-2.83,1.17l-20,20a4,4,0,0,0,2.83,6.83H950.69a2,2,0,0,0,1.41-3.41l-23.41-23.42A4,4,0,0,0,925.86,1560Z"/></g></svg>