<svg xmlns="http://www.w3.org/2000/svg" xmlns:xlink="http://www.w3.org/1999/xlink" viewBox="0 0 976 1600"><defs><style>.cls-1{fill:none;}.cls-2{fill:#f4f3ef;}.cls-3{clip-path:url(#clip-path);}.cls-4{fill:#6060bf;}.cls-5{fill:#50b271;}.cls-6{fill:#592116;}.cls-7{fill:#992d17;}</style><clipPath id="clip-path"><path class="cls-1" d="M960,22V1578a6,6,0,0,1-6,6H22a6,6,0,0,1-6-6V22a6,6,0,0,1,6-6H954A6,6,0,0,1,960,22Z"/></clipPath></defs><g id="Paper_Backing" data-name="Paper Backing"><path class="cls-2" d="M960,22V1578a6,6,0,0,1-6,6H22a6,6,0,0,1-6-6V22a6,6,0,0,1,6-6H954A6,6,0,0,1,960,22Z"/></g><g id="Wikipedia_Cropped" data-name="Wikipedia Cropped"><g class="cls-3"><path class="cls-4" d="M449.22,1431.25c-27.38-3.77-17.54-50-9.86-68.3,3.53-8.19,2.1-24.11,13.21-26.61C480.08,1356.88,491.19,1420.53,449.22,1431.25Zm120.4-121.31c-7.68-1.22-47.15-1.9-44.78-16.72,22.37-22,81.38-52.58,87.58-6.5C609.37,1306.17,585.92,1309.4,569.62,1309.94Zm-195-6.94c-17.59-1.31-36.18,4.37-50.6-10.56-13.22-9.71-14.68-36.42,6.39-38C347.68,1253.33,420.47,1303.51,374.65,1303Zm12.57-98.18c-21.49,3-90-24.25-47.58-43.3C365,1155,450.08,1204.57,387.22,1204.82Zm184-1.57c-19.79-1.16-45.46-3.07-51.85-19.29C576.17,1128.9,651.48,1196.51,571.23,1203.25Zm-402.44-64.14c-28.94-3.84,1.91-70.87,14.28-74.48C201.93,1079,197.16,1132.39,168.79,1139.11Zm229-48c-25.23,2.52-88.07-33.34-46.69-48.21C378,1042.31,464.1,1089.32,397.78,1091.13Zm186.92-9.85c-9-.78-58.6-4.85-42-18.53,13.72-10.65,27.3-20.7,46.88-20.52C638.65,1037.85,627.56,1085.67,584.7,1081.28ZM292,1067.43c-24.48-2.54-45.7-18.77-63.79-33.4-6-11.83,18.15-10,25.21-11.34C273.67,1019.7,331.82,1053.92,292,1067.43Zm-184.35-84c-28.29-2-32.09-35.37-2.93-38.64,12.88-3.9,68.4-5.44,55.91,15.1C146.22,974.48,128.36,982.42,107.66,983.46Zm302.68-22.09c-22.49-2.64-45.28-3.87-64.45-21.22-9-8.71-10.75-22.83,6.95-23.21C371.26,911.28,464.7,961.29,410.34,961.37Zm180.12-.49c-14.91-1.53-30.27-3.21-44.81-8.33-16.29-12.38,27.1-25.48,39.92-26C619.68,920.45,625.69,957.47,590.46,960.88Zm-285.59-3.53c-21.59-3.52-41.53-12.81-56.38-21.69-27-15,14.93-23.35,28.52-19.76C296.19,912.64,341.1,947.65,304.87,957.35Zm492.41-27.5c-25.61-12.14-26.84-57.9-17-80.41C807.71,861.78,828.85,916,797.28,929.85Zm-132.2-40.76C630.51,876,693.44,829,713,839,715.15,861.82,690.78,885.21,665.08,889.09ZM130,865c-67.54-12.46-7.08-50.47,45.64-29.48C198.59,850.76,142.14,867.63,130,865Zm765.42-5.65c-28,1.53-46.33-18.67-63.5-36-10.74-9.9,14.39-9.39,19.58-9.59C874.2,808,937.89,847.48,895.45,859.31Zm-303.22-.47c-95.55,3.88-.48-44.28,30.87-25.81,16.93,19.28-16.06,26.7-30.87,25.81Zm-283.92-8.12c-15.82-.32-31-5.89-45.92-16.45-20.5-13.27,13.82-24,25.49-23.44C310.12,806.39,345.68,849.17,308.31,850.72Zm104.57-7.91c-78.93,1.67-90.5-99-19.18-37.22C399.08,813.41,431.42,836.93,412.88,842.81ZM644,786.26c-60.72-10.89,29.26-60,40.3-32.11C679.91,770.94,659.26,787,644,786.26ZM326.8,762.76c-18.5-1.71-28.31-21.45-35-34.7C288.25,689.81,376.5,754.22,326.8,762.76ZM875.15,743c-23.36-3-52.77-8-67.18-27.44,15.35-17.22,55.22-17.1,76.75-6.24C904.09,718.46,896.46,744.51,875.15,743Zm-319.23-3.76C507,738.4,616.09,674,613.49,717.63,610.29,742.09,574.13,735.38,555.92,739.26Zm-121.83-16c-85.37,6-97.4-84.85-39.66-53.63C406.55,677.85,447,708.85,434.09,723.28Zm384.17-98.06c-65.71,4.75,7.22-47.35,33.93-41.74C909.87,596.38,846.36,627.61,818.26,625.22Zm-385.1-8.38c-45.79,5.48-81.27-79-24.73-50.77C418,573.57,458.85,616,433.16,616.84Zm14.3-105.76c-26.25,3.14-78.92-54.8-43.27-71.51C421.29,435.28,462.92,501.69,447.46,511.08Z"/><path class="cls-5" d="M153.73,744.94c-25.69,1.32-21.26-61.67-8.06-77.7C177,663.89,174.82,732.49,153.73,744.94ZM660.68,618.75c-43.25-11.57-74.21-132.57-16.13-128.44C677.65,517.29,698,589.87,660.68,618.75ZM236,618.37c-25.34-5.7-35.35-36.43-35.08-58.61,1.48-2,2.53-5.81,4.89-6.42,6.33-1.15,1.74-12.87,9.66-10.48,30.27,12.76,31.72,38.39,34.09,64.92.44,5.79-7.36,3.11-9.05,7.57A5,5,0,0,1,236,618.37ZM75.37,576.18c-13.45-24.32,51.82-56.64,73.18-50.25,14.3,15.15-6.62,35.13-22.43,41.83-12.33,5.5-25.86,7-35.25,7.73C84.91,571.24,81.16,572.65,75.37,576.18Zm224.12-17.52c-39.45-8.57-88-117.73-37.1-114.73C297.93,461.62,326.78,526.51,299.49,558.66Zm231.29-56.87c-22-14,22.42-105,45.43-79.34,14.42,20.36-9,59.44-26.48,74C542,502.12,540.41,494.11,530.78,501.79ZM714.39,462.4c-21.31,0-39.29-13-62.37-31.43-14.27-33.71,33.39-23.89,53.8-11.41C728,429.84,748.62,464.53,714.39,462.4ZM141.54,442c-15.36-.74-17.46.41-18.83-14.22,1.86-28.33,67.69-57.93,90.79-39.63C222.15,420.63,169.77,442.16,141.54,442Zm198-8.72c-58.44-26.05-46.16-116.64-3.3-58.78,9.11,15.64,24.23,37.47,17.76,54.53C346.77,428.11,345.39,429.61,339.59,433.23Zm520.83-2.46c-30.6-12.32-43.63-53.43-41.42-87.48.28-5.56,5.62-3.7,9-2.72,3.49.22,5.26-4.15,9-3.07C866.06,339.86,891.59,420.33,860.42,430.77Zm-125.78-56c-29.57-14.5,11.4-57.63,30.43-59.21,8.28,5.38,21.41.54,13.85,18.57C771.66,355.78,753.86,367.08,734.64,374.78ZM421.25,362.91c-34.11-4.09-67.71-52.07-47.56-80.44C405.63,261.29,433.1,347.15,421.25,362.91Zm-282.17-21.7c-6.4-.27-1.91-9.62-8.13-10.78a4.05,4.05,0,0,1-1.61-6.63c21-26.46,104-64.05,106.48-21.49l0-.09C201,344.18,178.36,332.19,139.08,341.21Zm525.6-18.86c-16.43,1.61-68.12-21.09-46.25-43.82C646.86,260.93,729.51,321.11,664.68,322.35Zm242-19.7c-20.75-.77-59.06-16.33-59.21-43.45,21.09-17.82,67.75-1.57,75.08,25.15-.69,3.1.16,6.49,3.31,7.83C935.13,301.68,911.94,302.45,906.65,302.65ZM249,221.34c-82.18,3.23-31.39-52.91,18.72-51,10-.27,59.78,7.11,50.72,20.44C308,212.27,283.49,220.68,249,221.34Zm382.35-3.79c-69.12-2.22,10.11-61.67,42.67-46.21C711.58,178.62,648.8,222,631.37,217.55ZM89,215.72c-17.8-18.94,2.94-63.31,23.38-73.86,10.07,2.66,14-5.68,17.91-.25C139.93,170.63,116.16,209.08,89,215.72Zm766.27-37.4C835.9,178.32,821,168,803.8,156.1c-14-8.8-10.69-5.94-9.66-19.86-1.71-19.23,32.86-5,43.75-3.46C861.07,136,895.09,180.14,855.23,178.32ZM233.09,144.53c-28.3.23-56.26-56.74-27.91-71.11C231.24,76.81,257.37,127.59,233.09,144.53Zm353.2-3.38c-22.07-1.37-48.21-13.36-60.52-29.53-3.2-6.31,7.16-5.7,6.81-11.47C555.68,72.08,666.09,139.67,586.29,141.15Zm-228.9-13.1c-27.78.07-51.63-9-65.44-25-3.87,0-5.41-5.49-2-7.41C328.91,63.19,450.44,114.79,357.39,128.05ZM92.44,93.73c-59.18-2-28.19-44.11,14.79-40.15C163.76,59,130.07,94.17,92.44,93.73Z"/><path class="cls-6" d="M926.76,275.17c-19.7-29.39-54.22-39.1-87-24.43-2.83,1.27-3.54,6.13-8.33,4.15A130.27,130.27,0,0,0,785.56,245c-2.54-.08-3.47-1.61-4.56-3.64-23-43.54-45.23-84.11-75.29-124.53,19.93,8.48,38.82,12.61,57.12,18.54,8.76,2.84,20.7.7,24.76,13.24a16.35,16.35,0,0,0,6.16,8.05c20.35,13.29,38.75,31.28,66.45,27.13,14,.19,24.2-9.2,17.19-23.36-8.48-15.32-18.88-27.63-36.75-33-18.49-5.55-36.4-11.41-55.56-2.81-2.12,1-1.48,5-6.18,3.46-17.69-5.65-36.08-9.2-53.52-15.44-12.29-3.93-24.88-1.15-33.08-14.64-18.84-29.79-42.9-56.2-58.1-88.52-1.41-3-4.84-5.92-9.05-3.95-4,1.86-1.1,4.48,0,6.45,25.37,50.35,61,94.5,91.4,141.36-6.76.42-11.8,3.46-17.77,6.21-6.37,2.09-11.7,8.17-18.89,6.63a74.25,74.25,0,0,0-69.6,17.19c-9.46,7.92-18.82,18.59-10.93,31.92,5.5,9.3,17.1,7.55,27,8.24,26.31,1.86,57.79-14.68,64.57-41.45,3.42-15.24,16.19-18.16,27.27-25.26,25.07,35.34,42.61,75.13,63.94,112.73,6.11,9.88,18.9,21.17.4,33.29-9.35,7.72-13.78,4.73-23.46,7.43-23.64,11-50.28,36-40.68,64.88,3,5.15,8.87,7.93,14.58,5.75,13.49-5.13,26.83-10.19,38.1-20.31,31.9-28.15-1.21-45.8,27.72-60.71,3.73,14.77,19.87,24.26,14.91,43.5-3.39,13.19-.93,27.95,2.89,42.07C823.16,410,842.21,441.49,871,437c8.36-3.41,6.27-13.38,7.78-20.44,2.7-12.57,1-25.36-1.53-38.07-4.18-21-15.2-36.41-34.51-45.67-5.07-2.44-13-2.73-15.27-6.58-13.91-23.82-27.93-47.83-40.19-72.51A118.21,118.21,0,0,1,811,259.26c40.76,7.61,14.33,12.7,56.72,37.93C887.41,314.39,955.39,318.37,926.76,275.17Zm-125.84-144c12.6-1.69,24.13,3,36.14,5.56,14.79,3.61,24.17,14.08,32.28,25.47-12.49-5.28-24.42-9.9-36-15.33-11.37-5.35-23.38-8.54-35.32-12.06-.48-.14-.68-1.25-1-1.91C798.33,132.27,799.57,131.31,800.92,131.13Zm68.61,41.09c-29,8.39-48.93-10-73.43-26.21C824,152.33,846.29,163.71,869.53,172.22ZM607.34,204.44c3.94-19.9,43.68-34.3,63.63-30.56C648,184.64,628.5,195.64,607.34,204.44Zm74.76-23.82c-14.59,25.3-39.3,36.52-68.52,32.29,24-12.77,44.39-22.54,67.14-35.63C683.1,176.86,683,179.14,682.1,180.62Zm45.57,182.84c-2.08-14.89,26.17-45.94,38.71-43.78Zm46.63-28.88c-6.19,15.9-17.47,27.16-34.1,32.36-2.54.8-3.08,5.12-7.32,3.46,11.51-13.3,22.74-26.3,34-39.27,2.68-3.1,5.68-9.09,9-7.4C779.61,325.65,775.53,331.45,774.3,334.58Zm65.77,7.48c28.94,16.87,30.2,48.94,28.78,80.16-9-30-21.61-54.81-33.5-80.81C836.94,341.6,838.77,341.35,840.07,342.06Zm21.42,82.82c.27.58.62,1.11.93,1.66-.94,0-2.11.46-2.8,0-29.78-18.39-37.69-48.88-36.62-83.4C837,372.92,849.24,398.9,861.49,424.88ZM904,266.53c3.89,3.26,15.16,12.84,14.57,18-22.92-5.76-44.49-17.22-67.08-25.15C869.85,253.79,887.74,255.3,904,266.53Zm-52.21,4.4,72.45,24.9C895.48,304.82,874.7,291.21,851.74,270.93Zm-2.4,537.5c-9.56.19-18.67,5.61-27.42,4-14.28-2.65-27.89-8.09-41.6-12.95-3.5-1.24-8.37,2.11-10.64-4.87-6.56-20.15-11-41-19.9-60.46-1-2.24-6.36-9.17-.28-10.73,16.79-3.32,36.81-4,53.43-1C824.5,741.69,852,751.54,881,748.89c52.5-4,16.69-77-63.86-46.83-7.12,2.55-11.94,9.88-19.79,9.88-13-1.21-26-.7-39-.43-5,.07-11.55,6.2-15.37-1.43-9.15-18.26-15.06-38.12-27.83-54.44,20.41-4.22,38.88-12.95,58-19.77,6-2.13,10.53-8.72,17.87-6.37,22.36,6.79,93.1-2.3,93.36-31.78-.33-12.41-12.11-18.91-23.29-20.46-36.43-5.49-64.75,17-82.57,45.72-8.72,3.53-69.78,30.16-72.5,22.17a93,93,0,0,0-24.42-24.89c-14.5-4.88,19.72-31.9-2.58-89.57-5.94-23.57-23.26-43-45.45-50.86-10.75-21.95-13.52-47.8-19.62-71,33.39,13.43,23.6,10.22,45.16,35C679,459.71,699,471.1,725.47,467.2c8.69-1.28,19.2-10.74,16.6-16.28-14.51-33.73-51.33-58-88.52-48.26-6.13,1.47-8.85,12-17.67,6-4-2.7-9.76-3-13.39-6C618,399.25,611,404.09,609,396.5c-11.71-43-27.76-84.16-43.85-125.77,6.06-.31,10.1,3.36,13.84,6.23,9,6.72,22.84,3.77,28.73,17.57,10.34,24.25,56.26,48,83.07,30.58,7.67-5,12.57-10.29,5.29-19.09-17.33-20.81-41-41.3-70.21-33.74-6.28,1.68-11.44,7.91-18.21,5.88a103.05,103.05,0,0,1-22.6-9.41c-9.44-5.4-23.26-3.11-27.45-16.06C535.72,199.85,514.09,146,488,95.57c.61-.1,1.38-.48,1.8-.24,4.77,2.79,9.91,3.49,15.37,4,18.83,2,4.1,15,36.55,33.2,18,13.08,65.21,23.62,81.36,6.53,7.55-12.89-4.82-19.17-11.35-25.56C594.44,97.08,568.68,83.2,544,88.91c-9.52,2.24-18.07,9.31-29,3.85-11.17-6.42-34.37-4.39-40-16.76-9.78-21.84-23.31-41.47-36.61-61.21-3-4.4-6-14.11-10.55-10.87-5.72,4,2.67,9.93,5.06,15,9.45,20.12,19.19,40.12,27.95,60.54,3.28,7.63,19.43,16.25.17,24.54-8.06,4-15.73,15.1-25.51,12.39C374.32,106.18,401.31,79,330.36,77.17c-14.85-.85-29.16,3.83-42.49,10.17-26.17,10,5.06,27.51,17.2,35,19.33,9.09,38.7,13.59,60.81,11.57,16-1.46,28.68-15.12,44.92-13.6,7.08,1.32,14.33,3.82,21.83,4.24.05,0,.12,1.95-.27,2.16-5.89,3.12-8.83,9.49-13.76,13.17-10.26,7.68-17.19,18.15-25.88,27.07-5.3,5.43-8.32,14.74-16.38,15.69-7.72.91-15.5,1.34-23.3,1.6-9-.5-19.33,2.22-27.83-.35-10.19-11-24.06-15.72-37.66-18.5-27.41-5.61-53.83-1.13-75.94,17.09-9.15,7.53-24.37,14.65-16.26,30.59,5.21,10.24,19,12.57,28.39,13.2,30.45,2,61.64,4,87.73-18.32,4.87-4.16,8.09-11.64,14.36-12.49,13.22-1.79,26.73-1.71,40.07-2.34,8.73-.77-4.67,10.93-5.95,13.85-10.33,13.59-20.57,27.26-31,40.78-6.62,8.59-9.08,21.84-22,23.47-25.59-.07-48.25,16.2-75.1,10.21-21.91-5.82-43.79-3.2-65.07,7.09-15.72,8-52.9,29.46-47.15,49.19,10.55,15.11,44.47,3.72,60.66,3.51,21.59-2.31,38.19-13.19,52.86-28.31,5-5.14,5-15.64,9-17.07,22.29-7.83,45.3-13.5,66.42-19.44-13.07,20-26.28,41.67-40.94,62.27-9.6,13.49-9.62,34.5-30.28,39.58-7.2,1.77-15.47,9.41-21,5.84-30.83-20.11-88.94,8-102.82,39-6.06,12.41-5.18,24.2,11.44,22.09,31.49,1.08,65.75-.17,84.66-30.14,5.9-8.94,6.72-22.74,20.87-25.07,3.05,0,12.07-6.31,10.12.26-14.37,30.45-30.77,59.87-44.06,90.85-5.46,12-4.72,28.2-19.72,34.73-4.94,2.15-9,7.64-14.4,7.64-18.14-5.06-36.24-4.27-52.47,4-15.14,7.34-29.84,16.3-40.2,30.87-6.1,8.58-7.8,20.79-1,22.78,26.31,6.78,77.17-5.12,85.8-33.84,3.64-13.15,12.12-19.5,24-22.83-10.31,33.37-20.95,67.84-26.14,103-1.75,12.2-.56,25.81-11.81,35.83-5.75,5.12-8,13.61-9.8,21.54a99.36,99.36,0,0,0,.29,45.38c2.29,9.64,7.7,19.39,16.66,23.39,9.87,4.41,13.28-6,18-12.47,13.82-18.74,12.9-39.23,8.42-60.57-2.13-10.13-13-17-12.62-26.27,2-45.38,15.3-90.62,32.19-132.26,14,23.59,4.51,29.72,4,54,1.36,22,16,43.92,37.27,48.48,6.66,1.43,16.18,2.3,18.16-9.31,1.44-8.45-.89-16.41-1.89-24.52-2.68-21.61-8.82-41.11-31.92-50-9.22-3.54-23-26.42-20.24-32.68,10.64-24.42,21.44-48.76,32.21-73.13.88-1.95,2.37-3.32,3.26-1.86,2,6,5.49,11.17,3.47,18.55-8.19,37.16,10,84.58,42.39,104.89,16.79,8.38,14.26,11.93,6.41,26.75a1485.36,1485.36,0,0,0-70.08,229.6c.48,22.42-38.21,19.27-53.26,14.3-24.27-10.94-88.17-4.6-64.48,35,15.62,16.54,61.21,8.9,75.42-6,9-9.48,18-17.12,31.44-19.22,6.26-1,5.69,2.05,4.76,5.18-2.94,9.86-4.44,19.9-5.93,30-2.72,18.56-7.31,36.87-9.39,55.47-.67,6-2,15.75-3.75,16.32-5.65,1.77-13,4.14-18.86,4.27-2.81.06-5.28-.38-7.08-1.64-20.72-15.93-78-18.39-88.27,8.75-8,54.39,67.73,34.23,87.69,5.12,6.32-7,16.33-2,24-5.16-.35,23.1-4.72,46.86-6.35,70.17-1,9.8,1.79,22.07-3.12,29-13.6,19.18-25.77,38.31-28.1,62.23-1,10.37-4,22.07,8,28.18,35.37,13.26,47.87-44.25,38.1-68.45-4.24-14.61-14.36-27.69-7.8-44.08.68-1.7,1.66-4.89,2.09-4.82,3.55.55,7.51.67,11.26,1.07,4.29.46,8.3,1.31,11.07,3.61,21.29,17.74,43.16,34,70.09,42,18.17,8.06,35.24-12.88,24.79-30.08-13.86-22.21-41.27-28.35-65.55-26.8-13,2.23-25.49,9-39.61,3.8-6.56-2.25-11.93-4-11.42-9.5,5.9-24.52,6.2-51.46,12.77-76.31.53-2.46-1.26-9.8,8.37-7.3,10.88,2.82,20.14,6.18,29.7,12.67,14.73,10,31.19,17.73,49.28,21.29,20.27,6.49,41.31-5.49,30.9-27.35-13.72-24.05-52.91-31.94-77.06-20.82-9.63,4.57-19.53,5.31-29.71,5.2-15.64,1.22-3.79-19.72-4-28.58,2.8-15.93,4.84-32,8.67-47.71,1.06-4.32-1.79-13,6-13.15s17.27.11,22.73,4.4c14.55,11.43,30.86,17.35,48.1,22.82,16.25,5.16,33.87-4.72,32.39-21.42-1.16-13.12-12-19.86-22.4-26.29-13.66-8.46-39.09-3.15-52.77,9.42-9.57,8.79-18.13,1.53-26.75.09-4-.67.13-6.55.55-9.68,2.81-31.47,15.18-60.54,24.15-90.45,1-3-2.41-15.24,8.88-9.08,7.84,4.28,18.61,8,21.91,14.85,8.23,21.08,29.81,57.62,56.95,39.78,23.3-21.78-18.83-53.5-41-52-23.39,2.15-17.14-4.73-36.83-13.67-1.34-1.09-5.64.46-4.35-3.65,13.72-43.13,26-87.41,44.78-128.58,27.68-39-1-128-53.23-126.91-4.36.27-14.77-9.7-13.19-15.67,4.17-8.86,8.68-17.75,13.45-26.1,12.54-22,21.69-45.91,37.22-66.09.78,1.35,2.15,2.73,2.34,4.25.89,7.13,10,12.29,6.36,19.84-3.41,7.14-3.61,15.08-2.76,21.41.52,42.87,66.63,93.86,67.2,45.4-.4-22.76-17.88-54.75-37.07-67.4-7.62-4.91-19.68-3.82-22.16-16.06-.75-6-10.44-11-7.41-17.37,20.27-30.13,39.53-61.68,62.08-90,4.06,6.95,5.38,15.16,7.91,22.76,2.11,7.43,7.57,16.31,5.31,22.12-5.84,14.95-6.95,29.44-2.85,44.33,4.31,15.66,11.13,30.31,25.85,39.08,6.76,4,14.67,6.13,21.53,10,8.22,4.64,14.11.24,14.92-8.35,2.06-29.31-7.88-68.19-34.82-83.65-4.7-2.79-12.93-3.12-14.65-6.85-6.68-14.44-11.46-29.79-16.73-44.85,10.9-27,36.4-49,55.13-71.56,17.28-17.29,35.82-37.85,58.2-47.85,3,6.45,7.66,12.95,8.08,19.69,4.25,53.22.51,106.61.73,159.84.93,62.09,4.79,124.22,1.72,186.26-.1,3.44,2.46,7.42,1.4,10.28-2.76,7.52.24,14.91-.85,22.41-1.32,9.09-.31,18.5-.31,29.5-2.47-2.79-3.29-4.49-4.62-5.11-19.1-8.51-25.83-29.4-32.76-47.23-8.25-19.42-28.32-60.52-54.09-47.72-21.19,14.72-5.9,46.37,8.49,60.4,8.86,9.24,19.05,17,32.32,20.85,6.91,2,14.37-1.76,20.11,3a148.88,148.88,0,0,1,18.87,17.93c3.38,4,11.06,3.77,11.15,9.7-.88,31.87,3.32,64.49-2.38,95.9-9.56-10.65-28.2-17.59-34.62-29.14-8.76-22.86-36.67-70.34-65.42-59.56-7.05,4-12.08,9.74-11.6,19.41,1.87,23.32,28.63,49.06,53.5,49.21,12-1.54,23.13-2,31.4,10.15,10.65,12.92,31.13,15.5,28.86,37-2.26,26-4.74,50.73-5.74,77.23-8.53-10.18-19.18-16.08-28.55-23.57-9.06-7.24-12.89-18.4-18.66-28.1-10.78-16.11-41.07-43.08-61.75-40.29C348.24,658.26,344,688.19,359.91,703c20.41,20.38,45.2,27.31,73.69,24.31,16.86-1.78,25,13.59,36.45,21.94,4.22,3.07,11.69,3.68,11.09,12.65-2.34,34.85-3.88,69.75-5.76,105.28-9.19-5.57-18.82-11.53-28.57-17.26-5.13-3-11.84-4.48-15.45-8.7-16.18-22.91-32.27-46.39-58.14-59.56-39-20.2-44,28.68-20.23,46.12,15.85,12,33.18,18.42,53.13,20.34,6.6.63,13-3.62,19.61.52,10.64,6.65,22.16,11.95,32.59,18.89,8.07,5.38,19.12,7.47,17.15,23-3.69,26.78-2.59,54.2-5,81.12-14.93-10-31.4-17-45.18-30-18.67-18.45-42.4-30.07-70-31.14-8.33-.32-15.81-.13-20.56,7.84-13.59,32.19,53,50.44,77.76,47.52,16.9-2.89,33.18-.8,47,10.73,3.61,3,10.7,2.82,10.14,9.8-1.41,17.52-3.41,35-4.57,52.53-1.1,16.47-1.37,33-2.2,49.48-.08,1.51-1.6,2.94-2.46,4.41-9.36-6.06-22.62-4.61-29.68-14.81-5.8-8.39-12.85-15.65-21.48-20.48-19.09-9.46-57.73-35.22-75.33-13.79-5,8.06-5.64,18,2.48,26.15,16.35,17.34,40.36,27.65,64.23,26.64,29.21-6.26,26-8.85,53,3.59,6.67,1.52,7.78,4.81,7.4,10.63-2.13,32.42-4.08,64.86-6.06,97.29-.14,2.42-1.3,3.54-3.53,2.58-8.32-3.62-17.45-6.2-24.64-11.43-9.55-6.93-16.78-17.08-26.4-23.86-16.73-11.78-35-20.48-56.26-21.2-8.35-.28-16.07,1.22-20.64,7.78-22.72,33.27,42.54,48.49,65.44,47.93,30.73-3.21,32.92-6,61.57,9.54,1.28.58,3,1.12,2.89,3.85-1.4,24.52-2.24,49.08-4.06,73.56-.23,3,4.18,11.58-5.63,9.84-9.14-1.63-18.25-3.52-27.26-5.77-7.11-1.77-16-2.22-20.66-6.79-20.06-19.3-45.76-53.21-77.49-42.09-18.87,10.75-10.09,41.37,7.1,49,17.42,9,35.86,9,54.91,6.5,5.65-.75,10-6.3,15.49-4.18,12.76,4.94,26.37,6.17,39.33,10,6.6,1.39,16.84,2.08,13.9,12.26-1.05,4.51-6.28,7.93-7.87,12.46-6.94,19.66-13.82,39.33-17.57,60-1.7,9.35,6.15,33.41,14.05,37.12,17.77,8.33,40.71-4.9,43.57-24.6,1.78-12.32,2.81-24.32,0-36.71a80.08,80.08,0,0,0-22.61-40.52c-6.22-5.65-4.59-17.47,5-16.44,17.74-2.68,35-11.21,52.87-13.44,11.76-1.68,22.38,6.2,33.66,9.29,18.41,5,35.67,2.09,52.49-4.5,14.21-5.57,16.78-18.69,14-31.56-3-13.64-15.48-18.74-27.63-19.29-19-.86-35.24,8.44-50.25,19.24-7.81,5.63-14,14.52-22.59,17.81-15.71,6.06-32.56,9.22-49,13.23-3.53.86-8.76,6.71-8.6-4.86.41-29,6.87-57.37,6.6-86.31a3.18,3.18,0,0,1,1.42-2.53c14.8-5.34,28.76-12.42,42.51-20a6.21,6.21,0,0,1,5-.35c26.48,15.55,61.41,25,89.81,7.54a19.85,19.85,0,0,0,8.55-18.57c-1.5-25.69-36.47-28.5-56.4-23.66-17.65,4.09-31.91,16.06-46.66,25.63-12,7.13-25.54,11.62-38.33,17.43-11.63,10.63,2.32-73.48,1.7-79.36.61-13-1.65-25.26,16.33-29.14,11-2.37,21-8.15,31.71-11.52,30.61-9.91,49.19,18.07,89,1.18,9.68-3.78,19.2-8.39,19.89-20.13-.95-42.42-63.07-29.63-84.39-9.63-11.33,12.38-10.75,15.28-27.52,20.33-13.24,4.84-26.81,8.92-40,14-4.29,1.64-2.7-.86-2.63-2.12,2.44-35.44,3.76-71,6.15-106.39-1.78-14.94,10.48-12.82,20.46-17.32,33.43-18.32,66.66,16.72,101.35,3,31.07-9.52,23.34-43-7.38-45.95-20.63,1.08-39.47,8.24-56.28,19.19-16.08,10.47-35.28,10.51-51.8,18.7-1.63,1-4.47,1.42-4.16-2.22,1.29-23.59,2.62-47.18,3.45-70.78.22-6.19,1-9.27,8.19-11.28,6.07-1.69,12.34-3.25,18.46-4.61,10-2.24,19.35-8.33,30.1-6.86,25.14,2.19,83.08,17.42,91.07-16.9,1.59-6.89-1.73-13.24-8.12-17.29-28-16.63-63.46,7.05-86.55,22-13.14,7.22-28.84,7.13-42.62,12.47-9.61,3.73-8.75-.69-8.44-7.17,1.46-30.81,2.74-61.63,4-92.45.22-5.32-2-10.06,7.74-10.77,19.12-1.41,37.94-6.22,57.36-5.86,18.15.34,36.27-.45,52.56-10,17-7.25,14-35.29-4.56-37.94-31.3-4.69-54.1,12.74-72.42,35.64-10.4,3.13-21.21,4.76-31.91,6.74-10.23,2.68-9.05-4.92-6.81-11,3.71-68.11,4.46-136.23,4.14-204.42.29-14.3,3.5-29,1.24-42.79-2-12.39,1-24.27-.75-36.5-1.55-11,1.85-22.65,1.15-33.89-3-30.62-1-61.36-1.86-92.07-2.74-60.33-.58-120.59-5.89-180.82,22.12,44.85,40.67,91.34,59.85,137.77q15.29,39.9,29.75,80.12c2.54,7.14,6.78,16.37,4.31,22.06-6.47,15-11.24,28.45-27.66,37.25-31.69,17-40.06,49-40.14,82.93,3.79,46.61,73-24.29,65.23-63.06-.32-16.13-3.61-33.3,7.16-46.81,10.82,24.7,15.81,52.46,22.72,78.66,1.65,7.52,8.88,14.81,4.49,22.49-21.34,40.44-10.57,118.83,37.92,134.82,8.25,1,17.82-.57,24,6,14.9,15.87,29.32,32.8,37.26,53,3.92,10,22.63,21.69,3.27,34.16-51.14,46.94-49.83,4.15-91.35,35.13-8.17,6.78-19,12.85-12.79,26.22,4.48,9.71,13.68,14.35,23.74,14.13,16.74-.37,36.14-7,44.42-32.57,1-3.2,2.37-7.12,4.85-8.89,13.47-9.54,27.31-18.55,41.09-27.66,2-1.34,3-.88,3.93,2q7.41,22.75,15.67,45.24c3.62,9.77,7.58,18.66-4.39,26.29-5.43,3.47-8.84,10-13.51,14.82-24.79,32.51-63.89,13-83.42,60.3-4.15,10.4,1.35,20.65,12,23,22.32,1.3,46.54-19.17,53.58-39.86,2.19-6.58,1.24-15.94,5.53-19.72,9.42-8.31,19.19-16.18,27.65-25.56,6.63-7.35,12.74-14.36,16.24,2.65,2.06,10.71,10.32,20.72,9.38,31.85-1.36,11.77-4.69,23.53-5.2,35.76-.47,18,8.46,63,32.92,56.65,32.56-13.71,14.12-59.93-1.75-80.4-23.12-21-18-12.74-24.72-44.73-3.52-7.67,34.33,7.65,38.9,7.36,4.9,1.31,9.63,3.38,13.55,8.48,8.89,11.58,20.22,21.47,32.72,30C943.79,894.79,932.26,806.44,849.34,808.43Zm-35.09-94.89c64-26.14,105.55,21.85,58.57,25.26-30.53-5.13-34.32-4.58-60.15-22.18C810.68,715.75,813.45,713.81,814.25,713.54Zm-8.66-108.2c16.39-13.47,42-25.56,61.82-12.77,6.16,6,3.74,15.66-5.52,18.14-21.71,6.86-45.77,15.54-68.59,7.76C797.37,614.07,801.07,609.22,805.59,605.34ZM654.51,427.84C682,436,705.07,446.68,729,456.2,702.64,464,682.8,450.4,654.51,427.84Zm5.19-14.61c21.2-6,60.37,13.55,68.59,34.3-24.22-13.61-50.58-21.44-76.12-31.51C654.68,415.08,657.13,414,659.7,413.23Zm27.88-102.47c-23.69-12.08-45.34-20-68-28.4C649.72,273.13,667.36,290.51,687.58,310.76Zm-5,5.07c-26.69,7.2-48.09-.94-67.71-25.23ZM613,130c-26-11.29-50.28-22.48-76.39-29.61C555.75,91.22,599.9,107.82,613,130Zm-75.79-20c24.11,7.16,47.73,19.65,72.46,23.06-13.45,4.27-27.29,6.09-41.14.94-13.75-6.08-30.74-11.79-39.27-24.56A16.71,16.71,0,0,1,537.17,110Zm-235.36-1.65,83,9C368.67,130,321.36,123.46,301.81,108.36ZM292,99c32.13-19.62,81.86-6,95.62,9C356.32,102.87,325,98.52,292,99Zm-82.33,112.9c33.94-5.35,66.75-14.2,101-14.87C296.49,214.49,252.71,224,209.69,211.93ZM249,193.14c-13.36,1.17-26,7.82-39.58,7.41C236.94,167.7,279.93,168.88,317,187,291.12,185.08,270.17,190.42,249,193.14ZM132.18,326.62c28-28.2,57.6-42.12,97.27-37C195.48,299.54,165.85,313.32,132.18,326.62Zm98.93-24.18c-24.55,30.85-55.19,28.59-92,34.77,10.38-9.29,22.11-10.33,31.78-15.76,10.56-5.92,22.71-9,34.16-13.33,9.21-2.43,18.1-9.54,27.68-8.53A13.83,13.83,0,0,1,231.11,302.44Zm-21.6,85.94L125.7,425.07C133.23,405.71,178.27,379.58,209.51,388.38Zm-82.28,47.71q41.88-18.81,83.57-37.59C207.79,421.71,157.05,444.73,127.23,436.09ZM75.37,572.18c1.95-15.54,43.62-47.84,72.43-42.32C124.16,545.91,96.82,553.92,75.37,572.18Zm15.5-.69,59.32-31.93C138,563.81,115.49,569.61,90.87,571.49Zm56.56,167.6c-12.07-8.88-11.23-50.67,1.55-69.61C149.19,693.61,144.21,716,147.43,739.09Zm15-15.08c-1.44,6.44-5,11.49-8.66,16.93,1.51-21.45-.84-44.42,5.85-64.61C167.89,691.11,165.74,708.16,162.39,724Zm83.15-115.87c-14.08-20.43-20.84-41.21-31.67-61.6C241.87,558.38,243.18,581.88,245.54,608.14Zm-38.53-51c10.22,16.13,15.42,35.24,27.41,50.66,1.31,1.92,3.93,4.22,2,6.42-23.58-5.8-29.25-30.87-32.06-52.45ZM177,844c-17,15.3-42.05,21.82-63.08,13.63-4.7-2.39-8.61-4.31-8.69-9.67,6.59-24.1,52.44-11.79,69.78-8.54C176.61,839.7,179.46,841.32,177,844ZM158.1,956.8c-48.61,48.49-98.78,3.41-52.53-8.07,18-3.88,35.17-3.94,52.21,3.91C162.08,954.62,159,955.87,158.1,956.8Zm75.47,72.44c88.3-14.22,93.29,82.16-2.81,1.51A10.27,10.27,0,0,1,233.57,1029.24Zm-44.86,52c7.27,52.64-31.78,69-27.39,39.82,2.52-15.84,6.65-31.27,15.55-45.07,1.95-3,5.64-8.17,6.47-7.2A22.77,22.77,0,0,1,188.71,1081.2Zm63.92-159.92c19.39-4,43.13-2.46,58.09,14.22,8,8.75,1.48,21.12-10.13,17.27C280,947,258.91,940,242.45,925.86,245.83,924.29,249.07,922.1,252.63,921.28Zm17-101.4c17.37-11.29,39.6-2.61,49.1,12.15,6.24,8.5,1.19,15.29-12.07,14.65C296.37,848.62,237.46,825.35,269.59,819.88Zm26-98.81c16.5-1.16,30.79,7.65,39.86,21.26,2.5,6.27,2.4,13.33-3.41,15.39C317.79,765.24,293.4,733.08,295.62,721.07ZM255.41,446.13c23.35,7.39,37.21,28,44,51.05,4.6,16,10.43,31.29,4.91,48-13.77-24.07-28-47.35-40.41-71.51-4.25-8.24-9.42-16-13.18-24.49C249.9,447.39,253.28,445.3,255.41,446.13Zm-9.57,10c17.92,34.78,33.44,67.56,53.65,98.56C261.33,536.12,243,490.13,245.84,456.1Zm68.16-98c22,14.87,35.3,41.57,38.17,67.3-1.05-.5-2.54-.72-3.08-1.56-6.69-10.24-13.53-20.39-19.72-30.93C326.79,387,310.25,361.83,314,358.15Zm-10.06,4.71c6.88,24.2,23.8,43.34,35.65,66.37C307.39,409.68,300.55,380,303.94,362.86Zm117.31-3.95c-16.19-25.83-28.63-50.91-38-77.52C415.75,296.74,415,328.23,421.25,358.91ZM374,286.46C384.54,310.25,393.31,335,410,357.87,378.53,335.81,366.49,311.19,374,286.46ZM445.56,506.9c-19.2-.52-48.64-27.64-48.46-49.48-2.33-24.32,20.82-11.8,27.72.67C428,460.8,456.09,511.09,445.56,506.9Zm-62.31,70.37c-2.32-16.83,14.28-17.31,23.62-7.33,14.19,10.79,23.94,26.65,31.85,42.49C416.79,615.75,389.2,598.36,383.25,577.27ZM371.91,699.73c-11.8-8.9-14-33.26,4.87-33.67,8.76-.17,13.85,6.43,20.32,10.46,16.52,10.27,28.61,24.53,37.22,42.77C411.56,718.05,389.59,716.11,371.91,699.73Zm42.5,138.71c-23.88-.15-50.14-8.65-62.52-31.66-4.29-5.55-4.11-19.89,6.28-17.89,21.54,5.67,37.35,22.61,50.49,39.65C411,831.57,416.27,833.59,414.41,838.44Zm-4.07,118.93c-20.25-2.84-62.06-5-66.78-31.58,11.08-18.45,72.25,16.13,81.13,30.42Zm5,127.44A75,75,0,0,1,344,1062.89a9.71,9.71,0,0,1-2.26-9.93c9.07-20.51,70.61,16.57,79,29.51C418.94,1083.28,417.24,1084.51,415.38,1084.81Zm-8.1,112.25c-.71,3-3.18,1.45-4.9,1.89-15.86,5.7-74.43-3.71-71.2-26.4,3.59-20.81,60.94,5.86,68.13,16.23C401.33,1192.09,408.12,1193,407.28,1197.06Zm-25.36,101.76c-18.52-1.38-39.78,5.55-54.93-9.09-7.16-7.75-13.45-16.72-5.77-26.45,7.34-9.28,16.76-2.87,25.28.38,16.73,6.89,28.55,20.78,41,32.83C385.63,1297.3,383.81,1298.72,381.92,1298.82Zm73.84,44.1c16.69,21.94,28.14,68.4-2.06,83.53-9.16,3.09-13.84-3.28-16.14-10.26-1.43-4.33-4.69-9-2.49-13.46-.13-15.06,4.7-28.26,9.12-41.64C445.5,1357,448.35,1333.09,455.76,1342.92ZM569.82,1270c61.52-18.56,51.49,63.88-42.32,26.17C540.05,1285.07,553.82,1275.66,569.82,1270Zm-44.76-87.12c64.52-41.15,100.64,7.36,57.71,15.93-20.34,1.32-40.24-.1-57.91-11.94C522.43,1185.66,523.27,1184.06,525.06,1182.92Zm63.16-136.66c58.45-2.46,29.64,52.12-46,21.85C556.47,1057.28,569,1046.59,588.22,1046.26ZM546.94,945.08c48.39-34.11,92-.77,43.52,11.8C585,956.12,538,951.81,546.94,945.08Zm12-98c18.09-9.14,42.41-22.42,61.87-10.72,3.42,2.32,3,5.89,2,9.15-2.32,8.06-10.57,5-12.91,6.87-18.49,5.56-34.17-.1-49.93.45-2.21.08-4.47-1.4-6.71-2.15C555.21,849.46,557.07,848.22,559,847.07Zm8.16-131.79a76.62,76.62,0,0,1,36.22-7.88c5.21.19,6.09,5.77,6.13,10.26.06,8.19-7.45,12-12.49,12.53-17.13,1.82-34.11,6.94-51,4.35C552.67,727.78,558,719.63,567.14,715.28ZM532.88,495.37a11.49,11.49,0,0,1-2,2.42c-9.49-21.48,16.22-67.9,36.38-78.21C554.93,445.93,543.64,469.3,532.88,495.37Zm14.38-2.06c-6.46,5.22-2.26-3.52-1.75-6.12,10.62-19.68,17.34-43.13,30.32-60.76C578.73,450.82,566.5,476.92,547.26,493.31Zm76.86,6.85c13.48,37.62,19.87,77.5,36.56,114.59C628,603,603.94,527,624.12,500.16Zm45.34,106.5c-.06.5-.86.92-1.32,1.37-10-36.31-16.84-73.93-30.68-109.35-.8-2.15-1-5.88.21-7.1,1.88-1.84,3.54,1.32,5.06,2.59,23.82,18.74,30.4,48.61,34.15,76.9C677.54,583.92,670.84,594.73,669.46,606.66Zm1.09,163.39c-16.47,14-31.69,16.11-41.8,5.54-2.36-2.46-2.3-4.59-.73-6.83,9.26-13.19,23.45-16.33,38.61-18.27,4.66.82,9.51,1,14.22,1.65C677.39,758.08,676.26,765.18,670.55,770.05Zm39,75.1c-4.11,29.34-64.39,58.67-47.29,24.62,5.91-12.06,16.57-18.75,29.07-22.7,5.17-1.63,9-6.45,15.06-6C709.12,841.24,711.07,839.73,709.54,845.15Zm72.27,8c18.41,15.72,34.9,44.38,22.33,67.62-1.44,3-5.3,6.14-8.54,4.74-6-2.57-8-9.25-10.26-14.67C777.38,892.42,777.62,872.67,781.81,853.15Zm123.13-2.4c-4,6.86-12.92,4.07-20.14,3.59-16.95-1.12-27.6-13.11-39.52-22.73-4.27-3.45-5.74-10-12.1-12.07,23.74-4.39,45.47-1.16,64.34,15C902.76,839,908.24,845.07,904.94,850.75ZM141.1,74.76c4.92-7.06,9.61-5,15-5.63,2.12-.24,3.53-.63,1.31,2.6-7.7,11.17-14.92,22.69-21.95,34.3-5.41,8.94-7.5,19.27-17.9,25.68-31.24,19.26-46,47.4-38.32,83.09,4,14,11.77,19.41,22.27,6.17,6.33-6.34,13.15-12.54,18-20,11.17-17.15,22.07-34.46,18.05-57-1-5.48-7-9.63-4.23-15.41a373.68,373.68,0,0,1,48.58-73.45c10.55,16.06,5.87,14.85,5.32,31.06A213.54,213.54,0,0,0,195.53,120c5.23,15.24,21.14,29.08,38,29.08,18.41,2.07,13.73-30.69,11.58-41.68-2.42-18.22-26.79-41.54-44.9-42.44-2.37-.12-12.56-16.5-11.42-18.52,4.9-13.68,37.3-35.64,33.82-46.42-3.89-7.42-18,15-21.95,17.77-9.85,11.34-20.27,22.2-28.28,35.05-3.19,5.12-27.6,12.67-31.25,9.4-21.22-19-61.88-17.17-81.71,2.62C26.12,93.15,115.57,117.53,141.1,74.76ZM89,211.72c-2.65-13.53-4-25.84,2.34-38.16,6-10.28,11.91-23.1,23.17-28.16C107,167.47,97.66,188.54,89,211.72Zm31.46-29c-3.77,10.42-11.55,18-20.35,25.45,8.56-21.7,16.39-43.71,26.63-64.7C133.8,156.31,124.38,170.53,120.42,182.71Zm117.9-50.06c-11.15-18.57-22.08-36.8-33.14-55.23C227.81,82.46,240.81,112.45,238.32,132.65Zm-40.6-48.73c12.38,18.46,24,37,35.68,56.61C210.78,140.84,195.13,106.55,197.72,83.92ZM107.11,57.58c4.93.6,19.93,2.17,22.4,6.26-20.82,2.5-45.26,7.3-67.37,11C74.2,60.67,90.1,57.08,107.11,57.58ZM64.59,82.21l70.93-11.27C113.22,94.83,80.76,92.77,64.59,82.21Z"/></g></g><g id="Red_Japanese_Frames" data-name="Red Japanese Frames"><path class="cls-6" d="M0,20V1580a20,20,0,0,0,20,20H956a20,20,0,0,0,20-20V20A20,20,0,0,0,956,0H20A20,20,0,0,0,0,20ZM924,1548H52V52H924Z"/><path class="cls-7" d="M952.1,15.41,928.69,38.83A4,4,0,0,1,925.86,40H50.14a4,4,0,0,1-2.83-1.17L23.9,15.41A2,2,0,0,1,25.31,12H950.69A2,2,0,0,1,952.1,15.41ZM40,1549.86V50.14a4,4,0,0,0-1.17-2.83L15.41,23.9A2,2,0,0,0,12,25.31V1574.69a2,2,0,0,0,3.41,1.41l23.42-23.41A4,4,0,0,0,40,1549.86ZM936,50.14V1549.86a4,4,0,0,0,1.17,2.83l23.42,23.41a2,2,0,0,0,3.41-1.41V25.31a2,2,0,0,0-3.41-1.41L937.17,47.31A4,4,0,0,0,936,50.14ZM925.86,1560H50.14a4,4,0,0,0-2.83,1.17l-20,20a4,4,0,0,0,2.83,6.83H950.69a2,2,0,0,0,1.41-3.41l-23.41-23.42A4,4,0,0,0,925.86,1560Z"/></g></svg>