<svg xmlns="http://www.w3.org/2000/svg" xmlns:xlink="http://www.w3.org/1999/xlink" viewBox="0 0 976 1600"><defs><style>.cls-1{fill:none;}.cls-2{fill:#f4f3ef;}.cls-3{clip-path:url(#clip-path);}.cls-4{fill:#6060bf;}.cls-5{fill:#50b271;}.cls-6{fill:#ffb85a;}.cls-7{fill:#d81e1e;}.cls-8{fill:#592116;}.cls-9{fill:#992d17;}</style><clipPath id="clip-path"><path class="cls-1" d="M960,22V1578a6,6,0,0,1-6,6H22a6,6,0,0,1-6-6V22a6,6,0,0,1,6-6H954A6,6,0,0,1,960,22Z"/></clipPath></defs><g id="Paper_Backing" data-name="Paper Backing"><path class="cls-2" d="M960,22V1578a6,6,0,0,1-6,6H22a6,6,0,0,1-6-6V22a6,6,0,0,1,6-6H954A6,6,0,0,1,960,22Z"/></g><g id="Wikipedia_Cropped" data-name="Wikipedia Cropped"><g class="cls-3"><path class="cls-4" d="M294.78,1128.58c-17.63-11.87-2-46.17-1-63.82,1.66-7-6.13-7.23-10.62-8.88-18.29-11.47-57-28.87-54-47.81,65.23-33.05,67.06,15.62,89.66-44.47,4.16-6.12,8.25-21.71,16-21,26.65,5.41,28.59,62.45,57.65,49.7,81.95-24.1,56.87,8.34,20.59,54.21,9.9,15.22,35.05,31.7,32.79,55.58-26,11.22-54.21-9.42-78.16-15C346.89,1104.7,325.35,1118.83,294.78,1128.58ZM135,1125.21c-26.67-6.91-54.69-64.45-17.51-72.55C137.09,1054,159.16,1121.35,135,1125.21Zm59.58-.6c-13.63-14.48,8.45-47.95,22.49-53.72,11.68-7.66,36.89-10.1,34.47,10.08C242.64,1104.27,216.48,1116.44,194.55,1124.61Zm314.83-36.12c-22.82,4-63.5-34.65-28.66-45.06C498.38,1043.91,558.11,1087,509.38,1088.49Zm94.28-25c-24.46-9.14,8.29-42.93,23.4-45.22,12.05-4,33.36,1.09,31.27,18.67C647.24,1054.73,623.16,1059.15,603.66,1063.53Zm-45.67-33c-23.15-9.07-26.62-49.61-13.64-67.55C592.08,921.71,580.43,1015.08,558,1030.58ZM341.75,917.33c-88.59-14.28-69.51-130-15.68-56.78C330.5,874.85,365.64,910.05,341.75,917.33Zm94.41-5.76c-49.35,2.8,15-47.47,32.55-44.81C536.39,887.62,478.27,915.47,436.16,911.57Zm-53.54-46.34C365,851.4,365.73,818,369.34,795.75c1.3-23,39-29.5,37.77-.22C406.07,818.56,399.22,849.45,382.62,865.23ZM976,832.61c-4.83-.56-6.89-8-12.18-7.86-12.68,5-26.07-.22-38.24-4.71-32.26-13.83-74.67-20.95-99.3-46-3.42-6-8.06.11-12.36-2.06-12.71-11.16-37.54-17.13-44-32.27-38.55-19.34-70.49-53.22-98.64-85.65-29-26.44-56.72-57.16-83.47-89.19-40.68-33.32-67.57-122.24-115.16-132.07-53.07-14.28,2.39-59.52-7.77-93.56,1.13-10.41.52-28.75-12.33-13.27-11.62,10-27.63,16.2-41.52,23.18-9-4,.46-28.93,1.55-37.17,5-5.08-2.23-8.34-3.1-12.72-.25-16.33.36-36.9-8.11-52.46-19.14-80.48-29.76,26.31-56.24,39.42-10.52,2.25-13.24-39.44-21.95-49.84.78-8.71-15-26.95-20.71-13.8-10,27.13-13.07,59.93-36.65,17.54-2.28-7.47-11.7-2.87-16.62-8.19-30.48-21.8-15.33-.76-38.3,19.57-6.43,3-3.64,15.85-9.25,19.07-2.44,7.91-9.11,15-11.4,22.37,1.18,14.33-5.34,38.66-21.93,20.77-9.38-5.69-23.07,1.83-32.46-7.76-8.27-1.24-22.13,3-28.24,8.69.57,8.72,8.6,17-5.22,20.75-9.71,4.75-16.52,13.2-26.14,17.35a6,6,0,0,0-5.49,5.05c-2.48,7.88-6.87,17.69-17.12,20.85-10.72,5.36,1.57,17.76-4.74,28.91-7.36,9.23,2.9,13.84.42,25,.12,5.15,2.44,9.42,2.22,15.11,1,6.5,8,11,11.24,17.89,4.92,6.16-.22,13.3,5.91,18.76,21.39,65.84-19.13,125.39-65.78,171C.7,658-4.22,656.22-4,652.65c2.16-44.59-1.51-246.18,0-285.92,2.82-2.73-5.33-99.46,3.27-98.07,4.4-1.28,11-8,8.39-13.16-1.67-3.21,2.06-5.26,2.73-8.16.77-11.67,20.16-4.2,15.58-16.89-1.44-3.34,1.17-6.68,2.7-9.74,6.8-11.45,15.82-9.68,23.72-14.88C52.06,190.91,65,184.59,78,180.7c.79-12.7,14.92-16.5,22.92-24.76,5.29-7.06,15-.77,18.24-8.57,6.06-9.08,20.59-14,30.78-16.79,6.1-2.51,10.36-9,18.11-9.62,12.81-3.8,23-11,35.34-6.45,8.4-9.57,27.18-18.06,41.25-11.92,8,6.44,9.16-6.19,15.81-7.32,4.85-.35,10.25.45,14.58-2,7.14-1.1,21.72,5,23.43-5.67,9.7-24.07,25-47.17,41.37-67.47C353.79,7,345.43,38.52,355,40.53,401,.63,401.72-5.53,394.86,62.6c1.95,26.7,61.75-51,76.43-54.46,25.92-6.78-14.59,71.52-19.89,82.77-5.28,27.44,58.8-37.76,81.28-37.08,25.56-7.57,79-29.29,60.11,18.11-3.1,20.78,53.72-11.12,33.58,23.8-10.8,31.6-37.52,48.08,13.61,47.72,10.72,14.95,12.78,2.41,27,2.5,17-.36,31.45,9.85,48.57,8.65,8.26,6.19,3.26,7.41,17.33,10.52,13.36,6.28,28.89,12.41,36.92,25.45,20.08.45,34.2,18.79,51.93,27.82,4.25,3.37-1.22,12.93,7.78,12.27,20.74,3.33,32.57,23.93,48.78,35.93,2.53,18.74,17.6,11.22,26.15,25.38,8.48,10,24.73,16.89,24.34,31,20.49,9,34,33.84,51.25,47.42C975.79,517,987.61,691.52,976,832.61Z"/><path class="cls-5" d="M794.86,1570.61c-36.41-7.65-60.58-50.34-99.85-43.35-44.55-1.08-47-48.77-92.71-44.71-65.4,7.17-72.15-69-120.18-93.26-27.94-27.06-24.13,20.33-80.27,33.54-37.61-2.26-75.55-16.39-113.06,3.3-64.39,26.64-91.88-15.35-171.94,3.83-58.11,2.88-71.71-62.43-108.63-90.73-40.6-20,27.93-71.93,52-74.13,42.17-23.67,60.54-76.74,117.76-69.27,43.12,6.65,55.18-36.91,95.1-43.14s87.72,4.22,108.8,38.62c36.29,57.65,12.34-56.87,126-56.29,49.83-2.8,47.29,37.14,72.52,10.15,7.3-8.24,21.36-1.66,23.9-11.71,8.13-28.61,44.32-60.84,75.58-61.64,5.14,1.14,9.15-3,8.32-8.09,3.25-33,10.5-61.35,35.72-87.17,30.45-34.25,68.88-2.32,103.94,1.75,39.43-5.45,67.16,9.74,86.7,42.27,54.16,37.53,87.62,99.62,102.21,163.79,2.1,18.89-32,14.08-32,37.09-5.92,35.63-59.69,78.44-96.44,79.66-13.85,4.27,8.1,44,1.47,58.85-2.83,37.44-22.74,69-28.08,105-1.76,13,.14,25.6-7.63,38.12-11.24,18.25-29.37,27.44-40.78,45-3.49,5.62-8.75,1.26-13.12,4.33C794.59,1557,804.14,1568.91,794.86,1570.61ZM-4,1325.7Z"/><path class="cls-6" d="M0,1604c-11.31.78-.25-258-4-262,12.69-12.35,32.66,22.58,38.41,31.52,26.1,49.82,67.43,69.62,120,54.27,29.41-7.39,60.78,9.3,90.13,11.36,32.73-2.34,61.21-21.84,94.34-22.2,45.53,8.91,89.27,15.41,119.41-29.82,2.18-3.92,6-5.12,9.51-2.69,58.56,22.69,59.43,101.62,127.93,100.76,45.77-5.9,56.3,45.23,102.2,45.71,37.38-5.37,61.05,36,94.23,40.94,20.55-3.19,28.62-38,46.06-45.15,22.85-14.84,27.86-46.06,28.53-72.43,11.93-46.12,37.53-89.87,21.22-139.1-9.4-17.26,15.18-13.52,24.64-17.26,19.14-6.28,30.68-13.23,38.58-26.93,4.41-6.65,26-27.34,28.82-16.48V1600C981,1611.83,3.92,1599.88,0,1604ZM397.58,460.53c-11.32-2.29-60.92-8.08-41.78-25.28,5.63-3.08.64-15.56,9.59-11.72C373.48,431.34,410.67,450.05,397.58,460.53Zm-74.3-28.07c-7.8-3.27-26.31-17.3-30.35-23.8-1.82-20.24,32.56-3.58,43.1-1,5.38,2.92,1.22,7.44-1.35,10.6C330.9,424,329.7,433,323.28,432.46ZM976,367.06c-17.15-15.94-35.23-41-50.71-59.21-8.34-2.89-17.74-11.47-21.07-20.36-5.26-9.26-21-14.27-26.13-26.16-3.68-6.25-15.17-6.37-18.06-13.91-4.67-3.57-5.24-10.52-11.1-11.54-8.34-1.79-13.26-9.54-19.08-14-5.19-7.18-20.65-10.21-25.53-19.21-3.27-8-13.8-2.94-19.51-11.28-2.59-2.15-3.61-8.16-8.25-7.68-12.61,4.7-16.81-12.16-26.2-14.79-10.42-.08-17.58-8.3-25.83-12.05-9.64,0-17.68-7.82-25.76-8.91-8.6,2.77-15.64-4.52-22.87-7.19-9.76,5.22-18.52,1.34-27.65-3.33-27.09,6.35-39.78,2.6-24.16-25.75,1.47-10,18.08-28.65,5.45-34.8-7.7-3.18-14.75.6-22.12,2.43-18.06-2.81-.16-25-4-34.55-30.29-8.9-65,7-93.67,16.08-15.07,12.4-36.19,20.11-45.9,34-2.68,2.23-6.12,3.51-8.89,1.56-2.23-2.1-1.28-5-.36-7.77,11-22.36,23.37-48.35,24.87-70.84-1.87-42.47-88.29,80.05-81.84,39.22,7.9-69.7-3.81-51-43.05-16.57-7.59-4.37.9-21.18-10.44-22.18-14.95,10.19-26.55,31.06-39,44,.53,18.35-9.95,38.33-30.51,29.71-10.24-2.6-22.57,9.72-35.44,3.2-12,6.14-26.26,9.07-38.82,12.25-8.89,3.1-18.42,9.32-28,7.94-9.43,4-19.65,15.67-31.36,13.11-7,1.74-9.84,11.67-18.12,12-4.33,2-10.49.77-11.69,6.43-1,5.28-7.25,3-9.67,6.66-4.19,6-11.17,7.11-17.93,8.12-4.52,8.25-12.16,19.37-23,22.83A6,6,0,0,0,55,189.63c-.9,6.82-7.57,9.38-10.14,12-1.29,3.75-7.8,10.77-10,9.6C23.28,224,7.54,242.55,5.1,260.9c1.61,5.94-7,14.81-9.1,5.48C-4,187.58-4,78.65-4,0,126.28-11.75,428.11.08,565.15-4,693.85,0,855.93-11.59,980,0c-.12,83.73,0,175.37,0,259.08.46,26.72-.34,76.83,0,104A4,4,0,0,1,976,367.06Z"/><path class="cls-7" d="M126.65,989.3c-50.59,2.15-95.32-15.55-130.65-24,0-22.83.06-63.83,0-86.9,1.35-7.23,9-3.46,11.29,1.18C19.6,894.37,36,906.51,60.31,919c33.18,17.86,63.82,28,104.65,36.24,8.42,1.75,14.54,4.16,16.61,12.57,11.11,6.31,29.37-7,38.76,1.63-24.51,23.33-64.82,17.15-93.68,19.88ZM634,926.93c-11.78,1.82-10.08-13.49-23.49-6.1-78.71,13.53,25.79-23.31,43.08-33.93,44.51-22.32,88.93-61.57,126.88-100.29,13.59-25.74,33.91-7.46,48.94,4.73,11.36,8.33,38.08,7.2,46.22,22-14.76,22.37-44.06,36.73-66.8,53.74C754.1,902.23,697,917.59,634,926.93Zm-416.65-46C132,876.63,53.6,812-4,767.94V667.37c6.36-8.3,19.3-14.2,27.38-22C80.8,719,137.24,804.22,217.42,857.44c4,3.5-2.34,10.58,4.56,12.78C236.43,873.4,228.89,883.22,217.3,880.9Zm317.89-39.32c-7.78-7.73-16.65-.9-25.77-.24-16.56-4.07,25.31-27.71,29-33.78,44.46-32.29,78.89-75.32,112.14-118.57,6.7-7.28,9.79-20.15,19.27-23.72,14.41,6.7,26,27,38.05,35.93,11.83,5.13,19.37,19.08,30.35,26.44,11.73,10.24,5.43,16.11-3.34,20.85C676.55,796,611,833.29,535.19,841.58ZM248.42,723.08c-20.9-14.23-20.76.39-38.2-10.42-8-6.36-9.24,8.29-17.21,5.87-19.4,1.63-31.79-14.66-44.22-24.63-9.25,3.8-15-8.89-17.4-15.66-1.54-6.32-11.32-5.3-11.73,1-42.66,7.25-70.16-69-51.91-107,35.4-87.58-41.21-132.34-9.81-177.38,11.43-5.88-5.18-19.74,14.44-31.52C83.92,360.52,79.3,353,90.55,345c7.51-7.34,19.39-10.85,25.4-18.55-5.3-14.61-8.64-15.73,11-15.48,107.16,17.42,27.92,16.16,103.24-80.08,5.69-8.39,14.18-3.93,18.68,1.85,53.8,45.2,32.11,35.52,58.36-16.32,19.33,6.75,25.85,82.48,39.89,69.64,23.09-18.52,25.26-49.31,38.53-70.92,25,27.85,24.6,89.41,21.58,126.83,14.57,30.9,90.24-85.65,41.61,62.75-3.95,39.39,69,23.39,54.09,71.2C498.34,491,486,499.48,487.7,517.32c9.48,86.27,14.32,97.62-66.87,47.74-74.89-30-52.47-27.51-57.91,22.21-1.35,12.25-17.1,22.19-18.79,34.49,15.59,8.59,17.94,24,7.65,42.3-7.89,13-18.45,25-31,20.36-5.3.31-7.77,8.13-13.73,5.83-10.61,3.5-15,27.62-29,23.48C267.9,709.48,259,724,248.42,723.08ZM300.82,410c-3.74,23.2,86,60.09,100.64,47.86-2.61-22.51-83-71.87-99.44-55h0Z"/><path class="cls-8" d="M1019.31,1178.32c-9-33.69-20.06-66.84-40.26-95.85-12.26-18.68-24.22-37.27-43.26-50.41-9.25-6.38-18.8-13.24-25.22-23-3.41-5.22-5.72-11.33-9.79-15.91C870.47,959,833,985.9,781.17,956.65c-54.67-20.29-96,46.65-97.54,94.54-.38,5.76,4.55,18.16-11.1,16.26-28.24,4.11-52.14,26.86-66.76,50.69-2.71,4.51-5.34,10.25-9.55,12.34-4.89,2.43-10.62,2.84-15.15,7-3.32,3.06-8.83,7.25-11.87,6.27-4.52-1.45-1.69-7.94-2.06-12.24-.6-6.92-1.72-14-.81-20.79,1.16-8.74-2.8-19.65,9.95-24.55,7.26-3.16,12.64-16.54,20.5-18.49,19.55-.11,37.27-5.63,53.72-15.8,44.62-38.26-38-53.65-51.78-16.69-6.27,15-9.47,32.12-24.52,42.25-5.74,4.76-9.23,7.74-9.11-3-.73-8.39-1.53-16.79-1.93-25.21-.26-5.29-1.94-12.08.59-15.68,14.88-23,39.82-78.06-.94-87.14-33.35,3.12-35.92,50.23-23.19,72.66,4.06,7.79,13.85,11.34,14.55,20.94,1,13.46,1.61,26.94,2.09,40.43,0,1.14,3,5.45-1.7,4.1-25.74-5.77-36-32.81-60.27-42.25-50.4-16.81-38,48.56,12.91,49.13,10.7,1,19.79-8.85,30-4.09,7,3.29,18.89,1.33,19.93,12.34,1,10.2-.6,20.57,1.41,30.94.55,2.82,6.53,20.61-8.6,6.67-58.09-26.19-130.72,3.93-151.39,64.43-9.68-17.42-31.27-27.38-27.54-50.15,2.74-19.92,2.09-38.51,2.07-59.07,17,12.38,35.94,16.64,55.28,18.34,21.76,1.92,25-.2,22.19-18-2.32-14.6-11.11-27.64-22.54-37.52-5.59-4.83-11.88-5.74-2.91-14.49,11.54-13.25,28.41-33.39,29.55-51.48-.61-11.58-8.8-9-16.42-8.91a115.17,115.17,0,0,0-42.64,4.65c-8.54,2.46-13.66,2.66-13.05-8,.78-13.62,1.46-27.26,2.65-40.85.52-5.9-.46-13.17,8.64-14.4,30.79-11.65,17.78-4.86,46.75-3.09,17.84-1.41,35.92-2.4,52.68-10,46.76-40.68-47.17-67.69-71-21.89-5.39,8.58-6.78,24.29-22.77,23.07-4.37-.33-13.2,10.94-12.6-2,.58-15.76-2.15-31.14,7.69-45.43,11.84-17.42,16.24-38.74,20.15-59.56,6-48-50.39-45.54-52.52.94-2.33,17.59,1.32,33.29,6.61,49.17,3.54,10.61,11.92,19.75,11.09,31.61-3.3,13.43-4.12,26.24-3.8,41.09-19.16-11.23-23.4-25.56-31.17-44.79C333.21,859,315,817,284.13,835.13c-27.17,24.28,2.65,63.06,27.79,75.8C322,916.87,332.6,922,344.56,920.6c6.58-.79,29.79,11.4,29.75,18.06-.93,11.18.11,23.88-3.72,34.26-26.45-32.88-31.86-59.36-60-7.56-7.13,8.26-.34,28.77-23.31,24.24-14.38-2.84-29.93.94-44.61,5.28-21.56,6.08-24.29,14.52-13.33,28.55,11.5,15.05,28.38,24.55,45,33.84,5,2.82,16.92,1.55,14.43,8.5-4.66,12.63-16.73,67.24,3.69,67.57,26.07-3.94,49.84-16.94,69.77-34,3,17-4.12,33.68.16,51,1.31,5.17-1.95,11.91-10.74,6.52-25.14-15.11-56.85-14.54-85.06-10.07-44.53,7.73-52.52,68.63-78.86,22.67-3.92-4.28-12.34-9.11-9.92-13.62,5.29-9.87,12.3-20.59,21.51-26.17,21.93-13.38,63.7-26.39,56.86-59-4.05-12-15.66-11.12-26.44-9.79-18.52,2.29-39.77,26.19-41.16,44.75-.56,7.45,2.79,15.81-2.82,22.56-5,6-10.71,11.3-13.48,18.87-.27.72-2.92,1.33-3,1.27-5.5-11.48-22.29-15.38-20.44-32.07a85.88,85.88,0,0,0-10-51.57c-10-24.11-37.65-23.62-43.56,2.82-3.52,17.8,12,46.54,27.76,55.57,8.69,5,19.32,5,26.33,14.86,12.55,17.61,27.3,33.65,41.1,50.3-109.06,1.92-71,42.87-144.49,75.41-18.88,5.9-36.54,18.14-46,36.57-6.62,12.91-16.13,31.58,0,41.77,14.35,7.22,23.27,20,30.93,33.51,26.72,50.38,68.93,72.25,124.24,56.2,35-8.82,66.59,16.1,101,10.11,20.39-4.84,40.19-12.11,60.37-17.88,13.42-3.84,27-3.62,40.89-1.43s27.34,9.58,41.72,6.76c25.9-5.06,46.75-18.68,62.53-40,.59-.78,1.48-3.2,3.89-1.56,10.15,6.88,20.49,13.48,30.63,20.37,17,11.57,23.3,31.16,34.77,46.87,20.88,32.54,47.81,32.77,82.4,36.31,9,1.57,18.93,3,25.28,10.56,32.55,38.54,42.78,27.75,84.51,36.63,28.58,8,62.52,61.47,89,24.33,7.54-12.59,16.24-23.94,28.49-32.9,11.78-8.62,19.74-20.72,25.16-34.83,5-13.16,2.25-26.73,4.94-40,12.3-45.89,37.86-93,21-141.3-.72-2.1-4.36-7.43,1.4-8.36,6.92-1.11,13.63-1.46,20.69-3.67,15.48-4.85,28.82-11.62,38.52-24.79,2.92-4,3.84-9.23,8.94-11.79,15.63-7.77,25.31-20.9,28.33-38.49C991.47,1196.45,1030.07,1207.46,1019.31,1178.32Zm-417.2-132.91c24.58-52.87,103.14-5.66,1.55,14.12C593.72,1056,600.55,1049.05,602.11,1045.41Zm-80,36.52c-19.65,8.84-51.18-6.46-51.09-26.87,9.73-21.27,43.09,10.08,52.06,20.65C525.55,1078.57,527,1079.77,522.16,1081.93ZM422.05,902.57c47.05-66.24,100.1-6.26,56,0C472.79,904,414,913.77,422.05,902.57Zm-42.8-44.74c-28.31-78,23.64-100.92,24.27-57.5-1.92,20.77-10.11,39.9-18.81,58.82C382.59,863.77,380.38,859.49,379.25,857.83Zm-33.47,53.31c-1.93,3-5,2.26-7.17,1.63-19.93-5.87-37.35-15.69-48.66-33.84-6.58-10.56-10.9-21.71-2.19-33.43,2.37-3.18,5.33-5.41,9.85-4.5,14.36,2.16,20.35,14.18,26.91,24.66,7.72,12.36,13.68,25.81,20.85,38.54C346.88,906.88,347.44,908.59,345.78,911.14ZM195.55,1107c4.7-21.23,25.48-43.8,49-36,4.34,2,.79,6.3,3.19,8.49-8.71,22.48-32.67,32.22-53.22,41.06C194.84,1116.07,194.39,1111.32,195.55,1107Zm-57.12,13.38c-6.25,3-11.61-3-14.83-6.27-12.77-12.28-34.14-48.22-7.41-57.39,7.24-.91,9.7,5.93,13.2,11.36,8,12.39,11.34,26,11.06,40.21C140.37,1112,143.05,1118.19,138.43,1120.4ZM558,1026.58c-19.74-11.64-21.52-44.92-10.34-61.3,10.45-15,29.33-8.6,27,9.73C574.33,993.67,565.75,1010,558,1026.58ZM402.29,1256c1.9,3.93-5,2.77-8,2.8-23,.22-46.1-1.32-68.95.48-47.38,3.16-94.87,8-141.79,15.88-29.88,6.42-59.26,15.53-89,22.61-.2-.52-.41-1-.62-1.55a793.07,793.07,0,0,1,112-38.69c44.53-10,90.73-12,136.23-14.45,16.91-.88,33.85-1.86,50.77-1.83C401.7,1241.28,399.89,1251,402.29,1256Zm-49.22-161.93c-17.56,13.27-37.16,22.71-57.55,30.35-10.71-1.11.83-52.19,2.77-61.06,2.88-11.41-8.2-8.57-13.33-11.09-20.48-10.1-38.77-22.91-54.16-40.56,56.64-27.44,77-.17,79.68-17.25,2.73-16,12.67-28.57,19-42.8,4.44-10,10.52-2.83,13.73,1.18,8.56,10.7,18.24,21.31,23.51,33.65,7.61,17.8,18.87,11.89,30.83,8.45a321.48,321.48,0,0,1,40.75-7.22c10.59,0,5.63,7.89.51,16-8,12.68-14.67,26.33-27.16,35.89-16.47,12.58,18.23,16.25,30.73,56.21,6.9,15.67-61.94-5.26-67-11.84C366.13,1078.55,359.71,1089.08,353.07,1094.09ZM2,1331.68c-4.46-5.83-.28-12.43,1.75-18.49,9.45-27.76,34.28-35,57.94-44.38,18-7.09,30.29-21.63,41.72-36.23,34.55-45.5,70.93-23.12,112.71-39.8,19.48-11.75,32.6-33.89,57.44-36.12,30.06-4.12,62.22-.71,87.28,17.42,12.64,9.41,19.71,24.63,30.86,35.12,8,7.5,3.84,13.78,3.76,20-.13,11.58-10.08,3.3-15.26,5.36-10.45,4.16-14.67-4.18-20-11.64-10-12.62-32.88-47.71-48.82-48.82-2.33,3.17.05,5.62,2.57,8.48,14.33,16.33,28.2,33.05,42.2,49.66,1.43,1.87-.38,2.42-1.89,2.64-13,.23-26.13-.7-39.09,2-5.7,1.17-6.34-4.89-8.48-7.78-7.19-9.78-50.56-59.35-61.37-45.71-1.54,3.48,1.5,4.86,3.59,5.92,11.84,6,18.83,17.78,29.32,26.41-12.84-4.42-25.67-8.89-38.54-13.25-4.9-1.66-11.37-8.6-14.52-1.47-2.6,5.9,6.78,8,11.08,9.62,16.41,6.14,32.72,12.68,50.46,14.94,4.67.6,8.62,6.79,13.86,11.22-34.53,3.56-68.36,4.46-101.46,14.85-12.71,3.67-20.08-4.53-29.79-7.18-10-1.61-57.69-17.73-59.49-4.11-.4,4.28,4.88,4.13,7.16,4.46,18.93,3.33,39.39,3.79,57,11.86-46.28,18.42-95.42,34.41-137.46,63.23-6.61,4.65-14.61,8-21.18,13.22A9.34,9.34,0,0,1,2,1331.68Zm441.83,63c-54.62,48.62-63.46,7.74-120.57,17.8-26.28,3.45-49.46,18.2-75.86,20.22-14.57,1.11-28.39-4.6-42.25-8.5-45.13-15.45-93.41,21.44-134-15.08-22.06-19.32-30.89-48.52-53.69-66.08,56.44-32.72,118.78-45.58,183.41-60.55-14.65,14.46-25.84,30.15-41,38.87-10.29,5.91-25.66,5-38,9.75-16.21,6.32-33.48,10.93-45.41,25.31-2.17,2.62-.75,3.48.46,4.64,2.18,2.09,4.37.21,5.92-1,19.12-15.14,42.57-20.4,65-27.94-7,9.72-63.89,59.64-57.27,68.3,3.34,1.93,6.44.25,8.29-2.33,9.16-12.77,21-23,32.12-33.84,25.44-25.74,54.47-48.29,75.89-77.71,7.61-10.36,19-7.1,28.72-8.46,23-3.25,46.32-4.67,69.48-7,6.32-.64,6.49,3.63,4.85,6.89-5.94,11.83-4.9,25.42-10.57,37.46-4,8.52-12,8-18.16,11.45-18.15,10.17-36.37,20.41-51.31,34.91-4.71,4.78-16.45,15.23-11.39,23.1a4,4,0,0,0,3.51-1c18.85-22.65,43.5-41.71,70.56-52.31-8.7,28.23-30.2,51.93-49.25,74.31-2,2.1-4.23,5.31-.78,8.26s5.63-.65,7.34-2.4c36.5-36.93,64.7-84.63,69.28-137.15.08-3.9,2.73-5.2,5.91-5.35,13.2-.58,26.54,1.75,39.59-2,3.72-1.08,5.47,1.75,6,4.25,2.38,10.76,4,21.69,6.43,32.45,2.15,9.72-6,13.9-10.4,19.81-10.12,13.53-19.36,27.53-25.39,43.33-1.06,2.78-2.5,9.19,2.57,9.71,5.72.59,5.23-6.44,7.09-10.1,8.28-14.62,14.22-33,28.1-43.09,3.06,14,2.79,29.11,2.21,43.57-.3,3.17,3.11,9.63,3.68,9.51,11.21.94,3.09-65.39,2.07-74.63-1.3-10.69-3.85-21.23-5.95-31.82-.4-2-.14-2.66,2.2-3.09,31.11-7.29,55.13,16.68,55.63,47,1.72,13,2.3,26.08,4.28,39C444.25,1375.39,470.9,1378,443.8,1394.65Zm351.06,172c-35.88-8.39-54.78-47.42-96.42-43.47-45,2.22-47.18-49.35-97.64-44.58-60,1.46-61.38-45-94.91-77.35-11.72-9.2-24.59-16.9-36.67-25.65-29.63-23-10.7-65-28.28-94.3-13.4-23.19-36.67-24-34-56.2,0-56.88,58.83-90.64,110.59-85.69,37.06,3.6,62.45,35.26,83.85,63.42-22.83,4.49-9,10.84-39.92,3.68-31.38-4.46-65.78-10.41-96.36,1.07-1.29.64-4,1.74-2.58,4.54,1.25,2.37,3,1.41,5,1.2,36.16-5.31,70.11-5.2,106.64,2.85a406.07,406.07,0,0,0-101,104.16c-1.38,2-1.41,7.5-.39,8,3.33,1.66,3.4-2.55,5-4.32,25.32-28.89,48.45-60,80.69-82-3.06,28.32-14.13,54.51-28.3,78.89-2.06,4.05-8.27,8.22-5.11,13.15,2.67,3,4.51-.37,5.64-1.44,20.1-22.85,34-54.36,36.76-84.38,1.09-25.76,22.45-29.26,38.32-38.14,4.45-2.49,10.49,6.87,14.65,11.79,11.19,13.21,21.16,27.51,32.83,40.25,8.75,9.55-1.2,14.54-3.69,20.78-6.74,16.91-14.89,33.19-21.46,50.28-3.32,4.1-51.77,148.38-28.93,120,11.77-40.28,21.7-72.58,35.55-114.41,0,21.33,4.79,37.61,2.79,54.87-1.58,13.74-2.3,27.62-4.44,41.35,2.55,7.81,10-2.42,9.72-6.24,4-26.16,8.24-52.8,0-78.52-7.31-22.68,4.67-39.2,13.43-57.24,3.74-6.23,6.45-22.69,13.65-10,15.25,25.27,33.37,50.37,47.33,76,.89,6.62-.68,13.83-2.38,20.49-4.09,16-4.16,32.42-6.92,48.49-1.68,14.45-8,60,2.48,68.94,5.81-8.67,1.07-20.78,2.83-30.76.73-11.63,2.21-23.22,3.5-36.11,14.75,18.64,15,39.94,20,61.45.34,1.64,0,4.17,2.92,3.45,11.94-8.57-7.83-61.16-16.92-71.49-8.84-15.57.52-34.24,3.29-50.35,18.25,30.93,34.77,64,46.18,98.1C781.18,1502.31,790.68,1534.62,794.86,1566.61ZM769.57,1438c-42-90.91-94.58-177.82-162.51-251.75-8.5-9.36-17.59-18.23-26.9-26.8-9.64-8.87,1.72-9.63,4.93-12.11,15.15-11.69,20.76,4,28.87,11.14,17.58,15.47,34.5,31.71,49.13,50a601.9,601.9,0,0,1,134.53,311.18C787.58,1492.37,781.43,1464.42,769.57,1438Zm116.24-78.3c-2.91,37.15-22.74,68.58-28.06,104.74-1.76,12.33.16,24.94-7.07,36.57-7.59,12.19-18.44,20.73-28.69,30.15-5.51,4.71-8.55,12-14.25,16.57,1.65-66.48-21.32-130.65-42.1-192.24,10.09,1.93,19,9.75,28.61,13.67,10.87,5.47,7.51,17,10.2,25.54,2.17,8.46,26.06,66.31,35,59.4,2-1.76,1.3-3.06.2-5.42-12.81-22.41-23.62-44.1-29.21-69.82a260.8,260.8,0,0,1,41.47,30c.89.78,3.15,0,4.77-.06-.83-14.39-34.53-33.31-47.17-40.57-13.1-6.85-24.65-17.45-38.71-22.37-22.47-7.88-22.45-30.9-33.52-46.32-8.39-11.7-14.84-24.77-22.18-37.22-1.47-2.51-.78-3.91,2-3.13,14.66,4.09,31.33,2.08,44.13,10.52,8,5.3,12.47,15.93,18.77,24,12.28,15.67,26.51,29.27,43.36,40.06,7.56,4.85,14.94,10,22.16,15.34,3.22,2.38,6.42,3.48,8.46-.28,1.73-3.18-1.8-6-3.88-7.39-29.36-18.51-52.9-41.53-75.42-68.19,24.31,5,44.21,14.5,66,23.72.84.3,3.36,2.91,4.3-.54,1.53-10-33.94-22-42.25-25-22.12-7-43.69-16.43-67-19.25-9-1.09-17.69-5.62-27.42-1.9-1.79.68-6.86-4.82-9.18-8.29-10.54-15.81-21.27-31.31-33.61-45.93-7.8-9.23,5.87-6.8,8.94-8.37,9.06-4.6,19.79-4.87,29.32-9.3,9.31-4.32,15.64,4,23.08,7.55,21.66,10.24,41.75,24.33,66.41,27.33,3.34.19,11.41,5.38,11.7-.94,0-3.15-1.7-4.63-4.67-5.3-26.73-6.05-49.95-19.91-75.82-33.76,16.26-1.51,30.21-2.87,44.18-4,3-.25,6.1,0,6.2-3.93-.54-13.49-89,8.14-99.86,11.68-4.46,1.1-4.5-2-3.81-5,7.66-21.19,14.47-42.75,21.79-64.08,2-3.54,4.12-9.86-.38-12.14-2.5-1.14-3,2.54-4.17,4.45-9.23,15-10.95,32.75-17.91,48.45-4.54,10.23-6.78,20.37-8.16,31.32-4.24,17.73-34-24.62-42.43-28.7-31.19-21.48,10.54-49,28-64.4,23-18.39,58.24-12.89,75.07,11,12.15,17.28,28.91,27.83,50,33.9a89,89,0,0,1,46.38,32.1c19.06,21.83,22.36,50.7,29.32,77.69C860.26,1282,891.36,1314.68,885.81,1359.66ZM728.74,1085c-7.44,0-11-14.5-20.27-11.71,3.09-7.57,47.54-2.72,57-2.69,40.38,4.26,80.57,14.92,115.64,35.68,8.6,5.63,19.73,7.42,25.9,16.76C850.78,1099.05,790.2,1082,728.74,1085Zm41.63,32.11c-1,5.51-7.59.14-10.51-.77-11.22-3.5-17.71-13.69-25.92-21.4-2-1.89.53-1.79,1.57-1.81C750.84,1090.27,772.53,1099.88,770.37,1117.08Zm228.77,79.58c-27.81,13.66-11.78,47.69-43.1,60.95-5.11,2.34-7.27,10.41-11.9,14.64-15,13.71-32.85,21.74-53,24.8-4.61.7-6.31-1.82-7.92-4.92-13.47-23.74-25.1-48.77-29.86-75.77-5-39.35-27.49-72-63.06-89.86-10.52-6.93-11.42-20.75-17.35-31.42,15.4,0,29.82,2.87,44.12,7.27,9,2.77,18.36,4.6,27.59,6.68,5.23,1.18,5.94,5.11,6.3,9.41.41,16.74,36.37,145.48,52.69,139.83,2.16-1.86,1-3.58-.25-6-9.36-18-17-36.6-21-58.1,17.25,14.64,33.15,28.38,44.64,46.45,2.11,2.06,8,12.95,10.84,9.48,7-11.74-44.88-63.49-58.32-66.05-3.87-1.72-5-10.7-6.41-16.63-4.25-17.79-12.41-34.56-13-53.64,15.23,6.43,31.92,11.52,46.23,20.43,6.08,3.78,7.2,15.57,10.52,23.73,10.12,27.41,26.11,51.53,42.49,75.53,3.82,7.72,12.24,2,6.71-4.26-19.89-26.93-31.77-58.36-46.69-87.48,15.68,8.53,31.68,16.3,45.39,27.83,3.43,2.87,8.38,5.72,11.23,2.76a3.05,3.05,0,0,0,0-4.61,581.17,581.17,0,0,0-67.83-56.31c23.6-.88,45.8-1.33,67.83,3.83,1,.13,2-.11,2.21-1.81.34-2.55,0-5.72-2.82-6.11-20.59-3.24-40.87-9.9-62.19-4.77-14.68,3.53-27-3.91-39.52-9.8s-25.49-11.48-37.75-17c8.74-4,18.82-6.59,27.9-12.17,5-3.09,9.11,4.15,13.8,6.24,11,5.78,61,19.68,67.15,7,.24-3.2-2.91-2-4.57-1.93A119.5,119.5,0,0,1,879,1059.73c11.55-3.43,22-6.49,32.5-9.7,1.91-.59,4.85-1.3,3.27-4.26-3-5.55-8.49-3.77-12.48-2.59-18.67,5.54-37.1,11.92-55.71,17.66-10.25,3.16-19.32,12.32-30.45,9.78-19.63-4.5-39.11-9.23-59.36-9.74-1.66,0-1.56-.4-.64-2,10.8-19.09,27.57-27.29,48.89-30.27,18.63-2.61,35.92-10.5,51.67-21.18,6.18-4.6-.65-10.08-5.52-5.47-17.34,10-36.16,15.48-57.43,19.26,8.19-6.38,15.25-11.52,21.87-17.18,3.46-2.95,11.4-5.42,8.15-10.38-4-6.54-8.93,1.39-12.67,3.7-19.38,10-34,26.71-51.57,39.16-1-14.87-.16-29.92-.37-44.84,0-2.66.07-5.36-3.32-5.36-3,0-4.68,2.24-4.81,5.22-.72,15.24-3.12,30.69-1.38,45.65,1.06,9.18-.7,14.63-6.31,21-3.62,4.14-6.94,1-10.11,1.43-13.8,1.65-27.95.25-41.07,4.94,2.84-56.68,42.5-128.74,107.46-88.83,23.64,13.65,52.28.27,77.55,11.6,18.37,6.48,22,25.54,34.89,36.28,16,14.32,34.93,26.84,48.25,43.73,22.93,36.52,43.93,74.88,52.55,117.53C1014.21,1195.2,1004.26,1193.87,999.14,1196.66ZM450,494.94c-11-1.05-13.6,8.09-14.38,14.35C434.24,520,449.34,533.3,460,533c9.37-.25,12.89-6.71,13.35-14.85C473.91,507.11,461,495,450,494.94Zm9.84,29c-9.34-1-13.67-8.25-16-16.23-.67-2.29,3.21-4.37,6.15-4.84C458.18,503.89,471.88,520.09,459.79,523.92Zm-53.18-151c-28.75,4.95-31.88,36-1.77,38.83C429.82,412.32,431.65,374.7,406.61,372.94Zm-2.75,30c-15.15-1.65-12.22-21.83,1.84-21.68C418.84,381.83,417,403.29,403.86,402.94Zm-13.78,32c-30.34-25.05-68.46-45.64-109.18-43-3.34.32-5.94,2.26-5.56,5,4.08,6.88,16,2.76,22.73,5.3,11,1.88,21.69,5.17,32.67,6.93,1.44.23,2.68,1.69,4,2.58-7.39,4.88-6.32,25-17.76,12.66-7.33-6.18-15.1-15.8-25.45-15.36,0,1.9-.91,4.61,0,5.56A163.54,163.54,0,0,0,308,429.85c22.89,17.51,56.78,31.38,82.73,35.18,7.66.08,25,1.32,19.58-7.22S398,441.1,390.08,434.94Zm-4.95,19.92c-10.21-3.12-20.5-7.28-30.59-10.59,1.64-6.39,10.42-8.61,8.5-17.5,13.48,9.86,25.2,16.68,34.54,29.76C393.42,456,389.07,456.09,385.13,454.86ZM378.48,1051c-18.56-1.69-36.91-.26-54.72,5.22-3.82,1.17-6.73.45-8.26-2-1.72-2.68,1.38-4.3,3.6-5.79,8.7-5.84-1.9-10.66-1.21-16.53.61-5.09-2.84-10.58-3.93-16-.29-1.43,1.41-4.62,2.36-4.69,8.42-.15,11.78,26.31,15.09,32.79,5.33-2,14,1.52,11.07-7-2-11.12-9.21-43.54-3.42-52,8.88,7.86,10.53,40.53,11.93,53.18.15,3.27,2.1,2.93,4,2.69,2.93-.36,7.47,1.3,7.8-3.4,1-6.18-.85-33.87,8.32-32.23,5,.75,2.15,7,2.22,10.41.16,7.7-2.29,15.49-1.82,23.12.25,4,6.34,2.44,9.72,3.55,2.84.93,8,1,7.2,3.83C387.48,1049.29,382.94,1051.43,378.48,1051Zm-28.57-685.1c32.13-.25,28.94-44.75-2.14-42.73C326.39,325.8,326.7,365.25,349.91,365.92ZM341,345.34c.71-5.91,1.39-12,9.5-12.24,7.64-.2,12.13,4.44,12.22,11.32.14,9.62-8.53,11.69-15.39,12C342.31,356.68,340.35,350.81,341,345.34Zm13,136.22c-18.69,9.94-35.54,21.35-53.45,32.36-1.26.78-2.76,2.17-3.59,0-1.64-8.88,25.24-22.73,32.56-27,5.25-2.72,10.28-5.87,15.33-9C349,475.36,350.94,478.17,353.93,481.56Zm-28.5-7.78q-25.9,14.78-51.62,29.9c-4.51,3.77-6.67-4-2.57-5.87,13.59-10.29,27.8-19.64,43.34-26.73,3.05-1.39,4.81-5.93,6.4-5.22,4.69,1.64,7.34-.23,8.28,3C330.27,472.4,327.53,472.57,325.43,473.78ZM294.09,339.84c26-2.16,18-41.54-2.49-42.9C263.21,296.11,264.18,344.26,294.09,339.84Zm-9.68-32c6.89,1.88,18.35-.22,16.52,12.11.34,7.45-2.16,11.19-9.17,11C279.68,332.17,274.35,310.53,284.41,307.84Zm20.88,151.68c-20.23,10.25-39.89,22.16-60.37,31.6-7.82-2.25-1.5-5.85,2.3-9.56C251.53,478.48,316.26,439.26,305.29,459.52ZM279.85,448.9c-23.42,3.87-43.65,15-65.82,22.91l-2.93-1.74c2.41-8.4,75-39.1,75.35-25.33C286.79,448.36,282.27,448.55,279.85,448.9ZM153.69,984.5c21.25-1.2,42.8-4.39,62.78-14-35.33,3.36-71,8.57-106-.65-9.71-2.48-19.72-5.24-29.56-6.34C70.08,963.61-9.25,937-.23,924.72c1.88-3.61,3.72-.4,5.3.76,42.22,24.36,123.19,46.33,170.63,37.62C136,951.72,94.56,943.79,58.49,922.54c-21.18-11-42.72-24.46-57.13-44.1,1.25-4.5,7.33-3,9.6-.17,14.83,12.66,30.48,23.87,47.94,32.91,60.52,34.58,129.9,47.33,198.91,43.94,3,.1,5-4.14,8.53-.74,12.12,11.59-3.48,11.4-6.76,13.24-45.22,26.94-98.79,31.79-150.42,33.46A270.17,270.17,0,0,1,4.68,980.33c-6.26-1.57-4.87-10.14-4.68-15,1.69-15.5,12.59-1.71,16.73,0C60.79,983.86,107,987.14,153.69,984.5ZM255.08,434.24c-21,2.49-40.88,8.51-60.52,15.79-6.53,1.88-12.82,7.08-19.58,3.28,4-10.44,90.12-39,89.85-24C265,436,257.77,433.92,255.08,434.24Zm0-87c2.25-26.4-41.17-30.62-42-2.17C210.79,366.71,254.74,372.74,255.07,347.23Zm-21.69,7.71c-16.31,1.11-15.41-22.75.39-20.82C248,335,250.07,356.3,233.38,354.94Zm-24.84,67.93c-19,.77-37.77,3.11-55.95,8.88l-3.81-1.47c5.16-10.23,51.27-18,61.17-14C213.61,418.58,212.62,422.3,208.54,422.87ZM0,667.37c9.42-4.16,17.82-13.53,25.84-18.86C74,730,134.51,800.92,215,860.66,134.11,827.09,60.69,766.32,9,696c-3-7.11-9-2.41-5.24,3.53C53.39,775.24,141.88,843.18,226.5,876.27c-79-1.21-158.06-49.55-213-103.74-8.7-9.49-19.9-6-13.54,6.53,45.11,66.56,170.75,121.2,250.5,110.29,3-.36,6.61-.23,8.12-4.79,3.17-9.56-5.61-10.57-10-13.42-34.48-21.08-65.6-46.63-94.89-74.38-29.74-24.26-50.6-56.71-75-85.89-13.43-16.58-26.32-33.6-36.84-52.11C25.09,641,37.55,636,51,622c1.34-1.37,3.62-1.65,3.68.57.23,9.12,4.86,16.63,8.19,24.65a91.76,91.76,0,0,0,31.57,40.29c9.51,6.92,22.16,4,30.82,13.88,14.4,16.45,33.66,24.7,55.54,28.17,8.39,1.33,16.71-2.71,24,.16,29.81,12.7,70.59,10.31,92.9-15,8.45-11.54,20.82-16.23,32.68-19C350.59,691,373,659.6,369,639c-18-45.05,7.79-19.61,2-76.7,35.89,6.33,67.47,25.83,98.54,44.09,7.43,4.56,17,9.35,23.49-2,17.25-31.91-4.15-66.11,2.93-99.07,2.67-9.72,10-17.73,11.9-29.33,39.17,66,90.65,120.9,143.59,175.4,3.47,3.41,14.11,4.95,7.72,14.09-44.78,69.89-104.69,127.47-171.4,176.32-3.52,3.2-6.82,9.4.65,10.89,9.46-1.87,19.23-.62,28.51-.76,84.39-2.92,166.4-39.15,229.55-94.26,3.24-3.67,8.85-10.08,14.37-7.17,9,4.77,16.79,11.9,25,18.13.53.4,3.25.17,1.11,2.38-8.07,8.29-15.81,16.91-24,25.08-44.72,46-96.77,85.39-157.3,107.75-21.58,8.41-43.51,16.34-66.31,21.42-4.63,1-10.64,2.25-12.34,8.19-.18.63,3.56,3.38,5.59,3.5,33.31,3.42,66.59,1,99.86-1.85,8.06-.58,16.88.35,23.95-2.69,10.62-4.58,22-4.54,32.68-6.48a379.64,379.64,0,0,0,59.25-16c46.73-19.75,92.59-45.37,132.45-77.16,5-4.22,9.49-13.2,16.81-10.87,16.85,4.35,65.29,22,78.4,13.08,2.4-3.19.75-6.24-1.81-8.19-9.33-8.77-18.73-17.52-28.56-25.72-23.26-17.56-45.23-37.82-72.52-49.12a186,186,0,0,1,53.2,17.19,304.94,304.94,0,0,1,40.85,24c1.84,1.31,4.92.87,7.42,1.24-12.41-31.1-77.65-70.88-109.31-85.06,38.7-.94,70.93,12.12,103.79,29.61,2,1,4.18,5,6.94,1.94s2.63-7.34,0-10.73c-25.39-36.38-63.73-59.43-101.38-81.19,29.42-2.45,57,2.74,84.51,11.62,5.18.73,12.5,7.74,16.92,2.89,3-9.33-24.87-28.16-30.9-36.65-22.4-22.8-50.63-32.13-79.6-45.71,17.17,0,32.93.1,48.69,0,11.37-.1,21.94,4.64,33.56,4.49,8.36-.1,16.76,4.4,25.18,6.73,1.16.32,1.94,2.14,3.07,2.48,5.67-1.22,4.55-9.39,0-11.18-13.63-10.52-27.36-21-41.64-30.56A168.68,168.68,0,0,0,881.89,530c30-10.91,63-5.13,94.11-5,2.34-1.19-.83-5.17-2.46-7.19-31.59-30.32-75.92-39.6-118.41-41.64,19.28-8,40.82-10,61.42-13.6,17.58-2.17,34.73-8.25,52.82-3.84,1.57.38,3.68-1.49,5.54-2.31-5.49-10.28-17.85-13.48-27.59-18.53-28.42-12.44-58.87-18.74-90-16.93,37.28-13.17,73.77-27.71,113.86-27.93,1.37,0,3.46,1.08,3.91-1.67-.17-12.62-35.27-17.45-45.58-20.53-37.56-6-69,.14-106.85,7.18,19.78-12.43,107.61-68.48,121.92-39.44,7.48,10.84,17.57,19.89,26.6,29.64,1.33,1.45,3.07,2.5,4.86,2.18,4.83-1.23,2.75-4.82.56-6.57-13.42-17.9-28.08-33.83-43-50.77,13.81-1.45,26.47-2.63,39.06-4.29,1.59-.19,2.92-3.06,4.22-4.48-.47-.35-1-1.21-1.6-1.24-10.33,0-21.15-1.92-30.87.53-13.23,3.34-23.41,1.42-30.83-9.71-1.32-2-10.48-6.83-1.18-9.88C931.47,277.7,951,272.64,970.29,267c7.55-.27,11.32-9.76,1.4-8-16.08,4.21-32.1,8.63-48.12,13-23.3,9.47-25.2,8.27-40.94-10.95-.84-.84-1.16-1,.57-1.64,7.79-2.72,15.54-5.62,23.12-8.9,22.38-9.67,43.72-21.67,66.87-29.62,1.47-.5,2.48-2.42,3.63-3.6-6.78-5.77-14.64-.78-20.89,2.32-24.77,9.92-49.44,20.25-73.51,31.75-13.48,6.44-17.45-6.1-23.59-11.26-3.36-2.82,7.55-4.68,10.89-8.65C888.66,221,907,207.78,926.14,197.42c17.24-9,33.36-19.61,49.86-29.7,3.15-2.62-3.07-6.43-5.92-3.8-39.55,20.34-77,44.48-115.56,66.5-10.4,6-13.13-7.89-20.8-9.58,1.18-4.55,5.52-6.15,8.56-8.92,30-18.56,58-40.76,87.08-60.83,15.55-11.15,30.84-22.66,46.33-33.88,2.79-1.94,1.87-4.6,1.11-7-4.28-1.46-13.18,7.12-17.42,9.33-38.79,28.87-78,57.33-118.42,83.83-6.3,4.09-12.33,16.76-23.11,5.56-1.76-3.73-14.08-6-7.64-9.8,15.9-12.75,31.87-25.4,47.71-38.2,39.71-31.71,78.35-64.72,117.32-97.33,1.71-1.33,2.54-3.23.76-4.9-3.8-3.37-8,1.67-11.15,3.67-24,19.77-47.72,39.77-71.78,59.41-27.22,22.23-54.87,43.94-81.93,66.37-8.36,6.93-15.38,8.38-23.52.35-2.3-2.27-2.32-3.3,0-5.33,33.71-29.42,66.43-59.93,98.83-90.77,29.23-27,58.5-53.94,87.51-81.3a3.87,3.87,0,0,0,.36-5.61c-.89-.82-3.86-.35-5.29.53-24.4,20-46.51,43-70.33,63.76-42.55,35-80.12,75.91-123.69,109.57-5.53,4-10-4.24-14.45-7.35-3.07-2.14.87-4.26,2.28-5.69,10.4-10.51,21.07-20.75,31.52-31.22C836.8,92,879.84,49.32,921.46,5.45c2.35-2.71.31-3.89-.61-5.41C918.72-4.3,911,7.44,908.6,8.78Q836.33,81.47,764,154c-10.65,14.94-15.62,12.22-30.73,4.14C779,109.32,820.81,58,866,8.85c1.17-1.31,4.86-3.76,1.61-6.7-2.81-2.76-4.78-.19-6.71,2.15C820,46.87,782,92.32,742.15,135.71c-6.42,6.35-8.87,22.64-24.56,15.21-2.54-2.14-12.23-.81-7.94-5.65,33.22-46.34,66.9-92.33,100.57-138.34,1.61-2.21,1.34-4.48-.68-6.61-1-1.11-1.71-1.74-2.88-.1C798.2,11,789.23,21.31,781.14,32.31c-23.6,32.44-45.95,65.8-70.68,97.4-5.4,6.92-8.41,18.85-21.69,13.21-5.16-1.26-7.18-3.91-4.36-8.75,25.71-40.3,49.5-81.76,73.14-123.31,1.77-3,5.88-7.16,2.11-11-4.5-7.54-35,53.07-40.21,59.18-13,22-25.94,43.93-38.55,66.1-5.41,9.53-9.74,18.58-23.83,12.22-4.79-2.16-2.05-4.56-1.65-5.51,16.23-38.56,34-76.53,49.07-115.56,1.74-4.62,10.1-11.3,2.16-15.22-5-2.16-7.31,7.13-9.37,11.37-15.4,36.36-30,73.15-46.46,109.07-5.52,17.76-10.81,14.17-26.42,13.58-5.53.41-4-2.85-3.14-5.19C637,91.36,649.74,51.76,663.53,12.51c1.49-4.09,3.6-9.85-1-10.28-2.65,0-4.51,4.22-5.56,7.09-6.79,18.42-13.18,37-20.27,55.29-3.3,14.28-7.32,5.24-19.16,7.33-4.9-.56-11.07,8.14-14.1-.54-1.38-3.94,1-9.56,2.6-14.1A318.61,318.61,0,0,0,619.29,4.16c1.41-5.82-4.41-6-6.15-1.73-2.32,7.73-3.32,16-6.55,23.26-1.89,4.28,1.61,12.44-8.2,12.59-10.71-.06-21.62-.72-32.12,2.95-9.82.32,9.88-33.57.47-42.16-6.47,1.77-7.13,23.66-9.84,30.67-1.06,4.57-1.78,12.5-3.91,13-12.35,2.75-23.7,8-35.71,11.63C517,36.21,525.19,18.14,522.49,0c-2.73-2.87-7.91-.46-7.62,3.84-1.87,14.78-3.56,29.61-6.23,44.25-.92,5,.26,11-7,14.51C486.44,70,472.18,79.19,460.8,92.11c-.67.76-2.15.81-3.26,1.19C467,68.54,481.69,45.51,483.4,18.12c1.23-11.87,1.8-15.73-2.06-15.73C461.78,4,447.47,22,433.05,33.2c-12,8.57-21.95,20-32.09,29.59,6.94-61.12,5.28-84.26-45.2-26.24-1.43-9.9-1.65-20.26-6.06-29.51-2.87,1.6-6.52,2.55-8.48,4.91-10.8,13-21.19,26.24-32.65,40.58-1.21-14.6-2.42-28.43-3.47-42.26-.31-4.09-1.87-8.73-5.49-8.82-4.2-.11-2.69,4.94-2.57,7.76.8,13.11,1.5,26.38,2.52,39.42,3.17,13.63,1.61,27-5.94,38.36-3.52,5-10.19,1-15,1.9-2.39.39-2.68-1.62-2.93-3.2-5.54-27.26-5.94-56-14.89-82.29-13.87-18.57,6.64,67.78,5.76,72.65.65,4.15,2.6,10.63-1.06,12.37-6.19,2.93-14.1,5.28-20.52,4-9.25-1.82-7.23-12.78-9.44-19.39-7.33-22-12.52-44.72-19-67-.16-2.39-1.88-7-5.81-5.12-3.59,1.26-2,4.11-1.59,5.76C215.61,35.8,226.71,64.77,232.07,94c-4.25,1.47-8.79,4.24-13.36,4.27-4.81,0-11.71,6.73-13,2.08C202.16,87.24,195,75.85,190.45,63.3c-6.82-18.65-15.26-36.75-23.77-54.71C165.32,4.21,164-4,157.23,0c-3.48,2.14,1.38,5.94,1.6,8.92,12.1,31.89,26.63,63.74,38.71,95.55-3.68,1.19-8.26,3.89-12.75,3.77-4.15-.11-7.56,9.17-13.17-.86-19.15-34.24-40-67.5-60.14-101.21-1.29-2.7-2.13-5.48-5.2-3.23-3.6,2.32-1.74,5.45-.34,8,17.24,31.81,36.46,62.49,53.86,94.19,1.85,3.41,10.08,9.42-.26,13.62-3.2,1.3-6.25,3.47-9.53,3.85-2.33.28-4.31,4.57-6.34,1.54C113.78,83.84,86.1,42.08,55.3,2.44c-3.23-5-9.29.44-5.5,4.42C77,41.71,99.84,79.52,126.23,115c6.83,9.61,11.38,16.6-4.58,21.54-4.64,1.44-6.66,2.93-10-1.35C76.43,92.51,42.88,48.54,8.47,5.24c-1.87-2.86-7.12-4-7.63.07C5.4,17.82,17.73,26.85,24.41,38.09,51,74,78.56,108.9,106.29,143.92c1,1.32,1.78,2.87-.91,3-7.33-.26-11.45,14.16-18.66,8.41C60.3,128.89,34.18,102.18,7.79,75.74c-2-2-4.63-6.39-7.79-3.83-2.33,1.9-1.91,5.22,0,8,23.22,23.57,45.22,48.7,68.69,71.93,9.31,8.14,12.88,14.76.35,21.75-3.89,2.18-6.25,10.13-12.8,5.35-18.33-11.84-34.16-28.77-53.92-37.77C-1,145.29,4.87,152,8.87,153.9c10.4,7.73,21,15.26,31.1,23.32,6.7,5.33,19,10.22,3.77,20.09-2,1.25-3.38,3.6-4.52,5.72-2.23,4.16-4.57,5.58-9.23,2.85-8.23-4.82-17-8.8-25.22-13.6C2.43,190.92,1,191.84,0,193c-2,1.88-1.27,4.81,1.14,6.15,7,4.46,13.6,9.79,21,13.56,4.79,2.45,3.71,3.48,1.17,6.84C10.56,234.53-1.63,251.85,0,272.59c.81,2.13,2.87,3.85,7.34,4.64,11.4,2,22.58,5.27,34.69,8.17C29.75,293,14.86,297.58,17,314.7c.65,5.76-.38,7.69-6.67,6.74-2.58-.39-5.79,2.46-8.46,4.21-2.78,4.46,2.88,6.59,6.34,5.34,17.36-2.95,31.34,6.12,44.67,14.39,4.82,3,19.41,3.65,12,17C58.49,373.9,52.41,380,38.32,369.88,31,364.41,4.48,356.7-.91,368.66c-.69,2.18,1.21,2.27,2.69,2.43,23.73,1,53.18,5.56,43.27,35.42-.82,2.95-1.93,2.9-4.43,2.61-10.89-1.6-40.73.35-42.77,13.66,3.7,6.33,22.14-7.48,30.5-5.87,12.11-.37,19.66,2.59,16.7,16.82-.33,1.54,1.26,3.39,1.25,5.1,0,4,3.8,9.36-1.37,11.9-9,3.26-48.7,30.75-43,40.34,2.67,2.49,5.87,0,7.36-1.93,8-10.5,18.45-18.11,29-25.64,6-4.34,12.77-15,18.31.7,2.48,3.08,7.52,9.22,3.57,12.39C36.33,495.05,17,518.33,1.86,544.07c-2.87,15.43,6.52,6.48,11-.63C24.07,521.87,40.9,504.8,57.6,487.67c1-1,4.62-7.34,7.51-1.52,10.68,25.05,2.78,73.4-9.88,97.14-15.54,27.35-37,50-58.33,72.65C-7.78,660.37-4.45,666.24,0,667.37Zm126.13-15.06c-2,3.23.47,8.29-4.46,10.08-8.41-57.48,66.15-68.8,103.53-44,2.75,1.39,7.18.8,7.54,4.62-4,3.5-17,5.62-20.79,10.47C194.39,657.25,156.09,608.14,126.13,652.31ZM117.44,515c.86-5.92,6-11.73,10.93-4.42,11.25,11.25,17.24,25.81,19.36,40.54a97.28,97.28,0,0,1-7,53c-1.08,2.46-3.33,1.5-4.53-.47C120.15,579.44,114.81,548.19,117.44,515Zm144.41,86.41c.32,8.81,2,17.83,8.58,24.56-23.86,1-40.94-18.1-62.64-25.28-3-1.73-3.24-3.55-2.52-5.31,16.32-27.18,17.64-60.1-2.28-88a259.9,259.9,0,0,1,60,19.22c8.22,3.75,16.29,7.85,24.57,11.47C302.4,542.63,258.77,561.62,261.85,601.36ZM207.13,542c3.1,19.16-2.91,36.54-10.93,53.5-2.29,2.23-15.7.17-20.87-1,13.39-22.64,13.57-65.89-12.35-93.2C189.75,504.73,202.76,514.77,207.13,542ZM175,559.32c-3.55,13.38-.72,39.39-20.86,39-3.61-.32.69-3.71,1.07-5.71,5.33-27.27,4-54.31-12-78.22-1.84-3.38-8.6-6.54-6-9.15,5.06-5.17,12.12-1.6,16.83,2.09C170.69,520.38,173.1,539.56,175,559.32Zm-19.85,125.8c1.47-13.77,14.42-9.37,19.68-16.81.27-.53-.85-2.53-1.58-2.69-15.7-4.76-29.7,9.53-28.85,25.28-10.23-8.63-12-20.22-8.73-31.08,5.74-18.72,30.56-19,47.36-14.42,25.6,2.34-18.58,39.07,13.65,68.93C176.74,716.5,154,700.46,155.19,685.12Zm100.23,31.73c-3.19,1.13-6.35,3.62-10.6,1.24,6.91-5.94,13.44-12,10.39-22.41-.61-2.12-1.4-3.6-3.25-3.3-1.15.18-2.45,1.94-3,3.26-3.69,9.86-10.36,16.27-21,17.18-21.84,4.69-29.91-27.71-9.14-36.41C261.76,650.47,298.65,702.08,255.42,716.85Zm27.66-7c-.59.55-1.67.55-2.53.81,9.44-47.49-39.52-62.46-72.84-37.15-6.58,4.24-9.4,11.48-9.49,19.25,0,2.69,1.74,5.4-.47,8-13.52-16.58,4-45.75,18.31-57.87,19.16-14.78,38.64-13.74,58.39-3.63C299.66,650.86,311.19,690.56,283.08,709.83Zm28-23.88a4.43,4.43,0,0,1-1.59.6c-1.14-16-3.59-30.24-16.38-44.79,12.46,5.28,21.93,1.74,31.8,0,3.25-.58,4,7.94,3.6,11.28C327.11,666,320.54,676.89,311.1,686Zm15-4c11.42-12.63,13.79-27,8.34-42.92-1.22-3.56,2.71-1.84,3.5-3.73.53-1.24,3.94-1,5.09-2.26C359.74,616.36,358.36,673.18,326.12,682ZM493.71,486.32c-23.23,30.8,1.87,69.1-6,102.54-24.9-28-47.2-61.53-84.27-75.1-2.43-1.11-4.8-1.45-6.13,1-1.46,2.65,1.23,3.48,3,4.41,31.25,18.19,57.35,42.34,76,73.45-39.7-22.92-75.05-48.72-120.41-51.19-.61-.49-4.23,3.52-2,6.9,22.34,32.39-11.22,82.21-46.3,80.12-11.92-1-29.14-18.13-30.72-30.31-3.92-50.51,59.06-74.62,93-99.4,3.36-2.25,12.52-2,8.48-8.59-2.55-4.18-9.48-.11-13.91,2.56-20.27,12.17-42,22.1-59.7,38.21-2.76,2.51-4.93,2.29-8.31.49-43.36-24.06-92.59-40.64-142.62-40.29-10.88,1-21.58,4-32.45,4.88-6,.49-2.29-5.69-2.79-8.22-5.32-44.76-7.83-91.37-33.31-130.25,2.33-7.29,16.25-15.28,23.09-20.34,12.25-9.42,15,4.44,20.36,9.06,9.9,10.46,101.52,77.31,108.3,55-45.18-19.8-89.86-45.93-122.08-85.87,41.56-6.15,78.25,22.43,77.95,9.74-1.36-14.59,5.19-27.52,9.88-40.3,6.88-18.76,18.34-35.51,30.54-51.51,5.91-7.74,10.09.52,13,2.52A155.93,155.93,0,0,1,278,264.42c6.93,8.42,14-.79,16.08-5.87,4.86-12,12.65-23.05,13.08-38.18,14.08,22.28,23.44,44.21,26.85,69.49,9.74,26.67,50.83-50.63,49.09-62.56a72.34,72.34,0,0,1,2.77-8.22c21.68,42.43,21.21,91.71,15.52,137.46,20.1-4.36,38.73-15.15,56.05-26.34,1-.68,2.07,7.77,2.34,11.65,5.25,35.66-37.84,69.19,3.52,93.74,11.08,6.13,27.31,2.46,33.71,17.23C501.81,464,500.74,477,493.71,486.32ZM51,278.05c14.42-29.09,63.16,7.47,75.53,24.71-7.43,1.43-17.15,6.54-21.89,3.61C89,296.68,75.3,283.75,55,284.88,49.75,285.17,51.42,280.88,51,278.05Zm-6.15-38.53a114,114,0,0,1,40.9,3.93c4.79,1.11-1.17,9.76-1.44,13.21C72,250.13,61.34,243.52,44.87,239.52Zm294-81.9c1.48-23.34,22.77-48.51,43.14-58.41.76,21.51-1.71,44.7-13.42,62.13-8.27,12-22.95,19-30.67,31.45-.26-2.28-1.39-4.91-.63-6.78C341.08,176.67,338.71,167.16,338.9,157.62Zm93.89-31.54c-2.19,19.63-9.85,37.85-18.79,55-5,7.51-18.56,10-27.17,15.48-3-11.43-.87-23.27-8.72-33.33a2.58,2.58,0,0,1,.27-3.58c14.64-16.24,34.2-24.68,52.1-36.24C432.66,122.31,432.86,124.54,432.79,126.08ZM735.28,300c14.79,11.28,24.32,25.87,32.43,41.87-.55,1.51-1.31,2.78-3,1.33-14.37-11.29-31.36-18.32-48.9-16.85-20.53,1.73-22.87-18.19-35.9-24.87-10-5.26-18.43-13.68-27.62-20.49C680.88,274.12,710.94,282.57,735.28,300Zm-24.15-25.21c28.26-22.69,60.91-34.31,95.35-41.36-19.46,16.29-43.13,30.35-54.63,53.84-3.89,8.14-7.86,7.59-13.15,3.53A111.83,111.83,0,0,0,711.13,274.82ZM685.78,582.57c-.91-8.9,8.16-3.84,10.58-2.82,47,13.25,94.38,56.37,77.83,109.62-15.36-38.63-44.33-73.17-86.11-82.16-3-.91-3.33-2.39-3-4.61A76,76,0,0,0,685.78,582.57ZM760,605c-38.55-41-73.26-19-77.35-50.73-1.68-6.57.45-14.17-5.12-20-1.93-2,.77-1.33,2.37-1.48,46.38-1,92.47,27.53,107,72.05,5,11.84,4.55,27.38-2.2,38-.49-.46-1.32-.86-1.43-1.4C780.12,626.34,770.2,615.45,760,605ZM545.85,339.59c60.8-39.84,137.55-28.76,178.59,33.19-43.05-26.76-93.75-19.71-135.14,2.93-5.83,2.69-7.48,1-11-1.55-12.58-9.11-25.87-17.36-37.66-27.38C535.22,342.19,544,340.64,545.85,339.59Zm-28.65-3c-12.86-5.65-26.32-9.82-39.2-15.42,8.18-13.21,30.51-25.56,43.9-33.92,53.55-26.05,123.43-8.53,164,35.63-40.09-22.74-82.36-20.37-122.15-1.71C544.38,326.87,537.1,346.74,517.2,336.54Zm74.87,46c41-20.08,93-29.68,130.88,1.59a92.83,92.83,0,0,1,37.51,62.48c-35-32.18-88-37.17-131.65-21-1.74.65-6.49-6-9.42-9.54-8.55-10.41-16.4-21.45-27.65-29.31C589.54,385.28,587.36,384.73,592.07,382.56Zm49.71,47.36c60.66-20.7,147.67,20.15,135.74,90.95-27-31.55-72.66-59.27-115.62-42.61-8,3.45-6-6.7-7.91-9.91-6.52-11-13.71-21.62-20.14-32.64C627.62,425,640.94,430.11,641.78,429.92Zm29.45,53.51c49.67-10.11,97.45,29.14,113.18,74.3,2,5.32,6,12.61-.17,18.11-23.46-34.41-65.75-50.1-106.64-51.72-5.45-.11-5.68-12.3-8.47-18.86-2.14-5-3.79-10.28-5.5-15.48C661.09,482,668.87,484.12,671.23,483.43Zm111,211.43c6.53-8.64,7.63-19.12,6.93-29.77-.08-1.28.48-3.64,1-3.73,26.13,10,42.11,47.74,28,73.56-8.87-14.54-20.18-26.08-34.71-34.46C781.77,699.51,779.45,698.49,782.19,694.86Zm14.59-40.64c-6.06-3.18-1.63-5.34-1-6.71,7.09-16.76,6.48-33.34,0-50.34,37,20.11,53.79,50.57,34.09,93.43C822.11,675.39,811.77,662.12,796.78,654.22Zm8.13-60.82c-22.35-9.24,5-17.37-19.15-58.36,12.85-2,21.93,6.75,31,13.16,27.39,19.27,30.11,50.8,27.47,84.08C835.6,613.83,821.79,600.62,804.91,593.4Zm39.74-36.9c0,1.2-1.14,2.37-1.74,3.56-18.31-21.77-30-29.34-57.25-34.73,14.51-30.7-15.12-59.29-5.95-61C822.34,467.4,848.13,518.62,844.65,556.5Zm-22.32-83.74c-13.6-10.31-27-17.8-45.21-16.28-10.22.57-6.77-11.09-7.39-16.24-2.35-19.45-13.61-33.65-25-50.05C785.38,397,816.67,434,822.33,472.76Zm-32.18-73.15c-10.89-8.67-24.2-12.68-36.58-18-17.75,4.5-17.72-11.51-23.29-20.59-4.62-7.52-11.14-13-17.15-19.13-20.37-17,46.35-2.63,64.27,29.12,6.32,9,13.54,18.47,15.18,29.56A10,10,0,0,1,790.15,399.61ZM693.07,268.76c-.62,2-1.47,2.49-3,2.09-15.72-4-31.27-3.92-47,2.21,13.26-22.65,82.46-69.79,102.75-69.51C724.54,222.56,703.48,242.55,693.07,268.76Zm-65.33,1.55c-8.75-10.08-20-17-33-22.29,26.53-29.61,57.85-52.24,96.66-69.94C662.76,205.89,639,233.59,627.74,270.31Zm-13.7-.38c-40.34-11.31-82.58-5.69-114.73,20.81-8.83,7.06-18.82,12.87-25.59,22.28-8,11.17-15.15-1.2-22.84-1s-14.25-7-22.72-5.95c-1,.12-3-1.13-3.07-1.95C467.43,252.32,555.55,229.12,614,269.93ZM450.72,322c-10.71,10.84-26.28,14.9-39.7,23.21,1.43-10.69,2.66-20.6,4.48-30.41.06-.33,6.18.11,9.36.78C433.46,317.65,442.4,319,450.72,322Zm121.51-95c-12.8-8.54-24.59-5.56-8.11-20.31,20.31-16.51,41.64-36.3,66.89-43.22C580,207.61,590.61,247,572.23,227Zm.21,12.25c.21.14.19.6.68,2.45-59-9.7-120.52,11.63-159.65,57.73a180.67,180.67,0,0,0-4.23-44.6c-1.24-5.86,5.7-6.51,8.81-8.71C462,215.17,527,207.09,572.44,239.26Zm-167.09,7.27c.68-23.15-26.71-36.27-6-45.32C439.91,183,498.82,170.63,530.82,210c-36-3.92-70.35-.72-102.29,17.53C420.65,231.71,411.51,236.41,405.35,246.53Zm134.32-40.88c-7.26-11.26-17.81-18.77-29.6-24.19-5.53-2.54-2.61-4.2-.62-5.94,18.76-16.22,43.48-20.09,66.55-26.69l2.7.92c-12.79,18.23-28.15,34.48-35.85,55.95C541.93,208,540.59,207.09,539.67,205.65Zm-43.79-32.77c-1.74,2.16-1.87,2.06-9.13,2.06-19.62-4.19-39.22,1.52-58.77,3.51,23.62-29.28,66.89-58.19,104.81-60.58C526.55,139.4,509.09,155.47,495.88,172.88Zm-121,2.8c9.25,38.4-5.91,79.17-31.66,107.06-.69-1.43-1.9-2.83-2-4.3-1-15.72-9.1-29.07-14.27-43.38-3.08-8.53,4.13-13.74,7.16-19.69,9-17.85,23.17-32.24,38.13-45.43A38.46,38.46,0,0,1,374.87,175.68ZM321,219.45c-1.23,4.32-6.35-4.19-7.8-5.46-2.18-3-2.65-8.58-7.71-7.56-6.47,1.53-5.7,8.84-6.57,13.61-2.08,12.69-9.88,23.38-12.25,35.89-.12.61-2.9,1.33-2.95,1.24-4.45-8.8-18.79-12.36-12.74-26.87,11.28-30,30.91-57.43,58.9-73.33C332.74,178.68,326.09,199.86,321,219.45Zm-56.56,1.89c-3,17.34-10,8.15-17.5,4.74-16.6-7.59-4.19-17.13-.89-24.42,6.68-13.09,18-25,30.39-32.79C278.58,185.75,266,203,264.39,221.34Zm-10.53-44.58c-4.23,7.42-7,6-11.21-1.86-7.53-14.2-13.21-29.64-24.3-41.84-2-2.24-1.92-6.07-4.55-8.57,18.56,10.52,31.65,27.69,45.61,43.36C263.17,172.36,255.65,173.62,253.86,176.76Zm-14.77,15.52c-16.49,46-5.33,22.73-28.64,1.23-3.43-3.55.21-5.09,1-6.93,3-7.32,9.91-6.18,15.79-5.74C234.05,181.36,237.54,186.23,239.09,192.28Zm-28-16.06c-6.74,8.77-9.19,2.88-13.47-2.59-8.15-10.42-17.31-20.06-26.05-30l.74-1.65,47.22,29.85C216.48,173.34,212.81,174,211.12,176.22ZM221,222.63c6.06,10.51-6.54,13.15-8.23,20.38-.41,1.74-2.1,3.18-3.2,4.76-1.48-2.05-3.55-3.88-4.35-6.17a66.76,66.76,0,0,0-24.85-32.94c-6.2-5.48,10.31-10.39,13.23-12.09C209,199.72,214.57,211.49,221,222.63Zm-60.27-43.14c-6.07-4.43-11.49-9.76-17.21-14.68.2-.31.39-.62.58-.93l41.55,23.66C171.5,203.81,168.2,184.93,160.71,179.49Zm10.26,33a74,74,0,0,1,31.8,44.19c.85,3.29-1.67,8.42-4.18,11.38-3.7,4.35-3.71,9.88-6.89,15-7.7-21.1-16.19-41.27-35-54.39C142.43,219.68,160.82,205.78,171,212.45Zm11.24,103.43c-.12,1-9-.86-11-5.13C161.29,290,150,270.19,133.13,254.2c-4.66-5.45-17.64-9.23-13.66-18.12,2.53-4.87,5.84-9.82,12.86-9.19,30,6.9,45.47,37.51,53.5,64.75C188.46,300.51,183.14,307.79,182.21,315.88Zm-37.94-99.15C127.1,205.67,111.45,192,92.06,184c21.87,3.73,42.79,10.3,67.32,21C146,204,146.43,211.35,144.27,216.73Zm-23.82,4.45c-3,4.39-5.07,9.58-8.74,13.22-2.75,2.73-4.22-2.38-6.43-3.62-13.39-7.48-26.47-15.51-38.6-22.73,16.81,3.51,34.85,7.28,52.9,11C121.2,219.39,121.52,219.61,120.45,221.18Zm-15.11,27.7c28.25,5.12,42,37.07,55.84,58.55-19.56,3.53-28.81-8.84-39-21.65-6-7.54-15.37-12.91-24.1-17.62-7.82-4.23-6-10.56-4.56-15.75C94.85,247.39,101.15,248.36,105.34,248.88ZM638.93,614.13c-.08.89-.25,1.78-.41,2.85-36.64-41.89-74.58-81.85-104.4-129a451,451,0,0,0-33.91-47.87C494,432.3,483,431.43,473.64,429c-9.87-2.58-18.58-8.08-21.72-17.25-1.59-4.64,3.78-11.65,6-17.61,5.49-10,3.51-28.14,17.84-16.73C567.25,416.61,643.21,511.39,638.93,614.13Zm17.15,21.48c-6.38-5.89-9.33-11.49-6.55-21.47C657.12,509.37,566.47,397,469,365c-1.67-.7-2.29-1.44-1.82-2.73,3.54-9.68,1.74-19.57,1.33-29.4-.11-2.63.64-2.5,8.81.17,93.62,26.6,168.9,109.15,189.78,203.83a160.32,160.32,0,0,1,7.68,65.43c-1,14.23-.73,30-8.25,42.69C662.61,642.37,659.54,638.77,656.08,635.61ZM509,837.36c24.76-22.09,50.77-39.6,74-62.41,30.57-32.12,59.6-66.58,84.34-103.59,1.52-2.22,2.58-3.2,5-.21,4.6,8.29,33.41,23.05,23.89,33C645.62,755.26,578.38,815.73,509,837.36Zm221.85-91.19c-57.8,47.59-119.49,82.15-195.7,91.41,67.9-32.73,121.26-76.67,170.95-131.09,2.86-3.38,4.32.79,5.57,1.91,8.13,7.3,15.5,15.52,24,22.36C747.54,740.3,733.56,744.06,730.89,746.17Zm34.41-38c-1.64,8-.23,17.1-5.07,24-15.42-13.21-33.63-23.73-46.38-39.73-11.5-13.32-25.71-23.44-37.29-36.27-4.13-4.58,2.09-11.13,3.19-16.86,6.54-13.35-2.52-30.2,19.33-20.17C733.17,635,763.63,670,765.3,708.14ZM786.47,750c-20.64-7.39-11.88-23.14-10.05-36.48.79-5.82,2-5.8,11.14,1.56,17.25,13,27,32.86,28.52,53.61C805.94,762.46,796.62,755.63,786.47,750ZM585.12,920.31c79.78-25,148.23-75.34,203-137.25,13.28-15.89,20.94,2.4,30.73,5.59,14.88,4.85,1.55,10.2-1.49,12.93-43.88,41.91-96.17,73.58-151.26,98.7-18.31,7.18-37.85,11.16-56.81,16.71C601.61,919.25,594.06,922.31,585.12,920.31Zm282.94-102.1c-56.42,47.3-122.12,87-196.2,97.19-14.71,1.59-28.11,9.08-43.63,7.22,74-25.37,143.86-61.93,199-117.54,5.87-6.66,11.11-7.83,18.75-4s15.69,6.36,23.23,10.15C874.45,813.8,869.64,816.93,868.06,818.21Zm5.24-55.82c29.33,14.61,53.81,36.06,79.61,55.66,1.74,1.32,5.1.77,5,4.65-15.14,1.38-28.28-6.13-42-10.27C892.6,805.37,870.75,794,848,785.61c-18.44-6.81-23.22-19.75-24.74-36.17C821.82,730.36,865.43,759.81,873.3,762.39Zm31-22c7.52,4.08,13.85,10.34,20.72,15.61-.23.45-.45.9-.68,1.36a251,251,0,0,0-70.47-21.15c-6.43-.53-13.21-.82-19.08-3.12-7.42-2.92-.74-9.21-1.28-14-2.39-20.91,10-8.72,16.15-6Q877.43,725.8,904.3,740.37Zm52.09-20.85c1.47,1.56,3.2,2.88,4.81,4.31-38.42-20.3-79.22-27.53-122.26-27.05a51.28,51.28,0,0,0,9.44-32.1c-.53-14.91,5.28-13.3,14.57-9.2C898.1,671,929.92,691.35,956.39,719.52ZM938.2,631.37c6.9,5.51,13.06,12,22.9,21-37.75-14.25-67.58-14.78-104.25-13.43-3.05.06-3.3-.36-3-3.72,1.24-13.8,4.54-27.82.39-41.48-2.58-8.5,2.84-5.57,5.69-4.52C888,599.63,914.69,612.62,938.2,631.37Zm17-52.8c-16.56-3-28.92-7.27-41.15-6.92-17.07.48-34.24-3.32-51.18.64-8,1.88-10.28-.49-9-8.78,1.35-9.07,1-18.38,1.49-27.91C891.76,537.55,922.49,554.66,955.22,578.57Zm9.42-59.87c-39.37-8.77-73.51-2.84-111.37,5.35-4.45,1.1-2.34-6.15-3.93-9.36-4.24-8.57-5.86-18.49-14.52-25.16C880.36,483.14,922,492.31,964.64,518.7Zm-36.71-78.17c7.41,2.55,14.14,7.42,22.27,7.84-37.51,5.94-77.76,5.13-111.5,24.72-4.61,2.75-5.31-.6-5.43-2.83-.58-10.56-4.93-19.75-9.41-29-.71-1.47-1-3.85-.32-5.13,1.3-2.31,2.67.55,4.06.66C860.56,427.64,895.32,429.23,927.93,440.53Zm-65.34-60.35c10.12-3.43,22.09-1,33-2.48,6.75-.93,12.75,2.12,19.25,1.4,11.64-1.29,22.48,3.52,33.93,5.23-45.13,6.83-88.49,21.06-129.25,41.05-8.44,3.33-8.13-6.88-12.19-10.37-2.28-2-.9-7.64-2.44-11.08-7.8-17.46,8.2-12.23,14.54-14.58C833.25,384.24,848.35,385,862.59,380.18ZM822.23,365c-7.75,4.83-16.51,8.42-22.34,16-2.5,3.26-3.95-.12-4.41-1.34-2.1-11.81-27.69-25.49-10-32.7a259.11,259.11,0,0,1,72.08-22.46c13.08-2,26.16.37,39.21-2.74,3.91-.93,10.7.19,16.39,1.85C880.22,332.58,850.55,347.35,822.23,365Zm63.48-79.73c8.27-2.07,11.33,5.36,16,9.66,7.34,6.8,14.56,13.73,22.84,21.56-46.81-7.7-89.85-1-132,15.85C818.42,307,851.23,293.36,885.71,285.26ZM878.44,278c-34.11,8.05-71,21.58-94.18,47.75-10.81,12.92-12.19,7.1-16.29-3.21-2.22-8-20.94-18.81-5.79-23.71C798.25,281.33,838.2,271.09,878.44,278Zm-24.2-27.25c7.34,5,13.43,11.76,21.34,18.88-38.32-6.06-73.9.76-109.28,16.3,14.72-22,34.23-36.11,55.12-48.39C837.28,228.17,844.36,244.05,854.24,250.7Zm-80.58-54.89c6.62-3.8,11.5,4.26,16.86,7.36,9.79,5.67,19.09,12.17,29,18.59-41.46,5.88-78.27,19.2-112.33,41.46,1-2.58,1.36-5.71,3.08-7.64C728.82,233.46,748.2,210.34,773.66,195.81Zm-42.55-27.07c2.55.82,39.83,18.91,29.94,20.12-41.79,9.83-79.56,32.83-113.33,59.19C658,231.64,710.52,155.37,731.11,168.74Zm-68.59-18.42c8-1.38,16.74,1.54,25.07,3.05,8.08,1.47,15.16,6.82,27.93,5.24-46.73,18.86-88.11,38.51-121.42,72.94,13.44-23,27.07-46.27,47.13-64.23C647.9,161,653.44,151.9,662.52,150.32Zm-22.92-2.87c-31.57,17-59.79,29.71-84.63,54.83,12.93-19.24,22.56-42.5,42.17-55.89C610.5,142.11,624.11,146.85,639.6,147.45ZM618.88,81.62c14.55-.29,3.57,11.6,2.4,15.14-4,12.24-10.73,23.58-16.41,35.27A4.81,4.81,0,0,1,600.2,135c-28.19,2.23-55.23,9.17-79.82,23.37,10.43-16.19,19.68-26.82,22.72-44.87,1.66-5.67,7.41-6.52,11.58-9C574.62,92.82,595.51,82.08,618.88,81.62ZM534,57.59c17.59-6.35,36.24-10.84,55.06-11.63,3.52-.15,2.74,6.8,2.73,10-.07,14.85-6.52,25.1-21.23,31.12a101.55,101.55,0,0,0-31.37,19.68c-3.46,3.25-10.28,3.37-15.68,4.06-35.6,3.8-63,22.9-88.21,45.83,4.1-10.08,3.14-20.79,5.16-31.12C464.25,95.54,497.09,70,534,57.59ZM417.57,60.46C437.2,43.69,454.27,24.07,476.06,10c-4.54,38.31-24.19,70.34-39.8,104-2.89,4.17-11.18,4.35-16.72,7-10.1,4.82-20.62,9-28.78,17.18-.7.7-2,.81-3,1.2C387,110,394.38,82,417.57,60.46ZM356.15,71.53C354.26,46,373.09,28.55,390.93,14c8.42-1.82-.76,36.56.54,43.27-.28,7.32-3.79,14.31-3.47,20.92.54,10.91-6.52,13.15-13.47,16.31-10.07,4.57-18,11.6-26.35,19.76C350.86,100,353.66,85.8,356.15,71.53ZM308,77.92c8.21-21.14,22.28-38.89,36.43-57.11,4.18,19.68,2.46,38.86,1.41,58-.52,9.56-10.2,7.51-14.71,12-6.67,6.68-14.51,3.49-22.25,1.89C296.63,89.79,305.33,82.51,308,77.92ZM288.54,97.38c.86-.27,2.51,0,5.51,1,3.68,2.42,14.84-1.3,19.82,3.22-7.87,7.17-13.85,16.63-22.32,23-1.54-7.9-2-16-3.59-23.89C287.65,99,287.41,97.74,288.54,97.38Zm10.17,35.75c11.68-15.58,24.9-29.37,42.34-38.56,6.51.46-8.21,46.17-10.16,52.72-1.28,3.88-5.45,2.87-8.14,4.4-15.17,8.64-26.65,21.53-38.69,33.31C286,167,287.12,148.6,298.71,133.13ZM261,99.24c5.25-.63,10.79.89,14.56-2,4.51-.53,5.39,0,4.91,4.13-.62,5.2.79,10.71,1.78,16,2.1,6.13-1,10.11-5.76,3.29-4.53-8-11.67-13.15-18.38-19C259,100.83,259.91,99.37,261,99.24ZM255.88,112c12.66,11.21,38.2,33.49,16.54,48.78-2,1-2.84-.5-3.1-1.93-2.57-14.43-6.94-28.31-12.1-42C256.66,115.34,253.5,114.79,255.88,112Zm-16.19-7.34c5.07.42,5.6,9.65,7.71,15,3.94,10,6.89,20.42,11.62,34.8-15.2-19.79-31.26-31.21-47.82-42.77C220.07,107.45,230,103.84,239.69,104.64Zm-47.51,12c2.88-1.17,3.57.18,4.47,1.47,11,15.81,23.71,30.52,31.72,49.43C207,152,185.56,137.58,159.31,128.13,171.56,123.93,182.05,120.72,192.18,116.61ZM126,145.16c7.26-3.64,14.63-7.06,22.3-10.72,13.86,11.62,25.24,26.08,38.07,38.89.94,1,1.09,2.72,1.6,4.11-2.16-.41-4.8-.16-6.41-1.34-17.32-14.32-37.73-20.77-58.5-27.61C124,147.36,124.73,145.78,126,145.16Zm-22.34,13.75c5.17-4.67,9.71-4,14.91-.78,15.17,9.42,28.52,21.13,41.63,33.12,1.32,1.21,1.79,3.35,2.65,5.05-25.76-9.77-50.18-21.93-79.73-21.62C90.66,168.94,97.56,164.39,103.62,158.91Zm-5.49,38.68c5.64,3.26,11.19,6.66,19.71,11.74-22.46-3.26-40.79-11.1-61.07-10.27C68.89,183.2,73.09,183.11,98.13,197.59ZM31.92,223c8-11.15,17-13.77,30-6.43,10.27,5.8,21,10.89,33.47,18.71-24.6-4.34-42.61-6.44-65.93-6.81C30.27,226.68,30.78,224.63,31.92,223ZM20,243.33c9.55,1.06,18.91,3.85,28.35,5.91-12,1.88-24,.95-35.45,5.56-.35.14-1.1-.72-1.67-1.11C15.05,250.88,13.79,242.63,20,243.33Zm10,30.82c-7.39-2.36-16-2.09-22.81-6.21,1.59-1.59,3-4.41,4.78-4.58,14.13-1.4,28.25-4,46.26-1.28-12,.78-12.26,8.24-15.69,13.53C39.45,280.42,34.23,274.75,30,274.15Zm-3.23,48C13.7,308.7,42,291.11,55.84,292.79c19.48,2.25,32.65,15.5,46.56,27.26,12.34,10.44-3.22,10.58-6.34,14.38-4.07,5-12,5.69-16,11.88-1.31,2-4.77,4.09-8.63.7C58.35,335.55,42.07,329.83,26.81,322.16ZM71.49,573.69C79.31,546,85.24,514,76.84,485.92c-6.28-17.56-15.56-34.1-21.09-51.84-2.82-2.89-1.49-43.08,5.35-33.61a154.94,154.94,0,0,1,15.86,37c2.16,4.6,2.05,14.91,8.56,14.83,7.1-7.92-13-57.48-19.26-67.18C61.81,377.75,70,370.82,75.4,366c15.71,8.86,21.91,53.59,26,71.68,13.73,57.06-10,121.37,26.57,171.75,3,4-3,6.42-4.7,9.58-2.77,5.28-7.13,9.69-8.48,15.82-.25,1.11-1.56,2-2.37,3C90.55,606.28,96.61,589,97.55,553.3a3.71,3.71,0,0,0-3.67-3.79c-5.38-.61-5.52,8.57-6.55,13.16-4.65,20.6-5.89,41.56,1.75,61.78,4.73,12.5,11,24,21.28,33.7,4.26,4,3.6,13.26,5.32,20.75C73.1,663.94,56.42,613.27,71.49,573.69Z"/></g></g><g id="Red_Japanese_Frames" data-name="Red Japanese Frames"><path class="cls-8" d="M0,20V1580a20,20,0,0,0,20,20H956a20,20,0,0,0,20-20V20A20,20,0,0,0,956,0H20A20,20,0,0,0,0,20ZM924,1548H52V52H924Z"/><path class="cls-9" d="M952.1,15.41,928.69,38.83A4,4,0,0,1,925.86,40H50.14a4,4,0,0,1-2.83-1.17L23.9,15.41A2,2,0,0,1,25.31,12H950.69A2,2,0,0,1,952.1,15.41ZM40,1549.86V50.14a4,4,0,0,0-1.17-2.83L15.41,23.9A2,2,0,0,0,12,25.31V1574.69a2,2,0,0,0,3.41,1.41l23.42-23.41A4,4,0,0,0,40,1549.86ZM936,50.14V1549.86a4,4,0,0,0,1.17,2.83l23.42,23.41a2,2,0,0,0,3.41-1.41V25.31a2,2,0,0,0-3.41-1.41L937.17,47.31A4,4,0,0,0,936,50.14ZM925.86,1560H50.14a4,4,0,0,0-2.83,1.17l-20,20a4,4,0,0,0,2.83,6.83H950.69a2,2,0,0,0,1.41-3.41l-23.41-23.42A4,4,0,0,0,925.86,1560Z"/></g></svg>