<svg id="Card" xmlns="http://www.w3.org/2000/svg" viewBox="0 0 1024 1680"><defs><style>.cls-1{fill:#f2f0ed;}.cls-2{fill:#8c1707;}.cls-3{fill:#d82e21;}.cls-4{fill:#593831;}.cls-5{fill:#f79d31;}</style></defs><rect class="cls-1" x="14.5" y="14.5" width="995" height="1651"/><polygon class="cls-2" points="966 1619.17 966 60.83 1018 8.83 1018 1671.17 966 1619.17"/><polygon class="cls-2" points="60.83 58 8.83 6 1015.17 6 963.17 58 60.83 58"/><polygon class="cls-2" points="8.83 1674 60.83 1622 963.17 1622 1015.17 1674 8.83 1674"/><path class="cls-3" d="M949.71,1262.61c-2.23,0-2.52-.84-6.13-11.12l-.39-1.1-.66-2c-1-3-2.07-6.19-3.86-8.4-8.3-10.32-3.24-18.79,1.22-26.27,1.06-1.78,2.07-3.47,2.89-5.16,3-6.16,7.23-11.73,11.32-17.12,1.43-1.89,2.9-3.82,4.28-5.73l3.62-5v73.2l-.68.6a88.3,88.3,0,0,1-9.68,7.36A3.44,3.44,0,0,1,949.71,1262.61Z"/><path class="cls-3" d="M928.71,1223c-.87,0-2.15-.39-3.29-2.23-6-9.64-15.2-16-24.13-22.21-3.17-2.19-6.41-4.43-9.49-6.79-4.93-3.79-7.1-7.21-6.65-10.46.64-4.59,6.13-6.78,10.13-8.37a22,22,0,0,0,2.7-1.19c9.43-6.16,19.1-9.29,28.74-9.29,10.09,0,20.09,3.43,29.72,10.17a6.89,6.89,0,0,0,1.79.75c.41.13.8.26,1.16.4l3.32,1.32-2.86,2.14c-6.36,4.75-10.55,11.28-14.61,17.59-1.48,2.31-3,4.7-4.65,7a49.81,49.81,0,0,0-8,17.14C932.18,1220.82,930.88,1223,928.71,1223Z"/><path class="cls-3" d="M935.85,1267.69c-1.21,0-2.39-.12-3.43-.22-.74-.08-1.37-.14-1.79-.14h-.1c-.57,0-1.15,0-1.73,0-15.2,0-29-5.47-38.91-15.42s-14.89-23.22-14.82-38.76l-.06-.87c-.42-5.8-1.06-14.56,5.17-17.93a5.5,5.5,0,0,1,2.63-.67c3.21,0,6.16,2.6,9.28,5.36a34.67,34.67,0,0,0,4.64,3.67c19.44,11.61,34.11,29.32,44.85,54.16,1.57,3.64,1.72,6.35.45,8.27C940.92,1266.86,938.89,1267.69,935.85,1267.69Z"/><path class="cls-3" d="M867.93,1029.06a5.06,5.06,0,0,1-4.47-2.17,4.7,4.7,0,0,1,0-4.74c4.09-8.37,1.7-17.29-.41-25.17l-.47-1.77c-2.94-11.1,4.83-16,9.47-19,13-8.24,23.84-13.15,34.1-15.46a14,14,0,0,1,3-.4,4.16,4.16,0,0,1,3.63,1.56c1.28,1.79.49,4.09-.28,6.31a11.74,11.74,0,0,0-.78,3.1l1.08.48,0,1.24c1.19,31.95-21.37,49.72-42.89,55.71A8,8,0,0,1,867.93,1029.06Z"/><path class="cls-3" d="M900.37,787.85c-2.24,0-4.59-1.46-5.8-2.33-21.49-15.58-31.76-37.39-31.42-66.68a58.69,58.69,0,0,1,1.13-9.36c.29-1.65.59-3.33.8-5,.35-2.81,2-3.23,3-3.23a6.08,6.08,0,0,1,1.87.38c27.48,8.82,40.88,27.2,41,56.17,1.87,6.18-.64,11.87-3.08,17.37a46.32,46.32,0,0,0-3.28,9A4.18,4.18,0,0,1,900.37,787.85Z"/><path class="cls-3" d="M860,980.82c-2.18,0-2.94-1.68-6.63-9.78-6.25-13.75-16.65-25.71-31.78-36.55-1.77-1.26-2.59-2.65-2.44-4.13.22-2.31,2.64-3.4,3.93-4l.32-.14c1.7-.81,3.44-1.68,5.12-2.53,7.25-3.64,14.06-7.06,21.39-7.06a21.69,21.69,0,0,1,3.71.31H855c22.36,0,39.29,9.46,51.75,28.92,2.42,3.77,3,6.66,1.87,8.83-1.68,3.13-6,3.22-9.47,3.29a15,15,0,0,0-2.6.18c-14.64,5.71-25.45,12.49-34,21.33A3.45,3.45,0,0,1,860,980.82Z"/><path class="cls-3" d="M855.75,811.64c-10,0-20.29-2.5-31.46-7.64L821,802.48l3-2c18.14-11.87,29.63-26.22,36.15-45.15l2-5.8,1.8,5.86c4.78,15.51,15,24.75,29,33.86.69.45,1.33.93,2,1.4.3.23.59.45.89.66l1.86,1.36-1.61,1.66c-.58.59-1.15,1.25-1.71,1.88a25.53,25.53,0,0,1-4.42,4.26C879,808,867.85,811.64,855.75,811.64Z"/><path class="cls-3" d="M861.54,1391c-21,0-37.52-12.19-38.47-28.36a32.7,32.7,0,0,1,8.44-23.84,35.27,35.27,0,0,1,24.62-11.72c.54,0,1.07,0,1.6,0,17,0,28.78,14.87,30,37.88.24,4.6-2.74,10.93-7.79,16.53s-11.1,9.26-15.73,9.49C863.32,1391,862.42,1391,861.54,1391Z"/><path class="cls-3" d="M876.34,1482.34a16.89,16.89,0,0,1-7.17-2c-5.91-2.88-12-3.43-21.08-3.43l-3.55,0h-1.23l-.71-3.37,1.14-.48c6.29-2.68,11-6.62,15.11-10.09,3.76-3.16,7.31-6.15,11.58-7.93a9.29,9.29,0,0,1,3.5-.77c5.64,0,6.93,6.18,7.88,10.69.23,1.08.44,2.11.68,2.89,1.57,5,1.38,9.21-.53,11.8a6.73,6.73,0,0,1-5.62,2.65Z"/><path class="cls-4" d="M824.21,1273.08c-7.76,0-8-7.56-8.1-12.57-.09-3.34-.19-7.14-2-8.27-1.6-1-1.91-3-2.18-4.75a8.86,8.86,0,0,0-.61-2.51c-1.7-3.07-2.07-5.52-1.13-7.49,1.37-2.83,4.91-3.43,7.5-3.87.56-.09,1.07-.18,1.53-.28,4.82-1.09,9.79-1.72,14.59-2.32,10.5-1.32,21.36-2.69,30.62-9.11a4.17,4.17,0,0,1,2.41-.87c2.78,0,3.24,3,3.47,4.52a7.25,7.25,0,0,0,.16.9c.93,2.46,1.74,5,2.53,7.38a90.06,90.06,0,0,0,4.9,12.78,4.94,4.94,0,0,1,.39,4.22c-.91,2.19-3.39,3-5.58,3.73a12.1,12.1,0,0,0-2.69,1.1c-4.51,3.24-9.65,5.09-14.62,6.89-5.34,1.92-10.87,3.92-15.35,7.63l-1.59,1.31-1.26-1.62c-.44-.55-.76-.74-.9-.74a4.47,4.47,0,0,0-1.52.78,11.06,11.06,0,0,1-1.7,1A24.46,24.46,0,0,1,824.21,1273.08Z"/><path class="cls-3" d="M850,1512c-16.81,0-28.47-8.34-32.85-23.48a4.36,4.36,0,0,1,.76-3.91c2-2.72,7.63-4.34,14.94-4.34h.81c.84,0,1.75,0,2.66,0,12,0,24.75,1.91,40.12,6,2.48.66,3.93,1.75,4.45,3.3.75,2.28-.86,4.29-2.14,5.92a13.35,13.35,0,0,0-1,1.31c-5.5,9.57-15.48,15.11-27.38,15.2H850Z"/><path class="cls-3" d="M821.62,1477.49c-.72-.23-1.49-.46-2.21-.66-2.62-.75-4.2-1.2-4-3.07.42-4.59,1.49-11.31,5.88-16.77,7.72-9.57,17.26-14.43,28.37-14.43a48.86,48.86,0,0,1,15,2.58c2.1.68,2.76,1.89,2.94,2.78a3.58,3.58,0,0,1-1.35,3.4c-11.54,10.24-25.73,21.36-43.44,26.2l-.58.16Z"/><path class="cls-3" d="M851.11,1031.25c-2.84,0-5.76-1.29-8.59-2.53a23.1,23.1,0,0,0-5.54-2c-10.23-1.31-20.48-8.32-28.12-19.22-6.84-9.77-10.65-21.29-10-30.09.14-14.94,3.24-26.12,10.05-36.23,1.91-2.83,3.93-4.21,6.18-4.21,2.52,0,4.45,1.77,6,3.2l.59.54c17.16,15.29,36.89,37,37.15,69.77a8.72,8.72,0,0,0,.68,2.81,11.21,11.21,0,0,1,.87,5.83C860,1022.15,858.68,1031.25,851.11,1031.25Z"/><path class="cls-3" d="M816,797.23c-6.47,0-8.43-7-10-12.69a27.83,27.83,0,0,0-2-5.84c-4.52-7.7-6.37-17.09-4.84-24.56-.38-12.93,5.28-26.31,15.56-36.73,9.79-9.92,22.84-16.16,34.9-16.69l1.29,0c4.53,0,7.56,1.21,9,3.58,2.29,3.76-.35,8.83-1.61,11.27-1.84,3.54-1.22,6.72-.57,10.09a32.57,32.57,0,0,1,.7,4.92c.94,23.73-9.42,43.9-31.67,61.66C822.47,795.59,819,797.23,816,797.23Z"/><path class="cls-4" d="M677.57,1162.68c-2,0-3-1.73-3.41-2.56l-.13-.24c-11.88-12.72-26-18.9-43.28-18.9a86,86,0,0,0-17.08,1.83,9,9,0,0,1-1.83.16c-.43,0-.9,0-1.4,0s-1.1,0-1.74,0h-4l2.35-3.19c2-2.71,3.86-5.62,5.67-8.43,4.29-6.71,8.34-13,14.23-17.32a28.9,28.9,0,0,1,17.12-5.47,34.87,34.87,0,0,1,16.29,4.22c2.2,1.18,5.1,2.52,8.1,2.52a9.91,9.91,0,0,0,2.43-.29c0-.05,0-.1,0-.14-1.49-2.32-3.9-3.35-6.68-4.54-1.18-.5-2.39-1-3.57-1.66a27.6,27.6,0,0,0-13.46-3.68,29.53,29.53,0,0,0-11.4,2.44l-5.81,2.41,3.36-5.33c1.94-3.08,4-6.24,5.82-9,9.65-14.82,18.77-28.82,22.25-45.29,2.46-11.62,2.85-24,3.22-35.93.08-2.54.16-5.06.26-7.58.38-9.64.35-19.46.33-29,0-4.85,0-9.87,0-14.88,0-1.27,1.32-3.59,3.11-3.59h.12c4.84.41,8.73.87,12.26,1.47a2.12,2.12,0,0,1,1.49,1,7.18,7.18,0,0,1,.41,4.76c-2.56,7.74-2.12,15.9-1.7,23.8.21,4.06.44,8.26.27,12.43l-.07,1.55c-.15,3.44-.31,7-.15,10.39a21.32,21.32,0,0,1-.11,2.48c-.07.88-.24,3,.12,3.35,0,0,.12.09.54.09,1.88,0,3.38-3.53,3.42-6.56.2-13.81.4-28.07-.05-42.4-.22-7.13,3.36-11.27,10.64-12.31a42.57,42.57,0,0,0,11.8-3.81,20.77,20.77,0,0,1,8.14-2.21,6.13,6.13,0,0,1,5.33,2.48c2.59,3.67.83,9.94-.73,14.35,0,0-.13.36-.15.43-2.85,11-.81,22.1,1.73,33.46,4,17.8-5.68,26.82-15,35.55l-.09.08c-.86.8-1.73,1.61-2.59,2.44s-1.74,1.52-2.72,2.3c-4.61,3.68-5.08,4.84-4.11,6.26.06.09.11.14.14.18.76-.21,2.51-2.13,3.37-3.07a24,24,0,0,1,2.69-2.67c2.64-2,5.31-4.09,8-6.12,19.95-15.26,40.58-31,52.51-54.28,6.54-12.75,7.69-27.13,8.81-41,.31-3.87.62-7.85,1.05-11.76,1.07-9.73,1.07-19.58,1.07-29.1,0-3.82,0-7.67.06-11.47.35-20.37.3-41.08.24-61.1,0-17.71-.09-35.95.14-53.9.15-12.18,3.38-23.92,6.5-35.27,1.71-6.19,3.46-12.57,4.68-18.9,2.21-11.55,6.28-22.51,10.21-33.1,1.75-4.73,3.57-9.61,5.17-14.44,3.38-10.2,5.88-20.8,8.29-31,2-8.56,4.09-17.4,6.69-26,3.07-10.22,2.9-21.59,2.5-31.44a58.87,58.87,0,0,1,.82-10.58c.33-2.39.66-4.84.77-7.21.43-9.4-.7-19.38-3.66-32.37l-.08-.35a2.12,2.12,0,0,0-.41.81c-.24,6.21-.39,12.54-.54,18.66-.27,11.26-.55,22.91-1.39,34.33-1.27,17.5-5,34.43-8.8,50.28-3.37,14.24-7.63,28.38-11.74,42l-1.44,4.8c-2.61,8.66-5.57,17.35-8.44,25.75l-.05.15q-2,5.8-3.92,11.6l-.66,2-2-.74-1.15-.45-1.36-.55,2.16-26.75q2.51-31.17,5.05-62.34l.73-9c1.44-17.58,2.92-35.74,4.52-53.61.5-5.62,1.15-11.29,1.77-16.78.58-5.12,1.18-10.41,1.67-15.65.56-6.07,1.05-12.26,1.52-18.24.72-9.24,1.47-18.7,2.49-28l.07-.65c1.58-14.33,3.21-29.15,10.5-42.4l.18-.33c1-1.87,2.88-5.35,6.18-5.35a6,6,0,0,1,4.5,2.45c2,2.27,4.16,4.51,6.29,6.68,7.82,8,15.91,16.25,16.3,28.73.72,22.92,1.31,49.56-.76,75.75-.7,8.83-.83,17.81-1,26.49-.08,5.88-.17,11.94-.43,17.92-.37,8.35-.53,16.84-.68,25.06-.28,14.68-.56,29.85-2,44.71a40.93,40.93,0,0,0,.32,8.36c.42,3.89.85,7.92-.24,12.19-1.8,6.93-7.06,9.28-11.7,11.36A26.7,26.7,0,0,0,817,708c-12.86,10.17-20,23.09-21.88,39.48-2.88,25.25,6.19,46,25.54,58.47,11.82,7.6,11.36,17.22,10.94,25.71a55.25,55.25,0,0,0,0,7.93c.93,9.45,1,19.08,1.13,28.4.08,8.25.16,16.78.83,25.08,1.38,17.06-5.34,29-18.91,33.7a2.39,2.39,0,0,1-.77.13,4.86,4.86,0,0,1-3.15-1.6,2.07,2.07,0,0,1-.46-1.77c.28-1.21.66-2.36,1-3.47a16.88,16.88,0,0,0,1.16-5.15,182.46,182.46,0,0,1,1.29-20c.94-9.21,1.91-18.73.73-28.08-1.3-10.18-2.38-19.55-3.3-28.65-.3-3-.73-3.1-1.75-3.15h-.2a3.13,3.13,0,0,0-.4,0,8.23,8.23,0,0,0,.1,1.38,12.54,12.54,0,0,1,.12,1.27c.13,5,.36,10.14.59,15.1.46,10,.94,20.25.55,30.2l0,.93c-.73,18.88-1.49,38.4-8.91,56.93-3.11,7.76-4.29,16.36-5.43,24.68-.63,4.61-1.28,9.36-2.25,14-2.54,12-11.63,20.17-20.41,28.07-2.51,2.25-5.1,4.58-7.45,6.93-.61.61-1.28,1.22-2,1.87-4.81,4.33-5.59,6-3.79,8,.18.2.34.31.45.31,1.06,0,3.29-2.59,4.49-4a31.07,31.07,0,0,1,2.32-2.51c1.84-1.67,3.74-3.31,5.58-4.9,6.4-5.52,13-11.23,17.35-18.68a9.38,9.38,0,0,1,2.14-2.31c.28-.24.55-.46.79-.7l1.55-1.52,1.39,1.67a7.83,7.83,0,0,0,.75.78,6.94,6.94,0,0,1,2.07,3,37.23,37.23,0,0,0,13.19,20.25c9.58,7.37,5.28,13.36,1.12,19.15l-1,1.42a197.22,197.22,0,0,1-13.62,16.6c-7.17,8.11-14.58,16.5-19.47,26.42a14.08,14.08,0,0,1-2.71,3.49c-.39.4-.77.8-1.13,1.22l-2.06,2.42-1.29-2.91a16.31,16.31,0,0,0-.81-1.52c-.82-1.42-1.74-3-1.6-4.81.41-5.31-2-9.35-4.8-14A41.73,41.73,0,0,1,760,1054c0-.13-.08-.28-.13-.46a5.94,5.94,0,0,0-1-2.48,2.2,2.2,0,0,0-.56.3,5.32,5.32,0,0,0-2.14,3.8,5.94,5.94,0,0,0,1.15,4.36,32.57,32.57,0,0,1,8.63,20.34c.44,7.08-1.14,14.34-2.9,21.12-3.21,12.3-12.55,16.36-22.66,19.76-13.42,4.49-26.51,11.92-40,22.71-6.59,5.26-12.85,11.23-18.9,17l-.85.81A4.44,4.44,0,0,1,677.57,1162.68Z"/><path class="cls-3" d="M826.7,1434.11c-11.15-10.52-25-15.83-40.67-21.21a8.28,8.28,0,0,0-.89-.22c-.95-.2-2.52-.53-2.93-2.09s1.1-3,1.84-3.68c9.12-7.91,16.37-17.7,22.8-30.8,1.37-2.77,3.1-4.18,5.15-4.18,3.18,0,5.46,3.53,6.83,5.64.18.27.44.68.56.84a39.73,39.73,0,0,1,13.58,30.7c0,1.17,0,2.34,0,3.51,0,6.83.07,13.88-3.08,20.86l-1.15,2.56Z"/><path class="cls-3" d="M784.47,1463.59c-13.65,0-26.55-3.68-32.86-9.36-4.76-4.31-8.26-9.31-11.43-14.07-.35-.52-1.41-2.12-.66-3.69a3.4,3.4,0,0,1,3.05-1.7l.2,0c7-2.22,13.14-6.39,19.08-10.43,3.29-2.23,6.69-4.55,10.24-6.53a12.94,12.94,0,0,1,6.52-1.66c4.91,0,9.86,2.34,14.65,4.6,2,.94,3.88,1.83,5.71,2.53,8.23,3.17,16.78,7,23.49,13.7.6.59,1.13,1.22,1.61,1.77l.72.84.65.73-.54,1.18c-4.38,9.58-12.22,14.1-21.27,18.61C799.1,1462.35,792.3,1463.59,784.47,1463.59Z"/><path class="cls-4" d="M763.84,1618l-.26-.11c-7.21-2.87-14.1-5.84-20-10.84-7.71-6.52-14.45-14.19-21-21.6-9.32-10.6-19-21.56-31.41-29-.26-.16-.52-.3-.78-.43a2.44,2.44,0,0,1,.09.73c-.07,3.15,1.68,4.37,4.8,6.26a23.66,23.66,0,0,1,3.19,2.18c7.43,6.33,13.15,14.09,18.69,21.6,2.75,3.73,5.6,7.59,8.6,11.19a80.72,80.72,0,0,0,18.59,16.36l5.72,3.68H653.61l-.59-.9c-4.91-7.5-10.16-15.47-15.71-23.36-3.79-5.4-7.47-11-11-16.43-10.34-15.75-21-32-35.53-44.8a18.21,18.21,0,0,0-2.92-1.92,19.94,19.94,0,0,1-3.77-2.56,12.72,12.72,0,0,0-1-.91c-.57,1.06-.36,2.2,2,4.49,11.1,10.87,20,23.69,27.55,34.86,10.49,15.59,21.37,31.41,33.26,48.38L648,1618H613.48l-.55-.47c-12.08-10.1-23-19.26-33.79-29-16.78-15.18-30.57-32.48-41.85-47.4-14.17-18.78-27.28-35.37-44.2-48.4a5.88,5.88,0,0,1-1.07-1.17l-.2-.27,0,.06c-1.18,1.56-1,2.3-.13,3.36q9.18,11.35,18.33,22.76l.07.08c11.85,14.74,24.11,30,36.36,44.81,16,19.29,29.41,32.82,43.61,43.86L605.23,1618H540.65l-3.24-6c-9-16.87-18.41-34.31-28.14-51.16-20.83-36-49.62-62.27-85.57-78A258.43,258.43,0,0,1,385,1462.24l-5.67-3.68h6.76c3.09,0,5.88.13,8.58.26,2.3.1,4.47.2,6.51.2a33,33,0,0,0,7.19-.65c13.38-3,26.13-8.76,40.12-18.23,5.59-3.78,12.93-13.29,18.68-24.23,6.15-11.7,9.08-22.34,7.82-28.45a4.43,4.43,0,0,0-1.86-2.17,7.15,7.15,0,0,1-.37,1.84c-1,2.61-2,5.32-2.87,7.93-2.43,6.89-4.93,14-8.48,20.4-9.91,17.94-24.62,29.81-45,36.29a71.17,71.17,0,0,1-21.23,3.07c-21.7,0-42-8.31-52.93-21.68a3.78,3.78,0,0,1-1.06-3.36,3.64,3.64,0,0,1,2.7-2.28,9.29,9.29,0,0,0,.87-.35c2.23-1.11,4.43-2.45,6.57-3.76a64.42,64.42,0,0,1,9.78-5.22c1.47-.58,2.76-2.19,4-3.74,1.87-2.33,4-5,7.4-5a7.64,7.64,0,0,1,3.06.69c5.39,2.38,10.22,6,14.88,9.51,1.66,1.25,3.38,2.54,5.07,3.74,2.41,1.7,6,2.61,10.42,2.61,10.39,0,22.15-5,25.68-10.84,6.5-10.83,11.41-22.74,16.16-34.25,5.87-14.23,11.94-28.94,21.12-42,1.28-1.83,2.71-3.52,4.49-3.52,2.2,0,2.87,2.26,3.2,3.34a6.47,6.47,0,0,0,.21.66,52.11,52.11,0,0,0,16.06,22c6.46,5.24,14.32,7.95,21.92,10.58,3.43,1.18,7,2.4,10.3,3.83l1.82.79-.77,1.82c-1.64,3.91-3.21,7.93-4.73,11.81-3.43,8.78-7,17.85-11.53,26.23-10.88,20-5,42.13,7.11,49.42,6.41,3.86,13.7,6.68,20.74,9.4a167.06,167.06,0,0,1,17.36,7.46c3.68,1.91,7.34,3.85,11,5.78,17.67,9.37,35.94,19,55.62,25.15,4.78,1.48,9.66,2.87,14.38,4.22,10.77,3.08,21.91,6.26,32.2,10.54,9.43,3.93,18.88,8.21,28,12.36,15.79,7.15,32.05,14.52,48.66,20.28,27.39,9.51,48.86,27.9,66.26,44.64,3.08,3,6.3,5.82,9.84,8.74l4.31,3.54Z"/><path class="cls-3" d="M541.57,1373.11h-.93c-12.08-.25-22.76-3.86-30.71-7-25.95-10.15-32.07-32.36-34.81-54.86-2.6-21.26,3.53-40.1,18.21-56,7.68-8.31,24.66-12.8,36.73-12.8a37.21,37.21,0,0,1,11.37,1.55l1.22.39c5.37,1.75,10.93,3.55,16.73,3.55a26.65,26.65,0,0,0,5-.46,7.16,7.16,0,0,0,2.73-.9,11,11,0,0,0-1-2c-.18-.3-.37-.61-.55-.93-11.41-19.86-10.34-43.27,2.93-64.23,13.49-21.34,32.64-31.25,62.08-32.16l1.52,0c25.55,0,48,20.65,51.08,47,.24,2,.53,4.12.82,6.14,1,7.13,2,14.5,1,22a2.59,2.59,0,0,0,.48,2,.8.8,0,0,0,.64.33,5.28,5.28,0,0,0,3.44-2.53c3.8-10.32,13.41-13.41,21.14-15.9l2-.67a83.75,83.75,0,0,1,26.12-4.51,65.64,65.64,0,0,1,15.45,1.82c19.63,4.74,34.11,14.58,44.26,30.07a87.53,87.53,0,0,1,13.94,41.25c1.64,21.06-6.82,50.11-36.05,62.68-11.93,5.13-24,7-34.15,8.15a15.07,15.07,0,0,1-1.62.09c-5.76,0-8.51-3.63-10.94-6.84-1.53-2-2.85-3.78-4.76-4.58l-2.45-1,1.66-2.07c1.24-1.55,2.45-3.12,3.66-4.69,2.64-3.42,5.38-7,8.38-10.23,7.31-8,12.19-17.7,16.91-27.12,1.22-2.43,2.48-4.94,3.76-7.39a2.2,2.2,0,0,0,.33-1.18l-.2,0a3.73,3.73,0,0,0-1-.13c-1.71,0-2.77,1.47-4.19,3.7l-.69,1.07c-1.59,2.36-3.17,4.79-4.7,7.15-6.88,10.6-14,21.55-24.38,29.73a8.12,8.12,0,0,0-1,2.35c-.62,2-1.48,4.7-4.17,4.71a5.56,5.56,0,0,1-3.62-1.76c-5.22-4.74-1.42-9.62,1.1-12.84a18,18,0,0,0,2.23-3.28,203.75,203.75,0,0,0,15.1-52.43,2.6,2.6,0,0,0-.2-1.62h-.19c-.22,0-.43,0-.65,0l-.91,0c-.61,0-.79,0-1.1,1.07-4.83,16.79-10.3,35.8-18.85,53.35a17.63,17.63,0,0,0-1.05,3.15,14.13,14.13,0,0,1-2.58,5.81l-1.64,1.89-1.49-2A61.89,61.89,0,0,0,693,1309.36l-.95-.8.28-1.2c4.64-19.54,8.34-37.22,6.74-55.58-.24-2.67-1.28-2.67-1.67-2.67-1.58,0-2.42.94-2.49,2.78-.76,17.8-4.56,35.21-8.17,49.89l-.62,2.55-2.3-1.29a61,61,0,0,0-14.76-5.86l-1.62-.41.12-1.67c1.18-16.69.27-34.74-2.87-56.81-.08-.58-.12-1.19-.15-1.84-.11-2-.25-3.38-1-4.34-.4.67-.82,1.28-1.22,1.85-1.51,2.17-2.71,3.89-2.12,7.45,3.12,18.84,3.66,36,1.65,52.35l-.23,2-2-.2a73.56,73.56,0,0,0-7.76-.4,81.66,81.66,0,0,0-9.41.55l-2,.23-.18-2c-.19-2.11-.34-4.24-.43-6.33a192.44,192.44,0,0,0-3-24c-.69-4.13-1.4-8.4-2-12.66a42,42,0,0,0-4-13.63c-.77-1.49-3.91-3.42-4.95-3.61a2.5,2.5,0,0,0-1.27,1.26c-.28.93.58,2.51,1.35,3.9a15.36,15.36,0,0,1,1.4,3.06c3.93,13.78,4.9,27.55,5.68,42.82.15,3,.49,6.36,1,10.4l.26,1.83-1.8.4a72.47,72.47,0,0,0-13.82,4.54l-2.24,1-.53-2.39c-1.43-6.38-3.13-12.85-4.79-19.1l-.94-3.59c-.34-1.29-.66-2.58-1-3.87-1.6-6.43-3.25-13.08-7.27-18.51-.21-.28-.42-.61-.64-.94-.31-.49-1-1.51-1.26-1.51a1.32,1.32,0,0,0-.56.2c-.9.49-1.29,1.31-.59,4.07.75,3,1.52,6,2.28,9,3.26,12.68,6.62,25.79,8.93,38.91l.22,1.28-1.07.73A53.58,53.58,0,0,0,596.79,1319l-1.91,2.48-1.45-2.77c-7.79-14.84-16.21-27.09-25.74-37.46a19.61,19.61,0,0,1-3.08-5.16,19.89,19.89,0,0,0-2-3.72c-.56-.74-1.72-2.27-2.61-2.27a2.31,2.31,0,0,0-1.32.67c-1,.89-1,1.23.39,3.33.22.34.43.65.61,1,11,18.23,21,34.67,31.29,51.27l.58.94-.49,1a56,56,0,0,0-4,10.7l-.94,3.58-2.48-2.75a28.32,28.32,0,0,1-4.07-6.66c-1.12-2.28-2.18-4.43-3.58-5.74-12-11.28-26-24.32-40.7-36.29a6.51,6.51,0,0,0-2.62-.82c-.45,1.85-.49,2.55.45,3.38,5,4.37,9.64,9.14,14.16,13.74,6.31,6.42,12.82,13.05,20.09,18.62,4,3.07,6.82,7.48,9.56,11.75,1,1.53,2,3.11,3,4.56a2.48,2.48,0,0,1,.35,2,6.45,6.45,0,0,1-2.46,3.72c-3.13,2-5.77,2.91-8.3,2.91a10.33,10.33,0,0,1-7.64-3.59c-7.85-8.3-18-13.78-27.77-19.08-2-1.11-4-2.18-6-3.28l-.73-.42a8,8,0,0,0-2.89-1.26c-.14,0-.57,0-1.15,1.31s-.34,2.27,3.08,4.06l.47.24c10.46,5.6,22.53,12.66,32.75,22.7a12.67,12.67,0,0,0,2.31,1.64c.37.23.7.43,1,.61l1.07.73-.23,1.28c-2.09,11.43-9.57,17.23-22.24,17.23Z"/><path class="cls-3" d="M737.89,1431.77a4.8,4.8,0,0,1-3.68-1.65,7.56,7.56,0,0,1-1.45-5.93c-1.9-16.59,2.9-32.1,14.66-47.42,6.17-8,27.49-13.12,39.46-13.12a29,29,0,0,1,4.68.33c7.22,1.19,11.1,3.23,12.21,6.42,1.39,4-2.11,7.86-5.2,11.25-.92,1-1.78,2-2.36,2.77-14,19.31-32.65,35-55.35,46.58A6.6,6.6,0,0,1,737.89,1431.77Z"/><path class="cls-3" d="M684.81,1397.27l-.07,0c-2.25-.64-4.81-1.1-7.53-1.59-9.17-1.63-19.56-3.49-26.52-13.41-5.65-8.07-6.76-18.27-3-28a35.46,35.46,0,0,1,24.69-21.71c7-1.61,14.51-3.19,21.75-3.19a39.43,39.43,0,0,1,17.47,3.79c17.79,8.54,25.58,21,23.15,37C733,1381.48,723.88,1386,715.83,1390c-1.75.88-3.57,1.78-5.26,2.72-7.5,4.19-15.54,4.56-25.26,4.61h-.22Z"/><path class="cls-3" d="M715,942.27c-2.86,0-4.81-2.44-6.57-4.93l-1.81-2.59c-5.18-7.48-10.55-15.2-17.59-19.35-13.68-8-9.44-18.09-6-26.16l.45-1c4.48-10.69,10.68-21.19,19.52-33.07,1.41-1.91,3.23-3.86,5.9-3.86a9,9,0,0,1,5.17,2.09c14.87,10.68,23.46,25,24.84,41.42v.17c-.61,19.81-6.3,33.56-18.44,44.6C718.34,941.43,716.66,942.27,715,942.27Z"/><path class="cls-4" d="M706.76,841.29a24.79,24.79,0,0,1-8.63-2.09c-5-2-11.1-2-17-2-2.18,0-4.42,0-6.6-.13-2.86-.15-5.75-.94-5.53-5.75.13-2.74.21-5.52.28-8.21a191.49,191.49,0,0,1,1.44-21.58c1.36-9.54,1.7-19.44,2-29,.14-4,.28-8.16.49-12.26.19-3.62.53-7.29.85-10.85.73-7.94,1.48-16.14.63-23.92-2-18.75-3.84-38.84-3.36-58.77.19-7.6,2.09-15.17,3.92-22.49.66-2.64,1.35-5.36,1.94-8a4.57,4.57,0,0,1,4.69-3.78,7.76,7.76,0,0,1,1.9.25c20.54,5.1,27.6,16,26.09,40.31-.58,9.22.11,18.59.78,27.65.22,3,.44,5.94.62,8.88.81,13.68,1.43,28.18-.74,42a17.71,17.71,0,0,0,.37,5.57c.52,3.06,1.11,6.51-.77,9.79l-1.9,3.32-1.64-3.47c-7.74-16.4-8.62-34-9.48-51-.3-5.94-.61-12.05-1.2-18-.37-3.61-.76-7.8-.84-12,0-.43,0-.88,0-1.34,0-5.28-.61-5.86-1.92-5.86H693a1.74,1.74,0,0,0-1.34.5c-1.07,1.18-.9,4.39-.77,6.73l0,.37c.21,4.09.48,8.19.73,12.15.5,7.69,1,15.64,1.19,23.49.37,16.52,4.77,32.54,9,48,1.53,5.6,3.12,11.4,4.51,17.18,2,8.35,3.24,17,4.43,25.33.66,4.59,1.33,9.25,2.11,13.8,1,6.11,1.25,10.43-1,13A6.48,6.48,0,0,1,706.76,841.29Z"/><path class="cls-3" d="M685.05,954.42c-25,0-48.72-17.29-55.19-40.23-.88-3.11-1.53-6.19-2.16-9.16-.27-1.27-.52-2.45-.78-3.58l-.06-.27,0-.36c.27-2,.51-3.8.74-5.58.5-3.79,1-7.33,1.56-10.87.48-2.85,2.1-3.27,3-3.27a4.6,4.6,0,0,1,2.68,1.14,4.18,4.18,0,0,0,.47.33c21.06,12.16,38.68,24.93,53.86,39a178.76,178.76,0,0,1,16.86,18.64c2.29,2.82,3,5.22,2.27,7.35-1.15,3.24-5.21,4.09-7.89,4.64-.47.1-.86.18-1.16.27A52.58,52.58,0,0,1,685.05,954.42Z"/><path class="cls-5" d="M696.83,1323.35c-3.13,0-5.2-.79-6.34-2.41-1.72-2.44-.58-5.59.42-8.36a24.41,24.41,0,0,0,.78-2.42c.22-.93.45-1.87.68-2.81l.76-3.12,2.46,2a65.88,65.88,0,0,1,10.71,11.31l1,1.28-1,1.21a9.7,9.7,0,0,1-6.57,3.1A26.66,26.66,0,0,1,696.83,1323.35Z"/><path class="cls-3" d="M672.16,898.52c-2.25,0-4.89-1.68-12.19-6.53-1.79-1.2-3.57-2.44-5.29-3.64a100.22,100.22,0,0,0-14.13-8.77c-3.42-1.63-5.24-3.4-5.72-5.59-.64-2.89,1.28-5.51,3.3-8,7.59-9.17,15.61-17.61,30.23-20.12a20.62,20.62,0,0,1,10.32-2.27,84,84,0,0,1,8.74.63c1.81.2,3.68.4,5.5.52a20.88,20.88,0,0,1,3.73.7c.47.12,1,.24,1.42.34l2.1.46-.6,2.06c-.09.31-.15.63-.22.95a7.33,7.33,0,0,1-1.17,3.14c-8.19,11-17.13,24.37-21.32,40.12C676.08,895.49,675.28,898.52,672.16,898.52Z"/><path class="cls-4" d="M631.39,1511.18a21,21,0,0,1-6.17-1.23c-7.13-2.24-10.64-4.83-11.06-8.16-.56-4.47,4.84-7.81,8.79-10.25a22,22,0,0,0,2.65-1.78c17.28-20.23,29.23-38.49,31.43-61.83.29-3.18-.34-6.47-1.51-7.8a1.46,1.46,0,0,0-1.12-.6h-.19a1.21,1.21,0,0,0-.76.2c-.54.55-.5,2.7-.47,4.12a22.83,22.83,0,0,1-.11,3.43c-2.65,18.86-13.29,33.84-23.58,48.33l-1.82,2.56a165.83,165.83,0,0,1-11.09,13.52c-2.6,3-5.29,6-7.75,9.1a4.55,4.55,0,0,1-3.39,2,4.21,4.21,0,0,1-2.58-1.07,5.55,5.55,0,0,0-.71-.48l-7.38-3.87c-9.4-5-19.11-10.06-28.93-14.4-1.75-.78-3.8-1.92-4.08-3.9s1.24-3.19,2.34-4.1c.23-.2.44-.37.63-.55,13.6-12.47,27.36-26.48,35.89-44.4a16.49,16.49,0,0,0,1.33-6.22c.39-10.18,8.22-11.91,13.93-13.16,1.44-.32,2.79-.62,4-1,5.23-1.73,11.55-4.21,14-8,4.07-6.38,8.61-9.35,14.28-9.35,4.5,0,8.83,1.89,13.4,3.9,1.11.48,2.22,1,3.34,1.43,4.26,1.75,9.22,3.65,14.11,4.13,1.64.16,3.69.56,4.92,2.2,1.46,2,1.3,4.71.43,9.41,2.21,29.13-15.1,54.23-32.33,75A100.1,100.1,0,0,0,640,1505.37C637.89,1509.28,635.09,1511.18,631.39,1511.18Z"/><path class="cls-5" d="M666,1328.76a2.9,2.9,0,0,1-2.34-1.09c-1.13-1.44-.61-3.55-.22-5.09l.11-.49a169.61,169.61,0,0,0,4-27l.17-2.39,2.32.59a64.51,64.51,0,0,1,15.74,6.26l1.32.74-.36,1.47c-1.09,4.46-2.25,9-3.37,13.34l-1,3.79c-1.94,7.5-7.68,8.39-11.87,9a27.83,27.83,0,0,0-3.36.65A4.66,4.66,0,0,1,666,1328.76Z"/><path class="cls-5" d="M646,1340.35c-.1-.9-.2-1.81-.31-2.71-.22-1.9-.45-3.86-.61-5.83-.52-6.56-1.49-13.23-2.43-19.67-.87-6-1.77-12.21-2.31-18.29l-.17-1.95,1.93-.22a87.4,87.4,0,0,1,9.87-.57,79,79,0,0,1,8.18.42l2,.21-.24,2a146.57,146.57,0,0,1-2.59,14.88c-1.64,7.26-2,14.92-2.28,21.53-.18,5-3.14,7.48-5.74,9.68-.67.56-1.34,1.13-1.93,1.71l-2.94,2.88Z"/><path class="cls-3" d="M595.67,1409.35c-9.63,0-21.63-1.73-29-15.2-5.43-10-5.61-20.76-.49-30.45,4.26-8,12.06-13,23.21-14.69,1.52-.23,3.08-.62,4.59-1a30.3,30.3,0,0,1,7.34-1.23,12.08,12.08,0,0,1,2.61.27c13.61,0,25.4,4.44,32.37,12.06a24.75,24.75,0,0,1,6.59,19.35c-1.31,14.72-18,28.59-36.38,30.27C603.07,1409.06,599.36,1409.35,595.67,1409.35Z"/><path class="cls-5" d="M634.88,1350.79l-.44-.15-.06,0c-6.87-3-14.67-6.39-14.47-18.18.15-9.41-1.08-19.56-3.86-32l-.36-1.6,1.49-.67a76.9,76.9,0,0,1,14.58-4.78l2.12-.48.3,2.16c.36,2.62.8,5.37,1.18,7.8.71,4.52,1.45,9.2,1.9,13.86.76,7.87,1,15.89,1.33,23.65q.12,3.36.25,6.67a3.18,3.18,0,0,1-1.07,2.32,3.9,3.9,0,0,1-2.55,1.38Z"/><path class="cls-5" d="M608.85,1343.23a5.67,5.67,0,0,1-5.53-3.74c-3.38-7.79-6.61-14.6-9.89-20.83l-.6-1.13.78-1a58.13,58.13,0,0,1,13.53-12.73l2.56-1.73.53,3a206.53,206.53,0,0,1,2.79,22.57,22.64,22.64,0,0,0,.77,4,24,24,0,0,1,.91,5.12l.34.35c.76.78,2,2.08,1.41,3.72s-2.86,1.88-3.79,1.94a13.33,13.33,0,0,0-1.35.18A15.5,15.5,0,0,1,608.85,1343.23Z"/><path class="cls-3" d="M576.8,1119.76c-2.46,0-4.52-1.89-6.28-5.77-1.45-3.19-4.35-6-7.15-8.73-3-2.94-6.16-6-8-9.78-2.1-4.44,0-10.65,1.89-16.13l.71-2.1c4-12.08,12.13-21.9,20.18-30.91,1.64-1.84,3.17-2.74,4.67-2.74,3.19,0,4.34,3.56,5.18,6.15a13.22,13.22,0,0,0,.8,2.13c7.95,9.12,11.38,17.67,10.21,25.41.08,14.89-5,27.18-16.1,38.67l-.14.14C581.26,1117.73,579.31,1119.76,576.8,1119.76Z"/><path class="cls-5" d="M591.67,1343.34a10.4,10.4,0,0,1-8-3.6l-.72-.81.27-1a60.75,60.75,0,0,1,4.27-11.45l1.59-3.24,1.9,3.07q2.31,3.73,4.64,7.45a7.88,7.88,0,0,1,.92,2.61c.29,1.37.32,1.55,1.48,1.71l1.15.16.38,3.27-1.08.42A19.36,19.36,0,0,1,591.67,1343.34Z"/><path class="cls-3" d="M546.88,1088.67a5.58,5.58,0,0,1-3.85-2c-6.78-6.81-16-11-24.72-11.12-7-.13-11-1.57-12.52-4.53-2-3.87,1.14-8.47,3.66-12.16.55-.81,1-1.54,1.44-2.19,9.68-15.91,24-23.72,43.7-23.88a7.17,7.17,0,0,1,.88,0c2.9,0,6.94,1.32,11.22,2.73l3.08,1c2.24.71,4.6,1.72,5.12,3.86s-1.13,3.85-2.74,5.47l-.57.58c-9.25,9.49-19,21.35-20.75,37.32C550.33,1088.19,547.9,1088.67,546.88,1088.67Z"/><path class="cls-3" d="M552.36,1126.81c-21.56,0-38.11-11.32-46.6-31.87a39,39,0,0,1-2.21-10.49c-.18-1.55-.37-3.13-.63-4.63l-.54-3.09,3,.82c2.76.75,5.58,1.37,8.31,2,7.86,1.73,15.28,3.37,22.06,7.85,15,9.9,25.2,19.5,32.13,30.21,1.6,2.47,1.94,4.49,1,6.17-1.35,2.47-4.82,2.79-7.71,2.79l-1.39,0h-1.37C556.4,1126.71,554.34,1126.81,552.36,1126.81Z"/><path class="cls-4" d="M489.11,1618l-.6-.71a370.61,370.61,0,0,0-37.33-38.45q-4.71-4.18-9.39-8.39l-.26-.23c-21.79-19.5-44.33-39.68-70.81-54.6-19.16-10.79-40.23-21.13-64.55-23.73-17.86-1.91-29-10.82-33-26.5-1-4.05-1.95-8.18-2.82-12.18-2.36-10.78-4.79-21.92-10.14-31.85-.94-1.74-2.1-3.47-3.22-5.15a40.94,40.94,0,0,1-5-8.94c-.86-2.38.4-5,1.62-7.47a27.11,27.11,0,0,0,1.19-2.68l1.08-3.06,2.25,2.33c.65.67,1.31,1.33,2,2a58.53,58.53,0,0,1,4.44,4.73C274.77,1415.69,288,1429,309,1432.42a59.57,59.57,0,0,0,9.46.55h2c4.87,0,9.64.13,14.53,1.61,6.5,2,10.44,6.11,14.26,10.14a46.14,46.14,0,0,0,6.49,6c10,7.1,20.58,13.76,30.82,20.21l.31.2a235.63,235.63,0,0,0,20.8,12c4.45,2.19,9.23,4.13,13.86,6,9,3.66,18.36,7.44,26,13.38a273.86,273.86,0,0,1,39.3,37.8c10.26,11.93,17.68,25.54,24.86,38.69,3.46,6.34,7,12.89,10.86,19.13,3.11,5.07,5.84,10.43,8.48,15.61l2.14,4.21Z"/><path class="cls-3" d="M477.9,984a40.28,40.28,0,0,1-10.51-1.57c-1.93-.52-2.13-2.66-2.38-5.38-.07-.75-.15-1.52-.25-2.08-.57-3.81-.13-6.47,1.36-8.21,1.7-2,4.34-2.23,6.44-2.23.61,0,1.23,0,1.85,0s1.15,0,1.7,0c1.19,0,2.64-.08,3.34-.73,2.74-2.53,6.25-4,9.64-5.48,1.6-.68,3.26-1.39,4.76-2.18a31.44,31.44,0,0,0,3.58-2.35c.59-.42,1.16-.84,1.75-1.23l2.83-1.93.28,3.42c.06.75.18,1.55.29,2.32a20.46,20.46,0,0,1,.25,5.81c-1.29,8.71-6.27,15.42-14.42,19.42A23.33,23.33,0,0,1,477.9,984Z"/><path class="cls-3" d="M459,1089.23c-14.8,0-29.93-18.56-30-36.77,0-16.29,13.78-32.3,29-33.59,1.4-.12,2.81-.18,4.18-.18,10.88,0,20.61,3.87,27.39,10.9A33.51,33.51,0,0,1,499,1053.9c-.79,22.9-20.1,34.23-38.9,35.3Z"/><path class="cls-3" d="M469.35,961.34c-5.37,0-6.42-5.27-7.19-9.12a27.1,27.1,0,0,0-1-3.85,8.29,8.29,0,0,1-.39-1.79,5.2,5.2,0,0,0-.2-1c-2.78-6.92-4-11.54-1.83-14.7s7.08-3.84,14.82-3.84H474c6.94,0,16.75,5.3,21.57,10.21,2.24,2.28,3.36,4.42,3.33,6.36v.55l-.29.48c-3.76,6.05-9.64,8.62-15.32,11.1a70.89,70.89,0,0,0-6.4,3C473.83,960.51,471.38,961.34,469.35,961.34Z"/><path class="cls-3" d="M171.71,1446a69,69,0,0,1-20.6-3.13c-19.66-6.15-33.74-19.47-41.84-39.57-10.63-26.43.94-48,15-67.42a4.17,4.17,0,0,0,.57-2.39,3.83,3.83,0,0,0-1.33-.42c-1.67-.08-3.43-.11-5.7-.11H114.5l-3.28,0a38.42,38.42,0,0,1-4.32.24c-16.86,0-33.54-11.41-44.63-30.53l-.27-.46v-77l.35-.51c11.32-16.62,34.59-28.22,56.57-28.22a56,56,0,0,1,11.16,1.08c14.18,2.87,27.1,8.37,38.1,13.29a3.33,3.33,0,0,0,1.4.34,2.93,2.93,0,0,0,2.18-1.11c1.52-1.63,1.83-3.4,1-5.9-8.48-26.26-4.16-51.23,13.2-76.32a75.77,75.77,0,0,1,37.86-29.11,107.89,107.89,0,0,1,35.6-6.52,84.6,84.6,0,0,1,26.66,4.27c27.71,9.21,45.5,30.23,54.37,64.28,1.85,7.09,3.21,14.73.66,22.46-1.27,3.87-1.54,8.91,1.52,11.42a2.15,2.15,0,0,0,1.43.58c1.22,0,2.8-1.08,4.32-2.14a25,25,0,0,1,2.9-1.81,67.25,67.25,0,0,1,31-7.06,118.65,118.65,0,0,1,23.51,2.63c26,5.15,45.86,18.22,59.15,38.86,9.6,14.88,11.83,31.37,6.83,50.42-7.64,29.18-36.48,46.06-60,49.39a77.62,77.62,0,0,1-11,.73c-4.94,0-9.82-.38-14.55-.74-2.87-.22-5.85-.44-8.83-.58a11.15,11.15,0,0,1-2.17-.39,8.59,8.59,0,0,0-1.59-.29.67.67,0,0,0-.19,0,2,2,0,0,0-.17.35c-.62,1.78,2.27,3.27,2.85,3.54,8.75,4.19,8.86,12.58,8.94,18.72,0,1.35,0,2.62.13,3.75,1.7,20.5-4.89,40.06-19.05,56.57-7.29,8.5-17.88,14.71-29.83,17.49a83.42,83.42,0,0,1-18.85,2.43,51.38,51.38,0,0,1-24.9-6.14c-12.23-6.54-21.82-16.08-31.12-30.92-.25-.4-.5-.82-.76-1.25-1.49-2.45-3.31-5.46-5.22-5.46h-.12c-.94,0-1.36.6-2,4a21.39,21.39,0,0,1-.88,3.37c-9.55,25-26.82,41.44-52.79,50.22A86.26,86.26,0,0,1,171.71,1446Zm66.73-140.24-.34,1.25c-.79,3-1.58,5.64-2.27,8a68.42,68.42,0,0,0-2.78,11.48c-2,17.15-7,33.72-11.88,49.75-.63,2.08-1.23,4.07-1.82,6-.26.86-.56,1.68-.84,2.49a26.62,26.62,0,0,0-1,3.18l-.06.26c-.28,1.2-.93,4-.44,4.64,0,0,.2.13.68.13a6.83,6.83,0,0,0,1.29-.16c1.95-.43,2.64-2.79,3.48-6.34.21-.89.45-1.89.73-2.8.65-2.09,1.32-4.17,2-6.25l0-.12c1.57-4.85,3.19-9.85,4.44-14.83,2.74-11,5.36-22.14,7.89-33q1.78-7.65,3.59-15.27c.2-.82.44-1.61.68-2.36.12-.41.24-.79.35-1.17l1-3.42,2.41,2.63a11.79,11.79,0,0,0,.87.81c1,.83,2.18,1.87,2.36,3.4,1.47,11.8,2.87,23.79,4.21,35.38q1,8.36,2,16.71a9.1,9.1,0,0,1,0,1.74,6.56,6.56,0,0,0,0,1,2.48,2.48,0,0,0,.53.12,4.68,4.68,0,0,0,.64,0c1.45,0,2.69-.71,2.76-1.59a60.48,60.48,0,0,0-.52-14.9,126,126,0,0,1-1.27-19.76c-.08-7.46-.17-15.18-1.91-22.57l-.3-1.29,3.4-1.27.62,1.16,2,3.84.11.2c5.06,9.46,10.29,19.24,13.55,29.48a209.35,209.35,0,0,0,14.59,35.72c.36.68,2.47,1.65,4,1.65h.07a.36.36,0,0,0,.05-.09,1.38,1.38,0,0,0,0-1.08c-4.16-4.85-5.73-10.55-7.25-16.06-.62-2.23-1.25-4.52-2-6.67-4.06-11.1-8.38-22.15-12.94-33.85l0-.11c-2-5.18-4.09-10.49-6.23-16l-.47-1.23,3.18-1.73.78,1.06c7.88,10.8,17,19.19,25.78,27.3,4.64,4.27,9,8.3,13.25,12.68a3.19,3.19,0,0,0,1.93,1.18,1.73,1.73,0,0,0,1.09-.48c.63-.5.88-.93.89-1.16a1.57,1.57,0,0,0-.56-1c-2.86-3-5.75-6-8.63-9-6.91-7.17-14-14.53-20.73-22a37.12,37.12,0,0,0-4.76-4c-4-3-8.55-6.45-6.16-10.25a4.56,4.56,0,0,1,4-2.41c2.3,0,4.42,1.69,6.65,3.48a19.42,19.42,0,0,0,3.91,2.68,2,2,0,0,1,.45.07c14.75,3.89,28.21,10.92,41.22,17.72,5.37,2.81,10.92,5.71,16.47,8.34.58.28,1.17.62,1.74.95a8.11,8.11,0,0,0,2.74,1.22c.09,0,.18,0,.4-.31a2.45,2.45,0,0,0-.05-.74,6.28,6.28,0,0,0-2.73-3.72c-18.64-11.84-39.13-20.91-58.94-29.69l-4.86-2.16a11.94,11.94,0,0,0-1.18-.42c-1.89-.61-5.8-1.88-4.68-6.27a4.28,4.28,0,0,1,4.46-3.33,12.35,12.35,0,0,1,3.47.64l.25.07c10,2.89,20.6,3,30.81,3,5.3,0,10.76.08,16.14.5h0c.81,0,2.14-.9,3.2-1.62l.52-.36a54.08,54.08,0,0,0-9.67-1.92c-3.35-.23-6.78-.38-10.1-.53-10.63-.46-21.56-.94-32.53-4.26l-5.55-1.67,5.41-2.1c13.67-5.32,27.55-8.49,41-11.56,5.84-1.34,11.84-2.71,17.67-4.23a28.32,28.32,0,0,1,3.07-.52c5.07-.68,7.42-1.37,7.14-4.76-.08-.86-.17-.86-.89-.86a14.94,14.94,0,0,0-2.47.32,18.48,18.48,0,0,1-3.29.4,6.71,6.71,0,0,1-1.47-.15,10.73,10.73,0,0,0-1.41.71,12.27,12.27,0,0,1-2.28,1.06,212.88,212.88,0,0,1-24.5,5.26c-10.84,1.89-22.05,3.84-32.46,8.1l-6.58,2.69,4.21-5.72a20.8,20.8,0,0,1,4.58-4.32l6.88-5.19q15.74-11.87,31.49-23.68a2.24,2.24,0,0,0,.56-3c0-.06-.19-.28-.74-.28a4.1,4.1,0,0,0-2.16.79c-12.43,8.68-25.65,17.86-41.59,28.89a8.51,8.51,0,0,1-1.69.87l-.55.24-2.45,1.15-.38-2.68c0-.12-.06-.25-.09-.39a3.62,3.62,0,0,1,.08-2.7c1.32-2.55,3.09-5.88,5-9.11q5-8.22,10-16.43c7.33-12.06,14.86-24.44,22.18-36.68a3.88,3.88,0,0,0-.06-1.06,6.14,6.14,0,0,0-1.84.55c-15.59,21.75-29.39,41.62-40.1,64.14a5.13,5.13,0,0,1-4.22,2.57,3.43,3.43,0,0,1-2.91-1.33,3.38,3.38,0,0,1,.05-3.29c.06-.16.12-.29.15-.41.38-1.37.76-2.75,1.15-4.12.75-2.71,1.53-5.49,2.23-8.23,1.11-4.29,2.2-8.6,3.29-12.9,2.42-9.59,4.93-19.5,7.64-29.22.13-.44.27-.89.41-1.34,1.08-3.45.74-3.58-.07-3.9a1.87,1.87,0,0,0-.67-.14c-1.25,0-2.37,1.9-2.88,3.67-3.95,13.78-8,27.86-12,41.47l-5.33,18.38-3.38-.21-.19-1.19q-.5-3.16-1-6.18c-.68-4.15-1.33-8.06-1.83-12q-1.07-8.71-2.07-17.42v-.12c-1.29-11-2.61-22.3-4.18-33.41-.23-1.67-2.19-4.29-3.05-5-.93.31-1.24,1.31-.86,5l0,.31c1.76,17.71,3.56,35.25,5.46,53.83l2,19.12-3.38,1-7.1-14.89c-5.75-12.11-11.19-23.54-16.72-34.93a17.33,17.33,0,0,1-.72-1.83c-.76-2.16-1.06-2.66-2.24-2.66l-.55,0c-.79.1-1.18.32-1.27.49s-.24.9.56,2.82c5,11.89,10.36,23.8,15.54,35.31q2.17,4.85,4.34,9.67c0,.06.33.32.5.48a4,4,0,0,1,1.69,3.07,3.44,3.44,0,0,1-1.47,2.6,2.44,2.44,0,0,1-1.55.52c-1.9,0-4.79-2.15-5.46-2.72q-10.09-8.71-20.13-17.47l-.23-.2c-8.29-7.21-16.86-14.66-25.33-22a2.67,2.67,0,0,0-.5,0h-.27a8.85,8.85,0,0,0-.81,2.23,82.55,82.55,0,0,0,9.22,9.66c1.63,1.48,3.47,2.86,5.25,4.2a50.37,50.37,0,0,1,8.39,7.35c8.05,9.48,17.78,16.75,25.35,22l1,.69-1.32,3.14-.8-.15-.14.14a4.81,4.81,0,0,1-3.48,1.63,7.07,7.07,0,0,1-3.6-1.2c-10-6.1-20.64-11.59-30.93-16.91-3.61-1.86-7.16-3.69-10.68-5.55a14.27,14.27,0,0,1-1.41-.89,10.56,10.56,0,0,0-1.18-.73,5.26,5.26,0,0,0-.69,1.45c-.77,2.25.19,3.08,2.57,4.43l.1,0c9.6,5.41,19.51,10.71,29.1,15.82l9.88,5.29,1,.55-.81,3.21H217c-6.56,0-12.76-1.23-18.75-2.42l-2.77-.55c-4.68-.9-9.46-1.76-14.08-2.59-10.34-1.85-21-3.77-31.43-6.37a5.79,5.79,0,0,0-1.35-.2c-.89,0-1.11.3-1.73,1.35-.14.25-.29.49-.44.72a.93.93,0,0,0-.22.55c.08.2.56.57,1.57.8,3.88.88,7.78,1.89,11.55,2.87,3,.78,6.14,1.59,9.22,2.32l7.32,1.76.45.11c11.28,2.72,22.93,5.54,34.48,7.71.51.1,1,.16,1.53.22a9.6,9.6,0,0,1,5.75,2.07l2.28,2-2.71,1.33c-.63.31-1.26.64-1.88,1a28.31,28.31,0,0,1-5,2.28q-9.9,3-19.82,6l-.1,0c-9.37,2.8-19.05,5.7-28.52,8.66a2.29,2.29,0,0,0-1.4,1.15,2.12,2.12,0,0,0,0,1.73,1.77,1.77,0,0,0,.25.3l3.52-.71c6.36-1.27,12.93-2.59,19.25-4.33,8.13-2.23,16.3-4.74,25-7.4,3.81-1.17,7.76-2.39,11.89-3.63l1.16-.35,1.65,3-.91.8-2.18,1.91c-.79.7-1.22,1.08-1.67,1.44l-12.26,10.06c-14.87,12.2-30.26,24.82-45.33,37.37-.24.2-.53.41-.84.64-.49.36-1.61,1.18-1.69,1.57h0a1.36,1.36,0,0,0,.28.42,1.43,1.43,0,0,0,1.14.63c1,0,2.53-1,3.63-1.74a67.28,67.28,0,0,0,5.31-4.19c1-.87,2.08-1.76,3.15-2.61,16.55-13,32.78-25.84,49.44-38.87a8.14,8.14,0,0,1,3.11-1.32c.37-.1.72-.19,1.05-.3l2-.72.59,2a6.26,6.26,0,0,1-1,5.94c-9.13,13.66-19.53,30.09-27.39,48.4-.68,1.57-.51,1.65.2,2a2.15,2.15,0,0,0,.9.26c.7,0,1.45-1.23,2.16-2.42l.26-.43,24.34-39.85,7.27-11.9Z"/><path class="cls-3" d="M383.62,1043.42c-4.08,0-8.23-.33-12.24-.64-2.63-.21-5.33-.42-8-.54-11.39-.51-13.37-8-15-14-.27-1-.55-2.07-.86-3.06a5.57,5.57,0,0,1,.2-4.4c1.17-2.24,3.85-3.06,6-3.73a13,13,0,0,0,2.47-.92c16.77-10.14,32.13-24.33,47-43.39l.47-.59c.93-1.17,2.48-3.12,2.32-4.19,0-.12-.06-.44-.72-.89a2.93,2.93,0,0,0-1.57-.59c-1.55,0-3.18,2.41-4.26,4-.25.37-.49.72-.72,1-14.66,20.37-34.53,34.15-50.21,43.88a8.62,8.62,0,0,1-4.58,1.51,6.8,6.8,0,0,1-5.24-2.73,4.11,4.11,0,0,1-1.16-3.37c.28-1.64,1.71-2.46,2.65-3a6.2,6.2,0,0,0,.79-.5l1.56-2c14.07-17.7,28.62-36,37.49-57.28a18,18,0,0,1,1.43-2.49c.71-1.11,2.19-3.42,1.92-4.23-.05-.17-.34-.37-.77-.54a3.27,3.27,0,0,0-1.16-.26c-1.57,0-2.74,2.41-4,4.95-.45,1-.92,1.92-1.45,2.83-11.36,19.57-24.59,38.19-36.1,54.11a15.23,15.23,0,0,1-4.9,4.55l-2.49,1.37-.45-2.8a41.64,41.64,0,0,0-5.79-15.41l-.72-1.17.82-1.09c10-13.25,16.68-28.63,22.2-42,2.62-6.32,4.22-13.28,5.77-20l.57-2.49c.25-1.08.71-3.1.21-3.85-.05-.09-.2-.31-.87-.43a2.8,2.8,0,0,0-.48,0c-1.37,0-2,1.84-2.7,4l-.11.34a235.27,235.27,0,0,1-27.17,59.23l-1.36,2.12L320.75,983a50.17,50.17,0,0,0-10.86-8.37l-1.52-.87.67-1.63c4.3-10.36,7.71-20.81,11.42-32.4,2.68-8.4,6.11-21,4.82-33.88a24.45,24.45,0,0,1,1-8.12c.3-1.23.6-2.5.78-3.7a2.16,2.16,0,0,0-.17-1.51,1.72,1.72,0,0,0-1.15-.52l-.34,0h-.09a9.59,9.59,0,0,0-.4,1.44l-.1.44c-1.45,6.23-2.68,12.6-3.88,18.77-2.88,14.89-5.85,30.28-12.08,44.73-1.05,2.41-2.07,4.82-3.09,7.24l-2,4.78-.77,1.78-1.8-.71a85.55,85.55,0,0,0-13.06-3.89l-2.07-.44.56-2c1-3.45,1.84-6.94,2.62-10.37,4.31-19.07,4.13-38.8,4-57.88l0-2.18c-.05-5-.94-7.5-1.41-8-1.19.12-3.6.8-3.15,8.61,1.31,22.84-1.12,45.51-7.42,69.3l-.44,1.69L279,965a88.36,88.36,0,0,0-10.86-.69,73.35,73.35,0,0,0-8.47.47l-2.11.24-.12-2.12c-.35-6.36-.88-12.84-1.4-19.11l-.35-4.37c-.45-5.56-1.45-11.22-2.41-16.68-.72-4.12-1.47-8.38-2-12.62-.16-1.22-.6-1.48-2-2.1a9.77,9.77,0,0,0-.8,3.83c.48,4.41,1.14,8.88,1.78,13.2a214.58,214.58,0,0,1,2.46,21.65c.23,5.24.36,11,.38,17.49v1.59l-1.55.37a62.3,62.3,0,0,0-13.88,5l-2.23,1.14-.61-2.44a153.07,153.07,0,0,0-8.12-24.57c-3.81-8.68-7.64-16.46-11.7-23.77a15.4,15.4,0,0,0-2.75-.28l-.82,0h0a7,7,0,0,0-.38,1.94c7.6,14.06,13.51,29.78,19.13,50.91l.35,1.32-1.11.81a60.37,60.37,0,0,0-12.92,12.71l-1.6,2.14-1.6-2.14c-3.74-5-7.3-12.46-13.76-26l-.36-.76c-6.05-12.62-16.29-21.71-27.16-30.66a2.54,2.54,0,0,0-.66-.08h-.1c-1.39,2.49-.13,3.66.36,4.11,16.22,15,25.63,34.5,34.74,53.32l2.08,4.3-1.83.86a16.71,16.71,0,0,1-7.1,1.81c-6.66,0-10-5.52-13-10.4a52.48,52.48,0,0,0-2.92-4.48c-8.69-11.38-17.84-19.84-28-25.88a1.73,1.73,0,0,0-.84-.28c-.51,0-1.08.45-1.57,1.23s-.81,1.53,1.37,3.25c12.45,9.89,21.93,19.9,29,30.61,1.32,2,2.67,4.33,1.89,6.73-.53,1.63-1.88,2.83-4.13,3.66-5.62,2.09-9.51,6.71-13.26,11.17l-.57.67c-2.85,3.39-6.06,5-9.8,5s-7.29-1.7-10.43-3.21a43.07,43.07,0,0,0-4-1.76c-16.08-5.54-28.42-17.68-33-32.47a69.23,69.23,0,0,1,5.9-55.77c9.71-17.31,24.33-26.32,47.39-29.22a100,100,0,0,1,12.55-.81,93.51,93.51,0,0,1,35.22,6.94,11.09,11.09,0,0,0,4,.87,3.64,3.64,0,0,0,2.88-1c.89-1,1.2-2.9.89-5.46-3.05-24.67,3.16-45.64,18.44-62.32,11-12,25.93-19.93,44.28-23.44a87.61,87.61,0,0,1,16.48-1.6c20.92,0,40.93,8,57.87,23.27,19.38,17.41,26.6,40.49,20.87,66.75-1,4.64-.57,9.89,0,15.31.15,1.37,1.25,2.68,2,2.68a1.19,1.19,0,0,0,.75-.45C384,911,389.17,909,396.07,909c1.29,0,2.68.07,4.25.21,23.44,2.12,39.56,10.9,49.28,26.85,19.07,31.28,13.08,63-16.42,86.94-9,7.31-19.59,13-33.32,18A46.74,46.74,0,0,1,383.62,1043.42Z"/><path class="cls-3" d="M345.66,1183.48c3.46-11.71.39-22.88-2.58-33.7q-.78-2.83-1.52-5.65c-2.78-10.83,5.08-13.54,9.78-15.17a27.8,27.8,0,0,0,2.8-1.06,39.41,39.41,0,0,1,16.65-3.47c13.91,0,27.41,6.09,34.38,15.51a37,37,0,0,1,5.46,34.68c-.59,1.78-3.21,3.17-5.07,3.17l-.44,0a133.22,133.22,0,0,0-16.42-1.07c-15,0-28.17,3-40.21,9.13l-4.15,2.11Z"/><path class="cls-3" d="M304.53,1071.13c-16.06,0-34.74-8.1-40.25-26.2-2.46-8.07.13-15.14,7.67-21l.18-.13c9.39-7.3,19.11-14.85,32.16-14.85a34.3,34.3,0,0,1,4,.24c1.36-.13,2.71-.2,4-.2,14.13,0,24.63,7.36,32.09,22.48a19.75,19.75,0,0,1,1.24,15.65c-2.57,7.46-9.74,14.22-20.76,19.54a47,47,0,0,1-20.35,4.47Z"/><path class="cls-5" d="M329.81,1008.36a19.49,19.49,0,0,1-7.93-2.13c-2.18-1-3.49-2.39-3.87-4.2-.72-3.42,2.29-6.75,4.09-8.75.26-.29.48-.52.65-.73,1.23-1.46,2.47-3,3.69-4.64l1.75-2.34,1.55,2.48a45.58,45.58,0,0,1,6.33,16.89l.23,1.39-1.24.68A10.77,10.77,0,0,1,329.81,1008.36Z"/><path class="cls-5" d="M292.07,1003.5a155,155,0,0,0,17-31.34l.87-2.11,2,1.14a53.63,53.63,0,0,1,11.73,9l1.1,1.13-.86,1.34c-4.23,6.6-8.85,13.06-13.71,19.19-2.12,2.68-6.15,3.21-10.42,3.77a54,54,0,0,0-5.55.93l-5.25,1.3Z"/><path class="cls-3" d="M295.5,685.48c-3.46,0-6.27-3.3-7.72-9.05-1.72-6.94-6.33-12.09-10.79-17.07-1.39-1.55-2.82-3.14-4.16-4.78-3.26-4-2.5-7.39-1.29-9.54,3.8-6.76,7.86-13.5,11.79-20,1.84-3.06,3.68-6.1,5.5-9.16,1.95-3.28,4.25-5,6.83-5,3.7,0,6.46,3.38,8.29,5.62l.22.27a53.72,53.72,0,0,1,12.23,31.63v.25c-1.61,14-6.46,24.94-14.82,33.6C299.52,684.4,297.47,685.48,295.5,685.48Z"/><path class="cls-5" d="M266.78,1018.41l3.35-8.47q3.19-8,6.35-16.05a299.83,299.83,0,0,0,10.11-29.8l.51-1.82,1.84.4a88.5,88.5,0,0,1,13.68,4.07l1.92.75-.81,1.89c-6,14-12.07,27.52-21.31,39.91a18.06,18.06,0,0,1-6,4.71c-2.35,1.33-4.37,2.48-5.43,4.67l-.63,1.3Z"/><path class="cls-4" d="M192.72,1108.33c-2.72,0-6.23-1.71-7.48-9.86-1.14-7.51-2.07-15.17-3-22.57l1.48-.29-1.49.18c-.29-2.4-.59-4.81-.88-7.21a3.56,3.56,0,0,1,.94-2.57,2,2,0,0,1,1.59-.76h.25l.32.08.68.23a10.94,10.94,0,0,1,3,1.36,46.59,46.59,0,0,0,27.95,8.85,73.88,73.88,0,0,0,20.74-3.25c10.52-3,17.43-11.62,19-23.52l.85-6.64,2.93,6c5.7,11.72,13.89,19.6,26.57,25.52,2.49,1.16,2.53,4.77,2.57,9.35,0,1.53,0,3.1.17,4.31l.27,2.5-2.49-.29c-1.27-.15-2.55-.27-3.83-.39a73.86,73.86,0,0,1-8.53-1.13,75.85,75.85,0,0,0-16-1.69,99.24,99.24,0,0,0-30.51,5.23,115.2,115.2,0,0,0-29.86,14.63A9.42,9.42,0,0,1,192.72,1108.33Z"/><path class="cls-3" d="M274.54,695c-1,0-2,0-3-.07s-1.95-.06-2.9-.06-1.86.1-2.8.1c-12.22,0-24.33-5.93-33.22-16.27s-13.26-23.94-11.43-36.06c1.24-8.17,2.62-11.42,5.08-12a10.29,10.29,0,0,1,2.2-.24c3.72,0,6.9,2,10,3.91,1.18.73,2.38,1.48,3.53,2.06,20.75,10.46,33.41,28.55,45.61,47.74,1.13,1.78,2.3,4.12,1.23,6.37s-4.05,3.53-10.51,4.3A31.91,31.91,0,0,1,274.54,695Z"/><path class="cls-3" d="M265,644.77c-1.33,0-2.36-.76-3.78-1.81l-.26-.19c-9.36-6.85-19.71-13.62-32-16.7l-2.94-.74,1.84-2.41c11-14.49,24.64-21.84,40.39-21.84a60.5,60.5,0,0,1,14.82,2c2.8.71,3.79,2.19,4.13,3.31.71,2.34-.93,4.4-1.44,5-7.48,8.26-11.95,18.57-16.28,28.53l-.45,1C268.39,642.34,267.33,644.77,265,644.77Z"/><path class="cls-5" d="M257,1014.81l.66-1.33c2.58-5.17,1.78-10.15.86-15.93a49.08,49.08,0,0,1-.89-10.2,225.88,225.88,0,0,0-.24-24.43l-.1-1.88,1.87-.22a79.13,79.13,0,0,1,8.93-.49,90.78,90.78,0,0,1,11.36.73l2.26.28-.57,2.21c-.61,2.3-1.24,4.59-1.89,6.79a243.31,243.31,0,0,1-18,45l-.69,1.31Z"/><path class="cls-5" d="M245.18,1302.72c-7.33-3.31-16.46-7.44-16.79-17.86-.39-12.31,7.31-20.95,19.16-21.51l1.43,0c6.27,0,11.32,1.88,14.61,5.43,3,3.29,4.36,7.74,3.93,13.23-.93,12-7.72,19.41-19.63,21.58l-.62.11Z"/><path class="cls-5" d="M249.93,1019.12c-9-5.26-9.43-13.6-9.78-21a48.89,48.89,0,0,0-.68-7.13c-1.32-6.56-2.83-14-4.61-21.15l-.39-1.54,1.43-.73a66.35,66.35,0,0,1,14.76-5.34l2.45-.57v2.51c0,5.88,0,11.86-.09,17.64V982c0,4.52-.09,9.64-.09,14.55v24.36Z"/><path class="cls-4" d="M208.41,894.48a6.21,6.21,0,0,1-2.3-.57l-.54-.22c-5.8-2.34-11.79-4.76-17.93-4.76a21.62,21.62,0,0,0-2.28.11c-.42,0-.83.06-1.2.06a6.55,6.55,0,0,1-5.3-2.16c-1.78-2.09-1.62-4.94-1.37-6.46,1.52-9.29,1.09-18.78.67-28-.18-3.79-.36-7.69-.4-11.55-.08-6.25-.29-12.63-.49-18.8-.22-6.57-.44-13.31-.51-19.93-.16-15.29-1.07-30.85-1.95-45.89-1-16.65-2-33.82-2-50.8,0-16.37-1.64-33.07-3.23-49.22l-.63-6.52c-.53-5.46-1.54-11.06-2.52-16.47-1.75-9.68-3.55-19.69-2.72-29.46.92-10.77.9-21.7.87-32.28,0-8.74,0-17.79.48-26.71.41-7.12.32-14.39.23-21.42-.14-10.26-.28-20.85,1.12-31.4,1-7.68-2.08-16.38-5.63-25.38-2.49-6.3-2.71-12.66-2.91-18.81a70.89,70.89,0,0,0-1.09-12.1c-3.93-18.93,1.37-36.71,6.5-53.91l.79-2.66c1.61-5.42,3.51-10.88,5.36-16.16,3-8.62,6.11-17.53,8-26.44q.83-3.9,1.66-7.81c3.12-14.47,6.33-29.38,6.42-44.66.12-19.64-1.85-40.09-6.39-66.33l-.63-3.58c-1.17-6.73-2.39-13.68-3.26-20.59a3,3,0,0,0-.13-.61H175l-.5,0-.75,0-.61,0h-.19a5.9,5.9,0,0,0,0,1.15c.64,6.81,1.38,13.75,2.1,20.46,1.64,15.35,3.33,31.22,3.94,46.91.52,13.5-.33,27.4-1.32,40.41s-4,25.62-6.93,37.77q-1,4-1.92,8.08a95.83,95.83,0,0,1-3.13,10c-.73,2.06-1.53,4.35-2.42,7l-.4,1.21-3.5-.56v-1.28c0-7,0-13.71,0-20.14,0-13.65.07-26.5-.09-39.16-.2-14.71-1.87-30.17-5.41-50.14-.75-4.25-1.73-8.57-2.68-12.75-3.08-13.58-6.26-27.61-2.72-42.69,1.82-7.75.83-16.62-.13-25.2-.22-2-.44-3.94-.62-5.86-.67-7-1.6-16.54,5.1-22.77a14.57,14.57,0,0,1,10.38-4c4.12,0,8.24,1.32,11.89,2.48l.33.1c17.72,5.64,18,19.87,18.35,32.42a84.56,84.56,0,0,0,.66,10.52c1.64,11,2.12,22.28,2.59,33.19.42,9.94.86,20.2,2.17,30.14,1.14,8.64,2.47,17.42,3.75,25.9,2.4,15.91,4.88,32.34,6.28,48.73.92,10.8,2.87,21.73,4.75,32.3,1.68,9.43,3.42,19.18,4.44,28.89,1.07,10.17.86,20.58.65,30.64-.09,4.37-.18,8.82-.17,13.16,0,7.16,0,14.31,0,21.87v11.17l-3.4.65-.46-1.15c-7.73-19.34-14.91-38.38-17.82-58.8a68.14,68.14,0,0,1-.33-11.76c.07-2.33.15-4.75.06-7.08a12.93,12.93,0,0,1,.16-2c0-.24.08-.58.12-.91a8,8,0,0,0-2.13,4c-1.7,26.42,1.57,46.32,10.59,64.52,5.57,11.24,8.49,23.9,11.32,36.15.55,2.42,1.11,4.84,1.68,7.23,3.31,13.78,6,28.2,8.05,42.85,1,6.9,1.49,14,2,20.8.86,11.49,1.76,23.36,4.69,34.42,3.16,11.86-2.26,19.73-7,26.67-2.44,3.54-5,7.2-6.23,11.2-4.93,15.46-3.91,29.58,3.2,44.45,4.39,9.15,11.45,14.65,19.55,20.4,3.88,2.75,4.58,11.65,3.34,16.33-3.37,12.79-.86,25.39,1.57,37.57.69,3.48,1.41,7.07,2,10.65,2.65,16.33,5,35.56,2.23,54.37-.64,4.37-5.36,7.35-10.37,10.51a48.84,48.84,0,0,0-7.14,5.09,53.78,53.78,0,0,0-12,17.51A133.07,133.07,0,0,0,215,866.85l-.34,1.27-3.59-.47v-1.32q0-7.7,0-15.39v-.16c0-10.6,0-21.57,0-32.35-.16-24.84-2.95-49.94-5.64-74.21q-.83-7.32-1.61-14.63c-.7-6.55-1.51-13.14-2.28-19.51-1.69-13.88-3.44-28.2-4.21-42.37-1.71-31.78-2.31-64.09-2.82-97.15v-.46a37.76,37.76,0,0,0-1.09-10.33,12.13,12.13,0,0,1-.34-3.14,7.3,7.3,0,0,0-.24-2.25h0a1.54,1.54,0,0,0-.42,0h-.26c-.69.06-1.11.85-1.07,4.65v.86c0,10.08-.17,20.33-.31,30.24-.34,25.37-.69,51.53.66,77.15,1,19.18,3.59,38.64,6.07,57.46,1.63,12.31,3.31,25,4.55,37.55,1.91,19.31,3,40.36,3.4,66.26.07,4.28,0,8.62,0,12.82-.1,7.46-.2,15.19.4,22.78.09,1.1.17,2.2.25,3.29l0,.25c.58,8,1.14,15.55,4.53,22.8a2.9,2.9,0,0,1,0,2.91A2.46,2.46,0,0,1,208.41,894.48Z"/><path class="cls-3" d="M220,1070.1a32,32,0,0,1-3.25-.16c-17.84-1.82-32.17-8.62-42.6-20.19-11.16-12.43-10-22.68-8.28-27.68,3.73-11,12.53-18.27,25.45-21.09A67.85,67.85,0,0,1,206,999.24a42,42,0,0,1,23,6.38c11.37,7.13,18.55,18.52,21.94,34.81l0,.15v.21C250.93,1057,237.05,1070.1,220,1070.1Z"/><path class="cls-5" d="M233.78,1002.17c-10.68-4.61-15.55-6.72-20.44-13.25l-.9-1.2.9-1.2A64.4,64.4,0,0,1,227.12,973l2.35-1.71.75,2.82c2.33,8.75,4.39,17.54,6.3,25.8l.89,3.86Z"/><path class="cls-3" d="M114.78,536.36l.12-.48c2.39-9.78.77-19.23-.8-28.36l0-.11c-.29-1.69-.58-3.38-.85-5.07-1-6.2,4.07-8.82,7.4-10.56.79-.41,1.52-.79,2.14-1.17a137.32,137.32,0,0,1,22.46-11.18,12.83,12.83,0,0,1,4.73-1,8.09,8.09,0,0,1,6,2.54c2.75,2.86,4.06,8,3.8,14.87-.67,17.45-8.86,30.69-25.76,41.66-3.22,2.08-7,3-10.75,3.94-1.61.4-3.23.8-4.73,1.28l-2,.64Z"/><path class="cls-3" d="M114,490.74c-2.61,0-3.64-2.33-8.08-13.37-2.79-7-7-13.55-13.81-21.34a13.38,13.38,0,0,1-2-3.34c-.21-.45-.42-.9-.64-1.33l-1.13-2.11,2.28-.73c1-.33,2-.7,3.07-1.06a47.5,47.5,0,0,1,7.65-2.25,22.26,22.26,0,0,1,3.82-.3c1.19,0,2.24.07,2.93.12l.65,0c1-.06,2.17-.1,3.29-.1,19.65,0,31.11,10.36,39.73,20.49.65.76,2.17,2.54,1.62,4.59-.38,1.44-1.64,2.52-3.83,3.3-11.44,4.1-23.27,8.33-33.07,16.28A4.09,4.09,0,0,1,114,490.74Z"/><path class="cls-3" d="M122.14,877.65c-2.74,0-4.93-2.13-6.51-6.33-3.13-8.31-8.85-16.42-17-24.12-8.59-8.13-3.88-14.08-.45-18.43.5-.63,1-1.26,1.45-1.89a151.51,151.51,0,0,1,10.21-12.09c2.08-2.3,4.2-4.65,6.19-7a5.87,5.87,0,0,1,4.52-2.41,6,6,0,0,1,4.63,2.52c1.28,1.6,2.67,3.21,4,4.76,6.4,7.45,13,15.15,11.8,25.14-.16,12.87-3.59,23.4-11.1,34.14C127.2,875.78,124.66,877.65,122.14,877.65Z"/><path class="cls-3" d="M98.49,887.29a26,26,0,0,1-2.66-.19c-.79-.08-1.58-.17-2.25-.17a44.27,44.27,0,0,1-31-12.73l-.61-.58V816.07l3.32,2.9a25.61,25.61,0,0,1,3.16,3.56c.33.43.67.87.85,1.06,2.61,2.67,5.24,5.31,7.87,8,12,12.08,24.49,24.58,34.1,39.58,3.15,4.9,4,8.19,2.87,10.67-1.36,2.89-4.86,3.33-8,3.72a13.28,13.28,0,0,0-4.21.94A6.54,6.54,0,0,1,98.49,887.29Z"/><path class="cls-3" d="M103.63,542.34c-6.93,0-13.43-3.28-19.49-6.63-11.82-6.53-19.88-19-22.12-34.16V485.49l0-.11c1.78-12,7.43-22.51,15.91-29.48a7.94,7.94,0,0,1,5-2.15c3.37,0,5,3.19,6,5.1a12,12,0,0,0,.72,1.28c15.57,21.64,19.64,46.67,21.56,68.31l0,.22,0,.28c-.14.7-.26,1.88-.39,3.12-.62,6.08-1.1,9.53-3.68,10A20.56,20.56,0,0,1,103.63,542.34Z"/><path class="cls-3" d="M87,833.27c-3,0-4.51-2.9-6-5.7-.78-1.47-2.08-3.92-2.93-3.92a1,1,0,0,0-.37.09l-.37.15H76.9a2.3,2.3,0,0,1-2.09-1.48c-.88-1.78-3.43-3.32-5.67-4.67-2.72-1.65-5.07-3.07-5.59-5.32a3.94,3.94,0,0,1,.6-3.11c4.35-6.74,13.39-11.26,24.18-12.09,3-.24,5.48-.42,8.1-.42,6.06,0,10.85,1.08,15.06,3.39l2,1.09-1.36,1.84c-2.24,3-4.62,6.06-6.92,9a188,188,0,0,0-11.51,15.63c-2.43,3.84-4.51,5.55-6.75,5.55Z"/><polygon class="cls-2" points="6 8.83 58 60.83 58 1619.17 6 1671.17 6 8.83"/><path d="M585.14,1338.4c2.49,2.77,6.11,4.12,12.59,1.63-3.73-.51-2.66-3.36-3.83-5.24q-2.32-3.72-4.64-7.46a56.45,56.45,0,0,1,5.94-9.6c3.59,6.82,6.86,13.83,9.95,21,1.65,3.8,4.92,2.26,7.39,2.11,4.58-.27.15-2.45.16-3.53,0-3.15-1.48-6.29-1.68-9.48a205.13,205.13,0,0,0-2.76-22.35A60.74,60.74,0,0,1,618,1300c2.39,10.66,4.08,21.43,3.91,32.43-.17,10.21,6.07,13.18,13.26,16.31.29.12,1.69-1.07,1.67-1.61-.41-10.08-.6-20.18-1.57-30.21-.7-7.22-2.08-14.39-3.07-21.58,1.9-.44,3.86-.82,5.91-1.14,1.43-.23,2.84-.42,4.22-.57,1.11,12.57,3.73,25.25,4.74,38,.23,2.83.61,5.65.92,8.48,3-2.9,6.88-4.78,7.07-10,.27-7.33.72-14.78,2.33-21.9a143.58,143.58,0,0,0,2.55-14.68,67.75,67.75,0,0,1,9.64,1.72,171,171,0,0,1-4.05,27.31c-.36,1.57-1.42,4.81,1.13,4.11,5.13-1.43,11.76-.24,13.83-8.26,1.46-5.7,2.94-11.39,4.34-17.1a61.73,61.73,0,0,1,9.48,6.52c-.23.94-.45,1.87-.67,2.8-1.08,4.52-6.25,11.9,5.77,10.57a7.67,7.67,0,0,0,5.28-2.41c2-2.31,2-5.79,3.35-8.53,8.26-17,13.54-35,18.73-53,.92-3.2,2.93-2.38,4.37-2.52,2.45-.25,2.81,2.37,2.58,3.91a207,207,0,0,1-15.25,52.94c-1.89,4.24-9.17,9-3.82,13.83,4.65,4.22,3.9-3.58,6.19-5.39,12.43-9.78,20-23.55,28.66-36.43,1.72-2.54,3.52-6.54,8-5.47,2.19.52,2,2.58,1.18,4.11-6.31,12-11.56,24.7-21,34.93-4.28,4.66-8,9.86-11.95,14.82,6.16,2.58,6.92,12.25,16.33,11.18,11.6-1.31,22.65-3.3,33.58-8,28.26-12.15,36.45-40.1,34.85-60.69a85,85,0,0,0-13.62-40.3c-10.28-15.68-24.87-24.83-43.06-29.23-13.94-3.37-27.64-1.59-40.47,2.65-8.05,2.67-18.15,5.1-21.93,15.36a7.18,7.18,0,0,1-5,3.83c-2.18.21-3.73-2.08-3.38-4.59,1.3-9.38-.74-18.44-1.83-27.69-3-25.45-24.61-46-50.55-45.22-24.72.76-45.79,8-60.45,31.23-13.16,20.79-13.68,43.37-2.89,62.16,1.8,3.13,4,5.53-2.49,6.78-8.68,1.66-16.45-1.12-23.94-3.54-12.83-4.13-37,.93-46,10.71q-21.46,23.26-17.7,54.42c2.8,23,9.09,43.67,33.56,53.24,9.75,3.82,19.4,6.62,30,6.84,11.62.24,19.07-4.13,21.16-15.58a21.89,21.89,0,0,1-3.55-2.47c-9.49-9.32-20.63-16.13-32.28-22.36-2-1.09-6.23-2.9-4.45-6.89,1.92-4.29,4.9-2,7.57-.56,12,6.69,24.58,12.51,34.24,22.74,4.29,4.54,9,3.19,13.44.35.84-.52,1.83-2.46,1.53-2.89-3.87-5.46-7.05-12-12.17-15.88-12.61-9.68-22.55-22-34.35-32.45-2.54-2.24-1-4.79-.65-7.26,1.83.52,4.06.55,5.41,1.65,14.13,11.54,27.51,23.89,40.8,36.38C580.58,1328.89,581.91,1334.82,585.14,1338.4ZM214.94,987.72c4.54,6.06,9.19,8.1,19.63,12.61-2-8.61-4-17.21-6.28-25.74a61.8,61.8,0,0,1,8.51-5.19c1.75,7,3.19,14.1,4.63,21.24,1.79,8.91-1.48,20.36,9.51,26.75V996.51c0-10.76.23-21.53.18-32.29a68.31,68.31,0,0,1,8.3-1.41,230.3,230.3,0,0,1,.24,24.64c-.47,9.06,4.31,17.92-.18,26.92a241.62,241.62,0,0,0,17.88-44.59c.66-2.25,1.28-4.49,1.87-6.74q2.2.27,4.5.66c1.65.28,3.25.59,4.79.92a303.35,303.35,0,0,1-10.18,30c-3,7.73-6.11,15.45-9.17,23.18,2.43-5,8.53-5.51,11.65-9.7,9.05-12.15,15.2-25.75,21.07-39.5a64.4,64.4,0,0,1,9,4.32,156.71,156.71,0,0,1-17.19,31.74c5.68-1.4,12.47-1,14.88-4a233.25,233.25,0,0,0,13.6-19,44.68,44.68,0,0,1,5.86,7.48q-1.8,2.4-3.76,4.73c-1.76,2.09-7.91,7.73-1.58,10.56,3.24,1.45,7.33,3.1,11.4.86a13.26,13.26,0,0,0,4.25-4c12.69-17.55,25.13-35.23,36-53.94,2.41-4.17,3.87-10.41,9-8.38,4.94,1.95-.39,7.32-1.46,9.89-9.31,22.32-24.45,41-39.35,59.74-1,1.27-4.56,1.66-2.3,4.32,1.91,2.26,4.1,2.76,7.24.81,18.93-11.75,36.42-25,49.64-43.35,1.87-2.6,4.69-8.06,9.29-4.94,3.67,2.49.17,6.26-1.61,8.55-13.41,17.21-28.64,32.45-47.52,43.87-2.76,1.67-9.44,1.58-7.81,6.73,2.17,6.79,2.32,15.13,14,15.65,12,.54,24.16,2.94,35.67-1.2s22.77-9.54,32.74-17.63c29.34-23.84,33.93-54.89,16-84.35-10.68-17.52-28.2-24.13-47.75-25.9-6.79-.61-13.38-.13-18.84,5.65-2.62,2.79-5.84-.36-6.18-3.39-.57-5.27-1.09-10.86,0-15.95,5.58-25.59-1.38-47.87-20.26-64.83-20.29-18.24-45.31-26.44-72.63-21.2-16.23,3.11-31.57,10.15-43.19,22.83-15.81,17.26-20.74,38-17.93,60.73,1.15,9.33-5.28,9.81-10.5,7.73a91.59,91.59,0,0,0-46.78-6c-20.1,2.53-35.56,9.8-45.9,28.22a67.05,67.05,0,0,0-5.73,54.2c4.56,14.67,16.76,26,31.76,31.17,6.45,2.23,14.6,9.42,22.07.54,4.18-5,8.26-10,14.66-12.42,4.6-1.71,3.12-4.63,1.27-7.42-7.75-11.73-17.63-21.44-28.58-30.14-2-1.56-3.46-3.29-1.82-5.89,1.21-1.92,3.07-2.82,5.12-1.6,11.38,6.77,20.56,15.91,28.56,26.39,5.26,6.89,8,18.34,20.54,12.47-9.51-19.61-18.86-39.76-35.5-55.2-2.35-2.18-1.89-4.86-.34-7.21.33-.51,2.57-.51,3.26.06,10.93,9,21.56,18.41,27.8,31.44C207.63,975.15,211.25,982.77,214.94,987.72ZM1024,8V1672a8,8,0,0,1-8,8H8a8,8,0,0,1-8-8V8A8,8,0,0,1,8,0H1016A8,8,0,0,1,1024,8Zm-8,1658.34V13.66l-48,48V1618.34ZM962.34,56l48-48H13.66l48,48H962.34ZM13.66,1672h996.68l-48-48H61.66ZM960,1616V1265.62c-1.36.87-2.75,1.71-4.18,2.5-22.13,12.3-47.59,11.2-70.37-9.77-3.72-3.44-5.47-2-8.27.06a106.49,106.49,0,0,1-41.92,18.67c-10.17,2.05-14.77,8-16.43,18.59-4.07,26-21.5,41.46-44.62,51.19a54.15,54.15,0,0,1-28.38,4.2c-3.9-.52-3.28.36-3.24,4.26.09,11.63,2.77,14.42,13.32,7.67,19.3-12.34,39.07-8.79,58.25.52,4.14,2,2.79-.32,2.74-1.91-1.18-34.68,36.75-52,63.36-33.63,18.38,12.71,21.8,48.09,1.45,62.19-12.69,8.79-24.59,11.94-38.94,7.07-.73-.25-4.07-2.07-3.11,2.06,3,12.61,1.92,25-2.24,37.9,11.28-1.8,22.07.23,33,3.35,5.24,1.49,10-4.16,14-8,4.65-4.42,8.62-9.55,13.13-14.14.94-1,2.93-.85,4.44-1.24.26,3,1.89,7,.55,8.92-5.63,8-11.82,15.59-20.21,21-1.57,1-3,1.36-.19,4.15,16.57,16.64,8.52,53.44-13,63.28-27.52,12.58-58.22-2.85-61.43-33.68-.4-3.83-2.26-7.64.71-11.28.37-.45,0-1.49,0-2.26-.9.13-1.81.25-2.71.41-5.88,1-11.55,2.79-17.51,3.75-13.57,2.19-24.53-3-35.21-9.49-21.48-13.13-33.56-39.46-24.52-65.29.34-1,0-2.18-.08-3.29-1.08,0-2.49-.34-3.21.2-9.69,7.13-20.57,10.19-32.46,11.8-6.23.84-2.79,8.46-2.35,11.78,2.73,20.51-6.31,36.93-15.87,53.69-7.58,13.3-18.71,23.73-27,36.34-1.64,2.48-4.66,4.79,1.43,6.43,24.34,6.57,46.51,18.35,69.25,28.9,11,5.11,23.64,6.7,35,11.81,14,6.26,27.43,13.59,39,23.24,15,12.48,29.26,25.79,44.18,38.37Zm0-363v-66.11c-5.34,7.4-11.48,14.45-15.42,22.56-4.36,8.94-13.61,17.79-4.35,29.29,2.42,3,3.53,7.17,4.85,11,4,11.36,4,11.48,5.45,10.5A86.84,86.84,0,0,0,960,1253Zm0-88V64H64V462.47c6.53-10.37,16.16-17.69,28.42-22.32,14.61-5.51,30.17-5.51,44.45,3.08,3.78,2.28,7.46,4.75,11.24,7a6.91,6.91,0,0,0,2.29.43c.16-2.1.85-4.32.4-6.28-4-17.41-1.41-35-1.67-52.53-.11-7.07,1.48-14.14,1.75-21.23.83-22,2.79-44.05,1.66-65.94s-2.44-43.77-8.68-65.29c-3.36-11.58-3.64-24.39-1.54-37.2,1.76-10.68-1.57-22.1-.78-33.06.77-10.67-2.08-23.12,8.76-30.89,8.29-5.94,17.64-3,26.1-.59,18,5.11,21.88,19.06,22.95,36.25,1.55,24.68,4.06,49.32,6.13,74,2.23,26.56,7.18,52.94,11.71,79.27,6.62,38.55,11.9,77.23,9.55,116.4-.66,11.18-2.17,22.38-1.55,33.56a332.34,332.34,0,0,0,9.38,60.61c2.38,9.73,1.59,20.2,2.57,30.3,1.08,11,2.54,22,3.83,33,16.58-8.25,33.89-11.44,52.17-2.29,21.39,10.71,31.64,28.8,31.43,51.46-.15,16-7.88,30.41-21,40.84-3.14,2.51-2.58,4.49-1.77,8.09,3.11,13.85,5.7,28,.33,41.88-.57,1.48-1.11,5.65-4.49,3.58-4.57-2.78-3.57-8-2.32-11.58,4-11.43-.75-21.9-2.6-32.65-.48-2.79-3.79-1.59-5.45-.91-10.1,4.17-20.28,5-30.8,1.83-1.48-.45-3.72-.59-4.77.21-1.84,1.41.81,2.74.91,4,.33,4.51,1.08,9.36-.15,13.54-4.15,14.13,2.94,26.72,4.69,40,2.17,16.4,4.09,32.75,2.2,49.3,28-14.26,76-7.15,99.34,13.59,28.55,25.37,30.26,60,24.62,84,20.19-6,38.44-1.64,55.42,9.35,2.42,1.57,5.1,3.35,6.57,5.71,9,14.54,17.46-1.57,26.56-.66,12.63,1.27,23.37,3.88,31.39,14.11,2.15,2.74,3.33,2.24,5.93-.24,9.37-8.93,17.62-18.49,22.4-30.74a4.27,4.27,0,0,1,5.72-2.39c4.14,1.67,1.5,6.27,1.09,7.38-4.94,13.21-11.14,25.78-23.38,34.07-3.42,2.32-5.35,4-4.39,9.73,4.26,25.19-12.8,41.4-33.07,39.53-14.79-1.37-16.54,7-19.93,14.05-5,10.52,6.63,4.44,7.8,4.49,22.33,1,38.68,16.86,39.63,39.5,0,.6.18,1.2.48,3.08,10.35-17.44,25.95-24.36,44-28,12.09-2.47,42.6,13.85,47.89,24.95,3.72,7.82,7.48,15.41,9.45,23.86,3.83,16.48-12,43-26.59,52.14-19.84,12.38-38.36,10.91-57.58,1.1-11.68-6-18.76-16.93-21.37-28.9-3.64-16.67-4.24-17.44-18.51-8.09-12.35,8.09-29.4,6.46-41.28-1-14.93-9.35-20.52-23-20.79-39.87-.06-3.54,4.22-6,1.55-9.75-20.24,8.93-41,15.21-63.5,7.87-3.38-1.11-4.93,1.13-5.67,3.92-3.79,14.33-15.86,19.08-27.75,23.86a57.58,57.58,0,0,1-26.37,4.18c-.6,0-2,1.62-1.85,2,1.86,4.56.08,10.32,5.25,13.86,12.23,8.37,24.62,16.49,31.72,30.43,6.15,12.09,11.51-.2,14.48-2.36,18.83-13.65,57.3-3.37,67,18.14,5.86,13,7.89,25.31,1.88,38.83-2.12,4.76,4.49,3.59,6.32,4.33,26.65,10.68,47,27.6,56.85,55.28,1.71,4.8-1.34,10.72,3.15,15,6.66-10.66,17-15.31,28.82-17.82,14.87-3.14,29.18-1.23,43.26,3.91a3,3,0,0,0,1.73-.44c-.29-1.74-.29-3.71-1.16-5.15-11.21-18.47-3.49-45.37,6.08-61.06,8.16-13.39,22.07-19.5,32.24-29.64,14.24-14.19,24.22-32.63,36.14-49.17,10-14,19.3-28.68,24.41-44.9,3.37-10.69,2.09-22.9,2.5-34.45.56-16-.32-32.16,1.46-48,1.16-10.3-5.41-12.59-11.46-16.21-22.41-13.38-32.48-45.66-25.79-70.33,1.16-4.28-7.8-4.91-12.31-6.19-8.86-2.52-18-4-27-6.18-1.42-.34-2.47-2.22-3.69-3.39,1.61-.9,3.16-2.46,4.85-2.62,14.15-1.36,27.21,3.58,40.65,6.71,2.08.48,6.58-5.14,8.41-8.72a38.28,38.28,0,0,1,21.65-18.79c11.17-4.08,7.29-13,8.2-20.41,1.62-13.22,3.16-26.5,3.88-39.8.65-12.19-1.27-24.66.54-36.62,3-19.6,0-38.88-1.66-58.06-1.63-18.63,3-36.05,5.91-53.75,1.82-11.11,13.12-8,20-6.21,13.77,3.48,27.82,24.93,25.17,39.16-2.61,14-1.28,27.75-1.48,41.59-.18,12.15,1.77,24.32,1.7,36.47-.18,29.07-.28,58.1,1.82,87.16,1,13.66,10.34,21.15,16.77,31.23,17.46,27.34,15.6,55.29-5.51,79-7.88,8.88-3.2,15.48-3.6,22.84-.95,17.51-.3,35.1-.3,54.23,16.12-16,32.21-29.89,36.64-51.48,3.76-18.33,3.8-37.06,4.54-55.74.63-16-1-32,.72-48.15.85-8-.61-17-.47-25.64.68-41.17.19-82.37,1.67-123.51.91-25.19,5.27-50.24,6.89-75.44,1.16-18.23,2.35-36.38,4.59-54.55,3.39-27.48,4-55.23,7.85-82.76,2.18-15.68,2.66-31.51,8.36-46.52,2.9-7.63,8.07-16.65,14.51-17.5,8.44-1.12,14,8.64,19.84,15.05,16,17.47,13.91,38.85,13.87,60-.06,34.79-1.72,69.51-3.69,104.23-1,18.34-.23,36.77-.44,55.16,0,3.48-1.31,6.94-1.4,10.43-.28,11.24,6.51,10.64,14.79,9.28,13.16-2.17,3.65-13.09,7.7-18.86,1.26-1.81.48-6.3,3.76-5.72a6.77,6.77,0,0,1,5.14,6.8c-.35,4.47-1.38,8.89-1.73,13.37-.22,2.86-1.75,5.84,3.79,6.91,23,4.46,43.71,29.38,46.16,52.85,2.86,27.44-7.27,49-29.83,63.37-14.9,9.52-32.29,13.15-50.12,7-2.33-.79-2.29.16-2.16,1.59,1.36,14.9-.56,29.81,1.41,44.83,1.77,13.43,1.31,27.33.23,40.89-.6,7.64,3.46,6.71,7.19,5.71,28.35-7.61,58.64,12.56,68.36,32.59,5.69,11.72,10.92-.81,16-1.74,9.2-1.69,13.32-11.51,20.17-17.25,1.94-1.63,3.34-5.32,6.11-2.64a3.32,3.32,0,0,1,1,2.48c0,1.62-.94,3.45-2,5.23-7.14,11.85-17.78,19.52-29.82,25.29-4.18,2-4.92,4.39-4.78,8.35.92,25.79-4,49.21-27.71,64.31-17.34,11-47.23,18.36-66.59,2.52-4.43-3.62-5.77,3.86-6.94,5.7-15.22,23.84-35,44.44-47.6,70.34-4.8,9.87-15.83,17.29-29.14,20-9.31,1.9-17.19,10-26.23,14.13-11.46,5.3-19,15.53-29.71,21.73-6.53,3.79-4,9.37-1.62,14.21,4.82,9.75,5.79,20.34,7.55,30.77.18,1.06,0,3,1.78,1.58,19.64-14.76,41.74-16.27,64.63-11.31,18.21,4,33.4,13.18,43.55,29.38,1.88,3,2.23,4.65,7.28,3,12-4,24.66-6.45,37.23-8.3,13.62-2,20.59-9.29,23.58-22.45,4.68-20.51-14.88-12.79-22.16-19.22-4.38-3.86-11.77-4.21-17.69-6.45-1.56-.59-2.66-2.36-4-3.59,1.82-.82,3.58-2.21,5.46-2.38,16.16-1.49,29.6,6.93,43.84,12.37,4.94,1.88,5.73-2.78,7.58-4.74,12.36-13.1,28-20.26,45.24-18.89C941.21,1156.71,951.48,1159.73,960,1165Zm-1.35,10.63a15.43,15.43,0,0,1-3.36-1.37c-18.56-13-37.84-12.85-56.22-.85-3.46,2.26-21,5.31-6.05,16.76,11.93,9.16,25.79,16.11,34.1,29.54,1.8,2.9,3.24.15,3.58-1.23a51.42,51.42,0,0,1,8.26-17.83C945,1192.12,949.63,1182.37,958.65,1175.63Zm-28.16,89.7c3.2-.09,13.87,3,9.25-7.65-9.48-21.93-23-40.65-44-53.23-5-3-10.32-10.62-14.57-8.32-5.4,2.92-4.43,11.59-4.06,17C876.88,1247.22,902.43,1266.12,930.49,1265.33Zm-61-238.48c23.38-6.5,42.51-24.85,41.43-53.7-4.46-2,6.42-12.85-4.3-10.42-11.76,2.65-23.16,8.67-33.47,15.2-4.59,2.91-11.17,7.09-8.61,16.77,2.33,8.83,5.48,18.65.75,28.33C863.72,1026.22,866.6,1027.64,869.48,1026.85Zm33.14-243c1.92-9.09,9.16-17,6.32-25.67,0-28.46-13.17-46.09-39.6-54.58-1.42-.46-2.06-.55-2.28,1.2-.59,4.7-1.85,9.38-1.91,14.09-.31,26.56,8.49,49,30.59,65C897.72,785.33,901.84,787.51,902.62,783.82Zm-6.84,172.47c2.8-1.09,16.55,2.08,9.24-9.35-11.41-17.82-27.55-28.46-51.59-28-9.82-1.78-19.32,4.44-29.19,9.09-1.35.64-5.31,2.09-1.49,4.82,13.79,9.88,25.32,21.69,32.44,37.35,4.22,9.27,4.39,9.41,5.85,7.89C870.86,968,882.66,961.41,895.78,956.29ZM894.63,793c-.92-.67-1.81-1.39-2.76-2-13-8.47-24.61-18.11-29.79-34.94-7,20.33-19.61,34.83-37,46.17,22.55,10.39,43.54,10.51,63.66-3.33C891,797.31,892.7,794.94,894.63,793Zm-30.51,596c8.87-.44,22.09-15,21.62-23.91-1.21-22.77-12.76-36.84-29.5-36-18.16,1-32.2,16-31.17,33.44C826,1378.42,843.06,1390,864.12,1388.94Zm5.92,89.61c10.5,5.11,13.21-1.51,10.54-10.07-1.42-4.59-1.59-14.79-9.38-11.55-8.66,3.61-14.51,12.83-26.68,18C855.5,1474.84,862.78,1475,870,1478.55Zm-1.18-224.5c2.67-1.92,9.64-1.83,7.26-6.53-3.34-6.62-5-13.6-7.51-20.35-.5-1.32-.18-5.6-3-3.62-14,9.68-30.51,8.25-45.91,11.74-3.69.83-11,.72-6.59,8.72,1.11,2,.63,5.61,2.11,6.54,7.4,4.66-4.64,27.4,17.14,18.48,1.89-.78,3.92-3.61,6.45-.38C847.73,1261.24,859.74,1260.6,868.86,1254.05ZM876,1495.8c1.33-2.32,6.17-5.92-.12-7.61-13.8-3.69-27.84-6.28-42.29-5.92-9.35-.15-15.51,2.38-14.56,5.68,4.52,15.64,16.55,22.15,31.3,22C860.46,1509.91,870.37,1505.62,876,1495.8Zm-11.13-46c1-.87,1.23-2.09-.89-2.78-16.22-5.26-30.2-2.42-41.18,11.2-3.62,4.5-4.93,10-5.45,15.7,0,.34,2.71.94,4.87,1.65C838.7,1471.09,852.18,1461.09,864.89,1449.82Zm-6.44-430.95c.5-3.42-1.55-5.43-1.57-8.33-.23-29.09-16-50-36.48-68.3-2.59-2.31-5.68-6-9.78.1-6.93,10.28-9.59,21.33-9.71,35.22-1.36,16.68,14.82,44.46,36.33,47.22C844.51,1025.72,855.78,1037.34,858.45,1018.87Zm-2-304.25c2.15-4.14,6.09-12.46-6.81-11.9-23.82,1-49.5,24.68-48.54,51.6-1.62,7.49.5,16.47,4.55,23.37,3.84,6.54,2.93,26.42,19.79,13,19-15.17,31.95-34,30.92-60C856.16,725.5,853.37,720.56,856.46,714.62Zm-20-156c2-25.05,1.54-50.37.75-75.53-.47-15.05-13.14-23.81-22.1-34.16-3.93-4.53-6.49.86-7.6,2.88-7.2,13.1-8.73,27.79-10.33,42.31-1.69,15.37-2.59,30.82-4,46.21-1,10.82-2.47,21.6-3.44,32.43-1.86,20.85-3.54,41.71-5.25,62.57q-3.59,43.82-7.09,87.63l1.11.43c4.15-12.48,8.61-24.86,12.39-37.45,4.65-15.49,9.41-30.91,13.15-46.73,3.93-16.57,7.53-33.07,8.76-50,1.28-17.59,1.24-35.29,1.92-52.93a4.21,4.21,0,0,1,2.12-3.07c1.72-.73,2,.83,2.32,2.25,2.47,10.83,4.22,21.76,3.71,32.9-.27,5.89-1.83,11.78-1.59,17.62.44,10.86.48,21.89-2.59,32.1-5.68,18.85-8.75,38.29-15,57.1-5.2,15.64-12.15,30.76-15.32,47.29-3.45,18-10.91,35.28-11.14,53.82-.49,38.33.28,76.68-.38,115-.23,13.54.36,27.06-1.14,40.76-2,18.22-1.52,36.83-10.07,53.49-13.72,26.73-38.14,43.29-61,61.07-2.76,2.14-6.62,8.73-9.08,5.11-3-4.43,3.64-7.84,7.1-11.14,10.25-9.78,21.21-17.91,17.13-36.18C717.4,993.92,715,981.79,718,970c.3-1.15,8.6-21-9.84-12.7a44.19,44.19,0,0,1-12.34,4c-5.4.77-9.13,3.49-8.92,10.27.44,14.15.25,28.33.05,42.49-.05,3.75-2,8.51-5.38,8.53-4.08,0-2.47-4.93-2.59-7.83-.18-4,0-8.07.22-12.11.5-12.25-2.48-24.65,1.53-36.78.32-1,0-3.15-.33-3.2-4-.67-8-1.1-12-1.44-.34,0-1.11,1.05-1.12,1.61-.12,14.64.23,29.29-.34,43.9s-.51,29.61-3.52,43.84c-4.28,20.24-16.93,36.9-28.34,55,9.52-3.94,18.08-3.3,26.58,1.33,3.92,2.14,8.63,2.94,11.14,7.15.36.61,0,2.47-.41,2.61-4.63,1.54-8.84.06-12.92-2.12-10.66-5.68-22.55-5.27-31.29,1.1-8.09,5.89-12.86,16.35-19.47,25.32a26,26,0,0,0,4.57,0c23.83-4.84,45.06-.76,62.29,17.74.55.59,1.21,3.54,3.66,1.21,6.46-6.16,12.92-12.37,19.88-17.93,12.29-9.81,25.54-18,40.63-23,9.42-3.16,18.38-6.94,21.36-18.36,3.67-14.09,5.67-27.36-5.28-39.63-2.29-2.56-2.65-8.29,1.33-11.12,3.44-2.43,4.35,2.28,4.78,3.68,2.52,8.24,10.16,14.43,9.41,24-.13,1.72,1.46,3.58,2.25,5.37,1.21-1.42,2.77-2.67,3.57-4.29,8.19-16.64,22.73-28.4,33.25-43.29,4.83-6.84,9-11.17.31-17.84a39,39,0,0,1-13.9-21.3c-.31-1.14-1.6-2-2.43-3a14.49,14.49,0,0,0-2.6,2.59c-5.79,9.92-15.09,16.56-23.31,24-2.75,2.5-6.93,9.58-10.1,6-4.32-4.83,2.43-9.16,5.87-12.6,10.41-10.42,24.19-19.27,27.31-34,2.72-12.88,2.85-26.64,7.78-39,7.42-18.52,8.07-38.16,8.81-57.2.58-14.8-.76-30.09-1.14-45.16,0-1.82-1.25-4.9,2.47-4.73,3,.14,3.39,2.38,3.65,5q1.46,14.32,3.29,28.6c2.06,16.21-2.14,32.14-2,48.27,0,3-1.54,6-2.23,9,0,.19,1.32,1.1,1.77.94,13.14-4.52,18.8-16.41,17.57-31.65-1.43-17.75-.21-35.73-2-53.44-1.07-10.91,4.39-22.89-10-32.16-20.86-13.42-29.3-35.38-26.45-60.38,1.87-16.44,9-30,22.63-40.82,5.47-4.34,14.43-4.48,16.74-13.41,1.77-6.88-.82-13.29-.13-20.25,2.28-23.08,1.68-46.44,2.7-69.66C835.68,588.25,835.25,573.46,836.43,558.58ZM831,1409.09a37.56,37.56,0,0,0-13-29.25c-1-.91-5.44-10.77-9.34-2.85-5.92,12-13.19,22.67-23.29,31.43-2.68,2.33-.37,2,1.32,2.59,14.93,5.13,29.7,10.61,41.39,21.65C831.56,1424.92,830.9,1417,831,1409.09Zm-7.89,31.56c-.6-.68-1.27-1.52-2-2.27-6.44-6.4-14.57-10.08-22.8-13.25s-17.45-9.93-25.18-5.6c-9.93,5.56-18.52,13.61-29.78,17.15-.67.21-3.15-.18-1.45,2.37,3.29,4.93,6.62,9.63,11.11,13.69,10.47,9.44,38.1,11.38,49.79,5.56C810.72,1454.32,818.85,1449.91,823.08,1440.65ZM764.23,1616h55.53c-3.43-2.82-6.75-5.75-10-8.84-19.33-18.6-39.81-35.26-65.53-44.19-26.37-9.15-51.14-22-76.79-32.68-14.7-6.12-30.88-9.89-46.4-14.7-23.87-7.4-45.08-19.7-66.94-31.07-12.34-6.42-26.38-9.79-38.21-16.92-13.07-7.87-19.14-31.26-7.84-52.08,6.5-12,10.83-25.11,16.18-37.86-10.62-4.56-23-6.81-32.69-14.7a53.81,53.81,0,0,1-16.67-22.86c-.64-1.66-.81-5.16-4.39,0-16.49,23.49-22.6,51.84-37.21,76.15-5.82,9.7-29.2,15.75-39,8.83-6.43-4.54-12.53-9.93-19.61-13-6.21-2.74-7.88,6.06-12.93,8-5.68,2.24-10.67,6.17-16.19,8.91-1.63.81-3.65.74-1.85,2.93,16,19.58,49.59,25.09,72,18,19.91-6.33,34.17-17.82,43.85-35.35,4.83-8.76,7.64-18.65,11.23-28.07.54-1.43-.16-4,2.35-3.26a6.24,6.24,0,0,1,3.71,3.9c3,14.6-15.25,46.57-27.34,54.74-12.8,8.66-26,15.24-40.81,18.52-6.48,1.43-13.54.24-22.71.24A257.91,257.91,0,0,0,424.5,1481c37.69,16.49,66.06,43.47,86.5,78.83,10.69,18.5,20.74,37.37,30.85,56.2H599.4l-10.61-8.25c-16.52-12.85-30.65-28.13-43.92-44.17-18.49-22.36-36.52-45.11-54.78-67.66-1.67-2.07-1.39-3.87.09-5.83,2.13-2.82,3.17.26,4.13,1,17.71,13.63,31.26,31.13,44.58,48.77,12.68,16.78,26,33,41.59,47.13,11,9.94,22.35,19.48,33.73,29h30q-16.86-24.06-33.28-48.41c-8.23-12.24-16.71-24.19-27.29-34.55-2-1.92-3.94-4.35-2.18-7.17,1.14-1.83,2.56-.65,4,.69,1.93,1.79,4.66,2.7,6.65,4.45,19.74,17.38,32.05,40.46,46.89,61.58,5.41,7.69,10.59,15.54,15.74,23.41h88.59a83.28,83.28,0,0,1-19-16.76c-9-10.83-16.12-23.23-27.05-32.55-3.24-2.77-8.83-3.93-8.69-10,0-.92-3-1.93-1.07-3.25.92-.62,3.37.42,4.79,1.27,21.47,12.86,34,35,52.64,50.81C750.59,1610.37,757.36,1613.26,764.23,1616Zm30.36-232.76c3.8-5.23,16.45-14-3.36-17.29-10.1-1.68-35.86,3.77-42.22,12-10.53,13.71-16.32,28.6-14.24,46.21-.59,4.39,1.86,6.71,5.18,5C761.71,1418.11,780.27,1403,794.59,1383.24Zm-61.85-13.38c2.64-17.41-7.9-28.11-22-34.9-12.14-5.84-24.66-3.49-37.9-.45-20.38,4.69-32.66,29.19-20.47,46.59,8.53,12.17,23.16,11.42,33,14.23,10.19,0,17.52-.57,24.3-4.36C719,1385.7,730.84,1382.45,732.74,1369.86Zm-13.67-431.8c11.86-10.78,17.21-24.4,17.79-43.12-1.28-15.17-9.25-29.36-24-40-3.79-2.72-5.71-2.14-8.3,1.34-7.6,10.22-14.37,21-19.28,32.65-3.71,8.86-7.91,17.26,4.77,24.72,8.27,4.87,14.24,14.28,20,22.51C713.24,940.72,715.1,941.67,719.07,938.06ZM698.86,837.34c13.4,5.25,13.85-.68,12.11-10.88-2.23-13-3.45-26.22-6.51-39-5.23-21.75-13.08-42.88-13.59-65.64-.27-11.87-1.29-23.72-1.92-35.58-.21-4-.66-9.55,4-9.71s4,5.33,4.11,9.16.43,7.89.83,11.82c2.3,23,.25,46.6,10.5,68.32,2.59-4.51-.65-9.65.15-14.67,2.17-13.8,1.52-28.17.72-41.57-.73-12.19-2.17-24.43-1.4-36.77,1.45-23.19-4.55-33.28-24.57-38.25-2.66-.66-3.81.46-4.16,2-2.2,10-5.56,20-5.81,30.15-.47,19.51,1.24,39,3.35,58.5,1.25,11.51-.85,23.39-1.47,35.1-.73,13.83-.59,27.78-2.54,41.44-1.41,9.92-1.25,19.73-1.7,29.6-.13,2.87.84,3.52,3.63,3.66C682.78,835.44,691.6,834.49,698.86,837.34Zm-.1,113.21c2.63-.74,12-1.37,5.77-9.07a176.71,176.71,0,0,0-16.67-18.43c-16.24-15.07-34.34-27.68-53.51-38.75-1.1-.64-2.7-2.56-3.2.4-.86,5.17-1.46,10.38-2.28,16.31.86,3.78,1.68,8.27,2.92,12.64C639.43,940.77,670.93,958.38,698.76,950.55Zm-2.18-99.31c.68-.91.73-2.29,1.07-3.45a34.66,34.66,0,0,0-4.86-1c-8.58-.58-17.27-2.77-23.75,1-14.1,2.31-22,10.54-29.37,19.49-3.48,4.2-5,7.26,1.74,10.46,7,3.31,13.19,8.24,19.67,12.55,11.86,7.89,12.18,8,13.85,1.73C679,876.73,687.27,863.74,696.58,851.24Zm-14.48,562c1.37-7.33.83-9.08-3.54-9.51-5-.49-10-2.34-14.67-4.27-10.16-4.17-19.75-10.59-28.57,3.25-2.68,4.2-9.07,6.88-15.05,8.86-6.25,2.08-16.11,1.5-16.52,12.35a18.33,18.33,0,0,1-1.52,7c-8.52,17.89-22,31.83-36.35,45-1.74,1.59-4.55,3,.57,5.24,12.42,5.49,24.37,12,36.43,18.33,1.6.84,2.22,2.49,4.18,0,6.08-7.66,13.15-14.58,18.78-22.54,10.86-15.34,22.32-30.55,25-50,.51-3.62-1.29-9.67,3.6-9.46,3.86.17,4.93,6.27,4.53,10.59-2.37,25.19-16.06,44.39-31.9,62.94-2.32,2.71-22.71,10.26-1.3,17,4.78,1.51,9.14,2.5,12.37-3.61a102.56,102.56,0,0,1,12-17.41C669.05,1464.41,684.27,1440.39,682.1,1413.24Zm-41.18-35c1.5-16.67-14.06-29.23-37.2-29.23-4.22-1-9,1.17-14,1.93-9.31,1.42-17.36,5.36-21.74,13.64-4.87,9.22-4.49,19.47.48,28.56,8.39,15.38,23.47,14.88,37.9,13.56C624.37,1405.1,639.71,1391.84,640.92,1378.29ZM597,1420.07c1.49-3.25,0-4.91-3.12-4.79-20.72.83-33.68-9.58-37-29.72-.52-3.18-1.78-6.23-2.7-9.34-8.38,3.12-20-2.71-24.59,11-5.73,17-13.38,33.43-19.49,48.35,2.29,13.21,3.79,23.77,17,26.93,13,3.1,24.25,17.61,39.2-.19C577.66,1448.84,589.56,1436.24,597,1420.07Zm.08-343c1.33-8.45-3.54-16.81-9.73-23.92-1.66-1.9-2-11.81-7.65-5.51-8,8.92-15.93,18.45-19.77,30.2-1.79,5.45-4.7,12.51-2.69,16.76,3.3,7,11.92,11.52,15.11,18.53,3.44,7.58,6.58,4.11,9.18,1.41C591,1104.71,597.17,1093.15,597.07,1077.1ZM570.15,1045c2.61-2.68,5.21-4.64-1-6.6-5.8-1.84-11.37-4-14.48-3.6-20.55.14-33.42,8.67-42.09,22.92-3.36,5.51-12.89,15.5,5.74,15.84,9.27.16,18.91,4.48,26.1,11.71,3.06,3.06,4.14.58,4.4-1.77C550.63,1067.66,559.55,1055.86,570.15,1045Zm-11.87,79.55c2.25-.21,12.62,1.34,8-5.86-7.86-12.15-19.33-21.56-31.55-29.63-8.85-5.85-19.35-6.73-29.79-9.56.86,4.93.86,10.2,2.72,14.7C516.57,1115.86,534.49,1126.73,558.28,1124.53ZM490,1616h39.88c-2.89-5.67-5.74-11.36-9.06-16.77-11.78-19.2-20.49-40.06-35.54-57.57a271.28,271.28,0,0,0-39-37.52C435,1495.35,420,1491.46,406.8,1485a235.33,235.33,0,0,1-21-12.14c-10.53-6.63-21.09-13.27-31.23-20.47-6.92-4.91-10.71-13-20.17-15.88-8.72-2.64-17.16-.7-25.72-2.09-20.06-3.26-33.65-15.17-45.71-30-1.91-2.35-4.19-4.4-6.3-6.59-1,3-3.65,6.51-2.82,8.81,1.77,4.93,5.55,9.11,8.09,13.82,7.48,13.89,9.27,29.49,13.14,44.48,4.13,16,15.91,23.37,31.27,25,23.91,2.56,44.37,12.18,65.32,24,30.51,17.19,55.16,40.71,80.81,63.46A371.18,371.18,0,0,1,490,1616Zm10.81-654c.36-2.48-.34-5.12-.55-7.68a61.78,61.78,0,0,1-5.52,3.7c-4.68,2.47-10.24,3.91-14,7.36-4.2,3.89-16.05-3.74-14.08,9.26.37,2,.32,5.66,1.18,5.89,6.52,1.76,13.36,2.46,19.62-.62C494.87,976.3,499.63,970.24,500.85,962ZM497,1053.83c.62-17.76-14.09-35.06-38.77-33-13.68,1.16-27.18,15.75-27.15,31.6,0,17.32,14.51,35.56,28.91,34.74C478.74,1086.13,496.25,1075.06,497,1053.83Zm-.1-110.23c.08-5.36-14.55-14.51-22.9-14.54-15.15,0-16.9,2.36-11.51,15.78.36.88.29,1.94.62,2.84,2.16,5.91.57,16.26,12.79,9.39C483.22,952.94,492.06,951.36,496.88,943.6ZM64,1616H476.3c-11.71-12.43-23.47-24.81-36.09-36.23-20.11-18.19-39.27-37.86-63.43-51.15-11.83-6.51-23.55-13.26-35.43-19.69-13.09-7.09-27.92-7.41-42.1-9.61-14.67-2.28-32.27-21.14-34.69-35.66-2.75-16.47-5.89-33.23-14.16-48.21-2.21-4-2.24-.74-3.85,1.11-15.78,18.17-35.08,31.47-59,35.55-33.26,5.68-60.28-5.36-80.21-33.28-12-16.77-12.22-52.59.17-69.76,2.07-2.86,3.47-6.19,5.18-9.31-3.24-.23-6.48-.37-9.7-.71-16.92-1.77-29.44-9.43-39-20.9Zm405.86-340.34c4.84-18.45,2.83-34.23-6.58-48.83-13.38-20.77-33.17-33.08-57.86-38-18.38-3.66-36-4.41-53.22,4.25-3.46,1.75-7.12,6.17-10.82,3.14-3.92-3.22-3.56-9.3-2.15-13.6,2.45-7.43,1-14.85-.7-21.33-7.59-29.13-22.66-52.78-53.06-62.88-20.51-6.81-41.11-4.73-61,2.24A73.7,73.7,0,0,0,187.62,1129c-16,23.06-21.7,47.42-12.94,74.56.88,2.72.82,5.44-1.45,7.88a4.79,4.79,0,0,1-5.87,1.24c-12.19-5.46-24.25-10.44-37.68-13.16C107,1194.94,77.57,1206,64,1225.86v75.79c10.07,17.36,27.11,31.57,47.13,29.29,4.17,0,8.34-.11,12.5.08,1.12,0,3,.86,3.15,1.59a6.2,6.2,0,0,1-.86,4.4c-14.33,19.73-24.92,40.31-14.79,65.49,7.63,19,21,32.27,40.58,38.41,15.83,4.95,31.48,3.52,47.25-1.81,25-8.45,42.21-24.56,51.56-49,1.26-3.3.81-8.51,4.75-8.67,3.56-.15,5.78,4.35,7.85,7.65,7.77,12.41,16.95,23,30.36,30.22,14,7.49,28,6.86,42.36,3.52,11.19-2.6,21.48-8.35,28.76-16.84,13.37-15.59,20.28-34.57,18.58-55.1-.55-6.65,1.39-16.37-7.94-20.83-2-.94-4.91-3.07-3.87-6s4-1.12,6.09-1c11.31.53,22.19,2.28,34,.61C436.17,1320.09,462.71,1303,469.86,1275.66ZM457,1344.73c8-12.35,16-23.83,8.71-39-7.71,9.72-18.08,16.19-30.28,21-13.32,5.25-26.78,7-40.76,6.94-2.39,0-4.78-.09-7.17-.13a9.54,9.54,0,0,1,1.17,2.2,94.55,94.55,0,0,1-.75,46c-2.38,9.3-19,21.26,2.82,29.94,15.6,6.21,32.26,11.1,40.38-10.91C438.25,1381.42,445.76,1362,457,1344.73ZM408.73,1174a35.2,35.2,0,0,0-5.17-32.85c-9.95-13.45-33.11-18.68-48.57-11.42-4.81,2.26-14.33,2.86-11.49,13.92,3.33,13,8.31,26.1,4.08,40.42,18.49-9.43,37.85-10.71,57.78-8.27C406.44,1175.91,408.43,1174.89,408.73,1174ZM324,1064.86c17.63-8.52,24.56-20.41,18.6-32.5-7-14.26-17.68-22.83-34.32-21.16-14.51-1.77-24.78,6.28-35.12,14.31-6.31,4.9-9.37,11-7,18.84C273.26,1067.54,303.81,1074.64,324,1064.86ZM314.4,648.54a52,52,0,0,0-11.78-30.47c-2.4-2.93-7.25-9.31-12.07-1.19-5.77,9.71-11.74,19.3-17.27,29.14-1.18,2.1-1.16,4.53,1.1,7.29,5.72,7,13,13,15.34,22.63.34,1.35,3.14,12.47,10.41,4.95C308.77,672,313,660.81,314.4,648.54Zm-27.53,439.25c-.46-4.17.38-11.15-1.6-12.07-11.73-5.48-21-13.12-27.52-26.46-1.86,14.44-10.58,22.34-20.39,25.18-16.93,4.92-34.72,5.48-50.41-5.89a12.12,12.12,0,0,0-3-1.3,1.87,1.87,0,0,0-.55,1.08c1.24,10,2.35,19.93,3.86,29.84,1.16,7.59,4.46,10.11,9.58,6.61a116.46,116.46,0,0,1,30.38-14.88c15.48-5,31.29-7.09,47.52-3.6C278.68,1087.15,282.81,1087.31,286.87,1087.79Zm-8.82-394.95c9.07-1.08,10.8-2.94,7.83-7.61-11.84-18.63-24.26-36.66-44.82-47-4.7-2.37-9.13-6.73-14.35-5.57-1.88.43-3,6.63-3.55,10.33-3.75,24.74,19.11,51.93,45.41,49.93A78.86,78.86,0,0,0,278.05,692.84Zm6.2-82.85c1.16-1.29,2.32-4-1.69-5-22.11-5.61-39.55,1.34-53.13,19.15,12.39,3.11,22.74,9.75,32.68,17,2.65,1.94,3.44,2.69,5.07-1.06C271.79,629.49,276.3,618.78,284.25,610ZM250.1,813.3c2.59-17.73.67-35.9-2.22-53.76-2.62-16.22-8-32.12-3.51-49,1.16-4.38.31-12.15-2.57-14.19-8.27-5.87-15.63-11.65-20.19-21.17-7.21-15.06-8.47-29.73-3.31-45.92,3.93-12.32,17.72-19.93,13.25-36.75-4.73-17.82-4.19-37-6.75-55.45-2-14.32-4.64-28.6-8-42.66-3.49-14.55-6.3-29.75-12.85-43-10.48-21.14-12.25-42.92-10.8-65.54.15-2.29,2.78-6.14,4.43-6.23,2.79-.16,1.35,3.39,1.42,5.26.23,6.21-.63,12.54.25,18.63,2.83,19.82,9.77,38.5,17.7,58.34,0-11.39,0-21.59,0-31.79,0-14.54,1-29.21-.47-43.6-2.16-20.51-7.44-40.71-9.19-61.23-2.14-25.07-6.74-49.69-10-74.54-2.77-20.94-1.64-42.42-4.76-63.29-2.22-14.8,3.6-34.58-17.63-41.33-6.61-2.1-14.53-4.75-20.64.94s-5.11,14.47-4.47,21.11c1,10.65,3,21.83.71,31.71-4.52,19.25,2.26,36.77,5.42,54.63,3,16.8,5.21,33.49,5.44,50.46.24,18.59.05,37.18.05,59.33,2.6-7.85,4.44-12.26,5.5-16.85,3.5-15.06,7.62-29.81,8.81-45.55,1-13.42,1.82-26.91,1.31-40.18-.87-22.47-3.93-44.85-6-67.27-.15-1.68-.18-3.47,2.44-3.33,1.73.09,3.4-.7,3.79,2.33,1,8.06,2.49,16.07,3.88,24.08,3.82,22.07,6.56,44.09,6.42,66.68-.11,18.24-4.5,35.49-8.12,52.87-3,14.53-9.16,28.54-13.37,42.76-5.26,17.73-11.28,36.19-7.25,55.59,2.08,10-.1,20.48,3.9,30.59,3.29,8.34,6.87,17.93,5.75,26.37-2.33,17.64-.32,35.15-1.33,52.67-1.13,19.65.33,39.28-1.36,59-1.27,14.92,3.77,30.31,5.24,45.57,1.79,18.6,3.86,37.29,3.87,55.93,0,32.32,3.61,64.44,3.94,96.67.13,12.9.84,25.85,1,38.73.15,13.29,1.89,26.5-.3,39.85-.51,3.09.35,6.78,5.7,6.24,7.66-.77,14.77,2.21,21.7,5,1.7.69,2.49.59,1.87-.75-4.06-8.67-4.22-17.58-5-27-1-12-.17-23.9-.36-35.73-.35-22.1-1.22-44.15-3.39-66.09-3.13-31.75-8.95-63.31-10.63-95.11-1.88-35.74-.47-71.66-.35-107.5,0-2.73-.39-7.24,2.92-7.49,4.23-.32,2.56,4.22,3.33,6.85,1.11,3.78,1.12,7.39,1.18,11.32.5,32.36,1.08,64.75,2.82,97.07,1.12,20.65,4.27,41.19,6.48,61.78,3.17,29.62,7.07,59.18,7.26,89,.1,16,0,31.94,0,47.91a135,135,0,0,1,7.7-20.45,55.8,55.8,0,0,1,12.48-18.14C238.7,822.55,249.3,818.79,250.1,813.3Zm-1.16,227.54c-2.54-12.21-8-25.34-21-33.53-11.15-7-23.42-7.17-36.16-4.38-11.67,2.55-20.39,9.19-24,19.78-3.12,9.21,1.6,18.71,7.88,25.7,10.85,12,25.15,17.89,41.31,19.54C233.29,1069.61,248.93,1057.72,248.94,1040.84Zm-71.81,87c6.79-11.4,2.35-23.22.73-34.27-1.21-8.21-.77-16.6-2.06-24.85-1.18-7.56-5.71-11.42-9-16.52-5.36-8.25-11.27-15.32-9.14-26.69,1.32-7.09-7.71-5.38-11.38-6-18.38-3.08-39.89-27.3-43.81-44.9-6-27.12,1.94-49,17.66-70.07,1.59-2.13-1.47-8.46-3.43-12.3-1.42-2.79-4-.53-6.3.45-13.1,5.65-32.56,1.63-46.37-7.19v325.69c11.22-10.85,26.33-18.94,39.74-20.47,20.57-2.36,39.65.38,57.91,9.88a4.43,4.43,0,0,0,2.7,0c.33-1.93.89-4,.49-5.86C159.62,1170.7,164.79,1148.51,177.13,1127.8Zm-6.14-264c.59-25.26-.62-50.61-2.19-75.86-2.17-34.83-2.89-69.68-4.18-104.53-1-26.83-8-53.22-7.72-80.29.2-21.82-.12-43.64.2-65.46.06-3.87,2.81-7.63,1.44-12-9.68,11.71-20.78,21.57-35.62,22.93-11.58,1.06-8.56,10.09-11.49,15.55-1.76,3.28-2.9,8.72-6,8.22-4.37-.71-3.54-7.26-2.16-9.39,9.83-15.22-3.74-12.83-11.09-16C80.6,542,70.7,534.24,64,524.4v274c1-.7,2-1.43,3-2.18,12-9.11,25.22-9.85,39.53-6.45,12.44,3,22.26,8.48,29.93,19.17,8,11.21,10.41,23.64,10.4,36.56,0,15.48-7.69,27.61-19.22,37.73-5,4.37-.2,9.24,1.67,13.19,1.68,3.54,2.85-1.25,4.6-1.72,7.73-2.05,15.48-7.61,22.81-7C179.33,889.62,170.79,872.63,171,863.77Zm-13.19-368c.43-11.23-3.52-17.79-11.83-14.46a136.73,136.73,0,0,0-22.14,11c-3.5,2.2-9.56,3.79-8.62,9.73,1.76,11.21,4.57,22.29,1.63,34.33L118,540.8c5-1.6,10.72-2.22,15-5C147.34,526.47,157.09,514.24,157.8,495.75Zm-8.87-24.28c3.62-1.29,2.89-2.92,1.36-4.71-10.24-12-22.21-20.82-41.5-19.69a31,31,0,0,0-7.05.11c-3.57.63-7,2.12-10.46,3.24a23.08,23.08,0,0,0,2.34,4.3c5.76,6.64,10.86,13.68,14.16,21.9,5,12.56,5.48,13.09,7.49,11.46C125.25,480,137.11,475.7,148.93,471.47ZM139,837.62c1.38-11.15-8-19.35-15.37-28.49-1.5-1.87-3.79-2.78-6.06-.07-5.37,6.4-11.4,12.28-16.31,19-3.76,5.15-9.56,9.82-1.25,17.69,7.16,6.77,13.78,15,17.48,24.87,3.28,8.73,7.86,4.3,10.76.15A56.18,56.18,0,0,0,139,837.62Zm-38,47.13c4.48-2.7,17.54,1.32,8.65-12.54C98.06,854.18,82.55,840,67.9,825a44.86,44.86,0,0,0-3.9-4.51v52.29a42.41,42.41,0,0,0,29.58,12.16C96.08,884.93,99.13,885.85,101,884.75Zm5.84-344.68c1.67-.29,1.92-8.82,2.43-11.45C107,503.08,102,480.67,88.05,461.3c-1.54-2.14-3.07-8.6-8.85-3.85-8.58,7.05-13.59,17.3-15.2,28.15v15.66c2,13.51,9.11,26.07,21.11,32.7C91.69,537.6,99.15,541.39,106.81,540.07ZM92,826.65c5.62-8.86,12.48-16.5,18.51-24.71-7-3.85-14.66-3.31-22-2.73-8.9.69-18.14,4.2-22.65,11.18-2.53,3.93,8.24,6,10.77,11.13.07.14.25.39.29.37C83.44,819.17,83.38,840.27,92,826.65ZM56,1618.34V61.66l-48-48V1666.34Z"/><path d="M701.09,1251.61c1.68,19.25-2.4,37.73-6.78,56.21a61.73,61.73,0,0,0-9.48-6.52c4-16.26,7.39-32.62,8.11-49.49.12-2.9,1.85-4.69,4.47-4.7C699.84,1247.1,700.87,1249.11,701.09,1251.61Z"/><path d="M666.7,1238c2.71,19.07,4.23,38.17,2.88,57.23a67.75,67.75,0,0,0-9.64-1.72c2.12-17.29,1.2-34.63-1.64-51.78-1.09-6.57,3.08-8.45,4.51-12.58C667.05,1230.74,666.33,1235.39,666.7,1238Z"/><path d="M641.91,1287.43q.14,3.12.42,6.24c-1.38.15-2.79.34-4.22.57-2.05.32-4,.7-5.91,1.14-.49-3.52-.89-7-1.07-10.58-.73-14.32-1.63-28.45-5.6-42.37-.91-3.19-5.86-7.74-.25-10.67,1.4-.73,6.21,2.26,7.42,4.59a44.2,44.2,0,0,1,4.24,14.29C638.55,1262.88,641.38,1274.8,641.91,1287.43Z"/><path d="M612.25,1277.28c2,7.57,4,15.14,5.75,22.76a60.74,60.74,0,0,0-9.74,5.4c-2.83-16.08-7.18-31.86-11.18-47.72-.53-2.09-1-4.92,1.58-6.32,2.81-1.52,3.87,1.27,5,2.82C608.74,1261.06,610.14,1269.27,612.25,1277.28Z"/><path d="M595.2,1317.73a56.45,56.45,0,0,0-5.94,9.6c-10.56-17-20.94-34.16-31.3-51.29-1.24-2.06-3.51-4.36-.59-6.84,3.12-2.67,5.29-.11,6.82,1.91,2,2.65,2.77,6.34,5,8.74C579.73,1291.34,588.08,1304.16,595.2,1317.73Z"/><path d="M354.67,917.17c3.67.66,2.77,4.46,2.26,6.7-1.79,7.69-3.44,15.55-6.44,22.8-6.13,14.85-12.71,29.48-22.45,42.44a44.68,44.68,0,0,0-5.86-7.48,232.79,232.79,0,0,0,26.94-58.73C349.84,920.54,350.87,916.48,354.67,917.17Z"/><path d="M352.65,1253.19c.6,7.14-7.87,6.39-11.7,7.39-19.24,5-39,8.14-58.43,15.71,14.2,4.29,28.28,3.72,42.19,4.71a57.61,57.61,0,0,1,10.5,2.1c.74.19,1.16,1.63,1.73,2.5-2.19,1.15-4.48,3.44-6.58,3.28-15.77-1.23-31.8.88-47.35-3.59-1.62-.47-5-1.62-5.68,1.2-.83,3.23,2.75,3.48,4.73,4.36,21.83,9.7,43.79,19.12,64.06,32,3.1,2,4.42,5.74,3.35,7.29-1.89,2.73-4.9,0-7.38-1.19-18.95-9-36.75-20.51-57.31-25.93-.16,0-.34,0-.49-.07-4.4-1.62-9.4-9.25-12.31-4.63-2.14,3.41,6.94,7.67,10.71,11.85,9.52,10.55,19.53,20.67,29.33,31,1.82,1.91,1.25,3.71-.55,5.12-2.09,1.64-4,.89-5.69-.88-12.5-12.91-27.15-23.67-39.21-40.19,7,18.11,13.34,34,19.22,50,2.74,7.47,3.41,15.69,8.93,22.12,1.15,1.34.63,4.37-1.38,4.47s-5.14-1.11-6-2.7a215.06,215.06,0,0,1-14.73-36c-3.65-11.49-9.73-22.2-15.56-33.19,3.3,14,.81,28.35,3.2,42.45a62.5,62.5,0,0,1,.54,15.4c-.18,2.28-2.78,3.75-5.65,3.37-3.26-.42-2-2.91-2.2-4.65-2.05-17.36-4-34.73-6.16-52.07-.14-1.13-1.78-2.07-2.73-3.11-.33,1.14-.72,2.27-1,3.43-3.82,16.08-7.48,32.21-11.49,48.25-1.81,7.19-4.3,14.21-6.5,21.3-1.22,4-1.48,9.59-5.7,10.5-6,1.29-4.66-3.72-3.84-7.27.46-2,1.31-3.84,1.89-5.79,5.47-18.25,11.4-36.38,13.63-55.46.66-5.64,2.82-11.1,5.11-19.73-11.48,18.79-21.21,34.71-30.93,50.64-1.36,2.23-2.69,4.89-5.88,3.36-1.61-.76-2.38-1.82-1.19-4.58,7.42-17.27,17.18-33.18,27.57-48.72a4.33,4.33,0,0,0,.73-4.27c-1.21.43-2.64.57-3.6,1.32q-24.76,19.36-49.43,38.86c-2.88,2.27-5.56,4.84-8.59,6.89-2.19,1.47-5.1,3.42-7.39.76s1-4.29,2.48-5.48c19.11-15.91,38.38-31.65,57.6-47.43.73-.6,1.42-1.24,3.8-3.32-13.64,4.12-25.2,7.84-36.89,11-7.74,2.13-15.66,3.59-23.53,5.19-.51.11-1.6-.93-1.88-1.65a4.06,4.06,0,0,1,2.65-5.52c16.1-5,32.31-9.73,48.45-14.66a47.89,47.89,0,0,0,6.6-3.14c-1.87-1.63-4.08-1.41-6.34-1.83-14.21-2.68-28.26-6.24-42.34-9.6-6.94-1.65-13.8-3.62-20.75-5.19-2.83-.64-3.89-2.46-2.57-4.42,1-1.46,1.59-3.71,5.67-2.69,14.94,3.74,30.25,6,45.4,8.94,6.92,1.34,13.79,2.93,21.14,2.93-13-7-26.14-13.87-39-21.13-2.06-1.17-5-2.75-3.57-6.86,1.73-5.08,4-2.07,6.1-1,14,7.37,28.25,14.31,41.72,22.52,4.26,2.59,4.41-1.23,6.16-.9-9.44-6.57-18.25-13.55-25.74-22.37-3.74-4.41-9.09-7.42-13.45-11.35a85,85,0,0,1-9.69-10.21c-.64-.81.38-3.33,1.2-4.74.3-.52,2.66-.63,3.33-.06,15.33,13.2,30.54,26.53,45.85,39.76,1.27,1.09,3.89,2.62,4.46,2.16,2-1.61-.73-2.49-1.3-3.77-6.69-15-13.5-29.86-19.86-45-.58-1.39-2.41-5.55,2.27-6.14,4.29-.54,4.41,3.2,5.56,5.57,7.53,15.52,14.9,31.12,23.28,48.69-2.6-25.5-5-48.6-7.28-71.7-.3-3-.84-7.07,2.89-7.62,1.36-.2,4.6,4.18,5,6.76,2.39,17,4.17,34,6.27,51,.73,5.9,1.82,11.76,2.82,18.17,5.76-19.86,11.43-39.26,17-58.69.95-3.3,3.18-6,6.21-4.84,3.36,1.33,1.69,4.61.85,7.64-3.9,14-7.3,28.05-10.92,42.08-1.07,4.15-2.26,8.26-3.39,12.39-.28,1-1.4,2.42.73,2.49a3.17,3.17,0,0,0,2.46-1.43c11-23.05,25.53-43.85,40.32-64.48.87-1.21,3.39-1.23,5.14-1.8.06,1.53.73,3.43.07,4.54-10.63,17.76-21.44,35.41-32.17,53.11-1.77,2.93-3.4,6-5,9-.24.46.13,1.25.22,1.89a12.54,12.54,0,0,0,1.95-.94q20.82-14.42,41.59-28.89c2-1.38,4.54-1.67,5.69,0a4.24,4.24,0,0,1-1,5.77q-19.21,14.39-38.36,28.86a19.19,19.19,0,0,0-4.18,3.91c18.42-7.54,38.4-7.83,57.14-13.43,1.63-.49,3.33-2.1,4.7-1.8C346.31,1251.86,352.22,1248.16,352.65,1253.19Zm-87.12,28.63c.94-12.06-7.56-16.94-17.89-16.47-11.29.53-17.58,9-17.25,19.45.31,9.82,9.5,13.29,17.14,16.79C259.34,1299.44,264.74,1291.94,265.53,1281.82Z"/><path d="M326,890c2.38.34,3.39,2,3,4.31-.58,3.79-2.14,7.65-1.77,11.32,1.21,12-1.44,23.85-4.91,34.69s-7,21.87-11.47,32.56a64.4,64.4,0,0,0-9-4.32c1.71-4,3.39-8,5.12-12,8.72-20.23,10.92-42,15.85-63.15C323.32,891.44,323.51,889.67,326,890Z"/><path d="M295.14,893.64c.18,20.28.54,40.51-4,60.52q-1.2,5.28-2.64,10.46c-1.54-.33-3.14-.64-4.79-.92s-3-.48-4.5-.66a217.55,217.55,0,0,0,7.35-68.68c-.25-4.35.05-10.38,5.16-10.73C294.44,883.44,295.1,889.61,295.14,893.64Z"/><path d="M257.66,939.28c.63,7.82,1.32,15.68,1.76,23.53a68.31,68.31,0,0,0-8.3,1.41c0-5.81-.12-11.61-.38-17.41-.53-11.61-3-23.13-4.23-34.72-.25-2.26,1-4.69,1.62-7,1.72,1.56,4.68,1.27,5.12,4.84C254.46,919.72,256.87,929.43,257.66,939.28Z"/><path d="M228.57,944.51a155.71,155.71,0,0,1,8.23,24.89,61.8,61.8,0,0,0-8.51,5.19c-4.63-17.4-10.31-34.47-19-50.56-.64-1.2.38-3.29.63-5,2.32.37,6,0,6.73,1.25C221,928.16,225,936.28,228.57,944.51Z"/></svg>