<svg id="Card" xmlns="http://www.w3.org/2000/svg" viewBox="0 0 1024 1680"><defs><style>.cls-1{fill:#f2f0ed;}.cls-2{fill:#8c1707;}.cls-3{fill:#24a8b2;}.cls-4{fill:#16592d;}.cls-5{fill:#d82e21;}.cls-6{fill:#f79d31;}.cls-7{fill:#38408c;}</style></defs><rect class="cls-1" x="14.5" y="14.5" width="995" height="1651"/><polygon class="cls-2" points="966 1619.17 966 60.83 1018 8.83 1018 1671.17 966 1619.17"/><polygon class="cls-2" points="60.83 58 8.83 6 1015.17 6 963.17 58 60.83 58"/><polygon class="cls-2" points="8.83 1674 60.83 1622 963.17 1622 1015.17 1674 8.83 1674"/><path class="cls-3" d="M736,1618l.11-2.1c.17-3.19.29-6.44.41-9.58l0-.35c.06-1.65.12-3.3.19-4.94.2-4.82.27-9.74.34-14.49.12-8.67.25-17.61,1.15-26.37,2.06-20.07,4-41.44,3.4-62.7l0-.6c0-1.3-.09-2.33.73-3.18a3,3,0,0,1,2.33-.82l.74,0,.59,0c4,.1,8.09.17,12.15.24,13.36.25,27.17.5,40.79,1.62,5.41.44,11.15.65,18.08.65,5.3,0,10.72-.13,16-.25h.1c4.75-.11,9.65-.22,14.54-.24l7.21,0c18,0,37.15.48,55.81,6.15,7.2,2.18,11.6,5.51,13.87,10.46,1.7,3.69,4.86,10.57-.66,16.92-7.68,8.85-18.28,13.78-30.65,14.26-12.09.47-24.35.53-36.2.59-14.87.07-30.24.15-45.3,1-1.86.1-3.78.12-5.57.12h-2.62c-11.21,0-20.19.94-25.24,12.8-4.81,11.31-4.73,21.92.23,30.68,5.12,9,15.24,15.24,27.77,17a128.59,128.59,0,0,0,17.53.89h5.89c1.9,0,4.39,0,6.85.08,4.24.12,8.55.38,12.72.64,5.62.35,11.35.7,16.91.7a95.4,95.4,0,0,0,11.87-.66,203.33,203.33,0,0,1,24.72-1.11c2.23,0,4.43,0,6.63,0,14.13-.18,28.51-.22,42.41-.26l10.18,0V1618Z"/><path class="cls-3" d="M914.2,1600.76c-9,0-18.09-.62-26.91-1.23-3.39-.23-6.78-.46-10.16-.66s-6.74-.29-10.63-.29c-5.36,0-10.79.18-16,.35s-10.8.35-16.16.35c-12.22,0-26.69-.77-41.3-6.48-11-4.29-15.52-13.07-13.92-26.84,1.22-10.46,7.33-16.43,17.21-16.81,13.16-.48,26.54-.82,39.47-1.14,11.64-.29,23.61-.58,35.38-1,4.9-.17,10.11-.24,16.87-.24l9,0c3,0,6,0,9,0,10.06,0,20.89-.14,31.92-1.18,8.81-.83,15.6-2.24,21.38-4.42l2.71-1v59h-2c-12.25,0-22.46.15-33,1C923,1600.6,918.79,1600.76,914.2,1600.76Z"/><path class="cls-3" d="M923.94,1542.91a7.7,7.7,0,0,1-2.21-.4l-.74-.19-2.55-.53,1.16-2.32c0-.11.09-.22.14-.34a3.76,3.76,0,0,1,1.3-1.91c9.89-7,12.52-15.72,8-26.48-4.58-11-15.68-13.57-25.48-15.83a150.52,150.52,0,0,0-35.25-3.91c-1.65,0-3.33,0-5.07.06h-.11c-3.19-.16-6.71-.36-10.49-.58-9.21-.52-19.64-1.11-30.24-1.49l-7.43-.27c-20.61-.75-41.85-1.52-62.72-1.54-4.36,0-7.31-1.1-8.78-3.27-1.3-1.93-1.33-4.49-.07-7.59,1.63-4,1.19-8.4.78-12.62-.45-4.52-.91-9.19.87-13.89a5.14,5.14,0,0,0,.21-.93c.19-1.15.64-3.85,4.18-3.85h.39c7,.35,14.36.77,20.84,1.14,17.82,1,36.19,2.06,54.25,2.23,5.62,0,11.3.36,16.79.65,6.11.32,12.38.66,18.57.66,1.7,0,3.36,0,4.93-.08,1.37,0,2.8-.06,4.24-.06,12.76,0,25.71,1.74,38.24,3.42l-.09,1.5.2-1.48c3.69.5,7.39,1,11.07,1.44,16.4,2,30.64,7.81,42.34,17.2l.75.6v63.63l-1.15.54a60.36,60.36,0,0,1-13.17,4.22,115.2,115.2,0,0,1-16.88,1.82c-2,.12-4.33.25-6.5.42Z"/><path class="cls-3" d="M958.66,1464.76l-.35-.24c-17.72-11.92-38.24-14-58.08-16-4-.4-8.49-.86-12.8-1.38a171.47,171.47,0,0,0-20.79-1c-2.12,0-4.25,0-6.37,0l-6.43,0a188.27,188.27,0,0,1-19.89-.86c-20.92-2.25-42.36-2.94-63.1-3.61h-.54c-6.46-.21-13.13-.43-19.69-.69-2.69-.11-4.5-1-5.39-2.65a5.41,5.41,0,0,1,.51-5.38c1.78-2.92,1.58-6,1.23-8.82-.42-3.35,0-5.53,1.34-7.07s3.46-2.21,7-2.21h.63c11.56.21,23,.23,35.75.23H796c22.1,0,47.15,0,71.76,1.71,5.32.37,11,.54,17.92.54,4.87,0,9.83-.09,14.64-.17h.16c4.88-.08,9.92-.17,14.89-.17H962v50Z"/><path class="cls-3" d="M959.93,1413.14c-1.62-.05-3.24-.1-4.86-.13q-10.52-.19-21-.3c-18.25-.23-37.14-.46-55.75-1.47-8.14-.44-16.93-.65-27.65-.65-6.72,0-13.56.08-20.17.16s-13.54.16-20.36.16q-4.23,0-8.45-.05c-12.52-.15-25.15-.75-37.37-1.34l-11.77-.54c-1.59-.07-4.12-1.3-4.61-3.17-1.94-7.31-1-14.19,2.61-18.87a14.65,14.65,0,0,1,12.09-5.7,20.25,20.25,0,0,1,3.34.28,108.36,108.36,0,0,0,17.56,1.25c5.23,0,10.51-.24,15.62-.48,3.62-.17,7.33-.34,10.94-.42,2.44-.06,5-.08,7.81-.08,4.59,0,9.21.07,13.68.14s9.16.14,13.67.14,8.33-.07,11.91-.21c8.31-.33,16.76-.49,25.11-.49,12.79,0,25.78.39,38.59,1.15,5.2.31,10.64.47,16.61.47,8.23,0,16.33-.3,22.48-.56l2.08-.09v30.86Z"/><path class="cls-3" d="M958.8,1378.88l-2.28,0c-4-.1-8.1-.48-12-.85-4.54-.42-9.22-.85-13.75-.85-1.9,0-3.64.07-5.33.22-6.08.55-12.63.8-20.64.8-4.89,0-9.84-.1-14.62-.19H890c-4.28-.08-9.13-.17-13.73-.18H876c-4.17,0-8.48.2-12.65.4-4.33.21-8.75.41-13.13.41a88.77,88.77,0,0,1-16.16-1.29,24.76,24.76,0,0,0-4.61-.38,79.92,79.92,0,0,0-8.49.63,81.58,81.58,0,0,1-8.59.63c-.62,0-1.24,0-1.84,0-11.33-.64-21.55-1.16-31.94-1.16a214.9,214.9,0,0,0-27.58,1.6l-.27,0c-1.58,0-2.68-1.15-3.64-2.16l-.49-.51a2.14,2.14,0,0,1-.62-1.77,4,4,0,0,1,1.52-2.72c2.36-1.57,4.81-3.11,7.17-4.6l1.26-.79c3.06-1.93,6.08-4.22,9-6.44,8.19-6.25,16.67-12.7,27.81-12.7a30.32,30.32,0,0,1,5.08.44,115.09,115.09,0,0,0,19.37,1.38c3,0,6.17-.06,9.18-.12h.13c3.07-.07,6.24-.13,9.39-.13s6,.07,8.55.2c4.85.26,10,.38,15.62.38,8.94,0,18.07-.31,26.9-.62,7.08-.25,14.29-.5,21.39-.59q15.43-.19,30.88-.31H940l20-.19,2,0v31.61Z"/><path class="cls-3" d="M903,1343.14l-34.77,0-20.56,0h-58.3l10.84-6.9c2.5-1.59,4.71-3,6.9-4.4,3.2-2.07,6.45-4.68,9.6-7.21,7.23-5.8,14.68-11.78,22.86-12.57,17-1.66,34.45-1.7,51.29-1.75,13.4,0,27.26-.08,40.85-.93,6.95-.43,14.44-.63,23.59-.63l4.73,0h2v34.4l-2,0q-10.72-.09-21.44-.12l-7.48,0c-3.86,0-7.89,0-11.44.09s-7.27.09-10.9.09Z"/><path class="cls-3" d="M860.32,1307.09a7.16,7.16,0,0,1-6.56-4.15l-.88-1.6,1.51-1c1.14-.77,2.29-1.51,3.44-2.25,2.52-1.63,4.84-3.14,7-4.86,10.81-8.42,22.76-16.64,39.48-16.64.91,0,1.84,0,2.75.07,10.43.54,21.79.79,35.75.79,6.23,0,12.43,0,17.13-.09l2,0v28.29l-2,0-11.94.06c-7,0-14.94.06-22.54.17-9.89.14-17.93.2-25.32.2-11.6,0-21.94-.16-31.59-.49h-.17a14.5,14.5,0,0,0-3.45.68A18.12,18.12,0,0,1,860.32,1307.09Z"/><path class="cls-3" d="M960,1272.93c-4,0-7.91,0-11.88-.09-4.46-.06-9-.35-13.32-.63-4.82-.31-9.75-.63-14.55-.63-2.66,0-5.08.1-7.39.29-1.08.1-2.09.14-3,.14-4.15,0-6.9-1-8.4-2.94-2.15-2.83-1.07-6.74-.11-10.18a23.84,23.84,0,0,0,1-4.49c.35-5.11,3.59-5.87,5.49-5.87a15.75,15.75,0,0,1,3.1.4,12.4,12.4,0,0,0,1.93.28c14.42-.13,28.55-.19,42-.19H962v23.92Z"/><path class="cls-4" d="M720.72,627.68a5.59,5.59,0,0,0-.65-.31,5,5,0,0,1-2.5-1.91,145.07,145.07,0,0,0-31.13-37.24,5,5,0,0,1-2-3.7c-.07-2.56,2.09-4.6,3.84-6.25a14.44,14.44,0,0,0,1.73-1.81c4.78-7.21,9.49-14.53,14-21.62,14.63-22.73,29.74-46.24,48-67.1,5.59-6.39,10.78-13.39,15.79-20.15q2.46-3.31,4.93-6.6a6.23,6.23,0,0,0-2.67,1.35c-2.65,3-5.4,5.86-8.06,8.68-7.81,8.29-15.84,16.8-22.07,26.63a196.24,196.24,0,0,1-13.47,18c-3.71,4.58-7.53,9.3-10.9,14.16-4.75,6.85-9.33,14-13.77,20.95-5.77,9-11.71,18.31-18.12,27.07-2.19,3-4.77,4.52-7.65,4.52-3.09,0-5.94-1.7-8.7-3.35-2.18-1.3-4.44-2.64-6.41-2.82-3.65-.33-7-2.08-10.22-3.77a31.36,31.36,0,0,0-7.76-3.23c-3.72-.75-6-2.12-6.82-4.19-1.23-2.89.66-5.84,2.18-8.22l.44-.69c2.62-4.19,5.22-8.53,7.73-12.74,7.33-12.25,14.87-24.86,24.12-35.84,20.5-24.29,39.06-43,58.42-58.83,15.09-12.33,31.54-25.23,49.71-36a330.77,330.77,0,0,1,65-29.53c20.39-6.68,42.53-13.06,66.32-14.5,6.53-.39,13.17-.89,19.59-1.37,9.93-.75,20.13-1.51,30.21-1.92l2.08-.08V375.5l-1.31.49a174.92,174.92,0,0,0-35,17.33l-4.55,2.95c-11.83,7.66-24,15.57-35.2,24.73l-7.23,5.9c-16.73,13.65-34,27.73-48.86,43.66-16.9,18.13-32.71,37.89-48,57L780.68,529c-17.82,22.25-31.78,47.67-45.29,72.25L733.9,604a138.82,138.82,0,0,0-6.3,13.76c-.91,2.2-1.85,4.47-2.84,6.71-.26.58-.55,1.14-.84,1.7l-1.36,2.67Z"/><path class="cls-5" d="M911.61,330.41A75.6,75.6,0,0,1,897.4,329c-15.69-3-27.44-10.85-35.94-23.94-2.13-3.3-3.52-4.64-4.78-4.64-1.07,0-2.52,1-4.19,2.8-9.14,10-19.72,15.12-31.43,15.12a45.57,45.57,0,0,1-11.42-1.53c-7.7-2-12.33-5.37-13.76-10-.9-2.92,2-6.06,5.13-9.38.8-.86,1.54-1.65,2.15-2.38.41-.49.83-1,1.25-1.46l.08-.1c3-3.54,5.9-6.89,7.14-11.34.88-3.13,2.46-4.72,4.68-4.72a5.62,5.62,0,0,1,2.86.89,30.52,30.52,0,0,0,16.06,4.58c8.42,0,16.7-3.43,23-6.43l1.76-.85c3.5-1.73,7.85-3.87,10.95-3.87a5,5,0,0,1,2.79.75,40.43,40.43,0,0,0,22.69,6.63,63.56,63.56,0,0,0,17.26-2.62c19.24-5.45,34.31-14.84,44.78-27.93l3.56-4.45v64.68l-.67.6c-16.18,14.32-32,21-49.72,21Z"/><path class="cls-5" d="M899.25,270.29a36.35,36.35,0,0,1-9.73-1.32l-.16,0a7.17,7.17,0,0,0-2,.55,9.79,9.79,0,0,1-3.27.77c-1.41,0-3.3-.59-4.32-3.43-.75-2.08,1.32-3.57,4.44-5.82a36.51,36.51,0,0,0,3.29-2.53c21.61-19.84,29.49-38.57,24.8-58.94-3-13,2.68-15.38,9.23-18.17l1.89-.82a38.26,38.26,0,0,0,4.93-2.84c3.37-2.16,6.84-4.39,10.89-4.39a12.16,12.16,0,0,1,7.67,2.92c4.74,3.74,10.71,8.87,14.78,15.45l.3.48v35.63l-.19.4c-6.59,14-18.43,25.21-36.21,34.29C918.06,266.35,909,270.29,899.25,270.29Z"/><path class="cls-5" d="M767,216.58c-9.8,0-20.33-2.8-21.75-9.08-2-8.86.54-17.93,6.66-23.68,8.32-7.81,18.27-11.94,28.76-11.94a43.16,43.16,0,0,1,8.17.8,6.7,6.7,0,0,1,3.47,2.45,10.94,10.94,0,0,0,1.13,1.13,5.88,5.88,0,0,0,.95-1.45c1.38-2.69,1.19-5.07-4.2-7.93a21.21,21.21,0,0,0-9.9-2c-14.46,0-31.89,8.25-37.3,17.67a2.5,2.5,0,0,1-2.38,1.09c-2.52,0-5.67-.32-6.35-1.84-8.42-18.1-25.1-22.9-41.86-25.39l-6.24-.93,5.63-2.84c15-7.57,25.2-33.68,19.47-49.89C702.45,77.71,688,67,663,67h-2V62H962V180.49l-3.33-3a26.43,26.43,0,0,0-10.47-6c-4.75-1.33-7-2.71-7.68-4.75-.78-2.25.68-4.24,2.09-6.17a29.55,29.55,0,0,0,1.73-2.57c7.78-13.57,9.32-24.6,4.83-34.71-6.69-15.09-25.13-26.48-42.88-26.48a36.32,36.32,0,0,0-11.73,1.87c-5.68,1.93-9.94,2.8-13.82,2.8-7.62,0-13.93-3.35-22.5-11.93C847.91,79.21,835,74,819.88,74a80.25,80.25,0,0,0-29.76,6.21c-8.71,3.48-23,11.79-20.59,28.23,3.26,22.54,12.55,27.91,21.21,30.19a7.44,7.44,0,0,0,1.82.25c2.14,0,3.85-1.17,5.82-2.51.47-.32.89-.61,1.33-.89l0-.07a4.2,4.2,0,0,0-1.21-.39c-6.23-.53-12.9-4.88-17.43-11.35-4.26-6.1-5.9-13.08-4.38-18.67,4.58-17,18.46-20.46,32.76-21.73,2.84-.25,5.6-.38,8.22-.38,24.47,0,40.3,10.66,48.4,32.59.76,2.06,2.1,4.52,4.13,4.52,1.4,0,3.13-1.12,4.74-3.07,6.74-8.17,15-12.14,25.29-12.14a57.77,57.77,0,0,1,15.4,2.39c19.68,5.49,29.56,16.06,27.08,29-4,20.93-14.11,34.19-31,40.53a7.83,7.83,0,0,0-1.85,1.29c-1.28,1.06-2.87,2.38-5,2.38a6.2,6.2,0,0,1-3.82-1.44c-8.73-6.66-18.27-10-28.36-10-8.27,0-17.16,2.26-26.42,6.71-10,4.82-19.45,11.24-28.56,17.44-11.92,8.12-24.24,16.51-38.38,21.74A37.25,37.25,0,0,1,767,216.58Z"/><path class="cls-4" d="M912,1168.3c-8.32-25.82-20.6-50.4-32.47-74.18l-2.49-5c-10.72-21.5-22.48-43-33.86-63.7l-6.73-12.28c-14.63-26.79-29.55-51.43-45.62-75.32-11.37-16.92-25.12-36.71-40.95-55.15l-1.29-1.51a110,110,0,0,0-10-10.75c-4.38-3.9-6-6.79-5.29-9.35.92-3.23,5.1-4,8.46-4.57a16.82,16.82,0,0,0,3-.7,14.74,14.74,0,0,1,6.43-1.09c6.15,0,15.57,1.72,24.56,4.47,5.75,1.77,15.81,5.36,18.54,9.55,9,13.9,16.69,26.94,23.43,39.85q3.29,6.3,6.6,12.59c11.1,21.12,22.56,42.94,32.14,65.17,7.67,17.83,14.4,36.38,20.92,54.33,4,11.09,8.18,22.54,12.52,33.73.27.68.52,1.45.78,2.27.72,2.25,1.92,6,3.37,6a1.85,1.85,0,0,0,.72-.18c.77-.32.9-.66.95-.79.47-1.22-.8-3.88-1.72-5.83a25.67,25.67,0,0,1-1.35-3.15c-10-31.16-19.07-59.21-29.76-87-3.05-7.94-7.33-15.62-11.48-23.05a209.57,209.57,0,0,1-10.78-21.19c-7.27-17.53-16.2-34-27.37-53.38a90,90,0,0,0-7.38-10.37c-1.25-1.58-2.49-3.17-3.66-4.75l-1.46-2,2.24-1a50.16,50.16,0,0,1,20.84-4.86c14.61,0,27.9,7.3,39.53,21.7a197.62,197.62,0,0,1,34.67,65c5,15.5,8.43,31.2,11.42,45.86,4.57,22.39,6.74,44.52,8.26,63.22,1.55,19,1.38,38.34,1.22,57-.07,7.49-.13,15.17-.09,22.72,0,1.11,0,2.22,0,3.33.11,8,.23,16.24-3.13,24.45l-2.07,5.07Z"/><path class="cls-5" d="M633.28,328.76a67.49,67.49,0,0,1-38.72-12.2c-8.5-5.81-16.77-12.82-19.73-24.67-1.09-4.38-3.24-4.94-5-4.94a12.13,12.13,0,0,0-4.29,1C549.87,294,536.42,297,524.42,297c-17.34,0-32.21-6.29-44.19-18.7-10.21-10.58-13.59-27.93-8.42-43.17,4.84-14.27,14.36-25.79,30-36.25,3.81-2.56,7-3.81,9.79-3.81,7.27,0,9.73,8.14,10.95,14.27,3.56,17.87,18.71,26.16,33.05,31.91,6.74,2.7,13.95,2.73,20.93,2.76,2,0,4.06,0,6.1.08H583c.52,0,1,0,1.57-.06s1.13-.05,1.66-.05c1.53,0,3.45.2,4.67,1.81s1.28,3.9.27,7.51c-2.1,7.46-.59,16.09,4.25,24.3,5.75,9.75,15.41,17.45,24.61,19.61a40.56,40.56,0,0,0,9.24,1.11c13.84,0,25.07-7.54,37-15.51l1.79-1.2c11.58-7.75,17.7-16.77,19.85-29.25,1.06-6.18,6.66-6.69,11.15-7.1a19,19,0,0,0,6-1.15c11.42-5.47,20-13.8,26.86-26.22.18-.33.36-.66.53-1,1-1.86,2.15-4.17,4.66-4.17,1.63,0,3.22,1,5.17,3.28,5.45,6.35,12.56,9.43,21.76,9.43,6.82,0,14.75-1.71,24.26-5.25,12.86-4.78,24.29-12.66,35.34-20.28,9.15-6.32,18.63-12.86,29-17.71a47.32,47.32,0,0,1,20-4.47c14.91,0,27,7,31.48,18.15,7.25,18-1.38,33.2-9.7,44.45-14.33,19.37-33.84,31.12-58,34.94h-.68a23.25,23.25,0,0,1-16.7-6.27c-1.76-1.53-3.4-2.34-4.73-2.34-3.11,0-5.51,4.61-7.24,8.63-9.54,22-38.07,45.57-65.35,45.57a43.77,43.77,0,0,1-7.57-.64c-7.35-1.28-16.42-4-21.48-13.47-2.23-4.2-4.44-6.25-6.75-6.25-2.81,0-5.92,2.82-8.92,5.54a43.29,43.29,0,0,1-4.43,3.68c-12.19,8.29-25.92,13.8-43.2,17.34a80.14,80.14,0,0,1-16,1.68Z"/><path class="cls-6" d="M734.55,1367.32c-2.86,0-6.17-1.31-9.68-2.71a48.92,48.92,0,0,0-6.66-2.29c-3.18-.71-6.49-1.79-6.9-4.41s2.38-4.53,5.79-6.51c.75-.44,1.51-.87,2.28-1.3,1.53-.87,3.12-1.77,4.61-2.74q12.4-8,24.77-16.1c14.84-9.65,30.15-19.62,45.4-29.38,30.71-19.66,62-39.47,92.27-58.63l6.9-4.37a5.1,5.1,0,0,1,2.64-1,2.53,2.53,0,0,1,1.8.74c1.12,1.13,1.17,2.84,1.16,8.53,3.25,14.09-7.61,19.93-17.2,25.09-2.4,1.29-4.86,2.62-7,4l-11.08,7.27-.08.06c-19.68,12.92-40,26.27-59.58,40.1-22.39,15.85-44.62,30.26-66.08,42.85A6.54,6.54,0,0,1,734.55,1367.32Z"/><path class="cls-6" d="M143.35,1618l10.58-6.87c6.8-4.42,13.83-9,20.63-13.61,15.75-10.72,31.81-21.55,47.34-32l.34-.24q14.44-9.73,28.88-19.49,45-30.46,90.07-61L376,1461.23q20-13.51,39.89-27,18.42-12.43,36.86-24.84l.08-.06,30.74-20.72c20.3-13.7,41.29-27.88,62-42q11.86-8.09,23.66-16.23c9.92-6.82,20.18-13.88,30.42-20.82,8.89-6,18-12.1,26.76-18,11.26-7.53,22.84-15.27,34.13-23,7.27-5,14.57-10.2,21.63-15.24,7.27-5.2,14.78-10.57,22.33-15.72,17-11.58,35.19-23.89,53.54-35.5a68.45,68.45,0,0,0,6-4.5c5.15-4.13,10.47-8.39,17.39-8.39,3.76,0,7.54,1.26,11.54,3.85,6.08,4,13.73,6.18,20.41,7.84,15,3.72,29.62,9.21,43.77,14.53,11.15,4.19,22.64,8.5,34.39,12l4.23,1.26-3.74,2.35c-3.58,2.26-7.05,4.41-10.44,6.52l-.12.07c-6.77,4.21-13.17,8.19-19.56,12.35-9,5.86-18,11.82-26.73,17.58l-.23.15c-12.17,8-24.75,16.35-37.23,24.38L795,1294c-26,16.76-52.9,34.07-79.77,50.39a63.55,63.55,0,0,0-6.11,4.45c-5.11,4-10.39,8.21-17.51,8.21a17.84,17.84,0,0,1-3.07-.26,114.5,114.5,0,0,0-19.21-1.51,219.32,219.32,0,0,0-26.52,1.92l-1,.13c-10.77,1.33-21.9,2.7-24.57,14.94a180.59,180.59,0,0,0-2.91,22.49c-.41,4.65-.83,9.45-1.47,14.17-.13.93-.23,1.93-.34,2.95-.56,5.09-1.18,10.86-4.58,13.55-6.9,5.46-14.58,10.08-22,14.54l-.09,0c-3.51,2.11-7.13,4.28-10.6,6.51-24,15.37-47.51,30.55-73.56,47.39-17.44,11.27-35.56,23-53.86,35l-7,4.58c-17.35,11.31-35.3,23-52.84,34.66-7.66,5.08-15.27,10.26-22.64,15.27-10.19,6.92-20.69,14.07-31.17,20.88-7.24,4.71-14.54,9.26-21.35,13.47l-.48.3Z"/><path class="cls-4" d="M765.67,1178.35c-1.6,0-3-1.14-4.45-2.24a10.6,10.6,0,0,0-1.7-1.19c-10-3.08-20.47-6.53-31.08-10.24-2.41-.85-5-2-6.18-4.49a6.4,6.4,0,0,1-.18-4.7c-1.24-7.68-1-15.25-.66-22.57.1-2.45.2-5,.23-7.37.39-27.81,3.21-54.93,5.91-77.79,2.77-23.35,6.73-48.15,11.77-73.7l.91-4.64c3.61-18.49,7.35-37.62,14.56-55.62a20.61,20.61,0,0,0,1-5.71c.08-1,.17-2.09.32-3.14l.4-2.8,2.51,1.32c3.42,1.79,5.15,4.84,6.67,7.53.49.86,1,1.74,1.52,2.55,6.82,10.32,13.95,20.65,20.85,30.64l4.88,7.06c3.5,5.1,1.24,9.45-.59,12.94a15.33,15.33,0,0,0-2,5.3c-.59,7-2.41,13.81-4.17,20.45-1.15,4.35-2.33,8.84-3.15,13.26-3.32,18-6,35.75-8.15,50.7q-.5,3.45-1,6.9l-.08.49c-2.94,19.92-6,40.52-5,61.11.35,7.53.25,15.17.16,22.56-.11,8.27-.22,16.81.31,25.13.24,3.89-.14,6.06-1.27,7.27A3.06,3.06,0,0,1,765.67,1178.35Z"/><path class="cls-6" d="M62,1618v-73.48l5.59-3.74q6.81-4.58,13.62-9.19l.73-.49c11.58-7.83,23.51-15.89,35.38-23.64,10.08-6.58,20.34-13.1,30.25-19.41,9.69-6.16,19.71-12.53,29.49-18.91C185,1464,193,1458.6,200.71,1453.4l.15-.1c8.88-6,18.07-12.17,27.28-18.11,7.89-5.08,16-10.07,23.88-14.9l.12-.07c8.47-5.2,17.24-10.58,25.7-16.08,9-5.83,17.94-11.94,26.6-17.86,8-5.49,16.31-11.14,24.55-16.53,10.09-6.59,20.34-13.08,30.26-19.35,9.38-5.93,19.07-12.06,28.61-18.28,13.51-8.79,27.06-17.77,40.15-26.46,10.54-7,22.49-14.91,34-22.46,10-6.57,20.3-13.16,30.22-19.54l.34-.21c11.09-7.14,22.57-14.52,33.78-21.88,9.44-6.21,19-12.64,28.17-18.85,9.9-6.68,20.13-13.59,30.35-20.28,18.93-12.4,41.4-27,64.6-41.27a32.71,32.71,0,0,0,5.46-4.75c3.42-3.44,7.29-7.33,12.86-7.33a13,13,0,0,1,2.86.33c7.89,1.77,15.6,4.68,23.06,7.5,2.37.89,5,1.91,7.67,2.85,19.48,7,39.3,14.24,58.91,21.48a41.69,41.69,0,0,1,5.72,2.83c.79.44,1.57.88,2.36,1.3l2.08,1.08-1.39,1.88c-.34.46-.68,1-1,1.59-.88,1.49-1.88,3.18-3.58,4-13.83,6.74-26.57,15.77-38.89,24.51l-.09.06c-4.35,3.08-8.85,6.27-13.35,9.32-8,5.46-16.26,10.85-24.21,16.06-15.32,10-31.15,20.42-46.11,31.55-11.42,8.51-23.7,16.18-35.58,23.61-7.17,4.48-14.56,9.1-21.67,13.84-18.63,12.44-37.48,25.25-55.71,37.64l-.82.56q-13.92,9.47-27.86,18.91-17.16,11.6-34.35,23.18l-.78.53q-23.19,15.66-46.37,31.33l-1.53,1c-18.11,12.26-36.83,24.94-55.2,37.62-5.23,3.6-10.61,7.1-15.8,10.49-9.51,6.19-19.33,12.59-28.43,19.74-8.31,6.53-17.45,12.19-26.29,17.66-5.24,3.25-10.63,6.59-15.77,10.06-7.37,5-14.75,10.2-21.9,15.26s-14.57,10.31-22,15.32c-8.1,5.46-16.44,10.84-24.51,16l-.18.12c-7.07,4.56-14.37,9.27-21.48,14-18.86,12.6-37.06,24.89-52.37,35.26l-.51.34Z"/><path class="cls-7" d="M754.26,744.53c-23.41-12.54-41.42-30-59.31-48.31C675.15,676,651.34,658.29,620,640.59c-19.67-11.12-41.17-22.13-65.2-27.37a28.32,28.32,0,0,0-6.09-.55c-1.82,0-3.69.09-5.66.2-2.12.11-4.31.22-6.58.22h-3.82l2.18-3.14c15.19-21.91,35.48-33.45,65.78-37.41a115.26,115.26,0,0,1,15.05-1c26.06,0,50.14,9.23,73.62,28.24,15.06,12.19,26.08,29.83,33.68,54,2,6.19,4.31,12.38,6.6,18.38,2.55,6.7,5.19,13.62,7.3,20.61l.9,3c4.07,13.57,8.27,27.6,15.09,40.3a27.08,27.08,0,0,0,2.37,3.44c.53.7,1,1.37,1.58,2.12l.69,1-2.22,2.52Z"/><path class="cls-7" d="M650.6,776.91c-5.05,0-10.42-.1-16.91-.3-17.9-.56-33.75-4.08-48.46-10.75l-1.54-.7c-11.39-5.15-22.14-10-31.28-18.81-3.85-3.71-5.37-8.28-6.84-12.7a40.5,40.5,0,0,0-3-7.4c-4.3-7.48-10.76-13.42-17-19.17-1.76-1.61-3.56-3.27-5.31-5-10.73-10.33-16.29-37.07-10.43-50.19,2.43-5.42,6.78-6.05,9.85-6.05,1.33,0,2.67.13,4,.25s2.41.24,3.53.24a10.1,10.1,0,0,0,2-.18,28.63,28.63,0,0,1,5.7-.53,80.45,80.45,0,0,1,9.43.77c2,.25,4,.5,6,.64,19.41,1.34,37.9,7.36,55.77,13.18l.47.15a387.4,387.4,0,0,1,47.75,19.32c10.5,5,20.13,12.1,29.43,18.94l.17.12c2.81,2.06,5.72,4.2,8.59,6.23,8.16,5.76,16,12.17,23.57,18.37,11,9,22.35,18.29,34.76,25.66a5.7,5.7,0,0,0,1.44.33c.52.08,1.09.17,1.72.31l4.78,1.07-4.17,2.58c-19.26,11.91-39.92,16.35-61.16,20.19C680.71,775.83,667.1,776.91,650.6,776.91Z"/><path class="cls-4" d="M714,1158.43c-2.16,0-4.91-1-7.34-1.92-.86-.32-1.66-.62-2.34-.83a283.72,283.72,0,0,1-29.82-11.09c-4.67-2.06-3.94-6.15-3.45-8.86.24-1.37.47-2.65.1-3.35l-.27-.52,0-.58c.4-4.87.78-9.73,1.17-14.57,2.5-31.26,5.09-63.59,10.59-95,3.78-21.6,8.95-43.17,13.95-64,.9-3.78,1.8-7.53,2.69-11.29,5.69-24,16.15-46.53,26.26-68.36l1.89-4.08c.59-1.27,1.57-3.38,3.71-3.38,1.75,0,3,1.51,4.09,3A112.46,112.46,0,0,0,746.07,886l.16.16c1.08,1.13,2.16,2.26,3.22,3.4,7.44,8,4.2,15.55,1.34,22.22a38.62,38.62,0,0,0-2.53,7.1c-1.74,8.44-4.14,16.83-6.47,24.95-1.66,5.78-3.38,11.76-4.83,17.69-4.15,17-7.14,30.84-9.4,43.58-1.59,9-2.62,18.31-3.62,27.31-.37,3.37-.74,6.71-1.13,10.05-.58,4.79-1.24,9.65-1.87,14.35-1.58,11.59-3.2,23.57-3.61,35.35-.06,1.78-.13,3.56-.19,5.34-.5,13.5-1,27.41.54,41.09l.09.83c.58,5.16,1.25,11,.39,15.89C717.82,1157.25,716.26,1158.43,714,1158.43Z"/><path class="cls-5" d="M711.18,1391c-1.45,0-2.9,0-4.35,0h-.18c-1.49,0-3,0-4.46,0-1.08,0-2.16,0-3.24,0-1.35,0-2.68,0-4,0-23.73,0-44.15-4-62.44-12.21a15.85,15.85,0,0,0-1.7-.58c-2.2-.67-5.85-1.77-5.5-5.71.5-5.84,5.82-6.47,9-6.85a18.61,18.61,0,0,0,1.9-.28,151.86,151.86,0,0,1,32.23-3.2c14.53,0,28.85,1.64,40.93,3.26,6.91.91,13.5,3.84,19.88,6.67,2.49,1.11,5,2.25,7.56,3.23a7.78,7.78,0,0,1,3.65,3.83,2.42,2.42,0,0,1-.07,2c-2.32,4.42-6.61,5.8-10.39,7l-1.59.52C722.54,1390.75,716.66,1391,711.18,1391Z"/><path class="cls-6" d="M607.09,1618v-2q0-6.24,0-12.46c0-16-.05-32.49,1.78-48.77.75-6.64,1-13.47,1.15-20.08.15-5,.31-10.07.69-15.14,1.55-20.79,2.36-42,3.14-62.53.37-9.77.76-19.84,1.22-29.85l.12-2.68c.49-10.65,1-21.67,2.33-32.46.07-.48.11-1,.17-1.68.32-3.92.76-9.23,4.71-9.23a3.61,3.61,0,0,1,1.11.17c3.2.94,6.39,2.19,9.47,3.4,2.56,1,5.22,2,7.89,2.91a174.44,174.44,0,0,0,54,8.5,200.48,200.48,0,0,0,32.42-2.73,14.24,14.24,0,0,0,1.53-.42,13,13,0,0,1,3.67-.75,4.26,4.26,0,0,1,3.27,1.37c1.16,1.29,1.55,3.3,1.22,6.35-2.65,24.67-4.67,45.44-5.92,66.55-1,16.32-1.37,33-1.74,49.06-.16,6.4-.31,12.78-.49,19.16,0,1.44,0,3,.14,4.47.17,3,.36,6.2-.47,9.2-1.93,6.91-1.84,14.17-1.76,21.19.08,6.51.16,13.24-1.3,19.89-1.1,5-1,10.41-.8,15.6a103.52,103.52,0,0,1-.09,11.13l-.14,1.84Z"/><path class="cls-5" d="M696.59,241.58c-2.88,0-6.69-1.4-8.5-8.09-3.79-14-15.33-22.26-34.29-24.52a64.5,64.5,0,0,0-7.62-.47c-17.85,0-32.47,8.1-44.72,24.77-3.37,4.6-9.29,5.23-15.19,5.23l-2.28,0h-2.08c-.56,0-1.11,0-1.64,0-.86,0-1.73,0-2.59,0-16.26,0-29.75-5.39-40.09-16a57.79,57.79,0,0,1-12.41-19.65l-.1-.24,0-.35c-.15-7.94,3-15.22,7.77-17.8a5.22,5.22,0,0,1,2.48-.58c3,0,6.67,2,10.26,3.93,1.07.58,2.08,1.12,3,1.58a18.68,18.68,0,0,0,8.44,1.86,54,54,0,0,0,9.48-1.16,57.47,57.47,0,0,1,10.1-1.2c.66,0,1.32,0,1.95.07a54.36,54.36,0,0,1,12.25,2.82c1.49.47,3,.94,4.47,1.35a36.56,36.56,0,0,0,9.87,1.38c11.09,0,21.13-5.34,30.84-10.51,3.39-1.8,6.87-3.65,10.39-5.28,3.21-1.49,6.42-3.14,9.53-4.74,11.15-5.72,22.68-11.63,36.28-11.63a48.34,48.34,0,0,1,6.56.46c16.19,2.26,31.35,15.63,33.78,29.8,2.57,15-15.28,43.79-29.39,47.41a12.54,12.54,0,0,0-1.2.39A16.1,16.1,0,0,1,696.59,241.58Z"/><path class="cls-5" d="M663.38,161c-2.2,0-4.6-.26-5.76-2.07s-.41-4,.47-5.93c2.49-5.51,1.34-14.14-3-22.53s-10.82-14.42-16.81-15.57c-2-.38-4-.81-5.92-1.23-3.78-.83-7.69-1.68-11.54-2.14-1.38-.17-5.58-.69-6.55-3.67s2-5.77,3.58-7.26c.15-.15.31-.29.4-.39,12.25-18.11,29-27.31,49.84-27.31,1.67,0,3.4.06,5.14.18,16.07,1.13,33.72,22.25,33.72,40.35C706.94,137,685,161,663.49,161Z"/><path class="cls-5" d="M625.67,288.94c-16.83,0-24.68-13.1-27.86-20.92-5.91-14.5,4.27-27.09,14.78-33.47a16.38,16.38,0,0,1,8.47-2.19c5.7,0,13.55,2.73,16.91,10.43,3.71,8.44-2.1,17-8.2,21.71-1.19.92-1.73,1.89-1,4.09h0a12.94,12.94,0,0,1,1.31-.8c9.83-4.8,16.5-20.41,12.74-29.83-2.07-5.21-7.13-7-12.49-8.89l-.63-.23c-1.47-.51-3-1-5.1-1.56L620.33,226l-5.76-1.72,5.64-2.08c10.57-3.88,18.66-5.62,26.21-5.62A42.48,42.48,0,0,1,669,223a27.41,27.41,0,0,1,12.27,18.15,23.29,23.29,0,0,1-3.9,18.7c-14.52,19.34-31.3,28.85-51.29,29.09Z"/><path class="cls-4" d="M623.73,1171c-5.44,0-6.79-6-7.77-10.46-.26-1.13-.49-2.18-.76-3l-1.81-5.76c-7.59-24.07-15.44-49-16.46-75.11A95.46,95.46,0,0,0,595,1063c-.41-2.11-.82-4.28-1.17-6.43v-.16c-.53-9.91-1.14-19.9-1.73-29.55-1.84-30.1-3.74-61.22-3.19-92,.39-22.36,2.88-44.81,5.29-66.52q.63-5.68,1.25-11.36c1.93-17.85,6-35.7,9.88-53l.07-.3c.67-3,1.34-5.93,2-8.88a59.42,59.42,0,0,0,1.66-10.87c.13-3.9,2.33-4.49,3.63-4.49a5.21,5.21,0,0,1,.93.09,177.65,177.65,0,0,0,33.81,3.16c4.51,0,9.15-.15,13.81-.47h.52a5.12,5.12,0,0,1,4.55,2.3,7.12,7.12,0,0,1,.09,6.61c-6.45,13.65-8.33,28.73-10.14,43.32-.2,1.57-.39,3.15-.6,4.71-.83,6.55-2,13.14-3.07,19.51-1.46,8.48-3,17.22-3.79,25.93-.54,5.8-.93,11.72-1.3,17.44-.65,9.91-1.31,20.16-2.81,30.16-2.46,16.4-2.09,33.16-1.74,49.37.15,7.35.32,14.91.22,22.37-.11,8.33,1,16.87,2.11,25.12.73,5.51,1.48,11.19,1.87,16.78.4,5.88,1.23,11.79,2,17.5.71,5,1.44,10.15,1.88,15.29,2,22.54,7.2,44.62,12.07,63.25.86,3.36-8.64,11.83-11.87,13.76-2.18,1.32-4.46,2.52-6.67,3.69a68.93,68.93,0,0,0-11.77,7.25C629.17,1169.58,626.28,1171,623.73,1171Z"/><path class="cls-5" d="M597.57,115.27a22,22,0,0,1-13.8-4.92c-4.5-3.65-10-7.52-16.73-8.61l-5-.79-.19,0C551,99.24,539.86,97.5,529.26,94.3c-15.18-4.56-25.89-14.21-32.73-29.48L495.27,62H665v5h-2l-1.87,0c-8.69.17-17.44,3.57-26.75,10.41-10.59,7.77-17,16.1-20.13,26.22C612.05,110.83,605.66,115.27,597.57,115.27Z"/><path class="cls-5" d="M604.34,189.51a58.34,58.34,0,0,1-17.6-2.94l-4.12-1.29,3.65-2.31c10.16-6.43,17.93-29.08,13.85-40.39a32,32,0,0,1-1.45-7.65c-.38-3.61-.74-7-2.89-10.08a3.3,3.3,0,0,1-.56-3.24c.7-1.76,2.72-2.18,4.51-2.54a10.57,10.57,0,0,0,1.61-.41,30.77,30.77,0,0,1,13.48-2.86,45.32,45.32,0,0,1,25.48,8c6.92,4.77,11.78,11.06,13.31,17.27,3.31,13.34-11.39,35.47-29.11,43.85A46.38,46.38,0,0,1,604.34,189.51Z"/><path class="cls-6" d="M653.58,675c-2.39-1.1-4.75-2.24-7.12-3.39-5.14-2.47-10.41-5-15.71-7.11q-4.82-1.9-9.62-3.85c-27.15-10.9-55.23-22.18-85.38-22.18-3.19,0-6.41.12-9.57.37-.35,0-.69,0-1,0a26.58,26.58,0,0,1-3.94-.37c-.71-.1-1.4-.19-2.09-.26L516,638l1.61-2.71c.36-.61.75-1.2,1.14-1.8a16.88,16.88,0,0,0,1.92-3.4c3.75-10.34,10.89-11.76,18.05-11.76,1.47,0,3.06,0,5.32.19,21,1.29,39.11,9.81,55.92,18.43,22.3,11.42,40,22.45,55.71,34.71l1.06.83-1.92,3.13Z"/><path class="cls-6" d="M320.41,1618l7.91-5.24c18.62-12.34,37.87-25.09,57-37.4,9.69-6.24,19.56-12.41,29.1-18.38l.1-.06c13.41-8.39,27.29-17.06,40.68-26,10.93-7.24,21.83-15,32.37-22.42s21.66-15.33,32.7-22.65c20.15-13.34,40.86-26.54,60.9-39.3q13.23-8.43,26.39-16.85l1.09-.7,2.35,2.68-.83,1c-2.26,2.68-1.58,6-.79,10,.92,4.59,2.08,10.3-3.36,14.32-11.64,8.59-23.84,16.79-35.64,24.71-4.09,2.75-8.11,5.45-12.12,8.17Q542.62,1500.48,527,1511l-.45.3c-12.67,8.55-25.77,17.39-38.62,26.13-26.38,18-54.52,37.09-82.81,56.58-12.26,8.45-24.57,17-33.92,23.59l-.52.36Z"/><path class="cls-3" d="M596.16,1493.3c-1.57,0-3.21-.11-4.8-.22s-3.15-.23-4.61-.23c-.49,0-1,0-1.45.05h-.18a4.84,4.84,0,0,1-1.9-.44l-.4-.15-2.45-.74,1.31-2.2c.09-.14.16-.29.24-.44a5,5,0,0,1,1.38-1.91c5.56-4.32,11.15-8.61,17.27-13.3l9.95-7.65-2,6.14c-.35,1.07-.7,1.93-1,2.62a7.5,7.5,0,0,0-.53,1.52c1.29,6.34.82,10.81-1.46,13.59C603.11,1492.92,599.25,1493.3,596.16,1493.3Z"/><path class="cls-3" d="M596.68,1535.21a23.56,23.56,0,0,1-4.22-.43,152.89,152.89,0,0,0-27.8-2.08c-4.57,0-9.24.1-13.75.2l-.17-1.5,0,1.5c-4.54.1-9.23.2-13.85.2-3.47,0-6.58,0-9.51-.17-.92,0-1.85-.1-2.94-.17l-1.83-.12-5.8-.36,4.79-3.29c4.43-3,8.79-6.18,13-9.23,10.07-7.25,19.57-14.09,30-19.76,4.77-2.58,10.31-3.84,16.94-3.84A111.64,111.64,0,0,1,599,1498l3.34.52c3.69.54,3.83,10.42,3.83,10.52a39,39,0,0,1-.62,6.35,26.61,26.61,0,0,0-.46,7.17c.63,4.83.06,8-1.77,10.14C601.85,1534.39,599.67,1535.21,596.68,1535.21Z"/><path class="cls-4" d="M592.69,1126a23,23,0,0,1-5.26-.9c-11.64-3-24.49-4.37-40.45-4.37-3.48,0-7.15.06-11.24.19h-.3c-5.36,0-6-4.27-6.37-7.1l0-.25c-.93-6.48-1.94-13.06-2.91-19.43-1.66-10.79-3.35-21.87-4.73-32.82s-1.94-22.37-2.28-31.93c-.76-21.19-1.25-49.18,1.8-77.66,1.24-11.58,2.09-23.42,2.9-34.86,1.16-16.16,2.35-32.86,4.67-49.17,1.81-12.71,5.38-25.3,8.84-37.48,1.88-6.63,3.82-13.46,5.45-20.2,3.15-13.07,6.23-27.32,9.71-44.83.5-2.53,1.44-7.22,5.4-7.22,1.58,0,3.32.76,5.81,2.55,11.29,8.1,24.8,12.38,37.87,16.51l.12,0a4.12,4.12,0,0,1,3.19,4.86,3.23,3.23,0,0,0,0,.6l0,.09.21.47-.15.66c-1,4-1.92,7.94-2.89,11.91-2.23,9.09-4.54,18.49-6.41,27.79-1.32,6.56-2.24,13.34-3.13,19.89-.51,3.8-1,7.72-1.64,11.57a621.76,621.76,0,0,0-7.73,83.33c-.11,4.83-.25,9.66-.39,14.49-.32,11-.66,22.42-.53,33.56.29,24.86,2.56,50.27,4.86,74.16,1.71,17.6,4.44,36.38,8.12,55.83.21,1.08.46,2.06.69,2.92.59,2.28,1.05,4.07-.06,5.5A3.69,3.69,0,0,1,592.69,1126Z"/><path class="cls-3" d="M592.9,1580.7a29.16,29.16,0,0,1-7.42-1.37,24.9,24.9,0,0,0-6-1.17,6,6,0,0,0-1,.08,91.93,91.93,0,0,1-16,1.26c-6.52,0-13.09-.49-19.45-1-2.45-.18-4.86-.36-7.25-.51-8.65-.54-17.3-.61-23.86-.61l-9.36,0h-.92l-9.36,0c-8.13,0-17.76-.1-27.54-.86-1.12-.09-2.23-.15-3.31-.21l-1.71-.09-5.67-.35,4.64-3.28c3.07-2.18,6.24-4.29,9.3-6.33,6.64-4.43,13.49-9,19.42-14.25,11.77-10.4,24.82-15.25,41.06-15.25a104.49,104.49,0,0,1,17.29,1.58,125.21,125.21,0,0,0,20.6,1.51c8.58,0,17.27-.6,25.66-1.18.64,0,1.22-.07,1.76-.07,4,0,7,1.11,8.88,3.3,2.74,3.23,2.34,8,1.79,11.3-.62,3.77-1,7.61-1.37,11.32-.14,1.39-.27,2.77-.42,4.14C601.88,1576.8,598.66,1580.7,592.9,1580.7Z"/><path class="cls-5" d="M563.58,1155.55h-.06c-4.61-.37-9.3-.55-13.85-.72-14.82-.56-28.82-1.08-42.29-7.87-.38-.19-.83-.38-1.3-.58-1.94-.81-4.34-1.81-4.93-3.89a3.59,3.59,0,0,1,.65-3.2,21.24,21.24,0,0,1,11.8-7.91,193.68,193.68,0,0,1,40.68-4.74,126.13,126.13,0,0,1,42,6.8c2.68.94,6.64,5,6.29,8-.79,6.45-7.27,8-11.14,9-6.61,1.63-13.3,2.75-19.76,3.84-2.59.43-5.14.86-7.62,1.31l-.2,0Z"/><path class="cls-3" d="M391.46,1618l5.51-3.67q6.21-4.12,12.45-8.22,7.15-4.71,14.27-9.44c2.23-1.49,4.53-3.34,6.75-5.13,5.62-4.52,11.43-9.19,17.79-9.61,2.4-.15,4.88-.23,7.58-.23,6.9,0,14,.51,20.82,1l.26,0c2.92.21,5.83.41,8.74.58,7.11.42,14.37.42,21.39.43,9,0,18.23,0,27.42.85,7.43.67,15.52,1,25.46,1,6,0,12.12-.11,18-.22s12.06-.22,18.07-.22h2c1.31,0,4.48,1.24,4.48,3.43-.07,5.86-.21,11.8-.34,17.53l-1.5.08,1.5,0c-.08,3.28-.16,6.56-.22,9.84l0,2Z"/><path class="cls-6" d="M490.33,1254.29c.14-2.94.25-5.9.37-8.86.25-6.61.51-13.41,1.06-20.12.9-11.27,2-22.65,3-33.65l0-.3q1-10.29,1.88-20.6a16.48,16.48,0,0,0-.13-3,25.11,25.11,0,0,1-.17-3c0-.93,0-1.87,0-2.79-.06-3.71-.12-7.17,2-9.29a5.9,5.9,0,0,1,4.39-1.64,22.19,22.19,0,0,1,8.16,2.16,103.12,103.12,0,0,0,40.54,8.22c13.68,0,28.21-2.61,43.19-7.76a6.42,6.42,0,0,1,2.08-.47,2.69,2.69,0,0,1,2,.85,4,4,0,0,1,.77,3.12c-.25,3.13-.45,6.31-.64,9.38a209.65,209.65,0,0,1-2.07,21.36c-.53,3.14-4.16,5.34-7.36,7.29l-.09,0c-.57.35-1.12.68-1.63,1-8.28,5.35-17,10.81-24.66,15.64-19.57,12.3-39.82,25-58.76,39a36.13,36.13,0,0,1-7.94,4.06c-1.06.43-2.15.88-3.12,1.34l-3,1.43Z"/><path class="cls-5" d="M560.85,185.33a45.84,45.84,0,0,1-19.1-4.64c-14.89-6.89-21.35-21.5-26.24-34.65-8-21.43-23.31-33.81-51.27-41.39l-.56-.15c-8.53-2.3-19.13-5.17-22.72-17.42a49.2,49.2,0,0,1-1-23.45l.31-1.63h49.47l.46,1.35C501.09,95.06,524,101,550.54,105.05c18.72,2.86,38.53,9.19,43.5,34.44,3.53,17.95-.42,30.32-12.44,38.92A35.17,35.17,0,0,1,560.85,185.33Z"/><path class="cls-7" d="M511.68,558.18c-.05-.2-.11-.4-.17-.59a7.59,7.59,0,0,1-.42-2.09c0-2.21,0-4.4,0-6.93,0,0,0-2.3,0-3.46-2.23-16.29,1.91-33.68,12.33-51.67,4.85-8.38,13.84-10.72,18.77-11.36l.48,0c1.82,0,4,1.32,5.78,3.46a9.81,9.81,0,0,1,2.31,8.09c-1.46,7.1-3.12,15.13-6.12,22.6-4.68,11.56-9.51,23.51-18.21,33.25-2.68,3-5.64,5.78-8.5,8.46l-.31.29a5.74,5.74,0,0,1-2.62,1.21,5.41,5.41,0,0,0-.7.19l-2.09.72Z"/><path class="cls-7" d="M458.34,929l.23-1.25c1.14-6.12,2.24-11.67,3.3-17,2.18-11,4.06-20.55,5.35-30.28,3.93-29.7,3.41-56.74-1.6-82.68-3.14-16.21-7.07-33.44-14.58-49.67-1.3-2.82-2.53-5.7-3.72-8.49-4.49-10.5-9.13-21.35-17.8-29.44a2.58,2.58,0,0,1-.69-2.34,3.15,3.15,0,0,1,1.38-2.42c11.8-6.71,28.24-10.72,44-10.72,19.92,0,37.2,6.19,48.66,17.42,17,16.68,24.1,35,21.66,56A161.38,161.38,0,0,1,528,821.87c-8,15.9-17.09,31.45-25.87,46.48l-2.8,4.8c-4.92,8.44-10.47,16.21-16.35,24.43-6.93,9.69-14.09,19.71-20.66,31.54l-.62,1.12Z"/><path class="cls-4" d="M481.41,1253a7.1,7.1,0,0,1-3.33-1.14c-3.69-2.1-7.38-4.37-10.95-6.57-8.41-5.18-17.07-10.52-26.19-13.8-9.31-3.34-7.88-9.42-7-13a20.05,20.05,0,0,0,.48-2.47c2.9-31.5,5.71-57.35,8.84-81.38,2.66-20.46,5.4-41.59,6.44-63,.59-12.07,1.58-24.29,2.54-36.1.92-11.47,1.88-23.34,2.47-35,.83-16.39.76-32.61.4-51.91-.1-5.69,2.87-9.34,5.49-12.57.58-.71,1.16-1.42,1.7-2.15,8.22-11.1,16.85-22.18,25.2-32.9,3.25-4.17,6.46-8.29,9.67-12.43l2.79-3.62.76,4.51c3.14,18.55,4.68,38.94,4.84,64.16a587.55,587.55,0,0,0,3.68,62.5l.5,4.41c2.68,23.47,5.45,47.73,5.33,71.91a189.11,189.11,0,0,0,2,24.22c.83,6.6-3.42,8.9-7.22,10.16-11.83,3.94-17,11.31-17.18,24.66-.21,13.08-1.56,26.3-2.85,39.1-.6,5.88-1.22,12-1.72,18-1.1,13.43-2.1,27-3.08,40.11C484.69,1252.47,482.62,1253,481.41,1253Z"/><path class="cls-6" d="M502.22,640.59c-.31-.66-.66-1.31-1-2a20.25,20.25,0,0,1-2.13-5c-4.64-20.06-.88-39.55,11.84-61.33a4.67,4.67,0,0,0,.24-.86c.09-.4.2-.86.35-1.42l1.38-5,2.33,4.6c13.69,26.95,2.71,49.14-7,68.72a6.75,6.75,0,0,1-2.14,2.31,8.85,8.85,0,0,0-.71.58l-2,1.86Z"/><path class="cls-4" d="M483.41,689.35c-3.73-.36-7.82-.54-12.51-.54-1.49,0-3,0-4.47.05l-.41,0c-.42,0-.93.09-1.43.09a3.19,3.19,0,0,1-3.16-1.57c-.81-1.62.39-3.19.78-3.7,6.47-8.5,10-19.26,12.76-29.62.41-1.5.63-2.36,1-3.59l.58-2.25,3.43.19,6,41.16Z"/><path class="cls-6" d="M399.45,1316.47a10.89,10.89,0,0,1-4.89-1.2c-15.7-7.87-31.38-16.4-46.54-24.65-10.76-5.86-21.87-11.91-32.92-17.68-12.93-6.75-26.19-13.42-39-19.86-16.13-8.1-32.78-16.47-49-25.12l-12.23-6.53c-28.55-15.26-58-31-87.55-45.55-19-9.37-37.88-19.83-56.1-29.94L62,1140.83v-99.2l2.91,1.49c17,8.71,34.28,17.49,51,26l.5.26c16.09,8.15,32.72,16.58,49.12,25,7.74,4,15.5,8.17,23,12.24,14.92,8.08,30.33,16.43,46.06,23.18a184.34,184.34,0,0,1,18.38,9.58c6.72,3.84,13.65,7.8,21,10.64,8.68,3.34,17.45,8.71,25.93,13.89l1.81,1.11c9.47,5.78,19.63,10.82,29.46,15.69,4.84,2.4,9.79,4.85,14.61,7.37,3.39,1.77,6.79,3.72,10.08,5.62a156.6,156.6,0,0,0,16.29,8.56c8.79,3.72,17.4,8,25.73,12.22,5.13,2.58,10.39,5.22,15.6,7.68,14.91,7,29.73,14.82,44.06,22.34,8,4.2,16.25,8.54,24.48,12.73,2.34,1.18,2.93,2.68,3,3.72a3.66,3.66,0,0,1-1.66,3.26c-2.73,1.94-5.63,3.68-8.42,5.36-1.6,1-3.23,2-4.81,3q-8.88,5.64-17.75,11.33c-11.86,7.59-24.05,15.39-36.15,22.91a42.21,42.21,0,0,0-4.58,3.49C408,1313.29,404.18,1316.47,399.45,1316.47Z"/><path class="cls-6" d="M458.46,676.31a3,3,0,0,1-1.63-.47c-3.29-2-4.91-6.16-6.48-10.17-.36-.9-.7-1.8-1.07-2.64-6.53-15.25-4.54-30.92-2.6-46.07.17-1.41.35-2.81.53-4.2,1.29-10.48,5.63-21,13.66-33.21,1.29-2,2.49-4,3.89-6.33.67-1.12,1.38-2.32,2.16-3.6l2.26-3.73,1.35,4.14c6.56,20,7.6,40.7,3.18,63.23-.32,1.64-.63,3.29-.94,4.93-1.79,9.47-3.63,19.23-7.67,28.43-.27.63-.56,1.35-.85,2.11C462.71,672.67,461.28,676.31,458.46,676.31Z"/><path class="cls-7" d="M463,560.28l-.3-.24a4.34,4.34,0,0,1-1.42-1.51c-1.8-3.56-3.77-7.14-5.68-10.61-8.38-15.21-17-30.91-14.54-50.31.91-7.1,3-16,11-21.83a8.45,8.45,0,0,1,5.09-1.68,10.75,10.75,0,0,1,6.5,2.37c10,7.76,10.69,18.77,11.35,29.42.07,1.13.13,2.26.21,3.39l0,.16,0,.2-1.52,11c-1.58,11.43-3.21,23.23-4.93,34.9a7,7,0,0,1-2,3.47,10.68,10.68,0,0,0-.78.95l-1.29,1.83Z"/><path class="cls-6" d="M456.71,881.94A11.58,11.58,0,0,0,456,881a6.83,6.83,0,0,1-1.8-3.39c-.49-3.9-.79-7.85-1.09-11.66v-.19c-.11-1.34-.21-2.68-.32-4-1-7.08-1.86-14.4-2.68-21.47-1.56-13.37-3.16-27.16-6-40.63a299.86,299.86,0,0,0-27.07-77.11c-.69-1.35-1.51-3.33-.68-5.07a3.91,3.91,0,0,1,2.91-2.08,4.48,4.48,0,0,0,.92-.51,5.84,5.84,0,0,1,3.31-1.24,5.75,5.75,0,0,1,4,2c11.71,11.54,16.69,26.46,21.51,40.89l0,.11c.41,1.22.82,2.43,1.22,3.64,7.44,22,11.48,40.2,12.7,57.37,1.27,17.82.92,37.18-1.11,61a5,5,0,0,1-1.39,2.77,5.92,5.92,0,0,0-.46.59l-1.67,2.55Z"/><path class="cls-4" d="M429.43,634.9c-2.92-2.49-5.71-5.07-8.4-7.56-8.89-8.22-17.29-16-28.63-19.39l-.65-.2a17.06,17.06,0,0,0-3.94-.91h-.18c-3.54,3.09-6.19,4.53-8.33,4.53a3.93,3.93,0,0,1-3.17-1.48c-2-2.45-1.23-7.35-.37-11.35,0,0,.05-.21.05-.23-7.14-26-14.59-53.72-20.47-81.87-1.1-5.32-.27-10.91.54-16.32a71.86,71.86,0,0,0,1.05-10.22c.06-12.7-4-20.49-13.55-26-4.31-2.5-5.52-9.32-6.7-15.91-.34-1.91-.66-3.7-1-5.31-5.25-22.16-13-43.37-20.42-63.2-3.06-8.1-6-16.38-8.79-24.38-4.79-13.57-9.73-27.58-15.4-41-15.15-35.82-34.54-72.29-62.86-118.25-1.26-2-2.35-4.12-3.72-6.76-.73-1.39-1.5-2.88-2.41-4.57l-.58-1.09,2.65-2.19.95.78c6,4.85,11.84,9.53,17.51,14.06,13.5,10.79,26.26,21,38.5,31.8,6.84,6,12.43,13.56,17.84,20.83q1.74,2.35,3.49,4.67,6,7.95,12.09,15.85c13.09,17.09,26.6,34.74,38.8,52.86,13.38,19.87,26.7,41.92,43.19,71.49C408.43,415,420,437.84,432,463.46c4.14,8.87,7.45,18.84,3.7,31.54-3.53,11.94-1.14,26.21,6.56,39.15,2,3.35,4.12,6.73,6.17,10a228.94,228.94,0,0,1,13.18,22.92c2.32,4.89-1.47,8.91-4.52,12.15a26.55,26.55,0,0,0-2.9,3.41c-8.82,13.62-13.5,29-14.72,48.36l-.09,1.3-3.6.26-.27-1.28c-.66-3.14-1.29-6.29-1.93-9.43-1.38-6.87-2.79-13.9-4.5-20.71-1.4-5.59-2.66-11.3-3.87-16.82-2.54-11.57-5.16-23.48-9.25-34.8-5.58-15.46-9.95-30.9-14.68-48-3.44-12.47-8.26-24.7-12.93-36.53-2.05-5.2-4.16-10.55-6.14-15.86-11.69-31.53-28.36-61.22-44.49-89.94q-3.51-6.25-7-12.5c4,10.6,9.39,20.73,14.62,30.55,3.95,7.38,8,15,11.47,22.8,4.18,9.43,8.05,19.17,11.8,28.59,4.54,11.42,9.24,23.22,14.49,34.52,9.67,20.76,16.36,42.85,22.83,64.21l.06.2c1.27,4.18,2.53,8.35,3.81,12.5,5.92,19.17,12.51,41.55,16,64.45.18,1.22.35,2.45.53,3.69,1.13,8.07,2.29,16.34,6.27,24.35l.55,1.1-2.71,2.11Z"/><path class="cls-6" d="M444,694.57c-2.72,0-5.5-1.76-7.74-3.18a18.39,18.39,0,0,0-2.36-1.35c-20.94-7.56-47.58-41.7-45.13-65,.09-1,.1-2.21.1-3.42,0-3.73,0-6.95,2.26-8a6.86,6.86,0,0,1,2.8-.64c3.09,0,5.22,2.28,7.1,4.28a21.72,21.72,0,0,0,2.12,2.09c19.36,15.37,33,31.53,41.72,49.39.32.67.66,1.35,1,2l0,.1c2.48,4.95,5.3,10.56,4.56,15.68C449.52,693.19,446.41,694.57,444,694.57Z"/><path class="cls-4" d="M426.93,1224a9.42,9.42,0,0,1-4.28-1.41c-4.55-2.39-9.22-4.76-13.74-7-10.92-5.53-22.2-11.25-32.76-17.83-6-3.76-3.14-11.56-1.22-16.72.32-.88.61-1.64.83-2.33,3.18-9.75,4.32-20,5.43-29.89.48-4.35,1-8.84,1.65-13.26,4.5-29.64,7.74-56.52,9.91-82.16l.6-7.08c1-12.59,2.15-25.61,3.53-38.46,2.08-19.34,3-38.86,3.81-57.21.36-8.44.36-17.07.36-25.42,0-6.24,0-12.65.14-19a34.12,34.12,0,0,1,1.45-7.9c.3-1.1.6-2.23.84-3.33l.72-3.35,2.56,2.27c.69.62,1.39,1.22,2.08,1.82,1.54,1.33,3.11,2.69,4.6,4.14C428,914,440.69,927.06,449.3,943.71c2.93,5.69,1.73,11.54.57,17.2-.36,1.74-.73,3.54-.94,5.25,0,5.85.09,11.84.17,17.63.18,13.25.38,26.92-.4,40.36-1.52,26.18-2.83,47.81-4.14,68.06-1,15.8-3.31,31.75-5.52,47.18-1.32,9.18-2.68,18.66-3.75,28-1.81,15.69-3.21,32.38-4.16,49.6C431,1219.59,430.74,1224,426.93,1224Z"/><path class="cls-7" d="M445,926c-13.46-20.46-30.32-35.23-46.62-49.51-19.3-16.9-39.63-35.56-57.65-57.49a69.14,69.14,0,0,1-15.33-44.55c.31-16.72,6.66-31.39,17.9-41.29,14.88-13.12,31.52-19.77,49.46-19.77l2,0c10.74.3,15.51,9.52,19.35,16.93.79,1.53,1.52,2.95,2.28,4.27,11.51,20.09,17.41,41.71,22.73,68,4.51,22.29,6.8,44.92,8.45,64.12.93,10.88.89,21.49.84,32.73,0,8.18-.07,16.61.29,25.35L449,932Z"/><path class="cls-4" d="M412,710.37a20.85,20.85,0,0,1-7.63-1.58c-8.85-3.45-9.24-9.49-9.55-14.35a16.79,16.79,0,0,0-.95-5.53c-2.11-4.83-2.36-10.3-2.66-16.64-.14-3-.29-6.16-.64-9.57l-.12-1.2,3.2-1.07.62,1c6.8,11.19,15,18,22.91,24.66l.21.18q1.72,1.44,3.44,2.89a44.54,44.54,0,0,0,7.47,4.45c3.63,1.88,4.73,2.45,4.75,4a2.11,2.11,0,0,1-1.1,1.88,39.06,39.06,0,0,0-5.51,4.07C422.61,706.76,418.27,710.37,412,710.37Z"/><path class="cls-4" d="M370.08,1194.68c-1.7,0-3.36-1.58-5.36-3.64l-.52-.54c-12.64-6.12-26-12.8-40.81-20.41-1.55-.8-4.06-3-4.19-5.4a284.47,284.47,0,0,1,.4-29.25c.53-11,1.08-22.27.09-33.49-1.13-12.78-.42-25.85.26-38.48.57-10.4,1.15-21.14.7-31.59-1.28-29.53-4.48-59-7.75-86.34-3.53-29.69-7.9-56.89-13.36-83.13q-.84-4.08-1.67-8.15c-2.5-12.24-5.07-24.88-8.62-37-.42-1.44-.85-3.56.28-5.39,1-1.56,2.76-2.52,5.66-3.05A49.42,49.42,0,0,0,318.82,797l1.85-1.62,1.21,2.13q2.17,3.86,4.39,7.91c3.3,6,6.71,12.22,10.5,18.15,4.93,7.73,11.17,14.72,17.21,21.47,3.23,3.61,6.55,7.32,9.65,11.13,5,6.08,6.05,15.46,7,23.74l.08.69q.76,6.57,1.55,13.14l0,.23c1.79,15.09,3.64,30.7,5.2,46.11,2.68,26.51,2.93,53.39,3.17,79.38q.09,9.6.21,19.2c0,2.84.09,5.67.15,8.51.25,13.54.5,27.5-.27,41.2l-.28,4.84c-1.56,27.84-3.17,56.62-9.2,84.53a20.61,20.61,0,0,0,.29,8.23c1.56,4.91,1.38,6.58.57,7.67A2.52,2.52,0,0,1,370.08,1194.68Z"/><path class="cls-6" d="M310.77,1372.25c-.37-4.22-.8-8.54-1.21-12.72l0-.21c-1-9.69-1.94-19.7-2.33-29.65-.13-3.46-.19-7-.24-10.35-.22-13.88-.44-28.22-6.15-41.48a4.78,4.78,0,0,1-.34-1.86c0-.13,0-.26,0-.39l-.31-2.91,2.82.77.68.16a8.33,8.33,0,0,1,2.25.7q10,5.19,20,10.41l1.19.63c13.62,7.12,27.7,14.48,41.62,21.61,5.22,2.67,10.55,5,16.2,7.58,2.73,1.21,5.47,2.44,8.27,3.72l3.28,1.51-85.36,55.81Z"/><path class="cls-7" d="M328.18,558c-2-4-4.26-7.91-6.44-11.65-2.53-4.35-5.15-8.83-7.34-13.56-8.11-17.45-3.81-32.87,1.46-45.64,1.17-2.84,2.62-6.38,5.23-8.49a36.52,36.52,0,0,0,3.35-3.28c2.92-3.11,6.23-6.63,11.1-6.63a11.93,11.93,0,0,1,4.82,1.1c10.65,4.73,11.05,15.3,10.43,22.84a168.86,168.86,0,0,1-17.64,63.27,12.08,12.08,0,0,1-1,1.57l-.51.72-1.93,2.83Z"/><path class="cls-6" d="M322.77,669c-1.79,0-3.22-1.45-3.65-3.68a115.68,115.68,0,0,0-3.23-12c-1.85-6-3.45-11.22-3.12-15.66a165.22,165.22,0,0,1,18.54-70.73,5.43,5.43,0,0,1,1.39-1.62c.15-.13.27-.23.37-.33L335,563l1.25,2.42c.45.85,1,1.73,1.49,2.58a24.48,24.48,0,0,1,3,6.34c6.43,24.93,2.61,49.66-1.43,68.42-1.41,6.5-5.42,12.32-9.3,18-1.44,2.09-2.92,4.24-4.21,6.35A3.63,3.63,0,0,1,322.77,669Z"/><path class="cls-5" d="M283.5,106.94c-7.06,0-10.83-.12-12.54-2.61s-.51-5.9,1.92-12.25c3.15-8.22,4.18-14.47-.38-20.2a53.11,53.11,0,0,0-6-6.39L262.57,62h75.79l-.7,2.53c-7.2,25.89-27.43,41.74-54.12,42.41h0Z"/><path class="cls-7" d="M265.32,807.3c-3.22,0-6.52-.09-10.08-.27-16.41-.85-32.19-5.13-47.44-9.26l-7.94-2.14c-20.15-5.33-38.74-13.94-57.58-23-5.69-2.74-13.48-6.49-16.67-12.42a7.29,7.29,0,0,1-.7-5.91c1.31-4,6.06-6.22,9.52-7.85l1.4-.67,6.81-3.42.88-.44C162,732.61,181,723,200.68,716A286.32,286.32,0,0,1,267,700.72c8.69-.91,17.11-1.43,28.12-1.74a43.56,43.56,0,0,1,6.12-.4A106.58,106.58,0,0,1,323,701.39c6.07,1.31,6.73,7,7.21,11.07a27,27,0,0,0,.63,3.89c3.19,11.67-1.49,21.07-6,30.16a101.26,101.26,0,0,0-4.6,10.16c-3.14,8.59-3.16,18-.06,28.87,2.19,7.61-4.72,10.61-8.44,12.22-.47.21-.92.4-1.31.59C297.53,804.46,283.2,807.3,265.32,807.3Z"/><path class="cls-6" d="M191.16,714.94a12.55,12.55,0,0,1-1.52-.14c-.7-.09-1.62-.2-2.92-.3l-1.19-.08L185,711.1l1.1-.44c7.16-2.89,14.14-5.94,20.89-8.89,21.5-9.39,41.81-18.26,64.72-21,12.59-1.48,25.26-1.55,37.52-1.61h.62l6.19,0c4.4,0,5.57,3.75,6.27,6,.13.4.25.79.39,1.15a27,27,0,0,1,1.22,5.78c.1.76.2,1.53.33,2.28l.43,2.47-2.5-.13c-.87-.05-1.73-.07-2.6-.1a56,56,0,0,1-5.86-.37,174.36,174.36,0,0,0-23.24-1.61,149.37,149.37,0,0,0-22.34,1.65l-5.82.87c-7.6,1.13-15.46,2.29-23.11,3.82-14.07,2.8-30.61,6.62-46.65,13.71A3.51,3.51,0,0,1,191.16,714.94Z"/><path class="cls-7" d="M145.37,724.87c0-.12,0-.25,0-.38a4.27,4.27,0,0,1,.67-2.12c8.26-11.4,12.54-24.84,16.69-37.85,1.91-6,3.89-12.22,6.25-18.2,11.66-29.59,36.2-47.25,65.63-47.25l2.07,0c1.46-.07,2.94-.1,4.4-.1,21,0,39.08,6.89,53.62,20.48,7.77,7.26,13.65,16.73,18,28.95a5,5,0,0,1-.33,4.74,4.77,4.77,0,0,1-4.16,1.86,9.6,9.6,0,0,1-1.38-.11,107.65,107.65,0,0,0-16.14-1.18c-12,0-24.84,1.83-39.13,5.61-13.47,3.57-26.72,9.17-39.54,14.59-4.84,2-9.81,4.14-14.72,6.11-16.18,6.47-30.57,15.82-46.37,26.49a5,5,0,0,1-2.69.69,5.75,5.75,0,0,0-.65,0l-2.87.44Z"/><path class="cls-4" d="M300.22,1157.91c-8.24-4.35-16.77-8.85-25.09-13.34a7.49,7.49,0,0,1-4.15-6.71c-.1-3-.19-6-.27-8.95-.27-10-.56-20.28-1.71-30.27-2.83-24.39-5.75-49.61-10.32-74.37-2.78-15.09-7.34-30.12-11.74-44.66-1.74-5.71-3.52-11.59-5.17-17.39-9.52-33.42-22.65-62.85-40.14-90-3.61-5.59-8.42-10.83-15.13-16.46a4.13,4.13,0,0,0,0,1.54l1.94,3.2c4.6,7.61,9.36,15.47,14.58,22.78,13.7,19.2,21.59,41.33,29.21,62.73l.16.46c8.81,24.7,15.6,49.76,21.64,73.16,2.15,8.35,3,17.09,3.82,25.54.37,3.78.75,7.65,1.23,11.41q1,7.76,2,15.5c2,15.17,4,30.77,5.83,46.15.07.6.15,1.23.23,1.87.66,5.22,1.42,11.15-1,15.34a5,5,0,0,1-4.49,2.85c-2.6,0-5.08-2-7.07-3.59a21.63,21.63,0,0,0-1.76-1.32c-8.72-5.41-18.21-9.7-27.38-13.84-2.95-1.34-5.89-2.66-8.81-4-7.51-3.51-5.89-10-4.82-14.22a20.62,20.62,0,0,0,.67-3.42c1-16.77-1.06-33.55-3.05-49.78-.61-4.91-1.23-10-1.77-15.09-2.43-22.94-8.27-46-13-64.63-6.07-24.07-11.73-42.22-18.33-58.87q-1.65-4.18-3.28-8.37c-6-15.27-12.15-31.06-20.22-45.38l-.75-1.33c-14-24.86-28.53-50.57-48.57-72.06-14.27-15.29-27.66-28.56-40.92-40.57l-.66-.59v-10l2.77,1.17c62.58,26.21,129,89.73,177.64,169.92,24.9,41,43.72,83.68,55.94,126.73,13.16,46.36,17.89,90.83,14.08,132.18l-.27,3Z"/><path class="cls-4" d="M305.11,642.22a2.57,2.57,0,0,1-2.25-1c-8.21-11.6-20.12-17.77-32.63-23.58-8.45-3.92-13-11.52-17.42-18.87-1.66-2.77-3.37-5.63-5.25-8.19q-2.15-2.91-4.26-5.83l-.15-.2c-9.68-13.28-19.66-27-31.9-38.4l4.25,6c8.06,11.39,15.86,22.41,23.64,33.45,5.2,7.37,10.63,15.17,16.59,23.84a4.57,4.57,0,0,1,.65,2.44,3.68,3.68,0,0,0,0,.49l.28,2-2,.27-.39.08a5.72,5.72,0,0,1-1.44.22,3.17,3.17,0,0,1-.93-.13,59.64,59.64,0,0,0-16.2-2.23,70.62,70.62,0,0,0-17,2.19,7.64,7.64,0,0,1-1.82.25c-4.12,0-4.65-3.92-4.91-5.8a7.71,7.71,0,0,0-.28-1.46C201.11,584,187.37,561.89,175.32,543l-6-9.45c-11.14-17.52-22.66-35.63-34.72-52.91-15-21.43-33.08-40-50.44-56.9-2.85-2.77-5.63-5.73-8.32-8.59a173.82,173.82,0,0,0-13.14-13l-.69-.6v-6.61l2.89,1.43c4.7,2.33,9.71,4.83,14.73,7.46,28.72,15.09,52.88,30.38,73.87,46.75,16.29,12.72,30.3,24.59,42.84,36.29l6.94,6.44c14.54,13.45,29.56,27.37,42.14,42.93,4.58,5.68,9.32,11.32,13.9,16.77,13.13,15.62,26.69,31.76,37.49,49.68A53.93,53.93,0,0,0,305,613.34c4.94,4.86,3.75,10.36,2.7,15.22-.86,4-1.6,7.37.66,10.31l2.49,3.22h-4.07c-.18,0-.39,0-.61,0A9,9,0,0,1,305.11,642.22Z"/><path class="cls-6" d="M165.63,1465.88c0-.31-.11-.61-.17-.91a22.86,22.86,0,0,1-.38-2.58q-.93-14-1.8-28v-.14c-1.31-20.6-2.66-41.9-4.31-62.84-1-11.89-2.44-24-3.88-35.73l0-.12c-.65-5.28-1.32-10.72-1.94-16.13l-.4-3.52,3.22,1.47c14.06,6.44,27.64,9.57,41.51,9.57.67,0,1.33,0,2,0,18.67-.42,43.09-2.07,66.44-11.25,1.06-.42,2.11-.83,3.17-1.23,6.09-2.35,11.84-4.56,17-8.4a5.9,5.9,0,0,1,3.46-1.23c2.79,0,4.92,2.28,5.32,5.67a31.14,31.14,0,0,1,.09,4.41c0,1-.06,2.15,0,3.17.33,5.32.2,10.7.08,15.89-.22,8.83-.44,18,1.68,26.8,3.8,15.8-1.77,27.53-17,35.86-11.16,6.11-22,13.42-32.43,20.48-5,3.41-10.24,6.93-15.48,10.3-19.19,12.38-38.43,24.68-59.78,38.32a15.47,15.47,0,0,1-2.65,1.26l-1,.39-2.35,1Z"/><path class="cls-5" d="M203.06,1320.37c-4.27,0-8.76-.17-13.35-.51a71,71,0,0,1-13.71-2.79,74.75,74.75,0,0,0-10.91-2.41c-5-.6-10.15-4.92-9.74-10.4.52-7.39,6.76-11.23,11.78-14.32l.81-.5c19.89-12.31,42.62-15.49,64.61-18.57l1-.14a124.47,124.47,0,0,1,17.12-1.24,98,98,0,0,1,42.85,9.54,5.28,5.28,0,0,1,3.37,5.24,5.43,5.43,0,0,0,.23,1.6l.24.65-.22.65c-3.93,12-15,17.38-25.26,21.06-15.79,5.67-32.73,8.42-48.72,10.75A140.78,140.78,0,0,1,203.06,1320.37Z"/><path class="cls-6" d="M145.85,1298c-4.47-5-10.56-7.77-16.45-10.5-2.63-1.21-5.35-2.47-8-3.92q-7.84-4.38-15.65-8.78l-.12-.07c-7.69-4.34-16.41-9.25-24.84-13.89-5.19-2.85-10.84-5.92-17.78-9.67l-1-.57V1146.43l3,1.63c10,5.48,20.73,11.32,31.6,17,11.41,5.91,23.13,11.7,34.46,17.3l-.5,1.43.67-1.34c11.39,5.63,23.17,11.45,34.64,17.41,15.16,7.87,30.4,16.1,45.14,24.06,9.46,5.11,19.23,10.4,28.88,15.52,6.46,3.43,13,6.76,19.37,10l.17.09c4.85,2.46,9.88,5,14.79,7.58a11.06,11.06,0,0,1,3,2.49c.33.35.64.68,1,1l2.84,2.64-3.8.78c-.42.09-.84.2-1.26.32a13.1,13.1,0,0,1-3.43.6h-.25c-3.16-.13-6.33-.34-9.39-.54-4.75-.31-9.66-.64-14.45-.64h-1.23a205,205,0,0,0-42.29,5.17c-15.05,3.39-34.31,9-49.82,22.39a43.56,43.56,0,0,0-4.22,4.45c-.66.76-1.31,1.52-2,2.25l-1.48,1.62Z"/><path class="cls-5" d="M225.71,126a29.56,29.56,0,0,1-12.45-3c-8.38-3.87-13.88-10.08-15.88-18-1.65-6.47-.92-14.07,2.07-21.4,4-9.79,15.18-18.7,27.21-21.66l.18-.05h19l.14,0c13.66,2.47,21.54,9.48,22.19,19.73.7,11.2-6.82,19.32-13.45,26.48-.8.86-1.59,1.71-2.36,2.56C245.6,118.33,237.11,126,225.71,126Z"/><path class="cls-5" d="M190.32,138.21c-19.1,0-39.85-12.42-47.24-28.27a34.92,34.92,0,0,0-8.81-11.39A5.78,5.78,0,0,0,131,96.84c-1.31,0-2.54,1.64-3.85,3.39s-2.88,3.84-5.09,4.68a69.65,69.65,0,0,1-25,4.59,82.73,82.73,0,0,1-24.39-3.87A77.31,77.31,0,0,1,63.16,102L62,101.42V62H212.11l-5,3.83-.71.55c-10.62,8.61-16.58,20-16.34,31.36.23,10.69,5.91,20.47,16.43,28.27,2,1.47,2.88,3,2.74,4.65s-1.34,3.07-3.64,4.22A33.9,33.9,0,0,1,190.32,138.21Z"/><path class="cls-3" d="M155.35,1475c-3,0-6,0-9,0l-8.13,0h-.76l-7.42,0H62v-33.16l5.28.18c19.16.7,38.68.82,57.55.93,9.07,0,18.46.11,27.72.23a5.13,5.13,0,0,0,.8-.11,10.29,10.29,0,0,1,1.65-.18c2.18,0,3.63,1.41,3.86,3.77.43,4.27.81,8.61,1.17,12.82.3,3.41.59,6.76.91,10.11a4.88,4.88,0,0,1-1,4,5.52,5.52,0,0,1-4.33,1.44Z"/><path class="cls-3" d="M156.22,1438.56a2.9,2.9,0,0,1-2.54-1.63c-6.58,0-13,.07-19.22.13H134c-6.57.06-12.77.11-19,.11-12.39,0-22-.22-31-.72-5.65-.32-18.88-1-19.07-15.66-.08-6.63,2.61-14.7,15.91-15.5,15.1-.89,30.44-1.32,45.28-1.74h.21c7.68-.22,15.63-.44,23.44-.73h.83c3.16,0,6.4.8,6.5,6.74.14,8.61,1,17.13,1.82,24.32a5,5,0,0,1-.78,3.84A2.57,2.57,0,0,1,156.22,1438.56Z"/><path class="cls-3" d="M62,1368l1.8-.18c1.23-.13,2.57-.23,4.1-.33,13.33-.76,27.58-1.09,46.19-1.09,7.87,0,15.87,0,23.61.11l11.66.08c2.27,0,3.2,2.55,4.48,6.05.3.8.57,1.54.83,2.15a5.7,5.7,0,0,1,.29,2.67c0,.2,0,.4,0,.59.08,10.24-1.15,15.51-4.4,18.79-2.64,2.66-6.55,3.84-12.7,3.84a95.67,95.67,0,0,1-10.47-.71,226.34,226.34,0,0,0-24.45-1.7c-13.27,0-23.94,2.15-33.58,6.76a19.38,19.38,0,0,0-4,2.59l-3.29,2.8Z"/><path class="cls-3" d="M62,1326.87l2.52.21c3.24.32,6.75.47,10.73.47,4.77,0,9.66-.22,14.38-.44s9.74-.44,14.59-.44c12.35,0,26.85,1.25,40.82,10.51,8.57,5.67,7.13,12.5,5.86,18.53-.13.6-.25,1.19-.37,1.78-.49,2.55-2.28,4-5.06,4a18.94,18.94,0,0,1-3.5-.44,16.43,16.43,0,0,0-2.41-.34c-3.94-.05-7.95-.32-11.83-.59s-8-.54-11.82-.58H113a413.14,413.14,0,0,0-48.76,3.24L62,1363Z"/><path class="cls-6" d="M146.83,1325.7c-.53-.11-1.11-.19-1.66-.27a12.62,12.62,0,0,1-4.4-1.19c-16.48-9.09-33.24-17.78-49.44-26.19-9.09-4.7-18.12-9.75-26.86-14.63L62,1282V1255.8l15.94,8.49c16.89,9,34.35,18.31,51.6,27.33l2.59,1.33.13.07c10.12,5.14,21.58,11,16.8,27.69a5.36,5.36,0,0,0,.07,1.6c.05.46.11.91.13,1.36l.11,2.58Z"/><path class="cls-3" d="M62,1480l2.06.06c2.77.08,5.3.12,7.72.12,5.19,0,9.85-.19,14.23-.57,1.68-.15,3.41-.22,5.29-.22,3.51,0,7,.25,10.38.5s6.67.49,10,.49a50.84,50.84,0,0,0,6.66-.4,163.29,163.29,0,0,1,17.17-1c3.16-.09,6.43-.17,10.08-.34l7.21-.33-6,4-8,5.33-.19.13c-5.31,3.55-9.9,6.61-14.53,9.57-2.69,1.71-5.43,3.79-8.08,5.81-6.44,4.9-13.09,10-20.48,11a257.46,257.46,0,0,1-31.45,2.3l-2,0Z"/><path class="cls-3" d="M112.09,1323.42c-6.65-.39-13.81-.57-22.52-.57q-6.06,0-12,.07h-.46c-4,0-8,.08-12,.08H62v-30.15l4.39,2.41c9.73,5.31,19.75,10.46,30.36,15.92l.63.33c5,2.58,10.25,5.27,15.75,8.14l1.08.56-.91,3.28Z"/><path class="cls-3" d="M62,1521.13h3l10.61,0a8.74,8.74,0,0,1,2.68.53c.29.09.57.18.86.25l2.95.71-1.82,2.43c-.14.19-.27.4-.39.6a6,6,0,0,1-1.93,2.15c-1.68,1-3.41,2-5.09,2.9-2.26,1.25-4.58,2.53-6.74,3.92L62,1537.32Z"/><polygon class="cls-2" points="6 8.83 58 60.83 58 1619.17 6 1671.17 6 8.83"/><path d="M1024,8V1672a8,8,0,0,1-8,8H8a8,8,0,0,1-8-8V8A8,8,0,0,1,8,0H1016A8,8,0,0,1,1024,8Zm-8,1658.34V13.66l-48,48V1618.34ZM962.34,56l48-48H13.66l48,48H962.34ZM13.66,1672h996.68l-48-48H61.66ZM960,1616v-8.89c-16.86.05-33.72.06-50.57.28-10.35.13-20.63-.18-31.12,1.13-13.69,1.71-27.85-.28-41.8-.66-10.18-.28-20.49.41-30.5-1-25.39-3.53-40.7-24.24-29.56-50.42,7.25-17,22.57-13.41,35.15-14.14,27.12-1.58,54.38-.57,81.54-1.62,11.09-.43,21.46-4.63,29.22-13.57,4.32-5,2.47-10.17.35-14.78-2.32-5.07-7.1-7.7-12.63-9.38-20.44-6.21-41.42-6.12-62.43-6-16.29.07-32.66,1.16-48.84-.17-17.63-1.45-35.22-1.43-52.84-1.85-2.62-.07-2.4-.29-2.31,2.5.61,21.06-1.26,42-3.41,63-1.39,13.49-.92,27.16-1.48,40.74-.21,5-.36,9.93-.62,14.89Zm0-18.73V1543.1c-6.72,2.54-14.16,3.81-21.9,4.54-22.37,2.11-44.62.61-66.89,1.38-24.94.86-49.9,1.21-74.84,2.13-9.23.35-14.24,5.92-15.3,15-1.29,11.07,1.14,20.24,12.66,24.75,27.22,10.64,55.66,4.29,83.52,5.93,16.52,1,33.2,2.75,49.58,1.41C937.92,1597.38,949,1597.31,960,1597.27Zm0-62.65v-61.4c-12.1-9.71-26.16-14.9-41.33-16.77-17.75-2.18-35.64-5.37-53.36-4.81-13.58.43-26.92-1.1-40.37-1.23-25.07-.24-50.13-2.12-75.18-3.37-2.85-.14-2.17,1.83-2.8,3.48-3.29,8.68,1.9,17.7-1.67,26.55-2.07,5.13-.07,8.11,7,8.11,23.41,0,46.82,1,70.22,1.81,15,.54,30,1.52,40.72,2.07a155.56,155.56,0,0,1,40.82,3.9c10.88,2.51,22,5.26,26.88,17s1.63,21.49-8.74,28.88c-.41.29-.54,1-.8,1.51a10.54,10.54,0,0,0,2.75.54c7.73-.62,15.6-.63,23.13-2.21A58.44,58.44,0,0,0,960,1534.62Zm0-71.36v-44.21H915.59c-16,0-32.07.91-48-.2-37.22-2.58-74.47-1.25-111.7-1.93-5.69-.11-7.66,1.28-6.94,7,.41,3.32.54,6.75-1.5,10.11-1.3,2.15-1.2,4.81,3.25,5,27.84,1.11,55.8,1.35,83.46,4.32,17.94,1.93,35.84-.37,53.51,1.81,24.51,3,49.83,2.94,71.74,17.67Zm0-52.12v-26.71a387.2,387.2,0,0,1-39.29.09c-21.22-1.27-42.48-1.49-63.5-.66-15.69.62-31.49-.35-47.1,0-14.52.33-29.54,2.06-44.49-.38-12.54-2-19.29,8.61-15.78,21.82.2.77,1.78,1.63,2.76,1.67,16.35.72,32.7,1.68,49.07,1.88,25.57.3,51.21-1,76.72.38s51.15,1.3,76.72,1.77C956.74,1411,958.37,1411.09,960,1411.14Zm0-34.24v-27.56c-17.2.18-34.41.29-51.61.51-21.36.28-42.78,2-64,.83-15.61-.82-31.19,1.34-46.85-1.36-17-2.93-27.78,10.44-40.48,18.42-2.81,1.77-5.64,3.53-8.41,5.38-.37.24-.73,1.25-.59,1.38.84.82,1.91,2.2,2.74,2.1,20-2.57,39.84-1.58,59.89-.46,7.46.42,16.25-2.18,23.78-.8,14,2.57,28.15.42,41.87.45,16.14,0,32.6,1,48.93-.42,10.32-.93,20.88,1.2,31.35,1.47C957.71,1376.87,958.85,1376.88,960,1376.9Zm0-35.8v-30.39c-9.41-.06-18.81,0-28.18.61-30.73,1.92-61.61-.29-92.08,2.67-11,1.07-21.07,12.68-31.57,19.47-3.55,2.29-7.13,4.54-12,7.62h51.44q30.54,0,61.07.06c8.15,0,16.31-.22,24.46-.18C942.12,1341,951.06,1341,960,1341.1Zm0-37.47v-24.29c-17.69.16-35.37.21-53-.7-17-.88-28.85,6.76-40.9,16.15-3.33,2.6-7,4.77-10.59,7.19,3.3,6,8.85,1.44,13.19,1.59,18.93.65,38,.55,56.81.29C937,1303.7,948.5,1303.71,960,1303.63Zm0-32.7V1251q-23.58,0-47.14.19c-2.91,0-8.14-3-8.56,3.32-.44,6.6-8,16.76,8.38,15.35,11.71-1,23.63.81,35.46,1C952.1,1270.89,956.05,1270.91,960,1270.93Zm0-29.7v-856c-14.29,5.91-27.67,14.19-41.06,22.56-22.12,13.81-42.06,30.43-61.07,48.05-14.91,13.83-29,28.59-42.54,43.81a500.7,500.7,0,0,0-65.12,92.78,471.86,471.86,0,0,0-22.37,45.9c-1.61,3.92,2.35,10.24,4,15.38,6.37,20.18,13.16,40.22,19.12,60.52a94.37,94.37,0,0,0,16.75,32.53c2.87,3.62-3,10.37-10.27,14.4-16.89,9.31-34.94,15.08-53.48,19.69a52.25,52.25,0,0,1-14.82,1.56c-20.83-1.37-15.86,16.28-19.58,26.14-4.43,11.73-7.4,24.79-7.24,37.22.13,10.48-4.69,19.25-5.22,29.11-.7,13.1-1,26.23-2.1,39.29-1.64,19-6,38.08-5.15,56.94.59,13.23.07,26.61,1.63,39.86,2.3,19.51,3.77,39.12,6.13,58.62,1.66,13.72,4.22,27.33,6.65,42.62,3.64-6.73,3.06-13.08,3-17.87-.43-26.43,5-52.18,8.27-78,2.84-22.29,10.87-43.87,15.23-66,5.86-29.79,18.79-56.73,31.36-83.87,9.85-21.27,32.67-24.34,53.91-14.72,8.47,3.84,16,11.07,26.51,9.22,2.49-.44,5.18-.78,7.32-2,17.92-10.08,31.91.78,45.16,9.69,15.77,10.6,26.22,26.37,34.72,43.35,13.87,27.71,21.76,57.15,27.66,87.46a481.4,481.4,0,0,1,8,65c1.17,20.38,2,40.57.13,61-1.43,15.2.44,30.73-1.31,45.87-.63,5.41,1.58,12-3,16.93-1.16,1.24-2.16,2.64-3.23,4-1.63-1.51-4-2.71-4.78-4.58-8.41-20.56-18.08-40.56-27-60.86-12.37-28-28.09-54.26-41.66-81.63-11.8-23.81-25.71-46.58-38.83-69.73-2.35-4.14-3.05-9.38-8.21-12.38-3.5,21-6.09,41.77-10.56,62.1-5.68,25.87-8.17,52.09-10.31,78.32-1.28,15.61.28,31.45.5,47.19a98.71,98.71,0,0,1-.68,11.74c-2,17.75,10.16,20.41,22.37,24.76,32.6,11.62,65,23.76,97.4,36,5.85,2.21,10.57,6.16,9,13.76-.81,3.84,1.42,3.93,4.52,4.23C926.41,1242.64,943.2,1241.78,960,1241.23Zm0-867.12v-6.72c-16.61.67-33.16,2.29-49.76,3.29-22.91,1.38-44.37,7.37-65.82,14.4a327.58,327.58,0,0,0-64.61,29.35c-17.54,10.37-33.64,22.86-49.46,35.8-21.46,17.56-40.45,37.58-58.16,58.57-12.34,14.64-21.47,32-31.69,48.36-2.23,3.56-5.93,8.28,2.91,10.07,6.15,1.25,11.69,6.41,17.76,7,7.11.64,14.14,11.78,21,2.46,11.32-15.48,20.92-32.21,31.86-48,7.64-11,17.15-20.8,24.32-32.1,8.49-13.39,19.9-24,30.33-35.57,1.62-1.81,4.89-2.13,7.4-3.13-.2,1-.09,2.26-.65,3-7.19,9.46-14,19.26-21.81,28.18-23.87,27.26-42,58.52-61.89,88.51-1.66,2.49-7.87,5.82-4,9.12a147.94,147.94,0,0,1,31.57,37.76c.43.74,1.62,1,2.45,1.52.39-.78.82-1.55,1.18-2.36,3.05-6.88,5.6-14.05,9.22-20.62,14.26-26,28.39-52.06,47-75.25,15.94-19.91,31.89-39.91,49.26-58.54,17.08-18.31,36.87-33.83,56.28-49.75,12.67-10.4,26.44-19,39.93-27.81A176.38,176.38,0,0,1,960,374.11Zm0-16.73V323.91c-16,11.78-34,18.37-55.1,17.17-13.7-.77-27.48-3.53-36.24-14.25-10.15-12.43-18.68-10.33-30.39-3-12.72,8-34,3.87-44.14-7.32-7.33-8.1-11.51.55-15.73,3-15.15,8.77-31.16,12.87-48.1,9.19-7.56-1.64-15.22-6.11-21.09-11.27-5-4.44-7.72-2.94-11.83-.07-22.46,15.71-47.71,22.49-74.64,19.37-22.69-2.62-41.53-14.52-53-34.44-7.65-13.34-14.14-1.23-19.36-.05-28,6.32-58,3.33-78.56-21.3-16.32-19.53-11.32-46.47,2.33-66.06,11.17-16,26.69-25.47,45.48-29.54,3.28-.71,8.28.84,8.73-3.15.41-3.61-5.12-5.49-7.06-8.44-5.36-8.11-10.62-16.6-14-25.66-6.1-16.51-18.45-24.72-33.79-31.33-11.92-5.15-26.32-5.11-35.27-17.29C429.92,88.06,430,76.32,432.74,64h-86c-4.19,19.23-13.9,35.32-33.62,44.88-14.77,7.16-30.44,11.27-46.15,1.58-2.38-1.47-3.16.6-4.1,1.82-9.75,12.62-23.19,21.88-38.2,21.38-9-.3-12,4.59-17.71,7.25-27.45,12.7-50.05.36-69-25-5.81-7.78-9.9-5.69-16.44-2.58-10,4.77-21,4.17-31.75,3.59A74.09,74.09,0,0,1,64,110.44v279.8c17.18,7.4,33.38,16.84,49.72,26.11a377.12,377.12,0,0,1,59.81,42.54c20.37,17.53,40.76,35.32,59,55,21.64,23.37,43.41,46.87,60.86,73.83,4.06,6.29,8.19,13,13.87,17.61,3.38,2.72,5.23-4.7,5.18-6.12-.49-13.19,8.82-22.33,13.14-33.45,1.77-4.56-2.71-4.49-3.77-5.87-10.93-14.24-18.72-30.12-20.16-47.67-.84-10.31,3.55-20.87,8.42-30.9,5.42-11.15,14.15-16.68,24.28-21.27-3-9.95-6.1-20.32-9.35-30.63-4-12.78-8-25.58-12.41-38.24-7.74-22.35-15.24-44.8-23.86-66.81-5.74-14.65-12.94-28.77-20.05-42.84-11.06-21.88-22.33-43.65-34-65.19a269.2,269.2,0,0,0-18.78-29.6c-3.2-4.4-6.33-9.18-3.62-13.42,3.93-6.17,8.93.37,11.74,2.19a376.78,376.78,0,0,1,56.45,44.56A318.47,318.47,0,0,1,311,253.85c19.27,24.76,37.9,50.08,55.43,76.1,14.05,20.86,26.41,42.88,38.9,64.75a574.91,574.91,0,0,1,35.51,73.4c1.38,3.49,2.29,3.36,4.65,1.9,19.75-12.18,33.42,7.49,35.83,23.12,3.58,23.17-4.61,44.51-7,66.69-.91,8.32,7,18.81,8,29a192.81,192.81,0,0,1-.23,40.48l12,59.73c2.18.5,4.35,1.09,6.51,1.81,1.16.39,2.61-.12,3.92-.22a20,20,0,0,1-1.25-3.38c-.84-4.71-2.81-9.64-2.08-14.11,2.14-13-3.15-23.58-7.87-35-6.48-15.73-4.4-32.07,2.35-47.63,3.28-7.57,5.42-15.53,10.65-22.44,1.94-2.56-.66-8.66-1.4-13.11-4.07-24.5,1.36-47.27,14.28-67.91a27.29,27.29,0,0,1,23.14-12.48c10.23,0,15.87,8,16.09,16.07.26,9.38-3,19.21-6.3,28.25-6.5,17.62-17.34,32.5-31,45.51-3.56,3.37,2.36,6.9,3.59,10.43a62.54,62.54,0,0,1,2.43,34.1c12.22-26.53,36.25-36.26,61.2-43.46,10.6-3.06,22.46-2.44,33.73-2.29,11.51.15,10.67-10.7,14.63-16.22,15.33-21.37,27.68-45.09,46.14-64,19.23-19.66,38.83-39.14,60.83-55.89,31.67-24.11,66.88-41.41,104.49-53.93,21.08-7,42.5-12.13,65-12.46C928.78,360.43,944.45,357.38,960,357.38Zm0-49.46V249.84c-11.24,14-27,23.27-45.8,28.6-13.39,3.78-28.16,4.61-41.6-4.26-2.53-1.68-9.18,2-13.53,4.11-13.47,6.42-26.9,10.15-40.93,1.76-3.2-1.92-4.17,1.19-4.58,2.65-1.56,5.56-5.34,9.45-8.87,13.65-2.68,3.19-7.63,7.5-6.9,9.88,1.5,4.85,7.29,7.32,12.36,8.64,16.24,4.25,29.86-.93,40.86-13,5.73-6.28,8.81-3,12.13,2.1,8.22,12.67,19.67,20.19,34.64,23.07C923.36,332,942.82,323.13,960,307.92Zm0-80.56V192.75c-3.63-5.86-8.8-10.58-14.32-14.93-8.3-6.54-14.5,1.5-21.44,4.57-7.48,3.31-12.84,4.28-10,16.71,5.7,24.76-7.52,44.45-25.39,60.86-2.43,2.24-7.59,5.14-7.21,6.2,1.66,4.62,5.63.11,8.4.88,12.63,3.51,24-.91,34.63-6.32C940.31,252.74,953,242.14,960,227.36ZM960,176V64H498.36c6,13.31,15.52,23.59,31.48,28.39,12.15,3.66,24.93,5.37,37.52,7.38,7,1.13,12.75,5,17.67,9,9.25,7.49,23.84,5.54,27.32-5.7,3.69-11.88,11.37-20.28,20.86-27.24,8.22-6,17.54-10.6,27.9-10.8l1.9,0c22.48,0,39.86,7.85,50.17,37,5.78,16.36-4,44.05-20.46,52.35,18.51,2.75,34.91,8.32,43.4,26.56.16.36,5,.85,5.17.56,7.77-13.53,36.92-23.27,49.87-16.42,4,2.12,7.79,5.25,5,10.61-3.21,6.28-5.15-.59-7.71-1.08-13.62-2.62-25.66,1.7-35.18,10.64-5.54,5.2-7.94,13.6-6.08,21.78,1.7,7.49,22,9.31,31.47,5.81,24.72-9.14,43.52-27.93,66.76-39.1,19.18-9.22,38.7-10.32,56.86,3.54,4,3,6-1.47,8.76-2.51,17.94-6.76,26.32-21.32,29.7-39,2.27-11.88-7.18-21.54-25.66-26.69-14.31-4-27.84-4-38.61,9.09-4.12,5-9.4,5.78-12.29-2C854.74,90.46,834.74,83,809.66,85.22c-13.66,1.21-26.77,4.58-31,20.26-3.06,11.27,8.45,26.52,20,27.51a14.25,14.25,0,0,1,3.57,1.3c-.43.94-.6,2.28-1.34,2.75-3.22,2.06-6,4.72-10.69,3.48-16.5-4.34-20.78-18.69-22.68-31.83-2.15-14.9,8-24.83,21.83-30.38,25.42-10.18,51.51-9,70.28,9.85,12.06,12.08,19.44,13.69,34.25,8.65,21-7.15,48.33,5.94,57.09,25.69,5.57,12.55,1.6,25.14-4.92,36.51-2.89,5.05-8,7.6,2.66,10.57A28.48,28.48,0,0,1,960,176Zm-43.2,964.67c-.15-26.53,1-53.06-1.12-79.59-1.72-21.15-4-42.07-8.23-63-3.15-15.43-6.6-30.8-11.36-45.65a196.84,196.84,0,0,0-34.33-64.39c-15.78-19.55-35.7-26.47-58-16.28,3.7,5,8,9.83,11.16,15.31,10,17.4,19.74,34.93,27.49,53.61,6.32,15.22,16.38,28.94,22.28,44.29,11,28.64,20.45,57.89,29.79,87.13,1.16,3.62,6.11,10.1,1,12.23-4.81,2-6.12-5.68-7.5-9.24-11.36-29.25-21-59.2-33.42-88-11.42-26.51-25.3-52-38.67-77.62-7.1-13.6-15-26.83-23.34-39.69-4.48-6.9-39.45-16-47-12.23-3.43,1.7-17.92.5-5.76,11.34a127.13,127.13,0,0,1,11.52,12.45c15,17.48,28.21,36.16,41.09,55.33,16.48,24.51,31.61,49.65,45.72,75.48,13.78,25.22,27.8,50.34,40.62,76,12.9,25.88,26.13,51.7,35.07,79.45C917.52,1158.74,916.85,1149.61,916.8,1140.68ZM892.67,239.14c9.19-12.42,15.9-26.54,9.46-42.51S872.42,175.08,853.37,184c-22.72,10.65-40.7,29.22-64.47,38.06-17.39,6.46-36.07,9.42-48.24-4.76-4.41-5.14-5.38-1.54-7.09,1.55-6.55,11.79-15,21-27.75,27-5.4,2.58-14.77-.41-16,6.79-2.37,13.78-9.38,23-20.71,30.57-15.14,10.13-29.61,20.58-49.55,15.89-17.69-4.16-35.83-26.85-30.33-46.4,2.38-8.49-2.54-6.55-6.68-6.68-9.31-.31-18.66.64-27.7-3-16.11-6.46-30.7-15.47-34.27-33.38-2.57-12.89-7.67-15.9-17.67-9.19-13,8.72-23.83,19.4-29.2,35.23-4.68,13.8-2.07,30.74,8,41.14,24.92,25.82,57,19.33,83.14,9.15,6.65-2.59,10.5-.53,12,5.36,2.73,10.93,10.45,17.71,18.92,23.5,16.08,11,33.79,14.17,53.15,10.21,15.32-3.14,29.41-8.15,42.48-17,6.6-4.49,14.76-17.75,23-2.26,4.65,8.75,13.27,11.26,20.05,12.44C761.83,323,794.49,299,805.1,274.52c2.66-6.15,6.86-14.2,15.12-7A21.51,21.51,0,0,0,836,273.29C859.41,269.59,878.6,258.16,892.67,239.14Zm-19,1035.4c10.54-6.93,27.15-11.08,23.28-27.2,0-8-.13-8.29-2.53-6.77q-49.64,31.42-99.16,63c-23.47,15-46.77,30.33-70.16,45.48-2.26,1.47-4.65,2.73-7,4.09-4.79,2.78-8.12,5.3.55,7.24,6.25,1.4,14.39,6.66,18.27,4.39,22.58-13.24,44.56-27.62,65.94-42.75C826.08,1305.58,849.91,1290.16,873.65,1274.54Zm-12.77-26.18c9.57-6.23,19.34-12.16,30.15-18.95-26.9-8-51.52-19.92-78.07-26.51-7.26-1.8-14.85-4.09-21-8.1-14.88-9.64-23,2.85-32.81,9-18.07,11.43-35.81,23.4-53.48,35.46-14.8,10.1-29.17,20.84-44,31-20.19,13.81-40.65,27.24-60.9,41-18.09,12.25-36,24.74-54.07,37q-31,21.08-62,42-33.82,22.83-67.68,45.62-31,21-62,42-51.37,34.79-102.78,69.57c-25.51,17.26-51.09,34.41-76.55,51.74-8.44,5.75-17,11.26-25.59,16.83H311.71c7.14-4.42,14.27-8.87,21.31-13.45,18.11-11.77,35.79-24.19,53.79-36.14,19.88-13.2,39.89-26.21,59.88-39.24q26.9-17.55,53.86-35,36.75-23.75,73.57-47.39c10.88-7,22.47-13,32.54-21,3.34-2.64,3.46-9.92,4.18-15.2,1.66-12.26,1.8-24.8,4.41-36.82,3.06-14,16.14-15.23,27.3-16.62,15.32-1.9,30.76-3,46.31-.4,10.72,1.81,17.39-7.32,25.32-12.14,27.81-16.89,55.16-34.54,82.52-52.16C818.22,1276.62,839.45,1262.33,860.88,1248.36Zm-72.52-279c.5-5.86,7.38-10.48,2.94-16.93-8.64-12.54-17.36-25-25.75-37.74-2.24-3.39-3.56-7.37-7.45-9.41-.45,3.12-.31,6.46-1.44,9.3-7.73,19.31-11.39,39.7-15.37,59.91-4.8,24.34-8.82,48.91-11.74,73.55-3,25.75-5.54,51.69-5.9,77.58-.14,9.75-1.26,19.86.49,30.08-1.6,4.28,1.72,6,5,7.13q15.42,5.4,31,10.22c2.6.8,7.84,8.58,7.12-2.79-1-15.86.28-31.85-.47-47.73-1.08-23.29,2.83-46,6.14-68.88,2.46-17,5.06-33.91,8.16-50.77C783.14,991.59,787.39,980.61,788.36,969.32Zm-24.73,222.82c1.69-.82,2.59-3.29,3.85-5a71.71,71.71,0,0,0-7.85-4q-29.42-10.86-58.9-21.48c-10.1-3.63-20.08-8-30.49-10.28-9-2-13.18,7.49-19.69,11.5-21.74,13.38-43.19,27.25-64.55,41.24-19.63,12.85-38.91,26.24-58.52,39.13-21.35,14-43,27.65-64.34,41.63-24.79,16.22-49.36,32.77-74.19,48.93-19.51,12.71-39.37,24.88-58.86,37.62-17.19,11.25-33.93,23.21-51.16,34.4-16.38,10.64-33.29,20.47-49.71,31-17.18,11.08-33.94,22.79-51.07,34-19.82,12.92-39.93,25.39-59.74,38.32-16.7,10.9-33.16,22.18-49.71,33.3l-4.7,3.15V1616h68.15q26.15-17.7,52.38-35.26c15.29-10.21,30.92-19.9,46.16-30.18,14.78-10,29.11-20.61,43.88-30.58,13.88-9.37,28.82-17.32,41.94-27.63,14.16-11.13,29.6-20.15,44.33-30.31,18.84-13,37.8-25.83,56.75-38.66q40.71-27.57,81.5-55c28.13-19,56.15-38.25,84.4-57.11,19-12.64,38.94-23.82,57.17-37.39,22.78-17,47-31.75,70.39-47.66C728.32,1214.46,744.71,1201.36,763.63,1192.14ZM755.2,742.77a60.74,60.74,0,0,1-4.08-5.77c-7.42-13.82-11.66-28.77-16.15-43.7-4-13.19-9.74-25.82-13.89-39-6.49-20.59-16.35-39.5-33-53C663,581,634.88,570.07,600.9,574.52,574,578,552.61,587.86,536.5,611.09c6.85,0,13.06-1.06,18.76.18,23.56,5.13,44.89,15.78,65.75,27.58,27.47,15.53,53.1,33.2,75.37,56C713.9,712.74,732,730.36,755.2,742.77Zm-1.66,8.87c-1.64-.37-2.85-.35-3.74-.87-21.12-12.54-38.52-30-58.46-44.12C679,697.89,667,688,653.44,681.53a389.28,389.28,0,0,0-47.51-19.22c-18.34-6-36.43-11.9-55.76-13.24-6.88-.48-14-2.24-20.57-.91-6,1.22-14.34-3.47-18,4.6-5.71,12.78-.19,38.13,10,47.93,8.05,7.75,17,14.7,22.66,24.56,3.62,6.3,3.8,14.18,9.5,19.66,9.3,9,20.65,13.87,32.26,19.13,15.39,7,31.41,10.06,47.69,10.57,19.73.62,39.41.56,59.32-3.05C714.14,767.75,734.43,763.46,753.54,751.64Zm-7.24,166.8c1.83-8.92,10.77-17.81,1.69-27.56-4.93-5.28-10.22-10.35-14.34-16.22-2.41-3.42-3.27-2.25-4.35.08-10.84,23.44-22,46.83-28,72.06-5.93,25-12.18,49.85-16.62,75.22-6.32,36.12-8.71,72.52-11.74,109.42,1.77,3.34-2.92,9,2.39,11.32a285,285,0,0,0,29.61,11c3.69,1.16,10.67,4.63,11.27,1.16.85-4.86.09-10.9-.5-16.15-1.77-15.64-.89-31.23-.36-46.73.58-16.67,3.51-33.26,5.49-49.87,1.49-12.51,2.58-25.09,4.77-37.47,2.6-14.67,5.89-29.24,9.43-43.71C738.51,946.74,743.35,932.79,746.3,918.44Zm-7.67,461.84c.25-.48-1.41-2.62-2.54-3.07-8.93-3.5-17.7-8.55-27-9.78-24.06-3.21-48.39-5.28-72.48-.08-3.16.68-8.89.1-9.34,5.34-.27,3.09,3.67,3.24,6,4.3,20.87,9.37,42.9,12.4,65.56,12,9.66-.3,19.48,1.08,28.88-2.13C731.81,1385.47,736.39,1384.54,738.63,1380.28ZM735,1399.69c.9-8.33-4.44-4.85-7.37-4.36-29.62,4.89-58.69,3.5-87.4-5.84-5.93-1.93-11.55-4.59-17.31-6.3-3.11-.93-3.05,6-3.43,9.08-1.44,11.59-1.9,23.3-2.44,35-1.43,30.82-2.07,61.69-4.37,92.44-.88,11.79-.53,23.62-1.84,35.29-2.29,20.33-1.66,40.68-1.78,61H722.61c.72-9.07-1-18.18.93-27,3-13.64-.71-27.61,3.08-41.18,1.14-4.11.13-8.79.26-13.2.66-22.77.88-45.56,2.23-68.28C730.43,1444.08,732.66,1421.86,735,1399.69ZM702.62,238.09c13.37-3.43,30.19-31.9,27.92-45.13-2.41-14-17.63-26.14-32.09-28.16-19.88-2.77-35,8.21-51.25,15.74-16.79,7.8-32,20.23-52.47,14.53-5.42-1.5-10.82-3.71-16.34-4.11-10.18-.74-20.31,5.34-30.7.24-4.59-2.25-11-6.55-13.92-5-3.8,2.07-6.88,8.2-6.73,15.91a56.24,56.24,0,0,0,12,19c11.44,11.76,25.78,15.89,41.19,15.37,6.45-.21,15.55,1.18,19.64-4.4,13.69-18.64,31-27.87,54.19-25.11,16.72,2,31.35,8.89,36,26C692.74,243,699.74,238.83,702.62,238.09Zm2.32-124.65c0-17-16.74-37.29-31.86-38.35-22.84-1.59-40.57,7.57-53.24,26.34-.55.81-8.92,6.88,1.21,8.12,5.92.72,11.74,2.27,17.6,3.4,14.13,2.71,27.21,27.73,21.26,40.88-1.79,4-.92,5.16,3.47,5.18C684,159.09,704.94,136.24,704.94,113.44Zm-29.2,145.21c8-10.71,3.17-27.31-7.8-33.94-14.9-9-29.6-7-47-.59,4.62,1.38,7.07,2,9.45,2.84,5.75,2,11.81,4,14.31,10.26,4.23,10.61-3,27.14-13.72,32.37-1.65.81-3,2.84-4.06-.29-.79-2.37-.73-4.52,1.66-6.38,6.35-4.93,10.57-12.56,7.6-19.33-4-9.08-15.9-11.33-22.51-7.33-10.35,6.28-19.3,17.92-14,31,4.21,10.34,12.57,19.84,26.37,19.67C647.82,286.68,663.41,275.07,675.74,258.65ZM664.59,790.24c1.15-2.44.83-6.32-3.22-6a186.21,186.21,0,0,1-48.13-2.72c-1.87-.36-2.13,1-2.18,2.5a61,61,0,0,1-1.71,11.23c-4.57,20.52-9.66,41.09-11.91,61.93-2.79,25.81-6.07,51.61-6.53,77.71-.72,40.59,2.77,80.91,4.91,121.37,1.08,6.78,2.84,13.53,3.11,20.34,1.09,27.94,10,54.1,18.18,80.35,1.84,5.85,1.85,18.55,14.45,8.1,5.51-4.56,12.46-7.37,18.68-11.11,4.56-2.74,11.32-10.15,11-11.54-5.46-20.92-10.24-42-12.12-63.59-1-11-3.17-21.75-3.93-32.82-1-13.94-4.16-28-4-42.07.31-24-2-48,1.54-72,2.35-15.68,2.62-31.69,4.1-47.49,1.44-15.38,4.93-30.31,6.87-45.5C655.78,822.49,657.31,805.65,664.59,790.24Zm-41-607.18c16.65-7.87,31.24-28.6,28-41.56-4.27-17.26-32.35-29.28-49.46-21-1.78.86-6.62.63-4.79,3.24,4,5.77,2.49,12.38,4.58,18.2,4.26,11.81-3.21,35.51-14.66,42.76C600.16,188.68,611.69,188.7,623.64,183.06Zm7.85,479.62c7.81,3.09,15.3,7,22.93,10.55C637,659.6,618.34,648.61,599,638.72c-17.46-9-34.82-17-55.13-18.21-10.32-.63-17.54-.31-21.37,10.26-.72,2-2.13,3.69-3.22,5.53,2.24.21,4.5.76,6.71.59C564,633.87,597.54,649.24,631.49,662.68Zm-26.66,792.7c8.34-6.16-2.31-16.69,3.81-24-29.11,18.68-58.43,37-87.26,56.14-22,14.57-43.08,30.49-65.07,45.07-23,15.25-46.7,29.45-69.91,44.4-19.9,12.81-39.62,25.89-59.35,39H370q16.94-11.85,33.94-23.6,41.3-28.44,82.82-56.58c23.42-15.93,46.94-31.71,70.38-47.61C573.11,1477.37,589.31,1466.84,604.83,1455.38Zm-19.66,35.52c9.54-.62,23.83,5.38,19.86-14.22-.22-1.08.71-2.39,1.59-5.09-8.07,6.2-15.1,11.58-22.1,17a6.19,6.19,0,0,0-1.12,1.79A5.43,5.43,0,0,0,585.17,1490.9Zm18,31.92c-.58-4.46,1.11-9.17,1.06-13.76,0-3-1-8.39-2.13-8.56-12.2-1.86-25.39-4.72-36.43,1.26-14.86,8-28.24,18.85-42.86,28.88,1.94.12,3.34.24,4.73.29,21.77.87,43.67-2,65.33,1.88C601.39,1534.36,604.23,1531.41,603.12,1522.82ZM603,783.3c-.64-1.41,1-3.37-1.92-4.31-13.43-4.25-27-8.52-38.56-16.84-5.48-3.94-6.92-2.36-8.08,3.44-3,15-6.14,30-9.73,44.91-4.63,19.21-11.48,38-14.25,57.49-4,27.78-4.57,56-7.56,84-2.76,25.79-2.72,51.56-1.79,77.38.38,10.6.94,21.24,2.26,31.75,2.2,17.45,5.14,34.81,7.64,52.22.43,3,.71,5.76,4.66,5.63,17.58-.56,35.19-.13,52.25,4.24,9.11,2.33,6.51-.29,5.33-6.51-3.51-18.53-6.33-37.25-8.15-56-2.38-24.72-4.58-49.54-4.87-74.33-.18-16,.57-32.07.92-48.11a628.66,628.66,0,0,1,7.75-83.6c1.65-10.51,2.69-21.13,4.79-31.54C596.38,809.75,599.86,796.58,603,783.3ZM602.56,1553c1.07-6.51.4-13-10.29-12.22-15.54,1.08-31.55,2.18-46.76-.35-21.37-3.57-39.89-1.65-56.69,13.2-8.79,7.78-19.13,13.8-28.9,20.71,1.62.1,3.34.17,5.05.31,23.62,1.83,47.29-.09,71,1.39,13.81.87,28.37,2.68,42.18.24,7.52-1.33,20.67,10.17,22.58-7.71C601.31,1563.36,601.7,1558.19,602.56,1553Zm-2-411.84c.21-1.77-2.79-5.07-5-5.83-26.93-9.34-54.3-7.84-81.6-2a19.15,19.15,0,0,0-10.59,7.11c-1.8,2.55,2.72,3.65,4.85,4.73,17.31,8.73,36.36,6.83,55.41,8.39,8.65-1.57,18.08-2.86,27.26-5.12C594.83,1147.48,600,1146.13,600.58,1141.15ZM599.86,1616c.18-9.15.45-18.29.56-27.44,0-.49-1.62-1.42-2.48-1.43-21.24-.09-42.61,1.35-63.68-.56-16.32-1.49-32.52-.33-48.75-1.27-12.4-.72-25.07-2.15-37.15-1.37-8.14.53-15.79,9.22-23.56,14.4-8.88,5.93-17.84,11.76-26.72,17.67Zm-2.39-459.06c.19-2.27-.8-1.94-2.24-1.44-28.45,9.78-57.25,11.36-85.16-.51-13.69-5.82-11.55,2.17-11.72,9.77-.05,2.06.47,4.15.29,6.18-1.6,18.18-3.43,36.34-4.89,54.53-.78,9.66-1,19.36-1.42,28.91,3.24-1.54,7.43-2.77,10.73-5.2,26.85-19.75,55.58-36.61,83.53-54.66,3.07-2,7.73-4.28,8.19-7C596.46,1177.46,596.63,1167.15,597.47,1156.94Zm-17-980.16c13.25-9.48,14.39-22.92,11.64-36.9C587.47,116.45,569.43,110,550.24,107c-28.77-4.39-51-11.19-62-43H441.88a47.3,47.3,0,0,0,1,22.52c3.34,11.41,13,13.79,21.88,16.2,24,6.51,43.26,17.46,52.62,42.62,4.89,13.15,11.11,27,25.21,33.53C555.26,184.72,568.14,185.58,580.44,176.78ZM548.78,493.2c1-4.81-4.07-9.44-6.35-9.14-6.79.89-13.63,4-17.3,10.38-9.21,15.91-14.5,33-12.06,50.57,0,4.21,0,7.32,0,10.44a11.39,11.39,0,0,0,.53,2.26c.89-.31,2-.39,2.61-1,3-2.79,6-5.58,8.69-8.62,8.47-9.48,13.18-21.14,17.84-32.67C545.61,508.37,547.23,500.72,548.78,493.2Zm-6.27,274.72c2.44-21-5-38.6-21.07-54.36-23.56-23.1-67-19.64-90.25-6.39a1.71,1.71,0,0,0-.31,1.56c11.33,10.56,15.79,25.16,22,38.55,7.34,15.87,11.39,32.9,14.72,50.13,5.36,27.75,5.3,55.53,1.62,83.32-1.93,14.58-5.24,29-8.66,47.42,12.16-21.89,26.33-37.64,37-56,9.86-16.9,19.81-33.67,28.61-51.17A159.44,159.44,0,0,0,542.51,767.92Zm-22,107.94c.86-9.61,6.43-18.57,3.49-31-3.26,12.2-14,19.2-12.6,30.33,1.71,13.52,1.52,27,1.77,40.45,0,1.69-1.44,4.88,1.2,5,3,.1,2.59-3.24,2.58-5.5C516.89,901.89,519.31,888.92,520.48,875.86Zm-11.32,249.07c3.82-1.27,6.49-3.06,5.87-8a189.93,189.93,0,0,1-2-24.49c.13-25.54-2.94-50.77-5.82-76.08a589.47,589.47,0,0,1-3.69-62.72c-.14-21.62-1.29-43-4.81-63.84-11.68,15.1-23.52,30-34.84,45.3-2.92,3.94-6.91,7.37-6.8,13.49.32,17.35.47,34.73-.4,52-1.2,23.73-3.85,47.39-5,71.12-1,21.19-3.73,42.13-6.46,63.13-3.52,27-6.33,54.16-8.83,81.3-.4,4.4-4.3,10,5.23,13.46,13.23,4.75,25.05,13.47,37.45,20.51,2.1,1.19,3.66,1.63,3.9-1.65,1-13.38,2-26.76,3.08-40.13,1.58-19,4.25-37.93,4.56-56.92C490.83,1137.47,496.39,1129.18,509.16,1124.93Zm-2.71-487.49c10.3-20.8,19.8-41.73,7-66.92a14.17,14.17,0,0,1-.79,2.76C501.79,591.89,496,611.49,501,633.15c.53,2.3,2,4.4,3,6.6C504.85,639,506,638.38,506.45,637.44ZM483.6,687.36l-5.46-37.42c-.5,1.91-.72,2.78-1.24,4.67-2.81,10.38-6.37,21.47-13.1,30.31-2.1,2.76,1.57,2,2.59,1.94A149.31,149.31,0,0,1,483.6,687.36Zm-1.34,575.18c1.25-.89,1.23-2.39-1.1-3.57-22.86-11.62-45.3-24.11-68.48-35-13.78-6.5-27.14-13.9-41.26-19.87-8.75-3.71-17.59-9.59-26.52-14.25-14.74-7.69-30-14.48-44.18-23.12-8.93-5.45-18.3-11.33-27.42-14.84-14-5.41-25.82-14.38-39.49-20.25-23.75-10.19-46.1-23.65-69.17-35.48-33.49-17.17-67.15-34-100.64-51.22v94.75c21.26,11.77,42.43,23.72,64.2,34.44,33.71,16.59,66.72,34.43,99.84,52.1,29.06,15.51,58.79,29.73,88,45,26.59,13.89,52.62,28.87,79.43,42.31,7.76,3.89,13.61-4.63,19.77-8.46,18.08-11.23,35.93-22.82,53.89-34.23C473.49,1268,478.05,1265.53,482.26,1262.54ZM471.75,632.87c4.11-21,3.69-41.43-3.12-62.22-2.41,4-4.15,7.06-6.09,10-6.55,9.93-11.89,20.5-13.35,32.35-2,16.45-5,33.12,1.93,49.24,1.84,4.28,3.35,9.81,6.76,11.9,2.12,1.3,3.92-5,5.39-8.32C467.91,655.26,469.56,644.06,471.75,632.87Zm1.45-123.45c-.83-11.67-.49-23.39-10.79-31.37-2.73-2.11-6.33-2.76-9.19-.66-6.81,5-9.13,12.47-10.16,20.47-3,23.14,10.44,40.81,20,59.76.24.47.83.78,1.26,1.16.83-1.18,2.23-2.28,2.42-3.56C469,539.87,471.1,524.51,473.2,509.42Zm-13.29,369c1.72-20.18,2.55-40.38,1.11-60.64-1.4-19.58-6.41-38.58-12.6-56.87-5.19-15.35-9.9-31.66-22.28-43.86-3.15-3.11-4.5-.09-6.45.32-2.24.47-1.9,2.24-.86,4.27a303.33,303.33,0,0,1,27.25,77.62c4.34,20.72,5.74,41.59,8.69,62.34.44,5.26.76,10.54,1.41,15.77.16,1.23,1.44,2.32,2.2,3.48C458.91,880,459.84,879.26,459.91,878.41Zm-7.42-296.88c2.72-4.19,9.74-8.46,7.29-13.61-5.41-11.39-12.77-21.86-19.26-32.75-7.56-12.71-10.68-27.46-6.76-40.74,3.47-11.74.64-21.05-3.59-30.13-11-23.64-22.74-47-35.44-69.78-13.53-24.26-27.6-48.32-43.1-71.34-15.87-23.59-33.64-45.92-50.82-68.62-6.62-8.73-12.94-18-21.06-25.21-17.38-15.35-35.84-29.48-55.95-45.81,2.68,5,4.21,8.21,6.07,11.23,23.52,38.17,45.52,77.2,63,118.52,9.06,21.4,16,43.68,24.22,65.45,7.83,20.83,15.35,41.73,20.5,63.44,1.65,7,2.19,17.28,6.79,19.95,11.64,6.76,14.6,16.23,14.55,27.78,0,8.74-3.34,17.89-1.63,26.12,5.77,27.63,13.08,55,20.56,82.18.1.37-5.44,19.33,8.6,7,1.11-1,4.39.18,6.52.82,15.33,4.62,25.3,16.71,37.75,27.35-4.78-9.61-5.64-19.61-7-28.63-3.3-22-9.47-43.38-15.88-64.16-7.94-25.71-15.1-52-26.6-76.66-9.61-20.66-17.08-42.3-26.31-63.14-8.34-18.82-20-36.07-26.91-55.6-.53-1.47-.15-3.27-.19-4.92,1,.76,2.32,1.32,2.88,2.31,19.18,34.55,39.51,68.51,53.34,105.79,6.49,17.48,14.14,34.5,19.12,52.56,4.44,16.09,9,32.21,14.63,47.89,6.11,16.9,8.84,34.53,13.18,51.81,2.5,10,4.32,20.14,6.45,30.22C438.58,613,442.68,596.68,452.49,581.53Zm-4,104.82c.75-5.2-2.87-11.38-5.44-16.66C433.45,650,418.85,634.46,401.88,621c-3.08-2.45-5.55-7.46-9.95-5.47-1.56.71-.87,6.38-1.2,9.78-2.41,22.83,23.7,55.61,43.82,62.87C438,689.39,446.74,698.44,448.48,686.35ZM446.93,966c.88-7.09,4.1-14.58.59-21.37-8.76-16.94-22-30.27-35.48-43.41-2.11-2.06-4.4-3.93-6.61-5.89-.78,3.62-2.15,7.23-2.24,10.86-.34,14.82.12,29.67-.5,44.47-.82,19.13-1.77,38.3-3.82,57.33-1.63,15.16-2.84,30.32-4.13,45.5-2.33,27.52-5.78,55-9.92,82.29-2.19,14.46-2.51,29.21-7.16,43.47-1.53,4.72-5.94,13.31-.45,16.73,14.84,9.26,30.85,16.64,46.37,24.8,4.61,2.43,5.27,1.08,5.55-3.91.92-16.6,2.27-33.21,4.17-49.72,2.89-25.06,7.63-50,9.26-75.07q2.2-34,4.14-68C447.82,1004.74,446.93,985.35,446.93,966Zm-.24-41.12c-.85-20.58.49-39.16-1.12-58-1.85-21.51-4.14-42.72-8.42-63.89-4.75-23.48-10.56-46.56-22.5-67.4-4.69-8.17-8.46-19.88-19.95-20.2-18.93-.52-35.77,6.65-50.06,19.24-22.64,20-22.49,58.56-2.35,83.07,17.35,21.11,37,39.39,57.42,57.25C416.49,889.66,433.26,904.47,446.69,924.88ZM431,697.75c.94-.52-7.75-3.9-11.45-7-9.19-7.83-18.95-15-27-28.21,1.1,10.67.24,19,3.14,25.62,2.66,6.07-1.76,14.47,9.4,18.82C418.24,712.06,423.17,702.14,431,697.75ZM396.45,897.37c2.55-12.45-9.74-17.85-16.14-25.91-.95-1.19-3.29-1.28-5-1.88a20.93,20.93,0,0,0-.16,4.46c2.57,15,6.18,29.9,7.66,45,2.19,22.36,3.22,44.86,4.12,67.33.6,15.1.11,30.24.11,45.37,1.68-13.66,3.79-27.12,5.67-40.64,1.3-9.35,1-19,1.38-28.39s-1.13-18.9.23-28.26C396.13,922.15,393.9,909.8,396.45,897.37ZM378.84,705.51c3.39-.42,9.58,1.57,8.07-6.56-3-16.35-5.16-32.88-8-49.26-3.15-18-6.11-36.07-10.27-53.85-4.89-20.92-11-41.57-16.54-62.33-.24,11.1-16.91,17.71-9.09,31.43a30.88,30.88,0,0,1,4,9.61c2.69,15.62,4.94,31,2.55,47.26-2.92,19.93-8.8,37.76-22.63,52.54-1.26,1.35-2.68,2.6-1.44,4,11.2,12.63,10.65,28.31,11.64,43.61.11,1.71-.92,3.72,2.64,1.61C352.09,716.23,363.82,707.38,378.84,705.51Zm-.07,382.74c.93-16.47.37-33,.12-49.57-.48-32.81-.05-65.58-3.37-98.41-2-19.84-4.46-39.65-6.78-59.45-.94-8.06-1.93-17.6-6.66-23.4-8.93-10.94-19.34-20.78-27-32.78-5.53-8.66-10.23-17.85-14.94-26.15a51.25,51.25,0,0,1-24.59,12.25c-4.71.85-5.3,2.78-4.38,5.91,4.35,14.92,7.17,30.15,10.33,45.35,5.74,27.59,10.07,55.38,13.39,83.3,3.43,28.74,6.51,57.6,7.76,86.49,1,23.28-3,46.87-1,70,1.88,21.17-1.64,41.89-.48,62.81.07,1.32,1.74,3,3.1,3.73q20.38,10.47,41,20.5c.65.31,8.22,9.85,4.39-2.24a22.63,22.63,0,0,1-.35-9.26C375.67,1148,377.08,1118.07,378.77,1088.25Zm13.53,231.83c-8.68-4-16.76-7.36-24.54-11.34-21-10.75-41.85-21.77-62.77-32.65a13,13,0,0,0-2.54-.71,5.67,5.67,0,0,0,.21,1.67c7.27,16.89,5.87,34.8,6.55,52.54.55,14.24,2.33,28.44,3.55,42.49ZM348.8,492.5c.68-8.26-.44-16.94-9.25-20.85-8.29-3.67-12.15,4.44-17.2,8.53-2.19,1.78-3.5,4.93-4.64,7.7-6,14.44-8.69,28.56-1.5,44,4,8.69,9.43,16.39,13.76,25.17a22.37,22.37,0,0,0,1.4-2.07A166.47,166.47,0,0,0,348.8,492.5ZM337.37,642.35c4.79-22.21,7.28-44.91,1.45-67.5-.77-3-2.86-5.67-4.33-8.5a6.83,6.83,0,0,0-1.4,1.45,162.46,162.46,0,0,0-18.33,70c-.5,6.82,4.31,16.71,6.32,27.14.42,2.18,2,2.74,3,1.13C328.85,658.29,335.54,650.82,337.37,642.35ZM335.73,64H267.81a54.43,54.43,0,0,1,6.25,6.63c5.49,6.9,3.54,14.72.69,22.17-4.45,11.62-4.12,12.14,8.74,12.14C309.72,104.28,328.82,88.86,335.73,64ZM318.35,756c4.66-12.78,14.7-24,10.57-39.11-1.34-4.93,0-12.16-6.33-13.53-9.77-2.11-19.85-3.48-27.36-2.36-11.13.31-19.56.84-28.06,1.73a284.13,284.13,0,0,0-65.82,15.18c-22.25,7.94-43.43,19-64.63,29.64-4.15,2.07-12.82,5.21-9.35,11.69,2.8,5.21,9.9,8.74,15.78,11.57,18.52,8.94,37.06,17.57,57.22,22.91,18.19,4.81,36,10.35,55,11.33,18.75,1,37.14-.39,54.22-8.49,3.51-1.66,10.62-3.73,8.69-10.45C315.34,775.93,314.77,765.77,318.35,756Zm3.94-61.29c-.45-2.58-.56-5.29-1.46-7.7s-1.28-5.88-4.76-5.84c-14.71.13-29.37-.1-44.12,1.64-29.88,3.53-55.66,17.85-85.09,29.72,3.31.24,4.25.61,4.9.32,15.09-6.67,31-10.64,47.07-13.84,9.61-1.92,19.33-3.24,29-4.71a162.1,162.1,0,0,1,46.14,0C316.73,694.6,319.52,694.55,322.29,694.69Zm-9.75,367.22c.19-2.76.4-4.18.38-5.59-.34-31.75-1.21-63.45-5.93-94.94-3.52-23.42-6.33-47-10.19-70.33-3.44-20.8-7.35-41.55-12.3-62-1.09-4.52-.2-12.77-7.06-13.67-10-1.31-20.13-1-30.25-2-27.69-2.74-53.37-12.3-79.37-21l-2.45-.82c.25,1,.17,2.42.82,3,21.17,19,38.54,41.39,55.95,63.51a426,426,0,0,1,40.13,62c11.63,21.66,20.76,44.66,29.37,67.89C300.47,1011.68,306.91,1035.82,312.54,1061.91Zm-5.38-389c3.12.47,4.7-1,3.69-3.84-3.77-10.63-9.22-20.45-17.47-28.16-16.28-15.22-36.11-20.79-56.65-19.84-30.2-.88-54.65,17.56-65.84,45.95C163.44,686,160,706.58,147.72,723.53a5.06,5.06,0,0,0-.4,1.77c.85-.13,1.88,0,2.52-.42,14.92-10.07,29.95-20,46.75-26.69,18.07-7.23,35.8-15.83,54.49-20.77C269.15,672.64,288.13,670.07,307.16,672.94Zm3.28,488.11C326.22,989.83,190.84,787.37,64,734.24v6.1C78.29,753.27,91.86,766.9,105,781c20.56,22,35.05,48,49.6,73.77,9.6,17,16.36,35.66,23.62,54,7.68,19.37,13.38,39.19,18.41,59.11,5.39,21.33,10.67,42.76,13,64.92,2.3,21.72,6.14,43.14,4.83,65.2-.29,4.74-4.93,12,3,15.71,12.26,5.73,24.8,10.79,36.4,18,2.69,1.67,7.74,7.57,10.53,2.76,2.37-4.08,1.16-10.64.53-16-2.4-20.57-5.19-41.08-7.85-61.62-1.58-12.26-1.95-24.83-5-36.71-6.33-24.56-13.07-49.12-21.58-73-7.72-21.67-15.48-43.59-29.12-62.7-6-8.38-11.25-17.29-16.6-26.11-.75-1.24-.13-3.32-.15-5,.89.16,2,0,2.64.52,6.09,5.06,11.65,10.56,16,17.31,18.12,28.1,31.17,58.17,40.38,90.5,5.89,20.68,13.07,41.11,17,62.24,4.54,24.64,7.45,49.6,10.34,74.5,1.5,13,1.53,26.24,2,39.38a5.48,5.48,0,0,0,3.1,5C287.44,1148.94,298.88,1154.93,310.44,1161.05Zm-5.95-521c.27.38,1.52.05,2.32.05-6-7.78,4.7-17.58-3.18-25.32a56,56,0,0,1-8.54-11.06c-14.5-24.06-33.73-44.54-51.24-66.22-14.45-17.89-32-33.4-48.88-49.17-13.63-12.71-28-24.69-42.71-36.17-23-17.91-47.8-33-73.57-46.56-4.86-2.55-9.77-5-14.69-7.44v2.47c7.82,6.74,14.35,14.71,21.54,21.71,18.27,17.77,36.06,36.22,50.69,57.19C150.45,499.89,163.64,521,177,541.94s26.34,42.19,36.56,65c.88,2-.17,7.1,4.7,5.88,11.45-2.86,22.82-3.16,34.23.06a5.1,5.1,0,0,0,1.93-.23,5.25,5.25,0,0,0-.35-2.08q-8.22-12-16.57-23.82c-10.59-15-21.22-30-32.5-46,2.76.93,4.44,1,5.42,1.9,15.27,13.6,26.73,30.36,38.74,46.7,6.79,9.23,10.87,21.31,21.9,26.43C283.94,621.78,296.08,628.16,304.49,640Zm-25.75,754.84c14.33-7.83,19.66-18.56,16-33.64-3.44-14.34-.91-28.71-1.82-43-.16-2.49.19-5-.09-7.48-.4-3.44-3-5-5.6-3.06-6.32,4.68-13.42,7-20.65,9.88-21.72,8.54-44.26,10.88-67.12,11.39-15.25.34-30-3.12-44.39-9.73,2,17.56,4.47,34.76,5.84,52,2.39,30.3,4.11,60.66,6.13,91,.07,1.1.34,2.2.52,3.29a23.35,23.35,0,0,0,3.33-1.51q29.92-19.11,59.78-38.31C246.71,1415.41,262.09,1404,278.74,1394.88Zm16.5-108.33c-.86-2.37.57-4.22-2.58-5.71-18.84-8.92-38.1-11-58.83-8.13-22.63,3.17-45,6.16-64.84,18.43-5.1,3.16-11.17,6.54-11.65,13.27-.32,4.38,4,7.79,8,8.26,8.31,1,15.82,4.55,24.53,5.19a150.6,150.6,0,0,0,33-.86c16.33-2.38,32.92-5.12,48.34-10.65C280.66,1303,291.53,1297.89,295.24,1286.55ZM276.74,1262c-1.15-1.07-2.13-2.47-3.48-3.17-11.42-5.95-23-11.62-34.35-17.65-24.7-13.13-49.17-26.69-74-39.58-22.93-11.9-46.33-22.9-69.27-34.8-10.62-5.51-21.14-11.23-31.64-17v99.56q8.91,4.82,17.79,9.68c13.6,7.48,27.07,15.18,40.62,22.74,8.45,4.71,18.15,7.31,24.93,14.83a83,83,0,0,1,6.37-6.86c14.62-12.62,32.23-18.67,50.69-22.83a205.65,205.65,0,0,1,42.71-5.22c8.37-.1,16.75.84,25.14,1.17A19.49,19.49,0,0,0,276.74,1262ZM250.92,109.45c7-7.78,16-16,15.29-27.58-.6-9.58-8.26-15.66-20.46-17.87H227.14c-10.87,2.68-21.91,10.84-25.84,20.47-5.64,13.86-3.49,29.27,12.8,36.8C230.11,128.68,241.37,120,250.92,109.45ZM206.43,1096.9c1.11-14.16-1.56-28.17-2.78-42.26-1.05-12-2.56-23.88-4.76-35.67-4.19-22.45-9.2-44.67-15.19-66.78-6.7-24.77-16.53-48.05-26.23-71.6C150,862.38,139.53,846,129.9,829c-17-30-40.82-54.27-65.9-77.45V1033c8.52,4.56,17,9.16,25.6,13.63,21.32,11.14,42.8,22,64.17,33,15.88,8.22,31.48,17,47.6,24.69C211.77,1109.3,206.32,1098.3,206.43,1096.9ZM205.18,64.82l1.06-.82H64v36.14a75.13,75.13,0,0,0,9.28,3.58c15.8,4.88,32,5.43,48.05-.68,4.89-1.86,6.33-12.78,14.24-6a37.13,37.13,0,0,1,9.32,12.06c9.62,20.62,41.14,33.34,59.84,24,4-2,2.51-4.06.6-5.47C180,108.83,184.84,81.3,205.18,64.82ZM194.82,622.7c20.37-8.09,7-19.41,2.1-27.94-16.8-29.47-34-58.79-52.7-87.05-13.79-20.84-28.87-41.16-45.78-59.5-11-11.94-22.16-23.95-34.44-34.69v312l1,.42c16.91,7.26,33.12,15.75,48.13,26.47,2.49,1.78,3.51-.62,4.7-2.08,15.28-18.85,27.71-39.68,34.51-62.78,5.87-19.92,13.35-38.41,27.22-53.81A42.68,42.68,0,0,1,194.82,622.7ZM155.36,1473c2.41,0,3.86-.39,3.59-3.22-.73-7.64-1.31-15.29-2.08-22.92-.3-3-2.85-1.66-4.35-1.68-28.44-.37-56.9-.12-85.31-1.16l-3.21-.11V1473q33,0,66,0C138.47,1472.94,146.92,1472.85,155.36,1473Zm.41-38c-1.54.82,1.64,3.64,1.14-.83-.93-8.14-1.7-16.34-1.83-24.52-.07-4.23-1.62-4.89-5.26-4.76-23,.84-45.95,1.12-68.88,2.47-7.33.44-14.16,3.35-14,13.47.16,12.09,10.31,13.31,17.18,13.69C107,1435.72,130,1434.93,155.77,1434.93Zm-2.84-56.86a6.74,6.74,0,0,0-.1-2.47c-1.06-2.48-2.29-7-3.48-7-27.12-.15-54.28-.64-81.33.9-1.32.08-2.67.18-4,.32v36.29a20.78,20.78,0,0,1,4.47-2.87c18.9-9,39.22-7.45,59.11-5.25C148.66,1400.34,153.09,1397.59,152.93,1378.07Zm-4.36-21c1.21-6.25,3.59-12.82-4.63-18.26-25.16-16.68-53.06-7.2-79.64-9.78l-.3,0v31.68a406.9,406.9,0,0,1,51.93-3.24c7.73.07,15.76,1.07,23.66,1.17C142.67,1358.7,147.79,1361.18,148.57,1357.11Zm-1.43-36.95c4.71-16.51-7.52-21-18.53-26.77C107,1282.1,85.52,1270.59,64,1259.13v21.73c9.36,5.23,18.7,10.47,28.2,15.39,16.58,8.6,33.17,17.21,49.53,26.24,1.59.87,3.68.86,5.53,1.26C147.21,1322.55,146.83,1321.26,147.14,1320.16ZM123,1495.64c6.77-4.32,13.41-8.85,22.7-15-11.07.5-19.16.3-27.08,1.35-10.84,1.44-21.44-1.34-32.4-.36a188.58,188.58,0,0,1-22.19.46v32.4a253,253,0,0,0,31.2-2.28C105.05,1510.77,113.8,1501.49,123,1495.64ZM64,1321c15.39,0,31.24-.57,48.21.42-17.62-9.17-32.35-16.53-46.79-24.41l-1.42-.78Zm13,205.13c.76-.45,1.17-1.47,1.74-2.23a13.74,13.74,0,0,0-3.08-.72l-11.63,0v10.53l1.08-.69C68.93,1530.52,73.05,1528.48,77,1526.13Zm-21,92.21V61.66l-48-48V1666.34Z"/></svg>