<svg id="Card" xmlns="http://www.w3.org/2000/svg" viewBox="0 0 1024 1680"><defs><style>.cls-1{fill:#f2f0ed;}.cls-2{fill:#8c1707;}.cls-3{fill:#16592d;}.cls-4{fill:#38408c;}.cls-5{fill:#f79d31;}</style></defs><rect class="cls-1" x="14.5" y="14.5" width="995" height="1651"/><polygon class="cls-2" points="966 1619.17 966 60.83 1018 8.83 1018 1671.17 966 1619.17"/><polygon class="cls-2" points="60.83 58 8.83 6 1015.17 6 963.17 58 60.83 58"/><polygon class="cls-2" points="8.83 1674 60.83 1622 963.17 1622 1015.17 1674 8.83 1674"/><path class="cls-3" d="M722,1618l.28-2.24a146.19,146.19,0,0,1,3.32-19.23c2.48-9.61,5.34-19.28,8.1-28.62,2.51-8.46,5.08-17.17,7.37-25.81,7.78-29.45,16.91-54.23,27.9-75.75,1.57-3.08,3.1-6.17,4.63-9.27,6.18-12.5,12.58-25.43,21.52-37,6.22-8.06,11.48-17.15,16.57-25.93,3.78-6.52,7.68-13.25,12-19.59,9.93-14.68,21-29.64,33.82-45.74,7.69-9.67,15.93-19.13,23.9-28.29,4-4.62,8.14-9.35,12.14-14l.52-.59a5.51,5.51,0,0,0,1.08-1.43h0a2.58,2.58,0,0,0-.5-.51,2.09,2.09,0,0,0-.42-.12c-3.6,3.71-7.33,7.45-10.95,11.06-9.47,9.48-19.22,19.23-27.71,29.66-15.68,19.27-30.15,40-42.24,57.76-13,19-24.86,37.91-35.38,56.22-6.9,12-15.61,28-21.84,45.74-1.68,4.77-3.64,9.53-5.54,14.14a203.44,203.44,0,0,0-7.59,20.49c-1.56,5.39-3,10.93-4.46,16.3-2.75,10.37-5.6,21.08-9.23,31.19-3.91,10.88-5.68,22.06-7.39,32.87-1,6-1.85,11.64-3.08,17.17l-.35,1.57H659.08l.23-2.21c2.21-21.38,8.85-41.93,15.27-61.8l1.27-3.91c7.07-21.93,17.14-50.59,32.38-77.92a722.8,722.8,0,0,1,41.17-65.59c12.75-18.07,27.75-36.69,47.19-58.61,21.32-24,42.7-44.22,65.36-61.76,18-14,34.72-25.94,50.95-36.56,13.15-8.59,27-16.53,40.36-24.21l8.74-5v11.32l-.61.59a216.94,216.94,0,0,0-16.4,18.49l-3.8,4.61c-11.77,14.14-22.84,29.3-33.55,44-4.15,5.68-8.43,11.54-12.74,17.32l-1.75,2.36c-11.48,15.39-23.36,31.31-32.51,48.5-11.37,21.34-24.7,46.68-37.42,72.78a340,340,0,0,0-18.1,43.7c-3.53,10.89-6,22.38-8.38,33.49l0,.13c-.84,3.92-1.71,8-2.62,11.94l-.63,2.77c-6.17,27.11-12.56,55.15-12.09,83.58l0,2Z"/><path class="cls-3" d="M618.4,1618l.69-3.86c.51-2.89,1-5.78,1.46-8.68,1-5.86,1.94-11.89,3.25-17.76,4-18.13,7.66-33.23,11.41-47.53,4-15.32,8-30.3,12.92-45.12,2.26-6.8,5-13.52,7.7-20,2.5-6.08,5.09-12.35,7.23-18.63a554.08,554.08,0,0,1,30.11-71c2.68-5.31,5.6-10.6,8.41-15.73,5.43-9.86,11-20,15.16-30.54,7.65-19.45,17.75-37.86,27.52-55.66l.3-.55c3.2-5.84,6.61-11.69,9.9-17.34,6.78-11.63,13.75-23.59,19.57-36.48-9.24,11.94-16.65,24.68-22.25,34.85q-4,7.32-8.11,14.61l-.17.3c-7.63,13.71-15.49,27.82-22.73,41.93-4.55,8.87-8.94,18-13.19,26.87-5.56,11.6-11.29,23.55-17.49,35.09-7.57,14.09-13.67,29.34-19.57,44.1q-1.9,4.77-3.83,9.53c-6.92,17.1-14.77,36.48-21.12,55.79-4.81,14.6-8.88,29.76-12.81,44.42-1.29,4.79-2.57,9.58-3.88,14.35-4.24,15.43-7.14,30.81-9.19,42.49-1.18,6.73-2.56,14.71-3.84,22.89l-.27,1.69H565.81l1.23-4.51c1.78-6.65,3.23-13.59,4.63-20.29,2.86-13.65,5.81-27.76,11.66-40.41,4.09-8.83,7-18.22,9.85-27.29,3.23-10.38,6.58-21.11,11.69-31.17,5-9.82,8.79-20.51,12.47-30.85,2.5-7,5.09-14.29,8-21.28,7.2-17.07,15.89-37.11,25.74-56.3,9.08-17.69,19-35.27,28.7-52.26l.24-.43q3.66-6.43,7.29-12.86l2.41-4.28c6-10.61,12.12-21.55,19-31.81,3.26-4.88,6.62-9.81,9.87-14.57,7.42-10.89,15.1-22.15,22.08-33.44,7.79-12.62,16.91-24.4,25.74-35.79,5.59-7.21,11.33-14.63,16.66-22.16,8.8-12.43,19.84-23.47,30.52-34.15,4.18-4.18,8.5-8.49,12.63-12.85,13.21-13.92,27.45-28.69,43.51-45.15,24.49-25.1,47.08-45.68,69.07-62.91,6.55-5.15,13.29-10.27,19.8-15.22l3.36-2.55V1017l-.48.56q-1.93,2.25-3.88,4.48l-.11.13c-5.82,6.69-11.77,13.43-17.52,19.94-13.13,14.87-26.7,30.24-39.45,45.82-14.27,17.41-28.86,36.73-44.6,59.07-11.91,16.93-24.39,35.24-35,54.46-11.13,20.29-21.28,41.57-31.09,62.15l-.23.49q-3,6.3-6,12.61c-9.17,19.11-20.74,44.53-28.89,71.65l-1.89,6.27c-5.21,17.25-10.58,35.08-15.06,52.92-3.67,14.64-12.3,27.31-20.65,39.56-5,7.37-10.22,15-14.27,23-6.15,12.09-11.82,24.71-17.31,36.9l-2.21,4.91c-5.35,11.89-9,24.85-12.56,37.38-2.08,7.36-4.23,15-6.7,22.3-4.25,12.63-7.26,26.41-9.77,44.67l-.24,1.73Z"/><path class="cls-3" d="M548.17,1618l.35-2.3c1.72-11.26,3.15-20.73,4.54-30.33.94-6.43,1.79-13,2.61-19.27,1.63-12.48,3.31-25.36,5.68-37.93,1.63-8.63,3.83-17.26,5.95-25.61,2.84-11.19,5.77-22.74,7.34-34.23,1.62-11.91,4.88-23.43,8-34.57,1.76-6.21,3.57-12.64,5.07-19,3.15-13.4,7.48-26.71,11.67-39.58l0-.12c1.91-5.88,3.89-12,5.72-17.94s3.62-12.16,5.34-18.11c3.59-12.37,7.3-25.16,11.73-37.51,3.95-11,8.45-22,12.81-32.67,4.77-11.65,9.7-23.69,13.89-35.73,11.9-34.12,28.46-66.61,44.47-98L695,1132c8.54-16.77,18.15-33.34,27.45-49.35,1.43-2.48,2.84-4.9,4.24-7.32A1034.08,1034.08,0,0,1,785.12,985c6.73-9.25,13.18-19,19.41-28.39,7.67-11.58,15.58-23.51,24.11-34.72,17-22.3,35.34-44.53,56.17-67.94,13.4-15.07,27.73-29.75,41.59-43.94,5.7-5.85,11.59-11.87,17.4-17.92,4.27-4.45,9.14-9.09,14.87-14.18L962,775v24.84l-.28.47c-1.62,2.71-3.21,5.47-4.75,8.13-2.62,4.57-5.34,9.28-8.24,13.8-6.69,10.44-13.06,21.35-19.23,31.9l-.1.16q-4.1,7-8.22,14l-9.84,16.52Q900,903.85,888.6,923c-10.67,17.94-20,35.11-28.6,52.49-4.44,9-9.76,17.73-14.91,26.16-5.6,9.17-11.4,18.66-16,28.46-6.13,13.07-11.55,26.76-16.8,40-5,12.76-10.27,25.93-16.13,38.58-7.9,17.07-15.25,33.79-18.37,50.64-3.72,20-13.85,34.86-24.59,50.56-1.17,1.71-2.35,3.43-3.51,5.16-4.78,7.08-10,14-15,20.68-6.77,9-13.75,18.35-19.72,28-6.89,11.2-13.61,22.84-20.1,34.11q-3.81,6.62-7.63,13.2c-5,8.54-9.74,17-14.79,26l-.07.11c-4.45,7.9-9,16.06-14,24.61l-.64,1.11-3.31-1.27.26-1.25c.27-1.29.46-2.29.62-3.12a20.71,20.71,0,0,1,.82-3.45l2.66-7.27c8.61-23.57,17.5-47.88,26.32-71.75q1.68-4.56,3.34-9.11l.16-.42c4.25-11.67,8.65-23.71,13.52-35.36,9-21.44,18.71-43,27.12-61.48,4.07-9,8-18.12,11.76-27,7.25-17,14.75-34.59,23.62-51.27,9.69-18.19,18.86-37.41,26.94-54.37,2-4.31,3.84-8.84,5.56-13.22,3.12-7.91,6.34-16.09,11.16-23.14a187.66,187.66,0,0,0,11.51-20c-.09.12-.19.23-.28.34a51,51,0,0,0-3.88,5c-9.21,14.32-16.69,29.92-23.92,45-6.42,13.39-13.06,27.23-20.92,40.22a178.68,178.68,0,0,0-9.74,19.66,186.58,186.58,0,0,1-9.72,19.71c-5.43,9.06-9.37,19-13.18,28.66-3.35,8.45-6.79,17.16-11.24,25.34-3.3,6.08-5.74,12.84-8.09,19.38-1.55,4.31-3.16,8.77-5,13.06-3.13,7.23-6.48,14.49-9.72,21.5-5.19,11.26-10.56,22.9-15.12,34.6-6.07,15.6-11.59,31.73-16.92,47.34-2.67,7.81-5.43,15.87-8.22,23.78-1.6,4.52-3.44,9-5.22,13.43-3.66,9-7.44,18.36-9.21,27.79a175.12,175.12,0,0,1-16.18,48.43c-8.77,17-16.27,35.69-22.29,50.7-5.23,13-10,26.46-14.55,39.48l-.06.16q-1.68,4.79-3.38,9.56l-1.64,4.61c-4.24,11.93-8.63,24.26-12.42,36.53-5.88,19.06-10.3,34.71-13.9,49.24-1,4.16-1.93,8.55-2.79,13.43l-.29,1.65Z"/><path class="cls-3" d="M730.24,657c-1.53-.85-2.92-1.66-4.24-2.42-2.68-1.55-5-2.89-7.39-4-11-5.24-7-14-4.63-19.32,2.21-4.9,4.54-9.84,6.8-14.62,5.76-12.17,11.67-24.67,16-37.42,8.36-24.5,21.12-47,33.46-68.79,4.17-7.35,8.45-14.91,12.5-22.42l0-.05c-16.57,23.51-30.94,49.49-43.93,79.4-11,25.28-20,46.57-28.33,68.26-1.08,2.8-2.94,6.52-6.61,6.52-2.09,0-3.91-1.28-5.52-2.42a9,9,0,0,0-2.74-1.55,71.47,71.47,0,0,1-9.35-2.55,67.79,67.79,0,0,0-9.18-2.47c-2.89-.48-4.86-1.69-5.84-3.61s-.82-4.34.43-6.85Q675.85,614.3,680,606c14.79-29.87,30.07-60.73,45.92-90.66,7.9-14.89,17.19-29.31,26.18-43.25,2.16-3.36,4.33-6.72,6.47-10.09l4.06-6.36c11.91-18.7,24.22-38,37.19-56.49,9.39-13.37,20.78-28.87,34.14-42.49C840,350.44,846,344,851.78,337.71c4.38-4.74,8.86-9.59,13.35-14.28a206.7,206.7,0,0,1,17.18-15.49c4-3.38,8.21-6.87,12.09-10.5,5.08-4.75,10.09-9.77,14.93-14.63,6.39-6.4,13-13,19.88-19.15,2-1.78,4-3.57,6-5.37,7.6-6.8,15.44-13.82,23.51-20.36l3.26-2.65v20.29l-.51.57C909,314.85,863.34,377.73,825.78,443.05a1051.22,1051.22,0,0,0-92.65,212.76l-.73,2.36Z"/><path class="cls-4" d="M778.11,806.93a12.54,12.54,0,0,1-4-.57,48.75,48.75,0,0,0-15.67-2.07c-1.93,0-3.95,0-5.73.09s-3.88.09-5.79.09c-1.07,0-2.15,0-3.22-.05-4.07-.14-8.54-.21-13.66-.21-4.8,0-9.78.06-14.18.11s-9.41.12-14.24.12c-16.56,0-34.39-.62-52.49-5.11-18.76-4.65-35.27-14.15-53.53-30.81-12.86-11.73-14.82-42.73-3.61-57.2a7.09,7.09,0,0,1,6-2.67,27.68,27.68,0,0,1,2.89.2,26.54,26.54,0,0,0,2.79.2,7.87,7.87,0,0,0,2.35-.31l.4-.12.41,0c25,2.84,57.79,7.82,89.52,21.34,18.28,7.78,34.67,18.51,48.29,28s25,21.85,35.26,33.73a7.32,7.32,0,0,0,1.54,1.13,7.1,7.1,0,0,1,3,2.86,23.83,23.83,0,0,1,1.62,6c.14.81.28,1.6.45,2.37l.54,2.42-2.48,0c-1,0-2,.09-3,.18S779.27,806.93,778.11,806.93Z"/><path class="cls-4" d="M784.39,781c-25.25-35.43-51.88-58.4-83.8-72.28A253.47,253.47,0,0,0,625,688.48a15.54,15.54,0,0,0-1.57-.08,37.57,37.57,0,0,0-5.35.53,37.27,37.27,0,0,1-5.49.55,12.64,12.64,0,0,1-5.36-1.07,6.71,6.71,0,0,1-3.78-3.82c-1.1-3.12.59-6.53,1.82-9,.33-.65.63-1.26.8-1.71,8-20.69,22.75-31.94,46.56-35.42a72.45,72.45,0,0,1,10.33-.76c18.7,0,33.7,7.31,51.36,16.87,37,20,53.22,54.93,64.2,86.45,2.67,7.66,4.37,15.48,6.34,24.52,1,4.41,1.94,8.94,3.12,13.83l.29,1.2L785.11,782Z"/><path class="cls-5" d="M757.36,762.15c-20.12-15.2-47.52-33.91-81.08-43.84-17.32-5.12-35.24-8.2-52.57-11.17q-6-1-12-2.09a14.41,14.41,0,0,0-2.58-.26,5.83,5.83,0,0,0-1.85.25c-.61.19-1.24.46-1.84.71a13,13,0,0,1-4.94,1.3,6.83,6.83,0,0,1-4-1.3c-2.54-1.74,1.25-7.42,1.29-7.48,3-4.49,7.25-7.07,11.53-7.07a7.87,7.87,0,0,1,.84,0c11.18.86,22.11,1.82,32.91,4a263.91,263.91,0,0,1,71.25,25.22c16.18,8.54,30.83,20,44.78,35.11,1.76,1.9,2.17,3.61,1.37,5.71l-1,2.48Z"/><path class="cls-3" d="M588.67,1376.44l.11-1.94q.5-8.91,1-17.82v-.13c.75-14,1.53-28.37,2.42-42.54.37-5.77.88-11.63,1.38-17.29.54-6.09,1.09-12.39,1.45-18.59.55-9.2,1-18.58,1.38-27.64.72-15.83,1.47-32.2,2.86-48.25,2.17-25.23,3.67-50.91,5.13-75.75l0-.91q.45-7.59.89-15.17c1.62-27.08,5.09-53.76,7.94-74,3.19-22.62,7.3-49.25,13.57-75.2,2.54-10.57,4.31-21.55,6-32.17,1.3-8.1,2.65-16.46,4.33-24.62,3.44-16.64,7.23-33.48,10.9-49.77,2.33-10.33,4.71-20.92,7-31.5,1.87-8.57,11-15.55,20.32-15.55a17.16,17.16,0,0,1,8.9,2.4c2.82,1.67,1.94,7.1.16,15.84l-.35,1.73c-1.88,9.49-3.94,19.1-5.93,28.4-1.77,8.27-3.58,16.73-5.26,25.07l-.3,1.48c-3.32,16.41-6.75,33.38-9.51,50.15-2.54,15.46-4.43,31.39-6.15,46.4q-.74,6.38-1.52,12.75c-1.89,15.7-3.84,31.86-4.47,47.78-.36,9.15-1,19.37-2.1,32.15-1.77,21.13-3.18,38.89-4.29,56.91-.6,9.61-1.59,19.33-2.54,28.73-.7,6.91-1.42,14.06-2,21.13-.27,3.39-.57,6.78-.87,10.18-1.07,12.18-2.17,24.78-2,37.09.28,20.18-5.88,38-12.58,54.13a326.09,326.09,0,0,0-16,49.34,246.63,246.63,0,0,1-8.34,26.16c-1.45,4-2.94,8.18-4.31,12.31-.53,1.61-.91,3.34-1.29,5-.18.81-.36,1.63-.56,2.43l-.4,1.67Z"/><path class="cls-3" d="M522.27,1618l.53-3.57c.44-2.89.89-5.87,1.21-8.77q.72-6.5,1.4-13l0-.13c1.51-14.2,3.08-28.87,5.12-43.26,3.05-21.37,4.21-43.41,5.34-64.72.34-6.42.69-13.06,1.09-19.6.43-7.09.54-14.33.64-21.33s.21-14.15.62-21.2c1.47-24.69,3.17-49.77,4.82-74v-.18q1-14.78,2-29.55c.24-3.51.42-7.09.59-10.56V1308c.38-7.6.78-15.45,1.76-23.15,1.32-10.44,2.91-21,4.46-31.21,2.66-17.59,5.41-35.77,6.81-53.74.9-11.69,2.32-23.48,3.69-34.89,1.77-14.78,3.61-30.06,4.33-45.13.89-18.16,2.89-36.46,4.83-54.15,1.28-11.64,2.6-23.68,3.59-35.58.92-11.18,2.14-24.42,4.15-37.77,1.34-8.86,2.92-17.83,4.45-26.5,2.65-15,5.38-30.57,6.94-45.92,1.66-16.36,8.22-30.27,14.24-42a134.11,134.11,0,0,0,12.25-37.11c2-10.65,1.39-21.88-1.85-34.33-.68-2.64-.19-5.38.29-8,.2-1.09.4-2.21.5-3.24l.26-2.78,2.55,1.15,2.39,1.09c1.74.81,3.54,1.64,5.33,2.35,1.15.46,2.44.83,3.7,1.19,2.8.81,5.69,1.63,7.86,3.58,1.28,1.16,3.76,1.4,6.15,1.63,3.26.32,6.95.68,9.09,3.44,1.5,2,1.94,4.7,1.34,8.41A70.36,70.36,0,0,1,651.88,826c-.82,2.5-1.66,5.08-2.25,7.61-4.69,20.15-8.88,38.32-12.66,56.55-1.73,8.3-3.23,16.81-4.69,25.05-1.21,6.85-2.47,13.95-3.85,20.92-1.51,7.62-3.16,15.34-4.76,22.8l0,.15c-2.29,10.67-4.65,21.68-6.62,32.56-2.92,16.11-5.39,32.74-7.33,49.44-3.08,26.52-6.28,54.76-8.55,83-1.06,13.11-1.63,26.49-2.19,39.43l-1.5.06,1.5.06c-.45,10.4-.91,21.15-1.62,31.71-1.28,18.93-2.74,38.12-4.16,56.68s-2.89,37.74-4.15,56.62c-.78,11.58-1.15,23.39-1.51,34.82-.18,5.94-.38,12-.62,18.07l-.06,1.51c-.19,4.59-.38,9.34-1,14-.65,5.34-1,10.81-1.29,16.1-.68,11.35-1.38,23.07-5.29,34.6-2.71,8-4.53,16.71-6.29,25.1-1,5-2.14,10.26-3.42,15.28-7,27.47-11.66,55-16.63,85.45-1.07,6.65-1.9,13.46-2.71,20-.53,4.39-1.09,8.94-1.72,13.45-.65,4.68-1.52,9.39-2.36,14-.93,5-1.88,10.18-2.54,15.27l-.22,1.75Z"/><path class="cls-4" d="M519.6,970.06c0-.17-.09-.35-.14-.53a4.46,4.46,0,0,1-.18-2.73c5.5-17.33,6.56-35.15,7.3-55,.86-23.21,1.94-52.09-3.06-79.62-3.37-18.57-8.52-33.35-16.22-46.53l-.07-.13a5.07,5.07,0,0,0-.66-1c-2.22-2.08-4.45-4.12-6.69-6.17l-3.83-3.51,2.63-1.29c1.7-.85,3.43-1.77,5.1-2.67a80.16,80.16,0,0,1,12-5.58,77,77,0,0,1,24.74-4,89.45,89.45,0,0,1,19.51,2.2c7.61,1.71,17.44,4.31,25.91,9.35a46.53,46.53,0,0,1,19.32,21.72c3.16,7.09,4.38,14.14,5.45,20.35a80.22,80.22,0,0,0,1.86,8.91l.05.19,0,.26c.57,21.59-7,37.75-14.3,53.38l-.14.3c-.77,1.65-1.55,3.31-2.31,5-8.56,18.61-20.73,36-39.49,56.32-7,7.57-14.57,14.76-21.92,21.72l-.07.07c-3,2.82-6.06,5.74-9,8.64a8,8,0,0,1-2.11,1.34c-.27.13-.49.23-.69.35l-2.45,1.39Z"/><path class="cls-5" d="M589.8,697c-3.56,0-5.38-3.36-6.83-6.07a18.57,18.57,0,0,0-1.56-2.56c-22.72-27.63-19.58-60.08-16.53-91.46l.43-4.39,3,3.21c26.6,28.23,30.22,60.61,30.4,85.67,0,4.48-1.39,12-5.41,14.5A6.79,6.79,0,0,1,589.8,697Z"/><path class="cls-5" d="M580.55,764.87c-6.78-3.62-14.18-5.43-21.34-7.18-2-.47-4.14-1-6.27-1.58-6.05-1.6-7.62-17.37-7.63-17.53-1.8-20.34,2.34-41.15,12.31-61.86a10.27,10.27,0,0,1,3.7-3.68,17.49,17.49,0,0,0,1.49-1.1l2-1.73,1.09,2.43c.19.41.35.83.52,1.26a9.26,9.26,0,0,0,.94,2c1.74,2.37,3.3,4.91,4.81,7.37,3.94,6.41,8,13,15.48,16.51a3.31,3.31,0,0,1,1.84,2c.59,1.84-.52,3.8-1.59,5.7a15.89,15.89,0,0,0-1.08,2.14c-1.9,5.45-3.48,9.38-4.74,12.54-4.69,11.71-4.69,11.71.94,38.63l1.27,6.1Z"/><path class="cls-4" d="M558.53,589a19.62,19.62,0,0,1-3.06-.33c-.51-.09-.94-.16-1.32-.2a22.8,22.8,0,0,1-7.65-2.06c-2.81-1.39-5.76-2.71-8.61-4-12.36-5.54-25.12-11.27-32.5-24.7-.65-1.18-1.33-2.34-2-3.51-3.77-6.45-7.64-13-6.16-21.63-1.82-12.26,3.18-17.06,7.72-18.92a15.67,15.67,0,0,1,5.95-1.24c7.2,0,12.27,5.41,16.74,10.18.67.73,1.34,1.43,2,2.1,15,15.36,26.15,34.6,33.07,57.19.74,2.42.64,4.21-.3,5.48A4.5,4.5,0,0,1,558.53,589Z"/><path class="cls-5" d="M515.33,945.39c-.19-.49-.46-1-.71-1.55a11.1,11.1,0,0,1-1.45-4.62c-.06-4.68,0-9.42.12-14a227.64,227.64,0,0,0-.42-25.2c-.4-4.32-.76-8.64-1.13-13-2.13-25-4.33-50.94-12.08-75.57-.7-2.23-1.35-4.47-2-6.65-2-6.93-4.08-14.1-7.77-20.43a3.67,3.67,0,0,1,1.26-5.42,2.24,2.24,0,0,0,.36-.26,3.23,3.23,0,0,1,2.57-1.62,3.13,3.13,0,0,1,2.7,2.12c.05.1.1.2.15.28,9.07,10.21,15.37,23,19.83,40.12,1.45,5.58,2.51,11.32,3.53,16.87.47,2.56.94,5.11,1.45,7.66l0,.12c2.72,23.91,1.81,47.65.56,67.72-.25,4.11-.41,8.31-.56,12.38l-1.51.07,1.5.06c-.21,5.77-.43,11.75-.93,17.63a5.48,5.48,0,0,1-1.47,3c-.19.24-.37.45-.51.67l-2.12,3.3Z"/><path class="cls-4" d="M507.34,978.46l-.52-.25a8.23,8.23,0,0,1-1.86-1.07q-8.86-7.35-17.67-14.73l-.42-.36c-12.28-10.26-25-20.88-37.63-31.12-20.44-16.52-37.7-37.69-54.33-66.62-4-6.94-6.41-14.08-8.54-20.37-1.17-3.45-2.18-6.42-3.26-8.8L383,835l-.05-.21c-4.93-23.15,1.39-39.29,8.28-53.84,5.21-11,26.64-22.61,41.7-22.61.88,0,1.75,0,2.57.13l3.67.36.62.06c7.8.76,15.86,1.54,24,3.59,15.54,3.93,20.09,16.06,24.1,26.77.79,2.09,1.6,4.25,2.47,6.29,7.88,18.49,11.22,38.46,14.21,59A172.7,172.7,0,0,1,506,871.86a151.56,151.56,0,0,0,1.64,18.93c1.61,9.28,1.44,18.66,1.28,27.73-.16,9.22-.33,18.75,1.41,28,1.22,6.53,1,13.33.78,19.91-.09,2.82-.18,5.73-.16,8.56a4.58,4.58,0,0,1-.59,2.07l-.18.37-.81,2.08Z"/><path class="cls-4" d="M459.87,700c-.44-.82-1-1.68-1.53-2.5-1.34-2.06-2.72-4.18-3.1-6.66a187.47,187.47,0,0,1-.36-52.73c2.34-18.77,16-35.5,32.55-39.77a16.49,16.49,0,0,1,4.11-.53,13.81,13.81,0,0,1,10,4.1,11.31,11.31,0,0,1,3.08,8.45c-.11,19.62-9.43,35.63-18.44,51.12-2.7,4.64-5.49,9.42-8,14.21-4,7.79-8.21,15.26-11.76,21.54a8.4,8.4,0,0,1-2.61,2.6c-.33.24-.66.48-.95.73l-1.89,1.64Z"/><path class="cls-5" d="M490,774.82c-2.08,0-3.33-1.83-4.44-3.44a8.16,8.16,0,0,0-1.71-2c-14.07-5.41-11.84-15.58-10-23.74,1-4.68,2.09-9.51.34-13.27-.76-1.63-1.45-3.35-2.13-5a47.83,47.83,0,0,0-4.87-9.88c-6-8.45-.94-13.84,2.76-17.77a21.87,21.87,0,0,0,3.52-4.38,2.91,2.91,0,0,1,2.6-1.65c2,0,3.72,2,5.92,4.7.36.45.65.81.9,1.1,15.36,17.9,23.57,36.91,25.84,59.81l0,.17,0,.22c-.66,5.28-5.19,7.65-9.58,9.93a29.89,29.89,0,0,0-6.53,4.14A3.74,3.74,0,0,1,490,774.82Z"/><path class="cls-3" d="M439.84,1618l.19-2.17c.37-4.4.8-8.79,1.22-13.18v-.15c.58-6,1.18-12.29,1.65-18.43.41-5.54.95-11.17,1.46-16.61,1.35-14.17,2.74-28.79,2.16-43-1.13-27.44-2-50.33-1.54-74.22q.35-19,.66-38v-.81c.43-25.39.87-51.65,1.46-77.6.16-6.83-.18-13.79-.5-20.52a243.76,243.76,0,0,1-.35-25.41c1-18.65-.95-37.86-2.88-56.43-.2-2-.41-4-.61-6-.39-3.85-.64-7.75-.88-11.52-.28-4.52-.58-9.16-1.12-13.64-.92-7.65-1.73-15.39-2.52-22.88-1.74-16.55-3.53-33.67-6.61-50.34-3.95-21.5-6.23-43.59-8.43-65-2.29-22.37-7.46-44.58-12.46-66.05-1.26-5.4-2.51-10.77-3.72-16.15-4.93-22-12.24-43.65-19.31-64.62-2.73-8.1-5.53-16.4-8.15-24.6a29.38,29.38,0,0,0-2-4.21c-1.94-3.68-4.36-8.27-2.71-12.63,1.16-3.07,4.05-5.44,8.85-7.27a6.44,6.44,0,0,0,2.64-1.66,2.32,2.32,0,0,1,4.11.85c8.92,19.73,23.26,36.66,35.91,51.6a40.06,40.06,0,0,0,4.14,4c3.42,3,7.29,6.36,8.58,12.33,3.19,14.89,6.76,30.38,10.61,46,4.61,18.73,8.58,37.88,12.41,56.39q1.29,6.18,2.57,12.34c3.59,17.15,6.33,34.77,9,51.8l0,.19c.53,3.38,1,6.75,1.58,10.13,1.19,7.52,2.45,15.15,3.67,22.54,3.61,21.83,7.34,44.4,9.56,66.77,1,10.55,2.41,21.22,3.73,31.53,1.42,11.12,2.89,22.57,4,33.88l.58,6.15c1.28,13.4,2.6,27.25,3.51,40.79,1.36,20.39,1.09,41.19.82,61.31-.1,8.21-.21,16.7-.21,25.08q0,10.85.05,21.68c0,19,.11,38.59-.13,57.87-.11,9-.52,18.21-.92,27.08-.37,8.26-.75,16.71-.89,25a445.09,445.09,0,0,1-3,47.64c-1.33,10.65-3.22,24.65-6,38.5l-.32,1.61Z"/><path class="cls-5" d="M464.78,758.39c-2.34,0-4.86-1-7.3-1.94l-1.07-.41c-11.71-4.46-8.62-12.77-6.37-18.83a27.27,27.27,0,0,0,1.7-5.75c.53-4.46,2.86-8.53,5.12-12.46.93-1.61,1.87-3.27,2.64-4.86l1.47-3.07,2,2.79c7,9.89,7.62,20.18,8.28,31.07l.12,2c.29,4.77-.38,7.85-2.12,9.71A5.9,5.9,0,0,1,464.78,758.39Z"/><path class="cls-3" d="M376.71,1618l.41-2.34c3-17.48,4.4-35.52,5.75-53l.06-.74c1.82-23.4,2.85-47.26,3.85-70.33l.23-5.33c.42-9.48.65-19.11.87-28.43.45-18.76.91-38.15,2.9-57.24,1-9.67.75-19.7.5-29.4-.11-4.46-.23-9.06-.23-13.58,0-7,.07-14.19.15-21.11v-.14c.16-15.6.33-31.72-.34-47.53-1-23.94-3.07-48.26-5.06-71.77l-.82-9.76c-1.59-19-3.43-39.24-6.08-59.17-2.16-16.26-5-32.72-7.67-48.64l-.14-.8q-1-6-2-12c-.77-4.58-1.51-9.17-2.26-13.75-2.39-14.69-4.86-29.85-7.95-44.61-3-14.28-6.41-28.72-9.73-42.69-2.63-11.13-5.34-22.55-7.82-33.83-4.8-21.82-12.12-42.95-19.19-63.39-.06-.16-.19-.41-.31-.64-.47-.91-1.18-2.26-.38-3.65s2.73-1.57,3.36-1.6a142.49,142.49,0,0,0,32-4.75,24.69,24.69,0,0,0,2.57-1c2.12-.89,4.53-1.9,6.86-1.9a6.06,6.06,0,0,1,5.79,3.79,160.56,160.56,0,0,1,6.47,17.39c1.22,3.67,2.46,7.47,3.87,11.15a131.57,131.57,0,0,1,5.21,19.41c1.47,6.83,3,13.89,5.62,20.27,7.16,17.33,10.86,35.67,14.44,53.41,2,9.87,4.06,20.07,6.68,29.92,3.45,13,4.8,26.68,6.1,39.92.67,6.83,1.36,13.89,2.33,20.74,1.2,8.47,2.59,17.06,3.94,25.37l-1.46.35,1.48-.24c2.2,13.6,4.47,27.65,6,41.58,2.91,26.74,5.31,55.35,7.56,90.06,1.45,22.36,1.95,45,2.38,68.18s.47,46.17.18,68.63c-.31,23.89-1,43.28-2,61-1,17.2-.38,34.7.25,51.62.55,14.52,1.11,29.53.62,44.38-.39,11.62-1.49,23.33-2.57,34.66-1.22,12.91-2.48,26.26-2.66,39.42l0,2Z"/><path class="cls-4" d="M377,628.64c-2.57-.18-4.8-3-5.62-4.68-6.63-13.93-4.63-28.34-2.87-41.05,2.1-15.12,9.16-28,22.91-41.75,5.47-5.48,14.08-12.76,25.63-12.76l1,0c9.15.33,9,8.35,8.89,14.2l0,.78c.86,9.89-3.74,18.22-8.19,26.28-1.32,2.39-2.67,4.85-3.86,7.3-5,10.4-12,19.57-18.78,28.43-4.63,6.07-9.41,12.34-13.47,18.9-.62,1-2.87,4.33-5.49,4.33Z"/><path class="cls-5" d="M385.9,766.55c-.85,0-2.45-.34-3.65-2.67-7.09-13.73-12.37-25.55-15.15-38.59a125.8,125.8,0,0,1,2.12-62.3c1.32-4.52,3-9,4.71-13.25.79-2,1.58-4.08,2.33-6.14l1.24-3.38,2.22,2.84c13.17,16.9,21.51,37.44,24.8,61,3,21.32-2.22,42.13-15,60.19A4.53,4.53,0,0,1,385.9,766.55Z"/><path class="cls-3" d="M318.89,1618l.11-2.11c.75-13.85,1.41-27.41,1.29-41.07-.18-20.68-1.5-41.7-2.78-62l-.47-7.4-.48-8c-.87-14.76-1.77-30-4.1-44.74-1.74-11.07-3-22.37-4.29-33.3-2.15-18.79-4.37-38.18-8.95-56.85-1.74-7.09-3.13-14.36-4.47-21.39-1.2-6.32-2.44-12.83-3.93-19.14-3.79-16.06-7.93-32.34-11.94-48.08l-.23-.89q-1.77-6.93-3.53-13.87c-1.23-4.88-2.42-9.8-3.57-14.56-2.91-12-5.91-24.44-9.65-36.38-2.82-9-6.18-18-9.43-26.75-3.9-10.44-7.92-21.22-11.05-32.1-6-20.74-14.43-40.91-22.6-60.42-2.35-5.6-4.78-11.4-7.14-17.21-4.5-11-9.84-22-15-32.59-3.69-7.57-7.51-15.39-11-23.23-7.78-17.46-16.88-34.58-25.69-51.14-5.35-10.06-10.85-20.4-16-30.72-8.36-16.7-17.94-32.33-26.21-45.42-2.59-4.1-5.17-8.29-7.66-12.35C102.77,864.34,95.21,852,86.4,840.92q-2.22-2.77-4.42-5.59l-.25-.31c-6-7.58-12.14-15.42-19.19-23l-.54-.58v-14.3l2.82,1.26a225,225,0,0,1,23,12.37c1.75,1,3.47,2,5.19,3C111.4,824.48,127.55,839,143.17,853l2.38,2.13c32.78,29.38,59.64,54.39,82.13,86.32,17.16,24.37,33.84,49.92,49.57,75.93,13.29,21.95,25.8,44.86,38.25,70,9.75,19.74,19.8,39.74,29.51,59.07l2.31,4.59c7.63,15.19,14,31.11,20.21,46.51,4.1,10.19,8.34,20.73,12.88,30.92,3,6.85,2.85,14.39,2.66,21.69a78.18,78.18,0,0,0,.37,12.85,249.89,249.89,0,0,1,2,26.5c.27,6.8.54,13.82,1.27,20.69.65,6.13.14,12.37-.36,18.41a114.53,114.53,0,0,0-.56,14.64c.31,6.35.25,12.74.19,18.92,0,3.49-.07,7.06,0,10.56l.06,5.2c.07,6.17.15,12.52,0,18.77-.22,7.17-.62,14.43-1,21.46q-.27,4.79-.51,9.57l-.07,1.26-3.48.42-.37-1.21c-5.15-17.2-8.49-34.76-11.43-50.25-1.29-6.73-2.5-13.56-3.67-20.17-2.51-14.15-5.1-28.79-8.5-43-4.9-20.48-11-40.18-17.86-62-5.45-17.25-11.49-34.65-17.34-51.47q-2.13-6.12-4.24-12.24c-5.43-15.71-11.61-32.5-19.93-48.82-4.07-8-7.6-16.35-11-24.44-3.87-9.17-7.88-18.66-12.64-27.5q-2.46-4.56-4.9-9.13c-12.4-23.18-25.23-47.14-40.84-68.86-1.32-1.82-2.76-3.6-4.21-5.34.3.48.63,1,1,1.46.57.84,1.22,1.78,1.76,2.76a15.29,15.29,0,0,1,.66,1.4A9.15,9.15,0,0,0,228,1012c22,33.51,39.62,68.7,52.57,95.61,4.84,10.06,9.08,20.56,13.19,30.72,3.63,9,7.39,18.29,11.52,27.2,9.79,21.09,17,43.42,24,65l.08.25q1.62,5,3.26,10.06c8.34,25.53,16,53.44,24.06,87.81,5.38,23,9.81,46.51,14.1,69.29,1.37,7.25,2.71,14.42,4.09,21.57.71,3.68,1.49,7.43,2.24,11.06,2.5,12,5.06,24.41,5.78,36.76.67,11.68-.12,23.57-.89,35.06-.37,5.59-.75,11.36-1,17-.25,6.76-.3,13.68-.35,20.36-.11,14.61-.22,29.63-2.34,44.18-.88,6.07-1.52,12.3-2.14,18.33-.47,4.61-.95,9.3-1.54,13.92l-.22,1.75Z"/><path class="cls-4" d="M189.36,878.33c21.62-34.5,45.08-58.66,73.83-76a265.87,265.87,0,0,1,38.93-19c12.74-5.09,28-10.33,44.73-10.5a67.21,67.21,0,0,0,11.34-1.46,67.7,67.7,0,0,1,12.22-1.5c.91,0,1.8,0,2.64.11a11.81,11.81,0,0,1,8.68,5.37A12.23,12.23,0,0,1,383,786.14c-8.7,26.1-8.46,46.57.78,66.38,1.29,2.75,1.49,5.25.6,7.43-1.67,4.09-6.64,6-11,7.6-1.11.42-2.12.79-3,1.19a111.75,111.75,0,0,1-44.59,9,130.81,130.81,0,0,1-18.46-1.34c-12.9-1.85-28.21-3.74-43.87-3.74-1.58,0-3.15,0-4.73.06s-3.4.06-5.11.06c-2.9,0-5.75,0-8.52-.09l-.11-1.5,0,1.5c-2.78-.05-5.66-.1-8.48-.1-12.48,0-25.7.9-37.88,7.43a12.29,12.29,0,0,1-4.94,1.09c-.74.06-1.5.12-2.26.24L187,882Z"/><path class="cls-4" d="M189.21,861.43a6.06,6.06,0,0,0-.35-.73,4.82,4.82,0,0,1-.78-3.38c4.57-19.3,10.62-42,20.82-63.93,7.9-17,19.27-39,37.2-57.82,13.37-14.07,27-24.18,41.61-30.9a45.79,45.79,0,0,1,19.47-3.86c1.95,0,3.94.08,6.1.26C338,702.18,360,719,366.64,741.93c.49,1.67,1.39,4.79-.27,7-1,1.39-2.74,2.07-5.18,2.07-.34,0-.69,0-1.07,0-2.71-.2-5.45-.3-8.14-.3-27.25,0-53.46,9.42-85,30.53-25.87,17.31-45.59,36.32-60.28,58.09-2.87,4.26-5.46,8.85-8,13.3-1.25,2.22-2.66,4.72-4.08,7.12a8.59,8.59,0,0,1-1.52,1.8,7.38,7.38,0,0,0-.56.56l-2.19,2.39Z"/><path class="cls-3" d="M259.85,713.79c-6.58,0-8.44-7-9.94-12.67a26.6,26.6,0,0,0-1.79-5.41c-5.07-8.94-10-18.16-14.71-27.08-8.32-15.67-16.92-31.85-26.71-47-5.25-8.12-10.13-16.67-14.84-24.93-5.46-9.58-11.09-19.45-17.31-28.67A576.77,576.77,0,0,0,134,514.32c-16.75-19.48-34.9-38.34-52.46-56.57l-6.15-6.39c-4.27-4.44-8.85-8.67-12.77-12.22l-.66-.59V421.33l2.63.87c16.25,5.35,31.63,13.26,46.51,20.91,4.37,2.24,9.3,4.78,14.08,7.15,34.67,17.16,63.58,42.14,87.29,64.32,24.32,22.74,45.58,48.73,66.14,73.87l.13.16q4.88,6,9.76,11.92c16.48,20,30.3,42.08,43.68,63.42,6.09,9.73,11.36,20.14,16.45,30.2,2.2,4.35,4.47,8.83,6.79,13.24a7.32,7.32,0,0,1,.66,2.17c.05.22.09.44.14.65l.86,3.43-3.38-1a6.4,6.4,0,0,0-.66-.14,5.24,5.24,0,0,1-2.64-1.09c-11.65-10.49-24.52-15.59-39.34-15.59a70.68,70.68,0,0,0-10.2.78,13.15,13.15,0,0,1-1.93.15h0c-6.68,0-8.34-5.7-9.56-9.87a18.78,18.78,0,0,0-1.71-4.53C281.1,671.93,275,661,269,650.48l-.08-.13c-2.74-4.88-5.58-9.93-8.42-14.85q-3-5.14-5.89-10.33l-.09-.15c-6.49-11.46-13.21-23.31-20.89-34.25q-3.53-5-7-10.1l-.12-.17c-13.22-19.06-26.9-38.77-43.47-55.59-6.59-6.7-13.75-13.08-20.78-19.25l.54.59c9.06,9.9,17.6,19.23,26.63,28.37,11.78,11.93,21.22,25.81,30.35,39.22,5.2,7.64,10.58,15.54,16.3,22.95,7.74,10,13.8,21.52,19.65,32.64,2,3.78,4,7.62,6.06,11.33q1.92,3.5,3.86,7l.06.11c8,14.46,16.31,29.42,23.39,44.7a5.78,5.78,0,0,1,.37,4.77c-1,2.33-3.56,3.2-6,4-1.62.56-3.47,1.19-4.18,2.11a12.52,12.52,0,0,1-5.07,3.34,15.14,15.14,0,0,0-3.16,1.69C266.6,712.06,262.94,713.79,259.85,713.79Z"/><path class="cls-5" d="M249.79,801.2l.92-1c22.33-23.19,71.85-46,100-46,10.59,0,17.31,3.18,20,9.45l1.13,2.66-2.89.12c-40.72,1.61-77.48,13.31-115.68,36.81l-1.13.7Z"/><path class="cls-3" d="M295.15,1618v-2c0-8.67.07-18.91-.18-29.17-.06-2.42-.11-4.84-.17-7.26-.36-15.86-.74-32.25-2.47-48.17-2.43-22.31-6.56-44.83-10.55-66.61l-.25-1.35c-6.09-33.23-17.82-65.13-29.33-95-6.53-17-15.82-33.28-24.8-49.06q-2.64-4.65-5.26-9.29c-6.93-12.3-14.58-24.48-22-36.27l-.11-.17c-2.94-4.69-5.88-9.37-8.79-14.08-9.5-15.38-22.41-35.11-38.64-52.52,3.1,4.66,6.41,9.27,9.62,13.75,2.7,3.76,5.48,7.64,8.12,11.51,14.68,21.56,27,41.15,37.72,59.89l2.15,3.77c14,24.42,28.43,49.68,39.11,76.6q1.4,3.51,2.8,7l.15.39c7.18,17.91,14.6,36.43,18.83,55.82,1.48,6.75,3.1,13.59,4.67,20.21,3.23,13.65,6.57,27.75,8.82,41.83,3.73,23.34,5.67,43.79,5.93,62.51.11,7.67.78,15.49,1.43,23.06.92,10.68,1.87,21.71,1.3,32.66l-.1,1.9H230.7l.22-2.2c1.21-11.82.57-23.93,0-35.64-.53-10-1.08-20.25-.51-30.44.64-11.27-1.3-23-3.19-34.32-.7-4.28-1.44-8.69-2-13s-1.16-8.86-1.72-13.29V1489c-1.74-13.84-3.54-28.15-6.63-41.88s-7-27.36-10.84-40.63c-2.72-9.47-5.53-19.21-8-28.88-5.79-22.6-14.37-45.59-27-72.38-11.84-25.13-25.84-51.24-42.78-79.8-11.06-18.65-24.11-37.84-41.07-60.42a298.57,298.57,0,0,0-24.54-29l-.56-.58v-12.7l6,3.6c12.89,7.68,26.21,15.61,38.9,24.33,18.58,12.76,37.16,27.91,60.23,49.14,5,4.59,10.17,9.2,15.16,13.65,18.28,16.3,37.17,33.13,52.21,53.41a475.39,475.39,0,0,1,52.26,90.44c1.09,2.46,2.27,4.94,3.41,7.35,4,8.36,8.06,17,9.58,26.51,2.07,13,3.89,26.18,5.64,38.95l.15,1.08c.69,5,1.22,10.17,1.72,15.14a247.13,247.13,0,0,0,3.55,25.84c1.48,7.07,1.6,14.29,1.73,21.28a132.21,132.21,0,0,0,1,16.45c1.64,11.38,1.69,22.87,1.73,34,0,9.65.09,19.62,1.18,29.37,1.53,13.81,1.25,28,1,41.7l-.06,3.07Z"/><polygon class="cls-2" points="6 8.83 58 60.83 58 1619.17 6 1671.17 6 8.83"/><path d="M1024,8V1672a8,8,0,0,1-8,8H8a8,8,0,0,1-8-8V8A8,8,0,0,1,8,0H1016A8,8,0,0,1,1024,8Zm-8,1658.34V13.66l-48,48V1618.34ZM962.34,56l48-48H13.66l48,48H962.34ZM13.66,1672h996.68l-48-48H61.66ZM960,1616V1244c-10.49,11.82-20.26,24.31-29.67,37.12-17.79,24.19-36.46,47.8-52.93,72.86-15.76,24-28.68,49.78-40.57,76-6.67,14.69-15.63,28.46-21.13,43.53-5.73,15.71-8.75,32.43-12.58,48.8-4,17-8.22,33.94-11,51.13-2.3,14-3.3,28.32-4.5,42.55Zm0-385.11v-7c-15.49,8.91-31.07,17.68-46,27.44-17.44,11.41-34.35,23.71-50.83,36.47a481.16,481.16,0,0,0-65.08,61.51c-16.6,18.71-32.6,38-47.06,58.43a726.8,726.8,0,0,0-41,65.41c-13.79,24.73-23.66,51-32.23,77.56-6.85,21.26-14.12,42.75-16.45,65.31h55.52c3.47-15.61,4.42-33.26,10.54-50.29,5.47-15.24,9.07-31.58,13.65-47.37,3.46-11.92,9.09-23.18,13.16-34.73,5.75-16.33,13.54-31.36,22-46.08,11.05-19.23,23-38,35.46-56.35,13.46-19.76,27.27-39.37,42.34-57.89,12-14.7,26-27.69,39.26-41.35.36-.37,2,0,2.63.46,2.63,2.14.44,3.88-.84,5.38-12,14.1-24.48,27.81-36,42.29-11.77,14.78-23.13,30-33.72,45.61-10.07,14.86-17.7,31.48-28.62,45.62s-18,30.35-25.95,46c-12.21,23.91-20.87,49.33-27.75,75.35-4.82,18.23-10.76,36.16-15.46,54.42a146.57,146.57,0,0,0-3.28,19h55.13c-.49-29.62,6.26-58.2,12.77-86.82,3.49-15.3,6.25-30.86,11.08-45.74a343.38,343.38,0,0,1,18.2-44c12-24.53,24.62-48.74,37.45-72.84,9.69-18.19,22.14-34.62,34.43-51.11,15.32-20.57,30-41.7,46.35-61.38C946.19,1246.29,952.57,1238.07,960,1230.89Zm0-15.7V1028.8c-1,1.17-2,2.32-3.07,3.48-16.77,19.08-33.73,38-49.85,57.64-12.8,15.57-24.25,32.22-36.68,48.1-19,24.28-34.23,51-49.5,77.56-12.44,21.63-21.88,45-32.36,67.7-7.82,17-15.2,34-21.87,51.43-5.77,15-10.4,30.49-15.62,45.72-2,5.8-4.23,11.52-7.65,20.78,17-21.31,30.4-40.69,46.39-57.66,20.69-22,41.5-44,66.36-61.66,15.4-10.9,30.39-22.38,46-33a498.08,498.08,0,0,1,55.58-32.5Zm0-198.89v-6.8c-6.67,5.07-13.34,10.14-19.93,15.31-24.5,19.21-47.15,40.48-68.87,62.74q-21.88,22.42-43.49,45.13c-14.6,15.38-30.84,29.63-43,46.78-13.79,19.48-29.67,37.34-42.33,57.84-10,16.26-21.28,32.07-32,48.07-7.75,11.56-14.48,23.82-21.33,36-12.25,21.72-24.81,43.3-36.19,65.48-9.39,18.3-17.68,37.21-25.68,56.17-7.28,17.25-12.14,35.64-20.57,52.25-9.49,18.71-12.69,39.36-21.5,58.4-8.62,18.63-10.79,40.21-16.18,60.38l-.54,2h45.44c1.2-7.65,2.51-15.29,3.85-22.93,2.53-14.4,5.37-28.62,9.23-42.67,5.4-19.67,10.35-39.51,16.72-58.87,6.22-18.91,13.69-37.44,21.17-55.91,7.36-18.15,14.25-36.64,23.49-53.83,10.92-20.34,20.15-41.44,30.66-61.92,9.86-19.22,20.61-38,31-56.9,7.91-14.35,16.44-28.31,27.08-40.86a16.73,16.73,0,0,1,2.77-1.78c-9,23.3-22.24,42.9-33.57,63.54-10,18.19-20,36.45-27.71,56-6.32,16.09-15.79,30.93-23.65,46.44A551.45,551.45,0,0,0,665,1457c-4.46,13.06-10.57,25.56-14.92,38.64-4.92,14.8-8.95,29.91-12.89,45-4.12,15.74-7.85,31.57-11.39,47.45-1.94,8.7-3.13,17.57-4.69,26.36l-.27,1.51h31.58c2.09-15.24,4.9-30.32,9.85-45,6.7-19.89,10.78-40.86,19.34-59.86,6.28-13.93,12.57-28.15,19.56-41.9,10.84-21.32,29-39.08,34.76-62.1,5-20,11-39.6,17-59.28,7.47-24.85,17.81-48.6,29-71.94,12.13-25.28,23.92-50.78,37.4-75.34,10.4-18.93,22.62-37,35.07-54.65,14.23-20.2,29-40.08,44.68-59.19,18.38-22.44,38-43.91,57-65.8Q958,1018.61,960,1016.3Zm0-16.48v-186c-5,9.16-9.76,18.55-15,27.6q-20.21,34.86-41,69.41c-13.73,22.82-26.85,46-39.57,69.38-12.54,23.11-26.57,45.41-36.79,69.71-7.22,17.18-12.6,35.24-21,51.77-7.62,15-12.45,30.91-18.73,46.28-2.18,5.33-7.46,11.64-4.5,18.42,22.5-23.61,44.87-47.42,67.62-70.86,19.32-19.92,39.56-38.86,60.37-57.29A499.36,499.36,0,0,1,960,999.82Zm0-200.56V779.42c-5.12,4.54-10.06,9.17-14.76,14.07-19.73,20.53-40,40.54-58.94,61.8-19.49,21.91-38.32,44.49-56.07,67.82-15.45,20.3-28.47,42.43-43.49,63.08a1024.13,1024.13,0,0,0-58.36,90.1c-10.82,18.7-21.84,37.34-31.64,56.58-16.77,32.92-33.69,65.77-45.92,100.85-8.05,23.1-18.45,45.38-26.71,68.41-6.53,18.21-11.38,37-17,55.54-5.86,19.16-12.82,38-17.39,57.51-4.18,17.83-10.55,35-13.06,53.42-2.75,20.21-9.5,39.83-13.3,59.94-3.57,18.89-5.51,38.08-8.28,57.12q-2.2,15.18-4.54,30.34h9.76c.8-4.55,1.72-9.08,2.82-13.56,4.11-16.59,8.89-33,13.93-49.35,4.28-13.87,9.23-27.54,14.09-41.22,5.85-16.48,11.49-33.06,18-49.27,6.9-17.19,13.9-34.44,22.37-50.88a171.69,171.69,0,0,0,16-47.88c2.68-14.24,9.61-27.68,14.51-41.52,8.39-23.73,16-47.74,25.17-71.18,7.42-19.05,16.72-37.37,24.86-56.16,4.66-10.76,7.62-22.37,13.18-32.6,9.49-17.46,14.2-36.93,24.46-54.08,7.48-12.53,11.92-26.89,19.47-39.37,16.66-27.54,27.41-58.12,44.87-85.27,3.93-6.11,10.88-11,11.1-19.37,0-.35,1.48-1.09,1.63-.95,2,1.88,1.71,3.93.49,6.21-5.56,10.4-10.45,21-17.24,30.92-7.35,10.74-10.84,24.08-16.54,36-8.72,18.3-17.47,36.62-27,54.51-13.47,25.31-23.5,52.13-35.33,78.15-9.26,20.37-18.45,40.79-27.09,61.42-6.16,14.73-11.46,29.82-17,44.81q-14.6,39.46-29,79a60.35,60.35,0,0,0-1.36,6.29c10.48-18.17,19.45-34.56,28.84-50.69,9.18-15.77,18.19-31.81,27.76-47.35,10.45-17,23.58-32.24,34.75-48.78,11.52-17.05,23.74-33.12,27.79-55,3.22-17.38,10.83-34.49,18.53-51.12,11.93-25.75,20.87-52.9,32.93-78.59,8.87-18.89,21.69-35.91,30.93-54.65,8.86-18,18.45-35.45,28.67-52.63q16.26-27.36,32.58-54.7c9.16-15.39,17.93-31,27.59-46.1C951.62,814,955.65,806.53,960,799.26Zm0-29V267.11c-6.51,7.93-13,15.9-19.54,23.75C923.56,311,907.24,331.8,892,353.22c-14.56,20.39-26.31,42.83-41.35,62.82-17.82,23.68-30.28,50.34-44.49,75.89-12.15,21.85-19.32,46.43-29.19,69.6-7.95,18.67-17.55,36.7-24.71,55.65C747,631,743.6,645.51,737.5,659.09c-.44,1,2.18,3.75,3.79,5.25,22.77,21.06,35.18,47.73,44.1,77,7.62,25,9.36,51.39,19.22,75.77,1.54,3.81-1.78,4.07-4.31,3.77a15.12,15.12,0,0,1-5.7-1.93c-16.25-9.45-34.45-6.25-51.83-7.61-14-1.1-28.2-.17-42.3.28-11.25.36-7.64,10.55-9.08,16.23-5.81,22.94-10.73,46.12-15.27,69.35-3,15.25-5,30.71-7,46.12-3.81,28.38-7.54,56.78-10.92,85.21-1.52,12.77-2.28,25.64-3.09,38.48-1.46,23.14-2.36,46.32-4.16,69.44-1.41,18.13-4,36.17-5.72,54.29-.81,8.52-.82,17.12-1.06,25.68,0,.78.87,1.58,1.34,2.37.46-.32,1.14-.54,1.33-1,6.06-13.9,11.29-28.23,18.28-41.64,10.37-19.9,18.38-40.88,30.62-60,14.26-22.25,25.88-46.17,39.35-69,7.11-12,15.84-23.1,23.6-34.77C771.6,993,783.84,973.1,797.28,954c12.3-17.47,25.4-34.42,38.88-51C851.82,883.8,868,865,884.49,846.45c12.56-14.11,26.66-26.88,38.86-41.27C934.37,792.17,947.13,781.15,960,770.24Zm0-515.43V239.48c-10.13,8.22-19.74,17-29.46,25.68-12.06,10.71-23,22.71-34.77,33.74-9.5,8.88-20.24,16.53-29.19,25.91-10.5,11-20.56,22.35-31.23,33.22-12.59,12.84-23.56,27.47-33.93,42.24-14.39,20.47-27.74,41.67-41.2,62.78-11.18,17.53-22.85,34.86-32.57,53.2-18.74,35.38-36.34,71.38-54.14,107.25-1.44,2.89-1.62,6.68,4,7.6,6.29,1,12.27,3.9,18.55,5,4,.71,8.59,9.26,12.65-1.3,8.84-23,18.54-45.71,28.37-68.34,12.31-28.35,26.91-55.49,44.82-80.74,1-1.37.71-5.18,3.78-3.58.65.34,0,4.73-1.11,6.72-16.1,29.88-34.73,58.37-45.83,90.91-6.12,17.93-15.07,34.89-22.89,52.21-3,6.62-4.83,12.64,3.67,16.7,3.65,1.74,7.09,3.91,11.75,6.52C778,504,855.68,371.47,960,254.81Zm0-24.29V64H64V416.83c20.88,7.37,40.94,16.79,60.78,26.79,29.79,15,55.9,35.47,81.61,56.25,9.84,8,18.13,18.38,27.18,27.46,14.61,14.65,27.73,30.44,40.72,46.35,13.23,16.21,26.7,32.11,37.95,50.13,9.35,15,20.39,29.18,29.58,44.44,5.91,9.8,10.88,20.18,17.09,31.85-.4-12.17.33-22.87,4-33.17,3.21-9.07,5.78-18.38,9.14-27.39,1-2.6,1.25-4.46-.73-6.17-8.35-7.25-13.37-31.38-11.47-42.11,2.53-14.31,5.65-27.82,13.17-40.14,8.13-13.3,29-33.71,49.83-30.26,6.13,1,13.28,15.31,12.24,21.68a102.36,102.36,0,0,1-15.87,41.08c-5.85,8.75-11.43,17.69-17.57,26.23-5.77,8-12.6,15.32-18,23.55-3,4.54,2.13,8.14,4.49,11.44,12.1,17,18.94,35.45,21.39,56.36,1.76,15,2.06,29.3-2.29,43.8-1.88,6.27-9.37,10-7.73,18.28,12.59-9.71,26.67-11.13,41.81-10.81,7.31.15,1.38-7.91,2.42-12,2.72-10.76,5.89-20.75,12.57-29.79,2.77-3.75-1.05-7.91-2.74-11.26-8.35-16.58-6.52-34.13-5.89-51.64.44-12.28,5.51-23.22,9.05-34.7,4.68-15.23,35.15-29.06,47.68-19.33,9.62,7.48,7.52,19.42,5.88,30-3.66,23.84-20.44,41.63-29.87,62.84-.95,2.16-.42,1.86.6,2.85,19,18.42,30.87,40.4,34.36,67,.87,6.61,5.49-2.5,8.23.36.07.07.79-.72,1.17-.7,23.72,1.62,12.72-14.62,12.62-24.89-.21-22.8,3.52-45.16,18.35-62.55,6.33-7.43,2.69-12.24,2-17.75-2.23-18.09-1-35.68,2.42-53.56,1-5.36-8.13-3-12.26-4.33-23-7.33-42.65-17.31-53.45-41.17-6.44-14.23-8.52-27.32.87-39.69,8.42-11.09,22.74-9.13,36.51,4.25,21.07,20.48,34.68,44.83,39.82,74.31,1.35,7.72,11.38,12.47,16.15,20,8.41,13.29,11.53,28.1,15.29,42.84.34,1.36.6,2.74.9,4.11,1.15-.79,2.6-1.34,3.42-2.39,13.84-17.72,32.93-24,54.33-27,3.69-.52,6.36-10,9-15.5,4.62-9.6,8.64-19.5,13.34-29,7.21-14.64,15.13-28.93,22.15-43.65,9.77-20.5,22.17-39.47,33.18-59.24,20.9-37.51,45.88-72.13,71.85-106.12,10.72-14,23-26.77,35.82-39,9.42-9,17.28-19.61,26.83-28.43,23.74-21.95,48.46-42.85,72-65A154.19,154.19,0,0,1,960,230.52Zm-175.46,574c-.6-2.69-.8-5.57-1.93-8-.7-1.51-3.07-2.14-4.26-3.53-10.55-12.28-21.66-24.19-34.88-33.39-15.14-10.53-30.73-20.47-47.93-27.79-28.74-12.24-58.87-17.78-89-21.19-4.8,1.49-10.08-1.94-13.05,1.9-10.53,13.59-9.21,43,3.38,54.49,15.17,13.84,31.73,25.16,52.66,30.35,31.31,7.76,62.75,4,94.16,5,10.25.35,20.78-1.38,31,2C777.66,805.45,781.24,804.58,784.54,804.56ZM786,779.82c-3.61-15-5.49-26.92-9.41-38.16-12.16-34.91-28.61-66.61-63.26-85.35-19.09-10.33-37-19.31-60.45-15.89-22.62,3.3-37.15,13.78-45,34.15-1.16,3-5.85,9.29.12,12,5.09,2.33,11.11-.74,17.15-.1a256.93,256.93,0,0,1,76.2,20.37C736,721.9,762.26,746.48,786,779.82Zm-27.45-19.27c.51-1.33.32-2.24-1-3.63-12.9-13.95-27.19-25.7-44.24-34.7a260.31,260.31,0,0,0-70.71-25c-10.73-2.15-21.74-3.11-32.67-4-4.33-.33-8.06,2.47-10.56,6.16-1,1.42-2.16,4.48-1.81,4.72,3.13,2.18,6,0,9-1a11.62,11.62,0,0,1,5.41-.06c21.71,3.86,43.43,7,64.81,13.31C707.51,725.46,733.57,741.67,758.57,760.55Zm-76.4,66.65c1-5.25,3.14-14.27,1.13-15.46-9.92-5.9-23.95,1.34-26.25,11.86-5.9,27.09-12.3,54.08-17.91,81.24-3.89,18.87-5.87,38.16-10.37,56.86-6,24.78-10,49.87-13.53,75-3.45,24.5-6.45,49.14-7.92,73.82-1.83,30.65-3.44,61.28-6.08,91.88-2.18,25.21-2.74,50.56-4.23,75.84-.7,12-2.08,23.92-2.83,35.89-1.27,20.15-2.28,40.31-3.4,60.47l1.42.12c.62-2.54,1.08-5.13,1.89-7.61,4.23-12.76,9.5-25.27,12.6-38.3a326.33,326.33,0,0,1,16.07-49.64c7.1-17.16,12.69-34.31,12.43-53.34-.21-15.8,1.62-31.66,2.89-47.46,1.33-16.62,3.48-33.19,4.52-49.82,1.18-19,2.71-38,4.3-57,.88-10.51,1.67-21.37,2.09-32.06.8-20.28,3.68-40.48,6-60.68,1.78-15.53,3.63-31.07,6.17-46.49,2.84-17.31,6.34-34.51,9.82-51.71C674.58,862.81,678.63,845.06,682.17,827.2ZM652.8,815c2.12-13.25-10.95-7.16-15.95-11.67-2.74-2.47-7.28-2.92-11-4.4-2.64-1-5.2-2.31-7.8-3.48-.34,3.55-1.68,7.35-.84,10.58,3,11.67,4.11,23.25,1.88,35.2a136.34,136.34,0,0,1-12.44,37.65c-6.65,13-12.48,26.06-14,41.31-2.47,24.3-7.74,48.32-11.4,72.52-1.88,12.47-3.1,25.06-4.14,37.64-2.48,29.91-7,59.61-8.41,89.66-1.29,26.77-6,53.29-8,80.08-2.22,28.47-7.69,56.67-11.28,85-1.42,11.16-1.59,22.47-2.34,33.7-2.3,34.58-4.76,69.15-6.82,103.75-.84,14.15-.4,28.38-1.26,42.53-1.72,28.2-2.47,56.57-6.45,84.48-2.66,18.73-4.47,37.59-6.53,56.33-.37,3.36-.9,6.73-1.41,10.12h17.06c1.26-9.79,3.54-19.47,4.9-29.25,1.56-11.17,2.64-22.41,4.44-33.54,4.67-28.7,9.46-57.31,16.66-85.62,3.39-13.34,5.36-27.53,9.76-40.53,5.63-16.64,4.44-33.55,6.49-50.3.62-5.08.78-10.22,1-15.35.72-17.64,1-35.32,2.13-52.94,2.54-37.78,5.77-75.52,8.31-113.3,1.6-23.74,1.9-47.58,3.82-71.29,2.23-27.73,5.34-55.4,8.55-83q2.89-24.88,7.35-49.57c3.37-18.59,7.75-37,11.42-55.54,3-15.29,5.37-30.73,8.54-46,3.93-18.93,8.29-37.76,12.67-56.59C649.11,827,651.81,821.14,652.8,815Zm-8.15,409.83c0-1,0-2,0-2.93,0-.1-.71-.14-1.09-.2-.1,1-.2,2.06-.29,3.09ZM594.07,882.16c8-17.52,17.19-34.28,16.57-57.7-2.19-7.33-2.44-18.3-7.22-29-8.77-19.62-26-25.93-43.84-29.94-14-3.13-29-3.07-43.17,1.7-5.87,2-11.25,5.39-16.85,8.15,2.8,2.57,5.6,5.12,8.37,7.72a6.57,6.57,0,0,1,1.1,1.58c8.56,14.66,13.4,30.33,16.46,47.18,4.84,26.68,4.08,53.43,3.09,80-.69,18.52-1.66,37.46-7.39,55.52-.21.66.24,1.52.38,2.29a11.5,11.5,0,0,0,2.4-1.39c10.38-10.06,21.18-19.74,31-30.35C570.42,921.16,584.33,903.35,594.07,882.16Zm-1.79-187.95c3-1.85,4.48-8.38,4.45-12.78-.22-30.56-6.26-59.27-29.86-84.31-3.21,33.08-5.51,63.74,16.09,90C585.39,690.08,586.94,697.47,592.28,694.21ZM585,709c.88-2.51,4.28-6.27,1.88-7.38-10.93-5.09-14.7-15.84-21.07-24.52a20,20,0,0,1-1.66-3.6c-1.6,1.36-3.86,2.4-4.69,4.13-9.25,19.21-14,39.48-12.12,60.81.5,5.64,2.86,14.91,6.15,15.78,9.43,2.51,19.07,4.14,28,8.93C573.81,726.34,575.55,736,585,709Zm-9.85,265.58c2.26-17.94,5.48-35.77,8.58-55.65C577.51,926,572.92,931.74,567.8,937c-11.57,11.88-22.63,24.43-35.35,35-11.46,9.49-12.45,22.13-15.52,34.76-5.4,22.26-6.1,45.2-11.2,67.58-3.5,15.38-1.31,32-2.81,47.9-2.54,27-4.45,54-3.8,81.19.38,16.19-.18,32.61,2.39,48.49,2.26,14,3.1,28.25,4.71,42.24,2.33,20.38-.32,41.28-.06,62,.36,28.37,2.21,56.74,2,85.11-.21,31.12-1.77,62.23-3.21,93.33-.83,17.82-2,35.67-4.1,53.36-1.15,9.43-2.89,18.79-4.77,28.13h22.34q2-23.71,4.08-47.43c.56-6.2,1.84-12.32,2.37-18.51,3.63-41.93,4.64-84,6.4-126,.84-20.08,2.66-40.17,3.84-60.28,1.43-24.42,4.09-48.78,6.56-73.12,2.91-28.61,6.19-57.17,9.31-85.75,2.41-22.13,4.88-44.25,7.25-66.39q2.31-21.58,4.39-43.21c1.5-15.57,2.72-31.17,4.33-46.74C569.53,1023.88,572,999.17,575.11,974.54Zm-20.74-388c3,.34,8.3,2.2,6.4-4-6.51-21.24-17.06-40.5-32.59-56.38-5.73-5.86-12.25-14.8-22.49-10.59-6.78,2.78-7.53,10.22-6.45,17.1-1.8,9.56,3.79,16.66,7.9,24.15,8.74,15.91,25.47,20.55,40.25,27.86A20.93,20.93,0,0,0,554.37,586.52Zm-34,325.34c1.39-22.33,2-44.88-.54-67.33-1.63-8.15-2.87-16.39-5-24.42-3.74-14.41-9.35-28-19.43-39.34-.56-.62-.92-2.88-2.29-.86-.66,1-2.81,1.19-1.48,3.47,5,8.55,7,18.13,9.92,27.49,9.13,29,10.56,59.09,13.29,89,1.2,13,.13,26.23.31,39.36,0,1.83,1.31,3.65,2,5.47.58-.9,1.59-1.77,1.67-2.71C519.7,931.94,519.74,921.88,520.35,911.86ZM510.5,996.6c.31-3.59-3.71-9.69-7-10.81-2.91-1-1.65,5.22-2.49,8.18-3.45,12.26-7.81,24.2-10.07,36.86-2.5,14-6.2,27.84-9.92,41.6s-.93,27.09,1.82,40.74c3.28,16.31,4.65,33,7.27,52.78,3.15-35.85,3.34-68.68,8.84-101.06,2.07-12.17,3.63-24.44,5.75-36.61C506.51,1017.69,509.6,1007.25,510.5,996.6ZM508.9,975c-.08-9.39,1.11-19-.59-28.12-3.48-18.53.52-37.22-2.69-55.75-2.06-11.92-1.25-24.31-3-36.31-2.9-19.9-6.19-40-14.07-58.49-5.27-12.35-7.77-27.5-25.22-31.91-9.41-2.37-18.6-3-28-4-13.86-1.41-37.06,10.37-42.26,21.35-7.28,15.37-12.74,30.92-8.15,52.5,3.12,6.85,5.61,18.41,11.71,29,14.4,25.05,31.24,47.78,53.86,66.07,18.76,15.17,37.15,30.8,55.72,46.21a11.82,11.82,0,0,0,2,1.1A5.29,5.29,0,0,0,508.9,975Zm-6.24-364.78c.4-7.13-6.85-12-14.73-10-16.36,4.23-28.9,20.74-31.07,38.08a186.49,186.49,0,0,0,.36,52.18c.46,3,2.89,5.68,4.41,8.51,1.06-.92,2.48-1.64,3.13-2.8,4-7.1,8-14.24,11.72-21.48C487.18,654.05,502.52,635.25,502.66,610.22Zm-11.4,162c5.32-5,14.65-6.13,15.48-12.8-2.38-24-11.46-42.5-25.36-58.7-1.65-1.91-4.95-6.78-6.14-4.53-3.19,6-13.46,10.16-6.42,20.06,3.17,4.44,4.87,10.23,7.18,15.21,5.41,11.61-11.41,28.29,8.61,36C487.14,768.46,488.6,774.72,491.26,772.24Zm7.67,626.37c0-28.76,1.3-57.62-.61-86.26-1-15.53-2.61-31.33-4.08-46.88-2.07-21.86-5.53-43.56-7.69-65.4-3-29.88-8.53-59.51-13.21-89.2-3.27-20.72-6.29-41.51-10.58-62-4.79-22.92-9.35-45.88-15-68.66-3.76-15.26-7.33-30.67-10.63-46.07-1.66-7.73-8.11-10.51-12.29-15.44-13.75-16.24-27.34-32.47-36.21-52.07-.72-1.61-.22.34-4.21,1.86-14.95,5.69-5.06,15.13-3,21.63C391,919.8,402.15,949,409,979.49c6.14,27.31,13.35,54.42,16.22,82.42,2.23,21.67,4.47,43.42,8.41,64.82,4.48,24.31,6.19,48.89,9.15,73.34,1,8.32,1.14,16.78,2,25.2,2.12,20.83,4.65,41.91,3.5,62.7-.85,15.46,1.2,30.58.85,45.87-.88,38.8-1.42,77.61-2.13,116.41-.44,24.73.52,49.39,1.54,74.1.81,19.88-2.13,39.92-3.63,59.87-.81,10.61-2,21.19-2.88,31.78h46.1c2.53-12.68,4.35-25.47,6-38.36a438.32,438.32,0,0,0,3-47.42c.29-17.37,1.6-34.72,1.81-52.08C499.18,1451.63,499,1425.12,498.93,1398.61Zm-3.12-417c.71-1.63-.11-3.57-2.05-5.1-13.87-11-27.54-22.15-41.36-33.16-1.32-1.06-3.2-1.42-4.83-2.11,0,1.24-.3,2.59.07,3.71,8.06,24.54,11.41,50.17,17.36,75.2,3.26,13.71,5.9,27.56,9.09,42.65,2-10,3.2-18.82,5.57-27.36C484.66,1017.41,488.22,998.92,495.81,981.63ZM457.13,754.17c5.85,2.23,13,5.85,12.2-7.16-.7-11.19-.95-22-8-32-2.61,5.44-6.88,10.85-7.57,16.68C452.86,739.14,443.78,749.09,457.13,754.17Zm-16.28,630.72q.45-34.28-.18-68.56c-.42-22.7-.91-45.43-2.38-68.09-1.94-30-4.29-60.06-7.55-90-2.44-22.43-6.77-44.64-9.94-67-2.86-20.15-3.2-40.92-8.38-60.42-7.35-27.59-10-56.32-21-83.09-5.2-12.59-6-27-10.85-39.73-3.61-9.45-6.09-19.34-10.28-28.41-2.54-5.47-9.16-.86-12.88.17a146.46,146.46,0,0,1-32.49,4.82c-3.13.15-1.34,1.86-.87,3.24,7.25,20.95,14.47,41.89,19.25,63.61,5.62,25.56,12.19,50.92,17.56,76.54,4.05,19.34,7,38.93,10.22,58.44,3.43,20.47,7.11,40.91,9.84,61.48,2.62,19.68,4.43,39.47,6.09,59.26,2.28,27.18,4.74,54.38,5.89,81.62,1,22.92.19,45.91.19,68.86,0,14.41,1.21,28.94-.28,43.19-3,28.48-2.51,57-3.76,85.55-1.1,25.25-2.13,50.53-4.09,75.72-1.39,18-2.76,36.06-5.83,53.88h55.39c.33-24.75,4.41-49.31,5.23-74.12,1.07-32.11-2.8-64-.87-96.05C440.06,1425.55,440.59,1405.21,440.85,1384.89Zm-27.8-808.78c5.18-10.71,12.94-20.43,11.85-32.67.1-6.18.59-12.75-6.94-13-10.15-.36-18.18,5.17-25.16,12.15-11.36,11.37-20,23.75-22.34,40.61-1.91,13.8-3.46,27,2.7,39.92.73,1.53,2.49,3.44,3.88,3.54,1.22.08,3-1.92,3.86-3.38C390.91,607.07,404.66,593.44,413.05,576.11Zm-25.17,187c12.54-17.7,17.59-37.75,14.66-58.75-3-21.83-10.69-42.5-24.4-60.09-2.37,6.47-5.09,12.74-7,19.26a123.21,123.21,0,0,0-2.08,61.32c2.88,13.53,8.68,25.91,15,38.09C384.92,764.69,386.28,765.38,387.88,763.13Zm-4.12,580.25c-.54-10.73,2.08-22.05.93-32.94-1.66-15.66-.95-31.4-3.23-47.11-1.61-11.14,1.77-23.58-2.88-34-11.41-25.61-20.41-52.18-33.05-77.34-10.65-21.2-21.32-42.41-31.82-63.67-11.8-23.87-24.38-47.12-38.17-69.89-15.65-25.88-32.07-51.07-49.5-75.82-23.18-32.92-52.28-59.5-81.83-86-16.53-14.82-33.07-30-52.23-41.07-8.8-5.11-17.59-10.67-28-15.32v10.43c8.94,9.61,16.33,19.45,24,29,11.89,15,21.26,31.72,31.48,47.87,9.41,14.89,18.48,30,26.31,45.6,13.7,27.41,29.22,53.84,41.74,81.93,8.35,18.72,18.29,36.85,26,55.89,10.48,25.72,22.06,51,29.81,77.83,5.74,19.91,14.28,39,20.47,58.8,5.24,16.76,8.94,34,13.25,51.05,5.3,20.94,10.75,41.85,15.71,62.87,3.16,13.42,5.1,27.13,8.39,40.51,7.29,29.7,8.53,60.26,13.28,90.32,2.75,17.44,3.5,35.24,4.6,52.91,1.44,23.16,3,46.35,3.25,69.54.12,13.73-.55,27.46-1.29,41.2h51.62c1.36-10.75,2.12-21.58,3.68-32.29,3.08-21.12,1.88-42.86,2.67-64.32.64-17.31,2.84-34.69,1.85-51.89-.92-16-4.93-31.76-8-47.56-5.84-30.31-11.14-60.75-18.18-90.78-6.92-29.48-14.61-58.88-24-87.65-8.25-25.27-16-50.82-27.23-75.1-8.83-19-15.62-39-24.7-57.89-15.74-32.72-32.5-64.94-52.44-95.38-.58-.88-.89-1.93-1.4-2.86-2.09-3.78-5.86-7-4.16-12.07,3,3.67,6.24,7.2,9,11,17.71,24.64,31.56,51.6,45.88,78.21,9,16.73,15.05,35,23.69,52,8.09,15.86,14.26,32.36,20,49.08,7.33,21.21,14.84,42.37,21.6,63.76,6.48,20.54,12.89,41.17,17.9,62.1s8.16,42.13,12.18,63.22c3.19,16.76,6.44,33.51,11.39,50.05.52-10.33,1.21-20.65,1.52-31,.24-8,.05-15.93,0-23.89C383.82,1363,384.25,1353.23,383.76,1343.38ZM369.56,866.9c6.24-2.69,16.58-4.66,12.43-13.54-10.69-22.92-8.46-45.07-.87-67.85A10.13,10.13,0,0,0,372.87,772c-8.51-.75-17.31,2.77-26,2.86-15.55.16-30.19,4.83-44,10.36A264.68,264.68,0,0,0,264.22,804c-31,18.72-53.89,44.6-73.16,75.36,2.51-.39,4.83-.19,6.56-1.11,19.38-10.39,40.53-7,61-7.54,16.33-.41,32.6,1.36,48.93,3.7C328.5,877.43,349.65,875.51,369.56,866.9Zm8.74,341.95v-3.66l-.78-.15c-1.63-19.4-2.55-36.33-4.59-53.11-2.13-17.55-5.41-35-8.05-52.45-1.57-10.42-2.36-21-4.4-31.32-3.47-17.62-8.36-35-11.33-52.69-2.55-15.26-6.55-30.21-9.1-45.52-3.73-22.39-13.1-43.8-18.93-65.92-3.63-13.81-8.08-23.9-25.45-22.25-7.5.7-15.73-.47-23.25-1.34C251,878,230,880,209.08,883.28c-5.5.87-10.6,4.27-15.88,6.51,2,2.21,3.91,4.49,6,6.61A384.26,384.26,0,0,1,250,961c18,28.46,36.69,56.57,52.66,86.14,13.56,25.12,25.33,51.37,38.25,76.81,13.09,25.77,22.88,52.75,36.63,81.09l-.19,0,.24,3.88ZM360.26,749c6.23.45,5.32-3.51,4.46-6.47-6.53-22.39-27.62-38.35-51.6-39.43-8.45-.68-16.84-.12-24.58,3.43-15.78,7.25-29,17.82-41,30.46-16,16.86-27.15,36.42-36.84,57.28-9.49,20.42-15.53,41.8-20.68,63.55-.2.84.67,1.94,1.05,2.93a13.46,13.46,0,0,0,1.84-2c4.05-6.84,7.68-13.95,12.11-20.52,16.09-23.84,37.28-42.87,60.83-58.63C294.14,760.6,324.74,746.4,360.26,749Zm-5.94-38.26a11,11,0,0,0-.63-2.38c-7.64-14.48-14.49-29.46-23.16-43.3C317,643.35,303.34,621.65,287,601.8c-24.28-29.49-47.81-59.54-75.86-85.76-26.49-24.78-54.08-47.79-86.81-64-19.89-9.85-39.21-21-60.33-27.95v13.56c4.41,4,8.76,8,12.87,12.31,19.9,20.7,40,41.29,58.69,63a584.22,584.22,0,0,1,40.65,53.86c11.64,17.26,20.86,36.14,32.17,53.64,15.43,23.9,27.51,49.57,41.48,74.21,3.52,6.22,2.52,26.14,19.93,12.22,2.39-1.91,6.15-2.45,7.9-4.7,2.86-3.68,12.53-2.55,9.61-8.86-8.18-17.65-17.84-34.61-27.25-51.66-8.16-14.79-15.31-30.47-25.54-43.72-15.79-20.44-28.16-43.41-46.49-62-13.15-13.31-25.57-27.36-38.88-41.69,2.17.73,4.28.85,5.52,2,10.07,8.93,20.39,17.63,29.82,27.21,19.62,19.92,34.85,43.34,50.83,66.11,10.05,14.32,18.22,29.76,27,44.88,9,15.59,17.47,31.56,27.12,46.75,3,4.72,1.95,14.71,11.22,13.34,19.65-2.9,36.52,2.12,51.17,15.3C352.38,710.43,353.46,710.44,354.32,710.7Zm14.48,53.82c-9.78-23.14-87.42,6.75-116.65,37.11C290.33,778.14,327.84,766.14,368.8,764.52ZM315.41,1616c.28-14.25.61-28.51-1-42.55-2.36-21.1.14-42.2-2.9-63.3-1.76-12.26-.07-25.18-2.67-37.6-2.85-13.56-3.41-27.45-5.29-41.12-1.83-13.31-3.66-26.68-5.78-40-1.91-12-8-22.44-12.85-33.37a470.46,470.46,0,0,0-52-90.06c-19-25.64-43.9-45.43-67.11-66.78-19-17.44-38.54-34.22-60-49-13.61-9.35-27.72-17.66-41.81-26.06v8.37a302.18,302.18,0,0,1,24.7,29.2c14.66,19.51,28.75,39.62,41.19,60.6,15.42,26,30,52.64,42.87,80,11,23.36,20.65,47.49,27.12,72.73,6,23.28,13.58,46.16,18.86,69.57,4.1,18.2,5.88,36.92,8.39,55.45,2.15,15.89,6.12,32,5.23,47.72-1.24,22.1,2.81,44.16.55,66.17h58.37c1-18.58-2.46-37.06-2.73-55.59-.29-20.78-2.62-41.67-5.9-62.22-3.33-20.83-9-41.29-13.47-61.93-4.77-21.84-13.47-42.21-21.69-62.91-11.16-28.14-26.23-54-41.14-80.12-11.68-20.46-24.35-40.25-37.63-59.75-6.16-9-12.84-17.75-18.83-26.91-.75-1.15-3.5-2-1.4-3.82.58-.5,3.14.38,4.06,1.34,15.71,16.49,28.5,35.17,40.42,54.47,10.39,16.82,21.23,33.38,30.92,50.59,10.77,19.17,22.33,38.22,30.19,58.61,11.95,31,23.37,62.23,29.43,95.31,4.15,22.65,8.33,45.27,10.82,68.1,2,18.42,2.19,37,2.65,55.6.24,9.74.24,19.48.18,29.23Zm-23.62-262.33c-3.41-15.77-6.36-29.89-9.55-44-2.55-11.19-5.38-22.32-8.13-33.47-3.92-15.83-7.39-31.79-11.94-47.44-6-20.52-12.36-40.94-19.38-61.13-6.63-19.09-14-37.94-21.6-56.68q-13.69-33.88-28.31-67.38c-5.87-13.5-12.26-26.78-18.9-39.92-10.77-21.31-22-42.37-32.91-63.61-14.52-28.3-32.2-54.67-49.38-81.35A300.22,300.22,0,0,0,64,822.47v294a416.7,416.7,0,0,1,55.29,34.91c12.53,9.45,24.56,19.81,36.36,30.35,12.29,11,24.92,21.82,37.28,32.8,30.68,27.26,57.25,58,76.18,94.82C276.41,1323.58,283.66,1337.79,291.79,1353.67Zm-48-626.14c14.43-8.68,3.38-18.24.19-26-5.51-13.3-13.47-25.59-20.48-38.26-9.22-16.69-18.13-33.56-27.87-49.94-10.75-18.07-21-36.65-33.78-53.23-15.72-20.41-29.91-42.1-48.69-60.2C99.15,486.43,87,471,73.33,457.11q-4.62-4.69-9.33-9.32V789.68q2.2,1.05,4.42,2c20.5,8.8,38.14,22.45,55.31,36.5,15.91,13,31.49,26.42,47.13,39.75,1.6,1.35,2.35,3.85,4.06,4.87,4.49,2.68,7.5-1.56,8-11.45,1.12-22.12,9.46-42.22,16.9-62.66,9-24.63,23.09-46,39.19-66.36A24.63,24.63,0,0,1,243.78,727.53ZM225.39,1616c.92-20.94-.53-41.89-.83-62.79a333.65,333.65,0,0,0-6-59.17c-6.26-32-11.64-64.17-21-95.66-7.72-26.15-15.21-52.35-26.41-77.07-12.41-27.37-26.64-54-41.1-80.34-18.47-33.68-40.81-64.63-66.13-93.46V1616ZM56,1618.34V61.66l-48-48V1666.34Z"/><path d="M146.6,1200.06c.07.12-.74.7-1.38,1.29l-1.54-2.1c.5-.32,1.22-1,1.47-.88A4.2,4.2,0,0,1,146.6,1200.06Z"/></svg>