<svg xmlns="http://www.w3.org/2000/svg" xmlns:xlink="http://www.w3.org/1999/xlink" viewBox="0 0 976 1600"><defs><style>.cls-1{fill:none;}.cls-2{fill:#f4f3ef;}.cls-3{clip-path:url(#clip-path);}.cls-4{fill:#50b271;}.cls-5{fill:#ffb85a;}.cls-6{fill:#997664;}.cls-7{fill:#d81e1e;}.cls-8{fill:#592116;}.cls-9{fill:#992d17;}</style><clipPath id="clip-path"><path class="cls-1" d="M960,22V1578a6,6,0,0,1-6,6H22a6,6,0,0,1-6-6V22a6,6,0,0,1,6-6H954A6,6,0,0,1,960,22Z"/></clipPath></defs><g id="Paper_Backing" data-name="Paper Backing"><path class="cls-2" d="M960,22V1578a6,6,0,0,1-6,6H22a6,6,0,0,1-6-6V22a6,6,0,0,1,6-6H954A6,6,0,0,1,960,22Z"/></g><g id="Wikipedia_Cropped" data-name="Wikipedia Cropped"><g class="cls-3"><path class="cls-4" d="M150.23,1426.49c-10.56-2.85-14-10.09-15-21.58-4.29-15.46-12.25-32.05-15.56-48.71-17.72-49.8-35.89-102-56.72-150.75-15.33-36.61-30.86-72-48.41-106.42C-17.33,1088-.64,749.39-3.62,722.85-1.6,514.33-33,260.44,100.66,83.54c20.94-29.9,70.12-76.1,97.17-87.18C226.06-1.73,344.58-5.75,370.63-4c3.15,1.61,6.06.94,9.24,0,3.29,2,201-3.7,202.68,1.92-13.64,36.7-37.51,73.23-56.47,107C427.22,297.24,278.73,463.58,173.64,650.16,133.89,730,126.24,818.9,135.47,908.1c-20.84,32.77-35.88,80.16-34.53,115.81,10.51,19.52,24.38-17.84,32.93-22.13,6.51,1.83,7.27,16.75,16.28,8.75C200.59,1120.08,205,1308.83,150.23,1426.49ZM814.52,1001.2C654.22,795.87,594.06,530.06,667.65,285.06c-76,28.87-130.5,110-162.4,182.85C492,498.13,482.47,532,473.31,562.72,471,580,470.68,602.86,456.9,614.37c-40.59-21.06-55.73-93.76-58.14-141.32-5.49-78.79,36.26-154.29,88.69-212.5,81.62-89.18,197.32-149.72,319.79-163,11.33-3.47,26.64,1.85,35.64-4.28C859.75,73,875.26,57.66,891.29,37c3.83-3.14,6.45-9.75,12.25-7.88,9.24-3.33,10.6-16.76,22-19.58C933.63,8.9,927-3.5,934.42-4c2.78.41,47.41-3.28,45.58,4-.85,110.5.43,357.29,0,463.25-59.28,104-103.67,230-130.21,346.78-7.32,39.55-15.43,80.36-20.71,119.53C824.83,952.58,831.41,985.46,814.52,1001.2Z"/><path class="cls-5" d="M103.76,1032.8c-3.55.14-5.25-4.4-4.68-6.88,2.74-54,24.45-101.2,52-146.71,4.24-22.19.33-41,16.72-63,12.89-2,13.42-19.6,18.2-27.92,9.72-16.71,19.75,11.68,32.31,9.31,9.48-1.42,18.88,3.49,27.67,2.82,4-2.53,7.55-3.71,11.09-3.66a6,6,0,0,0,5.91-5c2.56-5.11,10.12-6.39,14-10.62,38.26-24,14.74-75.76,27.63-70.3,16.73,6.17,35,20.56,53.29,15,12.19-4.72,11.25-18.64,14.65-29.49,10.22-42.85,54.28-46.41,92.41-38.93,4.73.24,10.63,8,15.49,2.54,47.92-10.48,101,7.78,148.76,16.29l-.44-.27c13.07,20.34-37.71,16.2-43.05,28.59-2.43,10.55,29.74,14.33,16.74,23.71-79.28-3.49,10,31.58-60,16.78-16,3.94,4.5,14.61,2.22,22.27-8.34,7.28-25-6.23-32.39,2.92-2.67,8.21,11.64,15.09,10.78,22.2-.48,14.42,13.22,26.41,14.78,54.55,9.2,38.57,7.2,81.05-2.81,121.09-9.77,8.78-22-18.87-31.35-22.71-8.42-5.5-35.81-37-39.07-16.33-8.25,13.8-47-5-60.52-6.55-23.66-.26-78.6-66.22-75.27-19.5,2.48,12.79-10.65,13.11-15.12,5.19-30.17-29.42-16.89,7.06-33.86,17.66-30.69-32.36-19.56,20.64-42.34,17.91-21-33.55-24.59,4.73-42.18,19.63-3.45,4.59-7.45,2.56-11.68,1.26-12.8,9.07-17.61,28.55-29.61,40.36-14.65,25.4-11-10-24.32,2.33C122.62,1016.43,114.06,1028,103.76,1032.8Z"/><path class="cls-6" d="M832.5,1604c-11.24-83.86-10-183.46-13.15-273,1.48-33.8-9.35-68-6.72-102.34-1-8.11-7.93-21.32,1.54-26.63,3.32-2.11,3.31-6.3,1.23-9.29-6.68-14.88-4.37-29.77-2.41-44.34,4.27-37.85,24-63.13,41.69-94.72,41.32-86.31,58.15-183.12,89.78-273.27,8.25-27.38,14.33-57.19,31.53-76.69,12.22,7.25-2,131,4,136.71-3.29,4,6.44,249.45-3.56,249.39-30.27,86.86-30.79,191.78-29.54,285.7,4.49,64.45,7.73,129.61,16.65,193.46-1.75,9.47,10,31.39,1.27,35.06Z"/><path class="cls-7" d="M742.14,1501.74c-13.59-31.88-14.86-75.33-28.09-109.89a825.33,825.33,0,0,0-66.58-149.54c-32.47-55-70.39-108.14-114.61-154.68-55.18-68.11-24.29,23.28-26.54,53.58-1.56,9.36,3.9,24.83-2.68,32.36-6.17,1.8-3.25,9.86-5,14,.73,11.47,10.71,23.58,4.2,35.48a6,6,0,0,0,1,7.24c6.88,10,.49,24.3,4.28,34.38.95,26.8,1.72,50.66-2.73,76.63,1.23,18.35,3.83,46.72-6.72,61.3-11-22.86-2.56-58.82-9.12-85.48-9.42-92.83-33.33-184.82-73.34-269.69-13.66-29.34-29.35-59-47.94-85.05-8.24-10.32-15-19.14-8.21-31.67,4.06-10.1,2-24.08,7.8-33,27.91,13.69,59.06,26.81,93.19,28.45,10.49,8.28.71,15.08,19.37,11.87,68.33,49.91,115.9,121.17,156.08,194.23,2.3,6.71-4.85,7.4-5.67,12.57,1.52,7.69,10.22,13.51,10.21,21.94a6,6,0,0,0,4.2,4.8c10.46,11.53,12.71,28.15,23.13,39.2,2.46,3.94,5,8,4.56,12.32,5.18,9.79,14.08,16,13.48,30.93,5.23,7.85,15.52,15.16,14.65,26.53,6.06,11.19,14,24.38,13.8,37.79,6.44,12.42,13.42,27.4,11.62,43.19-2.06,4.43-.72,8.62,3.24,11.3,9.06,10.33,3.92,26.93,8.63,38.19,7,21.22,5.38,45.82,7,67.64C744.07,1485.57,750.33,1499,742.14,1501.74ZM266.88,796.53c-23.37-6-50.63-2.25-67.83-21.43-29.88-20.54-12.2-65.26,19.51-73.92,74.28-13.9,28.06-.64,90.4-48.86,30.27-13.07-10.94,37.36-14.23,46.51-5.16,9.27,8.77,9,11.92,14.45C317.85,744.58,296.85,783.33,266.88,796.53Z"/><path class="cls-8" d="M979.27,832.16c-36.09,80.76-53.21,167.05-72.4,252.87-9.25,45.5-22.5,89.92-32,135.44-7.45,26.84-2.1,50.13,17.59,69.5,1.77,2.86,9.27,3.45,5,8.44s-9.29-.16-12.28-2.65c-32.7-24.23-25.55-71.51-12.66-114.2,9.84-37.7,18.35-75.85,28.27-113.57,14-66.18,27.79-133.13,53-196.12,4.37-7.57,19.39-51.5,26.47-48.3C983.57,825.29,980.53,829,979.27,832.16ZM976,430.07c-7.73-12.43-27.64-77.79-19.14-88.95,5.82-10.14,14.72-18.43,21-28.35,2.27-3.58,10.5-7.79,5.09-12.13-3.21-2.58-5.16-.22-7,2.66-6.51,8.18-11.46,17.38-20.53,23.35-12.42,6.84-24.52,14.27-36.6,21.71-31.79,21.47-68.26,35.47-100.79,54.65,9.21,4.06,37-11,46.77-15.37,28.23-13.14,54.23-32.34,81.36-46.34-9,17-19.6,37.36-38.43,48.45-29.54,19.15-61.65,33.88-93.22,49.47-2.07,1-6.58,2.65-4.82,5.92,3.21,5.62,15.75-5.24,20.9-6,29.74-10.95,56.23-28.44,83.35-43.86.17,0,.89,1.49.66,1.89-6.06,10.32-10.23,22.37-17.32,31.22-28.12,28.2-70.86,38.53-105.56,57.16-1.75.82-5.33,2.78-3.93,5.62,1.83,6.95,22.92-9.09,28.42-10,24.9-8.53,46.8-23.65,70.83-33.53-7.5,54-66.52,68.26-105.69,94.14-.89.68-3.76,1.49-1.91,3.63a3.81,3.81,0,0,0,5.28.93c28.58-13.53,55.94-28.53,81.7-46.92,1.89,3.88-.11,7.4-1.67,10.53-4.38,8.74-2.4,20.39-9.81,27.09a569.85,569.85,0,0,1-82.16,56.43c-1.59.73-2.46,3-3.66,4.62,20.13,1.11,62.9-37.29,83-48.91-4.28,13.76-6.36,29.65-14.22,41.07-8.65,11.92-21.48,21.19-33.63,30.07-19.32,14.14-37.42,30-58.23,42.1-7,2.48-2.5,8.36,3.1,4.45C782,651,807.25,625.69,835.76,603.14c-3.92,16.05-3.73,35.76-12.4,48.69-25.8,27.89-57.35,51.09-84.75,77.66,33.21-15.64,56.66-43.17,84.41-66.7-1.45,7.66-1.84,15.1-4.34,21.75-3.65,9.71.94,21.2-7.72,29.81a584.87,584.87,0,0,1-55.73,49.34c-7.5,5.77-11.71,10.93-14,18.16,27-17.81,49-39.11,71.74-61.89-2.57,17.36,2.88,39.77-11.06,51.23-21.33,17.61-41.13,37.35-61.65,55.93-2.23,2.09-3.32,5.39-4.94,8.12,11.17,2.17,23.35-17.79,32.46-23.59,13.61-11.46,25.22-24.77,38.5-36.44,3.2,21.52-1.62,42.18-16.57,59.24-22.62,28.64-43.87,58.48-69.93,84.32-1.26,1.39-4.7,2.84-1.94,4.9,2.38,1.78,4.92-.77,6.67-2.7,4.92-5.45,8.72-12.71,14.73-16.23a58,58,0,0,0,10.6-8.08c21.1-21.57,35-42.74,53.58-69.25-1,13.64-3.65,24.29-2.14,34.31,2.56,30.09-15,54.51-23.79,81.63A357.56,357.56,0,0,1,758,982.42c-.89,1.52-1.92,2.66.36,4,12.63,0,38.25-75.74,43.66-90.57,4.06,35.15,6.25,67.3,12.48,101.34,2.15,13.1,4.39,26.19,6.56,39.29.22,1.35,2.25,2.4,3.44,3.58.42-1.43,1.31-2.91,1.18-4.29-1.41-15.6-3.7-31.08-6-46.56-3.89-29.19-8-56-6.24-86.76,7.24,19.41,18.75,50.74,37.35,60.38-.16-1.34.07-2.91-.56-4-7.63-13.28-15.65-26.33-23.15-39.69-16-30.85-17.38-66.12-13.09-99.9.91.9,2.41,1.68,2.64,2.74,2.55,11.53,11.56,19.18,18,28.06,6.52,9.1,33.43,42.3,44,37.32-1.55-3.08-3.12-6-7-7-11.19-11.66-21-25.44-32.15-37.31-21.12-20-30.87-53.35-21.53-81.48,12.9,22.82,37.77,78.69,62.14,84-21.4-29.8-44.16-58.25-57.35-92.85-5.94-14.35-1.09-28,1.07-41.41C825,703.84,822,695,827.61,689c14.5,35.24,29.12,70.89,58.42,97,1.11-10-6-13.68-9.53-19.39-4.62-7.51-9.39-15-14-22.48-12.79-21.66-26.85-44-31.08-69.12-1.95-13.85,4.14-27.21,6.44-43.46,9.45,22.27,33.51,95.9,58,98.22-2.6-2.21-3.52-2.66-4-3.4-16.12-27.75-32.06-55.59-42.73-86-2.63-7.51-8.22-15.41-7.3-22.45,2-14.89,7.32-29.33,12-46.54,17.17,37.55,27.75,74.21,55.23,104.74,5,5.62,8.21,2.56,4.09-2.62-16.13-25.08-31-51.09-41.63-79-5.12-13.07-15.31-25.38-12-40.23,3.44-15.46,9.62-30.3,15.44-47.94.65,28.6,33.75,106,55.42,125.15,2.15,3.29,5.83-.2,3.47-3.15-20.18-32-37.88-65.9-48.46-102.36-2.72-10.09-7.57-20.12-6-30.71.88-6.08,6.57-11.48,7.41-17.56,1-7.55,3.9-13.94,7-21.25C908,488.46,922.15,550.18,958,563c-22.59-24.93-35.59-49.4-45.94-80.09-4.36-14.25-16.19-26.88-10.88-43.45,5.92-13.91,13.79-25.81,21-39.74,4.21,41.53,21.3,77.79,40.94,114,1.27,2.47,3.68,6.55,6.65,5,3.51-1.8-.78-4.11-1.69-6.15-13.06-29.7-27.52-59-36.13-90.45-2.58-10-8.26-21.51-5.52-30.09,4.44-13.88,14.67-25.9,22-38,6.24,32,7.72,68.26,34.46,91.82A76.33,76.33,0,0,0,976,430.07ZM826.26,1202.73c20.69-21.17,22.36-58.1,18.6-86-.23-1.42-2.41-3.1-4-3.6-2.49-.76-3,1.5-3.05,3.38-.32,12.43.16,24.94-1.06,37.28-7.38,57.46-27.87,47.67-19.79-4.89,7.53-59.85,58.87-101.55,68.79-161.35,17.79-69.45,43.49-137.29,62.6-206.23a304.8,304.8,0,0,1,26.41-71c1.25-2.12,2.87-5.67.38-7.72-.54-.5-3.15.11-3.67.93-20,27.79-29.11,60.53-37,93.37-16.83,57-37.52,113.27-53.23,170.6-6.6,43.75-28.42,80.85-51.65,117.6-43.68,72.46-16.61,158.82-16.43,238.07,4.95,70.79,5.77,141.66,5.75,212.67l1.39.07c2.62,9.28,3.61,62.15,12.17,60.93,4.61,0,2.75-4.57,2.43-7.28-9.92-94.08-9-189-12.3-283.42-2.71-23.92-6.71-50.58-6.52-74.12C819.78,1222.33,801.65,1204.48,826.26,1202.73Zm145.24-125.4c-10,39.11-14.67,80.14-22.38,119.94-8.63,82-8.93,164.43-2.06,246.5,2.31,19.25,5.74,39,5.2,58.38-.34,9.49-.32,19.41,1.49,27.95,4.53,21.38,5.76,43.07,9.1,64.52-.11,8.37,9.21,7.63,10,.16-8.46-43.76-14.16-88.25-11.74-133h-2.21c-7.91-88.51-11.68-178.1-1.68-266.65,4.94-34.45,11.69-68.6,17.5-102.91C975.31,1087.55,976.89,1079.32,971.5,1077.33ZM659.84,194.72c-12.2,3.18-21.2,13.68-32.84,16.4-13.61,3.19-28,3.22-42.44,2.27-24.45-1.61-49-.44-73.54-.44l-.21,4.5,99.9,4.38c-11,7-20.19,17.45-31.83,22.76-25.53,10.32-53.81,4.93-80.47,10-9.46,1.94-20.56-.33-28.87,4.93,16.21,9.34,75.74-2.43,97.88-4.28-11.7,10-19.16,25.93-35,29.57a448,448,0,0,1-64.81,6.29c-3.18.16-5.75,2.43-11.15,4.85,25.28,2.11,49.44,1.58,73.92-4.8,1.22-.36,3.55.13,2.37,1.77-19.87,35.75-33.57,38.65-72.32,43.88-6.87,2.67-35.83,1.33-36.33,7.66,14.28,7.63,63.51-6.88,80.31-12.44-11.42,17.85-15.64,42.15-38.58,49-23,8.7-45.78,17.82-68.58,27-2.73,1.1-7.52,2.53-5.87,6.4,3.11,5.22,11.86-1.88,16.14-2.71,22.73-9.14,45.31-18.67,67.94-28,1-.26,3.41-.92,3.17.87-7.19,12.08-7.25,28.21-21.11,36.58-17.82,15-36.58,29.12-55,43.44-2.76,2.11-5.66,4.65-4.15,7.45,1.07,2,2.75,1.8,4.44.91,20.37-14.54,39.35-30.95,59.69-45.52-.21,17.47-8.23,35.14-18.29,49.7-15.35,22-31.67,43.92-47.26,65.33,16.43,2.81,42.2-50,53.79-63.24,1.43,13.34-3.6,25.51-8.46,36.53s-6.68,22.86-12.18,33.57c-7,13.73-12.86,28-19.1,42.16-.42,1,0,2.29,0,3.45,19.94-13.08,27.31-53.54,37.9-75.61-4.11,30.4,3.64,61.26,6.11,91.64,1.55,9.76,6.8,30.13,13.6,37.09,3.66-14.05-5-29.35-6.47-43.59-4.58-22.71-3.58-46.06-6.22-69-.51-2.88.16-5.17,2.19-6.88,7.5,25.06,13.32,50.31,33.66,68.85-19.08-44.64-40.59-87.36-27.58-138.92,6,28.18,14.39,49.73,34.15,70.5.87,1,2.83,3.55,4.42,1.4,2.6-5-13.43-19.64-15.43-26.61-18.61-38.76-21.54-71.52-3-111.17C488,430.1,494.69,466,518.64,495.13c5.92,4.93,8.77,1.56,4.05-3.55C498.76,454,477.45,386.67,506.88,347.17c1.43,37.51,11.06,74.58,32.55,105.65,1.87,2.42,5.24,2.19,5.3-1.27-6.94-16.51-16-32.29-21.39-49.39-7.27-33.38-17.52-78,14.92-101,2.59,27,2,55.88,14.2,80.84,2.07,4.13,3.6,10.88,8.9,9.85,2.92-.95-4.94-16.49-4.9-20.75-9.48-40.65-22-90.81,24.14-113.69-3.31,18.61-4.72,72.68,8.47,86.6,3.09-3.31,1.29-7.13,1.12-11.05-1.36-12.59-3-25.13-3.8-37.84-.74-12.05,2.16-23.68,1-35.59-.38-3.82,1.05-9.41,3.75-11.65,11.7-9.68,24.18-18.42,38.1-28.8-9.12,21.94-21.39,86.68-5.31,105.91-.53-36.71-.82-76,14-109.8,4.69-1.48,35.55-22.93,34.85-13.8-8.08,23.63-23.84,64.74-11.88,87.69,3.23-1.94,2-5.15,2.12-7.89-.07-24.19,5.85-48.5,14.1-71.26,6.33-23.17,15.84-21.28,35.59-28.21-7.17,20.47-24.41,49.59-18.69,71.13,9.25-12.08,19.31-73.3,33.08-76,20.74-5.21,41.61-9.71,63-11.19-1.58,5.6-6.33,9.32-10.19,13.38q-30.6,28.58-61.35,57c-1.48,1.37-2.68,3.07-.78,4.51.76.56,3.19-.22,4.27-1.1,15.52-12.67,30.93-25.47,46-38-18.12,58.45-73,91.69-118.41,128.28,9,4.19,26.59-16.39,36.08-20.47,17.13-9.31,29.89-27.92,46.74-35.9,1.56.86.81,1.62.25,3-4.6,11.4-4.57,24.89-12.85,34.45-25.22,29.15-55.62,52.48-87.71,73.38-1.95,1.27-6.06.62-4.85,4.44.18.57,5.48-.3,8.36-.84A318.33,318.33,0,0,0,716,326.3c-3.6,32-7.8,37.85-31,59.6-22.64,23.25-47.65,43.82-72.49,64.62-1.79,1.5-5.31,2.6-2.79,5.44,2,2.27,4.05-.92,5.7-2,33.43-21.52,60.45-50.37,89.26-77.45-2.7,15.7-3.55,32-13.68,45.25-24.85,36.78-53.87,70.11-88,98.54-4.69,2.87.27,6,3.77,3.87,35.43-26.88,62.44-60.4,90.16-95.23-1.3,6.54.56,14.12-1,18.37-4.88,13.64.58,28-6.48,41.74-13.46,26.31-29.06,51-47.87,73.76-3.48,5.8-10.85,10.4-11.39,17.26,5.19-.33,8.31-6.09,12.2-9.08,20.38-20.66,34.64-44.88,50.42-69.46-.29,22.13,3.2,44.3-4.45,65.2-8.58,23.45-15.51,47.65-28.29,69.39-1.27,1.89-.11,2.8,1.31,3.85,1.61,1.59,2.61.4,3.48-1,11.26-18.18,20.4-37.26,25.26-58.25.62-2.69,3.42-7.3,4.22-7.1,3.81,1,2.33,4.75,2.44,7.59-.34,21.43,7.26,42,10,63.13,3,18.76,9.64,36.4,16,54.3-7.88-46.24-17.82-92.18-20-143.15,5.74,10,35.23,78.75,43.14,69.94,2.49-2.33-.74-3.9-1.71-4.57-5.58-3.83-6.14-10.54-8.83-15.76C724.91,584.82,715.61,564,706,543.26c-7.28-15.62-4.46-32.09-4.62-52.05,8.56,25.7,25.71,45.12,40.31,67.33,2,2.75,5.31,6.44,10,4.54,2.62-1.07,1.85-3.69.51-5-8.25-7.89-14.25-17.45-20-27.11-13.9-23.54-33.22-45.35-28.9-75.58,1.81-12.73-.64-25.94,4.14-38.2,13.32,22.27,29.87,74.1,51.11,85.6,1.71-6.7-4.83-9.45-7.47-14.45-18.19-42.21-55.59-83.77-32.48-131.43,13.06,29.43,26.12,60.47,44.88,87.75,1.26,1.91,3.1,3.13,5.53,2.08,2.72-1.17,1.18-2.63.32-4.3-10.53-20.37-21.5-40.54-31.29-61.27-21.53-37.69-14.66-55.18.09-93.86,7.13,34.49,23.82,63.34,37.56,95.12,1.31,2.82,4.11,6.94,8.9,6.55,5.3-.89,1.24-8.5-3-8.47-8.47-21.07-16.43-42.64-26.06-63.24-5.84-12.42-12.35-26.93-12.54-38.15-.26-14.53,12.15-29.28,20-45.78-1,15,5.21,26.25,9.6,37.67,8,20.79,17.45,41,26.65,61.33,1.59,3.51,3.71,9.76,8.49,7.52,4.3-2-1.19-5.07-2.28-7.72-11.63-35.53-34.89-70.72-37.39-108.34,1.8-9.81,9-18.61,14.07-28.17,6.8,28.8,16.24,55.09,26.81,82.34,3.69,10.25,7.54,20.39,13.61,29.53,1.59,2.4,4,2,5.69,1.05,2.15-1.29-.21-2.65-.78-4C812.79,270.71,800.56,235.89,792,200c-1.25-5.19-6.49-10.5-2-17.14,6.79-9.5,10.35-21.18,18.57-29.69,9.79,35.93,18.44,72.76,33.84,107.1,1.35,3.31,3.31,3,5.12,2.32,2.83-1,1.66-3.57.9-5.45-13.64-33.32-24-67.56-29.32-103.25-.67-4.47-6.15-7.87-2.43-13.37,7-9.11,11.58-20.61,19.54-28.64,1.93,11.1,3,22.5,6.67,33.36,6.51,22.43,12.82,44.92,19.36,67.34.37,1.3,2,2.23,3,3.33.58-1.38,1.9-2.93,1.64-4.12-6.35-35.21-21.21-69-23.28-104.82-1-16.2,16-24,23.85-36.61,3.37,35.78,11.18,69.58,17.69,104.82.51,2.55.48,7.58,5.26,7.45,1.59,0,2.79-2,2.25-4.68-4.58-26.47-11.29-53-15.08-79.49-4.83-34.34-2.31-41.23,23.22-65.8.54,17.18-2.13,33.72,1.87,50.22,3.67,15.19,5.36,30.84,8.52,46.17.5,2.43,2,6.43,6,6.51,1.13,0,1.74-1,1.22-2.89-2.72-10-7-20.22-7-30.32.18-28.3-16.09-71.14,14.69-89C932,45,931.11,77.63,942.91,108.13c.55,1.49,0,3.76,2.16,3.65,4.43-4.66-2.11-22.45-2.17-29.4-4-24.58-7.7-49.18-5.84-74.21-.49-10.9-28,8.35-31.87,11.48-17.19,12.77-30,29.84-43.72,45.94-9.41,11.08-20.29,20.88-28,33.53-8.21,13.48-17.35,26.41-26.51,39.27-5.41,7.6-7.08,19.66-19.16,20.1-8.79.32-17.3.33-26.56-2.89Q716.06,139.91,672,121.46c-3-1.27-7.63-5.16-10.71-.86-1.92,2.68,2.26,4.32,4.33,5.4,26.74,13.63,55.4,23,83.61,33.05,1.88.51,4.32,2.76,2.63,3.23-12.24,3.39-24.69,8.1-37.1,8.17s-24.68-4.93-37.07-7.45c-14.21-2.89-28.49-5.5-42.26-9.83a133.9,133.9,0,0,1-23.49-9.74c-1.88-1-4.64-1.39-5.59,1.18-1.35,3.79,6,2.95,7.74,3.71,25.63,18.93,59.21,19.9,89,28-9.7,2.22-19.12,9.36-28.75,9.9a239.24,239.24,0,0,1-49.41-3.13c-24.1-4.16-48.39-7.32-72.6-10.82-1.25-.18-2.66.67-4,1,4.4,6.26,14.5,5.11,21.31,7.74,16.41,3.9,32.52,8.56,49.67,8.58,12.75,0,25.27,6.08,38.33,1.82C658.72,191.26,661.44,193.29,659.84,194.72ZM930,1127.7c-1-3.17-1.59-4.87-2.15-6.57-27.37,34.2-7.93,152.17-20.86,200.74-6.59,52.71-14.08,106.42-37.21,154.74-1.16,2.66-5.25,5.8-1.83,8s7.88-.41,9.84-4c20.46-33,26.12-71.12,31.57-108.84,11.84-54.43,12.8-109.73,12.44-165.18,0-9-1.6-18.24-.31-27C924.09,1161.81,921.85,1143.39,930,1127.7ZM873.9,1539.19c-4.62-14-8.77-28.26-15.2-41.4-5-10.29-5.33-21.06-7.15-31.63-3.33-13.2-.11-27.8-3.24-40.69-4.6-.94-5.65,1.87-5.4,6-2.14,13.53-1,27,.22,38.71-1.89,21.42,9.89,37.25,14.89,54.94,6.28,22.27,16.93,43.36,16.92,67.21,0,2.79,1.38,4.35,4.08,4.66C893.44,1595.28,876.68,1548.57,873.9,1539.19ZM829.43,48.35c1.48,2.47,4.06,5.39,7.7,3.66,2.42-1.14.09-2.75-.47-4.08a181.46,181.46,0,0,0-24.8-42.77c-1.21-1.48-1.51-5.06-2.31-7.52C807.38,2.18,805.2,6.72,808,11,815.21,23.41,822.08,36,829.43,48.35ZM759,7.24c7.79,15.32,33,89.54,49.68,87.66,3.81-2.94-6.48-11.4-7.56-15.35A719.76,719.76,0,0,1,766.86,6.34c-.93-2.34-3.43-3.48-6.12-3.4S759.15,6.26,759,7.24ZM716.79,9.45c11.94,34.89,29.66,77.81,60.09,100.47,1.74-1.74.37-3.63-.71-5.19-13.88-20-28.65-39.48-38-62.15-4.93-11.92-13.09-22.4-15.47-35.48-.37-1.79-3.2-4.74-4.53-4.56C715.15,3.32,717.4,6.42,716.79,9.45Zm31,1424.61a646.45,646.45,0,0,1,1.14,110.26c-.24,3.07-.81,8.32-4,8.23-3.62-.1-2.44-5.35-2.82-8.22-.47-43.49,1.08-86.91-6.22-130.12-2.56,5-5.63,9.55-7.57,14.8-.75,2.11-1.56,4.24-3.27,3.37-3.4-1.73-2.64-5.83-.89-9.52,9.5-14.95,12-32.2,2.14-47.9-4.24,6.25-5.29,17.88-12.27,20.45-2.91-12.28,6.83-22.88,8.52-34.72,2.38-10.76-4.8-20.25-5.7-32.66-4.82,8.78-6.58,31.58-15.48,32.61-4.46-2.8-.42-9.11.75-13,10.21-27.58,12.1-30.45-.25-58.94-1.28,13.65-6,24-9.8,34.44-1.41,6.88-6.73,12.16-6.9,1.18,2.46-9,4.75-18.21,8.57-26.69,5.46-12.11,4.22-23-3-33.59-.34-.49-1.84-.88-2-.66-6.2,11.64-6.2,26.49-13.32,37.59-9.63-19.74,18.39-36.46,1.4-67-1.27-1.72-2.23,1-2.73,2-2.87,6.51-8,39.75-14.08,39.47-4.54-3.25.07-12,.69-17,2.92-11.78,6.49-23.45,8.28-35.4.67-4.45-4.3-9.76-7-15.34-2.28,12.13-5.17,23.52-10.43,34.34-2.1,4.3-2.54,9.34-6.93,12.33-3.5-7.18.74-13.42,2.67-19.66,4.12-11.47,7.28-23.21,8.06-35.14,0-7.84-8.34-15.9-11.17-24.07-3.76,12-5.37,42.22-14.9,49-7,1.21,6.95-39.91,7.32-45.68,2.42-9.64-.08-18.2-6.07-25.43-1.93-2.35-2.87,1.38-3.38,3.32-3.14,6.71-8.62,47.71-17,43.83-3.33-1.47,0-5.32.75-8.18,4.1-15.75,8.48-31.46,11.8-47.38,1.94-9.31-8.32-13.8-10.67-24.15-4.32,15.37-8,28.85-11.9,42.09-.71,2.72-1.89,7.37-4.86,8-2.79.17-2.13-2.7-2.28-4.59-3.36-23.28,26.73-50.47.31-67.56-2.14,8.73-6.82,47.64-16,49.11-5.29-2.58.61-9.56.66-14,2.55-13.72,6.29-27.23,8.94-41,1.12-9.18-8.42-14.09-13.1-20.8-.79,7.77-13,51.12-20.55,50.56-.56-19.8,10-37.74,13.68-56.89,1.54-6.31-5-10.62-9.52-12.66-3.41-1.53-2.71,5-3.93,7.69-5.58,12.21-10.1,24.91-15.24,37.32-.89,2.16-2.15,5-5.32,4.53-.87-.13-2.25-1.39-1.18-3.51,4.38-18.64,13.65-36.09,18.49-54.66.88-3.12-5.93-8.4-9.61-13.23-3.23,15.83-7,30.2-15.07,42.94-2.13,4.27-2.29,11.89-6.54,9.33-5.1-4.23,1.06-11.89,2.33-17.5,3.93-13,9.15-25.74,11.74-39,1.24-6.35-7.81-9.05-11.31-14.89-.65,16.81-5.86,31.28-13.27,45.25-4,9.76.48,19.16,1.48,28.72,1.81,34.59,5.25,69.17,4.93,103.87-2.46,46.86-1.71,94-2.26,140.76-2.47,24.19-1.12,48.68-6.77,72.7-3.3,13.69-1.54,29.45-10.24,41.54-6.58-6.84,3.07-35.39,3.11-46.2,2-18.22,5.71-37.33,3.18-55.45-5,4.17-6.3,11.31-13.3,13.4-.83-19.8,19.48-6.4,16.55-53.34-4.62,3.75-10.4,15.71-15.81,14.74,1.57-12.34,15.23-18.83,15.37-31.2a91.46,91.46,0,0,1,.73-19.18c-7.95,9.75-14.81,18.18-22.63,27.76,3-27.48,28.88-29.29,18.87-60.63-.42-9-15.67,25.68-26.21,25.79,3.26-15.09,16.83-25.93,23.9-39.32,4.37-7.49-.91-16-2.6-25.56-7.76,12.2-13.78,28.15-26.29,33.92,11.28-29.5,31.61-32.42,22.63-67.82-10,12-18,24.29-28.39,35.11-3.48-2.9,11.45-25.47,14.63-28.5,12.44-13.35,11.67-31,4.81-45.17-11.22,12.74-14.7,32.41-29.11,42.17,2-15.63,12.93-29.27,21.26-42.43,4.76-6.81,7.47-14.08,3.36-22.25-1.83-3.64-.07-12.53-3.18-10.7-5.29,3.11-7.45,11.28-11.4,17-4.69,6.75-7.77,14.56-12.05,21.58-2.22,4.42-17.52,22.87-13.47,6.91,3.33-5.57,6.73-11.1,10.14-16.62,8-12.93,16-25.82,23.44-39.07,4.42-7.9-3.16-15.78-4.14-23.89-12.36,17.51-19.21,43.68-37.67,56.69,6.43-24.46,26.36-42.86,34.29-66.38,2.22-6.66-4.39-16.27-7.66-26.65-3.84,21.71-15.95,37.41-25.69,54.07-1.95,4-5.8,10.7-10.57,9.76-2.32-2.27,1.6-3.09,2.47-4.82,9.4-18.7,19.5-37.09,28.27-56.08,5.92-11.55-2.07-22.73-5.92-33.54-7.8,13.29-20.64,56.75-32.65,61.88-1.46-4.7.74-8.08,2.63-12.12,7.24-16,14.64-31.94,22.05-47.87,5.67-12.2-2.06-20-9.1-28-1.48-1.68-1.84-.83-2.35.93a354.05,354.05,0,0,1-20.9,54.49c-3.57,6-5,13.92-11.25,17.71-2.72-8.74,4.88-17.17,7.06-25.57,3-7.39,5.95-14.76,8.88-22.16,4.13-10.45,9.78-20.69,11.56-31.54,1.38-8.46-8.76-13.76-11.9-21.13-9.13,28.55-17.73,57.23-30.06,84.38-.08.92-2.63,1.62-4,2.43-4.63-13,6.84-25.44,9.73-37.67,4.93-16.49,9.82-33,14.84-49.44,5-16.22,7.73-32.87,10.28-49.61.25-1.63,3.09-2.86,4.73-4.27,4.46,15-7.62,30.92-3.15,45.77,3.25,10.37,13.74,18.43,20.88,27.65,12.19,15.72,20.75,33.17,27.87,51.85,21.66,52.83,28.88,107.17,40.82,163.11.52-69.36-10.95-136.81-29.83-203.21-11-42.31-30.95-81.08-54.77-117.52-2.52-4.18.25-7.45,2.61-10s4.66-.06,6.5,1.94c22.49,22.57,27.83,56.3,49.62,78.65,32.08,20.86,58.08,49.51,81.47,79.6,67.59,81.5,115,176.67,149.56,276.31C727,1326.44,741.49,1379.82,747.78,1434.06ZM494.06,988.31c-.82-.44-1.72-.73-2.58-1.1,2.69,19.11,9.63,37.8,14.28,58.63C515.44,1020.12,520,1000.85,494.06,988.31Zm138.69,145.41c-40-72.38-86.94-142.91-154.6-192.36,9.29,13.3,1.12,34.07,22.59,43.07,17,7.12,28.91,23.41,41.56,37,31.49,36.13,64.31,72.31,87.09,114.82C631.35,1137.92,633.37,1136,632.75,1133.72ZM675.61,41.91c9,18,23.93,63.93,43.33,69,2.27,0,2.48-1.4,1.71-2.63C698.83,77.91,682.37,44.34,673,8.09c-.5-5.54-8.23-13.59-9.71-4.36C667.09,16.55,670.54,29.57,675.61,41.91ZM633,45.25C638.57,62,643.61,79,655.78,93c3.79-9.53-2.77-16.11-5.56-23.07C642.08,49.65,635.1,29.18,631,7.72c-.49-2.59-.71-6.7-3.88-6.11C619.1,8.76,630.45,35.78,633,45.25Zm-48-14.78c3.36,6,6.2,32.1,14.23,32.33,4.94-1.68-.39-4.13-.77-6.31-3-17.38-8.48-34.36-7.63-52.33-1.1-4.83-5.32-6.39-6.32-.09C580.65,12.44,586,20.55,585.06,30.47ZM552.81,903.14c1-.29,1.56-1.94,2.11-2.7-8.48-19.63-33.2-37.94-50.79-49.75-1.36-.77-2-2.53-3.89-.48-1.52,1.57-2.09,3.17,0,4.9,13.5,11.9,27.52,23.28,39.68,36.59C544.34,895,546.92,903,552.81,903.14Zm-4.91,20c-24.31-24.86-48.32-50.72-79.88-66.54-13.14,6.81,6.55,11,11.19,15.58,10.37,7,19.45,15.77,29.15,23.59,10.79,8.69,20.39,18.86,30.39,28.55,3.4,2.07,6.36,9.74,11,5.25C552.7,926.39,549.28,924.54,547.9,923.15Zm-11.13,16.73c-6.7-7.29-64.24-65.33-69.57-48,3.65,3.94,8.16,8.34,12.85,10.91,21.89,11.55,36.3,31.77,54.91,47.33,4.26,3,10.74,15.11,14.86,6C546.8,949.32,541.73,945.06,536.77,939.88Zm3.61-78.37c2.18,3.09,3.86.34,4.91-1.61.11-5.44-39.48-47.72-35.2-26.9C520.12,842.57,530.31,852,540.38,861.51ZM440.64,37.73c11.55-1.9,23-4.35,38.88-7.4-11.31,5.37-14.37,13-23,16.76-11.91,5.18-24.19,8.21-36.36,11.58-19.64,6.69-43.36,6.71-60.66,18.1,5.52,4.81,17.11-1.17,24.1-1.74,14-3.15,28-6.84,42.08-9.56,6.25-1.2,11.94-6,19.11-3.32-2.74.09-3.45,2.26-4.92,3.71C432,73.61,425,83.77,415.49,88.08c-43.1,15.83-89.3,24.1-133.45,37-1.38.37-2.33,2.37-3.48,3.61,13.3,4.57,44.94-9.14,60.52-11.59,23.4-5.55,42.22-9.2,66-17.55-10,11.08-15.83,22.61-26.5,27.22-17.14,7.42-35.35,12.41-53.2,18.16-26,8.38-51.94,17-78.76,22.65-2.25.47-6.87,2-5.41,5.81s4.88.57,7.23.05A797.61,797.61,0,0,0,371,137.65c-38.47,49.24-35.29,31.71-88.34,55.16-19.6,6.53-39.48,12.19-59.15,18.48-1.43.46-2.17,3.07-3.23,4.67,15.93,2.63,31.78-7.12,47.18-10.6,22.26-5.67,43.08-15.56,64.85-22.15.15.74.69,1.82.39,2.18-7.68,9.26-13.74,21.57-23.58,27-17.77,9.73-37.73,15.52-56.92,22.54-6.37,3.75-50.55,13.71-47,19.46.48,2.16,2.72,3.33,5.23,2.5,31.22-10.19,61.84-19.71,92.4-32.24-11,17.81-18,35.81-39.62,41.35-29.9,11.79-59.7,23.68-90.54,32.85-6,1.9-3.87,8.81,1.92,6.11,34.34-6.21,65.32-22.4,97.89-33.52.95,4.32-3.88,5.53-4.77,8.87a6.56,6.56,0,0,1-.94,2.26c-5.9,7.79-7.41,18.84-15.93,24.45-35.63,24.51-74.63,43.61-111.41,65.93,3,3.05,6.54,2.92,10,1.16,12.94-6.57,26.32-12.46,38.64-20.06,20.28-11,39.05-24.63,58.48-36.69.11.81.57,1.8.27,2.4C236.55,349.53,219,362.49,192,376.37c-16.4,8.22-31.4,18.71-47.77,26.85a7.82,7.82,0,0,0-3.56,5.79c-.05,2,1.95,1.74,4,.75,28.75-13.62,55.74-30.18,83.05-49.25C217.91,375.75,217.51,394,203,406.07c-19.63,15.85-40,30.79-58.88,47.51-4.08,3.63-13.81,6.36-10.68,16.35,25.32-16.56,46.9-37.59,72-56.32-6.77,14-8,28.39-19.77,39.86-20.09,19.24-39.41,39.29-59,59.06-1.69,1.71-5.53,3.42-3.18,6,12.92,5,53.81-49.54,67.08-58.52,0,.81.45,1.92.07,2.38-6.84,8.34-8,19.55-8.92,28.71-2.14,21.17-14.81,35.15-27.46,49.24-4.08,7.33-48.93,42.07-42.1,44.47,3.52,3.1,7.4-1.48,10.16-4.27,17.63-17.78,38.75-32.23,52.86-57.23-5.07,48.21-10.64,94.43-3.79,142.34,3.72-11.27,3.64-16.33,2.14-23.49-.92-9.27,3.12-18,1.06-27.28-.42-24.93,5.87-51,7.57-76.13.12-1.15-2.58-2.7-.05-3.5,2.18-.69,2.41,1.49,2.78,3.16,7.15,30.88,8.51,62.57,31.43,87.58-17-56.88-43.44-114.46-13.74-172.64-.29,30.59,20.23,105.17,45.93,122.75-.14-1.86.37-4.14-.52-5.52a217.57,217.57,0,0,1-14.79-27.06c-11.85-33-32.76-81.5-24-116.15,2.88-10.34,8-20.06,12.14-30.06,3.46,37.59,22.79,116.67,53.31,138.59,3.34-2.44-1.61-6.27-3.19-9.07-21-35.91-33.54-76-42.32-116.44-9.41-21.27,2.39-38.28,11.17-57.65,6.33,41.73,20.58,81.4,45.74,115.75,6.3,9.05,12.49,18.31,19,27.22,1.47,2,5,2.48,7.64,3.66,1.13-3-1.39-4.41-2.77-6.34-23.65-36.31-48.27-73.9-58.52-116.43-9.41-27.67-7.52-39.25,8.59-63.51,9.85,43.44,27.45,84.93,54.84,120.35,6.71,11.39,18.27,10.42,6-2.28-24.38-37.83-51.2-80.07-53.25-126.19.68-18.08,16.49-30.28,24.45-47.39C297.83,315.74,314,374,351,419.91c2.44,2.56,13,8.35,7.83.18C325.82,373.7,306.1,320,299,263.87c-2.73-19.41,9.92-34.15,21.48-46.4,3.64,55.35,12.78,116.3,50.07,159.66,1.32,1.37,2.31,4.67,4.5,3.21,2.82-1.88.25-4.8-.93-6.44a149.75,149.75,0,0,1-9.92-16C343.48,320.38,332.58,278.2,327.61,236,323,200.69,329,204.19,349.82,177c2.46,23.24,3.35,46.7,8.79,69.76,4.13,22,8,43.78,22.22,62.06,1.64,2.11-.23,6.21,3.76,7.24-.26-3.4.31-7.13-.91-10.13-6.93-17.08-13.54-34.13-17-52.43-2.54-13.47-4-27.11-6.71-40.45-2.78-13.92-3-27.75-3.12-41.62-.12-9.61,10.62-13.44,14.25-21.46.87-1.94,3.5-3.08,5.33-4.59,1.51,33.45,6.46,66.66,19.3,97.72,4.34,10.2,7.81,25.74,20.8,28.83-8.44-24-22.83-46.35-25.63-72.6-1.92-12.26-5.8-24.23-7.47-36.51-8.42-30.7,13.25-40.24,32.14-61.66-1.37,29.62,1.93,54,6.79,82.24,2.78,11.43,6.17,42.67,14.91,48.56.47-1.05,1.78-2.15,1.63-3.12-2.85-4.21-1.2-9.06-2.22-13.49a632.5,632.5,0,0,1-15.1-102.71c-.17-5.93-3.32-12.93,1-18,9-10.59,19-20.38,29.91-31.95.32,3.47.61,4.29.42,5-5.5,18.91-1.49,38.23-.93,57.11,2.08,24.59,3.59,52.66,17.68,73.94,1-2.27,2.26-4.21,1.55-6.54-4-23.11-9.53-46.2-11.75-69.52-1.64-18.5,0-37.28-.57-55.91-.2-6.35,1.49-11.4,6.25-14.51,7.91-4.51,10.68-13.23,19-17,2.95,30.34-2.69,86.22,18,110.12,1.87-18.86-8.67-37.57-8.52-56.52-1.15-19.61-3.75-39.49-.34-59.13,1.47-8.49,11.62-8.73,16.36-14.41,3,3.71.79,8,1.26,12-.77,32.86,1.58,65.59,12,96.85.52,4.37,5.28,3.73,4.11-.56-4.24-38.37-13.14-76.42-9.26-115.39a2.86,2.86,0,0,0-4.44-2.62c-37.41,31-91.06,19.38-133.2,37.86C399.44,49.19,421,39.94,440.64,37.73Zm-57,905.35c6.84-22.39,7.79-46,12-68.62-1.84-3.93,2-10.12-3.4-10.18-4.6,0-2.87,6-3.33,9.6-3.3,29.2-11.46,57.56-17.35,86.3q-2.4,10.86-4.78,21.71c-.31,1.41-3.09,3.62,0,4.31C375.3,984.06,379.82,951.84,383.62,943.08ZM313.54,58.16a177,177,0,0,0-20.2,36.73c.65,1.44,1.25,2.8,1.86,4.15,22-35.81,49.1-68.88,82.19-95.66,2.37-2.06,3.95-4.79,1.19-7.44-3-2.84-4,1-5.69,2.33C350.82,15.8,330.35,35.28,313.54,58.16Zm55.95,843.22a229.84,229.84,0,0,1-9.2,43c-2.87,6.83-3,15.3-8.81,20.36-5.62-8.83,0-19.68,2.11-28.84,4.15-11.91,6-24.33,7.26-36.83.07-.6-1.24-2-1.35-1.91-10.88,5.61-16.71-5.78-26.05-6.71,2.33,43.16-13.22,30.08-38,11.2-.8,11.52-10.09,42-24.33,24.14-7.69-8.83-9.4-5-12.34,3.61a41.43,41.43,0,0,1-16.37,21c-9.25,2.92-16.61-10.36-20.38-18.07-6.8,14.53-16.25,27-27.31,38.26-3.49,3.55-7.08,8.18-12.13,1.16-1.56-2.17-2.8.08-3.51,2-6.41,17.29-16.45,32.72-30.93,43.46-10.89,8.06-10.1-6.62-14.25-11.51a73.16,73.16,0,0,1-29.78,31.9c-17.29,7.43-.41-71.93,3.74-79.49a236.65,236.65,0,0,1,42.45-77.64,92,92,0,0,1,12-62.72c6.89-12,14.13-23.16,23.59-33.37,5.57-6-4-10.56-5.93-16.14-9.86-28.77,2.06-64.92,37.2-72,10.66-2.14,21.85-8,32.14-6.58,22.25,3.14,25.82-18.6,39.62-26.41,7.39-1.71,47.67-45,43.91-21.28-9.15,19.46-19,38.59-27.71,58.25-3.71,7.45,5.75,8.18,9.86,9.86,10.41,5.39,21.78,9.16,33.1,12.42,5.33,1.54,9.33,0,11.37-7.72,3.11-11.75,10.26-22.36,14.34-33.93,15.54-41.1,62.57-30,96.19-26.53,7.85,1.16,16.27-2.18,24.49-2.89,29.51-2.2,58.75,4.77,87.69,9.52,17.48,3.78,34.8,8.34,52.08,13,2.52.67,4.43,3.61,6.62,5.5-14.73,18-25.39,21.47-52,24,7.37,6.74,13.7,13.94,21.44,19,3.66,2.39,2.69,4.52,2.54,6.67-.19,2.88-2.67,4.18-5.64,3.92-6.54-.58-12.44,2.92-19.75,1.1-5.15-1.28-12,1.68-19.8-2.12,3.08,3.4,4.64,5,6.09,6.73,2.68,3.18,8.7,5.07,6.74,10.17-2.36,6.13-8.78,3.56-13.68,4.17-10.41,1.28-19.66-3-29.64-6,4.16,7.3,16.13,14.07,11,20.7-7.68,10-21.34,5.31-32.38,3.54,2.57,9.4,16.91,17.09,9.09,27.22-7.95,10.65-21.5,2.69-32.53.61,2.26,3.72,5.74,7.09,6.29,10.89.67,4.69,7.63,9,2.94,13.31-6,4.86-14.44,1.88-21.54.31,5.74,8.61,8.78,18,7.31,27.43-2.3,5.63-10.32-1.86-14.21-3-40.81-21.7-89.48-15.78-130.1-37.23-10.06-6-20.89-11.62-26.53-23.17-4.68-5.69,4.13-9.64,7.91-4.84,13.41,16,32.31,21.25,51.39,26,19.28,4.79,38.52,9.85,58,13.68,15.76,2.14,29.79,11.48,44.76,14-9.53-20.59-29-33.53-47.28-45.91-11.22-7.29-22.18-1.51-33.12-2.52-8.88-.82-18.38.8-26.92-3.58-4.55-2.32-10.31-1.64-14.24-5.67-5.82-2.74-2.74-7.89,2.72-5.43,6.81,5,67.63,13.94,56.67-3.55-5.86-5.87-12.4-9.65-22.29-8.45-10.66,1-24.27,5.35-33.86-2.26,1.15-.76,2.25-2.09,3.45-2.2,22.54-3.49,46.93-.24,68-9.25,6.2-1.57,1.92-6,.8-8.13-3.16-6.07-8.52-7.82-15.42-6.27-10,2.25-20.2,3.85-30.32,5.63-5.15,1-4.12-5.86-.84-6.92,20.91-3.8,42.13-6,62.08-13.84.8-.26,1.8-2.46,1.71-2.54-9.09-10.58-34.66-.38-47.5.09-5.44.09-11.89,3-16.22-1.43,2-1.15,3.91-3,6.05-3.33,20.29-3.51,40.66-6.5,60.87-10.36,3.65-.69,11.44-.19,9.43-7.39-5-19.33-42.27,4.87-57.37-4.68,1.13-1.06,2.14-2.84,3.42-3.06,21.57-4.66,44.38-5,65-13.23,1.11-.46,2.28-3.8,2.09-3.94C459,654.26,424,657.53,403.7,663c-35.47,14.22-21.55,57.7-44.37,66.59-20.44,6.42-38.31-8.28-56.48-15-9.87-4.55-19.76-9-30-12.33-34.24-10.88-88.28,5.89-85.15,48.82,4.74,25,40.91,40.32,64.66,38.25,32.86.68,37.47,45.12,90.45,45.82,3.32.12,6.56,2.4,9.84,3.69-16.22,12.54-29.9.24-41.59,8.38-1.42,1.07-4.65.66-2.72,5,6.23,13.93,18.87,20.7,30.38,28.67,7.21,4.92,15.37,8.54,22.62,13.41,2.67,1.39,1.57-1.31,1.58-2.58q.14-18.79,0-37.59c0-2.51.85-4.38,3.21-4.93C376.12,845.73,369.61,894.85,369.49,901.38Zm118.32-94.24c-18.64-21.33-40.54-42.72-69.61-48,8.51,10.3,10.36,23.86,24.6,29.68,17.78,6.94,29.12,27.65,49.88,28.92C491.1,814.16,490.22,810,487.81,807.14Zm23.11-26.63c-19.91-19.9-42.59-35.62-70.23-43.09.17,1.55-.16,3.46.62,4.59,5.78,8.32-10.55,11.84-.28,15.6,34,14.77,27.84,31.72,71.14,37.92,2.07-2.31,7.56,1.4,6.87-2.33C518.19,788.59,514.5,784,510.92,780.51Zm-35.79-59.14c-5.7-2-16.4-4.67-17.11-3.23-3.29,6.65-10,6.41-15.73,10.69,45.08,8.5,50.64,37.16,98.79,36.58C523.87,742.15,500.5,730.13,475.13,721.37ZM522,714c-13.87-6.37-28.26-11.71-42.68-16.77-10.68-3.75-13.67,11.88-23.76,12,29.84-3,52.1,22,79.46,28.69,10.64,2.76,20.64,10.18,32.76,6.43C554.41,731,538.66,721.64,522,714Zm29.2-17.65c-28.57-9-56.61-23.64-88-12.18,22.85,7.89,47.23,11.18,68.47,24.38,20.72,16.74,43.5,19.42,70.06,15.81C584.83,713.74,569.9,701.77,551.21,696.34Zm-69.63-32.19c2.86,1.37-.44,6.17,3.49,6.68,18.45.78,36.76,6,56.21,11,17.18,3.54,30.74,19.5,50.92,13.4,11.79-4.38,27.95-3.89,35.7-15.07-46.39-10.34-93.84-21.27-141.81-19C484.55,661.26,483.08,663.13,481.58,664.15ZM270.92,692.77c6.84.16,12.93,2.61,19.05,6.28,8.22-13.85,16.74-27.52,24.76-41.48.62-1.07,3.88-2.43,1.32-4.21-.72-.5-3.25,1-4.53,2C298.2,668,281.15,677.44,270.92,692.77ZM247.53,804.18c14.06,9.65,43.38,46.4,61.07,35,1-.74-.24-1.48-1.41-2.18-10.19-6.1-20.33-12.39-30.5-18.41C267.4,813.06,264.76,792.89,247.53,804.18Zm-22.28,1.56c14,14.24,33.3,53.19,57.38,38.78-7.34-5.65-14.34-11.29-21.6-16.57-11.43-8.31-15.48-25.84-33.12-26.47C224.72,800.45,224,803.53,225.25,805.74Zm-10.1-.41q7.24,24.07,14.87,48c1.46,4.59,4.85,7.13,10.22,7.8,1.77-.87,3.9-2.83,5.94-2.74,5.3.23,6.31-3.93,7.88-7.09,1.43-2.89-2.12-3.64-3.62-5.25-11.61-12.55-25-23.8-30.11-41.15-.45-1.54-2.65-2.55-4-3.81C215.88,802.53,214.79,804.15,215.15,805.33ZM213.4,866c3.18,3.41,7.06-1.27,10.56-2.82,4.22-1.87.3-2.82-.12-4.11-5.82-18.31-14.38-37.48-15.19-59.33-.05-.88-1.77-1.68-2.72-2.52C204.45,820.39,195.83,846.16,213.4,866Zm-36-15.36c2.45,5-2.22,13.52,8.26,21,6.76,4.81,9.37,1.76,12.94.51,4.16-1.45,1.64-5,.68-8.65-5.81-22.36-4.82-44.79,1.5-67,1.56-5.48-4.27-6.38-6.81-9.11C185.4,783.53,174,840.45,177.45,850.68Zm-20.39,21.78c.68,10.41,10.5,8.63,17.48,5.7.47-.15.72-3.44,0-4.59-10.05-17.51-3.9-35.38-3.37-55.22C159.05,838,155.46,852.36,157.06,872.46Zm-19,73.34c4.93-17.45,9.43-35,19.43-50.29,3.83-5.88,2.69-10.45-1.56-12.7-4.65-2.47-2.8,4-4.27,6.17-29.23,40.41-44.63,87.58-48.62,137.42-1.92,10.74,28.35-25.74,27.48-29.11C137,981.28,131.49,962.53,138.07,945.8Zm48.59-57.44c1.56-3.09,1.63-6.85-3.63-5.21-27.87,10.7-32.36,54.52-39.14,80.24-3,15.71-1.15,30.85.83,47.25,11.53-17.64,30.44-34,31.88-55.58C175.76,932,175.94,909.53,186.66,888.36Zm30.7,32.42c-4-14.53-6.22-30.51-3.05-45.16-25.91-8.71-35,72-24.87,87,8.41-6.75,15.1-17,20.51-26.16C212.47,931.38,219.73,928,217.36,920.78Zm37.13-14.95c-5.32-9.71-10.53-19.39-11.42-30.51-.72-9.06-10.73-4.46-13.47-10.11-9.22,4.84-6,19.26-8.37,28.83,3.33,8.2,14,69,26.35,36.78C250.64,922.75,259.91,915.7,254.49,905.83Zm32.17-7.68c-.66-1.69,1.44-4.69-1.16-7.71-7.74-9-15.21-18.66-17.83-30.14-1.35-6-5.49-4.6-8-6.95-3.41,5.11-10.19,10.59-9.67,15.26,2.31,20.61,13.09,37.46,28,51.71.7.68,1.87,2.94,2.82.32C283.29,913.67,288.1,907.34,286.66,898.15Zm37.94,2.38c8.39-26-18.25-23.32-23.3-45.19-2.66-8.79-11.62-5.19-15.66-10.21a48.88,48.88,0,0,1-.79,6.77c-.14.6-2.43.6-2.66,1.26-1.23,3.38-9.06-.42-6.81,4.94,8.45,20.17,23.89,34.62,41.15,47.3,2.07,1.53,3.06,5.65,6.57,4C327.12,907.4,323.84,903.3,324.6,900.53ZM263.9,73.72c19.23-28.3,44.43-50.48,73.33-68.6,1.35-1.06,3-4.29,2.65-4.59C335-4,332.09,3.31,326,3.45c-25.65,17.88-53,37.74-65.54,67.31.48,2.18.78,3.57,1.08,4.95A12,12,0,0,0,263.9,73.72ZM259.5,776.4c10.08,4.65,26.92,15.26,35.31,2.65.84-1.64-1.83-3.13-3.67-2.91-9.61,1.17-18.88-1.85-27.4-5.92C258.38,767.11,257.05,773.89,259.5,776.4ZM253,740.52c-3.11,4.49-8.23,7.71-7.87,13.8,0,0,1.53.6,1.83.34,10.42-9.09,21.27-17.93,22-31.15.75-10.81-4.06-12.27-11-10.53-10,2.48-29.31,32-27.46,42.11,0,7.88,5.42,6.53,6.37-.42-.21-7.84,5.43-12.83,8.49-19,2.69-5.44,5.5-.71,8.1.45C257.15,737.77,253.78,739.38,253,740.52Zm-82.69,617.13c-27.74-35.64-32.77-60.26-38.89-104.34,15.33,21.18,25.85,47.81,51.72,58.24-5.41-11.86-16.38-20-24-30.57-22.72-27.93-37.92-60-41.11-95.8.72.28,2,.42,2.09.85,5.72,13.91,42.3,59.47,58.21,56.93-25.5-29.27-58.33-54.92-70.55-93.74-2.76-9.29-5.55-18.57-8.79-29.39,18.32,22.56,35,53.63,65.77,57.68-1.28-1.57-2.24-3.71-3.88-4.6-17-9.19-30.23-23.08-41.06-38.26-12.77-17.92-31.79-32.53-32.17-58.14-.15-10.4-5.49-20.72-8.47-31.08,17.39,24,50.42,69.29,82.14,70.62,0-3-1.53-4-4.37-5.41a97.57,97.57,0,0,1-19.13-11.92A242.7,242.7,0,0,1,90.44,1047c-4.94-7.27-13-12.28-15.38-21.35-3.35-13.09-7.18-26.11-9.6-39.38-1.39-7.59-5.74-14.87-3.81-24.1,6.52,7.66,12.09,18.34,22.31,18.62,2.63-1.22-.14-2.93-.78-3.8-3.62-4.88-7.56-9.52-11.42-14.22C64,953.29,55.9,944.29,54.82,930.9,54,920.34,50.08,910,49.44,899.47c-.44-7.36-4.62-14.61-1.46-22.9,11.05,20.61,27,38.25,46.89,50.3,1.15.64,3.19,4.39,5.41.55,1.94-3.34-1-4.58-2.49-6.49C92.45,914.14,84,911.31,78.54,904,39.1,862.76,42,851.62,37,796.28c20,21.41,28.59,50.25,57.73,62.21,4.45,2.39,5.65-.79,2.8-4-21.82-16.94-38.18-39.58-53.33-62.6C32.65,776,32.51,759.17,33.13,739.82c16,23.8,29.8,47.25,57.37,56.74,1.32-2.41-.1-3.87-1.65-5.21C56.35,764.58,20.46,727,30,681.24,42.44,700.38,54.6,720,71.92,735.55c6.5,6.45,13.68,13.21,26.59,14.72-37-33.29-82-81-68.08-131.51.45,15.53,44.63,69.3,61.22,63.4-32.12-30.85-76.28-65.4-59.07-116.38,11.65,16.48,34.57,60.46,57.87,56.3-30.8-25.15-72.64-73.65-54.55-112.44,8.79,12.3,32.68,53.42,49,50.4-.39-1.35-.35-3.21-1.25-4C69,543.72,57.36,528.73,47,512.82c-4.64-7.16-11.71-13.91-11.63-23,2.74-17.62,4-56.61,10.57-65.26,11.09,22.93,16.4,49.93,42.42,63.09C62,451.85,36.7,401.87,60.31,357.53c4.81,16.68,21.13,67.64,39.94,69.11,0-1,.37-2.25-.08-3-7-11.47-16.48-21.23-20.69-34.7-20.46-44.9-16.15-53.2-1.79-99.6,6.88,29.74,11.46,61.5,36.94,81.35,1.22-12.78-15.31-28.37-18.38-43.1-17.53-43.68-13.57-61.83,3.81-105.72,3.24,17.55,15.43,85.7,33,88.13,4.18-2.34-3.24-8.08-3.31-12.09-10.19-24.51-25.18-63.35-21.18-89.65,4.6-12.94,14.84-22.6,19-35.58.22-.68,1.44-1,2.2-1.54,3.4,30.61,1.94,64.33,19.8,91.41,1.4,2.26,5.79,5.34,6.74,4.74,3-1.87-.1-4.42-1-6.7-15.12-28-14.84-59-17.07-89.85-.36-4.52-2.19-10-.37-13.44,5.87-11.15,13.13-21.56,20.2-32.8,2.39,7.09-1.47,13.1-.81,19C161.49,166.72,162,192,176,211.79c3,4.15,10.31,4.28,5.23-1.72C168.91,174.36,151.38,126.75,180,94.9,186.43,87.59,191.38,79,197,71c-.38,33.71-3.09,67.17,8.18,99.51.92,3.31,1.4,9.84,5.24,9.07,4.36-.88,1.94-6,1.08-9.78-4.59-30.48-17.67-93,1.85-117.86,9.44-12.33,20.62-23.34,31.32-35.28-3.91,20.47-16.39,94.15-2.72,107.75,5.22-1,1.26-4.85,1.14-7.61,2.82-35.2.17-71.52,11.34-105.4.5-1,9.14-9,.94-9-13.09.47-25.83,6-38.72,9.54-31.33,8.17-62.12,17.26-92.92,27.41,6.18,7.65,12.76,2.54,19.74,1.26,14.74-4,29.4-8.33,44.08-12.56,14.87-4.28,29.71-8.68,44.59-12.9,1.11-.32,2.49.31,3.74.5C228.2,26.08,218.69,35.23,210.16,45c-3.21,3.48-8.59,9.93-10,9.19-7.62-3.83-12.65,2.36-18.46,3.75-18.3,4.38-36,11.32-54.34,15.57s-37,6.25-55.48,9.62c-3.1.56-5.85,3-8.77,4.64C76,94.43,90.34,87,103.88,85.91c31.4-6,62.23-15.65,91.89-26.56-6.48,11.79-17.05,20.92-23.23,33.18-3.41,6-7.88,14.07-13.54,15.83-32.88,9.73-65.84,16.85-99.71,23.13,20.94,9.94,70.22-9.16,93.09-14.16-.57,1.71-.71,3.8-1.8,5.06-6.7,7.74-11.08,16.92-16.59,25.35-3.94,6-6.17,14.29-14.52,17.29-23.56,9.84-47.95,17.32-72.38,24.83-5.31,3-18.52,3-19.93,9.31-.54,4.47,13.67.21,16.33-.12,25.53-7.85,49.06-14.54,74.17-25-10.16,13.08-12.37,32.51-24.08,41.68C72.16,231.5,39.93,233.65,19.11,249.4c25.18,1.69,46.35-14.21,69.25-21.64-1.76,5.83-3,12.15-5.55,17.94-4.65,10.7-2.87,24.58-13.58,32.1-21.14,13-41,22.68-62.88,36.78,3.83-.5,9.51.07,11.84-1.13,16.83-9.29,34.26-17.71,50.47-28-.51,10.71-6.08,20.41-8.06,30.95-3.23,11.56-2.87,25.08-15.55,32.66-14.46,8.19-29.86,17-41.34,28.88,1.48,4.41,6.33,1.71,9.15-.47Q30.17,365.67,47.56,354c.76-.51,2-.27,3-.39-2.49,10-5.32,19.86-7.63,29.87-2.42,10.45-3.69,21.07-12.52,29C21.17,420.81,12.64,430,3.91,439c-1,1-1.13,2.81-1.67,4.24,8.31,1.69,26.52-19,32.85-26.64-3.67,25.35-3.45,50.3-10.7,74.25C23,499.66.49,513.52,5.7,520.12c8.32-2.45,12-14.66,19.46-18.93-4.31,30.47,5,66.21-25.16,86-1.54.93-3.52,3.36-1.37,6,4.73,5.59,16.32-13.9,21.74-15.79,2.29,24.88-5.3,48.7-18.44,69.72-1.22,2-2.57,5-.24,6.58,5.16,3.15,15.84-19.78,17.25-25.38,2.7,33.71.2,64.49-21.49,91.24-1.57,2.74.21,7.74,3.69,4.22,9.35-6.45,14.65-15.37,16.59-26.45,3.63,19,9,41.43,1.93,61.86-2.12,5.62-7.31,9.74-8.43,14.65-1.32,10.19-9,17-10.5,26.59,12.8-6.92,15.76-22.79,24.2-35,.78,9.93,1.46,19,2.21,28.08,1.09,13,5,25.86-1.1,38.85-7.92,16.78-12.53,35.15-24.71,49.87-1.15,1.68-.11,4.34-.21,6.25,15.6-5,23.23-37.62,31-52.43,0,21.14,9.08,41.18,6.14,60.81-4.7,23.34-20,42.75-32.74,62.49,9.1,9.63,31.3-40.07,37-48.65,1.42,24.7,12.21,43.5,0,67.6-8.67,18.81-18.4,37.12-32.17,52.92a4.36,4.36,0,0,0-.8,3.78c.89,1.86,2.48,1.22,4.24.47,10.13-4.37,13.58-14.73,18.73-22.77,7.84-12.24,17.2-24.21,19.12-39.22,4.47,3.51,3,8.78,4.38,13.2,3.61,11.29,9.85,24,6.14,34.64-9.69,27.86-22.2,54.77-44.09,75.94-2,1.91-8,3.54-3.41,8.58,20.79-5.21,42.75-50.8,52.44-70.69,1.34,19.41,15.64,36.45,4.34,58.43-9.32,18.14-17.7,36.55-30.12,52.46-2.22,5.12-16.13,13.2-12,18.4C35.33,1168,40.88,1157.24,45,1154c11.54-13.07,20.1-28.24,28-43.83,1.94-3.82,2-8.72,4.33-12.2,9.08-13.69,3.28,4.93,7,3.34,2.32,14.56,12.22,27.66,8.62,43.35-6.25,27.39-20.06,51.25-36.17,73.67-.78,1.08-2.64,1.67-.74,3.46,1.55,1.46,2.88,1.62,4.21,0,19.11-19.15,29.16-43.49,39.65-68,2.44,14.8,11.15,30.21,10.36,44.35-4.65,31.33-22.09,57.55-37.14,84.72,10.74,1.57,8.75-10.32,14.67-13.89,12.56-16,21.06-35.77,26.22-56.66,3.23,15.19,10.62,32,7.94,46.32-5.31,16.55-9.26,34.26-19.2,48.92-7.11,10.5-10.64,23.33-20.84,31.83-1.15,1-1.19,3.23-1.74,4.9,3.29,1.94,13.11-5.63,14.48-8.2,12.3-21.94,26.62-41.51,31.38-67.56.92,16.39,7.25,30.23,6.17,45.65-5.61,25.31-19,49.56-34.28,70.53-1.11,1.54-2,5.13-1.34,5.71,2.12,1.76,3.07-1.13,4.41-2.32,16-14.3,23.91-33.75,33-52.46,4.8,6.63,1.17,14.51,3.5,21.17,7,19.91.84,37.46-9.18,54-5,10.72-20.61,25-19.65,36,9.88-1.49,28.28-37.72,34.27-47.62,0,9.41.24,17.53-.06,26.41-.5,14.16,3.42,28.27.36,42.51-.36,1.7,1.71,3.93,2.66,5.91.53-.56,1.48-1.09,1.53-1.69a587.27,587.27,0,0,0,2.67-70.79c7.86,13.09,11.43,32.63,28,37.25-.4-1.46-.37-3.32-1.28-4.32a53,53,0,0,1-10.8-17.24c-5.6-14.79-16.9-26.47-17.62-43.3-.94-15.33-4.9-29.81-5.58-46,12.59,19,20.5,42.36,41.81,52C183.24,1371.16,174.38,1365.33,170.28,1357.65Z"/></g></g><g id="Red_Japanese_Frames" data-name="Red Japanese Frames"><path class="cls-8" d="M0,20V1580a20,20,0,0,0,20,20H956a20,20,0,0,0,20-20V20A20,20,0,0,0,956,0H20A20,20,0,0,0,0,20ZM924,1548H52V52H924Z"/><path class="cls-9" d="M952.1,15.41,928.69,38.83A4,4,0,0,1,925.86,40H50.14a4,4,0,0,1-2.83-1.17L23.9,15.41A2,2,0,0,1,25.31,12H950.69A2,2,0,0,1,952.1,15.41ZM40,1549.86V50.14a4,4,0,0,0-1.17-2.83L15.41,23.9A2,2,0,0,0,12,25.31V1574.69a2,2,0,0,0,3.41,1.41l23.42-23.41A4,4,0,0,0,40,1549.86ZM936,50.14V1549.86a4,4,0,0,0,1.17,2.83l23.42,23.41a2,2,0,0,0,3.41-1.41V25.31a2,2,0,0,0-3.41-1.41L937.17,47.31A4,4,0,0,0,936,50.14ZM925.86,1560H50.14a4,4,0,0,0-2.83,1.17l-20,20a4,4,0,0,0,2.83,6.83H950.69a2,2,0,0,0,1.41-3.41l-23.41-23.42A4,4,0,0,0,925.86,1560Z"/></g></svg>