<svg xmlns="http://www.w3.org/2000/svg" xmlns:xlink="http://www.w3.org/1999/xlink" viewBox="0 0 976 1600"><defs><style>.cls-1{fill:none;}.cls-2{fill:#f4f3ef;}.cls-3{clip-path:url(#clip-path);}.cls-4{fill:#50b271;}.cls-5{fill:#ffb85a;}.cls-6{fill:#997664;}.cls-7{fill:#d81e1e;}.cls-8{fill:#592116;}.cls-9{fill:#992d17;}</style><clipPath id="clip-path"><path class="cls-1" d="M960,22V1578a6,6,0,0,1-6,6H22a6,6,0,0,1-6-6V22a6,6,0,0,1,6-6H954A6,6,0,0,1,960,22Z"/></clipPath></defs><g id="Paper_Backing" data-name="Paper Backing"><path class="cls-2" d="M960,22V1578a6,6,0,0,1-6,6H22a6,6,0,0,1-6-6V22a6,6,0,0,1,6-6H954A6,6,0,0,1,960,22Z"/></g><g id="Wikipedia_Cropped" data-name="Wikipedia Cropped"><g class="cls-3"><path class="cls-4" d="M270.28,1282.45c-26.59,1.73-30.26-23.2-44.06-36.27-25.37,16.77-63.94.08-67.4-29.86-8.46-17.41,20-59.71,4.88-62.21-25.22,2.49-56.18-32.65-27.81-53.07,3.82-2.21,5.2-7.64,1.46-10.58-33.72-30.79,9.79-65.91,33-86,11.27-14.87,7.83,38.84,34.21,39.16,6.4,9.25,10.57,2.08,18,4.94h0l.41.26c12.42,6.58,18.1-17.15,29.2-19.41,8.25.17,2.94-11.8,9.94-12.34,13.7,3.48,27.58,35.48,41.65,22.25,19.48-8.29,25.68-32.41,25.63-55.8C334.9,969.78,349,1001,358,1002.78c16.34,11.81,49.64,45.11,22.29,61.76-4.32,3.12-1.8,8.38,1,11.52,33.79,55.38-47.18,58.17-34.44,71.18,33,26.39,28.53,94.44-22.14,89.79C308.42,1256.69,310.61,1280.58,270.28,1282.45Zm273-447.17c-24.39-3-55.13-1.57-73.32-17.21,9.15-9.23,17.8-14,11.1-35.25-1.36-22.75-40.41-27.05-36.65-40.31,12.52-6.85,7.45-11.37,3.5-22.39-5-22.79-30-19.17-46.43-27.63,4.79-13.33,16.18-20.81,2.53-37-13.92-30.33,7.54-84,47-86.5,27.1,7.9,18-5.58,34.56-17,6.62-26.91,21.52-59.06,23.92-84.76,7.53-51-34.82-109.11-4.92-98.15,18.92-.09,29.58,14.94,44.86,21.79,24.12,2.47,50.77,8,70.94,19.92-48.75,31.93-72.08,78.6-90.26,134.37-5.16,12.73,19,12.46,20.46,24.28,2.07,4.7,9.39,4.36,11-.5,8.72-32.18,38.7-76.13,81.56-62.39,24.72,3.86,43,19.09,44,44.21,29.72-2.75,76.8,23,60.89,60.27-.45,12.53-28.67,21.93-18.78,33.32,37.69,31.66-3.09,86.56-43.87,87-65.76-.69-8,16.5-28.72,56.19-11.2,27.27-38.94,10.54-57.8,6.7C593.49,822.35,574.93,837.27,543.27,835.28ZM150.61,653.93c-13.56-11.93-43.78,2.6-42.93-14.07-1-22-40-13.87-33.3-55.11,15.41-63.47,43.37-12.2-17.16-71.14-25.56-27-21.84-78.88,15.07-90.65-7.52-25.83-.45-57.44,26.94-69.76,28-17.77,46.36-3.6,63.9,17.56,32.66-27.21,84.14,0,91.4,37.75,18.24,50.55-13.83,52.68,45.74,36.3,31-1.17,60.7,25.72,45.81,55.5-1.1,7.67-14,18.41-3.36,23.44,49.51,21,5,78.21-23.41,95.47-14.17-23-35-33.94-55-2.75-12.09,19.56-17.47-34.78-57.3,11.36-9.66,9-23.78-20.73-44.47-1.2C152.48,630.63,162,653.51,150.61,653.93Z"/><path class="cls-5" d="M817.77,1604c-5.55.08-3.7-7.77-4-11.13,3-38.15-39.77-58.26-64.24-74-14.75,3-43.2.86-50.67-11.61-.24-6.2-6.84-5.77-11.37-6.33-24.42-12.85-32.31-45.62-52.55-62.52-8.34-2.31-19.1-5.09-24.94-11.26-1.94-9.52-10.84-5.75-17.71-5.71-48.78-3.19-44.89-60.87-104.5-59.68-9.11-2.17-27.91,10.11-32.07-1.62a6,6,0,0,0-8.35-4.18c-30,14.23-52.14-16-80.05-19.82-9.76-4.94,4.49-10.47,9-12.79,23.42-10.15,45.27-28.22,70.14-32.63,53.16,16.66,116.81,29.7,161.18,69.14,44.88,15.78,89.93,35.25,116.47,78.44C761.83,1470,808,1475,841.56,1518.85c19.13,19.79,32.18,48,43,81.08C887.82,1608.74,820.11,1602,817.77,1604Zm-522.9-570.09c-36.42-2.55-24.86-49.1-57.65-52.74-14.13-1-22.78-42-33.72-25.17-3.56,13.77-11.71,23.21-23.83,27.9-7.42,20.19-14.54,37.09-41.06,36.93-79.83-13.75-9.89-78.85-68.83-53.69-49.91-2.31-54.28-65.24-20.65-89.77-24.7-18.8-29.63-55,3.44-72.16,4.15-2.43,3.41-9.08-1.06-10.65-32-12.8-15.31-58.56,17.34-58.79a6,6,0,0,0,5.65-7.65c-9.61-23.84,21.47-25.19,33-36.29-.6-8.45-13.28-13-9.58-22.75,4.88-28.44,37.32-18,56.41-15.49,4.44-15.09,2.56-32.65,23.93-32.54,17.31.29,38,22.41,33.24,38.81a6,6,0,0,0,3,7.51c5.66,3.34,11.17,9.23,10.41,18,7.15,27.49-23,51.73-31.78,21.2-15.63-11-42-24.38-61-10.75-12.2,12.14-5.09,33.67,14.62,38.61,5.38,1.93-.14,8.22,3.77,11.34,9.06,6.44,25.89-11.19,31.94,3.78,10.79,11.56,5,20.47-2.9,28.37-4.94,4.36,2.07,8.37.72,12.84-10.23,15.53-4.2,36.59-2.75,53.59,14,29.07,60.47,11.34,55.49-23.05-1.87-7.45,2.77-9.48,6.69-14.16-2.35-20.44-33.94-39.44-5-55.2,17.2-5.93-4.27-21.2,15.8-27.88,7.31-4.86,23.74-3.7,24.3-14.17,7.79-13.46,27.53-17.66,41.53-22.72,9.29-4.07,26.79-.78,25.76-15.06,11.21-9,19-26.94,34.58-25.23,23.82-3.55,48.2,31.49,17.78,45.23-4.06,3.86-13.12,2.58-12.2,10.06,3.91,33.73-52.62,22.41-50.77,39.36,6,9.91-24.46,17.24-11.4,26.65a105.26,105.26,0,0,1,44.63,38.69c3.69,5.77,11,.65,16,5.31,26.44,13.73,19.69,15.81-5.2,18.78-3.86.59-10-6-14.07-1.86-5.49,20.58,9.44,48,14.16,68.32,6.19,14.36,14.5,39.07-10.65,25.37-34.46-21.32-41.16-62.51-68.64-89.73-7.32-10.87-20.25,7.21-37.25-9.64-23.86-6.6,12,52.38-3.19,68.39-2.57,6.73,6.9,7.71,6.93,14.09,5.46,16.31,11,42.83,26.59,50.88,16.84,12.26,38-.65,38.45,16.31C332.82,996,324.92,1033.11,294.87,1033.91ZM108.11,845.84c-44.64,16.68-62.78,96.95-3.21,99.82,46.14-9.6,42.54-27.22,57.94-66.32,2.15-22-47,14.13-48.75-28A6,6,0,0,0,108.11,845.84Zm-37.82-56.6c-.5,23,38.41,34.49,53.63,18.45-5.7-13.39-17.71-28.5-.52-42,4.84-6.72,19.6-8.34,18.06-18-7.51-9.59-24,1.88-35.05-.76C91.51,756.92,63.78,768.41,70.29,789.24Zm388.58,28.63c-22.9,1.87-18-37.87-62.85-60.06-10.4-10.19,44.55-11.84,50.42-8.83C477.27,757.36,502.4,814.6,458.87,817.87Zm-184.74-151c-28.41-7.31-13.42-60.35,7.78-65.74C341.59,590.58,304.53,656.53,274.13,666.86ZM697.7,421.51c-26.31-1.43-72.34-5.13-97.11-20.6.66-10-14.1-3.06-15.19-10.92,26.16-13.42,57.88-11.73,79.46-31.8,17.8-18.16,66.36-21.95,60,13.35C786,391.38,742.37,427.37,697.7,421.51ZM543.57,387.83C510.49,368.56,471,319,485.35,278.25c4.21-10.79,10.29-8.84,16.89-3.25C523.47,288,555.08,380.18,543.57,387.83Zm17.7-5.51c-10.56-6.87,12.41-41.57,16.9-53.15C635.21,234.4,688.69,305.12,561.27,382.32ZM474,368.81c-44,0-81.65-11.57-113-44-18.42-17-14.25-43.7,9.84-44.45,37.22-2,50,32.12,73,56.6C445.26,346.12,508.7,368.69,474,368.81Z"/><path class="cls-6" d="M0,1604c-11,1-.47-155.16-4-159,2.47-9.19,10.39-.61,15.44-.08,138.33-4.57,137.86-80.21,205.47-81.94,14.9-.09,77.45,7.84,80.8-5,62.3-47.11,94.6,3.49,156.11,9.55,80.7-21.92,82.25,47.77,145,61.78,31.33,1,51.85,30.89,66.27,56.73,37.48,52.15,128.42,25.43,150.86,99.68C870.54,1632-4,1590.68,0,1604Zm0-178.52c-8.23,2.36-4.63-121-1.34-120.8,4.81-.79,16.33-15.8,14.52-20.8-1.82-4.68,2.2-11,2.88-15.42,8.41-42.88,31.3-74.54,43.34-116,10.64-47.86,36.23-84,50.13-130.71,2.55-9,13.17-2.76,19.07-.69,23.6,3.79,10,18.28-1.2,24.95-8.67,15.84,1.32,38,10.36,50.26-12.1,12.48-14.89,21.17-16.33,38.45-.56,4.93-7.14,5.77-6.31,11.06.86,5.93-4.41,10.81-6.76,14.89-9.19,14.62-6.82,35.66-14.89,50.24-6.34,7.76,7.12,17.18.64,26.67-3.85,12.77,4.18,23.36.81,40.52,2.57,15.92,21-3.77,27.88-5.62,2-1.88,5.34-3.41,8.49-2.64,4.94-.94,7.1-5.62,13.08-5.91,37.81-14.92,17.75-18,55.17-9,50.54-8.22-37.92,44.21-46.1,51.38-3.69,3.45-11.21-2.69-13.77,3.74-16.26,23.07-46.57,35.1-66.84,53.61C62,1395.47,16.68,1399.9,0,1425.48Z"/><path class="cls-7" d="M663.5,1263.32c-53.17-9.67-121.74-47.06-162.25-86.92-13.26-18.63-69.93-46.65-49.37-71.19,57.75-42.94,17.59-38.54-8.56-84.7-66.5-97.33-14.74-27.48-72.84-17.58-19.31-3.07-36.88-25.41-43.58-41.75-44.22,9.24-62.85-35.09-67.53-77.36-1.59-15.76,1.06-32.54-6-46.84-2.42-4.44-9.88-16.07-1.3-18.24,9.79,6.3,17.15,16.08,25.58,14.69,7.48,1.23,15.33-9.49,20.34,1.93,20.75,23.72,28.47,47.13,38.18,69.39,4.36,1.55,9-.46,11.94,4.69,6.4,14.19,37.09,27.38,37.74,8.87,2.74-25.24,23.07,23.15,28.56,28.89,16.75,26,38.44,53.89,61.76,75.66,5.66,6.87,32,34.52,27.16,10.24-18.92-19.64-39-40.75-57.91-63.75C415,928.5,389.8,881.74,367.45,837.94c8-9.75,31.22,2.34,37-10.38-7-14.09-30.34-15.83-42.32-31-10.68-14.8-45.5-27.5-29.62-47.58,14.16-21.8,49.76-18.36,53.58-47.52,44.84-29,100.59,46.23,18.45,49.54-22.65,12,49.6,37.39,31.68,61.61-23.58,23.44,9.37,16.79,24.14,19,100.13,14.54,192.41,39.84,274.3,101.85,60.89,46.16,113.49,101.62,148.24,172.91,10.43,23.09,18.52,46.55,27.58,70,2,14.15-18.86,9.25-28,8.71-14.25,1.13,3.1,14-5.14,17.49-60.4,14.79-120.26,5.55-181.14-6.43C676.74,1203.91,684.13,1254.05,663.5,1263.32Zm84.72-96.61c-22.24,14.24,29.36,17.77,36,18.64,19.19.12,58.25,18.37,71.09,2.06C852.92,1174.65,767.41,1174.35,748.22,1166.71ZM207.39,1042.65c-23.4-2.38-32.45-34.81-26.32-54.86,6.32-10.44,23.62-18.14,22.05-31.79.54-3.29,1.39-6.8,4.78-7.5,3.59-.13,5.6,3.34,6.84,6.64,2.87,18.76,25.53,28.19,39.16,32.77C260,1016.26,236.85,1042.61,207.39,1042.65Zm-101.5-98c-61.18-2.29-36.15-83.17,1.42-99.37,1.8-.14,5.8.35,7.12,9.78,4.36,27.54,32.91,18.09,50.38,13.69C160.19,898.71,141,943.56,105.89,944.69ZM203,857.14c-43.49-5.92-23-65.24-11.28-90.35A6,6,0,0,0,189.8,759c-15.76-27.85-4.28-13.37-35.4-22.91-31.63-3-37.38-46.93-1.73-45,28.32-1.37,38.24,34.9,65.26,27.15,11.46-2.29,5.51-22.59,13.25-30.06-51.67-83.56,27.06-100,27.77-48.68,1.12,16.28-8.11,24,12.69,29.12,7.28,5,10.53-5.79,15.25-9.4,14.44-17.29,61.65-60.06,77.66-22.37-4.66,37.17-70.3,57.49-95.51,62.33-7,12.65-16.55,20.56-28.41,27.42,1.14,14.12-2.68,28.14-18.74,33.16-9.67,11.54,12.85,33.81,11.31,53.24C232.6,831.59,226.67,857.88,203,857.14ZM102.29,814c-18.26.21-32.12-12.8-31-31.16,1.25-28.66,45.27-33.44,68.18-37.39,3.63.11,5.14,5.15,2.15,7.22C74.15,796.26,158.49,808.21,102.29,814Zm650.63-346c-9.33,2.8-106.07-34.81-89.59-47.79,29.64,5.68,65.15-7.33,91.89,7.53,20.7,10.18,24,40.47-2.3,40.26ZM906.48,435c-34.9-.14-56.51-39.43-45.29-71.28,4.44-7.63,16.09-16.35,1.32-20.46-60-34.14,4.15-109.06-55.46-87.34-5.63,3.17-8.23-1.75-13.14-2.78-10.43,3-2.93,19.88-21.16,21.62-32.17,14.65-60.23,2.33-86.56-17.44-26.88,13-64.54,4.9-73.93-24.74-11-29.51,8.2-48.83,33.33-57.29,8.59-75.28-79-33.19-120.41-23.89-6.35,1.27-17.63,1.51-13.65,11.77-10.55,33.59-57.81,37.65-80.42,12.32a6,6,0,0,0-9.72,1.92c-22.52,26.33-79.3-5.95-67.18-40,3-23.6-27.64,15.15-41.7,11.95-21.37,4.74-46.17-12.13-48.49-32.52-5.26-15.9-24.71,2.91-36.95.5-72.15.43-42.13-92.17,1.56-112.2C224.12-20.79,969,4.64,976-4c11.44-.81.14,391,4,395.07-22.62,13.33-42.79,43.62-73.53,44Zm-335.7-46c-2.95-.1-7.08-.06-7.57-3.75-3-13.46-15.47,5.94-18.1-7.85-8.44-44.76-19.21-87.86,10.35-123.93,9.59-8.32,27.55-5.87,29,8.76,19.82,26.06-46.09,130.11-16.81,117,20-16,40.5-30.93,57.27-49.67C723.39,268,711.52,376,570.78,389Zm-190.85-2.29c-22-1.13-44.3-2-65.05-13.2-32.41-15.22-43.21-53.75,2.44-51.89,50-.7,74.39,41.7,124.89,44.14C458.05,379.08,389.45,386.71,379.93,386.69Zm127.53-15.75c-27.21-3.76-55.14-23.86-70.58-41.44-15-12.54-43-71.2-.83-55.58,22.26,10.76,43.94,35.29,56.81,61.23C493,346.18,528.34,369.89,507.46,370.94Z"/><path class="cls-8" d="M969.29,391.68c-8.93,11.25-21.61,18.09-31.92,27.63-57.27,45.53-101-50.32-59-65,3.65-1.08,6-5.42,4.58-10.12-1.41-4.51-5.26-3.05-8.4-3.29s-7.4.69-9.71-.94c-46.4-30.66-34-105.39,25.8-102.84,31.47,4.86,64.92,41.84,44.5,73.51-5.56,8.1-12.44,14-22.46,12.07-20.65-2.95-35.53-29.67-21.46-46.57,1.79-2.54,7.38-4.34,4.53-7.77-5.42-3.41-13.54,6.21-16.69,10.54-10,16.61,2.26,37.08,14.27,46.61,54.7,35.47,93-60.24,16.8-94.66-4.57-2-12.65-3.12-13.2-5.85-3.65-38,33.52-66.75,68-74.43,2.91-.59,9.8,1.18,9.8-5.09,0-3.37-4.39-3.12-7-3-30.3,1-58.87,19.8-73.66,46.12-15-32.89-48.33-25.07-34.56-39.21,30-26.05,30.56-97-22.35-87-25.7,10.65-31-29.8-85.87,5.65-2.92,1.91-2.78,8.24-7.69,6.47-20-9.53-31.18,4.92-36.7-5.77-4.34-7.84-11.36-13.47-20.61-13.68-26.28-.6-50.9,5.1-72.27,21.39-1.54,1.17-2.08,2.32-3-.77C607.35,64.25,598,60,587.33,56.77c-12.88-3.93-24.76,2.29-37.18,2.21-13.66-.08-26.94.65-36.91,12.31-2.14,2.5-.2,7.8-6.26,7.79-13,0-29.06,13-32.69,25.74-11.11-7.8-24-1.63-35.91-4.44,9.72-8.14,7.16-24.72-3.39-31.76-6.42-4.29-15-3-19.93-7.88-17.9-19.44-30-17.48-53-10.93-14,.68-31.92.91-38.9,15.61-2.69,5.21,2.61,6.6,5,9.61,2,2.52,5.29,2.36,7.1,5.87,3.6,7,7.92,13.59,9,21.49,11.86,47.56-64.47,60.12-75.83,16.23-1.08-5.3-.88-13.32-9.36-12.42a84.19,84.19,0,0,0-22.13,5.67c-39.6,9.74-61.61-25.1-44.57-60.71,10.3-18.94,23.82-34.64,42.82-45.29,2.84-2,2.72-6.2-1.52-4.92-9.67.57-17.18,6.3-23.54,12.32-49.92,38.11-48.37,126,30.6,110.52,4.76-1,13.08-9.26,18,4.47,12.05,33.3,59,40.6,85.59,15.58-.2,38.93,50.79,63.56,82,40.58,1.77-1.35,2.78-1.75,5-.22,22.87,22.15,65.05,19.65,82.66-7.72C518.49,169,517.3,156,531.76,157c28.8-2,53.56-22.4,84.13-16.15,10.74,1.94,19.88,6.57,22.08,16.61,1.21,5.51-1.7,13.21-10.8,17.09-55.62,31.48-13.11,107,45.62,95.46,5.22-1,11.34-7.25,16.56-2,9.08,9.08,21.27,11.7,32.15,16.81,18.78,7.76,52,1.45,66.81-13,2.76-2.89,5-10.27,9.8-8.27,8,3.35,14.83-2.42,22.27-.79,1.27.28,2.84-.79,4.26-1.23,0,1.94.57,4.17-.17,5.78-11.45,29.23,9.18,63.26,32.28,81.1,3.22,2.28,2.39,4.1.37,6.45-17.51,23.48-5.2,55.63,14.08,74.48,8.92,8.35,31.43,17.23,43.4,13.56,25.73-8.72,51.59-25.56,60.64-51.84C973.21,391.22,970.16,390.59,969.29,391.68Zm-86.35-195.2c-.12,9.45-15.27,30.84-24.18,34-1,.36-3.81,2.12-2.2-1.64,7.21-27.38-3.61-44.5-23.75-61.71C851.2,158.62,882.87,179.41,882.94,196.48ZM829.76,75c-1-2.2,7.35-3.33,11.07-3.63,17.49-1.44,28.11,9.77,28.11,33.38-.67,19.83-23.2,59.14-49.16,58-4.32-.46-4.83-2.62-1.75-6.49,9.28-11.62,12.89-25.91,16.93-39.82C839.14,102,836.08,88.46,829.76,75Zm-69.35-2.83c22.14-10.75,49.29-15,61.42,12.06,10.32,26.61-1.82,55.38-19.49,75.37-6,6.41-19.09,4.16-27,11.37-1.82,1.66-2,6.57-8,3.13-9.24-5.33-2.32-8.29-.48-13.18C793,96.78,733.24,81.08,760.41,72.15Zm-188.83-9c13.76-3.5,31.59,10.89,31.36,25.21-.18,10.63-19.37,24.46-27.08,19-1.53-1.1,0-7.93,1.51-11.6,5.73-13.08-1.52-21.43-10.07-30.26C568.72,64.7,570.06,63.57,571.58,63.18ZM526.5,71.1c16.66-6.83,45.28,2.22,42.26,18.17-1.57,12.71-7.11,24.21-20.62,27.15-10.39,2.26-4.58-8.51-6.45-12.68-4.56-10.09-8-19.64-20.91-20.94C513.07,81,522.64,72.38,526.5,71.1Zm-105.85,2c21.76,7.79,13.18,29.21-11.68,22.64C414.84,89.19,417.07,80.78,420.65,73.07Zm-12.7.27c.72,11.86-8.62,19.49-18.05,25.48-5.54,3.93-11.2,9.88-18.66,9.57,14.91-17.57,23.55-39.86-1-54.52C386.2,49.53,407.11,59.4,408,73.34ZM351.82,91.07c-5.17-9-10.92-17-19.44-23.06,10.33-11.8,34-9.38,40.15,4.16,5.89,12.77-3.46,21.75-12.13,28.17C346.29,110.81,353.53,93.76,351.82,91.07ZM498,176.84c-49.95,38.36-71.48-32.14-79.74-2.36-3.52,11.09-14.78,7.52-22.63,7-39.08-.26-55.6-49.79-14.34-64.38,14.08-7,30-7,44.6-11.95,10.36-3.72,5.2,5.14,2.9,10.09-9.52,18.9,12.46,38.14,31.47,32.47,8.41-2.49,15.69-4.64,21-11.92,3.32-3,1.18-5.77-2.52-6.34-9.43,7.32-26.54,15.63-36.86,4-7.64-7.84-5-23.4,7.8-22.51,22.46-.08,38.36,11,50.34,28.43,1.3,1.89,1.2,3.43.09,5.43-1.64,2.92-2.56,6.33.7,8.69C513.8,163,505.29,170.82,498,176.84ZM503.47,126c-5.19-7.93-11.82-13.87-20.81-17.09-.5-.18-1.14-1.58-1-1.74C489,99.29,495.8,90,507.38,89.35c12.09-1.41,22.87,8.76,23.82,20.83-.42,14.83-9.32,20.56-20.58,23.17C508.87,133.75,505.39,128.88,503.47,126Zm108.25.94c-32.4-.66-60.88,17-92.51,21.79-5.29,1.23-2.18-5.56-8.67-7,10.33-.06,17.26-.09,21.49-7.29,3.72-6.33,10.67-7.35,16.84-8.12,11.61-1.45,20.14-12.35,32.78-10.08,12.16,2.19,20.9-3.77,27.42-12.94,3-4.16,2.76-10.7,5.95-14.54,8.07-9.74,19.81-14.22,31.59-17.37,72.74-19.55,40.73,26,63.42,16,41-19.71,60,37.62,47,67.73-1.57,5-3.58,9.56-9.71,7.71-14.63-6.06-28.69,6.12-26.14-4.56,8.92-44.08-61.29-57.41-63.86-35.26-13.78-9.09-28-7.81-40.51,3.06C615.65,127,613.41,127,611.72,126.89Zm68.74,24.5c-2.52-12.52-8.18-21.39-19.29-27.69,29.37-14.46,74.72,31.19,33.8,50.41-3.37,1.51-11.37-3.7-15.17-7.8C676.44,162.69,681.84,157.11,680.46,151.39Zm-48.24-18.53a43.66,43.66,0,0,1-4.26-3.22c16.52-10,42.14,6,41.11,27,.57,13.35-11.68,9.67-20.49,11C654.93,151.94,645.75,140.68,632.22,132.86Zm157.91,112c-6.54.75-11.28.91-7.43,10.12,5.46,13-8.08,14.66-14.3,17C743,283.35,711.24,274.86,692,255c-2.61-2.89-5.82-2.77-8.54-1.42-56.41,30.46-102.63-53.39-42.24-70.73,16.47-3.28,38.63-10.29,50,7.12,1.73,2.52,8.35,2.68,9.39-.2,5-13.56,17.3-14.72,28-16.23,13.52-1.9,26.63-.2,34.94,14.4,1.88,3.3,11.45,2.31,17.5,3.13C809.92,194.1,826.39,240.06,790.13,244.85Zm22.06,6.2c-2.87-.19-5.84,1.1-10.34,2,43.61-21.35,12.86-68.63-24.33-71.12,7.54-13.84,39.49-13.33,49.78-3.7,11.16,10.57,21,21.19,19.65,38C846,227.92,827.81,252.12,812.19,251.05Zm86.72,869.68c-37-90.61-108.53-163.59-189-217.34-46.44-28.18-98.4-48-150.62-62,1.09-.79,2.08-2,3.28-2.29C617.45,828.61,588,786.68,613.39,803c45.68,25.75,68.29-37.11,39.45-65.78,35.07,1.14,75.67-4.25,91.64-39.85,7.68-16.42,9.71-34.33-3.43-48.54-16.93-16.75,16.1-23.48,15.84-48.11.76-24.43-19.35-45.77-43.94-52.56-8-1.84-23.67,7-24.5-8.5,1.74-17.55-14.3-29.53-28.55-34.18-55.56-22.66-88.21,13.3-103.81,63.28-7-18.18-25.68-13.43-17.24-32.78,14.2-40.68,60.89-149.17,116.33-108C682,446.51,710.59,464.1,743,470.52c48.22,11.67,38.89-44.71.27-50.29,11.14-6.59,17.37-16.73,13.63-29.28-2-8.73-7.27-14.54-17.12-16.43-5-.95-18.69,1-8.85-12.15,0-11.84-21.52-23.66-32.11-20.3-2.94.94-6.38.32-9.6.42.19-1.07,0-2.49.61-3.16,6.12-6.65,6.86-14.14,2.92-21.87-10.78-18.67-35.61-8.41-51.5-2.7,11.57-16.54,1.18-41.09-20.82-34-11.62,4-19.46,12.85-29.1,20.23,1.65-19.47,4.39-35.07-7.79-51.79-8.59-13-31.29-5.87-40.58,11.53-8.4,15.72-8,33-10.31,52.92a81.51,81.51,0,0,0-24.48-41.74c-5.06-4.73-9.62-11.7-17.94-7.71-15.87,7.12-12.27,22.08-14.42,35.73-.83-.33-2-.42-2.43-1C463,283.06,447,274.61,430.63,266.58c-8.82-4.35-19.23,1-22.05,10.23-.9,2.94-.69,10-3.4,8.73-35-24.09-82.35-4.6-49.55,39.84-109.22-41.31-96.08,71,25.68,64.28,16.31,0,31.94-4.3,47.76-7.63,9-1.9,15.87-9.21,25.39-9.19,7.2,0,14.45-.3,21.57.47,2.33.25,4-4.62,7.27.35,7.62,11.67,10.27,24.7,13.93,37.72,15,41.43,3.47,85.59-13.58,124.61-6.49,14.43-8.63,30.39-33.33,28.25-40.8-3.24-57.93,48.45-55.23,83.57-7.93-9-27.14-1.16-26-7.57,2.39-24.85-24.05-27-42.05-19,19.28-20.29,44.54-34.79,42.67-67.55-1.13-14.53-7-29-20.45-34.75-1.78-.76-5-.92-2.47-4.62,37.39-55.63-38.69-96.21-79.28-61.3-4.15-13.13-1-27.18-6.22-40.21-5.7-14.23-9.13-29.24-22.05-39.71-17.14-13.61-37.58-21.86-59.34-16.88-8,1-16.59,14.81-24.72-.4-8.25-15.41-22.67-17.39-37.92-15.08-31.93,4.82-59.44,36.75-50.94,69.89.89,3,10,9.82.84,11.91-60.94,20.41-24,102.16,18.72,122.69,1.49.79,4.8,2,1.2,4.59C71.47,561,67.57,575.87,68.28,594.91c-1.11,36,47.38,33.49,31.41,58.85-10.49,17-9.83,22.17,5,36.4C87.81,696,65.5,701.79,67.36,724.45c.15,2.44,5.59,7.37-.47,8.26-23.17,3.4-40.59,16.43-36.08,42.38,1.94,11.22,6.87,19,18.25,22,1.12.29,2.7,1,3,1.88.66,2-1.36,1.56-2.48,2.06-25.07,11.21-35.93,49.63-13.65,68.51,7.49,6.35,6.48,9.81-.4,15.67-39,38.2,9.64,115.21,58.35,75.79-5.67,16.08-5,30.63,4.67,44.88,6.06,7.52,12.76,7,7.52,15.24-14.78,44.2-43.73,83.52-52.54,129.72-5.14,30.44-26.06,53.31-32.52,82.85-7.55,22.51-11.44,46.16-21,68-1.22,2.21-1.6,5.09,0,6.7,2.93,3.15,4.25,2.12,5.53-1.31,6.83-18.36,22.58-20.89,37.44-9.42,7.18,7,15.29,1.73,7.48-6.3-18.82-17.55-37.75-1.07-33.05-13.33,5.75-19.48,11.36-39,17.83-58.28,3.37-10,4.67-23.36,21.9-18,17.61,5.47,40,17.13,33.26,34.32-6.88-1.87-21.87-16.15-25.75-5-1.44,5.9,25.64,7.3,25.75,20.19,1.8,17.29,1.53,35-5.28,51.84-2.74,5.95,4.8,11.79,6.47,3.17,5.56-15.08,18.15-22.6,31.52-29.17,2.45-1.21,5.14-5.06,7.73-2.76,13.65,12.07,10.46,38.06-7.68,47.36,5.64-5.53,3-10.38,2.27-14.38-1-5.35.11-15.07-8.1-14.09-4.76.56-.81,8.42-.67,13.11.54,10.9,3.15,21.51-9.4,27.74-10.47,5.17-18.77,14.44-28.76,20.69-.47-1.29-1.31-2.57-1.37-3.89.07-5.64-7.69-27-14.93-23.67-5.62,8.51,20.17,30-1.49,49.19-8.67,12-70.78,35.74-58.95,48.31,8.31.86,11.06-9.62,18.8-11.55a185.77,185.77,0,0,0,34.84-19.7c14.47-10.12,24.24-25.15,37.87-35.91,30.12-22.43,60.9-44.36,91.72-65.8,14.34-9.06,27.4-19.35,38.74-31.91,1.85-2,4.39-2.19,5.15.91,15.69,43.31,81.32,34.28,92.15-9.63,6.19-23.23,29.58,5.35,46.18-30.18,14.84-28.89,6.17-58.45-15.15-77.67.52-1,2-2.23,2.86-2.12,28.59,1,52.2-38,35.74-61.78-11.74-14.19,7.87-16,6.1-32.19.06-16.46-12.05-26.65-21.5-38.44a3.41,3.41,0,0,1,1.85-1.62c16.06-1,22.88-11.4,26.06-25.57.45-1.32,2.36-3.61,3.66-1.28,17.22,30.21,38.26,58.17,60.83,84.66,3.24,3.61,9,10.55,8.39,11.19-6.87,7.45-13.69,16.25-22.54,20.28-16.25,7.42-24.47,27.41-13.37,38.6,17.24,17.39,32.39,36.84,51.48,52.42,42.93,40.52,122.33,84.91,181.89,87.77,3.75-.14,7.92.61,9.28-3.19,6.38-17.78,11.82-35.9,18.57-53.53,1.78-4.65-2.68-15.63,8.35-13.15,60.56,11.58,124.11,16,184.14-.56,10.85-3.23,27.18-4.87,24.55-20.63C914.78,1162.46,906.9,1141.47,898.91,1120.73ZM753.21,431.14c14.36,8.37,20,24.12,9.75,30.23-28.37,10.06-75.34-22.78-99.62-37.22a287,287,0,0,0,51.51.56C728.54,423.62,741.16,424.12,753.21,431.14ZM741,382.22c17,8,9.53,29.94-7.45,31.72-43.14,9.7-87.89-2-128.91-12.88,36.72,1.08,79.76.62,112.69-20.94C723.81,375.84,733.25,378.88,741,382.22Zm-30.65-32C717,352,723,356.44,720.72,364.48c-2.77,9.65-12.34,12.66-20.32,16.18-35.49,15.29-73.26,14.63-111,9.27C666.37,381.23,672.07,339.73,710.3,350.22ZM657.74,317c11.81-4.49,36.84-1.35,25.81,16.29-25.26,36.51-75.28,46.23-116.38,51.41,21.17-17.09,42.72-32.45,60.73-52.52C634.92,324.35,646.2,319.1,657.74,317ZM626,288.88c44.34,6.18-51.39,80.91-64.7,89.44C574.77,346.67,588.46,296.92,626,288.88Zm-84.49,18c.55-19,4.34-57.7,32.21-53.46,4.56.48,5.91,6.21,6.92,9.87,9.92,31.78-14.75,82.13-27.53,110.72-2.57,5.43-3.3,6.37-4.05,2.61A208.31,208.31,0,0,1,541.48,306.86Zm-52.3-27.47c2-6.56,6-5.55,10.32-1.48,30.93,28.16,32.8,67.91,44.07,105.92C510.44,358.75,477.12,323.21,489.18,279.39ZM412.8,378.71c-119.11,25.76-174.18-80.26-60.73-46.46,27.79,13.59,52.42,34.81,89.86,37.48C429.44,373.68,421.3,377.25,412.8,378.71Zm9.09-20.94c-22.63-6.35-80.83-37.91-65.54-66.21,6.47-9.81,18-7.54,28-5.09,14,3.43,27.1,10.6,33.32,23,15.1,26.11,32.58,43.94,63.06,55.23C458,365.29,440.1,363.09,421.89,357.77ZM440,326.94c-10.64-12.76-20.26-26.31-22.66-43.13-1.3-9.15,6.42-11.69,16.94-6.32C454.81,288,469.93,305,481.8,323.64c9,14.76,15.14,31.59,29.17,43.06C487,366.91,455.45,344.57,440,326.94Zm52.39,211c27-56.52,28.44-104.83,2.93-161.93a3.54,3.54,0,0,1,.42-2.57c21-4.16,34.66,12,50.83,20.5,3,1.39,6.52,3.31,9.52,2.91,22.74-3.64,39.44,11.24,60.37,14.69C564,437.71,545.25,492.89,526.26,544c-1.23,3.94-8.78-.77-12.91-1.72-7.67-2.1-14.55-.27-22-.21A23,23,0,0,1,492.34,538Zm-87.49,88c4.8-27.36,24.39-60.75,57.26-51.18,6.72,2.11,13.31.64,16-8.38,9.82-22.34,35.38-14.22,53.38-8,10.36,3.5,15.73,9.69,17.89,20.12,4.32,13.59,11.29,9.92,13.48-1.37,6.95-19.6,15.16-38.47,28.18-54.88,22.33-25.38,102.58-13.27,88.49,31.07-5.26,16.13,20.58-11.17,46.34,11.61,33.74,18.63,23.71,54.3-5.87,70.13-5.66,2.81-3.3,10.39,2.47,10.85,22.89,6.51,20.92,45.28,6.28,59.51-11.63,12.24-26,19.95-43.76,21.92-12.63,1.4-25.08,1.54-37.64,1.66-6.07.55-4.77,8.65-1.33,12.12,14.11,13,13.33,28.74,7,44.92-9.72,21.9-36.33,12.69-51,1.22-7.87-7.06-12.75.44-10.23,8.79.9,54-86,33.18-117.78,22.12,16.13-6.81,14.32-24.1,11-36.45-5.17-20.17-22.42-26.75-37.78-36.23,10.95-8.46,26.89-10.36,38.17-18.72,12.29-7.91,22.91-4,31.75,2.85,5,3.81,5,13.56,8,20.34,7.38,16.83,14.27,34,26.14,48.37,3.65,6.06,10.71,2.89,6.11-4.35-2.68-3.32-36.84-66.22-25-60.37,29.31,9.85,59.07,25.56,90,26.57-1.34-7.2-40-17.08-49.13-20.41,15.37-7.38,28.93-16.57,45-21,4.86-2.12,14.94-4.68,15.62-10.66-22.68,0-44.33,13.44-63.72,23.76-11.67,6.85-17.37-2.91-25.88-3.83-7.92-.86-15.26-6.31-23.77-7.39-3.26-.42-6.25-2.93-9.36-4.49,14.47-15.22,36.31-19.83,54.23-30,6.69-3.27,12.51,1.64,19.12,1.2,39.62-3.28,79.69-1.47,118.94-8.47,2.09-.34,6-1,5.16-4.43-1.31-5.1-6.26-4.19-9.55-3.32-13.29,3.51-26.94,2.49-40.4,3.64-22.59,1.92-45.27,2.84-67.92,4-2.14.11-6.25-1.36-6.22-1.88.21-3.18,3.59-3,5.72-4.27,32.91-21.55,67.51-40,100.23-61.65a30.75,30.75,0,0,0,8.28-6.83c2.56-8.93-4.57-7.07-8.89-2.72-21.22,13.39-41.45,28.5-64.38,39,.82-2.45,1-5.43,2.55-7.27,12-14.29,24.45-28.23,36.37-42.59,2.61-3.14,10.44-5.8,5.33-11-4.6-4.68-8.1,3-10.26,5.27-16,16.92-34.89,32.49-43.9,54-7.77,18.54-26.51,18.61-37.85,30.23a353.67,353.67,0,0,1,55.08-110.7c2.18-3.12,5-8.06,1.65-10.59-2.86-2.15-5.08,2.85-7.09,5.42C598.36,588,579.13,628.74,566.72,672c-2.79,8-12.23,9.31-19.05,12.67-18.22,9-36.73,17.36-54.59,28.93,0-19.94-.31-38.94.24-57.91.12-4.3,6.22-3.1,9.16-5.23,9.53-8.08,47.78-32.8,47.39-43.59-3.16-3.63-4.67-.47-7,1.32-15.25,11.86-30.64,23.54-46,35.24-2.34,1.34-2.25-1.78-2.3-3.23,2.77-18.39,5.75-36.76,8.31-55.19.35-2.49,2-7.47-1.81-7.63-5.62-.24-5.15,6.36-5.82,9.63-5.67,29.56-11.32,56.43-12.75,87.1-13.68-20-25.09-37.23-37.13-57.26-2.85-3.91-6,2.08-4.69,5.27,5.15,15.08,16,27,22.78,41,5,10.37,15.51,17,18.76,28.25,2.54,8.75,1,18.21-2,26-1.73,4.58-10.5,6.59-16.21,9.54-21,10.81,3-30.74-58.87-35.86C430.85,663.78,394.6,655.93,404.85,625.94ZM364.79,793.55c-9-8-17-17.25-26.65-24.16s-6.18-11.64-1.39-19.71c12.48-21,24.48-2.1,34.47,1.07,20.53,6.52,37.78,20.47,52.34,36.47,5.49,6,15.07,12.85,9.18,23.42-3.37,6-9.45,10.15-18.7,10.67C396.11,816.56,379.55,806.66,364.79,793.55Zm29.26,31c-6.85.85-12.5-.47-17.74,2.21-1.21.62-5-.89-4.95-1.11.49-4.14,1.38-8.23,2.19-12.33C381.06,816.29,386.08,820.1,394.05,824.57ZM251,996.75c.85,37-56,62.54-66.18,17.52-1.43-8.6-2.51-17.44.08-25.21,1.68-5,9.3-7.76,13.24-12.39,5-5.81,8.9-12.45,9-20.61,0-1.2.85-2.4,1.3-3.59,6.53,15.95,19.31,34.83,38.52,36.42C254.46,989.47,249.2,994.69,251,996.75Zm107.16-272c-43.73,16.22-15.53-22-79.34-15.57,24.14-16.52,47.91-22.86,75.68-24.3,12.79.17,22.22,6.44,23.85,17.67C380.14,715.19,368,720.37,358.12,724.73ZM390,702.2c10.76-9.43,45.23,1,51.68,16.42,11.24,32.45-58.33,34-75.75,19.5-2.06-1.25-4.9-1.24-8.69-2.12C372.86,728.3,386.46,720.64,390,702.2ZM195.17,768.9c.94-2.85,17.87-2.83,19.53.15,7.87,14.1,12.12,29.37,14.56,44.55-1.53,20.38-6.62,43.54-31.93,39-8.87-1.54-11.77-9.42-14.53-17.77C174.66,810.28,188.08,790.28,195.17,768.9Zm21.56-46.77c34.75.22,20.46,38.52-12.65,36.81-6.12-.51-16-1.09-16.87-13.1C186.31,733.35,201.76,721,216.73,722.13Zm-18.36,140.8c26.06,1.82,41.43-19.95,38.69-48.17,11.74,17,14.87,35.78,18,54.84,3.27,19.9-15.91,49.47-33.61,49.34-19.22-2.23-23.66-32.19-27.71-48.8C192.84,866.3,191.44,862.66,198.37,862.93Zm27.68-97.61c-.67-1.85,6.87-7.11,11.06-10.19,11-8.13,18.11,2,25.28,7C284.1,774.48,316,814,278.85,827.87,250,821,235.18,790.83,226.05,765.32Zm26.1-37.62c16.75-6.11,33.3-14.66,52.08-8.62,11.59,3.73,21.82,9.81,23.32,22.88.68,12.12-15.13,14.08-24.51,13-20-.67-38.31-8.05-56.88-14.31C243.28,734.37,245.63,729.33,252.15,727.7Zm26.12,35c32.43,1,59.92,15,80.09,41.64,3.7,4.88,8.73,13.39,1.8,20.46-13.65,12.6-41.81-.21-51.8-12.31-4.16-4.53-3.66-13.09-6-19.56C297.53,779.77,288.12,770.05,278.27,762.71Zm-12.7-106.65c-7.81-18.06,1.91-46.09,17.79-51.21,10.71-4.16,18.73-1.48,25.36,6.94,6.13,7.79-.63,14.38-3.38,20.59-5.37,12.09-18,18.08-26.32,28C275.11,665.15,268.4,662.61,265.57,656.06Zm.06,13.83c17.3,7.05-1.58,31.16-11.78,42.43-6.14,6.16-11.76,11.45-21.35,4.9C217.46,708.73,247.94,660.83,265.63,669.89Zm-22.47-4.14c-4.2,2.37-9,13.52-11,11.72-9.07-11.71-17.33-28.46-14.92-43.78,1.32-10.33,5.51-19.09,23.95-18.63,6.54,0,13.16,8.47,13.73,24.55C255.33,650.29,256.17,661.11,243.16,665.75ZM221,684.89c-1.26,11.23,5.41,28.92-14.29,31-9,.94-9-7.64-9.91-11.91-2.17-10-6.19-21,3.64-30.09C209.81,665.13,221.32,673.67,221,684.89Zm-13.6-25.55c-2.17,4.89-12.64,4.95-16.59,9.52-4.05,11.83-8.08,6.5-14.13,1-9.55-8.67-18.49-16.79-15.66-31.45C171.07,605.71,215.64,641,207.39,659.34Zm-13.23,59.73c1.78,1.78-.38,1.79-1,2.3-2,1.6-5,2.61-5.95,4.63-7.81,17.45-20.9,8.27-32,6.14C104.06,718.62,144,664,194.16,719.07Zm-19.8,28.17c2.78-.46,3.38,3.08,4.94,4.7,12.39,12.94-.88,20.4-6.72,27.56a59.88,59.88,0,0,1-36,21.57,15.24,15.24,0,0,1-16.82-9.15C111,764.42,153.84,751.1,174.36,747.24Zm-54.18,58.85c-41.63,19.78-64.26-34.8-23.39-46.48,13.92-3.79,28-9.2,42.41-10.19C106.23,773.78,100.26,791.4,120.18,806.09Zm5.66,17.09c9.06-22.66,31.18-8.91,50.84-34.09-6.07,13.44-9.45,28.61-4.87,41.16C187,878.13,89.64,891,125.84,823.18Zm50.89,40.32c1.72-2.76.15-10.5,6.51-8.06,4.31,1.66.25,7.48,1.23,9.36,1.86,38.15,39.84,88.7-4,114.42-21.46,11-38.63-5.76-36.34-28.74.44-21.17,12.41-37.9,17.56-57.11C164.5,882.79,170.83,873,176.73,863.5Zm62.4,114.16C221,967.77,216,950.49,213.13,932c-.41-2.67-1.54-5.79,4.13-3.27,14.4,5.94,34.52-11.13,40.47-25.49,4.87,16.27,8.94,32.89,19.47,46.67,1.86,2.49,1.55,4.76,1.85,8.61C278.55,976.5,254.54,986.36,239.13,977.66Zm25.06,9.82C275.83,983.87,282,976.13,286,964.6c3.23-9.3,8.22,1.16,12.69,1.21,6.12.07,11.68,3.66,18.49,1.76,8.52-2.38,5.66,6.33,7.52,10,.94,14,.57,36.74-14.73,47.2-23.82,17.22-42.07-12.38-49.1-33.09C259.18,987.58,263.38,987.73,264.19,987.48Zm28.42-36c-19.22-18.59-26.78-42.54-29.26-68.06-1.58-16.2,1.12-32.92-6.43-48.22-2-4-4.64-7.51-4.89-12.47,10.55,11.62,21.86,19.22,38,11.66,3.68-1.73,3.89,2.71,5.2,4.3,17.15,20.85,30.82,43.46,35.86,70.59C339.09,939.49,326.66,974.68,292.61,951.49Zm33.16-83.64c-7.79-13.26-15.61-26.55-26.62-37.64-3.57-3.6.75-6.7,2.66-9,3.56-4.24,5.49,1.66,6.89,2.79,13.18,10.73,27.47,17.54,44.86,14.9,4.28-.65,3.32,3.11,2.85,2.8,4.11,25.18,12.31,47,19.43,69.22,1.21,3.77,5.46,8.09,2.08,11.32C351.78,919.26,338.25,887.9,325.77,867.85Zm96.81-95.3c-6.81-6.08-14.45-10.8-24.19-18,17.69,2.42,31.11-7.65,46.65-1.85,21.63,8.08,36.61,29.8,31.52,51.38-2.74,11.23-28.05,14.89-31.56,1.56C441.48,791.88,433.06,781.93,422.58,772.55Zm-57-119.17c2.33-4.4,7.27-1.46,10.92-2.53,12.78.33,24,4.63,28,17.31,3.6,11.33-6.28,16.58-14.2,21.88-5.61,3.75-7.51-1-10.78-4.13-9.26-9.86-21.13-11.46-34.13-11.54C350.87,666.21,361,662.71,365.6,653.38Zm-21-27.4c31.76,1.77,7.15,36.16-8.57,42.24-17.39,9.79-35.8,17.77-53.84,26.4-.7.33-2-.67-3.08-1,8.07-7.75-.49-19.75,6.78-27.47C302.53,648.45,318.45,629.26,344.61,626ZM92.5,619c-23.34-13.92-18.42-61,9.59-66.3,3-.68,8.47.25,8.6-3.59.23-6.36-7.49-6.3-10.9-7.53-16.82-6-28-18.81-39.71-30.8C38.91,488.83,36.16,436,73,429.08c5.31-1.34,8.13-2.38,4.42-9.63-20.38-35.76,29.59-87,65.47-64.54,9.86,5.48,10.81,21,18.77,22.14,3.77.36,5.45-1.68,7.95-4.55,19.71-19,51.76-5.69,68.09,11.12,6.6,6.61,9.37,17.28,13.15,26.42,8.6,15.81,2.46,45.4,12.65,56,2.44,1.68,4.67-1.1,6.06-3,25.26-32.52,93-5.42,72.74,36-1.28,8.69-18,24-3.36,27.91,14.28,2.54,24,17.47,22,31.45-3.65,26-24.91,38.82-40.31,56.06-.77.87-2.11,1.45-2.64-.91-2.77-12.42-12.65-19-23.33-20.06-16.91-1.89-27.62,11-36.19,24.26-9.13-16.85-36.76-16.94-45.74.7-.32.67-2.58,1.15-2.6,1.11-2.45-5.32-5.34-10.55-6.88-16.14-.9-3.27,3.44-4.41,5.42-6.54,10.25-11,20.5-22,30.18-33.49,2.88-3.43,6.22-3.23,9.15-2.87,22.7,2.73,45.08.13,67.45-3.22,4.66-1.9,17.86,0,17.32-6.74-.56-2.37-3-2.54-5.7-2.15a402.08,402.08,0,0,1-80,4.2c10.17-15.18,20.38-29.88,30-45,2.48-5.07,11.2-18.4,9.58-23.24-1.93.54-4.8.46-5.64,1.72-7.56,11.35-14.4,23.19-22.17,34.4-10.71,15.5-22.17,29.42-33.08,45-3.5-22.12-1.37-43.11,2.87-63.93,1.49-7.26,4.45-14.22,6.42-21.4,2.18-7.36-5.46-6.64-7.86-1.32-11.59,27.31-16.35,56.42-11.24,85.11,2.83,15.94-9.12,19.06-14.43,27.56-3,4.77-4.9-3.13-5.64-4.82-7.91-18.07-15.83-36.19-22.22-54.82-1.6-4.67,1.73-11.41,3.72-16.87,10.33-28.3,18.21-57.13,22.15-87.12-.28-5.72,9-27.06-.16-27.11-3.06-.34-1.93,1.72-2.25,3.17-6.86,38.07-17.79,75.38-29.28,112.26-.85-.75-2.13-1.34-2.47-2.28-5.45-14.84-11.77-29.46-15.8-44.69-2.75-10.38,7.22-18.93,8.18-29.05,1.25-13.21,5.65-26.34,1.86-39.82-.87-6.19-7.36-4.9-6.64,1.17.16,16.95-2.12,33.48-9,50.61-7.33-23.15-14.13-44.9-21.24-66.54-.47-1.43-1.09-5.07-3.89-4-2.44.92-2.79,3-2.26,6.4,9.28,46.36,25.87,88.31,40.64,133.74C133.92,503.5,112.89,487,91,468.28c-1.84-1.54-4.15-2.32-5.71-.57-3.18,9.8,48.51,49.47,58.66,54.29,28,17.59,31.5,48.3,44.34,74.75-30,2.18-30-15.54-38.92-35-3.6-6.8-22-28.05-29.4-23.56-1.86,1.26,0,2.26.74,3.15,7.27,9.22,17.74,15.77,22.13,27.42,1.65,6.84,8.35,12.92,7.65,19.94C136.63,587.22,124,581,110.86,577c-2-.67-4.47-.11-4.51,2.35-.1,5.6,5.31,6.34,8.7,7.45,19.19,6.27,38.55,12,57.93,17.65,24.1,2.58,17.06.82,30.16,22.42-16.49-14.7-30.42-12.6-42.91-3.51-14.44,9.51-.83,33.12-13.35,24.51-8.42-3.14-17-6.23-26.06-3.63-4.79,1.38-9.91.7-9.19-3.78C114.18,624.78,100.5,623.93,92.5,619Zm9.36,50.84c2.66-13.31,13.4-17.77,26.58-17.1,18,1.07,30.35,12.36,42.57,23.82,4.82,6.4,17,12,13.79,21.24-16.62-9.36-33.55-18.87-52.8-6.27-3.14,2.06-11.12-3.38-16.91-5.23C107,683.73,100.25,677.92,101.86,669.87ZM89.13,705.51c8.51-3.52,17.49-6.91,27.15-6.45,19.28-3.65-10.8,25.62,29.2,39.12-22.24,2.3-63.35,16.12-68.13-15.69C75.86,714.05,82.42,708.28,89.13,705.51Zm-47.46,49.7C45,747.32,55,743.69,64.2,740.65c16.26-4.49,15,13.31,33,8.48C78.88,757.84,61.32,769,66.41,790.21c0,.07-5,2.81-7.36,2.35C37.46,788.28,35,770.85,41.67,755.21Zm-8.85,84.31c-2.44-14.44,17.26-29.44,29.72-35.26,11.47-5.37,12.26,4.13,16.64,7.39,12.44,10,25.58,8.37,39.61,4.24-4.08,24-26.78,33-41.15,49.21C60.28,882.45,30.33,865.35,32.82,839.52ZM68,963.07c-52.26-4.54-46.63-83.9.92-83.68-11.14,27.73-9,61.07,26.31,68.58C87.58,955.54,80.72,964,68,963.07Zm4.77-47.44c-4.09-27.76,12.27-44.76,28.85-62.4,8.44-9,8.25-.34,9.22,4.36,5.36,23.47,32.72,26.29,51.42,14.26-12.59,23.25-13.2,49.73-37.78,62.92C106.83,946.15,76.49,939.9,72.73,915.63ZM98.8,974.55c.28-7.48,7.23-14.83,7.08-24.39,0-1.6,9.31-4.07,14.52-4.84,6.24-1.31,10.77-5.13,16.16-7.91-3.2,23.64-2.82,41.27,21.27,53,3.64,2,14.53-.61,14.34,1.78C160.52,1034.74,96.37,1017.66,98.8,974.55Zm-13.55,231a55,55,0,0,0-36.13-14.89c15-28.06,18.68-59.27,30.21-88.59,6.71-4.77,26.91,13.86,33.61,7.57-1.76-10.67-17.45-13.23-25.94-16.4-3.72-1.35-2.56-2.46-1.41-4.16,13.69-20.11,19.19-43.6,27.68-65.89,2.46-6.48,7,1.64,10.63.22.29-.11.91,1.11,1.46,1.19,25,3.53,6.26,13.43.29,16.82-8.71,10.93-6.29,41.18,5.68,51.28,2.27,1.91,3.74,3.58.77,5.61-17.68,12.06-9.51,22.55-15.43,37.76-8.45-5-16.31-10.9-24.54-16.26-3.94-2.52-7.69.1-8.93,3.17-.52,2,2.56,3.07,4.71,4.33a133,133,0,0,1,20,13.88c7.85,6.86-.38,12.32-3.09,17.69-7,13.77-9.19,28.7-11.69,43.54C92,1209,89.85,1209.74,85.25,1205.55Zm13.65,75.31c6.27-54.71-4.43-76.92,20.71-132.52,6.24-21.29,13.66,14.12,45.57,10.72-15,25.45-21.47,57.8-2.43,82.57,1.53,2.06,5.74,3.76,3.83,6.48C145.2,1260.16,119.48,1263.12,98.9,1280.86Zm103.45-14.25c-16.85,12.45-34,24.49-51.2,36.48-3,2.08-2-1.29-2-2.3,0-25.74-18.69-31.49-4.12-32.55,9.95-6.32,22.39-7.5,31.56-16.21,6.88,6.07,15.28,5.87,23.24,7,3.95-.48,10.12-4.29,11.21-1.18C212.37,1261.7,205.72,1264.12,202.35,1266.61Zm184.21-221.52c2.71,20.93-25.88,13.13-6.12,36.77,17.71,26.36-17.27,61.68-45,49.17-4.12-.73-6.26,3.41-2.89,6.56a181.21,181.21,0,0,1,31.74,42.26c3.71,6.77-2.07,33.43-8.12,41.28-9.1,11.79-21.54,12.42-34.5,11.77-10.19-.49-5.13,11.65-8.93,17.52-5.23,13.4-18.94,24.08-33,27-20,4.49-36-6.08-42.52-23.76-2.93-12.3-9-14.7-20.09-8.15-20.56,12.1-51.84-5.88-54.3-29.6-2.13-20.55,2.65-38.93,12.56-56.41,5.84-9.12-1.52-13.1-9.51-10.11-9.28,4-30.33-7.11-35.46-19-11.49-24.58,28.68-28.65,8.31-43.89-15.14-11.48-8.55-40.66,3.61-51.82,5.1-5.52,11.24-10.26,17.23-15.19,4.75-3.9,11.91-4.81,14.61-13.86,3.06,20.37,8.72,36.37,29.34,41.89-6.78,4-49,15.7-44.7,22.4,2.69,4.56,9.62.49,13.63-1.65,14.79-7.87,31.3-10.7,46.61-16.91.42-.17,1.21.59,1.83.92-1.53,2.64-2.47,6-4.7,7.83-17.9,14.53-30.32,33.87-45.3,51-1.85,3.4-12.41,9.76-9.29,13.36,2.07,1.31,5.31,1.77,7.34-.46q12.66-13.83,25-28c2.63-3,3.17-8,8.18-8.73,2.45,14.51-2.81,28.3-5,42.48-.26,1.55-2.26,5,2,5.36,6.1.47,7.13-4.85,7.77-8.52,2.8-15.93,6.94-31.45,5.39-48.33-.57-6.27,10.33-13.77,16.32-20.43,7.89-8.1,15.08-17.34,23.8-24.41,2.55,23.19,3.23,46.82,4.4,70.18.31,9.29-9.09,13.9-13.14,21.33-16.51,26.69-30.33,54.36-40.53,84.2-.91,2.84-4.8,7.64,1.11,8.67,4.36.77,5.43-5,6.6-8.09,11.49-32.77,29.26-61.28,47.25-90.91,1,12,1.23,23.58,3.13,34.87,2.13,12.64-3.12,21.83-10.52,31.1-8.3,10.39-11.31,23.38-15,35.87-.4,1.36,1.78,3.49,2.77,5.27,1.55-1.71,3.87-3.15,4.55-5.15,4.56-13.47,9.2-26.83,19.11-37.63,5.32,17.47,6.51,35.38,8.89,53.09.73,3.9,1.3,10.92,5.2,12.55,4.94-2.73,3.09-7.65,2.7-11.54-6.61-32.92-7.8-67-9.47-100.44,17.1,21.38,33.34,41.38,51.62,61.27,2.49,3.53,7.78-3,4.9-5.81-17.71-22.69-34.86-45.85-53.05-68.15-8-9.81-6.65-20.93-7.64-31.76-1.34-23.84-5.26-47.33-3.14-71.25,13.58,11.55,27.14,23.15,40.8,34.64,2.87,2.42.47,4.49.37,6.9-.8,19.64-1.42,39.4,9.95,56.92,2.28,6.29,9.34,3,6.28-3.5-7-15.69-11.31-33.83-7.13-50.87,8.18,1.42,36.14,38.17,40,30.74,1.67-1.83.8-3.82-1-5.62-15.14-15.89-31.87-30.58-46-47.28,14.45-6.07,30.77-3.33,46-3.92,2.13,0,5,.4,4.88-2.65-4.64-8.66-27.57-4.18-36.94-5.65,11-13.38,14.87-28.63,14.11-47.42C349.23,1007.59,379.21,1016.17,386.56,1045.09Zm2.29-52.93c-4,4.81-9.62,7-19.8,6.75-10.55-1.68-18.26-12.85-28.23-21.35-12.93-11-5.44-19.8-.45-30.48,6.14-12,2-25.17,1.38-37.84,9.67,10.1,17.61,22.17,32.52,21.14,13.83-.56,12.5,9.59,15.48,16.18C396.58,961.61,401.32,977.32,388.85,992.16ZM684.8,1202c-5.89,18.46-11.29,37.12-18.28,55.16-1.94,5-8.49-.2-12.48-.9-56.81-11.85-107.47-44.13-150-82.76-18.22-19.12-43.15-33.61-54.26-58.35-1.52-3.58,4.31-6.15,7.16-8.81,8.21-8.32,18-14.91,25.4-23.89C533.4,1143.7,612.59,1182.35,684.8,1202Zm187.62-2c-97.21,17.23-206.29-4.71-291.72-53.66C494.35,1095.43,427.33,1007.2,389,915.61l1.41-.66c69.73,128.45,195.07,219.57,333.79,261.24,31.19,11.12,64.59,12.59,96.78,20.29,17.83,2.67,38-2.41,55.14,2.32A22.45,22.45,0,0,1,872.42,1200Zm34-19.48c-14.29,4.52-29.07-1.09-43.57-2-19.82-2.32-39.68-4.31-59.46-6.91-56.64-6.19-110.87-24.09-163.54-45.12-76.22-36.22-138.32-94.91-191.34-159.7C423.38,932.31,401.25,895,381.62,857c-2.92-5.61-2.48-12.88-10.3-18.08,80.77-12.29,146.16,4.4,222.54,26.36C692.35,897,779.65,961.17,840.11,1045,872.53,1083.85,892.32,1133.15,906.38,1180.49Zm-15,347.67c-15.94-17.16-35-24.13-58.1-13.72-18.82,3.29-36.69-17.39-55.84-8.57-21.95,8.08-43.32,16.08-66.37,5-2.9-1.4-8.63-1-8.13-4.49.44-3,4.58.34,7.12.59,12.29-4.65,24.37-11.81,38.5-10,24.11,2.53,39.12-24.54,62.76-23.18,14.47.43,70.94,16,77.49,3.16-.13-2.6-2.81-5.26-5.59-3.85-5.35,2.72-10.26.53-15.29-.22-24.41-1.39-54.6-15.13-77.22-4.69-16.44,8.31-30.4,22.08-50.89,18.93a17.14,17.14,0,0,0-9.28,1.09c-13.49,6.24-27.15,11.06-42.41,8.76-5.32-.81-6.74-6.19-10.72-8.49,28-7.14,42-33.16,60.72-53,15.74-18.36,22.57-7.38,35.17,6.88,1.77,1.54,6.14.74,5.68-2.3-3-12.75-24-17.12-2.93-26.71,15-7.09,28.13-12,44.3-2.77,34.37,21.82,52.41-1.73,34.4.47-36.62-1.28-37-31.92-84.38-5-22.15,16.33-17.54-5.85-43.23-4.81-41.5-2.16-73.26,56.8-114.13,23.2,22.12-8.25,45.58-14.4,64.29-29.56,32.42-24.9,72.76-55.57,112.08-24.32,2.41,1.83,3.69-.67,5-1.8,1.7-1.52.18-2.7-1-4.07-41.63-38.39-91.46-2.91-125.55,24.46-20.56,13.67-43.91,23.57-68.32,27.78-24.87,3.86-38.76-12.43-52.76-29.91,58.13,14.78,68.86-53,128.28-21.25,4.19,2.14,7.82-1.6,4.27-5.11-62.57-46.94-86.83,45.55-146.88,11.36-20.17-11.89-39.16-17.64-61.62-12-3.87,1-10.08,2.91-11.05-.33-1.28-4.24,5.52-3.4,8.4-5.46a32.53,32.53,0,0,1,4.35-2.36c36.22-20.78,57.49-.58,91.54-17.1,8.22-3.93,15.31-9,18.85-14.48,6.37-9.82,32-17.2,44.2-16,21.87,2.07,39.47,13.69,58.63,22,4.84,2.47,16.35,4.23,17.87-4.32-23.79-1.47-40.6-22.39-64.92-25.43-47.94-8.62-52,11.69-86.29,32a41.75,41.75,0,0,1-24.65,2.67c-30.09-5.38-56.35,9.3-81.71,21.08-32.15,13.07-48.49-16.65-78-20,51.41-25.74,75.5-48.8,136.51-40.68,4.49,1,6.87-5.38,2.26-6.73-72.77-13.82-94.7,20.84-153.69,43.34-38.65,9.12-74.08,37.24-115,30.16-21.37-3.28-41.95-5.25-61,7.13-42.24,36.13-54.37,52.65-112.6,65.29-18.24,4.65-37.1,6.83-55.63,10.38-2.17.42-5.85.45-5.85,3.89,0,12.44,78.89-8.1,89.35-11.26,59.86-13.15,79.68-72.35,124-66.79,11.25,1.41,22.66,1.42,34,2.19,11,.76,22.83-3.75,32.62-1.25,40.61,6.36,78.74,25.87,111.82,50.34,36.13,28.37,74.83,8.14,115.45,25.67,27.26,10.6,50.53,29.68,68.94,52.2,9.87,13.85,21.74,25.9,36.43,35.21,14.31,9.07,32.22,6,46.38,15.61,13.92,9.43,25.4,20.25,31.06,36.56,2.52,4.53,5.53,13.92,11.36,11.72-4.72-32.07-27.66-59.58-61.1-64.6-28.24-3.62-44.18-25.54-60.54-45.9-28.72-31.68-69.06-56-112.44-59.48-16.1-1.17-32.62,1.86-48.21-4.09-19.79-7.54-35-22.62-53-33.11-21.25-13.58-44.68-21.16-69.1-26.81,84.6-54.79,96.36,25.45,178.5,8,55.27-10.6,68.06,59.75,119.5,64.08,37.9,4.94,45.24,27.06,63.85,55.26,49.38,63.4,115.61,12.93,151.25,101.42.46,1.37,2.83,2.26,4.49,2.93,4.6-1.2.91-10.08.3-13.09-11.76-27.15-30.34-47.56-58.9-57.82,45.38-19.39,44,9.06,79.74,1.29,7.92-2.4,15.45-6.75,24.43-3,14.9,6.21,24.36,19.57,37.69,27.79,4.25,3.1,11.84.36,6.59-5C902,1538.17,896.55,1533.29,891.34,1528.16Zm-226.66-56.63c-6.6-9.16-10.17-20.36-20.69-27.55,38.41-3.33,65.62-51.7,103.51-25.33-19.47,6.12-28.4,22.92-39.83,37.63a64.44,64.44,0,0,1-37,23.9C669.46,1480.48,666.82,1474.49,664.68,1471.53Zm99.24-377.24c-11.94-30.29-8.6-80.19-39.34-98.42-22.34-9.59.48-15.7,4.4-42.48.31-2.2-2-6.77-4.08-8.39-16.43,9.29-14.4,40.68-39.35,22.73-3.27-2.1-2-2.87-.62-5.45,5.78-9,18.07-18.91,10-31.43-2.21-1.13-3.15.95-4.37,2.23-16.85,17.64-29.81,38.91-50,53.36-1.91,1.36-3.73,6.16-5.6,3.72-2.69-3.52-5.77-10.9-4.13-12.91,8.95-10.94,19.23-20.81,29.19-30.91,5.31-5.37-1.66-7.47-2.86-11-2.49-8.4-28,23.68-37.24,24.38.92-5.87-13-7.9-4-16,7.77-6.15,31.52-32.41,24.37-41.87-4.41-6.84-30.11,24.2-35.56,28-2.81,4-13.25-13.13-15.73-15.59-12.37-18-31.84-26.32-52.41-21.18-7.56,1.89-16.29,7-15.66,14.52.58,7,8.8,2,13.75,1.46,19.52.39,29.24,15.71,40.19,28.27,3.1,3.55,13.84,7.88.61,14.55-13.43,6.78-25.56,16.14-38.82,23.57-5.16,2.89-13.63,0-15.7,8.23-6.52,34.16,51.42-3.33,61.21-10.9,4.81-3,7.11-11.16,13.27-9.3,3.36,1,6.16,7.45,6.93,11.84.37,2.08-4.26,5.59-7.2,7.61-10.78,7.43-21.92,14.33-32.69,21.78-4,2.79-.94,6.34.66,9,6.45,8.58,31.67-11.76,39.64-15.14,3.21-1.84,5.91-8,9.88-4.77,3.4,2.75,10.59,7.85,4.84,12.9-13.71,12-27.82,24-43.37,33.41-8.49,5.11-4.34,9.77-2.65,13.7,8.8,12.71,44.71-25,55.31-30,1.22,5.59,5.23,14.53,3.21,16.22a294.72,294.72,0,0,1-40.29,28.47c-8.94,5.2-5.47,12.07-3.64,17.13,2,6.16,8.64,3.48,12.88.6,12-7.84,23.77-16.18,35.15-24,2.17,18,4.45,36.7,6.67,55.44.23,1.88.73,3.88,2.13,4.56,9.37,1.67,9.73-44.22,8.1-51.54-1-7.08-3-17,.58-21.19,11.28-13.23,25-24.4,37.83-36.27,3.16-2.92,8.12-8.49,9.79-7.7,11.5,5.49,23.52,11.63,29.44,23.45,5.78,11.55,11.18,23.36,12.76,36.87,7.69,31.23,14.83,65.34,41.76,85.89,2.32,2,4.92,1.41,7.53.89C777.12,1135.27,769.6,1114.86,763.92,1094.29ZM663,1009.43A182.46,182.46,0,0,1,645.2,1024c-1.72-5.16-6.46-10.84-2.19-15.7a116.86,116.86,0,0,1,22.13-19.92c4.75-3.19,9.39,2.57,13.4,4.81C673.28,998.75,668.31,1004.25,663,1009.43ZM770.79,232.15c3.92,4.85-2.76,8.69-4.89,10.46-10.37,8.66-21.51,16.75-36.28,16.51-17,1.95-28.4-7.08-37.66-19.82-7.42-10.21,3.31-32.31,16.82-36.44A58.1,58.1,0,0,1,745,203c9.21,1.5,6.56,12.39-2.76,8.26-13.15-5.85-25.52-2-36.29,6-7.63,5.66-1.36,20,8.39,25.87,18.94,11.46,32.1-1.79,46.5-9.36C764.48,231.87,768.22,229,770.79,232.15ZM720.61,1046c2.91,11.15-43.79,14.34-52.64,26.51-10.92,5.8-12.13-26.81,11-29.76C687.88,1041.21,720.2,1037.43,720.61,1046ZM554,1572.63c1.53,4.78,6.46,23.52.56,24.74-3.45-.08-4.88-5.39-5.51-8.38-5.3-27.8-22.3-46.2-46-60.45-44.93-27.67-102.34,17.32-139.6-31.06-18.29-17.89-46.79-18-70.93-20.41-20.56-2.23-35.81,7.69-46.77,23.31-41.37,60.49-116,12.67-171.68,44.13-14.69,5.85-64.16,29.75-72.84,11.8,2.21-6.27,7.86-1.86,9.29-2.6,56.16-10.22,91.11-42.41,152.45-32.26,82.05,13.74,66.65-64.35,136.76-54.32,34.64.86,67.68,14.73,91.55,40,2.63,2.39,7.2,3.16,11,3.64,19.12,2.44,37.84-1.66,56.76-3.42C500.14,1504.44,539.72,1534.93,554,1572.63Z"/></g></g><g id="Red_Japanese_Frames" data-name="Red Japanese Frames"><path class="cls-8" d="M0,20V1580a20,20,0,0,0,20,20H956a20,20,0,0,0,20-20V20A20,20,0,0,0,956,0H20A20,20,0,0,0,0,20ZM924,1548H52V52H924Z"/><path class="cls-9" d="M952.1,15.41,928.69,38.83A4,4,0,0,1,925.86,40H50.14a4,4,0,0,1-2.83-1.17L23.9,15.41A2,2,0,0,1,25.31,12H950.69A2,2,0,0,1,952.1,15.41ZM40,1549.86V50.14a4,4,0,0,0-1.17-2.83L15.41,23.9A2,2,0,0,0,12,25.31V1574.69a2,2,0,0,0,3.41,1.41l23.42-23.41A4,4,0,0,0,40,1549.86ZM936,50.14V1549.86a4,4,0,0,0,1.17,2.83l23.42,23.41a2,2,0,0,0,3.41-1.41V25.31a2,2,0,0,0-3.41-1.41L937.17,47.31A4,4,0,0,0,936,50.14ZM925.86,1560H50.14a4,4,0,0,0-2.83,1.17l-20,20a4,4,0,0,0,2.83,6.83H950.69a2,2,0,0,0,1.41-3.41l-23.41-23.42A4,4,0,0,0,925.86,1560Z"/></g></svg>