<svg id="Card" xmlns="http://www.w3.org/2000/svg" viewBox="0 0 1024 1680"><defs><style>.cls-1{fill:#f2f0ed;}.cls-2{fill:#8c1707;}.cls-3{fill:#16592d;}.cls-4{fill:#38408c;}.cls-5{fill:#f79d31;}.cls-6{fill:#d82e21;}</style></defs><rect class="cls-1" x="14.5" y="14.5" width="995" height="1651"/><polygon class="cls-2" points="966 1619.17 966 60.83 1018 8.83 1018 1671.17 966 1619.17"/><polygon class="cls-2" points="60.83 58 8.83 6 1015.17 6 963.17 58 60.83 58"/><polygon class="cls-2" points="8.83 1674 60.83 1622 963.17 1622 1015.17 1674 8.83 1674"/><path class="cls-3" d="M727.12,1618l.26-2.24c.65-5.4,1.58-10.77,2.39-15.52,2.21-12.81,5.1-25.66,7.9-38.07l0-.19c1.82-8,3.69-16.35,5.35-24.55,3.25-16,9-31.47,14.54-46.38q1.51-4,3-8.07c4.83-13.18,11-26,17-38.47,1.26-2.62,2.52-5.25,3.76-7.87,5.23-11,11.52-23.92,18.62-36.36,4.17-7.29,8.94-14.35,13.55-21.18l.14-.2c1.89-2.8,3.84-5.69,5.72-8.55l10.27-15.6q14.58-22.17,29.12-44.33a.57.57,0,0,1,.08-.13c-6.76,5.56-11.75,12.91-16.59,20l-.15.23c-.81,1.18-1.61,2.36-2.42,3.53-1.8,2.61-3.62,5.22-5.43,7.83-9.88,14.24-20.1,29-29.58,43.79-6,9.32-11.28,19.29-16.43,29-2.19,4.11-4.66,8.75-7.1,13.15-8.41,15.16-15.3,31.29-22,46.89l-.34.81q-1.82,4.26-3.64,8.49a301.75,301.75,0,0,0-16.93,52.91c-1.23,5.42-2.63,10.88-4,16.15-3,11.6-6,23.51-7.42,35.57-.6,5.16-1.43,10.37-2.24,15.41-.65,4-1.31,8.17-1.85,12.24l-.23,1.74H683.2l.27-2.24c.53-4.32.88-8.76,1.22-13,.54-6.84,1.1-13.83,2.32-20.64.58-3.25,1-6.62,1.41-9.89.76-6.09,1.55-12.37,3.4-18.31,1.27-4.06,2.51-8.14,3.76-12.21,3.94-12.94,8-26.29,12.91-39.24,5.63-14.91,12.66-29.34,19.46-43.29l.12-.25c2.31-4.74,4.69-9.63,7-14.46,6.61-14,15.27-27.17,23.64-39.93,6.25-9.52,12.67-19.32,18.19-29.32,14.12-25.63,32.47-47.09,53.24-70.51a511.42,511.42,0,0,1,60.44-57.46c19.5-15.81,41.88-31.19,68.43-47l3-1.8v20.38l-.56.58c-5.49,5.68-10.57,12-15.49,18-4.57,5.65-9.3,11.48-14.39,16.89-16.85,17.89-30.49,38.7-43.68,58.82-3.46,5.27-7.37,11.24-11.2,16.92-7.16,10.6-13.59,22-19.82,33-2,3.61-4.08,7.22-6.15,10.81-11.32,19.61-19.89,39.73-29.91,64-6.55,15.84-12.92,32-19.08,47.63l-2.21,5.62c-7.36,18.7-11.3,37.62-14.71,55.4-.9,4.75-1.67,9.62-2.4,14.34-.69,4.4-1.47,9.39-2.36,14.1-2.51,13.13-4.9,27.21-5.42,41.23l-.08,1.93Z"/><path class="cls-3" d="M742.34,1258.59c-1.76-2.82-3.44-5.63-5.07-8.34-3.73-6.22-7.22-12-11.3-17.56-6.93-9.39-1.47-16,2.52-20.76a28.54,28.54,0,0,0,3.91-5.51c7-14.65,16.32-28.07,25.37-41.05,3.32-4.77,6.74-9.67,10-14.56l.3-.44c1.38-2.06,2.41-3.73,2.56-5.32-.79.87-1.6,1.71-2.34,2.47a58.74,58.74,0,0,0-4.18,4.64c-12.25,15.82-22.68,33.28-32.77,50.17-2.65,4.43-5.27,8.81-7.92,13.18-1,1.59-2.15,3.3-4,3.3-2.06,0-3.13-2.1-3.84-3.48a28,28,0,0,0-4-6.12c-9.13-9.91-3.52-17.86,1.43-24.88.66-.92,1.29-1.83,1.9-2.73a935.74,935.74,0,0,1,58.66-79.16c8.18-9.84,16.94-19.38,25.42-28.6,4.46-4.86,9-9.81,13.41-14.73,9.83-11,20.57-21.16,31-31l.11-.1c3.81-3.6,7.75-7.33,11.58-11,18.6-18,39.5-33.81,59.7-49.08l.25-.18c4.84-3.66,9.84-7.45,14.73-11.2,10.24-7.86,19.5-14.9,29.1-21.46l3.13-2.14v16.8L947.38,967c-31.89,37.76-64.87,76.81-97.76,115.17-10.26,12-96.28,151.65-103.67,175.93l-1.27,4.21Z"/><path class="cls-4" d="M827.4,807.64c-2.62,0-5.23-.07-7.75-.2-20.07-1.06-35.59-5.56-47.45-13.74C753.82,781,743.62,762.07,742.72,739c-1.37-21.31,5.52-40.51,19.93-55.5,2.78-2.88,6.89-4.35,12.22-4.35s10.9,1.43,14.69,2.5c4.38,1.24,8.94,1.4,13.35,1.55a61,61,0,0,1,13.82,1.56c5.85,1.55,11.83,3,17.61,4.32,13.29,3.13,27,6.37,40.21,11.54A386,386,0,0,1,957.26,746c1.35,1,2.7,2,4,3.11l.72.6v32.07l-1.59.34c-7.23,1.53-14.54,3.45-21.6,5.3l-.21,0c-5.92,1.56-12,3.16-18.12,4.54l-8.05,1.83c-14.17,3.23-28.74,6.55-43.18,9.31C853.09,806.2,839.79,807.64,827.4,807.64Z"/><path class="cls-4" d="M958.64,733.36a144,144,0,0,0-20.92-16.57c-23-14.65-41.4-24.85-59.65-33.08-25.15-11.33-51.88-18.85-81.69-23-5.51-.76-8.94-2.79-10.48-6.2-2.26-5-.07-12.23,6.9-22.86,11.06-16.9,30.45-26.59,53.2-26.59a75,75,0,0,1,25.79,4.54c20.91,7.75,39.75,22.38,57.59,44.71,11.58,14.51,22.18,31.77,32.42,52.78l.2.42v29Z"/><path class="cls-5" d="M929,722.21q-6.57-3.16-13-6.34l-.11,0c-22.21-10.87-43.2-21.14-66.44-27.42-24.07-6.51-48.52-9.37-69.55-11.54a4.17,4.17,0,0,1-2.31-1.18c-.15-.12-.26-.22-.38-.3l-1.87-1.28,1.49-1.7c.41-.47.81-1,1.2-1.45a24.76,24.76,0,0,1,3.08-3.35,18.07,18.07,0,0,1,12.14-4.45A45.5,45.5,0,0,1,804.39,665c2,.5,4,1,5.85,1.33,32.1,5.42,64.4,17.65,98.75,37.41,1.71,1,3.5,1.88,5.39,2.83,6.07,3,12.35,6.21,17.13,12.61l.71.95-2.12,2.56Z"/><path class="cls-4" d="M754.56,593.43c-.16-.5-.34-1-.52-1.5a24.18,24.18,0,0,1-1.06-3.56c-1.28-6.92-2.88-13.93-4.42-20.7C745,552,741.31,535.8,741,519.19c-.5-7.49.22-18.18,6.45-26.13,3.92-5,8.75-7.65,14-7.65,8.5,0,16.45,6.92,21.28,18.5,7.42,17.79,4.38,34.89-2.48,55.11-4.17,12.3-11.42,22.82-17.82,32.1a9.08,9.08,0,0,1-3.57,2.67c-.49.25-.94.49-1.32.73l-2.19,1.4Z"/><path class="cls-4" d="M659.61,921.29c-.23-.77-.52-1.57-.81-2.34a18.63,18.63,0,0,1-1.48-6c-.42-18.55.07-33.6,1.57-47.35a256.06,256.06,0,0,1,13.6-57.94c7.73-21.89,18.7-41.58,27.39-56.28.65-1.11,1.3-2.26,2-3.43,4.29-7.64,9.16-16.3,19.16-18.58l.11,0a28.06,28.06,0,0,1,4.28-.36c11.58,0,12.3,9.19,12.83,15.9.13,1.64.25,3.16.49,4.54,4.12,24,17.2,41.3,41.16,54.57,4.22,2.33,6.86,9.82.44,23.25-6.78,14.19-17.07,25.83-31.45,35.59-10.14,6.88-20.37,14-30.26,21l-.19.13c-12,8.4-24.41,17.08-36.85,25.4-1.35.91-2.72,1.78-4.09,2.64-4.38,2.78-8.53,5.4-11.89,9.16a4.7,4.7,0,0,1-2.74,1.3,5.89,5.89,0,0,0-.67.17l-2,.65Z"/><path class="cls-5" d="M740.46,705.25l-.73-.48-.09-.09a5.56,5.56,0,0,1-1.77-3.27c-3.23-32.27-4.74-61.21,9.52-88.62a18,18,0,0,1,3.59-4.36c.63-.61,1.26-1.23,1.85-1.89l2.82-3.12.65,4.15q.51,3.28,1.05,6.56c2.83,17.51,5.52,34,1.44,51.21-3,12.73-6.86,26.16-14.48,38.14a4.44,4.44,0,0,1-3.2,1.77Z"/><path class="cls-6" d="M533.81,1325.56c-12.1,0-20.17-5-27-16.56-8.66-14.76-19-28.92-29-42.6-7.26-9.94-14.76-20.2-21.6-30.65-5.93-9.07-11.05-18.82-16-28.24-4.1-7.81-8.32-15.84-13-23.41-19.75-32.29-35.1-66.63-49.13-99-13.73-31.73-22.81-56.77-29.42-81.19-3.81-14.1-9.11-28.08-14.24-41.61-3.36-8.84-6.82-18-9.85-27.08-3.29-9.87-6-20.1-8.56-30-1.23-4.69-2.61-10-4-15q-3-10.89-6.14-21.74l-.13-.46c-4-14-8.12-28.48-11.87-42.78-4.18-15.87-8.23-32.88-12.72-53.51q-1.8-8.22-3.62-16.43l-.11-.53c-5-22.44-10.09-45.64-14-68.7-2.64-15.49-4.25-31.36-5.8-46.71l0-.27c-.78-7.75-1.59-15.76-2.53-23.6-1.23-10.33-2.55-20.83-3.82-31l0-.15c-1.87-14.9-3.81-30.3-5.52-45.52-1.13-10.12-2-20.42-2.81-30.39l0-.2c-.56-6.8-1.14-13.84-1.81-20.75-1.69-17.47-3.45-35.23-5.16-52.41l-.1-1.06q-2.21-22.07-4.36-44.13c-.43-4.4-.77-8.84-1.1-13.13s-.68-8.78-1.1-13.11a4.28,4.28,0,0,1,.86-3.46,4.34,4.34,0,0,1,3.4-1.16h.26a32.1,32.1,0,0,1,6.85,1.06,28.56,28.56,0,0,0,6.13,1c16.63,0,33.5.55,49.82,1.07,13.24.43,26.92.87,40.37,1,15.55.16,31.34.91,46.61,1.63l7.34.34c10.14.47,20.45,1.07,30.41,1.64,7,.4,14.83.86,22.43,1.25,2.09.11,4.26.29,6.17.45,3.23.27,6.56.55,9.77.55a39.58,39.58,0,0,0,6.12-.42,31.32,31.32,0,0,1,4.57-.38c3.7,0,6.38.92,8.22,2.81,3.06,3.15,2.92,8.11,2.76,13.36,0,.93-.05,1.87-.06,2.81a450.92,450.92,0,0,0,2.28,53.38c1.42,13.2,1.89,26.67,2.34,39.71v.14c.29,8.32.58,16.92,1.13,25.34q.44,6.9.86,13.81l.05.77c1.3,21.16,2.65,43,5.33,64.39,3.42,27.25,8.23,54.81,12.88,81.46l2,11.75c4.17,24,9,48.34,13.59,71.86l.66,3.35q1.07,5.43,2.12,10.85c3.4,17.44,6.91,35.46,11.15,53,2.47,10.18,5.42,20.44,8.28,30.37,3.3,11.42,6.68,23.17,9.37,34.92,5.41,23.62,11,46.6,19.83,68,3.51,8.5,6.76,17.19,9.9,25.61,4.19,11.21,8.51,22.77,13.46,33.9,10.59,23.8,22,49.28,33.6,74.23,7.92,17,17.56,33.61,26.89,49.67l.16.28q3.32,5.71,6.6,11.42c11.8,20.57,24.13,41.29,36.05,61.33l5.82,9.8c14.09,23.7,28.63,47.84,41.16,68.61a9.85,9.85,0,0,0,1.54,1.72,12.79,12.79,0,0,1,2.2,2.57l1,1.72c4.58,7.53,5.7,9.57,3.91,11.08-3.55,3-7.57,3.41-11,3.41-1.2,0-2.42,0-3.59-.11s-2.33-.1-3.44-.1a24.19,24.19,0,0,0-2.56.12c-11.88,1.27-24,2-35.7,2.8-7.85.51-15.89,1-23.77,1.68-15.86,1.34-31.9,3.11-48.31,5l-14.77,1.66c-22.9,2.57-46.52,5.23-69.68,8.29a66.9,66.9,0,0,1-8.83.66Z"/><path class="cls-5" d="M731,985.7c-8.8-3.32-15.31-9.9-19.35-19.55-7.58-18.08-9.21-37.7-10.77-56.67-.65-7.8,4-10.78,8-13.41l1-.64a37.21,37.21,0,0,1,4.66-2.47c2.29-1.07,4.45-2.09,5.86-3.61,3-3.25,5.55-4.77,8-4.77,4.36,0,6.25,4.7,7.93,8.84l.37.93c8.26,20.18,10.83,42.88,8.06,71.43a26.2,26.2,0,0,1-11.92,19.72l-.85.56Z"/><path class="cls-5" d="M707.36,1038.94l-.24-.08c-10-3.43-11-13.44-11.92-22.27-.16-1.64-.33-3.28-.54-4.84-1.32-9.76,1.19-18.9,3.62-27.73,1.07-3.89,2.18-7.9,2.91-11.88.33-1.66,1.95-2.75,2.89-3.26a3.78,3.78,0,0,1,1.82-.53c1.38,0,2.29.85,2.73,2.53l.06.21a56.82,56.82,0,0,1,5.4,7.66c4.19,6.68,7.79,12.44,16.28,12.44.66,0,1.35,0,2-.11a5.44,5.44,0,0,1,.57,0c.25,0,.49,0,.74,0l.5,0h.23c1.79-.65,3.63-1.4,5.41-2.13l.36-.15,1.85-.75,3.68-1.48-1,3.85c-.26,1-.49,2.05-.72,3.09l0,.12a40.77,40.77,0,0,1-2.11,7.34c-.81,1.89-1.58,3.8-2.35,5.71-4.36,10.78-8.84,21.86-19.46,29.3l-.73.51c-2.91,2.09-3.94,2.43-11.66,2.44Z"/><path class="cls-3" d="M624.15,1618l.25-2.22c1.48-13.08,1.76-26.48,2-39.44.15-7.5.32-15.19.7-22.75.16-3.1.29-6.2.42-9.3.55-12.87,1.12-26.17,3.45-39l1-5.62c3.56-19.64,7.23-39.94,12.76-59.65,2.73-9.71,4.83-19.83,6.87-29.61,3.75-18,7.63-36.63,15.55-53.78,1.75-3.78,2.72-8.44,3.66-12.94,2.58-12.4,5.51-26.46,25.41-27.87,2.11-.14,4.35-.5,6.52-.84a60.38,60.38,0,0,1,9.25-1,18.82,18.82,0,0,1,8.92,2,4.36,4.36,0,0,1,2.43,2.87c.51,2.22-1,4.29-2.52,6.3a11.56,11.56,0,0,0-2.21,3.75c-2,10.35-5.39,20.46-8.64,30.24-2.11,6.33-4.27,12.85-6,19.35-4.25,15.56-8.34,32.43-12.86,53.09-4,18.52-7.4,38.64-10,59.77-3.93,32-6.46,58.06-7.94,82a249,249,0,0,0,1.2,42.46l.24,2.21Z"/><path class="cls-4" d="M682.29,635.65c-.52-1.14-1-2.2-1.5-3.26a134.33,134.33,0,0,1-12-42.61l0-.29.06-.37c.78-2.83,1.31-5.79,1.83-8.65,1.87-10.4,4-22.19,17.36-28.6a16.54,16.54,0,0,1,7.14-1.81c6.07,0,10.33,4.47,11.12,11.65,2.32,21.14-5.21,39.83-12.49,57.91-1.87,4.64-3.8,9.44-5.53,14.19a4.54,4.54,0,0,1-2.35,2.26,6.52,6.52,0,0,0-.64.37l-2,1.43Z"/><path class="cls-5" d="M651.12,871.09c-2.77-14.21-2.72-29.43.16-46.53a228.79,228.79,0,0,1,25.1-71.42c1.83-3.36,3.76-6.65,5.64-9.84,1.12-1.92,2.25-3.84,3.35-5.77a10.23,10.23,0,0,1,9.16-5.43,12.37,12.37,0,0,1,7,2.21,4.91,4.91,0,0,1,2.32,3.7c.11,2.28-1.75,3.93-3.4,5.39a10.76,10.76,0,0,0-2,2.06q-2.4,4.38-4.84,8.74c-7.67,13.79-15.6,28-21.79,43-7.17,17.35-11.91,35.59-16.49,53.24l-.06.24c-1.07,4.1-.78,8.8-.49,13.34.14,2.19.28,4.44.28,6.65v1.36l-3.7.36Z"/><path class="cls-5" d="M683.63,714.55c-15.56-8.26-13.43-22.1,2.61-68.88l.38-1.11,3.3.29.18,1.15c.63,3.87,1.48,7.61,2.31,11.24,1.78,7.82,3.46,15.2,2.93,23.41-.47,7.28-2.77,13.81-5,20.13a104.82,104.82,0,0,0-3.82,12.42l-.55,2.59Z"/><path class="cls-4" d="M647.53,911.93q-8.47-9.87-16.66-19.35l-.39-.45c-12-13.91-23.34-27-34.72-40.53-22.15-26.23-32.92-53.73-32.92-84.06,0-18.09,1.17-34,15.57-45.87,14.12-11.62,31.41-17,54.4-17l2.57,0c13.27.23,26.24,3.66,40.83,10.78l1.3.63c4.39,2.1,8.93,4.28,9.76,8.62.62,3.3-1.16,7.15-5.45,11.78C670.16,749,664,765.85,658,782.1l-1.17,3.19c-10,26.9-13.78,56.34-11.71,90,.45,7.41,2,14.9,3.55,22.84.78,3.89,1.59,7.9,2.33,12.16l1.24,7.15Z"/><path class="cls-3" d="M559.75,1618l.27-6.19c.38-8.54.77-17.27,1-25.85a275.53,275.53,0,0,1,2.68-28.58c.37-2.87.74-5.75,1.08-8.63,2.65-22.24,8.17-44.08,13.51-65.2q1.34-5.29,2.66-10.57c5.44-21.82,13.19-43.16,20.67-63.81,1.85-5.09,3.68-10.14,5.49-15.2,6.18-17.34,12.56-35.25,20.81-52a30.92,30.92,0,0,0,1.85-5.58c1.4-5.26,3.15-11.8,10.55-13.4,1.54-.34,3.09-.7,4.64-1.06,6.63-1.53,13.49-3.12,20.57-3.12,1.36,0,2.71.06,4,.18l.74.06c1.53.11,3.09.23,4,1.61s.49,2.94-.34,5.14c-6.82,18-12.35,34.05-16.91,49-2.42,7.92-4.18,16.23-5.88,24.27-1.49,7-3,14.23-5,21.13-5.93,21-10.6,42.73-15.11,63.7l-1.41,6.5c-4.19,19.46-5.34,40-6.46,59.85v.12c-.94,16.81-1.29,34-1.63,50.54-.11,5-.21,10.1-.33,15.15l-.05,2Z"/><path class="cls-4" d="M615.49,554.2c-2.08,0-3-.93-3.4-1.71-1.07-2.08.69-4.56,2.25-6.74a15.16,15.16,0,0,0,1-1.56c14.2-29.38,29.05-38.89,40.4-43.89A20.13,20.13,0,0,1,662,499c.88-.09,1.74-.18,2.53-.31l.09,0h.08c.85,0,1.59-.06,2.29-.06,3.17,0,6.61.34,8.11,2.89,1.33,2.27.68,5.4-2.15,10.44-11.39,20.27-28.25,33.7-51.56,41.06A20.72,20.72,0,0,1,615.49,554.2Z"/><path class="cls-5" d="M668,707.44a29.47,29.47,0,0,0-17.57-6.06l-1.25,0c-2.95,0-7-.34-8.51-3.23-1.57-3.08,1-6.57,2.81-9.12.31-.42.56-.76.75-1.06l.26-.38c6-9,12.27-18.38,22.38-24.14l.26-.16a6.65,6.65,0,0,1,3.2-1.24,2.43,2.43,0,0,1,2.07,1.07c.78,1.17.34,2.61-.13,3.73a8.74,8.74,0,0,0-.5,3.21,12.67,12.67,0,0,1-.45,3.39c-3.24,10.26-3.3,20.37-.2,31.84l1.5,5.56Z"/><path class="cls-5" d="M616.93,687.09c-4.8-11.65-10.77-20.13-18.77-26.68-3.34-2.74-5-5.39-5.21-8.1-.23-3.7,2.44-6.51,4.8-9a20.56,20.56,0,0,0,3.1-3.8,66.55,66.55,0,0,1,5.32-7.93l1.27.81-1.21-.89c.85-1.15,1.71-2.31,2.56-3.53l2.05-2.92,1.42,3.27a109.43,109.43,0,0,1,8.51,58.24l-.92,7.6Z"/><path class="cls-4" d="M550.29,771.52a12.7,12.7,0,0,1-3.37-.53c-.72,0-1.42.07-2.08.07-13.66,0-13.69-10-13.7-16.66a23.42,23.42,0,0,0-.51-6.19c-3.46-11-5.58-22.49-7.64-33.63-1.41-7.66-2.87-15.57-4.75-23.21-1.18-4.77,1.44-6,2.69-6.57a3.41,3.41,0,0,0,.66-.36c13.35-14.79,31.31-25.9,54.88-34a4.9,4.9,0,0,1,1.61-.26c4.07,0,9.56,4.38,12.06,7.15,1.28,1.42,2.58,2.82,3.87,4.22l.12.13c8.81,9.54,17.92,19.41,21.73,33.1.53,1.94.88,3.22.16,4.42s-1.79,1.35-3.09,1.63l-.64.14c-19.18,4.36-40.22,12-50.81,35.33-3.43,7.55-3.93,15.38-4.19,24.1C557.18,764,557,771.52,550.29,771.52Z"/><path class="cls-5" d="M584.11,648.91c-7.14-35.72,9-62.78,26.16-91.43l3.13-5.23.88,5.4c5.87,35.68-2.62,65-26.71,92.19l-2.67,3Z"/><path class="cls-4" d="M515.66,656.38c-2.32,0-4-2-4.46-5.22-1.33-9.72-2.62-19.46-3.86-28.89-2-15.26-4.09-31-6.36-46.61-.59-4-.1-6.91,1.49-8.75,1.37-1.58,3.36-2.32,6.26-2.32a30.32,30.32,0,0,1,4.66.44c25.5,3.05,45.3,16.71,58.79,40.62,2.73,4.82,4.21,9,4.53,12.72.81,9.47-6.1,10.29-10.67,10.84a15.11,15.11,0,0,0-5,1.11c-4.21,2.31-8.58,4.43-12.81,6.47-10.35,5-21,10.19-29.64,18.31A4.24,4.24,0,0,1,515.66,656.38Z"/><path class="cls-5" d="M513.44,667.62l.21-.67c2.05-6.77,7.36-9.78,11.63-12.2,1.39-.79,2.69-1.53,3.87-2.36,9.38-6.61,19.91-11.74,30.09-16.71l.38-.18c.38-.18.8-.41,1.25-.65,2-1.09,4.47-2.4,6.78-2.4a4.84,4.84,0,0,1,4.67,3.2,9,9,0,0,1,0,7.36c-1.39,3.12-4.84,5.83-9.45,7.45-15.24,5.36-27.29,13-36.84,23.42a19.6,19.6,0,0,1-4,3.12c-.6.37-1.19.74-1.75,1.14l-2.07,1.5Z"/><path class="cls-3" d="M474,1618l0-2c.11-4.07.24-8,.51-11.94,1.9-28.08,1.92-56.13,1.72-77.43-.07-7.85,0-15.79,0-23.48,0-5.74.07-11.68.05-17.49,0-3.32,0-6.65,0-10,0-11.4,0-23.09-.23-34.4-.1-5.65-.4-11.48-.69-17.13-.44-8.59-.89-17.48-.67-26.09,1.06-40.32-1.52-79.61-4.47-116.06a5.46,5.46,0,0,1,.67-2.77c.11-.24.2-.44.27-.64l.76-2.18,2.05,1.06c.13.07.28.12.42.18a4.32,4.32,0,0,1,2,1.35c12.66,16.61,25.72,33.74,38.49,50.67a12,12,0,0,0,2.71,2.32c2.39,1.68,5.35,3.77,5.48,8.73.29,11.52,1,23.21,1.66,34.52v.17c.35,5.93.72,12.06,1,18.1.27,5.59.57,11.17.87,16.76.88,16.23,1.78,33,2,49.6.17,11.44-.46,23-1.08,34.28-.25,4.66-.51,9.39-.71,14.05s-.29,9.22-.38,13.7c-.22,10.6-.45,21.52-2,32.14-2.79,19.61-5.41,40.7-5.64,62l0,2Z"/><path class="cls-3" d="M424.5,1618v-4.38c.1-18.65-.86-37.6-1.79-55.93-.6-12.07-1.23-24.55-1.56-36.86-.5-18.76-.35-37.79-.21-56.18.28-35.24.56-71.67-3.71-107.36-1.57-13.16-2.54-26.58-3.49-39.56-.81-11.15-1.64-22.59-2.84-33.78-2.83-26.41-6.21-52.35-10-77.11-1.48-9.53-3.74-19.14-5.93-28.43l0-.11c-1.26-5.33-2.56-10.84-3.7-16.29-1.44-6.88-2.68-13.68-4.11-21.55-.67-3.66-1.37-7.51-2.15-11.66l-.24-1.29,3.42-1.14.58,1.17c2.12,4.28,4,8.28,5.9,12.14l.08.18c4,8.23,7.38,15.34,11.26,22.34,8.78,15.85,18.19,31.7,27.29,47l.94,1.59c1.78,3,3.33,6.13,4.83,9.15a93.53,93.53,0,0,0,7.38,13c7.29,10.19,14.54,21.28,18.2,33.42,3.09,10.27,3.53,21.41,3.95,32.17v.19c.09,2.28.18,4.54.3,6.8.9,17.65,1.49,36.34,1.91,60.62.17,9.81.16,19.8.15,29.45v.11c0,17.45,0,35.47,1,53.11,1.23,21.23,1.07,42.15.72,61.6-.06,3.64-.14,7.31-.23,11-.21,9.51-.43,19.28-.31,28.69s-.15,19.07-.4,28.46l0,.82c-.36,14.31-.44,25.93-.25,36.55l0,2Z"/><path class="cls-3" d="M372.78,1618l0-2c0-4.71-.43-9.54-.81-14.21-.32-3.87-.64-7.84-.77-11.76-.26-7.73-.41-15.59-.56-23.19-.24-12.23-.49-24.83-1.17-37.21-.69-12.64-2.31-25.48-3.88-37.9l-.7-5.59c-.45-3.54-.83-7.14-1.21-10.62-1.11-10.38-2.26-21.1-5-31.11-2.13-7.75-4.26-15.86-6.15-23-4.46-17-9.08-34.54-14.61-51.57-9.06-27.92-17.59-52.39-26.09-74.81-10.73-28.3-21.66-55.82-37-81.23,2.3,5.61,4.64,11.23,6.93,16.7,4,9.56,8.12,19.45,12,29.27q3.25,8.26,6.53,16.53c9,22.68,18.22,46.06,26.27,69.44,4.45,12.91,8.26,26.3,11.94,39.25l.06.21c1.64,5.73,3.32,11.66,5,17.45,8.13,27.47,14.32,57.15,18.89,90.73,3.38,24.78,4.51,50.23,5.61,74.84q.3,6.75.62,13.49c.54,11.49.46,22.79.32,34.31l0,2H320.12l.11-2.11c.43-7.83.59-13.83.5-19.46a140.8,140.8,0,0,0-2-18.75c-.6-3.93-1.21-8-1.61-12s-.79-7.87-1.18-11.8l-.1-.95c-1.68-16.6-3.41-33.76-4.42-50.73-1.48-25.42-6.12-50.8-10.61-75.36-.6-3.25-1.19-6.51-1.78-9.76l-1-5.34c-3.3-18.3-6.71-37.23-11.35-55.48-5.86-23.09-13-47.79-21.81-75.51-10.8-34-26.4-67.76-47.67-103.26-13.28-22.16-29.41-48-48.38-71.35-10.66-13.12-19.38-23.63-27.45-33.05-5.41-6.32-11.22-12.59-17.25-18.63-5-4.93-10.12-9.75-15.6-14.86-2.63-2.45-5.3-4.94-8.08-7.57l-.87-.81,1.69-2.9,1.14.35c14.62,4.51,25.51,12.21,35.41,19.71l7.46,5.63c27.81,21,56.56,42.67,80.68,69.36,3.1,3.42,6.45,6.84,9.69,10.14,7.07,7.2,14.32,14.59,19.85,22.86,4.84,7.22,10,14.42,15,21.37,9.51,13.27,19.33,27,27.56,41.67l4,7.16c9.48,16.92,19.29,34.42,28.28,51.92,11.46,22.28,22,46.42,33.29,76,9.62,25.25,17.73,51.4,24.58,73.93,8.06,26.46,13.52,48.88,17.16,70.53.93,5.49,1.91,11.07,2.87,16.47l0,.15c3.48,19.67,7.08,40,8.35,60.31.88,14,1.12,28.14,1.25,40.16l0,2Z"/><path class="cls-3" d="M291.92,861.46l-11.23-18.53c-61.45-101.51-125-206.48-216.58-289.2l-1-.89,2.12-3,1.17.64,4.49,2.41c3.09,1.65,6,3.21,8.86,4.91,3.57,2.14,7.09,4.45,10.5,6.69l2.53,1.66c4.73,3.09,9.55,6.12,14.21,9.05,10.75,6.76,21.87,13.75,32.1,21.61,10.53,8.11,20.77,16.91,30.67,25.42,9,7.7,18.22,15.66,27.63,23,14.83,11.64,28.33,25,41.38,37.89,5.41,5.34,11,10.85,16.57,16.16,4.21,4,4.22,8.64,4.22,12.72a19,19,0,0,0,.77,6.66c2.88,7.62,4.31,15.75,5.7,23.61.56,3.18,1.14,6.47,1.81,9.61l.24,1.16-3,1.42-.74-.92c-4.41-5.53-8.82-11.2-13.09-16.68-10.26-13.19-20.85-26.81-32.19-39.47-1.73-1.93-3.44-3.89-5.15-5.85-7.09-8.13-14.4-16.51-23.21-23,4.75,5.58,9.59,11.19,14.28,16.64l.08.09c10.46,12.14,21.24,24.66,31.53,37.23,5.55,6.78,10.69,14,15.67,21,3.36,4.73,6.81,9.59,10.33,14.24,11.1,14.65,14.57,31.83,17.92,48.44,1.72,8.52,3.5,17.3,6.28,25.54,2.14,6.36,4.12,12.85,6,19.12l.15.5c.86,2.79,1.71,5.59,2.58,8.37l.4,1.27-3.33,1.5Z"/><path class="cls-3" d="M283.85,1384.51c-66.39-83.59-138.57-141.46-220.64-176.92l-1.21-.52v-9.87l2.28.33c14.79,2.13,30.54,4.42,46.38,6.89,21.3,3.33,42.89,9.46,66,18.73,26.82,10.77,47.84,21.89,66.13,35,12.61,9,16.1,21.08,19.47,32.73,1.94,6.72,4,13.66,7.74,19.86l.66,1.08-2.68,2.31-1-.82q-5.32-4.46-10.57-8.91l-.21-.18c-29.84-25.25-58.13-49.2-94-61.59,3.37,2.15,6.92,4,10.39,5.87,2.52,1.33,5.12,2.71,7.66,4.19a429.7,429.7,0,0,1,43.41,29.3c16,12.19,31.18,24.85,45,37.62,6.18,5.68,7.76,13.62,9.3,21.29.58,2.89,1.17,5.84,2,8.54a224,224,0,0,1,5.22,22.88c.63,3.27,1.34,6.94,2.1,10.53l.24,1.16-3,1.42Z"/><path class="cls-3" d="M243.22,1618l0-2a108.38,108.38,0,0,0-1.47-21.11c-2.41-10-4.58-20.21-6.2-28-3.83-18.29-9.87-36.34-15.2-52.27-7.58-22.68-20.67-42.72-34.57-63-.18-.26-.34-.48-.5-.67a3.94,3.94,0,0,0,.32.9c1.51,2.72,3.18,5.46,4.79,8.11a134.49,134.49,0,0,1,8.27,15c9.47,21.23,18.5,42.12,24.85,64.18.72,2.49,1.44,5,2.17,7.46,3.92,13.49,8,27.41,11.05,41.34a172.06,172.06,0,0,1,3.61,27.91l.12,2.11H197.86l-.1-1.9c0-.92-.1-1.84-.18-2.77-2.53-30.4-6.48-55.12-12.41-77.82A601.23,601.23,0,0,0,157.66,1454c-5.91-14-13.26-27.63-20.37-40.85l-.92-1.71a371.58,371.58,0,0,0-19.08-31.93c-4.09-6.09-8.78-12-14.22-18.74-2.75-3.44-5.61-7-8.78-11.08l-.78-1,2.37-2.59,1.07.68c3.13,2,5.73,3.71,8,5.23,4.17,2.75,7.17,4.73,10.34,6.44a243.07,243.07,0,0,1,50.84,37c9.59,9,18.41,19,26.93,28.74,5.43,6.19,11,12.53,16.68,18.51,20.62,21.73,34.2,48.26,46.34,73.58,15.92,33.2,25.42,66.72,28.25,99.61l.19,2.17Z"/><path class="cls-5" d="M220.2,935.67c-.49-1-1.07-2.13-1.63-3.17a31.48,31.48,0,0,1-3.31-7.81c-.74-3.29-1.55-6.65-2.32-9.89l-.07-.27c-3.51-14.63-7.15-29.77-6.71-45.35.28-10,.58-20.39,5.52-30a11.86,11.86,0,0,1,11-6.43,19.65,19.65,0,0,1,13.86,6.39c5.49,5.81,6.63,12.7,7.63,18.77a37.68,37.68,0,0,0,1.89,8l.15.36v.39c.21,24.48-6.18,46.09-20.09,68a4.66,4.66,0,0,1-2.53,1.72c-.23.09-.46.17-.66.27l-1.85.95Z"/><path class="cls-5" d="M222.19,1012.8c-13.2,0-19.74-12.81-22.46-20.45-6.29-17.68-6.75-37.64-1.34-57.72.93-3.43,3.16-6.36,5.12-9,.82-1.07,1.56-2,2.14-2.95l2-3.16,1.5,3.45a74.09,74.09,0,0,1,2.58,7.5c1.5,5,3.2,10.52,6,11.85a7.81,7.81,0,0,0,3.34.86c3.75,0,6.7-4.13,9.54-8.12a52.77,52.77,0,0,1,4.21-5.39l2.21-2.35,1.12,3a119,119,0,0,1,6.3,58c-2.73,19.92-15,23.48-18.76,24.09A21.57,21.57,0,0,1,222.19,1012.8Z"/><polygon class="cls-2" points="6 8.83 58 60.83 58 1619.17 6 1671.17 6 8.83"/><path d="M246.73,363.07c-4.33,0-8.66-2-13-2-1.72,0-2.74.12-2.51,2.43.85,8.73,1.35,17.5,2.2,26.24,3.17,32.54,6.48,65.06,9.62,97.6,1.65,17.1,2.73,34.25,4.64,51.31,2.87,25.57,6.31,51.08,9.36,76.63,2.8,23.5,4.37,47.19,8.34,70.48,4.88,28.7,11.52,57.11,17.72,85.57,3.9,17.89,8,35.73,12.7,53.43,5.71,21.73,12.1,43.29,18.14,65,4.18,14.95,7.65,30.14,12.55,44.86,7.67,23.06,17.8,45.4,24.12,68.8,7.55,27.89,18,54.73,29.33,80.92,14.57,33.66,29.73,67.29,49,98.79,10.29,16.81,18.17,35.13,28.93,51.59,16.27,24.87,35.68,47.79,50.68,73.34,8.87,15.12,19.15,16.87,33.83,14.93,28.11-3.72,56.31-6.77,84.48-10,16.11-1.82,32.22-3.61,48.37-5,19.79-1.65,39.68-2.36,59.42-4.48,6.6-.71,14,1.88,19.56-2.85.66-.56-3.31-6.8-5.38-10.26-1-1.6-2.77-2.68-3.73-4.28q-20.67-34.26-41.17-68.62c-14.06-23.66-28.19-47.28-41.88-71.15-11.65-20.3-23.88-40.37-33.73-61.53-11.46-24.61-22.59-49.46-33.62-74.26C586,991,579.46,970.7,571.32,951c-9.05-21.88-14.62-45.08-19.93-68.27-5-22-12.34-43.37-17.64-65.26-5.12-21.14-9.09-42.57-13.29-63.92-4.93-25-9.89-50.11-14.26-75.26-5.38-31-11-62.07-14.93-93.3-3.3-26.21-4.55-52.7-6.26-79.09-1.4-21.69-1.13-43.53-3.46-65.1a453.79,453.79,0,0,1-2.29-53.62c.1-9.72,2-18.91-13.19-16.6-7.29,1.11-15-.17-22.46-.56-17.61-.91-35.22-2.07-52.83-2.89-18-.83-35.92-1.78-53.88-2C306.85,364.83,276.79,363.07,246.73,363.07ZM1024,8V1672a8,8,0,0,1-8,8H8a8,8,0,0,1-8-8V8A8,8,0,0,1,8,0H1016A8,8,0,0,1,1024,8Zm-8,1658.34V13.66l-48,48V1618.34ZM962.34,56l48-48H13.66l48,48H962.34ZM13.66,1672h996.68l-48-48H61.66ZM960,1616v-6.93a8.93,8.93,0,0,1-1.72,0c-7.15-.5-16.4-4.34-15.83-13.24.28-4.51-1.72-14.84,8.63-14.84a38.67,38.67,0,0,1,8.92.85v-45.18c-7.18-1.07-14.26-3.55-13.14-13.71.59-5.35,2.18-9.33,7.24-10.32a19.13,19.13,0,0,1,5.9,1.5v-71.67l-1.9.16c-10.31,1-14.17-7.14-14.34-15.62-.18-8.69,8.27-11.39,14.52-11.68.59,0,1.16,0,1.72,0V1230.75q-3,3.54-5.87,7.33c-10.24,13.81-22.08,26.93-33.47,40.13-8.57,9.93-15.57,20.78-22.06,32.2-6.16,10.86-14.59,20.4-21.2,31s-12,22.06-18.34,32.88c-13.72,23.35-23.9,48.37-34.62,73.11-11.29,26.06-22.63,52.22-29.12,80-3.72,15.91-4.85,32.42-8.44,48.37-3,13.3-4.18,26.77-5.54,40.23h45.71q-.18-1.38-.24-2.91c-.39-8.2,4.7-11.84,11-11.77s14.55,2,13,11.27c-.18,1.06-.33,2.22-.5,3.41Zm0-398v-16c-23.71,14.14-46.65,29.39-68.19,46.85a507,507,0,0,0-60.2,57.24c-19.45,21.92-38.63,44.09-53,70.14-13,23.58-30.32,44.94-41.77,69.15-9,19.06-18.94,37.87-26.49,57.85-6.4,16.92-11.28,34.19-16.63,51.34-2.79,8.94-3.08,18.64-4.75,28-2,11.07-2.17,22.41-3.52,33.58h35.32c1.21-9.21,3-18.38,4.08-27.62,2-17.74,7.53-34.64,11.45-51.93a302.2,302.2,0,0,1,17-53.26c8.18-18.94,15.93-38.14,26-56.37,7.8-14.09,14.92-28.64,23.6-42.21,11.21-17.53,23.2-34.56,35-51.68,6-8.64,11.51-17.7,19.85-24.45,1.14-.92,2.41-2.54,3.62-.64.46.72-.39,2.61-1.08,3.67q-19.63,30-39.39,59.94c-6.5,9.9-13.47,19.55-19.34,29.82-6.72,11.77-12.73,24-18.55,36.23-7.24,15.23-14.89,30.37-20.68,46.17-6.52,17.78-13.66,35.43-17.45,54.16-4.24,20.94-9.65,41.67-13.27,62.72-.88,5.1-1.76,10.25-2.38,15.45h43.25c.52-13.93,2.81-27.69,5.45-41.53,1.78-9.36,3-19,4.77-28.45,3.63-18.94,7.6-37.43,14.81-55.75,7-17.76,14-35.61,21.3-53.28,9-21.85,18.18-43.69,30-64.22,8.5-14.75,16.53-29.83,26-43.91,17.5-25.93,33.45-53,55.08-76C940.6,1241.71,949.34,1229,960,1218Zm0-26.23V1061.48l-.17.08c-8.71-2.53-18.74-2-19.54-13.67-.61-8.94,3.66-16,12.81-16.52a14.7,14.7,0,0,1,6.9,1.45V961.94c-7.66,8.95-15.19,18-22.7,27.09-11.81,14.32-25,27.46-36.94,41.69-23.16,27.68-46.53,55.22-65.61,86-10.38,16.76-21.69,33-31.63,50q-21.09,36-40.61,73c-3.56,6.71-6.59,13.75-10.17,20.54-6.12,11.61,4.28,19,8.77,27.88,10,19.85,7,26.26-15.94,25.38-13.65-.53-15.15,7-18.06,15.71-4.31,12.86-9.42,25.54-12.56,38.69-4.44,18.62-11,36.65-13.72,55.78-2.16,15.47-7,30.55-9.48,46-2.76,17-4.32,34.15-6.26,51.25-1.46,12.76-2.72,25.53-4,38.31-.15,1.5.18,3,.49,7.55,4.11-21.71,8.72-40.16,15.53-57.88,5.56-14.48,12.19-28.58,18.94-42.57,7.93-16.41,16.84-32.27,26.2-48,15.48-26,29.56-52.83,47.43-77.25a420.26,420.26,0,0,1,37.47-44.61c14.73-15.18,29.68-30.15,46-44a557.07,557.07,0,0,1,55.34-41.35C938.77,1204.39,949.23,1197.76,960,1191.72ZM960,949V936.7c-9.76,6.67-19.41,14-29,21.4-25.35,19.45-51.47,38-74.51,60.31-14.32,13.87-29.15,27.06-42.55,42-12.89,14.42-26.39,28.37-38.78,43.28a941.67,941.67,0,0,0-58.54,79c-5.21,7.8-12.64,15.25-3.52,25.14a29.66,29.66,0,0,1,4.27,6.57c1.57,3.07,2.37,3.28,4.33,0,13.08-21.51,25.35-43.56,40.82-63.53,2.17-2.81,4.86-5.22,7.22-7.9.69-.8,1.46-2.79,2.27-1.11,1.82,3.74-.67,7.12-2.58,10-12.11,18.23-25.79,35.52-35.21,55.36-3.51,7.41-15,13-6.63,24.22,6,8.12,10.87,17.09,16.46,26,7.36-24.21,93.65-164.51,104.06-176.65C885.8,1036.91,923.12,992.63,960,949Zm0-21.12V875.35c-7.68-.43-9.75-5.24-9.2-13.11-.33-7.72,3.19-12.49,9.2-14.25V788.61c-15.44,3.86-30.64,8.83-46.22,11.92-22.94,4.56-45.15,12.14-69.06,13.48-19.52,1.1-38.13.08-57-5.17,5.5,12.69-5.85,33.29-16.81,44.11a269,269,0,0,1-32.35,27.53c-4,2.9,1.63,7.32,3.09,10.3,15,30.74,12.7,62.94,9.59,95.43-1.86,19.37-7.43,38.31-20.72,51.44-24.59,24.29-23.73,57.6-35.57,86.27-3.78,9.16-5.08,19-9.25,28.2-3.74,8.26,4.33,15.29,7.86,22.76C705.41,1200,709,1176.4,713,1171c20.44-27.62,40-55.83,62.35-82,23.37-27.46,48.78-52.78,75.53-76.92,23.51-21.23,48.39-40.66,73.83-59.4Q942.05,939.82,960,927.86Zm0-147.75V750.6q-1.89-1.58-3.9-3a381.76,381.76,0,0,0-82.28-45.13c-18.76-7.36-38.36-10.69-57.6-15.79-9.1-2.41-18.13-.55-27.2-3.11-7.91-2.24-19.21-4.63-24.93,1.31-14.06,14.62-20.71,33.22-19.37,54,.87,22.26,10.45,40.61,28.62,53.16,13.58,9.38,30.29,12.54,46.42,13.39,16.32.86,32.81-1.18,49.11-4.3C886,797.86,903.1,793.85,920,790,933.42,787,946.58,783,960,780.11Zm0-48.21V708c-9-18.56-19.4-36.4-32.18-52.41-14.92-18.68-33-35.3-56.73-44.09-25.45-9.43-59.83-4.37-76.62,21.27-10.22,15.62-10.25,24.26,2.18,26,28.52,4,55.8,11.24,82.24,23.15,21,9.47,40.6,20.92,59.9,33.21A146.13,146.13,0,0,1,960,731.9Zm0-44.4V629.73a30.75,30.75,0,0,1-6.47.9c-7.58.31-6.94-7.88-7.6-13.13-.83-6.7-1.1-14.15,8.83-14.45a25,25,0,0,1,5.24.35V467.27c-1.9.21-3.81.26-5.44.39-5.79.46-7.79-6.15-7.51-11.61.34-6.51,1.74-14.07,9.48-14.57a15.64,15.64,0,0,1,3.47.15V240.55a10.42,10.42,0,0,1-4.86,2.28c-15.77,1.13-16.45-9.28-17.68-16.46-1.06-6.16,1.53-13.44,11-13.56,4.24-.05,8.35,0,11.51,1.24V98c-3.24,2-7.73,2.57-12.49,2.47-5.9-.13-7.11-4.79-6.53-9.52-.71-8.3,4.49-12.23,10.75-13.92a11.43,11.43,0,0,1,8.27.57V64H901.67a14,14,0,0,1,.88,5.77,11.39,11.39,0,0,1-12.06,10.9c-6.77-.34-9.43-6.39-9.76-13.17a15.71,15.71,0,0,1,.71-3.5H623.87c0,.41,0,.82,0,1.24.06,8.56-6.62,8.62-14.3,9.05-8.63,1.5-11.5-3.56-12.38-10.29h-118c3.28,1.7,4.28,5.22,3.83,9.74,1,12-7.41,12.83-15.6,13.22-6.08.28-6.87-4.64-6.38-9,.64-5.91,1.94-11.6,7-13.93H415.24a8,8,0,0,1,.71,2.87c.45,6.63-2.12,13.18-10.7,12-4.72-.66-12.52,1.38-12.2-7.5A17,17,0,0,1,394.74,64H126.8a23.59,23.59,0,0,1,.28,3.48c-1,6.32-4.84,11.65-12.46,11.36-8.43-.32-12.47-6.54-12.49-14.46,0-.13,0-.25,0-.38H64V170.07h2c5.83-.58,8.13,4.8,7.77,10.89-.32,5.47,0,14.45-7.67,13.52-.7-.08-1.41-.21-2.12-.35V461.56c1.24-3.84,4.94-7.49,9.68-7.39,10.16.21,17,5.81,17.1,16.61.12,9.59-4.7,15.08-15.44,14.53C65.82,483.59,64.7,476,64,469v74.24q20.88,10.9,40.86,23.6c25.32,16.08,49,34.15,72.11,53.1,24.85,20.36,49.65,40.71,71.93,63.93,2,2.06,3.14,4.93,6.9,11a531.78,531.78,0,0,1-10-67.18c-.9-10.48-1.75-21-2.9-31.42-2.46-22.48-5.52-44.91-7.48-67.43-.73-8.39-1.36-16.76-2.2-25.15-2.33-23.31-2.9-46.8-5-70.14-2-22.09-3.82-44.15-3.3-66.34.11-4.7,0-9.41,0-14.12,0-2.63,1.16-4.23,3.85-4.09q19.64,1,39.27,2.07c10.41.59,20.82,1.25,31.24,1.88,27.95,1.67,55.89,3.68,83.87,4.91,31.78,1.4,63.59,2.78,95.39,2.8,14.85,0,10.95,9.71,11.09,17.2.3,15.18-.07,30.33,1.29,45.53,1.92,21.55,4.11,43.08,4.48,64.81.38,22.86,3.16,45.67,4.82,68.51.16,2.24,1.57,2.47,3,2.19,24.44-4.77,42.42,7.19,59.59,22.22,7.94,6.94,11.83,16.24,17.21,24.52,4.34-18.46,16.39-33.41,24.33-50.27,7.18-15.26,13.28-30.84,24.65-43.45,8.38-9.29,18-18.54,30.56-20.19,7.37-1,18-2.2,22.68,7.73,3.88,8.31-2.28,14.95-6.21,20.82-13,19.4-30.64,33-53.71,38.75-2.48.61-2,1.51-1.77,3.43,1,8.51,2.84,17.17,2.13,25.57-.77,9.12-2.21,19.09-6.68,26.75-5.66,9.74,3,13.51,5.06,19.86A114.56,114.56,0,0,1,625,694c-.22,1.1-2.29,3.2.86,2.82s7.38,2.3,8.9-1.5c7.57-19,18.09-34.83,39.34-40.47,4.06-1.08,6.84-13.87,4.89-17.08-10.69-17.61-18.46-35.89-14.5-57.49,1.39-7.61,2.22-14.73,6.74-21.56,10-15.17,22-19.38,34.29-12.89,5.54,2.93,6.86,8.8,7.43,14.27,2.4,23-5.78,44.08-14.81,64.12-5.35,11.87-4,21.27-.21,32.19,7,20,4,39.16-6.27,57.28-1.23,2.16-1.72,4.14,0,4.87,3.5,1.52,2.63,7,8.64,6.9,9.68-.09,19.28-5,29.07-.55,10.79,4.88,5.86-4.36,5.23-6.95a129.05,129.05,0,0,1-3.74-25c-.71-16.71-3.79-33.4.12-50.09,3.34-14.23,6-28.73,16.9-39.79,6.65-6.73-1.61-12.32-2.54-18.22-2.92-18.7-8.13-37-11.2-55.82-3.47-21.2,3.08-42.18,20.79-50.46,8.3-3.88,17.33.64,24.21,7.08,16.64,15.55,16.13,35.77,13,55.46-3.37,21.36-13.13,40.12-28.36,56.19-8.28,8.73,1.1,18.42,2,27.69,1.52,16.27,2.46,32.38-2.27,48.37,11.95-5.81,14-8.68,15.41-24.09,2.23-24.87,26-45.79,49.28-50.54,29.84-6.1,56.05,2.88,78,21.11,22.15,18.43,41.6,40.14,53.73,67.3Zm-30.09,32.91c-5.95-8-14.72-10.77-21.92-14.91-30.62-17.61-63-31.25-98.08-37.17-9-1.51-18.61-6.74-27.49.79a43.79,43.79,0,0,0-4.08,4.6c.59.4,1.15,1.09,1.78,1.15,23.52,2.43,46.78,5.36,69.86,11.6C878,694.05,903,707.49,929.91,720.41Zm-151.55-162c6-17.73,10.13-35.47,2.52-53.7-7.41-17.78-22-22.85-31.83-10.39-5.21,6.65-6.61,15.93-6,24.87.39,23.56,7.66,46,11.92,68.84a42.18,42.18,0,0,0,1.52,4.83c1.46-.93,3.4-1.54,4.31-2.85C767.65,580,774.4,570.05,778.36,558.38Zm.15,268c3.25-6.8,6-17.51.39-20.64-22.83-12.65-37.67-29.89-42.16-56-1.43-8.31,1.15-21-15.29-18.45-10.61,2.42-15.06,13-19.85,21.08-10.51,17.78-20.23,36.12-27.22,55.92a253.92,253.92,0,0,0-13.5,57.5,357.9,357.9,0,0,0-1.56,47.08c.06,2.61,1.44,5.19,2.21,7.79.87-.29,2-.31,2.56-.9,4.64-5.19,10.68-8.32,16.36-12.13,22.65-15.17,44.74-31.17,67.29-46.48C761.05,852.18,771.59,840.89,778.51,826.42ZM756.84,664.88c4.5-19,.48-37.73-2.52-57-1.92,2.13-4.06,3.71-5.16,5.83-14.52,27.93-12.28,57.69-9.3,87.51a3.63,3.63,0,0,0,1.16,2c.15.14,1.31-.36,1.6-.82C749.94,690.89,753.74,678,756.84,664.88ZM742.71,965.59c2.32-24,1.38-47.77-7.92-70.49-2.47-6-4.74-13.22-12.94-4.39-2.74,2.95-7.36,4.07-10.89,6.39-4.34,2.86-8.71,5.06-8.12,12.21,1.58,19.13,3.18,38.32,10.63,56.07,3.12,7.46,8.59,14.82,18.21,18.45A24.33,24.33,0,0,0,742.71,965.59Zm-2.66,34.6c1.38-3.23,1.87-6.84,2.77-10.27-2.57,1-5.12,2.12-7.72,3.06a11.28,11.28,0,0,1-2.48.09c-15.38,1.53-18.13-12.53-25.55-20.79-.63-.7-.16-2.66-2-1.64-.76.41-1.73,1.15-1.87,1.87-2.41,13-8.35,25.36-6.52,39,1.39,10.31.71,21.92,11.05,25.46,8.35,0,8.09-.38,11.24-2.59C730.92,1026,734.74,1012.62,740.05,1000.19Zm-23.34,328.3c.79-4,7.75-8.45,3.33-10.76-7-3.68-15.67-.49-23.62.07C671,1319.6,675.69,1343,669,1357.45c-12.12,26.22-14.56,55.48-22.31,83.09-6,21.47-9.78,43.31-13.74,65.09-2.86,15.74-3,32-3.84,48.06-1.06,20.76-.41,41.61-2.75,62.31h46a253.91,253.91,0,0,1-1.21-42.79c1.7-27.43,4.6-54.83,8-82.12,2.47-20.1,5.72-40.18,10-60,3.89-17.79,8.06-35.56,12.88-53.19C706.6,1361.32,713.39,1345.38,716.71,1328.49Zm-5.88-273.56c6.31-14.11-10.12-7-12.07-13.32-1.17,1.48-2.78,2.78-3.44,4.45q-8.28,21.18-16.24,42.5c-4.27,11.47-8.27,23-11.87,33.09-.78,7.82,5.06,11.2,6.51,16.67.89,3.39,3.91,6.22,6,9.31.45-2.61.59-5.32,1.41-7.81C690.58,1111.37,698.56,1082.39,710.83,1054.93Zm-24.44-421.8c8.4-23.11,20.77-45.18,17.91-71.2-1-8.91-7.4-12.11-15.4-8.26-16,7.67-14.63,23.16-18.1,35.88a132.39,132.39,0,0,0,11.79,42c.52,1.09,1,2.19,1.52,3.29C684.89,634.26,686.12,633.87,686.39,633.13Zm15.72,327.7c.79-1.33,1.14-3.91.38-5-7.54-11-5.31-23.93-7.47-36-.61-3.37-.23-6.92-.31-10.39-3,1.81-6,3.55-8.88,5.44-4.11,2.66-7.85,6.18-12.3,8-5.79,2.31-9.34,13-16.11,8-9.27-6.91-16.6-16.53-24.39-25.31-11.22-12.64-21.85-25.8-33.2-38.31-17-18.74-31-39-39.47-63.3-3.41-9.81,5.46-31.54-19.49-26-.34.07-.8-.47-2-1.2,2.87,13.67,4.54,26.69,8.41,39,8,25.31,11.06,51.68,19.14,77.09,9.85,30.92,19.85,61.83,31.23,92.12,10.56,28.09,24.94,54.75,37.83,82,6.72,14.18,13.77,28.2,20.87,42.2.9,1.76,2.89,3.72,4.69,4.09,2,.41,1.43-2.25,2-3.7q9.53-26.41,19.37-52.71c3.2-8.47,11.57-18.35,9.41-24.89C683.18,1005.8,688.91,983.12,702.11,960.83ZM696.72,744.5c1.57-2.85,8-5.36,3.65-8.57-3.1-2.26-9.83-3.42-13.26,2.59-3,5.2-6.11,10.31-9,15.58a225.71,225.71,0,0,0-24.89,70.79c-2.54,15.11-3.16,30.46-.17,45.82,0-6.86-1.4-14.07.27-20.49,4.71-18.13,9.39-36.19,16.64-53.74C677.51,778.27,687.33,761.58,696.72,744.5Zm-3.38-64c.76-11.75-3.27-22.15-5.21-34.2-16.52,48.17-17.08,59.29-3.56,66.46C686.93,701.89,692.6,692.18,693.34,680.52Zm-13,54.59c10.55-11.37,2.4-14.25-5-17.87-12.53-6.12-25.59-10.33-40-10.58-20.48-.34-39.56,3.3-55.67,16.55-14,11.52-14.84,27.52-14.84,44.33,0,32.07,12.29,58.9,32.45,82.77,16.7,19.77,33.7,39.29,51.76,60.32-2.26-13-5.23-24-5.91-35.22-1.9-30.95,1-61.46,11.83-90.81C661.44,767.06,667.65,748.8,680.35,735.11Zm-8.33,590c1.58-4.17.36-3.84-2.68-4.11-9.86-.89-19.27,1.92-28.63,4-8.74,1.9-8,11.87-11,17.92-8.2,16.62-14.48,34.24-20.72,51.75-9.28,26.07-19.37,51.85-26.1,78.82-6.23,25-13.06,49.78-16.12,75.53-1.47,12.33-3.45,24.55-3.75,37-.23,10-.71,20-1.15,30H619.2c.52-21.93.74-43.87,2-65.76,1.13-20.17,2.27-40.62,6.51-60.27,5.07-23.48,10-47.07,16.55-70.32,4.18-14.83,6.29-30.54,10.85-45.45C660.13,1357.66,665.9,1341.31,672,1325.12ZM671.16,511c5.13-9.14,2.25-10.68-6.35-10.3-2.75.46-5.74.38-8.21,1.47-19.35,8.53-30.6,24.71-39.41,42.93-1.15,2.39-8.88,10,3.55,6C642.84,544.11,659.68,531.39,671.16,511Zm-.75,155.14c1.53-3.66-1.76-1.35-2.57-.89-9.84,5.6-15.94,14.87-22,23.89-2,3.08-9,10.56,4,10.29a31.12,31.12,0,0,1,19.34,6.44c-3.25-12-3.08-22.49.22-33C670.05,670.77,669.38,668.56,670.41,666.1ZM624.9,1331.78c4.72-9.27-3-6.52-6.79-6.6-17.74-.34-24.19,11.73-29.13,26.18-5.12,15-11.91,29.41-16.87,44.44q-11.28,34.25-20.92,69c-5.93,21.47-11.5,43.1-15.81,64.94-3.79,19.22-6.11,38.78-8.15,58.29-1,9.27-1.27,18.61-1.6,28h27c.56-19.25,3.18-38.4,3.63-57.6.48-20,6-38.29,10.54-57.13,6.54-27.13,13.12-54.19,23.53-80.25,10.89-27.28,20.48-55.09,30.75-82.63C622,1336,623.74,1334,624.9,1331.78Zm-6.12-645.45a106.89,106.89,0,0,0-8.35-57.2c-2.8,4-5.71,7.45-7.82,11.34-3.05,5.64-13.6,9.85-3.18,18.39C607.76,665.68,613.9,674.49,618.78,686.33ZM611.86,699c2.82-.64,3-.36,2.07-3.7-4.24-15.24-15.3-25.6-25.27-36.65-2.88-3.18-8.69-7.32-11.54-6.34-20.43,7-39.28,17.08-54,33.44-1.23,1.35-4,.67-2.89,5.1,4.62,18.8,6.57,38.35,12.36,56.72,2.27,7.2-4.19,22.78,14.59,21.36,6.23,1.87,7.93-1.06,8.16-8.61.25-8.28.69-16.77,4.37-24.87C569.93,712.82,589.57,704.1,611.86,699Zm-25.79-50.52C609,622.66,618.3,594.4,612.31,558,594.88,587.13,579,613.34,586.07,648.52Zm-3.36,693.06c1-3.06,7.81-12.15-5-10.59-14,1.7-28.07,2.69-42.07,4.26-4.38.5-8.86,1.27-6.75,8.09a57.59,57.59,0,0,1,2.07,14.47c.83,20.85,1.6,41.7,2,62.55.32,16.3.06,32.6.06,48.89v30.8c3.44-14.15,5.71-25.46,9-36.48,6.71-22.78,13.56-45.54,21.1-68.06C569.19,1377.38,576.67,1359.72,582.71,1341.58Zm-22.63-713c5.06-2.77,15.57.86,14.64-10-.35-4.08-2.22-8.27-4.28-11.91C557.71,584.08,539,570.1,513.08,567c-6.88-1.09-11.43-.62-10.12,8.36,3.66,25.14,6.77,50.36,10.22,75.52.44,3.28,2.36,4.35,4,2.76C529.6,642,545.54,636.53,560.08,628.57Zm2.18,20c5.2-1.82,10.81-5.9,8.21-12.15-1.77-4.25-7.1-.52-10,.88-10.34,5-20.83,10.13-30.19,16.73-5.09,3.58-12.33,5.54-14.74,13.5l3.57,9c1.84-1.32,4-2.36,5.48-4C535,661.16,547.78,653.66,562.26,648.57ZM524.93,1508c.69-16.07,2-32.15,1.79-48.21-.33-22.11-1.81-44.2-2.9-66.29-.88-17.62-2.25-35.21-2.69-52.84-.15-6-5.29-6.58-7.79-9.9q-19.16-25.4-38.49-50.67c-.37-.49-1.18-.64-1.78-1a7.2,7.2,0,0,0-.84,2.59c3.13,38.69,5.5,77.35,4.48,116.27-.37,14.19,1.11,28.87,1.36,43.14.26,14.66.21,29.74.25,44.42,0,13.56-.19,27.33-.06,41,.24,25.87,0,51.8-1.73,77.59-.27,3.94-.39,7.9-.5,11.85H517c.23-20.86,2.71-41.58,5.66-62.31C524.75,1538.67,524.28,1523.27,524.93,1508Zm-54.34,2.39c.37-20.46.47-40.93-.72-61.45-1.58-27.51-.67-55.16-1.14-82.75-.35-20.19-.88-40.38-1.91-60.55-.66-13-.49-26.47-4.17-38.68-3.53-11.72-10.67-22.72-17.91-32.83-5.08-7.09-8-15-12.3-22.33-9.58-16.14-19.17-32.26-28.26-48.67-5.78-10.43-10.67-21.36-17.28-34.74,2.43,13,4.15,23.12,6.25,33.17,3.14,15,7.33,29.82,9.68,44.93q6,38.48,10.06,77.21c2.61,24.38,3.42,49,6.33,73.31,6.52,54.49,2.47,109.16,3.93,163.73.82,31,3.51,61.9,3.35,92.84V1616h42.88c-.22-12.21-.06-24.41.25-36.64.25-9.45.53-19.62.42-29.21C469.89,1537.09,470.36,1523.66,470.59,1510.43ZM374.76,1616h41.13c-.14-13.37-.41-26.73-1.25-40.06-1.61-25.79-6.93-51.2-11.22-76.72-4-23.94-10.11-47.33-17.1-70.28-7.52-24.73-15.28-49.49-24.54-73.8-9.86-25.88-20.61-51.27-33.2-75.75-10.22-19.89-21.33-39.48-32.26-59-12.49-22.32-28.4-41.94-42.45-62.91-8-11.93-19.55-21.93-29.36-32.77-26.11-28.89-57.21-51.54-87.87-74.74-9.94-7.53-20.66-15-34.79-19.39,8.76,8.27,16.42,15.19,23.72,22.47,6,6,11.83,12.28,17.36,18.74,9.32,10.89,18.44,22,27.48,33.09,18.23,22.46,33.71,46.82,48.54,71.58,19.67,32.82,36.26,67.17,47.87,103.68,7.95,25,15.39,50.21,21.84,75.63,5.1,20.07,8.65,40.55,12.34,61,5.11,28.3,10.73,56.51,12.42,85.36,1.25,21.17,3.61,42.28,5.69,63.4,1,10.34,3.46,20.6,3.62,30.93.1,6.53-.14,13.06-.5,19.6H367c.14-11.41.22-22.82-.32-34.2-1.4-29.43-2.24-59-6.21-88.15-4.15-30.45-10-60.69-18.83-90.43-5.61-18.93-10.58-38.18-17-56.83-10-29-21.57-57.37-32.77-85.89-6.56-16.7-13.73-33.16-20.47-49.79-.47-1.15-3.09-2.75-.42-3.91.69-.3,2.82,1.54,3.62,2.81,16.53,26.6,28,55.66,39.06,84.71,9.35,24.67,17.95,49.72,26.12,74.9,8,24.67,13.94,49.78,20.79,74.68,3.72,13.55,4.51,27.95,6.27,42,1.81,14.51,3.8,29,4.6,43.63,1.1,20.12,1.06,40.3,1.73,60.44C373.47,1598.66,374.69,1607.33,374.76,1616Zm40.18-134.68c0-30.47.72-61-.25-91.41-.67-20.83-4.72-41.57-5.35-62.4-.44-14.59-3.31-28.75-4.56-43.16-1.29-15-3.67-29.85-5.8-44.75-2.56-18-4.76-36-8.2-53.83-3.82-19.8-9.67-39.21-13.15-59-3.2-18.26-8.64-35.77-14.82-53.07-4.79-13.4-11.1-26.25-16-39.61-6.94-18.83-13.45-37.82-19.71-56.89-6-18.18-12.4-36.29-16.78-54.87-5.43-23.1-17.53-43.08-27.73-63.85-10.63-21.64-23.27-42.36-36-62.85-11.77-18.89-25.37-36.64-37.23-55.48-10.59-16.8-21.52-33.3-33.41-49.21-14.48-19.38-28-39.52-43-58.43-12.12-15.23-25.69-29.35-39.05-43.55A291.78,291.78,0,0,0,64,561.69v444.67c1.71.58,3.4,1.14,5.09,1.55A181.57,181.57,0,0,1,126.42,1033c14.85,9.74,29.71,19.57,43.74,30.42,14.45,11.17,28,23.47,41.72,35.61,4.9,4.35,9,9.67,16.09,17.51-2.95-13.35-5.17-22.67-7.05-32-2.78-13.84-6-27.65-7.79-41.63-1.82-14.16-4.27-27-14.13-38.87-13.78-16.59-10.54-37.48-9.07-57.39,1.14-15.36,15.27-27.67,12.41-43-2.27-12.09-4.17-24.29-4-36.22.14-13.45,0-28.48,11.44-38.66,12.12-10.75,34.54-1.6,39.46,14.65,8,26.43,4.08,51.37-6.66,76.11-3.6,8.29,4.44,14.95,5.71,22.88,3.75,23.48,10.64,46.62-5.8,68.79-5,6.76.26,16.17,1.53,24.14,3.85,24,7.31,48.16,13.47,71.59,6.21,23.59,8.11,49,21.89,69.9,11.67,17.72,24.45,34.8,34.2,53.64s21.54,36.66,29.3,56.62c4.65,12,11.46,23,16.37,34.91,8.81,21.3,17.62,42.61,24,64.86,5.49,19.22,12.46,38,17.67,57.3s9,38.73,14.08,60.83ZM290.44,1616H315.1c0-1.8-.09-3.59-.22-5.38-1.78-24.38-4-48.73-6.07-73.08-1.27-14.94-2.1-29.93-4-44.78-1.8-13.94-5.9-27.65-6.92-41.61s-5.14-27-6.5-40.64c-.74-7.39-5.06-13-8.77-18.19-10.31-14.48-21.15-28.85-33.6-41.47-12.67-12.85-25.2-25.91-38.5-38.23-14.12-13.07-28.62-25.81-43.82-37.29-14.14-10.68-29.48-20.17-45-29.22-16.1-9.39-31.47-20.1-48.55-27.74q-4.51-2-9.13-3.84v111.31l1.26.64c15.68,7.74,32.47,13,47.5,22.28,29.62,18.39,57.41,38.55,80.69,65.13,18.09,20.65,36.68,40.65,50.49,64.57,15.18,26.28,28.22,53.64,36.63,82.77A258.11,258.11,0,0,1,290.44,1616Zm3.19-755.58c-2.91-9.33-5.63-18.71-8.75-27.95-8.22-24.38-7.42-51.67-23.89-73.41-8.81-11.62-16.73-23.94-26-35.21-15.63-19.1-32-37.61-48-56.42-.59-.7-.39-2.07-.56-3.13a6.51,6.51,0,0,1,2.18.48c12.69,8.32,22,20.31,31.87,31.35,16.17,18.06,30.56,37.7,45.35,56.23-2.27-10.76-3.44-22.37-7.42-32.92-2.33-6.18,1.36-13.06-4.5-18.64-19.1-18.15-36.95-37.55-57.8-53.93-19.86-15.59-38.28-33-58.29-48.45-14.6-11.23-30.73-20.47-46.19-30.58-4.3-2.81-8.56-5.67-13-8.3-4.1-2.45-8.37-4.61-13.28-7.29C162.72,640.11,227,750.69,293.63,860.42Zm-8.21,522.85c-2.46-11.61-4.07-22.67-7.27-33.24-3-9.85-2.77-21.61-10.74-28.94-14.33-13.2-29.39-25.7-44.9-37.5a430.14,430.14,0,0,0-43.21-29.16c-9.13-5.33-19.07-9.28-26.82-16.9,45.84,12.44,79.49,43.83,115.82,74.26-10.46-17.12-7.38-38.19-26.66-52C221,1245,199.05,1234.29,175.93,1225c-21.21-8.51-43-15.08-65.58-18.61-15.43-2.41-30.89-4.66-46.35-6.89v6.24C153.41,1244.38,224.42,1306.47,285.42,1383.27ZM245.24,1616h37.12c-3-34.65-13-67.56-28.06-98.92-12.45-26-25.75-51.74-46-73.06-14.74-15.51-27.95-32.6-43.53-47.17a240.5,240.5,0,0,0-50.41-36.66c-5-2.7-9.69-6.12-18.5-11.75,9.64,12.39,16.93,20.78,23.08,29.93,7,10.33,13.28,21.13,19.18,32.1,7.54,14,15.17,28.09,21.37,42.73a599.55,599.55,0,0,1,27.6,81.8c6.71,25.65,10.27,51.73,12.47,78.16.08.95.14,1.89.19,2.84h38.6a171,171,0,0,0-3.56-27.59c-3.64-16.4-8.53-32.52-13.19-48.68-6.39-22.19-15.45-43-24.76-63.92-3.56-8-8.72-15.25-13-22.94-.79-1.44-.73-3.34-1.06-5,2.07,0,3.27.72,4.64,2.71,13.74,20,27.14,40.47,34.82,63.45,5.75,17.19,11.5,34.55,15.26,52.5,1.94,9.29,4,18.74,6.2,28A108.66,108.66,0,0,1,245.24,1616Zm12.35-468.3c-3.2-14.13-6.83-27.91-9.36-41.88-4.14-22.92-6.91-46.11-11.84-68.84-1-4.62,8.31-21.94-10.83-14a2,2,0,0,1-1.47,0c-5.23-2.58-5.38,1.07-4.94,4.36,1,7.2,2.36,14.34,3.64,21.5,2.74,15.38,4.57,31,8.64,46,2.82,10.41-.1,22.26,7.71,31.36Q248.37,1137,257.59,1147.7ZM224.42,933.55c12.54-19.75,20-41.13,19.78-66.92-2.95-7.08-1.38-18-9.13-26.16-6.76-7.17-17.73-8-21.61-.42-4.69,9.16-5,19.3-5.3,29.19-.53,18.84,5,36.86,9.05,55,.83,3.7,3.16,7.06,4.8,10.58C222.83,934.41,224,934.21,224.42,933.55Zm18.08,54.59a117.24,117.24,0,0,0-6.19-57c-5.74,6.11-9.77,17.67-19.41,13.09-5.23-2.48-6.5-13.28-9.57-20.37-2.1,3.28-5.83,7-7,11.34-5.09,18.88-5.19,38.3,1.29,56.53,3.46,9.71,10.64,21,23.78,18.85C236.43,1008.7,241.21,997.55,242.5,988.14Zm-58.33,230.8c22,8.81,43,19.49,62,33.82-29.53-84.07-117.8-201.58-182.2-238.49v177.29c17.06.94,34,3.67,50.92,7A381.22,381.22,0,0,1,184.17,1218.94Zm-30,397.06H192.4c-.47-3.73-1-7.46-1.51-11.17-3.33-22-5.68-44-11.39-65.7-5.19-19.76-11.68-39-18.47-58.16-7.75-21.84-18.24-42.4-29.36-62.83-13.74-25.26-28.91-49.16-48.73-69.89-5.61-5.87-12.52-10.48-18.94-15.59V1616h63.53c1-4.43,6.06-6.79,11.74-7.14C146.34,1608.41,152.65,1610.19,154.17,1616ZM56,1618.34V61.66l-48-48V1666.34Z"/><path d="M940.47,285.62c.41,6.27-2.32,13.74-11.1,13.84-6.65.08-12-2.22-10.27-10.7-.93-8.92,1.2-15.54,11.9-15.85C940.18,272.64,940.17,281,940.47,285.62Z"/><path d="M914.29,1479.18c8.82-1.5,14.51,2.89,14.37,10.68s-2.37,15.9-13.77,15.85c-9.27,0-11.66-6.54-11.5-12.72S901.16,1475.73,914.29,1479.18Z"/><path d="M922.55,374.05c1.4,7.18-4.82,9.53-11,9-8.26.77-13.9-3.26-13.53-10.54.36-6.9.31-16.75,11.51-16.73C921.55,355.84,921.12,366.71,922.55,374.05Z"/><path d="M906.53,1393.26c8.22-1.71,11.12,2.76,10.45,10.17-.73,8-6.89,13.19-13.6,13.1-7.45-.09-8.06-8.45-8.23-14.35C895,1395.31,899,1391.65,906.53,1393.26Z"/><path d="M912.71,1123.66c1.28,5.92,3.28,14.49-5.66,15.71-11.74.31-17.87-3.77-19.09-14-.78-6.6,3.34-9.58,8.77-10.29C903.79,1114.17,911.05,1116,912.71,1123.66Z"/><path d="M898.31,501c7.86,0,14.66,3.81,14.17,11.7-.44,6.87-3.34,15.18-11.26,14.55-8.74,0-14.05-1.54-14.58-9C886,509.66,886.22,501.08,898.31,501Z"/><path d="M904.27,138c.88,10.28-4.67,12.67-12.85,13-6.15.26-10.48-5.46-10.48-14.27-2-8.38,5.51-11,11.06-11.36C899.1,124.9,903.56,129.65,904.27,138Z"/><path d="M907.22,855.37c-1.78,5,1.89,13.68-8.58,13.65-7.57,0-13.93-3.36-14.33-11.17-.22-4.38-.17-12.8,6.84-12.4C897,845.78,907,843.38,907.22,855.37Z"/><path d="M893.17,1554c.37,8.13-3.49,11.6-11,12.14-7.5.7-10.52-4.18-11-10.14-.59-7,4.63-10.1,10.74-11C888.35,1544.14,892.81,1546.19,893.17,1554Z"/><path d="M885.81,196.16c.38,9.94-7.16,12.85-15,12.63-7.56-.21-9-6.22-7.63-13.14-1.83-10.05,2.9-13.94,12.92-13.3C885.36,182.94,885.58,190,885.81,196.16Z"/><path d="M865,1193.08c10.13.07,7.65,9.48,10.89,15.22-2.93,4.68-1.64,12.62-9.14,12.5-9.66-.15-18.6-4-19.4-15.22C846.45,1193.11,856.49,1193,865,1193.08Z"/><path d="M852,304.54c6.77,2.38,13.73,3.25,13.25,13.43-.46,9.63-5.87,14.55-14,12.56-6.52-1.59-13.87-6.5-14.12-15C836.82,305.61,845.09,306.16,852,304.54Z"/><path d="M856.14,916.4a12.15,12.15,0,0,1-13.32,12.13c-5.23-.51-10.51-6.12-10.57-12.29-.06-7,3-13.08,11-13.48C852.73,903.13,856,910.17,856.14,916.4Z"/><path d="M815.52,850.79c7.26-.48,10.16,5.1,9.76,12-.46,7.87-5.36,13.1-13.74,12.12-6.14-.72-7.54-7.11-7.21-11.55C804.73,857.87,804.83,850.08,815.52,850.79Z"/><path d="M822.09,172.22c.39,10.92-4.25,17.93-15.63,17.31-7.67-.42-8.18-8.29-8.17-13.6,0-7.79,4.82-12.59,12.66-12C817.44,163.85,821.85,165.27,822.09,172.22Z"/><path d="M800.28,961.32c7.81-.66,15.09,2.4,14.5,12-.39,6.17-5.23,9.52-11.62,9.71-7.94.23-8.47-5.16-8.21-11.62C794.26,967.14,795.14,961.76,800.28,961.32Z"/><path d="M800.2,101c8.26-1,11,3.45,10.88,10.84-.08,6.38-1.6,11.78-9.42,11.13-6.52-.54-12.81-2.59-12.75-10.82C789,105.06,791.61,99.72,800.2,101Z"/><path d="M792.75,244.19c7.69.78,15.73,3.81,14.61,14-.62,5.67-1.26,12.74-9.44,13.19-9.72-1.39-15.61-5.7-14.95-15.89C783.37,249.31,785.85,243.48,792.75,244.19Z"/><path d="M815.35,391.85c-.75,7-3,14.55-9.22,14.51-7.53,0-16.37-1.81-15.53-14.37.71-10.6,8-12.25,14.79-12.64C812.93,378.92,814.13,386.34,815.35,391.85Z"/><path d="M770.82,297.16c10.36.85,12.92,8.3,12.3,17.67s-7.55,6.16-12.14,6c-7.4-.2-11.5-4.29-9.89-12.44C759.36,300.52,763.77,296.58,770.82,297.16Z"/><path d="M762.58,148.54c.49,7.94-.57,16.62-11.67,14.5-10.61.73-14.63-4.88-14.64-13.35,0-8.78,7.25-12.73,14-12C754.94,138.13,762.18,142.12,762.58,148.54Z"/><path d="M751.71,224.15c.31,6.7,1.84,15.65-11,15-9.7,2.22-10.5-7-11.13-12.86-.46-4.27,2.17-10.81,10.5-9.57C745.61,217.51,751.41,217.47,751.71,224.15Z"/><path d="M741.71,437.82c.48,5.93-4,8-9.39,7.58-8.28-.6-17-2.8-17.89-12-.74-7.7,4.32-13.73,13.86-12.33C741.67,419.41,741,429.58,741.71,437.82Z"/><path d="M688.42,174.42c7.44.1,14.25,3,12.61,12.89,1,7.48-2.51,12-9.65,12.44-9.15.52-14.52-5.38-15-13.71C676,179.11,681.71,174.33,688.42,174.42Z"/><path d="M700.69,86.26c.39,11.42-6.56,16.67-17.37,15.68-8.44-.76-3.13-9.44-6.31-12.63.57-9.08,6.09-12.33,13.18-11.51C694.61,78.31,700.5,80.68,700.69,86.26Z"/><path d="M673,264.5c.71,9.35-4,14-14.47,15-8.62-1.78-8.52-10.84-10.31-17.37-1.54-5.63,2.25-11.11,8.85-11C665.45,251.29,672.29,254.73,673,264.5Z"/><path d="M629.24,148.27c1.35,6-1.61,9.28-9.94,8.94-10-.4-16.1-5.36-16-14.82.08-8,5.53-11.87,14.46-11.68C629.48,131,628.85,138.65,629.24,148.27Z"/><path d="M577.87,203.27c.3,11.6-6.35,15.49-17.2,13.81-8.43-1.31-8.17-7.45-7.94-13.91.59-7.84,1.48-15.94,12.16-16.14C575.8,186.82,577.66,195,577.87,203.27Z"/><path d="M575.92,103.68c.35,9-8.23,10.09-13.88,10.84-5.48.72-7.9-5.83-7.39-10.67.66-6.26,1.63-13.68,11.53-12.91C575.75,89.92,575.68,97.67,575.92,103.68Z"/><path d="M494.2,127.16c7.78.59,16.56,1.6,14.78,13.31.91,6.73-1.71,13.12-7.75,14.16-12.1,2.08-17.78-6.23-19-16.89C481.25,129.86,487.48,126.65,494.2,127.16Z"/><path d="M475,209.16c.28,6-2.83,12-8.12,12.52-13.25,1.39-15.8-9.17-17.84-17.1-1-10.66,6.72-12.25,11.31-12.28C470.35,192.25,474.58,199.73,475,209.16Z"/><path d="M423.27,142c.26,7.2-4.73,12.26-13.37,10.88-9.59,2-11.45-5.42-11.41-11.6.06-8.65-.34-19.06,13.73-18.49S423,134.6,423.27,142Z"/><path d="M355.92,115.85c.78,7.05-2.31,15.66-10,14.52-7.17-1.07-16.82-4.36-17-15.47-.15-8,4.81-9.92,12.71-10.16C347.23,106.29,355,107.29,355.92,115.85Z"/><path d="M306.53,170.65c.25,6.57-5.79,11.53-11.91,12.6-14.11-.43-14-10.95-15.41-19-1.59-9.3,6-13.4,13.25-12.85C303.14,152.19,306.22,162.25,306.53,170.65Z"/><path d="M295.78,273.78c1.35,11.54-7.28,15.27-16,14.76-7.8-.46-3.74-10.56-8-13.73,1-10.24,6.36-14.18,14.92-13.8C294.83,261.36,295.16,268.39,295.78,273.78Z"/><path d="M260.53,96.06c.34,8,.75,19-10.36,20.58-8.84,1.25-18.49-.81-19.22-13.37-.6-10.51,4.8-16.1,17-16.4C255.08,84.41,260.24,89,260.53,96.06Z"/><path d="M226.86,189c.69,8.77-3.52,16.22-12.86,15.64-9.51-.59-9.71-10.55-10.76-17.38-1.35-8.78,6.77-8.83,12.36-10.75C223,177.8,226.38,182.87,226.86,189Z"/><path d="M195.71,551.71c5.42-.59,11.94,2.86,11.17,10.28-.84,8-2.58,17.89-12.24,18.41-6.37.35-17.6.43-16.15-8.39C179.37,557.17,186.93,552.67,195.71,551.71Z"/><path d="M198.46,98.6c.52,6.5,1.17,15.79-10.93,14.57-9-1.45-12.1-8.2-12.44-16.27-.31-7,3.14-10.42,11-10.18C194.47,87,198,92.52,198.46,98.6Z"/><path d="M175,287.77c7.79,1,12.38,5,12,15-.93,6.44-3.18,14.81-12.9,14-9.09-.8-8.3-11.38-10.33-17.38C161.91,293.85,166.19,286.71,175,287.77Z"/><path d="M166.87,381c11.18-.43,13.12,7.69,12.76,15.28-.34,7.25-5.22,12.6-13.71,11.76-10.25-1-10.68-9.69-10.6-16.61C155.39,385.31,159.09,379.72,166.87,381Z"/><path d="M164.64,756.87c11.76-.17,13.93,7,13.6,15.66s-6.46,10.34-13.68,10.57c-10.4.33-10.54-8.93-11-14.47C153.12,762.85,156.43,755.63,164.64,756.87Z"/><path d="M164.59,222.68c.7,5.34-5.22,8-6.71,8.34-12.27,1.69-14.83-4.6-14.56-10.69.23-5.43.25-14,9.37-13.15C161.18,208,163.71,216.12,164.59,222.68Z"/><path d="M154.94,520.11c.63,11.35-5.08,16.68-16.75,16.07-7.62-.4-9.32-6.67-8.66-11,1.27-8.33-4.21-21.33,11.45-22.74C151.75,503.88,154.46,511.52,154.94,520.11Z"/><path d="M147.69,834c.45,6.22-2,14.43-8.11,14.28-6.32-.15-15.31-3-14.48-16.65.63-3.74,3.1-8.58,11.38-8.86S147.24,827.75,147.69,834Z"/><path d="M132.73,127.15c7.4.72,13.8,3.8,12.35,13.63.79,10.31-4.92,15-14.62,13.16-8.79-1.68-10-9.52-9.42-17.09C121.59,130,126.47,126.54,132.73,127.15Z"/><path d="M140.78,732c.69,10.35-6.75,15.21-16,14.76-8.32-.41-10.86-6.93-10.24-11,.74-10.74.85-17.58,10.67-18C135.4,717.31,140.2,723.4,140.78,732Z"/><path d="M130.53,426.63c.79,9-.71,15.3-11.24,14.39-6.67.6-10.61-2-11.26-8.42-.77-7.48-2.06-17,7.13-18.66C121.86,412.77,129.66,416.76,130.53,426.63Z"/><path d="M119.85,1129.41c1.35,9.88-4.22,16-13.68,16-6.28,0-8.94-7.68-8.72-12.31.32-6.82,2-15.29,12.19-14.15C117.86,1118.2,119.16,1124.32,119.85,1129.41Z"/><path d="M88.9,1541.94c8.63-.38,13.83,5.25,13.77,12.91-.07,8.15-4.45,14.77-19.25,14-3.63-.48-5.83-6.87-6.3-13.46C76.58,1547.58,80.74,1542.3,88.9,1541.94Z"/><path d="M101,347.82c2.51,12.81-7,15.29-14.9,14.74-9.24-.64-14.12-8.72-13.94-17.91.21-10.36,9.19-13.39,16.79-13.25C98.22,331.57,100.61,339.91,101,347.82Z"/><path d="M86.46,656.74c10.88.27,9.83,7.79,10.81,14.49-.58,7.61-2.23,14.23-11,15.8-12.87,2.28-15-6.48-15.07-15.8S75.81,656.48,86.46,656.74Z"/><path d="M90.52,821.55c.37,5.48-4.45,9.08-9,9.52-11,0-13.54-7.49-14.12-14.2-.43-4.88.73-11.77,9.21-12C88.75,804.44,90,813.48,90.52,821.55Z"/><path d="M90.61,926.33c0,8.91-7.18,12.27-15.75,13-11.11-1.71-9.72-11.34-10.6-18.58-.6-4.86,2.48-10.55,8.16-10.57C82.68,910.18,90.61,915.36,90.61,926.33Z"/><path d="M82.14,245.49c6.09-2.28,10.92,4.07,10.92,14.06-.51,5.33-.64,12.52-11.06,11.56C70.19,270,71.31,260.24,70.47,252.92,69.59,245.27,78.21,247,82.14,245.49Z"/></svg>