<svg id="Card" xmlns="http://www.w3.org/2000/svg" viewBox="0 0 1024 1680"><defs><style>.cls-1{fill:#f2f0ed;}.cls-2{fill:#8c1707;}.cls-3{fill:#16592d;}.cls-4{fill:#38408c;}.cls-5{fill:#f79d31;}</style></defs><rect class="cls-1" x="14.5" y="14.5" width="995" height="1651"/><polygon class="cls-2" points="966 1619.17 966 60.83 1018 8.83 1018 1671.17 966 1619.17"/><polygon class="cls-2" points="60.83 58 8.83 6 1015.17 6 963.17 58 60.83 58"/><polygon class="cls-2" points="8.83 1674 60.83 1622 963.17 1622 1015.17 1674 8.83 1674"/><path class="cls-3" d="M741.69,1618l.36-2.31c.51-3.18,1-6.35,1.48-9.53,1.61-10.48,3.27-21.31,5.44-31.88,2.63-12.75,6.19-25,10.24-38.55,1.41-4.7,2.74-9.53,4-14.21,3.73-13.52,7.59-27.49,13.66-40.25,2.47-5.18,4.88-10.5,7.2-15.66,6.19-13.69,12.56-27.79,20.78-40.88,3.43-5.48,6.73-11.16,9.92-16.66,4-6.81,8-13.83,12.39-20.54a25,25,0,0,0,3.61-8.18,1.53,1.53,0,0,0-.32,0c-.6,0-1.33,1.85-1.81,3.08a17.88,17.88,0,0,1-1.42,3.07c0,.08-.1.18-.16.29a5.28,5.28,0,0,1-.91,1.31c-11.06,10.8-18.47,24.46-25.62,37.66q-2.13,3.93-4.29,7.84c-19.85,35.68-32.91,74-42.07,103.31-8.55,27.43-13,54.86-16.43,80.41l-.23,1.73H685l.39-2.33c.64-3.89,1.33-8.05,1.94-12.28,2.9-20.15,8.63-41,17.52-63.86l1-2.61c7.59-19.54,15.43-39.71,24.94-58.75,4.16-8.37,9.11-16.48,13.9-24.33,3.37-5.52,6.84-11.21,10-16.88,13.73-24.89,32.15-46,51.41-67.25,13.77-15.19,32.3-34.77,53.52-51.52,5.89-4.65,11.59-9.77,17.11-14.73,7.4-6.65,15-13.52,23.29-19.39q3.9-2.77,7.78-5.58l.29-.21c16.14-11.62,32.82-23.62,51-32.74l2.9-1.45v9.22l-.75.6a116.46,116.46,0,0,0-9.8,9.19c-2.44,2.48-5,5-7.63,7.38-15.21,13.45-29.72,29.74-44.34,49.8-12.09,16.58-22.49,34.28-31.93,51-5.55,9.79-10.75,20-15.77,29.86l-.08.16c-2.79,5.47-5.67,11.13-8.58,16.66-6.4,12.15-11.15,25.53-15.73,38.46-1.21,3.4-2.41,6.79-3.64,10.16l-.62,1.69c-6.31,17.26-12.83,35.12-18,53-2.62,9-4.68,18.33-6.68,27.37-1.82,8.25-3.69,16.74-6,25-3.43,12.3-5.15,25.79-5.4,42.43l0,2Z"/><path class="cls-3" d="M662.09,1618l.28-2.25c.94-7.66,2.07-17.78,2.41-28,.56-16.67,4.41-32.81,8.14-48.41,1.7-7.11,3.46-14.46,4.88-21.76,3.19-16.46,8.19-32.79,13-48.58,1.44-4.7,2.93-9.57,4.36-14.43,1.29-4.35,2.56-8.72,3.83-13.08l.1-.35c5-17.26,10.2-35.11,16.58-52.21,8.25-22.1,18-45.35,31.72-75.41l.11-.23c9.31-20.45,18.94-41.58,30.88-60.92,4.53-7.35,9-14.84,13.33-22.08,12.54-21,25.5-42.68,40.82-62.42.43-.55.44-.56-.21-1.61l-.22-.35-.53.17c-.65,3-2.71,4.81-4.56,6.41a15.88,15.88,0,0,0-2.33,2.3c-11.22,15-24.11,33-34.63,52.71-4.1,7.67-8.78,15.15-13.3,22.37-4.71,7.52-9.58,15.29-13.74,23.21-9.07,17.23-18.29,36.55-28.18,59.07-8.33,18.95-16.36,38.9-23.88,59.3-6.23,16.9-12.38,35.45-18.81,56.72-3.34,11-6.15,22.5-8.88,33.56-.94,3.83-1.87,7.63-2.83,11.43-1.05,4.16-2.14,8.3-3.24,12.45-2.93,11.17-6,22.7-8.09,34.16-.63,3.39-1.29,6.76-2,10.13-2,10.4-4.12,21.15-5.23,32-.61,6-1.19,12.26-1.69,17.75v.12c-.5,5.39-1,11-1.56,16.45l-.18,1.8H608.85l.15-2.15c1.44-18.88,4.09-37.42,6.24-51.47,2.38-15.56,5.83-31.19,9.16-46.31l.29-1.32c1.6-7.29,3.41-14.65,5.17-21.76,2.5-10.16,5.09-20.64,7.08-31,3.79-19.73,10.38-38.83,16.76-57.31l.64-1.86c5-14.42,10.7-29.09,17-43.61l3.39-7.82c7.92-18.27,16.08-37.11,25.58-54.9,6-11.17,13.08-21.91,20-32.29,4-6,8.1-12.21,12-18.48,13.88-22.45,30.71-42.27,45.34-58.7,2.59-2.91,5.17-5.85,7.75-8.78,14-15.87,28.34-32.24,45.73-45.49,4.39-3.35,8.83-6.82,13.12-10.18l.15-.12c16.19-12.66,32.93-25.75,51.47-35.71,14.24-7.63,29-14.07,46.68-21.38a152.24,152.24,0,0,1,16.93-5.6L962,1061v11.63l-.7.6c-1.79,1.55-3.6,3.07-5.4,4.59-5,4.26-9.83,8.29-14.28,12.77l-5.75,5.77c-21.46,21.51-43.61,43.71-62.75,68-12.64,16-29.07,37.42-44,60.81-15.22,23.8-28.81,48-42.54,72.8-14.3,25.82-24.77,50.8-32,76.35q-1.29,4.56-2.61,9.1l0,.15c-4.5,15.55-9.16,31.6-11,48-.22,2-.32,4-.41,6.08-.24,5.33-.49,10.83-2.91,15.34a673.53,673.53,0,0,0-32.89,71.39c-6.71,17.14-14.33,36.56-17.87,56.49l-.74,4.11c-1.83,10.26-3.73,20.87-5.31,31.35l-.26,1.7Z"/><path class="cls-3" d="M635.48,1430.84l.07-1.23c.25-4,.16-8.18.07-12.18-.13-6.47-.28-13.17.93-20,1.23-7,1.07-14.52.91-21.76a156.57,156.57,0,0,1,.25-17l.06-.73c2.63-30,5.35-61,9.61-91.32,2.94-20.92,7.63-41.91,12.16-62.21l1.69-7.55c4.91-22.15,9.46-42.09,15.45-61.92,3.92-13,8.51-25.93,13-38.47l0-.11c3.78-10.69,7.7-21.74,11.16-32.7,9.21-29.14,20.4-54.46,34.22-77.41a7.52,7.52,0,0,1,6.81-3.9,22.13,22.13,0,0,1,6,1.15,26.18,26.18,0,0,0,3.4.84c1.57.24,3.12.59,4.61.92a47.74,47.74,0,0,0,6,1.07,9.43,9.43,0,0,0,1.08-3c-1.83-3.76-1.74-7.62-1.66-11a28.84,28.84,0,0,0-.26-6c-4.65-25,8.1-44.19,20.44-62.7l1-1.53c7.51-11.27,15.24-22.65,22.72-33.66,5.65-8.31,11.45-16.85,17.17-25.36,0-.1,0-.23-.06-.37a10.14,10.14,0,0,0-1.29.08l-6.42,8.24c-9.34,12-19,24.34-27.84,36.89-5.16,7.33-9.77,15.15-14.64,23.42l-.1.16c-2.29,3.9-4.67,7.94-7.21,12.1L761,929.61l.05-7.22a215.44,215.44,0,0,0-3.23-40.51c-.82-4.57,3.69-9.52,8.06-14.31,1.1-1.21,2.1-2.32,3-3.36,3.49-4.18,6.94-8.49,10.28-12.65,9.13-11.41,18.57-23.2,29.41-33.21,30.39-28.06,61.82-57.08,99.2-78A376.18,376.18,0,0,1,959.3,717l2.7-1v17.48l-.64.59c-8.6,8-16.67,16.69-24.49,25.08-2.42,2.59-4.79,5.13-7.18,7.66-16.94,18-33.9,37.43-51.84,59.52-11,13.56-21.25,28.09-31.16,42.14-4.77,6.78-9.68,13.74-14.61,20.51-7.3,10-13.8,20.73-20.09,31.09-4.49,7.39-9.12,15-14,22.37C791.22,952.55,785.84,964,780.64,975c-1.8,3.81-3.82,8.1-5.83,12.17-6.87,13.91-12.27,25.36-17,36l-1.21,2.73c-8.15,18.46-16.58,37.51-22.42,57.38-2.09,7.09-4.66,14.21-7.15,21.09-2.34,6.49-4.76,13.2-6.77,19.84-3.87,12.79-6.72,26.17-9.48,39.11q-.93,4.37-1.87,8.71c-3,14-6,27.78-8.11,41.55-.78,5-1.71,10.08-2.61,15-2.59,14.17-5.27,28.82-4.59,42.94,1.12,23.15-7.23,41.73-16.07,61.41q-2,4.44-4,8.93c-7.5,17.26-14.12,35.28-20.53,52.71-2.66,7.23-5.41,14.72-8.19,22.07-.45,1.19-.88,2.38-1.32,3.58a106.27,106.27,0,0,1-4.2,10.4l-.54,1.1Z"/><path class="cls-3" d="M719.82,797c-1.57,0-2.58-1.36-3.18-2.17l-.18-.24c-8.21-10.39-19.09-16.89-30.61-23.77q-2.1-1.25-4.18-2.51c-5.92-3.57-3.08-10.11-1.2-14.44a31.32,31.32,0,0,0,1.33-3.37c7.09-24.69,15.51-53.32,25.74-80.7,9-24,17.72-45.1,26.73-64.39,9.41-20.19,19.27-40.64,27.67-58,6.34-13.11,14.27-25.66,21.93-37.8,2.52-4,5.09-8.06,7.58-12.11l-3.3,4.42c-6.86,9.18-13.93,18.64-20.31,28.28a161.21,161.21,0,0,0-10.06,18.56c-1.37,2.81-2.79,5.72-4.27,8.55-2.34,4.5-4.82,9-7.22,13.32-5.35,9.67-10.88,19.66-15,30-3.1,7.77-6.32,15.63-9.44,23.24l0,.11c-9.08,22.15-18.47,45-25.73,68.38-2.29,7.37-4.51,14.89-6.65,22.15-4.32,14.64-8.78,29.73-14,44.35-1.78,5-4.67,7.37-8.84,7.37a22,22,0,0,1-4.74-.69,18.29,18.29,0,0,0-3.73-.58,3.34,3.34,0,0,0-2.72,1.11c-1.46,1.61-3.77,1.69-6,1.76a13.69,13.69,0,0,0-3.29.37,32.26,32.26,0,0,0-4.61,2.22c-2.53,1.37-3.9,2.09-5.11,2.09a2.43,2.43,0,0,1-1.8-.75c-3.4-3.56-1.49-7.66-.1-10.65a21.62,21.62,0,0,0,1.09-2.64c5.75-20,12.74-43.73,21.06-67.61,2-5.65,3.95-11.56,5.71-16.77,6.56-19.54,13.35-39.73,22.62-58.72,3.73-7.63,7.11-15.62,10.39-23.35,4.43-10.46,9-21.22,14.46-31.32,6.05-11.19,13.13-22,20-32.45,4.7-7.17,9.56-14.59,14-22,9.86-16.47,22.34-31.13,34.42-45.31q3.72-4.35,7.41-8.74c17.35-20.65,38.11-40.7,63.46-61.29C855,386.09,860.8,381,866.43,376c8.23-7.22,16.69-14.65,25.59-21.27,15.15-11.28,32.31-24.05,50.91-33.46q7-3.53,13.89-7.07l5.18-2.65v16.76l-.58.58a502.44,502.44,0,0,0-37.26,41.33c-3.49,4.38-7.18,8.89-10.44,12.87-10.22,12.47-20.79,25.37-29.65,39.37-8.19,12.93-17.6,26.42-28,40.08-14.4,19-26,40-37.3,60.36l0,.09c-2.9,5.25-5.91,10.68-8.91,16-13,23-23.18,48-33,72.22-2.76,6.79-5.61,13.8-8.49,20.69-6.12,14.66-10.88,30.05-15.48,44.93-3,9.57-6,19.44-9.41,29.06-4.78,13.56-7.89,28-10.89,42-1.16,5.39-2.35,11-3.64,16.47-1.46,6.25-2.73,12.67-4,18.87-.69,3.48-1.38,7-2.1,10.42C722.28,796.46,720.89,797,719.82,797Zm75-304.09.44-.24.32-.18c.25-.5.48-1,.71-1.57Z"/><path class="cls-4" d="M751.07,948.66c-12.38-28.87-27.27-49.85-46.85-66-27.9-23.06-56.2-36.27-86.52-40.37a33.31,33.31,0,0,0-4.33-.23H611.5l-2,0a30.64,30.64,0,0,1-8.25-.9,6,6,0,0,1-4-2.73c-1-1.81-.35-3.71,0-4.85,9.87-30.53,24.93-49.43,47.39-59.48a43.91,43.91,0,0,1,18-3.83c9,0,18.07,2.6,27.08,7.72,15.7,8.93,26.2,22.91,36.35,36.43l1.41,1.88a114.84,114.84,0,0,1,22.88,57.05,167.28,167.28,0,0,0,3.33,18.49c2.44,11.2,5,22.77,3.19,34.84-.59,4-.92,7.93-1.33,12.94-.21,2.54-.44,5.32-.74,8.46l-.11,1.16-3.26.51Z"/><path class="cls-4" d="M660.21,979.41c-3.36,0-6.75-.27-10-.54l-1.64-.13c-1.92-.15-3.86-.28-5.8-.4-8.62-.57-17.53-1.15-25.68-3.92-2.39-.8-4.94-1.52-7.41-2.21-10.36-2.89-21.08-5.89-27.2-16.73-2.62-4.64-2.51-9.74-2.4-14.67a42.84,42.84,0,0,0-.4-8.65c-1.91-10.25-4.86-22-12.27-31.36-7.92-10-3.28-17.53.82-24.16a49.61,49.61,0,0,0,3.07-5.44c3.89-8.56,9.58-12.72,17.4-12.72,5,0,10,1.65,14.88,3.24a64.3,64.3,0,0,0,8,2.27c18.42,3.43,37.79,10.06,57.57,19.68,26.76,13,46.34,27.1,61.63,44.29,10.61,11.93,18.49,25.75,24.78,43.48l.1.3c.5,1.38,1,2.68.12,3.88s-2.39,1.32-5.59,1.32h-.8l-.14,0c-13.28-2.72-24.3-4-34.76-4-2.12,0-4.24.06-6.31.17-12.81.68-25.32,1.58-37.46,5A37.7,37.7,0,0,1,660.21,979.41Z"/><path class="cls-3" d="M586.14,1618l-.07-2.91c-.07-3.08-.14-6.25-.45-9.31-2.55-24.59-5.15-53.15-3.66-81,.23-4.35.42-8.73.62-13.12v-.11c.45-10.34.92-21,1.91-31.44,1.53-16.08,2.28-32.53,3-48.44.79-17.59,1.62-35.76,3.5-53.59,1.32-12.45,2.42-25.09,3.49-37.32,1.45-16.64,2.95-33.82,5-50.66,1.82-15,5.16-29.93,8.39-44.41.5-2.21,1-4.43,1.48-6.64.69-3.15,1.39-6.3,2.08-9.46,5.14-23.39,10.45-47.58,17.22-71.16,8.64-30.12,19.09-61.36,33.87-101.28,8-21.59,18.29-42.39,27.32-60.2a30.09,30.09,0,0,0,1.79-5.25c1.43-5.18,3-11,10.06-12.37a48.24,48.24,0,0,1,8.93-.72c2.64,0,5.31.13,7.89.27,1.82.09,3.7.19,5.54.23a9.3,9.3,0,0,1,5.45,2.44c1.48,1.33.46,3.3-.83,5.8l-1.3,2.49c-2.18,4.22-4.39,8.48-6.72,12.62-3.94,7-6.79,14.73-9.55,22.2a188.67,188.67,0,0,1-7.57,18.42c-3.81,7.69-6.3,16-8.71,24-2.2,7.35-4.48,14.92-7.78,22.12-2,4.33-3.06,9.3-4.09,14.1-1.13,5.24-2.3,10.67-4.67,15.55-3.18,6.56-5,13.61-6.72,20.42-.77,3-1.57,6.18-2.48,9.25-3.82,12.86-6.72,26.27-9.53,39.25l-2.79,12.86c-4.07,18.66-8.28,37.95-11.69,57-1.75,9.75-2.93,19.79-4.08,29.5-.72,6-1.45,12.26-2.31,18.36-3,21.64-4,43.83-5,65.28-.65,14.51-1.32,29.49-2.62,44.23-.67,7.64-.29,15.46.08,23,.66,13.45,1.34,27.33-3.58,41.52-8,23.19-12.13,47.8-16.27,75.26-2.8,18.49-4.44,37.49-6,55.87l-.64,7.29Z"/><path class="cls-5" d="M715.26,906.43c-4.44-2.74-8.88-5.64-13.17-8.45-9.81-6.41-19.9-13-30.45-18-13-6.15-27.27-10.48-41-14.66l-.69-.21L623.08,863a103.22,103.22,0,0,0-14-2.93c-3.48-.57-7.07-1.15-10.59-2a12.63,12.63,0,0,0-2.1-.18c-2.12-.06-4.51-.14-6-1.86a4.72,4.72,0,0,1-1-3.8c.63-5.19,5.66-7,10.15-7a15.2,15.2,0,0,1,2.51.2c4.14.73,8.4,1.28,12.52,1.81,9,1.16,18.36,2.36,27.35,5.53,26.31,9.29,48.43,22.68,67.64,40.94,2,1.89,4.06,3.78,6.07,5.6l.24.22c1,.88,1.93,1.75,2.89,2.64l1.6,1.47-1.59,1.47-1,1-1.21,1.14Z"/><path class="cls-3" d="M631.36,1113.1l-.05-1.23a432.86,432.86,0,0,1,3.74-74.44l.67-5.08c1.12-8.49,2.27-17.28,3.33-25.92.73-5.95,1.37-12.12,2-18.84.13-1.59.37-4.54,4.39-4.56h2c2.05,0,4.1,0,6.15,0s4.08,0,6.11,0c7.46,0,15.44-.23,23.36-1.93l.44-.09a8.25,8.25,0,0,1,1.85-.29,2.67,2.67,0,0,1,2.33,1.17c.82,1.25.43,2.79-.47,4.87-4,9.17-8.33,18.31-12.56,27.15-7.7,16.1-15.65,32.7-21.32,49.92-3.62,11-7.76,21.66-12.13,32.95-2,5.07-4,10.31-6,15.64l-.43,1.15Z"/><path class="cls-3" d="M549.67,1618l.13-2.12c.47-7.7.89-15.71,1.24-23.83.56-12.82.6-25.87.64-38.5,0-14.65.09-29.75.93-44.65,2-35.77,2.74-72.23,3.43-107.49v-.25c.3-15.44.61-31.41,1-47.11l0-1.88c.54-19.91,1.09-40.5,2-60.75.39-9,1-18.11,1.53-26.94,1.12-17.63,2.28-35.78,1.93-53.56-.15-7.77.26-15.59.65-23.14.39-7.36.79-15,.66-22.47-.31-18.28,1.43-36.85,3.11-54.81v-.12c.55-5.9,1.12-12,1.61-18,.54-6.69,1.31-13.47,2.06-20l1.51,0-1.49-.17c.86-7.53,1.75-15.31,2.29-23,1.24-17.91,4.67-35.68,8-52.87,1.72-8.93,3.5-18.15,4.94-27.27l.43-2.7,2.45,1.22c8.74,4.38,19.24,9.23,30.76,12.05a4.88,4.88,0,0,0,1,.08c.51,0,1.07,0,1.66-.07.94-.06,1.7-.1,2.49-.1,2,0,4.83.25,6.71,2.4,1.58,1.79,2.11,4.43,1.64,8.09-3.36,26-5.95,49.9-7.92,73.09a152,152,0,0,0-.14,17.08,144.72,144.72,0,0,1-.31,19.07c-.42,4-.95,8-1.47,11.91-1.29,9.71-2.62,19.75-2.23,29.7.55,14-2.51,27.63-5.47,40.77-1,4.32-2,8.78-2.84,13.17-2,10.3-4.2,20.69-6.33,30.73-3.21,15.15-6.53,30.81-9.19,46.29-2,11.41-3.16,23.17-4.31,34.55-.74,7.3-1.49,14.79-2.45,22.14-4,30.42-6.34,60.23-8.15,85.38-.37,5-.33,10.13-.28,15.07a159.27,159.27,0,0,1-.6,18.84c-1.75,15.76-2.49,31.92-3.19,47.56-.35,7.74-.72,15.69-1.19,23.5-1.24,20.1.47,40.47,2.12,60.16.76,9,1.53,18.2,2,27.28.15,2.8.45,5.76,1,9.31l.33,2.28Z"/><path class="cls-5" d="M580.25,852.8c-2.86,0-5.39-2.59-6.44-4.12-15.65-22.86-21.86-48.56-18.46-76.37.15-1.23.29-2.45.44-3.68v-.17c1-9,2.08-18.22,6.68-27l1.34-2.55,1.92,2.14c10.33,11.5,14.3,25.94,17,39.82q.57,2.88,1.16,5.77c2.73,13.49,5.55,27.44,6.32,41.35.6,10.63-1.56,18.26-6.6,23.32A4.79,4.79,0,0,1,580.25,852.8Z"/><path class="cls-5" d="M557,887.13c-2,0-3.66-1.82-5.23-3.57a13,13,0,0,0-2.52-2.4c-1.78-1-3.54-2.09-5.24-3.15-5.15-3.19-10.47-6.48-16.68-7.14a9.88,9.88,0,0,1-9.17-9.57C516.47,840,523.22,820.47,540,798a51.58,51.58,0,0,0,4.18-7.24c1-1.94,2.12-4.08,3.58-6.73l.59-1.08,3.28,1-.13,1.23c-2.46,22.57,5.11,39.05,12.44,55l.9,2a22.93,22.93,0,0,0,4.41,5.71,34.26,34.26,0,0,1,4.21,5.06c3.76,5.86-.13,9.5-2.71,11.91-1.38,1.28-2.8,2.61-3.11,4a12.29,12.29,0,0,1-1.55,3.49,12.3,12.3,0,0,0-1.48,3.31c-1.3,5.82-3.33,9.54-6,11.06A3.29,3.29,0,0,1,557,887.13Z"/><path class="cls-4" d="M495.22,1081.28c1.77-11,3.31-20.43,4.42-30.06a166.16,166.16,0,0,0-.57-42.58c-6.65-47.85-21.38-87.74-45-121.94a5.71,5.71,0,0,1-.91-5.2c1-3,4.67-5.6,11.2-7.8a86.83,86.83,0,0,1,28.22-5,73.86,73.86,0,0,1,17.39,2.08c16.24,3.92,28.22,9,37.69,16.05,11.34,8.41,19.14,19.68,23.85,34.45,7.08,22.26,6.47,44.14-2,71-12.3,39-40.29,65.58-69.92,93.72l-6,5.72Z"/><path class="cls-4" d="M558.1,728.64a7.1,7.1,0,0,1-3.56-1.36c-25.23-15.58-39.49-39.14-43.6-72-1.33-10.61-1.1-25,16.08-27.81a11.63,11.63,0,0,1,1.84-.16c6.35,0,9.27,5.68,11.62,10.23.7,1.37,1.36,2.65,2.07,3.76,7.29,11.38,9.47,24.26,11.58,36.71.79,4.67,1.61,9.49,2.69,14.14a6.94,6.94,0,0,0,.77,1.64c.9,1.59,2.23,4,.68,7.08.22,1.87.69,5.8.69,5.8.66,5.47,1.33,11.12,1.93,16.76.15,1.42.35,3.18-.69,4.35A2.79,2.79,0,0,1,558.1,728.64Z"/><path class="cls-5" d="M502.3,1177.78l-.21-1.19c-.8-4.5-1.56-8.82-2.3-13-1.52-8.62-3.08-17.53-4.73-26.11l-.28-1.41a199.12,199.12,0,0,0-5-21.81c-1.78-5.76.82-9.83,3.29-12.73,9.86-11.64,20.05-23.66,33.87-34.22l4.08-3.12-.9,5.06c-6.16,34.7-14,69.87-24.09,107.52l-.31,1.16Z"/><path class="cls-5" d="M489.76,1068.66l-.14-1.27c-.48-4.33-.87-8.68-1.26-12.89a267.72,267.72,0,0,0-3.48-27.83l-.59-3c-3.3-16.85-6.72-34.26-12.32-51.06a345.3,345.3,0,0,0-25.49-57.17,97.4,97.4,0,0,0-9.29-13.11c-1.64-2.06-3.34-4.19-4.93-6.37a14.22,14.22,0,0,1-1.29-2.26c-.15-.3-.3-.6-.46-.9l-1.21-2.24,2.46-.65c.27-.06.91-.24.91-.24.7-.19,1.5-.41,2.3-.57a30.7,30.7,0,0,1,6-.63c13.51,0,18.11,10.66,22.17,20.07,1.08,2.5,2.1,4.87,3.26,7,11.57,21.42,20.16,46.68,26.25,77.23,5.48,27.5,5.8,52,1,74.79l-.27,1.25Z"/><path class="cls-3" d="M429.66,1618l-.1-2.1q-.07-2-.18-3.9c-.55-9.92-1.17-20-1.77-29.76-.73-11.94-1.49-24.28-2.13-36.52-.2-3.94-.14-8-.07-11.83.1-6.56.21-13.33-1-19.62-1.32-6.78-1.47-13.6-1.62-20.19a129.14,129.14,0,0,0-1.16-17.39c-1.77-11.32-2.15-23-2.53-34.26-.24-7.56-.5-15.35-1.17-23-1.21-13.66-3.09-27.51-4.9-40.91l0-.14c-.66-4.86-1.32-9.72-1.94-14.58q-1-8-2-16c-1.83-14.79-3.72-30-6.15-44.88-3.49-21.3-7.64-42.83-11.64-63.65l-2.21-11.46-1.28-6.73c-2.78-14.63-5.66-29.76-9.19-44.44-2-8.42-4.46-16.9-6.81-25.11-3-10.55-6.13-21.46-8.46-32.37-4-19-9.85-37.75-15.49-55.92-2.75-8.88-5.59-18-8.2-27.15-3.34-11.67-7.88-23.25-12.27-34.45-2.71-6.92-5.49-14-8-21.11-3.08-8.76-.32-14.5,8.7-18,4.93-1.93,9.44-5.62,13.8-9.2,1.94-1.58,3.94-3.22,6-4.71.77-.57,1.53-1.25,2.27-1.91l.09-.09,1-.89,2-1.71,1.13,2.35c.23.48.49.94.75,1.41a14.46,14.46,0,0,1,1.76,4.11c.72,3.51,1.35,7.05,1.95,10.47,1,5.39,1.93,10.91,3.25,16.22,2.1,8.43,6.94,15.8,11.61,22.92a123.24,123.24,0,0,1,8.58,14.47c7.53,15.87,13.32,32.83,18.92,49.23,1.71,5,3.65,10.7,5.58,16.13l.92,2.6c6.53,18.42,13.26,37.39,19.05,56.32,2.93,9.55,5.51,19.36,8,28.85,2.66,10.14,5.4,20.56,8.57,30.69,5.46,17.43,9.17,35.48,12.76,52.93.92,4.47,1.84,8.9,2.78,13.32,4,18.94,7.31,38.19,10.26,56.17,4.14,25.18,7.25,45.83,9.77,65,1.68,12.69,2.95,25.62,4.17,38.12.47,4.87.95,9.68,1.44,14.5.41,4,1,8.13,1.57,12.12,1.34,9.38,2.73,19.07,2,28.55-.92,12.16.06,24.43,1,36.3.55,6.83,1.12,13.89,1.32,20.87.13,4.64.18,9.34.22,13.88.12,11.61.23,23.61,1.84,35.38,1.28,9.42.56,18.82-.44,29.26l-.17,1.81Z"/><path class="cls-4" d="M482.12,1092.75c-2.71,0-3.54-2.78-4-4.44a8,8,0,0,0-.59-1.63c-7.59-10.73-18.55-17.84-29.15-24.71-3-2-6.13-4-9.13-6-2.33-1.61-4.67-3.2-7-4.8-15.13-10.31-30.79-21-42.33-35.79-5.06-6.5-8.08-14.58-11-22.4-1.16-3.1-2.33-6.25-3.6-9.21-3.91-9.14-7.14-17.21-9.88-24.66-5.65-15.39-1.95-29.16,12-44.65,9.57-10.62,22.51-18.09,39.55-22.84a13,13,0,0,1,3.37-.49c6.08,0,8.87,5.19,11.11,9.36a30.35,30.35,0,0,0,2.63,4.33c14,17.57,22.7,38.26,29.75,56.27,6.87,17.55,11.25,33.63,13.41,49.14.32,2.29.57,4.67.79,6.77.63,5.95,1.22,11.56,3.05,14.57l.23.39.05.44c.52,4.92,1,9.6,1.51,14.08,1.36,12.65,2.54,23.56,3.57,34.64.58,6.47-.08,9.88-2.16,11A4.32,4.32,0,0,1,482.12,1092.75Z"/><path class="cls-5" d="M444.73,879.5c1.3-5.84-.06-11.16-3.53-13.89-11.71-9.19-5.73-18.81-1.37-25.82l.64-1c3-5,4.95-10.56,6.79-16a90.22,90.22,0,0,1,6-14.8c.34-.6.64-1.22.94-1.83l1.58-3.18,2,1.92c.2.2.44.38.67.57a6.17,6.17,0,0,1,2.18,2.52c5.64,14.56,12.16,34,12.47,55.2.09,5.91-4.19,6.43-6.25,6.68a6.83,6.83,0,0,0-1.25.22,47.82,47.82,0,0,0-17.52,11.25l-4.84,4.79Z"/><path class="cls-4" d="M428.18,848.85c-1.21,0-2.72-.57-3-3.32a4.34,4.34,0,0,0-.07-.47c-12.83-24.47-17.93-47.47-15.56-70.32,1.92-18.45,4.09-39.37,21.42-53.62,5.21-4.3,10.77-6.48,16.5-6.48a23.46,23.46,0,0,1,9,1.86c8.08,3.36,8.44,7.58,8.56,23.16.2,20.71-6.91,39.86-13.79,58.39l-.06.17c-4.37,11.76-9.14,23.53-13.77,34.92q-2.32,5.73-4.64,11.49c-.94,2.31-2.05,3.63-3.39,4A4.39,4.39,0,0,1,428.18,848.85Z"/><path class="cls-5" d="M422.45,887.46a6.09,6.09,0,0,1-6.17-4.25c-2.65-7.32,5.18-18.91,13.21-22.92a3,3,0,0,1,1.38-.33c2.88,0,4.75,3.83,7.12,8.67a44.54,44.54,0,0,0,3.36,6.11l.67.9-.43,1.05c-.48,1.17.17,3.26.6,4.63.49,1.55.87,2.77.07,3.85a2.24,2.24,0,0,1-1.83.91,3.2,3.2,0,0,1-1.36-.34,7.83,7.83,0,0,0-3.37-.66,28.76,28.76,0,0,0-7,1.24A25.89,25.89,0,0,1,422.45,887.46Z"/><path class="cls-3" d="M387.09,1618l0-2c.09-13.06.15-25.86-.13-38.75-.38-18.51-.93-38.33-2.31-57.85-.6-8.57-1.63-17.28-2.63-25.71-1.1-9.3-2.23-18.89-2.82-28.41-2-32.11-6.41-63.7-11.57-98.7-4.3-29.31-9.24-53.33-15.53-75.59-4-14.08-8.44-28.23-12.76-41.92-4.42-14-9-28.45-13-42.79-6-21.28-11-43.18-15.81-64.35l-1.49-6.52c-3.25-14.2-6.4-28.67-9.45-42.67l0-.2c-3.38-15.51-6.88-31.56-10.52-47.3-3.17-13.71-6.79-27.55-10.28-40.93-1.57-6-3.15-12-4.68-18l-.63-2.47,2.54,0c3.1,0,6.2-1.27,9.19-2.46,3.18-1.27,6.18-2.46,9.34-2.46.31,0,.62,0,.93,0h.15c1.37,0,3.35-1.42,5.1-2.67,2.36-1.7,4.79-3.45,7.47-3.45,4.53,0,6.66,4.79,7.87,8.39,2.51,7.5,5.21,15.09,7.82,22.42,4.33,12.16,8.77,24.64,12.52,37.12,1.64,5.44,3.31,10.87,5,16.3l.13.43c6.4,20.84,13,42.39,17.75,64.16,2.83,13,6.36,26,9.78,38.62,3.36,12.41,6.84,25.24,9.65,38,5.12,23.29,9.34,47.16,13.42,70.25.88,5,1.75,9.91,2.63,14.82,2.74,15.36,5.33,31.81,8.16,51.77.66,4.67,1,9.45,1.39,14.07.59,7.6,1.2,15.43,3.09,22.7,3.18,12.19,4.07,24.68,4.94,36.76.56,7.9,1.14,16.07,2.37,24a355.09,355.09,0,0,1,4.06,50.18c.25,22.77,2,45.84,3.75,68.15.89,11.53,1.81,23.46,2.52,35.31.51,8.54,1.18,17.66,2.18,29.57l.19,2.17Z"/><path class="cls-4" d="M340.62,789c-2.2,0-3.12-2.55-3.46-3.52a7.51,7.51,0,0,0-.64-1.18,9,9,0,0,1-1.13-2.4c-4.56-17.35-8.35-33.23-8.53-52v-.2c.44-3.64.78-7.23,1.14-11,1.86-19.62,3.77-39.86,19.09-57.25,6.34-7.2,16.54-12.43,24.24-12.43a12.6,12.6,0,0,1,8.07,2.57c7.2,5.75,6.2,14.39,5.39,21.33l0,.17c-.08.69-.16,1.37-.23,2-2.76,26.33-13.19,50.55-23.27,74-.78,1.81-1.55,3.62-2.33,5.44-3.66,8.54-7.87,17-11.94,25.11l-.15.3q-1.35,2.68-2.68,5.37l-.12.29C343.57,786.82,342.68,789,340.62,789Z"/><path class="cls-3" d="M340.24,1618l.07-2.07c.13-4,0-8,0-12,0-2.23-.1-4.36-.11-6.47-.12-24.67-.66-50-1.15-71.78-.15-6.79-.16-13.67-.18-20.32,0-17.82-.08-36.25-2.71-53.91-1.65-11.11-2.77-22.42-3.86-33.35-1.34-13.59-2.74-27.65-5.16-41.32-.9-5.08-1.76-10.24-2.59-15.24-1.74-10.46-3.54-21.28-5.81-31.79-1.72-7.93-3.81-15.93-5.82-23.67-2.73-10.47-5.55-21.29-7.51-32.12-3.65-20.14-10.25-38.89-15.59-53-11.08-29.16-21.82-54.6-32.86-77.76l-1.24-2.61c-7.83-16.46-15.93-33.49-28-47.67-2.53-3-2.88-5-1.43-8.38,2.25-5.2,4.35-10.53,6.39-15.69,1.54-3.89,3.09-7.82,4.68-11.67l.08-.18c.53-1.27,1.62-3.9,4-3.9a3.87,3.87,0,0,1,2.89,1.51,106.77,106.77,0,0,1,12.11,15.67c8.16,13.56,15.76,27.38,21.48,37.91l3.14,5.77c5.73,10.51,11.66,21.39,16.64,32.51,6.51,14.54,12.36,29.59,18,44.15l2.56,6.59c4.59,11.79,9.86,25.51,14.38,39.24,2.91,8.83,5.28,17.93,7.57,26.73l.13.5q.78,3,1.57,6,2,7.43,4,14.84l.09.33c3.74,13.79,7.61,28,10.62,42.23s5,28.91,7,43.1q.63,4.62,1.27,9.22c.83,5.91,1.72,11.91,2.58,17.72l0,.24c2.68,18.08,5.46,36.77,6.87,55.32q.61,8.22,1.26,16.44c1.72,22.35,3.51,45.46,4.74,68.33.87,16.3,1.65,32.7,2.4,48.56q.7,14.89,1.44,29.8l.1,2.1Z"/><path class="cls-4" d="M174.2,1000.8c.15-.95.25-1.95.35-2.92a24.88,24.88,0,0,1,1.4-7c9.22-22.72,24.29-43,46.05-62.07,8.2-7.16,17.67-13,26.83-18.67,3.53-2.18,7.18-4.44,10.69-6.72,4.75-3.11,9.63-6.16,14.36-9.12l.2-.12c5.86-3.68,11.93-7.47,17.77-11.37,9.28-6.21,19.58-10.4,29.53-14.46,5.46-2.22,11.07-4.5,16.4-7.07a13.75,13.75,0,0,1,6.05-1.34c9,0,19.35,8,23.13,17.74l.49,1.27c2.1,5.42,4.08,10.53,4.14,16.34,0,20-12.25,33.62-23.69,44.79-15.62,15.26-34.93,26.07-62.61,35-13.67,4.44-27.81,7.28-41.48,10-9.06,1.82-18.43,3.7-27.52,6-3.09.78-6.26,1.45-9.33,2.1-9.14,1.93-18.55,3.91-26.54,9.17a4.62,4.62,0,0,1-2.63.65h-1.45l-2.55.22Z"/><path class="cls-5" d="M332.51,851.64c-2.39,0-5.31-1.2-5.63-6.92-.26-4.83-2.05-9.79-3.57-13.57-2-4.84,1.75-15.11,4.87-20.52,2.39-4.14,4.81-6.41,7.21-6.75a5.17,5.17,0,0,1,.76-.06c4.22,0,4.42,4.59,4.51,6.54,0,.29,0,.55,0,.78.28,3.24.25,6.52.22,9.69,0,2.4-.05,4.88.07,7.3.18,3.67.57,7.33,1,11.2l0,.16c.2,1.81.4,3.66.58,5.59l.09.92-.12.12.06.25c.26,1.13.61,2.64-.33,3.82a2.83,2.83,0,0,1-2.28,1,5.64,5.64,0,0,1-1.72-.32,1.36,1.36,0,0,0-.45-.06,11.24,11.24,0,0,0-2.17.35A15.73,15.73,0,0,1,332.51,851.64Z"/><path class="cls-3" d="M290.69,1618l0-2c0-2.88.08-5.76.13-8.64v-.62c.1-5.21.19-10.61.19-15.9s0-10.57,0-15.85c.1-41.26.19-83.93-5.66-125.67-.83-5.9-1.78-12.06-2.63-17.5-1.87-12.09-3.81-24.6-4.91-36.93-1.5-16.79-4.71-33.53-7.81-49.71-.57-3-1.13-5.92-1.69-8.87-3.86-20.56-9-42.54-16.71-71.28-5.52-20.62-11.82-41.16-18.73-61-5.72-16.46-12.62-32.84-19.3-48.69l-.07-.16c-2.17-5.17-4.35-10.34-6.49-15.52l-.29-.69c-1.12-2.65-2.18-5.16-.26-9.24,3.87-8.27,7.26-16.81,10.85-25.84l0-.1c1.41-3.56,2.86-7.21,4.39-11l1.65-4.07,3.66,7.24c1.24,2.45,2.31,4.57,3.39,6.6,2.62,4.93,5.35,9.93,8,14.76l.15.28c6.08,11.11,12.36,22.59,17.9,34.22,6.52,13.73,12.12,28.15,17.52,42.09l1.91,4.93c1.76,4.51,3.65,9.2,5.33,13.35,5.56,13.78,11.31,28,15.13,42.58,2.64,10,4.78,20.39,6.84,30.39,2,9.43,3.94,19.1,6.33,28.4,8.24,32.18,13.19,63.78,16.95,90.45,3.7,26.23,6.26,55.12,8.06,90.92.69,13.78.73,27.8.76,41.35,0,16.8.08,34.1,1.37,51.07.69,9.23.61,18.46.45,28.7l0,2Z"/><path class="cls-5" d="M229.87,911.86c.23-.53.44-1.16.64-1.76a10.27,10.27,0,0,1,2.47-4.62c24.48-22.36,46.27-39.36,73-49.6a50.49,50.49,0,0,1,18.36-3.15,86.11,86.11,0,0,1,14.1,1.26l1.16.19.27,3.3-1.11.37c-31.12,10.59-59.78,26.08-92.9,50.23a80.27,80.27,0,0,1-9.06,5.45l-1.36.75a4.22,4.22,0,0,1-2,.45c-.3,0-.62,0-.93,0l-.65,0-3.26.09Z"/><path class="cls-4" d="M169.44,988.62l-.1-1.2c-1.81-23.93,4.2-45.69,11.06-67.73l1-3.37c5-16.08,10.15-32.71,18.34-47.47s19.92-33.1,39.26-45.8c15-9.86,27.72-14.25,41.19-14.25,1.25,0,2.51,0,3.76.11,15.8,1,33.16,15,36.43,29.49,1.8,8-6.29,10-11.12,11.11a34.78,34.78,0,0,0-3.37.93c-20.32,7.55-39.51,19.6-62.21,39.09a231,231,0,0,0-50.07,59.82c-1.48,2.57-3,5.11-4.49,7.66-5.73,9.67-11.65,19.66-15.95,31l-.43,1.12Z"/><path class="cls-3" d="M245.84,1618l-.41-1.46c-1.27-4.57-2.68-9-4-13.1-7.11-22-17.79-42.73-28.12-62.79-3.19-6.2-6.5-12.62-9.69-19.07a256.29,256.29,0,0,0-35.42-52.8l-.75-.87c-7.77-9.07-15.81-18.45-26.3-24.59a4.76,4.76,0,0,0-1.68-.5,9.43,9.43,0,0,0,1,1.38c2.9,3.12,5.93,6.22,8.87,9.22,5.7,5.81,11.58,11.82,16.78,18.25a285.17,285.17,0,0,1,37.61,60.39c2.87,6.27,6.44,12.43,9.9,18.39,4.65,8,9.45,16.31,12.71,25.11,2.06,5.56,4.43,11.16,6.72,16.58,3.19,7.57,6.48,15.33,9.06,23.24L243,1618H207.2l-.39-1.5a302.83,302.83,0,0,0-11-33.41c-7.08-18.27-14.84-37.64-24.94-55.88-9.09-16.43-19.92-32.3-30.41-47.64q-3.49-5.11-7-10.25a255.89,255.89,0,0,0-18.87-24c-6.62-7.6-13.54-15.19-20.23-22.52l-.19-.2c-4.16-4.57-8.47-9.29-12.67-14-5.64-6.3-11.87-13.32-19-21.45l-.5-.56v-12.08l2.7,1a227.15,227.15,0,0,1,27.27,13c34.94,18.87,60.89,37.57,81.66,58.84q4,4,7.92,8c16.91,17.13,34.39,34.84,47.86,55.94,12.42,19.49,23.23,40.93,33,65.55.76,1.91,1.53,3.82,2.29,5.74,4.26,10.61,8.66,21.58,12.17,32.73l.82,2.6Z"/><path class="cls-3" d="M216,832.24c-3.11,0-3.82-3.17-4.24-5.07a8.84,8.84,0,0,0-.37-1.36l-2.34-4.58c-7.57-14.79-15.39-30.09-22.51-45.44-10.48-22.6-23.2-44.46-35.49-65.61-3.84-6.59-7.8-13.41-11.67-20.2-13.46-23.64-28.44-48.67-46.65-71.49a48,48,0,0,1-3.82-5.88c-.47-.81-.91-1.56-1.36-2.3l-.65-1.06,2.56-2.33,1,.74q5.73,4.3,11.48,8.59l.24.18C111.1,623.1,120.33,630,129.29,637c2.16,1.68,4.34,3.34,6.52,5l.21.16c8.18,6.22,16.65,12.66,23.95,20.11,12.42,12.69,24.52,26.07,36.22,39l.16.18c5.33,5.89,10.84,12,16.3,17.94,13.55,14.73,26.92,31.88,40.87,52.45,4.29,6.32,8.69,12.47,13.36,19,2,2.82,4.07,5.68,6.15,8.61l2.14,3-3.69.15c-8.41.33-16.35,3.14-24.27,8.6a10.35,10.35,0,0,1-5.74,2.09c-3.85,0-6.08-3-7.6-5.69-5.56-9.71-11-19.58-16.2-29.14-4.12-7.51-8.38-15.29-12.65-22.88a19.76,19.76,0,0,0-4.7-5.7c-.93,1.52.2,3.48,2.11,6.37a28.29,28.29,0,0,1,1.64,2.7c7.49,14.75,15.75,29.42,23.74,43.6l4.9,8.71c1.63,2.91,2.71,6.33-1.71,9.61a70.44,70.44,0,0,0-5.93,5.16c-1.53,1.44-3.09,2.9-4.73,4.25s-3,2-4.34,2Z"/><path class="cls-3" d="M137.58,1359.88c-.47-3.44-.91-6.89-1.35-10.33-1-7.52-1.95-15.3-3.2-22.9-1.3-7.83-2.76-15.72-4.18-23.36-1.37-7.39-2.79-15-4.06-22.65-2.11-12.62-4.28-25.67-5.6-38.79-.42-4.16-.93-8.4-1.42-12.49-1.62-13.49-3.29-27.43-2.12-41,.87-10,1.1-20.31,1.32-30.24.35-15.81.72-32.15,3.66-48.21,4-22,10.61-39,20.71-53.49,6.76-9.68,17-15.46,27.54-15.46a28.4,28.4,0,0,1,10.8,2.12c3.28,1.33,5,3,5.27,5.08.39,3-2.57,5.26-4.34,6.59-.2.16-.56.42-.72.56-10.5,15.43-16.7,33.15-22.65,51.47A327.55,327.55,0,0,0,141,1211.44a61.71,61.71,0,0,0,.79,9.79,2.36,2.36,0,0,0,.46.61l.28-.33c1.07-1.23,2.25-2.59,2.35-3.58a90,90,0,0,0,.22-10.52c-.06-2.85-.11-5.79.05-8.71a366.06,366.06,0,0,1,11.6-73.22c6.95-26.29,15.77-48.89,27-69.09,5.84-10.51,19-18.13,31.23-18.13a26.87,26.87,0,0,1,21.21,10c2,2.36-.17,6.32-3.14,11.8-1,1.86-2.07,3.79-2.74,5.37-2.74,6.41-5.45,13-8.07,19.29-6.16,14.91-12.54,30.33-19.75,45.09-6.79,13.91-12,28.4-16.58,42-4,11.91-7.48,24.26-10.81,36.2-1.36,4.86-2.76,9.88-4.19,14.8l-1.46,5.05c-3.56,12.36-7.25,25.13-10.83,37.9-5,17.86-10.18,36.33-11.72,55.57-.54,6.78-1.65,13.65-2.74,20.29-1,5.93-2,12-2.56,18.16l-.13,1.32-3.66.07Z"/><polygon class="cls-2" points="6 8.83 58 60.83 58 1619.17 6 1671.17 6 8.83"/><path d="M88,608.24l-.22-.14-.19-.13.19.13ZM1024,8V1672a8,8,0,0,1-8,8H8a8,8,0,0,1-8-8V8A8,8,0,0,1,8,0H1016A8,8,0,0,1,1024,8Zm-8,1658.34V13.66l-48,48V1618.34ZM962.34,56l48-48H13.66l48,48H962.34ZM13.66,1672h996.68l-48-48H61.66ZM960,1616V1264.76q-7.71,7-15,14.63a448.32,448.32,0,0,0-29.81,33.74c-18.86,23.83-34.24,49.6-48.53,76.4-12.29,23-22.49,46.85-32.4,70.8-7.76,18.74-13.08,38.5-19.12,57.92-4.93,15.89-10,31.79-13.72,48-3.09,13.44-4.6,27.27-6.24,41-.35,2.91-.6,5.84-.81,8.77Zm0-363.65v-5c-21,10.54-39.78,24.79-58.82,38.37-14.28,10.17-26.51,23.16-40.32,34.06-19.47,15.37-36.81,33.13-53.28,51.29-18.77,20.7-37.33,41.84-51.14,66.88-7.61,13.78-16.78,27-23.83,41.13-9.89,19.81-17.84,40.52-25.88,61.2s-14.25,41.54-17.4,63.42c-.6,4.12-1.27,8.22-2,12.32h48.41c3.7-27.19,8.22-54.18,16.5-80.73,11.2-35.9,24-70.85,42.23-103.69,8.93-16,16.81-32.83,30.25-45.94a6.7,6.7,0,0,0,.79-1.26c1.82-2.87,2.2-8.79,6.67-6.61,1.8.88-1,7.3-3.36,10.85-7.89,12.12-14.66,25-22.3,37.17-11.26,17.94-18.89,37.5-27.86,56.34-8.1,17-12.14,36-17.58,54.17-3.79,12.68-7.53,25.43-10.2,38.38-2.81,13.67-4.72,27.52-6.9,41.32h41c.22-14.42,1.52-28.76,5.47-42.94,4.82-17.31,7.65-35.17,12.68-52.4,5.41-18.52,12.09-36.69,18.71-54.82,6-16.48,11.35-33.43,19.48-48.86s15.77-31.41,24.46-46.74c10-17.58,20.22-34.91,32.05-51.14C911,1301,925.65,1283.87,942.5,1269,948.51,1263.68,953.72,1257.37,960,1252.35Zm0-13.34V1083.45c-2,1.72-3.92,3.42-5.91,5.09-20.9,17.57-38.72,38.13-57,58.07-19.11,20.8-36.29,43.4-52.39,66.82-8.52,12.38-15.74,25.55-24.28,37.93-12.31,17.86-21.19,38.11-31.25,57.5-6,11.48-12.94,22.78-16.67,35C766,1365,756,1385,752.82,1407.15c-1.49,10.31-5.41,20.27-7.72,30.5,13.13-25.3,31.66-46.29,50.9-66.7,13.42-14.25,26.12-29.38,40.9-42.08,27.28-23.45,53.47-48.28,84.65-67,11.7-7,22.7-15.33,35.1-21.28C957.76,1240,958.88,1239.5,960,1239Zm0-167.3v-8.06a152.21,152.21,0,0,0-16.72,5.53c-15.75,6.5-31.49,13.25-46.49,21.29-23.35,12.54-43.47,29.82-64.48,45.84-20.4,15.55-36.41,35.17-53.2,54-16.35,18.36-32.11,37.36-45.13,58.42-10.49,17-22.52,33.1-31.89,50.66-10.8,20.24-19.73,41.51-28.9,62.58-6.2,14.25-11.89,28.77-17,43.46-6.67,19.34-13.44,38.66-17.33,58.9-3.4,17.74-8.38,35.18-12.26,52.84-3.47,15.76-7,31.56-9.42,47.5-2.61,17-4.92,34.16-6.22,51.32h45.69c1.15-11.45,2.1-22.92,3.26-34.32,1.47-14.41,4.6-28.27,7.2-42.29,2.92-15.74,7.43-31.19,11.36-46.74,3.8-15.06,7.25-30.23,11.74-45.08,5.77-19.1,11.94-38.11,18.84-56.83,7.38-20,15.34-39.87,23.93-59.41,8.79-20,18.06-39.86,28.24-59.2,8.21-15.62,18.73-30,27-45.59,10-18.75,22.13-36,34.79-53,2.16-2.89,6.14-4.34,6.66-8.65.08-.63,2.27-1,3.48-1.49.28,1.88,2.84,3.15.89,5.65-20.55,26.47-36.5,55.93-54,84.32-11.92,19.31-21.43,40.21-30.87,60.93-11.28,24.77-22.15,49.79-31.67,75.28-8,21.4-14,43.57-20.46,65.51-6.16,20.84-13.21,41.56-17.34,62.82-4.5,23.22-12.18,45.8-13,69.86-.31,9.42-1.27,18.81-2.43,28.2h14.41c1.79-11.87,4-23.69,6.06-35.51,3.51-19.73,10.7-38.29,18-56.87a668.63,668.63,0,0,1,33-71.6c3.1-5.8,2.3-13.74,3.09-20.71,2.24-19.76,8.35-38.51,13.74-57.55,7.64-27,18.66-52.37,32.18-76.78,13.64-24.62,27.39-49.12,42.61-72.91,13.6-21.26,28.58-41.24,44.14-61,20.91-26.51,44.92-50.09,68.65-73.92C946.34,1083,953.22,1077.56,960,1071.71Zm0-16.92V742.69q-3.19,3.34-6.31,6.73c-22.92,24.84-44.84,50.62-66.59,76.5-21.45,25.53-40.57,52.87-58.92,80.67-11.69,17.7-22.54,36-32.46,54.81-12.21,23.09-23.36,46.77-34.37,70.47-6.73,14.5-13.22,29.23-18.23,44.38-7.42,22.43-14,45.17-19.88,68.07-8.78,34.49-17.17,69.11-20.28,104.75-1.09,12.5-3.17,24.91-3.88,37.58,12.76-24.4,28.4-46.65,44.67-68.3,15-20,32-38.49,48.84-57.09,15.82-17.51,33.68-32.49,51.93-47a330,330,0,0,1,85.91-49.7A260.38,260.38,0,0,1,960,1054.79Zm0-322.22V718.85a373.62,373.62,0,0,0-51.25,23.27c-37,20.69-68,49.24-98.82,77.7-14.7,13.57-26.6,30.2-39.51,45.67-4.2,5-11.43,11.45-10.6,16a216.94,216.94,0,0,1,3.26,40.88c8-13.12,14.36-24.92,22-35.79,11-15.53,22.83-30.41,34.49-45.44.65-.85,2.84-.5,4.32-.7.11,1.12.74,2.59.25,3.32-13.29,19.79-26.83,39.42-40,59.26C771.5,922,758.35,940.9,763,965.82c1,5.44-.93,11.17,1.8,16.64.68,1.35-1.46,5.87-2.18,5.84-3.9-.17-7.74-1.46-11.65-2.06-4.81-.73-10.86-4.55-14.18,1-14.56,24.19-25.5,50-34,77-7.56,23.91-16.9,47.27-24.16,71.26-6.13,20.29-10.82,41.06-15.41,61.77-5.13,23.1-10.53,46.22-13.82,69.61-4.29,30.5-7,61.25-9.66,92-1.13,12.94,1,26.3-1.18,39-1.92,10.92-.33,21.35-1,32,2.23-4.58,3.72-9.24,5.45-13.81,9.47-25,18.11-50.38,28.76-74.87,9.74-22.38,21.14-43.26,19.87-69.44-.93-19.29,4.2-38.94,7.22-58.33,2.19-14,5.14-27.84,8.14-41.66,3.49-16.07,6.63-32.28,11.39-48,4.16-13.76,9.88-27.26,13.91-40.92,6.17-21,15-40.58,23.72-60.35,5.37-12.17,11.12-24.18,17-36.1,7.49-15.15,14-31,23.29-45,11.74-17.61,21.61-36.32,34.15-53.53C845.7,866.84,860,845.15,876.3,825c16.61-20.46,33.8-40.41,51.94-59.63C938.66,754.36,948.76,743.06,960,732.57Zm0-23.77V339.06l-5.55,6.06C939.16,361.8,925,379.5,910.84,397.21c-11.17,14-21.77,28.51-32.09,43.16-9,12.73-16.91,26.16-25.77,38.95-11.34,16.38-21,33.71-30.57,51.13-13.3,24.2-25.66,48.79-35.51,74.66-6.39,16.77-14.59,32.86-20.79,49.69-5.24,14.23-8.82,29.07-13,43.67-5.88,20.36-12,40.66-17.34,61.16-2.38,9.07-2,18.94-4.91,27.78-6.57,20.13,9.84,32,15.62,47.57,3.22,8.69,5.75,17.62,8.64,26.42a29.08,29.08,0,0,0,1.62,3.38c1.32-.79,3.06-1.27,3.88-2.41,15.24-21.11,32.76-39.94,51.47-58.17,16.61-16.18,35.12-29.82,52.4-45,15.26-13.42,33.15-23.68,51.79-32C930.7,720.78,944.87,713.58,960,708.8Zm0-381.29V314.85q-8.09,4.13-16.17,8.23c-18.13,9.18-34.44,21.24-50.62,33.28-15,11.13-28.37,24.3-42.87,36.07-22.83,18.54-44.26,38.49-63.19,61-14.59,17.37-29.89,34.15-41.65,53.79-11,18.34-23.8,35.65-34,54.42-9.49,17.53-16,36.63-24.81,54.6-11.83,24.22-19.44,50-28.24,75.27-7.75,22.25-14.53,44.85-21,67.5-1,3.55-4.8,7.87-1.46,11.37.79.84,6-3,9.45-4.09,2.73-.9,6.91.1,8.43-1.57,5.38-5.94,15.09,6.07,19.63-6.55,7.87-21.86,13.79-44.33,20.66-66.41,9.8-31.51,23.15-61.43,35.27-91.88,6-15.07,14.76-29,22.29-43.47,4.75-9.14,8.78-18.75,14.43-27.29,8.94-13.51,19-26.31,28.55-39.38,1.08-1.48,2.38-2.81,3.58-4.2.54.51,1.63,1.19,1.53,1.51a45,45,0,0,1-2.51,6.54c-.36.73-1.71.94-2.15,1.67-10.64,17.6-22.51,34.61-31.43,53-9.32,19.24-18.62,38.57-27.66,58-9.84,21.09-18.57,42.58-26.67,64.25-9.85,26.38-17.91,53.47-25.69,80.55-1.33,4.62-6.79,12.07-1,15.55,12.8,7.74,25.86,14.77,35.35,26.78.62.79,2.14,3.29,2.85-.13,2-9.78,3.8-19.62,6.07-29.34,4.6-19.65,7.92-39.78,14.59-58.72,8.67-24.57,14.84-49.91,24.94-74.09,13.12-31.41,24.83-63.53,41.59-93.12,14.68-25.94,28.17-52.64,46.41-76.66,9.77-12.86,19.26-26.32,27.88-39.94,11.91-18.82,26.53-35.23,40.22-52.42A506,506,0,0,1,960,327.51Zm0-22V64H64V579.58c15.47,12.62,32,23.84,47.67,36.22,17,13.41,34.23,26.4,50.12,41.1a684.21,684.21,0,0,1,64.92,68.8A711.67,711.67,0,0,1,279.18,798c3.72,5.94,10.64,2.3,16,4.39,6.71,2.64,12.89,5.7,17.26,10.92,5.83,7,8.22,2,10.14-2.37,1.09-2.46,1.94-4.83,4.11-6.33,16.09-11.15,2-22.92-.11-33.68-4.85-24.65-7-48.68-2.15-73.8,3.89-20.26,11.71-36.63,28.29-49,9.41-7,20.52-9,29.61-3.91s9.64,15.73,9.4,26.86c-.41,19.37-7.22,36.79-13.1,54.3-6.19,18.4-13.93,36.88-24.52,53-10.32,15.72-6.16,31.33-7,47.36-.42,8.33,4.68,16.33.4,24.92-1.48,3,3.47,3.27,5.51,4.15,16.44,7.1,29.59,32.09,25.12,48.41,7.59-4.32,14.67-10.22,22.78-12.58,14.62-4.26,9.26-19.73,17.75-27.67,14.53-13.59-3.88-22.85-7-33.86-6.88-24-11.45-47.21-5.48-72.36,3.12-13.14,7.16-25.06,15.19-35.64,7.49-9.88,17.48-15.18,30-14.08,9.19.8,16,6.15,18.47,14.84a74.78,74.78,0,0,1,.29,38.33c-2.94,11.93-8.82,23.44-9.76,35.42-.35,4.55,7.33,10.91,9.66,17.81,4.83,14.35,10,28.53,8.94,44-.33,4.78,1.3,5.76,5.78,5.65,8.79-.23,17.6.14,26.39.47,3.4.13,1.77-2.37,1.69-3.31-2.49-29.68,8.86-54.05,28.92-74.92,9.17-9.54,7.54-22.34,11.17-33.53.14-.46-.18-1.15.06-1.48,11.57-15.94-3.44-18.72-12.06-25.28-16.17-12.31-25.49-29.56-31.85-48.37-3.68-10.92-6.22-22-4.38-34,1.75-11.49,7.54-18.8,18.18-21.45,12.36-3.08,18.94,5.15,24.13,14.77,15.57,28.85,16.6,61.12,20.47,92.47,1.65,13.33,13.64,19.58,15.9,31.83,2.46,13.38,6.54,26.46,9.62,39.74,1.35,5.8,2,11.77,3.54,21.69,3-22.61,22-32.12,26.73-50.56,4.94-19.15,11.55-37.87,17.68-56.69,6.43-19.74,13.47-39.29,19.67-59.1,8.32-26.51,19.95-51.55,32.23-76.37,18.13-36.66,38.4-72.08,64.07-104,20.81-25.86,42.26-51.38,67.73-72.92,21.12-17.86,42.55-35.41,64.61-52.1A494.74,494.74,0,0,1,960,305.54ZM755,926.37c2.69-18.19-4.71-35.16-6.53-52.83-2.1-20.32-10-39.4-22.49-56.06-10.7-14.23-21.1-28.65-37.15-37.77-14-8-29.26-10.05-43.26-3.8-24.9,11.14-38.16,33.07-46.31,58.27-.56,1.71-1.27,4,2.58,5,5.51,1.51,11,.35,16.14,1,33.27,4.5,62.07,19.77,87.52,40.81,20.67,17.09,35.54,39.1,47.42,66.8C753.78,938.62,754.09,932.45,755,926.37Zm-5.44,48.57c5.29,0,5.11.06,4.08-2.83-5.58-15.73-12.94-30-24.39-42.82-17.25-19.4-38.45-32.84-61-43.82-18-8.76-37.46-15.86-57.05-19.51-12-2.23-28.94-14.06-38.08,6.07-3.83,8.45-13.26,16-4.14,27.53,7.2,9.11,10.46,20.38,12.67,32.23,1.43,7.67-1.26,15.91,2.57,22.71,7.18,12.7,21.55,14,33.51,18,9.71,3.29,20.59,3.4,31,4.22,7.12.56,14.76,1.38,21.42-.53,12.5-3.56,25.18-4.44,37.9-5.12C722.16,970.35,736.17,972.2,749.55,974.94Zm-22.67,11.53c.58-1.12,1.6-3.1,1.28-3.39a7.22,7.22,0,0,0-4.17-1.93c-7.33-.18-14.86-1.14-21.94.19-8.17,1.55-7.55,10.85-10.44,16.55-9.92,19.58-19.61,39.44-27.22,60-12.34,33.32-24,66.88-33.83,101.14-7.64,26.63-13.32,53.56-19.27,80.5-3.72,16.86-7.75,33.76-9.83,50.86-3.55,29.23-5.38,58.66-8.48,87.95-3.59,33.94-3.27,68.13-6.5,102-1.41,14.85-1.74,29.86-2.52,44.59-1.44,26.77.87,53.88,3.65,80.65.35,3.44.4,6.93.48,10.42h14.7c1.79-20.55,3.44-41.11,6.52-61.46,3.85-25.49,8-51.41,16.36-75.61,7.57-21.84,1.54-42.84,3.4-64.07,3.21-36.5,2.51-73.25,7.62-109.61,2.25-16,3.56-32.08,6.4-47.93,3.86-21.59,8.64-43,13.3-64.46,3.28-15,6.39-30.18,10.76-44.91,3-10,4.62-20.28,9.32-30,4.43-9.14,4.49-20.36,8.74-29.62,6.85-14.92,9.12-31.21,16.52-46.13,6.46-13,9.89-27.74,17.17-40.71C721.68,996.57,724.26,991.51,726.88,986.47Zm-10.57-81.74,1.14-1.07c-3.08-2.83-6.21-5.6-9.23-8.48-19.35-18.4-41.73-31.61-66.92-40.5-12.89-4.55-26.38-4.94-39.56-7.26-3.18-.56-9.7,0-10.33,5.1-.54,4.4,4.83,3,7.52,3.65,8.18,1.94,16.75,2.48,24.74,5,16.48,5.09,33.32,9.74,48.83,17.06C687.85,885.44,701.76,895.75,716.31,904.73ZM685.36,986c1.72-4,.25-3.37-1.89-2.91-12.59,2.69-25.35,1.81-38.06,1.9-2.14,0-2.27,1-2.41,2.73-.55,6.31-1.19,12.62-2,18.91-1.27,10.35-2.65,20.68-4,31a429.35,429.35,0,0,0-3.72,74.1c6.39-17,12.85-32.55,18.11-48.52C660.27,1036.42,674.21,1011.86,685.36,986ZM631,989.86c1.47-11.39-8.42-7.33-12-8.2-11.19-2.73-21.38-7.29-31.19-12.2-4.24,26.69-11,52.92-12.92,80-1,14.4-3.2,28.72-4.37,43.12-2,24.23-5.13,48.52-4.72,72.73.26,15.26-1.61,30.33-1.31,45.6.53,26.84-2.31,53.74-3.46,80.63-.89,20.85-1.44,41.72-2,62.59-1.38,51.64-1.55,103.35-4.47,154.91-1.58,27.76-.36,55.44-1.57,83.13q-.52,11.94-1.24,23.86h28.27c-.45-3.15-.81-6.31-1-9.48-1.58-29.21-5.94-58.3-4.14-87.67,1.45-23.73,1.77-47.57,4.39-71.16,1.26-11.33,0-22.54.87-33.83,2.06-28.59,4.47-57.08,8.17-85.5,2.45-18.9,3.54-38,6.77-56.77,4.44-25.81,10.53-51.33,15.53-77.06,3.45-17.7,9-35.11,8.27-53.48-.55-14.12,2.24-27.94,3.71-41.9,1.26-11.92-.56-24.14.45-36.11C625.18,1038.6,627.89,1014.19,631,989.86ZM582.25,849.92c5.92-5.94,6.41-14.88,6-21.8-.87-15.71-4.35-31.32-7.44-46.84-2.8-14.12-6.77-27.95-16.58-38.87-5.07,9.66-5.68,20.1-6.91,30.14-3.31,27,2.61,52.34,18.12,75C576.61,849.23,579.85,852.33,582.25,849.92ZM565.73,868.4c1.16-5.34,10.69-7.26,6.09-14.43-2.52-3.94-6.87-6.89-8.76-11-7.79-17-16.13-33.94-13.51-58-4,7.31-5.56,11.06-7.91,14.21-13.76,18.41-23.37,38.22-21.52,62,.33,4.27,3,7.26,7.39,7.73,8.78.93,15.44,6.49,22.69,10.53,2.59,1.45,5.3,6.75,7.44,5.54,2.72-1.53,4.26-6.17,5.06-9.75C563.3,872.47,565.28,870.47,565.73,868.4Zm1.84,123.26c7.34-23.27,9.68-45.59,2-69.75-9.7-30.46-31.94-42.37-60.1-49.17-15.4-3.72-30.14-2-44.5,2.86-3.59,1.21-12.93,4.7-9.29,10,25.71,37.17,39.23,78.56,45.38,122.81a168.23,168.23,0,0,1,.58,43.08c-1.28,11-3.14,22.07-5.18,34.72C526.49,1057.64,555.19,1030.93,567.57,991.66Zm-4.48,61.59c1.26-13,4-25.83,5.23-39.14-7,13.7-14.66,27.05-25.46,37.6-10,9.74-7,22-9.46,33-6.47,28.77-10.29,58.18-20.36,86-6.69,18.5-4.83,36.38-.85,55.12,3.34,15.76,3.49,32.21,4.85,48.37,2.14,25.4,4.23,50.81,6.11,76.23,1.47,19.85,3.25,39.71,3.72,59.59.64,27.32.9,54.69,0,82-.93,27.75,3.06,55.38.56,83.18-1.22,13.52-1.56,27.11-1.92,40.71h18.15c.93-15.4,2.33-30.83.71-45.94-3-27.7,1.23-55,.85-82.49-.47-33.17.78-66.37,1.84-99.54.6-18.65,4.76-37.5,2.88-55.81-2.12-20.55,2-40.49,1.38-60.78-.49-17,3.47-34.12,3.2-51.15-.25-15.9,2.56-31.74,1.74-47.23-1.09-20.4,3-40.16,3-60.33C559.24,1092.9,561.17,1073,563.09,1053.25Zm-7.5-327.67c3.57,2.21,3.6.68,3.31-2-.83-7.88-1.82-15.76-2.69-23.17,2.13-3.52-.77-5.41-1.34-7.87-3.93-16.95-4.22-34.95-14-50.22-3.47-5.41-5.58-14.23-13.53-12.94-14.28,2.31-16,13-14.42,25.59C516.67,685,529.24,709.31,555.59,725.58Zm-35,837.56c1.42-10.21-1.48-20.94-1.53-31.45-.22-41.32.41-82.65-.26-124-.48-29.13-1.57-58.32-4.19-87.32-3.24-35.9-7.38-71.79-13-107.39-3.78-24-10.33-47.54-13.13-71.88a159.87,159.87,0,0,0-12.08-44.34c-5-11.58-16.36-19-27.34-25.55a2.32,2.32,0,0,0-1.68.34,9.86,9.86,0,0,0,.36,3.78c11.6,27.43,17,56.49,23.74,85.32,5.59,24.07,8.71,48.49,13.07,72.7,3.33,18.46,2.56,37.61,4.82,56.31,2.87,23.63,4.13,47.34,6,71,2.08,26.19,1.41,52.33,1.64,78.5.24,26.33-1.49,52.77.42,79,2.38,32.63,1.05,65.21,1.42,97.8h20.41C519,1598.4,518.09,1580.78,520.56,1563.14Zm-16.5-386.9c9.7-36.34,17.64-71.24,24.05-107.35-13.45,10.28-23.53,22.09-33.56,33.92-2.46,2.9-4.35,6.15-2.9,10.84a216.83,216.83,0,0,1,5.37,23.44C499.41,1149.51,501.51,1162,504.06,1176.24Zm-12.45-109.07c5.32-25.1,3.87-49.76-1-74-5.3-26.58-13.11-52.72-26-76.67-6.25-11.56-8.7-29.5-29.23-25.44-1,.21-2.06.52-3.1.79a25.05,25.05,0,0,0,1.6,2.93c4.81,6.56,10.48,12.64,14.36,19.7A346.86,346.86,0,0,1,473.87,972c6,17.9,9.39,36.07,13,54.29C489.45,1039.55,490.06,1053.21,491.61,1067.17ZM490,1616c.93-9.7,1.73-19.4.45-28.8-2.26-16.54-1.6-33.08-2.08-49.47-.55-19.1-3.79-38-2.32-57.38,1-13.27-2.19-26.87-3.57-40.32-1.8-17.53-3.29-35.09-5.6-52.56-2.86-21.69-6.21-43.33-9.76-64.93-3.08-18.75-6.3-37.49-10.25-56.07-4.7-22.12-8.7-44.39-15.49-66.07-6.15-19.65-10.52-39.86-16.56-59.55s-13-39.32-19.95-58.84c-7.76-21.88-14.5-44.29-24.42-65.17-6.06-12.77-16.76-23.47-20.32-37.77-2.19-8.81-3.39-17.86-5.22-26.77-.36-1.77-1.54-3.37-2.35-5-1.16,1-2.26,2.08-3.5,3-6.67,4.88-12.77,11.24-20.23,14.16-8.55,3.36-10,8.42-7.54,15.52,6.56,18.63,14.87,36.73,20.29,55.67,7.94,27.71,17.71,54.89,23.73,83.2,4.12,19.35,10.61,38.18,15.25,57.43,4.08,17,7.22,34.13,10.5,51.26,4.79,25,9.73,50,13.85,75.17,3.31,20.21,5.55,40.6,8.17,60.93,2.4,18.56,5.22,37.09,6.87,55.71,1.68,19,.75,38.33,3.69,57.09,2,12.54.33,25,2.76,37.51,2,10.26.57,21.15,1.12,31.73,1.15,22.1,2.68,44.18,3.9,66.28.07,1.37.13,2.73.19,4.1Zm-1-209.33c0-8.08.48-16.2-.08-24.25q-2.64-37.7-5.95-75.34c-1.24-14.26-3.41-28.44-4.46-42.71-1.91-25.93-6.33-51.44-11.45-76.87-3.57-17.67-6.34-35.52-10.47-53.06-3.84-16.32-7.83-32.8-14-48.3-3.64-9.13-2.32-20.5-12.26-27.38-9.44-6.53-20.26-11.41-27.49-21-1-1.33-3.44-1.57-5.21-2.32,0,.77-.37,1.68-.08,2.3,7.65,16.23,11.92,33.73,18.44,50.29,9.73,24.73,16.82,50.24,24.87,75.43,7.33,22.93,12.43,46.61,18,70.08,4,16.84,7.12,33.88,10.44,50.86,2.45,12.53,4.53,25.13,6.84,37.68,2.26,12.31,5.16,24.53,6.78,36.92,2.06,15.83,3.11,31.79,4.6,47.69Zm-5.61-316.29c1.61-.91,1.43-6,1.15-9.13-1.4-15-3.1-30.07-5.08-48.69-2.79-4.6-2.92-13.57-4.11-22.1-2.35-16.89-7.28-33.32-13.29-48.69-7.6-19.4-16.18-39.09-29.45-55.75-4-5.06-5.69-15.11-15-12.52-14.58,4.06-28.17,10.67-38.61,22.25-11,12.23-17.84,25.73-11.63,42.62,3,8.28,6.37,16.45,9.84,24.56,4.51,10.55,7.49,22.39,14.33,31.17,13.09,16.82,31.43,28.09,48.91,40.18,13.61,9.42,28.78,17.11,38.77,31.24C480.36,1087.27,480.19,1092.12,483.3,1090.38ZM464.89,868.23c2-.77,6.3.39,6.22-5-.28-19.11-5.54-37-12.34-54.51-.37-1-1.57-1.59-2.38-2.38-.44.88-.86,1.77-1.34,2.63-5.41,9.79-6.9,21.12-12.88,30.84-4.59,7.44-10.53,15.75.26,24.23,3.68,2.89,5.87,8.62,4.25,15.89A49.66,49.66,0,0,1,464.89,868.23Zm-15.56-70.7c6.94-18.69,13.93-37.45,13.73-57.85-.12-15.75-.47-18.48-7.33-21.33-8.31-3.46-16.46-1.47-23.48,4.31-16.51,13.58-18.74,33.43-20.7,52.29-2.52,24.32,4,47.54,15.38,69.24.53,1-.22,3.17,1.91,2.55.91-.27,1.66-1.77,2.1-2.86C437.14,828.46,443.55,813.11,449.33,797.53Zm-9.41,86.4c2.44,1.14-1.61-4.48-.18-8-3.25-4.38-6.61-15.22-9.36-13.85-7.33,3.66-14.47,14.23-12.22,20.45C420.89,890.07,432,880.26,439.92,883.93ZM389.11,1616h36.07c-.83-9.87-1.6-19.74-2.19-29.62-2.05-34.52-5.89-68.91-6.27-103.56a353.18,353.18,0,0,0-4-49.9c-3.1-20.12-2.05-40.62-7.26-60.58-3.11-11.92-2.79-24.69-4.53-37-2.45-17.27-5.09-34.53-8.15-51.7-5.07-28.38-9.85-56.84-16-85-5.66-25.73-13.82-50.91-19.43-76.65-6-27.42-14.76-54-22.81-80.74-6-20-13.67-39.61-20.33-59.48-5.21-15.52-12.61-.42-18.85-.92-6-.47-12.25,4.8-19.27,4.89,5,19.55,10.38,39.19,15,59,6.94,30,13.14,60.16,20,90.17,5.42,23.67,10.72,47.41,17.28,70.78,8,28.41,17.76,56.31,25.77,84.71,7,24.85,11.81,50.17,15.58,75.84,4.85,32.88,9.55,65.67,11.59,98.87,1.11,18.08,4.17,36,5.45,54.1,1.36,19.28,1.91,38.62,2.31,58C389.26,1590.12,389.2,1603.06,389.11,1616Zm-6.55-941.09c.79-7.56,2.62-16.17-4.4-21.78-7.19-5.74-22,1-29.56,9.62-17.82,20.23-17,45.08-19.74,67.14.18,19.06,4.2,35.32,8.46,51.53.32,1.21,1.29,2.23,1.72,3.42,1.71,4.77,2.95.39,3.35-.41,5-10.16,10.26-20.26,14.72-30.68C368,728.27,379.62,702.93,382.56,674.91ZM342.31,1616h39.94c-1.3-26.12-2.44-52.24-3.84-78.35-1.52-28.29-3.86-56.52-6-84.73-1.86-24.49-6-48.8-9.46-73.15-2.45-17.45-4.58-35-8.22-52.19-4.08-19.27-9.65-38.23-14.68-57.3-2.93-11.09-5.65-22.26-9.24-33.14-4.34-13.19-9.3-26.19-14.34-39.14-6.62-17-13.1-34-20.54-50.65-5.85-13-12.9-25.56-19.72-38.15s-14-25.41-21.43-37.83a106.59,106.59,0,0,0-11.9-15.38c-2-2.27-3.11.71-3.66,2-3.77,9.09-7.18,18.34-11.08,27.38-1.18,2.73-.84,4,1.12,6.3,12.81,15.12,21.08,33.11,29.47,50.71,12.11,25.43,22.91,51.56,32.92,77.91,6.55,17.27,12.35,34.89,15.69,53.33,3.4,18.76,9.27,37.06,13.31,55.73,3.37,15.58,5.63,31.39,8.42,47.1,4.38,24.73,5.33,49.86,9,74.72,3.64,24.43,2.36,49.62,2.91,74.48.54,23.94,1,47.92,1.15,71.82C342.19,1603.5,342.52,1609.75,342.31,1616Zm27.28-720.67c-.06-5.89-2.34-11.3-4.5-16.91-4.35-11.27-17.61-19.58-26.44-15.32C323.5,870.4,307.12,875,293,884.49c-10.63,7.1-21.64,13.63-32.35,20.62-12.58,8.21-26.07,15.43-37.29,25.23-19.43,17-35.64,37-45.52,61.31-1.18,2.9-1.12,6.3-1.63,9.47,1.06-.09,2.37.2,3.15-.32,11.06-7.28,24.21-8.41,36.47-11.54,22.81-5.83,46.28-8.67,68.88-16,23.1-7.5,44.36-17.52,61.83-34.58C358.72,926.74,369.56,913.91,369.59,895.33ZM338.91,849c3.68,1.21,1-3,1.68-3.74-.59-6.13-1.33-11.57-1.6-17-.27-5.63.2-11.32-.28-16.92-.16-1.89.16-5.91-3-5.45-5.46.78-12.63,19.28-10.51,24.54,1.83,4.53,3.46,9.41,3.72,14.21C329.36,853.22,335.64,847.92,338.91,849Zm-3.72,767c.15-9.53.26-19.06-.45-28.52-2.33-30.82-.58-61.7-2.13-92.47-1.52-30.32-3.8-60.7-8-90.74-4.26-30.25-9.27-60.42-16.91-90.23-5-19.32-8.07-39.43-13.16-58.78-5-19-13.22-37.28-20.39-55.72-6.13-15.76-12.13-31.63-19.38-46.88-8-16.73-17.29-32.81-26-49.18-1.47-2.77-2.86-5.58-5.08-10-5.44,13.37-9.9,25.4-15.32,37-1.68,3.57-.61,5.42.59,8.32,8.85,21.41,18.3,42.62,25.9,64.47q10.49,30.18,18.77,61.19c6.34,23.67,12.25,47.48,16.75,71.43,3.65,19.4,7.74,38.85,9.52,58.77,1.61,18.1,5,36.21,7.53,54.33,6.61,47.15,5.66,94.47,5.66,141.8,0,8.39-.23,16.79-.33,25.18Zm3-760c-12.5-2.05-22.6-1.59-31.43,1.79-27.86,10.66-50.64,29.33-72.4,49.21-1.42,1.3-1.78,3.77-2.63,5.7,1,0,2.08.26,2.82-.14a92.24,92.24,0,0,0,10.2-6.06C272.91,885.91,302.58,868.06,338.16,856Zm-32.93-7.39c4.64-1.73,15-2,13.24-9.73-3-13.41-19.19-27-34.6-27.93-16.57-1-30.14,4.89-43.73,13.81-17.45,11.46-29,27.83-38.61,45.1-8.65,15.59-13.83,33.14-19.22,50.46-6.78,21.78-12.77,43.24-11,67,5.48-14.41,13.36-26.39,20.58-38.92A232.08,232.08,0,0,1,242.42,888C261.06,872,281.44,857.4,305.23,848.57Zm1.32,302.56c-1.27-8.23-1.28-16.32-3.88-23.47-5.83-16.06-7.3-33-11.56-49.37-7.2-27.65-13.51-55.54-20.25-83.31-1.26-5.21-5.17-7.62-9.87-5.78-20.45,8-43,6.4-63.48,14.32-9.2,3.55-18.24,7.77-27.47,10.8-9.63,3.15-8.84-6.4-8.58-12.24.82-18,.87-36.11,3.83-53.74,3.7-22,10.47-43.34,18.75-64.21,6.24-15.71,15-29.64,24.18-43.66,4.06-6.21-3.17-12.84-5.82-18.69-11.25-24.82-22.8-49.58-35.75-73.54-13.72-25.37-29.92-49.39-43.6-74.78C112,652.88,97.54,634.7,84.21,615.82a169.55,169.55,0,0,0-20.21-24v775.7c3.2,1.16,6.36,2.41,9.45,3.81,15.13,6.87,30.13,14.15,44.49,23,14,8.65,27.85,17.53,40.64,27.6,14.35,11.29,27.47,24.37,39.9,37.8,14.65,15.83,28.94,32,39.88,51,14.47,25,27,50.93,36.68,78.2,2.95,8.31,5.69,16.71,9.2,27.1h.38c.17-3.1.31-4.6.31-6.07,0-28.54,1.34-57.18-.56-85.6-1.4-20.94-1.3-42-4.71-63-2.94-18.06-3.45-36.78-7-54.85-2.08-10.47-2-21.08-4.8-31.6-4.54-17.13-5.44-35.19-9.13-52.58-3.75-17.63-9.49-34.82-13.48-52.41-3.39-15-6.68-29.85-12.07-44.31-7.21-19.3-13.4-39-20.27-58.42-2.46-6.94-5.55-13.66-8.5-20.42-.56-1.29-2.41-3-3.12-.65-5.59,18.94-13.93,36.92-18.41,56.28-4,17.24-9.76,34.07-14.68,51.09-5,17.22-10,34.37-13.42,52.07-4,20.51-3.89,41.42-8,61.8-.75,3.74-3.58,7.08-1.26,12.19-17.14-6.89-13.19-22.61-16.24-34.41-5.12-19.8-8.84-40-12-60.26-2.9-18.61-4.38-37.44-6.3-56.2-1.45-14.15-3.61-28.34-3.65-42.51,0-17.44,1.76-34.89,2.77-52.33,1.16-20,3.69-39.86,11-58.69a95.79,95.79,0,0,1,20.08-31.63c9.31-9.77,30.31-11.47,43.37-4,7.77,4.45,12.56-2.37,18.15-4.75,19.63-8.37,38.82,1.33,50.49,21.15,8.79,14.92,19.08,29,27.54,44.07C289.88,1116.4,297.75,1133.59,306.55,1151.13ZM247.36,1616H275c-4.1-13-9.38-25.7-14.41-38.33a386.83,386.83,0,0,0-32.87-65.21c-15.41-24.15-35.76-43.45-55.52-63.67-23.78-24.35-51.71-42.56-81.18-58.48a231.53,231.53,0,0,0-27-12.84v8.43c5.84,6.62,12.41,14,19,21.44,11,12.28,22.29,24.29,33.11,36.72a256.31,256.31,0,0,1,19,24.14c12.91,19.08,26.36,37.93,37.48,58,9.89,17.87,17.65,37,25.05,56.13A304.67,304.67,0,0,1,208.75,1616h31.51c-4.43-13.54-10.82-26.44-15.75-39.74-5.62-15.16-15.78-28.57-22.56-43.37a281.45,281.45,0,0,0-37.35-60c-7.82-9.68-17-18.22-25.55-27.36a33.85,33.85,0,0,1-3.33-5.12c2.16.35,4.67.11,6.43,1.14,11.12,6.51,19.37,16.34,27.56,25.89a257,257,0,0,1,35.69,53.21c13.38,27,28.55,53.16,37.92,82.13C244.74,1607.19,246.12,1611.55,247.36,1616Zm-1.29-806.49c7.27-5,15.56-8.57,25.33-9-6.82-9.61-13.35-18.51-19.54-27.63-12.42-18.31-25.69-35.92-40.68-52.22-17.52-19.06-34.54-38.61-52.64-57.09-9.16-9.35-20.09-17-30.48-25.09-12.8-9.94-25.86-19.53-38.81-29.27a77.84,77.84,0,0,0,5,8c17.9,22.43,32.67,46.89,46.83,71.75,16.18,28.41,33.44,56.21,47.23,86,7.82,16.86,16.36,33.39,24.82,49.94,1,1.94.5,8.24,5.9,3.8,3.69-3,6.93-6.63,10.74-9.47,3-2.24,2.78-4.12,1.15-7-9.74-17.37-19.66-34.64-28.67-52.38-1.75-3.44-6.61-8.17-3-11.84,1.62-1.68,5.8,3.54,7.51,6.58,9.73,17.27,19,34.81,28.85,52C237.57,810,240.39,813.42,246.07,809.51Zm-17.65,255.17c2.22-5.18,7.82-13.15,6.18-15.1-14.91-17.9-40.9-7.07-49.15,7.78C173.5,1078.89,165,1102,158.65,1126a361.85,361.85,0,0,0-11.53,72.82c-.36,6.43.36,12.93-.28,19.31-.23,2.38-2.93,4.52-4.5,6.76-.88-1.1-2.34-2.1-2.55-3.32a64.4,64.4,0,0,1-.82-10.1,328.69,328.69,0,0,1,16.37-105.29c5.82-17.94,12.06-36.09,23-52.08.75-1.11,9.72-5.44.62-9.15-12.63-5.14-27.15,0-36,12.63-11.14,16-16.88,33.59-20.38,52.71-4.76,26-2.7,52.21-5,78.26-1.51,17.48,1.76,35.44,3.54,53.11,1.3,12.94,3.44,25.82,5.58,38.66,2.56,15.37,5.7,30.64,8.24,46,1.82,11,3.06,22.19,4.56,33.29,1.28-13,4.29-25.71,5.3-38.41,1.54-19.33,6.63-37.57,11.78-56,4-14.34,8.17-28.65,12.3-43,4.93-17.06,9.34-34.29,15-51.09,4.84-14.31,10-28.5,16.67-42.23C210.88,1108,219.25,1086.16,228.42,1064.68ZM64,1616H199.91c-2.16-7.07-4.44-14.1-7.19-20.93-8.81-21.85-17.74-43.6-29-64.51-13.68-25.43-29.93-48.94-47.43-71.57A559.71,559.71,0,0,0,64,1400.56Zm-8,2.34V61.66l-48-48V1666.34Z"/><path d="M810.71,471.91c.49.78,1.57,2,1.36,2.28-2.84,4.19-5.86,8.24-8.84,12.33l-3.08-2.28Z"/><path d="M87.61,608l.19.13Z"/></svg>