<?xml version="1.0" encoding="UTF-8" standalone="no"?><!DOCTYPE svg PUBLIC "-//W3C//DTD SVG 1.1//EN" "http://www.w3.org/Graphics/SVG/1.1/DTD/svg11.dtd"><svg width="100%" height="100%" viewBox="0 0 372 587" version="1.1" xmlns="http://www.w3.org/2000/svg" xmlns:xlink="http://www.w3.org/1999/xlink" xml:space="preserve" xmlns:serif="http://www.serif.com/" style="fill-rule:evenodd;clip-rule:evenodd;stroke-miterlimit:100;"><g><clipPath id="_clip1"><rect x="1.801" y="39.466" width="368.641" height="527.289"/></clipPath><g clip-path="url(#_clip1)"><path d="M143.687,108.275c5.292,-7.275 4.633,-16.54 -1.324,-27.123c-4.629,-13.231 -9.262,-21.172 -14.553,-24.48l-19.848,-14.556l0,3.967c-0.662,3.309 0,7.281 2.646,10.589l-24.48,-0.665l-17.199,3.973l-17.864,0.666l0.663,17.858c3.97,13.231 13.231,24.479 28.447,32.42c-5.292,4.626 -9.924,6.616 -14.553,6.616l5.953,4.626c5.292,2.648 11.246,3.308 16.54,1.99l44.986,-6.616c4.632,-1.99 7.94,-4.633 10.586,-9.265Z" style="fill:#858585;fill-rule:nonzero;"/><path d="M150.302,97.033c0,-5.298 -2.646,-10.589 -5.954,-16.54l-4.632,-11.914c-3.309,-7.274 -6.616,-11.907 -10.586,-13.89l-19.185,-14.557l-1.984,-0.666l-1.986,1.331l-1.321,5.95l1.983,6.616c-9.262,-1.324 -16.54,-1.324 -21.831,0l-7.94,1.984l-27.126,2.65l-1.321,1.983l-0.662,6.617c0,7.281 1.983,13.896 5.292,21.171c3.97,9.265 11.91,17.199 22.496,23.156c-3.97,3.308 -7.278,3.967 -10.586,3.967c-0.662,0.659 -1.324,1.324 -1.987,1.99l0,0.659l0.663,1.983l6.616,5.291l18.526,1.325l44.986,-6.616l0.663,0c7.937,-3.308 12.569,-8.599 14.553,-15.874l1.323,-6.616Zm-5.953,0l-0.662,5.285c-1.324,5.298 -5.292,9.264 -10.586,11.914l-45.649,6.616c-5.953,1.983 -10.586,1.318 -15.877,-1.325l10.586,-6.616l0.659,-1.983l-1.321,-2.649c-18.527,-9.924 -28.45,-23.814 -28.45,-41.013l0.662,-3.974l24.48,-2.642l7.937,-1.99l23.818,0.659l2.646,-1.318l0.662,-1.325l0,-1.324c-1.983,-1.984 -2.646,-4.626 -3.308,-8.6l16.539,12.566c4.633,2.649 9.262,10.589 13.232,22.497l0,1.324c3.307,4.633 4.632,9.925 4.632,13.898Z" style="fill-rule:nonzero;"/><path d="M62.972,73.212c-0.659,1.324 0,1.983 0.663,3.308l23.155,9.924c17.864,5.292 33.079,7.94 47.636,6.616l1.983,-1.983c0,-1.324 -0.662,-1.99 -2.646,-1.99c-13.894,1.332 -29.109,-1.318 -45.648,-7.274l-22.493,-9.265l-2.65,0.664Z" style="fill-rule:nonzero;"/><path d="M129.13,89.752c-7.937,6.616 -19.848,13.231 -37.708,17.205c-1.325,0.66 -1.325,1.318 -1.325,2.643l2.646,1.325c18.526,-4.633 31.096,-10.583 39.036,-17.864c1.321,-1.324 1.321,-1.983 0,-3.308c-0.662,-0.667 -1.987,-0.667 -2.649,-0.001Z" style="fill-rule:nonzero;"/><path d="M84.806,67.262c-1.325,0.659 -1.986,1.318 -1.325,2.643c5.954,11.907 9.924,17.864 13.232,19.182l2.646,-1.318c0,-1.324 0,-2.648 -1.321,-2.648c-3.308,-0.659 -6.616,-6.616 -11.249,-17.199c-0.662,-1.325 -1.321,-1.325 -1.983,-0.66Z" style="fill-rule:nonzero;"/><path d="M103.33,86.444l-26.464,7.94c-0.662,0 -1.321,0.659 -0.662,1.984l1.986,1.983l26.463,-7.275l1.321,-3.308c0.001,-1.324 -1.32,-1.324 -2.644,-1.324Z" style="fill-rule:nonzero;"/><path d="M106.637,67.921l17.202,24.473l2.645,0.666l0.663,-3.308l-17.202,-24.48l-0.663,2.649l-2.645,0Z" style="fill-rule:nonzero;"/><path d="M294.525,87.768l-13.231,-11.248c-9.923,-6.616 -18.522,-9.923 -25.138,-9.258c-6.616,0.659 -13.231,4.626 -20.51,12.566l-9.264,11.248l3.309,7.934c9.925,-6.616 23.817,-10.583 41.68,-11.242c8.604,-0.659 16.539,-0.659 23.154,0Z" style="fill:#858585;fill-rule:nonzero;"/><path d="M293.868,91.076l2.646,-1.99l-0.662,-2.642l-13.895,-11.907c-9.924,-7.94 -19.186,-11.249 -25.801,-9.924c-6.616,0.659 -14.557,5.292 -22.494,13.231l-9.924,11.908l0,1.983l3.309,7.94l1.982,1.325l1.986,0c9.924,-5.957 23.155,-9.923 40.354,-11.248l22.499,1.324Zm-63.514,3.967l-0.662,-3.967c2.646,-3.967 5.955,-7.94 9.925,-11.248c6.616,-5.951 11.907,-9.259 17.202,-9.924c7.937,-1.325 17.859,3.973 29.771,14.556c-22.494,-0.658 -41.02,2.649 -56.236,10.583Z" style="fill-rule:nonzero;"/><path d="M206.537,165.833l24.479,18.523c0.659,-9.924 -1.324,-18.523 -5.955,-27.122c-1.984,-4.633 -9.924,-13.232 -23.814,-28.454l-5.958,7.281l1.987,11.907c2.645,9.267 5.29,14.558 9.261,17.865Z" style="fill:#858585;fill-rule:nonzero;"/><path d="M203.229,127.463l-1.981,-1.324c-1.325,0 -1.325,0 -1.987,1.324l-5.953,6.616l-0.662,1.983l2.646,13.232c1.987,9.258 5.295,15.215 9.267,18.523l25.139,19.188l2.646,0l1.323,-1.99c0.663,-10.583 -1.323,-20.506 -6.615,-29.105l-23.823,-28.447Zm-5.291,8.6l3.31,-3.308l1.981,1.324c11.25,12.573 17.864,20.506 19.849,23.814c3.308,6.616 5.292,13.231 5.292,21.172l-20.508,-15.215c-4.633,-3.308 -7.941,-13.231 -9.924,-27.787Z" style="fill-rule:nonzero;"/><path d="M159.564,147.311l5.954,11.907c3.308,4.633 4.632,9.259 4.632,13.232c-0.662,8.6 -3.308,24.479 -8.599,46.311c-6.616,28.447 -13.894,50.943 -21.834,66.158l13.894,3.308l13.894,-37.712c9.262,-29.112 15.878,-54.91 17.861,-76.741c2.647,-9.265 5.957,-15.881 8.603,-19.848l7.938,-7.94c3.308,-3.308 4.632,-8.6 5.294,-15.215c1.32,-8.605 -1.325,-15.221 -8.602,-19.847c-8.602,-5.298 -21.17,-5.957 -37.709,-2.649l-1.324,17.198c-0.665,11.914 -1.323,19.189 -0.002,21.838Z" style="fill:#858585;fill-rule:nonzero;"/><path d="M160.227,106.291c-0.663,0 -1.325,0.666 -1.325,1.984l-1.983,18.529c-0.662,11.242 -0.662,18.517 0,21.166c0,2.649 1.983,5.957 5.292,9.924c3.97,6.616 5.294,11.249 5.294,14.556c-0.662,7.94 -3.97,23.821 -8.603,46.311c-6.616,28.447 -13.231,49.618 -21.168,64.834l0,2.648l1.984,1.318l13.231,3.974c1.324,0 2.646,0 3.308,-1.984l13.894,-38.376c9.924,-29.105 15.876,-55.569 17.203,-76.741l2.646,-7.274c2.646,-5.958 4.633,-9.265 6.616,-11.249l3.308,-3.974c5.953,-5.285 9.263,-12.566 9.925,-20.506c1.324,-8.599 -0.662,-15.215 -6.617,-19.848c-8.602,-8.6 -23.158,-9.924 -43.005,-5.292Zm1.982,41.02l-0.659,-6.616l1.983,-29.771c16.54,-3.308 29.107,-1.99 36.387,3.967c3.309,3.308 5.292,7.94 5.292,13.232l0,2.648c-1.321,6.616 -3.967,13.232 -8.601,17.199l-3.971,4.632c-3.308,3.974 -6.615,11.249 -9.923,20.513c-1.983,20.506 -7.278,43.662 -15.877,70.125l-14.557,41.679l-8.599,-1.983c7.278,-15.222 14.556,-37.046 20.51,-65.5c5.292,-21.831 7.938,-37.046 8.599,-44.986l0,-1.325c0,-3.966 -2.646,-9.264 -6.616,-15.215l-3.968,-8.599Z" style="fill-rule:nonzero;"/><path d="M220.432,56.672c-0.662,-1.983 -3.971,-3.308 -7.279,-3.973l-12.568,0.665l-12.568,-3.308l-12.573,0c-3.967,1.983 -6.616,7.281 -7.938,15.215l0,12.573l3.308,12.573c2.646,8.592 5.954,13.231 9.924,13.89c3.97,1.318 9.924,-1.324 17.861,-6.616l16.539,-13.231c3.971,-1.99 6.615,-6.616 7.278,-13.232c0.66,-6.615 0.66,-11.248 -1.984,-14.556Z" style="fill:#d96038;fill-rule:nonzero;"/><path d="M225.061,71.229c1.323,-6.616 0.662,-12.573 -1.983,-15.88c-1.324,-2.649 -3.97,-3.967 -7.278,-5.292l-10.585,0l-4.63,0l-9.261,-1.983l-17.204,0c-4.632,1.983 -7.277,7.275 -8.602,15.88l-0.659,13.891l3.967,15.215c2.649,7.94 6.616,13.231 11.249,13.897c5.954,1.318 14.556,-3.308 27.125,-13.897l9.262,-6.616c4.631,-1.984 7.276,-7.94 8.599,-15.215Zm-6.618,-13.232c1.324,1.983 1.986,6.616 1.324,11.907c-0.66,6.616 -3.308,10.589 -5.953,12.566l-21.834,15.881c-5.291,2.648 -8.6,4.632 -10.583,3.308c-1.987,-0.659 -4.632,-3.308 -7.278,-8.599c-1.324,-5.292 -3.308,-9.924 -3.97,-15.215l0,-4.632c0,-11.907 1.984,-18.523 6.616,-20.513l13.231,0.665l10.586,1.984l5.291,0c7.279,-0.66 11.25,-0.001 12.57,2.648Z" style="fill-rule:nonzero;"/><path d="M143.687,97.692l-10.586,3.967c-6.616,3.308 -11.245,5.958 -13.232,7.94c-1.321,3.308 -0.662,7.94 1.325,15.215c1.983,7.275 5.291,11.249 8.599,11.249c1.987,0.666 6.616,-1.983 14.556,-7.94c9.262,-5.957 18.523,-10.583 26.463,-13.232c-11.248,-13.232 -20.51,-18.523 -27.125,-17.199Z" style="fill:#d96038;fill-rule:nonzero;"/><path d="M161.551,102.318c-7.278,-5.951 -13.231,-8.593 -18.526,-7.935c-14.553,5.957 -23.156,10.583 -25.139,13.891c-1.324,2.649 -1.324,5.957 -1.324,10.583l3.308,10.589c3.308,5.95 6.616,9.258 9.924,9.924c2.646,0 6.616,-1.984 13.894,-6.616c9.924,-7.941 19.186,-12.566 27.788,-15.215l1.983,-1.99l-0.663,-2.643l-11.245,-10.588Zm-17.202,-2.643c5.292,-0.666 12.569,3.974 21.831,14.557c-9.262,2.648 -17.202,7.274 -25.139,13.891c-5.954,3.967 -9.924,5.957 -11.249,5.957l-5.292,-6.616c-1.324,-4.632 -2.646,-9.265 -2.646,-13.231l0.659,-2.649l8.603,-5.957l13.233,-5.952Z" style="fill-rule:nonzero;"/><path d="M177.428,101.659c3.309,-13.231 1.983,-22.496 -3.308,-27.122l-10.585,-11.249c-4.633,-3.973 -7.94,-5.291 -10.586,-5.291c-2.646,0.659 -5.954,3.308 -11.907,8.6l-13.231,9.258c-6.616,2.649 -7.941,10.589 -3.309,22.497c1.983,5.957 13.232,10.583 34.4,12.573l18.526,-9.266Z" style="fill:#d96038;fill-rule:nonzero;"/><path d="M143.024,67.921c5.295,-3.967 8.603,-6.616 10.586,-6.616c2.646,-1.325 6.616,1.983 13.232,9.923l5.953,5.292c2.646,1.984 3.97,6.616 3.97,13.232l-1.324,10.589l-16.54,7.934l-19.847,-3.967c-7.937,-1.989 -11.245,-4.632 -12.57,-6.616c-1.321,-4.632 -1.983,-7.94 -1.983,-11.248c-3.308,3.974 -4.632,7.94 -3.308,13.231c1.983,4.632 7.937,7.941 18.523,10.589l19.185,3.308l1.325,0l18.523,-9.265l1.324,-1.324c2.646,-15.874 1.324,-25.798 -3.308,-29.771l-5.954,-5.951c-7.94,-9.265 -14.556,-12.572 -18.526,-11.254c-2.646,0.665 -6.616,3.308 -12.569,8.605l-12.57,8.6c-5.954,1.983 -5.954,6.616 -2.646,13.231c0,-4.632 1.983,-6.616 4.629,-8.6l13.895,-9.922Z" style="fill-rule:nonzero;"/><path d="M190.66,114.891l6.615,13.232c4.629,9.264 7.938,14.556 9.924,14.556l15.877,-0.666c7.277,-1.318 11.908,-4.626 13.232,-7.934c1.982,-3.967 0.662,-9.924 -3.31,-17.864c-3.97,-6.616 -7.938,-11.248 -11.248,-13.231c-1.983,-0.665 -8.601,1.324 -17.86,5.292l-13.23,6.615Z" style="fill:#d96038;fill-rule:nonzero;"/><path d="M188.674,116.215c7.277,17.864 13.23,27.788 17.863,29.106l16.539,-0.659c8.6,-1.984 13.895,-5.292 15.878,-9.924c1.985,-3.967 0.662,-10.583 -3.97,-19.188c-4.631,-7.934 -8.602,-12.566 -11.908,-14.55c-4.633,-2.648 -16.539,1.984 -33.079,11.907c-1.323,0.665 -1.983,1.325 -1.323,3.308Zm31.758,-10.589c2.646,1.331 5.952,5.298 9.924,11.914c3.308,6.616 5.291,11.907 3.308,15.215c-0.662,3.308 -4.632,4.632 -11.247,6.616l-13.895,0.666c-2.646,-0.666 -7.274,-8.606 -14.554,-23.821c15.216,-8.6 23.817,-11.908 26.464,-10.59Z" style="fill-rule:nonzero;"/><path d="M201.904,93.06l0,21.172l17.203,0.659l15.877,-3.967c2.647,-1.325 3.97,-4.633 3.97,-7.94l-2.646,-13.897c-0.662,-5.284 -3.31,-8.593 -6.617,-9.923l-15.215,0.666c-5.295,0.665 -8.604,3.308 -11.248,7.94l-1.324,5.29Z" style="fill:#d96038;fill-rule:nonzero;"/><path d="M230.354,76.52c-3.971,-1.325 -9.262,-1.325 -16.539,0c-5.295,1.324 -9.262,3.973 -11.91,7.94c-1.983,2.649 -2.646,5.292 -2.646,8.599l0,21.172l1.324,1.983l18.524,1.325c7.938,0 13.893,-1.325 17.201,-3.967c3.308,-2.648 5.291,-5.956 5.291,-9.923l-1.983,-13.897l0,-1.325c-1.324,-6.615 -4.632,-9.923 -9.262,-11.907Zm-25.799,35.063l-0.662,-18.523l1.981,-5.292c1.325,-2.648 4.633,-4.632 9.263,-5.957l13.895,0c2.646,1.324 3.97,3.308 4.632,7.94l2.646,13.231c0,3.308 -0.662,4.633 -3.309,6.616l-13.23,3.308l-15.216,-1.323Z" style="fill-rule:nonzero;"/><path d="M74.22,236.625l5.954,18.523l-26.463,-1.983c-19.848,0 -37.049,2.649 -51.602,8.599l7.278,11.249c5.292,8.6 9.261,17.199 11.245,25.139c5.954,20.513 17.202,35.063 34.403,43.668l-6.616,4.627l-15.218,-0.659l13.894,15.216c13.894,9.258 29.771,11.906 48.297,7.939c9.262,-3.31 17.199,-9.266 24.477,-17.199c15.218,-15.88 19.848,-33.744 14.557,-54.258c0,-6.615 -1.987,-14.549 -7.278,-22.489c-10.587,-17.206 -27.789,-29.773 -52.928,-38.372Z" style="fill:#858585;fill-rule:nonzero;"/><path d="M71.574,233.976c0,0 -0.662,1.324 -0.662,2.648l5.292,14.55l-31.755,-1.318c-17.202,0.659 -31.096,3.308 -43.665,8.6l-1.983,1.983l0,1.324l0.663,1.984l7.274,10.583c5.294,8.606 8.603,17.206 10.586,24.486c5.954,19.183 16.54,33.738 32.417,43.662l-15.216,0l-3.971,1.318c-1.321,0.664 -1.321,1.989 0,3.973l15.219,15.875c14.553,9.265 31.092,11.912 50.278,8.604c7.278,-3.308 15.218,-7.938 22.497,-14.556c14.553,-13.232 21.169,-28.447 21.169,-44.986l-1.984,-15.223c0,-7.935 -2.646,-15.874 -7.94,-25.132c-10.586,-17.205 -28.447,-30.437 -54.91,-39.036c-0.663,-0.657 -1.987,0.002 -3.309,0.661Zm-47.635,63.508c-3.308,-11.9 -8.599,-23.155 -16.54,-34.396c13.232,-4.633 29.771,-6.617 48.298,-6.617l24.477,1.984l2.646,-1.324l0.662,-1.984l0,-0.665l-3.308,-12.566c20.51,8.599 35.725,19.847 44.327,35.063c4.629,7.94 6.616,14.557 6.616,20.507l0,0.664l1.983,14.558c0,15.215 -5.954,28.446 -18.523,39.694l-20.509,13.23c-22.494,4.627 -39.033,-0.658 -52.265,-14.555c6.616,0.664 11.907,-1.984 15.215,-7.281l1.324,-1.979l0,-0.666l-1.987,-2.643c-15.876,-7.279 -26.462,-21.176 -32.416,-41.024Z" style="fill-rule:nonzero;"/><path d="M10.045,266.396c-0.659,1.318 0,1.983 0.663,2.649l44.327,22.49c31.755,18.523 52.927,37.052 62.851,56.898c1.321,1.318 1.983,1.979 3.308,0.659c0.662,-0.659 1.321,-1.323 0,-2.647c-10.586,-19.848 -31.758,-39.036 -62.851,-58.218l-45.648,-23.156c-1.987,-0.665 -2.65,0 -2.65,1.325Z" style="fill-rule:nonzero;"/><path d="M43.787,263.747c-0.663,1.324 -0.663,1.99 0,2.649l4.632,6.616l11.907,21.165c0,0.666 1.325,0.666 2.646,0.666c0.663,0 0.663,-1.324 0.663,-2.642l-11.907,-20.514l-4.632,-7.94l-3.309,0Z" style="fill-rule:nonzero;"/><path d="M18.647,298.15c0,0.666 0.663,1.324 1.984,1.982c16.54,1.99 33.079,1.99 49.619,0.659c1.324,-0.659 1.987,-1.978 1.324,-2.644c0,-1.981 0,-1.981 -1.324,-1.981c-16.54,1.981 -33.079,1.981 -49.619,0c-0.662,-0.657 -1.321,0.002 -1.984,1.984Z" style="fill-rule:nonzero;"/><path d="M96.713,316.674l-13.232,-46.311c-0.662,-1.318 -1.983,-1.984 -3.308,-1.318c-0.662,0.659 -1.321,1.318 -0.662,2.643l13.231,45.645l1.987,1.331l1.984,-1.99Z" style="fill-rule:nonzero;"/><path d="M46.433,319.323l1.986,1.981l50.94,1.325l1.325,-1.325l-1.983,-2.643l-50.281,-1.331c-1.325,0.002 -1.987,0.668 -1.987,1.993Z" style="fill-rule:nonzero;"/><path d="M104.654,268.379c-1.324,0 -1.324,1.325 -1.324,1.984l5.953,23.156c3.97,17.863 5.294,32.42 5.957,44.327c0,1.324 0.659,2.644 1.983,2.644l1.983,-2.644c0,-11.906 -2.646,-27.129 -5.954,-44.986l-5.954,-23.155c-0.661,-1.326 -1.323,-1.991 -2.644,-1.326Z" style="fill-rule:nonzero;"/><path d="M70.25,342.479l-1.983,1.982l37.049,0.666l1.983,-1.33l-1.983,-2.645l-35.728,-0.664c0.662,0 1.325,0.664 0.662,1.991Z" style="fill-rule:nonzero;"/><path d="M172.795,456.932l-25.139,-23.155c-18.526,-15.874 -33.08,-25.14 -42.341,-27.13l-16.54,10.59c-11.248,9.924 -17.202,19.848 -19.188,31.096c-1.321,9.924 -1.321,21.166 0.662,32.421c0.663,10.583 0.663,18.517 0,23.155c7.94,-5.956 13.231,-12.572 13.894,-20.514l0.662,11.248c0.662,9.925 3.308,17.857 6.616,25.14c6.616,11.248 8.599,21.831 7.937,31.755l20.51,-15.88c15.218,-13.232 24.48,-28.441 29.771,-44.321l2.646,7.934l3.308,11.256c3.97,-3.31 7.278,-7.947 11.249,-13.897c6.616,-12.57 8.599,-25.802 5.953,-39.698Z" style="fill:#858585;fill-rule:nonzero;"/><path d="M174.782,454.288l-25.804,-23.821c-19.186,-15.873 -33.08,-24.479 -42.341,-27.128l-2.646,0l-17.864,11.255c-11.245,9.923 -17.861,21.824 -19.848,33.737c-1.321,11.242 -1.321,21.832 0.662,34.396c0.663,8.606 0.663,15.882 0,19.849l1.325,3.974c1.321,0.665 1.983,0.665 3.308,0l9.924,-9.924c1.321,9.258 3.308,17.205 6.616,24.479c5.292,9.925 8.599,19.188 8.599,28.446l-0.662,1.325l0,0.659l1.987,2.647l3.308,0c5.954,-3.308 12.57,-8.604 19.848,-13.891c13.232,-12.572 22.493,-25.804 28.447,-39.694l2.646,9.925c0,1.977 0.663,1.977 1.325,2.642l3.308,-0.665c5.292,-3.309 9.262,-8.593 12.57,-15.209c7.278,-12.573 9.262,-26.463 5.954,-41.025l-0.662,-1.977Zm-5.294,3.967l0.662,11.242c0,13.23 -3.97,23.821 -13.232,34.41l-4.632,-13.897c-1.321,-1.324 -1.983,-1.981 -3.308,-1.981c-1.984,0 -2.646,1.316 -2.646,2.647c-6.616,20.507 -20.51,39.694 -43.666,54.903c0,-9.259 -3.308,-18.518 -7.937,-27.781c-4.632,-8.605 -7.278,-18.529 -7.278,-29.771l0,-4.634c0,-2.643 -0.662,-3.308 -2.646,-3.308c-1.986,-0.666 -3.308,0 -3.97,2.642c-0.662,3.975 -2.646,7.947 -6.616,13.231l0,-1.317l-2.646,-31.096l1.322,-13.896c1.324,-9.924 6.616,-19.184 15.218,-27.781l17.202,-11.914c14.554,3.974 35.726,20.513 64.173,48.301Z" style="fill-rule:nonzero;"/><path d="M123.177,443.698l-7.278,26.465c-5.291,20.513 -7.937,40.36 -8.599,58.876c0,1.331 0.662,1.99 1.983,2.649l1.987,-1.983c0,-18.522 3.308,-38.37 7.937,-58.877l7.278,-26.464c0.663,-0.666 0,-1.989 -0.662,-2.648c-1.322,0 -2.646,0 -2.646,1.982Z" style="fill-rule:nonzero;"/><path d="M125.164,515.808l-10.586,-21.823c-1.324,-0.665 -1.986,-1.331 -3.308,-0.665c-0.662,0.665 -1.324,1.323 -0.662,3.308l3.97,6.615l6.616,13.896c0.662,0.659 1.983,1.318 3.308,0.659c1.321,0 1.982,-0.659 0.662,-1.99Z" style="fill-rule:nonzero;"/><path d="M94.73,481.41c-1.324,1.317 -1.324,1.983 0,2.648c1.983,0.658 2.646,0.658 3.308,-0.665l6.616,-8.6c5.292,-5.957 9.923,-9.265 15.215,-10.582l1.325,-1.99l-0.662,-1.318l-1.325,-0.664c-5.954,1.322 -11.245,4.632 -17.861,11.247l-6.616,9.924Z" style="fill-rule:nonzero;"/><path d="M127.147,451.64c-1.324,0 -1.324,1.318 -1.324,1.983l9.924,34.404c0.662,1.316 1.324,1.981 2.648,1.316c1.322,0 1.322,-1.316 1.322,-2.643l-9.924,-33.744c-0.001,-1.316 -1.322,-1.976 -2.646,-1.316Z" style="fill-rule:nonzero;"/><path d="M106.637,434.44c-10.586,5.949 -18.523,15.209 -23.156,28.44c0,0.665 0,1.331 1.325,1.989c1.321,0.659 1.983,0 2.646,-1.324l5.292,-9.924c3.97,-6.616 9.924,-12.566 15.218,-15.215l1.321,-2.649c-1.322,-1.317 -1.984,-1.317 -2.646,-1.317Z" style="fill-rule:nonzero;"/><path d="M274.68,434.44l-16.539,-4.64l-47.634,19.849c-4.633,18.528 -5.294,37.053 -1.985,55.574c1.324,9.267 3.97,16.54 5.957,21.838l7.938,-11.255l3.309,-3.308l3.969,9.265c3.971,7.274 7.94,13.893 12.57,18.529c6.615,7.275 20.51,15.209 43.002,23.155c-0.662,-4.639 1.325,-11.254 5.953,-19.849c4.633,-11.255 7.94,-19.188 9.267,-23.819c1.982,-7.281 1.982,-16.54 0,-28.446l-3.309,-14.557c3.967,3.974 9.261,7.28 18.522,9.924l-4.632,-13.897c-1.984,-6.614 -5.954,-13.891 -11.245,-21.165c-4.635,-6.615 -13.233,-12.571 -25.143,-17.198Z" style="fill:#858585;fill-rule:nonzero;"/><path d="M258.802,426.493l-2.646,0.666l-46.313,19.183l-2.646,1.989c-4.634,19.189 -5.294,38.371 -1.986,57.553c1.324,8.606 3.308,16.54 6.616,23.155l2.648,1.331l2.646,-1.331l7.938,-10.582c4.631,9.924 9.265,17.863 14.556,23.814c6.616,7.945 21.831,15.881 44.327,24.484l2.646,0l1.982,-3.308l0,-1.33c0,-4.627 1.986,-11.242 6.615,-19.848c4.634,-9.26 7.278,-16.54 8.604,-21.825l1.321,-12.572c0,-7.274 -0.662,-14.556 -2.646,-23.156c3.309,1.984 6.615,3.311 12.569,5.292l3.308,-0.665l0.662,-3.309l-2.646,-7.274c-3.309,-10.583 -7.278,-19.848 -13.895,-28.445c-4.633,-7.94 -13.895,-13.897 -26.463,-18.523l-17.197,-5.299Zm-48.956,56.902c0,-10.59 1.324,-21.172 3.307,-31.755l44.988,-18.529c19.846,4.639 33.077,11.255 39.693,20.514c5.295,7.939 9.266,17.205 11.911,27.129l0.662,0.658l-10.586,-7.273c-0.663,-1.332 -1.987,-1.332 -3.972,-0.666c-1.324,0.666 -1.981,1.324 -1.981,3.309l0.657,0.666l1.988,9.924l1.981,20.506l-1.32,11.241c-1.325,4.64 -3.971,11.255 -7.94,19.849c-3.971,7.946 -6.615,15.221 -6.615,19.849c-19.848,-7.936 -33.079,-15.21 -38.371,-21.166c-3.971,-3.968 -7.277,-10.583 -11.248,-17.199l-3.971,-9.265l-2.646,-1.99l-3.308,0.666l-7.278,10.589c-3.968,-11.92 -5.951,-24.492 -5.951,-37.057Z" style="fill-rule:nonzero;"/><path d="M233.662,447.007l12.57,13.896c8.599,11.9 13.894,21.824 16.539,31.749l4.631,24.485c1.984,11.9 4.631,21.825 7.275,30.432c0.662,1.317 1.325,1.317 2.649,1.317c1.983,0 1.983,-1.317 1.321,-2.644c-3.31,-8.6 -5.955,-18.522 -7.278,-29.771l-5.291,-25.139c-2.646,-9.925 -7.94,-20.507 -16.54,-31.762l-12.568,-15.209c-0.662,-0.666 -1.986,-0.666 -3.31,0c-0.66,0.662 -0.66,1.981 0.002,2.646Z" style="fill-rule:nonzero;"/><path d="M262.771,534.997l6.615,-25.806c0.662,-1.978 0,-2.643 -0.662,-3.309c-1.322,0 -2.646,0 -2.646,1.331l-7.278,27.123c0,1.318 0.662,2.648 1.324,2.648l2.647,-1.987Z" style="fill-rule:nonzero;"/><path d="M266.08,504.566l7.939,5.957c5.291,5.283 9.924,9.923 11.906,13.891l3.309,0.659l0.662,-2.649c-2.646,-4.626 -7.277,-9.924 -13.23,-14.55l-8.604,-6.615l-2.646,0c-0.661,1.317 -0.661,2.648 0.664,3.307Z" style="fill-rule:nonzero;"/><path d="M246.232,518.457l13.23,-41.679c0.662,-0.665 0,-1.983 -0.662,-2.643c-1.322,-0.666 -2.646,-0.666 -2.646,1.317l-13.23,41.685c-0.662,1.978 0,2.644 0.661,3.309l2.647,-1.989Z" style="fill-rule:nonzero;"/><path d="M252.186,467.521c0,0.658 0,1.978 1.324,2.644l11.907,4.632c8.603,3.967 15.877,8.6 21.173,13.232c1.32,1.981 1.982,1.981 2.646,0c0.662,-0.659 0.662,-1.325 0,-1.991c-5.954,-5.949 -13.231,-10.582 -22.493,-15.208l-11.911,-4.639c-1.322,-0.002 -1.982,-0.002 -2.646,1.33Z" style="fill-rule:nonzero;"/><path d="M242.262,454.288l-5.291,12.566c-3.971,9.259 -5.953,17.204 -7.277,23.82c0,1.317 0,2.644 1.982,2.644c0.663,0 1.324,0 1.986,-1.983c1.322,-6.617 3.309,-14.557 6.615,-23.814l5.293,-11.255l-0.663,-2.643c-1.321,-0.665 -1.982,0 -2.645,0.665Z" style="fill-rule:nonzero;"/><path d="M340.178,306.091l-37.049,9.265c-5.295,1.978 -11.248,5.951 -18.525,12.566l-9.263,9.26l7.278,64.18c13.23,7.935 27.788,12.566 44.327,15.21l21.169,0.665l-6.615,-8.6l31.757,-9.924l-1.323,-70.126c-8.601,-3.308 -17.863,-5.297 -27.787,-7.28l-13.231,-0.666c3.306,-3.309 6.613,-7.934 9.262,-14.55Z" style="fill:#858585;fill-rule:nonzero;"/><path d="M338.854,302.783l-36.387,9.924c-5.953,1.982 -12.568,5.956 -19.848,12.572l-9.924,9.258c-0.662,0.666 -0.662,1.324 -0.662,2.645l7.277,64.18l1.982,2.644c13.232,7.94 27.788,13.231 44.328,15.874l22.493,0.666l2.646,-1.982l0.663,-1.326l-0.663,-1.981l-4.629,-4.633l27.784,-8.601l2.648,-3.308l-1.323,-70.791l-1.984,-2.644c-11.91,-3.973 -23.816,-7.28 -35.728,-7.946l5.294,-9.923l0,-1.318l-0.661,-1.99l-3.306,-1.32Zm-11.249,17.858l0,0.666l2.648,2.643l11.907,0.665l26.463,6.616l1.324,65.492l-29.771,8.606c-1.323,0 -1.985,1.317 -1.985,1.981l0,1.326l0.662,1.982l2.646,3.309c-21.169,0 -39.696,-5.291 -55.573,-14.558l-7.277,-61.524c9.262,-9.925 17.201,-16.541 25.802,-19.184l29.771,-7.281l-5.292,6.616l-1.325,2.645Z" style="fill-rule:nonzero;"/><path d="M290.561,364.311c-1.324,0 -1.324,0.664 -1.324,2.642c0,1.332 1.324,1.332 2.646,1.332l31.758,-5.958l57.557,-1.323l1.986,-1.983c0.658,-1.324 0,-1.99 -1.324,-1.99l-57.56,1.33l-33.739,5.95Z" style="fill-rule:nonzero;"/><path d="M360.685,335.861c-7.938,1.984 -15.215,5.957 -22.492,11.908l-9.263,9.924c-0.661,1.324 -0.661,2.643 0,3.309l3.309,-0.666l8.6,-9.258c6.616,-5.951 13.896,-9.926 21.173,-11.249l1.323,-2.647c-0.002,-1.321 -1.325,-1.979 -2.65,-1.321Z" style="fill-rule:nonzero;"/><path d="M364.655,384.156l-37.709,-25.139c-1.324,-1.324 -1.324,-1.324 -2.648,0c-1.321,1.317 -0.659,1.983 0.662,2.647l12.569,9.925c9.265,7.273 17.863,12.564 25.804,15.874c0.659,0.665 1.984,0 1.984,-0.666l-0.662,-2.641Z" style="fill-rule:nonzero;"/><path d="M326.284,333.214c-5.294,2.647 -13.231,8.604 -23.155,17.864l-13.23,13.23c-0.662,0.666 -0.662,1.323 0,2.643c1.319,0.666 2.646,0.666 3.308,0l12.569,-12.565c9.262,-9.259 16.539,-15.216 22.493,-17.204l0.661,-2.645c0,-1.323 -1.325,-1.982 -2.646,-1.323Z" style="fill-rule:nonzero;"/><path d="M306.438,382.173l28.446,15.216l1.986,-1.982c0.659,-0.659 0.659,-1.325 -1.324,-1.99l-26.464,-14.55c-0.662,-1.324 -1.982,-0.659 -3.308,0.659c0,1.324 0,1.324 0.664,2.647Z" style="fill-rule:nonzero;"/><path d="M276.004,273.012l1.982,-6.616c-2.646,0.659 -5.953,1.983 -9.262,3.967l-3.971,3.308c1.325,-5.292 1.325,-15.215 -0.658,-27.781l-3.309,-17.205c-3.971,3.308 -12.572,7.94 -25.805,13.231c-12.568,5.95 -22.494,11.907 -28.446,18.523c-7.278,7.94 -12.569,17.864 -15.216,31.762c-1.324,6.615 -1.986,12.564 -1.986,18.516l51.605,17.205c9.262,-3.309 17.199,-8.599 23.154,-16.54c5.292,-7.28 7.938,-14.556 8.6,-21.831c0.003,-5.298 1.328,-10.583 3.312,-16.539Z" style="fill:#858585;fill-rule:nonzero;"/><path d="M278.648,274.996l1.986,-6.617l-0.662,-3.308l-2.646,-1.983c-2.649,0.659 -5.957,1.983 -8.603,3.966l0,-3.966l-2.646,-23.156l-2.646,-12.573l-1.324,-1.983l-3.309,0c-3.971,3.308 -11.244,7.94 -21.831,11.907c-15.219,6.616 -26.464,13.891 -33.079,21.172c-7.277,7.281 -13.23,17.864 -15.878,32.414c-1.323,7.281 -1.985,13.896 -1.985,19.848c0,1.331 0.662,1.99 1.985,2.649l51.603,17.862l2.646,0c9.924,-3.308 18.526,-9.924 24.48,-19.182c5.953,-7.281 8.599,-14.563 9.262,-22.497l2.647,-14.553Zm-17.201,-1.984l0,0.659l1.324,3.308l3.309,-0.659l6.615,-3.967l-3.309,16.54c-0.662,6.616 -3.308,12.566 -7.277,19.182c-5.953,7.28 -12.569,13.231 -21.832,16.539l-47.635,-16.539c0.662,-20.513 6.615,-35.722 15.877,-44.986c6.616,-6.617 17.203,-13.232 31.097,-19.848l19.186,-9.923c1.986,12.573 3.308,21.831 3.308,29.771l-0.663,9.923Z" style="fill-rule:nonzero;"/><path d="M251.523,246.548l-8.6,15.881c-5.953,12.566 -9.925,23.814 -11.249,34.397c-0.659,1.324 0,1.99 1.324,1.99c1.325,0.658 1.983,0 1.983,-1.332c1.986,-10.583 5.957,-21.166 11.248,-33.737l8.6,-15.215l-0.659,-2.642c-1.32,-0.666 -1.984,-0.666 -2.647,0.658Z" style="fill-rule:nonzero;"/><path d="M227.047,261.763c-0.663,0.666 -1.986,0 -1.986,-0.665l8.603,25.145l2.646,1.984l1.983,-3.308l-9.924,-25.139l-1.322,1.983Z" style="fill-rule:nonzero;"/><path d="M199.259,303.441l-5.952,12.572c13.23,13.231 29.771,21.166 46.973,23.155l22.492,-1.323c3.31,-13.897 3.31,-22.49 1.983,-25.14c-7.937,-13.231 -14.553,-21.172 -19.185,-23.814c-4.631,-1.99 -9.262,-3.308 -15.217,-3.974c-7.277,-1.324 -13.23,0 -17.201,1.984c-3.968,1.992 -9.259,7.942 -13.893,16.54Z" style="fill:#d96038;fill-rule:nonzero;"/><path d="M197.275,300.793c-2.646,5.298 -4.633,9.924 -6.615,13.896c-0.663,1.324 -0.663,2.643 0.662,3.309c14.552,13.23 30.43,21.172 48.294,23.82l24.479,-1.33l1.983,-1.979c2.646,-14.563 3.308,-23.82 0.662,-27.129l-3.308,-4.633c-7.279,-11.906 -13.232,-18.522 -16.541,-20.506c-4.633,-1.99 -10.586,-3.308 -16.539,-3.967c-7.278,-0.665 -13.895,0 -18.525,2.643c-4.628,1.986 -9.261,7.284 -14.552,15.876Zm16.539,-11.9l16.539,-1.331c5.293,0.666 9.924,1.989 14.554,3.974c1.985,1.324 7.278,7.28 14.557,17.864l3.308,5.291l0,3.308l-1.982,17.864c-7.939,1.982 -15.219,1.318 -24.479,-0.659c-14.558,-2.647 -27.789,-9.265 -39.695,-19.849c6.613,-14.562 12.568,-23.82 17.198,-26.462Z" style="fill-rule:nonzero;"/><path d="M124.501,301.459c-3.97,3.309 -6.616,7.281 -8.603,11.248c-2.646,7.275 -2.646,15.215 1.325,25.139c15.215,3.973 34.404,2.644 56.896,-5.949c11.908,-3.975 21.832,-7.947 29.771,-13.232c-5.953,-17.204 -11.91,-27.128 -17.201,-30.436c-3.97,-2.643 -13.231,-3.974 -25.801,-4.632c-13.231,0 -21.834,2.648 -25.142,6.616l-11.245,11.246Z" style="fill:#d96038;fill-rule:nonzero;"/><path d="M133.763,288.227l-8.599,9.257c-5.957,4.64 -9.924,9.925 -11.911,13.896c-3.308,7.941 -2.646,16.54 1.324,27.788l1.984,1.317c15.877,3.974 34.404,1.99 57.559,-5.95c11.907,-3.308 22.493,-8.599 31.754,-13.231c0.663,-0.664 1.325,-1.981 0.663,-3.308c-6.616,-18.522 -12.569,-29.105 -17.863,-31.755c-5.292,-3.308 -14.554,-4.632 -27.786,-4.632c-13.894,0.002 -23.155,1.986 -27.125,6.618Zm-15.878,25.796c1.983,-3.308 5.292,-7.934 10.586,-12.564l9.262,-9.924c3.308,-3.308 11.245,-5.292 23.818,-5.292c11.907,0.66 19.847,1.984 24.477,4.626c3.309,1.332 7.94,10.59 14.557,26.463c-9.261,5.299 -20.509,10.59 -32.417,13.896c-19.188,6.617 -35.728,7.281 -48.96,3.975c-1.321,-4.641 -2.646,-9.924 -2.646,-13.23l1.323,-7.95Z" style="fill-rule:nonzero;"/><path d="M102.008,334.537c-11.911,5.292 -18.527,11.249 -21.834,19.184l-8.6,19.848c-3.97,7.281 -5.294,13.23 -5.294,16.539c0,3.974 0.662,7.281 3.308,11.254c1.986,2.644 5.294,6.617 10.586,10.584l27.788,16.54l13.232,-1.991c9.262,-4.625 15.215,-12.564 19.185,-25.133c3.308,-11.254 2.646,-26.463 -1.324,-44.332l-7.937,-23.814c-6.617,-5.294 -16.541,-4.629 -29.11,1.321Z" style="fill:#d96038;fill-rule:nonzero;"/><path d="M143.024,402.021c3.97,-11.914 3.308,-27.123 -1.321,-44.992c-2.649,-12.567 -5.295,-21.166 -8.603,-25.133l0,-0.666c-6.616,-4.633 -14.553,-5.291 -23.818,-2.644c-6.616,2.644 -13.231,5.95 -19.185,9.925c-6.616,5.285 -10.586,9.258 -11.907,13.891l-5.954,12.572c-5.957,12.566 -8.603,20.506 -8.603,25.133c0,4.64 1.324,8.605 3.308,11.914c2.646,3.967 6.616,7.934 11.911,11.906l27.785,16.539l1.324,0.666l13.894,-3.308c10.583,-3.972 17.862,-12.571 21.169,-25.803Zm-32.417,-68.148l18.523,0.664c7.278,19.184 10.586,35.723 10.586,49.619c0,6.615 0,11.906 -1.984,16.539c-4.632,16.539 -14.556,25.14 -29.771,25.14l-25.801,-15.881l-10.586,-9.925c-1.324,-2.641 -2.646,-5.949 -2.646,-9.924c0,-3.967 2.646,-11.24 7.937,-22.488l5.954,-13.231c1.324,-3.308 4.632,-7.28 9.923,-11.247c5.296,-4.628 11.912,-7.278 17.865,-9.266Z" style="fill-rule:nonzero;"/><path d="M201.904,447.672c-1.983,-13.896 -13.891,-23.82 -35.063,-31.102c-17.202,-5.95 -32.417,-7.934 -44.328,-5.95c-8.599,0.665 -16.54,3.974 -24.477,9.924c-7.94,5.949 -11.249,11.248 -11.249,16.539c0,3.974 2.646,7.94 6.616,11.248l13.231,8.601l9.261,9.924c1.987,2.643 6.616,4.632 11.911,5.949l31.092,5.298c14.557,1.984 23.818,1.984 27.789,0c6.62,-1.99 11.911,-11.914 15.217,-30.431Z" style="fill:#d96038;fill-rule:nonzero;"/><path d="M204.555,447.672c-1.988,-14.563 -14.558,-25.804 -35.729,-33.744c-18.523,-5.949 -33.738,-7.939 -46.97,-6.615c-8.603,1.324 -17.202,4.633 -25.142,11.248c-8.599,5.956 -13.232,11.906 -12.569,18.522c0.662,3.974 1.983,7.281 5.292,10.589l15.88,11.901l5.954,6.616c4.629,4.639 9.924,7.28 15.877,9.265l29.771,4.633c15.877,2.643 26.464,2.643 31.096,0.665c7.274,-2.649 11.907,-13.23 16.541,-32.421l0,-0.659l-0.001,0Zm-18.528,28.441c-3.309,0.665 -12.569,0.665 -25.801,-0.659l-31.755,-5.291c-5.294,-0.666 -9.265,-3.309 -12.573,-7.281l-7.274,-7.935l-15.218,-10.583c-2.646,-1.989 -3.308,-4.639 -3.97,-7.281c0,-4.632 3.308,-9.258 10.586,-14.556c6.616,-5.293 14.556,-8.601 22.493,-9.266c11.911,-1.978 26.463,0 43.665,5.299c19.847,6.614 31.095,16.538 33.079,29.11c-3.971,17.201 -8.599,26.467 -13.232,28.443Z" style="fill-rule:nonzero;"/><path d="M264.755,405.329l-31.093,-1.99c-6.615,0 -12.569,4.64 -19.848,14.563c-5.953,8.592 -9.924,15.874 -11.248,23.813c-1.983,6.615 -2.646,12.572 -1.983,16.539c1.321,4.627 3.31,8.601 8.601,11.242c3.969,2.648 13.894,3.974 28.449,4.64l25.803,-2.649c2.646,-1.323 5.953,-6.615 11.244,-16.539l7.277,-17.864c0.662,-3.308 -1.982,-9.258 -7.938,-18.521l-9.264,-13.234Z" style="fill:#d96038;fill-rule:nonzero;"/><path d="M266.742,404.004l-1.325,-0.665l-32.417,-2.644c-6.616,0 -13.23,5.951 -20.51,15.875c-6.616,7.945 -10.586,16.539 -12.569,24.485c-1.983,6.615 -2.646,12.566 -1.983,16.539c0.66,5.951 3.969,10.583 9.263,13.892c5.291,2.649 15.216,5.292 29.771,5.292l27.784,-2.643c3.308,-1.332 7.278,-7.282 11.911,-17.871l7.938,-19.183c1.322,-3.972 -4.63,-15.213 -17.863,-33.077Zm-63.513,54.251c-0.662,-3.967 0,-8.604 1.326,-15.88c1.982,-7.275 5.291,-15.216 11.906,-23.154c6.615,-8.601 12.568,-13.232 17.201,-13.892l29.771,2.647c10.586,14.551 15.877,23.814 15.877,27.781l0,0.659l-7.277,17.87c-4.631,9.259 -7.278,13.891 -9.924,15.209l-24.478,1.989c-14.557,-0.658 -23.155,-1.989 -27.788,-4.632c-3.306,-1.981 -5.95,-5.289 -6.614,-8.597Z" style="fill-rule:nonzero;"/><path d="M235.646,373.566c3.97,17.205 10.586,30.438 19.848,39.694c7.277,6.616 15.877,10.59 23.816,10.59c6.615,0 12.569,-1.982 16.539,-6.616l11.908,-13.23c4.632,-5.949 7.939,-9.924 8.603,-13.896c1.321,-3.309 0.661,-7.274 -0.662,-10.582l-6.616,-8.601l-7.939,-23.155c-3.967,-6.615 -11.244,-12.565 -21.83,-17.863l-23.155,-1.318l-13.231,3.309c-9.265,8.59 -11.909,21.823 -7.281,41.668Z" style="fill:#d96038;fill-rule:nonzero;"/><path d="M242.262,329.904l-1.32,0.658c-5.957,5.299 -9.924,13.897 -10.586,25.807c0,10.582 2.646,21.837 7.277,33.736c4.629,10.59 9.924,19.188 15.877,24.487c9.262,8.592 18.523,12.565 28.447,11.899c5.953,0 11.248,-2.643 15.877,-7.273l5.295,-6.615c9.924,-10.584 15.215,-17.857 15.877,-21.832c1.984,-5.291 0,-10.588 -4.632,-17.205l-2.646,-3.967c-1.32,-1.982 -2.646,-5.291 -3.309,-9.265l-5.291,-13.892c-3.971,-7.274 -11.91,-13.891 -23.154,-18.522l-23.817,-1.983l-13.895,3.967Zm0.663,58.226c-4.633,-10.589 -6.616,-21.179 -6.616,-31.103l0,-0.658c0,-9.924 3.309,-17.199 7.939,-21.832l13.893,-3.309l19.846,0.666l13.231,8.594c3.31,1.988 5.296,4.639 7.94,8.604l7.94,23.155l6.615,9.924c1.321,2.648 1.321,5.292 0.659,7.273c-1.321,3.969 -5.954,10.584 -15.216,19.189l-5.953,6.616c-2.646,3.308 -7.278,5.291 -11.911,5.956c-7.936,0 -15.877,-3.309 -24.477,-10.589c-4.629,-4.63 -9.92,-12.561 -13.89,-22.486Z" style="fill-rule:nonzero;"/><path d="M173.458,323.29c-7.278,-5.292 -16.54,-7.274 -27.788,-4.627c-9.262,1.978 -16.54,5.285 -21.169,9.924c-4.632,5.286 -9.261,11.901 -13.231,21.825c-5.294,10.59 -7.94,18.529 -6.616,25.145c0.662,5.293 3.308,11.242 7.937,15.217l6.616,5.949l22.497,-3.308c15.877,-4.626 27.785,-11.899 33.079,-21.824c5.292,-9.925 7.275,-20.513 4.629,-33.08l-5.954,-15.221Z" style="fill:#d96038;fill-rule:nonzero;"/><path d="M175.441,321.973l-1.322,-0.666c-7.277,-5.951 -17.202,-7.281 -28.45,-5.291c-10.583,1.982 -17.86,5.291 -23.155,10.582c-4.629,4.633 -9.262,12.572 -14.553,22.496c-4.632,11.242 -6.616,19.848 -5.953,27.122c1.321,9.925 6.616,17.864 15.877,22.497l1.321,0l23.818,-3.308c17.202,-4.634 27.788,-11.914 33.741,-21.839c5.954,-10.582 7.278,-22.488 5.292,-35.057l-6.616,-16.536Zm-2.646,48.952c-5.292,8.601 -15.215,14.556 -29.771,19.183l-23.156,3.974c-7.278,-4.633 -11.907,-10.589 -13.231,-19.183l0,-1.989c0,-5.957 2.646,-13.892 7.278,-23.813c3.97,-7.941 8.599,-14.558 12.569,-18.531c3.971,-4.625 9.924,-7.933 19.186,-9.258c10.586,-2.643 18.526,-0.664 25.142,3.975c4.629,8.594 6.616,16.539 6.616,25.133c0,7.277 -1.324,13.895 -4.633,20.509Z" style="fill-rule:nonzero;"/><path d="M148.319,440.391c3.966,1.325 9.923,0 18.523,-5.291l7.277,-31.096l-10.585,-14.557c-8.599,-9.264 -16.54,-13.891 -23.817,-13.891l-13.232,5.957c-9.261,4.625 -15.215,8.592 -16.539,11.9c-1.984,2.648 -1.984,7.281 -1.984,11.914l3.308,9.924c1.321,1.982 6.616,5.956 16.54,12.572l20.509,12.568Z" style="fill:#d96038;fill-rule:nonzero;"/><path d="M176.766,402.68l-11.907,-15.215c-8.603,-9.924 -17.864,-14.557 -25.804,-13.896l-15.215,6.615c-9.262,3.974 -13.894,7.946 -15.878,11.256c-1.986,3.967 -3.308,8.592 -1.986,14.549c0.662,4.633 1.324,7.939 3.308,11.248c0.663,1.324 7.278,6.615 17.864,13.23l19.847,11.908c5.292,1.989 11.907,0.659 20.51,-4.627l1.321,-1.33l7.94,-31.748l0,-1.99Zm-4.632,1.324l-7.938,29.771c-7.278,3.973 -11.911,5.292 -14.556,3.973l-19.848,-11.255c-9.924,-6.615 -15.215,-10.581 -16.54,-12.565c-1.983,-3.974 -2.646,-8.599 -2.646,-12.566c0,-2.647 0.662,-4.639 1.983,-7.28c1.986,-3.308 10.586,-8.601 27.126,-15.874c9.263,-0.002 19.849,8.591 32.419,25.796Z" style="fill-rule:nonzero;"/><path d="M205.874,395.404c-10.586,0.658 -21.168,4.625 -32.416,11.242c-5.954,3.308 -9.924,6.614 -13.894,9.266l-0.663,10.581c-0.659,7.282 0,11.915 0.663,14.563c1.324,5.95 11.248,9.924 29.771,13.231c3.972,1.317 13.231,-1.33 27.126,-7.281l23.155,-12.565c2.646,-2.648 3.309,-7.281 3.309,-13.896l0,-9.924l-9.925,-7.941c-7.939,-5.291 -17.202,-7.276 -27.126,-7.276Z" style="fill:#d96038;fill-rule:nonzero;"/><path d="M205.874,393.415c-10.586,0.665 -21.83,3.974 -33.079,10.589c-6.616,3.309 -11.907,6.616 -15.215,9.924l-0.663,1.325l-0.662,11.906c-0.662,6.616 0,11.908 0.662,14.557c2.646,6.615 13.232,11.907 32.417,15.216c3.971,1.323 13.895,-1.324 27.788,-7.281c13.894,-5.951 22.493,-9.924 25.14,-13.231c3.309,-4.626 4.631,-12.566 3.309,-25.798l-0.663,-1.982l-9.923,-7.94c-9.262,-5.954 -18.524,-7.944 -29.111,-7.285Zm-15.877,58.225l-17.863,-4.633c-5.954,-2.643 -9.262,-4.632 -9.924,-6.616l-1.321,-8.599l1.321,-14.558c14.556,-11.905 29.113,-18.521 43.665,-19.182c8.604,0 16.541,1.977 23.818,5.95c3.97,1.983 7.939,4.634 10.586,7.94l0,5.291c0,7.939 -0.662,13.23 -1.986,15.874c-2.646,1.989 -9.924,5.958 -22.494,11.255c-13.895,5.953 -22.492,8.596 -25.802,7.278Z" style="fill-rule:nonzero;"/><path d="M250.202,353.061l-8.603,3.31l-5.291,12.571c-3.31,11.242 -4.634,21.832 -3.31,31.756c3.31,17.205 12.569,23.819 28.446,20.513c3.309,-0.665 6.615,-4.64 9.925,-11.914l5.295,-17.856c2.646,-10.59 3.97,-18.529 3.308,-23.82c0,-3.975 -0.662,-7.281 -3.308,-9.924l-10.586,-5.293l-15.876,0.657Z" style="fill:#d96038;fill-rule:nonzero;"/><path d="M238.954,355.051c-1.983,2.643 -3.97,7.934 -5.954,13.891c-3.309,11.242 -3.309,21.832 -1.982,31.756c1.321,9.924 5.291,17.205 11.244,20.513c4.633,3.967 11.248,4.626 19.848,2.643c3.972,-0.666 7.94,-5.95 11.25,-13.23c3.308,-6.616 5.291,-13.231 5.953,-19.183l3.308,-23.82c0,-5.292 -0.662,-8.6 -3.97,-11.248c-1.983,-1.982 -5.955,-3.969 -11.246,-5.957c-7.277,-3.309 -15.881,-1.979 -27.787,3.975l-0.664,0.66Zm-2.645,44.978l-0.662,-9.258c0,-7.28 0.662,-15.215 3.309,-22.488c1.324,-3.975 2.646,-7.281 3.971,-9.926c10.586,-3.973 17.863,-5.957 22.492,-3.973c4.633,2.643 7.941,4.633 9.924,5.95c1.325,1.33 2.646,3.974 2.646,7.281l-3.967,23.821c-0.662,5.283 -1.986,10.582 -4.633,16.539c-3.308,6.615 -6.615,9.924 -9.262,10.582c-5.954,1.983 -11.248,1.317 -15.219,-1.324c-4.631,-3.305 -7.937,-9.254 -8.599,-17.204Z" style="fill-rule:nonzero;"/><path d="M170.15,313.366c-3.308,1.989 -5.954,4.632 -7.278,6.616c-1.984,2.647 -2.646,6.615 -2.646,11.246c0,7.281 1.324,13.897 3.308,19.85c7.94,4.632 20.51,9.924 39.694,13.896c19.848,4.625 32.418,3.967 36.388,-0.666c4.632,-5.291 7.276,-11.908 9.262,-19.849c0.662,-6.614 0.662,-11.905 -0.662,-15.874c-1.983,-2.648 -6.616,-6.615 -14.554,-10.589c-7.278,-3.974 -14.555,-6.616 -20.51,-8.599l-23.155,-1.325c-9.923,1.326 -16.539,3.31 -19.847,5.294Z" style="fill:#d96038;fill-rule:nonzero;"/><path d="M169.488,311.382c-4.629,2.644 -7.278,5.292 -8.6,7.281c-1.987,3.31 -3.308,7.274 -3.308,12.565c0,7.94 1.983,14.558 3.97,20.514l0.659,1.318c7.94,5.297 21.172,10.582 40.357,14.557l39.694,-1.984c4.632,-5.297 7.278,-11.912 9.263,-20.506c1.324,-7.281 1.324,-13.896 -1.321,-17.205c-1.324,-3.974 -7.277,-7.939 -15.218,-12.566c-7.938,-3.974 -15.217,-7.28 -21.832,-8.605l-23.817,-0.658c-9.924,1.316 -16.54,2.647 -19.847,5.289Zm20.509,0l22.493,0.666c6.617,1.978 13.232,3.968 20.51,8.593c6.616,3.973 11.248,7.281 12.57,9.924c1.322,2.649 1.322,7.281 0.662,13.896c-1.325,7.281 -3.972,13.232 -7.94,17.864c-3.308,4.626 -15.216,4.626 -33.737,0c-17.865,-3.308 -31.097,-7.939 -38.375,-13.231c-1.983,-5.955 -2.646,-11.912 -3.308,-17.863c0,-3.975 0.662,-7.281 2.646,-9.924l6.616,-5.951c3.307,-1.99 8.602,-3.308 17.863,-3.974Z" style="fill-rule:nonzero;"/><path d="M223.738,400.695l7.277,-15.215c3.969,-10.582 1.983,-18.529 -3.97,-24.479c-7.278,-6.616 -17.202,-10.59 -28.448,-12.567c-11.908,-1.33 -21.833,0 -28.449,5.285c-11.249,7.282 -18.523,12.572 -21.172,17.205c-5.954,7.281 -5.954,15.215 1.324,23.155c6.616,7.28 15.215,13.231 25.139,15.874l13.232,1.331l35.067,-10.589Z" style="fill:#d96038;fill-rule:nonzero;"/><path d="M224.4,403.339l1.322,-1.317c3.969,-4.633 6.615,-10.582 7.938,-16.541c3.31,-11.246 1.983,-20.506 -4.632,-26.463c-8.6,-7.274 -18.523,-11.248 -30.434,-13.23c-11.908,-1.325 -22.494,0 -29.771,5.292l-1.983,0.664l-15.877,11.901c-5.295,4.64 -7.94,10.59 -8.603,15.222c-1.321,5.29 0.662,11.241 5.957,16.54c7.274,8.599 15.215,13.89 25.8,16.539l14.554,1.982l1.323,0l34.406,-10.589Zm0.661,-40.355c3.309,2.647 4.633,7.274 4.633,11.914c0,7.273 -2.646,15.207 -7.94,23.154l-33.078,10.584c-15.216,0 -26.464,-5.299 -36.388,-16.539c-3.966,-4.634 -5.292,-8.606 -5.292,-12.574c0.663,-3.967 3.308,-8.6 8.6,-12.572l15.881,-11.9c7.275,-3.973 15.877,-5.957 27.124,-3.973c10.583,1.322 19.842,5.949 26.46,11.906Z" style="fill-rule:nonzero;"/><path d="M191.98,355.051c-1.32,0 -1.983,0.659 -1.983,2.643l0.663,44.328c0,1.317 1.32,1.982 2.646,1.982l1.981,-1.982l-1.32,-44.328l-1.987,-2.643Z" style="fill-rule:nonzero;"/><path d="M209.846,357.693c-1.324,0 -1.984,0.664 -1.984,1.982l0.66,39.694c0,1.325 0.662,1.989 1.985,1.989l1.983,-1.989l-0.661,-39.694l-1.983,-1.982Z" style="fill-rule:nonzero;"/><path d="M174.12,358.357c-0.662,0 -1.324,0.66 -1.324,1.979l0.663,39.693c0,1.332 0,1.99 1.983,1.99l1.324,-1.99l0,-39.693l-2.646,-1.979Z" style="fill-rule:nonzero;"/><path d="M146.333,343.797c-3.308,1.989 -6.616,8.604 -11.907,20.514c-4.633,13.23 -6.616,23.154 -4.633,28.445c1.325,5.299 6.616,8.605 14.556,9.924l11.907,0.659c-1.321,-6.616 -0.662,-13.231 0.662,-19.848c3.97,-13.231 13.232,-21.825 29.109,-23.155c-5.954,-9.258 -11.908,-15.209 -18.523,-16.539c-10.586,-2.645 -17.202,-2.645 -21.171,0Z" style="fill:#d96038;fill-rule:nonzero;"/><path d="M188.014,361.002l0,-2.645c-5.957,-9.265 -12.572,-15.221 -19.847,-17.205c-11.249,-3.307 -18.526,-2.643 -23.818,0c-3.308,2.645 -6.616,9.926 -11.91,22.49c-5.292,13.897 -6.616,23.821 -5.292,29.771c1.983,6.615 7.278,9.924 15.877,11.255l13.231,0.659l1.325,-0.659l1.321,-1.989c-0.659,-2.649 -1.321,-5.957 -0.659,-9.925c0.659,-7.274 2.646,-13.891 5.954,-18.522c5.292,-6.615 12.569,-9.924 21.832,-11.907l1.986,-1.323Zm-40.357,-15.216l19.186,0.659c5.292,1.324 9.923,5.297 14.556,11.912c-9.264,2.645 -17.202,6.617 -21.171,12.566c-4.633,6.616 -7.278,14.557 -7.278,25.139l0,4.633c-11.907,0 -19.186,-3.307 -20.51,-9.258c-1.983,-4.64 0,-13.896 5.294,-26.463c3.969,-10.588 7.936,-17.204 9.923,-19.188Z" style="fill-rule:nonzero;"/><path d="M193.307,401.361l-31.756,-11.256l-8.603,0.666c-2.646,1.326 -3.308,4.633 -3.97,9.924c-0.659,5.951 0,9.925 1.324,13.231l10.586,9.924c5.292,3.309 9.262,5.95 12.57,6.615l14.556,-2.642c7.274,-1.332 12.569,-4.641 15.215,-9.266c3.31,-3.967 3.31,-7.274 0,-11.248c-1.983,-1.323 -5.291,-3.305 -9.922,-5.948Z" style="fill:#d96038;fill-rule:nonzero;"/><path d="M193.968,398.713l-21.834,-7.939c-9.924,-3.975 -17.199,-5.293 -21.169,-2.644c-2.646,1.978 -3.971,5.95 -4.632,12.565c-0.663,5.951 0,10.59 1.324,13.897c1.983,3.308 5.954,7.274 11.907,11.899c5.954,3.974 10.586,5.958 13.894,6.616l15.216,-2.644c7.939,-1.981 13.893,-5.291 17.2,-9.923c2.646,-3.31 3.31,-5.95 2.646,-9.259c-1.321,-3.968 -5.954,-7.942 -14.552,-12.568Zm-43.003,2.648c0.662,-4.639 1.983,-7.281 3.308,-8.605c2.646,-1.316 7.278,-0.658 15.877,2.648l0.662,0.658l21.168,7.94c7.277,3.308 10.586,6.616 11.248,8.601l-1.324,4.631c-3.307,3.975 -7.938,6.616 -14.553,7.94l-13.895,1.983c-2.646,0 -5.954,-1.983 -11.249,-5.95l-9.261,-9.265c-1.981,-1.988 -1.981,-5.296 -1.981,-10.581Z" style="fill-rule:nonzero;"/><path d="M224.4,370.26c1.322,3.309 0.66,7.281 -1.324,11.256c-2.646,7.273 -10.586,15.207 -23.155,23.154c12.569,5.284 25.14,5.95 36.388,1.977c8.6,-2.643 15.877,-7.934 20.51,-14.549c3.309,-3.968 3.309,-10.582 0,-19.188c-3.309,-8.599 -6.615,-13.892 -10.586,-15.216c-3.308,-1.982 -7.277,-1.982 -12.569,0c-3.97,1.324 -7.278,3.31 -8.603,5.291c-1.323,1.326 -1.323,3.966 -0.661,7.275Z" style="fill:#d96038;fill-rule:nonzero;"/><path d="M255.494,364.311c-2.646,-5.293 -5.954,-7.94 -8.602,-9.26c-3.969,-1.33 -7.938,-1.33 -13.894,0c-4.632,1.979 -7.938,3.309 -9.924,5.951c-1.324,1.982 -1.983,4.631 -1.324,7.939c0.663,4.625 0.663,8.6 -1.321,11.906c-1.986,6.616 -9.924,13.897 -22.492,21.832c-1.324,0.658 -1.324,1.323 -1.324,1.989c0,1.317 0.662,2.642 1.984,2.642c15.217,6.616 29.771,6.616 43.002,0c7.277,-3.308 13.23,-7.281 17.863,-13.23c2.646,-3.309 3.309,-8.6 1.982,-15.874c-1.318,-4.64 -2.642,-9.265 -5.95,-13.895Zm-29.11,0l8.601,-3.975c3.971,-1.979 7.277,-1.979 9.924,0c1.324,0.666 3.971,2.648 5.957,6.615c2.646,3.974 4.63,7.947 5.292,12.572c0.661,5.299 0.661,9.266 -0.662,11.248c-3.31,3.975 -8.601,7.94 -15.216,10.59c-10.586,5.949 -22.493,5.949 -34.404,2.643c10.587,-8.6 17.202,-15.215 19.85,-21.831l1.985,-7.938l-1.325,-8.602l-0.002,-1.322Z" style="fill-rule:nonzero;"/><path d="M230.354,348.436c0,-4.639 -0.662,-7.947 -2.646,-9.925l-9.924,-5.956c-5.295,-1.99 -9.265,-3.309 -11.911,-3.309c-5.291,0 -10.586,1.982 -17.2,5.291l-7.276,2.645c-2.648,0.664 -5.294,1.988 -7.94,3.973c-3.308,2.644 -3.97,9.925 -3.308,22.49l8.6,-2.643l17.864,-1.325c8.6,0.659 17.201,2.648 27.125,7.274c4.63,-6.615 5.953,-12.565 6.616,-18.515Z" style="fill:#d96038;fill-rule:nonzero;"/><path d="M223.076,368.941c0.662,1.317 1.984,1.317 3.308,-0.658c3.972,-7.281 6.616,-13.896 6.616,-20.514c0,-5.293 -0.661,-8.601 -3.309,-10.59l-10.584,-6.617l-13.233,-3.965c-5.291,0 -11.906,1.988 -18.522,5.957l-5.293,1.981c-4.629,0.666 -7.938,2.644 -9.923,3.974c-1.984,2.643 -3.967,6.616 -4.63,13.231l-0.662,11.901c0,0.666 0.662,1.33 1.324,1.988l1.983,0l9.261,-1.988l17.202,-1.318c8.599,0.002 16.538,2.652 26.462,6.618Zm-6.615,-33.738l9.262,5.285l1.986,7.281c0,3.973 -1.325,9.924 -5.294,15.873c-9.263,-3.967 -17.202,-5.949 -25.802,-6.615l-24.479,3.309c0,-9.258 1.324,-15.209 3.97,-17.857c0.662,-1.324 3.308,-1.989 7.278,-3.309l6.615,-1.988c5.954,-3.309 10.586,-5.285 15.877,-5.285c1.987,-0.001 5.955,0.658 10.587,3.306Z" style="fill-rule:nonzero;"/><path d="M172.134,125.473c9.923,-1.318 17.863,-3.308 24.479,-5.95c7.939,-3.973 11.906,-8.599 13.23,-13.897c0.662,-5.951 0.662,-10.583 -0.662,-14.55c-1.982,-3.967 -3.309,-5.957 -5.953,-5.957c-1.982,0.659 -4.631,2.648 -9.262,5.957c-3.971,3.308 -6.615,5.292 -8.603,5.292c-5.954,0.666 -11.907,-1.984 -17.861,-7.94c-2.646,-2.649 -5.294,-3.308 -7.94,-1.983c-3.308,0.666 -5.954,4.632 -7.278,9.924c-1.983,5.951 0,12.566 6.616,19.847c5.296,6.615 9.925,9.923 13.234,9.257Z" style="fill:#d96038;fill-rule:nonzero;"/><path d="M202.566,83.136c-2.646,0 -5.953,1.325 -9.262,5.292l-8.6,5.298c-4.632,0.659 -9.924,-1.99 -15.218,-7.281c-3.308,-3.308 -6.616,-4.632 -9.924,-3.308c-3.97,1.325 -7.278,5.292 -9.924,13.232c-2.646,6.616 0,13.231 6.616,21.172c5.954,7.274 11.248,11.242 15.878,10.583c24.479,-3.309 37.711,-10.583 40.355,-21.832c1.326,-9.923 0.662,-16.539 -3.969,-21.171c-1.981,-1.985 -3.305,-2.651 -5.952,-1.985Zm0.663,4.632c0,0 0.664,0 1.984,0.659c1.324,2.649 1.986,5.957 1.986,10.583l-0.662,5.957c0,4.632 -3.971,7.94 -9.924,11.248c-6.616,3.308 -14.556,5.292 -24.479,6.616l-5.292,-1.983l-6.616,-6.616c-5.954,-6.616 -7.278,-12.573 -5.954,-16.54c1.983,-5.957 4.629,-9.265 6.616,-9.924l5.292,1.984c6.616,6.616 13.231,9.923 19.186,9.258c1.985,-0.659 6.614,-2.642 11.247,-6.616l6.616,-4.626Z" style="fill-rule:nonzero;"/></g></g><rect id="PATH77" x="2.92" y="2.74" width="366.67" height="582.52" style="fill:none;stroke:#000;stroke-width:3px;"/></svg>