<?xml version="1.0" encoding="UTF-8" standalone="no"?><!DOCTYPE svg PUBLIC "-//W3C//DTD SVG 1.1//EN" "http://www.w3.org/Graphics/SVG/1.1/DTD/svg11.dtd"><svg width="100%" height="100%" viewBox="0 0 372 587" version="1.1" xmlns="http://www.w3.org/2000/svg" xmlns:xlink="http://www.w3.org/1999/xlink" xml:space="preserve" xmlns:serif="http://www.serif.com/" style="fill-rule:evenodd;clip-rule:evenodd;stroke-miterlimit:100;"><g><clipPath id="_clip1"><rect x="4.084" y="20.671" width="366.116" height="565.016"/></clipPath><g clip-path="url(#_clip1)"><path d="M238.533,60.212c0,-3.295 -1.319,-5.271 -4.614,-5.271c-3.295,0 -5.271,1.976 -5.271,5.271l1.976,3.295c0.659,1.319 1.976,1.319 3.295,1.319l3.295,-1.319l1.319,-3.295Z" style="fill:#333;fill-rule:nonzero;"/><path d="M216.784,45.056c0,-3.295 -1.978,-5.277 -4.611,-5.277c-3.296,0 -4.614,1.982 -4.614,5.277c0,3.295 1.318,4.608 4.614,4.608c2.636,0 4.611,-1.313 4.611,-4.608Z" style="fill:#333;fill-rule:nonzero;"/><path d="M216.784,83.278c0,-2.632 -1.978,-4.614 -4.611,-4.614c-3.296,0 -4.614,1.982 -4.614,4.614c0,3.295 1.318,5.271 4.614,5.271c2.636,0 4.611,-1.976 4.611,-5.271Z" style="fill:#333;fill-rule:nonzero;"/><path d="M176.583,29.893c0,-3.295 -1.976,-4.608 -5.271,-4.608c-3.295,0 -4.614,1.313 -4.614,4.608c0,3.295 1.319,5.277 4.614,5.277c3.295,0 5.271,-1.982 5.271,-5.277Z" style="fill:#333;fill-rule:nonzero;"/><path d="M117.27,31.875l-1.316,-3.295l-3.295,-1.982c-3.295,0 -4.614,1.982 -4.614,5.277c0,3.295 1.319,4.608 4.614,4.608c3.295,0 4.611,-1.313 4.611,-4.608Z" style="fill:#333;fill-rule:nonzero;"/><path d="M144.951,39.122c0,-2.639 -1.319,-3.952 -4.615,-3.952c-3.295,0 -4.611,1.313 -4.611,3.952c0,3.295 1.316,5.277 4.611,5.277l3.295,-1.326l1.32,-3.951Z" style="fill:#333;fill-rule:nonzero;"/><path d="M98.159,35.17c0,-3.295 -1.976,-4.614 -5.271,-4.614c-2.636,0 -4.615,1.319 -4.615,4.614c0,3.295 1.979,4.608 4.615,4.608l3.955,-1.313l1.316,-3.295Z" style="fill:#333;fill-rule:nonzero;"/><path d="M37.53,32.531c0,-3.295 -1.979,-4.608 -5.274,-4.608c-2.636,0 -3.955,1.313 -3.955,4.608c0,3.295 1.319,4.615 3.955,4.615l3.955,-1.319l1.319,-3.296Z" style="fill:#333;fill-rule:nonzero;"/><path d="M44.777,49.007c0,-3.295 -1.976,-4.608 -5.271,-4.608c-2.636,0 -4.615,1.313 -4.615,4.608c0,3.295 1.979,4.614 4.615,4.614l3.955,-1.319l1.316,-3.295Z" style="fill:#333;fill-rule:nonzero;"/><path d="M37.53,79.32c0,-2.632 -1.979,-4.608 -5.274,-4.608c-2.636,0 -3.955,1.976 -3.955,4.608c0,3.295 1.319,5.277 3.955,5.277l3.955,-1.319l1.319,-3.958Z" style="fill:#333;fill-rule:nonzero;"/><path d="M291.256,48.351c0,-3.295 -1.318,-5.277 -4.613,-5.277c-1.319,0 -2.637,0.663 -3.297,1.982l-1.318,3.295c0,3.295 1.318,4.608 4.615,4.608c3.295,0 4.613,-1.313 4.613,-4.608Z" style="fill:#333;fill-rule:nonzero;"/><path d="M260.939,36.483c0,-3.295 -1.319,-4.608 -4.614,-4.608c-1.315,0 -2.636,0 -3.296,1.313l-1.975,3.295l1.975,3.295c0.66,1.326 1.979,1.982 3.296,1.982c3.295,0 4.614,-1.982 4.614,-5.277Z" style="fill:#333;fill-rule:nonzero;"/><path d="M260.939,56.917c0,-3.295 -1.319,-4.615 -4.614,-4.615c-1.315,0 -2.636,0.657 -3.296,1.319l-1.975,3.295l1.975,3.958c0.66,0.656 1.979,1.313 3.296,1.313c3.295,0.001 4.614,-1.975 4.614,-5.27Z" style="fill:#333;fill-rule:nonzero;"/><path d="M341.999,63.507c0,-3.295 -1.976,-5.271 -5.271,-5.271c-3.295,0 -4.613,1.976 -4.613,5.271c0,3.295 1.318,4.615 4.613,4.615c3.295,0 5.271,-1.32 5.271,-4.615Z" style="fill:#333;fill-rule:nonzero;"/><path d="M335.408,33.851c0,-3.295 -1.977,-5.271 -4.611,-5.271c-1.319,0 -1.979,0.656 -3.295,1.976l-1.319,3.295l1.319,3.295c1.316,1.319 1.976,1.319 3.295,1.319c2.636,0 4.611,-1.319 4.611,-4.614Z" style="fill:#333;fill-rule:nonzero;"/><path d="M320.912,51.646c0,-2.639 -1.319,-4.615 -4.614,-4.615c-3.296,0 -5.271,1.976 -5.271,4.615l1.976,3.952c0.66,1.319 1.978,1.319 3.296,1.319l3.295,-1.319l1.318,-3.952Z" style="fill:#333;fill-rule:nonzero;"/><path d="M297.188,31.875l-0.66,-3.295c-1.319,-0.657 -2.635,-1.319 -3.954,-1.319c-1.316,0 -2.636,0.663 -3.296,1.319l-1.977,3.295l1.977,3.952c0.66,0.656 1.979,1.319 3.296,1.319c1.319,0 2.635,-0.663 3.954,-1.319l0.66,-3.952Z" style="fill:#333;fill-rule:nonzero;"/><path d="M284.006,101.073c0,-3.295 -1.318,-4.614 -3.955,-4.614c-1.318,0 -2.635,0 -3.295,1.319c-1.318,0.656 -1.977,1.976 -1.977,3.295l1.977,3.295c0.66,1.313 1.977,1.976 3.295,1.976c2.637,0 3.955,-1.976 3.955,-5.271Z" style="fill:#333;fill-rule:nonzero;"/><path d="M264.234,83.278l-0.659,-3.295c-1.319,-1.319 -2.636,-1.976 -3.955,-1.976c-2.636,0 -4.61,1.976 -4.61,5.271c0,3.295 1.977,4.614 4.61,4.614l3.955,-1.319l0.659,-3.295Z" style="fill:#333;fill-rule:nonzero;"/><path d="M314.979,78.664c0,-3.295 -1.977,-5.271 -5.271,-5.271c-0.659,0 -1.976,1.319 -3.295,1.976c-0.66,1.319 -1.319,1.982 -1.319,3.295c0,2.639 1.319,4.614 4.614,4.614c3.295,0 5.271,-1.976 5.271,-4.614Z" style="fill:#333;fill-rule:nonzero;"/><path d="M299.162,68.778l-1.316,-3.295l-3.953,-1.313c-2.637,0 -3.955,1.313 -3.955,4.608c0,3.295 1.318,4.615 3.955,4.615c3.295,0 5.269,-1.32 5.269,-4.615Z" style="fill:#333;fill-rule:nonzero;"/><path d="M243.145,93.163c0,-3.295 -1.976,-4.614 -5.271,-4.614c-3.295,0 -4.614,1.319 -4.614,4.614c0,3.295 1.319,4.615 4.614,4.615c3.295,0 5.271,-1.32 5.271,-4.615Z" style="fill:#333;fill-rule:nonzero;"/><path d="M197.014,49.007c0,-3.295 -1.977,-4.608 -5.271,-4.608c-3.294,0 -4.614,1.313 -4.614,4.608l1.319,3.295l3.295,1.319l3.955,-1.319l1.316,-3.295Z" style="fill:#333;fill-rule:nonzero;"/><path d="M240.51,30.556c0,-3.295 -1.977,-5.271 -4.615,-5.271c-3.295,0 -5.271,1.976 -5.271,5.271c0,3.295 1.976,4.614 5.271,4.614c2.638,0 4.615,-1.319 4.615,-4.614Z" style="fill:#333;fill-rule:nonzero;"/><path d="M70.482,30.556l-1.319,-3.295c-0.66,-0.663 -2.636,-1.319 -3.955,-1.319c-2.635,0 -3.955,1.319 -3.955,4.614c0,3.295 1.319,5.271 3.955,5.271l3.955,-1.313l1.319,-3.958Z" style="fill:#333;fill-rule:nonzero;"/><path d="M223.374,108.976l-1.976,-3.295l-3.295,-1.313c-1.319,0 -1.979,0 -3.297,1.313l-1.318,3.295c0,2.639 1.318,4.621 4.615,4.621c3.295,0 5.271,-1.982 5.271,-4.621Z" style="fill:#333;fill-rule:nonzero;"/><path d="M266.211,116.229c-3.295,0 -5.271,1.319 -5.271,4.615c0,3.295 1.978,5.271 5.271,5.271c2.637,0 3.955,-1.976 3.955,-5.271c0,-3.296 -1.318,-4.615 -3.955,-4.615Z" style="fill:#333;fill-rule:nonzero;"/><path d="M250.395,120.187l-0.658,-3.295l-3.955,-1.982c-2.637,0 -4.611,1.982 -4.611,5.277c0,3.295 1.977,4.608 4.611,4.608l3.955,-0.657l0.658,-3.951Z" style="fill:#333;fill-rule:nonzero;"/><path d="M282.688,66.802c0,-3.295 -1.977,-4.615 -5.271,-4.615c-2.636,0 -3.955,1.319 -3.955,4.615c0,3.295 1.319,4.614 3.955,4.614l3.954,-1.319l1.317,-3.295Z" style="fill:#333;fill-rule:nonzero;"/><path d="M347.93,160.385l-1.315,-3.295l-3.955,-1.319c-2.635,0 -3.954,1.319 -3.954,4.614c0,3.295 1.319,5.271 3.954,5.271c3.294,0 5.27,-1.976 5.27,-5.271Z" style="fill:#333;fill-rule:nonzero;"/><path d="M347.93,125.452c0,-3.295 -1.976,-4.608 -5.271,-4.608c-0.659,0 -1.977,0 -3.295,1.313c-0.659,0.663 -1.319,1.982 -1.319,3.295c0,2.639 1.319,4.621 4.614,4.621c3.295,0 5.271,-1.983 5.271,-4.621Z" style="fill:#333;fill-rule:nonzero;"/><path d="M347.93,520.868c0,-2.633 -1.976,-4.608 -5.271,-4.608c-3.295,0 -4.614,1.977 -4.614,4.608l1.319,3.958c1.318,0.662 2.636,1.318 3.295,1.318c3.295,0.002 5.271,-1.981 5.271,-5.276Z" style="fill:#333;fill-rule:nonzero;"/><path d="M331.454,540.639c0,-3.295 -1.978,-5.265 -5.271,-5.265c-0.658,0 -1.976,0.656 -3.295,1.97c-0.659,0.662 -1.318,1.325 -1.318,3.295l1.318,3.295c1.319,1.326 2.637,1.326 3.295,1.326c3.295,0 5.271,-1.326 5.271,-4.621Z" style="fill:#333;fill-rule:nonzero;"/><path d="M344.635,553.819c0,-2.634 -1.977,-4.608 -5.271,-4.608c-3.294,0 -4.614,1.976 -4.614,4.608l1.319,3.958c0.658,0.663 1.976,1.318 3.295,1.318l3.295,-1.318l1.976,-3.958Z" style="fill:#333;fill-rule:nonzero;"/><path d="M326.183,565.03c0,-3.295 -1.976,-5.277 -4.613,-5.277c-1.977,0 -2.637,0.656 -3.295,1.982c-1.316,0.655 -1.977,1.969 -1.977,3.295c0,2.632 1.977,3.951 5.271,3.951c2.638,0 4.614,-1.319 4.614,-3.951Z" style="fill:#333;fill-rule:nonzero;"/><path d="M345.954,495.17c0,-3.296 -1.319,-4.615 -4.615,-4.615c-3.295,0 -5.271,1.319 -5.271,4.615c0,3.295 1.976,4.614 5.271,4.614l3.296,-1.319l1.319,-3.295Z" style="fill:#333;fill-rule:nonzero;"/><path d="M42.142,507.688c0,-3.296 -1.976,-4.608 -5.271,-4.608c-3.295,0 -4.614,1.313 -4.614,4.608c0,3.295 1.319,4.62 4.614,4.62l3.295,-1.325l1.976,-3.295Z" style="fill:#333;fill-rule:nonzero;"/><path d="M65.208,532.079c0,-3.295 -1.976,-5.277 -5.271,-5.277c-2.635,0 -4.614,1.982 -4.614,5.277c0,2.632 1.979,3.951 4.614,3.951c3.295,0 5.271,-1.319 5.271,-3.951Z" style="fill:#333;fill-rule:nonzero;"/><path d="M44.777,542.621l-1.316,-3.296l-3.955,-1.319c-2.636,0 -4.615,1.319 -4.615,4.615c0,3.295 1.979,5.271 4.615,5.271l3.955,-1.318l1.316,-3.953Z" style="fill:#333;fill-rule:nonzero;"/><path d="M81.683,558.44c0,-3.297 -1.316,-4.621 -3.955,-4.621c-3.295,0 -5.271,1.324 -5.271,4.621c0,3.295 1.976,5.264 5.271,5.264c2.639,0 3.955,-1.969 3.955,-5.264Z" style="fill:#333;fill-rule:nonzero;"/><path d="M38.847,561.735l-1.316,-3.295l-3.955,-1.326c-1.319,0 -1.979,0.663 -2.636,1.326c-1.319,1.313 -1.979,1.969 -1.979,3.295l1.979,3.95l2.636,1.315l3.955,-1.313l1.316,-3.952Z" style="fill:#333;fill-rule:nonzero;"/><path d="M59.937,559.097c0,-3.295 -1.319,-4.613 -4.614,-4.613c-0.66,0 -1.976,0.661 -3.295,1.318c-0.66,1.313 -1.316,2.639 -1.316,3.295l1.316,3.951c1.319,0.656 2.636,1.319 3.295,1.319c3.294,0 4.614,-1.975 4.614,-5.27Z" style="fill:#333;fill-rule:nonzero;"/><path d="M34.892,528.121c0,-2.633 -1.976,-4.614 -5.271,-4.614c-3.295,0 -4.614,1.981 -4.614,4.614l1.319,3.958c1.319,0.656 1.976,0.656 3.295,0.656l3.955,-0.656l1.316,-3.958Z" style="fill:#333;fill-rule:nonzero;"/><path d="M67.843,505.718c0,-3.295 -1.976,-4.621 -5.271,-4.621c-2.636,0 -4.615,1.326 -4.615,4.621c0,3.295 1.979,5.266 4.615,5.266l3.955,-1.971l1.316,-3.295Z" style="fill:#333;fill-rule:nonzero;"/><path d="M51.367,279.667l-1.316,-3.295l-3.295,-1.313c-3.295,0 -4.615,1.313 -4.615,4.608c0,3.295 1.319,4.614 4.615,4.614c3.295,0 4.611,-1.32 4.611,-4.614Z" style="fill:#333;fill-rule:nonzero;"/><path d="M38.847,259.239c0,-2.639 -1.976,-4.614 -5.271,-4.614c-3.295,0 -4.615,1.976 -4.615,4.614l1.319,3.952c1.316,1.319 1.976,1.319 3.295,1.319l3.295,-1.319l1.977,-3.952Z" style="fill:#333;fill-rule:nonzero;"/><path d="M42.142,306.684c0,-3.295 -1.976,-5.264 -5.271,-5.264c-3.295,0 -4.614,1.969 -4.614,5.264c0,3.297 1.319,4.621 4.614,4.621c3.295,0 5.271,-1.326 5.271,-4.621Z" style="fill:#333;fill-rule:nonzero;"/><path d="M33.576,287.576c0,-3.295 -1.319,-5.271 -4.615,-5.271c-3.295,0 -4.611,1.976 -4.611,5.271l1.316,3.295c1.319,0.663 2.635,1.319 3.295,1.319c3.295,0 4.615,-1.319 4.615,-4.614Z" style="fill:#333;fill-rule:nonzero;"/><path d="M36.871,345.568c0,-3.295 -1.979,-5.271 -4.614,-5.271c-3.295,0 -5.271,1.978 -5.271,5.271c0,2.64 1.976,4.615 5.271,4.615c2.635,0.001 4.614,-1.975 4.614,-4.615Z" style="fill:#333;fill-rule:nonzero;"/><path d="M61.253,324.484c0,-3.295 -1.976,-4.621 -5.271,-4.621c-2.636,0 -4.615,1.326 -4.615,4.621c0,3.295 1.979,5.266 4.615,5.266c3.295,0 5.271,-1.971 5.271,-5.266Z" style="fill:#333;fill-rule:nonzero;"/><path d="M33.576,232.878l-1.319,-3.295l-3.955,-1.319c-2.635,0 -4.611,1.319 -4.611,4.615c0,3.295 1.976,4.608 4.611,4.608c3.295,-0.001 5.274,-1.314 5.274,-4.609Z" style="fill:#333;fill-rule:nonzero;"/><path d="M52.687,242.764l-1.319,-3.295l-3.295,-1.982c-3.295,0 -4.611,1.982 -4.611,5.277c0,2.639 1.316,3.952 4.611,3.952c3.295,0 4.614,-1.314 4.614,-3.952Z" style="fill:#333;fill-rule:nonzero;"/><path d="M67.187,302.076c0,-3.295 -1.979,-4.614 -4.614,-4.614c-1.319,0 -2.636,0 -3.295,1.319l-1.319,3.295l1.319,3.295c0.66,1.313 1.976,1.977 3.295,1.977c2.635,0 4.614,-1.977 4.614,-5.272Z" style="fill:#333;fill-rule:nonzero;"/><path d="M35.551,205.198c0,-3.295 -1.976,-5.271 -4.611,-5.271c-1.979,0 -2.639,0.657 -3.295,1.976c-1.319,1.319 -1.979,1.976 -1.979,3.295c0,3.295 1.979,4.615 5.274,4.615c2.636,0 4.611,-1.32 4.611,-4.615Z" style="fill:#333;fill-rule:nonzero;"/><path d="M204.923,25.285l-0.659,-3.295c-1.32,-0.657 -2.636,-1.319 -3.955,-1.319c-2.636,0 -4.61,1.319 -4.61,4.614c0,3.295 1.976,5.271 4.61,5.271l3.955,-1.319l0.659,-3.952Z" style="fill:#333;fill-rule:nonzero;"/><path d="M320.912,190.042l-1.319,-3.295c-0.66,-0.656 -2.636,-1.319 -3.295,-1.319c-1.319,0 -2.636,0.663 -3.296,1.319c-1.319,1.313 -1.976,1.976 -1.976,3.295l1.976,3.952c0.66,1.319 1.977,1.319 3.296,1.319l3.295,-1.319l1.319,-3.952Z" style="fill:#333;fill-rule:nonzero;"/><path d="M335.408,139.958c0,-2.639 -1.977,-4.621 -5.271,-4.621c-3.294,0 -4.613,1.982 -4.613,4.621c0,3.295 1.318,4.608 4.613,4.608l3.295,-0.656l1.976,-3.952Z" style="fill:#333;fill-rule:nonzero;"/><path d="M348.589,198.607c0,-3.295 -1.976,-5.271 -5.271,-5.271c-2.637,0 -3.955,1.976 -3.955,5.271c0,2.632 1.318,4.615 3.955,4.615c3.295,0 5.271,-1.982 5.271,-4.615Z" style="fill:#333;fill-rule:nonzero;"/><path d="M332.113,219.041l-1.316,-3.295c-1.319,-0.663 -1.979,-1.982 -3.954,-1.982c-2.636,0 -3.955,1.982 -3.955,5.277c0,2.632 1.319,4.608 3.955,4.608c3.295,0 5.27,-1.976 5.27,-4.608Z" style="fill:#333;fill-rule:nonzero;"/><path d="M347.93,234.854c0,-3.295 -1.976,-5.271 -5.271,-5.271c-0.659,0 -1.977,0.657 -3.295,1.976c-0.659,0.663 -1.319,1.319 -1.319,3.295l1.319,3.295c1.318,1.319 2.636,1.319 3.295,1.319c3.295,0 5.271,-1.319 5.271,-4.614Z" style="fill:#333;fill-rule:nonzero;"/><path d="M336.068,182.132c0,-2.632 -1.319,-4.614 -4.614,-4.614c-2.636,0 -4.611,1.982 -4.611,4.614c0,3.295 1.977,5.271 4.611,5.271l3.954,-1.313l0.66,-3.958Z" style="fill:#333;fill-rule:nonzero;"/><path d="M121.225,588.097l33.611,0.656c-17.795,-59.969 -47.451,-110.059 -89.628,-148.281c-13.181,-11.867 -26.361,-22.409 -40.201,-30.976l-17.132,-9.223c30.313,21.739 57.333,59.313 83.695,112.69c13.179,27.676 23.065,52.067 29.655,75.134Z" style="fill:#858585;fill-rule:nonzero;"/><path d="M9.19,398.291c-1.316,-0.656 -2.636,-0.656 -3.295,1.318c-0.66,0.664 -0.66,2.634 0,3.297c29.656,20.434 57.337,57.992 83.038,111.371c12.521,26.36 22.406,50.753 30.316,73.818c0,1.97 1.316,1.97 1.976,1.97l33.611,1.325l1.976,-1.325l0.66,-1.97c-18.451,-60.639 -48.107,-110.064 -90.285,-148.943c-13.181,-12.519 -27.021,-23.066 -40.861,-31.633l-17.136,-9.228Zm21.09,17.795c21.747,15.157 42.837,33.614 61.289,56.681c26.361,32.288 46.132,69.854 59.313,113.349l-27.677,-1.313c-5.934,-20.434 -15.16,-42.837 -27.021,-68.541c-20.431,-43.495 -42.838,-76.447 -65.904,-100.176Z" style="fill-rule:nonzero;"/><path d="M88.273,360.068l-25.701,9.886c27.68,32.289 50.086,77.765 66.562,137.732c8.566,30.318 14.497,57.344 17.136,81.065l34.267,0c-7.906,-56.674 -25.701,-112.035 -52.722,-166.076c-9.226,-16.476 -18.451,-32.289 -27.677,-46.132l-11.865,-16.475Z" style="fill:#858585;fill-rule:nonzero;"/><path d="M90.252,358.094c-0.66,-0.656 -1.979,-1.318 -2.639,-0.656l-25.701,10.541l-1.976,1.977l0.66,2.633c27.018,30.319 48.768,75.788 65.903,135.101c7.906,30.318 14.497,57.344 17.132,81.065c0,1.976 1.319,2.639 2.639,2.639l34.267,0l1.319,-1.325l1.316,-1.97c-7.906,-56.018 -25.042,-111.379 -52.722,-165.42c-9.226,-16.476 -18.452,-32.289 -27.677,-46.795l-12.521,-17.79Zm-2.638,5.27c13.84,19.106 28.34,42.174 41.521,69.197c25.042,50.091 40.858,101.485 48.108,153.553l-28.997,0c-3.955,-29 -10.545,-57.993 -19.111,-87.649c-16.476,-54.698 -36.906,-96.878 -62.607,-127.191l21.086,-7.91Z" style="fill-rule:nonzero;"/><path d="M51.367,426.635c9.886,-29.656 21.75,-52.064 36.906,-66.564c-6.59,-3.295 -13.18,-3.295 -19.771,-1.977l-16.476,-2.639l-10.545,30.313c-6.59,26.36 -5.931,53.386 0,82.378c1.98,-12.518 5.275,-25.699 9.886,-41.511Z" style="fill:#858585;fill-rule:nonzero;"/><path d="M90.909,359.406l-1.316,-1.971c-7.25,-2.639 -13.84,-3.957 -21.09,-1.98l-16.476,-2.639l-1.976,1.324l-11.204,32.29c-6.59,25.698 -6.59,52.724 0,82.379l3.295,1.319l1.979,-1.982c1.976,-12.518 5.271,-25.697 9.885,-40.854c9.226,-29 21.747,-50.746 36.247,-65.246l0.656,-2.64Zm-21.746,1.326l14.5,0.656c-18.455,19.771 -32.951,50.738 -41.521,90.943c-1.976,-10.549 -2.635,-19.771 -2.635,-27.024c0,-26.359 5.271,-48.764 14.5,-67.215l13.837,2.64l1.319,0Z" style="fill-rule:nonzero;"/><path d="M370.995,402.243c-13.837,6.59 -28.337,18.458 -44.152,37.572c-30.976,38.216 -50.087,87.643 -57.337,149.594l30.316,0c0.659,-21.084 5.271,-44.813 11.859,-70.511c13.182,-52.722 32.954,-91.607 59.314,-116.655Z" style="fill:#858585;fill-rule:nonzero;"/><path d="M266.87,588.753l0,2.639l2.636,0.656l30.316,0c1.318,0 2.635,-0.656 2.635,-1.981c1.319,-21.74 5.274,-45.47 11.864,-71.167c5.931,-22.409 13.181,-42.182 21.747,-59.977c-11.861,16.477 -20.432,36.247 -26.361,58.649c-6.59,24.392 -10.545,47.458 -12.521,69.197l-25.045,0c5.274,-44.807 17.795,-84.348 37.565,-116.643c13.181,-22.409 28.337,-40.861 46.132,-54.704c-7.25,8.572 -12.521,20.434 -15.156,32.951c9.887,-17.789 20.429,-32.289 32.292,-44.808l0.659,-3.295c-1.318,-0.662 -1.979,-0.662 -3.295,-0.662c-14.5,6.59 -30.314,19.771 -45.476,39.542c-31.632,37.568 -50.742,88.308 -57.992,149.603Z" style="fill-rule:nonzero;"/><path d="M270.825,589.409c0.659,-29 5.931,-63.264 15.155,-100.83c18.455,-75.788 50.088,-135.763 94.243,-180.569c-19.771,9.223 -40.86,28.33 -62.606,56.018c-43.497,56.018 -70.518,131.806 -79.743,228.021l32.951,-2.64Z" style="fill:#858585;fill-rule:nonzero;"/><path d="M382.2,307.348c-1.319,-1.977 -1.977,-1.977 -3.295,-1.32c-20.432,9.229 -41.519,28.345 -63.269,57.338c-44.152,56.68 -71.174,133.125 -80.398,228.026l1.316,2.633l1.318,0.662l32.951,-2.639c1.976,0 2.636,-0.656 2.636,-2.639c0.659,-29.656 5.931,-63.264 15.815,-100.83c17.795,-75.788 49.428,-135.101 92.924,-177.938l0.002,-3.293Zm-113.352,279.423l-28.338,1.982c8.565,-74.476 27.021,-138.396 56.678,-189.144c19.771,-33.613 42.177,-59.975 67.219,-78.42c-36.247,42.175 -62.607,96.215 -79.74,162.118c-9.229,36.248 -14.501,70.512 -15.819,103.464Z" style="fill-rule:nonzero;"/><path d="M271.484,215.083c19.771,-52.059 41.518,-88.968 65.242,-112.034c-67.881,44.813 -110.059,139.715 -125.873,284.7c-7.25,71.837 -7.91,139.709 -2.637,202.979l35.588,1.319c-21.089,-146.967 -12.521,-273.495 27.68,-376.964Z" style="fill:#858585;fill-rule:nonzero;"/><path d="M339.363,101.073l-3.295,0c-68.539,44.812 -110.715,140.371 -126.534,284.036c-8.566,71.838 -9.226,140.379 -3.952,205.618c0.656,1.319 1.316,2.633 2.636,2.633l35.587,1.325l1.977,-0.663l0.66,-1.976c-21.088,-145.643 -11.861,-270.201 27.021,-373.669c19.771,-52.06 41.519,-90.288 65.902,-113.354l-0.002,-3.95Zm-128.509,487.024c-1.977,-24.393 -3.295,-50.753 -3.295,-79.746c0,-75.787 6.59,-143.667 19.771,-203.636c19.11,-85.017 49.427,-146.968 92.264,-184.528c-22.405,30.313 -40.86,66.559 -56.018,109.396c-22.406,64.583 -32.951,138.396 -32.951,220.117c0,45.47 3.295,92.264 9.886,139.709l-29.657,-1.312Z" style="fill-rule:nonzero;"/><path d="M6.555,118.205c25.702,25.705 51.403,64.59 78.424,116.649c53.382,104.782 85.014,222.093 93.583,354.555l35.586,1.318c-7.25,-63.271 -21.746,-131.143 -42.836,-201.665c-41.518,-143.003 -96.219,-233.291 -164.757,-270.857Z" style="fill:#858585;fill-rule:nonzero;"/><path d="M7.874,116.229l-3.295,0c-0.66,1.319 -0.66,3.295 0,3.958c25.701,27.018 52.063,65.903 78.423,117.962c54.039,104.125 85.014,221.437 92.924,351.917l2.635,1.981l35.587,1.313l1.976,-1.313l0.66,-1.981c-7.907,-64.577 -22.406,-133.118 -43.497,-204.299c-42.177,-142.347 -96.874,-231.972 -165.413,-269.538Zm99.511,160.143c-25.702,-57.993 -55.358,-107.42 -87.649,-146.962c59.972,41.518 108.739,126.535 147.622,253.725c20.43,68.535 34.93,136.42 43.498,204.962l-29.657,-1.325c-7.252,-113.349 -32.294,-216.818 -73.814,-310.4Z" style="fill-rule:nonzero;"/><path d="M228.648,590.729c5.931,-12.519 13.181,-30.977 21.086,-55.354c15.16,-48.114 27.021,-102.149 36.246,-161.462l-15.155,-0.662l-11.864,72.492c-11.861,56.68 -26.361,104.781 -44.813,144.986l14.5,0Z" style="fill:#fff;fill-rule:nonzero;"/><path d="M268.848,373.25l-12.521,73.155c-11.861,56.018 -26.361,104.119 -44.813,143.004l0,2.639l2.635,1.313l14.5,0l1.977,-1.97c6.59,-12.523 13.182,-30.981 21.746,-56.018c15.16,-48.771 27.681,-102.149 36.247,-160.806l-1.316,-1.981c0,-0.655 -0.659,-1.313 -1.319,-1.313l-15.155,-0.655c-1.323,-0.664 -1.981,-0.001 -1.981,2.632Zm-19.114,152.896c-7.905,25.704 -15.815,46.133 -22.405,61.951l-9.886,0c26.361,-57.344 44.813,-127.854 56.018,-212.215l9.227,0.663c-8.568,54.041 -19.113,103.469 -32.954,149.601Z" style="fill-rule:nonzero;"/><path d="M263.575,287.576l5.271,32.287c2.639,23.729 3.954,41.525 1.979,53.387c5.931,3.958 10.545,4.614 15.155,0.662l0,-34.276c-1.315,-26.36 -3.295,-46.132 -7.905,-59.969l-14.5,7.909Z" style="fill:#ffe000;fill-rule:nonzero;"/><path d="M279.393,277.691l-2.637,0l-14.5,7.253c-1.316,0.657 -1.977,0.657 -1.977,2.632l5.932,32.287c2.637,23.729 3.955,41.525 2.637,53.387l0.658,1.977c6.592,4.613 13.182,5.276 17.795,1.318l1.316,-2.633c1.318,-41.523 -1.316,-73.155 -7.906,-94.902l-1.318,-1.319Zm-5.932,93.582l0.659,-10.541c0,-20.436 -2.636,-44.819 -7.909,-71.837l10.545,-5.277c3.955,17.139 6.59,41.522 6.59,73.817l0,15.15l-9.885,-1.312Z" style="fill-rule:nonzero;"/><path d="M287.301,271.101l0.66,-51.403l-6.591,2.639c-4.614,2.632 -7.25,5.927 -8.569,9.885c-1.976,5.927 -1.314,17.789 1.979,35.583l12.521,3.296Z" style="fill:#fff;fill-rule:nonzero;"/><path d="M289.938,217.059l-2.637,0c-1.318,0 -3.955,1.319 -7.25,3.295c-5.271,2.639 -7.908,6.59 -9.885,11.205c-1.318,3.958 -1.318,11.205 0,21.09l2.635,15.819c0,1.313 0.66,1.969 1.319,1.969l12.521,3.295l2.635,-0.657l0.66,-1.976l0.66,-51.403l-0.658,-2.637Zm-14.5,15.819c0.66,-3.295 4.613,-6.59 9.886,-9.886l0,44.813l-8.566,-1.976l-2.636,-25.705l1.316,-7.246Z" style="fill-rule:nonzero;"/><path d="M281.37,219.698l5.271,44.149c5.932,-13.837 8.565,-26.361 7.909,-37.559c-0.659,-7.247 -1.979,-13.837 -4.614,-19.771c-3.295,-4.614 -6.591,-6.59 -8.565,-5.934c-1.32,1.32 -1.32,7.247 -0.001,19.115Z" style="fill:#9260c7;fill-rule:nonzero;"/><path d="M286.643,199.271l-6.592,-0.663c-1.976,0.663 -3.295,3.295 -3.295,6.59c0,3.295 0.66,9.885 2.637,18.452l4.613,40.861l2.637,1.976c0.658,0 1.976,-0.656 2.635,-1.976c5.931,-13.843 7.91,-26.361 7.91,-38.222c-0.66,-6.59 -1.319,-12.524 -3.955,-17.795c-1.321,-4.616 -3.958,-7.911 -6.59,-9.223Zm-3.955,3.951l0.658,0.656l5.932,7.91c1.318,4.614 2.636,9.223 2.636,14.5l0,1.976l-3.295,23.066l-3.952,-28.337c-1.318,-7.91 -1.979,-13.837 -1.979,-17.795l0,-1.976Z" style="fill-rule:nonzero;"/><path d="M224.034,271.101l3.954,-2.632l-1.979,-17.139c-1.315,-11.861 0,-21.747 3.954,-28.337l9.227,-16.476c1.319,-3.295 -0.656,-5.934 -5.271,-7.91c-3.955,-1.976 -9.226,1.319 -13.181,9.886c-4.614,9.222 -6.59,18.451 -6.59,27.68c-0.66,10.542 2.636,23.066 9.886,34.928Z" style="fill:#9260c7;fill-rule:nonzero;"/><path d="M235.895,196.632l-8.564,0c-4.614,2.639 -7.91,8.566 -11.205,16.476c-3.295,7.903 -5.271,15.156 -5.271,23.066c0,11.198 3.295,23.066 10.545,36.247l1.977,1.976l1.979,-0.663l4.61,-2.632l0.66,-3.295c-4.614,-18.451 -3.955,-32.951 1.976,-43.5l3.955,-7.247l4.614,-8.566c1.315,-1.976 1.315,-4.615 0.66,-5.928c-0.662,-2.639 -2.642,-4.621 -5.936,-5.934Zm1.319,7.246l0,0.656l-5.271,9.886l-4.614,7.253c-3.295,5.271 -4.614,13.181 -4.614,23.066c0,8.566 1.319,16.476 2.639,23.066l-0.66,0c-5.273,-11.861 -7.908,-21.747 -7.908,-31.632c0,-6.59 0.658,-13.837 3.953,-21.09c3.297,-7.91 5.932,-11.861 9.227,-13.843l3.297,-0.656c1.975,1.319 3.292,2.638 3.951,3.294Z" style="fill-rule:nonzero;"/><path d="M311.683,248.035c-9.885,1.319 -15.814,5.271 -19.109,13.18l-13.841,-3.295c-9.885,0 -18.451,4.614 -23.065,13.181c-4.61,7.91 4.614,16.476 25.045,26.361c25.041,10.548 38.882,19.771 42.177,27.022l11.861,-21.096c5.934,-17.133 6.59,-30.313 1.319,-40.199c-5.932,-11.196 -13.841,-16.474 -24.387,-15.154Z" style="fill:#9260c7;fill-rule:nonzero;"/><path d="M291.256,256.601l-19.771,-0.656c-7.909,1.313 -14.5,6.59 -18.455,13.837c-1.975,3.952 -2.635,7.247 -1.315,9.885c1.315,4.614 5.271,8.573 11.202,11.868c3.954,2.632 10.545,5.928 20.43,9.886l22.406,11.198c7.25,4.613 12.521,8.572 13.841,13.181l3.295,1.981l2.637,-1.325c4.613,-6.591 9.226,-15.149 12.521,-23.065c6.591,-17.133 6.591,-30.97 1.319,-42.175c-6.59,-11.861 -15.815,-17.138 -27.021,-16.476c-9.888,0.662 -16.478,4.614 -21.089,11.861Zm21.087,-5.271c9.227,-0.663 15.815,3.958 20.432,13.181c2.635,4.614 3.295,9.223 3.295,14.5c0,10.542 -3.955,23.722 -13.182,39.542c-3.295,-3.951 -8.565,-7.91 -15.815,-12.523c-3.954,-1.977 -11.204,-5.934 -20.43,-10.543c-17.795,-7.245 -27.021,-13.179 -28.998,-17.793l0,-1.319l1.316,-3.295c3.955,-7.247 10.545,-11.861 19.771,-11.861c4.613,0 8.568,1.319 12.523,2.632l2.637,0l1.976,-1.313c0.659,-3.295 3.295,-5.934 6.59,-7.909c2.635,-1.98 6.59,-3.299 9.885,-3.299Z" style="fill-rule:nonzero;"/><path d="M293.23,259.239c-0.658,0 -1.318,0 -1.976,0.656l-0.66,1.982l12.521,20.427c7.909,16.476 13.84,30.969 18.451,42.836l1.318,1.313l1.977,-1.971c1.318,-9.229 0.659,-19.113 -1.977,-29c-3.951,-19.767 -13.836,-31.635 -29.654,-36.243Zm28.338,54.699c-6.591,-16.476 -14.497,-32.289 -24.383,-48.107c15.158,6.589 23.067,23.065 24.383,48.107Z" style="fill-rule:nonzero;"/><path d="M232.6,268.468c-5.271,-3.958 -10.541,-6.59 -16.476,-8.573c-12.521,-3.295 -21.746,0 -26.36,10.542c-5.271,10.548 1.979,24.392 21.75,42.181c9.225,8.571 19.771,16.476 30.973,23.722l22.408,-32.288c8.566,-12.518 11.861,-23.066 8.566,-32.951c-3.295,-9.886 -10.545,-13.181 -23.066,-9.886l-17.795,7.253Z" style="fill:#9260c7;fill-rule:nonzero;"/><path d="M274.12,294.166c3.955,-7.909 4.61,-16.475 2.636,-23.729c-2.636,-6.59 -5.931,-11.198 -11.205,-12.518c-8.564,-3.295 -19.109,-1.319 -32.951,6.59c-11.861,-7.91 -21.746,-10.548 -30.972,-8.566c-6.591,1.976 -11.205,5.934 -14.5,13.18c-5.931,11.861 0.659,25.705 19.11,43.494c10.546,9.885 21.75,18.458 34.271,26.359l2.636,0.657l2.635,-1.97c1.979,-5.934 7.25,-13.182 14.5,-22.409l13.84,-21.088Zm-3.954,-21.746l0.659,7.247c0,4.614 -1.319,9.885 -4.614,15.819l-11.201,15.818c-5.935,7.903 -11.205,14.494 -13.841,19.771c-11.205,-7.254 -21.75,-15.163 -30.976,-23.729c-12.521,-12.519 -18.451,-21.747 -18.451,-29.657l1.316,-5.928c2.639,-5.277 5.934,-8.572 10.545,-9.229c4.613,-1.319 10.545,0 17.795,3.295c3.295,1.976 6.59,3.295 9.226,5.271l3.955,0c3.295,-1.976 7.905,-4.615 12.521,-5.928l16.477,-1.326c3.293,1.329 5.271,3.961 6.589,8.576Z" style="fill-rule:nonzero;"/><path d="M233.26,266.486l-2.636,0.657l-3.955,16.476c-1.315,14.506 3.955,32.295 13.841,53.385c0,0.663 1.319,1.319 2.635,0.663l0.66,-1.326c1.319,-26.36 -1.976,-49.427 -9.226,-68.535l-1.319,-1.32Zm-2.636,20.427c0,-5.264 0,-9.222 1.976,-13.18c4.614,15.163 7.25,32.951 7.91,52.722c-6.591,-15.812 -9.886,-28.993 -9.886,-39.542Z" style="fill-rule:nonzero;"/><path d="M57.958,67.465c0.66,42.174 5.934,91.601 13.84,147.618c17.135,110.716 44.156,197.708 81.063,261.635l130.485,-3.951c-44.154,-70.522 -75.787,-158.829 -94.897,-266.25c-9.886,-53.378 -14.5,-100.173 -15.16,-139.052l-115.331,0Z" style="fill:#f00;fill-rule:nonzero;"/><path d="M176.583,67.465c0,-2.639 -1.316,-3.295 -3.295,-3.295l-115.33,0l-2.635,0.656l-0.66,2.639c0.66,43.493 5.934,93.577 14.5,148.938c17.135,111.378 43.496,199.021 81.059,262.292c0.66,0.662 1.319,1.318 2.639,1.318l130.485,-3.952l3.297,-1.324l-0.66,-3.296c-43.496,-69.197 -75.129,-157.504 -94.239,-263.61c-9.228,-53.379 -13.842,-100.168 -15.161,-140.366Zm-115.33,3.295l108.739,0c1.319,46.788 7.91,96.872 17.795,150.913c19.111,98.854 49.427,181.896 89.629,248.455l-122.58,3.295c-34.271,-59.969 -59.972,-140.378 -76.448,-243.183c-9.885,-57.331 -15.156,-110.716 -17.135,-159.48Z" style="fill-rule:nonzero;"/></g></g><rect id="PATH77" x="2.92" y="2.74" width="366.67" height="582.52" style="fill:none;stroke:#000;stroke-width:3px;"/></svg>