<?xml version="1.0" encoding="UTF-8" standalone="no"?><!DOCTYPE svg PUBLIC "-//W3C//DTD SVG 1.1//EN" "http://www.w3.org/Graphics/SVG/1.1/DTD/svg11.dtd"><svg width="100%" height="100%" viewBox="0 0 372 587" version="1.1" xmlns="http://www.w3.org/2000/svg" xmlns:xlink="http://www.w3.org/1999/xlink" xml:space="preserve" xmlns:serif="http://www.serif.com/" style="fill-rule:evenodd;clip-rule:evenodd;stroke-miterlimit:100;"><g><clipPath id="_clip1"><rect x="16.296" y="40.952" width="343.432" height="545.648"/></clipPath><g clip-path="url(#_clip1)"><path d="M40.804,410.772c-1.932,-1.284 -3.222,0 -3.222,1.296c-1.29,1.926 -0.642,3.222 1.29,3.222l92.133,34.14c-1.29,-1.283 -1.29,-1.926 -1.29,-3.222c0.648,-1.925 1.938,-1.925 3.222,-1.925l-92.133,-33.511Z" style="fill-rule:nonzero;"/><path d="M292.726,53.19c0,-5.795 -2.58,-9.017 -7.091,-9.017l-5.152,0c-1.291,1.29 -2.58,3.87 -2.58,7.733c0,239.03 -0.643,363.384 -3.864,374.331c-1.289,7.085 -9.021,12.886 -21.908,18.688l-27.703,10.948c-29.635,12.886 -48.322,21.908 -56.696,27.067c-14.176,7.727 -39.948,23.192 -77.958,46.385c-9.664,5.801 -21.908,16.106 -38.015,32.214l-21.261,23.192l112.751,0.647c5.795,-9.017 15.459,-18.681 27.062,-28.993c12.238,-10.313 21.902,-16.755 28.994,-19.329c6.442,-1.931 10.947,-5.153 14.169,-9.016l9.664,-14.824c7.733,-9.664 29.642,-27.055 66.367,-52.826c4.506,-3.87 7.085,-7.739 7.085,-12.887l-1.29,-19.328l-2.574,-374.985Z" style="fill:#858585;fill-rule:nonzero;"/><path d="M283.703,40.952c-2.58,0 -4.512,0.648 -6.443,1.932c-1.289,1.289 -2.579,4.511 -2.579,9.022c0,237.747 -0.643,362.088 -3.863,373.048c-0.642,5.146 -5.801,9.664 -14.176,14.812l-23.84,9.664l-16.107,6.443c-23.191,9.663 -39.941,18.045 -50.253,23.846l-77.957,46.384c-15.465,9.023 -35.436,28.352 -60.566,56.704c-1.29,1.282 -1.29,2.572 0,3.862l2.58,1.283l112.751,0.648l2.573,-1.289c6.443,-8.376 14.824,-18.039 26.42,-27.704c12.238,-10.954 21.261,-17.397 28.346,-19.328c5.158,-1.932 9.021,-3.87 11.602,-7.092l7.727,-9.017l5.801,-9.016c3.864,-5.16 14.818,-13.534 30.925,-27.068l34.795,-25.771c4.511,-3.222 7.085,-6.442 8.374,-10.947l-0.642,-12.887l-0.647,-10.954l-2.577,-374.337c0,-3.864 -0.648,-6.443 -2.579,-9.017c-2.58,-1.931 -5.153,-3.221 -7.733,-3.221l-1.932,0Zm-1.289,6.444l3.221,0c2.58,0 3.869,1.931 3.869,5.795l2.573,374.985l1.291,19.328c0,3.222 -1.291,7.085 -5.802,9.665l-29.635,21.901c-19.971,15.459 -32.215,26.42 -36.727,32.216l-7.085,9.663l-5.801,7.733c-2.573,2.58 -5.794,3.863 -9.664,5.801c-7.732,1.926 -17.397,9.017 -28.993,18.681c-12.237,10.313 -21.26,19.978 -28.345,28.993l-103.734,-0.648c23.198,-25.771 41.237,-42.521 54.123,-49.605l77.957,-46.39c10.955,-5.795 27.703,-14.176 48.97,-23.84l16.75,-6.443l25.771,-10.947c9.665,-5.16 14.818,-10.961 16.107,-17.403c3.223,-11.59 3.863,-136.585 3.863,-374.974l1.291,-4.511Z" style="fill-rule:nonzero;"/><path d="M117.477,282.562l-1.29,-84.406c0,-9.017 -1.29,-12.238 -4.512,-10.948l-7.084,5.801l-2.58,3.222c-1.29,30.277 -1.29,61.208 -1.932,93.422c-0.641,64.429 1.932,103.086 6.443,115.972c4.511,12.238 16.107,29.636 35.436,53.469c9.022,10.961 18.687,21.268 27.703,30.289c8.375,0.642 16.107,-2.579 20.618,-8.381c-10.954,-10.947 -22.549,-22.549 -33.504,-36.719c-23.192,-27.068 -35.436,-47.681 -36.726,-62.504l-2.572,-99.217Z" style="fill:#858585;fill-rule:nonzero;"/><path d="M115.545,183.986l-5.801,0.642c-3.864,1.938 -7.733,5.801 -10.306,10.306l-0.648,1.296c-1.29,24.476 -1.932,56.69 -1.932,96.644c-0.642,63.133 1.932,100.507 6.443,113.393c4.511,12.243 16.107,30.275 34.794,53.475l28.993,32.214l1.932,0.648c10.306,0.643 18.038,-3.222 23.84,-9.664c1.283,-1.296 1.283,-2.579 0,-4.518c-11.602,-10.307 -22.55,-22.55 -34.152,-35.436c-22.55,-27.056 -34.146,-47.026 -35.436,-61.208l-2.573,-99.866l-1.29,-83.758l0,-1.284c0,-7.083 -1.29,-10.952 -3.864,-12.884Zm-10.312,13.528l7.091,-7.085l0.642,5.153l0,2.574l1.29,83.758l2.573,100.514c1.938,21.901 24.488,54.764 68.941,98.574c-4.511,3.864 -9.017,5.16 -15.459,5.16l-28.993,-33.511c-17.397,-21.254 -27.709,-37.361 -32.214,-48.322c-3.87,-11.59 -5.801,-48.321 -5.801,-108.882c-0.002,-47.031 0.64,-79.888 1.93,-97.933Z" style="fill-rule:nonzero;"/><path d="M258.573,441.062c-1.283,-1.296 -1.932,-0.647 -2.573,0.642c-1.932,6.443 -6.443,12.244 -11.596,16.75c-3.869,2.578 -9.022,5.158 -16.107,9.021c-10.313,5.802 -16.755,9.665 -19.978,13.527c-5.794,7.085 -16.748,16.107 -32.214,25.772c-16.107,9.664 -30.283,16.107 -42.521,19.971c-10.954,3.869 -25.13,14.182 -42.527,30.931l-25.124,25.771c-1.29,1.284 -0.648,1.932 0.642,3.222c0,0.643 1.29,0.643 2.58,0l23.84,-25.772c17.391,-16.748 31.566,-26.413 41.878,-29.634c12.886,-4.518 27.056,-11.603 43.163,-21.268c16.107,-10.306 27.062,-19.328 33.505,-27.055c2.578,-3.222 8.374,-7.091 18.039,-12.244l17.396,-9.665c5.152,-4.511 9.664,-10.306 12.886,-18.044c0.001,-1.284 0.001,-1.925 -1.289,-1.925Z" style="fill-rule:nonzero;"/><path d="M253.421,471.98l1.931,-1.284l15.466,-19.971c5.801,-10.312 7.732,-22.55 6.442,-35.436l-2.579,-1.938c-0.643,0 -1.283,0.643 -1.283,1.938c1.283,12.886 -0.648,24.476 -5.802,34.14c-3.221,5.159 -8.374,11.602 -15.466,18.045l-1.283,2.58l-19.977,16.107c-15.459,11.59 -26.413,19.971 -32.215,26.413l-12.886,10.307l-14.817,6.443l-19.329,9.022c-12.244,5.152 -23.192,14.168 -32.857,27.055c-6.443,7.739 -10.312,14.182 -12.244,18.687c-0.642,1.29 0,2.58 1.29,2.58l2.574,-0.642c2.58,-5.801 6.442,-10.961 11.603,-17.403c9.664,-12.886 19.97,-21.902 31.566,-27.056l18.687,-8.381l15.459,-7.085l12.887,-10.947l32.214,-25.772l20.619,-17.402Z" style="fill-rule:nonzero;"/><path d="M105.881,312.845c-6.442,-6.442 -12.885,-9.664 -21.908,-9.664c-8.375,0.642 -15.465,5.152 -19.329,14.169c-2.579,4.518 -4.511,9.022 -4.511,13.534l-10.954,2.573c-7.085,3.221 -11.596,9.023 -11.596,17.403c-0.642,8.368 3.222,14.812 11.596,19.329c4.511,2.573 9.023,3.862 12.886,3.862l59.924,-7.731l10.948,-6.443c7.091,-6.442 9.664,-13.534 8.38,-21.901c-1.938,-7.092 -6.443,-12.245 -16.107,-14.183l-12.886,-0.643l-6.443,-10.305Z" style="fill:#d96038;fill-rule:nonzero;"/><path d="M83.331,299.959c-7.091,0.642 -13.533,3.863 -18.687,10.306c-3.221,4.512 -5.801,10.954 -7.084,17.397c-5.801,0.648 -10.313,2.573 -14.824,5.795c-5.153,3.87 -8.375,9.664 -8.375,16.755l0,1.291c0,8.374 3.222,14.817 9.665,19.328c5.801,3.221 10.954,5.801 17.397,6.443l1.29,0l59.276,-7.733l1.283,0l12.244,-8.375c7.733,-7.084 10.306,-14.823 9.023,-23.839c-1.29,-6.443 -5.159,-12.238 -12.244,-14.817c-5.801,-1.938 -11.596,-3.222 -18.039,-3.222c-2.58,-4.512 -5.153,-8.381 -9.023,-11.604c-6.442,-5.146 -13.527,-7.725 -21.902,-7.725Zm0.642,6.443c7.733,0 14.176,2.58 19.329,8.374l5.801,9.665c0,1.289 1.932,1.931 3.221,1.289l12.238,1.284c7.733,1.296 12.244,5.158 13.534,11.602l0,3.222c0,5.801 -1.938,10.948 -7.733,15.466l-9.664,5.794l-58.634,7.733l-11.596,-3.862c-6.443,-3.223 -9.664,-8.382 -9.664,-15.466l0,-0.643c0,-7.091 3.221,-12.244 9.664,-14.183l9.664,-2.573l3.222,-3.221c0,-3.869 1.29,-8.374 3.222,-12.238c3.868,-7.738 9.663,-11.601 17.396,-12.243Z" style="fill-rule:nonzero;"/><path d="M62.712,368.251l40.589,1.29l21.909,-7.732c-1.938,-5.153 -4.511,-10.948 -7.733,-15.466c-7.732,-9.665 -17.397,-14.17 -28.352,-12.238c-11.596,1.291 -19.328,7.733 -23.192,18.682c-2.579,5.158 -3.221,10.311 -3.221,15.464Z" style="fill:#ffe700;fill-rule:nonzero;"/><path d="M94.927,373.411c0,-3.87 -1.931,-7.739 -5.153,-10.961c-3.869,-2.573 -8.381,-4.505 -13.534,-4.505c-5.794,-0.642 -9.664,1.283 -13.527,4.505c-3.87,2.58 -5.801,6.443 -5.801,10.313c0,4.512 1.29,7.732 5.801,10.954c3.221,2.58 7.733,4.505 12.886,4.505c5.794,0 10.306,-1.283 13.527,-4.505c3.87,-2.58 5.801,-6.443 5.801,-10.306Z" style="fill:#d96038;fill-rule:nonzero;"/><path d="M98.148,373.411c0,-3.87 -1.932,-7.739 -5.153,-12.245c-4.512,-4.511 -9.665,-6.442 -16.756,-6.442c-7.084,0 -12.886,1.932 -17.397,6.442c-3.863,3.223 -5.153,7.728 -5.153,11.597c0,5.153 1.932,9.665 6.443,13.534c3.87,3.221 9.665,5.146 15.466,5.146c7.084,0 12.886,-1.926 17.397,-6.442c3.222,-2.573 5.153,-6.443 5.153,-11.59Zm-6.442,0c0,2.573 -1.29,5.146 -3.222,7.084c-3.221,3.222 -7.091,4.506 -12.886,4.506c-3.87,0 -7.733,-1.284 -10.955,-3.222c-3.221,-2.574 -4.511,-5.795 -4.511,-9.017c0,-2.573 1.29,-5.153 3.222,-7.091c3.222,-2.574 7.732,-4.506 12.886,-4.506c5.153,0 9.023,1.932 12.244,5.154c2.574,1.932 3.222,3.87 3.222,7.092Z" style="fill-rule:nonzero;"/><path d="M131.653,365.03c-0.648,-4.506 -3.221,-7.085 -7.091,-9.022l-14.175,-1.926c-5.153,1.283 -9.665,3.863 -12.238,7.727c-3.222,3.863 -3.87,7.732 -3.222,11.603c1.29,3.863 3.864,7.084 7.733,9.664l14.169,0.642c5.16,-0.642 9.023,-3.222 11.603,-7.085c3.221,-3.87 4.505,-7.092 3.221,-11.603Z" style="fill:#d96038;fill-rule:nonzero;"/><path d="M127.783,354.082c-5.794,-3.222 -11.596,-3.87 -18.681,-3.222c-5.801,1.926 -10.312,5.147 -13.534,9.017c-3.863,4.512 -4.511,9.664 -3.863,14.175c1.29,5.153 4.511,9.023 9.664,11.597l16.107,1.29c5.795,-0.642 9.665,-3.222 12.886,-7.085c3.863,-3.222 5.153,-7.091 5.153,-12.244l-0.642,-3.221c-0.647,-4.512 -3.22,-7.734 -7.09,-10.307Zm-16.749,3.222c4.511,-0.648 9.017,-0.648 12.886,2.573c2.574,0.647 4.512,3.221 4.512,5.795c1.283,3.222 0,6.442 -1.938,9.664c-3.222,3.222 -6.443,4.518 -10.948,5.801l-10.954,-1.283c-3.87,-1.296 -5.801,-3.869 -6.443,-7.091c-0.648,-3.222 0,-6.442 2.573,-9.665c2.579,-2.574 5.801,-4.511 10.312,-5.794Z" style="fill-rule:nonzero;"/><path d="M78.171,328.311c0,-0.648 -1.284,-1.296 -1.932,-0.648l-1.29,2.573l8.38,19.977c0,0.648 1.284,1.291 2.574,0.648c1.29,0 1.931,-0.648 0.648,-2.579l-8.38,-19.971Z" style="fill-rule:nonzero;"/><path d="M100.08,327.662l-1.289,6.442l-2.574,15.46l3.863,-21.902Z" style="fill:#da8e55;fill-rule:nonzero;"/><path d="M100.722,325.73c-1.283,0 -1.931,0 -2.573,1.932l-1.932,6.442l-1.29,15.46c-0.648,1.296 0,1.938 1.29,1.938l2.574,-1.938l1.931,-14.812l1.29,-6.442c0.648,-0.648 0,-1.938 -1.29,-2.58Z" style="fill-rule:nonzero;"/><path d="M116.829,330.884l-3.221,0.647c-1.932,2.573 -4.505,7.085 -5.795,13.527c0,1.284 0,1.933 1.29,1.933l2.573,-0.648c1.932,-5.795 3.87,-10.306 5.153,-12.238l0,-3.221Z" style="fill-rule:nonzero;"/><path d="M63.354,337.976l-2.573,0.641c-0.648,1.284 -0.648,1.932 0.642,2.58l11.596,10.947c0.648,1.291 1.932,1.291 2.58,0.643c0.642,-0.643 1.29,-1.926 0.642,-2.574l-6.442,-6.442l-6.445,-5.795Z" style="fill-rule:nonzero;"/><path d="M217.984,402.404l-3.864,-11.603c-3.869,-7.727 -10.312,-12.244 -18.687,-14.17c-9.016,-1.938 -16.107,0.643 -22.55,8.369c-3.222,4.517 -5.795,8.381 -7.733,12.886l-10.948,-0.643c-8.381,1.938 -13.534,6.443 -16.107,14.824c-1.938,7.727 0,14.812 7.726,21.254c3.222,3.221 7.091,5.159 11.603,7.092l59.27,6.442l12.244,-3.869c9.022,-5.147 12.886,-10.949 13.527,-19.329c0.647,-7.727 -3.222,-13.528 -11.596,-18.033l-12.885,-3.22Z" style="fill:#d96038;fill-rule:nonzero;"/><path d="M163.868,394.665l-16.108,1.296c-6.443,2.573 -10.312,7.084 -12.244,14.812c-2.579,7.738 -0.642,14.823 5.153,21.266c3.87,5.153 9.023,9.023 14.818,10.949l1.29,0.647l59.918,6.442l0.648,0l14.176,-5.152c9.017,-5.159 13.527,-11.603 14.169,-20.618l0,-1.291c0,-7.084 -3.222,-12.243 -8.375,-16.748c-5.153,-3.863 -10.954,-5.801 -16.749,-7.085c-3.869,-14.182 -12.244,-23.198 -24.482,-25.771c-8.38,-1.297 -14.823,0 -21.266,5.794c-4.506,3.869 -8.375,9.016 -10.948,15.459Zm47.031,-1.926c2.573,3.863 3.863,7.085 3.863,9.665l2.58,3.221l11.596,3.222c6.443,3.222 10.306,8.368 10.306,14.169l0,0.643c-0.642,10.313 -7.726,17.403 -22.55,19.977l-59.27,-6.443l-8.381,-5.794c-5.153,-3.87 -7.727,-9.022 -7.727,-14.183l0,-5.146c2.574,-6.443 6.443,-10.313 13.528,-11.602l10.306,0.641c1.938,0 3.222,-0.641 3.222,-1.925c1.938,-4.518 3.869,-7.739 6.442,-11.603c5.802,-7.085 12.244,-9.022 19.329,-7.727c7.734,1.925 12.887,5.794 16.756,12.885Z" style="fill-rule:nonzero;"/><path d="M158.708,434.618c9.665,6.443 22.55,10.307 39.947,10.307l22.55,-1.938c0,-5.147 -1.289,-10.949 -4.511,-16.75c-4.505,-10.947 -12.886,-17.391 -23.834,-18.688c-11.602,-1.282 -20.619,3.223 -27.709,12.245c-3.221,5.16 -5.153,9.666 -6.443,14.824Z" style="fill:#ffe700;fill-rule:nonzero;"/><path d="M188.99,447.504c0.648,-4.517 0.648,-8.381 -2.572,-12.243c-3.222,-3.863 -6.443,-6.443 -11.603,-7.733l-14.169,0.648c-4.511,2.573 -7.091,5.146 -8.381,9.664c-1.284,3.863 0,8.368 3.222,11.59c2.579,3.87 6.443,6.443 11.602,7.739l14.169,-1.296c4.512,-1.926 6.443,-4.505 7.732,-8.369Z" style="fill:#d96038;fill-rule:nonzero;"/><path d="M190.28,435.261c-3.862,-5.16 -8.374,-9.023 -14.817,-10.307c-7.091,-1.938 -13.534,-1.296 -18.039,1.926c-4.512,1.938 -7.091,5.801 -8.381,9.663c-1.284,5.16 0,9.665 3.222,14.183c3.222,5.147 7.733,8.368 14.176,9.665c7.091,1.925 12.886,0.641 18.039,-2.58c4.511,-1.938 6.443,-5.159 7.732,-9.664l0.648,-3.863c0,-3.222 -0.648,-6.444 -2.58,-9.023Zm-16.748,-4.512c5.153,1.289 9.017,3.869 10.948,7.732c1.938,2.58 1.938,5.802 1.938,7.727c-1.291,3.222 -3.222,5.16 -5.16,6.443l-13.527,1.296c-3.863,-0.647 -7.085,-3.222 -10.306,-6.443c-1.938,-2.579 -3.222,-5.801 -1.938,-9.022c0,-1.938 1.938,-4.511 5.159,-6.443c3.863,-1.938 8.375,-2.579 12.886,-1.29Z" style="fill-rule:nonzero;"/><path d="M227.007,447.504c0.642,-3.869 -1.29,-7.738 -5.153,-10.961c-3.222,-2.572 -8.381,-4.505 -13.534,-4.505c-5.153,0 -9.664,1.284 -13.527,4.505c-3.869,3.223 -5.153,6.444 -5.802,10.961c0,3.864 1.933,7.727 5.153,10.307c3.87,3.221 8.382,4.505 14.176,4.505c5.153,0.647 9.665,-1.284 13.534,-3.862c3.221,-2.581 5.153,-6.445 5.153,-10.95Z" style="fill:#d96038;fill-rule:nonzero;"/><path d="M192.86,434.618c-4.511,3.222 -6.442,7.085 -7.091,12.886c0,5.147 1.932,9.665 6.442,12.887c3.869,3.221 9.665,5.146 15.466,5.146c5.795,0.648 11.596,-1.282 15.459,-5.146c5.16,-3.222 7.092,-7.739 7.092,-12.887c0.642,-3.869 -1.29,-7.738 -4.512,-11.602c-4.512,-4.505 -10.306,-7.085 -17.397,-7.085c-5.794,0 -10.954,1.932 -15.459,5.801Zm-0.648,12.886c0.648,-3.221 1.932,-6.442 5.153,-9.022c3.223,-1.938 6.443,-3.221 10.954,-3.221c5.153,0 9.665,1.931 12.886,5.153c1.932,2.573 3.222,5.152 2.58,7.09c0,3.222 -1.932,6.443 -4.512,8.369c-3.221,2.58 -7.084,3.869 -10.954,3.221c-4.511,0 -8.374,-1.283 -11.596,-3.221c-2.579,-1.926 -4.511,-5.147 -4.511,-8.369Z" style="fill-rule:nonzero;"/><path d="M183.838,399.824c-0.642,-1.29 -0.642,-1.938 -2.58,-1.938c-1.284,0 -1.284,1.296 -1.284,1.938l3.222,21.908l0.642,1.283l1.932,0.643l1.289,-2.574l-3.221,-21.26Z" style="fill-rule:nonzero;"/><path d="M205.746,402.404c-0.647,-1.297 -1.938,-0.648 -1.938,0.641l-3.863,5.802l-5.802,14.812c0,1.296 0,1.938 1.938,2.579c0.643,0.643 1.284,0 1.933,-1.283l5.795,-14.182l3.222,-5.795c-0.001,-0.649 -0.001,-1.933 -1.285,-2.574Z" style="fill-rule:nonzero;"/><path d="M221.854,410.772l-2.58,0l-5.801,6.442l-4.505,5.16c-1.29,1.283 -1.29,1.283 0,2.579c0.642,0.642 1.283,0.642 2.574,0c3.869,-5.801 7.09,-9.664 10.312,-10.96l0,-3.221Z" style="fill-rule:nonzero;"/><path d="M167.089,406.268l-3.221,-0.643c-0.648,0.643 -1.29,1.925 0,3.222c3.863,5.147 6.442,9.664 7.726,11.59c0,1.296 0.648,1.938 1.938,1.296c1.283,0 1.283,-1.296 1.283,-1.938l-4.505,-7.727l-3.221,-5.8Z" style="fill-rule:nonzero;"/><path d="M284.993,307.044l12.237,-4.506c9.022,-3.869 12.886,-10.312 13.534,-18.687c0.643,-7.733 -3.869,-13.527 -11.596,-17.397l-12.886,-3.87c-0.648,-3.222 -1.938,-7.727 -3.869,-11.59c-4.512,-7.739 -10.955,-12.886 -19.33,-14.182c-8.374,-1.925 -15.459,0.648 -21.901,8.381c-3.222,4.505 -5.801,8.374 -7.092,12.244l-11.595,0c-7.733,1.925 -13.528,6.443 -15.466,14.812c-2.573,7.739 0,14.824 6.442,21.267l11.603,7.084l59.919,6.444Z" style="fill:#d96038;fill-rule:nonzero;"/><path d="M313.986,283.209c0,-7.091 -2.579,-12.885 -9.022,-16.755c-4.512,-3.222 -9.665,-5.795 -16.107,-6.443c-3.222,-14.817 -11.597,-23.198 -25.124,-26.419c-7.091,-1.925 -14.823,0.648 -20.619,5.159c-4.511,4.505 -8.374,9.022 -10.954,15.465c-5.801,-0.648 -10.954,-0.648 -16.106,1.926c-5.802,2.58 -10.307,7.091 -12.244,14.823c-2.573,7.727 -1.283,14.818 4.511,21.261c3.87,5.153 9.665,9.016 16.107,11.596l0.648,0l59.27,6.442l1.29,0c3.222,0 7.733,-1.932 14.176,-5.152c9.022,-4.512 13.527,-11.596 14.176,-20.619l0,-1.284l-0.002,0Zm-30.924,-19.976c0,1.29 0.642,2.573 2.573,2.573l10.954,3.222c7.085,3.222 10.954,7.739 10.954,14.182l0,0.642c-0.647,6.443 -4.512,11.596 -10.954,15.466l-12.244,4.505l-58.628,-6.443l-9.022,-5.153c-5.152,-4.511 -7.727,-9.017 -7.727,-14.817l1.283,-4.511c1.938,-6.443 5.802,-10.954 12.245,-12.238l10.306,0c1.938,0.642 3.222,0 3.869,-1.296c1.932,-4.505 3.864,-8.368 6.442,-11.59c5.153,-7.09 11.597,-9.664 19.33,-7.738c7.732,1.296 13.527,5.801 16.748,12.885c1.932,3.868 3.871,7.089 3.871,10.311Z" style="fill-rule:nonzero;"/><path d="M289.504,303.181c-0.647,-5.159 -1.938,-10.955 -3.869,-16.75c-5.152,-10.96 -13.528,-17.403 -24.482,-19.329c-11.596,-0.648 -20.617,3.222 -27.062,12.886c-3.862,5.147 -5.794,9.665 -7.084,14.812c9.017,7.091 22.55,10.313 39.947,10.313l22.55,-1.932Z" style="fill:#ffe700;fill-rule:nonzero;"/><path d="M257.29,307.685c0.642,-4.504 0.642,-8.367 -2.58,-12.237c-3.221,-3.221 -7.085,-6.443 -12.244,-7.091l-13.527,0.648c-4.512,1.932 -7.085,4.512 -8.375,9.017c-0.647,3.869 -0.647,7.738 2.573,11.602c2.58,3.864 7.092,6.442 12.245,7.727l13.527,-0.642c5.159,-1.933 7.733,-5.153 8.381,-9.024Z" style="fill:#d96038;fill-rule:nonzero;"/><path d="M217.343,296.737c-1.29,5.153 -0.648,9.665 3.221,14.818c3.222,4.51 7.733,7.09 14.176,9.016c6.443,1.296 12.886,0.647 17.391,-2.573c4.512,-1.933 7.092,-5.153 8.382,-9.665l0.641,-3.869c0,-3.222 -0.641,-5.795 -2.579,-9.017c-3.863,-5.794 -8.375,-9.016 -14.817,-10.312c-7.085,-1.926 -12.886,-1.284 -18.039,1.938c-3.865,1.931 -7.087,5.153 -8.376,9.664Zm6.442,1.932c0.642,-3.222 1.932,-5.153 5.153,-6.443c3.221,-1.932 8.374,-2.573 12.886,-1.29c5.153,1.29 9.022,4.511 10.954,7.732c1.932,2.573 1.932,5.153 1.29,7.733c-0.647,3.221 -2.579,5.153 -5.159,6.442c-3.863,2.58 -7.727,3.221 -12.886,1.932c-3.864,-1.289 -7.727,-3.221 -10.307,-6.443c-1.931,-3.22 -3.22,-6.441 -1.931,-9.663Z" style="fill-rule:nonzero;"/><path d="M295.299,308.333c0,-4.511 -1.931,-8.374 -5.153,-11.596c-3.862,-2.58 -8.374,-4.511 -13.527,-4.511c-5.801,0 -9.664,1.29 -13.534,4.511c-3.862,2.58 -5.794,6.443 -5.794,10.947c0,3.871 1.932,7.74 5.794,10.313c3.222,3.221 7.733,4.512 12.887,5.152c5.152,0 10.313,-1.932 13.533,-4.505c3.863,-3.219 5.794,-6.441 5.794,-10.311Z" style="fill:#d96038;fill-rule:nonzero;"/><path d="M298.521,308.333c0,-4.511 -1.933,-9.016 -5.153,-12.237c-3.864,-4.518 -9.665,-7.091 -16.75,-7.091c-5.801,0 -11.602,1.932 -15.466,5.795c-4.511,3.222 -6.442,7.091 -7.084,12.885c0,4.519 2.573,9.665 6.443,12.887c3.863,3.87 9.664,5.159 15.459,5.801c6.443,0 11.596,-1.931 16.106,-5.153c3.871,-3.222 6.445,-8.375 6.445,-12.887Zm-6.444,0c0,3.223 -1.932,5.795 -5.152,7.732c-2.58,2.58 -6.442,3.864 -10.954,3.864c-4.512,-0.642 -8.375,-1.932 -10.954,-3.864c-3.222,-1.938 -4.505,-5.158 -4.505,-8.381c0,-3.221 1.283,-6.442 4.505,-9.016c3.221,-1.932 7.732,-3.222 11.602,-3.222c4.505,0 9.017,1.932 12.238,5.153c1.931,1.939 3.22,4.513 3.22,7.734Z" style="fill-rule:nonzero;"/><path d="M251.489,260.011c0,-1.931 0,-1.931 -1.933,-1.931c-1.29,0 -1.29,1.283 -1.29,1.931l3.223,21.902c0,1.296 0.641,1.938 1.932,1.296c1.289,0 1.931,-0.648 1.289,-1.938l-3.221,-21.26Z" style="fill-rule:nonzero;"/><path d="M274.038,262.585c-0.641,0 -1.932,0 -2.579,0.648l-3.222,6.443l-5.153,14.175c-0.641,1.932 0,1.932 1.291,2.58c0.642,0 1.931,0 1.931,-1.296l5.153,-14.17l3.222,-5.159c1.29,-1.283 0.648,-2.573 -0.643,-3.221Z" style="fill-rule:nonzero;"/><path d="M288.215,270.965l-2.58,0l-9.017,11.596c-0.647,1.29 0,2.574 0.642,3.222c0.643,0.648 1.932,0 2.58,-0.648l7.727,-10.948c1.289,-0.642 1.937,-1.29 0.648,-3.222Z" style="fill-rule:nonzero;"/><path d="M235.382,266.455l-3.223,0c-0.641,0 -0.641,1.29 0,2.573l7.085,12.244c0,1.29 1.291,1.29 2.58,1.29c1.289,-0.648 1.932,-1.931 1.289,-2.573l-4.511,-7.739l-3.22,-5.795Z" style="fill-rule:nonzero;"/><path d="M96.217,421.732c-1.29,-5.159 -4.511,-9.664 -9.665,-12.886c-4.511,-2.579 -10.313,-3.222 -16.107,-1.938c-5.16,1.938 -9.665,5.159 -12.244,9.664c-3.222,5.159 -4.512,10.307 -2.58,15.465c1.29,5.802 4.511,9.665 9.665,12.887c4.512,2.579 10.313,3.863 16.107,2.579c5.16,-1.296 9.665,-4.517 12.886,-9.664c2.579,-4.517 3.869,-10.312 1.938,-16.107Z" style="fill:#d96038;fill-rule:nonzero;"/><path d="M53.689,433.322c1.29,5.801 4.512,10.961 10.313,14.182c5.795,3.222 11.596,3.864 18.039,1.926c5.794,-1.283 10.955,-5.146 14.176,-10.307c3.222,-5.801 4.505,-11.596 2.574,-17.391c-1.29,-6.442 -5.154,-10.96 -10.955,-14.823c-5.153,-3.222 -11.596,-4.505 -18.038,-2.58c-5.795,1.296 -10.307,5.159 -13.528,10.961c-3.222,5.147 -4.512,11.59 -2.581,18.032Zm4.512,-1.925c-1.29,-4.518 -0.642,-9.665 1.931,-13.534c2.58,-4.512 6.443,-7.091 11.596,-8.375c4.511,-1.29 9.664,-0.642 14.176,1.933c3.869,2.573 7.091,6.442 7.732,10.954l0.642,4.505c0,4.518 -1.283,7.738 -3.863,10.96c-2.58,3.863 -5.801,6.443 -10.306,7.085c-4.511,1.283 -9.023,0.642 -13.534,-1.938c-3.863,-2.573 -7.084,-6.444 -8.374,-11.59Z" style="fill-rule:nonzero;"/><path d="M82.041,429.46c-9.022,-4.506 -18.687,-5.802 -27.062,-4.506c-1.29,0 -1.932,0.642 -1.29,2.573c0,1.29 0,1.29 1.932,1.29c7.733,-1.938 16.107,-0.642 24.488,4.505c5.153,1.938 8.375,4.518 11.596,7.739l2.573,0l0,-3.222l-12.237,-8.379Z" style="fill-rule:nonzero;"/><path d="M83.973,405.625c-0.642,0 -1.932,0 -2.58,0c-3.863,3.863 -5.794,8.369 -5.794,15.459l1.29,9.665c0,1.289 1.284,1.289 2.574,1.289c1.29,-0.641 1.931,-1.289 1.29,-1.938c-2.58,-9.664 -1.932,-17.391 2.579,-21.254l0.641,-3.221Z" style="fill-rule:nonzero;"/><path d="M347.49,369.541c-5.159,-2.572 -10.313,-3.221 -16.106,-2.572c-5.802,1.925 -9.665,4.505 -12.887,9.016c-3.221,5.152 -3.869,10.313 -2.579,16.106c0.642,5.796 3.863,10.313 9.022,12.887c4.505,3.221 9.664,3.869 15.46,2.572c5.152,-0.641 10.312,-3.862 13.533,-8.367c2.573,-5.16 3.863,-10.313 2.573,-16.107c-1.289,-5.802 -4.51,-10.313 -9.016,-13.535Z" style="fill:#d96038;fill-rule:nonzero;"/><path d="M358.438,382.428c-0.642,-6.443 -3.863,-10.954 -9.664,-14.818c-5.796,-3.221 -11.597,-4.512 -17.391,-3.221c-7.092,1.932 -12.245,5.152 -15.466,10.306c-3.222,5.159 -3.863,11.603 -3.222,18.045c1.932,6.443 5.153,10.948 10.307,14.811c5.801,3.223 11.602,4.519 18.045,3.223c6.442,-1.926 10.948,-5.147 14.169,-10.948c2.58,-3.863 4.512,-7.733 4.512,-12.244l-1.29,-5.154Zm-4.504,1.289c0.642,4.505 0.642,9.665 -2.579,14.17c-3.223,3.869 -6.443,6.442 -11.597,7.738c-4.511,0.643 -9.665,0 -14.176,-3.221c-3.863,-2.58 -6.443,-6.443 -7.732,-10.961c-1.29,-5.146 0,-9.664 2.58,-14.169c2.573,-4.512 7.084,-7.085 11.595,-7.733c5.153,-0.647 9.665,0 13.528,2.573c4.51,1.938 6.443,6.444 8.381,11.603Z" style="fill-rule:nonzero;"/><path d="M341.689,385.001c-9.665,3.221 -17.397,7.738 -22.551,15.466c-0.642,0.641 -0.642,1.938 0,2.578l3.223,-0.641c4.511,-6.443 11.596,-10.961 21.26,-13.534l12.886,-1.932l1.932,-1.938l-1.932,-1.926l-14.818,1.927Z" style="fill-rule:nonzero;"/><path d="M327.514,366.32c-1.932,0 -1.932,0.648 -1.932,2.573c-0.642,7.738 3.222,14.182 13.527,20.624c1.291,0.642 1.938,0 2.58,-0.647c0.642,-1.29 0.642,-2.573 -0.642,-2.573l-5.801,-5.802c-4.512,-3.863 -6.443,-7.732 -6.443,-11.602l-1.289,-2.573Z" style="fill-rule:nonzero;"/><path d="M270.817,209.116c2.58,-4.518 3.221,-10.313 1.289,-16.107c-1.289,-5.159 -5.152,-9.664 -10.312,-12.244l-16.107,-1.29c-5.152,1.932 -9.664,5.795 -11.597,10.312c-3.221,5.147 -3.221,10.307 -1.932,16.108c1.932,5.795 5.802,9.664 10.307,12.237l16.107,1.29c5.803,-1.29 9.024,-5.159 12.245,-10.306Z" style="fill:#d96038;fill-rule:nonzero;"/><path d="M275.971,199.452l-1.29,-7.091c-1.932,-6.443 -5.795,-10.312 -11.597,-13.534c-5.794,-2.573 -11.595,-3.863 -18.038,-1.925c-6.443,2.573 -10.307,5.795 -13.527,12.237c-2.58,5.795 -3.222,11.596 -1.938,17.397c2.578,6.443 5.801,10.948 12.243,14.169l17.397,1.296c5.795,-1.938 10.954,-5.801 14.176,-11.602c1.284,-3.862 2.574,-7.084 2.574,-10.947Zm-6.443,-5.801c1.289,5.153 1.289,9.664 -1.291,14.817c-1.932,3.87 -5.153,7.091 -10.306,9.016l-14.176,-1.925c-4.512,-1.938 -7.732,-5.801 -9.017,-10.312c-1.289,-5.153 -0.648,-9.665 1.284,-14.176c2.579,-4.505 5.801,-7.726 10.954,-9.022l13.534,1.296c4.507,2.573 7.727,5.794 9.018,10.306Z" style="fill-rule:nonzero;"/><path d="M237.961,183.986c-1.29,-0.642 -1.938,-0.642 -2.579,0.642c-1.291,1.29 -0.643,1.938 0,2.58c7.084,4.505 12.885,10.948 16.107,19.97l3.221,12.886c0,1.29 0.642,1.938 2.58,1.938l1.283,-2.58l-3.863,-14.175c-3.221,-9.665 -9.664,-16.756 -16.749,-21.261Z" style="fill-rule:nonzero;"/><path d="M272.106,189.139l-1.931,-1.931c-5.159,0 -9.664,2.579 -14.176,7.726l-5.153,7.739c-0.648,1.284 0,2.574 0.643,2.574l2.579,-0.648l4.505,-6.443c3.87,-5.147 7.732,-7.085 11.603,-7.085l1.93,-1.932Z" style="fill-rule:nonzero;"/><path d="M157.425,308.333c3.221,-5.152 4.505,-10.312 2.573,-16.107c-1.29,-5.795 -4.511,-9.665 -9.017,-12.886c-5.16,-2.573 -10.313,-3.222 -16.107,-2.573c-5.159,1.925 -9.664,5.146 -12.885,9.664c-3.222,5.147 -3.87,10.306 -2.58,15.459c1.932,6.442 5.153,10.313 9.664,12.886c5.153,3.222 10.307,3.869 15.466,3.222c5.794,-1.933 10.306,-5.153 12.886,-9.665Z" style="fill:#d96038;fill-rule:nonzero;"/><path d="M134.226,274.188c-5.794,1.931 -10.954,5.153 -14.175,10.948c-3.863,5.159 -4.505,11.602 -3.222,17.403c1.938,6.444 5.16,11.59 10.955,14.812c5.153,3.869 11.596,4.518 18.039,3.222c5.802,-1.926 10.955,-5.795 14.176,-10.948c1.932,-3.863 3.221,-7.732 3.221,-12.244l-0.642,-5.153c-1.29,-6.443 -5.153,-11.596 -10.313,-14.817c-5.795,-3.223 -11.596,-4.514 -18.039,-3.223Zm-9.664,14.168c2.58,-5.147 6.443,-7.726 10.954,-9.016c5.153,-0.648 9.023,0 13.528,2.573c4.511,1.938 7.091,6.443 8.381,10.961c1.283,5.147 0.641,9.664 -1.938,14.169c-2.574,4.512 -6.443,7.084 -10.948,7.732c-5.159,1.289 -9.665,0.648 -14.176,-1.932c-3.869,-2.58 -7.091,-6.442 -8.374,-10.954c-0.649,-5.152 0,-9.663 2.573,-13.533Z" style="fill-rule:nonzero;"/><path d="M126.494,280.63l-3.222,0.642c0,1.29 0,1.938 1.29,2.58c6.443,4.505 11.596,11.596 14.176,21.261l2.579,12.886c0,1.29 0,1.932 1.284,1.932l1.938,-1.932c0,-4.511 -0.648,-9.665 -1.938,-14.817c-3.222,-10.307 -8.375,-17.399 -16.107,-22.552Z" style="fill-rule:nonzero;"/><path d="M143.891,292.875c-2.574,2.573 -4.511,5.147 -5.795,7.726c-0.648,1.29 0,1.938 0.642,2.58l2.579,-0.643l4.505,-6.442c4.512,-3.87 8.381,-6.443 12.886,-6.443l1.938,-1.296c0,-1.283 -0.648,-1.925 -1.938,-2.573c-4.505,-0.001 -9.665,2.572 -14.817,7.091Z" style="fill-rule:nonzero;"/><path d="M257.932,500.331c-1.932,3.863 -2.58,8.381 -0.642,12.244c0.642,3.863 3.862,7.085 7.085,9.022l12.243,0.643c3.864,-0.643 7.085,-3.864 9.017,-7.085c1.932,-3.869 1.932,-7.739 1.29,-12.245c-1.29,-3.862 -3.863,-7.084 -7.733,-9.021l-11.596,-1.284c-4.512,1.284 -7.084,3.863 -9.664,7.726Z" style="fill:#d96038;fill-rule:nonzero;"/><path d="M254.71,513.217c1.29,5.159 4.512,8.381 9.022,10.306l13.527,1.938c5.154,-1.938 8.375,-5.159 10.307,-9.664c2.579,-3.863 3.222,-8.381 1.938,-13.527c-1.938,-4.518 -5.159,-8.381 -9.021,-10.961l-14.177,-1.284c-5.153,1.932 -8.374,5.153 -10.954,9.023c-1.931,4.505 -2.574,9.664 -0.642,14.169Zm5.153,-1.283c-1.29,-3.87 -1.29,-7.091 0.648,-10.313c1.283,-2.573 3.863,-5.153 7.084,-5.795l10.307,0c2.58,1.926 5.159,4.505 6.442,7.727l0.648,3.863l-1.29,6.443c-1.932,3.221 -4.512,5.158 -7.732,6.442l-10.307,-1.284c-2.579,-1.288 -5.151,-3.862 -5.8,-7.083Z" style="fill-rule:nonzero;"/><path d="M48.537,304.464c1.932,-3.222 1.932,-7.727 1.29,-12.238c-1.29,-3.87 -4.511,-6.443 -7.733,-9.017l-12.244,-0.648c-3.863,1.29 -7.084,3.87 -9.016,7.733c-2.58,3.222 -2.58,7.727 -1.29,11.596c1.29,4.512 3.863,7.092 7.733,9.665l11.596,0.647c4.51,-1.295 7.732,-3.869 9.664,-7.738Z" style="fill:#d96038;fill-rule:nonzero;"/><path d="M18.253,289.004c-1.931,3.87 -2.573,9.017 -1.29,13.534c1.938,5.146 4.511,9.018 9.022,10.949l13.528,1.289c5.159,-1.932 9.022,-4.512 10.954,-9.017c2.58,-4.518 3.221,-9.664 1.29,-13.534c-1.29,-5.153 -4.512,-9.017 -8.375,-10.954l-14.175,-1.284c-5.152,1.927 -8.374,5.148 -10.954,9.017Zm5.153,2.574c1.29,-3.222 3.87,-5.795 7.091,-6.443l10.307,0.648c3.221,1.29 5.153,3.87 6.442,7.733l0,3.863l-1.29,5.802c-1.932,3.222 -3.864,5.152 -7.085,6.442l-10.306,-0.641c-3.222,-1.298 -5.16,-3.87 -6.443,-7.74c-0.647,-3.221 -0.647,-6.442 1.284,-9.664Z" style="fill-rule:nonzero;"/><path d="M327.514,321.219c-1.29,-3.869 -3.222,-7.091 -6.443,-9.663c-3.862,-2.573 -7.732,-3.223 -11.595,-3.223c-4.512,1.29 -7.733,3.223 -10.307,6.443c-2.58,3.869 -3.222,7.733 -2.58,12.238c0.642,3.869 2.58,7.09 6.442,9.663c3.222,2.58 7.085,3.87 11.597,2.58l9.664,-5.801c2.58,-3.862 3.87,-7.726 3.222,-12.237Z" style="fill:#d96038;fill-rule:nonzero;"/><path d="M308.833,305.76c-5.159,1.284 -9.022,3.863 -12.244,7.728c-2.579,4.511 -3.221,8.38 -3.221,13.527c1.289,5.158 3.221,9.022 7.731,11.602c4.512,3.222 9.017,4.505 14.177,3.222c4.505,-0.642 8.374,-3.222 10.947,-7.733c3.222,-3.221 4.512,-8.374 3.222,-12.886c-0.642,-5.794 -3.222,-9.663 -7.084,-12.236c-4.511,-2.582 -9.023,-3.872 -13.528,-3.224Zm10.306,7.727c3.223,1.938 5.153,4.511 5.802,8.38l0,2.574c0,2.573 -0.648,4.511 -2.579,7.09l-8.375,5.146c-3.87,0.649 -7.091,0 -9.664,-1.925c-2.58,-2.58 -4.512,-5.159 -5.153,-9.022c-0.647,-3.221 0,-6.442 1.931,-9.665c1.932,-2.578 5.153,-4.51 8.376,-4.51c3.219,-0.648 6.441,0.001 9.662,1.932Z" style="fill-rule:nonzero;"/><path d="M309.476,178.185c2.579,-3.863 3.221,-7.084 3.221,-11.596c-0.642,-4.511 -3.221,-7.732 -6.443,-9.664c-3.862,-3.221 -7.731,-3.87 -12.243,-3.221c-3.864,1.29 -7.085,3.221 -10.307,6.442c-1.932,3.222 -3.221,7.733 -2.58,11.596c1.291,4.512 3.222,7.733 6.443,10.307c3.87,1.938 7.732,3.221 12.244,2.579c3.863,-1.283 7.085,-2.579 9.665,-6.443Z" style="fill:#d96038;fill-rule:nonzero;"/><path d="M293.368,151.772c-4.512,0 -9.023,3.221 -10.954,7.084c-3.223,4.511 -4.512,9.022 -3.223,13.527c0.648,4.518 3.223,8.381 7.092,11.603c3.862,2.58 9.016,3.863 13.527,3.222c5.153,-1.29 9.022,-3.222 12.244,-7.733c2.573,-3.87 3.863,-8.375 2.573,-12.886c-0.642,-5.153 -3.221,-9.664 -7.732,-12.237c-3.864,-2.58 -8.374,-3.87 -13.527,-2.58Zm1.289,4.505c3.864,-0.642 7.085,0.648 9.665,1.938c2.573,2.579 5.153,5.153 5.153,8.374l0,2.574c0,2.58 0,5.159 -1.933,7.739c-1.932,2.573 -4.512,5.147 -8.374,5.147c-3.222,0.648 -7.092,0 -9.665,-2.574c-3.221,-1.932 -5.159,-4.511 -5.801,-8.375c0,-3.222 0,-6.443 2.58,-9.665c1.933,-2.579 4.506,-4.51 8.375,-5.158Z" style="fill-rule:nonzero;"/><path d="M261.152,366.969c-3.221,-2.58 -7.084,-3.223 -10.954,-2.58c-4.511,1.283 -8.374,2.58 -10.306,6.442c-2.58,3.221 -3.869,7.727 -2.58,11.597c0.648,3.869 2.58,7.731 6.443,10.312c3.222,1.926 7.091,3.222 10.954,1.926c4.512,0 8.374,-1.926 10.307,-5.795c2.579,-3.869 3.221,-7.733 2.579,-12.238c-0.641,-3.87 -2.578,-7.092 -6.443,-9.664Z" style="fill:#d96038;fill-rule:nonzero;"/><path d="M241.824,394.665c4.512,3.222 9.022,3.869 13.527,3.222c5.16,-1.284 9.023,-3.222 12.244,-7.728c2.58,-3.862 3.222,-8.38 3.222,-13.527c-1.289,-5.158 -3.863,-9.022 -7.733,-11.602c-4.511,-2.58 -8.374,-4.506 -13.527,-3.222c-4.511,1.289 -9.021,3.863 -11.596,7.732c-3.222,3.87 -3.87,8.375 -3.222,13.534c0.643,5.148 3.222,8.369 7.085,11.591Zm23.193,-17.391l0.647,2.579c0,2.574 -1.289,5.147 -2.58,7.085c-1.932,3.221 -5.152,5.152 -8.374,5.801c-3.221,0 -6.443,0 -9.664,-2.58c-3.222,-1.938 -4.511,-5.158 -5.802,-8.38c-0.642,-3.222 0,-6.443 2.58,-9.665c2.58,-2.573 5.153,-4.505 8.374,-5.146c3.87,-0.648 7.092,0 10.313,2.572c2.573,1.934 3.864,4.512 4.506,7.734Z" style="fill-rule:nonzero;"/><path d="M128.432,484.866c2.573,-3.864 3.221,-7.727 2.573,-11.59c-1.29,-4.518 -2.573,-7.74 -6.443,-10.313c-3.221,-2.572 -7.084,-3.869 -11.596,-2.572c-3.863,0.641 -7.733,2.572 -10.306,6.442c-1.938,3.222 -3.221,7.085 -2.58,11.59c1.29,3.87 2.58,7.739 6.443,9.664c3.863,2.58 7.733,3.222 11.596,2.58c3.87,-0.643 7.733,-2.58 10.313,-5.801Z" style="fill:#d96038;fill-rule:nonzero;"/><path d="M100.722,465.536c-2.573,3.871 -3.863,8.382 -3.221,12.887c1.29,5.159 3.221,9.022 7.732,11.602c3.87,3.223 8.375,3.864 13.534,3.223c4.505,-0.643 9.017,-3.223 11.596,-7.085c2.574,-4.518 3.863,-9.022 2.574,-13.534c0,-5.153 -3.222,-9.017 -7.085,-12.237c-3.863,-2.58 -8.375,-3.222 -13.528,-2.58c-5.159,0.641 -9.023,3.219 -11.602,7.724Zm27.71,7.74l0,1.925c0,3.222 -0.648,5.801 -1.938,7.739c-2.574,3.222 -5.153,5.146 -8.375,5.146l-10.306,-1.925c-2.58,-2.58 -4.511,-4.518 -5.153,-8.381c-0.648,-3.863 0,-7.085 2.573,-9.665c1.932,-2.58 4.512,-4.505 8.375,-5.801c3.221,0 6.443,0.647 9.665,2.58c2.579,1.939 4.51,5.161 5.159,8.382Z" style="fill-rule:nonzero;"/></g></g><rect id="PATH77" x="2.92" y="2.74" width="366.67" height="582.52" style="fill:none;stroke:#000;stroke-width:3px;"/></svg>