<?xml version="1.0" encoding="utf-8"?>
<svg version="1.1" viewBox="0 0 900 300" width="900" height="300" style="stroke:none;stroke-linecap:butt;stroke-linejoin:miter;stroke-width:1;stroke-dasharray:none;fill:#000000;fill-opacity:1;fill-rule:evenodd" font-family="Arial" font-size="15" xmlns:xlink="http://www.w3.org/1999/xlink" xmlns="http://www.w3.org/2000/svg">
  <line x1="50" y1="250" x2="250" y2="250" style="stroke:#000000;stroke-linecap:round;stroke-width:2;" />
  <line x1="50" y1="250" x2="250" y2="50" style="stroke:#000000;stroke-linecap:round;stroke-width:2;" />
  <line x1="50" y1="50" x2="50" y2="250" style="stroke:#000000;stroke-linecap:round;stroke-width:2;" />
  <line x1="250" y1="50" x2="250" y2="250" style="stroke:#000000;stroke-linecap:round;stroke-width:2;" />
  <line x1="250" y1="250" x2="50" y2="50" style="stroke:#000000;stroke-linecap:round;stroke-width:2;" />
  <line x1="350" y1="250" x2="550" y2="250" style="stroke:#000000;stroke-linecap:round;stroke-width:2;" />
  <line x1="350" y1="250" x2="550" y2="50" style="stroke:#000000;stroke-linecap:round;stroke-width:2;" />
  <line x1="350" y1="50" x2="350" y2="250" style="stroke:#000000;stroke-linecap:round;stroke-width:2;" />
  <line x1="550" y1="50" x2="550" y2="250" style="stroke:#000000;stroke-linecap:round;stroke-width:2;" />
  <line x1="550" y1="250" x2="350" y2="50" style="stroke:#000000;stroke-linecap:round;stroke-width:2;" />
  <path d="M410,50C410,28.0566 428.0567,10 450,10C471.9434,10 490,28.0566 490,50C490,71.9434 471.9434,90 450,90C428.0567,90 410,71.9434 410,50z" style="stroke:#000000;stroke-width:2;fill:none;fill-opacity:0;" />
  <path d="M840,50C917.1135,127.1135 859.0592,267.2756 750.0042,267.2792C640.9493,267.2829 582.8856,127.1246 659.994,50.006L750,140z" style="stroke:#000000;stroke-linecap:round;stroke-width:2;fill:none;fill-opacity:0;" />
  <line x1="750" y1="140" x2="660" y2="230" style="stroke:#000000;stroke-linecap:round;stroke-width:2;" />
  <line x1="840" y1="230" x2="750" y2="140" style="stroke:#000000;stroke-linecap:round;stroke-width:2;" />
</svg>