<?xml version="1.0" encoding="UTF-8" standalone="no"?><!DOCTYPE svg PUBLIC "-//W3C//DTD SVG 1.1//EN" "http://www.w3.org/Graphics/SVG/1.1/DTD/svg11.dtd"><svg width="100%" height="100%" viewBox="0 0 1400 1400" version="1.1" xmlns="http://www.w3.org/2000/svg" xmlns:xlink="http://www.w3.org/1999/xlink" xml:space="preserve" xmlns:serif="http://www.serif.com/" style="fill-rule:evenodd;clip-rule:evenodd;stroke-linecap:round;stroke-linejoin:round;stroke-miterlimit:1.5;"><rect x="500" y="500" width="400" height="400" style="fill:none;stroke:#000;stroke-width:8.03px;"/><path d="M300,100l400,400" style="fill:none;stroke:#000;stroke-width:8.03px;"/><path d="M500,100l400,400" style="fill:none;stroke:#000;stroke-width:8.03px;"/><path d="M700,100l400,400" style="fill:none;stroke:#000;stroke-width:8.03px;"/><path d="M300,100l400,0" style="fill:none;stroke:#000;stroke-width:8.03px;"/><path d="M500,300l400,0" style="fill:none;stroke:#000;stroke-width:8.03px;"/><circle cx="500" cy="100" r="20" style="fill:#ebebeb;stroke:#000;stroke-width:8.03px;"/><circle cx="300" cy="100" r="20" style="fill:#ebebeb;stroke:#000;stroke-width:8.03px;"/><circle cx="700" cy="300" r="20" style="fill:#ebebeb;stroke:#000;stroke-width:8.03px;"/><circle cx="700" cy="100" r="20" style="fill:#ebebeb;stroke:#000;stroke-width:8.03px;"/><circle cx="900" cy="300" r="20" style="fill:#ebebeb;stroke:#000;stroke-width:8.03px;"/><path d="M1100,1300l-400,-400" style="fill:none;stroke:#000;stroke-width:8.03px;"/><path d="M900,1300l-400,-400" style="fill:none;stroke:#000;stroke-width:8.03px;"/><path d="M700,1300l-400,-400" style="fill:none;stroke:#000;stroke-width:8.03px;"/><path d="M1100,1300l-400,0" style="fill:none;stroke:#000;stroke-width:8.03px;"/><path d="M900,1100l-400,0" style="fill:none;stroke:#000;stroke-width:8.03px;"/><circle cx="900" cy="1300" r="20" style="fill:#ebebeb;stroke:#000;stroke-width:8.03px;"/><circle cx="1100" cy="1300" r="20" style="fill:#ebebeb;stroke:#000;stroke-width:8.03px;"/><circle cx="700" cy="1100" r="20" style="fill:#ebebeb;stroke:#000;stroke-width:8.03px;"/><circle cx="700" cy="1300" r="20" style="fill:#ebebeb;stroke:#000;stroke-width:8.03px;"/><circle cx="500" cy="1100" r="20" style="fill:#ebebeb;stroke:#000;stroke-width:8.03px;"/><path d="M100,1100l400,-400" style="fill:none;stroke:#000;stroke-width:8.03px;"/><path d="M100,900l400,-400" style="fill:none;stroke:#000;stroke-width:8.03px;"/><path d="M100,700l400,-400" style="fill:none;stroke:#000;stroke-width:8.03px;"/><path d="M100,1100l0,-400" style="fill:none;stroke:#000;stroke-width:8.03px;"/><path d="M300,900l0,-400" style="fill:none;stroke:#000;stroke-width:8.03px;"/><path d="M80,900c0,-11.038 8.962,-20 20,-20c11.038,0 20,8.962 20,20c0,11.038 -8.962,20 -20,20c-11.038,0 -20,-8.962 -20,-20Z" style="fill:#ebebeb;stroke:#000;stroke-width:8.03px;"/><path d="M280,900c0,-11.038 8.962,-20 20,-20c11.038,0 20,8.962 20,20c0,11.038 -8.962,20 -20,20c-11.038,0 -20,-8.962 -20,-20Z" style="fill:#ebebeb;stroke:#000;stroke-width:8.03px;"/><path d="M80,1100c0,-11.038 8.962,-20 20,-20c11.038,0 20,8.962 20,20c0,11.038 -8.962,20 -20,20c-11.038,0 -20,-8.962 -20,-20Z" style="fill:#ebebeb;stroke:#000;stroke-width:8.03px;"/><path d="M280,700c0,-11.038 8.962,-20 20,-20c11.038,0 20,8.962 20,20c0,11.038 -8.962,20 -20,20c-11.038,0 -20,-8.962 -20,-20Z" style="fill:#ebebeb;stroke:#000;stroke-width:8.03px;"/><path d="M80,700c0,-11.038 8.962,-20 20,-20c11.038,0 20,8.962 20,20c0,11.038 -8.962,20 -20,20c-11.038,0 -20,-8.962 -20,-20Z" style="fill:#ebebeb;stroke:#000;stroke-width:8.03px;"/><path d="M280,500c0,-11.038 8.962,-20 20,-20c11.038,0 20,8.962 20,20c0,11.038 -8.962,20 -20,20c-11.038,0 -20,-8.962 -20,-20Z" style="fill:#ebebeb;stroke:#000;stroke-width:8.03px;"/><path d="M1300,300l-400,400" style="fill:none;stroke:#000;stroke-width:8.03px;"/><path d="M1300,500l-400,400" style="fill:none;stroke:#000;stroke-width:8.03px;"/><path d="M1300,700l-400,400" style="fill:none;stroke:#000;stroke-width:8.03px;"/><path d="M1300,300l0,400" style="fill:none;stroke:#000;stroke-width:8.03px;"/><path d="M1100,500l0,400" style="fill:none;stroke:#000;stroke-width:8.03px;"/><path d="M1320,500c0,11.038 -8.962,20 -20,20c-11.038,0 -20,-8.962 -20,-20c0,-11.038 8.962,-20 20,-20c11.038,0 20,8.962 20,20Z" style="fill:#ebebeb;stroke:#000;stroke-width:8.03px;"/><path d="M1120,500c0,11.038 -8.962,20 -20,20c-11.038,0 -20,-8.962 -20,-20c0,-11.038 8.962,-20 20,-20c11.038,0 20,8.962 20,20Z" style="fill:#ebebeb;stroke:#000;stroke-width:8.03px;"/><path d="M1320,300c0,11.038 -8.962,20 -20,20c-11.038,0 -20,-8.962 -20,-20c0,-11.038 8.962,-20 20,-20c11.038,0 20,8.962 20,20Z" style="fill:#ebebeb;stroke:#000;stroke-width:8.03px;"/><path d="M1120,700c0,11.038 -8.962,20 -20,20c-11.038,0 -20,-8.962 -20,-20c0,-11.038 8.962,-20 20,-20c11.038,0 20,8.962 20,20Z" style="fill:#ebebeb;stroke:#000;stroke-width:8.03px;"/><path d="M1320,700c0,11.038 -8.962,20 -20,20c-11.038,0 -20,-8.962 -20,-20c0,-11.038 8.962,-20 20,-20c11.038,0 20,8.962 20,20Z" style="fill:#ebebeb;stroke:#000;stroke-width:8.03px;"/><path d="M1120,900c0,11.038 -8.962,20 -20,20c-11.038,0 -20,-8.962 -20,-20c0,-11.038 8.962,-20 20,-20c11.038,0 20,8.962 20,20Z" style="fill:#ebebeb;stroke:#000;stroke-width:8.03px;"/><circle cx="900" cy="500" r="20" style="fill:#ebebeb;stroke:#000;stroke-width:8.03px;"/><circle cx="700" cy="500" r="20" style="fill:#ebebeb;stroke:#000;stroke-width:8.03px;"/><circle cx="500" cy="500" r="20" style="fill:#ebebeb;stroke:#000;stroke-width:8.03px;"/><circle cx="900" cy="700" r="20" style="fill:#ebebeb;stroke:#000;stroke-width:8.03px;"/><circle cx="500" cy="700" r="20" style="fill:#ebebeb;stroke:#000;stroke-width:8.03px;"/><circle cx="700" cy="900" r="20" style="fill:#ebebeb;stroke:#000;stroke-width:8.03px;"/><circle cx="500" cy="900" r="20" style="fill:#ebebeb;stroke:#000;stroke-width:8.03px;"/><circle cx="900" cy="900" r="20" style="fill:#ebebeb;stroke:#000;stroke-width:8.03px;"/><circle cx="900" cy="1100" r="20" style="fill:#ebebeb;stroke:#000;stroke-width:8.03px;"/><circle cx="500" cy="300" r="20" style="fill:#ebebeb;stroke:#000;stroke-width:8.03px;"/></svg>