<?xml version="1.0" encoding="UTF-8" standalone="no"?><!DOCTYPE svg PUBLIC "-//W3C//DTD SVG 1.1//EN" "http://www.w3.org/Graphics/SVG/1.1/DTD/svg11.dtd"><svg width="100%" height="100%" viewBox="0 0 4167 4167" version="1.1" xmlns="http://www.w3.org/2000/svg" xmlns:xlink="http://www.w3.org/1999/xlink" xml:space="preserve" xmlns:serif="http://www.serif.com/" style="fill-rule:evenodd;clip-rule:evenodd;stroke-linecap:round;stroke-linejoin:round;stroke-miterlimit:1.5;"><rect x="416.667" y="416.667" width="3333.33" height="3333.33" style="fill:#fff;"/><rect x="416.667" y="416.667" width="3333.33" height="3333.33" style="fill:none;stroke:#000;stroke-width:33.47px;"/><rect x="1250" y="1250" width="1666.67" height="1666.67" style="fill:none;stroke:#000;stroke-width:33.47px;"/><path d="M2083.33,416.667l0,833.333" style="fill:none;stroke:#000;stroke-width:33.47px;"/><path d="M2916.67,2083.33l833.333,0" style="fill:none;stroke:#000;stroke-width:33.47px;"/><path d="M2083.33,2916.67l0,833.333" style="fill:none;stroke:#000;stroke-width:33.47px;"/><path d="M1250,2083.33l-833.333,0" style="fill:none;stroke:#000;stroke-width:33.47px;"/><circle cx="2083.33" cy="416.667" r="83.333" style="fill:#ebebeb;stroke:#000;stroke-width:33.47px;"/><circle cx="2916.67" cy="1250" r="83.333" style="fill:#ebebeb;stroke:#000;stroke-width:33.47px;"/><circle cx="416.667" cy="416.667" r="83.333" style="fill:#ebebeb;stroke:#000;stroke-width:33.47px;"/><circle cx="2083.33" cy="1250" r="83.333" style="fill:#ebebeb;stroke:#000;stroke-width:33.47px;"/><circle cx="1250" cy="1250" r="83.333" style="fill:#ebebeb;stroke:#000;stroke-width:33.47px;"/><circle cx="3750" cy="416.667" r="83.333" style="fill:#ebebeb;stroke:#000;stroke-width:33.47px;"/><circle cx="2916.67" cy="2083.33" r="83.333" style="fill:#ebebeb;stroke:#000;stroke-width:33.47px;"/><circle cx="416.667" cy="2083.33" r="83.333" style="fill:#ebebeb;stroke:#000;stroke-width:33.47px;"/><circle cx="1250" cy="2083.33" r="83.333" style="fill:#ebebeb;stroke:#000;stroke-width:33.47px;"/><circle cx="3750" cy="2083.33" r="83.333" style="fill:#ebebeb;stroke:#000;stroke-width:33.47px;"/><circle cx="3750" cy="3750" r="83.333" style="fill:#ebebeb;stroke:#000;stroke-width:33.47px;"/><circle cx="2083.33" cy="2916.67" r="83.333" style="fill:#ebebeb;stroke:#000;stroke-width:33.47px;"/><circle cx="1250" cy="2916.67" r="83.333" style="fill:#ebebeb;stroke:#000;stroke-width:33.47px;"/><circle cx="2083.33" cy="3750" r="83.333" style="fill:#ebebeb;stroke:#000;stroke-width:33.47px;"/><circle cx="416.667" cy="3750" r="83.333" style="fill:#ebebeb;stroke:#000;stroke-width:33.47px;"/><circle cx="2916.67" cy="2916.67" r="83.333" style="fill:#ebebeb;stroke:#000;stroke-width:33.47px;"/><circle cx="1250" cy="1250" r="237.847" style="fill:#6d70ff;stroke:#000;stroke-width:38.21px;"/><circle cx="2916.67" cy="2083.33" r="237.847" style="fill:#ff6df5;stroke:#000;stroke-width:38.21px;"/><circle cx="3750" cy="2083.33" r="237.847" style="fill:#ff6df5;stroke:#000;stroke-width:38.21px;"/><circle cx="1250" cy="2083.33" r="237.847" style="fill:#6d70ff;stroke:#000;stroke-width:38.21px;"/><circle cx="1250" cy="2916.67" r="237.847" style="fill:#6d70ff;stroke:#000;stroke-width:38.21px;"/></svg>