<?xml version="1.0" encoding="UTF-8" standalone="no"?><!DOCTYPE svg PUBLIC "-//W3C//DTD SVG 1.1//EN" "http://www.w3.org/Graphics/SVG/1.1/DTD/svg11.dtd"><svg width="300" height="300" viewBox="0 0 300 300" version="1.1" xmlns="http://www.w3.org/2000/svg" xmlns:xlink="http://www.w3.org/1999/xlink" xml:space="preserve" xmlns:serif="http://www.serif.com/" style="fill-rule:evenodd;clip-rule:evenodd;"><path d="M50,250l200,0" style="fill:none;stroke:#000;stroke-width:2px;"/><path d="M50,250l200,-200" style="fill:none;stroke:#000;stroke-width:2px;"/><path d="M50,50l0,200" style="fill:none;stroke:#000;stroke-width:2px;"/><path d="M20,250c0,-16.458 13.542,-30 30,-30c16.457,0 30,13.542 30,30c0,16.457 -13.543,30 -30,30c-16.458,0 -30,-13.543 -30,-30Z" style="fill:#fff;stroke:#000;stroke-width:2px;"/><path d="M250,50l0,200" style="fill:none;stroke:#000;stroke-width:2px;"/><path d="M250,250l-200,-200" style="fill:none;stroke:#000;stroke-width:2px;"/><path d="M120,150c0,-16.458 13.542,-30 30,-30c16.458,0 30,13.542 30,30c0,16.458 -13.542,30 -30,30c-16.458,0 -30,-13.542 -30,-30Z" style="fill:#fff;stroke:#000;stroke-width:2px;"/><path d="M220,250c0,-16.458 13.542,-30 30,-30c16.457,0 30,13.542 30,30c0,16.457 -13.543,30 -30,30c-16.458,0 -30,-13.543 -30,-30Z" style="fill:#fff;stroke:#000;stroke-width:2px;"/><path d="M20,50c0,-16.458 13.542,-30 30,-30c16.457,0 30,13.542 30,30c0,16.457 -13.543,30 -30,30c-16.458,0 -30,-13.543 -30,-30Z" style="fill:#fff;stroke:#000;stroke-width:2px;"/><path d="M220,50c0,-16.458 13.542,-30 30,-30c16.457,0 30,13.542 30,30c0,16.457 -13.543,30 -30,30c-16.458,0 -30,-13.543 -30,-30Z" style="fill:#fff;stroke:#000;stroke-width:2px;"/></svg>
