<!DOCTYPE svg PUBLIC "-//W3C//DTD SVG 1.1//EN" "http://www.w3.org/Graphics/SVG/1.1/DTD/svg11.dtd"[]><svg width="1400" height="1400" viewBox="0 0 1400 1400" version="1.1" xmlns="http://www.w3.org/2000/svg" xmlns:xlink="http://www.w3.org/1999/xlink" xml:space="preserve" xmlns:serif="http://www.serif.com/" style="fill-rule:evenodd;clip-rule:evenodd;stroke-linecap:round;stroke-linejoin:round;stroke-miterlimit:1.5;">
  <path d="M699.459,699.369l554.256,-320l0,640l-554.256,320l0,-640Z" style="fill:#ff8767;stroke:#000;stroke-width:8.03px;" />
  <path d="M699.459,59.369l554.256,320l-554.256,320l-554.256,-320l554.256,-320Z" style="fill:#fff367;stroke:#000;stroke-width:8.03px;" />
  <path d="M699.459,699.369l-554.256,-320l0,640l554.256,320l0,-640Z" style="fill:#00abda;stroke:#000;stroke-width:8.03px;" />
  <path d="M699.459,699.369l554.256,320" style="fill:none;stroke:#000;stroke-width:8.03px;" />
  <path d="M699.459,1339.37l554.256,-960" style="fill:none;stroke:#000;stroke-width:8.03px;" />
  <path d="M1253.71,699.369l-554.256,320l-554.256,-320" style="fill:none;stroke:#000;stroke-width:8.03px;" />
  <path d="M699.459,699.369l-554.256,320" style="fill:none;stroke:#000;stroke-width:8.03px;" />
  <path d="M145.203,379.369l554.256,960" style="fill:none;stroke:#000;stroke-width:8.03px;" />
  <path d="M422.331,1179.37l0,-640l554.256,-320" style="fill:none;stroke:#000;stroke-width:8.03px;" />
  <path d="M976.587,1179.37l0,-640l-554.256,-320" style="fill:none;stroke:#000;stroke-width:8.03px;" />
  <path d="M145.203,379.369l1108.51,0" style="fill:none;stroke:#000;stroke-width:8.03px;" />
  <path d="M699.459,699.369l0,-640" style="fill:none;stroke:#000;stroke-width:8.03px;" />
  <path d="M719.5,699c0,11.038 -8.962,20 -20,20c-11.038,0 -20,-8.962 -20,-20c0,-11.038 8.962,-20 20,-20c11.038,0 20,8.962 20,20Z" style="fill:#ebebeb;stroke:#000;stroke-width:8.03px;" />
  <path d="M718.5,381c0,11.038 -8.962,20 -20,20c-11.038,0 -20,-8.962 -20,-20c0,-11.038 8.962,-20 20,-20c11.038,0 20,8.962 20,20Z" style="fill:#ebebeb;stroke:#000;stroke-width:8.03px;" />
  <path d="M718.5,61c0,11.038 -8.962,20 -20,20c-11.038,0 -20,-8.962 -20,-20c0,-11.038 8.962,-20 20,-20c11.038,0 20,8.962 20,20Z" style="fill:#ebebeb;stroke:#000;stroke-width:8.03px;" />
  <path d="M442.5,219c0,11.038 -8.962,20 -20,20c-11.038,0 -20,-8.962 -20,-20c0,-11.038 8.962,-20 20,-20c11.038,0 20,8.962 20,20Z" style="fill:#ebebeb;stroke:#000;stroke-width:8.03px;" />
  <path d="M994.5,219c0,11.038 -8.962,20 -20,20c-11.038,0 -20,-8.962 -20,-20c0,-11.038 8.962,-20 20,-20c11.038,0 20,8.962 20,20Z" style="fill:#ebebeb;stroke:#000;stroke-width:8.03px;" />
  <path d="M995.5,539c0,11.038 -8.962,20 -20,20c-11.038,0 -20,-8.962 -20,-20c0,-11.038 8.962,-20 20,-20c11.038,0 20,8.962 20,20Z" style="fill:#ebebeb;stroke:#000;stroke-width:8.03px;" />
  <path d="M1273.5,378c0,11.038 -8.962,20 -20,20c-11.038,0 -20,-8.962 -20,-20c0,-11.038 8.962,-20 20,-20c11.038,0 20,8.962 20,20Z" style="fill:#ebebeb;stroke:#000;stroke-width:8.03px;" />
  <path d="M720.5,1016c0,11.038 -8.962,20 -20,20c-11.038,0 -20,-8.962 -20,-20c0,-11.038 8.962,-20 20,-20c11.038,0 20,8.962 20,20Z" style="fill:#ebebeb;stroke:#000;stroke-width:8.03px;" />
  <path d="M996.5,856c0,11.038 -8.962,20 -20,20c-11.038,0 -20,-8.962 -20,-20c0,-11.038 8.962,-20 20,-20c11.038,0 20,8.962 20,20Z" style="fill:#ebebeb;stroke:#000;stroke-width:8.03px;" />
  <path d="M1274.5,695c0,11.038 -8.962,20 -20,20c-11.038,0 -20,-8.962 -20,-20c0,-11.038 8.962,-20 20,-20c11.038,0 20,8.962 20,20Z" style="fill:#ebebeb;stroke:#000;stroke-width:8.03px;" />
  <path d="M720.5,1339c0,11.038 -8.962,20 -20,20c-11.038,0 -20,-8.962 -20,-20c0,-11.038 8.962,-20 20,-20c11.038,0 20,8.962 20,20Z" style="fill:#ebebeb;stroke:#000;stroke-width:8.03px;" />
  <path d="M442.5,539c0,11.038 -8.962,20 -20,20c-11.038,0 -20,-8.962 -20,-20c0,-11.038 8.962,-20 20,-20c11.038,0 20,8.962 20,20Z" style="fill:#ebebeb;stroke:#000;stroke-width:8.03px;" />
  <path d="M443.5,856c0,11.038 -8.962,20 -20,20c-11.038,0 -20,-8.962 -20,-20c0,-11.038 8.962,-20 20,-20c11.038,0 20,8.962 20,20Z" style="fill:#ebebeb;stroke:#000;stroke-width:8.03px;" />
  <path d="M443.5,1179c0,11.038 -8.962,20 -20,20c-11.038,0 -20,-8.962 -20,-20c0,-11.038 8.962,-20 20,-20c11.038,0 20,8.962 20,20Z" style="fill:#ebebeb;stroke:#000;stroke-width:8.03px;" />
  <path d="M165.5,384c0,11.038 -8.962,20 -20,20c-11.038,0 -20,-8.962 -20,-20c0,-11.038 8.962,-20 20,-20c11.038,0 20,8.962 20,20Z" style="fill:#ebebeb;stroke:#000;stroke-width:8.03px;" />
  <path d="M166.5,701c0,11.038 -8.962,20 -20,20c-11.038,0 -20,-8.962 -20,-20c0,-11.038 8.962,-20 20,-20c11.038,0 20,8.962 20,20Z" style="fill:#ebebeb;stroke:#000;stroke-width:8.03px;" />
  <path d="M166.5,1024c0,11.038 -8.962,20 -20,20c-11.038,0 -20,-8.962 -20,-20c0,-11.038 8.962,-20 20,-20c11.038,0 20,8.962 20,20Z" style="fill:#ebebeb;stroke:#000;stroke-width:8.03px;" />
  <path d="M996.5,1179c0,11.038 -8.962,20 -20,20c-11.038,0 -20,-8.962 -20,-20c0,-11.038 8.962,-20 20,-20c11.038,0 20,8.962 20,20Z" style="fill:#ebebeb;stroke:#000;stroke-width:8.03px;" />
  <path d="M1274.5,1018c0,11.038 -8.962,20 -20,20c-11.038,0 -20,-8.962 -20,-20c0,-11.038 8.962,-20 20,-20c11.038,0 20,8.962 20,20Z" style="fill:#ebebeb;stroke:#000;stroke-width:8.03px;" />
</svg>