<!DOCTYPE svg PUBLIC "-//W3C//DTD SVG 1.1//EN" "http://www.w3.org/Graphics/SVG/1.1/DTD/svg11.dtd"[]><svg width="1400" height="1400" viewBox="0 0 1400 1400" version="1.1" xmlns="http://www.w3.org/2000/svg" xmlns:xlink="http://www.w3.org/1999/xlink" xml:space="preserve" xmlns:serif="http://www.serif.com/" style="fill-rule:evenodd;clip-rule:evenodd;stroke-linecap:round;stroke-linejoin:round;stroke-miterlimit:1.5;">
    <rect x="900" y="300" width="200" height="200" style="fill:white;" />
    <path d="M900,500L1300,500L1300,1300L100,1300L100,100L900,100L900,500Z" style="fill:white;stroke:black;stroke-width:8.03px;" />
    <g transform="matrix(0.714286,0,0,0.714286,228.571,228.571)">
        <rect x="100" y="100" width="1120" height="1120" style="fill:none;stroke:black;stroke-width:11.25px;" />
    </g>
    <g transform="matrix(0.428571,0,0,0.428571,457.143,457.143)">
        <rect x="100" y="100" width="933.333" height="933.333" style="fill:none;stroke:black;stroke-width:18.74px;" />
    </g>
    <path d="M700,100L700,500" style="fill:none;stroke:black;stroke-width:8.03px;" />
    <path d="M900,700L1300,700" style="fill:none;stroke:black;stroke-width:8.03px;" />
    <path d="M700,900L700,1300" style="fill:none;stroke:black;stroke-width:8.03px;" />
    <path d="M500,700L100,700" style="fill:none;stroke:black;stroke-width:8.03px;" />
    <g transform="matrix(0.5,0,0,0.5,300,50)">
        <circle cx="800" cy="100" r="40" style="fill:rgb(235,235,235);stroke:black;stroke-width:16.06px;" />
    </g>
    <g transform="matrix(0.5,0,0,0.5,900,450)">
        <circle cx="800" cy="100" r="40" style="fill:rgb(235,235,235);stroke:black;stroke-width:16.06px;" />
    </g>
    <g transform="matrix(0.5,0,0,0.5,300,250)">
        <circle cx="800" cy="100" r="40" style="fill:rgb(235,235,235);stroke:black;stroke-width:16.06px;" />
    </g>
    <g transform="matrix(0.5,0,0,0.5,500,50)">
        <circle cx="800" cy="100" r="40" style="fill:rgb(235,235,235);stroke:black;stroke-width:16.06px;" />
    </g>
    <g transform="matrix(0.5,0,0,0.5,900,650)">
        <circle cx="800" cy="100" r="40" style="fill:rgb(235,235,235);stroke:black;stroke-width:16.06px;" />
    </g>
    <g transform="matrix(0.5,0,0,0.5,-300,50)">
        <circle cx="800" cy="100" r="40" style="fill:rgb(235,235,235);stroke:black;stroke-width:16.06px;" />
    </g>
    <g transform="matrix(0.5,0,0,0.5,-100,250)">
        <circle cx="800" cy="100" r="40" style="fill:rgb(235,235,235);stroke:black;stroke-width:16.06px;" />
    </g>
    <g transform="matrix(0.5,0,0,0.5,300,450)">
        <circle cx="800" cy="100" r="40" style="fill:rgb(235,235,235);stroke:black;stroke-width:16.06px;" />
    </g>
    <g transform="matrix(0.5,0,0,0.5,100,450)">
        <circle cx="800" cy="100" r="40" style="fill:rgb(235,235,235);stroke:black;stroke-width:16.06px;" />
    </g>
    <g transform="matrix(0.5,0,0,0.5,700,250)">
        <circle cx="800" cy="100" r="40" style="fill:rgb(235,235,235);stroke:black;stroke-width:16.06px;" />
    </g>
    <g transform="matrix(0.5,0,0,0.5,500,650)">
        <circle cx="800" cy="100" r="40" style="fill:rgb(235,235,235);stroke:black;stroke-width:16.06px;" />
    </g>
    <g transform="matrix(0.5,0,0,0.5,-100,650)">
        <circle cx="800" cy="100" r="40" style="fill:rgb(235,235,235);stroke:black;stroke-width:16.06px;" />
    </g>
    <g transform="matrix(0.5,0,0,0.5,100,650)">
        <circle cx="800" cy="100" r="40" style="fill:rgb(235,235,235);stroke:black;stroke-width:16.06px;" />
    </g>
    <g transform="matrix(0.5,0,0,0.5,-300,650)">
        <circle cx="800" cy="100" r="40" style="fill:rgb(235,235,235);stroke:black;stroke-width:16.06px;" />
    </g>
    <g transform="matrix(0.5,0,0,0.5,700,650)">
        <circle cx="800" cy="100" r="40" style="fill:rgb(235,235,235);stroke:black;stroke-width:16.06px;" />
    </g>
    <g transform="matrix(0.5,0,0,0.5,700,1050)">
        <circle cx="800" cy="100" r="40" style="fill:rgb(235,235,235);stroke:black;stroke-width:16.06px;" />
    </g>
    <g transform="matrix(0.5,0,0,0.5,300,850)">
        <circle cx="800" cy="100" r="40" style="fill:rgb(235,235,235);stroke:black;stroke-width:16.06px;" />
    </g>
    <g transform="matrix(0.5,0,0,0.5,100,850)">
        <circle cx="800" cy="100" r="40" style="fill:rgb(235,235,235);stroke:black;stroke-width:16.06px;" />
    </g>
    <g transform="matrix(0.5,0,0,0.5,300,1050)">
        <circle cx="800" cy="100" r="40" style="fill:rgb(235,235,235);stroke:black;stroke-width:16.06px;" />
    </g>
    <g transform="matrix(0.5,0,0,0.5,900,1250)">
        <circle cx="800" cy="100" r="40" style="fill:rgb(235,235,235);stroke:black;stroke-width:16.06px;" />
    </g>
    <g transform="matrix(0.5,0,0,0.5,-100,1050)">
        <circle cx="800" cy="100" r="40" style="fill:rgb(235,235,235);stroke:black;stroke-width:16.06px;" />
    </g>
    <g transform="matrix(0.5,0,0,0.5,-300,1250)">
        <circle cx="800" cy="100" r="40" style="fill:rgb(235,235,235);stroke:black;stroke-width:16.06px;" />
    </g>
    <g transform="matrix(0.5,0,0,0.5,300,1250)">
        <circle cx="800" cy="100" r="40" style="fill:rgb(235,235,235);stroke:black;stroke-width:16.06px;" />
    </g>
    <g transform="matrix(0.5,0,0,0.5,500,850)">
        <circle cx="800" cy="100" r="40" style="fill:rgb(235,235,235);stroke:black;stroke-width:16.06px;" />
    </g>
</svg>