<!DOCTYPE svg PUBLIC "-//W3C//DTD SVG 1.1//EN" "http://www.w3.org/Graphics/SVG/1.1/DTD/svg11.dtd"[]><svg width="800" height="800" viewBox="0 0 1600 800" version="1.1" xmlns="http://www.w3.org/2000/svg" xmlns:xlink="http://www.w3.org/1999/xlink" xml:space="preserve" xmlns:serif="http://www.serif.com/" style="fill-rule:evenodd;clip-rule:evenodd;stroke-linecap:round;stroke-linejoin:round;stroke-miterlimit:1.5;">
  <g id="Board">
    <path d="M960,640l-100,100" style="fill:none;stroke:#000;stroke-width:8.03px;" />
    <path d="M1440,160l100,-100" style="fill:none;stroke:#000;stroke-width:8.03px;" />
    <rect x="859.722" y="59.722" width="680.556" height="680.556" style="fill:none;stroke:#000;stroke-width:8.03px;" />
    <rect x="956.944" y="156.944" width="486.111" height="486.111" style="fill:none;stroke:#000;stroke-width:8.03px;" />
    <rect x="1054.17" y="254.167" width="291.667" height="291.667" style="fill:none;stroke:#000;stroke-width:8.03px;" />
    <path d="M1200,59.722l0,194.445" style="fill:none;stroke:#000;stroke-width:8.03px;" />
    <path d="M1345.83,400l194.445,0" style="fill:none;stroke:#000;stroke-width:8.03px;" />
    <path d="M1200,545.833l0,194.445" style="fill:none;stroke:#000;stroke-width:8.03px;" />
    <path d="M1054.17,400l-194.445,0" style="fill:none;stroke:#000;stroke-width:8.03px;" />
    <circle cx="1200" cy="59.722" r="9.722" style="fill:#ebebeb;stroke:#000;stroke-width:8.03px;" />
    <circle cx="1540.28" cy="59.722" r="9.722" style="fill:#ebebeb;stroke:#000;stroke-width:8.03px;" />
    <circle cx="1200" cy="156.944" r="9.722" style="fill:#ebebeb;stroke:#000;stroke-width:8.03px;" />
    <circle cx="1443.06" cy="156.944" r="9.722" style="fill:#ebebeb;stroke:#000;stroke-width:8.03px;" />
    <circle cx="1540.28" cy="400" r="9.722" style="fill:#ebebeb;stroke:#000;stroke-width:8.03px;" />
    <circle cx="859.722" cy="59.722" r="9.722" style="fill:#ebebeb;stroke:#000;stroke-width:8.03px;" />
    <circle cx="956.944" cy="156.944" r="9.722" style="fill:#ebebeb;stroke:#000;stroke-width:8.03px;" />
    <circle cx="1200" cy="254.167" r="9.722" style="fill:#ebebeb;stroke:#000;stroke-width:8.03px;" />
    <circle cx="1054.17" cy="254.167" r="9.722" style="fill:#ebebeb;stroke:#000;stroke-width:8.03px;" />
    <circle cx="1345.83" cy="254.167" r="9.722" style="fill:#ebebeb;stroke:#000;stroke-width:8.03px;" />
    <circle cx="1345.83" cy="400" r="9.722" style="fill:#ebebeb;stroke:#000;stroke-width:8.03px;" />
    <circle cx="956.944" cy="400" r="9.722" style="fill:#ebebeb;stroke:#000;stroke-width:8.03px;" />
    <circle cx="1054.17" cy="400" r="9.722" style="fill:#ebebeb;stroke:#000;stroke-width:8.03px;" />
    <circle cx="859.722" cy="400" r="9.722" style="fill:#ebebeb;stroke:#000;stroke-width:8.03px;" />
    <circle cx="1443.06" cy="400" r="9.722" style="fill:#ebebeb;stroke:#000;stroke-width:8.03px;" />
    <circle cx="1345.83" cy="545.833" r="9.722" style="fill:#ebebeb;stroke:#000;stroke-width:8.03px;" />
    <circle cx="1200" cy="545.833" r="9.722" style="fill:#ebebeb;stroke:#000;stroke-width:8.03px;" />
    <circle cx="1054.17" cy="545.833" r="9.722" style="fill:#ebebeb;stroke:#000;stroke-width:8.03px;" />
    <circle cx="1200" cy="643.056" r="9.722" style="fill:#ebebeb;stroke:#000;stroke-width:8.03px;" />
    <circle cx="1443.06" cy="643.056" r="9.722" style="fill:#ebebeb;stroke:#000;stroke-width:8.03px;" />
    <circle cx="956.944" cy="643.056" r="9.722" style="fill:#ebebeb;stroke:#000;stroke-width:8.03px;" />
    <circle cx="859.722" cy="740.278" r="9.722" style="fill:#ebebeb;stroke:#000;stroke-width:8.03px;" />
    <circle cx="1200" cy="740.278" r="9.722" style="fill:#ebebeb;stroke:#000;stroke-width:8.03px;" />
    <circle cx="1540.28" cy="740.278" r="9.722" style="fill:#ebebeb;stroke:#000;stroke-width:8.03px;" />
  </g>
  <g id="Board1" serif:id="Board">
    <path d="M160.056,640.056l-100.056,99.944" style="fill:none;stroke:#000;stroke-width:8.03px;" />
    <path d="M540,260l100,-100" style="fill:none;stroke:#000;stroke-width:8.03px;" />
    <rect x="59.722" y="59.722" width="680.556" height="680.556" style="fill:none;stroke:#000;stroke-width:8.03px;" />
    <rect x="156.944" y="156.944" width="486.111" height="486.111" style="fill:none;stroke:#000;stroke-width:8.03px;" />
    <rect x="254.167" y="254.167" width="291.667" height="291.667" style="fill:none;stroke:#000;stroke-width:8.03px;" />
    <path d="M400,59.722l0,194.445" style="fill:none;stroke:#000;stroke-width:8.03px;" />
    <path d="M545.833,400l194.445,0" style="fill:none;stroke:#000;stroke-width:8.03px;" />
    <path d="M400,545.833l0,194.445" style="fill:none;stroke:#000;stroke-width:8.03px;" />
    <path d="M254.167,400l-194.445,0" style="fill:none;stroke:#000;stroke-width:8.03px;" />
    <circle cx="400" cy="59.722" r="9.722" style="fill:#ebebeb;stroke:#000;stroke-width:8.03px;" />
    <circle cx="740.278" cy="59.722" r="9.722" style="fill:#ebebeb;stroke:#000;stroke-width:8.03px;" />
    <circle cx="400" cy="156.944" r="9.722" style="fill:#ebebeb;stroke:#000;stroke-width:8.03px;" />
    <circle cx="643.056" cy="156.944" r="9.722" style="fill:#ebebeb;stroke:#000;stroke-width:8.03px;" />
    <circle cx="740.278" cy="400" r="9.722" style="fill:#ebebeb;stroke:#000;stroke-width:8.03px;" />
    <circle cx="59.722" cy="59.722" r="9.722" style="fill:#ebebeb;stroke:#000;stroke-width:8.03px;" />
    <circle cx="156.944" cy="156.944" r="9.722" style="fill:#ebebeb;stroke:#000;stroke-width:8.03px;" />
    <circle cx="400" cy="254.167" r="9.722" style="fill:#ebebeb;stroke:#000;stroke-width:8.03px;" />
    <circle cx="254.167" cy="254.167" r="9.722" style="fill:#ebebeb;stroke:#000;stroke-width:8.03px;" />
    <circle cx="545.833" cy="254.167" r="9.722" style="fill:#ebebeb;stroke:#000;stroke-width:8.03px;" />
    <circle cx="545.833" cy="400" r="9.722" style="fill:#ebebeb;stroke:#000;stroke-width:8.03px;" />
    <circle cx="156.944" cy="400" r="9.722" style="fill:#ebebeb;stroke:#000;stroke-width:8.03px;" />
    <circle cx="254.167" cy="400" r="9.722" style="fill:#ebebeb;stroke:#000;stroke-width:8.03px;" />
    <circle cx="59.722" cy="400" r="9.722" style="fill:#ebebeb;stroke:#000;stroke-width:8.03px;" />
    <circle cx="643.056" cy="400" r="9.722" style="fill:#ebebeb;stroke:#000;stroke-width:8.03px;" />
    <circle cx="545.833" cy="545.833" r="9.722" style="fill:#ebebeb;stroke:#000;stroke-width:8.03px;" />
    <circle cx="400" cy="545.833" r="9.722" style="fill:#ebebeb;stroke:#000;stroke-width:8.03px;" />
    <circle cx="254.167" cy="545.833" r="9.722" style="fill:#ebebeb;stroke:#000;stroke-width:8.03px;" />
    <circle cx="400" cy="643.056" r="9.722" style="fill:#ebebeb;stroke:#000;stroke-width:8.03px;" />
    <circle cx="643.056" cy="643.056" r="9.722" style="fill:#ebebeb;stroke:#000;stroke-width:8.03px;" />
    <circle cx="156.944" cy="643.056" r="9.722" style="fill:#ebebeb;stroke:#000;stroke-width:8.03px;" />
    <circle cx="59.722" cy="740.278" r="9.722" style="fill:#ebebeb;stroke:#000;stroke-width:8.03px;" />
    <circle cx="400" cy="740.278" r="9.722" style="fill:#ebebeb;stroke:#000;stroke-width:8.03px;" />
    <circle cx="740.278" cy="740.278" r="9.722" style="fill:#ebebeb;stroke:#000;stroke-width:8.03px;" />
  </g>
</svg>