<?xml version="1.0" encoding="UTF-8" standalone="no"?><!DOCTYPE svg PUBLIC "-//W3C//DTD SVG 1.1//EN" "http://www.w3.org/Graphics/SVG/1.1/DTD/svg11.dtd"><svg width="100%" height="100%" viewBox="0 0 372 587" version="1.1" xmlns="http://www.w3.org/2000/svg" xmlns:xlink="http://www.w3.org/1999/xlink" xml:space="preserve" xmlns:serif="http://www.serif.com/" style="fill-rule:evenodd;clip-rule:evenodd;stroke-miterlimit:100;"><g><clipPath id="_clip1"><rect x="2.701" y="2.528" width="366.941" height="583.273"/></clipPath><g clip-path="url(#_clip1)"><rect x="1.371" y="482.417" width="371.501" height="117.384" style="fill:#ffe000;fill-rule:nonzero;"/><path d="M184.786,285.663c-0.667,-1.329 -2.667,-2 -4.002,-0.665c-2,0.665 -2,2 -0.667,3.335l22.011,53.356c14.007,40.019 16.674,73.367 10.005,100.046c-0.667,1.999 0,2.67 2,2.67c1.335,0.664 2.667,0 3.334,-1.342c7.338,-27.343 4.003,-61.355 -9.337,-102.037l-23.344,-55.363Z" style="fill-rule:nonzero;"/><path d="M182.119,286.998l-4.002,-20.009c-4.002,-12.004 -10.004,-15.339 -16.674,-10.675c-6.67,4.677 -6.002,11.346 4.002,19.344l16.674,11.34Z" style="fill:#9260c7;fill-rule:nonzero;"/><path d="M184.786,286.998c-2.667,-20.009 -6.669,-31.349 -13.339,-34.684c-3.335,-2 -7.337,-1.329 -11.339,1.335c-4,2.664 -6.002,5.999 -6.002,10.004c0.667,5.334 4.002,11.34 12.672,17.345c4.67,3.335 8.672,5.999 14.007,8.663l2.667,-0.665l1.334,-1.998Zm-25.343,-23.344c0,-2 1.332,-3.335 3.334,-5.334c2,-1.335 4.667,-2.006 6.002,-1.335c4.667,2.664 8.001,11.34 10.005,25.343c-12.671,-7.334 -18.676,-14.004 -19.341,-18.674Z" style="fill-rule:nonzero;"/><path d="M201.461,301.008l13.339,-16.01c6.67,-10.669 5.334,-17.338 -3.334,-20.009c-8.006,-2.006 -12.005,3.334 -12.005,16.01c0,5.999 0.665,12.668 2,20.009Z" style="fill:#9260c7;fill-rule:nonzero;"/><path d="M199.461,301.672l2,2l2.667,-0.671c13.339,-14.004 19.342,-24.673 17.342,-32.678c-1.336,-3.334 -4.003,-6.669 -8.669,-8.005c-4.671,-0.664 -8.006,-0.664 -11.34,2.671c-6.003,5.334 -6.67,17.338 -2,36.683Zm5.334,-33.348l6.671,-0.664c2.667,0.664 4.002,2.664 4.002,3.999l0.667,2c0,4.67 -4.669,12.004 -12.675,21.344l-1.332,-14.003c0,-6.006 1.332,-10.677 2.667,-12.676Z" style="fill-rule:nonzero;"/><path d="M202.128,298.337c-1.335,0 -2.667,0.665 -3.334,2l-3.336,22.673c0,1.342 1.332,2.006 2.668,2.671l3.335,-2l3.334,-22.009c0,-1.335 -0.667,-3.335 -2.667,-3.335Z" style="fill-rule:nonzero;"/><path d="M179.452,329.68l-11.34,-16.674c-9.336,-10.005 -16.007,-11.334 -20.009,-3.336c-4.67,7.341 -0.668,12.676 11.34,16.675l20.009,3.335Z" style="fill:#9260c7;fill-rule:nonzero;"/><path d="M145.436,307.678c-2.002,4.664 -2.667,8.663 -0.667,11.997c2,4.006 8.669,7.341 18.674,10.005l16.01,2.007l2,-1.337l0,-2.664l-9.337,-14.009c-6.002,-7.341 -12.007,-11.34 -17.342,-12.005c-3.336,0 -6.67,2 -9.338,6.006Zm3.335,9.333l0,-1.999l1.332,-3.999c1.335,-2.671 3.334,-4.007 4.67,-4.007c5.335,0.672 12.004,6.671 20.009,19.339c-14.674,-1.993 -23.344,-4.663 -26.011,-9.334Z" style="fill-rule:nonzero;"/><path d="M180.784,327.016c-2,-1.335 -2.667,-0.671 -3.335,0.67c-1.332,1.994 -0.668,3.336 0.667,4.001l26.011,12.674c1.335,0.665 2.667,0 4.002,-1.342c0,-1.329 0,-2.664 -1.335,-3.334l-26.01,-12.669Z" style="fill-rule:nonzero;"/><path d="M190.121,397.047c-4.667,-5.334 -9.337,-10.005 -14.672,-13.339c-10.671,-8.005 -17.342,-7.341 -20.009,0c-3.335,8.005 2,13.339 14.671,14.01l20.01,-0.671Z" style="fill:#9260c7;fill-rule:nonzero;"/><path d="M161.443,375.038c-4.003,0.665 -6.67,3.335 -8.669,7.998c-1.335,4.677 -1.335,8.013 1.332,11.347c4.67,5.999 16.674,7.998 36.684,5.999l2.002,-2l-0.667,-2.67l-11.34,-12.004c-8.003,-6.67 -14.672,-9.334 -19.342,-8.67Zm-3.336,16.011c-0.667,-2.007 -0.667,-4.007 0,-6.006c0.668,-3.335 2.668,-4.67 4.003,-4.67c5.334,-0.671 12.671,4.005 22.676,14.675c-14.674,1.329 -23.343,-0.665 -26.679,-3.999Z" style="fill-rule:nonzero;"/><path d="M190.789,394.383c-2,0 -2.668,0.665 -3.335,2.664c0,1.335 0.667,2.664 2.003,2.664l28.01,7.341c1.335,0.671 3.335,0 3.335,-2c0.668,-1.336 0,-2.006 -2,-2.671l-28.013,-7.998Z" style="fill-rule:nonzero;"/><path d="M238.144,318.346l-7.337,-10.668c-6.002,6.669 -12.672,18.667 -19.341,34.012c-6.671,2 -15.339,6.006 -24.681,10.67l-12.671,6.005l33.348,18.674c0,5.335 0.668,16.003 4.004,31.349l16.674,-13.339l10.672,-8.676c7.338,5.341 18.006,10.675 32.014,14.681c0.667,-4.006 -0.668,-10.676 -4.004,-21.351l-4.666,-14.669c4.002,-2.67 10.005,-12.01 18.006,-28.013l-21.341,-1.335l-10.672,1.335l-10.005,-18.675Z" style="fill:#9260c7;fill-rule:nonzero;"/><path d="M230.807,304.342l-2.667,0.665c-6.67,7.999 -12.672,19.345 -19.341,34.678l-24.013,10.004c-7.337,3.335 -11.339,5.341 -12.671,6.005c-0.667,0.665 -1.335,1.336 -1.335,2.671l1.335,2.67l32.013,18.003c0.667,6.006 1.335,16.011 4.002,30.015l2,2.67l3.335,-0.665l25.347,-20.68c8.002,6 18.674,10.005 31.346,14.011l2.003,-0.672l1.999,-1.999l0,-3.335c0,-8.005 -2.667,-18.68 -8.002,-32.02l10.005,-15.332l6.67,-12.675l0.664,-1.335l-0.664,-2l-2.004,-1.335c-8.001,-1.999 -18.006,-1.999 -30.68,0l-10.005,-18.01l-6.67,-10.005l-2.667,-1.329Zm14.006,33.348c0.668,1.994 2,2.664 3.335,2.664l9.337,-0.67l17.342,0c-6.67,12.675 -10.673,20.68 -14.007,22.679c-1.332,0.665 -2,1.335 -2,2.67l0,1.329c5.334,13.34 8.001,23.344 8.669,30.015c-12.004,-3.336 -20.676,-7.999 -26.011,-12.669c-2,-2 -3.335,-2 -4.67,0l-22.676,19.338c-2.667,-12.669 -3.335,-21.338 -3.335,-26.008l-1.999,-3.335l-10.005,-5.334l-18.01,-10.005c14.007,-6.005 24.011,-10.669 31.349,-13.339l2.667,-2.007c5.334,-12.669 10.005,-22.002 16.007,-29.342c7.338,11.34 12.007,19.338 14.007,24.014Z" style="fill-rule:nonzero;"/><path d="M248.816,363.698c-1.335,-0.67 -2.667,-0.67 -4.003,0c-5.335,5.999 -13.34,7.341 -24.68,4.007c-1.999,-0.672 -2.667,-0.672 -3.334,1.992c0,1.342 0,2.007 1.335,3.336c8.669,2.005 16.007,2.005 22.676,0l8.006,-5.328c1.332,-1.343 1.332,-2.672 0,-4.007Z" style="fill-rule:nonzero;"/><path d="M244.813,347.695c-0.668,0 -1.336,0 -2,1.993l-1.335,7.341l-1.335,12.668c0,0.672 0.667,1.342 1.335,1.342l2.667,-1.342l2.668,-19.338c0.668,-0.671 0,-2 -2,-2.664Z" style="fill-rule:nonzero;"/><path d="M233.474,347.024c-0.664,-0.671 -2,-1.336 -2.667,-0.671c-1.332,0 -2,0.671 -1.332,2.006l1.999,8.67l2,14.675c0,1.999 0.668,1.999 1.336,1.999l2.667,-2.664l-2.667,-14.681l-1.336,-9.334Z" style="fill-rule:nonzero;"/><path d="M221.47,354.365l-3.335,0c-0.668,0.664 -0.668,1.993 0,2.664c3.335,3.335 5.335,8.004 7.337,15.339l2.668,1.335c1.335,0 1.999,-1.335 1.335,-2.664c-2.003,-7.341 -4.67,-13.339 -8.005,-16.674Z" style="fill-rule:nonzero;"/><path d="M110.752,341.689c-1.332,0 -2.667,0.665 -3.334,2l0,29.344c1.335,21.35 6.002,42.023 14.674,60.697l3.335,0.67c2,-0.67 2,-2.005 2,-3.334c-8.669,-17.346 -14.007,-37.354 -15.339,-59.362l1.332,-26.679c0,-2.006 -0.665,-3.336 -2.668,-3.336Z" style="fill-rule:nonzero;"/><path d="M109.42,359.692l8.001,-18.666c4.67,-12.676 2.003,-18.017 -6.669,-18.681c-8.669,-0.664 -11.336,5.34 -8.669,18.009c2,6.67 4.667,12.669 7.337,19.338Z" style="fill:#9260c7;fill-rule:nonzero;"/><path d="M110.752,319.675c-4.002,0 -8.001,1.342 -10.004,4.677c-4.667,6.67 -2,18.667 6.67,36.013l2.002,1.335l2.667,-0.665l6.669,-14.681c4.003,-10.005 4.667,-16.674 2,-21.338c-1.999,-3.999 -5.334,-5.341 -10.004,-5.341Zm0,5.341c2.003,0 3.335,0.665 5.338,2l1.332,4.006c0,5.999 -2.667,13.339 -7.337,22.673c-4.667,-9.334 -6.002,-16.674 -6.002,-21.345l1.335,-5.334c1.332,-2 3.335,-2.664 5.334,-2Z" style="fill-rule:nonzero;"/><path d="M122.092,379.702l18.674,-9.333c10.672,-6.671 12.671,-13.34 6.002,-19.339c-6.002,-5.342 -12.672,-2.671 -18.006,9.334c-3.335,5.998 -4.67,12.004 -6.67,19.338Z" style="fill:#9260c7;fill-rule:nonzero;"/><path d="M148.104,349.688c-3.335,-3.335 -6.669,-4.663 -10.672,-3.335c-7.337,2.006 -13.339,13.339 -18.006,32.02l1.332,2.671l2.667,0.664c18.01,-6.67 28.014,-14.003 29.349,-22.016c1.331,-3.334 -0.669,-6.669 -4.67,-10.004Zm-3.335,4.006l3.335,4.006l-0.668,0.664c-0.667,5.334 -8.001,10.668 -21.341,16.01c3.999,-14.01 8.001,-21.351 12.671,-23.344c2,-0.671 3.336,0 6.003,2.664Z" style="fill-rule:nonzero;"/><path d="M124.092,377.038l-4.003,0.671l-10.004,12.668c-1.332,2 -1.332,3.336 0.667,4.006l3.335,-0.67l10.005,-12.669c1.335,-1.342 1.335,-2.671 0,-4.006Z" style="fill-rule:nonzero;"/><path d="M100.08,387.713l-8.669,-18.016c-7.337,-11.333 -14.007,-12.668 -19.341,-6.669c-5.337,6.669 -2.667,12.01 8.669,18.016c6.002,2.664 12.672,5.328 19.341,6.669Z" style="fill:#9260c7;fill-rule:nonzero;"/><path d="M80.739,357.029c-4.002,-0.671 -7.337,0.671 -10.672,4.005c-2.667,3.335 -3.999,7.335 -2.667,10.67c2.667,8.669 13.339,14.668 32.016,18.673l2.667,-0.671l0,-2.664c-0.667,-4.006 -2.667,-9.333 -6.67,-15.338c-4.669,-8.676 -10.004,-14.004 -14.674,-14.675Zm-8.669,12.003c0,-1.327 0.667,-2.67 2,-4.663c1.335,-1.341 3.335,-2.67 6.002,-2.67c5.338,1.999 10.672,8.67 15.342,22.009c-13.339,-4.006 -21.344,-8.67 -23.344,-13.339l0,-1.337Z" style="fill-rule:nonzero;"/><path d="M102.083,385.707l-4.003,0.665l-0.667,1.341l1.335,1.993l12.672,10.676c2,0.671 2.667,0.671 4.002,-0.671c0.668,-1.329 0.668,-2.664 -0.667,-3.999l-12.672,-10.005Z" style="fill-rule:nonzero;"/><path d="M300.838,384.378l10.005,-17.345c4.669,-12.004 2.667,-18.674 -6.002,-19.338c-8.67,-0.671 -12.004,5.328 -10.005,17.338c1.335,6.671 3.335,13.34 6.002,19.345Z" style="fill:#9260c7;fill-rule:nonzero;"/><path d="M314.845,351.03c-1.335,-3.335 -4.67,-6.005 -10.004,-6.005c-4.671,-0.665 -8.005,1.328 -10.005,3.999c-5.335,6.005 -4.003,18.681 3.335,36.683l2.667,1.335c0.667,0.671 1.335,0 2.002,-0.67c11.337,-16.003 15.34,-28.008 12.005,-35.342Zm-10.004,-0.671c2.667,0 4.002,1.335 5.334,3.335l0.668,2.664c0,4.676 -3.335,12.011 -9.338,22.679c-3.334,-8.668 -4.002,-15.339 -4.002,-20.673c0,-2.671 0.668,-4.67 1.335,-6.67c1.332,-1.335 3.335,-1.335 6.003,-1.335Z" style="fill-rule:nonzero;"/><path d="M300.838,381.708c-2,0 -2.667,1.328 -2.667,2.67l-2,36.013c0,1.335 1.332,2.664 2.667,2.664c2,0 2.667,-1.329 2.667,-2.664l2,-35.348c0,-2.007 -1.332,-3.335 -2.667,-3.335Z" style="fill-rule:nonzero;"/><path d="M321.515,400.382c5.334,-4.005 10.005,-8.669 14.007,-13.34c8.67,-10.004 9.337,-16.673 1.332,-20.68c-8.669,-3.334 -13.34,0.671 -15.339,14.011c-0.668,6.669 -0.668,13.34 0,20.009Z" style="fill:#9260c7;fill-rule:nonzero;"/><path d="M320.18,403.046l2.67,0c15.339,-12.669 22.677,-22.673 22.009,-30.013c0,-4.001 -3.335,-6.671 -7.338,-9.335l-11.336,0.671c-4.67,2.664 -6.67,9.334 -8.005,19.339c0,6.669 0,12.004 0,16.674l2,2.664Zm19.344,-29.343c0,5.334 -5.338,12.669 -16.011,21.345l0,-2.671c0,-12.675 2.003,-20.673 5.339,-24.008l6.001,0.663l4.671,4.671Z" style="fill-rule:nonzero;"/><path d="M158.107,465.079c4.67,-8.676 6.67,-18.01 4.67,-27.343l-4.002,-8.013c-4.003,-6.669 -10.005,-11.332 -18.678,-14.667l-24.676,-2.006l-8.004,2.67c-10.005,-8.669 -20.009,-14.668 -28.679,-16.01c-13.339,-2.664 -22.012,0.671 -26.678,10.676l-3.335,12.668l-4.67,8.012l-8.669,6.67c-3.335,2.664 -4.67,6.669 -6.002,11.997l-0.667,14.682c0.667,5.328 -0.668,8.662 -2.003,10.669l-6.67,7.998c-2.667,2.67 -3.999,6.669 -4.667,10.675c-1.335,6.67 0,16.004 4.002,25.344c11.337,-0.665 21.341,-2.67 30.014,-7.998c7.334,-3.335 12.004,-6.006 15.339,-7.341l16.006,-0.671l16.674,-1.329c4.003,-1.335 8.005,-4.67 11.34,-10.004c3.335,-3.999 8.669,-5.342 16.674,-5.342c9.336,0 16.007,-1.992 18.674,-3.999c6.671,-5.334 10.673,-10.669 14.007,-17.338Z" style="fill:#858585;fill-rule:nonzero;"/><path d="M166.777,445.734l-0.665,-7.998l-4.67,-10.677c-4.003,-6.669 -10.672,-12.003 -20.009,-14.674c-13.34,-5.334 -24.68,-5.334 -34.016,-0.664c-10.005,-8.676 -18.674,-14.004 -28.679,-15.345c-14.674,-2.664 -24.679,1.341 -29.346,12.675l-3.334,10.669l-4.67,8.676l-4.002,3.334c-6.002,4.664 -10.004,10.005 -11.336,16.674c-0.667,3.999 -0.667,8.67 -0.667,14.668l-1.335,10.005l-2.668,2.67c-5.334,5.341 -8.669,11.341 -9.336,18.01c-2.003,6.67 0,16.004 4.002,26.679l3.334,1.999c12.004,-0.663 22.677,-3.334 31.346,-7.998c6.669,-4.006 12.008,-6.669 14.675,-7.34l15.338,-0.671l18.01,-1.993l13.339,-10.676c2,-2.664 6.669,-4.006 15.339,-4.006l9.337,-0.663c4.002,-0.665 7.337,-2 9.34,-4l12.003,-13.34c6.003,-8.004 8.67,-17.338 8.67,-26.014Zm-28.011,-27.342c8.002,2.67 13.339,6.669 17.342,12.004c2,3.335 2.668,5.999 3.335,8.005c2,10.004 0,19.344 -5.338,28.007l-12.004,13.34c-2.003,1.341 -7.338,3.335 -14.675,3.335l-11.336,0.67c-4.002,1.336 -7.337,3.336 -9.34,5.999l-10.669,8.677l-15.342,1.328l-16.674,0.671c-4.002,1.335 -9.337,4.006 -16.674,8.005c-6.67,4 -15.339,6.005 -26.012,6.67c-2,-5.341 -4.002,-11.34 -4.002,-16.674l0.667,-4c1.335,-4.677 4.002,-10.004 8.005,-14.01l2.667,-3.335c2,-2.664 3.334,-5.999 3.334,-10.004l0,-9.335c0,-2.67 0,-4.676 0.668,-7.34c0.664,-3.335 1.332,-6.67 3.334,-8.669l5.334,-4.671l4.003,-3.334c3.334,-2.664 5.334,-6.671 6.669,-12.669l3.334,-9.34c3.335,-8.006 10.672,-11.34 22.009,-8.676c8.672,1.342 18.009,6.67 27.346,15.346l4.002,0l8.001,-2.007c7.342,-1.328 14.012,-0.664 22.016,2.007Z" style="fill-rule:nonzero;"/><path d="M108.753,414.393c-1.335,-0.672 -2.002,-0.672 -3.334,0l-25.347,27.343c-19.341,22.009 -33.348,40.018 -43.353,56.692c-1.332,1.328 -1.332,1.999 0.667,2.67c0.667,0.664 1.335,0.664 2.667,-0.671c10.005,-16.003 24.012,-34.684 42.689,-56.021c15.338,-17.346 24.008,-26.014 26.011,-27.349c0.667,-0.672 0.667,-2 0,-2.664Z" style="fill-rule:nonzero;"/><path d="M56.728,431.73l2.67,-0.664l10.669,-6.669c8.005,-3.336 17.342,-2.672 26.679,2.662l8.673,3.336c5.334,2.664 9.336,5.999 12.003,10.675c4.67,7.334 4.67,17.339 1.335,29.343c-0.667,0.671 0,1.335 1.332,2l2.003,-1.329c4.667,-13.34 4.002,-24.015 -1.335,-32.02c-2.667,-5.334 -7.337,-9.341 -13.339,-12.675l-9.337,-2.664c-10.672,-5.999 -20.676,-6.669 -30.681,-3.335l-10.672,8.67c-1.332,1.336 -1.332,1.336 0,2.67Z" style="fill-rule:nonzero;"/><path d="M56.063,444.405c-4.002,2.664 -7.337,5.328 -10.004,7.998c-0.667,1.336 -0.667,1.336 0,2.671c1.332,1.329 2,1.329 2.667,0l9.337,-7.333l20.676,-0.672l5.335,2.664l9.336,8.676c3.335,6.67 3.335,14.004 0.668,22.009c-0.668,1.335 0,2.664 1.335,3.334c0.667,0 2,0 2,-1.999c3.335,-9.34 3.335,-18.009 -0.667,-24.679c-2.667,-4.006 -6.002,-7.341 -10.004,-10.676c-3.334,-1.993 -6.002,-2.664 -6.67,-2.664l-24.009,0.671Z" style="fill-rule:nonzero;"/><path d="M65.4,470.413l-5.338,-3.334c-4.667,-1.336 -9.337,-0.672 -16.006,2.664l-8.002,4.676c-0.667,1.328 -0.667,2.664 -0.667,3.335c1.332,0.664 2,0.664 3.334,0l6.67,-4.677c5.334,-2.664 10.004,-3.334 13.339,-1.993l3.335,2.664c3.335,1.336 4.667,3.335 5.334,5.999c1.335,2.67 1.335,6.669 -2,10.676c0,1.335 0,1.999 1.332,2.664c0.667,0.67 2.002,0.67 2.002,-1.329c3.335,-4.67 4.667,-8.676 3.335,-14.004l-6.668,-7.341Z" style="fill-rule:nonzero;"/><path d="M234.81,447.069l0,17.346c0.667,13.339 4.002,22.001 9.336,26.678c6.003,5.328 11.34,9.334 18.677,11.998l14.672,3.335c2.003,0.671 4.67,2.67 7.337,6.669c2.668,3.336 5.335,5.341 8.006,6.67l11.335,1.342l10.005,0l7.338,2.664l9.337,4.006l32.68,-0.671c-0.663,-17.345 -2.667,-28.678 -4.666,-34.019c-0.668,-2.664 -0.668,-5.999 -0.668,-10.67l0,-10.669c-0.667,-3.334 -4.002,-8.676 -10.004,-16.674c-2,-2.006 -3.335,-4.67 -3.335,-8.005l-1.335,-16.003c0,-7.341 -3.999,-14.682 -11.337,-21.351c-6.67,-6 -14.007,-9.334 -21.344,-7.999c-6.671,1.329 -14.007,4.663 -22.677,10.669l-10.005,8.676l-23.344,2.664c-5.334,1.335 -9.336,4.671 -12.672,8.005c-2.667,3.335 -4.669,8.67 -7.336,15.339Z" style="fill:#858585;fill-rule:nonzero;"/><path d="M254.15,420.391c-6.669,2.664 -11.337,5.999 -14.672,10.005c-2.67,3.335 -5.337,8.669 -8.005,16.003l0,0.671c-0.667,3.335 -0.667,10.005 0,18.674c0.668,12.675 4.671,22.016 10.005,28.014c9.337,8.005 20.677,14.011 34.684,16.004c1.999,0 3.335,1.342 5.335,4.676c3.334,4.664 6.669,7.335 10.004,8.663l15.34,1.342l6.669,0l11.34,3.999l4.003,2.671l19.341,1.328l15.338,-2.67c2.672,0 3.336,-1.329 3.336,-3.336c-0.664,-16.003 -2.668,-28.006 -4.668,-34.676c-0.667,-1.335 -0.667,-4.67 -0.667,-10.005l0,-10.669c-0.668,-4.677 -4.002,-10.676 -10.005,-16.674l-0.667,-1.342l-2.667,-5.327l-1.335,-10.677l0,-5.998c-0.665,-10.005 -5.335,-18.016 -14.004,-25.35c-7.338,-6.006 -14.675,-8.67 -22.68,-7.335c-10.005,2 -21.341,7.998 -33.349,19.345l-22.676,2.664Zm-9.337,13.339c2.668,-2.664 6.67,-5.334 11.34,-6.671c7.334,-2.662 14.004,-3.334 21.341,-2.662l2.667,-0.672l10.005,-8.669c8.005,-5.341 14.675,-8.677 21.344,-10.005c5.334,-1.336 10.672,1.328 17.343,5.335c6.669,6.67 11.335,13.339 11.335,20.68l0,5.998l1.336,12.669c0,2.67 2,4.677 3.335,7.341l2,1.335l8.005,14.004l0.667,3.999l-0.667,10.676l1.335,6.669c1.332,5.999 2.667,16.004 3.999,30.685l-28.011,0.665l-4.67,-2.007c-5.335,-3.335 -9.337,-4.664 -13.34,-5.328l-8.001,0l-12.007,-1.341l-6.67,-5.328c-3.335,-4.677 -6.002,-7.341 -9.338,-8.012c-13.339,-2.664 -24.011,-6.67 -31.348,-14.668c-6.003,-4.671 -8.67,-15.346 -8.67,-30.679l0,-10.003c2.001,-6.006 4.003,-10.677 6.67,-14.011Z" style="fill-rule:nonzero;"/><path d="M277.494,420.391l-2.667,0c-1.335,1.335 -0.668,2.664 0,3.335l24.011,23.344c17.343,20.01 29.347,40.019 36.684,60.698c0,0.664 1.332,0.664 2.667,0.664c1.336,-0.664 1.999,-1.335 1.336,-2.671c-8.005,-20.673 -20.01,-40.682 -38.02,-61.355l-24.011,-24.015Z" style="fill-rule:nonzero;"/><path d="M257.485,471.084l2.667,-1.341c1.335,-4.664 4.002,-9.335 8.005,-14.669c6.67,-9.34 15.339,-14.674 24.012,-16.674l6.002,-4c4.669,-2.005 8.67,-2.67 12.672,-2.67c4.669,0.665 8.672,2.67 12.007,7.334l2.667,0.664l0,-2.664c-4.002,-5.998 -8.673,-8.668 -14.674,-9.333c-4.002,0 -9.338,0.665 -13.34,2.664c-2.667,2 -5.334,3.335 -6.67,4.67c-10.005,1.999 -18.673,7.334 -26.011,18.003c-4.67,6.005 -7.337,10.676 -8.669,15.346l0,0.664l1.332,2.006Z" style="fill-rule:nonzero;"/><path d="M321.515,448.404l-12.004,-0.663c-2.67,0.663 -4.67,1.992 -5.339,2.663c-12.671,5.335 -19.341,14.011 -20.676,26.008c-0.664,6.005 0,11.347 2.003,16.675c0,0.67 1.332,0.67 2.667,0.67c0.668,0 1.335,-1.335 0.668,-2.664c-1.335,-4.005 -2.003,-9.34 -1.335,-14.681c0.667,-10.005 7.337,-18.003 18.01,-22.673l5.334,-1.999l9.337,0c5.337,1.999 10.005,6.004 14.674,13.339c0,1.328 0.668,2 2.667,1.328c0.668,-1.328 1.335,-1.992 0.668,-2.663c-4.67,-8.67 -10.004,-13.34 -16.674,-15.34Z" style="fill-rule:nonzero;"/><path d="M330.852,474.419l-8.67,0c-8.672,3.999 -14.006,11.333 -15.341,22.002c-0.665,4.677 0,10.005 0.667,14.682c0.668,0.664 1.335,1.329 2.667,0.664c1.335,0 1.335,-0.664 1.335,-2.006c-0.667,-4.664 -1.335,-9.334 -0.667,-13.34c0.667,-9.333 4.669,-15.333 12.671,-18.667l6.671,0.664c4.669,2 8.671,5.334 12.007,11.333l2.667,0.672c0.668,-0.672 1.335,-2 0.668,-2.664c-4.004,-7.341 -8.673,-11.347 -14.675,-13.34Z" style="fill-rule:nonzero;"/><path d="M144.101,445.069l-3.335,10.005l-6.002,6.669c-2,3.336 -4.002,8 -4.67,14.669c-1.332,5.341 -1.332,10.676 0.668,15.346l0.667,13.339l-4.002,11.334l-2.667,6.669c-1.335,7.341 -0.667,14.011 2,20.009l10.004,20.01c20.009,-1.329 33.348,-3.336 40.018,-6c12.008,-5.998 21.345,-12.004 26.015,-17.344c1.999,-2.664 7.334,-5.328 14.004,-7.335c7.337,-2.67 11.34,-4.663 13.339,-6.669l4.671,-11.334c1.999,-6.005 4.002,-10.004 6.001,-12.675l10.673,-12.011c4.002,-5.327 6.67,-9.333 8.005,-11.997c1.999,-6.006 1.999,-11.347 1.999,-17.346c-1.335,-8.668 -4.67,-16.674 -10.004,-23.344c-6.002,-5.998 -14.007,-8.668 -26.679,-8.668l-16.675,1.999l-11.34,-8.67c-8.669,-4.669 -17.338,-7.333 -24.675,-5.341c-7.337,1.342 -13.339,4.006 -17.342,6.67c-2,1.343 -4.67,5.342 -8.005,10.676c-2,2.665 -2.668,6.67 -2.668,11.339Z" style="fill:#858585;fill-rule:nonzero;"/><path d="M140.098,445.069l-2,8.67l-2.667,2.664c-4.67,4.677 -7.337,11.346 -8.672,19.344c-1.332,6.006 -1.332,12.012 0.667,18.01c1.335,3.335 1.335,6.67 0.667,10.676l-4.002,10.669l-2.667,7.333c-0.667,6.006 -0.667,11.34 0,15.346l5.334,11.998l7.337,14.011c0.667,1.335 1.335,2.664 3.335,2.664c20.009,-1.329 34.016,-3.335 40.686,-6.671c13.339,-5.998 22.009,-11.997 27.346,-18.003c1.999,-2.005 6.003,-3.999 12.672,-6.669c6.67,-2.006 12.004,-3.999 14.007,-7.334c2.668,-2.67 4.667,-6.67 6.002,-12.675c2,-4.671 3.335,-8.005 5.334,-11.34l8.006,-9.334c6.002,-6.669 9.337,-11.346 10.672,-16.01c2.667,-6.67 2.667,-13.339 1.999,-20.674c-1.332,-8.011 -4.666,-16.009 -10.004,-22.679c-8.669,-9.341 -23.344,-12.011 -45.352,-8.006c-13.341,-12.003 -25.348,-16.673 -37.352,-14.009c-8.005,1.342 -14.007,4.006 -18.674,7.34l-8.672,10.676c-1.998,2.664 -2.666,7.334 -4.002,14.003Zm32.684,-25.348c6.002,-1.994 14.003,0.67 22.009,5.34l10.672,7.999l3.336,0.671l16.006,-2c11.34,0 19.341,2.67 24.012,7.998c6.001,7.341 9.337,15.346 9.337,24.687l-2,12.668l-9.34,12.668l-8.67,10.005c-1.999,3.335 -4.002,7.341 -6.002,13.339l-4.67,10.005c-1.332,2.007 -5.334,3.334 -11.337,6.006c-8.005,2.006 -12.675,5.341 -15.342,8.675c-4.666,4.664 -13.339,10.005 -26.011,16.675l-36.016,4.663l-6.669,-12.675c-3.334,-6.669 -4.67,-11.997 -4.67,-15.332l0.667,-7.341l2,-5.335c2.003,-3.334 4.002,-7.333 4.67,-12.675l0.668,-5.334l-1.335,-9.334l-2,-7.341l1.332,-6.669c0.667,-7.34 3.335,-13.339 6.669,-16.003l3.335,-4.006c1.335,-2 3.334,-5.999 3.334,-11.34c0.667,-5.334 1.335,-8.67 3.335,-10.669c2.67,-4.67 4.67,-8.006 7.337,-10.005c3.336,-2.006 8.006,-4.67 15.343,-5.34Z" style="fill-rule:nonzero;"/><path d="M209.466,428.396l-2.671,0.664c-3.335,2.67 -9.337,10.668 -17.338,24.679c-12.676,21.345 -24.679,48.022 -35.352,79.365c-0.668,1.342 0,2.006 0.667,2.67c2,0.664 2.667,0 3.334,-1.328c10.005,-30.685 22.009,-57.363 35.349,-79.372l16.01,-23.344c1.333,-1.334 1.333,-2.006 0.001,-3.334Z" style="fill-rule:nonzero;"/><path d="M166.777,441.735l-9.337,7.334c-0.667,1.335 -0.667,1.335 0.667,2.671l2.668,-0.665l8.004,-6.006c8.001,-2.006 16.006,-1.335 26.678,3.335l0.669,0l8.668,1.329c6.671,0.671 12.005,4.006 16.007,7.341c4.67,5.334 7.338,12.669 6.67,22.673c0,0.671 0.668,1.341 2.003,1.341l1.999,-1.341c0.668,-10.669 -1.999,-19.339 -8.004,-25.337c-6.67,-6.669 -15.34,-10.005 -26.68,-10.005c-12.003,-4.676 -22.007,-6.005 -30.012,-2.67Z" style="fill-rule:nonzero;"/><path d="M182.119,468.414l-24.679,0.664l-10.672,7.334c-1.332,0.671 -1.332,1.342 0,2.671c0.667,1.335 1.335,1.335 2.003,0l10.005,-6.006l22.676,-1.329l8.669,2.671c5.337,2.664 10.672,5.328 13.339,9.333c4.002,4.671 4.67,11.34 4.002,18.675c0,1.335 0.668,2.006 1.337,2.006l2.667,-1.342c1.335,-8.663 0,-16.003 -4.671,-22.003c-3.335,-4.005 -8.669,-8.011 -15.339,-10.675l-9.337,-1.999Z" style="fill-rule:nonzero;"/><path d="M185.455,507.768c-2.003,-4.006 -5.338,-6.67 -10.005,-8.012l-6.669,-1.993c-6.669,-3.335 -13.339,-2.006 -18.677,2.664c-4.667,3.335 -8.669,8.005 -10.669,14.01c-0.668,1.329 0.664,1.994 1.332,3.335c0.668,0 1.335,-0.671 2.667,-1.341l6.669,-10.005c5.337,-5.999 11.34,-7.998 18.009,-5.328l6.002,1.993c4.002,1.342 6.67,4.006 8.005,6.67c3.335,4.676 2.667,11.346 0,20.009c-0.667,1.342 0,2.006 1.332,2.006l2.671,-0.664c3.335,-10.006 3.335,-18.017 -0.667,-23.344Z" style="fill-rule:nonzero;"/><path d="M368.202,243.645l-24.011,-25.344l-0.668,12.004c-2,10.004 -4.668,18.674 -8.67,28.014c-12.672,28.008 -34.684,48.017 -67.364,59.363l14.675,0l32.681,-6.006c32.013,-10.668 49.354,-33.348 53.357,-68.031Z" style="fill:#d96038;fill-rule:nonzero;"/><path d="M346.858,216.295l-3.999,-0.665c-1.336,0 -2.003,1.335 -2.003,2.67l-0.669,13.339c-1.999,8.669 -4.666,18.003 -8.668,26.679c-12.005,26.679 -33.349,45.353 -64.698,56.027c-1.999,0.665 -2.667,1.994 -2.667,3.999l3.335,2.671l27.347,-0.671c19.341,-3.335 35.349,-10.004 48.023,-20.009c16.673,-13.339 26.011,-32.013 28.678,-56.692l-1.335,-2l-23.344,-25.348Zm0,10.005l17.341,18.68c-2.667,21.338 -10.671,38.683 -25.344,50.022c-14.006,11.334 -32.015,18.004 -54.691,19.345c21.345,-10.675 38.018,-26.014 49.354,-46.023c7.338,-13.34 11.34,-28.014 13.34,-42.024Z" style="fill-rule:nonzero;"/><path d="M356.198,234.976c-1.335,0 -2.67,0 -2.67,2l-5.335,21.344c-6.002,16.674 -16.007,30.014 -30.014,39.354c-1.336,0.664 -1.999,1.993 -0.667,2.664c0.667,1.335 1.335,1.335 2.667,0.671c14.674,-10.004 25.347,-24.015 32.684,-40.689l5.334,-23.344c0,-2 -1.335,-2 -1.999,-2Z" style="fill-rule:nonzero;"/><path d="M320.18,188.953l-44.686,-33.349l4.667,12.675c2.003,10.668 4.003,22.008 4.003,32.013c-0.668,34.684 -14.007,62.026 -42.019,84.042c12.005,-2.67 23.344,-8.012 36.016,-17.345c24.012,-18.01 38.02,-43.353 42.019,-78.036Z" style="fill:#d96038;fill-rule:nonzero;"/><path d="M278.161,153.604c-1.999,-1.335 -3.334,-1.335 -4.002,0c-1.999,0.671 -2.667,2 -1.332,3.334l3.999,14.01c2.671,10.669 4.002,20.673 4.002,30.678c-0.667,32.684 -14.007,58.692 -40.018,80.037c-1.999,0.664 -2.667,2 -1.332,3.999c0.665,1.335 2,2.67 3.999,2.006c11.34,-2.67 24.012,-8.676 36.684,-18.016c24.68,-18.667 39.354,-45.346 43.353,-80.036c0,-1.329 0,-1.993 -1.999,-2.664l-43.354,-33.348Zm38.683,37.354c-3.334,24.008 -12.003,44.017 -25.343,59.356c-10.004,11.34 -21.344,20.009 -34.684,25.343c20.009,-20.673 30.014,-45.352 30.014,-76.037c0,-12.668 -2,-24.008 -4.667,-34.677l34.68,26.015Z" style="fill-rule:nonzero;"/><path d="M301.505,181.618c-0.667,0 -1.335,0 -1.335,2l-3.334,24.679c-2.667,17.339 -8.002,30.013 -15.339,38.683c-0.669,1.335 0,2 0.667,3.334l2.667,-0.671c7.338,-9.334 12.672,-22.673 16.007,-40.682l3.334,-25.344l-2.667,-1.999Z" style="fill-rule:nonzero;"/><path d="M4.038,223.636l1.335,79.365c12.004,16.01 28.678,24.685 52.021,27.349l30.014,-2.664c-38.683,-14.009 -64.03,-38.688 -76.701,-74.036c-3.334,-10.005 -6.001,-20.01 -6.669,-30.014Z" style="fill:#d96038;fill-rule:nonzero;"/><path d="M6.706,204.962c0,-2.671 -0.665,-3.335 -3.335,-3.335c-2.667,0 -3.334,0.665 -3.334,3.335l0,5.334l2.002,93.375l0.668,1.335c12.004,16.675 29.346,26.015 52.689,28.679l33.349,-2.664l2,-3.336l-2,-3.334c-28.682,-10.005 -50.023,-26.679 -64.697,-49.358c-9.337,-16.01 -14.671,-33.348 -16.674,-52.693l-0.668,-17.338Zm2.002,96.71l-1.335,-48.022c12.007,33.348 34.684,57.363 68.032,72.695l-32.681,-2.664c-14.007,-3.335 -26.015,-10.675 -34.016,-22.009Z" style="fill-rule:nonzero;"/><path d="M46.723,317.011c-11.336,-5.334 -23.344,-14.674 -36.016,-30.013l-14.007,-21.344c-0.665,-0.665 -2,-1.329 -2.667,-0.665l-1.332,2l16.006,23.344c12.004,14.674 24.012,24.679 36.684,30.013c1.332,0 2,0 2,-1.335c0.668,-1.328 0,-2 -0.668,-2Z" style="fill-rule:nonzero;"/><path d="M104.083,131.596l-63.362,26.679l-4.002,26.679c-1.332,22.009 3.334,41.347 12.675,60.027c10.669,20.009 28.011,33.348 52.022,38.683l32.013,3.334c-6.002,-0.67 -11.336,-3.334 -18.674,-7.341c-14.675,-9.333 -27.346,-24.008 -36.016,-44.017c-9.336,-20.673 -8.004,-44.017 4.003,-70.695l21.341,-33.349Z" style="fill:#d96038;fill-rule:nonzero;"/><path d="M106.75,128.925c-1.332,-1.329 -2.667,-2 -4.667,-0.664l-63.362,27.343l-1.335,2.006l-4.002,28.008c-1.332,21.344 3.335,41.353 13.339,60.027c10.672,21.344 28.682,35.354 53.357,41.353l34.016,3.335c2.667,0 3.335,-1.335 3.335,-3.335c0,-2 -0.667,-3.334 -3.335,-3.334c-5.334,0 -11.336,-3.335 -18.674,-7.341c-13.339,-9.333 -24.679,-22.673 -33.348,-42.011c-8.673,-19.345 -8.005,-42.024 4.002,-67.367l20.674,-33.349c0.668,-1.336 0.668,-2.664 0,-4.671Zm-63.361,32.684l50.69,-22.679c-16.674,23.344 -24.676,46.023 -24.676,68.032c0,10.675 2,20.68 6.002,30.013c10.004,22.008 23.344,37.354 38.683,46.017c-28.678,-3.999 -50.022,-17.338 -62.026,-40.018c-8.005,-16.003 -12.008,-34.012 -12.008,-52.686c-0.001,-12.005 0.667,-22.009 3.335,-28.679Z" style="fill-rule:nonzero;"/><path d="M54.061,170.279c-2,0 -2.667,0.67 -2.667,1.335l0.668,33.349c3.334,25.343 12.004,45.352 26.678,60.691l3.335,0c0.667,-0.665 0.667,-2 0,-2.671c-14.675,-14.668 -23.345,-34.677 -26.679,-58.021l0,-32.684l-1.335,-1.999Z" style="fill-rule:nonzero;"/><path d="M338.855,122.92c16.675,14.681 26.013,29.349 28.012,44.024l0,-161.407l-362.829,0l0,102.051c1.335,-5.341 10.004,-9.34 25.347,-14.01c31.345,-10.005 82.035,-15.34 153.402,-15.34c71.363,0 123.389,15.34 156.068,44.682Z" style="fill:#ffe000;fill-rule:nonzero;"/><path d="M324.182,152.269c19.342,20.673 33.349,41.354 42.686,62.697l0,-63.361c-6.67,-48.023 -28.679,-86.706 -66.029,-116.055c-12.004,-9.34 -24.012,-17.339 -36.684,-23.344l-16.673,-6.67l-88.706,0c-35.352,4.67 -72.035,18.68 -109.382,41.353c-18.677,12.005 -33.349,23.345 -45.356,33.349l0,75.366c12.007,-10.668 28.014,-22.009 49.355,-33.349c42.688,-22.008 88.708,-32.684 138.063,-32.684c50.023,0 94.043,20.681 132.726,62.698Z" style="fill:#d96038;fill-rule:nonzero;"/><path d="M28.717,-2.462l-3.335,-0.671c-1.335,0.671 -1.335,1.335 -0.667,2.664l44.688,74.037c0.664,1.335 1.332,1.335 2.667,0c1.332,-0.67 2,-1.335 0.667,-2l-44.02,-74.03Z" style="fill-rule:nonzero;"/><path d="M48.726,-7.803l-2.003,-0.664c-1.332,1.328 -2,2 -1.332,3.334l44.685,73.367c0.667,1.328 2.002,2 3.334,0.664l0.668,-2.67l-45.352,-74.031Z" style="fill-rule:nonzero;"/><path d="M70.735,-12.466l-3.335,-0.671l-0.667,2.664l44.688,74.037l2.667,0c1.335,-0.671 1.335,-1.335 0.667,-2l-44.02,-74.03Z" style="fill-rule:nonzero;"/><path d="M89.412,-18.472c-1.335,0 -2.003,1.329 -0.667,2.67l44.685,74.031l2.003,0c2,-0.665 2,-1.335 1.332,-2.67l-44.686,-73.366l-2.667,-0.665Z" style="fill-rule:nonzero;"/><path d="M12.71,12.207c-0.667,-0.665 -2.003,-1.329 -2.67,-0.665c-0.664,0.665 -1.332,2 -0.664,3.335l44.685,73.366c0,0.665 1.335,1.328 2.667,0.665c0.667,-0.665 1.335,-2 0.667,-2.671l-44.685,-74.03Z" style="fill-rule:nonzero;"/><path d="M42.057,103.582c2,-1.335 2,-2 1.332,-2.664l-44.685,-74.037c-1.335,-1.335 -1.335,-1.335 -2.667,-0.671c-0.667,0.671 -1.335,2.006 -0.667,2.67l44.685,74.031c0.666,0.671 1.334,1.342 2.002,0.671Z" style="fill-rule:nonzero;"/><path d="M368.202,21.546l-2.667,-0.665l-78.036,56.021c-1.332,0.671 -1.332,1.335 -0.668,2l2.67,1.335l78.701,-56.021c1.335,-1.341 1.335,-2.006 0,-2.67Z" style="fill-rule:nonzero;"/><path d="M363.531,4.872l-2.667,-0.665l-81.367,54.687c-1.336,1.335 -1.336,2.006 -0.668,3.334l2.668,0l82.034,-55.357c0.668,0.001 1.337,-1.334 0,-1.999Z" style="fill-rule:nonzero;"/><path d="M335.521,0.873l-2.003,-0.671l-70.031,48.023c-2,0.665 -2,1.329 -1.332,2c1.332,1.335 2.667,2 3.334,1.335l70.032,-48.023l0,-2.664Z" style="fill-rule:nonzero;"/><path d="M373.536,43.555l-1.999,-0.67l-69.364,47.358c-0.668,0 -0.668,1.335 -0.668,2l3.336,1.335l68.695,-47.359l0,-2.664Z" style="fill-rule:nonzero;"/><path d="M372.872,68.234l-2.67,0l-61.359,41.347c-0.667,0.671 -0.667,2.006 -0.667,2.67l3.334,0.664l60.694,-41.347c1.332,-0.663 1.332,-1.334 0.668,-3.334Z" style="fill-rule:nonzero;"/><path d="M374.204,93.578c-0.668,-1.335 -2,-2 -2.667,-0.671l-54.693,37.354c-1.332,0.671 -1.332,1.335 0,2c0.669,1.335 1.336,1.335 2.004,1.335l54.688,-37.354c1.335,-1.329 1.335,-1.329 0.668,-2.664Z" style="fill-rule:nonzero;"/><path d="M368.202,261.654c0.668,-36.019 -4.671,-73.366 -16.675,-112.72c-23.342,-77.365 -67.363,-122.053 -132.725,-135.392l-54.024,0c-19.342,4.67 -39.351,11.339 -62.694,21.344c-44.689,19.344 -77.369,42.017 -98.046,68.696l-0.668,118.718c10.672,-12.004 26.015,-25.343 44.021,-40.018c38.018,-28.007 74.701,-47.352 112.052,-56.027l61.358,-24.673l18.01,7.334c14.007,8.005 24.011,20.673 30.682,38.019c8.668,21.344 14.003,34.683 18.006,40.688c3.334,5.999 10.004,12.668 18.01,19.338l32.68,23.344c14.007,10.005 24.01,21.345 30.013,31.349Z" style="fill:#9260c7;fill-rule:nonzero;"/><path d="M303.505,210.296l16.675,11.34l24.679,18.673c8.67,7.341 15.339,14.675 20.01,23.344c1.335,1.335 1.999,1.335 4.002,1.335l2.667,-3.335c0.667,-37.348 -4.67,-75.373 -16.674,-114.719c-24.679,-78.036 -70.033,-123.388 -134.73,-136.727l-56.691,0c-20.009,5.334 -42.018,12.668 -64.694,22.008c-44.021,19.345 -76.702,42.689 -96.711,69.367l-1.335,2l-0.667,118.718l2.002,2.671l4.003,0c11.336,-12.675 26.011,-26.015 44.685,-40.018c36.683,-28.014 73.367,-46.688 110.05,-56.028l60.694,-24.008c6.002,1.329 12.004,4 18.674,8.669c11.34,7.34 20.677,18.674 26.678,34.684c8.006,21.338 14.007,35.348 17.343,40.683c4.001,6.669 10.671,14.003 19.34,21.343Zm4.003,-5.334c-8.67,-6.67 -14.008,-13.34 -17.342,-18.681c-3.335,-5.999 -8.669,-19.338 -17.339,-40.683c-7.338,-18.002 -18.01,-31.342 -31.349,-40.018c-8.005,-4.664 -14.675,-7.334 -20.009,-7.334l-1.336,0l-62.026,24.672c-31.348,8.012 -64.029,23.344 -96.042,45.359c-20.677,14.003 -38.687,29.349 -55.36,45.352l0.667,-108.714c20.009,-25.35 51.357,-47.352 94.71,-66.696c22.009,-9.34 42.685,-16.01 62.694,-21.344l54.024,0c56.692,11.339 96.71,48.687 122.055,111.385c14.674,36.683 22.675,78.029 24.012,123.389c-8.006,-11.34 -22.009,-23.344 -41.354,-35.354l-16.005,-11.333Z" style="fill-rule:nonzero;"/><path d="M45.392,134.931c0,-1.335 -1.335,-2.006 -2.003,-1.335c-1.332,0 -2,1.335 -1.332,2c0,1.335 2.667,6.669 8.669,15.345l2.667,0.665l0.667,-2.67l-8.668,-14.005Z" style="fill-rule:nonzero;"/><path d="M25.382,138.265l-2.667,-0.664c-1.336,0.664 -2.003,1.329 -0.668,2.664l7.337,10.675l12.672,21.338c0,1.335 1.332,1.335 2,0.664c1.335,-0.664 1.335,-1.329 1.335,-2.664l-20.009,-32.013Z" style="fill-rule:nonzero;"/><path d="M6.041,144.936c-0.667,-1.336 -2.003,-1.336 -2.671,-1.336c-1.332,1.336 -1.332,2 -1.332,3.335l11.337,20.009c8.004,14.01 14.007,23.344 18.677,28.014l3.335,0c0.667,-0.665 0.667,-1.335 0,-2.67c-4.67,-4.664 -10.672,-14.004 -18.677,-27.343l-10.669,-20.009Z" style="fill-rule:nonzero;"/><path d="M314.177,133.595c-8.001,-15.339 -19.341,-30.684 -33.349,-44.688l-19.341,-15.339c-0.667,-0.67 -1.999,-0.67 -2.667,0c-0.667,1.335 -0.667,2.664 0.668,3.335l18.673,15.339c13.34,13.339 24.679,28.014 32.682,42.688c7.337,15.339 12.671,35.348 14.674,58.692c1.332,12.004 2,22.008 1.332,31.349c0,1.329 0.668,2 2.004,2l1.999,-2c0.668,-8.676 0,-19.345 -1.332,-31.349c-2.003,-24.679 -8.005,-44.687 -15.343,-60.027Z" style="fill-rule:nonzero;"/><path d="M307.508,142.265c-6.003,-13.339 -14.008,-25.343 -26.011,-37.348l-18.01,-14.674l-2.667,0.671c-0.668,1.329 -0.668,2.664 0.667,2.664l16.674,14.01c12.005,11.333 20.01,24.008 25.344,36.012c8.005,20.009 13.339,44.688 14.675,74.037c0,1.329 0,1.993 2,1.993l1.335,-1.993c-0.668,-29.349 -6.003,-54.699 -14.007,-75.372Z" style="fill-rule:nonzero;"/><path d="M113.42,94.913c0,-1.335 -1.332,-1.335 -2.667,-1.335c-10.672,4.67 -22.008,12.004 -33.348,22.008c-23.344,20.673 -36.683,44.688 -39.351,72.702c-0.667,2 0,2 2,2c0.668,0.671 2.003,0 2.003,-1.335c3.335,-27.344 15.338,-50.688 38.015,-70.032c10.672,-10.004 22.012,-17.339 32.017,-22.009c1.331,0 1.998,-1.335 1.331,-1.999Z" style="fill-rule:nonzero;"/><path d="M142.102,93.578c0,-0.671 -0.667,-1.335 -2.003,-1.335c-11.336,2.67 -22.676,8.005 -36.015,16.674c-25.344,17.338 -44.021,41.353 -55.357,70.696c-0.667,1.341 0,2.006 1.332,2.67c1.335,0 2.003,0 2.67,-1.329c10.669,-29.349 28.01,-52.028 53.357,-68.702c12.671,-7.999 24.008,-13.34 34.68,-16.01l1.336,-2.664Z" style="fill-rule:nonzero;"/><path d="M84.742,111.587c-0.667,-1.335 -1.335,-1.335 -2.667,0c-6.67,5.334 -14.007,10.668 -23.344,15.339c-19.341,10.004 -37.351,12.668 -54.692,8.669c-0.668,0 -1.332,1.335 -2,2.006l2,2.664c17.341,3.334 36.015,0 55.36,-9.333c9.337,-4.677 18.006,-10.005 25.344,-16.01c0.666,-1.336 0.666,-2.671 -0.001,-3.335Z" style="fill-rule:nonzero;"/><path d="M346.858,199.621l-18.674,-1.993c-2,0 -2.668,0.665 -2,1.993c0,1.342 0.664,2.006 2,2.006l16.674,2c11.34,3.335 18.01,10.004 20.01,21.344c0,1.329 0,2 1.999,1.329l1.335,-2.664c-1.335,-12.004 -8.67,-20.009 -21.344,-24.015Z" style="fill-rule:nonzero;"/><path d="M364.868,198.292c-0.669,-6.67 -3.336,-12.011 -8.67,-16.01c-4.671,-3.999 -11.34,-6.005 -19.345,-6.669c-6.669,-0.664 -10.005,-0.664 -12.004,0c-1.336,0 -1.336,0.665 -1.336,2.006c0,1.329 0.668,1.993 2.003,1.993l10.005,0c8.002,0.67 14.007,2.006 18.007,5.341c4.669,4 6.669,8.669 8.004,14.003c0,1.335 0,2.006 1.999,1.335l1.337,-1.999Z" style="fill-rule:nonzero;"/><path d="M337.521,154.275l-17.341,-0.671c-2,0.671 -2,1.335 -2,2.664l2.667,2.006l15.342,0c10.67,1.329 17.34,6.67 20.674,15.339l2.003,1.335c1.332,0 1.332,-1.335 1.332,-2.67c-3.336,-10.005 -11.338,-15.339 -22.677,-18.003Z" style="fill-rule:nonzero;"/><path d="M320.18,128.261l-10.005,1.329c-1.332,0.671 -1.999,1.342 -1.332,2.67c0,1.335 1.332,1.335 2.667,1.335l8.67,-2c7.337,0 12.675,0.665 18.009,3.335c6.67,3.999 10.672,10.005 13.339,18.674c0.669,1.335 2.001,2 3.336,1.335c1.335,0 1.335,-1.335 1.335,-2.67c-3.335,-9.34 -8.673,-16.01 -16.674,-20.673c-5.338,-2.671 -12.008,-3.999 -19.345,-3.335Z" style="fill-rule:nonzero;"/><path d="M314.845,103.582l-19.341,4.67c-0.668,0.665 -1.335,2 -0.668,3.335c0.668,0.665 2,1.329 3.335,0l16.674,-3.335c12.004,-0.664 20.677,4.664 26.012,15.339c0.667,1.335 1.335,1.335 2.667,1.335c1.335,0 1.335,-1.335 1.335,-2.67c-6.671,-12.004 -16.674,-18.674 -30.014,-18.674Z" style="fill-rule:nonzero;"/><path d="M296.836,86.237l-13.34,8.676c-1.332,0.665 -1.332,2 0,2.67c0.668,0.665 1.335,0.665 2.671,0l12.004,-7.34c9.337,-4.67 18.01,-4.67 26.011,0c0.668,0 1.335,0 2.667,-1.335c0.668,-0.665 0.668,-1.329 -1.332,-2c-8.673,-5.335 -18.009,-5.335 -28.681,-0.671Z" style="fill-rule:nonzero;"/><path d="M307.508,62.229c-9.337,-5.334 -19.342,-4.664 -28.679,2.67l-11.34,12.004c-0.668,1.335 -0.668,2 0.668,2.664l2.668,-0.665l10.672,-10.668c7.337,-6.67 16.006,-6.67 24.012,-2.671c1.332,1.335 1.999,0.665 2.667,-0.665l-0.668,-2.669Z" style="fill-rule:nonzero;"/><path d="M281.497,39.549l-1.336,-1.993c-6.669,-1.342 -13.34,2.664 -19.341,10.669l-8.67,13.339c-0.667,0.664 0,1.329 1.332,2l2.671,-0.671l7.334,-11.333c5.338,-8.005 10.672,-11.34 15.342,-10.005l2.668,-2.006Z" style="fill-rule:nonzero;"/><path d="M256.817,24.881c0,-2.006 -1.332,-2.006 -2.667,-2.006c-12.672,3.335 -20.677,12.011 -24.012,26.015c-1.999,7.334 -2.667,14.674 -1.999,20.673l2.667,2.006c1.335,0 1.335,-1.335 1.335,-2.67c-0.668,-6.005 0,-12.004 2,-18.674c2.667,-12.004 10.004,-20.009 20.676,-23.344l2,-2Z" style="fill-rule:nonzero;"/><path d="M220.802,12.87c0,-1.328 -1.332,-1.328 -2.667,-1.328c-10.005,5.334 -14.675,13.339 -14.675,26.014c0,5.999 0.668,11.998 2.003,17.338l2.667,1.329c1.336,-0.665 2,-1.329 1.336,-2.664c-1.336,-5.334 -2.004,-10.005 -2.004,-15.339c0,-11.34 4.004,-18.68 12.672,-22.68c1.336,-0.663 1.336,-1.328 0.668,-2.67Z" style="fill-rule:nonzero;"/><path d="M186.785,12.207l-2.667,0c-10.004,8.004 -14.007,20.673 -12.671,37.347c1.335,8.676 3.334,17.345 6.669,25.35c0.668,0.665 2,0.665 2.667,0.665l0.667,-2.67c-2.667,-6.67 -4.67,-14.004 -6.002,-22.673c-1.335,-15.339 2,-27.35 11.336,-34.684l0,-3.335l0.001,0Z" style="fill-rule:nonzero;"/><path d="M154.105,15.541c-0.668,-0.664 -2,-0.664 -2.667,0c-10.004,10.669 -12.004,24.008 -4.67,39.354c3.335,7.999 7.337,14.668 13.34,20.009c0.667,1.329 1.335,1.329 2.67,0c1.332,-0.665 1.332,-1.335 0,-2.67c-5.338,-5.335 -9.34,-11.333 -12.675,-18.674c-6.002,-13.339 -5.334,-25.344 4.002,-35.348c0.668,-1.336 0.668,-2.006 0,-2.671Z" style="fill-rule:nonzero;"/><path d="M122.76,24.881c-1.335,0 -2.003,0 -2.671,1.329c-6.002,12.011 -4.667,25.35 6.67,39.354c5.337,6.67 11.339,12.675 18.009,18.009c1.335,0.671 2,0 3.335,-1.335c0,-0.665 0,-2 -0.668,-2c-6.669,-4.669 -12.672,-10.004 -17.342,-16.674c-10.004,-13.339 -12.672,-24.679 -6.669,-35.348c0.668,-1.335 0.668,-2.006 -0.664,-3.335Z" style="fill-rule:nonzero;"/><path d="M95.414,35.55c-1.335,0 -2.003,0.664 -2.003,2.67c0,14.004 5.338,27.343 16.01,40.018c5.334,5.334 11.337,10.005 16.674,13.34c1.332,0.664 2,0 2.667,-0.665c0.667,-0.671 0,-2.006 -0.668,-2.67c-5.334,-3.335 -10.672,-7.334 -16.006,-13.339c-10.004,-11.34 -14.675,-23.344 -14.675,-36.683l-1.999,-2.671Z" style="fill-rule:nonzero;"/><path d="M75.405,45.554c-0.668,0 -1.335,0 -2.003,1.335c-4.667,11.34 -2,24.015 9.34,36.683c6.002,6.67 12.004,12.669 19.341,18.009l2.667,-0.664c0.668,-0.671 0.668,-2.006 -0.667,-2.67l-17.342,-16.01c-11.336,-12.004 -14.004,-24.008 -9.337,-34.013l-1.999,-2.67Z" style="fill-rule:nonzero;"/><path d="M55.396,57.565l-2.667,1.329c-3.335,12.675 -2.003,24.008 3.999,33.348c7.337,10.004 17.342,16.674 30.681,19.345l2.667,-1.335l-1.332,-2.664l-11.34,-4.006c-7.337,-3.334 -13.339,-8.004 -17.342,-13.339c-4.667,-8.669 -6.002,-18.674 -3.335,-30.014c0.001,-1.335 0.001,-2 -1.331,-2.664Z" style="fill-rule:nonzero;"/><path d="M34.719,72.233c-1.335,-0.665 -2.667,0 -2.667,1.335c-3.334,15.339 -2.002,28.014 5.334,36.684c4.67,5.334 12.007,10.004 21.344,11.339l14.007,1.329c1.332,0 2,-0.665 1.332,-1.993l-2,-2.006l-12.007,-0.665c-9.337,-2.006 -16.006,-6.005 -20.009,-11.339c-6.002,-6.67 -8.001,-18.009 -3.999,-32.013c0.665,-2.006 0,-2.671 -1.335,-2.671Z" style="fill-rule:nonzero;"/><path d="M14.71,90.243c-1.335,0 -2,0 -2,1.335c-2.003,15.339 0.665,26.678 8.001,34.012c6.67,7.334 16.007,10.669 26.679,10.005l2.002,-2l-2.002,-2c-10.005,0.665 -17.342,-2.67 -23.344,-8.676c-6.67,-7.334 -9.337,-18.003 -7.338,-30.678l-1.998,-1.998Z" style="fill-rule:nonzero;"/><path d="M274.159,78.903l-1.999,-17.338c-1.335,-12.011 -4.671,-19.345 -9.338,-21.344c-9.34,8.669 -22.012,16.674 -38.686,21.344c-8.669,-13.339 -15.338,-20.009 -19.342,-18.68c0,20.68 -3.334,34.019 -8.668,38.024c-8.006,-4.005 -14.675,-6.005 -21.345,-6.669c-21.344,3.335 -42.018,10.669 -62.694,21.338l16.674,2.67c12.004,3.334 18.673,7.998 20.009,14.004c2.667,10.668 4.667,19.344 7.337,26.678c-8.004,2.67 -17.342,6.669 -26.014,12.675c-17.338,10.668 -26.678,22.679 -28.01,35.348c-1.335,14.674 4.002,25.343 16.006,32.677c10.672,6.006 21.344,8.676 32.681,6.006c17.342,-4 23.344,-11.333 18.009,-24.009c-0.667,-2.67 -4.002,-6.005 -8.672,-11.339c-4.667,-4.006 -7.334,-8.005 -8.002,-12.004c0,-5.341 1.332,-10.668 4.667,-16.01c3.335,-4.664 5.338,-7.334 8.005,-8.669l6.001,9.333c5.338,6.005 11.34,10.675 17.342,12.675c10.005,3.335 18.009,9.34 25.344,18.01c8.005,10.675 8.673,20.009 2.003,28.014l12.004,-3.335c7.338,-3.335 13.339,-8.005 16.674,-16.01c2.668,-7.334 3.336,-14.003 1.336,-19.345l-4.003,-5.999c2.667,-3.335 3.335,-8.669 4.003,-14.675c2,-12.004 -1.336,-24.008 -8.005,-36.683l8.005,1.335c6.669,0.671 11.336,3.335 15.339,8.005c5.337,6.669 10.672,10.668 15.342,12.004c-1.335,-11.34 -4.002,-18.674 -7.337,-22.673l12.672,-6.006c8.669,-6.669 14.007,-14.675 17.341,-24.008l-10.004,-2.006c3.335,-5.334 5.335,-14.004 4.666,-24.672c-6.669,5.999 -12.672,10.005 -19.341,11.334Z" style="fill:#d96038;fill-rule:nonzero;"/><path d="M277.494,74.239l-2.667,-20.68c-2.667,-8.669 -6.002,-14.01 -10.005,-16.003l-4.002,0.665c-9.337,7.998 -20.677,14.668 -35.349,20.009c-8.671,-14.004 -16.672,-20.009 -22.011,-18.01c-1.999,0 -1.999,1.335 -1.999,2.664c0,17.345 -2.667,28.685 -6.67,34.019c-8.006,-3.335 -14.674,-5.334 -20.009,-5.999l-0.667,0c-22.009,3.999 -43.353,10.668 -64.029,21.337c-1.332,1.335 -1.332,2.006 -1.332,3.335l0,0.665l2.667,2.67l19.341,3.335c9.336,2.67 14.007,6.67 14.674,11.34l6.669,23.344c-11.339,4.67 -21.344,10.005 -30.013,15.339c-14.674,10.669 -22.012,22.68 -23.344,34.684l0,4.67c0,10.004 3.335,19.345 11.336,26.679c5.337,4.664 12.675,8.669 20.677,10.005l20.676,0.664c10.672,-2 17.342,-6.67 20.677,-12.004l2,-8.005l-2,-8.669c-0.667,-2.664 -4.002,-6.669 -8.672,-11.339c-4.667,-4 -7.334,-7.334 -8.002,-11.333l0,-2.006c0,-6.669 2.667,-12.004 8.669,-17.338c6.002,10.669 14.007,17.338 23.344,20.673c6.002,2.006 11.34,5.341 17.341,10.005c6.003,6.005 9.338,11.339 10.673,16.674l1.332,4.67l-3.335,8.669l-1.332,2.67l0.668,1.329c0.664,0.671 1.999,2.006 3.334,2.006l12.672,-3.335c9.337,-3.335 15.339,-10.004 18.675,-18.009l2.667,-13.339c0,-5.999 -2,-10.005 -4.667,-14.01c2.667,-6.669 4.002,-13.339 4.002,-19.338c0,-8.669 -2.002,-18.009 -7.338,-27.349c7.338,0.671 12.672,2.67 16.008,7.34c6.001,6.669 11.34,11.34 16.674,13.339l3.334,0l1.336,-3.334l-1.336,-8.67l-4.002,-12.675c14.007,-6.005 23.344,-16.674 28.014,-30.678l0,-0.664l-2.003,-2.67l-6.001,-2.67c1.335,-4.664 2.667,-10.669 2.667,-16.674l0,-5.335l-2.667,-2.664c-2,-0.67 -2.668,0 -3.336,0.665l-13.339,9.336Zm-5.334,7.334l2.667,0.665c4.67,-0.665 10.004,-4 15.339,-7.334c-0.665,6.669 -2,12.004 -3.999,15.339l-0.668,2l0.668,2.006l2.667,1.329l6.002,0.665c-3.335,7.34 -9.337,14.01 -16.675,19.344l-10.004,6.005l-2.668,2l0,0.671l1.332,1.993c1.336,2.67 3.336,7.34 4.671,14.01l-8.005,-8.005c-4.667,-3.999 -9.337,-7.334 -16.674,-8.669l-10.005,-1.335c-1.332,0 -1.999,1.335 -2.667,2.67l0,2.671c6.002,9.333 8.672,19.338 8.672,29.342c0,7.341 -1.335,13.34 -4.002,18.01l-0.668,2l1.335,2.664l2,2.67l1.999,8.005c0,3.335 -1.332,6.669 -2.667,11.339c-2.667,7.334 -9.337,12.675 -18.673,15.339l1.332,-6.67l-1.332,-6.669c-2.004,-6.67 -6.67,-13.339 -14.008,-19.338c-6.002,-6.006 -12.672,-9.34 -18.673,-12.011c-5.338,-2 -11.34,-5.334 -16.01,-11.333l-5.334,-8.676c-0.667,-1.329 -2,-2 -4.002,-2c-3.334,1.335 -6.67,4.67 -10.004,10.004c-4.002,6.67 -6.002,12.004 -5.334,18.009c1.332,5.334 4.667,10.005 10.005,16.01l7.337,9.334c2,4.006 2,7.34 0,10.004c-2.003,4.005 -7.337,6.669 -16.01,8.669l-18.006,-0.664c-6.669,-1.335 -13.339,-4.67 -17.342,-8.676c-6.002,-5.999 -9.336,-12.668 -9.336,-21.338l0,-3.999c1.332,-12.011 10.004,-23.344 26.678,-34.019c8.669,-4.67 16.674,-8.669 25.343,-11.34l2.668,-3.335l-8.002,-27.343c-1.335,-8.676 -11.339,-14.675 -28.681,-18.009c18.677,-8.669 36.019,-13.34 51.357,-16.003c6.002,0.664 12.672,2.664 20.009,5.999l3.335,0c6.002,-4.67 9.336,-16.674 10.004,-36.012c3.336,1.993 8.005,7.333 13.34,16.003c0.668,1.335 2,2 4.002,1.335c14.672,-4.67 26.679,-11.339 36.684,-20.009c2.667,2 4.666,7.334 6.002,14.668l2.668,19.345l1.333,2.67Z" style="fill-rule:nonzero;"/><path d="M222.805,74.904l-4.67,2c-2.667,1.335 -3.335,4.005 -4.002,8.005c0,3.335 0.667,6.005 2.667,7.999l4.002,2.67c2.668,0 4.003,-0.665 6.002,-2.67l3.335,-7.334c0,-3.334 -1.332,-6.005 -2.667,-8.669l-4.667,-2.001Zm-0.667,3.999l1.999,1.335l1.335,4.67l0,0.664c0,3.999 -1.335,6.006 -4.002,6.006l-2,-1.335c-1.335,-1.335 -1.335,-3.334 -1.335,-5.334c0,-2.67 0.667,-4.67 2.667,-5.341l1.336,-0.665Z" style="fill-rule:nonzero;"/><path d="M262.822,100.918l-6.005,0.664l-5.334,4.664c-0.668,2.006 -0.668,4.006 0,5.341l3.334,2.67l7.338,-0.671c2.667,-1.335 4.666,-3.334 5.334,-5.334l0,-4.67c-1.332,-1.335 -2.667,-2 -4.667,-2.664Zm0.665,4.664l0,1.335l-2.667,3.335l-4.667,0l-1.336,-0.671c0,-1.329 0.668,-2.664 3.336,-4.664l5.334,0.665Z" style="fill-rule:nonzero;"/><path d="M228.14,179.612l-3.335,2.67l-1.335,4l0.667,3.335c0.668,2.67 2.003,4.676 4.003,5.341l4.67,0.665c2.667,-0.665 4.667,-2.67 4.667,-6.669l-0.668,-3.335l-4.667,-5.335l-4.002,-0.672Zm0.667,4.006l1.332,0l2.671,3.335l0.664,2l-2,2.67l-0.667,0l-2.667,-3.334c-0.668,-1.335 -0.668,-3.335 0,-3.999l0.667,-0.672Z" style="fill-rule:nonzero;"/><path d="M253.482,76.903l-5.334,0c-3.335,0.671 -6.003,3.334 -8.005,6.669c-2,3.335 -2.667,6.67 -2.667,9.334c0.667,2.67 1.335,5.341 3.334,6.005l4.671,0c3.335,-0.664 6.002,-2.67 8.669,-6.669c1.335,-3.334 2.667,-6.005 2.667,-8.669c0,-3.335 -1.332,-5.335 -3.335,-6.67Zm-3.999,3.335l2,0l0.667,3.335l-1.335,6.67l-6.002,5.334l-2,-0.665c-1.335,0 -1.335,-1.335 -1.335,-3.334c0,-1.335 0.667,-3.335 1.999,-6.006c1.336,-2.67 3.336,-3.999 6.006,-5.334Z" style="fill-rule:nonzero;"/><path d="M210.798,142.265c-1.332,-16.674 -10.005,-30.678 -26.012,-44.017l-6.669,14.004c-4.67,11.339 -4.67,21.344 -2,30.013c2.667,8.676 9.337,14.674 18.674,18.009l13.339,3.335c2.668,-5.999 3.336,-13.339 2.668,-21.344Z" style="fill:#ffe000;fill-rule:nonzero;"/><path d="M175.449,112.251c-4.002,11.339 -4.002,21.344 -1.335,30.677c4.002,8.676 10.672,15.346 20.677,19.345l13.339,2.671l2.668,-1.335c2.003,-5.334 3.335,-13.339 2.003,-22.009c-1.335,-16.674 -10.673,-32.019 -26.679,-44.688l-1.336,-0.67l-1.335,0.67l-8.002,15.339Zm0.668,18.01c0,-9.334 2.667,-19.338 9.337,-28.679c16.006,13.34 23.344,28.679 23.344,45.353l-1.337,14.01c-15.338,-0.671 -25.343,-7.34 -29.345,-19.345c-1.335,-3.335 -1.999,-7.334 -1.999,-11.339Z" style="fill-rule:nonzero;"/><path d="M201.461,141.6c-1.335,-8.005 -6.003,-14.674 -13.34,-21.344l-2.667,10.676c0.667,7.998 5.334,15.332 14.671,20.673c1.336,-2.67 1.336,-6.006 1.336,-10.005Z" style="fill:#da8e55;fill-rule:nonzero;"/><path d="M188.121,118.256l-1.336,0.665l-1.999,5.341c-1.335,3.999 -1.335,7.998 0,12.668c1.999,6.669 6.67,11.34 14.008,16.003l1.999,0.671l0.668,-2c1.999,-2.67 1.999,-6.006 1.999,-10.005c-1.332,-8.005 -6.002,-16.01 -14.003,-23.344l-1.336,0l0,0.001Zm0,17.339l0,-5.334c0,-2.664 0,-5.335 0.668,-6.67c6.669,6.67 10.005,13.339 10.005,20.68l0,3.999c-5.338,-3.999 -8.673,-8.005 -10.673,-12.675Z" style="fill-rule:nonzero;"/><path d="M124.092,176.948c-4.003,6.669 -6.67,13.339 -6.67,20.68c0,10.669 4.67,20.673 15.342,29.343c1.332,1.335 2,1.335 2.667,0c1.332,-1.335 1.332,-2 0,-3.334c-9.337,-8.005 -14.007,-16.674 -14.007,-26.008c0,-6.005 2,-12.675 6.002,-18.68l6.002,-7.334l0.667,-3.334c-1.332,0 -2,0 -3.334,0l-6.669,8.667Z" style="fill-rule:nonzero;"/></g></g><rect id="PATH77" x="2.92" y="2.74" width="366.67" height="582.52" style="fill:none;stroke:#000;stroke-width:3px;"/></svg>