<?xml version="1.0" encoding="UTF-8" standalone="no"?><!DOCTYPE svg PUBLIC "-//W3C//DTD SVG 1.1//EN" "http://www.w3.org/Graphics/SVG/1.1/DTD/svg11.dtd"><svg width="100%" height="100%" viewBox="0 0 372 587" version="1.1" xmlns="http://www.w3.org/2000/svg" xmlns:xlink="http://www.w3.org/1999/xlink" xml:space="preserve" xmlns:serif="http://www.serif.com/" style="fill-rule:evenodd;clip-rule:evenodd;stroke-miterlimit:100;"><g><clipPath id="_clip1"><rect x="3.045" y="2.77" width="367.385" height="583.242"/></clipPath><g clip-path="url(#_clip1)"><path d="M130.509,-0.626l-38.194,-1.312c-1.318,13.827 0.656,29.634 7.241,47.409c13.17,34.907 40.831,59.93 81.661,76.394c3.293,-5.267 5.93,-12.509 7.242,-21.73c3.293,-19.1 1.316,-38.856 -6.586,-60.586c-7.241,-21.075 -24.361,-34.246 -51.364,-40.175Z" style="fill:#858585;fill-rule:nonzero;"/><path d="M114.045,7.284c-1.319,-1.325 -2.63,-0.663 -3.293,1.312c-1.318,1.318 -1.318,2.637 0.663,3.293l19.756,19.756c16.463,20.412 30.946,47.416 44.116,81.661c1.318,1.974 1.981,2.636 3.293,1.974c1.98,-0.663 1.98,-1.974 1.98,-3.292c-13.833,-36.22 -28.978,-63.879 -44.786,-84.291l-21.729,-20.413Z" style="fill-rule:nonzero;"/><path d="M113.389,7.94c-1.974,0 -1.974,0 -2.637,1.312c-3.948,11.859 -4.611,27.003 -1.318,44.786c0,1.312 0.663,1.974 1.981,1.312c1.312,-0.656 1.974,-1.312 1.312,-2.63c-1.312,-10.541 -1.312,-20.419 -0.656,-30.297l2.637,-12.508c0,-0.663 0,-1.975 -1.319,-1.975Z" style="fill-rule:nonzero;"/><path d="M130.509,23.747c-1.318,-0.662 -2.63,0 -2.63,1.313l-1.98,20.412c-1.313,13.833 -1.975,25.029 -1.313,31.615l1.313,1.975l1.318,0l1.974,-1.975c-1.312,-6.585 -1.312,-17.782 0,-31.615l2.637,-19.756c0.655,-0.656 -0.001,-1.313 -1.319,-1.969Z" style="fill-rule:nonzero;"/><path d="M146.316,45.471c-1.318,0 -1.974,0 -1.974,1.98c-2.637,19.756 -3.955,35.563 -3.292,48.072c0,1.318 0.656,1.975 1.974,1.975c1.974,0 1.974,-0.656 1.974,-1.975c-0.656,-12.508 0.656,-28.315 3.292,-48.072c0,-1.317 0,-1.98 -1.974,-1.98Z" style="fill-rule:nonzero;"/><path d="M160.805,70.5l-2.637,1.974l-1.318,13.171c-0.656,11.196 0,20.418 1.974,28.971l2.637,1.325l1.319,-2.636c-1.975,-7.904 -2.637,-17.12 -1.975,-27.66l1.312,-13.171l-1.312,-1.974Z" style="fill-rule:nonzero;"/><path d="M134.464,28.352c-0.663,0 -1.981,0 -1.981,1.318c-0.656,1.318 0,1.974 1.318,2.63l13.833,5.274c10.534,4.604 19.756,9.222 26.341,13.827c0.656,1.318 1.312,1.318 2.63,-0.656c1.318,0 0.663,-1.318 0,-2.637c-7.904,-4.605 -16.463,-9.878 -27.66,-13.827l-14.481,-5.929Z" style="fill-rule:nonzero;"/><path d="M152.901,56.012l-1.974,1.974c-0.662,1.318 0,1.981 0.656,2.637l12.515,3.293c7.896,3.292 13.826,6.585 16.463,8.559l3.292,0l-0.662,-3.292c-2.63,-1.974 -8.56,-5.267 -17.782,-8.56l-12.508,-4.611Z" style="fill-rule:nonzero;"/><path d="M171.995,81.035l-7.241,-0.656c-1.318,0 -1.974,0.656 -1.974,1.975l1.974,1.974l6.585,0.656c5.267,0.663 9.878,3.292 14.489,6.585l2.631,-0.656c0.661,-0.656 0.661,-1.974 -0.656,-2.637c-4.612,-3.949 -9.879,-5.923 -15.808,-7.241Z" style="fill-rule:nonzero;"/><path d="M101.537,102.109c0.656,41.486 5.923,88.902 15.801,142.904c18.438,107.34 49.39,190.975 90.876,251.555l131.052,-3.948c-50.707,-67.165 -85.607,-152.12 -106.685,-255.51c-9.877,-51.365 -15.802,-96.15 -15.802,-135l-115.242,-0.001Z" style="fill:#f00;fill-rule:nonzero;"/><path d="M220.073,102.109c0,-1.974 -1.317,-3.292 -3.294,-3.292l-115.242,0c-1.318,0 -1.981,0.663 -3.293,1.318l0,1.974c1.312,42.805 6.586,91.533 16.463,144.878c19.094,107.996 49.391,190.975 90.877,250.906c0.654,1.313 1.975,1.969 2.629,1.969l131.052,-3.948l2.639,-1.977l0,-3.291c-49.392,-65.854 -84.954,-150.146 -105.366,-252.216c-10.542,-51.374 -15.809,-96.809 -16.465,-136.321Zm-115.243,3.292l108.656,0c1.313,46.098 7.242,95.488 19.095,146.852c21.075,94.833 54.001,173.856 100.099,237.073l-122.484,3.948c-38.854,-55.978 -67.833,-134.337 -86.926,-233.117c-10.543,-53.344 -16.466,-105.365 -18.44,-154.756Z" style="fill-rule:nonzero;"/><path d="M48.192,456.398c1.974,4.609 3.955,10.533 5.268,18.442l3.292,19.757c1.98,5.262 5.273,9.878 9.878,16.463l13.17,16.465l39.512,65.189l52.682,0c-6.585,-6.585 -19.755,-25.021 -38.193,-55.313c-17.781,-27.667 -28.971,-46.099 -31.608,-52.685l-7.242,-20.416l-6.585,-19.094l-7.903,-12.516l-13.833,-19.098c-4.605,-7.24 -16.464,-36.22 -35.558,-87.584l-28.316,-74.41l-7.247,108.658l52.683,96.142Z" style="fill:#858585;fill-rule:nonzero;"/><path d="M6.049,250.279l-3.293,-1.974l-3.292,3.292l-7.248,108.003l0,1.967l53.346,96.15c1.975,4.61 3.949,11.854 5.267,21.73l2.631,15.808c1.98,5.929 6.585,13.825 15.151,22.395l9.215,11.846l38.856,64.542c0.656,1.312 1.318,1.974 2.63,1.974l52.682,0l3.293,-1.974l-0.656,-3.949c-6.585,-5.931 -19.1,-24.374 -38.194,-54.663l-31.608,-52.025l-7.248,-22.389l-5.923,-16.462l-9.222,-15.146l-13.17,-17.782c-3.949,-6.585 -15.807,-35.559 -35.564,-86.271l-27.653,-75.072Zm51.365,227.858c-1.974,-11.203 -3.955,-19.102 -5.93,-23.712l-52.683,-95.487l6.585,-91.53c32.927,88.901 52.684,138.289 58.614,147.504l13.17,19.094l8.56,13.171l5.93,15.81l7.897,23.049l27.66,46.753c16.463,27.666 29.634,46.098 37.538,56.639l-43.461,0l-38.2,-63.224l-9.878,-12.508c-7.241,-8.563 -11.19,-15.146 -13.17,-19.759l-2.632,-15.8Z" style="fill-rule:nonzero;"/><path d="M50.166,455.743c-6.585,-21.074 -17.119,-50.046 -30.946,-85.608l-19.756,-46.754c0,-1.324 -0.662,-1.98 -1.98,-0.662c-1.312,0 -1.312,0.662 -1.312,1.975l19.093,47.416c13.833,34.9 23.711,63.224 30.953,84.946c0.656,1.324 1.318,1.324 2.637,1.324c1.311,-0.662 1.311,-1.324 1.311,-2.637Z" style="fill-rule:nonzero;"/><path d="M51.484,416.889l-25.679,-69.803l-23.049,-61.906c-0.662,-1.311 -1.318,-1.974 -3.292,-1.311c-1.318,0.654 -1.318,1.311 -0.662,2.629l23.048,60.588l25.686,70.458l9.216,30.296c3.955,13.17 6.585,22.387 9.222,26.341c2.637,4.611 8.559,11.854 18.437,21.73l12.515,13.17l55.313,84.298c0,1.969 1.318,1.969 2.637,0.657c0.656,-0.657 1.318,-1.319 0.656,-1.981l-55.313,-85.608l-12.515,-13.17l-17.782,-20.411l-9.878,-25.688l-8.56,-30.289Z" style="fill-rule:nonzero;"/><path d="M71.903,418.206l-2.637,1.976l-0.656,15.808c0,11.188 2.63,19.1 6.585,25.021c5.923,9.879 13.826,16.464 24.36,20.419l2.637,-0.663c0.656,-1.974 0,-2.629 -1.319,-3.292c-9.215,-3.293 -17.119,-9.878 -22.386,-18.438c-3.955,-5.272 -5.273,-13.17 -5.929,-23.704l0.656,-14.495c0.001,-1.315 0.001,-1.969 -1.311,-2.632Z" style="fill-rule:nonzero;"/><path d="M100.875,507.77c-0.656,-1.323 -1.318,-1.979 -2.63,-1.323l-28.322,6.586c-1.312,0.663 -1.974,1.325 -1.312,2.637l1.974,1.981l28.315,-7.911l1.975,-1.97Z" style="fill-rule:nonzero;"/><path d="M109.434,520.94c0,-1.324 -0.656,-1.324 -1.974,-1.324l-27.66,5.93c-1.312,0.655 -1.974,1.317 -1.312,2.636c0,1.313 1.312,1.313 1.975,1.313l27.66,-5.923l1.311,-2.632Z" style="fill-rule:nonzero;"/><path d="M121.949,540.034l-2.636,-1.976l-28.315,4.604c-1.318,0.662 -1.975,1.325 -1.318,2.637c0,1.98 0,1.98 1.98,1.98l28.972,-4.617l1.317,-2.628Z" style="fill-rule:nonzero;"/><path d="M131.171,553.867c-0.663,-1.325 -1.981,-1.98 -2.637,-1.325l-28.316,6.586c-1.318,0 -1.975,0.663 -1.318,1.981c0,1.312 0.656,1.975 2.637,1.312l27.653,-6.586c1.981,0 1.981,-1.312 1.981,-1.968Z" style="fill-rule:nonzero;"/><path d="M84.411,231.842c-3.292,-54.664 -8.56,-96.806 -15.145,-126.44c-10.534,-48.072 -28.316,-84.947 -52.027,-110.632l-38.194,0l2.637,69.802c5.923,40.83 16.463,86.928 32.264,137.636c30.953,102.071 69.809,177.804 117.225,227.194c-6.586,-19.756 -13.833,-42.807 -21.075,-69.803c-15.144,-52.682 -23.71,-95.487 -25.685,-127.757Z" style="fill:#858585;fill-rule:nonzero;"/><path d="M6.049,24.403c-0.662,-1.981 -1.981,-2.637 -3.293,-1.981c-1.98,0.663 -2.636,1.981 -1.318,3.293l13.827,38.856c10.541,30.29 17.782,57.957 21.731,83.635l1.98,10.541c9.216,50.046 17.12,89.558 25.679,119.848c14.489,54 33.589,100.098 56.638,138.292c1.312,1.318 2.63,1.981 3.292,1.318c1.975,-0.662 2.631,-2.631 1.313,-3.956c-23.049,-38.849 -41.487,-84.284 -55.976,-137.629c-8.56,-30.952 -17.12,-70.464 -25.023,-118.536l-2.631,-11.196c-3.955,-25.023 -11.196,-53.339 -21.737,-84.291l-14.482,-38.194Z" style="fill-rule:nonzero;"/><path d="M52.147,69.845c1.313,-0.663 1.974,-1.325 1.313,-2.637c-15.802,-25.029 -32.266,-42.805 -51.366,-55.319l-2.63,0c-0.662,1.318 -0.662,2.637 0.656,3.293c4.611,2.637 10.534,7.241 16.463,13.17c12.515,12.515 23.705,25.686 33.583,40.83l1.981,0.663Z" style="fill-rule:nonzero;"/><path d="M18.558,59.967c-0.656,-0.663 -1.318,-0.663 -2.63,0c-0.663,0.656 -0.663,1.968 0,2.63c21.068,21.074 36.22,38.85 47.41,54.001l2.637,0.656l0.656,-3.292c-11.191,-15.146 -27.655,-32.927 -48.073,-53.995Z" style="fill-rule:nonzero;"/><path d="M33.703,110.669c-1.312,-0.656 -1.974,-0.656 -2.63,0c-0.662,1.318 -0.662,1.98 0,2.637c14.489,13.17 28.972,29.634 40.831,49.39c0,1.312 1.312,1.974 2.63,0.656c1.318,-0.656 1.974,-1.974 0.663,-2.636c-12.516,-21.07 -26.343,-37.532 -41.494,-50.047Z" style="fill-rule:nonzero;"/><path d="M43.581,157.422c-1.313,-1.312 -1.974,-1.312 -3.293,0c-1.312,0.663 -1.312,1.981 0,2.637l15.152,16.463c10.534,13.171 19.093,25.686 25.023,36.22l2.63,1.318c1.318,-0.663 1.318,-1.974 1.318,-3.292c-6.585,-11.196 -15.8,-23.049 -26.341,-36.22l-14.489,-17.126Z" style="fill-rule:nonzero;"/><path d="M50.829,198.915l-2.637,0c-1.318,0.656 -1.318,1.975 0,2.637l13.171,17.12c9.222,13.17 16.463,25.023 21.73,34.901c0,1.318 1.318,1.318 1.981,1.318l1.312,-3.293c-4.604,-9.878 -12.508,-21.074 -21.73,-34.907l-13.827,-17.776Z" style="fill-rule:nonzero;"/><path d="M62.681,253.572l-0.656,2.63l-2.637,-0.656l34.245,50.708l2.63,0.663l1.318,-2.638l-34.9,-50.707Z" style="fill-rule:nonzero;"/><path d="M78.488,308.885l-0.662,2.637l-2.63,-0.654l26.341,32.928l3.293,0l0,-1.98l-26.342,-32.931Z" style="fill-rule:nonzero;"/><path d="M96.926,358.938c-0.663,-0.662 -1.975,-0.662 -2.637,0c-1.318,0.664 -1.318,1.318 0,2.631l23.711,23.71c1.312,1.316 1.974,1.316 3.292,0l0,-2.631l-24.366,-23.71Z" style="fill-rule:nonzero;"/><path d="M7.361,31.645c-1.312,0 -1.974,0.656 -1.974,1.981c-4.611,60.58 -5.923,104.703 -3.293,132.362l1.974,1.974l1.981,-1.974c-1.981,-27.66 -1.318,-71.783 3.293,-131.707c0,-1.981 -0.662,-2.636 -1.981,-2.636Z" style="fill-rule:nonzero;"/><path d="M31.072,102.771c-1.318,-0.663 -1.975,0 -2.637,1.312l-7.241,34.245c-3.955,27.66 -5.267,54.658 -3.293,80.999c0,1.981 0.656,2.637 1.975,1.981l1.974,-1.981c-1.974,-26.341 -0.656,-52.684 3.292,-79.681l7.248,-34.245c0.001,-1.318 0.001,-1.974 -1.318,-2.63Z" style="fill-rule:nonzero;"/><path d="M41.607,152.817c-1.319,0 -1.975,0 -2.631,1.974l-5.273,34.246c-2.63,26.997 -3.292,52.683 -1.312,77.043c0,1.325 1.312,1.981 2.631,1.981l1.974,-2.637c-2.63,-23.705 -1.974,-49.391 0.662,-76.388l5.923,-33.583l-1.974,-2.636Z" style="fill-rule:nonzero;"/><path d="M51.484,208.793c-1.318,0 -1.974,0 -1.974,1.974c-0.656,1.318 -1.318,11.196 -2.637,30.952c-0.656,23.048 0,41.486 1.318,54.657c0,1.317 0.663,1.976 1.974,1.976l1.981,-1.976c-1.981,-13.833 -1.981,-31.609 -0.663,-54.657l1.975,-30.952c0.001,-1.318 0.001,-1.974 -1.974,-1.974Z" style="fill-rule:nonzero;"/><path d="M65.317,268.062c-1.98,-0.656 -2.636,0 -2.636,1.312l-0.656,25.028c-0.662,17.119 0,28.979 1.312,36.22c0.663,1.313 1.98,1.976 2.637,1.976c1.318,-0.662 1.974,-1.976 1.318,-3.293c-1.975,-6.584 -1.975,-18.438 -1.975,-35.558l1.313,-23.71l-1.313,-1.975Z" style="fill-rule:nonzero;"/><path d="M81.781,338.52l1.312,-14.481c0,-1.315 0,-1.979 -1.312,-1.979l-2.637,1.324l-0.656,15.141c-0.662,10.539 0,20.418 2.63,28.979l1.974,1.316c1.318,0 1.981,-0.662 1.318,-2.629c-1.973,-7.253 -2.629,-17.13 -2.629,-27.671Z" style="fill-rule:nonzero;"/><path d="M98.244,363.549c-0.662,0 -1.98,0 -1.98,1.975l-1.312,11.197c0,8.559 0.656,15.807 3.292,21.729c0,1.317 1.312,1.975 1.975,1.317c1.318,0 1.318,-1.317 1.318,-1.979c-1.981,-5.923 -3.293,-12.509 -2.637,-21.067l0.656,-10.535c0,-1.327 0,-2.637 -1.312,-2.637Z" style="fill-rule:nonzero;"/><path d="M354.41,87.62c-13.17,-44.779 -37.537,-75.075 -71.776,-89.558l-36.219,1.312c-5.929,18.444 -9.224,42.148 -10.541,69.808c-2.631,56.638 7.249,108.659 28.315,156.73c22.393,47.416 48.076,82.973 77.713,104.054c15.145,11.19 26.997,17.12 37.528,19.095c-12.508,-15.803 -25.021,-36.884 -37.528,-64.537c-25.029,-54 -35.563,-111.293 -33.591,-170.562l17.126,17.781c13.826,11.197 26.996,17.782 38.851,19.756c0.663,-19.756 -2.63,-40.83 -9.878,-63.879Z" style="fill:#858585;fill-rule:nonzero;"/><path d="M295.143,224.601c-10.533,-30.296 -16.463,-67.834 -18.438,-111.295c-1.975,-31.615 -7.24,-58.612 -16.463,-80.343l-13.17,-24.367l-3.293,-0.656c-1.318,1.312 -1.318,3.292 -0.655,3.949l13.17,23.048c7.897,21.737 13.171,48.078 14.481,78.369c2.638,44.779 9.223,82.317 19.101,113.263c13.827,42.149 36.875,79.686 67.827,109.982c1.319,1.969 3.294,1.969 3.956,0c1.313,-0.662 1.313,-1.98 0,-3.293c-30.953,-30.296 -53.346,-66.515 -66.516,-108.657Z" style="fill-rule:nonzero;"/><path d="M247.07,11.232c0.656,-1.318 0,-1.98 -0.655,-2.637l-2.638,0.656c-1.976,2.637 -3.948,7.248 -5.93,13.17c-3.293,11.859 -4.604,26.342 -3.947,44.13c0,1.312 0,1.968 1.974,1.968l1.317,-1.968c0,-17.125 1.975,-31.615 5.269,-42.805l4.61,-12.514Z" style="fill-rule:nonzero;"/><path d="M262.216,39.548c-1.975,-1.318 -2.631,-0.662 -2.631,0.663c-3.292,5.26 -5.929,12.508 -9.222,21.068c-5.93,17.782 -9.877,35.563 -10.534,52.683c0,1.318 0.657,2.637 1.313,2.637l2.637,-2.637c0.656,-16.463 4.609,-33.583 9.878,-51.364c3.292,-8.56 6.585,-15.146 9.222,-20.418c0.654,-1.313 0.654,-2.632 -0.663,-2.632Z" style="fill-rule:nonzero;"/><path d="M272.756,83.015c0.656,-1.325 0.656,-2.637 -1.316,-2.637c-1.318,0 -1.976,0 -2.637,0.656l-8.562,26.341c-5.931,21.074 -8.56,40.168 -8.56,57.293c0,1.318 0.653,1.974 1.975,1.974l1.974,-1.974c0,-16.463 3.293,-35.557 8.562,-55.975c2.635,-9.877 5.272,-18.436 8.564,-25.678Z" style="fill-rule:nonzero;"/><path d="M276.049,135.036c-0.662,0 -1.98,0 -2.637,1.318c-6.585,21.73 -9.879,46.098 -9.879,73.095c0,1.318 0.656,2.637 1.976,2.637l1.974,-2.637c0,-16.463 1.981,-32.927 5.273,-50.046l4.604,-21.075c-0.001,-1.974 -0.001,-2.63 -1.311,-3.292Z" style="fill-rule:nonzero;"/><path d="M283.945,192.33c-1.313,0 -1.975,0 -1.975,1.313c-1.318,0.662 -1.976,8.565 -1.976,21.736c-1.318,16.463 0,31.608 3.292,45.441l2.637,1.312c1.313,0 1.313,-0.656 1.313,-1.975c-3.293,-13.833 -3.948,-28.315 -3.948,-44.779l2.637,-21.074c0.001,-1.318 0.001,-1.974 -1.98,-1.974Z" style="fill-rule:nonzero;"/><path d="M305.683,254.891l-2.637,-2.637c-0.655,0 -1.316,1.319 -1.316,2.637l0.661,17.119c1.313,13.17 3.292,23.705 5.924,30.952c0,1.317 1.316,1.976 1.975,1.317c1.979,0 1.979,-1.317 1.979,-1.979c-2.637,-7.897 -4.609,-17.776 -5.929,-30.946l-0.657,-16.463Z" style="fill-rule:nonzero;"/><path d="M329.387,297.695c-0.653,0 -1.315,0.656 -1.974,1.974l0.656,9.879c0,7.247 1.315,13.171 3.954,19.093l1.975,1.325l1.318,-2.637c-1.981,-5.272 -3.293,-11.196 -3.955,-18.444l0,-9.216l-1.974,-1.974Z" style="fill-rule:nonzero;"/><path d="M296.461,73.793c1.974,0 2.636,-1.319 1.318,-2.637c-7.247,-16.463 -17.127,-30.945 -30.297,-43.46l-17.774,-14.489l-2.638,0.662c-0.655,0.656 -0.655,1.968 0,2.631l17.119,13.833c13.17,11.846 23.049,26.997 29.635,42.804c1.319,0.656 1.981,1.313 2.637,0.656Z" style="fill-rule:nonzero;"/><path d="M302.391,113.306c-6.586,-17.782 -15.152,-34.245 -25.029,-48.734l-12.508,-17.12c-1.318,-1.318 -1.976,-1.318 -2.638,0c-1.319,0.657 -1.319,1.313 0,1.975l11.853,17.125c9.223,13.826 17.781,30.29 24.366,48.065c1.319,0.663 1.319,1.981 2.639,1.325l1.317,-2.636Z" style="fill-rule:nonzero;"/><path d="M273.412,91.568c-0.656,-1.312 -1.318,-1.312 -2.637,-0.656c-0.656,1.318 -1.313,1.981 -0.656,2.637l11.854,17.775c7.902,13.17 13.832,24.374 17.781,33.589c0,1.318 0.655,1.318 2.637,1.318l0.655,-2.637c-3.292,-9.878 -9.222,-20.412 -17.12,-33.583l-12.514,-18.443Z" style="fill-rule:nonzero;"/><path d="M277.359,142.939c-0.655,-1.318 -1.975,-0.656 -3.293,0.656c0,1.319 0,1.98 1.318,2.637l8.561,8.559c7.904,8.56 13.834,17.782 19.101,29.635c0,0.663 1.318,1.318 2.637,0.663c0.656,-0.663 1.313,-1.325 0.656,-2.637c-5.268,-11.197 -11.196,-21.737 -19.101,-29.635l-9.879,-9.878Z" style="fill-rule:nonzero;"/><path d="M283.945,189.037l-2.631,0c-1.317,0.656 -0.662,1.974 0.656,3.292l9.223,7.242c7.239,7.241 12.509,14.489 17.118,23.705l2.638,0.662c1.316,0 1.976,-1.318 0.656,-2.63c-4.611,-9.222 -10.534,-17.126 -17.781,-24.374l-9.879,-7.897Z" style="fill-rule:nonzero;"/><path d="M301.728,246.987c-1.316,0 -1.974,0 -2.631,1.318c0,1.312 0,1.974 1.313,2.637l7.901,3.949l17.782,13.827c0.655,1.318 1.977,1.318 2.639,0c0.653,-0.656 0.653,-1.975 0,-2.637l-18.444,-14.483l-8.56,-4.611Z" style="fill-rule:nonzero;"/><path d="M326.095,292.421c-0.654,0 -1.975,0.662 -2.637,1.325l1.98,2.631l8.56,2.63c5.923,1.325 11.196,3.955 13.827,7.247l2.637,0.663c0.655,-0.663 1.317,-1.325 0.655,-3.292c-3.948,-3.293 -8.562,-6.585 -15.146,-9.225l-9.876,-1.979Z" style="fill-rule:nonzero;"/><path d="M274.066,13.207l-3.291,0.662c-0.656,1.313 -0.656,2.631 0,3.949l34.242,32.927c24.367,28.315 40.177,59.268 48.734,90.876c0.656,1.318 1.318,1.974 3.293,1.318c1.317,0 1.977,-1.318 1.977,-3.293c-8.562,-32.271 -25.688,-62.561 -50.048,-92.195l-34.907,-34.244Z" style="fill-rule:nonzero;"/><path d="M310.949,51.401c-1.318,0 -1.976,1.318 -1.976,2.637l0,19.756c0.655,15.145 2.632,29.634 5.925,41.486c0.661,1.318 1.316,1.318 2.637,1.318c1.317,0 1.975,-1.318 1.316,-2.637c-3.292,-11.853 -5.929,-25.023 -5.929,-40.168l0,-19.755c0.003,-1.319 -0.654,-2.637 -1.973,-2.637Z" style="fill-rule:nonzero;"/><path d="M331.361,81.035c-1.318,0 -1.977,0.656 -1.977,1.98l0.656,17.775c1.318,13.827 2.637,25.686 5.929,35.563c0,0.656 0.657,1.312 2.64,1.312c0.654,-0.656 1.312,-1.312 0.654,-2.63c-2.637,-9.878 -3.947,-21.074 -5.268,-34.245l-0.663,-17.775l-1.971,-1.98Z" style="fill-rule:nonzero;"/><path d="M309.631,33.625l-16.462,-1.981c-1.319,0 -2.637,0.656 -2.637,2.637c0,0.656 1.317,1.313 2.637,1.313l16.462,1.98c12.518,1.974 23.704,5.267 33.583,11.19l3.292,-0.656l-0.655,-2.637c-10.535,-5.923 -23.049,-9.877 -36.22,-11.846Z" style="fill-rule:nonzero;"/><path d="M316.217,57.986c-1.975,-0.656 -2.637,0 -2.637,1.318c-0.655,1.318 0,1.975 1.318,1.975l14.486,4.611c10.534,3.292 19.756,6.585 27.66,9.878c0.655,1.318 1.977,0.663 1.977,-1.318l-0.657,-1.975c-7.247,-3.955 -17.124,-7.247 -28.321,-10.54l-13.826,-3.949Z" style="fill-rule:nonzero;"/><path d="M335.316,85.646c-1.981,0 -2.639,0 -2.639,1.318c-0.654,1.312 0,1.974 0.655,3.292l9.879,3.292l15.15,8.56c0.655,0.663 1.975,0 2.632,-1.318c0.662,-0.656 0,-1.974 -0.657,-1.974c-3.292,-2.63 -8.56,-5.267 -15.145,-8.56l-9.875,-4.61Z" style="fill-rule:nonzero;"/></g></g><rect id="PATH77" x="2.92" y="2.74" width="366.67" height="582.52" style="fill:none;stroke:#000;stroke-width:3px;"/></svg>