<?xml version="1.0" encoding="UTF-8" standalone="no"?><!DOCTYPE svg PUBLIC "-//W3C//DTD SVG 1.1//EN" "http://www.w3.org/Graphics/SVG/1.1/DTD/svg11.dtd"><svg width="100%" height="100%" viewBox="0 0 372 587" version="1.1" xmlns="http://www.w3.org/2000/svg" xmlns:xlink="http://www.w3.org/1999/xlink" xml:space="preserve" xmlns:serif="http://www.serif.com/" style="fill-rule:evenodd;clip-rule:evenodd;stroke-miterlimit:100;"><g><clipPath id="_clip1"><rect x="3.184" y="92.595" width="366.775" height="491.757"/></clipPath><g clip-path="url(#_clip1)"><path d="M191.309,325.393l-13.811,1.312l-9.864,87.468c-4.602,68.388 -0.655,124.946 11.181,171.635l11.835,0.654c-4.603,-21.038 -7.891,-48.666 -9.207,-81.546c-3.945,-65.103 -0.657,-124.288 9.866,-179.523Z" style="fill:#fff;fill-rule:nonzero;"/><path d="M193.283,324.068l-1.975,-1.31l-13.812,1.31c-1.971,0.662 -1.971,1.324 -2.629,1.979l-9.206,88.777c-4.604,68.395 -0.658,124.947 10.522,171.635c0,0.655 0.658,1.979 2.63,1.979l11.834,0.654l1.316,-0.654l0.658,-2.634c-3.945,-21.707 -7.234,-49.32 -8.551,-81.547c-4.601,-64.444 -1.313,-123.631 9.863,-178.211l-0.65,-1.978Zm-13.81,5.268l8.546,-0.654c-7.233,38.133 -10.521,79.567 -10.521,124.945c0,47.999 3.288,91.405 9.863,130.2l-6.575,-0.655c-7.889,-33.535 -11.835,-71.683 -11.835,-117.054c0,-49.321 3.288,-95.354 10.522,-136.782Z" style="fill-rule:nonzero;"/><path d="M227.479,308.952l-24.33,11.175c-7.234,24.333 -18.416,48.666 -34.197,74.314l-0.658,17.75c22.357,-18.412 38.798,-41.428 49.979,-68.395l9.206,-34.844Z" style="fill:#ffe000;fill-rule:nonzero;"/><path d="M228.794,306.975l-1.976,-0.654l-24.987,11.836l-0.658,1.316c-7.233,23.017 -19.07,48.004 -34.194,74.309l-0.658,0.662l-0.658,17.095l0.658,2.634l3.288,0c22.358,-18.419 39.458,-41.436 50.634,-69.05l9.864,-36.169l-1.313,-1.979Zm-23.675,15.129l19.07,-8.554c-2.631,12.497 -6.576,24.994 -12.494,37.485c-9.864,21.045 -23.018,39.456 -40.115,54.58l0.658,-10.52c15.123,-25.648 26.305,-50.635 32.881,-72.991Z" style="fill-rule:nonzero;"/><path d="M90.695,586.46l24.988,1.979c-1.972,-22.361 -8.548,-46.033 -19.07,-70.373c-21.045,-48.659 -51.292,-79.568 -90.094,-91.404l10.522,9.864c9.206,9.203 17.757,19.066 25.646,29.593c24.992,35.507 41.432,74.963 48.008,120.341Z" style="fill:#858585;fill-rule:nonzero;"/><path d="M7.177,424.035c-1.313,-0.662 -1.972,0 -3.288,1.31c0,1.316 0,2.633 1.316,3.288l11.178,10.521c8.551,8.554 17.099,18.418 24.991,29.593c24.988,34.857 40.77,74.314 46.691,118.37l2.63,1.979l24.988,1.311l2.63,0l0.658,-2.627c-3.288,-23.017 -9.864,-46.694 -20.387,-71.677c-21.699,-49.985 -51.95,-80.239 -91.407,-92.068Zm51.951,62.473c-11.836,-20.39 -25.646,-37.491 -40.112,-52.607c30.906,13.807 55.239,41.422 72.993,80.878c10.522,23.017 17.099,46.694 20.387,70.373l-19.729,-1.323c-5.26,-34.848 -16.441,-67.728 -33.539,-97.321Z" style="fill-rule:nonzero;"/><path d="M1.917,308.291l14.466,19.066c11.839,17.103 23.017,34.858 33.539,54.588c33.539,64.443 55.239,132.832 63.79,205.831l27.618,1.316c-1.972,-31.57 -9.206,-67.74 -21.7,-107.195c-25.647,-78.252 -64.445,-136.776 -117.713,-173.606Z" style="fill:#858585;fill-rule:nonzero;"/><path d="M47.95,384.578c15.782,29.593 28.276,61.149 38.14,92.721c-1.971,-20.384 -7.234,-40.772 -16.44,-60.502c-15.124,-34.852 -32.881,-65.761 -53.268,-94.037c43.403,35.514 76.284,87.461 99.3,155.194c11.839,37.485 19.729,73.654 23.017,108.506l-23.017,-1.31c-3.288,-30.916 -11.836,-61.818 -24.988,-90.102c9.864,30.254 16.44,61.163 19.728,93.39l3.288,1.965l27.618,1.322l1.316,-0.661l1.316,-1.972c-1.975,-33.536 -9.209,-69.705 -22.361,-109.162c-25.644,-79.575 -65.101,-137.442 -118.369,-174.266l-3.288,0.654c-0.655,1.311 -1.313,1.973 0,3.289l14.469,19.729c11.836,17.096 23.017,34.852 33.539,55.242Z" style="fill-rule:nonzero;"/><path d="M34.798,94.566c18.412,34.197 36.827,80.885 54.581,139.416c34.855,117.055 49.979,234.764 45.375,354.457l30.909,3.288c1.972,-50.645 -1.316,-109.828 -11.181,-176.9c-19.729,-134.158 -59.186,-240.031 -119.684,-320.261Z" style="fill:#858585;fill-rule:nonzero;"/><path d="M36.77,92.595l-3.288,0c-0.658,0.655 -1.313,1.971 -0.658,3.288c18.415,35.514 36.827,82.202 53.925,140.732c34.853,116.392 49.321,233.453 45.375,351.823c0,1.966 0,2.627 1.975,2.627l31.564,3.287l1.972,-0.66l0.658,-1.966c1.975,-52.608 -1.972,-112.456 -11.836,-178.879c-20.387,-134.149 -59.844,-240.684 -119.687,-320.252Zm68.391,189.391c-14.466,-57.869 -32.881,-111.133 -53.923,-159.799c44.716,69.05 75.625,155.85 94.696,260.413c11.836,63.79 17.099,126.926 17.099,189.398l0,16.44l-26.305,-2.634l1.313,-38.146c0.001,-88.777 -11.177,-177.554 -32.88,-265.672Z" style="fill-rule:nonzero;"/><path d="M230.766,583.827l27.621,-1.965c4.602,-57.222 26.963,-113.117 68.393,-169.015c21.045,-28.271 41.428,-49.978 61.155,-66.418c-63.787,30.911 -108.505,79.571 -136.124,145.994c-13.153,33.542 -20.387,63.79 -21.045,91.404Z" style="fill:#858585;fill-rule:nonzero;"/><path d="M258.387,585.15l2.631,-2.634c3.945,-56.553 26.305,-111.795 67.732,-167.036c20.387,-27.614 40.773,-49.977 60.501,-67.071c1.972,-0.661 1.972,-2.634 1.317,-3.288c-1.317,-1.323 -2.635,-1.323 -3.947,-0.661c-63.131,30.254 -109.164,78.913 -136.127,145.991c-13.811,34.189 -21.7,65.105 -22.357,93.376c0,1.323 0,1.323 0.657,1.979l2.63,0.654l26.963,-1.31Zm-24.332,-3.949c1.315,-28.933 9.863,-59.849 23.674,-92.066c23.676,-57.214 61.815,-100.613 113.111,-130.205c-25.649,24.986 -48.008,52.607 -66.42,82.855c-28.279,46.033 -44.72,92.065 -48.008,138.099l-22.357,1.317Z" style="fill-rule:nonzero;"/><path d="M382.675,166.904c-29.592,14.469 -61.156,43.406 -94.036,85.49c-65.106,85.49 -105.877,195.968 -121.004,332.757l36.827,1.965c-0.657,-40.768 6.576,-88.116 21.045,-144.015c28.932,-111.132 81.543,-203.198 157.168,-276.197Z" style="fill:#858585;fill-rule:nonzero;"/><path d="M384.646,164.932c-0.654,-1.316 -1.973,-1.316 -3.288,-1.316c-30.905,16.44 -62.474,46.033 -95.354,88.778c-9.863,13.152 -18.412,28.276 -24.33,44.062c30.906,-49.321 65.104,-88.123 103.901,-116.399c-65.104,69.711 -111.794,154.541 -140.07,254.498c-15.127,55.897 -23.675,105.874 -23.675,150.598l-31.564,-2.634c12.494,-112.449 43.4,-207.804 91.408,-286.063c-51.296,77.597 -84.177,172.951 -96.67,288.033l0.658,1.972l1.316,0.655l36.825,3.288l1.975,-1.311l1.313,-1.979c0,-41.422 7.234,-90.088 21.703,-144.675c29.594,-110.472 81.544,-201.883 155.854,-274.22l0,-3.287l-0.002,0Z" style="fill-rule:nonzero;"/><path d="M139.358,232.665l-24.333,44.716l23.017,7.893c11.181,-16.44 16.44,-29.593 16.44,-37.485c0.658,-5.26 -1.972,-9.209 -7.89,-11.836l-7.234,-3.288Z" style="fill:#fff;fill-rule:nonzero;"/><path d="M112.395,276.727c0,0 0,0.655 0,1.972l1.316,1.316l23.675,7.231l2.63,-0.655c11.178,-17.757 16.44,-30.248 17.099,-38.802c0.655,-5.26 -1.975,-9.209 -5.921,-13.152c-3.288,-1.972 -7.89,-3.943 -11.836,-4.598l-2.63,1.31l-24.333,45.378Zm27.621,-40.774c7.89,1.316 11.836,5.26 11.836,11.181l0,0.655c0,6.576 -5.26,18.418 -15.124,34.197l-17.757,-5.915l21.045,-40.118Z" style="fill-rule:nonzero;"/><path d="M238.658,210.31l-11.182,-1.323l-2.629,23.678c-1.316,17.757 -0.658,34.197 0.657,47.35l11.836,-3.288c-1.313,-30.248 -0.656,-52.61 1.318,-66.417Z" style="fill:#fff;fill-rule:nonzero;"/><path d="M227.479,206.36c-1.973,0 -2.631,0 -2.631,1.972c-0.658,5.921 -1.972,14.469 -2.63,24.995c-1.315,17.75 -0.657,33.536 1.313,46.688l1.316,1.972l1.971,0l11.182,-3.289l1.973,-1.972c-1.313,-30.248 -0.656,-52.609 1.315,-65.761l0,-2.633l-1.972,-0.655l-11.837,-1.317Zm1.973,5.26l7.231,1.316c-1.973,9.203 -2.631,23.017 -2.631,42.745l0.658,18.412l-6.576,2.633c-0.658,-6.576 -1.316,-14.469 -1.316,-24.333c0,-11.18 1.319,-24.988 2.634,-40.773Z" style="fill-rule:nonzero;"/><path d="M186.049,301.715l15.782,-5.915c1.315,-15.13 0.657,-29.592 -2.63,-44.068c-2.631,-11.174 -6.576,-21.039 -11.182,-28.931c-5.26,-8.548 -9.206,-10.525 -12.494,-7.237c-3.288,1.978 -2.63,8.554 0.658,17.763c5.26,13.807 7.889,23.671 9.206,28.931c0.66,8.548 1.318,21.7 0.66,39.457Z" style="fill:#9260c7;fill-rule:nonzero;"/><path d="M172.897,213.598c-1.975,2.626 -3.288,5.915 -1.975,9.864c0,2.626 1.316,7.886 4.604,14.462l6.576,24.995c1.972,7.886 1.972,21.038 1.316,38.795l1.313,2.626l2.63,0.662l15.127,-6.576l1.972,-1.972c1.315,-15.786 0.658,-30.909 -2.63,-45.378c-2.63,-9.209 -5.26,-17.096 -9.206,-24.988c-3.946,-8.548 -7.893,-13.152 -12.494,-14.469c-2.632,-0.654 -4.603,0.001 -7.233,1.979Zm3.946,3.943l1.972,-0.655c2.63,0.655 5.917,4.598 9.207,11.174c3.945,6.576 6.576,15.13 8.551,24.333c1.972,8.548 2.63,17.757 2.63,28.276l-0.658,13.808l-9.864,3.949l0,-11.836l-0.658,-24.333l-7.889,-26.305l-4.604,-15.124l1.313,-3.287Z" style="fill-rule:nonzero;"/><path d="M112.395,272.122l13.811,6.576c9.864,-15.779 17.099,-31.564 20.387,-48.005c3.288,-14.469 5.26,-24.333 4.602,-29.592c0,-7.893 -1.972,-11.842 -6.576,-11.842c-4.602,0 -7.89,3.949 -9.864,11.842l-4.602,24.988c-2.631,12.491 -8.552,27.621 -17.758,46.033Z" style="fill:#9260c7;fill-rule:nonzero;"/><path d="M124.889,280.669l3.288,-0.655c10.522,-16.44 17.757,-32.226 21.045,-49.321l3.946,-26.304c1.313,-6.576 0,-11.842 -1.975,-14.469c-1.972,-1.971 -3.943,-3.288 -6.576,-3.288c-5.26,0 -8.548,2.626 -10.52,7.893c-1.316,3.288 -2.633,9.864 -3.946,19.073l-2.63,12.491c-2.633,11.181 -8.551,26.305 -17.099,44.717l0,1.978l1.313,1.311l13.154,6.574Zm-8.548,-9.863c8.548,-18.412 13.811,-33.536 16.44,-44.055l1.972,-12.498l3.946,-15.785c1.316,-3.943 3.288,-6.576 5.918,-6.576l1.975,1.316l1.972,7.893l-3.946,28.938c-3.943,15.779 -9.864,30.248 -19.07,44.71l-9.207,-3.943Z" style="fill-rule:nonzero;"/><path d="M295.214,291.189c1.972,-21.039 -2.633,-35.507 -13.812,-44.055c-10.521,-7.893 -21.045,-7.893 -30.908,0c-5.26,4.598 -9.206,9.209 -12.494,15.124c-7.234,1.316 -13.152,3.95 -15.782,7.893c-3.946,4.598 -5.918,11.836 -3.946,21.039c0.658,4.611 3.946,8.554 9.864,11.187l23.017,9.203c11.182,5.914 23.018,12.49 34.854,19.729c4.602,-13.816 7.889,-26.968 9.207,-40.12Z" style="fill:#9260c7;fill-rule:nonzero;"/><path d="M298.502,290.534c1.972,-21.7 -3.945,-36.824 -15.127,-46.033c-7.234,-5.26 -15.124,-7.231 -22.357,-5.26c-5.918,0.662 -11.182,3.95 -17.1,9.203l-8.548,10.526c-13.812,4.604 -21.045,12.491 -21.045,24.988l0.657,7.893c0.658,4.604 3.289,7.893 6.576,11.181c3.289,1.972 7.234,3.942 14.469,5.921l13.809,5.915c11.182,4.604 22.361,11.181 34.197,19.729l2.63,0l2.63,-1.973c4.603,-14.47 7.893,-28.283 9.209,-42.09Zm-5.921,-7.231c0,12.497 -2.63,26.96 -8.548,43.4c-9.864,-5.922 -19.729,-12.498 -32.223,-18.412l-13.81,-5.26c-5.918,-1.979 -9.863,-3.943 -11.836,-5.268c-2.633,-1.965 -4.604,-4.598 -4.604,-7.23l-0.658,-6.576c0,-5.259 1.315,-9.864 4.604,-13.152c2.631,-1.972 6.576,-3.943 13.152,-5.921l1.972,-1.31l6.576,-7.893c4.604,-5.915 9.864,-9.864 14.469,-10.526c5.918,-1.31 11.836,0.662 17.755,5.266c8.549,6.577 13.151,17.097 13.151,32.882Z" style="fill-rule:nonzero;"/><path d="M236.027,261.596l1.313,1.978c13.812,6.576 25.646,19.729 35.511,39.457c4.604,9.863 8.551,19.729 11.182,28.938l1.972,1.965l1.315,-2.625c-1.315,-34.197 -9.863,-56.56 -24.332,-67.079c-5.26,-3.288 -11.178,-5.26 -17.754,-5.26l-7.894,1.316l-1.313,1.31Zm7.891,1.323c5.918,-0.662 11.182,1.31 17.1,4.598c9.863,7.231 17.099,22.361 20.387,46.688c-8.551,-24.326 -21.705,-42.083 -37.487,-51.286Z" style="fill-rule:nonzero;"/><path d="M113.711,262.258c-7.893,-6.576 -15.782,-9.203 -24.333,-7.238c-9.864,1.978 -16.44,10.526 -20.387,24.995c-4.601,13.152 -5.259,29.592 -3.288,48.667c20.387,-6.576 36.827,-12.498 51.954,-17.103l26.305,-7.238c5.918,-2.626 9.206,-5.914 9.864,-9.864c0.655,-5.914 -1.975,-11.174 -7.893,-15.777c-5.918,-4.604 -13.152,-6.576 -22.358,-6.576c-2.629,-3.29 -5.262,-6.578 -9.864,-9.866Z" style="fill:#9260c7;fill-rule:nonzero;"/><path d="M125.547,268.834c-11.836,-14.469 -23.675,-19.729 -36.827,-16.44c-11.177,1.972 -19.07,11.836 -23.671,27.621c-3.946,13.807 -4.604,30.249 -2.633,49.321l1.975,1.973l1.972,0.66l65.761,-21.052l17.757,-5.914c4.602,-2.627 6.576,-6.576 7.234,-10.526c0.655,-5.914 -1.975,-11.829 -7.234,-17.095c-5.919,-5.26 -14.469,-8.548 -24.334,-8.548Zm4.605,36.169l-61.16,19.729l-1.313,-13.152c0,-15.124 1.972,-26.966 6.576,-36.169c3.288,-9.864 9.206,-15.124 16.44,-17.102c6.576,-1.31 14.465,0.662 21.7,5.921l7.893,9.864l3.288,1.316c9.864,0 16.44,1.971 22.358,7.237c3.288,3.943 5.26,7.231 4.604,11.83c0,1.979 -1.316,3.949 -5.263,5.267l-15.123,5.259Z" style="fill-rule:nonzero;"/><path d="M123.576,270.15c-19.729,-2.633 -35.51,5.921 -47.35,26.305c-6.576,9.863 -9.864,21.038 -12.494,32.227l1.316,1.965c1.313,0.662 1.972,0 2.63,-1.311c7.234,-13.809 19.07,-27.621 34.852,-40.112l21.703,-15.13l1.313,-1.972l-1.97,-1.972Zm-52.609,46.034c10.522,-28.938 26.305,-42.745 46.033,-42.745c-19.729,13.152 -34.856,27.614 -46.033,42.745Z" style="fill-rule:nonzero;"/><path d="M205.119,283.958l-19.07,6.576c-3.946,-3.288 -7.892,-5.259 -13.81,-7.231c-9.864,-2.633 -19.07,-0.655 -24.988,6.576c-7.234,7.23 -5.921,19.073 2.63,35.514c5.918,10.521 16.44,25.645 32.222,42.746c8.547,-7.238 16.44,-15.785 24.988,-25.649c16.44,-18.419 23.675,-34.197 21.046,-44.724c-1.319,-11.175 -9.207,-15.78 -23.018,-13.808Z" style="fill:#9260c7;fill-rule:nonzero;"/><path d="M166.979,279.359c-8.551,-0.661 -16.44,1.965 -22.361,7.886c-7.89,8.554 -6.576,21.045 1.316,37.485c5.918,11.182 17.099,26.967 32.881,46.033l2.63,0.661l2.629,-0.661l26.305,-26.967c16.439,-19.066 23.018,-35.507 21.045,-46.688c-0.658,-7.231 -3.945,-11.836 -9.863,-13.809c-8.549,-4.604 -19.729,-3.288 -34.854,3.288c-6.576,-3.94 -13.152,-6.572 -19.728,-7.228Zm17.753,13.808l3.288,0c13.812,-6.576 23.676,-7.893 30.252,-4.604c3.945,1.971 5.918,4.604 6.576,9.864l0,3.288c0,7.893 -4.604,19.066 -15.783,32.881l-26.962,28.932c-23.674,-28.271 -36.168,-48.659 -36.168,-61.813c0,-3.288 1.316,-6.576 3.288,-9.864c5.918,-6.576 13.152,-7.893 22.358,-5.26c4.604,1.972 9.205,3.288 13.151,6.576Z" style="fill-rule:nonzero;"/><path d="M186.707,288.563l-1.975,1.316c-7.234,9.864 -9.864,25.648 -9.206,47.344c0.658,11.188 1.971,21.707 3.946,31.57l2.629,1.311l1.972,-1.311c5.921,-19.729 8.551,-38.146 7.893,-56.553l-3.288,-22.361l-1.971,-1.316Zm-1.316,7.237c1.972,7.231 2.63,15.117 2.63,23.017c0,12.492 -1.973,25.645 -5.918,40.768l-2.629,-30.902c-0.001,-13.816 1.971,-24.342 5.917,-32.883Z" style="fill-rule:nonzero;"/><path d="M231.424,187.949l-3.945,21.039l11.181,1.323l9.864,-17.102c5.918,-12.491 5.26,-19.728 -1.316,-21.7c-7.235,-2.634 -12.496,3.287 -15.784,16.44Z" style="fill:#9260c7;fill-rule:nonzero;"/><path d="M247.863,168.22l-9.205,1.31c-4.604,2.633 -8.551,10.526 -11.182,21.051c-1.972,7.231 -2.629,13.808 -2.629,17.75c0,1.978 0,2.633 2.629,3.288l11.182,1.316l2.63,-1.316c10.522,-17.095 15.782,-29.593 13.151,-36.824c-0.657,-2.632 -3.287,-4.603 -6.576,-6.575Zm-1.97,5.26l3.943,3.288l0,3.288c0,6.576 -3.943,15.779 -11.836,27.621l-7.893,-1.317c0.658,-5.915 1.975,-11.835 3.945,-18.412c1.975,-7.231 4.604,-12.498 7.234,-14.469l4.607,0.001Z" style="fill-rule:nonzero;"/><path d="M195.913,587.115l34.853,-3.288c2.631,-55.897 16.44,-105.218 40.115,-148.618c7.893,-13.809 16.439,-25.648 24.988,-36.824l11.181,-11.181l-24.987,-5.914c-31.567,23.671 -55.242,65.1 -71.684,124.285c-7.891,29.593 -12.494,56.559 -14.466,81.54Z" style="fill:#858585;fill-rule:nonzero;"/><path d="M231.424,586.46l1.973,-2.633c2.633,-54.574 15.785,-103.896 40.114,-146.641c7.234,-13.813 15.128,-25.649 23.675,-36.169l11.836,-12.498l0.658,-1.978l-1.972,-2.627l-24.991,-5.259l-1.972,0.654c-32.224,23.672 -55.897,64.45 -72.338,122.976c-7.894,28.931 -13.152,57.214 -15.124,84.828l0.654,1.979l1.976,0.654l35.511,-3.286Zm-32.881,-2.633c2.63,-28.271 8.548,-57.862 17.1,-88.116c15.781,-52.609 38.799,-89.439 67.074,-111.795l19.073,4.604c-14.47,15.125 -27.621,34.854 -40.115,58.53c-19.729,40.112 -30.251,85.49 -33.539,134.813l-29.593,1.964Z" style="fill-rule:nonzero;"/><path d="M282.063,381.29c15.123,15.117 26.96,36.823 36.823,67.071c4.604,15.13 7.894,28.281 9.864,40.772c5.921,-28.932 6.576,-55.896 0.658,-82.202l-11.836,-29.593l-9.864,0.662l-5.918,1.965c-4.604,-1.31 -8.551,-1.31 -13.812,0l-5.915,1.325Z" style="fill:#858585;fill-rule:nonzero;"/><path d="M280.745,378.657l-1.315,1.971l0.657,2.627c14.47,13.813 26.305,36.169 36.169,65.762c4.604,14.476 7.894,28.282 9.864,40.118l2.63,2.627l1.975,-2.627c6.576,-28.932 7.234,-55.896 1.313,-82.201c-3.943,-15.778 -7.89,-26.306 -11.836,-31.563l-1.972,-1.317c-4.604,-0.66 -10.522,0 -17.1,3.288c-3.945,-1.315 -8.551,-1.315 -13.811,0l-6.574,1.315Zm19.729,3.288l1.973,0c5.921,-1.979 10.521,-3.288 13.811,-2.635c9.864,19.073 14.469,41.437 14.469,67.078l-1.975,27.621c-9.206,-40.772 -23.017,-71.027 -42.087,-91.41l13.809,-0.654Z" style="fill-rule:nonzero;"/></g></g><rect id="PATH77" x="2.92" y="2.74" width="366.67" height="582.52" style="fill:none;stroke:#000;stroke-width:3px;"/></svg>