<?xml version="1.0" encoding="UTF-8" standalone="no"?><!DOCTYPE svg PUBLIC "-//W3C//DTD SVG 1.1//EN" "http://www.w3.org/Graphics/SVG/1.1/DTD/svg11.dtd"><svg width="100%" height="100%" viewBox="0 0 372 587" version="1.1" xmlns="http://www.w3.org/2000/svg" xmlns:xlink="http://www.w3.org/1999/xlink" xml:space="preserve" xmlns:serif="http://www.serif.com/" style="fill-rule:evenodd;clip-rule:evenodd;stroke-miterlimit:100;"><g><path d="M57.993,395.005c2.639,0 4.621,-1.979 4.621,-4.614c0,-3.3 -1.982,-4.627 -4.621,-4.627c-1.979,0 -2.639,0.664 -3.3,1.327c-1.318,0.657 -1.979,1.973 -1.979,3.3c0,2.635 1.979,4.614 5.279,4.614Z" style="fill:#333;fill-rule:nonzero;"/><path d="M44.794,428c3.299,0 4.621,-1.979 4.621,-5.277c0,-3.3 -1.321,-4.621 -4.621,-4.621c-1.318,0 -1.979,0.657 -3.3,1.321l-1.979,3.3l1.979,3.963c1.322,0.657 1.983,1.314 3.3,1.314Z" style="fill:#333;fill-rule:nonzero;"/><path d="M82.411,385.106c3.299,0 4.617,-1.979 4.617,-4.614c0,-3.3 -1.318,-4.627 -4.617,-4.627c-3.3,0 -4.621,1.327 -4.621,4.627c0,2.636 1.321,4.614 4.621,4.614Z" style="fill:#333;fill-rule:nonzero;"/><path d="M44.794,366.63c3.299,0 4.621,-1.321 4.621,-3.963l-1.321,-3.3c-0.661,-1.314 -1.979,-1.973 -3.299,-1.973c-3.3,0 -5.278,1.973 -5.278,5.272c-0.001,2.643 1.978,3.964 5.277,3.964Z" style="fill:#333;fill-rule:nonzero;"/><path d="M327.896,538.871c3.3,0 4.621,-1.328 4.621,-4.627c0,-3.3 -1.321,-5.272 -4.621,-5.272c-1.317,0 -1.979,0.658 -3.299,1.973l-1.979,3.3c0,3.298 1.979,4.626 5.278,4.626Z" style="fill:#333;fill-rule:nonzero;"/><path d="M342.415,560.641l0.661,-3.3l-0.661,-3.3c-1.321,-1.314 -2.639,-1.972 -3.96,-1.972c-1.318,0 -2.639,0.657 -3.3,1.972l-1.979,3.3l1.979,3.3c0.661,1.327 1.981,1.327 3.3,1.327c1.321,0 2.639,0 3.96,-1.327Z" style="fill:#333;fill-rule:nonzero;"/><path d="M302.82,553.384c3.3,0 5.278,-1.314 5.278,-4.614c0,-3.3 -1.979,-5.284 -5.278,-5.284c-0.66,0 -1.979,0.657 -3.3,1.984c-0.66,0.657 -1.32,1.973 -1.32,3.3l1.32,3.3c1.322,0.657 2.64,1.314 3.3,1.314Z" style="fill:#333;fill-rule:nonzero;"/><path d="M286.983,565.268l1.979,-3.964c0,-2.636 -1.979,-4.62 -5.278,-4.62c-3.299,0 -4.62,1.984 -4.62,4.62c0,3.3 1.32,4.621 4.62,4.621l3.299,-0.657Z" style="fill:#333;fill-rule:nonzero;"/><path d="M341.755,511.146l1.321,-3.299l-1.321,-3.3l-3.3,-1.973c-3.3,0 -5.278,1.973 -5.278,5.272c0,3.299 1.979,4.627 5.278,4.627l3.3,-1.327Z" style="fill:#333;fill-rule:nonzero;"/><path d="M321.297,560.641l1.321,-3.3c0,-3.3 -1.979,-5.271 -5.278,-5.271c-2.643,0 -4.621,1.972 -4.621,5.271c0,3.299 1.979,4.627 4.621,4.627l3.957,-1.327Z" style="fill:#333;fill-rule:nonzero;"/><path d="M64.592,532.929l1.321,-3.957c0,-2.642 -1.981,-4.627 -5.281,-4.627c-2.639,0 -4.617,1.985 -4.617,4.627c0,3.3 1.979,5.272 4.617,5.272l3.96,-1.315Z" style="fill:#333;fill-rule:nonzero;"/><path d="M42.816,524.345l1.318,-3.957l-1.318,-3.299l-3.96,-1.315c-2.639,0 -4.621,1.315 -4.621,4.614c0,3.3 1.982,5.285 4.621,5.285l3.96,-1.328Z" style="fill:#333;fill-rule:nonzero;"/><path d="M44.134,559.982l0.661,-3.956l-0.661,-3.3c-1.318,-0.657 -2.639,-1.321 -3.957,-1.321c-2.642,0 -4.621,1.321 -4.621,4.621c0,3.299 1.979,5.277 4.621,5.277l3.957,-1.321Z" style="fill:#333;fill-rule:nonzero;"/><path d="M75.812,567.239c3.299,0 5.278,-1.314 5.278,-4.614c0,-3.3 -1.979,-4.621 -5.278,-4.621c-2.639,0 -4.621,1.321 -4.621,4.621c0,3.3 1.981,4.614 4.621,4.614Z" style="fill:#333;fill-rule:nonzero;"/><path d="M80.429,412.16c2.643,0 3.96,-1.973 3.96,-5.271c0,-2.643 -1.318,-3.964 -3.96,-3.964c-3.299,0 -5.278,1.321 -5.278,3.964l1.979,3.957l3.299,1.314Z" style="fill:#333;fill-rule:nonzero;"/><path d="M44.794,134.339l1.321,-3.299c0,-3.3 -1.321,-4.614 -4.621,-4.614c-3.299,0 -5.278,1.314 -5.278,4.614l1.979,3.299c1.321,1.321 1.981,1.321 3.299,1.321l3.3,-1.321Z" style="fill:#333;fill-rule:nonzero;"/><path d="M40.177,167.335c2.639,0 4.618,-1.979 4.618,-5.278c0,-3.299 -1.979,-4.621 -4.618,-4.621c-3.299,0 -5.281,1.321 -5.281,4.621c0,3.3 1.981,5.278 5.281,5.278Z" style="fill:#333;fill-rule:nonzero;"/><path d="M67.23,197.688c3.3,0 4.621,-1.314 4.621,-4.614c0,-3.299 -1.321,-4.621 -4.621,-4.621c-3.299,0 -4.617,1.321 -4.617,4.621l1.318,3.3c0.661,0.657 1.982,1.314 3.299,1.314Z" style="fill:#333;fill-rule:nonzero;"/><path d="M48.094,189.775c3.3,0 4.621,-1.985 4.621,-5.285c0,-2.636 -1.321,-4.614 -4.621,-4.614c-3.299,0 -4.617,1.979 -4.617,4.614l1.318,3.963c1.32,0.664 2.638,1.322 3.299,1.322Z" style="fill:#333;fill-rule:nonzero;"/><path d="M28.957,153.479c2.639,0 4.621,-1.321 4.621,-4.621c0,-3.3 -1.981,-5.278 -4.621,-5.278c-1.321,0 -1.979,0.657 -3.3,1.979l-1.321,3.299l1.321,3.299c1.322,1.322 1.979,1.322 3.3,1.322Z" style="fill:#333;fill-rule:nonzero;"/><path d="M30.278,189.775c2.639,0 4.617,-1.985 4.617,-5.285c0,-3.299 -1.979,-4.614 -4.617,-4.614c-1.982,0 -2.643,0 -3.3,1.315c-1.321,0.664 -1.981,1.985 -1.981,3.299l1.981,3.963l3.3,1.322Z" style="fill:#333;fill-rule:nonzero;"/><path d="M30.278,380.492c2.639,0 4.617,-1.328 4.617,-4.627c0,-3.3 -1.979,-5.272 -4.617,-5.272c-3.3,0 -5.281,1.973 -5.281,5.272l1.981,3.299l3.3,1.328Z" style="fill:#333;fill-rule:nonzero;"/><path d="M45.455,402.925l1.321,-3.3l-1.321,-3.299c-0.66,-1.321 -2.639,-1.979 -3.96,-1.979c-2.639,0 -3.96,1.979 -3.96,5.277c0,3.3 1.321,4.621 3.96,4.621l3.96,-1.32Z" style="fill:#333;fill-rule:nonzero;"/><path d="M28.957,442.52c2.639,0 4.621,-1.979 4.621,-5.277c0,-3.3 -1.981,-4.621 -4.621,-4.621c-3.3,0 -4.621,1.321 -4.621,4.621l1.321,3.299c1.322,1.314 1.979,1.978 3.3,1.978Z" style="fill:#333;fill-rule:nonzero;"/><path d="M32.256,472.216l1.321,-3.963l-1.321,-3.3c-0.66,-1.314 -1.978,-1.973 -3.96,-1.973c-2.639,0 -3.96,1.973 -3.96,5.272c0,3.299 1.321,4.627 3.96,4.627l3.96,-0.663Z" style="fill:#333;fill-rule:nonzero;"/><path d="M57.993,556.026c2.639,0 4.621,-1.321 4.621,-4.621c0,-3.3 -1.982,-5.278 -4.621,-5.278c-1.979,0 -2.639,1.315 -3.3,1.979c-1.318,0.664 -1.979,1.979 -1.979,3.3l1.979,3.963l3.3,0.657Z" style="fill:#333;fill-rule:nonzero;"/><path d="M28.957,545.47c2.639,0 4.621,-1.984 4.621,-4.627c0,-3.3 -1.981,-5.271 -4.621,-5.271c-1.321,0 -1.979,0.657 -3.3,1.972l-1.321,3.3c0,2.641 1.321,4.626 4.621,4.626Z" style="fill:#333;fill-rule:nonzero;"/><path d="M250.027,41.952c3.3,0 4.621,-1.314 4.621,-3.957l-1.321,-3.3c-0.66,-1.321 -2.639,-1.985 -3.3,-1.985c-3.3,0 -4.62,1.985 -4.62,5.285c0,2.642 1.321,3.957 4.62,3.957Z" style="fill:#333;fill-rule:nonzero;"/><path d="M206.473,28.753l0.66,-3.957c0,-2.643 -1.32,-4.621 -4.62,-4.621c-3.3,0 -5.278,1.979 -5.278,4.621l1.979,3.957c1.321,0.658 1.981,1.321 3.3,1.321c1.32,0.001 2.641,-0.663 3.959,-1.321Z" style="fill:#333;fill-rule:nonzero;"/><path d="M40.177,36.674c3.3,0 4.618,-1.321 4.618,-4.621c0,-3.3 -1.318,-4.614 -4.618,-4.614c-2.642,0 -4.621,1.314 -4.621,4.614c0,3.3 1.979,4.621 4.621,4.621Z" style="fill:#333;fill-rule:nonzero;"/><path d="M64.592,30.075c3.299,0 4.621,-1.979 4.621,-4.621l-1.321,-3.3l-3.299,-1.979c-1.318,0 -1.979,1.321 -3.3,1.979l-1.979,3.3c-0.001,2.642 1.978,4.621 5.278,4.621Z" style="fill:#333;fill-rule:nonzero;"/><path d="M30.936,56.471c3.299,0 4.621,-1.979 4.621,-4.621c0,-3.3 -1.321,-5.278 -4.621,-5.278c-3.3,0 -4.618,1.979 -4.618,5.278c0,2.643 1.318,4.621 4.618,4.621Z" style="fill:#333;fill-rule:nonzero;"/><path d="M223.631,41.294l1.321,-3.957l-1.321,-3.299c-0.66,-1.328 -2.639,-1.985 -3.3,-1.985c-3.299,0 -4.62,1.985 -4.62,5.284c0,3.3 1.321,4.614 4.62,4.614l3.3,-0.657Z" style="fill:#333;fill-rule:nonzero;"/><path d="M228.909,64.392c3.3,0 4.62,-1.985 4.62,-5.285c0,-2.636 -1.32,-4.614 -4.62,-4.614c-2.639,0 -4.617,1.979 -4.617,4.614c0,3.3 1.979,5.285 4.617,5.285Z" style="fill:#333;fill-rule:nonzero;"/><path d="M215.054,80.889c2.639,0 4.617,-1.321 4.617,-4.621c0,-3.3 -1.979,-5.278 -4.617,-5.278c-1.321,0 -1.981,0.657 -3.3,1.978l-1.321,3.3l1.321,3.3c1.318,1.321 1.978,1.321 3.3,1.321Z" style="fill:#333;fill-rule:nonzero;"/><path d="M275.764,35.353c2.639,0 3.96,-1.314 3.96,-3.957c0,-3.3 -1.321,-5.285 -3.96,-5.285c-1.979,0 -2.64,0.664 -3.3,1.985c-1.317,0.657 -1.979,1.315 -1.979,3.3c0,2.642 1.979,3.957 5.279,3.957Z" style="fill:#333;fill-rule:nonzero;"/><path d="M238.15,31.396c2.639,0 4.617,-1.321 4.617,-4.621c0,-3.3 -1.979,-4.621 -4.617,-4.621c-3.3,0 -4.621,1.321 -4.621,4.621l1.321,3.299c1.319,1.322 1.979,1.322 3.3,1.322Z" style="fill:#333;fill-rule:nonzero;"/><path d="M310.08,29.411c2.639,0 4.617,-1.315 4.617,-4.614c0,-3.3 -1.979,-4.621 -4.617,-4.621c-3.3,0 -4.62,1.321 -4.62,4.621l1.32,3.299c1.319,1.315 1.979,1.315 3.3,1.315Z" style="fill:#333;fill-rule:nonzero;"/><path d="M344.394,28.096l1.321,-3.299c0,-3.3 -1.321,-4.621 -4.621,-4.621c-3.299,0 -5.277,1.321 -5.277,4.621c0,3.299 1.979,4.614 5.277,4.614l3.3,-1.315Z" style="fill:#333;fill-rule:nonzero;"/><path d="M296.882,40.637c3.3,0 5.278,-1.985 5.278,-4.627c0,-3.3 -1.979,-4.614 -5.278,-4.614c-3.299,0 -4.62,1.314 -4.62,4.614c0,2.642 1.32,4.627 4.62,4.627Z" style="fill:#333;fill-rule:nonzero;"/><path d="M345.715,175.919l1.321,-3.963l-1.321,-3.3c-0.66,-0.664 -2.639,-1.321 -3.3,-1.321c-1.321,0 -2.639,0.658 -3.3,1.321c-1.32,1.321 -1.979,1.979 -1.979,3.3l1.979,3.963c0.661,0.658 1.979,1.315 3.3,1.315l3.3,-1.315Z" style="fill:#333;fill-rule:nonzero;"/><path d="M327.896,189.775l1.321,-3.3l-1.321,-3.299c-1.317,-1.321 -2.639,-1.321 -3.956,-1.321c-2.643,0 -4.621,1.321 -4.621,4.621c0,3.3 1.979,5.278 4.621,5.278c1.317,-0.001 2.638,-0.665 3.956,-1.979Z" style="fill:#333;fill-rule:nonzero;"/><path d="M341.094,204.951c3.3,0 4.621,-1.321 4.621,-4.621c0,-3.299 -1.321,-4.614 -4.621,-4.614c-3.299,0 -5.277,1.315 -5.277,4.614c-0.001,3.3 1.978,4.621 5.277,4.621Z" style="fill:#333;fill-rule:nonzero;"/><path d="M342.415,226.07c3.3,0 5.278,-1.321 5.278,-4.621c0,-3.3 -1.979,-5.278 -5.278,-5.278c-3.299,0 -4.62,1.978 -4.62,5.278c0,3.3 1.32,4.621 4.62,4.621Z" style="fill:#333;fill-rule:nonzero;"/><path d="M314.04,206.93c2.64,0 4.618,-1.979 4.618,-5.278c0,-2.636 -1.979,-4.621 -4.618,-4.621c-3.3,0 -4.62,1.985 -4.62,4.621l1.32,3.963c1.319,0.657 1.979,1.315 3.3,1.315Z" style="fill:#333;fill-rule:nonzero;"/><path d="M110.125,189.775l1.321,-3.3l-1.321,-3.299l-3.3,-1.321c-3.299,0 -4.617,1.321 -4.617,4.621c0,3.3 1.318,5.278 4.617,5.278l3.3,-1.979Z" style="fill:#333;fill-rule:nonzero;"/><path d="M90.328,208.251c3.299,0 4.621,-1.321 4.621,-4.621c0,-3.3 -1.321,-4.614 -4.621,-4.614c-1.318,0 -2.639,0.657 -3.3,1.314l-1.318,3.3c0,3.3 1.318,4.621 4.618,4.621Z" style="fill:#333;fill-rule:nonzero;"/><path d="M30.936,278.863c2.642,0 3.96,-1.321 3.96,-4.621c0,-3.3 -1.318,-4.621 -3.96,-4.621c-3.3,0 -5.278,1.321 -5.278,4.621c0,3.3 1.978,4.621 5.278,4.621Z" style="fill:#333;fill-rule:nonzero;"/><path d="M30.936,338.255c2.642,0 3.96,-1.321 3.96,-4.62c0,-3.3 -1.318,-5.278 -3.96,-5.278c-3.3,0 -5.278,1.979 -5.278,5.278c-0.001,3.299 1.978,4.62 5.278,4.62Z" style="fill:#333;fill-rule:nonzero;"/><path d="M28.296,414.145c3.3,0 4.621,-1.32 4.621,-4.62c0,-3.3 -1.321,-4.621 -4.621,-4.621c-3.299,0 -4.617,1.321 -4.617,4.621c0,3.3 1.318,4.62 4.617,4.62Z" style="fill:#333;fill-rule:nonzero;"/><path d="M42.816,452.418c3.299,0 4.617,-1.978 4.617,-5.277l-1.318,-3.3c-1.321,-0.657 -1.981,-1.321 -3.299,-1.321c-3.3,0 -4.621,1.321 -4.621,4.621c0,3.3 1.321,5.277 4.621,5.277Z" style="fill:#333;fill-rule:nonzero;"/><path d="M83.729,179.876c3.299,0 4.621,-1.321 4.621,-4.621l-1.321,-3.299l-3.299,-1.979c-3.3,0 -4.618,1.979 -4.618,5.278c0,3.299 1.317,4.621 4.617,4.621Z" style="fill:#333;fill-rule:nonzero;"/><path d="M203.834,61.749l-26.397,3.3c-18.476,4.621 -32.335,13.198 -40.916,25.739c14.519,1.979 31.017,-2.643 46.854,-13.198l20.459,-15.841Z" style="fill:#d96038;fill-rule:nonzero;"/><path d="M203.834,59.771l-27.057,3.3c-19.137,4.621 -32.996,13.198 -42.234,26.396c-0.661,0.664 -0.661,1.321 -0.661,1.979l2.639,1.321c15.18,1.978 31.017,-1.979 47.515,-11.877l21.119,-17.155l0.657,-2.642l-1.978,-1.322Zm-6.6,4.621c-19.137,16.498 -36.956,25.075 -56.092,24.412c7.26,-7.914 17.158,-14.513 29.696,-19.134c8.578,-2.636 17.158,-4.621 26.396,-5.278Z" style="fill-rule:nonzero;"/><path d="M36.217,74.29c5.938,6.599 13.859,12.541 23.097,17.813c19.797,10.563 38.274,12.541 55.432,7.263c-13.198,-11.877 -30.356,-19.797 -50.814,-23.097l-27.715,-1.979Z" style="fill:#ffe000;fill-rule:nonzero;"/><path d="M35.556,72.305l-1.979,1.985l0.657,1.979c7.26,6.599 15.18,13.198 25.079,17.819c19.797,10.556 38.274,13.198 56.093,7.256l1.979,-1.314l-0.661,-2.642c-13.855,-12.542 -31.014,-20.456 -52.132,-23.755l-29.036,-1.328Zm35.635,7.263c14.519,3.299 27.717,9.898 38.277,18.476c-13.198,2.642 -27.057,1.321 -41.577,-5.278c-9.898,-3.3 -18.476,-8.578 -26.396,-15.834l29.696,2.636Z" style="fill-rule:nonzero;"/><path d="M80.429,39.974c-0.657,6.599 0.661,13.862 2.643,21.775c4.617,16.498 15.837,29.039 31.674,37.616c-0.661,-17.819 -5.938,-32.995 -17.158,-46.193l-17.159,-13.198Z" style="fill:#d96038;fill-rule:nonzero;"/><path d="M79.111,37.995l-1.321,1.315c0,7.263 0.66,15.183 3.299,23.761c5.281,16.498 16.498,29.696 32.996,38.273l1.982,0l1.318,-1.979c-0.661,-18.476 -6.599,-34.316 -18.477,-47.515l-17.819,-13.855l-1.978,0Zm8.577,29.039c-3.299,-7.263 -5.278,-15.183 -5.278,-23.097c6.599,3.957 11.877,9.235 16.498,15.834c7.917,9.899 11.877,21.776 13.198,34.974c-11.219,-6.599 -19.797,-16.498 -24.418,-27.711Z" style="fill-rule:nonzero;"/><path d="M93.627,119.827l15.18,-11.884l-23.097,-0.657c-12.538,7.256 -18.479,17.155 -17.819,29.696c0,5.278 1.321,10.556 3.3,15.176c3.299,-11.22 11.22,-21.775 22.436,-32.331Z" style="fill:#d96038;fill-rule:nonzero;"/><path d="M111.446,107.286l-1.978,-1.321l-23.758,-1.321l-1.321,0.657c-13.198,7.927 -19.797,18.483 -19.137,31.023c0,5.936 1.321,12.535 3.96,17.155l1.979,1.315l2.639,-1.315c2.643,-11.22 9.899,-21.118 20.458,-31.681l16.498,-11.871l0.66,-2.641Zm-40.255,38.937l-1.979,-10.563c0,-9.899 5.938,-19.134 16.498,-26.396l16.498,0.664c-15.18,10.556 -25.079,23.097 -31.017,36.295Z" style="fill-rule:nonzero;"/><path d="M61.292,57.792c2.639,7.256 6.599,14.513 13.198,21.776c11.88,13.862 27.057,21.118 45.533,21.775c-8.578,-15.84 -21.115,-28.375 -36.952,-36.295c-8.581,-3.956 -15.18,-6.598 -21.779,-7.256Z" style="fill:#d96038;fill-rule:nonzero;"/><path d="M59.313,56.471c-0.661,1.321 -0.661,1.321 0,2.636c1.979,7.263 6.599,14.526 13.198,21.782c13.198,15.177 28.375,22.439 47.512,23.097l1.982,-1.321l0,-1.979c-8.581,-16.498 -21.119,-29.039 -37.616,-37.616c-7.917,-3.3 -15.837,-5.936 -23.097,-6.599c-0.661,-0.663 -1.979,-0.663 -1.979,0Zm56.093,41.573c-13.198,-0.657 -25.079,-6.599 -34.978,-15.84c-6.599,-5.936 -11.877,-12.535 -15.837,-21.112c7.92,1.979 15.837,5.278 23.097,9.899c11.22,6.599 20.458,15.84 27.718,27.053Z" style="fill-rule:nonzero;"/><path d="M116.067,34.695c-3.96,5.278 -7.26,13.198 -9.242,21.112c-3.299,17.161 0.661,32.338 13.198,45.536c5.281,-17.155 7.26,-33.653 3.3,-48.836c-1.318,-7.913 -4.617,-13.855 -7.256,-17.812Z" style="fill:#ffe000;fill-rule:nonzero;"/><path d="M114.085,33.374c-3.96,5.936 -7.26,13.198 -9.238,22.434c-0.66,3.963 0.661,7.263 2.639,10.563c0.661,-8.578 3.3,-17.819 8.581,-27.061c4.617,9.899 7.256,20.461 7.256,31.681c0,6.599 -1.318,15.176 -4.618,25.075c-6.599,-8.578 -9.898,-17.819 -9.898,-27.06c-3.3,12.541 0,23.761 9.238,33.659l2.639,1.321l1.321,-1.321c5.938,-17.819 7.26,-34.974 3.299,-50.157c-1.321,-7.914 -3.96,-14.513 -7.26,-19.134l-1.978,-1.321l-1.981,1.321Z" style="fill-rule:nonzero;"/><path d="M151.701,28.096c-7.26,4.614 -13.198,11.877 -19.797,20.455c-11.88,17.819 -16.498,35.638 -13.198,53.451c14.516,-11.213 23.758,-27.711 29.036,-47.509c3.299,-9.899 3.959,-19.14 3.959,-26.397Z" style="fill:#d96038;fill-rule:nonzero;"/><path d="M150.38,56.471c2.639,-10.563 3.96,-19.797 3.96,-28.375l-1.321,-1.985l-2.639,0c-6.599,5.285 -13.859,12.541 -19.797,21.782c-13.198,17.813 -17.159,36.295 -13.859,54.771l1.321,1.321l2.639,0c13.859,-11.882 23.757,-27.716 29.696,-47.514Zm-1.317,-23.097c-0.661,9.235 -1.982,18.477 -5.281,27.718c-5.278,14.513 -13.198,26.396 -23.097,35.638l-0.661,-5.941c-0.001,-20.456 9.898,-39.596 29.039,-57.415Z" style="fill-rule:nonzero;"/><path d="M29.618,102.665l30.356,6.599c23.097,2.636 42.234,-1.321 57.411,-11.877c-16.498,-7.92 -36.295,-9.899 -58.732,-4.621c-11.22,1.979 -20.458,5.278 -29.035,9.899Z" style="fill:#ffe000;fill-rule:nonzero;"/><path d="M59.313,89.467c-11.22,2.636 -21.779,6.599 -31.017,10.563l-0.661,2.636l0.661,1.321c9.899,3.957 21.119,6.599 32.335,7.914c23.097,1.985 42.237,-1.972 58.074,-12.535l0.661,-1.978l-0.661,-1.985c-17.158,-7.915 -36.294,-10.557 -59.392,-5.936Zm-23.096,12.534c9.898,-4.614 20.458,-7.257 31.674,-7.914c16.498,-2.642 31.017,-1.321 43.555,3.957c-20.458,11.22 -45.533,12.541 -75.229,3.957Z" style="fill-rule:nonzero;"/><path d="M187.336,42.609c-9.899,2.642 -20.458,7.926 -31.674,15.183c-21.779,13.198 -35.638,28.375 -40.255,46.194c17.815,-4.621 34.974,-15.841 52.132,-34.317l19.797,-27.06Z" style="fill:#ffe000;fill-rule:nonzero;"/><path d="M168.199,71.648c11.216,-11.877 18.477,-21.112 21.115,-28.375c1.321,-0.664 1.321,-1.321 0,-1.979l-2.639,-1.321c-10.56,3.963 -22.437,8.577 -32.996,15.834c-21.776,13.862 -35.635,29.039 -40.913,46.857c-0.661,1.321 -0.661,1.979 0.657,1.979l1.982,1.321c18.477,-4.62 35.636,-15.176 52.794,-34.316Zm-18.479,-7.256c9.898,-6.599 20.458,-13.198 31.678,-17.155c-18.479,27.711 -39.595,45.53 -62.031,52.129c5.277,-12.535 15.837,-24.419 30.353,-34.974Z" style="fill-rule:nonzero;"/><path d="M147.081,134.339c-1.979,-3.957 -2.639,-11.213 -3.299,-23.097l-0.661,-15.177c-5.938,-0.664 -11.217,0.664 -14.516,3.299l-4.621,4.621l-13.198,-1.321l-9.238,1.979c2.639,5.942 5.278,9.898 9.238,13.855l18.479,17.162c7.917,7.92 15.837,30.36 25.736,67.313l12.538,54.107c3.299,-5.271 3.96,-13.855 4.621,-24.412l-0.661,-15.183c-11.22,-42.893 -19.798,-70.605 -24.418,-83.146Z" style="fill:#858585;fill-rule:nonzero;"/><path d="M145.102,96.066l-1.981,-3.299c-9.238,0 -15.837,2.636 -19.797,7.92l-22.437,1.979c-0.661,0 -1.318,0 -1.979,1.321l0,1.979l7.26,11.22l21.115,20.455c7.26,7.256 15.837,29.039 25.736,65.991l11.88,54.114c0,1.321 1.318,1.979 2.639,1.979c0.661,0 1.979,-0.657 2.639,-1.314c3.299,-5.942 3.96,-13.862 4.621,-25.082l-0.661,-15.84c-10.559,-41.567 -19.137,-69.948 -25.075,-83.804c-1.981,-6.602 -3.96,-19.143 -3.96,-37.619Zm-4.621,2.636c0,17.162 0.661,29.039 3.96,36.295c4.621,12.541 13.198,40.258 24.418,83.152l-0.661,27.718c-4.621,-21.782 -9.899,-42.237 -14.52,-60.713c-8.578,-27.718 -15.837,-44.873 -23.097,-51.472l-9.238,-9.241c-7.26,-6.599 -12.538,-12.541 -15.837,-17.813l17.159,-0.664l2.639,0.664l1.318,-1.328l3.3,-3.299c2.642,-1.972 5.942,-2.636 10.559,-3.299Z" style="fill-rule:nonzero;"/><path d="M226.271,482.114c-15.838,-5.277 -34.975,-8.577 -55.433,-9.898c-42.233,-4.621 -75.89,0 -100.308,14.52l1.321,11.877c1.979,7.92 3.96,12.534 7.26,14.52l16.498,0.657c5.278,5.284 7.917,9.241 7.26,12.541l-5.942,9.241c-3.3,4.614 -5.938,7.914 -5.938,9.898c0,3.3 3.299,8.571 9.898,13.198l36.295,-1.327l19.797,3.3c4.621,0.663 7.92,0 9.898,-1.973c4.621,-9.241 9.899,-13.861 14.52,-14.525c3.299,0 6.599,1.327 9.898,3.3l9.898,4.627c5.278,1.972 11.878,1.972 19.137,-1.328c3.961,-1.972 6.6,-7.256 8.578,-16.497c3.301,-12.536 1.983,-29.697 -2.637,-52.131Z" style="fill:#858585;fill-rule:nonzero;"/><path d="M226.931,479.479c-17.158,-4.627 -36.956,-8.584 -58.071,-10.563c-41.577,-3.299 -74.572,1.321 -99.647,15.834l-1.321,1.985l1.321,14.513c1.979,7.927 4.617,12.541 8.578,14.525l15.837,0c3.96,4.614 6.599,8.571 6.599,9.899l-3.957,5.271c-5.281,7.263 -7.26,11.884 -7.26,14.525c0,5.271 3.299,9.898 9.898,15.171l7.26,1.327l30.354,-1.985l25.079,3.3c3.299,0 5.938,-1.314 6.599,-3.3l1.318,-1.314c4.621,-7.263 7.92,-11.226 11.88,-11.226c3.299,-0.658 7.26,1.327 12.537,3.963l5.939,3.3c5.938,2.636 13.198,1.321 22.436,-1.979c4.621,-1.985 7.921,-8.584 9.899,-18.482c1.981,-13.856 1.32,-31.011 -3.3,-52.13l-1.978,-2.634Zm-62.692,-5.285c21.776,1.321 41.574,4.62 59.392,10.556c3.3,11.884 3.96,23.098 3.96,32.996c0,9.898 -0.66,17.825 -3.96,24.424l-3.96,5.936c-7.26,3.3 -12.538,3.964 -17.158,1.321l-5.938,-2.643c-5.938,-3.956 -10.56,-5.277 -15.177,-4.614c-5.281,0 -10.56,5.272 -16.498,13.198l-0.661,1.973l-27.057,-2.636l-34.974,1.321c-5.281,-3.957 -7.92,-7.257 -7.92,-10.557c0,-1.984 1.982,-5.284 6.599,-11.226l4.621,-7.257c0.661,-3.957 -1.981,-9.241 -8.581,-15.177l-7.917,-0.664c-4.621,0.664 -7.26,0.664 -8.581,0c-4.617,-1.972 -6.599,-9.898 -6.599,-22.433c22.44,-12.533 52.793,-17.16 90.409,-14.518Z" style="fill-rule:nonzero;"/><path d="M197.234,486.735c-11.22,14.513 -29.696,27.711 -54.114,40.909l-34.313,14.525c-1.321,0.658 -1.321,1.973 -1.321,2.637c0.661,1.32 1.321,1.32 3.3,1.32c11.22,-3.957 23.097,-9.241 35.634,-15.84c24.418,-12.541 42.895,-26.396 54.114,-40.91l0,-2.642c-1.321,-1.32 -2.638,-1.32 -3.3,0.001Z" style="fill-rule:nonzero;"/><path d="M156.319,520.388l-37.613,3.957c-1.321,0 -1.981,1.328 -1.321,1.985c0,1.314 0,1.979 1.981,1.314l36.953,-3.3l1.321,-1.972l-1.321,-1.984Z" style="fill-rule:nonzero;"/><path d="M156.319,547.442l17.819,-34.968l-0.661,-2.643c-0.661,-0.657 -1.979,0 -2.639,1.314l-5.938,11.884c-3.96,9.241 -8.581,16.498 -11.88,21.776c-1.318,0.663 -1.318,1.32 0,2.636l3.299,0l0,0.001Z" style="fill-rule:nonzero;"/><path d="M198.556,500.591c-5.941,18.482 -11.22,30.354 -13.859,33.653c-0.661,0.663 -0.661,1.327 0.661,1.984c1.318,1.314 1.979,1.314 2.639,0c3.3,-3.957 8.578,-15.183 14.517,-34.316c0.66,-0.664 0,-1.979 -1.318,-2.636c-1.322,-0.664 -1.983,0 -2.64,1.315Z" style="fill-rule:nonzero;"/><path d="M307.441,228.048c-4.621,3.299 -7.921,6.599 -8.581,10.563c-3.3,11.213 -5.278,19.133 -5.278,24.412c0.661,5.942 -2.639,11.22 -9.898,16.498c-2.639,2.643 -7.92,1.321 -17.158,-1.978c-20.458,16.497 -32.335,35.631 -33.656,56.093c-1.979,19.133 3.3,31.017 16.498,36.295c9.238,3.299 20.458,3.963 32.335,2.636l15.18,-3.957c13.858,-1.979 34.313,-9.898 62.031,-25.075l3.3,-42.895c-11.22,3.3 -19.137,3.3 -22.437,0c-1.321,-2.636 -1.981,-6.6 -1.321,-14.52l2.639,-13.855c0.661,-1.321 0,-4.621 -2.639,-9.898l-13.198,-27.718c-3.96,-6.599 -6.599,-9.898 -8.577,-9.898c-1.984,-0.002 -5.283,1.319 -9.24,3.297Z" style="fill:#858585;fill-rule:nonzero;"/><path d="M306.12,226.07c-5.278,3.3 -8.577,7.256 -9.898,11.877c-3.3,13.198 -4.621,21.118 -4.621,25.075c0,4.621 -2.639,9.241 -9.238,14.52c-1.979,1.321 -6.599,0.664 -13.858,-3.3l-3.3,0.664c-13.855,11.213 -23.754,24.412 -29.696,38.931c-5.277,11.22 -6.599,23.097 -5.277,32.995c2.639,13.199 8.577,21.776 17.818,25.733l50.151,-1.973c13.198,-1.327 33.656,-9.898 61.373,-24.424l1.318,-2.636l4.62,-42.23l-1.32,-2.643l-1.979,0l-19.798,0c-2.639,-2.643 -2.639,-11.22 1.321,-25.739c0.657,-2.642 -0.66,-7.256 -4.621,-13.855l-11.877,-25.739c-4.62,-7.256 -7.92,-10.556 -10.559,-11.213c-2.639,-0.664 -6.599,0.658 -10.559,3.957Zm3.3,3.957c3.299,-1.979 5.938,-3.3 6.599,-2.642l7.26,8.584l15.837,36.295c-4.62,15.177 -4.62,25.075 -0.66,29.696c3.3,4.614 10.56,5.278 21.118,2.642l-3.96,37.61c-29.035,14.52 -48.833,22.439 -58.731,23.754l-15.837,3.964c-11.881,1.321 -21.779,0.663 -31.018,-2.636c-7.26,-3.3 -12.537,-9.899 -13.858,-20.462l-0.661,-7.263c0,-9.234 1.982,-19.134 7.26,-28.368c5.281,-11.227 13.859,-21.125 24.418,-31.023c9.238,3.963 15.177,3.963 19.137,1.327c6.6,-5.941 10.56,-12.541 9.899,-18.482c0,-5.278 1.979,-13.198 5.277,-23.754c1.32,-3.3 3.299,-6.6 7.92,-9.242Z" style="fill-rule:nonzero;"/><path d="M313.38,243.882c-1.321,0 -1.981,0.664 -1.321,1.985c1.321,21.776 0.66,38.273 -3.3,48.836l-11.877,19.134c-7.92,11.877 -13.858,22.434 -18.479,30.359c-7.917,13.856 -12.537,28.369 -15.837,42.895c-0.661,1.314 0,2.636 0.66,2.636c1.979,0 2.64,0 2.64,-1.979c3.299,-13.855 8.58,-27.717 15.837,-41.579l30.356,-50.151c3.3,-7.256 3.96,-17.155 3.96,-30.353l-0.66,-19.797l-1.979,-1.986Z" style="fill-rule:nonzero;"/><path d="M362.213,319.772c0.66,-0.657 1.32,-1.973 0.66,-2.636c-0.66,-1.321 -1.981,-1.979 -2.639,-1.321c-37.616,17.155 -65.334,27.054 -82.489,31.017c-1.321,0 -1.321,0.664 -1.321,2.637l1.979,0.663c17.819,-3.3 44.875,-13.861 83.81,-30.36Z" style="fill-rule:nonzero;"/><path d="M330.538,316.473l-0.66,-2.636c-0.661,-0.664 -1.321,-0.664 -1.982,0c-9.237,9.898 -15.177,17.161 -18.476,23.097l0,3.3l3.299,-0.664c1.979,-3.957 5.939,-8.571 10.56,-15.17l7.259,-7.927Z" style="fill-rule:nonzero;"/><path d="M329.878,268.964c-10.56,13.198 -19.798,24.412 -25.079,32.996c-1.317,1.314 -0.657,1.979 0.661,2.642l2.639,-0.663l25.078,-32.996l-0.66,-1.978l-2.639,0l0,-0.001Z" style="fill-rule:nonzero;"/><path d="M281.702,297.339l-1.979,-1.979c-1.321,0 -2.639,1.315 -2.639,1.979l1.317,15.834c1.321,9.899 3.96,17.162 7.26,20.462c0.66,0.663 1.981,0.663 3.3,0c0.66,-0.664 0.66,-1.979 0,-2.637c-5.277,-4.627 -7.259,-15.84 -7.259,-33.659Z" style="fill-rule:nonzero;"/><path d="M257.947,310.537l-1.981,0l11.881,58.071l1.979,1.321c1.979,0 2.639,-0.664 1.979,-2.636l-11.878,-58.078l-1.98,1.322Z" style="fill-rule:nonzero;"/><path d="M341.755,72.969c2.639,-5.935 3.3,-13.198 0.66,-21.118c-3.3,-8.578 -5.938,-11.213 -9.898,-9.241c-1.979,0.664 -5.938,3.299 -11.22,6.599l-11.877,6.599c-2.64,0.664 -5.278,0.664 -7.921,0l-9.237,-3.957c-2.64,-0.657 -5.939,1.321 -7.918,5.284l-3.96,7.914c-1.981,3.957 -7.26,5.942 -13.858,5.942l-6.6,-4.621l-5.938,-7.92c-1.32,-1.979 -3.96,-1.315 -5.281,1.321l-6.599,7.92c-2.639,3.3 -4.617,7.914 -3.957,13.855c0,3.3 0.657,5.942 1.318,8.584c0,22.433 4.62,40.91 13.858,55.429c7.92,11.877 15.177,17.819 22.437,18.476l13.858,4.621c6.6,3.3 10.56,3.963 13.859,3.3c6.599,0 15.837,-5.278 28.375,-15.177c2.639,-2.643 3.299,-5.942 1.32,-9.899l-3.96,-9.241l-9.898,-0.657c-5.278,0 -7.26,-1.321 -5.938,-4.621c1.979,-2.636 5.278,-5.278 11.217,-8.578l11.22,-5.285c3.299,-1.972 5.277,-5.271 5.938,-9.898c0.66,-4.614 0,-7.257 -2.64,-7.257c-7.259,0 -10.559,-2.642 -10.559,-8.577c0,-1.979 0.66,-4.621 3.96,-7.92l9.239,-11.877Z" style="fill:#858585;fill-rule:nonzero;"/><path d="M344.394,74.29c1.321,-3.299 1.981,-7.256 1.981,-11.883c0,-9.235 -1.981,-15.834 -6.599,-20.455c-2.64,-2.642 -5.281,-3.299 -7.92,-1.978l-23.098,13.198l-9.238,-1.321l-6.599,-2.642c-5.938,-0.658 -9.898,3.299 -13.198,11.883l-1.321,3.3l-4.617,1.979l-7.26,1.321l-10.56,-11.22l-5.277,-1.979c-1.321,0.657 -3.961,2.642 -6.6,6.599l-3.96,5.278c-3.3,3.299 -4.621,7.92 -4.621,14.519l1.321,9.899c0,22.439 4.621,41.573 15.177,56.75c7.92,12.541 15.18,19.14 23.097,19.14l13.198,3.957c7.26,3.299 12.541,4.621 15.181,4.621c7.917,-1.321 17.815,-6.599 29.695,-16.498c3.3,-2.636 3.96,-6.6 2.64,-11.877c-0.661,-3.299 -2.64,-7.256 -4.621,-10.556c-1.317,-1.985 -4.617,-2.642 -9.898,-2.642l-5.278,0c1.979,-2.642 6.6,-5.942 13.859,-9.241l7.917,-3.957l4.62,-5.942l2.64,-8.577l-0.661,-2.636c-0.657,-2.642 -2.639,-3.963 -5.278,-3.963c-5.938,0 -7.92,-1.978 -7.92,-6.599c0,-1.979 1.321,-3.963 3.96,-6.6l9.238,-11.878Zm-3.3,-16.498c0.661,5.278 0,9.898 -1.979,13.198l-7.92,11.213c-3.3,3.963 -5.278,7.263 -5.278,10.563c0,7.92 3.961,11.22 13.198,11.22c0.661,0 0.661,0.657 0,1.979l-0.66,6.599l-3.3,3.3l-7.26,3.3c-9.237,4.621 -15.177,8.577 -16.497,11.877c-1.318,2.642 -1.979,4.621 -0.658,5.942c1.318,1.314 4.618,1.978 10.557,1.978l5.941,0.664l3.957,7.914c0.661,3.3 0.661,5.942 -1.317,6.599c-11.881,9.899 -21.119,15.183 -27.058,15.841c-1.979,0 -6.599,-1.321 -13.198,-3.3c-5.938,-3.299 -10.559,-4.621 -13.858,-4.621c-5.938,-1.321 -12.538,-6.599 -19.137,-17.162c-9.899,-14.513 -14.52,-32.332 -14.52,-54.765l0,-0.664c-1.318,-1.979 -1.318,-4.621 -1.318,-8.578c0,-4.621 1.318,-8.584 2.64,-11.22l8.577,-9.899l0.661,0.664l3.299,4.614c3.3,5.942 7.26,7.92 10.56,7.92l9.898,-1.321c3.3,-1.315 5.278,-3.3 6.6,-4.614l1.32,-3.963c2.64,-5.936 5.278,-8.578 7.257,-8.578l5.281,1.979l13.858,1.321l23.098,-13.198l1.979,1.314c2.638,1.986 3.959,5.943 5.277,11.884Z" style="fill-rule:nonzero;"/><path d="M328.557,57.792l-27.058,27.711c-19.797,21.782 -34.313,40.922 -42.894,58.078c-1.318,0.657 -1.318,1.979 0.66,3.299c0.66,0 1.981,0 2.639,-1.321c8.581,-17.162 23.098,-36.295 42.237,-57.414c9.238,-10.556 18.477,-19.797 27.054,-27.054c0.661,-1.321 0.661,-1.985 0,-3.299c-1.317,-1.321 -1.978,-1.321 -2.638,0Z" style="fill-rule:nonzero;"/><path d="M294.243,64.392c-1.981,10.556 -3.3,21.775 -2.643,32.996l1.981,1.978l1.979,-1.978c-0.66,-11.22 0.661,-21.119 2.64,-32.338l-1.979,-1.979c-0.66,-0.001 -1.321,-0.001 -1.978,1.321Z" style="fill-rule:nonzero;"/><path d="M256.627,77.59c-1.321,0 -2.64,0.657 -2.64,1.979l1.979,20.461c1.321,15.834 3.3,28.369 5.938,38.931l1.982,1.321c1.317,0 1.979,-1.321 1.317,-2.642c-1.979,-10.556 -4.617,-23.097 -5.278,-38.274l-1.32,-19.797l-1.978,-1.979Z" style="fill-rule:nonzero;"/><path d="M275.103,82.868c0,-1.321 0,-1.979 -1.979,-1.979c-0.66,-0.657 -1.32,0 -1.978,1.315c-4.621,17.825 -9.242,29.696 -12.541,35.638c-1.318,1.321 -0.658,1.985 0.66,2.642l2.639,-0.657c3.3,-5.942 7.921,-18.483 13.199,-36.959Z" style="fill-rule:nonzero;"/><path d="M319.979,108.601c-20.458,9.241 -36.295,14.525 -48.175,15.183c-1.318,0 -1.979,0 -1.979,1.978c0,1.321 0.66,1.321 1.979,1.321c12.54,0 29.695,-5.284 50.153,-14.52c0.661,-1.321 1.321,-1.978 0.661,-3.299c0,-0.663 -0.661,-1.321 -2.639,-0.663Z" style="fill-rule:nonzero;"/><path d="M316.019,88.146l-28.375,13.198c-1.321,0.658 -1.321,1.321 -1.321,2.643c0.661,1.979 1.979,1.979 2.64,1.314l29.696,-13.855l0.66,-1.979c-0.661,-1.321 -1.322,-1.979 -3.3,-1.321Z" style="fill-rule:nonzero;"/><path d="M316.019,146.88l-46.193,-2.642c-1.321,0 -2.64,0 -2.64,1.321c0,1.978 0.661,2.636 1.979,3.299l47.516,1.979c1.979,0 1.979,-0.657 1.979,-1.979c0,-1.322 -0.663,-1.978 -2.641,-1.978Z" style="fill-rule:nonzero;"/><path d="M92.309,237.947c-3.299,-1.321 -5.281,-1.979 -6.599,-3.3l-6.599,-10.563c-3.299,-5.936 -6.599,-7.914 -9.898,-8.571l-14.52,-5.284l-12.538,-1.315c-1.979,1.315 -2.639,4.614 -1.979,11.213c1.318,7.92 1.318,12.541 0,15.183c-1.321,4.614 -0.661,10.556 2.639,17.813c3.299,7.92 6.599,12.541 9.898,14.52l9.238,5.278c2.639,1.321 3.96,3.957 3.96,6.599c0,3.957 -1.321,7.257 -2.639,9.242c-1.982,2.643 -3.96,3.957 -6.599,2.643l-5.942,-0.664c-1.318,0 -3.3,1.321 -4.618,3.299c-3.96,5.278 -6.599,9.235 -6.599,12.535c0,1.984 1.979,3.963 5.938,6.599l11.22,3.3l21.115,-3.957c1.321,0.657 1.981,1.985 2.639,4.621c0,3.299 -0.657,5.936 -2.639,7.263l-11.877,10.556c-5.281,5.942 -7.92,9.241 -7.92,11.214c0,1.984 3.299,4.627 9.898,7.263c7.92,3.3 14.52,3.963 21.119,3.3l25.075,-7.263c11.88,-3.957 21.119,-5.272 29.036,-3.3l12.541,-31.668c7.917,-23.761 10.556,-42.237 7.256,-55.436c-9.899,0.657 -18.477,3.3 -24.415,5.278c-3.96,1.321 -6.599,0 -6.599,-4.621l0,-18.476c0,-6.599 -2.639,-13.198 -7.92,-19.797c-5.939,-5.278 -9.899,-7.263 -13.859,-5.278c-2.639,1.314 -3.957,5.278 -5.938,11.213c-0.661,5.941 -1.979,9.241 -3.96,9.898l-7.915,0.663Z" style="fill:#858585;fill-rule:nonzero;"/><path d="M98.908,234.647l-5.938,0l-5.281,-1.979l-3.299,-4.621c-5.278,-9.899 -10.56,-15.177 -15.177,-15.177l-8.581,-3.299c-10.556,-3.3 -17.155,-4.621 -19.797,-2.643c-3.299,2.643 -4.617,7.257 -2.639,15.183l0,12.535c-1.979,4.621 -0.661,11.22 2.639,19.797c3.3,7.92 6.599,13.198 10.56,15.834l10.559,5.942l0.661,3.299c0,4.621 -0.661,7.92 -2.639,9.242l-2.642,0l-7.256,-0.658l-5.942,4.615c-4.618,4.62 -6.599,9.241 -7.256,12.541c-0.661,1.979 0.657,4.614 2.639,6.599l7.917,5.278l9.899,1.321l19.797,-3.3l0.661,2.642l-1.979,4.614l-9.899,9.242c-7.26,7.256 -11.22,11.877 -11.22,14.513l3.3,4.627c2.639,2.636 7.259,5.271 13.198,6.599l18.479,2.637l17.815,-5.936c15.837,-5.285 27.057,-7.264 34.317,-5.285l3.299,-1.979c4.618,-6.599 8.578,-17.818 13.198,-32.995c7.917,-23.097 9.899,-41.573 7.26,-55.429c-0.661,-1.985 -1.321,-2.642 -2.642,-1.985l-25.736,5.942l-1.979,0c-1.321,0 -1.321,-4.621 -0.661,-11.22l0,-9.899c0,-5.278 -1.321,-9.899 -4.621,-15.177c-3.3,-4.621 -6.599,-8.584 -10.556,-11.22c-3.96,-1.979 -7.26,-1.979 -10.559,-0.664c-2.639,1.985 -4.621,5.941 -6.599,13.862l-3.3,6.602Zm-29.696,-16.498c1.979,0 5.938,4.621 11.216,13.198l3.3,4.621l7.92,3.957l9.238,-0.657c2.639,-0.657 4.621,-3.957 5.938,-9.898c1.982,-6.599 3.3,-9.899 4.621,-11.22l5.278,1.321c3.299,1.979 6.599,5.278 8.581,9.241c2.639,3.957 3.96,8.571 3.96,12.535l0,9.235c-0.661,9.241 0.657,14.526 2.639,15.84l7.917,0.658c4.621,-1.972 11.88,-3.957 21.119,-4.614l0.661,8.577c0,19.134 -6.599,42.895 -20.458,72.591c-7.92,-1.979 -20.458,0 -35.635,5.936l-16.498,4.627l-19.137,-2.643l-9.242,-5.284c0,-1.314 1.982,-4.614 7.26,-9.235l11.22,-10.563c3.3,-2.636 4.618,-5.936 3.3,-9.898c0,-3.3 -1.321,-5.936 -3.96,-6.599l-22.436,3.963l-5.938,-1.321l-6.599,-3.957l-1.321,-1.984c0.661,-2.636 2.639,-5.936 5.938,-10.557l3.3,-2.642l4.621,0.663l6.599,-0.663c3.96,-2.636 5.278,-7.257 5.278,-13.856c0,-2.642 -0.661,-5.278 -1.979,-7.256c-1.321,-0.657 -3.299,-1.985 -6.599,-3.299l-4.621,-3.3c-3.299,-1.321 -6.599,-6.599 -9.238,-13.198c-2.639,-6.599 -3.96,-12.541 -2.639,-16.498l0,-14.52c-0.661,-6.599 0,-9.898 0.661,-9.898c1.318,-1.321 6.599,0 14.516,3.299l11.219,3.298Z" style="fill-rule:nonzero;"/><path d="M57.332,227.385c-1.318,0.664 -1.979,1.985 -1.318,2.642l26.396,34.317c22.436,26.396 44.873,48.172 68.63,65.327l2.639,-0.657c0.661,-1.314 0.661,-1.979 0,-2.643c-23.097,-17.155 -46.194,-38.268 -67.97,-64.006l-26.396,-34.317c-0.66,-1.321 -1.32,-1.978 -1.981,-0.663Z" style="fill-rule:nonzero;"/><path d="M114.746,240.583l2.639,59.392c-0.661,1.328 0,1.985 1.321,1.985l1.979,-1.321c1.321,-10.563 1.321,-24.418 0,-39.595l-1.979,-21.119c0,-1.978 -0.661,-1.978 -1.981,-1.978c-1.319,0 -1.979,1.321 -1.979,2.636Z" style="fill-rule:nonzero;"/><path d="M120.684,277.542l-15.177,-23.761c-0.661,-1.315 -1.321,-1.315 -3.299,-1.315c-0.661,0.657 -1.321,1.979 -0.661,3.3l4.621,8.578l11.877,15.834l2.639,0.664c1.321,-1.322 1.321,-1.979 0,-3.3Z" style="fill-rule:nonzero;"/><path d="M85.71,262.365l-29.696,-14.52l-3.3,0c-0.661,1.321 0,1.979 1.318,3.3l8.581,4.621l21.776,10.556l2.639,-1.314c0.66,-0.664 0,-1.986 -1.318,-2.643Z" style="fill-rule:nonzero;"/><path d="M75.812,300.639l34.974,-7.263c1.321,-0.657 1.321,-1.972 1.321,-2.636c-0.661,-1.321 -1.321,-1.979 -3.299,-1.321l-32.996,7.92c-1.982,0 -1.982,0.664 -1.982,1.979l1.982,1.321Z" style="fill-rule:nonzero;"/><path d="M144.441,323.735c1.321,-0.663 1.979,-1.979 1.321,-3.3c-0.661,-0.663 -1.321,-0.663 -2.642,-0.663l-65.33,21.783c-0.661,0 -1.318,1.314 -0.661,1.979l1.981,1.321l65.331,-21.12Z" style="fill-rule:nonzero;"/><path d="M95.609,320.436c-1.321,0 -1.982,0.664 -1.982,2.637l1.982,1.327l9.898,0c6.599,0.657 11.877,2.636 15.177,6.599c0.661,0.658 1.321,0.658 2.639,0c0.661,-0.663 0.661,-1.327 0,-3.299c-3.957,-3.964 -9.238,-5.942 -17.155,-7.264l-10.559,0Z" style="fill-rule:nonzero;"/><path d="M343.076,422.723c-0.661,-11.22 -17.159,-13.198 -48.833,-5.278c-31.018,7.914 -47.516,15.177 -48.836,21.776c-1.979,6.599 14.519,7.92 48.836,5.277c33.653,-2.642 50.151,-9.898 48.833,-21.775Z" style="fill:#ffe000;fill-rule:nonzero;"/><path d="M243.429,438.557c-0.661,1.327 0,3.3 1.979,3.963c5.281,4.621 19.14,5.936 40.915,4.621c23.098,-0.657 39.595,-4.621 49.494,-10.557c6.599,-3.299 9.898,-7.263 9.898,-12.54l0,-1.321c-0.66,-7.263 -6.6,-11.22 -19.137,-11.877c-13.198,-0.658 -30.356,2.642 -50.814,9.241c-20.458,7.256 -31.675,13.198 -32.335,18.47Zm34.973,-14.513c21.118,-7.257 37.616,-9.899 49.493,-8.584c7.921,0.663 12.541,3.299 13.198,7.263c0.661,5.936 -4.617,9.898 -15.177,13.198c-13.198,4.62 -29.035,7.263 -48.832,7.263c-17.819,0 -27.718,-1.327 -29.696,-3.963c1.318,-3.964 11.878,-9.236 31.014,-15.177Z" style="fill-rule:nonzero;"/><path d="M153.019,403.589c-5.278,10.556 7.92,20.455 39.595,29.696c30.356,9.234 48.175,10.556 52.793,5.936c4.62,-5.278 -8.578,-15.177 -39.595,-29.696c-31.014,-15.177 -48.172,-16.499 -52.793,-5.936Z" style="fill:#ffe000;fill-rule:nonzero;"/><path d="M165.56,395.005c-7.92,0 -12.541,2.643 -15.18,7.92c-0.661,0.664 -0.661,2.636 -0.661,3.964c0,5.936 3.299,10.556 11.22,15.834c10.559,6.599 27.057,12.534 48.833,17.161c21.118,3.957 33.656,4.614 36.955,0.657l0.661,-5.284c-3.3,-5.936 -13.859,-14.513 -33.656,-24.411c-19.797,-10.557 -36.295,-15.841 -48.172,-15.841Zm-11.22,9.241c2.639,-4.621 9.238,-5.284 19.797,-3.957c13.198,2.636 29.035,9.235 45.533,19.134c15.837,9.235 23.758,15.177 23.758,18.477l-34.317,-2.643c-21.775,-4.614 -36.952,-10.556 -47.511,-17.813c-6.599,-4.62 -8.581,-9.241 -7.26,-13.198Z" style="fill-rule:nonzero;"/><path d="M269.825,443.841c16.497,-1.984 25.075,-7.92 26.396,-15.841c0.66,-8.577 -7.26,-9.898 -24.418,-5.277c-16.498,4.62 -25.076,9.898 -25.736,15.834c-0.66,5.941 7.26,7.262 23.758,5.284Z" style="fill:#ffe000;fill-rule:nonzero;"/><path d="M261.247,424.044c-11.22,4.614 -17.818,9.241 -17.818,14.513c0,1.327 0.66,3.3 2.639,4.627c3.3,2.636 8.581,3.957 17.158,3.3c7.921,0 15.177,-1.328 21.776,-3.964c7.92,-3.963 12.541,-8.577 13.198,-13.861l0,-1.973c0,-4.627 -3.3,-7.263 -9.238,-7.927c-7.917,-1.315 -16.498,0.664 -27.715,5.285Zm-12.541,15.84l-1.317,-1.327c0.66,-2.636 5.938,-6.6 15.837,-10.557c9.898,-4.614 18.477,-5.941 25.075,-5.277c3.961,0.663 5.281,2.636 5.281,4.62c-0.66,4.614 -3.96,7.914 -10.559,10.557c-5.938,2.642 -12.538,3.957 -19.798,4.62c-7.259,0 -12.537,-0.664 -14.519,-2.636Z" style="fill-rule:nonzero;"/><path d="M257.287,488.714c8.578,0 9.898,-7.263 5.278,-24.418c-5.938,-17.155 -11.217,-25.075 -17.158,-25.739c-5.938,0 -7.257,7.263 -4.618,23.761c3.3,16.496 8.578,25.732 16.498,26.396Z" style="fill:#ffe000;fill-rule:nonzero;"/><path d="M246.067,435.921c-2.639,0 -3.96,0.663 -5.938,3.3c-1.321,1.978 -2.639,6.599 -2.639,12.534c0,9.898 2.639,17.825 5.938,26.396c3.299,7.263 8.577,11.884 13.858,12.541c5.938,0 9.238,-3.3 9.238,-9.899c0.66,-7.913 -0.66,-16.497 -5.938,-27.711c-4.62,-10.562 -9.898,-16.498 -14.519,-17.161Zm-1.978,5.935l1.318,-1.315c3.299,0.657 7.26,5.278 11.22,15.177c3.96,9.899 6.599,17.819 5.938,24.418c0,3.957 -1.979,5.942 -4.618,5.942c-4.62,-0.664 -7.92,-3.964 -10.559,-9.899c-2.639,-5.941 -3.96,-12.54 -4.621,-20.461c-0.66,-6.599 0.001,-11.877 1.322,-13.862Z" style="fill-rule:nonzero;"/><path d="M222.971,484.75c5.938,5.285 12.537,0.664 19.137,-15.834c6.599,-16.498 7.92,-26.396 3.3,-30.359c-4.618,-4.614 -10.557,0.664 -18.477,15.183c-8.577,15.176 -9.899,25.074 -3.96,31.01Z" style="fill:#ffe000;fill-rule:nonzero;"/><path d="M246.728,436.584c-0.66,-1.327 -3.299,-1.327 -5.277,-0.663c-3.96,0.663 -7.921,4.62 -13.198,11.22c-4.621,6.599 -7.921,13.198 -9.241,19.797l-1.979,8.578c0,4.62 1.979,7.92 3.96,10.563c4.617,3.957 9.238,3.299 13.858,-1.328c5.278,-5.271 9.238,-13.198 12.538,-25.068c3.299,-11.885 3.299,-19.799 -0.661,-23.099Zm-3.96,3.3l1.321,0c2.639,2.636 1.979,9.235 -0.66,19.134c-3.3,9.898 -7.26,17.819 -11.878,22.434c-2.642,3.299 -4.62,3.299 -7.259,1.327c-1.982,-2.643 -3.3,-7.263 -1.321,-13.862c1.321,-6.599 4.62,-12.534 9.238,-19.134c3.96,-5.942 7.26,-9.242 10.559,-9.899Z" style="fill-rule:nonzero;"/><path d="M194.596,446.483c-0.661,8.571 6.599,10.556 24.415,6.599c16.497,-3.963 25.739,-8.584 27.057,-14.525c0.66,-5.936 -7.26,-8.571 -23.758,-6.6c-17.155,1.328 -25.736,6.6 -27.714,14.526Z" style="fill:#ffe000;fill-rule:nonzero;"/><path d="M192.614,446.483l0,1.972c0,3.963 3.299,7.263 8.58,7.927c7.917,1.314 16.498,0 28.375,-3.964c11.22,-3.963 17.158,-9.234 17.819,-13.197c0.66,-2.637 0,-4.621 -1.981,-5.936c-2.64,-2.643 -8.578,-3.964 -17.155,-3.964c-7.921,0 -15.18,1.321 -21.779,3.964c-8.577,2.636 -12.538,7.256 -13.859,13.198Zm50.154,-9.899l0.661,1.315c0,3.299 -5.938,6.599 -15.838,10.556c-10.559,3.3 -18.479,4.627 -25.078,3.963c-4.617,-0.663 -5.938,-2.636 -5.278,-5.277c0.661,-3.957 3.96,-7.257 10.56,-9.898c5.938,-1.985 12.537,-3.3 20.458,-3.3c7.255,-0.001 11.876,1.314 14.515,2.641Z" style="fill-rule:nonzero;"/><path d="M251.349,393.026c-1.981,-31.675 -7.26,-48.83 -14.52,-50.814c-7.92,-1.979 -9.898,12.541 -5.938,44.216c4.617,32.331 9.238,49.493 15.177,50.814c5.281,1.979 7.259,-13.198 5.281,-44.216Z" style="fill:#ffe000;fill-rule:nonzero;"/><path d="M249.367,362.667c-2.64,-13.856 -6.6,-21.112 -12.538,-22.434c-3.96,-0.664 -6.599,1.321 -8.577,6.599c-2.643,9.235 -1.981,26.396 1.979,51.473c3.96,25.739 9.238,39.595 15.177,40.916l3.96,-0.664c3.3,-2.636 4.62,-13.198 4.62,-29.696c-0.001,-17.813 -1.321,-32.996 -4.621,-46.194Zm-16.498,-15.835c0.66,-1.978 1.981,-2.636 3.3,-2.636c3.96,1.973 7.92,10.557 10.559,28.369c2.64,13.862 3.3,27.06 2.64,40.922c0,13.198 -1.318,20.455 -3.3,21.77c-3.3,-1.972 -6.599,-14.513 -11.217,-38.268c-4.621,-24.424 -4.621,-40.922 -1.982,-50.157Z" style="fill-rule:nonzero;"/><path d="M213.732,397.647c-7.26,3.299 -5.278,11.213 6.599,24.411c11.22,12.541 19.798,17.825 25.736,16.498c5.281,-1.973 3.3,-9.898 -5.938,-23.755c-9.899,-14.512 -18.477,-19.796 -26.397,-17.154Z" style="fill:#d96038;fill-rule:nonzero;"/><path d="M230.891,401.604c-5.938,-5.277 -11.88,-7.913 -17.158,-5.941c-3.96,1.327 -6.6,3.963 -6.6,7.927l1.321,5.271c2.64,6.6 8.578,13.862 17.816,21.782c9.237,8.578 15.837,11.877 20.457,9.898c1.979,-0.657 3.3,-1.984 3.3,-4.62c0.661,-3.964 -0.66,-9.899 -4.62,-16.498c-3.957,-7.263 -8.578,-13.198 -14.516,-17.819Zm-16.498,-1.979c3.961,-0.663 8.578,0.664 13.859,5.278c5.277,4.621 9.238,9.241 12.537,15.841c3.961,6.599 5.278,11.213 4.618,14.513l-0.657,0.664c-2.643,1.321 -7.921,-1.979 -16.498,-9.235c-7.921,-7.263 -13.198,-13.861 -15.18,-19.797c-1.318,-3.964 -0.661,-5.943 1.321,-7.264Z" style="fill-rule:nonzero;"/><path d="M269.825,473.537c21.775,19.797 37.616,27.054 46.854,21.112c9.898,-6.6 1.979,-18.471 -23.758,-35.632c-26.396,-17.161 -42.233,-23.761 -47.515,-20.461c-5.277,3.964 2.643,15.183 24.419,34.981Z" style="fill:#d96038;fill-rule:nonzero;"/><path d="M244.089,436.584c-3.3,1.973 -1.981,6.6 2.639,13.856c7.26,11.877 18.477,23.754 32.996,34.974c17.158,12.534 30.356,15.834 38.935,10.563c2.639,-1.327 3.96,-3.963 3.96,-7.263l-2.64,-8.578c-5.281,-8.584 -18.479,-19.797 -38.276,-31.017c-19.799,-11.877 -32.336,-15.834 -37.614,-12.535Zm11.217,17.812c-5.938,-7.913 -8.578,-11.877 -8.578,-14.513c3.3,-1.327 14.52,3.3 32.996,13.855c19.797,11.214 32.335,21.112 36.956,29.696c2.639,4.614 1.979,7.257 -0.661,8.578c-7.26,5.277 -19.797,0.663 -36.955,-13.199c-9.239,-7.918 -17.16,-15.833 -23.758,-24.417Z" style="fill-rule:nonzero;"/><path d="M245.407,439.884c-5.938,1.973 -1.318,16.498 15.84,44.866c17.155,27.725 29.696,39.595 38.935,34.98c9.238,-3.957 3.96,-18.482 -15.838,-44.215c-19.14,-25.075 -32.338,-36.958 -38.937,-35.631Z" style="fill:#ffe000;fill-rule:nonzero;"/><path d="M244.75,437.899c-1.321,0 -2.643,1.321 -2.643,3.299c-1.979,5.942 2.643,17.819 13.198,36.953c9.898,18.482 19.797,31.681 29.038,39.595c6.6,4.627 11.878,6.599 17.155,4.627c3.3,-1.327 4.621,-4.627 4.621,-9.241l-1.321,-7.921c-4.617,-11.877 -13.855,-26.396 -29.035,-43.558c-15.837,-17.155 -25.736,-25.069 -31.013,-23.754Zm10.556,30.354c-7.917,-15.171 -10.556,-23.755 -8.578,-25.733c3.3,-0.663 12.538,6.6 26.396,23.098c15.177,17.161 24.419,31.017 27.718,42.23c1.979,5.284 1.318,8.584 -1.321,9.898c-4.62,1.984 -11.22,-1.973 -19.137,-10.557c-8.58,-9.898 -17.158,-22.439 -25.078,-38.936Z" style="fill-rule:nonzero;"/><path d="M286.322,465.617c30.357,12.534 48.833,13.861 53.454,4.62c5.278,-9.241 -8.581,-17.819 -40.256,-26.396c-32.335,-7.92 -49.493,-9.898 -53.453,-4.62c-3.96,4.62 9.239,13.197 40.255,26.396Z" style="fill:#ffe000;fill-rule:nonzero;"/><path d="M243.429,437.242c-0.661,1.979 -0.661,3.299 0,5.277c3.299,5.278 13.858,12.535 33.656,21.119c19.797,9.241 35.634,13.855 48.172,14.513c8.581,0 13.858,-1.973 16.498,-6.6l1.321,-4.614c0,-4.62 -3.3,-7.92 -8.581,-11.883c-11.217,-6.6 -27.715,-12.535 -50.812,-17.155c-23.096,-4.614 -36.294,-4.614 -40.254,-0.657Zm40.255,5.278c23.097,4.621 39.595,10.563 49.493,17.162c5.278,3.957 5.938,6.599 4.618,9.234c-1.979,4.621 -9.899,5.936 -21.776,3.3c-13.858,-2.636 -29.035,-7.263 -44.872,-15.834c-15.181,-7.263 -23.098,-13.198 -23.758,-16.498l36.295,2.636Z" style="fill-rule:nonzero;"/><path d="M286.322,409.524c23.098,-24.418 30.357,-39.595 23.098,-46.857c-7.921,-6.6 -21.119,2.642 -40.256,28.381c-19.137,25.075 -26.396,40.909 -23.097,46.194c3.3,5.942 16.498,-3.957 40.255,-27.718Z" style="fill:#d96038;fill-rule:nonzero;"/><path d="M256.627,405.561c-11.22,17.162 -15.838,28.382 -13.198,33.66c0.66,0.663 2.639,1.32 5.277,1.32c6.6,-0.657 17.819,-8.584 34.317,-24.418c16.497,-16.498 26.396,-30.359 29.695,-41.573l1.321,-5.284c0,-3.3 -1.321,-5.936 -3.3,-8.571c-5.28,-3.963 -12.54,-2.642 -21.778,5.936c-10.559,7.919 -21.775,21.117 -32.334,38.93Zm-9.238,30.36c-1.321,-3.3 2.639,-13.198 13.858,-29.696c11.877,-17.161 21.776,-30.359 32.335,-38.273c5.938,-4.621 11.217,-6.6 14.517,-3.3c1.981,1.979 1.321,7.914 -1.979,15.177c-6.6,11.22 -17.158,23.761 -32.335,37.616c-13.859,13.198 -23.097,19.139 -26.396,18.476Z" style="fill-rule:nonzero;"/><path d="M246.067,387.091c-5.938,29.696 -5.938,46.194 0,50.151c5.281,3.299 13.198,-8.584 23.758,-38.28c9.898,-29.032 9.898,-45.53 0,-49.493c-10.559,-4.615 -18.476,7.926 -23.758,37.622Z" style="fill:#ffe000;fill-rule:nonzero;"/><path d="M253.327,356.731c-5.938,11.22 -9.898,26.396 -12.538,46.857c-1.981,20.455 -0.66,32.332 3.3,35.632c1.979,0.663 3.3,0.663 5.938,0c4.621,-3.3 10.56,-13.199 17.819,-29.696c7.917,-17.819 11.217,-32.996 11.217,-44.873l0,-1.984c-0.661,-8.571 -3.3,-13.198 -9.238,-15.835c-5.938,-2.636 -11.878,0.664 -16.498,9.899Zm7.26,57.414c-6.6,13.855 -10.56,21.112 -13.859,21.112c-2.639,-1.972 -3.299,-12.534 -0.66,-31.668c1.981,-20.461 5.938,-35.638 11.22,-45.536c3.3,-5.285 7.26,-7.921 11.217,-7.257c5.281,2.636 7.26,9.898 5.281,22.433c-1.322,12.535 -5.939,26.396 -13.199,40.916Z" style="fill-rule:nonzero;"/><path d="M277.085,453.082c25.735,5.271 40.912,2.636 44.212,-6.599c3.96,-9.899 -7.917,-14.526 -34.313,-16.498c-27.058,-0.664 -41.576,1.314 -44.216,6.599c-3.299,5.936 7.92,11.871 34.317,16.498Z" style="fill:#d96038;fill-rule:nonzero;"/><path d="M240.129,435.921c0,1.321 0,3.3 0.66,4.62c3.3,4.614 11.878,8.578 25.736,12.541c15.177,3.957 27.718,5.271 38.935,3.957c9.898,-0.657 15.837,-3.957 17.818,-9.898l1.318,-3.957c0,-3.963 -2.64,-7.263 -8.578,-9.898c-9.238,-3.964 -23.097,-5.942 -42.895,-5.285c-19.796,0.657 -30.355,3.299 -32.994,7.92Zm17.158,9.898c-7.92,-3.3 -11.88,-5.936 -12.537,-7.92c1.978,-2.643 11.216,-4.614 28.374,-5.278c18.477,-0.664 32.336,0.664 40.916,5.278c5.278,1.984 7.257,4.62 5.278,7.92c-2.639,6.599 -13.198,9.235 -32.335,6.599l-29.696,-6.599Z" style="fill-rule:nonzero;"/><path d="M242.768,437.242c-6.599,-1.321 -5.938,14.513 1.321,46.193c7.917,31.011 16.498,45.536 28.375,44.209c11.22,-1.972 11.22,-16.498 -0.66,-46.193c-12.538,-29.033 -21.777,-42.894 -29.036,-44.209Z" style="fill:#d96038;fill-rule:nonzero;"/><path d="M239.469,437.242c-3.3,5.277 -3.3,16.497 0,35.638c3.96,19.134 8.58,34.968 15.837,45.53c5.281,8.577 11.22,12.534 17.818,11.22c6.6,-0.658 9.899,-5.285 9.899,-13.856l0,-0.663c0,-11.877 -5.938,-28.375 -16.498,-48.83c-9.898,-20.461 -17.819,-30.359 -23.097,-31.023c-1.978,-0.658 -3.299,0.663 -3.959,1.984Zm15.179,70.606c-5.281,-11.871 -9.241,-25.733 -11.22,-42.23c-2.64,-15.835 -2.64,-24.419 0,-26.396c3.299,0.663 9.898,10.562 19.797,29.695c9.898,19.798 15.177,35.632 15.177,46.857c0,5.936 -1.979,9.235 -5.938,9.899c-5.939,0.657 -12.538,-5.285 -17.816,-17.825Z" style="fill-rule:nonzero;"/><path d="M247.389,548.77c10.559,3.3 13.858,-14.525 9.898,-52.136c-3.3,-37.616 -7.92,-57.413 -14.52,-59.392c-5.938,-1.985 -9.238,15.176 -9.898,52.135c-0.66,36.953 3.96,56.75 14.52,59.393Z" style="fill:#ffe000;fill-rule:nonzero;"/><path d="M243.429,435.257l-3.96,0.664c-2.64,2.636 -5.278,9.898 -6.6,21.118c-1.979,11.877 -2.639,24.412 -2.639,37.61c0,14.525 0.66,27.06 3.299,36.295c3.3,11.884 7.26,18.482 13.198,19.797c5.278,1.985 9.238,-1.314 11.878,-8.571c3.96,-11.883 3.299,-32.338 -0.658,-60.719c-3.96,-29.033 -8.58,-44.209 -14.518,-46.194Zm-7.26,34.323c1.321,-18.482 3.96,-29.039 6.599,-30.359c3.3,2.636 7.26,17.161 10.56,44.215c4.62,29.039 4.62,48.172 0,58.734c-0.66,3.3 -3.3,4.614 -5.938,4.614c-4.621,-1.314 -8.581,-9.241 -10.56,-24.411c-2.64,-15.841 -2.64,-32.996 -0.661,-52.793Z" style="fill-rule:nonzero;"/><path d="M211.754,539.528c9.898,3.3 18.477,-11.884 27.054,-45.537c7.92,-33.652 9.241,-51.472 4.621,-56.092c-5.278,-4.614 -14.52,11.22 -27.058,46.193c-13.198,34.981 -14.516,53.451 -4.617,55.436Z" style="fill:#ffe000;fill-rule:nonzero;"/><path d="M242.768,435.257l-2.639,0.664c-5.938,3.3 -13.198,15.834 -22.437,37.616c-9.898,22.439 -13.858,40.909 -13.858,54.107l0,3.3c0.66,6.599 3.299,9.898 7.26,11.226c6.599,1.973 12.537,-2.642 18.476,-13.198c6.6,-13.198 11.22,-30.359 15.181,-53.456c3.956,-23.098 3.956,-36.295 -0.661,-39.595l-1.322,-0.664Zm-19.797,38.28c9.238,-21.119 15.837,-32.996 19.137,-33.653c1.981,2.636 1.321,15.171 -1.979,36.953c-3.96,23.097 -9.898,40.909 -16.498,52.135c-3.96,6.6 -7.26,9.899 -11.22,8.571c-2.639,-0.657 -4.617,-4.614 -4.617,-11.213c0.66,-12.541 5.938,-30.353 15.177,-52.793Z" style="fill-rule:nonzero;"/><path d="M162.261,509.175c1.978,7.257 17.155,-0.664 43.552,-25.082c26.396,-24.411 38.276,-38.938 36.955,-44.872c-1.979,-5.936 -15.837,2.636 -43.555,24.418c-27.714,22.439 -39.595,37.609 -36.952,45.536Z" style="fill:#ffe000;fill-rule:nonzero;"/><path d="M210.433,452.418c-15.837,11.221 -28.375,23.098 -38.934,33.66c-7.92,9.234 -11.88,16.497 -11.88,21.111l0.661,2.643c1.321,3.3 4.621,4.614 9.899,3.3c9.898,-3.3 25.078,-15.184 46.193,-34.98c20.458,-21.112 30.356,-34.311 29.036,-39.595l-3.3,-2.636c-5.279,-1.321 -15.177,3.963 -31.675,16.497Zm5.938,1.321c13.859,-9.898 21.779,-14.519 24.418,-13.855c0.661,3.957 -9.238,15.834 -29.035,35.632c-20.458,19.797 -34.977,31.017 -44.215,33.659l-3.3,-0.664c-1.321,-3.963 3.3,-11.877 14.52,-23.097c10.555,-10.562 23.096,-21.775 37.612,-31.675Z" style="fill-rule:nonzero;"/><path d="M294.243,427.343c31.014,-13.198 44.872,-24.418 40.912,-34.98c-4.617,-10.556 -20.458,-7.256 -48.833,9.899c-27.717,16.497 -41.572,28.381 -40.255,34.98c0.661,6.599 17.159,3.299 48.176,-9.899Z" style="fill:#ffe000;fill-rule:nonzero;"/><path d="M243.429,437.899c0,1.321 0.66,2.642 3.299,3.957c6.6,1.327 19.798,-1.315 40.256,-9.235c21.775,-7.92 36.295,-16.498 44.873,-25.732c3.96,-3.3 5.938,-7.264 5.938,-11.227l-1.318,-4.614c-1.981,-6.599 -8.581,-7.92 -20.458,-5.284c-12.537,3.3 -27.718,11.226 -46.193,24.424c-18.477,13.198 -27.058,22.433 -26.397,27.711Zm75.889,-48.172c7.26,-1.979 11.877,-0.663 13.198,3.3c1.979,4.621 -1.321,9.898 -10.56,17.161c-11.217,7.914 -25.735,15.171 -44.212,21.112c-17.819,5.284 -27.718,7.921 -30.356,5.284c0,-3.299 9.238,-11.226 26.396,-23.76c18.478,-13.199 33.657,-20.462 45.534,-23.097Z" style="fill-rule:nonzero;"/><path d="M230.891,516.432c9.898,3.956 16.498,-7.257 19.798,-32.339c3.96,-25.075 2.639,-39.595 -2.64,-43.552c-5.281,-3.299 -11.88,7.914 -19.797,32.996c-7.921,25.739 -6.6,39.595 2.639,42.895Z" style="fill:#d96038;fill-rule:nonzero;"/><path d="M255.306,468.916c0.66,-17.161 -1.979,-27.06 -5.938,-29.695l-5.278,0c-4.62,3.299 -9.898,11.22 -14.52,24.418c-5.938,14.513 -8.577,26.396 -8.577,36.295l0,4.614c1.317,7.927 4.617,12.541 9.238,14.525c6.599,1.973 11.877,-1.327 16.497,-9.898c4.621,-9.899 7.259,-23.097 8.578,-40.259Zm-18.477,-11.22c4.621,-9.241 7.921,-14.513 9.898,-15.177c3.3,1.979 3.961,10.563 3.3,26.396c-0.66,16.498 -3.3,29.696 -7.26,38.273c-3.299,5.942 -6.599,8.584 -10.559,7.257c-5.938,-1.972 -7.917,-10.556 -5.278,-25.069c1.979,-10.562 5.279,-20.46 9.899,-31.68Z" style="fill-rule:nonzero;"/><path d="M191.957,515.773c7.917,9.899 18.476,1.315 32.995,-27.06c14.517,-27.718 19.798,-44.873 15.177,-50.157c-3.3,-5.936 -14.52,3.963 -32.335,27.061c-17.819,23.76 -23.758,40.258 -15.837,50.156Z" style="fill:#ffe000;fill-rule:nonzero;"/><path d="M233.529,475.516c9.238,-21.119 12.538,-33.659 9.238,-38.273c-1.979,-1.321 -3.299,-1.985 -5.277,-1.321c-4.621,0 -13.198,6.599 -23.098,17.818c-10.559,12.541 -18.479,24.412 -23.757,34.975c-2.64,7.263 -3.96,13.198 -3.96,17.161c0,4.614 1.32,8.571 3.96,11.871c3.96,5.284 9.898,5.284 15.837,0.664c9.239,-6.6 17.82,-20.463 27.057,-42.895Zm-29.035,-1.979c6.6,-9.898 13.859,-17.819 21.776,-24.418c6.599,-6.6 10.559,-9.898 12.537,-9.235c1.981,3.3 -1.317,15.171 -9.238,34.968c-9.238,21.125 -18.476,34.323 -26.396,40.259l-9.238,-0.664c-3.299,-3.3 -3.299,-9.235 -1.32,-15.834c1.981,-7.263 5.941,-15.835 11.879,-25.076Z" style="fill-rule:nonzero;"/><path d="M258.605,445.155c1.981,-2.636 2.642,-5.271 1.981,-8.571c0,-2.642 -1.321,-4.627 -4.621,-6.599l-10.558,-1.985c-3.3,0.658 -6.6,1.985 -9.238,4.621c-2.64,3.3 -3.3,5.936 -2.64,8.577c0,2.643 1.979,5.285 5.278,7.257l9.898,1.327c3.962,-0.663 7.261,-1.984 9.9,-4.627Z" style="fill:#ffe000;fill-rule:nonzero;"/><path d="M263.226,436.584c0,-3.963 -2.639,-6.599 -5.938,-8.584c-3.96,-1.979 -7.92,-2.642 -11.88,-1.979c-5.278,0.664 -9.238,3.3 -11.878,6.6c-2.639,2.636 -3.299,5.936 -2.639,9.235c0.66,3.299 2.639,5.284 5.278,7.263c3.96,3.299 8.581,3.963 13.198,3.299c3.96,-0.663 7.26,-3.299 10.559,-5.935c3.3,-3.299 3.961,-6.599 3.3,-9.899Zm-27.718,3.957c0,-1.32 0.661,-3.957 1.321,-5.284c1.979,-2.636 5.278,-4.614 9.238,-5.271l7.92,1.972c2.64,0.664 4.618,3.3 5.278,5.285l0,1.314l-3.3,5.284c-2.639,1.979 -4.617,3.3 -7.26,3.957c-4.617,0.657 -7.917,-0.657 -9.898,-1.979c-1.978,-1.321 -2.638,-3.299 -3.299,-5.278Z" style="fill-rule:nonzero;"/><path d="M275.764,253.124c7.92,-54.771 11.22,-102.943 8.58,-143.859l-115.484,-6.599c1.318,40.916 -3.96,89.088 -13.859,143.202c-21.119,108.228 -60.713,193.353 -118.784,256.044l130,11.22c56.093,-64.013 92.388,-151.123 109.547,-260.008Z" style="fill:#9260c7;fill-rule:nonzero;"/><path d="M278.402,255.766c8.581,-55.436 11.22,-103.608 9.241,-146.502c-0.66,-2.636 -1.321,-3.299 -3.3,-3.299l-114.827,-6.6l-2.639,0.664c-0.661,0.657 -1.318,1.314 -1.318,2.636c1.318,42.23 -3.96,90.409 -14.52,143.859c-21.117,107.572 -60.051,192.033 -117.461,252.752c-0.661,1.314 -0.661,1.972 -0.661,3.957l2.639,1.978l130.661,11.221l2.643,-0.658c55.432,-64.676 91.727,-151.123 109.542,-260.008Zm2.643,-143.203l0.657,20.461c0,56.75 -5.938,111.521 -18.477,166.292c-19.797,87.11 -52.793,156.4 -98.326,210.515l-122.083,-10.555c52.793,-58.735 89.749,-136.609 111.524,-234.933c11.877,-54.771 17.819,-107.564 17.819,-157.058l0,-1.321l108.886,6.599Z" style="fill-rule:nonzero;"/></g><rect id="PATH77" x="2.92" y="2.74" width="366.67" height="582.52" style="fill:none;stroke:#000;stroke-width:3px;"/></svg>