<?xml version="1.0" encoding="UTF-8" standalone="no"?><!DOCTYPE svg PUBLIC "-//W3C//DTD SVG 1.1//EN" "http://www.w3.org/Graphics/SVG/1.1/DTD/svg11.dtd"><svg width="100%" height="100%" viewBox="0 0 372 587" version="1.1" xmlns="http://www.w3.org/2000/svg" xmlns:xlink="http://www.w3.org/1999/xlink" xml:space="preserve" xmlns:serif="http://www.serif.com/" style="fill-rule:evenodd;clip-rule:evenodd;stroke-miterlimit:100;"><g><clipPath id="_clip1"><rect x="2.088" y="2.451" width="367.326" height="583.392"/></clipPath><g clip-path="url(#_clip1)"><path d="M46.121,397.564c0,-3.494 -2.101,-4.896 -5.591,-4.896c-2.789,0 -4.188,1.402 -4.188,4.896c0,3.49 1.398,5.578 4.188,5.578c3.491,0.003 5.591,-2.085 5.591,-5.578Z" style="fill:#333;fill-rule:nonzero;"/><path d="M61.479,413.617c0,-2.789 -1.392,-4.883 -4.883,-4.883c-3.491,0 -5.592,2.094 -5.592,4.883l2.101,4.193c0.695,0.703 2.093,1.397 3.491,1.397l3.492,-1.397l1.391,-4.193Z" style="fill:#333;fill-rule:nonzero;"/><path d="M46.817,361.947c0,-3.492 -2.093,-4.891 -4.883,-4.891c-3.492,0 -4.896,1.397 -4.896,4.891c0,3.49 1.404,4.889 4.896,4.889c2.79,0 4.883,-1.398 4.883,-4.889Z" style="fill:#333;fill-rule:nonzero;"/><path d="M31.459,414.318c0,-3.49 -2.1,-5.584 -4.896,-5.584c-3.492,0 -5.578,2.094 -5.578,5.584c0,3.492 2.086,4.891 5.578,4.891c2.796,0 4.896,-1.398 4.896,-4.891Z" style="fill:#333;fill-rule:nonzero;"/><path d="M83.13,392.668c0,-3.491 -1.398,-5.579 -4.889,-5.579c-2.796,0 -4.883,2.088 -4.883,5.579c0,3.492 2.087,4.896 4.883,4.896c3.491,0 4.889,-1.404 4.889,-4.896Z" style="fill:#333;fill-rule:nonzero;"/><path d="M60.783,462.498c0,-2.79 -2.094,-4.882 -5.585,-4.882c-3.491,0 -4.89,2.092 -4.89,4.882l1.398,4.193l3.492,1.398l3.492,-1.398l2.093,-4.193Z" style="fill:#333;fill-rule:nonzero;"/><path d="M36.342,446.445c0,-3.491 -2.093,-5.594 -5.585,-5.594c-2.789,0 -4.889,2.103 -4.889,5.594c0,2.79 2.1,4.188 4.889,4.188c3.492,0 5.585,-1.398 5.585,-4.188Z" style="fill:#333;fill-rule:nonzero;"/><path d="M31.459,490.43c0,-2.788 -2.1,-4.883 -4.896,-4.883c-3.492,0 -5.578,2.095 -5.578,4.883c0,3.49 2.086,5.594 5.578,5.594c2.796,-0.002 4.896,-2.104 4.896,-5.594Z" style="fill:#333;fill-rule:nonzero;"/><path d="M50.308,488.345c0,-3.493 -2.093,-4.896 -5.584,-4.896c-3.491,0 -4.89,1.403 -4.89,4.896l1.398,3.49c1.397,1.39 2.789,2.085 3.492,2.085c3.491,0 5.584,-2.085 5.584,-5.575Z" style="fill:#333;fill-rule:nonzero;"/><path d="M69.866,435.972c0,-3.493 -1.404,-4.896 -4.896,-4.896c-1.391,0 -2.79,0.703 -3.491,1.403c-0.696,1.394 -1.392,2.089 -1.392,3.493c0,3.49 1.392,5.578 4.883,5.578c3.492,0 4.896,-2.088 4.896,-5.578Z" style="fill:#333;fill-rule:nonzero;"/><path d="M27.968,349.379c0,-3.492 -1.405,-4.891 -4.896,-4.891c-3.491,0 -5.578,1.398 -5.578,4.891c0,3.491 2.086,5.585 5.578,5.585c3.491,0 4.896,-2.094 4.896,-5.585Z" style="fill:#333;fill-rule:nonzero;"/><path d="M46.121,429.684c0,-3.49 -2.101,-4.89 -5.591,-4.89c-3.492,0 -4.883,1.398 -4.883,4.89c0,3.49 1.392,4.884 4.883,4.884c3.491,-0.002 5.591,-1.394 5.591,-4.884Z" style="fill:#333;fill-rule:nonzero;"/><path d="M26.563,467.396l-0.695,-3.492l-4.188,-1.404c-2.796,0 -4.89,1.404 -4.89,4.896c0,3.49 2.094,5.577 4.89,5.577c3.492,0 4.883,-2.087 4.883,-5.577Z" style="fill:#333;fill-rule:nonzero;"/><path d="M65.672,373.123l-1.397,-3.491l-4.188,-1.405c-1.398,0 -2.1,0.705 -3.492,1.405c-1.398,0.695 -1.398,2.087 -1.398,3.491c0,2.79 1.398,4.883 4.89,4.883c3.492,0 5.585,-2.093 5.585,-4.883Z" style="fill:#333;fill-rule:nonzero;"/><path d="M36.342,327.031c0,-3.491 -2.093,-5.586 -5.585,-5.586c-2.789,0 -4.889,2.095 -4.889,5.586c0,3.492 2.1,4.89 4.889,4.89c3.492,0 5.585,-1.398 5.585,-4.89Z" style="fill:#333;fill-rule:nonzero;"/><path d="M31.459,379.404c0,-3.491 -2.1,-5.586 -4.896,-5.586c-3.492,0 -5.578,2.095 -5.578,5.586c0,3.49 2.086,4.89 5.578,4.89c2.796,0 4.896,-1.398 4.896,-4.89Z" style="fill:#333;fill-rule:nonzero;"/><path d="M38.442,519.768l-1.404,-3.491c-0.696,-0.702 -2.087,-1.404 -3.492,-1.404c-3.491,0 -5.578,1.404 -5.578,4.896c0,3.49 2.087,4.882 5.578,4.882c3.492,-0.003 4.896,-1.393 4.896,-4.883Z" style="fill:#333;fill-rule:nonzero;"/><path d="M27.968,552.581l-1.405,-3.49c-1.391,-0.695 -2.79,-1.393 -4.187,-1.393c-1.391,0 -2.796,0.695 -3.492,1.393c-1.391,1.396 -1.391,2.795 -1.391,3.49c0,3.491 1.391,4.89 4.882,4.89c3.491,0 5.593,-1.399 5.593,-4.89Z" style="fill:#333;fill-rule:nonzero;"/><path d="M314.968,28.16c0,-3.492 -1.397,-4.89 -4.188,-4.89c-1.405,0 -2.796,0 -3.491,1.398l-2.102,3.492c0,3.491 2.102,4.883 5.593,4.883c2.789,0 4.188,-1.392 4.188,-4.883Z" style="fill:#333;fill-rule:nonzero;"/><path d="M338.713,47.711c0,-3.492 -2.102,-5.585 -4.896,-5.585c-3.492,0 -5.579,2.094 -5.579,5.585c0,3.491 2.087,4.889 5.579,4.889c2.794,0.001 4.896,-1.398 4.896,-4.889Z" style="fill:#333;fill-rule:nonzero;"/><path d="M349.188,28.16l-0.703,-3.492l-4.192,-1.398c-1.393,0 -2.088,0 -3.492,1.398c-1.391,0.695 -2.086,2.093 -2.086,3.492c0,3.491 2.086,4.883 5.578,4.883c3.489,0 4.895,-1.392 4.895,-4.883Z" style="fill:#333;fill-rule:nonzero;"/><path d="M332.425,19.779c0,-3.492 -1.396,-5.585 -4.89,-5.585c-3.491,0 -5.586,2.093 -5.586,5.585c0,3.491 2.095,4.889 5.586,4.889c3.492,0 4.89,-1.397 4.89,-4.889Z" style="fill:#333;fill-rule:nonzero;"/><path d="M345.695,89.609c0,-3.491 -1.404,-5.585 -4.896,-5.585c-3.492,0 -5.579,2.094 -5.579,5.585c0,3.491 2.087,4.889 5.579,4.889c3.492,0 4.896,-1.397 4.896,-4.889Z" style="fill:#333;fill-rule:nonzero;"/><path d="M326.833,140.584c0,-2.796 -2.087,-4.188 -5.579,-4.188c-2.795,0 -4.194,1.391 -4.194,4.188c0,3.491 1.399,5.592 4.194,5.592l4.188,-1.405l1.391,-4.187Z" style="fill:#333;fill-rule:nonzero;"/><path d="M324.044,96.592c0,-3.492 -2.095,-5.585 -5.585,-5.585c-0.695,0 -2.101,0.695 -3.491,2.093l-1.397,3.492c0,3.492 1.397,4.89 4.89,4.89c3.488,0 5.583,-1.398 5.583,-4.89Z" style="fill:#333;fill-rule:nonzero;"/><path d="M314.271,117.542c0,-2.789 -1.403,-4.89 -4.896,-4.89c-3.491,0 -5.578,2.101 -5.578,4.89l2.087,4.194l3.491,1.391c3.492,-0.001 4.896,-2.094 4.896,-5.585Z" style="fill:#333;fill-rule:nonzero;"/><path d="M343.594,140.584l-1.391,-3.492c-0.702,-0.696 -2.795,-1.391 -3.49,-1.391c-3.493,0 -4.896,1.391 -4.896,4.883c0,3.491 1.402,4.889 4.896,4.889c3.49,0 4.881,-1.398 4.881,-4.889Z" style="fill:#333;fill-rule:nonzero;"/><path d="M338.713,109.161c0,-3.491 -2.102,-4.883 -4.896,-4.883c-2.087,0 -2.789,0.696 -3.492,1.392l-2.087,3.491c0,3.491 2.087,4.889 5.579,4.889c2.794,0 4.896,-1.398 4.896,-4.889Z" style="fill:#333;fill-rule:nonzero;"/><path d="M349.188,199.244l-1.404,-3.492c-1.392,-1.397 -2.087,-1.397 -3.491,-1.397c-3.492,0 -5.578,1.397 -5.578,4.889c0,2.796 2.086,4.882 5.578,4.882c3.489,0 4.895,-2.086 4.895,-4.882Z" style="fill:#333;fill-rule:nonzero;"/><path d="M321.254,169.914c0,-3.492 -1.404,-5.585 -4.194,-5.585c-2.092,0 -2.788,1.392 -3.489,2.093l-2.095,3.492l2.095,3.492c0.701,1.398 1.397,1.398 3.489,1.398c2.79,0 4.194,-1.399 4.194,-4.89Z" style="fill:#333;fill-rule:nonzero;"/><path d="M358.959,222.287l-2.093,-3.492l-3.492,-2.093c-1.397,0 -2.101,1.391 -3.492,2.093c-0.694,0.702 -1.397,2.094 -1.397,3.492l1.397,3.492c1.393,1.397 2.095,1.397 3.492,1.397l3.492,-1.397l2.093,-3.492Z" style="fill:#333;fill-rule:nonzero;"/><path d="M307.984,146.871l-0.695,-3.491l-4.195,-1.397c-2.788,0 -4.889,1.397 -4.889,4.889c0,3.492 2.101,5.586 4.889,5.586l4.195,-2.094l0.695,-3.493Z" style="fill:#333;fill-rule:nonzero;"/><path d="M356.866,116.144c0,-3.492 -1.399,-4.883 -4.891,-4.883c-3.492,0 -5.585,1.391 -5.585,4.883c0,3.491 2.093,5.592 5.585,5.592c3.492,-0.001 4.891,-2.101 4.891,-5.592Z" style="fill:#333;fill-rule:nonzero;"/><path d="M356.169,52.601c0,-3.491 -1.403,-5.592 -4.896,-5.592c-3.491,0 -5.578,2.101 -5.578,5.592c0,2.796 2.087,4.187 5.578,4.187c3.493,0 4.896,-1.391 4.896,-4.187Z" style="fill:#333;fill-rule:nonzero;"/><path d="M356.866,73.549c0,-3.491 -1.399,-4.889 -4.891,-4.889c-3.492,0 -5.585,1.397 -5.585,4.889c0,3.492 2.093,4.883 5.585,4.883c3.492,0.001 4.891,-1.391 4.891,-4.883Z" style="fill:#333;fill-rule:nonzero;"/><path d="M304.493,91.703c0,-2.795 -1.399,-4.187 -4.891,-4.187c-3.492,0 -5.585,1.392 -5.585,4.187c0,3.492 2.094,5.592 5.585,5.592c3.492,-0.001 4.891,-2.1 4.891,-5.592Z" style="fill:#333;fill-rule:nonzero;"/><path d="M328.237,195.752c0,-3.492 -2.101,-4.89 -4.896,-4.89c-2.088,0 -2.789,0.703 -3.492,1.398l-2.086,3.492l2.086,4.187c0.703,1.398 1.404,1.398 3.492,1.398c2.797,0.001 4.896,-2.093 4.896,-5.585Z" style="fill:#333;fill-rule:nonzero;"/><path d="M354.766,166.422c0,-3.491 -2.088,-4.889 -5.579,-4.889c-3.49,0 -4.896,1.398 -4.896,4.889l1.404,3.492c1.392,1.398 2.788,1.398 3.49,1.398c3.493,0 5.581,-1.398 5.581,-4.89Z" style="fill:#333;fill-rule:nonzero;"/><path d="M311.476,267.676l14.662,-15.364c7.68,-11.169 5.593,-17.458 -4.884,-20.253c-9.778,-2.789 -14.668,2.1 -13.965,14.667c0,6.983 2.086,13.967 4.187,20.95Z" style="fill:#d96038;fill-rule:nonzero;"/><path d="M322.646,229.27c-6.287,-2.094 -11.171,-0.703 -14.661,2.093c-5.593,6.288 -4.892,18.855 1.391,37.016l1.405,2.087l2.789,-1.392l11.873,-11.169c6.286,-7.686 9.075,-14.669 8.374,-19.559c-1.392,-4.882 -5.58,-7.678 -11.171,-9.076Zm5.591,10.474l0,0.703c0,6.28 -4.896,13.263 -14.668,21.644c-2.789,-6.983 -3.492,-12.575 -3.492,-18.152c0,-4.194 0.703,-6.983 2.79,-8.389l8.387,-1.391c4.188,1.391 6.281,2.797 6.983,5.585Z" style="fill-rule:nonzero;"/><path d="M312.867,264.185c-2.087,0 -3.492,0.702 -3.492,2.789l-9.069,32.125c-0.702,0.703 0,2.094 2.087,3.491l3.491,-2.788l8.388,-32.126c0.696,-0.702 -0.001,-2.094 -1.405,-3.491Z" style="fill-rule:nonzero;"/><path d="M227.68,10.007l-4.89,-11.879c-4.192,0.702 -9.771,3.491 -15.363,6.982l-6.981,4.195l-11.867,-6.983l-6.982,-4.194l-4.897,11.177l-11.866,0c-0.695,6.28 1.391,13.965 4.883,24.44c-4.883,4.194 -8.375,8.381 -11.866,13.966l-4.89,6.982l9.772,6.983l-0.695,11.873c7.679,3.492 15.364,4.883 23.746,4.187c0,6.288 3.489,13.271 10.474,20.254l10.475,-6.983l11.17,4.188c4.188,-4.188 5.594,-11.171 6.984,-20.95l18.854,-2.093l-1.397,-11.177l8.381,-8.374c-3.49,-4.889 -7.686,-9.083 -12.566,-12.575l-6.287,-3.491c4.889,-7.679 6.287,-15.357 5.591,-22.34l-9.783,-4.188Z" style="fill:#ffcdde;fill-rule:nonzero;"/><path d="M240.95,16.99l0,-3.491l-2.101,-2.796l-8.373,-3.492l-4.194,-10.475c-0.702,-1.398 -2.095,-2.796 -4.194,-2.1c-6.982,2.1 -13.966,5.591 -21.645,11.177l-16.762,-10.475c-2.788,-1.398 -4.186,-0.702 -4.881,1.398l-4.89,9.077l-9.772,0c-2.101,0.702 -2.796,2.093 -2.796,3.492l0,1.397c0,4.187 1.391,12.568 4.883,23.042l-11.866,12.568l-4.187,6.288l-0.703,2.093l1.398,2.094l8.375,6.288l-0.696,10.474c0,2.094 0.696,2.796 2.101,3.492c6.281,2.796 13.264,4.187 22.34,4.187c1.397,6.288 4.89,13.271 11.171,19.558l4.193,0.697l9.076,-6.984l9.083,3.492l4.187,0c3.492,-4.89 6.289,-11.17 6.984,-20.254l16.762,-2.093c2.088,0 2.789,-1.398 2.789,-3.492l-0.701,-9.772l6.287,-6.982l1.396,-2.796l-0.701,-1.398c-4.188,-6.982 -9.772,-12.567 -16.756,-16.059c2.79,-6.985 4.193,-13.272 4.193,-18.155Zm-6.982,-0.702l0,0.702c0,6.281 -1.403,12.562 -4.896,18.153l-0.696,1.392l0.696,0.702l1.404,2.789l5.578,2.796l9.779,9.779l-5.586,5.584l-1.396,2.79l0,0.702l1.396,8.381l-14.668,0.696c-2.087,0 -3.492,1.398 -4.188,3.491c-0.697,6.983 -2.094,12.575 -4.884,16.762l-8.388,-3.492l-2.788,0l-7.688,6.288c-5.576,-6.288 -8.373,-11.177 -8.373,-16.067l-1.397,-2.795l-2.093,-0.696l-19.559,-3.491l0,-9.077l-1.391,-3.492l-6.983,-4.889c4.882,-6.983 9.779,-12.568 13.966,-16.06l1.391,-3.491l0,-0.702c-2.789,-8.375 -4.882,-14.662 -4.882,-20.247l8.374,0l2.796,-2.094l4.186,-7.679l14.67,9.069l4.192,0.703l5.58,-4.195l12.573,-6.279l3.492,9.076l2.797,2.1l6.986,2.791Z" style="fill-rule:nonzero;"/><path d="M213.02,39.33c-1.406,-3.492 -4.194,-5.585 -8.39,-6.983l-10.474,1.398c-2.789,2.093 -4.885,4.89 -6.281,8.381c-0.702,3.492 0,6.983 1.396,10.475c2.096,3.492 4.885,5.584 8.375,6.983c4.193,0.695 7.688,0 10.476,-1.399c3.491,-2.093 4.896,-4.889 6.287,-8.38c1.4,-4.187 0.696,-7.679 -1.389,-10.475Zm-3.495,6.288c0,3.492 -1.403,5.584 -4.191,7.679l-6.282,0.695l-4.896,-4.187l-1.391,-5.585c1.391,-2.094 2.092,-4.194 4.186,-5.585l6.287,0l4.884,3.491l1.403,3.492Z" style="fill-rule:nonzero;"/><path d="M194.156,47.711c-1.391,-2.094 -2.789,-2.789 -4.188,-2.094l-13.271,6.983c-2.087,0.696 -2.789,2.093 -1.391,3.492c0,1.391 1.391,2.093 3.492,1.391l13.966,-6.281c1.392,-1.397 2.093,-2.093 1.392,-3.491Z" style="fill-rule:nonzero;"/><path d="M206.035,58.185c0,-2.093 -0.701,-2.788 -2.797,-2.788c-1.397,0 -2.795,0.695 -2.795,2.788l0.695,16.06c0,1.398 0.701,2.796 2.101,2.796c2.095,0 2.796,-1.397 2.796,-2.796l0,-16.06Z" style="fill-rule:nonzero;"/><path d="M186.479,23.271c-0.695,-1.398 -2.096,-2.093 -4.188,-0.703c-1.397,0.703 -1.397,2.101 -0.695,4.194l5.578,4.889l4.194,4.188l4.193,0c0.694,-2.093 0.694,-3.491 -0.703,-4.188c-4.889,-3.491 -7.685,-6.287 -8.379,-8.38Z" style="fill-rule:nonzero;"/><path d="M215.809,21.177l-4.195,0.695l-9.068,9.778l-0.703,2.094l0.703,1.398c2.086,1.392 3.491,1.392 4.188,0l9.076,-9.779c1.395,-1.39 1.395,-2.795 -0.001,-4.186Z" style="fill-rule:nonzero;"/><path d="M213.02,47.711l-3.492,0c-0.702,1.398 -0.702,3.491 0.695,4.194l4.188,2.789l9.084,3.491c2.789,0 3.49,-0.702 3.49,-2.093c0,-2.101 0,-3.492 -2.1,-3.492l-7.68,-3.491l-4.185,-1.398Z" style="fill-rule:nonzero;"/><path d="M352.678,585.403l0,-7.687l17.459,-6.28l-3.493,-10.475l6.282,-9.771c-4.193,-4.896 -9.771,-7.687 -14.669,-9.778l-6.982,-2.103c1.403,-5.576 2.101,-10.474 1.403,-16.053l-0.701,-6.981l-10.476,-2.102l-6.982,-11.169c-4.891,2.795 -9.771,6.287 -13.966,10.474l-6.281,6.288l-13.271,-5.593l-7.678,-1.391l-2.798,11.169l-11.168,3.492c0.694,5.585 4.185,13.271 10.474,22.341c-6.289,7.685 -9.778,15.37 -11.88,23.049l11.178,5.585l1.396,11.873l23.744,-1.397c2.089,6.982 6.983,12.567 15.357,18.159l8.382,-9.778l11.872,2.094c2.097,-3.491 2.798,-7.685 2.798,-13.966Z" style="fill:#ffcdde;fill-rule:nonzero;"/><path d="M274.46,572.835c0,2.094 0.702,3.491 2.103,3.491l9.074,4.188l1.398,9.778c0,2.093 1.391,2.796 2.796,2.796c6.28,2.087 13.263,2.087 23.036,0c2.101,6.28 7.686,11.865 14.668,16.755l4.193,-0.702l7.68,-7.679l9.777,1.397c2.088,0.702 2.79,0 3.491,-2.094c2.789,-3.491 3.491,-9.084 3.491,-16.066l0,-4.187l10.475,-3.492l5.579,-2.094l1.404,-3.492l0,-0.701l-3.49,-9.771l5.577,-7.687l0.702,-2.087l-1.398,-2.796c-5.585,-6.286 -12.566,-9.778 -19.551,-11.171l1.399,-10.474l-0.697,-8.388l-0.702,-3.491l-2.789,-2.087l-9.084,-2.102l-6.287,-9.075c-2.087,-2.095 -2.788,-2.095 -4.882,-1.399c-6.981,3.492 -12.575,8.382 -18.854,14.663l-12.568,-4.188l-6.287,-1.391c-2.094,-0.703 -4.188,0 -4.188,2.086l-2.101,9.779l-9.771,2.795c-2.094,0 -2.789,1.392 -2.789,3.492c0.695,5.585 4.188,13.271 9.771,22.341c-5.583,7.689 -9.073,14.672 -11.176,23.053Zm74.728,-53.772l0.694,7.687l-2.1,11.169l0,1.393l0.701,2.102l2.095,1.391l5.591,2.101c4.188,1.392 7.68,3.491 11.866,6.982l-4.882,6.983l0,3.491l2.789,7.679l-13.967,4.188c-2.095,0.702 -2.79,2.101 -2.79,3.491l0,6.982l-1.403,11.178l-9.069,-2.094c-0.703,0 -2.102,0 -3.493,1.392l-6.287,6.982c-6.286,-4.883 -10.474,-9.772 -11.169,-13.265l-1.404,-2.79l-2.789,-0.7l-20.246,1.396l-1.404,-9.778l-2.088,-2.094l-7.686,-3.492c2.789,-6.981 6.279,-13.264 10.475,-19.551l0.703,-2.1l-0.703,-1.393c-4.194,-6.981 -6.982,-12.573 -9.078,-18.152l8.377,-2.796l2.1,-2.798l2.797,-8.373c6.278,2.088 11.17,3.492 16.053,6.281l4.191,-0.703l16.062,-13.966l5.593,8.388l2.086,1.392l8.385,1.397Z" style="fill-rule:nonzero;"/><path d="M333.12,545.598c-2.093,-2.795 -5.585,-4.186 -9.076,-4.186c-4.194,0 -6.984,0.695 -10.475,3.49c-2.789,2.796 -4.194,6.288 -4.194,9.078c0,4.191 0.702,7.685 3.492,10.474c2.101,2.789 5.592,4.193 9.082,4.193c3.493,0.695 6.982,-0.701 9.779,-3.491c3.49,-2.796 4.188,-5.592 4.883,-9.779c0.696,-3.491 -1.391,-6.981 -3.491,-9.779Zm-15.356,2.798c1.392,-0.696 3.49,-2.102 5.578,-1.397c2.102,0 4.193,0.701 5.591,2.094l2.096,6.286c0,2.094 -0.703,4.188 -2.79,5.586c-1.404,1.397 -3.491,2.093 -6.288,2.093l-4.891,-2.093c-2.092,-2.094 -2.788,-3.492 -2.788,-6.281l3.492,-6.288Z" style="fill-rule:nonzero;"/><path d="M316.358,557.471l-4.188,0l-11.865,8.381c-2.101,1.393 -2.101,2.797 -0.701,4.188l3.489,0.695l11.874,-9.069c2.093,-0.703 2.093,-2.102 1.391,-4.195Z" style="fill-rule:nonzero;"/><path d="M330.324,565.852c0,-1.396 -2.087,-2.796 -3.491,-2.101c-2.087,0.703 -2.087,1.405 -2.087,2.796l3.491,16.067c0.694,2.086 2.087,2.789 3.491,2.086c2.088,0 2.789,-1.392 2.789,-2.789l-4.193,-16.059Z" style="fill-rule:nonzero;"/><path d="M303.797,535.82c-0.703,-0.696 -2.796,-0.696 -4.193,0c-0.702,1.402 -0.702,2.795 0,4.191l11.872,7.687c2.095,0.695 2.796,0 3.492,-2.102c1.392,-0.694 0.695,-2.093 -0.696,-3.489l-10.475,-6.287Z" style="fill-rule:nonzero;"/><path d="M331.729,528.142c-1.404,-1.392 -2.797,-0.695 -3.491,0.695l-6.983,11.879c-0.701,1.393 0,2.789 1.393,4.188c1.397,0.694 2.101,0 3.491,-1.397l6.287,-11.873c1.39,-1.393 1.39,-2.797 -0.697,-3.492Z" style="fill-rule:nonzero;"/><path d="M335.22,553.276c-1.402,-0.695 -3.489,0 -3.489,2.101c-0.702,1.394 0,2.094 1.391,3.492l4.89,1.391l9.772,1.405c1.404,0 2.1,-0.702 2.1,-2.796c0,-1.398 -0.694,-2.797 -2.1,-2.797l-9.069,-0.695l-3.495,-2.101Z" style="fill-rule:nonzero;"/><path d="M85.224,579.121l11.169,4.884l0.703,11.873l24.44,-6.983c6.28,6.983 13.966,11.873 20.949,15.364l6.281,-9.083l12.574,0c2.094,-5.579 2.796,-10.476 3.492,-16.756l-0.695,-6.983c6.28,-0.701 13.264,-4.89 20.246,-12.566l-8.38,-9.778l4.188,-11.172c-2.79,-2.099 -6.984,-4.186 -13.264,-4.889l-7.686,-1.398l-1.391,-12.567l-2.1,-6.279l-11.17,2.087l-9.077,-7.68c-7.686,5.593 -12.568,12.575 -14.668,19.559c-4.882,-2.797 -10.475,-4.193 -16.053,-4.896l-6.983,0.702l-3.491,9.771l-11.879,5.592c2.796,6.983 6.983,14.662 12.575,21.646c-3.493,4.885 -6.289,11.165 -9.78,19.552Z" style="fill:#ffcdde;fill-rule:nonzero;"/><path d="M138.292,505.098l-4.883,-0.7c-6.983,5.591 -11.873,11.879 -14.662,18.159c-4.193,-2.094 -9.779,-2.789 -14.668,-3.492l-6.983,0l-2.789,2.095l-2.796,9.083l-10.475,4.188c-1.398,0.695 -2.1,2.094 -2.1,3.49l0.702,0.696c2.093,6.981 5.585,13.966 11.177,21.645c-2.796,4.194 -6.288,10.476 -9.084,17.458l0,1.403c0,1.394 0.696,2.79 1.398,2.79l9.772,4.192l0.702,9.773c0,2.789 1.399,3.491 3.492,3.491c6.28,-0.702 13.966,-2.789 23.738,-6.28c6.288,6.28 12.575,11.17 20.254,14.661c1.397,0.695 2.795,0 4.187,-1.397l5.591,-7.686l10.475,0c1.391,0 2.094,-1.392 3.492,-2.789c2.094,-5.585 2.796,-11.178 2.796,-19.552l0,-2.796c6.281,-2.094 13.264,-5.584 18.849,-12.567l1.397,-2.094l-0.702,-2.101l-6.982,-8.375l3.49,-10.476l-1.391,-2.795c-4.889,-3.492 -11.873,-5.585 -20.253,-6.287l-1.391,-11.867l-1.405,-4.889c-0.696,-2.094 -2.087,-2.788 -4.188,-2.788l-9.076,2.086l-7.684,-6.279Zm-37.704,20.247c6.28,-0.695 11.872,1.405 18.16,4.896l2.789,0l2.789,-2.101c1.405,-6.288 5.592,-11.172 11.177,-16.061l6.983,5.585l2.79,0.696l7.685,-1.394l2.79,13.967l0,0.695c0,2.797 0.702,3.492 2.795,3.492c6.288,0 11.873,2.1 16.762,4.187l-2.796,9.084l0,0.696l0.695,2.1l5.593,7.68c-5.593,5.585 -11.171,8.374 -15.364,9.077c-0.703,0 -2.094,0 -2.094,1.396l-0.695,2.093l0,4.891l-2.101,15.356l-9.778,0c-1.392,0 -2.087,0 -2.79,0.702l-4.889,7.687c-6.983,-4.193 -12.569,-8.389 -16.762,-13.271l-4.188,-0.696l-19.55,5.579l-0.703,-8.374l-2.789,-2.795l-7.686,-3.492l8.388,-14.661l0.696,-2.796l-0.696,-2.095c-4.194,-5.585 -8.388,-11.873 -11.177,-18.16l9.077,-4.187l2.1,-1.391l2.789,-8.385Z" style="fill-rule:nonzero;"/><path d="M119.442,564.454c2.797,3.492 5.586,5.585 9.077,6.28c3.492,0.702 6.983,0 10.475,-2.087c3.492,-2.102 4.89,-4.193 6.281,-8.389l0,-2.789l-2.087,-7.685c-2.1,-3.492 -4.896,-4.884 -8.388,-5.579c-4.187,-1.404 -7.679,-0.702 -10.475,1.391c-3.492,2.102 -4.883,4.891 -6.281,8.384c-0.702,4.193 0.001,7.685 1.398,10.474Zm7.68,-13.967l6.288,-1.396c2.093,0.695 3.492,2.101 4.883,3.49c1.404,2.101 2.1,3.491 1.404,6.288l-4.194,5.585l-5.585,0.702l-4.889,-3.491c-1.398,-2.101 -2.094,-4.194 -1.398,-6.288c0.695,-2.101 1.397,-3.491 3.491,-4.89Z" style="fill-rule:nonzero;"/><path d="M136.901,565.852c-0.696,-1.396 -1.398,-2.796 -3.492,-1.396c-1.398,1.396 -2.101,2.093 -1.398,3.492l6.983,13.965c0.703,1.397 2.094,2.094 3.492,0.703c2.094,-0.703 2.79,-2.101 1.398,-3.493l-6.983,-13.271Z" style="fill-rule:nonzero;"/><path d="M162.732,552.581c0,-1.391 -1.391,-2.094 -2.789,-2.094l-16.755,1.397c-1.405,0 -2.796,0.695 -2.796,2.796c0,2.088 1.391,2.789 3.491,2.789l16.06,-1.397c1.398,0 2.789,-0.695 2.789,-3.491Z" style="fill-rule:nonzero;"/><path d="M121.537,563.056l-3.492,1.398l-7.686,8.381c-2.086,1.393 -2.086,2.094 -1.391,4.188c1.391,1.397 2.094,1.397 4.187,0.695l9.084,-10.475c0.695,-1.391 0.695,-2.789 -0.702,-4.187Z" style="fill-rule:nonzero;"/><path d="M110.359,543.505l-4.187,0.702c-0.696,1.391 -0.696,2.79 0.695,4.188l10.475,7.678l4.194,0c0.703,-2.092 0,-3.491 -0.703,-4.188l-10.474,-8.38Z" style="fill-rule:nonzero;"/><path d="M139.696,530.937c-1.404,-0.694 -2.795,0 -2.795,2.095c-0.696,4.192 -2.101,8.382 -4.89,11.872c-0.702,0.694 -0.702,2.796 1.398,3.492c1.391,1.392 2.795,0.695 3.492,-0.696c3.491,-4.896 4.882,-9.083 5.584,-13.965c0,-2.103 -0.702,-2.798 -2.789,-2.798Z" style="fill-rule:nonzero;"/><path d="M81.037,68.661l-9.779,-5.585l-2.094,-11.873l-17.458,2.094l-6.982,2.796c-2.79,-8.381 -7.686,-13.966 -14.668,-18.153l-8.375,5.578l-12.575,-3.492c-2.789,6.983 -4.882,15.372 -4.882,25.144c-5.592,1.397 -11.873,3.492 -20.254,7.685l5.592,11.17l-6.983,9.077c4.188,4.194 11.866,7.685 23.036,11.177c0,9.772 2.101,18.154 5.592,25.137l11.17,-3.492l9.083,8.374c7.679,-4.187 13.264,-9.069 18.153,-16.052c4.883,4.187 12.568,4.882 23.042,4.187l0,-13.271l10.475,-5.585c-0.702,-3.491 -2.789,-8.38 -6.983,-12.568l-4.889,-6.288l9.779,-16.06Z" style="fill:#d96038;fill-rule:nonzero;"/><path d="M72.655,51.202l-3.491,-3.491c-7.685,0 -15.364,0.703 -22.347,3.491c-2.796,-4.193 -5.585,-8.38 -9.779,-11.872l-4.883,-4.187c-0.695,-0.696 -2.1,-0.696 -3.491,0l-7.678,4.187l-11.177,-2.795c-2.093,-0.696 -3.491,0.702 -4.194,2.1c-2.086,6.288 -4.187,13.966 -4.883,23.745c-4.889,1.392 -11.17,4.187 -18.153,7.679l-2.1,2.796l0.695,1.391l4.194,9.083l-5.585,8.374l-0.695,1.398l1.391,3.492c4.187,3.492 11.873,6.983 21.645,10.475c0.703,8.381 2.795,16.755 6.287,23.738c0.696,2.101 2.101,2.101 4.187,2.101l9.083,-2.796l8.375,6.287l3.491,0.696c6.287,-2.796 11.879,-7.678 17.458,-14.661c5.592,2.796 13.271,3.491 21.651,3.491l3.492,-3.491l0,-11.17l9.077,-5.591l1.398,-2.094l0,-1.397c-0.703,-4.883 -4.194,-11.17 -11.177,-17.458l9.083,-14.662l0,-1.397l-2.101,-2.79l-8.374,-4.896l-1.399,-9.776Zm-3.491,15.364l6.983,3.492l-7.685,12.568l-0.695,2.093l0.695,2.796c4.193,3.492 7.685,9.077 10.475,13.967l-7.679,4.187c-1.392,1.397 -2.094,2.1 -2.094,3.491l0,9.779c-7.685,0 -13.966,-1.398 -17.458,-3.492l-3.491,-0.695l-1.398,1.391c-4.188,5.592 -9.076,9.779 -14.662,13.271l-7.678,-6.288l-3.492,-0.695l-7.686,2.796c-2.788,-7.686 -4.193,-14.668 -4.193,-21.652c-0.696,-1.397 -2.086,-2.093 -2.789,-2.79c-6.281,-2.1 -13.264,-4.193 -18.856,-8.387l4.89,-6.984l0.702,-1.391l-0.702,-2.101l-3.492,-7.678c6.281,-2.795 11.872,-4.883 16.059,-5.584c2.101,-0.703 2.797,-2.094 2.797,-3.492c0.695,-7.685 1.391,-14.668 3.492,-20.948l9.779,2.093l2.086,0l6.983,-4.187c5.591,3.492 9.778,9.076 11.177,15.357l2.789,2.101l2.796,0l4.889,-2.796l13.966,-2.094l2.094,8.381l1.398,3.491Z" style="fill-rule:nonzero;"/><path d="M49.613,86.118c0,-3.492 -1.397,-6.983 -4.187,-9.772c-2.101,-2.796 -5.592,-4.194 -9.779,-4.194c-4.187,0 -6.983,1.397 -9.778,4.194c-2.796,2.79 -3.492,6.281 -3.492,9.772c0,3.491 0.695,6.982 3.492,9.077c2.795,2.796 5.591,4.889 9.778,4.889c4.187,0 7.679,-2.093 9.779,-4.889c2.789,-2.094 4.187,-5.586 4.187,-9.077Zm-13.967,8.381c-2.1,0 -4.187,-1.398 -5.591,-2.796c-2.087,-2.093 -2.087,-3.492 -2.087,-5.584c0,-2.094 0,-4.195 2.087,-5.585c1.404,-2.1 3.491,-2.796 6.287,-2.796c1.398,0 3.491,0.696 4.89,2.796c2.093,1.391 2.789,3.491 2.789,5.585l-2.789,5.584c-1.399,1.398 -3.491,2.796 -5.586,2.796Z" style="fill-rule:nonzero;"/><path d="M30.055,93.101c-1.392,0 -2.79,0 -3.492,2.094l-3.492,14.662c0,2.1 0.702,2.795 2.796,3.491l3.491,-2.087l3.492,-14.668c0.001,-2.094 -0.695,-3.492 -2.795,-3.492Z" style="fill-rule:nonzero;"/><path d="M46.817,89.609c0.695,1.398 0.695,2.79 0,4.194l-2.796,0.695l12.575,9.779l3.492,-0.702c0.696,-2.093 0.696,-3.491 -1.398,-4.193l-11.873,-9.773Z" style="fill-rule:nonzero;"/><path d="M22.376,84.72c-0.696,-2.093 -2.094,-2.093 -3.492,-2.093l-11.864,2.093c-1.405,-0.696 -2.796,0 -3.492,2.796c0,1.392 0.696,2.094 2.79,2.796l13.263,-2.101c2.1,-0.695 2.795,-2.093 2.795,-3.491Z" style="fill-rule:nonzero;"/><path d="M26.563,62.379c-0.695,-2.1 -2.086,-2.795 -3.492,-2.1c-2.086,0 -2.086,1.397 -2.086,2.796l2.086,13.271c0.702,2.087 1.405,2.79 3.492,2.79c1.405,-0.703 2.796,-2.094 2.1,-3.492l-2.1,-13.265Z" style="fill-rule:nonzero;"/><path d="M57.292,72.152l-4.187,-0.702c-2.796,2.795 -6.288,4.896 -10.475,5.591c-2.1,1.392 -2.796,2.094 -2.1,3.492c0,2.094 2.1,2.796 3.491,2.094c5.592,-1.398 9.779,-3.491 13.271,-6.983c1.397,-1.399 1.397,-2.79 0,-3.492Z" style="fill-rule:nonzero;"/><path d="M119.442,192.957l-9.083,-4.187l-4.882,-11.873c-4.889,0.703 -10.474,3.492 -15.364,6.983l-7.685,4.194c-2.789,-2.1 -6.281,-4.194 -11.17,-7.686l-6.983,-3.492l-5.585,11.177l-11.873,0.696c0,5.585 1.398,13.271 4.889,23.745c-6.982,6.281 -11.873,13.264 -16.06,20.247l9.077,6.983l-0.703,12.568c7.686,3.492 16.067,4.89 24.441,4.187c0,6.983 3.492,13.27 10.475,20.949l10.474,-7.679l11.177,4.188c2.093,-2.789 3.491,-6.28 4.889,-12.562l2.094,-7.686l18.855,-2.789l-1.397,-11.177l7.686,-7.685c-2.796,-5.579 -7.686,-9.772 -11.88,-13.264l-6.28,-3.491c2.788,-4.194 4.888,-9.772 4.888,-15.364l0,-6.982Z" style="fill:#ffcdde;fill-rule:nonzero;"/><path d="M108.968,175.499c-1.397,-2.094 -2.795,-2.094 -4.889,-2.094c-6.983,1.398 -13.966,5.585 -20.949,10.475l-17.458,-10.475c-2.093,-0.702 -3.492,0 -4.889,2.094l-4.188,9.083l-9.779,0.696c-2.796,0 -3.492,1.392 -3.492,2.796l0,1.391c0,6.288 1.398,14.662 4.89,22.347c-6.983,6.28 -11.873,13.264 -15.364,20.247l-0.696,0.702l1.392,3.492l7.686,5.584l-0.702,10.475c0,1.397 0.702,2.796 2.795,2.796c6.288,3.491 13.271,4.883 22.347,4.883c1.398,6.983 4.89,13.27 10.475,19.558l4.89,0l9.076,-5.592l8.381,3.491l4.882,-1.391c3.491,-4.187 5.592,-10.475 6.983,-18.855l16.762,-2.789c1.397,0 2.796,-1.405 2.796,-3.492l-1.398,-9.778l6.983,-6.983l0.702,-2.1l-0.702,-2.087c-4.194,-7.685 -10.474,-12.575 -16.755,-16.066c2.789,-6.288 4.882,-12.568 4.882,-18.153l-0.696,-3.492l-1.397,-2.796l-9.077,-2.795l-3.491,-11.172Zm-2.1,14.662l2.101,2.1l7.678,2.796l0,0.696c0,6.288 -2.092,12.568 -5.584,17.458l0,3.492l2.092,2.093l4.89,2.789l10.474,9.779l-6.28,6.288c-0.703,0 -0.703,1.391 -0.703,2.093l0,0.703l0.703,8.374l-14.668,1.398c-2.094,0 -3.492,0.703 -3.492,2.79c-0.703,6.983 -2.789,12.574 -5.585,16.761l-8.381,-3.491l-2.789,0.696l-7.686,5.592c-4.89,-5.592 -7.685,-11.17 -7.685,-16.066l-1.392,-2.79l-2.795,-0.702c-6.288,0.702 -13.271,-0.696 -19.551,-2.79l0,-10.474l-0.703,-2.789l-6.982,-4.194c3.491,-6.983 9.083,-12.568 13.966,-17.458l0.702,-2.79l0,-0.702c-2.789,-9.772 -4.194,-16.06 -4.194,-20.247l7.686,-0.703l3.491,-1.398l3.492,-7.679l14.669,9.077l4.187,0l5.584,-3.492l13.264,-6.28l3.491,9.07Z" style="fill-rule:nonzero;"/><path d="M95.003,218.092c-1.399,-2.789 -4.187,-5.578 -8.381,-6.28l-10.475,0.702c-2.789,2.086 -4.889,4.883 -5.585,9.07c-1.398,3.492 -1.398,6.983 1.392,10.475c1.404,3.491 4.193,4.896 7.685,5.592l10.474,-0.695c3.491,-1.406 5.585,-4.194 6.983,-8.388c0.702,-3.492 0,-6.984 -2.093,-10.476Zm-4.89,2.797l1.398,4.187c0,2.795 -1.398,4.896 -3.492,6.983l-6.288,0.702l-5.585,-3.491c-0.702,-2.094 -0.702,-4.194 -0.702,-6.983l4.194,-4.194l6.28,-1.391l4.195,4.187Z" style="fill-rule:nonzero;"/><path d="M76.147,225.778c-0.702,-1.397 -2.093,-2.094 -3.492,-0.703l-13.966,5.592c-1.398,1.391 -2.094,2.093 -1.398,4.187c0.696,1.398 1.398,2.101 3.492,1.398l13.966,-6.281c1.398,-0.701 2.796,-2.1 1.398,-4.193Z" style="fill-rule:nonzero;"/><path d="M88.715,236.956c0,-1.406 -1.391,-2.796 -2.796,-2.796c-2.086,0 -2.789,1.391 -2.789,2.796l0,16.052c0,1.405 1.398,2.796 2.789,2.796c2.101,0 2.796,-1.391 2.796,-2.796l0,-16.052Z" style="fill-rule:nonzero;"/><path d="M68.462,202.04c-1.392,-0.702 -2.79,-0.702 -4.187,0c-0.696,1.391 -0.696,2.789 0,3.492l9.779,9.772l3.491,-0.703c1.392,-1.391 1.392,-2.789 0,-3.491l-9.083,-9.07Z" style="fill-rule:nonzero;"/><path d="M97.798,200.635l-4.194,0l-8.38,9.779c-0.695,1.398 -0.695,2.796 0,4.187l4.187,0l9.083,-10.474c0.696,-1.392 0.696,-2.789 -0.696,-3.492Z" style="fill-rule:nonzero;"/><path d="M95.698,225.778c-0.695,-0.703 -2.094,-0.703 -4.187,0.702c-0.695,2.087 0,2.79 1.391,4.188l4.194,2.796l9.077,2.789c2.1,0.703 2.795,0 2.795,-2.094c0.696,-1.398 0,-2.796 -1.397,-3.491l-8.381,-2.101l-3.492,-2.789Z" style="fill-rule:nonzero;"/><path d="M268.182,364.736c0,5.591 1.396,13.965 4.889,24.439c-6.982,5.592 -11.872,12.574 -16.067,19.559l9.085,6.982l-0.695,12.567c7.678,3.492 16.053,4.889 23.737,4.192c0.702,6.281 4.194,13.266 11.177,20.248l10.476,-7.686l10.474,4.896c2.79,-2.797 4.188,-6.982 6.281,-13.271l0.702,-7.679l19.545,-1.405l-2.087,-11.865l8.374,-8.382l-11.866,-12.567l-6.983,-3.492c5.579,-7.678 6.983,-15.362 6.281,-22.346l-9.771,-4.193l-4.896,-12.563c-4.884,2.087 -9.772,4.188 -16.053,6.983l-6.983,4.883c-2.796,-2.094 -6.286,-4.883 -11.177,-7.68l-6.982,-3.49l-5.584,10.475l-11.877,1.395Z" style="fill:#ffcdde;fill-rule:nonzero;"/><path d="M264.688,364.04l0,1.397c0,5.586 1.398,13.264 4.194,22.349c-6.288,6.284 -11.176,12.567 -14.669,19.55l-0.702,1.398l1.405,2.795l7.678,5.578l-0.695,11.178c0,1.397 0.695,2.789 2.789,2.789c6.983,3.492 13.967,4.896 21.652,4.896c2.085,6.982 5.578,12.562 11.169,19.544l4.883,0l8.389,-6.279l9.771,4.191l3.491,-1.403c3.491,-3.491 5.584,-9.771 7.686,-19.546l11.17,-0.7l5.585,-1.398l2.79,-2.796l0,-1.391l-2.088,-9.085l6.982,-6.982l1.393,-2.789l-0.694,-2.093c-4.188,-6.983 -10.476,-11.873 -16.764,-16.065c2.796,-6.281 4.891,-12.563 4.891,-17.459l0,-3.492l-2.79,-2.789l-7.686,-3.489l-4.891,-10.476c-1.391,-2.789 -2.093,-3.492 -4.186,-2.094c-5.594,1.393 -13.271,4.883 -21.646,10.475c-2.796,-2.101 -6.287,-4.89 -10.475,-6.982l-6.981,-3.491c-1.405,-0.696 -3.493,0 -4.194,2.093l-4.194,8.381l-9.771,1.393c-2.787,-0.004 -3.492,0.699 -3.492,2.792Zm4.195,48.882l-6.982,-4.883l13.966,-16.764l0.696,-2.1l0,-2.088c-2.103,-6.287 -4.188,-13.27 -4.891,-19.559l8.381,-0.694l2.795,-1.397l4.188,-7.686l14.661,9.083c1.396,1.392 2.101,1.392 4.188,0l5.592,-4.188l13.271,-5.59l3.491,9.082l2.087,2.086l7.686,2.797l0,0.695c0,6.287 -2.094,11.879 -5.585,17.458l-0.694,2.101l0,1.392l2.789,1.403l4.89,3.492l9.778,9.771l-5.594,6.281l-1.391,2.101l1.391,8.374l-14.661,1.403c-2.1,0 -3.489,0.697 -4.187,3.493c0,6.982 -2.101,12.562 -4.193,16.053l-9.076,-2.789l-3.491,0.702l-7.68,5.578c-4.896,-6.982 -6.981,-11.865 -7.686,-16.055l-0.701,-2.795c-1.394,-0.694 -2.088,-0.694 -2.79,-0.694l-20.246,-3.493l0.695,-9.777l-0.697,-2.793Z" style="fill-rule:nonzero;"/><path d="M307.984,387.089l-10.476,1.394c-3.491,2.1 -4.89,5.59 -5.591,8.379c-1.393,4.195 -1.393,7.687 0.701,10.476c2.789,3.492 4.89,5.586 8.381,6.281l10.475,-1.392c2.795,-1.397 5.584,-4.188 6.288,-7.68c1.392,-4.193 0.695,-7.686 -0.704,-10.477c-2.09,-3.489 -4.887,-6.284 -9.074,-6.981Zm-7.678,6.281l6.983,-0.702l4.187,3.492l1.393,4.896c0,2.789 -1.393,5.577 -4.188,6.982l-5.586,0l-5.584,-3.492c-0.693,-1.402 -1.398,-3.49 -0.693,-6.287l3.488,-4.889Z" style="fill-rule:nonzero;"/><path d="M296.814,401.751c0,-1.397 -1.405,-2.101 -3.491,-0.694l-13.966,5.577c-0.703,0.702 -1.406,2.101 -0.703,3.491c0.703,2.102 1.397,2.797 3.49,1.404l13.967,-6.286c1.399,-0.696 2.094,-1.397 0.703,-3.492Z" style="fill-rule:nonzero;"/><path d="M310.077,412.227c0,-1.397 -1.397,-2.102 -2.788,-2.102c-2.102,0 -3.492,0.703 -3.492,2.102l0.696,16.763c0,2.086 1.391,2.789 2.796,2.789c2.086,0 2.788,-0.703 2.788,-2.789l0,-16.763Z" style="fill-rule:nonzero;"/><path d="M289.831,378.701c-0.702,-2.086 -2.101,-2.788 -3.49,-1.391c-1.405,1.391 -2.101,2.094 -1.405,3.49l10.475,9.779l3.491,0c1.404,-1.404 1.404,-2.795 0,-4.194l-9.071,-7.684Z" style="fill-rule:nonzero;"/><path d="M319.154,375.913l-4.188,0l-8.382,10.474c-1.397,0.702 -1.397,2.79 0,4.194l4.194,-0.702l9.068,-9.771c0.707,-1.407 0.707,-2.797 -0.692,-4.195Z" style="fill-rule:nonzero;"/><path d="M317.06,401.751l-3.489,0.696c-1.398,2.1 -1.398,2.796 0.701,4.187l3.492,2.101l9.771,3.492l3.492,-2.102c0,-2.086 -0.703,-2.789 -2.79,-3.491l-7.686,-2.087l-3.491,-2.796Z" style="fill-rule:nonzero;"/><path d="M163.435,70.058l4.889,-11.873l-15.364,-4.193l-9.077,-1.391l-6.287,-17.458l-4.187,-6.983l-10.475,5.585l-10.474,-5.585c-4.187,2.796 -7.679,6.983 -10.474,12.568l-3.492,6.281l-15.364,-1.391l-8.381,2.094l2.101,11.873l-9.083,8.374c2.099,5.591 7.678,10.475 15.363,16.066c-3.491,4.883 -5.585,10.475 -6.983,17.458l11.177,3.491l4.187,11.17c9.077,-0.696 17.457,-4.187 22.34,-9.077c4.194,6.983 10.475,12.568 18.16,15.364l6.983,-6.983l13.264,0.696l0.702,-17.458l-0.702,-7.679l18.16,-11.872l-6.983,-9.077Z" style="fill:#d96038;fill-rule:nonzero;"/><path d="M146.679,49.109l-6.287,-16.066l-4.188,-6.281c-0.702,-2.093 -2.795,-2.093 -4.194,-1.398l-9.077,4.89l-9.083,-5.585l-3.492,0c-5.578,4.883 -10.475,10.475 -13.966,18.153l-14.66,0l-7.678,1.398c-2.1,0 -2.796,1.398 -2.796,3.492l1.397,11.176l-6.983,6.281l-1.397,2.789l0.695,1.404c1.404,4.883 6.288,9.773 13.966,15.357c-2.79,4.89 -4.883,10.475 -6.281,16.066l0,0.697c0,2.093 1.398,2.795 2.79,3.491l9.083,2.796l3.491,9.772c0.696,1.398 2.093,2.093 3.492,2.093c8.374,-0.695 15.356,-3.491 21.644,-7.678c4.89,6.288 11.171,10.475 17.458,13.271l2.796,-0.703l6.983,-5.585l11.866,0.695c2.1,0 3.492,-0.695 3.492,-2.796l0.702,-11.866l0,-11.871l16.755,-11.177l0.703,-2.788l0,-2.094l-6.281,-8.38l4.187,-9.077l0,-1.399l-1.398,-2.788c-5.585,-2.797 -13.264,-4.196 -23.739,-6.289Zm-6.287,4.187l3.491,2.796c6.983,0 13.271,2.093 19.552,4.187l-3.492,8.381l0,1.397l0.702,2.094l5.578,6.281l-15.357,9.083c-1.398,0 -2.1,1.392 -2.1,3.492l0.702,13.966l0,6.983l-9.772,0l-2.795,0l-5.592,5.585c-6.28,-2.094 -11.17,-6.983 -13.966,-12.568l-2.788,-1.398c-0.703,0 -2.094,0 -3.492,0.702c-4.195,4.188 -10.475,6.281 -17.458,7.679l-2.788,-8.381l-2.101,-2.093l-7.679,-2.796c0.695,-4.883 2.796,-9.077 5.585,-13.271l0,-1.391l-1.398,-3.491c-5.585,-3.492 -9.779,-7.679 -12.568,-11.872l6.281,-5.585l1.405,-3.491l-1.405,-9.779c7.685,-1.391 13.965,-1.391 18.16,0l2.094,0l2.1,-1.391l2.789,-5.592c2.789,-4.187 5.585,-7.679 8.381,-11.171l9.077,5.585l3.492,0l6.982,-4.193c3.49,5.591 6.982,12.574 8.38,20.252Z" style="fill-rule:nonzero;"/><path d="M114.554,62.379c-3.492,0.696 -6.281,2.79 -8.381,6.281c-2.094,2.789 -2.796,6.28 -2.094,9.772c0.702,4.194 2.789,6.287 5.585,9.083l10.474,2.094c4.188,-0.702 6.288,-2.789 8.381,-5.585c2.79,-3.491 3.492,-6.983 2.79,-10.475c-1.391,-4.187 -2.79,-6.983 -6.28,-9.083c-2.79,-2.087 -6.281,-2.789 -10.475,-2.087Zm7.685,6.282c2.086,1.397 2.789,3.491 2.789,5.584l-0.703,6.288l-4.883,3.491c-2.796,0 -4.888,0 -6.982,-1.397c-2.101,-2.094 -3.492,-3.491 -3.492,-6.983l2.094,-4.194c0.702,-1.392 2.789,-2.789 4.889,-3.492l6.288,0.703Z" style="fill-rule:nonzero;"/><path d="M122.239,47.009c-1.405,0 -2.797,0.703 -2.797,2.796l-0.695,15.364l2.789,2.789c1.397,0 2.789,-1.392 2.789,-2.789l0.703,-15.364c0,-2.094 -0.702,-2.796 -2.789,-2.796Z" style="fill-rule:nonzero;"/><path d="M93.604,61.677c-0.702,0 -2.093,0 -3.491,1.398c-0.702,2.094 0,3.491 1.398,4.187l13.966,6.287c-1.398,-0.695 -1.398,-1.397 0,-3.491c0,-1.397 1.391,-1.397 2.796,-1.397l-14.669,-6.984Z" style="fill-rule:nonzero;"/><path d="M148.767,67.958c-0.696,-1.392 -2.087,-2.789 -3.492,-1.392l-12.561,4.188c-1.405,0 -2.101,1.398 -1.405,3.491c0.702,1.398 2.101,2.796 3.492,1.398l11.879,-3.492c2.087,-1.397 2.788,-2.093 2.087,-4.193Z" style="fill-rule:nonzero;"/><path d="M131.309,82.626c0,-1.398 -1.391,-2.094 -3.492,-1.398c-1.391,1.398 -2.789,2.101 -1.391,3.492l4.883,12.575c0.702,1.392 2.101,2.087 3.492,1.392l2.101,-3.491l-5.593,-12.57Z" style="fill-rule:nonzero;"/><path d="M113.851,81.228c-0.696,-1.391 -2.086,-2.093 -3.492,-0.695c-4.882,2.094 -8.374,5.585 -11.865,9.077c-1.398,2.093 -0.696,3.491 0.696,4.194l4.187,-0.703c2.101,-2.789 5.592,-5.585 9.083,-7.686c2.094,-0.695 2.094,-2.086 1.391,-4.187Z" style="fill-rule:nonzero;"/><path d="M339.408,325.633c-3.492,-2.795 -8.381,-5.585 -14.662,-8.374l-7.688,-2.796l-0.7,-13.965l-2.089,-7.68l-11.177,2.79l-7.685,-9.771c-5.578,3.491 -10.475,9.771 -16.053,19.544l-18.862,-2.085l-7.679,0.694l0.695,12.567l-10.475,6.982c1.404,7.686 4.896,14.668 11.177,20.947c-5.585,3.492 -9.076,10.477 -9.771,20.949l11.865,3.494l2.795,11.176c6.289,0.694 13.271,-1.405 20.949,-6.983l13.271,13.966l7.678,-7.686l11.866,1.397c2.101,-5.592 3.491,-11.87 2.796,-17.456l-1.394,-7.68c9.071,0 16.758,-3.492 21.646,-8.389l-2.796,-10.475l6.293,-11.166Z" style="fill:#d96038;fill-rule:nonzero;"/><path d="M317.06,290.023l-2.788,-0.696l-10.475,2.087l-6.287,-6.983l-4.187,-1.392c-5.593,4.188 -10.476,9.778 -16.067,18.848l-17.457,-2.085l-7.679,0.695c-1.397,0.694 -2.796,2.093 -2.796,3.491l0,9.777l-8.374,6.28c-0.702,0.702 -1.403,1.397 -1.403,3.492c1.403,6.983 4.896,13.967 9.777,20.948c-4.883,4.891 -7.68,11.873 -8.374,20.949c0,1.397 0,2.789 2.087,3.492l10.475,2.788l2.102,9.779l3.49,2.101c5.586,0.695 11.865,-0.703 20.254,-5.593l11.865,12.575l4.89,-0.702l6.981,-6.983l9.773,1.398l3.491,-2.1l2.796,-16.758l-0.695,-6.981c8.374,-0.702 14.661,-4.194 20.254,-9.076l0.695,-2.103l0,-1.391l-2.103,-8.38l5.593,-10.476l0,-1.398l-0.695,-2.795c-6.287,-4.884 -13.271,-8.375 -21.65,-10.475l-0.703,-13.26l-2.086,-6.981l-0.704,-2.092Zm-39.109,18.848c1.406,0 2.796,0 4.193,-2.086c4.891,-7.686 9.076,-12.575 12.568,-15.371l5.592,6.288l3.491,1.397l7.679,-2.095l2.095,15.356l0,2.101c0,2.095 0.7,2.796 2.789,3.491l5.591,2.094c5.586,2.096 9.779,4.194 13.271,6.982l-4.896,7.688l-0.696,2.086l0,0.703l2.102,8.381c-4.896,4.188 -11.177,6.286 -17.459,6.286l-2.795,2.087l-0.694,1.405l0,1.392l1.391,8.381l-1.391,11.178l-9.084,-0.702c-1.392,0 -2.094,0 -2.796,0.702l-5.577,6.279l-10.477,-11.177c-0.701,-2.087 -2.795,-2.087 -4.193,-1.392c-6.279,3.492 -11.178,5.586 -16.754,6.288l-2.102,-8.39l-2.092,-2.789l-9.773,-2.789c2.086,-7.685 4.188,-13.27 7.68,-15.371l2.095,-2.789l-1.399,-2.787c-4.883,-4.896 -7.679,-10.477 -9.076,-17.458l7.687,-4.896l2.085,-2.789l-0.693,-9.078l21.638,1.394Z" style="fill-rule:nonzero;"/><path d="M291.919,326.329l-10.476,0.702c-2.789,2.094 -5.578,4.89 -6.281,8.382c-0.702,4.187 0,7.679 1.398,10.474c2.094,3.492 4.883,5.586 8.375,6.287l10.474,-0.701c3.491,-2.094 4.896,-4.195 6.287,-8.381c1.396,-4.188 0.695,-7.679 -1.392,-10.476c-1.404,-2.796 -4.193,-5.585 -8.385,-6.287Zm-7.679,5.592l6.285,-0.696l4.884,4.188c1.405,2.094 1.405,3.489 1.405,6.287l-4.194,4.882l-6.279,0.695c-2.101,-0.695 -3.493,-2.086 -4.897,-3.49l-1.391,-4.885c0,-2.795 1.39,-4.888 4.187,-6.981Z" style="fill-rule:nonzero;"/><path d="M282.848,331.921c0.694,-1.397 0.694,-2.796 -0.701,-3.491l-13.264,-6.982c-2.102,-1.398 -3.49,-0.696 -4.193,1.392c-0.703,1.404 -0.703,2.795 0.703,3.491l13.965,6.982c1.389,0.701 2.788,0.701 3.49,-1.392Z" style="fill-rule:nonzero;"/><path d="M267.477,359.157l1.406,-0.702l12.561,-9.076c-1.391,0 -2.086,0 -3.491,-1.398c-1.39,-0.703 -1.39,-2.789 0.702,-3.491l-13.262,9.772c-0.703,1.404 -0.703,2.797 0,4.193c0,0 0.694,0.702 2.084,0.702Z" style="fill-rule:nonzero;"/><path d="M296.111,308.871c-2.094,-1.393 -2.788,-0.696 -4.192,0.703c-1.394,2.789 -1.394,6.982 -1.394,13.966c0,2.093 0.695,3.491 2.798,3.491c2.086,0 2.788,-1.398 2.788,-3.491c0,-5.586 0.703,-9.772 0.703,-11.177c1.391,-2.088 0.696,-3.492 -0.703,-3.492Z" style="fill-rule:nonzero;"/><path d="M300.306,329.82c-1.404,0 -2.796,0.703 -2.796,2.796l1.392,2.102l1.404,0.695l13.265,1.392l3.489,-2.791c0,-2.093 -1.396,-2.789 -2.788,-3.49l-13.966,-0.704Z" style="fill-rule:nonzero;"/><path d="M294.714,347.98c0,-2.094 -1.391,-2.789 -2.795,-2.789c-2.088,0 -2.79,0.695 -2.79,2.789l0.702,4.89l2.789,9.778c0.702,2.088 2.094,2.088 4.194,0.695c1.391,-0.695 2.086,-1.396 0.694,-3.492c-0.694,-2.1 -1.397,-4.889 -2.101,-7.679l-0.693,-4.192Z" style="fill-rule:nonzero;"/><path d="M248.629,500.903l-8.381,1.405l-7.686,-11.88l-4.883,-5.578l-9.082,7.68l-11.172,-4.187c-2.093,5.575 -4.188,13.965 -4.883,24.439c-5.593,2.087 -11.177,4.882 -16.762,7.679l-6.288,4.187l6.288,10.476l-5.592,11.17c4.896,5.592 11.177,10.477 19.558,12.575c-2.103,6.981 -1.397,13.966 2.093,23.745l11.873,-2.795l9.076,8.374c4.891,-2.79 9.773,-7.68 14.669,-16.055c5.578,2.789 11.17,4.188 17.458,5.578l3.491,-11.171l10.475,-4.187c-0.702,-6.288 -2.796,-11.17 -6.288,-16.764l-4.187,-5.585c4.883,-2.789 9.067,-6.981 11.17,-11.871l2.796,-6.982l-6.982,-6.983l0,-13.271c-4.193,-0.694 -10.473,-0.694 -16.761,0.001Z" style="fill:#d96038;fill-rule:nonzero;"/><path d="M217.9,488.345l-9.076,-3.493c-2.789,0 -3.49,0 -4.194,2.087c-2.086,3.491 -3.489,10.476 -5.578,23.745c-4.896,2.102 -9.778,4.188 -15.371,7.68l-6.28,4.193l-1.398,2.093l0.695,2.102l4.194,8.374l-4.194,9.778l0,1.392l0.703,2.101c4.889,5.587 11.176,10.476 18.855,13.271l-1.398,4.882c0,6.288 1.398,11.873 3.494,17.458c1.396,1.398 2.789,2.101 4.192,2.101l10.476,-2.796l6.981,6.983c0.694,1.391 2.789,2.093 3.492,1.391c5.577,-2.788 10.475,-6.982 14.661,-15.356l16.763,4.884l3.491,-2.79l2.789,-9.076l9.074,-3.492l2.103,-3.49c-0.702,-9.084 -4.192,-16.066 -9.083,-21.646l9.777,-11.879l2.797,-6.28l0,-1.397l-0.703,-2.095l-6.279,-6.279l0,-11.881c0,-2.085 -0.701,-3.49 -2.796,-3.49l-24.44,1.405l-6.982,-10.475l-4.188,-6.288l-4.896,0l-7.681,6.283Zm-0.695,7.677l3.49,-0.695l6.289,-5.592c4.884,5.592 8.373,10.473 10.475,13.965c0,2.101 2.088,2.795 3.491,2.101l6.983,-0.703l13.965,-0.7l0,9.777l0.695,2.102l6.288,6.28c-2.796,6.28 -6.983,11.178 -11.881,14.667l-2.085,2.087l0,0.702l1.391,2.096l3.491,5.591c2.101,3.492 4.187,7.679 5.593,12.562l-8.39,2.796l-2.085,2.796l-2.102,7.68l-13.965,-4.188c-1.393,-1.396 -3.492,-1.396 -4.884,0.695c-2.796,6.287 -6.983,10.476 -11.178,13.271l-6.28,-6.288l-3.49,-0.695l-9.084,2.094c-1.392,-4.192 -2.095,-8.381 -2.095,-11.873c0,-2.093 0,-4.187 0.703,-5.584l0.694,-2.094l-0.694,-1.398l-1.403,-1.397c-6.283,-2.796 -11.867,-6.286 -16.758,-11.17l4.194,-7.68l0.694,-2.1l-1.396,-1.391l-3.492,-7.688c6.281,-4.889 12.568,-7.685 18.855,-9.771l2.797,-3.491c0.695,-8.388 2.087,-15.371 3.49,-19.561l7.684,2.797Z" style="fill-rule:nonzero;"/><path d="M234.663,526.75l-10.476,-2.102c-4.188,1.397 -6.982,3.492 -8.381,6.288c-1.397,2.797 -2.094,4.884 -2.094,6.981l0,3.493c1.393,3.49 3.491,6.981 6.287,8.374l10.477,2.1l9.069,-6.982c1.403,-2.795 2.099,-6.287 1.403,-10.475c-0.7,-3.49 -3.489,-6.285 -6.285,-7.677Zm-14.662,13.966c-0.701,-2.797 -0.701,-4.896 0.694,-6.981l4.885,-3.492l6.288,0.694c2.1,1.392 2.795,2.798 3.489,4.885c0.695,2.795 0.695,4.896 -0.694,6.287c-0.695,2.1 -2.795,3.489 -4.89,4.187l-6.28,-1.392c-2.1,-0.697 -3.492,-2.797 -3.492,-4.188Z" style="fill-rule:nonzero;"/><path d="M219.3,534.429c0,-1.397 -0.702,-2.797 -2.79,-2.797l-15.369,0.695c-1.393,0 -2.789,1.406 -2.789,2.797c0,2.1 1.396,2.795 2.789,2.795l15.369,-0.695c2.088,0 2.79,-0.703 2.79,-2.795Z" style="fill-rule:nonzero;"/><path d="M220.695,547.698l-5.59,14.662c-1.393,2.094 0,3.49 1.403,3.49c2.089,0.695 2.79,0 3.491,-1.396l6.281,-15.363c-0.702,2.101 -2.094,2.795 -3.492,2.101c-2.093,-0.705 -2.093,-2.101 -2.093,-3.494Z" style="fill-rule:nonzero;"/><path d="M222.088,509.987c0,-2.101 -1.393,-2.796 -3.49,-2.796c-2.088,0.695 -2.088,2.102 -2.088,3.491l2.79,6.982l2.788,5.592c0.702,2.087 1.405,2.087 3.492,1.392c1.404,-1.392 1.404,-2.093 1.404,-4.187l-4.896,-10.474Z" style="fill-rule:nonzero;"/><path d="M250.02,519.768c-1.391,-2.102 -2.086,-2.798 -4.186,-1.404l-11.866,5.591c-1.403,0.695 -2.1,2.094 -1.403,3.492c0.701,2.094 1.403,2.796 3.49,1.392l11.879,-5.579c2.086,-0.703 2.086,-2.102 2.086,-3.492Z" style="fill-rule:nonzero;"/><path d="M237.459,542.107c-0.702,-0.695 -2.796,-1.393 -3.491,-0.695c-2.1,0.695 -2.796,2.795 -1.403,3.49l2.795,4.188l7.679,6.981c1.405,1.397 2.101,1.397 3.491,-0.695c1.404,-1.396 1.404,-2.796 -0.694,-3.491l-5.586,-6.288l-2.791,-3.49Z" style="fill-rule:nonzero;"/><path d="M247.934,450.633l-7.686,2.795l2.789,12.563l-8.374,8.388c2.796,4.882 8.374,9.069 16.762,13.967c-2.796,5.575 -4.192,11.863 -4.896,18.15l11.178,2.798l4.889,10.475c9.778,-2.102 16.762,-5.593 21.646,-11.178c5.591,7.687 11.87,11.873 19.557,13.264l6.983,-7.679l13.264,0c0.702,-4.882 0,-10.475 -0.702,-16.762l-2.088,-8.373l17.459,-13.271l-8.389,-9.077l3.492,-11.177l-15.357,-3.491l-9.084,0l-8.374,-16.756l-4.186,-6.279l-10.476,6.279l-10.476,-5.585c-6.287,6.288 -10.475,13.271 -13.271,20.949c-3.49,-1.398 -8.38,-1.398 -14.66,0Z" style="fill:#d96038;fill-rule:nonzero;"/><path d="M260.494,446.445l-14.66,1.391l-7.68,2.103c-0.695,0.694 -1.397,2.086 -1.397,3.489l0,0.696l2.79,10.475l-6.982,6.982l-1.393,2.797l0.696,1.392c2.1,4.187 7.679,9.082 15.362,13.967c-2.094,5.592 -3.492,11.168 -4.193,16.064l0,0.694c0,1.393 1.404,2.798 2.797,3.492l9.083,2.797l4.187,8.374c0.695,2.1 2.095,2.1 3.492,2.1c9.076,-1.403 16.059,-4.896 21.646,-9.778c5.591,6.288 11.87,9.778 18.854,11.865c0.703,0 2.096,0 2.79,-1.392l6.287,-6.287l11.873,0l3.491,-3.491l0,-4.882l-2.789,-18.863l10.474,-7.678l5.579,-4.883l1.404,-2.101l-0.702,-2.797l-6.982,-6.981l2.788,-9.069l0,-1.405c0,-2.088 -0.694,-2.789 -2.087,-3.491l-23.744,-3.491l-7.679,-16.054l-4.896,-6.286l-4.188,-0.697l-8.373,5.579l-9.779,-4.188l-3.492,0.695c-4.889,4.896 -9.087,11.879 -12.577,18.862Zm4.194,6.983l1.398,-2.1c2.796,-6.287 5.585,-11.866 9.778,-16.762l9.771,3.49l2.789,0l7.686,-4.884c4.194,6.983 7.687,13.271 9.772,19.553l3.491,2.789l20.253,2.102l-2.795,8.374l0,0.701l1.404,2.79l5.579,5.592l-13.968,10.474c-1.391,0.696 -2.086,1.392 -2.086,3.493l0,0.695l1.392,6.287l1.397,13.271l0,1.391l-9.771,0l-2.796,1.397l-5.593,5.585c-6.28,-1.391 -11.171,-5.585 -15.356,-11.171l-2.1,-1.397c-1.395,0 -2.089,0.703 -2.791,0.703c-4.193,4.883 -10.474,7.679 -17.457,9.772l-3.49,-7.687l-2.789,-2.087l-7.687,-2.101c0.702,-6.287 2.789,-11.17 4.194,-13.965l0,-1.392l-1.405,-3.493c-6.28,-2.795 -10.475,-6.286 -13.965,-10.474l5.591,-6.287l1.393,-2.101l0,-1.393l-2.088,-9.083c6.982,-2.789 13.266,-3.492 17.457,-2.088l2.791,0l0,0.006l0.001,0Z" style="fill-rule:nonzero;"/><path d="M271.672,477.869l0.702,3.492c0,3.489 2.788,6.982 6.28,8.374l10.475,0.693c3.491,-0.693 6.28,-2.788 7.688,-6.278c2.085,-2.789 2.787,-6.281 1.39,-10.477c-1.39,-4.192 -3.491,-6.279 -6.286,-8.38l-10.477,-1.393c-3.491,1.393 -6.28,3.492 -8.373,6.982c-0.697,2.091 -1.399,4.191 -1.399,6.987Zm15.363,7.678l-5.592,-0.695l-4.188,-4.896c-0.694,-2.086 -0.694,-4.187 0.695,-6.28c1.405,-2.094 2.796,-3.49 4.896,-4.192l6.281,0.702l4.193,4.89c0,2.796 0,4.882 -0.702,6.288l-5.583,4.183Z" style="fill-rule:nonzero;"/><path d="M289.831,450.633c0,-1.396 -0.702,-2.101 -2.796,-2.101c-1.398,0 -2.1,1.404 -2.1,2.796l0.7,14.662c0,2.101 0.704,3.491 2.789,3.491c1.405,0 2.101,-1.392 2.101,-3.491l-0.694,-15.357Z" style="fill-rule:nonzero;"/><path d="M260.494,465.99c-2.086,-0.695 -2.787,0 -3.492,1.404c-0.693,2.087 0,2.789 1.406,3.49l15.355,5.579c-1.391,0 -2.093,-2.087 -1.391,-3.492c0,-1.392 1.391,-2.087 2.788,-2.087l-14.666,-4.894Z" style="fill-rule:nonzero;"/><path d="M314.968,467.396c0,-1.404 -0.696,-2.797 -2.797,-2.101c-4.187,0.695 -8.374,2.796 -12.567,5.591c-2.094,1.393 -2.094,2.087 -0.702,3.492c0.702,2.087 1.404,2.087 3.491,1.392l10.476,-4.884c2.099,0 2.794,-1.405 2.099,-3.49Z" style="fill-rule:nonzero;"/><path d="M299.604,483.447c-0.702,-2.086 -2.094,-2.086 -3.492,-1.392c-2.092,0.695 -2.092,1.392 -1.396,3.49l5.592,11.866c1.392,1.405 2.788,2.101 4.188,1.405c2.093,-0.704 2.093,-2.101 1.391,-3.491l-6.283,-11.878Z" style="fill-rule:nonzero;"/><path d="M268.883,497.413l3.491,-1.391l5.577,-5.594l3.492,-2.788c1.404,-0.704 1.404,-2.79 0.701,-4.193l-4.193,-0.695l-3.491,2.795l-6.983,7.678c-1.39,2.102 -0.696,2.797 1.406,4.188Z" style="fill-rule:nonzero;"/><path d="M41.232,149.667l6.983,9.07l-4.195,11.88c6.288,5.578 13.967,9.069 21.652,10.474c-1.397,6.28 0,13.966 4.89,23.036l11.866,-4.882l9.083,7.678c4.882,-2.796 9.077,-9.076 12.568,-18.153l18.855,3.491l2.094,-11.17l9.772,-5.592c-1.391,-5.585 -4.187,-11.17 -8.375,-16.06l-4.889,-4.89c6.982,-5.584 10.474,-12.567 11.873,-19.551l-8.381,-6.983l-0.703,-12.568l-16.755,2.094l-9.077,2.093l-8.381,-10.474l-5.584,-5.585l-8.381,9.077l-11.177,-2.795c-2.087,5.591 -2.79,13.965 -2.087,25.142c-8.387,3.491 -16.066,8.38 -21.651,14.668Z" style="fill:#d96038;fill-rule:nonzero;"/><path d="M136.901,134.999l-1.398,-3.491l-6.983,-5.585l-0.702,-11.17c-0.695,-2.101 -2.086,-2.796 -3.491,-2.796c-6.281,-0.696 -13.966,0.695 -23.738,3.491l-9.077,-9.778l-4.89,-4.187l-4.89,0l-6.287,6.982l-9.772,-2.101c-2.093,-0.695 -3.492,0.703 -4.193,2.101c-1.392,4.187 -2.79,10.475 -2.79,19.551l0,4.89c-7.686,3.491 -14.669,9.076 -19.551,13.965l-1.397,2.796l0.702,2.087l5.578,7.685l-3.491,9.772l0,1.405l1.404,2.789c5.578,4.89 12.562,8.381 20.247,10.475l0,1.398c0,6.288 1.398,13.271 5.586,20.254c0.695,2.086 1.397,2.086 4.187,2.086l9.778,-4.187l7.679,6.288l4.193,0c4.89,-2.796 8.382,-8.381 12.569,-16.066l16.761,2.1l3.492,-2.796l1.391,-9.077l9.084,-5.584l1.391,-2.796l0,-0.695c-2.79,-8.382 -6.281,-15.364 -11.866,-20.254c5.584,-5.586 9.075,-12.569 10.474,-19.552Zm-85.195,23.738l-0.702,-2.087l-4.883,-6.288c5.585,-5.591 11.866,-9.778 18.154,-12.575l2.1,-2.789l-0.702,-6.983l2.094,-13.966l7.678,1.398l3.492,0l5.592,-6.983l11.865,13.271c0.703,1.391 2.101,2.086 4.195,1.391l6.28,-2.093l13.966,-2.094l0.703,9.076c0,1.398 0.703,2.094 1.397,2.789l6.983,5.592c-1.398,5.585 -4.889,11.17 -10.475,16.06l-1.397,2.093l1.397,2.796l4.188,4.188l6.983,12.574l-7.679,3.492l-1.397,2.789l-1.398,8.381l-14.661,-2.796c-2.101,-1.392 -3.491,-0.696 -4.889,1.397c-2.094,6.984 -4.89,11.177 -9.077,14.669l-6.983,-4.896l-2.796,-0.696l-9.077,2.796c-2.79,-4.889 -3.491,-9.083 -3.491,-13.966l0,-3.492l0,-0.695l0,-1.405l-2.79,-2.087c-6.287,-1.404 -12.575,-4.194 -18.159,-8.388l3.491,-9.07l0,-1.403l-0.002,0Z" style="fill-rule:nonzero;"/><path d="M96.393,144.075l-10.474,-0.696c-3.491,2.094 -6.28,4.188 -7.678,7.679l-1.391,5.592c0,6.281 2.789,9.772 8.374,12.562l10.475,0.702l7.678,-7.685c2.101,-3.492 2.101,-6.982 0.703,-10.474c-2.094,-3.493 -4.195,-6.282 -7.687,-7.68Zm-13.263,9.779c1.398,-2.796 2.789,-3.492 4.89,-4.889l5.584,0l4.89,4.889c0.696,2.094 0.696,4.187 0,6.288l-4.89,4.187c-2.093,1.392 -4.193,1.392 -6.28,0l-4.194,-4.889c-0.702,-2.094 -0.702,-4.194 0,-5.586Z" style="fill-rule:nonzero;"/><path d="M82.428,153.854l-3.491,-2.1l-14.662,2.1c-2.094,0 -2.796,1.392 -2.796,3.492c0.702,2.094 1.404,2.094 3.491,2.094l14.668,-2.094c2.094,0 2.79,-1.398 2.79,-3.492Z" style="fill-rule:nonzero;"/><path d="M86.622,183.88l4.194,-16.059c-0.703,2.093 -1.405,2.093 -3.492,2.093c-1.405,0 -2.101,-2.093 -1.405,-3.492l-4.882,15.364c0,2.094 0.695,3.492 2.093,3.492l3.492,-1.398Z" style="fill-rule:nonzero;"/><path d="M81.732,129.414c0,-1.398 -2.093,-2.796 -3.491,-2.101c-2.094,0.703 -2.094,2.101 -2.094,3.492l6.983,12.575l3.492,0c2.094,-1.397 2.094,-2.1 1.398,-3.491c-3.492,-4.89 -5.592,-8.381 -6.288,-10.475Z" style="fill-rule:nonzero;"/><path d="M110.359,135.701c-1.391,-2.101 -2.789,-2.101 -3.492,-0.703l-11.865,6.983c-1.399,1.397 -1.399,2.093 -0.696,3.491c0.696,1.397 2.086,2.094 4.187,1.397l10.474,-6.982c2.096,-1.397 2.096,-2.795 1.392,-4.186Z" style="fill-rule:nonzero;"/><path d="M100.588,159.439l-3.492,0c-1.398,0.702 -2.093,2.094 -0.703,3.492l3.492,3.491l7.686,6.281c2.093,0.702 3.492,0.702 4.194,-1.391c0.695,-1.398 0.695,-2.101 -1.405,-3.491c-2.086,-1.399 -4.187,-2.796 -6.28,-4.89l-3.492,-3.492Z" style="fill-rule:nonzero;"/><path d="M274.46,88.211l-122.202,0c2.1,41.203 0.702,90.78 -6.281,147.339c-13.263,113.134 -43.991,207.404 -90.779,282.116l138.263,4.188c39.805,-67.729 64.947,-159.906 75.422,-277.916c6.279,-58.66 7.68,-111.032 5.577,-155.727Z" style="fill:#f00;fill-rule:nonzero;"/><path d="M152.258,84.72l-2.79,1.398c-0.702,0 -0.702,1.397 -0.702,2.093c2.1,42.594 0,92.177 -6.281,148.745c-13.966,112.423 -43.991,205.999 -90.077,279.32c-0.703,0.693 -0.703,2.087 -0.703,3.491l3.492,1.392l138.263,4.187l2.795,-1.392c39.798,-67.032 64.94,-159.913 76.118,-277.227c6.279,-59.355 7.679,-111.728 5.577,-158.516c0,-2.093 -2.087,-3.491 -3.491,-3.491l-122.201,0Zm3.492,6.983l115.219,0l0.703,30.729c0,62.151 -4.195,122.202 -13.264,180.16c-13.271,88.686 -35.618,161.313 -67.041,215.771l-129.888,-4.188c37.015,-60.747 63.549,-134.771 78.913,-222.058c10.474,-56.567 16.06,-114.518 16.06,-171.787l-0.702,-28.627Z" style="fill-rule:nonzero;"/><path d="M182.29,134.999l8.374,1.398l15.371,0l-11.178,38.407c-13.264,0.695 -20.247,2.795 -20.948,7.679l0,1.397c0,3.491 1.398,6.983 2.789,9.772c2.101,3.491 4.194,5.592 6.982,6.982c3.492,0.703 5.591,0 7.687,-2.789l8.381,-17.458l39.799,0l16.064,0.703c2.096,0 2.797,-0.703 2.797,-2.795c0,-1.399 -0.701,-2.796 -2.797,-2.796l-16.064,-0.695l-38.406,0l11.879,-41.898l0,-0.696l-0.703,-2.101l-2.789,-0.695l-16.762,1.391l-9.084,-1.391c-1.391,0 -2.788,0 -3.49,2.094c-0.002,1.398 0.701,2.093 2.098,3.491Zm-0.695,55.864c-1.404,-2.789 -2.1,-4.889 -2.1,-6.983l0.696,-0.702l13.271,-2.79l-5.586,13.967l-2.093,0.702l-4.188,-4.194Z" style="fill-rule:nonzero;"/><path d="M236.757,153.158c-2.094,0 -2.789,0.696 -2.789,2.79c-0.702,17.458 -4.896,31.423 -13.967,41.898c-0.701,1.398 -0.701,3.492 0,4.194l4.188,-0.702c9.778,-11.177 14.662,-26.534 15.357,-45.39l-2.789,-2.79Z" style="fill-rule:nonzero;"/><path d="M210.223,222.287c-1.397,0 -2.101,0.702 -2.796,2.789l-6.286,36.319l-18.851,0c-2.1,2.087 -2.795,4.883 -2.1,9.07c2.1,5.591 4.192,8.388 9.082,8.388c2.096,0 5.586,-0.702 9.078,-3.492l6.279,-6.983c7.688,2.79 14.67,5.578 18.863,7.678l-5.592,0c-1.392,0 -2.795,1.391 -2.795,2.796c0,2.086 0.701,2.789 2.1,2.789c9.077,0.702 13.271,0 13.967,-3.491l0,-0.703c0,-2.789 -1.398,-4.188 -4.188,-6.28l-20.949,-7.686l6.982,-37.704c0.003,-2.093 -0.701,-2.788 -2.794,-3.49Zm-24.441,46.091l0,-2.796l12.567,1.392c-2.789,4.194 -5.584,6.287 -9.078,6.287c-1.396,0 -2.792,-1.391 -3.489,-4.883Z" style="fill-rule:nonzero;"/><path d="M209.525,231.363c-1.403,-0.695 -3.49,0.696 -3.49,2.101c0,2.086 0,2.789 2.087,3.492l5.592,1.39l13.271,2.101c1.392,0 2.789,-0.703 2.789,-2.796c0,-1.398 -0.701,-2.796 -2.789,-2.796l-17.46,-3.492Z" style="fill-rule:nonzero;"/><path d="M168.324,277.448c-1.398,-2.086 -2.101,-2.789 -4.187,-1.391c-1.405,0.696 -2.101,2.094 -0.702,3.492l1.397,4.883l2.094,10.475c0.702,4.192 0,13.965 -2.094,26.54c-1.397,13.967 -4.187,23.744 -6.983,30.025c-2.796,8.381 -1.398,16.754 3.491,23.737c3.492,5.593 8.375,8.388 13.966,8.388c8.374,0 16.762,-4.192 26.534,-11.879c9.077,-8.373 16.758,-18.849 22.348,-30.722c0.696,-1.397 0,-2.789 -1.397,-3.49c-2.095,-0.702 -2.789,-0.702 -3.49,0.701c-5.586,11.867 -12.569,20.949 -20.948,28.628c-8.383,6.982 -16.062,11.17 -23.043,11.17c-3.492,0 -6.983,-2.093 -9.083,-5.585c-4.187,-6.28 -4.883,-12.567 -2.789,-18.159l6.982,-32.119c2.094,-13.271 2.789,-23.043 2.789,-27.933l-2.789,-12.568l-2.096,-4.193Z" style="fill-rule:nonzero;"/><path d="M176.698,420.6c-8.374,-4.187 -16.755,-4.187 -26.527,-0.695c-7.686,2.797 -14.668,7.68 -18.862,13.968c-4.883,6.286 -4.883,11.872 -1.391,16.066c2.093,2.086 3.492,2.788 6.287,2.086c6.281,0 16.053,-9.069 27.23,-26.528l0.702,-2.099l-0.702,-0.696l11.176,2.795c7.679,3.493 11.171,9.071 11.171,16.055l0,2.101c0,6.982 -3.492,13.271 -10.475,18.849c-6.983,6.983 -15.364,11.88 -27.236,13.967c-1.392,0 -2.094,1.404 -2.094,2.795l0,0.695c0,1.406 1.398,2.102 3.491,2.102c12.568,-3.491 22.347,-8.382 30.722,-16.065c6.982,-6.282 10.474,-13.967 11.177,-20.949c1.399,-11.873 -3.492,-20.253 -14.669,-24.447Zm-41.196,25.845l-2.093,0l0,-2.796c0,-2.101 0.695,-4.188 2.093,-6.982c5.585,-6.983 13.264,-11.172 22.347,-12.575c-9.082,14.668 -17.457,22.353 -22.347,22.353Z" style="fill-rule:nonzero;"/><path d="M250.723,37.236l15.364,-2.093c10.476,-3.492 16.06,-13.271 16.06,-27.932c-14.67,-0.695 -24.438,4.188 -29.33,13.966l-2.094,16.059Z" style="fill:#858585;fill-rule:nonzero;"/><path d="M284.936,7.211c0,-1.397 -1.394,-2.796 -2.789,-2.796c-11.873,-0.695 -20.948,2.101 -27.229,8.381c-3.492,4.89 -6.288,9.771 -6.983,16.059l0,8.381c0,2.094 0.695,2.789 2.086,2.789l8.39,0.703c6.983,-1.398 12.562,-3.492 16.754,-6.983c6.278,-5.585 9.771,-14.669 9.771,-26.534Zm-31.424,27.932c0,-7.679 1.405,-13.966 5.592,-18.153c4.883,-4.193 10.476,-6.982 19.551,-6.982c0,9.069 -2.788,15.356 -6.981,18.848c-4.197,4.187 -10.477,6.287 -18.162,6.287Z" style="fill-rule:nonzero;"/><path d="M351.977,303.295c11.178,-2.797 17.456,-11.178 18.855,-25.847c-13.966,-2.789 -24.44,0.703 -30.033,10.475c-3.492,4.194 -4.883,9.779 -4.883,14.668l16.061,0.704Z" style="fill:#858585;fill-rule:nonzero;"/><path d="M333.12,302.591c0,2.095 0.696,2.789 2.1,3.49c9.773,2.79 17.458,1.397 25.138,-3.49c6.982,-4.889 11.865,-13.264 13.271,-24.44c0,-2.094 0,-3.492 -2.1,-3.492c-11.866,-2.094 -20.949,0 -27.236,4.889c-4.883,3.492 -8.375,9.077 -9.772,14.662l-1.401,8.381Zm14.662,-18.159c4.896,-4.188 11.177,-5.579 19.558,-4.883c-1.396,9.077 -4.187,15.358 -9.777,18.85c-4.885,2.795 -11.866,4.192 -18.85,2.101c0.695,-6.985 3.49,-12.577 9.069,-16.068Z" style="fill-rule:nonzero;"/><path d="M340.799,470.886c7.686,7.68 18.16,9.069 32.127,3.492c-5.586,-13.966 -13.265,-20.95 -24.441,-20.95l-15.363,3.493l7.677,13.965Z" style="fill:#858585;fill-rule:nonzero;"/><path d="M331.729,454.124c-0.701,1.392 -1.404,2.094 -1.404,2.797c0,2.086 1.404,4.188 3.492,8.374c2.795,5.591 6.981,9.778 11.879,12.574l27.932,-1.404c2.087,0 2.087,-1.392 2.087,-3.492c-4.187,-10.475 -10.474,-18.151 -18.848,-20.948l-17.458,-1.392c-4.189,1.39 -6.984,2.795 -7.68,3.491Zm37.002,18.153l-20.248,0.694c-5.585,-2.788 -9.771,-7.678 -12.567,-15.355l19.551,-0.695c4.889,2.086 9.773,6.981 13.264,15.356Z" style="fill-rule:nonzero;"/><path d="M303.797,66.566c-6.98,-12.575 -16.762,-18.855 -27.932,-16.762l-13.967,6.288l9.772,12.568c8.383,6.281 18.855,5.585 32.127,-2.094Z" style="fill:#858585;fill-rule:nonzero;"/><path d="M305.884,65.169c-5.578,-9.772 -12.561,-16.06 -20.948,-18.16c-5.578,-1.391 -11.865,0 -17.459,2.101l-7.678,4.187c-1.391,1.397 -1.391,2.101 -1.391,3.491l4.883,7.679c4.186,5.592 9.083,8.388 13.965,9.779c8.381,2.796 17.458,1.398 27.237,-4.883l1.391,-4.194Zm-6.28,0.702c-8.381,4.187 -14.668,4.883 -20.246,3.491c-6.287,-2.1 -10.475,-6.287 -13.965,-12.575c6.279,-4.187 11.863,-5.585 17.455,-4.187c6.281,1.392 11.866,5.585 16.756,13.271Z" style="fill-rule:nonzero;"/><path d="M83.13,25.364c-0.702,-11.17 -8.381,-18.153 -22.347,-23.042c-5.585,13.965 -3.492,24.439 4.889,32.125c4.193,4.188 9.077,6.281 13.966,6.984c2.79,-4.195 3.492,-9.78 3.492,-16.067Z" style="fill:#858585;fill-rule:nonzero;"/><path d="M82.428,42.822c4.194,-9.077 4.194,-17.458 0.702,-25.136c-2.789,-8.381 -10.475,-13.966 -21.651,-17.458c-1.392,-1.398 -2.79,0 -3.492,1.391c-4.187,11.177 -4.187,20.254 0.702,27.932c3.491,7.685 10.475,12.575 20.949,14.668c1.399,0.001 2.094,0.001 2.79,-1.397Zm-3.491,-23.043l0.702,8.381l-1.398,10.475c-7.679,-3.492 -12.568,-6.984 -14.662,-11.873c-2.1,-3.491 -2.796,-6.28 -2.796,-10.474l1.397,-9.772c9.078,2.789 13.967,7.678 16.757,13.263Z" style="fill-rule:nonzero;"/><path d="M56.596,551.19c-11.872,0.694 -19.558,7.679 -23.745,21.645c13.966,5.585 24.44,4.188 32.119,-4.188l6.983,-14.667c-4.186,-2.094 -9.772,-2.79 -15.357,-2.79Z" style="fill:#858585;fill-rule:nonzero;"/><path d="M74.749,554.682c0.696,-1.404 0,-2.796 -1.391,-2.796c-8.388,-4.188 -17.458,-4.889 -25.846,-2.1c-7.679,3.49 -13.966,11.177 -17.457,22.354c-0.696,1.392 0,2.789 2.1,3.491c11.17,4.188 20.254,4.188 27.933,0c8.374,-4.194 12.567,-11.177 14.661,-20.949Zm-37.711,16.755c3.492,-8.381 7.686,-13.966 13.27,-16.06l18.856,0c-2.79,7.679 -6.983,12.569 -11.873,15.357l-20.253,0.703Z" style="fill-rule:nonzero;"/><path d="M44.021,269.074c-9.069,5.585 -12.561,16.06 -10.474,30.025c14.669,-1.396 23.745,-7.685 26.541,-18.855l-0.696,-16.059l-15.371,4.889Z" style="fill:#858585;fill-rule:nonzero;"/><path d="M62.181,263.482l-2.79,-2.087l-8.387,2.087c-6.28,1.404 -11.17,4.194 -14.662,8.387c-5.585,7.679 -6.983,16.755 -4.883,27.933c0,2.085 1.392,2.788 3.492,2.788c11.17,-2.093 19.544,-6.279 23.738,-13.966c3.491,-4.193 4.89,-9.772 4.89,-16.755l-1.398,-8.387Zm-25.839,27.237c0,-5.586 0.696,-11.171 4.188,-14.663c3.491,-4.889 9.778,-7.678 16.762,-8.38l0.696,5.584c0,4.89 -0.696,9.083 -3.492,12.575c-2.79,4.883 -9.772,8.374 -18.153,9.771l-0.001,-4.887Z" style="fill-rule:nonzero;"/><path d="M88.715,301.191l-16.06,13.271c-8.38,10.475 -6.983,17.458 2.79,20.95c10.474,4.187 15.371,-0.695 16.066,-13.271l-2.796,-20.95Z" style="fill:#d96038;fill-rule:nonzero;"/><path d="M90.113,298.396l-2.789,0.703c-16.066,11.176 -23.745,20.947 -23.049,28.633c0.695,4.188 4.187,7.681 10.474,10.476l13.966,-0.701c4.187,-3.493 5.592,-10.476 4.889,-20.948l-2.093,-16.061l-1.398,-2.102Zm-13.966,34.917c-3.492,-2.088 -5.585,-3.49 -6.281,-6.28c0,-5.585 5.579,-12.568 16.756,-20.95l2.094,13.967c0,6.983 -1.391,11.178 -3.492,13.264c-2.094,1.404 -4.883,1.404 -9.077,-0.001Z" style="fill-rule:nonzero;"/><path d="M101.986,267.676c-1.398,-0.703 -3.492,0 -3.492,1.397l-11.873,30.729c-1.398,2.085 -0.703,3.492 1.398,3.492c1.391,0.694 2.796,0.694 3.492,-0.704l12.568,-31.423c0,-2.093 0,-3.491 -2.093,-3.491Z" style="fill-rule:nonzero;"/></g></g><rect id="PATH77" x="2.92" y="2.74" width="366.67" height="582.52" style="fill:none;stroke:#000;stroke-width:3px;"/></svg>