<?xml version="1.0" encoding="UTF-8" standalone="no"?><!DOCTYPE svg PUBLIC "-//W3C//DTD SVG 1.1//EN" "http://www.w3.org/Graphics/SVG/1.1/DTD/svg11.dtd"><svg width="100%" height="100%" viewBox="0 0 372 587" version="1.1" xmlns="http://www.w3.org/2000/svg" xmlns:xlink="http://www.w3.org/1999/xlink" xml:space="preserve" xmlns:serif="http://www.serif.com/" style="fill-rule:evenodd;clip-rule:evenodd;stroke-miterlimit:100;"><g><path d="M70.892,214.259c0,-2.024 -1.346,-2.693 -3.364,-2.024c-1.347,0.677 -2.021,2.024 -1.347,3.365l13.456,40.368c11.439,28.936 22.875,51.138 35.661,66.611l4.034,0.671c0.674,-1.34 0.674,-2.687 0,-4.034c-12.782,-15.475 -24.218,-37.675 -34.984,-65.935l-13.456,-39.022Z" style="fill-rule:nonzero;"/><path d="M71.565,224.352c2.017,-6.728 2.69,-13.456 3.364,-20.185c0.67,-12.786 -3.364,-18.167 -12.113,-16.15c-8.072,2.023 -9.419,8.751 -3.364,20.185c3.365,6.057 7.402,11.439 12.113,16.15Z" style="fill:#9260c7;fill-rule:nonzero;"/><path d="M77.62,209.548c1.344,-10.769 0,-18.167 -3.364,-21.531c-3.364,-2.694 -7.401,-4.034 -11.439,-2.694c-5.381,0.677 -8.072,4.041 -8.746,7.405c-2.69,8.075 2.018,18.837 15.474,33.64l2.69,1.347l2.021,-2.024l3.364,-16.143Zm-4.711,-7.404l-2.691,16.82c-7.401,-9.416 -11.439,-17.49 -11.439,-22.872l0,-2.017c0.674,-1.347 2.694,-2.694 5.384,-3.364l5.382,0.67c2.02,2.694 3.364,6.058 3.364,10.763Z" style="fill-rule:nonzero;"/><path d="M52.051,254.628c6.059,2.694 12.113,4.704 19.515,5.381c-2.694,-6.728 -5.384,-12.109 -9.422,-17.497c-8.072,-10.762 -14.126,-12.779 -19.511,-6.051c-5.381,6.728 -2.017,13.456 9.418,18.167Z" style="fill:#9260c7;fill-rule:nonzero;"/><path d="M50.708,229.733c-3.364,0 -7.402,1.347 -10.092,4.711c-3.364,4.035 -4.038,7.398 -3.364,12.109c3.364,7.405 14.799,12.779 33.64,16.82l2.691,-1.347l0.673,-2.694c-8.075,-18.16 -15.477,-28.252 -23.548,-29.599Zm-6.729,8.746c2.018,-2.018 3.364,-3.364 6.055,-3.364c5.381,1.347 10.765,8.075 16.82,21.531c-14.13,-3.364 -22.875,-7.405 -24.222,-12.109l0,-1.347c0,-2.018 0.674,-3.365 1.347,-4.711Z" style="fill-rule:nonzero;"/><path d="M72.909,257.993c-2.018,-1.347 -3.364,-0.67 -3.364,0.67c-1.344,2.024 -0.674,3.364 0.673,4.034l16.821,10.092c2.017,0.677 2.69,0.677 4.037,-1.34c0.674,-1.347 0,-2.693 -1.347,-3.364l-16.82,-10.092Z" style="fill-rule:nonzero;"/><path d="M64.837,298.36l20.185,2.019l-12.787,-15.475c-9.418,-9.421 -16.146,-10.092 -20.185,-2.023c-4.707,7.404 0.001,12.786 12.787,15.479Z" style="fill:#9260c7;fill-rule:nonzero;"/><path d="M49.361,281.541c-2.691,4.034 -2.691,8.068 0,11.432c2.69,4.041 8.749,7.406 18.841,8.753l16.82,1.34l2.69,-2.011l0,-2.694l-10.766,-12.785c-7.401,-7.398 -13.457,-10.763 -18.167,-10.763c-4.708,0 -7.398,2.693 -9.418,6.728Zm4.71,2.693c1.344,-2.693 2.691,-4.041 4.708,-4.041c5.384,0 12.112,5.382 20.858,16.82c-14.13,0 -23.548,-2.687 -26.239,-6.729l-0.673,-2.687l1.346,-3.363Z" style="fill-rule:nonzero;"/><path d="M86.366,297.691c-2.018,-0.678 -3.364,0 -4.038,2.01c0,1.354 0,2.694 2.021,3.364l18.838,5.388c1.347,1.341 2.69,0 3.364,-1.347l-2.018,-3.365l-18.167,-6.05Z" style="fill-rule:nonzero;"/><path d="M121.353,106.609c0,-1.347 -1.347,-2.023 -3.364,-1.347c-1.346,0.677 -2.02,1.347 -1.346,3.364c9.418,22.201 18.167,50.461 26.913,84.102c16.82,65.264 24.895,125.816 24.222,181.658c0,1.348 0.673,2.688 2.69,2.688c1.347,0 2.691,-1.34 2.691,-2.688c1.347,-55.842 -7.399,-116.394 -24.893,-183.676c-8.749,-32.969 -17.495,-61.222 -26.913,-84.101Z" style="fill-rule:nonzero;"/><path d="M101.168,184.653l19.511,6.729l-9.418,-18.837c-6.728,-10.092 -13.456,-12.11 -18.841,-6.052c-6.054,6.051 -2.691,12.779 8.748,18.16Z" style="fill:#9260c7;fill-rule:nonzero;"/><path d="M122.696,192.729l0.674,-2.018c-6.728,-18.843 -14.13,-28.259 -22.202,-30.276c-4.037,-1.347 -7.401,0 -10.766,4.035c-3.364,4.034 -4.037,8.075 -2.69,11.439c2.017,8.075 13.456,13.456 32.293,18.167l2.691,-1.347Zm-30.276,-18.838l0,-1.347c0,-1.347 0.674,-2.688 2.021,-4.711c2.018,-1.34 3.364,-2.017 5.381,-2.017c4.711,0.676 10.092,8.075 16.146,21.53c-14.126,-3.363 -21.528,-8.074 -23.548,-13.455Z" style="fill-rule:nonzero;"/><path d="M122.026,189.364c-2.021,-1.347 -2.694,-1.347 -4.038,0.677c-0.673,0.67 -0.673,2.688 1.344,4.035l30.277,18.837c1.347,1.347 2.694,1.347 3.364,-0.677c1.347,-1.34 0.673,-2.687 -0.67,-4.034l-30.277,-18.838Z" style="fill-rule:nonzero;"/><path d="M161.048,172.544l14.129,-14.804c8.746,-10.092 8.746,-16.82 0,-20.185c-7.401,-3.364 -12.112,1.347 -14.129,14.804c-0.673,6.052 -0.673,12.78 0,20.185Z" style="fill:#9260c7;fill-rule:nonzero;"/><path d="M184.597,143.614c-0.673,-4.034 -3.364,-6.728 -8.075,-8.075l-11.436,0c-6.728,5.381 -8.749,17.497 -6.728,37.005l2.017,2.017l2.691,-0.67l12.112,-11.439c6.728,-7.405 9.419,-13.456 9.419,-18.838Zm-16.147,-3.364c1.344,-1.347 2.691,-1.347 6.055,0l4.038,4.035l0,1.347c0,4.71 -4.711,11.438 -14.803,20.861l-0.673,-4.717c-0.002,-11.434 1.346,-19.508 5.383,-21.526Z" style="fill-rule:nonzero;"/><path d="M162.395,169.856c-1.347,-0.676 -2.694,-0.676 -4.038,0.67l-14.129,23.548c0,1.34 0,2.693 1.347,3.364l4.034,-0.67l14.13,-22.877c0.674,-1.347 0.674,-3.364 -1.344,-4.035Z" style="fill-rule:nonzero;"/><path d="M94.44,136.886l18.837,6.728c-2.017,-6.728 -4.708,-12.786 -8.745,-18.167c-6.728,-11.439 -13.457,-13.457 -18.841,-6.729c-6.054,6.729 -2.69,12.11 8.749,18.168Z" style="fill:#9260c7;fill-rule:nonzero;"/><path d="M83.675,116.702c-3.364,4.034 -4.038,7.398 -2.691,10.763c2.018,8.075 13.457,14.803 32.294,18.844l2.69,-0.677l0.674,-2.688l-6.728,-15.48c-5.381,-8.746 -10.092,-14.127 -15.474,-14.796c-3.364,-0.677 -7.401,0.669 -10.765,4.034Zm2.017,8.745c0,-2.018 0.674,-3.364 2.021,-5.382c2.017,-1.347 3.364,-2.693 5.381,-2.693c4.711,1.347 10.092,8.752 16.146,22.208c-14.126,-4.041 -21.528,-8.752 -23.548,-13.456l0,-0.677Z" style="fill-rule:nonzero;"/><path d="M115.298,140.92c-2.021,-0.67 -2.694,-0.67 -4.038,1.347c-0.673,1.347 -0.673,2.688 1.343,3.364l22.205,14.803l4.037,-0.67c1.344,-1.353 0.67,-2.694 -1.347,-4.04l-22.2,-14.804Z" style="fill-rule:nonzero;"/><path d="M143.555,130.158l13.456,-14.803c7.402,-11.439 6.729,-18.167 -1.344,-20.861c-8.075,-2.688 -12.786,2.023 -14.129,15.479c-0.001,6.059 0.672,13.457 2.017,20.185Z" style="fill:#9260c7;fill-rule:nonzero;"/><path d="M164.413,99.881c-0.674,-3.364 -3.364,-6.728 -8.076,-8.075c-5.381,-1.347 -8.745,-1.347 -11.436,1.347c-4.038,3.364 -5.385,10.092 -5.385,20.184l1.347,16.82l1.347,2.018l2.691,0l11.436,-12.11c6.728,-8.074 8.748,-14.802 8.076,-20.184Zm-20.185,14.127c0,-8.745 2.017,-14.126 4.037,-16.82l6.055,0c3.364,1.347 4.71,2.693 4.71,4.034l0.67,0.677c0,5.381 -5.381,12.779 -14.8,22.201l-0.672,-10.092Z" style="fill-rule:nonzero;"/><path d="M144.228,127.464c-1.347,-0.67 -2.691,0 -3.364,1.347l-9.419,18.167c-1.347,2.017 -1.347,3.364 0.674,3.364c1.344,1.341 2.69,0.67 4.034,-1.347l9.422,-18.167c1.343,-0.67 0.67,-2.017 -1.347,-3.364Z" style="fill-rule:nonzero;"/><path d="M121.353,111.991l1.344,-20.184c0,-13.456 -4.708,-18.838 -12.782,-15.473c-8.746,2.017 -8.746,8.745 -2.017,20.184l13.455,15.473Z" style="fill:#9260c7;fill-rule:nonzero;"/><path d="M119.332,114.008l2.021,0l2.018,-2.017c3.364,-18.837 2.69,-31.624 -3.364,-37.004c-2.69,-2.018 -6.728,-3.364 -10.766,-2.018c-4.708,2.018 -8.072,4.705 -8.745,8.746c-1.348,8.075 4.037,18.166 18.836,32.293Zm-9.418,-35.657l6.728,1.347c2.02,2.017 3.364,6.728 3.364,14.126l-0.674,12.786c-9.418,-10.092 -13.456,-17.49 -13.456,-22.878l0,-0.67c0.674,-2.695 2.021,-3.365 4.038,-4.711Z" style="fill-rule:nonzero;"/><path d="M111.935,238.479l-14.13,7.398c5.381,5.388 18.164,12.786 36.331,22.208c-0.673,13.457 0.673,25.566 6.055,35.657c10.766,-6.728 20.184,-16.819 29.603,-28.929c8.075,6.058 21.532,10.092 40.369,12.109c-2.018,-8.745 -4.708,-16.821 -8.746,-26.235l-6.054,-10.769c5.381,-6.052 9.419,-14.803 12.782,-25.566l3.365,-14.803c-6.056,0 -13.457,2.018 -23.55,5.381l-12.109,4.711c-2.693,-6.728 -8.075,-14.133 -15.477,-22.202l-10.092,-10.092c-5.381,6.058 -8.745,15.474 -12.109,27.583l-2.021,16.821c-6.054,-0.001 -13.456,2.693 -24.217,6.728Z" style="fill:#9260c7;fill-rule:nonzero;"/><path d="M132.789,228.386c-6.054,1.347 -13.457,3.364 -22.875,8.075l-13.456,6.728c-1.344,0 -2.018,1.347 -2.018,2.018l0,0.67l1.344,2.024c6.728,6.728 18.167,14.126 34.987,22.201l-0.673,3.364c0,11.439 2.69,22.202 6.728,31.623l2.69,2.019l2.694,0c9.419,-6.728 18.838,-16.144 28.256,-28.259c9.419,6.057 22.205,9.422 39.025,11.438l2.69,-0.676l1.344,-2.688l0,-0.677c-2.017,-12.103 -6.729,-24.219 -14.127,-36.328c8.072,-10.092 12.783,-23.549 15.474,-39.692l0,-0.677l-0.673,-2.017l-2.69,-1.347c-8.076,0 -19.512,3.364 -33.641,8.746l-16.147,-20.854l-8.749,-9.422l-2.691,-0.669l-2.69,0.669c-6.727,9.42 -12.108,24.217 -14.802,43.731Zm3.363,6.728l3.364,-3.364l2.021,-14.127c2.691,-10.092 6.055,-18.844 9.419,-24.895c10.092,8.745 17.494,18.167 22.202,28.259c0.673,2.017 2.02,2.017 4.037,2.017l10.092,-4.041c7.401,-2.688 14.129,-4.705 20.185,-5.375c-3.364,15.467 -8.072,26.236 -14.13,33.641l-1.344,2.688l0.674,1.347l5.381,10.091c3.363,7.399 6.055,14.127 7.401,21.525c-16.819,-2.688 -27.585,-6.051 -34.313,-11.433l-2.691,0c-0.673,0 -1.347,0 -1.347,0.67c-8.072,10.762 -16.146,19.514 -25.565,26.242c-2.691,-7.397 -4.711,-16.149 -4.711,-25.572l0.673,-4.704l-2.017,-3.364c-14.13,-6.728 -24.896,-13.456 -32.297,-18.167c16.146,-8.073 26.912,-11.438 32.966,-11.438Z" style="fill-rule:nonzero;"/><path d="M182.58,249.917l-4.038,0c-6.728,4.711 -12.783,6.728 -19.511,7.405l-8.075,-2.023c-2.018,-0.67 -3.364,0 -4.038,1.347c0,2.017 0,3.364 1.347,4.041l10.092,2.01c8.072,-0.67 16.147,-3.364 23.549,-9.415c1.344,-0.001 2.017,-2.017 0.674,-3.365Z" style="fill-rule:nonzero;"/><path d="M147.592,239.148l-3.364,-0.67c-0.673,1.347 -1.347,2.023 0,2.694l4.037,7.398l6.055,11.438c0,1.347 1.346,2.017 2.69,1.347c1.347,0 1.347,-1.347 1.347,-2.693l-6.728,-12.109l-4.037,-7.405Z" style="fill-rule:nonzero;"/><path d="M163.065,234.444l-2.691,-1.347c-2.017,0 -2.017,0.677 -2.017,2.018l3.364,24.895l2.691,1.347c2.017,0 2.017,-1.347 2.017,-2.693l-3.364,-24.22Z" style="fill-rule:nonzero;"/><path d="M174.504,235.114c-0.673,-0.67 -1.347,0 -2.017,1.347c-2.021,4.711 -2.694,11.439 -2.021,20.185c0,1.347 0.674,2.017 2.021,2.017c2.017,0 2.017,-0.67 2.017,-2.017c-0.673,-8.745 0,-14.803 2.017,-18.837c0,-1.348 0,-2.695 -2.017,-2.695Z" style="fill-rule:nonzero;"/><path d="M275.426,100.552c0,-1.34 -1.347,-2.017 -3.363,-2.017c-1.348,0.677 -2.691,1.346 -2.017,3.364c2.69,17.497 4.706,40.369 4.706,67.958c0.674,55.166 -7.4,110.337 -22.874,163.485c0,1.354 0,3.365 2.018,3.365l3.362,-2.012c15.479,-53.825 23.55,-108.327 23.55,-164.839c-0.671,-28.265 -2.018,-51.137 -5.382,-69.304Z" style="fill-rule:nonzero;"/><path d="M259.952,128.811l-8.074,-18.837c-6.055,-11.438 -12.11,-13.456 -18.167,-8.075c-6.056,6.728 -3.365,12.779 7.4,18.837l18.841,8.075Z" style="fill:#9260c7;fill-rule:nonzero;"/><path d="M255.914,112.668c-4.036,-9.422 -8.747,-14.133 -14.129,-16.15c-3.364,-0.67 -6.728,0.67 -10.092,3.364c-3.364,3.364 -4.711,7.399 -4.038,11.433c1.347,7.405 12.783,14.133 31.624,20.185l2.69,-0.67l0,-2.694l-6.055,-15.468Zm-22.874,-2.694l-0.673,-1.347c0,-1.347 1.344,-2.687 2.69,-4.711c2.016,-1.34 3.363,-2.017 6.054,-2.017c4.712,1.347 9.419,8.745 14.13,22.201c-13.456,-4.704 -20.857,-9.422 -22.201,-14.126Z" style="fill-rule:nonzero;"/><path d="M278.79,147.648c2.018,-0.67 2.018,-2.017 0,-3.364l-16.82,-17.491c-1.347,-1.347 -2.69,-1.347 -4.037,0c-0.675,2.017 -0.675,3.364 0,4.034l17.493,16.82c0.673,1.349 2.016,1.349 3.364,0.001Z" style="fill-rule:nonzero;"/><path d="M291.574,136.886l16.819,-11.439c10.091,-8.746 11.438,-14.804 4.037,-20.185c-6.728,-4.711 -12.782,-1.347 -16.82,11.439c-2.69,6.059 -3.363,12.787 -4.036,20.185Z" style="fill:#9260c7;fill-rule:nonzero;"/><path d="M319.832,113.337c0,-4.033 -2.021,-7.397 -5.385,-10.092c-4.707,-2.694 -8.071,-3.364 -12.109,-1.347c-6.728,3.364 -11.438,14.803 -13.455,34.317l0.673,2.687l2.691,0c17.493,-8.744 26.912,-16.819 27.585,-25.565Zm-8.748,-5.387l3.363,4.718l0,0.669c-0.67,4.705 -7.397,10.763 -19.511,18.161c2.021,-14.797 6.055,-22.872 10.092,-24.889c1.348,-1.346 4.038,0 6.056,1.341Z" style="fill-rule:nonzero;"/><path d="M293.593,138.227c1.344,-1.34 0.671,-2.687 -0.673,-4.034c-1.346,-0.67 -3.364,-0.67 -4.037,1.347l-13.457,19.508c-1.347,2.023 -0.674,2.693 0.673,4.041c1.344,0.676 2.691,0.676 3.365,-1.347l14.129,-19.515Z" style="fill-rule:nonzero;"/><path d="M305.028,173.221l16.821,-10.769c10.091,-8.746 11.438,-15.474 4.038,-20.185c-6.729,-5.381 -12.784,-1.347 -16.821,11.439c-2.69,5.382 -3.363,12.11 -4.038,19.515Z" style="fill:#9260c7;fill-rule:nonzero;"/><path d="M333.288,150.342c0,-4.71 -2.021,-8.075 -5.384,-10.092c-4.035,-3.364 -8.072,-3.364 -12.11,-2.023c-6.728,4.041 -11.438,15.48 -13.456,34.318l0.674,2.687l2.691,0.677c17.493,-8.746 26.912,-17.498 27.585,-25.567Zm-14.804,-6.728l6.056,0.67l3.364,4.711l0,0.677c0,4.705 -6.729,10.762 -19.511,18.161c2.02,-14.126 5.384,-22.201 10.091,-24.219Z" style="fill-rule:nonzero;"/><path d="M306.376,171.197c-0.673,-0.67 -2.021,-0.67 -3.364,0l-28.26,28.936c-1.343,1.341 -1.343,2.688 0.674,4.034c0.673,0.67 2.691,0.67 3.364,0l27.586,-29.605c2.018,-0.671 2.018,-2.018 0,-3.365Z" style="fill-rule:nonzero;"/><path d="M228.329,167.163l19.511,7.399c-2.017,-7.399 -4.707,-13.457 -8.072,-18.837c-6.728,-11.439 -12.785,-13.457 -18.84,-6.729c-6.055,6.051 -3.365,12.109 7.401,18.167Z" style="fill:#9260c7;fill-rule:nonzero;"/><path d="M229.002,142.268c-4.037,0 -7.401,1.347 -10.765,4.711c-3.364,3.364 -4.037,6.728 -3.364,10.762c2.017,4.711 6.728,9.422 16.82,13.457l15.474,6.058l2.02,-1.347l1.344,-2.017c-6.054,-18.845 -13.458,-29.607 -21.529,-31.624Zm-6.728,8.074c2.69,-2.694 4.037,-3.364 6.055,-2.694c4.711,1.347 10.092,9.422 14.804,22.878c-14.131,-4.71 -21.532,-9.422 -22.879,-14.803l0,-0.677c0,-1.339 0.674,-2.686 2.02,-4.704Z" style="fill-rule:nonzero;"/><path d="M279.464,196.092c1.344,-0.676 0.673,-2.017 -0.674,-3.363l-29.604,-20.184l-4.037,0c-0.673,2.017 -0.673,3.364 0.674,4.04l29.603,20.854c1.347,0.67 2.691,0.67 4.038,-1.347Z" style="fill-rule:nonzero;"/><path d="M273.409,107.28c2.689,-6.729 4.708,-13.457 5.381,-20.185c2.018,-12.786 -1.348,-18.837 -10.092,-17.49c-8.746,1.34 -10.093,8.068 -5.381,20.185c2.017,5.381 5.381,12.109 10.092,17.49Z" style="fill:#9260c7;fill-rule:nonzero;"/><path d="M276.099,108.627c6.056,-19.507 7.403,-32.293 2.691,-37.682c-2.017,-3.364 -6.054,-4.704 -10.766,-4.034c-5.382,1.347 -8.072,2.694 -9.419,6.728c-3.364,7.398 0.674,19.514 12.784,34.988l2.689,1.347l2.021,-1.347Zm-1.347,-34.317l1.347,7.405c0,5.381 -0.673,11.439 -3.362,18.837c-6.729,-9.422 -10.094,-16.82 -10.094,-22.201l1.344,-2.688c0.675,-2.024 2.021,-2.694 4.712,-2.694c3.364,-0.67 5.38,0 6.053,1.341Z" style="fill-rule:nonzero;"/><path d="M317.141,212.913l-13.456,0c-1.347,-9.416 -4.71,-18.837 -9.421,-26.913l-7.398,-10.769c-8.075,7.405 -14.803,19.514 -21.531,35.664l-25.566,2.017l-12.785,4.711c4.038,7.398 12.785,15.473 26.242,25.565c-3.363,11.439 -5.385,23.548 -6.058,36.328c8.074,-2.01 20.857,-9.416 37.679,-22.871c3.363,6.728 9.418,12.109 19.51,16.82l12.785,3.364c1.344,-6.729 1.344,-14.803 0.671,-23.548l-2.018,-11.439c9.419,-6.058 16.821,-14.126 24.223,-24.219c-4.712,-2.693 -12.784,-3.364 -22.877,-4.71Z" style="fill:#9260c7;fill-rule:nonzero;"/><path d="M343.381,216.276l-2.021,-2.017c-6.055,-2.693 -18.164,-4.034 -34.984,-4.711c-1.348,-9.416 -4.711,-18.167 -10.093,-25.565l-6.728,-10.763l-2.02,-1.353c-1.344,0 -2.018,0.677 -2.69,0.677c-7.403,7.404 -14.8,18.837 -22.203,34.316c-6.729,-0.677 -14.803,0.67 -24.222,3.364l-13.456,4.034l-1.348,2.017l0,2.687c4.712,7.405 13.456,16.15 25.569,25.572c-3.363,10.763 -4.71,22.201 -5.385,34.311l0,0.669l1.348,2.694l2.69,0c7.401,-1.341 19.512,-8.069 36.331,-20.855c6.729,10.092 17.494,16.15 32.297,18.837l2.691,0l1.347,-2.017l1.344,-14.804l-2.018,-20.184c8.746,-6.051 16.146,-14.133 22.875,-23.548l0.674,-2.017l0,-1.344l0.002,0Zm-43.06,-3.363c0,2.017 1.344,3.364 3.363,3.364l10.763,0l20.185,3.364c-6.728,8.075 -13.456,14.803 -20.185,19.508l-2.017,2.694l0,0.67l1.347,6.059l1.344,14.802l-0.674,10.092c-14.126,-4.71 -22.873,-10.092 -26.238,-18.167l-2.69,-2.018l-2.691,1.347c-13.456,9.421 -24.222,16.15 -32.297,20.184c1.348,-11.439 3.365,-21.531 5.384,-30.276l0.675,-1.347l-1.348,-2.687c-10.092,-7.405 -18.168,-14.81 -23.548,-21.538c13.456,-4.705 24.221,-6.051 32.968,-4.705c1.347,0 3.363,-1.347 4.037,-2.693c5.381,-12.786 11.438,-23.549 18.167,-30.947c7.398,10.092 11.435,20.855 13.455,32.294Z" style="fill-rule:nonzero;"/><path d="M303.012,237.808c-0.674,-1.347 -1.347,-2.024 -3.363,-1.347c-7.401,3.364 -14.13,4.041 -20.858,2.688l-7.4,-4.034l-4.038,0.67c-1.344,0.677 -1.344,2.024 0.673,4.041l9.418,4.041c7.403,2.011 15.478,1.341 24.896,-2.693c1.345,-0.672 2.015,-1.349 0.672,-3.366Z" style="fill-rule:nonzero;"/><path d="M274.752,227.045l-2.689,-8.751c0,-0.67 -1.348,-1.341 -2.691,-0.67c-0.673,0 -1.347,0.67 -0.673,2.017l2.017,8.075l3.364,13.457c0,1.34 0.673,2.017 1.347,1.34l2.691,-2.01l-3.366,-13.458Z" style="fill-rule:nonzero;"/><path d="M285.519,217.624l-2.017,2.017l-2.021,22.202c0,1.347 0.674,2.694 2.021,2.694l2.017,-2.694l2.018,-22.202l-2.018,-2.017Z" style="fill-rule:nonzero;"/><path d="M299.648,221.658l-2.691,0c-2.693,4.71 -5.383,10.762 -7.401,19.514c0,2.017 0,2.017 2.019,2.017l2.689,-1.347l1.347,-6.728c1.347,-5.381 3.364,-8.746 4.711,-10.763c1.343,-1.347 0.669,-2.693 -0.674,-2.693Z" style="fill-rule:nonzero;"/><path d="M86.366,297.691c-13.457,2.688 -24.223,9.415 -32.294,19.507c-2.69,3.365 -4.71,7.404 -5.384,11.439l-3.364,10.092l-8.071,11.434c-3.364,4.04 -4.711,8.081 -5.384,11.444l-1.344,16.145c0,6.728 -0.674,11.438 -1.347,13.456c-2.017,4.041 -3.364,16.144 -4.038,34.987l23.548,-5.388c10.766,-4.034 18.84,-8.739 26.912,-13.456l15.477,-1.341c8.072,1.341 14.13,-0.671 18.838,-4.034c4.71,-3.364 8.074,-9.422 11.438,-17.497l3.364,-10.769l36.332,-30.276c-0.674,-5.375 -3.364,-9.415 -7.402,-13.456c-8.072,-9.415 -18.164,-12.78 -30.276,-12.104l-12.109,-10.769c-9.42,-7.404 -17.495,-10.091 -24.896,-9.414Z" style="fill:#858585;fill-rule:nonzero;"/><path d="M86.366,294.327c-14.8,2.687 -26.239,9.414 -34.984,20.854c-2.694,4.704 -5.385,8.744 -6.058,13.456l-2.691,8.745l-5.38,7.404c-5.384,6.729 -8.075,12.78 -8.749,16.82l-0.67,10.763c0,10.092 -1.347,15.473 -2.021,18.16c-1.344,2.024 -2.017,8.082 -3.364,18.175l-0.673,17.49l0.673,2.017l3.364,1.348l23.548,-5.389c10.766,-4.704 20.185,-9.415 28.259,-14.796l10.092,0c10.766,1.34 18.838,-0.67 23.548,-4.035c8.071,-6.058 13.456,-15.479 16.146,-30.275l36.332,-29.607l0.674,-2.022l0,-1.341c-1.347,-4.711 -4.038,-10.093 -8.076,-14.803c-8.745,-9.416 -19.511,-13.456 -31.62,-12.78l-14.803,-12.785c-8.745,-6.059 -16.819,-8.076 -23.547,-7.399Zm33.64,26.236c1.347,0.676 2.021,0.676 3.364,0.676c10.092,-0.676 17.494,2.011 24.222,7.398c4.711,3.363 7.402,8.745 10.092,13.456l-35.658,28.93l-0.674,2.017l-3.364,10.762c-2.69,7.406 -6.054,12.788 -10.091,15.48c-4.038,3.364 -10.092,4.704 -18.841,3.364l-14.8,1.34c-7.401,4.719 -16.82,9.423 -26.913,13.456l-18.84,4.719c0.673,-17.497 2.021,-26.912 3.364,-29.606c1.346,-2.693 2.02,-8.753 2.693,-19.515l0.67,-10.762c0.673,-3.364 2.694,-7.398 7.401,-13.456l5.385,-8.075l4.034,-10.093c0.674,-4.711 2.021,-8.075 4.711,-10.769c7.401,-10.092 17.494,-16.145 30.277,-18.831c5.381,-0.676 12.109,1.341 19.511,6.728l13.457,12.781Z" style="fill-rule:nonzero;"/><path d="M137.5,319.216l-1.347,-2.018c-22.875,3.365 -45.75,19.509 -68.625,47.773c-11.439,14.796 -21.531,29.6 -28.933,45.074c-1.343,1.347 -0.67,2.022 0.673,2.693c1.347,0 2.021,0 2.69,-1.347c6.729,-13.456 16.15,-27.591 27.586,-42.386c22.875,-28.26 45.079,-44.404 66.607,-47.768l1.349,-2.021Z" style="fill-rule:nonzero;"/><path d="M103.186,332.672c-8.746,-6.729 -17.494,-8.746 -28.256,-6.059c-5.384,0.678 -10.092,2.694 -14.13,5.388c-0.673,1.341 -0.673,2.019 0,2.694l2.691,0.671l12.783,-5.388c8.749,-2.012 16.82,0 24.222,5.388l6.055,12.108c2.02,10.093 0,20.185 -5.382,30.953c0,1.34 0,2.687 1.344,2.687c0.674,0.678 2.021,0 2.021,-0.676c6.728,-12.103 8.745,-23.547 5.381,-34.311l-6.729,-13.455Z" style="fill-rule:nonzero;"/><path d="M87.039,364.295l-6.729,-10.092c-6.055,-4.04 -12.783,-5.381 -20.857,-3.364c-5.382,2.018 -8.746,3.364 -10.766,6.053c-1.344,0.676 -1.344,1.353 -0.67,2.693l2.69,0.669c2.017,-2.01 5.381,-3.362 8.746,-5.374c7.401,-2.023 13.456,-0.677 18.167,2.688l6.055,8.074c2.691,7.398 1.347,15.473 -2.691,25.566c-0.673,1.347 0,2.688 0.674,3.363c1.344,0.678 2.69,0 2.69,-1.347c5.381,-11.432 6.055,-20.854 2.691,-28.929Z" style="fill-rule:nonzero;"/><path d="M62.143,379.099c-2.69,-2.693 -4.708,-4.034 -8.072,-4.712c-2.021,0 -5.384,0.678 -8.075,3.365l-4.038,3.362c-1.343,0.678 -1.343,1.348 0,2.688c0.673,0.678 2.02,0.678 2.694,0l2.69,-2.688c2.691,-2.016 5.381,-2.687 6.728,-2.687l4.708,2.687l0.674,3.365l1.346,8.075c0,3.364 -0.673,6.728 -2.02,8.744l-0.67,1.348l0.67,2.018l3.364,-0.678c2.694,-4.704 4.038,-9.415 2.694,-16.144l-2.693,-8.743Z" style="fill-rule:nonzero;"/><path d="M337.996,317.198c0.673,-8.075 0.673,-13.457 0,-16.819c-4.034,-13.457 -12.108,-21.532 -23.549,-22.202c-6.054,0 -12.782,2.017 -21.527,6.058c-8.074,4.035 -12.112,6.729 -13.456,6.729l-10.093,-2.023l-14.803,1.346c-6.055,2.018 -10.092,5.382 -13.457,10.094c-2.69,4.04 -4.038,8.074 -4.038,13.456c-0.669,4.71 1.348,9.415 4.712,12.108l6.729,8.076l1.348,9.415l2.017,8.751c2.69,4.035 6.055,8.745 10.765,12.786l12.783,7.398c7.401,2.694 14.13,8.068 20.185,14.797c4.038,5.388 13.456,7.404 27.586,5.388c4.038,-0.671 9.419,0.67 16.82,3.364c2.018,-8.076 2.69,-14.127 2.018,-18.845c0,-2.688 0.673,-6.051 2.02,-10.762l2.019,-11.433c0,-3.364 -0.675,-6.729 -3.365,-10.77l-5.382,-10.769c-0.676,-2.687 -0.676,-7.398 0.668,-16.143Z" style="fill:#858585;fill-rule:nonzero;"/><path d="M279.464,287.599l-4.712,-0.677c-7.4,-2.688 -14.129,-2.688 -21.527,0c-6.058,2.688 -11.439,6.051 -14.804,11.438c-3.363,4.705 -4.71,9.422 -4.71,15.475c-0.671,4.04 0.673,7.404 2.02,10.091l5.381,6.729l4.038,4.712l0.674,6.728l3.363,12.109c2.691,4.041 6.055,8.075 11.437,13.456l14.129,8.075c6.729,2.693 12.784,6.728 17.495,13.456c5.38,6.059 15.473,8.746 31.622,6.729c4.035,-0.67 8.746,0.671 15.475,3.363l2.69,-0.67l1.347,-1.354c2.017,-8.737 2.691,-15.466 2.017,-20.184c0,-2.688 0.675,-6.051 2.021,-10.092l2.016,-12.779c0,-2.688 -1.346,-7.405 -4.71,-14.133l-4.708,-8.069l0.674,-13.456c1.344,-8.751 1.344,-15.479 0.67,-18.844c-4.708,-15.467 -13.456,-23.548 -26.913,-24.889c-7.397,0 -16.82,2.694 -28.255,9.422l-6.73,3.364Zm55.168,13.456l0.674,5.374l-2.018,22.209l0.674,5.382l4.707,9.415c3.365,4.04 4.038,8.081 4.038,11.445l-1.347,10.092c-2.017,4.035 -2.691,7.398 -2.691,10.763l0,4.033l-0.673,11.44l-15.474,-2.018c-12.782,2.018 -20.857,0.671 -24.222,-4.035c-6.727,-8.081 -14.13,-13.455 -22.202,-15.479l-10.765,-7.398c-4.711,-4.034 -8.076,-8.075 -10.093,-11.439c-0.673,-2.688 -2.017,-6.052 -2.689,-9.415l-0.674,-8.082l-6.729,-8.069l-3.364,-4.709c-1.347,-2.019 -2.018,-4.041 -1.347,-6.729c0,-10.094 5.385,-16.821 14.803,-20.185c5.382,-2.688 10.767,-2.688 17.495,0l6.728,0.677l10.092,-4.042c11.436,-6.728 19.511,-8.744 24.222,-8.744c10.763,0.67 17.491,8.068 20.855,19.514Z" style="fill-rule:nonzero;"/><path d="M280.808,289.609c-1.344,-1.34 -2.018,-1.34 -2.69,0c-0.675,0.676 -0.675,2.023 0,3.363l17.493,21.538c12.783,18.831 22.201,39.016 26.912,61.224c0.674,1.34 2.018,2.018 3.365,1.34c0.673,0 1.347,-1.34 0.673,-2.688c-4.711,-22.201 -14.13,-43.056 -27.586,-62.57l-18.167,-22.207Z" style="fill-rule:nonzero;"/><path d="M313.777,298.36l-16.82,0.671l-8.748,3.364c-11.436,4.033 -18.163,10.762 -20.185,21.53c-1.344,6.053 -1.344,10.77 0,16.145c0,0.677 0.674,1.354 2.69,1.354c1.348,-0.677 1.348,-1.354 1.348,-2.694c-1.348,-4.71 -1.348,-8.751 -0.673,-14.127c2.02,-9.421 8.074,-15.479 18.166,-18.174l8.071,-3.363l14.804,-0.67c4.037,1.346 6.729,4.033 9.419,8.074l2.69,0.678c1.348,0 1.348,-0.678 0.673,-2.694c-2.69,-4.713 -6.053,-8.075 -11.435,-10.094Z" style="fill-rule:nonzero;"/><path d="M311.756,317.875l-10.765,0c-9.417,4.035 -14.799,12.104 -15.473,22.195c0,4.717 0,10.093 1.347,14.133c0.671,1.348 1.344,1.348 2.69,1.348c1.344,-0.671 2.019,-1.348 1.344,-2.694c-1.344,-4.034 -2.017,-8.069 -1.344,-12.109c0.674,-9.416 4.708,-15.475 12.782,-19.508l8.746,0.671c6.057,1.34 10.766,4.703 13.456,9.421c0.673,1.341 1.348,2.011 2.021,0.67c2.018,-0.67 2.018,-1.347 1.344,-2.693c-3.364,-6.059 -8.745,-9.423 -16.148,-11.434Z" style="fill-rule:nonzero;"/><path d="M322.522,344.11l-8.075,-0.676c-4.707,1.353 -7.397,4.04 -9.419,8.751c-3.363,6.059 -3.363,14.127 0,22.879c0.675,2.01 1.348,2.01 2.691,2.01c1.347,-0.669 2.021,-2.01 1.347,-2.688c-3.363,-8.745 -3.363,-15.473 -0.673,-20.184c1.347,-3.364 4.037,-5.381 7.4,-6.729l6.056,0c4.038,2.018 7.401,6.052 10.766,11.439l2.69,1.34c1.347,0 1.347,-1.34 0.673,-2.687c-3.363,-7.402 -8.074,-12.108 -13.456,-13.455Z" style="fill-rule:nonzero;"/><path d="M246.496,310.47c-7.401,-3.363 -16.15,-3.363 -26.242,-0.676c-6.054,1.354 -13.456,6.729 -21.528,14.132c-7.4,6.729 -13.456,10.77 -17.493,10.77l-38.352,2.688c-12.109,3.364 -20.854,10.092 -26.239,19.509c-4.038,7.403 -5.381,15.479 -3.364,24.223c1.347,6.053 4.038,10.094 8.075,13.457l8.072,8.746l4.038,16.819c2.69,7.399 6.728,12.116 10.766,15.481c4.037,2.687 10.092,4.033 16.82,4.703c6.054,0.67 9.418,1.347 10.766,2.694l7.401,10.763c2.691,4.71 5.381,8.074 8.072,9.422c4.711,2.693 21.531,8.745 51.134,16.149c2.69,-8.752 6.729,-16.149 12.109,-22.878l8.749,-10.093c2.69,-3.363 4.038,-6.728 3.363,-9.421l-2.02,-15.475c-0.671,-4.041 0,-8.744 2.02,-13.456l8.072,-14.132c2.021,-5.375 3.364,-9.416 3.364,-14.797c-0.67,-4.034 -2.017,-8.753 -5.381,-14.127l-4.712,-12.786l0,-11.438c0,-5.381 0,-9.416 -1.344,-13.456c-2.69,-8.075 -8.074,-14.134 -16.146,-16.821Z" style="fill:#858585;fill-rule:nonzero;"/><path d="M219.584,306.429c-7.401,2.024 -14.803,7.406 -22.877,15.481c-6.729,6.057 -12.11,9.421 -15.474,9.421l-39.696,2.688c-10.092,3.363 -18.841,8.744 -24.895,16.819c-4.708,6.729 -7.402,14.133 -7.402,22.872l0.674,8.081c2.021,6.729 5.384,12.104 10.092,16.145l6.055,6.728l2.02,8.745l5.382,12.786c2.021,5.382 4.71,9.423 9.418,12.109c4.711,3.363 11.439,5.381 18.841,5.381c4.708,0.67 7.401,1.347 8.072,2.023l5.384,7.398c3.364,6.728 6.729,10.762 10.092,12.786c5.381,2.688 22.202,8.738 51.803,16.82c2.021,0.671 4.038,0 4.712,-2.023c2.691,-8.745 6.729,-15.474 11.439,-21.525l2.689,-3.364l8.072,-9.422c1.348,-3.363 2.694,-6.728 2.021,-10.092l-1.347,-10.763l-0.675,-7.404c0,-2.687 0.675,-5.381 1.348,-8.074l3.364,-6.06c6.054,-10.762 8.744,-18.831 8.744,-24.888c-0.669,-4.712 -2.69,-10.763 -6.053,-17.491c-2.691,-4.04 -4.038,-7.404 -4.038,-9.422l0,-8.751c0,-8.068 0,-12.78 -1.344,-16.821c-3.365,-9.415 -8.75,-15.466 -17.494,-19.507l-28.927,-0.676Zm2.017,6.728c8.076,-2.688 16.147,-2.688 22.201,0c8.076,2.024 13.456,7.406 15.478,15.48l1.344,8.069l0,16.149l4.711,11.438c3.364,6.729 5.381,11.439 5.381,14.804l-2.017,10.763l-5.381,10.762l-4.038,6.729c-1.347,4.041 -2.69,8.082 -2.69,10.769l1.344,9.416l1.347,10.091l0,0.678l-8.074,13.456l-2.691,3.363c-5.381,5.382 -9.419,12.11 -12.783,20.185l-47.096,-15.474l-7.402,-10.091l-6.729,-8.753c-2.69,-2.687 -6.728,-3.364 -12.783,-3.364c-6.728,-0.669 -11.439,-2.687 -14.804,-4.703c-3.363,-2.024 -6.054,-5.388 -8.072,-9.422l-4.037,-12.109l-2.69,-9.416c-0.674,-3.364 -4.038,-6.058 -7.402,-9.422c-4.038,-2.693 -6.729,-7.399 -8.075,-12.116l-0.674,-6.728c0,-7.398 2.02,-13.457 6.728,-19.508c4.711,-6.052 12.113,-10.769 20.858,-13.456l37.678,-2.688c6.054,0 12.783,-4.04 20.183,-11.446c7.402,-7.397 14.131,-12.102 20.185,-13.456Z" style="fill-rule:nonzero;"/><path d="M187.287,333.342c-1.344,-2.011 -2.69,-2.011 -3.364,-1.341c-0.673,1.341 -1.344,2.019 0,3.365l16.146,31.616c11.44,26.913 20.185,55.179 25.569,85.455c0.673,2.01 2.017,2.01 2.69,2.01l2.017,-2.687c-6.054,-30.277 -14.799,-59.877 -26.912,-86.789l-16.146,-31.629Z" style="fill-rule:nonzero;"/><path d="M228.329,334.02c-7.401,-0.678 -15.473,0 -23.548,4.04l-12.783,7.397c-21.531,2.018 -37.004,8.746 -45.08,20.185c-4.037,6.729 -6.728,13.457 -6.728,21.525l0.673,6.058c0,1.347 0.673,1.347 2.017,1.347l1.347,-2.688c-1.347,-8.082 0,-16.149 6.054,-23.548c7.402,-10.769 22.205,-16.82 43.06,-18.844l0.674,-0.67l10.766,-6.729c8.745,-4.034 16.146,-4.711 22.874,-4.034c8.075,2.011 14.803,7.397 20.858,17.491c0.673,1.341 2.017,1.341 2.691,0.67l0.673,-2.694c-6.054,-11.432 -13.456,-17.49 -23.548,-19.506Z" style="fill-rule:nonzero;"/><path d="M253.896,385.155l0.673,-3.363c-10.092,-14.133 -22.201,-20.861 -36.331,-21.538l-17.494,4.041c-14.13,2.018 -24.222,8.075 -30.95,17.497c-6.728,10.092 -8.745,20.854 -5.381,33.642c0,1.34 0,2.009 2.017,1.34c1.347,-0.67 1.347,-1.34 1.347,-2.018l-0.674,-10.092c0.674,-8.074 2.691,-14.803 6.055,-20.185c5.384,-9.415 15.477,-14.134 28.932,-16.82l16.82,-3.364c12.11,0 22.875,6.729 32.295,20.185c0.673,1.346 1.347,1.346 2.691,0.675Z" style="fill-rule:nonzero;"/><path d="M249.861,403.317c-5.385,-9.422 -14.131,-15.475 -24.896,-17.491l-14.803,0c-10.763,2.694 -18.164,11.432 -22.202,24.889c-2.017,6.728 -3.363,13.456 -3.363,20.185c0,0.678 0.673,1.354 2.69,1.354l1.348,-1.354c0,-6.051 1.344,-12.104 2.69,-18.831c4.037,-12.116 10.091,-19.514 20.185,-22.878l12.782,0.671c9.419,1.347 16.819,7.396 21.531,15.479c1.344,1.341 2.69,2.012 3.363,0.671c1.344,-0.672 1.344,-1.348 0.675,-2.695Z" style="fill-rule:nonzero;"/><path d="M202.09,445.032l0,0.677c0,1.341 0.674,2.011 2.018,2.011l2.021,-2.011c0,-4.041 0.67,-7.404 2.017,-11.444c2.018,-8.069 6.729,-12.781 12.783,-13.457l0.673,-0.671l2.017,-1.341l4.712,0c4.711,1.341 8.744,6.053 13.456,13.457c0,0.671 0.673,1.341 2.691,0.671c0.673,-0.671 0.673,-1.347 0.673,-2.024c-4.711,-9.416 -10.092,-14.796 -16.147,-16.144c-4.037,-0.676 -7.401,0 -9.418,2.018c-7.401,1.347 -12.112,6.058 -14.803,14.804c-2.019,4.04 -2.693,9.413 -2.693,13.454Z" style="fill-rule:nonzero;"/></g><rect id="PATH77" x="2.92" y="2.74" width="366.67" height="582.52" style="fill:none;stroke:#000;stroke-width:3px;"/></svg>