<?xml version="1.0" encoding="UTF-8" standalone="no"?><!DOCTYPE svg PUBLIC "-//W3C//DTD SVG 1.1//EN" "http://www.w3.org/Graphics/SVG/1.1/DTD/svg11.dtd"><svg width="100%" height="100%" viewBox="0 0 372 587" version="1.1" xmlns="http://www.w3.org/2000/svg" xmlns:xlink="http://www.w3.org/1999/xlink" xml:space="preserve" xmlns:serif="http://www.serif.com/" style="fill-rule:evenodd;clip-rule:evenodd;stroke-miterlimit:100;"><g><clipPath id="_clip1"><rect x="2.573" y="181.079" width="365.647" height="404.726"/></clipPath><g clip-path="url(#_clip1)"><path d="M149.419,624.701c21.234,-76.69 24.777,-142.168 11.797,-197.624c-3.537,-17.11 -9.436,-32.446 -16.516,-44.833l-8.849,-14.159c-15.929,4.718 -33.039,17.698 -52.505,38.346c-38.934,40.705 -69.02,99.697 -89.666,175.794l155.739,42.476Z" style="fill:#858585;fill-rule:nonzero;"/><path d="M137.621,365.723c-0.588,-0.588 -1.77,-1.174 -2.95,-0.588c-16.518,5.898 -35.396,18.878 -54.274,39.527c-38.933,41.293 -69.019,100.285 -89.667,176.975c-0.591,1.77 0.591,2.952 1.771,3.537c2.355,0.594 2.95,0 4.128,-1.769c19.469,-70.79 46.015,-126.245 81.41,-166.357c19.466,-23.004 38.932,-38.346 56.63,-46.015c6.487,8.851 12.385,20.648 17.697,35.396c8.849,25.958 12.979,55.454 12.979,89.074c0,38.938 -5.899,82.002 -18.878,128.014l0,1.182c0,1.181 1.181,2.361 2.362,2.95c1.768,0.588 3.537,-0.589 3.537,-1.77c20.647,-77.281 24.778,-142.762 12.386,-198.215c-3.538,-17.105 -9.437,-33.034 -16.516,-46.015c-3.536,-7.665 -7.078,-12.977 -10.615,-15.926Z" style="fill-rule:nonzero;"/><path d="M128.771,391.682l11.799,-15.335c5.899,-10.624 5.312,-17.11 -1.77,-19.474c-7.667,-1.769 -11.798,3.544 -11.798,15.93c0,6.492 0.588,12.98 1.769,18.879Z" style="fill:#ffe700;fill-rule:nonzero;"/><path d="M146.469,361.598c-0.588,-2.949 -2.95,-5.313 -7.669,-6.493c-3.542,-1.182 -7.08,-0.588 -10.029,1.769c-4.719,5.313 -5.899,17.111 -1.769,35.396l1.769,2.361l2.362,-1.181c12.386,-13.566 17.699,-24.778 15.336,-31.852Zm-14.16,-1.181l5.312,-1.181l4.131,3.537l0.588,1.774c0,4.718 -3.539,12.386 -11.799,21.82l-1.182,-12.972c-0.001,-7.078 0.593,-11.209 2.95,-12.978Z" style="fill-rule:nonzero;"/><path d="M129.952,389.319c-1.769,0 -2.95,0 -2.95,1.773c-22.416,66.067 -45.425,140.4 -67.841,224.757c-0.591,1.77 0,2.362 1.181,2.949l2.95,-1.768c15.335,-54.862 33.033,-115.034 53.68,-179.926c-13.566,58.397 -28.315,118.571 -44.831,181.106l0,0.587c0,1.182 0.587,2.362 1.768,2.362c1.769,0 2.358,0 2.949,-1.772c22.416,-83.765 40.701,-159.278 54.862,-227.119c0,-1.174 -0.587,-2.355 -1.768,-2.949Z" style="fill-rule:nonzero;"/><path d="M109.306,380.471c-1.77,0 -2.362,1.181 -2.362,2.362l2.362,10.617c1.769,7.669 5.305,15.931 10.03,23.011c0.587,1.769 1.768,1.769 2.949,1.18c1.769,-1.18 1.769,-1.773 0.588,-2.95c-3.537,-7.673 -7.08,-14.748 -8.849,-22.421l-2.362,-9.437c0,-1.769 -0.588,-2.362 -2.356,-2.362Z" style="fill-rule:nonzero;"/><path d="M92.788,394.631c-1.774,0 -2.362,0.59 -2.362,2.362c1.181,4.126 2.95,10.025 5.899,18.287c4.131,12.978 8.261,23.595 12.98,31.265l3.537,0.591c1.181,0 1.768,-1.772 1.181,-2.949c-4.718,-7.674 -9.437,-17.697 -13.567,-30.677l-5.312,-17.697c-0.587,-1.182 -1.18,-1.769 -2.356,-1.182Z" style="fill-rule:nonzero;"/><path d="M74.497,412.916c-1.768,0.594 -2.355,1.774 -1.768,2.951l5.899,18.291c5.899,14.154 13.567,27.729 21.829,40.701l4.131,0.593c0.587,-0.593 1.175,-1.77 0.587,-3.543c-8.849,-11.798 -15.929,-25.364 -21.828,-39.52l-6.488,-17.11c0,-1.769 -1.18,-2.363 -2.362,-2.363Z" style="fill-rule:nonzero;"/><path d="M56.8,435.925c-1.768,0 -1.768,1.182 -1.768,2.95l11.21,25.959c8.256,17.698 17.105,32.445 24.772,43.063l3.542,0c1.181,-0.594 1.181,-1.77 0,-2.95c-7.667,-10.616 -15.929,-24.191 -24.778,-43.063l-10.028,-24.778c-0.588,-1.181 -1.768,-1.768 -2.95,-1.181Z" style="fill-rule:nonzero;"/><path d="M50.901,487.837c8.849,19.466 18.878,37.164 30.676,51.912l2.95,0.594c1.181,-1.181 1.181,-2.361 0.591,-3.544c-11.208,-14.748 -21.237,-31.852 -30.086,-51.317l-10.618,-24.777c0,-1.183 -1.769,-1.77 -2.95,-1.183c-1.768,0.59 -1.768,1.183 -1.768,2.951l11.205,25.364Z" style="fill-rule:nonzero;"/><path d="M72.729,570.427l2.95,0.592c1.181,-0.592 1.768,-1.18 0.591,-2.95c-9.44,-13.572 -20.057,-31.271 -31.267,-52.505l-14.154,-28.908c-1.181,-1.175 -1.771,-1.769 -3.542,-1.175c-1.178,0.588 -2.355,1.769 -1.178,2.951l14.158,29.495c11.795,21.822 22.412,39.52 32.442,52.5Z" style="fill-rule:nonzero;"/><path d="M65.062,598.154l2.95,0.588c1.768,-0.588 1.768,-2.355 0.588,-3.536c-12.387,-14.75 -24.186,-33.628 -34.802,-56.043l-13.57,-30.085c0,-1.181 -1.18,-1.774 -2.951,-1.181c-1.179,0.589 -1.771,1.77 -1.179,2.95l12.977,30.084c11.209,23.008 23.007,42.474 35.987,57.223Z" style="fill-rule:nonzero;"/><path d="M148.832,392.27c-5.9,8.261 -14.749,15.342 -25.959,21.83c-1.769,1.181 -1.769,1.768 -1.181,3.541c1.181,1.175 1.77,1.175 3.542,0.589c11.799,-6.488 21.235,-14.749 27.134,-23.009c1.18,-1.175 1.18,-2.357 -0.588,-2.951l-2.948,0Z" style="fill-rule:nonzero;"/><path d="M155.905,412.329c-14.154,14.748 -27.134,25.958 -40.114,32.445c-1.769,0.589 -1.769,1.771 -0.587,3.537c0,1.182 1.768,1.775 2.949,0.593c12.98,-6.493 26.547,-18.291 41.295,-33.038c1.181,-1.176 1.181,-2.951 0,-3.537l-3.543,0Z" style="fill-rule:nonzero;"/><path d="M162.397,438.287c-13.566,12.973 -31.264,24.772 -53.092,35.395c-1.181,0.589 -1.77,1.176 -1.181,2.95c1.181,1.176 1.768,1.769 2.95,1.176c23.009,-11.206 40.707,-23.005 54.273,-36.572c1.769,-0.592 1.769,-1.772 0,-2.949l-2.95,0Z" style="fill-rule:nonzero;"/><path d="M165.935,466.01c-23.596,19.472 -44.832,32.444 -64.298,40.706c-1.774,0.587 -2.362,1.77 -1.181,3.536c0.587,1.183 1.769,1.774 2.95,0.594c19.466,-7.668 41.295,-21.241 65.479,-41.295c1.18,-0.593 1.18,-1.77 0.593,-2.95c-1.182,-1.18 -2.362,-1.767 -3.543,-0.591Z" style="fill-rule:nonzero;"/><path d="M167.116,494.33l-21.235,15.922c-17.698,12.394 -34.807,22.422 -52.505,28.91c-1.769,0.587 -1.769,1.769 -1.182,3.536c1.182,1.182 1.77,1.182 2.951,0.593c17.111,-6.493 34.807,-16.516 53.093,-28.908l21.828,-16.518c1.181,-0.587 1.181,-2.361 0,-3.535c-0.588,-1.181 -1.77,-1.181 -2.95,0Z" style="fill-rule:nonzero;"/><path d="M165.935,523.826c-28.903,20.054 -56.042,35.982 -80.228,46.601c-1.769,0.592 -2.361,1.768 -1.181,2.949c0.591,1.769 1.181,2.361 2.951,1.769c24.778,-11.204 51.324,-26.545 80.82,-47.781c1.769,-0.587 1.769,-1.768 1.181,-3.536c-1.182,-1.182 -2.362,-1.182 -3.543,-0.002Z" style="fill-rule:nonzero;"/><path d="M163.579,548.599l-25.959,18.877c-21.234,14.159 -41.295,23.597 -58.993,30.678c-1.769,0 -2.36,1.18 -1.182,2.95c0,1.18 1.182,1.769 2.951,1.18c18.291,-6.493 38.344,-17.11 59.585,-31.265l26.546,-19.472c1.175,-0.588 1.175,-1.769 0,-2.949l-2.948,0.001Z" style="fill-rule:nonzero;"/><path d="M322.857,250.102c-9.441,-16.517 -19.474,-31.265 -30.678,-42.476l-13.567,-12.386c-14.16,9.437 -28.907,28.315 -43.656,54.862c-28.909,54.273 -43.656,123.882 -43.656,210.008l-46.6,-2.357l0,38.933c1.769,33.04 8.848,69.023 21.828,106.187l199.393,0l0,-142.763c-0.001,-86.126 -14.161,-155.735 -43.064,-210.008Z" style="fill:#858585;fill-rule:nonzero;"/><path d="M326.394,250.102c-9.436,-17.111 -19.467,-31.265 -30.676,-43.064l-15.337,-14.159c-1.18,-0.589 -2.36,-0.589 -3.543,0c-15.334,11.209 -30.671,29.494 -44.831,56.635c-28.909,53.093 -43.657,122.109 -43.657,207.06l-18.285,-2.36l-25.365,0.591c-1.182,0 -2.362,1.182 -2.95,2.357l0,40.705c1.768,33.034 9.437,68.429 22.416,106.188c0,1.18 1.181,2.361 2.361,2.361l199.393,0l2.354,-1.182l1.182,-2.361l0,-142.763c0.001,-86.126 -14.747,-156.328 -43.062,-210.008Zm-94.387,12.385c14.158,-28.902 29.495,-49.55 46.605,-63.71c17.105,14.16 33.032,34.807 46.601,63.71c25.365,52.505 37.757,117.984 37.757,197.624l0,139.812l-194.086,0c-14.749,-43.65 -22.416,-83.77 -22.416,-120.342c0,-6.492 0.587,-12.979 1.18,-19.471l43.064,2.95l2.361,-1.176l1.174,-1.773c0.002,-79.64 12.395,-145.119 37.76,-197.624Z" style="fill-rule:nonzero;"/><path d="M270.939,202.907c1.773,7.08 4.724,12.979 7.674,19.467c3.537,-6.488 5.899,-12.387 7.668,-19.467c2.951,-12.979 1.182,-19.466 -7.668,-19.466c-8.26,0.001 -10.623,6.488 -7.674,19.466Z" style="fill:#ffe700;fill-rule:nonzero;"/><path d="M278.612,181.079c-4.724,0 -7.674,1.769 -9.441,5.313c-2.356,4.13 -2.356,11.204 0.592,21.234c1.77,5.899 4.126,11.211 7.074,15.929c0,1.181 0.593,1.181 1.773,1.181l1.77,-1.181l7.081,-15.929c3.536,-10.031 3.536,-17.105 1.176,-21.234c-2.357,-3.544 -5.899,-5.313 -10.025,-5.313Zm5.901,7.08l1.175,5.899c0,5.313 -2.95,12.979 -7.075,23.01c-4.724,-10.031 -7.08,-17.697 -7.08,-23.01l1.77,-5.899c0.587,-1.181 2.951,-1.768 5.312,-1.768c2.948,0.001 4.715,0.588 5.898,1.768Z" style="fill-rule:nonzero;"/><path d="M142.931,466.603c5.307,4.132 11.799,7.08 18.285,9.437c-1.768,-7.08 -3.537,-13.567 -7.081,-19.467c-6.487,-11.798 -12.385,-14.746 -18.877,-9.437c-6.487,5.9 -3.538,12.385 7.673,19.467Z" style="fill:#ffe700;fill-rule:nonzero;"/><path d="M133.489,445.362c-2.95,2.949 -4.131,6.491 -3.538,10.622c1.181,7.075 11.799,14.749 30.676,22.415l2.357,-0.592l1.181,-2.356c-5.9,-19.467 -12.979,-30.677 -20.647,-33.039c-2.948,-1.176 -6.486,0 -10.029,2.95Zm9.442,1.774c2.95,1.176 5.9,4.125 8.849,10.025l5.899,14.748c-14.161,-5.898 -22.421,-11.798 -23.009,-17.105l0,-0.591c0,-2.358 0.587,-3.539 2.361,-5.308c1.77,-1.769 3.539,-2.361 5.9,-1.769Z" style="fill-rule:nonzero;"/><path d="M280.97,222.374c0,-1.769 -1.183,-1.769 -2.357,-1.769c-1.774,0 -2.36,0 -2.36,1.769c-5.313,79.051 -7.67,168.127 -7.67,266.644l1.181,74.328c-22.421,-15.922 -46.604,-35.396 -73.151,-58.992l-33.626,-29.495l-2.95,-0.588c-0.588,0.588 -1.182,2.361 -0.588,3.537l31.266,37.17c26.545,29.495 55.452,55.449 86.124,77.277l1.183,1.18l1.181,0l1.18,-1.18c31.265,-21.828 60.173,-47.781 86.721,-77.277l30.67,-37.17c0.594,-1.77 0.594,-2.95 0,-3.537l-3.536,0.588l-33.628,29.495c-26.546,23.596 -50.73,43.07 -72.559,58.992l0.59,-74.328c-0.003,-98.517 -2.953,-187.593 -7.671,-266.644Zm-7.668,347.465l1.18,-2.364l-0.593,-78.458c0,-70.202 1.774,-143.348 4.725,-220.039c3.537,76.691 4.717,149.837 4.717,220.039l-0.591,78.458l1.773,2.364l1.769,0c24.779,-17.697 54.861,-41.295 89.67,-71.974c-29.496,34.809 -61.941,64.304 -96.749,90.259c-35.983,-25.953 -68.429,-56.043 -97.337,-90.259c32.445,28.91 61.941,53.095 89.076,71.974l2.36,0Z" style="fill-rule:nonzero;"/><path d="M255.017,216.474c-1.774,0 -1.774,1.181 -1.774,2.95l5.313,10.03c4.132,7.668 10.03,14.747 17.11,21.828c1.174,1.18 2.356,1.18 3.537,0c0.587,-1.181 0.587,-2.362 0,-3.542c-6.488,-6.487 -12.387,-13.567 -17.11,-20.647l-4.126,-9.436c-0.594,-1.771 -1.775,-1.771 -2.95,-1.183Z" style="fill-rule:nonzero;"/><path d="M241.443,235.353c-1.77,1.181 -2.356,1.769 -1.177,3.538l10.619,17.11c8.255,12.387 15.929,22.415 23.003,29.496l3.543,-0.588c1.181,-1.181 1.181,-2.361 -0.594,-2.95c-6.485,-7.08 -14.747,-16.522 -22.415,-28.908l-10.03,-16.518c-0.587,-1.18 -1.768,-1.767 -2.949,-1.18Z" style="fill-rule:nonzero;"/><path d="M230.239,261.899c-0.593,-1.769 -1.181,-2.361 -2.949,-1.181c-1.183,1.181 -1.183,1.77 -0.595,3.543l11.799,16.517c10.623,13.567 21.829,25.364 34.809,36.575l2.95,-0.594c0.586,-1.181 0.586,-1.768 0,-3.536c-12.389,-10.616 -23.598,-22.415 -34.215,-35.395l-11.799,-15.929Z" style="fill-rule:nonzero;"/><path d="M236.724,312.629l-18.283,-23.003l-2.951,-0.593c-1.181,1.182 -1.181,2.363 -0.593,3.543l18.292,23.003c14.153,17.11 27.133,30.09 38.344,38.938c1.771,1.181 2.95,0.588 3.539,-0.594c1.181,-0.587 1.181,-2.354 -0.591,-3.535c-11.21,-8.261 -24.189,-20.648 -37.757,-37.759Z" style="fill-rule:nonzero;"/><path d="M206.048,317.942c-0.587,1.181 -1.175,2.361 0,3.536l17.697,23.597c15.342,17.698 31.271,33.039 47.194,45.426l2.949,-0.589c1.184,-1.181 1.184,-1.769 0,-3.544c-15.923,-11.798 -31.263,-26.545 -46.598,-44.243l-17.698,-23.598l-3.544,-0.585Z" style="fill-rule:nonzero;"/><path d="M198.975,349.8c-1.182,0.589 -1.182,1.77 0,2.95l23.003,26.545c18.292,19.469 34.215,34.805 48.376,46.014l3.535,0c0.593,-1.18 0.593,-2.361 -0.587,-3.543c-14.159,-11.798 -30.085,-27.134 -47.78,-46.014l-23.011,-25.951l-3.536,-0.001Z" style="fill-rule:nonzero;"/><path d="M194.844,375.752c-1.182,1.183 -1.182,1.771 -0.595,3.543l22.423,27.136c18.285,20.646 35.982,37.756 53.681,49.556l2.95,0c0.586,-1.773 0.586,-2.95 -0.59,-3.542c-17.109,-12.389 -34.219,-28.315 -52.504,-48.964l-21.829,-27.133c-1.181,-1.777 -2.356,-1.777 -3.536,-0.596Z" style="fill-rule:nonzero;"/><path d="M191.894,404.662c-1.181,0.586 -1.181,1.769 -0.593,2.949l25.372,31.264c18.872,21.235 36.571,36.576 53.681,46.606c1.181,0.588 2.36,0 2.949,-1.182c0.588,-1.181 0.588,-2.361 -0.589,-3.544c-16.521,-8.848 -34.219,-24.77 -53.093,-46.011l-24.776,-29.497c-0.596,-1.768 -1.183,-1.768 -2.951,-0.585Z" style="fill-rule:nonzero;"/><path d="M190.125,438.875c-1.773,0.589 -1.773,2.361 -0.593,2.952l22.415,28.907c19.473,20.647 38.345,36.569 58.405,47.194c1.18,1.175 2.95,1.175 3.536,-0.594c0,-1.181 0,-2.355 -1.176,-3.537c-19.471,-10.617 -38.344,-26.547 -57.223,-46.605l-21.828,-27.728c-0.587,-1.177 -2.362,-1.77 -3.536,-0.589Z" style="fill-rule:nonzero;"/><path d="M303.979,219.424c0,-1.769 0,-2.95 -1.18,-2.95l-2.363,0l-0.589,1.181c-4.13,10.03 -11.21,20.059 -21.234,30.083c-1.181,0.594 -1.181,2.362 0,3.542c1.175,1.18 1.769,1.18 2.95,0c10.617,-10.614 18.873,-21.239 22.416,-31.856Z" style="fill-rule:nonzero;"/><path d="M316.958,238.891c1.176,-1.77 0.587,-2.357 -1.182,-3.538c-1.181,-0.587 -2.36,0 -2.951,1.181c-10.617,19.467 -21.239,34.803 -33.038,45.425c-1.175,0.588 -1.175,1.769 0,2.949l2.951,0.589c11.798,-11.211 23.597,-26.547 34.22,-46.606Z" style="fill-rule:nonzero;"/><path d="M326.982,261.899l-11.798,15.93c-10.025,12.979 -21.235,24.778 -33.622,35.395c-1.773,1.77 -1.773,2.355 -0.593,3.536l3.543,0.594c20.055,-17.696 35.982,-35.395 46.013,-53.092c1.182,-1.775 1.182,-2.363 -0.592,-3.543c-1.177,-1.181 -2.951,-0.589 -2.951,1.18Z" style="fill-rule:nonzero;"/><path d="M324.033,315.579l18.29,-23.003c1.182,-1.18 1.182,-2.361 -0.595,-3.543l-2.948,0.593c-19.466,26.547 -38.345,47.195 -56.042,60.761c-1.176,1.181 -1.176,2.949 -0.588,3.536l3.537,0.594c11.212,-8.848 23.597,-21.828 38.346,-38.938Z" style="fill-rule:nonzero;"/><path d="M347.63,318.527l-17.698,23.598c-15.335,17.698 -30.671,32.445 -46.602,44.243c-1.18,1.775 -1.18,2.363 -0.591,3.544c1.181,1.77 2.362,1.77 3.542,0.589c16.519,-12.387 31.854,-27.728 47.195,-45.426l17.697,-23.597c1.181,-1.175 1.181,-2.355 -0.593,-3.536c-1.177,-0.588 -2.358,-0.588 -2.95,0.585Z" style="fill-rule:nonzero;"/><path d="M358.84,352.75c0.587,-1.181 0.587,-2.361 -0.589,-2.95l-3.543,0c-24.777,30.084 -48.374,53.68 -70.79,71.965c-1.181,1.182 -1.181,2.363 -0.59,3.543l3.54,0c22.416,-18.291 46.607,-42.475 71.972,-72.558Z" style="fill-rule:nonzero;"/><path d="M284.513,452.443c-1.774,0.593 -1.774,1.77 -0.594,3.543l3.543,0c17.105,-11.799 35.396,-28.909 53.092,-49.556l21.825,-27.136c1.18,-1.772 1.18,-2.36 0,-3.543l-3.538,0.595l-21.829,27.133c-18.285,20.649 -35.396,36.577 -52.499,48.964Z" style="fill-rule:nonzero;"/><path d="M285.101,480.756c-1.771,1.183 -2.362,2.363 -1.182,3.544c0.594,1.182 1.771,1.77 3.543,1.182c16.517,-10.03 34.215,-25.371 53.68,-46.606l24.778,-31.264c1.181,-1.181 0.588,-2.363 -0.594,-2.949c-1.175,-1.183 -2.355,-1.183 -2.949,0.586l-24.186,29.497c-19.464,21.24 -37.163,37.162 -53.09,46.01Z" style="fill-rule:nonzero;"/><path d="M284.513,513.796c-1.183,1.182 -1.774,2.356 -1.183,3.537c1.183,1.77 2.357,1.77 3.538,0.594c19.467,-10.625 39.525,-26.547 57.813,-47.194l23.008,-28.908c0.588,-0.59 0.588,-2.362 -0.588,-2.951c-1.774,-1.181 -2.361,-0.588 -2.95,0.589l-22.423,27.727c-18.871,20.059 -37.749,35.989 -57.215,46.606Z" style="fill-rule:nonzero;"/><path d="M180.095,455.986c-1.181,0 -1.768,1.175 -1.768,2.949l0.587,35.395c0,1.77 1.181,2.95 2.951,2.95c1.181,0 2.362,-1.181 2.362,-2.95l-1.182,-36.576c-0.593,-1.182 -1.181,-1.768 -2.95,-1.768Z" style="fill-rule:nonzero;"/><path d="M206.642,458.935c-1.181,0 -1.77,1.176 -1.77,2.355l1.175,19.466c0,14.749 0,26.547 -1.175,35.989c0,1.77 1.175,2.357 2.356,2.357c1.768,0.593 2.362,0 2.362,-1.77c1.181,-10.031 1.181,-21.829 1.181,-36.577l-1.181,-20.052c-0.594,-1.182 -1.18,-1.768 -2.948,-1.768Z" style="fill-rule:nonzero;"/><path d="M233.775,486.657l-2.355,-2.952c-1.181,0 -1.773,0.594 -1.773,1.183l-0.588,1.77l-1.769,48.967c0,1.175 0.586,2.357 2.355,2.357l2.949,-1.771l1.181,-49.554Z" style="fill-rule:nonzero;"/><path d="M252.065,551.548l0,-50.144c0,-1.175 -1.18,-2.355 -2.36,-2.355c-1.77,0 -2.363,1.181 -2.363,2.95l0,48.962c0,1.182 0,2.362 1.774,2.362c1.77,-0.001 2.949,-0.594 2.949,-1.775Z" style="fill-rule:nonzero;"/><path d="M177.146,498.454c1.768,0 2.356,-0.589 2.356,-2.355c0,-1.182 -0.588,-1.769 -2.356,-1.769l-32.445,-2.95c-1.769,0 -2.95,0 -2.95,1.77l0,1.768l1.769,0.588l10.029,1.774l23.597,1.174Z" style="fill-rule:nonzero;"/><path d="M199.561,519.103l-53.092,-2.95c-1.769,0 -2.362,0.592 -2.362,1.774c-0.587,1.769 0.594,2.95 2.362,2.95l53.092,2.949c1.181,0 2.363,-0.593 2.363,-1.773c0,-1.77 -1.183,-2.95 -2.363,-2.95Z" style="fill-rule:nonzero;"/><path d="M220.209,544.474l2.949,-1.774c0,-1.769 -1.181,-2.95 -2.361,-2.95l-70.197,-1.175c1.181,0 1.77,1.175 1.77,2.356c0,1.769 -0.588,2.361 -1.77,2.361l69.609,1.182Z" style="fill-rule:nonzero;"/><path d="M152.955,565.119c0,1.175 0.593,2.355 2.363,2.355l33.032,1.771c24.19,0.594 44.244,0.594 58.405,-1.176c1.181,0 2.361,-0.594 2.361,-2.36c0,-1.77 -1.181,-2.363 -2.951,-2.363c-14.159,1.181 -33.625,1.773 -57.816,0.594l-33.033,-1.181c-1.768,0 -2.361,0.587 -2.361,2.36Z" style="fill-rule:nonzero;"/><path d="M306.335,500.817l-1.176,20.06c-1.181,13.566 -1.181,24.77 -0.592,31.265c0,1.768 1.18,2.355 2.36,2.355c1.77,0 2.356,-1.175 2.356,-2.95c-0.588,-6.487 -0.588,-17.104 0,-30.67l1.775,-19.474c0,-1.77 -0.594,-2.95 -1.775,-2.95c-2.355,0.001 -2.948,0.596 -2.948,2.364Z" style="fill-rule:nonzero;"/><path d="M329.932,535.624l-1.175,-49.556c0,-1.77 -1.181,-2.363 -2.362,-2.363c-1.769,0 -2.36,0.594 -2.36,1.775l0.592,50.73l2.95,1.771c1.767,0 2.355,-1.182 2.355,-2.357Z" style="fill-rule:nonzero;"/><path d="M345.272,463.653l-0.591,56.042c0,1.182 1.18,2.355 2.949,2.355c1.18,0 2.36,-1.174 2.36,-2.949l0.59,-55.449c0,-1.77 -1.176,-2.363 -2.95,-2.363c-1.176,0.001 -2.358,0.596 -2.358,2.364Z" style="fill-rule:nonzero;"/><path d="M344.681,531.493c-0.59,1.181 0,2.355 1.18,2.95l19.466,11.204c1.182,0.594 2.362,0 2.95,-1.768c0.593,-1.182 0,-2.356 -0.588,-2.95l-19.467,-10.03c-1.181,-1.173 -2.95,-1.173 -3.541,0.594Z" style="fill-rule:nonzero;"/><path d="M326.982,549.191c-0.589,1.182 -0.589,2.356 0.593,2.951l11.797,5.899c9.437,3.536 18.286,5.898 26.548,7.668l2.354,-1.77c0.594,-1.77 0,-2.95 -1.768,-2.95c-7.668,-1.182 -15.93,-3.543 -25.366,-7.668l-11.212,-4.724c-1.172,-1.173 -2.353,-1.173 -2.946,0.594Z" style="fill-rule:nonzero;"/><path d="M307.517,566.295c-1.182,1.181 -0.59,1.774 1.18,2.951l15.337,7.673c12.978,5.307 26.545,9.437 41.293,13.568c1.774,0 2.95,0 2.95,-1.182c0.593,-1.769 0,-2.95 -1.175,-2.95c-14.748,-4.131 -28.32,-8.261 -41.295,-14.16l-15.341,-7.074c-1.182,-1.182 -1.77,-0.595 -2.949,1.174Z" style="fill-rule:nonzero;"/></g></g><rect id="PATH77" x="2.92" y="2.74" width="366.67" height="582.52" style="fill:none;stroke:#000;stroke-width:3px;"/></svg>