<svg xmlns="http://www.w3.org/2000/svg" xml:space="preserve" style="fill-rule:evenodd;clip-rule:evenodd;stroke-linejoin:round;stroke-miterlimit:2" viewBox="2.39 3.54 40.28 40.18"><path d="M2.4 9.16A5.4 5.4 0 0 1 4.05 5.2a5.4 5.4 0 0 1 3.96-1.66h29.01A5.4 5.4 0 0 1 41 5.2a5.4 5.4 0 0 1 1.67 3.96V38.1A5.4 5.4 0 0 1 41 42.06a5.4 5.4 0 0 1-3.96 1.66H8.02a5.4 5.4 0 0 1-3.97-1.66 5.4 5.4 0 0 1-1.66-3.96V9.16Zm34.63 33.05c1.13 0 2.1-.4 2.9-1.22a3.97 3.97 0 0 0 1.23-2.9V9.16c0-1.12-.41-2.09-1.22-2.9a3.96 3.96 0 0 0-2.9-1.22H8.01c-1.13 0-2.1.4-2.91 1.22a3.97 3.97 0 0 0-1.22 2.9V38.1c0 1.12.4 2.09 1.22 2.9A3.97 3.97 0 0 0 8 42.21h29.02Z" style="fill-rule:nonzero"/><path d="M27.8 23.74c0 1.47-.52 2.7-1.55 3.7a5.19 5.19 0 0 1-3.75 1.5 5.16 5.16 0 0 1-5.3-5.2 5.28 5.28 0 0 1 9.05-3.82 5.24 5.24 0 0 1 1.55 3.82Z" style="fill:#e71e31;fill-rule:nonzero"/></svg>