<?xml version="1.0" encoding="UTF-8" standalone="no"?><!DOCTYPE svg PUBLIC "-//W3C//DTD SVG 1.1//EN" "http://www.w3.org/Graphics/SVG/1.1/DTD/svg11.dtd"><svg width="100%" height="100%" viewBox="0 0 950 950" version="1.1" xmlns="http://www.w3.org/2000/svg" xmlns:xlink="http://www.w3.org/1999/xlink" xml:space="preserve" xmlns:serif="http://www.serif.com/" style="fill-rule:evenodd;clip-rule:evenodd;stroke-linejoin:round;stroke-miterlimit:2;"><g><g id="Board"><rect x="25" y="25" width="900" height="900" style="fill:#f2f2f2;"/><path d="M930,25c0,-2.761 -2.239,-5 -5,-5l-900,0c-2.761,0 -5,2.239 -5,5l0,900c0,2.761 2.239,5 5,5l900,0c2.761,0 5,-2.239 5,-5l0,-900Zm-5,0l-900,0l0,900l900,0l0,-900Z"/><rect x="25" y="25" width="100" height="100" style="fill:#5dacab;"/><rect x="25" y="825" width="100" height="100" style="fill:#5dacab;"/><rect x="225" y="25" width="100" height="100" style="fill:#5dacab;"/><rect x="225" y="825" width="100" height="100" style="fill:#5dacab;"/><rect x="425" y="25" width="100" height="100" style="fill:#5dacab;"/><rect x="425" y="825" width="100" height="100" style="fill:#5dacab;"/><rect x="625" y="25" width="100" height="100" style="fill:#5dacab;"/><rect x="625" y="825" width="100" height="100" style="fill:#5dacab;"/><rect x="825" y="25" width="100" height="100" style="fill:#5dacab;"/><rect x="25" y="225" width="100" height="100" style="fill:#c13e34;"/><rect x="225" y="225" width="100" height="100" style="fill:#c13e34;"/><rect x="425" y="225" width="100" height="100" style="fill:#c13e34;"/><rect x="625" y="225" width="100" height="100" style="fill:#c13e34;"/><rect x="825" y="225" width="100" height="100" style="fill:#c13e34;"/><rect x="25" y="425" width="100" height="100"/><rect x="225" y="425" width="100" height="100"/><rect x="425" y="425" width="100" height="100"/><rect x="625" y="425" width="100" height="100"/><rect x="825" y="425" width="100" height="100"/><rect x="125" y="325" width="100" height="100"/><rect x="325" y="325" width="100" height="100"/><rect x="525" y="325" width="100" height="100"/><rect x="725" y="325" width="100" height="100"/><rect x="125" y="525" width="100" height="100"/><rect x="325" y="525" width="100" height="100"/><rect x="525" y="525" width="100" height="100"/><rect x="725" y="525" width="100" height="100"/><rect x="25" y="625" width="100" height="100" style="fill:#c13e34;"/><rect x="225" y="625" width="100" height="100" style="fill:#c13e34;"/><rect x="425" y="625" width="100" height="100" style="fill:#c13e34;"/><rect x="625" y="625" width="100" height="100" style="fill:#c13e34;"/><rect x="825" y="625" width="100" height="100" style="fill:#c13e34;"/><rect x="125" y="725" width="100" height="100" style="fill:#76994c;"/><rect x="125" y="125" width="100" height="100" style="fill:#76994c;"/><rect x="325" y="725" width="100" height="100" style="fill:#76994c;"/><rect x="325" y="125" width="100" height="100" style="fill:#76994c;"/><rect x="525" y="725" width="100" height="100" style="fill:#76994c;"/><rect x="525" y="125" width="100" height="100" style="fill:#76994c;"/><rect x="725" y="725" width="100" height="100" style="fill:#76994c;"/><rect x="725" y="125" width="100" height="100" style="fill:#76994c;"/><rect x="825" y="825" width="100" height="100" style="fill:#5dacab;"/></g></g></svg>