<?xml version="1.0" encoding="UTF-8" standalone="no"?><!DOCTYPE svg PUBLIC "-//W3C//DTD SVG 1.1//EN" "http://www.w3.org/Graphics/SVG/1.1/DTD/svg11.dtd"><svg width="100%" height="100%" viewBox="0 0 320 220" version="1.1" xmlns="http://www.w3.org/2000/svg" xmlns:xlink="http://www.w3.org/1999/xlink" xml:space="preserve" xmlns:serif="http://www.serif.com/" style="fill-rule:evenodd;clip-rule:evenodd;stroke-linejoin:round;stroke-miterlimit:2;"><g><g><circle cx="160" cy="164.375" r="37.5" style="fill:#ebebeb;"/><path d="M160,121.875c-23.456,0 -42.5,19.044 -42.5,42.5c0,23.456 19.044,42.5 42.5,42.5c23.456,0 42.5,-19.044 42.5,-42.5c0,-23.456 -19.044,-42.5 -42.5,-42.5Zm0,5c20.697,0 37.5,16.803 37.5,37.5c0,20.697 -16.803,37.5 -37.5,37.5c-20.697,0 -37.5,-16.803 -37.5,-37.5c0,-20.697 16.803,-37.5 37.5,-37.5Z"/><path d="M148.946,172.196c0,1.438 0.719,2.067 2.157,1.888c1.078,-0.18 1.618,-0.809 1.618,-1.888c-0,-1.258 -0.629,-1.887 -1.888,-1.887c-1.258,0 -1.887,0.629 -1.887,1.887Zm19.412,4.584l-0,-1.618l-18.603,0l-0,1.618l18.603,-0Zm-11.324,-4.314c0.18,1.438 0.989,2.157 2.427,2.157c1.617,-0 2.336,-0.719 2.157,-2.157c0.179,-1.438 -0.54,-2.157 -2.157,-2.157c-1.438,0 -2.247,0.719 -2.427,2.157Zm13.211,-2.427l-0.809,-1.617l-20.76,-0l-0.808,1.617l22.377,0Zm-4.853,1.888c0,1.258 0.629,1.797 1.887,1.617c0.899,-0.179 1.348,-0.719 1.348,-1.617c0,-1.079 -0.539,-1.618 -1.617,-1.618c-1.079,0 -1.618,0.539 -1.618,1.618Zm-11.863,-16.716l0,8.088l5.393,0l-0,-8.088l3.504,0l0,-4.314l-3.504,0l-0,-6.74l-5.393,0l0,6.74l-3.774,0l-0,4.314l3.774,0Zm13.211,9.976c0.539,-0 0.989,-0.18 1.348,-0.54c2.157,-2.516 3.236,-5.661 3.236,-9.436c-0,-3.056 -0.899,-6.021 -2.697,-8.897c-1.617,-2.516 -3.594,-4.493 -5.931,-5.931c-0.18,-0 -0.359,-0.09 -0.539,-0.27c-0.899,0 -1.348,0.449 -1.348,1.348c-0,0.18 0.18,0.449 0.539,0.809c1.438,1.258 2.876,3.505 4.314,6.74c1.078,2.337 1.617,4.583 1.617,6.74c0.18,2.696 -0.269,5.123 -1.348,7.28c0,0.359 -0.089,0.809 -0.269,1.348c0.18,0.539 0.539,0.809 1.078,0.809Zm19.682,14.289c-1.438,1.797 -2.067,3.235 -1.888,4.313c0.18,0.899 1.169,2.067 2.966,3.505l-11.324,0c-6.111,0 -10.514,-0.898 -13.21,-2.696c-1.798,-1.258 -2.966,-1.887 -3.505,-1.887c-0.719,0 -1.528,0.36 -2.427,1.078c-2.696,2.337 -7.099,3.505 -13.21,3.505l-11.324,0c1.977,-1.617 2.966,-2.875 2.966,-3.774c-0,-1.079 -0.629,-2.427 -1.888,-4.044c3.236,0.898 6.651,1.168 10.246,0.809c2.696,-0.18 5.302,-0.54 7.818,-1.079l0,-1.348l-2.696,0c-1.438,0 -2.337,-0.539 -2.696,-1.618c-0,-0.539 0.27,-1.078 0.809,-1.617c0.899,-0.719 1.348,-1.528 1.348,-2.427c-0,-0.719 -0.36,-1.438 -1.079,-2.157c-0.539,-0.359 -0.808,-0.808 -0.808,-1.348c0.179,-0.719 0.719,-1.617 1.617,-2.696c-1.258,-1.078 -2.426,-2.606 -3.505,-4.583c-1.258,-2.516 -1.797,-5.033 -1.617,-7.549c0.359,-5.033 2.965,-9.526 7.818,-13.48c-0.539,-1.259 -0.808,-2.427 -0.808,-3.505c-0,-1.618 0.539,-3.056 1.617,-4.314c0.539,-0.719 1.258,-0.989 2.157,-0.809c1.258,0.36 1.977,1.618 2.157,3.775c0.18,1.258 0.449,2.336 0.809,3.235c0.719,1.078 1.438,1.618 2.157,1.618c1.437,0.179 2.156,-0.989 2.156,-3.505l0,-2.427c0.18,-1.797 0.719,-2.786 1.618,-2.965c1.258,-0.18 2.337,0.449 3.235,1.887c0.719,0.899 1.079,1.977 1.079,3.235c-0,0.719 -0.18,1.258 -0.539,1.618c-0.36,0.539 -0.54,1.258 -0.54,2.157c5.393,4.313 8.089,9.436 8.089,15.367c-0,1.618 -0.36,3.415 -1.079,5.392c-0.539,2.157 -1.438,3.775 -2.696,4.853c1.079,1.259 1.528,2.157 1.348,2.696c0.18,0.54 0,0.989 -0.539,1.348c-0.719,0.54 -1.168,1.259 -1.348,2.157c-0,0.899 0.359,1.618 1.078,2.157c0.899,0.719 1.348,1.258 1.348,1.618c0.18,1.258 -0.719,1.887 -2.696,1.887l-2.696,0l0,1.348c3.235,0.719 6.74,1.079 10.515,1.079c3.235,0.179 6.291,-0.09 9.167,-0.809Z" style="fill:#76994c;fill-rule:nonzero;"/></g><g><circle cx="273.75" cy="164.375" r="37.5" style="fill:#ebebeb;"/><path d="M273.75,121.875c-23.456,0 -42.5,19.044 -42.5,42.5c0,23.456 19.044,42.5 42.5,42.5c23.456,0 42.5,-19.044 42.5,-42.5c0,-23.456 -19.044,-42.5 -42.5,-42.5Zm0,5c20.697,0 37.5,16.803 37.5,37.5c0,20.697 -16.803,37.5 -37.5,37.5c-20.697,0 -37.5,-16.803 -37.5,-37.5c0,-20.697 16.803,-37.5 37.5,-37.5Z"/><path d="M262.696,172.196c0,1.438 0.719,2.067 2.157,1.888c1.078,-0.18 1.618,-0.809 1.618,-1.888c-0,-1.258 -0.629,-1.887 -1.888,-1.887c-1.258,0 -1.887,0.629 -1.887,1.887Zm19.412,4.584l-0,-1.618l-18.603,0l-0,1.618l18.603,-0Zm-11.324,-4.314c0.18,1.438 0.989,2.157 2.427,2.157c1.617,-0 2.336,-0.719 2.157,-2.157c0.179,-1.438 -0.54,-2.157 -2.157,-2.157c-1.438,0 -2.247,0.719 -2.427,2.157Zm13.211,-2.427l-0.809,-1.617l-20.76,-0l-0.808,1.617l22.377,0Zm-4.853,1.888c0,1.258 0.629,1.797 1.887,1.617c0.899,-0.179 1.348,-0.719 1.348,-1.617c0,-1.079 -0.539,-1.618 -1.617,-1.618c-1.079,0 -1.618,0.539 -1.618,1.618Zm-11.863,-16.716l0,8.088l5.393,0l-0,-8.088l3.504,0l0,-4.314l-3.504,0l-0,-6.74l-5.393,0l0,6.74l-3.774,0l-0,4.314l3.774,0Zm13.211,9.976c0.539,-0 0.989,-0.18 1.348,-0.54c2.157,-2.516 3.236,-5.661 3.236,-9.436c-0,-3.056 -0.899,-6.021 -2.697,-8.897c-1.617,-2.516 -3.594,-4.493 -5.931,-5.931c-0.18,-0 -0.359,-0.09 -0.539,-0.27c-0.899,0 -1.348,0.449 -1.348,1.348c-0,0.18 0.18,0.449 0.539,0.809c1.438,1.258 2.876,3.505 4.314,6.74c1.078,2.337 1.617,4.583 1.617,6.74c0.18,2.696 -0.269,5.123 -1.348,7.28c0,0.359 -0.089,0.809 -0.269,1.348c0.18,0.539 0.539,0.809 1.078,0.809Zm19.682,14.289c-1.438,1.797 -2.067,3.235 -1.888,4.313c0.18,0.899 1.169,2.067 2.966,3.505l-11.324,0c-6.111,0 -10.514,-0.898 -13.21,-2.696c-1.798,-1.258 -2.966,-1.887 -3.505,-1.887c-0.719,0 -1.528,0.36 -2.427,1.078c-2.696,2.337 -7.099,3.505 -13.21,3.505l-11.324,0c1.977,-1.617 2.966,-2.875 2.966,-3.774c-0,-1.079 -0.629,-2.427 -1.888,-4.044c3.236,0.898 6.651,1.168 10.246,0.809c2.696,-0.18 5.302,-0.54 7.818,-1.079l0,-1.348l-2.696,0c-1.438,0 -2.337,-0.539 -2.696,-1.618c0,-0.539 0.27,-1.078 0.809,-1.617c0.899,-0.719 1.348,-1.528 1.348,-2.427c-0,-0.719 -0.36,-1.438 -1.079,-2.157c-0.539,-0.359 -0.808,-0.808 -0.808,-1.348c0.179,-0.719 0.719,-1.617 1.617,-2.696c-1.258,-1.078 -2.426,-2.606 -3.505,-4.583c-1.258,-2.516 -1.797,-5.033 -1.617,-7.549c0.359,-5.033 2.965,-9.526 7.818,-13.48c-0.539,-1.259 -0.808,-2.427 -0.808,-3.505c-0,-1.618 0.539,-3.056 1.617,-4.314c0.539,-0.719 1.258,-0.989 2.157,-0.809c1.258,0.36 1.977,1.618 2.157,3.775c0.18,1.258 0.449,2.336 0.809,3.235c0.719,1.078 1.438,1.618 2.157,1.618c1.437,0.179 2.156,-0.989 2.156,-3.505l0,-2.427c0.18,-1.797 0.719,-2.786 1.618,-2.965c1.258,-0.18 2.337,0.449 3.235,1.887c0.719,0.899 1.079,1.977 1.079,3.235c-0,0.719 -0.18,1.258 -0.539,1.618c-0.36,0.539 -0.54,1.258 -0.54,2.157c5.393,4.313 8.089,9.436 8.089,15.367c-0,1.618 -0.36,3.415 -1.079,5.392c-0.539,2.157 -1.438,3.775 -2.696,4.853c1.079,1.259 1.528,2.157 1.348,2.696c0.18,0.54 0,0.989 -0.539,1.348c-0.719,0.54 -1.168,1.259 -1.348,2.157c-0,0.899 0.359,1.618 1.078,2.157c0.899,0.719 1.348,1.258 1.348,1.618c0.18,1.258 -0.719,1.887 -2.696,1.887l-2.696,0l0,1.348c3.235,0.719 6.74,1.079 10.515,1.079c3.235,0.179 6.291,-0.09 9.167,-0.809Z" style="fill:#c13e34;fill-rule:nonzero;"/></g><g><circle cx="46.25" cy="164.375" r="37.5" style="fill:#ebebeb;"/><path d="M46.25,121.875c-23.456,0 -42.5,19.044 -42.5,42.5c0,23.456 19.044,42.5 42.5,42.5c23.456,0 42.5,-19.044 42.5,-42.5c0,-23.456 -19.044,-42.5 -42.5,-42.5Zm0,5c20.697,0 37.5,16.803 37.5,37.5c0,20.697 -16.803,37.5 -37.5,37.5c-20.697,0 -37.5,-16.803 -37.5,-37.5c0,-20.697 16.803,-37.5 37.5,-37.5Z"/><path d="M35.196,172.196c0,1.438 0.719,2.067 2.157,1.888c1.078,-0.18 1.618,-0.809 1.618,-1.888c-0,-1.258 -0.629,-1.887 -1.888,-1.887c-1.258,0 -1.887,0.629 -1.887,1.887Zm19.412,4.584l-0,-1.618l-18.603,0l-0,1.618l18.603,-0Zm-11.324,-4.314c0.18,1.438 0.989,2.157 2.427,2.157c1.617,-0 2.336,-0.719 2.157,-2.157c0.179,-1.438 -0.54,-2.157 -2.157,-2.157c-1.438,0 -2.247,0.719 -2.427,2.157Zm13.211,-2.427l-0.809,-1.617l-20.76,-0l-0.808,1.617l22.377,0Zm-4.853,1.888c0,1.258 0.629,1.797 1.887,1.617c0.899,-0.179 1.348,-0.719 1.348,-1.617c0,-1.079 -0.539,-1.618 -1.617,-1.618c-1.079,0 -1.618,0.539 -1.618,1.618Zm-11.863,-16.716l0,8.088l5.393,0l-0,-8.088l3.504,0l0,-4.314l-3.504,0l-0,-6.74l-5.393,0l0,6.74l-3.774,0l-0,4.314l3.774,0Zm13.211,9.976c0.539,-0 0.989,-0.18 1.348,-0.54c2.157,-2.516 3.236,-5.661 3.236,-9.436c-0,-3.056 -0.899,-6.021 -2.697,-8.897c-1.617,-2.516 -3.594,-4.493 -5.931,-5.931c-0.18,-0 -0.359,-0.09 -0.539,-0.27c-0.899,0 -1.348,0.449 -1.348,1.348c-0,0.18 0.18,0.449 0.539,0.809c1.438,1.258 2.876,3.505 4.314,6.74c1.078,2.337 1.617,4.583 1.617,6.74c0.18,2.696 -0.269,5.123 -1.348,7.28c0,0.359 -0.089,0.809 -0.269,1.348c0.18,0.539 0.539,0.809 1.078,0.809Zm19.682,14.289c-1.438,1.797 -2.067,3.235 -1.888,4.313c0.18,0.899 1.169,2.067 2.966,3.505l-11.324,0c-6.111,0 -10.514,-0.898 -13.21,-2.696c-1.798,-1.258 -2.966,-1.887 -3.505,-1.887c-0.719,0 -1.528,0.36 -2.427,1.078c-2.696,2.337 -7.099,3.505 -13.21,3.505l-11.324,0c1.977,-1.617 2.966,-2.875 2.966,-3.774c-0,-1.079 -0.629,-2.427 -1.888,-4.044c3.236,0.898 6.651,1.168 10.246,0.809c2.696,-0.18 5.302,-0.54 7.818,-1.079l0,-1.348l-2.696,0c-1.438,0 -2.337,-0.539 -2.696,-1.618c0,-0.539 0.27,-1.078 0.809,-1.617c0.899,-0.719 1.348,-1.528 1.348,-2.427c-0,-0.719 -0.36,-1.438 -1.079,-2.157c-0.539,-0.359 -0.808,-0.808 -0.808,-1.348c0.179,-0.719 0.719,-1.617 1.617,-2.696c-1.258,-1.078 -2.426,-2.606 -3.505,-4.583c-1.258,-2.516 -1.797,-5.033 -1.617,-7.549c0.359,-5.033 2.965,-9.526 7.818,-13.48c-0.539,-1.259 -0.808,-2.427 -0.808,-3.505c-0,-1.618 0.539,-3.056 1.617,-4.314c0.539,-0.719 1.258,-0.989 2.157,-0.809c1.258,0.36 1.977,1.618 2.157,3.775c0.18,1.258 0.449,2.336 0.809,3.235c0.719,1.078 1.438,1.618 2.157,1.618c1.437,0.179 2.156,-0.989 2.156,-3.505l0,-2.427c0.18,-1.797 0.719,-2.786 1.618,-2.965c1.258,-0.18 2.337,0.449 3.235,1.887c0.719,0.899 1.079,1.977 1.079,3.235c-0,0.719 -0.18,1.258 -0.539,1.618c-0.36,0.539 -0.54,1.258 -0.54,2.157c5.393,4.313 8.089,9.436 8.089,15.367c-0,1.618 -0.36,3.415 -1.079,5.392c-0.539,2.157 -1.438,3.775 -2.696,4.853c1.079,1.259 1.528,2.157 1.348,2.696c0.18,0.54 0,0.989 -0.539,1.348c-0.719,0.54 -1.168,1.259 -1.348,2.157c-0,0.899 0.359,1.618 1.078,2.157c0.899,0.719 1.348,1.258 1.348,1.618c0.18,1.258 -0.719,1.887 -2.696,1.887l-2.696,0l0,1.348c3.235,0.719 6.74,1.079 10.515,1.079c3.235,0.179 6.291,-0.09 9.167,-0.809Z" style="fill:#5dacab;fill-rule:nonzero;"/></g><g><circle cx="160" cy="55.625" r="37.5" style="fill:#ebebeb;"/><path d="M160,13.125c-23.456,0 -42.5,19.044 -42.5,42.5c0,23.456 19.044,42.5 42.5,42.5c23.456,0 42.5,-19.044 42.5,-42.5c0,-23.456 -19.044,-42.5 -42.5,-42.5Zm0,5c20.697,0 37.5,16.803 37.5,37.5c0,20.697 -16.803,37.5 -37.5,37.5c-20.697,0 -37.5,-16.803 -37.5,-37.5c0,-20.697 16.803,-37.5 37.5,-37.5Z"/><path d="M162.696,38.103l0,-0.539c0,-0.359 0.18,-0.539 0.539,-0.539c0.54,0.18 0.719,0.269 0.54,0.269c0.359,0.719 0.449,1.348 0.269,1.888c0,1.078 -0.359,1.977 -1.078,2.696c-0.54,0.719 -1.348,1.078 -2.427,1.078c-0.898,0 -1.348,-0.269 -1.348,-0.809c0.18,-0.539 0.539,-0.898 1.079,-1.078c1.617,-0.36 2.426,-1.348 2.426,-2.966Zm-9.436,35.858c-3.056,0.899 -4.584,1.797 -4.584,2.696c0,1.618 3.775,2.337 11.324,2.157c7.549,0.18 11.324,-0.539 11.324,-2.157c-0,-0.719 -1.349,-1.528 -4.045,-2.426c-2.336,-0.54 -4.942,-0.809 -7.818,-0.809c-2.696,0.18 -4.763,0.359 -6.201,0.539Zm-8.088,1.078c0.539,0.18 0.988,0 1.348,-0.539c3.415,-2.336 8.627,-3.415 15.637,-3.235c4.853,0.359 8.627,1.438 11.323,3.235c0.36,0.539 0.809,0.719 1.348,0.539c0.719,0.18 1.079,-0.179 1.079,-1.078c-0,-0.539 -0.27,-1.078 -0.809,-1.618c-1.078,-1.078 -2.696,-2.067 -4.853,-2.965c-3.235,-1.258 -6.56,-1.888 -9.975,-1.888c-2.696,0 -5.393,0.36 -8.089,1.079c-3.055,0.899 -5.482,2.157 -7.279,3.774c-0.539,0.719 -0.809,1.259 -0.809,1.618c0.18,0.719 0.539,1.078 1.079,1.078Zm23.455,-8.357c1.079,0.539 1.888,0.719 2.427,0.539c1.078,0.18 1.618,-0.36 1.618,-1.618c-0,-0.898 -0.27,-1.617 -0.809,-2.157c-0.36,-0.179 -0.989,-0.449 -1.888,-0.808c-1.437,-0.54 -2.516,-0.809 -3.235,-0.809c-0.719,-0 -1.078,0.359 -1.078,1.078c-0,1.258 0.18,2.067 0.539,2.427c0.539,0.359 1.348,0.808 2.426,1.348Zm7.819,3.505c1.258,-0 1.797,-0.719 1.618,-2.157c-0,-1.618 -0.629,-2.427 -1.888,-2.427c-1.078,0 -1.617,0.719 -1.617,2.157c0.18,1.618 0.809,2.427 1.887,2.427Zm-34.51,-2.157c0,1.438 0.539,2.157 1.618,2.157c1.258,-0 1.887,-0.809 1.887,-2.427c0,-1.438 -0.539,-2.157 -1.617,-2.157c-1.079,0 -1.708,0.809 -1.888,2.427Zm9.706,-1.348c1.079,-0.54 1.798,-0.989 2.157,-1.348c0.359,-0.54 0.539,-1.259 0.539,-2.157c0.18,-0.899 -0.18,-1.348 -1.078,-1.348c-0.719,-0 -1.798,0.269 -3.235,0.809c-1.079,0.539 -1.708,0.808 -1.888,0.808c-0.539,0.54 -0.809,1.259 -0.809,2.157c0,1.258 0.54,1.798 1.618,1.618c0.719,0.18 1.618,-0 2.696,-0.539Zm5.392,-3.236c0,1.259 1.169,1.888 3.505,1.888c1.977,-0 3.056,-0.629 3.236,-1.888c0.179,-1.797 -0.899,-2.696 -3.236,-2.696c-0.898,0 -1.707,0.18 -2.426,0.539c-0.539,0.36 -0.899,1.079 -1.079,2.157Zm-12.402,-28.308c2.696,-0 5.123,1.078 7.28,3.235c0.18,-0.899 0.539,-1.977 1.078,-3.235c-3.235,-1.259 -5.931,-1.888 -8.088,-1.888c-2.516,0 -4.673,0.899 -6.471,2.696c-1.977,2.157 -2.875,5.033 -2.696,8.628c0.36,3.415 1.708,7.189 4.044,11.323c0.899,1.618 1.348,2.876 1.348,3.775c0.719,-0.36 1.438,-0.809 2.157,-1.348c-3.415,-6.83 -5.212,-11.773 -5.392,-14.829c0,-1.797 0.629,-3.594 1.887,-5.392c1.259,-1.617 2.876,-2.606 4.853,-2.965Zm-0.808,19.142c0.539,1.078 0.988,2.067 1.348,2.965c3.415,-1.617 7.009,-2.786 10.784,-3.505c-0.18,-1.437 -0.629,-2.965 -1.348,-4.583c-0.36,-0.539 -0.719,-0.809 -1.079,-0.809c-0.539,0 -0.988,1.079 -1.348,3.236c0.18,-1.618 -0.089,-2.966 -0.808,-4.045c-0.54,-0.898 -1.259,-1.348 -2.157,-1.348c-1.258,0.36 -1.888,1.978 -1.888,4.853c0.18,0.54 0.27,1.079 0.27,1.618c-0.359,-1.797 -1.078,-2.696 -2.157,-2.696c-1.078,-0 -1.617,1.438 -1.617,4.314Zm33.701,9.166c0.539,-0.539 0.988,-1.438 1.348,-2.696c-6.651,-3.954 -13.391,-5.661 -20.221,-5.122c-6.471,0.539 -12.043,2.606 -16.716,6.201c0.36,0.359 0.629,0.898 0.809,1.617c4.853,-3.235 10.605,-4.853 17.255,-4.853c7.01,0 12.761,1.708 17.255,5.123l0.27,-0.27Zm-27.77,-19.411c1.438,0.179 2.606,0.898 3.505,2.156c0.18,0 0.359,-0.089 0.539,-0.269c-0.359,-1.079 -0.809,-2.067 -1.348,-2.966c-1.797,-3.595 -4.044,-5.482 -6.74,-5.662c-1.438,0 -2.606,0.45 -3.505,1.348c-1.438,1.438 -2.157,3.056 -2.157,4.853c0.18,1.618 0.899,4.044 2.157,7.28c1.078,-1.798 2.157,-2.696 3.235,-2.696c0.36,-1.079 0.899,-2.067 1.618,-2.966c0.899,-0.719 1.797,-1.078 2.696,-1.078Zm8.358,9.436l4.044,-0c0.539,-2.337 1.078,-4.673 1.618,-7.01c-1.259,0.899 -2.697,1.258 -4.314,1.078c-1.258,0 -2.337,-0.269 -3.236,-0.808c0.899,2.336 1.528,4.583 1.888,6.74Zm6.201,-0c3.954,0.359 7.639,1.348 11.054,2.966c0.539,-0.719 0.808,-1.438 0.808,-2.157c0,-2.876 -0.539,-4.314 -1.617,-4.314c-0.719,-0 -1.438,0.899 -2.157,2.696l-0,-2.426c-0.18,-2.697 -0.899,-4.045 -2.157,-4.045c-0.539,0.18 -1.078,0.63 -1.618,1.348c-0.539,1.259 -0.808,2.607 -0.808,4.045c-0.18,-2.157 -0.629,-3.236 -1.348,-3.236c-0.36,0 -0.719,0.27 -1.079,0.809c-0.18,1.438 -0.539,2.876 -1.078,4.314Zm-5.123,-8.088c1.977,0.179 3.595,-0.36 4.853,-1.618c1.258,-1.438 1.798,-3.056 1.618,-4.853c-0.18,-1.438 -0.719,-2.606 -1.618,-3.505c-1.258,-1.258 -2.696,-1.887 -4.314,-1.887c-1.258,-0 -2.606,0.629 -4.044,1.887c-1.258,1.079 -1.887,2.427 -1.887,4.044c0.18,1.798 0.809,3.236 1.887,4.314c0.899,0.899 2.067,1.438 3.505,1.618Zm-2.966,-13.211l2.697,-2.157l-2.966,-2.426l0.269,4.583Zm18.334,15.907c1.258,-0 2.336,0.898 3.235,2.696c1.079,-2.696 1.708,-4.943 1.887,-6.74c0.18,-2.157 -0.449,-3.955 -1.887,-5.393c-0.899,-0.898 -2.067,-1.348 -3.505,-1.348c-2.516,0.18 -4.583,1.708 -6.201,4.584c-0.359,0.719 -0.988,2.067 -1.887,4.044c0.18,0.18 0.359,0.269 0.539,0.269c0.899,-1.258 2.067,-1.977 3.505,-2.156c0.899,-0 1.887,0.449 2.966,1.348c0.719,0.719 1.168,1.617 1.348,2.696Zm4.583,10.514c0.18,-0.898 0.629,-1.887 1.348,-2.965c2.696,-4.314 4.044,-8.448 4.044,-12.402c0,-3.056 -0.898,-5.482 -2.696,-7.28c-1.797,-1.797 -4.044,-2.696 -6.74,-2.696c-2.157,0 -4.943,0.629 -8.358,1.888c0.539,1.078 0.899,2.246 1.079,3.504c1.797,-2.156 3.864,-3.325 6.201,-3.504c2.156,-0.18 3.954,0.449 5.392,1.887c1.617,1.617 2.426,3.505 2.426,5.662c0.18,3.235 -1.348,8.178 -4.583,14.828c0.539,0.539 1.168,0.899 1.887,1.078Zm-19.142,-29.387l3.235,-2.696c-0.179,0 -0.449,-0.18 -0.809,-0.539l-5.122,-0c-0.18,0.359 -0.36,0.539 -0.539,0.539l3.235,2.696Zm1.078,0.809l2.966,2.426l0,-4.852l-2.966,2.426Zm14.02,1.078c3.056,0 5.752,1.079 8.088,3.236c2.337,2.157 3.505,5.122 3.505,8.897c0,4.493 -1.528,9.166 -4.583,14.019l-0.27,0.54c-0.359,0.539 -0.539,1.258 -0.539,2.156c0.18,0.899 -0.449,2.427 -1.887,4.584l-0.539,0.809c0.539,0.719 0.808,1.797 0.808,3.235c0,1.797 -0.719,2.966 -2.156,3.505c0.539,0.719 0.808,1.528 0.808,2.426c0.18,1.977 -1.348,3.595 -4.583,4.853c-2.516,1.079 -7.1,1.618 -13.75,1.618c-6.291,-0 -10.964,-0.539 -14.02,-1.618c-3.055,-1.078 -4.583,-2.696 -4.583,-4.853c0,-0.898 0.27,-1.707 0.809,-2.426c-1.438,-0.719 -2.157,-1.887 -2.157,-3.505c0,-1.438 0.359,-2.606 1.078,-3.505l-0.269,-0.539c-1.258,-2.337 -1.887,-3.865 -1.887,-4.584c-0,-0.898 -0.18,-1.617 -0.54,-2.156l-0.539,-0.54c-2.516,-4.134 -3.954,-8.268 -4.314,-12.402c-0.359,-4.493 0.809,-8.088 3.505,-10.784c2.157,-1.977 4.763,-2.966 7.819,-2.966c2.516,0 5.482,0.629 8.897,1.888l0,-5.662c0,-0.899 0.359,-1.618 1.078,-2.157c0.54,-0.539 1.348,-0.899 2.427,-1.078l5.122,-0c1.259,-0 2.157,0.269 2.697,0.808c0.719,0.719 1.078,1.618 1.078,2.697l-0,5.661c3.595,-1.258 6.56,-1.977 8.897,-2.157Z" style="fill:#76994c;fill-rule:nonzero;"/></g><g><circle cx="273.75" cy="55.625" r="37.5" style="fill:#ebebeb;"/><path d="M273.75,13.125c-23.456,0 -42.5,19.044 -42.5,42.5c0,23.456 19.044,42.5 42.5,42.5c23.456,0 42.5,-19.044 42.5,-42.5c0,-23.456 -19.044,-42.5 -42.5,-42.5Zm0,5c20.697,0 37.5,16.803 37.5,37.5c0,20.697 -16.803,37.5 -37.5,37.5c-20.697,0 -37.5,-16.803 -37.5,-37.5c0,-20.697 16.803,-37.5 37.5,-37.5Z"/><path d="M276.446,38.103l0,-0.539c0,-0.359 0.18,-0.539 0.539,-0.539c0.54,0.18 0.719,0.269 0.54,0.269c0.359,0.719 0.449,1.348 0.269,1.888c0,1.078 -0.359,1.977 -1.078,2.696c-0.54,0.719 -1.348,1.078 -2.427,1.078c-0.898,0 -1.348,-0.269 -1.348,-0.809c0.18,-0.539 0.539,-0.898 1.079,-1.078c1.617,-0.36 2.426,-1.348 2.426,-2.966Zm-9.436,35.858c-3.056,0.899 -4.584,1.797 -4.584,2.696c0,1.618 3.775,2.337 11.324,2.157c7.549,0.18 11.324,-0.539 11.324,-2.157c-0,-0.719 -1.349,-1.528 -4.045,-2.426c-2.336,-0.54 -4.942,-0.809 -7.818,-0.809c-2.696,0.18 -4.763,0.359 -6.201,0.539Zm-8.088,1.078c0.539,0.18 0.988,0 1.348,-0.539c3.415,-2.336 8.627,-3.415 15.637,-3.235c4.853,0.359 8.627,1.438 11.323,3.235c0.36,0.539 0.809,0.719 1.348,0.539c0.719,0.18 1.079,-0.179 1.079,-1.078c-0,-0.539 -0.27,-1.078 -0.809,-1.618c-1.078,-1.078 -2.696,-2.067 -4.853,-2.965c-3.235,-1.258 -6.56,-1.888 -9.975,-1.888c-2.696,0 -5.393,0.36 -8.089,1.079c-3.055,0.899 -5.482,2.157 -7.279,3.774c-0.539,0.719 -0.809,1.259 -0.809,1.618c0.18,0.719 0.539,1.078 1.079,1.078Zm23.455,-8.357c1.079,0.539 1.888,0.719 2.427,0.539c1.078,0.18 1.618,-0.36 1.618,-1.618c-0,-0.898 -0.27,-1.617 -0.809,-2.157c-0.36,-0.179 -0.989,-0.449 -1.888,-0.808c-1.437,-0.54 -2.516,-0.809 -3.235,-0.809c-0.719,-0 -1.078,0.359 -1.078,1.078c-0,1.258 0.18,2.067 0.539,2.427c0.539,0.359 1.348,0.808 2.426,1.348Zm7.819,3.505c1.258,-0 1.797,-0.719 1.618,-2.157c-0,-1.618 -0.629,-2.427 -1.888,-2.427c-1.078,0 -1.617,0.719 -1.617,2.157c0.18,1.618 0.809,2.427 1.887,2.427Zm-34.51,-2.157c0,1.438 0.539,2.157 1.618,2.157c1.258,-0 1.887,-0.809 1.887,-2.427c0,-1.438 -0.539,-2.157 -1.617,-2.157c-1.079,0 -1.708,0.809 -1.888,2.427Zm9.706,-1.348c1.079,-0.54 1.798,-0.989 2.157,-1.348c0.359,-0.54 0.539,-1.259 0.539,-2.157c0.18,-0.899 -0.18,-1.348 -1.078,-1.348c-0.719,-0 -1.798,0.269 -3.235,0.809c-1.079,0.539 -1.708,0.808 -1.888,0.808c-0.539,0.54 -0.809,1.259 -0.809,2.157c0,1.258 0.54,1.798 1.618,1.618c0.719,0.18 1.618,-0 2.696,-0.539Zm5.392,-3.236c0,1.259 1.169,1.888 3.505,1.888c1.977,-0 3.056,-0.629 3.236,-1.888c0.179,-1.797 -0.899,-2.696 -3.236,-2.696c-0.898,0 -1.707,0.18 -2.426,0.539c-0.539,0.36 -0.899,1.079 -1.079,2.157Zm-12.402,-28.308c2.696,-0 5.123,1.078 7.28,3.235c0.18,-0.899 0.539,-1.977 1.078,-3.235c-3.235,-1.259 -5.931,-1.888 -8.088,-1.888c-2.516,0 -4.673,0.899 -6.471,2.696c-1.977,2.157 -2.875,5.033 -2.696,8.628c0.36,3.415 1.708,7.189 4.044,11.323c0.899,1.618 1.348,2.876 1.348,3.775c0.719,-0.36 1.438,-0.809 2.157,-1.348c-3.415,-6.83 -5.212,-11.773 -5.392,-14.829c0,-1.797 0.629,-3.594 1.887,-5.392c1.259,-1.617 2.876,-2.606 4.853,-2.965Zm-0.808,19.142c0.539,1.078 0.988,2.067 1.348,2.965c3.415,-1.617 7.009,-2.786 10.784,-3.505c-0.18,-1.437 -0.629,-2.965 -1.348,-4.583c-0.36,-0.539 -0.719,-0.809 -1.079,-0.809c-0.539,0 -0.988,1.079 -1.348,3.236c0.18,-1.618 -0.089,-2.966 -0.808,-4.045c-0.54,-0.898 -1.259,-1.348 -2.157,-1.348c-1.258,0.36 -1.888,1.978 -1.888,4.853c0.18,0.54 0.27,1.079 0.27,1.618c-0.359,-1.797 -1.078,-2.696 -2.157,-2.696c-1.078,-0 -1.617,1.438 -1.617,4.314Zm33.701,9.166c0.539,-0.539 0.988,-1.438 1.348,-2.696c-6.651,-3.954 -13.391,-5.661 -20.221,-5.122c-6.471,0.539 -12.043,2.606 -16.716,6.201c0.36,0.359 0.629,0.898 0.809,1.617c4.853,-3.235 10.605,-4.853 17.255,-4.853c7.01,0 12.761,1.708 17.255,5.123l0.27,-0.27Zm-27.77,-19.411c1.438,0.179 2.606,0.898 3.505,2.156c0.18,0 0.359,-0.089 0.539,-0.269c-0.359,-1.079 -0.809,-2.067 -1.348,-2.966c-1.797,-3.595 -4.044,-5.482 -6.74,-5.662c-1.438,0 -2.606,0.45 -3.505,1.348c-1.438,1.438 -2.157,3.056 -2.157,4.853c0.18,1.618 0.899,4.044 2.157,7.28c1.078,-1.798 2.157,-2.696 3.235,-2.696c0.36,-1.079 0.899,-2.067 1.618,-2.966c0.899,-0.719 1.797,-1.078 2.696,-1.078Zm8.358,9.436l4.044,-0c0.539,-2.337 1.078,-4.673 1.618,-7.01c-1.259,0.899 -2.697,1.258 -4.314,1.078c-1.258,0 -2.337,-0.269 -3.236,-0.808c0.899,2.336 1.528,4.583 1.888,6.74Zm6.201,-0c3.954,0.359 7.639,1.348 11.054,2.966c0.539,-0.719 0.808,-1.438 0.808,-2.157c0,-2.876 -0.539,-4.314 -1.617,-4.314c-0.719,-0 -1.438,0.899 -2.157,2.696l-0,-2.426c-0.18,-2.697 -0.899,-4.045 -2.157,-4.045c-0.539,0.18 -1.078,0.63 -1.618,1.348c-0.539,1.259 -0.808,2.607 -0.808,4.045c-0.18,-2.157 -0.629,-3.236 -1.348,-3.236c-0.36,0 -0.719,0.27 -1.079,0.809c-0.18,1.438 -0.539,2.876 -1.078,4.314Zm-5.123,-8.088c1.977,0.179 3.595,-0.36 4.853,-1.618c1.258,-1.438 1.798,-3.056 1.618,-4.853c-0.18,-1.438 -0.719,-2.606 -1.618,-3.505c-1.258,-1.258 -2.696,-1.887 -4.314,-1.887c-1.258,-0 -2.606,0.629 -4.044,1.887c-1.258,1.079 -1.887,2.427 -1.887,4.044c0.18,1.798 0.809,3.236 1.887,4.314c0.899,0.899 2.067,1.438 3.505,1.618Zm-2.966,-13.211l2.697,-2.157l-2.966,-2.426l0.269,4.583Zm18.334,15.907c1.258,-0 2.336,0.898 3.235,2.696c1.079,-2.696 1.708,-4.943 1.887,-6.74c0.18,-2.157 -0.449,-3.955 -1.887,-5.393c-0.899,-0.898 -2.067,-1.348 -3.505,-1.348c-2.516,0.18 -4.583,1.708 -6.201,4.584c-0.359,0.719 -0.988,2.067 -1.887,4.044c0.18,0.18 0.359,0.269 0.539,0.269c0.899,-1.258 2.067,-1.977 3.505,-2.156c0.899,-0 1.887,0.449 2.966,1.348c0.719,0.719 1.168,1.617 1.348,2.696Zm4.583,10.514c0.18,-0.898 0.629,-1.887 1.348,-2.965c2.696,-4.314 4.044,-8.448 4.044,-12.402c0,-3.056 -0.898,-5.482 -2.696,-7.28c-1.797,-1.797 -4.044,-2.696 -6.74,-2.696c-2.157,0 -4.943,0.629 -8.358,1.888c0.539,1.078 0.899,2.246 1.079,3.504c1.797,-2.156 3.864,-3.325 6.201,-3.504c2.156,-0.18 3.954,0.449 5.392,1.887c1.617,1.617 2.426,3.505 2.426,5.662c0.18,3.235 -1.348,8.178 -4.583,14.828c0.539,0.539 1.168,0.899 1.887,1.078Zm-19.142,-29.387l3.235,-2.696c-0.179,0 -0.449,-0.18 -0.809,-0.539l-5.122,-0c-0.18,0.359 -0.36,0.539 -0.539,0.539l3.235,2.696Zm1.078,0.809l2.966,2.426l0,-4.852l-2.966,2.426Zm14.02,1.078c3.056,0 5.752,1.079 8.088,3.236c2.337,2.157 3.505,5.122 3.505,8.897c0,4.493 -1.528,9.166 -4.583,14.019l-0.27,0.54c-0.359,0.539 -0.539,1.258 -0.539,2.156c0.18,0.899 -0.449,2.427 -1.887,4.584l-0.539,0.809c0.539,0.719 0.808,1.797 0.808,3.235c0,1.797 -0.719,2.966 -2.156,3.505c0.539,0.719 0.808,1.528 0.808,2.426c0.18,1.977 -1.348,3.595 -4.583,4.853c-2.516,1.079 -7.1,1.618 -13.75,1.618c-6.291,-0 -10.964,-0.539 -14.02,-1.618c-3.055,-1.078 -4.583,-2.696 -4.583,-4.853c0,-0.898 0.27,-1.707 0.809,-2.426c-1.438,-0.719 -2.157,-1.887 -2.157,-3.505c0,-1.438 0.359,-2.606 1.078,-3.505l-0.269,-0.539c-1.258,-2.337 -1.887,-3.865 -1.887,-4.584c-0,-0.898 -0.18,-1.617 -0.54,-2.156l-0.539,-0.54c-2.516,-4.134 -3.954,-8.268 -4.314,-12.402c-0.359,-4.493 0.809,-8.088 3.505,-10.784c2.157,-1.977 4.763,-2.966 7.819,-2.966c2.516,0 5.482,0.629 8.897,1.888l0,-5.662c0,-0.899 0.359,-1.618 1.078,-2.157c0.54,-0.539 1.348,-0.899 2.427,-1.078l5.122,-0c1.259,-0 2.157,0.269 2.697,0.808c0.719,0.719 1.078,1.618 1.078,2.697l-0,5.661c3.595,-1.258 6.56,-1.977 8.897,-2.157Z" style="fill:#c13e34;fill-rule:nonzero;"/></g><g><circle cx="46.25" cy="55.625" r="37.5" style="fill:#ebebeb;"/><path d="M46.25,13.125c-23.456,0 -42.5,19.044 -42.5,42.5c0,23.456 19.044,42.5 42.5,42.5c23.456,0 42.5,-19.044 42.5,-42.5c0,-23.456 -19.044,-42.5 -42.5,-42.5Zm0,5c20.697,0 37.5,16.803 37.5,37.5c0,20.697 -16.803,37.5 -37.5,37.5c-20.697,0 -37.5,-16.803 -37.5,-37.5c0,-20.697 16.803,-37.5 37.5,-37.5Z"/><path d="M48.946,38.103l0,-0.539c0,-0.359 0.18,-0.539 0.539,-0.539c0.54,0.18 0.719,0.269 0.54,0.269c0.359,0.719 0.449,1.348 0.269,1.888c0,1.078 -0.359,1.977 -1.078,2.696c-0.54,0.719 -1.348,1.078 -2.427,1.078c-0.898,0 -1.348,-0.269 -1.348,-0.809c0.18,-0.539 0.539,-0.898 1.079,-1.078c1.617,-0.36 2.426,-1.348 2.426,-2.966Zm-9.436,35.858c-3.056,0.899 -4.584,1.797 -4.584,2.696c0,1.618 3.775,2.337 11.324,2.157c7.549,0.18 11.324,-0.539 11.324,-2.157c-0,-0.719 -1.349,-1.528 -4.045,-2.426c-2.336,-0.54 -4.942,-0.809 -7.818,-0.809c-2.696,0.18 -4.763,0.359 -6.201,0.539Zm-8.088,1.078c0.539,0.18 0.988,0 1.348,-0.539c3.415,-2.336 8.627,-3.415 15.637,-3.235c4.853,0.359 8.627,1.438 11.323,3.235c0.36,0.539 0.809,0.719 1.348,0.539c0.719,0.18 1.079,-0.179 1.079,-1.078c-0,-0.539 -0.27,-1.078 -0.809,-1.618c-1.078,-1.078 -2.696,-2.067 -4.853,-2.965c-3.235,-1.258 -6.56,-1.888 -9.975,-1.888c-2.696,0 -5.393,0.36 -8.089,1.079c-3.055,0.899 -5.482,2.157 -7.279,3.774c-0.539,0.719 -0.809,1.259 -0.809,1.618c0.18,0.719 0.539,1.078 1.079,1.078Zm23.455,-8.357c1.079,0.539 1.888,0.719 2.427,0.539c1.078,0.18 1.618,-0.36 1.618,-1.618c-0,-0.898 -0.27,-1.617 -0.809,-2.157c-0.36,-0.179 -0.989,-0.449 -1.888,-0.808c-1.437,-0.54 -2.516,-0.809 -3.235,-0.809c-0.719,-0 -1.078,0.359 -1.078,1.078c-0,1.258 0.18,2.067 0.539,2.427c0.539,0.359 1.348,0.808 2.426,1.348Zm7.819,3.505c1.258,-0 1.797,-0.719 1.618,-2.157c-0,-1.618 -0.629,-2.427 -1.888,-2.427c-1.078,0 -1.617,0.719 -1.617,2.157c0.18,1.618 0.809,2.427 1.887,2.427Zm-34.51,-2.157c0,1.438 0.539,2.157 1.618,2.157c1.258,-0 1.887,-0.809 1.887,-2.427c0,-1.438 -0.539,-2.157 -1.617,-2.157c-1.079,0 -1.708,0.809 -1.888,2.427Zm9.706,-1.348c1.079,-0.54 1.798,-0.989 2.157,-1.348c0.359,-0.54 0.539,-1.259 0.539,-2.157c0.18,-0.899 -0.18,-1.348 -1.078,-1.348c-0.719,-0 -1.798,0.269 -3.235,0.809c-1.079,0.539 -1.708,0.808 -1.888,0.808c-0.539,0.54 -0.809,1.259 -0.809,2.157c0,1.258 0.54,1.798 1.618,1.618c0.719,0.18 1.618,-0 2.696,-0.539Zm5.392,-3.236c0,1.259 1.169,1.888 3.505,1.888c1.977,-0 3.056,-0.629 3.236,-1.888c0.179,-1.797 -0.899,-2.696 -3.236,-2.696c-0.898,0 -1.707,0.18 -2.426,0.539c-0.539,0.36 -0.899,1.079 -1.079,2.157Zm-12.402,-28.308c2.696,-0 5.123,1.078 7.28,3.235c0.18,-0.899 0.539,-1.977 1.078,-3.235c-3.235,-1.259 -5.931,-1.888 -8.088,-1.888c-2.516,0 -4.673,0.899 -6.471,2.696c-1.977,2.157 -2.875,5.033 -2.696,8.628c0.36,3.415 1.708,7.189 4.044,11.323c0.899,1.618 1.348,2.876 1.348,3.775c0.719,-0.36 1.438,-0.809 2.157,-1.348c-3.415,-6.83 -5.212,-11.773 -5.392,-14.829c0,-1.797 0.629,-3.594 1.887,-5.392c1.259,-1.617 2.876,-2.606 4.853,-2.965Zm-0.808,19.142c0.539,1.078 0.988,2.067 1.348,2.965c3.415,-1.617 7.009,-2.786 10.784,-3.505c-0.18,-1.437 -0.629,-2.965 -1.348,-4.583c-0.36,-0.539 -0.719,-0.809 -1.079,-0.809c-0.539,0 -0.988,1.079 -1.348,3.236c0.18,-1.618 -0.089,-2.966 -0.808,-4.045c-0.54,-0.898 -1.259,-1.348 -2.157,-1.348c-1.258,0.36 -1.888,1.978 -1.888,4.853c0.18,0.54 0.27,1.079 0.27,1.618c-0.359,-1.797 -1.078,-2.696 -2.157,-2.696c-1.078,-0 -1.617,1.438 -1.617,4.314Zm33.701,9.166c0.539,-0.539 0.988,-1.438 1.348,-2.696c-6.651,-3.954 -13.391,-5.661 -20.221,-5.122c-6.471,0.539 -12.043,2.606 -16.716,6.201c0.36,0.359 0.629,0.898 0.809,1.617c4.853,-3.235 10.605,-4.853 17.255,-4.853c7.01,0 12.761,1.708 17.255,5.123l0.27,-0.27Zm-27.77,-19.411c1.438,0.179 2.606,0.898 3.505,2.156c0.18,0 0.359,-0.089 0.539,-0.269c-0.359,-1.079 -0.809,-2.067 -1.348,-2.966c-1.797,-3.595 -4.044,-5.482 -6.74,-5.662c-1.438,0 -2.606,0.45 -3.505,1.348c-1.438,1.438 -2.157,3.056 -2.157,4.853c0.18,1.618 0.899,4.044 2.157,7.28c1.078,-1.798 2.157,-2.696 3.235,-2.696c0.36,-1.079 0.899,-2.067 1.618,-2.966c0.899,-0.719 1.797,-1.078 2.696,-1.078Zm8.358,9.436l4.044,-0c0.539,-2.337 1.078,-4.673 1.618,-7.01c-1.259,0.899 -2.697,1.258 -4.314,1.078c-1.258,0 -2.337,-0.269 -3.236,-0.808c0.899,2.336 1.528,4.583 1.888,6.74Zm6.201,-0c3.954,0.359 7.639,1.348 11.054,2.966c0.539,-0.719 0.808,-1.438 0.808,-2.157c0,-2.876 -0.539,-4.314 -1.617,-4.314c-0.719,-0 -1.438,0.899 -2.157,2.696l-0,-2.426c-0.18,-2.697 -0.899,-4.045 -2.157,-4.045c-0.539,0.18 -1.078,0.63 -1.618,1.348c-0.539,1.259 -0.808,2.607 -0.808,4.045c-0.18,-2.157 -0.629,-3.236 -1.348,-3.236c-0.36,0 -0.719,0.27 -1.079,0.809c-0.18,1.438 -0.539,2.876 -1.078,4.314Zm-5.123,-8.088c1.977,0.179 3.595,-0.36 4.853,-1.618c1.258,-1.438 1.798,-3.056 1.618,-4.853c-0.18,-1.438 -0.719,-2.606 -1.618,-3.505c-1.258,-1.258 -2.696,-1.887 -4.314,-1.887c-1.258,-0 -2.606,0.629 -4.044,1.887c-1.258,1.079 -1.887,2.427 -1.887,4.044c0.18,1.798 0.809,3.236 1.887,4.314c0.899,0.899 2.067,1.438 3.505,1.618Zm-2.966,-13.211l2.697,-2.157l-2.966,-2.426l0.269,4.583Zm18.334,15.907c1.258,-0 2.336,0.898 3.235,2.696c1.079,-2.696 1.708,-4.943 1.887,-6.74c0.18,-2.157 -0.449,-3.955 -1.887,-5.393c-0.899,-0.898 -2.067,-1.348 -3.505,-1.348c-2.516,0.18 -4.583,1.708 -6.201,4.584c-0.359,0.719 -0.988,2.067 -1.887,4.044c0.18,0.18 0.359,0.269 0.539,0.269c0.899,-1.258 2.067,-1.977 3.505,-2.156c0.899,-0 1.887,0.449 2.966,1.348c0.719,0.719 1.168,1.617 1.348,2.696Zm4.583,10.514c0.18,-0.898 0.629,-1.887 1.348,-2.965c2.696,-4.314 4.044,-8.448 4.044,-12.402c0,-3.056 -0.898,-5.482 -2.696,-7.28c-1.797,-1.797 -4.044,-2.696 -6.74,-2.696c-2.157,0 -4.943,0.629 -8.358,1.888c0.539,1.078 0.899,2.246 1.079,3.504c1.797,-2.156 3.864,-3.325 6.201,-3.504c2.156,-0.18 3.954,0.449 5.392,1.887c1.617,1.617 2.426,3.505 2.426,5.662c0.18,3.235 -1.348,8.178 -4.583,14.828c0.539,0.539 1.168,0.899 1.887,1.078Zm-19.142,-29.387l3.235,-2.696c-0.179,0 -0.449,-0.18 -0.809,-0.539l-5.122,-0c-0.18,0.359 -0.36,0.539 -0.539,0.539l3.235,2.696Zm1.078,0.809l2.966,2.426l0,-4.852l-2.966,2.426Zm14.02,1.078c3.056,0 5.752,1.079 8.088,3.236c2.337,2.157 3.505,5.122 3.505,8.897c0,4.493 -1.528,9.166 -4.583,14.019l-0.27,0.54c-0.359,0.539 -0.539,1.258 -0.539,2.156c0.18,0.899 -0.449,2.427 -1.887,4.584l-0.539,0.809c0.539,0.719 0.808,1.797 0.808,3.235c0,1.797 -0.719,2.966 -2.156,3.505c0.539,0.719 0.808,1.528 0.808,2.426c0.18,1.977 -1.348,3.595 -4.583,4.853c-2.516,1.079 -7.1,1.618 -13.75,1.618c-6.291,-0 -10.964,-0.539 -14.02,-1.618c-3.055,-1.078 -4.583,-2.696 -4.583,-4.853c0,-0.898 0.27,-1.707 0.809,-2.426c-1.438,-0.719 -2.157,-1.887 -2.157,-3.505c0,-1.438 0.359,-2.606 1.078,-3.505l-0.269,-0.539c-1.258,-2.337 -1.887,-3.865 -1.887,-4.584c-0,-0.898 -0.18,-1.617 -0.54,-2.156l-0.539,-0.54c-2.516,-4.134 -3.954,-8.268 -4.314,-12.402c-0.359,-4.493 0.809,-8.088 3.505,-10.784c2.157,-1.977 4.763,-2.966 7.819,-2.966c2.516,0 5.482,0.629 8.897,1.888l0,-5.662c0,-0.899 0.359,-1.618 1.078,-2.157c0.54,-0.539 1.348,-0.899 2.427,-1.078l5.122,-0c1.259,-0 2.157,0.269 2.697,0.808c0.719,0.719 1.078,1.618 1.078,2.697l-0,5.661c3.595,-1.258 6.56,-1.977 8.897,-2.157Z" style="fill:#5dacab;fill-rule:nonzero;"/></g></g></svg>