<?xml version="1.0" encoding="UTF-8" standalone="no"?>
<!-- Created with Inkscape (http://www.inkscape.org/) -->

<svg
   xmlns:osb="http://www.openswatchbook.org/uri/2009/osb"
   xmlns:dc="http://purl.org/dc/elements/1.1/"
   xmlns:cc="http://creativecommons.org/ns#"
   xmlns:rdf="http://www.w3.org/1999/02/22-rdf-syntax-ns#"
   xmlns:svg="http://www.w3.org/2000/svg"
   xmlns="http://www.w3.org/2000/svg"
   xmlns:sodipodi="http://sodipodi.sourceforge.net/DTD/sodipodi-0.dtd"
   xmlns:inkscape="http://www.inkscape.org/namespaces/inkscape"
   width="744.09448819"
   height="1052.3622047"
   id="svg2"
   version="1.1"
   inkscape:version="0.48.2 r9819"
   sodipodi:docname="500_vectored_logo.svg">
  <defs
     id="defs4">
    <linearGradient
       id="linearGradient3854"
       osb:paint="solid">
      <stop
         style="stop-color:#000000;stop-opacity:1;"
         offset="0"
         id="stop3856" />
    </linearGradient>
  </defs>
  <sodipodi:namedview
     id="base"
     pagecolor="#ffffff"
     bordercolor="#666666"
     borderopacity="1.0"
     inkscape:pageopacity="0.0"
     inkscape:pageshadow="2"
     inkscape:zoom="0.98994949"
     inkscape:cx="539.42403"
     inkscape:cy="884.09302"
     inkscape:document-units="px"
     inkscape:current-layer="layer1"
     showgrid="false"
     inkscape:window-width="1920"
     inkscape:window-height="1138"
     inkscape:window-x="-8"
     inkscape:window-y="-8"
     inkscape:window-maximized="1" />
  <metadata
     id="metadata7">
    <rdf:RDF>
      <cc:Work
         rdf:about="">
        <dc:format>image/svg+xml</dc:format>
        <dc:type
           rdf:resource="http://purl.org/dc/dcmitype/StillImage" />
        <dc:title></dc:title>
      </cc:Work>
    </rdf:RDF>
  </metadata>
  <g
     inkscape:label="Layer 1"
     inkscape:groupmode="layer"
     id="layer1">
    <path
       style="fill:#4a97a2;fill-opacity:1;stroke:none"
       d="m 391.00948,45.436302 c -25.20648,1.432232 -46.50075,17.529889 -65.17857,32.946429 -10.00245,4.918052 -18.22721,14.288595 -27.69151,20.607442 -11.73651,7.884257 -31.70665,24.907017 -37.12226,29.058387 -6.64026,2.65521 -13.0635,10.89796 -20.40944,5.33417 -15.04677,-7.1188 -32.7148,-4.15065 -48.25893,-6.42857 17.49043,-18.08678 37.8376,-33.803341 56.38393,-50.625001 8.3773,-4.334396 9.69641,-15.62153 7.23214,-23.616071 -21.38891,-2.82982 -43.42567,-0.300002 -65.04407,-0.793658 -16.88903,1.044601 -34.56376,-1.418379 -50.93807,3.070443 -25.75199,21.486488 -51.540662,43.571369 -76.919645,65.580357 0.954284,32.71753 -0.363189,65.82116 2.678572,98.30357 5.780845,1.73114 10.090307,11.08559 16.517857,9.10714 24.216966,-18.55124 58.937566,-16.13827 86.205356,-5.75892 16.74439,7.19031 30.60404,21.03065 38.57143,37.05357 5.53377,13.21987 12.66906,28.86044 7.23214,43.70536 -0.43185,7.37015 -7.03848,11.72678 -14.19643,10.22321 -13.73678,0.60003 -27.04257,-4.1161 -37.72321,-12.00893 -13.37954,-10.75951 -25.66967,-26.03188 -29.77679,-43.30357 0.82749,-9.25836 -10.94469,-3.99503 -16.65178,-5.04464 -5.72478,0.0916 -8.3768,5.60194 -13.4375,7.09821 -15.546059,13.11607 -34.460912,22.35746 -48.88393,36.65179 -2.790618,8.6009 5.106779,16.8973 7.414762,24.86534 0.752248,3.82119 4.087273,6.45517 6.022738,8.88466 10.075932,18.7187 28.713528,32.67884 48.39286,40.44643 29.69248,9.65722 52.50611,5.8496 73.70367,-4.62926 21.19756,-10.47885 57.43655,-41.16278 63.73944,-42.87091 10.31393,-2.79514 43.81503,32.34773 67.4155,38.44159 25.26647,6.52404 50.51719,-4.2576 79.73947,-19.26722 13.10225,-6.72979 39.544,-20.29103 45.16825,-20.24523 8.96275,0.073 16.19914,20.38499 39.70603,31.20898 23.50689,10.824 58.6488,13.95137 110.12585,-10.80759 24.1724,-12.11793 59.2604,-25.69976 76.65926,-54.03316 23.24886,-33.27868 30.4125,-75.35533 26.7336,-115.29721 -3.4904,-44.37282 -21.00009,-91.305877 -60.27827,-115.839434 -25.52279,-17.044895 -60.45516,-15.189374 -85.69596,1.500523 -23.41619,15.3343 -47.42477,30.578572 -70.99006,45.633561 -7.42858,1.9818 -8.13825,-9.465038 -12.5,-13.080359 -17.33887,-25.93883 -45.5679,-46.863913 -77.94643,-46.071429 z m 211.60715,3.794643 c 8.24044,-0.735108 15.00023,3.99987 22.67857,5.848214 34.57911,15.629302 55.68498,50.756551 64.40898,86.564491 10.48082,46.95134 6.56125,99.59332 -19.49827,140.75694 -17.68171,28.01244 -51.6692,48.01731 -85.40178,40.625 -30.45177,-6.045 -52.7004,-31.29576 -65.35715,-58.4375 -8.14417,-16.87996 -12.83805,-35.75823 -14.41185,-54.5066 -1.25372,-29.08717 -2.4089,-59.04229 8.07005,-86.76197 3.45226,-8.49457 5.95355,-18.45523 11.16323,-25.829647 5.17089,-6.052337 8.17769,-13.613982 14.50893,-19.107142 15.87217,-18.204969 39.44967,-29.80551 63.83929,-29.151786 z m -204.6875,0.535714 c 14.14805,1.30374 28.65871,5.761584 39.33035,14.955357 9.99872,4.799712 16.73226,15.346817 24.15179,23.616072 21.06604,30.683532 30.1248,68.442022 29.01016,105.535552 0.99573,27.19966 -6.32039,54.1471 -17.1798,78.79481 -13.98407,27.79022 -39.19882,53.6189 -71.96429,55.17857 -14.62007,1.03614 -30.32821,-0.61709 -42.09821,-9.64286 -26.73897,-15.02983 -43.39849,-44.06007 -51.60715,-72.99107 -7.84524,-26.37122 -6.8673,-54.40463 -5.89285,-81.60715 2.80154,-35.12273 17.83573,-69.937091 44.0625,-93.749995 14.1387,-13.438978 32.54204,-20.764406 52.1875,-20.089286 z m -171.42857,6.383929 c 7.81255,0.893888 19.36804,-1.755041 24.82142,1.607143 3.87022,12.400218 -9.37901,7.73258 -17.14278,8.533881 -24.99436,0.584911 -50.4311,-0.933587 -75.17864,1.510761 -3.70719,11.13386 -1.02626,23.931612 -1.96429,35.624997 0.92193,14.71838 -1.97588,30.52623 2.14286,44.64286 4.43094,3.29471 9.1929,-4.24471 13.30357,-5.40179 27.4682,-18.01364 67.7278,-12.65485 89.6875,11.47322 9.01883,7.40644 13.79801,17.60944 19.33036,27.45536 18.61855,42.0427 11.13234,98.4205 -26.11608,127.76785 -18.52821,14.72798 -42.93382,20.69423 -66.32601,16.50218 -22.38144,-2.36338 -43.40903,-13.3223 -56.26284,-32.17128 -6.87392,-10.28218 -16.85177,-22.34367 -14.28615,-35.44697 9.70141,-3.51896 11.02489,10.78095 15.13393,16.25 12.67974,26.22159 40.91113,44.95143 70.57955,42.80875 27.04777,0.32541 51.81362,-16.35555 63.89388,-40.09255 9.43739,-14.94516 11.4737,-32.60037 10.30336,-49.9037 0.6667,-26.00297 -11.51833,-51.65773 -29.89362,-69.58003 -15.32578,-14.65181 -38.74427,-20.38467 -58.94567,-13.9914 -9.92707,3.66051 -20.06068,8.49821 -27.05357,15.98215 -5.98089,5.55702 -14.37751,-3.20672 -14.86607,-9.55358 -2.85491,-25.79325 -0.31994,-51.848249 -1.67862,-77.766672 0.46329,-4.79219 -1.27257,-11.388212 0.91969,-15.31368 26.51491,-0.969181 53.06862,-0.846333 79.59822,-0.9375 z"
       id="path3999"
       inkscape:connector-curvature="0"
       sodipodi:nodetypes="cccccccccccccccccccccccccsssssscccccccccccccccccccccccccccccccccccccccccccccccccccccc" />
    <path
       style="fill:#4a97a2;fill-opacity:1;stroke:none"
       d="m 391.86377,57.95324 c -4.286,0.142988 -8.83408,0.0889 -12.67857,1.651786 -2.71167,-0.04592 -4.25214,2.680844 -6.98661,3.080357 -8.64799,4.271494 -16.72105,9.4593 -23.52678,16.450893 -6.48746,4.684679 -10.94361,11.931349 -15.44643,18.504464 -5.88934,10.08557 -12.01947,20.48593 -15.17857,31.69643 -4.12747,6.61448 -3.63417,14.93647 -6.09375,22.16518 -3.97701,26.92337 -4.36052,54.77353 1.71875,81.33928 1.21706,9.69839 5.557,18.78482 8.68303,27.96875 1.82596,4.90061 4.12562,9.39807 7.12054,13.6384 1.49064,1.87016 0.9004,4.79747 3.14732,5.80357 2.5526,4.0034 5.35009,8.10955 8.57143,11.54018 1.77439,2.79217 4.75929,5.63322 7.14286,8.19196 2.14484,3.5619 6.42264,5.34524 9.10714,8.52679 7.22808,4.75028 15.27278,8.4249 23.39286,11.11607 5.20205,0.55422 10.2668,2.35173 15.64732,1.3616 8.60447,-0.8147 17.7556,-1.89935 25.13393,-6.45089 3.80846,-1.20421 6.98302,-3.64487 10.35714,-5.82589 2.96418,-3.24049 6.79318,-5.36436 9.79911,-8.52679 1.44612,-1.09676 2.98047,-1.54999 3.34821,-3.50446 4.92514,-5.48851 9.07076,-11.64372 13.12391,-17.76208 4.8217,-8.03395 8.08091,-16.81794 11.76448,-25.45221 2.00893,-7.48687 5.45582,-14.56123 5.53572,-22.45535 3.96918,-12.59683 3.53835,-26.36818 4.41964,-39.53125 0.78166,-19.68433 -1.56944,-39.63054 -7.52232,-58.39286 -1.58639,-2.1204 -2.28189,-4.51003 -2.36607,-7.1875 -0.98485,-3.34916 -2.15171,-6.64832 -3.25893,-9.91072 -2.67061,-2.95314 -2.91012,-7.8987 -6.29464,-10.3125 -2.13774,-7.298513 -7.97179,-13.048844 -11.96429,-19.330353 -3.4181,-3.63504 -7.09159,-7.823907 -11.02679,-10.535714 -0.78973,-1.904237 -3.63692,-2.161411 -4.71985,-4.146751 -10.67605,-8.49368 -24.12652,-14.399945 -38.02568,-13.732713 -0.97479,-0.0067 -1.94942,0.01109 -2.92411,0.02232 z m -51.38393,70.625 c 11.77379,-0.004 23.49387,3.21154 33.90625,8.52679 8.27457,4.57081 15.14135,11.01482 21.06753,18.31018 6.46439,8.20805 11.71962,17.31705 15.96372,26.73446 1.39182,5.56978 5.07897,10.36883 6.18304,16.18303 2.89511,8.66904 3.48598,17.88785 5.77231,26.60261 0.93722,15.78056 1.53605,31.78487 -0.68303,47.48222 -2.06299,10.2822 -5.10717,20.56454 -8.83928,30.33482 -1.86006,4.7977 -4.85112,10.1115 -9.39732,12.83482 -7.50261,0.72763 -15.37184,0.87407 -22.79018,-0.22322 -7.0978,-3.18507 -14.79003,-5.80825 -21.27232,-10.22321 -2.93204,-3.81689 -8.07553,-5.63442 -10.35715,-10.22321 -4.57827,-4.66578 -8.53497,-9.77269 -12.20982,-15.11161 -3.01185,-2.59662 -3.29945,-6.90922 -5.89285,-9.95536 -4.66263,-9.77871 -7.92588,-20.20908 -11.31697,-30.53571 -4.35072,-15.53564 -6.09507,-31.6597 -6.21447,-47.78815 -0.8663,-13.23163 0.63045,-26.5782 2.24126,-39.71185 2.1655,-7.69177 1.55557,-16.64645 7.72321,-22.61161 5.3656,-0.33866 10.73611,-0.72135 16.11607,-0.625 z"
       id="path4001"
       inkscape:connector-curvature="0" />
    <path
       style="fill:#4a97a2;fill-opacity:1;stroke:none"
       d="m 596.75216,57.79699 c -15.5376,0.254439 -30.54061,6.787592 -41.8221,17.164488 -7.06354,4.554928 -10.76373,11.127773 -16.07968,17.500691 -8.15022,12.106401 -13.65299,25.652261 -18.56784,39.355231 -12.31898,45.70283 -10.64958,97.26179 13.05593,139.18801 5.29861,9.97237 12.52401,18.52118 20.63473,26.33803 16.058,16.3326 41.45351,23.77287 63.44707,16.23471 10.28304,-3.03078 19.65355,-8.69802 27.39651,-16.24681 13.87936,-12.41336 22.77943,-29.42001 29.41306,-46.61024 7.08355,-18.17367 10.57639,-38.07573 10.94449,-57.72494 0.82883,-20.39598 -2.8551,-40.62583 -8.27004,-60.1848 -4.15886,-9.50443 -6.87856,-19.77744 -12.47225,-28.90884 C 652.37078,82.874933 632.82076,63.992375 608.265,58.904025 604.41678,58.639749 600.63047,57.641912 596.75216,57.79699 z m -57.41071,68.90625 c 11.21291,-0.44222 22.40151,3.19908 32.4839,5.62751 6.6174,5.72433 15.13568,9.88374 21.28392,16.60015 7.06702,6.52018 12.55385,15.39454 16.96445,24.2573 16.52404,30.7192 18.36395,67.00077 14.81115,101.08882 -0.97836,11.16163 -3.0893,22.45676 -7.83824,32.6086 -9.00521,7.42773 -22.87961,5.71325 -33.62315,2.73395 -18.59514,-6.11365 -33.35571,-20.91108 -42.88609,-37.64469 -7.39193,-11.62629 -12.26678,-24.66971 -16.1407,-37.72753 -6.09844,-23.43475 -7.74704,-47.94668 -4.50167,-71.96262 1.99756,-11.47512 0.88654,-27.41184 10.0321,-35.10144 3.09283,-0.74689 6.28251,-0.18778 9.41433,-0.48005 z"
       id="path4003"
       inkscape:connector-curvature="0" />
  </g>
</svg>
