<?xml version="1.0" encoding="UTF-8" standalone="no"?><!DOCTYPE svg PUBLIC "-//W3C//DTD SVG 1.1//EN" "http://www.w3.org/Graphics/SVG/1.1/DTD/svg11.dtd"><svg width="100%" height="100%" viewBox="0 0 372 587" version="1.1" xmlns="http://www.w3.org/2000/svg" xmlns:xlink="http://www.w3.org/1999/xlink" xml:space="preserve" xmlns:serif="http://www.serif.com/" style="fill-rule:evenodd;clip-rule:evenodd;stroke-miterlimit:100;"><g><clipPath id="_clip1"><rect x="8.998" y="2.4" width="360.631" height="566.711"/></clipPath><g clip-path="url(#_clip1)"><path d="M140.31,505.218c3.293,0 4.605,-1.968 4.605,-5.261c0,-3.293 -1.313,-4.617 -4.605,-4.617c-1.318,0 -2.637,0.662 -3.293,1.324l-1.981,3.293c0,3.293 1.981,5.261 5.274,5.261Z" style="fill:#333;fill-rule:nonzero;"/><path d="M84.329,521.027l1.312,-3.949c0,-2.636 -1.312,-3.948 -4.605,-3.948c-3.293,0 -4.611,1.313 -4.611,3.948c0,3.294 1.318,5.268 4.611,5.268l3.293,-1.319Z" style="fill:#333;fill-rule:nonzero;"/><path d="M135.036,542.767c3.293,0 5.274,-1.323 5.274,-4.617l-1.318,-3.293l-3.956,-1.313c-2.631,0 -4.605,1.313 -4.605,4.604c0,3.294 1.974,4.619 4.605,4.619Z" style="fill:#333;fill-rule:nonzero;"/><path d="M212.096,538.148c3.291,0 4.61,-1.969 4.61,-5.262c0,-2.638 -1.319,-4.618 -4.61,-4.618c-3.294,0 -5.269,1.98 -5.269,4.618l1.975,3.949c1.318,1.313 1.973,1.313 3.294,1.313Z" style="fill:#333;fill-rule:nonzero;"/><path d="M339.204,349.79c2.638,0 4.612,-1.976 4.612,-4.604c0,-3.293 -1.976,-4.619 -4.612,-4.619c-1.312,0 -1.974,0.662 -3.292,1.326l-1.313,3.293c0.001,2.628 1.313,4.604 4.605,4.604Z" style="fill:#333;fill-rule:nonzero;"/><path d="M325.376,386.668c3.293,0 5.268,-1.968 5.268,-4.604l-1.975,-3.293l-3.293,-1.318c-3.292,0 -4.611,1.318 -4.611,4.611c0,2.636 1.319,4.604 4.611,4.604Z" style="fill:#333;fill-rule:nonzero;"/><path d="M337.23,429.479c3.293,0 4.61,-1.97 4.61,-5.262c0,-3.293 -1.317,-4.618 -4.61,-4.618c-3.295,0 -5.269,1.325 -5.269,4.618c0.002,3.293 1.977,5.262 5.269,5.262Z" style="fill:#333;fill-rule:nonzero;"/><path d="M322.084,416.307c3.292,0 5.268,-1.969 5.268,-4.605c0,-3.292 -1.976,-4.61 -5.268,-4.61c-3.293,0 -4.612,1.318 -4.612,4.61c0,2.636 1.319,4.605 4.612,4.605Z" style="fill:#333;fill-rule:nonzero;"/><path d="M343.816,403.134c2.637,0 4.611,-1.969 4.611,-5.261c0,-3.293 -1.976,-4.618 -4.611,-4.618c-1.976,0 -2.632,0.663 -3.293,1.325c-1.319,0.654 -1.976,1.968 -1.976,3.293l1.976,3.292l3.293,1.969Z" style="fill:#333;fill-rule:nonzero;"/><path d="M324.059,318.84c3.293,0 4.61,-1.324 4.61,-3.955l-1.317,-3.294l-3.293,-1.974c-3.294,0 -5.268,1.974 -5.268,5.268c0,2.631 1.974,3.955 5.268,3.955Z" style="fill:#333;fill-rule:nonzero;"/><path d="M339.204,457.147c3.294,0 5.273,-1.324 5.273,-4.617c0,-2.631 -1.979,-4.605 -5.273,-4.605c-2.63,0 -3.948,1.976 -3.948,4.605c0,3.293 1.318,4.617 3.948,4.617Z" style="fill:#333;fill-rule:nonzero;"/><path d="M327.352,544.735c2.638,0 4.611,-1.313 4.611,-4.605c0,-3.292 -1.975,-4.612 -4.611,-4.612c-3.293,0 -5.268,1.319 -5.268,4.612l1.975,3.293l3.293,1.312Z" style="fill:#333;fill-rule:nonzero;"/><path d="M263.465,545.397l1.98,3.954l3.293,0.657c2.631,0 3.949,-1.318 3.949,-4.611c0,-2.632 -1.318,-4.612 -3.949,-4.612c-3.293,0 -5.273,1.982 -5.273,4.612Z" style="fill:#333;fill-rule:nonzero;"/><path d="M154.794,530.907c2.637,0 4.611,-1.313 4.611,-4.605c0,-3.292 -1.975,-4.618 -4.611,-4.618c-3.293,0 -4.605,1.325 -4.605,4.618c0,3.293 1.312,4.605 4.605,4.605Z" style="fill:#333;fill-rule:nonzero;"/><path d="M255.566,532.888l1.313,-3.293c0,-3.293 -1.313,-4.617 -4.605,-4.617c-3.291,0 -5.273,1.324 -5.273,4.617c0,3.293 1.98,5.262 5.273,5.262l3.292,-1.969Z" style="fill:#333;fill-rule:nonzero;"/><path d="M243.051,546.06l1.318,-3.293l-1.318,-3.292c-0.656,-1.325 -2.637,-1.325 -3.294,-1.325c-3.293,0 -4.61,1.325 -4.61,4.617c0,3.293 1.317,5.263 4.61,5.263l3.294,-1.97Z" style="fill:#333;fill-rule:nonzero;"/><path d="M222.637,567.786c3.293,0 4.604,-1.969 4.604,-5.261l-1.313,-3.293l-3.293,-1.325c-3.292,0 -5.273,1.325 -5.273,4.618c-0.001,3.292 1.982,5.261 5.275,5.261Z" style="fill:#333;fill-rule:nonzero;"/><path d="M168.629,540.785c-2.637,0 -4.611,1.98 -4.611,4.612c0,3.293 1.974,4.611 4.611,4.611c3.293,0 5.268,-1.318 5.268,-4.611c-0.001,-2.63 -1.975,-4.612 -5.268,-4.612Z" style="fill:#333;fill-rule:nonzero;"/><path d="M108.692,505.881l1.981,-3.955l-1.981,-2.631c-0.656,-1.319 -1.975,-1.975 -3.293,-1.975c-1.313,0 -1.975,0.654 -3.293,1.975l-1.312,2.631l1.312,3.955c1.319,0.662 1.981,1.318 3.293,1.318l3.293,-1.318Z" style="fill:#333;fill-rule:nonzero;"/><path d="M70.494,556.595c3.293,0 5.268,-1.98 5.268,-4.61l-1.313,-3.294l-3.956,-1.975c-2.631,0 -4.612,1.975 -4.612,5.269c0.001,2.628 1.982,4.61 4.613,4.61Z" style="fill:#333;fill-rule:nonzero;"/><path d="M49.417,499.957c3.293,0 5.274,-1.981 5.274,-4.617l-1.98,-3.294l-3.293,-1.968c-3.293,0 -4.605,1.968 -4.605,5.262c-0.001,2.636 1.311,4.617 4.604,4.617Z" style="fill:#333;fill-rule:nonzero;"/><path d="M35.589,455.823c3.293,0 5.268,-1.969 5.268,-5.263c0,-3.292 -1.975,-4.617 -5.268,-4.617c-2.637,0 -4.612,1.325 -4.612,4.617c0,3.294 1.975,5.263 4.612,5.263Z" style="fill:#333;fill-rule:nonzero;"/><path d="M32.952,477.563c2.637,0 4.611,-1.319 4.611,-4.612c0,-3.293 -1.974,-5.269 -4.611,-5.269c-3.292,0 -5.268,1.976 -5.268,5.269l1.975,3.293c0.662,0.661 1.981,1.319 3.293,1.319Z" style="fill:#333;fill-rule:nonzero;"/><path d="M38.226,538.148l1.312,-3.294c0,-3.293 -1.312,-4.604 -4.605,-4.604c-3.293,0 -4.611,1.313 -4.611,4.604c0,3.293 1.318,4.619 4.611,4.619l3.293,-1.325Z" style="fill:#333;fill-rule:nonzero;"/><path d="M57.322,530.25c2.637,0 3.956,-1.979 3.956,-4.61c0,-3.294 -1.319,-5.268 -3.956,-5.268c-3.293,0 -5.268,1.974 -5.268,5.268c0,2.631 1.975,4.61 5.268,4.61Z" style="fill:#333;fill-rule:nonzero;"/><path d="M57.984,546.06l-1.981,-3.293c-0.656,-1.323 -1.974,-1.323 -3.292,-1.323c-1.313,0 -1.975,0 -3.293,1.323l-1.312,3.293c0,3.293 1.312,4.605 4.605,4.605c3.292,0 5.273,-1.312 5.273,-4.605Z" style="fill:#333;fill-rule:nonzero;"/><path d="M34.933,565.155c3.293,0 4.605,-1.976 4.605,-5.269c0,-3.293 -1.312,-4.609 -4.605,-4.609c-0.662,0 -1.981,0.662 -3.293,1.316c-0.663,1.313 -1.318,2.639 -1.318,3.293l1.318,3.949c1.312,0.658 2.631,1.32 3.293,1.32Z" style="fill:#333;fill-rule:nonzero;"/><path d="M105.399,557.907c3.293,0 5.274,-1.969 5.274,-5.263l-1.981,-3.293c-0.656,-0.661 -1.975,-1.323 -3.293,-1.323c-1.313,0 -1.975,0.662 -3.293,1.323l-1.312,3.293c-0.001,3.295 1.311,5.263 4.605,5.263Z" style="fill:#333;fill-rule:nonzero;"/><path d="M113.966,534.854l1.312,-3.293c0,-3.293 -1.312,-5.261 -4.605,-5.261c-3.293,0 -5.274,1.968 -5.274,5.261l1.981,3.293c1.312,1.325 1.974,1.325 3.293,1.325l3.293,-1.325Z" style="fill:#333;fill-rule:nonzero;"/><path d="M92.889,546.716c2.63,0 4.611,-1.979 4.611,-5.272c0,-2.633 -1.981,-4.605 -4.611,-4.605c-3.293,0 -5.268,1.974 -5.268,4.605c0.001,3.291 1.975,5.272 5.268,5.272Z" style="fill:#333;fill-rule:nonzero;"/><path d="M142.285,569.111c3.293,0 5.268,-1.981 5.268,-4.618l-1.318,-3.293c-1.318,-1.313 -2.631,-1.968 -3.949,-1.968c-1.318,0 -1.975,0.654 -3.293,1.968l-1.975,3.293c-0.001,2.637 1.974,4.618 5.267,4.618Z" style="fill:#333;fill-rule:nonzero;"/><path d="M176.534,526.302c2.63,0 3.949,-1.324 3.949,-4.618c0,-3.293 -1.318,-4.604 -3.949,-4.604c-3.293,0 -5.274,1.313 -5.274,4.604c-0.001,3.294 1.98,4.618 5.274,4.618Z" style="fill:#333;fill-rule:nonzero;"/><path d="M199.585,557.907c3.293,0 4.604,-1.969 4.604,-5.263c0,-3.293 -1.313,-4.616 -4.604,-4.616c-1.317,0 -2.637,0.662 -3.293,1.323l-1.981,3.293l1.981,3.949c0.656,1.314 1.976,1.314 3.293,1.314Z" style="fill:#333;fill-rule:nonzero;"/><path d="M179.164,567.786c3.293,0 4.611,-1.969 4.611,-4.605c0,-3.293 -1.318,-5.272 -4.611,-5.272c-2.63,0 -4.611,1.979 -4.611,5.272c0,2.636 1.981,4.605 4.611,4.605Z" style="fill:#333;fill-rule:nonzero;"/><path d="M316.153,564.493c3.293,0 5.273,-1.313 5.273,-4.605c0,-3.292 -1.98,-5.273 -5.273,-5.273c-0.656,0 -1.976,1.326 -3.292,1.98c-0.657,1.313 -1.313,1.976 -1.313,3.293l1.313,3.293l3.292,1.312Z" style="fill:#333;fill-rule:nonzero;"/><path d="M254.904,564.493l1.316,-3.293l-1.316,-3.293c-1.318,-1.313 -2.631,-1.969 -3.95,-1.969c-1.317,0 -1.974,0.655 -3.292,1.969l-1.318,3.293l1.318,3.293c1.318,1.324 1.975,1.324 3.292,1.324c1.319,0 2.632,0 3.95,-1.324Z" style="fill:#333;fill-rule:nonzero;"/><path d="M299.032,548.028c3.294,0 5.268,-1.97 5.268,-5.263c0,-3.292 -1.974,-4.617 -5.268,-4.617c-2.638,0 -3.949,1.325 -3.949,4.617c0,3.295 1.312,5.263 3.949,5.263Z" style="fill:#333;fill-rule:nonzero;"/><path d="M281.911,563.837c3.293,0 4.604,-1.312 4.604,-4.604c0,-3.292 -1.313,-4.619 -4.604,-4.619c-3.291,0 -5.274,1.326 -5.274,4.619c0,3.293 1.981,4.604 5.274,4.604Z" style="fill:#333;fill-rule:nonzero;"/><path d="M343.161,565.817l1.316,-3.955c0,-2.63 -1.979,-4.611 -5.273,-4.611c-2.63,0 -3.948,1.981 -3.948,4.611c0,3.293 1.318,4.611 3.948,4.611l3.957,-0.656Z" style="fill:#333;fill-rule:nonzero;"/><path d="M341.842,529.595l1.976,-3.293c0,-3.293 -1.976,-4.618 -5.269,-4.618c-3.293,0 -4.611,1.325 -4.611,4.618l1.318,3.293c0.656,0.655 1.976,1.313 3.293,1.313l3.293,-1.313Z" style="fill:#333;fill-rule:nonzero;"/><path d="M127.138,477.563l1.313,-3.294c0,-3.294 -1.975,-4.611 -5.268,-4.611c-2.631,0 -4.612,1.317 -4.612,4.611c0,3.294 1.981,5.269 4.612,5.269l3.955,-1.975Z" style="fill:#333;fill-rule:nonzero;"/><path d="M127.138,557.907l1.313,-3.294l-1.313,-3.293l-3.955,-1.969c-2.631,0 -4.612,1.969 -4.612,5.262c0,3.294 1.981,4.618 4.612,4.618l3.955,-1.324Z" style="fill:#333;fill-rule:nonzero;"/><path d="M83.666,567.786c2.637,0 3.956,-1.969 3.956,-4.605c0,-3.293 -1.319,-5.272 -3.956,-5.272c-3.292,0 -5.268,1.979 -5.268,5.272c0,2.636 1.975,4.605 5.268,4.605Z" style="fill:#333;fill-rule:nonzero;"/><path d="M303.644,148.258l-7.903,54.664c-5.932,42.809 -9.223,84.957 -9.223,125.135c0,1.975 1.316,3.293 2.637,3.293c1.974,0 2.638,-1.318 2.638,-3.293c0.655,-39.517 3.292,-81.664 9.216,-125.135l7.904,-53.352c0,-1.312 0,-2.63 -2.637,-3.292c-1.314,-0.657 -1.976,0.661 -2.632,1.98Z" style="fill-rule:nonzero;"/><path d="M298.376,345.186l-9.224,-17.129l-5.93,19.096c-1.975,11.861 0.662,17.129 9.223,17.129c7.906,-0.664 9.881,-7.251 5.931,-19.096Z" style="fill:#9260c7;fill-rule:nonzero;"/><path d="M289.152,325.426c-1.318,0 -1.975,0.656 -2.637,1.969c-1.976,3.955 -3.949,8.566 -4.604,14.498c-2.638,9.879 -2.638,16.465 0,20.414c2.63,3.291 5.923,4.604 10.534,4.604c3.949,-0.655 7.243,-2.631 9.224,-5.924c1.975,-3.955 0.657,-11.196 -2.637,-19.758l-7.241,-14.49l-2.639,-1.313Zm8.562,29.637l-0.655,3.295c-0.664,1.969 -1.976,2.631 -5.268,2.631l-5.932,-1.319l-0.655,-5.93c0,-5.261 1.313,-11.847 3.948,-19.759c5.931,9.222 8.562,16.464 8.562,21.082Z" style="fill-rule:nonzero;"/><path d="M318.791,273.393c-3.95,5.268 -6.587,9.88 -9.88,15.811l18.439,-3.955c10.542,-4.613 13.834,-9.881 9.224,-15.804c-4.611,-5.93 -10.542,-5.275 -17.783,3.948Z" style="fill:#9260c7;fill-rule:nonzero;"/><path d="M306.938,291.17c0.656,0.663 1.318,1.325 1.975,0.663c18.439,-1.976 28.981,-6.585 31.612,-13.173c1.317,-3.293 0.661,-6.585 -1.976,-10.541c-2.637,-3.949 -5.93,-5.261 -9.223,-4.604c-4.605,0 -9.88,3.948 -15.147,11.853c-3.293,4.613 -5.923,9.881 -7.903,13.173c-0.002,0.662 -0.002,1.975 0.662,2.629Zm7.241,-4.605c5.269,-11.86 11.197,-17.783 15.147,-17.783c1.979,-0.663 3.293,0 5.272,1.974l1.313,3.949l-0.656,1.982c-1.317,3.293 -8.56,6.585 -21.076,9.878Z" style="fill-rule:nonzero;"/><path d="M307.594,287.223l-19.097,14.49c-1.979,0.662 -1.979,1.975 -0.663,3.292l3.293,0.663l19.759,-13.835c1.318,-1.317 1.318,-2.63 0.663,-3.293l-3.955,-1.317Z" style="fill-rule:nonzero;"/><path d="M325.376,227.291c-3.948,4.605 -7.904,9.223 -11.197,15.147l17.784,-1.975c11.854,-2.637 15.81,-7.905 11.854,-14.49c-3.294,-6.587 -9.879,-6.587 -18.441,1.318Z" style="fill:#9260c7;fill-rule:nonzero;"/><path d="M345.791,224.654c-1.975,-3.949 -4.605,-5.93 -7.897,-5.93c-7.25,-0.656 -15.81,7.249 -26.345,21.739c-0.663,0.656 -0.663,1.975 0,2.637c0.655,0.656 1.313,1.312 2.63,1.312c17.784,0.656 28.319,-2.636 32.274,-8.56c1.976,-3.294 1.976,-7.249 -0.662,-11.198Zm-8.561,-0.656c1.317,0 3.293,0.656 4.61,3.293l0.656,3.293l-0.656,1.974c-1.975,3.956 -9.879,6.586 -23.051,6.586c7.906,-9.879 13.83,-15.146 18.441,-15.146Z" style="fill-rule:nonzero;"/><path d="M312.204,239.807l-20.413,11.191c-1.982,0.656 -1.982,1.318 -1.318,3.293c1.318,1.318 1.975,2.636 3.948,1.318l21.076,-11.198c0.656,-0.655 1.319,-1.974 0.656,-3.949c-0.656,-1.318 -1.974,-1.318 -3.949,-0.655Z" style="fill-rule:nonzero;"/><path d="M324.721,186.456c-3.956,4.612 -6.587,9.879 -9.224,16.466l17.122,-5.268c11.197,-3.95 14.49,-9.88 9.223,-15.81c-4.612,-6.586 -10.535,-4.605 -17.121,4.612Z" style="fill:#9260c7;fill-rule:nonzero;"/><path d="M346.453,191.067c1.318,-3.949 0.656,-7.905 -1.976,-11.197c-2.637,-3.293 -5.93,-4.612 -9.879,-4.612c-4.61,1.319 -9.224,5.274 -14.49,13.172l-7.247,13.172c-0.657,1.319 -0.657,1.319 0,2.637c0.662,0.656 1.979,1.313 2.636,0.656c17.784,-1.974 28.319,-7.241 30.956,-13.828Zm-4.611,-3.293l0,0.656c-1.975,4.611 -9.223,7.905 -22.396,10.535c6.586,-11.191 11.859,-17.777 15.81,-17.777c1.976,0 3.293,0.656 5.269,1.975l1.317,4.611Z" style="fill-rule:nonzero;"/><path d="M313.523,200.946l-18.44,13.828c-1.981,1.318 -1.981,2.637 -0.662,3.95c1.318,1.981 1.974,1.981 3.293,0.662l19.104,-14.491c1.316,-1.312 1.316,-2.637 0.654,-3.949l-3.949,0Z" style="fill-rule:nonzero;"/><path d="M248.318,256.928c-5.924,5.268 -3.295,10.535 7.248,16.465c4.604,3.295 10.535,5.268 17.121,6.588l-7.242,-16.466c-5.929,-10.536 -11.859,-12.517 -17.127,-6.587Z" style="fill:#9260c7;fill-rule:nonzero;"/><path d="M272.031,282.617l2.631,-0.662l0.662,-2.633c-6.586,-17.127 -13.172,-27.006 -19.104,-28.324c-3.947,-0.656 -7.24,1.318 -9.878,3.949c-3.293,3.293 -3.948,6.586 -3.293,9.879c1.974,7.249 11.855,13.834 28.982,17.791Zm-23.713,-20.422l1.317,-3.292c1.976,-1.975 3.294,-3.293 5.269,-2.63c4.611,0.655 8.561,7.242 13.834,19.758c-12.518,-3.955 -19.758,-8.567 -20.42,-12.516l0,-1.32Z" style="fill-rule:nonzero;"/><path d="M270.714,278.66c-1.319,1.32 -1.319,1.975 0.655,3.295l17.128,16.465c0.655,1.316 2.63,1.316 3.294,0c0.654,-1.975 0.654,-3.295 0,-3.957l-17.129,-15.803c-1.318,-1.972 -2.631,-1.972 -3.948,0Z" style="fill-rule:nonzero;"/><path d="M280.592,225.973l-3.293,-18.44c-3.955,-11.198 -8.561,-14.491 -15.146,-9.879c-6.586,3.949 -5.932,9.879 3.293,17.777l15.146,10.542Z" style="fill:#9260c7;fill-rule:nonzero;"/><path d="M279.273,227.947l2.638,0l1.313,-1.974c-1.313,-18.44 -5.269,-28.319 -11.854,-31.612c-3.293,-1.981 -7.242,-1.319 -11.197,0.656c-3.293,2.637 -4.604,5.93 -4.604,9.223c0,5.268 3.949,9.879 10.535,15.81c5.927,3.948 9.876,7.241 13.169,7.897Zm-10.535,-29.638c3.949,2.637 6.586,9.88 8.561,22.396c-11.197,-6.586 -17.127,-11.861 -17.127,-16.466c0,-1.981 1.316,-3.293 3.293,-4.611c1.98,-1.319 3.292,-1.319 5.273,-1.319Z" style="fill-rule:nonzero;"/><path d="M279.273,223.998c-1.976,0.656 -1.976,1.975 -0.655,3.293l12.509,20.415c1.318,1.319 1.975,1.319 3.956,0.656c1.312,-1.312 1.312,-1.968 0.656,-3.949l-13.173,-19.758c-0.655,-1.976 -1.974,-1.976 -3.293,-0.657Z" style="fill-rule:nonzero;"/><path d="M61.933,138.379c-1.319,0 -2.637,1.312 -1.975,3.292l14.491,90.887c7.898,73.11 7.898,142.918 0,210.092c0,1.324 1.313,2.638 3.293,2.638l1.312,-0.656l1.319,-1.318c7.249,-67.181 7.249,-137.646 -0.656,-211.417l-14.491,-91.542c-0.656,-1.976 -1.318,-2.632 -3.293,-1.976Z" style="fill-rule:nonzero;"/><path d="M84.329,460.44l-6.586,-17.79l-8.567,17.79c-3.293,11.848 -0.656,17.776 7.905,18.433c7.903,0 10.541,-5.923 7.248,-18.433Z" style="fill:#9260c7;fill-rule:nonzero;"/><path d="M79.717,441.338l-1.975,-1.316c-0.662,0 -1.98,0 -1.98,1.316c-3.293,4.605 -5.268,8.563 -7.243,14.485c-3.949,9.223 -3.949,16.465 -1.318,20.42c1.975,3.294 5.268,4.612 9.879,4.612c4.611,0 7.904,-1.318 9.879,-4.612c1.974,-3.955 1.974,-10.541 -0.656,-19.758l-6.586,-15.147Zm3.949,27.657l-1.318,4.617c-1.313,1.969 -2.631,2.631 -5.268,2.631c-2.631,0 -3.95,-0.662 -5.924,-2.631l0,-3.955c0,-5.269 1.974,-12.51 6.586,-21.077c3.293,8.567 5.924,15.154 5.924,20.415Z" style="fill-rule:nonzero;"/><path d="M115.278,391.846l-13.173,14.854l18.446,0.786c11.854,-1.572 16.465,-7.041 13.172,-15.641l-18.445,0l0,0.001Z" style="fill:#9260c7;fill-rule:nonzero;"/><path d="M135.036,404.459c2.637,-3.294 2.637,-6.586 1.318,-10.541c-1.975,-3.956 -4.611,-6.587 -7.904,-7.25c-4.605,-0.654 -10.535,1.982 -17.777,7.912l-10.542,11.189l0,2.639l1.974,1.975c17.784,1.974 28.326,0 32.931,-5.924Zm-3.293,-8.566l-0.656,5.272c-2.637,3.294 -10.535,5.263 -23.707,3.95c9.217,-9.881 15.803,-13.828 19.758,-13.174l4.605,3.952Z" style="fill-rule:nonzero;"/><path d="M100.793,405.115l-21.739,8.561c-1.312,1.318 -1.974,2.631 -1.312,3.956c0,1.968 1.312,2.63 3.293,1.312l22.389,-8.561l1.318,-3.955c-0.656,-1.969 -1.974,-2.631 -3.949,-1.313Z" style="fill-rule:nonzero;"/><path d="M44.149,399.841l17.128,5.274l-7.905,-16.465c-6.586,-9.881 -12.516,-11.198 -17.784,-5.274c-4.611,5.931 -2.636,11.204 8.561,16.465Z" style="fill:#9260c7;fill-rule:nonzero;"/><path d="M64.57,404.459c-6.586,-17.128 -13.172,-26.344 -21.077,-27.007c-3.956,-0.662 -7.249,0.663 -9.879,3.955c-2.637,2.631 -3.293,6.587 -2.637,9.88c2.637,7.242 12.517,12.51 30.3,16.465c0.656,0 1.312,0 2.63,-0.662l0.663,-2.631Zm-28.325,-15.809l1.981,-3.95c1.312,-1.98 2.63,-2.638 4.604,-2.638c4.612,1.313 9.224,7.898 14.491,19.103c-12.51,-3.292 -19.096,-7.247 -21.077,-11.203l0.001,-1.312Z" style="fill-rule:nonzero;"/><path d="M59.296,403.797c-1.313,0.662 -1.313,2.631 0.662,3.293l17.784,15.803c1.312,0.662 3.293,0.662 3.949,0c0.656,-1.968 0.656,-2.631 -0.656,-4.604l-17.784,-15.153l-3.955,0.661Z" style="fill-rule:nonzero;"/><path d="M113.966,343.859c-3.956,3.955 -7.249,9.224 -10.542,14.496l17.784,-2.637c11.854,-2.637 15.146,-7.904 11.197,-14.49c-3.955,-6.585 -10.541,-5.923 -18.439,2.631Z" style="fill:#9260c7;fill-rule:nonzero;"/><path d="M125.819,333.98c-4.611,0 -9.879,3.955 -15.809,10.541l-9.217,13.172l0,2.632c1.312,0.661 1.312,0.661 2.631,0.661l15.146,-1.975c8.567,-1.318 14.491,-4.611 16.465,-8.566c1.981,-2.631 1.981,-6.586 0,-11.19c-2.63,-3.294 -5.266,-5.275 -9.216,-5.275Zm5.924,11.86l-1.312,1.977c-1.981,3.955 -9.223,6.584 -21.739,7.246c6.586,-10.539 13.172,-15.808 17.127,-15.808l4.612,3.293l1.312,3.292Z" style="fill-rule:nonzero;"/><path d="M102.105,356.375l-21.07,11.859c-1.318,0.656 -1.981,2.631 -0.662,3.949c0.662,1.976 1.975,1.976 3.956,1.313l19.758,-12.511c1.975,-0.661 2.63,-2.631 1.313,-3.293c-0.657,-1.971 -1.976,-2.629 -3.295,-1.317Z" style="fill-rule:nonzero;"/><path d="M44.149,359.014l18.44,3.293c-3.293,-5.274 -6.586,-11.199 -10.535,-15.154c-7.905,-9.217 -13.828,-9.879 -18.44,-3.293c-3.955,6.585 -0.662,11.203 10.535,15.154Z" style="fill:#9260c7;fill-rule:nonzero;"/><path d="M62.589,364.941c0.662,0 1.981,-0.662 1.981,-1.323l0,-2.632c-8.567,-15.803 -16.465,-23.713 -23.714,-23.713c-3.949,0 -6.586,1.324 -9.217,5.273c-1.98,3.292 -3.293,7.242 -1.318,9.879c3.95,7.243 14.491,11.193 32.268,12.516Zm-21.733,-23.048c3.955,0.655 9.879,5.924 16.465,17.121c-12.51,-1.981 -19.759,-4.613 -22.389,-8.568l0,-1.967l1.312,-3.293l4.612,-3.293Z" style="fill-rule:nonzero;"/><path d="M60.614,360.986c-1.318,0.662 -1.318,2.632 0.663,3.293l19.758,13.173c1.313,0.663 2.63,0.663 3.293,-0.662c1.312,-1.968 1.312,-2.631 0,-3.949l-20.421,-12.516c-1.318,-1.311 -2.63,-1.311 -3.293,0.661Z" style="fill-rule:nonzero;"/><path d="M106.061,291.17c-2.637,5.275 -5.268,10.543 -6.586,17.128l17.122,-7.248c9.879,-5.925 11.854,-11.847 6.586,-17.777c-5.924,-4.613 -11.199,-2.638 -17.122,7.897Z" style="fill:#9260c7;fill-rule:nonzero;"/><path d="M124.501,281.955c-2.637,-3.295 -6.586,-4.612 -10.535,-3.295c-3.956,1.32 -8.567,6.588 -11.86,14.492c-1.974,5.268 -3.949,9.223 -5.268,14.483l0.663,2.637l2.631,0.656l13.834,-5.924c8.561,-3.955 13.172,-8.561 14.484,-13.172c0.662,-3.292 -0.656,-6.584 -3.949,-9.877Zm-1.318,7.248l0,1.313c-1.318,4.609 -7.905,8.566 -19.758,13.827c3.956,-12.51 7.904,-19.095 12.516,-21.07c1.318,0 3.293,0.655 4.611,1.976l2.631,3.954Z" style="fill-rule:nonzero;"/><path d="M97.5,306.323l-16.465,17.777c-0.662,1.325 -0.662,2.639 0,3.957c1.313,0.662 3.293,0.662 3.949,0l15.809,-17.785c1.312,-1.313 1.312,-1.975 0,-3.948c-0.662,-0.656 -1.98,-0.656 -3.293,-0.001Z" style="fill-rule:nonzero;"/><path d="M41.519,324.102l19.095,-1.969c-4.611,-4.617 -9.216,-8.566 -14.49,-11.859c-9.879,-5.93 -15.803,-5.93 -18.44,1.317c-2.63,7.904 2.637,11.854 13.835,12.511Z" style="fill:#9260c7;fill-rule:nonzero;"/><path d="M62.589,320.809c-13.172,-13.172 -23.051,-19.096 -29.638,-17.121c-3.292,0.655 -5.924,2.637 -7.898,7.903c-1.318,3.956 -0.663,7.249 1.974,9.88c3.293,3.955 9.217,5.924 18.44,5.269l15.146,-1.976c1.319,0 1.975,-0.662 1.975,-1.975l0.001,-1.98Zm-32.268,-7.899c0.656,-1.98 1.318,-3.95 3.293,-4.612c4.612,-0.661 11.854,3.293 21.077,12.511c-13.172,1.324 -21.077,0.662 -23.714,-2.631c-1.318,-0.662 -1.318,-3.293 -0.656,-5.268Z" style="fill-rule:nonzero;"/><path d="M61.277,319.495c-1.981,0 -3.293,0 -3.293,1.976c-0.662,1.318 0,3.293 1.313,3.293l23.051,7.25c1.318,0 2.637,0 3.293,-1.326c0.662,-1.967 0,-3.293 -1.975,-3.293l-22.389,-7.9Z" style="fill-rule:nonzero;"/><path d="M101.449,198.309l-7.242,17.122l17.121,-7.242c10.536,-5.268 12.516,-10.535 7.242,-16.466c-5.267,-5.267 -11.19,-3.293 -17.121,6.586Z" style="fill:#9260c7;fill-rule:nonzero;"/><path d="M123.845,199.628c1.312,-3.293 0,-6.586 -3.293,-9.879c-3.293,-3.293 -6.586,-4.612 -9.879,-3.293c-5.274,1.318 -9.224,5.924 -13.172,14.491l-5.93,13.828l0.656,2.637l2.637,0.656l14.49,-5.268c7.905,-3.956 13.172,-8.561 14.491,-13.172Zm-7.248,-5.924l1.974,3.95l0,0.655c-1.312,4.612 -7.898,9.224 -19.758,13.172c3.955,-11.854 8.567,-18.44 13.171,-20.414c1.982,0 3.294,0.656 4.613,2.637Z" style="fill-rule:nonzero;"/><path d="M92.227,214.119l-17.121,16.465c-0.656,0.656 -0.656,1.974 0,3.292l3.949,0l16.465,-16.465c1.981,-1.319 1.981,-2.637 0.662,-3.293c-1.974,-1.318 -2.637,-1.318 -3.955,0.001Z" style="fill-rule:nonzero;"/><path d="M36.245,231.896l18.446,-1.312c-3.956,-5.274 -8.567,-9.224 -13.834,-12.516c-9.879,-6.586 -15.803,-5.93 -18.44,1.318c-1.975,7.905 2.637,11.854 13.828,12.51Z" style="fill:#9260c7;fill-rule:nonzero;"/><path d="M20.442,219.386c-1.974,3.955 -1.318,7.249 1.318,9.879c3.293,3.956 9.217,5.268 18.44,5.268l15.146,-1.975l1.975,-1.974l0,-2.637c-13.172,-12.516 -23.051,-18.44 -29.638,-16.465c-3.292,-0.001 -5.923,2.637 -7.241,7.904Zm4.612,6.587c-0.663,-1.319 -0.663,-3.293 0,-5.268c0.656,-2.637 1.974,-3.95 3.293,-4.612c4.605,-0.662 11.854,3.293 21.07,11.854c-13.172,1.981 -21.07,1.318 -24.363,-1.974Z" style="fill-rule:nonzero;"/><path d="M52.71,229.265c-0.656,1.319 0,3.293 1.318,3.293l23.051,7.249c1.318,0.656 2.637,0 3.293,-1.981c0.662,-1.312 0,-2.637 -1.975,-3.293l-22.395,-7.242c-1.973,0 -3.292,0 -3.292,1.974Z" style="fill-rule:nonzero;"/><path d="M90.252,156.818c-2.63,5.268 -3.293,11.854 -4.611,17.785c6.586,-2.637 11.86,-5.931 16.465,-9.88c8.567,-6.586 9.879,-13.172 3.293,-17.784c-5.924,-4.611 -11.191,-1.318 -15.147,9.879Z" style="fill:#9260c7;fill-rule:nonzero;"/><path d="M111.984,154.844c0.663,-3.949 -1.312,-7.242 -4.604,-9.879c-3.293,-2.637 -6.586,-3.293 -10.542,-1.318c-6.586,2.63 -11.197,13.171 -13.172,30.956l0.663,2.636l3.293,0c15.802,-7.911 24.362,-15.809 24.362,-22.395Zm-13.171,-6.586l5.273,0.656c1.975,1.318 3.293,2.636 3.293,4.611c-0.663,4.611 -6.586,9.879 -17.784,16.465c2.632,-13.172 5.925,-19.758 9.218,-21.732Z" style="fill-rule:nonzero;"/><path d="M84.329,173.284l-13.835,19.758c-1.318,1.319 -1.318,1.975 0.663,3.293l3.293,0l13.828,-19.758c0.656,-1.974 0.656,-3.293 -0.656,-3.293l-3.293,0Z" style="fill-rule:nonzero;"/><path d="M105.399,241.119c-2.631,4.611 -5.268,10.535 -7.242,16.465l17.121,-6.586c10.542,-5.268 13.172,-10.535 7.905,-16.465c-5.268,-5.268 -11.199,-3.949 -17.784,6.586Z" style="fill:#9260c7;fill-rule:nonzero;"/><path d="M125.157,232.558c-3.292,-2.63 -6.586,-3.955 -9.879,-3.293c-4.605,0.663 -9.217,5.268 -13.172,13.835l-6.586,13.828c0,0.657 0,1.975 0.662,2.637l2.631,0.656c17.784,-4.611 27.006,-9.878 29.637,-17.783c0.662,-3.294 0,-6.586 -3.293,-9.88Zm-3.949,3.294l1.975,4.611l0,0.656c-1.318,4.611 -8.561,9.223 -21.077,12.516c5.274,-12.516 9.879,-18.446 14.491,-19.759c1.318,0 3.292,0.657 4.611,1.976Z" style="fill-rule:nonzero;"/><path d="M96.838,255.61l-17.784,16.465c-1.312,1.317 -1.312,2.63 0,3.292l3.293,0.663l17.784,-16.465c1.318,-0.662 1.318,-2.637 0,-3.955c-1.318,-0.663 -2.631,-0.663 -3.293,0Z" style="fill-rule:nonzero;"/><path d="M39.538,272.737l18.446,-1.981c-3.955,-4.604 -8.567,-8.561 -13.834,-11.853c-9.879,-6.586 -15.803,-5.924 -18.44,1.318c-1.975,7.898 2.637,11.854 13.828,12.516Z" style="fill:#9260c7;fill-rule:nonzero;"/><path d="M59.296,273.393l1.981,-1.317l-0.663,-3.293c-13.172,-12.51 -23.051,-18.44 -29.637,-16.466c-3.293,0 -5.923,3.293 -7.242,7.904c-1.975,3.95 -0.663,7.242 1.318,9.879c3.293,3.95 9.217,5.268 18.44,5.268l15.803,-1.975Zm-30.949,-11.86c0.656,-2.63 1.975,-3.949 3.293,-4.605c4.605,-0.655 11.854,3.293 21.071,11.854c-13.172,1.974 -21.071,1.317 -23.708,-1.975c-1.319,-1.319 -1.319,-2.637 -0.656,-5.274Z" style="fill-rule:nonzero;"/><path d="M56.003,270.1c-0.656,1.976 0,3.293 1.981,3.293l22.389,7.242c1.975,0 2.637,0 3.292,-1.975c0.663,-1.317 0,-2.63 -1.974,-3.293l-22.395,-6.585c-1.974,-0.663 -3.293,0 -3.293,1.318Z" style="fill-rule:nonzero;"/><path d="M97.5,-77.65l-2.637,2.637c2.637,43.465 -4.611,92.205 -22.395,147.531c-9.879,27 -19.096,50.708 -29.638,69.81c0,1.319 0,2.637 1.981,3.293c1.313,1.318 2.631,1.318 3.293,-0.656c9.879,-19.758 19.758,-42.81 28.975,-71.135c18.441,-55.982 26.345,-105.378 23.052,-148.843c0,-1.974 -1.318,-2.637 -2.631,-2.637Z" style="fill-rule:nonzero;"/><path d="M46.124,36.294c13.172,1.313 22.395,-2.637 27.006,-11.86l2.632,-14.484l-14.484,1.312c-9.224,3.293 -14.491,11.86 -15.154,25.032Z" style="fill:#858585;fill-rule:nonzero;"/><path d="M71.156,32.345c5.268,-5.93 7.898,-13.172 7.242,-22.395c0,-1.319 -0.656,-1.981 -1.974,-1.981c-8.561,-1.313 -16.465,-0.656 -22.395,4.618c-6.586,4.605 -9.879,12.51 -10.535,23.707c0,1.313 0.656,2.637 2.63,3.293c10.542,0.656 18.446,-1.981 25.032,-7.242Zm-3.955,-3.955c-4.611,4.612 -9.879,5.924 -17.784,5.268c0.662,-7.898 3.293,-13.828 7.905,-17.121c3.956,-3.293 9.879,-4.612 15.809,-3.293c-0.001,5.929 -1.975,11.19 -5.93,15.146Z" style="fill-rule:nonzero;"/><path d="M94.208,-2.566c1.312,-0.656 1.312,-2.637 0.656,-3.949c-0.656,-0.656 -2.637,-0.656 -3.95,0l-16.465,14.484c-1.319,1.325 -1.981,2.637 -0.663,3.955c0.663,1.318 1.975,1.318 3.956,0l16.466,-14.49Z" style="fill-rule:nonzero;"/><path d="M36.245,90.958c13.172,0.663 22.396,-3.293 26.345,-13.172l2.637,-14.491l-14.491,1.981c-9.217,3.949 -14.491,11.847 -14.491,25.682Z" style="fill:#858585;fill-rule:nonzero;"/><path d="M65.882,61.32l-7.898,0c-6.586,0 -11.197,1.974 -15.153,5.268c-6.586,5.93 -9.216,13.172 -9.216,24.37c0,1.319 1.318,1.974 2.63,1.974c11.198,1.319 19.102,-1.974 24.37,-7.242c3.956,-3.293 5.931,-8.567 7.249,-14.491l0,-7.905l-1.982,-1.974Zm-19.758,9.879c3.955,-3.293 9.223,-5.268 16.465,-5.268c0,6.586 -1.975,11.854 -5.268,16.465c-4.611,3.949 -9.879,5.93 -17.784,5.93c0.001,-8.566 2.638,-13.833 6.587,-17.127Z" style="fill-rule:nonzero;"/><path d="M79.717,46.173l-16.466,15.147c-0.662,1.318 -0.662,3.292 0,3.955l3.949,0.656l16.465,-15.809c0.663,-0.656 0.663,-2.637 0,-3.949l-3.948,0Z" style="fill-rule:nonzero;"/><path d="M11.881,123.888c13.172,4.611 22.389,3.293 28.975,-5.268l5.93,-13.172c-3.956,-1.318 -9.224,-2.636 -13.835,-1.981c-10.534,0.662 -17.777,7.911 -21.07,20.421Z" style="fill:#858585;fill-rule:nonzero;"/><path d="M49.417,106.104l-1.312,-2.637l-7.905,-2.63l-15.146,1.975c-7.249,2.636 -13.172,9.879 -15.81,21.076c-0.656,1.319 0,2.631 1.975,3.293l25.025,-1.318c4.612,-2.637 8.567,-6.586 11.198,-11.854l1.975,-7.905Zm-15.146,15.153l-19.096,0.656c3.293,-7.242 6.586,-11.86 11.854,-14.491l17.122,0c-1.976,6.587 -5.269,11.198 -9.88,13.835Z" style="fill-rule:nonzero;"/><path d="M65.882,92.932l-20.414,10.535c-1.318,0.663 -1.974,1.981 -0.656,3.956c0.656,1.318 1.313,1.318 3.293,0.662l19.758,-10.541c1.313,-0.663 2.631,-1.975 1.313,-3.293l-3.294,-1.319Z" style="fill-rule:nonzero;"/><path d="M121.864,43.537c4.611,-12.516 3.292,-22.396 -4.605,-28.981l-13.172,-6.586l-2.637,14.497c0.655,10.534 7.242,17.12 20.414,21.07Z" style="fill:#858585;fill-rule:nonzero;"/><path d="M123.845,18.51c-1.98,-3.955 -6.586,-7.904 -11.86,-10.541l-7.898,-2.631c-0.662,0 -1.981,0 -1.981,1.318c-1.312,2.637 -1.974,5.268 -2.63,7.898c-0.662,5.93 -0.662,11.204 1.318,15.809c3.293,7.242 9.879,12.516 20.415,15.809c1.975,0 2.637,0 3.293,-1.981c3.948,-9.878 3.292,-18.432 -0.657,-25.681Zm-19.759,1.975c0,-3.293 0.656,-5.93 1.313,-9.224c7.249,2.637 11.86,5.93 13.834,9.879c1.318,3.293 2.631,5.93 2.631,9.879l-1.313,8.567c-7.249,-2.637 -12.516,-6.586 -15.153,-11.198c-0.655,-1.973 -1.312,-5.266 -1.312,-7.903Z" style="fill-rule:nonzero;"/><path d="M92.889,-14.42c-1.975,1.319 -1.975,1.975 -1.319,3.955l10.535,19.759c0.663,1.312 1.981,1.968 3.293,1.312c1.981,-0.656 1.981,-1.975 1.318,-3.949l-10.534,-19.758c-0.662,-1.319 -1.974,-1.981 -3.293,-1.319Z" style="fill-rule:nonzero;"/><path d="M117.259,92.932c3.293,-12.516 0,-21.732 -7.905,-28.319l-13.834,-4.612l-1.312,14.491c2.63,9.88 9.878,16.466 23.051,18.44Z" style="fill:#858585;fill-rule:nonzero;"/><path d="M116.597,67.906c-2.631,-3.956 -7.243,-6.586 -12.51,-8.561l-8.567,-1.981l-1.975,1.981l-1.975,7.243c-0.656,5.93 0.656,11.197 3.293,15.809c3.949,6.586 11.197,11.854 22.395,13.172l2.63,-1.318c2.638,-10.542 1.976,-19.096 -3.291,-26.345Zm-17.122,11.854c-1.975,-3.293 -2.637,-6.586 -2.637,-10.535l0.663,-6.586c6.586,1.974 11.191,4.605 14.484,8.561c2.637,3.956 3.956,7.905 3.956,12.51l-0.663,5.93c-7.898,-1.976 -13.173,-5.268 -15.803,-9.88Z" style="fill-rule:nonzero;"/><path d="M81.691,39.587c-1.318,0.656 -1.318,1.312 -0.656,3.293l12.51,18.44c0.663,1.318 1.975,1.974 3.956,1.318c1.313,-1.318 1.313,-3.293 0,-3.949l-11.86,-19.103l-3.95,0.001Z" style="fill-rule:nonzero;"/><path d="M105.399,133.767c3.293,-12.509 0,-21.732 -7.898,-27.663l-13.835,-5.268l-1.318,14.491c1.981,9.88 9.879,16.465 23.051,18.44Z" style="fill:#858585;fill-rule:nonzero;"/><path d="M81.035,100.174l-1.318,7.911c-0.663,5.924 0.656,11.191 2.631,15.803c4.611,6.586 11.86,11.198 22.395,13.172c1.974,0 2.637,-0.662 3.293,-1.975c2.637,-11.198 1.318,-19.758 -3.949,-25.688c-2.637,-3.949 -6.586,-7.242 -12.516,-9.223l-7.905,-1.313c-1.318,0.001 -2.631,0.001 -2.631,1.313Zm4.606,3.955c6.586,1.318 11.197,3.956 14.491,7.905c1.974,3.293 3.955,7.242 3.955,13.172l-0.662,5.268c-7.905,-1.975 -13.172,-5.268 -15.803,-9.879c-1.981,-2.631 -3.293,-5.924 -3.293,-9.88c0,-2.63 0.655,-5.267 1.312,-6.586Z" style="fill-rule:nonzero;"/><path d="M69.838,79.76c-1.975,1.318 -1.975,2.636 -0.663,3.949l11.86,18.446c1.313,1.974 2.63,1.974 3.949,1.312c1.975,-1.312 1.975,-2.63 0.656,-3.949l-11.854,-18.44c-1.318,-1.974 -2.63,-1.974 -3.948,-1.318Z" style="fill-rule:nonzero;"/><path d="M17.149,171.309c13.172,0.656 21.733,-3.293 25.682,-13.172l2.637,-14.49l-13.828,1.318c-9.88,3.949 -14.491,12.516 -14.491,26.344Z" style="fill:#858585;fill-rule:nonzero;"/><path d="M46.124,141.015l-7.898,0c-5.931,0.656 -10.542,2.631 -14.491,5.924c-6.586,4.611 -9.224,13.172 -9.224,24.37c0,0.656 0.663,1.975 1.975,1.975c11.197,1.319 19.102,-1.975 25.032,-7.905c3.292,-3.293 5.923,-8.561 6.586,-13.829l0,-7.904l-1.98,-2.631Zm-19.096,9.88c3.949,-3.956 9.217,-5.274 15.803,-4.618c0,5.93 -1.312,11.86 -5.268,15.809c-4.611,4.612 -9.879,5.93 -17.784,5.93c0.663,-7.905 2.638,-13.172 7.249,-17.121Z" style="fill-rule:nonzero;"/><path d="M361.6,-108.6l-3.293,0.656c-9.878,17.121 -19.103,39.516 -27.663,67.841c-18.438,55.982 -25.024,112.62 -19.758,168.601c0,1.975 1.318,2.637 2.639,2.637c1.974,-0.662 2.63,-1.325 2.63,-2.637c-4.604,-55.981 1.317,-111.963 19.103,-166.633c8.562,-27.656 17.783,-50.052 27.663,-66.517c0.653,-1.973 0.653,-3.291 -1.321,-3.948Z" style="fill-rule:nonzero;"/><path d="M326.695,110.053c2.631,10.542 11.197,15.153 24.369,16.465c1.975,-13.828 -1.98,-22.389 -10.541,-27.657l-14.491,-3.293l0.663,14.485Z" style="fill:#858585;fill-rule:nonzero;"/><path d="M333.938,94.25l-7.904,-1.319c-1.313,0 -1.975,1.319 -1.975,1.981c-1.318,1.313 -1.318,3.949 -1.318,7.899c0,5.93 1.98,11.197 5.273,15.152c3.949,5.924 12.511,10.535 23.052,11.191c1.975,0 2.632,-0.656 2.632,-1.975c1.316,-10.542 0,-19.096 -5.925,-25.025c-3.294,-4.61 -8.569,-6.585 -13.835,-7.904Zm-1.975,21.078c-2.637,-3.293 -3.294,-7.905 -3.294,-13.172l0,-3.293c6.587,0 11.854,2.637 15.147,6.586c3.955,3.949 5.268,8.561 5.268,15.147l-0.655,2.63c-7.906,-1.312 -13.173,-3.95 -16.466,-7.898Z" style="fill-rule:nonzero;"/><path d="M310.886,75.811c-1.975,1.313 -1.975,2.637 -0.655,3.95l13.828,17.784l3.955,0c1.313,-1.319 1.313,-1.975 0.655,-3.293l-14.49,-17.784l-3.293,-0.657Z" style="fill-rule:nonzero;"/><path d="M328.014,61.32c1.313,10.541 9.218,16.465 22.39,19.096c3.294,-12.51 0,-22.389 -7.904,-28.313l-13.829,-5.274l-0.657,14.491Z" style="fill:#858585;fill-rule:nonzero;"/><path d="M349.746,55.396c-3.293,-4.618 -7.904,-7.249 -13.172,-9.223l-7.905,-1.981c-0.655,0 -1.974,0.663 -2.637,1.981c-0.656,0.656 -0.656,3.293 -1.313,7.898c0,5.93 0.655,11.204 3.293,15.153c3.949,7.242 11.19,11.853 21.732,13.171l3.293,-1.318c2.633,-11.196 1.321,-19.757 -3.291,-25.681Zm-4.611,2.631c2.638,3.293 3.294,7.905 3.294,12.51l0,5.93c-7.904,-1.974 -13.173,-5.268 -16.466,-9.879c-1.319,-1.975 -1.975,-5.268 -1.975,-9.879l0.654,-6.586c7.252,1.318 11.2,3.949 14.493,7.904Z" style="fill-rule:nonzero;"/><path d="M315.497,26.415c-1.974,0 -2.636,1.312 -1.318,3.293l11.854,18.44c1.98,1.975 2.637,1.975 3.956,1.318c1.975,-1.318 1.975,-2.637 1.317,-3.949l-12.516,-19.103l-3.293,0.001Z" style="fill-rule:nonzero;"/><path d="M335.912,23.122c2.637,9.879 9.879,15.809 23.052,17.777c2.636,-12.51 0.662,-22.389 -8.562,-27.657l-13.172,-5.273l-1.318,15.153Z" style="fill:#858585;fill-rule:nonzero;"/><path d="M358.307,16.536c-3.293,-4.612 -7.903,-7.242 -13.172,-9.223l-7.903,-1.975l-2.632,1.975c-0.662,0.656 -0.662,3.293 -1.317,7.905c-0.662,5.923 0.655,11.197 3.293,15.146c3.949,7.242 11.197,11.197 21.731,13.172l3.293,-1.975c1.974,-10.54 1.319,-19.095 -3.293,-25.025Zm-19.758,-5.274c6.586,0.663 11.854,3.956 15.147,8.567c2.636,3.293 3.955,7.242 3.955,11.854l-0.663,5.924c-7.904,-1.313 -13.172,-4.605 -15.804,-9.879c-1.98,-2.63 -2.637,-5.923 -2.637,-10.535l0.002,-5.931Z" style="fill-rule:nonzero;"/><path d="M322.739,-12.445c-1.313,1.318 -1.313,2.637 -0.655,3.293l13.172,19.102l3.293,0.656c1.318,-1.312 1.976,-2.637 0.655,-3.949l-12.509,-18.446l-3.956,-0.656Z" style="fill-rule:nonzero;"/><path d="M274.662,135.085c13.172,-1.319 21.076,-6.586 23.714,-17.122l0,-14.497c-5.274,0 -9.224,1.326 -13.835,3.956c-8.561,5.268 -12.51,14.492 -9.879,27.663Z" style="fill:#858585;fill-rule:nonzero;"/><path d="M298.376,100.836c-9.224,0 -15.81,3.293 -21.739,9.879c-4.604,5.268 -6.586,13.835 -4.604,24.37l2.631,2.637c11.196,-1.325 18.438,-5.274 23.052,-11.86c4.612,-6.586 5.269,-13.829 3.293,-23.051l-2.633,-1.975Zm-17.127,13.173c3.292,-4.612 7.903,-6.586 14.489,-7.905l0.656,4.611c0,4.612 -0.656,8.561 -3.293,11.854c-2.631,4.611 -7.897,7.905 -16.466,9.223l-0.655,-3.949c0,-5.929 1.976,-10.541 5.269,-13.834Z" style="fill-rule:nonzero;"/><path d="M309.567,84.372l-13.173,17.784c-0.656,0.656 -0.656,1.974 0,3.292l3.955,0l13.828,-17.784c1.318,-1.974 0.662,-3.292 -0.654,-3.955l-3.956,0.663Z" style="fill-rule:nonzero;"/><path d="M296.395,49.466l-14.482,-1.318c-9.88,1.975 -16.465,9.216 -19.104,22.389c12.517,3.956 22.396,0.663 28.318,-7.242c3.294,-3.95 4.612,-8.561 5.268,-13.829Z" style="fill:#858585;fill-rule:nonzero;"/><path d="M297.714,46.829l-23.708,1.319c-7.249,3.956 -11.854,11.197 -14.49,21.733c0,1.318 0.656,2.637 2.639,2.637c10.535,3.293 19.096,1.975 25.681,-2.637c6.587,-3.949 10.542,-11.191 11.198,-20.415l-1.32,-2.637Zm-21.734,5.93l17.121,-1.318c-1.312,6.586 -4.604,11.854 -8.562,14.491c-4.61,3.293 -11.197,3.949 -18.438,1.975c2.637,-7.906 5.93,-13.173 9.879,-15.148Z" style="fill-rule:nonzero;"/><path d="M314.179,35.638l-19.096,11.848c-1.981,0.663 -1.981,1.981 -0.662,3.293l3.293,0.663l19.104,-11.198c1.975,-0.656 1.975,-2.637 1.316,-3.949c-1.318,-1.319 -2.637,-1.982 -3.955,-0.657Z" style="fill-rule:nonzero;"/><path d="M275.324,39.587c13.828,0.656 22.39,-3.293 27.002,-11.86c2.636,-4.605 3.292,-9.217 3.292,-14.484l-14.491,1.313c-9.878,2.636 -15.147,11.203 -15.803,25.031Z" style="fill:#858585;fill-rule:nonzero;"/><path d="M308.256,13.243c0,-1.318 -0.662,-1.981 -2.638,-2.637c-8.56,-1.312 -16.466,0 -23.052,4.612c-5.93,5.268 -9.224,13.172 -9.879,24.37c0,1.312 0.655,1.974 2.637,1.974c10.535,1.319 19.097,-0.662 24.364,-6.586c5.93,-5.268 9.223,-13.172 8.568,-21.733Zm-29.638,23.707c0.655,-7.898 3.293,-13.828 7.241,-17.121c4.611,-3.293 9.88,-4.611 16.467,-3.949c0,7.242 -2.638,11.847 -5.932,15.141c-3.949,4.617 -10.535,5.929 -17.776,5.929Z" style="fill-rule:nonzero;"/><path d="M324.721,-3.222l-3.956,0l-17.121,14.484l-1.316,1.981l0.655,1.975l3.955,0l17.121,-14.491c1.317,-1.312 1.317,-2.637 0.662,-3.949Z" style="fill-rule:nonzero;"/><path d="M304.962,140.353c-3.955,9.216 -1.318,18.44 7.899,27.663c9.878,-9.223 12.515,-18.447 9.223,-27.663l-8.561,-11.854l-8.561,11.854Z" style="fill:#858585;fill-rule:nonzero;"/><path d="M312.204,125.863l-5.93,5.93c-3.948,5.268 -5.269,9.879 -5.925,15.146c-0.661,7.249 2.632,15.147 11.198,23.051c0.655,1.319 2.63,1.319 3.292,0c7.898,-7.249 11.854,-15.146 11.191,-23.051c0,-5.268 -1.313,-9.879 -5.269,-15.146l-5.268,-5.93c-1.314,-0.656 -2.632,-0.656 -3.289,0Zm-6.586,22.395l0,-1.319c0,-5.268 3.293,-10.541 7.905,-15.146c5.268,5.268 7.24,9.879 7.903,15.146l0,1.319c0,4.605 -2.637,9.879 -8.565,15.146c-4.605,-5.267 -7.243,-10.541 -7.243,-15.146Z" style="fill-rule:nonzero;"/><path d="M123.183,-80.281c-1.318,1.318 -1.318,2.63 0.662,3.293c28.975,19.096 54.001,61.905 77.051,130.403c11.86,34.249 19.758,67.18 25.689,98.135l0.655,1.975l2.638,0l1.316,-1.319l0.658,-1.974c-6.588,-32.931 -15.147,-67.18 -26.346,-100.766c-23.051,-67.842 -48.733,-111.307 -79.033,-130.41c-1.316,-1.311 -2.628,-1.311 -3.29,0.663Z" style="fill-rule:nonzero;"/><path d="M238.438,131.792c4.612,8.561 13.836,12.516 27.008,11.191c-0.662,-13.828 -5.93,-21.726 -15.809,-25.02l-13.828,-0.662l2.629,14.491Z" style="fill:#858585;fill-rule:nonzero;"/><path d="M257.541,119.276c-3.955,-3.293 -8.561,-5.268 -14.49,-5.268l-7.904,0.663c-1.976,0.656 -1.976,1.312 -1.976,2.63c-0.655,0.662 -0.655,3.293 0,7.905c1.976,5.268 3.95,9.879 7.243,13.828c5.93,5.931 14.49,7.905 25.688,6.586l1.976,-3.293c-0.657,-10.535 -4.613,-18.439 -10.537,-23.051Zm5.268,21.077c-7.904,0 -13.828,-1.319 -17.783,-5.268c-4.61,-3.949 -6.586,-9.223 -6.586,-15.809c6.586,-0.656 11.854,1.319 16.465,4.611c3.954,3.294 6.584,8.561 7.904,16.466Z" style="fill-rule:nonzero;"/><path d="M216.051,100.836c-0.664,1.319 -0.664,3.293 0.655,3.956l16.465,14.484l3.95,-0.656c1.316,-1.318 1.316,-2.637 0,-3.292l-17.122,-14.491l-3.948,-0.001Z" style="fill-rule:nonzero;"/><path d="M224.611,82.396c4.609,9.224 13.826,13.172 27,11.191c-1.319,-13.828 -5.926,-21.727 -15.803,-24.363l-14.49,-1.319l3.293,14.491Z" style="fill:#858585;fill-rule:nonzero;"/><path d="M243.051,69.881c-3.294,-3.293 -8.563,-4.605 -14.49,-5.268l-7.906,1.319c-1.311,0 -1.973,0.656 -1.973,1.975c-0.656,1.319 0,3.293 0.662,7.904c1.311,5.931 3.948,10.535 7.242,13.829c6.585,5.93 15.146,7.905 25.688,6.586c1.313,0 1.976,-0.656 1.976,-2.637c-0.664,-11.193 -4.613,-19.096 -11.199,-23.708Zm-19.103,0.656c6.586,-0.656 12.516,0.663 16.466,3.956c4.609,3.292 6.585,8.56 7.904,16.465c-7.904,0.663 -13.172,-1.318 -17.784,-5.268c-3.948,-3.949 -6.586,-9.223 -6.586,-15.153Z" style="fill-rule:nonzero;"/><path d="M202.216,52.104c-1.319,1.312 -1.319,2.63 0,3.949l17.128,13.828l3.948,0c0.656,-1.312 0.656,-2.637 0,-3.949l-17.783,-14.491l-3.293,0.663Z" style="fill-rule:nonzero;"/><path d="M214.068,42.88c6.586,8.561 15.811,11.191 28.981,7.898c-2.637,-13.172 -9.224,-21.07 -19.103,-22.389l-14.484,1.318l4.606,13.173Z" style="fill:#858585;fill-rule:nonzero;"/><path d="M231.854,28.39c-4.611,-1.975 -9.217,-3.293 -15.146,-3.293c-3.949,0.662 -6.586,1.318 -7.904,1.975c-1.318,0 -1.975,1.318 -1.975,2.637l1.975,7.898c1.975,5.274 4.611,9.223 9.223,12.516c6.588,4.611 15.146,5.93 25.683,2.637c1.979,0 2.638,-1.318 1.979,-2.637c-2.638,-10.536 -6.587,-18.44 -13.835,-21.733Zm-19.097,2.631l17.122,1.981c3.948,2.636 7.242,7.898 9.878,15.146c-7.903,1.318 -13.827,0.662 -18.438,-1.975c-4.613,-3.293 -7.906,-8.567 -8.562,-15.152Z" style="fill-rule:nonzero;"/><path d="M188.389,15.88c-1.32,1.312 -0.664,2.63 0.654,3.949l19.104,11.854c1.975,1.319 2.631,0.663 3.949,-1.318c0.661,-0.656 0.661,-2.637 -1.318,-3.293l-18.44,-11.854l-3.949,0.662Z" style="fill-rule:nonzero;"/><path d="M150.845,-17.713c-5.268,-0.663 -9.879,1.318 -13.828,3.293c-9.223,5.268 -13.172,14.491 -11.198,27.663c13.828,-1.318 21.733,-6.586 24.37,-16.465l0.656,-14.491Z" style="fill:#858585;fill-rule:nonzero;"/><path d="M153.482,-18.375l-2.637,-1.968c-9.223,-0.662 -15.809,2.631 -21.733,8.555c-5.268,5.93 -7.248,14.497 -5.93,25.032c0,1.975 0.662,2.637 2.637,2.637c11.198,-1.325 18.44,-5.274 23.708,-11.204c4.611,-6.587 5.93,-14.486 3.955,-23.052Zm-20.42,10.542c3.956,-4.612 9.223,-7.249 15.146,-7.249l0,3.955c0,4.612 -0.656,9.217 -3.292,12.51c-3.293,4.618 -8.561,7.249 -16.465,8.567l-0.656,-3.293c-0.001,-5.93 1.974,-11.198 5.267,-14.49Z" style="fill-rule:nonzero;"/><path d="M191.018,120.595c-7.897,6.585 -10.535,16.465 -6.585,28.974c12.517,-2.63 20.421,-9.216 22.396,-19.095l-1.975,-15.146c-4.613,0.655 -9.225,2.636 -13.836,5.267Z" style="fill:#858585;fill-rule:nonzero;"/><path d="M196.948,115.328c-5.931,1.974 -9.88,5.268 -12.517,9.223c-3.949,5.924 -5.268,14.484 -2.63,25.682c1.318,1.318 1.974,1.974 3.293,1.974c10.535,-1.974 17.784,-7.242 21.733,-13.828c1.975,-4.612 3.293,-9.88 2.637,-15.81l-1.979,-7.898c-0.656,-1.325 -1.976,-1.981 -3.293,-1.981l-7.244,2.638Zm-9.88,30.293l-1.318,-6.586c0,-3.949 0.662,-7.898 3.293,-11.854c2.639,-4.611 7.905,-7.904 14.491,-8.561l0.655,7.243l-1.975,9.223c-2.629,5.267 -7.903,8.56 -15.146,10.535Z" style="fill-rule:nonzero;"/><path d="M214.068,94.913l-11.19,19.096c-1.317,1.319 -0.662,3.293 0.656,3.955c1.975,0.656 3.293,0.656 3.293,-0.662l11.854,-19.758c1.317,-1.319 1.317,-1.975 -0.656,-3.293l-3.957,0.662Z" style="fill-rule:nonzero;"/><path d="M180.482,75.811c-6.586,6.586 -7.904,16.466 -2.637,28.982c12.516,-5.274 19.103,-12.516 19.103,-22.396l-3.294,-14.49c-4.611,1.318 -9.222,3.954 -13.172,7.904Z" style="fill:#858585;fill-rule:nonzero;"/><path d="M195.629,66.588c-0.654,-0.656 -1.975,-1.313 -2.63,-0.656c-1.981,0 -3.956,0.656 -7.905,3.293c-4.612,2.636 -8.561,6.585 -11.198,10.535c-3.293,7.904 -2.637,16.465 1.975,25.688c0.663,1.975 1.319,2.637 3.293,1.975c10.542,-3.956 16.465,-9.879 19.104,-17.784c1.975,-4.605 1.975,-9.879 0,-15.146l-2.639,-7.905Zm-1.975,21.739c-2.637,5.261 -6.586,9.217 -13.828,12.51c-1.981,-4.611 -2.637,-7.905 -2.637,-10.541l1.974,-7.899c1.975,-4.611 6.586,-8.567 12.517,-11.197c1.975,3.956 2.631,7.249 2.631,11.197l-0.657,5.93Z" style="fill-rule:nonzero;"/><path d="M199.585,46.173l-9.224,21.07c0,1.981 0,2.637 1.975,3.293c1.318,0.663 1.975,0.663 3.293,-1.312l8.563,-21.077c1.317,-1.319 0,-1.975 -1.313,-3.293c-1.983,-0.662 -2.638,0.001 -3.294,1.319Z" style="fill-rule:nonzero;"/><path d="M167.311,38.269c-7.242,7.904 -7.905,17.784 -1.975,29.637c11.854,-5.268 18.439,-13.172 18.439,-23.714l-3.949,-13.828c-5.273,1.319 -9.222,3.949 -12.515,7.905Z" style="fill:#858585;fill-rule:nonzero;"/><path d="M184.432,36.294l-3.293,-6.586c0,-1.981 -0.656,-1.981 -2.631,-1.981l-7.249,3.956c-4.604,2.631 -8.56,6.586 -10.535,11.198c-3.293,7.898 -2.637,16.465 2.637,26.345c0,0.656 1.312,1.312 3.293,0.656c9.879,-3.949 15.803,-9.879 18.439,-17.122c1.975,-5.275 1.319,-10.536 -0.661,-16.466Zm-17.777,27.657c-1.981,-4.605 -2.637,-7.898 -2.637,-11.191l1.974,-7.904c1.975,-4.612 5.931,-8.561 11.854,-11.198c1.981,4.612 2.637,7.904 2.637,11.198l-0.656,5.923c-1.981,5.274 -5.931,9.222 -13.172,13.172Z" style="fill-rule:nonzero;"/><path d="M185.094,8.631l-7.904,21.077c-0.656,1.313 0,3.293 1.318,3.293c1.975,0.656 2.631,0 3.293,-1.319l8.561,-21.077c0,-1.975 0,-3.293 -1.975,-3.293c-1.319,-0.655 -2.637,-0.655 -3.293,1.319Z" style="fill-rule:nonzero;"/><path d="M226.586,165.379c0,9.879 6.585,17.784 19.758,21.077c5.268,-11.853 3.293,-21.733 -3.949,-28.975l-13.172,-6.586l-2.637,14.484Z" style="fill:#858585;fill-rule:nonzero;"/><path d="M226.586,150.232l-2.638,7.249c-0.656,5.923 -0.656,10.535 1.317,15.803c3.293,7.249 10.543,12.509 20.42,15.803c1.313,0.663 2.633,0 3.295,-1.313c3.949,-10.535 3.949,-19.102 0,-26.344c-2.638,-3.949 -6.586,-7.905 -11.859,-9.88l-7.242,-3.292c-1.318,0 -2.638,0 -3.293,1.974Zm18.437,32.931c-7.902,-3.292 -12.508,-6.586 -15.146,-11.854l-0.657,-7.905c0,-2.63 0.657,-5.923 1.313,-9.217c5.93,1.968 11.196,5.262 13.172,10.535c1.979,1.975 2.638,5.268 2.638,8.561l-1.32,9.88Z" style="fill-rule:nonzero;"/><path d="M121.864,92.932c-1.975,48.083 -0.656,100.772 4.611,158.066c10.542,115.912 36.224,199.563 75.083,250.928l130.403,-5.262c-42.81,-54.014 -72.446,-138.309 -86.276,-250.934c-6.584,-56.644 -9.877,-107.352 -8.564,-153.454l-115.257,0.656Z" style="fill:#f00;fill-rule:nonzero;"/><path d="M239.757,89.639l-2.636,-0.656l-115.257,0.656c-1.975,0 -3.293,1.318 -3.293,3.292c-1.974,48.74 -0.656,102.085 5.274,160.704c10.535,115.256 36.224,198.896 75.078,250.272c0.662,1.311 1.318,1.311 2.638,1.311l130.402,-5.261l3.293,-1.324l-0.656,-3.293c-42.809,-54.002 -71.135,-136.982 -84.963,-248.291c-7.242,-56.638 -9.88,-108.015 -9.223,-154.772l-0.657,-2.638Zm-5.93,5.93l0,11.854c0,59.275 5.274,116.575 14.491,173.212c14.49,93.524 40.834,164.653 77.058,213.394l-121.842,4.604c-30.956,-40.828 -52.689,-102.74 -65.861,-185.723c-9.223,-54.007 -13.172,-113.282 -13.172,-177.168l0.656,-39.517l108.67,-0.656Z" style="fill-rule:nonzero;"/></g></g><rect id="PATH77" x="2.92" y="2.74" width="366.67" height="582.52" style="fill:none;stroke:#000;stroke-width:3px;"/></svg>