<?xml version="1.0" encoding="UTF-8" standalone="no"?><!DOCTYPE svg PUBLIC "-//W3C//DTD SVG 1.1//EN" "http://www.w3.org/Graphics/SVG/1.1/DTD/svg11.dtd"><svg width="100%" height="100%" viewBox="0 0 372 587" version="1.1" xmlns="http://www.w3.org/2000/svg" xmlns:xlink="http://www.w3.org/1999/xlink" xml:space="preserve" xmlns:serif="http://www.serif.com/" style="fill-rule:evenodd;clip-rule:evenodd;stroke-miterlimit:100;"><g><path d="M198.065,213.849l21.079,7.248l20.424,-1.319c7.247,-3.294 14.495,-9.882 21.742,-19.764l8.563,-14.495l-14.495,0l-24.374,0.659c-7.247,1.979 -14.495,7.248 -23.058,15.154c-3.952,4.61 -7.247,8.564 -9.881,12.517Z" style="fill:#858585;fill-rule:nonzero;"/><path d="M271.849,183.543l-2.635,0l-11.197,0c-11.201,-1.975 -20.424,-1.975 -27.671,0c-7.247,1.975 -15.811,7.248 -23.718,16.47c-3.953,3.954 -7.247,7.907 -10.541,12.517l0,1.979l1.318,1.975l16.471,5.269l11.2,3.294c4.61,0.66 9.223,-0.656 15.151,-2.634c12.517,-5.929 23.059,-17.786 32.281,-35.575l-0.659,-3.295Zm-14.492,4.613l7.903,0.656c-8.563,15.154 -18.445,24.377 -27.668,28.99l-11.86,1.975c-2.634,0 -5.928,-1.319 -9.882,-3.294l-13.176,-4.613c10.541,-13.176 20.424,-20.42 29.646,-23.058c5.933,-1.975 14.495,-1.975 25.037,-0.656Z" style="fill-rule:nonzero;"/><path d="M253.403,193.425l-2.634,-1.319c-7.907,5.272 -19.104,9.226 -33.6,13.176l-19.104,4.613c-0.66,0 -1.319,1.319 -1.319,2.634l1.979,1.319c22.398,-3.953 40.844,-9.222 54.679,-17.789c0.659,-1.315 1.319,-1.974 -0.001,-2.634Z" style="fill-rule:nonzero;"/><path d="M173.688,95.924c0,-7.907 -1.975,-15.814 -4.609,-22.402c-2.638,-6.588 -5.932,-11.198 -10.542,-15.151c-2.635,-3.294 -7.248,-5.269 -13.835,-6.588l-16.47,-1.319l-15.811,-3.95l-7.907,-3.294c5.272,9.882 11.201,16.47 17.789,21.08c3.953,1.979 11.857,5.272 24.374,9.223c7.907,3.294 15.154,7.907 21.083,13.835l5.928,8.566Z" style="fill:#858585;fill-rule:nonzero;"/><path d="M141.408,74.841l4.613,1.319c7.904,2.634 13.832,6.588 19.104,12.517l5.929,7.904c0.659,1.319 1.975,1.319 3.294,1.319l1.975,-1.975c0,-8.566 -1.975,-16.47 -5.269,-24.377c-2.635,-5.929 -5.929,-11.201 -9.882,-15.151c-3.294,-3.294 -7.907,-5.272 -13.835,-6.588l-15.811,-1.979l-2.634,0l-15.154,-3.294l-7.904,-3.954l-3.294,0.66c-1.319,1.319 -1.319,1.979 0,3.294c5.269,9.882 11.198,17.129 17.786,21.083c3.952,2.634 11.199,5.928 21.082,9.222Zm6.588,-3.294l-4.613,-1.975l-17.786,-6.588c-5.272,-3.294 -9.882,-7.907 -14.495,-13.835l17.129,3.954l2.635,0c13.835,1.316 23.058,3.294 26.352,6.588c6.588,7.244 10.542,15.811 13.176,26.352c-6.588,-6.589 -14.492,-11.861 -22.398,-14.496Z" style="fill-rule:nonzero;"/><path d="M279.756,111.735l28.986,1.315l-13.835,-13.832c-7.904,-6.588 -15.151,-9.226 -21.739,-8.566c-5.929,0.659 -16.471,3.954 -29.646,11.201l-17.789,10.542l-1.975,8.563c15.151,-5.27 33.599,-8.564 55.998,-9.223Z" style="fill:#858585;fill-rule:nonzero;"/><path d="M309.401,111.075c-13.176,-16.47 -25.032,-23.717 -36.233,-23.058c-6.588,0 -16.471,3.954 -29.646,11.201c-9.882,4.609 -16.47,8.563 -19.764,10.538l-0.659,1.319l-2.635,9.882l1.318,1.976l2.635,0.659c15.151,-5.929 32.94,-9.223 54.68,-9.223l28.986,1.319l2.638,-1.319l-0.659,-3.294l-0.661,0Zm-36.233,-17.789c9.223,-0.656 18.445,4.613 28.986,16.47c-28.986,-1.975 -54.679,0.66 -75.103,7.907l0.659,-3.953c5.929,-3.954 12.517,-7.904 19.104,-11.198c12.518,-5.931 21.084,-9.226 26.354,-9.226Z" style="fill-rule:nonzero;"/><path d="M180.936,130.839c-3.953,-4.613 -10.542,-8.563 -20.423,-12.517c-9.223,-3.954 -17.786,-6.588 -26.352,-8.566l-30.962,-1.975l-18.448,-0.66l19.764,11.86l23.058,13.176l53.363,-1.318Z" style="fill:#858585;fill-rule:nonzero;"/><path d="M182.911,128.864c-4.609,-4.613 -11.857,-9.226 -21.739,-13.176l-27.011,-7.907l-30.306,-3.294l-19.105,0c-1.975,0 -2.634,0.659 -3.294,1.975c0,1.319 1.319,2.638 1.979,2.638l17.786,11.198l25.036,14.495c9.223,3.953 28.327,3.953 55.339,-1.319l1.975,-1.315l-0.66,-3.295Zm-78.397,-13.176l-9.882,-5.932l38.869,2.638c17.13,3.294 30.965,9.223 40.847,16.47c-23.717,3.95 -38.869,3.95 -46.116,0.656c-5.929,-1.975 -13.836,-6.587 -23.718,-13.832Z" style="fill-rule:nonzero;"/><path d="M170.394,131.499c0,9.223 2.635,16.47 7.248,21.08c9.882,11.201 13.836,22.402 12.517,36.234c-3.953,38.872 -12.517,69.174 -25.033,91.576l11.857,11.198c15.811,-38.869 25.036,-68.515 27.012,-88.278c0.659,-11.857 2.634,-21.739 3.953,-29.646l1.975,-11.857c0,-3.954 0.66,-7.907 3.294,-13.176c1.979,-4.613 3.954,-8.566 7.248,-11.201l10.541,-10.542c3.954,-5.929 4.61,-13.835 1.976,-22.398c-9.223,-2.635 -19.104,-3.954 -28.986,-3.954c-19.105,0.66 -30.306,6.588 -32.94,18.448l-0.662,12.516Z" style="fill:#858585;fill-rule:nonzero;"/><path d="M167.76,132.158c0,9.882 3.294,16.47 7.907,22.398c5.269,5.929 9.223,13.176 11.198,20.424l0.659,13.176c-0.659,10.538 -2.634,23.058 -5.928,36.89c-4.613,22.402 -11.201,40.188 -18.449,54.023c-1.315,0.66 -1.315,1.319 0,2.635l11.86,11.86l2.635,0.656l1.975,-1.975c15.814,-38.869 25.037,-68.515 27.011,-88.938c0.66,-10.542 2.635,-21.083 3.954,-31.622l1.975,-9.882c0,-3.294 1.319,-7.907 3.294,-12.52c1.319,-3.95 3.954,-7.244 6.588,-9.882l1.979,-1.975c5.27,-4.613 8.563,-8.563 9.882,-11.857c2.635,-5.932 3.294,-13.176 1.316,-22.402l-1.976,-1.975l-20.424,-3.294c-15.15,-0.66 -26.352,1.319 -34.255,5.928c-5.932,3.954 -9.226,8.566 -11.201,15.154c-0.66,1.977 -0.66,6.59 0,13.178Zm5.928,-12.52c0.66,-4.609 3.294,-8.563 7.907,-11.197c5.928,-3.954 15.81,-5.929 27.667,-5.272l21.083,3.294l1.976,7.907c0,3.954 -1.976,7.907 -3.951,11.201l-7.247,7.244l-2.635,2.638c-2.638,3.294 -5.272,7.244 -7.906,11.857c-2.635,5.27 -3.294,9.882 -3.294,14.495l-1.319,8.563c-1.975,10.542 -3.294,21.083 -4.609,32.94c-1.979,18.445 -10.542,46.775 -25.693,83.669l-7.248,-7.907c7.904,-13.835 13.835,-31.621 19.104,-54.023c2.635,-13.832 4.613,-26.352 5.27,-36.234l0.659,-3.95c0,-12.52 -5.27,-23.718 -13.835,-34.259c-4.61,-4.613 -6.588,-11.857 -6.588,-22.399l0.659,-8.567Z" style="fill-rule:nonzero;"/><path d="M210.582,105.806c0.659,-5.932 -4.613,-15.814 -17.13,-29.646l-11.857,0c-7.248,0 -11.86,1.975 -13.835,3.95c-1.975,2.638 -2.635,9.226 -0.66,19.764l4.613,24.377c1.975,5.269 7.248,7.907 15.811,6.588c8.563,-0.66 13.836,-2.635 17.13,-5.269c3.293,-8.566 5.928,-15.154 5.928,-19.764Z" style="fill:#d96038;fill-rule:nonzero;"/><path d="M180.276,73.522c-7.248,0.659 -12.517,2.638 -14.492,4.613c-2.638,3.954 -2.638,12.517 -0.66,26.352c1.975,13.176 3.294,19.764 4.61,20.423c0.659,3.954 3.953,7.248 8.566,7.904l15.81,0c5.929,-1.316 9.883,-3.294 12.517,-5.269l0.66,-1.319l6.588,-20.42c0.659,-5.932 -5.929,-16.47 -19.104,-32.284l-1.319,-0.656l-13.176,0.656Zm-10.541,24.377c-1.316,-8.563 -1.316,-14.495 0,-16.47c1.978,-1.975 9.882,-3.294 21.743,-3.294l11.197,14.495l5.272,11.857l0,0.659c-0.659,4.61 -1.979,10.542 -5.272,18.445l-9.882,3.954l-13.176,0c-2.634,0 -4.61,-1.975 -5.269,-3.954c-2.635,-8.562 -3.954,-17.129 -4.613,-25.692Z" style="fill-rule:nonzero;"/><path d="M211.241,107.781l8.563,-11.857c3.953,-9.226 4.612,-16.47 1.318,-21.083c-3.294,-5.269 -9.223,-8.563 -17.129,-10.542c-7.907,-1.316 -12.517,-1.316 -13.177,1.979l-5.269,13.832c-1.979,9.226 -1.979,15.814 0.656,22.402c3.294,5.269 7.906,8.563 15.154,7.904l9.884,-2.635Z" style="fill:#d96038;fill-rule:nonzero;"/><path d="M223.758,72.866c-3.294,-4.613 -7.907,-7.907 -13.836,-9.882l-15.811,-1.319c-3.294,0 -5.269,1.319 -6.588,3.294l-0.659,3.954c-5.929,13.835 -7.248,25.693 -2.635,34.256c1.319,4.613 3.953,7.248 8.563,8.566l19.764,-1.979l1.319,-0.656l8.563,-13.176c3.955,-9.226 4.614,-17.13 1.32,-23.058Zm-28.327,-6.588l5.929,0c8.563,1.315 14.491,3.95 17.785,9.882l1.319,5.269c0,7.907 -3.294,15.811 -10.542,24.377l-15.811,0.656c-2.634,-0.656 -4.612,-2.635 -5.929,-5.269c-3.293,-6.588 -1.978,-17.129 3.295,-30.965l1.975,-3.95l1.979,0Z" style="fill-rule:nonzero;"/><path d="M237.593,72.866c-0.659,-3.294 -3.294,-6.588 -7.247,-7.907c-3.953,-1.975 -7.907,-1.975 -11.201,1.975c-3.294,4.613 -6.588,11.201 -9.882,19.764c-3.294,9.882 -5.269,17.129 -4.609,22.402c0.659,4.61 1.975,7.904 3.953,9.882c1.976,1.975 4.609,2.635 8.563,2.635c7.247,0.66 11.856,-0.66 13.835,-3.954l2.635,-8.563l0,-12.52l3.294,-13.833c0.659,-4.612 1.319,-7.906 0.659,-9.881Z" style="fill:#d96038;fill-rule:nonzero;"/><path d="M227.711,66.278c4.61,1.315 6.588,3.294 7.904,6.588l-1.976,10.538l-3.294,13.176l0,9.882c0,5.272 0,8.566 -1.319,9.226c-1.315,1.975 -5.269,3.294 -11.856,3.294l-6.588,-1.319c0,4.613 1.975,6.588 6.588,6.588c8.563,0 13.835,-1.975 16.47,-5.27c1.976,-2.638 2.635,-6.588 1.976,-12.52l0.659,-9.882l2.635,-11.198c1.318,-6.588 1.978,-11.201 1.318,-13.835l-3.294,-5.929c-2.635,-1.979 -4.612,-3.294 -7.247,-3.954c-5.27,-1.319 -9.223,0 -12.517,3.294c-3.294,4.613 -6.588,11.201 -9.882,19.764c-3.294,9.223 -5.27,16.47 -5.27,22.398l0.656,1.979c0.659,5.269 3.294,7.904 7.907,8.563c-1.319,-1.975 -2.635,-5.269 -3.294,-9.222c0,-4.613 0.659,-11.86 3.953,-20.424c3.294,-9.223 6.588,-15.151 9.882,-19.104c1.977,-2.633 3.295,-2.633 6.589,-2.633Z" style="fill-rule:nonzero;"/><path d="M12.282,280.388l-6.588,37.55l9.882,21.086c8.566,15.145 15.811,25.689 22.398,30.302c10.542,8.563 26.352,14.489 44.8,18.445c4.61,0.663 9.223,-0.662 13.835,-6.588c9.223,-10.545 12.517,-32.277 11.198,-63.905l-5.269,-7.244c-4.613,-4.612 -9.882,-7.906 -16.47,-8.566l-19.764,-5.269c-5.928,-2.635 -9.882,-4.613 -12.517,-7.907l-1.978,4.612c-1.316,4.61 -0.66,9.224 1.978,14.492c-3.953,-1.315 -9.226,-3.294 -15.154,-5.929c-11.196,-5.928 -19.763,-12.515 -26.351,-21.079Z" style="fill:#858585;fill-rule:nonzero;"/><path d="M11.623,277.094l-2.635,2.635l-6.588,37.549l0,1.319l11.201,23.058c7.904,15.151 15.151,25.689 22.399,30.309c11.201,8.558 27.011,15.146 46.116,19.102c3.953,0.663 9.222,-0.662 13.835,-3.956c11.857,-9.883 16.47,-32.94 15.151,-69.831l0,-1.975c-5.269,-9.223 -13.176,-15.151 -23.717,-17.13c-17.786,-3.294 -27.668,-7.903 -30.962,-11.857l-1.979,-1.319l-2.634,0.66l-1.975,3.294c-1.319,2.634 -1.979,5.269 -1.979,7.907l0.66,5.27c-14.492,-5.929 -26.352,-13.176 -33.6,-23.718c-0.656,-1.317 -1.975,-1.317 -3.293,-1.317Zm-2.635,40.184l5.272,-29.646c10.538,11.201 23.058,18.448 38.869,22.401l3.294,-0.659l0.66,-1.979l-0.66,-1.975l-1.979,-8.563l0.66,-3.294c5.272,4.609 15.811,7.903 30.965,11.197c7.904,1.319 14.492,5.929 18.445,13.836l0.659,7.907c0,28.327 -4.613,47.428 -13.835,54.679c-2.634,2.632 -5.269,3.294 -7.903,3.294c-18.449,-3.956 -33.6,-9.882 -43.482,-17.133c-9.223,-7.899 -19.764,-24.368 -30.965,-50.065Z" style="fill-rule:nonzero;"/><path d="M15.576,300.809l-1.976,-0.656c-1.319,0.656 -1.319,1.976 -0.659,2.635l19.104,20.424c17.129,14.488 34.918,24.37 54.023,28.327c1.975,0.662 2.635,0 3.294,-0.663l-1.978,-2.632c-19.105,-4.612 -36.234,-13.838 -52.045,-27.671l-19.763,-19.764Z" style="fill-rule:nonzero;"/><path d="M68.28,312.01c-0.659,-0.659 -1.975,-0.659 -1.975,0c-1.319,0.659 -1.319,1.318 0,2.635l9.223,13.176c7.248,10.541 11.857,21.086 13.835,32.28c0.66,1.319 1.975,1.319 3.294,1.319c1.316,0 1.316,-1.319 1.316,-2.632c-3.294,-11.207 -7.904,-22.401 -15.151,-33.603l-10.542,-13.175Z" style="fill-rule:nonzero;"/><path d="M66.305,341.655c-0.659,-1.975 -1.319,-1.975 -3.294,-1.975l-26.352,4.606c-1.319,0 -1.978,0.662 -1.978,1.325l1.978,2.631l27.668,-4.612l1.978,-1.975Z" style="fill-rule:nonzero;"/><path d="M132.185,233.613l-1.979,3.954c-1.315,3.294 -1.315,6.588 -0.656,10.538c-15.813,-3.294 -27.011,-7.244 -33.599,-13.832l1.975,20.42c1.978,15.814 5.272,27.012 9.882,34.259c6.588,11.201 17.129,21.739 30.965,30.305l19.764,0c15.151,-1.318 25.692,-6.588 32.28,-15.154l-1.318,-16.47c-2.635,-11.857 -7.245,-20.42 -13.176,-25.033l-25.033,-16.47l-19.105,-12.517Z" style="fill:#858585;fill-rule:nonzero;"/><path d="M97.926,231.635l-3.294,-0.656c-1.315,0.656 -1.975,1.975 -1.975,3.294l1.975,21.739c1.979,15.811 5.272,27.671 9.882,34.915c7.907,11.86 17.789,21.742 32.281,30.965l1.319,0.659l21.739,0c15.154,-1.318 26.353,-7.247 34.259,-16.47l0,-1.979l-1.318,-17.786c-2.635,-12.517 -7.904,-21.083 -15.151,-27.011l-23.717,-15.151l-19.105,-13.176l-2.634,-0.66c-1.319,0 -1.319,0.66 -1.979,0.66l-2.634,3.95c-1.316,2.638 -1.975,5.932 -1.975,8.566l0,0.659c-13.178,-3.293 -23.06,-7.905 -27.673,-12.518Zm34.259,11.86l1.315,-5.272l17.13,11.201l23.717,15.151c5.269,4.613 9.223,11.201 11.201,21.083l1.975,17.129c-5.928,7.247 -15.811,11.857 -28.327,13.176c-5.932,0.659 -12.52,0.659 -19.107,0l-12.517,-9.223c-7.248,-6.588 -13.176,-13.176 -17.129,-19.764c-5.27,-7.907 -9.223,-23.718 -11.198,-46.116c7.903,4.61 17.786,8.563 29.646,10.538l3.294,-0.656l0.659,-2.638l-0.659,-0.656l0,-3.953Z" style="fill-rule:nonzero;"/><path d="M112.421,254.036l-1.978,0.656c-1.316,1.319 -1.316,1.319 0,2.638l20.423,20.42c14.495,15.814 26.352,28.99 33.6,40.847l3.294,0c0.659,0 1.319,-0.659 0,-2.635c-7.248,-11.201 -19.105,-24.377 -34.259,-40.847l-21.08,-21.079Z" style="fill-rule:nonzero;"/><path d="M143.383,256.671l-2.635,-1.979c-0.659,0.66 -1.315,1.319 -1.315,2.638l1.315,9.882l-0.659,19.764l1.319,1.975l2.634,-1.975l0.66,-19.764l-1.319,-10.541Z" style="fill-rule:nonzero;"/><path d="M166.441,267.212l-2.635,-1.319c-0.66,0 -1.975,1.319 -1.975,1.975l1.975,21.083c0.66,15.151 -0.66,27.67 -4.61,37.553c-1.319,1.315 -0.659,1.975 1.316,2.638c0.659,0 1.979,0 2.634,-1.322c3.294,-9.882 5.272,-23.059 4.613,-38.869l-1.318,-21.739Z" style="fill-rule:nonzero;"/><path d="M339.707,296.199l-11.2,0.659l-7.248,-0.659c4.613,-4.613 11.86,-18.449 21.083,-38.869c-9.223,-4.613 -21.739,-5.932 -36.894,-4.613l-21.079,1.975c3.95,-6.588 4.609,-11.857 2.634,-16.47c-3.953,3.953 -13.835,8.566 -27.671,13.176c-12.517,4.613 -19.764,9.226 -23.058,13.835c-5.929,8.566 -9.223,21.083 -8.563,36.894l-3.953,19.764c-2.635,14.495 -1.319,23.721 3.294,28.983c3.953,4.619 13.176,7.913 26.352,8.569l19.765,0c27.671,-7.906 44.797,-15.157 50.729,-21.745c5.927,-5.925 11.197,-19.76 15.809,-41.499Z" style="fill:#858585;fill-rule:nonzero;"/><path d="M288.319,234.929l-2.635,1.319c-3.954,3.294 -12.517,6.588 -25.033,11.201c-7.248,3.294 -13.176,5.269 -15.811,6.588c-5.272,2.635 -9.226,5.929 -11.201,9.882c-6.588,8.563 -9.223,21.739 -9.223,38.209c-3.953,12.517 -5.272,23.058 -5.272,32.277c0,8.569 1.319,14.501 4.613,18.451c5.269,5.27 13.835,8.563 27.671,9.882c9.223,1.313 16.47,1.313 21.739,0l25.033,-7.906c14.495,-5.926 23.717,-10.545 27.671,-15.151c3.953,-3.95 8.563,-11.201 12.517,-23.718l4.612,-19.104l-0.659,-3.294l-3.294,-0.66l-12.517,0.66c5.929,-7.248 11.857,-19.108 19.104,-35.578l0,-0.656l0,-1.319l-1.318,-1.976c-14.492,-5.932 -32.281,-6.588 -54.68,-3.294l1.976,-7.907l-1.316,-5.269l-1.977,-2.637Zm-7.245,19.763l0.656,1.979c1.319,1.316 1.979,1.316 3.295,1.316l18.448,-1.975l34.915,3.294c-9.223,18.445 -15.811,30.305 -19.765,34.259l-0.659,2.635l0,0.659l1.979,2.635l5.929,0.659l9.882,0c-4.613,18.445 -9.223,30.303 -13.836,34.915c-5.928,5.27 -22.398,12.514 -49.409,21.083c-7.904,1.313 -15.151,1.313 -22.399,0c-10.541,-1.318 -17.788,-3.95 -21.083,-7.907c-1.975,-2.631 -3.294,-6.588 -3.294,-13.176c0,-9.223 1.319,-19.764 5.272,-31.621l0,-1.318c0,-15.151 2.635,-27.671 7.904,-34.916c2.638,-3.954 10.541,-7.907 24.377,-13.176c7.247,-2.638 14.494,-5.932 21.739,-9.882l-3.295,8.563l-0.656,1.974Z" style="fill-rule:nonzero;"/><path d="M327.847,262.6c-1.315,-1.319 -1.975,-1.975 -2.634,-1.319c-9.223,3.953 -20.424,9.882 -32.281,19.107c-23.718,17.786 -42.162,40.184 -55.339,67.193c-0.659,0.662 0,1.981 1.316,1.981c0.659,1.313 1.318,0.656 1.978,-0.656c13.177,-26.355 30.962,-47.438 54.68,-65.224c11.201,-9.226 21.742,-14.495 30.965,-18.449c1.315,-0.658 1.975,-1.315 1.315,-2.633Z" style="fill-rule:nonzero;"/><path d="M292.932,262.6l-2.635,0l-3.953,7.907c-1.975,5.269 -3.294,11.857 -3.953,19.104c0,1.316 0.659,1.975 1.979,1.975l1.975,-1.975c0,-5.928 1.976,-12.517 3.953,-17.789l3.294,-6.588c0.659,-1.316 -0.001,-1.975 -0.66,-2.634Z" style="fill-rule:nonzero;"/><path d="M313.355,289.611c-0.659,-1.319 -0.659,-1.978 -1.979,-1.319l-21.739,3.954l-9.882,0c-0.659,-0.66 -1.319,0 -1.976,1.318c-0.659,1.315 0,1.975 1.976,1.975l9.882,0.66c7.247,0 15.151,-1.319 23.059,-3.953l0.659,-2.635Z" style="fill-rule:nonzero;"/><path d="M265.261,260.625c-1.315,0 -1.975,0.656 -2.635,1.975l-2.634,19.104c-1.319,13.835 -1.319,24.377 -1.319,32.94c0,0.659 0.659,1.318 1.979,1.318l1.975,-1.318c0,-8.563 0,-19.105 1.319,-32.281l2.635,-19.104c-0.001,-0.659 -0.001,-1.978 -1.32,-2.634Z" style="fill-rule:nonzero;"/><path d="M323.237,309.375c0,-0.659 -0.659,-1.319 -1.979,-0.659l-41.503,3.953l-19.104,0l-1.979,1.976c0,1.318 0.659,1.978 1.319,1.978l20.423,0l42.163,-4.612c0.66,-0.001 1.319,-0.66 0.66,-2.636Z" style="fill-rule:nonzero;"/><path d="M248.791,335.067l21.083,0.663l30.965,-1.325c1.315,0 1.975,-1.313 1.315,-2.632c0,-0.662 -0.659,-1.318 -2.635,-1.318l-29.646,1.318l-21.083,0c-1.976,0 -1.976,0 -1.976,1.319c0.001,1.975 0.001,1.975 1.977,1.975Z" style="fill-rule:nonzero;"/><path d="M222.438,426.637c-12.517,9.227 -18.444,20.427 -18.444,33.604l0.659,24.377c1.315,18.444 3.294,32.283 7.247,40.84c7.244,-2.631 13.176,-7.244 18.445,-13.176l21.739,14.501c18.448,9.22 38.212,13.177 60.611,11.851l-9.223,-46.115l7.903,-1.969l17.13,-0.663c-7.248,-19.764 -15.151,-35.571 -22.399,-46.116c-5.269,-7.25 -17.129,-13.839 -36.233,-19.764l-27.671,-7.907l-19.764,10.537Z" style="fill:#858585;fill-rule:nonzero;"/><path d="M242.862,412.805l-1.976,0l-20.423,11.201c-13.176,9.882 -19.765,21.083 -19.765,34.259l0,5.27c0,28.983 2.635,50.072 8.563,63.248l1.319,1.969l3.294,0l16.47,-11.851c7.247,6.588 16.47,11.851 27.012,16.47c17.785,6.589 35.574,9.883 55.339,8.557l2.634,-1.312l0.66,-1.982l-9.223,-44.134l21.079,-1.319l2.638,-0.662l0.656,-3.294c-7.244,-21.077 -15.15,-36.234 -22.398,-48.085c-5.269,-7.251 -17.129,-13.839 -36.894,-20.427c-12.515,-3.958 -22.397,-6.589 -28.985,-7.908Zm-35.574,50.066l0,-4.606c0,-17.126 11.856,-30.303 34.915,-38.872l32.939,9.226c14.495,5.933 24.377,11.195 27.671,16.471c6.588,9.226 13.177,23.058 20.424,41.503l-13.836,0.663l-6.588,1.969c-1.975,0.662 -2.634,1.325 -2.634,3.294l0,0.662l8.563,42.159c-19.764,1.325 -38.868,-3.294 -55.998,-11.851l-20.423,-13.839c-1.316,-0.662 -1.976,-0.662 -2.635,-0.662c-0.66,0 -1.316,0 -2.635,1.325c-3.953,4.606 -7.907,8.557 -13.176,10.538c-3.953,-13.176 -6.587,-31.627 -6.587,-57.98Z" style="fill-rule:nonzero;"/><path d="M242.203,448.383c0,-0.656 -1.316,-1.319 -2.635,-0.656c-0.659,0 -1.315,1.313 -0.659,2.631l15.154,28.327c13.176,21.083 27.667,36.891 41.503,48.754l3.294,-0.656c0.659,0 0.659,-1.325 -0.659,-2.638c-14.492,-10.538 -27.668,-27.008 -40.844,-47.435l-15.154,-28.327Z" style="fill-rule:nonzero;"/><path d="M266.58,491.205c-0.66,0 -1.319,1.313 -1.319,1.975l0,7.251c0,6.588 1.319,12.513 3.294,19.764c0,0.656 1.319,1.313 1.979,0.656c1.976,0 1.976,-0.656 1.976,-1.981c-1.976,-6.588 -3.295,-12.514 -3.295,-18.438l-0.659,-6.588c0.658,-1.326 -0.001,-2.639 -1.976,-2.639Z" style="fill-rule:nonzero;"/><path d="M259.332,485.929c0,0.663 0.66,1.326 1.979,1.326l11.857,-0.663l16.47,-0.663l2.635,-1.968c0,-1.326 -0.659,-1.982 -1.976,-1.982l-17.129,0.656l-12.517,0.663c-1.319,0 -1.319,0.663 -1.319,2.631Z" style="fill-rule:nonzero;"/><path d="M265.92,456.945l-19.764,2.632c-1.315,0 -1.975,0.663 -1.975,1.325l2.634,2.632l19.104,-2.632c13.836,-0.662 24.377,-0.662 32.281,0.656l1.318,-1.318c0.66,-1.976 0,-2.632 -1.318,-2.632c-7.903,-0.663 -18.444,-1.325 -32.28,-0.663Z" style="fill-rule:nonzero;"/><path d="M235.615,441.139c-1.316,-0.663 -1.976,-0.663 -2.635,0.656l-6.588,18.445c-4.61,15.15 -6.588,28.983 -6.588,42.159c0,1.325 0.659,1.981 1.318,1.981l2.635,-1.981c0,-12.514 1.975,-26.353 6.588,-40.841l6.588,-17.789c0.001,-1.318 0.001,-2.63 -1.318,-2.63Z" style="fill-rule:nonzero;"/><path d="M252.744,469.459l-2.635,1.325l-3.294,13.833c-1.975,9.226 -3.294,15.813 -3.294,20.42c0,1.318 0.66,1.981 2.635,1.981l1.319,-1.981c0,-4.606 1.315,-11.194 3.294,-20.42l3.294,-13.177l-1.319,-1.981Z" style="fill-rule:nonzero;"/><path d="M177.642,456.945l-29.646,-9.219c-22.398,-5.275 -38.869,-7.251 -50.069,-4.619l-11.857,6.588c-7.907,4.619 -13.835,10.545 -17.789,15.157l-8.563,15.813l-6.588,10.539c11.857,0.656 19.764,-1.981 25.033,-7.907l-6.588,12.514c-3.954,9.226 -6.588,16.47 -7.248,21.745c-1.316,5.932 -4.61,13.832 -9.223,22.402c-3.954,8.557 -7.248,13.176 -9.882,15.807l32.28,-2.631c23.058,-3.294 38.212,-7.913 46.116,-14.502l21.083,-19.764l5.929,-8.557l1.319,9.882c1.975,7.9 4.609,13.176 7.903,16.47c5.272,-5.932 10.542,-13.176 14.495,-22.401c9.223,-18.45 9.882,-37.552 3.295,-57.317Z" style="fill:#858585;fill-rule:nonzero;"/><path d="M178.301,453.651l-30.306,-9.219c-22.398,-5.275 -38.869,-7.251 -50.729,-4.619l-1.315,0.662l-11.86,6.588c-7.904,5.926 -14.492,10.545 -17.786,16.471l-9.222,15.807l-5.932,9.883c-1.315,0.662 -1.315,1.981 -1.315,3.294c0.659,0.662 1.975,1.981 3.294,1.981l16.47,-2.638c-5.272,12.52 -7.907,21.082 -8.566,25.039c-1.316,5.926 -4.61,13.176 -8.563,21.732l-9.222,14.502l-1.319,2.631l0,0.663c1.319,1.969 1.979,2.631 3.294,2.631l34.259,-3.294c23.058,-3.294 38.209,-8.563 46.116,-14.494c9.222,-7.245 16.47,-14.489 23.058,-22.402c1.976,9.226 4.61,16.47 8.563,19.764c1.319,1.326 2.634,1.326 3.953,0c6.588,-5.263 11.857,-13.176 16.47,-23.058c9.223,-19.764 9.882,-39.528 3.294,-60.604l-2.636,-1.32Zm-3.294,5.27c2.635,8.569 3.954,16.47 3.954,23.714c0,17.796 -5.932,34.266 -19.108,48.098c-3.294,-5.275 -5.269,-12.52 -5.928,-20.42c0,-1.981 -0.66,-3.294 -2.635,-3.294c-1.319,0 -2.635,0 -3.294,1.969l-6.588,7.913l-19.764,19.102c-10.542,7.907 -33.6,13.839 -69.833,15.808c7.907,-11.851 13.176,-23.059 15.811,-33.597c0.659,-4.606 3.294,-11.857 7.248,-21.076l5.928,-11.864l0.66,-1.975l-1.316,-2.632l-4.613,0.656c-2.634,3.295 -7.907,5.27 -15.811,5.933l3.294,-5.276l8.563,-15.15c4.613,-5.926 13.176,-13.177 26.352,-20.427c15.81,-2.633 40.846,1.324 77.08,12.518Z" style="fill-rule:nonzero;"/><path d="M132.185,458.265c-1.319,0 -1.979,0 -1.979,1.976c-5.928,19.764 -17.786,39.527 -35.575,57.973c-9.222,9.226 -17.129,16.47 -25.033,21.746c-1.319,0.656 -1.979,1.968 -1.319,3.294l3.294,0c7.907,-5.933 16.47,-13.177 25.692,-22.402c18.448,-18.451 30.306,-38.872 36.894,-59.948c0.001,-0.664 0.001,-1.983 -1.974,-2.639Z" style="fill-rule:nonzero;"/><path d="M112.421,497.137c-0.659,0 -1.319,0 -1.978,1.969c-2.635,18.451 -5.27,30.309 -7.904,34.265c-1.319,1.313 -1.319,1.969 0,3.294l3.294,-0.662c3.294,-5.27 6.588,-17.133 8.563,-36.234c0,-1.976 -0.659,-2.632 -1.975,-2.632Z" style="fill-rule:nonzero;"/><path d="M88.704,503.725c-5.929,3.294 -10.542,6.588 -11.857,7.9c-0.659,0.656 -1.319,1.981 -0.659,2.638l3.294,0l11.198,-6.588c7.907,-3.95 15.154,-6.588 21.742,-6.588l1.975,-1.319l-1.975,-2.631c-6.589,0 -14.496,2.631 -23.718,6.588Z" style="fill-rule:nonzero;"/><path d="M130.207,470.122c0,-0.663 -0.656,-1.319 -2.634,-1.319c-13.176,1.319 -27.012,7.244 -41.503,15.814c-1.319,1.312 -1.319,1.975 0,2.638l1.975,0.656l13.176,-6.589c9.882,-4.612 19.104,-7.906 27.671,-8.569l1.315,-2.631Z" style="fill-rule:nonzero;"/><path d="M131.525,466.828c-0.659,-1.319 -1.319,-1.976 -2.634,-1.319c-1.319,0.656 -1.319,1.319 -1.319,1.981l2.634,15.145c0.66,11.864 -1.315,23.059 -5.269,34.922c-0.659,1.313 -0.659,1.976 0.66,2.638c1.975,0.656 2.634,0 3.294,-1.325c3.953,-11.851 5.928,-24.37 5.269,-36.234l-2.635,-15.808Z" style="fill-rule:nonzero;"/><path d="M164.466,466.165c0,-1.313 0,-1.969 -1.975,-1.313c-1.319,0 -1.319,0.656 -1.319,1.976l0.66,10.544l-0.66,25.027c0,1.981 0.66,2.638 1.975,2.638l1.979,-1.313l1.316,-26.353l-1.976,-11.206Z" style="fill-rule:nonzero;"/><path d="M203.994,360.757c-11.857,-5.925 -21.74,-8.557 -29.646,-7.9c-7.907,1.313 -15.811,3.95 -24.377,8.563c-11.198,5.925 -16.47,13.176 -17.126,20.427c-0.659,8.557 4.61,16.47 15.811,23.714c11.198,7.9 21.739,11.194 32.94,10.538c11.198,-0.656 19.764,-3.95 27.667,-11.194c5.932,-5.932 9.882,-13.839 11.201,-23.058c0.659,-7.251 -4.613,-14.502 -16.47,-21.09Z" style="fill:#d96038;fill-rule:nonzero;"/><path d="M223.099,382.503c0.659,-5.276 -1.976,-10.539 -6.589,-15.158c-5.928,-5.925 -12.516,-9.882 -21.738,-13.176c-7.907,-2.631 -15.155,-4.606 -21.083,-3.294c-8.563,0.663 -16.47,3.957 -25.692,7.913c-11.201,6.588 -17.129,13.832 -17.789,22.396l0,0.663c0,7.244 3.294,13.832 9.882,20.42c5.272,5.27 11.86,9.226 19.764,11.857c7.907,3.294 15.154,4.612 21.743,4.612c11.857,-0.656 21.739,-4.612 28.987,-11.863c7.245,-7.244 11.198,-15.144 12.515,-24.37Zm-5.929,-0.656c-0.66,8.557 -3.954,15.145 -9.882,21.076c-6.589,6.588 -15.151,10.538 -25.693,10.538c-6.588,0.663 -13.176,-1.313 -20.424,-3.95l-17.129,-11.194c-5.269,-5.275 -8.563,-10.545 -8.563,-16.47c0,-6.588 5.269,-12.521 15.811,-17.796c8.563,-5.263 16.47,-7.9 23.058,-8.557c5.269,-0.662 11.201,0.656 19.104,3.294c7.907,3.294 14.495,7.244 19.104,11.851c3.954,3.957 5.273,7.251 4.614,11.208Z" style="fill-rule:nonzero;"/><path d="M176.323,362.082c-1.975,0 -1.975,0.656 -1.975,2.632l-0.66,44.141c0,1.313 0.66,1.976 1.319,1.976l2.635,-1.976l0,-44.141l-1.319,-2.632Z" style="fill-rule:nonzero;"/><path d="M194.111,365.376c-1.318,0 -2.634,0.656 -2.634,1.969l-0.66,39.528c0,1.325 0.66,1.981 2.635,1.981l1.319,-1.981l1.315,-39.528l-1.975,-1.969Z" style="fill-rule:nonzero;"/><path d="M158.537,364.714c-1.319,0 -1.979,0.662 -1.979,1.975l-0.656,39.528c0,1.319 0.656,1.981 1.975,1.981l1.975,-1.981l0.66,-39.528l-1.975,-1.975Z" style="fill-rule:nonzero;"/><path d="M167.76,313.984l-14.495,-8.563c-8.563,-4.613 -14.492,-5.929 -18.445,-3.294c-3.953,1.318 -9.882,3.294 -19.104,4.612l-19.764,4.61c-5.272,1.318 -8.566,4.612 -11.201,9.222l-3.294,12.521l-6.588,6.588c-3.294,1.313 -5.269,4.606 -6.588,8.563c-1.315,5.926 0.66,13.177 6.588,23.059l7.907,12.514c39.527,1.325 67.854,-22.396 84.984,-69.832Z" style="fill:#d96038;fill-rule:nonzero;"/><path d="M133.5,299.493c-3.294,1.975 -10.538,3.294 -21.08,5.269l-17.789,3.954c-4.609,1.975 -8.563,4.612 -10.541,7.906l-3.95,11.198l-1.319,4.616l-3.953,3.95c-4.61,2.638 -7.248,5.932 -8.563,11.856c-2.634,9.22 1.975,21.083 14.492,36.897c0.66,0.656 0.66,0.656 1.979,0.656c23.717,1.313 44.797,-7.907 63.902,-28.334c14.495,-15.808 22.402,-28.983 24.377,-40.841c0,-3.294 -0.66,-4.612 -2.635,-5.271l-5.928,-3.295c-7.248,-4.609 -11.86,-7.247 -14.495,-8.563l-14.497,0l0,0.002Zm-36.89,14.491l17.126,-3.95l22.402,-5.932c3.95,-1.975 11.857,0.659 23.714,7.907l5.272,3.294l-5.272,14.495l-16.47,23.058c-17.786,19.107 -37.55,28.327 -59.292,28.327c-9.223,-12.514 -13.176,-21.739 -13.176,-28.983l0,-3.294c0.66,-3.957 3.294,-6.588 5.932,-7.251c3.95,-1.975 5.929,-3.956 7.245,-7.25l0.659,-5.263l3.294,-9.227c1.978,-3.293 4.613,-4.611 8.566,-5.931Z" style="fill-rule:nonzero;"/><path d="M112.421,387.109l-6.588,-15.808l-16.47,2.631c-11.201,1.981 -18.448,5.276 -23.058,9.227c-3.294,3.294 -5.272,8.569 -4.613,15.813c1.319,8.563 1.319,15.151 -0.659,18.445c-2.635,5.925 -3.294,9.882 -2.635,13.176l3.294,11.201c2.635,5.269 8.566,7.9 18.448,8.563c9.223,1.319 17.786,0 23.714,-3.294c7.248,-3.956 10.542,-7.25 11.86,-9.882c1.975,-2.631 3.294,-9.22 3.294,-19.102c0.001,-7.912 -1.977,-19.106 -6.587,-30.97Z" style="fill:#d96038;fill-rule:nonzero;"/><path d="M107.808,370.639c0,-1.313 -1.316,-1.969 -1.975,-1.969l-17.129,2.632c-11.201,2.631 -19.764,5.925 -23.718,9.882c-3.294,3.294 -5.269,6.588 -5.928,9.882l0.659,9.882c0.66,7.251 0,12.514 -1.319,15.808c-1.975,5.275 -3.294,9.882 -3.294,13.176c0,1.982 1.319,6.589 3.294,11.208l1.319,1.969c1.975,3.956 5.269,6.588 11.857,7.913l16.47,2.631c6.588,-0.662 13.176,-1.975 17.129,-4.612l1.975,-1.313c5.932,-3.294 9.882,-6.588 11.201,-9.882c1.975,-3.294 2.634,-9.883 3.294,-19.765c0.66,-7.913 -1.975,-19.107 -6.588,-30.971l-7.247,-16.471Zm-43.481,23.72c0,-3.956 1.319,-6.588 3.953,-9.219c5.929,-5.275 17.789,-9.227 36.234,-10.545c7.907,17.133 11.86,31.621 11.86,42.822l0,0.662l-1.979,17.127l-9.882,8.563l-1.975,0.663c-3.294,2.631 -7.907,3.294 -13.835,3.294l-15.811,-1.325c-4.613,-1.313 -7.907,-3.294 -8.566,-5.926l-1.316,-1.975l-2.634,-9.227c0,-2.638 1.315,-5.932 3.294,-11.194l1.315,-9.882l-0.658,-13.838Z" style="fill-rule:nonzero;"/><path d="M189.499,452.333c-10.539,-5.27 -21.08,-9.226 -32.281,-14.488c-21.739,-9.227 -35.575,-13.177 -40.188,-11.208c-5.929,1.325 -11.198,6.588 -17.786,14.502c-6.588,7.9 -9.223,13.176 -7.907,16.47l8.566,15.808c4.61,6.588 10.539,10.545 15.811,9.882l32.281,-0.663l26.352,-2.631c3.954,-2.633 9.223,-11.859 15.152,-27.672Z" style="fill:#d96038;fill-rule:nonzero;"/><path d="M191.478,453.651c0.659,-1.975 0,-2.631 -0.66,-3.294c-42.822,-19.764 -67.199,-28.983 -74.443,-26.352c-4.613,1.318 -9.882,5.269 -15.814,11.201c-5.929,5.269 -9.223,11.194 -11.198,15.813c-1.319,3.294 -1.319,5.925 0,8.557l1.975,3.294c7.248,15.813 15.811,23.721 25.037,23.721l15.811,-0.663l43.481,-3.95c4.609,-1.974 9.222,-11.856 15.811,-28.327Zm-46.117,-17.131c12.517,4.619 25.693,10.544 40.844,17.132c-5.929,13.839 -9.882,22.396 -13.176,23.721l-40.844,2.632l-16.47,0.662c-3.953,0.656 -7.907,-1.981 -11.86,-7.25l-7.903,-13.176l-1.979,-3.295l0.659,-3.956c1.319,-4.606 4.613,-9.22 9.882,-14.488c5.272,-4.613 9.882,-7.907 13.176,-9.883c3.294,-0.657 12.517,1.975 27.671,7.901Z" style="fill-rule:nonzero;"/><path d="M259.332,414.124c-12.517,-1.976 -27.011,2.631 -42.162,13.176c-13.836,9.882 -20.424,17.789 -20.424,23.721l-0.659,18.438c0,7.251 3.294,10.545 7.907,10.545l32.939,0l26.353,-3.294c11.2,-7.251 17.129,-16.47 19.104,-27.015c0.659,-5.926 -2.635,-13.176 -10.542,-22.396l-12.516,-13.175Z" style="fill:#d96038;fill-rule:nonzero;"/><path d="M196.746,480.004l7.248,3.294l61.267,-4.613c11.201,-7.9 17.789,-17.126 19.765,-28.327c1.318,-6.588 -1.976,-14.494 -9.883,-23.721l-14.491,-14.488l-0.659,-0.656c-14.495,-2.638 -31.622,3.294 -50.07,17.782c-10.541,8.57 -15.811,16.471 -15.811,21.746l-0.659,6.588l0,12.514c-0.001,3.955 1.318,7.249 3.293,9.881Zm1.979,-21.739l0.656,-7.244c0,-1.325 1.318,-3.957 3.294,-6.588l10.541,-10.545c16.471,-13.839 30.966,-19.764 45.457,-17.133c14.495,13.176 21.083,23.721 21.083,30.972l0,1.969c-1.319,9.882 -7.247,17.795 -17.789,24.383l-57.973,3.294c-1.319,0 -3.295,0 -3.295,-0.662c-1.318,-2.633 -2.634,-8.565 -1.974,-18.446Z" style="fill-rule:nonzero;"/><path d="M247.476,337.043l-13.836,4.612l-4.613,27.671c0,21.077 8.566,38.21 26.353,51.386c1.979,1.318 5.272,3.294 8.566,3.956l9.223,1.969c5.269,0.663 9.882,-0.656 13.835,-5.263c1.976,-1.325 2.635,-5.275 2.635,-11.207c-0.659,-7.9 0,-12.514 0,-15.145l3.953,-32.94c0,-4.619 -3.294,-11.207 -10.541,-18.451c-7.247,-6.588 -13.176,-10.538 -16.47,-10.538l-19.105,3.95Z" style="fill:#d96038;fill-rule:nonzero;"/><path d="M248.135,334.405l-15.154,3.956l-1.976,1.976l-1.979,7.906c-1.975,6.589 -2.634,13.177 -2.634,19.765c0,22.396 9.223,40.19 27.011,54.022c3.294,2.638 8.563,5.27 15.151,5.932l3.954,0.656c3.953,1.313 6.588,1.313 9.222,0l7.248,-4.612c2.635,-2.632 3.294,-8.563 3.294,-16.47c-0.659,-5.926 -0.659,-9.22 0,-11.857l3.953,-33.597c0.659,-5.932 -3.294,-12.52 -11.2,-20.427c-7.904,-6.588 -13.833,-10.544 -18.445,-11.2l-18.445,3.95Zm-12.52,8.57c17.129,-4.613 27.011,-7.907 30.305,-7.244c3.294,0 7.907,3.294 14.495,9.219c7.904,7.251 11.198,12.514 10.542,16.471l-3.954,33.603c-0.659,2.631 -0.659,6.588 -0.659,12.514c0.659,6.588 0,10.544 -0.659,12.513l-5.929,3.957l-5.929,0l-3.953,-0.663c-6.588,-1.969 -10.542,-3.294 -13.177,-5.263c-16.47,-12.52 -25.692,-28.989 -25.692,-50.072c0,-7.909 1.975,-16.472 4.61,-25.035Z" style="fill-rule:nonzero;"/><path d="M252.744,310.034c-1.975,-4.612 -5.929,-8.566 -12.517,-13.835c-6.588,-3.953 -11.201,-5.929 -14.495,-5.272l-22.398,1.978c-12.517,0.66 -20.423,2.635 -25.033,4.61c-3.954,1.979 -6.588,7.247 -7.907,13.836c-0.659,3.953 -1.315,7.247 -1.315,9.882c8.563,16.467 21.739,24.38 41.503,26.349l27.671,-2.632c5.269,-4.612 10.538,-9.882 13.176,-17.129c2.634,-6.589 3.95,-12.517 1.315,-17.787Z" style="fill:#d96038;fill-rule:nonzero;"/><path d="M166.441,321.232l0.659,0.659c7.907,17.133 22.399,26.352 43.482,27.671l28.986,-1.981l0.659,-0.656c5.929,-5.27 10.542,-11.194 13.176,-18.445c3.954,-7.247 3.954,-13.835 1.976,-19.104c-1.976,-4.613 -6.588,-9.882 -14.492,-14.495c-6.588,-5.269 -11.86,-7.903 -15.811,-6.588l-11.2,0.66c-19.765,1.975 -32.281,3.953 -36.234,6.587c-4.613,1.976 -7.907,6.589 -9.882,14.495l-1.319,11.197Zm7.247,-11.857c1.319,-4.613 3.294,-7.907 6.588,-9.882c3.953,-1.979 15.811,-3.954 33.6,-4.613l12.517,-1.976c1.978,0 6.588,1.976 12.517,5.93c5.932,3.953 9.882,8.563 11.2,13.176l1.319,4.612c0,3.95 -1.319,8.563 -3.953,13.177l-10.542,12.52l-27.671,2.631c-17.785,-1.975 -29.646,-9.882 -37.55,-24.377c0,-3.951 0.66,-7.245 1.975,-11.198Z" style="fill-rule:nonzero;"/><path d="M140.089,452.333c6.588,-1.976 11.201,-5.27 14.495,-9.226c1.975,-2.632 0,-10.539 -6.588,-24.371l-13.835,-27.008c-2.635,-4.619 -1.975,-13.176 2.635,-26.353l7.247,-17.133l-19.764,3.957c-13.176,3.294 -20.424,5.926 -22.399,7.244c-1.975,1.976 -4.613,9.882 -8.563,25.033c-3.294,13.839 -5.272,23.059 -5.272,26.353c0,2.631 6.588,9.219 17.789,19.764l21.08,20.427c1.977,3.294 6.586,3.951 13.175,1.313Z" style="fill:#d96038;fill-rule:nonzero;"/><path d="M145.361,346.269c-0.659,-0.656 -1.319,-0.656 -1.978,-0.656c-26.352,5.926 -40.844,9.882 -43.479,11.851c-1.978,1.981 -5.272,11.207 -9.226,27.015c-3.294,13.839 -4.61,23.059 -4.61,26.353c0,3.294 6.588,11.2 21.739,24.377l16.47,17.126c1.978,2.638 4.613,3.95 7.247,4.612c3.954,0 8.563,-1.318 13.835,-3.956l11.198,-8.557c1.979,-2.638 1.319,-7.251 -1.975,-15.158l-13.176,-27.664l-5.269,-11.207c-1.979,-3.294 -0.66,-9.882 1.975,-19.765c2.634,-7.9 5.269,-14.488 7.907,-21.076l-0.658,-3.295Zm7.247,93.544l-0.659,1.325c-1.319,2.631 -4.613,5.263 -9.223,7.244l-10.542,2.638l-3.294,-0.663c-1.319,-3.294 -6.588,-9.219 -17.789,-19.101l-19.763,-20.426c0,-3.957 1.319,-12.514 4.613,-25.689c3.294,-13.839 5.928,-22.402 7.903,-23.721c1.979,-1.976 13.835,-5.27 34.918,-9.882c-5.272,14.494 -8.566,26.352 -8.566,34.259c0,2.638 0.66,5.269 0.66,6.588l6.588,11.856c9.882,18.446 15.154,30.31 15.154,35.572Z" style="fill-rule:nonzero;"/><path d="M227.052,421.374c-15.151,-7.25 -33.6,-10.544 -54.679,-9.226c-17.789,1.313 -27.671,3.95 -28.99,7.9c-1.975,3.294 -2.635,7.913 -2.635,14.502c0,8.557 1.319,13.176 3.954,15.807c3.953,3.294 9.882,6.588 19.104,9.883c9.223,3.294 15.154,5.269 17.789,3.956c21.739,-3.294 34.255,-6.588 38.869,-9.226c3.953,-3.293 6.588,-13.831 6.588,-33.596Z" style="fill:#d96038;fill-rule:nonzero;"/><path d="M146.677,414.124l-5.929,4.612c-1.315,3.294 -1.975,9.226 -1.975,15.814c-0.659,9.219 1.316,15.145 4.61,18.438l19.108,9.882c10.538,3.957 17.126,5.275 20.42,3.957l9.882,-1.976l28.33,-7.907c5.27,-2.631 7.903,-14.494 9.223,-35.571l-1.319,-1.981c-13.832,-7.244 -29.646,-10.538 -48.091,-10.538c-13.836,0 -25.693,1.976 -34.259,5.27Zm-2.635,20.427c0,-5.933 0.66,-10.545 1.319,-13.839c3.294,-3.294 12.517,-5.27 28.327,-5.926c19.105,-1.325 36.234,1.969 50.729,8.557c-0.659,17.133 -2.635,27.015 -5.929,29.646c-2.638,1.325 -11.86,3.956 -27.011,6.588l-10.542,1.981c-1.975,1.313 -7.248,-0.656 -16.47,-3.95c-7.907,-3.957 -13.835,-6.588 -17.789,-9.226c-1.974,-1.319 -3.293,-6.587 -2.634,-13.831Z" style="fill-rule:nonzero;"/><path d="M236.934,359.444l-14.495,1.313c-9.882,1.325 -13.176,5.275 -11.856,10.545c1.975,3.957 0.659,13.839 -1.319,28.983c-2.635,13.839 -2.635,22.401 0,26.352c5.272,8.57 15.154,11.864 27.671,9.883c3.953,-0.656 9.223,-4.606 15.151,-12.514l10.541,-15.151c0.66,-1.981 0.66,-7.907 -2.634,-17.126l-4.613,-18.452c-1.315,-2.638 -4.609,-5.932 -9.882,-9.226l-8.564,-4.607Z" style="fill:#d96038;fill-rule:nonzero;"/><path d="M236.934,357.463c-14.495,0 -23.718,1.981 -27.671,6.588c-1.975,2.638 -1.975,5.275 -1.315,7.913c1.975,3.95 1.315,12.514 -0.659,25.689c-3.294,15.808 -3.294,25.689 0,30.309c5.928,9.22 16.47,13.177 30.305,11.195c4.61,-1.313 9.883,-5.27 16.471,-13.177l11.197,-15.15c1.319,-3.957 0,-14.495 -5.269,-30.309l-2.635,-7.901c-0.66,-3.95 -3.954,-7.244 -9.882,-10.538l-9.883,-4.619l-0.659,0Zm-23.718,13.176c0,-1.313 0,-2.631 0.66,-3.294c2.634,-3.95 9.882,-5.263 23.058,-5.263c3.294,1.969 6.588,3.294 9.882,5.926l5.929,5.925l1.979,7.914l5.27,23.714l0,2.638l-9.883,15.145c-5.928,6.588 -10.541,9.882 -13.176,10.545c-11.857,2.632 -19.764,-0.663 -25.692,-9.22c-1.979,-3.294 -1.319,-11.863 1.315,-26.352l1.319,-15.157c0.658,-5.27 -0.001,-9.227 -0.661,-12.521Z" style="fill-rule:nonzero;"/><path d="M237.593,329.143c-2.634,-2.638 -7.247,-3.957 -13.176,-3.957c-5.272,0 -10.541,1.319 -15.154,3.294c-3.95,1.976 -7.903,6.588 -11.197,14.495l-3.954,11.857c11.857,12.513 19.765,17.132 25.033,16.47l27.671,-8.563c1.976,-1.318 1.976,-6.588 -0.659,-15.813c-2.636,-8.565 -5.929,-15.153 -8.564,-17.783Z" style="fill:#d96038;fill-rule:nonzero;"/><path d="M250.109,360.101c0.66,-4.606 0,-10.538 -3.294,-17.782c-2.634,-7.251 -4.612,-12.52 -7.247,-15.157c-3.294,-2.635 -8.563,-4.61 -15.811,-4.61c-5.929,0.66 -11.201,1.976 -16.47,3.954c-6.589,2.638 -11.201,11.856 -15.811,27.664l1.315,1.981c12.52,13.176 21.083,18.445 27.012,17.782c14.494,-3.294 23.717,-5.925 27.671,-8.557l2.635,-5.275Zm-6.588,-13.176c1.976,7.907 2.635,12.52 1.319,13.832c-2.638,1.325 -11.201,3.957 -25.696,7.913c-3.95,0.656 -11.197,-3.956 -21.739,-14.501c3.294,-13.176 7.907,-21.076 12.517,-22.396c3.954,-2.631 9.223,-3.294 13.836,-3.294c5.929,0 9.882,0.663 11.857,2.632c2.638,1.982 5.272,7.25 7.906,15.814Z" style="fill-rule:nonzero;"/><path d="M182.254,315.304c-11.201,-7.248 -18.448,-9.223 -23.058,-5.27l-19.764,15.151c-8.566,6.588 -11.86,11.201 -11.86,15.151c0,5.932 3.294,11.863 10.542,17.789l62.585,-3.294c0.66,-2.632 1.319,-6.589 1.976,-13.177c0,-6.588 -0.656,-11.2 -1.976,-12.513l-18.445,-13.837Z" style="fill:#d96038;fill-rule:nonzero;"/><path d="M157.218,308.716l-11.857,9.223l-14.495,10.541c-3.954,4.613 -6.588,7.907 -5.929,11.857c0.66,7.244 3.954,13.832 11.857,19.107l0.659,1.313l63.245,-2.631l2.635,-1.976l1.319,-14.495c0.659,-7.25 -0.659,-12.513 -2.635,-14.494l-1.319,-1.316c-21.738,-18.449 -36.232,-24.377 -43.48,-17.129Zm-9.222,13.176l13.176,-9.882c4.613,-3.954 16.47,1.318 36.234,17.789l1.319,1.975l1.315,6.588l-1.975,14.495l-59.292,1.976c-5.272,-3.957 -7.907,-9.22 -8.566,-14.495l0,-0.656c0,-2.639 5.932,-8.571 17.789,-17.79Z" style="fill-rule:nonzero;"/><path d="M215.851,385.141c7.907,-3.294 11.86,-10.545 11.86,-21.09c1.315,-10.538 -0.659,-15.808 -3.953,-17.782l-26.353,-1.319l-11.2,0l-6.588,0.663c-2.634,1.969 -4.61,3.95 -5.929,7.244c-1.975,4.606 -1.975,7.244 -0.659,9.226c1.319,2.632 3.294,3.294 7.907,4.606l10.542,1.981c2.634,0 6.588,3.294 12.517,9.883c5.927,5.262 9.881,7.244 11.856,6.588Z" style="fill:#d96038;fill-rule:nonzero;"/><path d="M231.005,360.757c-0.659,-9.882 -2.635,-15.145 -6.588,-16.47l-27.012,-1.969l-10.541,0l-9.223,1.313c-2.635,1.318 -4.613,4.612 -6.588,8.569c-1.319,4.606 -1.319,8.557 0,11.194c1.319,3.294 6.588,5.275 15.151,7.244l4.612,0.663c1.319,0 4.613,2.631 9.882,7.251l8.563,7.244c3.294,1.975 5.272,2.638 7.907,1.975c9.223,-3.956 13.835,-13.176 13.835,-26.352l0,-0.662l0.002,0Zm-5.273,2.638c0,9.882 -3.95,16.471 -11.197,19.108c-0.659,0.656 -3.953,-1.319 -9.882,-7.244c-5.272,-5.933 -9.882,-8.57 -12.517,-9.227l-5.272,-1.318c-6.588,-0.663 -10.542,-1.976 -11.857,-3.294c-0.659,-1.976 0,-3.957 1.316,-7.251c1.319,-2.631 2.638,-5.263 4.613,-5.926l17.13,0l24.373,0.663l1.979,3.95l1.314,10.539Z" style="fill-rule:nonzero;"/><path d="M221.123,385.797l-9.223,-1.319c-0.659,0 -3.953,3.294 -9.882,9.22c-7.247,7.25 -13.176,11.863 -19.108,13.839l1.319,5.269l6.588,7.907c3.954,3.294 13.177,5.925 27.012,6.588c4.609,0.662 7.903,-2.632 11.197,-8.563c3.954,-6.588 4.613,-13.832 3.954,-20.42c-1.315,-5.933 -5.269,-9.883 -11.857,-12.521Z" style="fill:#d96038;fill-rule:nonzero;"/><path d="M225.732,385.141c-4.609,-2.638 -8.563,-3.294 -13.832,-3.294c-1.979,0 -4.612,1.969 -8.566,6.588c-7.903,9.219 -15.151,15.145 -21.739,16.47l-1.319,1.313l0,1.981l2.634,5.926c1.319,3.956 3.954,6.588 5.932,8.563c2.635,1.981 8.563,4.613 16.47,5.932l12.517,1.976c3.294,0 6.588,-1.319 9.223,-4.613l6.588,-11.856c1.976,-5.926 2.635,-10.545 1.976,-16.471c-1.317,-5.927 -4.611,-9.885 -9.884,-12.515Zm-5.268,3.294c5.929,1.969 9.223,5.925 9.882,10.538c0.659,4.606 0,8.563 -1.319,13.176l-5.269,9.882c-1.976,2.638 -3.294,3.294 -5.27,2.638c-13.835,-0.662 -22.401,-3.294 -26.352,-5.932c-1.979,-1.318 -3.954,-4.612 -5.932,-9.882c6.588,-1.981 13.835,-7.907 21.083,-17.126l3.953,-4.619l0.659,0.662l8.565,0.663Z" style="fill-rule:nonzero;"/><path d="M182.911,407.536c-11.857,-2.632 -21.739,-6.589 -31.621,-12.514l-10.542,-7.251c-6.588,-5.269 -11.857,-3.956 -17.786,2.632c-2.638,3.294 -3.954,6.588 -3.954,9.882l5.27,11.207l4.613,13.832c1.315,3.294 3.294,5.27 6.588,4.606l17.786,-1.313l16.47,-0.656c3.294,-0.662 7.248,-3.956 11.201,-10.544c3.953,-5.925 4.613,-9.881 1.975,-9.881Z" style="fill:#d96038;fill-rule:nonzero;"/><path d="M153.265,393.041l-10.538,-7.9c-7.248,-5.932 -15.154,-4.619 -21.743,3.294c-3.294,3.95 -5.269,8.557 -4.609,11.851l5.269,13.176l3.954,9.226l2.634,7.907c1.975,1.319 3.954,2.631 7.248,1.975l34.915,-1.975l10.542,-8.563c3.954,-4.612 5.929,-8.569 5.929,-11.863c0,-3.294 -1.315,-5.263 -3.294,-5.263c-11.859,-2.639 -21.741,-6.59 -30.307,-11.865Zm-14.492,-3.95l11.198,8.563c9.882,5.27 20.423,9.883 31.625,12.514l-3.294,6.588c-3.294,5.275 -6.588,7.913 -8.566,8.569l-35.576,1.975c-0.66,0 -1.975,0 -1.975,-0.663l-1.979,-5.263l-3.95,-10.544c-2.638,-5.926 -3.953,-9.22 -3.953,-11.201c-0.66,-1.976 0.659,-4.606 3.294,-7.9c3.953,-5.276 8.563,-6.588 13.176,-2.638Z" style="fill-rule:nonzero;"/><path d="M126.256,374.596l14.492,13.176c1.319,-3.956 3.954,-7.906 7.248,-11.857c7.248,-7.906 15.811,-12.52 25.033,-13.832l-5.269,-9.882c-3.954,-6.588 -7.907,-10.545 -13.176,-10.545c-5.929,-0.662 -12.517,1.319 -19.764,6.588c-7.247,5.27 -11.201,9.883 -11.201,14.495c-0.657,5.269 0.659,8.563 2.637,11.857Z" style="fill:#d96038;fill-rule:nonzero;"/><path d="M175.007,364.051l0.66,-2.631l-5.272,-11.201c-5.269,-7.244 -9.882,-11.194 -15.811,-11.194c-7.248,-0.663 -15.811,2.631 -24.377,9.882c-5.928,4.606 -9.223,9.22 -9.223,13.832c-0.659,5.27 0,9.882 2.635,13.176c2.638,3.951 7.907,8.563 15.154,13.177l2.635,0.656l1.975,-1.313c1.319,-3.957 3.953,-7.251 7.248,-10.545c6.588,-7.907 13.835,-11.857 23.058,-13.176l1.318,-0.663Zm-20.424,-19.764c5.269,0.662 9.882,5.932 15.151,16.47c-13.176,1.981 -23.058,9.882 -29.646,23.059c-9.223,-7.245 -14.492,-13.177 -14.492,-18.439l0,-1.981c0.659,-2.638 3.294,-6.588 7.903,-10.538c7.909,-6.589 14.497,-9.227 21.084,-8.571Z" style="fill-rule:nonzero;"/></g><rect id="PATH77" x="2.92" y="2.74" width="366.67" height="582.52" style="fill:none;stroke:#000;stroke-width:3px;"/></svg>