<?xml version="1.0" encoding="UTF-8" standalone="no"?><!DOCTYPE svg PUBLIC "-//W3C//DTD SVG 1.1//EN" "http://www.w3.org/Graphics/SVG/1.1/DTD/svg11.dtd"><svg width="100%" height="100%" viewBox="0 0 372 587" version="1.1" xmlns="http://www.w3.org/2000/svg" xmlns:xlink="http://www.w3.org/1999/xlink" xml:space="preserve" xmlns:serif="http://www.serif.com/" style="fill-rule:evenodd;clip-rule:evenodd;stroke-miterlimit:100;"><g><clipPath id="_clip1"><rect x="3.5" y="3.27" width="366.155" height="582.309"/></clipPath><g clip-path="url(#_clip1)"><path d="M372.361,231.826l0,-229.262l-305.687,0c12.516,63.241 46.776,116.605 104.089,160.087c57.318,42.823 124.516,65.882 201.598,69.175Z" style="fill:#e61f19;fill-rule:nonzero;"/><path d="M66.674,-0.73l-2.635,0.656l-0.658,2.638c12.517,64.561 48.091,118.585 106.067,162.063c57.977,44.141 125.168,67.199 202.249,70.492l2.639,-0.658l1.319,-2.635l0,-229.262c0,-2.638 -1.319,-3.294 -3.294,-3.294l-305.687,0Zm302.392,6.588l0,222.675c-74.45,-3.955 -139.012,-26.354 -195.009,-67.855c-55.338,-42.167 -90.254,-93.553 -102.771,-154.82l297.78,0Z" style="fill-rule:nonzero;"/><path d="M353.254,238.416c-13.832,13.834 -26.353,31.619 -36.892,52.704c-12.521,23.721 -22.4,54.678 -28.335,92.231c-3.293,19.102 -4.604,34.914 -5.924,48.748c-25.033,-10.539 -44.797,-15.146 -57.974,-15.146l-1.319,17.125c-0.662,14.487 0.656,28.326 1.977,42.167c5.27,44.791 19.766,81.023 43.479,108.038l102.113,0l1.318,-361.68c-5.266,3.293 -11.856,8.563 -18.443,15.813Z" style="fill:#858585;fill-rule:nonzero;"/><path d="M373.018,219.969c-0.655,-0.66 -2.639,-0.66 -3.295,0c-5.931,3.294 -11.856,8.564 -19.106,15.81c-13.832,14.491 -27.009,32.281 -37.548,53.364c-17.131,34.916 -28.987,80.371 -33.602,137.692c-24.378,-9.228 -42.822,-13.177 -55.336,-13.177c-2.639,0 -3.294,1.313 -3.294,3.296l-1.319,17.781c-0.662,13.831 0.656,28.334 1.976,42.82c5.933,45.462 20.42,81.696 44.798,109.36l1.975,0.662l102.113,0l3.295,-3.295l1.318,-361.68l-1.975,-2.633Zm-54.025,72.469c14.496,-27.672 30.309,-49.41 49.411,-63.246l-1.319,351.8l-96.838,0c-17.134,-19.765 -28.991,-44.143 -36.233,-73.132c-5.275,-20.422 -7.908,-42.157 -7.908,-65.218c0,-10.543 0.656,-18.445 1.319,-22.396c12.515,0.657 30.302,5.263 53.36,15.145l3.295,-0.655l1.316,-2.637c1.318,-14.49 2.631,-30.304 5.928,-49.41c6.587,-36.235 15.813,-67.193 27.669,-90.251Z" style="fill-rule:nonzero;"/><path d="M356.548,252.908c1.976,-7.907 3.293,-15.153 3.293,-23.059c0,-14.493 -4.613,-21.081 -13.831,-18.448c-9.227,1.98 -10.546,9.882 -2.639,23.06c3.295,6.587 7.907,13.177 13.177,18.447Z" style="fill:#ffe700;fill-rule:nonzero;"/><path d="M356.548,210.743c-2.638,-2.635 -6.59,-3.951 -11.202,-1.975c-5.269,0.659 -8.563,3.293 -9.219,7.246c-2.638,9.222 3.95,21.741 19.102,38.869l1.977,0.66l2.637,-1.978c4.61,-21.739 3.292,-36.891 -3.295,-42.822Zm-3.294,3.953c2.638,1.978 3.294,7.248 3.294,15.153l-1.32,17.788c-9.218,-12.519 -14.493,-21.741 -14.493,-27.668l0,-1.979c1.318,-2.634 2.638,-3.294 5.933,-4.609c2.634,-0.659 5.267,-0.659 6.586,1.315Z" style="fill-rule:nonzero;"/><path d="M240.6,443.304c-1.316,-8.567 -2.636,-16.469 -5.273,-23.057c-4.605,-14.502 -11.194,-19.106 -19.766,-13.175c-7.899,5.263 -5.926,12.512 5.933,23.057c5.268,4.606 11.858,8.558 19.106,13.175Z" style="fill:#ffe700;fill-rule:nonzero;"/><path d="M226.762,403.114c-3.949,-1.976 -7.906,-1.318 -11.857,1.317c-3.948,2.641 -6.586,5.934 -6.586,10.539c0.656,9.226 10.537,19.107 30.303,30.304l3.292,0l1.319,-2.633c-2.633,-22.394 -8.564,-35.569 -16.471,-39.527Zm10.547,34.916c-15.815,-9.228 -23.061,-17.126 -23.061,-23.06l0,-0.656c0,-1.979 0.656,-3.949 3.294,-5.274l6.589,-1.313c5.926,2.638 10.538,12.52 13.178,30.303Z" style="fill-rule:nonzero;"/><path d="M352.597,248.956c-1.98,0 -2.639,0.658 -2.639,2.635l-3.948,125.171l-5.275,172.608c-41.504,-35.578 -74.443,-71.813 -99.479,-109.358c-0.656,-1.325 -1.974,-1.98 -3.292,-1.325c-1.319,1.325 -1.978,1.981 -1.319,3.295l23.721,42.821c20.421,34.266 46.115,65.879 75.1,95.525c1.319,1.98 2.638,1.98 3.958,0l0.655,-1.968l-0.655,-1.325c-31.629,-32.278 -58.637,-67.193 -81.039,-104.747c15.813,20.427 34.923,40.19 55.999,60.612l27.671,23.714l2.636,0.655l1.321,-2.631c0,-23.721 1.313,-81.688 4.605,-171.951l4.611,-131.098c0,-1.319 -1.318,-2.633 -2.631,-2.633Z" style="fill-rule:nonzero;"/><path d="M284.734,430.785c-0.654,-1.319 -1.976,-1.981 -3.949,-1.319c-1.318,0.663 -1.975,1.978 -0.657,3.957l14.488,25.026c12.521,19.765 28.99,36.896 48.099,51.393c0.656,1.313 2.631,1.313 3.951,-0.656c0.656,-0.661 0.656,-1.981 -0.656,-3.295c-19.107,-14.5 -34.922,-30.971 -47.436,-50.733l-13.84,-24.373Z" style="fill-rule:nonzero;"/><path d="M287.372,400.482c-0.656,-1.325 -1.317,-2.637 -3.292,-1.325c-1.32,0.661 -1.977,1.981 -0.656,3.295l19.102,32.283c14.494,21.746 28.325,36.891 40.847,45.461c1.975,1.312 3.295,1.312 3.951,-0.656c1.317,-0.663 0.662,-1.983 -0.656,-3.294c-12.521,-8.571 -25.695,-23.721 -40.186,-45.461l-19.11,-30.303Z" style="fill-rule:nonzero;"/><path d="M293.305,367.544c-0.662,-1.328 -1.979,-1.981 -3.294,-0.664c-1.981,0.664 -2.639,1.32 -1.981,3.295l17.134,30.966c13.175,22.399 25.688,39.527 38.865,50.724c1.317,1.322 2.639,1.322 3.295,0c1.979,-1.313 1.979,-1.969 0,-3.297c-11.858,-11.851 -25.033,-28.319 -37.547,-50.72c-11.203,-17.789 -16.472,-27.673 -16.472,-30.304Z" style="fill-rule:nonzero;"/><path d="M299.229,341.189c0,-1.323 -1.975,-2.637 -3.293,-1.323c-1.975,0.661 -1.975,1.979 -1.319,3.957l15.159,27.013c12.514,19.766 23.714,33.596 35.569,44.135l3.956,-0.656c0.656,-0.655 0.656,-1.979 -0.661,-3.293c-11.2,-9.881 -22.396,-23.713 -34.917,-43.478l-14.494,-26.355Z" style="fill-rule:nonzero;"/><path d="M305.818,319.445c-0.656,-1.977 -1.977,-1.977 -3.294,-1.313c-1.977,1.313 -1.977,2.632 -1.319,3.948l14.496,24.373c10.543,17.133 21.082,30.972 30.309,40.854l3.948,0c1.32,-1.328 1.32,-2.639 0,-3.295c-9.881,-9.882 -19.762,-23.722 -30.301,-40.854l-13.839,-23.713Z" style="fill-rule:nonzero;"/><path d="M313.724,299.682c-0.655,-1.975 -1.974,-1.975 -3.292,-1.313c-1.977,0.656 -2.639,1.97 -1.318,3.295l10.545,19.762c9.219,15.147 17.782,27.668 27.009,38.206c1.975,0.661 3.292,0.661 3.949,0c1.318,-1.97 1.318,-2.633 0,-3.95c-8.563,-10.539 -17.126,-22.402 -26.354,-36.892l-10.539,-19.108Z" style="fill-rule:nonzero;"/><path d="M322.95,281.896c-0.661,-1.319 -1.979,-2.636 -3.293,-1.319c-1.981,0.659 -2.639,1.319 -1.981,3.292l7.251,15.154c5.924,11.859 13.831,22.4 22.396,32.939l4.611,0.656c1.319,-1.313 1.319,-1.975 0,-3.948c-8.563,-9.883 -15.808,-21.085 -22.396,-32.284l-6.588,-14.49Z" style="fill-rule:nonzero;"/><path d="M332.833,266.085c0.656,1.317 0,1.975 -1.982,2.633c-0.653,1.316 -1.975,0.66 -3.292,-0.658l21.082,35.57c0.661,1.328 1.976,1.328 3.956,0.664c0.657,-0.664 0.657,-2.631 0.657,-3.956l-20.421,-34.253Z" style="fill-rule:nonzero;"/><path d="M342.053,252.908c-0.655,-1.318 -1.976,-1.978 -3.295,-1.318c-1.975,0 -1.975,1.318 -1.975,3.293l3.294,7.907l9.225,16.47l3.952,1.316c0.656,-1.316 1.317,-2.635 0.656,-4.61c-3.295,-4.613 -6.588,-9.882 -8.564,-15.155l-3.293,-7.903Z" style="fill-rule:nonzero;"/><path d="M248.5,552.664c-1.311,0 -2.631,0.656 -3.292,1.976c0,1.976 1.317,3.293 2.638,3.293l69.83,3.295c1.981,0 2.64,-1.317 2.64,-3.295c0,-1.317 -0.657,-1.975 -2.64,-1.975l-69.176,-3.294Z" style="fill-rule:nonzero;"/><path d="M238.62,530.919c-1.978,-0.656 -3.295,0 -3.295,1.981c0,1.976 0.661,3.293 2.639,3.293l62.585,3.952l2.639,-0.657l0.655,-1.32c0,-1.975 -1.317,-2.631 -3.294,-3.292l-61.929,-3.957Z" style="fill-rule:nonzero;"/><path d="M232.031,511.154c-1.313,0 -2.633,1.325 -2.633,2.638c-0.662,1.98 0.656,2.638 1.977,2.638l54.68,4.607l2.639,-1.97c0,-2.639 -1.32,-3.295 -2.639,-3.295l-54.024,-4.618Z" style="fill-rule:nonzero;"/><path d="M228.081,491.391c-1.319,-0.655 -3.294,0 -3.294,1.324c-0.656,1.97 0,3.294 1.975,3.294c11.202,4.606 27.016,6.589 46.779,7.245c1.313,0 2.632,-0.656 2.632,-2.639c0,-1.313 -0.655,-2.639 -2.632,-2.639c-19.107,-0.655 -34.921,-2.629 -45.46,-6.585Z" style="fill-rule:nonzero;"/><path d="M224.787,471.626c-1.319,0 -2.639,0 -3.295,1.981c0,1.313 0.656,2.639 2.639,3.293l35.571,5.934c1.976,0 3.294,0 3.294,-1.982c0,-1.312 -0.657,-2.638 -1.977,-2.638l-36.232,-6.588Z" style="fill-rule:nonzero;"/><path d="M224.131,452.525c-1.982,-0.662 -3.294,0 -3.294,1.316c-1.319,1.978 -0.663,3.296 1.312,3.296l26.353,7.243l3.295,-1.977c0,-1.974 -0.655,-2.629 -1.976,-3.293l-25.69,-6.585Z" style="fill-rule:nonzero;"/><path d="M257.07,422.217c0,-1.97 -0.663,-1.97 -2.639,-1.97c-1.318,0 -2.638,0.657 -2.638,1.97l0,14.5l-1.976,22.396c-0.656,1.319 0,2.631 1.318,3.293c1.975,0.664 3.295,-0.662 3.295,-1.974l2.639,-23.716l0,-14.499l0.001,0Z" style="fill-rule:nonzero;"/><path d="M274.854,426.835c-1.313,0 -2.633,0 -2.633,1.969l-1.974,17.796l-5.274,32.94c0,1.968 0.661,2.629 2.637,3.294c1.318,0 2.639,-0.665 3.295,-2.638l4.613,-32.94l1.974,-17.79c-0.002,-1.975 -0.658,-2.631 -2.638,-2.631Z" style="fill-rule:nonzero;"/><path d="M291.324,446.6c-1.313,0 -1.975,0.656 -1.975,2.632l-1.979,17.133l-5.27,31.613c-0.662,1.981 0.656,2.639 1.978,3.295c1.976,0.662 2.636,0 3.292,-1.97l5.934,-31.628l0.656,-17.779c0.002,-1.984 -0.655,-3.296 -2.636,-3.296Z" style="fill-rule:nonzero;"/><path d="M309.112,470.315c-1.977,-0.657 -2.632,0 -3.294,2.636l-1.977,14.487l-5.932,27.009c-0.656,1.981 0,2.639 1.98,3.295c1.313,0.663 2.633,0 3.295,-1.97l5.926,-26.351l1.976,-16.472c0.002,-1.323 -0.654,-2.634 -1.974,-2.634Z" style="fill-rule:nonzero;"/><path d="M325.583,488.095c-1.977,0 -3.294,0.665 -3.294,2.641l-1.975,15.813l-3.952,25.697c-0.661,1.311 0,2.632 1.313,3.293c1.981,0.656 2.64,0 3.295,-1.982l5.273,-25.694l1.313,-17.125c0.003,-1.315 -0.655,-2.643 -1.973,-2.643Z" style="fill-rule:nonzero;"/><path d="M340.077,501.271c-1.977,0 -3.294,1.326 -3.294,2.641l-0.656,15.156l-5.931,25.688c0,1.319 0,3.294 1.974,3.294c1.319,1.319 2.639,0 3.294,-1.975l5.271,-26.354l1.98,-15.155c0,-1.968 -1.319,-3.295 -2.638,-3.295Z" style="fill-rule:nonzero;"/><path d="M73.263,584.284c24.377,-34.914 38.209,-74.442 40.187,-119.246c1.316,-14.487 0.66,-27.664 -1.318,-41.498l-1.977,-15.813c-14.495,3.295 -27.669,7.899 -40.847,15.15c-6.588,-31.621 -18.444,-59.954 -36.233,-86.307l-25.034,-30.956l-7.247,278.67l72.469,0Z" style="fill:#858585;fill-rule:nonzero;"/><path d="M113.45,407.072c0,-1.327 -1.318,-2.641 -3.953,-1.984c-11.857,1.984 -25.034,6.59 -38.211,13.178c-6.587,-30.301 -18.448,-57.974 -35.577,-84.324l-25.033,-30.312l-3.954,-0.655l-1.975,2.641l-7.247,278.668l0.659,2.633l2.635,0.662l72.469,0c1.318,0 1.975,-0.662 2.635,-1.318c24.377,-34.916 37.552,-75.105 40.847,-119.896c1.315,-14.5 0.659,-28.989 -0.66,-42.167l-2.635,-17.126Zm-47.435,16.468l1.979,1.97l2.635,0c11.857,-5.926 24.373,-10.539 36.892,-13.175c1.977,11.205 2.635,24.382 2.635,37.561c0,49.407 -12.515,92.887 -38.869,131.097l-67.199,0l7.247,-266.815c27.668,30.306 46.117,67.197 54.68,109.362Z" style="fill-rule:nonzero;"/><path d="M105.542,417.607c-1.975,0 -2.635,0 -3.293,1.314l-36.234,59.291c-27.012,42.168 -48.092,72.47 -63.245,90.267c-0.656,1.967 -0.656,2.631 0.659,3.948l3.954,0c17.789,-21.083 46.776,-63.903 85.645,-127.152c-10.542,25.041 -27.012,55.341 -49.411,90.919l-30.964,46.771l-0.657,1.318l1.315,2.633l3.954,-1.313l38.209,-58.636c27.012,-44.135 43.482,-79.713 51.389,-106.063c-0.001,-1.32 -0.001,-1.981 -1.321,-3.297Z" style="fill-rule:nonzero;"/><path d="M97.64,434.079l16.47,-16.472c9.222,-11.862 9.222,-19.762 1.314,-23.713c-8.562,-3.295 -14.492,1.969 -17.13,16.471c-0.654,7.901 -1.314,15.145 -0.654,23.714Z" style="fill:#ffe700;fill-rule:nonzero;"/><path d="M116.084,391.913l-11.857,0.655c-4.613,3.295 -7.248,11.207 -8.567,22.402l-0.659,19.107l1.319,2.638l2.635,-0.662c4.612,-2.632 9.222,-7.251 14.495,-13.177c7.904,-9.22 11.199,-15.807 9.882,-21.738c0,-3.949 -2.635,-7.242 -7.248,-9.225Zm2.635,9.883l0,0.656c0,6.588 -6.587,15.155 -18.445,26.352l0,-1.969c0,-16.47 1.975,-26.353 6.588,-29.646c1.975,-1.326 4.609,-1.326 7.248,0c2.634,0.659 4.609,1.968 4.609,4.607Z" style="fill-rule:nonzero;"/><path d="M70.628,420.247c-1.979,-0.663 -2.635,0 -3.955,1.97l-17.788,27.679c-14.492,20.421 -30.303,35.569 -46.772,44.789c-1.979,1.324 -2.638,2.638 -1.319,3.957c0.66,1.317 1.976,1.975 3.954,0.661c16.469,-9.88 32.94,-25.039 48.091,-46.115l18.448,-28.99c1.316,-1.981 0.656,-3.294 -0.659,-3.951Z" style="fill-rule:nonzero;"/><path d="M62.72,393.234c-0.66,-0.666 -1.974,-0.666 -3.294,1.315l-17.128,27.666c-14.492,19.765 -27.669,34.266 -39.528,42.823c-1.976,1.325 -1.976,1.979 -0.656,3.293c0.656,1.327 1.315,1.327 3.293,0.663c12.517,-9.218 26.353,-23.058 40.184,-43.484l19.108,-28.32c0.656,-1.327 0,-3.294 -1.979,-3.956Z" style="fill-rule:nonzero;"/><path d="M53.499,368.2c-1.32,-0.656 -2.635,0 -3.295,1.975l-15.15,25.688c-12.521,18.451 -23.058,31.628 -32.284,39.527c-0.656,1.325 -1.316,1.982 0,3.295l3.953,0.662c9.223,-8.563 19.764,-21.74 32.281,-40.19l15.813,-27.009c0.656,-1.312 0.656,-2.634 -1.318,-3.948Z" style="fill-rule:nonzero;"/><path d="M42.297,347.779c-1.315,-0.664 -1.975,0 -3.294,1.313l-10.539,21.082c-8.566,14.495 -17.13,25.688 -25.036,33.602c-0.659,1.97 -0.659,3.297 0,3.951c1.319,1.313 2.635,1.313 3.954,0c8.563,-7.908 16.469,-19.763 25.692,-34.922l10.542,-21.732c1.32,-1.324 0.659,-2.637 -1.319,-3.294Z" style="fill-rule:nonzero;"/><path d="M31.76,330.646c-1.979,-0.662 -3.295,0 -3.295,1.316l-5.932,13.178c-5.269,9.883 -11.198,18.445 -17.785,24.371c-1.319,0.662 -1.319,1.98 0,3.957c1.316,1.318 2.635,1.318 3.293,0c7.904,-6.59 13.836,-15.809 19.105,-25.689l5.928,-13.84c0.66,-1.975 0.001,-3.293 -1.314,-3.293Z" style="fill-rule:nonzero;"/><path d="M45.591,456.481c-1.975,0 -2.634,0.656 -2.634,1.968l0.659,55.343c0,1.98 1.319,2.638 2.635,2.638l2.635,-2.638l-0.657,-55.343c0,-1.31 -1.319,-1.968 -2.638,-1.968Z" style="fill-rule:nonzero;"/><path d="M62.72,432.1c-1.314,0 -2.634,0.661 -2.634,1.979l-0.66,21.077l0,34.267c0,1.968 1.32,2.629 2.635,2.629c1.979,0 2.638,-1.316 2.638,-2.629l0,-34.267l0.656,-21.077c0,-1.318 -0.656,-1.979 -2.635,-1.979Z" style="fill-rule:nonzero;"/><path d="M81.168,418.923c0,-1.969 -1.318,-3.296 -2.637,-3.296c-1.976,0 -2.634,1.327 -2.634,3.296l1.318,42.82c0,1.326 1.316,1.981 3.294,1.981c1.314,0 1.975,-0.655 1.975,-2.637l-1.316,-42.164Z" style="fill-rule:nonzero;"/><path d="M112.132,441.98l-27.669,21.744c-0.66,1.313 -1.318,2.639 0,3.293l3.951,0.656l27.01,-21.075c-1.314,0.656 -2.635,0 -3.292,-1.324c-1.317,-0.656 -1.317,-1.97 0,-3.294Z" style="fill-rule:nonzero;"/><path d="M113.45,463.726l-1.318,0.656c-14.492,11.864 -28.329,21.744 -42.164,28.333c-1.318,0.657 -1.975,1.97 -1.318,3.294c0.658,1.313 1.979,1.969 3.953,1.313c13.835,-7.244 28.33,-16.471 42.822,-28.99c1.32,-0.656 1.32,-1.968 0,-3.293l-1.975,-1.313Z" style="fill-rule:nonzero;"/><path d="M112.132,491.391l-3.295,-0.655c-21.079,15.155 -39.529,25.038 -54.02,28.988c-1.979,0 -2.639,1.313 -1.979,3.295l3.294,1.312c15.81,-3.949 34.26,-13.831 55.999,-28.982c1.319,-1.321 1.319,-1.977 0.001,-3.958Z" style="fill-rule:nonzero;"/><path d="M106.862,515.772c-1.32,-1.325 -1.978,-1.325 -3.295,0l-19.764,10.538c-16.47,7.901 -30.965,13.179 -44.141,17.127c-1.975,0 -2.635,1.319 -1.315,3.296c0,1.317 0.656,2.638 2.635,1.317c21.738,-5.27 43.481,-15.149 65.22,-28.327c1.975,-0.656 1.975,-1.981 0.66,-3.951Z" style="fill-rule:nonzero;"/><path d="M96.98,545.419c0,-1.98 -1.32,-1.98 -3.294,-1.98c-25.036,9.883 -48.75,17.789 -69.834,23.716c-1.319,0 -1.319,1.325 -1.319,3.292c0.66,1.326 1.319,1.981 3.295,1.326c21.082,-5.932 44.141,-13.84 69.833,-23.059c1.979,-0.663 2.633,-1.982 1.319,-3.295Z" style="fill-rule:nonzero;"/><path d="M85.12,160.018c7.248,-5.272 13.175,-11.862 15.155,-21.084c26.352,-21.079 51.384,-40.843 75.761,-59.292l-88.938,40.187l-12.517,0.66c-9.226,1.316 -16.47,3.953 -20.422,7.904c-5.273,5.271 -8.568,10.541 -9.223,16.469c-0.66,5.933 0.655,13.835 3.293,24.377l7.904,27.011l5.273,21.74l-2.638,26.352c-0.656,11.86 -0.656,21.083 1.318,26.352c2.634,7.906 8.564,16.469 15.812,23.717c9.882,9.882 22.397,17.133 36.234,23.058l24.377,19.764c21.739,12.517 48.749,16.472 80.37,13.178l1.977,8.563c1.318,5.933 0.662,11.201 -0.655,14.496l6.588,-6.59c5.269,-5.925 7.907,-13.176 9.226,-21.083l1.313,8.57c1.317,7.243 0.661,12.513 -0.656,15.146l6.587,-5.926c5.27,-5.27 7.244,-12.515 8.564,-21.74l2.639,9.227c1.975,7.9 1.975,13.833 1.975,19.104c6.588,-7.252 10.539,-16.472 10.539,-27.673l2.637,7.246l2.639,10.543l6.587,-7.251c3.951,-5.926 5.271,-12.514 4.606,-18.438c-0.655,-16.472 -7.243,-27.018 -20.42,-30.975c-14.496,-9.878 -24.377,-17.78 -28.989,-23.053c-4.606,-5.93 -11.856,-12.517 -20.419,-19.104c-11.859,-9.223 -22.403,-13.835 -32.282,-15.812l-31.625,1.977l-20.42,2.632l-21.745,-5.27c-13.835,-3.953 -21.08,-7.246 -21.08,-10.54l0,-14.492c0,-6.588 -0.66,-13.837 -2.638,-20.422l-9.222,-22.401c-2.634,-6.587 -1.974,-11.201 1.979,-12.519c3.291,-0.655 7.241,-1.975 10.536,-4.608Z" style="fill:#fff;fill-rule:nonzero;"/><path d="M227.425,317.471c2.632,1.975 3.296,3.954 1.976,6.588c-1.318,3.957 -5.27,5.926 -11.857,4.613l-29.648,-4.613c9.224,3.293 16.473,9.219 22.397,16.469l6.588,9.884l1.978,8.563c1.317,5.932 0.662,11.2 -0.656,14.495l6.588,-6.59c5.27,-5.925 7.906,-13.176 9.227,-21.083l1.313,8.57c1.318,7.244 0.66,12.513 -0.656,15.146l6.587,-5.927c5.271,-5.271 7.244,-12.515 8.564,-21.739l2.639,9.226c1.974,7.901 1.974,13.833 1.974,19.103c6.588,-7.251 10.539,-16.471 10.539,-27.672l2.637,7.246l2.64,10.543l6.587,-7.251c3.951,-5.926 5.27,-12.515 4.607,-18.437c-0.656,-16.473 -7.244,-27.019 -20.422,-30.976l-11.856,-8.56c-1.317,3.953 -3.955,5.931 -8.563,6.593l-6.586,-0.662l2.631,3.957c1.319,3.292 1.319,5.926 0,7.242c-2.631,3.296 -6.588,3.95 -13.176,1.976l3.948,3.296Z" style="fill:#858585;fill-rule:nonzero;"/><path d="M77.216,119.829c-11.201,1.32 -18.448,4.613 -23.057,8.564c-5.93,5.931 -9.223,12.52 -9.223,19.762l10.538,-3.293c5.273,-0.656 9.226,-2.634 11.86,-4.609c2.635,-2.635 4.609,-5.929 6.587,-10.542l3.295,-9.882Z" style="fill:#da8e55;fill-rule:nonzero;"/><path d="M178.67,78.328c-0.66,-1.98 -2.635,-2.64 -3.953,-1.32l-88.937,39.528c-15.812,0 -27.012,3.293 -34.256,9.882c-6.588,6.587 -9.883,13.835 -9.883,23.057c0,4.613 0.657,11.203 3.295,20.424l6.588,23.058c3.949,12.516 6.587,21.081 6.587,25.693l-1.318,15.81l-1.977,22.398c0,5.931 0.656,11.201 2.635,15.155c2.634,8.563 8.563,16.468 16.469,25.032c9.882,9.225 21.739,17.129 36.234,23.055c5.93,7.914 15.152,14.504 26.354,21.09c21.739,11.851 48.091,15.808 77.739,13.177l1.978,11.194l-1.32,5.932l0,1.977l0.656,2.629l3.957,0c5.27,-3.293 9.219,-8.555 13.176,-15.807l0,0.663l-1.318,7.245l0,1.313l0.656,1.98l3.955,1.313c5.926,-3.293 10.539,-9.219 13.834,-17.126l1.318,11.864l0,2.631c0,1.318 0.655,2.631 1.975,3.295l3.957,-0.664c3.949,-4.604 7.244,-9.882 9.22,-17.125l0.663,3.95l0,0.661l1.313,3.295l3.955,-0.663c9.221,-8.557 13.834,-18.438 12.514,-28.319c-0.653,-17.797 -8.562,-28.989 -22.396,-33.604c-14.493,-9.882 -23.719,-17.132 -27.67,-22.4c-4.612,-5.928 -11.201,-12.516 -19.765,-19.763c-12.52,-9.224 -24.377,-14.495 -34.914,-16.47l-41.507,3.293l-10.542,1.316l-27.009,-7.246c-8.565,-1.976 -12.519,-4.612 -13.175,-5.931l0,-13.831c0,-7.248 -0.66,-14.496 -2.638,-21.083l-6.588,-16.471l-3.95,-12.514l0,-0.66l1.316,-1.977l12.517,-5.271c7.246,-4.611 11.86,-12.517 14.494,-21.08c27.012,-22.402 52.045,-41.507 75.103,-58.636l1.32,-2.635l-0.662,-1.314Zm-130.441,66.534c0.657,-5.269 3.295,-9.882 7.244,-13.831c3.953,-3.295 10.542,-6.589 19.764,-7.907l11.86,0l1.316,-0.661l62.587,-27.668l-52.706,41.505l-1.314,1.318c-1.979,8.564 -6.587,15.15 -13.177,19.763c-3.293,1.977 -6.587,3.297 -9.882,3.951l-0.658,0c-2.634,1.318 -3.955,2.638 -4.613,4.613l-0.656,3.955c0,2.633 1.314,7.246 4.609,15.151l6.588,15.153c1.32,6.588 1.978,12.517 1.978,19.765l0,14.492c0,7.247 15.152,13.835 45.458,19.104l13.175,-1.315l39.529,-3.294c8.562,1.314 18.448,5.928 29.644,14.492c8.567,5.931 15.813,12.52 20.426,19.107c4.613,5.27 14.494,13.177 29.646,23.716l0.656,0.653c11.2,3.959 17.788,13.177 18.444,28.334l0,1.313c0,5.273 -1.313,10.543 -5.926,16.469l-3.957,-11.852c-0.656,-1.324 -1.975,-2.637 -3.949,-1.979c-1.318,0.655 -2.639,1.317 -2.639,3.293c0,5.276 -1.313,11.201 -4.605,17.789l-2.639,-13.177l-1.318,-5.926c-1.318,-1.324 -1.975,-2.637 -3.95,-2.637c-1.317,0.656 -2.638,1.975 -2.638,3.293c-0.656,8.563 -2.631,14.489 -7.243,19.108c0,-5.933 -0.662,-11.206 -1.976,-15.813c-0.664,-1.318 -1.981,-2.639 -3.295,-2.639c-2.638,0.656 -3.293,1.32 -3.293,2.639c-0.664,7.243 -3.295,13.176 -7.908,19.107l-2.638,-14.5c-1.317,-1.971 -1.976,-2.635 -3.948,-2.635c-30.308,3.296 -55.343,-0.66 -77.742,-12.51l-23.717,-19.108l-1.316,-1.32c-13.835,-5.271 -25.036,-12.513 -34.259,-21.738c-7.904,-7.247 -13.175,-15.156 -16.47,-23.06c-1.314,-5.272 -1.314,-17.128 0.661,-34.259l1.318,-17.126c0,-5.929 -2.638,-14.491 -6.587,-26.354l-7.248,-23.057c-1.979,-10.541 -3.295,-17.784 -2.636,-23.717Z" style="fill-rule:nonzero;"/><path d="M184.6,347.779c-1.977,-0.664 -3.295,0 -3.955,2.631l-14.491,67.197l-6.588,23.061l-11.2,43.479c0,2.636 0.658,3.947 3.292,3.947c1.32,0.665 3.295,0 3.295,-1.969c2.635,-11.206 6.587,-26.35 11.201,-43.483l6.589,-23.72l14.491,-67.194c0,-1.979 -0.656,-3.292 -2.634,-3.949Z" style="fill-rule:nonzero;"/><path d="M154.953,483.49c-0.66,-0.656 -1.975,-1.321 -3.295,-1.321l-16.469,0.665l-1.315,0.656l-10.542,7.899c-1.318,1.324 -1.318,2.639 0,3.956c0.661,1.318 1.975,1.318 3.295,0.662l9.882,-7.914l8.562,-0.656l-21.739,19.108c-1.318,0.656 -1.318,2.639 0,3.951l3.295,0l27.667,-23.716c0.659,-0.654 0.659,-1.977 0.659,-3.29Z" style="fill-rule:nonzero;"/><path d="M152.979,482.169c-1.32,-0.661 -3.294,0 -3.294,1.321c0,1.975 0,3.292 1.974,3.292l5.93,1.978l13.175,0.663c1.98,0 1.98,-0.663 1.98,-2.641c0,-1.317 -1.32,-2.636 -2.635,-2.636l-11.86,-0.656l-5.27,-1.321Z" style="fill-rule:nonzero;"/><path d="M190.527,420.904c-12.518,-11.864 -24.375,-30.305 -36.892,-54.024l-15.153,-32.274c-1.316,-1.328 -3.294,-1.984 -5.27,-1.328c-1.318,0.664 -1.318,1.981 -1.318,3.296l0,0.661l15.81,32.94c12.521,23.722 25.037,41.503 36.895,54.021l1.318,84.988l1.316,1.97c0.658,1.325 0.658,1.325 1.975,1.325c1.98,0 3.294,-1.325 3.294,-3.295l-1.313,-85.646l-0.662,-2.634Z" style="fill-rule:nonzero;"/><path d="M191.848,507.859c-0.656,-1.313 -1.977,-1.97 -2.639,-1.313l-27.668,3.295l-0.658,0.656l-12.517,9.882c-1.316,1.319 -1.316,2.639 0,3.949c1.318,1.98 2.635,1.98 3.292,0c4.613,-3.949 7.908,-7.243 11.203,-8.558l16.47,-2.637l-11.861,7.901l-13.833,12.518l-0.658,1.982l0.658,1.969c1.316,1.325 2.635,1.325 3.951,0l11.86,-11.852l21.741,-14.5l0.656,-1.97l0,-1.323l0.003,0l0,0.001Z" style="fill-rule:nonzero;"/><path d="M191.189,511.816l17.127,2.631c1.975,0 3.295,-0.655 3.295,-1.968c0,-2.639 -0.656,-3.295 -2.639,-3.295l-19.765,-2.639c-0.656,-0.656 -1.315,0 -1.976,1.313l-16.472,30.309c-1.314,1.32 -1.314,2.634 0.66,3.295c1.32,1.318 2.635,1.318 3.294,-0.661l16.476,-28.985Z" style="fill-rule:nonzero;"/><path d="M83.803,139.593l-1.979,-3.292l-3.293,-1.977c-1.976,0 -2.634,0.656 -3.951,1.977c-0.66,1.318 -1.979,1.973 -1.979,3.953c0,1.316 1.318,2.633 1.979,3.953l3.951,0.656c3.294,-0.001 5.272,-1.317 5.272,-5.27Z" style="fill-rule:nonzero;"/><path d="M84.463,219.969c0,-6.588 -0.66,-13.837 -2.638,-20.422l-9.222,-22.401c-2.634,-6.587 -1.974,-11.201 1.979,-12.519c0,-1.977 -0.66,-1.977 -1.979,-2.635c-1.316,-0.66 -3.953,2.635 -6.587,9.222c-1.316,1.978 0,6.587 3.293,13.836c4.613,7.906 7.248,15.153 7.908,21.081c1.975,15.812 1.975,27.014 0,34.916c-1.979,4.613 -7.908,11.202 -18.448,19.104c0,3.953 0,7.25 1.318,10.542l1.32,1.978c1.314,-4.613 4.609,-10.541 7.902,-15.153c6.589,-9.882 15.155,-15.812 24.377,-16.471c-5.928,-2.633 -9.223,-5.27 -9.223,-6.587l0,-14.491Z" style="fill-rule:nonzero;"/><path d="M87.098,116.536c-1.318,0 -2.635,0.66 -2.635,1.975c0,2.638 0.657,3.294 1.975,3.294l3.955,1.319l5.268,4.612c2.634,3.295 3.295,6.588 1.979,10.537c0,1.32 0.655,2.64 1.975,3.296c1.975,0 2.635,-0.657 2.635,-1.977c1.318,-5.929 1.318,-11.2 -1.317,-15.151c-1.978,-2.637 -5.272,-4.613 -8.565,-5.931l-5.27,-1.974Z" style="fill-rule:nonzero;"/><path d="M128.601,248.296c-1.316,-1.319 -2.635,-0.658 -3.294,0.66l-6.587,15.81c-3.295,11.202 -1.316,21.084 4.612,29.647c5.93,7.907 14.492,14.494 25.692,19.765c15.812,7.904 38.869,13.174 67.855,17.131c7.908,0.656 13.178,-0.66 14.496,-5.931l0.656,-3.296l-1.313,-4.611c3.949,0 6.588,-1.974 7.9,-3.293l1.979,-5.271l-1.979,-4.612c7.249,0 11.861,-2.631 13.175,-8.563l0,-0.66l-1.976,-2.634c-1.975,0 -2.631,0 -3.295,1.975c-1.316,3.956 -5.27,5.926 -12.512,3.956c-1.318,0 -2.639,0 -2.639,1.97c-0.655,0.663 -0.655,1.981 0,3.292l2.639,2.641c0.655,1.979 1.313,3.951 0.655,4.613l-10.538,0.661c-1.318,0 -2.639,0.655 -3.294,1.968c0,1.327 0,3.295 1.312,3.295l2.64,1.981c1.976,1.976 2.638,2.636 1.976,4.606c-1.318,1.98 -3.951,3.293 -9.221,3.293c-28.333,-3.949 -50.072,-9.219 -65.884,-16.469c-10.54,-5.263 -18.444,-11.853 -24.373,-19.102c-5.271,-6.589 -5.931,-15.812 -3.293,-25.694l5.927,-13.835c0.663,-0.658 0.663,-1.975 -1.316,-3.293Z" style="fill-rule:nonzero;"/><path d="M124.648,259.496l-3.951,-0.658c-0.66,1.975 -0.66,2.635 0,3.953c15.812,17.787 37.55,31.622 63.903,42.824c13.833,5.27 27.011,9.226 38.21,11.855c1.977,0 2.633,-0.662 3.295,-2.631c0,-1.326 -0.662,-2.64 -1.976,-3.295c-10.545,-1.324 -23.058,-5.273 -36.237,-10.544c-26.351,-11.201 -48.09,-25.033 -63.244,-41.504Z" style="fill-rule:nonzero;"/><path d="M151.658,245.001l-3.953,0c-1.316,1.32 -1.316,3.295 0,3.955c15.155,12.517 33.599,25.692 55.999,38.869c11.2,6.588 20.427,11.856 28.327,15.806c1.98,0.664 2.638,0.664 3.955,-1.311c0.656,-1.318 0.656,-1.981 -1.317,-3.295c-7.907,-3.953 -17.79,-9.227 -28.989,-15.813c-21.741,-12.517 -39.526,-25.692 -54.022,-38.211Z" style="fill-rule:nonzero;"/><path d="M128.601,293.752c-1.975,-1.314 -3.294,-0.658 -3.294,1.318c0,1.977 0,2.637 1.32,3.298l11.857,2.633c6.587,0 12.517,-0.663 15.81,-3.294c3.295,-2.637 3.955,-5.93 3.955,-9.883l-0.66,-1.975l-2.635,-0.659c-1.316,0 -1.975,0.659 -1.975,2.634c0,2.636 0,4.613 -1.978,5.928c-3.952,2.637 -11.199,2.637 -22.4,0Z" style="fill-rule:nonzero;"/><path d="M141.118,279.261c0,1.976 0.658,2.636 1.979,3.294c18.444,5.27 31.621,5.27 39.526,0c3.295,-1.318 5.27,-4.613 5.93,-7.907c0.656,-1.975 -0.66,-2.633 -1.975,-3.293c-1.978,0 -2.639,0.66 -2.639,2.633l-3.949,3.955l-18.45,2.635l-17.129,-3.295c-1.314,-0.001 -2.635,0.659 -3.293,1.978Z" style="fill-rule:nonzero;"/><path d="M212.268,258.838c-1.313,-0.66 -3.293,-0.66 -3.293,1.314c-1.313,2.638 -3.295,5.273 -5.927,6.59c-6.588,2.636 -15.155,1.976 -27.012,-1.977c-1.318,-1.318 -1.978,-0.66 -3.293,0.66c0,1.977 0,3.293 1.975,3.953c12.517,5.27 23.062,5.93 30.962,1.977c3.295,-1.977 6.588,-5.27 8.568,-9.222c0,-1.32 0,-3.295 -1.98,-3.295Z" style="fill-rule:nonzero;"/><path d="M195.797,304.958c0,-1.328 -1.313,-1.983 -3.294,-1.983c-1.313,0 -1.976,1.319 -1.976,2.641c0,2.636 -0.656,4.605 -2.635,5.27c-3.292,3.956 -10.542,5.924 -21.74,4.612c-1.979,-0.656 -3.293,0 -3.293,1.974c0,1.977 0.658,3.295 2.635,3.295c12.515,0.66 21.739,-0.662 27.007,-5.925c1.981,-2.642 3.296,-5.936 3.296,-9.884Z" style="fill-rule:nonzero;"/><path d="M212.268,287.824c-1.313,-0.66 -1.977,0 -2.633,1.975c-0.66,4.613 -5.27,7.908 -13.838,8.569l-12.514,0.655c-1.979,0 -2.638,0.658 -2.638,1.978c0,2.629 0.66,3.293 1.978,3.293l15.813,0c9.883,-2.631 15.813,-6.587 16.469,-13.834c-0.001,-1.978 -0.657,-2.636 -2.637,-2.636Z" style="fill-rule:nonzero;"/><path d="M236.645,281.236c-1.318,-0.659 -1.976,-1.319 -3.949,0c-7.907,5.928 -17.135,6.588 -26.353,2.633c-1.978,-1.314 -2.639,-0.658 -3.957,0.661c-0.655,1.976 0,3.294 1.979,3.294l10.539,3.295c7.906,0.658 15.15,-1.32 21.082,-5.929c1.323,-0.66 1.978,-2.635 0.659,-3.954Z" style="fill-rule:nonzero;"/><path d="M189.209,321.425c-1.316,-0.661 -3.291,0 -3.291,1.972c-0.66,0.662 0,1.98 1.316,3.293c8.563,3.295 15.15,8.569 21.082,15.158l5.932,9.881c0.656,1.977 1.313,1.977 3.294,1.977c1.313,-0.663 1.976,-2.632 1.313,-3.955l-6.59,-11.195c-6.585,-7.247 -14.488,-13.179 -23.056,-17.131Z" style="fill-rule:nonzero;"/><path d="M226.762,326.033l-3.949,0.656c-1.319,0.66 -1.319,1.981 0.655,3.295c4.613,4.619 7.907,9.882 7.907,15.813c0,1.318 0.656,2.639 2.639,2.639c1.973,0 2.631,-1.319 2.631,-2.639c0,-7.901 -3.293,-14.488 -9.883,-19.764Z" style="fill-rule:nonzero;"/><path d="M237.964,310.884c-1.319,-1.321 -2.639,-1.321 -3.295,0l-0.655,1.316l0.655,1.976c7.243,6.588 11.856,16.471 12.521,28.327c0,1.981 0.656,2.638 2.631,1.981c1.318,0 2.64,-0.661 2.64,-2.639l-1.978,-11.199c-2.637,-8.565 -6.588,-15.15 -12.519,-19.762Z" style="fill-rule:nonzero;"/><path d="M243.232,299.023l-3.295,1.313c-1.317,1.325 -1.317,2.636 0.662,3.292c8.563,4.62 14.488,13.178 19.103,23.721c1.317,5.928 2.637,10.547 3.294,15.152c0,1.32 0.663,2.639 1.977,2.639c1.98,0 2.637,-1.317 2.637,-2.639c0,-5.27 -1.318,-11.195 -3.293,-17.126c-4.615,-11.199 -11.204,-20.417 -21.085,-26.352Z" style="fill-rule:nonzero;"/></g></g><rect id="PATH77" x="2.92" y="2.74" width="366.67" height="582.52" style="fill:none;stroke:#000;stroke-width:3px;"/></svg>