<?xml version="1.0" encoding="UTF-8" standalone="no"?><!DOCTYPE svg PUBLIC "-//W3C//DTD SVG 1.1//EN" "http://www.w3.org/Graphics/SVG/1.1/DTD/svg11.dtd"><svg width="100%" height="100%" viewBox="0 0 372 587" version="1.1" xmlns="http://www.w3.org/2000/svg" xmlns:xlink="http://www.w3.org/1999/xlink" xml:space="preserve" xmlns:serif="http://www.serif.com/" style="fill-rule:evenodd;clip-rule:evenodd;stroke-miterlimit:100;"><g><clipPath id="_clip1"><rect x="2.701" y="260.705" width="367.425" height="324.792"/></clipPath><g clip-path="url(#_clip1)"><path d="M185.912,263.934c-36.799,0 -71.667,6.456 -105.886,18.726c-32.928,12.264 -62.628,29.697 -89.097,52.938l0,255.672l389.968,0l0,-255.673c-26.472,-23.24 -56.818,-40.674 -89.101,-52.938c-34.217,-12.269 -69.728,-18.725 -105.884,-18.725Z" style="fill:#858585;fill-rule:nonzero;"/><path d="M185.912,260.705c-36.157,0 -71.021,5.813 -105.238,18.726c-33.575,12.264 -64.564,30.34 -92.329,53.581l-0.644,0.649l0,260.836l396.425,0l0,-260.836l-0.647,-0.649c-27.761,-23.241 -58.754,-41.317 -92.972,-53.581c-33.574,-12.913 -68.439,-18.726 -104.595,-18.726Zm-102.011,24.533c32.282,-12.264 66.5,-18.077 102.011,-18.077c34.864,0 68.438,5.813 102.014,18.077c33.571,12.263 63.271,29.054 89.744,51.651l0,251.151l-383.512,0l0,-251.15c26.469,-22.598 56.169,-39.389 89.743,-51.652Z" style="fill-rule:nonzero;"/><path d="M10.942,521.547c8.395,-4.527 18.08,-7.756 27.765,-10.334c18.076,-4.521 36.8,-7.105 56.815,-7.749c23.243,-0.644 45.841,1.941 68.438,7.1c34.218,8.398 72.957,25.826 114.923,51.651l43.26,29.054l-10.331,-9.034c-9.038,-7.106 -19.37,-14.85 -31.637,-22.599c-41.32,-26.476 -80.059,-44.545 -115.568,-52.943c-22.598,-5.164 -45.842,-7.743 -69.732,-6.456c-20.012,0.642 -38.738,3.871 -56.168,8.398c-10.977,3.227 -20.662,7.098 -27.765,12.912Z" style="fill-rule:nonzero;"/><path d="M238.21,442.771c-19.369,0.648 -38.739,4.526 -57.462,10.982c-16.141,5.808 -30.347,12.265 -43.26,20.013c-10.33,6.457 -19.368,13.557 -25.179,20.655l26.471,-18.069c30.345,-17.44 63.919,-27.768 99.43,-29.703c33.574,-2.579 67.792,3.228 103.303,16.79l29.054,13.556l10.331,5.164c-8.395,-7.106 -21.308,-13.563 -38.739,-21.305c-34.221,-14.205 -69.086,-20.662 -103.949,-18.083Z" style="fill-rule:nonzero;"/><path d="M209.155,440.842c-6.456,-3.878 -14.205,-7.756 -22.597,-12.27c-25.826,-13.557 -52.298,-21.955 -79.413,-26.47c-29.7,-5.17 -58.107,-4.526 -83.29,0.644c-14.202,2.585 -25.18,5.813 -32.926,9.686l9.039,-1.294l24.533,-5.807c25.825,-4.527 53.589,-3.877 81.997,0.644c24.534,4.515 51.005,12.27 79.413,24.533l30.347,16.142l-7.103,-5.808Z" style="fill-rule:nonzero;"/><path d="M182.037,455.041l-7.1,-3.871l-19.369,-7.75c-20.016,-8.392 -41.967,-14.205 -67.148,-17.434c-25.826,-2.584 -49.067,-2.584 -70.375,1.293l-20.016,3.878c-5.164,1.929 -7.745,2.579 -7.1,3.228l27.762,-4.526c20.016,-2.579 42.612,-2.579 68.438,0c22.599,3.228 45.196,7.755 67.147,16.141l27.761,9.041Z" style="fill-rule:nonzero;"/><path d="M124.575,465.368l23.244,3.878c0,0 -7.103,-2.579 -21.951,-6.456c-16.141,-5.164 -34.864,-8.393 -56.172,-10.334c-18.077,-2.579 -36.157,-1.93 -56.169,0.649l-16.787,3.877l-5.811,2.579l22.598,-3.229c22.598,-1.936 41.32,-1.936 56.169,0c21.308,1.937 40.032,4.522 54.879,9.036Z" style="fill-rule:nonzero;"/><path d="M218.194,507.335c-34.218,10.335 -68.439,27.768 -103.303,52.951c-9.685,7.099 -19.369,14.842 -27.115,21.948l-9.042,9.034c9.042,-7.742 21.308,-18.07 37.449,-29.054c36.157,-24.527 70.375,-41.317 103.303,-51.651c38.738,-12.913 76.831,-18.07 113.635,-16.142l35.51,3.229l12.267,1.299c-11.624,-3.228 -27.765,-6.456 -47.134,-7.105c-38.092,-2.579 -76.185,2.578 -115.57,15.491Z" style="fill-rule:nonzero;"/><path d="M241.438,521.547c-12.913,3.871 -18.723,7.1 -18.076,8.386l18.724,-5.807l47.13,-9.035l47.777,-1.942l19.369,-0.643l-19.369,-1.942c-12.913,-1.287 -29.054,-1.287 -47.777,1.299c-14.203,1.285 -29.701,4.514 -47.778,9.684Z" style="fill-rule:nonzero;"/><path d="M261.454,536.39c-9.686,2.585 -14.206,4.526 -14.206,5.169l15.495,-1.941l36.802,-5.807l36.157,-3.228l15.495,-1.937l-15.495,-0.643l-36.803,1.929c-13.559,1.299 -25.826,3.879 -37.445,6.458Z" style="fill-rule:nonzero;"/><path d="M23.855,531.231c27.764,-4.527 54.879,-3.228 81.352,3.229c25.826,6.456 51.005,18.07 73.603,35.51c5.813,5.158 12.27,9.686 19.369,16.142l7.103,5.157c-5.811,-6.457 -14.202,-14.842 -25.18,-23.24c-22.598,-18.727 -47.13,-30.989 -74.249,-36.797c-28.407,-7.755 -55.525,-7.755 -82.641,-2.585c-13.559,3.229 -24.536,6.456 -32.282,10.971c7.746,-3.228 18.723,-5.807 32.925,-8.387Z" style="fill-rule:nonzero;"/><path d="M202.699,405.975c-7.103,4.515 -13.56,9.041 -19.369,13.556c-3.874,3.872 -6.457,5.813 -5.81,5.813l7.103,-4.521l20.013,-12.264c21.953,-12.27 46.487,-20.019 72.313,-22.598c23.244,-2.585 48.423,0.644 75.542,9.685l21.305,9.035l7.748,3.229l-7.103,-5.164l-21.308,-9.685c-26.469,-9.685 -51.651,-13.556 -76.831,-10.977c-26.472,3.229 -51.005,10.978 -73.603,23.891Z" style="fill-rule:nonzero;"/><path d="M225.297,326.556c-20.661,3.878 -40.031,9.685 -59.4,17.439c-16.783,7.743 -31.636,15.491 -44.549,25.177c-9.685,7.749 -18.077,15.491 -23.887,22.597c7.746,-6.456 16.141,-13.562 25.179,-20.018c28.409,-20.013 63.272,-34.213 102.657,-41.968c38.093,-7.1 74.896,-6.456 111.695,1.942l32.281,9.042l11.624,3.871c-10.331,-5.813 -24.536,-10.978 -43.26,-16.141c-37.445,-8.397 -74.894,-9.684 -112.34,-1.941Z" style="fill-rule:nonzero;"/><path d="M209.803,404.033l-7.104,-4.515l-22.598,-10.329c-21.95,-10.333 -47.776,-16.79 -77.477,-21.953c-29.701,-3.229 -56.815,-3.229 -80.06,1.936l-23.89,5.807c-5.164,1.942 -8.392,3.878 -7.746,3.878l32.282,-7.105c23.887,-3.872 49.712,-3.872 78.767,0c28.407,3.877 54.233,10.334 77.478,20.018l30.348,12.263Z" style="fill-rule:nonzero;"/><path d="M224.65,345.925c-21.305,4.526 -39.385,10.983 -55.525,20.019l-15.495,9.685l-5.811,3.878l6.457,-3.229c5.163,-2.585 10.331,-5.813 16.141,-7.755c16.787,-8.386 35.511,-14.843 54.88,-18.72c20.016,-5.164 39.385,-7.106 58.107,-7.106l24.534,0l-5.811,-1.929l-18.724,-0.65c-18.721,-1.293 -38.737,0.65 -58.753,5.807Z" style="fill-rule:nonzero;"/><path d="M225.297,363.364c-13.559,2.579 -26.472,7.743 -38.738,14.199c-4.521,1.942 -8.393,4.521 -10.978,6.457l-3.871,3.228l15.494,-7.099c15.495,-6.457 28.407,-10.978 38.739,-13.557l41.32,-7.106l16.787,-2.578c-0.646,-0.649 -6.456,-0.649 -17.434,0c-12.265,0 -25.825,2.578 -41.319,6.456Z" style="fill-rule:nonzero;"/><path d="M147.819,296.216c-20.015,-5.171 -39.385,-8.398 -57.461,-9.686l-18.08,0.644l-6.457,1.292l7.103,0l17.435,0.65c18.076,1.929 37.446,5.807 56.168,11.613c23.244,6.457 41.324,12.913 54.88,19.37l22.599,7.755l-21.952,-10.334c-12.268,-6.457 -30.991,-13.562 -54.235,-21.304Z" style="fill-rule:nonzero;"/><path d="M296.317,285.238l-19.369,-3.878l-47.776,0.649c-17.434,3.229 -32.93,7.106 -45.842,12.913c-5.164,1.936 -9.685,3.877 -12.913,6.456l-4.521,2.579l18.08,-6.457c16.141,-5.807 31.635,-9.035 45.841,-11.614l47.131,-1.941l19.369,1.293Z" style="fill-rule:nonzero;"/><path d="M201.406,295.572l-10.327,-2.585l9.038,5.164l22.598,10.334l21.951,11.614l9.685,3.877l-7.749,-6.456l-21.951,-12.913c-6.457,-3.228 -14.848,-6.456 -23.245,-9.035Z" style="fill-rule:nonzero;"/><path d="M258.225,300.729c-7.748,-5.157 -16.787,-9.035 -26.472,-12.264l-10.977,-3.228l10.331,5.807l25.18,12.913l24.536,13.563c6.456,4.521 9.684,6.456 10.33,6.456c0.644,-0.649 -2.584,-3.229 -8.395,-8.392l-24.533,-14.855Z" style="fill-rule:nonzero;"/><path d="M260.161,283.303l-8.393,-1.293l7.103,3.877l17.431,9.036l16.787,10.334c5.164,3.229 7.104,4.514 7.104,3.871l-5.167,-6.456c-5.164,-3.872 -10.975,-7.749 -16.785,-10.978c-5.813,-3.228 -12.27,-6.456 -18.08,-8.391Z" style="fill-rule:nonzero;"/><path d="M59.365,300.729l-18.723,0.649l18.08,1.293l43.256,7.742c10.331,1.299 23.89,5.171 41.968,10.334l17.433,5.164l-16.788,-7.743c-11.619,-4.526 -25.825,-8.398 -42.612,-12.27l-42.614,-5.169Z" style="fill-rule:nonzero;"/><path d="M70.988,320.1l-39.385,-4.515l-16.786,1.285l16.141,1.299l39.385,5.808l38.092,7.749l16.141,3.871c0,-0.643 -5.163,-2.585 -14.848,-5.813l-38.74,-9.684Z" style="fill-rule:nonzero;"/></g></g><rect id="PATH77" x="2.92" y="2.74" width="366.67" height="582.52" style="fill:none;stroke:#000;stroke-width:3px;"/></svg>