<?xml version="1.0" encoding="UTF-8" standalone="no"?><!DOCTYPE svg PUBLIC "-//W3C//DTD SVG 1.1//EN" "http://www.w3.org/Graphics/SVG/1.1/DTD/svg11.dtd"><svg width="100%" height="100%" viewBox="0 0 372 587" version="1.1" xmlns="http://www.w3.org/2000/svg" xmlns:xlink="http://www.w3.org/1999/xlink" xml:space="preserve" xmlns:serif="http://www.serif.com/" style="fill-rule:evenodd;clip-rule:evenodd;stroke-miterlimit:100;"><g><clipPath id="_clip1"><rect x="3.25" y="2.93" width="365.393" height="583.811"/></clipPath><g clip-path="url(#_clip1)"><path d="M260.456,22.859c6.647,-7.31 7.979,-13.957 5.982,-20.604l-260.578,0l-1.996,209.395l30.579,0.662c21.273,-1.324 36.561,-5.985 43.208,-13.957c6.648,-8.647 9.971,-17.949 8.644,-29.251l-3.989,-13.957l29.914,-1.331c20.607,-3.324 34.564,-11.964 39.884,-25.921c5.982,-13.964 6.647,-26.59 2.658,-39.223l-7.313,-14.626l15.953,-5.316c9.309,-5.985 11.302,-15.957 6.648,-29.913l27.92,0l40.551,-3.324c8.64,-2.662 15.953,-6.648 21.935,-12.634Z" style="fill:#d96038;fill-rule:nonzero;"/><path d="M239.187,38.816c5.982,-2 11.964,-4.655 17.28,-7.979c4.654,-3.992 8.644,-7.979 11.302,-12.626c3.324,-5.985 3.324,-11.971 1.993,-17.288c-0.662,-1.331 -1.993,-1.993 -3.323,-1.993l-260.579,0c-2.658,0 -3.324,0.663 -3.324,3.324l-1.996,209.396c0,1.993 0.666,3.324 2.662,3.324c10.634,0.662 21.271,1.324 32.572,0.662c21.936,-1.992 36.562,-6.647 44.537,-15.288c6.647,-7.978 9.971,-16.618 9.971,-26.59c0,-5.316 -1.328,-9.971 -2.658,-15.288l34.568,-3.323c16.619,-4.654 27.917,-13.295 32.572,-25.928c3.989,-8.64 5.982,-16.619 5.982,-25.259c0,-9.971 -2.658,-19.273 -7.975,-27.92c8.641,-1.324 15.288,-5.317 19.277,-10.633c2.658,-3.986 3.988,-7.978 3.988,-13.295l-1.996,-9.971l65.147,-3.325Zm25.258,-31.913c0,3.324 -0.665,5.985 -2.658,8.647c-1.996,3.324 -5.32,6.647 -9.972,9.971c-3.989,3.324 -9.305,5.317 -13.959,6.647l-39.886,3.324l-27.92,0c-1.328,0 -1.993,0 -2.659,0.663l-0.666,3.324c3.324,9.309 3.324,16.618 0,21.941c-3.986,5.979 -10.633,8.634 -19.277,9.302c-1.993,0 -2.659,0.669 -3.324,1.332c-0.665,1.992 0,3.323 0.666,3.985l6.647,14.626c3.989,11.302 3.324,23.266 -2.658,36.561c-5.32,11.964 -17.949,19.943 -37.892,23.267l-28.583,1.331c-1.331,-0.662 -1.996,0 -3.324,0.662c0,1.331 0,2.662 0,3.323l3.989,13.958c1.328,10.64 -1.997,18.618 -7.979,25.928c-9.306,11.302 -31.907,15.294 -67.806,12.633l2,-202.749l254.596,0l0.665,1.324Z" style="fill-rule:nonzero;"/><path d="M39.098,142.514l-1.997,0.662l-9.971,7.316c-7.975,5.316 -15.953,7.978 -22.601,6.647c-1.993,0 -2.658,1.331 -2.658,1.993c0,1.331 0.665,2.661 1.993,2.661c11.968,0 23.932,-4.654 35.234,-14.625c15.288,9.302 29.913,11.964 43.208,9.302c1.993,0 1.993,-0.663 1.993,-2.655c-0.666,-1.331 -1.993,-1.331 -2.659,-1.331l-12.63,0.662c-10.636,-1.323 -19.941,-4.647 -29.912,-10.632Z" style="fill-rule:nonzero;"/><g><path d="M151.438,84.018c-1.331,0 -1.993,1.331 -1.993,1.993c-0.666,7.31 -1.996,14.625 -6.647,21.273c-8.644,13.295 -23.266,19.942 -43.874,21.936c-18.614,1.331 -31.244,-1.324 -37.892,-7.972c-3.324,-3.992 -4.651,-9.309 -3.324,-15.957c0,-3.324 2.658,-6.647 5.982,-7.978c-5.982,-0.669 -9.305,1.993 -9.971,7.978c-1.328,7.31 0,13.295 3.989,18.612c7.313,7.978 21.273,11.302 41.215,9.302c21.936,-1.325 38.554,-9.971 47.198,-24.59c4.651,-7.979 7.309,-14.625 7.309,-22.604l-1.992,-1.993Z" style="fill-rule:nonzero;"/><path d="M80.975,93.989l-10.637,-2.655c-3.324,0.662 -5.982,1.986 -6.647,5.979c1.996,-1.331 3.989,-1.993 6.647,-1.993l8.644,1.993c1.993,0.668 3.989,1.993 4.651,3.992c0.666,2.655 -0.662,4.648 -2.659,7.31c-3.989,1.993 -6.647,1.993 -9.306,0c-0.666,-1.331 -1.993,-1.331 -2.659,0c-1.331,0.662 -1.331,1.993 0,2.662l5.982,2.655l7.313,-1.993c4.651,-2.662 6.647,-6.647 4.651,-11.302c-0.66,-3.324 -2.656,-5.318 -5.98,-6.648Z" style="fill-rule:nonzero;"/></g><path d="M56.382,109.938l-2.662,-0.662c-4.651,4.654 -9.971,7.979 -15.954,9.309c-11.964,3.324 -22.601,0.662 -31.907,-7.979c-1.331,-1.331 -1.996,-1.331 -2.658,0c-1.331,0.669 -1.331,1.331 0,1.993c10.634,10.633 22.601,13.295 35.896,9.309l17.284,-9.309c1.328,-0.661 1.328,-1.992 0.001,-2.661Z" style="fill-rule:nonzero;"/><g><path d="M112.22,8.24c-1.331,-0.668 -1.331,0 -1.331,1.324l-5.316,22.604c-4.655,15.288 -11.968,27.252 -21.938,35.23c-4.653,3.324 -10.635,6.648 -16.62,7.979c6.648,1.993 13.295,0 18.615,-4.655c11.298,-8.64 18.611,-21.273 24.594,-37.229c1.996,-7.972 3.988,-15.951 3.988,-23.267l-1.992,-1.986Z" style="fill-rule:nonzero;"/><path d="M7.188,60.083c-0.662,0.668 -0.662,1.999 0,2.662c7.979,11.301 19.281,17.949 33.237,19.28c7.313,1.324 13.961,0 19.281,-4.655l-18.616,1.331c-13.294,-2 -23.266,-7.979 -30.579,-17.949l-3.323,-0.669Z" style="fill-rule:nonzero;"/></g><path d="M75.659,44.801c-0.666,2.655 -3.324,4.648 -6.648,6.647l-11.302,2.655c-9.306,-0.668 -15.288,-4.655 -17.284,-11.964c-2.658,-6.648 -1.327,-14.626 4.655,-22.604l8.641,-9.971c0.666,-0.662 1.331,-1.993 0.666,-3.323c-1.328,-0.662 -1.993,-0.662 -3.324,0c-2.659,2.662 -6.648,5.985 -9.972,11.971c-5.317,8.634 -7.313,17.28 -5.317,25.252c3.324,8.647 10.637,13.964 21.936,13.964c4.654,0.668 9.306,0 13.295,-2.655c4.655,-2.662 6.647,-5.323 8.644,-8.647c1.328,-3.985 1.328,-7.309 -0.665,-10.633c-1.331,-2.661 -3.324,-4.654 -6.647,-5.985l-9.972,-0.663c-3.989,0.663 -6.647,3.324 -8.643,6.647c-0.662,1.324 0,2.662 0.666,3.324c1.331,0.662 2.658,0 2.658,-1.331c3.324,-5.317 7.313,-7.316 13.96,-4.654c1.996,1.331 3.324,2.661 4.655,4.654c1.325,1.994 1.325,4.655 -0.002,7.316Z" style="fill-rule:nonzero;"/><path d="M85.63,65.406l0,10.633c1.327,7.979 5.981,12.633 14.622,15.957c7.979,3.324 15.292,1.993 21.938,-3.986c3.324,-2.662 5.317,-5.985 6.647,-10.64c1.993,-4.654 1.993,-7.978 0.666,-11.964c-0.666,-2.661 -2.662,-4.654 -5.32,-6.647l-8.64,-1.331c-3.324,0.668 -6.647,1.993 -8.644,5.317c-2.659,2.661 -3.324,6.647 -2.659,11.301l1.996,1.993l1.328,-1.993c0,-3.324 1.331,-6.647 2.659,-8.64c1.996,-2.661 3.988,-3.324 5.985,-3.986l5.981,0.662l3.324,4.648c1.328,2.662 1.328,5.985 0,9.309l-6.647,9.309c-4.655,4.648 -10.636,5.317 -17.949,3.324c-6.647,-3.324 -9.971,-7.31 -11.964,-13.295l0,-7.978c0.666,-1.993 0,-2.655 -1.331,-3.324c-0.665,0 -1.992,0 -1.992,1.331Z" style="fill-rule:nonzero;"/><path d="M129.503,65.406c-0.666,-1.331 -1.996,-1.331 -2.662,-1.331c-1.328,1.331 -1.328,1.993 -1.328,3.324c4.651,7.316 11.964,9.971 21.936,7.978c1.331,0 1.996,0 1.331,-2c0,-1.324 -0.666,-1.324 -1.996,-1.324c-8.64,1.324 -14.622,-1.331 -17.281,-6.647Z" style="fill-rule:nonzero;"/><g><path d="M143.46,50.111c-1.327,-1.324 -1.993,-2.655 -1.327,-4.648c0,-2.662 2.658,-3.323 7.975,-3.323c-6.647,-2.662 -11.298,-2 -11.964,2.661c-0.666,3.324 0,5.979 1.993,7.972c2.661,3.324 6.647,4.655 11.301,4.655l1.993,-1.993l-1.993,-2.662c-3.323,1.331 -5.981,0 -7.978,-2.662Z" style="fill-rule:nonzero;"/><path d="M169.388,40.14c1.993,0 1.993,-0.662 1.993,-1.324c0.666,-2 0,-2.662 -1.331,-2.662c-5.317,-0.663 -9.972,0.662 -14.623,3.985l13.961,0l0,0.001Z" style="fill-rule:nonzero;"/></g><path d="M55.716,169.104c2.658,4.654 2.658,9.309 0.666,12.633c-1.996,3.324 -5.985,5.316 -12.633,5.316l-39.885,1.993c-1.328,0 -2.658,1.331 -2.658,2.662l2.658,1.993l39.885,-2.655c7.313,0 13.294,-2.662 15.957,-7.316c2.658,-5.317 2.658,-10.64 -0.666,-16.619c-1.331,-3.324 -5.32,-5.317 -11.302,-5.317c-6.647,0 -11.964,2.662 -13.295,7.31c-0.666,3.324 0,5.985 1.996,9.309c1.328,0.662 1.328,0.662 2.659,0c1.327,-1.331 1.327,-2 0,-3.324c-1.331,-1.331 -1.997,-3.324 -1.331,-3.986c1.331,-3.324 4.655,-5.323 9.971,-5.323c4.655,0 6.648,1.33 7.978,3.324Z" style="fill-rule:nonzero;"/><path d="M311.643,58.758c-3.989,7.31 -3.989,13.957 1.993,19.942c4.654,6.647 16.619,9.971 33.237,9.971l23.932,-1.331l0,-83.76l-90.406,0c-0.665,3.323 -0.665,6.647 -0.665,10.639c0.665,7.979 3.989,15.289 9.972,21.273c5.319,5.316 11.967,9.309 19.941,11.295l9.972,2l-7.976,9.971Z" style="fill:#d96038;fill-rule:nonzero;"/><path d="M372.797,0.924l-1.992,-0.668l-90.406,0c-1.993,0 -3.323,1.337 -3.323,2.662l-0.666,7.309c0,11.309 3.324,19.943 10.637,27.259c7.313,7.978 16.618,11.964 25.924,13.295c-4.651,4.654 -6.647,9.971 -7.31,15.95l0,2c0,4.648 1.993,8.64 5.317,12.633c9.306,10.633 29.248,13.957 59.827,9.303c1.992,0 3.323,-1.331 3.323,-3.324l0,-83.763l-1.331,-2.656Zm-89.739,9.972l0,-3.993l84.423,0l0,77.115l-27.255,1.331c-12.63,-1.331 -20.607,-3.986 -23.932,-7.979c-2.658,-3.324 -3.986,-6.647 -3.986,-8.64l0,-1.331c0.662,-3.993 1.993,-7.979 5.317,-11.302l3.989,-4.648l1.327,-2.662l0,-1.331c-0.662,-1.331 -1.993,-1.993 -3.323,-1.993l-9.307,-2c-7.313,-1.986 -13.294,-5.979 -18.61,-10.633c-5.982,-5.984 -8.643,-13.294 -8.643,-21.934Z" style="fill-rule:nonzero;"/><path d="M341.557,57.428c1.993,3.324 0.665,7.316 -3.324,10.64c-1.996,2.655 -4.654,3.986 -8.644,1.986c-2.658,-1.324 -3.323,-2.655 -3.323,-4.648c1.33,-2.661 2.661,-3.324 5.319,-2.661l2.659,-1.993l-1.331,-1.993l-5.982,0.662c-2.658,1.331 -3.989,2.662 -4.651,4.655c-1.331,4.654 1.327,7.979 5.316,9.971c5.317,1.331 9.972,0.669 13.961,-3.324c4.651,-4.654 5.982,-9.971 3.324,-15.288c-1.997,-5.985 -10.637,-8.647 -25.263,-8.647c-1.328,0 -1.993,0.668 -1.993,2c0,1.324 0.665,1.993 1.993,1.993c13.295,-0.001 20.608,1.992 21.939,6.647Z" style="fill-rule:nonzero;"/><path d="M175.37,278.124l-36.561,-1.331l-23.266,6.647l189.452,196.101c14.623,-3.324 23.932,-7.316 29.249,-12.627c6.647,-6.647 11.302,-17.956 13.96,-35.236c3.324,-15.956 -3.989,-35.23 -20.608,-57.165c-13.96,-18.618 -27.254,-30.576 -39.219,-34.568c-13.295,-4.655 -50.521,-25.259 -113.007,-61.821Z" style="fill:#fcce00;fill-rule:nonzero;"/><path d="M225.227,451.62c-1.996,4.654 -2.659,9.309 -1.996,14.626l14.626,9.303c9.97,7.316 15.952,11.971 18.61,15.293l10.637,15.288l7.313,13.964l-3.989,5.311c-3.324,3.992 -5.317,7.316 -5.317,9.972l7.976,1.999l13.96,1.323c4.655,-10.632 7.313,-19.941 6.648,-28.576c-0.666,-10.64 -3.989,-23.265 -9.972,-37.229c-9.306,-19.274 -19.942,-29.914 -32.572,-31.907c-13.295,-2 -21.273,1.324 -25.924,10.633Z" style="fill:#fcce00;fill-rule:nonzero;"/><path d="M227.885,442.311c-5.982,4.661 -7.979,12.633 -7.979,21.942l0,1.993l1.331,2.655c18.611,11.309 29.247,19.941 32.571,23.934c7.979,10.64 13.96,19.274 16.619,26.591c-5.317,5.979 -7.976,11.302 -8.641,14.625l0,1.325c0,1.337 0.665,1.999 1.993,2.661c9.306,3.985 17.284,5.323 23.932,3.324l1.993,-1.325c5.319,-11.308 7.978,-21.279 7.313,-29.914c0,-11.308 -3.989,-24.604 -10.637,-39.222c-9.306,-19.942 -21.271,-30.576 -35.23,-33.238c-9.97,-1.33 -17.283,-0.661 -23.265,4.649Zm4.654,4.661c4.651,-3.324 10.633,-3.992 17.945,-2.661c11.968,1.992 21.939,11.964 30.58,29.914c5.316,13.295 8.641,25.258 9.306,35.897l0,1.987c0,4.661 -1.993,12.633 -5.982,23.267l-14.626,-2.655l7.313,-10.64l0.665,-1.987l-0.665,-1.337l-7.313,-14.619l-11.299,-15.295c-2.658,-3.985 -13.294,-12.626 -31.909,-24.59c0,-7.979 1.331,-13.295 5.985,-17.281Z" style="fill-rule:nonzero;"/><path d="M132.162,464.915c-3.324,-8.641 -6.647,-14.619 -9.971,-18.612l8.641,-27.258l-15.953,-15.95l-27.255,9.972c-6.647,1.331 -8.64,6.647 -5.316,15.949c1.328,4.662 9.971,16.619 25.259,33.238l-0.665,4.66c0,3.324 0.665,5.979 1.996,8.635c9.969,-3.324 17.944,-6.648 23.264,-10.634Z" style="fill:#fcce00;fill-rule:nonzero;"/><path d="M117.536,401.102l-3.989,-0.662l-26.59,9.303c-3.323,0.669 -5.982,1.993 -7.975,4.655c-0.666,1.992 -1.331,4.647 -1.331,7.31l1.331,7.979c1.328,4.653 9.971,15.949 25.259,33.236l-0.666,4.654c0,3.986 0.666,7.311 3.324,9.972c0.665,1.324 1.996,1.993 3.324,1.324c10.636,-3.323 18.614,-7.31 23.931,-11.296l1.331,-2.661l0,-1.324c-3.324,-7.316 -5.982,-13.295 -9.306,-17.288l7.975,-26.589l0,-0.669l-0.666,-2.655l-15.952,-15.289Zm1.331,44.533l0,0.668l1.328,2.655c2.662,3.324 5.32,7.985 7.313,13.964c-3.989,3.324 -9.971,5.979 -16.619,7.979l-0.665,-3.324l0.665,-4.654l0,-0.668l-0.665,-2.655c-15.288,-16.619 -23.267,-27.259 -24.594,-31.906l-1.331,-5.985l0.665,-3.986c0.666,-0.662 1.993,-1.331 2.658,-1.331c6.647,-0.668 15.291,-3.992 26.589,-9.303l13.295,12.627l-8.639,25.919Z" style="fill-rule:nonzero;"/><path d="M73,256.851c-5.32,5.317 -9.309,11.302 -11.967,18.611c-3.324,6.648 -3.324,12.632 -2.659,17.281c0.666,5.324 3.989,9.972 9.306,11.971c1.331,11.964 5.982,24.591 12.63,37.886c1.996,19.28 8.643,37.229 19.28,53.848c5.982,8.641 11.299,15.288 15.954,19.942l-15.292,13.964l-7.975,9.971c-3.989,5.311 -6.647,8.634 -6.647,11.296l-6.647,33.237c-1.331,5.984 -1.996,11.97 -2.659,18.617l23.928,-4.66c1.996,-2.655 1.996,-5.979 0.666,-10.634l-2.658,-7.309c1.993,-2 3.989,-7.979 5.316,-17.281l0.666,-11.971c9.306,-2.662 19.277,-8.641 31.245,-17.942c19.942,15.949 43.208,25.921 69.132,29.913l43.208,3.985c5.982,1.325 11.965,5.985 19.277,15.289c4.654,6.646 8.644,12.625 10.637,17.948c1.993,4.648 9.306,12.633 21.273,24.591c-2.661,5.323 -5.319,11.309 -7.313,19.941l25.258,1.339l-1.327,-19.943c-1.331,-9.309 -3.989,-16.619 -7.313,-21.279c-1.33,-2.655 -1.996,-7.973 -0.665,-15.281l3.324,-10.64c8.641,-17.287 13.96,-31.245 16.618,-41.879c1.993,-10.632 1.331,-23.928 -1.33,-38.56c-2.659,-15.95 -14.623,-29.914 -35.23,-42.539c-5.981,-3.324 -21.936,-10.641 -47.863,-21.937l-35.229,-19.28c-14.626,-9.308 -27.921,-15.955 -39.219,-19.279l-35.234,-9.303l-24.593,-5.316c-6.648,-2 -14.626,-6.648 -23.932,-13.958l-11.966,-10.639Z" style="fill:#fcce00;fill-rule:nonzero;"/><path d="M55.051,293.412c0.666,5.979 3.989,9.972 9.306,13.295c1.331,7.316 3.989,15.287 7.313,23.935l5.982,12.626c1.331,16.619 6.648,33.237 14.625,47.863c5.317,9.971 11.964,17.943 18.612,24.591l-13.295,12.632l-3.324,3.986c-7.313,7.984 -11.298,13.963 -11.964,18.618l-6.647,33.237c-1.331,5.985 -1.996,11.964 -2.659,18.611l0,0.668l1.328,1.987c0,0.668 1.331,1.337 2.659,1.337l23.931,-4.661l1.996,-1.324l1.993,-7.309l-2.659,-12.633c2.659,-5.323 4.652,-14.626 5.317,-27.253c7.979,-2.661 17.949,-7.316 27.921,-15.294c17.284,12.633 35.896,21.273 56.502,26.59l43.209,5.323l11.964,0.662c4.654,1.324 10.637,5.316 17.284,13.295c4.654,6.646 8.641,12.632 9.972,17.942c2.658,4.661 9.306,12.633 20.607,24.604l-4.654,11.296l-1.993,6.646l0,0.662c0,1.339 0.666,2.001 1.993,3.324l17.948,1.999l9.307,-0.661l2.658,-3.992l-1.328,-19.274l-1.33,-9.971c-1.331,-5.323 -3.324,-9.972 -6.647,-13.296c-0.666,-1.337 -1.331,-4.66 0,-9.97l3.323,-12.633c8.641,-17.95 13.961,-31.914 16.619,-43.21c1.993,-11.301 1.331,-23.928 -1.331,-39.222c-2.658,-15.288 -13.295,-28.582 -31.24,-40.547c-9.972,-6.647 -24.598,-14.626 -45.205,-22.604l-8.64,-3.324c-7.979,-3.324 -17.95,-8.641 -29.249,-15.957c-17.949,-11.957 -33.238,-19.273 -45.204,-23.266c-11.964,-3.985 -25.925,-7.972 -42.543,-10.633l-17.946,-3.986c-5.985,-1.331 -13.96,-6.647 -22.604,-13.294l-11.298,-9.972c-1.996,-1.999 -3.324,-1.999 -5.32,0c-4.651,4.648 -7.975,9.972 -11.298,16.619c-3.324,5.986 -4.654,11.963 -4.654,17.281l0.663,4.657Zm5.982,-1.993l0,-2.661c0,-8.641 4.654,-17.943 11.967,-27.252c12.63,12.633 24.594,19.943 34.565,23.266l19.277,3.986c15.292,2.661 29.251,5.985 41.216,10.634c11.963,3.323 25.924,10.64 43.208,21.94l30.579,16.619l8.64,3.323c19.943,7.973 33.903,15.289 43.21,21.268c17.283,10.639 26.589,23.934 29.247,37.229l1.996,22.598c0,7.984 -0.665,16.618 -3.989,24.603l-13.295,31.9c-2.658,6.646 -3.989,13.295 -3.989,19.28c0,3.985 0.666,7.31 2.658,9.309c1.996,3.986 4.655,9.972 5.985,19.942l0.662,15.957l-17.279,-0.669l5.981,-15.288l0.666,-1.999l-1.331,-1.986c-11.302,-11.309 -17.949,-19.28 -19.942,-23.936l-10.637,-18.61c-7.976,-9.972 -15.288,-15.295 -22.602,-16.619l-12.629,-0.662l-41.881,-5.323c-20.604,-5.316 -38.554,-13.957 -55.172,-26.59l-3.989,-0.662c-11.964,9.309 -21.935,15.287 -30.579,17.942c-1.328,0 -2.658,0.669 -2.658,2.662c-0.666,14.626 -2.658,24.597 -5.317,27.921l-0.665,1.331l0.665,1.993l2.659,10.64l-0.666,2.654l-17.284,3.323l8.643,-47.2c0,-2.655 3.324,-7.972 9.971,-15.95l3.989,-3.992l14.623,-13.957l1.331,-1.993l-1.331,-3.323c-4.651,-3.992 -9.971,-9.972 -15.288,-18.612c-10.637,-16.618 -16.618,-33.898 -18.614,-52.517l0,-1.325c-6.647,-12.633 -11.299,-24.604 -12.63,-36.561l-1.993,-1.999c-3.989,-1.993 -6.648,-5.318 -7.978,-10.634Z" style="fill-rule:nonzero;"/><path d="M128.838,424.368l-3.989,0.662c-1.331,1.331 -1.331,2.662 0.665,3.985l8.641,7.316l3.989,-0.669c0.666,-1.324 0.666,-2.655 -0.666,-3.323l-8.64,-7.971Z" style="fill-rule:nonzero;"/><path d="M247.161,444.311c0.665,-3.986 2.658,-6.648 4.654,-9.972l3.989,-3.323c1.993,-0.662 1.993,-2 1.327,-3.985c-1.992,-0.669 -2.658,-1.338 -3.988,-0.669l-4.651,4.654c-3.323,3.323 -5.32,7.972 -6.647,11.964c-1.33,6.647 -0.665,13.295 2.659,19.942l6.646,9.303l3.989,-0.662c1.327,-1.324 1.327,-1.993 -0.666,-3.986l-4.654,-6.647c-3.324,-5.324 -4.65,-11.303 -2.658,-16.619Z" style="fill-rule:nonzero;"/><path d="M67.015,302.715c-1.993,0.669 -2.658,1.337 -1.993,3.324c0.665,1.337 1.993,1.999 3.324,1.337c5.982,-1.337 9.306,-7.984 12.629,-19.281c1.331,-7.309 1.331,-14.625 -0.665,-21.272c-1.328,-5.317 -2.659,-8.641 -3.324,-9.303c-1.328,-1.999 -1.993,-1.999 -3.324,-0.668c-1.993,0.668 -2.659,1.331 -1.328,3.324l3.324,7.979c1.328,6.647 1.328,12.633 0,18.611c-2.658,8.639 -5.32,13.962 -8.643,15.949Z" style="fill-rule:nonzero;"/><path d="M80.31,282.11l-2.659,0c-1.328,1.33 -1.328,1.999 -0.665,2.661l6.647,6.647c5.319,5.316 10.636,8.641 15.291,9.972c1.328,0.662 1.993,0 2.659,-1.331c0.665,-0.668 0,-1.992 -1.331,-1.992l-13.957,-9.31l-5.985,-6.647Z" style="fill-rule:nonzero;"/><path d="M75.659,296.067l-1.996,-0.662c-1.328,1.33 -1.993,1.999 -1.328,2.662l5.316,8.64l11.302,12.626l3.324,-0.662l-0.666,-2.662l-10.636,-12.625l-5.316,-7.317Z" style="fill-rule:nonzero;"/><path d="M151.438,306.039l-19.277,-2.655c-1.996,0 -2.658,1.33 -2.658,3.323c0.662,1.331 1.328,2.654 2.658,1.993l17.946,1.999c11.302,3.324 19.943,11.957 24.597,23.928c0,1.993 1.993,1.993 3.324,1.993c1.993,-0.668 1.993,-2.655 1.331,-3.992c-4.654,-13.295 -14.625,-22.597 -27.921,-26.589Z" style="fill-rule:nonzero;"/><path d="M162.075,320.001c0.666,-2.654 0,-3.992 -0.665,-5.978c-0.666,-1.338 -2.659,-2.661 -4.655,-3.324l-5.317,0.663c-1.331,1.323 -3.324,2.661 -3.324,5.315l0.666,4.654c1.328,1.993 2.658,3.324 4.651,3.324l5.32,-0.662l3.324,-3.992Z" style="fill-rule:nonzero;"/><path d="M128.838,313.354c0,-1.33 -1.331,-1.992 -2.658,-1.992c-1.996,0 -1.996,1.323 -1.996,2.661l5.982,13.956c6.647,9.31 17.284,15.957 31.91,20.605l3.324,-1.993c1.328,-1.993 0,-3.324 -1.331,-3.324c-13.96,-3.323 -23.266,-9.971 -29.914,-17.287c-3.324,-5.309 -5.317,-9.302 -5.317,-12.626Z" style="fill-rule:nonzero;"/><path d="M82.306,340.612l-3.324,-0.668c-1.331,1.33 -1.331,2.655 -0.666,3.992c2.658,3.986 7.313,9.972 14.625,15.95c11.299,9.972 23.267,14.626 35.23,14.626l1.993,-0.662l0.666,-2c0,-1.992 -1.328,-2.662 -3.324,-2.662c-9.971,0.67 -20.607,-4.647 -31.907,-13.294l-13.293,-15.282Z" style="fill-rule:nonzero;"/><path d="M115.543,369.858l11.964,1.992l-5.317,-20.604c-4.654,-13.295 -7.313,-18.618 -8.644,-17.949c-4.651,2.655 -5.982,9.303 -5.982,19.273l2.659,15.295l5.32,1.993Z" style="fill:#fff;fill-rule:nonzero;"/><path d="M114.878,330.642l-3.324,0c-7.313,4.648 -8.641,17.281 -3.989,37.886l1.331,1.331l5.982,3.322l13.295,1.332c0.665,0 1.993,-0.662 1.993,-1.332l0.666,-1.992c-7.314,-25.266 -11.965,-38.561 -15.954,-40.547Zm-2.658,35.892l-1.331,-16.619c0,-5.979 0.666,-9.971 2.658,-12.626c2.662,5.311 6.647,15.95 10.637,31.899l-11.964,-2.654Z" style="fill-rule:nonzero;"/><path d="M100.917,480.21c-0.666,-1.338 -1.993,-2.662 -3.324,-1.338l-12.629,3.323l-5.982,0c-1.331,0 -1.996,0.67 -1.996,2.662c0,1.331 0.665,2.662 1.996,2.662l6.647,-0.662l13.294,-3.324c1.994,-0.668 2.66,-1.338 1.994,-3.323Z" style="fill-rule:nonzero;"/><path d="M300.342,523.418c-1.993,-1.337 -2.659,0 -3.989,1.324c0,1.999 0,2.661 1.33,3.324l5.316,1.33l12.633,0.669c1.993,-0.669 2.658,-1.337 2.658,-3.324c-0.665,-1.999 -1.331,-2.661 -3.323,-2.661l-10.637,0l-3.988,-0.662Z" style="fill-rule:nonzero;"/><path d="M168.723,275.462c0,-1.993 -0.666,-1.993 -1.997,-1.993l-22.601,6.648l-10.636,4.654c-1.328,0.662 -1.328,1.993 -0.662,3.323c0.662,0.663 1.328,0.663 2.659,0.663c0,-0.663 3.324,-1.993 9.971,-4.648c7.975,-2.661 15.288,-5.323 21.935,-5.985l1.331,-2.662Z" style="fill-rule:nonzero;"/><path d="M172.712,288.758l-10.637,3.323c-0.665,0.662 -0.665,1.331 -0.665,2.662c0,1.992 1.331,1.992 2.658,1.324l9.971,-3.324l19.277,-1.986l1.996,-1.999l-1.996,-1.993l-20.604,1.993Z" style="fill-rule:nonzero;"/><path d="M200.629,300.06c-5.982,0.668 -9.972,1.331 -11.963,2.655c-0.667,0.669 -1.332,0.669 -0.667,1.999c0,1.993 0.667,1.993 1.993,1.993l11.302,-3.323c8.641,-1.331 15.954,-1.331 22.602,0l2.658,-1.993c0,-1.331 -1.327,-1.999 -1.993,-1.999c-6.648,-1.325 -14.626,-1.325 -23.932,0.668Z" style="fill-rule:nonzero;"/><path d="M223.23,312.686l-15.288,0.669c-1.331,0 -1.993,0.669 -1.993,1.992c0,1.331 0.662,2 1.993,1.331l13.96,0l22.602,0.669l2.657,-1.338c0,-1.323 0,-2.654 -1.992,-2.654l-21.939,-0.669Z" style="fill-rule:nonzero;"/><path d="M250.484,329.305l-15.287,0c-1.33,0 -1.996,0.668 -1.996,1.999l1.996,1.993l15.287,0l25.263,1.33l1.993,-1.33c0.665,-1.331 0,-1.993 -0.665,-1.993l-26.591,-1.999Z" style="fill-rule:nonzero;"/><path d="M283.723,345.261l-9.972,1.331c-1.327,0 -1.993,0 -1.327,1.993c0,1.33 0.662,1.33 1.993,1.33l9.306,-0.668l19.276,1.999c1.331,0.662 1.996,0 1.996,-1.331c0.665,-0.668 0,-1.992 -0.665,-2.655l-20.607,-1.999Z" style="fill-rule:nonzero;"/><path d="M295.024,357.231c-0.665,0 -1.33,0 -1.996,1.987c0,0.668 0.666,1.999 1.331,1.999l11.963,2.661c7.313,1.987 13.296,3.986 16.619,5.979c1.331,0.668 1.996,0.668 2.662,0c1.327,-1.331 0.662,-1.993 -0.666,-3.324c-3.989,-1.993 -9.971,-3.992 -17.284,-6.647l-12.629,-2.655Z" style="fill-rule:nonzero;"/><path d="M318.29,377.836c-0.665,-0.662 -1.996,0 -2.658,1.324c-0.665,0.668 0,1.999 1.327,1.999l7.313,4.648l13.295,9.972c0.665,0.668 1.993,0.668 3.324,0c0.665,-1.325 0.665,-2.655 0,-3.324c-3.324,-3.324 -7.979,-6.647 -13.961,-9.972l-8.64,-4.647Z" style="fill-rule:nonzero;"/><path d="M327.596,402.427c-0.665,-1.325 -1.33,-0.662 -2.658,0.668c-0.665,0.669 0,1.993 1.328,2.655c10.637,6.647 16.618,11.971 18.615,15.957l3.323,0.662l0.665,-2.655l-11.302,-10.64l-9.971,-6.647Z" style="fill-rule:nonzero;"/><path d="M329.589,423.706l-2.658,0.662c-0.665,1.324 -0.665,1.993 0.665,2.662l5.982,5.31c3.989,3.992 7.313,8.646 9.306,13.295c0.666,0.668 1.331,1.337 1.997,0.668c1.992,0 1.992,-1.33 1.327,-2.655c-1.993,-3.992 -5.316,-9.309 -9.306,-13.962l-7.313,-5.98Z" style="fill-rule:nonzero;"/><path d="M329.589,441.648c0,-1.993 -1.327,-1.993 -2.658,-1.324c-1.327,0.662 -1.993,1.986 -0.665,2.655c4.654,10.64 7.313,17.949 7.313,20.611c0,1.986 0.666,2.655 1.331,2.655l2.658,-1.993c0,-2.662 -1.331,-7.31 -3.323,-13.295l-4.656,-9.309Z" style="fill-rule:nonzero;"/><path d="M203.287,323.325l-2.658,0.669c-0.665,0.662 -0.665,1.986 0,2.655l5.982,4.654l11.302,6.647c0.666,1.324 1.993,1.324 2.658,-0.662l-1.327,-2.662l-10.637,-6.647l-5.32,-4.654Z" style="fill-rule:nonzero;"/><path d="M201.96,337.951l-2.658,0.662c-0.666,1.331 -0.666,1.331 0.662,2.661c6.647,5.317 11.302,8.641 13.96,8.641c0.666,0 1.331,0 1.996,-1.992l-1.33,-2c-2.659,0 -6.648,-2.655 -12.63,-7.972Z" style="fill-rule:nonzero;"/><path d="M197.306,350.584c-1.328,-0.669 -2.659,0 -2.659,0.662c0,1.993 0,2.662 0.666,2.662c1.993,0 4.651,1.986 8.641,5.979l2.658,-0.668c1.331,-0.663 1.331,-1.987 0,-2.655c-4.652,-3.994 -7.31,-5.98 -9.306,-5.98Z" style="fill-rule:nonzero;"/><path d="M190.657,363.211c-1.326,-0.669 -2.658,-0.669 -2.658,0.668c-0.665,1.324 0,2.655 0.667,2.655l8.64,3.992c0.665,0 1.996,0 2.658,-0.668l-1.328,-3.324l-7.979,-3.323Z" style="fill-rule:nonzero;"/><path d="M237.856,343.268c-0.666,-0.668 -1.993,-0.668 -2.659,0.669c-0.665,1.324 -0.665,2.655 1.328,2.655l6.646,3.992c4.654,2.655 7.979,3.986 11.302,5.311c1.331,0.669 2.658,0 2.658,-1.324c0.666,-1.331 0,-2 -1.327,-2.662l-11.301,-5.316l-6.647,-3.325Z" style="fill-rule:nonzero;"/><path d="M238.521,357.231l-1.996,0c-1.328,1.324 -1.328,1.987 0,2.655l5.319,3.992l6.647,3.986l2.658,-1.331l-1.331,-2.655l-11.297,-6.647Z" style="fill-rule:nonzero;"/><path d="M231.874,368.527c-0.666,-0.662 -1.331,0 -1.996,1.331c-1.328,0.668 -0.662,1.992 1.33,2.654l9.972,5.985l2.658,0c0.666,-1.324 0.666,-1.993 0,-2.662l-7.313,-5.31l-4.651,-1.998Z" style="fill-rule:nonzero;"/><path d="M229.878,379.828c-1.328,-0.668 -1.993,-0.668 -2.658,0.669c-1.328,1.324 -0.666,2.655 0.665,2.655l5.982,3.992c1.33,0.662 2.658,0.662 2.658,-0.669c0.665,-0.668 0.665,-1.992 -0.662,-2.654l-5.985,-3.993Z" style="fill-rule:nonzero;"/><path d="M274.417,360.556c-0.666,-0.669 -1.331,0 -1.993,0.662c-0.666,1.993 0,2.661 1.327,2.661c7.313,2.655 12.63,6.647 15.292,10.634l2.658,0.661c1.327,-0.661 1.993,-1.323 0.665,-2.661c-3.323,-5.31 -9.308,-9.302 -17.949,-11.957Z" style="fill-rule:nonzero;"/><path d="M274.417,373.181c-1.993,0 -2.659,0 -3.324,1.332c0,1.323 0,1.992 1.331,1.992c5.316,1.993 9.306,4.654 12.63,7.979c1.327,1.324 1.992,1.324 2.658,0c0.665,-1.331 0.665,-2 0,-3.324c-3.324,-3.324 -7.979,-5.986 -13.295,-7.979Z" style="fill-rule:nonzero;"/><path d="M269.762,385.808l-3.323,0c-1.328,0.668 -0.662,1.337 0.665,2.661l3.324,2.662l7.313,4.648c1.331,0.668 2.658,0.668 2.658,-1.325l-0.665,-2.661c-2.658,-1.324 -5.316,-1.993 -7.31,-3.986l-2.662,-1.999Z" style="fill-rule:nonzero;"/><path d="M263.114,397.778c-1.327,0 -1.993,0 -2.658,1.324c-0.665,1.337 -0.665,1.999 0.665,2.662l8.641,3.985c1.331,0.669 1.996,0 1.996,-1.324l-0.665,-1.999l-7.979,-4.648Z" style="fill-rule:nonzero;"/><path d="M306.988,384.483c-0.666,-0.662 -1.993,-0.662 -2.658,0c-0.666,1.324 -0.666,1.992 0,3.323l3.988,5.317l7.976,9.971c0,1.331 1.331,1.993 1.996,0.669c1.993,0 1.993,-0.669 1.328,-2.662l-7.976,-11.302l-4.654,-5.316Z" style="fill-rule:nonzero;"/><path d="M301.007,403.095c-1.331,0 -2.658,0 -3.324,0.669c-0.665,1.324 0,1.986 0.666,2.655l3.323,2.655l5.981,5.323c0,1.324 0.665,1.992 2.658,0.662c0.666,-0.662 0.666,-1.993 0.666,-2.662l-6.647,-6.647l-3.323,-2.655Z" style="fill-rule:nonzero;"/><path d="M294.359,416.39c-0.665,0 -1.331,0 -2.658,0.669c0,1.986 0,2.655 1.327,2.655l7.979,4.654c1.331,0 2.657,0 2.657,-1.33c0.666,-0.669 0.666,-1.993 -0.665,-2.655l-8.64,-3.993Z" style="fill-rule:nonzero;"/><path d="M353.521,297.404c-20.607,-27.927 -45.202,-49.194 -72.456,-65.15c-27.256,-15.288 -57.834,-26.59 -91.072,-33.237l-41.877,-5.317c-1.331,0 -2.658,1.331 -2.658,2.655c0,2 1.327,2.662 2.658,2.662l40.551,5.323c32.571,5.979 62.484,17.281 89.739,32.569c26.59,14.625 50.521,36.561 71.127,63.151c9.97,13.964 16.617,26.59 21.272,37.229c1.33,1.986 1.992,2.655 3.988,1.324c1.328,-0.662 2.659,-1.993 1.328,-3.323c-5.316,-11.296 -11.965,-23.928 -22.6,-37.886Z" style="fill-rule:nonzero;"/><path d="M114.878,200.348c0.666,3.992 1.993,6.647 3.323,7.316l13.96,1.324c5.982,-0.662 11.299,-2.662 15.953,-6.647l3.989,-5.985l-5.32,-4.648c-5.316,-3.324 -10.633,-3.985 -16.619,-3.324c-7.31,0.662 -11.299,1.993 -13.295,4.648c-1.991,1.999 -2.657,3.992 -1.991,7.316Z" style="fill:#d96038;fill-rule:nonzero;"/><path d="M116.209,208.988c2.658,2.662 7.975,3.323 15.953,2.662c7.313,-0.662 12.629,-3.324 17.946,-7.31l4.654,-6.647l0,-2.662c-1.331,-2.661 -3.324,-3.985 -6.647,-5.985c-5.981,-3.324 -11.302,-3.985 -18.611,-3.324c-7.313,1.331 -11.967,2.662 -15.292,5.324c-1.992,2.655 -1.992,5.31 -1.992,9.302c0,4.654 1.992,7.316 3.989,8.64Zm1.327,-10.633c0,-3.986 3.989,-6.648 12.629,-7.31c7.313,-0.669 13.96,0.662 18.615,5.979c-2.658,5.317 -8.643,8.641 -16.619,9.971l-12.629,-1.993l-1.996,-4.655l0,-1.992Z" style="fill-rule:nonzero;"/><path d="M175.37,182.398l-3.989,0.662c-0.666,2 -0.666,2.661 0.666,3.992l19.941,15.288l3.324,-0.662c1.327,-0.663 1.327,-2 0,-3.324l-19.942,-15.956Z" style="fill-rule:nonzero;"/><path d="M151.438,156.471c-2.658,0 -4.654,1.337 -6.647,3.992c-2.658,3.324 -3.323,5.317 -3.323,7.979c0.666,2.661 3.323,6.647 9.306,10.633c4.654,3.986 9.971,5.985 15.953,5.985l7.313,0l-0.665,-7.979c-1.993,-5.316 -4.651,-9.971 -9.306,-14.625c-5.983,-3.986 -9.972,-6.648 -12.631,-5.985Z" style="fill:#d96038;fill-rule:nonzero;"/><path d="M165.399,160.463c-5.32,-4.655 -10.637,-6.647 -13.96,-6.647c-3.323,0 -6.647,1.331 -9.305,5.316c-2.659,3.324 -3.989,6.647 -3.324,9.309c1.328,3.986 4.651,7.972 9.971,13.295c5.317,3.985 11.299,6.647 17.946,6.647l7.978,-1.331l1.993,-1.993c1.33,-9.308 -2.659,-17.28 -11.299,-24.596Zm-20.608,6.647c0,-1.993 0,-3.324 1.993,-4.654c1.331,-1.993 3.324,-3.324 4.654,-3.324c2.659,0 5.982,2 10.637,5.985c5.982,3.986 8.641,9.972 9.306,17.281c-6.647,1.331 -13.295,-0.662 -19.277,-5.317c-4.654,-4.654 -7.313,-7.977 -7.313,-9.971Z" style="fill-rule:nonzero;"/><path d="M217.913,187.722l-3.323,-0.669c-1.331,1.331 -1.331,2.655 0,3.993l19.942,25.921l3.989,0c1.327,-1.331 1.327,-2.655 0,-3.323l-20.608,-25.922Z" style="fill-rule:nonzero;"/><path d="M199.964,157.139c-1.993,0 -4.651,0 -7.311,2.655c-2.661,1.999 -4.654,3.992 -4.654,6.647c0,2.662 1.993,7.316 6.647,12.633c3.324,4.655 8.641,7.978 13.961,9.309l7.975,0.662l0.666,-7.309c0,-5.323 -2.658,-11.302 -5.982,-15.957c-4.655,-5.316 -7.979,-8.64 -11.302,-8.64Z" style="fill:#d96038;fill-rule:nonzero;"/><path d="M200.629,154.484c-2.658,-0.668 -5.982,0.662 -9.306,3.324c-3.989,2.655 -5.982,5.979 -5.982,8.634c0,3.992 2.658,8.647 6.647,13.964c4.651,5.316 9.306,9.302 15.954,11.301l8.64,0l1.997,-1.331c2.658,-8.64 1.327,-17.949 -5.32,-26.59c-4.652,-5.316 -8.641,-8.64 -12.63,-9.302Zm-5.983,7.309l5.317,-1.999c1.996,0.668 4.654,2.662 8.644,7.316c3.989,5.317 5.982,10.64 5.982,15.288l-0.666,4.654c-6.647,0 -12.63,-3.323 -17.284,-9.971c-3.323,-4.654 -5.316,-7.978 -5.316,-9.971c0,-1.993 0.665,-3.323 3.323,-5.317Z" style="fill-rule:nonzero;"/><path d="M272.424,232.254c1.993,-0.662 1.993,-1.993 1.327,-3.986l-12.63,-21.942c0,-1.324 -1.33,-1.986 -3.323,-1.324c-1.331,0.662 -1.993,1.993 -0.666,3.986l11.303,22.604c1.327,1.325 2.658,1.993 3.989,0.662Z" style="fill-rule:nonzero;"/><path d="M261.121,200.348c1.331,-5.317 0,-11.302 -2.658,-16.618c-3.323,-6.648 -6.647,-9.972 -9.306,-11.302c-1.996,-0.662 -4.653,0 -7.978,1.331c-2.658,1.993 -4.654,3.324 -4.654,5.979c-1.328,2.662 0.665,7.316 3.323,13.964c4.655,8.641 11.302,13.295 19.28,13.964l1.993,-7.318Z" style="fill:#d96038;fill-rule:nonzero;"/><path d="M261.121,182.398c-3.323,-6.647 -6.647,-10.633 -10.637,-11.964c-2.658,-1.331 -5.98,-0.668 -9.97,1.331c-3.989,1.993 -5.982,4.648 -6.647,7.31c-0.666,3.986 0.665,9.309 3.989,15.956c2.658,5.985 7.313,9.972 13.294,13.295l7.313,1.993l2.658,-1.331c5.317,-7.972 4.655,-17.281 0,-26.59Zm-19.276,9.972c-1.996,-4.648 -3.323,-8.64 -3.323,-10.633c0,-2 1.327,-3.324 4.65,-5.323l5.32,-1.324c2.658,1.324 4.651,3.986 7.975,9.971l2.662,11.964l-1.331,7.979c-6.648,-1.333 -11.964,-5.987 -15.953,-12.634Z" style="fill-rule:nonzero;"/><path d="M202.625,202.341c-0.665,-1.325 -1.996,-1.993 -3.989,-0.662l-21.938,10.633c-1.993,1.332 -1.993,2.662 -1.328,3.986c1.328,1.337 1.993,1.999 3.324,0.668l22.6,-10.64c1.993,-1.324 2.659,-1.986 1.331,-3.985Z" style="fill-rule:nonzero;"/><path d="M142.133,223.614c-0.666,1.331 -0.666,4.654 1.327,7.316c1.331,3.324 3.324,5.31 5.32,5.979c2.658,1.331 7.313,0 13.295,-3.324c5.982,-2.655 9.972,-6.647 12.629,-11.964l3.324,-6.647l-7.313,-2.662c-5.982,-0.662 -11.964,-0.662 -17.284,2.662c-5.981,2.661 -9.971,5.316 -11.298,8.64Z" style="fill:#d96038;fill-rule:nonzero;"/><path d="M140.137,221.621c-1.328,3.324 -1.328,6.647 0.665,10.634c1.331,3.324 3.989,5.985 7.313,6.647l15.954,-2.662c9.306,-4.647 14.625,-11.295 16.619,-21.266l-1.993,-2.662l-7.313,-2.662c-6.647,-1.324 -12.63,-0.662 -19.277,2c-6.648,3.324 -10.637,6.647 -11.968,9.971Zm4.654,3.986c0,-2.662 3.324,-5.317 9.971,-8.641l19.942,-0.668c-1.993,7.316 -6.647,11.97 -13.294,15.294l-11.302,2.661l-4.651,-3.992l-0.666,-4.654Z" style="fill-rule:nonzero;"/><path d="M243.838,214.974l-3.323,-1.331l-22.602,11.301c-1.993,1.325 -2.658,1.993 -1.331,3.324c0.666,1.993 1.331,2.662 3.324,1.993l22.604,-11.302c1.994,-0.662 1.994,-1.993 1.328,-3.985Z" style="fill-rule:nonzero;"/><path d="M184.01,235.578c-1.327,2.662 -0.665,4.654 0.666,7.979c0.665,3.323 2.658,4.654 5.316,5.316l13.961,-2.661c5.319,-2.655 9.971,-6.648 12.629,-11.295l1.997,-7.31l-7.313,-2.662c-5.316,-1.331 -10.637,0 -16.619,1.993c-6.648,3.323 -9.971,5.979 -10.637,8.64Z" style="fill:#d96038;fill-rule:nonzero;"/><path d="M220.571,224.944l-8.641,-2.661c-5.981,-1.324 -11.967,-0.663 -17.949,2.661c-6.647,2.662 -10.636,5.985 -12.629,9.972c-1.331,2.661 -0.665,5.985 0.665,9.971c1.993,3.985 4.653,6.647 7.314,6.647c3.985,1.325 8.64,0 15.287,-3.324c9.972,-3.985 15.953,-11.302 16.619,-19.942l-0.666,-3.324Zm-35.23,13.296c0,-2.662 3.325,-5.985 9.971,-8.647l19.942,-0.662c-0.665,6.647 -5.32,11.302 -13.295,14.626l-11.303,3.323l-3.987,-4.655l-1.328,-3.985Z" style="fill-rule:nonzero;"/><path d="M282.395,233.585c-0.665,-1.993 -1.33,-1.993 -3.323,-1.993l-24.598,7.971c-1.33,0.669 -1.33,2 -1.33,3.324l3.323,2l23.932,-7.979c1.33,0.001 2.659,-1.992 1.996,-3.323Z" style="fill-rule:nonzero;"/><path d="M219.906,244.887c-1.327,1.993 -1.327,4.648 0,8.64c0.665,3.324 1.996,4.654 3.989,5.979l13.961,-1.325c6.647,-1.331 10.636,-4.654 14.624,-9.309l3.324,-6.647l-5.985,-3.985l-17.945,0c-6.647,1.992 -10.637,3.985 -11.968,6.647Z" style="fill:#d96038;fill-rule:nonzero;"/><path d="M258.463,242.887l-0.665,-2.655c-1.993,-1.993 -4.654,-3.324 -7.313,-3.993l-19.276,-0.662c-6.647,2.662 -11.302,4.654 -13.295,7.979c-1.993,2.655 -2.658,5.979 -0.665,9.971c0.665,4.654 3.323,7.316 5.982,8.641l15.291,-0.663c10.635,-3.323 17.283,-9.971 19.941,-18.618Zm-25.262,-1.986c7.313,-2.662 13.96,-2 19.279,2.655c-2.661,5.979 -7.977,9.971 -15.29,11.964l-11.964,1.331c-1.331,0 -1.996,-1.993 -3.324,-4.655l-0.665,-3.324c0,-3.323 3.99,-5.315 11.964,-7.971Z" style="fill-rule:nonzero;"/><path d="M285.054,288.095c7.975,-0.662 13.295,-4.654 18.61,-10.632l5.32,-9.31l-7.978,-6.648c-5.982,-4.654 -13.295,-6.647 -19.942,-5.985c-7.313,1.331 -13.961,4.654 -19.943,11.302l-6.647,9.303l9.307,7.315c7.312,3.993 13.959,5.98 21.273,4.655Z" style="fill:#858585;fill-rule:nonzero;"/><path d="M310.978,266.822l-7.979,-8.641c-7.309,-4.654 -14.622,-6.647 -22.601,-5.323c-7.975,1.337 -15.288,5.323 -20.607,11.971l-7.976,9.971c0,1.325 0,1.993 0.665,3.324l9.307,7.31c7.975,4.655 15.953,6.647 23.932,5.323c7.976,-0.668 14.623,-4.66 19.941,-11.309l5.317,-10.633l0,-1.993l0.001,0Zm-4.656,1.993c-4.65,9.971 -11.298,15.956 -21.269,16.618c-9.972,1.999 -18.615,-1.993 -27.256,-9.971c6.647,-10.633 14.626,-15.956 23.267,-17.281c9.971,-1.33 18.612,1.994 25.258,10.634Z" style="fill-rule:nonzero;"/><path d="M324.938,265.492c-0.665,-1.993 -1.331,-1.993 -3.323,-1.993l-13.296,1.993l-1.33,1.331l-0.666,1.993c0.666,1.331 1.331,2.662 3.324,2l13.295,-2.662l1.996,-2.662Z" style="fill-rule:nonzero;"/><path d="M291.035,304.714l6.647,8.641c6.647,6.646 13.295,9.971 20.607,10.64c7.313,0.662 13.961,-1.338 19.942,-6.647l7.313,-7.315l-5.32,-9.304c-5.316,-5.984 -11.964,-9.309 -19.277,-9.971c-7.313,-0.668 -14.626,1.986 -21.272,6.647c-3.985,2.655 -6.647,5.31 -8.64,7.309Z" style="fill:#858585;fill-rule:nonzero;"/><path d="M298.349,294.743c-4.654,3.324 -7.979,5.984 -9.306,8.641c-0.666,0.668 -0.666,1.33 -0.666,2.655l7.976,9.97c6.646,6.647 13.959,9.972 21.272,10.641c8.641,0.668 15.953,-1.993 22.601,-6.648l7.313,-9.302l0.665,-1.999l-6.647,-9.309c-5.32,-6.648 -11.968,-10.634 -20.608,-11.297c-7.313,-0.662 -15.289,1.994 -22.6,6.648Zm-3.99,9.971c8.64,-7.979 17.283,-11.971 26.589,-11.302c5.982,0.669 11.303,3.323 15.954,7.315l5.981,8.634c-5.981,8.648 -14.622,12.633 -24.594,11.971c-9.305,-1.331 -17.282,-6.646 -23.93,-16.618Z" style="fill-rule:nonzero;"/><path d="M346.208,306.707c-1.993,0 -2.658,0.669 -3.324,2.654c0,2.001 1.331,3.324 2.662,3.324l13.956,0.669c1.332,0 2.663,-1.33 2.663,-3.323c0,-1.331 -1.331,-2.655 -2.663,-2.655l-13.294,-0.669Z" style="fill-rule:nonzero;"/><path d="M330.92,336.62l2.658,11.303c2.658,8.641 7.313,14.619 13.961,18.611c5.981,3.324 13.295,4.654 20.606,3.324c3.989,-1.331 7.313,-2.655 9.972,-3.992l-1.331,-10.634c-1.993,-7.973 -5.981,-13.295 -12.63,-17.281c-5.98,-3.986 -13.294,-4.654 -21.935,-3.986l-11.301,2.655Z" style="fill:#858585;fill-rule:nonzero;"/><path d="M379.445,353.908c-1.993,-7.985 -6.648,-13.964 -13.296,-17.956c-7.309,-4.648 -15.287,-5.979 -23.928,-4.648l-11.967,3.323c-0.666,0 -1.993,1.325 -1.993,2.662l2.658,12.626c3.324,7.979 7.979,13.964 15.288,18.612c6.647,4.653 13.96,5.323 22.604,3.985l10.634,-4.647l1.33,-1.999l-1.33,-11.958Zm-16.619,-13.964c7.979,5.316 12.633,13.295 12.633,23.935c-9.31,5.31 -17.949,5.31 -27.255,0c-8.644,-5.323 -13.295,-13.964 -13.96,-25.266c10.637,-4.648 19.943,-3.986 28.582,1.331Z" style="fill-rule:nonzero;"/><path d="M187.334,504.8c0,-1.325 -1.993,-1.993 -3.324,-1.325c-1.993,0 -1.993,1.325 -1.993,3.324l21.27,42.54c20.608,30.582 47.863,53.179 80.436,67.143c1.331,0.662 3.323,0 3.323,-1.337c0.666,-1.986 0.666,-2.655 -1.327,-3.986c-31.91,-13.294 -57.834,-34.561 -77.776,-64.474l-20.609,-41.885Z" style="fill-rule:nonzero;"/><path d="M178.028,492.835c-3.324,1.331 -5.316,3.324 -5.981,5.317c-0.666,2.661 0,7.31 2.658,13.957c3.324,5.323 6.647,9.972 11.965,12.633l7.312,1.999l2.658,-6.647c0.666,-5.985 0,-11.309 -2.658,-16.619c-2.658,-6.647 -5.982,-10.64 -8.64,-11.308l-7.314,0.668Z" style="fill:#d96038;fill-rule:nonzero;"/><path d="M186.006,489.512l-9.308,0.669c-3.324,1.986 -5.982,3.324 -6.647,6.646c-1.993,3.986 -0.663,9.303 2.661,16.619c4.651,9.972 11.298,15.282 20.604,16.619l2.661,-1.337l2.658,-7.973c1.328,-6.647 0.666,-12.633 -1.996,-18.618c-3.323,-7.309 -6.647,-11.956 -10.633,-12.625Zm-7.312,5.978l5.982,-1.324c1.994,1.324 3.99,4.648 6.647,9.972c1.993,3.323 3.323,6.647 3.323,10.633l-2.658,9.31c-6.647,-1.999 -11.301,-6.647 -14.625,-13.295c-1.993,-3.986 -2.658,-7.311 -2.658,-10.634l0,-1.337c0.665,-1.326 1.993,-2.656 3.989,-3.325Z" style="fill-rule:nonzero;"/><path d="M191.323,547.347c-1.992,-0.662 -3.324,0 -3.324,1.992c-0.665,1.33 -0.665,2.655 0.667,3.323l23.931,9.303l3.985,-1.986l-1.992,-3.324l-23.267,-9.308Z" style="fill-rule:nonzero;"/><path d="M160.079,530.065c-1.993,0.662 -3.986,2.655 -5.317,5.979c-0.665,3.324 -1.331,5.979 0,7.979c1.331,2.662 5.317,5.985 11.302,7.972l17.281,1.338c3.325,-0.67 4.654,-1.338 6.647,-3.324l-2.658,-6.647c-2.658,-4.662 -7.313,-8.646 -13.295,-11.309c-5.981,-1.988 -10.636,-3.324 -13.96,-1.988Z" style="fill:#d96038;fill-rule:nonzero;"/><path d="M152.104,535.376c-1.331,3.322 -1.331,6.646 0,9.97c1.993,3.324 5.982,6.648 12.63,8.647l19.276,1.993l7.313,-3.992l1.33,-1.986c-1.33,-9.309 -7.977,-15.957 -17.949,-19.942c-6.647,-3.324 -11.302,-3.324 -15.288,-2.662c-2.661,1.325 -5.319,3.324 -7.312,7.972Zm15.288,13.963c-7.313,-2.654 -10.637,-5.979 -10.637,-8.64l0.666,-3.986c0.666,-1.999 1.996,-3.324 3.989,-3.992c1.993,-0.669 5.982,-0.669 11.964,1.993c7.313,2.661 11.302,7.978 13.96,13.956l-19.942,0.669Z" style="fill-rule:nonzero;"/><path d="M243.172,510.122l-9.971,5.311c-6.647,5.323 -11.299,11.971 -12.63,18.618c-1.992,7.972 0,14.619 3.989,21.267l6.647,7.984c3.324,-0.668 6.648,-2.661 9.972,-4.66c6.646,-4.648 9.971,-9.972 11.964,-17.942c1.33,-6.648 0.665,-13.958 -3.324,-21.942l-6.647,-8.636Z" style="fill:#858585;fill-rule:nonzero;"/><path d="M244.504,507.461l-2.659,-0.662l-10.637,6.647c-6.647,5.311 -11.302,12.627 -13.295,19.942c-1.331,8.634 0,15.95 3.989,23.266c3.324,4.648 5.982,7.31 7.976,8.635l1.996,0.668c3.989,-0.668 7.313,-2.655 11.298,-5.316c6.647,-4.654 11.302,-10.633 12.633,-18.618c1.993,-7.972 0.662,-15.949 -3.989,-23.928l-7.312,-10.634Zm-21.274,32.575l0,-4.66c1.996,-9.972 7.978,-17.281 18.614,-21.93c5.981,6.647 9.306,13.957 9.306,21.93l-0.666,5.323c-1.327,5.985 -3.989,10.632 -9.305,14.618c-2.658,1.999 -5.982,3.992 -9.306,4.661c-5.981,-4.661 -8.643,-11.308 -8.643,-19.942Z" style="fill-rule:nonzero;"/><path d="M231.874,560.641c-1.331,0 -2.658,0.662 -3.324,2.661l-1.996,13.296c0,1.986 0.666,2.654 1.996,2.654l3.324,-1.992l2.658,-13.296c0,-1.999 -0.665,-3.323 -2.658,-3.323Z" style="fill-rule:nonzero;"/><path d="M362.165,223.614c-25.929,-13.964 -49.195,-35.23 -70.464,-63.151c-14.626,-21.935 -31.91,-39.884 -50.521,-56.503l-23.267,-18.611c-1.993,-0.662 -3.323,0 -3.989,1.325c-0.665,1.999 -0.665,2.661 0.666,3.992l23.267,17.949c18.61,15.288 35.229,33.899 49.855,54.504c21.935,29.251 45.866,51.193 71.79,65.813c13.295,7.309 25.263,11.302 35.234,13.294c1.993,0 2.658,-0.662 2.658,-1.993c0.665,-1.993 0,-3.324 -1.993,-3.324c-9.308,-1.331 -19.942,-5.317 -33.236,-13.295Z" style="fill-rule:nonzero;"/><path d="M190.657,72.054c-1.991,3.323 -2.658,5.316 -1.991,7.971c1.326,2.662 4.65,5.985 9.97,9.309c8.641,5.985 16.619,5.985 24.595,2.662l-1.993,-7.31c-2.658,-5.985 -6.647,-9.971 -11.303,-12.632c-5.981,-3.986 -10.633,-5.324 -13.295,-4.655c-2.659,0 -4.652,1.993 -5.983,4.655Z" style="fill:#d96038;fill-rule:nonzero;"/><path d="M195.978,64.075c-2.661,0.668 -5.32,3.324 -7.979,6.647c-1.993,3.324 -2.658,6.647 -1.993,9.303c1.328,3.993 4.651,7.316 11.3,11.971c9.971,5.317 17.949,6.647 26.59,1.993l1.331,-1.993c0,-9.971 -4.655,-16.619 -13.961,-22.604c-6.648,-3.986 -11.302,-5.317 -15.288,-5.317Zm-3.325,9.971c1.328,-2.655 2.659,-3.992 4.652,-4.654c1.996,0 5.981,1.331 10.637,4.654c6.647,3.324 10.637,8.641 11.964,15.951c-5.982,2.661 -12.63,1.999 -19.277,-2.655c-5.982,-3.324 -9.306,-6.647 -9.306,-8.641l0,-0.662l1.33,-3.993Z" style="fill-rule:nonzero;"/><path d="M227.22,113.262c-1.993,-0.662 -2.659,0.668 -2.659,2c0,1.993 0,3.324 2.659,3.324l24.596,1.993c1.993,0 2.658,-0.668 2.658,-1.993c0.666,-2.662 0,-3.324 -1.993,-3.324l-25.261,-2Z" style="fill-rule:nonzero;"/><path d="M192.653,105.291c-1.33,0.662 -2.661,3.324 -3.322,6.647c-0.665,3.324 0,5.985 1.992,7.31c1.993,2.662 6.647,4.655 13.295,4.655c6.647,1.331 11.964,0 16.619,-3.324l5.982,-4.655l-4.652,-5.317c-4.654,-4.654 -9.309,-6.647 -15.956,-7.316l-13.958,2Z" style="fill:#d96038;fill-rule:nonzero;"/><path d="M186.67,111.938c0,3.986 0.664,7.31 2.661,9.971c2.657,2.662 7.975,3.986 15.287,5.316c10.637,0.669 19.277,-1.993 24.598,-9.971l0.662,-2.655l-5.317,-5.985c-4.654,-4.655 -10.637,-7.31 -17.284,-7.979l-15.953,1.993c-2.658,1.331 -3.99,4.655 -4.654,9.31Zm5.318,0c0,-2.662 1.328,-3.986 2.658,-4.655l11.965,-1.331c7.979,1.331 13.96,3.986 17.284,9.309c-5.316,5.317 -11.965,6.647 -19.277,6.647c-7.979,-1.331 -12.63,-3.324 -12.63,-7.979l0,-1.991Z" style="fill-rule:nonzero;"/><path d="M281.064,146.5c0,-1.324 -0.666,-2.655 -2.659,-2.655l-34.567,0.669c-2.658,0 -2.658,0.662 -2.658,2.655c0,1.331 0.665,2.655 2.658,2.655l34.567,-0.662c1.993,-0.001 2.659,-0.663 2.659,-2.662Z" style="fill-rule:nonzero;"/><path d="M207.942,139.852c-1.331,1.337 -1.993,3.992 -2.659,7.316c0,3.324 1.328,5.316 2.659,7.316c2.658,1.986 6.647,2.655 13.96,3.324c5.982,0 11.965,-2 16.619,-5.323l5.316,-5.316l-5.316,-5.317c-4.654,-3.324 -9.972,-5.323 -16.619,-5.323c-6.647,0 -11.301,0.668 -13.96,3.323Z" style="fill:#d96038;fill-rule:nonzero;"/><path d="M206.611,156.471c3.323,1.999 7.979,3.992 15.291,3.992c11.299,0 19.277,-3.992 23.932,-11.964l0,-2.662c-4.654,-7.972 -12.633,-11.964 -23.932,-11.964c-7.313,0 -11.968,1.331 -15.291,3.324c-1.993,1.993 -3.324,5.317 -3.324,9.972c0,4.654 1.331,7.315 3.324,9.302Zm3.99,-14.619c1.33,-2 5.981,-2.662 11.302,-2.662c8.641,0 14.623,2.662 18.612,7.979c-3.989,5.316 -9.972,7.978 -18.612,7.978l-11.968,-2.662c-1.327,-0.662 -1.992,-2.662 -1.992,-5.316c0.664,-3.325 1.329,-4.655 2.658,-5.317Z" style="fill-rule:nonzero;"/><path d="M283.058,175.089c-1.993,-0.662 -2.659,0 -3.324,1.993c0,1.331 0.665,2.655 1.996,3.324l24.593,4.654c1.331,0 3.324,0 3.324,-2c0,-1.986 -0.662,-2.655 -1.993,-2.655l-24.596,-5.316Z" style="fill-rule:nonzero;"/><path d="M282.395,177.082l-3.989,-5.979c-3.988,-4.661 -8.644,-7.316 -14.625,-9.309c-6.648,-1.331 -11.965,-1.331 -13.961,0c-1.993,1.325 -3.324,3.324 -4.65,7.31c-0.665,3.324 -0.665,5.985 1.326,7.978c1.331,1.993 5.32,3.993 11.968,5.317l17.946,-0.662l5.985,-4.655Z" style="fill:#d96038;fill-rule:nonzero;"/><path d="M284.388,176.413l-3.989,-7.31c-3.989,-4.648 -9.306,-7.31 -15.953,-9.309c-7.313,-1.325 -12.63,-1.325 -15.953,0c-3.323,1.999 -4.654,3.992 -5.981,8.647c-1.331,3.986 -0.666,7.31 1.327,9.971c2.657,3.324 7.313,5.317 13.96,6.647c10.637,2.662 19.942,0.662 26.59,-5.985l0,-2.661l-0.001,0Zm-33.238,-11.958l11.964,0.662c7.313,1.325 11.968,5.317 15.957,11.964c-5.32,3.324 -11.968,4.655 -19.28,3.324c-8.641,-1.993 -11.965,-4.655 -11.965,-7.979l0,-3.324c0.666,-1.992 1.993,-3.985 3.324,-4.647Z" style="fill-rule:nonzero;"/><path d="M257.798,125.233c1.331,0 1.993,-1.331 1.993,-3.324l-5.982,-24.597c0,-1.993 -1.993,-1.993 -3.324,-1.993c-1.992,0.662 -2.658,1.993 -1.992,3.324l5.981,24.59c0,2 1.331,2 3.324,2Z" style="fill-rule:nonzero;"/><path d="M255.14,91.996c2.658,-5.323 2.658,-11.302 1.992,-17.281c-1.992,-6.647 -3.988,-10.64 -5.981,-12.633l-7.979,-1.331c-3.323,1.331 -5.981,2.655 -6.646,4.654c-1.993,2.662 -1.993,7.31 0,13.957c1.331,5.985 3.989,11.302 7.979,14.626l6.646,3.992l3.989,-5.984Z" style="fill:#d96038;fill-rule:nonzero;"/><path d="M233.867,64.075c-1.993,3.324 -1.993,8.64 0,15.288c1.33,6.647 3.989,12.633 9.305,16.619l7.313,4.654l2.659,-0.668c6.647,-6.647 8.644,-15.281 6.647,-25.921c-1.993,-6.647 -4.651,-11.964 -7.311,-14.625l-9.97,-0.662c-4.654,0.66 -7.313,1.991 -8.643,5.315Zm3.989,6.647c0,-1.993 0.665,-4.654 1.992,-5.316l3.989,-1.331l5.981,0c1.331,1.331 3.324,5.316 4.654,11.302l0,5.317c0,5.979 -0.665,9.971 -3.989,13.963c-5.98,-2.662 -9.97,-7.984 -11.963,-15.957l-0.664,-7.978Z" style="fill-rule:nonzero;"/><path d="M284.388,119.248c-1.993,-0.662 -3.323,0 -3.323,2l-5.317,24.59c-0.665,2 0.662,2.662 1.993,3.324l3.324,-1.993l5.316,-25.259c0,-1.331 -0.662,-2.662 -1.993,-2.662Z" style="fill-rule:nonzero;"/><path d="M298.349,88.672c-0.666,-1.331 -3.324,-3.324 -6.647,-3.986l-7.979,0.662c-2.658,1.993 -3.989,6.647 -5.982,13.295c-1.331,5.985 -0.665,11.964 1.993,16.619l3.989,6.647l5.982,-3.986c4.654,-3.993 7.313,-8.647 8.644,-15.294c1.993,-6.648 1.993,-10.633 0,-13.957Z" style="fill:#d96038;fill-rule:nonzero;"/><path d="M300.342,87.341c-1.993,-2.655 -3.989,-3.993 -8.641,-5.317l-9.972,1.993c-2.658,1.993 -4.654,6.647 -6.647,13.963c-1.331,6.647 -0.665,12.626 1.993,18.605l3.989,7.316l3.323,0c8.641,-2.655 13.961,-9.972 16.619,-19.943c1.993,-7.977 1.332,-13.293 -0.664,-16.617Zm-9.307,0c2.659,0.668 3.989,1.331 4.655,2.655l1.327,4.661l-1.327,7.31c-1.331,7.972 -5.32,13.295 -11.303,16.619c-3.323,-3.986 -4.654,-8.647 -4.654,-13.295l0.665,-6.647c1.331,-5.985 3.324,-9.309 4.655,-10.633l5.982,-0.67Z" style="fill-rule:nonzero;"/><path d="M312.97,161.132l-2.658,-2.662c-2.658,0 -2.658,0.663 -2.658,2.662l0,25.252c0,1.999 0.665,2.661 2.658,2.661c1.331,0 2.658,-0.662 2.658,-2.661l0,-25.252Z" style="fill-rule:nonzero;"/><path d="M317.625,125.896c-1.331,-1.993 -3.324,-2.662 -7.313,-2.662c-3.323,0 -5.981,0.669 -7.313,2c-1.992,2.662 -2.657,7.31 -3.323,13.957c0,6.647 1.331,11.971 5.319,16.618l5.316,5.324l5.32,-5.324c3.323,-3.985 5.316,-9.971 5.316,-16.618c0,-6.647 -0.664,-10.634 -3.322,-13.295Z" style="fill:#d96038;fill-rule:nonzero;"/><path d="M297.018,139.19c0,7.31 1.996,13.295 5.981,17.949l5.319,6.647l3.324,0l5.982,-6.647c3.323,-4.654 5.981,-10.64 5.981,-17.949c0,-7.31 -1.327,-11.964 -3.323,-15.288c-2.658,-1.993 -5.982,-3.324 -9.972,-3.324c-3.99,0 -7.313,1.331 -9.305,3.324c-2.656,3.324 -3.322,7.978 -3.987,15.288Zm21.272,0c0,7.979 -2.658,13.957 -7.979,18.618c-5.316,-3.992 -7.974,-9.971 -7.974,-18.618c0.661,-5.317 1.326,-9.971 2.657,-11.964c1.327,-0.668 2.658,-1.33 5.316,-1.33c2.658,0 4.655,0.662 5.982,1.33c1.333,1.993 1.998,5.979 1.998,11.964Z" style="fill-rule:nonzero;"/><path d="M270.428,212.312l7.313,7.979c6.647,5.317 13.295,7.978 20.608,8.641c7.974,0 14.621,-2.662 19.941,-8.641l6.647,-7.979l-6.647,-8.64c-5.32,-5.316 -11.968,-7.978 -19.941,-7.978c-7.313,0 -13.961,2.662 -20.608,7.978l-7.313,8.64Z" style="fill:#858585;fill-rule:nonzero;"/><path d="M298.349,193.032c-7.313,0 -14.626,2.662 -21.939,8.647l-8.641,8.64c-0.665,1.331 -0.665,1.993 0,3.324l8.641,8.64c7.313,5.985 14.626,9.309 21.939,9.309c8.64,0 15.287,-3.324 21.935,-8.647l7.313,-9.302l0,-2.655l-7.313,-9.309c-6.648,-5.986 -13.296,-8.647 -21.935,-8.647Zm0,33.237c-8.644,-0.662 -17.284,-4.648 -24.598,-13.958c6.647,-9.309 15.292,-13.957 24.598,-13.957c9.305,0 17.283,4.648 23.266,13.957c-5.983,9.31 -13.962,13.958 -23.266,13.958Z" style="fill-rule:nonzero;"/><path d="M340.892,211.65c0,-2 -0.666,-2.662 -2.659,-2.662l-13.295,0.662c-1.331,0 -2.658,0.669 -2.658,2.662c0,1.332 1.327,2.662 2.658,2.662l13.295,0c1.993,-0.662 2.659,-1.331 2.659,-3.324Z" style="fill-rule:nonzero;"/><path d="M317.625,253.527l9.971,6.647c7.313,3.324 15.288,4.655 21.937,2.655c7.313,-1.325 13.294,-5.979 17.283,-12.626l3.989,-9.971c-1.331,-1.993 -4.655,-4.654 -7.979,-6.647c-6.646,-3.324 -13.294,-4.654 -21.27,-3.324c-6.647,1.993 -13.295,6.647 -17.95,13.295l-5.981,9.971Z" style="fill:#858585;fill-rule:nonzero;"/><path d="M364.156,231.592c-7.977,-4.655 -15.287,-5.323 -23.265,-3.324c-7.313,1.993 -13.961,6.648 -19.943,13.295l-5.981,10.633l1.327,3.324l9.972,6.647c7.979,3.985 16.618,4.654 23.932,2.662c7.313,-1.331 13.959,-5.985 18.614,-13.295l5.316,-10.633l-1.331,-2.662l-8.641,-6.647Zm-21.934,1.993c9.972,-2.655 18.612,0 25.924,7.979c-2.658,9.971 -9.305,16.618 -19.276,18.611c-9.309,1.993 -18.614,0 -27.921,-7.979c5.317,-10.633 11.964,-16.618 21.273,-18.611Z" style="fill-rule:nonzero;"/><path d="M386.758,235.578c-0.665,-1.325 -1.328,-1.993 -3.324,-1.325l-12.629,3.986c-1.993,0 -2.659,1.324 -1.993,3.324c0,1.993 1.327,1.993 3.323,1.324l12.63,-3.985c1.328,0 2.658,-1.325 1.993,-3.324Z" style="fill-rule:nonzero;"/><path d="M345.546,147.168l-8.644,7.978c-5.982,5.985 -8.641,13.295 -9.307,19.942c0,7.972 2.659,14.619 7.979,20.604l8.641,6.647l7.979,-6.647c5.316,-5.317 8.641,-11.964 8.641,-19.28c0.664,-7.31 -1.993,-14.62 -7.313,-21.267l-7.976,-7.977Z" style="fill:#858585;fill-rule:nonzero;"/><path d="M346.873,145.175c-0.665,-1.331 -1.992,-1.331 -2.658,0l-9.971,8.641c-5.982,6.647 -8.641,13.294 -9.307,21.273c0,8.641 2.658,15.288 8.641,21.935c3.324,3.324 5.982,5.979 9.306,7.979l1.997,0l9.306,-7.31c6.647,-5.985 9.305,-12.632 9.97,-20.611c0,-8.64 -2.658,-15.95 -7.977,-23.266l-9.307,-8.641Zm11.968,30.576l0,0.662c-0.665,9.971 -5.985,17.287 -14.626,22.604l-7.979,-6.647c-3.323,-5.317 -5.316,-10.633 -5.316,-15.957l0,-0.662c0,-9.971 4.654,-17.943 13.961,-25.259c9.306,7.316 13.96,15.288 13.96,25.259Z" style="fill-rule:nonzero;"/><path d="M346.873,201.679l-3.323,-2c-1.993,0 -2.658,0.668 -2.658,2.662l0,13.294c0,1.331 1.33,2.662 3.323,2.662c1.331,0 2.658,-1.331 2.658,-2.662l0,-13.956Z" style="fill-rule:nonzero;"/><path d="M27.796,456.274c0,-1.993 -1.328,-1.993 -3.324,-1.993c-1.328,1.325 -1.328,1.993 -1.328,3.324l9.305,19.942c7.975,15.957 17.285,30.575 27.917,44.533c33.903,43.208 75.119,69.798 123.643,79.769l3.324,-1.986c0,-1.338 -0.664,-3.323 -2.658,-3.323c-47.198,-9.972 -87.083,-35.899 -120.32,-77.783c-9.971,-13.295 -19.942,-27.915 -27.255,-43.208l-9.304,-19.275Z" style="fill-rule:nonzero;"/><path d="M12.508,427.692c-3.324,1.993 -5.32,3.323 -5.982,5.315c-0.666,3.324 0,7.316 3.324,13.964c1.993,5.979 5.982,9.972 11.299,12.627l6.647,3.323l2.658,-7.315c1.331,-5.979 0.666,-11.296 -1.327,-16.619c-2.658,-6.647 -5.32,-9.972 -8.644,-11.957l-7.975,0.662Z" style="fill:#d96038;fill-rule:nonzero;"/><path d="M3.864,435.663c0,3.992 0.666,7.316 3.324,11.971c3.989,10.634 11.302,15.957 20.608,17.943l2.658,-1.986c4.655,-7.316 5.32,-16.619 0.666,-26.59c-3.323,-6.647 -6.647,-10.64 -9.971,-12.633l-9.972,1.324c-3.324,1.338 -5.317,3.323 -6.647,5.985l-0.666,3.986Zm7.978,10.64c-1.331,-3.992 -2.658,-7.315 -2.658,-10.64l0.665,-1.985l3.986,-3.324l5.32,-0.668c1.993,0.668 4.651,3.992 7.313,9.97l2.658,9.972l-2.658,9.972c-6.647,-1.995 -11.968,-6.649 -14.626,-13.297Z" style="fill-rule:nonzero;"/><path d="M25.803,488.181c-1.331,-1.323 -2.658,-0.661 -3.324,1.331c-0.666,1.33 0,3.323 1.328,3.323l23.266,9.972c1.996,0.668 3.324,0 3.324,-1.993c0.666,-1.331 0.666,-1.999 -1.328,-3.324l-23.266,-9.309Z" style="fill-rule:nonzero;"/><path d="M22.479,483.533c-3.324,-4.661 -7.979,-9.309 -13.295,-11.309c-6.648,-2.655 -11.302,-3.323 -13.96,-2.655c-1.993,0.669 -3.989,2.655 -5.316,5.979c-1.331,3.323 -1.996,5.985 -0.666,7.984c1.328,2.655 5.317,5.979 11.298,8.634l17.284,1.338l6.648,-3.324l-1.993,-6.647Z" style="fill:#d96038;fill-rule:nonzero;"/><path d="M24.472,482.195c-3.324,-5.979 -7.976,-9.302 -14.623,-12.626c-6.647,-2.655 -11.967,-3.323 -15.956,-1.993c-3.324,1.325 -4.651,3.324 -6.647,6.648c-1.328,4.647 -1.328,7.971 0,10.633c1.331,3.323 5.985,5.984 12.633,9.309l26.59,-1.331l1.328,-2.654l-3.325,-7.986Zm-3.324,7.317c-5.317,3.323 -11.964,3.323 -19.943,0c-6.647,-3.323 -9.971,-6.646 -9.971,-9.302l1.331,-3.993l3.324,-3.992c1.993,-1.324 6.647,0 11.964,2.662c6.647,2.661 11.968,7.978 13.295,14.625Z" style="fill-rule:nonzero;"/><path d="M52.393,478.872c-1.331,-0.662 -1.996,0.669 -2.658,2l-0.666,25.258c0,1.331 1.328,2.655 3.324,2.655l1.993,-1.986l0.665,-25.927c0.665,-1.331 -0.665,-2 -2.658,-2Z" style="fill-rule:nonzero;"/><path d="M61.033,446.303c-1.327,-1.992 -3.324,-3.323 -6.647,-3.323c-3.989,0 -6.648,0.668 -7.976,2.655c-1.996,1.999 -3.324,6.647 -3.989,13.295c0,6.647 1.993,11.971 5.316,17.287l4.655,4.655l5.316,-4.655c3.989,-4.654 5.982,-9.971 6.647,-16.618c0.001,-6.648 -0.664,-11.303 -3.322,-13.296Z" style="fill:#d96038;fill-rule:nonzero;"/><path d="M63.029,443.647c-1.996,-1.999 -5.32,-3.323 -8.643,-3.323c-4.651,0 -7.976,1.324 -9.972,3.323c-2.658,2.655 -3.989,7.973 -3.989,15.282c-0.662,7.316 0.666,13.295 4.655,17.956l5.982,5.979l2.658,0.668c8.643,-4.661 12.632,-12.633 13.294,-23.935l0,-1.993c0.001,-6.646 -1.327,-11.301 -3.985,-13.957Zm-14.626,3.325c0.666,-0.669 2.659,-1.337 5.317,-0.669l5.32,0.669c1.993,2.655 1.993,5.979 1.993,10.634l0,1.993c0,7.315 -2.659,13.295 -8.64,17.949c-4.655,-4.654 -6.647,-9.972 -6.647,-17.281l0,-0.668c-0.001,-6.648 1.327,-9.972 2.657,-12.627Z" style="fill-rule:nonzero;"/><path d="M80.31,516.771c0,-2.662 -1.328,-3.324 -2.659,-2.662c-1.993,0 -3.324,1.324 -2.658,2.662l3.324,25.252c0.666,1.338 1.331,2 2.658,2c2.659,0 3.324,-0.662 2.659,-2.661l-3.324,-24.591Z" style="fill-rule:nonzero;"/><path d="M80.975,480.21c-1.993,-1.338 -3.989,-1.338 -7.975,-1.338c-3.324,0.669 -5.32,1.338 -7.313,3.323c-1.331,2.662 -1.996,7.316 -1.331,13.964c1.331,6.647 3.324,11.302 7.313,15.95l5.982,4.661l4.655,-5.985c3.324,-5.323 3.989,-10.634 3.324,-17.28c-1.331,-6.648 -2.658,-10.64 -4.655,-13.295Z" style="fill:#d96038;fill-rule:nonzero;"/><path d="M82.306,478.21l-9.971,-1.993c-3.324,0.669 -6.648,1.993 -7.979,3.993c-1.993,2.655 -3.324,5.979 -3.324,9.971l0.666,6.646c0.665,6.647 3.989,12.627 7.978,17.281l6.647,4.648l2.659,0l5.317,-6.647c3.323,-5.311 4.654,-11.958 3.323,-18.604c-0.665,-7.317 -2.658,-13.295 -5.316,-15.295Zm-13.96,5.323l5.317,-1.999l5.32,1.331c1.993,0.668 3.324,4.654 3.324,11.301l0.666,3.323c0,6.648 -1.997,11.965 -5.985,15.957c-5.982,-4.661 -9.306,-9.972 -9.972,-17.287l0,-5.979c-0.001,-2.66 0.664,-4.661 1.33,-6.647Z" style="fill-rule:nonzero;"/><path d="M49.069,527.403c-1.996,0 -3.324,1.325 -3.324,2.662c0,1.986 0.665,3.323 2.658,3.323l25.259,3.324c1.331,0 1.996,-0.669 2.661,-2.662c0.663,-1.999 -0.665,-2.661 -1.996,-3.323l-25.258,-3.324Z" style="fill-rule:nonzero;"/><path d="M14.5,517.433c-1.328,1.324 -2.658,3.323 -3.324,7.31c0,3.986 0,5.985 1.331,7.31c1.993,2.662 6.647,4.661 13.295,5.323c6.647,1.323 11.964,0 16.619,-1.999l6.647,-5.311l-4.655,-5.985c-3.989,-3.986 -9.306,-6.647 -15.288,-7.31l-14.625,0.662Z" style="fill:#d96038;fill-rule:nonzero;"/><path d="M51.062,529.396l-5.317,-6.647c-3.989,-4.654 -9.972,-7.316 -16.619,-8.641l-15.291,1.324c-2.659,1.338 -4.651,4.661 -5.317,8.647c-0.666,4.648 0,7.972 2.658,9.971c1.996,3.324 6.647,5.317 14.626,5.985c9.971,1.986 18.611,-1.338 25.259,-7.984l0,-2.655l0.001,0Zm-34.565,-9.302l11.965,-0.668c8.64,1.33 13.96,4.654 17.284,10.64c-6.647,3.985 -12.63,5.979 -19.277,5.311c-8.644,-1.987 -12.633,-3.986 -12.633,-7.973l0,-1.999c0.664,-3.324 1.33,-4.649 2.661,-5.311Z" style="fill-rule:nonzero;"/><path d="M103.576,559.979c0,-2.662 -1.328,-3.324 -2.658,-2.662l-25.259,2.662c-1.331,0 -2.659,0.662 -1.996,2.655c0,1.33 0.665,2.655 2.661,2.655l24.594,-3.324c2.658,0 3.323,-0.662 2.658,-1.986Z" style="fill-rule:nonzero;"/><path d="M40.425,557.979c-1.993,1.331 -2.658,3.986 -2.658,7.311c0.666,3.323 1.996,5.985 3.324,7.315l14.626,1.993c5.982,-0.662 11.298,-2.661 15.288,-6.647l4.655,-5.985l-5.32,-4.648c-4.651,-2.661 -10.633,-3.984 -16.618,-3.984c-7.312,0.659 -11.301,1.983 -13.297,4.645Z" style="fill:#d96038;fill-rule:nonzero;"/><path d="M77.651,560.641l-5.982,-5.323c-5.317,-3.323 -11.302,-4.648 -17.949,-4.648c-7.975,1.325 -12.63,2.663 -15.288,5.317c-2.659,1.992 -3.324,5.316 -2.659,9.303c0,4.66 1.993,7.984 3.989,9.971l15.954,2c6.647,-0.662 11.964,-3.324 17.284,-7.311l5.317,-6.647l-0.666,-2.662Zm-36.561,2.661c0,-3.992 3.989,-6.647 12.63,-6.647c7.313,-1.337 13.96,0.662 18.615,5.979c-3.324,5.979 -9.972,8.641 -17.284,9.303l-11.964,-1.324c-1.331,-0.663 -1.996,-2.662 -1.996,-5.323l0,-1.988l-0.001,0Z" style="fill-rule:nonzero;"/><path d="M114.878,545.346c-0.666,-1.985 -1.331,-1.985 -2.658,-1.985c-1.996,0 -2.659,1.323 -2.659,3.324l3.986,24.59c0.665,1.999 1.997,2.661 3.324,1.999c1.996,0 1.996,-1.337 1.996,-2.661l-3.989,-25.267Z" style="fill-rule:nonzero;"/><path d="M114.212,510.122l-7.312,-1.337c-3.324,0 -5.982,1.337 -6.648,3.324c-1.993,2.661 -2.658,7.316 -1.328,13.964c0.666,5.979 3.324,11.302 7.313,15.949l5.982,3.993l4.651,-5.979c2.662,-4.66 3.989,-10.64 2.662,-16.618c-0.665,-6.647 -2.661,-11.309 -5.32,-13.296Z" style="fill:#d96038;fill-rule:nonzero;"/><path d="M122.19,522.749c-1.331,-7.316 -3.324,-12.627 -5.32,-14.626c-2.659,-1.993 -5.982,-2.661 -9.971,-2.661c-4.652,1.337 -7.976,2.661 -9.306,5.323c-1.993,3.323 -1.993,8.641 -1.328,15.956c1.328,10.634 6.647,17.942 14.623,21.929l3.323,-0.662c6.649,-5.986 9.973,-14.619 7.979,-25.259Zm-9.305,-10.64c1.327,1.337 2.659,5.323 3.986,11.309l0.666,3.985c0,5.985 -1.993,11.295 -5.316,15.288c-5.982,-2.655 -9.972,-8.641 -11.302,-17.287l0,-5.979c0,-3.324 0.666,-5.979 1.996,-6.648c1.328,-0.668 2.659,-1.33 4.651,-1.992c2.658,0 4.654,0 5.319,1.324Z" style="fill-rule:nonzero;"/><path d="M71.004,603.188l9.971,5.31l22.601,1.338c6.648,-1.338 11.968,-6.647 15.957,-13.295l3.986,-9.972c-2.658,-1.999 -4.651,-3.992 -8.64,-5.985c-7.313,-3.323 -13.96,-3.985 -21.273,-1.999c-6.647,1.999 -12.629,6.647 -17.946,14.632c-1.997,3.323 -3.991,6.646 -4.656,9.971Z" style="fill:#858585;fill-rule:nonzero;"/><path d="M104.241,613.158c7.313,-2.662 13.295,-7.985 17.949,-14.633c1.993,-5.31 3.324,-8.633 3.324,-11.295l0,-1.999c-1.331,-1.986 -4.654,-4.648 -9.971,-6.647c-7.313,-3.986 -15.292,-5.311 -23.267,-2.655c-7.313,2.655 -13.294,7.316 -17.949,14.626c-3.324,3.986 -5.317,7.971 -5.982,11.295l0.665,3.323l11.299,5.985c7.979,3.324 15.957,3.987 23.932,2Zm16.619,-25.265c-3.324,10.633 -9.971,17.28 -18.612,19.942c-8.644,2.661 -17.949,0.662 -27.92,-5.985c3.989,-11.295 10.637,-17.942 19.942,-20.604c9.306,-2.662 17.95,-0.663 26.59,6.647Z" style="fill-rule:nonzero;"/><path d="M138.81,581.907c-0.666,-1.986 -1.997,-1.986 -3.324,-1.986l-13.295,3.986c-1.331,1.324 -1.996,2.661 -1.331,3.985c0,2 1.331,2 3.324,2l13.295,-4.661c1.331,-0.662 1.331,-1.986 1.331,-3.324Z" style="fill-rule:nonzero;"/><path d="M142.798,522.081l-7.313,9.309c-4.655,7.309 -5.982,14.626 -4.655,21.942c0.666,7.309 4.655,13.294 10.637,18.604l9.306,4.661l7.313,-7.985c4.654,-5.979 6.647,-13.295 5.316,-19.942c-1.328,-7.971 -5.316,-14.619 -11.299,-19.941l-9.305,-6.648Z" style="fill:#858585;fill-rule:nonzero;"/><path d="M133.489,530.065c-4.651,7.31 -6.647,15.28 -5.982,23.267c1.331,8.633 5.982,15.28 12.63,19.941c3.323,3.324 6.647,5.311 9.971,5.979l1.996,-0.668l8.641,-7.972c4.654,-7.311 6.647,-14.626 5.32,-22.604c-1.331,-7.972 -5.32,-14.619 -11.967,-21.267c-3.989,-3.323 -7.313,-5.985 -9.972,-6.647l-3.323,0l-7.314,9.971Zm0,23.267l-0.662,-4.662c0,-7.309 3.324,-15.281 10.633,-23.266c9.971,5.985 15.291,13.294 17.284,23.266l0.666,3.992c0,7.979 -3.989,14.626 -10.637,20.611c-10.636,-3.324 -16.618,-10.639 -17.284,-19.941Z" style="fill-rule:nonzero;"/><path d="M153.432,576.598c0,-2 -1.328,-2.662 -2.658,-2.662c-2.659,0 -2.659,1.324 -2.659,3.324l2.659,13.295l0.665,1.324l2.659,0.669c1.331,0 1.996,-0.669 1.331,-2.655l-1.997,-13.295Z" style="fill-rule:nonzero;"/></g></g><rect id="PATH77" x="2.92" y="2.74" width="366.67" height="582.52" style="fill:none;stroke:#000;stroke-width:3px;"/></svg>