<?xml version="1.0" encoding="UTF-8" standalone="no"?><!DOCTYPE svg PUBLIC "-//W3C//DTD SVG 1.1//EN" "http://www.w3.org/Graphics/SVG/1.1/DTD/svg11.dtd"><svg width="100%" height="100%" viewBox="0 0 372 587" version="1.1" xmlns="http://www.w3.org/2000/svg" xmlns:xlink="http://www.w3.org/1999/xlink" xml:space="preserve" xmlns:serif="http://www.serif.com/" style="fill-rule:evenodd;clip-rule:evenodd;stroke-miterlimit:100;"><g><clipPath id="_clip1"><rect x="2.4" y="128.631" width="367.985" height="457.644"/></clipPath><g clip-path="url(#_clip1)"><path d="M166.557,286.461l-8.619,17.243c-5.307,15.255 -9.286,33.821 -11.274,53.053c-6.632,63.664 7.296,135.948 42.44,218.178l167.782,-70.291c-35.149,-82.234 -77.592,-143.243 -126.664,-183.032c-15.255,-12.599 -30.506,-22.547 -46.421,-29.179l-17.244,-5.972Z" style="fill:#858585;fill-rule:nonzero;"/><path d="M166.557,283.146c-0.662,0 -1.987,0 -3.314,1.328c-2.652,3.979 -5.968,10.611 -9.283,19.894c-5.308,15.916 -9.285,33.157 -11.275,53.717c-5.969,63 8.623,135.283 43.104,218.178c0.664,2.652 2.652,2.652 3.98,1.988l2.651,-3.316l0,-1.323c-29.178,-68.968 -43.769,-131.968 -43.769,-187.676c0,-24.535 2.655,-45.757 7.959,-65.651c3.315,-12.6 6.632,-22.547 11.275,-29.843c21.883,6.632 45.093,20.559 70.291,42.442c45.098,39.788 83.56,97.484 115.393,173.083c0.661,1.993 1.988,2.652 3.977,1.329c2.655,-0.665 3.316,-1.992 1.991,-3.979c-34.485,-82.896 -76.927,-143.242 -126,-183.032c-15.255,-13.265 -30.506,-22.547 -46.42,-29.843c-8.624,-3.981 -15.256,-5.968 -20.56,-7.296Z" style="fill-rule:nonzero;"/><path d="M177.168,312.327c0.664,-7.295 0.664,-14.59 -0.663,-21.222c-1.327,-13.927 -6.631,-19.231 -14.591,-15.251c-8.619,3.315 -8.619,9.948 0,21.219l15.254,15.254Z" style="fill:#ffe700;fill-rule:nonzero;"/><path d="M160.59,272.538c-3.979,1.989 -6.631,5.304 -7.295,8.62c-0.664,5.967 2.652,12.599 9.283,20.559l13.264,12.599l2.651,0.664l1.328,-1.991l0,-18.566c-0.665,-10.612 -3.316,-17.908 -7.96,-21.223l-11.271,-0.662Zm-1.992,9.947c0,-2.655 1.328,-3.316 3.98,-4.643c2.652,-1.328 3.979,-1.328 5.968,0c4.644,3.316 6.632,11.936 6.632,26.526l0,2.651c-11.271,-10.61 -16.58,-18.566 -16.58,-23.874l0,-0.66Z" style="fill-rule:nonzero;"/><path d="M179.821,311.663c-1.328,-1.326 -2.653,-1.991 -3.316,-1.326c-1.989,0.663 -2.652,1.326 -1.989,3.315l27.188,72.947c21.886,59.684 44.434,117.38 68.307,173.748c1.324,1.325 1.988,1.988 3.316,0.665l1.988,-1.992l0,-1.325c-27.19,-64.327 -53.053,-129.979 -78.252,-196.958c28.515,59.684 57.692,123.348 86.211,191.651c1.324,1.991 1.988,2.652 3.315,1.328c1.988,-0.664 2.652,-1.328 1.988,-3.316c-38.461,-89.526 -74.934,-169.769 -108.756,-238.737Z" style="fill-rule:nonzero;"/><path d="M155.282,316.304c-1.323,-1.324 -1.987,-1.324 -3.315,0c-1.324,1.328 -1.324,2.655 0,3.98l8.623,7.294c7.956,5.969 15.915,9.947 25.198,13.928c1.329,0.663 2.652,0 3.315,-1.327c0.665,-1.988 0,-2.653 -1.986,-3.316c-7.961,-3.979 -16.58,-8.619 -23.875,-13.263l-7.96,-7.296Z" style="fill-rule:nonzero;"/><path d="M149.979,339.515l-3.315,0.664c-1.327,0.664 -1.327,1.99 0,3.979l17.243,12.599c12.599,7.96 24.534,13.927 33.821,17.908c1.988,0 2.651,0 3.977,-1.329c0,-1.987 0,-3.315 -1.988,-3.315c-9.947,-3.98 -20.56,-9.946 -33.159,-18.567l-16.579,-11.939Z" style="fill-rule:nonzero;"/><path d="M146.663,368.696c-0.663,-0.664 -2.652,-0.664 -3.315,1.324c-0.664,0.663 -0.664,1.992 0,3.315l19.23,11.275c14.59,8.619 30.506,15.915 47.085,21.219c1.988,0.664 3.315,-0.66 3.315,-1.987c0,-1.988 0,-2.653 -1.327,-3.316c-16.579,-5.305 -31.83,-11.937 -47.082,-19.896l-17.906,-11.934Z" style="fill-rule:nonzero;"/><path d="M200.379,299.725c0,-1.987 -0.663,-2.651 -3.315,-2.651c-1.328,0 -1.991,0.664 -1.991,2.651l-0.66,11.275c-1.329,8.619 -3.981,17.243 -7.961,25.862c0,1.328 0,3.316 1.988,3.98c1.328,0 2.654,0 3.315,-1.989c3.979,-8.622 6.632,-17.906 7.96,-27.854l0.664,-11.274Z" style="fill-rule:nonzero;"/><path d="M218.282,310.337c-1.988,-0.665 -2.651,0.663 -2.651,1.99l-3.315,19.895c-2.652,15.253 -5.969,27.853 -9.948,36.475c-1.324,1.987 -0.663,2.652 0.664,3.316c1.988,1.323 3.315,0 3.315,-1.329c4.644,-9.946 8.62,-21.882 11.275,-36.474l2.652,-21.883c0,-1.327 -0.664,-1.99 -1.992,-1.99Z" style="fill-rule:nonzero;"/><path d="M241.494,328.243c-1.988,0 -2.652,0.663 -2.652,2.651l-4.641,19.896c-4.644,16.579 -10.611,32.493 -17.907,47.747c-1.327,1.989 -0.663,2.652 0.665,3.317c1.988,1.323 2.651,0.66 3.979,-1.328c7.957,-15.252 13.925,-31.83 18.568,-48.409l3.979,-21.223c0,-1.327 -0.664,-2.651 -1.991,-2.651Z" style="fill-rule:nonzero;"/><path d="M372.137,256.62c-10.611,-18.567 -21.883,-34.482 -34.485,-47.082l-15.252,-14.59c-16.578,11.275 -33.157,31.83 -49.072,61.672c-33.158,61.012 -49.737,139.927 -49.737,236.085l-51.064,110.748l248.021,0l0,-110.748c-0.002,-96.158 -15.918,-175.073 -48.411,-236.085Z" style="fill:#858585;fill-rule:nonzero;"/><path d="M324.388,192.295c-1.324,-0.664 -2.651,-0.664 -3.976,0c-17.906,12.6 -35.149,33.822 -51.065,64.325c-32.493,60.348 -48.409,138.602 -49.072,235.422l-50.4,110.083l-0.665,1.328l0.665,1.988l2.651,1.327l248.021,0c2.655,0 3.315,-0.663 3.315,-3.315l0,-110.748c0,-96.822 -15.915,-175.073 -48.409,-236.085c-9.947,-19.231 -21.222,-35.146 -33.821,-48.409l-17.244,-15.916Zm-1.989,7.295c19.231,15.252 36.475,38.462 52.39,71.62c28.518,58.357 42.441,132.632 42.441,221.495l0,107.433l-239.398,0l49.074,-106.105l0,-1.327c0,-88.862 14.588,-163.138 43.104,-221.495c15.916,-33.158 33.159,-56.369 52.389,-71.621Z" style="fill-rule:nonzero;"/><path d="M322.399,216.83c-1.328,0 -2.65,1.328 -2.65,2.656l-4.645,118.04c-3.316,94.171 -3.98,185.021 -2.651,269.907c0,1.324 0.663,2.652 2.651,2.652c1.327,0 2.651,-1.328 2.651,-2.652l-1.324,-88.202c0,-78.25 2.651,-161.146 5.968,-248.02c3.315,86.875 5.968,169.77 5.968,248.02l-1.323,88.202c0,1.324 1.323,2.652 2.651,2.652c1.988,0 2.651,-1.328 2.651,-2.652c1.989,-84.886 0.664,-175.736 -1.988,-269.907l-5.307,-118.04c0.001,-1.328 -0.663,-2.656 -2.652,-2.656Z" style="fill-rule:nonzero;"/><path d="M299.189,221.474c-0.664,-1.328 -1.988,-1.988 -3.315,-1.328c-1.989,1.328 -2.652,1.992 -1.989,3.316l5.305,11.275c5.304,8.62 11.935,16.58 19.894,24.539c1.329,0.66 2.653,0.66 3.316,0c1.988,-1.328 1.988,-2.656 0,-3.316c-6.631,-7.295 -13.263,-15.254 -17.906,-23.21l-5.305,-11.276Z" style="fill-rule:nonzero;"/><path d="M283.938,242.696c-1.327,-1.328 -1.991,-1.328 -3.979,-1.328c-1.327,1.328 -1.99,1.988 -0.664,3.98l11.937,19.23c8.623,14.591 17.906,25.199 25.866,33.159c1.986,0.663 2.652,0.663 3.975,0c1.328,-1.989 1.328,-3.315 0,-3.98c-8.618,-7.955 -16.578,-17.903 -25.861,-32.494l-11.274,-18.567Z" style="fill-rule:nonzero;"/><path d="M281.283,289.117l-12.6,-17.907c-0.664,-1.988 -2.652,-1.988 -3.98,-1.327c-1.988,0.664 -1.988,1.991 -1.324,3.315l13.264,19.234c11.936,15.252 25.198,28.515 39.126,41.114c1.987,0.663 3.314,0.663 3.98,0c1.322,-1.988 1.322,-2.652 -0.666,-4.641c-13.926,-11.273 -26.524,-24.537 -37.8,-39.788Z" style="fill-rule:nonzero;"/><path d="M255.419,302.381c-1.986,-1.328 -2.651,-1.328 -3.979,-0.664c-1.987,1.324 -1.987,2.651 -0.659,3.979l20.554,25.862c16.58,19.231 30.506,33.822 43.77,43.77l3.315,-0.663c0.663,-0.666 0.663,-2.652 0,-3.981c-12.599,-9.283 -27.189,-23.209 -43.104,-42.44l-19.897,-25.863Z" style="fill-rule:nonzero;"/><path d="M244.809,334.874c-1.323,-0.664 -1.987,-1.327 -3.314,-0.664c-1.988,1.328 -1.988,2.652 -1.325,3.98l20.56,26.526c17.239,19.895 35.146,37.138 53.052,51.061l3.976,-0.66c0.664,-1.327 0.664,-1.992 -0.659,-3.979c-17.907,-13.264 -35.15,-29.843 -51.729,-49.737l-20.561,-26.527Z" style="fill-rule:nonzero;"/><path d="M236.19,370.021l-3.317,0c-1.326,0.663 -1.326,1.992 0,3.979l25.863,29.179c20.558,21.887 38.465,39.126 54.38,51.729l3.315,0c1.324,-1.327 1.324,-2.655 0,-3.979c-15.914,-12.599 -33.821,-29.842 -53.717,-51.728l-26.524,-29.18Z" style="fill-rule:nonzero;"/><path d="M232.21,399.862c-0.663,-1.325 -2.652,-1.988 -3.979,-0.663c-1.324,1.327 -1.988,2.655 -0.661,3.979l25.198,30.507c19.895,23.873 40.454,42.441 59.686,56.368l3.979,-0.664c1.324,-1.987 1.324,-2.652 -0.663,-3.315c-19.231,-13.928 -39.126,-32.494 -59.021,-55.705l-24.539,-30.507Z" style="fill-rule:nonzero;"/><path d="M222.263,430.368l-3.98,0c-1.988,0 -1.988,1.328 0,3.316l30.506,34.485c23.874,25.198 45.097,43.105 63.665,54.377c1.987,0.663 3.315,0 3.979,-1.325c1.324,-1.327 0.665,-2.655 -0.663,-3.979c-18.567,-9.946 -39.79,-27.854 -63.001,-53.053l-30.506,-33.821Z" style="fill-rule:nonzero;"/><path d="M322.399,219.486c3.315,-7.295 6.631,-14.591 8.62,-21.886c3.979,-14.587 1.327,-21.883 -8.62,-21.883c-9.946,0 -12.599,7.295 -8.619,21.883c1.989,7.295 5.303,14.59 8.619,21.886Z" style="fill:#ffe700;fill-rule:nonzero;"/><path d="M333.011,178.369c-1.991,-3.316 -5.308,-5.304 -10.611,-5.304c-4.644,0 -8.619,1.988 -10.611,5.304c-3.315,4.644 -2.651,13.263 0.665,24.538c2.651,6.632 4.644,13.264 7.296,17.904c0.663,0.664 1.322,1.328 2.65,1.328l2.652,-1.328l7.295,-17.904c3.315,-11.276 3.979,-19.895 0.664,-24.538Zm-17.242,3.316c1.328,-1.988 3.314,-3.316 6.631,-3.316c3.315,0 5.304,1.328 6.631,3.316c0.665,0.664 0.665,2.651 0.665,5.304c0,5.971 -1.992,14.591 -7.296,26.526c-4.644,-11.936 -7.295,-20.555 -7.295,-26.526l0.664,-5.304Z" style="fill-rule:nonzero;"/><path d="M222.926,473.474c-0.663,-1.328 -1.988,-1.328 -3.315,0c-1.328,0.663 -1.328,2.652 0,3.315l28.515,27.854c23.21,21.219 44.434,37.135 64.991,48.409c1.324,1.327 2.652,0.664 3.315,-0.664c1.324,-1.988 0.665,-3.315 -0.663,-3.979c-19.895,-11.272 -41.118,-27.188 -64.328,-47.746l-28.515,-27.189Z" style="fill-rule:nonzero;"/><path d="M209,500.001l-3.98,-0.664c-1.325,1.327 -1.325,1.99 0,3.979l33.157,30.506c26.526,21.883 51.065,38.461 74.939,49.072c1.988,0.664 2.652,0.664 3.98,-1.328c0.659,-1.323 0,-2.651 -1.328,-3.315c-23.21,-10.607 -47.749,-26.525 -74.274,-48.409l-32.494,-29.841Z" style="fill-rule:nonzero;"/><path d="M198.388,525.198c-1.324,-1.324 -2.652,-1.324 -3.975,0c-1.329,1.328 -1.329,2.655 0,3.98l21.881,19.895c17.243,14.591 32.494,25.202 45.758,33.157c1.327,0.664 2.651,0 3.316,-1.323c0.663,-1.329 0.663,-1.992 -0.665,-3.316c-12.6,-7.296 -27.85,-18.57 -45.093,-32.497l-21.222,-19.896Z" style="fill-rule:nonzero;"/><path d="M348.927,220.146c-1.328,-0.66 -2.652,0 -3.316,1.328c-3.979,11.275 -11.937,22.547 -23.211,34.485c-1.328,0.661 -1.328,1.988 0,3.316c0.664,1.324 2.652,1.324 3.315,0c12.6,-11.939 20.56,-23.875 25.199,-35.813c0,-1.988 0,-2.652 -1.987,-3.316Z" style="fill-rule:nonzero;"/><path d="M364.178,241.368c-1.325,-0.664 -2.652,0 -3.315,1.328c-11.936,21.883 -24.536,39.126 -36.475,51.061c-1.988,0.665 -1.988,1.991 -0.66,3.98c1.324,0.663 1.987,0.663 3.976,0c13.264,-12.6 25.866,-29.843 37.802,-52.389c1.327,-1.992 0.663,-2.652 -1.328,-3.98Z" style="fill-rule:nonzero;"/><path d="M380.096,269.883c-1.327,-0.661 -2.656,-0.661 -3.315,1.327l-13.263,17.907c-11.275,15.251 -23.875,28.515 -37.803,39.789c-1.327,1.988 -1.327,2.652 -0.663,4.641c0.663,0.663 2.651,0.663 3.979,0c13.928,-12.6 27.191,-25.862 38.463,-41.114l13.263,-19.234c1.327,-1.325 0.664,-1.989 -0.661,-3.316Z" style="fill-rule:nonzero;"/><path d="M393.359,301.717l-3.316,0.664l-20.559,25.862c-15.915,19.231 -30.506,33.157 -43.105,42.44c-0.664,1.329 -0.664,3.315 0,3.981l3.316,0.663c13.263,-9.947 27.851,-24.538 43.77,-43.77l20.555,-25.862c1.328,-1.327 1.328,-2.654 -0.661,-3.978Z" style="fill-rule:nonzero;"/><path d="M403.967,334.21l-3.978,0.664l-19.893,26.526c-16.578,19.895 -34.485,36.474 -52.393,49.737c-1.324,1.987 -1.324,2.652 0,3.979l3.316,0.66c17.907,-13.923 35.813,-31.166 53.053,-51.061l19.895,-26.526c1.328,-1.327 1.328,-2.651 0,-3.979Z" style="fill-rule:nonzero;"/><path d="M411.926,370.021l-3.979,0c-27.19,33.822 -53.716,60.348 -79.579,80.906c-1.323,1.324 -1.323,2.652 0,3.979l3.316,0c15.915,-12.603 33.821,-29.842 54.381,-51.729l25.861,-29.179c1.328,-1.985 1.328,-3.314 0,-3.977Z" style="fill-rule:nonzero;"/><path d="M416.569,399.199c-1.327,-1.325 -2.655,-0.662 -3.979,0.663l-24.538,30.506c-19.895,23.211 -39.125,41.777 -59.021,55.705c-1.327,0.663 -1.327,1.328 -0.663,3.315l3.979,0.664c19.231,-13.927 39.79,-32.495 59.684,-56.368l25.2,-30.507c0.664,-1.323 0.664,-2.651 -0.662,-3.978Z" style="fill-rule:nonzero;"/><path d="M426.517,430.368l-3.315,0l-31.171,33.821c-23.209,25.199 -44.432,43.106 -63,53.053c-1.327,1.324 -1.327,2.652 -0.663,3.979c0.663,1.325 1.991,1.988 3.979,1.325c18.567,-11.271 39.79,-29.179 63.664,-54.377l31.167,-34.485c1.327,-1.988 1.327,-3.316 -0.661,-3.316Z" style="fill-rule:nonzero;"/><path d="M425.189,473.474c-1.328,-1.328 -2.652,-1.328 -3.316,0l-28.514,27.19c-22.55,20.558 -44.433,36.474 -64.329,47.746c-1.327,1.326 -1.327,2.654 -0.663,3.979c0.663,1.328 1.991,1.328 3.316,0.664c20.559,-11.274 42.441,-27.19 64.99,-48.409l28.516,-27.854c1.989,-0.664 1.989,-2.653 0,-3.316Z" style="fill-rule:nonzero;"/><path d="M439.78,499.337l-3.316,0.664l-32.497,29.841c-26.527,21.884 -51.725,37.802 -74.937,48.409c-1.327,0.664 -1.986,1.992 -1.327,3.315c1.327,1.992 1.992,1.992 3.98,1.328c23.874,-10.611 49.072,-27.189 75.599,-49.072c13.264,-11.275 23.875,-21.224 32.498,-30.506c0.661,-1.989 0.661,-2.652 0,-3.979Z" style="fill-rule:nonzero;"/><path d="M90.295,199.59c-15.916,-26.526 -30.506,-44.433 -45.094,-54.379c-14.592,9.947 -29.182,27.854 -45.098,54.379c-30.505,53.713 -48.408,122.021 -52.388,206.904l11.274,227.465l211.547,0c36.474,-57.696 59.685,-118.708 68.969,-183.032c3.315,-19.894 3.979,-39.125 3.979,-57.032l-0.664,-21.882c-25.199,0.659 -49.737,6.63 -72.947,17.902l-27.19,16.579c-3.979,-84.883 -21.882,-153.19 -52.388,-206.904Z" style="fill:#858585;fill-rule:nonzero;"/><path d="M46.525,142.559c-0.664,-0.664 -1.988,-0.664 -3.315,0c-16.579,10.611 -31.831,30.505 -47.085,57.031c-30.503,53.054 -47.746,122.021 -51.725,206.904l11.274,227.465c0,2.653 0.661,3.316 3.315,3.316l211.547,0c1.324,0 1.988,-0.663 2.652,-1.328c36.474,-57.032 59.684,-118.705 69.632,-183.032c2.65,-20.56 3.979,-39.79 3.979,-59.021l-1.329,-22.546c0,-1.328 -0.663,-2.652 -3.314,-2.652c-21.22,0.659 -41.778,5.303 -62.336,12.599c-13.265,5.968 -24.539,11.936 -33.821,19.231c-5.305,-82.895 -22.547,-149.875 -53.054,-202.263c-14.586,-25.863 -29.841,-45.093 -46.42,-55.704Zm-1.324,7.295c17.239,13.263 33.818,34.482 48.41,63c27.189,51.725 42.439,116.052 45.756,193.64c0,1.327 0.664,1.991 1.992,3.315l3.314,-0.663l26.527,-15.916c21.883,-11.271 44.43,-16.579 68.305,-17.902l0.663,21.219c0,30.506 -3.979,61.676 -11.938,94.833c-11.937,49.073 -31.831,95.494 -59.685,139.264l-206.238,0l-11.275,-224.149c3.316,-77.588 18.567,-141.916 45.758,-193.64c15.253,-28.519 31.169,-49.738 48.411,-63.001Z" style="fill-rule:nonzero;"/><path d="M45.201,175.053c3.977,-6.631 6.632,-14.591 8.619,-21.883c3.98,-14.591 0.664,-21.223 -8.619,-21.223c-9.287,0 -11.938,6.632 -8.623,21.223c1.992,7.292 4.643,15.251 8.623,21.883Z" style="fill:#ffe700;fill-rule:nonzero;"/><path d="M45.201,128.631c-5.307,0 -8.623,1.988 -10.611,5.305c-4.644,7.959 -1.991,22.55 8.62,42.444c0,1.324 1.327,1.989 1.991,1.989c1.324,0 1.988,-0.665 2.652,-1.989c9.947,-19.894 12.6,-34.485 7.955,-42.444c-1.988,-3.316 -5.966,-5.305 -10.607,-5.305Zm5.968,7.96l1.988,6.631c0,5.968 -3.315,14.587 -7.956,25.862c-5.307,-11.275 -7.296,-19.894 -7.296,-25.862l1.325,-6.631c0.664,-1.328 3.315,-2.655 5.971,-2.655c2.653,0 4.641,1.327 5.968,2.655Z" style="fill-rule:nonzero;"/><path d="M45.201,173.064c-1.991,0 -2.655,0.66 -2.655,1.988c-5.968,89.526 -7.956,189 -7.956,299.748l0,82.895l-37.801,-28.517l-3.316,0l-0.664,1.99l-1.324,17.241l0.664,1.99l51.062,41.113l1.327,0.664l1.324,0l1.328,-0.664c55.041,-36.473 101.462,-78.915 139.263,-128.651c18.567,-24.534 31.83,-45.757 39.79,-63.663c0.664,-1.988 0,-2.652 -0.664,-3.316c-1.988,-1.324 -2.652,-0.661 -3.315,0.664c-15.252,18.57 -33.159,39.789 -53.717,61.676c-42.442,45.757 -79.579,78.915 -113.397,100.135l1.324,-83.557c0,-110.748 -3.315,-210.222 -8.619,-299.748c-0.001,-1.327 -1.33,-1.988 -2.654,-1.988Zm5.968,392.588l2.651,0c26.527,-16.579 55.705,-41.114 88.199,-72.284c21.887,-22.547 44.433,-45.758 65.655,-71.619c-14.591,25.198 -33.159,49.072 -55.044,72.947c-31.167,34.482 -66.979,64.324 -106.77,91.514c-14.587,-10.61 -31.166,-23.209 -49.072,-39.125l0.663,-10.611c15.915,12.6 29.179,22.547 39.126,29.179l2.652,0l1.327,-1.988l-0.663,-88.863c0,-78.254 1.326,-160.485 5.307,-247.359c3.977,86.874 5.968,169.105 5.968,247.359l-1.327,88.863l1.328,1.987Z" style="fill-rule:nonzero;"/><path d="M21.99,169.749c-0.663,-1.327 -1.99,-1.327 -3.315,-1.327c-1.991,0.663 -2.655,1.988 -1.991,3.316l5.967,11.275c5.309,8.619 11.275,16.578 18.57,24.535c1.989,0.664 3.316,0.664 4.641,0c0.664,-1.324 0.664,-2.652 0,-3.979c-7.956,-7.292 -13.924,-14.587 -19.23,-23.211l-4.642,-10.609Z" style="fill-rule:nonzero;"/><path d="M6.736,190.968c-0.664,-1.324 -1.988,-1.324 -3.316,-1.324c-1.987,1.324 -2.652,1.988 -1.324,3.977l11.936,19.234c9.283,14.587 17.243,25.199 25.863,33.158c1.326,0.661 2.651,0.661 3.979,0c0.664,-1.328 0.664,-3.316 -0.663,-4.644c-7.296,-6.631 -15.915,-17.906 -25.198,-31.83l-11.277,-18.571Z" style="fill-rule:nonzero;"/><path d="M42.546,277.842c-14.587,-11.936 -27.187,-25.199 -38.462,-39.79l-12.6,-18.567c-1.328,-1.992 -1.991,-2.656 -3.979,-1.328c-1.328,0.664 -1.989,1.988 -1.328,3.315l13.926,19.231c11.275,15.254 24.539,28.518 38.467,41.117l3.976,-0.664c0.664,-1.326 0.664,-2.65 0,-3.314Z" style="fill-rule:nonzero;"/><path d="M41.221,322.936c1.325,-1.324 1.325,-1.988 0,-3.977c-12.598,-9.287 -27.189,-23.874 -43.104,-42.445l-19.896,-25.198l-3.979,-1.328c-1.328,1.328 -1.328,2.655 -0.664,3.979l20.559,25.862c15.916,19.234 30.506,33.822 43.769,43.77c0.664,0.664 1.989,0.664 3.315,-0.663Z" style="fill-rule:nonzero;"/><path d="M39.895,364.053c1.326,-1.988 1.326,-3.315 0,-3.979c-17.905,-13.264 -35.147,-30.507 -51.726,-50.402l-20.559,-26.526c-1.327,-0.661 -1.988,-1.324 -3.315,-0.661c-1.988,1.989 -1.988,3.316 -1.328,3.976l20.559,26.527c16.578,20.559 35.149,37.138 53.053,51.064l3.316,0l0,0.001Z" style="fill-rule:nonzero;"/><path d="M39.895,403.178c0.663,-1.988 0.663,-2.651 -0.664,-3.315c-25.863,-20.559 -52.389,-47.745 -79.58,-81.566l-3.976,-0.664c-1.327,1.327 -1.327,3.315 0,3.979c27.851,33.822 54.378,61.672 80.239,82.231l3.981,-0.665Z" style="fill-rule:nonzero;"/><path d="M39.23,437.664c0.664,-1.328 0.664,-2.652 -0.66,-3.979c-19.234,-13.264 -38.467,-31.83 -59.023,-55.042l-25.199,-30.505c-0.664,-1.328 -1.328,-1.328 -3.316,-0.663c-1.327,1.327 -1.327,2.651 -0.664,3.315l25.202,31.17c20.556,23.87 40.45,42.441 60.345,56.368l3.315,-0.664Z" style="fill-rule:nonzero;"/><path d="M39.23,470.158c0.664,-1.988 0.664,-3.316 -1.325,-3.98c-17.905,-11.272 -37.801,-28.514 -59.02,-52.388l-27.854,-33.159c-0.664,-1.988 -2.652,-1.988 -3.315,-0.663c-1.327,1.327 -1.327,2.652 -0.664,3.979l27.854,33.822c21.883,23.875 41.777,41.777 61.008,52.39c0.664,1.326 1.991,1.326 3.316,-0.001Z" style="fill-rule:nonzero;"/><path d="M72.389,168.421c-1.988,0 -3.316,0 -3.316,1.327c-4.641,11.271 -12.6,22.546 -24.535,33.819c-0.664,1.328 -0.664,2.655 0,3.979c1.988,1.328 3.316,1.328 3.98,0c12.599,-11.936 21.219,-23.875 25.198,-35.81c0.663,-1.326 0,-2.652 -1.327,-3.315Z" style="fill-rule:nonzero;"/><path d="M87.643,189.644c-1.991,-0.664 -3.316,0 -3.979,1.324c-12.6,21.886 -24.538,39.125 -37.138,50.4c-0.664,1.328 -0.664,2.653 0,4.644c1.328,0.661 2.652,0.661 3.316,0c13.263,-12.603 26.525,-29.842 38.465,-52.392c1.324,-1.989 0.66,-3.316 -0.664,-3.976Z" style="fill-rule:nonzero;"/><path d="M102.894,218.158c-1.987,-0.664 -3.315,0 -3.979,1.328c-11.271,19.23 -28.514,38.461 -51.061,58.356c-1.328,0.664 -1.328,1.988 0,3.316l3.315,0.664c23.21,-19.895 41.114,-39.79 52.389,-60.348c0.663,-1.328 0.663,-2.652 -0.664,-3.316Z" style="fill-rule:nonzero;"/><path d="M116.157,249.988c-1.988,-0.661 -2.652,-0.661 -3.315,1.328l-20.559,25.198c-15.916,18.571 -29.843,33.158 -42.441,42.445c-1.988,1.325 -1.988,2.652 -0.664,3.977c0.664,1.327 1.991,1.327 3.979,0.664c12.599,-9.947 26.526,-24.535 43.104,-43.77l20.56,-25.862c0.663,-1.324 0.663,-2.652 -0.664,-3.98Z" style="fill-rule:nonzero;"/><path d="M126.104,282.485l-3.314,0.661c-19.896,29.181 -43.105,55.044 -72.283,76.928c-1.328,0.663 -1.328,1.99 -0.664,3.979l3.979,0c18.568,-13.927 35.811,-30.506 52.389,-51.064l21.223,-26.527c0.662,-1.324 -0.002,-2.652 -1.33,-3.977Z" style="fill-rule:nonzero;"/><path d="M134.064,317.632l-3.316,0.664c-27.854,33.821 -54.381,61.008 -79.579,81.566c-1.327,0.664 -1.327,1.327 0,3.315l3.315,0.665c25.199,-20.56 51.725,-48.409 80.243,-82.231c1.324,-1.327 1.324,-2.652 -0.663,-3.979Z" style="fill-rule:nonzero;"/><path d="M139.367,347.475l-3.979,0.663l-24.535,30.505c-19.895,23.212 -39.79,41.778 -59.685,55.042c-1.327,1.327 -1.327,2.651 0,3.979l3.315,0.664c19.895,-13.927 39.789,-32.498 60.348,-56.368l25.199,-31.17c0.665,-0.664 0.665,-1.988 -0.663,-3.315Z" style="fill-rule:nonzero;"/><path d="M142.684,379.968c-1.988,-1.325 -2.652,-1.325 -3.316,0.663l-27.189,33.159c-21.883,23.874 -42.441,41.116 -60.345,52.388c-1.991,0.664 -1.991,1.992 -0.664,3.98c1.324,1.327 1.988,1.327 3.315,0c18.567,-10.612 39.127,-28.515 61.01,-52.39l27.854,-33.822c0.662,-1.326 0.662,-2.651 -0.665,-3.978Z" style="fill-rule:nonzero;"/><path d="M223.59,397.874l19.231,-13.263c11.935,-9.946 13.263,-17.242 5.304,-23.211c-7.956,-4.644 -14.588,-0.663 -19.23,13.928c-2.653,6.632 -3.981,14.587 -5.305,22.546Z" style="fill:#ffe700;fill-rule:nonzero;"/><path d="M249.453,359.408c-3.981,-2.651 -7.959,-3.314 -11.937,-1.986c-5.307,2.652 -9.286,9.947 -12.603,21.221c-1.988,5.969 -2.651,12.6 -3.315,19.231l1.327,2.652l2.652,0l15.916,-10.611c8.622,-7.955 13.925,-14.587 13.925,-19.895c0.666,-4.639 -1.985,-7.956 -5.965,-10.612Zm-9.947,3.317l6.632,1.328c2.65,1.328 3.979,3.316 3.979,5.303l0,0.665c0,5.967 -7.295,13.926 -23.21,23.21c3.315,-17.903 7.294,-27.85 12.599,-30.506Z" style="fill-rule:nonzero;"/><path d="M196.399,377.315c-1.327,-0.664 -2.652,0 -2.652,1.988l-1.991,15.255l-3.315,43.105c0,1.987 0.663,2.65 1.991,2.65c1.988,0 2.652,-0.663 2.652,-2.65l3.315,-42.442l2.651,-14.591c0.001,-1.987 -0.662,-3.315 -2.651,-3.315Z" style="fill-rule:nonzero;"/><path d="M167.221,388.59c-1.326,0 -1.99,0.662 -2.651,1.988l-1.327,24.539l-0.664,51.061c0,1.328 0.664,2.652 2.652,2.652c1.326,0 1.99,-1.324 1.99,-2.652l1.988,-51.061l0.665,-23.875l-0.665,-1.327l-1.988,-1.325Z" style="fill-rule:nonzero;"/><path d="M138.704,490.053c0,-1.988 1.327,-2.651 2.655,-2.651c1.988,0 2.651,0.663 2.651,2.651l1.325,-83.559c0,-1.988 -1.325,-2.651 -2.652,-2.651c-1.988,0 -2.652,0.663 -2.652,2.651l-1.327,83.559Z" style="fill-rule:nonzero;"/><path d="M120.137,405.83c-1.328,0 -2.652,1.328 -2.652,2.655l-0.663,31.829c-0.664,25.2 -0.664,49.074 0.663,70.296c0,1.988 0.664,3.315 1.988,3.315c1.991,-0.663 3.316,-1.327 3.316,-3.315c-0.664,-21.222 -0.664,-45.096 -0.664,-70.296l0.664,-31.829c0,-1.327 -0.664,-2.655 -2.652,-2.655Z" style="fill-rule:nonzero;"/><path d="M98.914,429.041c-1.988,0 -2.652,1.327 -2.652,2.655l-0.664,34.481c-0.66,25.864 0,46.421 0.664,63.001c0,1.327 1.328,1.99 3.316,1.99c1.328,0 2.652,-0.663 2.652,-1.99c-1.324,-16.58 -1.988,-37.137 -1.324,-63.001l0,-34.481c0,-1.328 -0.664,-1.991 -1.992,-2.655Z" style="fill-rule:nonzero;"/><path d="M74.379,450.927c-1.327,0 -2.651,0.663 -2.651,2.652l0,33.157l1.988,60.349l2.651,2.651c1.328,0 2.652,-0.663 2.652,-2.651l-1.988,-60.349l0,-33.157c0,-1.989 -0.664,-2.652 -2.652,-2.652Z" style="fill-rule:nonzero;"/><path d="M193.747,444.959c1.325,1.988 2.652,2.651 3.98,1.988l45.094,-18.566c-1.327,0.66 -2.652,0 -3.315,-1.328c0,-1.327 0,-2.651 0.663,-2.651l-44.434,17.242c-1.988,0.66 -1.988,1.987 -1.988,3.315Z" style="fill-rule:nonzero;"/><path d="M173.853,477.454l28.515,-8.624c18.57,-5.968 31.17,-10.607 37.802,-13.924c1.988,-0.664 2.652,-1.327 1.325,-3.316c0,-1.327 -1.988,-1.991 -3.317,-1.327l-38.461,13.264l-27.19,9.284c-1.988,0 -2.651,1.326 -1.988,3.315c0.662,1.328 1.986,1.991 3.314,1.328Z" style="fill-rule:nonzero;"/><path d="M149.979,503.979l32.494,-5.308c22.547,-4.64 39.79,-8.619 52.39,-13.923c1.328,0 1.991,-1.328 1.328,-3.316c-0.665,-1.327 -1.328,-1.327 -3.317,-1.327c-12.599,4.644 -29.842,9.283 -52.389,13.263l-30.506,5.969c-2.651,0 -3.315,1.327 -2.651,2.651c-0.001,1.991 1.323,2.656 2.651,1.991Z" style="fill-rule:nonzero;"/><path d="M124.117,525.862c0,1.327 0.662,1.991 1.986,1.991c39.791,-1.327 72.947,-5.307 100.139,-12.603c1.988,-0.659 2.652,-1.325 2.652,-3.315c-0.664,-1.325 -1.988,-2.652 -3.316,-1.988c-27.851,7.295 -60.348,11.274 -99.475,12.6c-1.986,0 -1.986,1.327 -1.986,3.315Z" style="fill-rule:nonzero;"/><path d="M96.262,549.736c0,1.328 1.328,2.652 2.652,2.652l118.708,-9.947c1.988,-0.663 1.988,-1.988 1.988,-3.315c0,-1.988 -0.663,-2.652 -3.316,-1.988l-117.38,9.947c-1.324,0 -2.652,0.663 -2.652,2.651Z" style="fill-rule:nonzero;"/><path d="M209.663,563.664c0,-1.991 -0.663,-2.651 -2.652,-2.651l-87.538,9.282l-53.053,1.988c-1.988,0 -2.652,1.328 -2.652,2.651c0.664,1.992 1.328,2.656 2.652,2.656l53.717,-1.991l88.198,-8.62c1.328,-0.663 1.991,-1.992 1.328,-3.315Z" style="fill-rule:nonzero;"/></g></g><rect id="PATH77" x="2.92" y="2.74" width="366.67" height="582.52" style="fill:none;stroke:#000;stroke-width:3px;"/></svg>