<?xml version="1.0" encoding="UTF-8" standalone="no"?><!DOCTYPE svg PUBLIC "-//W3C//DTD SVG 1.1//EN" "http://www.w3.org/Graphics/SVG/1.1/DTD/svg11.dtd"><svg width="100%" height="100%" viewBox="0 0 372 587" version="1.1" xmlns="http://www.w3.org/2000/svg" xmlns:xlink="http://www.w3.org/1999/xlink" xml:space="preserve" xmlns:serif="http://www.serif.com/" style="fill-rule:evenodd;clip-rule:evenodd;stroke-miterlimit:100;"><g><clipPath id="_clip1"><rect x="27.576" y="2.462" width="341.853" height="545.56"/></clipPath><g clip-path="url(#_clip1)"><path d="M316.129,246.489c-6.609,16.524 -17.187,30.409 -30.406,42.964c-13.219,11.896 -29.082,20.494 -46.93,26.438c-32.389,9.916 -64.775,7.275 -94.52,-8.591c-30.406,-15.867 -50.897,-40.318 -61.47,-72.708c-5.29,-17.848 -7.271,-36.354 -4.628,-54.202c2.643,-17.848 8.591,-34.373 18.506,-49.574c-27.098,16.524 -46.269,40.982 -57.504,70.727c-11.238,30.403 -11.899,61.47 -2.643,91.879c11.235,38.33 35.031,66.1 70.062,84.6c35.034,17.854 71.388,21.158 109.063,9.914c31.067,-9.914 56.184,-28.414 74.692,-54.854c18.506,-25.781 26.44,-54.868 25.778,-86.593Z" style="fill:#d96038;fill-rule:nonzero;"/><path d="M318.772,246.489c0,-1.982 -0.662,-2.64 -2.645,-3.305c-0.661,0 -1.98,1.323 -2.644,1.982c-6.609,15.866 -17.187,30.402 -30.405,42.305c-13.22,11.896 -28.421,21.146 -45.606,25.781c-15.205,5.28 -31.068,6.609 -46.932,5.28c-16.524,-1.976 -31.067,-5.945 -45.607,-13.22c-29.745,-15.859 -49.574,-40.318 -59.489,-72.043c-5.29,-16.525 -6.61,-34.373 -4.628,-51.556c2.644,-17.848 7.933,-34.373 17.848,-49.574c0.662,-1.323 0,-2.646 -0.662,-3.305l-3.305,0c-27.101,17.183 -46.93,41.641 -58.165,72.708c-11.238,30.403 -11.9,61.47 -1.985,93.196c11.238,38.342 35.692,66.757 70.727,85.27c35.692,19.172 72.708,22.477 111.706,9.915c31.067,-9.257 56.185,-27.763 75.353,-54.202c18.51,-27.104 27.101,-56.848 26.439,-89.232Zm-286.205,4.628c0,-21.153 5.287,-42.306 15.202,-62.135c9.253,-19.83 23.134,-36.354 40.982,-49.574c-9.915,19.171 -14.542,37.678 -14.542,57.507c0,13.219 2.643,25.116 5.948,37.677c5.29,16.524 13.22,31.061 23.796,43.622c11.238,13.219 23.796,23.793 38.997,31.068c14.543,7.933 30.406,13.22 47.592,14.543c16.524,1.981 33.049,-0.658 48.912,-5.293c32.388,-9.915 56.846,-30.403 73.37,-62.129c-0.662,29.744 -9.915,56.184 -28.422,79.984c-17.848,23.791 -40.981,39.657 -69.402,48.907c-37.016,11.238 -72.708,7.935 -107.081,-9.914c-33.71,-17.849 -56.845,-45.604 -68.742,-82.623c-4.628,-13.219 -6.61,-27.104 -6.61,-41.64Z" style="fill-rule:nonzero;"/><path d="M308.196,253.099c1.322,0 1.983,-1.982 1.322,-3.305c0,-1.981 -1.322,-1.981 -3.306,-1.981c-13.22,3.963 -27.763,11.896 -43.625,23.134c-31.727,23.134 -53.541,54.196 -65.438,92.538c-3.967,11.896 -5.947,23.793 -5.947,35.031c0,6.609 0.661,15.859 2.643,26.438l1.323,17.848c-0.661,5.952 -2.646,11.231 -5.951,15.866l-15.201,12.555l-16.525,6.61c-6.61,1.98 -11.896,3.97 -14.543,5.945c-5.286,2.646 -9.253,6.608 -11.234,10.579c-4.628,10.579 -4.628,20.493 0.662,30.408c6.61,13.221 17.844,20.488 34.369,23.136c6.61,0.657 12.558,-1.33 17.848,-6.61l8.591,-13.22c1.323,-4.635 2.645,-9.914 1.323,-14.549c-0.661,-6.61 -3.305,-11.231 -8.595,-13.879c-7.269,-3.306 -14.54,-2.646 -21.812,1.987c-3.305,1.977 -5.948,4.622 -5.948,7.27c0,4.622 1.982,8.592 5.948,12.562c1.323,0.658 2.644,0.658 3.305,0c1.981,-1.33 1.981,-2.646 0,-3.305c-2.644,-3.97 -3.967,-6.61 -3.305,-7.939l2.644,-4.622c5.948,-3.305 11.238,-3.305 16.524,-0.657c3.966,1.315 5.948,4.62 6.61,9.25c0.661,7.933 -1.981,15.858 -9.253,22.469c-3.967,4.635 -7.933,6.609 -13.22,5.293c-14.543,-1.987 -24.458,-8.598 -30.406,-19.829c-4.625,-8.598 -5.287,-17.183 -0.662,-25.122c1.985,-3.306 4.628,-6.61 9.256,-9.25l31.064,-11.896c6.61,-3.965 12.558,-7.935 16.524,-13.878c3.967,-5.952 6.609,-11.245 7.271,-17.854l-1.323,-19.83c-1.981,-10.572 -2.644,-19.164 -2.644,-25.109c0,-10.578 1.322,-22.476 5.289,-33.713c11.896,-37.679 33.05,-68.08 63.453,-89.898c15.211,-11.236 29.75,-19.169 42.969,-22.473Z" style="fill-rule:nonzero;"/><path d="M341.245,286.147c12.562,-34.372 24.458,-62.793 36.354,-84.604c0.661,-1.323 0,-2.646 -1.319,-3.305c-1.985,-1.323 -2.645,-1.323 -3.968,0.658c-11.237,22.476 -23.135,50.897 -36.354,85.928c-25.778,70.062 -42.965,138.147 -52.218,205.563c0,1.33 0.662,1.988 2.644,2.646c1.323,0 2.644,-0.658 2.644,-1.981c9.253,-66.763 26.44,-134.836 52.217,-204.905Z" style="fill-rule:nonzero;"/><path d="M278.451,525.425c7.934,1.982 11.9,-3.305 11.238,-15.866l-3.306,-19.171l-11.237,15.866c-5.948,10.573 -5.287,17.183 3.305,19.171Z" style="fill:#9260c7;fill-rule:nonzero;"/><path d="M292.333,504.938l-3.306,-15.209l-1.981,-1.98c-0.661,0 -1.983,0 -2.644,0.664c-2.646,3.306 -5.951,7.269 -9.256,13.22c-5.287,8.586 -7.931,14.537 -5.948,19.83c1.323,3.305 3.967,5.28 8.595,6.609c4.625,0.659 7.93,0 11.234,-2.646c3.306,-3.964 3.967,-10.574 3.306,-20.488Zm-13.22,17.84c-2.645,-0.658 -3.967,-1.316 -5.286,-3.306l0,-1.98c0,-5.287 3.966,-12.556 11.233,-21.153l1.984,15.208c0,5.28 -0.661,8.585 -1.984,9.915l-5.947,1.316Z" style="fill-rule:nonzero;"/><path d="M261.927,434.204c-7.93,-9.25 -13.878,-10.573 -18.506,-4.622c-4.628,6.61 -1.323,11.896 9.915,15.866l17.848,4.622l-9.257,-15.866Z" style="fill:#9260c7;fill-rule:nonzero;"/><path d="M241.439,428.259c-2.646,3.971 -3.307,7.275 -1.985,10.58c1.985,3.963 7.271,7.927 16.524,10.573l14.543,3.305l2.644,-1.323l0,-2.64c-7.933,-15.866 -15.863,-24.465 -22.474,-25.123c-3.964,-0.658 -7.27,1.323 -9.252,4.628Zm8.59,0.665c5.287,0 9.916,5.945 16.525,17.842c-13.22,-2.646 -20.49,-5.95 -22.474,-9.915l0,-1.98l1.319,-3.305c1.328,-2.642 3.308,-3.307 4.63,-2.642Z" style="fill-rule:nonzero;"/><path d="M269.859,452.059l19.168,13.878l3.306,0c0.661,-1.322 0.661,-2.646 0,-3.963l-19.829,-13.885l-3.307,0c-1.318,1.981 -0.66,3.305 0.662,3.97Z" style="fill-rule:nonzero;"/><path d="M311.501,458.004l17.848,-1.323c11.896,-1.981 15.863,-7.269 12.559,-14.537c-3.966,-6.608 -9.914,-6.608 -18.506,1.977c-3.968,3.968 -8.596,7.938 -11.901,13.883Z" style="fill:#9260c7;fill-rule:nonzero;"/><path d="M335.959,434.869c-7.271,0 -16.525,6.608 -27.102,21.151l0,2.646l1.984,1.976l15.201,-1.315c9.915,-0.659 15.862,-3.307 18.506,-7.27c1.323,-3.305 1.323,-6.609 0,-10.58c-1.98,-3.968 -5.284,-6.608 -8.589,-6.608Zm-19.83,19.829c8.592,-9.914 15.201,-15.201 19.168,-14.543c1.323,0 3.305,1.322 3.967,3.964l0.661,3.305l-0.661,1.33c-1.982,3.963 -9.915,5.944 -23.135,5.944Z" style="fill-rule:nonzero;"/><path d="M309.52,455.363l-20.49,10.572c-1.982,1.316 -2.645,1.981 -1.982,3.306c1.32,1.98 2.645,2.646 3.967,1.98l21.149,-11.236c1.323,-1.317 1.985,-1.981 1.323,-3.306c-0.663,-1.981 -1.986,-1.981 -3.967,-1.316Z" style="fill-rule:nonzero;"/><path d="M255.979,388.602c-5.947,5.943 -3.305,11.896 6.61,17.188c5.29,3.306 10.576,5.944 17.187,7.269l-6.609,-17.184c-5.95,-9.915 -11.897,-12.562 -17.188,-7.273Z" style="fill:#9260c7;fill-rule:nonzero;"/><path d="M263.912,383.313c-3.967,-0.658 -7.271,0.658 -10.576,3.965c-2.645,2.646 -3.967,5.951 -3.307,9.914c1.982,4.629 6.611,8.599 15.203,13.22l13.881,5.293l2.644,-0.665l0.661,-2.641l-5.947,-13.885c-3.306,-8.59 -7.934,-13.219 -12.559,-15.201Zm-8.596,11.897c0,-1.981 0.662,-3.306 1.984,-3.97c1.982,-1.977 3.307,-2.641 5.287,-2.641c3.967,1.323 8.596,7.934 13.221,20.494c-12.56,-3.97 -19.168,-8.599 -20.492,-13.22l0,-0.663Z" style="fill-rule:nonzero;"/><path d="M277.793,411.734c-1.322,0.664 -1.322,2.641 0,3.305l17.184,16.525c1.323,1.98 2.646,1.98 3.967,0c0.662,-0.665 0.662,-1.982 0,-3.307l-17.187,-16.523c-1.319,-1.323 -1.984,-1.323 -3.964,0Z" style="fill-rule:nonzero;"/><path d="M320.757,415.704l18.507,1.317c11.896,-0.66 16.524,-4.623 13.881,-11.896c-1.983,-7.934 -8.595,-8.592 -18.509,-1.98c-5.287,3.303 -9.254,7.923 -13.879,12.559Z" style="fill:#9260c7;fill-rule:nonzero;"/><path d="M355.788,404.46c-1.323,-5.28 -3.967,-7.927 -7.271,-7.927c-5.285,-1.323 -10.575,1.316 -18.506,6.609l-11.237,11.231c-0.662,0.664 -0.662,1.329 0,1.987l1.322,1.981c17.846,3.306 29.082,1.323 34.369,-3.97c2.646,-2.637 2.646,-5.941 1.323,-9.911Zm-4.628,1.33c0.661,2.64 0,3.963 -0.658,5.278c-3.306,3.971 -11.238,3.971 -24.458,2.646c9.915,-8.591 16.524,-13.22 21.152,-11.896c1.982,0.002 3.306,1.327 3.964,3.972Z" style="fill-rule:nonzero;"/><path d="M320.096,413.059l-23.135,7.926c-1.322,0.666 -1.322,1.331 -1.322,3.306c0.661,1.33 1.322,1.988 3.305,1.33l23.135,-7.274l1.323,-3.306c-0.663,-1.982 -1.325,-2.643 -3.306,-1.982Z" style="fill-rule:nonzero;"/><path d="M283.08,342.996l15.201,11.23l-1.981,-18.506c-3.306,-11.238 -7.934,-15.201 -14.543,-11.238c-7.269,3.963 -6.611,10.575 1.323,18.514Z" style="fill:#9260c7;fill-rule:nonzero;"/><path d="M290.352,321.837l-10.576,0.665c-3.305,1.98 -5.947,4.628 -5.947,8.591c0,4.63 3.305,10.573 10.576,16.525l11.896,8.598l3.306,0l0.66,-1.987c-0.001,-17.842 -3.306,-28.422 -9.915,-32.392Zm-1.986,3.97c3.967,2.641 5.95,9.916 7.271,23.135c-10.576,-6.609 -15.863,-13.219 -15.863,-17.849c0,-1.981 0.662,-2.646 3.307,-4.62l5.285,-0.666Z" style="fill-rule:nonzero;"/><path d="M296.961,352.246c-1.322,0.665 -1.984,1.98 -1.322,3.305l11.898,20.494c1.32,1.977 1.981,2.641 3.964,1.977l0.661,-3.963l-11.896,-21.146c-0.662,-1.332 -1.985,-1.99 -3.305,-0.667Z" style="fill-rule:nonzero;"/><path d="M332.653,377.361l17.849,5.951c11.234,2.646 17.183,0 16.524,-7.933c0,-7.935 -5.952,-9.915 -17.85,-6.61l-16.523,8.592Z" style="fill:#9260c7;fill-rule:nonzero;"/><path d="M364.38,365.466c-3.964,-1.981 -10.573,-0.665 -19.168,2.64l-13.882,7.275l-1.319,2.641l1.981,1.33l13.881,5.943l19.83,0c2.643,-2.641 4.628,-5.943 3.966,-9.914c-0.661,-3.97 -1.984,-7.276 -5.289,-9.915Zm-1.983,15.201c-3.967,1.987 -11.896,1.323 -23.797,-3.963c11.9,-5.952 19.168,-7.935 23.136,-5.952c1.983,0.659 2.644,1.988 2.644,4.629c0,2.641 -0.659,3.971 -1.983,5.286Z" style="fill-rule:nonzero;"/><path d="M332.653,374.716l-23.796,1.329c-1.981,0 -2.645,1.316 -2.645,2.641c0,1.981 0.662,3.306 3.306,3.306l23.135,-1.981l1.981,-0.658l0.661,-1.987c0.002,-1.985 -0.659,-2.65 -2.642,-2.65Z" style="fill-rule:nonzero;"/><path d="M326.044,264.995c-0.662,-6.609 -1.323,-12.561 -3.305,-18.506c-3.307,-11.238 -7.935,-14.543 -14.543,-9.915c-7.27,3.97 -5.948,9.915 2.646,17.848l15.202,10.573Z" style="fill:#9260c7;fill-rule:nonzero;"/><path d="M316.791,233.269c-2.645,-1.982 -6.61,-1.982 -10.577,0.665c-3.305,2.64 -5.286,5.28 -5.286,9.25c0.658,7.275 7.931,15.202 23.793,24.458l2.646,0c1.319,-0.659 1.319,-1.323 1.319,-2.647l-2.644,-15.201c-1.321,-8.592 -4.626,-14.544 -9.251,-16.525Zm-7.271,4.628l5.286,0c3.968,1.982 6.61,9.256 7.935,21.812c-10.577,-6.61 -16.525,-12.555 -16.525,-16.525l0,-0.665c-0.002,-1.317 0.66,-2.64 3.304,-4.622Z" style="fill-rule:nonzero;"/><path d="M324.721,263.013c-1.98,1.323 -1.98,1.981 -1.319,3.305l12.559,20.494c0.661,1.975 2.643,1.975 3.966,0.658c1.32,-0.658 1.981,-1.323 0.662,-3.305l-12.562,-20.488c-1.322,-1.329 -1.983,-1.987 -3.306,-0.664Z" style="fill-rule:nonzero;"/><path d="M360.416,289.453l17.184,5.943c11.899,1.988 17.849,-0.657 16.524,-8.584c0,-7.939 -5.948,-9.915 -17.184,-5.952l-16.524,8.593Z" style="fill:#9260c7;fill-rule:nonzero;"/><path d="M392.143,277.556c-4.629,-2.646 -11.237,-1.323 -19.829,1.981c-5.286,1.982 -9.915,4.628 -13.221,7.275l-1.323,2.641l1.323,1.98c16.524,7.934 27.764,9.256 34.373,4.629c2.644,-1.982 3.963,-5.288 3.963,-9.25c-0.658,-5.292 -1.982,-7.939 -5.286,-9.256Zm-2.644,4.622c1.32,0.665 2.644,2.646 2.644,4.635c0,2.641 -0.661,3.963 -1.981,5.28c-3.966,3.306 -11.899,1.329 -23.796,-3.306c11.234,-6.609 19.166,-8.584 23.133,-6.609Z" style="fill-rule:nonzero;"/><path d="M360.416,286.147l-24.457,1.323c-1.323,0 -1.982,1.316 -1.982,2.646c0,1.976 1.32,2.641 2.645,2.641l24.454,-0.665l1.984,-3.306c0,-1.973 -0.663,-2.639 -2.644,-2.639Z" style="fill-rule:nonzero;"/><path d="M341.906,227.982c0.662,-5.952 0,-12.562 -0.661,-17.848c-1.981,-11.896 -6.609,-16.524 -14.54,-12.555c-6.609,3.963 -6.609,9.25 1.32,18.5l13.881,11.903Z" style="fill:#9260c7;fill-rule:nonzero;"/><path d="M339.925,230.629l2.645,0.658l1.98,-2.646c1.323,-18.506 -1.98,-29.086 -7.93,-33.708c-3.305,-1.323 -6.609,-1.323 -10.576,0c-3.967,1.982 -6.61,5.287 -6.61,8.591c-0.662,7.934 6.61,16.525 20.491,27.105Zm-15.204,-25.781l0,-0.659c0,-1.988 1.323,-2.646 3.968,-3.97c1.983,-1.323 3.966,-1.323 4.628,0c3.967,1.981 5.947,9.915 5.947,23.134c-9.915,-7.932 -14.543,-13.883 -14.543,-18.505Z" style="fill-rule:nonzero;"/><path d="M341.245,225.994c-1.981,0.665 -2.645,1.988 -1.981,3.97l10.576,21.153c1.32,1.982 1.981,1.982 3.967,1.317c1.319,-1.317 1.981,-1.975 0.658,-3.963l-9.915,-21.146c-1.32,-1.989 -1.982,-1.989 -3.305,-1.331Z" style="fill-rule:nonzero;"/><path d="M311.501,305.313l-3.305,-18.5c-3.307,-10.58 -8.593,-14.549 -15.202,-10.58c-6.609,4.628 -5.948,10.58 3.306,18.506l15.201,10.574Z" style="fill:#9260c7;fill-rule:nonzero;"/><path d="M302.248,272.928l-10.577,1.323c-3.305,2.647 -5.286,5.287 -5.286,9.257c0,7.268 8.592,15.859 23.796,23.793l2.645,0l1.323,-1.988l-1.985,-15.194c-2.644,-9.258 -5.95,-14.551 -9.916,-17.191Zm-7.932,5.945l5.287,-1.317c3.968,2.646 7.271,9.915 8.593,22.476c-11.235,-6.61 -16.525,-12.562 -16.525,-17.189c0,-1.323 0.662,-2.64 2.645,-3.97Z" style="fill-rule:nonzero;"/><path d="M310.181,302.672c-1.322,1.323 -1.983,2.641 -0.661,3.971l13.221,19.83c0.661,1.975 1.98,1.975 3.305,0.657c1.981,-0.657 1.981,-1.323 0.661,-3.305l-13.22,-19.83c-0.663,-1.323 -1.325,-1.987 -3.306,-1.323Z" style="fill-rule:nonzero;"/><path d="M347.196,327.788l17.184,5.952c11.899,2.646 17.848,0 16.524,-7.934c0,-7.934 -5.948,-9.916 -17.185,-6.609l-16.523,8.591Z" style="fill:#9260c7;fill-rule:nonzero;"/><path d="M378.923,316.557c-4.629,-2.646 -11.238,-1.328 -19.83,1.977c-5.286,1.988 -9.915,4.635 -13.22,7.273l-1.323,2.641l1.323,1.988c16.524,7.926 27.763,9.256 34.373,5.287c2.643,-2.642 3.963,-5.945 3.963,-9.916c-0.658,-5.286 -1.981,-7.933 -5.286,-9.25Zm-1.983,14.536c-3.967,2.647 -11.899,1.324 -23.797,-3.963c11.235,-5.95 19.169,-7.933 23.136,-5.95c1.319,0.657 2.644,1.987 2.644,4.627c0,2.64 -0.662,3.968 -1.983,5.286Z" style="fill-rule:nonzero;"/><path d="M346.535,325.143l-23.796,1.33l-1.323,1.315l-0.659,1.323c0,1.98 1.32,3.306 2.645,3.306l23.796,-1.981c1.98,0 2.644,-1.324 2.644,-2.646c-0.002,-1.983 -0.664,-2.647 -3.307,-2.647Z" style="fill-rule:nonzero;"/><path d="M181.289,-26.497c-17.848,-23.134 -31.729,-42.964 -40.321,-60.812l-3.966,-1.323c-1.32,1.323 -1.982,2.646 -0.662,3.963c8.595,17.854 21.814,38.342 40.982,61.477c36.354,44.945 79.979,81.3 130.215,109.062c1.981,0.659 2.644,0 3.964,-1.323c0.661,-1.981 0.661,-3.305 -1.32,-3.305c-49.574,-27.103 -92.538,-63.458 -128.892,-107.739Z" style="fill-rule:nonzero;"/><path d="M300.928,62.078c9.915,2.64 18.506,-0.665 27.099,-11.903c-9.915,-8.592 -19.829,-10.573 -28.421,-5.952l-11.238,10.58l12.56,7.275Z" style="fill:#858585;fill-rule:nonzero;"/><path d="M286.385,52.822c-0.662,1.317 -0.662,1.981 0,3.305l6.609,5.287c5.287,3.305 9.915,4.628 15.202,4.628c7.933,-0.659 15.204,-4.628 21.813,-13.878c1.319,-1.33 1.319,-2.646 -0.662,-3.97c-7.271,-6.61 -15.862,-9.915 -23.796,-8.591c-5.287,0.658 -9.915,3.305 -13.882,7.268c-3.303,2.646 -5.284,5.292 -5.284,5.951Zm37.015,-1.989c-4.628,5.952 -10.576,9.256 -15.204,9.256c-5.948,0.658 -11.235,-1.981 -15.863,-5.951c3.967,-5.945 8.595,-8.585 13.881,-9.25c5.948,-0.664 11.896,1.324 17.186,5.945Z" style="fill-rule:nonzero;"/><path d="M290.352,52.822l-1.984,-1.323l-22.473,1.981c-1.981,0.659 -2.645,1.323 -2.645,3.305c0,1.988 1.323,2.646 3.307,2.646l22.473,-2.646c1.322,0 2.643,-0.659 1.984,-2.646l-0.662,-1.317Z" style="fill-rule:nonzero;"/><path d="M249.369,26.382l10.576,9.915c9.914,3.963 19.168,1.982 29.082,-6.61c-9.254,-10.573 -18.506,-14.543 -27.76,-11.238l-11.898,7.933Z" style="fill:#858585;fill-rule:nonzero;"/><path d="M290.352,31.004c1.981,-0.658 1.981,-1.975 0,-3.305c-6.609,-7.927 -13.881,-12.555 -21.813,-13.22c-5.287,0 -9.915,1.988 -15.201,5.293l-6.61,5.287c-0.66,1.323 -0.66,1.981 0,3.305l5.948,5.945c3.968,3.97 9.253,5.951 13.882,6.61c7.93,0.664 15.86,-1.976 23.794,-9.915Zm-23.135,4.635c-4.628,-0.665 -9.915,-3.305 -14.543,-8.598c5.29,-4.622 10.576,-7.268 15.863,-7.268c5.29,0.658 10.576,3.305 15.865,9.256c-5.289,4.621 -11.237,7.268 -17.185,6.61Z" style="fill-rule:nonzero;"/><path d="M223.591,25.059c0,1.981 0.662,2.64 2.644,2.64l22.474,1.988c1.985,0 3.306,-1.323 3.306,-2.646c0,-1.981 -1.32,-3.305 -2.644,-3.305l-22.474,-0.659c-1.983,0 -3.306,0 -3.306,1.982Z" style="fill-rule:nonzero;"/><path d="M231.523,-15.265l-10.575,9.915l12.558,7.275c9.915,3.305 19.168,-0.665 27.102,-11.896c-10.579,-8.599 -20.492,-9.916 -29.085,-5.294Z" style="fill:#858585;fill-rule:nonzero;"/><path d="M262.589,-8.655c1.323,-1.316 1.323,-1.975 0,-3.305c-8.592,-6.61 -16.524,-9.915 -25.116,-7.927c-4.627,0.659 -9.252,3.305 -13.882,7.269l-4.628,5.951c-0.658,1.317 -0.658,2.646 0.662,3.305l5.947,4.622c4.629,3.305 10.576,4.635 15.205,3.97c8.592,-0.001 15.864,-4.628 21.812,-13.885Zm-23.796,-6.61c5.289,-0.659 11.236,1.33 17.848,5.951c-5.947,5.952 -10.576,9.256 -16.523,9.256c-5.287,0.659 -10.577,-1.323 -15.863,-5.952c4.623,-4.62 9.251,-7.925 14.538,-9.255Z" style="fill-rule:nonzero;"/><path d="M220.286,-7.99l-21.812,2.64c-1.984,0 -2.646,1.33 -1.984,3.305c0,1.988 0.662,1.988 2.644,1.988l21.813,-2.646c2.644,0 2.644,-0.658 2.644,-2.646c0,-1.976 -0.661,-2.641 -3.305,-2.641Z" style="fill-rule:nonzero;"/><path d="M275.809,95.786c-0.662,10.573 4.629,18.506 17.187,23.793c5.948,-11.896 5.948,-21.812 -1.323,-29.745l-11.896,-7.268l-3.968,13.22Z" style="fill:#858585;fill-rule:nonzero;"/><path d="M298.281,95.127c-1.981,-4.634 -5.287,-8.598 -10.573,-11.903l-7.271,-3.963c-1.323,0 -1.985,0 -3.306,1.317l-3.305,7.275c-1.323,5.945 -1.323,11.238 -0.662,15.86c2.644,7.274 8.592,13.884 18.506,18.513c1.323,0 3.306,0 3.968,-1.323c4.628,-9.916 5.948,-18.507 2.643,-25.776Zm-20.488,1.976c0,-2.64 1.32,-7.269 2.645,-11.232c5.947,1.982 10.576,5.952 12.558,11.232l1.981,7.274l-3.306,11.238c-6.608,-3.305 -11.896,-7.933 -13.22,-13.22l-0.658,-5.292Z" style="fill-rule:nonzero;"/><path d="M271.842,58.108c-1.98,0.665 -2.644,1.981 -1.98,3.305l7.271,21.153c0.661,1.981 1.981,2.646 3.306,1.981c1.98,0 2.644,-1.981 1.98,-3.305l-7.271,-21.153c-1.321,-1.981 -1.983,-1.981 -3.306,-1.981Z" style="fill-rule:nonzero;"/><path d="M224.253,65.383c-3.967,9.25 -1.323,19.165 7.931,28.415c10.575,-9.25 13.219,-17.841 9.914,-27.756l-8.592,-11.903l-9.253,11.244Z" style="fill:#858585;fill-rule:nonzero;"/><path d="M232.184,51.499l-5.949,5.945c-3.305,4.635 -5.947,9.256 -5.947,14.549c-1.323,7.927 1.98,15.86 9.915,23.793c1.323,1.317 2.644,1.317 3.305,0c8.593,-7.268 12.56,-14.543 12.56,-23.134c-0.662,-4.628 -2.645,-9.915 -5.948,-14.543l-4.63,-5.945l-3.306,-0.665Zm-7.27,21.152c0.659,-5.952 3.307,-10.573 8.592,-14.543c4.628,3.97 6.61,8.591 6.61,14.543l0,0.658c0,5.293 -2.644,10.573 -7.935,15.866c-5.285,-5.952 -7.269,-11.238 -7.269,-15.208l0.002,-1.316Z" style="fill-rule:nonzero;"/><path d="M231.523,31.004l-0.662,23.135c0,1.988 0.662,2.646 2.645,2.646c1.983,0 2.645,-0.659 2.645,-2.646l0.66,-22.47c0,-1.982 -0.66,-2.64 -2.643,-2.64c-1.322,0 -2.645,0.658 -2.645,1.975Z" style="fill-rule:nonzero;"/><path d="M190.542,36.297c-5.287,9.256 -3.967,18.506 3.967,29.745c11.896,-7.933 15.862,-16.525 13.22,-26.439l-6.609,-13.22c-3.968,1.981 -7.272,5.95 -10.578,9.914Z" style="fill:#858585;fill-rule:nonzero;"/><path d="M211.033,46.212c1.32,-4.628 0,-9.915 -3.305,-15.208l-3.967,-6.61l-3.306,-0.658l-6.61,5.293c-3.966,3.963 -7.271,8.585 -7.933,13.878c-1.982,7.927 0.661,16.525 7.271,24.451l3.306,0.665c9.254,-6.61 13.882,-13.22 14.544,-21.811Zm-4.629,-1.988l0,1.988c-0.661,5.287 -4.625,9.915 -10.575,15.201c-3.964,-5.287 -5.287,-9.915 -5.287,-13.884l0,-3.963c1.323,-5.287 4.628,-9.915 9.915,-13.878c3.967,4.621 5.947,9.914 5.947,14.536Z" style="fill-rule:nonzero;"/><path d="M202.438,3.906l-3.305,22.476c-0.658,1.317 0,1.981 1.984,2.646l2.645,-1.988l3.967,-22.476c0,-1.316 -0.662,-2.64 -1.985,-3.305c-1.982,0.001 -2.642,0.666 -3.306,2.647Z" style="fill-rule:nonzero;"/><path d="M157.493,-16.582c-4.628,0 -9.253,0.658 -13.881,3.305c-9.253,4.622 -13.219,13.22 -11.896,27.098c13.22,-0.658 21.811,-5.951 25.116,-15.866l0.661,-14.537Z" style="fill:#858585;fill-rule:nonzero;"/><path d="M160.136,-16.582l-2.644,-2.646c-8.591,-0.659 -16.524,2.646 -21.811,7.933c-5.29,5.945 -7.271,14.543 -6.61,25.116c0,1.323 1.32,2.646 2.644,2.646c11.234,-0.658 19.167,-3.963 23.796,-9.915c5.287,-6.609 6.61,-14.542 4.625,-23.134Zm-20.491,9.257c3.966,-4.635 9.256,-5.952 15.866,-5.952l0,1.982c0,5.945 -1.323,10.58 -4.628,14.543c-3.305,3.963 -8.591,6.609 -17.186,7.268l0,-1.982c0,-6.609 2.643,-11.896 5.948,-15.859Z" style="fill-rule:nonzero;"/><path d="M313.485,97.103c5.947,8.598 15.862,11.244 28.421,8.598c-2.644,-13.22 -8.591,-21.153 -18.506,-23.134l-14.543,0.658l4.628,13.878Z" style="fill:#858585;fill-rule:nonzero;"/><path d="M331.33,82.566c-4.625,-2.646 -9.253,-3.305 -15.201,-3.305l-7.933,1.982l-1.982,1.981l1.982,7.933c1.322,5.287 4.628,9.915 8.595,13.22c6.609,4.628 15.862,5.945 25.777,3.305c1.98,0 2.644,-1.323 1.98,-2.64c-1.98,-10.58 -5.946,-18.513 -13.218,-22.476Zm-19.168,2.646l16.524,1.975c4.629,2.646 7.934,8.598 9.914,15.866c-7.93,1.323 -13.881,0 -18.506,-3.305c-3.965,-3.304 -7.27,-7.926 -7.932,-14.536Z" style="fill-rule:nonzero;"/><path d="M212.354,276.898l-74.689,29.081l4.628,5.943c2.644,3.971 3.963,8.6 1.982,11.903l-9.253,15.2c-4.628,5.945 -6.61,11.238 -6.61,15.859c1.32,7.275 7.93,13.221 18.506,15.208l33.711,-0.657c20.491,-5.951 41.64,-14.551 62.793,-27.104c21.812,-13.22 32.388,-23.799 32.388,-32.384l-35.691,5.279c-25.116,4.635 -37.678,5.293 -39.659,0.664c-1.323,-5.943 0,-13.22 3.967,-24.458l7.927,-14.534Z" style="fill:#fcce00;fill-rule:nonzero;"/><path d="M279.113,309.947l-1.981,-3.307l-7.934,-0.664l-20.491,3.971c-29.082,5.943 -44.283,7.927 -44.945,4.621c-2.644,-7.269 1.323,-18.506 11.238,-36.354c1.318,-0.658 1.318,-1.981 0,-3.305c-1.322,-1.982 -1.984,-1.982 -3.967,-0.659l-74.031,28.421c-1.32,0 -1.982,1.323 -1.982,2.642l0.662,3.305l3.963,3.97c1.985,3.97 2.646,7.274 1.323,10.58l-5.948,9.914c-6.61,9.25 -9.915,16.524 -9.915,22.47c1.32,5.287 4.625,9.915 9.253,13.221c5.287,3.305 12.558,5.287 21.153,5.944l25.778,-2.641c21.148,-5.286 42.302,-13.884 63.455,-26.439c22.473,-13.885 34.369,-25.776 34.369,-35.69Zm-130.873,10.574c0,-4.629 -1.323,-8.6 -4.628,-13.221l61.474,-24.458c-5.29,11.237 -8.595,20.494 -8.595,27.763c0,1.981 0.661,3.963 0.661,5.951c1.981,3.965 6.609,5.945 16.524,5.945l58.165,-9.915c-1.98,7.274 -13.22,16.524 -32.388,28.421c-19.829,11.238 -39.659,19.83 -59.488,25.123l-23.135,2.641c-8.591,-0.666 -14.54,-2.641 -19.167,-5.945c-3.305,-2.646 -5.287,-5.293 -5.948,-7.939l0,-1.975c0,-3.305 3.305,-8.6 8.591,-15.866l7.271,-11.903l0.663,-4.622Z" style="fill-rule:nonzero;"/><path d="M262.589,312.587c0.661,-0.665 1.323,-1.981 0.661,-3.305c-1.323,-0.665 -1.98,-0.665 -3.305,0l-25.116,18.506c-20.491,12.562 -38.339,21.153 -54.863,24.458c-0.662,0.665 -1.982,1.322 -1.982,2.641c0.662,1.329 1.982,1.987 2.644,1.329c17.187,-3.305 35.692,-11.903 56.183,-25.122l25.778,-18.507Z" style="fill-rule:nonzero;"/><path d="M232.846,318.532c0.66,-1.317 1.322,-1.976 0.66,-2.642c-0.66,-1.322 -1.322,-1.98 -3.305,-0.664c-19.168,11.244 -35.692,19.83 -49.574,23.135c-0.662,0.664 -1.323,0.664 -1.323,1.988c0,1.98 1.323,1.98 1.985,1.98c15.201,-3.968 31.727,-11.893 51.557,-23.797Z" style="fill-rule:nonzero;"/><path d="M203.762,319.861l0.662,-2.646c-0.662,-1.322 -1.322,-1.322 -1.984,-1.322l-26.44,10.58c-1.981,0 -1.981,0.657 -1.981,2.639l2.643,0.666l27.1,-9.917Z" style="fill-rule:nonzero;"/><path d="M181.951,311.264c-1.323,0.658 -1.323,1.323 -1.323,2.646c0,1.316 1.323,1.98 2.643,1.316l17.848,-7.269c-1.323,0.658 -1.984,0 -2.643,-1.317c-0.662,-0.664 -0.662,-1.328 0.657,-1.986l-17.182,6.61Z" style="fill-rule:nonzero;"/><path d="M305.553,130.151c-7.93,5.952 -16.523,13.885 -26.438,22.476c-19.169,17.848 -33.05,35.696 -42.964,52.221l-19.83,3.305c-17.187,3.963 -35.692,11.231 -55.521,21.811l-43.625,21.153c-15.202,7.927 -25.778,13.22 -30.406,17.183c-4.625,4.628 -7.93,9.256 -9.915,15.208l-1.32,7.926l-12.558,10.574c-8.595,9.256 -13.881,18.514 -15.866,28.428c13.881,-11.902 26.439,-19.172 35.696,-21.152l11.234,1.98c9.915,1.323 21.153,1.323 34.373,-0.658c42.964,-4.627 75.352,-17.184 97.824,-36.354c10.576,-9.915 17.187,-23.134 19.83,-37.677l0,-19.83c36.354,-10.58 63.455,-22.469 80.641,-35.031l-23.796,-13.22l2.641,-38.343Z" style="fill:#fcce00;fill-rule:nonzero;"/><path d="M302.909,127.512c-5.286,3.305 -13.882,11.238 -26.438,23.134c-18.507,17.848 -33.05,34.373 -42.303,50.897c-20.491,0.658 -45.607,9.915 -74.693,25.116l-37.013,18.506c-20.491,9.915 -33.711,17.183 -37.677,20.488c-7.933,6.61 -12.558,14.549 -12.558,23.8c-4.628,3.305 -9.915,7.933 -14.543,13.219c-7.271,9.25 -12.558,17.85 -13.881,27.104l0,0.658c0,1.317 0.662,1.982 1.323,2.646l3.967,-0.664c13.22,-10.58 25.116,-17.85 33.711,-19.83l45.607,1.323c44.946,-5.293 77.995,-17.849 99.147,-37.677c15.2,-13.22 22.473,-29.744 22.473,-49.574l-0.661,-7.275c37.017,-11.89 63.455,-23.792 79.318,-35.024l1.322,-2.646l-1.322,-3.305l-22.475,-12.562l2.645,-35.696l-1.981,-2.64l-3.968,0l0,0.002Zm-3.305,40.982l1.981,1.982l18.51,11.238c-17.848,11.896 -42.964,21.811 -75.352,31.726c-1.323,1.323 -1.985,1.981 -1.985,3.305l0,1.323l0.662,8.592c0,17.848 -6.609,33.049 -19.83,44.287c-21.152,19.171 -52.878,31.726 -95.181,36.354c-12.558,1.981 -23.796,1.981 -33.049,1.316l-13.22,-2.641c-7.933,1.323 -17.848,6.609 -28.424,14.543c3.305,-6.609 7.933,-12.562 15.205,-18.513l8.591,-7.928l1.323,-2.646l0,-1.316c0,-7.274 3.305,-13.884 9.915,-19.171c4.625,-3.305 16.525,-9.915 36.354,-19.83l37.674,-18.513c18.51,-10.573 36.354,-17.183 52.879,-21.146l20.491,-3.305c0.66,0 1.983,-0.658 2.644,-1.323c13.22,-22.47 33.711,-45.604 62.793,-69.403l-1.981,31.069Z" style="fill-rule:nonzero;"/><path d="M107.257,272.263c-4.625,0.665 -8.591,1.988 -12.558,5.293c-2.643,1.981 -3.966,3.305 -3.966,3.963c-1.32,2.646 -0.662,3.963 0.662,4.628c1.981,1.323 2.643,0.665 3.966,-0.665l3.305,-3.305c2.643,-1.975 5.287,-2.64 8.591,-3.305c2.644,0 3.305,-1.317 3.305,-3.305c0.001,-2.639 -0.661,-3.304 -3.305,-3.304Z" style="fill-rule:nonzero;"/><path d="M73.546,290.775l0,8.592c0.662,5.945 3.967,9.915 7.933,11.896c1.982,1.322 2.644,0.657 3.967,-1.316c0.662,-1.33 0,-2.646 -1.323,-3.307c-3.305,-1.328 -4.625,-4.634 -5.287,-9.256l0,-5.293c0,-2.64 -1.323,-3.306 -2.643,-3.306c-1.985,0.002 -2.647,0.668 -2.647,1.99Z" style="fill-rule:nonzero;"/><path d="M305.553,150.646c0.661,0 0.661,-1.323 0,-2.64l-2.644,-0.665c-22.474,18.506 -40.982,37.019 -56.185,56.184c-1.322,0.665 -1.322,1.324 0,1.982l2.645,0c15.863,-18.507 33.711,-36.355 56.184,-54.861Z" style="fill-rule:nonzero;"/><path d="M310.843,171.14l-41.645,21.805c-1.981,0.665 -1.981,1.33 -0.661,2.647c0,1.323 1.322,1.323 1.984,0.658l41.641,-21.146l-2.644,-1.323c0.002,-1.324 0.002,-1.982 1.325,-2.641Z" style="fill-rule:nonzero;"/><path d="M150.221,249.793l-12.558,5.287c-0.662,1.323 -0.662,1.988 -0.662,2.646c0.662,1.317 1.323,1.982 2.643,1.317l11.899,-5.945c1.982,-0.665 2.644,-1.982 1.32,-3.305c0.002,-1.323 -1.319,-1.323 -2.642,0Z" style="fill-rule:nonzero;"/><path d="M157.493,260.373l-13.881,4.622c-1.32,0 -1.981,1.324 -0.662,2.647c0,0.658 1.324,1.316 1.985,0.658l13.219,-3.963c1.982,-0.658 1.982,-1.323 1.982,-3.305c-0.661,-0.659 -1.982,-1.324 -2.643,-0.659Z" style="fill-rule:nonzero;"/><path d="M163.441,272.928l-12.558,3.305c-0.662,0.665 -1.323,1.323 -0.662,3.305c0,1.323 0.662,1.323 1.985,1.323l12.558,-4.628c1.32,0 1.982,-1.323 1.32,-1.982c0,-1.323 -1.32,-1.323 -2.643,-1.323Z" style="fill-rule:nonzero;"/><path d="M164.103,284.166l-9.253,2.646c-0.662,0.658 -1.323,1.975 -0.662,2.641c0,1.322 0.662,1.322 2.643,1.322l9.253,-3.305c1.323,-0.658 1.323,-1.323 0.662,-2.646c0,-1.316 -1.32,-1.981 -2.643,-0.658Z" style="fill-rule:nonzero;"/><path d="M183.932,233.934l-13.22,5.945c-0.662,1.323 -0.662,1.981 -0.662,3.305c0.662,0.665 1.323,1.323 2.644,0.665l13.22,-5.952c0.661,-0.658 1.322,-1.323 0.661,-3.305c-0.661,-0.658 -1.981,-1.323 -2.643,-0.658Z" style="fill-rule:nonzero;"/><path d="M189.219,244.507l-9.915,3.963c-1.982,0.659 -1.982,1.323 -1.982,2.646c0.662,1.317 1.982,1.982 3.305,1.317l9.915,-4.622c1.323,0 1.981,-1.323 1.323,-2.646c-0.661,-0.658 -1.323,-1.316 -2.646,-0.658Z" style="fill-rule:nonzero;"/><path d="M191.865,256.403l-8.595,4.628c-1.32,0 -1.981,1.316 -1.32,1.981c0.658,1.323 1.981,1.323 2.643,1.323l9.253,-4.628l0.662,-1.982c-0.66,-1.322 -1.322,-1.987 -2.643,-1.322Z" style="fill-rule:nonzero;"/><path d="M195.829,266.983l-5.948,2.64c-1.32,0 -1.982,1.323 -1.32,1.981c0.658,1.323 1.32,1.988 2.645,1.323l5.947,-1.981c1.324,-0.658 1.981,-1.323 1.324,-3.305c-0.664,-1.323 -1.325,-1.323 -2.648,-0.658Z" style="fill-rule:nonzero;"/><path d="M220.948,220.714l-15.205,5.28c-1.981,0.665 -1.981,1.33 -1.981,2.646c0.662,1.323 1.981,1.323 2.645,1.323l15.861,-5.287l1.323,-2.646c0,-1.316 -1.323,-1.981 -2.643,-1.316Z" style="fill-rule:nonzero;"/><path d="M224.253,233.269l-11.899,3.97c-1.981,0.658 -1.981,1.317 -1.981,2.64c0.662,1.323 1.981,1.323 3.306,1.323l11.896,-4.628c1.322,0 1.322,-0.665 1.322,-1.981c-0.001,-1.324 -1.324,-1.324 -2.644,-1.324Z" style="fill-rule:nonzero;"/><path d="M224.253,244.507l-7.271,2.646c-1.323,0.659 -1.323,1.317 -1.323,2.64c0.661,1.323 1.323,1.323 2.646,1.323l7.27,-3.305c1.322,0 1.322,-0.659 1.322,-1.988c-0.001,-1.316 -1.324,-1.316 -2.644,-1.316Z" style="fill-rule:nonzero;"/><path d="M224.253,109.664c-21.151,1.323 -35.034,3.305 -42.964,6.61c-13.881,7.933 -29.745,19.171 -46.269,35.696c-19.168,17.841 -27.763,31.726 -27.101,40.317c0.662,4.628 6.61,9.256 18.506,12.562c11.238,3.963 17.848,6.609 18.51,9.915c1.981,6.61 -1.985,17.183 -11.238,33.049l74.032,-33.049l-0.662,-12.562c-1.322,-8.591 -4.627,-13.878 -9.914,-17.183l-14.542,-3.305c-5.287,-1.323 -8.591,-3.963 -10.573,-7.933c-1.985,-4.628 8.592,-15.201 31.727,-31.726c22.473,-16.525 38.996,-27.098 50.896,-31.732c-9.259,-0.659 -19.175,-0.659 -30.408,-0.659Z" style="fill:#fcce00;fill-rule:nonzero;"/><path d="M223.591,106.359c-21.812,1.323 -36.354,3.305 -43.625,7.268c-15.202,7.275 -30.406,19.171 -47.589,35.696c-19.83,19.171 -29.086,33.049 -27.763,42.964c0.662,4.628 3.305,7.933 8.591,11.238c2.646,1.324 7.271,3.305 14.543,5.287c9.253,2.646 13.22,5.293 13.881,6.61c1.981,5.952 -1.985,15.866 -11.238,29.745c-0.662,1.988 -0.662,3.305 1.323,4.628c1.981,1.323 3.305,1.323 4.625,-0.665c9.915,-15.86 13.881,-27.756 11.238,-35.689c-0.662,-3.305 -6.61,-7.275 -17.848,-11.238c-11.896,-3.305 -17.845,-6.609 -18.506,-10.573c-0.662,-7.933 7.271,-20.488 25.778,-37.678c16.524,-15.201 31.729,-27.104 45.607,-34.372c9.916,-5.287 29.085,-7.269 58.832,-6.61c-13.883,7.933 -28.426,17.848 -43.627,29.086c-16.523,12.561 -26.438,21.811 -28.423,27.756l0,5.293c1.323,3.305 3.967,5.952 7.271,7.269l19.168,5.951c5.951,3.305 8.595,11.896 8.595,24.451l0,1.988c0,1.981 1.319,3.305 3.306,3.305c2.643,0 3.305,-1.323 3.305,-3.305l-0.662,-13.878c-1.98,-9.256 -5.947,-15.866 -11.896,-18.513l-19.17,-5.287l-4.625,-4.628c0.662,-3.963 11.235,-13.878 32.387,-29.086c20.49,-15.859 37.016,-25.774 48.912,-30.402c1.322,0 1.984,-0.659 1.984,-3.305c-0.662,-1.981 -1.322,-2.646 -3.305,-2.646c-10.578,-0.66 -20.492,-0.66 -31.069,-0.66Z" style="fill-rule:nonzero;"/><path d="M203.762,109.664c-19.168,11.903 -42.964,31.067 -72.046,58.83c-0.662,0.659 -0.662,1.317 0,1.982l3.305,0.665c28.421,-27.104 52.217,-46.934 71.385,-58.171l0.66,-3.305l-3.304,-0.001Z" style="fill-rule:nonzero;"/><path d="M223.591,108.347c-7.271,3.963 -21.151,14.537 -40.982,31.72l-29.744,25.123c-1.32,0.658 -1.32,1.981 0,3.305c0.662,0.659 1.323,0.659 2.646,0l28.421,-24.458c20.492,-17.848 34.373,-28.421 42.302,-32.384l0.662,-2.646l-3.305,-0.66Z" style="fill-rule:nonzero;"/><path d="M174.679,162.542l-23.796,24.458c-1.323,0.665 -1.323,1.323 0,1.982l2.644,0.658l23.796,-24.451c1.982,-0.659 1.982,-1.323 0,-2.646c-0.662,-0.659 -1.324,-0.659 -2.644,-0.001Z" style="fill-rule:nonzero;"/><path d="M161.459,194.933c-0.662,0.659 -0.662,1.317 0.662,1.982c1.32,1.323 1.981,1.323 2.643,0l15.863,-15.202l-2.644,0c-0.662,-0.658 -0.662,-1.323 0,-1.988l-16.524,15.208Z" style="fill-rule:nonzero;"/><path d="M193.848,183.695l-23.797,21.153c-0.662,1.316 -1.32,1.981 0,3.305l2.644,0l24.458,-21.818l-3.305,-0.658c-0.662,-0.658 -0.662,-1.317 0,-1.982Z" style="fill-rule:nonzero;"/><path d="M187.898,-128.291c-1.323,-0.658 -2.644,0 -3.306,1.988c-3.966,19.165 -12.558,41.634 -25.119,68.073c-25.776,51.563 -58.826,96.509 -101.128,134.186c-1.323,1.317 -1.323,2.646 -0.662,3.963c1.323,1.323 2.644,1.323 4.628,0c42.302,-38.336 76.013,-83.281 101.791,-136.16c13.22,-26.439 21.812,-49.574 25.778,-68.745c0.662,-1.981 0.001,-3.305 -1.982,-3.305Z" style="fill-rule:nonzero;"/><path d="M33.888,50.175c10.576,9.256 20.491,10.573 29.086,5.293l10.573,-10.58c-3.305,-3.305 -7.93,-5.287 -12.558,-7.275c-9.915,-1.974 -19.168,1.989 -27.101,12.562Z" style="fill:#858585;fill-rule:nonzero;"/><path d="M75.532,46.212c0.662,-0.659 0.662,-1.988 0,-2.646c-6.61,-6.61 -13.881,-9.256 -21.814,-8.592c-7.93,0 -15.863,5.287 -21.812,14.543c-0.662,0.659 -0.662,1.982 0.662,3.305c7.93,6.61 16.525,9.256 24.455,7.926c7.932,-1.316 13.88,-5.945 18.509,-14.536Zm-19.83,9.256c-5.29,0.658 -11.238,-0.665 -17.848,-5.293c5.29,-6.61 9.915,-9.915 15.863,-9.915c5.29,-0.658 10.576,1.323 16.524,5.952c-5.286,5.287 -9.914,8.591 -14.539,9.256Z" style="fill-rule:nonzero;"/><path d="M95.361,39.602l-22.473,3.305c-1.985,0 -1.985,0.659 -1.985,2.646c0,1.976 1.323,2.64 2.643,1.976l22.476,-2.64l2.644,-3.305l-3.305,-1.982Z" style="fill-rule:nonzero;"/><path d="M64.293,-1.38c9.253,10.58 17.848,14.543 27.763,11.238c5.287,-1.988 9.915,-4.628 12.558,-8.598c-2.644,-3.963 -5.948,-7.269 -10.577,-9.25c-9.914,-4.628 -19.829,-1.982 -29.744,6.61Z" style="fill:#858585;fill-rule:nonzero;"/><path d="M62.974,-3.362c-0.662,1.316 -1.323,2.646 -0.662,3.963c7.271,7.933 15.201,12.561 23.134,12.561c8.591,0 15.201,-3.305 21.149,-9.915l0,-3.305c-4.624,-7.932 -11.234,-11.902 -19.167,-12.56c-8.592,-0.659 -16.525,2.646 -24.454,9.256Zm37.673,4.622c-5.287,4.635 -9.915,6.61 -15.201,6.61c-5.29,0 -11.238,-3.305 -16.524,-8.585c6.61,-5.293 11.896,-7.275 17.844,-6.61c4.629,0.658 9.915,3.304 13.881,8.585Z" style="fill-rule:nonzero;"/><path d="M101.971,1.26l0.662,1.988l1.32,0.658l23.134,1.323l2.644,-1.981c0,-1.988 -1.32,-3.305 -2.644,-3.305l-22.473,-1.323c-1.323,0 -2.643,0.665 -2.643,2.64Z" style="fill-rule:nonzero;"/><path d="M84.123,109.664c10.576,-8.591 14.543,-17.183 11.238,-27.098l-7.271,-12.562l-9.915,11.238c-4.629,8.592 -2.643,17.848 5.948,28.422Z" style="fill:#858585;fill-rule:nonzero;"/><path d="M90.071,68.023l-3.305,0l-5.948,5.287c-3.966,4.628 -6.609,9.256 -7.271,13.878c-1.32,7.939 1.324,15.866 8.595,24.464l3.305,0.658c8.591,-6.61 13.22,-14.543 13.881,-22.476c0.658,-5.287 -1.323,-10.573 -3.967,-15.201l-5.29,-6.61Zm3.967,21.811c0,5.293 -3.305,10.573 -9.915,15.866c-3.967,-5.951 -5.948,-10.573 -5.948,-14.543l0.662,-3.305c0.662,-4.628 3.305,-9.915 8.591,-14.543c4.628,5.293 6.61,9.915 6.61,15.866l0,0.659Z" style="fill-rule:nonzero;"/><path d="M88.089,47.529l-2.643,22.476l2.643,2.647c1.982,0 2.644,0 2.644,-1.988l2.643,-22.47c0,-1.981 -0.658,-3.305 -2.643,-3.305c-1.982,0 -2.644,1.323 -2.644,2.64Z" style="fill-rule:nonzero;"/><path d="M137.002,70.663c7.271,-11.231 7.271,-21.146 1.323,-29.744l-11.238,-8.585l-5.287,13.878c-1.323,9.914 3.305,18.506 15.202,24.451Z" style="fill:#858585;fill-rule:nonzero;"/><path d="M136.34,72.651c0.662,1.316 1.985,0.658 3.305,-0.659c5.29,-9.256 7.271,-17.189 4.628,-25.123c-1.324,-5.287 -4.628,-9.256 -9.253,-13.22c-3.305,-2.646 -5.948,-3.963 -7.271,-3.963c-0.662,-0.658 -1.981,0 -2.643,0.659l-4.628,7.268c-1.981,5.293 -1.981,10.58 -1.32,15.866c1.319,7.934 7.267,14.544 17.182,19.172Zm3.305,-24.458l0.662,5.287c0,3.963 -1.981,7.933 -3.966,13.22c-6.61,-3.963 -11.235,-8.591 -12.558,-13.878l0,-4.628c0,-3.305 1.323,-7.274 3.966,-12.555c5.948,3.963 9.915,7.926 11.896,12.554Z" style="fill-rule:nonzero;"/><path d="M120.477,7.87c-1.981,0.665 -1.981,1.988 -1.981,3.305l5.948,21.818c0.662,1.317 1.323,1.981 2.643,1.981c1.985,-0.665 2.644,-1.981 2.644,-3.305l-5.948,-21.812c-0.662,-1.987 -1.983,-2.646 -3.306,-1.987Z" style="fill-rule:nonzero;"/><path d="M177.322,-15.265l-13.881,2.646l5.948,13.22c7.271,7.933 16.525,9.256 29.085,4.628c-3.965,-12.554 -11.238,-19.829 -21.152,-20.494Z" style="fill:#858585;fill-rule:nonzero;"/><path d="M161.459,-15.265l-0.662,3.305l2.643,7.275c1.985,5.287 5.948,9.25 9.915,11.896c7.271,3.963 15.863,3.963 26.439,0.659c1.323,-0.659 1.323,-1.317 1.323,-3.305c-3.305,-10.573 -8.596,-17.183 -15.863,-20.488l-15.205,-1.317l-8.59,1.975Zm4.625,3.97c7.271,-1.982 12.561,-1.982 17.186,0c4.628,2.64 7.934,7.274 11.238,14.543l-17.848,0c-5.286,-3.305 -9.252,-7.933 -10.576,-14.543Z" style="fill-rule:nonzero;"/><path d="M32.567,107.017c13.881,0 22.473,-4.622 26.439,-14.537l1.32,-14.543l-14.54,2.64c-9.913,3.97 -13.88,12.562 -13.219,26.44Z" style="fill:#858585;fill-rule:nonzero;"/><path d="M60.327,75.298l-7.93,0.658c-5.948,0.658 -11.238,3.305 -14.543,6.61c-5.287,5.287 -7.93,13.878 -7.271,25.116c0,1.323 0.662,1.981 1.985,1.981c11.235,0 19.83,-3.305 24.455,-9.256c3.305,-3.963 5.29,-9.25 5.952,-14.537l-0.662,-7.933l-1.986,-2.639Zm-24.454,29.079c0,-7.933 1.981,-13.884 5.287,-17.848c4.628,-3.963 9.915,-5.952 16.524,-5.952l0,1.988c0,5.952 -1.981,10.573 -4.625,14.537c-3.305,3.97 -9.257,5.952 -17.186,7.275Z" style="fill-rule:nonzero;"/></g></g><rect id="PATH77" x="2.92" y="2.74" width="366.67" height="582.52" style="fill:none;stroke:#000;stroke-width:3px;"/></svg>