<?xml version="1.0" encoding="UTF-8" standalone="no"?><!DOCTYPE svg PUBLIC "-//W3C//DTD SVG 1.1//EN" "http://www.w3.org/Graphics/SVG/1.1/DTD/svg11.dtd"><svg width="100%" height="100%" viewBox="0 0 372 587" version="1.1" xmlns="http://www.w3.org/2000/svg" xmlns:xlink="http://www.w3.org/1999/xlink" xml:space="preserve" xmlns:serif="http://www.serif.com/" style="fill-rule:evenodd;clip-rule:evenodd;stroke-miterlimit:100;"><g><clipPath id="_clip1"><rect x="1.332" y="281.568" width="368.079" height="304.161"/></clipPath><g clip-path="url(#_clip1)"><path d="M186.196,284.828c-37.171,0 -73.04,6.521 -107.606,18.916c-32.607,12.387 -62.607,29.996 -89.997,53.472l0,258.253l394.557,0l0,-258.253c-26.739,-23.476 -57.393,-41.085 -90,-53.472c-34.563,-12.394 -70.431,-18.916 -106.954,-18.916Z" style="fill:#858585;fill-rule:nonzero;"/><path d="M186.196,281.568c-36.521,0 -72.391,5.871 -106.301,18.915c-34.566,12.387 -65.215,30.647 -93.26,54.121l-1.303,0.656l0,263.469l401.079,0l0,-263.468l-1.306,-0.656c-27.389,-23.475 -58.694,-41.734 -93.258,-54.121c-33.913,-13.045 -69.128,-18.916 -105.651,-18.916Zm-103.04,24.781c32.607,-12.388 67.172,-18.259 103.04,-18.259c35.216,0 69.13,5.871 102.391,18.259c33.911,12.387 64.563,29.348 91.303,52.173l0,253.687l-388.036,0l0,-253.688c27.388,-22.825 57.388,-39.786 91.302,-52.172Z" style="fill-rule:nonzero;"/><path d="M40.113,599.165c7.174,-11.082 15.65,-21.514 24.781,-31.296c33.26,-37.831 72.39,-65.217 117.389,-82.177c43.043,-16.96 90,-22.825 141.52,-18.259l43.696,6.521l15.651,2.611c-15.002,-4.573 -34.566,-9.133 -59.348,-11.744c-50.217,-5.872 -98.477,-0.649 -143.475,17.609c-45.652,16.96 -84.781,44.996 -118.043,84.125c-9.78,11.096 -16.955,22.177 -22.171,32.61Z" style="fill-rule:nonzero;"/><path d="M12.071,479.171c11.085,-4.566 22.173,-9.126 33.911,-12.387c50.869,-11.744 100.432,-11.095 149.344,0.649c45.65,12.394 91.303,32.608 136.305,61.306c21.52,13.692 39.129,25.431 51.52,35.869l-12.391,-11.095l-37.174,-27.386c-45.652,-29.347 -91.303,-50.218 -137.607,-61.955c-48.912,-13.043 -98.477,-13.043 -149.996,0c-13.698,3.911 -24.782,9.134 -33.912,14.999Z" style="fill-rule:nonzero;"/><path d="M64.895,569.817c-7.172,5.223 -12.391,11.744 -15.652,18.266c4.566,-5.872 10.436,-11.744 17.609,-16.304c11.086,-8.483 24.781,-15.005 41.738,-19.564c18.912,-5.223 37.824,-6.522 56.739,-3.911c30.649,3.911 61.955,17.604 95.213,40.429c14.349,10.433 26.087,19.565 33.913,26.736l-7.174,-8.471l-25.434,-20.876c-31.955,-22.826 -64.563,-37.168 -95.869,-41.734c-20.215,-2.605 -39.129,-0.656 -58.041,4.566c-17.607,4.56 -31.302,11.737 -43.042,20.863Z" style="fill-rule:nonzero;"/><path d="M50.549,527.428c-14.35,3.916 -26.087,9.782 -35.869,16.96c-7.828,5.865 -14.35,11.088 -17.609,16.96c5.868,-4.573 11.74,-9.783 18.912,-14.355c10.435,-6.521 21.522,-11.731 35.219,-16.304c15.65,-5.21 30.649,-7.172 46.953,-7.821c27.393,0 55.434,6.521 83.479,19.564c13.693,6.522 24.129,12.394 31.955,17.604l-7.174,-6.521l-23.479,-13.043c-28.694,-14.992 -56.736,-21.514 -84.781,-21.514c-16.304,0.648 -32.608,3.26 -47.606,8.47Z" style="fill-rule:nonzero;"/><path d="M23.156,342.218c11.088,-3.917 22.173,-6.521 33.914,-9.127c47.605,-7.833 97.824,-3.917 151.299,12.388c47.609,14.998 91.303,40.435 131.738,77.603l30,31.31c-7.175,-11.088 -16.305,-21.526 -28.045,-33.914c-38.477,-36.524 -82.822,-62.611 -132.388,-78.259c-26.739,-8.478 -55.434,-13.699 -84.128,-15.648l-69.13,3.91c-12.39,1.954 -23.478,5.871 -33.26,11.737Z" style="fill-rule:nonzero;"/><path d="M207.72,394.391c-29.347,4.566 -59.347,16.96 -88.694,37.174c-8.48,5.872 -16.305,12.394 -22.826,18.26l-7.827,7.827l9.13,-6.521l22.826,-17.61c30.652,-18.908 60,-31.302 88.041,-35.868l52.826,-1.306c14.348,1.306 28.693,4.566 41.737,9.133c8.479,3.261 17.609,6.521 26.739,11.081l9.782,3.917c-8.477,-5.865 -20.218,-11.737 -35.868,-16.96c-13.044,-5.865 -27.39,-9.126 -42.391,-11.081c-18.259,-1.963 -35.869,-1.307 -53.475,1.954Z" style="fill-rule:nonzero;"/><path d="M139.242,402.218l26.087,5.872c0,-0.656 -8.479,-3.917 -25.437,-7.834c-19.564,-5.865 -41.085,-7.82 -64.563,-7.171c-23.479,1.306 -44.346,4.566 -63.258,12.394c-6.521,2.611 -12.394,5.216 -17.609,8.477l-5.869,3.917l24.781,-9.782c19.564,-6.522 40.435,-10.438 61.955,-11.095c22.173,-0.65 43.043,1.311 63.913,5.222Z" style="fill-rule:nonzero;"/><path d="M78.59,306.349l18.912,-0.656l61.955,4.573c22.826,3.91 43.043,9.126 60,15.647l18.26,6.521l7.174,1.306l-6.521,-3.261l-17.606,-7.171c-17.609,-7.178 -37.827,-13.043 -60.653,-16.96l-62.607,-3.261l-18.912,1.955l-6.521,1.962l6.519,-0.655Z" style="fill-rule:nonzero;"/><path d="M222.065,304.394c-18.912,-7.172 -38.478,-11.744 -58.042,-15.005l-17.609,-1.299l-6.521,0l24.131,3.91c18.26,3.91 37.174,9.133 56.086,15.654c18.26,7.171 36.522,14.998 54.781,24.125l21.521,10.438l-20.868,-13.044c-15.002,-9.125 -33.261,-16.959 -53.479,-24.779Z" style="fill-rule:nonzero;"/><path d="M223.371,289.389c-12.391,-3.91 -18.263,-5.21 -18.263,-3.91l17.61,5.871c16.956,5.872 31.302,11.738 43.043,17.604c11.084,4.573 24.78,11.744 41.084,20.877c10.436,7.171 16.305,9.782 16.957,9.782c0,-0.655 -4.566,-3.916 -15.65,-11.744c-11.741,-8.477 -25.434,-15.654 -40.436,-22.825c-14.997,-7.172 -29.347,-12.395 -44.345,-15.655Z" style="fill-rule:nonzero;"/><path d="M201.197,372.87c-16.956,3.261 -33.913,8.477 -50.217,15.654l-13.696,7.821c-3.261,1.961 -4.563,3.261 -3.913,3.91l19.564,-9.126c16.305,-6.522 32.607,-11.738 48.912,-13.699l50.871,-4.561l22.172,-0.649l-22.172,-2.611l-51.521,3.261Z" style="fill-rule:nonzero;"/><path d="M232.5,352l-15.65,-0.656l-37.175,5.223c-13.696,4.56 -25.434,8.477 -35.216,13.692c-9.783,4.566 -13.696,7.827 -13.696,7.827l14.349,-5.216c11.738,-4.566 22.826,-9.133 35.217,-11.744c11.737,-3.261 23.479,-5.865 36.521,-7.171l15.65,-1.955Z" style="fill-rule:nonzero;"/><path d="M248.152,459.606c-32.609,-13.043 -63.911,-20.221 -92.605,-23.481l-28.697,-1.949l-11.086,1.3l11.086,0.649l28.045,2.611c29.347,4.566 60.648,12.394 91.955,24.787c31.303,12.387 59.996,26.735 84.781,42.391l33.257,21.514l-8.477,-7.172l-23.479,-16.953c-24.127,-16.305 -52.172,-30.654 -84.78,-43.697Z" style="fill-rule:nonzero;"/><path d="M246.196,440.042c-13.043,-5.217 -26.739,-9.783 -41.088,-13.699c-13.043,-3.262 -27.389,-6.522 -42.391,-8.471l-18.259,0l17.609,3.261l41.738,9.126c14.346,3.261 28.041,7.827 41.736,13.044l16.305,4.566c0.654,-0.65 -4.565,-3.261 -15.65,-7.827Z" style="fill-rule:nonzero;"/><path d="M243.588,418.521l-25.436,-9.782c-11.086,-3.261 -20.215,-4.566 -28.043,-5.223c-7.174,-1.299 -11.088,-1.299 -11.088,0l11.088,1.962l26.087,7.171l26.087,8.483l11.088,3.261c0.65,-0.656 -2.611,-2.611 -9.783,-5.872Z" style="fill-rule:nonzero;"/><path d="M182.936,342.218l12.391,-2.605l-13.043,-0.655c-11.086,1.305 -20.867,3.261 -30.65,6.521c-9.782,3.261 -19.564,7.178 -28.045,13.043c-7.171,4.566 -11.084,7.178 -10.432,7.827l11.738,-5.223c8.477,-4.56 17.609,-8.47 28.041,-11.731c9.782,-3.261 19.564,-5.872 30,-7.177Z" style="fill-rule:nonzero;"/><path d="M314.021,471.344l45.651,29.997l9.782,5.223l-7.827,-7.172l-22.173,-16.96l-23.479,-13.043c-6.521,-3.917 -10.432,-5.216 -11.085,-5.216l9.131,7.171Z" style="fill-rule:nonzero;"/><path d="M27.07,518.957c13.695,-5.872 28.693,-9.782 46.304,-11.744c18.911,-2.611 38.477,-2.611 57.389,-0.649c18.263,2.611 36.521,7.82 56.087,15.654c10.435,5.21 24.78,11.731 42.391,22.17l36.521,23.481c-7.828,-7.178 -20.219,-15.654 -35.869,-26.087c-15.002,-9.782 -29.348,-17.616 -41.738,-22.825c-18.914,-8.483 -37.826,-14.355 -56.738,-16.305c-20.219,-2.61 -39.783,-1.961 -59.348,0.65c-16.957,2.611 -32.607,7.171 -45.651,13.043c-10.436,4.56 -20.219,9.783 -28.695,15.655l-9.13,7.821l10.436,-5.872c8.476,-6.521 17.606,-11.082 28.041,-14.992Z" style="fill-rule:nonzero;"/><path d="M242.283,526.128c-9.783,-6.521 -19.564,-12.394 -30,-18.266c-9.13,-4.56 -19.565,-9.126 -31.955,-14.343l-14.35,-3.261l13.043,5.872l31.307,14.992l30,17.616c8.477,5.21 12.391,7.171 12.391,6.521l-10.436,-9.131Z" style="fill-rule:nonzero;"/><path d="M200.545,483.737l35.217,17.604l8.477,3.261l-6.521,-5.21c-3.262,-1.961 -8.477,-5.222 -17.607,-9.782l-18.262,-7.833l-8.477,-2.605l7.173,4.565Z" style="fill-rule:nonzero;"/></g></g><rect id="PATH77" x="2.92" y="2.74" width="366.67" height="582.52" style="fill:none;stroke:#000;stroke-width:3px;"/></svg>