<?xml version="1.0" encoding="UTF-8" standalone="no"?><!DOCTYPE svg PUBLIC "-//W3C//DTD SVG 1.1//EN" "http://www.w3.org/Graphics/SVG/1.1/DTD/svg11.dtd"><svg width="100%" height="100%" viewBox="0 0 372 587" version="1.1" xmlns="http://www.w3.org/2000/svg" xmlns:xlink="http://www.w3.org/1999/xlink" xml:space="preserve" xmlns:serif="http://www.serif.com/" style="fill-rule:evenodd;clip-rule:evenodd;stroke-miterlimit:100;"><g><clipPath id="_clip1"><rect x="3.136" y="72.308" width="365.963" height="514.174"/></clipPath><g clip-path="url(#_clip1)"><path d="M131.688,589.142l26.004,-0.664c0.671,-20.007 -4.669,-40.685 -14.673,-61.36c-20.006,-42.006 -56.685,-64.684 -110.035,-68.682l16.672,6.67c12.673,5.996 24.676,14.001 35.35,22.67c34.008,27.344 49.345,61.353 46.682,101.366Z" style="fill:#858585;fill-rule:nonzero;"/><path d="M32.984,455.766c-1.329,0 -2,0.664 -2.664,1.999c0,1.999 0,3.334 1.335,3.334l16.672,6.669c13.338,6.669 24.669,14.01 35.343,22.671c32.674,26.676 48.017,60.02 44.683,98.703l1.329,1.999l2.005,0.672l26.004,-1.343c1.335,0 2.67,-0.664 2.67,-1.991c0.665,-21.349 -4.669,-42.685 -15.336,-63.354c-21.341,-42.685 -58.691,-65.361 -112.041,-69.359Zm101.367,123.372c0,-28.681 -10.003,-54.686 -30.674,-77.354c-14.008,-14.679 -30.681,-27.347 -52.016,-38.021c41.341,7.339 70.022,27.347 87.359,61.361c10.003,18.664 16.008,39.341 16.008,60.683l-20.678,0.664l0.001,-7.333Z" style="fill-rule:nonzero;"/><path d="M381.098,431.76c-16.002,3.334 -32.01,12.667 -49.346,26.676c-34.679,30.011 -56.021,73.356 -64.023,130.706l27.347,4.662c2.663,-18.664 7.333,-38.671 16,-62.012c16.671,-44.688 40.011,-78.033 70.022,-100.032Z" style="fill:#858585;fill-rule:nonzero;"/><path d="M265.729,591.141l2,0.671l27.347,4l1.327,-0.665l1.336,-1.343c1.999,-18.664 8.004,-38.671 16.008,-61.347c7.333,-18.679 15.337,-34.68 24.676,-48.688c-12.009,11.345 -22.013,26.675 -28.681,44.688c-7.333,20.007 -13.339,40.677 -17.337,62.012l-21.342,-3.334c6.668,-43.348 21.342,-78.684 43.348,-106.03c14.673,-19.335 32.68,-32.672 52.687,-41.348c-9.339,8.003 -15.337,18.008 -20.007,30.675c10.668,-14.666 22.006,-26.677 35.344,-36.009l0.664,-3.335c-0.664,-1.335 -1.329,-1.999 -2.663,-1.999c-16.673,3.335 -33.345,13.337 -50.687,28.676c-34.673,30.01 -56.686,74.026 -64.02,131.377l0,1.999Z" style="fill-rule:nonzero;"/><path d="M269.729,498.448c-7.334,34.009 -7.998,66.688 -4,97.361l29.347,-2.007c-10.005,-65.346 0,-122.03 30.674,-171.383c16.007,-24.676 32.009,-43.348 50.016,-54.686c-56.687,18.009 -92.702,61.357 -106.037,130.715Z" style="fill:#858585;fill-rule:nonzero;"/><path d="M263.059,596.475l2.67,2.007l29.347,-2.671c0.664,0 1.327,0 1.999,-0.665l0.664,-2.005c-10.004,-63.354 0,-119.375 30.01,-168.721c14.673,-24.012 31.345,-42.676 49.352,-54.686l0.664,-3.998c-0.664,-1.336 -1.999,-1.336 -3.334,-1.336c-56.686,19.336 -92.693,63.354 -106.701,132.706c-7.335,34.686 -8.669,68.031 -4.671,99.369Zm5.339,-3.334l-2.006,-32.01c0,-36.679 5.34,-69.352 16.008,-98.032c16.008,-42.014 42.013,-70.688 78.689,-87.358c-18.671,17.336 -33.344,36.679 -45.347,59.354c-18.007,34.009 -27.341,72.018 -27.341,112.029c0,13.337 1.33,28.017 4,44.018l-24.003,1.999Z" style="fill-rule:nonzero;"/><path d="M231.721,592.477c-13.338,-55.356 -33.345,-114.704 -60.02,-178.06c-54.022,-128.042 -116.705,-212.067 -186.063,-253.415c27.339,36.008 56.685,80.696 87.359,134.047c62.689,108.03 103.367,208.063 122.708,300.097l36.016,-2.669Z" style="fill:#858585;fill-rule:nonzero;"/><path d="M234.383,592.477c-14.001,-57.351 -34.679,-117.368 -62.018,-181.394c-54.015,-126.708 -116.04,-211.403 -185.392,-252.081l-3.334,0c-0.671,2 -0.671,3.334 0,3.999c28.011,36.015 57.35,81.361 88.03,135.383c61.347,107.365 102.031,206.733 120.702,297.427c0.665,1.328 1.999,1.999 3.334,1.999l36.016,-2.664l1.998,-0.67l0.664,-1.999Zm-36.678,0c-17.336,-80.69 -52.016,-168.727 -102.696,-264.082c-30.68,-56.021 -63.354,-108.708 -98.704,-157.39c62.689,42.677 118.71,120.71 168.727,235.408c27.339,61.354 48.01,122.709 63.354,184.057l-30.681,2.007Z" style="fill-rule:nonzero;"/><path d="M185.702,291.715l-14.672,3.334l-2,22.672c-0.665,18.67 0,39.342 2,61.354c6.668,70.022 24.675,142.716 56.685,215.401l18.672,0c-13.338,-24.013 -24.671,-54.686 -36.679,-92.028c-22.671,-74.693 -30.674,-144.716 -24.006,-210.733Z" style="fill:#fff;fill-rule:nonzero;"/><path d="M168.366,295.049l-2.005,22.672c-0.665,20.006 0,40.012 2.005,62.682c6.669,70.693 25.34,142.052 56.685,214.743l2.664,1.993l18.672,0l2.67,-1.328l0,-2.67c-13.338,-24.67 -25.34,-56.021 -36.68,-92.698c-10.002,-33.346 -17.335,-66.019 -20.67,-98.027c0.664,33.345 5.998,66.688 16.002,101.361c10.002,32.016 21.34,61.36 34.68,88.035l-13.34,0c-21.34,-51.356 -37.342,-103.365 -46.681,-154.054c-7.333,-36.679 -10.667,-72.021 -10.667,-104.701c0,-17.337 0.664,-28.676 1.328,-35.344l10.003,-2.664c-1.329,16.672 -2,30.674 -2,42.678c0,16.672 2.67,34.015 8.003,51.352c-3.334,-32.68 -3.334,-64.689 0,-96.698l-0.663,-2.006l-2.671,-1.328l-15.337,3.334c-1.334,0.662 -1.998,1.998 -1.998,2.668Z" style="fill-rule:nonzero;"/><path d="M135.022,283.04l7.333,38.015c8.667,29.338 23.34,52.68 44.012,70.021l-0.665,-22.67c-5.333,-4.006 -10.003,-10.674 -15.337,-20.678c-10.674,-18.672 -16.672,-40.014 -18.007,-64.688l-17.336,0Z" style="fill:#ffe000;fill-rule:nonzero;"/><path d="M152.358,280.37l-17.336,0c-0.671,0 -1.335,0.671 -2.006,0.671l-0.664,2l7.333,39.35c9.339,30.01 24.012,53.351 45.354,70.687c0.664,1.336 1.999,1.336 3.335,0l0.663,-1.999l-0.663,-22.67l-1.336,-1.342c-4.669,-4.664 -9.339,-11.996 -14.672,-21.336c-10.003,-18.006 -16.008,-38.685 -17.336,-62.688c-0.001,-2.002 -1.337,-2.673 -2.672,-2.673Zm-14.002,5.34l11.332,0c2.005,22.677 8.003,42.685 16.672,60.685c5.34,9.34 10.674,18.006 16.008,23.34l1.335,14.674c-16.672,-16.001 -28.674,-35.344 -37.349,-58.686c-4.663,-14.002 -7.998,-27.339 -7.998,-40.013Z" style="fill-rule:nonzero;"/><path d="M279.066,224.356c18.671,-62.019 40.013,-112.035 63.354,-150.049c-72.691,88.694 -113.371,202.064 -122.709,340.11c-4.663,69.352 -2,129.371 8.004,180.729l34.016,0.665c-26.012,-122.709 -20.008,-246.748 17.335,-371.455Z" style="fill:#858585;fill-rule:nonzero;"/><g><path d="M322.413,105.652c-20.006,40.677 -36.679,84.689 -50.017,132.041c-19.342,69.352 -29.346,138.709 -29.346,208.733c0,48.019 5.34,97.362 15.344,147.378l-28.682,-1.992c-5.333,-32.016 -8.668,-71.363 -8.668,-118.71c0,-58.685 6.669,-115.369 18.671,-168.721c-11.331,33.346 -18.671,70.023 -21.334,108.037c-5.341,68.688 -2.671,130.042 6.668,182.728l2.664,1.993l34.015,1.343l2,-0.672l0.664,-1.999c-25.341,-121.374 -20.006,-244.746 16.672,-368.121c18.008,-62.019 40.014,-112.699 64.024,-152.048c0.665,-1.335 0.665,-2.006 -0.671,-3.334l-3.998,0.664c-49.354,61.354 -82.025,134.041 -98.033,219.407c16.675,-70.023 43.348,-132.712 80.027,-186.727Z" style="fill-rule:nonzero;"/><path d="M239.717,303.711c0,-3.335 1.336,-7.997 2.672,-11.332l-2,5.334l-0.672,5.998Z" style="fill-rule:nonzero;"/></g><path d="M179.698,261.034c6.004,-12.002 11.338,-26.675 14.672,-44.683c-8.668,-0.664 -15.336,0.664 -19.335,4.669c-2.67,2 -6.669,10.674 -12.009,24.676l-6.669,20.006l15.344,8.668l7.997,-13.336Z" style="fill:#fff;fill-rule:nonzero;"/><path d="M196.369,215.688l-1.327,-1.335c-10.004,-1.335 -17.344,0 -22.013,4.669c-4.663,3.999 -10.667,19.342 -18.671,46.018c-0.665,1.329 0,2.663 1.334,2.663l14.673,8.668l3.334,-0.665l8.668,-13.337c6.668,-12.673 10.668,-27.34 14.673,-44.683l-0.671,-1.998Zm-20.006,6.668c3.334,-2.67 8.675,-3.334 14.673,-3.334c-5.334,24.005 -12.002,41.341 -20.006,52.016l-11.339,-6.669c8.004,-24.676 12.674,-38.014 16.672,-42.013Z" style="fill-rule:nonzero;"/><path d="M239.053,205.02l-16.008,7.333l-10.668,14.667c-8.667,12.009 -14.001,23.34 -17.335,34.015l18,-1.335l8.004,-22.006c6.669,-15.338 12.003,-26.676 18.007,-32.674Z" style="fill:#fff;fill-rule:nonzero;"/><path d="M241.723,207.013c0.666,-1.329 0.666,-2.664 0,-3.334c-0.67,-1.329 -2.006,-1.329 -3.334,-1.329l-16.008,6.668l-1.335,0.665c-2.663,2.67 -6.669,8.003 -12.003,16.007c-7.333,12.002 -13.338,23.341 -16.672,34.009c0,1.335 0,2.006 0.665,2.67l2.669,0.664l17.337,-0.664l2.67,-2.006l7.333,-21.335c6.669,-15.343 12.674,-26.011 18.678,-32.015Zm-16.672,7.34l6.67,-3.334c-7.34,11.338 -14.01,26.675 -20.007,46.011l-12.674,0.67c6.004,-15.337 14.002,-30.01 26.011,-43.347Z" style="fill-rule:nonzero;"/><path d="M153.022,183.672l-7.997,6.669l-4.005,24.012c-2.664,19.335 -2,36.007 1.335,50.016l16.007,6.669c-6.668,-40.014 -8.003,-68.688 -5.34,-87.366Z" style="fill:#fff;fill-rule:nonzero;"/><path d="M155.029,181.008l-2.67,0.671l-9.339,6.668l-0.664,1.329l-3.999,25.347c-2.006,19.335 -2.006,36.007 1.328,50.016l2.006,1.992l15.337,6.669l2.663,-0.665c1.335,0 1.335,-0.664 1.335,-1.999c-6.668,-40.013 -8.004,-69.352 -5.334,-86.695l-0.663,-3.333Zm-7.341,11.339l2,-2.67l-0.665,14.672c0,12.002 1.999,33.344 6.005,62.683l-10.003,-4.662c-2.006,-8.004 -2.67,-16.672 -2.67,-26.011c0,-16.672 1.999,-30.675 5.333,-44.012Z" style="fill-rule:nonzero;"/><path d="M167.695,268.374l13.337,7.333c8.003,-16.672 14.009,-32.015 16.672,-46.017c1.999,-10.667 1.999,-21.335 1.335,-32.009c-0.664,-10.674 -3.335,-15.336 -7.333,-14.008c-3.334,0.671 -4.67,5.34 -5.34,12.009l-2,29.346c-3.333,17.335 -8.667,31.337 -16.671,43.346Z" style="fill:#9260c7;fill-rule:nonzero;"/><path d="M185.038,187.677l-0.67,10.674c0,10.003 -1.335,18.665 -2.664,26.005c-2.67,16.672 -8.675,31.344 -16.672,42.676c-0.671,0.671 -0.671,1.342 0,2.006l0.664,2l13.338,7.339l2.67,0l1.329,-1.342c8.675,-17.336 14.009,-32.673 16.672,-46.011c2.006,-8.668 2.671,-18.671 2.671,-28.01c-0.665,-10.667 -2.671,-18 -6.006,-20.67l-5.333,-1.335c-3.335,1.335 -5.335,3.334 -5.999,6.668Zm3.998,11.339l0.665,-10.003c0.671,-1.335 1.335,-2.67 2.67,-3.334c3.334,2.67 4.67,10.003 4.67,22.676c0,7.333 -0.672,14.667 -1.999,20.671c-2.671,13.337 -8.005,28.004 -16.008,43.347l-8.004,-4.67c8.004,-13.337 13.338,-28.01 16.007,-42.012c1.999,-8.004 1.999,-16.672 1.999,-26.675Z" style="fill-rule:nonzero;"/><path d="M146.354,205.684c18.678,-32.015 21.341,-48.687 8.004,-50.016c-8.004,-0.664 -12.002,7.333 -11.339,24.005c0.671,8.675 2.006,17.337 3.335,26.011Z" style="fill:#9260c7;fill-rule:nonzero;"/><path d="M163.696,159.002c-1.334,-3.334 -4.669,-6.004 -8.667,-6.004c-4.006,-0.664 -6.669,1.335 -9.339,3.334c-3.999,4.669 -6.005,14.001 -4.669,28.01c0.671,8.004 1.335,15.337 3.334,22.006l1.335,2.005l3.334,-1.341c13.338,-24.668 18.671,-40.677 14.672,-48.01Zm-4.669,2l0.664,4.669c0,6.669 -3.999,17.336 -12.002,32.009c-1.334,-6.668 -1.999,-13.337 -1.999,-21.341c0,-8.668 1.999,-14.002 3.999,-16.672c1.334,-0.665 2.67,-1.329 4.669,-1.329c1.999,0.664 4.005,0.664 4.669,2.664Z" style="fill-rule:nonzero;"/><path d="M217.711,222.356l20.678,-9.339c12.002,-6.668 15.338,-12.002 10.004,-17.336c-6.004,-4.669 -12.674,-2.005 -20.006,8.668c-4.006,5.334 -7.341,11.339 -10.676,18.007Z" style="fill:#9260c7;fill-rule:nonzero;"/><path d="M249.721,193.675c-3.335,-2.664 -5.998,-3.334 -10.004,-2.664c-4.662,1.335 -10.668,5.998 -16.672,14.672c-3.998,6.669 -6.669,11.332 -7.333,15.337c-0.664,1.335 -0.664,1.335 0,2.664l3.335,0.671l18.008,-7.34c9.332,-4.663 15.336,-10.002 16.002,-14.666c0,-3.333 -0.666,-6.668 -3.336,-8.674Zm-7.998,2.67c1.329,-0.665 3.336,-0.665 4.664,1.335l1.336,3.334c-1.336,4.669 -8.67,10.003 -24.678,16.001c6.669,-12.666 12.674,-19.335 18.678,-20.67Z" style="fill-rule:nonzero;"/><path d="M125.019,243.027c-3.335,-4.663 -6.669,-8.668 -12.009,-12.002c-10.003,-5.334 -18.671,-5.334 -26.675,2.664c-7.998,7.34 -12.667,22.012 -13.338,42.019c0,10.003 0.671,19.342 2.006,28.004c7.997,-4.664 21.334,-8.662 40.677,-12.667l28.01,-6.669c4.669,-1.999 8.004,-8.004 8.668,-16.672c0,-3.334 -1.335,-7.339 -3.334,-11.338c-4.67,-7.999 -12.673,-12.004 -24.005,-13.339Z" style="fill:#9260c7;fill-rule:nonzero;"/><path d="M126.347,239.693l-7.998,-7.998c-4.669,-4.005 -10.003,-6.669 -15.343,-7.339c-6.669,-1.335 -13.337,1.334 -19.336,6.668c-8.667,8.004 -13.337,22.67 -14.008,43.348c0,10.003 0,20.007 2.005,30.009l2,2l2.664,0c8.675,-3.999 22.012,-7.997 40.013,-12.002l9.339,-2c11.338,-2.006 18.671,-4.669 22.005,-6.669c4.005,-2.67 6.669,-8.675 8.004,-17.336l0,-0.671c0,-4.005 -1.334,-8.003 -3.999,-12.002c-5.339,-9.34 -13.337,-14.003 -25.346,-16.008Zm-38.007,-3.999c4.663,-3.334 8.668,-5.34 13.338,-4.669c7.998,0.671 14.667,5.334 20.006,14.009l3.335,1.328c9.332,1.335 16.001,4.669 20.67,10.668l3.334,10.673c-0.665,6.669 -2.67,11.339 -6.005,12.667c-1.999,2.006 -7.997,4.005 -18.671,5.34l-9.333,2c-16.672,4.005 -28.681,7.339 -37.35,10.674l-1.335,-20.007c0.002,-20.677 4.671,-35.35 12.011,-42.683Z" style="fill-rule:nonzero;"/><path d="M126.347,244.362l0,-2c0,-1.335 -0.664,-1.335 -1.328,-1.335c-17.343,0.67 -30.681,11.338 -40.684,30.68c-5.998,10.003 -9.332,20.671 -11.338,32.003l1.335,1.342l1.999,-0.672c10.003,-14.008 20.677,-28.674 33.344,-43.347l16.672,-16.671Zm-7.997,1.999c-15.343,16.008 -28.01,31.345 -38.684,46.018c3.334,-10.003 7.34,-19.342 12.673,-26.675c7.333,-10.004 16.008,-16.672 26.011,-19.343Z" style="fill-rule:nonzero;"/><path d="M301.071,269.703c3.335,-18.672 1.336,-32.01 -3.334,-38.007c-7.333,-8.675 -16.673,-9.339 -29.339,-4.005l-16.672,11.338l-16.672,1.329c-12.011,2.67 -19.344,8.675 -22.014,19.342c-2,9.339 6.669,15.344 26.012,19.342c28.01,5.333 46.682,11.332 56.021,17.336l5.998,-26.675Z" style="fill:#9260c7;fill-rule:nonzero;"/><path d="M299.736,229.025c-3.998,-4.669 -10.004,-8.004 -16.002,-8.004c-6.004,0 -12.674,1.335 -20.678,5.334c-4.662,3.334 -9.332,6.005 -13.337,9.339c-7.333,-0.664 -14.665,0 -22.006,3.334c-9.332,3.999 -15.338,10.668 -18.007,20.006c-0.665,3.999 -0.665,7.997 2.006,10.668c1.328,3.999 5.997,6.668 12.003,8.674l21.341,4.663c22.67,4.669 39.342,9.339 48.012,16.007l2.67,0.665l2.67,-1.999l6.668,-30.01c2.665,-18.67 0.665,-31.344 -5.34,-38.677Zm-4.662,4.663c2.663,4.005 3.998,10.003 3.998,18.678c0,10.667 -1.335,23.34 -6.004,38.678c-8.67,-5.334 -24.67,-10.003 -47.348,-14.673c-16.673,-3.334 -26.675,-6.668 -28.675,-10.003c-0.671,-0.665 -1.335,-2 -1.335,-3.335l0.664,-2.67c2.671,-9.333 8.675,-14.666 19.343,-16.672l15.337,-1.329l2.67,-0.665l9.332,-7.339c8.004,-5.333 14.674,-6.669 20.008,-6.669c4.67,0.001 8.675,2 12.01,5.999Z" style="fill-rule:nonzero;"/><path d="M297.073,296.378c0,-8.668 -1.999,-18.672 -5.335,-28.004c-8.004,-19.342 -21.342,-29.345 -40.012,-30.681c-1.336,0 -2.006,0 -2.672,1.335c0,0.665 0,1.329 0.665,2l16.009,16.672c12.002,14.673 20.67,27.346 27.34,40.013c0.67,0.671 2.006,0.671 2.67,0.671l1.335,-2.006Zm-4.671,-8.669c-9.338,-15.337 -20.67,-30.01 -34.678,-44.683c20.006,4.67 31.344,20.007 34.678,44.683Z" style="fill-rule:nonzero;"/><path d="M197.041,252.366l-20.007,10.003c-6.004,-2.006 -12.673,-3.335 -20.006,-2.67c-14.009,0.664 -20.677,7.333 -22.006,20.006c-0.671,11.338 5.998,22.676 20.67,32.68c20.671,13.338 32.681,23.342 36.015,28.676c7.333,-6.67 14.002,-14.675 20.67,-24.014c12.674,-19.335 16.672,-35.336 12.674,-49.345c-4.669,-14.672 -13.337,-20.006 -28.01,-15.336Z" style="fill:#9260c7;fill-rule:nonzero;"/><path d="M141.02,304.381c3.334,4.006 10.674,9.333 21.342,16.002c13.337,8.012 22.676,15.344 26.674,22.012l2.671,2l1.999,-1.334c8.669,-7.334 15.337,-15.338 22.006,-25.34c13.337,-19.337 16.672,-36.68 12.674,-51.353c-3.335,-9.339 -8.675,-15.337 -16.009,-17.336c-10.002,-3.334 -22.005,0 -36.014,10.003c-14.001,-4.669 -26.004,-3.999 -34.008,2c-6.005,3.334 -9.339,10.003 -10.668,18.007c0.001,9.338 2.664,18 9.333,25.339Zm38.014,-38.677l10.667,-6.669c8.675,-4.669 15.343,-6.004 20.677,-3.999c5.334,1.329 8.669,5.998 11.338,13.337l1.329,10.668c0,16.672 -10.668,36.014 -30.674,56.686c-4.669,-5.34 -13.337,-12.011 -26.675,-20.672l-18.671,-14.008c-5.333,-5.999 -8.668,-12.003 -8.668,-18.672l0,-2.67c0.664,-6.004 3.334,-10.667 7.333,-13.337c3.999,-3.335 10.667,-3.999 19.342,-3.335l10.667,2.67l3.335,0.001Z" style="fill-rule:nonzero;"/><path d="M178.369,261.034l-2.67,0c-0.664,0 -0.664,1.335 -0.664,1.999l5.333,22.677l9.333,55.351l2.006,1.334l1.999,-1.334c3.335,-10.674 5.334,-22.67 5.334,-34.016c0,-23.341 -6.669,-38.671 -20.671,-46.011Zm2,6.669c9.333,8.004 14.673,20.677 14.673,38.014c0,7.997 -1.336,15.338 -2.671,24.006c-3.335,-19.343 -6.669,-40.678 -12.002,-62.02Z" style="fill-rule:nonzero;"/><path d="M251.055,467.097c-4.669,46.683 -4.669,89.365 1.336,128.714l25.34,0c-10.002,-82.031 -2.662,-160.717 21.343,-234.742c12.674,-37.352 25.341,-66.02 39.349,-86.695c-49.355,36.006 -78.698,100.03 -87.368,192.723Z" style="fill:#858585;fill-rule:nonzero;"/><path d="M339.749,272.373l-3.334,0c-48.681,35.343 -78.021,100.033 -87.358,192.731c-4.67,46.682 -4.67,90.693 0.664,130.706c0,1.999 0.67,2.671 2.67,2.671l26.676,0l0.664,-2.671c-9.332,-80.689 -2,-158.724 22.013,-232.08c11.333,-37.344 24.006,-66.688 38.679,-88.023c1.332,-1.335 1.332,-2.006 -0.674,-3.334Zm-88.694,253.414c0,-46.683 4.67,-88.029 14.674,-125.379c12.674,-50.016 33.345,-88.688 62.689,-114.698c-14.009,25.341 -26.011,53.351 -35.35,86.03c-14.666,50.017 -22.672,102.024 -22.672,155.376c0,21.349 1.336,43.347 4,66.688l-19.336,-0.663c-2.669,-18.001 -4.005,-40.678 -4.005,-67.354Z" style="fill-rule:nonzero;"/><path d="M162.362,592.477l28.674,0c-5.998,-35.351 -18.007,-71.357 -36.678,-108.036c-38.014,-74.028 -90.029,-114.041 -156.047,-121.375l21.335,11.339c16.672,10.674 33.344,24.012 48.687,39.342c50.017,47.352 81.355,107.371 94.029,178.73Z" style="fill:#858585;fill-rule:nonzero;"/><path d="M18.982,377.739c17.336,10.674 33.344,23.34 48.681,38.677c48.682,48.017 80.026,106.702 92.699,177.388l2.664,1.342l28.01,0l1.335,-0.67l0.665,-1.999c-5.334,-36.679 -18.001,-74.021 -37.344,-110.699c-38.677,-74.03 -90.692,-114.044 -157.381,-121.382l-2.006,2.006c-0.665,1.328 0,1.998 1.335,3.334l21.342,12.003Zm74.692,59.348c-23.341,-28.668 -49.352,-51.345 -78.69,-68.017c54.679,11.332 100.032,48.682 133.376,111.363c19.336,34.687 32.009,71.363 39.343,110.035l-22.67,0c-11.34,-58.676 -35.351,-110.033 -71.359,-153.381Z" style="fill-rule:nonzero;"/></g></g><rect id="PATH77" x="2.92" y="2.74" width="366.67" height="582.52" style="fill:none;stroke:#000;stroke-width:3px;"/></svg>