<?xml version="1.0" encoding="UTF-8" standalone="no"?><!DOCTYPE svg PUBLIC "-//W3C//DTD SVG 1.1//EN" "http://www.w3.org/Graphics/SVG/1.1/DTD/svg11.dtd"><svg width="100%" height="100%" viewBox="0 0 372 587" version="1.1" xmlns="http://www.w3.org/2000/svg" xmlns:xlink="http://www.w3.org/1999/xlink" xml:space="preserve" xmlns:serif="http://www.serif.com/" style="fill-rule:evenodd;clip-rule:evenodd;stroke-miterlimit:100;"><g><clipPath id="_clip1"><rect x="3.377" y="3.199" width="365.707" height="583.441"/></clipPath><g clip-path="url(#_clip1)"><path d="M228.643,33.939c0,-2.646 -1.315,-3.962 -3.961,-3.962c-3.304,0 -5.283,1.316 -5.283,3.962c0,3.302 1.979,5.289 5.283,5.289c2.644,0.001 3.961,-1.987 3.961,-5.289Z" style="fill:#333;fill-rule:nonzero;"/><path d="M200.902,21.385c0,-3.302 -1.986,-4.618 -5.289,-4.618c-3.305,0 -4.619,1.316 -4.619,4.618c0,3.303 1.314,5.29 4.619,5.29c3.303,0 5.289,-1.987 5.289,-5.29Z" style="fill:#333;fill-rule:nonzero;"/><path d="M225.339,53.756l-1.315,-3.303l-3.303,-1.98c-1.986,0 -2.646,1.323 -3.304,1.98c-1.323,1.323 -1.987,1.987 -1.987,3.303c0,2.645 1.987,4.625 5.291,4.625c3.302,0 4.618,-1.98 4.618,-4.625Z" style="fill:#333;fill-rule:nonzero;"/><path d="M161.268,18.747c0,-2.639 -1.986,-4.625 -5.29,-4.625c-2.638,0 -3.96,1.987 -3.96,4.625c0,3.303 1.322,5.283 3.96,5.283l3.968,-1.315l1.322,-3.968Z" style="fill:#333;fill-rule:nonzero;"/><path d="M179.763,28.656l-1.323,-3.303c-0.658,-0.665 -2.645,-1.323 -3.302,-1.323c-3.304,0 -4.627,1.323 -4.627,4.626c0,3.303 1.323,5.284 4.627,5.284l3.302,-1.317l1.323,-3.967Z" style="fill:#333;fill-rule:nonzero;"/><path d="M49.627,154.83l-1.323,-3.302l-3.303,-1.987c-1.322,0 -2.639,1.322 -3.303,1.987c-1.323,0.658 -1.981,1.974 -1.981,3.302c0,2.639 1.981,4.62 5.284,4.62c3.304,-0.001 4.626,-1.982 4.626,-4.62Z" style="fill:#333;fill-rule:nonzero;"/><path d="M38.396,195.123c0,-3.303 -1.98,-4.626 -4.625,-4.626c-3.303,0 -5.284,1.323 -5.284,4.626c0,3.303 1.981,5.283 5.284,5.283c2.645,0 4.625,-1.98 4.625,-5.283Z" style="fill:#333;fill-rule:nonzero;"/><path d="M37.074,167.377c0,-3.303 -1.98,-4.625 -4.62,-4.625c-1.321,0 -2.644,0.658 -3.302,1.323c-1.323,1.322 -1.987,1.98 -1.987,3.303l1.987,3.967l3.302,1.316c2.639,-0.001 4.62,-1.981 4.62,-5.284Z" style="fill:#333;fill-rule:nonzero;"/><path d="M37.738,132.368c0,-3.303 -1.981,-4.626 -4.625,-4.626c-1.322,0 -1.98,0.665 -3.303,1.323l-1.323,3.303c0,3.303 1.323,5.283 4.626,5.283c2.644,0 4.625,-1.981 4.625,-5.283Z" style="fill:#333;fill-rule:nonzero;"/><path d="M53.588,183.892c0,-3.303 -1.316,-4.625 -4.62,-4.625c-0.664,0 -1.986,0.658 -3.302,1.323c-0.664,1.322 -1.323,1.98 -1.323,3.303c0,3.303 1.323,4.625 4.625,4.625c3.304,-0.001 4.62,-1.323 4.62,-4.626Z" style="fill:#333;fill-rule:nonzero;"/><path d="M43.68,238.06c0,-2.645 -1.316,-4.625 -4.62,-4.625c-3.303,0 -4.625,1.98 -4.625,4.625l1.322,3.961c1.316,1.323 2.639,1.323 3.303,1.323c3.303,0 4.62,-1.981 4.62,-5.284Z" style="fill:#333;fill-rule:nonzero;"/><path d="M58.878,216.92c0,-2.639 -1.987,-4.625 -4.625,-4.625c-3.303,0 -5.284,1.987 -5.284,4.625c0,3.303 1.981,5.284 5.284,5.284c2.638,0 4.625,-1.98 4.625,-5.284Z" style="fill:#333;fill-rule:nonzero;"/><path d="M38.396,280.34l-1.322,-3.303l-3.961,-1.986c-2.645,0 -4.626,1.986 -4.626,5.289c0,2.639 1.981,4.619 4.626,4.619c3.303,0 5.283,-1.98 5.283,-4.619Z" style="fill:#333;fill-rule:nonzero;"/><path d="M53.588,263.161c0,-3.303 -1.316,-5.283 -4.62,-5.283c-3.302,0 -4.625,1.98 -4.625,5.283c0,3.303 1.323,4.625 4.625,4.625c3.304,0 4.62,-1.322 4.62,-4.625Z" style="fill:#333;fill-rule:nonzero;"/><path d="M67.464,249.285c0,-2.638 -1.98,-4.619 -4.625,-4.619c-3.303,0 -4.625,1.981 -4.625,4.619c0,3.302 1.322,5.29 4.625,5.29c2.644,0 4.625,-1.988 4.625,-5.29Z" style="fill:#333;fill-rule:nonzero;"/><path d="M55.574,280.34c0,-3.303 -1.986,-5.289 -5.289,-5.289c-1.317,0 -1.98,1.322 -3.303,1.986c-0.658,0.658 -1.316,1.975 -1.316,3.303l1.316,3.303l3.303,1.975c3.303,-0.001 5.289,-1.975 5.289,-5.278Z" style="fill:#333;fill-rule:nonzero;"/><path d="M323.108,304.119c0,3.303 1.316,5.281 4.619,5.281c3.304,0 5.29,-1.979 5.29,-5.281c0,-2.646 -1.986,-4.627 -5.29,-4.627c-3.302,0 -4.619,1.983 -4.619,4.627Z" style="fill:#333;fill-rule:nonzero;"/><path d="M348.868,292.224l-1.322,-3.305l-3.961,-1.973c-0.658,0 -1.979,0.656 -3.302,1.973c-0.659,0.666 -1.323,1.33 -1.323,3.305c0,2.644 1.323,3.967 4.625,3.967c3.302,0 5.283,-1.324 5.283,-3.967Z" style="fill:#333;fill-rule:nonzero;"/><path d="M314.517,310.066l-0.657,-3.305c-1.322,-0.664 -2.646,-1.328 -3.96,-1.328c-1.322,0 -2.646,0.664 -3.305,1.328l-1.985,3.305l1.985,3.961c0.658,1.315 1.981,1.315 3.305,1.315l3.96,-1.315l0.657,-3.961Z" style="fill:#333;fill-rule:nonzero;"/><path d="M302.627,328.555c0,-3.303 -1.979,-5.275 -5.281,-5.275c-3.305,0 -4.627,1.974 -4.627,5.275c0,3.303 1.322,4.633 4.627,4.633c3.301,0 5.281,-1.331 5.281,-4.633Z" style="fill:#333;fill-rule:nonzero;"/><path d="M343.585,349.036l-1.322,-3.302l-3.303,-1.324c-3.303,0 -5.283,1.324 -5.283,4.626c0,3.304 1.98,4.625 5.283,4.625c3.303,0 4.625,-1.321 4.625,-4.625Z" style="fill:#333;fill-rule:nonzero;"/><path d="M340.94,323.277c0,-3.303 -1.316,-4.633 -4.62,-4.633c-3.303,0 -5.289,1.33 -5.289,4.633c0,3.304 1.986,5.275 5.289,5.275c3.304,0.003 4.62,-1.971 4.62,-5.275Z" style="fill:#333;fill-rule:nonzero;"/><path d="M333.677,368.188l-1.321,-3.303l-3.304,-1.973c-3.304,0 -5.285,1.973 -5.285,5.275c0,3.304 1.981,4.633 5.285,4.633l3.304,-1.329l1.321,-3.303Z" style="fill:#333;fill-rule:nonzero;"/><path d="M323.767,333.188c0,-3.305 -1.32,-4.633 -4.624,-4.633c-3.304,0 -5.283,1.328 -5.283,4.633c0,3.303 1.979,5.276 5.283,5.276c3.302,0 4.624,-1.975 4.624,-5.276Z" style="fill:#333;fill-rule:nonzero;"/><path d="M290.738,297.514c-1.322,0 -2.646,0.656 -3.303,1.979l-1.322,3.304l1.322,3.304c0.657,0.664 1.979,1.322 3.303,1.322c3.303,0 4.626,-1.322 4.626,-4.626c0,-3.304 -1.323,-5.283 -4.626,-5.283Z" style="fill:#333;fill-rule:nonzero;"/><path d="M319.807,351.018c0,-2.646 -1.985,-4.619 -5.29,-4.619c-3.303,0 -4.617,1.975 -4.617,4.619l1.314,3.961l3.303,0.664c3.303,0 5.29,-1.325 5.29,-4.625Z" style="fill:#333;fill-rule:nonzero;"/><path d="M300.647,350.359c0,-2.646 -1.323,-4.625 -4.626,-4.625c-3.304,0 -5.283,1.979 -5.283,4.625l1.979,3.959c1.322,1.322 1.98,1.322 3.304,1.322c3.303,0.003 4.626,-1.979 4.626,-5.281Z" style="fill:#333;fill-rule:nonzero;"/><path d="M188.35,524.755c0,-3.304 -1.322,-4.632 -4.625,-4.632c-3.302,0 -5.283,1.328 -5.283,4.632c0,3.303 1.981,5.277 5.283,5.277c3.3,0 4.625,-1.974 4.625,-5.277Z" style="fill:#333;fill-rule:nonzero;"/><path d="M159.945,546.546c0,-3.303 -1.323,-5.277 -4.626,-5.277c-3.302,0 -4.625,1.976 -4.625,5.277c0,3.301 1.323,4.632 4.625,4.632c3.303,0 4.626,-1.329 4.626,-4.632Z" style="fill:#333;fill-rule:nonzero;"/><path d="M177.117,536.639c0,-3.305 -1.979,-5.277 -4.625,-5.277c-1.315,0 -1.98,0.656 -3.303,1.974l-1.315,3.305l1.315,3.303c1.322,1.327 1.987,1.327 3.303,1.327c2.646,-0.002 4.625,-1.331 4.625,-4.632Z" style="fill:#333;fill-rule:nonzero;"/><path d="M200.902,549.849l-1.323,-3.303c-1.322,-1.315 -1.979,-1.975 -3.966,-1.975c-0.658,0 -1.982,0.658 -3.305,1.975c-0.656,0.665 -1.314,1.329 -1.314,3.303l1.314,3.305l3.305,1.328l3.966,-1.328l1.323,-3.305Z" style="fill:#333;fill-rule:nonzero;"/><path d="M138.805,555.139l-0.658,-3.303c-1.323,-0.658 -2.645,-1.987 -3.968,-1.987c-1.322,0 -2.638,1.329 -3.303,1.987l-1.322,3.303c0,2.646 1.322,4.62 4.625,4.62c3.303,0 4.626,-1.976 4.626,-4.62Z" style="fill:#333;fill-rule:nonzero;"/><path d="M206.844,510.214c0,-2.639 -1.98,-4.618 -5.283,-4.618c-2.645,0 -3.961,1.979 -3.961,4.618c0,3.303 1.316,5.29 3.961,5.29c3.3,0 5.283,-1.987 5.283,-5.29Z" style="fill:#333;fill-rule:nonzero;"/><path d="M177.117,557.783c0,-3.303 -1.979,-5.289 -4.625,-5.289c-1.315,0 -1.98,0.658 -3.303,1.986l-1.315,3.303l1.315,3.304c1.322,0.657 1.987,1.315 3.303,1.315c2.646,0 4.625,-1.315 4.625,-4.619Z" style="fill:#333;fill-rule:nonzero;"/><path d="M259.689,553.815c0,-3.304 -1.98,-5.282 -4.625,-5.282c-1.315,0 -1.98,1.314 -3.303,1.979l-1.316,3.304l1.316,3.968c1.321,0.658 1.986,0.658 3.303,0.658c2.645,-0.001 4.625,-1.324 4.625,-4.627Z" style="fill:#333;fill-rule:nonzero;"/><path d="M284.133,545.229l-0.658,-3.304c-1.322,-0.658 -2.645,-1.985 -3.968,-1.985c-2.639,0 -4.624,1.985 -4.624,5.289c0,3.304 1.985,4.618 4.624,4.618l3.968,-1.314l0.658,-3.304Z" style="fill:#333;fill-rule:nonzero;"/><path d="M301.97,555.796c0,-3.302 -1.321,-4.618 -4.624,-4.618c-3.305,0 -5.283,1.316 -5.283,4.618c0,2.646 1.979,4.626 5.283,4.626c3.301,0 4.624,-1.981 4.624,-4.626Z" style="fill:#333;fill-rule:nonzero;"/><path d="M279.507,319.311l-1.321,-3.303l-3.961,-1.322c-2.646,0 -3.961,1.322 -3.961,4.625c0,3.305 1.315,5.283 3.961,5.283l3.961,-1.314l1.321,-3.969Z" style="fill:#333;fill-rule:nonzero;"/><path d="M346.229,37.9c0,-3.303 -1.985,-4.62 -5.288,-4.62c-3.305,0 -4.62,1.317 -4.62,4.62c0,2.645 1.315,4.631 4.62,4.631c3.302,0 5.288,-1.986 5.288,-4.631Z" style="fill:#333;fill-rule:nonzero;"/><path d="M340.94,61.02c0,-3.303 -1.316,-4.619 -4.62,-4.619c-1.322,0 -2.645,0 -3.303,1.316l-1.986,3.303l1.986,3.967c0.658,0.665 1.979,1.323 3.303,1.323c3.304,0 4.62,-1.987 4.62,-5.29Z" style="fill:#333;fill-rule:nonzero;"/><path d="M346.887,80.837c0,-3.303 -1.319,-4.619 -3.96,-4.619c-1.985,0 -2.644,0 -3.303,1.316c-1.322,0.665 -1.987,1.987 -1.987,3.303c0,2.645 1.987,4.632 5.29,4.632c2.639,0 3.96,-1.987 3.96,-4.632Z" style="fill:#333;fill-rule:nonzero;"/><path d="M214.113,76.218c0,-3.303 -1.986,-5.29 -4.625,-5.29c-3.303,0 -4.627,1.987 -4.627,5.29c0,3.303 1.324,4.619 4.627,4.619c2.639,0 4.625,-1.316 4.625,-4.619Z" style="fill:#333;fill-rule:nonzero;"/><path d="M235.247,72.257c-3.302,0 -4.618,1.317 -4.618,4.62c0,3.302 1.316,4.625 4.618,4.625c2.646,0 4.625,-1.323 4.625,-4.625c0,-3.303 -1.979,-4.62 -4.625,-4.62Z" style="fill:#333;fill-rule:nonzero;"/><path d="M220.057,16.767l-1.98,-3.303l-3.303,-1.987c-3.305,0 -4.627,1.987 -4.627,5.291c0,3.303 1.322,4.618 4.627,4.618l3.303,-1.315l1.98,-3.304Z" style="fill:#333;fill-rule:nonzero;"/><path d="M204.861,38.564l-1.321,-3.303c-1.321,-0.664 -2.638,-1.322 -3.961,-1.322c-1.322,0 -1.979,0.658 -3.302,1.322l-1.322,3.303l1.322,3.967c1.322,0.658 1.979,1.316 3.302,1.316l3.961,-1.316l1.321,-3.967Z" style="fill:#333;fill-rule:nonzero;"/><path d="M35.757,221.546c0,-3.303 -1.986,-5.29 -4.625,-5.29c-1.98,0 -2.646,0.664 -3.304,1.986c-1.322,0.659 -1.979,1.981 -1.979,3.303l1.979,3.303l3.304,1.316c2.639,0.001 4.625,-1.315 4.625,-4.618Z" style="fill:#333;fill-rule:nonzero;"/><path d="M243.84,16.767l-1.32,-3.303c-1.324,-1.322 -1.981,-1.987 -3.969,-1.987c-2.639,0 -3.962,1.987 -3.962,5.291c0,3.303 1.323,4.618 3.962,4.618c3.303,-0.001 5.289,-1.317 5.289,-4.619Z" style="fill:#333;fill-rule:nonzero;"/><path d="M264.975,367.531l-13.869,-5.947c2.645,7.936 0.656,20.482 -3.963,37.66c-1.986,5.941 -1.986,12.547 0.658,19.152l3.961,8.588l-26.423,-1.981c-3.961,0 -11.226,3.968 -22.456,13.212l-14.533,13.876l13.211,9.244c6.606,5.283 12.553,7.929 19.817,9.245c11.231,1.328 22.462,0.664 33.029,-4.62l-6.606,6.606l-14.533,18.493c-4.625,5.942 -7.929,16.516 -9.91,30.392l-1.979,19.817l27.745,-9.908c12.548,-3.304 21.798,-7.936 25.76,-12.555c4.624,-5.29 8.593,-11.895 11.23,-20.476l3.303,-10.573l-0.657,6.606c0.657,5.94 1.979,12.548 5.282,20.48c3.304,7.265 10.567,15.851 23.121,25.095l17.173,11.896c-0.658,-3.303 0,-9.909 2.645,-19.16c3.962,-9.908 5.283,-17.83 3.962,-24.437c-0.657,-7.935 -3.962,-15.855 -9.909,-23.784l-7.923,-9.244l7.265,2.638l20.477,0l43.602,-8.585c-17.837,-21.141 -32.37,-34.352 -41.615,-36.99l-20.479,-1.329l-9.909,1.987c5.283,-1.987 9.909,-6.604 13.875,-13.87c3.963,-6.604 3.963,-17.844 0.658,-33.692l-16.515,6.606l-17.173,7.27c-3.304,2.639 -5.947,5.941 -8.593,10.566l-1.979,7.922c1.321,-13.211 -0.658,-24.437 -6.605,-33.029c-3.309,-5.938 -11.237,-11.882 -21.145,-17.171Z" style="fill:#858585;fill-rule:nonzero;"/><path d="M247.801,362.248l0.658,7.93c0,8.586 -1.316,18.492 -4.619,28.402l-1.986,7.928c0,5.283 1.986,11.227 4.625,16.517l-21.14,-1.323c-3.961,0 -11.89,3.303 -21.799,11.89l-17.837,15.856c-0.657,1.314 -1.315,1.979 -0.657,3.303l1.979,1.979c1.322,0.663 4.627,3.304 9.252,6.605c8.584,7.271 15.85,11.231 24.441,12.548l23.12,-1.315l-13.211,16.515c-7.271,10.566 -11.896,27.739 -12.554,52.188l1.98,2.639l3.301,0l18.496,-6.605c19.16,-5.283 31.049,-10.57 35.674,-15.85c3.961,-5.289 7.266,-10.573 9.908,-16.514l3.303,11.225c5.949,11.896 19.818,25.106 42.28,38.977l3.96,-0.657l0.658,-2.646l0,-0.658l-0.658,-3.303c0,-2.646 0.658,-6.606 3.306,-13.212c3.302,-9.25 4.625,-16.515 4.625,-21.804l-0.665,-5.284c-0.658,-9.244 -4.619,-17.18 -11.226,-26.423c5.941,1.322 12.549,1.322 18.495,0l28.403,-5.283l15.191,-3.961l1.98,-1.328l-0.658,-3.305c-17.837,-22.455 -32.37,-35.003 -42.938,-38.306l-19.158,-1.329l4.625,-6.605c1.98,-3.303 3.303,-9.244 3.303,-17.171l-1.979,-19.161l-1.323,-2.637l-3.303,0l-16.516,7.27c-9.908,3.303 -15.191,5.939 -17.837,7.264c-1.98,1.98 -3.961,3.303 -5.284,5.948c-1.979,-8.592 -3.959,-15.198 -7.263,-20.481c-3.967,-5.941 -11.231,-11.889 -21.141,-16.517c-6.604,-3.966 -12.554,-5.94 -15.856,-6.604l-3.303,0l-0.658,2.639l0,0.661l0.006,0l0,-0.002Zm7.263,7.93l-0.657,-3.962c15.19,6.604 24.442,13.212 29.067,19.817c3.961,5.941 5.94,14.525 5.94,25.094l0,6.605c0,1.328 0.664,2.646 1.979,3.303c2.646,0 3.969,-0.657 4.625,-2.639l2.646,-8.586c1.979,-3.304 3.959,-5.947 5.94,-7.264l16.515,-7.271l13.212,-5.281l1.322,14.527c0,6.604 -0.659,10.572 -1.98,13.211c-3.304,5.948 -7.929,9.908 -13.212,11.896c-0.658,0.657 -1.322,1.979 -1.322,3.303l0,1.315c0.664,1.987 1.98,2.646 3.967,1.33l9.246,-1.33l19.817,0.665c7.926,3.303 19.815,13.875 35.673,32.363l-37.654,7.271l-19.158,0l-6.605,-1.979c-1.316,-1.322 -3.303,-0.658 -3.961,1.315l-0.658,1.328l0.658,2.638l8.587,9.245c4.625,7.271 7.928,14.541 8.585,21.146l0.665,4.62c0,5.289 -1.322,11.896 -4.625,19.157l-3.304,13.87c-17.837,-12.554 -29.726,-23.777 -33.028,-32.371c-3.304,-7.921 -5.283,-15.186 -5.283,-21.791l0.658,-3.303l0,-0.665c0,-1.979 -1.322,-3.303 -2.64,-3.303c-2.646,-0.664 -3.302,0 -3.967,1.979l0,0.658l-2.64,10.572c-3.303,7.93 -6.605,13.876 -10.572,19.154c-4.625,3.966 -15.192,8.593 -32.364,14.54l-15.856,4.619c1.98,-20.477 5.283,-34.346 11.231,-42.938l14.534,-17.831l6.604,-7.271l0.657,-1.979l0,-1.322c-1.322,-1.979 -2.645,-2.639 -3.96,-1.979c-10.573,4.618 -21.804,5.948 -32.371,4.618c-6.604,-1.315 -13.211,-4.618 -20.476,-11.226l-7.271,-4.625l17.838,-15.849c6.606,-4.634 11.889,-7.271 13.87,-7.271l25.767,1.98l3.303,-1.98l0.658,-1.32l-0.658,-1.981c-3.303,-5.941 -5.948,-11.889 -5.948,-18.495c0,-1.985 0.664,-3.96 1.322,-5.948c3.969,-11.221 5.284,-21.129 5.284,-30.379Z" style="fill-rule:nonzero;"/><path d="M239.872,522.109l16.515,-18.5c11.891,-15.853 22.463,-33.029 30.393,-50.86c19.815,-17.837 33.027,-33.688 38.312,-45.583l0,-0.658l-1.323,-1.986c-0.657,0 -1.979,0 -2.644,0.666c-5.284,12.547 -17.831,27.086 -37.647,45.574l0,0.664c-7.929,17.181 -17.836,33.693 -29.727,48.88l-16.516,18.501c-1.321,1.316 -1.321,2.646 0,3.304c0.658,1.315 1.316,1.315 2.637,-0.002Z" style="fill-rule:nonzero;"/><path d="M206.844,449.446l1.323,1.979l75.966,2.639c10.566,15.199 20.477,33.029 29.067,51.531l9.245,24.438c0,1.328 0.663,1.328 1.979,1.328c1.986,0 1.986,-1.328 1.986,-2.646c-8.592,-26.424 -21.804,-52.188 -39.634,-77.954l-1.322,-0.656l-77.289,-2.646c-0.656,0 -1.321,0.664 -1.321,1.987Z" style="fill-rule:nonzero;"/><path d="M268.275,389.336c-0.657,-0.666 -1.315,-1.329 -2.637,-0.666c-1.324,0 -1.324,1.324 -1.324,2.641c6.605,11.237 11.231,24.448 15.191,40.299l3.969,20.481c0,1.316 0.657,1.974 1.316,1.974l58.793,3.969l21.798,5.283c1.322,0.657 2.646,0 3.304,-1.316c0,-0.664 0,-1.986 -1.322,-2.644l-22.455,-5.292l-58.131,-4.617c-2.644,-22.464 -9.25,-42.94 -18.502,-60.112Z" style="fill-rule:nonzero;"/><path d="M303.292,94.713l-22.462,20.482c-5.947,5.941 -9.909,13.87 -12.555,23.778l-1.979,13.212c-5.282,-10.566 -12.547,-19.817 -21.798,-25.765c-4.626,-3.961 -13.211,-7.264 -24.441,-9.909l-15.853,-1.979l0.657,21.14c0,9.909 1.981,18.495 5.285,25.766c3.303,7.264 9.908,13.211 18.494,17.83l12.555,5.948c-7.266,0.658 -16.516,3.303 -25.766,7.921c-5.941,2.646 -13.212,9.25 -21.134,20.482l-11.231,15.192l13.871,7.929c10.572,4.625 19.157,6.606 26.422,6.606c11.23,-1.323 21.141,-5.284 29.727,-13.877l-5.283,6.606c-3.303,5.29 -5.947,11.896 -6.605,17.843c-0.657,5.942 1.324,14.528 6.605,24.437l8.586,13.87c0.665,-1.975 5.949,-5.942 14.534,-12.548c9.251,-6.606 13.871,-11.89 15.856,-17.179c1.315,-5.941 2.639,-11.225 1.315,-15.849l-0.657,-6.606l15.855,19.817c6.605,6.605 17.831,10.573 36.332,10.573l-0.664,-20.481c-0.658,-11.231 -1.981,-19.153 -4.625,-23.12c-1.98,-5.284 -5.283,-7.928 -10.568,-9.245l-6.604,-0.665l9.908,0l20.476,-3.303c9.909,-3.303 21.141,-14.534 34.353,-35.01l-20.476,-8.592c-9.25,-3.961 -15.193,-5.941 -18.496,-7.264c-5.29,-0.658 -11.896,0 -20.48,3.303l-11.89,4.625c6.605,-12.547 12.553,-25.1 16.515,-38.312c1.98,-7.928 1.98,-19.159 -1.322,-34.352l-5.283,-20.482l-17.174,17.178Z" style="fill:#d96038;fill-rule:nonzero;"/><path d="M320.465,74.231c-0.658,-0.657 -1.979,0.665 -3.303,1.329l-17.838,18.489l-21.139,18.502c-6.606,7.922 -11.227,17.83 -13.871,30.383c-5.947,-8.586 -11.23,-14.527 -17.172,-19.159c-5.947,-4.62 -14.533,-7.923 -25.766,-10.567l-17.174,-1.981c-0.664,0 -1.985,0 -2.645,1.323l-0.658,1.98l0,0.665l0.658,7.921l0,11.896c0,10.567 1.979,20.475 5.283,27.739c4.625,9.251 12.555,15.856 23.785,21.14l-16.516,6.605c-6.604,2.639 -13.877,9.245 -22.461,19.817l-11.231,16.515l-0.658,1.98l1.979,2.646l13.872,8.586c11.229,4.625 19.815,6.606 27.744,6.606c5.283,-0.665 11.23,-2.639 18.496,-6.606l-3.961,13.211l0,3.303c0,10.573 5.282,23.121 15.855,37.654c0.658,1.315 1.316,1.315 2.638,1.315l2.646,-1.974c0.658,-0.664 4.625,-3.967 10.565,-8.593l11.89,-9.908c4.627,-3.961 6.606,-7.265 8.594,-11.89l1.316,-11.889l9.25,10.566c6.605,7.929 19.817,11.231 38.978,11.896c0.659,0 1.979,-0.665 2.639,-1.329l0.664,-1.974l0,-0.664l-0.664,-13.877c-0.658,-15.85 -1.979,-26.423 -4.626,-31.042l-3.96,-5.29l15.191,-2.639c9.908,-3.303 22.462,-15.191 36.333,-36.332l0,-1.981l0,-1.322l-1.982,-1.98l-19.814,-7.929l-19.818,-7.928c-6.605,-0.659 -14.533,0.658 -26.423,4.625c5.946,-11.889 9.908,-21.798 12.553,-30.391l1.316,-13.211c0,-7.922 -0.658,-17.831 -3.961,-29.062l-3.305,-15.192c-0.656,-1.317 -1.319,-1.982 -3.299,-1.982Zm-48.886,65.4c2.646,-8.586 6.606,-16.514 11.896,-21.797l19.817,-18.496l15.851,-15.199c3.967,13.876 5.283,25.766 5.283,36.333l-0.659,11.237c-3.96,12.547 -9.25,24.437 -16.514,37.648l0,1.322l0.659,2.639l3.966,0.665c3.961,-1.98 8.587,-3.967 14.534,-5.283l15.851,-2.645c3.968,1.322 9.91,3.303 19.16,7.928l15.85,5.941c-12.548,18.501 -23.12,28.41 -30.386,30.39l-26.422,3.303l-3.303,0c-1.98,0 -3.304,1.323 -3.304,3.303c0.657,1.981 1.979,3.303 3.304,3.303l3.303,0c5.283,0.664 9.25,3.303 11.231,7.928c1.979,3.303 3.302,13.211 3.961,28.403l0,9.909c-15.192,0 -25.102,-3.303 -29.729,-8.586l-16.514,-19.818l-4.624,0l-0.659,1.981l0,1.322l1.323,8.586l-1.98,11.231c-1.988,5.283 -7.271,11.225 -17.836,18.495l-8.588,7.271c-8.593,-12.553 -12.554,-22.462 -12.554,-30.391l0,-1.98c0.657,-5.948 3.303,-11.231 5.948,-16.515l4.619,-6.605l1.32,-1.988l-1.32,-2.638l-4.619,0c-8.594,7.928 -17.18,11.889 -27.747,13.211c-7.927,0 -19.816,-3.968 -35.009,-11.889c10.565,-17.837 20.477,-28.41 29.062,-32.371c8.587,-3.96 17.179,-6.606 24.442,-7.264l3.304,-3.303l-2.646,-3.303c-3.303,-1.322 -7.265,-3.304 -11.225,-5.29c-8.593,-4.619 -14.535,-10.567 -17.838,-17.172c-3.303,-5.948 -4.624,-13.87 -4.624,-24.437l0,-5.948l-0.658,-11.231c17.173,1.98 28.403,5.941 35.667,11.231c7.93,6.605 14.533,14.528 20.48,25.101c0.658,1.322 1.316,1.322 3.304,1.322c1.315,0 2.638,-1.322 2.638,-3.302l1.985,-12.552Z" style="fill-rule:nonzero;"/><path d="M309.233,103.958c-1.321,-0.658 -1.98,0.665 -2.64,1.329l-13.876,36.99c-8.586,26.423 -14.532,43.596 -15.19,54.162l-19.16,75.309c0,1.322 0,1.986 1.986,2.646c0.66,0 1.981,0 2.64,-1.324l17.837,-75.966c1.979,-9.908 6.605,-27.746 16.515,-54.169l13.212,-36.332l-1.324,-2.645Z" style="fill-rule:nonzero;"/><path d="M297.346,216.92l-16.516,-21.797c-6.605,-9.909 -17.173,-23.121 -33.688,-40.293l-24.443,-23.12c-1.321,-0.665 -1.979,-0.665 -2.645,0c-1.322,0.658 -1.322,1.316 0,2.638l23.784,23.121c16.515,16.515 27.739,30.391 33.688,40.299l16.514,21.792c13.212,15.855 23.121,27.751 31.707,35.016c0.664,1.315 1.322,1.315 2.646,0c1.32,-0.659 1.32,-1.323 0,-2.646l-31.047,-35.01Z" style="fill-rule:nonzero;"/><path d="M358.776,185.214l-79.927,9.909c-31.707,8.586 -57.473,17.83 -75.311,27.081c-1.321,0.658 -1.979,1.322 -0.657,2.645c0.657,1.98 1.321,1.98 2.638,0.658c17.838,-8.586 42.28,-17.83 73.986,-27.081l78.612,-9.251c-1.322,-0.658 -1.322,-0.658 -1.322,-1.98c0.002,-1.323 0.002,-1.981 1.981,-1.981Z" style="fill-rule:nonzero;"/><path d="M340.94,0.91l-60.77,-5.283c-2.646,1.322 -5.289,2.638 -7.928,5.283c-5.284,4.626 -9.908,11.231 -12.556,19.817c-4.623,13.871 -5.281,25.766 -4.623,35.017l23.119,-3.967c17.18,-3.968 29.067,-8.586 35.674,-13.876c11.892,-7.923 20.479,-20.477 27.084,-36.991Z" style="fill:#858585;fill-rule:nonzero;"/><path d="M343.585,-0.406l-2.645,-1.988l-60.11,-5.283l-1.323,0.665c-1.979,0 -5.282,1.316 -9.243,5.277c-5.947,5.29 -10.574,12.553 -13.211,21.804c-4.625,13.87 -5.947,25.765 -5.291,36.332l1.987,1.981l1.979,0.664l24.442,-4.632c17.173,-3.961 29.063,-8.58 36.333,-13.869c11.225,-8.586 20.475,-21.134 27.08,-38.313l0.002,-2.638Zm-7.265,4.618c-7.27,13.87 -15.197,24.443 -23.784,31.049c-11.23,7.928 -28.403,13.211 -54.169,16.515l0,-1.323c0,-9.25 1.986,-19.159 4.626,-28.403c3.967,-11.889 9.909,-19.817 17.837,-23.12l55.49,5.282Z" style="fill-rule:nonzero;"/><path d="M317.162,-9.657c-1.323,-1.323 -2.646,-0.658 -3.304,0c-9.25,16.515 -22.462,31.042 -39.634,44.918c-0.658,1.322 -0.658,1.98 0,2.639l3.303,0.664c17.172,-14.534 30.385,-29.726 39.635,-46.241c1.322,-1.322 0.658,-1.98 0,-1.98Z" style="fill-rule:nonzero;"/><path d="M109.737,-21.552l-56.149,3.966l-42.273,7.271l-3.303,46.898c-2.645,10.567 -2.645,23.12 0,36.332c1.322,7.264 5.941,15.192 14.534,22.462l17.83,15.85c9.909,-17.836 15.198,-30.39 15.198,-38.312l0,-21.14l-1.322,-11.889l3.961,7.264l11.889,17.172c5.29,5.29 14.534,10.573 27.745,17.179c11.889,5.283 20.482,7.928 25.766,8.586c0.659,-13.211 -1.323,-27.082 -5.948,-41.616c-3.303,-8.586 -7.929,-15.851 -15.192,-20.482l-9.909,-4.618l12.554,0l23.12,-4.625c9.244,-3.303 15.85,-9.909 20.475,-20.482c-13.869,-9.243 -27.08,-15.85 -38.976,-19.816Z" style="fill:#d96038;fill-rule:nonzero;"/><path d="M110.401,-24.191c-12.554,-3.967 -46.24,-0.664 -99.751,10.573l-2.638,2.639l-3.303,47.562c-0.665,3.961 -1.981,9.909 -1.981,17.831c0,7.271 1.316,12.554 1.981,18.501c1.322,6.606 4.625,13.211 9.244,18.495l13.875,13.211l9.245,7.929c1.322,1.315 1.986,1.98 3.302,1.98l1.987,-1.98c10.568,-17.837 16.516,-31.048 16.516,-39.634l0.658,-6.606l-0.658,-11.231l9.243,11.231c4.626,5.948 14.535,11.889 28.405,18.496c12.553,5.283 21.804,7.927 26.422,8.586l3.303,-0.659l0.665,-1.986l0,-2.639c0,-14.533 -1.981,-27.746 -5.948,-40.957c-3.303,-7.922 -7.928,-15.192 -15.192,-20.476l23.778,-4.625c9.25,-3.967 16.514,-11.231 22.462,-21.798l0,-1.987l-1.323,-2.638c-14.532,-9.909 -27.744,-16.515 -40.292,-19.818Zm16.516,40.299l-21.798,3.961l-12.555,0c-2.645,0 -3.303,0.657 -3.303,3.303c0,1.315 0.658,3.302 2.646,3.302l9.244,3.961c5.947,4.625 10.573,10.567 13.211,19.16c3.968,11.889 5.948,24.436 5.948,36.332l-25.101,-9.25c-10.572,-5.284 -18.501,-10.567 -22.461,-14.528c-3.961,-4.631 -7.928,-9.909 -11.231,-15.856l-4.626,-8.593c0,-1.316 -1.317,-1.975 -3.303,-1.316c-1.98,0 -2.639,1.316 -2.639,3.303l1.323,9.25l0.658,17.173l-0.658,5.948c0,7.264 -5.29,18.489 -13.212,33.029l-7.27,-5.948c-5.941,-5.29 -9.909,-9.25 -12.548,-11.896c-4.625,-4.619 -7.27,-9.909 -7.928,-15.85l-1.98,-17.179l1.98,-17.173l3.303,-44.918c50.866,-10.573 81.909,-13.875 93.804,-10.573c9.909,2.646 21.798,8.593 35.667,17.844c-4.625,7.922 -9.908,13.869 -17.171,16.514Z" style="fill-rule:nonzero;"/><path d="M107.098,68.29c1.323,0 1.323,-1.322 0.659,-2.639l-66.058,-68.702l-2.639,0l-0.664,0.658c-2.639,7.929 -3.961,17.173 -4.625,27.746c-2.639,21.798 -2.639,40.957 0,58.129l1.986,1.323l1.316,-1.981c-1.316,-9.25 -1.316,-17.837 -1.316,-27.081c0,-17.843 1.316,-35.017 5.284,-53.511l63.413,66.058c0.665,1.323 1.981,1.323 2.644,0Z" style="fill-rule:nonzero;"/><path d="M78.031,275.051c-4.625,7.928 -5.942,15.855 -5.942,25.107c0,4.617 0.659,8.578 1.317,11.224l-7.922,-3.96l-21.804,-1.988c-6.606,0.666 -14.528,3.305 -21.798,7.271c-7.929,4.625 -13.212,6.605 -15.851,6.605l9.245,14.535c7.27,9.906 13.876,15.854 21.14,19.156l19.159,5.277l5.942,-0.657l-9.245,5.29c-7.27,5.275 -13.212,10.566 -16.515,17.83c-3.967,5.947 -5.29,14.533 -3.967,24.443c0.663,11.229 0.663,19.815 -0.658,23.118c21.14,-6.604 35.667,-15.19 44.918,-23.784c5.948,-5.94 10.566,-11.883 15.192,-19.152l3.967,-9.244l0.658,10.566c1.98,9.25 3.961,16.516 7.264,23.778c3.967,7.265 11.896,13.869 24.442,20.475l17.18,7.936c-0.665,-3.967 0,-10.573 1.315,-20.481c2.645,-11.89 2.645,-20.481 2.645,-27.088c0,-7.922 -3.96,-15.186 -10.566,-22.455l-8.593,-7.271l7.27,1.987l15.192,-0.658c7.264,-1.988 20.475,-10.573 39.634,-27.088c-3.961,-0.665 -9.909,-3.969 -16.513,-9.909c-7.93,-7.271 -14.536,-11.229 -19.819,-13.211c-5.948,-1.979 -13.211,-1.979 -22.462,0.664l-11.889,3.961c6.605,-4.625 11.889,-12.554 15.193,-23.778c2.644,-7.271 1.321,-18.501 -4.62,-33.693l-9.908,-21.14l-23.786,15.857c-9.242,6.607 -15.847,13.212 -19.815,20.477Z" style="fill:#858585;fill-rule:nonzero;"/><path d="M43.021,302.132c-7.264,0.664 -15.193,3.968 -25.101,9.25l-11.889,4.626l-2.645,1.979l-0.658,1.324l0.658,1.321l9.251,15.192c7.922,10.572 15.191,17.178 22.456,20.482l14.534,3.959c-7.264,5.948 -12.554,11.889 -17.174,18.495c-3.302,5.283 -4.625,11.231 -4.625,19.152l1.323,20.481l-1.323,9.244l0,0.664l1.323,2.639l3.302,0.665c21.134,-7.271 36.333,-15.851 46.242,-25.102c4.619,-4.625 9.909,-10.565 14.527,-17.838c1.323,7.93 3.304,15.853 7.271,23.121c3.96,7.271 12.547,14.535 24.442,21.799l17.83,8.593l3.303,-0.665l1.987,-2.639l0,-0.664l-0.664,-3.303l1.979,-15.192l2.646,-24.443l0,-3.967c-0.658,-9.242 -3.961,-16.515 -10.567,-23.777l11.889,-1.315c7.263,-1.987 21.14,-11.237 40.292,-27.752l1.324,-3.304l-3.304,-2.639c-3.303,0 -7.928,-3.304 -14.534,-9.908c-7.928,-6.605 -15.191,-10.574 -20.475,-12.547c-7.271,-2.646 -15.192,-2.646 -25.101,0l7.921,-15.857l1.987,-7.928c0,-7.928 -3.303,-18.496 -7.928,-30.391l-9.25,-18.488l-2.639,-1.987l-1.987,1.323l-16.515,11.231c-7.264,3.96 -12.547,7.264 -15.192,9.909c-5.941,4.619 -9.909,9.908 -12.547,15.191c-4.625,8.587 -6.606,17.18 -6.606,26.423l0.658,5.94c-9.248,-3.297 -17.835,-4.613 -26.421,-3.297Zm0.659,6.604l19.817,1.33l8.592,3.961c1.317,1.315 2.639,1.315 3.304,0l1.316,-2.646l0,-1.314l-1.316,-10.574c0,-8.586 1.98,-15.85 5.941,-23.119c1.98,-4.625 5.948,-9.245 10.574,-13.212c3.302,-1.98 7.921,-5.283 14.527,-9.909l13.876,-9.244c9.244,17.83 14.534,32.365 14.534,42.273l-1.322,5.942c-3.968,10.572 -8.587,17.843 -15.192,22.462l-0.665,2.645l0,1.98c1.322,1.979 2.645,2.637 3.968,0.664l11.889,-3.303l21.139,-0.665c4.62,1.322 10.567,5.94 17.83,11.89l12.554,8.592c-17.172,13.871 -28.403,21.791 -33.687,23.121l-13.876,0.658l-6.606,-1.988c-2.638,-1.313 -3.303,0 -4.625,1.33l0,1.975l1.322,1.986l8.587,7.922c5.947,6.605 9.25,13.211 9.25,20.482l0,3.301l-2.646,23.121l-1.98,15.851c-17.837,-7.921 -29.062,-15.851 -34.351,-25.095c-3.303,-6.604 -5.941,-13.877 -7.264,-22.461l-0.658,-10.567c0,-1.329 -1.323,-3.304 -3.303,-3.304c-1.987,0 -2.645,0.658 -3.302,2.64l-3.968,8.586c-3.303,7.265 -7.928,12.554 -13.87,17.837c-7.27,7.27 -20.482,13.876 -38.977,21.142l0.664,-4.628l-1.322,-20.48c0,-5.939 1.322,-11.225 3.961,-15.85c3.967,-5.941 8.586,-11.231 15.192,-16.517c5.29,-3.302 7.929,-5.282 8.593,-5.282l2.639,-2.645l-0.658,-1.314c-0.665,-1.33 -1.98,-2.646 -3.967,-1.988c-4.62,1.322 -12.547,0 -22.456,-4.618c-8.586,-3.304 -17.179,-12.554 -26.424,-27.753l9.245,-4.618c9.909,-4.628 17.837,-7.933 23.121,-8.597Z" style="fill-rule:nonzero;"/><g><path d="M117.007,258.536c-1.322,-0.658 -1.98,-0.658 -2.645,0.658l-11.231,27.087c-6.605,19.816 -9.909,38.313 -9.909,54.17l0,1.979c-7.921,6.605 -13.211,13.211 -16.514,21.141l19.818,-18.502l0,-1.975c0,-15.855 3.302,-33.693 9.908,-54.834l11.231,-27.08c0.665,-1.322 0.665,-2.644 -0.658,-2.644Z" style="fill-rule:nonzero;"/><path d="M50.949,399.902c1.323,0.656 2.639,0 2.639,-1.322c1.986,-9.91 9.25,-21.141 23.121,-35.01c-15.85,11.89 -25.101,23.779 -27.74,34.345l0,0.665l1.98,1.322Z" style="fill-rule:nonzero;"/></g><path d="M162.583,339.793l2.645,-1.329l-2.645,-2.639c-23.121,-0.665 -44.918,0.663 -67.374,5.94c-7.27,-6.605 -19.817,-11.226 -36.996,-14.527l-25.76,-2.646c-0.663,0 -1.321,0.658 -1.321,1.987c0,1.314 0.658,1.973 1.321,1.973l24.438,3.305c17.836,2.646 29.726,7.271 36.332,13.211l1.987,0.666l21.133,-3.305l46.24,-2.636Z" style="fill-rule:nonzero;"/><path d="M96.526,342.432c-0.659,-0.666 -1.317,-1.324 -2.639,-0.666c-1.323,0.666 -1.98,1.33 -0.665,2.646l13.875,24.444c10.567,17.836 17.837,33.692 22.457,46.903c0,1.317 1.322,1.976 1.987,1.317c1.316,-0.659 1.316,-1.317 1.316,-2.646c-4.619,-13.212 -11.889,-29.062 -21.798,-48.214l-14.533,-23.784Z" style="fill-rule:nonzero;"/><path d="M109.737,426.984l-2.639,-24.438l-22.461,17.83c-11.889,7.928 -19.817,14.534 -25.759,19.159c-5.948,5.948 -10.573,15.19 -13.212,25.766l-1.986,15.851c-1.981,-5.283 -7.922,-10.572 -19.818,-17.18c-6.606,-3.304 -17.831,-5.94 -32.365,-6.605l-19.817,0.665c3.961,3.967 7.264,12.548 10.567,25.102c2.645,12.553 5.948,21.805 9.909,25.765c4.625,5.947 11.889,9.908 22.461,12.554l13.87,1.975l-9.244,6.606c-7.27,5.29 -13.211,11.895 -18.501,19.815c-4.618,7.271 -6.606,16.517 -6.606,28.41l1.988,15.856c4.618,-4.631 10.566,-7.271 19.817,-9.25c9.909,-1.322 16.514,-3.962 19.817,-5.949c5.941,-3.96 9.909,-9.25 13.211,-15.855l3.304,-10.565l2.639,7.265l9.909,19.157c3.967,5.949 11.231,12.555 23.12,18.501c5.283,3.304 10.573,6.606 15.192,7.923c-0.658,-4.619 0.665,-11.889 3.967,-21.133c3.961,-9.91 5.942,-16.515 5.284,-20.482c-0.659,-5.282 -3.303,-10.571 -8.586,-18.494l-7.27,-9.907l9.908,0l23.12,-1.988c6.606,-1.974 15.856,-9.908 28.41,-24.437l16.515,-21.141l-21.804,-2.639l-25.102,-3.967c-6.605,0 -14.534,1.322 -23.778,3.967l-11.889,4.619c6.605,-7.264 12.546,-15.855 15.85,-27.081c1.979,-6.608 2.643,-17.839 1.979,-35.675Z" style="fill:#d96038;fill-rule:nonzero;"/><path d="M41.041,471.908c-3.967,-3.304 -8.587,-7.271 -15.192,-10.573c-7.271,-3.968 -18.501,-6.605 -33.693,-7.271c-7.264,0 -13.87,0 -20.476,0.665c-1.322,0 -2.645,0 -3.303,1.321l0,1.981l0.658,1.979c4.625,4.625 7.928,12.555 9.909,24.442c2.645,12.548 5.948,21.141 9.909,27.087c6.606,7.265 16.515,11.884 29.726,13.871c-7.929,5.947 -14.534,13.211 -20.476,22.462c-5.283,6.604 -7.271,16.514 -7.271,27.739l1.323,13.211l0.664,5.948l2.639,2.644l3.303,-1.327c3.967,-3.303 10.573,-6.604 19.817,-7.923c8.586,-1.321 15.192,-3.302 19.817,-6.605c5.284,-3.961 10.572,-9.907 13.876,-18.501l9.909,17.844c3.961,6.604 11.225,13.212 23.121,19.816l16.514,7.922l3.303,-0.656l1.316,-2.646l0,-0.658l0,-3.303c0,-3.962 1.987,-9.908 4.625,-18.5l4.625,-17.832l0,-1.322c-0.658,-5.94 -4.625,-14.533 -12.554,-25.101l26.423,-1.985c12.553,-3.305 28.41,-18.489 47.563,-46.899l0.665,-1.98l-0.665,-1.979c-0.658,-0.658 -1.979,-1.322 -2.638,-1.322l-23.785,-2.638l-23.121,-3.97c-7.263,0 -15.85,1.323 -25.758,4.627l9.244,-18.502c1.98,-4.617 1.98,-11.883 1.98,-21.134l-1.316,-27.081l-1.322,-13.876l-1.98,-2.639c-1.987,0 -3.303,0 -3.303,1.314l-21.141,15.857l-27.085,21.135c-7.923,7.935 -13.211,19.817 -15.85,34.358Zm7.927,-5.948c2.639,-10.567 6.606,-17.837 12.548,-23.777l26.423,-20.483l16.514,-12.548l1.981,33.688l-1.316,19.159c-3.303,9.909 -8.592,18.49 -15.199,25.095c-1.315,0.664 -1.315,1.329 -1.315,2.646l0.657,1.986c0.658,1.316 2.646,1.976 3.961,0.658l11.896,-3.961l22.455,-3.968l21.798,3.303l19.161,3.303c-17.838,23.785 -31.05,36.997 -40.293,38.973l-21.804,1.984l-9.908,0c-1.317,0 -2.639,1.316 -3.304,2.646l0,0.659l0.665,2.644c9.244,9.909 14.534,19.152 15.192,26.423l0,0.658l-3.96,15.856c-3.303,8.581 -5.29,15.187 -5.29,19.816c-16.515,-7.934 -27.74,-15.197 -33.029,-23.12c-3.303,-6.604 -6.606,-12.554 -8.586,-18.5l-2.639,-7.265l-3.302,-2.646c-1.987,0 -3.304,0.657 -3.304,2.646l-3.302,9.251c-2.645,7.264 -6.606,11.882 -11.231,15.186c-3.303,1.986 -8.586,3.969 -17.179,5.289c-8.586,1.317 -14.528,3.961 -18.495,6.605l-1.323,-13.211c0,-9.251 1.987,-17.173 5.948,-23.778c4.626,-6.605 10.567,-13.212 17.173,-19.16c5.29,-3.96 8.593,-5.946 9.25,-5.946l1.981,-2.646l0,-1.315c-0.658,-1.323 -1.981,-1.986 -3.304,-1.986c-15.85,0 -27.081,-4.619 -33.687,-13.211c-3.303,-4.62 -6.606,-11.884 -9.25,-23.778c-3.303,-11.89 -5.283,-18.496 -7.929,-22.464c21.14,-0.657 36.332,1.329 44.925,6.605c9.908,4.633 15.85,9.909 17.83,14.542c0.665,1.974 1.987,2.638 3.304,1.974l3.303,-2.639l1.984,-15.193Z" style="fill-rule:nonzero;"/><path d="M93.887,432.272c-1.323,-0.664 -1.98,-0.664 -2.645,0.658l-13.211,26.425c-9.91,21.134 -15.85,40.292 -19.153,57.465l-23.121,21.146c-13.875,13.87 -23.784,25.095 -28.41,33.688l-0.658,1.314c0,1.328 0.658,1.328 1.323,1.328l2.638,0c4.626,-9.25 15.199,-20.48 29.726,-35.673l21.805,-19.159l0.658,-1.315c2.645,-16.515 8.586,-36.331 18.495,-56.813l13.212,-26.423c0.663,-1.323 0.663,-2.641 -0.659,-2.641Z" style="fill-rule:nonzero;"/><path d="M61.517,515.504c-7.929,-8.592 -21.141,-18.501 -38.971,-28.41c-11.896,-7.922 -19.818,-12.548 -24.443,-14.526c-1.322,-0.658 -1.98,-0.658 -2.645,1.315c-0.658,0.663 -0.658,1.986 0.665,1.986l25.1,14.527c17.837,10.572 30.385,19.816 38.313,28.409c0.658,1.316 0.658,1.316 1.981,1.316c31.706,-4.619 58.13,-9.909 79.269,-16.514c1.322,0 1.322,-1.317 1.322,-1.976c-0.658,-1.329 -1.322,-1.987 -3.303,-1.329c-19.159,5.952 -45.582,11.24 -77.288,15.202Z" style="fill-rule:nonzero;"/><path d="M62.181,516.82l-1.987,-0.658c-1.316,0.658 -1.98,1.986 -1.316,2.645l12.547,19.817c8.587,15.856 13.876,29.068 17.18,40.95c0,1.329 1.315,1.329 1.979,1.329l1.323,-2.646c-2.646,-11.895 -8.593,-25.105 -16.515,-40.958l-13.211,-20.479Z" style="fill-rule:nonzero;"/><path d="M71.425,56.401c0,44.253 2.645,94.461 8.587,150.611c11.23,112.962 31.712,199.496 62.096,259.606l149.289,-3.961c-46.24,-53.505 -77.946,-136.741 -93.797,-251.021c-8.593,-57.472 -11.896,-108.996 -10.572,-155.236l-115.603,0l0,0.001Z" style="fill:#9260c7;fill-rule:nonzero;"/><path d="M189.007,53.756l-1.979,-0.658l-115.603,0c-2.639,0 -3.304,0.658 -3.304,3.303c0,45.583 3.304,96.442 8.587,152.591c11.896,112.956 33.028,199.496 62.097,258.947l3.303,1.981l149.289,-3.962l3.304,-1.986l-0.658,-3.304c-45.582,-52.183 -76.624,-134.754 -92.479,-248.375c-8.588,-56.808 -12.555,-108.995 -11.231,-155.894l-1.326,-2.643Zm-5.284,5.948l0,5.283c0,57.472 4.625,114.279 14.534,171.751c16.517,99.087 46.241,173.073 86.535,222.618l-140.039,3.96c-28.411,-56.809 -48.227,-137.399 -60.117,-241.771c-6.606,-58.794 -9.909,-112.957 -9.909,-161.842l108.996,0.001Z" style="fill-rule:nonzero;"/></g></g><rect id="PATH77" x="2.92" y="2.74" width="366.67" height="582.52" style="fill:none;stroke:#000;stroke-width:3px;"/></svg>