<?xml version="1.0" encoding="UTF-8" standalone="no"?><!DOCTYPE svg PUBLIC "-//W3C//DTD SVG 1.1//EN" "http://www.w3.org/Graphics/SVG/1.1/DTD/svg11.dtd"><svg width="100%" height="100%" viewBox="0 0 372 587" version="1.1" xmlns="http://www.w3.org/2000/svg" xmlns:xlink="http://www.w3.org/1999/xlink" xml:space="preserve" xmlns:serif="http://www.serif.com/" style="fill-rule:evenodd;clip-rule:evenodd;stroke-miterlimit:100;"><g><clipPath id="_clip1"><rect x="3.035" y="1.75" width="366.923" height="584.366"/></clipPath><g clip-path="url(#_clip1)"><path d="M373.349,-5.692l-372.547,0l0,599.808l372.546,0l0,-599.808l0.001,0Z" style="fill:#222;fill-rule:nonzero;"/><path d="M353.355,14.301l-332.559,0l0,559.82l332.56,0l0,-559.82l-0.001,0Z" style="fill:#fdf5ed;fill-rule:nonzero;"/><path d="M353.355,14.301l-332.559,0l0,559.82l332.56,0l0,-559.82l-0.001,0Z" style="fill:#009844;fill-rule:nonzero;"/><path d="M353.355,14.301l-332.559,0l0,559.82l332.56,0l0,-559.82l-0.001,0Z" style="fill:#009844;fill-rule:nonzero;"/><path d="M353.355,14.301l-332.559,0l0,559.82l332.56,0l0,-559.82l-0.001,0Z" style="fill:#009844;fill-rule:nonzero;"/><path d="M353.355,14.301l-332.559,0l0,559.82l332.56,0l0,-559.82l-0.001,0Z" style="fill:#009844;fill-rule:nonzero;"/><path d="M353.355,14.301l-332.559,0l0,559.82l332.56,0l0,-559.82l-0.001,0Z" style="fill:#009844;fill-rule:nonzero;"/><path d="M353.355,14.301l-332.559,0l0,559.82l332.56,0l0,-559.82l-0.001,0Z" style="fill:#009844;fill-rule:nonzero;"/><path d="M353.355,14.301l-332.559,0l0,559.82l332.56,0l0,-559.82l-0.001,0Z" style="fill:#009844;fill-rule:nonzero;"/><path d="M353.355,14.301l-332.559,0l0,559.82l332.56,0l0,-559.82l-0.001,0Z" style="fill:#009844;fill-rule:nonzero;"/><path d="M353.355,14.301l-332.559,0l0,559.82l332.56,0l0,-559.82l-0.001,0Z" style="fill:#009844;fill-rule:nonzero;"/><g><path d="M373.349,594.115l0,-599.807l-372.547,0l0,599.808l372.547,0l0,-0.001Z" style="fill:#a7754a;fill-rule:nonzero;"/><path d="M353.355,14.301l-332.559,0l0,559.82l332.56,0l0,-559.82l-0.001,0Z" style="fill:#fdf5ed;fill-rule:nonzero;"/><path d="M372.686,80.947l0,-85.305l-371.216,0l0,99.304c15.327,1.328 26.658,1.328 33.989,-0.67c14.661,-3.333 26.659,-5.994 35.988,-6.665c15.995,-0.67 23.993,3.332 25.991,11.332c1.334,4.66 -0.667,26.658 -5.331,65.311c-6.665,44.654 -8.666,83.307 -7.999,115.295c1.334,29.326 3.333,66.646 7.999,111.97c1.999,33.322 -0.667,53.316 -7.999,61.972c-11.328,13.329 -38.653,19.994 -82.639,19.994l0,119.961l371.216,0l0,-96.636c-55.985,-9.327 -92.64,-13.329 -110.632,-12.659l-41.989,4.666l-39.987,-2.004c-13.993,-3.997 -22.658,-9.327 -25.991,-17.326c-3.332,-6.664 -3.999,-17.324 -1.998,-31.317l7.332,-62.649c1.998,-29.99 3.997,-54.65 3.997,-73.974c0,-9.997 -3.333,-35.991 -9.33,-78.646c-5.998,-39.323 -7.996,-69.978 -6.665,-90.635c0.667,-24.66 7.999,-38.66 21.995,-42.656c7.995,-1.998 18.659,-2.668 33.986,-0.664l169.283,-7.999Z" style="fill:#d96038;fill-rule:nonzero;"/><path d="M169.417,89.609c-13.996,3.996 -21.328,17.996 -21.995,42.656c-1.331,20.657 0.667,51.312 6.665,90.635c5.998,42.656 9.33,68.649 9.33,78.646c0,19.323 -1.999,43.983 -3.997,73.974l-7.332,62.649c-2.001,13.993 -1.334,24.653 1.998,31.317c3.333,7.999 11.998,13.329 25.991,17.326l39.987,2.004l41.989,-4.666c17.992,-0.67 54.646,3.332 110.632,12.659l0,-415.862l-169.282,7.999c-15.327,-2.006 -25.991,-1.335 -33.986,0.663Z" style="fill:#636361;fill-rule:nonzero;"/><path d="M35.459,94.275c-7.332,1.998 -18.663,1.998 -33.989,0.67l0,378.538c43.986,0 71.312,-6.665 82.639,-19.994c7.332,-8.655 9.997,-28.649 7.999,-61.972c-4.666,-45.324 -6.665,-82.644 -7.999,-111.97c-0.667,-31.988 1.334,-70.641 7.999,-115.295c4.664,-38.653 6.665,-60.651 5.331,-65.311c-1.998,-8 -9.997,-12.002 -25.991,-11.332c-9.33,0.672 -21.328,3.334 -35.989,6.666Z" style="fill:#636361;fill-rule:nonzero;"/><path d="M198.073,2.306l-2.666,-2.005l-19.326,0l-1.334,0.671l-100.635,88.637c-0.667,1.334 -0.667,2.004 0,2.668l2.666,1.998l37.322,0l-79.975,87.973l-0.667,1.998l0,1.334c0.667,0.664 1.334,1.999 2.001,1.999l13.33,0l-43.32,48.65l-1.335,2.005l0,50.647l2.002,2.668l3.332,-0.67l84.638,-118.627l0.667,-2.668l-2.666,-1.328l-12.662,0l52.649,-55.985l-57.983,108.63l-0.667,1.334l0.667,1.328c0,0.67 1.334,0.67 2.001,0.67l21.992,0l-40.654,69.979l0,2.661l2.665,0.671l19.33,0l-43.986,71.312l-1.334,1.328l1.334,2.004c1.999,1.328 3.333,1.328 4,-0.664l47.315,-74.65l0,-2.661l-2.665,-1.999l-19.994,0l41.322,-69.313l0,-0.664l0,-1.334c-0.667,-1.334 -1.334,-1.998 -2.666,-1.998l-21.994,0l65.314,-122.63l0,-0.665l-1.334,-2.669l-3.333,0l-69.978,75.979c-0.667,1.328 -0.667,1.998 -0.667,3.332l2.665,1.328l13.997,0l-77.31,107.303l0,-41.986l46.652,-52.652l0.667,-1.998l0,-1.334l-3.333,-0.664l-11.993,0l79.975,-88.644l0,-1.992l0,-0.67c0,-1.334 -1.334,-1.998 -2.001,-1.998l-36.656,0l93.97,-83.307l12.662,0l-55.981,66.645l-0.667,1.999l0.667,1.334l2.001,1.328l40.651,0l-67.976,125.298l0,2.669l2.665,1.328l27.325,0l-42.652,67.979l-0.667,1.335l0.667,0.664l2.666,1.334l33.322,0l-25.327,47.986l-0.664,1.327l1.331,2.005c1.334,1.328 3.332,1.328 3.332,-0.664l27.992,-51.988l0,-1.999l-2.001,-1.998l-33.322,0l41.988,-67.309l1.331,-1.341l-0.664,-1.328l-2.001,-1.334l-27.989,0l67.977,-125.292l0,-1.334l0,-1.334l-2.665,-1.328l-39.988,0l56.649,-66.645l0,-2.005l0,-0.664l-0.001,0Z" style="fill-rule:nonzero;"/><path d="M250.056,440.16c1.334,0.671 2.001,0 3.332,-1.991l24.659,-46.651l-7.999,25.317l0,0.67l0.668,1.334l2.002,1.328l32.655,0l-23.993,59.317l0,1.334l1.997,1.997c1.335,1.335 2.669,0.665 3.333,-1.327l24.66,-63.313l0,-2.668c0,-0.665 -0.667,-0.665 -1.998,-0.665l-32.659,0l15.331,-50.654l0.666,-0.67l-1.334,-2.662c-1.334,0 -2.665,0 -3.332,1.334l-39.319,73.975c-0.668,1.334 -0.668,2.668 1.331,3.995Z" style="fill-rule:nonzero;"/><path d="M364.687,74.952c-1.334,0 -1.999,0.664 -2.665,1.328l-103.301,204.603l0.668,2.662l1.997,1.34l16.661,0l-27.325,46.651l0,2.662l2.666,1.334l17.995,0l-18.659,37.983l-0.667,0.67l1.998,2.662c1.334,0.67 2.665,0.67 3.332,-1.328l20.66,-41.321l0,-2.662l-2.664,-1.34l-17.996,0l27.325,-46.651l0,-1.328l0,-1.334l-2.666,-1.335l-16.66,0l97.302,-192.608l1.999,17.332l-73.311,156.617l0,1.998l2.665,1.334l24.661,0l-21.328,43.99l0,2.662l2.665,0.67l27.325,0l-28.656,89.971l-0.667,0.665l0.667,1.997l2.665,0.671l38.652,0l-19.326,97.963l0,0.663c0,1.342 0.668,2.005 2.666,2.005l2.668,-2.005l19.326,-101.294l-0.667,-1.335l-1.334,-1.334l-38.653,0l28.656,-89.308l0,-1.328l0,-1.334l-2.665,-0.67l-26.657,0l21.327,-43.983l0,-0.664l-0.667,-2.005c0,-0.664 -0.667,-1.328 -1.998,-1.328l-24.66,0l71.976,-153.284l0,-1.334l-3.332,-26.658l-1.998,-2.662Z" style="fill-rule:nonzero;"/><path d="M285.379,5.639c-1.334,-0.664 -2.002,0 -2.665,0.664l-55.985,102.636c-0.663,0.664 0,1.998 0.668,1.998c0.667,1.334 1.334,1.334 2.665,0l55.984,-101.966c1.331,-2.005 0.664,-2.668 -0.667,-3.332Z" style="fill-rule:nonzero;"/><path d="M213.399,137.595l-2.665,0l-95.301,173.278c-0.667,0.67 0,1.997 0.667,2.662l2.666,-1.328l95.301,-172.614c0.666,-0.664 0.666,-1.998 -0.668,-1.998Z" style="fill-rule:nonzero;"/><path d="M262.054,157.588l-2.002,1.334l-29.99,55.314c-0.664,1.334 0,1.998 0.667,2.662c0.667,0.67 2.001,0 2.665,-1.328l29.99,-54.651c0.667,-1.997 0,-2.66 -1.33,-3.331Z" style="fill-rule:nonzero;"/><path d="M226.729,224.233c-1.331,0 -1.997,0 -2.665,1.334l-42.651,77.969c-0.667,0.671 0,1.342 0.667,2.669c1.998,0.664 2.665,0 2.665,-1.327l42.653,-77.313c0.665,-1.333 -0.002,-1.997 -0.669,-3.332Z" style="fill-rule:nonzero;"/><path d="M376.017,25.632c-1.334,-0.664 -2.668,0 -2.668,0.664l-66.645,118.634c0,0.664 0,1.328 0.666,2.662l3.333,-0.67l65.979,-117.957c0.666,-2.005 0,-2.669 -0.665,-3.333Z" style="fill-rule:nonzero;"/><path d="M284.712,187.579c-0.667,-1.334 -1.335,-0.671 -2.666,0.67l-71.312,128.618c-1.33,1.341 -0.666,2.004 0.668,2.668c0.667,1.334 1.997,0.663 2.665,-0.664l71.979,-128.63c0.664,-1.328 0,-2.662 -1.334,-2.662Z" style="fill-rule:nonzero;"/><path d="M180.745,554.798c0,1.328 0.667,1.992 2.001,1.992l141.286,0l2.001,-1.992l-2.001,-2.005l-141.286,0c-1.334,0 -2.001,0.665 -2.001,2.005Z" style="fill-rule:nonzero;"/><path d="M70.113,552.793l-59.981,0c-1.331,0 -2.665,0.665 -2.665,2.005c0,1.328 1.334,1.992 2.665,1.992l59.981,0l2.001,-1.992l-2.001,-2.005Z" style="fill-rule:nonzero;"/><path d="M261.386,534.805c0,1.328 0.668,1.991 2.665,1.991l43.987,0l1.998,-1.991l-1.998,-2.005l-43.987,0c-1.997,0 -2.665,0.664 -2.665,2.005Z" style="fill-rule:nonzero;"/><path d="M175.415,532.8l-75.311,0c-1.331,0 -2.666,0.664 -2.666,2.005c0,1.328 1.334,1.991 2.666,1.991l75.311,0l2.665,-1.991l-2.665,-2.005Z" style="fill-rule:nonzero;"/><path d="M66.117,532.8l-55.985,0c-1.331,0 -2.665,0.664 -2.665,2.005c0,1.328 1.334,1.991 2.665,1.991l55.985,0l1.998,-1.991l-1.998,-2.005Z" style="fill-rule:nonzero;"/><path d="M253.388,512.143l-121.96,0c-1.334,0 -1.998,1.328 -1.998,2.668c0,0.665 0.664,1.992 1.998,1.992l121.96,0l2.001,-1.992l-2.001,-2.668Z" style="fill-rule:nonzero;"/><path d="M90.773,512.143l-80.641,0c-1.331,0 -2.665,1.328 -2.665,2.668c0,0.665 1.334,1.992 2.665,1.992l80.642,0l1.334,-1.992l-1.335,-2.668Z" style="fill-rule:nonzero;"/><path d="M185.411,494.147c0,1.334 0.667,1.997 1.998,1.997l77.31,0l1.998,-1.997l-1.998,-1.999l-77.31,0c-1.331,0 -1.998,0.665 -1.998,1.999Z" style="fill-rule:nonzero;"/><path d="M90.773,492.148l-80.641,0c-1.331,0 -2.665,0.665 -2.665,1.999c0,1.334 1.334,1.997 2.665,1.997l80.642,0l2.666,-1.997l-2.667,-1.999Z" style="fill-rule:nonzero;"/><path d="M80.109,471.491l-69.977,0c-1.331,0 -2.665,0.665 -2.665,2.662c0,0.671 1.334,1.334 2.665,1.334l69.978,0l2.001,-1.334l-2.002,-2.662Z" style="fill-rule:nonzero;"/><path d="M66.117,451.498l-55.985,0c-1.331,0 -2.665,0.664 -2.665,1.991c0,1.341 1.334,2.005 2.665,2.005l55.985,0l1.998,-2.005l-1.998,-1.991Z" style="fill-rule:nonzero;"/><path d="M56.784,430.834l-46.652,0c-1.331,0 -2.665,0.671 -2.665,2.662c0,0.67 1.334,1.341 2.665,1.341l46.652,0l2.001,-1.341l-2.001,-2.662Z" style="fill-rule:nonzero;"/><path d="M52.788,410.841l-42.656,0c-1.331,0 -2.665,0.67 -2.665,1.997c0,1.334 1.334,2.005 2.665,2.005l42.656,0l1.998,-2.005l-1.998,-1.997Z" style="fill-rule:nonzero;"/><path d="M52.121,390.847l-41.989,0c-1.331,0 -2.665,0 -2.665,1.334c0,1.999 1.334,1.999 2.665,1.999l41.989,0l1.998,-1.999l-1.998,-1.334Z" style="fill-rule:nonzero;"/><path d="M58.785,370.184l-48.653,0c-1.331,0 -2.665,0.669 -2.665,2.004c0,1.328 1.334,1.998 2.665,1.998l48.653,0l1.998,-1.998l-1.998,-2.004Z" style="fill-rule:nonzero;"/><path d="M301.373,138.929c3.332,5.331 5.331,9.997 5.997,14.657c0.668,4.002 0.668,7.334 0,8.005c-1.997,1.992 -5.33,3.332 -9.329,3.996l-8.662,-1.334l-1.335,-1.998c-1.334,-4.667 -5.33,-6.664 -11.331,-6l-11.327,0l-20.661,2.668c-3.999,0.664 -7.998,5.331 -11.331,11.995c-2.665,4.667 -4.663,9.997 -5.33,13.999c-3.332,2.663 -6.665,3.997 -11.331,2.663c-2.665,-0.671 -5.33,-2.663 -5.998,-5.331c-3.332,-9.997 -3.332,-16.662 -1.997,-19.33l1.331,-0.664c4.665,0 7.998,-1.334 11.33,-4.667c3.333,-3.333 4.667,-5.994 4.667,-8.662c0,-3.333 -5.334,-8.669 -17.328,-14.664l-17.329,1.334l-6.665,1.999c-0.667,-1.335 -2.665,-4.003 -3.332,-8.663c-1.999,-6 -2.666,-9.333 -1.335,-10.66l3.333,-4.673c4.667,-7.992 7.999,-11.325 9.998,-11.325l9.996,3.997l17.328,6l13.33,-1.334c1.334,-0.67 2.665,-1.998 1.334,-3.332c-0.668,-1.998 -1.334,-1.998 -3.333,-1.998l-10.664,1.998c-3.999,-1.334 -9.996,-3.333 -15.993,-5.994l-11.332,-4.003c-3.999,-1.334 -9.33,3.333 -15.994,13.329l-2.665,4.667c-0.667,1.998 -1.334,5.331 -0.667,9.997c1.998,8.663 3.999,13.993 7.332,16.661l11.328,-1.334l13.328,-1.998c7.998,4.66 13.329,7.328 14.663,9.997l-3.332,5.33c-2.665,1.999 -4.667,3.333 -7.998,3.333c-1.998,0 -3.997,0.67 -5.331,2.662c-3.332,4.002 -3.332,12.001 0.668,23.996c1.33,4.667 4.663,6.665 9.996,8.663c5.997,1.334 11.327,0 16.661,-3.996l0.667,-1.334c4.663,-14.664 8.663,-21.992 13.993,-23.996l18.663,-1.328l11.994,-0.664l4,0.664l1.997,1.998l3.333,4.667l11.998,1.998c5.997,-1.334 9.997,-3.333 12.662,-5.994c1.998,-2.668 2.665,-6.001 1.334,-12.001c-1.334,-5.33 -3.332,-11.324 -6.665,-16.662c-0.666,-1.328 -2,-1.998 -3.999,-0.664c-0.667,0.661 -1.334,1.996 -0.667,3.33Z" style="fill-rule:nonzero;"/><path d="M374.017,18.968c2,-5.337 0.666,-9.997 -3.333,-15.334c-7.331,-9.326 -23.325,-12.659 -49.316,-9.997c-1.335,0.67 -2.665,1.341 -2.665,2.004c-3.333,10.661 -7.332,21.992 -13.997,34.65c-13.329,25.995 -29.322,46.652 -47.985,61.985l-4.663,3.333c1.331,-1.334 2.665,-1.334 3.332,0.664c1.331,1.334 1.331,2.669 -0.667,3.332l5.33,-3.332c17.995,-14.657 33.989,-33.986 46.652,-57.976c7.999,-13.999 13.328,-27.329 16.661,-39.323c23.325,-2.004 37.322,0.664 43.319,7.992c2.668,3.332 3.332,6.665 2.001,10.667c-2.001,32.652 -16.662,59.98 -43.319,81.309c-7.998,6.664 -17.328,11.994 -27.325,16.661l-12.662,5.331c-2.002,0.67 -2.665,1.998 -1.334,3.333c0,1.998 1.334,1.998 3.332,1.998l12.662,-5.331c10.664,-5.331 19.993,-11.331 28.659,-17.996c27.989,-21.991 42.653,-49.984 45.318,-83.97Z" style="fill-rule:nonzero;"/><path d="M298.708,115.603c-2.665,1.998 -5.998,3.997 -10.664,5.331c-7.998,2.662 -15.994,1.334 -23.325,-3.333c-5.33,-2.662 -7.999,-6.665 -9.33,-10.667c0,-2.663 0.667,-6.665 2.665,-10.661l2.666,-4.66l0.666,-2.668l-1.334,-1.334l-13.329,-1.334c-6.665,2.669 -11.327,6.665 -13.993,12.666c-5.333,14.656 -1.334,28.656 12.662,43.319c9.33,9.997 21.991,13.33 36.654,10.661c12.663,-1.328 21.325,-6.665 25.992,-15.327c3.332,-6.665 1.334,-14 -5.33,-21.992l-4,0l0,-0.001Zm4.663,19.994c-3.996,6.665 -11.327,10.661 -21.991,11.995c-13.329,2.662 -23.993,-0.67 -31.989,-8.663c-12.664,-13.329 -16.661,-25.994 -11.33,-37.319c1.997,-5.337 5.33,-8.669 9.996,-9.997c2.665,-0.67 4,-0.67 6.665,0c-3.332,3.997 -4.666,9.327 -4.666,13.33l0.666,2.662c0.668,5.994 4,11.331 10.664,14.663c12.662,7.992 25.991,7.329 38.653,-1.334c2.001,3.333 4,6.665 4,9.997l-0.668,4.666Z" style="fill-rule:nonzero;"/><path d="M311.37,72.284c0,-1.334 0,-2.004 -1.334,-1.334c-1.998,0 -1.998,0 -1.998,1.334c1.334,13.993 0,28.656 -3.999,41.985c-0.668,1.334 0,1.998 0.666,2.662c1.999,0.67 2.665,0 3.333,-1.328c3.999,-14.663 5.33,-29.327 3.332,-43.319Z" style="fill-rule:nonzero;"/><path d="M326.696,49.622c-0.663,-1.328 -1.997,-1.999 -2.664,-1.328c-1.331,0.664 -1.998,1.328 -1.331,2.662c4.663,14.663 4.663,31.325 1.331,50.654c0,0.664 0,1.992 1.334,2.662l2.666,-1.998c3.331,-19.993 3.331,-37.318 -1.336,-52.652Z" style="fill-rule:nonzero;"/><path d="M343.358,36.957c0,-1.328 -1.331,-1.328 -2.665,-1.328l-1.999,1.998c4,19.994 5.331,35.321 3.333,46.652c-0.667,1.334 0,1.998 1.998,2.662l2.002,-1.328c1.997,-12.002 0.663,-27.992 -2.669,-48.656Z" style="fill-rule:nonzero;"/><path d="M238.727,126.264l-2,-0.664c-3.997,3.996 -7.996,8.663 -11.329,13.993l-3.999,8.669c0,0.664 0,1.991 1.335,2.662c1.33,0 1.998,0 2.664,-1.334l3.333,-7.328c3.332,-6.001 6.665,-9.997 9.996,-13.329c1.331,-1.335 1.331,-1.335 0,-2.669Z" style="fill-rule:nonzero;"/><path d="M207.402,177.582c-1.997,0 -2.665,0 -2.665,1.998c-1.334,9.997 0,19.33 3.333,27.992c5.997,13.329 15.993,23.326 29.99,29.991l3.332,-1.334l0,-3.332c-2.666,-2.668 -4,-7.329 -5.997,-11.995c-4,-10.667 -5.334,-21.991 -4,-33.322c0,-1.999 0,-2.663 -2.665,-3.333c-1.334,0 -2.002,1.334 -2.002,2.662l-1.331,9.333c0,11.331 2.666,22.662 7.332,31.324c-15.33,-9.326 -22.661,-23.996 -22.661,-43.319l0,-4.003c0,-1.328 -1.331,-2.662 -2.666,-2.662Z" style="fill-rule:nonzero;"/><path d="M164.083,154.927l-0.667,-5.337c0,-8.662 2.001,-15.327 7.332,-20.657l7.332,-6.665l1.998,-3.332l-0.664,-0.664c-1.334,-2.005 -2.001,-2.669 -3.332,-1.341c-4.667,2.005 -7.999,6.001 -11.998,10.667c-6.665,10.667 -8.663,23.326 -4,37.325l2.001,1.328c1.998,0.664 2.665,0 2.665,-1.328l5.331,-9.333c3.999,-7.329 7.999,-12.666 13.329,-15.334l1.334,-3.997l-3.999,-0.664c-6.665,3.998 -12.662,10.662 -16.662,19.332Z" style="fill-rule:nonzero;"/><path d="M308.038,160.92c-1.334,0 -2.665,1.334 -3.333,2.663c-1.334,12.001 -9.996,20.664 -24.659,23.996c4.666,-7.335 7.998,-14.664 9.333,-21.992l-2.002,-3.332c-1.998,0 -2.665,0.664 -2.665,1.998c-1.998,9.997 -6.665,17.996 -13.329,24.66c-1.335,1.328 -1.335,1.998 -0.667,3.332l2.665,1.999l17.329,-5.331c11.33,-4.667 17.995,-13.329 19.993,-24.66c0,-1.998 -0.667,-2.662 -2.665,-3.333Z" style="fill-rule:nonzero;"/><path d="M130.093,311.543l-3.332,-0.67l-51.315,35.32c-13.996,9.996 -22.659,24.659 -25.327,43.982c-1.999,12.003 -1.331,25.332 2.001,38.66c4,12.665 9.997,25.324 18.659,36.655c15.331,21.321 34.657,34.65 56.648,40.651c23.326,6 42.653,3.332 59.314,-8.663l48.653,-39.317c1.331,-0.67 1.997,-2.004 0.666,-4.002l-3.999,0l-48.653,37.988c-15.327,11.995 -33.322,14.657 -54.647,9.334c-21.328,-6.001 -39.32,-19.33 -53.316,-38.66c-8.666,-11.324 -14.664,-22.662 -17.995,-35.321c-3.333,-12.658 -4,-25.322 -1.998,-36.654c1.998,-17.331 9.997,-30.661 23.325,-39.986l50.651,-35.985c1.333,-0.671 1.333,-2.668 0.665,-3.332Z" style="fill-rule:nonzero;"/><path d="M184.077,301.546c-22.659,-6 -41.318,-2.668 -57.316,9.327c-16.661,11.995 -24.657,29.319 -25.991,52.646c-0.667,22.662 6.665,43.99 21.328,64.653c15.327,19.994 33.323,33.323 55.981,39.317c21.991,5.994 40.654,3.331 57.316,-9.327c15.994,-11.338 24.656,-29.326 25.99,-51.988c0.668,-22.662 -6.664,-44.646 -21.328,-65.311c-15.326,-19.994 -33.322,-33.323 -55.98,-39.317Zm-54.647,13.329c15.327,-10.667 32.656,-14 53.98,-8.005c20.662,5.337 37.989,18.002 51.986,37.325c14.66,19.323 21.324,39.316 19.993,60.651c0,21.985 -7.998,38.646 -23.326,49.313c-14.663,10.667 -32.655,13.329 -53.316,7.998c-20.661,-5.336 -37.989,-17.995 -51.985,-37.318c-14.66,-19.33 -21.324,-39.323 -20.657,-60.651c0.663,-21.991 7.995,-37.989 23.325,-49.313Z" style="fill-rule:nonzero;"/><path d="M175.415,314.204c-15.331,-2.661 -28.66,0.671 -39.988,9.327c-13.329,9.996 -19.993,23.996 -21.327,43.319c0,18.666 5.997,37.325 17.995,53.986c12.662,16.662 27.989,27.329 45.985,32.652c18.66,4.673 34.657,2.005 48.649,-7.992c13.329,-9.332 19.994,-23.989 20.662,-43.318c0.666,-18.667 -5.331,-36.656 -17.329,-53.98c-15.329,-19.33 -33.323,-30.661 -54.647,-33.994Zm3.332,135.953c-17.329,-5.323 -31.325,-15.991 -43.32,-31.981c-11.998,-15.997 -17.995,-33.323 -17.328,-50.654c0.667,-17.996 7.332,-31.989 19.326,-40.658c10.664,-8.655 23.326,-11.324 37.322,-8.655c20.66,2.661 37.322,13.328 51.981,32.652c11.332,15.99 17.329,33.322 16.662,50.653c0,18.653 -6.664,31.982 -19.327,41.315c-12.661,9.333 -27.324,11.331 -45.316,7.328Z" style="fill-rule:nonzero;"/><path d="M83.442,374.186c-3.333,-1.334 -6.665,-4.002 -11.328,-9.326l-5.333,-6.665l-2.665,-0.671c-0.667,0.671 -0.667,1.999 -0.667,3.333l6.001,7.335c4.663,5.324 8.662,8.656 12.662,9.326l21.992,6.665l2.666,-1.998c0.667,-0.664 0,-1.334 -1.331,-2.005l-21.997,-5.994Z" style="fill-rule:nonzero;"/><path d="M87.441,406.838c-6.665,-5.324 -11.995,-7.992 -16.662,-7.328c-8.662,1.334 -13.996,0 -17.328,-2.669l-2.665,0c-1.998,0.671 -1.998,1.341 0,2.669c3.332,3.995 10.664,4.666 20.66,3.995c4,0 7.999,1.342 12.662,6.002l13.329,7.998l21.328,1.334c1.331,-0.663 1.331,-1.334 1.331,-2.004l-1.331,-1.992l-1.334,0l-18.659,-0.671l-11.331,-7.334Z" style="fill-rule:nonzero;"/><path d="M151.421,452.162c1.334,-0.664 0.667,-1.334 0,-2.005c-6.665,-3.333 -12.662,-5.994 -17.996,-5.994l-17.992,1.334l-3.332,0.664l-8.666,0.663l-4.663,-3.331l-5.333,-6.665c-4.664,-5.323 -8.663,-7.992 -12.662,-9.327l-11.995,-2.661l-9.997,-4.003l-4,-2.661c-0.667,-0.671 -1.998,-0.671 -2.665,0c-1.334,0.663 -1.334,1.991 0,2.661l4.663,3.333l11.331,4.666l11.331,1.998c3.997,1.334 7.329,4.003 11.328,8.662l4.667,6.001l6.665,5.331l9.997,-0.671l4.663,-0.663l15.998,-1.328c5.33,0 10.661,2.662 15.994,5.323c1.997,0.671 2.664,0 2.664,-1.327Z" style="fill-rule:nonzero;"/><path d="M138.092,471.491c9.997,-5.336 17.996,-9.333 25.324,-10.667c1.334,0 1.334,-1.334 1.334,-2.662l-2.665,-1.34c-7.332,1.34 -15.331,5.336 -25.992,11.337c-6.664,3.332 -11.331,5.994 -13.996,6.665c-5.334,0.663 -9.997,0 -13.996,-2.668c-7.332,-4.667 -15.995,-9.334 -25.991,-12.003l-13.329,-3.331c-0.667,-0.664 -1.335,0 -2.002,1.34c0,1.328 0.667,1.991 2.002,1.991l11.995,3.333c9.997,3.332 17.996,6.665 24.66,11.338c5.33,3.996 11.327,5.323 16.661,3.996c3.334,-0.664 8.664,-3.333 15.995,-7.329Z" style="fill-rule:nonzero;"/><path d="M188.076,465.491c-9.33,8.662 -19.993,15.327 -32.655,21.991c-11.998,6.665 -26.658,9.327 -43.987,7.335c-1.334,0 -1.998,0.664 -1.998,1.992c0,1.34 0.664,2.004 1.331,2.004c17.996,1.998 33.323,-0.664 46.652,-7.999l23.326,-14.663l9.998,-7.992c0.666,-0.67 0.666,-1.341 0,-2.668c-1.332,-1.334 -2,-1.334 -2.667,0Z" style="fill-rule:nonzero;"/><path d="M178.08,330.196c-13.329,-3.997 -23.993,-1.992 -33.323,4.673c-6.665,5.323 -10.664,11.324 -12.662,19.323c-2.001,7.335 -2.665,15.326 -1.334,23.996l3.332,7.328c3.333,5.33 7.999,8.663 13.996,11.324l14.664,-1.327l8.663,-7.329c3.333,-4.673 2.665,-11.337 -2.665,-19.993l-7.999,-11.337c7.999,-8.656 18.663,-11.325 32.656,-9.327c6.663,0.671 11.998,3.333 17.327,5.994c-9.33,-12.658 -19.327,-19.994 -32.655,-23.325Z" style="fill-rule:nonzero;"/><path d="M227.396,384.183c-2.665,-5.331 -7.332,-9.326 -13.329,-11.331l-15.327,0.664c-3.333,1.341 -6.664,4.002 -8.666,7.335c-3.332,5.33 -1.998,11.995 2.668,19.993l8.663,11.331c-7.998,8.662 -19.326,11.995 -32.655,9.333l-17.329,-5.337c8.663,11.33 19.327,19.329 32.656,22.662c12.662,3.996 23.325,1.998 33.322,-4.667c5.998,-4.666 9.997,-10.667 12.662,-18.658c2.001,-7.999 2.001,-15.334 0.667,-24.661l-3.332,-6.664Z" style="fill-rule:nonzero;"/><path d="M366.685,187.579c-0.664,0 -1.998,0 -1.998,1.334l-44.654,119.298c-0.664,1.991 0,2.662 0.667,2.662c1.335,0.67 2.666,0 2.666,-0.671l44.653,-119.961c0,-1.328 0,-2.662 -1.334,-2.662Z" style="fill-rule:nonzero;"/><path d="M370.017,236.229c-1.998,0 -2.665,0 -3.332,1.334l-41.318,163.951c0,1.328 0,2.662 1.998,2.662c0.668,0 2.002,0 2.665,-1.997l41.322,-163.282c0,-1.334 0,-2.668 -1.335,-2.668Z" style="fill-rule:nonzero;"/><path d="M158.753,-2.36l-2.001,0l-154.615,133.291c-1.334,0.67 -1.334,1.334 -0.667,3.332c1.334,0.67 1.998,0.67 2.665,0l154.618,-133.962c1.331,-0.663 1.331,-1.327 0,-2.661Z" style="fill-rule:nonzero;"/><path d="M122.765,0.972l-2.668,-0.671l-117.96,92.64c-1.334,1.334 -1.334,2.669 -0.667,3.333l2.665,0l117.964,-92.64l0.666,-2.662Z" style="fill-rule:nonzero;"/><path d="M100.771,-2.36l-1.998,-0.67l-104.635,69.977c-1.331,0.67 -1.331,1.341 -0.667,2.669l2.668,0.664l104.632,-69.979c1.333,0 1.333,-1.327 0,-2.661Z" style="fill-rule:nonzero;"/><path d="M78.778,467.489l-3.999,-0.671c-1.334,0.671 -1.334,2.005 -0.667,3.333l13.33,20.663c3.999,9.327 5.998,14.663 4.666,17.332l-14.663,12.659c-8.662,5.994 -13.996,10.667 -15.327,15.327c-0.667,6.664 1.331,12.664 5.33,19.329c4,5.33 9.33,7.992 14.664,8.663l24.657,-1.334l23.325,-2.67l24.66,3.333l16.662,2.669c4,-0.664 9.997,-5.331 17.996,-13.993c9.329,-10.661 15.994,-15.334 20.657,-15.334l14.663,2.668l30.657,2.005c5.997,-2.668 11.994,-6.664 15.994,-13.999c3.332,-5.33 6.664,-7.999 9.997,-8.663l18.659,0c18.663,1.328 31.324,-0.663 36.655,-3.996c5.333,-3.332 7.998,-9.996 9.333,-20.663l-0.668,-15.327l-2.001,-1.335c-1.331,-0.67 -1.998,0 -2.665,1.335l-7.332,13.328c-4.663,5.331 -8.662,8.663 -12.662,9.334l-16.66,0l-23.993,0.664c8.665,-13.33 17.995,-21.328 27.324,-22.662c1.335,-0.664 2.002,-1.328 2.002,-2.669l-0.667,0c0,-1.991 -0.667,-2.662 -2.001,-2.662l-16.662,1.998c-11.995,2.005 -19.994,6.001 -24.656,12.665l-7.332,13.33l-7.998,12.664l-8.663,5.324l-14.664,-1.991l-11.995,-1.341l-12.661,1.341l-17.329,7.991c-11.995,6.001 -19.993,9.334 -23.993,9.334l-7.996,1.327l-50.651,-1.991c0,-1.341 0.667,-2.005 1.998,-3.332l7.999,-2.668c8.662,-2.005 14.66,-3.997 17.992,-6.665c4.667,-3.996 5.333,-10.661 2.001,-19.33c-1.334,-1.327 -2.001,-1.998 -3.332,-1.327c-2.001,0.664 -2.665,1.99 -1.334,3.332c2.665,5.994 2.001,9.996 -1.331,13.329c-2.002,1.991 -7.332,3.996 -14.664,5.994l-10.664,3.332c-3.333,1.998 -4,4.666 -3.333,8.663c0.667,3.996 5.998,7.328 15.994,7.998l39.987,-1.998l7.999,-0.664c4.667,-0.67 13.33,-4.673 26.658,-10.667c6.665,-4.002 12.662,-7.335 15.995,-7.998l20.66,0.663l17.328,2.005c4.663,-0.664 7.996,-2.668 11.995,-7.328l7.999,-13.329l7.994,-13.329c4,-4.673 11.332,-8.005 21.996,-10.667c-7.999,6.664 -14.664,13.999 -20.661,24.659l0,2.669l3.332,0.664l28.656,-2.005l17.996,0c6.665,-0.663 13.328,-5.994 19.993,-16.661c-0.667,10.667 -3.332,16.661 -7.331,19.993c-3.333,2.005 -7.996,3.333 -15.327,3.333l-17.996,0l-19.323,0c-4,0.67 -6.665,2.005 -9.33,4.673l-5.333,6.664c-3.333,5.324 -7.996,9.997 -13.329,11.325l-13.33,1.334l-13.329,-3.333l-16.66,-2.661c-3.333,0 -7.996,1.327 -12.662,5.323l-11.995,11.338l-14.663,12.658l-15.327,-1.997l-25.328,-3.997l-23.989,2.662l-23.326,1.335c-4,-0.664 -7.332,-2.669 -10.664,-6.665c-3.999,-4.667 -5.333,-9.997 -4.667,-15.334c0.667,-1.991 4.667,-6.664 13.33,-11.324c7.999,-5.337 13.329,-10.661 15.994,-14.663c3.332,-8.662 -2.666,-22.655 -17.994,-43.319Z" style="fill-rule:nonzero;"/></g></g></g><rect id="PATH77" x="2.92" y="2.74" width="366.67" height="582.52" style="fill:none;stroke:#000;stroke-width:3px;"/></svg>