<?xml version="1.0" encoding="UTF-8" standalone="no"?><!DOCTYPE svg PUBLIC "-//W3C//DTD SVG 1.1//EN" "http://www.w3.org/Graphics/SVG/1.1/DTD/svg11.dtd"><svg width="100%" height="100%" viewBox="0 0 372 587" version="1.1" xmlns="http://www.w3.org/2000/svg" xmlns:xlink="http://www.w3.org/1999/xlink" xml:space="preserve" xmlns:serif="http://www.serif.com/" style="fill-rule:evenodd;clip-rule:evenodd;stroke-miterlimit:100;"><g><clipPath id="_clip1"><rect x="3.444" y="2.539" width="366.803" height="525.76"/></clipPath><g clip-path="url(#_clip1)"><path d="M101.222,125.756l-11.61,87.069c-7.737,65.134 -10.962,116.726 -10.962,154.777c0,1.926 1.289,2.568 2.579,2.568c1.934,0 2.58,-0.643 2.58,-2.568c0,-38.051 3.224,-89 10.964,-154.134l11.606,-87.065c0,-1.291 -0.645,-2.582 -1.932,-3.224c-1.937,-0.001 -3.225,0.641 -3.225,2.577Z" style="fill-rule:nonzero;"/><path d="M121.214,329.551l-16.122,7.731l17.41,6.45c10.965,2.582 16.123,0 16.123,-7.733c-0.646,-7.745 -6.449,-9.673 -17.411,-6.448Z" style="fill:#9260c7;fill-rule:nonzero;"/><path d="M141.203,335.355c-0.642,-3.879 -2.578,-7.103 -5.802,-9.029c-3.871,-1.941 -9.675,-0.643 -18.057,2.582c-3.871,1.283 -7.739,3.222 -13.543,6.447l-1.292,1.927l1.292,2.583l14.188,5.166c9.028,2.568 14.832,2.568 18.703,0c3.225,-1.299 4.511,-4.523 4.511,-9.676Zm-30.307,1.927c10.961,-6.447 18.702,-8.374 22.572,-6.447c1.934,1.295 1.934,3.224 1.934,5.164c0.645,2.581 0,4.509 -1.934,4.509c-3.225,3.224 -10.966,1.299 -22.572,-3.226Z" style="fill-rule:nonzero;"/><path d="M104.447,335.355l-22.573,0.644c-1.935,0 -3.224,1.283 -3.224,2.581c0.646,1.928 1.934,3.227 3.224,2.57l23.218,-0.644c1.287,0 2.578,-1.284 2.578,-3.226c0,-1.925 -1.291,-1.925 -3.223,-1.925Z" style="fill-rule:nonzero;"/><path d="M119.278,283.111c-4.513,3.222 -9.673,7.103 -13.543,12.254l18.059,1.295c11.608,-0.652 16.123,-4.52 14.186,-12.254c-2.579,-7.09 -9.028,-7.746 -18.702,-1.295Z" style="fill:#9260c7;fill-rule:nonzero;"/><path d="M132.821,276.66c-7.095,-1.927 -16.767,3.879 -29.02,16.123l-0.646,3.225l2.58,1.295c16.768,3.227 27.733,1.932 32.891,-3.223c2.578,-2.582 2.578,-6.448 1.291,-10.317c-1.292,-3.879 -3.225,-6.447 -7.096,-7.103Zm-21.925,16.123c9.674,-8.377 16.122,-12.244 20.635,-11.602l3.871,4.509c0,1.941 0,3.869 -0.646,5.166c-3.225,3.224 -10.963,3.867 -23.86,1.927Z" style="fill-rule:nonzero;"/><path d="M105.092,292.783l-21.93,7.103c-1.934,0 -2.579,1.929 -1.934,3.226c0.646,1.928 1.934,1.928 3.226,1.928l21.925,-7.734c1.938,-0.644 2.58,-1.296 1.938,-3.224c-0.647,-1.299 -1.938,-1.941 -3.225,-1.299Z" style="fill-rule:nonzero;"/><path d="M51.564,357.273l10.963,-14.826l-18.058,3.227c-11.607,2.579 -15.477,7.73 -10.962,14.182c4.513,7.092 10.32,6.449 18.057,-2.583Z" style="fill:#9260c7;fill-rule:nonzero;"/><path d="M61.883,340.508l-14.832,1.299c-8.385,1.926 -14.834,5.151 -16.769,9.674c-1.29,3.224 -1.29,6.447 1.288,9.672c1.937,3.867 5.162,5.797 8.386,5.797c7.737,0 15.477,-7.735 24.505,-23.217l0,-1.926l-2.578,-1.299Zm-4.517,5.166c-7.091,10.957 -12.896,16.121 -17.41,16.121l-4.515,-3.225l-0.646,-3.225l0.646,-1.941c1.937,-3.866 9.028,-6.446 21.925,-7.73Z" style="fill-rule:nonzero;"/><path d="M80.584,328.908l-19.993,11.6c-1.288,1.299 -1.288,2.582 -0.642,3.225c0.642,1.941 1.933,1.941 3.867,1.3l19.993,-12.259c1.29,-0.644 1.29,-1.938 0,-3.223c0,-1.94 -1.934,-1.94 -3.225,-0.643Z" style="fill-rule:nonzero;"/><path d="M45.76,280.539l18.057,1.929l-10.961,-14.826c-8.386,-7.747 -14.835,-7.747 -18.702,-1.297c-3.226,7.089 0.641,11.614 11.606,14.194Z" style="fill:#9260c7;fill-rule:nonzero;"/><path d="M56.725,269.569c-5.807,-7.091 -11.61,-10.959 -16.122,-10.317c-3.225,0 -6.45,1.941 -8.386,5.808c-2.58,3.867 -2.58,7.731 -0.646,10.958c3.871,5.806 14.836,9.03 32.246,8.388l1.936,-1.295l0,-2.572c-1.937,-3.223 -5.162,-7.105 -9.028,-10.97Zm-16.122,-5.151c4.512,-0.654 10.315,5.151 18.056,15.466c-12.899,-1.283 -19.993,-3.224 -22.572,-7.093l-0.646,-1.925l1.291,-3.224c1.288,-2.582 1.934,-3.224 3.871,-3.224Z" style="fill-rule:nonzero;"/><path d="M61.236,280.539c-0.645,1.929 0,3.224 1.291,3.867l20.635,10.959l3.871,-1.285c0.646,-1.297 0,-1.939 -1.935,-3.224l-20.638,-10.972c-0.644,-0.642 -1.933,-0.642 -3.224,0.655Z" style="fill-rule:nonzero;"/><path d="M51.564,241.19l17.413,5.808l-8.385,-16.123c-7.091,-9.031 -12.898,-11.601 -17.411,-5.807c-5.161,6.45 -1.936,11.613 8.383,16.122Z" style="fill:#9260c7;fill-rule:nonzero;"/><path d="M64.461,232.172c-4.511,-7.746 -9.673,-12.255 -14.186,-12.898c-3.224,0 -6.448,1.285 -9.03,4.509c-3.225,3.868 -3.867,7.734 -2.579,10.316c1.937,3.867 6.448,7.747 15.477,10.969l14.189,3.869l2.58,-0.642l0,-2.582l-6.451,-13.541Zm-21.281,-1.297l1.934,-3.867c1.937,-1.94 3.225,-2.583 4.516,-1.94c4.512,0 9.673,6.45 14.831,17.419c-12.252,-2.581 -19.347,-6.448 -20.634,-10.315l-0.647,-1.297Z" style="fill-rule:nonzero;"/><path d="M67.041,245.068c-1.288,1.285 -1.288,2.57 0.646,3.227l17.413,14.826l3.871,0c1.288,-1.287 1.288,-2.584 -0.645,-3.869l-17.413,-14.838c-1.936,-0.642 -3.227,-0.642 -3.872,0.654Z" style="fill-rule:nonzero;"/><path d="M105.735,253.446l17.414,-3.867c10.963,-4.511 14.188,-9.032 9.672,-15.48c-4.515,-5.807 -10.319,-5.151 -17.414,3.867l-9.672,15.48Z" style="fill:#9260c7;fill-rule:nonzero;"/><path d="M125.727,227.651c-3.87,0.641 -9.672,4.521 -14.831,11.613l-7.74,12.898l0,2.582l2.58,1.285c18.059,-1.939 27.733,-6.449 30.957,-13.542c1.934,-3.223 1.287,-6.448 -1.291,-9.672c-2.581,-3.867 -5.805,-5.164 -9.675,-5.164Zm0.645,5.163c1.935,0 3.225,1.285 4.516,2.582l1.288,3.868l0,1.926c-1.934,3.878 -9.674,6.449 -21.926,9.032c6.449,-11.601 12.252,-17.408 16.122,-17.408Z" style="fill-rule:nonzero;"/><path d="M104.447,250.865l-19.349,13.553c-1.29,1.285 -1.29,2.568 -0.644,3.867l3.87,0.642l18.702,-13.541c1.933,-1.297 1.933,-1.939 0.645,-3.867l-3.224,-0.654Z" style="fill-rule:nonzero;"/><path d="M112.83,205.079l17.413,-1.934c11.607,-2.576 14.831,-7.097 11.607,-13.546c-3.224,-7.092 -9.673,-6.449 -18.056,1.297c-4.516,3.867 -7.74,8.376 -10.964,14.183Z" style="fill:#9260c7;fill-rule:nonzero;"/><path d="M110.25,205.721l2.58,1.298c17.413,0.643 27.732,-2.582 31.599,-8.389c1.937,-3.224 1.937,-6.449 0,-10.958c-1.932,-3.225 -4.512,-5.165 -9.027,-5.807c-6.45,-0.642 -14.832,7.091 -25.151,21.28l-0.001,2.576Zm29.667,-15.474l0.645,3.225l-0.645,2.576c-1.938,3.224 -9.674,5.806 -22.572,6.448c7.737,-10.315 13.543,-15.473 18.057,-15.473c1.935,0 3.223,1.29 4.515,3.224Z" style="fill-rule:nonzero;"/><path d="M110.896,202.496l-20.638,10.971c-1.288,0.643 -1.933,1.927 -0.646,3.225c0.646,1.927 1.938,1.927 3.87,1.284l20.638,-10.958c1.288,-1.298 1.288,-1.94 0.646,-3.874c-0.646,-0.648 -1.936,-1.29 -3.87,-0.648Z" style="fill-rule:nonzero;"/><path d="M75.426,189.599l-8.386,-16.123c-6.449,-9.673 -12.252,-11.601 -17.41,-5.8c-4.516,6.449 -1.937,11.607 8.382,16.123l17.414,5.8Z" style="fill:#9260c7;fill-rule:nonzero;"/><path d="M74.78,192.181l2.58,-1.285l0,-2.582c-6.448,-16.123 -12.898,-24.511 -19.994,-26.438c-3.866,0 -7.091,1.285 -9.672,4.509c-2.579,3.225 -3.224,6.449 -2.579,10.316c1.937,3.874 6.45,7.747 15.477,10.971l14.188,4.509Zm-24.505,-18.705l1.289,-3.867c1.936,-1.933 3.224,-2.582 5.161,-2.582c3.867,0.649 9.028,7.098 14.187,18.704c-12.252,-3.224 -19.347,-6.448 -20.636,-10.958l-0.001,-1.297Z" style="fill-rule:nonzero;"/><path d="M73.489,187.671c-1.287,1.927 -1.287,2.576 0,3.224l18.061,15.474l3.224,-0.649c1.287,-1.284 1.287,-2.576 0,-3.225l-17.414,-15.473l-3.871,0.649Z" style="fill-rule:nonzero;"/><path d="M90.257,383.725l-9.028,-16.123l-5.158,17.407c-1.936,11.611 1.289,16.763 9.028,15.479c7.737,-0.642 9.028,-6.448 5.158,-16.763Z" style="fill:#9260c7;fill-rule:nonzero;"/><path d="M80.584,365.02l-1.934,1.285c-1.291,3.223 -3.224,7.746 -4.515,14.194c-1.933,9.019 -1.933,15.469 1.291,19.347c1.933,3.226 5.158,3.867 9.672,3.226c4.513,0 7.095,-1.94 8.383,-5.806c3.225,-6.449 0,-16.767 -10.319,-30.961c0.001,-1.285 -1.287,-1.285 -2.578,-1.285Zm4.515,33.53c-3.224,0 -4.515,-0.643 -5.159,-1.93l-1.289,-5.804c0,-4.523 1.289,-10.317 3.224,-17.422c5.159,9.033 7.737,15.479 7.737,19.35l0,2.581c-1.288,1.941 -2.579,2.582 -4.513,3.225Z" style="fill-rule:nonzero;"/><path d="M186.992,192.181c-1.932,0 -2.578,0.642 -2.578,1.94c3.223,96.735 3.869,195.396 1.934,296.654c-0.643,1.284 0,1.928 1.936,1.928l2.578,-1.928c2.58,-101.258 2.58,-199.918 -0.646,-296.654l-3.224,-1.94Z" style="fill-rule:nonzero;"/><path d="M194.732,508.825l-6.449,-18.051l-7.74,16.766c-4.511,11.614 -2.578,17.408 5.805,18.063c7.739,0.642 10.965,-5.165 8.384,-16.778Z" style="fill:#9260c7;fill-rule:nonzero;"/><path d="M190.861,489.478l-2.578,-1.927l-1.936,1.927l-7.739,13.553c-3.224,9.021 -3.87,15.469 -1.937,19.99c1.292,3.226 4.515,4.511 9.674,5.151c3.869,0.655 7.096,-1.284 9.672,-4.509c3.227,-3.868 3.227,-10.315 0.646,-19.349l-5.802,-14.836Zm-9.673,30.96l-0.646,-3.867c0,-4.521 2.579,-10.973 7.095,-20.643c3.225,7.743 5.159,14.193 5.159,19.346l-1.288,5.806c-0.646,1.94 -1.938,1.94 -5.16,1.94c-1.933,0.001 -3.226,-0.642 -5.16,-2.582Z" style="fill-rule:nonzero;"/><path d="M230.848,426.927c-5.16,-5.806 -10.965,-3.866 -17.414,6.448c-2.578,5.166 -5.156,10.317 -7.095,16.123l16.771,-5.806c10.317,-5.151 12.897,-10.959 7.738,-16.765Z" style="fill:#9260c7;fill-rule:nonzero;"/><path d="M232.781,425.643c-3.225,-3.225 -6.449,-4.521 -9.674,-3.881c-6.448,1.299 -12.897,10.329 -19.349,27.096l0.646,2.581l2.58,0.643l14.188,-4.521c8.384,-3.866 13.54,-7.734 14.833,-12.244c0.645,-3.226 0.002,-6.449 -3.224,-9.674Zm-9.027,0.641c1.934,0 3.225,0.643 5.157,2.584l1.937,3.865l0,1.283c-1.291,4.523 -7.738,7.747 -20.638,11.616c5.158,-11.614 9.673,-18.063 13.544,-19.348Z" style="fill-rule:nonzero;"/><path d="M204.404,448.214l-16.768,15.469c-1.289,1.295 -1.289,2.579 -0.646,3.878c0.646,0.644 2.579,0.644 3.87,0l16.769,-16.122c1.935,-1.298 1.935,-2.581 0.646,-3.225c-1.291,-1.297 -1.936,-1.297 -3.871,0Z" style="fill-rule:nonzero;"/><path d="M150.878,454.664l18.059,2.567l-10.964,-14.824c-8.383,-7.747 -13.544,-9.032 -18.056,-1.94c-3.871,6.45 0,11.613 10.961,14.197Z" style="fill:#9260c7;fill-rule:nonzero;"/><path d="M162.488,443.692c-5.804,-7.094 -10.965,-10.317 -16.123,-10.317c-3.224,0 -6.448,1.939 -8.386,5.809c-2.578,3.225 -2.578,7.092 -0.642,10.314c2.579,3.867 7.736,7.092 16.765,8.39l14.835,1.929l2.579,-1.285l0,-2.581l-9.028,-12.259Zm-19.992,-1.927c1.29,-2.581 2.578,-3.224 3.869,-3.224c5.158,0 10.961,5.151 17.411,16.123c-12.253,-1.299 -19.99,-3.228 -21.926,-7.747l-0.646,-1.926l1.292,-3.226Z" style="fill-rule:nonzero;"/><path d="M167,455.949c-1.288,1.938 -1.288,2.581 0.646,3.224l19.993,12.255c1.934,0.644 3.225,0.644 3.225,-0.643c1.291,-1.939 0.646,-3.226 -0.646,-3.877l-19.991,-12.244c-1.936,-0.656 -2.581,0 -3.227,1.285Z" style="fill-rule:nonzero;"/><path d="M233.427,385.009c-4.516,-5.807 -10.317,-4.51 -17.413,5.165c-3.226,5.151 -5.804,9.672 -8.383,16.121l17.411,-5.165c10.965,-4.51 13.543,-10.314 8.385,-16.121Z" style="fill:#9260c7;fill-rule:nonzero;"/><path d="M237.939,393.398c1.291,-3.226 0.646,-6.451 -2.58,-9.676c-2.578,-3.879 -5.803,-5.807 -9.027,-4.521c-4.516,0.644 -9.673,4.521 -14.189,12.899l-6.449,12.896c-0.643,1.297 -0.643,1.938 0,3.226l2.584,0.643c17.41,-3.867 27.081,-9.019 29.661,-15.467Zm-5.158,-1.296c-1.291,3.225 -7.739,7.092 -20.639,10.313c5.162,-11.599 10.319,-17.405 14.188,-18.69c1.935,0 3.226,1.285 5.157,3.225l1.291,3.227l0,1.926l0.003,0l0,-0.001Z" style="fill-rule:nonzero;"/><path d="M206.339,403.713l-18.7,15.48c-0.646,0.643 -0.646,1.928 0,3.225l3.225,0.644l18.703,-14.839c1.289,-1.285 1.289,-1.928 0,-3.225l-3.228,-1.285Z" style="fill-rule:nonzero;"/><path d="M152.814,406.938l18.057,4.51c-3.225,-6.448 -6.45,-11.602 -9.674,-15.479c-7.095,-9.021 -12.899,-10.317 -18.056,-3.866c-4.516,6.447 -1.291,10.967 9.673,14.835Z" style="fill:#9260c7;fill-rule:nonzero;"/><path d="M141.203,390.174c-2.578,3.866 -3.224,7.092 -1.287,10.313c2.58,7.094 12.897,10.959 30.31,12.9l2.581,-0.643l0,-2.582l-7.74,-12.898c-5.157,-7.091 -10.318,-11.613 -14.831,-11.613c-3.871,-0.001 -6.45,1.296 -9.033,4.523Zm3.225,8.376l0,-1.284l0.646,-3.867c1.937,-2.582 3.224,-3.225 4.516,-2.582c5.159,0 9.674,5.805 16.122,17.406c-12.898,-2.582 -19.347,-5.809 -21.284,-9.673Z" style="fill-rule:nonzero;"/><path d="M168.291,409.521c-0.645,1.283 -0.645,2.566 0.646,3.865l19.346,13.539l3.226,-0.643c1.288,-1.938 0.646,-3.225 -0.646,-3.866l-18.701,-12.896c-1.291,-1.297 -2.58,-1.297 -3.871,0.001Z" style="fill-rule:nonzero;"/><path d="M225.042,332.13c-5.806,-4.519 -11.608,-1.938 -15.478,8.378c-2.58,5.809 -3.871,11.614 -5.16,17.42l15.479,-8.39c9.674,-7.091 11.607,-12.256 5.159,-17.408Z" style="fill:#9260c7;fill-rule:nonzero;"/><path d="M231.49,339.223c0,-3.224 -1.288,-6.449 -5.158,-9.029c-3.225,-2.582 -6.449,-3.866 -9.673,-2.582c-4.517,1.939 -8.384,7.09 -10.966,16.121l-3.865,14.195c-0.646,0.643 0,1.928 1.287,1.928l2.578,0.644c3.871,-1.929 7.74,-3.867 12.897,-7.093c7.742,-4.511 11.612,-9.675 12.9,-14.184Zm-12.898,-6.452l4.518,1.285c1.934,1.299 3.224,2.582 3.224,4.522c-0.646,4.51 -7.095,9.673 -18.701,14.825c3.222,-12.253 6.447,-19.344 10.959,-20.632Z" style="fill-rule:nonzero;"/><path d="M202.471,356.631l-14.832,18.063c-0.646,1.285 -0.646,2.582 0.646,3.867l3.226,-0.644l14.83,-18.062l0.646,-1.929l-0.646,-1.297l-3.87,0.002Z" style="fill-rule:nonzero;"/><path d="M149.59,372.752l18.701,-0.643l-13.542,-12.254c-9.675,-6.451 -14.832,-6.451 -18.057,0.643c-2.58,7.104 1.933,11.611 12.898,12.254Z" style="fill:#9260c7;fill-rule:nonzero;"/><path d="M135.401,370.17c4.515,5.809 16.121,7.105 32.889,4.523l2.58,-1.941l-0.645,-1.926c-12.253,-13.553 -21.282,-19.348 -28.376,-18.063c-3.224,0.641 -6.448,2.582 -7.095,7.092c-1.933,4.521 -1.286,7.747 0.647,10.315Zm7.74,-12.242c4.512,-1.297 10.961,3.225 19.347,12.242c-12.898,0.656 -20.638,-0.643 -23.218,-3.865c-0.645,-0.644 -0.645,-2.58 0,-5.152c0.647,-1.298 1.933,-3.225 3.871,-3.225Z" style="fill-rule:nonzero;"/><path d="M165.712,370.826c-0.646,1.926 -0.646,3.225 1.288,3.867l21.93,7.734l3.867,-1.287c0,-1.938 0,-3.225 -1.936,-3.225l-21.924,-8.391c-1.291,-0.638 -3.225,0.003 -3.225,1.302Z" style="fill-rule:nonzero;"/><path d="M216.659,256.67l-9.028,15.481l18.057,-4.509c10.319,-3.878 13.543,-9.675 9.026,-16.123c-5.157,-5.806 -10.96,-4.521 -18.055,5.151Z" style="fill:#9260c7;fill-rule:nonzero;"/><path d="M238.585,260.537c1.291,-3.224 0.646,-6.448 -1.935,-10.315c-3.225,-3.224 -6.448,-5.154 -9.674,-4.509c-3.869,0.641 -9.027,5.152 -14.188,12.254c-2.578,3.867 -5.157,8.378 -7.095,12.899l0,2.568c0.646,0.656 1.291,1.299 2.582,0.656c17.413,-2.581 27.732,-7.104 30.31,-13.553Zm-4.515,-3.224l-0.645,1.297c-1.291,3.869 -8.385,7.093 -20.639,9.675c5.804,-10.972 10.32,-16.766 15.479,-17.42c1.291,0 2.582,0 4.516,2.582l1.289,3.866Z" style="fill-rule:nonzero;"/><path d="M206.339,270.21l-18.7,13.553c-1.291,1.927 -1.291,2.57 0,3.869l3.225,0.643l18.703,-14.184c1.289,-1.299 1.289,-2.582 0.645,-3.88c-0.648,-0.642 -2.581,-1.284 -3.873,-0.001Z" style="fill-rule:nonzero;"/><path d="M149.59,282.468l18.056,-0.645l-13.543,-12.254c-9.028,-6.448 -15.477,-6.448 -18.056,0.641c-2.579,7.106 1.932,10.971 13.543,12.258Z" style="fill:#9260c7;fill-rule:nonzero;"/><path d="M133.468,269.569c-1.292,3.865 -1.292,7.091 1.287,10.315c3.871,4.521 15.48,6.449 33.536,4.521l1.936,-1.938l-1.289,-2.584l-10.32,-10.315c-7.095,-5.806 -12.252,-8.376 -17.414,-7.735c-3.225,0.646 -5.803,3.227 -7.736,7.736Zm5.157,1.297c1.291,-2.582 1.936,-3.88 3.224,-3.88c4.515,-0.641 10.964,3.224 19.993,12.898c-12.252,0.655 -19.993,0 -23.217,-3.224c-0.646,-1.927 -0.646,-3.226 0,-5.794Z" style="fill-rule:nonzero;"/><path d="M165.066,280.539c-0.646,1.929 -0.646,3.224 1.934,3.224l21.283,8.377c1.934,0.643 2.578,0 3.226,-1.927c0.646,-1.297 0,-2.582 -1.292,-3.224l-21.926,-7.747c-1.291,0 -3.225,0 -3.225,1.297Z" style="fill-rule:nonzero;"/><path d="M207.631,215.395c-1.938,5.807 -3.871,10.971 -4.516,17.42l16.121,-8.389c9.029,-6.45 10.966,-12.256 4.518,-17.407c-5.805,-4.523 -10.966,-1.94 -16.123,8.376Z" style="fill:#9260c7;fill-rule:nonzero;"/><path d="M200.537,234.742l3.223,0c16.123,-5.794 25.151,-12.898 25.797,-19.99c0.646,-3.225 -0.646,-6.448 -3.869,-9.673c-3.225,-2.583 -6.449,-3.867 -10.318,-2.583c-4.514,1.94 -8.383,6.449 -11.607,15.48l-3.224,14.196c-0.646,0.642 -0.646,1.927 -0.002,2.57Zm24.505,-21.275c-1.288,4.509 -7.737,9.032 -18.703,14.825c3.228,-12.897 7.095,-19.347 10.966,-20.631c1.934,-0.643 3.225,0 5.158,1.284c1.291,1.297 2.579,3.225 2.579,3.88l0,0.642Z" style="fill-rule:nonzero;"/><path d="M200.537,231.518l-14.831,17.419c-1.292,1.285 -1.292,2.582 0.642,3.867l3.869,-0.642l14.188,-17.42c1.289,-1.285 1.289,-2.57 0,-3.867l-3.868,0.643Z" style="fill-rule:nonzero;"/><path d="M150.878,234.742l17.413,3.224l-10.318,-14.824c-7.095,-8.39 -12.899,-10.316 -17.411,-3.868c-3.87,6.449 -0.645,12.244 10.316,15.468Z" style="fill:#9260c7;fill-rule:nonzero;"/><path d="M138.625,217.976c-2.58,3.868 -3.224,7.092 -1.934,10.316c3.225,6.45 14.186,10.329 31.599,12.255c0.646,0 1.936,0 2.58,-1.284l0,-2.583c-8.383,-15.479 -16.122,-23.855 -23.218,-23.855c-4.511,0 -7.09,1.927 -9.027,5.151Zm8.385,0c4.512,0.643 10.316,5.807 16.766,16.766c-12.898,-1.927 -20.635,-5.152 -21.926,-9.019l-0.646,-1.297l1.293,-3.225l4.513,-3.225Z" style="fill-rule:nonzero;"/><path d="M165.712,236.039c-0.646,1.927 -0.646,3.225 1.288,3.868l19.348,12.897l3.869,-0.642c0.646,-1.297 0.646,-2.582 -0.646,-3.867l-19.989,-12.899c-1.291,-0.654 -1.936,-0.654 -3.87,0.643Z" style="fill-rule:nonzero;"/><path d="M236.65,290.213c-3.869,-6.45 -9.674,-5.166 -17.414,3.224c-3.223,4.51 -7.094,9.672 -9.672,15.467l17.412,-3.225c10.963,-3.866 14.188,-9.019 9.674,-15.466Z" style="fill:#9260c7;fill-rule:nonzero;"/><path d="M206.984,306.979l0,2.582c0.646,1.285 1.291,1.929 2.58,1.929c17.412,-2.585 28.375,-5.81 30.957,-12.255c1.933,-3.227 1.287,-6.45 -1.291,-10.317c-2.58,-3.226 -5.16,-5.806 -9.028,-5.806c-4.515,0.652 -9.675,3.878 -14.834,11.612l-8.384,12.255Zm7.096,-1.299c6.447,-11.6 12.252,-16.763 16.122,-16.763l5.157,2.582l0.646,3.867l0,1.295c-1.935,3.866 -9.673,6.448 -21.925,9.019Z" style="fill-rule:nonzero;"/><path d="M207.631,306.337l-19.348,12.896c-1.291,0.644 -1.291,1.929 -0.646,3.226l3.225,0.642l19.349,-12.896c1.933,-0.644 2.578,-1.3 1.29,-3.226l-3.87,-0.642Z" style="fill-rule:nonzero;"/><path d="M149.59,322.458l18.701,-0.655l-13.542,-12.242c-9.675,-7.104 -14.832,-7.104 -18.057,0.644c-2.58,7.733 1.933,11.598 12.898,12.253Z" style="fill:#9260c7;fill-rule:nonzero;"/><path d="M170.226,322.458l0,-2.582l-10.962,-10.315c-7.741,-5.808 -12.899,-7.746 -17.414,-7.104c-3.871,0 -6.448,3.225 -7.737,7.104c-1.936,3.869 -0.645,7.092 1.289,10.315c4.515,5.808 15.477,7.093 32.889,4.509l1.935,-1.927Zm-7.738,-2.582c-12.898,1.285 -20.638,-0.644 -23.218,-3.226c-0.645,-1.297 -0.645,-3.221 -0.645,-5.162c1.291,-2.584 2.578,-3.869 3.871,-4.51c4.514,-0.641 10.963,3.868 19.992,12.898Z" style="fill-rule:nonzero;"/><path d="M168.291,319.232c-0.645,-0.655 -1.933,0 -3.224,1.929c0,1.297 0,2.581 1.934,3.224l21.929,7.745c1.935,0.644 2.58,0 3.227,-1.295c1.287,-1.927 0.643,-3.224 -1.293,-3.224l-22.573,-8.379Z" style="fill-rule:nonzero;"/><path d="M308.878,181.865l-9.674,52.877c-6.448,42.575 -10.96,83.835 -12.25,123.186c0,1.285 0.646,1.928 2.577,1.928c1.291,0 1.937,-0.643 1.937,-1.928c1.935,-39.351 5.804,-80.611 12.253,-122.532l9.673,-52.247c0.646,-1.927 0,-3.225 -1.288,-3.225c-1.936,0.001 -3.228,0.001 -3.228,1.941Z" style="fill-rule:nonzero;"/><path d="M297.271,374.693l-7.739,-16.767l-6.449,18.052c-2.578,11.61 0,17.42 7.739,16.766c8.382,-0.642 10.321,-6.451 6.449,-18.051Z" style="fill:#9260c7;fill-rule:nonzero;"/><path d="M289.531,354.703c-1.287,0 -1.934,0.643 -2.577,1.928l-5.806,14.195c-2.58,9.673 -2.58,16.121 0,19.99c2.578,3.224 5.806,4.509 9.674,4.509c5.158,0 8.382,-1.927 9.674,-5.151c2.58,-4.523 1.935,-10.972 -1.936,-20.004l-7.094,-13.539l-1.935,-1.928Zm7.095,29.022l-0.646,3.865c-0.644,1.285 -1.934,2.584 -5.158,2.584l-5.157,-1.941l-1.292,-5.162c0,-5.152 1.936,-11.604 5.158,-19.99c4.517,9.028 7.095,16.121 7.095,20.644Z" style="fill-rule:nonzero;"/><path d="M319.844,305.038c-3.871,4.522 -7.095,9.674 -9.674,14.838l17.414,-3.226c10.96,-3.863 14.186,-8.39 9.671,-14.838c-4.514,-6.447 -10.317,-5.804 -17.411,3.226Z" style="fill:#9260c7;fill-rule:nonzero;"/><path d="M330.161,295.365c-4.514,0 -9.673,3.867 -14.834,10.972l-7.737,12.896l0,2.569l2.58,0.655l14.832,-2.582c8.385,-1.939 14.188,-5.164 16.122,-9.673c1.291,-3.226 0.646,-7.093 -1.934,-10.317c-2.58,-3.877 -5.803,-5.162 -9.029,-4.52Zm-15.476,21.285c5.805,-10.971 11.608,-16.123 16.123,-16.766c1.288,0 2.579,0.643 4.514,2.57l1.29,3.881l-0.646,1.926c-1.291,3.87 -9.028,7.093 -21.281,8.389Z" style="fill-rule:nonzero;"/><path d="M310.815,322.458c1.934,-0.655 1.934,-1.938 1.288,-3.881c-1.288,-1.283 -1.935,-1.283 -3.867,0l-18.705,12.899c-1.934,0.652 -1.934,1.938 -1.287,3.879c1.287,1.283 2.578,1.283 3.869,0l18.702,-12.897Z" style="fill-rule:nonzero;"/><path d="M334.032,272.792c11.604,-2.582 14.831,-6.446 11.604,-13.539c-3.223,-7.091 -9.672,-6.449 -17.411,1.285c-4.514,3.227 -8.383,7.748 -12.254,12.897l18.061,-0.643Z" style="fill:#9260c7;fill-rule:nonzero;"/><path d="M313.394,272.792c0,0.643 0,1.299 0,1.941l2.579,1.927l14.835,-0.642c9.028,-1.285 14.83,-3.867 17.41,-7.733c1.938,-3.225 1.938,-6.451 0,-10.317c-2.58,-3.878 -5.157,-6.448 -8.382,-6.448c-7.095,-0.655 -16.123,6.447 -26.442,21.272Zm29.667,-12.255l1.288,3.227l-0.643,1.296c-1.938,3.867 -9.674,5.806 -22.573,6.449c8.383,-10.315 14.188,-14.838 18.059,-14.196c1.932,0 3.223,0.654 3.869,3.224Z" style="fill-rule:nonzero;"/><path d="M314.685,271.509l-20.637,10.315c-1.935,0.645 -2.58,1.939 -1.292,3.867c1.292,1.299 1.938,1.299 3.225,0.643l20.64,-9.673c1.934,-1.285 2.579,-2.57 1.934,-3.869c-1.29,-1.926 -1.936,-2.582 -3.87,-1.283Z" style="fill-rule:nonzero;"/><path d="M331.449,212.17l-10.961,14.196l18.702,-3.224c10.317,-2.583 14.188,-7.747 9.673,-14.196c-3.87,-6.45 -9.673,-5.801 -17.414,3.224Z" style="fill:#9260c7;fill-rule:nonzero;"/><path d="M335.966,227.008c9.027,-1.94 14.189,-5.165 16.123,-9.032c2.578,-3.224 1.935,-6.449 -0.646,-10.958c-2.58,-3.225 -5.159,-5.165 -9.028,-5.165c-3.871,0.642 -9.674,3.867 -15.478,10.971c-3.226,3.224 -5.806,7.734 -8.386,12.243l0,2.583c0.646,0.641 1.291,1.297 2.58,1.297l14.835,-1.939Zm6.449,-19.989c1.934,0 3.223,1.285 4.515,3.224l1.288,3.225l0,1.927c-2.58,3.225 -9.674,6.449 -21.925,7.747l8.382,-10.972c3.223,-3.225 5.806,-5.151 7.74,-5.151Z" style="fill-rule:nonzero;"/><path d="M319.844,224.426l-19.993,11.613c-1.935,1.285 -1.935,2.583 -0.646,3.868c0.646,1.284 1.292,1.94 3.227,1.284l19.99,-12.898l0.646,-3.224c-0.647,-1.927 -1.935,-1.927 -3.224,-0.643Z" style="fill-rule:nonzero;"/><path d="M252.129,316.009c-10.965,-3.878 -16.77,-1.938 -17.415,5.794c-0.644,7.748 4.517,10.327 16.124,8.391l17.413,-5.809c-5.804,-3.224 -10.966,-5.808 -16.122,-8.376Z" style="fill:#9260c7;fill-rule:nonzero;"/><path d="M237.297,312.787c-3.227,1.925 -5.16,5.148 -5.16,9.016c-0.646,3.881 0.646,7.105 3.87,9.676l18.7,0.651l14.189,-5.161l1.933,-2.584l-1.933,-1.927c-14.189,-9.671 -24.507,-12.897 -31.599,-9.671Zm-0.647,9.671c0.646,-3.226 1.289,-4.521 2.58,-4.521c3.869,-2.582 11.606,0 22.57,6.447c-11.605,4.523 -19.348,5.166 -22.57,3.227c-1.291,-1.285 -2.58,-3.226 -2.58,-5.153Z" style="fill-rule:nonzero;"/><path d="M268.251,322.458l-1.935,0l-1.289,1.927c0,1.299 0.645,2.584 2.578,3.227l23.217,1.298l3.226,-2.582c0,-1.3 -1.292,-1.941 -3.226,-1.941l-22.571,-1.929Z" style="fill-rule:nonzero;"/><path d="M276.634,264.418l-10.315,-14.838c-7.74,-8.39 -13.543,-10.316 -17.414,-3.867c-4.516,6.449 -1.291,11.6 9.674,15.48l18.055,3.225Z" style="fill:#9260c7;fill-rule:nonzero;"/><path d="M275.991,266.986l2.577,-0.641l0,-2.582l-7.739,-12.899c-5.802,-7.735 -10.317,-11.601 -15.478,-11.601c-3.224,0 -6.447,1.926 -9.027,5.15c-1.936,3.881 -3.225,7.105 -1.29,10.329c2.577,4.509 7.739,7.735 16.769,9.675l14.188,2.569Zm-26.44,-14.824l-0.646,-1.297l1.935,-3.226l4.515,-3.225c3.871,0 9.676,5.808 16.123,16.779c-12.901,-1.941 -19.996,-4.523 -21.927,-9.031Z" style="fill-rule:nonzero;"/><path d="M297.271,275.375l-19.347,-12.897l-3.87,0.643c-0.646,1.297 0,2.582 0.646,3.865l19.348,12.898l3.868,-0.642c1.288,-1.926 0.647,-2.582 -0.645,-3.867Z" style="fill-rule:nonzero;"/><path d="M-40.657,-24.507c-1.29,1.291 -1.29,2.582 0.646,3.224c36.758,21.284 72.228,54.175 107.697,98.027c17.413,22.571 31.6,43.209 41.919,61.911c0.645,1.934 1.936,1.934 3.224,0.646c1.936,-0.646 2.578,-1.291 1.29,-3.224c-10.964,-19.347 -24.508,-39.985 -42.563,-62.557c-35.47,-45.144 -72.23,-78.034 -108.987,-98.669c-1.937,-1.291 -3.226,-1.291 -3.226,0.642Z" style="fill-rule:nonzero;"/><path d="M-16.797,9.029l-4.513,6.449c-2.578,5.158 -3.869,10.964 -2.578,15.477c1.287,7.741 5.803,14.836 14.831,19.993l3.87,-0.645c5.804,-9.028 7.737,-16.768 5.804,-24.505c-1.291,-5.162 -3.87,-9.028 -7.74,-12.898l-7.092,-4.516l-2.582,0.645Zm-1.933,21.281l0,-2.58c0,-4.512 1.291,-9.028 4.515,-13.543c5.159,3.87 9.028,7.74 10.317,12.898l0,4.516c0,3.87 -1.289,8.382 -3.869,12.898c-6.448,-3.87 -10.318,-8.383 -10.963,-14.189Z" style="fill-rule:nonzero;"/><path d="M33.507,76.744c6.449,-10.965 6.449,-20.639 0.646,-28.375l-11.611,-8.385l-5.158,12.898c-1.29,10.318 4.513,18.704 16.123,23.862Z" style="fill:#858585;fill-rule:nonzero;"/><path d="M23.834,37.404c-1.937,-0.646 -2.579,0 -3.224,0.646l-3.87,7.095c-1.935,5.803 -2.58,10.318 -1.292,15.477c1.936,7.74 7.094,14.189 16.769,18.702c1.291,0.646 2.579,0.646 3.224,-1.288c5.804,-9.032 6.448,-17.414 4.515,-24.508c-1.937,-4.512 -4.515,-9.028 -9.674,-12.252l-6.448,-3.872Zm-3.224,21.927l-0.646,-3.868c0,-4.516 1.291,-8.385 3.87,-12.255c5.159,3.225 9.673,7.74 10.961,12.255l0.646,5.804c0,3.87 -0.646,7.736 -3.224,12.252c-6.449,-4.516 -10.32,-9.027 -11.607,-14.188Z" style="fill-rule:nonzero;"/><path d="M15.448,16.77c-1.288,0 -1.934,1.287 -1.288,3.225l5.804,20.635c0.646,1.936 1.933,1.936 3.224,1.936c1.933,-1.291 2.58,-1.936 1.933,-3.224l-6.449,-21.284c0,-1.288 -1.288,-1.934 -3.224,-1.288Z" style="fill-rule:nonzero;"/><path d="M63.816,116.084c7.74,-10.32 9.03,-19.993 3.87,-28.375l-10.32,-9.673l-6.448,12.898c-2.579,9.672 1.937,18.056 12.898,25.15Z" style="fill:#858585;fill-rule:nonzero;"/><path d="M64.461,79.969l-6.449,-4.516c-0.646,-0.642 -1.933,-0.642 -3.224,1.292l-3.871,6.449c-2.579,4.515 -3.867,9.673 -3.224,14.831c0.646,7.74 5.807,14.19 14.834,20.638l3.225,-0.646c6.45,-9.027 8.383,-16.768 6.45,-24.505c-0.645,-5.161 -3.225,-9.028 -7.741,-13.543Zm3.225,14.831l0,3.87c0,3.87 -1.288,8.385 -5.159,13.544c-5.803,-5.159 -9.027,-9.674 -9.672,-14.832l0,-1.937c0,-4.512 1.288,-9.028 4.511,-14.186c5.161,3.867 8.386,8.383 10.32,13.541Z" style="fill-rule:nonzero;"/><path d="M52.855,54.172c-1.938,0 -2.58,1.291 -1.938,2.579l3.871,21.926c0,1.292 0.645,2.582 2.578,1.938l1.938,-2.579l-3.224,-21.93c-0.647,-1.934 -1.937,-2.579 -3.225,-1.934Z" style="fill-rule:nonzero;"/><path d="M77.359,154.128c10.965,-7.736 14.19,-16.119 11.61,-25.792l-7.095,-12.898l-9.672,10.318c-5.161,9.029 -3.225,18.702 5.157,28.372Z" style="fill:#858585;fill-rule:nonzero;"/><path d="M80.584,113.504c-1.287,0 -3.225,1.934 -6.449,5.158c-3.871,3.87 -6.449,9.028 -7.095,13.544c-1.288,8.382 1.936,16.123 8.386,23.863l3.871,0.642c9.027,-6.449 12.897,-14.186 13.539,-21.926c0,-4.516 -1.287,-9.673 -4.512,-14.832l-4.515,-5.807l-3.225,-0.642Zm6.449,20.635l0,0.646c0,5.158 -3.224,10.319 -9.028,15.477c-3.87,-5.804 -5.803,-10.319 -5.803,-14.832l0,-2.579c1.287,-4.515 3.869,-9.031 9.027,-13.543c3.87,5.158 5.804,9.674 5.804,14.831Z" style="fill-rule:nonzero;"/><path d="M81.229,94.157l-2.579,21.281c0,1.934 1.289,3.224 2.579,3.224c1.934,0 2.58,-0.646 2.58,-2.578l2.579,-21.927c0,-1.291 -0.643,-2.582 -2.579,-2.582c-1.934,-0.642 -2.58,0.001 -2.58,2.582Z" style="fill-rule:nonzero;"/><path d="M32.217,10.962l12.897,7.094c9.674,1.938 18.702,-1.287 25.797,-12.252c-9.675,-8.382 -19.347,-9.673 -28.375,-5.158l-10.319,10.316Z" style="fill:#858585;fill-rule:nonzero;"/><path d="M72.202,3.871c-7.741,-6.449 -15.478,-9.673 -23.863,-7.74c-4.512,0.645 -9.027,3.225 -12.898,7.74l-5.159,5.804c-0.646,0.646 0,2.579 0.646,3.225l6.45,4.512c4.511,2.582 10.315,4.515 14.831,3.87c7.741,-0.646 14.832,-5.804 21.28,-14.187c0.646,-1.29 0.646,-2.581 -1.287,-3.224Zm-5.161,1.934c-4.513,6.449 -9.675,9.673 -15.477,10.319c-5.158,0.646 -10.319,-1.937 -15.478,-5.804c3.87,-5.161 8.383,-8.386 13.544,-9.674c5.158,-0.645 10.961,1.289 17.411,5.159Z" style="fill-rule:nonzero;"/><path d="M32.217,8.384l-21.281,2.579c-1.937,0.646 -2.579,1.292 -2.579,3.225c0,1.937 0.642,2.583 3.223,2.583l21.282,-3.225c1.933,0 2.579,-1.291 2.579,-3.225c0,-1.292 -1.288,-2.583 -3.224,-1.937Z" style="fill-rule:nonzero;"/><path d="M109.605,50.947c-9.674,-9.027 -18.056,-11.606 -27.731,-8.382l-10.963,8.382l10.963,9.028c9.675,3.87 18.057,0.646 27.731,-9.028Z" style="fill:#858585;fill-rule:nonzero;"/><path d="M88.324,38.695c-4.515,0.646 -9.674,1.934 -14.189,5.804l-5.804,5.157c-0.646,1.291 -0.646,2.583 0,3.225l5.804,5.806c4.515,3.225 9.674,5.158 14.189,5.158c8.382,0.646 15.478,-3.224 22.571,-10.964c1.934,-0.643 1.934,-1.934 0,-3.225c-7.093,-8.382 -14.834,-11.606 -22.571,-10.961Zm0,19.993c-4.515,0 -9.674,-2.582 -14.189,-7.74c4.515,-4.515 9.674,-6.448 14.189,-7.094c5.157,-0.646 10.961,1.938 16.768,7.094c-5.806,5.803 -11.611,8.383 -16.768,7.74Z" style="fill-rule:nonzero;"/><path d="M45.76,50.947c0,1.934 1.291,3.225 2.579,3.225l22.572,0c1.291,0 2.578,-1.291 2.578,-3.225c0,-1.291 -1.287,-1.933 -2.578,-1.933l-22.572,0c-1.288,0.001 -2.579,0.642 -2.579,1.933Z" style="fill-rule:nonzero;"/><path d="M136.692,83.193c-9.674,-9.029 -18.06,-11.607 -27.733,-8.383l-10.961,8.383l10.961,8.382c9.673,4.516 18.059,1.291 27.733,-8.382Z" style="fill:#858585;fill-rule:nonzero;"/><path d="M138.625,85.126c1.291,-0.643 1.291,-1.933 0,-3.867c-7.737,-7.74 -14.832,-10.964 -23.218,-10.964c-4.512,0.646 -9.673,2.579 -14.186,6.449l-5.804,5.157c-0.645,1.292 -0.645,1.937 0,2.583l5.804,6.449c4.513,3.224 9.674,5.158 14.186,5.158c8.386,0 15.481,-3.225 23.218,-10.965Zm-37.403,-1.933c5.158,-5.158 9.674,-7.095 14.833,-7.741c4.515,0 10.318,2.583 16.122,7.741c-6.45,5.158 -11.607,7.74 -16.122,7.74c-5.159,0 -10.32,-3.225 -14.833,-7.74Z" style="fill-rule:nonzero;"/><path d="M72.847,83.193c0,1.291 1.289,2.578 2.58,2.578l21.925,0l2.58,-2.578c0,-1.934 -0.646,-2.58 -1.934,-2.58l-22.572,0c-1.291,0.001 -2.579,0.646 -2.579,2.58Z" style="fill-rule:nonzero;"/><path d="M134.755,168.325c1.937,-12.256 -0.643,-21.287 -9.028,-27.09l-13.543,-3.871l-0.643,14.188c2.579,9.675 10.316,15.475 23.214,16.773Z" style="fill:#858585;fill-rule:nonzero;"/><path d="M132.821,144.458c-3.224,-3.87 -7.739,-6.449 -13.543,-8.382l-7.095,-1.291l-2.578,1.291l-1.289,8.382c0,5.804 1.289,10.319 3.867,14.834c3.871,7.091 11.61,10.958 21.929,11.607l2.58,-1.292c1.933,-10.957 1.287,-18.703 -3.871,-25.149Zm-16.767,12.253c-1.935,-3.225 -2.58,-7.091 -2.58,-11.606l0.646,-5.162c6.45,1.292 11.607,3.87 14.832,7.737c2.579,3.224 3.87,7.746 3.87,12.897l-0.645,4.522c-7.737,-1.296 -12.899,-4.521 -16.123,-8.388Z" style="fill-rule:nonzero;"/><path d="M347.572,-39.338c1.291,-0.646 1.291,-1.934 0,-3.224l-3.225,0c-26.438,22.572 -46.433,67.715 -58.684,136.72c-6.449,34.179 -10.318,69.003 -11.609,101.891c0,1.297 0.646,2.582 2.578,3.224c1.291,0 2.582,-1.285 2.582,-3.224c1.288,-30.948 5.157,-63.842 11.605,-98.666c12.257,-69.007 30.956,-114.15 56.753,-136.721Z" style="fill-rule:nonzero;"/><path d="M239.876,193.472c13.543,-0.649 21.926,-5.8 25.151,-14.832l0.645,-14.189c-4.515,-0.648 -9.027,0.649 -13.543,2.576c-9.027,4.521 -12.899,12.898 -12.253,26.445Z" style="fill:#858585;fill-rule:nonzero;"/><path d="M268.251,163.803l-1.935,-1.928c-8.385,-0.648 -16.121,1.928 -21.282,7.734c-5.804,5.164 -8.384,13.541 -7.095,23.863c0,1.934 0.646,2.576 1.937,2.576c10.962,0 18.701,-3.225 23.858,-9.674c4.517,-6.449 6.452,-13.541 4.517,-22.571Zm-4.517,5.806c0,5.164 -1.287,10.316 -4.512,13.541c-3.226,3.874 -8.386,6.449 -16.77,7.098l0,-0.648c0,-7.734 2.58,-12.898 5.805,-16.123c3.87,-4.509 9.026,-6.449 15.477,-6.449l0,2.581Z" style="fill-rule:nonzero;"/><path d="M268.251,166.384l14.188,-16.765c1.287,-1.291 1.287,-2.582 -0.646,-3.87l-3.225,0.643l-14.188,16.768c-1.935,0.643 -1.935,1.94 0,3.224l3.871,0Z" style="fill-rule:nonzero;"/><path d="M237.939,132.852c12.256,2.579 21.283,0 27.088,-8.385c3.224,-4.513 3.869,-9.028 4.515,-13.544l-14.188,-0.643c-9.674,1.934 -16.124,9.674 -17.415,22.572Z" style="fill:#858585;fill-rule:nonzero;"/><path d="M272.121,110.922l-1.938,-1.933c-8.383,-3.226 -15.478,-2.58 -22.572,1.29c-6.447,4.512 -10.961,11.607 -12.252,21.926c-0.646,1.933 0,2.579 1.291,3.225c10.961,2.579 18.701,0.646 25.15,-3.87c6.451,-5.158 9.675,-11.606 10.321,-20.638Zm-13.544,16.768c-3.87,3.224 -9.673,3.87 -17.413,3.224c1.29,-7.736 4.516,-12.898 9.031,-15.477c4.512,-3.224 10.316,-3.87 16.765,-2.579c-1.933,6.45 -4.513,11.608 -8.383,14.832Z" style="fill-rule:nonzero;"/><path d="M286.309,96.091l-18.058,12.898c-1.291,1.29 -1.935,1.933 -0.646,3.224l3.224,1.29l18.702,-12.897c1.291,-1.291 1.291,-1.937 0.646,-3.224l-3.868,-1.291Z" style="fill-rule:nonzero;"/><path d="M275.346,89.642c2.579,-4.515 3.87,-9.028 3.225,-14.189l-13.543,1.292c-9.674,3.225 -15.477,10.964 -16.123,23.862c13.542,1.933 22.57,-2.583 26.441,-10.965Z" style="fill:#858585;fill-rule:nonzero;"/><path d="M273.408,97.382c5.808,-5.807 8.386,-12.898 7.74,-21.93l-1.934,-1.933c-8.387,-1.934 -16.123,-0.646 -21.931,4.516c-6.447,4.512 -9.673,11.606 -10.961,22.571c0,1.934 1.288,2.579 2.579,3.225c10.322,0.643 19.35,-1.291 24.507,-6.449Zm2.583,-19.347c0,6.449 -1.937,11.606 -5.808,14.831c-4.513,4.516 -10.315,5.804 -18.056,5.158c0.646,-7.091 3.224,-12.897 7.739,-16.123c4.515,-3.224 9.03,-4.511 16.125,-3.866Z" style="fill-rule:nonzero;"/><path d="M294.048,59.331l-16.769,14.189c-1.934,1.291 -1.934,1.933 -0.646,3.87l3.87,0.646l16.768,-14.836c1.29,-1.288 1.29,-1.933 0,-3.87l-1.291,-0.643l-1.932,0.644Z" style="fill-rule:nonzero;"/><path d="M283.729,36.116c3.227,-3.224 5.804,-7.74 6.448,-12.256c-3.868,-1.933 -9.026,-3.224 -13.543,-3.224c-10.315,0.646 -18.057,7.094 -21.927,19.347c12.253,4.516 21.927,3.87 29.022,-3.867Z" style="fill:#858585;fill-rule:nonzero;"/><path d="M278.568,42.565c7.738,-3.224 12.254,-9.673 14.188,-18.059c0,-1.288 0,-2.579 -1.934,-2.579c-7.096,-4.515 -14.831,-5.158 -22.571,-1.933c-7.094,2.578 -12.897,9.028 -16.122,19.347c-0.646,1.288 0,2.579 1.934,3.224l24.505,0Zm-7.739,-18.059l16.125,0.646c-2.581,6.449 -5.806,10.964 -10.32,12.897l-18.057,0c3.225,-7.094 7.095,-11.607 12.252,-13.543Z" style="fill-rule:nonzero;"/><path d="M308.878,12.254l-19.987,9.673c-1.291,0 -1.291,1.291 -1.291,3.225c0.646,1.29 1.933,1.933 3.224,1.29l19.993,-9.673c1.934,-0.646 2.577,-1.292 1.934,-3.225c-1.291,-1.29 -2.581,-1.936 -3.873,-1.29Z" style="fill-rule:nonzero;"/><path d="M266.96,-9.027c-1.288,1.288 -1.288,1.934 0.646,3.225c8.387,6.448 16.769,8.382 24.508,5.803c7.737,-2.579 13.541,-7.095 17.412,-15.478l-0.646,-2.582c-7.09,-5.158 -14.186,-7.737 -21.924,-7.092c-8.388,1.935 -14.835,6.451 -19.996,16.124Zm23.862,3.867c-5.805,1.292 -11.606,0 -18.057,-3.867c5.158,-6.449 9.674,-9.673 14.832,-10.964c5.157,0 10.317,1.291 16.122,4.515c-3.868,5.158 -7.739,9.028 -12.897,10.316Z" style="fill-rule:nonzero;"/><path d="M331.449,65.137c6.449,-11.61 6.449,-21.284 0,-29.021l-11.605,-8.386l-4.517,13.544c-1.288,9.673 4.517,17.414 16.122,23.863Z" style="fill:#858585;fill-rule:nonzero;"/><path d="M333.387,65.779c5.805,-9.028 6.449,-16.765 3.868,-24.505c-1.289,-5.158 -4.514,-8.382 -9.671,-12.252c-3.226,-2.58 -5.163,-3.87 -7.096,-3.87c-0.646,0 -1.937,0 -2.578,1.29l-3.871,6.45c-1.936,5.803 -1.936,10.961 -0.646,16.123c1.935,7.091 7.096,13.54 16.769,18.056c1.934,1.29 2.579,0.644 3.225,-1.292Zm-0.646,-23.214l0.646,6.45c0,3.224 -0.646,7.736 -3.226,11.606c-7.095,-3.224 -10.317,-7.74 -11.608,-12.898l-1.288,-4.516c0,-3.867 1.288,-8.383 3.225,-11.606c5.803,1.934 9.671,5.803 12.251,10.964Z" style="fill-rule:nonzero;"/><path d="M310.815,7.738l6.448,20.638c0.646,1.933 1.935,1.933 3.225,1.933c1.933,-0.643 2.578,-1.933 1.933,-3.225l-6.448,-21.28c-0.646,-1.291 -1.934,-1.934 -3.224,-1.291c-1.934,0.001 -2.579,1.292 -1.934,3.225Z" style="fill-rule:nonzero;"/><path d="M358.537,-3.869l-14.188,-3.87l0,14.189c2.581,9.674 10.318,15.477 23.863,16.768c1.933,-12.898 -1.292,-22.572 -9.675,-27.087Z" style="fill:#858585;fill-rule:nonzero;"/><path d="M352.089,-9.027l-7.74,-1.291l-1.934,1.291c-0.646,1.934 -1.291,3.867 -1.291,8.383c0,5.158 1.291,10.964 3.869,14.831c4.516,6.449 12.253,10.319 22.572,10.965l3.224,-1.934c1.291,-10.318 0,-18.705 -5.803,-24.508c-3.225,-3.87 -7.094,-6.449 -12.897,-7.737Zm-5.805,8.383l0,-4.516c6.451,0.646 11.606,3.225 15.477,7.74c2.58,3.225 3.871,7.74 3.871,12.898l0,4.516c-7.74,-1.292 -13.543,-4.516 -16.123,-9.032c-1.937,-3.224 -3.225,-7.091 -3.225,-11.606Z" style="fill-rule:nonzero;"/><path d="M319.844,188.956c1.933,-13.54 -1.934,-21.929 -10.318,-27.081l-14.188,-3.225l0.643,14.183c2.582,9.674 10.963,14.838 23.863,16.123Z" style="fill:#858585;fill-rule:nonzero;"/><path d="M294.693,156.069c-0.646,0 -1.293,0.642 -1.938,1.933c-0.644,0.648 -1.288,3.225 -1.288,7.74c0.646,5.807 2.58,10.958 5.158,14.832c4.517,6.449 12.252,9.673 23.218,10.322c1.289,0 2.577,-0.648 2.577,-1.94c1.292,-10.958 -0.646,-18.704 -5.802,-24.504c-3.87,-3.874 -8.383,-6.449 -13.543,-7.098l-8.382,-1.285Zm5.803,21.28c-1.936,-3.224 -3.227,-7.097 -3.227,-12.897l0,-3.225c6.45,0.648 12.255,2.576 15.479,6.449c3.224,3.873 4.516,9.024 4.516,15.474l0,2.582c-7.74,-1.285 -13.543,-4.509 -16.768,-8.383Z" style="fill-rule:nonzero;"/><path d="M279.857,139.3c-1.934,1.934 -1.934,2.58 -0.643,3.867l14.186,17.41l3.869,0l0,-3.225l-13.543,-17.41l-3.869,-0.642Z" style="fill-rule:nonzero;"/><path d="M316.619,145.75c3.869,-11.61 2.579,-21.283 -4.516,-27.733l-12.899,-6.449l-2.578,13.544c0.645,10.319 7.095,17.413 19.993,20.638Z" style="fill:#858585;fill-rule:nonzero;"/><path d="M318.553,121.887c-2.58,-4.515 -6.447,-8.383 -11.607,-10.319l-7.74,-2.578c-1.288,0 -1.934,0 -2.578,1.29c-0.646,1.934 -1.934,5.158 -2.578,7.737c-0.646,5.162 0,10.32 1.934,14.835c3.224,7.737 9.673,12.253 19.991,15.477c1.292,0.649 2.58,0 3.227,-1.291c3.219,-10.319 3.219,-18.702 -0.649,-25.151Zm-19.349,1.291l1.292,-9.032c6.448,3.226 11.607,6.45 13.543,10.32c1.934,3.224 2.58,6.448 2.58,9.673l-1.936,7.741c-7.739,-2.58 -11.607,-5.804 -14.188,-10.319l-1.291,-8.383Z" style="fill-rule:nonzero;"/><path d="M287.6,89.642c-1.291,0.646 -1.935,1.934 -0.646,3.225l9.672,19.993c0.646,1.287 1.937,1.933 3.225,0.645c1.292,-0.645 2.58,-1.29 1.292,-3.224l-10.319,-19.347c-0.647,-1.292 -1.293,-2.583 -3.224,-1.292Z" style="fill-rule:nonzero;"/><path d="M326.938,107.055c4.512,-12.898 2.577,-22.571 -5.806,-29.02l-12.896,-5.806l-1.938,14.188c0.646,10.319 7.741,16.769 20.64,20.638Z" style="fill:#858585;fill-rule:nonzero;"/><path d="M308.878,70.295l-3.225,1.291l-1.934,7.737c-0.645,5.161 0,10.318 1.934,14.834c3.871,7.092 10.966,12.252 20.64,14.833c1.934,0 2.578,0 3.223,-1.935c3.227,-9.673 2.58,-18.059 -1.289,-25.154c-2.578,-3.866 -6.45,-7.091 -12.254,-9.672l-7.095,-1.934Zm0,13.543l1.292,-8.386c6.449,2.583 10.318,5.807 13.543,9.674c1.936,2.582 2.58,6.449 2.58,9.673l-1.291,7.74c-7.737,-1.934 -12.253,-5.158 -14.832,-10.319c-0.646,-2.578 -1.292,-5.157 -1.292,-8.382Z" style="fill-rule:nonzero;"/><path d="M296.626,50.947c-1.933,1.292 -2.578,1.934 -1.288,3.871l10.961,18.702c0.646,1.933 1.291,1.933 3.227,1.291c1.291,-1.291 1.936,-1.937 0.646,-3.225l-10.319,-19.347c-0.649,-1.292 -1.937,-1.937 -3.227,-1.292Z" style="fill-rule:nonzero;"/><path d="M281.794,234.742c8.383,-9.674 9.674,-19.347 5.16,-28.372l-10.32,-10.322l-7.092,12.897c-1.937,9.674 1.933,18.063 12.252,25.797Z" style="fill:#858585;fill-rule:nonzero;"/><path d="M277.925,194.121l-3.225,0c-0.646,1.285 -2.579,3.224 -4.517,6.449c-2.578,5.151 -3.867,10.316 -3.225,14.825c0.646,8.389 4.516,15.48 13.544,21.286l3.869,-0.642c6.448,-7.747 9.028,-16.122 7.095,-23.869c-0.646,-5.151 -3.224,-9.674 -7.095,-12.898l-6.446,-5.151Zm9.029,21.928c0,4.51 -1.937,9.019 -5.806,14.826c-5.803,-5.152 -9.027,-9.674 -9.674,-15.48l0,-1.285c0,-5.165 1.934,-10.316 5.805,-14.838c5.803,5.165 8.386,9.673 9.675,14.195l0,2.582Z" style="fill-rule:nonzero;"/><path d="M121.214,-55.461l-3.87,0c-1.291,1.292 -1.291,1.934 0,3.225c11.607,14.832 23.858,35.469 36.757,60.62c24.508,50.304 38.695,103.83 42.564,158.643c0,1.298 0.646,2.582 2.579,1.94c1.292,0 1.938,-1.291 1.938,-2.583c-3.226,-55.462 -17.414,-108.987 -43.209,-160.58c-12.253,-25.795 -24.505,-46.433 -36.759,-61.265Z" style="fill-rule:nonzero;"/><path d="M162.488,170.251c12.252,-3.225 19.346,-9.674 21.281,-19.347l-2.58,-14.186c-4.515,0.645 -9.027,2.582 -12.898,5.161c-7.74,6.45 -9.674,15.474 -5.803,28.372Z" style="fill:#858585;fill-rule:nonzero;"/><path d="M181.188,134.139c-9.027,0.646 -15.477,4.516 -19.992,11.61c-3.871,6.452 -4.513,14.828 -1.933,25.151c0.646,1.933 1.933,1.933 3.224,1.933c10.319,-2.582 17.41,-7.091 21.281,-14.183c3.224,-7.098 3.869,-14.837 0.646,-23.22c-0.645,-0.645 -1.935,-1.291 -3.226,-1.291Zm-15.476,14.19c3.225,-4.516 8.383,-7.094 14.186,-9.028l1.291,7.737l-2.579,9.031c-1.937,4.509 -7.094,8.382 -14.189,10.315l-1.933,-7.091c0,-4.515 1.288,-7.74 3.224,-10.964Z" style="fill-rule:nonzero;"/><path d="M190.861,116.084l-10.964,19.347c-1.288,0.646 -1.288,2.579 0.646,3.224c1.291,1.288 2.579,0.646 3.226,-0.645l10.963,-19.348c1.287,-1.29 1.287,-2.578 -0.646,-3.224c-1.289,-1.292 -3.225,-0.646 -3.225,0.646Z" style="fill-rule:nonzero;"/><path d="M156.04,125.112c12.251,-3.871 18.701,-11.608 19.346,-21.281l-3.224,-14.189c-4.516,1.292 -8.386,3.225 -12.252,7.095c-7.096,7.094 -8.388,16.767 -3.87,28.375Z" style="fill:#858585;fill-rule:nonzero;"/><path d="M174.74,88.351c-0.646,-0.643 -1.291,-1.288 -3.224,-0.643l-7.095,2.579c-5.157,2.579 -9.028,5.804 -11.607,10.319c-3.224,7.091 -3.224,15.478 1.288,25.15c0.646,1.934 1.291,2.58 3.224,1.934c9.674,-3.224 16.123,-9.028 19.347,-16.123c1.292,-4.513 1.937,-10.319 0.646,-15.477l-2.579,-7.739Zm-1.933,14.189l-1.291,7.094c-1.935,4.512 -6.45,9.028 -13.543,11.607c-1.933,-3.225 -1.933,-7.095 -1.933,-9.027c0,-3.224 0,-6.45 1.933,-9.028c2.579,-3.87 6.448,-7.74 12.898,-10.319l1.936,9.673Z" style="fill-rule:nonzero;"/><path d="M178.61,68.361l-8.384,19.99c-1.289,1.937 -0.645,2.582 1.29,3.87c1.291,0.645 2.579,0.645 3.224,-1.288l9.028,-19.993c0.646,-1.937 0.646,-2.579 -1.289,-3.87c-1.291,0 -2.582,0 -3.869,1.291Z" style="fill-rule:nonzero;"/><path d="M136.692,85.126c12.252,-1.933 19.348,-8.382 21.281,-18.056l-1.289,-14.832c-5.161,0.643 -9.031,2.579 -13.543,5.159c-7.74,6.448 -10.32,15.477 -6.449,27.729Z" style="fill:#858585;fill-rule:nonzero;"/><path d="M159.264,51.593c-0.646,-0.646 -1.291,-1.937 -3.224,-1.937c-8.387,1.291 -14.836,4.516 -19.348,11.611c-4.516,5.803 -5.161,14.186 -3.224,25.15l3.224,1.291c10.961,-1.937 18.057,-6.449 21.281,-12.898c3.869,-7.74 4.515,-15.479 1.291,-23.217Zm-4.515,3.87l1.291,7.092l-2.58,9.031c-1.937,5.158 -7.095,8.383 -14.834,10.315l-1.288,-6.449c0,-3.867 1.288,-8.382 3.224,-11.607c3.224,-4.514 7.736,-7.094 14.187,-8.382Z" style="fill-rule:nonzero;"/><path d="M165.712,32.892l-10.963,18.055c-1.289,1.292 -0.646,3.225 0.645,3.871c1.291,0.645 2.58,0.645 3.871,-0.646l10.962,-19.348c1.29,-1.29 1.29,-1.933 -0.645,-3.224c-1.291,-1.29 -2.582,-0.645 -3.87,1.292Z" style="fill-rule:nonzero;"/><path d="M127.018,43.853c11.608,-5.803 17.411,-14.186 16.123,-23.859l-4.515,-12.898c-4.513,1.288 -8.383,3.867 -11.608,8.382c-6.449,7.74 -6.449,17.414 0,28.375Z" style="fill:#858585;fill-rule:nonzero;"/><path d="M145.074,27.085c2.579,-7.091 0.646,-14.831 -4.512,-21.926l-2.583,-1.288c-9.027,3.225 -14.186,8.383 -16.765,16.123c-2.583,7.091 -1.936,16.122 3.868,25.15l3.225,0.646c9.672,-4.516 14.834,-10.965 16.767,-18.705Zm-3.871,-5.158l-1.287,4.515c-1.291,5.159 -4.515,9.674 -11.61,13.541c-2.58,-5.159 -3.225,-8.382 -3.225,-11.607l0.645,-6.449c1.938,-5.158 5.804,-8.382 11.611,-11.607c2.58,3.867 3.866,7.737 3.866,11.607Z" style="fill-rule:nonzero;"/><path d="M147.653,-13.543c0,-1.933 0,-3.224 -1.933,-3.224c-1.292,0 -2.58,0 -3.224,1.291l-6.45,21.281c-0.645,1.291 0,3.224 1.933,3.224c1.291,1.292 2.583,0 3.224,-1.933l6.45,-20.639Z" style="fill-rule:nonzero;"/><path d="M226.332,136.719l-14.189,0.646l4.518,13.541c5.804,7.746 15.477,10.971 27.729,7.746c-1.936,-12.902 -8.383,-19.997 -18.058,-21.933Z" style="fill:#858585;fill-rule:nonzero;"/><path d="M219.236,133.494l-7.736,1.292c-1.29,0 -1.936,1.291 -1.936,2.579l1.291,7.741c2.578,5.8 5.158,9.673 9.026,12.249c6.449,5.165 14.831,6.45 25.151,3.874l1.936,-2.576c-1.936,-10.97 -5.806,-17.416 -12.898,-21.932c-4.513,-2.582 -9.028,-3.869 -14.834,-3.227Zm3.871,20.634c-3.871,-3.224 -6.448,-8.379 -7.739,-14.828c5.159,-1.291 10.964,-1.291 16.122,1.934c4.517,3.224 7.74,7.743 9.674,15.477c-7.737,1.291 -13.54,0.642 -18.057,-2.583Z" style="fill-rule:nonzero;"/><path d="M191.509,123.178c-0.646,1.934 -0.646,2.578 1.288,3.866l18.059,12.256c1.287,1.288 2.578,1.288 3.226,-0.646c1.288,-1.291 1.288,-2.579 -0.646,-3.87l-18.058,-12.253c-1.291,-0.644 -1.937,-0.644 -3.869,0.647Z" style="fill-rule:nonzero;"/><path d="M210.855,99.961c7.094,7.094 16.769,7.737 28.375,2.579c-3.871,-11.607 -10.965,-18.056 -21.281,-18.056l-14.189,3.225l7.095,12.252Z" style="fill:#858585;fill-rule:nonzero;"/><path d="M225.688,83.193l-15.478,-0.646c-3.871,0.646 -6.45,1.937 -7.095,2.58c-1.934,1.291 -1.934,1.937 -1.934,3.225l3.223,7.74c2.58,4.515 6.451,7.74 10.964,10.318l25.153,-0.646l1.933,-3.87c-4.515,-10.318 -9.673,-16.123 -16.766,-18.701Zm-18.704,5.803l16.77,-1.288c5.157,1.933 9.027,6.449 12.253,13.541l-18.702,0.645c-4.517,-2.579 -7.741,-7.094 -10.321,-12.898Z" style="fill-rule:nonzero;"/><path d="M181.188,78.035c-0.646,1.934 0,2.579 1.934,3.224l19.993,8.382c1.289,1.292 2.578,0.646 3.224,-1.291c0.646,-1.288 0.646,-2.58 -1.288,-3.225l-20.636,-8.382c-1.293,-1.29 -2.581,0.001 -3.227,1.292Z" style="fill-rule:nonzero;"/><path d="M194.732,67.07c5.805,8.382 15.478,10.965 28.375,7.74c-3.226,-12.898 -9.027,-20.638 -19.349,-21.929l-13.543,1.291l4.517,12.898Z" style="fill:#858585;fill-rule:nonzero;"/><path d="M225.688,74.165c-2.578,-10.319 -6.449,-17.414 -13.545,-21.283c-4.512,-1.934 -9.672,-3.225 -15.477,-3.225l-7.736,1.937l-1.291,2.579l1.934,7.74c1.291,5.158 4.516,9.674 8.386,12.252c7.094,4.513 15.478,5.804 25.151,2.58c1.932,-0.001 2.578,-1.292 2.578,-2.58Zm-16.124,-16.768c3.869,1.933 7.095,7.74 9.672,14.832c-7.736,1.291 -13.543,0.645 -18.055,-1.934c-4.517,-3.225 -7.096,-8.383 -8.386,-14.832c6.45,-1.291 11.609,-1.291 16.769,1.934Z" style="fill-rule:nonzero;"/><path d="M168.937,41.274c-0.646,1.291 -0.646,1.933 1.289,3.225l18.057,11.606l3.871,-0.643c1.287,-1.291 0.643,-2.582 -0.646,-3.224l-18.702,-12.255c-1.29,-0.642 -2.58,-0.642 -3.869,1.291Z" style="fill-rule:nonzero;"/><path d="M186.348,-2.578l-13.541,5.158l9.027,10.965c8.383,6.449 18.059,5.803 28.376,-1.291c-6.45,-11.608 -14.19,-16.123 -23.862,-14.832Z" style="fill:#858585;fill-rule:nonzero;"/><path d="M171.516,0.646c-1.29,1.288 -1.29,1.934 -0.646,3.225l3.87,6.449c3.225,5.158 7.739,7.736 12.896,9.674c7.096,1.933 15.479,0 24.506,-5.807c1.291,-0.642 1.291,-1.933 0.646,-3.867c-5.804,-9.031 -12.251,-14.189 -19.347,-15.48l-15.477,2.583l-6.448,3.223Zm5.157,3.225c5.161,-3.225 10.319,-4.515 16.124,-3.87c4.516,0.645 9.674,4.512 14.188,10.961c-7.094,3.87 -12.897,5.162 -18.057,3.225c-5.159,-1.287 -9.673,-5.158 -12.255,-10.316Z" style="fill-rule:nonzero;"/><path d="M148.944,-2.578c-0.646,1.934 0.646,2.579 1.934,3.224l21.284,5.158c1.933,0 2.579,-0.646 3.224,-1.934l-1.937,-3.225l-21.28,-5.161c-1.291,-0.644 -2.579,0.647 -3.225,1.938Z" style="fill-rule:nonzero;"/><path d="M197.313,205.721c10.318,-9.024 12.897,-18.698 9.674,-27.723l-7.74,-11.613l-9.028,10.964c-4.513,9.674 -1.936,18.699 7.094,28.372Z" style="fill:#858585;fill-rule:nonzero;"/><path d="M210.855,184.447c0,-4.522 -1.291,-9.674 -4.518,-14.195l-5.802,-5.8c-0.646,-0.648 -2.58,-0.648 -3.226,0l-5.804,5.8c-3.226,3.873 -5.161,9.031 -5.803,13.547c-0.646,8.382 2.577,15.474 10.313,23.22l3.871,0c7.098,-7.098 10.969,-14.196 10.969,-22.572Zm-4.516,0.642l0,0.642c0,4.516 -2.579,9.674 -8.382,15.48c-4.516,-5.164 -7.096,-10.964 -7.096,-15.48l0,-1.284c0,-5.164 3.226,-10.322 7.742,-14.195c5.157,4.521 7.09,9.673 7.736,14.837Z" style="fill-rule:nonzero;"/></g></g><rect id="PATH77" x="2.92" y="2.74" width="366.67" height="582.52" style="fill:none;stroke:#000;stroke-width:3px;"/></svg>