<?xml version="1.0" encoding="UTF-8" standalone="no"?><!DOCTYPE svg PUBLIC "-//W3C//DTD SVG 1.1//EN" "http://www.w3.org/Graphics/SVG/1.1/DTD/svg11.dtd"><svg width="100%" height="100%" viewBox="0 0 372 587" version="1.1" xmlns="http://www.w3.org/2000/svg" xmlns:xlink="http://www.w3.org/1999/xlink" xml:space="preserve" xmlns:serif="http://www.serif.com/" style="fill-rule:evenodd;clip-rule:evenodd;stroke-miterlimit:100;"><g><clipPath id="_clip1"><rect x="25.251" y="23.702" width="344.673" height="563.302"/></clipPath><g clip-path="url(#_clip1)"><path d="M64.993,299.938c0,-3.257 -1.953,-5.204 -5.21,-5.204c-2.605,0 -4.562,1.947 -4.562,5.204c0,3.258 1.957,4.568 4.562,4.568c3.257,0 5.21,-1.311 5.21,-4.568Z" style="fill:#333;fill-rule:nonzero;"/><path d="M53.268,331.216c0,-3.258 -1.304,-4.563 -4.562,-4.563c-1.301,0 -1.953,0 -3.257,1.305l-1.954,3.258c0,2.608 1.954,4.555 5.211,4.555c3.257,0 4.562,-1.947 4.562,-4.555Z" style="fill:#333;fill-rule:nonzero;"/><path d="M35.675,346.854l-1.301,-3.258c-0.652,-0.655 -1.957,-1.311 -3.258,-1.311c-3.257,0 -5.214,1.311 -5.214,4.568c0,3.257 1.957,5.204 5.214,5.204l3.258,-1.298l1.301,-3.905Z" style="fill:#333;fill-rule:nonzero;"/><path d="M35.675,271.275l-0.652,-3.258l-3.907,-1.953c-1.304,0 -1.956,0.648 -3.257,1.953l-1.957,3.258c0,2.602 1.957,4.562 5.214,4.562c3.259,0 4.559,-1.96 4.559,-4.562Z" style="fill:#333;fill-rule:nonzero;"/><path d="M36.98,245.215c0,-3.257 -1.305,-5.21 -4.562,-5.21c-3.257,0 -4.559,1.953 -4.559,5.21c0,2.603 1.301,4.562 4.559,4.562c3.258,0 4.562,-1.96 4.562,-4.562Z" style="fill:#333;fill-rule:nonzero;"/><path d="M35.675,320.794l-0.652,-3.258l-3.907,-1.311c-1.304,0 -1.956,0.655 -3.257,1.311l-1.957,3.258l1.957,3.258c1.301,1.298 1.953,1.946 3.257,1.946l3.907,-1.946l0.652,-3.258Z" style="fill:#333;fill-rule:nonzero;"/><path d="M35.675,417.209c0,-2.602 -1.301,-4.555 -4.559,-4.555c-3.257,0 -5.214,1.953 -5.214,4.555l1.957,3.913c1.301,0.655 1.953,0.655 3.257,0.655l3.907,-0.655l0.652,-3.913Z" style="fill:#333;fill-rule:nonzero;"/><path d="M50.662,260.847c0,-2.602 -1.957,-4.555 -5.214,-4.555c-3.258,0 -4.559,1.953 -4.559,4.555l1.301,3.913c1.304,0.655 2.605,1.304 3.258,1.304l3.91,-1.304l1.304,-3.913Z" style="fill:#333;fill-rule:nonzero;"/><path d="M69.555,346.854c0,-3.258 -1.304,-4.568 -4.562,-4.568c-3.257,0 -4.559,1.311 -4.559,4.568c0,2.602 1.301,4.555 4.559,4.555c3.258,0 4.562,-1.953 4.562,-4.555Z" style="fill:#333;fill-rule:nonzero;"/><path d="M51.963,360.533c0,-3.258 -1.954,-4.562 -5.211,-4.562c-3.258,0 -4.562,1.304 -4.562,4.562c0,2.608 1.304,4.556 4.562,4.556c3.258,0 5.211,-1.947 5.211,-4.556Z" style="fill:#333;fill-rule:nonzero;"/><path d="M53.268,402.881c0,-2.608 -1.304,-4.562 -4.562,-4.562c-3.257,0 -4.559,1.953 -4.559,4.562c0,3.258 1.301,5.211 4.559,5.211c1.304,0 2.605,0 3.258,-1.304l1.304,-3.907Z" style="fill:#333;fill-rule:nonzero;"/><path d="M42.19,225.67l-1.953,-3.258l-3.257,-1.304c-3.258,0 -4.562,1.304 -4.562,4.562c0,3.257 1.304,4.562 4.562,4.562c3.257,-0.001 5.21,-1.305 5.21,-4.562Z" style="fill:#333;fill-rule:nonzero;"/><path d="M42.19,296.031l-1.953,-3.258l-3.257,-1.953c-3.258,0 -4.562,1.953 -4.562,5.211c0,3.258 1.304,4.562 4.562,4.562l3.257,-0.655l1.953,-3.907Z" style="fill:#333;fill-rule:nonzero;"/><path d="M38.281,441.323c0,-3.258 -1.301,-4.568 -4.559,-4.568c-3.257,0 -4.562,1.311 -4.562,4.568c0,3.257 1.304,5.204 4.562,5.204c3.258,0 4.559,-1.947 4.559,-5.204Z" style="fill:#333;fill-rule:nonzero;"/><path d="M136.659,36.077l-1.953,-3.258l-3.258,-1.298c-1.304,0 -1.956,0 -3.257,1.298l-1.304,3.258c0,2.608 1.304,4.568 4.562,4.568c3.257,0 5.21,-1.959 5.21,-4.568Z" style="fill:#333;fill-rule:nonzero;"/><path d="M110.599,47.809l-1.301,-3.257l-3.91,-1.959c-2.605,0 -4.562,1.959 -4.562,5.217c0,2.609 1.957,3.907 4.562,3.907c3.258,-0.001 5.211,-1.299 5.211,-3.908Z" style="fill:#333;fill-rule:nonzero;"/><path d="M186.174,32.17c0,-3.257 -1.304,-5.21 -3.909,-5.21c-1.953,0 -2.605,1.304 -3.257,1.953c-1.301,0.649 -1.953,1.959 -1.953,3.257l1.953,3.258l3.257,1.304c2.605,0 3.909,-1.304 3.909,-4.562Z" style="fill:#333;fill-rule:nonzero;"/><path d="M163.372,47.809c0,-3.257 -1.304,-5.217 -3.91,-5.217c-1.953,0 -2.605,0.655 -3.257,1.959c-1.301,0.649 -1.953,1.298 -1.953,3.257c0,2.609 1.953,3.907 5.21,3.907c2.605,0.001 3.91,-1.297 3.91,-3.906Z" style="fill:#333;fill-rule:nonzero;"/><path d="M44.147,32.17l-1.304,-3.257c-0.652,-0.649 -2.605,-1.953 -3.91,-1.953c-0.652,0 -1.953,1.304 -3.258,1.953c-0.652,0.649 -1.301,1.959 -1.301,3.257l1.301,3.258c1.305,1.304 2.605,1.304 3.258,1.304l3.91,-1.304l1.304,-3.258Z" style="fill:#333;fill-rule:nonzero;"/><path d="M38.281,58.88c0,-3.258 -1.301,-4.556 -4.559,-4.556c-3.257,0 -4.562,1.298 -4.562,4.556c0,2.608 1.304,4.568 4.562,4.568c3.258,0 4.559,-1.96 4.559,-4.568Z" style="fill:#333;fill-rule:nonzero;"/><path d="M38.281,131.201c0,-3.258 -1.301,-5.211 -4.559,-5.211c-3.257,0 -4.562,1.953 -4.562,5.211c0,3.257 1.304,4.562 4.562,4.562c3.258,0 4.559,-1.305 4.559,-4.562Z" style="fill:#333;fill-rule:nonzero;"/><path d="M36.98,178.111c0,-3.257 -1.305,-5.217 -4.562,-5.217c-3.257,0 -4.559,1.96 -4.559,5.217c0,2.609 1.301,3.907 4.559,3.907c3.258,0 4.562,-1.298 4.562,-3.907Z" style="fill:#333;fill-rule:nonzero;"/><path d="M43.495,198.305l-1.304,-3.258l-3.91,-1.298c-1.301,0 -2.605,0.649 -3.257,1.298l-1.301,3.258c0,3.257 1.301,4.562 4.559,4.562c3.257,0 5.213,-1.304 5.213,-4.562Z" style="fill:#333;fill-rule:nonzero;"/><path d="M72.813,261.503c0,-3.258 -1.956,-5.211 -4.562,-5.211c-3.258,0 -5.211,1.953 -5.211,5.211c0,3.257 1.953,4.562 5.211,4.562c2.605,-0.001 4.562,-1.305 4.562,-4.562Z" style="fill:#333;fill-rule:nonzero;"/><path d="M42.19,376.172c0,-3.258 -1.953,-4.568 -5.21,-4.568c-1.305,0 -1.957,0.655 -3.258,1.311c-0.652,0.649 -1.304,1.947 -1.304,3.258c0,2.603 1.304,4.556 4.562,4.556c3.257,-0.001 5.21,-1.955 5.21,-4.557Z" style="fill:#333;fill-rule:nonzero;"/><path d="M35.675,395.062c0,-3.257 -1.953,-5.21 -4.559,-5.21c-1.304,0 -1.956,1.298 -3.257,1.953l-1.957,3.257l1.957,3.258c1.301,1.305 1.953,1.305 3.257,1.305c2.606,-0.001 4.559,-1.306 4.559,-4.563Z" style="fill:#333;fill-rule:nonzero;"/><path d="M36.328,484.319c0,-2.608 -1.304,-4.562 -4.562,-4.562c-3.257,0 -4.559,1.953 -4.559,4.562l1.301,3.907c0.652,1.304 1.957,1.304 3.257,1.304c3.258,0 4.563,-1.953 4.563,-5.211Z" style="fill:#333;fill-rule:nonzero;"/><path d="M43.495,546.213l-1.304,-3.258l-3.91,-1.304c-1.301,0 -2.605,0.655 -3.257,1.304l-1.301,3.258c0,3.258 1.301,4.556 4.559,4.556c3.257,0 5.213,-1.298 5.213,-4.556Z" style="fill:#333;fill-rule:nonzero;"/><path d="M61.083,529.926c0,-2.609 -1.301,-3.907 -4.559,-3.907c-3.257,0 -4.562,1.298 -4.562,3.907c0,3.257 1.304,5.21 4.562,5.21c3.259,0 4.559,-1.953 4.559,-5.21Z" style="fill:#333;fill-rule:nonzero;"/><path d="M34.375,516.896c0,-3.258 -1.957,-4.563 -4.562,-4.563c-3.257,0 -4.562,1.305 -4.562,4.563l1.305,3.257c1.304,1.299 1.953,1.299 3.257,1.299c2.605,-0.001 4.562,-1.3 4.562,-4.556Z" style="fill:#333;fill-rule:nonzero;"/><path d="M66.298,557.283l-1.305,-3.257c-1.301,-1.298 -2.605,-1.947 -3.91,-1.947c-2.605,0 -4.559,1.947 -4.559,5.204c0,3.258 1.954,4.568 4.559,4.568l3.91,-1.311l1.305,-3.257Z" style="fill:#333;fill-rule:nonzero;"/><path d="M131.448,552.729c0,-2.609 -1.304,-3.907 -4.562,-3.907c-3.258,0 -5.211,1.298 -5.211,3.907c0,3.257 1.953,5.211 5.211,5.211c3.258,-0.001 4.562,-1.955 4.562,-5.211Z" style="fill:#333;fill-rule:nonzero;"/><path d="M100.826,557.283l-0.652,-3.257c-1.301,-1.298 -2.605,-1.947 -3.907,-1.947c-1.304,0 -1.957,0.649 -3.257,1.947l-1.957,3.257l1.957,3.258c1.301,1.311 1.953,1.311 3.257,1.311l3.907,-1.311l0.652,-3.258Z" style="fill:#333;fill-rule:nonzero;"/><path d="M149.689,557.283c0,-3.257 -1.953,-5.204 -4.559,-5.204c-1.304,0 -1.957,0.649 -3.258,1.947l-1.304,3.257l1.304,3.258c1.301,1.311 1.954,1.311 3.258,1.311c2.606,0 4.559,-1.311 4.559,-4.569Z" style="fill:#333;fill-rule:nonzero;"/><path d="M182.265,560.541l-1.301,-3.258l-3.91,-1.946c-0.652,0 -1.957,0.648 -3.258,1.946c-0.652,1.312 -1.304,1.96 -1.304,3.258l1.304,3.258l3.258,1.311l3.91,-1.311l1.301,-3.258Z" style="fill:#333;fill-rule:nonzero;"/><path d="M215.492,28.913c0,-3.258 -1.953,-4.556 -5.211,-4.556c-2.608,0 -4.562,1.298 -4.562,4.556c0,3.257 1.953,4.562 4.562,4.562c3.258,0 5.211,-1.305 5.211,-4.562Z" style="fill:#333;fill-rule:nonzero;"/><path d="M152.947,30.217c0,-3.257 -1.953,-4.562 -5.21,-4.562c-3.258,0 -4.562,1.305 -4.562,4.562l1.304,3.257l3.258,1.305c3.257,0 5.21,-1.304 5.21,-4.562Z" style="fill:#333;fill-rule:nonzero;"/><path d="M63.04,31.521c0,-3.257 -1.304,-5.217 -4.562,-5.217c-1.301,0 -1.954,0.656 -3.258,1.96l-1.953,3.257c0,3.258 1.953,4.556 5.211,4.556c3.258,0 4.562,-1.298 4.562,-4.556Z" style="fill:#333;fill-rule:nonzero;"/><path d="M254.583,32.819l-1.305,-3.257c-1.301,-0.649 -2.605,-1.298 -3.906,-1.298c-1.305,0 -1.956,0.649 -3.258,1.298l-1.304,3.257l1.304,3.913c1.302,1.304 1.953,1.304 3.258,1.304c1.301,0 2.605,0 3.906,-1.304l1.305,-3.913Z" style="fill:#333;fill-rule:nonzero;"/><path d="M231.78,36.077c0,-3.258 -1.305,-4.556 -3.91,-4.556c-1.953,0 -2.605,0 -3.257,1.298c-1.302,0.655 -1.954,1.96 -1.954,3.258c0,2.608 1.954,4.568 5.211,4.568c2.606,0 3.91,-1.959 3.91,-4.568Z" style="fill:#333;fill-rule:nonzero;"/><path d="M336.021,32.17c0,-3.257 -1.953,-5.21 -4.562,-5.21c-1.953,0 -2.605,1.304 -3.258,1.953c-1.301,0.649 -1.953,1.959 -1.953,3.257l1.953,3.258l3.258,1.304c2.609,0 4.562,-1.304 4.562,-4.562Z" style="fill:#333;fill-rule:nonzero;"/><path d="M313.219,36.077c0,-3.258 -1.953,-4.556 -4.562,-4.556c-1.954,0 -2.605,0 -3.258,1.298c-1.301,0.655 -1.953,1.96 -1.953,3.258c0,2.608 1.953,4.568 5.211,4.568c2.609,0 4.562,-1.959 4.562,-4.568Z" style="fill:#333;fill-rule:nonzero;"/><path d="M281.295,28.264c0,-3.258 -1.304,-4.562 -3.909,-4.562c-3.258,0 -5.211,1.304 -5.211,4.562c0,3.257 1.953,4.555 5.211,4.555c2.605,0 3.909,-1.298 3.909,-4.555Z" style="fill:#333;fill-rule:nonzero;"/><path d="M263.051,44.552c-1.953,0 -2.604,0.649 -3.257,1.298c-1.302,1.311 -1.953,1.959 -1.953,3.258c0,3.257 1.953,5.217 5.21,5.217c2.609,0 4.563,-1.959 4.563,-5.217c-0.001,-3.258 -1.954,-4.556 -4.563,-4.556Z" style="fill:#333;fill-rule:nonzero;"/><path d="M93.659,32.17c0,-3.257 -1.953,-5.21 -4.559,-5.21c-1.304,0 -2.605,1.304 -3.258,1.953c-1.304,0.649 -1.957,1.959 -1.957,3.257l1.957,3.258c0.652,1.304 1.954,1.304 3.258,1.304c2.606,0 4.559,-1.304 4.559,-4.562Z" style="fill:#333;fill-rule:nonzero;"/><path d="M130.144,56.277c0,-3.257 -1.301,-5.21 -3.91,-5.21c-3.257,0 -5.21,1.953 -5.21,5.21c0,3.258 1.953,4.562 5.21,4.562c2.609,0 3.91,-1.304 3.91,-4.562Z" style="fill:#333;fill-rule:nonzero;"/><path d="M69.555,72.565c0,-1.304 -1.304,-1.954 -3.257,-1.304c-1.305,0 -1.957,1.304 -1.957,2.608c7.167,28.014 16.94,56.027 28.669,85.345c24.104,57.986 50.164,99.03 77.529,121.833l34.528,26.061c38.438,28.662 65.804,53.425 84.696,75.579c30.622,35.832 57.983,84.04 80.786,142.021c0,1.311 1.305,1.96 3.258,1.311c1.305,0 1.305,-1.311 1.305,-3.257c-22.803,-59.291 -49.516,-106.851 -81.438,-143.987c-18.894,-21.499 -46.91,-46.261 -85.349,-75.579l-34.529,-26.709c-26.712,-22.154 -52.772,-62.542 -76.228,-121.178c-12.377,-29.319 -21.498,-56.684 -28.013,-82.744Z" style="fill-rule:nonzero;"/><path d="M63.04,47.809c-3.257,0.649 -5.863,1.954 -6.515,3.258c-1.957,3.257 -1.957,7.813 -0.652,14.328c0.652,5.866 3.91,11.083 8.468,14.99l5.214,3.906l4.559,-5.866c1.957,-5.204 3.258,-11.07 1.957,-16.937c-1.304,-6.515 -3.258,-10.421 -5.214,-13.03l-7.817,-0.649Z" style="fill:#d96038;fill-rule:nonzero;"/><path d="M78.676,60.839c-1.304,-6.515 -3.258,-11.732 -5.863,-14.334c-2.605,-1.304 -6.515,-1.953 -10.424,-1.304c-3.909,0.649 -6.515,2.608 -7.82,4.562c-2.605,3.257 -2.605,8.468 -1.301,16.288c1.953,10.428 7.167,17.592 15.635,20.85l2.605,-0.649l4.562,-7.17c3.258,-5.212 3.91,-11.728 2.606,-18.243Zm-4.562,6.515c0,5.211 -1.953,9.772 -4.559,13.679c-6.515,-3.258 -9.772,-8.468 -11.077,-16.288l-0.652,-7.164c0,-1.96 0,-3.907 0.652,-5.217c1.304,-0.649 2.605,-1.298 4.562,-1.947l6.515,0.649c1.301,1.298 3.257,5.21 3.91,11.07l0.649,5.218Z" style="fill-rule:nonzero;"/><path d="M94.311,103.188c-1.301,0 -2.605,0 -3.257,1.953l-8.468,22.803c-0.652,1.304 0,3.258 1.301,3.258c1.957,0.655 3.258,0 3.258,-1.304l8.472,-23.452c1.3,-1.305 0.651,-2.61 -1.306,-3.258Z" style="fill-rule:nonzero;"/><path d="M113.204,76.478c-0.649,-2.608 -2.605,-3.913 -5.863,-5.217l-7.816,-0.649c-2.609,1.954 -5.214,5.211 -7.819,11.726c-2.605,5.211 -2.605,11.077 -0.652,16.943l2.605,6.515l7.167,-2.608c4.562,-3.258 7.819,-7.819 9.773,-13.03c3.257,-6.516 3.257,-11.077 2.605,-13.68Z" style="fill:#d96038;fill-rule:nonzero;"/><path d="M115.813,75.823c-0.652,-3.257 -3.91,-5.211 -7.167,-6.515l-9.772,-0.655c-3.257,1.959 -6.515,5.866 -9.772,12.381c-1.957,6.515 -2.605,12.381 -1.304,18.896l3.257,7.164c1.304,1.305 1.957,1.305 3.257,1.305c8.472,-1.954 14.987,-7.17 19.545,-17.592c2.605,-6.516 3.257,-11.726 1.956,-14.984Zm-9.124,-1.953c3.257,1.298 4.562,3.257 4.562,5.211l-2.605,9.772c-3.257,7.819 -7.819,11.726 -13.682,14.334c-1.304,-3.907 -2.605,-7.164 -2.605,-10.422c0,-2.608 0.652,-5.866 1.953,-9.124c2.605,-5.866 4.562,-9.772 6.515,-10.421l5.862,0.65Z" style="fill-rule:nonzero;"/><path d="M110.599,140.318c-1.954,-1.298 -3.258,-0.649 -3.91,1.311l-11.074,22.147c-0.652,1.304 0,3.258 1.301,3.258c1.957,1.304 2.609,0.655 3.91,-1.305l10.425,-21.498c0.652,-1.953 0.652,-3.257 -0.652,-3.913Z" style="fill-rule:nonzero;"/><path d="M131.448,114.913c-0.652,-1.953 -2.605,-3.257 -5.214,-5.21c-3.257,-1.304 -5.863,-1.959 -7.816,-1.304c-3.258,1.304 -5.863,4.562 -8.472,11.077c-3.257,5.211 -4.559,11.071 -3.257,16.288c0.652,3.258 1.304,5.211 1.956,7.164l7.816,-1.953c5.214,-2.602 8.472,-6.515 11.729,-12.375c2.606,-5.867 3.911,-10.429 3.258,-13.687Z" style="fill:#d96038;fill-rule:nonzero;"/><path d="M134.054,114.913c-0.652,-3.257 -2.605,-5.21 -7.167,-7.819l-9.772,-0.649c-3.258,1.954 -6.515,5.211 -9.773,11.726c-3.257,5.86 -3.91,11.726 -3.257,17.592l2.605,8.469c0.652,1.304 1.956,1.304 2.608,1.304l7.816,-2.609c5.863,-2.608 9.772,-7.164 13.03,-13.03c3.258,-6.515 4.562,-11.726 3.91,-14.984Zm-22.151,5.211c2.605,-5.211 5.211,-8.468 7.167,-9.124l5.863,0.655l4.559,5.211l-3.907,10.421c-3.257,6.515 -8.471,10.428 -14.986,12.381l-1.954,-7.813c0.001,-3.912 1.302,-7.824 3.258,-11.731Z" style="fill-rule:nonzero;"/><path d="M126.887,182.018c-0.652,-0.649 -1.953,0 -3.258,1.959l-7.167,23.452c0,1.953 0,3.258 1.957,3.258c1.301,0 2.605,0 3.257,-1.305l7.167,-24.107c1.301,-1.298 0.649,-2.608 -1.956,-3.257Z" style="fill-rule:nonzero;"/><path d="M144.479,154.004c-0.652,-1.953 -2.605,-3.258 -5.863,-4.562c-3.257,-0.649 -5.866,-0.649 -7.167,0c-3.257,1.304 -5.214,5.866 -7.819,11.732c-1.953,5.86 -1.953,11.07 0,16.937l3.258,6.515l6.515,-3.257c4.562,-3.258 7.819,-7.819 9.772,-13.03c2.605,-6.516 2.605,-11.078 1.304,-14.335Z" style="fill:#d96038;fill-rule:nonzero;"/><path d="M147.084,154.004c-0.652,-3.258 -3.257,-5.211 -7.167,-6.515l-0.652,0l-9.772,0c-3.258,1.304 -5.863,6.515 -8.468,13.03c-2.605,6.515 -2.605,12.375 -0.652,18.241l4.562,7.819l1.953,0.655c9.121,-2.608 15.636,-8.475 18.893,-18.247c1.955,-7.164 3.256,-11.726 1.303,-14.983Zm-9.772,-1.953c3.91,1.298 5.863,3.257 5.863,5.866l-2.605,9.118c-2.605,7.17 -7.167,11.726 -13.03,14.334c-1.953,-3.258 -2.605,-7.164 -2.605,-11.077c0,-3.257 0,-5.86 1.301,-8.468c1.957,-5.217 3.91,-9.124 5.866,-9.772l5.21,0l0,-0.001Z" style="fill-rule:nonzero;"/><path d="M149.037,219.81c-1.953,-0.655 -3.257,0.649 -3.257,1.947l-5.211,24.113c-0.652,1.298 0,2.603 1.954,3.258l2.608,-1.959l5.211,-24.101c0.652,-1.96 0,-2.609 -1.305,-3.258Z" style="fill-rule:nonzero;"/><path d="M163.372,190.492c-0.652,-1.959 -3.257,-3.258 -6.515,-3.913l-7.819,0c-1.953,1.954 -4.559,6.515 -5.863,13.03c-1.953,5.86 -1.301,11.077 0.652,16.288l3.91,6.515l6.515,-3.257c4.559,-3.913 7.816,-8.468 9.12,-14.983c1.304,-6.516 1.953,-11.078 0,-13.68Z" style="fill:#da8e55;fill-rule:nonzero;"/><path d="M165.977,189.837c-1.953,-3.258 -3.91,-5.211 -8.468,-6.515l-9.772,1.304c-3.258,2.608 -5.214,7.164 -7.167,14.328c-1.304,6.515 -0.652,12.381 1.304,18.247c1.301,3.258 2.605,5.211 4.559,7.164l2.605,0.649l7.167,-4.556c4.562,-3.907 7.819,-9.124 9.772,-15.639c1.304,-7.163 1.304,-11.725 0,-14.982Zm-20.197,9.772c1.304,-5.211 3.257,-8.468 4.562,-10.428l5.863,-0.649l3.91,1.959l1.953,5.205l-1.301,7.826c-1.957,7.813 -5.863,13.03 -11.729,15.632c-2.605,-3.258 -4.559,-7.819 -4.559,-13.03l1.301,-6.515Z" style="fill-rule:nonzero;"/><path d="M70.856,120.773l-3.258,0.655c-1.301,1.305 -1.301,1.954 0,3.258l18.244,16.288l4.559,0c0.652,-1.953 0.652,-3.257 -0.649,-4.562l-18.896,-15.639Z" style="fill-rule:nonzero;"/><path d="M48.054,94.064l-6.515,3.906c-2.605,2.609 -3.258,5.217 -3.258,7.17c0.652,3.258 3.258,7.17 8.472,11.077c4.559,4.555 9.772,6.515 14.983,7.164l7.819,-0.649l-0.652,-7.164c-1.304,-5.866 -3.91,-10.428 -9.12,-14.99c-4.562,-3.906 -8.472,-6.514 -11.729,-6.514Z" style="fill:#d96038;fill-rule:nonzero;"/><path d="M48.706,92.11c-3.257,-0.655 -6.515,1.305 -9.121,4.562c-2.605,3.257 -3.91,6.515 -3.91,9.124c0.652,3.907 3.258,7.813 9.121,12.375c5.214,4.562 10.425,7.17 16.94,7.819l7.819,-0.649l1.953,-1.959l0,-8.469c-1.301,-6.515 -4.559,-11.726 -9.772,-16.288c-5.211,-4.561 -9.773,-6.515 -13.03,-6.515Zm-5.211,7.82c1.954,-1.959 3.258,-3.257 4.559,-3.257c1.956,0 5.866,1.953 10.425,6.515c5.863,4.556 7.819,10.421 7.819,16.937c-5.863,1.304 -11.729,-0.649 -18.244,-5.211c-4.559,-5.21 -7.164,-8.468 -7.164,-10.428c0,-1.298 1.3,-2.603 2.605,-4.556Z" style="fill-rule:nonzero;"/><path d="M81.281,161.174c-1.301,-0.655 -1.954,-0.655 -3.258,1.298c-0.652,1.304 -0.652,2.608 1.304,3.257l22.151,11.077c1.304,0.655 2.605,0 3.257,-1.304c0.652,-1.953 0.652,-2.609 -0.652,-3.258l-22.802,-11.07Z" style="fill-rule:nonzero;"/><path d="M52.615,141.629c-2.605,0.649 -3.91,2.603 -5.863,5.205c-1.304,2.608 -1.304,5.217 -0.652,7.17c0.652,3.257 4.562,6.515 10.425,9.117l24.104,0.655l-2.605,-6.515c-1.953,-5.21 -6.515,-9.772 -11.726,-12.375c-6.515,-2.608 -11.077,-3.912 -13.683,-3.257Z" style="fill:#d96038;fill-rule:nonzero;"/><path d="M67.599,142.278c-6.515,-3.257 -11.726,-4.562 -15.635,-3.257c-2.605,0 -5.211,2.608 -7.167,6.515c-1.953,3.906 -2.605,7.164 -1.301,9.772c1.954,3.907 5.211,7.164 11.726,10.421c6.515,2.609 12.378,3.907 18.893,2.609l7.167,-2.609l1.304,-1.953c-0.653,-9.772 -5.863,-16.287 -14.987,-21.498Zm-14.331,1.953c1.953,-1.305 6.515,0 11.726,3.257c6.515,3.257 10.425,7.819 12.378,14.334l-19.545,-1.304c-6.515,-3.258 -9.772,-6.515 -9.772,-8.468l1.304,-3.907c1.303,-2.607 2.604,-3.912 3.909,-3.912Z" style="fill-rule:nonzero;"/><path d="M90.401,197.007c-1.301,0 -2.605,0.649 -2.605,2.602c0,1.304 0,2.602 1.956,2.602l24.756,1.96l2.605,-2.609c0,-1.298 -0.652,-1.953 -1.954,-1.953l-24.758,-2.602Z" style="fill-rule:nonzero;"/><path d="M56.525,188.533c-1.304,1.304 -3.257,3.257 -3.257,7.164c0,3.913 0,5.866 1.953,7.17c1.304,2.602 5.863,4.562 13.03,4.562c9.772,1.298 16.94,-1.304 22.15,-7.819l-4.559,-5.211c-4.562,-4.562 -9.772,-6.515 -15.635,-7.164l-13.682,1.298Z" style="fill:#d96038;fill-rule:nonzero;"/><path d="M92.358,200.914l0,-2.608c-3.91,-8.468 -11.077,-13.03 -21.501,-13.679c-7.816,-0.649 -12.378,0 -15.636,1.953c-2.605,1.304 -3.91,4.562 -4.559,8.468c-0.652,4.562 0.649,7.82 2.605,9.773c1.953,3.257 7.167,4.562 14.331,5.866c7.167,0 13.03,-1.305 18.244,-4.562l6.516,-5.211Zm-22.803,-11.077c8.468,1.304 13.682,3.913 17.589,9.772c-4.559,4.562 -11.074,6.515 -18.893,5.211c-8.468,-0.649 -13.03,-3.258 -13.03,-7.164l0.652,-1.304c0.652,-3.258 0.652,-4.562 2.605,-5.211l11.077,-1.304Z" style="fill-rule:nonzero;"/><path d="M115.161,236.747c-1.957,-0.649 -3.257,0 -3.257,1.953c0,1.305 0.652,2.603 1.953,3.258l24.759,3.257c1.953,0.655 2.605,0 2.605,-1.953c0.652,-1.304 0,-2.608 -1.304,-3.257l-24.756,-3.258Z" style="fill-rule:nonzero;"/><path d="M81.281,225.67c-1.301,1.304 -2.605,3.257 -3.258,6.515c-0.652,3.257 0,5.859 1.304,7.819c1.954,1.953 5.863,3.906 13.03,5.21l16.288,-1.953l5.863,-4.562l-3.91,-5.21c-3.91,-4.562 -8.469,-7.819 -14.983,-8.475l-14.334,0.656Z" style="fill:#d96038;fill-rule:nonzero;"/><path d="M80.629,223.716c-2.605,1.298 -4.559,3.907 -5.211,8.469c-0.652,3.913 0,7.819 1.954,9.772c1.956,2.602 7.167,4.562 13.682,5.86c7.167,1.311 13.03,0.655 18.893,-2.603l6.515,-4.562l0.652,-2.609c-3.258,-8.462 -10.425,-13.679 -20.847,-15.632l-15.638,1.305Zm0,9.124c0.652,-2.609 1.304,-3.913 2.608,-5.217l12.378,0c7.167,1.304 13.03,4.562 16.288,11.077c-5.214,3.913 -11.729,5.211 -19.545,4.562c-7.819,-1.959 -11.729,-4.562 -11.729,-7.819l0,-2.603Z" style="fill-rule:nonzero;"/><path d="M181.613,219.155l-8.468,7.17c-5.863,6.515 -7.819,13.679 -8.468,20.194c0,7.813 2.605,14.328 8.468,19.545l7.819,6.516l8.468,-6.516c5.211,-5.217 7.819,-11.077 7.819,-18.896c0,-7.164 -2.608,-14.328 -7.819,-20.843l-7.819,-7.17Z" style="fill:#858585;fill-rule:nonzero;"/><path d="M182.917,217.201c-1.304,-1.304 -2.605,-1.304 -3.257,0l-9.121,7.813c-5.214,7.17 -7.819,13.685 -8.472,21.505c0,8.468 3.258,14.983 8.472,21.498c2.605,3.258 5.863,5.211 9.121,6.516c0.652,1.304 1.953,1.304 2.605,0l9.121,-6.516c5.214,-6.515 8.471,-13.03 8.471,-20.849c0,-7.813 -3.257,-14.983 -8.471,-21.499l-8.469,-8.468Zm11.726,29.967c0,9.772 -4.559,17.592 -13.679,22.154c-9.124,-4.562 -13.683,-12.381 -13.683,-22.154l0,-0.649c0,-9.773 5.211,-17.592 14.332,-24.107c8.471,7.17 13.03,14.983 13.03,24.107l0,0.649Z" style="fill-rule:nonzero;"/><path d="M183.569,272.58c0,-1.305 -0.652,-2.609 -3.258,-2.609c-1.304,0 -1.957,1.305 -1.957,2.609l0.652,13.029c0,1.953 0.652,2.609 2.605,2.609c1.304,0 1.957,-0.656 1.957,-2.609l0,-13.029l0.001,0Z" style="fill-rule:nonzero;"/><path d="M91.054,279.095l7.819,7.813c6.515,4.568 14.331,7.17 21.499,6.515c7.167,-1.298 13.03,-4.556 18.244,-10.422l5.211,-8.468l-6.515,-7.171c-5.863,-4.555 -12.378,-7.164 -20.197,-6.515c-7.167,0.656 -13.683,3.913 -19.545,9.773c-3.259,2.609 -5.212,5.866 -6.516,8.475Z" style="fill:#858585;fill-rule:nonzero;"/><path d="M117.114,258.245c-7.816,0.655 -14.984,4.562 -21.499,10.429c-3.258,2.602 -5.214,5.859 -7.167,9.117l0.652,3.257c0.652,1.953 3.91,4.562 8.468,7.819c7.819,5.211 14.986,7.813 22.803,6.516c7.819,-0.649 14.334,-3.906 20.197,-9.773l6.515,-9.772l-0.652,-2.608l-7.816,-8.468c-6.514,-5.213 -13.681,-7.172 -21.501,-6.517Zm3.258,32.575c-9.772,0.656 -18.893,-3.258 -26.061,-11.726c6.515,-9.772 14.334,-14.99 22.803,-15.639c9.772,-0.649 17.592,2.608 24.107,11.077l-5.863,8.468c-3.91,4.563 -9.124,7.165 -14.986,7.82Z" style="fill-rule:nonzero;"/><path d="M167.281,271.931c0,-1.96 -0.652,-2.608 -3.257,-2.608l-20.197,3.258c-1.304,0 -2.605,0.648 -2.605,2.607c0.652,1.299 1.953,2.604 3.257,1.947l20.847,-2.602c1.303,0 1.955,-1.304 1.955,-2.602Z" style="fill-rule:nonzero;"/><path d="M224.613,235.442l-9.121,6.515c-6.515,6.515 -9.772,13.03 -10.425,20.201c-0.652,7.164 0.652,13.679 5.863,20.193l7.819,6.516l8.469,-4.562c5.865,-5.211 9.123,-11.726 10.424,-18.89c0.652,-7.17 -1.301,-14.341 -5.862,-21.505l-7.167,-8.468Z" style="fill:#858585;fill-rule:nonzero;"/><path d="M225.917,233.489l-3.258,0l-9.772,7.164c-5.862,6.515 -9.772,13.03 -10.425,20.85c-0.651,7.819 1.305,14.983 6.516,22.147l8.468,7.826l1.957,0c3.257,-0.656 6.515,-3.258 9.772,-5.867c5.863,-5.865 9.772,-12.381 11.073,-19.545c0.652,-7.819 -1.301,-15.639 -5.862,-22.803l-8.469,-9.772Zm9.121,29.318l0,2.608c-0.652,5.86 -3.258,10.421 -7.168,14.977l-9.12,5.866c-7.167,-5.211 -11.077,-12.382 -11.077,-21.499l0,-2.602c1.305,-9.124 6.516,-16.288 16.288,-23.458c7.819,7.821 11.077,15.634 11.077,24.108Z" style="fill-rule:nonzero;"/><path d="M218.75,286.259c-1.953,0 -3.258,1.304 -3.258,2.608l-0.652,20.844c0,1.311 0.652,2.608 2.605,2.608c1.305,0.648 2.609,-0.649 2.609,-1.953l1.301,-20.851c0,-1.952 -0.652,-2.607 -2.605,-3.256Z" style="fill-rule:nonzero;"/><path d="M134.706,316.881l9.121,5.859c7.167,3.913 14.983,4.568 22.15,3.258c7.167,-1.946 12.378,-5.859 16.94,-13.03l3.257,-9.117l-7.167,-6.515c-7.167,-3.913 -13.682,-5.211 -21.499,-3.258c-6.515,1.305 -13.03,5.859 -17.592,13.03c-2.604,3.258 -4.558,6.515 -5.21,9.773Z" style="fill:#858585;fill-rule:nonzero;"/><path d="M132.101,316.226l0.649,1.96l10.425,7.164c7.819,3.906 15.636,4.562 23.455,2.608c7.167,-1.96 13.03,-6.516 18.241,-13.68c2.608,-3.912 4.562,-7.825 4.562,-10.428l-0.651,-1.953l-9.121,-7.164c-7.167,-3.913 -14.983,-5.218 -22.803,-3.257c-7.167,1.946 -13.682,6.515 -18.893,13.679c-2.607,3.257 -4.563,7.164 -5.864,11.071Zm26.709,-19.545c9.772,-2.603 17.592,0.655 24.759,7.825c-3.258,9.772 -9.121,16.288 -18.244,18.89c-9.121,1.954 -18.241,-0.655 -28.014,-7.17c5.211,-11.071 12.378,-17.586 21.499,-19.545Z" style="fill-rule:nonzero;"/><path d="M201.811,299.289c0,-1.953 -1.954,-1.953 -3.258,-1.953l-12.379,3.912c-1.953,0 -2.604,1.947 -1.953,3.258c0.649,1.947 1.953,1.947 3.257,1.947l12.378,-3.906c1.955,-1.299 2.606,-1.954 1.955,-3.258Z" style="fill-rule:nonzero;"/><path d="M225.265,338.38l-7.167,-7.164c-6.515,-4.563 -13.03,-6.516 -20.197,-4.563c-7.816,0.655 -13.679,4.563 -18.893,11.077c-3.257,2.608 -5.211,5.866 -6.515,9.124l9.121,6.515c7.167,4.556 14.334,5.859 20.849,5.204c7.168,-1.298 13.03,-5.204 18.241,-11.07l4.561,-9.123Z" style="fill:#858585;fill-rule:nonzero;"/><path d="M227.87,336.426c-2.605,-2.602 -5.211,-5.21 -8.468,-7.17c-7.167,-5.204 -14.335,-6.516 -22.151,-5.86c-7.819,1.305 -14.334,5.86 -20.197,12.375c-3.258,3.258 -5.214,6.516 -7.167,9.772c0,0.656 0,1.96 0.652,3.258l9.772,7.171c7.816,4.562 15.636,6.515 22.803,4.562c7.816,-1.305 14.331,-4.562 18.894,-11.077l5.862,-10.428l0,-2.603Zm-5.211,2.602c-3.909,9.772 -10.424,14.99 -20.197,16.943c-9.772,1.304 -18.893,-1.953 -26.712,-9.772c5.863,-9.773 13.03,-15.633 22.803,-16.943c9.12,-1.947 16.939,1.31 24.106,9.772Z" style="fill-rule:nonzero;"/><path d="M246.764,333.824c-0.649,-1.311 -1.953,-2.608 -3.258,-1.96l-18.241,3.906c-1.953,0.655 -2.605,1.311 -2.605,3.258c0.652,1.311 1.954,1.96 3.258,1.311l18.894,-3.913c1.302,0 1.952,-0.655 1.952,-2.602Z" style="fill-rule:nonzero;"/><path d="M214.84,380.078l7.819,7.813c6.516,4.568 13.683,7.17 21.499,7.17c7.167,0 13.03,-3.257 18.893,-9.117l5.215,-7.825l-6.516,-8.462c-5.214,-4.568 -11.729,-7.171 -19.545,-7.171c-7.167,0 -13.683,3.258 -20.197,9.117l-7.168,8.475Z" style="fill:#858585;fill-rule:nonzero;"/><path d="M212.235,378.774l0.651,2.602c0.652,1.96 3.258,4.568 9.121,8.476c6.515,5.21 13.682,8.468 22.15,7.813c7.167,0 14.334,-3.258 20.197,-9.117l6.516,-9.772l0,-2.603l-7.168,-8.475c-6.515,-5.211 -13.682,-8.469 -21.498,-7.813c-7.819,0 -14.986,3.258 -21.502,9.118l-8.467,9.771Zm29.97,-13.685c9.772,0 17.589,3.913 23.455,13.03c-5.214,9.123 -12.382,13.686 -22.154,14.341c-8.468,0 -17.589,-3.913 -25.408,-13.03c7.167,-9.124 15.635,-13.686 24.107,-14.341Z" style="fill-rule:nonzero;"/><path d="M287.158,372.914l-18.893,2.603c-1.305,0 -1.957,0.655 -1.957,2.603l2.608,1.959l18.894,-1.304c1.953,0 2.605,-1.305 2.605,-3.258l-3.257,-2.603Z" style="fill-rule:nonzero;"/><path d="M246.114,422.427l8.469,7.813c6.515,4.568 13.683,7.171 20.85,6.516c7.816,0 13.679,-3.258 18.893,-9.117l5.863,-9.118l-7.167,-7.17c-5.863,-5.211 -12.378,-7.171 -19.546,-6.515c-7.815,0 -14.331,3.257 -20.197,9.772c-3.258,2.601 -5.212,5.21 -7.165,7.819Z" style="fill:#858585;fill-rule:nonzero;"/><path d="M244.158,424.38l9.12,7.819c7.168,5.211 14.335,7.813 22.803,7.164c7.819,-0.649 14.335,-3.906 20.198,-10.422l5.862,-9.123l0,-2.609l-7.816,-8.462c-6.515,-4.568 -13.682,-7.17 -21.501,-7.17c-7.816,0.655 -14.983,3.913 -21.499,10.428c-3.258,2.603 -5.862,5.859 -7.167,9.117l0,3.258Zm14.334,5.859c-3.909,-2.602 -6.515,-5.204 -8.471,-7.813c5.865,-9.772 14.334,-14.335 23.454,-14.99c10.425,-1.298 17.593,3.258 23.455,11.083c-4.562,9.773 -12.378,14.978 -21.498,15.633c-5.866,0 -11.077,-0.655 -16.94,-3.913Z" style="fill-rule:nonzero;"/><path d="M321.038,415.911c0,-1.304 -1.305,-1.959 -2.608,-1.959l-18.894,1.959c-1.953,0 -2.605,1.298 -2.605,3.258l3.258,1.953l18.894,-2.603c1.303,0.001 2.604,-0.655 1.955,-2.608Z" style="fill-rule:nonzero;"/><path d="M355.566,382.031c-3.257,0.656 -6.515,2.603 -9.772,5.211c-6.515,5.218 -10.425,11.077 -12.378,18.248c-1.305,7.164 -0.652,13.679 3.258,20.843l6.515,7.819l9.772,-3.913c6.516,-4.556 10.425,-10.421 12.378,-17.585c1.305,-7.164 0,-14.335 -3.257,-21.505l-6.516,-9.118Z" style="fill:#858585;fill-rule:nonzero;"/><path d="M357.52,380.078c-0.648,-1.304 -1.953,-1.304 -3.257,-0.648c-1.953,0 -5.211,1.946 -9.772,5.859c-7.164,5.86 -11.727,12.375 -13.03,19.546c-1.953,7.819 -1.302,15.632 3.257,22.803l7.168,8.468l2.605,0.649c3.257,-1.298 6.515,-2.603 9.772,-5.205c7.167,-3.912 11.729,-10.428 13.03,-18.247c1.956,-7.813 1.304,-14.983 -3.258,-23.451l-6.515,-9.774Zm5.866,26.061l-0.651,5.866c-1.957,9.772 -8.472,16.288 -18.244,18.89c-5.863,-5.859 -9.121,-12.375 -9.121,-19.545l0.652,-5.211c2.605,-9.772 8.469,-16.287 18.893,-20.85c5.862,6.516 8.471,13.686 8.471,20.85Z" style="fill-rule:nonzero;"/><path d="M344.49,431.55c-1.954,-0.655 -3.258,0 -3.258,1.947l-3.258,18.247c-0.648,1.953 0,3.258 1.956,3.258l2.605,-1.96l3.258,-18.89c0.653,-1.304 0.001,-2.602 -1.303,-2.602Z" style="fill-rule:nonzero;"/><path d="M287.811,460.213c4.559,7.17 9.12,12.375 16.288,14.334c6.515,3.258 13.682,2.609 21.498,0l8.472,-5.217l-2.608,-9.772c-3.258,-6.516 -8.469,-11.72 -14.983,-14.978c-7.168,-2.608 -14.335,-2.608 -22.803,0l-9.773,5.205l3.909,10.428Z" style="fill:#858585;fill-rule:nonzero;"/><path d="M281.295,450.44l4.56,11.076c4.562,7.813 10.425,13.03 17.592,15.64c7.167,3.257 14.983,2.602 22.803,0c3.258,-1.312 6.515,-3.913 9.772,-5.866l0.652,-1.96c-0.652,-3.906 -1.305,-7.813 -3.258,-11.07c-3.909,-7.819 -8.472,-13.03 -16.288,-16.288c-7.167,-2.608 -14.986,-2.608 -23.454,0c-5.863,1.953 -9.773,3.906 -11.077,5.211c-1.302,0.655 -1.302,1.953 -1.302,3.257Zm33.877,-3.257c5.214,2.603 9.772,5.859 13.03,11.077c1.305,3.257 2.608,6.515 3.258,9.772c-8.469,6.515 -17.589,8.468 -26.061,4.556c-9.12,-3.258 -14.983,-11.071 -18.241,-22.147c9.773,-5.212 19.545,-6.516 28.014,-3.258Z" style="fill-rule:nonzero;"/><path d="M334.717,466.728c-1.953,0 -2.605,0 -3.257,1.953c0,1.305 0,2.609 1.304,3.258l18.241,5.866c1.305,1.298 3.258,0 3.258,-1.305c0.651,-1.953 0,-2.602 -1.953,-3.257l-17.593,-6.515Z" style="fill-rule:nonzero;"/><path d="M328.854,342.941c-3.258,1.304 -6.516,3.258 -9.772,5.859c-6.516,4.568 -11.074,11.083 -12.379,17.599c-1.953,7.164 -0.651,14.328 3.258,21.492l5.863,7.825l9.772,-3.912c6.515,-4.563 10.425,-9.773 12.378,-16.943c1.305,-7.164 0.652,-14.978 -3.258,-22.147l-5.862,-9.773Z" style="fill:#858585;fill-rule:nonzero;"/><path d="M339.931,375.517c2.605,-7.819 1.302,-15.633 -2.604,-23.458l-7.168,-10.422l-1.956,-0.648c-3.906,1.298 -7.816,3.257 -11.074,5.866c-7.167,5.859 -11.729,12.374 -13.682,19.545c-1.305,7.164 -0.652,14.977 3.257,22.147l7.168,9.117l2.605,0.655c2.605,0 5.862,-1.953 10.425,-5.211c6.514,-4.561 11.725,-10.42 13.029,-17.591Zm-3.91,-7.17l-0.652,5.217c-2.605,9.772 -9.12,16.288 -18.893,18.896c-5.863,-6.516 -8.469,-13.03 -8.469,-19.546l0.649,-5.866c1.956,-8.475 8.471,-15.639 19.545,-20.849c5.215,7.17 7.82,14.334 7.82,22.148Z" style="fill-rule:nonzero;"/><path d="M316.477,393.108c-1.305,-0.648 -3.258,0 -3.258,1.953l-2.605,13.03c0,1.953 0.652,3.258 2.605,3.258c1.305,0 2.605,-0.655 2.605,-2.603l2.605,-13.03c0.653,-1.31 0.001,-2.608 -1.952,-2.608Z" style="fill-rule:nonzero;"/><path d="M329.507,300.593l-10.425,-1.953c-8.469,-0.648 -15.636,1.953 -21.499,5.866c-5.863,3.906 -9.772,10.422 -10.425,18.234l0,10.429l9.772,2.602c7.168,0.655 14.335,-1.298 20.197,-5.859c5.863,-3.913 9.773,-9.772 11.727,-18.241l0.653,-11.078Z" style="fill:#858585;fill-rule:nonzero;"/><path d="M332.764,300.593l-1.953,-2.602l-11.729,-2.608c-9.121,0 -16.288,1.953 -22.803,6.515c-5.863,5.211 -9.773,11.726 -11.727,19.545l-0.652,11.727l1.954,1.953l11.076,2.608c8.469,1.298 15.636,-0.649 22.151,-5.217c5.862,-4.556 10.425,-11.071 12.378,-19.546l1.305,-12.375Zm-33.228,5.86c7.167,-5.86 16.94,-6.516 27.365,-3.906c0,11.076 -3.91,20.193 -11.077,25.411c-8.469,5.866 -16.94,7.164 -26.713,2.608l0,-2.608c0,-9.124 3.258,-16.937 10.425,-21.505Z" style="fill-rule:nonzero;"/><path d="M288.463,334.473c1.301,-1.304 1.301,-1.959 0.648,-3.906l-3.906,0l-10.425,8.462c-1.305,1.311 -1.305,2.608 -0.652,3.913l3.91,0l10.425,-8.469Z" style="fill-rule:nonzero;"/><path d="M347.747,260.198c-1.953,-1.953 -5.211,-3.257 -9.12,-5.21l-22.15,-1.305c-7.168,2.609 -13.03,6.515 -16.288,13.679c-1.953,3.258 -3.258,6.515 -3.258,9.124l8.469,5.865c6.515,3.907 13.683,4.557 20.85,1.954c6.515,-1.954 13.03,-6.515 16.939,-13.686l4.558,-10.421Z" style="fill:#858585;fill-rule:nonzero;"/><path d="M304.099,285.609l22.803,1.299c11.726,-3.907 19.545,-12.375 23.454,-25.405l-0.651,-3.258c-1.957,-1.953 -5.214,-3.257 -10.425,-5.86l-23.455,-1.311c-7.816,1.959 -13.03,7.17 -17.589,14.99c-1.956,3.258 -3.91,6.516 -4.562,10.422l1.304,2.608c1.301,1.299 3.906,3.258 9.121,6.515Zm-0.653,-19.545c3.257,-4.562 8.468,-7.819 13.682,-9.772c9.121,-3.258 18.241,-1.304 28.014,5.211c-3.909,11.077 -10.425,17.592 -19.545,20.849c-9.12,2.609 -16.939,0.649 -26.061,-6.515c0.652,-3.257 1.957,-6.515 3.91,-9.773Z" style="fill-rule:nonzero;"/><path d="M299.536,275.837c-1.301,-1.304 -2.605,-1.96 -3.257,-1.304l-13.03,4.562c-1.954,0 -1.954,1.953 -1.954,3.257c1.302,1.954 2.605,1.954 3.91,1.954l12.378,-5.211c1.953,0 1.953,-1.304 1.953,-3.258Z" style="fill-rule:nonzero;"/><path d="M228.522,279.095l-0.652,11.726c0.652,7.819 3.258,14.983 7.819,20.201c5.211,5.204 11.727,8.462 19.546,8.462l9.772,-1.298l1.953,-10.422c0,-7.171 -2.605,-13.686 -7.167,-19.545c-5.211,-5.218 -11.727,-8.475 -20.847,-9.124l-10.424,0Z" style="fill:#858585;fill-rule:nonzero;"/><path d="M267.613,319.483l1.953,-11.72c0,-7.826 -2.605,-15.639 -8.469,-20.855c-5.211,-5.86 -12.378,-9.117 -20.85,-10.422l-12.377,0c-0.651,0.648 -1.953,1.305 -2.605,2.608l0,11.726c0,9.117 3.258,16.288 9.121,22.147c5.214,5.218 12.378,8.475 20.197,9.124l11.726,-1.298l1.304,-1.31Zm-3.91,-3.257c-11.073,1.96 -19.545,0 -26.061,-7.164c-5.21,-5.211 -7.167,-12.381 -7.167,-21.499l0,-5.859c11.077,-0.655 20.85,1.947 27.365,9.117c3.909,3.913 6.515,9.772 6.515,16.943l-0.652,8.462Z" style="fill-rule:nonzero;"/><path d="M263.703,316.881c-1.953,0.655 -1.953,2.603 0,3.258l9.772,9.117c0.652,1.311 1.957,1.311 3.258,0c1.305,-1.298 1.305,-2.603 0,-3.258l-9.12,-9.117c-1.953,-1.305 -3.258,-1.305 -3.91,0Z" style="fill-rule:nonzero;"/><path d="M276.081,273.229l4.563,-8.468c1.953,-7.819 1.953,-14.983 -1.953,-21.499c-3.91,-6.515 -9.124,-11.077 -16.94,-14.334l-10.425,-3.257l-3.258,11.077c-2.604,7.813 -1.304,14.983 1.954,21.499c3.257,6.515 8.471,11.077 16.287,13.686l9.772,1.296Z" style="fill:#858585;fill-rule:nonzero;"/><path d="M283.249,264.76c2.605,-8.468 1.304,-15.632 -2.605,-22.803c-3.258,-6.515 -9.121,-11.726 -16.94,-14.983l-12.378,-3.258c-0.652,-0.649 -1.953,0 -2.605,0.649c-1.304,1.96 -2.605,5.866 -3.909,11.732c-1.305,9.117 -0.652,16.937 3.257,23.452c3.258,6.515 9.121,11.726 16.94,14.984l11.073,1.304l1.957,-0.649l5.21,-10.428Zm-3.91,-9.117c0,5.204 -1.953,10.421 -4.559,15.632c-10.425,-1.305 -18.244,-5.86 -22.803,-14.334c-1.305,-3.258 -2.605,-7.164 -2.605,-12.381c0,-4.555 1.301,-9.772 3.258,-15.632l11.726,3.913c5.211,2.602 9.772,7.164 12.378,11.719c1.304,3.913 2.605,7.17 2.605,11.083Z" style="fill-rule:nonzero;"/><path d="M278.038,272.58c-0.652,-1.96 -1.305,-2.609 -3.258,-1.305c-1.305,0.655 -1.956,1.953 -0.652,3.258l6.516,11.726c0.651,1.96 1.953,1.96 3.257,1.304c1.954,-1.304 1.954,-1.953 0.652,-3.912l-6.515,-11.071Z" style="fill-rule:nonzero;"/><path d="M297.583,80.385c-0.652,-1.96 -1.956,-2.609 -3.909,-1.304c-1.305,0 -1.305,1.304 -0.652,3.257l7.819,22.803c6.515,20.85 11.073,42.348 13.03,67.104c2.605,17.592 1.301,32.576 -3.258,47.565c-2.605,9.117 -7.819,20.194 -16.288,35.833c-8.471,15.632 -14.986,29.966 -18.244,41.693c-5.862,18.89 -5.21,38.435 1.305,58.636c3.258,10.428 7.819,19.545 13.03,26.716c0.652,1.946 1.953,1.946 3.258,0.648c1.304,-1.305 1.953,-1.96 0.651,-3.906c-3.909,-6.516 -7.819,-14.341 -11.076,-24.113c-6.516,-19.546 -7.168,-39.091 -2.605,-57.325c3.257,-9.772 9.12,-22.804 18.24,-39.746c8.472,-16.288 14.335,-28.014 16.94,-37.786c3.909,-14.334 5.862,-30.622 3.909,-48.863c-3.257,-24.762 -7.167,-47.565 -13.03,-67.759l-9.12,-23.453Z" style="fill-rule:nonzero;"/><path d="M291.068,83.642c2.605,1.954 4.559,3.258 6.515,3.258l3.258,-6.515c2.605,-5.217 2.605,-11.077 0.652,-16.288c-1.957,-6.515 -4.563,-11.077 -7.168,-12.381l-7.167,-0.649c-3.258,1.298 -5.863,3.257 -6.515,5.21c-1.305,2.603 -0.652,7.171 0.651,13.03c1.955,6.516 5.212,11.078 9.774,14.335Z" style="fill:#d96038;fill-rule:nonzero;"/><path d="M286.506,48.458c-4.559,1.305 -7.167,3.258 -8.468,5.866c-1.305,3.258 -1.305,9.124 1.301,16.288c1.305,6.515 5.214,11.726 10.425,14.984l7.167,3.913l2.605,-0.655c6.516,-7.17 7.167,-16.288 3.91,-26.061c-1.953,-6.515 -4.563,-11.726 -7.167,-13.685l-9.773,-0.65Zm7.168,5.866c1.953,0.649 3.257,4.556 5.21,9.773l1.305,7.813c0,3.913 -1.305,8.475 -3.258,11.732c-6.515,-1.959 -10.425,-6.515 -13.03,-14.334c-0.651,-3.913 -1.304,-6.515 -1.304,-9.117l0.652,-3.913c0.651,-0.655 1.956,-1.953 3.909,-1.953c3.258,-1.305 5.211,-1.305 6.516,-0.001Z" style="fill-rule:nonzero;"/><path d="M318.43,97.97c-1.953,-1.298 -2.605,-0.649 -3.258,1.959l-8.469,22.803c-0.651,1.298 -0.651,2.608 0.652,3.257c1.953,0 3.258,0 3.91,-1.304l8.468,-23.458l-1.303,-3.257Z" style="fill-rule:nonzero;"/><path d="M337.326,70.612l-5.866,-4.562l-7.816,-0.655c-2.605,1.311 -5.214,5.217 -7.819,11.732c-2.605,5.211 -2.605,11.071 -1.301,16.288l2.604,6.515c8.469,-1.304 14.332,-6.515 18.241,-15.639c1.957,-5.866 3.258,-10.421 1.957,-13.679Z" style="fill:#d96038;fill-rule:nonzero;"/><path d="M322.339,62.792c-3.257,1.954 -5.862,6.515 -9.12,13.03c-2.605,6.515 -3.258,12.375 -1.305,18.241l3.91,7.819c0,1.304 0.652,1.304 1.956,1.304c9.121,-1.959 15.636,-7.819 19.546,-17.592c2.604,-6.515 3.906,-11.726 2.604,-14.984c-0.651,-3.257 -3.909,-5.866 -7.167,-7.164l-10.424,-0.654Zm2.605,4.562l5.214,0.649c3.258,1.304 5.211,3.258 5.211,5.866l-2.605,9.772c-3.257,7.164 -7.819,11.726 -13.682,13.679c-1.954,-3.906 -2.605,-7.164 -2.605,-10.421c0,-2.609 0,-5.866 1.953,-9.124c1.956,-5.21 3.909,-8.467 6.514,-10.421Z" style="fill-rule:nonzero;"/><path d="M292.369,111.656l-3.906,0.655c-1.305,1.298 -1.305,2.602 0.648,3.907l19.546,14.983l1.304,0l1.953,-0.655c1.305,-1.298 1.305,-2.603 0,-3.907l-19.545,-14.983Z" style="fill-rule:nonzero;"/><path d="M290.416,113.609l-0.652,-7.164c-1.953,-5.217 -4.559,-9.772 -9.12,-14.334c-5.863,-3.913 -9.772,-5.859 -13.03,-5.21c-1.953,0 -3.91,0.649 -6.516,3.906c-1.953,2.609 -2.605,4.562 -2.605,7.164c0.652,2.609 3.258,6.515 9.121,10.428c4.562,4.562 9.772,6.515 15.636,6.515l7.166,-1.305Z" style="fill:#d96038;fill-rule:nonzero;"/><path d="M293.021,114.258l-0.652,-8.462c-1.953,-5.866 -5.211,-11.083 -10.422,-15.639c-5.214,-3.906 -10.425,-6.515 -14.334,-6.515c-2.605,0 -5.211,1.954 -7.819,5.211c-3.258,3.257 -4.559,6.515 -3.258,9.772c0.652,3.258 3.91,7.819 9.124,11.726c8.468,7.164 16.937,9.124 25.408,5.866l1.953,-1.959Zm-24.755,-25.405c2.605,0 5.862,1.953 10.425,5.86c5.862,5.217 9.12,10.428 9.12,16.943c-6.516,1.304 -13.03,0 -18.894,-5.211c-4.562,-3.906 -7.819,-7.164 -7.819,-9.772l2.605,-4.562c1.305,-1.954 3.258,-3.258 4.563,-3.258Z" style="fill-rule:nonzero;"/><path d="M295.627,152.7c-1.953,-0.649 -2.605,-0.649 -3.907,1.304c-1.304,1.304 -0.651,1.953 1.302,3.257l22.15,11.077c1.305,1.298 1.956,0.649 3.258,-1.304c0.652,-1.305 0.652,-1.954 -1.302,-3.258l-21.501,-11.076Z" style="fill-rule:nonzero;"/><path d="M294.325,155.308l-1.956,-7.164c-2.605,-5.217 -6.515,-9.124 -11.726,-12.381c-6.516,-3.257 -10.425,-4.562 -13.683,-3.257c-2.605,0 -3.91,1.953 -5.863,5.211c-1.304,2.602 -1.304,5.21 -0.651,7.17c0.651,2.602 3.909,5.859 10.425,9.117l23.454,1.304Z" style="fill:#d96038;fill-rule:nonzero;"/><path d="M296.931,154.659l-2.605,-7.826c-2.605,-5.86 -7.167,-10.422 -13.03,-13.679c-5.862,-3.257 -11.076,-3.907 -14.334,-3.907c-3.258,0.649 -5.863,3.258 -7.816,6.515c-1.956,3.907 -1.956,7.164 -1.304,10.422c1.304,3.257 5.21,6.515 11.726,9.772l26.061,1.304l1.302,-2.601Zm-29.318,-20.201c2.605,0 6.515,0.655 11.726,3.258c7.167,3.913 11.077,9.117 11.729,15.632c-5.214,2.608 -11.729,1.959 -19.546,-1.298c-5.862,-3.258 -9.12,-6.515 -9.12,-9.773l1.301,-3.257c1.305,-2.608 2.606,-4.562 3.91,-4.562Z" style="fill-rule:nonzero;"/><path d="M332.111,137.716c-1.953,-1.305 -3.257,-1.305 -3.909,0l-14.983,19.545c-0.652,1.304 -0.652,3.258 0,4.562l3.909,-1.304l14.983,-19.545c0.653,-1.305 0.653,-1.953 0,-3.258Z" style="fill-rule:nonzero;"/><path d="M357.52,116.867c0,-1.954 -1.953,-3.907 -4.559,-6.515c-2.605,-1.953 -5.214,-3.258 -7.167,-2.608c-3.258,0.655 -6.515,3.913 -10.425,8.475c-3.909,5.21 -5.862,10.421 -5.862,16.288c0,3.257 0,5.211 0.651,7.164l7.168,-0.649c5.21,-1.304 10.421,-4.562 13.679,-9.773c4.561,-5.218 6.515,-9.774 6.515,-12.382Z" style="fill:#d96038;fill-rule:nonzero;"/><path d="M327.553,140.974l1.954,1.304l9.12,-1.304c5.863,-1.304 10.425,-5.211 14.986,-9.772c3.906,-5.86 6.516,-11.077 6.516,-14.334c0,-3.258 -1.957,-5.211 -5.866,-8.468c-3.258,-2.603 -6.516,-3.258 -9.121,-3.258c-3.257,1.304 -7.815,4.562 -12.378,9.772c-3.909,5.211 -5.862,11.077 -6.515,17.592c0,3.257 0.652,5.866 1.304,8.468Zm4.558,-3.913l0,-3.907c0,-5.211 1.305,-10.421 5.215,-14.983c3.906,-4.562 6.515,-7.17 8.468,-7.819c1.953,-0.649 3.258,0 5.863,1.959l2.605,4.556c0,2.608 -1.302,6.515 -5.211,11.077c-3.909,5.21 -9.772,8.468 -16.94,9.117Z" style="fill-rule:nonzero;"/><path d="M336.021,177.462l-3.258,0.649l-16.939,16.937c-1.953,1.305 -1.953,2.609 0,4.562l3.258,-0.655l16.939,-17.585c1.305,-1.306 1.305,-3.259 0,-3.908Z" style="fill-rule:nonzero;"/><path d="M364.035,159.864c0,-2.603 -0.649,-4.556 -3.258,-7.164c-2.605,-1.954 -5.211,-3.258 -6.515,-3.258c-3.258,0.649 -7.164,2.609 -11.727,7.819c-4.562,4.562 -7.167,9.773 -7.819,14.983l0,7.164l7.168,0c5.862,-0.649 10.425,-3.257 14.986,-7.813c5.212,-4.561 7.165,-9.123 7.165,-11.731Z" style="fill:#d96038;fill-rule:nonzero;"/><path d="M366.644,160.519c0.649,-3.258 -1.305,-6.515 -4.562,-9.118c-2.605,-2.608 -5.863,-4.568 -8.469,-3.913c-3.909,0 -8.472,2.602 -13.683,7.819c-4.562,5.211 -7.167,9.772 -7.819,16.288l0,8.468l1.305,1.954l9.12,0c5.863,-0.649 11.077,-3.907 16.288,-8.468c5.211,-5.211 7.82,-9.773 7.82,-13.03Zm-22.803,-1.954c3.906,-3.906 7.164,-5.866 10.422,-6.515c1.304,0 2.608,0.649 4.562,3.257l2.605,3.907c0,2.608 -2.605,5.866 -6.516,11.077c-5.862,5.211 -11.726,7.819 -18.24,6.515l0,-1.304c0,-6.515 2.605,-11.726 7.167,-16.937Z" style="fill-rule:nonzero;"/><path d="M330.811,220.459c-0.652,-1.304 -1.956,-1.959 -3.909,-1.304l-20.198,13.03c-1.953,1.304 -2.604,1.953 -1.304,3.913c1.304,1.298 1.956,1.298 3.909,0.649l20.85,-13.03c1.952,-1.305 1.952,-2.609 0.652,-3.258Z" style="fill-rule:nonzero;"/><path d="M362.082,210.687c1.304,-2.609 0,-4.562 -1.305,-7.819c-1.953,-3.258 -3.258,-5.211 -5.863,-5.211c-2.604,-0.649 -7.167,0.649 -13.029,3.906c-5.863,3.258 -9.121,7.819 -11.727,13.03l-1.304,7.164l7.167,1.959c5.863,0 11.077,-1.304 16.288,-3.906c5.863,-3.913 9.121,-6.515 9.773,-9.123Z" style="fill:#d96038;fill-rule:nonzero;"/><path d="M363.386,201.563c-2.608,-3.906 -5.214,-5.866 -7.819,-6.515c-3.909,-0.649 -9.12,1.305 -15.636,4.562c-5.214,3.913 -9.772,8.468 -11.729,14.334c-1.301,2.608 -1.953,5.211 -1.953,7.813l1.304,1.959c1.302,1.298 3.907,1.954 7.816,2.609c6.516,0.649 12.378,-0.655 18.244,-3.913c6.516,-3.913 10.422,-7.819 11.074,-11.077c0.652,-3.257 0.652,-6.515 -1.301,-9.772Zm-4.562,2.608l1.305,3.906c0,2.609 -2.609,5.866 -9.124,9.124c-6.515,3.907 -13.03,5.211 -19.545,3.258c1.304,-7.164 5.214,-12.381 11.729,-16.288c5.211,-3.258 9.121,-4.562 11.074,-3.907l4.561,3.907Z" style="fill-rule:nonzero;"/><path d="M297.583,206.125l-3.909,0c-0.652,0 -1.305,1.304 0,3.257l14.983,19.545l3.909,0c0.652,-1.304 0.652,-1.953 0,-3.257l-14.983,-19.545Z" style="fill-rule:nonzero;"/><path d="M295.627,207.429l1.304,-6.515c-0.651,-5.866 -2.605,-11.077 -6.515,-16.288c-3.91,-5.217 -7.819,-7.819 -11.077,-8.475c-1.953,-0.649 -4.559,0.655 -7.164,2.608c-2.608,2.609 -3.909,4.562 -3.909,6.515c-0.652,2.608 1.953,7.164 5.862,12.381c6.516,7.165 13.03,11.072 21.499,9.774Z" style="fill:#d96038;fill-rule:nonzero;"/><path d="M292.369,183.322c-4.559,-5.86 -8.469,-9.117 -12.378,-9.772c-2.605,-0.656 -5.863,0 -9.12,3.257c-3.258,3.257 -5.211,5.211 -5.211,8.468c-0.652,3.258 1.953,8.475 6.515,14.334c7.164,7.819 14.983,11.726 24.104,11.077l1.304,-1.96c3.258,-9.117 1.953,-17.585 -5.214,-25.404Zm-16.288,13.03c-3.257,-5.211 -5.21,-8.469 -5.21,-11.077c0,-1.298 0.651,-3.257 3.257,-4.555c1.953,-1.96 3.258,-2.609 5.211,-1.96c1.956,0 5.214,2.609 8.472,7.819c3.909,4.562 5.863,9.118 5.863,14.334l0,3.907c-6.516,0 -13.03,-2.609 -17.593,-8.468Z" style="fill-rule:nonzero;"/><path d="M235.689,559.893l-0.651,11.076c12.378,3.913 22.803,2.603 31.923,-5.21c5.863,-3.907 9.12,-10.422 10.425,-18.248l-0.652,-9.772c-2.605,-1.947 -5.862,-1.947 -9.772,-2.603c-7.816,-0.655 -14.983,0.655 -20.197,5.86c-5.212,4.568 -9.122,11.083 -11.076,18.897Z" style="fill:#858585;fill-rule:nonzero;"/><path d="M233.733,573.571l12.381,1.311c8.469,0.649 16.288,-1.959 22.151,-6.515c6.515,-5.218 9.772,-11.732 11.726,-19.546c0.652,-5.866 0.652,-9.772 -0.652,-11.731l-1.301,-1.954l-11.077,-2.602c-8.469,-1.311 -15.636,1.298 -22.15,6.515c-5.863,4.556 -9.772,11.07 -11.727,19.546l-1.304,12.374c0,0.655 0.653,1.954 1.953,2.602Zm3.91,-4.555c0,-11.732 3.258,-20.194 10.425,-26.709c7.168,-5.217 16.288,-6.516 26.061,-3.258l0.652,3.906c0,9.124 -3.258,15.64 -9.772,20.844c-7.168,5.866 -16.289,7.825 -27.366,5.217Z" style="fill-rule:nonzero;"/><path d="M276.733,539.698l1.305,0l11.073,-7.819c1.305,-0.655 1.305,-2.603 0.652,-3.913l-3.258,0l-11.073,7.825c-1.305,0.649 -1.305,1.947 -0.652,3.258l1.953,0.649Z" style="fill-rule:nonzero;"/><path d="M278.038,580.086l-1.957,11.084l10.425,3.258c7.819,0.648 15.636,0 22.151,-3.913c5.866,-3.913 9.772,-9.117 11.729,-16.943l1.301,-9.772c-2.604,-1.947 -5.862,-3.258 -9.12,-3.906c-7.816,-1.298 -14.983,-0.649 -21.498,2.608c-5.864,3.905 -10.425,9.771 -13.031,17.584Z" style="fill:#858585;fill-rule:nonzero;"/><path d="M312.566,557.283c-8.468,-1.946 -15.636,-1.298 -22.15,3.258c-7.167,3.913 -11.726,9.772 -14.335,18.247c-1.953,4.556 -2.605,8.469 -2.605,12.382l0.652,1.946l12.378,3.258c9.121,1.311 16.288,0 23.455,-3.258c6.516,-4.555 10.425,-10.421 13.03,-18.234l1.305,-11.732l-1.305,-1.953c-3.258,-1.954 -6.514,-3.258 -10.425,-3.914Zm-19.545,7.826c7.167,-4.568 16.287,-4.568 26.061,0c0,10.422 -3.91,18.234 -12.379,22.803l-28.665,1.947c1.953,-11.719 6.515,-20.194 14.983,-24.75Z" style="fill-rule:nonzero;"/><path d="M336.021,555.337c-0.652,-1.311 -2.605,-1.311 -3.91,-0.655l-11.726,6.515c-1.304,0.655 -1.956,1.953 -0.652,3.913c0.652,0.649 1.953,1.298 3.258,0.649l11.726,-6.516c1.304,-0.648 1.957,-1.96 1.304,-3.906Z" style="fill-rule:nonzero;"/><path d="M324.944,486.929l-9.772,-4.568l-5.863,9.772c-3.257,7.17 -3.909,14.341 -2.605,21.505c2.605,7.164 6.516,12.381 13.683,16.288l9.121,3.906l6.515,-7.813c3.258,-7.17 3.909,-14.341 2.605,-20.855c-2.607,-7.165 -6.517,-13.031 -13.684,-18.235Z" style="fill:#858585;fill-rule:nonzero;"/><path d="M315.824,479.758l-2.605,0.655l-6.516,10.422c-3.257,8.468 -3.909,16.288 -1.953,24.101c1.953,7.171 7.164,13.03 14.332,17.599l10.425,3.906l1.953,-0.649c1.956,-1.311 4.562,-3.912 7.167,-9.123c3.909,-7.164 4.562,-14.99 2.605,-22.803c-2.605,-7.164 -7.164,-13.68 -14.983,-18.247l-10.425,-5.861Zm20.197,25.405l0.652,7.17c0,7.819 -2.605,13.686 -7.819,18.891c-2.605,-1.298 -5.863,-1.947 -9.121,-4.556c-5.21,-3.906 -8.468,-8.475 -9.772,-13.68l-1.304,-6.515c0,-7.171 1.956,-13.686 7.167,-20.855c10.425,3.912 16.94,11.083 20.197,19.545Z" style="fill-rule:nonzero;"/><path d="M332.111,533.183c0,-1.959 -1.953,-1.959 -3.257,-1.959c-1.953,0.655 -1.953,1.959 -1.953,3.257l8.468,26.061c0.652,1.96 1.305,2.608 3.258,1.96c1.304,-0.649 2.605,-1.305 1.956,-3.258l-8.472,-26.061Z" style="fill-rule:nonzero;"/><path d="M259.145,480.413c-1.304,8.462 -1.304,16.288 2.605,22.147c3.258,5.86 9.121,10.428 16.288,13.686l9.772,1.298l4.559,-9.123c1.956,-7.813 1.305,-14.978 -1.953,-21.492c-3.258,-5.866 -9.121,-10.429 -16.94,-13.686l-10.425,-3.258l-3.906,10.428Z" style="fill:#858585;fill-rule:nonzero;"/><path d="M263.051,467.383c-1.301,0 -1.953,0.649 -2.604,1.947l-3.91,11.083c-1.953,9.117 -0.649,16.288 3.258,23.452c3.909,6.515 9.772,11.726 17.592,14.328l11.077,1.959c1.301,0 1.953,-0.648 1.953,-0.648l4.562,-11.083c1.953,-8.462 1.302,-15.633 -1.956,-22.147c-3.91,-7.171 -9.772,-12.375 -18.241,-15.633l-11.731,-3.258Zm-1.953,21.492c0,-5.859 0.652,-11.07 3.258,-15.632c11.726,1.953 19.545,7.17 23.455,15.632l3.258,11.084c0,5.204 -1.305,9.772 -3.91,14.977c-11.077,-1.298 -18.893,-5.204 -22.803,-13.679c-2.606,-3.907 -3.258,-7.814 -3.258,-12.382Z" style="fill-rule:nonzero;"/><path d="M290.416,516.246c-0.652,-1.311 -1.305,-1.311 -3.258,-1.311c-1.304,1.311 -2.605,1.96 -1.304,3.913l9.123,16.942c1.302,1.299 1.953,1.947 3.258,0.649c1.953,-0.649 1.953,-1.96 1.301,-3.906l-9.12,-16.287Z" style="fill-rule:nonzero;"/><path d="M190.084,495.391c-40.395,-5.86 -75.575,-4.556 -104.241,4.568c-1.304,0 -1.957,1.298 -1.304,3.257c0,1.947 1.304,1.947 3.258,1.298c28.017,-8.468 62.545,-10.421 102.288,-3.906c80.135,12.381 152.452,54.074 216.951,126.396l3.91,0c1.304,-0.655 1.304,-1.96 0,-3.258c-65.152,-72.977 -139.424,-116.623 -220.862,-128.355Z" style="fill-rule:nonzero;"/><path d="M50.01,502.561c0,3.258 0.652,5.86 1.954,7.171c2.605,1.946 6.515,3.257 13.682,3.257c5.863,0 11.726,-1.959 16.288,-5.865l5.211,-5.218l-5.863,-5.204c-3.91,-3.258 -9.773,-4.568 -15.636,-4.568c-7.167,0 -11.077,0.655 -13.682,3.258c-1.954,1.309 -1.954,3.255 -1.954,7.169Z" style="fill:#d96038;fill-rule:nonzero;"/><path d="M89.101,500.607l-5.863,-5.866c-5.214,-3.906 -10.425,-5.211 -17.592,-5.211c-7.167,0 -12.378,1.305 -14.983,3.258c-1.957,2.603 -3.91,5.859 -3.91,9.772c0,3.913 1.953,7.171 3.91,9.117c2.605,2.609 7.816,3.258 14.983,3.258c7.167,0 12.378,-1.947 17.592,-5.204l5.863,-6.516l0,-2.608Zm-34.533,-3.906c1.957,-1.311 5.214,-1.96 11.077,-2.608c8.468,0 13.682,2.608 18.241,7.813c-4.559,5.218 -11.074,7.826 -18.241,7.826l-11.726,-1.96c-0.652,-1.298 -1.956,-2.608 -1.956,-5.211l0,-0.655c0,-1.947 1.305,-4.556 2.605,-5.205Z" style="fill-rule:nonzero;"/><path d="M111.903,482.36c-1.304,0 -3.258,0 -3.258,1.311c-1.304,1.947 -0.652,2.603 1.301,3.258l22.803,9.772c1.304,1.298 2.609,0.648 3.258,-0.655c0.652,-1.953 0,-3.258 -1.301,-3.913l-22.803,-9.773Z" style="fill-rule:nonzero;"/><path d="M82.585,463.471c-2.605,0.655 -4.562,3.257 -5.863,6.515c-1.305,2.603 -1.957,5.211 -0.652,7.171c1.301,2.602 5.211,5.859 11.074,8.462l23.455,-0.649l-1.954,-7.164c-3.257,-4.562 -7.819,-8.475 -13.03,-11.077c-6.514,-3.258 -10.424,-3.915 -13.03,-3.258Z" style="fill:#d96038;fill-rule:nonzero;"/><path d="M74.766,468.032c-1.954,4.556 -1.954,7.813 -0.652,10.422c1.304,3.906 5.214,6.515 11.729,9.123l26.061,-0.648c1.301,-0.655 1.953,-1.311 1.301,-2.609c-1.301,-8.475 -6.515,-15.639 -16.288,-20.193c-6.515,-2.609 -11.726,-3.913 -15.635,-2.609c-2.606,0.648 -5.212,2.608 -6.516,6.514Zm8.471,-1.304c2.605,-0.655 5.863,0 11.074,2.603c6.515,2.608 11.077,7.17 13.03,13.686l-19.545,0c-6.515,-3.258 -9.773,-5.859 -9.773,-8.469l1.304,-3.906c1.302,-2.61 1.954,-3.914 3.91,-3.914Z" style="fill-rule:nonzero;"/><path d="M158.81,479.103c-1.954,-1.298 -2.605,-1.298 -3.258,0.655c-1.301,0.655 -1.301,2.603 0,3.258l19.545,15.632l3.91,-1.298c0.652,-0.648 0.652,-1.959 -0.652,-3.257l-19.545,-14.99Z" style="fill-rule:nonzero;"/><path d="M134.706,453.697c-2.605,0 -4.562,1.305 -6.515,4.563c-1.957,2.608 -3.257,5.211 -3.257,7.164c1.301,2.608 3.91,6.515 9.12,11.076c7.819,5.86 15.636,7.171 22.803,4.563l0,-7.164c-1.953,-5.866 -5.21,-10.428 -9.772,-13.686c-5.864,-4.562 -9.773,-6.516 -12.379,-6.516Z" style="fill:#d96038;fill-rule:nonzero;"/><path d="M158.81,473.243c-1.954,-6.516 -5.211,-11.077 -10.422,-15.633c-5.214,-3.913 -10.425,-6.515 -13.682,-6.515c-3.258,0 -6.515,1.946 -8.472,5.859c-2.605,3.258 -3.906,6.516 -3.257,9.117c0.652,3.913 3.91,7.826 9.772,11.732c7.819,7.164 16.94,8.469 25.412,5.866l1.953,-2.608l-1.304,-7.818Zm-24.104,-16.288c1.953,0 5.863,1.305 10.425,5.211c5.863,4.562 9.121,10.422 9.121,16.937c-6.515,1.311 -13.03,0 -18.244,-5.204c-5.863,-3.913 -7.816,-7.171 -7.816,-9.772c0,-1.312 0,-2.609 1.953,-3.913c1.303,-2.604 3.257,-3.259 4.561,-3.259Z" style="fill-rule:nonzero;"/><path d="M201.158,479.758c-0.649,-1.953 -1.953,-2.602 -3.258,-1.304c-1.953,1.304 -1.953,1.959 -1.301,3.906l12.378,20.855l3.909,0.649c1.953,-0.649 1.953,-1.96 1.302,-3.258l-13.03,-20.848Z" style="fill-rule:nonzero;"/><path d="M188.128,447.183c-1.954,-0.655 -4.559,0 -7.816,1.305c-2.605,1.953 -4.562,3.257 -4.562,5.21c-0.652,3.258 0.652,7.819 3.91,13.686c3.257,5.86 7.167,9.117 12.377,11.72l7.168,1.311l1.953,-6.515c0.652,-5.866 -0.649,-11.084 -3.258,-16.943c-3.906,-5.861 -6.514,-9.119 -9.772,-9.774Z" style="fill:#d96038;fill-rule:nonzero;"/><path d="M199.856,456.3c-3.909,-6.515 -7.167,-10.422 -10.425,-11.72c-3.258,-0.655 -6.515,-0.655 -9.772,1.947c-3.91,1.96 -6.515,4.568 -6.515,7.17c-0.652,3.913 0.652,9.117 3.91,14.983c3.257,5.866 8.468,10.422 14.332,12.382l7.819,1.953l2.605,-0.655l1.956,-8.462c0.649,-6.515 -0.652,-12.381 -3.91,-17.598Zm-12.377,-6.515c1.953,0.655 5.211,3.912 7.816,8.475c2.605,4.555 3.258,8.468 3.258,12.381l-1.302,7.164c-6.515,-1.305 -11.729,-5.217 -14.986,-11.732c-2.605,-4.556 -3.91,-7.813 -3.91,-9.772c0,-2.603 1.305,-4.556 3.91,-5.859l5.214,-0.657Z" style="fill-rule:nonzero;"/><path d="M244.811,490.186c0,-1.311 -1.305,-1.959 -3.258,-0.655c-1.305,0.655 -1.953,1.305 -1.305,3.258l11.077,22.147c0,1.311 1.305,1.311 3.258,1.311c1.304,-1.311 1.953,-1.959 0.652,-3.258l-10.424,-22.803Z" style="fill-rule:nonzero;"/><path d="M235.038,456.955l-7.819,0.655c-2.605,1.298 -5.211,2.603 -5.211,5.204c-1.305,3.258 0,7.171 2.605,13.686c2.605,5.86 6.515,9.773 11.076,12.375l6.516,2.608l2.605,-7.164c1.953,-5.217 0.652,-11.076 -1.305,-16.937c-3.257,-5.865 -5.862,-9.772 -8.467,-10.427Z" style="fill:#d96038;fill-rule:nonzero;"/><path d="M225.917,455.002c-3.909,1.953 -5.862,4.556 -7.167,7.813c-0.652,3.258 0,7.826 3.258,14.342c3.257,6.515 7.167,11.07 13.03,13.679c2.604,1.953 5.21,2.608 7.167,3.258c1.301,0 1.953,-0.649 2.605,-1.305c5.211,-7.17 5.211,-16.288 0.652,-26.061c-3.258,-6.515 -5.863,-10.428 -9.773,-12.375l-9.772,0.649Zm1.302,20.843c-1.954,-4.555 -3.258,-7.813 -3.258,-10.421c0,-1.953 1.304,-3.907 4.562,-5.211l5.863,-0.655c1.956,0.655 3.909,3.913 6.515,9.772l2.605,10.428l-1.953,9.117c-6.515,-2.602 -11.726,-6.515 -14.334,-13.03Z" style="fill-rule:nonzero;"/><path d="M121.676,494.093c-0.652,-1.305 -1.957,-1.305 -3.257,0l-17.592,17.585c-0.652,1.311 -0.652,2.609 0,3.913l3.91,-0.655l16.94,-17.586c1.952,-0.649 1.952,-1.959 -0.001,-3.257Z" style="fill-rule:nonzero;"/><path d="M78.023,540.996c1.957,1.959 4.562,3.258 6.515,3.258c3.258,-0.649 6.515,-3.258 11.077,-8.463c4.559,-4.567 6.515,-9.772 7.816,-14.989l0,-7.164l-7.816,0c-5.214,1.298 -10.425,3.906 -14.334,8.469c-5.211,4.562 -7.167,9.117 -7.167,11.726c0,1.958 0.652,4.561 3.909,7.163Z" style="fill:#d96038;fill-rule:nonzero;"/><path d="M105.388,512.988l-1.957,-1.959l-7.816,0.648c-6.515,0.655 -11.729,3.258 -16.288,8.475c-5.214,5.211 -7.819,9.773 -7.819,13.03c0,3.258 1.304,6.516 4.562,9.124c3.257,3.258 6.515,4.556 9.121,3.906c3.91,0 7.819,-3.258 12.378,-8.475c4.562,-4.556 7.819,-10.422 8.472,-16.287l-0.653,-8.462Zm-4.562,3.258l0,1.947c0,6.515 -1.953,11.083 -6.515,16.287c-4.559,4.568 -7.816,6.516 -9.772,6.516l-5.211,-1.947c-1.956,-2.608 -3.257,-3.913 -3.257,-4.568c0,-2.602 2.605,-6.515 6.515,-11.07c5.21,-5.218 11.725,-7.165 18.24,-7.165Z" style="fill-rule:nonzero;"/><path d="M171.84,494.093l-3.906,-0.649l-20.197,14.978c-0.652,0 -1.304,1.311 -0.652,3.257c1.953,1.311 3.258,1.311 3.91,0.655l20.197,-14.983c1.3,-0.65 1.3,-1.96 0.648,-3.258Z" style="fill-rule:nonzero;"/><path d="M120.372,532.534c1.304,2.602 3.257,3.906 5.863,3.906c3.258,0.649 7.167,-1.305 13.03,-5.217c4.562,-3.258 7.819,-8.462 9.772,-14.328l0.652,-7.164l-7.167,-0.655c-5.863,0 -11.074,1.953 -15.636,5.859c-5.863,3.258 -8.468,7.171 -9.772,9.772c0,2.609 0.652,4.569 3.258,7.827Z" style="fill:#d96038;fill-rule:nonzero;"/><path d="M124.934,512.988c-5.863,3.907 -9.121,7.813 -9.773,11.72c-1.304,2.608 0,5.866 2.605,9.772c2.605,3.258 5.863,4.568 8.468,5.218c3.91,0 8.472,-1.96 14.334,-6.516c5.863,-3.906 9.121,-9.123 10.425,-14.989l1.301,-8.462l-1.953,-1.96l-7.819,-1.298c-6.515,0.001 -12.378,1.948 -17.588,6.515Zm-3.258,18.236l-1.304,-4.556c0,-1.96 2.605,-5.866 7.819,-10.422c5.211,-3.913 12.378,-5.866 18.893,-4.568c-0.652,7.171 -3.91,13.03 -9.772,17.599c-4.562,3.258 -8.468,5.204 -10.425,5.204c-1.953,-0.001 -3.258,-1.298 -5.211,-3.257Z" style="fill-rule:nonzero;"/><path d="M214.188,499.959l-4.559,0l-19.546,14.328c-1.304,0.648 -1.304,1.959 -0.652,3.906c1.305,1.311 2.605,1.311 3.258,0l20.197,-14.328c1.302,-0.649 1.954,-1.96 1.302,-3.906Z" style="fill-rule:nonzero;"/><path d="M162.067,539.049c1.304,1.947 3.91,3.258 5.866,3.906c3.257,0 7.816,-1.959 12.378,-5.217c5.211,-3.906 9.12,-8.462 10.425,-14.328l1.301,-7.164l-7.167,-1.311c-5.863,0 -11.726,1.96 -16.288,5.866c-5.211,3.906 -8.468,7.164 -9.121,10.422c0.001,1.96 0.653,4.568 2.606,7.826Z" style="fill:#d96038;fill-rule:nonzero;"/><path d="M192.689,513.638l-8.468,-0.649c-5.866,0 -11.729,1.947 -17.592,5.205c-5.863,4.568 -9.121,8.475 -9.773,12.381c-0.652,2.608 0,5.866 3.258,9.124c1.953,3.906 5.211,5.866 8.468,5.866c3.257,0 7.819,-1.96 13.682,-6.516c5.863,-3.258 9.121,-8.475 11.077,-14.341l1.301,-8.462l-1.953,-2.608Zm-22.802,9.124c6.515,-4.568 12.378,-5.866 18.894,-4.568c0,6.515 -3.258,11.732 -9.121,16.942c-5.211,3.913 -9.121,5.86 -11.077,5.211l-4.559,-3.257c-1.304,-1.299 -1.957,-2.609 -1.957,-4.556c0,-2.608 1.957,-5.866 7.82,-9.772Z" style="fill-rule:nonzero;"/><path d="M246.764,509.076l-3.906,-0.655l-18.244,16.287c-1.954,1.311 -1.954,2.608 -0.652,3.913l3.909,0.655l18.244,-16.288c1.952,-1.31 1.952,-2.608 0.649,-3.912Z" style="fill-rule:nonzero;"/><path d="M198.553,552.079l6.515,3.258c3.258,0 7.168,-1.96 12.378,-6.516c4.563,-4.567 7.168,-9.123 7.819,-14.341l0.652,-7.813l-7.167,0c-5.863,0 -11.077,2.608 -15.636,6.515c-4.562,4.556 -7.167,9.124 -7.819,11.727c0,2.602 0.652,4.562 3.258,7.17Z" style="fill:#d96038;fill-rule:nonzero;"/><path d="M226.569,524.708l-7.819,-0.648c-6.515,0.648 -12.378,2.608 -16.939,7.164c-5.863,5.217 -9.121,9.772 -9.121,13.03c0,3.257 0.652,6.515 3.258,9.772c3.258,3.257 6.515,4.568 9.12,4.568c3.91,-0.655 7.819,-3.258 13.683,-7.826c5.211,-4.556 8.469,-9.772 9.772,-16.288l0,-7.813l-1.954,-1.959Zm-3.257,4.568l0.649,0c0,6.515 -2.605,13.03 -8.469,17.586c-4.562,3.906 -7.819,5.866 -10.425,5.866c-1.301,0.648 -2.605,-0.649 -5.211,-2.609c-1.304,-1.298 -1.956,-2.608 -1.956,-4.555c0,-2.609 1.956,-5.866 7.167,-9.773c5.214,-5.217 11.078,-7.17 18.245,-6.515Z" style="fill-rule:nonzero;"/><path d="M248.72,210.687c9.121,-54.729 13.03,-103.593 14.331,-145.292l-114.014,-0.649c0,39.09 -5.21,84.696 -14.331,138.121c-18.893,105.545 -50.167,193.499 -94.469,263.86l128.998,3.258c36.485,-63.197 63.198,-149.846 79.485,-259.298Z" style="fill:#f00;fill-rule:nonzero;"/><path d="M263.051,62.137l-114.014,-0.649c-1.953,0 -3.257,1.304 -3.257,3.258c-0.649,40.395 -5.863,86 -15.636,139.425c-18.241,104.241 -49.515,191.546 -93.164,259.955l0,3.257l3.257,2.603l128.998,3.258l3.257,-1.305c36.485,-63.191 62.546,-149.198 79.485,-259.299c8.469,-54.723 13.03,-104.241 14.331,-147.245l-1.301,-2.603c-0.652,0 -0.652,-0.655 -1.956,-0.655Zm-110.756,5.866l107.499,0.649c-1.953,51.472 -7.816,103.592 -16.288,157.673c-16.937,100.983 -42.348,181.767 -76.225,240.402l-121.833,-3.257c40.395,-65.807 70.365,-147.895 89.258,-245.62c9.773,-53.418 15.636,-102.937 17.589,-149.847Z" style="fill-rule:nonzero;"/></g></g><rect id="PATH77" x="2.92" y="2.74" width="366.67" height="582.52" style="fill:none;stroke:#000;stroke-width:3px;"/></svg>