<?xml version="1.0" encoding="UTF-8" standalone="no"?>
<!DOCTYPE svg PUBLIC "-//W3C//DTD SVG 1.1//EN" "http://www.w3.org/Graphics/SVG/1.1/DTD/svg11.dtd">
<svg width="270px" height="270px" version="1.1" xmlns="http://www.w3.org/2000/svg" xmlns:xlink="http://www.w3.org/1999/xlink" xml:space="preserve" xmlns:serif="http://www.serif.com/" style="fill-rule:evenodd;clip-rule:evenodd;stroke-linejoin:round;stroke-miterlimit:2;">
    <g id="Page-4" serif:id="Page 4" transform="matrix(1,0,0,1,-25,-25)">
        <rect x="0" y="0" width="320" height="320" style="fill:none;"/>
    </g>
    <g id="Layer-1" serif:id="Layer 1" transform="matrix(1,0,0,1,-25,-25)">
        <path d="M224.397,240.544C224.397,184.755 225.368,167.76 221.632,163.95C219.819,162.101 211.049,162.038 197.64,168.208C189.358,172.02 188.265,173.433 185.212,170.987C173.065,161.253 163.523,139.836 172.452,142.544C194.171,149.131 215.713,144.693 237.335,141.897C245.538,140.836 250.283,147.521 254.768,152.657C259.753,158.367 248.002,158.027 248.071,169.599C248.251,199.923 248.689,230.245 248.937,260.569C249.035,272.481 241.505,281.634 233.099,286.282C219.523,293.789 206.957,274.909 198.733,264.108C193.792,257.615 188.942,252.925 179.209,254.345C167.531,256.048 155.628,244.755 158.579,233.48C163.37,215.173 209.033,204.018 149.245,205.333C143.19,205.467 145.225,206.37 144.723,265.246C144.579,282.289 120.769,284.19 121.02,265.812C121.059,262.983 122.584,217.546 119.694,212.234C116.93,207.156 103.964,216.283 100.868,233.259C96.492,257.242 76.891,259.768 68.989,245.622C62.273,233.6 67.158,220.307 65.606,211.643C63.005,197.114 63.442,194.891 67.802,194.668C77.322,194.183 82.148,194.071 93.6,195.731C112.655,198.492 116.969,200.078 118.489,191.848C119.622,185.71 118.201,179.082 117.319,172.557C116.986,170.095 115.81,169.176 113.392,169.486C83.832,173.279 86.159,184.505 75.826,174.564C68.784,167.788 63.33,159.075 66.284,147.978C68.059,141.304 69.556,138.147 77.143,144.415C96.005,160.002 119.661,136.578 130.418,144.732C156.208,164.278 157.954,164.141 156.106,170.432C154.827,174.779 146.509,174.251 145.172,179.69C143.896,184.884 143.517,192.958 146.076,194.001C162.128,200.543 168.084,182.396 179.048,186.355C191.203,190.744 205.626,190.693 214.099,202.861C217.725,208.07 215.284,213.346 209.835,214.206C202.768,215.321 196.404,225.436 194.159,230.121C193.322,231.866 193.551,232.285 195.423,232.638C197.631,233.055 199.853,233.556 201.924,233.183C206.137,232.424 209.884,231.457 211.521,236.92C216.406,253.221 195.681,250.716 206.542,259.66C211.441,263.694 217.032,263.479 221.883,262C225.716,260.832 224.396,259.427 224.396,240.544" style="fill-rule:nonzero;"/>
        <path d="M185.134,104.107C186.724,98.526 174.557,98.134 177.472,93.274C182.841,84.324 251.812,111.541 222.775,133.62C205.707,146.598 208.029,112.446 182.569,122.086C163.691,129.233 142.012,125.252 124.505,137.704C117.478,142.702 108.363,124.34 105.71,115.402C104.299,110.648 105.271,107.142 111.282,106.019C124.359,103.577 143.976,78.871 143.96,65.263C143.953,58.84 145.655,56.809 152.228,59.408C167.882,65.597 188.416,86.921 168.066,91.907C158.836,94.169 152.865,101.692 144.893,105.921C142.992,106.93 144.172,108.83 146.327,108.883C181.329,109.756 183.786,108.834 185.134,104.107" style="fill-rule:nonzero;"/>
        <path d="M85.763,89.46C76.088,88.606 70.208,85.373 68.457,79.267C66.105,71.068 93.711,75.33 107.224,43.385C109.447,38.131 101.022,30.382 113.285,32.299C125.528,34.212 134.739,40.133 140.408,50.361C142.829,54.73 135.81,54.697 133.385,60.237C123.934,81.826 109.425,91.55 85.763,89.46" style="fill-rule:nonzero;"/>
        <path d="M229.363,96.166C218.244,89.717 216.717,81.713 206.658,77.178C202.397,75.257 201.674,74.153 204.944,71.262C219.282,58.59 194.295,42.209 198.658,37.683C202.983,33.194 209.087,36.575 214.219,40.032C258.266,69.699 258.357,112.979 229.363,96.166" style="fill-rule:nonzero;"/>
    </g>
</svg>
