<?xml version="1.0" encoding="UTF-8" standalone="no"?>
<!DOCTYPE svg PUBLIC "-//W3C//DTD SVG 1.1//EN" "http://www.w3.org/Graphics/SVG/1.1/DTD/svg11.dtd">
<svg width="270px" height="270px" version="1.1" xmlns="http://www.w3.org/2000/svg" xmlns:xlink="http://www.w3.org/1999/xlink" xml:space="preserve" xmlns:serif="http://www.serif.com/" style="fill-rule:evenodd;clip-rule:evenodd;stroke-linejoin:round;stroke-miterlimit:2;">
    <g id="Page-6" serif:id="Page 6" transform="matrix(1,0,0,1,-25,-25)">
        <rect x="0" y="0" width="320" height="320" style="fill:none;"/>
    </g>
    <g id="Layer-1" serif:id="Layer 1" transform="matrix(1,0,0,1,-25,-25)">
        <path d="M227.325,148.814C232.023,149.485 234.782,147.797 244.392,133.245C250.833,123.493 246.986,118.982 235.461,120C207.559,122.462 185.604,122.756 171.169,123.919C166.534,124.294 165.63,121.809 166.534,116.159C167.991,107.054 169.471,101.926 169.471,95.142C169.471,86.728 161.336,75.243 151.032,75.243C142.634,75.243 119.04,86.554 119.04,92.239C119.04,99.21 147.797,91.795 147.797,119.14C147.797,125.292 146.44,126.823 139.415,127.684C77.549,135.267 68.455,129.944 72.918,141.356C81.635,163.644 85.63,152.995 131.481,147.551C137.815,146.799 147.573,142.983 139.189,157.967C123.257,186.441 105.743,207.119 79.528,227.345C70.834,234.053 70.94,236.159 76.138,239.548C79.362,241.651 82.932,241.836 87.437,239.548C101.901,232.204 115.054,224.293 129.698,207.797C148.455,186.667 152.654,176.284 155.912,168.814C158.087,163.829 158.661,161.185 160.884,165.198C167.492,177.128 182.754,209.218 208.864,232.905C215.492,238.918 220.163,242.848 235.53,241.041C253.18,238.964 255.187,233.975 254.288,231.097C252.099,224.096 219.522,215.465 173.742,150.748C170.376,145.989 171.053,144.218 177.43,144.399C201.562,145.084 213.088,146.78 227.325,148.814M259.1,99.494C259.052,61.177 260.58,61.576 255.413,61.658C222.645,62.179 191.556,61.023 157.122,60.856C128.766,60.716 98,61.023 68.505,60.031C60.877,59.773 64.088,65.779 62.957,99.511C62.141,123.84 62.156,148.399 61.592,172.713C61.009,197.78 61.618,212.921 61.908,242.063C62.053,256.604 64.352,256.812 80.084,256.7C93.391,256.604 97.539,258.092 110.754,257.972C129.259,257.802 137.88,257.1 156.069,257.1C209.3,257.1 259.304,259.583 259.304,252.136C259.304,240.709 259.202,178.049 259.1,99.494M267.141,280.001C224.338,280.001 58.916,278.056 48.235,278.026C42.501,278.011 40.291,273.965 40.291,267.931C40.291,227.038 38.873,92.894 42.298,45.034C42.554,41.456 45.893,41.379 48.645,41.379C191.005,41.379 246.909,40.001 268.931,40.001C275.642,40.001 279.415,42.322 279.415,48.356C279.415,74.817 279.67,93.385 279.961,122.073C280.212,146.806 279.145,166.822 279.67,270.252C279.709,277.999 275.642,280.001 267.141,280.001" style="fill-rule:nonzero;"/>
    </g>
</svg>
