<!DOCTYPE svg PUBLIC "-//W3C//DTD SVG 1.1//EN" "http://www.w3.org/Graphics/SVG/1.1/DTD/svg11.dtd"[]><svg width="45" height="45" viewBox="0 0 45 45" version="1.1" xmlns="http://www.w3.org/2000/svg" xmlns:xlink="http://www.w3.org/1999/xlink" xml:space="preserve" xmlns:serif="http://www.serif.com/" style="fill-rule:evenodd;clip-rule:evenodd;stroke-linejoin:round;stroke-miterlimit:2;">
    <g id="Layer_1" transform="matrix(1,0,0,1,-13.375,-11.475)">
        <g>
            <g id="Layer0_0_FILL">
                <path d="M56.05,15C56.053,14.542 55.886,14.142 55.55,13.8C55.242,13.497 54.858,13.347 54.4,13.35L17.35,13.35C16.892,13.347 16.492,13.497 16.15,13.8C15.847,14.142 15.697,14.542 15.7,15L15.7,52.95C15.697,53.408 15.847,53.792 16.15,54.1C16.492,54.436 16.892,54.603 17.35,54.6L54.4,54.6C54.858,54.603 55.242,54.436 55.55,54.1C55.886,53.792 56.053,53.408 56.05,52.95L56.05,15M52.75,16.65L52.75,51.3L19,51.3L19,16.65L52.75,16.65M28.85,19.35L28.75,19.4C28.15,19.4 27.583,19.417 27.05,19.45C27.017,19.417 26.983,19.417 26.95,19.45C26.883,19.45 26.833,19.467 26.8,19.5C26.733,19.5 26.7,19.533 26.7,19.6C26.667,19.6 26.65,19.65 26.65,19.75L26.65,19.8C26.683,19.967 26.75,20.133 26.85,20.3C26.883,20.333 26.917,20.367 26.95,20.4C26.983,20.5 27.017,20.6 27.05,20.7L27.05,20.9C27.05,20.933 27.067,20.95 27.1,20.95L27.15,21.05C27.183,21.183 27.267,21.35 27.4,21.55C27.4,21.583 27.433,21.633 27.5,21.7C27.467,21.767 27.5,21.833 27.6,21.9C27.6,21.933 27.633,21.983 27.7,22.05L27.7,22.25C27.667,22.35 27.683,22.483 27.75,22.65C27.783,22.683 27.8,22.733 27.8,22.8L27.8,24.05C27.767,24.65 27.75,25.3 27.75,26C27.717,26.067 27.7,26.2 27.7,26.4C27.533,26.367 27.383,26.35 27.25,26.35L27.2,26.35C26.933,26.283 26.65,26.283 26.35,26.35L24.45,26.35C24.183,26.283 23.917,26.317 23.65,26.45C23.55,26.483 23.467,26.5 23.4,26.5C23,26.533 22.633,26.583 22.3,26.65L22.25,26.65L22.2,26.7C22.067,26.7 21.983,26.767 21.95,26.9C21.917,26.9 21.9,26.917 21.9,26.95C21.833,26.983 21.833,27.033 21.9,27.1C21.867,27.133 21.867,27.167 21.9,27.2C21.9,27.233 21.917,27.267 21.95,27.3C21.983,27.4 22,27.517 22,27.65L22,27.7C22.033,27.833 22.067,27.967 22.1,28.1C22.1,28.133 22.117,28.15 22.15,28.15C22.117,28.283 22.15,28.367 22.25,28.4L22.2,28.4C22.233,28.433 22.267,28.467 22.3,28.5C22.367,28.7 22.45,28.883 22.55,29.05C22.55,29.083 22.567,29.1 22.6,29.1C22.633,29.4 22.733,29.633 22.9,29.8C23.233,30.133 23.65,30.35 24.15,30.45L25.6,30.45C26.4,30.383 27.083,30.317 27.65,30.25C27.65,30.283 27.667,30.317 27.7,30.35L27.7,30.4C27.733,30.433 27.75,30.467 27.75,30.5L27.8,30.55L27.8,30.9C27.8,30.933 27.817,30.967 27.85,31C27.817,31.167 27.817,31.35 27.85,31.55L27.8,31.55C27.7,31.683 27.667,31.8 27.7,31.9L27.65,32.05C27.55,32.15 27.517,32.25 27.55,32.35C27.483,32.383 27.45,32.417 27.45,32.45C27.35,32.517 27.317,32.583 27.35,32.65C27.283,32.683 27.25,32.733 27.25,32.8C27.217,32.867 27.183,32.933 27.15,33C27.117,33 27.1,33.017 27.1,33.05C27.1,33.117 27.083,33.2 27.05,33.3C27.017,33.3 27,33.317 27,33.35C27,33.383 26.983,33.417 26.95,33.45C26.917,33.45 26.9,33.467 26.9,33.5L26.9,33.6C26.833,33.6 26.767,33.683 26.7,33.85C26.5,34.083 26.3,34.367 26.1,34.7C25.933,34.833 25.833,34.983 25.8,35.15L25.75,35.2C25.683,35.233 25.65,35.283 25.65,35.35C25.617,35.483 25.533,35.617 25.4,35.75L25.35,35.8C25.25,35.9 25.2,36.017 25.2,36.15L25.2,36.25C25.167,36.283 25.117,36.333 25.05,36.4C24.95,36.5 24.867,36.633 24.8,36.8C24.7,36.833 24.633,36.917 24.6,37.05C24.533,37.083 24.483,37.15 24.45,37.25C24.417,37.283 24.383,37.383 24.35,37.55C24.283,37.617 24.217,37.717 24.15,37.85L24.15,37.9C24.15,37.933 24.133,37.983 24.1,38.05C23.933,38.217 23.833,38.417 23.8,38.65L23.8,38.7C23.733,38.767 23.7,38.833 23.7,38.9C23.633,39.033 23.567,39.133 23.5,39.2L23.5,39.3C23.467,39.3 23.45,39.317 23.45,39.35C23.383,39.383 23.333,39.467 23.3,39.6L23.3,39.65C23.267,39.717 23.233,39.767 23.2,39.8L23.2,39.85C23.133,39.95 23.083,40.033 23.05,40.1L23.05,40.15C23.05,40.217 23.033,40.283 23,40.35L23,40.4L22.95,40.45L22.95,40.5L22.9,40.5C22.767,40.567 22.7,40.683 22.7,40.85C22.633,40.883 22.617,40.95 22.65,41.05L22.25,41.45C22.117,41.55 21.933,41.833 21.7,42.3L21.7,42.35L21.55,42.95C21.55,43.217 21.65,43.417 21.85,43.55C21.95,43.617 22.117,43.65 22.35,43.65L22.4,43.65C22.567,43.717 22.75,43.7 22.95,43.6L22.9,43.6C23.033,43.567 23.15,43.533 23.25,43.5C23.383,43.367 23.567,43.133 23.8,42.8L25.1,40.8L26.1,39.95C26.4,39.783 26.717,39.583 27.05,39.35L27.1,39.35C27.3,39.117 27.5,38.967 27.7,38.9L27.7,39.4C27.633,39.5 27.65,39.65 27.75,39.85C27.75,39.917 27.783,39.983 27.85,40.05C27.85,40.217 27.867,40.367 27.9,40.5C27.867,41.133 27.85,41.8 27.85,42.5C27.817,43.133 27.8,43.783 27.8,44.45C27.767,45.05 27.75,45.717 27.75,46.45L27.75,46.55C27.75,46.683 27.783,46.833 27.85,47C27.783,47.067 27.783,47.167 27.85,47.3C27.85,47.333 27.867,47.35 27.9,47.35L28,47.45C27.933,47.55 27.933,47.633 28,47.7C28,47.733 28.017,47.783 28.05,47.85C28.05,47.95 28.1,48.033 28.2,48.1L28.25,48.15L28.2,48.15C28.2,48.183 28.217,48.217 28.25,48.25C28.283,48.283 28.317,48.317 28.35,48.35C28.383,48.35 28.4,48.367 28.4,48.4C28.4,48.467 28.467,48.55 28.6,48.65C28.667,48.683 28.733,48.717 28.8,48.75C28.867,48.783 28.917,48.817 28.95,48.85L29.05,48.85C29.083,48.85 29.117,48.867 29.15,48.9L29.2,48.9L29.35,48.95L29.6,48.95C29.6,48.917 29.683,48.883 29.85,48.85L29.9,48.85C29.933,48.75 30,48.717 30.1,48.75L30.45,48.75C30.617,48.617 30.733,48.45 30.8,48.25L30.8,47.3C30.8,46.6 30.817,45.933 30.85,45.3C30.85,44.633 30.883,43.983 30.95,43.35L30.95,41.35C30.95,40.683 30.967,40.05 31,39.45C31,38.783 31.017,38.15 31.05,37.55L31.05,37.45L31.15,36.5C31.283,36.567 31.433,36.633 31.6,36.7C31.867,36.833 32.183,36.883 32.55,36.85L32.6,36.85C32.767,36.783 32.933,36.717 33.1,36.65C33.4,36.75 33.667,36.683 33.9,36.45L33.9,36.4C34.167,35.333 34.183,34.35 33.95,33.45L33.95,33.4C33.883,33.3 33.817,33.217 33.75,33.15L33.7,33.1L33.65,33.1C33.617,33.033 33.583,32.983 33.55,32.95L33.15,32.5L31.2,30.95L31.15,30.95L31.15,29.75C31.317,29.75 31.817,29.617 32.65,29.35L33.65,29C33.783,28.933 33.9,28.867 34,28.8L34.05,28.8C34.183,28.8 34.333,28.733 34.5,28.6L34.45,28.6C34.85,28.3 35.083,27.933 35.15,27.5L35.15,27.45L35.05,26.4L35.05,26.35C35.017,26.317 34.983,26.3 34.95,26.3L34.75,26.3L34.75,26.2L34.65,26.1C34.45,26.1 34.267,26.117 34.1,26.15L33,26.15C32.967,26.15 32.95,26.167 32.95,26.2C32.883,26.2 32.85,26.217 32.85,26.25C32.217,26.217 31.633,26.217 31.1,26.25C31.033,26.217 30.967,26.217 30.9,26.25C30.9,25.75 30.917,25.3 30.95,24.9L30.95,22.85C30.983,22.783 31,22.733 31,22.7C31,22.367 31.033,22.033 31.1,21.7L31.1,21.65C31.033,21.317 31.05,21.033 31.15,20.8L31.15,20.75C31.117,20.65 31.117,20.567 31.15,20.5C31.117,20.167 31.117,19.833 31.15,19.5L31.15,19.45L31.1,19.35L31.05,19.35L31,19.3L30.7,19.3L30.7,19.25L30.65,19.25C30.35,19.283 30.067,19.3 29.8,19.3C29.467,19.333 29.167,19.35 28.9,19.35L28.85,19.35M42.4,32.8C42.4,32.6 42.033,32.283 41.3,31.85C40.567,31.35 39.967,31.033 39.5,30.9L39.4,30.9C39.367,30.933 39.35,30.967 39.35,31C37.95,34.7 36.883,37.833 36.15,40.4C35.883,41.233 35.433,42.233 34.8,43.4L34.85,43.4C34.55,43.933 34.267,44.433 34,44.9C33.967,44.9 33.95,44.917 33.95,44.95C33.95,46.383 34.033,47.267 34.2,47.6C34.3,47.833 34.617,47.95 35.15,47.95C35.55,47.95 36.35,47.617 37.55,46.95C38.883,46.183 39.983,45.683 40.85,45.45C41.55,45.283 42.6,45 44,44.6C45.133,44.333 46.017,44.2 46.65,44.2C46.95,44.2 47.1,45.267 47.1,47.4C47.1,47.433 47.117,47.467 47.15,47.5C47.183,47.533 47.233,47.617 47.3,47.75L47.35,47.8C47.45,47.9 47.717,47.95 48.15,47.95C49.283,47.95 50.017,47.667 50.35,47.1C50.517,46.833 50.6,46.267 50.6,45.4C50.6,43.867 49.817,42.133 48.25,40.2C46.617,38.2 45.133,37.25 43.8,37.35L43.8,37.3C43.767,37.267 43.733,37.25 43.7,37.25C43.667,37.25 43.65,37.267 43.65,37.3C43.583,37.333 43.55,37.567 43.55,38C43.55,38.6 43.8,39.317 44.3,40.15C44.333,40.25 44.7,40.767 45.4,41.7L45.55,42.05C43.383,42.217 41.667,42.433 40.4,42.7C40.233,42.733 39.383,42.95 37.85,43.35L37.6,43.45C40.8,36.417 42.4,32.867 42.4,32.8M41.75,21.4C41.75,21.467 41.767,21.583 41.8,21.75C41.933,22.017 42.35,22.6 43.05,23.5C43.55,24.1 43.9,24.517 44.1,24.75C44.1,24.817 44.133,24.883 44.2,24.95L44.45,25.2C44.483,25.4 44.6,25.6 44.8,25.8C44.833,25.833 44.883,25.867 44.95,25.9C44.917,25.9 44.9,25.917 44.9,25.95L46.5,27.85L46.85,28.2C47.183,28.533 47.417,28.817 47.55,29.05C47.617,29.217 47.75,29.367 47.95,29.5C47.983,29.533 48.083,29.683 48.25,29.95C48.317,30.15 48.55,30.25 48.95,30.25C49.417,30.25 49.717,30.167 49.85,30C49.95,29.9 50.033,29.667 50.1,29.3C50.3,28.1 50.4,27.367 50.4,27.1C50.4,26.767 50.283,26.45 50.05,26.15C50.017,26.117 49.983,26.083 49.95,26.05L49.75,25.8L48.7,24.9L48.35,24.65C48.15,24.517 48.017,24.45 47.95,24.45L47.75,24.3L45.95,23.25C44.483,22.05 43.45,21.417 42.85,21.35C42.15,21.25 41.783,21.267 41.75,21.4M42.1,24.7C42.1,24.267 42.017,23.967 41.85,23.8C41.55,23.633 41.3,23.467 41.1,23.3C40.5,23.033 40.15,22.9 40.05,22.9C39.483,22.833 39,23.15 38.6,23.85C38.3,24.35 37.783,25.383 37.05,26.95C36.15,28.883 35.683,30.033 35.65,30.4L35.75,30.65L35.75,30.7C35.817,30.733 36.05,30.75 36.45,30.75C37.117,30.75 37.6,30.567 37.9,30.2C37.967,30.1 38.15,29.75 38.45,29.15L40.6,26.3C40.7,26.2 40.983,26.15 41.45,26.15C41.883,26.017 42.1,25.533 42.1,24.7Z" style="fill-rule:nonzero;" />
            </g>
        </g>
    </g>
</svg>