<!-- Created with sK1/UniConvertor (http://sk1project.org/) --><svg xmlns="http://www.w3.org/2000/svg" xmlns:xlink="http://www.w3.org/1999/xlink" width="122pt" height="128pt" viewBox="0 0 122 128" fill-rule="evenodd"><g><g><path style="stroke:none; fill:#000000" d="M 6.2 8.2L 6.5 15.5L 56.3 15.8L 106 16L 106 71.5L 106 127L 114 127L 122 127L 122 64L 122 1L 64 1L 5.9 1L 6.2 8.2z" /><path style="stroke:none; fill:#000000" d="M 39 37L 39 46L 30.1 46L 21.2 46L 20.6 41.6L 19.9 37.3L 10.7 36.7C 5.7 36.4 1.4 36.2 1.3 36.4C 1.1 36.6 1.7 40.9 2.6 46.1C 4.6 57.4 4 88.6 1.7 98.8C 0.899996 102.2 0.499995 105.2 0.899996 105.4C 1.3 105.7 5.6 105.8 10.5 105.7L 19.5 105.5L 20.4 100.7L 21.3 96L 30.2 96L 39 96L 39 109L 39 122L 49 122L 59 122L 59 109L 59 96L 67 96C 72.7 96 75 96.4 75 97.2C 75 97.9 75.5 100.1 76 102.2L 77 105.8L 86 105.8C 91 105.8 95.2 105.5 95.4 105.2C 95.6 104.8 94.9 99.8 93.9 94C 91.6 80.7 91.5 60.2 93.6 46.8C 94.5 41.3 95 36.6 94.8 36.4C 94.5 36.2 90.3 36.3 85.5 36.8L 76.6 37.5L 75.7 41.8L 74.9 46.1L 67.2 45.8L 59.5 45.5L 59.2 36.7L 58.9 28L 49 28L 39 28L 39 37zM 39 71L 39 85L 31 85L 23 85L 23 71L 23 57L 31 57L 39 57L 39 71zM 73.5 71L 73.5 85L 66.3 85L 59 85L 59 71L 59 57L 66.3 57L 73.5 57L 73.5 71z" /></g></g></svg>