<!DOCTYPE svg PUBLIC "-//W3C//DTD SVG 1.1//EN" "http://www.w3.org/Graphics/SVG/1.1/DTD/svg11.dtd"[]><svg width="220" height="220" viewBox="0 0 220 220" version="1.1" xmlns="http://www.w3.org/2000/svg" xmlns:xlink="http://www.w3.org/1999/xlink" xml:space="preserve" xmlns:serif="http://www.serif.com/" style="fill-rule:evenodd;clip-rule:evenodd;stroke-linejoin:round;stroke-miterlimit:2;">
    <g id="Layer_1" transform="matrix(1,0,0,1,-53.2089,-81.9916)">
        <g>
            <g id="Layer0_0_FILL">
                <path d="M221.9,146C221.467,146.033 221.05,146.15 220.65,146.35C219.85,146.883 218.9,147.683 217.8,148.75C217.633,148.883 217.517,149.067 217.45,149.3C216.85,151 215.75,151.7 214.15,151.4C213.25,151.267 212.05,151.25 210.55,151.35C208.85,151.45 207.183,151.6 205.55,151.8C204.817,151.867 204.083,152 203.35,152.2C199.983,153.067 196.483,153.35 192.85,153.05C192.417,153.017 191.983,153.083 191.55,153.25C189.517,154.05 187.4,154.367 185.2,154.2C181.333,153.9 177.55,154.033 173.85,154.6C173.817,154.467 173.767,154.333 173.7,154.2C172.967,152.267 172.667,150.083 172.8,147.65C172.9,146.25 172.867,144.85 172.7,143.45C172.567,141.683 173.117,140.633 174.35,140.3C174.917,140.167 175.317,139.733 175.55,139C175.617,138.7 175.717,138.5 175.85,138.4C176.417,138.033 176.617,137.367 176.45,136.4C176.417,135.833 176.35,135.3 176.25,134.8C176.15,134.167 175.8,133.683 175.2,133.35C174.467,132.95 173.867,132.567 173.4,132.2C173.133,131.967 172.85,131.833 172.55,131.8C170.883,131.567 169.367,130.95 168,129.95C166.767,129.017 165.55,127.983 164.35,126.85C164.217,126.75 164.1,126.633 164,126.5C163.767,126.133 163.5,125.8 163.2,125.5C162.9,125.133 162.55,124.833 162.15,124.6C161.15,123.867 159.95,123.383 158.55,123.15C156.917,122.85 155.567,123 154.5,123.6C153.233,124.3 152.6,125.467 152.6,127.1C152.6,130.167 152.717,132.367 152.95,133.7C153.117,134.767 153.867,135.967 155.2,137.3C156.633,138.767 157.467,139.85 157.7,140.55C158.433,142.417 158.833,144.75 158.9,147.55C158.933,149.117 158.9,151.367 158.8,154.3C158.8,154.533 158.75,154.967 158.65,155.6C156.783,155.7 155.05,156.017 153.45,156.55C153.217,156.683 152.933,156.767 152.6,156.8C149.233,157.3 145.767,157.55 142.2,157.55C141.133,157.517 140.083,157.65 139.05,157.95C138.75,158.017 138.433,158.067 138.1,158.1C134.833,158.7 131.517,158.983 128.15,158.95C125.217,158.883 122.367,159.083 119.6,159.55C119.4,159.583 119.2,159.617 119,159.65C118.4,158.75 117.7,157.85 116.9,156.95C114.033,153.617 110.5,150.817 106.3,148.55C105.267,147.983 104.283,147.5 103.35,147.1C102.983,146.567 102.617,146.083 102.25,145.65C102.017,145.383 101.783,145.1 101.55,144.8C100.717,143.7 99.6,142.533 98.2,141.3C96.167,139.533 93.917,137.933 91.45,136.5C91.05,136.233 90.65,136.167 90.25,136.3C89.783,136.433 89.133,136.483 88.3,136.45C87.867,136.417 87.433,136.467 87,136.6C85.633,137.067 85.067,138.25 85.3,140.15C85.367,140.517 85.417,140.867 85.45,141.2C85.55,142.167 85.75,142.717 86.05,142.85C86.083,143.383 86.1,143.917 86.1,144.45C86.133,145.317 86.3,145.95 86.6,146.35C86.833,146.683 86.967,147.117 87,147.65C87.133,149.15 87.467,150.55 88,151.85C88.967,154.183 89.45,156.7 89.45,159.4C89.483,159.933 89.5,160.467 89.5,161C89.5,162.233 89.783,163.367 90.35,164.4C90.483,164.6 90.6,164.85 90.7,165.15C90.633,165.55 90.567,165.967 90.5,166.4C90.4,167.133 90.333,167.85 90.3,168.55C89.967,172.45 89.717,176.367 89.55,180.3C89.483,182.233 89.4,184.15 89.3,186.05L89.05,186.05C88.983,187.317 88.917,188.567 88.85,189.8C88.75,191.967 88.433,194.117 87.9,196.25C87.3,198.417 87,200.717 87,203.15C87,204.217 86.867,205.3 86.6,206.4C85.8,210 85.317,213.75 85.15,217.65C85.15,218.183 85.05,218.733 84.85,219.3C84.25,221 83.917,222.767 83.85,224.6C83.817,225.5 83.733,226.417 83.6,227.35C83.433,228.183 83.317,229.05 83.25,229.95C83.15,231.717 82.833,233.367 82.3,234.9C82.1,235.533 81.917,236.183 81.75,236.85C81.617,237.45 81.483,238.033 81.35,238.6C81.183,239.3 81.017,239.967 80.85,240.6C80.683,241.2 80.467,241.783 80.2,242.35C77.333,248.217 74.283,253.883 71.05,259.35C70.517,260.283 70,261.233 69.5,262.2C69.4,262.5 69.283,262.767 69.15,263C68.417,264.967 67.367,266.733 66,268.3C65.1,269.333 64.25,270.5 63.45,271.8C63.283,272.133 63.083,272.417 62.85,272.65C62.65,272.917 62.45,273.2 62.25,273.5C61.983,273.933 61.733,274.4 61.5,274.9C60.9,276.3 60,277.5 58.8,278.5C58,279.133 57.317,279.783 56.75,280.45C56.517,280.683 56.3,280.967 56.1,281.3C55.467,282.533 55.1,283.8 55,285.1C54.867,286.167 54.767,287.233 54.7,288.3C54.667,289.467 55,290.383 55.7,291.05C56.833,292.083 58.35,292.5 60.25,292.3C61.317,292.133 62.367,292 63.4,291.9C64.1,291.867 64.75,291.633 65.35,291.2C65.583,291.033 65.817,290.883 66.05,290.75C66.75,290.35 67.233,289.9 67.5,289.4C68.233,287.9 69.433,287.1 71.1,287C71.567,286.967 71.983,286.817 72.35,286.55C72.883,286.117 73.35,285.583 73.75,284.95C74.35,283.983 75.117,283.417 76.05,283.25C76.217,283.25 76.35,283.133 76.45,282.9C77.217,281.433 78.433,280.333 80.1,279.6C80.733,279.333 81.233,278.867 81.6,278.2C81.867,277.8 82.167,277.433 82.5,277.1C84.233,275.3 85.983,273.267 87.75,271C88.517,270 89.333,269.017 90.2,268.05C92.333,265.617 94.25,263.067 95.95,260.4C96.15,260.133 96.317,259.8 96.45,259.4C97.217,257.767 98,256 98.8,254.1C100.067,251.167 101,247.95 101.6,244.45C101.9,242.85 102.267,241.2 102.7,239.5C103.5,236.233 104.283,232.883 105.05,229.45C105.483,227.417 105.867,225.417 106.2,223.45C106.267,223.117 106.317,222.8 106.35,222.5C107.283,222.4 108.217,222.383 109.15,222.45C112.983,222.717 116.6,222.167 120,220.8C120.3,220.667 120.617,220.583 120.95,220.55C123.017,220.417 125.117,220.3 127.25,220.2C128.15,220.1 129.067,220.017 130,219.95C137.233,219.317 144.533,218.933 151.9,218.8C152,219.633 151.983,220.517 151.85,221.45C151.783,222.217 151.733,222.983 151.7,223.75C152.2,224.75 152.45,225.933 152.45,227.3C152.45,229.933 151.967,233.333 151,237.5C151.033,238.967 151.1,240.55 151.2,242.25C151.467,248.317 151.6,251.483 151.6,251.75L151.6,261C151.533,261.533 151.45,262.05 151.35,262.55C151.483,262.717 151.567,262.917 151.6,263.15C151.867,264.283 152.35,265.35 153.05,266.35C153.483,266.983 153.85,268.033 154.15,269.5C154.317,270.1 154.583,270.617 154.95,271.05C155.517,271.65 156.2,272.217 157,272.75C158.033,272.65 159.167,272.633 160.4,272.7L189.45,272.7C189.917,272.533 190.417,272.367 190.95,272.2C191.117,272.133 191.283,272.083 191.45,272.05C194.117,272.35 197.183,272.55 200.65,272.65C204.45,271.65 209.117,271.383 214.65,271.85C217.583,272.083 220.3,272.467 222.8,273C223.3,272.967 223.8,272.933 224.3,272.9C227.2,272.233 229.467,271.133 231.1,269.6C233.033,267.833 234,265.65 234,263.05C234,262.483 233.983,261.967 233.95,261.5C234.583,259.667 234.9,257.817 234.9,255.95C234.9,253.45 233.833,251.4 231.7,249.8C229.833,248.433 227.467,247.567 224.6,247.2C221.9,246.833 219.533,246.967 217.5,247.6C217.433,247.633 217.383,247.65 217.35,247.65C214.75,247.717 212.283,247.783 209.95,247.85C201.15,250.217 191.867,251.4 182.1,251.4C179.967,251.4 178.167,251.167 176.7,250.7C176.5,250.7 176.317,250.683 176.15,250.65C175.683,250.583 175.233,250.533 174.8,250.5C173.433,250.367 172.067,250.25 170.7,250.15C169.333,250.05 168.5,249.183 168.2,247.55C168.067,246.717 168,245.85 168,244.95C168.033,241.483 167.95,238.083 167.75,234.75C167.617,232.75 167.767,230.833 168.2,229C168.367,228.4 168.55,227.783 168.75,227.15C168.85,226.683 168.883,226.183 168.85,225.65C168.517,222.883 168.367,220.05 168.4,217.15C170.233,216.883 172.067,216.5 173.9,216C174.5,215.867 175.083,215.783 175.65,215.75C181.117,215.583 186.567,215.5 192,215.5L192.4,215.5C193.733,214.8 195.867,214.383 198.8,214.25C201.3,214.15 203.233,214.317 204.6,214.75L207.05,214.7C207.817,214.533 208.667,214.467 209.6,214.5C210.067,214.5 210.517,214.533 210.95,214.6C210.983,214.567 211.017,214.55 211.05,214.55L216.35,214.45C223.483,213.783 227.567,212.967 228.6,212C230.867,211.8 232.983,210.867 234.95,209.2C237.217,207.267 238.35,204.967 238.35,202.3C238.35,200.767 237.983,199.25 237.25,197.75C237.117,197.35 236.983,196.983 236.85,196.65C236.317,195.55 234.95,193.75 232.75,191.25C232.283,190.683 231.883,190.3 231.55,190.1C230.917,189.733 230.083,189.533 229.05,189.5C225.317,188.533 222.667,188.3 221.1,188.8C219.433,189.333 216.217,189.917 211.45,190.55C206.883,191.15 203.7,191.45 201.9,191.45C197.267,191.45 193.45,191.767 190.45,192.4C189.317,192.633 188.433,192.883 187.8,193.15C187.633,193.217 187.45,193.267 187.25,193.3L186.85,193.3C186.617,193.333 186.433,193.383 186.3,193.45L182.75,193.5C178.083,194.233 172.217,195.083 165.15,196.05C149.017,198.217 137.45,199.3 130.45,199.3C129.083,199.3 127.917,199.1 126.95,198.7L123.3,198.75C119.7,199.55 117.25,199.95 115.95,199.95L115.85,199.95C115.583,200.017 115.317,200.067 115.05,200.1C114.75,200.167 114.45,200.283 114.15,200.45C113.717,200.683 113.267,200.767 112.8,200.7C111.633,200.6 110.533,200.7 109.5,201C109.533,200.8 109.567,200.633 109.6,200.5C110.1,198.433 110.333,196.283 110.3,194.05C110.3,193.55 110.333,193.017 110.4,192.45C110.433,191.983 110.483,191.5 110.55,191L110.85,191C110.85,190.533 110.867,190.067 110.9,189.6C111.467,188.733 112.067,187.8 112.7,186.8C114.367,184.267 115.8,181.933 117,179.8C118.2,179.633 119.35,179.4 120.45,179.1C120.917,179 121.367,178.95 121.8,178.95C125.333,178.983 128.817,178.667 132.25,178C132.717,177.933 133.167,177.9 133.6,177.9C136.833,177.967 140,177.717 143.1,177.15C146.5,176.517 149.967,176.283 153.5,176.45C154.567,176.517 155.467,176.4 156.2,176.1C156.7,175.867 157.167,175.75 157.6,175.75C159.5,175.683 161.283,175.367 162.95,174.8C163.55,174.6 164.2,174.433 164.9,174.3L172.15,174.3C175.983,173.3 179.617,172.467 183.05,171.8C187.983,171.733 192.933,171.617 197.9,171.45L198.8,171.45C205.033,171.083 211.217,171.217 217.35,171.85C218.083,171.983 218.783,172.233 219.45,172.6C220.183,173.033 220.967,173.3 221.8,173.4C224.167,174.633 227.5,175.25 231.8,175.25C233.2,175.25 234.967,173.95 237.1,171.35C239.267,168.75 240.35,166.683 240.35,165.15C240.05,164.75 239.733,164.35 239.4,163.95C239.533,162.417 239.233,161.1 238.5,160C238.3,159.633 238.067,159.233 237.8,158.8C237.333,157.933 236.917,157.033 236.55,156.1C236.417,155.833 236.283,155.567 236.15,155.3C235.983,155.033 235.8,154.75 235.6,154.45C235.233,153.85 234.867,153.433 234.5,153.2C231.7,151.267 229.15,149.4 226.85,147.6C225.35,146.4 223.7,145.867 221.9,146M267.4,92.45L144.1,92.45C138.2,92.45 132.317,92.517 126.45,92.65C126.283,92.683 126.117,92.7 125.95,92.7C124.017,92.867 122.067,92.95 120.1,92.95C119.5,92.95 118.917,92.867 118.35,92.7C115.25,91.967 112.05,91.75 108.75,92.05C108.15,92.083 107.567,92.15 107,92.25C106.4,92.383 105.817,92.333 105.25,92.1C104.383,91.733 103.45,91.583 102.45,91.65C99.717,91.817 97,91.983 94.3,92.15C94,92.15 93.717,92.133 93.45,92.1C91.683,91.933 90.117,92.317 88.75,93.25C88.517,93.417 88.35,93.567 88.25,93.7C87.383,95.2 86.2,96.35 84.7,97.15C83.467,97.817 83,99.083 83.3,100.95C83.367,101.35 83.317,101.617 83.15,101.75C82.583,102.383 82.35,103.383 82.45,104.75C82.483,105.117 82.583,105.367 82.75,105.5C82.917,105.7 83.083,105.867 83.25,106C83.517,106.233 83.75,106.517 83.95,106.85C84.217,107.25 84.433,107.65 84.6,108.05C84.7,108.35 84.833,108.567 85,108.7C85.933,109.6 86.883,110.633 87.85,111.8C88.217,112.267 88.6,112.7 89,113.1C89.433,113.6 89.7,114.017 89.8,114.35C90.833,114.517 91.617,114.8 92.15,115.2C92.383,115.367 92.633,115.45 92.9,115.45C93.5,115.483 94,115.583 94.4,115.75C94.633,115.917 94.883,116.017 95.15,116.05C97.05,116.383 98.883,116.833 100.65,117.4C103.283,118.133 105.983,118.517 108.75,118.55C109.617,118.55 110.267,118.667 110.7,118.9C111.233,119.1 111.783,119.2 112.35,119.2C115.383,119.2 118.417,119.117 121.45,118.95C121.783,118.95 122.1,118.883 122.4,118.75C124.167,118.05 126.1,117.767 128.2,117.9C131.3,118.033 134.317,117.8 137.25,117.2C137.883,117.1 138.517,116.933 139.15,116.7C139.583,116.567 140.017,116.517 140.45,116.55C143.817,116.683 147.15,116.45 150.45,115.85C150.917,115.75 151.367,115.683 151.8,115.65C153.6,115.517 155.417,115.517 157.25,115.65C158.35,115.783 159.15,115.617 159.65,115.15C159.85,114.983 160.083,114.883 160.35,114.85C163.117,114.35 166,114.1 169,114.1L169.9,114.1C175.933,113.933 181.95,113.85 187.95,113.85L251.4,113.85C251.5,115.25 251.65,116.633 251.85,118C252.017,118.8 252.233,119.583 252.5,120.35C252.667,120.85 252.7,121.333 252.6,121.8C252.533,122.2 252.483,122.567 252.45,122.9C252.15,125.567 252.517,128.1 253.55,130.5C254.15,131.967 254.383,133.55 254.25,135.25C254.15,136.483 254.033,137.733 253.9,139C253.867,139.367 253.833,139.717 253.8,140.05C253.7,142.883 253.7,145.75 253.8,148.65C254.2,155.883 254.35,163.2 254.25,170.6C254.15,177.9 254.1,185.217 254.1,192.55L254.1,269.8C254.4,270.667 254.7,271.5 255,272.3C255.8,274.533 256.95,276.55 258.45,278.35C258.717,278.617 258.967,278.883 259.2,279.15C259.433,279.417 259.683,279.583 259.95,279.65C263.117,280.65 265.7,280.183 267.7,278.25C268.5,277.417 269.317,276.433 270.15,275.3C270.283,275.1 270.367,274.817 270.4,274.45C270.533,273.217 270.617,271.967 270.65,270.7C270.783,263.367 270.85,256.05 270.85,248.75L270.85,115.6C270.883,114.667 270.95,113.75 271.05,112.85C271.15,111.783 271.267,110.683 271.4,109.55C271.667,106.95 271.767,104.283 271.7,101.55C271.633,99.717 271.333,97.917 270.8,96.15C270.667,95.817 270.483,95.517 270.25,95.25C269.383,94.483 268.433,93.55 267.4,92.45Z" style="fill-rule:nonzero;" />
            </g>
        </g>
    </g>
</svg>