<!DOCTYPE svg PUBLIC "-//W3C//DTD SVG 1.1//EN" "http://www.w3.org/Graphics/SVG/1.1/DTD/svg11.dtd"[]><svg width="30" height="30" viewBox="0 0 30 30" version="1.1" xmlns="http://www.w3.org/2000/svg" xmlns:xlink="http://www.w3.org/1999/xlink" xml:space="preserve" xmlns:serif="http://www.serif.com/" style="fill-rule:evenodd;clip-rule:evenodd;stroke-linejoin:round;stroke-miterlimit:2;">
    <g id="Layer_1" transform="matrix(1,0,0,1,-561.6,-273.125)">
        <g>
            <g id="Layer0_0_FILL">
                <path d="M589.95,277.5C589.757,277.302 589.524,277.202 589.25,277.2L563.95,277.2C563.676,277.202 563.443,277.302 563.25,277.5C563.052,277.693 562.952,277.926 562.95,278.2C562.952,278.474 563.052,278.707 563.25,278.9C563.443,279.098 563.676,279.198 563.95,279.2L588.25,279.2L588.25,298.05C588.252,298.324 588.352,298.557 588.55,298.75C588.743,298.948 588.976,299.048 589.25,299.05C589.524,299.048 589.757,298.948 589.95,298.75C590.148,298.557 590.248,298.324 590.25,298.05L590.25,278.2C590.248,277.926 590.148,277.693 589.95,277.5M581.9,284.05L581.45,284L580.35,284C580.017,284 579.767,284.033 579.6,284.1L578.15,284.45C577.583,284.55 577,284.733 576.4,285L575.3,285.45C575.367,284.383 575.333,283.483 575.2,282.75C575.133,282.417 575.033,282.183 574.9,282.05C574.733,281.917 574.483,281.85 574.15,281.85L572.8,281.95C572.267,282.117 571.933,282.3 571.8,282.5C571.533,282.833 571.517,283.183 571.75,283.55C571.883,283.85 572.117,284.05 572.45,284.15L572.45,286.25C572.35,286.25 572.267,286.267 572.2,286.3L565.6,288.1C565.3,288.167 565.083,288.283 564.95,288.45C564.883,288.55 564.85,288.717 564.85,288.95C564.85,289.117 564.867,289.25 564.9,289.35C565,289.483 565.1,289.617 565.2,289.75C565.5,290.05 565.833,290.267 566.2,290.4C566.767,290.533 567.35,290.517 567.95,290.35C568.217,290.283 568.467,290.2 568.7,290.1L569.55,289.65C569.85,289.483 570.283,289.283 570.85,289.05L572.1,288.6L572,291.55L572,292.5C572.067,293.367 572.217,294.033 572.45,294.5C572.75,295.167 573.233,295.65 573.9,295.95C574.467,296.183 575.267,296.233 576.3,296.1L579.3,295.8C580.367,295.667 581.15,295.533 581.65,295.4C582.017,295.333 582.283,295.217 582.45,295.05C582.75,294.817 582.85,294.567 582.75,294.3C582.683,293.9 582.283,293.7 581.55,293.7C581.35,293.7 580.367,293.767 578.6,293.9C577.4,294 576.417,293.967 575.65,293.8C575.517,293.8 575.4,293.75 575.3,293.65C575.267,293.617 575.2,293.467 575.1,293.2C574.867,291.867 574.8,290.433 574.9,288.9C574.967,288.367 575.033,287.883 575.1,287.45C575.333,287.383 575.55,287.317 575.75,287.25L577.9,286.7L578.15,286.6C578.283,286.567 578.5,286.533 578.8,286.5C578.9,286.467 579.183,286.4 579.65,286.3C579.517,286.567 579.267,286.883 578.9,287.25L576.1,290.35L576.1,290.45C576,290.617 575.95,290.767 575.95,290.9C575.95,291.133 576.033,291.3 576.2,291.4C576.267,291.467 576.433,291.5 576.7,291.5L577.05,291.45L577.7,291.1L577.9,290.95L581.4,288.75C581.5,288.683 581.6,288.617 581.7,288.55L581.95,288.35C582.15,288.25 582.417,288.067 582.75,287.8C582.917,287.7 583.05,287.55 583.15,287.35C583.217,287.117 583.2,286.817 583.1,286.45C583.067,286.183 582.983,285.883 582.85,285.55C582.75,285.217 582.633,284.967 582.5,284.8C582.3,284.367 582.1,284.117 581.9,284.05Z" style="fill-rule:nonzero;" />
            </g>
        </g>
    </g>
</svg>