<?xml version="1.0" encoding="UTF-8" standalone="no"?>
<!DOCTYPE svg PUBLIC "-//W3C//DTD SVG 1.1//EN" "http://www.w3.org/Graphics/SVG/1.1/DTD/svg11.dtd">
<svg width="100%" height="100%" viewBox="0 0 40 40" version="1.1" xmlns="http://www.w3.org/2000/svg" xmlns:xlink="http://www.w3.org/1999/xlink" xml:space="preserve" xmlns:serif="http://www.serif.com/" style="fill-rule:evenodd;clip-rule:evenodd;stroke-linejoin:round;stroke-miterlimit:2;">
    <g id="Layer_1" transform="matrix(1,0,0,1,-159.225,-139.725)">
        <g>
            <g id="Layer0_0_FILL">
                <path d="M186.4,152.9C186.133,152.9 185.9,152.917 185.7,152.95L182.05,152.95L181.9,152.9L179.65,152.9C176.717,152.633 174.3,152.4 172.4,152.2C171.267,152.033 170.317,151.9 169.55,151.8C168.85,151.8 168.133,151.833 167.4,151.9C167.2,151.8 167,151.717 166.8,151.65C165.6,151.35 165,151.583 165,152.35C165,152.817 165.083,153.25 165.25,153.65C165.417,154.117 165.667,154.433 166,154.6C166.333,154.833 166.7,154.95 167.1,154.95C168.9,154.85 170.7,154.783 172.5,154.75C174.567,154.65 176.517,154.667 178.35,154.8C180.35,154.9 182.383,154.983 184.45,155.05L183.5,155.65L181.05,156.65C181.017,156.717 181,156.8 181,156.9C180.833,156.9 180.7,156.933 180.6,157C178.633,157.7 177.55,158.317 177.35,158.85C176.95,159.05 176.667,159.167 176.5,159.2C176.2,159.1 175.85,158.983 175.45,158.85L175.35,158.75C175.283,158.717 175.233,158.7 175.2,158.7C173.7,158.233 172.95,158.4 172.95,159.2C172.95,159.533 173.167,159.9 173.6,160.3C174.033,160.767 174.283,161.067 174.35,161.2C174.383,161.433 174.433,161.883 174.5,162.55L174.5,168.3L164.95,168.3C164.65,168.2 164.283,168.133 163.85,168.1C161.917,167.733 160.95,168.133 160.95,169.3C160.95,169.567 161.05,169.9 161.25,170.3C161.283,170.533 161.4,170.75 161.6,170.95C161.733,171.05 161.85,171.117 161.95,171.15C162.183,171.383 162.517,171.5 162.95,171.5C163.15,171.5 163.35,171.467 163.55,171.4L164.65,171.4C165.15,171.2 165.967,171.017 167.1,170.85L171.95,170.85L172.2,170.8C172.233,170.8 172.917,170.767 174.25,170.7L180.75,170.55C181.917,170.65 182.783,170.733 183.35,170.8L188.6,171C188.767,171 189.083,171.1 189.55,171.3C190.15,171.3 190.667,171.367 191.1,171.5L192,171.5C192.2,171.5 192.383,171.467 192.55,171.4C192.817,170.933 192.95,170.617 192.95,170.45C192.95,170.25 192.833,170.05 192.6,169.85C192.5,169.55 192.283,169.267 191.95,169C191.217,168.433 190.083,168.183 188.55,168.25C188.483,168.283 188.433,168.3 188.4,168.3L177.6,168.3L177.6,161.35L177.75,161.3L177.75,161.2C177.75,160.767 178.65,160.2 180.45,159.5C181.783,158.967 182.75,158.633 183.35,158.5C183.417,158.5 183.5,158.483 183.6,158.45L183.75,158.35C183.95,158.317 184.15,158.25 184.35,158.15C185.283,157.783 186.083,157.55 186.75,157.45C187.217,157.183 187.533,157.05 187.7,157.05C189.233,156.85 190,156.417 190,155.75C188.767,152.35 187.567,151.4 186.4,152.9M167.2,144.55C167.433,144.617 167.683,144.667 167.95,144.7L194.4,144.7L194.4,175C194.5,175.233 194.583,175.467 194.65,175.7C195.05,176.933 195.267,177.583 195.3,177.65L195.4,177.7C195.567,177.767 195.75,177.8 195.95,177.8C196.35,177.8 196.7,177.65 197,177.35C197.333,177.017 197.5,176.65 197.5,176.25L197.5,142.15C197.4,142.017 197.233,141.867 197,141.7L196.95,141.65L163.25,141.65C162.85,141.65 162.483,141.8 162.15,142.1L162.15,142.15C162.117,142.317 162.1,142.533 162.1,142.8C162.1,143.567 162.433,144.05 163.1,144.25C163.467,144.35 164.15,144.45 165.15,144.55L167.2,144.55Z" style="fill-rule:nonzero;"/>
            </g>
        </g>
    </g>
</svg>
