<?xml version="1.0" encoding="UTF-8" standalone="no"?><!DOCTYPE svg PUBLIC "-//W3C//DTD SVG 1.1//EN" "http://www.w3.org/Graphics/SVG/1.1/DTD/svg11.dtd"><svg width="100%" height="100%" viewBox="0 0 135 135" version="1.1" xmlns="http://www.w3.org/2000/svg" xmlns:xlink="http://www.w3.org/1999/xlink" xml:space="preserve" xmlns:serif="http://www.serif.com/" style="fill-rule:evenodd;clip-rule:evenodd;stroke-linecap:round;stroke-linejoin:round;stroke-miterlimit:1.5;"><g><path d="M34.406,29.289l65.118,0" style="fill:none;stroke:#000;stroke-width:7.6px;"/><path d="M65.232,16.188l-0,49.321" style="fill:none;stroke:#000;stroke-width:7.6px;"/><path d="M30.553,41.234l-0.385,23.119l67.815,-0.386l0,-21.962l-67.43,-0.771Z" style="fill:none;stroke:#000;stroke-width:7.6px;"/><path d="M30.553,52.793l67.43,0" style="fill:none;stroke:#000;stroke-width:7.6px;"/><path d="M42.113,81.307c-20.687,-1.156 -24.725,18.989 3.853,17.339l44.696,-0.386c18.266,-2.36 17.061,-17.548 -2.697,-17.724" style="fill:none;stroke:#000;stroke-width:7.6px;"/><path d="M46.736,66.279l10.404,14.257l-0.771,23.889l10.404,6.165l8.862,4.239" style="fill:none;stroke:#000;stroke-width:7.6px;"/><path d="M81.8,66.279l-9.248,15.413l-0.385,23.119l-5.394,2.697" style="fill:none;stroke:#000;stroke-width:7.6px;"/><path d="M57.14,80.151l16.398,-0.102" style="fill:none;stroke:#000;stroke-width:7.6px;"/><circle cx="66.387" cy="66.665" r="61.265" style="fill:none;stroke:#000;stroke-width:7.6px;"/></g></svg>