<?xml version="1.0" encoding="UTF-8" standalone="no"?>
<!DOCTYPE svg PUBLIC "-//W3C//DTD SVG 1.1//EN" "http://www.w3.org/Graphics/SVG/1.1/DTD/svg11.dtd">
<svg width="270px" height="270px" version="1.1" xmlns="http://www.w3.org/2000/svg" xmlns:xlink="http://www.w3.org/1999/xlink" xml:space="preserve" xmlns:serif="http://www.serif.com/" style="fill-rule:evenodd;clip-rule:evenodd;stroke-linejoin:round;stroke-miterlimit:2;">
    <g id="Page-1" serif:id="Page 1" transform="matrix(1,0,0,1,-25,-25)">
        <rect x="0" y="0" width="320" height="320" style="fill:none;"/>
    </g>
    <g id="Page-11" serif:id="Page 1" transform="matrix(1,0,0,1,-25,-25)">
        <g id="Layer-1" serif:id="Layer 1">
            <path d="M238.112,142.534C209.511,142.534 181.679,84.075 159.942,84.075C158.716,84.075 157.509,84.269 156.356,84.655C142.883,89.153 114.82,142.504 72.642,142.504L72.425,142.503C69.061,142.489 65.221,140.537 64.869,137.656C64.654,135.9 65.58,133.509 71.207,132.086C99.156,125.019 128.838,96.189 147.572,70.905C149.793,67.908 145.445,64.692 147.486,61.787C148.502,60.341 150.488,60.146 152.297,60.146C163.078,60.146 170.232,61.842 170.192,72.282C171.336,75.426 212.435,115.267 247.916,128.714C249.77,129.417 255.417,131.556 254.672,135.622C253.808,140.338 244.281,142.534 238.114,142.534L238.112,142.534ZM191.229,201.245C195.921,195.272 201.893,190.553 203.721,183.34C203.834,182.898 204.367,181.456 206.529,181.456C206.625,181.456 222.948,183.346 221.199,192.695C218.948,204.727 208.763,197.815 199.388,207.735C195.522,211.825 186.454,207.318 191.229,201.245M90.422,236.348C76.708,236.348 77.221,221.257 77.165,221.1C77.084,218.628 78.525,216.923 81.379,216.923C84.292,216.923 86.895,218.641 99.474,216.286C105.459,215.165 121.584,211.314 121.691,211.275C115.617,201.771 105.697,200.563 107.396,194.006C107.701,192.826 108.985,190.071 114.289,189.959C119.84,189.841 125.865,190.668 129.75,194.693C135.127,200.264 133.583,208.715 133.969,209.118C134.061,209.213 146.292,209.905 151.61,205.859C152.769,204.977 153.26,206.878 153.031,174.569C153.011,171.753 152.217,171.753 151.12,171.753C150.314,171.753 126.134,175.54 112.201,182.86C106.929,185.628 104.114,183.245 104.574,178.478C105.221,171.766 106.469,166.906 116.691,165.49C127.883,163.939 139.529,160.575 151.07,157.371C155.007,156.284 152.779,147.609 152.513,146.623C149.512,135.534 126.168,148.919 119.905,148.919C116.753,148.919 115.258,146.755 115.682,143.491C117.13,132.367 126.768,131.731 133.146,131.31C161.253,129.462 174.059,127.156 204.718,131.272C210.559,132.058 210.231,139.544 201.529,141.185C192.568,142.875 183.877,140.548 175.43,140.759C170.322,140.884 169.149,142.571 168.41,147.259C167.716,151.662 167.829,153.846 168.812,155.046C169.971,156.46 173.014,157.195 178.681,157.429C195.637,158.128 204.594,160.631 222.414,162.164C228.092,162.652 231.06,167.656 223.14,171.526C219.485,173.311 216.24,174.108 212.616,174.108C203.146,174.108 204.439,171.162 169.783,171.599C167.519,171.628 166.981,171.635 166.823,174.899C166.277,186.067 165.847,194.888 167.982,206.073C168.395,208.243 198.215,212.207 217.543,212.207C228.628,212.207 241.489,210.99 243.563,215.846C244.758,218.64 242.141,221.717 239.596,224.379C235.131,229.051 228.057,231.623 219.68,231.623C203.588,231.623 197.712,220.583 166.719,220.583C106.859,220.583 98.232,236.348 90.422,236.348M158.755,44C96.405,44 44,96.63 44,159.255C44,215.233 89.16,276 159.842,276C224.026,276 276,222.035 276,159.331C276,95.116 219.885,44 158.755,44M160.538,288C88.485,288 32,228.702 32,159.968C32,91.325 89.072,32.206 158.757,32C226.65,31.8 288,90.624 288,160.791C288,229.333 231.216,288 160.538,288" style="fill-rule:nonzero;"/>
        </g>
    </g>
</svg>
