<?xml version="1.0" encoding="UTF-8" standalone="no"?><!DOCTYPE svg PUBLIC "-//W3C//DTD SVG 1.1//EN" "http://www.w3.org/Graphics/SVG/1.1/DTD/svg11.dtd"><svg width="100%" height="100%" viewBox="0 0 120 120" version="1.1" xmlns="http://www.w3.org/2000/svg" xmlns:xlink="http://www.w3.org/1999/xlink" xml:space="preserve" xmlns:serif="http://www.serif.com/" style="fill-rule:evenodd;clip-rule:evenodd;stroke-linecap:round;stroke-linejoin:round;stroke-miterlimit:1.5;"><path d="M78,26.435c-0,-0.633 0.358,-1.211 0.925,-1.493c1.859,-0.918 3.771,-0.914 5.746,0.083c0.503,0.253 0.821,0.769 0.821,1.332c0.008,1.257 0.008,3.618 0.008,5.16c-0,0.393 0.156,0.77 0.434,1.049c0.279,0.278 0.656,0.434 1.049,0.434c2.112,0 5.939,0 7.857,0c0.754,0 1.49,0.236 2.104,0.674c0.547,0.391 1.262,0.901 1.951,1.394c1.337,0.955 1.735,2.768 0.919,4.195c-0.24,0.42 -0.483,0.845 -0.703,1.23c-0.52,0.911 -1.54,1.419 -2.581,1.285c-3.478,-0.47 -6.753,-0.962 -9.749,-0.694c-0.726,0.082 -1.275,0.696 -1.275,1.427c-0.006,0.861 -0.006,2.015 -0.006,2.968c0,1.19 -0.812,2.226 -1.968,2.51c-1.581,0.394 -3.225,0.369 -4.954,-0.201c-0.772,-0.257 -1.293,-0.98 -1.293,-1.794c-0.035,-1.026 -0.035,-2.491 -0.035,-3.65c-0,-1.018 -0.826,-1.844 -1.844,-1.844c-2.514,0 -6.751,0 -7.129,0c-0.017,-0 -0.034,-0.006 -0.048,-0.017c-0.016,-0.014 -0.043,-0.036 -0.078,-0.065c-1.053,-0.878 -1.639,-2.194 -1.588,-3.563c0.051,-1.37 0.734,-2.638 1.849,-3.435c0.1,-0.072 0.191,-0.136 0.268,-0.192c0.208,-0.148 0.457,-0.228 0.713,-0.228c1.202,0 4.88,0 7.019,0c0.421,-0 0.825,-0.167 1.123,-0.465c0.298,-0.298 0.465,-0.702 0.465,-1.123c0,-1.51 0,-3.731 0,-4.977Z"/><path d="M24.609,36.879c-0.75,-1.314 -0.294,-2.988 1.02,-3.738c0.745,-0.426 1.516,-0.867 2.071,-1.184c0.524,-0.3 1.117,-0.457 1.721,-0.457c1.774,0 5.662,0 7.633,-0c0.661,-0 1.196,-0.535 1.196,-1.196l0,-4.564c0,-0.64 0.224,-1.259 0.634,-1.75c0.066,-0.08 0.135,-0.163 0.208,-0.251c0.696,-0.834 1.739,-1.3 2.825,-1.259c1.086,0.04 2.091,0.582 2.723,1.466c0.208,0.291 0.401,0.561 0.566,0.792c0.354,0.495 0.544,1.09 0.544,1.699l0,2.983c0,0.734 0.596,1.33 1.33,1.33c2.297,0 6.954,0 8.963,0c0.571,-0 1.079,0.366 1.26,0.908c0.093,0.281 0.193,0.58 0.275,0.825c0.113,0.34 0.141,0.702 0.082,1.054c-0.098,0.592 -0.261,1.57 -0.401,2.407c-0.165,0.993 -0.734,1.873 -1.572,2.431c-0.194,0.129 -0.38,0.253 -0.534,0.356c-0.263,0.176 -0.572,0.269 -0.887,0.269c-1.254,0 -4.639,0 -6.499,0c-0.336,-0 -0.658,0.133 -0.896,0.371c-0.238,0.238 -0.371,0.56 -0.371,0.896c0,1.42 0,3.701 0,5.075c0,0.673 -0.475,1.253 -1.136,1.385c-0.773,0.155 -1.842,0.369 -2.883,0.577c-1.922,0.384 -3.793,-0.863 -4.177,-2.785c-0.004,-0.019 -0.008,-0.037 -0.011,-0.054c-0.029,-0.143 -0.043,-0.288 -0.043,-0.434c0,-0.574 0,-2.152 0,-3.223c0,-0.281 -0.111,-0.55 -0.31,-0.748c-0.198,-0.199 -0.467,-0.31 -0.748,-0.31c-2.101,-0 -6.811,-0 -9.311,-0c-1.009,-0 -1.94,-0.54 -2.44,-1.416c-0.257,-0.449 -0.547,-0.958 -0.832,-1.455Z"/><path d="M21.154,55.178c-1.126,0.985 -1.739,2.431 -1.666,3.925c0.074,1.494 0.827,2.872 2.044,3.741c0.139,0.099 0.218,0.156 0.218,0.156l22.935,-0c1.055,0 1.964,0.745 2.171,1.78c0.088,0.442 0.178,0.892 0.25,1.25c0.094,0.472 0.064,0.96 -0.088,1.417c-0.421,1.263 -1.268,3.803 -1.268,3.803l-3.75,6.75l-6.75,9l-6.75,6c-0.997,6.438 6.367,5.909 8.25,5.25l1.5,-1.5c0,0 7.41,-9.359 11.543,-14.58c1.71,-2.16 4.314,-3.42 7.069,-3.42c5.699,0 15.377,0 18.981,-0c0.373,0 0.731,0.148 0.995,0.412c0.264,0.264 0.412,0.622 0.412,0.995c-0,0.398 -0,0.804 -0,1.107c0,0.319 -0.08,0.633 -0.233,0.913c-0.922,1.69 -4.267,7.823 -4.267,7.823c-0,0 -2.524,3.966 -4.071,6.398c-0.727,1.142 -2.019,1.796 -3.369,1.706c-2.485,-0.166 -6.418,-0.428 -8.168,-0.545c-0.581,-0.038 -1.159,0.101 -1.658,0.401c-0.316,0.189 -0.697,0.418 -1.079,0.647c-1.104,0.662 -1.577,2.018 -1.125,3.223c0.273,0.728 0.576,1.536 0.836,2.229c0.394,1.052 1.304,1.825 2.405,2.045c1.466,0.293 3.605,0.721 5.481,1.096c2.576,0.516 5.251,0.069 7.52,-1.255c1.161,-0.677 2.413,-1.407 3.427,-1.999c1.342,-0.782 2.446,-1.916 3.193,-3.278c2.607,-4.754 8.929,-16.283 10.965,-19.995c0.424,-0.774 0.688,-1.626 0.776,-2.504c0.055,-0.546 0.121,-1.211 0.19,-1.901c0.239,-2.393 -1.436,-4.555 -3.813,-4.92c-1.908,-0.294 -3.949,-0.608 -4.925,-0.758c-0.389,-0.06 -0.783,-0.09 -1.177,-0.09l-21.405,0c-0.32,-0 -0.626,-0.136 -0.841,-0.373c-0.215,-0.238 -0.319,-0.555 -0.287,-0.874c0.114,-1.144 0.286,-2.861 0.42,-4.206c0.116,-1.157 1.099,-2.032 2.261,-2.013c8.635,0.144 41.578,0.693 42.903,0.715c0.027,0.001 0.054,-0.004 0.08,-0.013c0.013,-0.004 0.028,-0.01 0.047,-0.017c1.681,-0.6 2.823,-2.168 2.878,-3.952c0.055,-1.784 -0.988,-3.42 -2.628,-4.123c-0.201,-0.086 -0.32,-0.137 -0.334,-0.143c-0.001,-0.001 -0.003,-0.001 -0.004,-0.001c-0.249,-0.011 -28.801,-1.226 -34.328,-1.461c-0.526,-0.022 -0.953,-0.432 -0.996,-0.957c-0.147,-1.755 -0.464,-5.559 -0.604,-7.247c-0.044,-0.524 -0.337,-0.995 -0.789,-1.266c-0.268,-0.161 -0.588,-0.353 -0.919,-0.552c-1.304,-0.782 -2.93,-0.8 -4.251,-0.045c-0.881,0.504 -1.839,1.051 -2.455,1.403c-0.406,0.232 -0.656,0.663 -0.656,1.13c-0,1.41 -0,4.455 -0,6.198c-0,0.717 -0.581,1.297 -1.297,1.297c-6.192,-0 -32.453,-0 -32.453,-0c-0,-0 -0.564,0.494 -1.346,1.178Z"/><circle cx="59.625" cy="60.375" r="55.875" style="fill:none;stroke:#000;stroke-width:4.86px;"/></svg>