<!DOCTYPE svg PUBLIC "-//W3C//DTD SVG 1.1//EN" "http://www.w3.org/Graphics/SVG/1.1/DTD/svg11.dtd"[]><svg width="370" height="370" viewBox="0 0 370 370" version="1.1" xmlns="http://www.w3.org/2000/svg" xmlns:xlink="http://www.w3.org/1999/xlink" xml:space="preserve" xmlns:serif="http://www.serif.com/" style="fill-rule:evenodd;clip-rule:evenodd;stroke-linecap:round;stroke-linejoin:round;stroke-miterlimit:1.5;">
    <g transform="matrix(1,0,0,1,-605.019,-316.075)">
        <path d="M788,419C787.162,418.556 791.707,414.919 793.396,414.939C819.205,415.242 851.448,411.948 877.411,412.891C878.123,412.92 878.785,413.268 879.211,413.838C879.638,414.409 879.785,415.142 879.611,415.833C878.018,422.005 872.562,425.733 868,428C847.967,430.299 827.933,432.598 807.9,434.897C807.307,434.965 806.735,435.159 806.223,435.466C804.46,436.524 800.152,439.109 798.11,440.334C797.458,440.725 796.623,440.623 796.085,440.085C794.815,438.815 792.491,436.491 790.851,434.851C789.657,433.657 788.934,432.073 788.813,430.389C788.524,426.338 788,419 788,419Z" />
        <path d="M820.533,388.311C819.887,388.742 819.455,389.427 819.343,390.195C819.232,390.963 819.452,391.742 819.949,392.339C821.547,394.256 823.818,396.981 825.541,399.049C827.124,400.948 827.945,403.368 827.846,405.839C827.441,415.987 826.351,443.231 826.068,450.303C826.029,451.277 825.28,452.073 824.311,452.172C817.698,452.847 793.389,455.328 782.426,456.446C779.289,456.766 776.836,459.295 776.611,462.441C776.44,464.835 776.251,467.485 776.129,469.193C776.044,470.379 776.261,471.566 776.759,472.644C777.907,475.132 780.073,479.825 781.228,482.328C781.408,482.718 781.763,482.998 782.184,483.083C782.605,483.167 783.041,483.046 783.357,482.756C785.495,480.797 789.652,476.986 792.09,474.751C793.324,473.62 794.916,472.957 796.589,472.879C806.478,472.415 841.924,470.754 853.964,470.189C856.336,470.078 858.479,471.596 859.161,473.87C860.306,477.687 862.034,483.446 863.085,486.95C863.305,487.683 863.175,488.476 862.732,489.099C862.29,489.723 861.585,490.108 860.821,490.143C835.342,491.33 808.958,493.422 781.373,496.714C779.965,496.883 778.863,498.006 778.722,499.417C777.993,506.836 778.349,513.312 779.552,519.052C779.656,519.521 779.97,519.917 780.404,520.124C780.838,520.331 781.343,520.326 781.773,520.111C785.163,518.418 792.536,514.732 796.055,512.973C797.345,512.327 798.746,511.935 800.184,511.816C820.228,510.174 839.948,509.61 859.409,509.913C861.97,509.956 864.038,512.02 864.086,514.581C864.239,522.723 864.559,539.681 864.723,548.426C864.797,552.323 863.618,556.142 861.36,559.319C856.8,565.777 852.033,570.256 846,574C845.507,574.306 845.003,574.593 844.489,574.86C837.339,578.479 828.613,579.94 818.15,579.013C818.046,579.004 817.941,578.997 817.835,578.993C808.253,578.579 798.799,576.36 789.413,573.193C788.796,572.983 788.113,573.149 787.661,573.619C787.209,574.089 787.07,574.778 787.304,575.386C788.016,577.242 788.9,579.541 789.625,581.426C790.497,583.692 792.374,585.422 794.704,586.106C803.188,588.555 813.078,590.879 825.711,592.953C825.908,592.985 826.107,593.01 826.306,593.028C836.836,593.965 846.561,593.595 855.393,591.774C856.317,591.578 857.189,591.186 857.947,590.623C860.271,588.903 865.759,584.829 870.55,581.273C875.997,577.23 879.433,571.032 879.977,564.27C881.13,548.962 881.464,532.613 880.306,514.4C880.147,511.945 881.961,509.805 884.409,509.561C890.298,508.97 900,508 900,508C907.247,504.957 911.677,500.36 913.924,494.559C914.244,493.738 914.15,492.813 913.671,492.073C913.193,491.333 912.387,490.868 911.507,490.824C903.923,490.458 896.114,490.482 888.158,490.749C884.367,490.879 880.822,488.874 878.979,485.558C878.977,485.559 878.977,485.559 878.977,485.559C877.702,483.264 877.303,480.586 877.853,478.019C878.155,476.608 878.501,474.994 878.826,473.48C879.519,470.246 882.294,467.879 885.596,467.705C891.201,467.41 899,467 899,467C902.305,465.494 905.418,462.842 908,457C908,457 908,456.999 908,456.998C907.759,455.311 906.756,453.827 905.28,452.974C903.805,452.121 902.019,451.992 900.436,452.626C899.742,452.903 899.092,453.163 898.549,453.38C897.527,453.789 896.433,453.99 895.332,453.97C887.583,453.829 855.051,453.237 844.983,453.054C843.318,453.024 841.975,451.682 841.944,450.017C841.787,441.728 841.345,418.261 841.126,406.66C841.044,402.312 842.212,398.031 844.491,394.327C845.437,392.79 846.421,391.191 847.228,389.88C847.674,389.155 847.784,388.273 847.53,387.46C847.275,386.648 846.681,385.986 845.902,385.644C844.245,384.92 842.133,383.996 840.099,383.106C835.675,381.17 830.57,381.62 826.553,384.298C824.428,385.715 822.187,387.208 820.533,388.311Z" />
        <path d="M791.332,536.509C789.973,536.795 789,537.994 789,539.383L789,553.545C789,554.159 789.268,554.742 789.735,555.142C790.201,555.541 790.819,555.717 791.426,555.623C799.287,554.4 823.992,550.557 831.688,549.36C833.196,549.125 834.602,548.453 835.731,547.426C837.827,545.521 841.328,542.339 843.374,540.478C844.301,539.635 844.451,538.232 843.723,537.212C843.115,536.362 842.38,535.332 841.724,534.413C840.647,532.905 838.888,532.035 837.036,532.093C830.044,532.311 812.815,532.85 808.831,532.974C808.278,532.991 807.728,533.057 807.186,533.171C804.462,533.745 795.596,535.611 791.332,536.509Z" />
        <path d="M728.527,401.855C727.566,402.576 727.007,403.712 727.023,404.913C727.293,423.907 728.635,442.511 730.747,460.836C730.813,461.401 730.643,461.968 730.278,462.405C729.913,462.841 729.385,463.109 728.817,463.144C721.623,463.582 714.429,463.661 707.235,463.171C705.872,463.074 704.684,462.206 704.176,460.937C703.475,459.188 702.478,456.695 701.789,454.972C701.26,453.65 701.103,452.208 701.337,450.803C702.907,442.117 706.575,432.637 710.772,424.273C711.253,423.323 711.11,422.177 710.411,421.373C709.098,419.862 706.952,417.394 705.509,415.735C704.551,414.633 703.161,414.003 701.701,414.009C699.864,414.016 697.21,414.027 694.82,414.036C693.359,414.042 691.966,414.65 690.968,415.716C689.969,416.782 689.455,418.213 689.545,419.67C689.591,420.406 689.637,421.156 689.683,421.882C689.89,425.239 689.648,428.608 688.961,431.901C685.958,446.47 684.366,460.72 683.176,474.878C683.062,476.236 683.487,477.584 684.36,478.631C685.047,479.456 685.88,480.456 686.576,481.291C687.488,482.386 688.817,483.048 690.24,483.117C701.504,483.637 712.931,483.285 724.62,481.542C725.488,481.409 726.372,481.647 727.057,482.197C727.741,482.748 728.163,483.56 728.22,484.437C728.677,491.487 729.694,507.25 729.944,511.126C729.977,511.648 729.67,512.131 729.183,512.321C720.499,515.71 711.815,518.296 703.131,519.684C701.759,519.896 700.355,519.726 699.074,519.192C696.774,518.239 692.966,516.652 690.749,515.729C690.307,515.544 689.806,515.564 689.38,515.783C688.954,516.002 688.646,516.397 688.538,516.864C685.482,529.772 685.922,538.162 687.375,545.246C687.514,545.885 687.952,546.418 688.552,546.677C689.152,546.937 689.84,546.891 690.4,546.555C693.645,544.613 699.301,541.22 701.778,539.733C702.582,539.251 703.467,538.921 704.389,538.758C711.324,537.523 718.26,535.844 725.195,533.598C725.615,533.46 726.075,533.533 726.433,533.792C726.791,534.052 727.003,534.467 727.003,534.909C726.992,551.418 726.091,566.632 724.318,580.578C724.112,582.169 723.687,583.724 723.056,585.198C722.458,586.597 721.721,588.319 721.311,589.274C721.111,589.741 721.107,590.27 721.3,590.74C725.303,600.439 730.052,606.566 735.694,608.418C737.911,609.147 740.34,608.268 741.577,606.289C742.751,604.598 744.082,602.469 744.681,601.511C744.891,601.175 745.017,600.794 745.048,600.399C746.813,578.318 747.356,555.231 746.14,530.696C746.065,529.2 747.203,527.92 748.698,527.82C752.301,527.58 758.454,527.17 760.395,527.04C760.787,527.014 761.158,526.856 761.449,526.592C763.221,524.981 769.724,519.069 771.531,517.426C771.84,517.146 772.046,516.77 772.117,516.359C773.319,509.304 771.991,504.874 768.706,502.468C768.293,502.172 767.758,502.107 767.286,502.296C765.288,503.085 759.732,505.307 758.326,505.869C758.108,505.957 757.88,506.017 757.646,506.049C753.626,506.595 749.607,506.861 745.587,506.966C745.17,506.977 744.766,506.818 744.467,506.527C744.169,506.236 744,505.836 744,505.419C744,501.119 744,489.174 744,483.747C744,482.18 745.172,480.862 746.728,480.679C750.611,480.222 757.539,479.407 760.054,479.111C760.658,479.04 761.207,478.725 761.571,478.238C762.728,476.695 765.335,473.22 766.463,471.716C766.799,471.268 766.894,470.683 766.717,470.151C766.267,468.801 765.374,466.123 764.735,464.205C764.31,462.931 763.03,462.149 761.703,462.353C759.016,462.767 754.65,463.438 752.416,463.782C751.572,463.912 750.741,463.482 750.359,462.719C749.553,461.107 748.154,458.309 747.159,456.317C746.389,454.779 746.011,453.075 746.057,451.356C746.414,439.266 747.806,427.242 750.679,415.31C750.886,414.453 751.231,413.635 751.698,412.887C752.543,411.532 753.979,409.234 754.957,407.668C755.542,406.732 755.295,405.502 754.393,404.866C751.222,402.627 744.179,397.656 740.833,395.294C739.74,394.523 738.275,394.544 737.205,395.346C734.846,397.115 730.744,400.192 728.527,401.855Z" />
        <g transform="matrix(1.01673,0,0,1.04439,-20.7594,-19.829)">
            <ellipse cx="797.422" cy="499.552" rx="169.17" ry="160.762" style="fill:none;stroke:black;stroke-width:20.92px;" />
        </g>
    </g>
</svg>