<!DOCTYPE svg PUBLIC "-//W3C//DTD SVG 1.1//EN" "http://www.w3.org/Graphics/SVG/1.1/DTD/svg11.dtd"[]><svg width="92" height="92" viewBox="0 0 92 92" version="1.1" xmlns="http://www.w3.org/2000/svg" xmlns:xlink="http://www.w3.org/1999/xlink" xml:space="preserve" xmlns:serif="http://www.serif.com/" style="fill-rule:evenodd;clip-rule:evenodd;stroke-linejoin:round;stroke-miterlimit:2;">
    <g>
        <g>
            <g>
                <path d="M36,1.4C23.4,4.1 10.1,14.7 4.6,26.3C-6,48.7 4,76.5 26.3,87.1C53.9,100.1 86.2,83 91.2,52.8C94.3,34.1 84.4,14.7 67.3,5.7C57,0.3 47.1,-1.1 36,1.4ZM63.2,10.8C71.1,14.6 78.1,21.8 81.8,29.8C84.2,34.8 85.137,36.382 85.137,45.682C85.137,55.582 84.3,57 81.2,63.2C77.4,71 70.2,78.1 62,81.9C53.9,85.7 38.1,85.7 30,81.9C21.8,78.1 14.6,71 10.8,63.2C7.7,57 7.054,55.518 7.054,45.618C7.054,36.318 7.8,34.8 10.2,29.8C14.9,19.8 23.9,11.8 34.3,8.4C36.9,7.5 41.964,6.654 47.664,6.854C55.564,7.054 57.6,8 63.2,10.8Z" />
            </g>
            <path d="M31,19.9C31,20.9 32.5,24.1 34.4,26.9L37.9,32L35.5,32.6C34.2,32.9 30.2,33 26.6,32.8C21,32.6 20,32.7 20,34.2C20,35.1 21.5,37 23.2,38.5C26.3,41.2 26.8,41.2 34.6,40.6L42.8,40L47.4,45.1C50,48 51.9,50.4 51.7,50.6C51.5,50.8 49.8,50.5 47.9,50C36.1,46.6 26,51.6 26,61C26,68.8 31.9,73.2 45,75.1C52.3,76.1 54,76.1 57.2,74.7C62.4,72.5 63.4,68.6 59.5,65.2C57,63.1 56.1,62.9 52.6,63.6C45.5,65 38,64.4 35.8,62.2C33.2,59.6 34.2,56.6 38,55C41.6,53.5 46.4,54.2 53.6,57.1L59,59.4L62,56.5C65.6,53.1 65.7,51.7 62.7,49.7C60.6,48.3 52.4,36.2 53.1,35.6C53.3,35.4 55.4,34.3 57.8,33.1C61.9,31 62.6,29.8 61.4,26.6C60.6,24.6 56.1,24.5 51.3,26.5C49.3,27.3 47.6,27.9 47.5,27.8C47.4,27.6 46.1,25.4 44.6,22.7C41.8,18 41.8,18 36.4,18C31.8,18 31,18.3 31,19.9Z" />
        </g>
    </g>
</svg>