<?xml version="1.0" encoding="UTF-8" standalone="no"?>
<!DOCTYPE svg PUBLIC "-//W3C//DTD SVG 1.1//EN" "http://www.w3.org/Graphics/SVG/1.1/DTD/svg11.dtd">
<svg width="270px" height="270px" version="1.1" xmlns="http://www.w3.org/2000/svg" xmlns:xlink="http://www.w3.org/1999/xlink" xml:space="preserve" xmlns:serif="http://www.serif.com/" style="fill-rule:evenodd;clip-rule:evenodd;stroke-linejoin:round;stroke-miterlimit:2;">
    <g id="Page-2" serif:id="Page 2" transform="matrix(1,0,0,1,-25,-25)">
        <rect x="0" y="0" width="320" height="320" style="fill:none;"/>
    </g>
    <g id="Layer-1" serif:id="Layer 1" transform="matrix(1,0,0,1,-25,-25)">
        <path d="M127.555,124.218C127.555,129.346 128.404,129.374 128.987,129.374C131.247,129.374 143.037,124.858 143.037,120.145C143.037,118.521 140.434,117.957 138.887,117.991C133.894,118.102 127.555,117.056 127.555,124.218M185.544,117.761C183.431,117.761 180.473,117.759 178.503,117.759C177.871,117.759 173.137,117.578 173.137,119.811C173.137,125.112 181.01,125.119 186.433,128.132C191.264,130.816 191.981,117.761 185.544,117.761M144.988,165.931C144.988,156.83 146.407,151.297 142.443,151.297C137.605,151.297 122.24,172.656 136.305,172.656C144.109,172.656 144.988,169.05 144.988,165.931M172.307,151.62C168.278,151.62 168.761,156.421 168.761,159.632C168.761,167.686 170.425,171.553 176.739,171.553C188.695,171.553 182.35,151.62 172.307,151.62M186.266,197.829C186.266,201.198 194.27,207.364 213.97,208.328C228.048,209.018 232.405,210.904 232.405,221.514C232.405,229.62 229.968,232.46 211.192,232.46C168.325,232.46 163.689,211.262 157.983,211.262C154.872,211.262 140.993,233.378 110.889,233.378C93.533,233.378 90.731,230.302 90.731,218.438C90.731,210.309 91.429,209.467 104.627,209.467C126.292,209.467 132.243,201.532 132.243,199.472C132.243,197.635 126.927,197.566 102.76,197.566C77.933,197.566 74.119,195.809 74.119,190.085C74.119,174.717 73.1,171.981 81.681,171.981C84.609,171.981 88.192,172.503 92.17,172.503C106.668,172.503 103.748,169.334 110.339,153.845C116.007,140.526 124.198,135.442 113.83,135.442C95.31,135.442 110.568,117.746 99.576,117.746C94.43,117.746 86.447,119.176 86.447,109.685C86.447,96.193 87.007,94.833 92.881,94.603C114.493,93.757 93.152,79.704 117.494,79.704C129.85,79.704 128.376,85.247 128.376,89.502C128.376,94.02 131.289,94.871 147.946,94.871C193.979,94.871 192.715,95.56 192.715,90.47C192.715,86.715 191.004,81.558 195.15,80.171C201.502,78.044 207.757,77.819 213.491,81.343C219.136,84.814 209.5,94.988 224.067,94.988C234.532,94.988 234.087,98.809 233.923,110.673C233.837,116.848 227.812,117.071 223.426,117.071C212.159,117.071 214.554,123.096 214.554,125.426C214.554,139.485 197.507,130.91 197.507,136.326C197.507,139.821 204.167,143.658 208.547,165.544C209.709,171.352 216.582,170.708 233.439,170.708C242.855,170.708 245.918,174.078 245.918,182.187C245.918,193.831 244.248,196.197 233.703,196.197C199.11,196.197 186.266,193.941 186.266,197.829M160.876,269C218.607,269 269,219.891 269,160.711C269,101.592 221.519,51 161.002,51C101.899,51 51,101.177 51,160.711C51,223.258 105.72,269 160.876,269M32,160.909C32,90.737 89.486,32 158.7,32C228.018,32 288,92.235 288,161.532C288,230.24 230.895,288 161.02,288C91.302,288 32,230.492 32,160.909" style="fill-rule:nonzero;"/>
    </g>
</svg>
