<?xml version="1.0" encoding="UTF-8" standalone="no"?>
<!DOCTYPE svg PUBLIC "-//W3C//DTD SVG 1.1//EN" "http://www.w3.org/Graphics/SVG/1.1/DTD/svg11.dtd">
<svg width="270px" height="270px" version="1.1" xmlns="http://www.w3.org/2000/svg" xmlns:xlink="http://www.w3.org/1999/xlink" xml:space="preserve" xmlns:serif="http://www.serif.com/" style="fill-rule:evenodd;clip-rule:evenodd;stroke-linejoin:round;stroke-miterlimit:2;">
    <g id="Page-7" serif:id="Page 7" transform="matrix(1,0,0,1,-25,-25)">
        <rect x="0" y="0" width="320" height="320" style="fill:none;"/>
    </g>
    <g id="Layer-1" serif:id="Layer 1" transform="matrix(1,0,0,1,-25,-25)">
        <path d="M277.456,137.342L273.004,138.038C272.185,138.166 271.53,138.785 271.357,139.595L268.145,154.58C267.879,155.824 268.828,156.999 270.102,156.999L274.405,156.999C275.348,156.999 276.163,156.34 276.36,155.418L279.721,139.738C280.015,138.366 278.842,137.126 277.456,137.342M279.721,180.263L276.36,164.582C276.163,163.66 275.348,163.001 274.405,163.001L270.102,163.001C268.828,163.001 267.879,164.175 268.145,165.42L271.357,180.405C271.53,181.215 272.185,181.834 273.004,181.962L277.456,182.657C278.842,182.874 280.015,181.634 279.721,180.263M254.935,140.862L249.282,141.744C248.464,141.872 247.809,142.491 247.636,143.302L245.22,154.58C244.953,155.825 245.902,156.999 247.176,156.999L252.638,156.999C253.58,156.999 254.395,156.34 254.593,155.418L257.199,143.256C257.493,141.885 256.32,140.645 254.935,140.862M257.199,176.744L254.593,164.582C254.395,163.66 253.58,163.001 252.638,163.001L247.176,163.001C245.902,163.001 244.953,164.175 245.22,165.42L247.636,176.698C247.809,177.509 248.464,178.128 249.282,178.256L254.935,179.139C256.32,179.356 257.493,178.115 257.199,176.744M231.214,144.568L226.876,145.245C226.062,145.372 225.41,145.985 225.232,146.787L223.504,154.565C223.227,155.815 224.177,156.999 225.456,156.999L229.712,156.999C230.654,156.999 231.47,156.34 231.667,155.418L233.478,146.962C233.772,145.591 232.6,144.351 231.214,144.568M233.478,173.037L231.667,164.582C231.47,163.66 230.654,163.001 229.712,163.001L225.456,163.001C224.177,163.001 223.227,164.186 223.504,165.435L225.232,173.213C225.41,174.016 226.062,174.628 226.876,174.755L231.214,175.433C232.6,175.65 233.772,174.409 233.478,173.037M201.06,208.748L196.783,215.47C196.342,216.164 196.37,217.058 196.854,217.723L199.443,221.27C200.269,222.403 201.976,222.355 202.737,221.177L207.435,213.917C207.948,213.126 207.838,212.083 207.171,211.416L204.162,208.408C203.258,207.503 201.748,207.669 201.06,208.748M208.406,204.163L211.415,207.172C212.082,207.839 213.124,207.949 213.916,207.437L221.176,202.738C222.353,201.977 222.4,200.271 221.268,199.445L217.721,196.856C217.057,196.371 216.162,196.343 215.469,196.784L208.747,201.062C207.668,201.749 207.502,203.259 208.406,204.163M223.764,219.521L227.626,223.383C228.293,224.05 229.335,224.16 230.127,223.649L240.569,216.892C241.747,216.13 241.795,214.424 240.662,213.597L236.041,210.225C235.371,209.737 234.471,209.711 233.775,210.161L224.092,216.428C223.022,217.119 222.863,218.621 223.764,219.521M253.17,224.314L240.303,232.639C239.234,233.33 239.075,234.832 239.976,235.733L243.018,238.776C243.685,239.443 244.727,239.553 245.519,239.04L258.982,230.328C260.16,229.567 260.208,227.861 259.075,227.033L255.435,224.377C254.766,223.889 253.865,223.863 253.17,224.314M238.774,243.02L235.73,239.977C234.83,239.076 233.329,239.236 232.638,240.304L224.312,253.171C223.862,253.866 223.888,254.767 224.376,255.437L227.032,259.076C227.859,260.209 229.564,260.161 230.327,258.984L239.039,245.521C239.551,244.729 239.44,243.687 238.774,243.02M223.382,227.628L219.519,223.766C218.619,222.865 217.118,223.024 216.427,224.093L210.16,233.777C209.71,234.472 209.734,235.373 210.223,236.042L213.596,240.663C214.422,241.796 216.128,241.748 216.891,240.571L223.646,230.128C224.159,229.336 224.049,228.294 223.382,227.628M196.285,160.002C196.285,139.961 180.039,123.716 159.999,123.716C139.958,123.716 123.713,139.961 123.713,160.002C123.713,180.042 139.958,196.288 159.999,196.288C180.039,196.288 196.285,180.042 196.285,160.002M118.937,208.748C118.25,207.669 116.74,207.503 115.835,208.408L112.827,211.416C112.16,212.083 112.049,213.126 112.561,213.917L117.26,221.177C118.022,222.355 119.727,222.403 120.555,221.27L123.143,217.723C123.628,217.058 123.656,216.164 123.214,215.47L118.937,208.748ZM111.25,201.062L104.529,196.784C103.835,196.343 102.941,196.371 102.276,196.856L98.729,199.445C97.597,200.271 97.644,201.977 98.822,202.738L106.081,207.437C106.873,207.949 107.915,207.839 108.582,207.172L111.591,204.163C112.496,203.259 112.33,201.749 111.25,201.062M109.838,233.777L103.571,224.093C102.879,223.024 101.378,222.865 100.478,223.766L96.616,227.628C95.949,228.294 95.838,229.336 96.351,230.128L103.107,240.571C103.869,241.748 105.575,241.796 106.402,240.663L109.774,236.042C110.263,235.373 110.288,234.472 109.838,233.777M95.685,253.171L87.36,240.304C86.668,239.236 85.167,239.076 84.267,239.977L81.224,243.02C80.557,243.687 80.446,244.729 80.958,245.521L89.671,258.984C90.433,260.161 92.139,260.209 92.965,259.076L95.622,255.437C96.11,254.767 96.135,253.866 95.685,253.171M79.695,232.639L66.828,224.314C66.133,223.863 65.232,223.889 64.562,224.377L60.922,227.033C59.789,227.861 59.837,229.567 61.015,230.328L74.478,239.04C75.27,239.553 76.312,239.443 76.979,238.776L80.022,235.733C80.923,234.832 80.764,233.33 79.695,232.639M79.428,216.892L89.871,223.649C90.662,224.16 91.705,224.05 92.371,223.383L96.233,219.521C97.134,218.621 96.975,217.119 95.906,216.428L86.223,210.161C85.527,209.711 84.626,209.737 83.957,210.225L79.335,213.597C78.203,214.424 78.25,216.13 79.428,216.892M118.937,111.252L123.214,104.53C123.656,103.836 123.628,102.943 123.143,102.278L120.555,98.731C119.727,97.598 118.022,97.646 117.26,98.823L112.561,106.083C112.049,106.874 112.16,107.917 112.827,108.583L115.835,111.592C116.74,112.497 118.25,112.331 118.937,111.252M111.591,115.837L108.582,112.828C107.915,112.161 106.873,112.051 106.081,112.563L98.822,117.261C97.644,118.024 97.597,119.729 98.729,120.556L102.276,123.144C102.941,123.629 103.835,123.657 104.529,123.216L111.25,118.939C112.33,118.251 112.496,116.741 111.591,115.837M96.233,100.479L92.371,96.617C91.705,95.95 90.662,95.84 89.871,96.352L79.428,103.109C78.25,103.87 78.203,105.576 79.335,106.404L83.957,109.776C84.626,110.264 85.527,110.289 86.223,109.839L95.906,103.572C96.975,102.881 97.134,101.379 96.233,100.479M66.828,95.687L79.695,87.362C80.764,86.67 80.923,85.168 80.022,84.268L76.979,81.225C76.312,80.558 75.27,80.447 74.478,80.96L61.015,89.672C59.837,90.434 59.789,92.14 60.922,92.967L64.562,95.623C65.232,96.112 66.133,96.137 66.828,95.687M81.224,76.981L84.267,80.024C85.167,80.924 86.668,80.765 87.36,79.696L95.685,66.829C96.135,66.134 96.11,65.233 95.622,64.564L92.965,60.924C92.139,59.791 90.433,59.839 89.671,61.016L80.958,74.48C80.446,75.272 80.557,76.314 81.224,76.981M96.616,92.372L100.478,96.235C101.378,97.135 102.879,96.976 103.571,95.907L109.838,86.224C110.288,85.529 110.263,84.627 109.774,83.958L106.402,79.337C105.575,78.204 103.869,78.252 103.107,79.43L96.351,89.872C95.838,90.663 95.949,91.705 96.616,92.372M201.06,111.252C201.748,112.331 203.258,112.497 204.162,111.592L207.171,108.583C207.838,107.917 207.948,106.874 207.435,106.083L202.737,98.823C201.976,97.646 200.269,97.598 199.443,98.731L196.854,102.278C196.37,102.943 196.342,103.836 196.783,104.53L201.06,111.252ZM208.747,118.939L215.469,123.216C216.162,123.657 217.057,123.629 217.721,123.144L221.268,120.556C222.4,119.729 222.353,118.024 221.176,117.261L213.916,112.563C213.124,112.051 212.082,112.161 211.415,112.828L208.406,115.837C207.502,116.741 207.668,118.251 208.747,118.939M210.16,86.224L216.427,95.907C217.118,96.976 218.619,97.135 219.519,96.235L223.382,92.372C224.049,91.705 224.159,90.663 223.646,89.872L216.891,79.43C216.128,78.252 214.422,78.204 213.596,79.337L210.223,83.958C209.734,84.627 209.71,85.529 210.16,86.224M224.312,66.829L232.638,79.696C233.329,80.765 234.83,80.924 235.73,80.024L238.774,76.981C239.44,76.314 239.551,75.272 239.039,74.48L230.327,61.016C229.564,59.839 227.859,59.791 227.032,60.924L224.376,64.564C223.888,65.233 223.862,66.134 224.312,66.829M240.303,87.362L253.17,95.687C253.865,96.137 254.766,96.112 255.435,95.623L259.075,92.967C260.208,92.14 260.16,90.434 258.982,89.672L245.519,80.96C244.727,80.447 243.685,80.558 243.018,81.225L239.976,84.268C239.075,85.168 239.234,86.67 240.303,87.362M240.569,103.109L230.127,96.352C229.335,95.84 228.293,95.95 227.626,96.617L223.764,100.479C222.863,101.379 223.022,102.881 224.092,103.572L233.775,109.839C234.471,110.289 235.371,110.264 236.041,109.776L240.662,106.404C241.795,105.576 241.747,103.87 240.569,103.109M163,274.406C163,275.35 163.659,276.164 164.581,276.362L180.262,279.722C181.633,280.016 182.873,278.843 182.656,277.457L181.961,273.005C181.833,272.187 181.214,271.531 180.404,271.359L165.419,268.147C164.174,267.88 163,268.829 163,270.103L163,274.406ZM163,252.639C163,253.582 163.659,254.397 164.581,254.594L176.742,257.2C178.114,257.494 179.354,256.322 179.138,254.936L178.255,249.283C178.127,248.465 177.508,247.811 176.697,247.637L165.419,245.221C164.174,244.954 163,245.904 163,247.177L163,252.639ZM163,229.713C163,230.656 163.659,231.471 164.581,231.668L173.036,233.48C174.408,233.774 175.647,232.601 175.432,231.215L174.754,226.877C174.627,226.065 174.015,225.412 173.211,225.234L165.434,223.505C164.185,223.228 163,224.178 163,225.458L163,229.713ZM156.998,225.458C156.998,224.178 155.812,223.228 154.564,223.505L146.786,225.234C145.983,225.412 145.371,226.065 145.244,226.877L144.566,231.215C144.35,232.601 145.59,233.774 146.961,233.48L155.416,231.668C156.339,231.471 156.998,230.656 156.998,229.713L156.998,225.458ZM156.998,247.177C156.998,245.904 155.824,244.954 154.579,245.221L143.3,247.637C142.49,247.811 141.871,248.465 141.743,249.283L140.86,254.936C140.644,256.322 141.884,257.494 143.255,257.2L155.416,254.594C156.339,254.397 156.998,253.582 156.998,252.639L156.998,247.177ZM156.998,270.103C156.998,268.829 155.823,267.88 154.579,268.147L139.594,271.359C138.784,271.531 138.164,272.187 138.037,273.005L137.341,277.457C137.124,278.843 138.365,280.016 139.736,279.722L155.416,276.362C156.339,276.164 156.998,275.35 156.998,274.406L156.998,270.103ZM96.494,154.565L94.766,146.787C94.587,145.985 93.935,145.372 93.122,145.245L88.784,144.568C87.398,144.351 86.226,145.591 86.519,146.962L88.331,155.418C88.528,156.34 89.343,156.999 90.286,156.999L94.541,156.999C95.82,156.999 96.771,155.815 96.494,154.565M94.541,163.001L90.286,163.001C89.343,163.001 88.528,163.66 88.331,164.582L86.519,173.037C86.226,174.409 87.398,175.65 88.784,175.433L93.122,174.755C93.935,174.628 94.587,174.016 94.766,173.213L96.494,165.435C96.771,164.186 95.82,163.001 94.541,163.001M74.778,154.58L72.362,143.302C72.188,142.491 71.534,141.872 70.715,141.744L65.062,140.862C63.677,140.645 62.504,141.885 62.798,143.256L65.405,155.418C65.602,156.34 66.417,156.999 67.36,156.999L72.822,156.999C74.096,156.999 75.044,155.825 74.778,154.58M72.822,163.001L67.36,163.001C66.417,163.001 65.602,163.66 65.405,164.582L62.798,176.744C62.504,178.115 63.677,179.356 65.062,179.139L70.715,178.256C71.534,178.128 72.188,177.509 72.362,176.698L74.778,165.42C75.044,164.175 74.096,163.001 72.822,163.001M51.852,154.58L48.641,139.595C48.467,138.785 47.812,138.166 46.994,138.038L42.541,137.342C41.156,137.126 39.983,138.366 40.277,139.738L43.637,155.418C43.834,156.34 44.649,156.999 45.593,156.999L49.896,156.999C51.169,156.999 52.119,155.824 51.852,154.58M49.896,163.001L45.593,163.001C44.649,163.001 43.834,163.66 43.637,164.582L40.277,180.263C39.983,181.634 41.156,182.874 42.541,182.657L46.994,181.962C47.812,181.834 48.467,181.215 48.641,180.405L51.852,165.42C52.119,164.175 51.169,163.001 49.896,163.001M156.998,45.594C156.998,44.651 156.339,43.836 155.416,43.639L139.736,40.279C138.365,39.985 137.124,41.157 137.341,42.543L138.037,46.995C138.164,47.814 138.784,48.468 139.594,48.642L154.579,51.854C155.823,52.12 156.998,51.171 156.998,49.898L156.998,45.594ZM156.998,67.362C156.998,66.418 156.339,65.604 155.416,65.406L143.255,62.8C141.884,62.506 140.644,63.678 140.86,65.064L141.743,70.717C141.871,71.535 142.49,72.19 143.3,72.363L154.579,74.779C155.824,75.046 156.998,74.097 156.998,72.823L156.998,67.362ZM156.998,90.287C156.998,89.344 156.339,88.529 155.416,88.332L146.961,86.521C145.59,86.227 144.35,87.4 144.566,88.785L145.244,93.123C145.371,93.936 145.983,94.588 146.786,94.767L154.564,96.495C155.812,96.773 156.998,95.822 156.998,94.542L156.998,90.287ZM163,94.542C163,95.822 164.185,96.773 165.434,96.495L173.211,94.767C174.015,94.588 174.627,93.936 174.754,93.123L175.432,88.785C175.647,87.4 174.408,86.227 173.036,86.521L164.581,88.332C163.659,88.529 163,89.344 163,90.287L163,94.542ZM163,72.823C163,74.097 164.174,75.046 165.419,74.779L176.697,72.363C177.508,72.19 178.127,71.535 178.255,70.717L179.138,65.064C179.354,63.678 178.114,62.506 176.742,62.8L164.581,65.406C163.659,65.604 163,66.418 163,67.362L163,72.823ZM163,49.898C163,51.171 164.174,52.12 165.419,51.854L180.404,48.642C181.214,48.468 181.833,47.814 181.961,46.995L182.656,42.543C182.873,41.157 181.633,39.985 180.262,40.279L164.581,43.639C163.659,43.836 163,44.651 163,45.594L163,49.898ZM282.676,165.42L287.416,187.538C287.71,188.909 286.537,190.15 285.151,189.933L221.907,180.052C221.094,179.925 220.442,179.313 220.264,178.51L217.164,164.568C216.961,163.653 216.149,163.001 215.212,163.001L214.337,163.001C213.812,163.001 213.386,163.408 213.348,163.931C212.489,175.748 207.792,186.496 200.498,194.944C200.155,195.34 200.171,195.929 200.542,196.3L201.163,196.92C201.825,197.583 202.859,197.696 203.65,197.194L215.7,189.526C216.394,189.084 217.288,189.113 217.953,189.597L269.661,227.33C270.794,228.157 270.746,229.863 269.568,230.625L250.577,242.913C249.509,243.605 249.35,245.107 250.25,246.007L251.217,246.974C251.997,247.754 251.997,249.021 251.217,249.802L249.801,251.218C249.019,251.999 247.753,251.999 246.972,251.218L246.005,250.251C245.104,249.351 243.603,249.51 242.912,250.578L230.624,269.57C229.862,270.747 228.156,270.795 227.329,269.662L189.596,217.954C189.111,217.29 189.082,216.396 189.524,215.701L197.191,203.652C197.694,202.861 197.581,201.826 196.918,201.164L196.298,200.544C195.927,200.173 195.338,200.157 194.941,200.5C186.495,207.794 175.746,212.492 163.929,213.35C163.406,213.388 162.999,213.816 162.999,214.34L163,215.214C163,216.151 163.65,216.962 164.565,217.165L178.509,220.265C179.311,220.444 179.924,221.096 180.051,221.908L189.932,285.153C190.148,286.538 188.908,287.711 187.537,287.417L165.419,282.677C164.174,282.41 163,283.36 163,284.633L163,286C163,287.105 162.104,288 161,288L158.998,288C157.893,288 156.998,287.105 156.998,286L156.998,284.633C156.998,283.36 155.824,282.41 154.579,282.677L132.461,287.417C131.089,287.711 129.849,286.538 130.066,285.153L139.947,221.908C140.074,221.096 140.686,220.444 141.489,220.265L155.432,217.166C156.347,216.962 156.998,216.151 156.998,215.213L156.998,214.339C156.998,213.816 156.591,213.388 156.068,213.35C144.251,212.491 133.503,207.793 125.057,200.498C124.66,200.155 124.071,200.171 123.7,200.542L123.079,201.164C122.416,201.827 122.303,202.861 122.806,203.652L130.474,215.701C130.915,216.396 130.887,217.29 130.402,217.954L92.668,269.662C91.842,270.795 90.136,270.747 89.373,269.57L77.085,250.578C76.394,249.51 74.893,249.351 73.992,250.251L73.025,251.218C72.245,251.999 70.978,251.999 70.197,251.218L68.781,249.802C68,249.021 68,247.754 68.781,246.974L69.748,246.007C70.648,245.107 70.489,243.605 69.42,242.913L50.429,230.625C49.251,229.863 49.204,228.157 50.337,227.33L102.044,189.597C102.709,189.113 103.603,189.084 104.297,189.526L116.347,197.193C117.138,197.696 118.172,197.582 118.835,196.92L119.456,196.298C119.828,195.927 119.843,195.338 119.5,194.942C112.207,186.495 107.51,175.746 106.652,163.931C106.615,163.407 106.187,163 105.663,163.001L104.785,163.001C103.848,163.001 103.037,163.653 102.833,164.567L99.734,178.51C99.556,179.313 98.903,179.925 98.091,180.052L34.846,189.933C33.46,190.15 32.288,188.909 32.582,187.538L37.322,165.42C37.588,164.175 36.639,163.001 35.366,163.001L33.999,163.001C32.894,163.001 31.999,162.106 31.999,161.001L31.999,158.999C31.999,157.895 32.894,156.999 33.999,156.999L35.366,156.999C36.639,156.999 37.588,155.824 37.322,154.58L32.582,132.462C32.288,131.091 33.46,129.851 34.846,130.067L98.09,139.948C98.903,140.075 99.556,140.688 99.734,141.49L102.833,155.433C103.037,156.348 103.848,156.999 104.786,156.999L105.664,156.999C106.188,156.999 106.615,156.592 106.653,156.07C107.512,144.254 112.209,133.506 119.503,125.061C119.846,124.664 119.831,124.074 119.459,123.704L118.835,123.08C118.172,122.417 117.138,122.304 116.348,122.807L104.297,130.475C103.603,130.916 102.709,130.888 102.044,130.404L50.337,92.67C49.204,91.843 49.251,90.137 50.429,89.375L69.42,77.087C70.489,76.396 70.648,74.894 69.748,73.993L68.781,73.027C68,72.246 68,70.98 68.781,70.198L70.197,68.782C70.978,68.001 72.245,68.001 73.025,68.782L73.992,69.749C74.893,70.65 76.394,70.49 77.085,69.422L89.373,50.431C90.136,49.253 91.842,49.205 92.668,50.338L130.402,102.046C130.887,102.71 130.915,103.605 130.474,104.298L122.806,116.349C122.303,117.139 122.416,118.173 123.079,118.836L123.704,119.461C124.074,119.831 124.664,119.847 125.06,119.504C133.506,112.211 144.253,107.514 156.068,106.655C156.591,106.617 156.998,106.191 156.998,105.666L156.998,104.786C156.998,103.849 156.347,103.038 155.432,102.834L141.489,99.736C140.686,99.557 140.074,98.904 139.947,98.092L130.066,34.848C129.849,33.462 131.089,32.289 132.461,32.583L154.579,37.322C155.824,37.59 156.998,36.641 156.998,35.367L156.998,34C156.998,32.896 157.893,32 158.998,32L161,32C162.104,32 163,32.896 163,34L163,35.367C163,36.641 164.174,37.59 165.419,37.322L187.537,32.583C188.908,32.289 190.148,33.462 189.932,34.848L180.051,98.092C179.924,98.904 179.311,99.557 178.509,99.736L164.566,102.834C163.651,103.038 163,103.85 163,104.787L163,105.666C163,106.191 163.407,106.617 163.93,106.655C175.745,107.514 186.493,112.21 194.939,119.504C195.336,119.847 195.925,119.83 196.296,119.46L196.919,118.836C197.581,118.173 197.694,117.14 197.191,116.349L189.524,104.298C189.082,103.605 189.111,102.71 189.596,102.046L227.329,50.338C228.156,49.205 229.862,49.253 230.624,50.431L242.912,69.421C243.603,70.49 245.104,70.65 246.005,69.749L246.972,68.782C247.753,68.001 249.019,68.001 249.801,68.782L251.217,70.198C251.997,70.98 251.997,72.246 251.217,73.027L250.25,73.993C249.35,74.894 249.509,76.396 250.577,77.087L269.568,89.375C270.746,90.137 270.794,91.843 269.661,92.67L217.953,130.404C217.288,130.888 216.394,130.916 215.7,130.475L203.65,122.808C202.859,122.304 201.825,122.418 201.163,123.08L200.54,123.703C200.169,124.074 200.153,124.663 200.496,125.06C207.79,133.506 212.488,144.254 213.347,156.07C213.385,156.593 213.812,157 214.337,156.999L215.213,156.999C216.149,156.999 216.961,156.348 217.164,155.434L220.264,141.49C220.442,140.688 221.094,140.075 221.907,139.948L285.151,130.067C286.537,129.851 287.71,131.091 287.416,132.462L282.676,154.58C282.409,155.824 283.358,156.999 284.632,156.999L285.999,156.999C287.103,156.999 287.999,157.895 287.999,158.999L287.999,161.001C287.999,162.106 287.103,163.001 285.999,163.001L284.632,163.001C283.358,163.001 282.409,164.175 282.676,165.42M184.826,160.001C184.826,173.713 173.71,184.829 159.998,184.829C146.287,184.829 135.171,173.713 135.171,160.001C135.171,146.289 146.287,135.174 159.998,135.174C173.71,135.174 184.826,146.289 184.826,160.001" style="fill-rule:nonzero;"/>
    </g>
</svg>
