<!DOCTYPE svg PUBLIC "-//W3C//DTD SVG 1.1//EN" "http://www.w3.org/Graphics/SVG/1.1/DTD/svg11.dtd"[]><svg width="1400" height="1400" viewBox="0 0 1400 1400" version="1.1" xmlns="http://www.w3.org/2000/svg" xmlns:xlink="http://www.w3.org/1999/xlink" xml:space="preserve" xmlns:serif="http://www.serif.com/" style="fill-rule:evenodd;clip-rule:evenodd;stroke-linecap:round;stroke-linejoin:round;stroke-miterlimit:1.5;">
    <g transform="matrix(1,0,0,1,3,-0.5)">
        <g transform="matrix(1.05388,0,0,1.05388,-9.46345,52.7942)">
            <path d="M672,64L1250.24,484.118L1029.37,1163.88L314.627,1163.88L93.758,484.118L672,64Z" style="fill:white;stroke:black;stroke-width:7.59px;" />
        </g>
        <g transform="matrix(0.844996,0,0,-0.844996,131.905,1327.46)">
            <path d="M672,64L1250.24,484.118L1029.37,1163.88L314.627,1163.88L93.758,484.118L672,64Z" style="fill:none;stroke:black;stroke-width:9.47px;" />
        </g>
        <g transform="matrix(0.675144,0,0,0.675144,248.046,305.315)">
            <path d="M672,64L1250.24,484.118L1029.37,1163.88L314.627,1163.88L93.758,484.118L672,64Z" style="fill:none;stroke:black;stroke-width:11.85px;" />
        </g>
        <g transform="matrix(0.431723,0,0,0.431723,411.625,468.893)">
            <path d="M672,64L1250.24,484.118L1029.37,1163.88L314.627,1163.88L93.758,484.118L672,64Z" style="fill:none;stroke:black;stroke-width:18.53px;" />
        </g>
        <g transform="matrix(0.541328,0,0,-0.541328,338.61,1121.9)">
            <path d="M672,64L1250.24,484.118L1029.37,1163.88L314.627,1163.88L93.758,484.118L672,64Z" style="fill:none;stroke:black;stroke-width:14.78px;" />
        </g>
        <g transform="matrix(3.06162e-17,0.5,-0.5,3.06162e-17,748.5,-276)">
            <circle cx="800" cy="100" r="40" style="fill:rgb(235,235,235);stroke:black;stroke-width:16.06px;" />
        </g>
        <g transform="matrix(3.06162e-17,0.5,-0.5,3.06162e-17,751.5,-54)">
            <circle cx="800" cy="100" r="40" style="fill:rgb(235,235,235);stroke:black;stroke-width:16.06px;" />
        </g>
        <g transform="matrix(3.06162e-17,0.5,-0.5,3.06162e-17,749.5,98)">
            <circle cx="800" cy="100" r="40" style="fill:rgb(235,235,235);stroke:black;stroke-width:16.06px;" />
        </g>
        <path d="M1001,342L827,586" style="fill:none;stroke:black;stroke-width:8px;" />
        <path d="M1189,918L907,821" style="fill:none;stroke:black;stroke-width:8px;" />
        <path d="M701,1274L703,971" style="fill:none;stroke:black;stroke-width:8px;" />
        <path d="M209,918L501,825" style="fill:none;stroke:black;stroke-width:8px;" />
        <path d="M399,343L579,583" style="fill:none;stroke:black;stroke-width:8px;" />
        <g transform="matrix(3.06162e-17,0.5,-0.5,3.06162e-17,944.5,90)">
            <circle cx="800" cy="100" r="40" style="fill:rgb(235,235,235);stroke:black;stroke-width:16.06px;" />
        </g>
        <g transform="matrix(3.06162e-17,0.5,-0.5,3.06162e-17,1049.5,-58)">
            <circle cx="800" cy="100" r="40" style="fill:rgb(235,235,235);stroke:black;stroke-width:16.06px;" />
        </g>
        <g transform="matrix(3.06162e-17,0.5,-0.5,3.06162e-17,1142.5,231)">
            <circle cx="800" cy="100" r="40" style="fill:rgb(235,235,235);stroke:black;stroke-width:16.06px;" />
        </g>
        <g transform="matrix(3.06162e-17,0.5,-0.5,3.06162e-17,1066.5,460)">
            <circle cx="800" cy="100" r="40" style="fill:rgb(235,235,235);stroke:black;stroke-width:16.06px;" />
        </g>
        <g transform="matrix(3.06162e-17,0.5,-0.5,3.06162e-17,1236.5,519)">
            <circle cx="800" cy="100" r="40" style="fill:rgb(235,235,235);stroke:black;stroke-width:16.06px;" />
        </g>
        <g transform="matrix(3.06162e-17,0.5,-0.5,3.06162e-17,1002.5,279)">
            <circle cx="800" cy="100" r="40" style="fill:rgb(235,235,235);stroke:black;stroke-width:16.06px;" />
        </g>
        <g transform="matrix(3.06162e-17,0.5,-0.5,3.06162e-17,955.5,421)">
            <circle cx="800" cy="100" r="40" style="fill:rgb(235,235,235);stroke:black;stroke-width:16.06px;" />
        </g>
        <g transform="matrix(3.06162e-17,0.5,-0.5,3.06162e-17,905.5,569)">
            <circle cx="800" cy="100" r="40" style="fill:rgb(235,235,235);stroke:black;stroke-width:16.06px;" />
        </g>
        <g transform="matrix(3.06162e-17,0.5,-0.5,3.06162e-17,752.5,573)">
            <circle cx="800" cy="100" r="40" style="fill:rgb(235,235,235);stroke:black;stroke-width:16.06px;" />
        </g>
        <g transform="matrix(3.06162e-17,0.5,-0.5,3.06162e-17,752.5,688)">
            <circle cx="800" cy="100" r="40" style="fill:rgb(235,235,235);stroke:black;stroke-width:16.06px;" />
        </g>
        <g transform="matrix(3.06162e-17,0.5,-0.5,3.06162e-17,508.5,690)">
            <circle cx="800" cy="100" r="40" style="fill:rgb(235,235,235);stroke:black;stroke-width:16.06px;" />
        </g>
        <g transform="matrix(3.06162e-17,0.5,-0.5,3.06162e-17,600.5,570)">
            <circle cx="800" cy="100" r="40" style="fill:rgb(235,235,235);stroke:black;stroke-width:16.06px;" />
        </g>
        <g transform="matrix(3.06162e-17,0.5,-0.5,3.06162e-17,549.5,428)">
            <circle cx="800" cy="100" r="40" style="fill:rgb(235,235,235);stroke:black;stroke-width:16.06px;" />
        </g>
        <g transform="matrix(3.06162e-17,0.5,-0.5,3.06162e-17,438.5,461)">
            <circle cx="800" cy="100" r="40" style="fill:rgb(235,235,235);stroke:black;stroke-width:16.06px;" />
        </g>
        <g transform="matrix(3.06162e-17,0.5,-0.5,3.06162e-17,258.5,517)">
            <circle cx="800" cy="100" r="40" style="fill:rgb(235,235,235);stroke:black;stroke-width:16.06px;" />
        </g>
        <g transform="matrix(3.06162e-17,0.5,-0.5,3.06162e-17,375.5,877)">
            <circle cx="800" cy="100" r="40" style="fill:rgb(235,235,235);stroke:black;stroke-width:16.06px;" />
        </g>
        <g transform="matrix(3.06162e-17,0.5,-0.5,3.06162e-17,749.5,875)">
            <circle cx="800" cy="100" r="40" style="fill:rgb(235,235,235);stroke:black;stroke-width:16.06px;" />
        </g>
        <g transform="matrix(3.06162e-17,0.5,-0.5,3.06162e-17,992.5,692)">
            <circle cx="800" cy="100" r="40" style="fill:rgb(235,235,235);stroke:black;stroke-width:16.06px;" />
        </g>
        <g transform="matrix(3.06162e-17,0.5,-0.5,3.06162e-17,1122.5,877)">
            <circle cx="800" cy="100" r="40" style="fill:rgb(235,235,235);stroke:black;stroke-width:16.06px;" />
        </g>
        <g transform="matrix(3.06162e-17,0.5,-0.5,3.06162e-17,876.5,188)">
            <circle cx="800" cy="100" r="40" style="fill:rgb(235,235,235);stroke:black;stroke-width:16.06px;" />
        </g>
        <g transform="matrix(3.06162e-17,0.5,-0.5,3.06162e-17,1354.5,164)">
            <circle cx="800" cy="100" r="40" style="fill:rgb(235,235,235);stroke:black;stroke-width:16.06px;" />
        </g>
        <g transform="matrix(3.06162e-17,0.5,-0.5,3.06162e-17,629.5,184)">
            <circle cx="800" cy="100" r="40" style="fill:rgb(235,235,235);stroke:black;stroke-width:16.06px;" />
        </g>
        <g transform="matrix(3.06162e-17,0.5,-0.5,3.06162e-17,556.5,92)">
            <circle cx="800" cy="100" r="40" style="fill:rgb(235,235,235);stroke:black;stroke-width:16.06px;" />
        </g>
        <g transform="matrix(3.06162e-17,0.5,-0.5,3.06162e-17,447.5,-56)">
            <circle cx="800" cy="100" r="40" style="fill:rgb(235,235,235);stroke:black;stroke-width:16.06px;" />
        </g>
        <g transform="matrix(3.06162e-17,0.5,-0.5,3.06162e-17,139.5,163)">
            <circle cx="800" cy="100" r="40" style="fill:rgb(235,235,235);stroke:black;stroke-width:16.06px;" />
        </g>
        <g transform="matrix(3.06162e-17,0.5,-0.5,3.06162e-17,356.5,230)">
            <circle cx="800" cy="100" r="40" style="fill:rgb(235,235,235);stroke:black;stroke-width:16.06px;" />
        </g>
        <g transform="matrix(3.06162e-17,0.5,-0.5,3.06162e-17,502.5,277)">
            <circle cx="800" cy="100" r="40" style="fill:rgb(235,235,235);stroke:black;stroke-width:16.06px;" />
        </g>
    </g>
</svg>