<!DOCTYPE svg PUBLIC "-//W3C//DTD SVG 1.1//EN" "http://www.w3.org/Graphics/SVG/1.1/DTD/svg11.dtd"[]><svg width="1400" height="1400" viewBox="0 0 1400 1400" version="1.1" xmlns="http://www.w3.org/2000/svg" xmlns:xlink="http://www.w3.org/1999/xlink" xml:space="preserve" xmlns:serif="http://www.serif.com/" style="fill-rule:evenodd;clip-rule:evenodd;stroke-linecap:round;stroke-linejoin:round;stroke-miterlimit:1.5;">
    <path d="M145.5,384L698.5,61L1253.5,378L1254.5,1018L700.5,1339L146.5,1024L145.5,384Z" style="fill:white;" />
    <g>
        <g transform="matrix(0.428571,0,0,0.428571,580.643,716.512)">
            <path d="M277.237,-40L1570.5,-786.667L1570.5,706.667L277.237,1453.33L277.237,-40Z" style="fill:none;stroke:black;stroke-width:18.74px;" />
        </g>
        <g transform="matrix(0.428571,0,0,0.428571,580.643,716.512)">
            <path d="M277.237,-1533.33L1570.5,-786.667L277.237,-40L-1016.03,-786.667L277.237,-1533.33Z" style="fill:none;stroke:black;stroke-width:18.74px;" />
        </g>
        <g transform="matrix(-0.428571,0,0,0.428571,818.275,716.512)">
            <path d="M277.237,-40L1570.5,-786.667L1570.5,706.667L277.237,1453.33L277.237,-40Z" style="fill:none;stroke:black;stroke-width:18.74px;" />
        </g>
        <g transform="matrix(1,0,0,1,-21.0744,27.3688)">
            <path d="M1274.79,672L720.533,992L166.277,672" style="fill:none;stroke:black;stroke-width:8.03px;" />
        </g>
        <g transform="matrix(1,0,0,1,-21.0744,27.3688)">
            <path d="M443.405,1152L443.405,512L997.661,192" style="fill:none;stroke:black;stroke-width:8.03px;" />
        </g>
        <g transform="matrix(1,0,0,1,-21.0744,27.3688)">
            <path d="M997.661,1152L997.661,512L443.405,192" style="fill:none;stroke:black;stroke-width:8.03px;" />
        </g>
        <g transform="matrix(3.06162e-17,0.5,-0.5,3.06162e-17,749.5,299)">
            <circle cx="800" cy="100" r="40" style="fill:rgb(235,235,235);stroke:black;stroke-width:16.06px;" />
        </g>
        <g transform="matrix(3.06162e-17,0.5,-0.5,3.06162e-17,748.5,-19)">
            <circle cx="800" cy="100" r="40" style="fill:rgb(235,235,235);stroke:black;stroke-width:16.06px;" />
        </g>
        <g transform="matrix(3.06162e-17,0.5,-0.5,3.06162e-17,748.5,-339)">
            <circle cx="800" cy="100" r="40" style="fill:rgb(235,235,235);stroke:black;stroke-width:16.06px;" />
        </g>
        <g transform="matrix(3.06162e-17,0.5,-0.5,3.06162e-17,472.5,-181)">
            <circle cx="800" cy="100" r="40" style="fill:rgb(235,235,235);stroke:black;stroke-width:16.06px;" />
        </g>
        <g transform="matrix(3.06162e-17,0.5,-0.5,3.06162e-17,1024.5,-181)">
            <circle cx="800" cy="100" r="40" style="fill:rgb(235,235,235);stroke:black;stroke-width:16.06px;" />
        </g>
        <g transform="matrix(3.06162e-17,0.5,-0.5,3.06162e-17,1025.5,139)">
            <circle cx="800" cy="100" r="40" style="fill:rgb(235,235,235);stroke:black;stroke-width:16.06px;" />
        </g>
        <g transform="matrix(3.06162e-17,0.5,-0.5,3.06162e-17,1303.5,-22)">
            <circle cx="800" cy="100" r="40" style="fill:rgb(235,235,235);stroke:black;stroke-width:16.06px;" />
        </g>
        <g transform="matrix(3.06162e-17,0.5,-0.5,3.06162e-17,750.5,616)">
            <circle cx="800" cy="100" r="40" style="fill:rgb(235,235,235);stroke:black;stroke-width:16.06px;" />
        </g>
        <g transform="matrix(3.06162e-17,0.5,-0.5,3.06162e-17,1026.5,456)">
            <circle cx="800" cy="100" r="40" style="fill:rgb(235,235,235);stroke:black;stroke-width:16.06px;" />
        </g>
        <g transform="matrix(3.06162e-17,0.5,-0.5,3.06162e-17,1304.5,295)">
            <circle cx="800" cy="100" r="40" style="fill:rgb(235,235,235);stroke:black;stroke-width:16.06px;" />
        </g>
        <g transform="matrix(3.06162e-17,0.5,-0.5,3.06162e-17,750.5,939)">
            <circle cx="800" cy="100" r="40" style="fill:rgb(235,235,235);stroke:black;stroke-width:16.06px;" />
        </g>
        <g transform="matrix(3.06162e-17,0.5,-0.5,3.06162e-17,472.5,139)">
            <circle cx="800" cy="100" r="40" style="fill:rgb(235,235,235);stroke:black;stroke-width:16.06px;" />
        </g>
        <g transform="matrix(3.06162e-17,0.5,-0.5,3.06162e-17,473.5,456)">
            <circle cx="800" cy="100" r="40" style="fill:rgb(235,235,235);stroke:black;stroke-width:16.06px;" />
        </g>
        <g transform="matrix(3.06162e-17,0.5,-0.5,3.06162e-17,473.5,779)">
            <circle cx="800" cy="100" r="40" style="fill:rgb(235,235,235);stroke:black;stroke-width:16.06px;" />
        </g>
        <g transform="matrix(3.06162e-17,0.5,-0.5,3.06162e-17,195.5,-16)">
            <circle cx="800" cy="100" r="40" style="fill:rgb(235,235,235);stroke:black;stroke-width:16.06px;" />
        </g>
        <g transform="matrix(3.06162e-17,0.5,-0.5,3.06162e-17,196.5,301)">
            <circle cx="800" cy="100" r="40" style="fill:rgb(235,235,235);stroke:black;stroke-width:16.06px;" />
        </g>
        <g transform="matrix(3.06162e-17,0.5,-0.5,3.06162e-17,196.5,624)">
            <circle cx="800" cy="100" r="40" style="fill:rgb(235,235,235);stroke:black;stroke-width:16.06px;" />
        </g>
        <g transform="matrix(3.06162e-17,0.5,-0.5,3.06162e-17,1026.5,779)">
            <circle cx="800" cy="100" r="40" style="fill:rgb(235,235,235);stroke:black;stroke-width:16.06px;" />
        </g>
        <g transform="matrix(3.06162e-17,0.5,-0.5,3.06162e-17,1304.5,618)">
            <circle cx="800" cy="100" r="40" style="fill:rgb(235,235,235);stroke:black;stroke-width:16.06px;" />
        </g>
    </g>
</svg>