<!DOCTYPE svg PUBLIC "-//W3C//DTD SVG 1.1//EN" "http://www.w3.org/Graphics/SVG/1.1/DTD/svg11.dtd"[]><svg width="1400" height="1400" viewBox="0 0 1400 1400" version="1.1" xmlns="http://www.w3.org/2000/svg" xmlns:xlink="http://www.w3.org/1999/xlink" xml:space="preserve" xmlns:serif="http://www.serif.com/" style="fill-rule:evenodd;clip-rule:evenodd;stroke-linecap:round;stroke-linejoin:round;stroke-miterlimit:1.5;">
  <path d="M300,700l100,0" style="fill:none;stroke:#000;stroke-width:8.03px;stroke-dasharray:8.03,24.1,0,0;" />
  <path d="M700,300l0,100" style="fill:none;stroke:#000;stroke-width:8.03px;stroke-dasharray:8.03,24.1,0,0;" />
  <path d="M700,1000l0,100" style="fill:none;stroke:#000;stroke-width:8.03px;stroke-dasharray:8.03,24.1,0,0;" />
  <path d="M1000,700l100,0" style="fill:none;stroke:#000;stroke-width:8.03px;stroke-dasharray:8.03,24.1,0,0;" />
  <path d="M500,500l-100,-100" style="fill:none;stroke:#000;stroke-width:8.03px;stroke-dasharray:8.03,24.1,0,0;" />
  <path d="M300,300l-100,-100" style="fill:none;stroke:#000;stroke-width:8.03px;stroke-dasharray:8.03,24.1,0,0;" />
  <path d="M600,800l-100,100" style="fill:none;stroke:#000;stroke-width:8.03px;stroke-dasharray:8.03,24.1,0,0;" />
  <path d="M400,1000l-100,100" style="fill:none;stroke:#000;stroke-width:8.03px;stroke-dasharray:8.03,24.1,0,0;" />
  <path d="M200,1200l-100,100" style="fill:none;stroke:#000;stroke-width:8.03px;stroke-dasharray:8.03,24.1,0,0;" />
  <path d="M900,900l100,100" style="fill:none;stroke:#000;stroke-width:8.03px;stroke-dasharray:8.03,24.1,0,0;" />
  <path d="M1100,1100l100,100" style="fill:none;stroke:#000;stroke-width:8.03px;stroke-dasharray:8.03,24.1,0,0;" />
  <path d="M800,600l100,-100" style="fill:none;stroke:#000;stroke-width:8.03px;stroke-dasharray:8.03,24.1,0,0;" />
  <path d="M1000,400l100,-100" style="fill:none;stroke:#000;stroke-width:8.03px;stroke-dasharray:8.03,24.1,0,0;" />
  <path d="M1200,200l100,-100" style="fill:none;stroke:#000;stroke-width:8.03px;stroke-dasharray:8.03,24.1,0,0;" />
  <path d="M1200,200l0,1000" style="fill:none;stroke:#000;stroke-width:8.03px;" />
  <path d="M1200,200l-1000,0" style="fill:none;stroke:#000;stroke-width:8.03px;stroke-dasharray:8.03,24.1,0,0;" />
  <path d="M200,200l0,1000" style="fill:none;stroke:#000;stroke-width:8.03px;" />
  <path d="M200,1200l1000,0" style="fill:none;stroke:#000;stroke-width:8.03px;stroke-dasharray:8.03,24.1,0,0;" />
  <path d="M900,500l0,400" style="fill:none;stroke:#000;stroke-width:8.03px;stroke-dasharray:8.03,24.1,0,0;" />
  <path d="M500,500l0,400" style="fill:none;stroke:#000;stroke-width:8.03px;stroke-dasharray:8.03,24.1,0,0;" />
  <path d="M900,500l-400,0" style="fill:none;stroke:#000;stroke-width:8.03px;" />
  <path d="M500,900l400,0" style="fill:none;stroke:#000;stroke-width:8.03px;" />
  <rect x="100" y="100" width="1200" height="1200" style="fill:none;stroke:#000;stroke-width:8.03px;" />
  <rect x="300" y="300" width="800" height="800" style="fill:none;stroke:#000;stroke-width:8.03px;" />
  <rect x="400" y="400" width="600" height="600" style="fill:none;stroke:#000;stroke-width:8.03px;" />
  <rect x="600" y="600" width="200" height="200" style="fill:none;stroke:#000;stroke-width:8.03px;" />
  <path d="M700,100l0,199.156" style="fill:none;stroke:#000;stroke-width:8.03px;" />
  <path d="M700,398.421l0,201.579" style="fill:none;stroke:#000;stroke-width:8.03px;" />
  <path d="M800,700l198.242,0" style="fill:none;stroke:#000;stroke-width:8.03px;" />
  <path d="M1099.75,700l200.247,0" style="fill:none;stroke:#000;stroke-width:8.03px;" />
  <path d="M700,800l0,199.478" style="fill:none;stroke:#000;stroke-width:8.03px;" />
  <path d="M700,1101.76l0,198.242" style="fill:none;stroke:#000;stroke-width:8.03px;" />
  <path d="M600,700l-198.371,0" style="fill:none;stroke:#000;stroke-width:8.03px;" />
  <path d="M300.095,700l-200.095,0" style="fill:none;stroke:#000;stroke-width:8.03px;" />
  <circle cx="700" cy="100" r="20" style="fill:#ebebeb;stroke:#000;stroke-width:8.03px;" />
  <circle cx="700" cy="200" r="20" style="fill:#ebebeb;stroke:#000;stroke-width:8.03px;" />
  <circle cx="700" cy="400" r="20" style="fill:#ebebeb;stroke:#000;stroke-width:8.03px;" />
  <circle cx="1300" cy="100" r="20" style="fill:#ebebeb;stroke:#000;stroke-width:8.03px;" />
  <circle cx="700" cy="300" r="20" style="fill:#ebebeb;stroke:#000;stroke-width:8.03px;" />
  <circle cx="900" cy="500" r="20" style="fill:#ebebeb;stroke:#000;stroke-width:8.03px;" />
  <circle cx="1300" cy="700" r="20" style="fill:#ebebeb;stroke:#000;stroke-width:8.03px;" />
  <circle cx="100" cy="100" r="20" style="fill:#ebebeb;stroke:#000;stroke-width:8.03px;" />
  <circle cx="300" cy="300" r="20" style="fill:#ebebeb;stroke:#000;stroke-width:8.03px;" />
  <circle cx="200" cy="200" r="20" style="fill:#ebebeb;stroke:#000;stroke-width:8.03px;" />
  <circle cx="400" cy="400" r="20" style="fill:#ebebeb;stroke:#000;stroke-width:8.03px;" />
  <circle cx="700" cy="500" r="20" style="fill:#ebebeb;stroke:#000;stroke-width:8.03px;" />
  <circle cx="500" cy="500" r="20" style="fill:#ebebeb;stroke:#000;stroke-width:8.03px;" />
  <circle cx="400" cy="700" r="20" style="fill:#ebebeb;stroke:#000;stroke-width:8.03px;" />
  <circle cx="200" cy="700" r="20" style="fill:#ebebeb;stroke:#000;stroke-width:8.03px;" />
  <circle cx="1100" cy="300" r="20" style="fill:#ebebeb;stroke:#000;stroke-width:8.03px;" />
  <circle cx="1200" cy="200" r="20" style="fill:#ebebeb;stroke:#000;stroke-width:8.03px;" />
  <circle cx="1000" cy="400" r="20" style="fill:#ebebeb;stroke:#000;stroke-width:8.03px;" />
  <circle cx="900" cy="700" r="20" style="fill:#ebebeb;stroke:#000;stroke-width:8.03px;" />
  <circle cx="300" cy="700" r="20" style="fill:#ebebeb;stroke:#000;stroke-width:8.03px;" />
  <circle cx="500" cy="700" r="20" style="fill:#ebebeb;stroke:#000;stroke-width:8.03px;" />
  <circle cx="100" cy="700" r="20" style="fill:#ebebeb;stroke:#000;stroke-width:8.03px;" />
  <circle cx="1100" cy="700" r="20" style="fill:#ebebeb;stroke:#000;stroke-width:8.03px;" />
  <circle cx="1200" cy="700" r="20" style="fill:#ebebeb;stroke:#000;stroke-width:8.03px;" />
  <circle cx="1000" cy="700" r="20" style="fill:#ebebeb;stroke:#000;stroke-width:8.03px;" />
  <circle cx="1100" cy="1100" r="20" style="fill:#ebebeb;stroke:#000;stroke-width:8.03px;" />
  <circle cx="700" cy="900" r="20" style="fill:#ebebeb;stroke:#000;stroke-width:8.03px;" />
  <circle cx="700" cy="800" r="20" style="fill:#ebebeb;stroke:#000;stroke-width:8.03px;" />
  <circle cx="800" cy="700" r="20" style="fill:#ebebeb;stroke:#000;stroke-width:8.03px;" />
  <circle cx="700" cy="600" r="20" style="fill:#ebebeb;stroke:#000;stroke-width:8.03px;" />
  <circle cx="600" cy="600" r="20" style="fill:#ebebeb;stroke:#000;stroke-width:8.03px;" />
  <circle cx="800" cy="600" r="20" style="fill:#ebebeb;stroke:#000;stroke-width:8.03px;" />
  <circle cx="800" cy="800" r="20" style="fill:#ebebeb;stroke:#000;stroke-width:8.03px;" />
  <circle cx="600" cy="800" r="20" style="fill:#ebebeb;stroke:#000;stroke-width:8.03px;" />
  <circle cx="600" cy="700" r="20" style="fill:#ebebeb;stroke:#000;stroke-width:8.03px;" />
  <circle cx="500" cy="900" r="20" style="fill:#ebebeb;stroke:#000;stroke-width:8.03px;" />
  <circle cx="400" cy="1000" r="20" style="fill:#ebebeb;stroke:#000;stroke-width:8.03px;" />
  <circle cx="200" cy="1200" r="20" style="fill:#ebebeb;stroke:#000;stroke-width:8.03px;" />
  <circle cx="700" cy="1100" r="20" style="fill:#ebebeb;stroke:#000;stroke-width:8.03px;" />
  <circle cx="1300" cy="1300" r="20" style="fill:#ebebeb;stroke:#000;stroke-width:8.03px;" />
  <circle cx="300" cy="1100" r="20" style="fill:#ebebeb;stroke:#000;stroke-width:8.03px;" />
  <circle cx="100" cy="1300" r="20" style="fill:#ebebeb;stroke:#000;stroke-width:8.03px;" />
  <circle cx="700" cy="1300" r="20" style="fill:#ebebeb;stroke:#000;stroke-width:8.03px;" />
  <circle cx="900" cy="900" r="20" style="fill:#ebebeb;stroke:#000;stroke-width:8.03px;" />
  <circle cx="1000" cy="1000" r="20" style="fill:#ebebeb;stroke:#000;stroke-width:8.03px;" />
  <circle cx="1200" cy="1200" r="20" style="fill:#ebebeb;stroke:#000;stroke-width:8.03px;" />
  <circle cx="700" cy="1000" r="20" style="fill:#ebebeb;stroke:#000;stroke-width:8.03px;" />
  <circle cx="700" cy="1200" r="20" style="fill:#ebebeb;stroke:#000;stroke-width:8.03px;" />
</svg>