<!DOCTYPE svg PUBLIC "-//W3C//DTD SVG 1.1//EN" "http://www.w3.org/Graphics/SVG/1.1/DTD/svg11.dtd"[]><svg width="1600" height="1600" viewBox="0 0 1600 1600" version="1.1" xmlns="http://www.w3.org/2000/svg" xmlns:xlink="http://www.w3.org/1999/xlink" xml:space="preserve" xmlns:serif="http://www.serif.com/" style="fill-rule:evenodd;clip-rule:evenodd;stroke-linecap:round;stroke-linejoin:round;stroke-miterlimit:1.5;">
  <path d="M700,900l-600,600" style="fill:none;stroke:#000;stroke-width:8.03px;stroke-dasharray:8.03,16.06,0,0;" />
  <path d="M300,800l100,0" style="fill:none;stroke:#000;stroke-width:8.03px;stroke-dasharray:8.03,16.06,0,0;" />
  <path d="M600,800l100,0" style="fill:none;stroke:#000;stroke-width:8.03px;stroke-dasharray:8.03,16.06,0,0;" />
  <path d="M800,300l0,100" style="fill:none;stroke:#000;stroke-width:8.03px;stroke-dasharray:8.03,16.06,0,0;" />
  <path d="M800,600l0,100" style="fill:none;stroke:#000;stroke-width:8.03px;stroke-dasharray:8.03,16.06,0,0;" />
  <path d="M800,1200l0,100" style="fill:none;stroke:#000;stroke-width:8.03px;stroke-dasharray:8.03,16.06,0,0;" />
  <path d="M800,900l0,100" style="fill:none;stroke:#000;stroke-width:8.03px;stroke-dasharray:8.03,16.06,0,0;" />
  <path d="M1200,800l100,0" style="fill:none;stroke:#000;stroke-width:8.03px;stroke-dasharray:8.03,16.06,0,0;" />
  <path d="M900,800l100,0" style="fill:none;stroke:#000;stroke-width:8.03px;stroke-dasharray:8.03,16.06,0,0;" />
  <path d="M900,700l600,-600" style="fill:none;stroke:#000;stroke-width:8.03px;stroke-dasharray:8.03,16.06,0,0;" />
  <path d="M700,700l-600,-600" style="fill:none;stroke:#000;stroke-width:8.03px;stroke-dasharray:8.03,16.06,0,0;" />
  <path d="M900,900l600,600" style="fill:none;stroke:#000;stroke-width:8.03px;stroke-dasharray:8.03,16.06,0,0;" />
  <rect x="200" y="200" width="1200" height="1200" style="fill:none;stroke:#000;stroke-width:8.03px;" />
  <rect x="100" y="100" width="1400" height="1400" style="fill:none;stroke:#000;stroke-width:8.03px;" />
  <rect x="400" y="400" width="800" height="800" style="fill:none;stroke:#000;stroke-width:8.03px;" />
  <rect x="300" y="300" width="1000" height="1000" style="fill:none;stroke:#000;stroke-width:8.03px;" />
  <rect x="600" y="600" width="400" height="400" style="fill:none;stroke:#000;stroke-width:8.03px;" />
  <rect x="700" y="700" width="200" height="200" style="fill:none;stroke:#000;stroke-width:8.03px;" />
  <rect x="500" y="500" width="600" height="600" style="fill:none;stroke:#000;stroke-width:8.03px;" />
  <path d="M800,400l0,200" style="fill:none;stroke:#000;stroke-width:8.03px;" />
  <path d="M800,100l0,200" style="fill:none;stroke:#000;stroke-width:8.03px;" />
  <path d="M1000,800l200,0" style="fill:none;stroke:#000;stroke-width:8.03px;" />
  <path d="M1300,800l200,0" style="fill:none;stroke:#000;stroke-width:8.03px;" />
  <path d="M800,1000l0,200" style="fill:none;stroke:#000;stroke-width:8.03px;" />
  <path d="M800,1300l0,200" style="fill:none;stroke:#000;stroke-width:8.03px;" />
  <path d="M600,800l-200,0" style="fill:none;stroke:#000;stroke-width:8.03px;" />
  <path d="M300,800l-200,0" style="fill:none;stroke:#000;stroke-width:8.03px;" />
  <circle cx="800" cy="200" r="20" style="fill:#ebebeb;stroke:#000;stroke-width:8.03px;" />
  <circle cx="1400" cy="200" r="20" style="fill:#ebebeb;stroke:#000;stroke-width:8.03px;" />
  <circle cx="1500" cy="100" r="20" style="fill:#ebebeb;stroke:#000;stroke-width:8.03px;" />
  <circle cx="800" cy="400" r="20" style="fill:#ebebeb;stroke:#000;stroke-width:8.03px;" />
  <circle cx="800" cy="500" r="20" style="fill:#ebebeb;stroke:#000;stroke-width:8.03px;" />
  <circle cx="1100" cy="500" r="20" style="fill:#ebebeb;stroke:#000;stroke-width:8.03px;" />
  <circle cx="500" cy="500" r="20" style="fill:#ebebeb;stroke:#000;stroke-width:8.03px;" />
  <circle cx="800" cy="300" r="20" style="fill:#ebebeb;stroke:#000;stroke-width:8.03px;" />
  <circle cx="800" cy="100" r="20" style="fill:#ebebeb;stroke:#000;stroke-width:8.03px;" />
  <circle cx="1300" cy="300" r="20" style="fill:#ebebeb;stroke:#000;stroke-width:8.03px;" />
  <circle cx="800" cy="700" r="20" style="fill:#ebebeb;stroke:#000;stroke-width:8.03px;" />
  <circle cx="900" cy="700" r="20" style="fill:#ebebeb;stroke:#000;stroke-width:8.03px;" />
  <circle cx="900" cy="900" r="20" style="fill:#ebebeb;stroke:#000;stroke-width:8.03px;" />
  <circle cx="1000" cy="600" r="20" style="fill:#ebebeb;stroke:#000;stroke-width:8.03px;" />
  <circle cx="1400" cy="800" r="20" style="fill:#ebebeb;stroke:#000;stroke-width:8.03px;" />
  <circle cx="1500" cy="800" r="20" style="fill:#ebebeb;stroke:#000;stroke-width:8.03px;" />
  <circle cx="1300" cy="800" r="20" style="fill:#ebebeb;stroke:#000;stroke-width:8.03px;" />
  <circle cx="200" cy="200" r="20" style="fill:#ebebeb;stroke:#000;stroke-width:8.03px;" />
  <circle cx="400" cy="400" r="20" style="fill:#ebebeb;stroke:#000;stroke-width:8.03px;" />
  <circle cx="300" cy="300" r="20" style="fill:#ebebeb;stroke:#000;stroke-width:8.03px;" />
  <circle cx="100" cy="100" r="20" style="fill:#ebebeb;stroke:#000;stroke-width:8.03px;" />
  <circle cx="800" cy="600" r="20" style="fill:#ebebeb;stroke:#000;stroke-width:8.03px;" />
  <circle cx="600" cy="600" r="20" style="fill:#ebebeb;stroke:#000;stroke-width:8.03px;" />
  <circle cx="700" cy="700" r="20" style="fill:#ebebeb;stroke:#000;stroke-width:8.03px;" />
  <circle cx="900" cy="800" r="20" style="fill:#ebebeb;stroke:#000;stroke-width:8.03px;" />
  <circle cx="800" cy="900" r="20" style="fill:#ebebeb;stroke:#000;stroke-width:8.03px;" />
  <circle cx="700" cy="800" r="20" style="fill:#ebebeb;stroke:#000;stroke-width:8.03px;" />
  <circle cx="700" cy="900" r="20" style="fill:#ebebeb;stroke:#000;stroke-width:8.03px;" />
  <circle cx="1200" cy="400" r="20" style="fill:#ebebeb;stroke:#000;stroke-width:8.03px;" />
  <circle cx="1000" cy="800" r="20" style="fill:#ebebeb;stroke:#000;stroke-width:8.03px;" />
  <circle cx="400" cy="800" r="20" style="fill:#ebebeb;stroke:#000;stroke-width:8.03px;" />
  <circle cx="600" cy="800" r="20" style="fill:#ebebeb;stroke:#000;stroke-width:8.03px;" />
  <circle cx="200" cy="800" r="20" style="fill:#ebebeb;stroke:#000;stroke-width:8.03px;" />
  <circle cx="100" cy="800" r="20" style="fill:#ebebeb;stroke:#000;stroke-width:8.03px;" />
  <circle cx="300" cy="800" r="20" style="fill:#ebebeb;stroke:#000;stroke-width:8.03px;" />
  <circle cx="500" cy="800" r="20" style="fill:#ebebeb;stroke:#000;stroke-width:8.03px;" />
  <circle cx="1200" cy="800" r="20" style="fill:#ebebeb;stroke:#000;stroke-width:8.03px;" />
  <circle cx="1100" cy="800" r="20" style="fill:#ebebeb;stroke:#000;stroke-width:8.03px;" />
  <circle cx="1200" cy="1200" r="20" style="fill:#ebebeb;stroke:#000;stroke-width:8.03px;" />
  <circle cx="1100" cy="1100" r="20" style="fill:#ebebeb;stroke:#000;stroke-width:8.03px;" />
  <circle cx="1300" cy="1300" r="20" style="fill:#ebebeb;stroke:#000;stroke-width:8.03px;" />
  <circle cx="1500" cy="1500" r="20" style="fill:#ebebeb;stroke:#000;stroke-width:8.03px;" />
  <circle cx="800" cy="1000" r="20" style="fill:#ebebeb;stroke:#000;stroke-width:8.03px;" />
  <circle cx="600" cy="1000" r="20" style="fill:#ebebeb;stroke:#000;stroke-width:8.03px;" />
  <circle cx="500" cy="1100" r="20" style="fill:#ebebeb;stroke:#000;stroke-width:8.03px;" />
  <circle cx="300" cy="1300" r="20" style="fill:#ebebeb;stroke:#000;stroke-width:8.03px;" />
  <circle cx="100" cy="1500" r="20" style="fill:#ebebeb;stroke:#000;stroke-width:8.03px;" />
  <circle cx="800" cy="1200" r="20" style="fill:#ebebeb;stroke:#000;stroke-width:8.03px;" />
  <circle cx="800" cy="1100" r="20" style="fill:#ebebeb;stroke:#000;stroke-width:8.03px;" />
  <circle cx="1400" cy="1400" r="20" style="fill:#ebebeb;stroke:#000;stroke-width:8.03px;" />
  <circle cx="400" cy="1200" r="20" style="fill:#ebebeb;stroke:#000;stroke-width:8.03px;" />
  <circle cx="200" cy="1400" r="20" style="fill:#ebebeb;stroke:#000;stroke-width:8.03px;" />
  <circle cx="800" cy="1400" r="20" style="fill:#ebebeb;stroke:#000;stroke-width:8.03px;" />
  <circle cx="800" cy="1300" r="20" style="fill:#ebebeb;stroke:#000;stroke-width:8.03px;" />
  <circle cx="800" cy="1500" r="20" style="fill:#ebebeb;stroke:#000;stroke-width:8.03px;" />
  <circle cx="1000" cy="1000" r="20" style="fill:#ebebeb;stroke:#000;stroke-width:8.03px;" />
</svg>