<!DOCTYPE svg PUBLIC "-//W3C//DTD SVG 1.1//EN" "http://www.w3.org/Graphics/SVG/1.1/DTD/svg11.dtd"[]><svg width="1510" height="1510" viewBox="0 0 1510 1510" version="1.1" xmlns="http://www.w3.org/2000/svg" xmlns:xlink="http://www.w3.org/1999/xlink" xml:space="preserve" xmlns:serif="http://www.serif.com/" style="fill-rule:evenodd;clip-rule:evenodd;stroke-linecap:round;stroke-linejoin:round;stroke-miterlimit:1.5;">
  <rect x="5" y="5" width="1500" height="1500" style="fill:none;stroke:#000;stroke-width:4px;" />
  <path d="M105,5l0,1500" style="fill:none;stroke:#000;stroke-width:2px;" />
  <path d="M205,5l0,1500" style="fill:none;stroke:#000;stroke-width:2px;" />
  <path d="M305,1505l0,-1500" style="fill:none;stroke:#000;stroke-width:2px;" />
  <path d="M405,5l0,1500" style="fill:none;stroke:#000;stroke-width:2px;" />
  <path d="M805,5l0,1500" style="fill:none;stroke:#000;stroke-width:2px;" />
  <path d="M905,5l0,1500" style="fill:none;stroke:#000;stroke-width:2px;" />
  <path d="M1005,1505l0,-1500" style="fill:none;stroke:#000;stroke-width:2px;" />
  <path d="M1105,5l0,1500" style="fill:none;stroke:#000;stroke-width:2px;" />
  <path d="M1205,1505l0,-1500" style="fill:none;stroke:#000;stroke-width:2px;" />
  <path d="M1305,5l0,1500" style="fill:none;stroke:#000;stroke-width:2px;" />
  <path d="M1405,5l0,1500" style="fill:none;stroke:#000;stroke-width:2px;" />
  <path d="M505,1505l0,-1500" style="fill:none;stroke:#000;stroke-width:2px;" />
  <path d="M5,105l1500,0" style="fill:none;stroke:#000;stroke-width:2px;" />
  <path d="M5,205l1500,0" style="fill:none;stroke:#000;stroke-width:2px;" />
  <path d="M605,5l0,1500" style="fill:none;stroke:#000;stroke-width:2px;" />
  <path d="M705,1505l0,-1500" style="fill:none;stroke:#000;stroke-width:2px;" />
  <path d="M5,305l1500,0" style="fill:none;stroke:#000;stroke-width:2px;" />
  <path d="M1505,405l-1500,0" style="fill:none;stroke:#000;stroke-width:2px;" />
  <path d="M5,505l1500,0" style="fill:none;stroke:#000;stroke-width:2px;" />
  <path d="M1505,605l-1500,0" style="fill:none;stroke:#000;stroke-width:2px;" />
  <path d="M5,705l1500,0" style="fill:none;stroke:#000;stroke-width:2px;" />
  <path d="M1505,805l-1500,0" style="fill:none;stroke:#000;stroke-width:2px;" />
  <path d="M5,905l1500,0" style="fill:none;stroke:#000;stroke-width:2px;" />
  <path d="M1505,1005l-1500,0" style="fill:none;stroke:#000;stroke-width:2px;" />
  <path d="M5,1105l1500,0" style="fill:none;stroke:#000;stroke-width:2px;" />
  <path d="M1505,1205l-1500,0" style="fill:none;stroke:#000;stroke-width:2px;" />
  <path d="M5,1305l1500,0" style="fill:none;stroke:#000;stroke-width:2px;" />
  <path d="M1505,1405l-1500,0" style="fill:none;stroke:#000;stroke-width:2px;" />
  <circle cx="55" cy="55" r="40" style="fill:#ebebeb;stroke:#000;stroke-width:4px;" />
  <circle cx="155" cy="55" r="40" style="fill:#ebebeb;stroke:#000;stroke-width:4px;" />
  <circle cx="55" cy="155" r="40" style="fill:#ebebeb;stroke:#000;stroke-width:4px;" />
  <circle cx="155" cy="155" r="40" style="fill:#fbde03;stroke:#000;stroke-width:4px;" />
  <circle cx="255" cy="55" r="40" style="fill:#ca0000;stroke:#000;stroke-width:4px;" />
  <circle cx="355" cy="55" r="40" style="fill:#fbde03;stroke:#000;stroke-width:4px;" />
  <circle cx="255" cy="155" r="40" style="fill:#fbde03;stroke:#000;stroke-width:4px;" />
  <circle cx="355" cy="155" r="40" style="fill:#ebebeb;stroke:#000;stroke-width:4px;" />
  <circle cx="455" cy="55" r="40" style="fill:#fbde03;stroke:#000;stroke-width:4px;" />
  <circle cx="555" cy="55" r="40" style="fill:#ebebeb;stroke:#000;stroke-width:4px;" />
  <circle cx="455" cy="155" r="40" style="fill:#ca0000;stroke:#000;stroke-width:4px;" />
  <circle cx="555" cy="155" r="40" style="fill:#fbde03;stroke:#000;stroke-width:4px;" />
  <circle cx="655" cy="55" r="40" style="fill:#ebebeb;stroke:#000;stroke-width:4px;" />
  <circle cx="755" cy="55" r="40" style="fill:#fbde03;stroke:#000;stroke-width:4px;" />
  <circle cx="655" cy="155" r="40" style="fill:#ebebeb;stroke:#000;stroke-width:4px;" />
  <circle cx="755" cy="155" r="40" style="fill:#ebebeb;stroke:#000;stroke-width:4px;" />
  <circle cx="55" cy="255" r="40" style="fill:#fbde03;stroke:#000;stroke-width:4px;" />
  <circle cx="155" cy="255" r="40" style="fill:#ca0000;stroke:#000;stroke-width:4px;" />
  <circle cx="55" cy="355" r="40" style="fill:#ca0000;stroke:#000;stroke-width:4px;" />
  <circle cx="155" cy="355" r="40" style="fill:#ca0000;stroke:#000;stroke-width:4px;" />
  <circle cx="255" cy="255" r="40" style="fill:#ebebeb;stroke:#000;stroke-width:4px;" />
  <circle cx="355" cy="255" r="40" style="fill:#fbde03;stroke:#000;stroke-width:4px;" />
  <circle cx="255" cy="355" r="40" style="fill:#ebebeb;stroke:#000;stroke-width:4px;" />
  <circle cx="355" cy="355" r="40" style="fill:#31b13b;stroke:#000;stroke-width:4px;" />
  <circle cx="455" cy="255" r="40" style="fill:#fbde03;stroke:#000;stroke-width:4px;" />
  <circle cx="555" cy="255" r="40" style="fill:#ebebeb;stroke:#000;stroke-width:4px;" />
  <circle cx="455" cy="355" r="40" style="fill:#ebebeb;stroke:#000;stroke-width:4px;" />
  <circle cx="555" cy="355" r="40" style="fill:#ebebeb;stroke:#000;stroke-width:4px;" />
  <circle cx="660" cy="260" r="40" style="fill:#31b13b;stroke:#000;stroke-width:4px;" />
  <circle cx="755" cy="255" r="40" style="fill:#ca0000;stroke:#000;stroke-width:4px;" />
  <circle cx="655" cy="355" r="40" style="fill:#fbde03;stroke:#000;stroke-width:4px;" />
  <circle cx="755" cy="355" r="40" style="fill:#fbde03;stroke:#000;stroke-width:4px;" />
  <circle cx="55" cy="455" r="40" style="fill:#ca0000;stroke:#000;stroke-width:4px;" />
  <circle cx="155" cy="455" r="40" style="fill:#ebebeb;stroke:#000;stroke-width:4px;" />
  <circle cx="55" cy="555" r="40" style="fill:#fbde03;stroke:#000;stroke-width:4px;" />
  <circle cx="155" cy="555" r="40" style="fill:#ebebeb;stroke:#000;stroke-width:4px;" />
  <circle cx="255" cy="455" r="40" style="fill:#ebebeb;stroke:#000;stroke-width:4px;" />
  <circle cx="355" cy="455" r="40" style="fill:#31b13b;stroke:#000;stroke-width:4px;" />
  <circle cx="255" cy="555" r="40" style="fill:#ca0000;stroke:#000;stroke-width:4px;" />
  <circle cx="355" cy="555" r="40" style="fill:#fbde03;stroke:#000;stroke-width:4px;" />
  <circle cx="455" cy="455" r="40" style="fill:#ebebeb;stroke:#000;stroke-width:4px;" />
  <circle cx="555" cy="455" r="40" style="fill:#ebebeb;stroke:#000;stroke-width:4px;" />
  <circle cx="455" cy="555" r="40" style="fill:#ebebeb;stroke:#000;stroke-width:4px;" />
  <circle cx="555" cy="555" r="40" style="fill:#fbde03;stroke:#000;stroke-width:4px;" />
  <circle cx="655" cy="455" r="40" style="fill:#ca0000;stroke:#000;stroke-width:4px;" />
  <circle cx="755" cy="455" r="40" style="fill:#fbde03;stroke:#000;stroke-width:4px;" />
  <circle cx="655" cy="555" r="40" style="fill:#31b13b;stroke:#000;stroke-width:4px;" />
  <circle cx="755" cy="555" r="40" style="fill:#ebebeb;stroke:#000;stroke-width:4px;" />
  <circle cx="55" cy="655" r="40" style="fill:#ebebeb;stroke:#000;stroke-width:4px;" />
  <circle cx="155" cy="655" r="40" style="fill:#fbde03;stroke:#000;stroke-width:4px;" />
  <circle cx="55" cy="755" r="40" style="fill:#ebebeb;stroke:#000;stroke-width:4px;" />
  <circle cx="155" cy="755" r="40" style="fill:#fbde03;stroke:#000;stroke-width:4px;" />
  <circle cx="255" cy="655" r="40" style="fill:#fbde03;stroke:#000;stroke-width:4px;" />
  <circle cx="355" cy="655" r="40" style="fill:#fbde03;stroke:#000;stroke-width:4px;" />
  <circle cx="255" cy="755" r="40" style="fill:#ebebeb;stroke:#000;stroke-width:4px;" />
  <circle cx="355" cy="755" r="40" style="fill:#ebebeb;stroke:#000;stroke-width:4px;" />
  <circle cx="455" cy="655" r="40" style="fill:#ebebeb;stroke:#000;stroke-width:4px;" />
  <circle cx="555" cy="655" r="40" style="fill:#ebebeb;stroke:#000;stroke-width:4px;" />
  <circle cx="455" cy="755" r="40" style="fill:#ebebeb;stroke:#000;stroke-width:4px;" />
  <circle cx="555" cy="755" r="40" style="fill:#31b13b;stroke:#000;stroke-width:4px;" />
  <circle cx="655" cy="655" r="40" style="fill:#fbde03;stroke:#000;stroke-width:4px;" />
  <circle cx="755" cy="655" r="40" style="fill:#ebebeb;stroke:#000;stroke-width:4px;" />
  <circle cx="655" cy="755" r="40" style="fill:#fbde03;stroke:#000;stroke-width:4px;" />
  <circle cx="755" cy="755" r="40" style="fill:#ebebeb;stroke:#000;stroke-width:4px;" />
  <circle cx="855" cy="55" r="40" style="fill:#ca0000;stroke:#000;stroke-width:4px;" />
  <circle cx="855" cy="155" r="40" style="fill:#ca0000;stroke:#000;stroke-width:4px;" />
  <circle cx="855" cy="255" r="40" style="fill:#fbde03;stroke:#000;stroke-width:4px;" />
  <circle cx="855" cy="355" r="40" style="fill:#ca0000;stroke:#000;stroke-width:4px;" />
  <circle cx="855" cy="455" r="40" style="fill:#ebebeb;stroke:#000;stroke-width:4px;" />
  <circle cx="855" cy="555" r="40" style="fill:#fbde03;stroke:#000;stroke-width:4px;" />
  <circle cx="855" cy="655" r="40" style="fill:#fbde03;stroke:#000;stroke-width:4px;" />
  <circle cx="855" cy="755" r="40" style="fill:#ebebeb;stroke:#000;stroke-width:4px;" />
  <circle cx="1455" cy="55" r="40" style="fill:#ebebeb;stroke:#000;stroke-width:4px;" />
  <circle cx="1455" cy="155" r="40" style="fill:#fbde03;stroke:#000;stroke-width:4px;" />
  <circle cx="1455" cy="255" r="40" style="fill:#fbde03;stroke:#000;stroke-width:4px;" />
  <circle cx="1455" cy="355" r="40" style="fill:#ebebeb;stroke:#000;stroke-width:4px;" />
  <circle cx="1455" cy="455" r="40" style="fill:#ebebeb;stroke:#000;stroke-width:4px;" />
  <circle cx="1455" cy="555" r="40" style="fill:#ebebeb;stroke:#000;stroke-width:4px;" />
  <circle cx="1455" cy="655" r="40" style="fill:#fbde03;stroke:#000;stroke-width:4px;" />
  <circle cx="1455" cy="755" r="40" style="fill:#fbde03;stroke:#000;stroke-width:4px;" />
  <circle cx="1355" cy="55" r="40" style="fill:#ca0000;stroke:#000;stroke-width:4px;" />
  <circle cx="1355" cy="155" r="40" style="fill:#ca0000;stroke:#000;stroke-width:4px;" />
  <circle cx="1355" cy="255" r="40" style="fill:#fbde03;stroke:#000;stroke-width:4px;" />
  <circle cx="1355" cy="355" r="40" style="fill:#ebebeb;stroke:#000;stroke-width:4px;" />
  <circle cx="1355" cy="455" r="40" style="fill:#ca0000;stroke:#000;stroke-width:4px;" />
  <circle cx="1355" cy="555" r="40" style="fill:#ca0000;stroke:#000;stroke-width:4px;" />
  <circle cx="1355" cy="655" r="40" style="fill:#ca0000;stroke:#000;stroke-width:4px;" />
  <circle cx="1355" cy="755" r="40" style="fill:#31b13b;stroke:#000;stroke-width:4px;" />
  <circle cx="1255" cy="55" r="40" style="fill:#ca0000;stroke:#000;stroke-width:4px;" />
  <circle cx="1255" cy="155" r="40" style="fill:#ebebeb;stroke:#000;stroke-width:4px;" />
  <circle cx="1255" cy="255" r="40" style="fill:#fbde03;stroke:#000;stroke-width:4px;" />
  <circle cx="1255" cy="355" r="40" style="fill:#ebebeb;stroke:#000;stroke-width:4px;" />
  <circle cx="1255" cy="455" r="40" style="fill:#ca0000;stroke:#000;stroke-width:4px;" />
  <circle cx="1255" cy="555" r="40" style="fill:#fbde03;stroke:#000;stroke-width:4px;" />
  <circle cx="1255" cy="655" r="40" style="fill:#ebebeb;stroke:#000;stroke-width:4px;" />
  <circle cx="1255" cy="755" r="40" style="fill:#ca0000;stroke:#000;stroke-width:4px;" />
  <circle cx="1155" cy="55" r="40" style="fill:#ca0000;stroke:#000;stroke-width:4px;" />
  <circle cx="1155" cy="155" r="40" style="fill:#fbde03;stroke:#000;stroke-width:4px;" />
  <circle cx="1155" cy="255" r="40" style="fill:#fbde03;stroke:#000;stroke-width:4px;" />
  <circle cx="1155" cy="355" r="40" style="fill:#fbde03;stroke:#000;stroke-width:4px;" />
  <circle cx="1155" cy="455" r="40" style="fill:#ca0000;stroke:#000;stroke-width:4px;" />
  <circle cx="1155" cy="555" r="40" style="fill:#ebebeb;stroke:#000;stroke-width:4px;" />
  <circle cx="1155" cy="655" r="40" style="fill:#ebebeb;stroke:#000;stroke-width:4px;" />
  <circle cx="1155" cy="755" r="40" style="fill:#ca0000;stroke:#000;stroke-width:4px;" />
  <circle cx="1055" cy="55" r="40" style="fill:#ebebeb;stroke:#000;stroke-width:4px;" />
  <circle cx="1055" cy="155" r="40" style="fill:#ebebeb;stroke:#000;stroke-width:4px;" />
  <circle cx="1055" cy="255" r="40" style="fill:#ebebeb;stroke:#000;stroke-width:4px;" />
  <circle cx="1055" cy="355" r="40" style="fill:#31b13b;stroke:#000;stroke-width:4px;" />
  <circle cx="1055" cy="455" r="40" style="fill:#fbde03;stroke:#000;stroke-width:4px;" />
  <circle cx="1055" cy="555" r="40" style="fill:#ebebeb;stroke:#000;stroke-width:4px;" />
  <circle cx="1055" cy="655" r="40" style="fill:#fbde03;stroke:#000;stroke-width:4px;" />
  <circle cx="1055" cy="755" r="40" style="fill:#31b13b;stroke:#000;stroke-width:4px;" />
  <circle cx="955" cy="55" r="40" style="fill:#ebebeb;stroke:#000;stroke-width:4px;" />
  <circle cx="955" cy="155" r="40" style="fill:#fbde03;stroke:#000;stroke-width:4px;" />
  <circle cx="955" cy="255" r="40" style="fill:#ebebeb;stroke:#000;stroke-width:4px;" />
  <circle cx="955" cy="355" r="40" style="fill:#fbde03;stroke:#000;stroke-width:4px;" />
  <circle cx="955" cy="455" r="40" style="fill:#ebebeb;stroke:#000;stroke-width:4px;" />
  <circle cx="955" cy="555" r="40" style="fill:#ebebeb;stroke:#000;stroke-width:4px;" />
  <circle cx="955" cy="655" r="40" style="fill:#ca0000;stroke:#000;stroke-width:4px;" />
  <circle cx="955" cy="755" r="40" style="fill:#ebebeb;stroke:#000;stroke-width:4px;" />
  <circle cx="55" cy="855" r="40" style="fill:#fbde03;stroke:#000;stroke-width:4px;" />
  <circle cx="155" cy="855" r="40" style="fill:#ebebeb;stroke:#000;stroke-width:4px;" />
  <circle cx="255" cy="855" r="40" style="fill:#ca0000;stroke:#000;stroke-width:4px;" />
  <circle cx="355" cy="855" r="40" style="fill:#ca0000;stroke:#000;stroke-width:4px;" />
  <circle cx="455" cy="855" r="40" style="fill:#fbde03;stroke:#000;stroke-width:4px;" />
  <circle cx="555" cy="855" r="40" style="fill:#ebebeb;stroke:#000;stroke-width:4px;" />
  <circle cx="655" cy="855" r="40" style="fill:#ca0000;stroke:#000;stroke-width:4px;" />
  <circle cx="755" cy="855" r="40" style="fill:#31b13b;stroke:#000;stroke-width:4px;" />
  <circle cx="855" cy="855" r="40" style="fill:#fbde03;stroke:#000;stroke-width:4px;" />
  <circle cx="1455" cy="855" r="40" style="fill:#ca0000;stroke:#000;stroke-width:4px;" />
  <circle cx="1355" cy="855" r="40" style="fill:#fbde03;stroke:#000;stroke-width:4px;" />
  <circle cx="1255" cy="855" r="40" style="fill:#ebebeb;stroke:#000;stroke-width:4px;" />
  <circle cx="1155" cy="855" r="40" style="fill:#ca0000;stroke:#000;stroke-width:4px;" />
  <circle cx="1055" cy="855" r="40" style="fill:#ebebeb;stroke:#000;stroke-width:4px;" />
  <circle cx="955" cy="855" r="40" style="fill:#fbde03;stroke:#000;stroke-width:4px;" />
  <circle cx="56" cy="956" r="40" style="fill:#ca0000;stroke:#000;stroke-width:4px;" />
  <circle cx="156" cy="956" r="40" style="fill:#ebebeb;stroke:#000;stroke-width:4px;" />
  <circle cx="256" cy="956" r="40" style="fill:#fbde03;stroke:#000;stroke-width:4px;" />
  <circle cx="356" cy="956" r="40" style="fill:#31b13b;stroke:#000;stroke-width:4px;" />
  <circle cx="456" cy="956" r="40" style="fill:#31b13b;stroke:#000;stroke-width:4px;" />
  <circle cx="556" cy="956" r="40" style="fill:#fbde03;stroke:#000;stroke-width:4px;" />
  <circle cx="656" cy="956" r="40" style="fill:#ca0000;stroke:#000;stroke-width:4px;" />
  <circle cx="756" cy="956" r="40" style="fill:#ebebeb;stroke:#000;stroke-width:4px;" />
  <circle cx="856" cy="956" r="40" style="fill:#fbde03;stroke:#000;stroke-width:4px;" />
  <circle cx="1456" cy="956" r="40" style="fill:#ebebeb;stroke:#000;stroke-width:4px;" />
  <circle cx="1455" cy="1055" r="40" style="fill:#ebebeb;stroke:#000;stroke-width:4px;" />
  <circle cx="1356" cy="956" r="40" style="fill:#ca0000;stroke:#000;stroke-width:4px;" />
  <circle cx="1256" cy="956" r="40" style="fill:#ebebeb;stroke:#000;stroke-width:4px;" />
  <circle cx="1156" cy="956" r="40" style="fill:#fbde03;stroke:#000;stroke-width:4px;" />
  <circle cx="1056" cy="956" r="40" style="fill:#ca0000;stroke:#000;stroke-width:4px;" />
  <circle cx="956" cy="956" r="40" style="fill:#ca0000;stroke:#000;stroke-width:4px;" />
  <circle cx="55" cy="1455" r="40" style="fill:#ebebeb;stroke:#000;stroke-width:4px;" />
  <circle cx="155" cy="1455" r="40" style="fill:#ca0000;stroke:#000;stroke-width:4px;" />
  <circle cx="255" cy="1455" r="40" style="fill:#31b13b;stroke:#000;stroke-width:4px;" />
  <circle cx="355" cy="1455" r="40" style="fill:#31b13b;stroke:#000;stroke-width:4px;" />
  <circle cx="455" cy="1455" r="40" style="fill:#31b13b;stroke:#000;stroke-width:4px;" />
  <circle cx="555" cy="1455" r="40" style="fill:#ebebeb;stroke:#000;stroke-width:4px;" />
  <circle cx="655" cy="1455" r="40" style="fill:#31b13b;stroke:#000;stroke-width:4px;" />
  <circle cx="755" cy="1455" r="40" style="fill:#ebebeb;stroke:#000;stroke-width:4px;" />
  <circle cx="855" cy="1455" r="40" style="fill:#ca0000;stroke:#000;stroke-width:4px;" />
  <circle cx="1455" cy="1455" r="40" style="fill:#ebebeb;stroke:#000;stroke-width:4px;" />
  <circle cx="1355" cy="1455" r="40" style="fill:#ebebeb;stroke:#000;stroke-width:4px;" />
  <circle cx="1255" cy="1455" r="40" style="fill:#31b13b;stroke:#000;stroke-width:4px;" />
  <circle cx="1155" cy="1455" r="40" style="fill:#ebebeb;stroke:#000;stroke-width:4px;" />
  <circle cx="1055" cy="1455" r="40" style="fill:#fbde03;stroke:#000;stroke-width:4px;" />
  <circle cx="955" cy="1455" r="40" style="fill:#ca0000;stroke:#000;stroke-width:4px;" />
  <circle cx="55" cy="1355" r="40" style="fill:#ebebeb;stroke:#000;stroke-width:4px;" />
  <circle cx="155" cy="1355" r="40" style="fill:#31b13b;stroke:#000;stroke-width:4px;" />
  <circle cx="255" cy="1355" r="40" style="fill:#fbde03;stroke:#000;stroke-width:4px;" />
  <circle cx="355" cy="1355" r="40" style="fill:#ca0000;stroke:#000;stroke-width:4px;" />
  <circle cx="455" cy="1355" r="40" style="fill:#31b13b;stroke:#000;stroke-width:4px;" />
  <circle cx="555" cy="1355" r="40" style="fill:#ca0000;stroke:#000;stroke-width:4px;" />
  <circle cx="655" cy="1355" r="40" style="fill:#fbde03;stroke:#000;stroke-width:4px;" />
  <circle cx="755" cy="1355" r="40" style="fill:#ebebeb;stroke:#000;stroke-width:4px;" />
  <circle cx="855" cy="1355" r="40" style="fill:#fbde03;stroke:#000;stroke-width:4px;" />
  <circle cx="1455" cy="1355" r="40" style="fill:#fbde03;stroke:#000;stroke-width:4px;" />
  <circle cx="1355" cy="1355" r="40" style="fill:#ebebeb;stroke:#000;stroke-width:4px;" />
  <circle cx="1255" cy="1355" r="40" style="fill:#ebebeb;stroke:#000;stroke-width:4px;" />
  <circle cx="1155" cy="1355" r="40" style="fill:#ebebeb;stroke:#000;stroke-width:4px;" />
  <circle cx="1055" cy="1355" r="40" style="fill:#ebebeb;stroke:#000;stroke-width:4px;" />
  <circle cx="955" cy="1355" r="40" style="fill:#fbde03;stroke:#000;stroke-width:4px;" />
  <circle cx="55" cy="1255" r="40" style="fill:#ebebeb;stroke:#000;stroke-width:4px;" />
  <circle cx="155" cy="1255" r="40" style="fill:#ca0000;stroke:#000;stroke-width:4px;" />
  <circle cx="255" cy="1255" r="40" style="fill:#ca0000;stroke:#000;stroke-width:4px;" />
  <circle cx="355" cy="1255" r="40" style="fill:#31b13b;stroke:#000;stroke-width:4px;" />
  <circle cx="455" cy="1255" r="40" style="fill:#fbde03;stroke:#000;stroke-width:4px;" />
  <circle cx="555" cy="1255" r="40" style="fill:#ebebeb;stroke:#000;stroke-width:4px;" />
  <circle cx="655" cy="1255" r="40" style="fill:#fbde03;stroke:#000;stroke-width:4px;" />
  <circle cx="755" cy="1255" r="40" style="fill:#ebebeb;stroke:#000;stroke-width:4px;" />
  <circle cx="855" cy="1255" r="40" style="fill:#ca0000;stroke:#000;stroke-width:4px;" />
  <circle cx="1455" cy="1255" r="40" style="fill:#ebebeb;stroke:#000;stroke-width:4px;" />
  <circle cx="1355" cy="1255" r="40" style="fill:#ebebeb;stroke:#000;stroke-width:4px;" />
  <circle cx="1255" cy="1255" r="40" style="fill:#31b13b;stroke:#000;stroke-width:4px;" />
  <circle cx="1155" cy="1255" r="40" style="fill:#fbde03;stroke:#000;stroke-width:4px;" />
  <circle cx="1055" cy="1255" r="40" style="fill:#fbde03;stroke:#000;stroke-width:4px;" />
  <circle cx="955" cy="1255" r="40" style="fill:#fbde03;stroke:#000;stroke-width:4px;" />
  <circle cx="55" cy="1155" r="40" style="fill:#fbde03;stroke:#000;stroke-width:4px;" />
  <circle cx="155" cy="1155" r="40" style="fill:#fbde03;stroke:#000;stroke-width:4px;" />
  <circle cx="255" cy="1155" r="40" style="fill:#fbde03;stroke:#000;stroke-width:4px;" />
  <circle cx="355" cy="1155" r="40" style="fill:#ca0000;stroke:#000;stroke-width:4px;" />
  <circle cx="455" cy="1155" r="40" style="fill:#fbde03;stroke:#000;stroke-width:4px;" />
  <circle cx="555" cy="1155" r="40" style="fill:#ebebeb;stroke:#000;stroke-width:4px;" />
  <circle cx="655" cy="1155" r="40" style="fill:#ebebeb;stroke:#000;stroke-width:4px;" />
  <circle cx="755" cy="1155" r="40" style="fill:#fbde03;stroke:#000;stroke-width:4px;" />
  <circle cx="855" cy="1155" r="40" style="fill:#ebebeb;stroke:#000;stroke-width:4px;" />
  <circle cx="1455" cy="1155" r="40" style="fill:#ca0000;stroke:#000;stroke-width:4px;" />
  <circle cx="1355" cy="1155" r="40" style="fill:#fbde03;stroke:#000;stroke-width:4px;" />
  <circle cx="1255" cy="1155" r="40" style="fill:#ca0000;stroke:#000;stroke-width:4px;" />
  <circle cx="1155" cy="1155" r="40" style="fill:url(#_Linear1);stroke:#000;stroke-width:4px;" />
  <circle cx="1055" cy="1155" r="40" style="fill:#ebebeb;stroke:#000;stroke-width:4px;" />
  <circle cx="955" cy="1155" r="40" style="fill:#ebebeb;stroke:#000;stroke-width:4px;" />
  <circle cx="55" cy="1055" r="40" style="fill:#ebebeb;stroke:#000;stroke-width:4px;" />
  <circle cx="155" cy="1055" r="40" style="fill:#31b13b;stroke:#000;stroke-width:4px;" />
  <circle cx="255" cy="1055" r="40" style="fill:#fbde03;stroke:#000;stroke-width:4px;" />
  <circle cx="355" cy="1055" r="40" style="fill:#ebebeb;stroke:#000;stroke-width:4px;" />
  <circle cx="455" cy="1055" r="40" style="fill:#ebebeb;stroke:#000;stroke-width:4px;" />
  <circle cx="555" cy="1055" r="40" style="fill:#fbde03;stroke:#000;stroke-width:4px;" />
  <circle cx="655" cy="1055" r="40" style="fill:#ebebeb;stroke:#000;stroke-width:4px;" />
  <circle cx="755" cy="1055" r="40" style="fill:#ebebeb;stroke:#000;stroke-width:4px;" />
  <circle cx="855" cy="1055" r="40" style="fill:#ebebeb;stroke:#000;stroke-width:4px;" />
  <circle cx="1355" cy="1055" r="40" style="fill:#ebebeb;stroke:#000;stroke-width:4px;" />
  <circle cx="1255" cy="1055" r="40" style="fill:#fbde03;stroke:#000;stroke-width:4px;" />
  <circle cx="1155" cy="1055" r="40" style="fill:#ebebeb;stroke:#000;stroke-width:4px;" />
  <circle cx="1055" cy="1055" r="40" style="fill:#31b13b;stroke:#000;stroke-width:4px;" />
  <circle cx="955" cy="1055" r="40" style="fill:#ebebeb;stroke:#000;stroke-width:4px;" />
  <defs>
    <linearGradient id="_Linear1" x1="0" y1="0" x2="1" y2="0" gradientUnits="userSpaceOnUse" gradientTransform="matrix(2e-06,0,0,2e-06,1380,1150)">
      <stop offset="0" style="stop-color:#fbde03;stop-opacity:1" />
      <stop offset="1" style="stop-color:#fcec96;stop-opacity:1" />
    </linearGradient>
  </defs>
</svg>