<?xml version="1.0" encoding="UTF-8" standalone="no"?><!DOCTYPE svg PUBLIC "-//W3C//DTD SVG 1.1//EN" "http://www.w3.org/Graphics/SVG/1.1/DTD/svg11.dtd"><svg width="100%" height="100%" viewBox="0 0 7850 5003" version="1.1" xmlns="http://www.w3.org/2000/svg" xmlns:xlink="http://www.w3.org/1999/xlink" xml:space="preserve" xmlns:serif="http://www.serif.com/" style="fill-rule:evenodd;clip-rule:evenodd;stroke-miterlimit:2;"><g><clipPath id="_clip1"><rect x="0" y="0" width="7849.26" height="5002"/></clipPath><g clip-path="url(#_clip1)"><rect x="-1075.36" y="-1665.66" width="10000" height="8333.33" style="fill:#f4f4f4;fill-rule:nonzero;"/><rect x="0" y="0" width="7849.26" height="5002" style="fill:#fff;fill-rule:nonzero;"/><rect x="0" y="0" width="7849.26" height="5002" style="fill:none;stroke:#d3d3d3;stroke-width:12.5px;"/><path d="M5220.47,0l-0,5002" style="fill:none;fill-rule:nonzero;"/><path d="M5220.47,0l-0,5002" style="fill:none;stroke:#d3d3d3;stroke-width:12.5px;"/><path d="M2628.8,0l0,5002" style="fill:none;fill-rule:nonzero;"/><path d="M2628.8,0l0,5002" style="fill:none;stroke:#d3d3d3;stroke-width:12.5px;"/><path d="M0,2457.25l7849.26,87.5" style="fill:none;fill-rule:nonzero;"/><path d="M0,2457.25l7849.26,87.5" style="fill:none;stroke:#d3d3d3;stroke-width:12.5px;"/><path d="M3547.68,1692.62l784.667,-0c66.958,-113.58 198.5,-378.767 154.625,-507.109c-21.959,-64.271 -68.5,-113.817 -127.667,-135.92c-40.083,-14.959 -81.625,-14.572 -108.416,1.012c-24.792,14.387 -58.042,35.683 -93.25,58.233c-124.751,79.833 -183.042,114.825 -217.626,114.825c-34.583,0 -92.874,-34.987 -217.625,-114.821c-35.208,-22.55 -68.499,-43.85 -93.25,-58.237c-26.833,-15.596 -68.374,-15.975 -108.416,-1.012c-59.209,22.103 -105.75,71.649 -127.708,135.92c-43.917,128.513 87.666,393.596 154.666,507.109Zm828.709,78.574l-872.792,0l-11.5,-18.616c-24.792,-40.054 -240.25,-396.971 -173.458,-592.479c29.625,-86.634 93.249,-153.742 174.583,-184.117c62.5,-23.329 128.041,-20.833 175.417,6.692c26.208,15.237 60.166,36.971 96.124,59.983c55.917,35.792 148.501,95.042 175.25,102.087c26.75,-7.045 119.334,-66.295 175.25,-102.091c35.959,-23.008 69.917,-44.742 96.125,-59.979c47.334,-27.521 112.917,-30.03 175.417,-6.692c81.292,30.375 144.917,97.483 174.542,184.117c66.833,195.508 -148.625,552.425 -173.417,592.479l-11.541,18.616Z" style="fill:#0c180a;fill-rule:nonzero;"/><path d="M3661.01,1698.23l244.792,-0c-9.041,-279.513 -129.083,-424.312 -175.375,-480.15l-5.375,-6.546c-14.25,-17.342 -73.125,-33.588 -129.416,-18.517c-34.751,9.292 -78.417,33.692 -89,97.146c-19.126,114.838 96.999,320.925 154.374,408.067Zm312.667,67.354l-348.25,0l-10.083,-14.562c-8.333,-12.113 -204.042,-298.542 -175.125,-471.93c12.833,-77.104 61.875,-130.779 138.041,-151.142c74.709,-20.012 163.917,-1.662 198.834,40.834l5.208,6.313c52.334,63.15 191.375,230.891 191.375,556.812l0,33.675Z" style="fill:#a82d1d;fill-rule:nonzero;"/><path d="M3974.22,1698.23l244.75,-0c57.417,-87.2 173.5,-293.396 154.375,-408.067c-10.583,-63.454 -54.25,-87.854 -89,-97.146c-56.292,-15.058 -115.125,1.184 -129.375,18.517l-5.417,6.546c-46.292,55.838 -166.292,200.637 -175.333,480.15Zm280.375,67.354l-348.292,0l0,-33.675c0,-325.916 139.042,-493.658 191.417,-556.804l5.208,-6.321c34.917,-42.5 124.083,-60.808 198.834,-40.834c76.166,20.363 125.166,74.038 137.999,151.142c28.917,173.388 -166.791,459.817 -175.125,471.93l-10.041,14.562Z" style="fill:#a82d1d;fill-rule:nonzero;"/><path d="M3749.26,1765.59c-12.959,0 -25.334,-7.554 -30.876,-20.225l-159.708,-366.32c-7.458,-17.051 0.333,-36.896 17.417,-44.33c17.041,-7.404 36.875,0.363 44.333,17.408l159.708,366.322c7.417,17.049 -0.375,36.9 -17.416,44.329c-4.375,1.908 -8.959,2.816 -13.458,2.816Z" style="fill:#a82d1d;fill-rule:nonzero;"/><path d="M3852.3,1765.59c-13,0 -25.375,-7.554 -30.917,-20.225l-199.375,-457.316c-7.458,-17.05 0.334,-36.896 17.376,-44.33c17.083,-7.408 36.916,0.363 44.333,17.409l199.417,457.317c7.416,17.049 -0.376,36.9 -17.417,44.329c-4.375,1.908 -8.959,2.816 -13.417,2.816Z" style="fill:#a82d1d;fill-rule:nonzero;"/><path d="M4130.72,1765.59c-4.5,0 -9.042,-0.899 -13.459,-2.816c-17.041,-7.429 -24.833,-27.28 -17.374,-44.329l159.708,-366.322c7.417,-17.041 27.291,-24.841 44.333,-17.408c17.042,7.434 24.833,27.279 17.417,44.33l-159.75,366.32c-5.5,12.663 -17.875,20.225 -30.875,20.225Z" style="fill:#a82d1d;fill-rule:nonzero;"/><path d="M4027.72,1765.59c-4.5,0 -9.083,-0.899 -13.458,-2.816c-17.042,-7.429 -24.834,-27.28 -17.417,-44.329l199.416,-457.317c7.459,-17.046 27.292,-24.842 44.334,-17.409c17.042,7.434 24.833,27.28 17.417,44.33l-199.417,457.316c-5.5,12.663 -17.875,20.225 -30.875,20.225Z" style="fill:#a82d1d;fill-rule:nonzero;"/><path d="M3940.01,880.783c-52.583,0 -95.374,42.784 -95.374,95.371c-0,52.583 42.791,95.362 95.374,95.362c52.584,0 95.375,-42.779 95.375,-95.362c0,-52.587 -42.791,-95.371 -95.375,-95.371Zm0,269.313c-95.916,-0 -173.958,-78.029 -173.958,-173.942c-0,-95.913 78.042,-173.946 173.958,-173.946c95.917,-0 173.917,78.033 173.917,173.946c0,95.913 -78,173.942 -173.917,173.942Z" style="fill:#0c180a;fill-rule:nonzero;"/><path d="M4091.3,344.75l-151.292,228.437l-151.333,-228.437" style="fill:#0c180a;fill-rule:nonzero;"/><rect x="3905.43" y="458.971" width="69.167" height="387.912" style="fill:#0c180a;fill-rule:nonzero;"/><path d="M4247.22,771.987l-187.875,-124.454l187.875,-124.45" style="fill:#0c180a;fill-rule:nonzero;"/><rect x="3945.89" y="621.408" width="193.959" height="52.254" style="fill:#0c180a;fill-rule:nonzero;"/><path d="M3638.01,523.083l187.876,124.45l-187.876,124.454" style="fill:#0c180a;fill-rule:nonzero;"/><rect x="3745.39" y="621.408" width="193.959" height="52.254" style="fill:#0c180a;fill-rule:nonzero;"/><path d="M3544.64,1771.19c-25.667,0 -46.542,20.863 -46.542,46.505c-0,25.65 20.875,46.508 46.542,46.508l809.708,-0c25.667,-0 46.5,-20.858 46.5,-46.508c-0,-25.642 -20.833,-46.505 -46.5,-46.505l-809.708,0Zm809.708,171.588l-809.708,0c-69.001,0 -125.084,-56.108 -125.084,-125.083c0,-68.971 56.083,-125.079 125.084,-125.079l809.708,-0c68.958,-0 125.083,56.108 125.083,125.079c0,68.975 -56.125,125.083 -125.083,125.083Z" style="fill:#0c180a;fill-rule:nonzero;"/><path d="M4323.3,2077.01l-747.667,0c-47.375,0 -85.791,-38.412 -85.791,-85.796c-0,-47.379 38.416,-85.791 85.791,-85.791l747.667,-0c47.375,-0 85.792,38.412 85.792,85.791c-0,47.384 -38.417,85.796 -85.792,85.796Z" style="fill:#0c180a;fill-rule:nonzero;"/><path d="M3575.64,1944.71c-25.625,0 -46.5,20.859 -46.5,46.5c0,25.646 20.875,46.509 46.5,46.509l747.667,-0c25.667,-0 46.5,-20.863 46.5,-46.509c0,-25.641 -20.833,-46.5 -46.5,-46.5l-747.667,0Zm747.667,171.584l-747.667,-0c-68.958,-0 -125.083,-56.109 -125.083,-125.084c0,-68.966 56.125,-125.079 125.083,-125.079l747.667,0c69,0 125.083,56.113 125.083,125.079c0,68.975 -56.083,125.084 -125.083,125.084Z" style="fill:#0c180a;fill-rule:nonzero;"/><path d="M4449.8,816.129c0,51.112 -41.458,92.542 -92.542,92.542c-51.124,-0 -92.541,-41.43 -92.541,-92.542c-0,-51.108 41.417,-92.541 92.541,-92.541c51.084,-0 92.542,41.433 92.542,92.541Z" style="fill:#0c180a;fill-rule:nonzero;"/><path d="M4650.3,908.671c0,51.112 -41.458,92.542 -92.542,92.542c-51.124,-0 -92.541,-41.43 -92.541,-92.542c-0,-51.109 41.417,-92.542 92.541,-92.542c51.084,0 92.542,41.433 92.542,92.542Z" style="fill:#0c180a;fill-rule:nonzero;"/><path d="M4765.97,1082.19c-0,51.109 -41.417,92.542 -92.542,92.542c-51.125,-0 -92.542,-41.433 -92.542,-92.542c0,-51.108 41.417,-92.541 92.542,-92.541c51.125,-0 92.542,41.433 92.542,92.541Z" style="fill:#0c180a;fill-rule:nonzero;"/><path d="M4798.76,1292.33c-0,51.113 -41.459,92.542 -92.542,92.542c-51.125,-0 -92.542,-41.429 -92.542,-92.542c0,-51.108 41.417,-92.542 92.542,-92.542c51.083,0 92.542,41.434 92.542,92.542Z" style="fill:#0c180a;fill-rule:nonzero;"/><path d="M4765.97,1517.9c-0,51.108 -41.417,92.542 -92.542,92.542c-51.125,-0 -92.542,-41.434 -92.542,-92.542c0,-51.108 41.417,-92.542 92.542,-92.542c51.125,0 92.542,41.434 92.542,92.542Z" style="fill:#0c180a;fill-rule:nonzero;"/><path d="M4650.3,1714.55c0,51.108 -41.458,92.542 -92.542,92.542c-51.124,-0 -92.541,-41.434 -92.541,-92.542c-0,-51.108 41.417,-92.542 92.541,-92.542c51.084,0 92.542,41.434 92.542,92.542Z" style="fill:#0c180a;fill-rule:nonzero;"/><path d="M3441.47,816.129c-0,51.112 41.416,92.542 92.541,92.542c51.126,-0 92.542,-41.43 92.542,-92.542c-0,-51.108 -41.416,-92.541 -92.542,-92.541c-51.125,-0 -92.541,41.433 -92.541,92.541Z" style="fill:#0c180a;fill-rule:nonzero;"/><path d="M3240.97,908.671c-0,51.112 41.416,92.542 92.541,92.542c51.084,-0 92.542,-41.43 92.542,-92.542c0,-51.109 -41.458,-92.542 -92.542,-92.542c-51.125,0 -92.541,41.433 -92.541,92.542Z" style="fill:#0c180a;fill-rule:nonzero;"/><path d="M3125.3,1082.19c0,51.109 41.417,92.542 92.542,92.542c51.083,-0 92.541,-41.433 92.541,-92.542c0,-51.108 -41.458,-92.541 -92.541,-92.541c-51.125,-0 -92.542,41.433 -92.542,92.541Z" style="fill:#0c180a;fill-rule:nonzero;"/><path d="M3092.51,1292.33c0,51.113 41.417,92.542 92.542,92.542c51.125,-0 92.538,-41.429 92.538,-92.542c-0,-51.108 -41.413,-92.542 -92.538,-92.542c-51.125,0 -92.542,41.434 -92.542,92.542Z" style="fill:#0c180a;fill-rule:nonzero;"/><path d="M3125.3,1517.9c0,51.108 41.417,92.542 92.542,92.542c51.083,-0 92.541,-41.434 92.541,-92.542c0,-51.108 -41.458,-92.542 -92.541,-92.542c-51.125,0 -92.542,41.434 -92.542,92.542Z" style="fill:#0c180a;fill-rule:nonzero;"/><path d="M3240.97,1714.55c-0,51.108 41.416,92.542 92.541,92.542c51.084,-0 92.542,-41.434 92.542,-92.542c0,-51.108 -41.458,-92.542 -92.542,-92.542c-51.125,0 -92.541,41.434 -92.541,92.542Z" style="fill:#0c180a;fill-rule:nonzero;"/><path d="M3602.1,2048.09c-21.625,-0 -39.167,-17.534 -39.167,-39.159l-0,-35.429c-0,-21.629 17.542,-39.163 39.167,-39.163c21.625,0 39.166,17.534 39.166,39.163l0,35.429c0,21.625 -17.541,39.159 -39.166,39.159Z" style="fill:#fff;fill-rule:nonzero;"/><path d="M3734.89,2048.09c-21.624,-0 -39.166,-17.534 -39.166,-39.159l0,-35.429c0,-21.629 17.542,-39.163 39.166,-39.163c21.626,0 39.167,17.534 39.167,39.163l0,35.429c0,21.625 -17.541,39.159 -39.167,39.159Z" style="fill:#fff;fill-rule:nonzero;"/><path d="M3867.68,2048.09c-21.625,-0 -39.166,-17.534 -39.166,-39.159l-0,-35.429c-0,-21.629 17.541,-39.163 39.166,-39.163c21.625,0 39.167,17.534 39.167,39.163l-0,35.429c-0,21.625 -17.542,39.159 -39.167,39.159Z" style="fill:#fff;fill-rule:nonzero;"/><path d="M4000.47,2048.09c-21.625,-0 -39.167,-17.534 -39.167,-39.159l0,-35.429c0,-21.629 17.542,-39.163 39.167,-39.163c21.625,0 39.125,17.534 39.125,39.163l-0,35.429c-0,21.625 -17.5,39.159 -39.125,39.159Z" style="fill:#fff;fill-rule:nonzero;"/><path d="M4133.26,2048.09c-21.625,-0 -39.166,-17.534 -39.166,-39.159l-0,-35.429c-0,-21.629 17.541,-39.163 39.166,-39.163c21.626,0 39.125,17.534 39.125,39.163l0,35.429c0,21.625 -17.499,39.159 -39.125,39.159Z" style="fill:#fff;fill-rule:nonzero;"/><path d="M4266.01,2048.09c-21.626,-0 -39.125,-17.534 -39.125,-39.159l-0,-35.429c-0,-21.629 17.499,-39.163 39.125,-39.163c21.666,0 39.166,17.534 39.166,39.163l-0,35.429c-0,21.625 -17.5,39.159 -39.166,39.159Z" style="fill:#fff;fill-rule:nonzero;"/><path d="M3483.39,4155.42l-23.416,-655.917l88.458,-3.125l23.417,655.917l-88.459,3.125Z" style="fill:#a52a1b;fill-rule:nonzero;"/><path d="M3631.18,4115.25l-33.541,-757.333l88.416,-3.959l33.542,757.375l-88.417,3.917Z" style="fill:#a52a1b;fill-rule:nonzero;"/><path d="M3807.8,4117.21c-1.542,-9.083 -37.583,-224.125 -45.041,-401.25c-7.459,-176.916 11.333,-433.958 12.125,-444.833l88.291,6.542c-0.208,2.625 -19.208,262.833 -12,434.583c7.25,171.625 43.542,388.042 43.875,390.208l-87.25,14.75Z" style="fill:#a52a1b;fill-rule:nonzero;"/><path d="M3957.22,4116.25c-2.542,-7.625 -62.667,-189.5 -64.542,-423.792c-1.875,-232 43.292,-451.125 45.209,-460.375l86.624,18.084c-0.416,2.166 -45.124,219.375 -43.291,441.583c1.75,220.333 59.333,394.625 59.916,396.375l-83.916,28.125Z" style="fill:#a52a1b;fill-rule:nonzero;"/><path d="M4096.22,4064.75c-1.542,-8.417 -38.25,-208.958 -43.875,-405.083c-5.625,-197.042 32.417,-422.75 34.041,-432.25l87.251,14.875c-0.375,2.25 -38.167,226.708 -32.792,414.833c5.416,189.375 42.083,389.542 42.416,391.542l-87.041,16.083Z" style="fill:#a52a1b;fill-rule:nonzero;"/><path d="M4332.72,3962.38c-1.417,-0.625 -142.292,-61.042 -374.125,-28.167l-12.417,-87.625c259.083,-36.708 416.084,32 422.625,34.959l-36.083,80.833Z" style="fill:#a52a1b;fill-rule:nonzero;"/><path d="M3938.26,3758.34l-2.751,-88.458l364.667,-11.375l2.75,88.5l-364.666,11.333Z" style="fill:#a52a1b;fill-rule:nonzero;"/><rect x="3941.6" y="3500.92" width="336.958" height="88.5" style="fill:#a52a1b;fill-rule:nonzero;"/><path d="M3958.22,3438.63l-3.375,-88.417l333.125,-12.666l3.333,88.458l-333.083,12.625Z" style="fill:#a52a1b;fill-rule:nonzero;"/><path d="M3735.85,3592.21c-173.458,0 -249.083,-52.083 -258.084,-58.75l26.417,-35.541l25.875,-35.917c0.792,0.542 79.958,53.917 272.75,39.042l6.834,88.25c-26.334,2.041 -50.917,2.916 -73.792,2.916Z" style="fill:#a52a1b;fill-rule:nonzero;"/><path d="M3711.76,3768.3c-150.5,-0 -284.917,-60.417 -291.792,-63.584l36.708,-80.541c1.833,0.833 183.209,81.958 340.625,46.75l19.333,86.375c-34.916,7.791 -70.333,11 -104.874,11Z" style="fill:#a52a1b;fill-rule:nonzero;"/><path d="M3682.55,3949.92c-115.625,-0 -256.25,-4 -279.792,-4.667l2.584,-88.5c136.625,4 368.583,7.75 409.583,0.625l15.084,87.25c-23.042,3.958 -81.126,5.292 -147.459,5.292Z" style="fill:#a52a1b;fill-rule:nonzero;"/><path d="M3695.64,4151.17c-28.709,-10.917 -182.834,-21.25 -315.292,-24.917l2.458,-88.5c47.5,1.333 287.375,8.958 344.375,30.708l-31.541,82.709Z" style="fill:#a52a1b;fill-rule:nonzero;"/><path d="M4748.97,4533.46c-12.75,0 -25.5,-4.833 -35.208,-14.583l-217.959,-217.958l-218,217.958c-19.458,19.458 -50.958,19.458 -70.417,-0c-19.416,-19.417 -19.416,-50.958 0,-70.417l253.209,-253.166c9.333,-9.334 22,-14.584 35.208,-14.584c13.167,0 25.834,5.25 35.209,14.584l253.166,253.166c19.417,19.459 19.417,51 0,70.417c-9.75,9.75 -22.5,14.583 -35.208,14.583Z" style="fill:#081209;fill-rule:nonzero;"/><path d="M4495.8,4597.5c-27.542,0 -49.792,-22.292 -49.792,-49.792l0,-1630.08c0,-18.792 10.542,-36 27.334,-44.458c16.75,-8.459 36.875,-6.75 52,4.375c118,87.041 199.291,186.958 241.583,297c9.834,25.666 -2.958,54.458 -28.625,64.333c-25.708,9.875 -54.5,-2.958 -64.333,-28.625c-25.333,-65.875 -68.375,-128.167 -128.417,-186l0,1523.46c0,27.5 -22.291,49.792 -49.75,49.792Z" style="fill:#081209;fill-rule:nonzero;"/><path d="M4446.01,3028.75c-74.666,50.125 -201.625,107.25 -404.666,124.167c-362.75,30.208 -564.542,140.833 -617,338.166c-36.792,138.5 -59.667,259.667 -81.792,376.834c-31.542,167 -61.583,325.791 -127.417,493.541c54.292,0 132.501,-8.041 194.084,-46.583l19.958,-12.5c112.334,-70.625 193.5,-121.667 348.083,-121.667c11.542,0 23.375,0.042 35.459,0.125c135.291,0.667 303.625,1.375 398.291,-76.333c88.959,-73 186.459,-123.25 235,-146.042l0,-929.708Zm-1231.5,1432.33c-45.454,0 -76.912,-4.791 -80.037,-5.291c-15.25,-2.417 -28.542,-11.834 -35.917,-25.417c-7.387,-13.583 -8.029,-29.833 -1.75,-43.958c80.75,-181.75 111.875,-346.375 147.875,-537c22.496,-118.917 45.709,-241.875 83.417,-383.875c64.583,-243 295.167,-377.709 704.958,-411.875c322.875,-26.917 420.5,-162.5 421.459,-163.875c12.041,-18.417 34.583,-26.459 55.666,-20.167c21.125,6.292 35.375,26 35.375,48l0,1073.12c0,20.167 -12.167,38.375 -30.833,46.042c-1.292,0.541 -130.417,54.333 -240.542,144.666c-122.416,100.5 -310.667,99.625 -461.916,98.959c-11.917,-0.084 -23.626,-0.125 -35.001,-0.125c-125.874,-0 -186,37.791 -295.083,106.375l-20.125,12.625c-81.75,51.208 -180.041,61.791 -247.546,61.791Z" style="fill:#081209;fill-rule:nonzero;"/><path d="M4288.05,3246.46c-18.083,6.292 -37.125,11.542 -57.25,15.667c-52.583,10.708 -105.416,12.042 -156.5,13.375c-46.958,1.167 -91.333,2.292 -135.041,10.167c-252.167,45.25 -401,161.5 -454.959,355.375c-23.875,85.75 -33.083,177.583 -41.958,266.375c-8.667,86.416 -17.583,175.291 -39.834,262.083c43.542,-22.458 97.959,-48.25 150.167,-66.75c105.042,-37.167 193.583,-34.667 279.25,-32.208c65.375,1.875 127.083,3.625 191.75,-13.292c134.959,-35.333 273.084,-129.083 327.084,-190.083c-57.042,-63.042 -110.917,-164.292 -110.917,-322c-0,-137.375 17.625,-229.5 48.208,-298.709Zm-952.667,1042.96c-9.083,-0 -18.083,-3.209 -25.291,-9.417c-12.667,-10.917 -16.879,-28.708 -10.459,-44.167c4.876,-11.75 9.417,-24.125 13.917,-37.833c31.375,-95.167 41.25,-193.833 51.708,-298.292c9.25,-92.083 18.75,-187.25 44.417,-279.458c62.75,-225.375 231.5,-359.792 515.875,-410.833c49.542,-8.875 99,-10.167 146.792,-11.375c49.917,-1.25 97.083,-2.459 142.958,-11.792c95.667,-19.542 162.75,-71.708 236.5,-133.667c2.625,-2.208 5.25,-4.458 7.917,-6.666l11.041,-9.334c16.375,-13.833 40.792,-11.791 54.584,4.584c13.833,16.333 11.75,40.75 -4.584,54.583l-1.166,0.958c-6,5.084 -11.958,10.125 -17.959,15.167c-118.958,100.417 -184.333,161.458 -184.333,433.292c0,273.625 189.083,341.458 191,342.083c20.25,6.917 31.042,28.958 24.125,49.167c-6.917,20.25 -28.958,31.041 -49.167,24.125c-3.541,-1.209 -35.375,-12.542 -74.958,-41.5c-68.833,77.458 -221.167,175.458 -365,213.125c-75.417,19.75 -145.666,17.75 -213.583,15.791c-82.167,-2.333 -159.792,-4.541 -251.167,27.834c-103.833,36.75 -222.041,107.375 -223.25,108.083c-6.167,3.708 -13.042,5.542 -19.917,5.542Z" style="fill:#081209;fill-rule:nonzero;"/><path d="M6632.51,356.4l-0,-2.892c-0.417,0.475 -0.875,0.971 -1.292,1.446c-0.417,-0.475 -0.834,-0.971 -1.25,-1.446l-0,2.892c-340.75,381.838 -776.958,965.525 -776.958,1235.98l1556.46,0c-0,-270.458 -436.208,-854.145 -776.958,-1235.98Z" style="fill:#232323;fill-rule:nonzero;"/><path d="M6663.85,1594.64c-0,224.612 -182.084,406.7 -406.708,406.7c-224.584,-0 -406.667,-182.088 -406.667,-406.7c-0,-224.617 182.083,-406.701 406.667,-406.701c224.624,0 406.708,182.084 406.708,406.701Z" style="fill:#232323;fill-rule:nonzero;"/><path d="M6257.14,1293.8c-165.876,-0 -300.834,134.958 -300.834,300.842c0,165.887 134.958,300.841 300.834,300.841c165.916,0 300.833,-134.954 300.833,-300.841c-0,-165.884 -134.917,-300.842 -300.833,-300.842Zm-0,623.612c-177.959,0 -322.751,-144.795 -322.751,-322.77c0,-177.975 144.792,-322.771 322.751,-322.771c178,-0 322.791,144.796 322.791,322.771c0,177.975 -144.791,322.77 -322.791,322.77Z" style="fill:#fff;fill-rule:nonzero;"/><path d="M6354.6,1594.64c-0,53.812 -43.625,97.437 -97.458,97.437c-53.792,0 -97.417,-43.625 -97.417,-97.437c-0,-53.813 43.625,-97.438 97.417,-97.438c53.833,0 97.458,43.625 97.458,97.438Z" style="fill:#fff;fill-rule:nonzero;"/><path d="M7409.47,1594.64c-0,224.612 -182.083,406.7 -406.709,406.7c-224.625,-0 -406.708,-182.088 -406.708,-406.7c0,-224.617 182.083,-406.701 406.708,-406.701c224.626,0 406.709,182.084 406.709,406.701Z" style="fill:#232323;fill-rule:nonzero;"/><path d="M7002.76,1293.8c-165.875,-0 -300.833,134.958 -300.833,300.842c0,165.887 134.958,300.841 300.833,300.841c165.876,0 300.834,-134.954 300.834,-300.841c-0,-165.884 -134.958,-300.842 -300.834,-300.842Zm0,623.612c-177.958,0 -322.749,-144.795 -322.749,-322.77c-0,-177.975 144.791,-322.771 322.749,-322.771c177.959,-0 322.792,144.796 322.792,322.771c0,177.975 -144.833,322.77 -322.792,322.77Z" style="fill:#fff;fill-rule:nonzero;"/><path d="M7100.22,1594.64c-0,53.812 -43.625,97.437 -97.459,97.437c-53.791,0 -97.416,-43.625 -97.416,-97.437c-0,-53.813 43.625,-97.438 97.416,-97.438c53.834,0 97.459,43.625 97.459,97.438Z" style="fill:#fff;fill-rule:nonzero;"/><path d="M6390.05,2107.54l249.209,-249.237l249.249,249.237l-498.458,0Z" style="fill:#232323;fill-rule:nonzero;"/><rect x="6571.51" y="1553.97" width="122" height="81.342" style="fill:#fff;fill-rule:nonzero;"/><path d="M7314.3,1592.59c-6.083,0 -11,-4.908 -11,-10.962c0,-175.271 -403.167,-748.521 -681.875,-1077.77c-3.916,-4.621 -3.333,-11.538 1.292,-15.451c4.667,-3.929 11.542,-3.329 15.458,1.284c280.834,331.75 687.084,911.487 687.084,1091.93c-0,6.054 -4.917,10.962 -10.959,10.962Z" style="fill:#fff;fill-rule:nonzero;"/><path d="M5945.35,1592.59c-6.042,0 -10.959,-4.908 -10.959,-10.962c0,-180.433 406.25,-760.175 687.042,-1091.93c3.917,-4.613 10.833,-5.213 15.458,-1.284c4.626,3.913 5.209,10.83 1.292,15.451c-278.667,329.254 -681.875,902.503 -681.875,1077.77c0,6.054 -4.875,10.962 -10.958,10.962Z" style="fill:#fff;fill-rule:nonzero;"/><path d="M6629.8,1600.12c-3,-0 -5.458,-2.455 -5.458,-5.483l0,-1080.02c0,-3.029 2.458,-5.483 5.458,-5.483c3.042,-0 5.5,2.454 5.5,5.483l0,1080.02c0,3.028 -2.458,5.483 -5.5,5.483Z" style="fill:#fff;fill-rule:nonzero;"/><path d="M7016.39,1014.88c-35.126,-25.45 -240.751,-62.621 -382.459,-62.875c-141.958,-0.071 -363.458,36.925 -399.291,62.875l49.708,-62.909c74.625,-54.028 286.666,-57.858 349.708,-57.75c129.667,0.226 289.209,15.517 347.542,57.75l34.792,62.909Z" style="fill:#fff;fill-rule:nonzero;"/><path d="M6905.47,856.021c-25.167,-20.1 -172.417,-49.463 -273.958,-49.663c-101.625,-0.058 -260.292,29.163 -285.959,49.663l45.334,-49.688c53.416,-42.679 195.583,-45.704 240.75,-45.616c92.874,0.179 197.416,12.258 239.166,45.616l34.667,49.688Z" style="fill:#fff;fill-rule:nonzero;"/><path d="M7140.89,1202.04c-46.334,-31.088 -317.459,-76.496 -504.292,-76.809c-187.125,-0.088 -479.209,45.108 -526.458,76.809l56.333,-76.851c98.375,-66.008 387.208,-70.683 470.333,-70.55c170.917,0.275 377,18.959 453.875,70.55l50.209,76.851Z" style="fill:#fff;fill-rule:nonzero;"/><path d="M6632.64,2870.55l-0,-3.042c-0.459,0.5 -0.876,1.042 -1.334,1.542c-0.458,-0.5 -0.917,-1.042 -1.333,-1.542l-0,3.042c-357.75,400.875 -815.708,1013.67 -815.708,1297.62l1634.08,-0c-0,-283.959 -457.958,-896.75 -815.708,-1297.62Z" style="fill:#a82d1d;fill-rule:nonzero;"/><path d="M6665.55,4170.55c-0,235.791 -191.167,426.958 -427,426.958c-235.792,0 -426.958,-191.167 -426.958,-426.958c-0,-235.834 191.166,-427 426.958,-427c235.833,-0 427,191.166 427,427Z" style="fill:#a82d1d;fill-rule:nonzero;"/><path d="M6238.55,3857.42c-172.666,-0 -313.125,140.458 -313.125,313.125c-0,172.666 140.459,313.125 313.125,313.125c172.667,-0 313.125,-140.459 313.125,-313.125c0,-172.667 -140.458,-313.125 -313.125,-313.125Zm0,654.708c-188.333,-0 -341.583,-153.25 -341.583,-341.583c-0,-188.334 153.25,-341.584 341.583,-341.584c188.334,0 341.583,153.25 341.583,341.584c0,188.333 -153.249,341.583 -341.583,341.583Z" style="fill:#fff;fill-rule:nonzero;"/><path d="M6340.85,4170.55c-0,56.5 -45.792,102.291 -102.292,102.291c-56.5,0 -102.291,-45.791 -102.291,-102.291c-0,-56.5 45.791,-102.292 102.291,-102.292c56.5,0 102.292,45.792 102.292,102.292Z" style="fill:#fff;fill-rule:nonzero;"/><path d="M7448.35,4170.55c-0,235.791 -191.167,426.958 -427,426.958c-235.792,0 -426.959,-191.167 -426.959,-426.958c0,-235.834 191.167,-427 426.959,-427c235.833,-0 427,191.166 427,427Z" style="fill:#a82d1d;fill-rule:nonzero;"/><path d="M7021.35,3857.42c-172.625,-0 -313.125,140.458 -313.125,313.125c0,172.666 140.5,313.125 313.125,313.125c172.667,-0 313.125,-140.459 313.125,-313.125c-0,-172.667 -140.458,-313.125 -313.125,-313.125Zm-0,654.708c-188.333,-0 -341.584,-153.25 -341.584,-341.583c0,-188.334 153.251,-341.584 341.584,-341.584c188.375,0 341.583,153.25 341.583,341.584c-0,188.333 -153.208,341.583 -341.583,341.583Z" style="fill:#fff;fill-rule:nonzero;"/><path d="M7123.64,4170.55c-0,56.5 -45.792,102.291 -102.292,102.291c-56.5,0 -102.292,-45.791 -102.292,-102.291c0,-56.5 45.792,-102.292 102.292,-102.292c56.5,0 102.292,45.792 102.292,102.292Z" style="fill:#fff;fill-rule:nonzero;"/><rect x="6568.6" y="4127.84" width="128.083" height="85.417" style="fill:#fff;fill-rule:nonzero;"/><path d="M7348.43,4171.13c-7.875,0 -14.25,-6.375 -14.25,-14.25c0,-183.375 -422.916,-784.417 -715.25,-1129.75c-5.041,-6 -4.292,-15 1.709,-20.042c5.999,-5.083 14.958,-4.333 20.041,1.667c295.084,348.583 721.958,958.042 721.958,1148.12c0,7.875 -6.375,14.25 -14.208,14.25Z" style="fill:#fff;fill-rule:nonzero;"/><path d="M5911.22,4171.13c-7.875,0 -14.25,-6.375 -14.25,-14.25c-0,-190.083 426.875,-799.542 721.958,-1148.12c5.083,-6.042 14.084,-6.792 20.083,-1.667c6.001,5.042 6.75,14.042 1.667,20.042c-292.333,345.333 -715.25,946.375 -715.25,1129.75c-0,7.875 -6.375,14.25 -14.208,14.25Z" style="fill:#fff;fill-rule:nonzero;"/><path d="M6629.8,4177.67c-3.916,-0 -7.125,-3.209 -7.125,-7.125l0,-1133.88c0,-3.959 3.209,-7.125 7.125,-7.125c3.958,-0 7.125,3.166 7.125,7.125l-0,1133.88c-0,3.916 -3.167,7.125 -7.125,7.125Z" style="fill:#fff;fill-rule:nonzero;"/><path d="M7035.68,3561.88c-36.916,-26.75 -252.792,-65.75 -401.583,-66.042c-149,-0.041 -381.542,38.792 -419.167,66.042l52.208,-66.042c78.334,-56.75 300.959,-60.75 367.126,-60.666c136.124,0.25 303.625,16.291 364.874,60.666l36.542,66.042Z" style="fill:#fff;fill-rule:nonzero;"/><path d="M6919.22,3395.09c-26.417,-21.125 -181.042,-51.916 -287.625,-52.125c-106.708,-0.083 -273.292,30.625 -300.209,52.125l47.584,-52.166c56.083,-44.792 205.333,-48 252.75,-47.875c97.5,0.166 207.291,12.833 251.125,47.875l36.375,52.166Z" style="fill:#fff;fill-rule:nonzero;"/><path d="M7166.35,3758.38c-48.625,-32.667 -333.25,-80.333 -529.417,-80.667c-196.458,-0.083 -503.083,47.375 -552.708,80.667l59.125,-80.708c103.292,-69.292 406.5,-74.209 493.791,-74.042c179.459,0.25 395.792,19.875 476.5,74.042l52.709,80.708Z" style="fill:#fff;fill-rule:nonzero;"/><rect x="1151.44" y="954.671" width="426.142" height="426.142" style="fill:#232323;fill-rule:nonzero;"/><path d="M1394.95,1525.4c-0,252.162 -204.421,456.583 -456.583,456.583c-252.163,-0 -456.58,-204.421 -456.58,-456.583c0,-252.163 204.417,-456.579 456.58,-456.579c252.162,-0 456.583,204.416 456.583,456.579Z" style="fill:#232323;fill-rule:nonzero;"/><path d="M938.367,1187.66c-186.229,0 -337.738,151.509 -337.738,337.734c0,186.229 151.509,337.733 337.738,337.733c186.229,0 337.737,-151.504 337.737,-337.733c0,-186.225 -151.508,-337.734 -337.737,-337.734Zm-0,700.088c-199.8,-0 -362.355,-162.554 -362.355,-362.354c0,-199.804 162.555,-362.35 362.355,-362.35c199.804,-0 362.358,162.546 362.358,362.35c-0,199.8 -162.554,362.354 -362.358,362.354Z" style="fill:#fff;fill-rule:nonzero;"/><path d="M938.367,1362.68c-89.717,0 -162.709,72.992 -162.709,162.713c0,89.724 72.992,162.716 162.709,162.716c89.72,0 162.712,-72.992 162.712,-162.716c0,-89.721 -72.992,-162.713 -162.712,-162.713Zm-0,350.046c-103.296,-0 -187.33,-84.037 -187.33,-187.333c0,-103.296 84.034,-187.329 187.33,-187.329c103.295,-0 187.329,84.033 187.329,187.329c-0,103.296 -84.034,187.333 -187.329,187.333Z" style="fill:#fff;fill-rule:nonzero;"/><path d="M2247.23,1525.4c0,252.162 -204.417,456.583 -456.579,456.583c-252.163,-0 -456.579,-204.421 -456.579,-456.583c-0,-252.163 204.416,-456.579 456.579,-456.579c252.162,-0 456.579,204.416 456.579,456.579Z" style="fill:#232323;fill-rule:nonzero;"/><path d="M1790.65,1187.66c-186.229,0 -337.733,151.509 -337.733,337.734c-0,186.229 151.504,337.733 337.733,337.733c186.233,0 337.738,-151.504 337.738,-337.733c-0,-186.225 -151.505,-337.734 -337.738,-337.734Zm0,700.088c-199.8,-0 -362.354,-162.554 -362.354,-362.354c-0,-199.804 162.554,-362.35 362.354,-362.35c199.804,-0 362.358,162.546 362.358,362.35c0,199.8 -162.554,362.354 -362.358,362.354Z" style="fill:#fff;fill-rule:nonzero;"/><path d="M1790.65,1362.68c-89.721,0 -162.713,72.992 -162.713,162.713c0,89.724 72.992,162.716 162.713,162.716c89.721,0 162.712,-72.992 162.712,-162.716c0,-89.721 -72.991,-162.713 -162.712,-162.713Zm0,350.046c-103.296,-0 -187.333,-84.037 -187.333,-187.333c-0,-103.296 84.037,-187.329 187.333,-187.329c103.3,-0 187.329,84.033 187.329,187.329c0,103.296 -84.029,187.333 -187.329,187.333Z" style="fill:#fff;fill-rule:nonzero;"/><path d="M1821.09,810.088c-0,252.162 -204.417,456.579 -456.58,456.579c-252.162,-0 -456.579,-204.417 -456.579,-456.579c0,-252.163 204.417,-456.58 456.579,-456.58c252.163,-0 456.58,204.417 456.58,456.58Z" style="fill:#232323;fill-rule:nonzero;"/><path d="M1364.5,472.354c-186.221,0 -337.729,151.504 -337.729,337.738c-0,186.22 151.508,337.729 337.729,337.729c186.233,-0 337.738,-151.509 337.738,-337.729c-0,-186.234 -151.505,-337.738 -337.738,-337.738Zm0,700.088c-199.8,-0 -362.35,-162.55 -362.35,-362.35c0,-199.8 162.55,-362.359 362.35,-362.359c199.804,0 362.358,162.559 362.358,362.359c0,199.8 -162.554,362.35 -362.358,362.35Z" style="fill:#fff;fill-rule:nonzero;"/><path d="M1364.5,647.371c-89.716,-0 -162.708,72.991 -162.708,162.721c-0,89.716 72.992,162.708 162.708,162.708c89.729,-0 162.721,-72.992 162.721,-162.708c-0,-89.73 -72.992,-162.721 -162.721,-162.721Zm0,350.05c-103.296,-0 -187.329,-84.033 -187.329,-187.329c0,-103.296 84.033,-187.338 187.329,-187.338c103.3,-0 187.338,84.042 187.338,187.338c-0,103.296 -84.038,187.329 -187.338,187.329Z" style="fill:#fff;fill-rule:nonzero;"/><path d="M1087.56,2107.54l279.805,-279.804l279.804,279.804l-559.609,0Z" style="fill:#232323;fill-rule:nonzero;"/><path d="M642.612,3734.96c95.213,66.417 268.817,193.625 397.971,322.792c129.5,129.5 257.034,303.667 323.33,398.75c64.758,-93.583 189.25,-264.125 323.858,-398.75c134.075,-134.083 303.771,-258.083 397.587,-323.083c-91.087,-62.084 -254.245,-180.75 -397.587,-324.125c-142.933,-142.917 -261.342,-305.542 -323.596,-396.792c-62.25,91.25 -180.663,253.875 -323.592,396.792c-143.545,143.583 -306.958,262.375 -397.971,324.416Zm721.955,922.292l-46.792,-71.417c-1.787,-2.708 -180.65,-274.666 -355.638,-449.625c-174.991,-175 -446.92,-353.875 -449.649,-355.666l-72.684,-47.625l73.8,-45.875c2.475,-1.542 249.763,-156.167 448.533,-354.917c199.117,-199.125 353.388,-446.042 354.921,-448.542l47.092,-75.791l47.138,75.791c1.537,2.459 156.162,249.75 354.929,448.542c199.116,199.083 446.054,353.375 448.525,354.917l74.47,46.25l-73.704,47.5c-2.641,1.708 -266.045,172.166 -449.291,355.416c-183.246,183.25 -353.713,446.667 -355.413,449.292l-46.237,71.75Z" style="fill:#a52a1b;fill-rule:nonzero;"/><path d="M1364.17,3613.59c-66.492,0 -120.588,54.084 -120.588,120.584c0,66.5 54.096,120.583 120.588,120.583c66.496,0 120.592,-54.083 120.592,-120.583c-0,-66.5 -54.096,-120.584 -120.592,-120.584Zm0,324.375c-112.371,0 -203.787,-91.416 -203.787,-203.791c-0,-112.375 91.416,-203.792 203.787,-203.792c112.371,-0 203.792,91.417 203.792,203.792c-0,112.375 -91.421,203.791 -203.792,203.791Z" style="fill:#a52a1b;fill-rule:nonzero;"/><path d="M1937.07,3952.55c-10.638,-0 -21.279,-4.042 -29.4,-12.167l-206.459,-206.208l206.459,-206.25c16.25,-16.25 42.587,-16.209 58.829,0.041c16.237,16.25 16.225,42.584 -0.029,58.834l-147.533,147.375l147.533,147.375c16.254,16.208 16.266,42.541 0.029,58.833c-8.117,8.125 -18.775,12.167 -29.429,12.167Z" style="fill:#a52a1b;fill-rule:nonzero;"/><path d="M1760.08,3775.75l-234,0c-22.975,0 -41.604,-18.625 -41.604,-41.583c-0,-23 18.629,-41.625 41.604,-41.625l234,-0c22.979,-0 41.604,18.625 41.604,41.625c0,22.958 -18.625,41.583 -41.604,41.583Z" style="fill:#a52a1b;fill-rule:nonzero;"/><path d="M791.279,3952.55c-10.654,-0 -21.308,-4.042 -29.429,-12.167c-16.238,-16.292 -16.225,-42.625 0.029,-58.833l147.534,-147.375l-147.534,-147.375c-16.254,-16.25 -16.267,-42.584 -0.029,-58.834c16.229,-16.25 42.579,-16.291 58.829,-0.041l206.467,206.25l-206.467,206.208c-8.121,8.125 -18.762,12.167 -29.4,12.167Z" style="fill:#a52a1b;fill-rule:nonzero;"/><path d="M1202.28,3775.75l-234,0c-22.979,0 -41.604,-18.625 -41.604,-41.583c0,-23 18.625,-41.625 41.604,-41.625l234,-0c22.975,-0 41.6,18.625 41.6,41.625c0,22.958 -18.625,41.583 -41.6,41.583Z" style="fill:#a52a1b;fill-rule:nonzero;"/><path d="M1541.17,4348.67c-10.642,-0 -21.279,-4.084 -29.4,-12.167l-147.6,-147.458l-147.596,147.458c-16.25,16.208 -42.587,16.208 -58.829,-0.042c-16.238,-16.25 -16.225,-42.583 0.029,-58.833l206.396,-206.167l206.396,206.167c16.258,16.25 16.271,42.583 0.033,58.833c-8.121,8.125 -18.779,12.209 -29.429,12.209Z" style="fill:#a52a1b;fill-rule:nonzero;"/><path d="M1364.17,4171.84c-22.975,0 -41.6,-18.625 -41.6,-41.583l-0,-233.75c-0,-22.958 18.625,-41.583 41.6,-41.583c22.975,-0 41.6,18.625 41.6,41.583l0,233.75c0,22.958 -18.625,41.583 -41.6,41.583Z" style="fill:#a52a1b;fill-rule:nonzero;"/><path d="M1364.17,3396.88l-206.396,-206.167c-16.254,-16.25 -16.267,-42.583 -0.029,-58.833c16.237,-16.25 42.583,-16.292 58.829,-0.042l147.596,147.417l147.6,-147.417c16.25,-16.25 42.587,-16.25 58.829,0.042c16.238,16.25 16.225,42.583 -0.033,58.833l-206.396,206.167Z" style="fill:#a52a1b;fill-rule:nonzero;"/><path d="M1364.17,3613.42c-22.975,-0 -41.6,-18.625 -41.6,-41.625l-0,-233.75c-0,-22.959 18.625,-41.584 41.6,-41.584c22.975,0 41.6,18.625 41.6,41.584l0,233.75c0,23 -18.625,41.625 -41.6,41.625Z" style="fill:#a52a1b;fill-rule:nonzero;"/><path d="M1653.03,4212.59c-12.733,0 -25.3,-5.833 -33.458,-16.875l-211.142,-285.125c-13.67,-18.458 -9.787,-44.5 8.671,-58.166c18.467,-13.667 44.517,-9.792 58.192,8.666l211.137,285.125c13.675,18.459 9.792,44.5 -8.671,58.167c-7.441,5.542 -16.125,8.208 -24.729,8.208Z" style="fill:#a52a1b;fill-rule:nonzero;"/><path d="M1800.95,4064.59c-8.604,0 -17.279,-2.666 -24.729,-8.166l-285.121,-211.125c-18.462,-13.709 -22.346,-39.75 -8.671,-58.209c13.671,-18.458 39.725,-22.333 58.188,-8.666l285.125,211.125c18.462,13.666 22.341,39.75 8.671,58.208c-8.155,11 -20.73,16.833 -33.463,16.833Z" style="fill:#a52a1b;fill-rule:nonzero;"/><path d="M927.4,4064.59c-12.738,0 -25.308,-5.833 -33.463,-16.833c-13.674,-18.458 -9.791,-44.542 8.675,-58.208l285.13,-211.125c18.466,-13.667 44.516,-9.792 58.183,8.666c13.675,18.459 9.792,44.5 -8.675,58.209l-285.129,211.125c-7.442,5.5 -16.117,8.166 -24.721,8.166Z" style="fill:#a52a1b;fill-rule:nonzero;"/><path d="M1075.32,4212.59c-8.604,0 -17.284,-2.666 -24.725,-8.208c-18.467,-13.667 -22.35,-39.708 -8.679,-58.167l211.137,-285.125c13.671,-18.458 39.725,-22.375 58.183,-8.666c18.467,13.666 22.351,39.708 8.68,58.166l-211.142,285.125c-8.15,11.042 -20.725,16.875 -33.454,16.875Z" style="fill:#a52a1b;fill-rule:nonzero;"/><path d="M1286.52,3624.09c-12.738,0 -25.309,-5.833 -33.463,-16.833l-211.137,-285.167c-13.671,-18.458 -9.788,-44.5 8.679,-58.166c18.454,-13.667 44.512,-9.792 58.179,8.666l211.142,285.125c13.671,18.459 9.787,44.542 -8.68,58.209c-7.441,5.5 -16.116,8.166 -24.72,8.166Z" style="fill:#a52a1b;fill-rule:nonzero;"/><path d="M1212.46,3698.09c-8.604,0 -17.279,-2.666 -24.72,-8.208l-285.13,-211.125c-18.466,-13.667 -22.349,-39.708 -8.675,-58.167c13.671,-18.458 39.73,-22.375 58.184,-8.666l285.129,211.125c18.467,13.666 22.35,39.708 8.675,58.166c-8.158,11.042 -20.729,16.875 -33.463,16.875Z" style="fill:#a52a1b;fill-rule:nonzero;"/><path d="M1515.89,3698.09c-12.734,0 -25.305,-5.833 -33.463,-16.875c-13.675,-18.458 -9.791,-44.5 8.675,-58.166l285.121,-211.125c18.463,-13.709 44.517,-9.834 58.188,8.666c13.67,18.459 9.791,44.5 -8.676,58.167l-285.125,211.125c-7.441,5.542 -16.116,8.208 -24.72,8.208Z" style="fill:#a52a1b;fill-rule:nonzero;"/><path d="M1441.83,3624.09c-8.604,0 -17.279,-2.666 -24.725,-8.166c-18.462,-13.667 -22.345,-39.75 -8.675,-58.209l211.142,-285.125c13.675,-18.458 39.729,-22.333 58.183,-8.666c18.467,13.666 22.35,39.708 8.675,58.166l-211.137,285.167c-8.158,11 -20.729,16.833 -33.463,16.833Z" style="fill:#a52a1b;fill-rule:nonzero;"/></g></g></svg>