<?xml version="1.0" encoding="UTF-8" standalone="no"?><!DOCTYPE svg PUBLIC "-//W3C//DTD SVG 1.1//EN" "http://www.w3.org/Graphics/SVG/1.1/DTD/svg11.dtd"><svg width="100%" height="100%" viewBox="0 0 372 587" version="1.1" xmlns="http://www.w3.org/2000/svg" xmlns:xlink="http://www.w3.org/1999/xlink" xml:space="preserve" xmlns:serif="http://www.serif.com/" style="fill-rule:evenodd;clip-rule:evenodd;stroke-miterlimit:100;"><g><clipPath id="_clip1"><rect x="4.85" y="20.954" width="364.719" height="565.441"/></clipPath><g clip-path="url(#_clip1)"><path d="M127.537,166.388l-9.962,-4.65c-4.65,-1.991 -7.97,-3.32 -11.29,-1.991c-1.99,0 -5.311,1.991 -9.961,4.643l-9.961,5.318l-28.555,5.312c-3.319,1.329 -0.664,3.32 6.641,8.631l11.287,2.659c5.316,1.991 9.301,3.321 10.627,5.312l5.976,6.641l7.306,4.65l9.297,0.661l6.641,1.329l6.641,5.312c2.658,2.659 7.306,4.65 11.955,5.318c5.311,0.662 9.961,-0.668 15.937,-4.657l5.977,-5.973l12.616,15.272l4.65,-10.622c-6.641,-7.303 -9.961,-13.282 -12.617,-17.932l-5.314,-14.611c-2.655,-5.979 -5.312,-9.3 -7.967,-10.623c-1.329,0 -4.65,0 -9.961,0l-9.963,0l0,0.001Z" style="fill:#858585;fill-rule:nonzero;"/><path d="M122.223,161.07c-6.641,-3.982 -12.617,-5.305 -15.938,-4.644c-3.319,0.662 -7.306,3.32 -11.952,5.979l-7.97,3.981l-29.219,5.979c-1.991,0.662 -2.655,1.323 -2.655,3.321c-0.666,2.652 1.99,5.973 8.631,10.622l9.297,1.991c5.979,1.33 10.626,3.32 11.955,5.312l2.656,2.659c3.984,4.643 7.305,7.302 11.951,9.3l9.962,0.661l5.313,0.662l2.656,2.659c5.312,4.643 10.626,7.302 17.267,8.631c7.306,1.33 14.606,-1.991 21.913,-9.293l10.626,13.282l1.99,0.661l1.994,-1.329l5.313,-11.291l-0.666,-2.659c-5.976,-7.302 -9.96,-12.613 -11.951,-17.264l-1.991,-5.311c-4.65,-12.614 -8.635,-19.922 -12.621,-20.59l-12.615,-0.661l-8.632,0l-5.314,-2.658Zm3.985,8.638l20.586,0c2.656,0 5.977,6.641 9.961,17.264l1.991,5.317l11.291,17.264l-2.656,5.979l-9.296,-12.62c-0.665,0 -1.33,-0.662 -1.994,-0.662l-2.656,0.662c-5.311,7.963 -11.951,10.623 -19.257,9.96c-4.649,-1.329 -9.961,-3.32 -13.282,-6.641l-4.649,-3.32l-7.305,-1.33l-7.967,-1.33c-3.321,-0.662 -6.642,-3.32 -9.962,-7.302l-1.993,-3.32c-2.656,-1.998 -7.967,-4.65 -15.938,-5.979l-6.642,-1.991l-5.976,-4.65l27.228,-5.312l9.961,-5.311c3.984,-2.659 7.306,-3.981 9.961,-4.65c1.991,0 5.977,1.33 11.287,3.988l7.307,3.984Z" style="fill-rule:nonzero;"/><path d="M108.279,177.01l-16.602,1.329c-1.329,0 -1.995,0 -1.995,1.991l2.656,1.33l15.275,0c11.287,0 19.923,1.991 24.569,5.312l21.917,19.26c1.325,0.662 2.654,0.662 3.319,0c1.326,-1.33 1.326,-1.33 0,-2.659c-6.641,-7.302 -13.946,-13.943 -23.242,-19.922c-5.314,-3.982 -14.61,-5.979 -25.897,-6.641Z" style="fill-rule:nonzero;"/><path d="M135.504,184.98c-0.662,-1.33 -1.326,-1.991 -2.656,-1.991l-9.961,3.32l-15.272,3.321c-1.329,0.661 -1.329,1.991 -1.329,2.659l2.656,1.323l25.236,-6.641c1.326,0.001 1.326,-0.661 1.326,-1.991Z" style="fill-rule:nonzero;"/><path d="M143.474,176.349c0,-1.329 -0.665,-1.998 -1.99,-1.329c-1.329,0 -1.995,0.668 -1.995,1.991l5.977,19.922c0,1.329 1.329,1.329 1.994,1.329c1.991,0 1.991,-1.329 1.991,-1.991l-5.977,-19.922Z" style="fill-rule:nonzero;"/><path d="M275.624,212.873l10.626,-5.979l-17.268,-13.943c-5.975,-3.982 -11.951,-6.641 -16.602,-8.638l-11.287,0.668l-9.3,4.65l-9.961,0c-5.312,0 -8.631,0.661 -11.952,1.991c-2.655,1.991 -6.641,6.641 -11.952,13.95l-6.641,10.623l-17.266,13.281l-1.994,15.272l24.571,-18.593c3.985,5.312 8.632,7.964 12.617,8.631c3.985,1.33 7.97,0 10.625,-3.32c5.313,-3.988 9.961,-7.97 15.938,-10.629c5.976,-2.652 11.291,-4.643 15.937,-3.982c7.972,1.329 15.277,-0.001 23.909,-3.982Z" style="fill:#858585;fill-rule:nonzero;"/><path d="M287.579,208.891c1.325,-1.335 1.325,-2.659 0.661,-3.988c-4.646,-4.649 -9.961,-9.293 -17.928,-13.949c-5.976,-3.981 -11.291,-7.302 -17.267,-9.293c-3.984,-1.33 -9.961,0 -16.602,3.32l-5.977,1.329l-5.976,0.662c-5.979,-0.662 -11.29,0 -15.275,2.659c-5.313,2.659 -11.952,10.623 -19.923,25.233l-16.602,13.281l-1.326,1.33l-1.994,13.943l0,1.33l0.665,1.33c1.329,1.323 1.991,1.323 3.32,0l23.242,-16.602c5.311,5.311 9.961,8.632 14.611,8.632c3.981,0 7.302,-1.991 11.287,-4.65c3.985,-3.982 9.296,-7.964 13.946,-10.623c5.976,-2.659 10.626,-3.32 14.611,-3.32c7.966,1.991 15.937,0.661 25.233,-3.32l11.294,-7.304Zm-35.863,-21.919c3.985,1.329 8.636,3.32 14.611,7.302c6.641,3.988 11.952,7.977 15.938,11.958c-11.288,7.303 -21.249,9.961 -29.884,8.632c-5.311,-1.329 -11.287,0 -17.928,3.32c-5.314,3.32 -11.29,6.641 -15.94,11.291l-6.641,3.32c-4.646,0 -8.632,-3.32 -13.281,-7.97l-3.32,0l-19.923,13.282l1.329,-6.641l16.603,-13.282l0,-0.668c7.306,-12.614 13.281,-21.245 18.593,-23.243c2.659,-1.323 7.306,-2.652 12.62,-1.984l7.302,-0.668l6.641,-1.991c6.64,-3.32 10.626,-3.32 13.28,-2.658Z" style="fill-rule:nonzero;"/><path d="M268.982,203.573l-1.99,-1.991l-33.868,3.32c-5.976,0.668 -13.946,4.65 -23.907,10.629l-13.946,9.293c-1.327,1.33 -1.327,1.991 0,3.32l2.658,0l12.617,-8.631c9.961,-6.641 17.928,-9.961 22.578,-11.291l33.868,-1.991l1.99,-2.658Z" style="fill-rule:nonzero;"/><path d="M221.833,198.262l-2.655,0c-5.976,3.988 -9.297,9.961 -11.288,18.593c-0.664,1.33 0,2.659 1.327,2.659l2.655,-1.33c1.33,-7.97 4.649,-13.282 9.961,-16.602l0,-3.32Z" style="fill-rule:nonzero;"/><path d="M255.037,192.951c-1.327,-1.33 -1.991,-1.33 -2.656,-0.662c-6.641,3.982 -11.952,7.964 -15.937,12.613c-0.665,0.668 0,1.33 0.665,1.991c1.325,1.33 1.99,1.33 2.654,0l13.946,-11.284l1.328,-2.658Z" style="fill-rule:nonzero;"/><path d="M296.875,267.99l-10.625,0c-1.33,0 -3.321,1.329 -4.65,3.988l-6.642,7.302l-11.286,0.662l-12.616,1.329c-5.315,3.988 -9.301,9.292 -12.621,15.271c-12.616,8.639 -18.593,18.6 -17.928,29.223c1.326,5.979 2.656,9.96 5.977,13.942l15.937,2.659l20.588,5.311c3.319,1.33 5.975,3.988 6.64,7.971l1.991,11.951c1.329,2.653 5.314,4.65 11.955,5.974l12.617,0.668l7.97,-5.312l7.968,-6.641l6.64,-1.329l6.641,0c2.655,-1.33 3.985,-3.321 5.977,-6.641c0.665,-3.32 1.994,-5.312 3.32,-5.312l6.641,1.322c3.32,1.336 6.641,2.66 9.961,2.66c5.979,0 12.62,-3.982 19.261,-11.952l0,-51.797l-14.611,-5.979c-6.64,-3.319 -10.625,-5.312 -13.945,-5.312c-3.321,0 -5.977,1.33 -8.632,3.321l-7.306,6.641c-1.99,3.32 -4.649,3.988 -7.97,3.32l-11.288,-3.32c-2.655,-1.33 -3.985,-3.321 -3.985,-4.65l0.665,-8.631c-0.003,-3.319 -1.998,-5.31 -6.644,-6.639Z" style="fill:#858585;fill-rule:nonzero;"/><path d="M302.851,267.99c-3.984,-3.321 -9.961,-4.65 -16.601,-3.321c-2.656,0.668 -4.65,2.652 -7.307,6.641l-5.976,5.312l-7.97,1.329l-15.272,1.33c-4.649,2.659 -9.297,7.964 -13.281,15.271c-11.29,7.971 -17.267,16.603 -18.594,25.896l0,3.321c0,6.64 1.991,13.281 7.304,17.937l1.329,0.662l15.271,2.659l20.588,5.973l3.319,2.651l1.33,5.979l1.99,8.639c1.33,3.981 6.642,6.641 13.946,7.964l13.946,0.661l9.961,-6.641l6.642,-5.973l4.646,-0.669l7.97,-0.66c3.32,-1.324 5.977,-3.982 7.306,-8.632l1.991,-3.32l3.984,1.329l11.952,3.32c6.641,0 13.281,-4.649 21.252,-12.62l0,-1.99l0,-51.797l-1.329,-2.659l-11.952,-4.643c-8.632,-3.989 -13.946,-5.979 -17.267,-5.979c-3.321,0 -6.641,0.661 -9.961,2.658l-7.307,7.303c-1.99,1.991 -3.319,2.658 -5.311,2.658l-7.305,-2.658l-6.642,-1.997l0.665,-1.984l0,-7.309c0.004,-2.653 -0.661,-5.312 -3.317,-6.641Zm-3.32,3.988l1.99,2.652l-1.325,5.972c0,1.998 0,3.988 0.664,5.318l5.312,3.982l3.985,1.329l9.296,2.652c3.32,0.667 6.641,-1.323 9.296,-3.981l5.977,-6.642c1.994,-1.99 4.649,-1.99 7.306,-1.99c2.655,0 7.306,1.329 15.275,5.311l10.622,4.65l0,49.137c-6.64,6.642 -11.952,9.961 -16.602,9.961l-9.296,-2.652l-8.632,-1.329c-1.329,1.329 -3.32,2.659 -4.65,5.979l-3.985,5.311l-5.311,0.669l-8.632,1.984l-7.971,5.317l-6.64,5.312l-12.617,0c-5.314,-0.668 -8.636,-2.652 -9.961,-5.312l-1.329,-6.641l-1.991,-7.97c-0.665,-2.653 -3.32,-3.988 -6.641,-5.313c-7.306,-3.319 -18.596,-5.979 -35.198,-7.97c-3.319,-4.649 -5.311,-9.293 -5.311,-13.948l0,-2.653c0.664,-7.309 6.64,-15.271 16.601,-22.575l0.665,-0.667c3.32,-6.641 6.642,-10.629 11.952,-13.949l11.291,-1.323l12.617,-1.329l6.64,-7.31l3.985,-3.981c5.977,-0.66 9.962,-0.66 12.618,1.999Z" style="fill-rule:nonzero;"/><path d="M374.569,313.146c-0.661,-1.323 -1.99,-1.991 -2.655,-1.323c-21.913,3.982 -50.47,4.643 -85.664,0.661c-15.938,-1.329 -30.549,0.662 -46.486,5.312l-19.922,9.293c-0.664,0.669 -1.329,1.336 0,2.658c0,1.33 1.33,1.33 2.656,0.662l17.931,-8.625c15.938,-4.656 30.548,-6.641 45.156,-4.656c36.524,3.32 65.081,3.32 86.994,-1.984l1.99,-1.998Z" style="fill-rule:nonzero;"/><path d="M291.561,277.283c-1.326,-1.323 -1.991,-0.662 -2.656,0.667c-9.296,16.602 -17.928,27.894 -26.562,35.856c-1.327,0.668 -1.327,1.336 0,1.998l2.655,0.66c8.635,-7.963 17.931,-19.26 27.228,-36.522c0.664,-0.662 0.664,-1.992 -0.665,-2.659Z" style="fill-rule:nonzero;"/><path d="M263.008,291.232c-0.665,0 -1.33,0 -2.656,0.668c-2.656,4.643 -5.977,12.613 -9.961,23.904c0,1.99 0,2.658 1.99,2.658c0.665,0.661 1.994,0 2.656,-0.668c3.32,-11.951 6.641,-19.255 8.635,-23.243c1.326,-1.989 1.326,-2.651 -0.664,-3.319Z" style="fill-rule:nonzero;"/><path d="M309.492,298.54c0,-0.667 -0.665,-0.667 -2.656,-0.667c-3.32,1.329 -7.305,3.988 -13.946,8.631l-7.97,6.642c-1.326,0.661 -1.991,1.329 -0.661,2.659c1.326,1.322 1.991,1.322 2.655,0l8.632,-5.318c5.314,-4.643 9.961,-7.964 13.281,-9.293c0.665,-0.001 1.33,-0.669 0.665,-2.654Z" style="fill-rule:nonzero;"/><path d="M348.672,290.563c0,-1.322 -1.326,-1.322 -2.656,-1.322c-6.641,3.32 -14.61,8.632 -23.242,15.94l-11.952,9.961c-1.329,1.322 -1.329,1.984 -0.664,2.652c1.991,1.329 2.655,1.329 3.32,0l11.286,-9.293c8.636,-7.309 17.268,-12.62 23.243,-15.279c1.33,-0.66 1.33,-1.322 0.665,-2.659Z" style="fill-rule:nonzero;"/><path d="M362.618,297.205c-0.665,-1.323 -1.329,-1.984 -1.991,-0.662c-7.971,4.65 -20.588,7.303 -37.188,7.971c-1.329,0 -1.994,0.668 -1.329,2.652l1.329,1.336l15.937,-1.336l22.578,-7.302l0.664,-2.659Z" style="fill-rule:nonzero;"/><path d="M270.977,312.483c-1.329,0 -1.994,1.323 -1.329,1.991l5.311,15.934c3.985,11.297 8.636,21.92 14.611,31.881c0.665,1.322 1.991,1.991 2.656,0.662l0.664,-2.659c-4.649,-9.293 -9.961,-19.923 -14.61,-31.868l-5.312,-14.617c0,-1.324 -0.664,-1.985 -1.991,-1.324Z" style="fill-rule:nonzero;"/><path d="M280.273,334.396l-1.994,0.668c-1.326,0.661 -1.326,1.985 0,2.652l11.29,8.632c7.306,5.317 13.946,8.639 18.594,9.3l1.329,-1.329c0.665,-1.329 0,-2.653 -1.329,-2.653c-3.982,-0.667 -9.297,-3.32 -17.265,-9.299l-10.625,-7.971Z" style="fill-rule:nonzero;"/><path d="M296.875,314.475l-1.994,0c-1.326,0 -1.326,1.33 -1.326,2.652l7.967,8.639l19.261,17.924l2.656,0c1.325,-1.322 1.325,-2.651 0,-3.32c-7.306,-5.305 -13.281,-10.623 -18.597,-17.263l-7.967,-8.632Z" style="fill-rule:nonzero;"/><path d="M325.429,315.805c-0.665,-1.33 -1.99,-1.33 -2.655,0c-1.329,1.322 -1.329,1.99 -0.664,2.658l10.625,9.294c7.97,6.64 17.267,10.628 27.228,13.281l2.656,-1.991l-1.991,-1.997c-9.3,-2.653 -17.932,-6.642 -25.901,-12.614l-9.298,-8.631Z" style="fill-rule:nonzero;"/><path d="M246.405,400.805l-16.603,1.329c-12.616,-4.65 -22.577,-7.302 -30.547,-8.639c-15.273,-2.651 -22.579,3.988 -22.579,20.591l-3.319,19.254l-7.306,27.898c-5.312,11.284 -6.641,20.584 -3.984,27.887c0.663,3.319 2.658,5.979 5.313,7.97l7.967,2.651l6.641,-5.304c1.994,-2.659 4.65,-3.32 7.971,-1.998c2.655,1.329 6.641,5.317 11.291,13.943l11.287,15.94l12.617,1.997l11.29,-1.335l9.296,8.637c3.985,3.321 7.306,4.644 9.297,3.982l9.961,-2.658l7.97,-5.306l1.33,-13.281c0,-6.642 0.66,-10.63 1.326,-12.62l6.641,-7.302c2.655,-3.32 3.985,-6.641 4.649,-9.3l-0.664,-10.623l-2.656,-8.638l1.991,-8.632c0.665,-3.32 0.665,-5.973 -0.665,-8.632c-1.326,-1.329 -3.32,-3.981 -7.967,-5.979c-3.985,-1.99 -6.641,-3.981 -7.306,-5.979c-0.665,-1.985 0,-4.644 3.32,-6.641c2.656,-2.652 3.985,-5.973 3.321,-9.294c0,-3.32 -1.331,-5.311 -4.65,-5.972c-3.982,-0.668 -6.641,-3.321 -8.631,-5.318c-4.65,-5.977 -9.961,-8.628 -16.602,-8.628Z" style="fill:#858585;fill-rule:nonzero;"/><path d="M238.435,398.813l-8.632,1.322l-11.29,-3.981l-19.257,-5.311c-7.307,-1.33 -13.283,-0.669 -17.268,2.651c-5.312,3.321 -8.631,10.629 -8.631,19.922l-2.656,19.923l-7.305,27.23c-5.312,11.291 -6.642,21.252 -3.985,29.884c1.329,3.319 3.319,5.973 6.641,8.632c3.32,2.658 6.641,3.981 9.962,2.658c1.329,0 3.984,-1.329 6.64,-3.982c1.994,-2.658 3.985,-3.319 5.976,-3.319c1.994,1.322 5.979,6.641 11.291,15.266c5.312,7.977 8.632,13.282 10.626,14.617c3.32,3.32 9.296,3.32 16.603,1.984l7.967,-0.661l6.64,5.318l6.642,5.973l7.305,1.329l4.65,-1.329c7.967,-1.33 12.616,-3.988 14.606,-8.632l1.331,-13.943c0,-5.979 0.664,-9.961 1.99,-11.297l4.649,-5.306c3.985,-4.655 6.641,-8.637 6.641,-12.619c0,-3.981 0,-7.97 -1.329,-12.62l-1.99,-6.641l1.329,-5.312c1.99,-5.973 1.325,-9.961 -0.665,-13.281c-0.664,-1.991 -3.985,-4.65 -8.635,-6.641c-3.321,-1.991 -5.976,-3.32 -5.976,-5.312c-0.665,-0.662 0,-1.329 1.329,-3.32c4.646,-3.981 5.976,-7.97 5.976,-11.291c-0.665,-4.649 -3.319,-7.309 -7.97,-8.631l-6.641,-4.65c-4.646,-5.311 -8.632,-7.97 -13.942,-9.293l-12.622,0.663Zm-59.101,15.273c0,-8.632 1.329,-13.95 5.313,-16.603c5.312,-3.32 15.272,-1.991 31.874,3.321c6.642,3.319 10.627,3.988 13.281,3.988l9.297,-0.669l10.626,0c3.32,0 7.306,2.652 10.626,6.641c2.656,3.321 5.976,5.973 9.961,6.641l2.655,0.669l0.665,2.651c0.665,2.653 -0.665,4.65 -3.32,7.31c-3.32,2.651 -3.985,5.973 -3.32,9.293c0.664,2.652 3.32,4.65 9.297,7.97c3.319,1.991 5.976,2.659 6.64,4.644c0.665,1.336 0.665,3.988 0,8.638l-1.329,7.303l1.329,7.971c1.33,4.649 1.991,7.97 1.33,10.628c-0.665,3.321 -1.994,5.974 -5.315,9.293l-5.976,6.642c-0.664,2.652 -1.329,7.308 -1.329,13.949l-1.326,11.945c-1.33,1.998 -4.65,4.657 -10.626,5.317l-5.977,1.324c-1.329,0.667 -3.984,-1.324 -7.97,-5.306l-8.631,-6.641c-1.994,-1.336 -5.977,-1.336 -10.626,0l-12.617,-0.668l-9.297,-13.949c-5.979,-9.961 -10.626,-15.266 -13.946,-16.603c-3.984,-1.983 -7.97,0 -11.955,4.657l-3.981,2.652c-1.329,0.667 -3.985,-0.668 -5.979,-2.652l-4.646,-5.979c-1.993,-6.641 -0.664,-15.278 4.646,-26.563c1.994,-4.65 4.65,-13.943 7.307,-27.893l3.319,-19.921Z" style="fill-rule:nonzero;"/><path d="M190.623,396.154l-3.319,0.662c-0.665,0.667 -0.665,1.335 0.665,1.997l16.601,17.924c11.952,13.949 19.258,25.901 24.569,37.192c11.29,29.216 20.587,51.135 27.893,66.407c1.326,0.668 1.99,1.329 3.32,0.668c1.326,0 1.326,-1.336 0.664,-2.659c-7.97,-15.278 -17.267,-37.185 -28.557,-66.406c-4.646,-11.291 -12.617,-23.904 -24.569,-37.854l-17.267,-17.931Z" style="fill-rule:nonzero;"/><path d="M184.647,477.841l1.991,-0.668c5.976,-19.923 12.617,-39.845 19.922,-61.097c20.588,0 38.516,3.982 53.126,11.291c0.665,0.668 1.991,0 2.656,-0.669c0.665,-1.984 0.665,-2.651 -0.665,-2.651c-9.962,-5.313 -22.578,-9.293 -36.523,-10.63l-19.923,-1.322l-1.991,1.322l-7.97,23.911l-11.952,38.516l1.329,1.997Z" style="fill-rule:nonzero;"/><path d="M219.178,429.357c-1.327,-0.661 -2.656,0 -2.656,1.329c0,0.669 0,1.991 0.665,2.653l19.258,7.309c13.946,5.973 25.233,10.629 33.868,15.272c1.326,0.661 1.991,0.661 2.655,-1.323c0.665,-0.668 0,-1.336 -0.664,-2.658l-34.53,-15.279l-18.596,-7.303Z" style="fill-rule:nonzero;"/><path d="M249.726,441.979c-0.664,-0.662 -1.991,-0.662 -3.32,0c-0.665,1.322 -0.665,1.99 0,2.658l9.961,10.622l18.592,16.603l2.66,0c1.325,-1.33 0.661,-1.33 -0.665,-2.659l-17.267,-16.603l-9.961,-10.621Z" style="fill-rule:nonzero;"/><path d="M236.444,463.223c-1.329,-1.322 -2.656,-1.322 -3.32,0.669c-0.665,0.667 0,1.99 0.664,2.651c1.327,0 5.312,1.997 12.617,7.31c8.632,5.972 15.272,12.612 19.922,19.254l3.32,0.667c0.665,-1.329 0.665,-1.99 0,-3.319c-4.649,-6.641 -12.616,-13.281 -21.251,-19.923l-11.952,-7.309Z" style="fill-rule:nonzero;"/><path d="M225.154,437.328l-3.321,0.668l-6.641,12.613c-4.646,9.961 -7.303,21.252 -8.632,33.204c0,0.667 0,1.99 1.991,2.651l1.329,-2.651c1.991,-11.291 4.65,-21.913 9.297,-31.874l5.977,-11.291c0.664,-0.668 0.664,-1.991 0,-3.32Z" style="fill-rule:nonzero;"/><path d="M215.856,457.919c-0.664,-0.669 -1.99,-1.337 -2.654,-0.669c-0.665,0 -1.33,1.329 -0.665,2.653l2.655,11.296c1.329,9.962 0.664,20.584 -3.32,30.545c0,1.323 0,2.659 1.33,2.659c1.329,0.661 2.654,0 2.654,-1.336c3.985,-11.284 4.65,-21.906 3.985,-32.536l-3.985,-12.612Z" style="fill-rule:nonzero;"/><path d="M240.429,475.182c-0.665,0 -1.329,0 -1.994,1.991l-1.99,11.29c-0.665,8.632 -1.329,15.94 -1.329,21.245l1.994,1.336l1.99,-1.336c0,-5.305 0.664,-12.613 1.329,-21.245l1.991,-10.622c0.665,-1.337 0,-2.659 -1.991,-2.659Z" style="fill-rule:nonzero;"/><path d="M146.13,57.478l-37.188,-18.593l22.58,31.212c19.258,21.913 41.836,33.204 65.743,35.194c-7.971,-16.601 -25.237,-31.873 -51.135,-47.813Z" style="fill:#d96038;fill-rule:nonzero;"/><path d="M199.92,106.621l0,-2.659c-8.632,-16.602 -25.897,-31.874 -51.136,-47.808l-39.179,-19.261c-0.664,0 -1.326,0 -1.991,0.662c-1.329,0.661 -1.329,1.33 -0.665,2.659l22.579,31.875c20.586,21.913 43.164,33.203 67.736,35.194l2.656,-0.662Zm-6.641,-4.649c-19.257,-2.653 -36.524,-11.291 -53.125,-25.895c-9.962,-9.3 -18.594,-19.922 -25.899,-32.542c39.18,17.924 65.743,37.185 79.024,58.437Z" style="fill-rule:nonzero;"/><path d="M168.707,56.154l-22.577,-17.27l7.305,28.554c9.296,19.922 23.242,33.204 43.165,39.183c-2.657,-18.599 -11.953,-35.201 -27.893,-50.467Z" style="fill:#d96038;fill-rule:nonzero;"/><path d="M146.794,36.894l-2.655,0l-0.665,1.991l7.97,29.883c9.297,20.59 24.57,33.872 44.491,39.845l1.994,0l1.327,-2.652c-3.321,-18.6 -12.617,-35.863 -28.555,-50.474l-23.907,-18.593Zm46.485,65.078c-14.611,-5.312 -26.563,-15.273 -34.533,-29.216c-5.312,-9.299 -8.632,-19.26 -9.962,-29.222c24.573,16.602 39.185,35.863 44.495,58.438Z" style="fill-rule:nonzero;"/><path d="M207.89,99.319c18.594,-0.668 37.187,-8.638 57.108,-23.242c9.3,-7.309 17.267,-14.617 23.242,-21.92c-9.961,1.33 -21.248,3.321 -32.539,7.97c-23.907,7.97 -39.18,21.252 -47.811,37.192Z" style="fill:#d96038;fill-rule:nonzero;"/><path d="M290.234,53.496l-1.994,-1.33c-11.287,1.33 -22.578,3.32 -35.194,7.97c-23.243,8.631 -39.18,20.583 -47.15,37.847l0,1.997l1.994,1.991c18.594,-1.33 37.851,-8.632 57.108,-23.243c9.96,-7.309 17.931,-15.272 24.571,-22.575l0.665,-2.657Zm-77.032,42.503c6.64,-11.958 18.592,-21.258 35.194,-28.56c10.625,-4.644 21.251,-7.964 33.868,-9.961c-23.243,23.242 -45.82,35.861 -69.062,38.521Z" style="fill-rule:nonzero;"/><path d="M221.833,60.797c0.665,-8.631 0,-16.602 -1.991,-23.242c-6.64,4.649 -12.616,10.623 -16.602,19.26c-9.961,15.273 -9.961,33.204 -1.33,51.797c11.956,-13.281 18.597,-29.215 19.923,-47.815Z" style="fill:#d96038;fill-rule:nonzero;"/><path d="M219.842,35.564l-1.329,0c-6.641,4.65 -12.617,11.291 -17.928,19.922c-9.297,16.602 -9.962,34.533 -1.329,54.456l1.994,1.323l1.99,-1.323c12.616,-13.282 19.258,-29.883 20.587,-48.482c0.665,-9.293 0,-17.264 -1.994,-24.566l-1.991,-1.33Zm-1.329,5.973l0.665,14.617c0,17.925 -5.976,33.865 -16.603,47.808c-3.319,-7.302 -4.646,-13.943 -4.646,-21.245c0,-16.602 6.64,-30.551 20.584,-41.18Z" style="fill-rule:nonzero;"/><path d="M213.202,95.331c11.29,14.611 25.897,23.243 43.164,27.893l23.242,1.991c-3.319,-6.641 -9.296,-11.952 -16.601,-17.931c-15.273,-10.624 -31.874,-14.606 -49.805,-11.953Z" style="fill:#ffe000;fill-rule:nonzero;"/><path d="M282.265,125.882l0,-2.659c-4.646,-5.979 -10.626,-11.958 -18.593,-17.932c-15.275,-11.29 -32.539,-15.272 -51.135,-11.952c-0.665,0 -1.991,0 -1.991,1.323l0.665,1.998c11.952,15.272 26.563,23.904 45.155,28.554l23.907,1.991l1.992,-1.323Zm-64.414,-28.561c13.943,-1.323 25.898,1.33 38.516,8.639c7.306,3.982 13.281,9.961 19.258,16.602l-25.233,-3.988c-12.619,-3.989 -23.909,-11.291 -32.541,-21.253Z" style="fill-rule:nonzero;"/><path d="M124.881,112.601c-7.306,4.643 -13.945,9.961 -17.932,15.266l24.572,0.668c18.593,-3.32 33.204,-11.952 43.826,-27.231c-18.592,-1.985 -35.193,1.997 -50.466,11.297Z" style="fill:#d96038;fill-rule:nonzero;"/><path d="M176.677,102.639l0.666,-2.659c-0.666,-0.662 -0.666,-1.33 -1.329,-1.33c-19.259,-1.991 -36.525,1.991 -51.797,11.952c-7.971,4.65 -14.611,9.961 -18.597,15.94c-1.325,0 -1.325,0.661 -0.661,1.991l1.326,1.329l25.898,0c18.596,-2.657 33.869,-11.957 44.494,-27.223Zm-5.976,0.662c-8.634,9.961 -19.922,17.263 -33.203,20.583l-25.236,2.659c5.313,-6.641 11.955,-11.291 19.922,-15.279c11.955,-5.972 24.571,-8.625 38.517,-7.963Z" style="fill-rule:nonzero;"/><path d="M274.958,96.66c13.946,-3.321 25.238,-7.97 35.199,-13.281l-39.181,-3.32c-28.557,0.661 -49.805,7.302 -62.425,19.922c17.267,5.311 39.845,3.981 66.407,-3.321Z" style="fill:#ffe000;fill-rule:nonzero;"/><path d="M312.813,83.379l-1.991,-2.659l-41.174,-2.659c-28.554,0.668 -49.806,7.308 -63.087,20.59l-0.665,1.991l1.33,1.997c17.929,5.973 40.509,3.982 67.732,-3.32c13.282,-3.988 25.238,-8.638 36.525,-13.95l1.33,-1.99Zm-98.947,15.94c11.288,-9.299 26.563,-13.95 47.149,-15.94l41.171,1.323c-35.859,15.278 -65.742,19.26 -88.32,14.617Z" style="fill-rule:nonzero;"/><path d="M251.056,64.118c5.311,-8.632 9.296,-17.264 11.952,-24.566c-7.971,2.652 -16.603,7.302 -24.573,13.943c-17.263,13.281 -27.224,28.554 -29.883,46.485c17.266,-5.979 31.212,-17.931 42.504,-35.862Z" style="fill:#ffe000;fill-rule:nonzero;"/><path d="M264.337,37.555l-1.994,0c-9.297,3.32 -17.929,7.97 -26.563,14.611c-16.602,13.282 -26.563,29.215 -29.884,47.814c0,0.662 0,1.991 0.665,1.991l2.656,0.667c17.267,-5.979 31.877,-18.599 43.164,-35.862c5.977,-9.299 10.627,-17.931 12.617,-26.563l-0.661,-2.658Zm-30.549,22.581c7.306,-6.641 15.938,-11.958 25.233,-16.602c-3.32,9.3 -8.631,17.925 -14.607,25.902c-8.635,12.613 -19.922,20.583 -32.542,26.563c3.32,-13.282 10.626,-25.24 21.916,-35.863Z" style="fill-rule:nonzero;"/><path d="M193.279,48.846c-3.985,-9.961 -8.632,-18.593 -13.281,-25.233c-2.655,8.631 -3.321,18.592 -3.321,29.883c0,21.913 6.642,39.844 19.923,53.125c5.31,-17.931 3.985,-36.524 -3.321,-57.775Z" style="fill:#ffe000;fill-rule:nonzero;"/><path d="M179.334,50.836c0,-7.302 0.664,-14.604 1.329,-21.245c11.286,19.254 16.602,37.186 16.602,54.449c3.32,-10.622 2.655,-21.913 -1.33,-34.526l-13.946,-27.231l-2.654,-1.329c-0.666,0.661 -1.991,0.661 -1.991,1.997c-1.995,9.293 -3.32,19.922 -3.32,31.206c1.325,22.581 7.966,39.845 21.248,53.788c0,0.668 0.664,0.668 1.329,0.668l1.991,-1.33c1.994,-7.302 1.994,-15.272 -1.326,-23.243l-1.994,16.602c-11.29,-13.282 -15.938,-29.883 -15.938,-49.806Z" style="fill-rule:nonzero;"/><path d="M130.857,76.738l-31.878,0l30.549,19.922c23.906,11.284 43.829,13.282 60.431,6.641c-15.272,-14.611 -34.533,-23.242 -59.102,-26.563Z" style="fill:#ffe000;fill-rule:nonzero;"/><path d="M192.614,103.301l-0.665,-1.998c-15.272,-14.604 -35.194,-23.242 -59.766,-25.895l-33.204,-1.33l-2.655,1.998c0,0.661 0,1.984 1.329,2.652l31.875,19.922c23.906,11.291 44.494,13.282 61.76,6.641l1.326,-1.99Zm-7.304,-1.329c-13.281,4.649 -29.219,2.652 -47.146,-4.65c-11.292,-3.982 -21.917,-10.623 -33.204,-18.592l34.529,1.991c17.931,3.981 33.868,11.289 45.821,21.251Z" style="fill-rule:nonzero;"/><path d="M181.988,101.972l-1.325,11.952l2.655,14.61l0.664,17.932c-11.29,43.165 -22.577,89.649 -33.868,139.455c-21.913,98.949 -32.539,181.29 -32.539,245.046c-21.251,-13.282 -33.203,-22.582 -34.532,-27.899c-0.665,-3.981 -1.99,-12.613 -2.656,-25.895l-1.329,-18.594l-11.951,8.632l-0.666,13.95c-0.664,10.622 0.666,18.585 3.32,25.227c2.656,4.656 6.642,9.961 11.955,15.94c5.977,5.317 9.297,9.299 10.623,12.62l13.281,21.913c7.305,11.29 10.626,21.252 10.626,30.551l21.252,0c-3.32,-37.191 -5.314,-70.396 -4.65,-100.278c1.33,-22.575 9.961,-79.689 27.229,-170.007c17.267,-92.302 29.218,-145.428 36.523,-160.7l11.29,-21.252l8.632,-14.611c5.977,-11.284 7.306,-18.592 5.312,-21.913c-8.631,0 -15.272,1.33 -18.593,3.321l-19.922,-6.641l-1.331,6.641Z" style="fill:#858585;fill-rule:nonzero;"/><path d="M181.988,93.339l-1.99,1.991l-0.664,5.973l-1.327,12.621l1.991,11.958l1.99,15.933l0,4.65l-7.966,30.544c-15.276,60.428 -27.229,111.569 -35.859,154.066c-15.276,76.368 -22.581,142.108 -23.243,195.233c-18.596,-11.945 -27.892,-19.922 -28.557,-24.565c-1.326,-3.32 -1.991,-11.29 -3.32,-24.571l-1.99,-18.594c0,-1.329 0,-1.997 -1.33,-1.997l-1.991,0l-11.955,8.639l-1.327,1.99l-1.329,14.611c0,11.284 1.329,19.261 3.986,25.9c2.654,4.645 7.305,10.623 13.946,17.265l8.63,11.283l6.642,11.297c11.29,16.603 17.267,29.884 17.931,39.845c0,1.322 0.665,1.984 1.991,1.984l21.252,0c1.326,0 1.99,0 1.99,-0.662l0.666,-1.99c-3.985,-37.192 -5.313,-70.396 -3.985,-99.61c0,-22.575 9.296,-79.021 26.562,-169.339c16.604,-91.641 29.219,-144.767 35.86,-160.045c3.984,-7.964 7.97,-15.934 14.611,-25.895l5.311,-9.961c3.985,-7.309 6.642,-13.281 6.642,-18.593l-1.327,-5.979l-1.994,-0.661l-18.593,2.659l-19.922,-5.979l-1.332,0l0,-0.001Zm3.322,5.312l16.601,5.973l1.994,0c3.321,-1.985 8.633,-2.652 15.938,-2.652c0,3.988 -1.991,9.961 -5.976,17.931l-5.314,9.299c-6.642,10.623 -11.952,19.254 -14.608,25.895c-7.305,15.272 -19.257,69.06 -37.188,162.03c-16.601,90.317 -25.897,146.765 -25.897,170.007l-0.665,13.949c0,24.565 1.329,52.457 3.985,83.009l-15.276,0c-1.326,-9.961 -7.302,-23.242 -17.927,-39.844l-6.642,-9.962l-9.961,-13.281c-5.314,-5.318 -9.961,-10.629 -11.955,-15.94c-2.656,-5.318 -3.981,-11.958 -3.981,-20.584l1.325,-15.94l6.642,-4.648c1.329,21.251 3.32,34.532 4.65,39.176c1.325,6.641 13.28,16.602 35.193,29.884l2.655,0l1.33,-1.984l0,-1.998c0,-52.465 7.306,-118.204 23.242,-195.24c7.97,-42.496 19.923,-94.293 35.86,-155.389l7.305,-31.874l0,-4.65l-1.329,-16.602l-1.991,-11.29l1.99,-15.275Z" style="fill-rule:nonzero;"/><path d="M50.503,401.472c-3.984,1.984 -7.97,4.644 -12.616,9.293l-7.969,5.973l-8.633,-1.322c-3.32,0 -5.976,1.99 -8.635,3.981c-2.655,2.659 -3.982,7.302 -4.646,12.62c-0.665,5.312 0,8.632 0.664,10.622l7.304,5.979c3.984,3.321 5.979,5.979 5.313,9.301l-5.976,12.612c-3.985,5.973 -5.979,9.961 -5.979,11.952c-0.662,2.659 1.994,5.318 7.305,7.971l13.283,3.319c3.319,0.669 6.64,-0.667 11.289,-3.319c3.986,-2.652 7.306,-3.32 9.962,-2.652l8.631,1.983l7.307,-3.32l7.305,-8.624c1.991,-3.988 3.984,-5.318 6.642,-4.656c1.99,0 4.646,1.997 6.64,5.979c3.32,4.65 5.312,7.302 7.967,7.971l11.955,-0.669l9.961,-9.292c3.32,-3.988 5.312,-14.611 6.642,-31.213c1.325,-18.593 0.664,-31.874 -1.994,-41.167c-3.321,-2.659 -7.303,-4.657 -12.617,-6.642c-9.961,-3.319 -18.593,-2.659 -27.228,2.653l-11.952,-1.991c-8.634,-0.001 -15.275,0.661 -19.925,2.658Z" style="fill:#858585;fill-rule:nonzero;"/><path d="M110.936,396.154c-10.627,-3.981 -19.923,-2.659 -29.22,1.329l-31.877,1.33c-5.312,1.991 -9.296,5.311 -13.281,10.622l-6.64,4.65l-3.321,0c-7.306,-1.33 -11.953,0 -15.938,3.319c-2.655,3.32 -3.985,7.309 -5.312,13.95c-0.664,5.973 0,9.961 0.662,12.613l5.314,4.649c5.311,3.321 7.967,6.641 7.967,8.632c-0.661,3.32 -2.656,6.642 -6.641,12.614c-3.32,5.317 -5.977,9.96 -5.977,11.958l1.33,5.979c3.32,3.981 10.626,7.302 21.914,8.625c3.319,0 7.305,-0.662 12.615,-3.32c3.32,-2.652 5.979,-2.652 8.636,-2.652l1.325,0l7.971,1.329l7.971,-3.32l7.301,-7.971c1.995,-3.319 3.986,-5.311 4.65,-5.311l5.312,5.311c2.659,4.65 5.314,7.971 8.635,9.293l14.608,-1.322c4.649,-1.998 8.634,-5.317 11.29,-9.961c2.655,-4.649 5.311,-15.94 5.977,-33.204c1.329,-17.931 1.329,-31.212 -1.991,-41.174l-0.665,-0.668c-3.32,-3.318 -7.305,-5.971 -12.615,-7.3Zm-59.767,7.97l18.592,-2.652l11.292,1.984l1.99,-0.661c7.97,-4.644 15.937,-5.312 24.571,-2.659c4.647,1.336 8.632,3.32 11.952,6.641c1.329,5.318 2.656,13.282 2.656,23.243l-2.656,27.899c-0.665,9.292 -1.991,15.934 -3.32,17.925l-9.297,7.97l-10.625,0.667l-5.976,-6.64c-3.985,-4.656 -6.642,-7.31 -9.296,-7.31c-3.321,-0.667 -6.642,1.33 -9.962,6.642l-5.314,6.641l-5.977,3.32l-5.977,-1.33l-1.991,-0.661c-3.984,-1.329 -7.305,0 -11.955,3.32c-3.984,1.991 -7.305,2.659 -9.296,2.659c-9.961,-1.337 -15.938,-3.988 -17.931,-6.642l-0.661,-1.335c0,-2.653 1.325,-5.973 5.312,-10.623l6.641,-14.604c0.664,-3.989 -1.991,-7.978 -9.298,-13.95l-3.319,-2.652c-1.329,-1.336 -1.329,-4.656 -0.665,-9.3c0.665,-4.649 1.991,-8.638 3.984,-10.623c1.991,-2.659 5.313,-3.319 11.288,-2.659l3.986,0.662c3.319,0 6.64,-1.991 9.959,-6.641c4.651,-4.642 7.972,-7.301 11.293,-8.631Z" style="fill-rule:nonzero;"/><path d="M114.255,411.433c-0.664,-1.335 -1.33,-1.335 -3.319,-1.335c-14.611,5.979 -29.883,12.619 -45.159,20.589c-30.545,14.611 -50.467,27.893 -60.429,39.845c-0.664,0.668 -0.664,1.33 0,2.653l3.32,0c9.297,-11.284 29.219,-24.566 60.429,-39.177c25.902,-13.282 40.509,-19.922 43.828,-19.922l1.33,-2.653Z" style="fill-rule:nonzero;"/><path d="M106.285,415.415l-1.99,-1.998c-1.329,0 -1.995,0.669 -1.995,1.998l-0.662,21.245c-0.663,14.617 -1.993,27.231 -3.984,35.201c0,1.323 0,1.991 1.991,1.991c0.664,0.667 1.33,0 1.993,-1.33c1.991,-8.631 3.321,-20.583 3.982,-35.862l0.665,-21.245Z" style="fill-rule:nonzero;"/><path d="M82.378,423.379c-1.325,-0.662 -1.991,0 -2.655,0.668l-9.297,21.913l-15.937,29.222c-1.329,1.322 -1.329,1.991 0,2.659l2.655,0c3.985,-4.656 9.296,-14.618 16.602,-29.884l9.961,-22.581c0.665,-0.662 0,-1.329 -1.329,-1.997Z" style="fill-rule:nonzero;"/><path d="M72.417,450.609c-0.662,-1.329 -1.326,-1.991 -2.656,-1.329l-13.281,5.317c-9.296,5.306 -15.937,10.623 -19.922,16.602c-1.326,1.323 -0.665,1.985 0,2.653l3.319,0c3.321,-5.973 9.962,-10.63 19.259,-15.934l11.955,-4.657c1.326,-0.661 1.326,-1.984 1.326,-2.652Z" style="fill-rule:nonzero;"/><path d="M9.995,432.017l-1.991,1.991c0,1.329 0.664,2.652 1.991,2.652c9.961,0 20.586,3.32 33.203,9.3c1.329,0.661 1.329,0.661 2.655,-1.323c0.665,-0.668 0,-1.336 -1.326,-2.658c-12.617,-5.98 -24.571,-9.301 -34.532,-9.962Z" style="fill-rule:nonzero;"/><path d="M59.8,420.059l-15.272,1.335c-1.329,0.662 -1.994,1.985 -1.329,2.653l1.995,1.329l14.606,-1.329c9.961,-0.668 16.603,0 21.253,2.651l1.99,0c1.329,-1.322 1.329,-2.651 0,-3.319c-5.312,-2.653 -12.617,-4.645 -23.243,-3.32Z" style="fill-rule:nonzero;"/><path d="M124.881,315.805c-22.581,-23.243 -37.853,-31.214 -45.158,-23.905c-7.306,7.964 1.993,22.574 27.892,43.825c26.563,21.246 41.836,29.223 45.82,23.904c3.32,-5.31 -5.976,-19.921 -28.554,-43.824Z" style="fill:#d96038;fill-rule:nonzero;"/><path d="M110.936,299.864c-15.937,-11.952 -26.563,-15.273 -33.204,-9.301c-1.329,1.998 -1.995,4.657 -1.995,7.31l0.666,5.312c3.32,9.299 14.61,21.919 33.203,37.185c17.932,13.95 31.212,21.258 39.845,22.582c2.655,0.66 3.984,-0.662 5.976,-1.991c1.994,-3.988 -1.991,-13.282 -12.617,-27.231c-9.962,-13.283 -20.587,-25.228 -31.874,-33.866Zm-29.883,-5.979c3.319,-3.321 9.96,-2.652 17.927,3.32c11.956,7.309 23.907,18.6 36.524,34.54c11.29,14.604 17.267,23.242 15.275,26.563c-2.655,1.322 -11.955,-3.32 -27.893,-13.95c-16.602,-11.952 -28.554,-23.242 -36.523,-33.871c-5.976,-7.965 -7.305,-13.282 -5.31,-16.602Z" style="fill-rule:nonzero;"/><path d="M150.114,306.504c-7.306,-33.203 -15.937,-47.808 -25.233,-43.826c-8.635,3.321 -7.97,21.246 2.656,52.464c11.287,31.868 19.257,46.484 25.897,44.487c5.312,-1.99 3.986,-19.921 -3.32,-53.125Z" style="fill:#ffe000;fill-rule:nonzero;"/><path d="M124.217,260.02c-3.321,1.329 -5.976,5.317 -6.642,11.29c-1.993,10.63 1.991,27.23 9.962,49.806c7.967,21.252 14.607,34.533 21.247,39.845c1.33,0.667 3.986,1.329 5.316,0.667c4.646,-1.335 5.976,-13.281 2.654,-33.87c-3.32,-18.594 -6.641,-34.534 -12.616,-47.814c-5.975,-15.943 -13.281,-22.584 -19.921,-19.924Zm-2.656,15.94c0,-6.641 1.326,-9.961 4.647,-11.291c1.993,-1.33 5.313,1.33 9.296,7.309c6.641,10.623 11.29,27.886 15.275,50.466c3.321,21.245 3.984,32.543 1.326,35.194c-2.655,0 -8.632,-9.293 -15.272,-25.894c-7.971,-17.271 -12.616,-33.872 -14.61,-47.821l-0.662,-7.963Z" style="fill-rule:nonzero;"/><path d="M179.998,311.154c10.625,-33.204 10.625,-50.474 -0.664,-51.796c-11.953,-1.329 -19.923,15.272 -26.563,48.476c-5.977,33.871 -5.977,50.474 0.664,51.796c6.641,1.33 15.272,-15.273 26.563,-48.476Z" style="fill:#d96038;fill-rule:nonzero;"/><path d="M187.969,263.339c-1.33,-3.32 -4.65,-5.311 -7.971,-6.64c-8.632,-0.662 -15.938,6.64 -22.578,23.243c-3.985,11.958 -7.306,27.224 -9.961,43.826c-1.994,24.577 -0.665,37.191 5.312,37.858c2.655,0.662 5.314,-1.335 8.635,-5.979c7.967,-9.962 14.608,-25.24 21.248,-45.823c7.305,-21.912 9.295,-37.846 5.315,-46.485Zm-8.635,-1.99c3.984,1.33 5.976,4.65 5.976,11.952l0,1.33c0,12.614 -4.646,29.883 -13.281,51.135c-8.632,19.921 -15.273,31.206 -18.594,31.873c-2.655,-1.99 -3.32,-11.952 -1.329,-29.215c1.329,-17.938 5.314,-33.872 10.625,-47.152c4.65,-13.282 10.626,-19.923 16.603,-19.923Z" style="fill-rule:nonzero;"/><path d="M209.881,266.66c-9.961,-3.982 -23.242,9.3 -39.844,41.174c-17.267,31.874 -23.243,49.138 -16.603,51.796c5.977,2.659 19.258,-11.284 39.845,-41.167c20.587,-30.551 26.563,-47.153 16.602,-51.803Z" style="fill:#ffe000;fill-rule:nonzero;"/><path d="M210.546,264.669c-7.306,-3.32 -16.603,3.321 -27.893,18.593c-8.631,11.29 -16.602,25.901 -23.907,41.842c-9.296,22.574 -11.952,34.526 -6.641,36.523c1.995,0.662 5.314,0 8.635,-2.658c9.961,-7.303 21.913,-20.584 34.53,-39.183c13.946,-20.584 21.251,-35.195 21.251,-45.156l0,-1.991c-0.665,-3.32 -2.655,-6.64 -5.975,-7.97Zm-1.329,4.65c2.655,0.662 3.32,4.643 1.329,10.624c-3.32,12.619 -12.617,29.221 -27.893,49.144c-15.272,19.26 -25.233,28.553 -29.219,28.553c-1.329,-3.319 1.991,-13.281 9.962,-30.551c7.97,-19.254 17.267,-35.188 26.563,-46.485c8.632,-9.294 14.61,-13.944 19.258,-11.285Z" style="fill-rule:nonzero;"/><path d="M153.435,359.63c3.32,5.318 22.579,0.662 55.782,-14.604c33.868,-15.28 47.149,-27.899 40.509,-37.192c-5.977,-9.961 -24.571,-5.312 -55.782,13.949c-31.214,19.922 -44.494,32.536 -40.509,37.847Z" style="fill:#d96038;fill-rule:nonzero;"/><path d="M252.381,305.844c-2.655,-3.321 -7.305,-5.318 -13.946,-4.65c-12.616,0.668 -29.883,7.97 -51.796,22.575c-19.922,13.948 -31.875,23.909 -35.859,31.88c-0.665,1.99 -0.665,3.32 0,5.312c3.321,3.988 15.938,2.651 36.524,-5.312c20.586,-6.641 36.523,-14.61 49.141,-23.243c11.29,-7.97 16.602,-14.61 16.602,-21.251l-0.666,-5.311Zm-25.233,1.99l21.248,0.668c1.994,3.981 0,8.625 -5.977,13.281c-9.961,9.293 -26.563,18.586 -49.806,27.225c-21.913,8.631 -34.529,11.952 -37.851,9.3c0,-3.988 8.633,-11.297 25.234,-23.911c17.933,-13.282 33.87,-21.914 47.152,-26.563Z" style="fill-rule:nonzero;"/><path d="M259.687,333.067c-2.655,-10.623 -21.252,-10.623 -57.111,1.329c-35.858,10.63 -51.796,19.254 -49.141,25.233c1.991,5.979 21.252,5.979 56.446,-0.661c36.524,-7.302 53.127,-15.279 49.806,-25.901Z" style="fill:#ffe000;fill-rule:nonzero;"/><path d="M262.343,332.405c-1.327,-4.648 -4.647,-7.302 -9.962,-7.97c-11.952,-2.652 -30.548,0 -55.781,9.293c-23.907,7.977 -39.18,15.279 -43.829,21.259c-1.991,2.651 -2.656,3.981 -1.991,5.973c2.655,3.988 13.281,5.973 34.53,3.32c19.922,-1.329 37.188,-5.312 51.8,-9.961c16.601,-5.974 25.233,-11.952 25.233,-19.255l0,-2.659Zm-19.923,-4.648c9.296,0 13.946,2.651 15.275,5.972c1.326,3.321 -2.658,7.31 -10.625,11.298c-11.955,6.64 -30.549,11.283 -54.456,13.942c-22.577,2.658 -35.194,2.658 -37.188,-0.661c0.665,-3.32 11.291,-9.3 31.878,-17.27c22.577,-7.971 40.509,-12.614 55.116,-13.281Z" style="fill-rule:nonzero;"/><path d="M197.265,392.834c31.209,15.94 48.476,18.599 51.132,7.971c3.319,-9.961 -11.952,-20.591 -44.492,-33.205c-31.876,-11.29 -49.141,-13.949 -50.47,-7.97c-1.992,5.979 12.617,17.932 43.83,33.204Z" style="fill:#d96038;fill-rule:nonzero;"/><path d="M251.056,398.813c0,-7.303 -7.971,-14.611 -22.582,-23.243c-11.952,-5.979 -25.233,-11.29 -40.505,-15.278l-37.189,-1.323c-0.665,1.991 0.664,5.312 4.646,8.631c7.971,9.294 22.581,17.932 42.503,27.893c21.913,11.284 37.187,15.272 45.156,13.282c3.985,-1.33 6.641,-3.32 7.306,-7.303l0.665,-2.659Zm-95.63,-38.521c1.994,-1.984 11.955,-0.662 29.222,3.988c18.593,4.649 33.865,10.629 45.82,18.593c11.952,7.302 16.603,12.619 15.938,17.932c-0.665,3.319 -4.65,3.988 -11.952,3.319c-12.62,-1.99 -29.222,-8.632 -49.806,-20.59c-19.26,-11.946 -29.222,-19.254 -29.222,-23.242Z" style="fill-rule:nonzero;"/><path d="M140.154,391.511c-3.985,21.906 -1.991,32.536 6.64,33.203c7.97,0.662 13.282,-9.96 15.273,-31.219c1.329,-22.574 -0.662,-33.203 -6.642,-34.526c-5.975,0 -11.286,10.622 -15.271,32.542Z" style="fill:#ffe000;fill-rule:nonzero;"/><path d="M163.396,370.253c-1.329,-8.626 -3.985,-12.614 -7.971,-13.281c-1.991,0 -5.312,1.336 -7.302,4.655c-2.659,5.306 -5.979,11.946 -8.636,20.584c-1.99,9.3 -3.319,17.925 -3.319,25.233c0,6.642 0.664,10.63 2.655,13.949c1.33,3.32 3.984,5.974 7.97,5.974c4.649,0 9.297,-3.32 11.952,-10.63c3.321,-5.973 4.65,-14.604 5.314,-24.564c0.667,-7.971 0.002,-15.279 -0.663,-21.92Zm-7.97,-8.626c1.329,0 1.994,2.653 3.32,8.626c1.33,5.979 1.33,13.949 0.665,21.92c-0.665,8.632 -2.656,16.602 -4.647,21.913c-1.993,5.973 -4.649,9.293 -7.97,8.631l-3.985,-3.32c-2.654,-5.311 -2.654,-14.604 0,-27.886c1.994,-11.959 5.315,-21.258 9.297,-27.23l3.32,-2.654Z" style="fill-rule:nonzero;"/><path d="M102.966,364.948c34.532,2.651 52.46,0.661 52.46,-5.979c0,-6.64 -17.928,-13.942 -52.46,-21.252c-35.196,-8.631 -51.797,-6.641 -52.463,5.312c-0.664,11.29 17.267,18.598 52.463,21.919Z" style="fill:#ffe000;fill-rule:nonzero;"/><path d="M157.42,358.969c0,-1.997 -1.994,-4.649 -6.641,-7.303c-11.291,-6.64 -27.228,-12.619 -48.479,-17.27c-24.568,-5.311 -39.844,-5.311 -48.477,-0.668c-3.984,1.997 -5.976,4.656 -5.976,9.3c0,7.971 8.632,14.61 25.234,19.261l45.819,5.311c25.239,0.669 38.52,-1.991 38.52,-8.631Zm-33.868,4.642c-19.257,0 -36.523,-1.984 -50.47,-5.973c-13.947,-3.989 -20.588,-9.293 -19.922,-14.61c0,-3.981 3.319,-5.979 9.96,-7.303c13.282,-1.329 31.213,1.324 54.455,7.964c22.579,6.641 34.53,11.959 35.859,15.279c-1.991,2.659 -11.951,4.643 -29.882,4.643Z" style="fill-rule:nonzero;"/><path d="M155.426,358.969c4.65,-3.32 1.329,-17.264 -11.287,-40.506c-11.955,-23.242 -22.578,-32.542 -31.214,-27.23c-8.63,4.649 -4.646,17.931 11.292,40.513c15.271,22.573 25.897,31.205 31.209,27.223Z" style="fill:#ffe000;fill-rule:nonzero;"/><path d="M140.154,307.166c-10.626,-16.603 -19.923,-22.575 -27.893,-18.587c-3.32,2.653 -5.313,5.973 -5.313,9.961l0,0.662c0.665,9.3 5.976,21.245 16.603,35.194c10.626,13.949 19.257,23.242 26.563,26.563l6.641,0c3.321,-2.652 3.321,-9.961 -1.329,-23.243c-3.983,-10.628 -8.632,-21.251 -15.272,-30.55Zm-25.899,-14.604c5.312,-2.658 12.616,2.659 21.914,15.94c5.976,9.293 11.29,19.922 15.274,31.206c3.982,10.622 4.647,15.94 2.657,17.931c-1.995,0.669 -7.971,-3.319 -16.603,-13.281c-9.297,-9.961 -16.603,-19.922 -21.252,-30.551c-5.309,-11.285 -5.974,-18.586 -1.99,-21.245Z" style="fill-rule:nonzero;"/><path d="M155.426,358.969c4.65,3.982 17.932,-4.649 40.509,-27.224c22.578,-22.582 30.549,-36.524 23.907,-41.182c-5.976,-5.973 -19.922,3.988 -39.844,27.231c-21.252,23.911 -29.219,37.854 -24.572,41.175Z" style="fill:#ffe000;fill-rule:nonzero;"/><path d="M221.833,287.912c-5.312,-3.321 -12.616,-0.668 -24.568,9.293c-7.306,5.317 -14.611,13.281 -21.917,22.581l-15.937,21.252c-6.641,10.628 -8.632,17.27 -5.977,19.922l7.306,0c9.297,-3.321 21.248,-12.614 36.524,-27.231c16.602,-15.934 25.233,-28.547 26.563,-37.186l0.665,-1.991c0,-3.32 -1.329,-5.311 -2.659,-6.64Zm-2.655,3.988c1.329,1.984 0.664,5.973 -2.656,11.945c-6.641,10.629 -17.266,23.242 -33.203,36.523c-13.946,13.281 -23.242,18.6 -26.563,17.27c-1.329,-3.319 3.321,-11.29 13.946,-25.233c11.287,-14.61 22.578,-26.562 32.539,-34.532c7.97,-5.973 13.28,-7.97 15.937,-5.973Z" style="fill-rule:nonzero;"/><path d="M203.24,373.573c30.548,1.997 45.821,-1.985 45.156,-11.946c-0.662,-10.628 -16.603,-14.616 -47.812,-13.949c-30.548,1.33 -45.821,5.313 -45.159,11.291c0.666,6.64 16.603,11.284 47.815,14.604Z" style="fill:#ffe000;fill-rule:nonzero;"/><path d="M250.391,361.627c0,-3.988 -2.656,-7.977 -7.971,-10.628c-9.961,-5.313 -25.898,-6.642 -46.485,-5.313c-19.921,1.324 -33.204,4.644 -39.844,8.633c-2.656,1.329 -3.32,3.319 -2.656,5.311c0,4.65 9.962,8.639 27.893,12.62l45.821,3.32c15.937,-1.329 23.907,-5.317 23.907,-13.281l-0.665,-0.662Zm-3.986,0c0,3.982 -3.985,6.642 -12.617,8.626l-47.149,-1.984c-17.932,-3.32 -27.893,-6.642 -29.219,-9.3c1.326,-1.997 9.297,-4.649 24.568,-7.303c15.94,-1.997 30.549,-1.997 43.83,-0.667c13.282,1.991 20.587,5.973 20.587,10.628Z" style="fill-rule:nonzero;"/><path d="M179.334,406.115c20.586,25.901 35.197,35.201 44.493,27.225c9.297,-8.626 1.327,-24.565 -23.907,-47.146c-24.572,-22.582 -39.844,-31.874 -44.494,-27.225c-5.312,5.311 3.32,21.245 23.908,47.146Z" style="fill:#ffe000;fill-rule:nonzero;"/><path d="M160.74,356.972l-7.306,0.667c-3.32,3.321 0,12.614 8.633,27.231c7.97,13.281 16.601,25.228 26.562,35.855c15.94,16.603 27.893,21.253 36.525,13.949c3.319,-2.658 4.648,-5.979 4.648,-9.299l-0.664,-3.982c-2.655,-10.629 -12.617,-23.91 -29.883,-39.183c-16.602,-14.61 -29.218,-23.241 -38.515,-25.238Zm-3.985,3.988c3.321,-1.33 13.282,3.32 27.893,15.272c15.938,11.958 27.89,24.572 35.194,35.862c5.313,8.631 6.642,15.272 2.656,19.261c-4.647,3.981 -11.952,2.652 -21.248,-5.317c-11.291,-8.633 -21.252,-21.245 -31.878,-37.848c-9.296,-15.278 -13.946,-23.91 -12.617,-27.23Z" style="fill-rule:nonzero;"/><path d="M136.169,406.776c-6.641,31.881 -6.641,48.482 1.994,49.806c8.631,0.668 14.607,-15.934 18.592,-48.469c4.65,-31.881 3.321,-48.483 -2.654,-49.145c-5.317,-0.66 -11.956,15.273 -17.932,47.808Z" style="fill:#d96038;fill-rule:nonzero;"/><path d="M137.498,458.579c7.967,0.662 13.281,-9.299 18.593,-30.544c3.32,-13.949 4.649,-25.24 4.649,-33.203c1.99,-24.579 0,-37.86 -5.977,-37.86c-1.993,0 -4.649,0.667 -5.979,3.988c-4.646,6.64 -9.296,17.932 -12.615,34.532c-4.647,16.603 -6.641,31.206 -6.641,43.165c0,6.641 0.664,11.952 2.655,15.272l5.315,4.65Zm16.603,-97.619c2.654,1.991 3.319,12.613 2.654,30.551c-1.329,19.254 -4.649,35.188 -9.296,48.47c-2.656,9.961 -5.976,13.949 -8.635,13.949c-2.655,0 -3.982,-3.32 -4.646,-9.961c-1.33,-11.952 1.326,-28.554 6.64,-49.806c5.976,-21.251 9.961,-31.874 13.283,-33.203Z" style="fill-rule:nonzero;"/><path d="M102.966,392.173c-29.884,26.562 -40.51,42.502 -33.205,48.476c7.971,6.641 25.238,-4.649 52.462,-33.204c26.562,-28.553 37.188,-44.493 31.878,-48.476c-4.651,-3.982 -21.917,7.302 -51.135,33.204Z" style="fill:#d96038;fill-rule:nonzero;"/><path d="M140.154,390.175c15.271,-19.254 20.586,-29.883 15.937,-32.536c-3.985,-3.319 -16.603,2.653 -36.524,17.932c-19.922,15.273 -33.868,28.554 -44.49,41.835c-5.979,7.971 -9.3,13.95 -9.3,19.255c0,2.659 0.664,4.656 2.659,6.641c4.646,3.32 11.287,0.668 20.584,-9.293c-9.297,5.973 -14.608,7.309 -17.929,5.312c-1.33,-1.991 -1.33,-5.312 1.326,-9.3c6.641,-12.614 20.587,-27.225 43.165,-45.149c21.251,-17.271 33.868,-24.578 37.853,-23.91c0.666,3.32 -5.976,13.949 -20.587,31.213c-15.937,19.26 -30.548,32.541 -43.828,41.835c5.313,0 10.625,-2.652 15.939,-6.641c12.616,-10.632 24.569,-23.245 35.195,-37.194Z" style="fill-rule:nonzero;"/><path d="M118.241,401.472c-18.597,30.545 -22.582,47.146 -12.621,51.128c9.3,3.982 21.917,-10.621 36.524,-41.835c13.946,-32.535 17.932,-49.805 11.956,-51.796c-5.316,-1.997 -17.931,11.952 -35.859,42.503Z" style="fill:#ffe000;fill-rule:nonzero;"/><path d="M155.426,356.972c-1.991,-1.323 -5.312,0 -8.632,3.32c-8.631,7.308 -18.593,19.922 -29.883,38.521c-12.616,19.921 -17.932,35.194 -17.932,45.155l0,3.32c0.665,3.988 2.658,6.641 5.315,7.309c7.967,2.652 16.601,-3.32 25.897,-17.938c7.306,-11.284 13.946,-25.228 19.922,-41.168c9.298,-23.903 10.627,-36.522 5.313,-38.519Zm-1.991,3.988c2.656,2.651 0,13.281 -6.641,30.551c-6.64,19.254 -13.946,33.865 -22.577,45.817c-7.971,10.629 -13.946,14.611 -17.932,13.281c-3.319,-1.329 -3.985,-5.312 -2.656,-11.952c2.656,-12.619 10.626,-28.56 25.233,-49.144c12.621,-18.592 21.252,-28.553 24.573,-28.553Z" style="fill-rule:nonzero;"/><path d="M94.999,358.308c-38.52,5.973 -55.785,13.942 -52.466,23.903c2.66,10.623 23.243,10.623 60.433,0.662c37.188,-9.961 54.454,-17.925 52.46,-23.904c-2.655,-6.641 -22.578,-6.641 -60.427,-0.661Z" style="fill:#d96038;fill-rule:nonzero;"/><path d="M156.091,362.951c1.329,-1.991 1.329,-3.321 1.329,-5.313c-1.329,-4.648 -14.611,-5.973 -38.519,-3.988c-23.242,1.337 -42.499,4.657 -57.107,9.961c-17.267,5.318 -23.907,11.959 -21.917,19.923c1.33,3.988 4.65,6.641 11.292,7.31c11.951,3.319 31.209,0 58.437,-7.31c25.236,-7.302 40.508,-14.604 46.485,-20.583Zm-111.564,18.599c-1.329,-3.32 1.991,-5.979 7.967,-9.3c11.955,-5.979 31.878,-10.623 58.441,-13.942l42.499,1.322c-1.329,3.981 -13.28,8.639 -34.533,15.94c-23.242,7.964 -42.499,11.952 -57.771,11.952c-9.961,0 -15.276,-1.991 -16.603,-5.972Z" style="fill-rule:nonzero;"/><path d="M100.975,373.573c-31.878,14.617 -45.16,26.563 -39.181,34.54c5.976,8.624 23.904,3.319 54.452,-13.95c29.884,-18.593 42.5,-29.883 39.18,-35.194c-4.647,-5.319 -22.578,-0.661 -54.451,14.604Z" style="fill:#ffe000;fill-rule:nonzero;"/><path d="M156.755,357.639c-1.329,-1.99 -3.984,-2.651 -9.296,-2.651c-11.955,1.984 -27.893,7.302 -49.141,16.601c-21.916,10.623 -35.198,19.923 -39.183,28.548c-1.327,3.988 -1.327,6.641 0.664,9.3l33.204,-1.322c13.281,-5.318 26.563,-13.281 41.174,-23.911c18.594,-13.283 25.899,-22.577 22.578,-26.565Zm-93.635,49.137l0,-2.652c0,-1.99 1.329,-4.649 4.649,-7.97c8.633,-8.632 25.234,-17.925 48.477,-26.563c21.252,-8.631 33.868,-11.952 37.188,-9.299c0,3.319 -7.305,9.961 -22.577,20.59c-16.603,11.952 -31.213,19.923 -44.494,25.233l-23.243,0.661Z" style="fill-rule:nonzero;"/><path d="M149.45,413.417c2.655,34.54 9.296,51.142 20.587,50.475c10.626,-0.669 12.616,-19.255 5.311,-53.794c-6.641,-35.188 -13.942,-52.459 -19.922,-51.129c-6.642,1.323 -8.632,19.26 -5.976,54.448Z" style="fill:#ffe000;fill-rule:nonzero;"/><path d="M160.076,360.292c-1.33,-2.653 -3.321,-3.32 -5.313,-3.32c-4.649,0.667 -7.305,9.961 -7.97,27.23c-0.664,13.949 0,29.215 1.99,43.165c3.986,26.563 10.627,39.844 21.253,39.176c3.985,-0.661 6.64,-3.32 8.631,-7.964c4.65,-9.299 3.985,-27.224 -1.991,-52.464c-4.648,-23.904 -9.959,-38.515 -16.6,-45.823Zm-3.985,0.668c3.32,1.329 7.306,12.613 13.281,33.203c5.976,23.242 7.971,40.512 7.305,54.455c-0.663,8.632 -3.319,12.62 -7.305,12.62c-4.646,0.662 -8.632,-4.656 -11.952,-15.278c-3.985,-13.943 -6.641,-31.206 -6.641,-51.797c0,-19.922 1.992,-30.552 5.312,-33.203Z" style="fill-rule:nonzero;"/><path d="M178.668,378.892c16.603,6.64 25.901,6.64 27.893,-1.33c2.656,-7.971 -4.65,-14.61 -22.578,-19.923c-17.266,-4.648 -27.228,-3.988 -28.557,1.33c-1.991,5.979 5.979,12.619 23.242,19.923Z" style="fill:#ffe000;fill-rule:nonzero;"/><path d="M209.217,378.229l0.664,-3.32c0,-7.31 -7.971,-13.949 -24.571,-19.261l-19.258,-2.658c-7.306,0.66 -11.951,1.997 -12.617,5.317c-0.664,3.319 0,5.973 3.32,9.292c4.65,5.313 11.952,9.962 20.588,13.282c9.961,3.988 18.592,5.974 23.907,3.988c4.646,-0.667 7.302,-3.319 7.967,-6.64Zm-49.141,-13.281l-2.656,-4.656c0.665,-1.984 3.32,-2.653 8.632,-2.653l17.931,3.321c5.977,1.329 11.952,3.32 15.273,6.64c3.984,3.321 6.64,6.642 5.313,9.294l-4.649,3.988c-4.649,0.668 -11.291,0 -19.922,-3.988c-8.632,-3.321 -15.272,-7.964 -19.922,-11.946Z" style="fill-rule:nonzero;"/><path d="M132.184,377.562c-11.288,14.611 -12.617,23.91 -5.313,27.893c7.307,4.644 15.273,-1.33 23.908,-17.932c8.632,-15.935 9.961,-25.233 4.646,-28.554c-5.311,-1.997 -13.28,3.32 -23.241,18.593Z" style="fill:#ffe000;fill-rule:nonzero;"/><path d="M156.755,357.639c-2.654,-1.99 -5.976,-0.667 -9.961,1.33c-5.977,3.32 -11.29,9.3 -17.266,17.264c-5.977,8.638 -8.633,15.94 -8.633,21.919l0,0.662c0,3.981 1.327,6.641 5.313,9.3c3.984,2.651 8.634,1.322 13.946,-3.32c3.984,-3.321 8.63,-8.639 12.616,-15.94l6.641,-17.932c1.329,-7.311 0.665,-11.953 -2.656,-13.283Zm-2.654,3.321c1.99,0.667 1.99,3.32 1.325,8.631l-6.642,17.265c-7.967,13.949 -14.606,19.921 -21.247,17.269c-1.329,-1.329 -1.995,-3.319 -1.995,-5.311c-0.661,-4.65 1.995,-11.291 7.306,-19.262c5.977,-7.964 10.626,-13.281 16.603,-16.601c1.992,-1.991 3.984,-1.991 4.65,-1.991Z" style="fill-rule:nonzero;"/><path d="M158.746,358.969c5.314,1.991 13.282,-6.641 21.252,-24.572c8.631,-18.592 8.631,-29.215 0.665,-31.874c-7.971,-1.997 -14.611,5.979 -21.252,25.234c-5.976,19.254 -5.976,29.882 -0.665,31.212Z" style="fill:#d96038;fill-rule:nonzero;"/><path d="M179.998,304.514l3.32,4.649c0.664,5.312 -0.665,13.281 -5.312,23.904c-4.649,9.961 -9.3,17.263 -14.61,21.252l-3.32,2.652c-1.33,-0.662 -2.656,-3.321 -1.991,-9.294c0,-5.973 1.326,-12.613 3.982,-19.921c1.329,-5.313 3.984,-9.294 5.979,-13.282c-4.65,1.33 -7.971,5.312 -10.627,11.291c-1.994,7.963 -3.985,15.272 -3.985,21.912c0,7.971 0.666,12.614 4.65,13.282c2.655,0.667 5.312,0 8.632,-2.652c5.312,-3.988 9.96,-11.297 13.946,-20.591c5.31,-9.96 7.966,-18.593 7.966,-25.233l-0.66,-3.981c-0.665,-3.988 -2.659,-6.641 -6.642,-7.977c-3.984,-1.323 -5.979,1.336 -7.305,7.309c1.993,-2.652 3.986,-3.32 5.977,-3.32Z" style="fill-rule:nonzero;"/><path d="M158.746,358.969c5.979,-1.33 7.306,-13.282 2.659,-34.533c-4.65,-21.913 -10.626,-31.874 -18.597,-29.884c-7.967,1.991 -8.631,13.282 -2.654,34.534c6.64,21.913 13.281,31.874 18.592,29.883Z" style="fill:#ffe000;fill-rule:nonzero;"/><path d="M152.105,295.882c-2.655,-3.32 -5.976,-4.649 -9.297,-3.981c-5.976,1.984 -8.631,6.64 -8.631,15.934c0,3.988 1.326,9.961 2.655,16.602c2.655,9.961 5.976,17.932 9.961,25.895c3.985,7.978 8.632,11.959 12.617,10.63c2.656,0 3.985,-2.652 4.649,-5.973c2.656,-6.642 1.991,-16.603 -0.664,-29.884c-2.655,-13.951 -6.64,-23.912 -11.29,-29.223Zm-8.631,1.323c1.991,-1.323 3.32,0 5.311,1.335c4.65,5.306 7.971,13.943 10.627,27.226c1.994,11.951 2.656,21.912 0.665,28.554l-1.33,2.652c-1.991,0.667 -4.646,-2.652 -8.632,-9.294c-3.32,-6.64 -6.641,-15.272 -9.297,-23.909c-1.329,-7.964 -1.993,-13.943 -1.329,-18.587c-0.001,-4.657 1.328,-7.309 3.985,-7.977Z" style="fill-rule:nonzero;"/><path d="M206.561,330.408c-4.65,-6.64 -14.611,-5.305 -29.884,5.317c-14.609,9.961 -20.586,18.594 -17.931,23.243c3.321,5.312 13.282,3.32 29.883,-5.318c15.94,-8.624 21.917,-15.933 17.932,-23.242Z" style="fill:#ffe000;fill-rule:nonzero;"/><path d="M209.881,334.396l-1.991,-5.311c-1.994,-3.982 -5.979,-4.65 -11.29,-4.65c-5.312,0.668 -11.29,3.321 -17.932,7.31c-7.302,4.643 -12.616,9.293 -17.263,14.604c-5.314,5.979 -7.305,10.623 -4.65,13.943c1.991,1.997 4.65,3.319 9.297,3.319c6.641,0 13.946,-2.651 23.242,-7.963c9.962,-4.649 15.938,-9.962 19.258,-15.279l1.329,-5.973Zm-29.218,1.33c12.616,-7.969 19.922,-8.638 23.241,-3.98c1.327,1.983 1.327,3.98 0,5.972c-1.994,4.65 -7.97,9.294 -16.601,13.949c-8.636,3.982 -15.938,6.642 -21.916,7.303l-4.647,-1.33c-0.664,-0.667 0.665,-3.988 4.647,-8.631l15.276,-13.283Z" style="fill-rule:nonzero;"/><path d="M164.061,398.813c9.297,23.242 17.928,33.203 25.898,29.883c8.632,-3.982 6.641,-17.264 -4.649,-39.844c-11.952,-23.243 -21.249,-33.204 -26.563,-30.545c-5.312,3.32 -3.321,16.602 5.314,40.506Z" style="fill:#d96038;fill-rule:nonzero;"/><path d="M164.726,357.639c-2.658,-1.99 -4.649,-1.99 -7.306,-0.667c-3.985,1.997 -3.985,9.299 -1.329,21.92c1.994,11.283 5.977,21.244 10.626,31.206c8.631,17.27 16.602,23.91 24.571,20.589c3.982,-1.329 5.312,-4.648 5.977,-9.961l0,-1.329c0,-8.632 -3.985,-20.583 -11.955,-34.526c-7.967,-13.95 -14.609,-23.244 -20.584,-27.232Zm-4.65,19.255c-1.991,-9.961 -1.991,-15.267 0,-15.934c1.329,-0.668 5.312,3.32 11.29,10.628c5.977,8.626 11.952,18.587 15.938,28.548c6.64,15.279 7.305,23.911 1.99,26.563c-5.312,1.998 -11.951,-3.981 -18.593,-19.254c-4.649,-9.962 -8.634,-19.923 -10.625,-30.551Z" style="fill-rule:nonzero;"/><path d="M124.881,360.96c-19.922,7.309 -27.892,13.949 -23.906,21.913c3.32,7.971 14.607,6.641 33.203,-1.991c19.257,-9.294 27.228,-16.602 24.568,-21.913c-2.655,-5.319 -13.943,-4.65 -33.865,1.991Z" style="fill:#d96038;fill-rule:nonzero;"/><path d="M160.74,357.639c-0.664,-1.99 -3.985,-3.319 -7.97,-3.319c-7.968,-0.669 -17.267,0.668 -29.219,4.649c-12.616,4.643 -20.586,9.3 -23.907,15.272c-1.326,1.329 -1.991,3.32 -1.991,5.973c0,1.336 0,2.659 1.326,3.988c1.995,3.988 7.306,6.642 14.611,5.312c6.641,-0.661 13.946,-2.658 22.578,-7.303l17.932,-11.29c5.976,-5.312 8.63,-9.294 6.64,-13.282Zm-8.635,0.669l4.649,1.984l-4.649,6.641c-4.646,3.988 -10.622,7.309 -17.928,10.629c-7.97,3.988 -14.611,6.641 -20.587,7.309c-5.977,0.661 -9.296,0 -10.625,-3.32c-0.666,-1.336 -0.666,-3.32 0,-4.656c3.319,-4.644 11.289,-9.294 21.915,-12.613c11.289,-3.99 20.585,-5.974 27.225,-5.974Z" style="fill-rule:nonzero;"/><path d="M130.857,333.729c-21.252,-11.945 -33.204,-13.281 -36.524,-5.972c-3.32,7.308 6.642,16.601 28.554,25.894c21.252,9.301 33.868,10.63 35.859,5.318c1.994,-5.319 -6.641,-13.943 -27.889,-25.24Z" style="fill:#ffe000;fill-rule:nonzero;"/><path d="M145.465,362.951c8.636,1.329 13.946,0.66 15.275,-2.659c1.327,-2.653 0,-5.305 -1.994,-8.626c-5.312,-6.64 -14.607,-13.281 -27.225,-20.59c-13.946,-6.641 -23.907,-9.961 -31.877,-9.293c-3.985,0.661 -6.641,2.652 -7.306,5.305l-0.661,3.32c0,4.656 4.646,10.63 12.617,15.94l18.592,9.3l22.579,7.303Zm9.961,-8.632l1.329,3.988l-9.296,0l-23.242,-6.642c-8.635,-3.988 -16.603,-7.977 -21.251,-12.619c-5.313,-3.982 -7.307,-7.302 -6.642,-10.623c0.665,-0.667 1.994,-1.997 4.65,-2.658c5.975,-0.662 15.937,2.658 28.554,9.96c12.617,6.642 20.586,12.621 25.898,18.594Z" style="fill-rule:nonzero;"/><path d="M172.028,352.99c-1.991,-2.66 -3.981,-4.645 -7.303,-5.313l-10.625,1.33c-3.986,1.991 -5.977,3.982 -7.307,6.641c-1.991,3.32 -1.991,5.979 -0.664,9.3c0.664,2.651 3.32,4.643 7.305,5.305l9.962,-1.323c3.32,-1.33 6.641,-3.981 7.97,-7.303c1.991,-2.658 1.991,-5.979 0.662,-8.637Z" style="fill:#ffe000;fill-rule:nonzero;"/><path d="M165.388,345.687l-11.953,1.324c-5.311,1.997 -7.97,5.317 -9.961,9.961c-0.665,3.32 -0.665,6.64 0,8.638c1.991,3.32 3.985,5.312 7.306,6.641l13.281,-1.329c5.312,-1.991 8.632,-5.312 9.962,-9.961c1.325,-2.652 1.325,-5.973 -0.665,-8.632c-1.33,-3.983 -3.986,-5.318 -7.97,-6.642Zm-17.264,12.621c1.326,-3.32 3.319,-5.979 7.302,-7.309l8.635,-0.669c2.656,0 4.646,1.336 5.977,3.989l0,5.972c-1.33,3.319 -3.985,5.317 -7.307,6.641l-9.96,0.667c-2.656,0 -3.32,-1.99 -4.646,-3.319c-1.331,-1.991 -1.331,-3.988 -0.001,-5.972Z" style="fill-rule:nonzero;"/></g></g><rect id="PATH77" x="2.92" y="2.74" width="366.67" height="582.52" style="fill:none;stroke:#000;stroke-width:3px;"/></svg>