<?xml version="1.0" encoding="UTF-8" standalone="no"?><!DOCTYPE svg PUBLIC "-//W3C//DTD SVG 1.1//EN" "http://www.w3.org/Graphics/SVG/1.1/DTD/svg11.dtd"><svg width="100%" height="100%" viewBox="0 0 372 587" version="1.1" xmlns="http://www.w3.org/2000/svg" xmlns:xlink="http://www.w3.org/1999/xlink" xml:space="preserve" xmlns:serif="http://www.serif.com/" style="fill-rule:evenodd;clip-rule:evenodd;stroke-miterlimit:100;"><g><clipPath id="_clip1"><rect x="2.601" y="22.614" width="363.013" height="544.316"/></clipPath><g clip-path="url(#_clip1)"><path d="M329.471,45.706c0,-3.299 -1.32,-4.62 -4.62,-4.62c-3.299,0 -4.619,1.32 -4.619,4.62c0,3.299 1.32,5.277 4.619,5.277c3.299,0 4.62,-1.979 4.62,-5.277Z" style="fill:#333;fill-rule:nonzero;"/><path d="M299.12,33.167c0,-3.299 -1.321,-5.277 -4.62,-5.277c-3.299,0 -5.275,1.978 -5.275,5.277c0,2.642 1.978,4.62 5.275,4.62c3.297,0 4.62,-1.978 4.62,-4.62Z" style="fill:#333;fill-rule:nonzero;"/><path d="M311.655,62.2l-1.321,-3.299l-3.299,-1.984c-3.299,0 -5.276,1.984 -5.276,5.283c0,3.299 1.979,4.613 5.276,4.613l3.299,-1.314l1.321,-3.299Z" style="fill:#333;fill-rule:nonzero;"/><path d="M341.345,75.396c0,-3.299 -1.32,-4.62 -3.959,-4.62c-3.299,0 -5.275,1.321 -5.275,4.62c0,3.299 1.978,5.277 5.275,5.277c2.637,-0.001 3.959,-1.979 3.959,-5.277Z" style="fill:#333;fill-rule:nonzero;"/><path d="M338.707,30.525c0,-2.635 -1.321,-4.613 -3.96,-4.613c-3.299,0 -5.276,1.978 -5.276,4.613c0,3.299 1.979,5.283 5.276,5.283c2.639,0.001 3.96,-1.983 3.96,-5.283Z" style="fill:#333;fill-rule:nonzero;"/><path d="M334.087,99.145c0,-2.642 -1.978,-3.956 -5.277,-3.956c-3.299,0 -4.618,1.314 -4.618,3.956l1.319,3.956c1.317,0.664 1.979,1.328 3.299,1.328l3.301,-1.328l1.976,-3.956Z" style="fill:#333;fill-rule:nonzero;"/><path d="M345.965,131.477l-1.321,-3.299l-3.299,-1.985c-3.299,0 -4.62,1.985 -4.62,5.284c0,3.299 1.321,4.613 4.62,4.613l3.299,-1.314l1.321,-3.299Z" style="fill:#333;fill-rule:nonzero;"/><path d="M309.017,91.233c0,-2.642 -1.32,-4.626 -4.619,-4.626c-3.3,0 -5.276,1.984 -5.276,4.626l1.978,3.956l3.3,0.657l3.299,-0.657l1.318,-3.956Z" style="fill:#333;fill-rule:nonzero;"/><path d="M285.925,49.004c0,-3.299 -1.321,-4.62 -4.62,-4.62c-3.299,0 -5.277,1.321 -5.277,4.62c0,3.299 1.979,5.277 5.277,5.277c3.299,0 4.62,-1.978 4.62,-5.277Z" style="fill:#333;fill-rule:nonzero;"/><path d="M350.581,105.085c0,-3.299 -1.979,-4.62 -4.616,-4.62c-1.321,0 -1.98,0.664 -3.299,1.321l-1.321,3.299c0,3.299 1.321,5.277 4.62,5.277c2.639,0.001 4.616,-1.978 4.616,-5.277Z" style="fill:#333;fill-rule:nonzero;"/><path d="M351.242,54.281c0,-3.962 -1.321,-5.277 -3.96,-5.277c-1.979,0 -2.64,0.657 -3.299,1.314c-1.317,1.327 -1.979,1.984 -1.979,3.962l1.979,3.299l3.299,1.321c2.639,0.001 3.96,-1.32 3.96,-4.619Z" style="fill:#333;fill-rule:nonzero;"/><path d="M225.225,541.854l-1.317,-3.301c-1.321,-0.656 -1.981,-1.313 -3.96,-1.313c-0.66,0 -1.981,0.656 -3.299,1.313c-0.66,1.327 -1.321,1.985 -1.321,3.301l1.321,3.962l3.299,1.32l3.96,-1.32l1.317,-3.962Z" style="fill:#333;fill-rule:nonzero;"/><path d="M211.367,553.734c0,-3.3 -1.979,-4.62 -4.616,-4.62c-3.299,0 -4.62,1.32 -4.62,4.62l1.321,3.299c1.317,1.313 1.978,1.313 3.299,1.313c2.64,0.002 4.616,-1.313 4.616,-4.612Z" style="fill:#333;fill-rule:nonzero;"/><path d="M262.172,550.436c0,-2.643 -1.979,-3.956 -5.277,-3.956c-2.642,0 -4.619,1.313 -4.619,3.956c0,3.3 1.979,5.276 4.619,5.276c3.298,0 5.277,-1.978 5.277,-5.276Z" style="fill:#333;fill-rule:nonzero;"/><path d="M237.758,561.646l-1.316,-3.299c-0.66,-1.313 -1.981,-1.972 -3.959,-1.972c-0.66,0 -1.979,0.657 -3.299,1.972c-0.66,1.327 -1.322,1.984 -1.322,3.299l1.322,3.3c1.32,1.327 2.639,1.327 3.299,1.327l3.959,-1.327l1.316,-3.3Z" style="fill:#333;fill-rule:nonzero;"/><path d="M246.338,539.218c0,-2.636 -1.32,-4.62 -4.62,-4.62c-3.299,0 -5.276,1.984 -5.276,4.62c0,3.299 1.979,4.62 5.276,4.62l3.3,-0.658l1.32,-3.962Z" style="fill:#333;fill-rule:nonzero;"/><path d="M292.521,555.712l-0.66,-3.299c-1.32,-0.663 -2.639,-1.979 -3.959,-1.979c-1.317,0 -2.639,1.314 -3.299,1.979l-1.979,3.299l1.979,3.963c0.66,0.657 1.98,0.657 3.299,0.657l3.959,-0.657l0.66,-3.963Z" style="fill:#333;fill-rule:nonzero;"/><path d="M276.027,562.974l-0.66,-3.299l-3.959,-1.984c-2.639,0 -4.616,1.984 -4.616,5.283c0,2.636 1.978,3.956 4.616,3.956c3.299,0 4.619,-1.322 4.619,-3.956Z" style="fill:#333;fill-rule:nonzero;"/><path d="M347.942,543.838l-1.32,-3.299l-3.299,-1.985c-1.979,0 -2.64,1.327 -3.3,1.985c-1.316,1.313 -1.979,1.978 -1.979,3.299l1.979,3.299l3.3,1.314l3.299,-1.314l1.32,-3.299Z" style="fill:#333;fill-rule:nonzero;"/><path d="M314.293,562.974c0,-3.299 -1.978,-5.283 -5.276,-5.283c-3.298,0 -4.619,1.984 -4.619,5.283c0,2.636 1.32,3.956 4.619,3.956c3.299,0 5.276,-1.322 5.276,-3.956Z" style="fill:#333;fill-rule:nonzero;"/><path d="M343.323,561.646l-1.317,-3.299l-3.96,-1.972c-0.66,0 -1.978,0.657 -3.299,1.972c-0.66,1.327 -1.321,1.984 -1.321,3.299c0,3.3 1.321,4.627 4.62,4.627c3.299,0 5.277,-1.328 5.277,-4.627Z" style="fill:#333;fill-rule:nonzero;"/><path d="M314.293,128.178c0,-3.299 -1.978,-4.62 -4.615,-4.62c-3.3,0 -4.62,1.321 -4.62,4.62c0,3.299 1.32,5.277 4.62,5.277c2.637,0 4.615,-1.978 4.615,-5.277Z" style="fill:#333;fill-rule:nonzero;"/><path d="M334.747,148.628l-0.66,-3.299l-3.96,-1.314c-1.317,0 -1.978,0.657 -3.299,1.314l-1.979,3.299l1.979,3.956c1.321,0.664 1.98,1.328 3.299,1.328l3.96,-1.328l0.66,-3.956Z" style="fill:#333;fill-rule:nonzero;"/><path d="M270.747,33.825c0,-3.299 -1.978,-4.614 -5.276,-4.614c-3.298,0 -4.619,1.314 -4.619,4.614c0,2.641 1.32,4.625 4.619,4.625c3.299,0 5.276,-1.984 5.276,-4.625Z" style="fill:#333;fill-rule:nonzero;"/><path d="M226.544,44.385c0,-3.299 -1.319,-4.62 -4.619,-4.62c-3.3,0 -5.276,1.321 -5.276,4.62c0,3.299 1.978,4.62 5.276,4.62c3.3,-0.001 4.619,-1.321 4.619,-4.62Z" style="fill:#333;fill-rule:nonzero;"/><path d="M244.355,27.89c0,-3.299 -1.979,-4.62 -4.615,-4.62c-3.299,0 -4.62,1.321 -4.62,4.62c0,3.299 1.321,5.277 4.62,5.277c2.638,0 4.615,-1.978 4.615,-5.277Z" style="fill:#333;fill-rule:nonzero;"/><path d="M211.367,32.51c0,-3.299 -1.979,-4.62 -4.616,-4.62c-1.321,0 -1.981,0.664 -3.299,1.321l-1.321,3.299c0,3.299 1.321,4.614 4.62,4.614c2.64,0 4.616,-1.315 4.616,-4.614Z" style="fill:#333;fill-rule:nonzero;"/><path d="M254.913,42.406c0,-3.299 -1.978,-5.283 -4.616,-5.283c-1.32,0 -1.98,0.664 -3.299,1.984l-1.321,3.299l1.321,3.299c1.316,1.314 1.979,1.314 3.299,1.314c2.639,0.001 4.616,-1.313 4.616,-4.613Z" style="fill:#333;fill-rule:nonzero;"/><path d="M297.799,111.683c0,-3.299 -1.979,-4.62 -5.275,-4.62c-0.662,0 -1.981,0.664 -3.299,1.321c-0.662,1.314 -1.322,1.979 -1.322,3.299l1.322,3.956l3.299,1.321c3.296,0 5.275,-1.978 5.275,-5.277Z" style="fill:#333;fill-rule:nonzero;"/><path d="M189.596,27.89l-1.32,-3.299l-3.298,-1.321c-3.298,0 -5.277,1.321 -5.277,4.62c0,3.299 1.979,5.277 5.277,5.277l3.298,-1.314l1.32,-3.963Z" style="fill:#333;fill-rule:nonzero;"/><path d="M174.423,44.385l-1.321,-3.299c-0.661,-0.664 -2.638,-1.321 -3.299,-1.321c-3.299,0 -4.62,1.321 -4.62,4.62c0,3.299 1.321,4.62 4.62,4.62c3.299,0 4.62,-1.321 4.62,-4.62Z" style="fill:#333;fill-rule:nonzero;"/><path d="M38.507,27.227c0,-2.635 -1.32,-4.613 -4.62,-4.613c-3.299,0 -4.616,1.978 -4.616,4.613l1.317,3.962c1.321,1.321 2.639,1.321 3.299,1.321c3.3,0 4.62,-1.985 4.62,-5.283Z" style="fill:#333;fill-rule:nonzero;"/><path d="M64.898,27.89c0,-3.299 -1.981,-4.62 -4.619,-4.62c-1.979,0 -2.639,0.658 -3.299,1.321c-1.317,1.321 -1.978,1.978 -1.978,3.299l1.978,3.962l3.299,1.314c2.638,0.001 4.619,-1.977 4.619,-5.276Z" style="fill:#333;fill-rule:nonzero;"/><path d="M53.021,42.406l-1.317,-3.299l-3.299,-1.984c-3.299,0 -4.62,1.984 -4.62,5.283c0,3.299 1.321,4.614 4.62,4.614l3.299,-1.314l1.317,-3.3Z" style="fill:#333;fill-rule:nonzero;"/><path d="M39.825,59.558c0,-3.299 -1.318,-4.613 -4.617,-4.613c-3.299,0 -4.62,1.314 -4.62,4.613c0,3.299 1.321,4.62 4.62,4.62c3.299,0 4.617,-1.321 4.617,-4.62Z" style="fill:#333;fill-rule:nonzero;"/><path d="M94.589,29.211l-1.321,-3.299l-3.299,-1.984c-3.299,0 -4.617,1.984 -4.617,5.283c0,3.299 1.318,4.614 4.617,4.614l3.299,-1.315l1.321,-3.299Z" style="fill:#333;fill-rule:nonzero;"/><path d="M38.507,225.823c0,-3.299 -1.32,-5.276 -4.62,-5.276c-3.299,0 -4.616,1.978 -4.616,5.276c0,3.298 1.317,4.62 4.616,4.62c3.3,0 4.62,-1.321 4.62,-4.62Z" style="fill:#333;fill-rule:nonzero;"/><path d="M47.083,247.595c0,-3.299 -1.978,-4.613 -5.277,-4.613c-3.299,0 -4.619,1.314 -4.619,4.613c0,3.299 1.32,4.62 4.619,4.62c3.299,-0.001 5.277,-1.321 5.277,-4.62Z" style="fill:#333;fill-rule:nonzero;"/><path d="M41.146,370.975c0,-3.3 -1.321,-4.619 -4.62,-4.619c-1.318,0 -2.639,0.656 -3.299,1.319l-1.318,3.3c0,3.299 1.318,4.619 4.617,4.619c3.299,0 4.62,-1.321 4.62,-4.619Z" style="fill:#333;fill-rule:nonzero;"/><path d="M60.279,394.729c0,-3.299 -1.318,-4.625 -4.617,-4.625c-2.642,0 -4.62,1.326 -4.62,4.625c0,2.637 1.978,4.614 4.62,4.614c3.299,0.001 4.617,-1.978 4.617,-4.614Z" style="fill:#333;fill-rule:nonzero;"/><path d="M41.146,419.139c0,-2.644 -1.321,-4.615 -4.62,-4.615c-3.299,0 -4.617,1.973 -4.617,4.615c0,3.298 1.318,4.618 4.617,4.618c3.299,0 4.62,-1.32 4.62,-4.618Z" style="fill:#333;fill-rule:nonzero;"/><path d="M37.187,399.344c0,-2.642 -1.979,-4.613 -4.617,-4.613c-3.299,0 -5.28,1.973 -5.28,4.613c0,3.299 1.981,4.619 5.28,4.619l3.299,-0.663l1.318,-3.956Z" style="fill:#333;fill-rule:nonzero;"/><path d="M35.208,449.484l-1.321,-3.3c-0.66,-1.313 -1.978,-1.973 -3.299,-1.973c-3.299,0 -4.616,1.973 -4.616,5.271c0,3.298 1.317,4.626 4.616,4.626l3.299,-0.664l1.321,-3.96Z" style="fill:#333;fill-rule:nonzero;"/><path d="M36.526,339.307c0,-2.642 -1.318,-4.619 -4.617,-4.619c-3.299,0 -4.62,1.979 -4.62,4.619c0,3.299 1.321,5.276 4.62,5.276l3.299,-1.319l1.318,-3.957Z" style="fill:#333;fill-rule:nonzero;"/><path d="M56.32,431.018c0,-3.299 -1.318,-4.626 -4.617,-4.626c-1.321,0 -1.981,0.664 -3.299,1.327l-1.321,3.299l1.321,3.3c1.317,1.314 1.978,1.972 3.299,1.972c3.299,-0.002 4.617,-1.974 4.617,-5.272Z" style="fill:#333;fill-rule:nonzero;"/><path d="M43.124,515.462l-1.318,-3.299l-3.959,-1.972c-1.321,0 -2.639,0.656 -3.299,1.972l-1.321,3.299c0,3.299 1.321,4.626 4.62,4.626c3.299,0 5.277,-1.327 5.277,-4.626Z" style="fill:#333;fill-rule:nonzero;"/><path d="M53.681,537.24c0,-3.299 -1.317,-4.62 -4.617,-4.62c-2.642,0 -4.619,1.321 -4.619,4.62c0,3.299 1.978,4.612 4.619,4.612c3.3,0.002 4.617,-1.313 4.617,-4.612Z" style="fill:#333;fill-rule:nonzero;"/><path d="M40.486,553.734l-1.979,-3.3c-0.66,-0.656 -1.981,-1.983 -3.299,-1.983c-1.321,0 -1.981,1.327 -3.299,1.983l-1.321,3.3l1.321,3.299c1.318,1.313 1.978,1.313 3.299,1.313l3.299,-1.313l1.979,-3.299Z" style="fill:#333;fill-rule:nonzero;"/><path d="M56.98,561.646l-1.978,-3.299l-3.299,-1.313c-1.321,0 -1.981,0.655 -3.299,1.313l-1.321,3.299l1.321,3.963c1.317,0.664 1.978,1.32 3.299,1.32l3.299,-1.32l1.978,-3.963Z" style="fill:#333;fill-rule:nonzero;"/><path d="M68.197,158.525l28.37,4.62c-19.793,-19.793 -33.649,-31.011 -41.565,-32.325l-26.391,-7.261c-11.878,-4.62 -21.114,-9.233 -25.73,-14.517l9.236,17.815c8.576,12.532 18.473,21.114 28.37,25.07c9.235,4.619 18.474,6.598 27.71,6.598Z" style="fill:#858585;fill-rule:nonzero;"/><path d="M55.002,128.178c-24.413,-5.284 -40.907,-12.539 -50.804,-21.114c-0.661,0 -1.978,0 -3.299,0c-0.661,1.321 -1.318,1.978 -0.661,3.299l10.558,18.472c8.579,12.538 17.815,21.114 29.029,25.734c8.579,3.956 19.136,6.598 31.671,7.255l24.41,3.299c1.321,0.657 1.981,0 3.299,-0.657c0.661,-1.321 0.661,-2.642 -1.317,-3.299c-3.299,-4.62 -9.236,-9.896 -17.815,-16.494c-11.215,-9.898 -19.794,-15.181 -25.071,-16.495Zm-45.524,-10.554c11.214,7.255 27.048,12.532 44.864,15.831c5.938,1.321 17.155,9.896 33.649,24.413l-16.494,-1.321c-11.217,-1.32 -21.114,-3.299 -29.69,-6.598c-12.536,-5.277 -23.093,-15.831 -32.329,-32.325Z" style="fill-rule:nonzero;"/><path d="M105.803,90.569c13.195,-17.816 31.01,-39.587 54.103,-64.657l-23.752,11.211c-10.558,5.283 -18.473,11.224 -23.092,17.158c-3.959,7.261 -6.598,15.173 -7.258,24.413c-0.658,4.614 -0.001,8.577 -0.001,11.875Z" style="fill:#858585;fill-rule:nonzero;"/><path d="M162.544,23.928l-3.959,-0.658l-13.853,7.255c-8.579,3.299 -14.517,6.598 -18.476,8.582c-6.598,4.614 -11.875,9.24 -15.174,13.853c-4.62,7.255 -7.258,15.837 -7.918,25.077c-0.661,4.613 0,9.233 0,12.532l1.981,1.978c1.317,0.657 1.978,0 2.638,-0.657c12.535,-17.151 31.008,-38.929 54.76,-64.663l0.001,-3.299Zm-15.834,11.881l2.639,-1.984c-17.155,19.136 -31.008,35.63 -41.565,48.826c0,-9.897 3.299,-18.472 7.916,-26.391c4.619,-7.256 15.176,-13.854 31.01,-20.451Z" style="fill-rule:nonzero;"/><path d="M105.803,157.21c0,5.934 1.32,10.554 3.959,13.196c3.299,-22.435 8.579,-37.615 15.177,-45.527c6.598,-7.255 17.812,-16.495 32.328,-27.712l-3.299,-15.174c-6.598,3.299 -13.196,8.576 -19.793,15.174c-14.516,14.516 -24.413,31.668 -28.372,51.461l0,8.582Z" style="fill:#858585;fill-rule:nonzero;"/><path d="M155.287,80.008c-1.318,-0.657 -1.979,-0.657 -2.639,0c-6.598,3.963 -13.856,8.583 -21.771,15.837c-14.516,14.517 -23.753,31.675 -27.712,52.125l0,9.896c0,6.598 1.321,11.211 4.62,13.853l1.979,1.321l2.638,-1.978c3.299,-22.436 8.579,-36.945 14.516,-44.207c5.938,-7.919 16.495,-16.494 31.668,-27.712l1.32,-2.642l-3.299,-14.51l-1.32,-1.983Zm-3.3,5.941l1.981,9.896c-14.516,11.218 -24.413,19.793 -31.011,27.712c-5.277,6.598 -10.557,19.129 -14.513,37.608l-0.661,-7.919l0,-3.962c3.959,-17.151 11.214,-31.004 21.771,-44.2c6.6,-7.917 13.858,-13.851 22.433,-19.135Z" style="fill-rule:nonzero;"/><path d="M89.969,233.084c9.896,0.658 19.133,3.957 27.711,9.233c-12.535,-23.092 -22.432,-36.288 -29.69,-38.266l-21.114,-3.956c-9.897,-2.642 -18.473,-5.94 -23.092,-10.561l3.299,15.831c4.62,11.881 11.217,18.479 19.133,22.435l23.753,5.284Z" style="fill:#858585;fill-rule:nonzero;"/><path d="M88.651,201.411l-11.218,-1.979c-15.834,-2.635 -26.391,-6.598 -32.328,-11.875l-3.299,-0.657l-1.32,2.635c0,4.62 1.32,9.896 4.62,17.815c4.616,11.875 11.214,19.793 19.793,23.092l21.772,5.277c10.557,0.663 20.453,3.299 29.69,8.576l3.299,-0.657l0,-3.299c-12.536,-23.091 -23.093,-36.287 -31.009,-38.928Zm-11.878,2.641l10.557,2.642c5.277,1.314 12.536,11.211 23.753,29.026c-7.258,-3.299 -15.177,-4.62 -24.413,-5.277l-19.793,-4.62c-9.897,-4.62 -16.495,-14.516 -19.793,-31.011c6.597,4.62 16.494,7.919 29.689,9.24Z" style="fill-rule:nonzero;"/><path d="M61.6,114.982l7.916,13.196c1.981,7.912 5.28,13.853 9.896,17.151c1.981,1.985 5.28,3.299 9.24,4.62c3.956,1.979 5.938,5.277 7.255,9.897l1.981,19.793c0.66,11.218 1.978,22.429 4.616,32.989c1.981,11.218 8.579,23.755 19.793,36.288l15.177,16.495l5.938,-14.516l-13.196,-13.853c-9.236,-10.554 -13.855,-21.114 -15.834,-29.69c-4.619,-31.011 -6.598,-49.483 -6.598,-55.424c0,-1.979 0.661,-3.956 1.979,-7.912l2.638,-9.24c0.661,-14.516 0.661,-27.712 0,-38.93l-21.111,-1.978c-15.177,0 -27.051,4.62 -34.97,13.859l5.28,7.255Z" style="fill:#858585;fill-rule:nonzero;"/><path d="M53.681,109.042c7.258,7.919 11.217,14.517 13.196,19.136c2.638,9.239 5.937,15.837 11.217,19.793l6.598,3.299c1.979,0.657 3.959,1.978 5.277,3.299c1.32,0.657 2.638,3.299 3.299,5.277l1.321,14.517c1.317,13.853 2.638,26.391 5.277,38.266c1.981,11.875 8.579,24.413 19.793,37.609l16.495,17.151l1.981,0.657l1.318,-1.315l5.937,-14.516l-0.657,-3.299l-12.538,-13.195c-9.236,-11.217 -13.853,-20.457 -15.174,-29.026c-3.959,-29.033 -6.598,-48.169 -6.598,-54.767l1.979,-6.598c1.32,-3.956 1.981,-7.255 1.981,-10.554l0.661,-9.239l0,-29.69l-1.981,-1.978l-22.432,-2.635c-15.834,0.657 -27.712,5.27 -36.948,14.51c-0.662,1.319 -0.662,2.64 -0.002,3.298Zm32.989,37.608l-5.277,-3.299c-4.62,-2.635 -7.258,-8.576 -9.896,-16.494c-1.321,-4.62 -4.62,-10.561 -11.878,-18.473c11.878,-11.217 28.372,-14.516 50.144,-9.896l0,36.288l-2.639,8.576c-1.32,3.963 -1.978,6.598 -1.978,8.576c0,7.255 2.638,25.734 7.255,55.424c1.981,13.853 11.217,29.032 27.052,44.863l-3.299,8.576c-5.938,-5.277 -11.875,-11.875 -16.495,-18.473c-8.576,-11.217 -13.196,-21.114 -15.174,-30.354c-1.981,-11.211 -3.299,-24.407 -4.62,-37.602l-1.978,-15.18c-1.32,-5.934 -4.619,-10.554 -11.217,-12.532Z" style="fill-rule:nonzero;"/><path d="M55.002,88.591l49.483,-17.151l-9.236,-12.539c-8.579,-7.918 -17.155,-9.24 -27.052,-4.62c-9.236,4.62 -14.516,11.217 -14.516,21.114c-0.66,5.277 0,9.897 1.321,13.196Z" style="fill:#d96038;fill-rule:nonzero;"/><path d="M107.124,70.112c-3.299,-7.255 -7.918,-12.532 -13.855,-16.494c-8.576,-5.271 -16.495,-5.934 -25.73,-1.314c-10.559,4.613 -15.836,11.874 -16.496,23.092c-0.661,5.277 0.66,9.896 1.978,14.51c0.661,1.984 1.981,1.984 3.299,1.984l49.483,-17.815l1.981,-1.978l-0.66,-1.985Zm-17.155,-11.868c4.62,2.636 7.918,7.255 11.217,11.868l-44.206,15.18l-0.66,-7.918c0,-9.233 3.959,-16.494 13.856,-20.457c6.597,-3.299 13.855,-2.636 19.793,1.327Z" style="fill-rule:nonzero;"/><path d="M110.422,76.053l-3.959,-13.853c-1.978,-2.642 -5.277,-3.299 -9.896,-1.32l-11.875,4.619c-3.299,1.979 -4.62,5.277 -5.28,9.897l-0.657,8.576l-3.959,9.896c-2.639,6.598 -1.981,11.875 1.317,14.516c5.28,3.299 9.897,5.277 15.177,6.598c5.938,0.657 9.897,0 13.196,-3.299c5.277,-4.62 8.576,-11.217 8.576,-19.793l-2.64,-15.837Z" style="fill:#d96038;fill-rule:nonzero;"/><path d="M86.67,62.2l-3.299,1.315c-5.277,1.984 -7.258,7.261 -7.258,17.158l0,1.978c-3.299,6.598 -5.937,12.539 -5.937,18.479c0,3.956 1.321,7.255 4.62,9.233c5.277,3.299 11.214,5.934 16.494,6.598c6.598,1.32 11.875,0.664 15.174,-3.299c5.938,-5.277 9.236,-13.196 9.236,-21.772l-2.638,-16.494c-1.979,-6.598 -3.299,-11.217 -4.617,-14.516c-1.981,-3.299 -4.62,-4.62 -8.579,-3.299c-3.299,-0.001 -7.259,1.32 -13.196,4.619Zm16.495,0.657l4.62,13.853l1.979,15.18l-0.661,9.897c-1.318,2.642 -3.299,5.277 -5.938,8.576c-2.639,1.978 -6.598,2.635 -11.875,1.32c-4.619,-0.657 -8.579,-3.299 -13.195,-5.94c-1.981,-1.314 -2.638,-4.613 -1.321,-9.897l4.62,-10.554l0,-1.984l0.661,-8.569c0.657,-3.962 1.317,-5.941 3.299,-5.941l3.956,-1.984c8.578,-3.957 13.855,-5.272 13.855,-3.957Z" style="fill-rule:nonzero;"/><path d="M58.961,111.683c1.978,1.979 7.916,3.299 17.151,5.941c3.959,0.657 7.918,-2.642 10.558,-11.881c3.299,-8.576 3.959,-15.173 3.299,-20.451c-0.661,-4.62 -4.617,-7.918 -10.558,-9.239l-14.513,-1.978c-8.579,0 -13.195,6.598 -11.878,20.457c0.661,8.569 2.643,13.852 5.941,17.151Z" style="fill:#d96038;fill-rule:nonzero;"/><path d="M64.898,71.439c-4.619,0 -7.918,1.314 -9.896,3.956c-3.959,3.956 -5.28,9.896 -4.62,19.136c0.661,9.233 2.638,15.831 6.598,18.466c1.981,1.984 7.258,3.963 15.834,5.94l2.642,1.321c2.638,0.664 5.276,0 7.915,-1.979c2.639,-3.299 5.28,-8.582 7.258,-16.494c1.978,-6.598 2.639,-12.539 1.978,-17.152c-1.318,-5.94 -5.277,-9.239 -13.196,-11.881l-14.513,-1.313Zm-6.597,7.255c1.979,-1.321 3.959,-1.985 6.598,-1.985l13.856,1.985c5.276,1.978 7.916,3.299 7.916,6.598c0.66,3.956 0,9.24 -0.661,15.174c-1.979,6.598 -4.617,11.217 -6.598,13.196l-2.638,1.32l-3.299,-1.32c-6.598,-1.321 -11.875,-3.299 -13.195,-5.277c-1.979,-1.984 -3.959,-6.598 -4.617,-14.516c-0.661,-7.263 0.657,-11.876 2.638,-15.175Z" style="fill-rule:nonzero;"/><path d="M70.176,278.605c-9.896,-5.277 -18.473,-6.598 -26.391,-6.598c-13.196,0.664 -27.709,3.299 -42.886,6.598l19.133,19.129c12.539,13.858 21.774,24.421 25.734,32.988c5.938,11.883 15.174,20.457 26.391,26.393c14.514,7.261 30.347,7.261 48.823,1.328c17.155,-4.627 25.07,-19.795 23.092,-43.551l-7.918,-33.651c-5.938,-3.956 -13.196,-7.255 -22.433,-10.554c-17.154,-7.255 -32.328,-9.896 -45.524,-8.576l3.959,11.217c2.639,4.613 4.617,8.576 5.938,10.554l-7.918,-5.277Z" style="fill:#858585;fill-rule:nonzero;"/><path d="M65.559,260.791l-0.661,1.321l0,1.32l4.617,11.211c-9.236,-4.613 -17.812,-6.598 -25.73,-5.934c-13.856,0.664 -27.709,3.299 -43.546,7.261l-2.638,2.635l1.321,3.299l18.473,17.815c13.195,13.195 21.114,24.406 25.73,32.332c5.94,11.868 13.856,19.795 23.753,25.727c15.834,9.896 34.31,11.219 55.42,3.965c9.897,-2.643 17.155,-9.24 21.114,-17.822c4.62,-9.896 5.938,-23.749 2.639,-40.9l-6.598,-23.093l-1.318,-1.321c-7.258,-4.619 -15.177,-7.918 -23.753,-11.875c-17.815,-6.598 -32.989,-9.239 -46.185,-7.918l-2.638,1.977Zm-58.062,19.793c13.196,-2.642 25.074,-4.614 36.288,-5.277c7.918,0 15.834,1.321 24.413,6.598c4.617,1.979 7.916,4.619 11.214,6.598l0.661,0.664c1.321,0.656 2.639,0 3.299,-1.327l1.321,-1.315l-1.321,-3.299l-1.317,-0.657c-2.642,-2.642 -5.941,-7.925 -9.24,-17.158c10.557,0 23.753,1.978 38.269,7.918c8.576,3.299 16.495,6.598 22.432,9.896c5.277,13.196 7.258,25.735 7.258,38.267c0,7.918 -1.32,14.517 -3.299,19.793c-3.299,6.598 -9.236,11.875 -17.815,14.517c-18.473,5.941 -34.967,5.276 -49.483,-3.299c-8.576,-5.283 -16.495,-13.194 -21.771,-23.749c-5.939,-11.227 -19.795,-27.72 -40.909,-48.17Z" style="fill-rule:nonzero;"/><path d="M20.032,285.867c-1.318,0 -1.978,0.656 -1.978,1.314c0,1.984 0.66,2.641 1.978,2.641l18.476,3.957c14.513,4.62 25.071,10.554 31.668,19.136c7.918,9.239 21.774,15.838 41.568,19.794l28.369,3.299l2.639,-1.984l-2.639,-1.972l-27.051,-3.299c-19.133,-3.299 -32.329,-9.896 -39.587,-17.821c-7.258,-9.233 -18.473,-16.494 -32.989,-21.108l-20.454,-3.957Z" style="fill-rule:nonzero;"/><path d="M66.877,324.126c-1.318,-1.313 -1.979,-1.313 -3.299,0c-0.661,1.328 0,1.983 0.66,3.299l18.473,11.882c15.177,7.912 29.033,10.555 42.885,9.239l1.981,-1.327l-1.981,-2.636c-13.195,1.321 -27.048,-1.978 -40.904,-9.231l-17.815,-11.226Z" style="fill-rule:nonzero;"/><path d="M93.928,277.942l-2.639,0.664l0,2.636l15.174,15.18c11.878,12.539 19.793,25.07 25.731,38.266c0,1.321 0.66,1.321 1.981,0.664c1.979,-0.664 1.979,-1.328 1.318,-2.642c-5.938,-13.196 -13.853,-25.733 -25.73,-38.272l-15.835,-16.496Z" style="fill-rule:nonzero;"/><path d="M89.969,299.721l-2.639,-0.658c-0.66,1.314 -0.66,2.636 -0.66,3.301l6.598,8.568c5.28,7.26 9.236,13.858 11.878,19.793c0.657,0.664 1.317,0.664 2.638,0.664c1.318,0 1.318,-1.32 1.318,-2.636l-12.535,-19.793l-6.598,-9.239Z" style="fill-rule:nonzero;"/><path d="M343.323,168.421c-9.897,-1.978 -21.771,-1.978 -36.288,-0.657c-29.029,1.978 -55.422,9.897 -79.174,23.092l-10.553,43.543c-5.941,32.331 -5.281,54.103 1.315,67.298c7.259,12.531 19.794,12.531 38.927,-1.32c9.896,-6.598 18.477,-14.51 27.053,-23.75l17.154,-14.516c13.195,-9.233 23.752,-15.173 32.328,-17.158c-7.259,-8.57 -14.513,-12.532 -21.771,-12.532l13.855,-21.114c9.239,-15.837 15.176,-30.347 17.154,-42.886Z" style="fill:#858585;fill-rule:nonzero;"/><path d="M346.622,168.421c0,-1.978 -1.317,-3.299 -2.639,-3.299l-38.927,-0.657c-28.369,1.978 -54.761,9.897 -79.174,23.092l-0.66,1.978l-11.875,46.185c-5.279,31.668 -4.619,54.102 2.639,67.297c3.3,5.941 7.92,9.896 13.855,10.556c9.896,1.319 21.771,-3.957 36.288,-15.175l20.454,-19.793l17.813,-13.195c12.534,-9.897 22.432,-15.173 30.351,-17.158l1.978,-2.635l0.661,-0.664l-0.661,-1.972c-5.937,-6.598 -11.874,-10.561 -18.472,-12.538c16.494,-22.435 25.73,-42.886 28.369,-61.365l0,-0.657Zm-36.944,65.321l2.639,1.978c5.275,0 9.896,1.978 15.834,7.919c-8.575,3.299 -18.473,8.575 -29.69,17.809l-16.494,12.539l-23.094,21.113c-11.219,9.233 -20.454,13.195 -27.713,11.875c-4.616,-0.656 -7.254,-2.642 -9.235,-7.254c-3.3,-5.941 -5.276,-14.518 -5.276,-27.049c0,-13.859 1.978,-30.354 5.938,-48.826c3.299,-13.196 5.938,-23.75 8.575,-31.011c19.794,-10.56 41.567,-17.815 66.639,-21.114c14.518,-1.314 28.373,-1.978 40.908,-0.657c-3.299,19.136 -13.196,38.929 -28.373,59.38l-1.317,1.978l0.659,1.32Z" style="fill-rule:nonzero;"/><path d="M321.552,181.617c0,-0.657 -0.66,-0.657 -2.639,-0.657c-9.235,5.277 -20.454,11.875 -31.672,21.107c-23.093,18.479 -40.903,38.272 -51.462,60.708c-0.659,1.314 0,2.635 0.662,2.635c1.978,1.32 2.638,0.664 2.638,-1.321c10.558,-21.771 27.713,-41.565 50.146,-59.38c11.873,-8.576 22.432,-15.174 32.327,-20.451c0.66,0.001 1.321,-1.32 0,-2.641Z" style="fill-rule:nonzero;"/><path d="M282.626,180.96c-0.661,0 -1.321,0 -1.981,0.657l-5.276,12.539c-3.3,8.575 -5.276,16.494 -5.938,23.092c0,1.978 1.317,1.978 2.639,1.978l1.979,-1.321c0,-6.598 1.321,-13.853 4.62,-23.092l5.276,-11.211c0.659,-0.664 -0.004,-1.985 -1.319,-2.642Z" style="fill-rule:nonzero;"/><path d="M315.614,207.351c-0.66,-1.321 -1.321,-1.984 -2.639,-1.321l-24.413,4.62l-11.219,0c-1.978,0 -1.978,0.657 -1.978,1.978c0,1.321 0,1.978 1.978,1.978l11.879,-0.657l25.069,-4.62c1.323,0 1.323,-0.663 1.323,-1.978Z" style="fill-rule:nonzero;"/><path d="M299.78,232.421l-1.981,-1.32l-20.453,4.62l-38.927,7.919c-1.978,0 -1.978,0.657 -1.978,1.978c0,1.321 1.315,1.978 2.638,1.978c17.155,-3.299 36.948,-7.255 59.38,-12.538l1.321,-2.637Z" style="fill-rule:nonzero;"/><path d="M250.954,493.696l1.981,10.555c3.299,7.912 9.235,15.174 16.494,21.107c7.914,4.626 19.133,9.896 32.988,13.194l22.432,6.6c-0.659,-3.3 -1.32,-6.6 -1.978,-11.211c-1.321,-8.583 -0.661,-17.152 1.978,-23.75c2.64,-7.926 3.3,-17.158 3.3,-26.393c-0.66,-7.925 -2.64,-13.857 -4.62,-18.479l11.879,3.956c0,-5.271 -0.661,-11.211 -3.299,-18.467c-5.281,-13.858 -14.519,-27.055 -29.03,-39.587c-9.896,0 -20.453,2.635 -31.671,5.935c-22.434,7.919 -36.288,19.794 -42.227,36.288l1.979,19.794c1.982,15.173 5.941,27.712 10.558,37.607l9.236,-17.149Z" style="fill:#858585;fill-rule:nonzero;"/><path d="M225.884,453.446l1.978,20.457c1.981,15.831 5.941,28.362 11.219,38.923c0,0.664 1.32,1.321 2.639,1.321c0.66,0.656 1.981,0 3.299,-0.657l4.621,-9.239c2.639,9.239 9.235,17.151 18.471,23.092c7.92,5.94 22.434,11.211 41.569,15.837l13.853,4.613l3.96,-0.656l0.66,-1.983l0,-1.314c-1.321,-5.284 -2.64,-10.555 -2.64,-17.152c0,-5.939 0.661,-11.224 2.64,-15.837c1.978,-6.598 3.299,-14.517 3.299,-21.777c0,-6.599 -0.66,-13.195 -2.64,-19.129l5.938,1.978l2.639,-0.657l1.321,-1.983c1.316,-3.956 -0.661,-10.556 -3.96,-19.793c-4.62,-14.511 -14.517,-28.363 -29.689,-40.901l-1.979,-0.657c-11.218,0.657 -22.437,2.636 -34.31,6.599c-22.433,7.912 -36.289,20.45 -42.887,37.602l-0.001,1.313Zm8.575,19.13l-1.979,-19.13c5.938,-13.859 17.815,-25.07 36.949,-31.669c11.213,-4.619 22.432,-6.598 32.328,-7.254c18.473,15.83 28.368,32.324 29.689,49.482l-6.599,-1.983c-1.978,-0.657 -3.299,0 -3.299,1.319c-0.66,0 -1.321,0.664 -1.321,1.979l0.661,1.319c2.639,4.62 3.959,12.532 3.959,21.771c0,7.256 -0.659,13.854 -3.299,20.451c-1.321,5.282 -2.639,11.224 -2.639,17.82l1.316,13.195l-9.235,-2.641c-19.133,-5.284 -32.328,-9.897 -38.926,-15.182c-7.26,-4.612 -12.535,-11.211 -15.834,-17.809c-1.321,-3.956 -1.981,-7.256 -1.981,-9.896l0,-0.657c0,-1.326 -1.317,-2.642 -2.64,-3.299l-3.959,2.636l-5.276,10.561c-3.295,-8.578 -5.933,-19.131 -7.915,-31.013Z" style="fill-rule:nonzero;"/><path d="M270.747,447.512c-1.317,0.658 -1.317,1.974 -1.317,2.637l6.598,11.218l11.215,25.069c5.281,17.158 11.879,30.354 21.115,40.907c0.659,1.314 1.32,1.314 2.638,0c0.661,-0.657 0.661,-1.983 0,-2.642c-8.575,-10.555 -15.173,-23.749 -19.793,-40.243c-2.64,-7.256 -5.938,-15.181 -11.214,-24.414l-6.598,-11.874c-1.323,-1.321 -1.983,-1.321 -2.644,-0.658Z" style="fill-rule:nonzero;"/><path d="M291.201,487.757c-1.317,0 -2.639,0 -2.639,1.979l-2.639,9.896c-1.32,7.262 -1.982,13.859 -1.982,17.815c0,1.313 0.662,2.642 1.322,2.642l2.639,-2.642c0,-3.956 0.66,-9.896 1.98,-17.151l1.979,-9.896c0.66,-0.666 0,-1.987 -0.66,-2.643Z" style="fill-rule:nonzero;"/><path d="M289.225,483.137l-1.982,1.979c-0.656,1.32 0,1.983 1.32,1.983l11.876,3.3c5.939,2.636 9.896,3.957 11.878,5.935c1.316,1.321 1.978,1.321 2.639,0c1.321,-0.663 1.321,-1.321 0,-2.636c-2.639,-2.642 -7.259,-4.626 -14.517,-7.261l-11.214,-3.3Z" style="fill-rule:nonzero;"/><path d="M266.131,498.968l2.639,-1.973c0,-4.625 2.64,-13.195 5.276,-23.755l4.62,-15.174c0,-1.321 0,-1.321 -1.32,-1.984c-1.318,0 -1.979,0 -2.639,0.663l-3.96,15.831c-3.299,10.561 -5.276,18.479 -5.938,23.756c0.002,1.978 0.002,2.636 1.322,2.636Z" style="fill-rule:nonzero;"/><path d="M211.367,452.783c-1.317,-11.211 -17.813,-18.467 -48.823,-20.45c-31.007,-1.979 -53.442,0.656 -69.276,7.918l-13.856,13.195c-9.896,12.532 -17.812,25.07 -22.432,38.924l22.432,0l-5.937,14.521c-3.299,13.854 -1.318,30.349 4.62,49.483l58.06,-6.598c7.918,-1.327 17.154,-4.626 25.73,-10.562l10.557,-9.232l3.299,23.093c6.598,-7.925 13.196,-17.822 19.133,-30.354c13.194,-25.068 17.814,-48.16 16.493,-69.938Z" style="fill:#858585;fill-rule:nonzero;"/><path d="M203.452,438.931c-11.218,-7.255 -30.351,-10.555 -56.081,-10.555c-25.074,0 -43.546,2.642 -56.082,8.576l0,0.663l-14.516,14.51c-10.557,11.882 -18.473,24.414 -23.092,38.931c0,1.314 0,1.979 0.661,2.642c0.66,1.313 1.978,1.973 2.638,1.973l16.495,0c-3.299,6.598 -5.277,14.522 -5.277,24.419c0,11.868 2.639,23.75 6.598,36.945l3.959,2.642l57.399,-6.598c11.217,-1.327 23.092,-6.599 33.649,-15.837l2.638,16.494l2.639,2.642c0.66,0 1.981,0 3.299,-1.327c7.258,-8.569 14.516,-19.13 20.454,-31.662c12.535,-24.419 17.155,-48.825 15.834,-70.604c-0.657,-5.936 -3.956,-9.898 -11.215,-13.854Zm-56.081,-3.956c24.41,0 42.225,3.3 52.781,9.238c5.277,2.636 7.259,5.936 7.916,9.233l0,7.919c0,27.705 -9.896,55.424 -31.007,83.787l-1.321,-15.168c0,-1.327 -0.66,-2.643 -2.638,-3.3c-1.321,0 -2.638,0 -3.299,1.314l-9.897,8.582c-8.575,5.935 -16.494,9.232 -24.413,9.896l-54.761,6.6c-3.959,-13.196 -5.937,-23.756 -5.937,-32.989c0,-7.925 1.317,-13.859 3.299,-19.793l3.299,-5.94l1.318,-1.983l-0.657,-1.314c-0.661,-0.657 -0.661,-1.32 -2.642,-1.984l-17.812,0c5.277,-11.868 11.875,-22.43 20.454,-32.988l12.535,-13.195c11.874,-5.275 29.029,-7.915 52.782,-7.915Z" style="fill-rule:nonzero;"/><path d="M166.504,453.446c-1.321,-0.663 -1.978,0 -3.299,0.664c-11.217,23.749 -27.051,41.559 -45.524,52.781c-9.896,6.599 -17.815,13.854 -24.413,23.75c-3.299,4.612 -5.938,9.238 -7.258,13.195c-0.657,1.314 0,2.641 0.661,2.641c1.32,0.658 2.638,0 2.638,-1.325c1.981,-3.3 3.959,-7.256 7.258,-11.869c6.598,-9.896 14.516,-17.821 23.092,-23.092c19.793,-12.538 35.627,-30.354 47.505,-54.109c0,-1.314 0,-2.636 -0.66,-2.636Z" style="fill-rule:nonzero;"/><path d="M120.98,508.864l-1.981,-1.973c-1.318,0 -2.638,0 -2.638,1.973l0,11.224c0,7.255 -1.318,13.195 -2.639,16.494c-0.66,0.658 -0.66,1.972 0.661,2.636l3.299,-1.32l2.639,-17.81l0.659,-11.224Z" style="fill-rule:nonzero;"/><path d="M103.165,495.011c-6.598,1.984 -11.875,4.62 -15.174,6.599c-1.32,0.657 -1.32,1.32 -0.661,2.643l2.639,0.656l14.516,-5.939c11.875,-3.299 22.432,-5.271 32.989,-3.957l2.639,-1.978l-1.321,-1.979c-11.875,-1.322 -23.092,0 -35.627,3.955Z" style="fill-rule:nonzero;"/><path d="M144.732,488.413l-1.981,-1.979c-1.318,0 -1.979,0.663 -1.979,1.979l0,15.838c0,12.538 -1.32,21.107 -2.638,28.369c-0.661,0.663 0,1.978 1.318,2.635c1.32,0 2.638,0 2.638,-1.972c1.321,-6.599 1.981,-16.494 2.642,-28.376l0,-16.494Z" style="fill-rule:nonzero;"/><path d="M171.781,464.007l-1.978,-1.327c-1.321,0 -2.639,0.663 -2.639,1.984l1.318,16.495c0,13.195 0,24.406 -1.978,32.988c0,1.313 0,1.978 1.978,2.642l1.981,-1.984c1.978,-9.238 1.978,-20.45 1.978,-33.646l-0.66,-17.152Z" style="fill-rule:nonzero;"/><rect x="210.05" y="325.454" width="85.771" height="71.911" style="fill:#d96038;fill-rule:nonzero;"/><path d="M208.068,397.365c0,1.32 0.66,2.636 1.98,2.636l85.771,0c1.978,0 2.638,-1.313 2.638,-2.636l0,-71.911c0,-1.328 -0.66,-2.644 -2.638,-2.644l-85.769,0c-1.321,0 -1.981,1.314 -1.981,2.644l0,71.911l-0.001,0Zm4.62,-2.636l0,-66.641l81.151,0l0,66.641l-81.151,0Z" style="fill-rule:nonzero;"/><path d="M252.275,334.688c-1.321,0 -2.64,0.664 -2.64,1.979l-0.661,44.206c0,1.321 0.661,2.635 2.639,2.635l1.322,-2.635l1.316,-44.206l-1.976,-1.979Z" style="fill-rule:nonzero;"/><path d="M269.43,337.984c-1.32,0 -1.98,0 -1.98,1.322l-0.656,39.586c0,1.979 0.656,1.979 1.979,1.979l1.978,-1.979l0.661,-39.586l-1.982,-1.322Z" style="fill-rule:nonzero;"/><path d="M234.459,336.008c-1.979,0 -1.979,0.657 -1.979,1.979l-0.66,40.906c0,1.979 0.66,1.979 1.322,1.979l2.637,-1.979l0,-40.906l-1.32,-1.979Z" style="fill-rule:nonzero;"/><path d="M201.471,409.896l-5.938,27.056c-3.959,17.814 -3.299,27.712 1.32,29.688l15.174,1.321l21.115,-1.984c5.937,0 15.832,1.327 27.707,4.627l21.114,1.972l15.175,-5.936c3.958,-2.635 7.258,-6.598 8.578,-12.53c1.979,-4.626 0,-13.196 -4.62,-23.757l-7.258,-15.83l-92.367,-4.627Z" style="fill:#d96038;fill-rule:nonzero;"/><path d="M202.131,407.262c-1.979,0 -2.639,0.664 -2.639,1.979c-3.959,11.218 -6.598,22.436 -7.918,32.988c-1.979,15.838 -1.317,24.412 3.959,27.049l19.793,0.664l17.816,-1.321l25.729,4.62l13.194,2.635l11.219,-0.657l1.979,-0.657c6.598,-1.983 11.217,-4.618 13.855,-6.598c4.616,-2.642 7.258,-7.255 9.236,-13.195c2.638,-8.582 -1.321,-22.435 -12.535,-40.907l-1.321,-1.979l-92.367,-4.621Zm-3.959,56.745c-1.979,-0.664 -2.639,-3.299 -2.639,-7.925c0,-9.896 2.639,-25.064 7.919,-42.887l89.069,3.963c7.259,13.858 11.215,24.414 11.215,32.326l-0.657,3.962c-1.32,4.62 -3.959,7.919 -7.259,10.561l-12.534,5.936l-1.321,0l-22.432,-2.637l-26.391,-3.963l-19.134,1.321l-15.836,-0.657Z" style="fill-rule:nonzero;"/><path d="M354.541,401.984l7.918,-11.217c1.317,-3.3 0.657,-7.918 -2.642,-12.533c-1.979,-3.299 -3.3,-10.561 -5.276,-21.776c-1.321,-10.554 -3.96,-16.494 -7.259,-18.474c-3.299,-3.299 -10.559,-3.299 -21.771,0l-14.517,4.621c-12.535,8.574 -18.473,25.068 -18.473,50.141c0.66,12.538 1.979,24.412 4.617,34.973l14.517,2.636l20.454,0.663c2.638,0 6.598,-3.962 11.874,-11.224l10.558,-17.81Z" style="fill:#d96038;fill-rule:nonzero;"/><path d="M354.541,345.247c-1.321,-3.963 -3.299,-7.263 -5.938,-9.896c-5.938,-4.627 -18.477,-3.3 -38.926,5.27l-0.661,0c-12.535,8.583 -18.476,25.077 -18.476,50.811c0,12.532 1.319,25.064 3.959,36.945l2.64,1.979l14.517,2.635l20.454,0.664c3.299,0 5.937,-2.637 9.234,-6.599l8.576,-13.195l6.598,-9.896l1.981,-3.299l6.598,-9.896c1.317,-4.619 0,-9.232 -2.639,-13.858c-1.981,-2.636 -3.299,-9.233 -4.619,-18.466l-3.298,-13.199Zm-8.576,-5.283c1.979,1.984 4.616,8.582 6.598,19.136c0.657,9.896 3.299,16.494 5.277,20.451c1.979,3.955 3.299,6.598 1.979,9.239l-5.276,8.575l-1.979,3.299l-7.258,10.561l-7.259,11.212l-6.598,5.939l-32.328,-2.641c-1.981,-10.556 -3.96,-21.772 -3.96,-34.968c0,-23.094 5.938,-38.267 17.155,-46.186c5.938,-2.635 12.534,-3.963 18.473,-5.275l15.176,0.658Z" style="fill-rule:nonzero;"/><path d="M307.695,268.709c-17.154,-6.598 -29.029,-9.896 -34.967,-9.896c-4.621,0 -11.219,3.299 -19.793,8.576l-13.195,9.239c-0.661,0 -0.661,3.299 1.316,11.211l3.299,11.224l62.021,43.543c17.813,-4.619 27.048,-8.582 29.03,-12.537c1.315,-1.979 1.315,-5.941 0,-11.211c-0.661,-6.599 -1.321,-11.226 -0.661,-14.523l1.978,-13.195c0.661,-3.956 0.661,-7.255 -1.315,-9.233c-1.982,-3.302 -11.218,-7.264 -27.713,-13.198Z" style="fill:#d96038;fill-rule:nonzero;"/><path d="M308.356,265.41c-17.155,-5.935 -29.69,-8.576 -35.628,-8.576c-6.599,0 -15.178,3.956 -27.053,13.195l-5.938,3.299l-1.981,1.314c-1.978,1.984 -0.655,10.56 3.96,25.077l0.66,1.979l62.68,42.886l1.979,0.664c17.814,-4.627 28.373,-9.239 31.011,-13.858c1.321,-3.3 1.321,-7.263 0,-13.197l-0.66,-13.857l1.321,-9.896l1.316,-7.254l-1.979,-6.598c-2.636,-3.961 -12.533,-8.58 -29.688,-15.178Zm23.092,38.923l0,3.299l1.32,11.226l1.317,6.598l-0.661,3.299c-1.978,2.635 -9.896,6.598 -26.391,10.555l-60.697,-41.572c-3.299,-9.896 -3.96,-16.493 -3.96,-19.129l5.938,-4.619c11.879,-8.576 20.455,-11.875 24.414,-11.875c5.938,0 17.154,2.635 33.648,8.576c15.834,5.94 25.07,9.897 27.048,12.538l1.321,3.957l-3.297,17.147Z" style="fill-rule:nonzero;"/><path d="M248.977,380.207l-23.093,0.664l-11.218,19.793c-5.938,13.195 -5.275,21.113 1.32,23.756l32.988,10.555l25.07,5.276l15.838,-11.217c7.915,-6.599 11.875,-11.212 12.535,-14.511c1.317,-1.983 0,-7.926 -3.299,-17.821l-5.28,-13.196l-44.861,-3.299Z" style="fill:#d96038;fill-rule:nonzero;"/><path d="M249.637,377.572l-23.753,0.662c-1.321,0 -1.978,0.658 -2.639,1.315l-9.235,15.837c-5.281,11.211 -7.259,18.473 -5.281,24.406c0.662,3.299 2.64,5.283 6.599,7.262l32.989,10.561c13.855,3.957 23.093,5.935 26.392,4.614c3.299,-0.657 9.235,-4.614 17.153,-11.213c7.92,-7.261 12.536,-12.538 13.196,-15.837c1.979,-3.955 -0.66,-15.18 -8.575,-32.988l-1.981,-1.32l-44.865,-3.299Zm-36.287,40.25l0,-2.643c0,-7.255 4.615,-17.814 13.855,-31.675l64.656,1.985c5.938,13.195 8.575,22.435 8.575,27.705l0,0.662l-11.874,13.196c-7.258,6.599 -12.535,9.896 -15.174,9.896l-23.093,-3.963c-13.854,-3.955 -24.413,-7.254 -33.649,-11.212l-3.296,-3.951Z" style="fill-rule:nonzero;"/><path d="M289.225,326.109l-11.219,5.277c7.258,13.195 11.219,27.057 11.219,42.223c0,7.262 -0.662,13.858 -1.982,17.82l33.649,-0.662c3.959,-3.3 6.599,-9.233 7.918,-18.474c2.64,-8.582 2.64,-14.517 0,-17.149l-9.896,-17.16c-4.62,-9.231 -8.579,-13.858 -11.218,-14.516c-3.3,-1.314 -9.237,0.003 -18.471,2.641Z" style="fill:#d96038;fill-rule:nonzero;"/><path d="M308.356,320.827c-3.96,-1.313 -9.897,0 -17.815,2.644c-6.6,1.983 -11.215,3.954 -13.854,5.282l-1.32,1.313l0,1.984c7.259,13.195 11.874,27.049 11.874,41.559c0,6.598 -1.316,12.539 -2.638,17.158l0.66,2.635l1.978,0.664l34.971,-1.32l7.915,-12.539c1.321,-5.934 2.643,-11.868 3.299,-16.494c0,-5.27 -1.315,-9.232 -2.638,-10.554l-6.598,-11.211c-6.598,-13.195 -12.535,-20.457 -15.834,-21.121Zm18.472,36.288l1.321,6.598l-3.3,14.521l-5.938,10.556l-28.372,0.657l1.319,-15.838c0,-14.51 -3.299,-27.705 -10.557,-41.559c13.855,-4.627 21.774,-7.262 25.73,-6.598c1.98,0.656 6.598,7.255 12.539,19.129l7.258,12.534Z" style="fill-rule:nonzero;"/><path d="M295.16,311.594c-1.32,-7.261 -5.938,-13.195 -13.195,-17.156c-6.598,-4.615 -16.494,-7.914 -31.011,-11.212c-11.875,-3.298 -18.474,1.979 -21.771,13.196c-1.979,5.94 -3.3,12.539 -2.64,21.106c-0.66,2.644 3.96,7.263 13.196,13.859l46.185,3.299l5.937,-5.934c3.299,-4.626 3.959,-10.561 3.299,-17.158Z" style="fill:#d96038;fill-rule:nonzero;"/><path d="M297.799,311.594c-1.979,-8.574 -5.938,-15.173 -14.513,-19.793c-5.94,-3.962 -17.155,-7.918 -31.672,-11.875c-7.259,-1.321 -13.195,-0.657 -17.155,3.298c-6.598,4.614 -9.896,15.174 -9.896,30.349l-0.655,3.299c-1.321,3.955 3.954,9.237 15.173,16.494l0.661,0.655l46.185,3.963l1.979,-0.664l6.598,-6.598c3.295,-5.932 3.955,-12.531 3.295,-19.128Zm-5.278,0.665l0,3.955c0,4.613 -0.66,7.912 -2.639,11.211l-4.619,4.627l-44.207,-3.963c-7.914,-4.618 -11.875,-8.575 -11.875,-9.897l0,-3.961c0,-14.511 3.299,-23.092 8.575,-27.707l11.88,-1.32c15.172,3.963 25.729,7.919 31.668,11.218c6.598,4.612 9.897,9.239 11.217,15.837Z" style="fill-rule:nonzero;"/><path d="M239.079,390.104c6.598,7.926 13.196,13.859 19.794,17.158c10.557,5.278 23.092,0 36.947,-16.494c4.616,-3.963 5.276,-9.896 3.3,-16.494c-1.321,-7.262 -5.938,-11.875 -12.535,-12.53c-11.218,8.567 -21.114,12.53 -29.033,13.194l-25.729,3.299l7.256,11.867Z" style="fill:#d96038;fill-rule:nonzero;"/><path d="M237.758,392.089c6.6,8.575 13.196,14.511 19.794,17.81c11.878,5.283 25.074,0 40.907,-17.81c1.979,-1.985 3.3,-5.284 3.96,-9.239l-0.66,-11.211c-3.3,-7.263 -7.919,-11.225 -14.518,-12.539l-1.978,0.657c-10.558,7.918 -19.793,12.538 -27.713,12.538l-26.392,3.299l-1.978,1.314l0,2.643l8.578,12.538Zm-1.979,-11.218l22.433,-3.299c7.919,0 17.815,-4.619 29.029,-13.196c4.62,1.321 7.919,3.963 9.239,9.233l1.317,5.94c0,3.955 -1.317,7.255 -3.299,9.239c-13.856,15.173 -25.07,21.107 -34.968,15.837c-7.255,-3.961 -15.175,-11.879 -23.751,-23.754Z" style="fill-rule:nonzero;"/><path d="M240.4,324.79l-11.879,15.83l13.855,0.664l25.07,3.299c5.941,1.321 11.218,4.62 14.517,9.896l4.62,7.264c7.255,-11.883 11.214,-19.794 11.214,-23.758c0,-2.635 -5.276,-7.918 -15.834,-15.829c-9.896,-7.263 -17.155,-11.226 -22.432,-11.226c-3.957,-0.657 -10.554,3.963 -19.131,13.86Z" style="fill:#d96038;fill-rule:nonzero;"/><path d="M260.193,308.295c-4.619,-0.663 -11.219,3.299 -19.793,12.532l-14.518,17.821c0,0.658 0,1.972 0,2.636l2.639,1.321l13.855,1.313l24.414,3.3c8.575,1.326 14.514,6.598 17.15,15.18l1.981,1.978l2.638,-0.663l6.599,-11.867c3.299,-6.599 5.276,-10.562 5.276,-13.859c0,-3.299 -5.276,-9.232 -16.494,-17.158c-10.549,-8.57 -18.469,-12.534 -23.747,-12.534Zm-11.879,12.532c5.281,-5.271 9.236,-7.912 11.219,-7.912c4.615,0.658 11.214,4.612 21.109,11.875c8.58,6.599 13.856,11.218 14.518,13.194l-8.575,18.474c-4.62,-8.576 -10.558,-12.538 -18.478,-14.51l-34.965,-3.964l15.172,-17.157Z" style="fill-rule:nonzero;"/><path d="M256.234,222.524c5.938,-56.081 8.574,-106.885 8.574,-151.085l-115.459,-0.664c0.66,46.848 -2.639,98.966 -10.557,155.711c-15.834,114.798 -47.502,197.934 -94.347,250.716l149.11,3.957c30.351,-60.038 51.463,-146.471 62.679,-258.635Z" style="fill:#9260c7;fill-rule:nonzero;"/><path d="M268.107,71.439c0,-2.642 -1.315,-3.299 -3.299,-3.299l-115.459,-0.664c-1.318,0 -1.978,0.664 -2.639,1.32c-0.66,0.657 -0.66,1.979 -0.66,2.642c0.66,47.499 -2.639,99.624 -11.214,155.705c-15.837,113.476 -46.845,196.612 -93.03,248.073c-1.32,1.321 -1.32,2.643 0,3.956l2.639,1.327l149.11,3.957c1.979,0 2.639,-0.658 3.299,-1.321c29.689,-60.044 50.801,-145.814 62.02,-258.634c5.937,-56.737 9.233,-107.541 9.233,-153.062Zm-115.459,8.569l0,-5.934l108.863,0.664c0,48.82 -3.299,102.923 -9.896,161.645c-12.535,104.901 -32.328,184.738 -60.04,241.477l-140.531,-3.956c40.907,-48.826 69.937,-122.724 86.431,-222.354c9.896,-57.394 15.173,-114.796 15.173,-171.542Z" style="fill-rule:nonzero;"/></g></g><rect id="PATH77" x="2.92" y="2.74" width="366.67" height="582.52" style="fill:none;stroke:#000;stroke-width:3px;"/></svg>