<?xml version="1.0" encoding="UTF-8" standalone="no"?><!DOCTYPE svg PUBLIC "-//W3C//DTD SVG 1.1//EN" "http://www.w3.org/Graphics/SVG/1.1/DTD/svg11.dtd"><svg width="100%" height="100%" viewBox="0 0 372 587" version="1.1" xmlns="http://www.w3.org/2000/svg" xmlns:xlink="http://www.w3.org/1999/xlink" xml:space="preserve" xmlns:serif="http://www.serif.com/" style="fill-rule:evenodd;clip-rule:evenodd;stroke-miterlimit:100;"><g><clipPath id="_clip1"><rect x="3.207" y="33.279" width="366.305" height="553.011"/></clipPath><g clip-path="url(#_clip1)"><rect x="-8.793" y="353.152" width="393.305" height="259.138" style="fill:#ffe000;fill-rule:nonzero;"/><path d="M258.822,106.014c-2.117,-0.704 -2.823,0 -3.531,1.407c-6.354,19.776 -10.592,44.49 -14.121,72.734c-6.354,57.896 -2.824,110.151 12.005,157.461c1.409,1.414 2.116,2.82 3.53,1.414c2.117,0 2.824,-1.414 2.117,-3.53c-14.123,-46.601 -17.652,-98.153 -12.002,-154.641c2.824,-28.245 7.764,-52.255 13.415,-71.314c1.411,-2.125 0.708,-3.531 -1.413,-3.531Z" style="fill-rule:nonzero;"/><path d="M255.999,113.778l14.828,-15.529c7.769,-11.302 7.062,-18.363 -0.706,-21.894c-9.178,-2.82 -14.122,2.117 -14.83,16.239c0,6.358 0,14.123 0.708,21.184Z" style="fill:#9260c7;fill-rule:nonzero;"/><path d="M258.822,75.646c-4.238,3.53 -6.354,10.591 -6.354,21.183l0.707,17.653l2.116,2.124l2.824,0l12.006,-13.419c7.061,-7.765 9.885,-14.826 9.178,-20.48c-1.41,-4.234 -4.234,-6.351 -9.178,-8.468c-4.238,-1.414 -8.475,-1.414 -11.299,1.407Zm14.829,9.184c0,5.647 -4.944,12.709 -14.829,23.301l-0.707,-10.592c0,-9.179 1.414,-15.536 4.238,-17.653l6.354,0c3.531,0.71 4.944,2.117 4.944,3.531l0,1.413Z" style="fill-rule:nonzero;"/><path d="M231.285,134.961l-4.238,-21.184c-5.647,-12.708 -11.298,-16.239 -18.359,-10.591c-7.765,4.944 -6.354,12.005 4.943,20.48c4.945,4.234 11.3,7.765 17.654,11.295Z" style="fill:#9260c7;fill-rule:nonzero;"/><path d="M217.869,98.952c-3.53,-2.124 -7.061,-1.413 -11.299,2.117c-4.236,2.82 -6.354,6.351 -5.647,10.592c0.703,4.944 5.647,11.302 14.122,17.653l15.533,8.475l2.824,0l1.413,-3.531c-3.53,-20.48 -8.475,-31.775 -16.946,-35.306Zm-7.767,6.358c2.116,-2.124 4.237,-2.827 6.354,-1.42c4.238,2.124 7.768,10.592 11.299,25.424c-13.415,-7.061 -20.477,-12.708 -21.184,-18.363l0,-0.703c-0.001,-2.117 0.706,-3.531 3.531,-4.938Z" style="fill-rule:nonzero;"/><path d="M234.107,132.844l-4.236,0c-1.41,1.414 -2.117,2.117 -0.703,3.531l16.239,19.77l3.53,0c2.117,-0.703 2.117,-2.117 0.707,-3.531l-15.537,-19.77Z" style="fill-rule:nonzero;"/><path d="M287.066,130.728c13.416,-2.827 18.359,-8.475 14.122,-16.246c-3.53,-8.468 -11.298,-7.765 -21.183,0.71l-14.123,16.239l21.184,-0.703Z" style="fill:#9260c7;fill-rule:nonzero;"/><path d="M304.012,113.075c-2.116,-4.944 -5.646,-7.061 -9.884,-7.061c-5.647,-0.704 -12.003,2.827 -19.771,10.592c-4.236,4.233 -8.475,9.178 -11.298,13.419c0,0.703 0,1.406 0,2.82c0,1.414 1.413,1.414 2.823,1.414l16.947,0c11.298,-1.414 17.652,-4.233 21.182,-8.475c1.415,-4.242 1.415,-8.475 0.001,-12.709Zm-4.233,6.357l-1.414,2.821c-2.824,4.944 -11.299,7.061 -27.538,7.061c9.885,-12.708 17.653,-18.363 23.301,-17.653c1.413,0 2.823,1.414 4.237,3.531l1.414,4.24Z" style="fill-rule:nonzero;"/><path d="M268.004,130.024c-0.707,-2.124 -2.121,-2.124 -4.237,-0.71l-14.829,8.475c-1.414,0.703 -2.117,2.117 -0.707,3.53c0.707,2.117 1.414,2.117 3.531,1.407l14.828,-8.468c2.117,-1.414 2.824,-2.827 1.414,-4.234Z" style="fill-rule:nonzero;"/><path d="M231.285,188.623l-4.238,-21.183c-4.237,-13.413 -9.885,-16.943 -17.652,-11.999c-7.061,5.647 -6.354,12.708 4.236,21.183l17.654,11.999Z" style="fill:#9260c7;fill-rule:nonzero;"/><path d="M233.402,190.747l0.705,-2.827c-2.822,-20.48 -7.061,-32.479 -14.121,-36.009c-3.531,-2.124 -7.769,-1.414 -12.709,1.407c-3.53,2.124 -5.651,5.654 -5.651,10.592c0.708,5.654 4.944,11.302 13.419,18.363l15.533,8.475l2.824,0l0,-0.001Zm-26.125,-27.541c0,-2.117 1.41,-3.531 3.531,-4.938c2.822,-2.124 4.94,-2.827 6.354,-1.42c4.944,2.124 8.475,11.302 10.592,26.837c-13.415,-8.474 -20.477,-14.825 -20.477,-20.479Z" style="fill-rule:nonzero;"/><path d="M233.402,187.216c-0.704,-1.414 -2.117,-2.124 -3.531,-1.414c-2.117,1.414 -2.117,3.531 -0.703,4.944l10.591,13.419l4.235,0.703c1.413,-1.414 1.413,-2.827 0.705,-4.234l-11.297,-13.418Z" style="fill-rule:nonzero;"/><path d="M119.72,72.115c-0.707,-1.407 -2.12,-2.11 -3.53,-1.407c-2.121,0 -2.121,1.407 -2.121,3.53c9.885,24.714 18.359,55.076 26.128,90.381c16.239,70.611 22.593,134.871 19.063,191.36c0,2.11 0.707,2.82 2.12,3.531l2.824,-2.828c4.237,-57.902 -2.117,-121.452 -18.359,-193.477c-7.769,-36.008 -16.947,-65.666 -26.125,-91.09Z" style="fill-rule:nonzero;"/><path d="M117.6,72.825l0,-21.183c-1.41,-13.412 -6.354,-18.363 -14.829,-15.536c-8.471,3.53 -8.471,10.591 0,21.183c3.531,6.358 8.475,11.295 14.829,15.536Z" style="fill:#9260c7;fill-rule:nonzero;"/><path d="M114.069,34.699l-12.708,-1.42c-4.944,2.124 -7.061,5.655 -7.768,9.186c-1.414,7.764 6.354,19.06 21.89,32.478l2.824,0.704l2.117,-2.11c2.12,-20.482 0,-33.901 -6.355,-38.838Zm-10.591,4.234l7.061,0c2.824,2.827 4.944,9.178 4.944,21.183l-0.707,7.061c-10.592,-10.591 -15.536,-17.652 -15.536,-22.597l0,-1.414c0,-1.406 1.414,-3.53 4.238,-4.233Z" style="fill-rule:nonzero;"/><path d="M139.49,88.36l16.239,-14.122c8.475,-10.591 9.181,-17.652 1.413,-21.183c-7.768,-4.234 -14.122,0 -16.239,14.122c-1.413,6.358 -2.12,13.419 -1.413,21.183Z" style="fill:#9260c7;fill-rule:nonzero;"/><path d="M157.85,50.228l-11.298,-0.703c-7.061,4.937 -10.592,17.652 -10.592,38.835l2.117,2.117l2.121,0l14.122,-11.302c7.768,-7.765 12.002,-14.122 11.298,-19.06c-0.707,-4.943 -2.827,-7.763 -7.768,-9.887Zm2.117,9.888c0,6.358 -6.354,13.419 -17.653,21.887c0,-15.529 2.823,-24.714 7.061,-26.831l6.354,0c2.827,1.414 4.238,3.531 4.238,4.944Z" style="fill-rule:nonzero;"/><path d="M140.197,84.83c-1.414,-0.703 -3.531,0 -3.531,2.117l-10.592,22.598c-0.707,2.117 0,3.53 2.118,3.53c1.414,1.407 2.823,0.703 3.53,-1.414l9.885,-22.597c1.414,-2.117 0.707,-2.827 -1.41,-4.234Z" style="fill-rule:nonzero;"/><path d="M114.069,114.481c-2.117,-7.061 -5.647,-13.412 -9.885,-19.06c-7.768,-10.592 -14.829,-13.419 -20.477,-6.357c-5.651,7.061 -2.12,13.419 9.885,19.066l20.477,6.351Z" style="fill:#9260c7;fill-rule:nonzero;"/><path d="M92.886,82.707c-4.237,-1.407 -7.768,0.71 -11.298,4.24c-2.824,4.241 -4.234,8.475 -2.824,12.005c2.824,8.468 14.123,14.123 34.599,18.356c0.707,0 2.12,0 2.827,-0.703l0.703,-3.531c-7.764,-19.066 -15.532,-28.947 -24.007,-30.367Zm-9.178,12.715c0,-1.414 0.707,-2.827 2.117,-4.234c1.414,-2.124 3.531,-2.828 6.354,-2.828c4.944,0.704 11.298,7.765 16.95,21.887c-14.829,-4.234 -23.304,-8.468 -25.421,-12.708l0,-2.117Z" style="fill-rule:nonzero;"/><path d="M115.483,112.371l-3.531,0.704c-1.414,0.703 -1.414,2.117 0,3.531l21.184,14.825c0.707,1.414 2.117,1.414 3.53,-0.703c1.41,-0.703 1.41,-2.124 -0.707,-3.531l-20.476,-14.826Z" style="fill-rule:nonzero;"/><path d="M117.6,156.145l-16.239,-14.122c-10.592,-7.765 -17.653,-7.765 -21.183,1.414c-2.824,8.475 2.117,13.412 16.239,14.122l21.183,-1.414Z" style="fill:#9260c7;fill-rule:nonzero;"/><path d="M85.825,134.258c-3.53,0 -6.354,3.531 -7.768,8.468c-2.117,4.241 -1.41,8.482 0.707,12.012c6.354,6.351 19.066,7.765 39.543,4.234l2.117,-1.414l-0.704,-3.531c-13.418,-14.832 -25.42,-21.183 -33.895,-19.769Zm-2.824,10.592c0.707,-2.827 2.117,-4.234 4.238,-4.944c5.647,-1.414 13.416,3.531 24.713,14.122c-15.536,2.117 -24.713,0.71 -28.244,-3.53c-1.414,-0.711 -1.414,-2.821 -0.707,-5.648Z" style="fill-rule:nonzero;"/><path d="M118.307,154.027c-1.414,-0.71 -2.824,0 -3.53,1.414c-0.707,2.117 0.707,3.53 2.117,3.53l24.714,7.061c1.414,0.704 2.827,0 3.53,-2.124c0,-1.407 -0.703,-2.82 -2.117,-3.53l-24.714,-6.351Z" style="fill-rule:nonzero;"/><path d="M178.326,322.784l20.477,-6.352c12.006,-6.351 14.828,-13.411 9.182,-19.769c-5.65,-7.062 -12.713,-4.944 -19.773,6.357c-4.238,6.352 -7.062,12.703 -9.886,19.764Z" style="fill:#9260c7;fill-rule:nonzero;"/><path d="M178.326,324.908l17.652,-4.944c9.885,-3.531 15.536,-7.771 17.652,-13.411c0.708,-4.242 0,-7.772 -3.529,-11.303c-3.531,-4.241 -7.061,-6.351 -10.592,-4.944c-5.647,1.414 -11.299,5.655 -16.946,15.536c-2.121,4.24 -4.945,9.881 -7.062,15.536l0.707,2.827l2.118,0.703Zm4.238,-6.357c6.354,-14.123 12.708,-21.887 17.653,-23.301c2.117,0 3.53,1.414 5.646,3.53l2.121,4.241l0,2.11c-1.414,4.951 -9.888,9.185 -25.42,13.42Z" style="fill-rule:nonzero;"/><path d="M180.443,320.674c-1.411,-0.71 -2.824,-0.71 -4.234,0l-18.36,17.653c-0.707,0.703 -0.707,2.819 0,4.233c2.117,1.407 2.824,1.407 4.941,0l17.653,-18.355c1.414,-0.711 1.414,-2.124 0,-3.531Z" style="fill-rule:nonzero;"/><path d="M150.789,128.604c7.061,-4.234 12.708,-7.765 17.653,-11.998c9.885,-9.889 10.591,-16.95 2.824,-21.184c-7.061,-4.944 -13.416,-1.414 -16.946,11.999c-1.414,6.357 -2.825,13.418 -3.531,21.183Z" style="fill:#9260c7;fill-rule:nonzero;"/><path d="M179.033,102.483c0,-3.531 -1.414,-7.062 -5.65,-9.889l-12.708,-0.704c-4.238,2.117 -7.768,9.178 -10.592,19.77c-0.707,5.647 -1.414,12.005 -1.414,16.942l1.414,2.124l2.824,0c17.651,-9.887 26.126,-19.065 26.126,-28.243Zm-8.475,-4.944c2.121,1.413 3.531,2.82 3.531,4.944c0,5.647 -6.354,11.998 -19.77,21.183c2.117,-15.536 4.941,-24.714 9.885,-27.541l6.354,1.414Z" style="fill-rule:nonzero;"/><path d="M152.199,125.783c-1.41,-0.71 -2.117,0 -3.531,1.414l-12.001,22.59c-1.414,1.42 -0.707,2.124 1.41,3.53c1.414,0.71 3.531,0.71 4.238,-1.407l11.298,-21.886c0.706,-2.124 -0.001,-2.827 -1.414,-4.241Z" style="fill-rule:nonzero;"/><path d="M88.649,288.188l10.591,-19.066c4.944,-12.708 2.828,-19.77 -6.354,-20.48c-9.178,-1.407 -12.708,5.654 -10.592,19.073c1.414,6.351 3.531,13.413 6.355,20.473Z" style="fill:#9260c7;fill-rule:nonzero;"/><path d="M82.294,250.063c-3.531,4.234 -4.237,11.295 -2.117,21.887c2.117,7.062 3.53,12.708 5.647,16.949l2.824,2.11l2.12,-1.407c12.002,-16.949 16.239,-29.658 12.708,-36.719c-2.117,-4.24 -4.94,-6.351 -10.591,-7.061c-4.236,0 -8.47,1.413 -10.591,4.241Zm15.536,4.234l1.41,3.53c0,5.648 -3.53,14.123 -9.885,24.011c-3.531,-7.771 -4.237,-14.833 -4.237,-21.184c0,-2.827 0.707,-5.654 1.414,-7.061c0.707,-2.124 2.823,-2.827 6.354,-2.124c3.531,0.001 4.944,1.414 4.944,2.828Z" style="fill-rule:nonzero;"/><path d="M89.355,285.369c-2.117,-0.71 -2.823,0.703 -3.531,2.109l-5.647,21.184c0,1.42 0,2.123 2.117,3.53c1.414,0 3.53,-0.704 3.53,-2.82l5.651,-20.473c0.704,-2.124 -0.706,-2.827 -2.12,-3.53Z" style="fill-rule:nonzero;"/><path d="M56.874,237.347c-1.41,-0.703 -2.823,-1.406 -4.234,-0.703c-2.12,0.703 -2.12,2.117 -0.707,4.234l14.122,27.542c9.178,21.887 16.239,41.663 18.359,59.316l2.824,2.82l2.824,-3.531c-2.824,-17.652 -8.475,-38.125 -18.36,-60.019l-14.828,-29.659Z" style="fill-rule:nonzero;"/><path d="M61.818,254.297l-2.824,-21.184c-3.53,-13.419 -9.182,-17.652 -16.946,-13.419c-7.768,4.944 -7.061,12.005 2.824,21.184l16.946,13.419Z" style="fill:#9260c7;fill-rule:nonzero;"/><path d="M40.635,217.578c-4.237,2.117 -6.354,5.647 -6.354,10.592c0,8.475 8.471,17.652 26.124,28.245l2.827,0l1.41,-2.117l-2.117,-17.653c-1.414,-10.592 -4.944,-17.653 -9.885,-19.777l-12.005,0.71Zm2.823,4.944c2.823,-1.414 4.944,-2.124 6.354,-1.414c4.944,3.53 7.768,12.005 9.182,27.534c-12.712,-8.468 -19.066,-15.529 -19.066,-20.473l0,-0.71c0,-1.407 1.414,-3.53 3.53,-4.937Z" style="fill-rule:nonzero;"/><path d="M36.397,277.597l21.183,3.531c-4.237,-7.062 -8.471,-12.708 -12.708,-17.653c-9.885,-9.178 -16.946,-10.592 -21.184,-2.821c-4.944,7.765 -0.706,13.412 12.709,16.943Z" style="fill:#9260c7;fill-rule:nonzero;"/><path d="M59.701,282.542l0,-2.827c-11.298,-18.356 -20.48,-26.832 -28.951,-26.832c-3.53,0 -7.061,2.118 -9.884,6.351c-2.121,4.241 -2.828,8.481 -0.708,12.012c3.531,7.765 16.24,11.295 36.716,12.702c0.707,0 2.12,-0.703 2.827,-1.406Zm-28.951,-24.011c5.648,0 12.709,6.358 21.184,19.066c-15.536,-1.413 -24.714,-3.53 -26.834,-9.177l-1.41,-2.124l2.117,-4.234c1.412,-2.118 3.529,-3.531 4.943,-3.531Z" style="fill-rule:nonzero;"/><path d="M58.287,278.308c-1.414,-0.711 -2.823,-0.711 -4.237,1.407c0,2.124 0,2.827 2.12,3.53l19.77,8.475c2.117,0.71 2.823,0 4.237,-1.414c0,-2.118 0,-3.531 -2.121,-4.234l-19.769,-7.764Z" style="fill-rule:nonzero;"/><path d="M346.379,326.314c-2.117,-2.82 -2.823,-6.351 -2.117,-10.592l-0.706,-12.701c-3.531,-11.302 -14.122,-17.653 -32.481,-17.653c-8.471,-0.71 -16.24,2.82 -24.008,9.881c-3.53,2.82 -7.061,6.35 -9.885,9.178c-11.299,-2.828 -21.891,-2.117 -31.068,2.125c-4.943,2.819 -9.885,7.764 -13.415,14.121l-2.827,9.172c7.768,20.479 18.359,33.898 30.364,39.545c7.062,3.532 13.416,5.648 19.771,7.063l0.706,7.771c0,3.53 0.707,7.061 3.531,10.591c3.53,4.234 7.061,7.062 10.591,9.171l12.006,3.53l6.354,7.062c2.824,3.53 6.354,6.357 9.887,7.771l28.949,10.592c9.887,-19.77 14.83,-31.774 14.83,-38.126c0,-4.951 -2.827,-13.419 -7.062,-25.425c-1.413,-3.53 -1.413,-7.061 -1.413,-12.708l0,-14.825c0,-3.53 -1.414,-7.061 -4.944,-9.185l-7.063,-6.358Z" style="fill:#858585;fill-rule:nonzero;"/><path d="M347.793,314.316l-1.414,-12.006c-3.53,-14.122 -15.531,-20.473 -35.305,-20.473c-12.709,-0.71 -24.008,6.351 -34.599,18.355l-13.416,-0.703c-7.061,0 -13.415,2.109 -18.36,4.234c-6.354,2.828 -10.592,8.468 -14.828,15.529l-3.531,9.185l0,2.117c7.063,17.652 14.83,30.361 25.422,38.125c4.943,3.531 12.005,7.062 21.183,8.482l4.237,0.703l0,4.938c0,4.951 0.707,10.591 4.237,14.833c3.53,4.943 10.593,9.177 19.77,11.301l4.237,2.11l4.945,4.241c2.116,4.943 6.354,7.771 11.295,10.592l29.658,10.592c0.705,0.71 2.822,0 3.529,-2.118c10.592,-19.776 15.536,-33.188 15.536,-39.539c0,-4.951 -2.12,-12.716 -4.944,-21.893l-2.116,-4.242c-0.707,-2.82 -1.413,-7.061 -1.413,-13.412l0,-13.411c0,-5.654 -3.531,-9.888 -7.77,-13.419l-4.939,-4.233c-1.414,-1.42 -1.414,-4.95 -1.414,-9.888Zm-67.081,-8.474l8.476,-8.475c7.764,-5.647 14.824,-9.179 21.887,-8.468c16.242,0 26.127,4.938 28.95,14.826l0.708,7.061l0,6.357c0,4.235 0.707,7.766 2.823,10.593c0.706,2.82 3.53,4.938 6.354,6.351c3.53,2.82 4.943,4.944 4.943,8.475l0,17.653l2.117,9.888l1.414,5.641c3.531,7.772 4.944,14.833 4.944,19.073c0,4.234 -4.237,14.825 -12.713,33.886l-26.123,-9.882c-2.827,-0.711 -5.651,-3.53 -8.476,-7.061c-2.117,-3.531 -4.943,-6.352 -7.768,-7.062l-5.646,-2.117c-7.77,-2.124 -12.713,-5.654 -15.537,-9.186l-2.823,-7.764l0,-2.116l0,-3.531l-1.413,-5.647c-0.705,-1.413 -3.531,-2.827 -8.473,-4.234c-7.768,-1.421 -14.122,-4.241 -18.358,-7.771c-9.179,-7.062 -16.946,-17.652 -22.597,-32.484l3.529,-9.172c2.827,-4.951 6.358,-8.481 11.299,-10.592c7.769,-4.24 17.652,-4.95 28.951,-2.826c1.416,0.701 2.826,-0.002 3.532,-1.416Z" style="fill-rule:nonzero;"/><path d="M337.908,399.05c-5.651,-26.127 -16.947,-50.842 -33.896,-72.025l-24.713,-24.714l-3.531,0.711c-1.41,0.703 -0.703,2.11 0.708,2.82l24.007,24.004c16.242,21.183 28.244,44.49 33.188,70.61l2.824,1.421l1.413,-2.827Z" style="fill-rule:nonzero;"/><path d="M298.365,312.902c-3.531,0.711 -5.648,2.117 -7.062,3.53c-10.592,3.531 -17.652,9.179 -21.183,17.653c-3.531,7.061 -3.531,14.833 0,22.597c0,2.117 1.414,2.117 2.823,1.407c0.707,0 1.413,-1.407 0.707,-2.821c-2.824,-7.061 -2.824,-13.411 0,-20.472c2.824,-6.358 9.885,-11.303 19.769,-14.833l5.652,-2.821l13.415,-0.71c7.061,1.415 12.006,6.352 16.946,13.413l2.823,0.71c1.413,-0.71 1.413,-2.117 0.707,-3.531c-4.94,-7.771 -11.298,-13.411 -19.771,-14.832l-14.826,0.71Z" style="fill-rule:nonzero;"/><path d="M339.318,348.919c-5.648,-8.482 -12.709,-13.419 -20.477,-14.833l-10.591,1.414c-9.178,2.116 -15.533,6.357 -19.063,12.708c-2.828,6.351 -3.531,13.412 -1.414,20.473c0.707,0.71 2.117,1.421 2.824,0.71c1.414,0 1.414,-1.413 1.414,-2.819c-2.121,-5.654 -1.414,-11.303 1.408,-16.246c2.121,-5.647 7.769,-9.179 15.537,-10.592l9.885,-0.703c6.354,1.406 12.006,5.647 16.946,12.708l3.53,0c0.707,-0.001 1.415,-0.711 0.001,-2.82Z" style="fill-rule:nonzero;"/><path d="M332.964,361.62l-9.884,0c-8.476,2.124 -14.123,7.771 -16.947,16.246c-0.707,3.53 -0.707,7.765 0,11.295l2.824,1.414l1.414,-2.117c-0.707,-3.53 -0.707,-6.358 0.703,-9.186c1.413,-7.061 5.65,-11.295 13.419,-13.412c2.116,-0.71 4.94,-0.71 7.764,0c4.944,0.711 9.183,4.945 11.299,11.303c0.706,2.109 1.413,2.109 2.823,2.109c1.414,-0.703 1.414,-2.109 1.414,-2.819c-2.824,-8.475 -7.769,-13.412 -14.829,-14.833Z" style="fill-rule:nonzero;"/><path d="M43.458,300.193c-10.592,3.531 -17.653,11.295 -21.184,23.301c-1.41,3.53 -1.41,7.772 -0.707,12.006l-0.703,11.295l-6.358,11.295c-2.824,4.24 -4.941,7.771 -4.941,10.591c-0.707,1.421 0,4.952 1.41,10.592c0.707,4.242 0.707,7.772 -0.703,12.013l-4.238,10.592c-1.414,2.82 -0.707,7.061 0.707,14.122c1.411,9.882 7.062,19.764 15.533,30.354c14.829,-7.765 25.421,-15.529 31.775,-22.59c3.53,-4.234 8.475,-7.765 14.122,-9.186l15.536,-6.351l16.239,-12.709c7.061,-5.654 13.416,-9.888 17.653,-12.004c8.474,-3.531 15.536,-9.882 21.183,-16.24c7.768,-9.185 10.592,-19.776 9.885,-31.071l-5.647,-12.709c-4.237,-8.475 -9.884,-14.122 -15.536,-16.941l-40.246,2.819l-16.243,-6.351c-12.708,-3.531 -21.886,-4.241 -27.537,-2.828Z" style="fill:#858585;fill-rule:nonzero;"/><path d="M42.751,296.664c-12.708,4.936 -20.477,13.418 -24.007,26.83c-1.41,3.53 -1.41,7.772 -0.707,12.709l-0.703,9.186l-5.651,9.88c-3.53,6.352 -5.647,10.592 -5.647,12.709c-0.707,2.828 0,6.358 1.411,10.592c0.707,4.945 0.707,8.476 0,11.295l-2.117,3.53c-1.414,4.242 -2.824,7.062 -2.824,9.186c-0.707,2.827 0,7.765 0.707,14.122c1.41,9.889 7.765,20.48 16.946,31.774l4.238,0.705c15.533,-8.469 26.124,-15.53 32.478,-23.301c3.531,-3.531 9.182,-7.062 16.95,-9.882l12.001,-4.24l15.536,-12.006c7.768,-7.062 14.122,-11.295 17.652,-12.708c9.885,-4.945 17.653,-10.592 24.007,-19.067c7.061,-9.178 10.592,-20.479 9.178,-32.478l-5.647,-14.122c-4.944,-9.186 -11.298,-15.536 -18.359,-17.653l-40.247,1.407l-0.707,0c-20.477,-8.468 -35.306,-11.296 -44.488,-8.468Zm-17.652,28.244c3.531,-11.295 9.889,-18.355 19.773,-21.184l21.183,2.117c7.061,1.414 14.123,3.53 19.77,6.351l2.121,0.71l1.41,-0.71l36.719,-2.11c8.472,3.531 14.83,12.702 19.063,26.824l0,4.24c0,10.592 -4.94,20.474 -13.415,28.244c-4.237,4.242 -9.885,7.772 -15.532,10.593c-4.238,1.413 -10.592,7.062 -19.773,14.122l-14.122,10.592l-10.592,4.24c-9.178,2.821 -16.239,7.062 -20.477,12.701c-4.944,5.655 -14.122,12.013 -27.538,19.777c-7.768,-8.475 -12.005,-17.652 -13.415,-26.127l-1.414,-9.882l2.823,-8.481l2.121,-3.531l1.41,-9.17l-1.41,-7.771l-1.414,-5.647l0.707,-1.415l4.941,-9.88l5.651,-11.303l1.41,-7.062l-0.703,-10.591l0.703,-5.647Z" style="fill-rule:nonzero;"/><path d="M88.649,307.256l-2.824,0l-21.89,33.181c-15.532,26.135 -26.831,51.552 -33.185,77.672l1.41,2.124l2.121,-1.413c7.062,-24.714 17.653,-50.139 33.186,-76.259l21.183,-32.479c0.705,-0.71 0.705,-1.42 -0.001,-2.826Z" style="fill-rule:nonzero;"/><path d="M75.233,323.494l-28.244,1.414l-12.002,9.178c-0.707,0.711 -0.707,1.414 0.703,2.82l2.827,0c2.824,-3.53 6.354,-6.351 9.885,-8.468c9.178,-4.233 17.652,-4.233 26.124,-0.703l12.712,0.703c8.471,2.117 15.532,5.647 20.477,9.889c6.354,7.062 9.885,16.231 8.475,28.244l1.41,2.109l2.824,-2.109c0.707,-13.419 -2.824,-24.011 -9.885,-31.071c-5.647,-4.944 -12.708,-8.476 -21.183,-10.592l-14.123,-1.414Z" style="fill-rule:nonzero;"/><path d="M81.588,358.8c-4.234,-3.531 -8.472,-6.351 -14.826,-7.062l-8.475,0c-7.768,-2.116 -14.829,0 -22.597,4.944l-10.592,9.178c-0.703,1.414 -0.703,2.82 0.707,3.53l2.824,-0.71l9.181,-8.467c7.062,-4.945 14.123,-6.358 20.477,-4.945l7.768,0c4.941,1.414 9.178,3.531 12.708,6.352c4.944,4.951 7.061,12.013 6.354,21.895c0,1.413 0.707,2.819 2.121,2.819l2.117,-2.819c0,-10.592 -2.116,-19.068 -7.767,-24.715Z" style="fill-rule:nonzero;"/><path d="M19.451,394.815c-0.707,0.703 -0.707,2.11 0.707,2.821l2.824,0l5.647,-5.648c4.944,-3.53 9.181,-4.943 14.122,-3.53l3.53,0l5.651,3.53c2.824,2.827 3.531,7.062 2.824,12.709c-0.707,0.71 0,2.116 2.117,2.819l2.121,-2.109c1.41,-7.061 0,-12.013 -3.53,-15.543c-1.414,-2.819 -4.944,-3.53 -7.768,-4.937l-4.237,-0.703c-5.648,-0.71 -11.299,0 -16.946,4.233l-7.062,6.358Z" style="fill-rule:nonzero;"/><path d="M240.463,321.378c-9.178,-0.704 -18.356,1.406 -27.537,4.937l-21.185,5.655l-22.593,-3.531c-9.888,-2.124 -19.067,-2.124 -26.128,0c-12.005,2.117 -20.477,8.468 -26.127,19.06c-4.234,8.481 -6.354,18.362 -4.941,28.955c0.707,6.351 2.824,13.411 5.648,20.473c3.531,5.654 4.944,11.302 4.944,14.122l0,15.543c0,6.351 2.824,12.702 7.062,18.355c4.94,4.938 9.885,9.179 15.532,11.296c5.651,2.123 9.182,4.943 10.592,5.653l5.651,9.882l14.122,9.882l29.655,15.543c17.652,-11.303 29.658,-20.479 35.306,-27.541c2.12,-3.53 4.944,-7.766 5.65,-12.006c1.41,-4.943 2.824,-9.179 4.941,-11.302l9.889,-11.999c2.116,-4.233 4.232,-8.474 4.939,-14.122c0.707,-4.233 0.707,-8.474 -0.707,-12.716c-1.409,-4.937 -2.116,-9.17 -1.409,-11.998c0,-2.827 2.116,-8.474 4.94,-17.652c3.531,-7.765 4.944,-15.536 4.944,-21.887c0,-21.894 -10.591,-32.486 -33.188,-34.602Z" style="fill:#858585;fill-rule:nonzero;"/><path d="M175.502,326.314l-33.896,-1.406c-12.001,2.116 -21.183,8.468 -27.538,19.06c-4.94,9.185 -7.061,21.183 -5.647,33.195c0.707,6.352 3.53,14.122 7.061,21.887l3.53,11.998l0,19.777c1.411,5.648 4.238,10.592 8.472,16.239c5.651,6.352 12.005,10.592 19.066,14.122l6.354,3.531l3.53,4.944c4.238,6.356 9.885,11.998 17.653,15.528l28.952,14.832l3.529,0c18.36,-10.591 30.361,-20.473 36.013,-27.534c3.53,-4.24 5.647,-9.889 6.354,-14.832c1.414,-3.53 2.824,-7.061 4.943,-9.179l9.886,-12.714c2.823,-4.938 4.94,-9.882 5.647,-14.827c0.707,-4.937 0.707,-9.177 -0.707,-14.825l-1.41,-10.592c0,-2.124 1.41,-6.357 3.53,-12.715c3.53,-9.881 6.354,-19.06 6.354,-26.824c0,-11.302 -3.53,-20.479 -9.885,-26.838c-5.65,-6.357 -14.829,-9.888 -26.834,-11.294c-9.885,-0.705 -21.184,1.406 -33.186,6.357l-16.242,4.233l-15.529,-2.123Zm84.733,71.323l1.411,10.591l1.413,7.062l-0.706,4.24l-4.238,12.702l-9.178,11.302c-3.53,3.53 -4.943,7.771 -6.354,12.709c-0.707,4.943 -2.824,8.475 -4.944,12.005l-32.481,24.714l-27.538,-14.122c-7.061,-3.531 -12.002,-7.771 -14.829,-13.412l-4.941,-5.654c-2.12,-2.117 -4.944,-4.234 -8.475,-5.647c-6.354,-2.82 -12.002,-6.352 -16.239,-11.302c-4.944,-6.351 -7.062,-11.999 -7.062,-17.652l0,-14.123c0,-4.234 -1.413,-9.171 -4.237,-14.825c-4.237,-8.468 -6.354,-14.826 -6.354,-19.77l0,-4.944c0,-23.301 9.178,-36.712 27.538,-39.539l16.24,-1.414l14.829,2.82l17.652,2.124l18.36,-4.944c10.592,-4.241 20.477,-6.351 30.361,-5.647c19.066,1.406 29.658,11.998 29.658,30.36l0,0.711c0,6.351 -2.117,14.122 -5.648,24.004c-2.826,7.062 -4.237,12.005 -4.237,15.535l0,2.116l-0.001,0Z" style="fill-rule:nonzero;"/><path d="M193.154,331.267c0,-0.711 -0.705,-1.421 -2.119,-0.711c-2.117,0 -2.117,0.711 -2.117,2.117l6.354,37.429c4.238,31.065 6.354,61.426 5.651,91.794c0,2.111 0.703,2.821 2.118,2.821l2.116,-2.821c0.706,-30.368 -2.116,-60.729 -5.647,-92.505l-6.356,-38.124Z" style="fill-rule:nonzero;"/><path d="M239.053,351.028c-7.062,-4.937 -16.243,-6.351 -28.244,-6.351l-16.243,2.82c-21.183,-2.82 -37.423,2.827 -48.721,14.832c-6.354,7.061 -9.885,13.412 -11.299,20.474c0,0.711 0,1.421 1.414,2.124l2.824,-1.413c1.414,-7.062 4.944,-13.413 10.592,-18.364c9.885,-11.295 25.421,-16.231 45.19,-13.412l0.706,-0.71l14.83,-2.109c10.592,-0.711 20.477,0.703 27.537,5.64c7.769,4.952 12.006,12.716 14.123,23.308c0.706,2.117 1.413,2.117 2.822,2.117c1.415,0 1.415,-0.711 1.415,-2.82c-2.118,-12.014 -7.769,-21.185 -16.946,-26.136Z" style="fill-rule:nonzero;"/><path d="M230.578,376.453c-6.355,-4.241 -13.416,-6.352 -21.184,-6.352l-11.299,2.11c-15.532,-1.406 -28.244,4.951 -38.835,17.652c-5.648,6.358 -9.179,12.716 -12.002,19.073c0,2.11 0,2.821 2.117,2.821l2.12,-0.711c2.117,-6.351 5.647,-12.701 11.295,-19.06c9.181,-11.295 21.183,-16.246 35.305,-16.246l10.592,-1.406c8.475,0 14.83,2.117 19.773,5.647c6.354,3.531 10.592,10.592 12.709,19.066c0,2.117 0.706,2.117 2.12,2.117l2.117,-2.82c-2.823,-9.886 -7.06,-17.651 -14.828,-21.891Z" style="fill-rule:nonzero;"/><path d="M227.754,406.11c-4.944,-2.827 -11.299,-4.233 -17.652,-4.943l-9.885,0.71c-11.299,0 -21.891,4.233 -31.775,14.825c-4.237,4.937 -7.768,9.889 -10.592,15.529c0,1.42 0,2.123 1.411,2.826l2.827,-1.406c2.117,-4.24 5.648,-9.888 9.178,-14.122c9.178,-9.185 18.36,-13.419 29.658,-13.419l8.472,-0.703c6.354,0.703 11.299,2.109 15.536,4.233c5.647,3.531 9.177,9.179 10.592,16.95c0.706,1.406 2.116,2.11 2.823,1.406l2.117,-2.116c-2.118,-9.178 -6.357,-15.535 -12.71,-19.77Z" style="fill-rule:nonzero;"/><path d="M185.387,443.533c3.531,-6.351 9.178,-9.882 17.654,-9.882l4.236,0c4.237,0.703 7.062,2.821 9.885,4.234c3.531,3.53 5.647,8.468 5.647,14.826c0,1.413 0.708,2.123 2.121,2.123l2.116,-2.827c0,-7.062 -2.824,-12.715 -7.061,-17.653c-3.531,-2.123 -7.061,-4.233 -11.299,-4.943l-6.354,0c-9.885,0 -16.947,4.24 -20.477,12.709c-2.824,4.233 -3.531,8.475 -3.531,12.715c0,1.407 0,2.11 2.117,2.11l1.414,-2.11c0.709,-4.24 1.416,-7.772 3.532,-11.302Z" style="fill-rule:nonzero;"/><path d="M113.363,214.047l-13.416,4.944c2.121,7.061 7.768,14.826 16.946,23.3l12.712,9.178c-1.414,10.592 0,22.597 2.117,38.132c7.768,-3.53 19.773,-13.418 36.013,-29.658c7.061,7.061 18.359,12.005 33.891,13.413c0.708,-5.642 0.708,-13.413 -1.409,-22.591l-2.824,-11.295c8.471,-9.185 16.238,-20.48 23.301,-36.016l-26.831,0.71l-12.005,1.406l-9.885,-19.06l-7.768,-14.833c-10.592,10.592 -19.067,23.301 -24.714,38.836l-26.128,3.534Z" style="fill:#9260c7;fill-rule:nonzero;"/><path d="M111.952,211.227l-12.712,4.234c-1.41,1.406 -2.824,2.117 -2.824,3.53l0.707,0.703c2.117,7.061 6.354,14.123 13.415,21.184l15.536,12.715l-0.707,3.531c0,9.881 0.707,20.473 2.824,32.478l2.12,2.828l2.824,0c8.471,-3.531 19.77,-12.716 34.599,-27.542c7.768,5.647 19.066,10.592 33.188,11.999c2.118,0 3.531,-1.406 4.234,-2.821l0.706,-7.061c0,-7.061 -2.116,-15.536 -4.237,-26.831c7.769,-8.475 15.536,-21.183 21.892,-35.305l0.705,-1.414l-0.705,-2.117l-2.824,-1.414l-36.72,2.117l-16.946,-31.775l-2.824,-2.117c-0.707,0 -1.414,0.71 -2.824,1.414c-10.592,10.591 -18.36,22.59 -24.714,37.422l-24.713,4.242Zm21.184,40.243l-2.121,-2.827c-13.415,-8.468 -22.593,-18.356 -26.124,-27.534c13.416,-5.647 24.714,-7.061 34.599,-7.061l3.53,-2.117c4.238,-13.419 11.299,-24.714 20.477,-33.899l14.829,28.955c0,2.117 2.117,2.82 4.238,2.117l9.885,-0.703l21.89,-1.414c-5.651,12.708 -12.005,22.597 -19.773,29.658l-0.703,2.827l0,0.703l2.116,9.178l2.824,17.653l-0.707,2.117c-12.708,-2.117 -22.593,-5.647 -28.244,-11.295c-2.117,-1.413 -2.824,-1.413 -4.941,0l-29.658,26.121c-2.117,-8.467 -2.117,-16.942 -2.117,-26.824l0,-5.655Z" style="fill-rule:nonzero;"/><path d="M184.681,237.347c-0.707,-1.406 -2.117,-2.117 -3.531,-0.703c-12.001,7.061 -21.89,8.468 -30.361,3.53c-1.414,-1.414 -2.824,-0.703 -3.53,0.704c-0.707,1.414 -0.707,2.827 0.707,4.234l10.591,2.828c8.472,1.413 16.946,-1.407 25.417,-7.062c1.413,-0.704 1.413,-2.117 0.707,-3.531Z" style="fill-rule:nonzero;"/><path d="M149.375,222.522l-2.824,-0.703c-0.707,0.703 -1.414,1.406 -0.707,2.82l3.53,7.771l4.944,13.412c0,1.414 1.41,1.414 2.823,1.414c1.414,0 2.118,-1.414 1.414,-2.827l-4.944,-13.418l-4.236,-8.469Z" style="fill-rule:nonzero;"/><path d="M165.617,221.108l-2.12,-2.117c-2.117,0 -2.823,0.703 -2.117,2.828l1.41,24.003l2.12,1.414l2.117,-2.124l-1.41,-24.004Z" style="fill-rule:nonzero;"/><path d="M178.326,221.108c-0.707,0 -2.117,0 -2.824,1.414c-2.12,4.233 -4.237,11.295 -4.237,21.183c0,0.703 0.707,2.117 2.117,2.117l2.12,-2.117c0,-9.185 2.117,-15.536 3.53,-19.776l-0.706,-2.821Z" style="fill-rule:nonzero;"/><path d="M291.304,251.47c5.647,8.475 16.239,14.122 31.776,19.066c2.116,-5.647 2.116,-12.709 2.116,-23.301l-2.116,-14.122c7.768,-4.944 16.944,-14.122 26.83,-26.127c-6.354,-3.53 -14.826,-5.647 -24.714,-5.647l-13.416,0c-2.116,-7.062 -6.354,-16.247 -12.001,-27.542l-8.476,-14.123c-8.474,8.475 -14.122,18.356 -16.946,29.659c-0.706,6.351 -1.413,11.301 -1.413,15.536c-9.178,0.703 -19.063,3.531 -30.361,9.178l-12.712,7.061c4.236,8.475 14.123,15.536 29.658,19.066c-2.117,10.592 0,24.714 4.237,40.954c9.178,-4.944 18.359,-14.123 27.538,-29.658Z" style="fill:#9260c7;fill-rule:nonzero;"/><path d="M353.44,205.572l-2.116,-2.117c-9.885,-4.944 -21.891,-7.061 -36.72,-5.647c-2.824,-7.061 -6.354,-15.536 -12.709,-26.128l-7.768,-14.122c-0.708,-1.414 -2.116,-1.414 -2.824,-1.414c-0.706,-0.703 -1.413,0 -2.823,1.414c-11.299,12.005 -18.359,26.831 -19.066,43.781c-9.179,1.406 -18.359,4.233 -28.244,9.178l-13.416,7.061l-1.414,3.531l0,1.414c4.945,9.178 14.83,15.529 29.659,19.77l-0.708,5.648c0,10.591 1.414,21.886 4.944,33.898l2.118,2.11l2.822,0c8.476,-4.233 17.654,-12.702 26.836,-26.121c6.354,6.358 16.945,11.999 30.36,16.239l2.824,0l1.413,-2.117l2.119,-16.95l-1.41,-20.48c7.768,-4.938 16.239,-14.123 24.713,-26.121l1.411,-1.414l0,-1.413l-0.001,0Zm-74.844,-14.825c2.116,-9.888 6.354,-17.653 12.002,-24.714c9.885,16.24 15.535,28.245 17.652,36.009c0.707,2.124 1.414,2.827 4.237,2.827l10.593,0l21.182,3.531c-9.178,10.591 -16.945,17.652 -22.596,21.183c-1.41,0.703 -2.118,2.117 -2.118,3.53l2.118,21.887l-1.41,10.591c-13.416,-4.234 -21.891,-9.888 -25.422,-15.529l-2.822,-2.124c-1.414,0 -2.121,0.703 -3.531,1.413c-7.062,12.005 -14.829,20.473 -22.598,26.128c-2.823,-10.592 -3.529,-19.067 -3.529,-27.542l0.706,-7.765l-2.824,-3.53c-12.005,-3.531 -20.477,-7.764 -25.42,-14.122c14.122,-8.475 27.538,-13.419 38.836,-14.122l2.824,-3.531l0,-0.703c0,-4.239 0.706,-8.48 2.12,-13.417Z" style="fill-rule:nonzero;"/><path d="M309.664,228.88c-0.707,-0.71 -2.121,-0.71 -3.531,0l-7.768,4.233l-21.89,0c-2.118,-0.703 -3.531,0 -3.531,1.407c-0.706,2.124 0,2.827 1.413,3.53c9.886,2.827 18.359,2.827 26.831,0.71l8.476,-5.647c2.116,-1.413 2.116,-2.827 0,-4.233Z" style="fill-rule:nonzero;"/><path d="M305.426,209.806c-1.414,-0.703 -2.117,0 -2.117,2.124l-1.413,9.178l-2.116,14.122c0,1.414 0.703,1.414 2.116,1.414l2.116,-1.414l1.414,-14.122l2.117,-9.178c0,-0.703 0,-1.413 -2.117,-2.124Z" style="fill-rule:nonzero;"/><path d="M291.304,213.337c0,-1.407 -0.706,-1.407 -2.823,-1.407c-0.707,0 -1.414,0.703 -0.707,2.117l4.238,23.3c0,1.414 0.705,2.124 2.116,2.124l1.413,-2.827l-1.413,-12.715l-2.824,-10.592Z" style="fill-rule:nonzero;"/><path d="M287.066,236.644c-2.823,-8.475 -6.354,-15.536 -9.885,-19.066l-2.824,0c-0.706,0.71 -0.706,1.414 0,2.82c2.824,3.531 6.354,9.185 8.473,17.653c0.706,1.42 1.413,2.124 2.826,1.42l1.41,-2.827Z" style="fill-rule:nonzero;"/></g></g><rect id="PATH77" x="2.92" y="2.74" width="366.67" height="582.52" style="fill:none;stroke:#000;stroke-width:3px;"/></svg>