<?xml version="1.0" encoding="UTF-8" standalone="no"?><!DOCTYPE svg PUBLIC "-//W3C//DTD SVG 1.1//EN" "http://www.w3.org/Graphics/SVG/1.1/DTD/svg11.dtd"><svg width="100%" height="100%" viewBox="0 0 372 587" version="1.1" xmlns="http://www.w3.org/2000/svg" xmlns:xlink="http://www.w3.org/1999/xlink" xml:space="preserve" xmlns:serif="http://www.serif.com/" style="fill-rule:evenodd;clip-rule:evenodd;stroke-miterlimit:100;"><g><clipPath id="_clip1"><rect x="2.7" y="23.116" width="367.698" height="563.43"/></clipPath><g clip-path="url(#_clip1)"><g><path d="M186.711,285.413c-37.754,0 -74.185,6.624 -109.293,19.212c-33.117,12.58 -63.588,30.466 -91.406,54.31l0,262.298l400.075,0l0,-262.298c-27.158,-23.844 -57.628,-41.729 -91.407,-54.31c-34.445,-12.588 -70.875,-19.212 -107.969,-19.212Z" style="fill:#858585;fill-rule:nonzero;"/><path d="M186.711,282.101c-37.094,0 -73.524,5.964 -107.966,19.212c-35.108,12.581 -66.238,31.127 -94.722,54.97l-1.323,0.666l0,267.597l406.698,0l0,-267.598l-0.662,-0.666c-27.818,-23.843 -59.614,-42.389 -94.72,-54.97c-34.444,-13.248 -70.874,-19.211 -107.305,-19.211Zm-105.316,25.169c33.78,-12.58 68.885,-18.545 105.316,-18.545c35.768,0 70.213,5.965 103.994,18.545c34.441,12.582 64.912,29.808 92.07,52.99l0,257.661l-393.451,0l0,-257.661c27.818,-23.183 58.287,-40.408 92.071,-52.99Z" style="fill-rule:nonzero;"/><path d="M193.997,586.135c-7.949,13.248 -13.247,25.163 -15.896,35.098l4.635,-9.269c3.975,-8.609 8.612,-17.227 13.91,-25.17c15.896,-25.175 37.094,-47.692 65.575,-66.896c25.835,-17.226 54.315,-29.808 86.108,-36.432l27.822,-4.644l9.935,-2.646l-39.08,4.638c-31.133,5.963 -60.276,17.878 -87.435,35.771c-28.479,19.205 -49.676,42.389 -65.574,69.55Z" style="fill-rule:nonzero;"/><path d="M232.415,594.737c-5.298,6.624 -8.61,12.589 -11.923,18.552c-1.985,5.298 -2.648,7.943 -1.325,7.943c2.651,-6.623 7.95,-15.227 15.236,-25.162c14.57,-19.211 32.456,-34.451 54.313,-46.366c21.197,-12.588 44.38,-19.871 67.563,-22.523l21.856,-1.993l7.95,-1.318l-7.95,-0.66l-21.856,0.66c-24.509,2.651 -47.692,9.936 -69.55,22.523c-23.182,12.581 -41.067,28.473 -54.314,48.344Z" style="fill-rule:nonzero;"/><path d="M41.65,540.428c22.521,-7.283 47.693,-10.595 73.524,-9.275c25.169,0.66 49.016,5.304 72.862,14.573c11.921,3.979 21.857,7.95 29.144,11.262l-7.286,-3.972l-20.535,-9.936c-23.843,-9.936 -48.352,-14.579 -74.185,-15.899c-26.495,-0.66 -51.004,2.652 -74.187,10.596c-7.947,1.991 -14.57,5.304 -21.193,8.616l-7.288,3.972l7.948,-3.312l21.196,-6.625Z" style="fill-rule:nonzero;"/><path d="M29.066,556.987c19.871,-1.993 41.066,0 60.938,5.298c19.87,4.638 38.42,13.914 55.641,25.829l15.234,10.603l5.96,3.978l-5.297,-4.645l-13.911,-12.581c-17.222,-12.581 -35.767,-21.857 -56.965,-27.161c-21.857,-5.292 -42.391,-6.625 -61.6,-3.972c-11.262,0.658 -19.208,2.651 -25.172,5.963l25.172,-3.312Z" style="fill-rule:nonzero;"/><path d="M195.983,468.886c-31.13,4.645 -58.288,16.56 -80.809,34.452c-7.949,6.623 -14.573,13.248 -18.548,19.871l20.534,-17.892c22.521,-16.56 49.678,-27.815 79.485,-32.454c29.144,-5.956 57.629,-3.978 86.772,4.639c8.609,1.986 16.559,5.298 24.509,9.275l8.609,3.972c-7.286,-5.304 -17.886,-11.261 -33.118,-15.898c-27.819,-9.277 -56.963,-11.922 -87.434,-5.965Z" style="fill-rule:nonzero;"/><path d="M233.74,450.348l-15.896,12.581l-5.301,5.298c5.301,-4.632 13.247,-9.275 23.184,-15.233c18.549,-12.582 38.42,-21.857 59.613,-29.141c19.872,-7.291 41.069,-13.248 64.252,-15.9l26.495,-4.638l-27.158,1.986c-21.856,1.326 -43.055,6.623 -65.574,14.573c-19.873,7.29 -39.743,17.226 -59.615,30.474Z" style="fill-rule:nonzero;"/><path d="M156.904,474.19l-17.223,-9.936c-19.207,-8.616 -39.742,-13.907 -63.586,-15.24c-22.523,-1.319 -43.717,1.333 -64.915,8.616l-18.546,6.624l-6.623,3.312l25.833,-7.283c20.534,-5.964 41.728,-7.957 63.589,-7.29c23.182,0.666 44.377,5.958 62.925,13.914c9.937,4.631 18.546,9.27 23.847,12.581l-5.301,-5.298Z" style="fill-rule:nonzero;"/><path d="M185.388,472.863c-4.638,-7.289 -11.925,-15.232 -21.859,-23.849c-19.208,-18.539 -41.729,-31.786 -67.562,-41.063c-25.172,-8.616 -51.004,-11.928 -78.162,-11.261l-31.793,4.638l8.609,-0.66l23.184,-0.666c27.82,0 53.654,3.978 76.836,12.581c24.51,7.957 46.367,20.538 66.901,37.764l17.882,15.893l5.964,6.623Z" style="fill-rule:nonzero;"/><path d="M205.26,380.132c-13.911,7.289 -25.172,15.893 -34.445,25.169c-7.95,7.949 -13.91,15.24 -17.885,22.523c5.3,-7.283 11.924,-13.908 19.871,-20.531c21.196,-19.872 49.018,-33.785 82.797,-43.055c31.133,-7.956 61.603,-9.275 93.396,-3.979c15.896,3.313 28.484,6.624 37.094,10.603c0.663,-0.667 -2.648,-2.652 -9.272,-4.645l-27.158,-8.604l-95.381,2.646c-17.224,4.638 -33.785,11.263 -49.017,19.873Z" style="fill-rule:nonzero;"/><path d="M227.117,371.522c0,-0.66 -2.649,-1.327 -7.288,-3.313l-20.534,-5.304l-71.535,-2.646c-24.51,3.313 -47.029,9.936 -67.563,21.198c-6.624,3.972 -12.585,7.943 -17.882,11.921l-5.961,5.299c5.961,-4.632 14.57,-9.276 25.169,-14.568c20.534,-10.602 43.718,-17.226 66.901,-20.537l69.55,2.646l21.193,3.978l7.95,1.326Z" style="fill-rule:nonzero;"/><path d="M226.454,404.641c-16.56,-0.66 -33.119,1.32 -48.353,5.964l-13.911,4.632l-3.975,2.651l19.208,-4.638l47.03,-4.638c16.559,0.66 32.455,2.652 47.028,7.949l18.546,5.958l-4.635,-2.646l-13.911,-5.958c-14.572,-5.963 -29.805,-9.274 -47.027,-9.274Z" style="fill-rule:nonzero;"/><path d="M203.271,390.067l-14.57,3.312c-3.975,1.327 -5.301,2.646 -4.638,2.646l5.297,-1.318l14.574,-1.993c13.91,-2.646 29.807,-1.979 47.692,0.666c16.559,1.985 31.793,6.624 46.367,13.248l18.544,7.949c-3.975,-3.312 -9.935,-7.283 -17.223,-10.596c-13.91,-7.289 -29.807,-12.588 -47.028,-14.579c-16.559,-2.647 -33.119,-2.647 -49.015,0.665Z" style="fill-rule:nonzero;"/><path d="M237.053,371.522l-16.561,2.651l16.561,0l39.08,5.292c13.246,3.312 25.832,7.289 36.43,11.927l15.237,5.965c0.659,-0.666 -4.639,-3.312 -13.911,-8.616c-11.262,-5.964 -23.847,-10.596 -37.094,-13.247l-39.742,-3.972Z" style="fill-rule:nonzero;"/><path d="M87.354,333.765c-19.87,-3.312 -39.743,-3.312 -57.625,0.666l-17.223,5.292l-5.301,3.312c5.301,-2.646 13.249,-4.632 23.184,-5.957c17.222,-3.313 36.43,-2.646 56.965,0.666c17.886,2.646 36.431,7.284 55.639,13.907l22.523,8.609c0.66,-0.666 -6.623,-3.978 -21.196,-10.602c-18.547,-7.943 -37.094,-12.581 -56.966,-15.893Z" style="fill-rule:nonzero;"/><path d="M57.548,313.894l19.208,-1.985l45.043,5.297c19.209,4.639 34.441,9.937 45.04,13.914l17.887,5.958l-17.222,-8.609c-10.6,-5.305 -25.834,-10.596 -44.381,-14.574l-46.367,-4.638l-14.571,1.992c-3.311,1.318 -4.637,1.979 -4.637,2.645Z" style="fill-rule:nonzero;"/><path d="M113.85,294.023l-5.298,1.326l20.534,1.984c17.219,2.646 32.456,6.625 47.689,12.582c20.534,7.289 35.107,13.914 45.703,18.552l18.549,8.609c0,-0.666 -5.301,-3.979 -17.223,-10.602c-11.262,-6.624 -26.495,-13.248 -45.703,-21.191c-16.56,-5.304 -32.457,-9.276 -48.355,-11.261l-15.896,0l0,0.001Z" style="fill-rule:nonzero;"/><path d="M273.482,325.815l-13.91,-8.61c-7.286,-4.638 -19.208,-10.602 -36.431,-17.885c-15.896,-5.964 -28.481,-9.937 -38.416,-11.922l-16.56,-1.325l15.896,3.971l37.756,13.249l36.432,16.559c10.596,3.978 15.233,6.624 15.233,5.963Z" style="fill-rule:nonzero;"/><path d="M246.987,503.997c-18.544,-4.638 -39.742,-6.623 -62.262,-4.638c-22.521,1.326 -43.056,7.29 -59.614,15.894c-6.623,2.651 -11.262,5.963 -16.56,9.276l-4.638,4.638l5.96,-3.313c5.301,-2.646 10.601,-5.957 16.56,-8.61c17.223,-7.283 37.095,-12.587 58.954,-13.906l61.6,3.312l25.169,5.291l-6.623,-3.312l-18.546,-4.632Z" style="fill-rule:nonzero;"/><path d="M141.67,488.758l-5.301,-3.313l-16.559,-5.957c-17.221,-6.625 -35.768,-9.937 -56.302,-9.27c-19.872,0.66 -39.079,3.972 -56.303,9.936l-15.896,7.283l-5.299,3.312l5.961,-1.991l15.898,-5.958c17.885,-5.298 36.432,-7.949 55.64,-8.609c18.548,0 37.093,2.652 55.642,7.943l22.519,6.624Z" style="fill-rule:nonzero;"/></g><g><path d="M87.354,197.978c6.624,1.327 17.223,4.637 33.12,11.921l31.131,-25.17c-7.949,-5.297 -21.859,-8.608 -41.731,-10.601c-11.921,-1.319 -23.843,0.667 -35.767,3.978l-13.248,4.638l19.209,3.972l0.662,0l-0.662,0c-7.947,-1.32 -16.56,0 -25.834,4.638l-10.598,7.951l27.158,-3.313l16.56,1.986Z" style="fill:#fcce00;fill-rule:nonzero;"/><path d="M118.488,212.551l3.311,0l31.793,-25.835l1.327,-2.652l-1.327,-2.645c-9.271,-5.298 -23.846,-8.609 -43.054,-10.602c-13.249,-1.32 -25.169,0.666 -36.431,3.978c-7.288,1.326 -11.923,3.312 -15.233,5.298l-1.326,2.651l0,0.66l2.648,2.651c-7.283,1.987 -13.247,6.625 -19.208,11.256l-0.664,1.993l0.664,1.985c0,1.325 1.326,1.985 3.313,1.325l37.756,-1.992l5.298,0.667c6.624,1.326 16.559,4.639 31.133,11.262Zm-35.108,-24.509l0.663,-1.327c0,-1.32 -0.663,-1.986 -2.648,-2.652l-7.951,-2.645c11.926,-3.313 23.846,-5.298 36.431,-3.979c13.911,0.667 25.173,3.313 35.108,7.29l-25.172,21.198c-16.561,-6.623 -27.154,-9.936 -31.793,-11.262l-4.638,-0.667l-22.521,-1.319c6.625,-2.651 12.584,-3.312 18.549,-2.651c2.649,0.66 3.972,0.001 3.972,-1.986Z" style="fill-rule:nonzero;"/><path d="M124.449,219.176l7.949,0.658l25.169,0l29.144,8.617c21.197,7.943 35.768,17.219 43.718,29.141l-0.663,-11.922c-1.985,-9.936 -5.961,-17.885 -11.922,-23.184l5.298,2.653l10.599,11.914c0,-5.957 -1.325,-11.254 -5.96,-17.878c-7.951,-13.248 -23.184,-21.198 -43.718,-24.51l9.272,-7.29c5.96,-6.623 10.599,-14.566 13.248,-22.516c-7.288,4.637 -14.571,7.95 -20.535,8.609c4.638,-2.652 7.287,-6.624 7.287,-11.922l-29.807,7.95c-13.911,4.632 -24.507,9.936 -31.793,15.233c-7.95,5.958 -12.585,13.249 -14.574,21.858c-15.897,9.275 -25.832,14.572 -30.47,16.559l-11.922,-0.66l-10.599,0.66c-3.312,1.327 -5.297,3.973 -6.623,7.95l-1.986,5.298c-2.648,1.992 -4.638,5.305 -7.286,9.275c-1.986,5.299 -3.313,9.275 -3.975,13.248l7.285,-4.639c5.299,-3.977 9.273,-6.623 11.923,-6.623l10.599,-0.666c4.638,-0.66 7.949,-1.32 11.262,-4.631c3.311,-3.313 9.936,-7.95 18.545,-13.249c9.273,-5.963 15.897,-9.275 20.535,-9.933Z" style="fill:#fcce00;fill-rule:nonzero;"/><path d="M86.691,223.146l-11.922,-0.66l-10.599,0.66c-3.312,1.327 -5.297,3.973 -6.623,7.95l-1.986,5.298c-2.648,1.992 -4.638,5.305 -7.286,9.275c-1.986,5.299 -3.313,9.275 -3.975,13.248l7.285,-4.639c5.299,-3.977 9.273,-6.623 11.923,-6.623l10.599,-0.666c4.638,-0.66 7.949,-1.32 11.262,-4.631l1.985,-1.993c4.638,-7.283 6.624,-13.907 7.95,-21.19l-8.613,3.971Z" style="fill:#d96038;fill-rule:nonzero;"/><path d="M195.323,159.561l-2.651,-1.325l-29.808,8.61c-14.569,4.638 -25.831,9.276 -33.118,15.899c-7.947,5.298 -13.248,13.248 -15.896,21.857c-13.91,8.609 -23.184,13.248 -28.48,15.232l-9.273,-0.658l-13.911,0.658c-4.637,2.652 -7.95,7.951 -9.935,14.575l-7.287,11.261c-1.986,4.633 -3.313,9.275 -3.975,13.248l1.988,3.313l3.973,0l17.222,-11.928l5.962,0l8.612,-0.66c3.312,-0.66 6.624,-1.986 8.609,-4.632c3.312,-3.978 9.935,-7.957 17.886,-12.588c8.609,-5.964 15.234,-9.276 19.209,-9.937l33.118,0.66l29.144,9.276c19.872,7.283 33.781,16.56 41.069,27.155l3.975,1.325c1.985,-0.666 1.985,-1.985 1.985,-3.312l0.663,-1.326l-3.312,-17.219c1.323,1.319 2.648,1.986 3.975,1.319c1.986,-0.66 1.986,-1.319 1.986,-3.313c0,-5.957 -1.986,-11.254 -5.961,-17.878c-7.95,-13.248 -21.197,-21.198 -39.743,-26.496c9.273,-6.625 15.234,-15.9 18.546,-26.495l0,-1.325l-1.986,-2.646c-0.663,-0.667 -1.988,-0.667 -3.975,0l-8.61,4.632l1.323,-5.298l-1.324,-1.984Zm-120.553,66.239c5.961,1.319 10.6,1.319 12.585,0c4.638,-1.326 15.896,-6.624 31.134,-15.9l1.986,-1.985c1.324,-8.609 5.959,-15.234 13.246,-19.872c6.623,-5.957 17.223,-10.603 30.47,-15.233l23.847,-6.625l-3.975,5.298c-0.663,0 -1.326,1.327 -1.326,1.986l0,1.326c0.663,1.985 1.326,2.645 3.312,1.985l13.91,-3.97c-4.635,7.943 -10.599,14.566 -17.222,18.544c-1.323,1.326 -1.986,1.985 -1.986,3.312c0,1.986 0.663,3.313 2.649,3.313c17.886,3.312 29.807,9.936 35.107,21.198l1.322,0l7.288,5.298c-1.327,-2.646 -3.976,-4.64 -8.61,-5.298l-2.652,0.658l-1.322,2.652c0,0.66 0.663,1.32 1.322,1.987c5.301,5.297 8.613,13.246 11.263,23.849c-9.937,-9.275 -24.51,-17.226 -43.055,-23.849l-26.495,-7.95l-24.509,0l-7.947,-0.66l-1.326,0c-5.297,0.66 -12.585,3.971 -21.857,10.596c-8.613,5.304 -14.573,9.936 -19.208,13.907c-1.989,1.993 -6.624,3.312 -12.587,3.312l-7.948,0.666c-1.988,0 -6.623,1.986 -11.925,6.625c1.99,-5.299 3.975,-9.936 7.288,-11.922l1.326,-1.993c1.322,-5.957 3.311,-9.269 6.624,-11.254c1.985,-0.661 4.634,-0.661 9.271,-0.001Zm145.059,-6.624l-1.322,0c4.635,0.658 7.283,2.651 8.61,5.298l-7.288,-5.298Z" style="fill-rule:nonzero;"/><path d="M172.141,193.339c-8.612,1.993 -16.56,6.624 -21.861,13.249c-1.322,1.326 -0.662,1.992 0,2.651c0.664,1.319 1.326,1.319 2.65,0c5.3,-5.964 11.924,-9.935 19.871,-11.927l11.262,-0.66l1.985,-1.986c0,-1.326 0,-1.985 -1.985,-1.985l-11.922,0.658Z" style="fill-rule:nonzero;"/><path d="M72.785,234.409c-0.664,-1.986 -1.99,-3.313 -3.977,-3.313c-1.989,0 -2.648,1.326 -1.989,3.979c0,2.644 0.665,3.311 3.313,3.311c1.989,0.001 3.311,-1.332 2.653,-3.977Z" style="fill-rule:nonzero;"/><path d="M150.943,46.958c-1.986,-1.993 -5.299,-3.313 -9.936,-5.304c-8.609,-3.972 -19.209,-5.958 -30.47,-7.943l-36.431,1.319l-13.248,4.644c6.625,0.66 13.248,2.646 19.209,5.292c-7.947,-2.646 -16.56,-1.32 -26.496,3.312l-11.258,7.29l27.818,-2.646l16.559,3.972c5.965,0.66 16.559,5.298 31.797,13.248l32.456,-23.184Z" style="fill:#fcce00;fill-rule:nonzero;"/><path d="M154.254,46.958l-1.324,-3.313c-8.609,-5.963 -22.521,-9.935 -42.392,-13.248c-19.872,-2.651 -36.431,0 -51.664,6.624c-1.326,0 -1.326,0.66 -1.326,2.652l0,0.66c0,0.66 0,1.32 1.988,1.986c-5.302,1.326 -9.276,3.312 -13.911,5.958l-5.301,4.644l-1.322,2.646l0,1.326c0.664,1.986 1.986,1.986 3.975,1.986c12.585,-3.312 24.508,-3.312 37.754,0l4.639,1.327c5.96,0.659 16.559,5.297 31.129,13.248l3.313,-0.66l33.119,-23.849l1.323,-1.987Zm-66.9,6.623l-5.298,-1.326l-22.521,-2.646l19.209,-1.333c1.985,0 3.312,-0.66 3.975,-2.646l0.66,-0.666l-2.649,-3.312l-7.287,-2.646l36.431,-1.986c13.911,1.986 25.173,5.298 34.446,9.936l-26.496,19.211c-16.56,-7.289 -27.158,-11.926 -30.47,-12.586Z" style="fill-rule:nonzero;"/><path d="M186.048,37.682c4.638,-2.652 7.949,-6.624 7.949,-11.256l-30.469,5.958c-13.911,3.312 -25.17,7.95 -32.456,13.247c-7.949,5.298 -13.911,12.582 -15.897,21.198c-16.56,8.61 -26.495,13.248 -31.795,14.567l-11.259,-1.32l-11.262,0c-2.649,1.32 -5.298,3.312 -6.625,7.283l-1.984,5.305c-3.313,1.319 -5.301,4.631 -7.949,9.27c-1.986,4.638 -3.977,8.609 -4.635,13.247l7.283,-5.297c5.301,-3.312 9.936,-5.964 11.925,-5.964l11.259,0c3.975,0 7.949,-0.66 10.598,-3.312c4.639,-3.972 11.262,-7.284 19.871,-11.921c9.272,-5.298 16.56,-8.61 21.197,-8.61l7.947,1.32l24.508,1.333l29.146,10.595c20.534,8.61 34.444,19.212 42.391,31.126l0,-12.58c-1.985,-9.936 -5.298,-17.886 -10.595,-23.85l4.634,3.978l10.6,11.921c0,-5.298 -1.326,-11.255 -5.961,-17.879c-7.287,-13.248 -21.197,-22.523 -41.731,-27.162l9.936,-6.624c6.623,-6.624 11.262,-13.914 13.911,-21.857c-7.29,4.631 -14.573,7.284 -20.537,7.284Z" style="fill:#fcce00;fill-rule:nonzero;"/><path d="M46.949,109.883c5.301,-3.312 9.936,-5.964 11.925,-5.964l11.259,0c3.975,0 7.949,-0.66 10.598,-3.312l3.313,-1.986c4.637,-6.624 6.623,-13.248 7.949,-21.197l-8.612,3.972l-11.259,-1.32l-11.263,0c-2.649,1.32 -5.298,3.312 -6.625,7.283l-1.984,5.305c-3.313,1.319 -5.301,4.631 -7.949,9.27c-1.986,4.638 -3.977,8.609 -4.635,13.247l7.283,-5.298Z" style="fill:#d96038;fill-rule:nonzero;"/><path d="M209.895,31.058l0,-0.66l-0.663,-2.651l-4.635,-0.66l-8.613,4.632l1.326,-5.292l-1.326,-2.651l-2.648,-0.66l-30.471,5.958c-14.569,3.978 -25.831,8.61 -33.778,14.573c-7.949,5.298 -13.911,11.922 -16.56,20.532l-29.807,13.904l-9.276,-1.319c-5.959,-1.326 -10.595,-1.326 -13.247,0c-5.962,2.652 -9.272,7.284 -11.259,13.908c-3.313,2.652 -5.301,5.964 -7.949,10.595c-1.986,3.978 -3.975,8.616 -4.635,13.247l0,0.667c0,1.326 0.66,1.986 1.322,2.646l3.975,-0.66c8.609,-5.963 13.911,-9.276 17.886,-9.936l5.962,0c7.945,1.326 13.247,-0.66 17.882,-3.972l18.548,-11.928c8.61,-4.631 15.233,-7.943 19.871,-7.943l32.455,2.652l29.146,10.596c19.208,8.609 32.455,18.544 39.742,29.807c0.663,0.66 1.326,1.32 3.313,0.66l2.648,-1.986l0,-4.637l-1.985,-13.908l3.975,0.66l2.648,-3.312c0,-6.624 -2.648,-12.588 -6.623,-19.871c-6.625,-11.922 -19.209,-20.531 -36.432,-26.495c9.271,-6.625 15.896,-15.235 19.208,-26.496Zm-21.195,-0.661l-4.638,4.632c-0.663,0.667 -1.326,1.992 -1.326,2.652l0,1.326c0.663,1.986 1.326,2.646 3.312,1.986l13.91,-3.312l-12.584,13.248l-6.624,4.638c-0.662,0.667 -1.326,1.326 -1.326,3.312c0,1.327 0.664,2.646 1.989,3.313c17.882,3.978 29.145,11.921 34.441,23.183l1.326,0l6.624,6.624c-0.663,-3.312 -3.976,-5.297 -7.95,-6.624l-2.648,0.667l-1.323,1.979l1.323,1.992c4.638,6.624 7.949,14.567 9.272,25.168c-9.272,-9.935 -23.184,-19.204 -41.065,-26.494c-11.261,-5.298 -20.534,-8.61 -25.832,-9.27l-1.327,0l-23.845,-1.333l-7.286,-1.319l-1.324,0c-5.301,0 -13.247,3.312 -23.184,8.609c-8.611,4.638 -15.235,9.27 -19.87,13.248c-2.649,1.986 -6.624,3.313 -13.247,1.986l-6.624,0c-3.313,0 -7.288,2.652 -13.249,5.964c2.65,-5.304 5.299,-9.276 7.947,-11.262l1.327,-1.986c1.985,-5.304 3.975,-8.616 7.285,-9.936l9.937,0l11.922,0.66c5.301,-0.66 16.559,-5.298 32.455,-13.908l1.99,-1.992c1.986,-7.943 6.623,-14.567 14.57,-19.872c7.285,-4.632 17.885,-9.27 31.132,-12.581l24.51,-5.298Zm28.481,54.977l-1.326,0c3.975,1.327 7.287,3.313 7.95,6.624l-6.624,-6.624Z" style="fill-rule:nonzero;"/><path d="M170.814,56.893c-9.272,1.32 -16.561,5.298 -23.184,11.922c0,1.326 0,1.986 0,3.312l3.313,-0.666c5.961,-5.958 12.585,-9.269 20.535,-11.255l11.258,0c0.663,0.659 1.326,0 1.989,-1.327l-1.326,-1.986l-12.585,0Z" style="fill-rule:nonzero;"/><path d="M69.473,91.998c-0.664,-2.646 -1.988,-3.978 -3.975,-3.978c-1.327,0.667 -2.649,1.992 -2.649,3.978c0,1.986 1.322,3.312 3.312,3.312c2.648,0 3.312,-1.327 3.312,-3.312Z" style="fill-rule:nonzero;"/><path d="M263.547,80.076c-11.261,-3.312 -23.183,-4.638 -35.104,-3.312l-14.574,1.986c6.623,1.326 13.248,4.638 18.546,7.95l-26.495,-1.327l-12.585,5.298l27.82,2.652c4.635,0.66 9.937,3.312 15.897,5.297c5.96,1.986 15.896,7.95 29.144,18.545l36.431,-18.545c-6.624,-6.622 -19.871,-13.246 -39.08,-18.544Z" style="fill:#fcce00;fill-rule:nonzero;"/><path d="M305.939,99.288l-0.663,-2.652c-7.947,-7.95 -21.857,-13.907 -40.403,-19.872c-11.924,-3.312 -24.509,-4.638 -36.43,-3.972l-15.237,2.646c-1.986,0 -2.648,1.326 -2.648,3.312c0,1.326 0.662,1.986 2.648,1.986c-5.298,1.326 -9.936,2.652 -15.232,4.638l-6.625,3.313l-1.326,1.986l0.663,1.326c0,1.986 1.326,2.646 3.312,1.986l22.521,1.326l13.911,4.638l5.961,1.986c4.638,1.985 13.909,7.95 27.82,17.885l3.313,0l36.431,-17.885l1.984,-2.647Zm-39.08,13.907c-13.247,-9.936 -22.521,-15.24 -28.481,-17.219l-4.638,-1.993c-7.286,-3.312 -13.911,-5.297 -20.534,-5.297l-1.323,-0.667l1.323,0.667l17.223,1.326c1.986,0 3.312,0 4.638,-1.992l0.66,-1.319l-1.986,-3.313l-7.286,-3.312c13.247,-1.326 24.509,0 36.431,3.312c14.573,3.972 25.832,9.276 33.781,15.233l-29.808,14.574Z" style="fill-rule:nonzero;"/><path d="M300.642,135.052l26.495,14.574c19.207,11.921 32.455,24.502 37.753,37.09l1.326,-11.921c0,-9.935 -1.986,-18.545 -6.624,-25.169l3.975,3.972l8.609,13.906c0.663,-5.957 0.663,-11.914 -2.648,-19.205c-5.298,-13.914 -17.886,-25.168 -37.093,-33.119l9.935,-5.297c7.287,-4.638 13.911,-11.262 17.223,-19.211c-7.95,3.972 -15.233,5.304 -21.197,4.638c5.301,-1.986 8.612,-5.298 9.936,-9.936l-31.795,1.326c-13.91,1.319 -25.169,3.972 -33.118,8.609c-9.272,3.978 -15.896,9.936 -19.872,18.545l-33.118,9.276l-10.6,-2.652l-10.598,-1.986c-3.312,1.326 -5.961,3.312 -8.609,6.624l-3.313,4.639c-2.649,1.319 -5.961,3.971 -8.609,7.943c-2.652,3.977 -5.301,7.29 -5.964,11.928l7.949,-3.972c5.961,-2.653 9.937,-3.979 12.585,-3.979l9.936,1.986l11.925,-1.986c5.298,-2.645 11.922,-5.957 21.193,-9.269c9.937,-3.978 17.223,-5.964 22.521,-5.304l7.95,2.652l23.847,5.298Z" style="fill:#fcce00;fill-rule:nonzero;"/><path d="M182.736,149.626l7.949,-3.972c5.961,-2.653 9.937,-3.979 12.585,-3.979l9.936,1.986l11.925,-1.986l3.313,-1.985c5.297,-5.304 8.609,-11.928 11.921,-19.211l-9.936,2.652l-10.6,-2.652l-10.598,-1.986c-3.312,1.326 -5.961,3.312 -8.609,6.624l-3.313,4.639c-2.649,1.319 -5.961,3.971 -8.609,7.943c-2.652,3.976 -5.301,7.289 -5.964,11.927Z" style="fill:#d96038;fill-rule:nonzero;"/><path d="M316.537,83.388c-14.572,1.986 -26.495,4.632 -35.768,8.61c-7.95,4.638 -14.573,10.602 -18.548,18.545l-31.793,9.276l-9.273,-2.652c-5.301,-1.986 -9.936,-3.312 -13.247,-1.986c-5.301,1.326 -9.935,5.299 -13.248,11.922c-3.312,2.652 -5.96,5.304 -8.612,9.276l-6.624,12.587l0,0.66c0,0.659 0,1.985 0.664,2.651l3.975,0.66c9.272,-5.304 15.896,-7.95 19.208,-7.95l5.301,1.326l18.546,-1.326c3.975,-3.313 10.598,-5.957 19.87,-9.27l20.535,-5.304c6.624,2.651 17.223,5.964 32.455,7.951l26.496,14.573c18.545,11.256 29.807,23.184 35.104,35.105l3.312,1.986l3.312,-1.986l1.326,-13.914l-0.663,-5.958l0.663,1.326c0.663,0.66 1.986,1.986 3.312,1.32l2.649,-2.646l0.664,-4.637c0,-7.284 -1.986,-15.234 -6.625,-21.858c-5.961,-10.601 -15.896,-19.205 -29.807,-26.495c10.6,-5.297 18.546,-13.247 23.184,-22.516l0,-1.992l0,-1.986l-4.638,-0.667l-9.273,2.652l1.989,-4.632l0.659,-0.667l-1.321,-1.986l-2.65,-1.326l-31.134,1.328Zm14.574,28.482c-1.326,1.325 -1.989,1.985 -1.989,3.311c0,1.986 0.663,3.313 1.326,3.313c16.559,6.624 27.158,16.559 30.47,28.481c0.66,-0.66 0.66,-0.66 0.66,0l6.623,7.283c-0.659,-2.646 -3.312,-5.958 -7.283,-7.283c-1.326,-0.66 -1.989,-0.66 -2.651,0l-1.986,2.652l0.663,1.985c3.975,6.624 5.961,13.915 5.961,22.517l0,2.651c-7.95,-10.595 -19.872,-21.856 -36.431,-31.792c-10.6,-6.623 -19.209,-11.262 -24.509,-13.248l-0.66,0l-23.847,-5.298l-7.287,-2.653l-1.326,0c-5.298,-0.659 -13.247,1.327 -24.506,5.965c-8.612,3.311 -15.236,6.624 -20.534,9.276l-13.247,0.659l-7.287,-1.325l-13.911,4.637c3.313,-5.303 6.624,-9.276 9.936,-10.595l1.327,-1.993c2.648,-5.298 5.961,-7.943 9.272,-8.61l9.272,1.327c3.975,2.651 7.95,3.312 11.262,3.312c5.961,-0.66 16.559,-3.972 34.444,-9.936l1.986,-1.326c6.623,-14.573 23.183,-22.516 50.341,-25.168l25.169,-1.326l-5.96,3.978c-0.663,0.66 -1.326,1.319 -1.326,2.646l0,0.667c0,1.979 1.326,2.645 2.651,2.645l13.907,-1.326c-3.312,4.638 -7.946,8.616 -13.247,11.261l-7.283,3.313Zm30.467,35.104c0,-0.66 0,-0.66 -0.66,0c3.972,1.325 6.624,4.637 7.283,7.283l-6.623,-7.283Z" style="fill-rule:nonzero;"/><path d="M320.512,111.87c-8.612,0 -17.222,3.311 -24.509,8.609c-0.663,1.325 -0.663,1.992 0,2.652l2.648,0c6.625,-4.638 13.911,-6.625 21.86,-7.285l11.26,1.32c0.663,0.66 1.325,0 1.988,-0.66c0,-1.326 0,-2.651 -0.663,-3.312l-12.584,-1.324Z" style="fill-rule:nonzero;"/><path d="M214.532,131.74c0.663,-2.646 0,-4.638 -1.989,-4.638c-1.985,0 -3.312,1.326 -3.972,3.312c-0.663,2.651 0.66,3.972 2.648,3.972c2.65,0.666 3.313,-0.66 3.313,-2.646Z" style="fill-rule:nonzero;"/></g></g></g><rect id="PATH77" x="2.92" y="2.74" width="366.67" height="582.52" style="fill:none;stroke:#000;stroke-width:3px;"/></svg>