<?xml version="1.0" encoding="UTF-8" standalone="no"?><!DOCTYPE svg PUBLIC "-//W3C//DTD SVG 1.1//EN" "http://www.w3.org/Graphics/SVG/1.1/DTD/svg11.dtd"><svg width="100%" height="100%" viewBox="0 0 372 587" version="1.1" xmlns="http://www.w3.org/2000/svg" xmlns:xlink="http://www.w3.org/1999/xlink" xml:space="preserve" xmlns:serif="http://www.serif.com/" style="fill-rule:evenodd;clip-rule:evenodd;stroke-miterlimit:100;"><g><clipPath id="_clip1"><rect x="2.863" y="12.143" width="366.981" height="573.054"/></clipPath><g clip-path="url(#_clip1)"><path d="M41.055,314.632l-9.535,-2.036l-27.937,6.129l0,55.866l20.439,8.854l8.176,1.364l6.135,1.358c5.449,4.09 8.177,7.495 7.492,9.54l-3.406,6.813l-2.722,6.813c0,1.364 2.722,4.086 7.493,5.456l12.26,1.356c5.45,-1.356 12.264,-4.084 19.075,-7.491c10.22,-4.77 15.675,-10.898 17.033,-17.032c1.364,-4.771 6.813,-11.583 15.674,-18.396l12.94,-8.856l4.091,-35.428l-17.032,-8.177l-3.405,0l-7.499,2.729l-8.177,-0.68l-6.813,-7.499c-8.171,-6.813 -12.94,-10.904 -14.984,-14.311c-0.684,-2.036 -4.091,-3.406 -9.54,-4.763l-11.583,2.043c-2.042,0.684 -2.721,3.405 -0.678,7.498c1.363,4.763 1.363,6.813 0.678,8.168l-8.175,0.682Z" style="fill:#858585;fill-rule:nonzero;"/><path d="M39.697,311.91l-8.176,-2.043c-4.77,0 -14.31,2.043 -28.616,6.135c-1.363,0.678 -2.042,2.036 -2.042,2.723l0,55.866l1.364,2.726l20.438,9.535l9.533,0.687l4.093,0.677l1.357,1.358l5.454,5.454l-2.726,5.45c-2.728,4.091 -3.408,6.813 -3.408,8.855l2.728,4.77c2.043,1.364 4.765,3.407 9.535,4.093l10.905,0.678l19.753,-8.176c10.219,-5.448 16.353,-11.583 17.718,-17.717c2.72,-8.171 11.575,-16.348 27.93,-26.568l0.677,-2.042l4.771,-35.428l-2.042,-2.723l-17.711,-8.182l-3.405,0.687l-8.862,2.72l-3.407,0.686l-4.764,-4.092l-4.091,-4.765l-13.626,-13.624c-1.363,-2.051 -4.77,-4.087 -10.219,-5.457l-15.667,1.37c-2.728,2.723 -3.408,6.128 -0.68,12.257l0.68,4.091l-7.494,0l0,-0.001Zm10.219,-11.583l11.577,-0.678l6.813,2.726l14.989,14.985l3.408,4.084l6.133,4.775l8.178,0l9.532,-2.726l14.313,6.813l-3.408,32.699c-17.029,9.535 -25.893,19.075 -28.615,27.938c-1.363,5.442 -6.133,10.219 -14.989,14.982c-6.134,4.087 -12.947,6.136 -19.075,7.493l-9.541,-1.357l-6.813,-3.407l2.728,-5.456l3.407,-6.813c0.678,-3.405 -2.043,-6.813 -7.498,-11.576l-1.358,-1.364c-2.048,-1.364 -4.771,-2.043 -7.499,-1.364l-7.49,-1.355l-18.396,-7.499l0,-51.782l25.209,-6.129l6.813,1.364l11.583,-0.678l2.722,-4.776l-1.365,-6.128c-1.358,-2.723 -1.358,-4.093 -1.358,-4.771Z" style="fill-rule:nonzero;"/><path d="M109.183,356.881l-25.888,-3.409l-35.428,-4.775l-42.235,-6.129c-2.049,0 -2.728,0.687 -2.728,2.044c0,1.364 0.679,2.048 2.043,2.048l41.563,5.442l36.108,5.456l25.209,3.407c2.042,0 2.719,0 2.719,-1.364c0.686,-1.365 0,-2.72 -1.363,-2.72Z" style="fill-rule:nonzero;"/><path d="M62.857,305.783l-2.721,0c-1.364,0.679 -2.05,2.036 -0.687,2.72l8.857,13.627c6.813,10.904 12.269,22.481 17.717,34.751c0.679,0.677 1.364,1.355 2.721,0.677c1.364,0 2.05,-1.363 1.364,-2.049c-4.771,-12.941 -11.584,-24.523 -18.396,-36.101l-8.855,-13.625Z" style="fill-rule:nonzero;"/><path d="M59.45,323.494l-2.72,0c-1.363,1.355 -1.363,2.042 -0.686,2.726c4.092,4.766 10.905,8.171 21.124,10.222l2.722,-1.37c0.686,-2.037 0,-2.723 -1.365,-2.723c-10.218,-2.042 -17.032,-5.449 -19.075,-8.855Z" style="fill-rule:nonzero;"/><path d="M34.242,321.444c0,-1.358 -1.357,-2.036 -2.721,-0.679c-0.686,0.679 -0.686,1.364 -0.686,2.729l8.862,12.261c6.813,8.856 13.627,14.312 18.39,18.397l3.407,-0.681c1.364,-0.684 0.685,-2.048 -0.678,-2.727c-4.771,-3.405 -10.899,-8.861 -17.712,-17.711l-8.862,-11.589Z" style="fill-rule:nonzero;"/><path d="M21.301,325.536c-0.685,-1.363 -2.043,-0.687 -2.727,0c-0.68,1.364 -0.68,2.721 0.684,3.406c5.45,3.406 13.627,6.813 24.524,10.904l2.728,-1.37c0,-1.357 0,-2.035 -2.048,-2.722c-9.536,-3.405 -17.034,-6.812 -23.161,-10.218Z" style="fill-rule:nonzero;"/><path d="M51.96,350.066c-0.687,-0.685 -1.364,-1.37 -2.044,-0.685c-17.718,6.813 -32.021,10.904 -44.283,11.583c-1.363,0 -2.049,1.356 -2.049,2.728l2.049,2.036c12.941,-1.358 27.93,-5.442 45.641,-12.94c1.364,0 2.05,-1.364 0.686,-2.722Z" style="fill-rule:nonzero;"/><path d="M86.703,354.83c-1.365,-1.358 -2.043,-1.358 -2.722,-1.358c-20.438,10.221 -34.065,16.349 -42.241,17.711c-0.685,0 -2.043,1.358 -2.043,2.729l2.722,2.035c8.854,-2.035 22.481,-8.17 42.919,-18.389l1.365,-2.728Z" style="fill-rule:nonzero;"/><path d="M101.693,356.194l-2.728,0l-16.347,13.626l-26.574,20.438c-1.364,0.686 -1.364,1.364 -0.678,2.723l2.72,0.683c6.134,-4.09 14.99,-10.904 27.252,-21.122l15.675,-12.94l0.68,-3.408Z" style="fill-rule:nonzero;"/><path d="M77.847,373.911c-0.68,0 -2.042,0.68 -2.728,2.035l-1.357,10.222c-2.049,6.813 -4.771,12.269 -8.862,14.994c-0.68,1.358 -0.68,2.723 0,2.723l3.407,0.684c3.407,-4.091 6.813,-9.541 8.861,-17.03l2.722,-10.905c0,-2.043 0,-2.723 -2.043,-2.723Z" style="fill-rule:nonzero;"/><path d="M321.068,194.727c-2.043,0 -4.771,2.728 -8.177,8.862l-6.813,9.535c-4.086,0.685 -7.491,-2.042 -10.898,-6.813c-1.364,-2.042 -4.771,-2.042 -9.541,2.042c-5.449,3.407 -8.177,8.177 -9.54,12.269c-0.679,2.721 0,6.813 1.363,10.898l2.728,8.855c0,6.127 -2.728,8.177 -8.177,7.498c-2.728,-0.686 -4.085,-2.049 -5.449,-5.455l-1.364,-10.898c0,-3.407 -2.727,-4.77 -6.813,-3.407c-4.085,0.679 -7.49,2.729 -10.897,5.45c-2.728,2.042 -4.092,5.449 -4.771,10.219c-0.686,5.449 0,10.219 1.364,15.668c2.042,6.813 -0.686,18.397 -9.541,35.429c0,8.177 3.406,14.989 8.855,20.438c4.771,4.093 11.584,8.179 21.802,11.585c7.493,2.729 21.119,2.042 40.199,-3.406c16.347,-4.086 26.567,-8.179 29.973,-10.898c2.044,-1.37 3.406,-6.813 4.771,-14.997c0,-9.535 0,-14.305 -1.364,-15.662l-8.854,-2.728c-4.771,-0.679 -7.492,-1.363 -7.492,-2.728c-0.686,-1.357 1.358,-3.406 6.128,-5.449l9.541,-4.091c2.042,-1.358 2.721,-4.764 2.721,-10.898l-0.679,-10.897l-6.813,-2.728c-3.406,0 -5.449,-0.679 -6.135,-2.043c0,-1.364 0.686,-3.407 2.729,-4.77l6.134,-5.449c0.679,-2.043 1.358,-6.813 0.679,-14.311l-2.729,-14.983c0,-4.088 -4.084,-6.137 -12.94,-6.137Z" style="fill:#858585;fill-rule:nonzero;"/><path d="M305.399,210.402c-2.729,0.679 -5.455,-1.371 -7.498,-5.456c-1.364,-2.043 -3.405,-3.407 -6.127,-2.043c-3.406,0 -6.813,2.043 -10.904,5.449c-3.407,4.085 -6.128,8.177 -6.813,11.583c-1.363,4.092 -0.679,8.855 1.364,14.989l2.042,5.449l-1.363,4.771l-4.086,0c-1.364,0 -3.405,-3.406 -3.405,-10.898l-0.68,-2.728c0,-2.728 -2.049,-4.77 -3.405,-6.134l-10.221,1.364l-8.862,4.77c-3.406,2.043 -4.764,6.813 -5.448,12.262c0,5.449 0,10.904 1.364,17.032c1.363,2.721 0,8.177 -2.728,16.346l-6.813,15.676l0,2.043c0,9.533 3.406,17.032 10.219,23.847c5.456,3.405 12.948,7.495 22.489,10.904c7.49,2.72 21.796,2.033 41.556,-3.409c16.353,-4.09 27.251,-7.495 30.657,-10.904c2.728,-2.042 4.771,-8.854 6.135,-20.438l0,-5.45c0,-4.77 -0.686,-8.176 -2.05,-8.862l-9.534,-3.407l-5.448,-1.356c0.678,-0.68 4.085,-2.05 9.533,-4.771l4.092,-2.042c3.407,-1.364 4.086,-6.134 4.086,-13.625l-1.364,-11.583c-1.364,-2.042 -3.407,-3.406 -8.855,-3.406l-3.406,-1.364l3.406,-2.043l5.448,-5.449l1.364,-6.813l-2.042,-14.99l-1.364,-8.855c0,-6.134 -4.77,-8.862 -15.668,-8.862c-2.728,0 -6.813,4.092 -10.904,10.904l-4.767,7.499Zm-16.352,-1.371l4.085,-1.357c3.405,6.813 8.177,8.855 12.947,7.491c2.727,0 5.448,-3.406 8.854,-8.855c3.407,-6.127 4.771,-8.855 6.135,-8.855c7.491,0 10.898,0.679 10.898,3.406l0.685,8.855l1.356,14.99l-0.678,3.406l-3.406,4.764c-3.407,2.728 -4.771,5.456 -4.771,6.813l0,1.371c0.686,2.721 3.406,4.085 8.177,4.085l4.086,0.678l1.362,8.177l-2.042,10.22l-3.406,2.042c-9.54,3.407 -13.625,6.813 -13.625,10.219l0,0.678c0,2.729 3.405,4.092 10.897,5.457l6.134,1.358l0.68,4.777l-0.68,12.94l-3.406,9.535c-3.406,2.048 -12.948,5.454 -28.615,10.219c-18.396,4.775 -31.337,5.456 -38.835,3.405c-8.855,-3.405 -15.668,-7.489 -20.439,-11.576c-4.764,-4.771 -7.491,-10.898 -8.169,-18.396l6.127,-12.941c2.728,-7.498 4.092,-14.311 4.092,-19.082l-0.686,-4.085l-2.042,-10.898c0,-6.134 2.042,-10.219 4.085,-12.268c2.728,-2.042 4.771,-3.407 7.499,-4.085l5.448,-0.678l0.679,0.678l0,3.406l2.05,10.22c1.356,3.407 3.405,5.448 6.812,5.448c3.407,0.686 6.128,0 8.171,-2.042c2.729,-1.365 3.405,-4.085 3.405,-8.177l-2.041,-8.177c-2.043,-4.085 -2.043,-8.17 -2.043,-10.898c0,-2.728 2.043,-4.771 4.084,-6.813l6.136,-5.455Z" style="fill-rule:nonzero;"/><path d="M295.181,220.621c0,-2.049 -1.364,-2.049 -2.728,-2.049c-1.364,0 -1.364,1.364 -1.364,2.728c1.364,10.219 4.771,20.439 8.855,31.336c0.686,1.364 2.049,1.364 2.727,1.364c1.364,-0.685 2.044,-2.042 1.364,-3.407c-4.769,-10.218 -7.498,-20.438 -8.854,-29.972Z" style="fill-rule:nonzero;"/><path d="M332.651,254c-0.685,-2.042 -2.049,-2.042 -2.728,-2.042l-21.118,4.085l-10.218,1.364c-2.051,0 -2.729,0 -2.729,1.364c0,2.042 0.678,2.042 2.729,2.042l10.896,-0.685l21.118,-4.085c2.05,-0.001 2.05,-0.679 2.05,-2.043Z" style="fill-rule:nonzero;"/><path d="M312.892,272.396c0,-1.363 -0.679,-1.363 -2.043,-1.363l-14.312,2.721l-8.854,0.686c-1.363,0.685 -2.043,1.364 -2.043,2.72c0,1.371 0.68,2.05 2.729,1.371l9.533,-0.685l14.312,-2.722c0.678,-0.685 1.356,-1.371 0.678,-2.728Z" style="fill-rule:nonzero;"/><path d="M329.245,300.327c0,-1.358 -1.364,-2.042 -2.729,-1.358l-60.637,7.493c-1.356,0 -2.042,0.677 -2.042,2.041l2.042,2.043l27.252,-2.727l34.063,-5.444l2.051,-2.048Z" style="fill-rule:nonzero;"/><path d="M327.881,289.428c-0.686,-1.364 -1.364,-1.364 -2.728,-1.364c-3.407,1.364 -8.856,4.092 -15.669,8.178l-9.54,6.133c-0.679,1.358 -1.356,2.723 -0.679,3.408l3.405,0l8.856,-5.456c6.134,-4.085 11.583,-6.813 14.989,-8.171c1.366,-0.685 2.045,-1.37 1.366,-2.728Z" style="fill-rule:nonzero;"/><path d="M278.148,294.192l0.679,-2.722c-7.492,-10.219 -12.947,-20.438 -17.032,-32.7l-3.407,-14.99l-2.041,-2.042c-1.364,0 -2.044,0.679 -1.364,2.728c0,2.721 0.678,8.169 3.405,15.662c3.407,12.268 9.541,23.166 17.033,34.064l2.727,0Z" style="fill-rule:nonzero;"/><path d="M284.961,256.721c0,-1.357 -1.363,-1.357 -2.727,-1.357c-0.68,0 -1.364,1.357 -0.68,2.728c2.721,9.534 4.765,14.983 6.813,16.347l3.406,0c0.679,-0.686 0.679,-1.364 0,-2.043c-2.726,-2.728 -4.09,-7.491 -6.812,-15.675Z" style="fill-rule:nonzero;"/><path d="M323.11,206.995c-1.364,-0.685 -2.729,0 -2.729,1.357c-6.127,14.99 -14.303,31.336 -23.158,49.054c-19.075,34.064 -37.472,55.867 -55.189,66.766c-1.357,0.677 -1.357,1.363 -0.678,2.728c0.678,1.356 2.042,1.356 2.728,0.678c18.39,-10.898 37.471,-33.386 55.86,-67.45l23.846,-50.412c0.685,-1.363 0,-2.042 -0.68,-2.721Z" style="fill-rule:nonzero;"/><path d="M118.045,142.273l-15.674,1.357l8.862,9.541c6.813,5.449 13.626,8.855 20.439,8.855l27.929,1.363c4.085,0.679 10.898,3.407 19.075,9.541l-8.177,-14.996c-4.085,-2.036 -8.17,-4.085 -12.262,-5.443l-10.219,-6.134c-4.771,-2.05 -8.177,-3.407 -11.584,-3.407l-18.389,-0.677Z" style="fill:#858585;fill-rule:nonzero;"/><path d="M152.11,146.358c-6.134,-4.085 -11.584,-6.134 -15.675,-6.134l-8.17,-0.679l-27.25,2.042l-1.364,1.364l0.679,2.042l9.541,10.22c7.491,6.127 14.99,8.855 21.803,8.855l26.566,2.049l1.363,0c4.771,0.679 10.22,4.084 17.033,8.848l3.407,0l0.677,-3.406l-7.49,-14.983l-0.679,-1.363l-13.625,-5.449l-6.816,-3.406Zm-44.969,-1.364l20.439,0l8.855,0.685c3.407,0 7.498,1.357 12.948,4.764l19.76,9.541l2.722,5.449c-5.45,-3.406 -9.536,-4.771 -12.264,-4.771l-0.678,0l-27.251,-2.042c-7.499,0 -15.675,-4.092 -24.531,-13.626Z" style="fill-rule:nonzero;"/><path d="M272.693,139.545c6.134,-8.177 8.861,-14.99 6.134,-18.396c-0.679,-2.042 -4.085,-3.406 -9.541,-3.406l-12.262,3.406l-10.898,4.77l-10.904,3.407c-7.491,0 -14.982,1.357 -22.48,4.764c-2.722,2.049 -5.449,5.456 -6.813,10.904l-5.449,10.22c-6.813,5.449 -12.946,14.989 -17.031,29.293l6.813,1.364l4.085,-7.498c3.406,-5.442 6.813,-9.534 10.905,-10.897l14.304,0.678l14.989,2.049c3.406,-1.363 6.134,-3.406 8.855,-6.813c3.406,-4.77 6.813,-7.491 9.54,-9.541l12.262,-7.491l7.491,-6.813Z" style="fill:#858585;fill-rule:nonzero;"/><path d="M274.742,140.902c7.492,-9.534 9.533,-16.347 6.813,-21.117c-2.049,-3.407 -6.134,-4.764 -12.269,-4.085c-4.763,0 -8.855,0.678 -13.626,3.406l-4.085,2.042l-16.354,4.77c-8.17,0 -16.346,2.043 -23.845,5.45c-4.085,2.042 -6.813,6.813 -8.171,13.625l-4.77,8.177c-6.135,4.764 -12.262,14.982 -18.396,30.657l0,2.042l2.042,1.364l7.499,2.042c1.356,0 2.721,0 2.721,-2.042c4.093,-8.862 8.856,-14.99 14.312,-17.033l12.263,0.679l15.667,1.363c4.771,-1.363 8.855,-4.092 11.583,-8.176l8.177,-8.17l10.221,-6.134l10.218,-8.86Zm-60.638,-4.763c6.813,-2.728 13.626,-4.77 21.117,-4.77l18.396,-5.45l4.092,-2.049l11.576,-2.721c4.092,-0.685 6.135,0 7.499,1.364c1.363,2.728 -0.686,7.492 -6.136,14.983l-8.854,7.499l-10.22,6.813l-10.219,8.855l-8.178,6.813l-12.939,-2.042l-16.354,0c-6.135,2.042 -10.898,8.176 -14.989,17.717l-2.044,-0.685c4.771,-12.262 9.542,-21.124 14.306,-25.209c2.728,-1.357 5.455,-5.449 6.813,-10.897c2.05,-4.773 3.407,-8.179 6.134,-10.221Z" style="fill-rule:nonzero;"/><path d="M267.929,128.647l-2.729,-0.686c-8.176,5.449 -16.353,9.534 -25.208,12.262c-10.22,3.406 -19.753,9.541 -29.294,17.711l-12.947,12.268c-0.679,0.679 -0.679,2.042 0.686,2.729l2.722,-0.686l11.583,-10.904c9.54,-8.17 19.074,-14.305 28.615,-17.033c9.541,-2.721 17.711,-7.491 25.888,-12.94l0.684,-2.721Z" style="fill-rule:nonzero;"/><path d="M221.596,55.063c6.813,-10.219 12.268,-19.075 15.676,-27.93c-9.541,3.406 -19.082,9.541 -28.615,17.033c-19.075,15.668 -30.658,32.7 -32.7,51.096c17.03,-6.814 32.699,-20.439 45.639,-40.199Z" style="fill:#ffe000;fill-rule:nonzero;"/><path d="M238.629,25.083l-2.722,0c-10.22,4.091 -19.76,10.219 -29.979,17.717c-19.075,15.668 -29.972,32.701 -32.7,52.46c0,0.679 0,1.357 0.679,2.042l2.728,0c17.71,-6.813 33.385,-20.438 47.011,-39.513c6.813,-10.219 11.576,-20.439 14.983,-29.979l0,-2.727Zm-34.743,26.573c8.177,-7.491 17.71,-14.305 27.93,-19.76c-13.626,29.301 -31.337,48.376 -52.454,58.595c3.408,-13.626 10.898,-26.566 24.524,-38.835Z" style="fill-rule:nonzero;"/><path d="M117.359,60.519l-32.021,-10.905l23.845,25.888c20.438,17.031 39.521,25.208 57.911,24.522c-10.221,-16.346 -26.568,-29.286 -49.735,-39.505Z" style="fill:#d96038;fill-rule:nonzero;"/><path d="M167.094,102.074l2.727,-1.364l-0.678,-2.042c-10.219,-16.353 -26.573,-29.979 -49.739,-40.198l-33.38,-10.899l-2.729,0.678l0.686,2.728l25.202,27.252c19.081,17.032 38.836,25.202 57.911,23.845Zm-49.049,-21.802c-9.541,-7.499 -18.396,-16.347 -25.894,-25.888c32.021,8.855 55.867,23.167 70.178,42.92c-14.31,-0.685 -29.301,-6.813 -44.284,-17.032Z" style="fill-rule:nonzero;"/><path d="M90.794,102.753c-14.311,4.77 -25.895,9.541 -36.115,14.99l42.243,1.364c30.657,-2.049 51.782,-10.219 63.358,-25.209c-18.389,-3.407 -42.235,-0.001 -69.486,8.855Z" style="fill:#d96038;fill-rule:nonzero;"/><path d="M162.329,95.261l0,-2.049l-2.049,-1.357c-18.389,-3.406 -41.556,-0.678 -69.486,8.17c-13.627,4.777 -25.895,9.541 -37.471,15.676l-1.364,2.728l2.042,1.357l44.285,1.364c29.978,-2.044 51.776,-10.22 64.043,-25.889Zm-54.502,20.439c-14.311,2.042 -29.302,2.042 -44.284,0.678c36.106,-16.354 66.765,-23.167 91.288,-20.438c-10.218,9.54 -25.887,16.353 -47.004,19.76Z" style="fill-rule:nonzero;"/><path d="M172.548,41.437c-2.728,-10.219 -6.134,-19.76 -10.219,-26.573c-3.406,7.499 -6.134,17.032 -6.812,27.937c-2.728,21.803 1.355,40.192 11.576,55.867c8.863,-17.032 10.22,-35.429 5.455,-57.231Z" style="fill:#d96038;fill-rule:nonzero;"/><path d="M163.686,13.507l-1.357,-1.364l-2.728,2.042c-3.406,8.177 -6.134,18.396 -6.812,29.301c-2.728,21.796 2.042,40.192 12.946,56.539l1.358,0.686l2.727,-1.364c5.45,-10.219 6.135,-21.117 2.728,-33.386c0.679,8.862 -2.049,17.718 -6.134,26.573c-6.134,-10.897 -9.542,-24.523 -9.542,-38.149c0,-10.219 2.05,-21.803 5.456,-33.386c7.492,14.99 10.898,29.301 10.898,43.605c3.407,-6.813 3.407,-14.305 2.043,-22.488c-2.721,-10.898 -6.126,-20.439 -11.583,-28.609Z" style="fill-rule:nonzero;"/><path d="M235.907,80.272c10.897,-6.813 19.753,-13.626 26.566,-20.438l-33.38,4.091c-24.53,6.127 -42.241,16.347 -53.138,31.336c18.39,2.043 38.149,-2.728 59.952,-14.989Z" style="fill:#d96038;fill-rule:nonzero;"/><path d="M262.474,57.791l-34.743,4.085c-24.524,6.134 -42.92,16.354 -54.503,32.022l0,2.042l2.043,1.364c19.074,2.721 39.513,-2.042 61.315,-14.989l27.938,-20.439l0.677,-2.728l-2.727,-1.357Zm-41.557,10.897c10.898,-3.406 22.481,-5.449 34.743,-6.134l-28.608,19.76c-16.354,8.176 -32.021,11.583 -46.334,10.897c9.542,-10.897 23.168,-18.388 40.199,-24.523Z" style="fill-rule:nonzero;"/><path d="M195.709,46.207c1.363,-8.855 1.363,-17.032 -0.679,-23.845c-5.449,4.77 -11.583,11.583 -16.354,19.753c-9.534,16.354 -12.262,33.387 -6.812,51.782c12.947,-12.94 21.123,-28.615 23.845,-47.69Z" style="fill:#ffe000;fill-rule:nonzero;"/><path d="M193.666,20.998c-6.813,4.771 -11.583,11.583 -17.032,19.76c-6.813,11.577 -8.177,23.845 -4.77,35.422c0,-18.39 7.497,-34.744 21.801,-49.048l0,8.855c0,19.754 -6.813,37.471 -20.438,52.46l-1.363,-11.583c-2.722,6.128 -3.408,11.583 -2.722,17.718l1.357,1.357l2.728,0c13.625,-13.625 22.481,-29.294 24.523,-48.369c1.364,-10.22 1.364,-18.396 -0.679,-25.209l-1.363,-2.043l-2.042,0.68Z" style="fill-rule:nonzero;"/><path d="M139.163,44.843l-23.166,-21.118c2.048,9.541 5.454,20.439 10.219,31.337c9.541,23.167 23.167,37.471 40.878,44.962c-2.043,-18.388 -11.576,-36.785 -27.931,-55.181Z" style="fill:#ffe000;fill-rule:nonzero;"/><path d="M169.821,99.346c-2.727,-19.074 -11.583,-37.471 -27.251,-55.181l-24.524,-23.167c-0.686,-0.679 -2.048,-0.679 -3.406,0c0,0.679 -0.686,1.364 -0.686,2.728c2.043,10.898 5.45,22.481 10.219,34.065c10.219,22.481 24.531,37.471 42.242,44.284l2.728,0l0.678,-2.729Zm-38.149,-37.471c-5.457,-10.219 -8.862,-21.117 -11.584,-32.701c24.525,20.439 38.835,42.242 43.598,66.086c-12.262,-6.812 -23.16,-17.031 -32.014,-33.385Z" style="fill-rule:nonzero;"/><path d="M102.371,77.551l-31.336,-1.371l29.293,18.403c22.482,10.897 42.241,12.94 59.952,4.763c-14.984,-10.898 -34.065,-19.074 -57.909,-21.795Z" style="fill:#ffe000;fill-rule:nonzero;"/><path d="M160.966,102.074l1.363,-2.05l-0.686,-2.035c-14.989,-12.269 -34.064,-19.76 -57.909,-23.167l-32.7,-1.364c-0.68,0 -1.364,0.685 -2.043,1.364l0.68,3.407l30.657,19.074c22.482,10.22 42.92,12.262 60.638,4.771Zm-51.783,-6.134c-10.896,-4.085 -21.795,-10.219 -31.336,-17.71c31.336,0 56.545,6.813 76.984,20.438c-13.625,4.763 -28.616,3.406 -45.648,-2.728Z" style="fill-rule:nonzero;"/><path d="M182.77,131.369c0.678,-8.856 1.355,-17.718 3.405,-25.888l2.042,-10.219l-8.176,-1.364c-6.135,0 -10.22,2.042 -12.947,6.813l-7.493,-1.364c-6.134,0 -11.583,1.364 -16.353,4.771l8.862,10.905l12.941,17.71c1.363,3.407 7.497,31.337 17.718,83.797c10.896,57.91 17.709,92.66 21.794,106.285l33.386,116.498c17.711,60.637 30.659,98.108 38.15,113.092l-11.576,34.063l23.159,0c18.396,-42.234 29.979,-73.578 35.428,-93.33c3.406,-9.541 10.22,-30.659 23.166,-65.408l23.847,-70.172l-4.092,-59.272c-39.515,126.039 -66.766,203.7 -81.756,233.001c-22.48,-56.553 -42.241,-117.184 -59.272,-181.904c-10.898,-44.284 -21.117,-90.611 -30.658,-138.301c-8.17,-43.606 -11.575,-69.495 -11.575,-79.713Z" style="fill:#858585;fill-rule:nonzero;"/><path d="M366.716,295.563l-2.729,2.723c-37.471,115.817 -64.043,191.445 -79.712,226.187c-22.48,-59.272 -40.877,-117.867 -56.545,-175.09c-10.898,-42.92 -20.438,-87.883 -29.979,-134.895c-8.17,-43.605 -12.262,-70.856 -12.262,-81.755l0,-1.363c0.686,-8.856 1.363,-17.033 3.407,-25.209l2.041,-10.219l0,-0.679l-1.356,-2.728l-11.583,-0.679c-4.771,0 -8.856,2.043 -11.584,5.449c-8.855,-2.042 -17.032,-0.685 -24.523,4.771l-1.365,2.042l0.68,1.364l8.177,10.898l12.946,18.396c1.357,2.043 6.813,28.616 17.032,78.349c10.898,57.909 18.39,95.38 23.16,110.371l7.498,27.93c31.337,112.411 52.454,179.183 62.674,200.98l-10.898,32.708l0,2.719l2.729,1.364l23.159,0l2.042,-2.051c18.396,-42.912 30.657,-73.569 36.792,-93.331l19.76,-57.908c13.626,-38.15 22.482,-63.365 26.567,-76.99l0,-1.358l-3.406,-59.272l-2.722,-2.724Zm-196.895,-193.489c3.407,-4.771 7.492,-6.813 14.99,-4.771c-2.041,11.583 -4.093,22.481 -4.77,34.065l0,1.363c0,12.262 4.084,39.513 12.261,81.755c8.856,47.012 19.075,91.975 30.657,135.58c10.22,40.191 23.167,81.755 38.836,126.718l19.76,55.858c0.68,1.372 1.356,1.372 2.721,1.372l2.044,-1.372c13.625,-27.251 40.197,-100.821 78.348,-219.369l2.728,44.284l-26.573,76.984l-20.439,57.909l-34.744,91.29l-17.031,0l10.219,-30.658l0,-0.678l0,-1.358c-10.219,-18.403 -30.658,-85.847 -64.044,-200.979l-7.491,-27.937c-4.086,-16.347 -12.262,-52.461 -23.167,-109.692c-9.534,-50.411 -14.982,-77.663 -17.031,-81.069l-19.075,-25.888c5.449,-3.406 11.583,-4.085 18.396,-2.728l3.405,-0.679Z" style="fill-rule:nonzero;"/><path d="M118.045,204.268c-10.218,3.406 -14.989,7.492 -13.624,13.626c2.719,8.855 2.719,14.983 -0.687,17.711c-2.721,2.049 -3.407,4.77 -4.085,6.813c-0.685,2.728 1.364,6.134 4.085,8.176c9.54,8.177 12.946,14.312 10.904,19.075c-2.049,2.727 -4.771,4.771 -8.863,6.135c-5.448,0.678 -8.168,2.042 -8.854,2.727c-1.364,2.036 -1.364,5.443 0,9.534c0.686,4.771 3.406,8.178 5.448,10.221c3.406,2.72 12.269,6.126 25.894,10.218c16.349,4.771 31.337,6.813 44.284,6.813c12.262,0 20.439,-3.405 23.161,-12.261l0.686,-11.584c5.448,-8.855 8.169,-17.032 8.169,-23.845l-2.042,-9.534c-0.679,-2.728 0,-6.134 1.364,-9.54c5.448,-17.033 3.406,-26.573 -6.813,-30.658c-4.085,-1.364 -8.176,0.678 -11.583,6.813l-8.176,10.219l-8.17,-6.813l-9.542,-10.219l-10.218,-1.364c-4.086,0 -8.177,-0.685 -10.898,-2.042l-10.22,-8.177c-3.407,-2.044 -6.814,-3.409 -10.22,-2.044Z" style="fill:#858585;fill-rule:nonzero;"/><path d="M126.901,202.903l-9.542,-1.364c-5.448,2.049 -9.532,3.407 -11.583,4.771c-3.406,3.406 -4.763,7.498 -3.406,12.262c2.051,8.177 2.051,12.947 0,14.99c-3.406,2.721 -5.448,6.127 -5.448,10.219c0,3.406 2.042,6.813 5.448,9.534c8.175,6.134 11.583,12.268 9.541,15.675c-0.679,2.042 -4.084,3.406 -9.541,4.085c-3.406,1.364 -6.813,2.728 -7.491,4.084c-1.363,2.05 -2.044,4.778 -1.363,9.541c2.042,6.815 4.091,11.585 7.497,13.627c4.085,2.728 12.94,6.812 26.566,10.898c17.034,4.776 31.344,7.499 44.969,7.499c10.899,0 17.711,-3.409 22.482,-8.857c2.721,-4.084 4.771,-8.177 4.771,-14.305l-0.686,-4.092c5.448,-8.177 8.177,-16.347 8.177,-23.845l-1.364,-9.534l-1.364,-3.407l1.364,-5.456c2.044,-6.134 3.406,-11.576 3.406,-16.353c0,-8.17 -3.406,-14.305 -10.897,-17.032c-6.813,-2.721 -12.262,0.685 -17.719,10.905l-3.405,5.449l-6.813,-6.813l-10.219,-9.541l-10.219,-1.357l-10.22,-2.728l-4.764,-3.407l-8.177,-5.448Zm-8.176,4.092c2.726,-0.685 7.491,0.679 12.947,5.442l5.448,4.092c2.721,2.042 7.493,3.407 12.941,3.407l8.176,0.685l8.177,7.491c4.085,6.813 8.856,9.541 11.584,9.541c2.719,-0.686 5.449,-2.728 8.176,-8.862l4.085,-7.492l6.135,0c8.169,2.728 9.533,11.577 4.084,25.887c-1.363,5.449 -1.363,9.534 0,12.262l1.364,8.177c0,6.813 -2.728,13.625 -8.177,21.802l0,7.493c0,4.084 -0.679,7.49 -3.406,9.541c-3.407,4.764 -9.542,6.134 -17.711,6.134c-12.947,0 -27.252,-2.05 -42.927,-6.813c-13.625,-4.093 -21.794,-7.498 -25.886,-10.221c-2.721,-1.37 -4.085,-4.092 -4.77,-9.54c0,-3.407 0,-4.771 0,-5.457l5.457,-2.036c6.811,-2.049 10.218,-4.091 12.26,-7.498c2.043,-3.406 1.364,-8.177 -2.042,-12.94l-8.863,-9.54c-2.042,-1.365 -3.406,-3.407 -3.406,-4.771c0,-2.042 1.364,-4.77 3.406,-6.127c3.407,-3.406 4.092,-10.219 2.051,-20.438c-1.365,-4.091 2.718,-7.498 10.897,-10.219Z" style="fill-rule:nonzero;"/><path d="M121.451,216.529c-0.684,-1.364 -2.047,-1.364 -3.406,0c-0.686,0 -0.686,1.364 0,2.042l22.481,30.658c19.075,23.846 40.192,43.605 62.68,59.273l2.722,-0.684l0,-2.722c-22.48,-15.67 -42.92,-34.75 -61.995,-57.911l-22.482,-30.656Z" style="fill-rule:nonzero;"/><path d="M182.083,285.345l14.312,-50.419c0.678,-1.363 0,-2.049 -1.364,-2.728c-1.364,0 -2.043,0 -2.729,1.364l-14.989,51.096c0.686,-1.364 2.048,-2.042 2.728,-1.364c1.363,0.68 2.042,1.364 2.042,2.051Z" style="fill-rule:nonzero;"/><path d="M152.79,228.112c0,-2.049 -0.68,-2.728 -2.043,-2.049c-1.363,0.686 -2.042,1.371 -1.363,2.049l2.042,14.305l2.043,21.802c0,0.685 0.686,1.363 2.05,1.363c0.678,0.679 1.355,0 2.042,-0.678l0.679,-0.685c3.406,-8.177 6.134,-16.347 8.177,-25.888l-2.043,-2.049c-1.364,-0.679 -2.042,0 -2.042,2.049l-5.456,17.032l-4.086,-27.251Z" style="fill-rule:nonzero;"/><path d="M120.088,242.417c-0.685,-1.358 -2.043,-1.358 -2.729,0c-1.363,1.363 -1.363,1.363 0,2.728l8.856,6.813c6.813,3.407 14.99,6.134 23.167,6.813c1.363,0.678 2.042,0 2.042,-1.364c0.686,-1.364 0,-2.042 -2.042,-2.042c-7.492,-1.364 -14.305,-3.407 -21.119,-7.492l-8.175,-5.456Z" style="fill-rule:nonzero;"/><path d="M126.215,271.032c-0.677,0 -1.357,0 -2.042,1.363c0,1.358 0,2.043 1.365,2.728l14.988,3.407l33.38,4.085l2.728,-2.05l-2.728,-2.036l-32.701,-4.091l-14.99,-3.406Z" style="fill-rule:nonzero;"/><path d="M154.153,424.324l-12.262,7.497c-8.863,6.813 -13.627,11.576 -15.676,14.303c-2.042,3.409 -2.721,7.493 -1.357,12.263l3.406,9.534l-0.685,7.499c-0.679,3.406 0,6.126 2.042,6.813l11.584,0.686l8.177,1.356l-10.22,7.493c-7.491,6.134 -9.542,12.269 -7.491,19.758c1.356,2.729 3.406,4.087 5.448,4.087c2.042,0 4.771,1.37 5.449,4.776l3.407,14.305c0.679,5.448 2.728,8.854 4.77,9.54l5.449,4.085c2.042,1.357 4.085,0 6.813,-2.049l7.492,-7.492c2.728,-2.729 4.771,-4.084 6.813,-4.084l8.862,2.728c2.722,0 4.763,-1.372 7.491,-3.406c7.492,-10.22 12.262,-19.761 13.626,-27.253l0,-12.947c0,-3.405 2.042,-4.77 4.085,-4.77c2.728,0 4.771,2.723 6.135,6.813c0.678,5.45 3.405,8.856 6.812,10.904l16.354,5.444l14.306,-2.036c4.085,-3.408 7.491,-8.185 10.218,-14.313c2.044,-6.127 2.044,-10.219 0,-12.939c-6.133,-4.777 -9.54,-10.22 -10.218,-14.313l-0.68,-10.219l-2.728,-10.218c-5.449,-10.221 -10.219,-17.033 -14.989,-20.439c-8.178,-6.128 -20.438,-9.534 -37.471,-10.22c-17.711,-1.364 -32.7,0.685 -44.962,6.814Z" style="fill:#858585;fill-rule:nonzero;"/><path d="M199.115,414.103c-18.397,-0.684 -33.379,1.364 -46.326,7.499c-3.407,2.723 -8.176,5.442 -13.627,9.534c-8.176,6.128 -12.947,10.219 -14.99,13.624c-3.406,5.45 -3.406,11.585 0,19.756l0.686,4.09l0,4.093c-0.686,6.128 0,10.22 4.085,12.255l11.582,0.686l1.365,0c-8.863,6.813 -13.627,12.941 -13.627,21.123l1.357,5.444c1.365,4.776 3.407,6.812 6.813,6.812c2.05,0 2.728,0.685 3.407,2.049l2.728,11.576l2.044,8.863c1.363,2.728 2.726,4.764 4.77,5.448l3.407,2.722l5.448,2.05c1.363,0 4.091,-0.68 6.813,-3.407l6.813,-6.813c1.363,-2.729 4.091,-4.085 5.448,-4.085l4.77,1.356l6.814,0.68l6.813,-3.408c8.177,-10.219 12.947,-20.437 14.311,-29.287l0,-8.182l0.679,-6.129l0.679,-0.684l2.728,4.775c2.728,6.813 5.449,10.898 9.541,12.255c14.304,7.498 25.202,8.863 32.015,3.408c7.499,-4.765 11.584,-11.577 12.948,-20.438c1.364,-4.087 0.678,-7.493 -0.68,-9.535l-2.729,-3.406l-7.49,-10.221l-0.686,-6.812c0,-6.813 -2.042,-12.261 -3.406,-14.989c-5.449,-10.22 -10.22,-17.711 -15.669,-21.117c-8.177,-6.815 -21.117,-10.221 -38.834,-11.585Zm-43.597,12.941c10.897,-6.127 25.2,-8.171 42.919,-6.813c16.347,0.686 28.615,4.093 36.106,10.218c4.086,2.051 9.541,8.863 14.305,18.403c1.364,2.722 2.728,6.813 2.728,12.941l0.679,6.812c0.685,4.093 3.406,8.856 9.541,14.313l1.364,2.035l0.679,5.456c-1.364,7.492 -5.45,12.946 -10.899,17.711c-4.77,4.086 -14.31,2.05 -27.251,-4.084c-2.042,-0.681 -4.771,-4.087 -6.134,-8.863c-2.042,-6.128 -4.771,-8.848 -8.177,-8.848l-4.764,2.035c-2.05,1.37 -2.728,4.777 -2.728,10.22l0,8.182c-0.68,7.492 -4.771,16.349 -12.948,25.203l-3.405,2.05l-4.085,-0.686l-5.449,-0.687c-4.092,-1.356 -7.499,1.372 -10.905,5.456l-5.45,6.135l-2.72,2.036l-2.728,-1.358l-4.085,-2.728c-2.048,-0.678 -2.727,-4.085 -3.406,-10.897l-3.408,-12.269c-2.048,-3.405 -4.091,-5.441 -8.176,-5.441c-1.364,0 -2.042,-1.37 -2.042,-2.728c-2.05,-5.457 0,-11.584 6.128,-17.711l9.541,-6.136l1.364,-2.049l0,-2.035c-2.727,-2.728 -6.134,-3.407 -12.269,-2.728l-8.169,0l-2.051,-2.05l0.687,-4.084l0.679,-6.814l-1.365,-4.764c-2.042,-3.405 -2.72,-6.813 -2.72,-9.54l1.363,-4.77c2.719,-4.091 11.574,-11.582 27.251,-21.123Z" style="fill-rule:nonzero;"/><path d="M198.437,415.467l-1.364,-2.048c-1.363,0 -2.728,0.684 -2.728,1.37c-4.085,32.016 -8.17,51.097 -14.304,57.909c-8.856,10.898 -16.355,30.657 -21.803,58.588c-0.679,1.356 0,2.729 1.363,2.729l2.728,-1.372c4.765,-27.251 12.262,-46.317 21.118,-57.223c4.085,-4.092 7.49,-15.669 10.897,-33.379l4.093,-26.574Z" style="fill-rule:nonzero;"/><path d="M174.591,489.045c-0.685,-1.364 -1.363,-2.043 -2.042,-1.364l-12.947,4.771c-8.855,4.092 -14.305,8.178 -17.032,12.94c0,1.37 0,2.05 0.679,2.729l2.728,-0.679c2.042,-3.405 6.813,-6.813 12.947,-10.22l14.304,-5.454c1.363,0 2.043,-1.359 1.363,-2.723Z" style="fill-rule:nonzero;"/><path d="M178.676,480.868c-0.678,-1.357 -2.042,-2.042 -2.72,-0.678c-2.05,0 -2.05,1.355 -0.686,2.728l4.771,10.896c3.406,9.541 6.134,18.392 7.491,28.61l2.728,1.37l1.363,-2.729c-1.363,-9.541 -4.771,-19.081 -8.176,-28.615l-4.771,-11.582Z" style="fill-rule:nonzero;"/><path d="M186.175,499.949c-1.364,-0.685 -2.728,0 -2.728,0.68l-3.406,6.133c-1.365,5.444 -3.407,10.221 -3.407,15.663c0,1.37 0.679,2.047 2.042,2.047c1.365,0 2.042,-0.677 2.042,-2.047c0,-4.764 1.365,-9.535 2.729,-13.627l3.405,-6.126c0.68,-0.687 0.001,-2.043 -0.677,-2.723Z" style="fill-rule:nonzero;"/><path d="M193.666,442.041c0,-0.687 0,-1.371 -2.043,-1.371c-8.176,1.371 -19.075,5.454 -34.064,11.589l-19.759,7.492c-1.365,1.358 -1.365,2.043 -1.365,2.728c0.686,2.037 2.05,2.721 2.728,1.356l19.761,-8.17c14.304,-5.455 25.887,-9.541 34.064,-10.905c0.678,-0.684 1.357,-2.041 0.678,-2.719Z" style="fill-rule:nonzero;"/><path d="M183.447,444.076c-1.365,-1.357 -2.729,-0.679 -3.406,0.684c-8.856,14.991 -16.355,24.531 -23.168,27.938c-0.678,0.678 -0.678,2.035 -0.678,2.722c0.678,1.364 2.042,2.042 3.406,0.684c6.813,-4.09 14.99,-13.625 23.846,-29.299c1.364,-1.359 0.678,-2.045 0,-2.729Z" style="fill-rule:nonzero;"/><path d="M215.468,424.324c-0.685,-1.364 -1.363,-2.045 -2.727,-0.687c-1.364,0.687 -1.364,1.37 -1.364,2.728l36.113,72.215c0.679,1.369 1.357,1.369 2.722,1.369c1.363,-0.685 1.363,-1.369 1.363,-3.406l-25.208,-49.061l-10.899,-23.158Z" style="fill-rule:nonzero;"/><path d="M225.003,442.041c-1.357,0 -2.044,0 -2.044,2.035l-0.678,14.311c0,10.219 1.364,19.754 3.406,28.615c0.68,2.043 1.364,2.043 2.721,2.043l1.364,-2.72c-2.042,-8.863 -3.405,-18.404 -3.405,-28.624l0.685,-12.941c0,-2.041 -0.685,-2.719 -2.049,-2.719Z" style="fill-rule:nonzero;"/><path d="M203.206,424.324c0,-2.045 -0.685,-2.723 -2.728,-2.045c-0.678,0 -1.363,0.681 -1.363,2.045l1.363,21.122c0,16.348 0,30.657 -2.728,43.599c-0.679,1.364 0,2.723 2.05,2.723l2.042,-2.037c2.043,-12.946 2.721,-27.937 2.721,-44.971l-1.357,-20.436Z" style="fill-rule:nonzero;"/><path d="M145.976,360.965c-40.877,6.812 -59.273,17.032 -55.182,31.337c3.406,14.988 23.845,14.988 61.995,1.361c38.148,-14.31 57.23,-24.529 55.182,-31.342c-0.679,-7.491 -21.796,-7.491 -61.995,-1.356Z" style="fill:#ffe000;fill-rule:nonzero;"/><path d="M182.77,383.445c19.752,-10.219 28.607,-17.033 27.929,-21.803l-4.771,-4.085c-10.219,-3.405 -28.615,-3.405 -54.503,0c-29.293,4.085 -48.368,10.219 -57.908,19.759c-4.772,4.765 -6.813,9.535 -5.45,15.664c2.728,11.588 17.032,14.996 42.241,9.54c15.668,-3.406 33.378,-9.54 52.462,-19.075Zm-17.719,-22.48l41.562,2.041c-1.363,3.406 -13.626,10.221 -36.792,20.439c-24.524,11.582 -44.962,17.032 -59.952,17.032c-9.541,0 -15.668,-2.722 -17.717,-8.855l0,-2.049c0,-5.442 4.771,-9.534 12.27,-14.305c13.623,-7.492 34.062,-12.262 60.629,-14.303Z" style="fill-rule:nonzero;"/><path d="M207.972,362.321c2.048,-6.127 -17.712,-15.662 -57.91,-25.88c-40.878,-10.905 -61.317,-9.541 -64.038,3.405c-2.043,13.625 16.347,22.475 57.909,26.565c41.556,4.093 62.68,2.723 64.039,-4.09Z" style="fill:#ffe000;fill-rule:nonzero;"/><path d="M175.956,369.82c21.795,0 33.378,-2.722 34.742,-6.814c0,-2.041 -0.679,-3.405 -2.727,-5.448c-7.493,-6.813 -24.524,-14.304 -51.776,-21.803c-29.294,-8.854 -50.419,-10.219 -61.995,-6.813c-6.813,2.72 -10.219,6.129 -10.219,10.904c-2.049,10.898 9.536,19.754 35.422,24.523l56.553,5.451Zm-9.541,-26.566c24.523,8.848 38.149,14.304 39.513,19.067l-42.92,2.727c-28.616,-1.355 -49.733,-4.762 -64.043,-11.576c-6.813,-3.405 -10.898,-7.496 -10.898,-11.588l0,-1.358c0.678,-4.771 6.134,-7.491 15.668,-8.177c14.99,-0.687 36.106,2.722 62.68,10.905Z" style="fill-rule:nonzero;"/><path d="M214.104,311.91c-3.406,-33.38 -10.898,-49.055 -24.523,-47.005c-12.947,1.357 -14.99,18.389 -5.456,50.411c9.541,32.702 17.033,47.69 23.847,47.006c6.811,-1.357 8.86,-18.39 6.132,-50.412Z" style="fill:#ffe000;fill-rule:nonzero;"/><path d="M214.783,303.055c-3.406,-28.616 -12.262,-42.242 -25.202,-40.878c-5.456,0.679 -9.54,4.085 -10.905,8.855c-4.085,9.534 -2.72,25.21 3.406,47.006c5.45,19.081 11.583,32.707 19.076,42.248c2.728,2.72 5.455,4.762 6.813,4.084c4.77,-0.678 7.496,-8.176 8.86,-21.803c0.681,-13.625 0.001,-26.565 -2.048,-39.512Zm-24.523,-35.429c6.135,-1.364 11.583,4.77 15.668,16.348c4.771,12.269 6.813,27.937 6.135,47.012c-0.686,17.711 -1.364,27.251 -4.771,28.615c-3.406,-0.685 -8.177,-9.534 -14.99,-27.252c-7.491,-18.397 -11.584,-34.063 -11.584,-47.69l0,-2.721c0.686,-8.863 3.407,-14.312 9.542,-14.312Z" style="fill-rule:nonzero;"/><path d="M267.244,267.626c-8.177,-6.813 -21.118,6.813 -39.514,40.193c-18.396,32.706 -25.209,51.781 -20.438,55.187c5.449,4.093 18.396,-9.534 40.198,-40.191c21.118,-29.98 27.931,-48.376 19.754,-55.189Z" style="fill:#d96038;fill-rule:nonzero;"/><g><path d="M256.347,272.396c4.084,-3.406 7.491,-4.77 9.533,-2.727l1.364,3.407c3.405,-2.043 4.091,-4.764 1.364,-7.492c-3.408,-2.729 -7.492,-0.679 -12.261,6.812Z" style="fill-rule:nonzero;"/><path d="M260.431,307.819c4.093,-6.814 4.77,-12.941 4.093,-19.755c-5.456,13.626 -14.99,28.616 -29.302,47.007c-14.305,17.717 -22.48,25.894 -26.565,25.894c-1.364,-4.084 3.406,-17.033 14.989,-40.199c11.576,-24.523 23.159,-40.878 32.701,-48.37c-4.771,0 -8.178,2.043 -11.584,5.45c-10.22,12.263 -20.439,28.616 -29.979,49.055c-10.22,22.481 -12.94,34.742 -8.855,38.147c4.771,3.409 14.989,-4.762 31.344,-24.522l23.158,-32.707Z" style="fill-rule:nonzero;"/></g><path d="M231.137,309.867c9.54,-37.472 8.177,-57.231 -4.085,-58.588c-12.269,-2.049 -19.76,16.347 -23.846,53.819c-3.405,36.786 -2.048,56.545 4.086,57.908c6.812,2.042 14.304,-15.666 23.845,-53.139Z" style="fill:#ffe000;fill-rule:nonzero;"/><path d="M227.73,248.552c-10.898,-1.365 -18.396,10.219 -23.845,33.385c-3.407,15.662 -4.771,32.695 -4.085,51.776c0,19.759 2.721,30.657 7.491,32.016c1.364,0.684 3.406,0 5.449,-2.723c6.135,-6.812 12.946,-23.159 19.76,-47.69c7.491,-27.251 8.855,-45.647 5.448,-56.545c-2.041,-6.135 -5.447,-8.863 -10.218,-10.219Zm6.813,19.074l0,5.449c0,14.989 -3.406,32.708 -10.897,55.182c-7.498,21.125 -12.947,31.344 -16.354,32.708c-2.729,-2.049 -3.406,-14.989 -2.729,-38.15c0.687,-24.529 3.408,-43.605 9.541,-57.231c3.407,-8.176 8.177,-12.947 12.947,-11.583c4.086,-0.001 6.812,4.77 7.492,13.625Z" style="fill-rule:nonzero;"/><path d="M195.03,311.91c-14.313,-32.022 -25.888,-45.648 -35.429,-42.242c-10.218,4.085 -5.448,21.118 12.947,51.776c17.711,29.979 29.973,43.604 35.423,41.562c6.133,-2.72 2.049,-19.752 -12.941,-51.096Z" style="fill:#d96038;fill-rule:nonzero;"/><path d="M158.238,267.626c-2.72,1.364 -5.448,3.406 -5.448,8.177c-1.365,8.855 4.083,25.202 17.031,46.327c12.262,20.438 23.167,33.379 31.337,40.191c2.728,2.727 6.134,3.407 8.176,2.049c1.364,0 2.043,-1.364 2.729,-4.084c1.364,-8.185 -2.729,-23.167 -12.262,-44.971c-10.22,-22.48 -19.76,-37.47 -28.616,-44.283c-4.77,-3.406 -8.856,-4.77 -12.947,-3.406Zm-0.679,15.668l-0.686,-5.448c0,-2.722 1.365,-4.771 2.728,-5.45c4.085,-1.363 9.542,1.358 15.669,8.856c8.177,11.583 16.353,27.251 23.845,47.005c7.498,18.402 10.219,29.301 8.177,32.029c-4.086,0 -12.947,-9.541 -25.209,-27.938c-13.626,-20.438 -22.482,-36.785 -24.524,-49.054Z" style="fill-rule:nonzero;"/><path d="M207.972,362.321c3.405,-5.44 -8.171,-20.438 -36.107,-46.319c-27.251,-25.894 -44.964,-34.75 -51.098,-27.251c-6.813,8.17 5.448,23.16 35.428,46.321c30.658,22.486 47.691,31.34 51.777,27.249Z" style="fill:#ffe000;fill-rule:nonzero;"/><path d="M128.944,284.658c-4.085,-0.685 -8.177,0 -10.899,3.406c-6.134,7.499 2.722,21.125 25.888,40.878l36.108,25.21c17.031,9.54 26.572,12.946 29.979,8.854c0.679,-1.363 0.679,-3.405 0,-5.448c-2.728,-8.861 -14.311,-22.486 -33.385,-40.878c-21.117,-19.081 -36.794,-30.658 -47.691,-32.022Zm-6.813,6.128l12.946,0.685c12.941,6.128 27.93,17.719 46.327,36.786c17.032,17.719 25.209,28.624 24.523,32.029c-3.406,1.356 -15.668,-4.777 -36.107,-17.719c-21.117,-14.989 -36.106,-27.936 -44.283,-39.513c-2.728,-4.086 -4.087,-7.492 -4.087,-9.54l0.681,-2.728Z" style="fill-rule:nonzero;"/><path d="M207.292,361.643c3.406,-5.448 -13.626,-16.354 -50.419,-32.7c-36.785,-17.032 -57.908,-20.439 -62.673,-10.904c-4.091,8.862 12.94,20.438 51.776,32.707c38.149,12.26 58.587,16.353 61.316,10.897Z" style="fill:#d96038;fill-rule:nonzero;"/><path d="M203.206,365.729c4.086,0 6.128,-1.358 6.813,-2.723l-0.686,-5.448c-4.771,-6.813 -19.753,-17.032 -46.326,-28.615c-27.252,-12.94 -47.011,-19.075 -59.273,-17.717c-6.127,0 -9.535,1.37 -11.583,5.454c-1.357,2.729 -1.357,6.135 1.365,8.856c5.448,8.854 22.48,17.718 51.78,27.252c26.569,9.533 45.642,13.624 57.91,12.941Zm-34.063,-28.61c21.795,11.577 34.063,19.075 35.421,23.167c-4.763,2.035 -20.438,-0.686 -46.326,-8.185c-28.617,-8.17 -47.005,-16.347 -57.224,-25.201c-3.406,-2.051 -4.771,-4.771 -4.771,-6.814l0.68,-1.361c1.364,-2.723 6.813,-3.409 14.31,-2.723c14.982,2.723 34.743,9.534 57.91,21.117Z" style="fill-rule:nonzero;"/><path d="M144.613,350.066c-42.243,-2.049 -64.724,2.035 -66.088,12.255c-0.678,10.22 20.44,14.312 63.366,12.27c42.919,-1.364 64.722,-5.457 65.401,-11.585c0.68,-6.812 -20.439,-10.904 -62.679,-12.94Z" style="fill:#ffe000;fill-rule:nonzero;"/><path d="M207.292,358.916c-6.134,-5.444 -25.209,-8.85 -55.868,-10.22c-32.7,-2.721 -54.502,-1.356 -66.086,4.092c-5.449,2.721 -8.171,5.448 -8.855,9.533c0,2.727 0.684,4.777 4.092,7.499c8.169,6.813 28.608,8.854 61.316,7.496c30.657,-1.37 51.775,-4.09 62.672,-9.54l5.456,-4.771l-2.727,-4.089Zm-49.054,-5.444c26.573,2.723 42.241,5.444 45.648,8.85c-4.085,4.091 -21.116,6.813 -50.418,8.861l-66.08,-3.406c-4.092,-1.364 -6.813,-3.406 -6.135,-5.455c0.679,-2.721 4.085,-5.44 12.264,-7.491c14.31,-4.086 36.104,-4.086 64.721,-1.359Z" style="fill-rule:nonzero;"/><path d="M148.019,377.316c-38.15,16.347 -55.183,28.609 -52.46,38.15c3.407,10.221 23.845,5.45 60.637,-14.305c36.106,-19.76 53.139,-32.705 51.097,-38.156c-2.043,-6.124 -21.804,-1.362 -59.274,14.311Z" style="fill:#d96038;fill-rule:nonzero;"/><g><path d="M210.02,362.321c-2.048,-5.44 -16.354,-3.405 -41.563,4.777c-19.753,6.813 -36.107,14.304 -50.412,22.475c-5.455,3.407 -8.862,7.499 -10.904,12.947c11.584,-9.54 29.979,-19.075 55.188,-27.93c23.846,-8.179 37.472,-12.27 42.234,-10.898c-2.042,5.441 -14.982,14.982 -39.512,29.288c-25.889,14.996 -44.963,23.845 -57.911,24.529c4.092,3.407 9.541,3.407 15.669,1.363c15.674,-5.454 33.385,-14.988 55.188,-27.93c22.482,-14.309 33.38,-23.843 32.023,-28.621Z" style="fill-rule:nonzero;"/><path d="M94.2,416.825c1.358,4.092 5.449,4.776 12.263,0.685c-4.77,0.686 -7.498,0 -8.176,-2.721c-0.679,-2.728 2.042,-7.499 8.854,-12.269c-10.219,4.77 -14.99,8.863 -12.941,14.305Z" style="fill-rule:nonzero;"/></g><path d="M207.292,363.006c3.406,6.814 21.116,0.687 54.503,-17.03c32.701,-17.033 45.648,-32.702 38.149,-45.648c-6.813,-12.947 -24.523,-7.492 -53.818,16.353c-28.614,24.524 -42.24,39.513 -38.834,46.325Z" style="fill:#ffe000;fill-rule:nonzero;"/><path d="M302.671,298.969c-2.727,-4.091 -6.812,-7.498 -12.946,-7.498c-10.897,0 -26.565,7.498 -45.641,24.531c-17.032,14.305 -29.301,27.252 -36.112,38.15c-3.408,4.764 -4.086,8.169 -2.044,10.218l23.845,-1.364c11.584,-4.09 23.166,-9.534 34.751,-15.666c15.667,-8.179 27.251,-17.033 33.378,-25.21c6.813,-8.857 8.177,-16.347 4.769,-23.161Zm-4.083,2.721l0.678,4.771c0,5.448 -3.406,11.576 -10.219,18.388c-10.898,10.222 -26.573,19.082 -47.013,27.938c-18.389,7.498 -29.293,10.904 -32.7,8.854c0,-4.085 8.178,-14.303 25.209,-30.657c18.396,-18.39 34.065,-29.295 47.012,-32.7c8.17,-3.406 14.304,-2.042 17.033,3.406Z" style="fill-rule:nonzero;"/><path d="M207.292,363.692l55.867,2.036c36.785,-6.128 54.502,-16.347 53.138,-29.287c-0.678,-13.627 -19.76,-14.312 -55.866,-1.37c-36.108,12.269 -53.818,21.81 -53.139,28.621Z" style="fill:#ffe000;fill-rule:nonzero;"/><path d="M204.563,363.692c1.364,6.128 15.676,8.849 44.284,6.128c20.438,-2.722 36.792,-6.128 49.054,-10.904c14.99,-6.128 21.804,-13.627 21.124,-22.475c0,-4.779 -2.729,-8.185 -6.813,-10.222c-9.542,-4.09 -26.573,-2.726 -51.097,6.129c-21.803,6.813 -38.157,14.311 -49.739,23.16c-4.084,3.408 -6.813,5.457 -6.813,8.184Zm37.471,1.356l-32.7,-2.042c1.364,-3.405 13.625,-10.218 36.792,-20.438c25.209,-10.219 43.599,-14.311 57.225,-13.625c6.813,0.687 10.904,3.406 10.904,7.499l0,0.678c0,6.813 -6.135,12.263 -18.396,17.033c-14.304,6.133 -32.021,9.539 -53.825,10.895Z" style="fill-rule:nonzero;"/><path d="M207.292,363.692c-1.364,6.128 17.031,12.94 55.182,20.438c38.835,7.491 58.595,6.127 60.637,-4.092c2.729,-9.535 -16.354,-16.347 -55.182,-20.438c-39.521,-3.406 -59.957,-2.042 -60.637,4.092Z" style="fill:#ffe000;fill-rule:nonzero;"/><path d="M247.49,377.997c-23.845,-5.456 -36.792,-10.898 -38.156,-14.305l44.284,-2.728c27.937,2.041 47.012,5.447 59.273,10.897c-2.728,-4.764 -6.813,-8.17 -14.99,-9.541c-15.667,-4.085 -34.063,-6.127 -55.867,-6.127c-23.845,0 -36.106,1.363 -37.471,6.812c-1.357,6.814 14.99,13.627 49.739,21.804l40.193,5.448c19.074,1.364 29.294,-2.043 31.343,-9.532c0.678,-4.093 -2.729,-6.135 -9.542,-6.135c3.408,1.355 4.771,2.042 4.771,4.763l0,0.686c-0.687,3.406 -4.771,4.771 -13.625,6.129c-14.989,0.684 -34.749,-2.037 -59.952,-8.171Z" style="fill-rule:nonzero;"/><path d="M207.292,363.692c-3.406,6.128 11.584,17.033 44.962,34.063c34.065,17.033 53.825,20.439 59.959,10.221c6.128,-10.904 -8.862,-21.809 -44.969,-34.75c-36.786,-12.261 -56.546,-15.668 -59.952,-9.534Z" style="fill:#d96038;fill-rule:nonzero;"/><path d="M205.25,362.321c-3.407,5.455 8.854,17.032 35.427,32.028c13.626,7.492 25.203,12.94 36.786,17.033c19.761,6.813 32.021,6.127 36.792,-2.05c1.364,-2.043 -0.685,-3.407 -3.406,-5.448l-0.685,3.405c-2.044,4.093 -8.855,4.771 -20.439,2.723c-14.304,-3.408 -31.337,-10.898 -51.775,-23.161c-18.396,-10.905 -27.93,-19.075 -28.615,-22.481c3.407,-2.049 17.718,-0.678 42.241,6.813c25.888,7.492 43.605,15.669 53.824,23.845c0,-4.084 -2.049,-7.489 -6.812,-10.218c-14.313,-8.177 -32.708,-14.989 -54.504,-20.439c-23.167,-5.455 -36.792,-6.813 -38.834,-2.05Z" style="fill-rule:nonzero;"/><path d="M207.292,363.692c-4.771,3.406 3.406,18.389 25.887,43.598c21.804,25.888 37.471,34.751 44.97,27.938c7.491,-6.135 -0.686,-21.126 -26.573,-43.606c-24.524,-22.488 -39.513,-32.021 -44.284,-27.93Z" style="fill:#ffe000;fill-rule:nonzero;"/><path d="M252.938,389.573c-16.353,-15.662 -29.979,-25.203 -39.512,-27.931c-3.407,-2.042 -6.135,-2.042 -7.499,0c-4.085,2.728 -1.364,11.584 8.177,25.896l16.354,20.438c23.16,27.252 40.191,37.47 49.048,29.972c2.729,-2.72 4.092,-6.127 2.729,-10.219c-1.365,-9.534 -10.9,-22.48 -29.297,-38.156Zm-43.604,-24.525c3.407,-1.355 13.625,5.456 29.979,18.397c17.711,14.311 29.295,27.252 36.107,37.472l2.728,9.532l-2.049,3.406c-2.722,2.729 -8.171,1.373 -16.348,-4.762c-11.583,-7.492 -22.48,-19.081 -35.429,-35.431c-10.895,-15.665 -16.35,-25.205 -14.988,-28.614Z" style="fill-rule:nonzero;"/><path d="M205.928,412.062c4.771,32.015 12.948,46.325 23.166,44.283c9.535,-1.363 10.22,-17.711 1.364,-49.055c-9.541,-30.657 -17.031,-44.969 -23.166,-44.284c-6.813,1.364 -6.813,17.72 -1.364,49.056Z" style="fill:#d96038;fill-rule:nonzero;"/><path d="M224.323,384.131c-6.812,-16.354 -12.946,-24.53 -17.71,-23.166c-4.092,0.678 -6.135,8.169 -6.135,21.794c0,10.904 1.364,21.126 3.407,32.708c6.134,31.338 14.304,45.643 25.887,43.606c5.449,-0.687 6.813,-6.814 3.406,-16.354c0.685,7.491 -1.363,11.576 -4.771,11.576c-4.085,0.687 -7.491,-2.721 -11.576,-12.254c-5.455,-11.592 -9.54,-27.252 -10.904,-46.333c-2.042,-18.392 -1.364,-28.609 1.364,-29.979c3.406,0.684 8.855,10.218 15.667,27.935c7.499,19.756 10.904,34.751 10.904,47.007c4.086,-3.406 4.766,-8.849 3.408,-14.982c-2.727,-13.627 -6.812,-27.252 -12.947,-41.558Z" style="fill-rule:nonzero;"/><path d="M156.195,392.98c-29.98,23.845 -40.199,40.875 -32.022,49.061c8.177,9.533 25.21,-0.687 51.098,-28.622c25.208,-28.609 36.106,-45.643 32.021,-50.413c-4.771,-4.77 -21.117,4.77 -51.097,29.974Z" style="fill:#d96038;fill-rule:nonzero;"/><path d="M181.404,371.183c-12.262,8.171 -24.531,17.032 -35.428,26.573c-23.845,22.476 -31.337,37.473 -23.166,46.32c2.728,3.406 6.811,4.093 12.268,3.406c10.898,-2.723 25.888,-14.305 44.284,-35.421c17.033,-19.081 26.566,-34.064 29.973,-43.604c1.364,-2.729 1.364,-5.451 -0.678,-6.814c-2.729,-2.727 -11.585,0 -27.253,9.54Zm24.524,-6.135c0.686,4.086 -6.127,14.991 -21.803,33.389c-15.668,20.437 -30.658,34.063 -42.919,40.876c-7.491,4.764 -12.941,4.764 -14.99,2.042l-2.042,-5.448c0,-2.729 2.042,-6.813 4.771,-11.582c7.491,-12.263 21.802,-25.888 41.556,-40.193c19.759,-14.312 30.657,-20.44 35.427,-19.084Z" style="fill-rule:nonzero;"/><path d="M172.548,405.249c-17.717,32.015 -22.487,50.416 -12.947,55.86c8.856,4.776 20.44,-9.535 34.065,-43.6c14.306,-33.379 19.075,-51.781 13.626,-54.504c-5.449,-3.404 -17.032,10.906 -34.744,42.244Z" style="fill:#ffe000;fill-rule:nonzero;"/><g><path d="M205.25,393.663c6.127,-19.752 7.491,-30.657 2.722,-33.377c-4.086,-2.05 -10.899,4.084 -21.797,19.753c-9.541,13.624 -14.99,21.123 -14.99,23.159c-7.499,11.591 -12.262,22.489 -14.99,32.03c-4.771,14.981 -4.085,23.845 2.042,27.25c4.091,2.721 6.813,0 8.856,-7.497c-2.042,3.405 -4.086,4.77 -6.813,3.405c-1.357,-0.686 -2.721,-3.405 -2.721,-6.813l1.364,-8.177c3.406,-12.948 10.897,-29.979 23.846,-49.734c11.575,-19.072 19.752,-28.615 23.844,-29.293c1.358,3.406 -1.363,16.355 -9.541,39.515c-7.491,22.48 -16.354,38.156 -24.524,47.689c4.765,0 9.534,-3.405 12.941,-10.22c7.498,-13.624 14.312,-29.291 19.761,-47.69Z" style="fill-rule:nonzero;"/><path d="M171.185,453.617c0.68,-0.679 1.363,-1.358 1.363,-2.043c-1.363,2.721 -2.728,3.407 -5.455,3.407c2.05,0.684 2.728,0 4.092,-1.364Z" style="fill-rule:nonzero;"/></g><path d="M207.972,360.965c4.77,4.764 17.716,-2.049 40.197,-20.439c21.804,-17.711 29.979,-30.658 22.48,-38.15c-6.812,-7.497 -20.438,-0.685 -39.513,20.439c-19.759,20.439 -27.25,33.379 -23.164,38.15Z" style="fill:#ffe000;fill-rule:nonzero;"/><path d="M258.388,298.969c-6.813,2.722 -13.625,6.814 -21.802,14.982c-8.855,8.179 -16.347,17.034 -22.481,26.574c-8.177,12.263 -10.219,19.075 -7.491,22.48c3.406,3.406 10.898,0.687 23.159,-6.125c10.22,-6.814 19.761,-13.627 28.615,-21.81c3.407,-3.409 5.45,-8.171 5.45,-12.941c-6.813,8.855 -17.033,17.717 -30.659,26.566c-12.262,8.185 -20.438,12.269 -23.159,10.904c-0.686,-2.72 2.722,-10.219 11.576,-22.481c10.22,-13.625 19.761,-22.487 29.979,-29.3c8.177,-6.129 13.625,-6.814 17.033,-3.408l0.678,2.728c4.771,-2.041 5.456,-4.084 2.728,-6.134c-3.406,-3.405 -7.491,-4.762 -13.626,-2.035Z" style="fill-rule:nonzero;"/><path d="M207.292,361.643c0,6.134 13.625,11.584 41.556,16.354c28.615,4.762 42.927,2.042 43.605,-8.177c1.363,-10.22 -12.947,-16.349 -40.878,-16.349c-28.616,-0.683 -43.603,2.038 -44.283,8.172Z" style="fill:#ffe000;fill-rule:nonzero;"/><path d="M227.052,352.102c-14.311,1.37 -21.124,4.779 -21.802,9.541c-0.687,4.77 6.127,8.861 19.753,12.948c12.269,3.406 23.166,6.135 35.428,6.812c21.804,2.043 34.065,-1.363 34.75,-11.582c0.679,-10.22 -10.22,-16.349 -33.386,-18.396c-11.583,-1.359 -23.846,-1.359 -34.743,0.677Zm6.811,20.439c-15.674,-4.084 -23.165,-7.493 -23.844,-10.22c0.679,-2.721 9.534,-5.44 24.523,-6.127l41.557,2.722c9.54,2.049 14.989,5.454 14.311,10.904c-0.686,4.091 -5.449,6.813 -15.668,7.496c-11.583,0.681 -25.209,-0.683 -40.879,-4.775Z" style="fill-rule:nonzero;"/><path d="M216.147,398.437c10.904,21.795 21.124,29.978 29.293,24.523c8.862,-5.45 6.135,-18.392 -8.854,-36.792c-14.99,-19.756 -25.209,-27.252 -29.973,-24.525c-5.455,2.727 -2.05,15.673 9.534,36.794Z" style="fill:#ffe000;fill-rule:nonzero;"/><path d="M244.763,392.98c-5.449,-8.85 -12.262,-17.034 -20.439,-23.847c-8.176,-8.848 -14.989,-12.253 -18.396,-9.533c-4.085,2.721 -4.77,9.533 -0.678,20.438c2.722,9.534 7.491,18.397 12.262,27.251c10.896,17.034 21.117,23.159 29.979,17.034c8.169,-4.77 7.491,-15.669 -2.728,-31.343Zm-21.804,-19.753c8.178,8.176 14.99,17.031 20.439,26.565c5.449,10.905 6.135,17.718 1.364,21.125c-5.449,3.407 -11.584,-0.686 -19.76,-10.904c-5.449,-8.851 -10.898,-18.391 -14.305,-29.287c-3.406,-10.222 -4.085,-15.678 -2.727,-17.033c2.05,-0.687 6.813,2.719 14.989,9.534Z" style="fill-rule:nonzero;"/><path d="M186.175,407.29c-7.499,31.344 -6.134,48.375 3.406,51.097c10.22,3.407 17.032,-12.263 21.117,-44.968c3.406,-33.38 2.043,-50.413 -4.085,-51.776c-6.134,-2.042 -12.947,13.626 -20.438,45.647Z" style="fill:#ffe000;fill-rule:nonzero;"/><path d="M212.063,365.729c-1.364,-3.407 -2.729,-6.128 -4.771,-6.128c-1.364,-0.685 -3.406,0 -5.449,1.364c-5.448,6.134 -11.583,19.761 -16.354,40.877c-6.128,22.482 -8.176,39.513 -4.771,49.732c1.365,5.448 4.093,8.177 8.179,9.535c4.091,0.685 6.813,0 10.219,-3.408c6.135,-6.127 10.904,-21.795 13.626,-44.282c2.041,-21.797 2.041,-37.473 -0.679,-47.69Zm-5.45,-2.037c2.721,2.72 3.406,13.624 2.721,34.744c-1.362,22.48 -4.771,38.827 -9.533,49.732c-3.406,6.813 -6.135,9.532 -9.541,8.176c-4.085,-1.363 -6.135,-6.812 -6.135,-17.032c-0.678,-12.947 2.728,-28.615 8.862,-47.69c6.128,-17.711 10.219,-27.252 13.626,-27.93Z" style="fill-rule:nonzero;"/><path d="M162.329,374.591c-27.937,13.624 -39.519,25.887 -34.75,34.742c4.77,8.862 20.439,4.77 45.648,-12.261c26.573,-17.719 38.149,-29.974 34.744,-34.751c-2.721,-6.127 -17.711,-2.035 -45.642,12.27Z" style="fill:#ffe000;fill-rule:nonzero;"/><path d="M138.484,392.302c9.534,-8.171 22.481,-15.669 40.192,-22.481c15.668,-6.128 25.209,-8.855 27.937,-6.814c0.679,3.406 -6.813,10.905 -21.803,22.481c-14.99,12.269 -28.615,19.762 -40.197,23.846c4.091,2.05 8.854,2.05 14.31,-1.356c10.897,-5.456 23.159,-13.627 34.743,-23.846c13.626,-10.904 19.761,-18.402 17.032,-23.166c-2.042,-4.084 -9.54,-4.084 -21.802,0c-10.22,3.405 -19.754,8.169 -29.973,12.946c-9.541,4.764 -17.718,9.534 -23.846,15.662c-9.54,7.499 -12.268,14.995 -9.54,21.124c2.726,4.77 7.49,4.092 15.667,-1.364c-6.128,2.05 -9.534,2.05 -11.584,-1.356l-0.677,-2.728c0.001,-3.408 2.729,-8.178 9.541,-12.948Z" style="fill-rule:nonzero;"/><path d="M207.972,360.965c5.455,-4.771 -0.68,-16.354 -17.034,-34.064c-15.667,-18.397 -27.93,-22.489 -35.42,-14.305c-8.178,8.849 -2.728,20.438 17.031,34.744c19.074,14.303 31.337,19.072 35.423,13.625Z" style="fill:#ffe000;fill-rule:nonzero;"/><path d="M167.094,307.819c-5.45,-2.036 -10.221,0 -13.626,3.406c-4.084,4.09 -4.084,8.183 -2.721,14.311c2.043,6.126 6.127,11.583 12.94,17.718c8.179,7.491 16.355,12.94 26.574,17.032c10.219,5.442 17.032,6.126 19.76,2.72c3.407,-3.405 1.357,-10.218 -4.092,-20.438c-5.449,-8.854 -11.583,-17.031 -19.075,-23.843c-7.493,-6.815 -13.626,-10.222 -19.76,-10.906Zm-10.221,6.813c2.728,-3.406 8.178,-4.086 13.626,-1.358l12.948,8.856c7.49,6.813 13.625,14.312 19.074,23.846c4.092,7.496 5.45,11.582 4.092,13.625c-1.363,1.364 -6.135,0.686 -14.312,-3.406c-8.854,-4.093 -17.031,-9.535 -25.208,-16.348c-8.17,-7.498 -12.263,-13.627 -12.263,-19.761c0.001,-2.048 0.688,-4.084 2.043,-5.454Z" style="fill-rule:nonzero;"/><path d="M207.972,360.965c6.812,1.356 12.945,-9.541 18.396,-32.022c5.448,-23.159 4.091,-35.428 -4.771,-37.472c-8.169,-1.362 -14.304,9.534 -17.71,33.379c-3.408,22.49 -1.366,34.751 4.085,36.115Z" style="fill:#d96038;fill-rule:nonzero;"/><path d="M220.917,294.192c2.042,0 3.406,1.37 4.086,4.093c2.728,6.813 2.728,17.03 -1.357,30.657c-3.406,13.625 -7.498,23.159 -12.269,27.938l-2.043,2.035c-2.042,0 -3.406,-4.764 -4.084,-12.257c-0.687,-8.183 0,-17.717 2.042,-27.935c0.68,-5.451 2.728,-10.222 4.085,-13.627c-4.085,2.041 -7.491,6.813 -8.855,12.94c-2.043,10.219 -2.721,19.759 -2.043,28.621c0.68,10.222 3.407,16.347 7.493,17.033c2.727,0 5.455,-0.687 7.496,-4.092c4.086,-4.092 7.491,-11.583 10.899,-22.481c3.405,-10.899 4.77,-21.117 4.77,-29.3l-0.679,-10.221c-2.05,-5.442 -4.771,-8.171 -8.862,-8.171c-3.406,-0.677 -5.448,2.043 -4.764,8.171c0.68,-2.718 2.722,-3.404 4.085,-3.404Z" style="fill-rule:nonzero;"/><path d="M241.356,360.286c20.438,-6.134 29.979,-12.946 27.252,-20.439c-3.408,-7.498 -14.306,-7.498 -34.065,0.679c-19.075,8.856 -27.93,15.669 -26.571,20.439l33.384,-0.679Z" style="fill:#d96038;fill-rule:nonzero;"/><path d="M270.649,339.161c-1.363,-3.406 -4.085,-5.448 -8.176,-6.127c-7.491,-1.372 -17.033,0.679 -29.295,6.127c-12.262,4.771 -20.438,10.221 -25.207,14.991c-2.044,3.405 -2.722,6.134 -1.358,8.169c0.679,2.049 2.721,3.407 6.128,4.091c6.813,0.687 16.353,0 28.615,-3.406c13.626,-3.405 22.481,-8.854 26.572,-13.624l3.406,-6.814l-0.685,-3.407Zm-8.854,-1.364c2.729,0.68 4.085,1.364 4.085,2.729c1.364,1.358 0.685,2.729 -1.356,5.45c-4.093,4.77 -12.27,8.854 -24.531,12.261c-11.584,3.406 -20.438,4.77 -26.565,3.406c-2.05,-0.678 -2.729,-0.678 -2.729,-1.356l1.364,-2.729c4.085,-4.77 11.583,-8.861 22.48,-14.304c12.262,-4.777 20.439,-6.813 27.252,-5.457Z" style="fill-rule:nonzero;"/><path d="M231.815,390.258c19.76,14.311 32.022,17.032 37.471,8.179c6.135,-8.179 -2.042,-18.397 -23.846,-28.616c-21.117,-10.22 -33.378,-13.626 -37.469,-8.855c-3.408,5.446 4.77,14.98 23.844,29.292Z" style="fill:#ffe000;fill-rule:nonzero;"/><path d="M206.613,367.099c3.406,6.813 10.898,14.982 21.795,23.159c12.269,9.534 21.804,14.311 29.979,14.991c6.136,0.677 10.221,-1.364 12.947,-4.771c4.765,-8.176 0.679,-17.032 -12.947,-25.887c-8.176,-5.457 -18.396,-10.898 -29.979,-14.305c-11.576,-4.092 -19.074,-4.092 -21.795,-0.686c-1.363,2.043 -1.363,4.092 0,7.499Zm12.941,8.847c-6.813,-6.813 -10.22,-11.576 -8.855,-12.94c1.364,-2.041 6.813,-1.363 17.71,2.042c11.584,3.409 20.439,8.179 29.302,14.306c9.534,7.498 12.939,13.627 9.534,17.719c-2.044,3.405 -5.449,4.09 -10.897,3.405c-4.093,-0.686 -8.178,-2.722 -12.263,-5.45c-9.542,-4.77 -17.718,-11.583 -24.531,-19.082Z" style="fill-rule:nonzero;"/><path d="M194.345,391.622c-3.407,20.439 -1.357,32.016 6.134,32.702c8.178,0.684 12.948,-9.535 14.305,-30.661c2.049,-20.437 -0.679,-31.342 -6.812,-32.698c-5.451,-0.679 -10.221,9.539 -13.627,30.657Z" style="fill:#ffe000;fill-rule:nonzero;"/><path d="M212.063,373.911c1.364,7.491 1.364,16.347 0,25.203l-4.091,14.988c5.455,-2.041 8.176,-6.813 8.86,-14.311c0.68,-8.849 0.68,-17.033 0,-25.201c-0.685,-10.221 -3.405,-14.99 -8.176,-15.675c-2.043,0 -4.771,0.685 -6.813,4.09c-2.728,3.406 -4.771,10.221 -7.498,18.396c-2.043,8.855 -4.085,17.034 -4.085,25.202c0,5.457 0.678,10.221 2.728,13.627c1.357,4.093 4.085,6.134 7.491,6.813c4.085,0.686 6.135,-2.72 5.449,-9.534c-1.364,3.407 -2.042,4.77 -4.77,4.092c-1.357,0 -2.722,-0.685 -4.086,-3.406c-2.728,-6.134 -2.728,-14.311 0,-27.252c2.729,-11.59 5.449,-20.439 8.855,-25.215l2.044,-2.036c2.049,0 2.727,3.407 4.092,10.219Z" style="fill-rule:nonzero;"/><path d="M168.457,343.932c-25.888,-4.771 -38.836,-1.364 -38.836,10.221c0,12.26 13.627,17.71 40.2,17.03c25.888,0 38.835,-3.406 38.151,-10.218c0,-6.135 -13.627,-11.583 -39.515,-17.033Z" style="fill:#ffe000;fill-rule:nonzero;"/><path d="M207.292,366.412c2.728,-1.364 3.406,-3.406 3.406,-5.447c0,-4.771 -7.492,-8.863 -23.166,-14.306c-14.305,-4.775 -27.931,-6.813 -39.514,-6.813c-14.991,1.358 -21.803,6.129 -20.439,14.983c0,5.456 2.728,9.54 8.855,12.946c8.862,4.765 21.125,6.814 37.472,5.45c15.675,0.002 26.573,-2.721 33.386,-6.813Zm-17.711,0.687c-12.268,2.722 -23.845,2.722 -34.75,0.678c-14.99,-1.364 -22.481,-6.134 -23.159,-13.624c0,-4.771 4.084,-8.177 12.941,-8.863c10.904,-1.357 23.844,0.687 38.834,4.777c14.304,4.764 21.803,8.17 22.48,10.898c-0.677,2.041 -6.126,4.764 -16.346,6.134Z" style="fill-rule:nonzero;"/><path d="M176.634,371.183c-17.711,11.576 -24.524,19.761 -20.439,26.573c4.771,6.129 15.669,2.722 32.021,-10.218c16.347,-12.947 23.16,-21.126 19.755,-26.573c-2.721,-4.771 -13.626,-1.364 -31.337,10.218Z" style="fill:#d96038;fill-rule:nonzero;"/><path d="M203.886,376.633c6.813,-7.499 8.855,-13.627 6.813,-17.032l-18.396,0.686c-7.491,3.406 -14.989,6.813 -21.802,12.255c-12.262,8.185 -17.032,15.674 -12.94,21.122c0,-4.09 5.449,-10.218 15.668,-17.717c7.49,-5.442 14.989,-9.534 22.481,-11.576c6.134,-2.049 10.219,-3.405 10.904,-1.364c0.679,0.687 -0.686,4.093 -5.455,9.535l-18.389,17.032c-6.135,4.09 -11.584,6.813 -16.355,7.499l-8.177,-0.687l-0.679,-2.723c-2.728,2.723 -4.092,4.093 -2.728,5.451c2.042,2.728 5.449,4.771 11.583,3.406c5.45,-1.358 11.584,-4.765 19.075,-9.54c6.813,-5.442 12.948,-10.221 18.397,-16.347Z" style="fill-rule:nonzero;"/><path d="M223.646,360.965c0,-2.729 -1.364,-5.456 -4.092,-8.177c-3.406,-2.722 -6.813,-3.406 -11.582,-3.406c-4.086,0 -7.493,0.685 -10.221,3.406c-3.406,2.721 -4.085,5.448 -4.085,8.177c0,3.405 0.679,6.134 4.085,8.855c2.728,2.042 6.135,3.406 10.221,3.406l11.582,-3.406c2.727,-2.721 4.092,-5.45 4.092,-8.855Z" style="fill:#ffe000;fill-rule:nonzero;"/><path d="M220.917,350.745c-3.405,-2.049 -7.49,-4.086 -12.945,-4.086c-4.086,0 -8.171,2.037 -11.577,4.086c-3.407,3.407 -5.457,6.813 -5.457,10.22c0,4.083 2.05,7.492 5.457,10.218c3.406,2.729 7.491,4.086 11.577,4.086c5.455,0 9.54,-1.357 12.945,-4.086c3.406,-2.726 5.45,-6.135 5.45,-10.218c0,-3.407 -2.044,-6.813 -5.45,-10.22Zm-3.405,17.031c-2.729,2.044 -5.449,2.728 -9.54,2.728c-3.408,0 -6.129,-0.684 -8.171,-2.728c-2.729,-1.364 -4.092,-4.084 -4.092,-6.812c0,-2.049 1.363,-4.771 4.092,-6.813c2.042,-1.364 4.763,-2.051 8.171,-2.051c4.091,0 6.812,0.687 9.54,2.051c2.728,2.042 3.405,4.764 3.405,6.813c0,2.728 -0.678,5.448 -3.405,6.812Z" style="fill-rule:nonzero;"/></g></g><rect id="PATH77" x="2.92" y="2.74" width="366.67" height="582.52" style="fill:none;stroke:#000;stroke-width:3px;"/></svg>