<?xml version="1.0" encoding="UTF-8" standalone="no"?><!DOCTYPE svg PUBLIC "-//W3C//DTD SVG 1.1//EN" "http://www.w3.org/Graphics/SVG/1.1/DTD/svg11.dtd"><svg width="100%" height="100%" viewBox="0 0 372 587" version="1.1" xmlns="http://www.w3.org/2000/svg" xmlns:xlink="http://www.w3.org/1999/xlink" xml:space="preserve" xmlns:serif="http://www.serif.com/" style="fill-rule:evenodd;clip-rule:evenodd;stroke-miterlimit:100;"><g><clipPath id="_clip1"><rect x="2.201" y="2.21" width="360.835" height="583.136"/></clipPath><g clip-path="url(#_clip1)"><path d="M300.828,51.769c13.906,0 19.03,-5.126 15.369,-16.104c-3.658,-10.249 -10.977,-11.707 -21.955,-3.659l-15.369,16.103l21.955,3.66Z" style="fill:#d96038;fill-rule:nonzero;"/><path d="M308.88,23.958c-5.854,-0.729 -12.443,2.195 -20.49,9.513l-11.712,12.445c-0.731,0.727 -0.731,2.193 -0.731,2.929l2.194,1.459l16.833,3.659c10.247,1.464 17.565,0 21.958,-4.389c2.927,-2.931 3.658,-8.047 2.192,-14.637c-2.927,-6.59 -5.852,-10.249 -10.244,-10.979Zm4.392,13.173c1.462,3.659 1.462,7.319 -0.733,8.785c-3.659,3.658 -13.173,4.388 -28.541,0c10.244,-11.708 17.563,-17.569 23.417,-16.104c2.197,0 4.392,2.195 5.857,7.319Z" style="fill-rule:nonzero;"/><path d="M279.606,50.304c2.193,0 2.925,-1.459 2.193,-3.661c0,-1.459 -2.193,-2.193 -3.659,-1.459l-32.934,10.979c-2.195,0.728 -2.195,1.459 -2.195,3.661c0.732,1.457 2.195,2.186 3.659,1.457l32.936,-10.977Z" style="fill-rule:nonzero;"/><path d="M302.294,519.424l10.245,20.498c7.319,10.979 14.638,11.705 21.957,2.193c6.585,-8.783 2.925,-15.375 -10.246,-19.762l-21.956,-2.929Z" style="fill:#d96038;fill-rule:nonzero;"/><path d="M302.294,517.238l-2.198,0.727c0,1.459 -0.729,2.193 0,2.93c6.589,19.027 14.639,29.273 23.422,30.006c4.392,0.727 9.512,-1.467 13.171,-7.318c4.393,-5.127 5.125,-10.25 2.198,-14.637c-2.198,-4.393 -8.783,-8.051 -19.028,-10.252l-17.565,-1.456Zm31.468,14.637l0.734,2.186l-2.927,6.592l-7.319,5.121c-5.126,-1.465 -10.978,-8.781 -16.835,-22.689c15.37,1.468 24.154,3.655 26.347,8.79Z" style="fill-rule:nonzero;"/><path d="M275.946,496.736c-1.465,-0.727 -2.928,-0.727 -4.392,0.732c-0.732,2.201 0,3.658 0.731,5.129l28.542,19.756c1.466,0.73 2.927,0.73 4.393,-0.729c0.732,-2.201 0.732,-2.932 -0.732,-4.387l-28.542,-20.501Z" style="fill-rule:nonzero;"/><path d="M282.531,313.773l-16.099,-14.639l-2.931,21.229c0,13.908 5.125,19.754 16.104,15.367c10.979,-4.39 11.71,-11.707 2.926,-21.957Z" style="fill:#d96038;fill-rule:nonzero;"/><path d="M263.502,298.408l-2.926,16.83c-0.733,10.979 0.731,18.297 4.393,21.955c3.658,2.924 9.513,3.66 15.37,0.738c6.585,-1.473 10.245,-5.133 10.977,-10.25c1.462,-8.785 -7.317,-19.025 -23.42,-30.738l-2.927,-0.738l-1.467,2.203Zm2.198,21.955c0,-4.389 1.462,-8.783 2.927,-16.102c10.979,8.783 16.831,16.102 16.831,21.955l0,0.734c0,2.926 -2.927,4.389 -6.585,5.848l-9.514,0c-2.197,-2.921 -3.659,-6.581 -3.659,-12.435Z" style="fill-rule:nonzero;"/><path d="M257.649,264.746c-1.465,-1.474 -2.926,-1.474 -3.659,-0.739c-2.928,0 -3.658,1.466 -2.194,3.66l11.706,32.199c0.732,1.471 1.467,2.201 3.66,1.471c2.197,0 2.93,-1.471 1.465,-3.658l-10.978,-32.933Z" style="fill-rule:nonzero;"/><path d="M84.929,20.299c-1.461,-7.318 -3.659,-14.637 -5.853,-21.227c-5.124,-13.172 -12.443,-15.365 -20.494,-8.047c-8.048,8.047 -6.586,15.367 5.856,21.956l20.491,7.318Z" style="fill:#d96038;fill-rule:nonzero;"/><path d="M57.121,-10.441c-5.858,4.396 -7.319,8.784 -5.858,13.902c2.198,8.791 13.176,15.374 32.935,19.769l2.93,-0.736l0.729,-2.194c-2.927,-20.498 -8.048,-32.205 -16.831,-35.135c-4.393,-1.458 -9.513,-0.73 -13.905,4.394Zm-0.733,10.979c0,-2.195 1.465,-4.396 4.392,-7.319c2.926,-2.194 5.854,-3.66 8.78,-2.194c4.392,1.458 8.784,10.249 11.71,25.615c-14.637,-5.124 -22.688,-9.52 -24.882,-14.638l0,-1.464Z" style="fill-rule:nonzero;"/><path d="M87.127,18.834l-4.392,-0.737c-1.465,1.474 -1.465,2.931 0,4.396l23.417,25.616l4.391,0c0.733,-0.736 0.733,-2.193 0,-3.66l-23.416,-25.615Z" style="fill-rule:nonzero;"/><path d="M127.379,48.109c-4.391,-1.466 -15.369,9.513 -33.667,32.196c-20.494,24.888 -35.859,49.771 -46.838,73.923c-22.688,-25.615 -39.523,-40.987 -51.23,-46.106l1.461,46.843l28.542,46.835l33.666,54.889c3.661,7.318 6.587,32.198 9.517,76.11c2.194,45.383 1.461,73.186 -2.198,81.979c-5.854,14.637 -27.077,37.322 -65.135,70.984l0,103.924l59.282,0l57.084,-84.162c4.392,-8.055 10.978,-26.355 19.761,-53.424c8.052,-26.348 12.44,-43.184 13.172,-50.504c0,-4.387 0,-12.434 -2.927,-24.887c-2.927,-12.434 -3.659,-20.482 -2.927,-24.877c0.733,-14.639 5.854,-38.059 16.099,-70.992c11.71,-43.183 25.615,-72.458 39.523,-89.282l-5.856,-4.396c-4.392,-2.922 -9.513,-2.195 -14.638,2.195c-4.392,4.389 -14.636,19.025 -29.274,43.912l-31.469,54.889c-8.784,-31.469 -15.369,-53.424 -21.223,-64.401l-16.834,-24.881l-9.513,-11.714c1.461,-12.443 4.392,-27.08 9.513,-43.912c10.978,-32.935 25.615,-60.014 45.377,-80.505c4.392,-9.511 5.121,-13.9 0.732,-14.636Z" style="fill:#858585;fill-rule:nonzero;"/><path d="M133.966,51.769l-1.466,-3.66l-4.391,-3.66c-5.121,-1.466 -17.565,9.513 -36.594,32.935c-19.025,23.419 -34.395,47.57 -45.373,70.261c-21.223,-22.691 -37.326,-37.33 -48.303,-43.184l-3.66,0c-1.465,0.731 -2.193,2.195 -2.193,3.66l1.461,46.843l0.732,2.187l61.476,101.003c3.659,6.592 6.586,31.469 9.517,74.645c2.194,44.648 1.461,71.729 -2.197,80.504c-5.121,13.182 -26.349,36.596 -63.67,69.527l-1.465,2.932l0,103.924c0,2.924 1.465,3.66 3.659,3.66l59.282,0l2.195,-1.463l57.816,-84.896c4.392,-8.047 11.71,-26.342 20.494,-53.432c8.051,-27.07 12.439,-43.91 13.171,-51.23c0,-5.115 -0.732,-13.9 -3.659,-26.342c-2.193,-11.707 -2.927,-19.756 -2.193,-24.15c0.732,-13.9 5.852,-37.33 16.098,-70.266c11.711,-42.437 24.887,-71.711 38.792,-87.085c1.461,-1.466 1.461,-2.923 0,-4.395c-2.928,-5.119 -7.32,-7.32 -12.444,-8.048c-4.392,-0.73 -8.779,1.464 -13.171,5.124c-5.857,3.66 -19.762,24.879 -40.253,62.209l-17.563,29.275c-6.59,-25.616 -13.176,-44.649 -19.03,-57.084c-5.124,-10.979 -13.904,-22.686 -25.615,-35.865c9.513,-51.959 27.078,-92.21 53.425,-120.757l0.732,-0.729c2.924,-5.127 4.39,-9.521 4.39,-12.443Zm-40.985,35.127c15.37,-19.754 27.08,-31.469 33.666,-34.392l-3.659,8.048c-19.762,21.227 -34.399,48.3 -44.645,80.505c-5.125,16.831 -8.784,32.204 -10.246,46.105l0.733,2.924l10.246,11.714c7.318,8.783 12.439,16.102 16.099,23.42c5.125,10.978 11.71,32.205 20.494,64.403l2.194,2.193c1.464,0.73 2.927,0 3.659,-1.457l21.956,-37.329c21.223,-36.595 34.399,-57.083 38.792,-60.743c2.927,-2.202 5.854,-3.661 8.048,-2.931c2.197,0.729 3.659,1.465 5.855,2.931c-14.637,16.831 -27.08,46.842 -39.519,89.278c-9.516,30.75 -13.908,54.893 -15.37,70.266l0,2.922l2.194,22.693l3.66,21.221l0,2.201c-0.733,7.316 -5.121,24.148 -13.172,50.498c-8.784,27.074 -14.638,44.643 -19.762,51.963l-55.622,82.699l-53.424,0l0,-98.066c37.325,-33.67 59.281,-57.092 65.134,-71c2.198,-5.846 2.927,-18.295 2.927,-39.516c0,-21.955 -0.729,-47.57 -3.659,-74.652c-2.927,-27.074 -4.388,-43.183 -7.319,-48.299l-31.468,-51.231l-30.007,-49.035l-0.733,-40.253c10.979,8.786 25.615,21.956 43.912,42.448c0.733,1.464 2.198,1.464 3.66,1.464l2.93,-2.195c8.778,-21.956 23.417,-44.639 42.446,-68.797Z" style="fill-rule:nonzero;"/><path d="M16.135,496.736c-0.733,-1.455 -1.465,-1.455 -3.66,-0.727c-0.732,0.727 -1.464,1.459 0,2.93l16.103,23.414c13.172,16.102 26.345,27.08 39.52,33.662c1.462,0.738 2.194,0.738 2.927,-0.727c0.732,-1.461 0,-2.195 -0.733,-2.934c-13.171,-6.582 -26.348,-17.557 -38.787,-33.662l-15.37,-21.956Z" style="fill-rule:nonzero;"/><path d="M28.578,477.715c0,-1.467 -1.465,-2.201 -2.931,-0.73c-0.729,0.73 -1.461,1.457 -0.729,2.924l15.366,21.219c12.443,14.637 25.615,25.613 39.523,32.934l2.927,-1.459c1.462,-0.727 0.732,-2.203 -1.465,-2.93c-12.439,-6.588 -25.615,-16.832 -38.055,-32.203l-14.636,-19.755Z" style="fill-rule:nonzero;"/><path d="M44.677,462.348c-0.733,-1.473 -2.195,-1.473 -2.927,0c-1.465,0.727 -1.465,2.186 0,2.922l17.563,16.102c13.905,12.438 28.542,23.414 42.451,32.207c1.461,0.729 1.461,0.729 2.926,-0.738c1.462,-1.463 0.732,-2.193 -0.732,-2.922c-13.905,-8.791 -27.809,-19.768 -41.718,-31.477l-17.563,-16.094Z" style="fill-rule:nonzero;"/><path d="M60.779,446.238c-1.466,-1.459 -1.466,-1.459 -2.926,0c-0.732,1.471 -0.732,2.93 0.729,3.66l21.956,12.449l37.326,20.482c1.464,0 2.927,0 3.659,-1.459c0.733,-0.727 0,-2.203 -1.461,-2.93l-37.326,-19.754l-21.957,-12.448Z" style="fill-rule:nonzero;"/><path d="M77.611,424.283c-0.733,-1.459 -2.195,-1.459 -2.195,0.734c-0.732,1.467 0,2.922 1.462,2.922l17.568,5.859l34.396,8.779l2.926,-2.186c0,-0.738 0,-1.473 -2.194,-2.203l-33.667,-8.775l-18.296,-5.13Z" style="fill-rule:nonzero;"/><path d="M81.27,397.938l-2.194,2.199c-0.732,0.732 0,2.188 1.461,2.188l57.087,8.793l2.195,-1.473l-2.195,-2.188l-38.791,-5.861l-17.563,-3.658Z" style="fill-rule:nonzero;"/><path d="M82.002,374.521c-1.465,0 -2.194,0 -2.194,2.188c0,1.473 0.729,2.205 1.462,2.205l19.029,1.453l34.398,0l2.195,-2.186l-2.195,-2.928l-34.398,0l-18.297,-0.732Z" style="fill-rule:nonzero;"/><path d="M133.233,349.639c0,-1.467 -0.733,-2.203 -2.927,-1.467l-51.23,3.66c-1.465,0 -2.198,0 -2.198,1.465c0,2.195 0.733,2.195 2.198,2.195l52.691,-3.66l1.466,-2.193Z" style="fill-rule:nonzero;"/><path d="M126.647,326.217c0,-2.193 -1.465,-2.926 -2.197,-2.193l-45.374,3.658c-1.465,0 -2.198,0.729 -2.198,2.195c0,1.463 0.733,2.193 2.198,2.193l46.105,-3.66l1.466,-2.193Z" style="fill-rule:nonzero;"/><path d="M114.204,302.795l-2.194,-2.193l-21.956,2.922l-12.443,0.738c-0.733,0 -1.461,0 -1.461,1.465c0,2.193 0.729,2.193 1.461,2.193l12.443,0l21.956,-2.924l2.194,-2.201Z" style="fill-rule:nonzero;"/><path d="M103.958,275.721c-0.732,-1.471 -1.465,-1.471 -2.927,-1.471l-17.564,2.931l-9.516,0.727c-0.733,0 -1.462,0.739 -1.462,2.202l1.462,2.195l10.246,-0.738l18.296,-2.92c1.465,-0.001 2.198,-1.466 1.465,-2.926Z" style="fill-rule:nonzero;"/><path d="M95.907,238.393l-2.926,0c-4.392,5.126 -12.443,8.785 -22.689,12.443c-1.461,0 -2.194,1.457 -1.461,2.93c0,0.73 1.461,1.46 2.927,0.73c10.978,-3.66 19.029,-8.05 24.15,-12.444c1.465,-1.465 1.465,-2.922 -0.001,-3.659Z" style="fill-rule:nonzero;"/><path d="M80.538,209.119c-0.729,-0.737 -2.194,-0.737 -2.927,0l-19.029,19.033c-1.461,1.458 -1.461,2.186 0,2.923c0.731,1.464 1.465,1.464 2.931,0l19.025,-18.297c0.732,-1.466 0.732,-2.923 0,-3.659Z" style="fill-rule:nonzero;"/><path d="M60.779,191.558c-1.466,-0.736 -2.197,-0.736 -2.926,0.73l-3.66,5.853l-9.516,11.714c-0.733,1.457 -1.462,2.187 -0.733,2.922l3.66,0.739l10.249,-12.453l4.388,-6.582l-1.462,-2.923Z" style="fill-rule:nonzero;"/><path d="M50.534,169.602c-1.465,-0.736 -2.93,-0.736 -2.93,0.729l-3.66,7.318l-13.171,17.567c-0.733,2.188 0,2.925 0.733,3.66l2.926,-0.735l13.172,-18.298l3.659,-7.317c0.733,-1.466 0,-2.924 -0.729,-2.924Z" style="fill-rule:nonzero;"/><path d="M34.432,150.57c-1.465,-0.737 -2.926,0 -3.659,0.735l-3.659,5.846l-8.785,11.714c0,1.466 0,2.924 0.733,3.66l2.927,-0.736l8.784,-13.165l3.659,-5.133l0,-2.921Z" style="fill-rule:nonzero;"/><path d="M13.94,133.737l-10.977,21.956c-0.732,1.458 -0.732,2.195 1.461,2.932c0.733,0.727 1.466,0 2.927,-0.737l10.977,-22.691c-1.461,0.735 -2.193,1.473 -3.659,0.735l-0.729,-2.195Z" style="fill-rule:nonzero;"/><path d="M5.89,530.398l-2.198,0c-1.461,1.477 -2.195,2.203 -0.729,2.934c15.366,21.957 32.202,36.592 49.033,43.912l2.927,-1.461c0.732,-0.734 0,-2.199 -0.73,-2.928c-10.249,-4.387 -21.226,-12.441 -32.934,-24.889l-15.369,-17.568Z" style="fill-rule:nonzero;"/><path d="M126.647,296.943c0,-2.195 -1.465,-2.195 -2.927,-2.195c-1.465,0.729 -2.198,2.195 -1.465,2.93l6.586,13.902c5.125,10.24 10.978,18.297 17.563,24.15l2.931,-0.732l-0.732,-2.199c-5.858,-6.582 -10.979,-13.902 -16.104,-23.414l-5.852,-12.442Z" style="fill-rule:nonzero;"/><path d="M139.086,276.451c-0.729,-1.463 -1.462,-1.463 -2.928,-1.463c-1.461,0.733 -2.193,1.463 -1.461,3.659l5.122,9.512c4.392,6.59 8.784,12.443 13.175,16.838c1.461,1.459 1.461,1.459 2.927,0c1.462,-0.734 1.462,-1.473 0,-2.93l-12.443,-16.102l-4.392,-9.514Z" style="fill-rule:nonzero;"/><path d="M148.604,253.031l-2.199,0c-1.461,0.735 -1.461,1.465 -0.729,2.922l15.366,19.768l2.931,0c1.461,-0.733 1.461,-1.471 0.728,-2.928l-16.097,-19.762Z" style="fill-rule:nonzero;"/><path d="M161.042,233.998l-3.659,0c-1.462,0.737 -1.462,1.473 0,2.2l11.71,15.367c0,1.466 1.465,1.466 2.927,0.728c0.733,0 1.465,-1.457 0.733,-2.922l-11.711,-15.373Z" style="fill-rule:nonzero;"/><path d="M172.753,214.243l-0.733,2.193l-3.659,0l9.517,12.443l2.926,1.458l0.732,-3.66l-8.783,-12.434Z" style="fill-rule:nonzero;"/><path d="M57.121,159.352c-1.466,-1.464 -2.198,-1.464 -2.928,-0.727c-1.464,0.727 -1.464,2.186 -0.732,2.921l5.853,7.319l10.979,14.637c1.465,0.737 2.198,0.737 3.66,0c0.732,-1.464 0.732,-2.923 0,-3.66l-11.711,-13.9l-5.121,-6.59Z" style="fill-rule:nonzero;"/><path d="M66.633,135.931c0,-0.735 -1.461,-0.735 -2.927,0c-1.465,0.738 -1.465,1.466 -0.731,2.925l4.391,6.588l9.513,11.707c0.733,0.736 1.466,0.736 2.93,0c0.729,-1.458 0.729,-2.923 0,-3.66l-8.783,-10.241l-4.393,-7.319Z" style="fill-rule:nonzero;"/><path d="M79.808,113.241c-0.732,-1.459 -2.197,-1.459 -2.93,-1.459c-1.462,0.729 -1.462,2.193 -1.462,3.659l2.928,5.117l6.585,10.25c0.733,1.464 1.466,1.464 2.927,0.728c0.733,-1.459 1.465,-2.187 0.733,-2.923l-6.587,-10.241l-2.194,-5.131Z" style="fill-rule:nonzero;"/><path d="M89.321,95.68l6.586,9.513l2.927,0.728l0.733,-2.921l-5.854,-9.514l-1.464,2.194l-2.928,0Z" style="fill-rule:nonzero;"/><path d="M31.505,285.965l-5.858,15.371c-2.193,12.438 4.392,21.955 18.296,28.541c7.319,-13.174 8.052,-24.15 0.733,-32.934l-13.171,-10.978Z" style="fill:#858585;fill-rule:nonzero;"/><path d="M32.967,283.769l-3.659,0.731l-4.389,8.047c-2.93,5.861 -2.93,12.449 -2.198,18.295c2.198,8.793 8.052,16.109 19.762,21.957l3.66,-1.459c5.854,-10.248 8.051,-19.76 5.121,-28.545c-1.461,-5.852 -5.121,-10.248 -10.978,-13.908l-7.319,-5.118Zm0,6.59c6.589,3.66 10.977,8.775 13.175,13.902l0.732,7.318c0,3.658 -1.465,8.055 -4.392,14.637c-8.051,-5.854 -13.175,-10.979 -13.904,-16.832l-0.732,-4.389c0,-5.13 1.462,-10.247 5.121,-14.636Z" style="fill-rule:nonzero;"/><path d="M250.332,9.322l16.83,0.728c10.979,-2.193 17.568,-11.707 19.762,-27.073c-15.369,-2.93 -25.616,0.73 -32.2,10.242l-4.392,16.103Z" style="fill:#858585;fill-rule:nonzero;"/><path d="M289.851,-16.293c0,-2.202 -0.731,-3.66 -2.927,-3.66c-11.71,-2.201 -21.955,0 -28.542,5.854c-4.392,3.659 -8.05,8.784 -9.517,14.638l-2.194,8.784c0,2.193 0.733,2.929 2.928,3.659l8.051,0.729c7.319,0 13.173,-0.729 18.297,-4.387c7.319,-5.127 11.71,-13.911 13.904,-25.617Zm-6.585,2.193c-1.466,8.784 -5.125,14.638 -10.979,18.296c-5.124,3.66 -11.71,5.125 -19.028,3.66c0.732,-8.055 3.658,-13.902 8.784,-18.298c5.119,-3.658 12.438,-5.123 21.223,-3.658Z" style="fill-rule:nonzero;"/><path d="M126.647,157.888c2.194,-10.977 -3.659,-21.218 -16.103,-29.274c-9.513,12.443 -10.245,23.421 -3.659,33.671c3.659,4.388 7.319,8.047 12.443,10.976c3.66,-4.395 5.854,-8.79 7.319,-15.373Z" style="fill:#858585;fill-rule:nonzero;"/><path d="M129.574,149.833c-1.465,-9.506 -7.318,-17.561 -17.564,-24.144l-4.392,0.729c-6.586,10.25 -9.513,20.492 -7.318,29.274c2.927,9.513 8.051,16.097 17.564,20.492l3.659,-0.736c6.586,-8.048 8.783,-16.823 8.051,-25.615Zm-24.151,-1.457c0,-4.389 1.461,-8.786 5.121,-15.366c8.052,5.846 12.444,10.977 13.176,17.56l0,2.921c0,5.133 -2.198,10.979 -5.857,15.374c-5.854,-3.66 -9.513,-9.514 -11.71,-14.637l-0.73,-5.852Z" style="fill-rule:nonzero;"/><path d="M143.478,202.536c-9.512,-7.319 -20.49,-7.319 -33.666,0.729c6.589,13.171 15.369,20.492 27.812,19.025c5.854,-0.729 10.979,-2.195 15.37,-5.854c-2.197,-5.124 -5.124,-9.512 -9.516,-13.9Z" style="fill:#858585;fill-rule:nonzero;"/><path d="M137.625,195.947c-8.783,-2.932 -19.028,-1.466 -29.274,5.116c-1.466,0.737 -2.198,1.473 -1.466,3.659c5.125,10.979 12.443,17.568 21.957,19.769c8.783,2.187 17.563,0 25.614,-5.129l1.465,-3.661c-3.659,-10.243 -10.245,-16.096 -18.296,-19.754Zm-23.421,8.775c7.318,-4.388 14.637,-5.846 21.223,-2.922c5.857,2.195 10.249,6.582 13.176,13.901c-5.125,3.661 -12.445,4.395 -19.03,3.661c-5.853,-2.19 -10.977,-6.585 -15.369,-14.64Z" style="fill-rule:nonzero;"/><path d="M355.72,304.262c0,-5.127 -1.463,-10.979 -3.661,-15.375c-5.854,-10.24 -16.831,-14.637 -32.2,-13.166c1.465,15.368 7.318,24.881 19.028,28.541l16.833,0Z" style="fill:#858585;fill-rule:nonzero;"/><path d="M349.133,279.382c-7.319,-5.861 -16.831,-8.056 -29.274,-6.589c-1.466,0 -2.927,1.457 -2.927,2.928c1.461,13.166 5.854,21.223 13.172,27.074c7.317,5.125 16.102,7.32 26.348,5.125l2.194,-2.924c0,-10.976 -2.926,-19.031 -9.513,-25.614Zm-25.615,-0.736c9.512,-0.739 16.832,0.735 21.224,5.122c4.392,4.39 7.317,10.251 8.052,18.298c-8.052,1.457 -14.639,0 -19.031,-4.389c-5.854,-3.657 -8.782,-10.249 -10.245,-19.031Z" style="fill-rule:nonzero;"/><path d="M341.813,484.303c-6.586,-10.248 -17.563,-13.908 -32.201,-10.98c2.194,15.367 9.512,24.146 21.223,27.074l16.103,-0.727c-0.733,-5.861 -1.465,-10.981 -5.125,-15.367Z" style="fill:#858585;fill-rule:nonzero;"/><path d="M349.865,498.939c-0.732,-10.25 -4.393,-18.295 -11.711,-23.426c-7.319,-5.846 -17.564,-7.318 -29.274,-5.119c-1.465,0.729 -2.927,1.459 -2.195,3.66c2.195,11.707 6.588,21.227 14.639,25.615c8.047,4.389 16.831,5.854 27.077,2.928l1.464,-3.658Zm-15.369,-19.031c5.854,4.395 8.05,9.514 9.513,17.561c-8.048,1.471 -13.905,0.734 -19.759,-2.188c-4.392,-3.658 -8.053,-10.252 -10.978,-19.033c9.513,-1.465 16.098,-0.734 21.224,3.66Z" style="fill-rule:nonzero;"/><path d="M172.753,529.672c8.783,-7.318 10.979,-19.025 6.586,-32.936c-15.366,3.66 -23.418,11.709 -24.15,24.158c-0.733,5.119 0,10.98 2.927,16.098c5.124,-0.732 10.245,-3.66 14.637,-7.32Z" style="fill:#858585;fill-rule:nonzero;"/><path d="M181.536,495.281c0,-1.473 -1.465,-2.203 -3.659,-1.473c-11.711,3.66 -19.762,9.521 -23.422,17.568c-3.659,8.781 -3.659,17.568 0.733,27.078l2.927,1.467c10.245,-1.467 18.296,-6.59 22.688,-14.637c4.393,-8.046 4.393,-17.567 0.733,-30.003Zm-5.124,5.115l2.197,10.25c0,4.391 -0.732,8.047 -2.931,11.707c-2.926,5.859 -8.779,9.521 -16.098,10.979l-1.465,-10.248c0,-2.189 0,-5.846 1.465,-9.506c2.927,-5.861 8.781,-10.248 16.832,-13.182Z" style="fill-rule:nonzero;"/><path d="M336.688,130.077l-3.659,-10.976c-5.853,0 -12.439,1.457 -17.563,3.66l-6.586,4.388c-2.927,-5.118 -6.586,-9.513 -10.979,-13.173l-7.316,-3.66l-8.053,7.32l-13.904,-2.194c-1.465,7.32 -2.194,16.831 -0.731,27.074c-3.661,0.735 -8.053,2.929 -13.905,5.861l-6.586,5.115l7.319,9.521l-5.125,11.707c4.392,2.93 13.176,5.86 24.883,8.047c1.465,9.521 5.125,18.296 9.517,25.615l10.976,-5.846l10.979,7.319c6.586,-4.396 12.439,-11.714 16.098,-19.033c5.858,3.659 14.638,3.659 24.154,0l-0.732,-13.172l9.513,-7.318l-8.78,-11.707l-6.586,-5.133c3.659,-5.846 5.854,-12.435 8.048,-18.295l-10.982,-5.12Z" style="fill:#ffcdde;fill-rule:nonzero;"/><path d="M336.688,117.636c-0.728,-2.194 -2.192,-2.194 -3.659,-2.194c-8.779,0 -16.832,2.194 -23.417,6.589l-10.978,-11.715l-5.857,-3.659l-3.658,0.738l-7.319,5.846l-12.44,-1.459c-2.197,0 -3.659,0 -4.391,2.193c-0.734,5.854 -1.467,11.714 -1.467,17.561l0,8.055l-17.563,10.979c-1.462,0 -2.195,0.735 -2.195,2.921l0.733,1.473l5.854,8.777l-4.393,8.784l0,2.193l0.731,2.93c4.392,2.194 12.445,5.854 24.884,8.047c1.464,8.784 5.123,16.839 9.517,24.158c1.46,2.187 2.194,2.922 4.387,1.457l9.516,-4.388l9.515,5.853l3.659,0c5.125,-3.658 10.977,-9.512 15.37,-17.561c7.317,2.188 14.637,2.188 24.149,-0.735c1.466,0 2.198,-1.466 2.198,-3.659l-0.732,-10.979l7.318,-6.583l2.194,-2.929l0,-1.466c-2.194,-5.124 -6.587,-10.978 -13.904,-16.832l6.586,-16.103l0,-0.735l-2.194,-3.66l-10.246,-3.659l-2.198,-10.238Zm-2.192,16.101l8.05,2.932l-5.857,14.636l-0.728,2.187l1.46,2.201c5.857,5.118 10.246,9.513 12.444,13.173l-7.319,6.583c-0.732,0.736 -0.732,1.472 -0.732,2.201l0,0.73l0.732,9.521l-19.028,-0.738l-2.928,0l-1.466,1.465c-3.658,6.589 -8.05,12.436 -13.903,16.832l-8.052,-5.853l-3.66,0l-8.051,3.66c-3.658,-7.318 -5.852,-13.908 -7.317,-21.957l-2.927,-2.201c-6.587,-0.728 -13.906,-2.922 -21.224,-6.581l3.659,-7.32l0.732,-2.193l-0.732,-1.466l-5.124,-7.318l16.102,-8.784l2.928,-2.929l0,-1.459l-0.732,-9.521l1.464,-12.435l9.514,2.194l2.931,-1.466l6.585,-5.117c6.585,2.923 10.246,7.318 13.905,13.901l2.927,2.195l2.927,-0.731l5.123,-2.928c4.393,-2.194 9.515,-3.661 14.638,-4.388l2.194,8.775l1.465,2.199Z" style="fill-rule:nonzero;"/><path d="M301.562,146.174c-4.393,0 -8.053,0.737 -10.978,3.66c-2.927,2.931 -3.66,5.859 -3.66,10.249c0,4.39 0.733,8.049 3.66,10.25c3.658,2.929 6.585,4.388 10.978,4.388c3.659,0 7.318,-1.458 10.245,-4.388c2.198,-2.201 3.659,-5.86 3.659,-10.25c0,-4.39 -1.461,-7.318 -3.659,-10.249c-2.927,-2.923 -6.586,-3.66 -10.245,-3.66Zm5.853,8.055c1.465,1.464 2.197,3.659 2.197,5.854l-2.197,5.861c-2.194,2.188 -3.66,2.923 -5.854,2.923c-2.927,0 -4.393,-0.735 -6.588,-2.923c-1.465,-1.472 -2.196,-3.658 -2.196,-5.861c0,-2.194 0.731,-4.389 2.196,-5.854c2.195,-2.194 3.661,-2.923 6.588,-2.923c2.194,-0.001 3.66,0.728 5.854,2.923Z" style="fill-rule:nonzero;"/><path d="M298.635,167.4c-2.198,0 -3.661,1.466 -3.661,2.932l-0.731,14.636c0,-1.464 0.731,-1.464 2.927,-1.464c1.466,0 2.927,0.737 2.927,3.659l1.466,-16.831l-2.928,-2.932Z" style="fill-rule:nonzero;"/><path d="M314.734,161.546c-2.195,-0.735 -2.928,0 -3.66,1.466c-1.462,2.193 -1.462,2.931 0.732,3.66l15.37,8.776c1.466,0.736 2.927,0.736 3.658,-1.459c0.734,-1.464 0,-2.93 -0.731,-4.388l-15.369,-8.055Z" style="fill-rule:nonzero;"/><path d="M286.924,163.742c2.195,-1.457 2.927,-2.195 2.195,-3.66c-1.462,-2.194 -2.195,-2.194 -3.661,-2.194l-12.439,3.659c-1.464,0 -2.927,1.466 -2.927,3.659c0,1.467 1.463,2.925 2.927,2.925l13.905,-4.389Z" style="fill-rule:nonzero;"/><path d="M294.242,149.833l-4.392,-13.902c0,-2.194 -2.193,-2.194 -3.658,-2.194c-2.194,1.459 -2.194,2.194 -2.194,4.389l5.121,13.179c0.731,2.187 1.465,2.187 3.658,2.187c1.465,-1.458 2.197,-2.187 1.465,-3.659Z" style="fill-rule:nonzero;"/><path d="M323.518,141.785l-3.659,-0.728l-11.711,8.777c-1.463,1.472 -2.194,2.931 -0.732,4.395c1.465,1.464 2.197,1.464 4.392,0l11.711,-8.055c1.462,-1.458 1.462,-2.924 -0.001,-4.389Z" style="fill-rule:nonzero;"/><path d="M187.39,414.039l-3.658,-11.715c-5.854,0 -12.44,1.473 -18.297,4.398l-5.854,4.395c-2.198,-5.133 -6.587,-10.248 -10.978,-13.908l-6.587,-3.658l-8.784,6.586l-13.905,-1.469c-1.464,8.055 -2.197,16.838 -0.731,27.084l-13.173,5.848l-6.589,5.133l6.589,10.24l-5.856,11.715c5.124,2.922 13.904,5.846 25.615,7.32c1.465,9.506 5.125,18.295 9.516,25.615l11.708,-5.133l10.979,6.588c4.391,-2.928 8.051,-6.588 11.71,-12.434l3.66,-6.59l24.883,0.729l-1.463,-13.174l9.514,-8.055c-0.732,-2.922 -3.659,-7.316 -8.78,-10.977l-6.589,-5.846l5.855,-12.449l2.195,-5.846l-10.98,-4.397Z" style="fill:#ffcdde;fill-rule:nonzero;"/><path d="M187.39,400.869c0,-1.467 -2.193,-2.201 -3.658,-2.201c-8.053,0 -15.371,2.201 -23.418,7.316l-10.978,-11.707l-5.857,-4.389l-3.659,1.459l-7.319,5.131l-12.439,-1.471c-2.198,0 -2.931,1.471 -4.392,2.93c-0.733,4.387 -1.465,10.248 -1.465,16.84l0,8.047l-18.297,10.248l-0.732,3.66l0.732,2.188l5.124,8.789l-4.391,8.777l-0.733,2.201l2.197,2.188c4.389,2.932 11.708,5.859 23.418,8.793c2.927,8.773 5.856,16.822 10.245,23.41c0.732,2.203 2.198,2.203 4.391,2.203l9.518,-5.131l8.779,5.859c1.465,1.459 2.928,1.459 4.392,0c6.587,-4.387 11.711,-10.98 15.371,-17.568c7.317,2.203 14.637,2.203 24.149,0l2.926,-3.658l0,-0.729l-1.462,-10.98l8.053,-5.859l1.461,-3.66l0,-1.455c-2.193,-4.391 -6.586,-10.252 -14.637,-16.84l5.123,-10.977l2.195,-5.119l0,-0.727l-2.195,-3.66l-9.515,-3.66l-2.927,-10.248Zm-3.659,13.908l2.197,2.186l8.048,3.66l-6.587,13.908l-0.732,2.201l1.466,2.922c6.586,4.396 10.245,8.785 13.171,13.172l-7.317,5.861l-1.462,2.922l0,0.738l0.732,9.506l-19.028,-1.459l-2.199,0c-1.461,0.729 -2.193,1.459 -2.927,2.195l-2.927,5.125l-9.512,10.975l-8.784,-5.121l-2.927,-0.738l-8.785,3.66c-3.659,-7.322 -6.585,-14.637 -7.317,-21.221l-3.66,-2.922c-8.051,-1.473 -15.369,-3.66 -20.491,-5.861l3.66,-8.047l0.731,-1.467l-0.731,-2.193l-5.125,-7.32c5.856,-4.387 10.978,-6.588 16.102,-8.045l2.928,-3.662l-0.733,-0.734l0,-10.24l1.466,-11.715l9.512,0.734l2.927,0l7.318,-5.129c5.858,2.201 10.249,7.316 13.175,13.176l2.927,2.934l2.926,-1.475l5.125,-2.924l14.637,-4.395l2.196,8.793Z" style="fill-rule:nonzero;"/><path d="M166.899,444.051c0,-4.396 -1.465,-7.318 -5.125,-10.979c-2.193,-2.932 -5.853,-3.658 -9.512,-3.658c-4.392,0 -7.319,0.727 -10.246,3.658c-2.93,3.66 -4.392,6.582 -4.392,10.979c0,3.658 1.462,7.316 4.392,9.504c2.927,2.932 5.854,4.398 10.246,4.398c3.659,0 7.319,-1.467 9.512,-4.398c3.661,-2.188 5.125,-5.846 5.125,-9.504Zm-8.783,-6.592c1.465,1.461 2.927,3.662 2.927,6.592c0,2.188 -1.461,3.658 -2.927,5.848c-2.195,1.469 -3.66,2.201 -5.854,2.201c-2.927,0 -5.125,-0.732 -5.857,-2.201c-2.193,-2.189 -2.927,-3.66 -2.927,-5.848c0,-2.93 0.733,-5.131 2.927,-6.592c0.733,-2.199 2.931,-2.199 5.857,-2.199c2.194,0 3.659,0 5.854,2.199Z" style="fill-rule:nonzero;"/><path d="M149.335,451.367c-2.198,0 -2.931,0 -2.931,2.188l-1.461,16.113c0,2.186 0,2.922 2.194,2.922l2.927,-0.736l0.732,-2.186l1.465,-15.375c0.001,-2.193 -1.464,-2.926 -2.926,-2.926Z" style="fill-rule:nonzero;"/><path d="M165.435,445.506c-1.461,-1.455 -2.927,-0.727 -3.661,0.732c-0.731,1.471 -0.731,3.66 1.466,4.395l14.638,8.055l3.659,-1.473c1.462,-1.459 0.733,-2.922 -1.465,-3.66l-14.637,-8.049Z" style="fill-rule:nonzero;"/><path d="M139.819,443.314c-0.733,-2.193 -2.195,-2.922 -3.661,-1.467l-11.709,3.658c-2.194,0 -2.927,0.732 -2.927,2.934c0,1.459 0.733,2.928 2.927,2.928c3.659,0 8.05,-1.469 13.175,-3.658c2.195,-1.471 2.195,-2.93 2.195,-4.395Z" style="fill-rule:nonzero;"/><path d="M141.284,419.164c-1.465,-1.467 -2.198,-2.201 -3.66,-1.467c-2.197,0.74 -2.927,2.195 -2.197,3.66l4.392,13.902c0,1.473 1.465,1.473 3.659,1.473c1.465,-1.473 2.927,-2.201 1.465,-3.66l-3.659,-13.908Z" style="fill-rule:nonzero;"/><path d="M174.219,425.752l-3.66,-1.469l-10.978,8.789c-2.198,1.459 -2.198,2.188 -1.465,4.387c1.465,1.461 2.927,1.461 4.392,0.73l11.711,-8.775c1.46,-1.475 1.46,-2.201 0,-3.662Z" style="fill-rule:nonzero;"/><path d="M161.774,37.131l-11.709,0l-6.587,-10.978l-13.172,10.241l-7.318,6.589l-18.297,-4.387l-8.784,-0.73l-1.461,11.708l-11.71,5.854c0.732,8.784 2.926,16.104 8.051,23.422c-4.392,2.193 -7.319,6.59 -10.249,12.436l-3.66,8.055l11.711,5.854l1.464,12.442c5.854,1.466 13.172,0 21.956,-3.66l10.979,16.833l10.245,-7.32l11.71,4.389c5.122,-9.505 7.319,-17.561 5.854,-25.615c9.516,0.738 17.564,-1.458 23.422,-5.847l-0.733,-10.248l8.784,-10.979l-13.909,-10.978l-7.318,-4.387l0.731,-14.64l0,-8.054Z" style="fill:#ffcdde;fill-rule:nonzero;"/><path d="M164.701,34.208l-2.927,-0.736l-10.244,0l-5.125,-8.783c-1.461,-2.195 -2.927,-2.195 -5.121,-1.458c-4.392,2.187 -10.978,7.318 -19.762,15.366l-16.832,-3.659l-8.784,-0.729c-1.461,0 -2.926,0.729 -3.659,2.923l-0.733,10.242l-10.244,4.395c-1.462,0.735 -2.194,1.465 -2.194,3.658c0.732,7.318 2.194,14.638 6.585,23.422c-5.124,3.658 -9.512,10.977 -12.443,19.024l0,1.466l2.197,3.66l9.513,5.122l1.466,9.514l2.195,3.66l21.955,-2.194l10.246,13.909l4.392,0.727l8.784,-5.86l9.512,2.932c2.198,1.464 3.66,0.728 4.392,-1.459c4.392,-6.588 6.585,-15.374 6.585,-23.429c8.784,0 16.103,-2.187 21.957,-6.581l1.465,-2.925l0,-0.735l0,-8.784l7.319,-9.511l0.732,-2.196l-0.732,-2.93c-5.125,-5.854 -12.443,-10.978 -20.495,-14.636l0.733,-15.367l0,-5.125l-0.733,-2.923Zm-18.296,5.117c0.733,1.465 2.199,1.465 3.66,1.465l8.051,0l0,1.466l-0.732,16.83l0,0.739c0,1.457 0.732,2.921 2.198,2.921l5.854,3.66c5.124,3.66 8.784,5.854 11.709,8.784l-6.585,8.048l-0.732,2.931l0.732,8.047c-5.857,3.66 -12.443,5.126 -19.762,4.39c-0.732,0 -2.193,0.736 -2.193,0.736c-1.466,1.464 -1.466,1.464 -1.466,2.922l0,2.929c0,5.123 -0.733,10.976 -4.392,17.568l-8.78,-2.932l-2.927,1.466l-6.589,4.395l-8.781,-13.179c-1.465,-2.195 -2.198,-2.93 -5.125,-2.195c-5.121,3.66 -10.977,4.396 -17.563,3.66l-0.733,-9.514l-2.194,-2.928l-8.784,-4.387c2.927,-7.32 6.586,-12.446 10.978,-14.64l1.464,-2.929l0.733,-0.729l-0.733,-1.464c-3.659,-5.854 -5.856,-13.174 -6.585,-19.762l8.78,-4.389l2.197,-2.93l1.462,-8.048c7.318,0 14.637,0.728 21.956,4.387l4.392,-0.727c5.124,-5.862 10.244,-10.979 16.102,-14.639l4.388,8.048Z" style="fill-rule:nonzero;"/><path d="M139.819,86.167c1.465,-3.66 2.197,-7.318 1.465,-10.979c-0.733,-3.657 -2.926,-7.317 -5.857,-8.784c-3.66,-2.194 -7.318,-3.66 -10.978,-2.194c-4.389,0.729 -7.319,2.931 -8.781,5.854c-2.198,2.193 -2.926,5.124 -2.926,8.054l0.729,2.923c0.733,4.397 2.198,7.318 5.856,8.784c3.661,2.194 7.319,3.66 10.979,2.194c3.66,0.002 6.586,-2.193 9.513,-5.852Zm-8.051,-14.636l4.391,4.388c0,2.93 0,5.123 -2.193,6.588c-0.733,2.194 -2.198,3.66 -5.125,3.66l-5.853,-0.728c-2.198,-0.738 -3.661,-2.932 -3.661,-5.861c-1.464,-1.459 -0.731,-3.659 0.733,-5.854l5.121,-3.66l6.587,1.467Z" style="fill-rule:nonzero;"/><path d="M109.813,57.623l-4.389,1.463c-0.732,0.739 -0.732,2.195 0.729,3.66l11.71,9.513l4.392,-0.727c0.733,-0.732 0.733,-2.204 -0.733,-3.66l-11.709,-10.249Z" style="fill-rule:nonzero;"/><path d="M119.328,84.701c0,-2.194 -1.464,-2.194 -3.659,-1.464l-14.638,8.784c-1.464,0.736 -2.197,1.466 -1.464,3.66c0.732,1.466 2.198,2.193 3.659,1.466l15.37,-8.786c2.194,-0.001 2.194,-2.194 0.732,-3.66Z" style="fill-rule:nonzero;"/><path d="M139.086,49.574c-1.462,-0.729 -2.928,0 -3.659,2.195l-3.66,12.442c0,2.194 0.732,3.66 2.198,3.66l3.659,-2.201l3.66,-12.436c0,-2.203 0,-3.66 -2.198,-3.66Z" style="fill-rule:nonzero;"/><path d="M141.284,72.258c-1.465,0 -2.198,0.73 -3.66,2.93c0,1.458 0,2.931 2.195,3.661l13.904,2.93l3.66,-2.201c0,-2.193 -0.729,-2.932 -2.928,-3.659l-13.171,-3.661Z" style="fill-rule:nonzero;"/><path d="M129.574,86.896c-1.465,0 -2.927,0.73 -2.927,2.93l-0.732,4.388l1.464,10.979c0.73,1.464 1.462,2.202 3.66,1.464c1.461,0 2.194,-1.464 1.461,-3.657c0,-2.196 -0.732,-5.126 -0.732,-8.786l0.732,-4.388c0,-1.466 -0.732,-2.93 -2.926,-2.93Z" style="fill-rule:nonzero;"/><path d="M209.346,221.562c-2.927,-2.2 -7.318,-5.126 -12.439,-8.046l-7.318,-4.397l-5.856,11.712l-11.711,0.731c-0.729,5.854 0.733,14.636 5.124,25.616c-8.051,6.588 -13.171,13.171 -17.563,21.225l10.246,7.318l-0.733,13.166c7.319,3.66 16.103,4.396 24.883,4.396c0,6.582 3.659,13.9 11.71,21.219l10.978,-8.047l10.979,5.125c2.927,-2.924 4.392,-7.318 5.857,-13.902l1.461,-8.055l19.763,-2.195l-1.466,-12.44l8.05,-8.056c-2.926,-5.846 -7.317,-10.242 -12.442,-13.9l-6.586,-3.66c5.125,-7.319 7.319,-15.374 5.856,-22.694l-10.248,-5.115l-5.121,-12.443c-4.392,1.464 -10.245,3.658 -16.103,7.317l-7.321,5.125Z" style="fill:#ffcdde;fill-rule:nonzero;"/><path d="M209.346,217.172l-18.297,-10.978c-2.193,-0.736 -3.659,0 -4.392,2.187l-5.121,8.791l-10.245,0.73c-2.198,0 -2.931,2.193 -2.931,3.66l0,1.457c0,6.591 1.466,14.638 4.392,23.427c-6.587,6.584 -11.71,13.166 -16.099,20.485l-0.733,1.472l2.195,2.923l8.05,6.582l-0.731,10.979c0,1.473 0.731,2.202 2.197,2.93c6.587,2.932 13.904,5.127 23.417,5.127c1.466,6.58 5.124,13.172 11.711,19.76l4.393,0.727l9.512,-6.588l9.517,3.66l4.389,-0.729c4.392,-4.389 6.59,-11.707 8.051,-20.49l17.564,-2.194l2.197,-3.661l0,-0.727l-1.466,-10.25l7.318,-7.318l0.734,-2.202l0,-2.185c-4.393,-6.592 -10.245,-12.453 -18.298,-16.841c3.661,-6.588 5.854,-13.17 5.854,-19.025l-0.729,-3.659l-2.197,-2.201l-8.78,-3.657l-4.392,-10.98c-0.733,-2.187 -2.198,-2.923 -4.393,-2.923c-7.317,2.194 -15.369,6.581 -22.687,11.711Zm-24.883,7.319l2.927,-1.472l3.659,-8.776l16.104,9.514l3.659,0.734l6.586,-4.395l13.904,-5.853l3.659,9.514l1.466,1.463l8.78,3.659c0,7.318 -2.195,13.172 -5.854,19.025l-0.733,1.466l0.733,1.465l2.193,2.195l5.124,3.658l10.245,10.242l-6.584,5.861l-0.733,2.195l0,0.733l0.733,8.779l-14.639,1.465c-2.927,0 -3.659,0.736 -4.392,3.658c-0.732,7.32 -2.927,12.443 -5.121,17.561l-8.783,-3.66l-2.928,0l-8.783,5.861c-5.854,-5.861 -8.051,-11.707 -8.051,-16.102l-1.463,-3.66l-2.196,0l-21.224,-3.658l0.732,-10.244l-1.465,-2.928l-7.319,-5.126c5.125,-7.318 10.25,-13.901 15.37,-17.56l0.733,-2.929l-0.733,-1.466l-4.392,-20.491l8.786,-0.728Z" style="fill-rule:nonzero;"/><path d="M196.173,255.953c-1.464,4.396 -0.731,8.054 1.463,10.979c2.196,3.661 4.392,5.13 8.051,6.589l10.978,-1.459c3.66,-1.469 6.586,-4.395 7.319,-8.054c0.732,-4.395 0.732,-8.054 -1.462,-10.976c-1.466,-3.66 -5.124,-6.584 -8.783,-7.319l-10.979,1.466c-2.928,2.192 -5.124,5.114 -6.587,8.774Zm6.587,8.054c-0.732,-2.193 -1.466,-3.658 -0.732,-6.582l3.659,-5.132l6.586,-0.728c2.197,0.728 4.392,1.466 5.125,4.388l0.732,3.659c0,3.66 -1.466,5.861 -3.66,8.055l-6.585,0l-5.125,-3.66Z" style="fill-rule:nonzero;"/><path d="M202.027,261.085c-0.733,-1.474 -2.195,-2.931 -3.659,-1.474l-14.637,6.591c-1.462,1.463 -2.195,2.2 -0.733,4.389c0,0.733 1.465,1.469 3.659,0.733l14.637,-6.58c0.733,-0.737 1.466,-1.472 0.733,-3.659Z" style="fill-rule:nonzero;"/><path d="M215.203,272.061c0,-1.469 -0.733,-2.928 -2.931,-2.928c-1.461,0 -2.927,1.459 -2.927,2.928l0,17.562c0,1.466 1.466,2.924 3.659,2.924c1.465,0 2.928,-1.458 2.928,-2.924l-0.729,-17.562Z" style="fill-rule:nonzero;"/><path d="M194.709,236.927l-0.732,2.93l-3.659,0l9.515,9.514l4.392,0c1.463,-2.193 0.73,-3.66 -0.73,-4.395l-8.786,-8.049Z" style="fill-rule:nonzero;"/><path d="M224.716,233.998c-0.732,-1.459 -2.194,-1.459 -3.66,0l-8.783,10.979l3.66,0c1.465,0.735 1.465,1.47 0.731,2.929l8.052,-9.512c2.193,-1.467 2.193,-2.923 0,-4.396Z" style="fill-rule:nonzero;"/><path d="M223.25,261.085c-1.462,-0.737 -2.926,-0.737 -4.388,0.728c-1.465,1.458 -1.465,2.193 0.729,3.66l4.392,2.93l10.245,3.658l2.931,-2.2c0.729,-2.195 -0.732,-2.93 -2.198,-3.658l-8.052,-2.931l-3.659,-2.187Z" style="fill-rule:nonzero;"/><path d="M269.359,378.182c-0.732,5.848 1.463,14.639 5.854,25.615c-8.052,6.582 -13.906,13.166 -17.564,21.221l10.246,7.32l-0.733,12.441c7.319,3.66 16.104,5.119 24.153,5.119c0,6.588 3.658,13.176 11.711,21.225l10.246,-8.049l12.439,5.121c2.197,-2.926 4.392,-7.32 5.123,-13.168l2.194,-8.789l19.764,-2.188l-1.466,-11.713l8.051,-8.785c-2.927,-5.115 -7.319,-10.25 -13.173,-13.908l-5.855,-3.66c2.929,-4.389 5.123,-9.506 5.123,-16.096l0,-7.32l-10.245,-4.387l-4.393,-12.449c-5.123,1.475 -10.977,3.66 -16.101,7.32l-8.05,5.129l-12.442,-8.055l-7.318,-4.395l-5.124,11.715l-12.44,0.736Z" style="fill:#ffcdde;fill-rule:nonzero;"/><path d="M279.606,374.521l-10.979,0c-1.465,0 -2.927,2.188 -2.927,3.66l0,0.732c0,5.85 1.462,13.906 5.122,24.148c-7.32,6.582 -12.44,13.17 -16.832,20.49l0,1.465l1.464,2.922l8.78,5.859l-0.732,10.98c0,2.193 0.732,2.93 1.467,3.66c7.317,2.928 14.638,5.115 24.15,5.115c1.465,6.592 5.123,13.18 11.709,19.768l4.393,0.732l9.514,-6.594l8.783,3.662l4.392,-0.729c4.393,-4.387 6.587,-11.707 8.052,-20.496l17.564,-2.189l2.926,-3.658l-1.466,-10.979l7.318,-7.32l0.732,-2.199l0,-1.461c-5.119,-8.053 -10.978,-13.906 -18.295,-17.564c3.659,-6.59 5.124,-13.18 5.124,-18.299l-0.732,-4.387l-1.466,-2.928l-9.513,-2.932l-4.393,-11.707c0,-1.467 -2.192,-2.203 -3.658,-2.203c-7.318,2.203 -14.638,5.861 -23.419,11.715l-11.711,-7.32l-5.854,-3.658c-2.195,-0.736 -3.661,0 -5.121,1.467l-4.392,10.248Zm-0.733,29.276l-0.732,-1.473l-5.122,-20.482l8.781,-0.734l3.658,-2.193l3.661,-8.053l15.369,9.506l4.392,0.74l6.586,-4.398l13.177,-5.848l3.659,9.506l2.194,1.475l8.05,3.66c0,7.318 -1.465,13.166 -5.125,19.025l-0.732,1.457l0,1.473l2.198,2.188l5.122,3.658l10.977,9.521l-6.585,6.59c-0.733,0.727 -0.733,2.186 -0.733,2.924l0,0.734l0.733,8.049l-15.371,1.457c-2.194,0 -3.659,1.473 -3.659,3.66c-1.461,7.316 -2.927,12.449 -5.853,16.836l-8.052,-3.658l-3.659,0.73l-8.052,5.861c-5.854,-6.592 -8.781,-11.715 -8.781,-16.109l-0.731,-3.66l-2.927,0l-20.493,-3.66l0.732,-10.24l-2.195,-2.924l-7.317,-5.131c3.658,-5.846 8.78,-11.707 14.636,-17.561l2.194,-2.926Z" style="fill-rule:nonzero;"/><path d="M300.828,403.797c-3.659,2.188 -6.586,4.389 -6.586,8.779c-1.465,4.387 -0.733,8.047 0.731,10.977c2.927,3.66 5.854,5.861 8.781,6.588c4.393,1.459 8.052,0.73 10.979,-1.463l7.316,-8.055c0.734,-4.391 0,-8.047 -2.192,-10.979c-1.466,-3.66 -4.393,-5.848 -8.052,-7.32l-10.977,1.473Zm-1.462,10.242l4.389,-5.123l5.857,-0.73c2.927,0 4.393,1.459 5.854,3.658l0.731,4.389c0,2.932 -1.463,5.859 -4.391,8.051l-6.586,0c-2.194,0 -3.659,-2.191 -5.125,-3.66c-1.46,-2.186 -1.46,-5.118 -0.729,-6.585Z" style="fill-rule:nonzero;"/><path d="M279.606,426.484c0.732,1.455 2.925,2.193 4.392,1.455l14.637,-5.848c1.461,-1.469 2.193,-2.928 1.461,-4.395c-1.461,-2.191 -2.195,-2.92 -3.659,-1.465l-14.637,6.592c-2.194,0.73 -2.194,2.195 -2.194,3.661Z" style="fill-rule:nonzero;"/><path d="M312.539,429.414c0,-2.201 -0.732,-3.662 -2.927,-3.662c-1.465,0 -2.197,1.461 -2.197,3.662l0,16.824c0,1.471 1.465,2.201 2.93,2.201c2.194,0 2.928,-0.73 2.928,-2.201l-0.734,-16.824Z" style="fill-rule:nonzero;"/><path d="M291.315,392.82c-0.731,-1.473 -2.196,-1.473 -3.658,0c-0.733,0.73 -0.733,2.188 0,3.658l10.243,9.506l3.661,0c1.465,-1.457 1.465,-2.922 0,-4.389l-10.246,-8.775Z" style="fill-rule:nonzero;"/><path d="M322.785,390.617l-3.661,0.73l-10.244,9.521c-0.732,1.455 -0.732,2.928 0.732,5.115l3.66,-0.727l10.245,-10.25c0.733,-1.455 0.733,-2.922 -0.732,-4.389Z" style="fill-rule:nonzero;"/><path d="M320.59,417.697l-4.393,0.74c-0.731,0.727 -0.731,2.186 0.734,3.654l5.119,2.926l9.519,3.66l2.927,-2.193c0.731,-2.201 0,-3.66 -1.467,-3.66c-2.926,-0.732 -5.853,-1.467 -8.779,-2.932l-3.66,-2.195Z" style="fill-rule:nonzero;"/><path d="M101.031,365.732c-2.927,-2.186 -8.05,-3.66 -13.904,-3.66l-8.784,0l-2.194,-13.9l-2.198,-5.852l-11.711,2.928l-10.245,-6.59c-8.052,6.59 -12.439,13.908 -13.905,21.229c-5.124,-2.201 -10.977,-3.66 -16.831,-2.932l-7.319,0.73l-2.929,10.248l-11.707,7.32c2.927,7.314 8.78,14.635 15.366,21.955c-2.927,5.115 -5.854,11.707 -8.78,21.229l11.71,3.654l2.193,11.707c6.587,0 14.638,-3.658 24.883,-8.781c7.318,6.582 15.37,11.715 23.42,13.902l5.854,-10.98l13.176,-1.455c1.462,-4.393 1.462,-10.252 1.462,-16.84l-0.733,-7.32c6.59,-1.455 13.175,-5.846 19.029,-14.635l-8.78,-9.508l2.927,-12.449Z" style="fill:#ffcdde;fill-rule:nonzero;"/><path d="M79.076,345.979l-2.198,-5.125c-0.729,-2.195 -2.926,-2.922 -4.388,-2.195l-9.516,2.932l-8.781,-5.859c-1.464,-1.459 -2.93,-1.459 -4.392,0c-5.857,5.123 -10.978,11.705 -13.904,19.762l-16.104,-2.195l-7.318,0.73l-2.193,2.928l-2.198,8.777l-10.246,6.59c-1.465,0.73 -2.195,1.465 -2.195,2.932l0.729,1.455c2.197,5.859 7.319,13.18 13.909,20.5c-2.931,5.854 -5.125,12.436 -8.051,19.754l0,1.475c0,1.455 0.732,2.186 2.927,2.92l9.512,2.926l2.197,10.977c0.733,2.199 1.461,2.93 3.66,2.199c5.121,0 13.905,-2.928 23.417,-8.045c8.052,5.846 15.37,10.24 22.689,13.164l5.125,-2.186l4.392,-8.793l10.978,-1.459l3.659,-2.201l1.461,-14.637l-0.733,-9.506c6.589,-2.201 13.176,-7.318 19.029,-13.908l0,-2.199l-0.731,-2.188l-7.319,-8.793l2.197,-9.502l0,-1.475l-1.465,-2.924c-5.122,-2.922 -12.439,-4.395 -21.956,-4.395l-2.193,-12.436Zm-4.392,16.093c0.732,2.203 2.194,3.66 4.392,3.66l17.564,2.201l-2.194,8.775l0,1.473l0.729,2.186l7.319,7.322c-5.854,6.588 -10.979,10.248 -15.366,10.979l-2.199,1.469l-0.731,2.188l0.731,10.979l-1.461,10.25l-9.516,0.73l-3.66,2.201l-3.659,7.314c-6.586,-2.199 -13.172,-5.859 -19.029,-11.707c-1.462,-1.469 -3.66,-1.469 -4.389,0c-8.784,3.66 -15.369,6.586 -19.761,7.322l-2.195,-8.057l-2.197,-2.92l-8.78,-2.932c2.193,-7.32 5.12,-12.443 8.046,-16.838l0,-1.459l-0.728,-2.201c-5.857,-5.846 -9.516,-12.439 -13.176,-18.299l8.051,-5.115l2.194,-2.201l2.197,-8.779c6.587,-0.727 13.172,-0.727 19.758,2.934l2.931,0l2.194,-2.934c1.465,-5.859 5.125,-11.707 10.246,-16.836l7.318,4.395l3.661,0.734l8.783,-2.199l2.927,15.365Z" style="fill-rule:nonzero;"/><path d="M43.944,378.914c-3.659,2.928 -5.854,5.85 -5.854,10.248c0,3.658 0,7.316 2.927,10.975c2.926,2.926 5.857,4.391 9.517,5.121c4.389,0.727 7.319,-0.73 10.979,-2.934c2.926,-2.188 5.12,-5.846 5.12,-9.504l0,-2.203c0,-3.656 -0.732,-6.588 -2.927,-8.775c-2.193,-3.66 -5.124,-5.133 -9.513,-5.133c-3.659,-0.727 -7.318,0 -10.249,2.205Zm16.835,12.434l-2.926,5.861c-2.198,1.459 -3.66,2.928 -6.59,2.193c-2.926,-0.734 -4.388,-1.465 -5.121,-2.924c-2.198,-2.201 -2.198,-4.395 -2.198,-7.316c0,-1.473 1.465,-3.66 3.66,-5.133c1.465,-1.461 3.659,-2.188 5.857,-2.188c2.194,0.727 4.392,2.188 5.853,3.66l1.465,5.847Z" style="fill-rule:nonzero;"/><path d="M59.313,398.668l-4.391,0c-1.462,0.734 -1.462,1.469 -0.73,3.656l8.781,13.182c0,1.457 2.197,2.191 3.659,1.457c2.198,-2.186 2.198,-3.66 0.732,-4.387l-8.051,-13.908Z" style="fill-rule:nonzero;"/><path d="M84.197,383.301c0,-1.459 -1.462,-2.934 -2.927,-2.193l-16.832,2.922c-2.198,0 -2.926,1.473 -2.926,2.932c0.728,2.201 1.461,2.928 3.659,2.201l16.099,-2.934c2.927,0 3.659,-0.727 2.927,-2.928Z" style="fill-rule:nonzero;"/><path d="M42.482,398.668c-2.197,-1.459 -2.926,-1.459 -4.392,0.734l-6.585,10.242c-1.466,0.734 -1.466,2.199 -0.733,3.658l4.392,0.736l8.779,-11.715c0.734,-2.186 0.001,-3.655 -1.461,-3.655Z" style="fill-rule:nonzero;"/><path d="M29.308,378.182c-2.194,-0.734 -3.66,0 -4.389,1.459c-1.465,0.727 -1.465,2.201 0.729,4.389l11.711,7.318c1.465,1.473 2.926,0.736 4.391,-1.459c0.732,-0.727 0.732,-2.199 -1.465,-3.66l-10.977,-8.047Z" style="fill-rule:nonzero;"/><path d="M58.582,362.072c-2.194,0 -3.659,0.736 -3.659,2.932l-2.927,13.178c-0.733,0.732 -0.733,2.186 1.465,3.66c1.462,0.727 2.194,0 3.66,-1.475c2.193,-5.113 4.392,-9.506 4.392,-14.635c0,-2.185 -0.734,-3.66 -2.931,-3.66Z" style="fill-rule:nonzero;"/><path d="M36.625,455.027c-3.659,-1.473 -7.318,-3.66 -13.171,-6.588l-8.052,-2.201l-3.659,12.449l-12.439,2.188c0.728,5.859 2.927,14.639 8.78,24.154c-6.587,7.322 -10.979,15.367 -13.906,23.416l10.979,5.861l0.732,13.172l24.882,0.734c1.465,6.586 6.586,13.166 15.37,19.754l8.781,-9.512l12.442,2.924c2.194,-2.924 2.927,-8.047 3.66,-13.9l0.732,-8.785c6.586,0 13.171,-1.455 19.029,-4.387l-2.931,-11.709l7.319,-10.246c-4.388,-4.389 -9.513,-8.049 -14.637,-10.98l-7.319,-2.93c2.931,-5.119 3.659,-10.246 3.659,-16.832l-0.729,-7.316l-10.978,-2.926l-6.589,-10.975c-8.046,2.922 -15.365,8.047 -21.955,14.635Z" style="fill:#d96038;fill-rule:nonzero;"/><path d="M8.816,455.027l-10.246,2.188c-1.465,0 -2.927,1.473 -2.927,3.66c0.729,5.859 2.927,13.908 8.78,24.154c-6.585,7.322 -10.978,14.641 -13.172,21.957l-0.732,1.459c0,2.201 0.732,2.932 2.193,2.932l8.784,5.861l0.733,10.975c0,0.732 1.461,2.186 2.927,2.186l24.15,2.203c2.198,5.854 7.318,12.438 14.636,18.299l4.393,0l8.051,-8.785l10.245,2.924c1.465,0.734 2.927,0 3.659,-1.457c2.927,-3.66 4.392,-10.98 5.124,-21.957l16.832,-4.387l2.198,-2.932l0,-0.729l-2.931,-10.248l6.589,-8.049l0.729,-2.93l-0.729,-2.201c-5.856,-5.848 -12.443,-10.982 -20.494,-13.902l2.927,-13.9l-1.461,-8.793l-2.198,-2.922l-9.513,-2.193l-5.853,-10.25c-0.733,-1.457 -2.199,-2.93 -4.392,-1.457c-7.319,2.188 -13.905,7.318 -21.223,13.9l-12.443,-5.854l-7.319,-2.201c-1.465,0 -3.66,0 -4.392,2.201l-2.925,10.248Zm3.66,7.321l2.194,-2.932l2.931,-8.049c8.047,2.188 13.172,4.389 16.831,7.32l4.392,-0.734c5.12,-5.854 11.71,-10.244 18.297,-13.174l5.12,8.775l2.198,1.473l8.051,2.188l0.729,5.133c0,5.848 -1.461,10.975 -2.927,14.637l-0.732,1.457l0.732,2.203l2.198,1.457l5.121,2.201l12.443,8.775l-5.125,7.318l-0.731,2.201l0,0.732l2.197,8.047l-14.637,3.66c-2.927,0 -3.66,1.463 -3.66,3.656l0,2.201c0,5.846 -1.465,11.707 -2.926,16.098l-9.517,-2.193c-0.732,0 -2.194,0 -2.926,1.461l-7.319,6.594c-5.853,-5.861 -9.512,-10.252 -10.978,-15.375l-1.465,-2.193l-2.194,-0.732l-21.224,0l-0.733,-10.246l-2.194,-2.93l-8.051,-4.391c3.66,-8.047 7.319,-13.908 12.44,-19.023l0.732,-2.934l0,-1.461c-4.392,-8.055 -6.585,-14.641 -8.051,-20.494l8.784,-0.726Z" style="fill-rule:nonzero;"/><path d="M43.944,479.168c-3.659,0 -7.318,1.477 -9.512,5.135c-2.926,2.188 -4.392,5.848 -4.392,9.506c0,4.395 1.466,7.318 4.392,10.25c2.194,2.928 5.854,4.387 10.246,4.387c3.659,0 7.318,-1.459 10.246,-4.387c2.93,-2.932 4.391,-6.59 4.391,-10.25c0,-4.387 -1.46,-7.318 -4.391,-10.24c-2.928,-2.924 -6.588,-4.401 -10.98,-4.401Zm-5.854,8.795c2.195,-2.201 4.392,-2.934 5.854,-2.934c2.931,0 4.393,0.732 6.59,2.934c1.461,1.459 2.927,3.66 2.927,5.846l-2.927,5.861c-1.465,2.193 -2.93,2.928 -5.857,2.928c-2.195,0 -4.392,-0.734 -6.587,-2.928c-1.465,-1.467 -2.193,-3.66 -2.193,-5.861c0,-2.186 0.728,-4.387 2.193,-5.846Z" style="fill-rule:nonzero;"/><path d="M35.165,495.281l-4.392,-0.736l-13.172,8.053c-1.465,1.461 -1.465,3.66 -0.733,4.389c0.733,1.459 2.195,2.197 4.392,0.73l13.172,-8.047c1.465,-0.731 2.193,-2.934 0.733,-4.389Z" style="fill-rule:nonzero;"/><path d="M49.801,505.523l-2.197,2.193l-3.66,-2.193l2.931,16.83c0,2.199 0.729,2.932 2.927,2.932l2.194,-3.66l-2.195,-16.102Z" style="fill-rule:nonzero;"/><path d="M23.454,471.854l-3.66,0c-1.465,1.469 -1.465,2.201 0,3.66l5.854,5.131l5.125,3.658l4.392,-1.473c1.461,-1.459 0.733,-2.922 -0.733,-3.662l-10.978,-7.314Z" style="fill-rule:nonzero;"/><path d="M54.193,465.27l-4.392,0.738l-7.319,11.707c-1.465,1.453 -0.732,2.93 0.733,3.656c1.462,1.459 2.927,1.459 3.659,-0.727l8.048,-10.977c0.733,-1.472 0.733,-2.933 -0.729,-4.397Z" style="fill-rule:nonzero;"/><path d="M55.655,492.352c-1.462,-0.729 -2.926,-0.729 -4.392,1.457c0,1.473 0,2.928 1.466,3.66l5.125,2.201l10.245,2.193c2.194,0 2.927,-1.467 2.927,-2.924c0,-2.203 -0.733,-2.93 -2.927,-2.93l-8.784,-2.201l-3.66,-1.456Z" style="fill-rule:nonzero;"/><path d="M233.5,-4.587l-10.979,-0.728l-9.517,-10.25c-3.659,2.931 -8.051,6.59 -12.439,12.443l-5.856,7.318l-13.905,-3.659l-8.051,-1.466l-1.461,12.443l-11.71,5.125c2.193,5.854 5.854,13.172 13.172,21.956c-4.392,8.777 -7.318,17.567 -8.78,25.615l11.706,3.66l3.66,13.171c8.051,0 16.834,-1.464 24.154,-4.396c2.926,5.861 9.512,11.714 18.295,16.84l7.32,-10.979l13.171,0c2.198,-5.122 2.198,-12.442 0,-22.683c5.856,-2.202 11.711,-4.397 17.563,-8.055l-5.853,-10.978l5.853,-10.978c-5.119,-4.396 -10.244,-7.318 -16.831,-8.784l-7.318,-0.729c2.194,-9.519 1.465,-17.567 -2.194,-24.886Z" style="fill:#d96038;fill-rule:nonzero;"/><path d="M224.716,-8.975l-8.052,-8.783l-5.12,0c-5.857,3.659 -12.442,9.512 -17.567,17.56l-13.906,-2.923l-7.318,-1.466c-2.194,0 -3.66,1.466 -3.66,2.931l-1.461,10.979l-9.516,3.659c-1.462,0.729 -2.195,2.193 -2.195,3.659l0,0.729c2.195,6.589 5.853,13.908 13.172,21.956c-4.392,8.785 -7.319,16.103 -8.78,24.886c0,2.194 0.729,3.66 2.927,3.66l9.513,3.66l2.926,10.248l3.66,2.922l23.421,-3.659c3.659,5.854 9.513,10.979 17.564,15.373l4.392,-0.734l6.586,-9.513l10.978,0l3.66,-2.202l0.731,-10.241l-0.731,-10.979c8.051,-3.66 13.903,-5.854 16.103,-8.782l1.46,-2.194l0,-2.195l-5.12,-8.784l4.393,-9.512l0.728,-1.465l-1.46,-2.923c-6.588,-5.861 -13.906,-9.52 -22.688,-10.249l0.731,-5.86l-1.467,-11.711l-2.193,-5.117c-0.733,-0.736 -1.466,-2.201 -2.927,-2.201l-8.784,-0.729Zm-2.928,7.318l9.514,0.729l1.465,12.443l-0.732,7.319l0,1.465l0.732,2.194c1.462,0.736 2.194,1.465 2.927,1.465l5.854,0.73c5.124,1.465 9.516,2.929 13.177,6.589l-3.661,7.319l-0.73,2.193l0.73,1.466l3.661,7.318l-13.905,6.59c-1.465,0.728 -2.198,2.187 -2.198,3.661l0,0.728l0.733,13.173l0,5.125l-9.515,0l-2.93,0.729l-5.854,8.782c-6.586,-3.66 -11.71,-8.055 -13.903,-13.172l-1.466,-2.2l-3.659,0.736c-5.854,2.194 -13.172,3.66 -19.758,3.66l-2.931,-10.243l-2.927,-2.931l-8.051,-2.201c0.732,-6.583 4.392,-13.901 8.051,-21.221l0,-2.193l0,-1.465c-5.854,-7.319 -9.513,-13.172 -11.711,-18.296l8.052,-3.66l2.198,-2.923l1.461,-8.791l17.564,4.396c1.465,0 2.93,0 4.392,-2.195l3.659,-5.124c3.659,-4.396 7.318,-8.056 10.978,-10.979l6.587,8.056l2.196,0.728Z" style="fill-rule:nonzero;"/><path d="M196.173,42.983c1.463,3.66 2.929,6.59 5.854,9.521c3.659,2.187 7.318,2.923 10.978,2.187c4.393,-1.457 7.319,-2.922 9.517,-6.582c2.194,-2.925 2.926,-6.583 2.194,-10.979c-0.732,-2.923 -2.928,-5.854 -6.586,-8.784c-2.927,-2.194 -6.586,-2.931 -10.978,-2.194c-3.659,1.464 -6.587,3.659 -8.784,6.582c-2.195,2.932 -2.927,6.591 -2.195,10.249Zm7.32,-7.317c0.73,-2.194 2.193,-2.931 5.12,-3.659l6.59,1.464c2.194,1.466 2.927,2.923 3.659,5.125l0.729,2.193c0,4.395 -2.928,7.32 -7.319,8.055l-6.586,-0.735l-3.659,-5.854c0,-2.201 0,-4.389 1.466,-6.589Z" style="fill-rule:nonzero;"/><path d="M202.027,43.712c-1.462,-1.457 -2.926,-1.457 -4.392,0l-11.707,10.979c-0.732,1.473 -0.732,2.932 0,4.395c1.461,1.466 2.927,1.466 4.389,0l10.977,-10.976c2.199,-1.467 2.199,-2.926 0.733,-4.398Z" style="fill-rule:nonzero;"/><path d="M223.25,65.67l-5.853,-15.366c0.732,1.465 0,2.93 -1.465,2.93c-1.463,0.729 -2.928,0.729 -3.66,-1.465l5.857,16.102c0,2.194 2.194,2.194 3.658,2.194c2.196,-1.466 2.929,-2.194 1.463,-4.395Z" style="fill-rule:nonzero;"/><path d="M185.929,22.494l-4.393,0.736c-0.732,0.729 -0.732,2.923 0.733,4.388l13.172,5.854c2.194,0 2.927,0 3.66,-2.194c0.73,-1.465 0.73,-2.93 -1.466,-3.66c-6.586,-2.201 -10.245,-3.66 -11.706,-5.124Z" style="fill-rule:nonzero;"/><path d="M214.47,10.78c-2.197,-1.458 -3.658,-0.729 -3.658,1.472l-5.857,12.437c0,2.2 0,3.659 2.198,4.388c1.461,0.736 2.193,0 3.659,-1.458l5.121,-13.179c0.731,-1.459 0,-2.924 -1.463,-3.66Z" style="fill-rule:nonzero;"/><path d="M221.056,37.131c-1.464,-0.737 -3.658,0 -3.658,1.465c-0.733,2.193 0,3.66 2.194,3.66l5.124,1.457l10.245,0c2.198,-0.729 2.927,-1.457 2.927,-2.923c-0.729,-2.193 -2.194,-3.659 -3.659,-2.923l-8.781,0l-4.392,-0.736Z" style="fill-rule:nonzero;"/><path d="M210.812,446.238l-12.443,7.316c3.659,7.32 8.784,14.641 16.102,21.959c-3.658,4.395 -7.317,10.977 -9.516,20.496l11.71,3.66l2.198,12.436c5.854,-0.729 13.904,-3.66 24.882,-8.775c7.318,6.588 14.638,11.707 23.418,13.908l5.124,-10.252l13.172,-0.729c1.466,-5.861 2.199,-10.977 2.199,-17.568l-0.733,-8.045c6.585,-0.736 13.172,-5.131 19.761,-13.91l-8.784,-9.52l2.928,-12.436c-2.928,-2.201 -8.051,-3.658 -13.904,-4.387l-8.783,0l-2.194,-13.18l-2.928,-5.855l-11.711,2.926l-8.782,-7.32c-8.781,6.59 -13.172,13.908 -14.638,21.957c-5.854,-2.926 -10.979,-4.389 -16.832,-3.66l-8.051,0l-2.195,10.979Z" style="fill:#d96038;fill-rule:nonzero;"/><path d="M194.709,453.555l0.732,0.738c2.927,6.582 7.318,13.902 13.904,21.221l-5.853,12.449l-2.199,7.318l0,0.729c0,1.459 0.733,2.93 2.199,2.93l9.512,3.658l2.198,10.242c0.729,2.197 1.461,2.924 4.389,2.924c7.317,-0.727 15.369,-3.658 23.42,-8.047c7.32,5.861 14.638,10.248 22.688,13.908l4.392,-2.201l5.122,-8.777l10.979,-0.729l2.927,-2.932l2.196,-15.363l-0.731,-8.793c7.316,-2.186 13.171,-6.582 19.028,-13.902l0.732,-2.193l-1.465,-2.201l-7.318,-8.777l2.927,-9.518l0,-1.459l-2.194,-2.932c-4.394,-2.928 -11.71,-5.115 -20.494,-5.115c-2.193,-9.52 -2.927,-14.641 -5.122,-16.84c-0.731,-1.455 -2.196,-2.93 -4.392,-2.195l-10.244,2.926l-8.052,-6.584c-1.465,-0.736 -2.928,-0.736 -3.658,0c-7.32,5.125 -11.712,11.713 -14.639,19.76l-16.102,-2.199l-6.587,0c-1.461,0.738 -2.193,1.473 -2.927,3.66l-2.926,8.791l-10.246,5.848c-0.732,0.733 -2.196,1.467 -2.196,3.655Zm44.645,-11.707l2.193,-2.928c1.465,-5.848 5.124,-11.707 10.979,-16.828l7.317,5.121l2.932,0.727l8.78,-2.188l2.927,14.641c0,2.922 1.465,3.658 3.659,3.658l18.296,2.922l-2.194,8.783l0,3.66l7.319,7.318c-5.125,6.588 -10.978,10.25 -15.369,10.25l-2.927,1.457l0,2.93l0.732,10.252l-1.467,10.975l-10.245,0.732c-0.731,0 -2.194,0.729 -2.927,1.455l-4.391,8.793l-19.029,-13.182l-3.66,-0.727l-20.491,8.047l-1.464,-8.777l-2.927,-2.93l-8.052,-2.932c2.927,-7.316 5.124,-12.434 7.318,-16.094l0.733,-1.471l-0.733,-2.924c-5.853,-5.855 -9.512,-11.715 -13.171,-17.563l9.512,-5.129l1.465,-2.189l2.194,-8.789c6.586,-1.461 12.444,0 19.029,2.928l3.662,0l0,0.002Z" style="fill-rule:nonzero;"/><path d="M262.774,457.215c-2.198,-2.922 -5.858,-4.389 -9.517,-4.389c-4.393,0 -7.318,1.467 -10.246,4.389c-3.658,2.932 -4.392,5.859 -4.392,10.246c0,4.393 0.733,7.322 4.392,9.523c2.928,3.66 5.854,4.387 10.246,4.387c3.658,0 7.318,-0.727 9.517,-4.387c2.926,-2.201 4.388,-5.131 4.388,-9.523c0,-4.387 -1.462,-7.315 -4.388,-10.246Zm-16.103,3.66c2.194,-1.459 3.661,-2.188 6.587,-2.188c2.196,0 4.392,0.729 5.124,2.188c2.194,2.199 2.926,3.658 2.926,6.586c0,2.207 -0.731,4.393 -2.926,5.861c-0.732,2.191 -2.928,2.191 -5.124,2.191c-2.926,0 -4.393,0 -6.587,-2.191c-1.464,-1.469 -2.927,-3.654 -2.927,-5.861c0,-2.928 1.463,-4.387 2.927,-6.586Z" style="fill-rule:nonzero;"/><path d="M257.649,477.715c0,-2.201 -1.465,-2.201 -3.659,-0.73c-1.465,1.457 -1.465,2.184 -0.732,3.66l8.05,13.164c0.734,2.201 2.927,2.201 4.393,1.473c1.462,-1.473 2.195,-2.203 0.732,-3.658l-8.784,-13.909Z" style="fill-rule:nonzero;"/><path d="M267.162,464.533c0,2.201 -0.729,3.662 -2.928,3.662l17.565,-2.188c1.466,-0.738 2.198,-1.475 1.466,-3.66c0,-1.473 -1.466,-2.932 -3.659,-2.932l-16.104,2.932l3.66,2.186Z" style="fill-rule:nonzero;"/><path d="M242.279,476.984c-2.194,-1.471 -3.659,-1.471 -4.392,0.73l-7.318,10.248c-1.461,0.727 -2.194,2.188 -0.73,3.66l4.39,0.729c2.931,-2.93 5.856,-6.59 8.783,-11.707c0.732,-1.476 0.732,-2.929 -0.733,-3.66Z" style="fill-rule:nonzero;"/><path d="M228.375,457.215c-1.466,-1.459 -2.928,-1.459 -3.659,0c-1.466,2.201 -1.466,3.66 0,4.395l11.711,8.059c2.193,0.727 2.927,0.727 4.392,-1.473c1.461,-1.461 0.729,-2.188 -1.465,-3.662l-10.979,-7.319Z" style="fill-rule:nonzero;"/><path d="M257.649,440.393c-1.465,0 -2.926,1.455 -2.926,3.658c0,3.658 -0.733,8.049 -3.661,11.705c-0.73,2.197 -0.73,3.66 1.463,4.391c1.465,0.729 3.659,0.729 4.391,-1.459c2.2,-5.133 3.66,-10.248 4.392,-14.637c0,-1.473 -1.465,-2.93 -3.659,-3.658Z" style="fill-rule:nonzero;"/><path d="M-5.821,53.234c0,5.852 2.195,13.171 7.319,21.226c-5.854,3.659 -10.246,8.047 -14.637,13.9l8.051,8.786l-1.465,11.705l19.029,2.931l7.318,-1.466c0,9.513 3.66,17.561 8.784,22.694l10.978,-2.933l11.707,7.32l8.051,-15.366l3.661,-8.055l22.688,-2.193l-2.196,-12.443l9.514,-8.785c-2.194,-2.929 -5.854,-6.589 -11.711,-10.977l-8.051,-5.854l1.465,-19.034l-0.732,-8.048l-11.711,0l-7.318,-10.978c-8.781,2.201 -16.099,5.861 -22.685,11.708c-2.93,-2.923 -6.59,-6.583 -13.176,-8.777l-8.78,-1.465l-4.392,12.444l-11.711,3.66Z" style="fill:#d96038;fill-rule:nonzero;"/><path d="M63.706,42.983l-5.853,-9.512c-0.732,-0.736 -2.93,-1.464 -3.66,-1.464c-7.318,1.464 -13.908,5.124 -21.955,10.249c-2.93,-2.931 -7.319,-5.125 -13.909,-7.319l-7.317,-1.466c-2.195,0 -3.66,0 -4.389,2.194l-2.93,10.978l-10.246,2.931l-2.927,2.93l0,1.459c0,6.589 2.193,12.442 6.585,19.762l-9.512,8.054l-3.659,4.388l-0.733,2.193l0.733,2.194l7.317,7.319l-1.464,10.249l0,0.729c0,1.464 0.732,2.931 2.925,2.931c8.052,3.659 16.103,4.387 23.422,3.659c2.193,8.047 5.124,14.636 9.512,20.49l3.66,0.738l9.516,-2.203l10.246,5.861l5.124,-0.737c3.66,-4.395 7.32,-11.714 11.708,-21.955l20.494,-2.194c2.195,-0.729 2.926,-2.2 2.926,-3.659l0,-1.466l-2.193,-9.512l8.047,-7.317l1.465,-2.932l-0.733,-2.194c-3.659,-5.124 -10.246,-10.976 -19.029,-16.102l1.466,-15.367l-0.733,-10.976c0,-1.466 -1.461,-2.933 -3.659,-2.933l-10.245,0Zm-31.468,8.048l2.194,-1.457c5.854,-4.39 11.71,-7.318 19.029,-8.784l5.853,8.055l2.927,1.459l8.051,0l0.733,6.588l-1.465,16.096l0,0.736l1.465,3.66l16.831,13.17l-6.586,5.86l-1.462,2.925l1.462,8.782l-18.296,2.194c-1.461,0 -3.661,0 -3.661,2.195l-2.193,6.59l-7.319,13.171l-8.051,-5.124l-3.66,-0.73l-8.051,2.194c-4.392,-5.125 -6.585,-10.978 -6.585,-18.297l-2.195,-2.194l-2.931,-0.727l-20.49,-1.474l0.732,-8.774l-0.732,-2.933l-6.587,-5.854l12.44,-10.976l1.465,-2.925l-0.733,-2.202c-3.659,-5.854 -5.854,-11.707 -6.585,-16.831l9.513,-2.193l2.198,-2.93l2.926,-9.514c8.784,2.194 14.638,5.126 16.832,8.784l2.931,1.46Z" style="fill-rule:nonzero;"/><path d="M23.454,79.578c-1.465,3.658 -0.733,7.318 1.465,10.977c1.462,2.932 4.389,5.86 8.048,6.592l10.977,-1.466c3.66,-1.466 5.857,-4.395 7.319,-8.784c0.733,-3.66 0,-7.318 -1.461,-10.977c-2.197,-2.931 -5.124,-5.12 -8.784,-5.854l-10.978,0.733c-2.927,1.459 -5.854,4.389 -6.586,8.779Zm9.513,-3.659l6.589,-0.73l5.121,3.661c1.465,2.93 1.465,5.116 0.732,7.318l-3.659,4.388l-7.318,1.466l-5.124,-4.395c0,-1.459 -0.729,-2.187 -0.729,-4.39c-0.001,-2.931 1.461,-5.852 4.388,-7.318Z" style="fill-rule:nonzero;"/><path d="M54.923,59.085c-1.462,-1.463 -2.927,-1.463 -3.66,0.739l-7.319,13.9c-1.461,1.464 -0.729,3.66 0.733,3.66c2.197,1.464 2.927,1.464 3.659,-0.739l8.051,-13.901c0.734,-2.192 0.734,-2.92 -1.464,-3.659Z" style="fill-rule:nonzero;"/><path d="M21.989,59.085l-4.388,0c-1.465,1.466 -1.465,2.925 0,4.396l9.513,13.165c-0.732,-1.458 -0.732,-2.921 1.465,-4.388l3.66,0.73l-10.25,-13.903Z" style="fill-rule:nonzero;"/><path d="M53.461,86.167c-2.198,0 -2.927,0.729 -2.927,2.193c0,2.194 0.729,3.66 2.927,3.66l12.439,1.466c1.465,0 2.93,0 3.659,-2.201c0.732,-1.459 0.732,-2.925 -1.462,-3.659l-14.636,-1.459Z" style="fill-rule:nonzero;"/><path d="M43.944,93.486c-1.461,0 -2.194,0.728 -2.926,2.194l-0.732,14.636c0,1.466 0,2.195 2.197,2.925c2.195,0 3.66,-1.459 3.66,-2.925l0.732,-13.901l-0.732,-2.201l-2.199,-0.728Z" style="fill-rule:nonzero;"/><path d="M30.772,86.896c0,-1.457 -1.465,-2.195 -2.926,-2.195l-5.125,0c-4.392,0.738 -7.318,1.466 -10.245,3.66c-1.464,0.736 -1.464,1.466 -0.732,3.66c0.732,1.466 2.197,2.193 3.659,1.466c2.198,-1.466 5.125,-2.932 8.052,-2.932l5.124,-0.729c1.461,0 2.193,-0.729 2.193,-2.93Z" style="fill-rule:nonzero;"/><path d="M245.939,359.15l-4.393,-7.318l-10.978,4.395l-10.978,-6.588c-6.587,5.115 -12.439,11.707 -16.099,19.754l-15.37,-2.186l-8.784,1.455l2.197,13.18l-10.245,8.047c1.461,5.119 6.586,10.98 15.366,16.834c-2.926,5.854 -5.854,11.715 -7.318,18.295l10.979,4.396l3.659,11.707c9.517,-0.729 18.296,-3.662 24.153,-8.783c4.392,8.055 10.245,13.9 17.563,16.83l8.784,-6.59l13.172,1.473l2.193,-18.299l-1.461,-8.789c5.853,-1.457 13.173,-5.846 20.491,-10.979l-7.318,-10.242l5.123,-11.713c-2.927,-1.461 -8.051,-3.662 -15.37,-5.115l-9.512,-2.205l-5.854,-17.559Z" style="fill:#d96038;fill-rule:nonzero;"/><path d="M245.207,348.906l-5.122,-0.734l-8.783,4.395l-10.246,-5.859c-0.731,-0.729 -2.193,-0.729 -3.658,0c-4.393,3.658 -10.245,9.52 -15.37,17.568l-15.37,-0.729l-8.048,2.186l-2.931,2.93l0,0.73l1.465,10.975l-8.051,6.594l-1.461,2.928l0.729,1.459c2.198,5.131 6.59,10.977 13.909,16.109c-2.931,5.846 -5.857,10.98 -6.591,16.826l0,0.734c0,1.467 0.733,2.922 2.199,3.66l9.512,3.66l2.928,10.24c0.731,1.473 2.197,2.201 3.659,2.201c8.051,-0.729 15.369,-2.201 22.688,-7.32c5.124,6.592 10.979,12.439 18.297,14.641l3.659,0l7.319,-5.861l11.71,1.471l3.658,-2.93l2.194,-16.102l-0.728,-9.514l18.297,-10.248l1.46,-2.932l-0.731,-2.188l-5.854,-8.789l4.393,-9.506l0,-1.473l-1.466,-2.922c-3.659,-2.926 -11.711,-5.125 -24.149,-8.055l-5.858,-16.826l-3.659,-7.319Zm-16.832,10.981l3.659,0l8.051,-3.66c3.659,5.846 6.586,13.166 8.78,21.221c0,1.467 0.733,2.92 2.197,2.92l21.224,5.861l-3.659,7.322l-0.731,2.191l0.731,1.467l5.124,7.318c-8.051,5.117 -12.443,8.049 -16.102,8.775c-1.465,1.475 -2.926,2.203 -2.926,3.66l0.73,0.734l0.73,10.98l-1.461,10.977l-9.517,-0.734l-2.928,0l-6.586,5.859c-6.585,-2.201 -10.978,-7.32 -14.638,-13.908l-2.193,-1.457l-2.93,0c-5.121,4.385 -11.709,6.58 -19.76,7.318l-2.196,-8.055l-2.194,-2.926l-8.051,-2.928l6.586,-13.908l0,-2.193l-1.462,-2.926c-5.124,-3.66 -9.517,-7.318 -12.443,-12.449l7.319,-6.584l1.465,-2.922l-1.465,-10.248l18.296,0.729l3.659,0.73l1.466,-2.191c3.659,-6.586 7.317,-11.711 13.172,-16.107l8.053,5.134Z" style="fill-rule:nonzero;"/><path d="M211.544,391.348c-2.198,3.66 -2.931,7.32 -2.198,10.977c0,3.66 1.466,7.32 5.124,9.52c2.928,2.934 6.586,2.934 10.978,2.934c3.661,-0.738 6.587,-2.934 9.514,-5.861c2.198,-2.932 2.927,-6.592 2.927,-10.248c-1.461,-4.391 -2.927,-7.32 -5.854,-9.506c-3.659,-2.934 -7.318,-3.66 -10.979,-2.934c-4.392,-0.001 -6.586,2.194 -9.512,5.118Zm5.12,3.66c1.466,-2.188 3.66,-2.924 5.124,-3.66c2.928,0 5.121,0 6.587,2.203l3.659,5.117l-2.195,6.59l-5.123,3.658l-6.586,-1.459c-1.466,-1.473 -3.66,-3.66 -3.66,-5.861l0,-1.459l2.194,-5.129Z" style="fill-rule:nonzero;"/><path d="M229.108,370.861c-1.466,-0.734 -2.928,0 -2.928,2.191l-1.465,16.109c0,1.455 0.731,2.186 2.927,2.922c1.466,0 2.927,-0.736 2.927,-2.922l1.465,-16.109c0,-1.458 -0.732,-2.191 -2.926,-2.191Z" style="fill-rule:nonzero;"/><path d="M199.102,384.764c-1.466,-0.734 -2.929,-0.734 -3.66,0.738c-0.732,2.188 -0.732,3.66 1.465,4.387l13.905,7.32c-0.733,-0.73 -1.466,-1.467 0,-3.658c0,-1.467 2.193,-2.203 3.658,-0.73l-15.368,-8.057Z" style="fill-rule:nonzero;"/><path d="M256.185,394.277c0,-1.457 -1.461,-2.93 -2.927,-2.93l-13.904,4.395c-2.194,0.736 -2.927,1.467 -1.466,3.66c0.732,1.467 1.466,2.193 3.659,1.467l11.711,-3.66c1.466,0 2.927,-0.73 2.927,-2.932Z" style="fill-rule:nonzero;"/><path d="M237.888,408.186c-1.461,-2.201 -2.194,-2.201 -3.659,-2.201c-2.194,1.473 -2.927,2.201 -2.194,3.66l4.393,13.18c0.732,2.193 2.193,2.928 3.658,2.193c2.194,-0.734 2.927,-2.193 2.194,-3.66l-4.392,-13.172Z" style="fill-rule:nonzero;"/><path d="M219.592,405.984c-1.462,-1.457 -2.928,-2.188 -4.389,-1.457c-0.733,0 -2.198,1.457 -4.392,2.93l-8.052,7.32c-0.732,0.729 -0.732,2.186 0.733,3.66l3.659,0l6.586,-6.594l3.659,-2.199c2.196,0.001 2.196,-1.458 2.196,-3.66Z" style="fill-rule:nonzero;"/><path d="M252.525,192.288l-16.099,-8.785l-7.318,-2.195c2.193,-5.123 2.926,-10.977 1.461,-16.837l-2.194,-7.32l-10.978,-1.458l-8.052,-10.977c-7.318,3.66 -13.173,10.249 -19.758,17.568c-2.931,-1.474 -8.052,-2.933 -13.909,-4.397l-8.047,-1.464l-2.197,12.442l-11.711,3.66c0.732,6.581 5.124,13.9 11.711,23.421c-5.854,8.775 -9.514,16.83 -10.979,24.883l10.979,4.39l3.659,13.172l24.883,-2.922c1.465,6.581 7.317,12.434 16.835,17.56l8.051,-10.243l12.439,2.188c1.465,-3.659 2.198,-8.778 1.465,-14.639l-0.732,-8.775l19.028,-7.319l-4.392,-10.978l5.855,-10.975Z" style="fill:#d96038;fill-rule:nonzero;"/><path d="M233.5,159.352l-1.466,-4.387l-2.926,-1.473l-9.517,-1.458l-7.319,-9.519l-5.12,-0.731c-5.125,2.932 -11.711,8.786 -18.297,16.103l-13.177,-3.659l-7.318,-1.464c-1.461,-0.73 -2.926,0.728 -4.388,2.929l-2.199,10.25l-9.512,2.923c-1.465,0.736 -2.197,2.194 -2.197,3.66l0,0.735c0.732,5.119 4.391,13.166 10.978,22.687c-5.122,8.048 -8.78,16.094 -10.246,24.148l0,0.735l2.927,2.926l9.516,4.395l2.195,10.241l2.926,3.659l23.421,-2.195c2.927,5.854 8.783,12.436 16.831,16.832c2.198,0.736 3.659,0.736 4.392,-0.736l7.319,-9.506l10.245,2.188c1.465,0 2.931,-1.457 3.659,-2.923c1.465,-2.923 2.198,-7.319 2.198,-13.901l0,-8.054c8.78,-2.195 13.905,-3.661 16.831,-6.584l1.466,-2.93l-0.733,-1.466l-3.658,-9.512l5.122,-8.784l0.73,-2.193l-1.461,-2.202c-6.588,-6.583 -13.905,-10.243 -21.957,-11.707l2.194,-8.777l-1.459,-10.25Zm-19.03,-1.464c0.733,0.737 2.194,1.464 2.928,1.464l8.05,1.459l2.195,8.791l-2.195,10.241l0,1.465l0.733,2.195c0.729,0.737 1.462,1.464 2.194,1.464l6.586,1.459c4.393,1.474 8.051,4.396 12.443,7.32l-4.393,8.054l0,2.922l3.659,8.055c-5.124,2.924 -10.244,4.396 -14.637,5.125c-2.195,0 -3.659,2.193 -3.659,3.66l0,0.729l0.733,9.52l-0.733,8.777l-8.783,-1.458c-1.462,0 -2.928,0 -3.659,1.458l-6.587,8.047c-6.586,-5.116 -10.978,-9.505 -12.439,-13.9l-2.197,-2.924l-2.194,0l-20.495,2.924l-2.927,-10.244l-2.194,-2.929l-8.052,-2.931c2.926,-9.512 6.587,-16.095 9.513,-20.49l0.732,-2.194l-0.732,-2.201l-10.245,-18.297l8.784,-2.923l2.194,-2.924l1.465,-8.791l17.564,5.132c2.194,0.729 2.926,0.729 4.392,-0.737c5.121,-6.581 10.245,-10.977 16.099,-15.372l5.857,8.054Z" style="fill-rule:nonzero;"/><path d="M200.565,185.697c-4.393,1.465 -8.051,2.93 -9.517,5.861c-2.193,2.923 -3.659,6.583 -2.926,10.242c0.732,4.395 2.194,7.318 5.854,10.241c2.93,2.201 6.589,2.931 10.978,2.201c3.659,-0.727 6.59,-2.201 9.516,-5.124c1.463,-2.924 2.194,-5.854 2.194,-8.785l0,-2.193c0,-3.66 -2.194,-7.319 -5.853,-9.514c-2.926,-2.2 -5.857,-3.659 -10.246,-2.929Zm0.729,5.861c2.199,-0.736 4.393,0 6.591,2.188l2.927,5.13l-1.466,6.583l-5.853,3.66l-5.857,-2.195l-3.659,-5.124c0,-2.924 0.732,-5.126 2.196,-7.319c0.733,-1.466 2.195,-2.923 5.121,-2.923Z" style="fill-rule:nonzero;"/><path d="M193.247,202.536l-4.392,0l-11.711,10.241c-1.465,0.739 -1.465,2.196 -0.732,3.659l4.392,0l11.711,-9.512c2.194,-1.466 2.194,-2.202 0.732,-4.388Z" style="fill-rule:nonzero;"/><path d="M203.493,212.042l4.392,16.11c0.729,2.186 1.461,2.186 3.659,2.186c2.194,-0.727 2.926,-2.186 1.461,-3.66l-3.659,-16.094l-2.193,2.933c-2.199,0.726 -3.66,-0.001 -3.66,-1.475Z" style="fill-rule:nonzero;"/><path d="M179.339,180.58c-1.461,-0.736 -2.927,-0.736 -3.66,0c-1.46,2.187 -1.46,2.923 0,4.388c1.465,2.195 5.857,4.39 12.444,6.591c2.194,1.457 2.926,0.73 3.659,-0.736c0.732,-2.195 0.732,-3.66 -1.465,-3.66l-10.978,-6.583Z" style="fill-rule:nonzero;"/><path d="M208.613,170.332c-2.194,-0.729 -3.659,-0.729 -3.659,1.458l-6.586,12.451c-0.732,2.186 0,2.922 1.464,3.66c1.462,1.457 2.928,0.727 3.661,-0.738l5.853,-13.172c1.466,-1.465 0.732,-2.201 -0.733,-3.659Z" style="fill-rule:nonzero;"/><path d="M213.005,197.405c-1.461,-1.458 -2.927,0 -3.659,1.471c-0.732,2.187 0,2.924 1.466,3.66l5.853,2.187l10.245,0.736l2.199,-3.658c0,-2.195 -0.733,-2.924 -2.928,-2.924l-8.783,-0.735l-4.393,-0.737Z" style="fill-rule:nonzero;"/><path d="M334.496,191.558l-17.564,-0.736l-8.784,1.466l-7.319,-12.445l-5.854,-6.583l-9.516,8.047l-11.707,-4.388c-2.196,5.846 -4.392,13.901 -5.124,25.615c-6.585,2.187 -11.711,4.388 -18.295,7.319l-6.588,4.388l5.854,10.978l-5.854,11.707c5.854,5.861 12.44,10.978 20.49,13.909c-2.927,5.853 -2.192,14.637 1.466,24.151l13.173,-2.195l8.051,9.512c5.854,-2.923 10.977,-8.055 16.103,-17.559c5.854,3.657 12.439,5.846 19.024,6.58l3.661,-10.977l10.977,-4.396c-0.728,-6.582 -2.192,-12.434 -5.854,-17.56l-4.392,-6.582c8.053,-4.395 12.443,-10.98 15.37,-19.034l-7.317,-7.318l0,-13.899l-0.001,0Z" style="fill:#d96038;fill-rule:nonzero;"/><path d="M297.9,171.79l-4.392,-1.458l-8.778,6.589l-9.517,-3.66c-2.195,-0.735 -3.659,0 -4.392,2.188c-2.927,5.131 -5.122,13.178 -5.854,24.157c-5.126,2.195 -10.979,5.117 -16.104,7.318l-7.318,5.118l-1.462,2.201l0,2.193l5.854,8.784l-5.854,9.514l0,2.193l0.733,2.203c5.121,5.846 10.978,10.241 19.758,13.901l-1.46,6.581c0,5.134 1.46,11.714 2.926,16.839c1.46,2.196 2.927,2.931 4.391,2.196l10.979,-2.196l7.319,8.049l4.389,0.729c5.123,-2.188 9.516,-7.321 15.369,-15.367l16.835,5.126c2.194,0.733 3.658,0 4.389,-2.195l2.197,-9.521l10.245,-3.66l2.195,-3.659c-1.463,-10.241 -4.389,-17.56 -9.515,-23.415c7.319,-5.122 11.711,-11.708 14.638,-18.295l0,-1.466l-0.731,-2.194l-6.587,-6.588l0,-12.437c0,-1.472 -0.733,-3.658 -2.927,-3.658l-25.615,0.727l-11.711,-16.837Zm-10.243,12.45l6.585,-5.133l10.246,15.374c0.732,1.466 2.927,2.193 4.392,1.466l7.317,-0.731l14.638,-0.735l0,13.174l6.586,6.588c-2.925,6.588 -7.317,11.708 -13.171,14.637c-0.732,0.73 -1.465,2.195 -1.465,2.931l0.732,2.924l3.659,5.123l5.125,13.909l-8.052,2.923l-2.199,2.196l-2.192,8.782l-14.638,-5.853c-2.194,-0.728 -3.659,-0.728 -5.125,1.458c-2.927,5.861 -7.318,10.978 -12.438,13.909l-5.857,-6.588l-3.659,-1.459l-9.514,2.193l-2.194,-11.714c0,-2.923 0.729,-5.116 1.463,-7.319l0,-1.457l0,-1.465l-2.927,-2.193c-6.587,-2.202 -11.711,-5.861 -16.833,-10.98l5.122,-8.782l0,-2.196l0,-1.463l-4.393,-8.056c8.051,-5.118 14.637,-8.046 20.494,-9.506l2.927,-3.659c0,-8.055 2.195,-14.636 3.66,-21.228l8.052,3.659l3.659,-0.729Z" style="fill-rule:nonzero;"/><path d="M301.562,217.172c-3.661,-1.471 -7.319,-2.93 -10.978,-1.471c-3.66,0.735 -7.318,2.93 -8.784,5.861c-2.193,2.929 -2.193,5.854 -2.193,8.048l0,2.928c0.732,4.389 3.659,7.319 6.586,9.514l10.977,1.467c4.393,-0.73 7.319,-2.931 8.784,-5.861c2.194,-3.66 2.927,-7.32 2.194,-10.98c-0.733,-4.387 -2.927,-7.316 -6.586,-9.506Zm-9.514,3.659l5.853,1.46l4.394,5.125l-0.732,6.582l-5.854,4.395l-6.589,-1.465l-3.661,-5.853c0,-2.195 0,-3.658 1.466,-6.583c0.732,-1.473 2.926,-2.93 5.123,-3.661Z" style="fill-rule:nonzero;"/><path d="M285.458,225.22c0,-1.463 -1.46,-2.201 -2.927,-2.201l-16.099,0c-1.464,0 -2.931,0.738 -2.931,2.201c0,2.196 1.467,2.931 2.931,2.931l16.099,0c1.467,0 2.927,-0.735 2.927,-2.931Z" style="fill-rule:nonzero;"/><path d="M292.777,241.317c-1.462,1.471 -2.193,2.202 -4.388,1.471c-1.466,-0.736 -2.197,-1.471 -1.466,-2.931l-7.317,14.639c-0.733,2.193 0,2.929 2.193,3.658c1.466,0.73 2.931,0 3.658,-1.465l7.32,-15.372Z" style="fill-rule:nonzero;"/><path d="M293.509,211.312l-5.119,-11.706c0,-1.464 -1.466,-2.201 -2.932,-2.201c-2.192,0 -2.927,0.736 -2.192,2.929l4.392,13.909l4.391,1.458c2.193,-1.458 2.193,-2.924 1.46,-4.389Z" style="fill-rule:nonzero;"/><path d="M316.932,210.583c-0.734,-1.464 -1.466,-2.201 -3.659,-1.464l-12.444,5.124c-2.193,1.458 -2.193,2.193 -2.193,4.388c1.461,1.465 2.927,2.2 4.392,1.465l13.171,-5.853c1.465,-0.727 2.194,-1.466 0.733,-3.66Z" style="fill-rule:nonzero;"/><path d="M303.755,233.998c-1.461,-1.459 -2.193,-1.459 -4.389,0c-1.466,0.737 -1.466,2.2 0,3.66l9.514,10.978c1.465,1.472 2.927,1.472 3.659,0c2.195,-1.457 2.195,-2.923 0.733,-3.659l-9.517,-10.979Z" style="fill-rule:nonzero;"/></g></g><rect id="PATH77" x="2.92" y="2.74" width="366.67" height="582.52" style="fill:none;stroke:#000;stroke-width:3px;"/></svg>