<svg width="270" height="270" xmlns="http://www.w3.org/2000/svg" fill-rule="evenodd" clip-rule="evenodd" stroke-linejoin="round" stroke-miterlimit="2"><path fill="none" d="M-25-25h320v320H-25z"/><path d="M114.001 86.587c0 13.134 10.955 8.989 19.416 8.989 8.568 0 21.03 1.282 21.03-10.882 0-4.16-1.443-14.847-15.264-14.847-18.46 0-25.182 7.589-25.182 16.74m9.03-28.768c29.35 0 32.497-3.005 32.497-10.443 0-8.827-11.143-13.757-22.172-13.757-15.626 0-20.702 9.378-20.702 16.383 0 7.161 2.926 7.817 10.377 7.817m94.093 58.24c2.289-14.462-5.657-21.741-22.789-21.741-5.845 0-22.035 3-22.035 11.658 0 5.8 5.717 12.636 5.717 25.47 0 9.544-2.737 15.443-2.737 23.108 0 11.732 9.218 15.147 12.184 29.318 2.015 9.624-2.072 19.551 21.502 19.551 18.264 0 27.293-9.986 27.293-25.467 0-22.454-26.166-17.493-19.135-61.897M57.948 208.965c14.489 0 21.751-.69 26.035-17.507 4.364-17.126 11.206-17.544 11.206-27.697 0-15.996-11.833-19.121-11.833-33.633 0-12.797 7.394-14.358 7.394-21.277 0-6.221-6.107-15.104-19.702-15.104-12.441 0-23.039 9.824-23.039 22.915 0 8.255 3.277 16.642 3.277 26.158 0 16.325-20.031 28.038-20.031 43.363 0 11.196 2.839 22.782 26.693 22.782m42.588-7.614c0 13.14 12.755 23.428 31.234 23.428 32.295 0 42.747-16.117 42.747-30.769 0-22.336-14.736-23.985-14.736-42.449 0-7.768 3.296-16.432 3.296-20.444 0-16.93-16.148-23.527-33.159-23.527-16.604 0-30.284 7.532-30.116 19.9.147 10.816 11.535 20.721 11.535 36.6 0 16.523-10.801 22.935-10.801 37.261M74.651 77.777c15.594 0 28.12 10.804 28.12-9.639 0-4.802-5.828-12.076-5.828-19.169C96.943 36.125 109.065 19 137.371 19c20.763 0 36.697 14.419 36.697 28.913 0 9.049-3.446 13.073-3.446 20.353 0 19.799 16.887 9.767 28.578 9.767 19.279 0 35.061 10.744 35.061 28.354 0 5.702-2.414 15.146-2.414 22.644 0 18.975 23.153 24.097 23.153 47.813 0 .833-1.726 41.733-41.02 41.733-46.096 0-37.156 24.423-79.057 24.423-33.625 0-28.196-14.812-75.148-14.812-3.992 0-44.775-3.065-44.775-39.964 0-18.942 20.763-37.643 20.763-47.78 0-11.278-5.303-16.078-5.303-27.097 0-19.774 15.823-35.57 44.191-35.57" fill-rule="nonzero"/></svg>