<svg width="270" height="270" xmlns="http://www.w3.org/2000/svg" fill-rule="evenodd" clip-rule="evenodd" stroke-linejoin="round" stroke-miterlimit="2"><path fill="none" d="M-25-25h320v320H-25z"/><path d="M199.397 215.544c0-55.789.971-72.784-2.765-76.594-1.813-1.849-10.583-1.912-23.992 4.258-8.282 3.812-9.375 5.225-12.428 2.779-12.147-9.734-21.689-31.151-12.76-28.443 21.719 6.587 43.261 2.149 64.883-.647 8.203-1.061 12.948 5.624 17.433 10.76 4.985 5.71-6.766 5.37-6.697 16.942.18 30.324.618 60.646.866 90.97.098 11.912-7.432 21.065-15.838 25.713-13.576 7.507-26.142-11.373-34.366-22.174-4.941-6.493-9.791-11.183-19.524-9.763-11.678 1.703-23.581-9.59-20.63-20.865 4.791-18.307 50.454-29.462-9.334-28.147-6.055.134-4.02 1.037-4.522 59.913-.144 17.043-23.954 18.944-23.703.566.039-2.829 1.564-48.266-1.326-53.578-2.764-5.078-15.73 4.049-18.826 21.025-4.376 23.983-23.977 26.509-31.879 12.363-6.716-12.022-1.831-25.315-3.383-33.979-2.601-14.529-2.164-16.752 2.196-16.975 9.52-.485 14.346-.597 25.798 1.063 19.055 2.761 23.369 4.347 24.889-3.883 1.133-6.138-.288-12.766-1.17-19.291-.333-2.462-1.509-3.381-3.927-3.071-29.56 3.793-27.233 15.019-37.566 5.078-7.042-6.776-12.496-15.489-9.542-26.586 1.775-6.674 3.272-9.831 10.859-3.563 18.862 15.587 42.518-7.837 53.275.317 25.79 19.546 27.536 19.409 25.688 25.7-1.279 4.347-9.597 3.819-10.934 9.258-1.276 5.194-1.655 13.268.904 14.311 16.052 6.542 22.008-11.605 32.972-7.646 12.155 4.389 26.578 4.338 35.051 16.506 3.626 5.209 1.185 10.485-4.264 11.345-7.067 1.115-13.431 11.23-15.676 15.915-.837 1.745-.608 2.164 1.264 2.517 2.208.417 4.43.918 6.501.545 4.213-.759 7.96-1.726 9.597 3.737 4.885 16.301-15.84 13.796-4.979 22.74 4.899 4.034 10.49 3.819 15.341 2.34 3.833-1.168 2.513-2.573 2.513-21.456M160.134 79.107c1.59-5.581-10.577-5.973-7.662-10.833 5.369-8.95 74.34 18.267 45.303 40.346-17.068 12.978-14.746-21.174-40.206-11.534-18.878 7.147-40.557 3.166-58.064 15.618-7.027 4.998-16.142-13.364-18.795-22.302-1.411-4.754-.439-8.26 5.572-9.383 13.077-2.442 32.694-27.148 32.678-40.756-.007-6.423 1.695-8.454 8.268-5.855 15.654 6.189 36.188 27.513 15.838 32.499-9.23 2.262-15.201 9.785-23.173 14.014-1.901 1.009-.721 2.909 1.434 2.962 35.002.873 37.459-.049 38.807-4.776M60.763 64.46c-9.675-.854-15.555-4.087-17.306-10.193-2.352-8.199 25.254-3.937 38.767-35.882 2.223-5.254-6.202-13.003 6.061-11.086 12.243 1.913 21.454 7.834 27.123 18.062 2.421 4.369-4.598 4.336-7.023 9.876-9.451 21.589-23.96 31.313-47.622 29.223m143.6 6.706c-11.119-6.449-12.646-14.453-22.705-18.988-4.261-1.921-4.984-3.025-1.714-5.916 14.338-12.672-10.649-29.053-6.286-33.579 4.325-4.489 10.429-1.108 15.561 2.349 44.047 29.667 44.138 72.947 15.144 56.134" fill-rule="nonzero"/></svg>