<svg width="1320" height="1320" viewBox="0 0 720 1320" xmlns="http://www.w3.org/2000/svg" fill-rule="evenodd" clip-rule="evenodd" stroke-linecap="round" stroke-linejoin="round" stroke-miterlimit="1.5"><path d="M310 10h100v100h100v100h100v100h100v700H610v100H510v100H410v100H310v-100H210v-100H110v-100H10V310h100V210h100V110h100V10z" fill="none" stroke="#000" stroke-width="12"/><path d="M310 10h100v100h100v100h100v100h100v700H610v100H510v100H410v100H310v-100H210v-100H110v-100H10V310h100V210h100V110h100V10z" fill="#fff"/><path fill="#d9d9d9" d="M310 310h100v100H310zm100 100h100v100H410zm-200 0h100v100H210zm300 100h100v100H510zm-200 0h100v100H310zm100 100h100v100H410zM310 710h100v100H310zM210 610h100v100H210zM110 510h100v100H110zm500-100h100v100H610zm0 200h100v100H610zM510 710h100v100H510zm100 100h100v100H610zM410 210h100v100H410zm100 100h100v100H510zM410 810h100v100H410zm100 100h100v100H510zm-100 100h100v100H410zM310 910h100v100H310zm0 200h100v100H310zm-100-100h100v100H210zm0-200h100v100H210zM110 710h100v100H110zm0 200h100v100H110zM10 810h100v100H10zm300-700h100v100H310zM210 210h100v100H210zM110 310h100v100H110zM10 410h100v100H10zm0 200h100v100H10z"/><path d="M240.547 402.129c-.43-1.094-.82-2.402-1.172-3.926-.352-1.523-.527-3.496-.527-5.918 0-2.969.547-5.644 1.64-8.027a29.22 29.22 0 014.102-6.533 49.175 49.175 0 015.361-5.508 125.426 125.426 0 005.362-4.981c1.64-1.621 3.007-3.252 4.101-4.892 1.094-1.641 1.641-3.418 1.641-5.332-1.211 1.211-2.784 2.256-4.717 3.134-1.934.879-4.483 1.397-7.647 1.553a22.88 22.88 0 01-3.574 2.168 28.492 28.492 0 01-3.867 1.524c-1.211 1.367-2.471 2.47-3.779 3.31-1.309.84-2.647 1.26-4.014 1.26a7.764 7.764 0 01-3.164-.645 9.554 9.554 0 01-2.666-1.757 11.069 11.069 0 01-2.051-2.579 11.943 11.943 0 01-1.26-3.105 6.554 6.554 0 01-.966-2.314 11.856 11.856 0 01-.264-2.432c0-.625.195-1.279.586-1.963.391-.684.859-1.338 1.406-1.963a13.29 13.29 0 011.699-1.64c.586-.469 1.094-.821 1.524-1.055a198.297 198.297 0 013.545-4.57 87.041 87.041 0 013.047-3.604 98.272 98.272 0 013.105-3.311 108.51 108.51 0 013.838-3.691 3.633 3.633 0 01-.117-.879c0-1.211.254-2.285.761-3.223a8.982 8.982 0 011.905-2.431 10.258 10.258 0 012.519-1.67 17.49 17.49 0 012.608-.996c0-.821-.02-1.592-.059-2.315a25.409 25.409 0 00-.205-2.138 64.276 64.276 0 00-.352-2.227c-.136-.781-.302-1.68-.498-2.695l1.758-.762c.586.274 1.25.654 1.992 1.143a20.906 20.906 0 012.256 1.728 18.955 18.955 0 012.198 2.285c.703.86 1.328 1.778 1.875 2.754l.585-.117c.313-1.484.557-3.047.733-4.687.176-1.641.322-3.438.439-5.391l2.403-.469a34.06 34.06 0 012.607 2.666c.879.996 1.719 2.1 2.52 3.311a34.031 34.031 0 012.256 4.013 28.684 28.684 0 011.757 4.717 66.754 66.754 0 002.022 2.403c.722.82 1.514 1.699 2.373 2.636.859.938 1.787 1.953 2.783 3.047s2.08 2.324 3.252 3.692c1.563 1.835 3.213 4.189 4.951 7.06 1.738 2.871 3.321 6.035 4.746 9.492a76.822 76.822 0 013.545 10.869c.938 3.789 1.406 7.5 1.406 11.133 0 2.383-.039 4.483-.117 6.299a92.21 92.21 0 01-.381 5.332 133.91 133.91 0 01-.673 5.479c-.274 1.914-.606 4.16-.997 6.738h-54.14z" fill="#8c8c8c" fill-rule="nonzero"/><path d="M228.477 356.953c.078.547.253 1.055.527 1.524.273.468.566.839.879 1.113.976-.352 1.914-.908 2.812-1.67a17.79 17.79 0 012.813-1.963l-.059-.352-6.972 1.348zm19.863-18.984c.703 0 1.465-.059 2.285-.176.82-.117 1.641-.313 2.461-.586.82-.273 1.592-.605 2.314-.996a7.1 7.1 0 001.846-1.406c-.703 0-1.533-.069-2.49-.205a19.639 19.639 0 00-2.783-.205c-.352 0-.762.019-1.231.058a4.455 4.455 0 00-1.289.293c-.39.156-.723.391-.996.703-.273.313-.41.723-.41 1.231 0 .351.098.781.293 1.289zm-7.793 64.16c-.43-1.094-.82-2.402-1.172-3.926-.352-1.523-.527-3.496-.527-5.918 0-2.969.547-5.644 1.64-8.027a29.22 29.22 0 014.102-6.533 49.175 49.175 0 015.361-5.508 125.426 125.426 0 005.362-4.981c1.64-1.621 3.007-3.252 4.101-4.892 1.094-1.641 1.641-3.418 1.641-5.332-1.211 1.211-2.784 2.256-4.717 3.134-1.934.879-4.483 1.397-7.647 1.553a22.88 22.88 0 01-3.574 2.168 28.492 28.492 0 01-3.867 1.524c-1.211 1.367-2.471 2.47-3.779 3.31-1.309.84-2.647 1.26-4.014 1.26a7.764 7.764 0 01-3.164-.645 9.554 9.554 0 01-2.666-1.757 11.069 11.069 0 01-2.051-2.579 11.943 11.943 0 01-1.26-3.105 6.554 6.554 0 01-.966-2.314 11.856 11.856 0 01-.264-2.432c0-.625.195-1.279.586-1.963.391-.684.859-1.338 1.406-1.963a13.29 13.29 0 011.699-1.64c.586-.469 1.094-.821 1.524-1.055a198.297 198.297 0 013.545-4.57 87.041 87.041 0 013.047-3.604 98.272 98.272 0 013.105-3.311 108.51 108.51 0 013.838-3.691 3.633 3.633 0 01-.117-.879c0-1.211.254-2.285.761-3.223a8.982 8.982 0 011.905-2.431 10.258 10.258 0 012.519-1.67 17.49 17.49 0 012.608-.996c0-.821-.02-1.592-.059-2.315a25.409 25.409 0 00-.205-2.138 64.276 64.276 0 00-.352-2.227c-.136-.781-.302-1.68-.498-2.695l1.758-.762c.586.274 1.25.654 1.992 1.143a20.906 20.906 0 012.256 1.728 18.955 18.955 0 012.198 2.285c.703.86 1.328 1.778 1.875 2.754l.585-.117c.313-1.484.557-3.047.733-4.687.176-1.641.322-3.438.439-5.391l2.403-.469a34.06 34.06 0 012.607 2.666c.879.996 1.719 2.1 2.52 3.311a34.031 34.031 0 012.256 4.013 28.684 28.684 0 011.757 4.717 66.754 66.754 0 002.022 2.403c.722.82 1.514 1.699 2.373 2.636.859.938 1.787 1.953 2.783 3.047s2.08 2.324 3.252 3.692c1.563 1.835 3.213 4.189 4.951 7.06 1.738 2.871 3.321 6.035 4.746 9.492a76.822 76.822 0 013.545 10.869c.938 3.789 1.406 7.5 1.406 11.133 0 2.383-.039 4.483-.117 6.299a92.21 92.21 0 01-.381 5.332 133.91 133.91 0 01-.673 5.479c-.274 1.914-.606 4.16-.997 6.738h-54.14zm34.16-62.344c3.281 5.508 5.742 10.947 7.383 16.319 1.64 5.371 2.461 11.005 2.461 16.904 0 1.797-.049 3.535-.147 5.215a63.874 63.874 0 01-.498 5.068 74.066 74.066 0 01-.908 5.186 80.939 80.939 0 01-1.377 5.507h6.738a61.488 61.488 0 001.172-7.177 67.3 67.3 0 00.352-6.768c0-3.125-.215-6.094-.645-8.906-.429-2.813-1.006-5.449-1.728-7.91a58.557 58.557 0 00-2.461-6.856 81.599 81.599 0 00-2.783-5.801c-2.227-4.062-4.746-7.656-7.559-10.781z" fill-rule="nonzero"/><path fill="none" d="M210 310h100v100H210z"/><path d="M440.547 402.129c-.43-1.094-.82-2.402-1.172-3.926-.352-1.523-.527-3.496-.527-5.918 0-2.969.547-5.644 1.64-8.027a29.22 29.22 0 014.102-6.533 49.175 49.175 0 015.361-5.508 125.426 125.426 0 005.362-4.981c1.64-1.621 3.007-3.252 4.101-4.892 1.094-1.641 1.641-3.418 1.641-5.332-1.211 1.211-2.784 2.256-4.717 3.134-1.934.879-4.483 1.397-7.647 1.553a22.88 22.88 0 01-3.574 2.168 28.492 28.492 0 01-3.867 1.524c-1.211 1.367-2.471 2.47-3.779 3.31-1.309.84-2.647 1.26-4.014 1.26a7.764 7.764 0 01-3.164-.645 9.554 9.554 0 01-2.666-1.757 11.069 11.069 0 01-2.051-2.579 11.943 11.943 0 01-1.26-3.105 6.554 6.554 0 01-.966-2.314 11.856 11.856 0 01-.264-2.432c0-.625.195-1.279.586-1.963.391-.684.859-1.338 1.406-1.963a13.29 13.29 0 011.699-1.64c.586-.469 1.094-.821 1.524-1.055a198.297 198.297 0 013.545-4.57 87.041 87.041 0 013.047-3.604 98.272 98.272 0 013.105-3.311 108.51 108.51 0 013.838-3.691 3.633 3.633 0 01-.117-.879c0-1.211.254-2.285.761-3.223a8.982 8.982 0 011.905-2.431 10.258 10.258 0 012.519-1.67 17.49 17.49 0 012.608-.996c0-.821-.02-1.592-.059-2.315a25.409 25.409 0 00-.205-2.138 64.276 64.276 0 00-.352-2.227c-.136-.781-.302-1.68-.498-2.695l1.758-.762c.586.274 1.25.654 1.992 1.143a20.906 20.906 0 012.256 1.728 18.955 18.955 0 012.198 2.285c.703.86 1.328 1.778 1.875 2.754l.585-.117c.313-1.484.557-3.047.733-4.687.176-1.641.322-3.438.439-5.391l2.403-.469a34.06 34.06 0 012.607 2.666c.879.996 1.719 2.1 2.52 3.311a34.031 34.031 0 012.256 4.013 28.684 28.684 0 011.757 4.717 66.754 66.754 0 002.022 2.403c.722.82 1.514 1.699 2.373 2.636.859.938 1.787 1.953 2.783 3.047s2.08 2.324 3.252 3.692c1.563 1.835 3.213 4.189 4.951 7.06 1.738 2.871 3.321 6.035 4.746 9.492a76.822 76.822 0 013.545 10.869c.938 3.789 1.406 7.5 1.406 11.133 0 2.383-.039 4.483-.117 6.299a92.21 92.21 0 01-.381 5.332 133.91 133.91 0 01-.673 5.479c-.274 1.914-.606 4.16-.997 6.738h-54.14z" fill="#8c8c8c" fill-rule="nonzero"/><path d="M428.477 356.953c.078.547.253 1.055.527 1.524.273.468.566.839.879 1.113.976-.352 1.914-.908 2.812-1.67a17.79 17.79 0 012.813-1.963l-.059-.352-6.972 1.348zm19.863-18.984c.703 0 1.465-.059 2.285-.176.82-.117 1.641-.313 2.461-.586.82-.273 1.592-.605 2.314-.996a7.1 7.1 0 001.846-1.406c-.703 0-1.533-.069-2.49-.205a19.639 19.639 0 00-2.783-.205c-.352 0-.762.019-1.231.058a4.455 4.455 0 00-1.289.293c-.39.156-.723.391-.996.703-.273.313-.41.723-.41 1.231 0 .351.098.781.293 1.289zm-7.793 64.16c-.43-1.094-.82-2.402-1.172-3.926-.352-1.523-.527-3.496-.527-5.918 0-2.969.547-5.644 1.64-8.027a29.22 29.22 0 014.102-6.533 49.175 49.175 0 015.361-5.508 124.782 124.782 0 005.361-4.981c1.641-1.621 3.008-3.252 4.102-4.892 1.094-1.641 1.641-3.418 1.641-5.332-1.211 1.211-2.784 2.256-4.717 3.134-1.934.879-4.483 1.397-7.647 1.553a22.88 22.88 0 01-3.574 2.168 28.492 28.492 0 01-3.867 1.524c-1.211 1.367-2.471 2.47-3.779 3.31-1.309.84-2.647 1.26-4.014 1.26a7.764 7.764 0 01-3.164-.645 9.554 9.554 0 01-2.666-1.757 11.069 11.069 0 01-2.051-2.579 11.943 11.943 0 01-1.26-3.105 6.554 6.554 0 01-.966-2.314 11.856 11.856 0 01-.264-2.432c0-.625.195-1.279.586-1.963.391-.684.859-1.338 1.406-1.963a13.29 13.29 0 011.699-1.64c.586-.469 1.094-.821 1.524-1.055a198.297 198.297 0 013.545-4.57 87.041 87.041 0 013.047-3.604 98.272 98.272 0 013.105-3.311 108.51 108.51 0 013.838-3.691 3.633 3.633 0 01-.117-.879c0-1.211.254-2.285.761-3.223a8.982 8.982 0 011.905-2.431 10.258 10.258 0 012.519-1.67 17.49 17.49 0 012.608-.996c0-.821-.02-1.592-.059-2.315a25.409 25.409 0 00-.205-2.138 64.276 64.276 0 00-.352-2.227c-.136-.781-.302-1.68-.498-2.695l1.758-.762c.586.274 1.25.654 1.992 1.143a20.906 20.906 0 012.256 1.728 18.955 18.955 0 012.198 2.285c.703.86 1.328 1.778 1.875 2.754l.585-.117c.313-1.484.557-3.047.733-4.687.176-1.641.322-3.438.439-5.391l2.403-.469a34.06 34.06 0 012.607 2.666c.879.996 1.719 2.1 2.52 3.311a34.031 34.031 0 012.256 4.013 28.684 28.684 0 011.757 4.717 66.754 66.754 0 002.022 2.403c.722.82 1.514 1.699 2.373 2.636.859.938 1.787 1.953 2.783 3.047s2.08 2.324 3.252 3.692c1.563 1.835 3.213 4.189 4.951 7.06 1.738 2.871 3.321 6.035 4.746 9.492a76.822 76.822 0 013.545 10.869c.938 3.789 1.406 7.5 1.406 11.133 0 2.383-.039 4.483-.117 6.299a92.21 92.21 0 01-.381 5.332 133.91 133.91 0 01-.673 5.479c-.274 1.914-.606 4.16-.997 6.738h-54.14zm34.16-62.344c3.281 5.508 5.742 10.947 7.383 16.319 1.64 5.371 2.461 11.005 2.461 16.904 0 1.797-.049 3.535-.147 5.215a63.874 63.874 0 01-.498 5.068 74.066 74.066 0 01-.908 5.186 80.939 80.939 0 01-1.377 5.507h6.738a61.488 61.488 0 001.172-7.177 67.3 67.3 0 00.352-6.768c0-3.125-.215-6.094-.645-8.906-.429-2.813-1.006-5.449-1.728-7.91a58.557 58.557 0 00-2.461-6.856 81.599 81.599 0 00-2.783-5.801c-2.227-4.062-4.746-7.656-7.559-10.781z" fill-rule="nonzero"/><path fill="none" d="M410 310h100v100H410z"/><path d="M130.117 502.129v-2.109c0-1.993.215-3.75.645-5.274.429-1.523 1.103-2.812 2.021-3.867.918-1.055 2.11-1.856 3.574-2.402 1.465-.547 3.233-.821 5.303-.821h.41c-.195-.39-.293-.859-.293-1.406 0-.703.127-1.377.381-2.021a4.947 4.947 0 011.113-1.7c.489-.488 1.124-.888 1.905-1.201.781-.312 1.699-.469 2.754-.469h.351c1.016-1.797 1.826-3.574 2.432-5.332a39.625 39.625 0 001.406-5.127c.332-1.66.557-3.291.674-4.892.117-1.602.176-3.145.176-4.629v-3.047c-1.406-.312-2.481-.947-3.223-1.904s-1.113-2.061-1.113-3.311c0-.234.019-.488.058-.762.039-.273.098-.527.176-.761h-.351c-2.735 0-4.786-.684-6.153-2.051s-2.05-3.086-2.05-5.156c0-1.992.742-3.653 2.226-4.981 1.484-1.328 3.535-2.07 6.152-2.226-.586-.938-1.054-2.012-1.406-3.223a13.828 13.828 0 01-.527-3.867c0-1.875.332-3.584.996-5.127a11.927 11.927 0 012.754-3.984c1.172-1.114 2.568-1.983 4.189-2.608s3.389-.937 5.303-.937c1.875 0 3.623.312 5.244.937 1.621.625 3.018 1.494 4.19 2.608a11.956 11.956 0 012.754 3.984c.664 1.543.996 3.252.996 5.127 0 1.367-.176 2.656-.528 3.867-.351 1.211-.82 2.285-1.406 3.223 2.617.156 4.668.898 6.152 2.226 1.485 1.328 2.227 2.989 2.227 4.981 0 2.07-.684 3.789-2.051 5.156-1.367 1.367-3.418 2.051-6.152 2.051h-.352c.078.234.137.488.176.761.039.274.059.528.059.762 0 1.25-.371 2.354-1.114 3.311-.742.957-1.816 1.592-3.222 1.904v3.047a63.6 63.6 0 00.175 4.629c.118 1.601.342 3.232.674 4.892.332 1.661.801 3.37 1.407 5.127.605 1.758 1.416 3.535 2.431 5.332h.352c1.054 0 1.972.157 2.754.469.781.313 1.416.713 1.904 1.201a4.947 4.947 0 011.113 1.7 5.46 5.46 0 01.381 2.021c0 .547-.098 1.016-.293 1.406h.41c4.141 0 7.1 1.074 8.877 3.223 1.778 2.148 2.666 5.195 2.666 9.141v2.109h-59.707z" fill="#8c8c8c"/><path d="M130.117 502.129v-2.109c0-1.993.215-3.75.645-5.274.429-1.523 1.103-2.812 2.021-3.867.918-1.055 2.11-1.856 3.574-2.402 1.465-.547 3.233-.821 5.303-.821h.41c-.195-.39-.293-.859-.293-1.406 0-.703.127-1.377.381-2.021a4.947 4.947 0 011.113-1.7c.489-.488 1.124-.888 1.905-1.201.781-.312 1.699-.469 2.754-.469h.351c1.016-1.797 1.826-3.574 2.432-5.332a39.625 39.625 0 001.406-5.127c.332-1.66.557-3.291.674-4.892.117-1.602.176-3.145.176-4.629v-3.047c-1.406-.312-2.481-.947-3.223-1.904s-1.113-2.061-1.113-3.311c0-.234.019-.488.058-.762.039-.273.098-.527.176-.761h-.351c-2.735 0-4.786-.684-6.153-2.051s-2.05-3.086-2.05-5.156c0-1.992.742-3.653 2.226-4.981 1.484-1.328 3.535-2.07 6.152-2.226-.586-.938-1.054-2.012-1.406-3.223a13.828 13.828 0 01-.527-3.867c0-1.875.332-3.584.996-5.127a11.927 11.927 0 012.754-3.984c1.172-1.114 2.568-1.983 4.189-2.608s3.389-.937 5.303-.937c1.875 0 3.623.312 5.244.937 1.621.625 3.018 1.494 4.19 2.608a11.956 11.956 0 012.754 3.984c.664 1.543.996 3.252.996 5.127 0 1.367-.176 2.656-.528 3.867-.351 1.211-.82 2.285-1.406 3.223 2.617.156 4.668.898 6.152 2.226 1.485 1.328 2.227 2.989 2.227 4.981 0 2.07-.684 3.789-2.051 5.156-1.367 1.367-3.418 2.051-6.152 2.051h-.352c.078.234.137.488.176.761.039.274.059.528.059.762 0 1.25-.371 2.354-1.114 3.311-.742.957-1.816 1.592-3.222 1.904v3.047a63.6 63.6 0 00.175 4.629c.118 1.601.342 3.232.674 4.892.332 1.661.801 3.37 1.407 5.127.605 1.758 1.416 3.535 2.431 5.332h.352c1.054 0 1.972.157 2.754.469.781.313 1.416.713 1.904 1.201a4.947 4.947 0 011.113 1.7 5.46 5.46 0 01.381 2.021c0 .547-.098 1.016-.293 1.406h.41c4.141 0 7.1 1.074 8.877 3.223 1.778 2.148 2.666 5.195 2.666 9.141v2.109h-59.707zm11.485-10.488c-1.758 0-3.155.293-4.19.879-1.035.585-1.767 1.406-2.197 2.46h49.512c-.43-1.054-1.153-1.875-2.168-2.46-1.016-.586-2.422-.879-4.219-.879h-36.738zm33.632-47.754c0-1.016-.312-1.807-.937-2.373-.625-.567-1.563-.85-2.813-.85h-23.027c-1.25 0-2.187.283-2.812.85-.625.566-.938 1.357-.938 2.373h30.527zm-19.687-14.942c0-1.015.176-1.972.527-2.871a8.68 8.68 0 011.436-2.431 8.304 8.304 0 012.138-1.817 7.575 7.575 0 012.696-.967 4.09 4.09 0 00-1.026-.263 8.422 8.422 0 00-1.201-.088c-3.008 0-5.312.84-6.914 2.519-1.601 1.68-2.402 3.868-2.402 6.563 0 1.445.273 2.783.82 4.014.547 1.23 1.309 2.255 2.285 3.076h6.973c-1.563-.586-2.842-1.573-3.838-2.959-.996-1.387-1.494-2.979-1.494-4.776zm1.523 31.875c0 3.711-.351 7.295-1.054 10.752-.703 3.457-1.68 6.553-2.93 9.287h5.332v-22.91h-1.348v2.871zm-9.023 24.024c-1.211 0-1.817.488-1.817 1.465h27.481c0-.977-.606-1.465-1.816-1.465h-23.848zm18.808-32.285c0-.977-.625-1.465-1.875-1.465h-10.019c-1.25 0-1.875.488-1.875 1.465h13.769z"/><path fill="none" d="M110 410h100v100H110z"/><path d="M230.117 502.129v-2.109c0-1.993.215-3.75.645-5.274.429-1.523 1.103-2.812 2.021-3.867.918-1.055 2.11-1.856 3.574-2.402 1.465-.547 3.233-.821 5.303-.821h.41c-.195-.39-.293-.859-.293-1.406 0-.703.127-1.377.381-2.021a4.947 4.947 0 011.113-1.7c.489-.488 1.124-.888 1.905-1.201.781-.312 1.699-.469 2.754-.469h.351c1.016-1.797 1.826-3.574 2.432-5.332a39.625 39.625 0 001.406-5.127c.332-1.66.557-3.291.674-4.892.117-1.602.176-3.145.176-4.629v-3.047c-1.406-.312-2.481-.947-3.223-1.904s-1.113-2.061-1.113-3.311c0-.234.019-.488.058-.762.039-.273.098-.527.176-.761h-.351c-2.735 0-4.786-.684-6.153-2.051s-2.05-3.086-2.05-5.156c0-1.992.742-3.653 2.226-4.981 1.484-1.328 3.535-2.07 6.152-2.226-.586-.938-1.054-2.012-1.406-3.223a13.828 13.828 0 01-.527-3.867c0-1.875.332-3.584.996-5.127a11.927 11.927 0 012.754-3.984c1.172-1.114 2.568-1.983 4.189-2.608s3.389-.937 5.303-.937c1.875 0 3.623.312 5.244.937 1.621.625 3.018 1.494 4.19 2.608a11.956 11.956 0 012.754 3.984c.664 1.543.996 3.252.996 5.127 0 1.367-.176 2.656-.528 3.867-.351 1.211-.82 2.285-1.406 3.223 2.617.156 4.668.898 6.152 2.226 1.485 1.328 2.227 2.989 2.227 4.981 0 2.07-.684 3.789-2.051 5.156-1.367 1.367-3.418 2.051-6.152 2.051h-.352c.078.234.137.488.176.761.039.274.059.528.059.762 0 1.25-.371 2.354-1.114 3.311-.742.957-1.816 1.592-3.222 1.904v3.047a63.6 63.6 0 00.175 4.629c.118 1.601.342 3.232.674 4.892.332 1.661.801 3.37 1.407 5.127.605 1.758 1.416 3.535 2.431 5.332h.352c1.054 0 1.972.157 2.754.469.781.313 1.416.713 1.904 1.201a4.947 4.947 0 011.113 1.7 5.46 5.46 0 01.381 2.021c0 .547-.098 1.016-.293 1.406h.41c4.141 0 7.1 1.074 8.877 3.223 1.778 2.148 2.666 5.195 2.666 9.141v2.109h-59.707z" fill="#8c8c8c"/><path d="M230.117 502.129v-2.109c0-1.993.215-3.75.645-5.274.429-1.523 1.103-2.812 2.021-3.867.918-1.055 2.11-1.856 3.574-2.402 1.465-.547 3.233-.821 5.303-.821h.41c-.195-.39-.293-.859-.293-1.406 0-.703.127-1.377.381-2.021a4.947 4.947 0 011.113-1.7c.489-.488 1.124-.888 1.905-1.201.781-.312 1.699-.469 2.754-.469h.351c1.016-1.797 1.826-3.574 2.432-5.332a39.625 39.625 0 001.406-5.127c.332-1.66.557-3.291.674-4.892.117-1.602.176-3.145.176-4.629v-3.047c-1.406-.312-2.481-.947-3.223-1.904s-1.113-2.061-1.113-3.311c0-.234.019-.488.058-.762.039-.273.098-.527.176-.761h-.351c-2.735 0-4.786-.684-6.153-2.051s-2.05-3.086-2.05-5.156c0-1.992.742-3.653 2.226-4.981 1.484-1.328 3.535-2.07 6.152-2.226-.586-.938-1.054-2.012-1.406-3.223a13.828 13.828 0 01-.527-3.867c0-1.875.332-3.584.996-5.127a11.927 11.927 0 012.754-3.984c1.172-1.114 2.568-1.983 4.189-2.608s3.389-.937 5.303-.937c1.875 0 3.623.312 5.244.937 1.621.625 3.018 1.494 4.19 2.608a11.956 11.956 0 012.754 3.984c.664 1.543.996 3.252.996 5.127 0 1.367-.176 2.656-.528 3.867-.351 1.211-.82 2.285-1.406 3.223 2.617.156 4.668.898 6.152 2.226 1.485 1.328 2.227 2.989 2.227 4.981 0 2.07-.684 3.789-2.051 5.156-1.367 1.367-3.418 2.051-6.152 2.051h-.352c.078.234.137.488.176.761.039.274.059.528.059.762 0 1.25-.371 2.354-1.114 3.311-.742.957-1.816 1.592-3.222 1.904v3.047a63.6 63.6 0 00.175 4.629c.118 1.601.342 3.232.674 4.892.332 1.661.801 3.37 1.407 5.127.605 1.758 1.416 3.535 2.431 5.332h.352c1.054 0 1.972.157 2.754.469.781.313 1.416.713 1.904 1.201a4.947 4.947 0 011.113 1.7 5.46 5.46 0 01.381 2.021c0 .547-.098 1.016-.293 1.406h.41c4.141 0 7.1 1.074 8.877 3.223 1.778 2.148 2.666 5.195 2.666 9.141v2.109h-59.707zm11.485-10.488c-1.758 0-3.155.293-4.19.879-1.035.585-1.767 1.406-2.197 2.46h49.512c-.43-1.054-1.153-1.875-2.168-2.46-1.016-.586-2.422-.879-4.219-.879h-36.738zm33.632-47.754c0-1.016-.312-1.807-.937-2.373-.625-.567-1.563-.85-2.813-.85h-23.027c-1.25 0-2.187.283-2.812.85-.625.566-.938 1.357-.938 2.373h30.527zm-19.687-14.942c0-1.015.176-1.972.527-2.871a8.68 8.68 0 011.436-2.431 8.304 8.304 0 012.138-1.817 7.575 7.575 0 012.696-.967 4.09 4.09 0 00-1.026-.263 8.422 8.422 0 00-1.201-.088c-3.008 0-5.312.84-6.914 2.519-1.601 1.68-2.402 3.868-2.402 6.563 0 1.445.273 2.783.82 4.014.547 1.23 1.309 2.255 2.285 3.076h6.973c-1.563-.586-2.842-1.573-3.838-2.959-.996-1.387-1.494-2.979-1.494-4.776zm1.523 31.875c0 3.711-.351 7.295-1.054 10.752-.703 3.457-1.68 6.553-2.93 9.287h5.332v-22.91h-1.348v2.871zm-9.023 24.024c-1.211 0-1.817.488-1.817 1.465h27.481c0-.977-.606-1.465-1.816-1.465h-23.848zm18.808-32.285c0-.977-.625-1.465-1.875-1.465h-10.019c-1.25 0-1.875.488-1.875 1.465h13.769z"/><path fill="none" d="M210 410h100v100H210z"/><path d="M330.117 502.129v-2.109c0-1.993.215-3.75.645-5.274.429-1.523 1.103-2.812 2.021-3.867.918-1.055 2.11-1.856 3.574-2.402 1.465-.547 3.233-.821 5.303-.821h.41c-.195-.39-.293-.859-.293-1.406 0-.703.127-1.377.381-2.021a4.947 4.947 0 011.113-1.7c.489-.488 1.124-.888 1.905-1.201.781-.312 1.699-.469 2.754-.469h.351c1.016-1.797 1.826-3.574 2.432-5.332a39.625 39.625 0 001.406-5.127c.332-1.66.557-3.291.674-4.892.117-1.602.176-3.145.176-4.629v-3.047c-1.406-.312-2.481-.947-3.223-1.904s-1.113-2.061-1.113-3.311c0-.234.019-.488.058-.762.039-.273.098-.527.176-.761h-.351c-2.735 0-4.786-.684-6.153-2.051s-2.05-3.086-2.05-5.156c0-1.992.742-3.653 2.226-4.981 1.484-1.328 3.535-2.07 6.152-2.226-.586-.938-1.054-2.012-1.406-3.223a13.828 13.828 0 01-.527-3.867c0-1.875.332-3.584.996-5.127a11.927 11.927 0 012.754-3.984c1.172-1.114 2.568-1.983 4.189-2.608s3.389-.937 5.303-.937c1.875 0 3.623.312 5.244.937 1.621.625 3.018 1.494 4.19 2.608a11.956 11.956 0 012.754 3.984c.664 1.543.996 3.252.996 5.127 0 1.367-.176 2.656-.528 3.867-.351 1.211-.82 2.285-1.406 3.223 2.617.156 4.668.898 6.152 2.226 1.485 1.328 2.227 2.989 2.227 4.981 0 2.07-.684 3.789-2.051 5.156-1.367 1.367-3.418 2.051-6.152 2.051h-.352c.078.234.137.488.176.761.039.274.059.528.059.762 0 1.25-.371 2.354-1.114 3.311-.742.957-1.816 1.592-3.222 1.904v3.047a63.6 63.6 0 00.175 4.629c.118 1.601.342 3.232.674 4.892.332 1.661.801 3.37 1.407 5.127.605 1.758 1.416 3.535 2.431 5.332h.352c1.054 0 1.972.157 2.754.469.781.313 1.416.713 1.904 1.201a4.947 4.947 0 011.113 1.7 5.46 5.46 0 01.381 2.021c0 .547-.098 1.016-.293 1.406h.41c4.141 0 7.1 1.074 8.877 3.223 1.778 2.148 2.666 5.195 2.666 9.141v2.109h-59.707z" fill="#8c8c8c"/><path d="M330.117 502.129v-2.109c0-1.993.215-3.75.645-5.274.429-1.523 1.103-2.812 2.021-3.867.918-1.055 2.11-1.856 3.574-2.402 1.465-.547 3.233-.821 5.303-.821h.41c-.195-.39-.293-.859-.293-1.406 0-.703.127-1.377.381-2.021a4.947 4.947 0 011.113-1.7c.489-.488 1.124-.888 1.905-1.201.781-.312 1.699-.469 2.754-.469h.351c1.016-1.797 1.826-3.574 2.432-5.332a39.625 39.625 0 001.406-5.127c.332-1.66.557-3.291.674-4.892.117-1.602.176-3.145.176-4.629v-3.047c-1.406-.312-2.481-.947-3.223-1.904s-1.113-2.061-1.113-3.311c0-.234.019-.488.058-.762.039-.273.098-.527.176-.761h-.351c-2.735 0-4.786-.684-6.153-2.051s-2.05-3.086-2.05-5.156c0-1.992.742-3.653 2.226-4.981 1.484-1.328 3.535-2.07 6.152-2.226-.586-.938-1.054-2.012-1.406-3.223a13.828 13.828 0 01-.527-3.867c0-1.875.332-3.584.996-5.127a11.927 11.927 0 012.754-3.984c1.172-1.114 2.568-1.983 4.189-2.608s3.389-.937 5.303-.937c1.875 0 3.623.312 5.244.937 1.621.625 3.018 1.494 4.19 2.608a11.956 11.956 0 012.754 3.984c.664 1.543.996 3.252.996 5.127 0 1.367-.176 2.656-.528 3.867-.351 1.211-.82 2.285-1.406 3.223 2.617.156 4.668.898 6.152 2.226 1.485 1.328 2.227 2.989 2.227 4.981 0 2.07-.684 3.789-2.051 5.156-1.367 1.367-3.418 2.051-6.152 2.051h-.352c.078.234.137.488.176.761.039.274.059.528.059.762 0 1.25-.371 2.354-1.114 3.311-.742.957-1.816 1.592-3.222 1.904v3.047a63.6 63.6 0 00.175 4.629c.118 1.601.342 3.232.674 4.892.332 1.661.801 3.37 1.407 5.127.605 1.758 1.416 3.535 2.431 5.332h.352c1.054 0 1.972.157 2.754.469.781.313 1.416.713 1.904 1.201a4.947 4.947 0 011.113 1.7 5.46 5.46 0 01.381 2.021c0 .547-.098 1.016-.293 1.406h.41c4.141 0 7.1 1.074 8.877 3.223 1.778 2.148 2.666 5.195 2.666 9.141v2.109h-59.707zm11.485-10.488c-1.758 0-3.155.293-4.19.879-1.035.585-1.767 1.406-2.197 2.46h49.512c-.43-1.054-1.153-1.875-2.168-2.46-1.016-.586-2.422-.879-4.219-.879h-36.738zm33.632-47.754c0-1.016-.312-1.807-.937-2.373-.625-.567-1.563-.85-2.813-.85h-23.027c-1.25 0-2.187.283-2.812.85-.625.566-.938 1.357-.938 2.373h30.527zm-19.687-14.942c0-1.015.176-1.972.527-2.871a8.68 8.68 0 011.436-2.431 8.304 8.304 0 012.138-1.817 7.575 7.575 0 012.696-.967 4.09 4.09 0 00-1.026-.263 8.422 8.422 0 00-1.201-.088c-3.008 0-5.312.84-6.914 2.519-1.601 1.68-2.402 3.868-2.402 6.563 0 1.445.273 2.783.82 4.014.547 1.23 1.309 2.255 2.285 3.076h6.973c-1.563-.586-2.842-1.573-3.838-2.959-.996-1.387-1.494-2.979-1.494-4.776zm1.523 31.875c0 3.711-.351 7.295-1.054 10.752-.703 3.457-1.68 6.553-2.93 9.287h5.332v-22.91h-1.348v2.871zm-9.023 24.024c-1.211 0-1.817.488-1.817 1.465h27.481c0-.977-.606-1.465-1.816-1.465h-23.848zm18.808-32.285c0-.977-.625-1.465-1.875-1.465h-10.019c-1.25 0-1.875.488-1.875 1.465h13.769z"/><path fill="none" d="M310 410h100v100H310z"/><path d="M430.117 502.129v-2.109c0-1.993.215-3.75.645-5.274.429-1.523 1.103-2.812 2.021-3.867.918-1.055 2.11-1.856 3.574-2.402 1.465-.547 3.233-.821 5.303-.821h.41c-.195-.39-.293-.859-.293-1.406 0-.703.127-1.377.381-2.021a4.947 4.947 0 011.113-1.7c.489-.488 1.124-.888 1.905-1.201.781-.312 1.699-.469 2.754-.469h.351c1.016-1.797 1.826-3.574 2.432-5.332a39.625 39.625 0 001.406-5.127c.332-1.66.557-3.291.674-4.892.117-1.602.176-3.145.176-4.629v-3.047c-1.406-.312-2.481-.947-3.223-1.904s-1.113-2.061-1.113-3.311c0-.234.019-.488.058-.762.039-.273.098-.527.176-.761h-.351c-2.735 0-4.786-.684-6.153-2.051s-2.05-3.086-2.05-5.156c0-1.992.742-3.653 2.226-4.981 1.484-1.328 3.535-2.07 6.152-2.226-.586-.938-1.054-2.012-1.406-3.223a13.828 13.828 0 01-.527-3.867c0-1.875.332-3.584.996-5.127a11.927 11.927 0 012.754-3.984c1.172-1.114 2.568-1.983 4.189-2.608s3.389-.937 5.303-.937c1.875 0 3.623.312 5.244.937 1.621.625 3.018 1.494 4.19 2.608a11.956 11.956 0 012.754 3.984c.664 1.543.996 3.252.996 5.127 0 1.367-.176 2.656-.528 3.867-.351 1.211-.82 2.285-1.406 3.223 2.617.156 4.668.898 6.152 2.226 1.485 1.328 2.227 2.989 2.227 4.981 0 2.07-.684 3.789-2.051 5.156-1.367 1.367-3.418 2.051-6.152 2.051h-.352c.078.234.137.488.176.761.039.274.059.528.059.762 0 1.25-.371 2.354-1.114 3.311-.742.957-1.816 1.592-3.222 1.904v3.047a63.6 63.6 0 00.175 4.629c.118 1.601.342 3.232.674 4.892.332 1.661.801 3.37 1.407 5.127.605 1.758 1.416 3.535 2.431 5.332h.352c1.054 0 1.972.157 2.754.469.781.313 1.416.713 1.904 1.201a4.947 4.947 0 011.113 1.7 5.46 5.46 0 01.381 2.021c0 .547-.098 1.016-.293 1.406h.41c4.141 0 7.1 1.074 8.877 3.223 1.778 2.148 2.666 5.195 2.666 9.141v2.109h-59.707z" fill="#8c8c8c"/><path d="M430.117 502.129v-2.109c0-1.993.215-3.75.645-5.274.429-1.523 1.103-2.812 2.021-3.867.918-1.055 2.11-1.856 3.574-2.402 1.465-.547 3.233-.821 5.303-.821h.41c-.195-.39-.293-.859-.293-1.406 0-.703.127-1.377.381-2.021a4.947 4.947 0 011.113-1.7c.489-.488 1.124-.888 1.905-1.201.781-.312 1.699-.469 2.754-.469h.351c1.016-1.797 1.826-3.574 2.432-5.332a39.625 39.625 0 001.406-5.127c.332-1.66.557-3.291.674-4.892.117-1.602.176-3.145.176-4.629v-3.047c-1.406-.312-2.481-.947-3.223-1.904s-1.113-2.061-1.113-3.311c0-.234.019-.488.058-.762.039-.273.098-.527.176-.761h-.351c-2.735 0-4.786-.684-6.153-2.051s-2.05-3.086-2.05-5.156c0-1.992.742-3.653 2.226-4.981 1.484-1.328 3.535-2.07 6.152-2.226-.586-.938-1.054-2.012-1.406-3.223a13.828 13.828 0 01-.527-3.867c0-1.875.332-3.584.996-5.127a11.927 11.927 0 012.754-3.984c1.172-1.114 2.568-1.983 4.189-2.608s3.389-.937 5.303-.937c1.875 0 3.623.312 5.244.937 1.621.625 3.018 1.494 4.19 2.608a11.956 11.956 0 012.754 3.984c.664 1.543.996 3.252.996 5.127 0 1.367-.176 2.656-.528 3.867-.351 1.211-.82 2.285-1.406 3.223 2.617.156 4.668.898 6.152 2.226 1.485 1.328 2.227 2.989 2.227 4.981 0 2.07-.684 3.789-2.051 5.156-1.367 1.367-3.418 2.051-6.152 2.051h-.352c.078.234.137.488.176.761.039.274.059.528.059.762 0 1.25-.371 2.354-1.114 3.311-.742.957-1.816 1.592-3.222 1.904v3.047a63.6 63.6 0 00.175 4.629c.118 1.601.342 3.232.674 4.892.332 1.661.801 3.37 1.407 5.127.605 1.758 1.416 3.535 2.431 5.332h.352c1.054 0 1.972.157 2.754.469.781.313 1.416.713 1.904 1.201a4.947 4.947 0 011.113 1.7 5.46 5.46 0 01.381 2.021c0 .547-.098 1.016-.293 1.406h.41c4.141 0 7.1 1.074 8.877 3.223 1.778 2.148 2.666 5.195 2.666 9.141v2.109h-59.707zm11.485-10.488c-1.758 0-3.155.293-4.19.879-1.035.585-1.767 1.406-2.197 2.46h49.512c-.43-1.054-1.153-1.875-2.168-2.46-1.016-.586-2.422-.879-4.219-.879h-36.738zm33.632-47.754c0-1.016-.312-1.807-.937-2.373-.625-.567-1.563-.85-2.813-.85h-23.027c-1.25 0-2.187.283-2.812.85-.625.566-.938 1.357-.938 2.373h30.527zm-19.687-14.942c0-1.015.176-1.972.527-2.871a8.68 8.68 0 011.436-2.431 8.304 8.304 0 012.138-1.817 7.575 7.575 0 012.696-.967 4.09 4.09 0 00-1.026-.263 8.422 8.422 0 00-1.201-.088c-3.008 0-5.312.84-6.914 2.519-1.601 1.68-2.402 3.868-2.402 6.563 0 1.445.273 2.783.82 4.014.547 1.23 1.309 2.255 2.285 3.076h6.973c-1.563-.586-2.842-1.573-3.838-2.959-.996-1.387-1.494-2.979-1.494-4.776zm1.523 31.875c0 3.711-.351 7.295-1.054 10.752-.703 3.457-1.68 6.553-2.93 9.287h5.332v-22.91h-1.348v2.871zm-9.023 24.024c-1.211 0-1.817.488-1.817 1.465h27.481c0-.977-.606-1.465-1.816-1.465h-23.848zm18.808-32.285c0-.977-.625-1.465-1.875-1.465h-10.019c-1.25 0-1.875.488-1.875 1.465h13.769z"/><path fill="none" d="M410 410h100v100H410z"/><path d="M530.117 502.129v-2.109c0-1.993.215-3.75.645-5.274.429-1.523 1.103-2.812 2.021-3.867.918-1.055 2.11-1.856 3.574-2.402 1.465-.547 3.233-.821 5.303-.821h.41c-.195-.39-.293-.859-.293-1.406 0-.703.127-1.377.381-2.021a4.947 4.947 0 011.113-1.7c.489-.488 1.124-.888 1.905-1.201.781-.312 1.699-.469 2.754-.469h.351c1.016-1.797 1.826-3.574 2.432-5.332a39.625 39.625 0 001.406-5.127c.332-1.66.557-3.291.674-4.892.117-1.602.176-3.145.176-4.629v-3.047c-1.406-.312-2.481-.947-3.223-1.904s-1.113-2.061-1.113-3.311c0-.234.019-.488.058-.762.039-.273.098-.527.176-.761h-.351c-2.735 0-4.786-.684-6.153-2.051s-2.05-3.086-2.05-5.156c0-1.992.742-3.653 2.226-4.981 1.484-1.328 3.535-2.07 6.152-2.226-.586-.938-1.054-2.012-1.406-3.223a13.828 13.828 0 01-.527-3.867c0-1.875.332-3.584.996-5.127a11.927 11.927 0 012.754-3.984c1.172-1.114 2.568-1.983 4.189-2.608s3.389-.937 5.303-.937c1.875 0 3.623.312 5.244.937 1.621.625 3.018 1.494 4.19 2.608a11.956 11.956 0 012.754 3.984c.664 1.543.996 3.252.996 5.127 0 1.367-.176 2.656-.528 3.867-.351 1.211-.82 2.285-1.406 3.223 2.617.156 4.668.898 6.152 2.226 1.485 1.328 2.227 2.989 2.227 4.981 0 2.07-.684 3.789-2.051 5.156-1.367 1.367-3.418 2.051-6.152 2.051h-.352c.078.234.137.488.176.761.039.274.059.528.059.762 0 1.25-.371 2.354-1.114 3.311-.742.957-1.816 1.592-3.222 1.904v3.047a63.6 63.6 0 00.175 4.629c.118 1.601.342 3.232.674 4.892.332 1.661.801 3.37 1.407 5.127.605 1.758 1.416 3.535 2.431 5.332h.352c1.054 0 1.972.157 2.754.469.781.313 1.416.713 1.904 1.201a4.947 4.947 0 011.113 1.7 5.46 5.46 0 01.381 2.021c0 .547-.098 1.016-.293 1.406h.41c4.141 0 7.1 1.074 8.877 3.223 1.778 2.148 2.666 5.195 2.666 9.141v2.109h-59.707z" fill="#8c8c8c"/><path d="M530.117 502.129v-2.109c0-1.993.215-3.75.645-5.274.429-1.523 1.103-2.812 2.021-3.867.918-1.055 2.11-1.856 3.574-2.402 1.465-.547 3.233-.821 5.303-.821h.41c-.195-.39-.293-.859-.293-1.406 0-.703.127-1.377.381-2.021a4.947 4.947 0 011.113-1.7c.489-.488 1.124-.888 1.905-1.201.781-.312 1.699-.469 2.754-.469h.351c1.016-1.797 1.826-3.574 2.432-5.332a39.625 39.625 0 001.406-5.127c.332-1.66.557-3.291.674-4.892.117-1.602.176-3.145.176-4.629v-3.047c-1.406-.312-2.481-.947-3.223-1.904s-1.113-2.061-1.113-3.311c0-.234.019-.488.058-.762.039-.273.098-.527.176-.761h-.351c-2.735 0-4.786-.684-6.153-2.051s-2.05-3.086-2.05-5.156c0-1.992.742-3.653 2.226-4.981 1.484-1.328 3.535-2.07 6.152-2.226-.586-.938-1.054-2.012-1.406-3.223a13.828 13.828 0 01-.527-3.867c0-1.875.332-3.584.996-5.127a11.927 11.927 0 012.754-3.984c1.172-1.114 2.568-1.983 4.189-2.608s3.389-.937 5.303-.937c1.875 0 3.623.312 5.244.937 1.621.625 3.018 1.494 4.19 2.608a11.956 11.956 0 012.754 3.984c.664 1.543.996 3.252.996 5.127 0 1.367-.176 2.656-.528 3.867-.351 1.211-.82 2.285-1.406 3.223 2.617.156 4.668.898 6.152 2.226 1.485 1.328 2.227 2.989 2.227 4.981 0 2.07-.684 3.789-2.051 5.156-1.367 1.367-3.418 2.051-6.152 2.051h-.352c.078.234.137.488.176.761.039.274.059.528.059.762 0 1.25-.371 2.354-1.114 3.311-.742.957-1.816 1.592-3.222 1.904v3.047a63.6 63.6 0 00.175 4.629c.118 1.601.342 3.232.674 4.892.332 1.661.801 3.37 1.407 5.127.605 1.758 1.416 3.535 2.431 5.332h.352c1.054 0 1.972.157 2.754.469.781.313 1.416.713 1.904 1.201a4.947 4.947 0 011.113 1.7 5.46 5.46 0 01.381 2.021c0 .547-.098 1.016-.293 1.406h.41c4.141 0 7.1 1.074 8.877 3.223 1.778 2.148 2.666 5.195 2.666 9.141v2.109h-59.707zm11.485-10.488c-1.758 0-3.155.293-4.19.879-1.035.585-1.767 1.406-2.197 2.46h49.512c-.43-1.054-1.153-1.875-2.168-2.46-1.016-.586-2.422-.879-4.219-.879h-36.738zm33.632-47.754c0-1.016-.312-1.807-.937-2.373-.625-.567-1.563-.85-2.813-.85h-23.027c-1.25 0-2.187.283-2.812.85-.625.566-.938 1.357-.938 2.373h30.527zm-19.687-14.942c0-1.015.176-1.972.527-2.871a8.68 8.68 0 011.436-2.431 8.304 8.304 0 012.138-1.817 7.575 7.575 0 012.696-.967 4.09 4.09 0 00-1.026-.263 8.422 8.422 0 00-1.201-.088c-3.008 0-5.312.84-6.914 2.519-1.601 1.68-2.402 3.868-2.402 6.563 0 1.445.273 2.783.82 4.014.547 1.23 1.309 2.255 2.285 3.076h6.973c-1.563-.586-2.842-1.573-3.838-2.959-.996-1.387-1.494-2.979-1.494-4.776zm1.523 31.875c0 3.711-.351 7.295-1.054 10.752-.704 3.457-1.68 6.553-2.93 9.287h5.332v-22.91h-1.348v2.871zm-9.023 24.024c-1.211 0-1.817.488-1.817 1.465h27.481c0-.977-.606-1.465-1.816-1.465h-23.848zm18.808-32.285c0-.977-.625-1.465-1.875-1.465h-10.019c-1.25 0-1.875.488-1.875 1.465h13.769z"/><path fill="none" d="M510 410h100v100H510z"/><path d="M130.117 902.129v-2.109c0-1.993.215-3.75.645-5.274.429-1.523 1.103-2.812 2.021-3.867.918-1.055 2.11-1.856 3.574-2.402 1.465-.547 3.233-.821 5.303-.821h.41c-.195-.39-.293-.859-.293-1.406 0-.703.127-1.377.381-2.021a4.947 4.947 0 011.113-1.7c.489-.488 1.124-.888 1.905-1.201.781-.312 1.699-.469 2.754-.469h.351c1.016-1.797 1.826-3.574 2.432-5.332a39.625 39.625 0 001.406-5.127c.332-1.66.557-3.291.674-4.892.117-1.602.176-3.145.176-4.629v-3.047c-1.406-.312-2.481-.947-3.223-1.904s-1.113-2.061-1.113-3.311c0-.234.019-.488.058-.762.039-.273.098-.527.176-.761h-.351c-2.735 0-4.786-.684-6.153-2.051s-2.05-3.086-2.05-5.156c0-1.992.742-3.653 2.226-4.981 1.484-1.328 3.535-2.07 6.152-2.226-.586-.938-1.054-2.012-1.406-3.223a13.828 13.828 0 01-.527-3.867c0-1.875.332-3.584.996-5.127.664-1.543 1.572-2.871 2.725-3.984 1.152-1.114 2.509-1.983 4.072-2.608 1.562-.625 3.242-.937 5.039-.937h.762c1.796 0 3.476.312 5.039.937 1.562.625 2.92 1.494 4.072 2.608 1.152 1.113 2.06 2.441 2.725 3.984.664 1.543.996 3.252.996 5.127 0 1.367-.176 2.656-.528 3.867-.351 1.211-.82 2.285-1.406 3.223 2.617.156 4.668.898 6.152 2.226 1.485 1.328 2.227 2.989 2.227 4.981 0 2.07-.684 3.789-2.051 5.156-1.367 1.367-3.418 2.051-6.152 2.051h-.352c.078.234.137.488.176.761.039.274.059.528.059.762 0 1.25-.371 2.354-1.114 3.311-.742.957-1.816 1.592-3.222 1.904v3.047a63.6 63.6 0 00.175 4.629c.118 1.601.342 3.232.674 4.892.332 1.661.801 3.37 1.407 5.127.605 1.758 1.416 3.535 2.431 5.332h.352c1.054 0 1.972.157 2.754.469.781.313 1.416.713 1.904 1.201a4.947 4.947 0 011.113 1.7 5.46 5.46 0 01.381 2.021c0 .547-.098 1.016-.293 1.406h.41c4.141 0 7.1 1.074 8.877 3.223 1.778 2.148 2.666 5.195 2.666 9.141v2.109h-59.707z" fill="#fff"/><path d="M130.117 902.129v-2.109c0-1.993.215-3.75.645-5.274.429-1.523 1.103-2.812 2.021-3.867.918-1.055 2.11-1.856 3.574-2.402 1.465-.547 3.233-.821 5.303-.821h.41c-.195-.39-.293-.859-.293-1.406 0-.703.127-1.377.381-2.021a4.947 4.947 0 011.113-1.7c.489-.488 1.124-.888 1.905-1.201.781-.312 1.699-.469 2.754-.469h.351c1.016-1.797 1.826-3.574 2.432-5.332a39.625 39.625 0 001.406-5.127c.332-1.66.557-3.291.674-4.892.117-1.602.176-3.145.176-4.629v-3.047c-1.406-.312-2.481-.947-3.223-1.904s-1.113-2.061-1.113-3.311c0-.234.019-.488.058-.762.039-.273.098-.527.176-.761h-.351c-2.735 0-4.786-.684-6.153-2.051s-2.05-3.086-2.05-5.156c0-1.992.742-3.653 2.226-4.981 1.484-1.328 3.535-2.07 6.152-2.226-.586-.938-1.054-2.012-1.406-3.223a13.828 13.828 0 01-.527-3.867c0-1.875.332-3.584.996-5.127.664-1.543 1.572-2.871 2.725-3.984 1.152-1.114 2.509-1.983 4.072-2.608 1.562-.625 3.242-.937 5.039-.937h.762c1.796 0 3.476.312 5.039.937 1.562.625 2.92 1.494 4.072 2.608 1.152 1.113 2.06 2.441 2.725 3.984.664 1.543.996 3.252.996 5.127 0 1.367-.176 2.656-.528 3.867-.351 1.211-.82 2.285-1.406 3.223 2.617.156 4.668.898 6.152 2.226 1.485 1.328 2.227 2.989 2.227 4.981 0 2.07-.684 3.789-2.051 5.156-1.367 1.367-3.418 2.051-6.152 2.051h-.352c.078.234.137.488.176.761.039.274.059.528.059.762 0 1.25-.371 2.354-1.114 3.311-.742.957-1.816 1.592-3.222 1.904v3.047a63.6 63.6 0 00.175 4.629c.118 1.601.342 3.232.674 4.892.332 1.661.801 3.37 1.407 5.127.605 1.758 1.416 3.535 2.431 5.332h.352c1.054 0 1.972.157 2.754.469.781.313 1.416.713 1.904 1.201a4.947 4.947 0 011.113 1.7 5.46 5.46 0 01.381 2.021c0 .547-.098 1.016-.293 1.406h.41c4.141 0 7.1 1.074 8.877 3.223 1.778 2.148 2.666 5.195 2.666 9.141v2.109h-59.707zm11.485-10.488c-2.539 0-4.317.576-5.332 1.728-1.016 1.152-1.563 2.705-1.641 4.658h50.684c-.079-1.953-.625-3.506-1.641-4.658-1.016-1.152-2.793-1.728-5.332-1.728h-36.738zm9.199-62.051c0 1.445.273 2.783.82 4.014.547 1.23 1.309 2.255 2.285 3.076h12.129c.977-.821 1.738-1.846 2.285-3.076.547-1.231.821-2.569.821-4.014 0-1.328-.215-2.539-.645-3.633a8.676 8.676 0 00-1.787-2.842c-.762-.801-1.689-1.416-2.783-1.845-1.094-.43-2.285-.645-3.574-.645h-.762c-1.289 0-2.481.215-3.574.645-1.094.429-2.022 1.044-2.784 1.845a8.693 8.693 0 00-1.787 2.842c-.429 1.094-.644 2.305-.644 3.633zm-6.094 14.297c0 1.015.313 1.816.938 2.402.625.586 1.562.879 2.812.879h23.027c1.25 0 2.188-.293 2.813-.879.625-.586.937-1.387.937-2.402 0-1.016-.312-1.807-.937-2.373-.625-.567-1.563-.85-2.813-.85h-23.027c-1.25 0-2.187.283-2.812.85-.625.566-.938 1.357-.938 2.373zm12.363 16.933c0 3.711-.351 7.295-1.054 10.752-.703 3.457-1.68 6.553-2.93 9.287h13.769c-1.25-2.734-2.226-5.83-2.929-9.287-.703-3.457-1.055-7.041-1.055-10.752v-2.871h-5.801v2.871zm14.825 26.836c1.21 0 1.816-.449 1.816-1.347 0-.977-.606-1.465-1.816-1.465h-23.848c-1.211 0-1.817.488-1.817 1.465 0 .898.606 1.347 1.817 1.347h23.848zm-18.809-35.097c0 .937.625 1.406 1.875 1.406h10.019c1.25 0 1.875-.469 1.875-1.406 0-.977-.625-1.465-1.875-1.465h-10.019c-1.25 0-1.875.488-1.875 1.465z"/><path fill="none" d="M110 810h100v100H110z"/><path d="M230.117 902.129v-2.109c0-1.993.215-3.75.645-5.274.429-1.523 1.103-2.812 2.021-3.867.918-1.055 2.11-1.856 3.574-2.402 1.465-.547 3.233-.821 5.303-.821h.41c-.195-.39-.293-.859-.293-1.406 0-.703.127-1.377.381-2.021a4.947 4.947 0 011.113-1.7c.489-.488 1.124-.888 1.905-1.201.781-.312 1.699-.469 2.754-.469h.351c1.016-1.797 1.826-3.574 2.432-5.332a39.625 39.625 0 001.406-5.127c.332-1.66.557-3.291.674-4.892.117-1.602.176-3.145.176-4.629v-3.047c-1.406-.312-2.481-.947-3.223-1.904s-1.113-2.061-1.113-3.311c0-.234.019-.488.058-.762.039-.273.098-.527.176-.761h-.351c-2.735 0-4.786-.684-6.153-2.051s-2.05-3.086-2.05-5.156c0-1.992.742-3.653 2.226-4.981 1.484-1.328 3.535-2.07 6.152-2.226-.586-.938-1.054-2.012-1.406-3.223a13.828 13.828 0 01-.527-3.867c0-1.875.332-3.584.996-5.127.664-1.543 1.572-2.871 2.725-3.984 1.152-1.114 2.509-1.983 4.072-2.608 1.562-.625 3.242-.937 5.039-.937h.762c1.796 0 3.476.312 5.039.937 1.562.625 2.92 1.494 4.072 2.608 1.152 1.113 2.06 2.441 2.725 3.984.664 1.543.996 3.252.996 5.127 0 1.367-.176 2.656-.528 3.867-.351 1.211-.82 2.285-1.406 3.223 2.617.156 4.668.898 6.152 2.226 1.485 1.328 2.227 2.989 2.227 4.981 0 2.07-.684 3.789-2.051 5.156-1.367 1.367-3.418 2.051-6.152 2.051h-.352c.078.234.137.488.176.761.039.274.059.528.059.762 0 1.25-.371 2.354-1.114 3.311-.742.957-1.816 1.592-3.222 1.904v3.047a63.6 63.6 0 00.175 4.629c.118 1.601.342 3.232.674 4.892.332 1.661.801 3.37 1.407 5.127.605 1.758 1.416 3.535 2.431 5.332h.352c1.054 0 1.972.157 2.754.469.781.313 1.416.713 1.904 1.201a4.947 4.947 0 011.113 1.7 5.46 5.46 0 01.381 2.021c0 .547-.098 1.016-.293 1.406h.41c4.141 0 7.1 1.074 8.877 3.223 1.778 2.148 2.666 5.195 2.666 9.141v2.109h-59.707z" fill="#fff"/><path d="M230.117 902.129v-2.109c0-1.993.215-3.75.645-5.274.429-1.523 1.103-2.812 2.021-3.867.918-1.055 2.11-1.856 3.574-2.402 1.465-.547 3.233-.821 5.303-.821h.41c-.195-.39-.293-.859-.293-1.406 0-.703.127-1.377.381-2.021a4.947 4.947 0 011.113-1.7c.489-.488 1.124-.888 1.905-1.201.781-.312 1.699-.469 2.754-.469h.351c1.016-1.797 1.826-3.574 2.432-5.332a39.625 39.625 0 001.406-5.127c.332-1.66.557-3.291.674-4.892.117-1.602.176-3.145.176-4.629v-3.047c-1.406-.312-2.481-.947-3.223-1.904s-1.113-2.061-1.113-3.311c0-.234.019-.488.058-.762.039-.273.098-.527.176-.761h-.351c-2.735 0-4.786-.684-6.153-2.051s-2.05-3.086-2.05-5.156c0-1.992.742-3.653 2.226-4.981 1.484-1.328 3.535-2.07 6.152-2.226-.586-.938-1.054-2.012-1.406-3.223a13.828 13.828 0 01-.527-3.867c0-1.875.332-3.584.996-5.127.664-1.543 1.572-2.871 2.725-3.984 1.152-1.114 2.509-1.983 4.072-2.608 1.562-.625 3.242-.937 5.039-.937h.762c1.796 0 3.476.312 5.039.937 1.562.625 2.92 1.494 4.072 2.608 1.152 1.113 2.06 2.441 2.725 3.984.664 1.543.996 3.252.996 5.127 0 1.367-.176 2.656-.528 3.867-.351 1.211-.82 2.285-1.406 3.223 2.617.156 4.668.898 6.152 2.226 1.485 1.328 2.227 2.989 2.227 4.981 0 2.07-.684 3.789-2.051 5.156-1.367 1.367-3.418 2.051-6.152 2.051h-.352c.078.234.137.488.176.761.039.274.059.528.059.762 0 1.25-.371 2.354-1.114 3.311-.742.957-1.816 1.592-3.222 1.904v3.047a63.6 63.6 0 00.175 4.629c.118 1.601.342 3.232.674 4.892.332 1.661.801 3.37 1.407 5.127.605 1.758 1.416 3.535 2.431 5.332h.352c1.054 0 1.972.157 2.754.469.781.313 1.416.713 1.904 1.201a4.947 4.947 0 011.113 1.7 5.46 5.46 0 01.381 2.021c0 .547-.098 1.016-.293 1.406h.41c4.141 0 7.1 1.074 8.877 3.223 1.778 2.148 2.666 5.195 2.666 9.141v2.109h-59.707zm11.485-10.488c-2.539 0-4.317.576-5.332 1.728-1.016 1.152-1.563 2.705-1.641 4.658h50.684c-.079-1.953-.625-3.506-1.641-4.658-1.016-1.152-2.793-1.728-5.332-1.728h-36.738zm9.199-62.051c0 1.445.273 2.783.82 4.014.547 1.23 1.309 2.255 2.285 3.076h12.129c.977-.821 1.738-1.846 2.285-3.076.547-1.231.821-2.569.821-4.014 0-1.328-.215-2.539-.645-3.633a8.676 8.676 0 00-1.787-2.842c-.762-.801-1.689-1.416-2.783-1.845-1.094-.43-2.285-.645-3.574-.645h-.762c-1.289 0-2.481.215-3.574.645-1.094.429-2.022 1.044-2.784 1.845a8.693 8.693 0 00-1.787 2.842c-.429 1.094-.644 2.305-.644 3.633zm-6.094 14.297c0 1.015.313 1.816.938 2.402.625.586 1.562.879 2.812.879h23.027c1.25 0 2.188-.293 2.813-.879.625-.586.937-1.387.937-2.402 0-1.016-.312-1.807-.937-2.373-.625-.567-1.563-.85-2.813-.85h-23.027c-1.25 0-2.187.283-2.812.85-.625.566-.938 1.357-.938 2.373zm12.363 16.933c0 3.711-.351 7.295-1.054 10.752-.704 3.457-1.68 6.553-2.93 9.287h13.769c-1.25-2.734-2.226-5.83-2.929-9.287-.703-3.457-1.055-7.041-1.055-10.752v-2.871h-5.801v2.871zm14.825 26.836c1.21 0 1.816-.449 1.816-1.347 0-.977-.606-1.465-1.816-1.465h-23.848c-1.211 0-1.817.488-1.817 1.465 0 .898.606 1.347 1.817 1.347h23.848zm-18.809-35.097c0 .937.625 1.406 1.875 1.406h10.019c1.25 0 1.875-.469 1.875-1.406 0-.977-.625-1.465-1.875-1.465h-10.019c-1.25 0-1.875.488-1.875 1.465z"/><path fill="none" d="M210 810h100v100H210z"/><path d="M430.117 902.129v-2.109c0-1.993.215-3.75.645-5.274.429-1.523 1.103-2.812 2.021-3.867.918-1.055 2.11-1.856 3.574-2.402 1.465-.547 3.233-.821 5.303-.821h.41c-.195-.39-.293-.859-.293-1.406 0-.703.127-1.377.381-2.021a4.947 4.947 0 011.113-1.7c.489-.488 1.124-.888 1.905-1.201.781-.312 1.699-.469 2.754-.469h.351c1.016-1.797 1.826-3.574 2.432-5.332a39.625 39.625 0 001.406-5.127c.332-1.66.557-3.291.674-4.892.117-1.602.176-3.145.176-4.629v-3.047c-1.406-.312-2.481-.947-3.223-1.904s-1.113-2.061-1.113-3.311c0-.234.019-.488.058-.762.039-.273.098-.527.176-.761h-.351c-2.735 0-4.786-.684-6.153-2.051s-2.05-3.086-2.05-5.156c0-1.992.742-3.653 2.226-4.981 1.484-1.328 3.535-2.07 6.152-2.226-.586-.938-1.054-2.012-1.406-3.223a13.828 13.828 0 01-.527-3.867c0-1.875.332-3.584.996-5.127.664-1.543 1.572-2.871 2.725-3.984 1.152-1.114 2.509-1.983 4.072-2.608 1.562-.625 3.242-.937 5.039-.937h.762c1.796 0 3.476.312 5.039.937 1.562.625 2.92 1.494 4.072 2.608 1.152 1.113 2.06 2.441 2.725 3.984.664 1.543.996 3.252.996 5.127 0 1.367-.176 2.656-.528 3.867-.351 1.211-.82 2.285-1.406 3.223 2.617.156 4.668.898 6.152 2.226 1.485 1.328 2.227 2.989 2.227 4.981 0 2.07-.684 3.789-2.051 5.156-1.367 1.367-3.418 2.051-6.152 2.051h-.352c.078.234.137.488.176.761.039.274.059.528.059.762 0 1.25-.371 2.354-1.114 3.311-.742.957-1.816 1.592-3.222 1.904v3.047a63.6 63.6 0 00.175 4.629c.118 1.601.342 3.232.674 4.892.332 1.661.801 3.37 1.407 5.127.605 1.758 1.416 3.535 2.431 5.332h.352c1.054 0 1.972.157 2.754.469.781.313 1.416.713 1.904 1.201a4.947 4.947 0 011.113 1.7 5.46 5.46 0 01.381 2.021c0 .547-.098 1.016-.293 1.406h.41c4.141 0 7.1 1.074 8.877 3.223 1.778 2.148 2.666 5.195 2.666 9.141v2.109h-59.707z" fill="#fff"/><path d="M430.117 902.129v-2.109c0-1.993.215-3.75.645-5.274.429-1.523 1.103-2.812 2.021-3.867.918-1.055 2.11-1.856 3.574-2.402 1.465-.547 3.233-.821 5.303-.821h.41c-.195-.39-.293-.859-.293-1.406 0-.703.127-1.377.381-2.021a4.947 4.947 0 011.113-1.7c.489-.488 1.124-.888 1.905-1.201.781-.312 1.699-.469 2.754-.469h.351c1.016-1.797 1.826-3.574 2.432-5.332a39.625 39.625 0 001.406-5.127c.332-1.66.557-3.291.674-4.892.117-1.602.176-3.145.176-4.629v-3.047c-1.406-.312-2.481-.947-3.223-1.904s-1.113-2.061-1.113-3.311c0-.234.019-.488.058-.762.039-.273.098-.527.176-.761h-.351c-2.735 0-4.786-.684-6.153-2.051s-2.05-3.086-2.05-5.156c0-1.992.742-3.653 2.226-4.981 1.484-1.328 3.535-2.07 6.152-2.226-.586-.938-1.054-2.012-1.406-3.223a13.828 13.828 0 01-.527-3.867c0-1.875.332-3.584.996-5.127.664-1.543 1.572-2.871 2.725-3.984 1.152-1.114 2.509-1.983 4.072-2.608 1.562-.625 3.242-.937 5.039-.937h.762c1.796 0 3.476.312 5.039.937 1.562.625 2.92 1.494 4.072 2.608 1.152 1.113 2.06 2.441 2.725 3.984.664 1.543.996 3.252.996 5.127 0 1.367-.176 2.656-.528 3.867-.351 1.211-.82 2.285-1.406 3.223 2.617.156 4.668.898 6.152 2.226 1.485 1.328 2.227 2.989 2.227 4.981 0 2.07-.684 3.789-2.051 5.156-1.367 1.367-3.418 2.051-6.152 2.051h-.352c.078.234.137.488.176.761.039.274.059.528.059.762 0 1.25-.371 2.354-1.114 3.311-.742.957-1.816 1.592-3.222 1.904v3.047a63.6 63.6 0 00.175 4.629c.118 1.601.342 3.232.674 4.892.332 1.661.801 3.37 1.407 5.127.605 1.758 1.416 3.535 2.431 5.332h.352c1.054 0 1.972.157 2.754.469.781.313 1.416.713 1.904 1.201a4.947 4.947 0 011.113 1.7 5.46 5.46 0 01.381 2.021c0 .547-.098 1.016-.293 1.406h.41c4.141 0 7.1 1.074 8.877 3.223 1.778 2.148 2.666 5.195 2.666 9.141v2.109h-59.707zm11.485-10.488c-2.539 0-4.317.576-5.332 1.728-1.016 1.152-1.563 2.705-1.641 4.658h50.684c-.079-1.953-.625-3.506-1.641-4.658-1.016-1.152-2.793-1.728-5.332-1.728h-36.738zm9.199-62.051c0 1.445.273 2.783.82 4.014.547 1.23 1.309 2.255 2.285 3.076h12.129c.977-.821 1.738-1.846 2.285-3.076.547-1.231.821-2.569.821-4.014 0-1.328-.215-2.539-.645-3.633a8.676 8.676 0 00-1.787-2.842c-.762-.801-1.689-1.416-2.783-1.845-1.094-.43-2.285-.645-3.574-.645h-.762c-1.289 0-2.481.215-3.574.645-1.094.429-2.022 1.044-2.784 1.845a8.693 8.693 0 00-1.787 2.842c-.429 1.094-.644 2.305-.644 3.633zm-6.094 14.297c0 1.015.313 1.816.938 2.402.625.586 1.562.879 2.812.879h23.027c1.25 0 2.188-.293 2.813-.879.625-.586.937-1.387.937-2.402 0-1.016-.312-1.807-.937-2.373-.625-.567-1.563-.85-2.813-.85h-23.027c-1.25 0-2.187.283-2.812.85-.625.566-.938 1.357-.938 2.373zm12.363 16.933c0 3.711-.351 7.295-1.054 10.752-.704 3.457-1.68 6.553-2.93 9.287h13.769c-1.25-2.734-2.226-5.83-2.929-9.287-.703-3.457-1.055-7.041-1.055-10.752v-2.871h-5.801v2.871zm14.825 26.836c1.21 0 1.816-.449 1.816-1.347 0-.977-.606-1.465-1.816-1.465h-23.848c-1.211 0-1.817.488-1.817 1.465 0 .898.606 1.347 1.817 1.347h23.848zm-18.809-35.097c0 .937.625 1.406 1.875 1.406h10.019c1.25 0 1.875-.469 1.875-1.406 0-.977-.625-1.465-1.875-1.465h-10.019c-1.25 0-1.875.488-1.875 1.465z"/><path fill="none" d="M410 810h100v100H410z"/><path d="M330.117 902.129v-2.109c0-1.993.215-3.75.645-5.274.429-1.523 1.103-2.812 2.021-3.867.918-1.055 2.11-1.856 3.574-2.402 1.465-.547 3.233-.821 5.303-.821h.41c-.195-.39-.293-.859-.293-1.406 0-.703.127-1.377.381-2.021a4.947 4.947 0 011.113-1.7c.489-.488 1.124-.888 1.905-1.201.781-.312 1.699-.469 2.754-.469h.351c1.016-1.797 1.826-3.574 2.432-5.332a39.625 39.625 0 001.406-5.127c.332-1.66.557-3.291.674-4.892.117-1.602.176-3.145.176-4.629v-3.047c-1.406-.312-2.481-.947-3.223-1.904s-1.113-2.061-1.113-3.311c0-.234.019-.488.058-.762.039-.273.098-.527.176-.761h-.351c-2.735 0-4.786-.684-6.153-2.051s-2.05-3.086-2.05-5.156c0-1.992.742-3.653 2.226-4.981 1.484-1.328 3.535-2.07 6.152-2.226-.586-.938-1.054-2.012-1.406-3.223a13.828 13.828 0 01-.527-3.867c0-1.875.332-3.584.996-5.127.664-1.543 1.572-2.871 2.725-3.984 1.152-1.114 2.509-1.983 4.072-2.608 1.562-.625 3.242-.937 5.039-.937h.762c1.796 0 3.476.312 5.039.937 1.562.625 2.92 1.494 4.072 2.608 1.152 1.113 2.06 2.441 2.725 3.984.664 1.543.996 3.252.996 5.127 0 1.367-.176 2.656-.528 3.867-.351 1.211-.82 2.285-1.406 3.223 2.617.156 4.668.898 6.152 2.226 1.485 1.328 2.227 2.989 2.227 4.981 0 2.07-.684 3.789-2.051 5.156-1.367 1.367-3.418 2.051-6.152 2.051h-.352c.078.234.137.488.176.761.039.274.059.528.059.762 0 1.25-.371 2.354-1.114 3.311-.742.957-1.816 1.592-3.222 1.904v3.047a63.6 63.6 0 00.175 4.629c.118 1.601.342 3.232.674 4.892.332 1.661.801 3.37 1.407 5.127.605 1.758 1.416 3.535 2.431 5.332h.352c1.054 0 1.972.157 2.754.469.781.313 1.416.713 1.904 1.201a4.947 4.947 0 011.113 1.7 5.46 5.46 0 01.381 2.021c0 .547-.098 1.016-.293 1.406h.41c4.141 0 7.1 1.074 8.877 3.223 1.778 2.148 2.666 5.195 2.666 9.141v2.109h-59.707z" fill="#fff"/><path d="M330.117 902.129v-2.109c0-1.993.215-3.75.645-5.274.429-1.523 1.103-2.812 2.021-3.867.918-1.055 2.11-1.856 3.574-2.402 1.465-.547 3.233-.821 5.303-.821h.41c-.195-.39-.293-.859-.293-1.406 0-.703.127-1.377.381-2.021a4.947 4.947 0 011.113-1.7c.489-.488 1.124-.888 1.905-1.201.781-.312 1.699-.469 2.754-.469h.351c1.016-1.797 1.826-3.574 2.432-5.332a39.625 39.625 0 001.406-5.127c.332-1.66.557-3.291.674-4.892.117-1.602.176-3.145.176-4.629v-3.047c-1.406-.312-2.481-.947-3.223-1.904s-1.113-2.061-1.113-3.311c0-.234.019-.488.058-.762.039-.273.098-.527.176-.761h-.351c-2.735 0-4.786-.684-6.153-2.051s-2.05-3.086-2.05-5.156c0-1.992.742-3.653 2.226-4.981 1.484-1.328 3.535-2.07 6.152-2.226-.586-.938-1.054-2.012-1.406-3.223a13.828 13.828 0 01-.527-3.867c0-1.875.332-3.584.996-5.127.664-1.543 1.572-2.871 2.725-3.984 1.152-1.114 2.509-1.983 4.072-2.608 1.562-.625 3.242-.937 5.039-.937h.762c1.796 0 3.476.312 5.039.937 1.562.625 2.92 1.494 4.072 2.608 1.152 1.113 2.06 2.441 2.725 3.984.664 1.543.996 3.252.996 5.127 0 1.367-.176 2.656-.528 3.867-.351 1.211-.82 2.285-1.406 3.223 2.617.156 4.668.898 6.152 2.226 1.485 1.328 2.227 2.989 2.227 4.981 0 2.07-.684 3.789-2.051 5.156-1.367 1.367-3.418 2.051-6.152 2.051h-.352c.078.234.137.488.176.761.039.274.059.528.059.762 0 1.25-.371 2.354-1.114 3.311-.742.957-1.816 1.592-3.222 1.904v3.047a63.6 63.6 0 00.175 4.629c.118 1.601.342 3.232.674 4.892.332 1.661.801 3.37 1.407 5.127.605 1.758 1.416 3.535 2.431 5.332h.352c1.054 0 1.972.157 2.754.469.781.313 1.416.713 1.904 1.201a4.947 4.947 0 011.113 1.7 5.46 5.46 0 01.381 2.021c0 .547-.098 1.016-.293 1.406h.41c4.141 0 7.1 1.074 8.877 3.223 1.778 2.148 2.666 5.195 2.666 9.141v2.109h-59.707zm11.485-10.488c-2.539 0-4.317.576-5.332 1.728-1.016 1.152-1.563 2.705-1.641 4.658h50.684c-.079-1.953-.625-3.506-1.641-4.658-1.016-1.152-2.793-1.728-5.332-1.728h-36.738zm9.199-62.051c0 1.445.273 2.783.82 4.014.547 1.23 1.309 2.255 2.285 3.076h12.129c.977-.821 1.738-1.846 2.285-3.076.547-1.231.821-2.569.821-4.014 0-1.328-.215-2.539-.645-3.633a8.676 8.676 0 00-1.787-2.842c-.762-.801-1.689-1.416-2.783-1.845-1.094-.43-2.285-.645-3.574-.645h-.762c-1.289 0-2.481.215-3.574.645-1.094.429-2.022 1.044-2.784 1.845a8.693 8.693 0 00-1.787 2.842c-.429 1.094-.644 2.305-.644 3.633zm-6.094 14.297c0 1.015.313 1.816.938 2.402.625.586 1.562.879 2.812.879h23.027c1.25 0 2.188-.293 2.813-.879.625-.586.937-1.387.937-2.402 0-1.016-.312-1.807-.937-2.373-.625-.567-1.563-.85-2.813-.85h-23.027c-1.25 0-2.187.283-2.812.85-.625.566-.938 1.357-.938 2.373zm12.363 16.933c0 3.711-.351 7.295-1.054 10.752-.704 3.457-1.68 6.553-2.93 9.287h13.769c-1.25-2.734-2.226-5.83-2.929-9.287-.703-3.457-1.055-7.041-1.055-10.752v-2.871h-5.801v2.871zm14.825 26.836c1.21 0 1.816-.449 1.816-1.347 0-.977-.606-1.465-1.816-1.465h-23.848c-1.211 0-1.817.488-1.817 1.465 0 .898.606 1.347 1.817 1.347h23.848zm-18.809-35.097c0 .937.625 1.406 1.875 1.406h10.019c1.25 0 1.875-.469 1.875-1.406 0-.977-.625-1.465-1.875-1.465h-10.019c-1.25 0-1.875.488-1.875 1.465z"/><path fill="none" d="M310 810h100v100H310z"/><path d="M530.117 902.129v-2.109c0-1.993.215-3.75.645-5.274.429-1.523 1.103-2.812 2.021-3.867.918-1.055 2.11-1.856 3.574-2.402 1.465-.547 3.233-.821 5.303-.821h.41c-.195-.39-.293-.859-.293-1.406 0-.703.127-1.377.381-2.021a4.947 4.947 0 011.113-1.7c.489-.488 1.124-.888 1.905-1.201.781-.312 1.699-.469 2.754-.469h.351c1.016-1.797 1.826-3.574 2.432-5.332a39.625 39.625 0 001.406-5.127c.332-1.66.557-3.291.674-4.892.117-1.602.176-3.145.176-4.629v-3.047c-1.406-.312-2.481-.947-3.223-1.904s-1.113-2.061-1.113-3.311c0-.234.019-.488.058-.762.039-.273.098-.527.176-.761h-.351c-2.735 0-4.786-.684-6.153-2.051s-2.05-3.086-2.05-5.156c0-1.992.742-3.653 2.226-4.981 1.484-1.328 3.535-2.07 6.152-2.226-.586-.938-1.054-2.012-1.406-3.223a13.828 13.828 0 01-.527-3.867c0-1.875.332-3.584.996-5.127.664-1.543 1.572-2.871 2.725-3.984 1.152-1.114 2.509-1.983 4.072-2.608 1.562-.625 3.242-.937 5.039-.937h.762c1.796 0 3.476.312 5.039.937 1.562.625 2.92 1.494 4.072 2.608 1.152 1.113 2.06 2.441 2.725 3.984.664 1.543.996 3.252.996 5.127 0 1.367-.176 2.656-.528 3.867-.351 1.211-.82 2.285-1.406 3.223 2.617.156 4.668.898 6.152 2.226 1.485 1.328 2.227 2.989 2.227 4.981 0 2.07-.684 3.789-2.051 5.156-1.367 1.367-3.418 2.051-6.152 2.051h-.352c.078.234.137.488.176.761.039.274.059.528.059.762 0 1.25-.371 2.354-1.114 3.311-.742.957-1.816 1.592-3.222 1.904v3.047a63.6 63.6 0 00.175 4.629c.118 1.601.342 3.232.674 4.892.332 1.661.801 3.37 1.407 5.127.605 1.758 1.416 3.535 2.431 5.332h.352c1.054 0 1.972.157 2.754.469.781.313 1.416.713 1.904 1.201a4.947 4.947 0 011.113 1.7 5.46 5.46 0 01.381 2.021c0 .547-.098 1.016-.293 1.406h.41c4.141 0 7.1 1.074 8.877 3.223 1.778 2.148 2.666 5.195 2.666 9.141v2.109h-59.707z" fill="#fff"/><path d="M530.117 902.129v-2.109c0-1.993.215-3.75.645-5.274.429-1.523 1.103-2.812 2.021-3.867.918-1.055 2.11-1.856 3.574-2.402 1.465-.547 3.233-.821 5.303-.821h.41c-.195-.39-.293-.859-.293-1.406 0-.703.127-1.377.381-2.021a4.947 4.947 0 011.113-1.7c.489-.488 1.124-.888 1.905-1.201.781-.312 1.699-.469 2.754-.469h.351c1.016-1.797 1.826-3.574 2.432-5.332a39.625 39.625 0 001.406-5.127c.332-1.66.557-3.291.674-4.892.117-1.602.176-3.145.176-4.629v-3.047c-1.406-.312-2.481-.947-3.223-1.904s-1.113-2.061-1.113-3.311c0-.234.019-.488.058-.762.039-.273.098-.527.176-.761h-.351c-2.735 0-4.786-.684-6.153-2.051s-2.05-3.086-2.05-5.156c0-1.992.742-3.653 2.226-4.981 1.484-1.328 3.535-2.07 6.152-2.226-.586-.938-1.054-2.012-1.406-3.223a13.828 13.828 0 01-.527-3.867c0-1.875.332-3.584.996-5.127.664-1.543 1.572-2.871 2.725-3.984 1.152-1.114 2.509-1.983 4.072-2.608 1.562-.625 3.242-.937 5.039-.937h.762c1.796 0 3.476.312 5.039.937 1.562.625 2.92 1.494 4.072 2.608 1.152 1.113 2.06 2.441 2.725 3.984.664 1.543.996 3.252.996 5.127 0 1.367-.176 2.656-.528 3.867-.351 1.211-.82 2.285-1.406 3.223 2.617.156 4.668.898 6.152 2.226 1.485 1.328 2.227 2.989 2.227 4.981 0 2.07-.684 3.789-2.051 5.156-1.367 1.367-3.418 2.051-6.152 2.051h-.352c.078.234.137.488.176.761.039.274.059.528.059.762 0 1.25-.371 2.354-1.114 3.311-.742.957-1.816 1.592-3.222 1.904v3.047a63.6 63.6 0 00.175 4.629c.118 1.601.342 3.232.674 4.892.332 1.661.801 3.37 1.407 5.127.605 1.758 1.416 3.535 2.431 5.332h.352c1.054 0 1.972.157 2.754.469.781.313 1.416.713 1.904 1.201a4.947 4.947 0 011.113 1.7 5.46 5.46 0 01.381 2.021c0 .547-.098 1.016-.293 1.406h.41c4.141 0 7.1 1.074 8.877 3.223 1.778 2.148 2.666 5.195 2.666 9.141v2.109h-59.707zm11.485-10.488c-2.539 0-4.317.576-5.332 1.728-1.016 1.152-1.563 2.705-1.641 4.658h50.684c-.079-1.953-.625-3.506-1.641-4.658-1.016-1.152-2.793-1.728-5.332-1.728h-36.738zm9.199-62.051c0 1.445.273 2.783.82 4.014.547 1.23 1.309 2.255 2.285 3.076h12.129c.977-.821 1.738-1.846 2.285-3.076.547-1.231.821-2.569.821-4.014 0-1.328-.215-2.539-.645-3.633a8.676 8.676 0 00-1.787-2.842c-.762-.801-1.689-1.416-2.783-1.845-1.094-.43-2.285-.645-3.574-.645h-.762c-1.289 0-2.481.215-3.574.645-1.094.429-2.022 1.044-2.784 1.845a8.693 8.693 0 00-1.787 2.842c-.429 1.094-.644 2.305-.644 3.633zm-6.094 14.297c0 1.015.313 1.816.938 2.402.625.586 1.562.879 2.812.879h23.027c1.25 0 2.188-.293 2.813-.879.625-.586.937-1.387.937-2.402 0-1.016-.312-1.807-.937-2.373-.625-.567-1.563-.85-2.813-.85h-23.027c-1.25 0-2.187.283-2.812.85-.625.566-.938 1.357-.938 2.373zm12.363 16.933c0 3.711-.351 7.295-1.054 10.752-.703 3.457-1.68 6.553-2.93 9.287h13.769c-1.25-2.734-2.226-5.83-2.929-9.287-.703-3.457-1.055-7.041-1.055-10.752v-2.871h-5.801v2.871zm14.825 26.836c1.21 0 1.816-.449 1.816-1.347 0-.977-.606-1.465-1.816-1.465h-23.848c-1.211 0-1.817.488-1.817 1.465 0 .898.606 1.347 1.817 1.347h23.848zm-18.809-35.097c0 .937.625 1.406 1.875 1.406h10.019c1.25 0 1.875-.469 1.875-1.406 0-.977-.625-1.465-1.875-1.465h-10.019c-1.25 0-1.875.488-1.875 1.465z"/><path fill="none" d="M510 810h100v100H510z"/><path d="M240.547 1002.13c-.43-1.094-.82-2.402-1.172-3.926-.352-1.523-.527-3.496-.527-5.918 0-2.969.547-5.644 1.64-8.027a29.22 29.22 0 014.102-6.533 49.175 49.175 0 015.361-5.508 125.426 125.426 0 005.362-4.981c1.64-1.621 3.007-3.252 4.101-4.892 1.094-1.641 1.641-3.418 1.641-5.332-1.211 1.211-2.784 2.256-4.717 3.134-1.934.879-4.483 1.397-7.647 1.553a22.88 22.88 0 01-3.574 2.168 28.492 28.492 0 01-3.867 1.524c-1.211 1.367-2.471 2.47-3.779 3.31-1.309.84-2.647 1.26-4.014 1.26a7.764 7.764 0 01-3.164-.645 9.554 9.554 0 01-2.666-1.757 11.069 11.069 0 01-2.051-2.579 11.943 11.943 0 01-1.26-3.105 6.554 6.554 0 01-.966-2.314 11.856 11.856 0 01-.264-2.432c0-.625.195-1.279.586-1.963.391-.684.859-1.338 1.406-1.963a13.29 13.29 0 011.699-1.64c.586-.469 1.094-.821 1.524-1.055a200.762 200.762 0 013.545-4.571 87.655 87.655 0 013.047-3.603 98.272 98.272 0 013.105-3.311 108.51 108.51 0 013.838-3.691 3.633 3.633 0 01-.117-.879c0-1.211.254-2.285.761-3.223a8.982 8.982 0 011.905-2.431 10.258 10.258 0 012.519-1.67 17.49 17.49 0 012.608-.996c0-.821-.02-1.592-.059-2.315a25.409 25.409 0 00-.205-2.138 64.276 64.276 0 00-.352-2.227c-.136-.781-.302-1.68-.498-2.695l1.758-.762c.586.274 1.25.654 1.992 1.143a20.906 20.906 0 012.256 1.728 18.955 18.955 0 012.198 2.285c.703.86 1.328 1.778 1.875 2.754l.585-.117c.313-1.484.557-3.047.733-4.687.176-1.641.322-3.438.439-5.391l2.403-.469a34.06 34.06 0 012.607 2.666c.879.996 1.719 2.1 2.52 3.311a34.031 34.031 0 012.256 4.013 28.684 28.684 0 011.757 4.717 66.754 66.754 0 002.022 2.403c.722.82 1.514 1.699 2.373 2.636.859.938 1.787 1.953 2.783 3.047s2.08 2.324 3.252 3.692c1.563 1.835 3.213 4.189 4.951 7.06 1.738 2.871 3.321 6.035 4.746 9.492a76.822 76.822 0 013.545 10.869c.938 3.789 1.406 7.5 1.406 11.133 0 2.383-.039 4.483-.117 6.299a92.21 92.21 0 01-.381 5.332 133.91 133.91 0 01-.673 5.479c-.274 1.914-.606 4.16-.997 6.738h-54.14z" fill="#fff"/><path d="M274.707 939.785c2.813 3.125 5.332 6.719 7.559 10.781a81.599 81.599 0 012.783 5.801 58.557 58.557 0 012.461 6.856c.722 2.461 1.299 5.097 1.728 7.91.43 2.812.645 5.781.645 8.906a67.3 67.3 0 01-.352 6.768 61.488 61.488 0 01-1.172 7.177h-6.738a80.939 80.939 0 001.377-5.507c.371-1.758.674-3.487.908-5.186.235-1.699.401-3.389.498-5.068.098-1.68.147-3.418.147-5.215 0-5.899-.821-11.533-2.461-16.904-1.641-5.372-4.102-10.811-7.383-16.319zm-39.258 15.82l.059.352a17.79 17.79 0 00-2.813 1.963c-.898.762-1.836 1.318-2.812 1.67-.313-.274-.606-.645-.879-1.113a4.153 4.153 0 01-.527-1.524l6.972-1.348zm19.746-30.878c-.39-.782-.84-1.553-1.347-2.315-.508-.762-1.211-1.475-2.11-2.139l-.176.059c.235.781.391 1.582.469 2.402.078.821.137 1.739.176 2.754l2.988-.761zm8.965 22.441c.43 1.289.772 2.607 1.026 3.955.253 1.348.38 2.725.38 4.131 0 2.695-.546 5.078-1.64 7.148a27.93 27.93 0 01-4.102 5.801 63.805 63.805 0 01-5.332 5.186 61.222 61.222 0 00-5.332 5.215 27.96 27.96 0 00-4.101 5.888c-1.094 2.11-1.641 4.531-1.641 7.266 0 1.367.078 2.558.234 3.574.157 1.016.332 1.914.528 2.695h46.816c.234-1.523.449-2.988.645-4.394.195-1.406.371-2.871.527-4.395.156-1.523.273-3.154.352-4.892.078-1.739.117-3.701.117-5.889 0-2.852-.283-5.859-.85-9.023a60.66 60.66 0 00-2.549-9.551 65.27 65.27 0 00-4.218-9.434 54.525 54.525 0 00-5.801-8.613 156.596 156.596 0 00-5.01-5.772 878.33 878.33 0 00-2.549-2.783 182.29 182.29 0 01-2.988-3.34 24.473 24.473 0 00-2.344-6.503c-1.094-2.071-2.246-3.75-3.457-5.04h-.351l-.381 4.014c-.137 1.426-.362 2.725-.674 3.897-.781.234-1.729.439-2.842.615s-2.275.39-3.486.644a49.191 49.191 0 00-3.633.909c-1.211.351-2.295.8-3.252 1.347-.957.547-1.738 1.221-2.344 2.022-.605.8-.908 1.767-.908 2.9a6.442 6.442 0 00.234 1.699c-3.047 2.696-5.781 5.479-8.203 8.35-2.422 2.871-4.531 5.498-6.328 7.881-.469.351-.937.713-1.406 1.084-.469.371-.899.752-1.289 1.142a6.665 6.665 0 00-.967 1.202c-.254.41-.381.81-.381 1.201 0 .547.098 1.093.293 1.64.195.547.43 1.035.703 1.465.586 2.188 1.416 3.711 2.49 4.57a5.704 5.704 0 003.663 1.29c.937 0 1.894-.323 2.871-.967.976-.645 1.914-1.651 2.812-3.018.82-.312 1.582-.605 2.285-.879a39.199 39.199 0 002.022-.849 15.754 15.754 0 001.933-1.055 25.26 25.26 0 002.08-1.494c1.641 0 3.292-.283 4.952-.85 1.66-.566 3.154-1.328 4.482-2.285a12.326 12.326 0 003.252-3.428c.84-1.328 1.26-2.754 1.26-4.277h2.402zm-23.613 54.961c-.43-1.094-.82-2.402-1.172-3.926-.352-1.523-.527-3.496-.527-5.918 0-2.969.547-5.644 1.64-8.027a29.22 29.22 0 014.102-6.533 49.175 49.175 0 015.361-5.508 124.782 124.782 0 005.361-4.981c1.641-1.621 3.008-3.252 4.102-4.892 1.094-1.641 1.641-3.418 1.641-5.332-1.211 1.211-2.784 2.256-4.717 3.134-1.934.879-4.483 1.397-7.647 1.553a22.88 22.88 0 01-3.574 2.168 28.492 28.492 0 01-3.867 1.524c-1.211 1.367-2.471 2.47-3.779 3.31-1.309.84-2.647 1.26-4.014 1.26a7.764 7.764 0 01-3.164-.645 9.554 9.554 0 01-2.666-1.757 11.069 11.069 0 01-2.051-2.579 11.943 11.943 0 01-1.26-3.105 6.554 6.554 0 01-.966-2.314 11.856 11.856 0 01-.264-2.432c0-.625.195-1.279.586-1.963.391-.684.859-1.338 1.406-1.963a13.29 13.29 0 011.699-1.64c.586-.469 1.094-.821 1.524-1.055a200.762 200.762 0 013.545-4.571 87.655 87.655 0 013.047-3.603 98.272 98.272 0 013.105-3.311 108.51 108.51 0 013.838-3.691 3.633 3.633 0 01-.117-.879c0-1.211.254-2.285.761-3.223a8.982 8.982 0 011.905-2.431 10.258 10.258 0 012.519-1.67 17.49 17.49 0 012.608-.996c0-.821-.02-1.592-.059-2.315a25.409 25.409 0 00-.205-2.138 64.276 64.276 0 00-.352-2.227c-.136-.781-.302-1.68-.498-2.695l1.758-.762c.586.274 1.25.654 1.992 1.143a20.906 20.906 0 012.256 1.728 18.955 18.955 0 012.198 2.285c.703.86 1.328 1.778 1.875 2.754l.585-.117c.313-1.484.557-3.047.733-4.687.176-1.641.322-3.438.439-5.391l2.403-.469a34.06 34.06 0 012.607 2.666c.879.996 1.719 2.1 2.52 3.311a34.031 34.031 0 012.256 4.013 28.684 28.684 0 011.757 4.717 66.754 66.754 0 002.022 2.403c.722.82 1.514 1.699 2.373 2.636.859.938 1.787 1.953 2.783 3.047s2.08 2.324 3.252 3.692c1.563 1.835 3.213 4.189 4.951 7.06 1.738 2.871 3.321 6.035 4.746 9.492a76.822 76.822 0 013.545 10.869c.938 3.789 1.406 7.5 1.406 11.133 0 2.383-.039 4.483-.117 6.299a92.21 92.21 0 01-.381 5.332 133.91 133.91 0 01-.673 5.479c-.274 1.914-.606 4.16-.997 6.738h-54.14zm7.793-64.16c-.195-.508-.293-.938-.293-1.289 0-.508.137-.918.41-1.231.273-.312.606-.547.996-.703.391-.156.82-.254 1.289-.293.469-.039.879-.058 1.231-.058.898 0 1.826.068 2.783.205.957.136 1.787.205 2.49.205a7.1 7.1 0 01-1.846 1.406c-.722.391-1.494.723-2.314.996-.82.273-1.641.469-2.461.586-.82.117-1.582.176-2.285.176z"/><path fill="none" d="M210 910h100v100H210z"/><path d="M440.547 1002.13c-.43-1.094-.82-2.402-1.172-3.926-.352-1.523-.527-3.496-.527-5.918 0-2.969.547-5.644 1.64-8.027a29.22 29.22 0 014.102-6.533 49.175 49.175 0 015.361-5.508 125.426 125.426 0 005.362-4.981c1.64-1.621 3.007-3.252 4.101-4.892 1.094-1.641 1.641-3.418 1.641-5.332-1.211 1.211-2.784 2.256-4.717 3.134-1.934.879-4.483 1.397-7.647 1.553a22.88 22.88 0 01-3.574 2.168 28.492 28.492 0 01-3.867 1.524c-1.211 1.367-2.471 2.47-3.779 3.31-1.309.84-2.647 1.26-4.014 1.26a7.764 7.764 0 01-3.164-.645 9.554 9.554 0 01-2.666-1.757 11.069 11.069 0 01-2.051-2.579 11.943 11.943 0 01-1.26-3.105 6.554 6.554 0 01-.966-2.314 11.856 11.856 0 01-.264-2.432c0-.625.195-1.279.586-1.963.391-.684.859-1.338 1.406-1.963a13.29 13.29 0 011.699-1.64c.586-.469 1.094-.821 1.524-1.055a200.762 200.762 0 013.545-4.571 87.655 87.655 0 013.047-3.603 98.272 98.272 0 013.105-3.311 108.51 108.51 0 013.838-3.691 3.633 3.633 0 01-.117-.879c0-1.211.254-2.285.761-3.223a8.982 8.982 0 011.905-2.431 10.258 10.258 0 012.519-1.67 17.49 17.49 0 012.608-.996c0-.821-.02-1.592-.059-2.315a25.409 25.409 0 00-.205-2.138 64.276 64.276 0 00-.352-2.227c-.136-.781-.302-1.68-.498-2.695l1.758-.762c.586.274 1.25.654 1.992 1.143a20.906 20.906 0 012.256 1.728 18.955 18.955 0 012.198 2.285c.703.86 1.328 1.778 1.875 2.754l.585-.117c.313-1.484.557-3.047.733-4.687.176-1.641.322-3.438.439-5.391l2.403-.469a34.06 34.06 0 012.607 2.666c.879.996 1.719 2.1 2.52 3.311a34.031 34.031 0 012.256 4.013 28.684 28.684 0 011.757 4.717 66.754 66.754 0 002.022 2.403c.722.82 1.514 1.699 2.373 2.636.859.938 1.787 1.953 2.783 3.047s2.08 2.324 3.252 3.692c1.563 1.835 3.213 4.189 4.951 7.06 1.738 2.871 3.321 6.035 4.746 9.492a76.822 76.822 0 013.545 10.869c.938 3.789 1.406 7.5 1.406 11.133 0 2.383-.039 4.483-.117 6.299a92.21 92.21 0 01-.381 5.332 133.91 133.91 0 01-.673 5.479c-.274 1.914-.606 4.16-.997 6.738h-54.14z" fill="#fff"/><path d="M474.707 939.785c2.813 3.125 5.332 6.719 7.559 10.781a81.599 81.599 0 012.783 5.801 58.557 58.557 0 012.461 6.856c.722 2.461 1.299 5.097 1.728 7.91.43 2.812.645 5.781.645 8.906a67.3 67.3 0 01-.352 6.768 61.488 61.488 0 01-1.172 7.177h-6.738a80.939 80.939 0 001.377-5.507c.371-1.758.674-3.487.908-5.186.235-1.699.401-3.389.498-5.068.098-1.68.147-3.418.147-5.215 0-5.899-.821-11.533-2.461-16.904-1.641-5.372-4.102-10.811-7.383-16.319zm-39.258 15.82l.059.352a17.79 17.79 0 00-2.813 1.963c-.898.762-1.836 1.318-2.812 1.67-.313-.274-.606-.645-.879-1.113a4.153 4.153 0 01-.527-1.524l6.972-1.348zm19.746-30.878c-.39-.782-.84-1.553-1.347-2.315-.508-.762-1.211-1.475-2.11-2.139l-.176.059c.235.781.391 1.582.469 2.402.078.821.137 1.739.176 2.754l2.988-.761zm8.965 22.441c.43 1.289.772 2.607 1.026 3.955.253 1.348.38 2.725.38 4.131 0 2.695-.546 5.078-1.64 7.148a27.93 27.93 0 01-4.102 5.801 63.805 63.805 0 01-5.332 5.186 61.222 61.222 0 00-5.332 5.215 27.96 27.96 0 00-4.101 5.888c-1.094 2.11-1.641 4.531-1.641 7.266 0 1.367.078 2.558.234 3.574.157 1.016.332 1.914.528 2.695h46.816c.234-1.523.449-2.988.645-4.394.195-1.406.371-2.871.527-4.395.156-1.523.273-3.154.352-4.892.078-1.739.117-3.701.117-5.889 0-2.852-.283-5.859-.85-9.023a60.66 60.66 0 00-2.549-9.551 65.27 65.27 0 00-4.218-9.434 54.525 54.525 0 00-5.801-8.613 156.596 156.596 0 00-5.01-5.772 878.33 878.33 0 00-2.549-2.783 182.29 182.29 0 01-2.988-3.34 24.473 24.473 0 00-2.344-6.503c-1.094-2.071-2.246-3.75-3.457-5.04h-.351l-.381 4.014c-.137 1.426-.362 2.725-.674 3.897-.781.234-1.729.439-2.842.615s-2.275.39-3.486.644a49.191 49.191 0 00-3.633.909c-1.211.351-2.295.8-3.252 1.347-.957.547-1.738 1.221-2.344 2.022-.605.8-.908 1.767-.908 2.9a6.442 6.442 0 00.234 1.699c-3.047 2.696-5.781 5.479-8.203 8.35-2.422 2.871-4.531 5.498-6.328 7.881-.469.351-.937.713-1.406 1.084-.469.371-.899.752-1.289 1.142a6.665 6.665 0 00-.967 1.202c-.254.41-.381.81-.381 1.201 0 .547.098 1.093.293 1.64.195.547.43 1.035.703 1.465.586 2.188 1.416 3.711 2.49 4.57a5.704 5.704 0 003.663 1.29c.937 0 1.894-.323 2.871-.967.976-.645 1.914-1.651 2.812-3.018.82-.312 1.582-.605 2.285-.879a39.199 39.199 0 002.022-.849 15.754 15.754 0 001.933-1.055 25.26 25.26 0 002.08-1.494c1.641 0 3.292-.283 4.952-.85 1.66-.566 3.154-1.328 4.482-2.285a12.326 12.326 0 003.252-3.428c.84-1.328 1.26-2.754 1.26-4.277h2.402zm-23.613 54.961c-.43-1.094-.82-2.402-1.172-3.926-.352-1.523-.527-3.496-.527-5.918 0-2.969.547-5.644 1.64-8.027a29.22 29.22 0 014.102-6.533 49.175 49.175 0 015.361-5.508 124.782 124.782 0 005.361-4.981c1.641-1.621 3.008-3.252 4.102-4.892 1.094-1.641 1.641-3.418 1.641-5.332-1.211 1.211-2.784 2.256-4.717 3.134-1.934.879-4.483 1.397-7.647 1.553a22.88 22.88 0 01-3.574 2.168 28.492 28.492 0 01-3.867 1.524c-1.211 1.367-2.471 2.47-3.779 3.31-1.309.84-2.647 1.26-4.014 1.26a7.764 7.764 0 01-3.164-.645 9.554 9.554 0 01-2.666-1.757 11.069 11.069 0 01-2.051-2.579 11.943 11.943 0 01-1.26-3.105 6.554 6.554 0 01-.966-2.314 11.856 11.856 0 01-.264-2.432c0-.625.195-1.279.586-1.963.391-.684.859-1.338 1.406-1.963a13.29 13.29 0 011.699-1.64c.586-.469 1.094-.821 1.524-1.055a200.762 200.762 0 013.545-4.571 87.655 87.655 0 013.047-3.603 98.272 98.272 0 013.105-3.311 108.51 108.51 0 013.838-3.691 3.633 3.633 0 01-.117-.879c0-1.211.254-2.285.761-3.223a8.982 8.982 0 011.905-2.431 10.258 10.258 0 012.519-1.67 17.49 17.49 0 012.608-.996c0-.821-.02-1.592-.059-2.315a25.409 25.409 0 00-.205-2.138 64.276 64.276 0 00-.352-2.227c-.136-.781-.302-1.68-.498-2.695l1.758-.762c.586.274 1.25.654 1.992 1.143a20.906 20.906 0 012.256 1.728 18.955 18.955 0 012.198 2.285c.703.86 1.328 1.778 1.875 2.754l.585-.117c.313-1.484.557-3.047.733-4.687.176-1.641.322-3.438.439-5.391l2.403-.469a34.06 34.06 0 012.607 2.666c.879.996 1.719 2.1 2.52 3.311a34.031 34.031 0 012.256 4.013 28.684 28.684 0 011.757 4.717 66.754 66.754 0 002.022 2.403c.722.82 1.514 1.699 2.373 2.636.859.938 1.787 1.953 2.783 3.047s2.08 2.324 3.252 3.692c1.563 1.835 3.213 4.189 4.951 7.06 1.738 2.871 3.321 6.035 4.746 9.492a76.822 76.822 0 013.545 10.869c.938 3.789 1.406 7.5 1.406 11.133 0 2.383-.039 4.483-.117 6.299a92.21 92.21 0 01-.381 5.332 133.91 133.91 0 01-.673 5.479c-.274 1.914-.606 4.16-.997 6.738h-54.14zm7.793-64.16c-.195-.508-.293-.938-.293-1.289 0-.508.137-.918.41-1.231.273-.312.606-.547.996-.703.391-.156.82-.254 1.289-.293.469-.039.879-.058 1.231-.058.898 0 1.826.068 2.783.205.957.136 1.787.205 2.49.205a7.1 7.1 0 01-1.846 1.406c-.722.391-1.494.723-2.314.996-.82.273-1.641.469-2.461.586-.82.117-1.582.176-2.285.176z"/><path fill="none" d="M410 910h100v100H410z"/><path d="M354.156 52.781l5.813-16.906 5.875 16.906h17.687l-14.062 11.094 5.469 16.813-14.969-9.969-14.906 9.968 5.468-16.812-14.062-11.094h17.687z" fill="#fff"/><path d="M365.844 52.781h17.687l-14.062 11.094 5.469 16.813-14.969-9.969-14.906 9.968 5.468-16.812-14.062-11.094h17.687l5.813-16.906 5.875 16.906zm-9.547 3h-11.182l8.916 7.034-3.436 10.564 9.37-6.267 9.449 6.292-3.445-10.589 8.916-7.034H363.71l-3.726-10.723-3.687 10.723z"/><path fill="none" d="M310 10h100v100H310z"/><path d="M354.156 1252.78l5.813-16.906 5.875 16.906h17.687l-14.062 11.094 5.469 16.813-14.969-9.969-14.906 9.968 5.468-16.812-14.062-11.094h17.687z" fill="#8c8c8c"/><path d="M365.844 1252.78h17.687l-14.062 11.094 5.469 16.813-14.969-9.969-14.906 9.968 5.468-16.812-14.062-11.094h17.687l5.813-16.906 5.875 16.906zm-9.547 3h-11.182l8.916 7.034-3.436 10.564 9.37-6.267 9.449 6.292-3.445-10.589 8.916-7.034H363.71l-3.726-10.723-3.687 10.723z"/><path fill="none" d="M310 1210h100v100H310z"/></svg>