<svg xmlns="http://www.w3.org/2000/svg" width="976" height="1600"><defs><clipPath id="clip-path"><path d="M960 22v1556a6 6 0 01-6 6H22a6 6 0 01-6-6V22a6 6 0 016-6h932a6 6 0 016 6z" fill="none"/></clipPath><style>.cls-8{fill:#592116}</style></defs><path d="M960 22v1556a6 6 0 01-6 6H22a6 6 0 01-6-6V22a6 6 0 016-6h932a6 6 0 016 6z" fill="#f4f3ef" id="Paper_Backing" data-name="Paper Backing"/><g clip-path="url(#clip-path)" id="Wikipedia_Cropped" data-name="Wikipedia Cropped"><path d="M637.68 884.74c-43-37.85-94-89.53-103.18-150.79-14.1-.5-32.35-1.21-29.36-19.61-1.68-14.36-6.87-27.31-8.72-41.52.29-9-10.11-24.34-1-30 16.14-11.7 49.81-47.73 71.71-27.1 29.48 22.63 19.16 51.92 44.3 47 16 .66 70.48 10.79 47.52 35.41-17 21.09-49.1 96.62-30.22 117.83 13-8.54 8-31.72 17.82-48.86 13-23.82 29.07-89.17 62.9-77.65 18.28-4.74 8.11-51.45 38.93-51.17 52.6 4.07 88 12 130.74 33.43 14.84 6.35 12.09-12.2-.36-14.07-27.41-14.87-51.53-24.17-75.92-29.26-14.89-5-55.07-.63-41.88-26.71 67.07-108.18 172.21 26.55 196.13 104 2.25 5.12-5.25 5.28-5.82 9.64-1.85 8.7 21.06 18.31 9.29 25-63.63 7.42-127.78 40.36-192.27 25.61-14.75-1.75-1.31 25.81-21.47 40-30.96 30.76-73.31 53.33-109.14 78.82zm-146.42-266.1c-12.26-8.39-6.56-31.13-10.89-44.64 1.77-15.39-18.88-54.26 9.61-51.6 32.46 6.05 63.27 28.87 63.71 61.48-1.63 3.79-5.82 5.28-10.28 6.83-23.68 7.4-36.02 18.43-52.15 27.93zM660.5 599c-13-11.31-18.89-39.49-15.91-58.33-3.39-17.37 32.13-51.43 39.93-19.35.19 27.43-7.09 58.52-24.02 77.68zm72.09-42.15C719 537 718.52 504.53 715 479.37c-6-29.06 31.66-53.86 45.49-16.37 11.14 32.41-1.68 74-27.9 93.8zm-140-39.63c-19.3-12.12 27.56-56.65 38.05-58.56 60.05-9.48-14.64 58.19-38.08 58.51z" fill="#6060bf"/><path d="M703.45 1604a12 12 0 00-6.73 0c-4-4-171.24 8-169.46-4.51 12.2-15.62 4.3-40.16 7.94-60.88a596.74 596.74 0 0119.8-106.38c16.92-49.37 30-110.35 59-150.55 12.1-5.69 30.08-4 43.26-3.65 10.62-4.47 32.63-9.89 42.92-2.93-15.17 56.38-36.05 117.63-41.11 176.82-.08 27.48-16.81 68-1.76 80.18 20.41-40.85 27.21-91.23 55.91-133.77 50.82-96.09 116.66-178.73 211.81-234.37 100.59-64.39-.78 30-22.33 59.35-41.38 50.89-75.62 108.61-101.32 168.73-27 64.25-53.62 134.21-46.41 203.06 7.41 17.35-46.1 5.67-51.52 8.9zm-253.4 0c-48-.24-106.24 0-154.63 0-8.2-2.7-.09-18.28-2-25.5 1.58-32.64-5.14-64.11-6.33-96.6-2.89-43.55-10.13-87.15-18.81-130.16-79.24-85.54-157.64-160.52-258.36-192-10.6-12.22 15.74-5.72 21-5.32 70.18 1.76 137.67 32.57 194.33 60.34-9.49-55.89-53.8-106-86.31-152.15-17.3-25.94-48.56-49.32-66.36-74.3 14.75-5.47 32.74 13 42.4 18.37 256.61 157.64 277.44 602.2 280.14 407.14.18-110.4-10.81-195.84-34.36-315.1-7.73-52.18 42.82 65.13 50.4 70.14 9.09 21.56 28.1 37.86 32.5 61.29.44 4.35 4.68 4.55 7.85 5.67 6.92 5.83 11.57 14.71 17.55 21.66 29.85 35.45 35.6 43 35.66 90.87.84 44 3.47 87.78-.64 131.59 2.15 38.13-16 83.68-2.18 118 6.34 12.6-48.68 3.37-51.85 6.06zm-228.86 0c-5.74-3.06-54.53 7.58-48.52-7.7-2.75-82-23.44-154.59-62.67-225-3.09-12.45-67.75-85.84-24.18-58.83 82.68 48.3 147.54 132.77 169.63 224.3 5 20.28 7.45 43.91 9.07 65.36.63 3.99-41.62.93-43.33 1.87zm498.56-381.06c-11.79-10.38-17.74-29.58-25.64-42.38-12.43-11.73-17.76-25.75-5.81-38.76 71.79-106.93 161.09-197.8 269.51-261.95C843.47 1026 747.29 1153 719.75 1222.94zm-451.1-400.15C201.37 715.24 128.77 601.5 35.29 507.27c3.36-5.69 15.44 6.55 18.81 7.45C100 545.36 229 629.5 238.87 679.63c1.35 12 7.91 24.3 6.22 35.48-2.51 12.82 12.84 25.48 11.34 40.38-.89 20.51 22.72 51.97 12.22 67.3z" fill="#50b271"/><path d="M686.8 1001.29c-33.4-10.44-14.37-63.26-3.78-82-5.86-16.25-5.77-32.64-8.09-49.13-1.77-12.09 8.55-15 16.1-20.39 32.85-28.65 34 50.68 31.57 76.84-1.59 9.37-7.72 15.19.1 22.92-4.51 19.17-12.55 46.9-35.9 51.76zM200 975c-43.87-10.78-35.69-78-13.6-102.27-5.88-25.52-11.15-50.81.08-75.27 44.37-31.65 41.84 63.54 26.2 83.35 8.85 25.37 25.89 84.13-12.73 94.15zm429.14-140.31c-17.65-39.3 8.22-98.29 30.1-137.7 5.8-14.12 33.34-3.37 17.78 8.59-26.65 38.2-39.35 86.65-47.88 129.11zm276.52-151.81c-47.94-24.07-101-40-153-45.59-15.66-44.7 168.34 24.56 153 45.59zm-245.73-6.48c-8.21-4.11-13.15-9.23-22.54-10.35-5.74-3.29-21.12-1.69-22.15-6.87-1-13.44 20.08-40.84 35.44-38 9.57-.15 4.76-15.61 12.82-17.54 15.72 15.96 12.94 55.47-3.57 72.76zm57.17-9.18c-14.78-20.76-10.17-91.53 14.56-103.22 12.23 28.28 9.08 83.05-14.56 103.22zM594.89 650.6c-11.14-11.57-17.56-31-32.36-38-5.51.38-4.13-8.62-10.21-7.91-20.53 9.81-40.79 22-56 36-30.32-20.52 33.25-44.52 45.61-49.38 5.24-1.3 13.63 4 14.54-4.83-.59-12.36 21.82-80.75 35.76-69.25 3.68 22.55 1.69 42.53-6.09 61.09a6 6 0 002.35 7.4c8.51 17.28 18.35 48.94 6.4 64.88z" fill="#ffb85a"/><path d="M500.65 1290.93c-179.4-178.5-263.26-573.93-283.9-822.58-3.36-39.51-7.68-79.06-11.4-118.55 1.52-10-8.74-29.73 4.16-32.75 52.3 6.61 178.71 1.82 248.05 12.6 7.29 110.16 6.9 218.12 32 328.1 33.3 221.72 118.43 413.92 243.37 598.32 6 10-4.69 11.57-11.29 10.62-73 3.07-148.54 16.15-221 24.24z" fill="#d81e1e"/><path class="cls-8" d="M987.76 952.41c-1.69 18.92-30.91 15.81-26-7.31.65-16.83 28.45-10.3 26 7.31zm-3.54 182.75c2.59 6.44-5 9.56-8.22 13.88-11.22 11.34-22.61 22.5-33.53 34.13-19.14 22.64-38.4 45.52-56.7 68.85-19.32 31.66-41.37 62-58 95.12-22.34 47.45-45.22 95.47-57.25 146.94-4.53 22.84-7.27 45.92-12 68.6-2.13 10.11 1.42 20.39-3.09 30.07-1.14 2.46-2.47 2.22-4.41 2.35-2.24 0-2-1.67-2.18-3.25-2-16.89.89-33.37 3.9-49.88 6.1-50.58 21.22-99 42.36-145.39 37.95-95.07 102-178.89 171.89-252.47-113.4 58.81-191.71 143.12-250.24 256.16-32.29 56.74-54.42 119.54-56.6 185.17-.57 5.09-.46 13.57-7.07 13.17-4.82-.25-3.28-9-3.66-13.19-5.34-44.79-.67-89.64 5.72-134.06 7.59-58.43 20-115.87 41.39-170.86 2.87-5.88-5.42-4.54-6.27-4.54-36.11 2.48-33.89 3.36-43 34.36-19 47.41-27.12 98.56-36.65 148.68-4.36 42.35-7.61 85.79-8.16 127.85-12.23 39.34-6.16-71.62-5-76.14a850.94 850.94 0 0151.32-226.79c1.53-7.8-29.55.14-33.55 1.59-6.68 2.06-6.86 11.48-9.68 17.44-28.16 66-52.9 134.92-62.63 206.36-4.54 28.07-5.22 56.4-5.77 84.78-.21 4.2-3.81 4.76-5.91 5.39-1.56 0-2.26-2.92-2.4-5.17-1.66-25.41 2.6-50.53 3.32-75.77 9.31-78.49 37.61-154.58 68.72-226.72 4.66-9.15-2.95-6.56-6.77-6.63-17.76-.32-24.21 11.74-29.13 26.21a1006.27 1006.27 0 00-37.81 113.52c-11.5 40.38-20.3 81.45-24 123.32-1.49 14.29-1.34 28.74-2.3 43.09-.19 2.81.69 6.42-2.6 8.47-11.64-16.77-2.52-50.25-1.83-70.51 6.35-60.11 6.53-120.5 4.2-180.79-.63-15.87-2.87-31.69-3.53-47.56-.24-5.73-4.89-6.46-7.32-9.63-13.79-17.12-26.07-35.88-40.6-52.18 3.62 82.06 5.37 165.37 5.2 247.9.31 24.65-1.13 49.33-1.93 74-1.79 16.49 2.48 32.35-6.84 47.32-2-68.26 3.15-131.95.16-199.44-2.84-60.4 2-121.67-6.81-181.68-2.48-12.48-11.51-22.28-18.24-32.72-20.38-36.71-40-67.43-58.17-106.56 19.4 87.31 28.68 174.19 36.25 262.85.61 74.25-.77 148.51 3.55 222.71.37 15.17 2 33.78-8.66 46.09-4.52-27.49-.34-56.84-3.27-84.87-5.24-58.44-18.08-116.39-36.78-171.94-31.33-101.4-80.5-199.88-153.1-278.13-26.67-28.4-57.39-51.53-88.08-74.8-9.89-7.5-20.61-15.05-36.41-19.75 81.64 74.07 144.16 168.81 174.68 274.72a1255.5 1255.5 0 0132.51 147.69c8 46.48 8.28 93.7 14.06 140.38 1.93 15-1.07 29.72-.45 44.57-1.12 4.36-5.85 4-6-1.45 1.19-32.9-3.79-65.6-6.08-98.38-1.11-29.15-6.54-57.73-10.94-86.4-1.06-13.85-5-27.07-6.57-40.72-.88-7.63-5.29-13.57-9.25-19.09-43.41-57.82-97.88-108.63-160.35-145.28-25.61-16.29-52-31.37-81.2-40.28-4.91-1.75-9.8-4.83-9.11-9.51 1-6.08 8.67-4.88 12.64-5 71.56-.49 142.89 22.39 202.8 61.32-44-96.78-104.13-197-201.35-247.32 29.16-12.46 149.16 67.17 181.83 109-3.95-25.29-13.46-46.61-13.86-71.7-7-44.54-36.24-47.63-21.66-104.37 2.57-11.75 13.45-21.59 10.68-33.88-4.1-23.24-11.42-60 9-77.14 51.2-18.19 47 64 31 92.59-3.42 7.88 4.53 14.67 5.81 22.51 16.85 72-17.08 54.67-4.23 93 9.2 47.24 13.12 98.44 35.37 141.52 24.21 35 46.31 71.39 63.56 110.34 34.29 69.8 55.9 141.09 72 217.85 3-127.39-8-254.38-37.33-378.37-5.52-32.5-18.44-62.51-30.89-92.73-13-36.93-26.58-74-36.52-111.84-28.69-85.14-84.9-157.38-134.34-231.26-25.49-35.83-51.16-71.38-82.57-102.38C52 530.1 32 515 11.48 500.44c-2.07-1.47-2.66-5-3.93-7.63 50.4 3 188.87 117 222.75 159-7.81-53.72-11.9-106.19-17.44-159.92C207.91 435.31 199 378.15 202 321.3c.59-3.9-3.73-10.35.63-11.29a76 76 0 0126.37-.57c35.56 3.17 150.75 9.4 201.55 11.44 11 .47 22.11-.14 33.15.25 4.49.15 2 4.76 2 6.35-.12 59.82 5.86 119.69 10.79 179.19-.09 6.93-2.83 12.21 10 11.09 30.1-2.26 56.52 22.36 69.64 47.89 4.32-18.54 16-33.6 24.4-50.34 6.26-12.5 10.77-25.91 19.36-37.19 9.37-15.42 44.56-41.13 58.24-19 4.21 8.68-2.1 15.27-6.05 21.21-12.93 19.43-30.67 32.95-53.7 38.79-5 .18 1.9 20.55 0 25.57-.77 10.09-1.4 21.27-6.14 29.7-5.67 10.08 2.84 13.88 5 20.34 6.34 19.37 7.88 38.92 3.92 58.92-.2 1-2.73 3.62.95 3.14 3-.38 7.27 2.49 8.75-1.65 5.65-15.77 14.71-29 29.63-36.76 6.39-2.92 23.16-13 14.42-20.82-16-23.88-22.92-59-5.34-83.35 10.31-17 40.3-15.82 39.65 8.57 1.06 27.46-11.84 51-20 76-1.55 4.74 2.87 11.53 4.79 17.29 6.78 20.26 4.06 39.51-6.41 57.76-1.33 2.32-1.32 4 .31 4.89 3.16 1.69 2.89 6.49 8.19 6.67 9.72.33 19.25-4.84 29.07-.52 11.09 4.88 6.15-4.27 5.34-7.22-3.82-13.85-2.54-28.13-4.4-42-1.95-25.4.76-52.82 18.05-72.86 6.06-6.3-1.76-12.36-2.83-18.33-4.73-33.15-29-86.47 9.63-105.89 8.52-3.92 17.46.85 24.57 7.5 29.64 31.11 10.35 84-15.75 111.27-8.2 8.41.63 17.94 1.72 26.83 2.05 16.62 2.49 32.94-1.81 49 10.78-4.45 15.17-12.05 15.67-24.26 7-58.89 90.75-65.52 126.8-29.12 22.2 18.42 41.63 40.2 53.79 67.38 14.7 29.71 31.39 58.9 37.25 92 .23 1.57.71 3.72-1.81 3.8-18.11.59-35.41 5.18-52.75 10-47.37 11.73-96.84 29.67-145.89 18.42-17.95-10.22 5 13.47-25.31 41.08a205.13 205.13 0 01-32.66 27.9c-4.34 3 1.58 7.57 3.07 10.66 17.62 39.25 18.34 114-11.24 146.55-24.53 24.29-23.76 57.59-35.59 86.27-3.79 9.18-5 19-9.23 28.25-3.77 8.27 4.35 15.29 7.85 22.77 11.58 24.75 15.18 2 19.36-3.73 20.34-27.68 40-55.84 62.29-82.08C807.12 984 873.71 928.46 945.35 881.5c6.29-4.12 13.44-7 20.32-10.12 4.57-2.1 7.93 1 10.33 3.83a2.36 2.36 0 010 3.67C953.21 900.42 933.5 925 913.36 949c-75.69 80-136.91 172.27-185 271.27-6.15 11.63 4.3 19 8.78 27.88 10.07 20 7.07 26.34-16 25.4-13.77-.55-15.19 7.14-18 15.79-27.75 75.13-38.2 155-46.47 234.27 13.34-62 43.67-117.61 76.75-170.94 28.67-54.24 69.41-100.19 115.68-140.12 22.38-18.65 110.39-85.9 135.12-77.39zm-393-623c1.57 2.78 3.49-.81 5.3-1.32 22.44-6.31 39.26-19.41 50.73-40.12 5.25-9.48 1.52-10.06-10.42-9.33-20.42 4.07-40.75 30.54-45.63 50.74zm-348.33 758c-8.33-16.82-7.15-37-25.39-50.65-61.72-44.4-131.4-56-206.22-63.51 105.45 37.47 183.75 103.65 250 187.11-2.29-11.21-3.61-22.18-6.9-32.53-3.16-10-2.84-21.94-10.94-29.4-27.23-24.83-56.35-48-88.15-66.67-9.13-5.35-19.1-9.3-26.85-17 45.82 12.43 79.49 43.73 114.37 73-.21.71.25-.01.06-.4zM193.2 883.91c.88 3.82 3.27 7.3 5 10.94 17.49-18.21 23.79-50.39 21-75.64-2.37-15.79-18.2-34.21-29.2-19.79-12.32 26.94-3.16 57.24 3.2 84.49zm9.11 86.7c26.71-10.89 17.26-57.79 10-79.5-5.65 6.11-9.69 17.63-19.31 13.08-5.24-2.48-6.56-13.25-9.71-20.42-17.19 18.99-15.06 88.43 19.02 86.84zm32.05 141.32c-9.9-45.47-18.57-81.84-23.15-126.6-1.83-15.28-10.88 5.3-13.65-3.27-5.68 1.14 1.5 28.17 1.68 33.84 3.67 19.5 9 38.76 11.47 58.39 2.04 15.89 17.1 21.08 23.65 37.64zm456 57.41c2.16 2.09 3.53 5 5.26 7.52 16.67-23.28 27.79-50.23 48.16-71 1.25-1.34 1.11-5.47 4.18-3.74.75.42.07 5.11-1.17 7.07-10.23 16.14-20.87 32-31.12 48.14-5.15 8.11-13.13 16.29-13.83 24.93-1.12 14 13.1 22.64 18.1 36.67 58.34-128.67 144.41-235.37 239.74-335.55C879.64 930 811 993.56 751.14 1063.74c-21 25.25-40.18 51.79-58.59 78.93-5.87 8.65-12.39 16.76-2.2 26.67zM688 1007.58c-2.39-4.16-10.45-1.24-14.33-7.29-6.89 21.1-15.51 41.59-24.13 62-7.32 16.08-7.18 32.89 6.56 45.14 7.65-29.57 16.78-58.81 28.39-87.14 1.7-4.16 5.06-10.01 3.51-12.71zM518.82 738.92c-.8.3-2.19-1-3.82-1.81 21.94 116.34 60.9 228.19 117.54 332.26 1.92 3.24 6.28 6.63 6.49.24 6.32-17.62 12.69-35.23 19.33-52.73 3.17-8.35 10.58-17 9.57-24.59-1.47-11.14-5.88-21.5-3.28-33.51 2.89-13.35 4.61-26.79 13.44-38 .88-1.12 1.13-3.87.37-5-8.27-14.21-6.44-30.81-7.78-46.37-10.39 5.88-19.68 13.47-29.58 20.11-2.58 1.75-5 4.23-8.85 1.28-26.73-27.15-50.72-57-75-86.48-11.2-13.67-17-30-22.69-46.63-2.56-7.4 6.38-26.91-15.74-18.77zM718.64 949.6c-22.89 11.75-24.58-6-37.52-19a3 3 0 00-2 1.76c-2.25 13-8.35 25.31-6.49 39-.24 12.08 7.26 34.6 22.76 22.25 13.93-10.89 19.61-28.29 23.25-44.01zm-8.15-94.73c-1.43-3.32-1.5-12.15-9.87-6.47-7.2 6.52-23 9.22-21.73 21.24 3.58 25.94 2.2 58.77 27.85 74.2 22.7-11.13 12.18-69.67 3.75-88.97zm54.9-238.36c69.78 12.17 138 38.58 188.07 90.78-21.66-48.49-44.34-101.21-92.29-129.15-32.88-20.68-81.15-13.49-96.55 25.13-1.89 4.29-4.57 11.35.77 13.24zm-11 17.1c23.05 5.35 47.77 5.61 71.09 12.78 28.3 7.52 53.4 21.14 80.18 32.49C869.52 655.08 830 636.07 787 628.7c-10.82-2.7-24.73-7.49-32.61 4.91zm-26.66 29C703.39 709 743 769.34 795.39 766c56.35-1.21 109.51-21.35 164.71-29.77-33.1-42.05-85.39-65.14-135.34-81.83-25.38-6.8-50.92-10-76.25-12.14-13.51.44-17.27 12.15-20.78 20.31zM731 548.07a34.76 34.76 0 001.62 4.73c20.93-18.94 35.51-60.85 24.25-88.27-7.39-17.76-22.22-22.67-31.87-10.11-15.52 28.41 2 63.85 6 93.65zm-15.12 113c.24 1.4 1.38 3 2.77 1.31 17.47-28.91 18.5-62.12 11.83-94.6-21.9 25.95-16.97 62.22-14.63 93.32zM693.1 693c-20.66 20.79-31.45 48.8-42.79 75.49-13.56 33.51-15 69-15 104.63-.05 2.54 1.51 5.11 2.33 7.66 34.51-27.12 75.24-46.07 106.19-77.53 42.34-48.68-31.45-34.09-33.58-109.24.87 2.48 0-.62-.23-.57-5.73 1.19-11.75-5.75-16.92-.44zm-30.36 6c-23.31 39.25-39.68 85.5-33.6 131.76-1.55-45.18 22.36-87.6 43.55-126.17 1.58-2.86 8.1-5.48 3.66-8.62-3.35-2.45-10.19-3.24-13.61 2.96zm-3.53-105.24c1.14 2.76 2.94.28 3.34-.82 8.22-23.14 20.55-45.14 18-71.21-.59-9-8.19-11.29-15.48-8.11-16.11 7.61-14.94 23.33-18.12 35.76 1.25 16.44 6.56 30.45 12.26 44.31zm.72 78.71c10.67-21 12.92-42.72 3.72-64.77-16.04 48.53-16.51 58.1-3.72 64.7zm-34-13c6.1-.21 12.31 3.07 18.79 4.87-3.9-12.91-1.05-25.38 1.73-38.23 1.41-2.78-1.14-1.56-2.3-.92-10.23 5.65-16.34 15.28-22.64 24.47-2.51 3.52-7.08 10.1 4.42 9.71zm-70.24 23.87c-13.64 11.26-14.63 26.83-14.92 43.33-1.85 62.09 47.75 99.28 84.2 143.91-13.75-59.4-5.39-125.58 31-175 10.87-12.1 2.65-14.29-5.57-18.43-12.29-6.2-25.06-10-39.06-10.31-20.48-.6-39.55 3.16-55.65 16.4zm30.73-94.09c-30 39.69-9.41 13.86 8.47 57.45 2.36-21.34-.73-39.77-8.47-57.55zm-24.32 19.37c22.78-26 32.19-54.19 26.23-90.7-17.5 29.21-33.23 55.45-26.23 90.7zm-9.49 4c-20.57 6.68-39 17.11-53.58 33.46-1 1.1-4.38-1-3.28 3.63 4.57 19.2 6.86 39 12.79 57.78 2.29 7.22-4.24 22.78 14.75 21.39 6.29 2.21 7.61-1.24 8-8.54-2.06-33.57 26.21-56.58 56.68-61.35 3-.68 2.75-.61 1.92-3.74-1.06-9.72-27.67-45.9-37.28-42.58zm-52.26 19.78c9.08-9.62 19.93-16.29 31.87-21.7 5.88-2.67 14.07-3.2 14.81-13.1-1.43-11.41-49.11 21.27-53.82 26.48-3.76 3.13-.7 8.83 1.73 11.75s4.13-2.02 5.41-3.38zM479 532.74c4.9 27 4.61 55.89 12.24 81.9a170.19 170.19 0 0150.79-27.7c6.19-2.23 10.82-3.23 7.18-12.59-11-28.31-31.88-42.69-60-48-4.15 2.23-11.46-3.17-10.21 6.39zm-210.37 286C265.4 803 259 785.43 255 769.48c-3.19-12.33-3.1-26.26-9-37-22-39.94-58.3-71.39-83.75-108.17 14.39 6 23.41 20.3 33.75 31.11 16.41 18.19 30.91 38.09 46 57-2.36-10.64-4.78-21.33-7.08-32-1.29-6-.31-14.1-3.91-17.73-58.32-59.6-120.14-110-192.55-153.07C138.69 600 203.08 710.68 268.65 818.79zM556.4 1291.3c-16 .53-31.94 3-47.89 4.76-2.85.31-4.35 1-3.82 5.07 7 53.17 3.94 104.9 4.37 158.66 12.27-55.62 30.48-105.19 49.31-158.16.5-1.46 9.31-10.63-1.95-10.28zm169.49-28.62c1.31 0 7.14 1 3.63-4.49-39.88-61.68-77.11-125.24-112.38-189.6-53.72-96-87.06-201.34-110.91-308.29C486 663.42 464.75 566.32 461 467c-1.43-42.72-6.69-85.44-5.56-128.15.56-4.7.49-8.58-6.85-8.06-9.59.68-19.31-.28-29-.77-69.69-5.8-140.12-3.26-209.54-9-1.78 0-3.12-.15-2.84 2.6.88 8.57 1.24 17.19 2.06 25.76 9.69 98.81 18.78 197.9 32.14 296.2 24.88 136.07 63.87 270.21 114.5 398.72 33.9 80.75 79.35 156.33 131.33 226.72 5.34 7.8 8.7 14.94 21.21 12.32 16.56-3.47 33.8-3.61 50.71-5.51 55.48-6.61 110.9-13.83 166.75-15.1zm234.18-1132.1c11-1.4 10.65-10.43 9.47-19.32-1-7.8-5.79-9.08-12.52-8.7-11.39 1.52-11.82 10.73-11.88 19-.06 10.02 9.51 9.71 14.93 9.02zM957 1073.82c17.49.41 12.7-30.19-4.81-26.59-13.3 1.15-15.4 27.28 4.81 26.59zm-2.17 197.53c-13.36-2.24-21.76 26.07-3.38 27.52 19.9 2.13 16.18-27.37 3.35-27.52zM959.05 505c-.42-7.44-2.84-13.07-11.64-12.08-7-.15-13.94.24-14.33 9.14-2.5 17.46 26.85 23.14 25.97 2.94zm-21.54 330.42c18.43 1.52 24.54-27.86 4.77-28.23-9.85-.11-16 5-15.49 15-.62 8.53 1.96 13.38 10.72 13.23zm-3.09 539.93c-20.92-.85-18.37 28.65-.49 27.33 6.49-.59 16.36.09 15.15-11.92-.76-8.96-5.48-15.68-14.66-15.41zm-1.61-812.07c-8.36-1.12-11.94 3.89-11.33 9.4.71 6.41-1.65 16.82 7.62 17.79 20.9 3.53 23.16-28.88 3.71-27.19zm-.26-161.8c-11.51-.17-13.62 26.21-2 26.2 6.08-.5 16.33.29 14.49-11.29.67-9.39-3.44-15.51-12.49-14.91zm-5.72 1139.59c-10.18.22-8.1 10.41-8.38 15.06-.53 8.67 8.64 12.49 15.58 13 6.39.48 11.56-4.91 11-14.11.97-12.24-8.13-14.17-18.2-13.95zm17.1-53.21c-.35-8-3.75-14.14-13.52-15.15-5.34.59-6.81 4.69-7.51 9.74-3.5 14.23 22.1 21.08 21.03 5.41zm-15.25-496.5c-8.85.72-13 7.75-12.42 16.48.79 11.65 10.77 11.2 19.56 13.69 9.69-4 7.35-13.37 6.68-20.38-.62-6.52-8-10.27-13.82-9.79zm-2.28-788.25c18.63 1.62 22.69-33.9 1.41-30.05-10-2-15.14 4.16-14.39 12.71.64 7.15 1.58 17.23 12.98 17.34zm-3-142.63c21.6 3.25 23.28-24.55 6.6-23.84-6.72 1.18-12.16 4.17-13 11.8-.55 5.21-1 11.72 6.38 12.04zm-17.89 199c13.75 1.3 15.62-27.58 1.39-26.61-11 .33-12.49 7.31-11.82 16.19-1.72 8.43 3.92 10.57 10.41 10.43zM890.1 1439.17c-12.74-3.45-10.56 7.38-10.74 13.46-.18 6.49 2.24 13.08 11.64 13.12 18.81.54 18.56-31.07-.9-26.58zM874 332.45c.15 7.68 5 10.68 12 10.81 6.49.12 13.89-.95 12.52-9.15-1.24-7.39-1-18.3-13-18.3-10.86 0-10.3 9.39-11.52 16.64zm19 1030.81c.57-7.48-2.46-11.68-10.49-10-15.8-4.86-14 23.5-3.31 23.27 6.8.14 13.17-4.9 13.8-13.27zm-28.92-279.89c-2.6 17.18 27.53 24.47 25.48 4.13.96-14.12-24.16-18.04-25.48-4.13zM880 1577c-7.51-.33-12.12 3.84-11.72 10.94.29 5.25.81 12.65 9 11.19 15.06 2.42 16.04-21.83 2.72-22.13zm-5.5-1116c-12.11 0-12.44 8.51-11.87 17.19.49 7.4 5.61 9.19 13.48 9 15.43 1.07 18.2-27.53-1.66-26.19zm-7 344.46c-10.8-1-11.15 25.24 7.42 23.6 10.07-.15 6.61-8.52 8.29-13.16.17-12.47-9.95-10.08-15.78-10.46zm-.15-694.6c17.92 3.53 16.89-26.68.87-25.43-5.52.31-13.07 2.8-11.16 11.62-.9 8.08 2.58 13.37 10.22 13.79zm-.59-70.14c15.22.84 16.45-24.94-.67-22.77-13.44-.07-11.4 22.71.6 22.75zM869.17 1514c.5-14.94-24.22-10.24-22 2.47.7 5.6 3.64 10.56 8.18 9.94 10.33-.79 14.17-4.27 13.82-12.41zM847 168.79c7.78.05 15.35-2.82 14.88-12.81-.29-6.24-.72-13.08-9.92-13.69-10.33-.69-14.36 3.83-12.79 13.55-1.48 6.99.23 12.89 7.83 12.95zm-6.21 984.28c-8.15.27-18.16-.24-17.37 12.28.73 11.39 9.51 15.22 19.11 15.43 7.57.17 6.88-7.64 9.44-13.33-3.81-4.82-.7-14.74-11.22-14.38zm-13.61-862.53c8.48 1.93 13.81-3.16 14.05-13s-6.71-10.58-12.79-12.85c-22.3-.08-18.44 21.67-1.26 25.85zm-25.66 1032.92c12.59-17.81 23.6-36.79 36.93-54-4.16-9.64-25.94 25.09-29.2 29.08C748.36 1386.26 697 1491.36 696.72 1600c.14 3.14 1.66 3 4 3.41 2 1.24 2.08-.34 2.34-1.71.61-3.28 2-6.63 1.86-9.89 5.72-96.4 44.78-187.89 96.6-268.35zM808.26 876c.35 16.1 23.48 16.55 23.86.59 1.01-16.59-24.71-19.48-23.86-.59zm5.7 685.31c-14.71-2-15.92 27.13 1.09 23.6 10.82 3 10.79-6.34 11.75-12.67 1.38-9.1-6.8-10.81-12.8-10.92zm-12.55-738.94c.25-6.37-2.64-12.3-9.17-11.66-11.2-.56-11.62 7-11.91 12.54-1.86 16.97 21.56 14.5 21.08-.88zm-27.14-686.16C772 156.87 800.62 151.65 798 135c1.36-17.77-25.69-12.86-23.73 1.21zM782 366.28c11.9.22 12.67-27.61-.45-26.92-7.22.37-16.06 2.24-14.45 14.16-2.89 12.29 8.35 12.55 14.9 12.76zm-3.07 576.77c6.55-.11 11.49-3.42 11.85-9.86 2-14.21-23.2-17.33-19.85-1.82-.16 6.25.07 11.8 7.99 11.68zM778.46 83c12.86.94 11.29-24-1.48-22.25-8.57-.31-12.09 3.65-12.1 11.22 0 8.7 6.6 10.72 13.58 11.03zm-5.62 148.26c9.47.11 9.78-7.39 10.52-12.84 1.36-10-6.6-13.38-14.25-14.27-14.41-1.15-14.33 26.68 3.73 27.08zm-35.79 37c-1.55 8.16 2.35 12.45 9.79 12.67 4.42.13 11.32 3.32 12.21-5.38 1-9.36-1.33-17.32-12.08-18.3-6.97-.71-11.61 3.03-9.92 10.93zm1.42-235.24c14.39 2.14 11.78-8.21 11.36-16.3-.54-10.45-8.65-8.21-15.07-8-10.7.44-8.69 9.93-9.28 15.72-.87 8.4 6.1 9.32 12.99 8.5zM727 123.07c11.32 2.18 12.26-7 11.59-14.88-.51-6-7.57-10.25-12.65-10.6-17.54-2.06-19.33 27.8 1.06 25.48zm-6.49 76.11c9.12-1.83 7.5-8.89 7.23-14.72-.31-6.83-5.52-8-11.94-7.41-16.33-4.69-12.4 27.73 4.68 22.13zm-12.32 206.26c5.35.43 9.95-1.6 9.51-7.48-.62-8.44-.05-18.83-13.3-16.94-20.9-1.47-18.2 25.14 3.79 24.42zm-40.65-245.7c7.14-.46 10.55-5.1 9.5-12.48 1.55-10-5.34-12.77-12.76-12.86-17.93-.13-13.96 27.8 3.26 25.34zm-.81-98.38c9.81-2 9.37-9.68 9.75-15.61.3-4.8-5.94-7.67-10.63-8-7.14-.5-12.32 2.92-12.7 8.77.35 10.76 1.67 17.32 13.58 14.84zM634.51 239c23.62 2.45 15.13-30.38-1-27.93-6.61-.33-10.69 4.83-9.28 10.59 1.6 6.48 1.16 15.97 10.28 17.34zm-55.22-136.6c-2.42 16 29.65 21.44 25.89 5.59-.23-9.44.24-17-11.44-17.28-8.92-.18-14.39 3.65-14.45 11.69zm6.49-68.11c7.57-.35 14.18-.51 14.13-9 0-9.25-3.27-16.76-14.19-17.24-7.87-.35-13.22 3.22-13 11.55.28 8.76 2.63 16.59 13.06 14.69zM541.12 177c11.27 2.33 12.5-6.52 12.69-14.1.21-8.52-2.71-16.78-13.81-15.78s-10.81 10.12-11.39 18.18c-.61 8.49 3.27 12.59 12.51 11.7zM538 74.52c5.7-.67 14.26-1.84 14-10.75-.18-5.94 0-13.79-9.81-12.82-13.57-2.84-16.03 23.83-4.19 23.57zm-79.78 22.9c-.69 19.2 28.62 26.48 26.82 3 4.38-16.42-29.21-18.53-26.87-3zM443.7 47c8-.51 16.28-1.24 15.34-13 .68-6.26-1.29-10.88-8.68-11.12-10.2-.33-12.47 7-13.28 14.84-.46 4.42.07 9.67 6.62 9.28zm-.7 134.72c14.15-3.47 8.53-31.32-6.68-29.44-18.65-1.41-12.38 32.26 6.68 29.44zm-68.49-80.54c-.06 6.18 1.66 13.66 11.36 11.75 8.58 1.51 13.69-3.63 13.45-10.74-.25-7.54 3.23-19-11.42-19.37-13.85-.32-13.33 9.89-13.41 18.36zM380.2 39c9.86.45 12.33-5.74 11.79-12.24s-6.73-7.65-12.37-7.8c-8.19-.23-10 5.87-10.55 12-.83 9.52 7.83 5.87 11.13 8.04zm-31.1 1513.72c.91-75.64-9.14-151.44-33.4-223.2-7.51-26-17-51.16-26.53-76.31-12.48-29-21.53-62.73-42.47-86.63 63.3 155.49 102.64 260.77 96.21 433.42-1.12 5.86 7.63 6.46 6.15 0 2.99-15.93.86-31.4.04-47.28zM321.71 90.37c13.14 1.61 16.56-24.6-4.53-25.64-7.79.24-12.48 2.52-12.26 10.41.3 10.86 9.84 14.16 16.79 15.23zM275 33c17.87 2.26 17.18-25 .65-21.91-9.36-2-9.09 5.46-9.42 10.93S268 32.91 275 33zm-4.49 110.3c17.67-2.08 14.95-30.57-2.22-31.9-7.32-.5-14.67 3.75-13.07 12.93 1.38 8 1.33 18.43 15.27 18.93zM256 248.58c9 .53 17.1-3.67 15.84-15-.65-5.8-1.5-12.81-11.14-12.78-7.23.88-13.58 4.59-12.25 13.37.74 5.15.2 13.98 7.55 14.41zm-34.41 1193.2C179.7 1372.74 114 1307.66 36 1286.54c-3.92 2.06 10.78 10.77 12.46 12.8 56.69 52 87.33 127.05 107.09 200 7.95 32.37 10.94 65.32 15.48 98.19.11 2.52 3.28 4.85 5.19 2.46-.14-104.56-38.69-207.41-102.73-290.26 86.76 48.37 154.23 131.1 178.06 227.91 4 18.42 7.6 36.71 7.6 55.64 0 3.58 2.48 7.19 3.72 10.58 16.01-43.48-19.28-122.72-41.31-162.08zM226 76.66c11.23-1.41 11-12.3 10.58-20.38-.36-7.28-5.67-11.8-14.15-9.05-13.92-3.41-14.63 7.51-15.13 15.86-.78 12.59 9.78 14.69 18.7 13.57zm-6.22 1478.18c-10.58-50.77-23.95-102.11-56.14-144-1.44-2.08-3.28-4-4.78-2.86-1.89 1.39.35 3.52 1.36 5.26 16.62 26.89 27.83 56.39 37.48 86.53 4.54 15.35 9.5 30.75 12.78 46.3 3.43 16.25 3.28 33.28 4.37 50 .22 3.17 2.36 4.24 4.72 4.53 2.79.34 1.5-2.66 1.42-4.15-.31-13.87 1.42-27.8-1.23-41.61zM189.87 164.68c15.94 2.35 18.28-27.1 2.15-27.58-6.28-.13-12.18 1.71-13.47 10.45 3.37 5.65 1.5 16.28 11.32 17.13zm-19.26 375.73c9.84-.61 11.57-10.6 12.25-18.77.6-7.31-6-10.61-11.38-9.93-8.74 1.09-16.21 5.63-17 20.79-1.22 8.19 9.84 8.3 16.13 7.91zm-6.3-467.31c11.34.7 10.78-8.14 10.15-14.48C173.81 52 170 45.69 161 47.07c-16.36-3.24-11.09 27.42 3.31 26.03zm-24.56 186.2c2 6 1.22 16.6 10.37 17.39 9.75.85 11.94-7.54 12.87-14 2.92-18.61-27.05-19.9-23.24-3.39zm1.25 81.56c-14.42.26-12.55 27.52 1.51 27.16 18.59 1.61 17.64-30.37-1.51-27.16zM144.06 743c14.56.38 14.38-27.52-3.08-26.22-16.56-1.02-15.52 28.61 3.08 26.22zm-11.17-551.7c12.68-1.7 8-22.78-3.9-24.11-9.08-1.2-9.44 7.28-9.7 12.84-.29 6.13 2.08 12.4 13.6 11.27zm-19 304.84c11.37.62 17.64-4.16 17-15.8-.47-8.84-3.14-16.63-15.07-17.9-14.25 2-9.31 14.55-10.45 23-.51 4.34 1.32 10.31 8.56 10.7zm1.29 1072.71c-6.9.45-12.83 3.8-11.77 10.28 1.13 6.91-2 18.9 13.62 18 13 3 12.84-9.07 13.43-17.08.71-9.15-6.71-11.75-15.24-11.2zm-13.74-778.69c-1.71 14.83 7.41 17.84 14 18.16 6.35.3 8.54-8 8.24-14.12 1.09-14.39-19.91-14.54-22.24-4.04zM97.09 96.35c-4.75 21 25.65 25.62 24 4.72 3.34-15.94-22.62-19.54-24-4.72zm3.7 581.44c-9.9.64-9.57 7.7-10.17 17.51-.8 4.79 2 11 10 11.47 21.06 3.02 22-30.96.17-28.98zm5.78-291.18c-2.23-18.15-27.9-18.49-22.56 5.61.68 6.83 4.53 9.3 11.42 8.81 10.48.9 11.93-5.51 11.14-14.42zM91.06 38.83c17.24-.83 15.57-25.9-2.34-26.32-5 2.08-11 4.2-10.65 11.8.33 8.09 4.21 14.5 12.99 14.52zm4.81 1050.77c-.67-5.33-2.05-11.54-10.46-10.62-10-1.06-11.56 7.35-12 14-.88 19.21 25.59 14.59 22.46-3.38zM65.1 1501.91c-16-.82-16.19 26.15-.76 27.32 18.8 1.3 19.26-28.53.76-27.32zM48.17 304.74C46.57 328 80.09 326.67 77.71 313c-1-12.87-3.29-21.38-12.84-21.56-7.59-.18-16.55 2.96-16.7 13.3zm14 342.3c8.83-1.58 10.49-8.16 10.85-13 0-13.73-2.49-16.71-10.56-17.21-10.82-.66-15.46 5.17-15.33 14.84.12 9.33 2.59 17.6 15.08 15.33zM46.56 212.65c.36 7.49-.33 17 11.13 18.43 10.23 1.27 11-5.66 11.66-15.16 4.4-11.63-22.82-14.85-22.79-3.27zm-6.26 667.8c.8 7.37-.8 17.28 8.12 18.56 11.12.23 19.17-6.09 18.4-12.82.63-15.19-26.6-24.19-26.52-5.74zm9.13-466.29c-6-.13-10.47 6.34-9.87 10.74 1.08 8 .24 18.94 12.44 20.44 22.82 1.23 17.39-33.34-2.57-31.18zm-6 362.55c.48 6.75 3 14.36 12.51 14.32 6.2 0 11.05-4.11 10.62-9.32-.63-7.57-1-17.46-12.49-16.73-9.56-.8-11.07 6.52-10.68 11.73zM26.84 140.53c1 8.58 8 13.26 15 14 8.17.9 7.47-8 7.94-13.37.56-6.44-2.39-11.9-10.1-11-5.81.74-14.79-1.38-12.84 10.37zm5.47 902c5.54-.91 16.16 1.27 14.95-8.22-.23-13.56-8-16.31-16.6-15.85-11.99.26-8.61 25.05 1.65 24.03zm-3.39 399.63c-11.77-.94-9.41 9.06-9.29 15 .14 6.57 4.66 11.4 11.67 10 9.79.47 13.62-4.15 13.91-12.52.42-11.85-8.57-11.91-16.29-12.52zm1.15-853c8.36-.38 9-6.27 8.9-12.28-.23-9-1.86-17.22-14.81-15.83-10.83-2.73-12 6.33-11.8 13.23.25 10.3 7.04 15.36 17.71 14.86zM25 1563.33c-16.69-1.77-17.86 33.85 4.45 28.71 16.26-1.18 8.11-29.37-4.45-28.71zM18.15 716.4c14.74.41 25.65-28.74 7.39-32.08C13.81 683.51 7.94 690.23 9 702c-.85 7.64 2.39 15.22 9.15 14.4zM7.07 838.74c.94 7.74.24 17.52 11.68 18.17 9.11.52 12.65-5.28 12.36-14.93 3.31-16.21-26.45-21.98-24.04-3.24zm15.16-495.5C3.14 341.86.54 376 20.39 372.31c11.95.32 16.49-29.19 1.84-29.07zm-3.05-256c13.68 1 10.41-10.15 11.51-16.89C34.44 50.45 5 58.62 5.18 74c-.69 9 6.07 12.33 14 13.26zM26.11 1099c1.6-18.31-25.15-21.53-23.26-6.57-1.92 15.34 22.31 21.09 23.26 6.57z"/></g><g id="Red_Japanese_Frames" data-name="Red Japanese Frames"><path class="cls-8" d="M0 20v1560a20 20 0 0020 20h936a20 20 0 0020-20V20a20 20 0 00-20-20H20A20 20 0 000 20zm924 1528H52V52h872z"/><path d="M952.1 15.41l-23.41 23.42a4 4 0 01-2.83 1.17H50.14a4 4 0 01-2.83-1.17L23.9 15.41A2 2 0 0125.31 12h925.38a2 2 0 011.41 3.41zM40 1549.86V50.14a4 4 0 00-1.17-2.83L15.41 23.9A2 2 0 0012 25.31v1549.38a2 2 0 003.41 1.41l23.42-23.41a4 4 0 001.17-2.83zM936 50.14v1499.72a4 4 0 001.17 2.83l23.42 23.41a2 2 0 003.41-1.41V25.31a2 2 0 00-3.41-1.41l-23.42 23.41a4 4 0 00-1.17 2.83zM925.86 1560H50.14a4 4 0 00-2.83 1.17l-20 20a4 4 0 002.83 6.83h920.55a2 2 0 001.41-3.41l-23.41-23.42a4 4 0 00-2.83-1.17z" fill="#992d17"/></g></svg>