<svg xmlns="http://www.w3.org/2000/svg" width="976" height="1600"><defs><clipPath id="clip-path"><path d="M960 22v1556a6 6 0 01-6 6H22a6 6 0 01-6-6V22a6 6 0 016-6h932a6 6 0 016 6z" fill="none"/></clipPath><style>.cls-9{fill:#592116}</style></defs><path d="M960 22v1556a6 6 0 01-6 6H22a6 6 0 01-6-6V22a6 6 0 016-6h932a6 6 0 016 6z" fill="#f4f3ef" id="Paper_Backing" data-name="Paper Backing"/><g clip-path="url(#clip-path)" id="Wikipedia_Cropped" data-name="Wikipedia Cropped"><path d="M436.85 890.16c-5.13-3.08-8.46-5.23-14.24-1.6-15.41-15.37-29.08-34.56-45.93-47.46-30.93-24.05-57.11-53.23-76.48-86.65-22 10.16-45.28 18-73.12 14.41-21.18-.86-165.29-36.61-117.65-64.13 6.94-3.27 20.76-8.2 11.57-16.12-1.88-14.12 13.88-28.14 15.45-44 11.32-66.31 89.46-89.51 136.11-46.28 13.83 13.71 33.68 46.31-4.28 37.5-31.42 3.32-78.75 7.3-95.57 33.44a6 6 0 007.49 3.4c39.81-12.2 76.8-20.23 119.11-13.26 16.2 3.23 3 29 16.51 32.37 99.51-78.51 107.25 98.62 110.6 162.86 23.05 29.71 18.35-87.92 12.35-102.68-5-31.18-21.18-59.07-35.77-85 21.08-17.08 51.62-17.63 75.11-10.23 18 1.92-4.73-37.1 6-45.71 42.05-22.79 100.27 10.26 144.08 24.88 28.21-13.45-84.52-59-97.87-60.77-5.36-2.8-23.23 5-20.59-6.06 38.49-60.86 139.19-50 177 13.28 21 38.88 29.91 83.89 47.11 122.45-14.84 40.5-136.36 40.84-173.44 22.89-11.17-.55-32.56-27.46-38.2-10.76-3.42 66.14-46.53 123.35-85.35 173.23zm3.46-367.38c-59.41-57.37 4.37-141.34 12.89-53-5.2 15.87.92 42.54-12.89 53zm49.48-1a4.31 4.31 0 01-4.11-3.73l.05.17c-9.05-121 95.76-85.68 6.53 2.86a6.29 6.29 0 01-2.47.68zM306 521.42c-27.73-21-31.54-97.2 11.63-93.18C342.67 445 321 504.19 306 521.42z" fill="#6060bf"/><path d="M704.4 1604c-5.35.12-5.6-9.84-.54-10.44 13.34-17.31 2.6-50.25 8.38-72.93 5-39.42 2.57-76 8-114.38 2.81-5.15-4.27-8.7-.28-14.17 3.25-5.41-1.74-10.1 2.75-16.22 3-9.18-4.06-20.19.89-30.54-7.31-23.18-1.27-11.32 16.36-27.48 19.57-12.3 37.22-22.82 55.57-37.56 10.3-14.47 29.56-4.43 33.23-21.31 14.1-10.86 28.93-19.09 45.2-26.22 1.1-5.75 0-13.06 2.32-18.53 7.71-19.38 81 2 99.68-10.36 7.89-.25 2.82 24.66 3.69 28.67.45 21.12.36 53.44.2 74.92.55 24.11-.16 276.63.11 292.55.85 11.35-271.56.23-275.56 4zm-364.54 0c-16.31-9.5 59.68-45.23 65.87-53.7 29.27-13.57 51.5-44.36 84.17-54 15.37-21.18 45.16-32.61 65.41-46.64 2.42-5 35-33.88 30.38-15 2.22 10.5-5.36 16.09-3.72 24.16 1.79 1.72 2.71 12.47 1.52 17-1.71 6.54 2.1 10.9-2.57 18-3.91 5.19 4.67 15 1.58 19.63.5 13.24-8 24.18-2.09 34.87 1.53 15.58-4.87 33.77 4.2 46.71 13.32 21.65-242.51 3.08-244.75 8.97zM0 1527.21c-4.66 12.58-14-367.55 7.77-294.42 28.88 20.3 64.4 30.47 89.21 53.22 16.54 2 38.52 11.64 31.84 30.4-1.7 4.56-2.28 8.29 1.44 12 5.73 11.7.41 24 3.32 35.41 2.7 22.3 5.56 48.63 3.9 71.15-24.55 9.34-44 40.16-73.37 42.24-7.4.69-3.41 9.51-9.18 12.46A309 309 0 000 1527.21z" fill="#82d8d0"/><path d="M454.68 1213.3c-84.42-42.59-168.74-90.12-252-131-11.5-4.32-22.1-9.49-16.1-24.75 1.42-21.68-2.66-42.68-4.74-64-12.24-84.25-38.62-163-88.29-229.85-19-28.34-46.48-53-68.85-70.56 3.62-34.37 133 79.93 146.25 99 67 70.69 86.9 151.79 118 226.59 10.73-3.75 3.59-23.47 5.13-30.22a1175.06 1175.06 0 00-19-156.25c-5.56-64.67-34.06-50.77 21.51-78.13 14.82 17.78 23.21 41.93 44.72 60.67 18.42 10.74 8 192.73 29.21 153.81 5.59-37.92 1.18-76.85 7.3-114.29 8.33-11.27 37.33 32 45.89 41.88 29.8 12.82 58.49-125.1 59.67 6.55 18.68 28 14.86-62.18 18.68-73.16 6.22-26.86 12.82-53.5 19.11-80.5 9.6-71.56 21.94-.05 108.77-8.94 28.13-2.88 5.81 23.17 7 38.56-5.82 29.67-9.24 63.47-14 94.8-3.39 14-3.58 239.19 23.26 200.87 8-78.63 19.09-208.78 72.76-260.16 16.38-5.68 43.2 6 56.44 14.22 64.38-25.93 97.74 62.85 108.75 112.19 12.16 60.14 17.61 126.91 9.47 188.51-8 14-33.74-71.63-42.09-78.05-26.42-41.61-43-95.72-75.57-130.84-13.07 7.45-9.11 30.43-15 43.56-9.72 50.29-17.61 110.52-13.52 163.4 6.44 29.79-52.62-10.17-66.59-9.12-57-38.45-77.29 47.22-91.53.55-5.3-9.52-3.37-28.41-14.36-32.58-19.19 3.65-39.8-6.51-63.22-3.06-20.16-12-12.6 1.18-28.83 7.19-29.7 11.39-2.44 108.74-28.23 123.11zm-66.75-540.89c-14.57.65-20-13-19.8-22.21-1.67-8.33-6.87-24.16-.89-31.25 14.68 8.64 21.49 26.52 38.45 33.25 15.25 6.8-9.22 19.52-17.76 20.21zM444 650.94c-12.54-2.72-9.37-10.48-2.31-16.25 4.49-13.8 14.41-37.63 17.87-7.33 2.65 15.25 9.44 26.41-15.56 23.58zm-161.73-46.17c-24.64-23.84-52.21-36.06-87.09-28.08-12.26.15-32.12-60.56-45.73-73-32.73-54.82-74.32-110.86-126.33-150 33.61-9.89 127.47 71.1 157.17 97.79 25.42 25.82 126.93 121.45 101.98 153.29zM407 597.64c-53.69-52.36-48.27-6.06-56.14-33.75-6.47-37.26-26.17-74.07-19.85-112.27.34-11.19-1.69-19.9-12.7-26-15.51-33.78-22.18-76.08-37.86-110.28-3.54-55.58-164.52-262.34-26.7-132.23a848.86 848.86 0 01154.19 237.25c15.92 23.86-3.62 48.52 12 72.63 6.67 16.62 32.12 34.71 11.81 51-14.48 13.29-6.81 50.6-24.75 53.65zm290.8-7.71c-16.84-12.84-26-37.14-44.07-46.34-12.41-2.41-34.72-10.3-43.31-17.79 37-87.36 121.09-152.81 209.07-184.64 10-11.35 181-29.81 132-7.5-118.71 43.01-197.17 149.88-253.73 256.27z" fill="#50b271"/><path d="M580.61 1604c-2.11-252.62 67.35-214.46-201.22-46.78-13.09 8-23.34 20.46-37.42 18.89-2.77 13.11-16.26 18.15-27.72 26.89-39.76 2.55-183 1.57-225.54-.17-6.23-3-88 8.19-92.71-2.83 3.37-3.67-5.9-82.78 4-80.79 9.48 4.9 15.36-1.91 23.12-7.21 143-101.48 120.56-33.48 106-215.85.29-10.08-47.66-25.3-62.54-36.26-21.71-7.1-43.39-33.89-65.58-28.09-10.2-.83-7.74-252.51-1-255.33 140.65 78.63 289.26 149.46 435.4 226.53 8.77 2.85 29 21.51 29.3 2.36 2.63-30.59 3-64.84 8.09-94 4.2-3.78 9-2.41 14.85 0 26.77 11.21 54.32 10.1 82.39.31 12.33-3.36 5.43 15.34 6.08 21.92-3 30.32 37-10.63 48.47-14.72 26.85-27.44 88.13 15.84 120.87 24.89 40.28 13.19 81.92 27.85 123.39 42 12.2 15.29 12.38 40.38-10.62 48.51-27.35 16.58-52.39 34-77 50.89-35.74 20.11-66.11 62.62-101 30.63-20.91 6.69-39-1.85-62.23 3.49-53.29 9.24 2.08 32.21 23.09 32 19.17 2.43 43.64 4.77 62.71 0 6.36-3.61 13 2.63 11.21 8.48-8.45 67-7 137.3-12.26 204.88 3.22 8.74-7.9 24.29 2.45 29 3 .43 3.38 4 3.15 6.39 1.01 10.82-123.87.54-127.73 3.97zm-355.5-378.34c-56.37-5.88-163.52 51.95-46.31 58.53 37.51 3.6 63.2-15.85 91.41-19 14.64 6.24 9.91-19.89 5.07-26.1-2.51-4.06 3.48-10.76-2.85-13.53-3.61-2.19-9-4.72-11.89 0-10.18 4.72-24.98-1.34-35.43.1zm209.08-380.84c-12.2-8.16-5.65-30.84-10-44-3.72-40.45-14.33-82.26-33-117.56 5.56-37.16 36.16 23.23 37 36.31 10.63 33.34 23.99 97.13 6 125.25zm-267-167.88c-25.62-5.92 39.26-27.68 46.11-30.68 28-11.94 55.85-2.86 80.81-12.51-10.78-37-7.51-77.38 13.25-110 24.49 1.72 15 76.33 2 93.47-23.06 32.73-7.44 9.64-7.87 39.91-44.65-.86-92.01 1.95-134.31 19.81zm254.71-21.71c-33.47-1.51-77.19-63.66-52.75-84 20.48 4.67 29.09 32.65 45.78 35.93 8.26-7.47 2.55-23.7 6.24-34 1.52-12 17.87-54.87 27.35-44.19 13.73 51.75 2.05 98.8-26.62 126.26zm208.47-18c-44.28-22.06-91.91-37.32-140.68-38.64-32.35 17.88-16.49-57.28-2.3-69.3 21.48-5.36 2.89 50.35 16 49.27 18.88-16.04 145.55 45.33 126.98 58.69z" fill="#ffb85a"/><path d="M684.65 1353c-16.37 3.48-117.87-10.13-74.48-29.36 28.67-15.23 172.08 15.17 74.48 29.36zm-506.46-70.78c-133.24-11 41.83-79.52 89-46.63 33.55 32.41-66.74 48.14-89 46.66zm353.59-164.89c-15.37-1.95-53.72 1.2-56.25-17.65 28.33-40 183.79 6.6 56.25 17.65zm356.06-825c-19.68.16-40.75-8.15-50.49-24.31-15.07-8.74-39.43 36.83-70.94-3.67-80.94 50.25-71.3-19.55-96.68 6.76-36.87 27.37-102.73 28.71-123.51-20.88-32.7 8.06-66.33 17.17-91.33-10.44-26.49-28.46-3-69.07 22.11-82.78 8.15-6.47 12.51-2.65 20.7-2.07 4.66-3.95 13.38-14.34 8.41-20.39C456.47 36 447.92 93.16 415 47.74c-6.26-14.67 2.8-30.91 4-47.74a4 4 0 014-4h36.32c9-.3 506.89.22 516.74 0 11.25-.8.26 220 4 224-.3 6.54-9.77 1.74-11.18 8-13.91 32.48-39.24 62.23-81 64.44zM166.43 100.19c-27.53 1.36-43.94-21.9-57.42-39.51-17.62 11.21-39.32 14.23-60.75 6.87C31.67 66.43 17.87 43 0 42.9-8.44 44.33-2.14 3.33-4 0a4 4 0 014-4c3.62 2.64 319-5.08 319.92 2.7 2.92 40.3-38.77 87.84-79.42 64.57-14.28 8.51-25.61 30.78-47.61 23.6-8.34 4.95-13 15.43-26.46 13.32z" fill="#d81e1e"/><path class="cls-9" d="M977.3 323c-11-6.34-24-5.55-35.53-5.46-130.09-6.43-254.81 67.62-321.33 178-9.71 14.41-15.27 33.62-39.75 27.88-32 2.94-62.37 15.14-78.77 49.23 2.93-15.05 3-26-.81-36.76-1.37-3.87-7.39-8-4.07-11.27 20.13-19.43 36-45.68 37.39-73.89-.28-22-30.64-19.42-39.24-3.84-12.78 20.68-18.43 43.39-14.29 67.9.75 4.46 3.39 10.55 1.46 13.12-8.5 14.78-16.21 31.58-17.32 48.42-.36 21.72 16.17 40.06 11.94 62.25-1.08 3.52 4 10 3.29 11.73-2.4 2.21-5.42-1-8.2-1.1-4-.23-2.64-2.77-3-4.8-1.59-8.1-3.29-16.17-5-24.24-2.17-10.41-6.56-20.93-6-31.21.78-15.53 2-31-.9-46.45-1.5-8-7.9-16.5-7-22.77 3.18-21.87 10.49-42.89 7.26-65.8-2.28-16.24-16.41-36.33-36.09-23.79-1.49 1-3.23 2.08-4.24-.78-38.36-94.53-130.25-244.71-219.67-294.77-2.9-1.56-5.92-6.39-9.22-1.46-2.51 3.77-.45 8.12 1.82 11.65 56.79 83.43 92.24 179 120.26 275.41-20.33 6.6-33.19 31.63-32.68 52 1.44 17.57 9.25 33.45 20.17 47.71 1 1.35 5.57 1.23 3.73 5.89-4.38 11.08-13.57 20.27-13.13 33.43-1.16 12.53-9.67 3.71-12.93-3.13-64-89.76-148.12-172.71-252.59-212.52-4.39-1.43-11.38-4.25-14.13.53-3.65 6 3.21 9.23 8.2 11.95 72.65 52.2 118.27 131.28 161.43 207.7 2.59 5 8.3 12.69-3.93 16.67-48.18 22.34-42.25 92.28-80.67 129.79-1.17 1.44-2.15 3.93-4.67 2.12-18.17-12.08-56.89-35.44-77.9-35.5-3.57.32-5.6 2.63-7.82 4.76a7.4 7.4 0 002.07 2.85 269.39 269.39 0 0133.37 26.1C137.08 795.11 177.32 929 182.2 1055c-.13 1.37 6.83 14.16-4.9 9.11-16.67-7.17-32.37-16.6-48.52-25-38.52-19.66-76.65-40-115.09-59.86C10.8 977.77 6.74 973 3.33 978c-2.18 3.11.5 6.76 3.34 8.4 90.35 49 183.41 92.65 274 141.37 58.37 31.9 118.52 60.23 177.27 91.42 1.72.89 1.57 2.62.11 3.55q-35.92 21.54-70.61 45.15c-8.13 5.63-14.94 7.75-24.11 2.52-85.08-47.74-172.4-91.3-259-136.28-30.52-14.92-59.77-32.41-89.79-48.37-3.46-1.84-7.83-5-12.41-1.71-5.59 4.87 3.25 9.78 8 9.17 82.35 45.85 163.57 84.87 247 130.2-42.44-3.66-103.64-2-132.31 32.51-.28.38-1.44.68-1.63.49-6.79-7.23-16.25-9.89-24.59-14.47-29.28-16.52-58.56-33-88.36-48.64-3.77-3.32-7.47-5.66-9.2 1.57 0 2.41 2.19 4.39 4.16 5.54 33.34 17.63 66.37 36 99.82 53.43 14.9 7 21.34 11.48 18 30-38.95-16.57-75.08-40.2-113.21-59-3-1.46-7.08-3.39-8.2-.79-1.23 2.75-.63 9.2 1.51 10.58 28.32 18 53.67 30.44 84.74 46.8-28.68-1.6-54.39 1.39-80-2.24-6.38-1.62-13.72 7.06-3.89 8 20.45.58 40.89 1.42 61.35 1.91 18.72.31 67.5-2.76 59.3 27.93-.87 4.33-5.84 1.73-8.86 1.71-7.9 0-15.94-1.11-23.67-1.18-26.81 2.13-70-4.33-86.19 21.82-9.9 15.48-6.51 48.22 10.1 58.33 11.18 6.3 23.72 6.76 35.87 7.12 25.48.74 51 .19 76.49.29 1.58 0 4.26-1.49 4.55 2-.59 4.08 5.06 27.52-.48 25.75-40.58.36-81.18.09-121.76.11-2.85 0-5.68 1.18-5.68 4.83 0 2.93 2.14 3.24 4.54 3.23h111.41c-8.59 5.7-15.26 10.22-22 14.59-9 5.82-17.59 15.09-27.29 16.52-20.81 3.07-42.23 2.13-63.4 2.68-3.55.09-7 .29-7.17 4.57-.28 4.59 3.82 3.69 6.64 3.59 15.6.71 31.64-1.16 47 1-15.66 11.67-34 20.79-49.94 32.69-3.14 2.1-4.84 6.66-2.61 10.22 1.92 3.37 4.16 1.5 6.4 0 117.63-79.25 237.32-155.54 356.26-232.87 87.34-57.26 174.44-114.82 261.94-171.82 9.08-6.05 16.25-14 29.48-8.56 28.53 12.52 59.32 20.05 87.28 33.65C524.3 1296.26 302.32 1444.94 82 1593.69c-10.66 4.33-1 13.67 6.39 8.74 45.78-33.64 94.55-63 141.13-95.49 135.88-94.73 275.55-184 410.69-279.73 37.46-24.84 75.22-49.25 111.49-75.83 2.57-1.83 4.82-.6 6.89.15 36.37 13.9 71.3 24.75 109.09 38-60.37 35-115.48 76.58-175.72 111.73-8.66 5.26-15.8 15.26-27.35 13.42-16.66-1.84-70.42-5.36-73.35 16.75-4 11.33-1.83 48.15-9 53-81.77 50.88-162.79 103.43-242.22 157.86-26.52 17.17-53.37 33.82-79.87 51-1.57 1-2.87 4.62-2.58 6.69 1.17 5 6.84 3.09 10.17 0C375 1528 479.39 1461.08 587.5 1388.92c-7.82 11.8 2 25.7-13.14 32-16.87 7-30.48 19.57-45.56 29.6-71.09 52.7-151.88 97.48-218.8 153.22 4.76 8.36 23.82.24 29.88-3.74 19.65-14 39.14-28.71 60.2-40.62 10.55-6.13 17.49-18.12 34.4-15.13 46.35 5.89 96-1.58 142 4.14 0 11.91-.32 23.81-.39 35.72.39 4.32-1.16 12.8 5.79 10.7 1.57-1.81 3.09-4.41 3.12-6.71-.42-36.15 1.34-72.19 3.83-108.28 3.23-42.26 3.17-84.79 6.72-127 .34-3.24 1.19-10.64 3.45-9.64 13.45 5.91 27 10.33 41.74 12.06 21.41 2.52 42.69 4.89 64.08 0 2.79-.64 7.09-2.92 6.33 4.15-9.23 74.06-6.86 148.7-13.45 222.62-2.18 5.77-2.17 16 6.77 15.57 7.83.39 9.18-6.87 8.72-13.15.09-42.13 6.67-83.9 6.61-126-.08-3.31-.05-3.57 3.32-3.49 17.12.4 34.21.46 51.34 1.85 37.44 2.48 75.54-4 112.38 6.13 10.48 2.77 17.68 16.58 11.41 24.31a36.84 36.84 0 01-27.74 13.41c-32.46 1.13-65-.74-97.43 2.31-40.85 4.32-29.16 68.63 17.51 64.6 41 2.69 81.92-2 123-.47 18 0 36 .17 53.92-.16 3.14-.06 6.26-2.18 9.36-3.36-8.52-11.19-58.54-5-74.31-5.39-17.76 1.23-35.77-.2-53.62-1.29-26.38-1.62-53.34 4.8-79.09-5.87-18.13-5.82-18.07-38.37 2-39.89 42.07-9.16 186.18 18.22 188.67-36.09 1.39-25.3-7.46-42.46-32.12-56.07-36.63-18.14-78.29-12.18-117.75-15.54-27.49-3-55.27-3.24-82.93-4.34-10.25-.07 0-9.1-2.71-15.16-.75-5.85 1.42-7.06 7-7 37.23.65 74.47-.63 111.69 1.93 42.28 1.11 84.74-.3 127.07.18a3.85 3.85 0 004.2-3.9c.07-2.79-2.42-2.1-4.13-2.19-13.11-.69-26.22-1.69-39.35-1.94-65.81-1.82-131.7-1.54-197.51-3.8-3.15 0-8 .84-7.68-2.1.72-7.31-2.31-15.41 3.44-21.91 9.23.23 18.73 1.44 28 1.3 32.06-2.6 64.41 1.16 96.22-.5 38.85.72 77.64-2.4 116.63-.93 5.27.57 3.54-5.21.16-6-42.68-1.83-85.44-.48-128-1.74-20.05-1.58-40.33-.88-60.48-.29-18.5.55-37.11-2.27-55.53 1.52-.75.16-2.16-1.18-2.71-2.15-1.4-2.44 1.1-1 1.69-1.45 15.24-9 27.63-26.26 47.41-23.68 64.11 4.11 128.45-.61 192.69-.47 5.05.78 13.15 2.92 10.22-5.22-2.23-2.82-10.68-2.46-14.59-2.69-63.31 1.46-125.57.34-189 .29 6.21-4.12 10.94-7.69 16.07-10.56 9.61-5.37 16.67-16.66 27.88-17.21 50.81-.72 101.67-3.29 152.55-2.39 4.48.63 10.15-2.19 7.13-6.84-39.69-3.7-81.75 2.21-122.14-.79-7.48-.52-15.52 4.06-22.83-1.15 16.78-10.41 29.4-25 51.47-23.65 29.59 1.51 59.31.37 89 .49 3.34 0 7.31-.05 7.12-4.55s-4.38-3.86-7.63-3.86c-15.58.15-31.17.31-46.76.12-11.86-.15-23.82-2-35.55-1-16.5 1.46-8.8-8.81-8.35-15.34.42-6.17 5.67-3.28 8.62-3.3 27.42-.25 54.84-.3 82.26 0 4.58 0 4.61-3.08 5.58-5.93 2.54-3.65-13-3.91-15.18-4.28-10.46-2.32-83.48 6.68-80.51-4.25 1.89-8.41-4.27-12.23-10.65-14.34-31.83-12-63.72-23.94-95.78-35.33-12.27-4.35-24.2-7.18-22.32-24.83 2-19.35-1.57-39.58.25-59 2.45-47.36 14.07-93.2 20.82-140.15 44.21 69.83 81.4 146.09 115.22 222 2.7 8.37 8.18 8.81 10.24-.33C907.21 1054.63 907 890 831 828.56c-43.77-33.75-39.88 9.84-79-17-48.34-21.48-59.51 25.25-72.88 57.78-21.25 59.17-32.63 122-35.73 184.77-.12 5 .37 11.13-3.13 18.4-11.09-67.15-20.14-131.64-9.22-198.85 1.13-13.26 1.1-26.62 2.22-39.88.79-9.45 5.07-18.07 5.18-28.1a108.94 108.94 0 017.13-36.33c3.78-10.05-1.68-27.79 19.36-26.88 23.65-1.05 47.18-10.52 68.32-21.22 24.22-14.23.91-16.55-6.22-46.78-6.42-24.92-17.89-51.07-23.35-75.48 39.61-93 107.32-174.63 191.25-231.08 25.18-15.76 50.38-31.24 81.61-31.12 10.9 2.62 8.52-10.15.76-13.79zM12.7 1381.53c-7.73-12.93-2.38-25.74 4.65-38.5 10-23.23 77.18-11.58 100.84-14 2.9 0 7.84-.39 8.39.89 3.91 9 2.17 18.75 2.17 28.26-18.32-2.75-37.19-.82-55.71-1.21-12.24.19-24.44 1.35-33.76 10.68-7.81 7.83-6 21 4.73 27.36-13.54-.15-25.28-3.39-31.31-13.48zm116.37 13.4c-23 0-45.94.5-68.88-.19-13.55-.4-21.21-11.46-15.74-21 5-12.3 65.91-6.23 81.7-8.93 3.48-.13 4.85.68 4.92 4.6.16 8.19.83 16.4 1.8 24.54.53 4.39-2.29 2.1-3.8.98zm138-48.59c-40.94 26.59-81.69 53.5-123.12 79.34-4.91-48.41-5.51-97.61-12.74-145.87 96.78 31.39 143.5-34.47 137.8-1.59.53 20 1.25 40 2 60 .1 3.53-.42 5.86-4.01 8.12zm4-101.1c-8.63 24.88-49.18 27.82-71.5 31.66-19.45 3.2-39.66.75-58.49-4.31-3.81-.4-8.15-4-7.74-8.46 7.68-24 65-30.38 86.87-33 8.79-.66 51.39 3.13 50.79 14.11zm17.23 87.13c-1.33-22.61-2.25-45.27-4.2-67.84-.8-9.33.58-19.39-5.57-27.77-.22-.3.14-1 .24-1.56 30.3 13.77 59.74 28.64 88.78 45.39zm290.28 180.54c-3.55 21.38 2.25 29-21.94 23.58-15 1.57-30.46.68-45.22-.44-25.31-1-50.57-.37-75.63-1.36 29.81-20 46.4-42.89 85.61-34.26 15.28 2.32 31.24 1.44 46.78.33 10.64-.76 11.37 5.65 10.37 12.15zm.55-29.85c1 8.2-1.48 11.2-10 9.71-23.39-4.12-46.82-.58-70.36-2.07 25.44-17.26 46.44-40.66 79.39-30.15 3.91 4.67.37 16.36.94 22.51zm1.92-46.58c4.3 19.64-11.81 14.86-21.76 13.68 6.81-6.79 14.8-11.52 23.24-18.43-.81 2.38-1.73 3.69-1.53 4.75zm128.05-91.62c-20 9.32-91.69 3.54-105.78-12.3.63-5.13 6.27-4.54 9.47-5.22 31.22-4.77 76.07-6.89 101.94 13.16-1.9 1.5-3.57 3.37-5.66 4.36zm13.83 65.94c.78-2.16.42-3.89 3.56-3.79 23.54.77 47.2.21 70.61 2.38 44.43 5.43 92.65-4 133 19.57 18.32 12.24 23.27 28.68 21.58 45.5-2.9 23.92-34.46 26.84-54.23 25.92 9.33-8.76 15.35-17.4 9.54-30.41-10.53-22-42.92-17.52-63.3-22 0 .43-.09.86-.13 1.3-38.43-2.13-76.92-3.94-115.4-4.07-7.44 0-8.83-3.6-6.79-8.28 3.75-8.73-1.57-17.54 1.53-26.12zm149.58-205.43c4.59 18-12.14 22.25-22.67 29.11-23.81 15.51-47.56 31-70.84 47.37-21.45 15-43.33 29.52-65.88 42.8-3.91 2.3-12.07-2.78-18.32-4.23s-7.48-3.51-1.23-7.07c26.3-16.48 52.18-33.66 78.42-50.23 31.74-20.9 65.21-39.44 95.89-61.82 2.78-1.7 6.7-3.51 4.6 4.07zm-108.2-275.86c-14 64.94-25.78 131.33-20.83 198.12 1.32 12.42-5 6.95-9.3 5.11-9.46-4.06-18.92-7.85-29-10.07-3.09-.67-7-2.45-4.94-6.87-3.22-84.58 12-169.36 34-250.54 12.55 14 21.23 31.83 32.94 46.86 4.6 6.66-2.35 11.42-2.87 17.39zm-42.67-112c7.6-3.66 42.55 5.52 47 12.28 7.89 12 15.5 24.35 22.15 37.11 25 46.25 47.36 93.6 64.16 143.47 4 10.44 8 20.87 12.16 31.22 1.23 4.4 6.7 4.66 5.85-1.12C860 996.4 846.72 952.73 824 912.37c-14.16-27.15-25.23-56.22-44-81.06C859.33 807.76 882.69 942 889.69 997.86c1.93 43.2 7.28 87.15.24 129.83-16-48.39-42.95-91.48-66-136.48-28.64-53.61-56.7-109.54-100.15-152.72-4.78-3.85-10.15-8.71-11.88-14.17-2.03-6.32 6.25-5.09 9.74-6.76zm-72.56 280.66c5-90.33 15.51-185.63 58.63-266.39 15.08 21.54 27.3 18.43 14.57 46.66-7.13 28.68-16.07 57-20.77 86.31-6.2 44.37-12.29 88.77-9.83 133.66-1.06 10.49 6.79 23.83-10.56 15.43-10-3.77-19.5-8.86-30.11-10.94-3.32-.6-2.01-3.14-1.93-4.68zm-150.7-508.11c22-32.6 108.91 25.76 132 43.19-40.47-18-81.4-38.88-127.35-36.39-4.38.32-11.03 3.02-4.65-6.8zm2.75-135.57c4.43-8.25 22.84-17.27 23.63-1.79-4.8 24-13.89 50.81-35 65.06-3.17-21.3-1.02-43.64 11.37-63.27zm-22 143.84c-9.22-15.23-1.33-52.43 11.15-66.23 11.85 23.48 2.64 44.18-7.48 64.77-1.41 2.81-2.86 3.44-3.7 1.46zm20.73 77.17c55.89 56.86-29.34 158.85-63 210.66 17.33-73.59 17.26-154.82-29.86-217.4 25-18.09 70.33-17.44 92.83 6.74zm56.34 270.9c1.45 43.37 4.35 87.34 13.2 129.9 2.11 9.13.17 8.45-6.62 6.71-16.67-4.27-33.73-4.46-50.8-4-2.71.07-4.36-1.21-4.7-3.44-5.74-36.31-10.08-73-11.69-109.72.36-45.56 7.14-90.32 10.42-135.89 6.2-26.22 12.83-53.52 19-79.94 2.15-9.23 3.93-18.55 6.21-27.74.42-1.69 1.24-4 4.71-1.57 12.43 8.79 27 13.11 41 18.71 6 2.42.51 8.33-.18 12.42A839.55 839.55 0 00556.2 946.4zm-65.84-65.86c-2.74 0-1.18-3.55-1.21-5.39-.23-13.32-.08-26.58-1.8-39.92-1.43-11.18 9.41-18.14 12.63-30.51 2.84 12.68-2.74 21.8-3.57 31.56-1.08 12.74-3.51 25.38-3.5 38.26 0 2.38.69 6.06-2.55 6zm-120 42.34c-1 22.62-4.57 46.06-6 68.89-.95-54.43-3.17-108.7-13.88-164.17 10.38 9.48 24.31 15.56 21.8 30-2.19 12.7-.17 25.28-2.43 37.94a71.62 71.62 0 00.49 27.34zM326.6 787.36c-27.84-33.15-36.49-79.24 7.94-102.58 11.16-6.93 23.35-9 35.53-9.3 12-.29 15.77 11.83 20.53 20.07 29.93 58.29 31.55 124.24 32 189-26.6-39.74-67.12-60.55-96-97.19zM322.93 534c-1-6.13-8.23-10.84-5.77-17.74 2.84-8 6.92-15.51 10.7-23.75 16.45 55.38 26.8 109.67 35 166.37 1.46 8.16-4.52 6.15-8 6.59-15 1.9-26.74 10.76-39.15 18-6.57 6.64 1.76-29.87-14.3-45.16-1.29-1.46.22-2.67 1.46-4 24.56-26.6 27.06-66.46 20.06-100.31zm54.17 83.71a58.92 58.92 0 01-9.71-42.56c21 7.24 54.07 47.86 57.46 70.66.77 3.28.23 6.17-4.6 5.25-19.76-3.98-32.49-17.26-43.15-33.35zm29.94 40c-7.8 4.25-12.55 14.15-25.49 9.47-11.19-4-7.31-12.51-9.77-18.62-2.8-6.93-2.1-15.26-3.23-25.83 9.87 15.56 25.53 27.94 38.45 34.98zm15 101.42a303.63 303.63 0 00-27.33-77.71c-1.1-2.14-1-3.77 1.28-4.17 11.56-8.12 25.95 35.79 28.4 43.6 13.1 37.59 17.89 81.24 9.91 120-.74-1.18-2-2.3-2.13-3.55-2.7-26.17-5.08-52.18-10.12-78.17zm31.2-141.86c2.69.21 1.28 4.33 1.71 6.74 1.11 6.32 2.07 12.68 3.59 18.9 1 4.12 1.38 4-14.51 4-12.75-3.36 6.26-10.29 3.69-15.55-.83-1.68 2.43-5.11 3.2-7.91.64-2.25-.35-6.38 2.33-6.18zM438.38 629c-.77 2.22-3.09 3.9-4.69 5.83-12.61-18.42-12.17-40.27-8.55-61.11 1.7-16.91 11.53-28.88 19.56-43.48 10.7 34.39 4.77 66.76-6.32 98.76zm-19.27-170.66c-.41-13.61 14.6-32.87 24.73-14.85 3.73 8 6.23 16.56 5.39 25.71-2.14 15.35-4.23 30.7-6.49 46-.19 1.27-1.59 2.37-2.43 3.55-10.83-18.48-23.86-37.26-21.2-60.41zm-126-119.75c-22.63-69.47-54.16-133.11-93.74-194.85 48.49 33.7 83.55 74.41 116.23 122.07 33 49 65.46 98.89 87.86 153.79 2.31 6.52 4.6 13.51 8.11 19.53 2.92 5-.39 8.61-1.21 12.24a60.43 60.43 0 006.1 43.53c41 64.43 4.67 15.33-3 95.86-21.31-101.12-52.15-204-109.52-290.56 0 1.64-.6 3.55 0 4.88 9 18.73 18.66 37.15 27.12 56.12 9.22 20.67 16.61 42.17 26.15 62.68a723.94 723.94 0 0142.54 140.92c1.38 9 2.08 19 7.21 28.84-14-11.39-27.17-29.43-45.4-28-6.21 8-5.53 2.8-6.85-2.68-6.43-37.1-25.9-73.18-19.74-111.21.37-12.32-2.1-22.6-14.76-29.64-4.44-2.47-4.8-12.77-6.47-19.63-5.33-21.82-12.74-42.92-20.66-63.89zm-1 153.15c-7.87-17.85-4.14-37.33 6.88-52.1 4.84-4.06 8.66-11.75 16.87-7.79 21.7 10.95-.83 68.44-9.81 85.57-4.38-9.26-9.96-16.91-13.93-25.68zm-1.41 107.17c1.62-29.12 7.36-51.87 19.7-72.57 12 22 7.62 48.95 3.1 72.81-2.42 10.35-9.62 17.51-13.35 26.77-.64 1.59-2.62 1.32-3-.92-2.04-10.42-6.86-20.3-6.45-26.09zm-1.27 42c8.08-.53 8 8.09 8.95 13.7a253.69 253.69 0 00-92.09 6.13c-12.89 4-26.37 6-38.62 12.06-.59.29-1.53-.14-3.28-.34 45.08-24.61 74.36-31.37 125.04-31.46zM152.83 501.5c-26.6-42.39-53.65-85.05-91-118.91-10.68-10.43-20-22.94-34.69-28.7 72.74 27 140.62 86.17 193 143.78 21.31 26.25 43.78 51.77 61.49 80.84 3.64 8.36-3.68 11 .68 22.26-9.85-11.49-22.26-19.28-35.82-25.58-10.76-5.48-14.62-17.19-21.43-26.19-12.22-14.14-26.14-41.19-43.39-47.66 16.36 24 33.43 47.08 49.06 71.09-.77.17-1.63.66-2.3.47-11.41-3.2-22.76-2.89-34.21-.05-4.86 1.2-3.77-4-4.65-5.94-10.26-22.97-23.34-44.29-36.74-65.41zm-27.22 179.11c19.28-32.43 19.07-79.62 59.7-94.82 38.09-15.43 89 2.26 101.52 42.91 1 2.83-.19 4.81-3.77 4.25-57.89-6.41-111.47 24-159.45 52.63a26.48 26.48 0 012-4.97zm-12.49 26.82c50-27 100.81-46.35 158.88-46.57 6.64-1 16.71.38 26.48 2.46 6.39 1.37 5.1 8.54 6.43 13.46C309 691.91 299 703.17 294.33 716c-9.06 22.09 10.31 34.23-9.26 40.7-34.48 16.05-73.39 7.51-108.23-2.76-11.95-3.84-104.53-32.78-63.72-46.51zm174.21 414.07c-7.56-5.43-39.81-17.31-38.36-24.14-.4-38.23-6.11-76.18-12.43-113.79-15.61-58.75-28.83-125.51-73.2-169.68-4.05-2.47-4.4 3.39-2.37 5.38 54.49 74.86 70.49 168.68 79.93 258.84 1.82 9.75 1.58 26.2-10.66 13.75-11.71-7.36-24.49-12.28-36.83-18.21-7.79-3.75-3.17-11-2.85-15.76-2.89-136.54-52.32-282.35-163.45-368 143.28 51.86 276.06 266.92 260.22 431.61zm1-100.51c-20.06-105.09-74.2-193.63-147.02-269.39 36.1 13.31 73.32 23.32 112.14 23.78 10.09-1.12 19.38 82.21 21.62 94.17 7.72 50.12 15.93 100.61 13.3 151.45zm11.11 106.72c-1-.53-2.26-1.72-2.3-2.66-1.07-21.25 1.58-42.39.7-63.8-1-24.16 1.37-48.61.14-72.94-4.58-70.44-12.76-141.48-30.52-209.83-4.88-12.11 13.78-4.35 27.71-19.63 2.45-2.36 3 1.78 3.32 2.53 8.77 22 24 39 39.8 56.14 4.85 5.26 5.52 15.16 6.41 23.12 9.69 68.93 11.55 138.6 10 208-1.7 29.66-3.28 59.37-9.31 88.62-.91 4.4.67 9.32 1.19 15.1-15.96-8.36-31.58-16.45-47.1-24.65zm105.15 54.89c-17-8.69-34.09-16.61-50.3-26-7.49-4.33-.69-12.12-.52-18.13 10.77-53.28 12.27-108.69 19.63-162.56 3.68-21.65 3.09-43.42 5-65.09 2.45-18.39-2.3-37.64 3.22-55.58a276.6 276.6 0 0136.23 39.55c12.21 16 6 34.11 6.25 51.42.44 79.46-13.8 157.39-19.47 236.39zm60.26-45.81c-11 95.67 7.36 77-49.85 51.91-7.85-3.27-2.75-9.16-2.45-12.8 6.49-71.74 17.25-143.12 20.05-215.18.82-17.32.71-34.71.51-52.06-.07-6.21 4-9.69 7.09-13.81 11.32-15.12 22.9-30 34.46-45.14 7.28 41.48 2.9 84.83 8.52 126.72 5.16 32.07 4.22 64.55 7.83 96.68 3.1 16.94-22.9 10.46-24 30.06-1.01 11.18-1.2 22.43-2.12 33.62zm108.52-19.69c-1 10.05-1.47 20.13-2.37 30.19-.44 4.79-5.7 5-8.48 6.86-31.2 19.93-61.23 43.52-94.22 60.14.68-27.67 3.89-55.72 6.34-83.36.73-8.92-5.06-23.2 11.42-15.91 28 11.73 56.77 10.37 85.25.4 1.43-.49 2.33-.7 2.1 1.68zm3.16-15.91c-2.87 16.72-94.82 15.19-97.17-.44 5.09-15.97 93.64-16.39 97.21.44zm64.17-351.82c-7.13 12.54-6.86 26.87-9.47 40.35-3.45 17.8-6.57 35.72-8.33 53.91-.73 7.55.35 16.21-3.52 23.74-5.17 78.4-4 159.68 18.61 235.92 1 2.67-2.08 2.79-3.85 3.92-10.46 6.64-20.75 13.56-30.91 20.66-4.37 3.05-6.22 2.05-10.07-10.41-12.07-32.86-17.22-67-21.33-101.67l1.31-.13c-6.08-58-8.82-116.95-2-174.92 2.06-32.32 11-63.4 15.82-95.3.46-3.67.95-3.28 4.6-3.16 9.22.3 18.16 2.84 27.77 1.67 5.87-.71 12.65.83 19.12.55 3.05-.13 3.06 3.44 2.25 4.87zm28.42-17.82c-47.61 7.31-101 6.13-139.35-26.67-5.71-5.48-5.84-13.37-9.48-19.66-5.71-9.85-14.62-16.82-22.66-24.58-10.14-9.79-15.71-35.46-9.92-47.93 3.71-8 12.36-4.47 17.91-4.33 42.87-1 85.15 15.43 123.55 33.11 36.86 17.8 64.07 52.27 100.34 70.1-19 11.94-39.33 16.12-60.39 19.96zm40-82.68c6.24 18.14 9.85 37.45 21.36 53.75-47.26-31-81.2-78.55-133-103.81-26.61-12.94-53.44-30.56-84.24-27.76 19.55-33.59 63.33-43.22 98.9-35.83 59.14 12.55 81.68 59.78 96.97 113.65zM952.48 329c-114.61 41.14-205 148.56-254.72 256.92-11.27-12.87-19.59-28.2-33.67-38.92-4.59-3.88 2-7 3.66-9.47 19.89-30 38-61.27 61.9-88.52 7.81-9.93 17-19.7 22.79-30.88-10.9 3-18.61 13.95-25.74 22.49-26.09 30.75-47.15 66.58-71.36 98.31-9.06 2.53-25.74-9.56-35.9-11.7-8.74-1.77-5.24-6.42-3-10 22.75-41.43 53.41-76.86 89.86-106.92 68.12-60 161.12-89 250.9-82.12-1.1 2.69-3.2.25-4.72.81zM440.1 73.43c34.19 6.89 42.27 29.47 54.94 58.35 5.71 11.8 5.82 12.08.19 13.45-40.37 7.32-75.83 59-47.42 95.7 20.25 24.35 50.2 27.8 78.64 21.32 5.2-1.19 11.68-13.28 19.33.07 11.44 19.93 30.3 31.83 53.05 34.43 53 7.71 77.24-31 86.39-19.2 18.87 17.9 47.07 14.71 68.48 2.49 4.26-2.37 8-11.47 15.75-4.09 37.6 32.67 55.47-14.41 71.52 7.92 27.3 29.86 78.12 18.08 104.44-7.69 16.7-14.86 29.35-32.76 29.88-56.21 0-1.75-.48-3.3-2.68-3.66-3.46-.56-4.44 3.31-5.62 5.93-14.37 37.63-48.9 73.44-93 64.76-34.34-4.64-35.1-38.55-45.71-26.2-12 15.05-41.36 24.06-53.82 6.2-3.17-5.34 8.08-11 10.66-16.41 4.86-2 2.75-12.9 8.67-10.1 14.87 7 28 4.35 41.57-2.48 4.15-2.09 10.69-5.51 13.17-3.86 40 21.42 91-11.82 102-53.1 5.26-18.29-7.59-46.59-25.93-51.53-10.17-2.73-6-5.45-2.76-10.29 26.33-38.75-16.75-71.52-52.2-62.19-14.47 3.78-22.29 4.37-33.84-8.83-19-25.66-94.46-21.66-92.32 20.79 2 12.9 6.16 27.21 22.54 31.49a11.13 11.13 0 0012.33-6.07c-13.11-2.29-27.18-14.87-23.6-29.24 4.16-15.59 17.28-18.51 30.67-20 25.35-2.76 46.5 6.9 54.67 30.82 2.64 7.71 8.07 7.34 12.25 2.24 15.79-23.83 69.4-6.5 64.4 17.86-3.86 17.56-11.93 32.24-30.12 38.77-2.69 1-4.65 5.21-8.27 2.43-18.17-13.94-37.7-12.8-56.89-3.63-23.28 11.13-42.08 29.95-66.79 39.15-9.87 3.67-30.54 1.59-31.52-6.25-1.23-9.74 1.28-18.89 9.81-24.53 9.38-6.2 19.72-10.17 31.47-7.41 2.53.6 4.52 7.34 7.72 1.08 2.73-5.34-1-8.49-5-10.64-12.82-6.88-42.26 2.94-49.91 16.42-7.55 7.07-6-23.51-49.67-27.3 23.15-6.73 28.53-47.78 16.13-66.29-28.13-42-87.5-20.8-96.4 20.08-30.54 14.67-17.44-2.53-44.07-8.24C503.47 55.43 471.84 45.27 468.1 0c-.36-2.3-1.29-4.17-4-4-7.29 1-5.95 10.89-3.26 15.6 14 80 90.2 29.48 107.75 88.91 7.94 52.45-58 55.86-71.52 12.11-9.74-27.35-28.21-44.13-57.15-50.13-27-2.58-26.38-35-17-54.35.56-1.32.05-3.09 0-4.65-10.81 4.14-13.59 17.31-15.2 28.19-2.79 26.56 12.17 36.09 32.38 41.75zm450.07 85.32c-3.22-13 3.42-12.89 10.06-16.21s12.39-10.52 21.51-5c9.69 5.89 19.2 20.81 19.2 33.63-4.32 32-42.13 61.35-75.31 55.92-2.56-.65-6.3 3.24-8-.89 20.09-16.32 39.93-39.69 32.54-67.45zm-173.8 18.38C752.44 209.4 796.2 159 829.52 144c43.79-17.92 65.24 22.41 39.48 55-12.06 16.42-51.94 46.68-72.9 28.32-7.73-6.89-12.39.71-14.79 6.39-13.31 31.83-64.89 64.48-90.8 32.29-11.51-22-19.09 12.2-66 19.1-27.64 5.79-61.76-5.29-71.69-33.54-4.24-22-54.24 28.34-95.08-14.57-23.26-25.07-4-62.56 21.43-76.65 9.76-7.38 15.91-1.49 17.15 8.83 5.18 27.09 37.13 38.49 62.13 36.9 4.06.18 9.32-1.9 6.72 6.66-5.3 17.45 12.68 42.91 30.39 46.53 26.56 5.42 66.41-19.82 70.31-46.67.75-4 4-4.82 7.7-5.25 17-1.3 28.52-15.65 36.31-29 1.77-3.1 2.57-5.67 6.49-1.21zm-113.54 52.05c1.17 3.62 2.74 1 4.39.22 10.47-4.78 17.78-22.14 13.28-32.4-4.34-9-13.84-9.16-22.38-12.72 14.64-7.27 29-8.3 42.08-1.82 39.91 19.38-5.67 66.93-37.57 64.65-29.3-1.35-38.93-37.23-13.09-50.72 6.8-4.18 18.46-1.68 22.55 7.17 5.76 13.52-11.91 17.69-9.26 25.62zM595.9 61.4c24-40.81 91-33.33 83.76 21.74-5.49 19.46-26.72 36.84-40.31 35.92-4.4-.3-5.18-1.34-3.42-5.25 5.94-13.17-7.19-38.2-21.31-40.87-5.87-1.11-11.68-2.68-17.59-3.41-10.3-1.27-1.61-7.37-1.13-8.13zm-17.43 41.69c-2.45-6.14-.39-13.15-5-19.09-2.21-2.84 3.07-2.73 4.91-3.62 17-8.27 45.28 4 49.35 21.32 3.52 27-36.29 55.55-64.74 42.88 11.01-6.18 19.78-30.69 15.48-41.49zm-68.87 42.2c26.27 16.38 35.73-1.28 61 9.77 39.39 8.26 64.25-34.94 103.76-30.26 71.62 16.52.7 97.88-8.32 68.12-13-38.17-71.3-32.36-89.94-1.07-4.24 5.8-13.42 4.46-20.06 4.64-21.92 2-45.14-12.69-52.6-33.37-1.73-7.51 4.07-13.12 6.16-17.83zM40.35 71c7.91 4.85 17.26 4.1 25.87 5.61C94 83.19 105 61.3 113.64 75.46c6.08 9 13.68 17.13 23.41 22.79 14.89 8.66 30 10.68 46 2.84 4.95-2.44 6.36-9.7 14.51-8.24 11.23 2 21.32-2.2 29.86-10 24.48-25 6.6.54 51.65-9.63 22.56-.92 63.48-58.22 39.55-74-4.72.05-3.62 4.86-3.62 8.33-1.06 28-21.7 56.23-51.1 57.11-28 2.93-11.75-6.51-10.78-23.06 1.91-14.82-20.25-27.66-32.94-28.45C180 7.28 142 59.23 181.06 87.44c11.47 12.44-44.76 14.56-60.44-18-3.65-6.93-8.23-24.77-21.82-7.08-30.91 13-65.07 0-87.79-22.63-2-1.94-4.69-6.63-7.8-4C-4.16 48.87 31.45 65.48 40.35 71zm137.42-27.29c14.89-22.59 36.86-28 60.08-12.16 3.1 2.12 5.33 6.94 4.78 11.84-6.26 20.29-28.39 49-53 37.86-13.1-5.74-20.18-24.91-11.86-37.54z"/></g><g id="Red_Japanese_Frames" data-name="Red Japanese Frames"><path class="cls-9" d="M0 20v1560a20 20 0 0020 20h936a20 20 0 0020-20V20a20 20 0 00-20-20H20A20 20 0 000 20zm924 1528H52V52h872z"/><path d="M952.1 15.41l-23.41 23.42a4 4 0 01-2.83 1.17H50.14a4 4 0 01-2.83-1.17L23.9 15.41A2 2 0 0125.31 12h925.38a2 2 0 011.41 3.41zM40 1549.86V50.14a4 4 0 00-1.17-2.83L15.41 23.9A2 2 0 0012 25.31v1549.38a2 2 0 003.41 1.41l23.42-23.41a4 4 0 001.17-2.83zM936 50.14v1499.72a4 4 0 001.17 2.83l23.42 23.41a2 2 0 003.41-1.41V25.31a2 2 0 00-3.41-1.41l-23.42 23.41a4 4 0 00-1.17 2.83zM925.86 1560H50.14a4 4 0 00-2.83 1.17l-20 20a4 4 0 002.83 6.83h920.55a2 2 0 001.41-3.41l-23.41-23.42a4 4 0 00-2.83-1.17z" fill="#992d17"/></g></svg>