<svg xmlns="http://www.w3.org/2000/svg" width="976" height="1600"><defs><clipPath id="clip-path"><path d="M960 22v1556a6 6 0 01-6 6H22a6 6 0 01-6-6V22a6 6 0 016-6h932a6 6 0 016 6z" fill="none"/></clipPath><style>.cls-7{fill:#592116}</style></defs><path d="M960 22v1556a6 6 0 01-6 6H22a6 6 0 01-6-6V22a6 6 0 016-6h932a6 6 0 016 6z" fill="#f4f3ef" id="Paper_Backing" data-name="Paper Backing"/><g clip-path="url(#clip-path)" id="Wikipedia_Cropped" data-name="Wikipedia Cropped"><path d="M434.47 1288.88c-65.17-10.39-131.57-15-197-21.8-31.77.49-44.58 2.15-20.15-30.85 60.57-96.47 120.21-195.52 161.2-301.72C423.65 798.07 455.3 653 469.59 510.36c3.29-58.52 11.3-117.11 9.26-175.64.85-19.33 17.88-7.23 28.91-10.49 274 11.47 229.55-79.86 212.94 145.82C701 724.1 616 1108.86 437.47 1291.88z" fill="#6060bf"/><path d="M277.27 1505.46c-8.3-2.54-2.08-17-1.43-23.51 5.72-29.48 24.42-52.92 37.32-79-7.41-15.81-58.8-8.33-57.2-19.73 27.73-45.9 75.68-90 129.78-96.32 16.78-3.54 49.71 15.79 62.62 1 17.2-22.61 31.31-53.17 52.57-69.66 15.65 8.74 45.5 7 52.71-11.56 8.42-16.9 11 30.19 35 27.13 11.74 3.68-6 35.78 7.52 42 2.41 32.69 23.4 41.06 48.28 43.92 6.78 71.68-47.63 131.7-100.2 174.6-19 28.72-28-14-32.13-29.54-1.4-5.09-7.59-5.36-10.92-2.09-23.74 14-48.62 11.26-73.71 12.37-46 1.93-105.8 10.09-150.21 30.39zM844.64 1495c-36.58 4.09-60.44-21.94-79.46-43.19-60.1 32.6-70.94 11.23-80.66-49.64.55-31.1-11.74-89.79 26.74-97.11 16.3-9.34 24-26.48 33.57-42.16 9.54-12.19 24.15-16.91 27.56-33.18 2.18-5.65 8-10.33 3.25-16.45-8.1-22.56 46.36 21.67 56-18.24 6.4-36 121.17 34.39 119.25 58.88-5 12.1-18.76 20-28.22 28.47-12.33 6.06 21.32 35.85 12 66.73-2.65 43.64-20 93.09-15 140.67-4.65 2.83-10.65 1.84-16.23.65-19.6-4.43-37.92 6.89-58.8 4.57zM232.87 895.08c-41.21.86-84-8.35-124.5-2.41-13.32-3.43 3.23-17.14 5.71-23.76 45.37-62.89 34.26-32.3-20.77-63.27-29.45-19.85-69.07-36.48-83.06-67.79 13.48-6.15 31.34-6.16 45.93-14.38 37.58-13.69 70.7-38.4 111.16-44 16.17-8.84-15.89-38.28-23.1-48.87-6.55-7.84-3.1-10.81 4.55-12.61 68.94-34.23 155.89-20.13 219.38 21.14 86.28 54.16 67.34 70.83 46.11 153.4-3.91 91.47-109.82 103.91-181.41 102.55zM718 885.9c-12.11-12.92-11.77-26-33.74-26.58C644 859.48 664 828 669.28 804c.92-4.7 7.9-4.15 9.29-8.55-4.26-14.61 4.64-27.5 11.37-39.69-17.9-73.38 48.45-99.56 110.91-104.52 27.9-4.53 56.32-5.89 83.87-12.21 6.39-.21 20.09-14.58 22.33-3.4-11.82 127.4-99.48 124.48-37.79 160.58 60.32 29.12-67.77 86.52-93.77 87.33-5.41 2.25-11.61-3.75-13.44-7.18-13.15-16.45-34.05 2.16-44.05 9.54zM444.45 638.8c-12.15-15.21-2.71-46.27-14.12-63.5-4.1-1.85-9.24 1-11-5-39.77-120.48-190.17-43.86-132-97 13.58-15 43.7-26.53 65.63-28.93 16.23-3.42 30 15.45 43.93 14.57 1.94-30.22-24.57-64.18-36-93.52-1.3-8.77-10.91-5.13-17.11-6.68-9.51-.23-46.74-13.73-33.71-27.32 20.18-.08 40.81.7 54.44-13.67 22.47-10.81.45-28.34 25.89-31.53 12-16.94 22.1 5.93 16.67 19.19-1.2 5.44-9.15 9.17-5.05 15 4.8 8.81-14.6 16.92-4.71 24.36 25.65 55.67 73.81 138.63 64.26 205.07-3.24 24.59-7.35 50-11.15 73.94-1.19.12.3 16.04-5.97 15.02zm271.17-60.34c-8.12-5.31 1.32-38.23 5.25-48 .71-8.85-4.2-18.6 0-28.25-.35-21.45 16.81-29.29 27.22-43.29 37.26-59.34 104-51.55 146-8.34-10.67 10-33.06 7-47.09 12.32-55.37 18.78-93.35 76.77-131.38 115.56zM152.68 394.62c-15.88-3.77-16.08-2.64-9.5-18.83 9.4-39.77 42.07-77.14 85.85-76.65 11.11-.43 8.42 16.95 17.59 18.43 7.8 1.26 25.93 6 27 14.57-21.05 14.95-56.51 10.38-79.17 26.89-16.45 7.72-26.28 27.2-41.77 35.59zm274.5-137.08c-13.72-2.77-2.49-20.91-5.42-28.75-1.38-5.92-3.87-27.81 7.56-22.76 39.21 4.56 112.06.1 130.29 39.85 9.57 2.92 2.27 10.85-5 8.91-42.47-10.69-84.44-2.24-127.43 2.75zM200 242.33c-13.58-5-24.44-21.76-39.32-25.56-21.7-9.94-53.52 10-72-2.3 14-23.88 46.46-41.91 77.14-44.83 19 3.24 49.19 5.26 41 30.79-3.82 9.87 11.18 35.73-6.82 41.9zm211.63-54.42c-9.32.11-10.7-10.08-17.91-11.9-42-14.67 26.75-36 40.42-46.38 28.5-12.79 56.1 11.19 81.22 21.56 5.16 4.14-2.56 10.5 1.52 16.3-43.73 11.73-51.42-20.22-105.27 20.42z" fill="#50b271"/><path d="M633.56 1316.37c-54.08-6.51-24.68-65.79-39.62-83.41-24.41 3.54-27-36-39.77-24.51-6.47 16.27-66.56 22.9-48-4.44 26.42-45.13 53.06-87 73.37-135.3 20.1-42.11 36.74-85.92 51.5-128.64 3.18-19.68 13.27-41.58 18.51-60.32-.87-11.63 5.37-31.48 20.37-21.57 14.41 5.43 30.87.54 39.61 19.06 2.25 3.94 2.46 10.69 8.31 10.6C728 882.67 734 869 746.41 871c16.06-.74 22.21 19.35 39.26 19.85 13.31 2.64 21.67 12.82 22.92 27.93 4 12.71 19.59 26.5 18.48 39.95-10.22 32.35 12.27 11.39 26.1 25.65 11.45 16.94-1.68 38.38 19.74 57.63 6.85 12.16 5.34 25.21-4.07 34.91-12.73 14.88-5.47 43.09-27.58 50.06a6 6 0 00-1.61 10.13c10.19 8.52 9.6 26.46-1.47 34.47-5 8.4-3 19.45-9.35 27.73-19.44 33.18-57.82-12-59.38 10.09 11.87 37.35-24.31 39.31-33.51 66.26-21.91 48.37-64.9 26.59-102.38 40.67zM311.94 329.91c-30.29.11-70.69-5.57-79-36.6-29.54-.17-44.32-37.38-23.67-59.58 6.32-8 .72-20.47-.47-30.38-7.88-18.87 42.64-62.18 57.86-59.92 26.62-7.76 36.2 37 47.73 24.23 10.37-17.29 22.16-21 39.37-21.61 22.91 5.43 24.21 29.56 45.62 37.91 27.88 20.25 16.2 31.55 18.69 55.27 6.05 22.87-13.93 42.46-33.07 47.93-3.66-.65-7.8 1-8.27 5.13-3.73 29.59-37.89 39.12-64.79 37.62z" fill="#d81e1e"/><path class="cls-7" d="M961.24 1528.42c-.08 11.64-8.63 14.08-16.56 14.14-6.49 0-6-7.52-6.49-12.36-2.92-17.31 24.23-19.28 23.05-1.78zM942.72 110.91c-18.78-1.79-17.49 28.66.77 26 5.77-.59 11.52-2.88 10.42-7-1.62-10.86-.3-19.06-11.19-19zm-19.39 1355.27c-2 10.58 10.54 39.52-10.63 30.78-15.55-6.08-30.18 1.56-45.15 3.18-36.5 4.68-79.83-.86-97.32-38.07-5.63-12-13 .34-19.21 2.11-14.89 4.26-30.32 13.21-45 6.16-27.57-19.07-30.61-77.36-28.8-108.54.78-15.46 2.54-30.87 9-45.69 2.41-5.51-5.85-1.58-8-1.65-8.38-.28-16.82 1.62-25.26 2.58-1.92.22-2.07 1.19-1.89 2.7a119.48 119.48 0 01-8.48 61.81c-20.83 54.17-65.13 93.65-108.29 130.6-9.23 8.84-10.74-5.13-12.59-8.26-6.71-11.38-13.29-23.28-14.76-36.94-.16-1.48-.4-2.32-2-1.17-25 17.61-53.9 13.44-82 15.8-47.93 4.72-99.63 9-143.46 30.18-24.69 17.89-5.95-45.15-2.33-53.31a150.67 150.67 0 0119.46-37.88c7.9-9.84 17.81-19.54-1.54-21.22-12.65-2.76-25.72-3.65-38.33-6.55-26.66-10 40.41-72 53.84-77.74 15-8.64 28.19-20.58 44.33-27-14.15-4.9-28.65-2.38-42.74-4.72-21.07-3.5-42.39-7.12-63.63-7.33-13-.12-25.44-4.06-38.21-2.74-15.6-.19-19.91-11.47-11.09-23.12 72.75-122.84 153.24-246.44 191.12-384.9-69 44.37-154.6 38.51-233.09 34.76-18-.48-36-3.52-53.92.85-12 2.72-13.1-4-7.45-12.58 44.49-89.49 67.23-37.48-13.76-81.58-13.31-8.18-25.86-18-38.93-26.33-14.93-9.54-25.8-21.93-36.52-35-9-10.91-4.77-16.53 8.59-16.5C69.61 722 114 675.52 169.14 675.41 159 658.85 149.43 643.2 137.7 629c-13.49-19.55 42.58-29.05 55.44-33.26 89.72-17.78 181.25 23.17 240.39 90.09 13.88-52.74-12-108.1-40.41-151.73-25.82-31.44-84.31-34.63-122.06-33.23-9.42-.54-37.08-2.24-20.95-15.52A214 214 0 01312 450.8c28.11-14.52 55.76-18.65 80.67 4.94-8.64-31.41-22.38-62.08-38.29-90.51-1.3-2.11-8-.77-12.21-1.21-13.94-1.46-26-6.8-35.34-17.55-10.4-12-20.86-12.46-36.37-6.47-15.32 5.93-31.82 8.76-47.77 13.07-37.77 7.89-59.52 41.49-84.46 67.79-4 4.49-8.73 2.91-12.74 1.73-3.71-1.09-1.09-5-.48-7.4 9.08-33.25 21.57-66.43 41.39-95 13.51-15.62 32.87-18.74 51.31-24.21-13.62-12.33-27.71-24.34-23.22-45.53 2.21-11.12-11.23-11.58-17.1-17.28-19.14-18.61-42.51-9.88-64.65-8.45q-17.45 1.13-34.86 2.33c-4.54.31-9.1-.78-13.64 1.63-10.5 4.44-5.31-8.42.27-11.93 38.51-30.32 90.37-72.27 139.78-39.92 14.65-.23 35.38-34.61 55.62-39.76 11.87-4.5 37.79 6.43 43.26 18.11 1.49 3.18 4.46 5.68 6.74 8.48 10.21-19.66 45.65-31.66 56.88-18.15 16.34 19.72 24.87.73 35.45-3.64C423.07 131 445 112.59 470.1 123.39c16.43 6.5 77.37 34.3 80.63 50.18-12.26 9.45-54.52 1.72-69.91-1.2-25.05-5.67-43.85 4.44-62.92 16.95-.6.4-.87 2.72-.49 3 3.89 2.66 1.42 10.82 8 10.47 49.79-.71 103.07 6.69 145.36 34.23 7.35 4.72 14 10.56 21 15.8 7.7 5.4 1.2 12.4-6.49 11.11-26.61-.6-51.74-12.65-78.54-10.69-27.34 2-54.75 4.21-81.72 8.78-27.72 9.83 1.81 40.24-22.3 73.14-6.54 9.82 3.87 15 7.19 21.36 21 45.13 43.85 88.28 51.41 138.24 4.71-9.94 2.49-18.65 3.53-26.94 2.06-16.43.75-33.24 2.63-49.49 2.52-21.79 4.3-43.68 5.4-65.48a187.9 187.9 0 00-.23-26.82c-1-10.8 8.14-4.26 9.73-4.37 74.1-4 148.46-6.37 222.34-11.21 9.34-2.66 18.66-.12 27.93-1.41 4.53-.64 4.47 2.8 4.38 6-.85 53.61-3.6 106.92-9.5 160.23 23.78-22.8 40.16-59.11 75.33-64.09 36.8-5.23 67.07 12.55 97.71 29.78 4.27 1.91 7.31 4.82 6.5 9.69-.72 4.34-5.45 2.92-8.21 4.36-19.29 10-41.58 8.51-61.68 15.87-30 15.19-52.39 41-76.24 64.17-11.61 14.64-45.75 44.09-45.93 61.09-1.07 22.63-6.32 44.65-9.7 66.94-.62 4.08-1.91 9.91.14 12.12 3.64 3.92 6.86-2 9.8-3.84 40.37-26.71 91.23-26.37 137.7-32.72 20-2.2 40.14-5.4 57.29-18.75 4.2-3.28 5.31 5.17 4.63 8.85-9.49 64.49-22.41 97.71-65.53 147.47 25.4 9.89 60.13 41.25 25.68 64.41-26 21.22-51.89 41.34-86 47.16 16 3.16 20.84 13.59 22.82 25.45s13.13 17.91 16.57 29 7.31 21.18-.63 31.9c20.24-5.1 38.15 4.45 36.15 23.73-2.15 20.64 10.59 33.13 16.76 49.1 9.34 22.23-15.45 34-15.64 54.47-.61 14.49-10.29 27.85-23.84 32.59 12.68 7.1 12.72 16.92.49 43.67 42.67 10.1 85.42 29.37 111.13 66.67 6.11 8.42-.73 23.87-10.56 29.14-6.5 3.49-11.61 9.62-17.07 14.85-.67.63-.19 3.38.64 4.53 11.41 15.84 17.31 33.45 15 52.89-4.98 40.15-12.84 80.09-17.51 120.41zM425 226.35c43-2 85.85-5.66 127.14 11.3-10.49-9-21.85-14.4-32.6-15.86-29.66-6.11-58.9-12.93-89.53-10.87-1.6 0-4-3.31-4.38-1.19-1.08 5.39-.78 11.07-.63 16.62zm0 24c.56 2.39.13 3.6 3.63 3 20.33-2.93 40.92-4.12 61.24-7.17 13.45-2 26.95-2.7 40.2.22 9.51 2.1 18.69 5.44 30.25 4-36.09-18.1-75.89-19.93-115.4-15.78C434 236 420.24 230.25 425 250.36zm398.37 885.26c-16.4 3.65-30.88-16.8-36.2 3.52-6.46 40.07-35.34 38.85-18 52 16.13 13.34 40.71 27.36 56.45 5.86 5.83-7.89 3.84-18.88 9.18-27.46 3-4.74 9.59-7.72 8.13-14.39.07-12.64-7.71-19.08-19.59-19.52zm-292.11 33.27c-6.82 11.22-13.49 22.6-19.17 34.42-1.78 3.7-8.63 6.18-5.79 10.12 7.81 10.86 38.14 4 45-7.85 9.43-16.4 2.48-36.43 13.72-52.25-6.3 6.11-13.58 9.66-21 13.16-4.25 1.98-9.91-2.32-12.79 2.41zm38.94-69.48c-11 20.14-21.69 39.69-32.35 59.26 26.95-3.89 37.9-40.13 32.32-59.25zm-70.44 123.22c-4.86 5-10 10.91-13.25 16.92-9.16 17.07-23 30.51-34.15 48.87 4.33-4.47 8-2.05 11-2.66 53.89-13 63.78 39.66 93.77 18 17.78-16.62 36.17-39.83 31.08-66-18.29-2.27-26.48-14.12-30.55-30.87-.59 13.21-31 24.52-41.9 21.09-5.43-2.27-14.32-7.1-16.03-5.34zm100.58 6.45c9.3-.39 18.9-1.74 27.94 2.19 26.86 10.45 37.51-29 64.64-26.27 10.81.49 12.67-8.14 13.62-15.09 1-7.17-4.49-13.18-10.66-16.64-11.93-6.71-23.79-13.28-32.49-24.26a12.62 12.62 0 00-3.53-2.45c-7.48 10.41-21.71 13.17-27.87 25.34-5.61 11.09-20.53 13.81-31.34 7.55-12.33-6.84-16.63-19.06-23.08-30.25-14.9 26.43-21.1 82.32 22.74 79.89zm130.52-155.59c2.32-7.15-.85-15.56-5-20.36-16.15-18.58-15.66-41.26-19.17-63.25-1.08-6.72-2.59-14-11.85-17.28a39.27 39.27 0 00-47.47 20.48c-2.82 8.12-4.27 16.64-10.61 23-2.39 2.41-2.74 5.33-.43 7.37 16.5 14.63 14.75 36.87 5.72 56.26-1.15 2.47-9.92 5.39-2.32 11.45 11.56 9.22 24.57 14.12 38.54 18.37 20.1 6.18 56.22-7.16 52.56-36.03zm-98.5 17.87c-16.89 9.74-53 17.13-49.23 42.21.69 19.89 19.75 55.55 41.73 34.62 6.15-6.67 10.61-15.53 19.37-18.89 9.2-3.52 12.85-9.51 13-22.28 1.35-15.64-17.23-22.24-24.9-35.65zm103.46-38c4.06 8.36 2.37 23.87 19.28 19.09 22 2.41 51.84-13.18 40.71-40.92-5.38-12.63-16.79-21.15-21.54-33.94-2.53-6.82-3.47-14.47-7.1-20.58-7.38-12.42-32-15.3-43.71-5.88-3.5 2.8-11.18 3.57-9.71 8.77 8.53 37.6-.75 36.28 22.04 73.51zm4.7-104.3c-3.6-8.92-12.45-11-19.88-15.09-14.33-5-31.3-38.17-41.35-32.31-1.37.45-3 3.55-2.7 5.12 2.39 13.16-4.17 23.46-10.17 34-3.51 6.2-13 9.29-13.8 14.24-1.1 6.6 1 14.23-2.2 22.81C688 940 703 982.44 718.28 965c2.53-3.15 7.46-2.79 10.78-4.43 4.66-2.34 16.27.52 11.43-11.47zM705.9 879c-6.17-12.88-18.23-13.69-30.49-14.7-5.32-.45-11.49-5.94-15.42-4.4-5.74 2.24-4.38 10.86-6.69 16.53-1.16 2.87 2.44 3.83 4.87 4.81 8.33 1.92 11.33 15.53 16.94 13.58 3.59 1.84 6.22-2.71 10.73-1 7.61 3 13.23 7.9 18.52 13.57 1.86 2 3.52 2.4 4.37-.32 3.02-9.7 1.44-19.18-2.83-28.07zm-57.26 13.79c-5.67 13.26-5.16 28.37-13.11 40.83-1.1 1.71-1 6.24.07 6.91 4.43 2.71 12.1 7.48 13.85 6 16.5-12.66 27.2-42.39 6.44-56.18-2.51-1.88-4.81-3.29-7.25 2.41zm-15 56.44c-3.72-1.26-3.82 3.62-4 4.61-2.74 13.05-7.88 25.89-13.5 37.16-7.24 14.51-1 18.32 9.13 23.63 2.55 1.34 3.88 1.44 5.3-.9 9-14.83 11.18-31.71 14.39-46 1.04-9.65-2.96-15.6-11.32-18.53zm-23.93 66.17c-6.09-3.32-8.06 17.7-11.43 21.77-4.93 11.15-10.08 22.2-15.15 33.29-1.78 7.6-14.09 19.56-3.88 25 5.09-1.84 6.66-16.86 10.31-22.09 4-6.57 16.83-38 23.07-37.63 2.12.47 3.4 3.78 2.28 6.25-8.36 18.51-17.07 36.88-25.12 55.53-.78 1.82-5.75 6.34-1.11 6.78 4.25.41 10.88-3.33 11.94-8.39 3.27-15.65 12.42-28.45 19-42.47.75-1.6 2.77-3.77 5.22-1.91 1 .74 2.18 2.68 1.85 3.43-5.59 12.52-11.4 24.93-17.31 37.7 44.54-13.43 35.39-64.72.33-77.29zm130.07 159.91c29.63 1.16 32.78-21.26 41.32-43.06 6.37-12.32 22.49-21.49 13.48-38.33-3.61-6.77-4.81-18.68-18.63-15.09-11.35 3-23.22 5.24-34.61-.67-3 37.42-48.05 51.15-84.1 32.88 12.93 21 1.32 22.18 7.84 29 20.92 19.12 44.73 36.1 74.7 35.24zm81.77-190.23c-10.84 3-15.8 15.66-27.62 17.28-7.16 1-4 4.24-1.36 7 21 22 20.26 42.77-2.46 62.86-1.31 1.16-1.13 1.59.2 2.94 10.86 11.05 18.91 23.45 12.5 39.59-6.24 14.79 22.49 11.74 30.67 10.47 28.76-4.69 17-34 32.49-51 7.43-7.67 10-18.52 3.45-30.16-6.39-11.33-19-20.65-14.75-33.65 2.88-30.34-13.47-30.81-33.12-25.36zm-36.66-90.23c-11.74-2.32-20.95-7.81-28.32-17.18-19.44-10.41-33.63 10-39.53 29-1.3 3.56-5.12 9.16-4.17 10.08C726 929.65 751 932.17 751 955.18c0 2.12 1.33 1.44 2.49 1.88 40.05 11.35 14.43 47.72 42.78 34.86 10-8.56 27-17.43 26.77-32.88-.68-18.66-15.9-25.56-18.48-39.89-.94-11.85-6.79-21.78-19.67-24.33zm-84.7-198.63c-4.47 15.55-9.5 32.46-10 48.63 9.35-13.52 16.27-28.85 24.91-42.85.77-1.32 2.84-1.89 4.3-2.82.37 2 1.68 4.4 1 5.82-8.77 17.56-18 34.9-26.77 52.47-4.72 9.44-11.39 18.12-12.79 29.9 13.73-7.12 26.75-13.68 39.56-20.62 4.08-2.21 10.2-4.88 10.93-8.3 3.47-17.2 33.53-73.91 52.31-73.06-.09 1.32.35 3.24-.36 3.88-18.83 18.59-27.6 41.21-41.36 64.4C783.13 731.51 819 705 855.06 675.86c2.55-2 5.21-4.53 8.81-1.93 1.56 1.12 1.48 2.45 0 3.72-26.09 24.79-51.06 41.65-82 63.76 19.35-2.32 35.87-4.38 52.42-6.22 2.1-.23 5.5-.06 6.24 1.17 4.36 7.1-26.11 7.27-30.72 10.94-15.66 5.88-33.3-7.11-47.94 5.72-23.8 15.93-50.51 27.44-75.35 41.75-.82.44-3.51-.79-2.36 1.7 8.08 5.47 19.55 7.21 29 9.7 7.27 1.25 15.55 7.78 21.35 3.64 20.71-14.13 44.66-26.95 70.37-26.91 5.71-.06 8 6.46 1 6.25-20.1 2.91-37.82 12.3-55.85 20.78-1.57.74-2.6 2.65-3.87 4 25.82 7.07 53.36-.35 79.8-1 2.59-.21 3.6 1.62 4.21 3.38.18.54-1.68 2.51-2.76 2.65-40.63 7-74.32 9.28-114.18-3.41 19 25.32 49.14 24.87 76.21 31.94.06 0 0 1.46-.2 1.54-13.21 7.27-27.23.38-40.85-2-17.6-4.21-34.27-12.89-44-27-8.14-11.79-20-10.66-29.35-16.75-.19-.13-1.75 1.08-2 1.86-2.76 10-5.89 20-7.85 30.23-.94 5-7 11.31.8 15.37 5.64 2.91 12 3.86 18.62 4.66 16.29 1 28 10.14 33.26 26.55 1.63-1.27 3.94-2.2 4.79-3.87 6.15-12.08 34.84-17.34 42.76-3.65 1.48 2.55 5.26 6 7.31 5.63 17.9-3.47 35.52-6.63 52-16.51 18.09-10.86 35.47-22.32 50.68-36.72 4.36-4.11 14-9.65 2.1-18.56-11.33-8.5-21-19.18-34.06-25.51-3.3-1.6-6.65-5.18-4.13-8.87 12.5-18.64 28.3-35.47 39.3-55 12.07-26.55 21.38-54.39 24.4-83.64-56.19 26.71-124.18 8.31-178.62 42-8.61 5.56-20.63 8.75-24.21 18.94zM890 450.38c-63.3-17.77-90 1.38-133.66 44.76-9 8.85-14.6 21.67-24.43 29.15-17.31 13.16-10.16 31.67-16.33 50.17 30.66-38.21 84.15-102.18 130.53-115.46 14.18-3 28.46-5.6 43.89-8.62zm-165.14 52.19a59 59 0 00-1.64 18.1C755 485 796.63 432.49 850 436.68c8.18 1.61 16.7 1.5 27 2.32a125 125 0 00-38.59-15.52c-41.07-13.31-66.4 9.89-89.7 41-9.51 11.62-24.66 19.84-23.85 38.09zM403.87 291c-4-17.43-10.3 3.72-17.89.92-6.67-2.47-5.73 8.87-6.39 13.46-2.43 11.88 29.88 13.81 24.28-14.38zm109-124.26c-38.63-20.91-76.39-16.73-110.11 11.8 17 18.86 18.77-24.3 76.42-15.16 11.87 1.5 23.42 4.86 33.74 3.4zm-128.5-1.36c9.81 14 18.45 2 25.87-1.95 13.3-7.05 26.27-15.42 40.94-18.15 21.33-4 40.89 6.43 62.34 9.46-24.44-9.82-50.2-33.23-77.66-21.57-17.32 8.68-34 18.68-50.9 28.18-1.58.96-2.26 1.65-.54 4.07zm-53.6 48.11c13.2 25.14 45.64 34.8 50.21 65.8-.36 4.51 4.06 4.43 7.19 3.2 11.12-7.94 26.18-15.67 26.66-31.19 0-11.89-3.64-23.77.21-33.7 0-15.28-8.35-23.53-18-30.41-29.41-16-25.13-34.58-43.78-37.21C345 149 339 153.09 332 154.89c-6.72 1.72-18.28 19.11-18.47 26-.45 14.54 11.36 21.87 17.29 32.64zM99.53 203.15c21.35-7.83 43.19-16.05 66.05-17 13.64-.75 24.69 9.61 37.21 13.93.38-5 2.5-13.62.86-14.4-39.53-24.91-69.79-5.09-104.12 17.47zm102.89 8.26c-36.5-31.25-70.51-8-109.8 2.72 23.46 1.75 46.2-8.54 69.39-1.13 12.51 4.48 22.06 13 31.83 21.45 2 1.69 5.15 4.39 6.61 3.79 5.09-2.09 6.73-23.51 1.97-26.83zm30.18 73.87c14.52-21.56 26-44.17 31.19-70.07 2.93-14.58 13.2-26 28.63-26.3 11.26-.21 14.64-.59 10.71-12.54-6-18.18-17.8-29.31-34.28-29.31-17.17-.9-21.54 10.49-32.51 20-12.35 9-26.14 16.28-23.59 35.79 1.44 11 7.22 23.59-.34 33.35-22.34 22.41 4.03 63.29 20.19 49.08zm-87.84 102.88c35.51-52 26.44-61.56 92.05-76.37-3.22-2.55-2.87-9.29-8.55-8.61-52.4 2.3-72.13 41.21-85.52 85.53.71-.15 1.74-.12 2.02-.55zm123.51-58.27c-24.42-16.15-73-6.81-89 19.59-8.82 13.75-17.74 27.4-26.57 41.14 36.06-38.43 55.14-46.44 107-55.71 2.05-1.23 13.9-1.91 8.57-5.02zm72.38-6.57c40.86-9.12 39.72-51.74 10.71-74.18-13.84-8.07-23-20.14-30.53-33.93-5.47-10-13.18-17.6-25.52-18.12-14.7-.61-26 15.9-27.86 33.51-2.09 19.61-11.83 34.84-22.93 49.76-27.83 45.4 70.04 49.81 96.13 42.96zm55.78 5.36c1.29-1.59 1.58-4 2.33-6-23.26 3.42-21.13-12.63-31.37-2.22-15 15.65-36.61 14.78-57.3 14.9 7.85 13.3 21 17.31 34.29 19.37 23.03 3.54 38.62-9.51 52.05-26.05zM291.14 471.94c49.07-10.6 93.7-9.09 121.43 45.67-3.53-28-12.44-49.58-34.84-62.36-33.31-19.01-58.73 5.83-86.59 16.69zm134 97.76c-1.55-11.6-1.78-24.39-8.66-33.59-8-10.66-14.48-22.27-23-32.7-27.54-37-79.32-30.94-117.56-15 5.65 4.47 13 2 18.9 2 67.34 4.08 102.88 15.23 129.57 80.34.28-.34.79-.75.75-1.05zm19.44 65.1c4.53-28.49 9.22-57 13-85.55 1.35-10.58 4.66-21.84 2.45-31.76-4.87-21.84-11.81-43.34-19.49-64.4-11.71-32.09-24.54-63.8-40.31-94.17-1.69-3.27-2.33-17.49-13.09-8.06a61.37 61.37 0 01-22.72 12.63c44.42 85.16 70.79 175.61 80.16 271.31zm-42.12 190.61c2.23-11.43 6.89-22.52 7.91-34 .49-5.47 14.37-17.58-4.94-18-17-.36-35.16-7.82-48.3 11.58-5.8 8.56-19.79 13-22.72 21.75-9 27-27.73 51.6-55.49 60.83-5.48 1.5-7.37-4.39-2.25-6.49 21-9.7 38.63-27.75 46.53-50-45.73 26-95.72 44.7-147.67 53.17-1.52.25-4.44-2.06-5.08-3.78-.85-2.31 1.91-1.25 3.1-1.55 34.89-7.08 65-19.24 99.8-31.2-28-7.37-51.71-1.94-79.08 1.33-2.19.25-4.94-.2-5-2.79 0-1.11 2.81-2.75 4.59-3.24 18.64-7.1 38.13-5.63 57.54-7 14.05-.35 26.58 11.53 42.17 1.44 23.43-15.15 48.83-27.28 68.47-48-49-.36-102.35-17.11-147.18 10.7-7.78 6.63-57 28.24-63.6 16.85-1-2.36 2.34-3 4.26-3.61 26.09-5.06 45.77-16.46 73.46-28.94-39 3-71.6-.34-109.72-1.57-11-1.48-29.93-.19-36.19-11 38.53 1.63 76.51 2.84 115.37 4.91 27.52-.1 54.78-1.68 82.44-1-31-23.75-70-32.84-105.82-45.83 15.21-11.97 68.5 15.74 86.48 22.03 15.15 6 22.92 23.15 41.51 23.57 21.22.48 42.38 3.32 64.27 5.19-2.05-3.68-3-7.9-5.6-9.59-9.91-6.45-14.29-17.69-22.87-25.15-6.74-5.88-12.2-15.42-20.86-16.47-19.92-3-80.56-9.27-90.81-25.39-.17-.52 2.86-3 3.36-2.7 23.69 11.22 50.74 12 76 18-16.62-11.1-31.71-23.89-50.39-30.55-10.64-3.8-18-13.35-29.09-16.63-3.23-.95-10-1.33-7-7.23 2.49-4.9 7.74-.34 10.44.92 27.87 15.69 58.7 26.72 83.78 46.8 11.78 9.53 23.07 19.65 35.67 30.44-11.35-27.3-20.95-54.83-42.13-76.21-2.67-2.71-.47-6.82 3.21-4.34 9.61 5 15.6 13.6 21 22.44 8.7 14.32 16.75 28.91 21.56 45.28 2.33 7.93 1.69 16.85 4.63 23.36 3.77 8.35 11.23 15.72 17.23 23.26 10 12.59 28 3.88 40.78 11.3 3.59-14.68 7.31-29.33 10.49-44.1 1.61-7.55 5.72-17.39 2.64-22.63-40.39-60.52-119.47-97.5-191.27-98.75-29.82-.49-59.59 4.66-86.79 18.65-1.39.71-10.22.27-4.22 6.22 14.2 14.1 23.21 31.64 33.13 48.57 2.24 3.82 2 7-4.26 6.94-41.65 1-76.63 28.72-114.72 42.53-14.55 5.83-28.83 12-44.67 13.31-1.48.12-4.15-.49-1.65 2.39 3.82 4.39 7.18 9.31 11.56 13 32.93 26.22 67.81 53.36 109.29 63.87 5.14 1 12.28-1.82 15.05 4.36s-3.7 11-6.87 13.85c-15.52 14.1-24.52 32.66-36.19 49.37-.43.88-1 2.95.8 2.7 69.88-7.09 141.64 13 211.2-5.41 32.47-9.41 72.59-21.1 82.71-57.76zm-46.07 449.76c21 2.56 42.23 3.29 63.22 7 22.2 6.39 24.1 1.72 35.86-18.22 131.31-172 191.44-383.78 237.25-592 17.51-114.82 25.87-230.82 37.85-346.3.36-2.92 0-5.07-4.19-4.67-22.59.53-45.11 1.64-67.64 3.73-56.15 3.52-112.51 3.58-168.81 3.5-4.94.57-7.31-1.64-7.08 6.38 3 38.29-3.53 75.94-4.79 114.1-4.92 91.86-16.75 183.53-39 272.8-16.23 71.86-30.61 145.19-56.79 214.3-42.57 110.8-105.33 212.48-167.88 312.92-7.35 9.69-11.88 16.48 6.18 14.16 45.43 1.13 90.66 7.69 135.82 12.3zM636 1321.1c-25.78 3.79-41.42-21.77-43.72-44.73-3 7.25-9 17.47-14 22.39-25.74 29 27.35 35.11 20.58 105.14 0 1.76-.87 5.22-4.28 5.1-6.58 1-3.48-28.13-5.71-34-1.71-13.17-5.81-25.58-15-36.89-2.66 20.34-1.16 39.77-6.68 58.58-5.57 14.54-8.78 52.41-22.36 59.43-3-.37-2.18-3.32-1.75-4.82 8.41-22.65 12.07-46.69 17.82-70.11.26-1.17-.3-2.51-.48-3.78-13.49 13.09-25 28.87-31.73 46.82-.6 1.76-4.46 3.79-6.35 3.41-7.25-3.26 13.08-34.69 17.8-38.77 7.36-7.91 16.16-15.56 20.35-25.08 6.31-14.3 1.58-30.44 2.2-45.78.1-2.59-1.55-5.89-5.94-2-5.74 5-13.13 8.19-18.65 13.39-5.91 5.55-15.53 6.75-18.87 14.46-8.62 26.33-17.6 53-37.48 73.34-2.09 2.25-2.07 8.58-7.09 4.78-4.62-3.51-.23-7 2-10 13.61-19.78 28.79-41.17 33.82-64.59-18.38 10.85-38.54 21.22-55.27 34-2.17 13.38-32.22 65.27-45.69 65-2-.4-1.51-3.72-.15-5.56 12-16.69 27-32.9 33.47-52.44-11.42 3.2-20.1 11.09-30.14 16.68-22.38 12.47-44.61 25.08-61.67 44.85-1.28 1.49-2.2 4.6-5 2.52-9.82-6 34.89-41.35 42.94-45.26-3.42 0-5.71-.6-7.49.1q-24.6 9.69-49.05 19.82c-2.73 1.67-9.4 5.56-9.33-.4 14.44-13.89 42.46-23.26 62.32-28.35 9.15-1.85 19.49 2.23 27.71-5.24 19.58-13.53 39.91-22.41 61.74-35.13-20.86-3.43-38.26 4.22-56.33 5.79-2.27.2-5-.18-5.12-1.29-.73-11 56-16 65.95-15.53 4.31.11 9.45 1.32 12.8-.53 13.57-7.51 26.59-16 40.9-24.83-30.16-2-57.42-4-86.6 1.67-12.85 2.06-27.81.7-33.59 17.21a14.72 14.72 0 01-5.36 6.78c-8.27 5.81-39.67 28.37-48.08 19.18-.53-3 3.31-4.28 6-5.4 14.9-6.59 31.54-13.66 39.45-29-1.35-.29-2.87-1.14-4-.79-13.76 3.66-26.84 10.78-41.44 9.47-2.44-8.58 49.63-20.28 57.81-21.79 33.44-8.59 69.22-6.51 103-6.43-26.68-34.8-71.22-7.13-106-18.1-22.27-4.68-43.95-6-63.41 5.48-35 23-72 46.16-91.27 85.24 19.88-1.78 38 5.14 56.06 11.94 5.09 1.91 7.51 4.13 2.72 10-21.49 27-38.57 59.69-41 94.5 46.63-21.42 99.4-27.43 150.06-30.41 24.44-1.09 49.26 1.66 71.84-11.81 4-2.38 11.57-11.61 15.27-.59 4.72 12.6 6.6 32.22 16 41.5 54.52-39.06 107.37-100 112.42-171.15.36-4.79-.81-9-6.95-7.99zm96.45-47.26c14-34.55 35.47-21.77 34.83-51.52a45 45 0 00-4.56-19.53c-10.83-31.73-22.68-9.88-45.43-21.58-1-.49-2.58.06-3.85.35a4.12 4.12 0 00.06 2.18c4.41 12.38-.52 25.93-13.59 28.77-35.47 4.16-41.19 37.13-73.56 28.94-25.78-6.58-24.36-4.71-25 21-.22 9.06 2.42 18.2 3.77 27.3 1.94 13.06 21.51 25.93 33.33 21.89 35.77-15.94 69.02 11.7 93.95-37.8zm198.27 74.83c7.36-46.37-29.2-57.33-11.87-68.53 5-3.38 10.71-6.85 13.71-11.75 4.66-7.59 23.75-10.2 8.75-25.71-23.17-24.93-52.14-44.4-86-50.34-6-1-14.8-13-19.85 3.84-8 26.36-36.4 23.49-57.14 13.11 2.52 7.57 8.43 12.91 11.26 20.57 1.53 4.42 3 13.64 7.57 12.39 8.39-2.32 17.32 0 25.73-8.29 14.81-14.67 34.3-22.56 56.53-19.15 10.07.22 9.14 8.09-.3 6.18-18.77-1-34.14 7.13-51.62 17.85 15.92-.45 88.7.82 89.48 15.4-.1 1.65-1.8 3.77-3.38 2.52-5.33-4.26-11.9-4.09-17.83-4.62-13.42-1.22-26.72-6-40.5-2.33 10.76 7 21.79 13 34.56 15.65 3 1.15 8.63 0 10 3.28a7.49 7.49 0 01-6.67 4.28c-14.36.06-25.87-7.52-37.81-14.1-6.69-3.68-10.17-12.72-19.87-11.44-6.79.9-14.26-.39-20.32 2-5.07 2-22.86-4.65-12 13 5.16 8.41 2 21.63 14.66 25.68 25.72 5.14 48.22 21.51 67.37 38.93 3.72 3.71 10.9 7.16 8.79 13.6-.85 2.6-5.24-.7-8.19-3.29-19.78-16.35-44.78-36.08-69.9-40.4-4.06 2.74 1.9 7.14 3.26 10.92 1.67 4.62 4.82 8.85 5.78 13.57 5.31 26.24 20 44.78 43 58.49 8.63 4.27 36.53 27.66 31.43 38-2.79 2.71-2.6-.83-3.25-1.5-14.66-18.64-32.59-29.14-52.19-44.37 9.15 28.67 25 51.48 43.34 74.53 1.24 1.52 4.6 3.27 1.92 5.68-2.32 2.08-4.63-.72-5.84-2.16-28.57-25.63-43.85-61.57-57.55-96.74-9.23 23.27 6.31 72.86 15 96.83 1 2.63 2.36 6.41-.61 8.19-3.79 2.26-3.65-2.67-5-4.3-11.48-24.48-17.32-50.66-20.44-77.49 3-53.22 11.12-29.62-12.5-84-14.45 32.56-16.35 67.89-12.47 102.85.38 3-.4 7.7-2.4 9.09s-3.47-2.27-4.55-5.14c-9.24-29.63-3.08-60.18 4-89.45 5.09-17.41 18.44-28.25 5.44-48.23-.84.49-2 .76-2.47 1.49-4.67 7.77-9.68 15.38-13.72 23.47-7.06 14.16-14.23 28.35-19.83 43.1-2.1 5.55-8.37 10.84-4.54 18 11.32 21.12 12.87 43.32 7.15 66.2-.41 1.62-1.94 4.78-5.26 4-3.73-.86-.71-2.88-.56-4.18 2.27-19.45.94-38.42-7.07-57.44-6 17.18-10.32 33.88-10.83 51.4-.09 3.22.76 8.23-3.16 8.1-18-14.36 13.55-84.2 22-102.17-29.48 6.28-42.66 74.81-46.44 55.86-2.17-5.38 1.94-9.3 3.55-13.72 6.19-17 13.07-33.2 29.52-43.83 6.85-4.42 16.17-5.53 20.56-13.58 8.22-15.06 15.42-30.74 27.09-43.67 2-5.15-8-21.37-9.88-28.41-11.66 30.59-12.7 19-30 38.58-9.71 15.94-17.59 33.49-35 43.55-5.72 3.3-14.56 1.14-17.48 8.29-14.49 35.07-12.6 121.66 17 147.29a110.19 110.19 0 0047.12-14.86c15.27-10.15 20.6 28.64 51.69 36.83 18.48 6.24 36.83 5.44 55.87 3.6 12.3-1.19 24.27-8 37.25-3 3.47 1.33 7.79.42 11.72.53-7.81-46.3 12.28-92.09 14.14-138.53zM941.3 851c-8.14-1.41-12 4.24-11.9 11.36.08 6.34-.45 16.12 8.9 16.24 16.24 2 22.17-29.15 3-27.6zm-4.22-818.4c17.95.52 17.56-27 6.18-25.21-21.67-.59-20.96 25.51-6.18 25.21zm13.5 275.94c-.4-8.16-7.64-13.29-14.82-13.11-7.7.19-9.5 8.24-10.87 13.51-1.61 23.33 28.48 20.06 25.69-.4zm-17.24 84.06c-7.61 1-8.6 7.18-7.84 10.5 1.29 5.67 1.72 13.06 5.7 15.12 23.19 5.52 23.8-29.65 2.14-25.62zm3.06-155.85a13.14 13.14 0 0011.39-13.65c-.51-8.54-.1-19.9-15.22-18-10.6-3.2-12.31 6.18-11 12.06 1.7 7.94.64 21.11 14.83 19.59zm1.07 735.44c-16.1-.64-17.1 30.19-.34 29.6 17.54 1.29 18.69-28.62.34-29.6zm-1.91-395.12c14.7 2.35 15.7-25.17 2.06-24.09-16.99-1.06-20.36 24.02-2.06 24.09zm-20.79 196.24c-.65 12.05 6.44 16.74 16.16 17.54 8.26.68 8.76-7.07 10-12.55 5.15-18.11-27.3-24.3-26.16-4.99zM900 1144.67c9.34.67 14.78-5.58 15.16-15.18 1.19-11.44-7.22-14-15-14.17-14.65.39-15.1 28.79-.16 29.35zM881 282c-2.4 16.47 22.81 24.18 25.86 6.14.77-8.35-1.83-15.28-13.27-15.49-5.9-.29-11.74 1.24-12.59 9.35zm.08 234.79c-1.85 19.93 23.36 21.28 23.54 1.47a10.62 10.62 0 00-8.93-10.26c-3.95 4-14.21-1.19-14.6 8.81zm8.26-433.08c17.54 2 18.56-28.11 1.5-28-6.85 0-12.87 5.48-12 14.82-1.75 8.14 2.22 13.38 10.51 13.2zm3.77 851.59c13.8-1.81 13.41-29.41-2.82-28.09-20.08-1.82-15.52 30.09 2.83 28.11zm-2.74 639.57c-17.48-2-17.85 26.65-1.76 23.91 13.14.22 16.32-26.11 1.77-23.89zM859.21 143.8c.69 7.77 1.5 16.82 7.75 17.29 16.42.17 20.87-6.17 20-16.61-.73-16-29.66-17.7-27.75-.68zm9.55 185.13c-8.06-.7-13.16 1.75-13.94 10.93-1 12.14 8.46 15.45 16.21 16.59 16.55 1.77 15.74-30.59-2.27-27.52zm-13.19 256c-8.09.14-13.68 3-13.53 10.81.17 9.45 3.75 15.54 15.45 14.18 14.26-1.08 10.44-26.28-1.92-25.01zm-6.13-546.45c17.57 2.07 17.23-23.43 3.28-25-7.18.22-16.76 2-15.52 12.81.8 6.71.99 16.57 12.24 12.19zM807 188.87c.79 15.4 30.17 12.15 27.83-3.31-.82-11.85-11-11.59-19.59-12.63-5.74-.04-8.41 4.81-8.24 15.94zm5.92-99.81C830.7 92 832 61.89 816.27 61.55c-7.35-.67-14.12 3.6-13.43 13.6.5 7.28-1.28 15.63 10.07 13.91zM803 1522c-13.89 3.18-14 32.21 9.47 26.83 6.25-.94 10.24-5.29 8.57-11.88.96-14.24-7.19-16.73-18.04-14.95zM763.33 167c-.05 5.28 2.36 13.28 7.91 13.39 6.06.12 14.78-1.88 13.75-12.26-.14-16.13-21.99-17.8-21.66-1.13zm5.78 59.93c-10.18-1.2-13.16 23.26-.07 21.7 4.33-.49 13 .94 11.7-8.16-.95-6.47-1.94-14.02-11.63-13.54zm.89 362.69c-15.56-.11-22.1 24.46-2.23 22.79 10.95 1.85 13.09-21.69 2.23-22.79zM754.9 95c-1 11.24 7.62 12.51 14.93 12.62 4.92.08 6.86-5.85 7.17-10.72 1.67-13.9-23.94-17.08-22.1-1.9zm-2.72-48.53c19.45 3.31 16.94-24.67 7.17-23-9.48.94-17.65.1-17.92 8.26-.21 6.19 4.14 13.74 10.75 14.75zm-2.35 1448.37c-16-.12-17.3 23.21-2 23.75 12.96.27 14.54-21.59 2-23.74zm-5.83 60.37c-6.89.2-12.69 3.14-11.32 10.48.24 9 4.15 14.29 11.45 14.16 11-.19 10.23-10 10.7-17.13.42-6.72-6.29-7.64-10.83-7.51zM685 128.5c.41 9.15 7.32 10.1 14.25 10.57 8.55.57 9.62-5.31 10.15-14.72 1.81-11.35-26.6-12.98-24.4 4.15zm13.72 62.38c-11.4-.58-12.93 7.94-13.13 15.59-.23 9 8.6 7.07 13.6 7.29 13.37 1.59 13.34-23.43-.49-22.88zM692.4 72.93c15 1.61 15.41-26.73-.91-21.73-18.34-4.54-14.43 23.04.91 21.73zm-24.26 1452.2c-10-.19-8.08 8.52-9.24 14.46-1.85 10.38 4.89 13.56 12.54 13.14 19.94-1.88 15.96-28.81-3.3-27.6zm-6.38-52.53c0-12.87-10.33-14.23-20-14.43-13.21-.22-6 30.6 10.62 26.81 10.92 2.64 9.37-7.07 9.38-12.38zM642.82 201.2c7 .09 12.54-1.84 12.14-10 1-14.32-25.73-18.09-24-2.32-.04 8.06 3.79 12.22 11.86 12.32zm-33 1367.8c-9 0-8.88 6.79-8.91 13.87-.95 7.78 2.83 11.46 11.3 12.35 18.88.98 15.11-28.15-2.39-26.22zM607.7 101.83c14.92 1.46 21.41-31 3.32-25.28-19.02-3.91-20.63 25.2-3.32 25.28zm-22.27 1408.3c-17.17-2.53-17.25 25.82 1.28 25.68 16.19.65 14.09-26.91-1.28-25.68zM545.51 34.4c8.88-.12 11-8.79 11.31-15.88.47-10.87-10.15-7.6-15.46-8.82-13.46.59-10.17 26.4 4.15 24.7zm-30.93 1530.91c-8.31.33-11.75 8-12.31 15.23-.88 11.43 8.41 8.77 15.53 9.31 13.96-.73 9.14-25.96-3.22-24.54zM497.49 66.75c20.09 1.9 21.69-28.09.13-28-11.8.77-13.29 28.61-.13 28zM431.55 1527c-10.54 1-8.53 9.24-8.55 15.89 0 11.88 9.33 11.34 16.93 11.4s8.08-5.86 7.05-11.77c1.71-12-4.3-16.52-15.43-15.52zM401.16 45.29c13.24.48 11.89-10 13.57-17.3 1.21-5.28-3.52-9.84-8.83-9.29-8.48.87-14.13 5.69-13.14 13.29.38 7.7-.3 13.01 8.4 13.3zm-2.23 51.5c13.15.36 10.48-24.36-2.06-23.71-7.32-.6-10.07 4.14-10.07 11.66-.9 8.26 5.25 11.45 12.13 12.05zM333 98.94c7.32-.37 10.48-5.08 10-12.94.5-4-.59-9.53-5.79-8.63-6.1 1.06-15.89-.67-15.35 10.88.39 7.25 4.23 11.04 11.14 10.69zm-45.28 1469.85c-10.8-1.07-14.35 4.55-14.85 12.37-.21 13.15 8.25 14.61 16.46 14.44 10.19-.22 11.16-9 11.51-16.38.41-8.57-6.04-9.73-13.12-10.43zM252 88.65c15.83 3.12 21.67-29 10.24-27.39-7 2.31-18.65-1.06-18.68 13.77 2.66 3.9-.01 13.36 8.44 13.62zm-47.63-47c5.61 0 14.64.59 13.28-9-.79-5.56 1.05-16.24-8.77-14.92-6.93.93-17.53 1.6-17.92 13.18-.29 9.66 7.18 10.7 13.36 10.74zm-.48 1471.1c-16.67-4.37-20.27 26.09-4.68 26 15.68 1.53 24.06-23.08 4.63-26zm-1.69-158.38c-17.41-2.35-18.42 24-2.25 25.34 7.84.58 10.08-5.68 10-11.83-.1-5.52.71-13.38-7.8-13.51zM190 132.84c20.59 2.16 19.25-26.14 5.2-25.84-7.95.63-15.45 2.23-13.7 15.67 1.36 2.58 1.05 10.1 8.5 10.17zm-2.82 428.42c9.43-.66 16.69-1.66 15.87-12.18-.62-7.94-5.09-12.52-12.89-12-7.06.52-11.69 4.94-11.15 12.64.42 6.06.91 12.59 8.18 11.54zM181 1568.94c-12.56 1.87-11.37 31.63 4.39 28.09 18.61-1.66 12.09-30.34-4.39-28.09zm-2.47-101.4c-.24-5.51-1.5-14.29-9.91-12.8-10.54.16-15.48 4.19-15.67 13.34.33 17.44 26.72 15.45 25.56-.54zm-18-965c17 .12 18.25-31.3-1.47-28.9-8.36 1-9.51 8.05-10.19 13.88-3.53 11.42 3.58 15.48 11.65 15.02zm-8.87-422.07c7.9.64 16.48-4.31 17-13.65 1.36-14.94-22.08-16.09-26.58-3 2.92 6.18 1.29 15.99 9.58 16.65zm-12.78 999.62c-8.93-1.43-10.41 5.31-11.06 12.19-.84 8.88 3.25 13.66 12.08 13.71 21.36 1.19 18.8-24.85-1.02-25.9zm-6.31-45.09c18 3.46 18.32-28.56 2.17-27.57-7 .38-13.05 5.12-12.36 13.41.54 6.45-1.9 16.22 10.19 14.16zm-.8-896.78c11.89.51 13.55-8.57 14-17.6.25-5.27-3.62-7.84-8.34-7.92-16.32-2.47-20.73 24.58-5.66 25.5zM129 1324.59c-13.67 1-13.74 28.13 1.17 28.83 10.64-2.17 14.06-9.85 13.74-19.77s-8.79-9.52-14.91-9.06zm-7.34 198.23c-10.88.52-11.18 9.2-12.17 15.63-.94 6.16 4 10.25 10.31 10.48 14.72 1.71 14.67-24.16 1.82-26.11zm-8.72-383.74c-6.72 1-14.78 2.45-14.41 14.41.33 10.62 7.56 11.59 15.29 12 16.26 1.51 17.69-28.61-.92-26.41zM89.28 543.74c.38 15.28 25.76 9.81 28.21-2.37-1.72-6.57-.68-15.32-10-15.16-10.65.18-18.13 6.13-18.21 17.53zM101.89 1431c-8.88-1.66-15.22.37-13.16 10.43-1.08 7.79 2.2 11.61 8.49 12.07 12.42 2.08 17.28-19.89 4.67-22.5zM88.77 90.81c7.11-1 14.22-3.91 14.31-13.39.06-7.66-2.75-12.62-13.06-12.65-13.1-3.24-15.29 28.47-1.25 26.04zm-.84 219.84c6.63-.83 15-2.24 13.13-11.84 0-8.95-5.34-14.22-13.81-13.8-11.8.59-8.06 10.35-8.9 16.78s5.08 9.41 9.58 8.86zm-2-139.71c8-.3 9.8-7.51 10.87-13.18 1.66-8.78-6.07-10-11.83-9.52-11.65 1.36-10.67 24.21.94 22.7zM65.06 1201.42c-.49 11.5 2.82 16.39 10.66 15.25 9.7-1.41 12.77-10.55 15.16-18.63 2.29-7.72-3.37-10.66-9.74-11-11.77-.56-14.79 7.79-16.08 14.38zM82.42 1261c-8.34.36-15.57 2.68-15.57 14.24-1.25 7.16 6.11 11.22 10.45 11 16.36.37 18.79-25.81 5.12-25.24zm-7.18-295.9c-14.67.14-14 26.74 2.52 24 14.24 2.77 10.69-26.01-2.52-23.97zM74.88 365c-12.94-3.79-13.4 20.72-2 19.71 5-.33 13.12 1 12.52-8.26-.4-6.1-1.19-12.75-10.52-11.45zM60.61 465.67C58.39 479.13 85.05 482.13 83 465c-.85-7.76-4.45-13.6-13.31-14-8.05-.45-8.86 5.09-9.08 14.67zm-3.39-420.9c6.32 0 13.62-1.46 13.72-10.29.08-6.16-1.85-11.58-12.23-12-11.62-3.4-14.94 22.88-1.49 22.29zm-5.78 1514c-8.14.56-10.83 4.87-10.35 11.66.5 7.13-.28 16.15 9.73 14.89 8.4-.26 15-.65 16.18-9 1.64-11.71-2.08-18.49-15.56-17.58zm3.11-181.38c-7.58-.25-12.87 5.13-13.63 13.55-1 10.46 4.66 15.86 14.23 15.91 9.2 0 9.21-8.46 10.78-15.46-2.13-5.75-3.78-13.79-11.38-14.03zM44 1040.74c-6.72-.54-7.18 7.82-7.32 13.42-.19 8 4.59 12.08 12.49 13.16 23.31-3.47 13.61-27.65-5.17-26.58zm14.71 461.5c.6-22.29-24.22-20.38-23.29 1-.42 14.41 24.58 12.44 23.25-1zm-18-889.44c16.46 3.74 22.36-27.5-.47-28.56-8.14-.4-8.94 8.92-8.51 12.94.53 5.48-.83 15.37 8.91 15.62zm-15.7 523.39c-.1 19.08 27 17.27 24.87-4.36.61-15.6-27.04-11.15-24.94 4.36zm6.54-997c5.95-1.43 15.19 0 15.09-9.3-.06-5.59-3.35-12.12-11.66-13.11-15.35-2.35-19.43 21.33-3.5 22.41zm1.05 387.65c11.1-.41 5.61-10.77 7.68-13.73 5.62-21.41-24-15.57-19.63 2 1.08 7.74 4.96 11.99 11.95 11.73zM25.66 335c16.9 3.79 20.63-23.83 3.14-23.81-14.22-1.54-21.33 25.86-3.14 23.81zm-3.77 1003.72c8.21 0 18.19-2.37 16.66-13.58-.76-5.6 2.24-16.75-9.76-16.05-8.79.51-18.06 1.79-15.83 14-.17 7.64-.27 15.66 8.93 15.63zM5 421c.3 7.93.69 16 15.21 16.32 8.39 1 12.63-6.39 12.58-16.06C34 405.78 3.77 403.73 5 421zm9.26 809.7c-6.66.92-7.84 4.53-7.14 9.31 1.16 8 2.82 16.3 14.71 15 4.19.66 10.78-.44 8.7-5.46-3.08-7.41-.72-21-16.3-18.85zm.51 194.58c-6.71.18-14.37 2-13.85 12.6-1.67 11.71 9.58 11.47 15.78 12.53 15.15 1.76 12.61-26.92-1.96-25.13zM9.58 84.86c16.91 1.38 15.15-23.25-2.7-22.19C-5 62-5.25 86.88 9.58 84.86z"/></g><g id="Red_Japanese_Frames" data-name="Red Japanese Frames"><path class="cls-7" d="M0 20v1560a20 20 0 0020 20h936a20 20 0 0020-20V20a20 20 0 00-20-20H20A20 20 0 000 20zm924 1528H52V52h872z"/><path d="M952.1 15.41l-23.41 23.42a4 4 0 01-2.83 1.17H50.14a4 4 0 01-2.83-1.17L23.9 15.41A2 2 0 0125.31 12h925.38a2 2 0 011.41 3.41zM40 1549.86V50.14a4 4 0 00-1.17-2.83L15.41 23.9A2 2 0 0012 25.31v1549.38a2 2 0 003.41 1.41l23.42-23.41a4 4 0 001.17-2.83zM936 50.14v1499.72a4 4 0 001.17 2.83l23.42 23.41a2 2 0 003.41-1.41V25.31a2 2 0 00-3.41-1.41l-23.42 23.41a4 4 0 00-1.17 2.83zM925.86 1560H50.14a4 4 0 00-2.83 1.17l-20 20a4 4 0 002.83 6.83h920.55a2 2 0 001.41-3.41l-23.41-23.42a4 4 0 00-2.83-1.17z" fill="#992d17"/></g></svg>