<svg xmlns="http://www.w3.org/2000/svg" width="976" height="1600"><defs><clipPath id="clip-path"><path d="M960 22v1556a6 6 0 01-6 6H22a6 6 0 01-6-6V22a6 6 0 016-6h932a6 6 0 016 6z" fill="none"/></clipPath><style>.cls-7{fill:#592116}</style></defs><path d="M960 22v1556a6 6 0 01-6 6H22a6 6 0 01-6-6V22a6 6 0 016-6h932a6 6 0 016 6z" fill="#f4f3ef" id="Paper_Backing" data-name="Paper Backing"/><g clip-path="url(#clip-path)" id="Wikipedia_Cropped" data-name="Wikipedia Cropped"><path d="M226.49 1109.33c-11-1.32-15.27-10-25.91-7.12-14.09-3.79-25.54-.29-39 4-17.46-1.49-4.16-25.65-.86-36.43 7.2-22.49 30.8-33.29 51-40.49 29.53-8.56 66 5.56 76.61 34.49-.65 9.53-17.87 3.55-22.87 8.94-4.82 8.26-16.43 5.3-20.27 12.86-7.56 19.65-2.55 12.25-18.7 23.75zm500.71-303.1c-6.68-.24-9.25-8.53-15.62-9.05-9.18.93-19.23 2.19-27.7-.39-14 6.36-10.85 10.15-27.33 3.44-4.81-6.48-10.74-13.48-10-21.64-1.88-8.06-17.76-10.43-19.35-19.32-6.14-7.68-32.26-2.72-27-19.12 20.4-21.67 59-29 88.16-18 19.3 8 43.36 19.63 47.63 42.25 3.29 12.42 11.21 37.48-8.79 41.83zM431.57 321.08c-16.4-1.12-30.75-1.74-46.87-3.25-13.69-1.74-28.43 2-41-2.21-8.31-3.19-18.86 2.35-27.65-1.79-9.17 3-21 2.5-28.75-4.48 5.57-28 46.71-50.85 76.1-51.22 15.44.08 30.82 2.38 44.68 9.12 16.92 7.89 62.79 51.57 23.49 53.83z" fill="#ffb85a"/><path d="M309.27 1604c-28.49.91-188.87-.68-221 0-17.19-2.89 47.76-44.58 51.23-54.74 21.89-17.1 37.12-44.93 63.38-54.64 22.43 4.68 48.14-11.47 56.95-33.41-.51-31.74 28.92-47.43 47.38-71.54 28.1-23.91-2.73-54.53-26.71-71.41-16.26-2-31.41-6.71-15-25.64 12.26-6.58 1.83-41.47 13.33-38.34 46.45 27.81 95.77 65.68 145.35 22.57 12.53-6.43 25-36.34 39.34-27.35 12.32 13.53 21.23 41.66 42.8 39 20.58-5.4 43-6.06 63.08-4.27 18-10.88 40-6.19 59.82-9.4 12 4.77-9.68 18.56-11.94 24.5-56 71.76-129.34 131.88-179.67 205.93-22 35.29-56.57 66.81-78.78 98.73zm-125.38-369.87c-12.11-6.3-62.93-76.76-40.27-82.81h-.13c64.6 22.23 29.47 22.89 74.9 58.55 5.62 8.36-12.53 11.07-18.09 12.68-7.68.28-8.83 11.24-16.41 11.58zm527.87-29c-16.93-10.34-22.14-36.38-34.71-52.59-14.92-21.21-24.42-43.09-38.33-65.88-31-33 21.08-55.31-11.32-83.31-12-13-28.69-19.75-42.06-31.46-25.94-36.89-39.81-87.34-48.63-131.29 21.79-3.63 43.57 33.82 63.3 5.1 14.06-.35 30.59-2.82 43.7-7.89 16.84-1.87 9.66 37.61 7.86 49.66 3.91 33 70.68 85.63 105.15 88.17 42.12 11.26 90.6-29.2 125.34 8.79 35.74 48.86 21.75 52.51-17.62 86.6-19.39 12.07-41.09 51.44-64.43 45.45-17.58 11.16-24.36 34.94-41.52 46.75-6.72-3.35-10.25 2.29-12.33 7.9-16.41 3.88-15.41 31.08-34.4 34zM224.14 633.7c-23.81-17.67-41.84-41.17-60.38-54.43-13.55-14.48-36.1-25.74-40.89-44.66-10.05-5.72-19.18-6.74-25.49-22.75-20.29-45.53 43.94-70.54 30.68-112.23-20.48-49.8 13.2-75.15 42.54-110.88 11.9-5.34 14.15 18.66 25.74 19.91 7.87 3.1 7.54 7 7.37 9.1-3 50.31 6.62 99.75 8.86 149.71 1.78 39.34 9 79 11.4 117.82-1.57 11.54 11.76 39.31.17 48.41zm255.37-67.6c-9.06-15.84-3.06-44.72-9.82-64.67-3.73-26.27 10.91-40 23.55-57.5 26.61-33.73 48.34-72.29 77.41-104 4-4.22-1.45-7.63-1.78-11.69 8.3-20.76 22.13-40 33.44-59.85 14.45-16.41 12.36-54.74 36.11-66.53 16.55-4.26 20.29 18.11 16.35 30.69-10.55 33-30.35 59.84-45.23 90.34-26.38 43.9-30.51 95.25-63.73 134.76-3.32 5.6-11.58 1.68-13.71 8.06-14.1 34.74-29.75 71.93-52.59 100.39zm-197.6-327.64c-13.84-10.77-29.81-13.61-42.76-21.58-7 1.42-14 4.12-20.26-1.33 8.33-37.87 47.08-69.57 61.38-108 11.37-41.52 50-77.78 50.14-107.6C327.75-9.25 408-1.63 410.7-4c5.63-.1 5.51 11.43 1.34 13.12-33.38 43-46.32 93.29-78.09 140.33-26.53 50.89-45.13 12-48 85.05a4 4 0 01-4.04 3.96z" fill="#997664"/><path d="M216.59 1493.31c-76.3 6.17-87.05-97.9-11-108.24 66.63 1.63 78.62 95.14 11 108.24zm3.9-180.29c-37.82.58-58.84-50.93-33-77.62 1.61-21.3 60.68-9.4 38.83-31.06-14.76-13.11-5.72-30.33-8-45.11-16.15-2.78-34.08 8-51 .72-42.45-6.73-6.54-33.23-57.88-21.09-85.62-.82-90.64-81.13-22.07-115.63-1.74-75.12 11.19-80.58 73.63-109.74-14.7-15.28-37-18.31-36-50.09.67-40.52 51.11-56.51 78.75-27.4 39.25 53.13-41 71.78-16.51 81.36 18.9 1.78 33.29 8.85 41.5 20.72 5.83 10.17 13.63 3.83 21.56-1.2 13.38-15.09 55.85 0 54.35-15.33-17.85-59.27-34.35-123.94-49.47-182-32-130.92-36.8-266.56-52.5-399.27l.05.76c.51-46.72-3.69-18.23-22-48.9-36.89-64.31 53-92.83 96.11-55.33 16.7 6.11 5.12-48.62 47.07-63.65 51.86-23.38 106.42 1.44 129 47.81 40-22.73 115.88 9.55 105.46 59.81-8.08 46.16-57.54 65.19-99 68.86-4.66 36 3.77 76 3.65 113.49 2.84 75 17 151 31.17 224.18 8.89 19.73 22.82-31.76 43.25-32.92 24.18-12.29 46.84-1.26 70.65 3.16 12.06-65 114.82-97.07 151-37.55 8.23 14.8 17.46 34.81 15.73 58.23a6.09 6.09 0 005.53 7.09c18.77.42 38.9 11 51.71 22.64 65.3 57.91 18.43 153.66-65.13 136.3-23.64-6.6-16.38 11.57-29.58 24.4-26.45 26.94-81.55 5.77-86.31-28.37-7.1-14.11-19.07 8.31-33.44 5-34.69 4.68-76.91-42.32-67.69-72.86a6 6 0 00-5.43-8.52c-26.61-9.81-47.39-53.16-32.92 8.42 15 52.64 25.77 108.21 46.86 157.66 29.22 79.3 70.08 153.62 113.52 225.87 3.51 17.72 81.61 109.32 51.29 107-73.34 3.24-145.14 13.37-217.46 20.66-34.09-2.37-50.28-69.85-77.86-87.61-12.18 2.39-1.31 16.93-3.18 25.83-1.1 42.75-60.41 66.94-88.6 32.8-34.29-27.2-11-89 36-87.55 5.14-1.42 8.08 2.89 12.45 3.56 5.82-2.42 11.73-.07 15.79 4.1 10.06 11.79 26.87 11.47 14.85-6.43-20.11-33.93-41.54-72.31-56.05-106.52-7.64-11.64-22.33 15-30.35 19.66 17.83 30-12.75 49.89-42.71 57.08-14.46 8.58 17.87 24.09 11 44.34-.92 18.11-20.15 36-38.8 36.08-11.11 1.62-3.7 12.44 2 16.33 1.29 1.26 2.81 2.92 2.56 5.34.39 6.62 7.83 7.39 7.53 15.64 3.82 21.45-5.13 46.45-32.55 55.09-6.96-4.96-10.58.2-17.36 1.74zm-32.58-211c13.49-5.88 45.3 22.61 49.58 6.9-1.37-42.11 76.42-23.36 26.56-64.32-31.52-21.23-78.57-6.92-95.86 26.33-11.27 28.49-13.84 37.88 19.72 31.07zm445.17-374.4c-67.32 32 18 22.82 21.87 76.88 5.37 14.71 21.52-9.67 29.18-6.11 18.55-2.71 33.28 10.74 46.9 7 15.26-58.04-46.97-91.13-97.95-77.77zM342.1 269c-13.59 3-63.06 37.24-42.37 48 47.34.52 89.88 4 135.78 4.81 15-4.63-2.53-19.45-7.68-29.63-20.47-24.39-55.48-30.68-85.73-23.18zM115.72 686.69c-62.4.25-60.85-98.92 3.88-97.72 63.08 6.43 60.29 96.11-3.88 97.72zm5.18-458.83c-67.48-2.92-67.53-100.19-.32-103.23 36.35-1.16 74.91 51.63 38.66 84.22-10.05 11.73-22.12 20.86-38.34 19z" fill="#d81e1e"/><path class="cls-7" d="M948.69 257c7.35-1.49 8.22 3.3 8.49 9.62.39 9.24-6.63 12.74-12.85 13.92-15.85 2.11-11.99-26.69 4.36-23.54zm-6.35 1187.39c-16.25-.06-16.59 30.54 1.18 27.41 8.76-.67 12-6.85 11.64-16.18 1.7-9.31-5.74-11.62-12.82-11.28zm-9.51-78.65c7.37 1 16.5-.4 14.3-12 2-8.19-1.22-13.3-8.81-14.6-17.82-5.49-22.09 24.15-5.49 26.55zm1 189.45c-15.78-4.38-14.47 26.39 5.14 23.62 12.25-1.96 9.94-28.21-5.16-23.67zm-9.71-1376.32c-1.07 15.18 22.77 18.09 21.6-.52-.19-12.24-22.86-12.35-21.6.52zm21.11 1021.41c-1.12-6.47-.74-14.83-11.41-15.32-13.42-.63-14 9.49-14.77 18.63-.9 10.39 7.57 13 14.8 13.08 9.15.11 11.15-7.67 11.38-16.39zm-10.46-275.76c-.15-15.42-26.71-14.31-25.51 1.14.92 6.37 2.19 14.86 12.79 13.45 10.64.95 12.83-6.8 12.72-14.59zM915.19 79.09c25.18 4.43 23.55-26.86 6.64-24.75-12.32.66-16.71 19.83-6.64 24.75zm-12.56 1024.23c4 3.63.88 13.18 9.19 13.41 8.93.24 17.73-3.64 18.52-14 .72-9.55-6.24-15.2-15.2-15.49-9.35-.3-10.14 8.18-12.51 16.08zm10.85-528.78c7.25-.78 13.08-5 11.44-13.93 1.49-11.42-6.16-12.44-14-11.5-10 1.21-8 9.59-7.94 16.2s5.55 9.76 10.5 9.23zm-11 687c-9-.47-12.63 6.7-11.53 15.39-1.15 8.48 1.85 13.6 10.79 14.16 13 .81 13-9.55 14.09-17.64 1.22-9.12-7.91-11.63-13.34-11.92zM559.23 1374c-34.88 39.24-74.28 74.15-104.82 117.19-27.54 37.56-55.3 75.81-90.68 106.64-5.34 6.06-10.29-1.92-4.32-6.32 46.26-39.9 75.43-94.27 114.48-140.42 52.41-57.29 106.86-110.88 155.34-172.21-18.36 2.71-37.19-.27-53.83 6.54-9.06 4-13.39 15.32-18.61 23.23-12.51 19.65-23.42 40.79-40.15 57.14-35.47 31.56-73.89 60-97.95 102.14-14.92 24.73-21.2 53.9-42 75.75-19.24 22.08-45.4 34.32-65.77 54.64-2.51 2.6-6 7.93-9 1.72-1.88-4 3.91-5.56 5.55-8.54 8.47-15.28 24.84-21.69 37.26-32.53 9.94-8.69 18.74-18.22 27.66-27.83 9.75-10.5 15-23.26 20.48-35.9a286.4 286.4 0 0139.87-65.5c21.75-27 48.93-47.53 74.79-69.86 12.63-10.92 20.24-26.54 29.58-40.45 7.11-11 15.82-20.85 22.8-31.88-62.81-4.49-56.85 30-99.56-35.62-1.54-2.07-3.44-1.22-5.1.41-18.49 16.67-34.05 40.73-61.09 43-6.67.43-11.26 7.07-18.4 7.92-11.45 1.37-20.75-4.28-30.19-8.78-24.69-9.41-45.89-23-68.75-36.69 2.31 13.4-.07 27.26-8.16 37.4-17.73 22.23 7.94 15.49 13.24 19.2 25.55 20.1 59.46 46 28.4 77.94-12.31 14.49-25.61 28.17-38.9 41.8-8 8.18-4.16 19.14-7.8 28.59-8 20.79-34.57 40.12-57.15 36.29-14.67-2.48-17.5 10.42-25.23 16.77-33.63 27-59.63 63.49-96.72 86.21-2.54 2.06-4.6 8.47-8.15 3.48-1.24-1.74-.95-3.61.08-5.4 35.9-29.61 66-65.62 101.63-95.7 2.69-2 4.22-5.52 5.9-7.8-72.93-45.2-17.34-148 56.86-106.18 6.9 4.38 8.29-3.77 12.65-5.26 4.51-1.53 8.14-5.54 12.29-8.26.84-.56 1.52-3.36 3.32-.85 1.14 1.58 2.54 2.86.53 5-3.27 3.49-5.63 8.1-9.4 10.81-16.21 11.86 6.72 19 5.18 33.34 13.06-12.85 42-39.33 45.51-56 1.66-28.84-36.18-45.62-57-56.92-1.78-1.18-2.87-1.08-4.26.35-4.21 4.32-15.2 2.1-11.8 14 2.15 7.34 4.49 30.79-6.39 31.13-2.55-.13-2.45-2.38-2.57-4.48-.54-9.75-.26-19.71-2.32-29.15-1.31-6-9-4.06-13.64-4.65-19.07-2.4-39.59-25.92-42.6-44.55-2.09-12.91 3.62-22.47 6-33.62 2-9.47-7.82-15.37-13.06-22.14-19.57-22-28.58-48.73-33.14-77.42-.87-3.3-3.57-1.59-5.71-.69-54.22 18-119.63-34.2-78.06-90.15 10.81-13.26 23.11-24.27 39.76-29.36 3.07-.94 1.7-1.64 1-3.32-20.63-49.35 16.87-96.5 66-105.91-47.41-17.88-41.06-89.41 9.2-96.22 6.43-.15 12.68-.51 19.26.71 12.65 2.34 8.13-11.29 13.25-16.43 3.22-3.21 4.44-8.39 6.79-12.55 3-2.16 4.77 2.27 4.34 4.46-2.78 8.43-5.23 17.08-9.12 25-4.71 9.64 5.26 9.81 8.44 12.79 24.42 24.35 14.85 66.81-14.64 80.5 42 2 39.26 37.84 62.41 20.17 24.08-17.79 49.06 4.1 41.69-18.46-11.13-41.46-27.82-82.37-35.14-124.56-2.93-23-18.86-32.41-34.36-44-24.78-19.55-43.52-45.69-69.36-64.21-4.6-3.68-7.66 2.85-10.58 4.91C90 716.35 36 638.58 83.37 597.43c40.49-36.32 107.12 10.75 83.47 61.66-10.3 11.64.37 17.29 6.82 22.32 26.79 20.49 45.23 51.93 75 67.92-5-34.1-17.24-67.14-20-101.77-.23-2.51-4.77-4.52-7.12-6.95-29.63-27.4-59.92-53.67-88.47-82.2-36.62-27.41-65.54-62.24-30.45-102.55 21.7-28.42 16-62.16 14.28-95-1.9-41.22 55.66-54.46 50-96.26.07-10.25 1.92-19.75 9.19-27.6 2.44-2.63-1.59-3.83-8.45-10.23-12.78-11.92-19.77 2.82-29.15 4.76-23.22 4.79-43.25 1.09-59.22-17.06-46.61-62.27 38-132.11 88.24-71.5 15.73 19.22 14.92 46.27-.33 67.67-1.81 3.05 1.92 4.42 3.66 6.33 9.15 10 17.5 7.1 28.88 1.94s13.14-15.63 18.91-23.5c28.13-39.67 53-81.61 72.28-126.19A426.22 426.22 0 01327 12.51c1.74-2.3 6.84-5.16 7.41-5.16 3.78 4.32-.08 8.48-2.23 11.48-31.33 40.32-43.18 91.32-72.62 132.25-12.92 19.46-25.05 39.44-37.62 59.13-.42.66-.61 2.12-.22 2.51 26.72 13.12 37.1-39.95 47.94-56.05.57-1.16 1-3.51 3-2 1.68 21.64-12.17 42.95-23.29 61.09-.39.58-3.25 2.35.07 3.14 12.14 2.91 23.65 7.1 32.48 15.58 1.7-43 21.83-83.66 35.33-124 11.58-29.28 26.61-57.2 35.94-87.43.81-2 .38-7 4.72-5.81 4.63 1.22 3.8 5.86 2.92 8.88-17 52.23-41.61 100.09-58.76 152.91 15.25-6.66 20.9-20.3 28.56-31.76C361.64 103 375.81 45.64 410.7 5.36c7.71 1.85 3.54 4.81.66 8.33-27.25 49-47.66 101.78-77.86 148.86 41.9-12 95.88-2 115.38 40.81 6.09 12.93 14.42 9.7 25.11 7.26 30.93-8.38 65.61 8.93 84.31 34.16 9 13.06 7.81 42.17.38 56.57-16.61 30.58-50 50.58-84 51.11-14-.84-12 7.49-11.24 14.8 5.1 32.32 3.68 63.93 8.31 96.4 23-35.64 51.15-65.94 71.79-102.74 26.69-49.94 56.79-98 79.58-149.88 14.69-32.13 41.48-9.55 37.5 18.42-4.85 22.84-17.76 41.77-27.74 62.11-17.1 30.82-33.9 61.78-46 95.05-8.84 26-17.1 52.27-36 73.69-27.15 34.24-48.72 74.2-66.88 113.76-3.25 8.66 1.43 20.51 3.18 30.79 4.8 25.35 8.24 51.06 14.66 76 18-36.76 66.06-47.16 100.55-27.73 3.17 1.49 4.3 1.77 6.34-7.8 5.92-27.74 25.23-43.22 49.06-53.75 42.76-20.39 97.45-6.79 113.56 41.12 16.6 38.23-3.68 54.85 21.87 51.71 116.38 30.31 88.83 195.12-35.74 161.4-2.12-.67-4-2.15-4.42 1.75-6.58 44.85-61 45-91.06 21.66-17.2 38.78 29.89 58.35 51.34 82.78 8.61 9 17.92 15.71 32.71 15.79s29.62 3.25 44.72 3c32.93-4.29 34.83-16 72.31-5 28 5.81 32.37 33.84 45.88 53.94 6.32 14.64-4.27 22.77-13.1 30.92-38.45 35.33-78.26 69.16-117 104.15-20.31 18.44-40.15 37.39-60.24 56.07-1.67 1.55-1.56 2.36-.33 4.45 7.17 12.19 13.79 24.71 20.91 36.93 5.94 10.22-1.93 15.34-8.51 16.33-18 2.71-36.56 2.19-54.62 4.86-10.66 1.57-23.07-1.88-31.79 5.66-20.75 18.37-35.48 42.46-55 62.16a358 358 0 00-30.05 32.74zM124.77 185.09c18.25 2.63-7.09-16.1.83-49.53 1.56-9.79-3.54-5.75-10.54-7.42-22.11 3.5-47.29 31.56-41.6 55.52.63 2.29.16 8.77 3.87 7.1 15.39-6.92 31.27-6.76 47.44-5.67zm14.35 14.55c-9.9-3.17-20.41-6.21-29.74-4.56-10.59.26-20-1.81-27.94 4.91 9.19 19.46 31 27.12 51.33 22.76 16.65-3.32 24.92-12.04 6.35-23.11zm21.76 3.23c20.24-26.06.7-62.15-23-71.32-2.18-.71-2.61.39-2.76 2.17-2.32 26 3.59 49.44 21.07 69.41 1.81 2.09 3.04 2.66 4.69-.26zm-86 431c70.73 10.53 31.07 32.33 59.61-26.73 10.13-11.74-7.7-11.85-14.89-14.13-19.6 1.39-35.19 8.82-43.85 29.59-1.23 2.95-6.07 10.51-.87 11.23zm73.22 36.84c-6.68 1.89-9.49-2.55-13-4.82-17.83-11.61-37.55-18.06-58.05-22.61-1.23-.27-4.23-1.25-3.81 1.37 4.18 36.35 46.59 49.64 74.86 26.02zm4.06-60.79c-1.75-1.34-4.33-9.46-7.22-4.13-6.64 12.2-11.66 25.39-14.05 37-.69 15.28 12.58 13.81 18.24 20.09 2.25 2.5 3.84 1.53 5.92-.85 9.72-11.15 8.64-43.29-2.89-52.15zM206.41 1462c-3.59-16.87-13.8-31-23.45-45.08-3-4.4-9.35-11.64-11.11-10.85-14 8.38-15.29 29.53-13.39 44.9 2.91 19.84 27 41.18 46.14 36.8 1.01-8.61 3.54-17.67 1.81-25.77zm27.59-56.73c10.07-12-17.79-14.08-24.68-16-10.7-1.34-20.65 3.47-29.23 8.8-1.76 1.09 8.9 7.66 11.89 13.41 7.9 11.18 14.11 23 20.12 36.34 2.9-17.47 12.04-30.34 21.9-42.55zm11.33 2.5C227.56 1429 216 1455 214.8 1483.05c-.34 4.54-1.43 7.4 4.42 5.82 34.13-6.8 54.46-55.87 26.07-81.1zm402.25-520.62c10.22-75.74-4.57-31.48-44.5-38.88-24.08 28.82-42.58-1.16-63.4-5 8.41 30.47 17.35 61 29.65 90.17 5.12 12.31 7.92 26.06 18.64 35.4 13.3 11.6 29.94 18.34 42.36 31.75 37 34.63-19.37 43.47 11.72 83.82 8 11.8 13.17 25.44 20.49 37.72 12.37-16.32 34.63-57.16 31.42-77.24a223.38 223.38 0 00-23.88-59.61c-18.6-29.42-41.77-57.63-46.84-93.16.55-5.14 7.32-7.23 7.9.06 2.63 26.35 20.67 47.18 35.27 68.06 17.92 26.36 36.39 59.47 37.73 91.61-2.84 19.74-11.81 38.17-20.8 56.28-5.26 10.59-20.25 19.26-9.25 34.37 13.44 16.33 21.87 36.2 33 54.15 3.1 5.43 4.85 5.93 10.67 1.19 14.55-11.87 15.82-28.28 16.83-44.22 1.08-16.86-8.39-31.86-13-47.73-6.52-14.18 4.89-36.91 7.42-22.52-2.58 35.43 21 42.34 13.58 86 56.54-128.43-9.33-112.6 16.61-160.83 3.44-9.59 14.76-9.65 9.68-1.21-22.74 36.74 27.24 44.77.58 116.09-2.82 11.24-6.75 22.2-11 35.84 34.86-40.45 59.1-84.73 97-122.13 4.38-4.19 5.81-10.7.09-16-10.63-9.86-23-16.36-37.63-16.72-2.29-.06-7.1-1.4-8.57 2.83a5 5 0 001 4.43c8 6.4 14.62 14.79 25.26 17.52 2.18.9 4.63 5.09 2 7.06-4.05-1.39-8.26 1.61-12.56-1.39-9.47-7.82-29.89-14.53-26.73-29.34 6.7-28.25 73.57-2.13 70.65 22.5.2 11.12-6.26 18.44-14.22 25-14.57 12.09-26.06 27.15-36.57 42.53-3.91 5.72-11.68 10.36-11.13 19.9 29.12-21.24 53-47 80-70.6 5.69-5.18 15.73-10.41 13.13-17.73-5.07-14.26-13-27.82-21.53-40.46-9.47-14-26.46-12.38-40.77-15.38-11.41-2.39-21.32 5.8-32.05 7.35-32.44 5.18-71.18 3.62-97.56-18.72-19.4-20.83-60.33-41.84-60.69-72.76zm-18.88 126.37c-10.85-10.1-21-23.55-36-27.18 8.07 22.7 21.18 43.16 31.69 66.15 1.43-3.8 3.57-6.86 3.54-9.91-.11-9.69 10.76-19.04.77-29.06zm-84.53-240.38c.66-2.84.39-4.92-1.88-5.6-9.84-3-16.81-10.13-24.76-16.25.44 15.43 6 30.66 10.26 45.37 4.49 12.66.55 28.61 16.59 37.12 13 5.94 32.26 20 46.26 12.58a3.85 3.85 0 00-.9-2.34c-29.22-17.12-51.02-35.28-45.57-70.88zm16.9 33c12 22.33 30.66 35.2 56.9 35.07 30-2.41 43.65-31.22 23.76-58.6-12.87-21.9-55.11-40.15-76.51-22.79-16.55 15.46-17.22 22.12-4.15 46.35zm183.72 36.38c3.58-36.89-81.57-63-90.35-8.52-.83 46.22 87.34 62.12 90.35 8.55zM507.11 704c1.2 24.08 13.94 41.42 33 54.84 2.21 1.56 4.19 1.6 7.18-.68 5.92-4.53 13.27-7.16 19.46-11.41 2.76-1.89 10.14-.18 7.94-6.11-4.62-12.49-3.26-26.3-9.34-38.42-.93-1.84-2.23-5.87 1.45-7.32 4-1.59 3.8 2.45 5 4.48 6.23 10.93 6.75 23.43 9.06 35.32 1.54 7.89 5.77 8.87 12 8.59 2-.09 1.46 0 2.24-8 1.51-15.47 2.47-30.78-1.81-46-.43-1.53 2-4.87 3.86-5.76 9.28-.2 9.49 48.64 6.13 56.22-2.53 9.47 11.09 10.1 17 12.3a208.37 208.37 0 006.88-53.85c0-3.81-2.72-10 3.5-10.82 5.11-.65 2.48 4.29 3.12 7.28a88 88 0 01-2.73 47.34c-4.31 12.34-.08 18.57 8.37 25.24 3.87 3 5.09.41 5.38-2.29.67-6.31 3.25-12.26 5-18.06 5.58-18.61 7-37.72 9.11-56.89.3-2.78-.36-6.75 3.2-6.61 12.22-1.54-1.58 66.69-5.09 74.27-6.68 15.33-10.64 26.08 2.78 40.27a475.87 475.87 0 0027.32-72 219.45 219.45 0 007.76-44 4.66 4.66 0 014.06-4.67c2.81-.42 1.59 2.5 2.2 4 4 42.35-16.23 80.44-31.58 119.33 22.12-14.21 34.08-38.11 45-60.57 5.42-11.92 10.05-24.26 14.45-36.74.56-1.61 2.25-2.81 3.41-4.2 7 3.82 2.94 10.4.7 15.66-8.52 30.27-20.57 55.63-43 80.32 8.89-4.44 15.63 2.34 19.71-2.63 7.84-9.54 15.4-19.28 22.37-29.43a251.89 251.89 0 0019.44-33.17c1.08-2.24 1.69-7.63 6.08-6.93 8.68 6.49-17.39 43.71-22.33 51.51-4.36 6.29-8.9 12.47-13.38 18.69-1 1.37-5.07 3.08-1.67 4.41 3.2 1.24 5 8 10.62 2.83 16.59-15.56 30.58-33.47 44.79-51.13 2.29-4.46 8.71-1.3 5.43 3.07-10.51 17-22.45 34.59-37.19 47.75-8.23 6.65-6.28 9.77-1 15.28 1 1 .74 1.1 7.37-2.2 19.91-9.92 36.54-23.89 51-40.69.84-1 1-4.59 3.26-2.56.94.85 3.2 3 1.13 6.31-11.87 19-28.34 32.51-47.69 43.14-3.63 2-7.6 3-6.37 10.62 2.35 14.39 13.61 9.31 20.29 10.49 29.6 5 63.89-6.11 79-33.44 28.54-50.47-20.53-118.52-75.74-118-1.49-.13-3 2.39-5 0-1.71-2.12-1.65-4.06-.6-6.39 7.59-50.26-32.3-103-89.33-87.69-33.13 6.06-67.54 32.22-65.62 69.11 0 .88-.28 2.51-.64 2.57-1.56.25-3.77.73-4.71-.08-36.22-27.5-101.96-11.89-102.23 37.5zm-33.45-203.15c2.91 20.07 7.23 40.52 5.85 61.25 19.81-35.82 42.2-70 51.93-110.24 2.77-14.64 8.67-28.73 13.68-42.89 1.56-8.25 16.34-9.68 9.73-2-7.4 15.67-8.52 33.18-15.22 50.64 20.42-17.4 26.91-42.87 35.72-66.91 8.53-23.8 19.5-46.8 30.59-69.58 7.2-20.51 73.3-109.27 33.95-115.56-11.41 4.49-15 17.75-18.29 28.33-9.61 35.14-35.06 62.32-48.72 94.89.66-.3 1.65-.42 2-.93 7-11.71 17.78-20.2 25.22-32 11.1-17.66 17.67-37.77 30.7-54.23 1.56-3.83 4.33-3.87 4.17 1-2.22 15.83-13.48 27.63-18.91 42.18-18.86 39.29-55.5 66.47-78.37 103.56C523.41 411 507 432.24 491 453.62c-10.65 14.11-20.37 26.27-17.34 47.23zm-292-215.48c12 29.53 26.3 17.58 51.73 21 13.36 1.57 26.87 2 40.33 2.4 2.91.09 9.53 1.5 8.61-1.55-3.68-12.31-9.3-24-14-36-1.68-4.26-6-8.74-1.89-13.26 2.53-2.8 4 1.37 5.1 2.93 7.24 10.32 11.7 21.9 15.78 33.79 1.86 5.84.57 15.7 9.64 15.17 5.36-.23 18 8.42 15.81-7.56-2.1-15.27-5.3-30.39-10.93-44.8-1.42-3.64 1.21-5.65 2.21-8.34 1.59.93 4.23 1.55 4.61 2.83 2.56 8.58 5.77 17 8.31 25.6 2.79 9.45 4.78 19.08 4.2 29.31-.08 1.48-.53 5.69 1.16 4.49 4.56-3.24 14.11 5.61 14.36-5.08a339.19 339.19 0 00-1.92-41.4c.07-11.26-8.25-32.61-4.69-41.63 2.14-1.05 6-.39 6.64 2.93 2.7 13.76 5.84 27.46 7.22 41.38s.36 28.17 1.33 42.21c.47 6.75 7.31 1.72 10.72 3.9 1.63 1.05 2.79 0 3-2.39 2-27.66 7-55.15 4-83-.22-5.24-1.34-11.05 2.68-15.23 7.63 5.12 7 14.91 6.92 22.44 1.22 24.12.86 48.21-5.09 71.86-.35 1.41-4.73 4.84-.24 5.71 5.69 1.1 11.7.58 17.56.75-.65-11.65 6.87-20.9 9.36-31.69 3.25-14.1 7.49-28 11.5-41.87 1.42-7 7.22-1.21 6.65 2.43-5.73 7.13-2.72 15.94-4.93 23.78-3.91 13.86-6.09 28.16-13.19 41-1.2 2.18-1.46 4.88-2.16 7.34 5.49-4.92 13.26 9.35 19.73-4.46 8.2-17.5 16.38-35.09 24.61-52.59 1.24-2.65 1.16-6.67 5.08-4.57s1.13 9.81-.41 13.13c-3.42 8.22-5.81 16.88-9.29 25.08-3.47 8.84-10.27 15.77-12.22 25.46 8.63-.83 18.41 3 25.12-5.11 8.26-13.15 15.94-26.82 24.62-39.72 1.47-2.25 3.43-6.77 7.42-4.72 8.15 3.08-21.43 43.08-24.24 49.36 2.56-1.15 4 3.17 7.64.55 12.71-9.16 23.66-20.2 35.22-30.61 1.5-1.35 4.78-.74 7.24-1 0 1.75.72 4.25-.15 5.11-8.49 8.36-16.71 17.15-26.1 24.39-8.6 6.64-16.22 12.33-11.91 25.05.88 2.62.28 5.79 3.72 4.66 14.19-4.67 29.36-4.93 43.19-11.89 45.59-19.79 64.66-84.91 7.77-108-19.58-8.16-39-12.17-58.56-1.5-5.5 3-10.21 6.78-13.35-.61-15-35.18-43.43-55.74-84.73-53.94-38.94-1.6-73.51 26.87-71.77 65 3.06 8.32-2.18 20.83-10.82 10.6-14.46-13.46-33-17.5-51.07-20.92-32.42-7.23-66.48 31.76-47.11 61.8zM129.76 396c6.58-33.24 30.49-56.24 48.18-82.81 2.44-3.65 6.63-6.95 4.59-11.4-1.85-4-5.78-7.1-8.79-10.59-32.9 45.71-55.74 41.12-43.98 104.8zm95.13 230.55c-2.6-14.76-1.78-31.19-6.61-45.19-14.37-11.91-26-26.29-37.35-40.93-21.05-29.11-27.93-65.43-39.79-98.72-1.17-2.86-5.62-7.18-.17-8.8 5.84-2 6.27 4.59 7.87 7.78 6.8 13.53 12.76 27.44 15.07 43.12 2.44-10.64 4.69-20.6 7-30.55 1.09-4.68 4.81-10.84 3.06-13.7-7.45-12.15-9.26-26.88-18.29-38.19-2.5-4.61 1.14-9.34 5.7-4.61 8.7 7.47 11.45 18.34 16.68 29.36 3.24-16.4 3.89-31.26-2.6-45.84-2-5.67 1.55-10.82 5.8-4 19.57 30.83-1.56 67-5.9 99.06-7 41.21 17.95 67.42 44.75 97.39-7.52-45.31-9.88-82.17-13.18-126.3-2.17-43.06-10.46-85.68-7.22-128.95.42-5-6.64-4.44-9.29-7.64C181 320.49 175.12 334 166 345c-21.87 25.41-28.64 57.56-39.07 88.26-8.33 26.58-41 45.94-25.95 76.93 7.58 16.18 16.15 21 33.8 16.91 14.66.73-3.34 10.36-7.21 13.16C159 570.61 193.12 599 224.14 629.7c.26-1.05.86-2.13.75-3.14zM181.33 889c.42 3-3.7 15.76 2.45 13.21 28.93-10.36 36.51-54.59 8.37-69.92A222.51 222.51 0 00181.33 889zM137 842.66c16.51 5.6 26.27 18.41 35.51 31.87 4.22-15.52 5.53-31.95 12.16-47-17.56-5.15-33.59-3.88-46.27 11.14-1 1.13-3.68 3.22-1.4 3.99zm32.34 62.21c.81 0 2.43 1.25 2.5-1.7.46-19.9-11.72-32.68-24.78-45-4.09-3.86-9-9.56-14.2-7.69-5 1.79-4 9-3.76 13-.03 24.41 18.12 42.52 40.2 41.39zM87.8 1088.14c7.42-10.55 45.12 19.26 53.23 25.52 4.47 3.86 7-2.37 10.33-4.22.74-.41 1.43-.63 1.19-1.38-14.42-16.72-30.86-31.79-47.51-46.31-1.83-1.56-5.61-3.29-3.37-5.77 2.08-2.31 6.37-2.07 9.1.27 14.93 12.88 32.06 23.8 42.93 40.48 4.94 9.21 12.31 3.89 19.38 2a3.32 3.32 0 000-2.12c-11.57-16.88-23.68-33.35-38.07-48-2.61-2.65-8.64-4.88-5.26-8.6 9-6 28.52 22.75 34.88 29a183.32 183.32 0 0116.83 24.79c4.23 7.54 14.82.29 21.34 5-.26-6.63-3.32-10.43-7.67-14.88-11.47-20.88-24.71-40.41-42.61-56.36-3-2.66-.26-3.57.43-5.16 1-2.24 2.21-1.52 3.91-.48 21.4 14.59 40.32 41.65 51.29 64.55 3.9 10.35 7.18 17.49 18.34 18.78-5.31-23.46-13.14-47.26-24.07-68.82-5.23-10.4-11.48-20.22-19.85-28.93-1.9-2-1.84-3.15-.54-5 4.56-6.85 16.14 9.72 19.66 13 18.34 24.7 25.41 53 34.44 83.3 1-8.56 7.48-13.23 5-21.08-6.25-25.19-5.57-51.89-17.61-75.62-1.52-3.17-5.94-8.1-.52-12.1 2.82-2 4.09 1.64 5 3.15 17.16 25.41 17.62 55.06 23 84 4-2.64 10.34-3.1 11.71-8.28 5-24.14-.83-48.09-4.71-72.08-.37-3.59-5-9.17.07-11.24 3.5-1.43 5.68 3.6 7.11 7.61 7.65 21.38 9 43.55 8.06 65.87-.1 2.45-3.34 8 3 7.72 5 .19 9.07-2.6 8.92-8 .37-9.72 2.33-19.41 4-29 2.35-13.72 3.09-27.35.2-41.11-.3-1.41 2.14-4 3.9-5.09 11.53-2.53 5.28 74.19-2 81.94a2.44 2.44 0 01-.1.24c2.78-2.66 6-1.21 8.19-1.5 4.53-.65 9.6 5.84 13.86-1.73a103.81 103.81 0 0011.15-30.5c1.74-8.6 7.46-17.76 3.33-26.35-8.48-17.61-12.89-36.7-21-54.3-2.8-6-1.26-16.27-7.63-17.76a63.52 63.52 0 00-46.7 6.74c-8.41 4.75-17.08 13.92-26.81 0-21.16-26.9-61-21.43-89.73-11.14-69.54 31.39-30.43 82.72-48.21 100.11-30.42 10.68-57.53 54-37.59 82 15.51 19.08 75.24 37.85 88.28 9.91-14.43-9.23-28.79-18.58-43.35-27.6-2.81-1.61-9.57-.5-7.15-5.47zm126.67 77.1c.58-1.55-.43-2.36-1.87-1.8a50.62 50.62 0 01-21.54 3.72c-3.84-.21-3.07 1.37-1.72 3.21 8.6 11.74 15.61 24.92 29.34 32.41-4.3-12.49-8.47-24.54-4.21-37.54zm18.64-32.32c-.35-7.34-2.71-13.53-9.48-17.2-23.81-16.39-79-12.89-79.66 21.46 2.23 31.14 89.94 25.82 89.14-4.26zm24.35 81.92c50.49-3.49 44.31-74.67-3.46-71.92-44.87 5.51-43 70.35 3.46 71.92zm28.09-80.41c15.21-4 28.29-10.19 39.7-21 8-7.56 6.06-15 1.94-23-7.61-14.69-22-14.07-32.36-15.39-65.92-.4-72.18 66.57-9.28 59.39zm61.61-79.62c-3.55-6.33-8.7-27.2-13.35-28.55-2.18 10.78-3.11 21.61-8.23 31.75-1.88 3.88-7.1 7.92-4.09 12.65 1.43 2.26 7.81 4.32 9.2 3.17 6.59-5.46 13.44-11.11 16.47-19.02zm-167.62 170.85c2.59 3.63 3.83 7.33 8.55 1.19 2.65-3.45 5.75-7.85 11.91-8.32 5.12-.38 10-3.48 15.79-5.66-12.07-7.7-19.69-18.36-28.25-29.28-4.58-5.3-3.8-14.88-12.51-16.46-12.14-1.59-22.83-6.08-33.3-12.19 1.52 27.39 22.56 49.2 37.81 70.72zm43.28 78.51a165.92 165.92 0 00-32.3-54.39c-9.09-17-11.62 18.35-9.84 24.35 1 15.93 21.65 34.86 36.25 34.83 2.99-.34 8.27 1.74 5.89-4.79zm35.05-62.45c2.28-1.94.14-3-1.05-4.35-15.64-19.26-51.56-21.54-65.59-.52-1.07 2.76 2.15 4.13 4 5.65 14.12 11.35 23.31 26.2 31.31 43.45 4.46-19.53 17.33-32.28 31.33-44.23zm9 17.17c-1.31-9.79-4-13.5-10.53-4.16-10.15 9.29-16.07 21.06-22.18 33.31-3.87 7.73-2.5 12.62 1.17 17.59 3.21 4.33 6-1.25 9.16-2.4 21.58-8.15 23.06-29.43 22.35-44.34zm185.4-18.13c-7-11.49-16.85-21.09-22.68-33.66 5.63 31.34-16.66 67-49.43 69.58-34.57 2.31-55.06-12.76-64.53-49.19-11.86-42.15 49.35-89.78 93.15-54-15.87-31.13-34.91-60.84-49.32-92.63-6.28-14-10.12-17.35-20.12-3.81-2.48 3.36-3.55 4.28-1.6 9 16.83 31.16-24.7 56.62-53.55 57.36 14.25 6.3 20.33 29.89 18.07 42.23-3.52 24.87-21.34 33.39-43.14 40.79 11.91 5.46 10.72 21.26 24.58 27.31 20.41 8.9 39.45 21.31 60.14 30.14 14.5 6.2 28.43 15.42 44.94 3.29 5.72-4.2 15.58-2.83 21.19-7.11 14.39-11 27.48-23.68 41-35.76.95-.79 2.58-1.41 1.27-3.54zm-111.87 14.16c14 10.22 29.07 15.17 46.45 9.42-11.34-13-12.57-29.49-16.49-46.17-6.68 10.18-13.25 18.86-22.5 25.41-5.65 4-8.86 10.34-7.46 11.34zm10.42-26a87.94 87.94 0 0024-47.14c1.59-9.08 3.67-10.48 1.75-10.61-29.5-3.18-56.16 22.64-52.91 52.7 7.34 29.55 8.16 24.54 27.16 5.01zm44 30.64a2.23 2.23 0 002.07.64c15.18-9.17 22.58-23 23.84-38.74-.58-18.2-6.67-32.41-20.52-41.78-14.71-14.88-18.3 1-19 15.24-1.61 21.87 1.34 45.85 13.59 64.6zm254.49 4.44c24.1-1.92 48.25-3.31 72.36-5.16 2.43-.19 9.28 1.65 5.5-4.66-23.63-38.06-47.6-75.93-69.55-115a1267.92 1267.92 0 01-112.34-232.34c-16.42-43.16-24.3-89.38-37.64-133.63-16.59-76.87-31.48-154.3-42.38-232.19-6.48-68.64-10.9-137.91-11.88-206.79.15-1.34 3.31-6.9-2.94-7.22-8.73-.45-17.43-1.7-26.16-1.86-68.18-1.33-136.58-5.84-204.83-6.74-4 1.15-13-4.25-13.68.94 10.58 123.46 21.42 247.78 42.1 370.22 16.62 75.77 37.84 150.87 58.92 225.43 34.09 102 77.21 201.59 136.39 291.91 13.64 19.66 29.07 38.39 40.72 59 8.87 15.7 19.74 14.16 32.48 12.78 44.33-4.78 88.48-11.08 132.93-14.69zM895 369.89c-6.67-1.44-7.67 3.4-8 8.8-4.36 20.13 22.38 20 22.45 2-.19-8.23-6.39-10.8-14.45-10.8zm.71 1041.11c-16.55-1.74-9.87 12.08-11.63 19.72-1.12 4.9 1.81 10.49 7.95 10.2 12.84-.62 17-9.94 17.15-20.86.15-7.93-6.18-9.47-13.47-9.06zm-9.26-1288c.42 5.52-1.5 14 8.75 12.16 9.38 1.49 11.66-4.52 12.32-11.29 1.73-14.53-23.22-15.93-21.07-.87zm12.23 334.32c11.35 1.68 11.18-23.18-.67-22-7.47.44-13.68 4.19-13.1 13.2-1.03 11.61 9.03 7.75 13.77 8.75zm-4.33 235.48c-9.74 0-8.72 8.09-9.62 13.89-1.17 7.48 4 11.85 10.53 12.08 15.43-.08 15.55-26.77-.91-25.97zm-2.68 167.86c14.75 1.44 19.88-24 2.62-23.7-12.35-2.45-13.55 24.21-2.62 23.7zm.85-613.54c16.93.2 14.05-24.52-2.37-22.12-8.39.05-7.83 7.45-8 12.28-.15 5.56 3.31 10.12 10.37 9.84zm-2.39 1252.39c-8.31.42-16.32 5-12.8 16.44-4.21 13.25 7.2 14 14 14.53 14.78.7 14.47-32.64-1.2-30.97zM886 322.47c15.94.89 20.73-24.58 2-23.38-7.94 0-6.88 7.56-9.41 11.74 1.12 5.43 3.1 11.88 7.41 11.64zM884.33 27c8.79 1.09 12.18-4.51 12.48-11.34.68-15.17-26.26-16.35-22.61.41.5 5.86 1.72 12.26 10.13 10.93zm-5 606.14c8 .73 10-4.46 10.31-10.64.42-8.35-1.48-15.35-11.95-15.58-16.24-.83-13.61 27.42 1.66 26.23zm-28.53-442.4c-1.41 18.73 26.45 14.74 26.47-1.82 1.53-18.92-27.36-15.35-26.47 1.82zm21.06 303.94c1.31-17.37-22.5-17.19-22.63-.69.44 7.2 5.51 11.49 14.24 11.07 8.29 1.99 8.44-4.72 8.39-10.38zm-24.31 695.08c-11.51.1-14 27.53 7.07 24.5 6.73-.25 6.93-5.54 6.28-11.26 2.28-10.5-5.9-13.3-13.35-13.24zm4.19 262.66c-22.42-4-23.86 25.3-9.83 27.91 9.45-.82 17.24-6.52 17.15-18.75 1.11-5.23-2.93-8.77-7.32-9.16zM846.51 87c9.2.17 11.37-6.9 12.4-13.84 1.21-8.08-3.95-10-11.12-10.38-7.9-.37-11.91 2.49-11.9 11.39.36 6.2 1.68 12.67 10.62 12.83zm-33.45 809.22c.06 6 .87 13.16 9 12.73s16.48-2.27 17.48-13.47c-1.82-6.2-1.43-14.05-10.91-14.49-10.44-.49-15.63 5.13-15.57 15.23zM837 1396.56c.14-16.42-25.63-13.5-25.45-1.59-3.84 26.31 28.55 21.21 25.45 1.59zM834.8 360.1c.91-16.44-24.42-20.59-21.81-.73-2.23 10 6.33 10.88 13 11.35 5.83.42 8.83-5.56 8.81-10.62zM813 269.54c.63 6.56 1.14 13.36 10.14 13.66 9.69.76 9.29-7.11 9.64-12.5 2.67-15.7-21.46-15.44-19.78-1.16zm-.28-119.88c8-.63 8.53-9.11 9.1-14.82.83-8.38-7.38-9.33-12.87-9.52-21.46.26-11.29 28.16 3.73 24.34zm8.56 269.54c-.27-13.89-21.07-13.77-18.27 1.15-4.01 11.45 20.87 11.06 18.23-1.15zm-11.35 129.49c15.49.23 14-26.74-2.56-24.57-14.37.88-10.61 24.88 2.56 24.57zm-5.69 986.15c-17-1.52-17.13 28.81-2.44 28.94 18.92 1.71 19.36-29.04 2.44-28.94zM787.18 479.12c17 2.28 18.86-23.11 2.23-22.37-7.75-.47-11.77 3.56-11.92 10-.15 6.18.28 14.31 9.69 12.37zM781.94 1471c-13.1-.52-10.61 10.47-12.84 16.32-1 11.33 7.4 11.46 12.67 11.37 16.32-.09 18.06-28 .17-27.69zm3.14-1424c17.47-.9 14.7-26.86-1-25.87-14.32-1.13-13.89 27.87 1 25.81zm-19.19 272.08c-7.59-.78-8.63 5.35-8.84 10.76-.35 9.5 6.58 11.28 13.94 11.19 7.91-.09 6.87-7 7.77-9.76 1.52-12.93-6.84-11.58-12.87-12.19zm-6.42-120.17c-9.74-.86-9.75 7.29-10.14 12.88-.33 4.81.23 11.54 8.68 11.36 15.54 1.42 16.67-25.15 1.46-24.24zm-9.22-94c10.31.71 14.58-5.42 13.43-15-.52-4.37.39-11.48-8.23-9.26-9-.93-14.34 2.73-13.28 12.19.56 5 1.09 11.59 8.08 12.07zM737 464.73c9.88.06 9.25-8.47 9-15.33-.34-7.82-6.26-10.37-12.71-10.28-7.69.11-9.49 6.31-10.3 12.35-2.36 12.2 6.78 13.23 14.01 13.26zm-5.18 1051.12c-9.87.2-13 8.73-12.07 14.26 1.14 6.89-.21 19.23 13.78 18 18.55 1.03 15.09-33.9-1.69-32.26zm-22-1239.5c6.44.07 16.26-.8 15.15-12.45-.28-5.37-2.14-12.36-7.2-12.26-6 .13-15.27.32-14.95 11.23.18 5.95 1.62 13.42 7.04 13.48zM707 1433c-8.36.31-14 4.12-12.91 13.2.93 7.48.82 17 13.51 14.68 12.91 3.32 12-7.31 12.09-14.35s-3.46-13.9-12.69-13.53zm1-1030c13.36.9 12.37-19.33.48-19.4-10.38-.87-14.07 20.04-.48 19.34zm-20.78-281c-11.29.33-11.85 22.29-.17 22.85 6.87.46 14.31.07 14.08-12.1 1.48-8.92-4.79-11.83-13.91-10.75zm0-49c5.28-.88 11.46-1.58 10.67-9.54-.67-6.63-1.73-13-7.82-12.69-9.59.78-14.82 5.33-14 10.51.93 6.41 2.1 13.31 11.13 11.8zm-22.45 1426c-18.44-1-17 26.7-.3 27.08 15.87 1.62 17.13-26.23.3-27.08zm-8.09-63.1c1.2-9.9-8.7-10.58-14.68-10.52-9 .08-12.82 7.93-12.81 16 0 8.64 6.58 11.48 16.88 11.89 10.7.95 9.72-10.11 10.61-17.35zm-16.5-1412c16 2 19.06-22.86 4-22.93-7 .19-12.72 1.94-11.2 10.37-.09 6.11-.4 12.54 7.2 12.57zm1.1 1142.7c-2.23-1.95-3.54 0-4.7.94-30.49 27-81.47 49.79-115.54 16.45-31.17-36.2-21.73-89.53-52.85-126.54-20.91-27.39 13.15-44.31-1.56-62.66 49.29-29.58 34-106.14-23.14-74a149.3 149.3 0 0120.41-45.25c1.35-2 1.46-5.84.5-8.15-.9-2.16-4.18-1-6.59-1.18-12-.64-18.81 9-28 13.74-11.57 5.92-21.1 16.17-35.68 15.06-21-3-.05 29.51 34.42 4a26.9 26.9 0 014.88-1.75c.08 1.91 1 4.37.12 5.65-10.56 15.66-13 34.46-20.06 51.47-2.21 5.35-3 12.75 2.57 16.19 5.35 3.35 10.86-1.9 12.47-6.3 6.1-16.42 25.67-40.85 45-34.57 12.07 6.61 8.57 27.85 1 36.34-8.29 9.88-16.69 21.2-32.93 15.12-8.22-2.89-16.52 10.46-7 14.91 3.64 1.56 7.93 2.61 10.58 5.25 3.39 3.38 16.05-1 8.56 12.63-23.43 38.68 21.73 64.11 26.85 103 7.84 57.34 36.93 114.82 104.48 94.1 23.4-6.53 43.64-17.67 56.09-39.72.9-1.53 2.21-2.9.12-4.72zM628.22 116.81c7.56 0 13.07-3.59 11.82-12.71.66-5.95-1.12-11.18-7.89-10.95-15.38-1.58-20.47 22.5-3.93 23.66zm-15.87 1441.88c-14.92-1.38-10.11 25.79 4.18 24.3 15.94-.56 14.01-25.99-4.18-24.3zm-28.54-91.91c-7.85-.44-9.45 5.69-8.73 11.82.79 6.69.11 15.58 9.79 16.21 7.63.49 13.38-3.22 12.27-11.4.33-10.41-4.14-16.11-13.33-16.63zM584.47 63c7.12.61 12-2.91 12.56-10.23.52-6.39.76-13.45-7.28-12.12-8.39.26-14.74.74-14.75 9.35 0 6.43 1.74 12.31 9.47 13zm-38.56 36.1c13.66-.35 13.84-23.49-2.2-21.95-13.58-.61-11.21 23.91 2.2 21.92zM537 1521c-18.19-.56-19 28.53 1.34 26 10.72 2.41 8.71-6.8 9.31-12.92.67-7.31-1.5-13.61-10.65-13.08zM513.67 179.43c11.24.38 12.2-8.82 13.12-16.43.88-7.25-4.54-10.65-11.13-9.82-13.35 0-14.84 26.3-1.99 26.25zm-35.11-71.36c-.06 4.55-.11 10.23 9.38 8.55 2.73-1.74 11.64 2 10.91-7.6-.43-5.67 1.41-14.23-8.73-14-8.12.2-11.47 5.73-11.56 13.05zm-12.48 1451.44c-15.82 2.4-8.85 26.47 6.08 26.84 7.58.82 13-4.39 12.89-15.47-1.6-8.36-12.75-6.65-18.97-11.37zm5.35-1496.43c15.26.24 15.88-28.44.67-23.92-16.51-4.16-17.5 26.53-.67 23.92zM351.28 1493.29c15.56-13.7 28.34-29.92 40.82-46.41 23.13-30.57 53.54-54.87 75-86.94 2.4-3.57 7.26-6.76 3.16-10.8-4.83-4.73-5.07 2.46-6.89 4.32-42.53 39.46-76.31 86.84-115.51 129.18-43.65 34.48-59.47 55.72-80.24 107.21-2.64 3.85-3 12.07 3.71 14.58 19.56-49.07 35.5-80.1 79.95-111.14zM361.91 865c-6.06.25-12-1.83-14.57-7-14-27 18.58-47.55 39.7-57.43 6.5-2.86 4.86-8.94 3.41-12.68-8.41-21.69-15.68-43.94-29-63.44-1.7-2.48-2.75-6.91.49-9.49 3.87-5.06 14.39 12.49 15.4 15.54 6.16 18.74 16.06-3.8 47.49-1.61 6.85 1.48-.07 9.59-4.11 10.06-9.2 2.78-18.5 5.21-27.69 8-11.24 1.09 13 33 10.52 44.29.14 4.3 6.64 1.66 9.82.51 17.87-5.34 39.64 3.53 38.37 22.73-3 16.86-14 30.82-24.18 45.17-5.59 6.77-16.77 29.49-27.2 24.31-5.31-15.36 44.46-60.93 35.45-74.78-4.1-4.67-10.56-3.85-16.82-3.78-19.6.25-14.55 16.62-17.59 26.75-5.13 17.14-21.82 32.17-39.49 32.85zm29-46c-.68-1.14 1.32-5.46-3-2.93A119.33 119.33 0 00359.86 839c-2 2.24-3.15 5.8-.72 8.92 10.46 10.69 33.31-16.27 31.8-28.85zm-104.54 670.81c22.05-37.86 55.69-65 88.41-92.86 27.73-30.53 54.84-64.38 72.62-101.63-.85-2.7 1-5.67-2.29-6.2-2.48-.41-3.33 1.91-4.54 3.76-7.78 11.94-15.35 24-23.75 35.55-21.09 28.52-43.08 56.79-70.5 79.59-1.17 1-3.23.85-4.88 1.23 14.83-32.94 23.12-69.79-5.35-98.38-5.66-9.4-10.47-.4-5.76 6.43 28.36 35.57 10.85 81.47-13 113.72-10.95 16.09-25.16 30-35.68 46.34-11 17-23.29 31.78-40.53 42.7-34.09 21.69-67.69 44.15-98.4 70.49-2.37 1.9-3.23 4.58-1.71 7.24 1.79 3.11 4.46.76 6-.19 6.25-3.82 13.09-7.25 18.14-12.38 37.29-36.39 92.29-50.38 121.22-95.41zM410 99.53c-.07 18.58 23.35 14.22 22.48-1.83-.13-10.94-23.6-13.77-22.48 1.83zm-62.48 601.35c-11.66 17.18-27.06 5.84-28.42-10.27-19-71.12 114.94-94.48 103.77-25.84-5.39 41.9-48.88 62.12-36.41 38.6 6.51-9.51 14.53-18.38 19-28.76 6.56-13.82.62-38.22-19.23-33.37-15.63-3.17-11.47 11.12-14.9 17.87-7.24 14.34-13.74 28.72-23.81 41.77zm16.81-54.28a9.58 9.58 0 00.37-2.87c-22.27 3.6-40.26 27.43-28.56 49.12 12.93-8.43 20.58-32.49 28.19-46.25zm-44.48-115.79c-14.05 23.64-49.7 22-40.68-11.72 5.89-16.91 10.84-34.1 25.09-46.67 1.91-1.68 1.33-7.5.31-10.94-2.2-7.46-2.26-15.05-1.42-22.42 1.14-10-4.91-8.18-9.92-6.55-10.53 3.41-25.83-2.9-30.29-13.16-3.7-6.69 5.2-9.21 8.85-6 7.21 5.36 15.15 4 22.87 3.36 4.57-.38 8.26-2.58 8.45-8.76.3-9.46 2-18.86 2.59-28.32 1.84-11.95-9.89-2.24-12.47-9.74a14.23 14.23 0 011-8.88c1.8-3.75 4.9-.53 7.51-.52 9.07 0 18.1.52 19 11.8.69 8.34 2.24 17-1.33 25.42-1 2.38-.15 5.55-.15 7.93 19.19-5.57 37.68-18.37 58.26-13.2 5.12 1.59 10.68 2.69 9.19 8.73s-9 5.14-13.4 5.23c-15.56.66-29.7 6.7-43.87 11.93-13.59 2.62-12.4 12.74-10.64 22 1.27 6.75-2.09 19.83 2.41 19.14 12.54-1.93 26.2-6.83 27.79-23.66.24-2.56.68-5.58 2.2-7.44 2.11-2.57 3.07-8 7.93-6.25s4.57 5.64 2.57 10.23c-18.14 35.36 61.86 7.34 37.15 74.87-2.5 18.11-61.64 70.24-30.33 77.5 13.49 1.53 12.06 12.11-.65 12.13-22.87 1.26-30.87-14.11-20.06-36.66 8.33-20 54.12-62.35 35.62-83.41-8-8.33-19.24-9.55-29.5-9.1-6.08.27-6.11 9.72-8.74 15-4 8.07-7.22 16.5-10.89 24.72s6 12.34 6.23 19.43c.12 3.22 5.52 6.74.67 9.47-11.27 5.33-11.04-19.77-21.35-5.49zm5.58-37.7c2.61-8 8.39-13.85 6.7-19.92-12.75 1.81-7.66 10.36-6.7 19.92zm-10.55 8.38c-1.63-6.25-3.13-18.35-8.8-7.86-6.61 11-12 22.66-12.8 35.86.59 13.89 25.49-17.11 21.6-28zM235.82 77.14c-5.81.92-14.14.51-13.68 9.78.32 6.4 1.47 13.68 11.54 12.15 13.53 3.15 15.9-23.89 2.14-21.93zM229.58 38c14.85-.87 14.35-23.55 0-22.58-8.07.73-10.86 7.14-10.58 14.57.29 7.09 6.85 6.23 10.58 8.01zm-54.26 29.83c11.19.22 13.91-24.1.75-23.69-14.46-.23-16.15 24.75-.75 23.69zm-46.23 692.9c-11.34.6-11.3 10.63-11.7 17.56-.6 10.19 8.53 10 15.54 9.23 12.06-1.37 8.33-12.76 9.38-19.3s-6.99-7.39-13.22-7.49zm-1.2 577.15c17.82 1.46 16.47-27-.18-24.91-11.08.77-11.1 9.11-10.5 16.86.45 5.94 5.34 7.97 10.68 8.05zM124.07 42.47c9.49-.33 15.32-8 14.49-17.46-.69-7.92-8.77-7.62-14.69-7.93-13.76-.65-10.01 26.68.2 25.39zm-15.15 1396.59c-9.12-1.51-14.1 3.55-13.55 11.61.36 5.18-2.27 14.48 8.67 14.43 12.89-.07 17.51-5.92 15.44-18.84-1.18-7.36-4.95-7.9-10.56-7.2zm-9.09-1144.2c24.52 1.34 20.9-31.65.69-29.66-18.33.08-13.52 27.19-.69 29.66zM72.36 409.34c1.26 15.2 24.85 12.68 24.73-4.57.8-7.1-.46-13.89-9.89-11.8-11.69-.65-14.62 2.33-14.84 16.37zm10.82 761.59c-6.21-.09-7.94 4.4-8.07 9-.21 7.11-2.57 16.65 7.14 18.74 9.28 2 16.19-2.3 14.77-13.33 1.86-11.34-4.54-14.27-13.84-14.41zM81.58 96.25C95.87 94.13 97 73.2 81 73c-13.59.2-13.2 21.88.58 23.25zm5.79 1171.6c1.74-17.9-21.18-22.32-21-7.61 1.11 6.18-3.14 17.38 10.41 14.68 5.63.52 10.63.69 10.59-7.07zm-19.68-426.3c13-.82 15.12-7.38 15.57-15.45.61-10.67-8.84-10.81-14.26-10.6-12.53.19-12.43 25.8-1.31 26.05zm-8-135.38c-9.83.85-9.41 10.19-10.46 16.84-1 6.17 3.7 8.77 7.88 8.24 20.15 2.39 21.43-26.86 2.58-25.08zM71.77 527.3c.1-17-22.18-14.76-22.69-.2-1.59 19.5 23.14 14.5 22.69.2zM51.64 928.51c15.87 1.2 20-32.7 1.8-30.51-10 .48-10.84 9.2-12.4 16.41-1.8 8.38 4.48 14.11 10.6 14.1zm-5.58 418.65c-6.3.5-13.13 2.2-13.05 10.8.06 6.44-2.34 15.1 7.83 15.89 20 4.15 25.99-27.91 5.22-26.69zM47.71 316.1c-9 1.2-9.49 8.45-9.23 14.95s6 7.58 9.64 8c12.34.55 14.22-7.81 14.23-14.78 0-8.99-7.73-9.09-14.64-8.17zM45.73 56c12.61-2 8.45-24.89-4.3-23.88C32.35 32 29.33 37.83 29 45.68 28.37 59 37 57.24 45.73 56zm-9.16 384.85c-14.32-.8-19.32 24.91-4.64 25.79 5.38-.11 14.36-.71 13.42-8.64-.68-5.74 5.38-17.35-8.78-17.15zm-2.24-177.79c8.22-.18 10.37-5.94 10.63-12.54.31-8-5.38-9.44-13.56-9.78-13.8-1.19-11.15 24.13 2.93 22.32zM19.56 1240.3c-7.95.38-8.19 7.46-8.4 12.92-.24 6.42 3.74 10.08 10.51 9.83 17.58-2.4 13.24-25.76-2.11-22.75z"/></g><g id="Red_Japanese_Frames" data-name="Red Japanese Frames"><path class="cls-7" d="M0 20v1560a20 20 0 0020 20h936a20 20 0 0020-20V20a20 20 0 00-20-20H20A20 20 0 000 20zm924 1528H52V52h872z"/><path d="M952.1 15.41l-23.41 23.42a4 4 0 01-2.83 1.17H50.14a4 4 0 01-2.83-1.17L23.9 15.41A2 2 0 0125.31 12h925.38a2 2 0 011.41 3.41zM40 1549.86V50.14a4 4 0 00-1.17-2.83L15.41 23.9A2 2 0 0012 25.31v1549.38a2 2 0 003.41 1.41l23.42-23.41a4 4 0 001.17-2.83zM936 50.14v1499.72a4 4 0 001.17 2.83l23.42 23.41a2 2 0 003.41-1.41V25.31a2 2 0 00-3.41-1.41l-23.42 23.41a4 4 0 00-1.17 2.83zM925.86 1560H50.14a4 4 0 00-2.83 1.17l-20 20a4 4 0 002.83 6.83h920.55a2 2 0 001.41-3.41l-23.41-23.42a4 4 0 00-2.83-1.17z" fill="#992d17"/></g></svg>