<svg xmlns="http://www.w3.org/2000/svg" width="976" height="1600"><defs><clipPath id="clip-path"><path d="M960 22v1556a6 6 0 01-6 6H22a6 6 0 01-6-6V22a6 6 0 016-6h932a6 6 0 016 6z" fill="none"/></clipPath><style>.cls-6{fill:#592116}</style></defs><path d="M960 22v1556a6 6 0 01-6 6H22a6 6 0 01-6-6V22a6 6 0 016-6h932a6 6 0 016 6z" fill="#f4f3ef" id="Paper_Backing" data-name="Paper Backing"/><g clip-path="url(#clip-path)" id="Wikipedia_Cropped" data-name="Wikipedia Cropped"><path d="M502.58 1336.73c-29.69-7.3-8.79-81.21 7.28-96.56 19.5 16.39 23.32 88.52-7.28 96.56zm98-129.87c-81.77.08-29.11-33.22 16.16-38.66 43.26 5.86 15.85 43.5-16.13 38.66zM439.48 1195c-30-2.39-79-14.75-70.41-48.43C387 1128 477.2 1194.74 439.48 1195zm159.64-84c-59.38 1.36-5.47-31.86 25.72-33.88 46.79 9.29-.67 38.31-25.72 33.88zm-156.42-17.5c-23.81 0-86.47-38.64-48.75-60.39 17.05-.63 90.68 59.09 48.75 60.34zm-244.39-20.68c-28.2 0-12.86-81.87 5.22-95.49 18.47 13.16 27.21 89.81-5.22 95.44zm414.61-56.11c-59.57 2.57 6.84-44.1 36.28-39.77 9 0 14.13 4.12 15.82 12.6 4.56 24.61-34.95 26.02-52.1 27.12zm-159.3-37.17c-63.46-9.06-78.29-83.25-20.82-43.16 4.88 10.94 42.33 36.88 20.82 43.11zm393.66-17c-21.27-2.16-48.71-55.5-29.46-71.36 19.18 8.25 64.51 59.35 29.46 71.35zm-565.1-31c-81.38-3 46.42-66.94 53.05-19.81-4.86 21.64-35.44 17.44-53.05 19.81zM147.32 931c-21.66-1.35-48.26-17.06-55.27-41-2.55-9.45 8.66-21.79 17.1-14.12 9.65 5.98 63.43 52.61 38.17 55.12zm444.05-2c-55.87 0 36.42-56.07 54.06-34.57C659.29 921.8 610.71 926 591.37 929zm-140.16-66.28c-26.71 3.81-87.15-43.51-42.35-48.06 9.57.53 67.24 40.86 42.35 48.06zm434.31-2.65c-20.89-.13-39.47-7.37-56.79-14.65-19.26-12.26 20.32-20.81 29.1-19.57 19.17-4.54 61.17 26 27.69 34.22zm-292.44-27.15c-50.13.88 15-42.39 33.78-40.34 21.34-2.15 45.65 19.11 18.41 28.88-16.66 7.61-34.52 10.16-52.19 11.46zm-316-12.1c-38.08-10.41 32.84-42.07 46.6-37.82 15.86-1.43 28 21.12 9.6 26.07-17.18 9.23-36.71 10.12-56.15 11.75zm-118-4.1c-51.34-7.53-82.59-107.35-17.49-50 5.93 9.28 39.85 47.28 17.51 50zm285.64-62.55c-74.87-5.52-78.69-89.13-15.08-34.81 4.88 8.7 26.98 27.21 15.1 34.81zm144.58-18.72c-62.62 2.12 58.54-70.24 65.29-35.61-.05 25.32-43.34 33.32-65.29 35.61zm-301.12-15.92c-66.34 4.81 12.7-43.89 36.14-34.31 43.3 17.09-13.01 38.18-36.14 34.31zm-128-2.46C131 715.71 76.64 660.59 115 646c22.61 3.4 56.75 51.74 45.15 71.07zm2.12-116.15c-28.35 4.31-72.37-63.25-29.12-58.35 11.43 5.43 54.23 53.11 29.09 58.35zm159.59-5.8c-83.08 3.75-30.37-43.59 16.41-41.54 59.02 4.42 20.13 45.14-16.44 41.54zm-50.3-100.21C243 484.45 313.45 450 324.48 454.78c66.11 13.75-31.16 43.51-52.89 40.13z" fill="#6060bf"/><path d="M518.38 669.37c-32.82-27.38-26.89-112.5 20.71-119.83 20.73 34.11 15.68 95.61-20.71 119.83zm193.4-40.72c-48.33-67.44 63.15-196.24 37.24-43.54-8.2 30.75-15.93 37.93-23.1 40.47-6.2-4.05-9.16.65-14.14 3.07zm136.75-15.27c-32.41.06-51.1-40.47-45.69-72.22 1.49-10.28 8.31-5.36 9.95-17.73 27.55 2.67 53.8 66.65 35.74 89.95zM429 563.52c-29.1-22 27.78-61.94 54.41-65.11C501 523 459.37 563.63 429 563.52zm215.88-12.89c-116.33-21.77-55.88-152.06 15.49-11.89 2.73 4.39-11.45 13.17-15.51 11.89zm229.62-54.88c-12.19.61-72-16.74-60.81-44.89 16.11-28.24 114.59 35.97 60.81 44.89zm-202.5-19c-3-1.15-8.61-2.22-8.22-6.45 5.75-47.5 16.57-55.18 47.9-64.92 37.12 14.5-14.37 72.22-39.68 71.4zm-268.51-22.4C386.79 425.65 447 374.42 475 389c-4.92 26.95-24.55 54.62-52.29 63.53-9.71.09-9.71-5.34-19.22 1.85zm-281.81-4.79c-22.58-14.38-1.27-84.9 25.08-82.8 14.35 6.42 19 6 14.29 24.42-3.11 23.55-15.44 48.82-39.37 58.41zM864 404c-37.53.55-62-19.46-73.66-45.55C811.19 323.37 941.23 398.92 864 404zm-583.23-9.37c-22.49 3-78.95-49.5-43.24-63.15 23.86-1 70.47 48.15 43.24 63.11zm362.85-11.65c-38-7.2 5.15-72.72 32.7-69.67 27.61 20.18-10.91 62.69-32.7 69.63zM391.2 338.37c-27.94-19.76 31.32-58.09 50.24-50.36 2.9 12.77 13.3 0 19.41 4.53-8.85 28.65-43.72 43.64-69.65 45.83zm209.46-13.87c-27.22-3.18-62.75-48.58-42.08-71 21.52 7.46 49.34 26.26 50.22 51.22-3.9 2.79-2.31 7.74.42 10.7 5.14 5.98-3.48 8.92-8.56 9.08zm-482.57-25c-80.23-1.09 50.61-81.79 50.57-24.49-12.43 16.99-28.02 24.53-50.57 24.53zm689.31-2.8c-18.66-.94-66.6-9.09-68.69-38.15 4.95-32.69 151.95 28.28 68.69 38.15zm-515.91-28.61c-24.18-18.35-18.46-81.56 10.87-88.39 15.09 11.74 27.13 79.35-10.87 88.39zM870 262.48c-25.26-8.92-71.89-50.45-52.86-74.27.69-6.85 9-8.46 13.19-4.16 28.2 17.2 52.46 41.44 46 76-1.16 2.42-3.97 2.26-6.33 2.43zM359.75 237c-10.94-10.83 21.26-65.66 38.18-71.06 13.23-9.37 9.9 5.84 18.65 7.14 16.68 17.36-17.64 51.31-33.94 60.06-9.18 5.35-14.36-3.65-22.89 3.86zm212.07-3.37c-13.48-22.32.27-55.43 13.5-76.31 3.74-4.43 12.11 3.61 14.11-4.76a4 4 0 014-2.92c16.57 24.92 1.16 78.91-31.61 83.99zm-437.69-32.58c-11-1-27.23-1.2-35.9-8.71.39-8.2-9.59-10.06-5.88-17.32 13.76-17.85 65-18.16 83-1.93 1.26 20.91-22.58 27.4-41.22 27.96zM537.52 134c-19.39.11-52-11.16-58.58-34.86-3.56-1.45-2.8-7.2 1.08-7.6 34.91-12.17 118.08 32.09 57.5 42.46zM872 123.32c-17.26-.62-80.77-8.47-53.5-36.64 24.12-9 50.71 1.07 70.59 13 6.49 17.32 3.37 22.89-17.09 23.64zm-645.07-19.95c-12.07-1.25-80.11-6-64.81-31.41 46.74-37.96 154.13 25.16 64.81 31.41z" fill="#50b271"/><path class="cls-6" d="M835 824.4c-13.35 6.74-26.12 10.72-41.33 11.2-12.54.4-14.61-10.6-22.57-14.11-31.36-13.55-27.08-52.18-34.67-80.28-3-18.91-9.91-37.13-9.5-56.7.2-9.51-.43-19-1-28.55-3.68-28.8 9.82-21.64 19-42.88 12.22-25.8 19.89-55.58 13.1-84-2.29-10.48-11.46-20.19-8.41-30.49 5.94-16.59 12.32-35 21.94-49.52C779 463.92 784.29 480 791 495.25c3.86 9.42 12.78 20.27 10.59 28-4.84 17-4.88 32.71-2.7 49.92-2.89 18 52.7 69.9 56.32 50.17 7.11-31.53 2.74-65.45-18.27-91.38-8.53-10.69-25.42-10.24-30-26.77-5.21-19-14.18-37-21.85-56.22 20.12 4.39 20 13 31.32 26.34 20.36 18.66 43.72 29.84 72.06 25.46 12.12-.92 15.93-13.25 8.15-22.81-19-21.92-42.65-45.5-74.45-37.38-20.75 9.12-44.37.47-51.15-23.43-4.88-22.08-20.19-40.41-27.8-61.49 64.42 9 34.29 19.69 82.25 46.31 15 8.62 31 7.82 46.73 8.59 8.48.42 20.82 1 24.64-9.54 5.82-22.38-33-44.67-50.93-51.56-17.57-6.35-34.86-6.45-52.65-.74-5.12 1.64-8 8.47-16 4.66-9.36-4.47-20-6.18-30.72-6.78-3.62-.2-9-.46-11.45-5-13.52-27.6-30.64-53.6-41.58-82.22 7.35-.48 15.34 1.5 22.07 4 5.59 2.56 13.07-1.15 17 4.86 11.27 17.16 28.82 24.87 47.11 30.6 13.16 4.41 54.47 7.94 62.48-4.53 1.47-18.21-19.51-30.4-33.37-38.47-20.35-11.31-43.69-17.68-64.17-7.66-15.59 7.62-28.48 5.65-42.22 2.15-5.54-1.41-13 3-16.53-3.45C655 178.54 617.3 115.36 572.7 54.77c65.92 21.41 128.62 50.58 183 93.94 8.58 7.59 18.23 14 27.22 21.11 7.54 6 18.67 10.77 20.17 20 6 29.91 22.89 56.12 50 70.4 7.58 4.48 17.71 8.47 24.15 3.44 17.12-20.06-2.67-55-21.1-68-17.12-13.57-23-27-49.48-19.6-27.32-22-54.64-44.5-83.36-64.45 1-.81 1.93-2.22 3-2.35a528.65 528.65 0 0170.13-4.11c2.62 0 5.21-.66 7.66 1.93C825 127 866.92 134.15 894 123.77c9.8-4.06 12-8.7 8.23-16-9.75-18.82-42.46-30.67-63.74-30-10.93.85-19.93 2.29-29.49 7.55-4.76 2.63-3.68 10.2-10.32 9.64-4.62-.39-9.35-1.67-13.82-1-20.33 2.87-41.12-.75-61.42 5.52-4.83 1.49-12.81 4.94-17.63 1.82-34.43-21-72-36.31-109.57-50.28-16.24-6.56-35.06-7.33-46.65-23.88-7.59-10.8-17.99-21.03-27.4-31.83-1.31 10.26 6.46 17.11 10.92 23.19 11.2 17.06 23.6 33.32 35.28 50.07 9.24 13.25 18 26.83 27.2 40.13 5.12 7.41 8.69 14 4.25 24-5.55 12.44-19.11 17-24.87 28.86-9.54 18.61-26.72 68.27.42 79 4.64 1.41 8.35-1.82 11.65-4.84 23.58-20.77 40.27-60.51 20.56-89.13-2.66-3.43.29-8.46 2.61-10.75 2.62-2.59 4 2 5 3.93 27.72 47.49 53 96.79 77.22 146.26 4.52 9-2.45 23.21-11.39 22.95-38.17-1-59.17 35-60 69.5 0 40.54 56.69-6.92 62.56-23.45 6.17-11.7 12.63-23.71 8-38.39-1.67-5.3 4.72-9 9-11.4 3-1.68 3.39 3 4.1 4.88 7.45 20.24 20.22 37.71 29.58 57 2.12 4.36 6.09 9.62 4 13.06-4.61 7.52-10.29 17.19-18.89 18.25-15.23 1.88-28.83 6.85-40.28 16-15.56 6.77-35.29 67.35-11.87 68.82 36-1.94 66-37.78 61.51-73-.39-11.15 10.51-13.11 14.59-20.47.66-1.2 1.93-.18 7.17 10.2a27.3 27.3 0 011.71 4c10.94 24.85 19.89 28.12.75 55-6.8 15.64-9.92 32.56-23.74 45.26-34.81 29.85-46.64 84.08-27.57 126.45 3 5.83 11.31 9.89 6.52 20.27C698 672.91 691.64 696.5 691 721.18c.13 32.86 6.6 72.78 38.22 89.89 5 2.75 11.56 4 13.73 10.77 23 73.59 52.63 144.71 74.43 218.7 14 41.31 19.66 84.47 18.32 128-.38 34.13-19 58.65-45.29 78-7.39 5.43-12.23 5-11.59-6.82-6.13-54.22-77.8-38.4-71.65 11.61 3.19 27.66 35 27.48 56 20.91 2.85-.74 4.25-.16 3.73 3-1.34 8-2.22 16.23-4.18 24.13-13.84 45-7.58 125.85 57.9 116.1 22.18-4.57 45-51.7 19-62.26-.19 1.58-1.15 3.75-.45 4.64 5.49 7 3 14.34 2 22-3 22.37-24.57 32.94-44.36 22.18-38.61-22.1-28.41-71.9-20.38-107.59 2.31-11.87-2-27.88 15.18-33.37 2.4-.76 5.23-1.14 7.05-2.67 36.56-25.76 53.1-63.66 50.88-108.17-.36-55.09-15.45-107.66-34.31-158.73-8.06-27-17.79-53.81-27.77-80-3.6-17.95-13.73-33.32-18.11-50.9-2.78-11.17-7.34-21.9-11.72-34.61 16.5 10.45 27 23.42 36 37.46 6.12 9.6 17.37 17.78 14.91 30.68-3.33 23.19 6.46 56.11 26.27 69.85 34.23 14.31 34.48-14.85 24.84-36.69-6.55-15.83-20.94-26.14-34-37.12-4.12-3.47-10.27-4.2-12.75-10.18-4.17-13.3-12.64-24.09-19.64-36 12.34 3.63 26.06-5.48 36 6.94 106.35 54.4 89.54-54.77 5.74-26.53zm8.76-260.4c4.81 14.71 9.58 30 4.77 45.38l-33.13-82.92c15.41 9.04 23.48 22.62 28.36 37.54zm-36.06-26.27c9.64 23.51 22.66 46.72 30.7 70.89-25.08-9.8-37.58-46.2-30.7-70.89zm78.17-58.58c.65.67.6 2 .88 3.06-23-10.25-45.36-21.07-69.1-32 30.76-6.71 49.93 10.16 68.22 28.94zm-1.79 11.15c-14.1 5.18-47-3.13-70.48-30.39zm-83.17-119.47c27.63 8 54.74 15.73 81.88 27.1-31.72 7.07-67.65-4.93-81.88-27.1zm81.87 15.35a7.4 7.4 0 011 2.47c-29.26-9.32-58.15-22.64-89.44-30.4 32.25-12.69 67.11 5.75 88.44 27.93zm-139-117.47l79.75 20.44c-11.74 8.32-53.53 2.24-79.71-20.44zm87.24 16.62c-29.52-13-59.4-19.19-88.39-27.32 14.37-8.67 53.02-8.52 88.43 27.32zm-9.38-98.14c2.06-3.58 5.29-.48 6.88.47 20.12 13.76 45.3 31.42 44.76 58.63C858 227 844.67 208 825.42 192.88c-1.77-1.61-5.77-2.16-3.74-5.69zM853 235.52c6.27 7.84 14 14.53 19.77 22.71C845.71 252.3 823 223.5 814.29 197c16.18 11.94 27.47 25.19 38.71 38.52zm32.24-118.6c-18.58 6.06-51.57-1.34-69.11-12.67 26.66 2.79 48.67 3.37 72.8 9.9-1.2.94-2.29 2.22-3.67 2.77zm-65.42-26.46c24.55-8.3 46 .6 67.25 12.7-25.28-5.54-46.68-5-71.13-9.47 1.29-1.1 2.4-2.69 3.88-3.23zM572 229.63c-3.5-28 2.79-50 16.61-70a639.16 639.16 0 00-16.61 70zm10.07-1.36c7.19-25.33 13.64-48 21.2-74.63 6.97 30.91-1.11 53.12-21.19 74.63zm51.56 148.42c-3.91-27.52 20.18-59.27 42.75-59.42-12.94 18.06-28.65 34.25-38.88 54-1.04 2.04-.85 4.82-3.86 5.42zm49-44.31c-6.84 20.07-17.88 36.82-39 46.56 11.39-19.71 25.75-36.08 38.6-53.63.17 2.37 1.13 5 .42 7.07zm29 77c-14.32 19.94-34.12 35.16-43.93 61.4 5.56-45.33 14.7-51.5 43.98-61.37zM672 472.78c16.83-19.64 31.32-39.54 48.22-57.5 5.25 21.43-26.09 56.61-48.22 57.5zm53.92 148.8c1.69-35.11 8.17-69.52 17.68-103.4 14 21.01 1.69 92.48-17.68 103.4zm5.87-105.78c-9.9 37-17.12 72.56-20 108.85-13.5-38.96-8.01-74.82 20-108.85zM712.31 667c2.1 45.43 14 89.2 23 137.3-45.03-41.99-36.48-89.25-23-137.3zm55.28 586c-2.7 11.56-19.72 7.74-30.14 8.92-31.3 1.49-13.06-44.91 9.55-42.87 10.94.03 24.49 17.26 20.59 33.95zm85.76-319.76a4.33 4.33 0 01-.32-.69 2.48 2.48 0 01.32.7zm-30.79-35.59c11 10.89 22 21.78 30.44 34.87 1.26 7.34 3.84 12.91 2.65 17.5-3.12 12.13-12.45 9.29-18.27 3.69-14.92-14.36-21-33.14-22-53.58-.38-8.27 5.62-4.05 7.18-2.47zm71.09-47.23c-6 16.09-55-5.47-65.74-9.68-3.1-2.61 6.4-6.52 8.32-7.4 15.77-6.25 55.77-4.79 57.42 17.09zM631.46 972.49c-19.08 6.8-36.25 14.87-47.57 32.44-1.85 2.87-3.9 7-6.61 7.7-14.64 4-28.22 10.58-41.7 17.29-6 3-8.78 3.88-8.78-5.12 0-18.39 1.67-36.81-1-55.22-1.55-10.82.87-20.76 13.24-23.87 8.49-2.14 14.83-7.94 22.55-11.23 3-1.29 5.61-4.29 9.42-3.07 27.24 8.74 52 2.29 75.26-12.54 14.65-7 12.24-29.29-3.35-33.87-20.85-6.79-39 2.13-52.94 14.83-18.51 16.82-39.67 28-61.29 39.31-4.61 2.4-3.67.11-3.67-2.6 0-23.22.64-46.46-.31-69.65-1.11-13.12 10-12.53 18.27-17.08 8.62-4.38 16.78-11.08 25.87-12.73 10.86-2 22.23 1.43 33.85.79 19.25-1.08 36.74-5.86 52.76-15.32 34.7-24.37-32.6-58.91-76.27-12.5-5 4.84-6.85 13.83-12.38 17-13.57 7.76-28.44 13.23-43.93 20.13.84-8.33 2.79-14.94 1.89-21.14-2-20.64-2.85-42.62-.71-62.76 60-36.78 41.25-14.1 93-26 17.23-7.11 50.11-17.33 43.54-41.62-14.47-26.26-60.9-1-77.55 12.32-9.53 7-13 20.23-22.54 25.84-12.6 7.42-27 11.87-39.86 21.35 2.28-26.16-2.44-51.34-1.68-76.71.08-2.84 1.55-4 3.4-5.42 20.6-15.84 34.82-34.62 35.14-62.58.24-21.91-.71-43.41-11.94-62.3-4.87-8.2-10.09-14.92-8.63-25 4.08-13.35-2.59-28.56.87-42.09-.55-9.71-2.64-21.53 12.5-12.06 6.84 4.22 18.6 7.4 19.64 12.72 2.47 12.65 7.27 23.6 12.57 35.09 10.7 23.21 40.58 42.79 68.33 38.3 9.62-1.56 15.18-8.47 13.37-16.94-7.49-34.58-33.66-66.39-70.57-69.43-9.63-1.24-19.93 4.2-29.06-3.72-10.31-10.18-28.53-.42-26.7-21.24.05-70.39-14.32-137.72-31.73-206 6.18 3.68 10.67 6.3 15.11 9 7.21 4.4 19.38 7.79 20.6 13.49 6.76 28.56 25.48 63.75 57 68.69 44.63-1.11 1.9-61.85-18.58-72.62-13.16-9.72-29.09-3-42-11.28-35.52-28.47-32.48 3.67-45.53-48.82-11-33.32-34.48-67.44-46.55-97 7.47 2.8 16.87.64 22.66 7.33 22.46 26 49.81 38.06 84.16 30.24 4.81-1.09 11.81-.51 13.6-6.67 3.85-19.62-21.39-33.52-36.57-40.5-49.36-20-51.25 7-72.34 1.61-10.4-4-22.73-1.63-30.44-13.5-8.9-10.52-49.51-81.87-58.36-76.08-3.74 1.41 0 4.35.65 5.93 12.42 27 24.36 15.1-3.47 43-12.74 10.55-25.25 21.17-35.84 34-3.93 4.77-11 12.47-14.2 11.42-20.78-6.7-41-12.49-59.95-26.79C218.42 32.41 123.53 63.56 151.66 88a121.47 121.47 0 0098.6 17c8.31-1.95 13.87-11.67 23.57-9.72 12.22 3.04 25.17 5.02 36.54 10.72-17.1 18-33.5 36.55-48 56.75-1.89 2.65-5.83 7.16-6.69 6.72-9.42-5.11-19.59-.86-29.22.43-14.45-.56-30.85 3.52-44.13-.19-11-3.69-21.34-9.72-33.15-12.81-21.34-5.6-40.29-3.65-58.4 9.65-12.72 9.34-13.66 19.6-.9 28.54 24.77 14.56 62.63 18.85 84.09-3.76 2.83-3 5.59-8.4 8.61-8.57 22.86-.81 45.43-4.08 68-7.09-11 18.87-24.36 36.35-36.29 54.67-5.15 7.58-8.77 18.22-16 22-12.17 6.19-24.49 5.82-38.22 1.28-47.53-20.73-104 50.34-66.21 51 89.53 8.7 63-38.68 98.8-40.2-5.27 13-14.08 24.63-19.77 37.57-7.23 15.14-11.84 31.78-20.71 45.8-6.27 9.9-18.81 15-27.49 23.92-18.4 18.9-25.2 61.21-11.28 84.62 3 5 11.3 8 14.91 2.85 8.61-12.25 22.12-19.95 28.62-34.22 7.47-16.41 12.89-32.57 8.24-50.68-1.47-5.74-5.52-12.31-4-17.08 10.83-31.64 25.34-63.07 43.66-90.84 6.5 33.76 0 68.68-.57 102.84-2.93 79.78-8.42 159.53-5.56 239.35-8.7-4.18-18.17-8.3-21.53-16.85-7.57-19.9-31.76-63.14-57.07-55.91-29 17.15 3.93 57.63 25.32 65.65 12.44 4.22 27.67-4 38 9.53 4 5.28 14.2 5.83 15.12 13.46 3.69 35.94 2.61 72.26 1.52 108.3-16.88-19.7-26.76-10.54-35.46-38.28-6.78-24.32-45.17-78.88-67.83-41-3.94 22.84 13 43 28.3 53.78 16.32 11.48 38.22 9.88 53.59 22.26 9.71 7.82 23.91 12.43 22.63 30.61-3.52 24.05 2.25 48.68-1.09 72.6-1.43-1-3.39-1.6-4.2-2.94-3.16-5.24-8.84-7.11-13.35-10.51-3.08-2.31-8.62-3.62-9.37-6.39-3.61-21.86-43.14-84.28-68-66-21.3 38 32.18 68.77 62.49 78.06 11.67 3.84 19.11 12.44 29.22 17.58 1.6.82 3.51 3.13 3.47 4.71-.32 13.79-1.36 27.57-1.58 41.36-.3 19.38-.07 38.77-.07 60-5-3.62-7.77-5.1-9.89-7.21-10.73-10.64-26.51-15-35.35-27.77-11.51-15.05-37.25-52.19-58.7-43.26-33 26.56 27.84 69.82 54.9 64.44 3.79-.58 8.33-3.92 13.44 1.17 6.31 6.29 14.79 10.52 22.62 15.13 18.49 8.46 9.06 18.81 3.18 33.46-9.34 22.8-28.7 86.54 4.25 96.31 45.9 5.6 38.47-79.88 20.77-103.41-6.66-9.42-3.35-19-6.24-28.35 0-8.29 10.14-5.74 14.65-9.12 8.39-2.94 21.65-12.86 28-10.47 25.22 12.12 49.93 7.17 74.75 1.44 15-3.57 24.06-25.37 9.2-34.95-46.12-26.46-80.36 28-123.15 36.89-2.82-9.25-1.86-18.26-.35-27.57 1.66-11.49-3.72-57.22 4-61.61 12.8-6.87 26.42-12.2 38.84-19.95 2-1.22 5.32-2.49 6.9-1.64a45.17 45.17 0 0024.36 4.64c17.49-1 66.22-6.42 64-30.84-6.74-32.36-58.25-17.74-73.51-1.1-16.49 16.41-36.85 23.75-56.49 33.5-4.25 2.11-6.17 1.81-6.14-4.07.11-19.09-2.36-38.42 0-57.19 1.21-9.71-8.66-24.6 8.21-29.81 15-4.63 26.63-17.45 45.67-12.83 20 5.42 82.31 2.64 80-27.55-8.73-34.27-69.78-15-84.54 6.32-3.35 4.33-5.68 10.19-11.16 11.09-11.21 1.83-20.88 7.54-31.47 10.77-2.1.64-5.67 4.06-6.07 1.45a110.32 110.32 0 01-1.22-25.79 267 267 0 00-1.15-55.56c-2.73-19.44 2.39-34.8 19.79-37 16.41-3.37 28.35-18.18 49.26-12 27.59 8.18 57 9.6 84.31-5.21a22.21 22.21 0 0011.79-20.61c-1.18-21.85-32.57-24.49-49.92-21.61-13.8 1.94-26 6.79-37.69 13.78-9.13 5.48-13.23 17.42-22.12 21.51-17.27 7.94-36 12.73-54.14 18.73-.28.09-1.26-1-1.4-1.6-3.54-15.37-.45-31-1.71-46.33-.84-10.09 5.22-19.82.07-30-2.5-6.86 9-8.53 13.62-10.88 14-5.29 26-16.08 42.22-14.86 20.68 5.86 91.27-6.57 88.44-35-9.45-30.33-59.38-12.18-76.73 2.17-8.46 6.2-12.6 17.37-21.12 22.1-13.88 7.71-29.59 12.14-42.22 17.06V325.23c4.44 5.29 4.85 10.91 6 16.25 3.55 16.73 12.87 30.84 24.27 43.6 6.68 7.48 16.06 8.71 24.66 11.85s17.2.1 25-2.67c4.58-1 1.2-18.11-.36-22.08-6.13-20.12-20.75-32.37-38.81-41.19-15.67-7.34-39.55-4.39-39.16-29.14 3.4-14.06-2.31-20.42-4.25-32.23-1.8-29.94 60.8-97.21 80.48-128-1.27 11.79 3.45 22.46-1.91 29.64-12 16.15-15.1 34.66-18.41 53.36-3.63 20.47 8.05 35.92 18.25 51.48 2.19 3.34 7.14 9.58 12.51 4.47 17.16-20 26.33-48.67 19-74.58-3.81-12.86-4.15-28.45-19.62-35.15-.57-.24-1.29-1.4-1.14-1.89 1.88-6 .39-12.12.66-18.13.34-5.79-4.82-12.12-.45-17.44 11.49-13.58 23.54-26.7 35.71-39.69 16.28-17.4 32.86-34.52 49.56-51.53.19-.2 2.25-5.79 5.84-.37 15.32 22.83 31.54 45.29 47 68.05 2 3.15 7.39 7 4.78 11.39a94.67 94.67 0 01-14.29 18.29c-4.5 4.51-6.17 11.38-13.69 13.59-19 5.57-35.81 14.48-47 32.17-7.88 12.46-9.61 26.9-14.79 40.2-4.61 11.85 2 18.8 13.76 17.63 14.62-1.45 25.49-9.81 36.89-18 13-9.4 26.24-37.57 23.16-52.81-.75-3.69-2.89-8.74-1.31-11 7.45-10.5 16-20.24 24.2-30.36 19.24 37.23 36.44 74.75 46.63 115.58 1.8 5.83 5 16.41 3.47 17.25-11.84 6.3-25 15.73-38.71 15.84-37.41-2.16-73.52 11.28-86.06 48.75-10 25.14 41.4 12.16 52.39 5.32 16.52-8.33 29.92-18.95 38.08-35.46 1.88-3.82 1.27-9 6.1-11.08 9.12-4 18.28-8 27.44-11.92 1.84-.79 2.74-1.6 3.75 1.7 7.53 24.61 9.73 50.3 15.71 75.2 1.76 7.35-.12 12.94-8 14.61-4.8 1-8.53 3.94-12.85 5.54-7.42 2.75-12.78 12.24-21 10-38.18-9.24-91.6 34.5-77.2 74.42 2.52 4.7 10 3.5 16.15 2.64C443.33 455.47 458.37 436 473 416c5.48-7.53 5.28-18.66 13.31-24.41 9-6.47 19-11.53 28.57-17.27 5.38-3.24 7.31-2.44 7.66 3.67 1.53 26.52 2 53.15 4.81 79.53 1.69 15.63-3.5 24.32-17.63 29.63-6 2.27-13.19 10.55-16.64 9-30.84-9.86-71.93 24.18-77.3 54.37-7.34 26.46 27.95 19.5 41.66 10.64 16.83-8.05 26.75-22.82 35.18-38 4.9-8.84 5.48-19 16.32-25.11 15.16-8.51 17.49-9.85 17.4-1.77 7.47 62.3-28.11 50.53-35.75 107.67-3 19.68 1.53 36.86 9.38 54.43 2.49 5.57 8.56 9.16 8.79 14.86.63 38.37 3 78.07 2.56 115.36-13.19-7.09-24.79-17.25-37.22-25.68-6.39-4.67-15-8.4-18.32-14.78-11.67-22.39-39.52-62.6-68.44-51.65-30.08 21.42 14.84 56.25 38.88 59 29.92-.35 40.23 16.55 64 30 15.34 8.48 25.31 19.36 23.35 39.66-1.71 17.61-2.42 35.81 1.27 53.61.35 1.72-1.41 3.86-2.19 5.81-6.66-2.63-12.14-7.37-17.84-11.61-11.73-9.26-25.9-15.31-36-26.72-13.44-18.43-58.16-61-72.83-24.63-2.89 11.6 6 18.65 12.19 25.11A64.16 64.16 0 00444.66 867c7.24.09 15.85-3.17 21.46-.29 15.78 8.11 30.3 18.65 45.39 28.12 6.07 8.45 1.43 20 1.68 29.38-.36 27.12 2.19 54.39 1.24 81.43-9.68-6.06-17.95-14.32-27.11-21.18-7.12-5.67-16.22-9.94-21.09-17.12-15.65-21.28-39.27-60.23-70.07-45.88-7.31 4.59-8.29 14.68-4.83 22.51 10 22.6 30.17 31.6 52.59 37.16 29.76 1.92 37.13 11.43 60 27.8 7 4.57 12.46 9.64 12.17 18.58-1.79 31.29-.62 63.19-4.18 94.18-12.32-9.18-24.09-19.15-37.44-27-5.42-3.46-12.46-7.14-14.63-12.41-8.38-24.16-44.58-58.76-71-55.46a17.16 17.16 0 00-13.46 15.56c-4.89 34.05 43.61 55 72.45 55.16 4.14 0 8.38-3 13.07.07 11.37 7.55 23.25 14.33 34.85 21.54 10 6.18 17.43 11.85 16 27-1.72 18.56-4.7 37.47-2.13 56.43.5 3.71-1.8 7.8-2.89 11.69-7.93-2.94-15.07-9.24-22.63-13.35-35.88-17.1-56.91-52.8-96.4-63.05-19-6.78-37.18 8.77-24.15 27.71 14.22 23.89 58.47 39.42 84.88 31.11 5.46-1.89 9-.94 13.54 2.17 9.63 6.57 20.39 11.57 29.71 18.51 6 4.45 21.21 4.7 10 19.86-15.62 19.49-35.11 96.08-4.27 107 7.7 2.23 15.66-2.46 21.39-8.66 18.41-19.91 9.7-43.48 9.55-66.23-.09-14.65-13.81-25.54-9.25-40.73 1.67-5.59-6.68-15 7.18-16.15 7-.6 13.82-7.09 20.62-6.91 28.89 3.05 60.43 17.19 87.77-.37 8.39-5.73 15.28-13.6 12.08-24.66-10.23-29.23-51.75-18.07-71.53-5.72-15.88 9.78-29.27 23.81-48.68 27.13-2.18.38-6.85 4.93-6.56-2.08q1.32-32.62 3.22-65.22c.19-3.29-.93-8.71 3.63-9.2 9.21-.93 16.92-6.17 24.81-10.44 9.54-5.11 18.1.64 27.18 1.49 20.41 1.9 41.36 4.13 60.66-7.25 19.52-8.16 15.84-34-3.34-37.72-17.34-2.73-34.07 1.65-49.61 10.81-9.55 5.62-16.15 15.43-25.36 19.81s-19.26 7.19-28.46 12.16c-4 2.07-7.27 1.9-7.9-4.7-1.75-19.17 4.91-38.15.74-57.4-.53-2.45-.51-8.88 5.61-9.88 11.07-1.82 19.29-9.91 29.53-13.7 5.45-2 11.15-6.6 16.27-8.25 14.25-.48 28.32 4.38 42.79 3.22 73.02 2.42 66.09-69.06 11.71-51.09zM577 920.64c48.44-46.93 90-21.6 54.92-5.34-17.12 6.9-35.54 11.94-54.2 7.6-1.72-.27-1.94-1.22-.72-2.26zm.89-95.54c34.42-47.77 103.7-22.55 63.37-6.31-6.18 4.88-64.7 16.14-63.33 6.31zM640.21 695c17.36-.74 10.82 17.57-.22 21-20.8 11.23-42.54 18.4-66.9 14.33C592 709.79 612.69 696 640.21 695zm16.59-154.45c-23-25.91-39.71-43.17-67.3-60.86 23.06-3.88 43.5 14.04 67.3 60.86zM581.39 487c25.68 16.4 47.72 36.32 68.13 59.35-29.2 4-70.2-31.81-68.13-59.35zm25-185.43l-47.81-44c23.12 8.35 36.92 22.09 47.81 43.97zm-50.54-30.65c17.95 15 36.78 29.26 50.93 48.05-19.22 7.24-51.72-28.97-50.93-48.08zm-70.19-162.36l65.71 19.95c-25.73 5.49-46.37-4.73-65.71-19.95zM555 119.07l-74.4-23.58c30.72-4.49 63 5.51 74.4 23.58zM254.87 79.54c-31.26-3.77-60.18-9.34-90.21-4.49 22.26-18.29 70.05-10.14 90.21 4.49zm-92.39 3c31.11.35 63.12 2.9 94.74 9.2-18.77 13-57.22 9.07-94.74-9.22zm-43.1 113.06c-5.87-1.88-13.76-1.43-18.15-5.91.84-.51 1.65-1.38 2.53-1.45 22.54-1.34 44.69-4.75 67.26-4.74-15.93 13.42-33.18 15.5-51.64 12.1zM105.06 177c-8.36-1-4.68 3-9.64 2.2 3.67-11.35 35.35-17 46.14-13.61 8.13 2.77 16.74 4.12 29.83 7.21-25.26 1.54-45.79 2.83-66.33 4.2zm57.38 85.36c-24.27 5.69-45.34 15.76-67.51 24.82 11.76-17.12 38.79-34.68 67.51-24.87zm-62.92 31.82c22.78-4.61 42.47-17.37 65.91-21.5-18.43 25.15-43.37 24.32-65.91 21.5zm23.4 147.59c-.33 1.3-.82 2.55-1.24 3.82-13.67-23.21-.23-59.5 21.57-76.87-8.34 24.59-13.98 48.2-20.33 73.05zm35.43-56.86c-4.43 19.55-7.31 40.15-26.11 54.73 8.56-19.15 10.28-38.88 18.79-56.7 0-3.76.39-9.8 3.63-9.23 4.5.78 4.27 8.65 3.69 11.2zm7.92 211.68c-17.18.89-32.61-10.45-41.49-24.2-4.76-6.8-10.65-32.41 6.6-26.23 8.76 4.32 16.55 15.19 25.07 25.67 5.63 6.92 7.06 15 10.15 22.72a2.84 2.84 0 01-.33 2.04zm-44.43 96c-9.42-9.27-17.63-20.27-14.57-34.69 2.42-11.46 11.77-8.14 17.19-4.14 19.65 14.32 30.65 35.61 35.69 59.32-14.59-4.9-27.99-10.35-38.31-20.5zm35.09 119.76c-21.41-11-50.34-27.84-47.64-55.5.26-2.78 2.52-4.66 6.11-3.85 23.56 9.12 40.53 36 47.75 59.48-2.09-.02-4.47.64-6.22-.14zM147.57 927c-15.31 1.62-64.26-26.25-48-47.85 2.71-3.2 5-1.48 7.45.07 18 11.53 30.88 28 43.26 44.84 2.34 3.2-.94 2.69-2.71 2.94zm65.43 82.8c3.83 15.9 6.58 58.06-16.7 58.77-10.76-3.27-8.87-14.37-9.25-24.48 2.38-19.13 3.86-44.85 16.54-62.79 5.88 2.7 7.15 21.87 9.41 28.5zm46-90.9c13.56-14.27 62.45-33.35 72.24-8-2.05 9.6-10.35 12.88-17.43 13.55-18 1.69-36.22 6.67-54.19-1.25-4.04-1.83-3.22-2.29-.54-4.3zm20.3-116.31c13.86-9.46 49.17-27.25 59.16-5.63 2 6.44-5.65 7.58-9.66 9.71-6.09 6.03-87.8 20.95-49.42-4.08zm44.44-113.4c6 .76 11.9 4.21 11.68 10.55-2.61 18.21-55.8 16.14-71 14.79 16.38-18.09 35.1-28.44 59.4-25.34zm-40.86-108.74c9.22-20.41 55.42-27.53 73.91-19.19 12.37 4.27 9.28 18.06-2.19 22a73.23 73.23 0 01-37.05 7.74c-8.06-.35-42.85.71-34.67-10.55zm-13.33-94.27c16.49-17.55 39.51-30.76 63.9-26.38 3.69 1.67 9.81 3.23 9 7.65-7.67 17.34-56.55 23.47-74.19 22.88.44-1.4.41-3.2 1.29-4.15zm15.14-107l-47.38-43.76c19.17 1.09 48.2 28.35 47.38 43.78zm-28.91-12.75c8.12 8.91 17.45 16.38 27.72 24-22 2.6-54.57-27.63-53.92-50.32 6.93 11.46 18.04 17.38 26.2 26.34zm35.71-102.36c-18.41-24.7-10.1-50.74 0-76.81zm10.87-80.39c11.16 23.83 15.67 49.16 0 77.73zM359.75 233c11.22-26.35 17.43-58.2 46.73-65.48-11.54 22.02-30.73 41.77-46.73 65.48zm56.92-46.72c-7.58 20.09-20.87 38.85-42.37 45.29 15.38-18.83 25.85-39.15 43-54.52-.17 3.09.37 6.43-.63 9.23zm21.78 104.38c-1.31 6.72-8.27 5.29-12.25 8.25-12.38 9.22-25.37 17.62-40.43 27.91 12.97-22.34 29.32-34.51 52.68-36.16zm-47.25 43.71A275.65 275.65 0 01457.71 295c-17.22 23.51-38.71 37.37-66.51 39.37zm30.33 114.35c-1.24.4-2.91-.55-4.38-.87.54-1.27.74-3 1.69-3.75 15.7-12.82 31.49-25.52 49.81-40.29-13.27 20.76-25.35 38.04-47.12 44.91zm13.14-31.29c-11.81 9.1-20.86 21.78-31.18 32.95 3.06-38.11 40.51-60.55 67.66-60.51-14.81 6.92-24.7 18.49-36.48 27.56zm-7 124.4c11.9-20.61 29.67-33.36 55.74-39.42-23.44 17-42.33 31.73-60 51.56 1.37-4.07 2.13-8.49 4.24-12.14zm1.33 17.69c18.32-15.93 36-31.14 55.91-44.78-12.03 23.38-26.52 42.49-55.91 44.78zM440.91 749c-19.58-4.84-54-12.19-51.46-38.41a7.46 7.46 0 019.38-5.64c21.83 5.75 37.54 25.3 45.91 45.27-1.28-.46-2.53-.96-3.83-1.22zm10.3 109.77c-22-2.32-40.81-9.67-52.84-29.61-1.67-2.76-2.3-6.36-.56-7.57 15.45-13 49.78 22.93 56.87 36.5zM456.45 974c-2.78 3.76-7.3-.57-10.64-1.48-16.67-3.93-56.86-23.28-41.13-44.56 11.48 2.59 19.41 3.84 25 10.88 7.19 9.1 14.81 17.86 22.11 26.87 2.05 2.54 6.6 5.65 4.66 8.29zm-13.75 115.45c-18.7-2.45-68.7-23.89-52.89-50.23 4.57-5 8.48.15 13 1.56 19.36 6.77 43.08 28.49 49.33 47.52zm-1.4 101.47c-25-1.3-62-9-70.39-36-1.24-8.35 6.27-8.66 11.39-7.46 26.23 6.35 47.11 22.8 64.27 42.89-1.75.23-3.51.47-5.27.57zm77.43 84.61c-1.39 15 5.51 30.78-3.61 45.16-3.62 5.69-7.08 13.65-14.77 11.76-19-6.5-.63-75.5 9.68-88.28 6.48 9.44 9.73 20.16 8.7 31.36zm-6.54-619c-19.07-34.38-10.83-71.13 11.21-99.08zm17-51.19c3.21-17.5 3.13-35.71 7-53 12 19 10.63 43.95 9.59 66.22-1.82 20.15-15.05 31.76-27.44 46.81 3.91-21.17 7.86-40.51 10.88-60zM604.62 1174c46.18-10.44 47.93 45.9-45.08 23.47 13.34-13.26 28.62-20.12 45.08-23.47zm-27.88-72c10.45-11.45 58.1-33.86 63.49-10.66-1.54 16.85-52.24 17.54-64.89 13a10.36 10.36 0 011.4-2.41zm72.4-95.32a111.8 111.8 0 01-58.09 3.9c13.66-20.23 33.32-28.29 56.4-29.57 6.63-.37 12 1.1 13.65 9.33 2.06 10.27-5.48 14.08-11.96 16.27z"/></g><g id="Red_Japanese_Frames" data-name="Red Japanese Frames"><path class="cls-6" d="M0 20v1560a20 20 0 0020 20h936a20 20 0 0020-20V20a20 20 0 00-20-20H20A20 20 0 000 20zm924 1528H52V52h872z"/><path d="M952.1 15.41l-23.41 23.42a4 4 0 01-2.83 1.17H50.14a4 4 0 01-2.83-1.17L23.9 15.41A2 2 0 0125.31 12h925.38a2 2 0 011.41 3.41zM40 1549.86V50.14a4 4 0 00-1.17-2.83L15.41 23.9A2 2 0 0012 25.31v1549.38a2 2 0 003.41 1.41l23.42-23.41a4 4 0 001.17-2.83zM936 50.14v1499.72a4 4 0 001.17 2.83l23.42 23.41a2 2 0 003.41-1.41V25.31a2 2 0 00-3.41-1.41l-23.42 23.41a4 4 0 00-1.17 2.83zM925.86 1560H50.14a4 4 0 00-2.83 1.17l-20 20a4 4 0 002.83 6.83h920.55a2 2 0 001.41-3.41l-23.41-23.42a4 4 0 00-2.83-1.17z" fill="#992d17"/></g></svg>