<svg xmlns="http://www.w3.org/2000/svg" width="976" height="1600"><defs><clipPath id="clip-path"><path d="M960 22v1556a6 6 0 01-6 6H22a6 6 0 01-6-6V22a6 6 0 016-6h932a6 6 0 016 6z" fill="none"/></clipPath><style>.cls-6{fill:#592116}</style></defs><path d="M960 22v1556a6 6 0 01-6 6H22a6 6 0 01-6-6V22a6 6 0 016-6h932a6 6 0 016 6z" fill="#f4f3ef" id="Paper_Backing" data-name="Paper Backing"/><g clip-path="url(#clip-path)" id="Wikipedia_Cropped" data-name="Wikipedia Cropped"><path d="M83.08 1604c-8-4-82.21 6.61-87.08-4 9.18-4.24-17.87-619.55 9.7-607.66 18.06 9 35-20 55.77-18.55 11.36.81 10.27-3.68 16.2-9.6 54.68-23.27 107.2-42.51 163.09-56.08 136.45-27.22 281.3-24.67 417.38 16.75 20.1 6.33 48.58 19.93 65.63 34.76 5.14 4.63 8.37-3.08 12.4-4.24 38.46 10.34 74.72 34 109.05 54.32 47.2 30 98.11 56.88 134.78 99-2.17 97.15 1.56 398.73 0 491.25.86 11.74-892.91.05-896.92 4.05z" fill="#50b271"/><path d="M976-4C972.06.23-5-12-4 0 8.8-4.22-30 1046.18 12 994.06 160.61 906 337 870.79 508.23 890.85 680 904.7 846.74 986.54 976 1098.48 982.94 1096 984.65-1.93 976-4zM666.34 721.53c-61 72.21-139.87 108.31-225.12 116.43-94.22 3.51-172-20.72-239.07-76.13-55.46-45.84-94-103.41-110.88-173.74-28.76-119.84-.5-226.27 83.51-315.52 55.44-58.91 126-92.62 207.12-99.76C488 163.46 579.82 197.84 654 273.47c54.3 55.4 85.9 123.69 92 201.72 7.25 92.67-19.42 175.01-79.66 246.34z" fill="#d81e1e"/><path class="cls-6" d="M205.62 771.09c70.53 55.86 152 79.4 241.23 70.73C547.77 832 629.08 784.07 688.94 703c48.87-66.14 68.55-142.12 62.94-224.5-10.74-157.86-147.48-321-356.68-311.6-163.31 7.39-323.49 145.45-318.8 345.65 2.48 105.68 46.17 192.77 129.22 258.54zm-22.4-490.32c53.48-56.83 121.59-89.34 199.78-96.24 102.32-9 190.93 24.15 262.45 97.11 52.39 53.44 82.87 119.32 88.77 194.6 7 89.4-18.71 168.83-76.83 237.64-58.83 69.66-134.93 104.48-217.17 112.31-90.89 3.39-166-20-230.63-73.44-53.5-44.22-90.68-99.75-107-167.6-27.68-115.61-.41-218.28 80.63-304.38zm793 1182.9c-1.26 1.39-2.4 1.49-4.24.31-19.6-12.16-38.92-24.85-59.05-36.06-35.69-19.87-73.27-35.79-111.22-50.82-23.28-9-44.34-22.26-69.42-26.41 74.52 49.91 141.93 111.56 186.24 190.18 2.24 4.13 9.21 10.71 4.6 12.14-5.45 1.68-8.35-8.26-11.86-13.34-50-73.17-112.89-136.57-187.13-185.13-21.66-15-46.59-17.38-70.7-23.39-8-2-15.18-7.4-26.32-5.5 94.64 58.08 172.84 130.54 232.37 225.07-12.64-4.86-15.72-15.14-21.49-22.53a957.9 957.9 0 00-182.27-176.75c-54.84-42.65-80.09-37.93-145.93-46.87 111.4 56.94 211.73 136.89 284 239.32 6.81 7.66-.79 12-5.8 3.51-65.66-87.19-150.91-159.11-244.37-215-53.3-34.71-74.56-29.51-135.15-29.36 131.57 45.55 250.11 130.22 330.43 244.45 1 1.36 3.82 2.76 1.5 4.88-2.14 2-3.48-.26-4.8-1.71-65.35-76.09-138.5-146.41-228.41-192.75-94.53-50.42-122.36-62.33-228.09-35-97.11 23.88-190.58 63.5-269.75 125.23-2.36 1.76-4.88 6.41-8.1 2.81-2.51-2.89 1-5.82 3.12-8.06 28.75-29 66.41-46.22 100.75-67.47 68.69-35.56 143.6-58.81 219.44-73 21.53-5.61 43.84-4.33 65.37-9.25a40.23 40.23 0 0114.6-.1c20.51 3.1 33.29-8.94 47.43-21.15 17.09-14.76 36.06-27.54 56.92-37 34.23-15.85 68.07-32.63 105.3-40.38 116.78-28 242.83-29.4 358.5 4.38 1.93.55 3.31 1.89 3.31 3.42 0 2.33-2.42 2.46-4.83 1.63-55.3-14-109.55-18.74-167-18.89 47.94 24.55 88.55 55.05 122.32 96.09 3.79 5.64 22.78 27.38 19.8 32.17-18.92-12-29.26-34.52-46.85-48.77a576.22 576.22 0 00-85.81-64.57c-22.65-13.81-46.4-18.06-72.61-13.33-12.64 2.28-26-.51-39.55 3.42 91.08 25.48 166.44 85.27 224 158.71 2.61 2.68 1.79 5.31-.63 6.63-2.66 1.45-2.92-1.59-4.21-3.33-3.47-4.73-7.79-8.84-11.79-13.18-56.42-67.92-134.05-120.2-219.37-143.92-72.14-5.93-193.49 47.54-247.62 95.53 8.5 4.08 17.62 2.45 25.62 1.74 15.18-1.34 30.07.93 45.06 1.15 31.27 2.58 62.79 8.06 93.49 15.07 104.69 20.3 208.86 50.27 300.32 106.72 23.1 14.27 45.53 29.91 68.37 44.49 1.01.99 3.39 1.97 1.5 3.97zm-550 7.74c-.39 2.75-3 1.92-4.47 1.56-41.86-10.34-85-11.3-127.93-8.53-21.59 2.41-42.68 6.7-63.94 10.5-15.66 2.8-27 13-41.39 22.21 67.81-11.59 133.22-8.05 198.72 7.91 3.4 1.72 9.39 2 8.08 7.44s-5.12 1.39-8.11.73c-71.09-13.11-145.28-18.15-216.22-1.78-7.31 2-14.32 7.49-19.92 13-17.13 16.78-33.76 34.09-50 51.7-7 5-18.8 31.78-26.22 28.32-4.72-2.18-.63-6.46.75-8.82 46.58-73.06 120.62-123.74 198.38-159.23 44.74-20.39 91.31-37.69 139.44-48 4.17-.11 9.18-4 12.56-.61-.85 1.08-1.5 2.81-2.58 3.14-24.31 7.37-48 16.48-71.71 25.5-31.58 11.42-61.71 25.9-92.5 39.11 30.71-1.93 61.1-7.17 91.62-2.36 13.56 2.18 72.84 4.5 75.43 18.21zm557.86-366.57c-26-33.44-62.51-56.46-97.57-79.6-51.77-33.12-104-63.93-162-85-90.19-39.66-187.73-54.92-285.51-58.74-15.64-.68-31.42 1.85-47 1-35.57-2.07-70.22 4.11-105.37 8.12C215 902.38 145 924.76 79.13 955.16c-14.6 7.23-73.2 28.66-73.13 43.15 2.93 7.65 12.51-.65 17-2.72 30.25-24.86 68.21-19.75 104.11-15 65.51 10.35 131.44 32.28 183.91 73.71 8.23 6.58 19.19 9.19 25.4 17.38-7.79 3.07-15.31 7.41-23.37 9-38.79 8.88-73.54 28.83-109.87 43.92-37.15 13.79-69.72 35.61-103.52 55.78-33.56 22.63-66.95 45.88-93.33 76.8-2 2.22-5.14 5.09-5.14 8.45-.18 4.27 4.47 5.23 8.39 1.63 78-80.41 182-128.67 285.34-168.19 15.69-5.33 31.22-10.89 47.44-14.9 17.94-4.44 34.5-14.33 54.1-7.21 16.1 5.85 32.64 10.49 48.94 15.78 15.53 5 29.08 14.09 43.5 21.39 13.23 6.69 26.94 12.4 39.16 21 9 5 24.25 20.13 33.22 20.31-.22-1.35-.12-3.71-.72-3.9-6.23-2-8.15-8.64-13.13-12-12-8-24-16-35.58-24.51-33.84-24-67.12-31.4-108.08-45.83 82.74-15.36 157.45 34.51 219.79 82.67 4 3.47 10.76-.25 4.56-3.45-40.49-45.16-86.32-65-140.85-86.88 76-7.32 153.37 11.57 228.74 23 2.85.46 7.87 0 8.59-1.5 1.46-3.16-3.33-2.4-5-4-97.66-31.67-204-38.6-305.68-24.08-2.88.44-6.79 2.5-8.42 1.32-9.87-7.16-19.28-15-28.72-22.69-63.86-49.7-139.87-81.62-218.9-97.54 13.72-4.2 26.84-8.8 40.27-12.16 12.84-3.21 25.06-11.18 39.14-6.78 61.16 20.6 115.8 55.66 170.16 89.65 14.78 9.59 29.07 19.94 43.71 29.77 2.14 1.45 4.54.21 6.13-1.78 2-2.47-.31-3.77-1.8-4.77-19.7-13.24-36.5-30.17-58.62-40.59-50-29.63-97.42-63.46-155.26-77.4 22.69-4.23 40.4-11.55 62.76-8C378 928.2 437.76 977.2 500 1021.53c1.19.85 2.87 2.7 3.94 0 .56-1.42 1.65-3.06-.58-4.74-51.93-40.79-105.78-79.92-166.67-106.12-7.83-4.13-17.61-3.8-24.92-11.18 115.36-9.2 234.13-6.71 345.05 29.15 39.72 10.29 67.32 39.73 101.75 59.76a574.71 574.71 0 0183.94 92.77c11.77 16.86 22.54 34.07 30.67 52.95.54 1.26 2.36 2 3.58 3 3.42-19.41-25.13-58.08-36.46-75-28.42-40.68-63.55-73.52-103.94-102.68 37.81 11.25 72.81 33.32 106.78 53.74 35.92 21.95 72.1 43.79 105 70.2 10.22 8.13 19.19 17.78 29 26.43 3.86 3.07 11.33 1.19 6.93-4.97zM170.17 944.29c81.56 20.93 159.18 59 223.29 113.77-13.62 3.42-28.23 8.43-43.23 10.4-9.37 1.23-15-9-22.22-14.07-72.49-52-159.62-87.27-249.53-86.28 31.23-8.99 57.85-33.78 91.69-23.82z"/></g><g id="Red_Japanese_Frames" data-name="Red Japanese Frames"><path class="cls-6" d="M0 20v1560a20 20 0 0020 20h936a20 20 0 0020-20V20a20 20 0 00-20-20H20A20 20 0 000 20zm924 1528H52V52h872z"/><path d="M952.1 15.41l-23.41 23.42a4 4 0 01-2.83 1.17H50.14a4 4 0 01-2.83-1.17L23.9 15.41A2 2 0 0125.31 12h925.38a2 2 0 011.41 3.41zM40 1549.86V50.14a4 4 0 00-1.17-2.83L15.41 23.9A2 2 0 0012 25.31v1549.38a2 2 0 003.41 1.41l23.42-23.41a4 4 0 001.17-2.83zM936 50.14v1499.72a4 4 0 001.17 2.83l23.42 23.41a2 2 0 003.41-1.41V25.31a2 2 0 00-3.41-1.41l-23.42 23.41a4 4 0 00-1.17 2.83zM925.86 1560H50.14a4 4 0 00-2.83 1.17l-20 20a4 4 0 002.83 6.83h920.55a2 2 0 001.41-3.41l-23.41-23.42a4 4 0 00-2.83-1.17z" fill="#992d17"/></g></svg>