<svg xmlns="http://www.w3.org/2000/svg" width="67pt" height="104pt" viewBox="0 0 67 104" fill-rule="evenodd"><path d="M21.2 2.6C10 8.2 3.2 23.2 1.5 46-.1 68.5 5.9 88.3 17.1 97.1c6.9 5.5 9.5 6.4 17.8 6.4 11.9-.1 18.8-4.8 25-17.1C64.2 78 66 68.1 66 53.8c0-27-7.3-43.8-22.3-51.3C36.6-1 28.3-1 21.2 2.6zM42 4c1.1.6 2 1.7 2 2.5S44.8 8 45.8 8c1.9 0 4.2 1.8 4.2 3.2 0 .4-1.2.8-2.6.8-1.5 0-2.3.4-1.8 1.1.3.6 1.6.8 2.8.5 2.3-.6 6.6 1.7 6.6 3.5 0 .5-1 1.4-2.2 1.9-2.1.8-2.1.9.8.9 2.3.1 3.4.7 4.2 2.6.9 2 .8 2.6-.6 3.4-1.6 1-1.6 1 .1 1.1 1 0 2.2 1.2 2.7 2.6 1.3 3.3 1.4 3.1-1.7 4l-2.8.7 3 .6c2.3.5 3.1 1.2 3.3 3.4.3 2-.1 2.7-1.5 2.8-1.5 0-1.4.2.5.9 2.3 1 3 4.4 1.2 5.5-.8.5-.8 1.1 0 2 .6.8 1 4.1.8 7.7l-.3 6.3-3-.2-3-.2 2.8 1.2c2.8 1.1 2.9 1.3 2.2 6.2-.3 2.7-1.2 6.3-2 8-.7 1.6-1.7 4.1-2.1 5.5-1.2 4.3-6.4 11-8.4 11-1.1 0-1.9.6-1.7 1.2.4 2.2-7.4 5.2-13.3 5.3-4.9 0-14-2.9-12.8-4.1.3-.2 5.8-.7 12.4-1 6.5-.4 12.1-.8 12.3-1 .2-.2-6-.4-13.9-.4-11.9 0-14.6-.3-16.2-1.7-2.5-2.3-2.3-3.3 1-3.4 2.2-.1 2-.3-1.4-1.1-3.8-.9-4.4-1.5-6.8-6.9-3.2-7.1-3.2-7.7-.4-8.9 2.2-.9 2.2-.9-.3-.9-2-.1-2.8-.7-3.3-2.7-.8-2.9-.1-4 2.9-4.7 1.5-.4 1.3-.5-.7-.6-2.4-.1-2.8-.5-2.8-3 0-2 .6-3.1 1.8-3.4 1.2-.3 1.1-.5-.6-.6-2-.1-2.3-.5-1.8-3.4.2-1.7.5-3.4.6-3.7.1-.3.1-2 0-3.8-.1-2.3.3-3.2 1.4-3.2.9 0 1.6-.5 1.6-1 0-.6-.7-1-1.5-1-1.7 0-2.1-3.5-.5-4.5.6-.4.8-1.1.4-1.6-1-1.7.5-5.9 2.1-5.9 1.7 0 2-1.7.4-2.2-1.7-.6.2-6 2.3-6.6 1.3-.3 1.6-.7.8-1.2-2.2-1.4.7-5 4-5 1.6 0 3.2-.5 3.5-1 .4-.6-.5-1-2.1-1-2.6 0-2.7 0-.9-2 1.2-1.3 3.1-2 5.7-2 2.5 0 3.7-.4 3.3-1-.4-.6-1.6-.8-2.7-.4-3.6 1.1-1.5-2 2.3-3.4S38.8 2.3 42 4z"/><path d="M24.7 16.7c-3.3.4-3.8.7-3.5 2.6.3 1.9.8 2.2 4.4 1.9 3-.3 4.3.1 4.7 1.2.9 2.2-.9 2.9-7.5 3-5.3.1-5.9.3-6.5 2.4-.9 3.7.7 4.3 6.5 2.5 2.8-.9 5.5-1.4 5.9-1 1.3 1.3-3.3 6.2-8.1 8.6-4.5 2.2-4.7 2.5-3 3.8 1 .7 2.6 1.3 3.6 1.3 1.9 0 10.2-7.5 11-10 .4-1.1 2.2.1 6.6 4.2 6.3 6.1 9.8 7.2 12.3 4.2 1-1.3 1-1.7-.2-2.5-.8-.5-1.9-.9-2.5-.9-1.9 0-10.4-6-10.4-7.3 0-1.1 1.2-1.3 4.8-.9 3.5.3 5.1 0 6.1-1.1 2.2-2.7.3-3.7-7-3.7-6.1 0-6.9-.2-6.9-1.9 0-2 1.9-3.1 5.5-3.1 1.9 0 3.5-1.6 3.5-3.6 0-.5-13.7-.2-19.3.3zm-7.3 33.5c-.3 1.1-.1 2.5.6 3.3.9 1.1 1.6 1.1 4.5-.1 1.9-.8 4.6-1.4 6-1.4 2.8 0 3.1 1.4 2.6 12.1-.2 4 .2 5.9 1.3 6.8 2.5 2.1 3.6.3 3.6-6 0-3.2.2-5.9.4-5.9s2 .7 3.9 1.5c3.2 1.3 3.7 1.3 5.2-.2 1.6-1.5 1.3-1.8-4.1-3.7-8.9-3.2-8-6.3 1.3-4.2 3.6.8 4.6.6 6.3-.9 1.1-1 1.7-2.2 1.4-2.7-.3-.5-7.5-.8-16.5-.7-14.5.2-15.9.4-16.5 2.1zm-.8 26.9c-1.8 2.6-1.2 4.3 1.7 5.6 1.6.7 2.8.6 4.4-.4 2.5-1.6 16.3-2.3 23-1 3.6.6 4.6.4 6.3-1.3 1.1-1.1 2-2.4 2-2.9s-7-.8-16.5-.6c-9.1.1-16.8-.1-17.1-.6-.9-1.5-2.2-1-3.8 1.2z"/></svg>