<svg width="45" height="45" xmlns="http://www.w3.org/2000/svg" fill-rule="evenodd" clip-rule="evenodd" stroke-linejoin="round" stroke-miterlimit="2"><path d="M42.675 3.525a1.642 1.642 0 00-.5-1.2c-.308-.303-.692-.453-1.15-.45H3.975a1.734 1.734 0 00-1.2.45 1.734 1.734 0 00-.45 1.2v37.95c-.003.458.147.842.45 1.15.342.336.742.503 1.2.5h37.05c.458.003.842-.164 1.15-.5.336-.308.503-.692.5-1.15V3.525m-3.3 1.65v34.65H5.625V5.175h33.75m-23.9 2.7l-.1.05c-.6 0-1.167.017-1.7.05-.033-.033-.067-.033-.1 0-.067 0-.117.017-.15.05-.067 0-.1.033-.1.1-.033 0-.05.05-.05.15v.05c.033.167.1.333.2.5l.1.1.1.3v.2c0 .033.017.05.05.05l.05.1c.033.133.117.3.25.5 0 .033.033.083.1.15-.033.067 0 .133.1.2 0 .033.033.083.1.15v.2c-.033.1-.017.233.05.4.033.033.05.083.05.15v1.25c-.033.6-.05 1.25-.05 1.95-.033.067-.05.2-.05.4a2.35 2.35 0 00-.45-.05h-.05a1.82 1.82 0 00-.85 0h-1.9a1.128 1.128 0 00-.8.1.831.831 0 01-.25.05c-.4.033-.767.083-1.1.15h-.05l-.05.05c-.133 0-.217.067-.25.2-.033 0-.05.017-.05.05-.067.033-.067.083 0 .15-.033.033-.033.067 0 .1 0 .033.017.067.05.1.033.1.05.217.05.35v.05l.1.4c0 .033.017.05.05.05-.033.133 0 .217.1.25h-.05l.1.1c.067.2.15.383.25.55 0 .033.017.05.05.05.033.3.133.533.3.7.333.333.75.55 1.25.65h1.45c.8-.067 1.483-.133 2.05-.2 0 .033.017.067.05.1v.05c.033.033.05.067.05.1l.05.05v.35c0 .033.017.067.05.1-.033.167-.033.35 0 .55h-.05c-.1.133-.133.25-.1.35l-.05.15c-.1.1-.133.2-.1.3-.067.033-.1.067-.1.1-.1.067-.133.133-.1.2-.067.033-.1.083-.1.15l-.1.2c-.033 0-.05.017-.05.05 0 .067-.017.15-.05.25-.033 0-.05.017-.05.05s-.017.067-.05.1c-.033 0-.05.017-.05.05v.1c-.067 0-.133.083-.2.25-.2.233-.4.517-.6.85-.167.133-.267.283-.3.45l-.05.05c-.067.033-.1.083-.1.15a.885.885 0 01-.25.4l-.05.05a.48.48 0 00-.15.35v.1l-.15.15c-.1.1-.183.233-.25.4-.1.033-.167.117-.2.25-.067.033-.117.1-.15.2-.033.033-.067.133-.1.3a1.175 1.175 0 00-.2.3v.05a.393.393 0 01-.05.15 1.032 1.032 0 00-.3.6v.05c-.067.067-.1.133-.1.2a1.175 1.175 0 01-.2.3v.1c-.033 0-.05.017-.05.05-.067.033-.117.117-.15.25v.05a.57.57 0 01-.1.15v.05c-.067.1-.117.183-.15.25v.05a.448.448 0 01-.05.2v.05l-.05.05v.05h-.05c-.133.067-.2.183-.2.35-.067.033-.083.1-.05.2l-.4.4c-.133.1-.317.383-.55.85v.05l-.15.6c0 .267.1.467.3.6.1.067.267.1.5.1h.05c.167.067.35.05.55-.05h-.05c.133-.033.25-.067.35-.1.133-.133.317-.367.55-.7l1.3-2 1-.85c.3-.167.617-.367.95-.6h.05c.2-.233.4-.383.6-.45v.5c-.067.1-.05.25.05.45 0 .067.033.133.1.2 0 .167.017.317.05.45-.033.633-.05 1.3-.05 2-.033.633-.05 1.283-.05 1.95-.033.6-.05 1.267-.05 2v.1c0 .133.033.283.1.45-.067.067-.067.167 0 .3 0 .033.017.05.05.05l.1.1c-.067.1-.067.183 0 .25 0 .033.017.083.05.15 0 .1.05.183.15.25l.05.05h-.05c0 .033.017.067.05.1l.1.1c.033 0 .05.017.05.05 0 .067.067.15.2.25l.2.1a.57.57 0 01.15.1h.1c.033 0 .067.017.1.05h.05l.15.05h.25c0-.033.083-.067.25-.1h.05c.033-.1.1-.133.2-.1h.35c.167-.133.283-.3.35-.5v-.95c0-.7.017-1.367.05-2 0-.667.033-1.317.1-1.95v-2c0-.667.017-1.3.05-1.9 0-.667.017-1.3.05-1.9v-.1l.1-.95c.133.067.283.133.45.2.267.133.583.183.95.15h.05l.5-.2c.3.1.567.033.8-.2v-.05c.267-1.067.283-2.05.05-2.95v-.05a1.655 1.655 0 00-.2-.25l-.05-.05h-.05a.57.57 0 00-.1-.15l-.4-.45-1.95-1.55h-.05v-1.2c.167 0 .667-.133 1.5-.4l1-.35c.133-.067.25-.133.35-.2h.05c.133 0 .283-.067.45-.2h-.05c.4-.3.633-.667.7-1.1v-.05l-.1-1.05v-.05c-.033-.033-.067-.05-.1-.05h-.2v-.1l-.1-.1c-.2 0-.383.017-.55.05h-1.1c-.033 0-.05.017-.05.05-.067 0-.1.017-.1.05a15.451 15.451 0 00-1.75 0 .214.214 0 00-.2 0c0-.5.017-.95.05-1.35v-2.05a.393.393 0 00.05-.15c0-.333.033-.667.1-1v-.05c-.067-.333-.05-.617.05-.85v-.05c-.033-.1-.033-.183 0-.25a5.063 5.063 0 010-1v-.05l-.05-.1h-.05l-.05-.05h-.3v-.05h-.05c-.3.033-.583.05-.85.05-.333.033-.633.05-.9.05h-.05m13.55 13.45c0-.2-.367-.517-1.1-.95-.733-.5-1.333-.817-1.8-.95h-.1c-.033.033-.05.067-.05.1-1.4 3.7-2.467 6.833-3.2 9.4-.267.833-.717 1.833-1.35 3h.05c-.3.533-.583 1.033-.85 1.5-.033 0-.05.017-.05.05 0 1.433.083 2.317.25 2.65.1.233.417.35.95.35.4 0 1.2-.333 2.4-1 1.333-.767 2.433-1.267 3.3-1.5.7-.167 1.75-.45 3.15-.85 1.133-.267 2.017-.4 2.65-.4.3 0 .45 1.067.45 3.2 0 .033.017.067.05.1s.083.117.15.25l.05.05c.1.1.367.15.8.15 1.133 0 1.867-.283 2.2-.85.167-.267.25-.833.25-1.7 0-1.533-.783-3.267-2.35-5.2-1.633-2-3.117-2.95-4.45-2.85v-.05c-.033-.033-.067-.05-.1-.05s-.05.017-.05.05c-.067.033-.1.267-.1.7 0 .6.25 1.317.75 2.15.033.1.4.617 1.1 1.55l.15.35c-2.167.167-3.883.383-5.15.65-.167.033-1.017.25-2.55.65l-.25.1c3.2-7.033 4.8-10.583 4.8-10.65m-.65-11.4c0 .067.017.183.05.35.133.267.55.85 1.25 1.75.5.6.85 1.017 1.05 1.25 0 .067.033.133.1.2l.25.25c.033.2.15.4.35.6a.57.57 0 00.15.1c-.033 0-.05.017-.05.05l1.6 1.9.35.35c.333.333.567.617.7.85.067.167.2.317.4.45.033.033.133.183.3.45.067.2.3.3.7.3.467 0 .767-.083.9-.25.1-.1.183-.333.25-.7.2-1.2.3-1.933.3-2.2 0-.333-.117-.65-.35-.95l-.1-.1-.2-.25-1.05-.9-.35-.25c-.2-.133-.333-.2-.4-.2l-.2-.15-1.8-1.05c-1.467-1.2-2.5-1.833-3.1-1.9-.7-.1-1.067-.083-1.1.05m.35 3.3c0-.433-.083-.733-.25-.9a4.87 4.87 0 01-.75-.5c-.6-.267-.95-.4-1.05-.4-.567-.067-1.05.25-1.45.95-.3.5-.817 1.533-1.55 3.1-.9 1.933-1.367 3.083-1.4 3.45l.1.25v.05c.067.033.3.05.7.05.667 0 1.15-.183 1.45-.55.067-.1.25-.45.55-1.05l2.15-2.85c.1-.1.383-.15.85-.15.433-.133.65-.617.65-1.45z" fill-rule="nonzero"/></svg>