<svg width="270" height="270" xmlns="http://www.w3.org/2000/svg" fill-rule="evenodd" clip-rule="evenodd" stroke-linejoin="round" stroke-miterlimit="2"><path fill="none" d="M-25-25h320v320H-25z"/><path d="M202.325 123.814c4.698.671 7.457-1.017 17.067-15.569 6.441-9.752 2.594-14.263-8.931-13.245-27.902 2.462-49.857 2.756-64.292 3.919-4.635.375-5.539-2.11-4.635-7.76 1.457-9.105 2.937-14.233 2.937-21.017 0-8.414-8.135-19.899-18.439-19.899-8.398 0-31.992 11.311-31.992 16.996 0 6.971 28.757-.444 28.757 26.901 0 6.152-1.357 7.683-8.382 8.544-61.866 7.583-70.96 2.26-66.497 13.672 8.717 22.288 12.712 11.639 58.563 6.195 6.334-.752 16.092-4.568 7.708 10.416-15.932 28.474-33.446 49.152-59.661 69.378-8.694 6.708-8.588 8.814-3.39 12.203 3.224 2.103 6.794 2.288 11.299 0 14.464-7.344 27.617-15.255 42.261-31.751 18.757-21.13 22.956-31.513 26.214-38.983 2.175-4.985 2.749-7.629 4.972-3.616 6.608 11.93 21.87 44.02 47.98 67.707 6.628 6.013 11.299 9.943 26.666 8.136 17.65-2.077 19.657-7.066 18.758-9.944-2.189-7.001-34.766-15.632-80.546-80.349-3.366-4.759-2.689-6.53 3.688-6.349 24.132.685 35.658 2.381 49.895 4.415m31.775-49.32c-.048-38.317 1.48-37.918-3.687-37.836-32.768.521-63.857-.635-98.291-.802-28.356-.14-59.122.167-88.617-.825-7.628-.258-4.417 5.748-5.548 39.48-.816 24.329-.801 48.888-1.365 73.202-.583 25.067.026 40.208.316 69.35.145 14.541 2.444 14.749 18.176 14.637 13.307-.096 17.455 1.392 30.67 1.272 18.505-.17 27.126-.872 45.315-.872 53.231 0 103.235 2.483 103.235-4.964 0-11.427-.102-74.087-.204-152.642m8.041 180.507c-42.803 0-208.225-1.945-218.906-1.975-5.734-.015-7.944-4.061-7.944-10.095 0-40.893-1.418-175.037 2.007-222.897.256-3.578 3.595-3.655 6.347-3.655 142.36 0 198.264-1.378 220.286-1.378 6.711 0 10.484 2.321 10.484 8.355 0 26.461.255 45.029.546 73.717.251 24.733-.816 44.749-.291 148.179.039 7.747-4.028 9.749-12.529 9.749" fill-rule="nonzero"/></svg>