<svg width="30" height="30" xmlns="http://www.w3.org/2000/svg" fill-rule="evenodd" clip-rule="evenodd" stroke-linejoin="round" stroke-miterlimit="2"><path d="M28.35 4.375a.951.951 0 00-.7-.3H2.35a.951.951 0 00-.7.3.951.951 0 00-.3.7.951.951 0 00.3.7.951.951 0 00.7.3h24.3v18.85a.951.951 0 00.3.7.951.951 0 00.7.3.951.951 0 00.7-.3.951.951 0 00.3-.7V5.075a.951.951 0 00-.3-.7m-8.05 6.55l-.45-.05h-1.1c-.333 0-.583.033-.75.1l-1.45.35c-.567.1-1.15.283-1.75.55l-1.1.45c.067-1.067.033-1.967-.1-2.7-.067-.333-.167-.567-.3-.7-.167-.133-.417-.2-.75-.2l-1.35.1c-.533.167-.867.35-1 .55-.267.333-.283.683-.05 1.05.133.3.367.5.7.6v2.1c-.1 0-.183.017-.25.05l-6.6 1.8c-.3.067-.517.183-.65.35-.067.1-.1.267-.1.5 0 .167.017.3.05.4l.3.4c.3.3.633.517 1 .65.567.133 1.15.117 1.75-.05a4.96 4.96 0 00.75-.25l.85-.45c.3-.167.733-.367 1.3-.6l1.25-.45-.1 2.95v.95c.067.867.217 1.533.45 2 .3.667.783 1.15 1.45 1.45.567.233 1.367.283 2.4.15l3-.3c1.067-.133 1.85-.267 2.35-.4.367-.067.633-.183.8-.35.3-.233.4-.483.3-.75-.067-.4-.467-.6-1.2-.6-.2 0-1.183.067-2.95.2-1.2.1-2.183.067-2.95-.1a.48.48 0 01-.35-.15c-.033-.033-.1-.183-.2-.45-.233-1.333-.3-2.767-.2-4.3.067-.533.133-1.017.2-1.45.233-.067.45-.133.65-.2l2.15-.55.25-.1c.133-.033.35-.067.65-.1.1-.033.383-.1.85-.2-.133.267-.383.583-.75.95l-2.8 3.1v.1c-.1.167-.15.317-.15.45 0 .233.083.4.25.5.067.067.233.1.5.1l.35-.05.65-.35.2-.15 3.5-2.2.3-.2.25-.2c.2-.1.467-.283.8-.55.167-.1.3-.25.4-.45.067-.233.05-.533-.05-.9a3.692 3.692 0 00-.25-.9c-.1-.333-.217-.583-.35-.75-.2-.433-.4-.683-.6-.75z" fill-rule="nonzero"/></svg>