<svg viewBox="0 0 40 40" xmlns="http://www.w3.org/2000/svg" fill-rule="evenodd" clip-rule="evenodd" stroke-linejoin="round" stroke-miterlimit="2"><path d="M27.175 13.175c-.267 0-.5.017-.7.05h-3.65l-.15-.05h-2.25c-2.933-.267-5.35-.5-7.25-.7-1.133-.167-2.083-.3-2.85-.4-.7 0-1.417.033-2.15.1-.2-.1-.4-.183-.6-.25-1.2-.3-1.8-.067-1.8.7 0 .467.083.9.25 1.3.167.467.417.783.75.95.333.233.7.35 1.1.35 1.8-.1 3.6-.167 5.4-.2a48.55 48.55 0 015.85.05c2 .1 4.033.183 6.1.25l-.95.6-2.45 1a.562.562 0 00-.05.25c-.167 0-.3.033-.4.1-1.967.7-3.05 1.317-3.25 1.85-.4.2-.683.317-.85.35l-1.05-.35-.1-.1a.393.393 0 00-.15-.05c-1.5-.467-2.25-.3-2.25.5 0 .333.217.7.65 1.1.433.467.683.767.75.9a41 41 0 01.15 1.35v5.75h-9.55c-.3-.1-.667-.167-1.1-.2-1.933-.367-2.9.033-2.9 1.2 0 .267.1.6.3 1 .033.233.15.45.35.65.133.1.25.167.35.2.233.233.567.35 1 .35.2 0 .4-.033.6-.1h1.1c.5-.2 1.317-.383 2.45-.55h4.85l.25-.05c.033 0 .717-.033 2.05-.1l6.5-.15c1.167.1 2.033.183 2.6.25l5.25.2c.167 0 .483.1.95.3.6 0 1.117.067 1.55.2h.9c.2 0 .383-.033.55-.1.267-.467.4-.783.4-.95 0-.2-.117-.4-.35-.6-.1-.3-.317-.583-.65-.85-.733-.567-1.867-.817-3.4-.75a.393.393 0 01-.15.05h-10.8v-6.95l.15-.05v-.1c0-.433.9-1 2.7-1.7 1.333-.533 2.3-.867 2.9-1 .067 0 .15-.017.25-.05l.15-.1c.2-.033.4-.1.6-.2.933-.367 1.733-.6 2.4-.7.467-.267.783-.4.95-.4 1.533-.2 2.3-.633 2.3-1.3-1.233-3.4-2.433-4.35-3.6-2.85m-19.2-8.35c.233.067.483.117.75.15h26.45v30.3c.1.233.183.467.25.7.4 1.233.617 1.883.65 1.95l.1.05c.167.067.35.1.55.1.4 0 .75-.15 1.05-.45.333-.333.5-.7.5-1.1v-34.1c-.1-.133-.267-.283-.5-.45l-.05-.05h-33.7c-.4 0-.767.15-1.1.45v.05c-.033.167-.05.383-.05.65 0 .767.333 1.25 1 1.45.367.1 1.05.2 2.05.3h2.05z" fill-rule="nonzero"/></svg>