<svg width="18" height="18" xmlns="http://www.w3.org/2000/svg" fill-rule="evenodd" clip-rule="evenodd" stroke-linecap="square" stroke-miterlimit="1.5"><path d="M6.248 4.315H1.635V2.944h13.34v1.371H7.682c0 .873-.042 1.745-.125 2.618h6.296c0 2.743-.229 4.904-.686 6.483-.332 1.205-1.08 1.808-2.244 1.808H8.492l-.249-1.372h2.244c.706 0 1.142-.291 1.309-.872.332-1.122.519-2.681.561-4.675H7.37c-.665 3.158-2.306 5.443-4.925 6.856L1.51 13.79c3.159-1.579 4.738-4.384 4.738-8.415v-1.06z" fill-rule="nonzero"/><path d="M1 1h16v16" fill="none" stroke="#000" stroke-width="1.2"/></svg>