<svg width="220" height="220" xmlns="http://www.w3.org/2000/svg" fill-rule="evenodd" clip-rule="evenodd" stroke-linejoin="round" stroke-miterlimit="2"><path d="M168.691 64.008c-.433.033-.85.15-1.25.35-.8.533-1.75 1.333-2.85 2.4a1.05 1.05 0 00-.35.55c-.6 1.7-1.7 2.4-3.3 2.1-.9-.133-2.1-.15-3.6-.05-1.7.1-3.367.25-5 .45-.733.067-1.467.2-2.2.4-3.367.867-6.867 1.15-10.5.85a2.953 2.953 0 00-1.3.2 14.19 14.19 0 01-6.35.95c-3.867-.3-7.65-.167-11.35.4a1.916 1.916 0 00-.15-.4c-.733-1.933-1.033-4.117-.9-6.55.1-1.4.067-2.8-.1-4.2-.133-1.767.417-2.817 1.65-3.15.567-.133.967-.567 1.2-1.3.067-.3.167-.5.3-.6.567-.367.767-1.033.6-2-.033-.567-.1-1.1-.2-1.6-.1-.633-.45-1.117-1.05-1.45-.733-.4-1.333-.783-1.8-1.15-.267-.233-.55-.367-.85-.4a9.92 9.92 0 01-4.55-1.85 44.003 44.003 0 01-3.65-3.1c-.133-.1-.25-.217-.35-.35-.233-.367-.5-.7-.8-1-.3-.367-.65-.667-1.05-.9-1-.733-2.2-1.217-3.6-1.45-1.633-.3-2.983-.15-4.05.45-1.267.7-1.9 1.867-1.9 3.5 0 3.067.117 5.267.35 6.6.167 1.067.917 2.267 2.25 3.6 1.433 1.467 2.267 2.55 2.5 3.25.733 1.867 1.133 4.2 1.2 7 .033 1.567 0 3.817-.1 6.75 0 .233-.05.667-.15 1.3-1.867.1-3.6.417-5.2.95a2.124 2.124 0 01-.85.25c-3.367.5-6.833.75-10.4.75-1.067-.033-2.117.1-3.15.4-.3.067-.617.117-.95.15-3.267.6-6.583.883-9.95.85a45.085 45.085 0 00-8.55.6l-.6.1c-.6-.9-1.3-1.8-2.1-2.7-2.867-3.333-6.4-6.133-10.6-8.4a34.027 34.027 0 00-2.95-1.45 18.26 18.26 0 00-1.1-1.45c-.233-.267-.467-.55-.7-.85-.833-1.1-1.95-2.267-3.35-3.5a43.754 43.754 0 00-6.75-4.8c-.4-.267-.8-.333-1.2-.2-.467.133-1.117.183-1.95.15a3.492 3.492 0 00-1.3.15c-1.367.467-1.933 1.65-1.7 3.55.067.367.117.717.15 1.05.1.967.3 1.517.6 1.65.033.533.05 1.067.05 1.6.033.867.2 1.5.5 1.9.233.333.367.767.4 1.3.133 1.5.467 2.9 1 4.2.967 2.333 1.45 4.85 1.45 7.55.033.533.05 1.067.05 1.6 0 1.233.283 2.367.85 3.4.133.2.25.45.35.75-.067.4-.133.817-.2 1.25-.1.733-.167 1.45-.2 2.15-.333 3.9-.583 7.817-.75 11.75-.067 1.933-.15 3.85-.25 5.75h-.25c-.067 1.267-.133 2.517-.2 3.75a32.777 32.777 0 01-.95 6.45c-.6 2.167-.9 4.467-.9 6.9 0 1.067-.133 2.15-.4 3.25-.8 3.6-1.283 7.35-1.45 11.25 0 .533-.1 1.083-.3 1.65-.6 1.7-.933 3.467-1 5.3-.033.9-.117 1.817-.25 2.75-.167.833-.283 1.7-.35 2.6-.1 1.767-.417 3.417-.95 4.95-.2.633-.383 1.283-.55 1.95-.133.6-.267 1.183-.4 1.75-.167.7-.333 1.367-.5 2-.167.6-.383 1.183-.65 1.75a242.808 242.808 0 01-9.15 17 77.567 77.567 0 00-1.55 2.85c-.1.3-.217.567-.35.8a17.049 17.049 0 01-3.15 5.3c-.9 1.033-1.75 2.2-2.55 3.5a3.251 3.251 0 01-.6.85c-.2.267-.4.55-.6.85-.267.433-.517.9-.75 1.4-.6 1.4-1.5 2.6-2.7 3.6a14.42 14.42 0 00-2.05 1.95c-.233.233-.45.517-.65.85-.633 1.233-1 2.5-1.1 3.8a52.413 52.413 0 00-.3 3.2c-.033 1.167.3 2.083 1 2.75 1.133 1.033 2.65 1.45 4.55 1.25 1.067-.167 2.117-.3 3.15-.4.7-.033 1.35-.267 1.95-.7.233-.167.467-.317.7-.45.7-.4 1.183-.85 1.45-1.35.733-1.5 1.933-2.3 3.6-2.4a2.363 2.363 0 001.25-.45 6.54 6.54 0 001.4-1.6c.6-.967 1.367-1.533 2.3-1.7.167 0 .3-.117.4-.35.767-1.467 1.983-2.567 3.65-3.3.633-.267 1.133-.733 1.5-1.4.267-.4.567-.767.9-1.1 1.733-1.8 3.483-3.833 5.25-6.1.767-1 1.583-1.983 2.45-2.95a62.811 62.811 0 005.75-7.65c.2-.267.367-.6.5-1 .767-1.633 1.55-3.4 2.35-5.3 1.267-2.933 2.2-6.15 2.8-9.65.3-1.6.667-3.25 1.1-4.95.8-3.267 1.583-6.617 2.35-10.05.433-2.033.817-4.033 1.15-6 .067-.333.117-.65.15-.95.933-.1 1.867-.117 2.8-.05 3.833.267 7.45-.283 10.85-1.65.3-.133.617-.217.95-.25 2.067-.133 4.167-.25 6.3-.35.9-.1 1.817-.183 2.75-.25a316.698 316.698 0 0121.9-1.15c.1.833.083 1.717-.05 2.65a52.2 52.2 0 00-.15 2.3c.5 1 .75 2.183.75 3.55 0 2.633-.483 6.033-1.45 10.2.033 1.467.1 3.05.2 4.75.267 6.067.4 9.233.4 9.5v9.25c-.067.533-.15 1.05-.25 1.55.133.167.217.367.25.6a9.24 9.24 0 001.45 3.2c.433.633.8 1.683 1.1 3.15.167.6.433 1.117.8 1.55.567.6 1.25 1.167 2.05 1.7a22.67 22.67 0 013.4-.05h29.05c.467-.167.967-.333 1.5-.5.167-.067.333-.117.5-.15 2.667.3 5.733.5 9.2.6 3.8-1 8.467-1.267 14-.8 2.933.233 5.65.617 8.15 1.15l1.5-.1c2.9-.667 5.167-1.767 6.8-3.3 1.933-1.767 2.9-3.95 2.9-6.55 0-.567-.017-1.083-.05-1.55a16.9 16.9 0 00.95-5.55c0-2.5-1.067-4.55-3.2-6.15-1.867-1.367-4.233-2.233-7.1-2.6-2.7-.367-5.067-.233-7.1.4a.393.393 0 01-.15.05c-2.6.067-5.067.133-7.4.2-8.8 2.367-18.083 3.55-27.85 3.55-2.133 0-3.933-.233-5.4-.7-.2 0-.383-.017-.55-.05a20.471 20.471 0 00-1.35-.15c-1.367-.133-2.733-.25-4.1-.35-1.367-.1-2.2-.967-2.5-2.6-.133-.833-.2-1.7-.2-2.6.033-3.467-.05-6.867-.25-10.2-.133-2 .017-3.917.45-5.75.167-.6.35-1.217.55-1.85.1-.467.133-.967.1-1.5a64.894 64.894 0 01-.45-8.5 46.186 46.186 0 005.5-1.15c.6-.133 1.183-.217 1.75-.25 5.467-.167 10.917-.25 16.35-.25h.4c1.333-.7 3.467-1.117 6.4-1.25 2.5-.1 4.433.067 5.8.5l2.45-.05c.767-.167 1.617-.233 2.55-.2.467 0 .917.033 1.35.1.033-.033.067-.05.1-.05l5.3-.1c7.133-.667 11.217-1.483 12.25-2.45 2.267-.2 4.383-1.133 6.35-2.8 2.267-1.933 3.4-4.233 3.4-6.9 0-1.533-.367-3.05-1.1-4.55-.133-.4-.267-.767-.4-1.1-.533-1.1-1.9-2.9-4.1-5.4-.467-.567-.867-.95-1.2-1.15-.633-.367-1.467-.567-2.5-.6-3.733-.967-6.383-1.2-7.95-.7-1.667.533-4.883 1.117-9.65 1.75-4.567.6-7.75.9-9.55.9-4.633 0-8.45.317-11.45.95-1.133.233-2.017.483-2.65.75-.167.067-.35.117-.55.15h-.4a1.82 1.82 0 00-.55.15l-3.55.05c-4.667.733-10.533 1.583-17.6 2.55-16.133 2.167-27.7 3.25-34.7 3.25-1.367 0-2.533-.2-3.5-.6l-3.65.05c-3.6.8-6.05 1.2-7.35 1.2h-.1a6.614 6.614 0 01-.8.15c-.3.067-.6.183-.9.35a2.142 2.142 0 01-1.35.25c-1.167-.1-2.267 0-3.3.3.033-.2.067-.367.1-.5.5-2.067.733-4.217.7-6.45 0-.5.033-1.033.1-1.6.033-.467.083-.95.15-1.45h.3c0-.467.017-.933.05-1.4.567-.867 1.167-1.8 1.8-2.8 1.667-2.533 3.1-4.867 4.3-7 1.2-.167 2.35-.4 3.45-.7.467-.1.917-.15 1.35-.15a52.104 52.104 0 0010.45-.95c.467-.067.917-.1 1.35-.1 3.233.067 6.4-.183 9.5-.75 3.4-.633 6.867-.867 10.4-.7 1.067.067 1.967-.05 2.7-.35.5-.233.967-.35 1.4-.35 1.9-.067 3.683-.383 5.35-.95.6-.2 1.25-.367 1.95-.5h7.25c3.833-1 7.467-1.833 10.9-2.5 4.933-.067 9.883-.183 14.85-.35h.9a114.72 114.72 0 0118.55.4 6.878 6.878 0 012.1.75c.733.433 1.517.7 2.35.8 2.367 1.233 5.7 1.85 10 1.85 1.4 0 3.167-1.3 5.3-3.9 2.167-2.6 3.25-4.667 3.25-6.2-.3-.4-.617-.8-.95-1.2.133-1.533-.167-2.85-.9-3.95-.2-.367-.433-.767-.7-1.2a24.929 24.929 0 01-1.25-2.7l-.4-.8c-.167-.267-.35-.55-.55-.85-.367-.6-.733-1.017-1.1-1.25-2.8-1.933-5.35-3.8-7.65-5.6-1.5-1.2-3.15-1.733-4.95-1.6m45.5-53.55h-123.3c-5.9 0-11.783.067-17.65.2a2.57 2.57 0 01-.5.05c-1.933.167-3.883.25-5.85.25a6.16 6.16 0 01-1.75-.25c-3.1-.733-6.3-.95-9.6-.65-.6.033-1.183.1-1.75.2-.6.133-1.183.083-1.75-.15-.867-.367-1.8-.517-2.8-.45-2.733.167-5.45.333-8.15.5-.3 0-.583-.017-.85-.05-1.767-.167-3.333.217-4.7 1.15-.233.167-.4.317-.5.45-.867 1.5-2.05 2.65-3.55 3.45-1.233.667-1.7 1.933-1.4 3.8.067.4.017.667-.15.8-.567.633-.8 1.633-.7 3 .033.367.133.617.3.75.167.2.333.367.5.5.267.233.5.517.7.85.267.4.483.8.65 1.2.1.3.233.517.4.65a37.94 37.94 0 012.85 3.1c.367.467.75.9 1.15 1.3.433.5.7.917.8 1.25 1.033.167 1.817.45 2.35.85.233.167.483.25.75.25.6.033 1.1.133 1.5.3.233.167.483.267.75.3 1.9.333 3.733.783 5.5 1.35a31.474 31.474 0 008.1 1.15c.867 0 1.517.117 1.95.35.533.2 1.083.3 1.65.3 3.033 0 6.067-.083 9.1-.25.333 0 .65-.067.95-.2 1.767-.7 3.7-.983 5.8-.85 3.1.133 6.117-.1 9.05-.7.633-.1 1.267-.267 1.9-.5a3.492 3.492 0 011.3-.15c3.367.133 6.7-.1 10-.7.467-.1.917-.167 1.35-.2a37.27 37.27 0 015.45 0c1.1.133 1.9-.033 2.4-.5.2-.167.433-.267.7-.3 2.767-.5 5.65-.75 8.65-.75h.9c6.033-.167 12.05-.25 18.05-.25h63.45c.1 1.4.25 2.783.45 4.15.167.8.383 1.583.65 2.35.167.5.2.983.1 1.45-.067.4-.117.767-.15 1.1-.3 2.667.067 5.2 1.1 7.6.6 1.467.833 3.05.7 4.75-.1 1.233-.217 2.483-.35 3.75-.033.367-.067.717-.1 1.05-.1 2.833-.1 5.7 0 8.6.4 7.233.55 14.55.45 21.95-.1 7.3-.15 14.617-.15 21.95v77.25c.3.867.6 1.7.9 2.5a19.81 19.81 0 003.45 6.05c.267.267.517.533.75.8.233.267.483.433.75.5 3.167 1 5.75.533 7.75-1.4.8-.833 1.617-1.817 2.45-2.95.133-.2.217-.483.25-.85a46.16 46.16 0 00.25-3.75c.133-7.333.2-14.65.2-21.95V33.608c.033-.933.1-1.85.2-2.75.1-1.067.217-2.167.35-3.3.267-2.6.367-5.267.3-8a21.32 21.32 0 00-.9-5.4 3.12 3.12 0 00-.55-.9 43.731 43.731 0 01-2.85-2.8z" fill-rule="nonzero"/></svg>