<svg xmlns="http://www.w3.org/2000/svg" width="122pt" height="128pt" viewBox="0 0 122 128" fill-rule="evenodd"><path d="M6.2 8.2l.3 7.3 49.8.3 49.7.2v111h16V1H5.9l.3 7.2z"/><path d="M39 37v9H21.2l-.6-4.4-.7-4.3-9.2-.6c-5-.3-9.3-.5-9.4-.3-.2.2.4 4.5 1.3 9.7 2 11.3 1.4 42.5-.9 52.7-.8 3.4-1.2 6.4-.8 6.6.4.3 4.7.4 9.6.3l9-.2.9-4.8.9-4.7H39v26h20V96h8c5.7 0 8 .4 8 1.2 0 .7.5 2.9 1 5l1 3.6h9c5 0 9.2-.3 9.4-.6.2-.4-.5-5.4-1.5-11.2-2.3-13.3-2.4-33.8-.3-47.2.9-5.5 1.4-10.2 1.2-10.4-.3-.2-4.5-.1-9.3.4l-8.9.7-.9 4.3-.8 4.3-7.7-.3-7.7-.3-.3-8.8-.3-8.7H39v9zm0 34v14H23V57h16v14zm34.5 0v14H59V57h14.5v14z"/></svg>