<svg width="1510" height="1510" xmlns="http://www.w3.org/2000/svg" fill-rule="evenodd" clip-rule="evenodd" stroke-linecap="round" stroke-linejoin="round" stroke-miterlimit="1.5"><path fill="none" stroke="#000" stroke-width="4" d="M5 5h1500v1500H5z"/><path d="M105 5v1500M205 5v1500m100 0V5m100 0v1500M805 5v1500M905 5v1500m100 0V5m100 0v1500m100 0V5m100 0v1500M1405 5v1500m-900 0V5M5 105h1500M5 205h1500M605 5v1500m100 0V5M5 305h1500m0 100H5m0 100h1500m0 100H5m0 100h1500m0 100H5m0 100h1500m0 100H5m0 100h1500m0 100H5m0 100h1500m0 100H5" fill="none" stroke="#000" stroke-width="2"/><circle cx="55" cy="55" r="40" fill="#ebebeb" stroke="#000" stroke-width="4"/><circle cx="155" cy="55" r="40" fill="#ebebeb" stroke="#000" stroke-width="4"/><circle cx="55" cy="155" r="40" fill="#ebebeb" stroke="#000" stroke-width="4"/><circle cx="155" cy="155" r="40" fill="#fbde03" stroke="#000" stroke-width="4"/><circle cx="255" cy="55" r="40" fill="#ca0000" stroke="#000" stroke-width="4"/><circle cx="355" cy="55" r="40" fill="#fbde03" stroke="#000" stroke-width="4"/><circle cx="255" cy="155" r="40" fill="#fbde03" stroke="#000" stroke-width="4"/><circle cx="355" cy="155" r="40" fill="#ebebeb" stroke="#000" stroke-width="4"/><circle cx="455" cy="55" r="40" fill="#fbde03" stroke="#000" stroke-width="4"/><circle cx="555" cy="55" r="40" fill="#ebebeb" stroke="#000" stroke-width="4"/><circle cx="455" cy="155" r="40" fill="#ca0000" stroke="#000" stroke-width="4"/><circle cx="555" cy="155" r="40" fill="#fbde03" stroke="#000" stroke-width="4"/><circle cx="655" cy="55" r="40" fill="#ebebeb" stroke="#000" stroke-width="4"/><circle cx="755" cy="55" r="40" fill="#fbde03" stroke="#000" stroke-width="4"/><circle cx="655" cy="155" r="40" fill="#ebebeb" stroke="#000" stroke-width="4"/><circle cx="755" cy="155" r="40" fill="#ebebeb" stroke="#000" stroke-width="4"/><circle cx="55" cy="255" r="40" fill="#fbde03" stroke="#000" stroke-width="4"/><circle cx="155" cy="255" r="40" fill="#ca0000" stroke="#000" stroke-width="4"/><circle cx="55" cy="355" r="40" fill="#ca0000" stroke="#000" stroke-width="4"/><circle cx="155" cy="355" r="40" fill="#ca0000" stroke="#000" stroke-width="4"/><circle cx="255" cy="255" r="40" fill="#ebebeb" stroke="#000" stroke-width="4"/><circle cx="355" cy="255" r="40" fill="#fbde03" stroke="#000" stroke-width="4"/><circle cx="255" cy="355" r="40" fill="#ebebeb" stroke="#000" stroke-width="4"/><circle cx="355" cy="355" r="40" fill="#31b13b" stroke="#000" stroke-width="4"/><circle cx="455" cy="255" r="40" fill="#fbde03" stroke="#000" stroke-width="4"/><circle cx="555" cy="255" r="40" fill="#ebebeb" stroke="#000" stroke-width="4"/><circle cx="455" cy="355" r="40" fill="#ebebeb" stroke="#000" stroke-width="4"/><circle cx="555" cy="355" r="40" fill="#ebebeb" stroke="#000" stroke-width="4"/><circle cx="660" cy="260" r="40" fill="#31b13b" stroke="#000" stroke-width="4"/><circle cx="755" cy="255" r="40" fill="#ca0000" stroke="#000" stroke-width="4"/><circle cx="655" cy="355" r="40" fill="#fbde03" stroke="#000" stroke-width="4"/><circle cx="755" cy="355" r="40" fill="#fbde03" stroke="#000" stroke-width="4"/><circle cx="55" cy="455" r="40" fill="#ca0000" stroke="#000" stroke-width="4"/><circle cx="155" cy="455" r="40" fill="#ebebeb" stroke="#000" stroke-width="4"/><circle cx="55" cy="555" r="40" fill="#fbde03" stroke="#000" stroke-width="4"/><circle cx="155" cy="555" r="40" fill="#ebebeb" stroke="#000" stroke-width="4"/><circle cx="255" cy="455" r="40" fill="#ebebeb" stroke="#000" stroke-width="4"/><circle cx="355" cy="455" r="40" fill="#31b13b" stroke="#000" stroke-width="4"/><circle cx="255" cy="555" r="40" fill="#ca0000" stroke="#000" stroke-width="4"/><circle cx="355" cy="555" r="40" fill="#fbde03" stroke="#000" stroke-width="4"/><circle cx="455" cy="455" r="40" fill="#ebebeb" stroke="#000" stroke-width="4"/><circle cx="555" cy="455" r="40" fill="#ebebeb" stroke="#000" stroke-width="4"/><circle cx="455" cy="555" r="40" fill="#ebebeb" stroke="#000" stroke-width="4"/><circle cx="555" cy="555" r="40" fill="#fbde03" stroke="#000" stroke-width="4"/><circle cx="655" cy="455" r="40" fill="#ca0000" stroke="#000" stroke-width="4"/><circle cx="755" cy="455" r="40" fill="#fbde03" stroke="#000" stroke-width="4"/><circle cx="655" cy="555" r="40" fill="#31b13b" stroke="#000" stroke-width="4"/><circle cx="755" cy="555" r="40" fill="#ebebeb" stroke="#000" stroke-width="4"/><circle cx="55" cy="655" r="40" fill="#ebebeb" stroke="#000" stroke-width="4"/><circle cx="155" cy="655" r="40" fill="#fbde03" stroke="#000" stroke-width="4"/><circle cx="55" cy="755" r="40" fill="#ebebeb" stroke="#000" stroke-width="4"/><circle cx="155" cy="755" r="40" fill="#fbde03" stroke="#000" stroke-width="4"/><circle cx="255" cy="655" r="40" fill="#fbde03" stroke="#000" stroke-width="4"/><circle cx="355" cy="655" r="40" fill="#fbde03" stroke="#000" stroke-width="4"/><circle cx="255" cy="755" r="40" fill="#ebebeb" stroke="#000" stroke-width="4"/><circle cx="355" cy="755" r="40" fill="#ebebeb" stroke="#000" stroke-width="4"/><circle cx="455" cy="655" r="40" fill="#ebebeb" stroke="#000" stroke-width="4"/><circle cx="555" cy="655" r="40" fill="#ebebeb" stroke="#000" stroke-width="4"/><circle cx="455" cy="755" r="40" fill="#ebebeb" stroke="#000" stroke-width="4"/><circle cx="555" cy="755" r="40" fill="#31b13b" stroke="#000" stroke-width="4"/><circle cx="655" cy="655" r="40" fill="#fbde03" stroke="#000" stroke-width="4"/><circle cx="755" cy="655" r="40" fill="#ebebeb" stroke="#000" stroke-width="4"/><circle cx="655" cy="755" r="40" fill="#fbde03" stroke="#000" stroke-width="4"/><circle cx="755" cy="755" r="40" fill="#ebebeb" stroke="#000" stroke-width="4"/><circle cx="855" cy="55" r="40" fill="#ca0000" stroke="#000" stroke-width="4"/><circle cx="855" cy="155" r="40" fill="#ca0000" stroke="#000" stroke-width="4"/><circle cx="855" cy="255" r="40" fill="#fbde03" stroke="#000" stroke-width="4"/><circle cx="855" cy="355" r="40" fill="#ca0000" stroke="#000" stroke-width="4"/><circle cx="855" cy="455" r="40" fill="#ebebeb" stroke="#000" stroke-width="4"/><circle cx="855" cy="555" r="40" fill="#fbde03" stroke="#000" stroke-width="4"/><circle cx="855" cy="655" r="40" fill="#fbde03" stroke="#000" stroke-width="4"/><circle cx="855" cy="755" r="40" fill="#ebebeb" stroke="#000" stroke-width="4"/><circle cx="1455" cy="55" r="40" fill="#ebebeb" stroke="#000" stroke-width="4"/><circle cx="1455" cy="155" r="40" fill="#fbde03" stroke="#000" stroke-width="4"/><circle cx="1455" cy="255" r="40" fill="#fbde03" stroke="#000" stroke-width="4"/><circle cx="1455" cy="355" r="40" fill="#ebebeb" stroke="#000" stroke-width="4"/><circle cx="1455" cy="455" r="40" fill="#ebebeb" stroke="#000" stroke-width="4"/><circle cx="1455" cy="555" r="40" fill="#ebebeb" stroke="#000" stroke-width="4"/><circle cx="1455" cy="655" r="40" fill="#fbde03" stroke="#000" stroke-width="4"/><circle cx="1455" cy="755" r="40" fill="#fbde03" stroke="#000" stroke-width="4"/><circle cx="1355" cy="55" r="40" fill="#ca0000" stroke="#000" stroke-width="4"/><circle cx="1355" cy="155" r="40" fill="#ca0000" stroke="#000" stroke-width="4"/><circle cx="1355" cy="255" r="40" fill="#fbde03" stroke="#000" stroke-width="4"/><circle cx="1355" cy="355" r="40" fill="#ebebeb" stroke="#000" stroke-width="4"/><circle cx="1355" cy="455" r="40" fill="#ca0000" stroke="#000" stroke-width="4"/><circle cx="1355" cy="555" r="40" fill="#ca0000" stroke="#000" stroke-width="4"/><circle cx="1355" cy="655" r="40" fill="#ca0000" stroke="#000" stroke-width="4"/><circle cx="1355" cy="755" r="40" fill="#31b13b" stroke="#000" stroke-width="4"/><circle cx="1255" cy="55" r="40" fill="#ca0000" stroke="#000" stroke-width="4"/><circle cx="1255" cy="155" r="40" fill="#ebebeb" stroke="#000" stroke-width="4"/><circle cx="1255" cy="255" r="40" fill="#fbde03" stroke="#000" stroke-width="4"/><circle cx="1255" cy="355" r="40" fill="#ebebeb" stroke="#000" stroke-width="4"/><circle cx="1255" cy="455" r="40" fill="#ca0000" stroke="#000" stroke-width="4"/><circle cx="1255" cy="555" r="40" fill="#fbde03" stroke="#000" stroke-width="4"/><circle cx="1255" cy="655" r="40" fill="#ebebeb" stroke="#000" stroke-width="4"/><circle cx="1255" cy="755" r="40" fill="#ca0000" stroke="#000" stroke-width="4"/><circle cx="1155" cy="55" r="40" fill="#ca0000" stroke="#000" stroke-width="4"/><circle cx="1155" cy="155" r="40" fill="#fbde03" stroke="#000" stroke-width="4"/><circle cx="1155" cy="255" r="40" fill="#fbde03" stroke="#000" stroke-width="4"/><circle cx="1155" cy="355" r="40" fill="#fbde03" stroke="#000" stroke-width="4"/><circle cx="1155" cy="455" r="40" fill="#ca0000" stroke="#000" stroke-width="4"/><circle cx="1155" cy="555" r="40" fill="#ebebeb" stroke="#000" stroke-width="4"/><circle cx="1155" cy="655" r="40" fill="#ebebeb" stroke="#000" stroke-width="4"/><circle cx="1155" cy="755" r="40" fill="#ca0000" stroke="#000" stroke-width="4"/><circle cx="1055" cy="55" r="40" fill="#ebebeb" stroke="#000" stroke-width="4"/><circle cx="1055" cy="155" r="40" fill="#ebebeb" stroke="#000" stroke-width="4"/><circle cx="1055" cy="255" r="40" fill="#ebebeb" stroke="#000" stroke-width="4"/><circle cx="1055" cy="355" r="40" fill="#31b13b" stroke="#000" stroke-width="4"/><circle cx="1055" cy="455" r="40" fill="#fbde03" stroke="#000" stroke-width="4"/><circle cx="1055" cy="555" r="40" fill="#ebebeb" stroke="#000" stroke-width="4"/><circle cx="1055" cy="655" r="40" fill="#fbde03" stroke="#000" stroke-width="4"/><circle cx="1055" cy="755" r="40" fill="#31b13b" stroke="#000" stroke-width="4"/><circle cx="955" cy="55" r="40" fill="#ebebeb" stroke="#000" stroke-width="4"/><circle cx="955" cy="155" r="40" fill="#fbde03" stroke="#000" stroke-width="4"/><circle cx="955" cy="255" r="40" fill="#ebebeb" stroke="#000" stroke-width="4"/><circle cx="955" cy="355" r="40" fill="#fbde03" stroke="#000" stroke-width="4"/><circle cx="955" cy="455" r="40" fill="#ebebeb" stroke="#000" stroke-width="4"/><circle cx="955" cy="555" r="40" fill="#ebebeb" stroke="#000" stroke-width="4"/><circle cx="955" cy="655" r="40" fill="#ca0000" stroke="#000" stroke-width="4"/><circle cx="955" cy="755" r="40" fill="#ebebeb" stroke="#000" stroke-width="4"/><circle cx="55" cy="855" r="40" fill="#fbde03" stroke="#000" stroke-width="4"/><circle cx="155" cy="855" r="40" fill="#ebebeb" stroke="#000" stroke-width="4"/><circle cx="255" cy="855" r="40" fill="#ca0000" stroke="#000" stroke-width="4"/><circle cx="355" cy="855" r="40" fill="#ca0000" stroke="#000" stroke-width="4"/><circle cx="455" cy="855" r="40" fill="#fbde03" stroke="#000" stroke-width="4"/><circle cx="555" cy="855" r="40" fill="#ebebeb" stroke="#000" stroke-width="4"/><circle cx="655" cy="855" r="40" fill="#ca0000" stroke="#000" stroke-width="4"/><circle cx="755" cy="855" r="40" fill="#31b13b" stroke="#000" stroke-width="4"/><circle cx="855" cy="855" r="40" fill="#fbde03" stroke="#000" stroke-width="4"/><circle cx="1455" cy="855" r="40" fill="#ca0000" stroke="#000" stroke-width="4"/><circle cx="1355" cy="855" r="40" fill="#fbde03" stroke="#000" stroke-width="4"/><circle cx="1255" cy="855" r="40" fill="#ebebeb" stroke="#000" stroke-width="4"/><circle cx="1155" cy="855" r="40" fill="#ca0000" stroke="#000" stroke-width="4"/><circle cx="1055" cy="855" r="40" fill="#ebebeb" stroke="#000" stroke-width="4"/><circle cx="955" cy="855" r="40" fill="#fbde03" stroke="#000" stroke-width="4"/><circle cx="56" cy="956" r="40" fill="#ca0000" stroke="#000" stroke-width="4"/><circle cx="156" cy="956" r="40" fill="#ebebeb" stroke="#000" stroke-width="4"/><circle cx="256" cy="956" r="40" fill="#fbde03" stroke="#000" stroke-width="4"/><circle cx="356" cy="956" r="40" fill="#31b13b" stroke="#000" stroke-width="4"/><circle cx="456" cy="956" r="40" fill="#31b13b" stroke="#000" stroke-width="4"/><circle cx="556" cy="956" r="40" fill="#fbde03" stroke="#000" stroke-width="4"/><circle cx="656" cy="956" r="40" fill="#ca0000" stroke="#000" stroke-width="4"/><circle cx="756" cy="956" r="40" fill="#ebebeb" stroke="#000" stroke-width="4"/><circle cx="856" cy="956" r="40" fill="#fbde03" stroke="#000" stroke-width="4"/><circle cx="1456" cy="956" r="40" fill="#ebebeb" stroke="#000" stroke-width="4"/><circle cx="1455" cy="1055" r="40" fill="#ebebeb" stroke="#000" stroke-width="4"/><circle cx="1356" cy="956" r="40" fill="#ca0000" stroke="#000" stroke-width="4"/><circle cx="1256" cy="956" r="40" fill="#ebebeb" stroke="#000" stroke-width="4"/><circle cx="1156" cy="956" r="40" fill="#fbde03" stroke="#000" stroke-width="4"/><circle cx="1056" cy="956" r="40" fill="#ca0000" stroke="#000" stroke-width="4"/><circle cx="956" cy="956" r="40" fill="#ca0000" stroke="#000" stroke-width="4"/><circle cx="55" cy="1455" r="40" fill="#ebebeb" stroke="#000" stroke-width="4"/><circle cx="155" cy="1455" r="40" fill="#ca0000" stroke="#000" stroke-width="4"/><circle cx="255" cy="1455" r="40" fill="#31b13b" stroke="#000" stroke-width="4"/><circle cx="355" cy="1455" r="40" fill="#31b13b" stroke="#000" stroke-width="4"/><circle cx="455" cy="1455" r="40" fill="#31b13b" stroke="#000" stroke-width="4"/><circle cx="555" cy="1455" r="40" fill="#ebebeb" stroke="#000" stroke-width="4"/><circle cx="655" cy="1455" r="40" fill="#31b13b" stroke="#000" stroke-width="4"/><circle cx="755" cy="1455" r="40" fill="#ebebeb" stroke="#000" stroke-width="4"/><circle cx="855" cy="1455" r="40" fill="#ca0000" stroke="#000" stroke-width="4"/><circle cx="1455" cy="1455" r="40" fill="#ebebeb" stroke="#000" stroke-width="4"/><circle cx="1355" cy="1455" r="40" fill="#ebebeb" stroke="#000" stroke-width="4"/><circle cx="1255" cy="1455" r="40" fill="#31b13b" stroke="#000" stroke-width="4"/><circle cx="1155" cy="1455" r="40" fill="#ebebeb" stroke="#000" stroke-width="4"/><circle cx="1055" cy="1455" r="40" fill="#fbde03" stroke="#000" stroke-width="4"/><circle cx="955" cy="1455" r="40" fill="#ca0000" stroke="#000" stroke-width="4"/><circle cx="55" cy="1355" r="40" fill="#ebebeb" stroke="#000" stroke-width="4"/><circle cx="155" cy="1355" r="40" fill="#31b13b" stroke="#000" stroke-width="4"/><circle cx="255" cy="1355" r="40" fill="#fbde03" stroke="#000" stroke-width="4"/><circle cx="355" cy="1355" r="40" fill="#ca0000" stroke="#000" stroke-width="4"/><circle cx="455" cy="1355" r="40" fill="#31b13b" stroke="#000" stroke-width="4"/><circle cx="555" cy="1355" r="40" fill="#ca0000" stroke="#000" stroke-width="4"/><circle cx="655" cy="1355" r="40" fill="#fbde03" stroke="#000" stroke-width="4"/><circle cx="755" cy="1355" r="40" fill="#ebebeb" stroke="#000" stroke-width="4"/><circle cx="855" cy="1355" r="40" fill="#fbde03" stroke="#000" stroke-width="4"/><circle cx="1455" cy="1355" r="40" fill="#fbde03" stroke="#000" stroke-width="4"/><circle cx="1355" cy="1355" r="40" fill="#ebebeb" stroke="#000" stroke-width="4"/><circle cx="1255" cy="1355" r="40" fill="#ebebeb" stroke="#000" stroke-width="4"/><circle cx="1155" cy="1355" r="40" fill="#ebebeb" stroke="#000" stroke-width="4"/><circle cx="1055" cy="1355" r="40" fill="#ebebeb" stroke="#000" stroke-width="4"/><circle cx="955" cy="1355" r="40" fill="#fbde03" stroke="#000" stroke-width="4"/><circle cx="55" cy="1255" r="40" fill="#ebebeb" stroke="#000" stroke-width="4"/><circle cx="155" cy="1255" r="40" fill="#ca0000" stroke="#000" stroke-width="4"/><circle cx="255" cy="1255" r="40" fill="#ca0000" stroke="#000" stroke-width="4"/><circle cx="355" cy="1255" r="40" fill="#31b13b" stroke="#000" stroke-width="4"/><circle cx="455" cy="1255" r="40" fill="#fbde03" stroke="#000" stroke-width="4"/><circle cx="555" cy="1255" r="40" fill="#ebebeb" stroke="#000" stroke-width="4"/><circle cx="655" cy="1255" r="40" fill="#fbde03" stroke="#000" stroke-width="4"/><circle cx="755" cy="1255" r="40" fill="#ebebeb" stroke="#000" stroke-width="4"/><circle cx="855" cy="1255" r="40" fill="#ca0000" stroke="#000" stroke-width="4"/><circle cx="1455" cy="1255" r="40" fill="#ebebeb" stroke="#000" stroke-width="4"/><circle cx="1355" cy="1255" r="40" fill="#ebebeb" stroke="#000" stroke-width="4"/><circle cx="1255" cy="1255" r="40" fill="#31b13b" stroke="#000" stroke-width="4"/><circle cx="1155" cy="1255" r="40" fill="#fbde03" stroke="#000" stroke-width="4"/><circle cx="1055" cy="1255" r="40" fill="#fbde03" stroke="#000" stroke-width="4"/><circle cx="955" cy="1255" r="40" fill="#fbde03" stroke="#000" stroke-width="4"/><circle cx="55" cy="1155" r="40" fill="#fbde03" stroke="#000" stroke-width="4"/><circle cx="155" cy="1155" r="40" fill="#fbde03" stroke="#000" stroke-width="4"/><circle cx="255" cy="1155" r="40" fill="#fbde03" stroke="#000" stroke-width="4"/><circle cx="355" cy="1155" r="40" fill="#ca0000" stroke="#000" stroke-width="4"/><circle cx="455" cy="1155" r="40" fill="#fbde03" stroke="#000" stroke-width="4"/><circle cx="555" cy="1155" r="40" fill="#ebebeb" stroke="#000" stroke-width="4"/><circle cx="655" cy="1155" r="40" fill="#ebebeb" stroke="#000" stroke-width="4"/><circle cx="755" cy="1155" r="40" fill="#fbde03" stroke="#000" stroke-width="4"/><circle cx="855" cy="1155" r="40" fill="#ebebeb" stroke="#000" stroke-width="4"/><circle cx="1455" cy="1155" r="40" fill="#ca0000" stroke="#000" stroke-width="4"/><circle cx="1355" cy="1155" r="40" fill="#fbde03" stroke="#000" stroke-width="4"/><circle cx="1255" cy="1155" r="40" fill="#ca0000" stroke="#000" stroke-width="4"/><circle cx="1155" cy="1155" r="40" fill="url(#_Linear1)" stroke="#000" stroke-width="4"/><circle cx="1055" cy="1155" r="40" fill="#ebebeb" stroke="#000" stroke-width="4"/><circle cx="955" cy="1155" r="40" fill="#ebebeb" stroke="#000" stroke-width="4"/><circle cx="55" cy="1055" r="40" fill="#ebebeb" stroke="#000" stroke-width="4"/><circle cx="155" cy="1055" r="40" fill="#31b13b" stroke="#000" stroke-width="4"/><circle cx="255" cy="1055" r="40" fill="#fbde03" stroke="#000" stroke-width="4"/><circle cx="355" cy="1055" r="40" fill="#ebebeb" stroke="#000" stroke-width="4"/><circle cx="455" cy="1055" r="40" fill="#ebebeb" stroke="#000" stroke-width="4"/><circle cx="555" cy="1055" r="40" fill="#fbde03" stroke="#000" stroke-width="4"/><circle cx="655" cy="1055" r="40" fill="#ebebeb" stroke="#000" stroke-width="4"/><circle cx="755" cy="1055" r="40" fill="#ebebeb" stroke="#000" stroke-width="4"/><circle cx="855" cy="1055" r="40" fill="#ebebeb" stroke="#000" stroke-width="4"/><circle cx="1355" cy="1055" r="40" fill="#ebebeb" stroke="#000" stroke-width="4"/><circle cx="1255" cy="1055" r="40" fill="#fbde03" stroke="#000" stroke-width="4"/><circle cx="1155" cy="1055" r="40" fill="#ebebeb" stroke="#000" stroke-width="4"/><circle cx="1055" cy="1055" r="40" fill="#31b13b" stroke="#000" stroke-width="4"/><circle cx="955" cy="1055" r="40" fill="#ebebeb" stroke="#000" stroke-width="4"/><defs><linearGradient id="_Linear1" x1="0" y1="0" x2="1" y2="0" gradientUnits="userSpaceOnUse" gradientTransform="matrix(0 0 0 0 1380 1150)"><stop offset="0" stop-color="#fbde03"/><stop offset="1" stop-color="#fcec96"/></linearGradient></defs></svg>