<svg width="270" height="270" xmlns="http://www.w3.org/2000/svg" fill-rule="evenodd" clip-rule="evenodd" stroke-linejoin="round" stroke-miterlimit="2"><path fill="none" d="M-25-25h320v320H-25z"/><path d="M88.857 120.268c-3.412 13.932-7.871 25.528-13.553 35.725-.603 1.081-1.019 1.169-2.061.501-6.36-4.076-7.948-4.136 2.78-33.569a4.954 4.954 0 012.339-2.679c2.813-1.485 5.089-2.749 6.54-3.603 5.602-3.296 5.499-2.68 3.955 3.625m133.799 26.364c-11.534-7.579-25.046-3.625-24.936-6.042.899-19.772 8.11-20.325 8.787-24.935 1.099-7.471-4.943-7.91-17.136-8.459-5.723-.258-5.273 4.393-9.667 5.272-9.089 1.819-20.652 3.076-33.395 4.395-12.743 1.318-13.622.439-15.818-9.667-2.197-10.107-1.099-25.157-5.054-29.441-3.955-4.284-13.197-5.414-12.852-2.306 1.957 17.608 2.286 13.173-26.307 26.652-1.625.766-2.436.022-1.798-1.657C89.835 86.33 94.55 73.423 95.337 66.33c.754-6.783-3.294-9.886-13.621-9.447-10.326.44-16.697 4.594-16.697 9.447 0 4.728 13.065-3.233.203 42.331a3.762 3.762 0 01-2.693 2.626c-21.314 5.358-26.731-5.764-26.731 15.902 0 10.051.825 13.677 2.966 12.852 2.814-1.082 2.959-4.038 16.028-8.919 1.829-.683 2.695.23 1.923 2.023-5.663 13.15-9.877 18.019-9.272 21.946.689 4.489 8.706 7.081 18.077 13.1 1.052.677 1.127 1.116.364 2.107-5.701 7.406-12.29 14.177-19.87 20.824-5.346 4.689.33 4.985 8.239 1.648 8.624-3.638 15.721-8.272 21.798-14.48.822-.837 1.183-.862 2.035-.055 8.451 8.001 11.132 13.013 13.957 16.403 3.433 4.12 11.205-.659 5.931-10.985-3.58-7.012-7.762-12.413-11.794-16.59-.68-.705-.706-.915-.198-1.753 4.265-7.033 8.016-15.443 11.553-25.599 9.496-27.26 10.415-30.674 14.939-35.591 4.12-4.477 5.301-5.246 5.713-.66 2.019 22.474 5.613 29.071 8.899 30.485 4.338 1.867 8.458-1.484 27.132-5.218 18.675-3.735 25.047-2.856 25.047-.439 0 9.227-3.076 11.863-7.47 12.302-46.161 4.616-75.572 16.394-73.71 23.838 1.317 5.274 4.833 9.887 10.545 9.887 2.235 0 7.301-2.674 14.832-5.968 3.276-1.433 4.659.027 3.293 3.331-10.375 25.118-30.978 40.865-27.682 43.831 3.296 2.966 18.126 1.649 34.932-17.137 16.808-18.784 24.388-23.068 11.865-31.307a266.843 266.843 0 01-2.58-1.722c-2.453-1.653-2.132-3.67.714-4.472 8.986-2.534 19.446-4.47 31.196-4.681 22.845-.411 42.732 6.151 49.323 9.447 6.592 3.295 9.668-11.425-1.867-19.005m-20.542 40.535c7.645 12.092 6.545 21.422-4.504 21.422-6.262 0-9.792-7.244-15.489-22.3-6.152-16.258-11.645-20.212-9.451-21.646 3.611-2.36 19.997 7.585 29.444 22.524M157.518 69.052c.947-1.445 3.714-.677 10.361-1.222 8.324-.682 11.417-2.097 12.063-1.222.575.78.701 2.444-.2 7.483-.583 3.264-.967 5.921-1.802 6.771-.731.744-4.434 1.478-8.56 1.781-4.238.312-7.388 2.955-8.258 2.291-.801-.61-1.516-4.36-2.103-7.941-.75-4.581-2.303-6.719-1.501-7.941m-6.705 34.408c4.284 2.637 8.568-2.306 14.171-6.92 5.602-4.614 24.058 0 27.353-3.626 3.295-3.625 5.273-12.852 6.92-21.42 1.649-8.569 8.24-5.932 8.24-12.853 0-4.297-9.228-10.216-17.467-9.887-8.238.33-8.238 5.932-27.353 8.24-19.114 2.306-24.716-6.372-27.133-.22-2.783 7.081 3.405 5.492 7.689 21.64 4.284 16.149 3.296 22.411 7.58 25.046m-14.518 147.537C72.055 251.532 19.039 199.158 19 134.988 18.961 70.818 72.402 18.909 135.993 19c63.59.093 114.602 51.422 115.005 114.685.401 63.262-50.462 116.775-114.703 117.312m.997-243.99C67.187 6.289 7.273 63.32 7.001 134.508c-.273 71.188 59.023 128.76 129.308 128.491 70.285-.268 126.509-57.724 126.691-127.831.18-70.105-55.604-127.443-125.708-128.161" fill-rule="nonzero"/></svg>