<svg width="18" height="18" xmlns="http://www.w3.org/2000/svg" fill-rule="evenodd" clip-rule="evenodd" stroke-linejoin="round" stroke-miterlimit="2"><path d="M9.116.001l.117.002.115.004.115.004.114.007.115.008.114.01.114.01.113.013.113.013.112.015.112.017.112.018.11.018.111.022.11.021.11.023.108.025.109.026.108.027.108.028.107.03.106.031.107.032.105.034.105.035.104.035.103.037.104.038.101.041.102.04.102.043.1.043.1.045.1.045.099.048.097.047.097.049.098.05.096.051.095.054.095.053.094.055.092.055.093.058.092.058.09.059.09.06.09.062.089.062.087.063.087.063.087.066.085.067.085.066.083.07.083.068.082.07.082.072.08.072.08.073.078.074.078.076.077.075.076.077.075.078.074.078.073.08.072.08.071.081.07.083.07.082.068.084.068.085.066.086.065.085.065.088.063.088.062.088.061.09.06.09.06.09.058.093.056.091.057.094.054.094.054.094.052.096.051.096.05.096.05.097.048.099.046.098.047.1.044.1.043.1.043.101.04.102.04.103.039.103.037.104.036.104.035.105.033.105.033.106.03.107.03.106.029.107.027.109.025.108.025.11.024.11.021.11.02.11.02.111.018.11.016.113.014.113.014.112.012.114.012.113.009.114.007.114.007.116.006.115.003.115.003.115v.233l-.003.116-.003.116-.006.115-.007.115-.007.114-.01.114-.01.114-.013.113-.014.112-.014.113-.016.112-.018.11-.02.113-.02.11-.021.11-.024.11-.025.108-.025.109-.027.108-.03.108-.029.107-.03.107-.033.105-.033.106-.035.104-.036.105-.037.103-.039.103-.04.103-.04.101-.043.102-.043.1-.044.1-.047.1-.046.098-.048.098-.05.098-.05.097-.05.096-.053.095-.054.095-.054.094-.057.092-.056.093-.058.092-.06.09-.06.09-.06.09-.063.088-.063.088-.065.087-.065.086-.066.086-.068.085-.068.084-.07.082-.07.083-.071.081-.072.08-.073.08-.074.079-.075.077-.076.076-.077.077-.078.075-.079.073-.079.074-.08.072-.082.071-.082.07-.083.07-.083.068-.085.067-.085.067-.087.065-.087.065-.087.063-.09.062-.089.061-.09.06-.09.06-.092.058-.093.056-.092.056-.094.055-.095.053-.095.053-.096.051-.098.051-.097.049-.097.048-.1.047-.099.046-.1.044-.1.043-.102.042-.102.042-.101.04-.104.038-.103.037-.104.036-.105.034-.105.034-.107.033-.106.03-.107.03-.108.028-.108.027-.109.026-.108.025-.11.023-.11.022-.11.02-.111.02-.112.017-.112.017-.112.014-.113.014-.113.012-.114.012-.114.009-.115.008-.114.007-.115.004-.115.005-.117.002h-.232l-.116-.002-.115-.005-.116-.004-.115-.007-.114-.008-.114-.01-.113-.01-.113-.013-.114-.014-.111-.014-.112-.017-.112-.017-.111-.02-.11-.02-.11-.022-.11-.023-.11-.025-.108-.026-.108-.027-.107-.028-.108-.03-.106-.03-.106-.033-.105-.034-.105-.034-.104-.036-.104-.037-.103-.039-.103-.04-.102-.041-.1-.042-.101-.043-.1-.044-.1-.046-.099-.047-.098-.048-.097-.049-.096-.05-.096-.052-.095-.053-.095-.053-.094-.055-.093-.056-.092-.056-.092-.059-.092-.059-.09-.06-.09-.06-.088-.063-.088-.063-.087-.065-.086-.065-.086-.067-.083-.067-.084-.069-.084-.069-.081-.07-.081-.07-.08-.073-.08-.074-.079-.073-.078-.075-.077-.077-.076-.076-.074-.077-.075-.08-.073-.079-.071-.08-.072-.081-.07-.083-.07-.082-.068-.084-.068-.085-.066-.086-.065-.086-.064-.087-.063-.088-.063-.088-.06-.09-.062-.09-.058-.09-.058-.092-.058-.093-.055-.092-.054-.094-.055-.095-.052-.095-.052-.096-.05-.097-.05-.098-.047-.098-.047-.098-.045-.1-.044-.1-.045-.1-.041-.102-.041-.101-.04-.103-.038-.103-.037-.103-.037-.105-.035-.104-.034-.106-.031-.105-.032-.107-.03-.107-.027-.108-.028-.108-.026-.109-.023-.108-.024-.11-.022-.11-.02-.11-.02-.112-.017-.11-.016-.113-.016-.113-.013-.112-.013-.113-.01-.114-.01-.114-.008-.114-.006-.115-.005-.115-.004-.116-.002-.116L0 9v-.117l.003-.115.004-.115.005-.115.006-.116.008-.114.01-.114.01-.113.013-.114.013-.112.016-.113.016-.112.018-.111.02-.11.02-.112.02-.11.025-.109.023-.11.026-.108.028-.109.028-.107.03-.106.03-.107.032-.106.034-.105.035-.105.037-.104.037-.104.038-.103.04-.103.04-.102.042-.1.045-.1.044-.101.045-.1.047-.098.048-.1.05-.097.05-.096.051-.096.052-.096.055-.094.054-.094.055-.094.058-.091.058-.093.058-.09.061-.09.061-.09.063-.088.063-.088.064-.088.065-.085.066-.086.068-.085.068-.084.07-.082.07-.083.072-.081.07-.08.074-.08.075-.078.074-.078.076-.077.077-.075.078-.076.078-.074.08-.073.08-.072.082-.072.081-.07.084-.069.084-.069.083-.066.086-.067.086-.066.087-.063.088-.063.089-.062.089-.063.09-.06.092-.058.092-.058.092-.058.093-.055.094-.055.095-.053.095-.054.096-.05.096-.051L5 .936 5.1.89l.098-.05.1-.045.1-.045.1-.043L5.6.666l.102-.04.103-.042.103-.038.104-.037.104-.035.105-.035.105-.034.106-.032.106-.032.108-.029.107-.028.108-.027.108-.026.11-.025.11-.023.11-.021.11-.022.11-.018.113-.018.112-.017.111-.015.114-.013.113-.013.113-.01.114-.01.114-.008.115-.007.116-.004.115-.004.116-.002L9 0l.116.001zm-.22 1l-.103.002-.103.003-.102.005-.103.005-.101.007-.101.01-.102.008-.1.012-.1.012-.1.012-.1.015-.098.016-.099.017-.098.018-.098.02-.098.02-.097.022-.096.023-.096.023-.095.026-.095.026-.095.028-.094.029-.094.03-.092.03-.093.033-.092.032-.091.034-.092.035-.09.038-.09.037-.09.038-.088.04-.088.04-.088.041-.087.043-.086.045-.086.044-.086.046-.085.046-.084.048-.083.048-.083.05-.082.051-.082.052-.08.052-.08.053-.08.054-.079.056-.078.056-.078.058-.076.058-.076.058-.075.06-.074.061-.075.063-.072.062-.073.063-.071.064-.071.065-.07.067-.07.066-.067.067-.068.069-.067.069-.065.07-.066.07-.064.072-.064.073-.062.072-.062.074-.06.074-.06.076-.06.076-.057.077-.058.077-.055.079-.056.078-.054.08-.054.08-.052.08-.052.082-.051.082-.05.083-.048.084-.048.083-.046.085-.047.086-.044.086-.044.086-.042.087-.041.088-.041.088-.04.088-.038.09-.037.09-.037.09-.036.091-.034.092-.033.092-.031.093-.032.093-.03.093-.028.094-.028.095-.026.095-.025.095-.025.096-.022.096-.022.098-.02.097-.02.097-.018.098-.017.1-.016.098-.014.1-.013.1-.013.1-.011.1-.01.101-.008.102-.007.102-.006.102-.004.102-.003.103L1 8.897v.207l.003.103.003.103.004.103.006.101.007.102.009.102.009.1.011.101.013.1.013.1.014.1.016.1.017.097.019.099.019.097.02.097.022.097.022.097.025.096.025.096.026.095.028.094.029.093.03.094.03.094.032.092.033.092.034.092.036.09.037.09.037.091.038.09.04.089.04.088.042.087.042.087.044.087.044.086.047.085.046.085.048.083.048.084.05.082.05.083.053.081.052.082.054.08.054.08.056.078.055.078.058.077.057.077.06.076.06.076.06.074.062.074.062.073.064.072.064.072.066.07.065.07.067.069.068.069.068.068.069.066.07.066.071.064.071.065.073.063.072.063.075.061.074.061.075.06.076.06.076.057.078.058.078.056.078.055.08.055.08.053.081.053.082.05.082.052.083.05.083.048.084.048.085.047.086.045.086.045.086.043.087.043.088.042.088.04.088.04.09.039.09.037.09.036.092.035.091.034.092.034.093.032.092.03.094.03.094.03.095.026.095.026.095.026.096.024.096.023.097.022.098.02.098.02.098.018.099.017.098.016.1.014.1.014.1.011.1.012.102.01.1.008.102.007.103.005.102.005.103.003.104.002L9 17h.104l.103-.003.102-.003.103-.005.102-.005.102-.007.102-.008.1-.01.1-.012.101-.011.1-.014.1-.014.099-.016.098-.017.099-.018.097-.02.097-.02.097-.022.096-.023.096-.024.096-.026.095-.026.094-.027.095-.03.093-.029.094-.03.092-.032.092-.034.092-.034.091-.035.09-.036.09-.037.09-.039.089-.04.088-.04.087-.042.087-.043.087-.043.086-.045.085-.045.084-.047.085-.048.083-.049.083-.05.082-.05.081-.051.082-.053.08-.053.079-.055.08-.055.077-.056.077-.058.077-.058.077-.059.074-.06.075-.06.073-.062.074-.063.072-.063.071-.065.072-.064.069-.066.07-.066.068-.068.067-.07.067-.068.066-.07.065-.07.064-.072.064-.072.062-.073.061-.074.061-.074.06-.076.059-.076.059-.077.056-.077.057-.078.055-.079.054-.079.054-.08.053-.082.052-.081.05-.083.05-.082.048-.084.047-.083.048-.085.045-.085.045-.086.043-.087.043-.087.042-.087.04-.088.04-.09.039-.089.037-.09.036-.09.035-.091.034-.092.034-.092.032-.092.03-.094.03-.094.029-.093.027-.094.027-.095.025-.096.024-.096.024-.097.021-.097.02-.097.02-.097.018-.099.017-.098.016-.1.014-.099.014-.1.012-.1.01-.1.01-.101.008-.102.007-.102.007-.101.005-.103.003-.103.001-.103L17 9v-.103l-.002-.104-.003-.103-.005-.102-.007-.102-.007-.102-.007-.102-.01-.1-.01-.101-.013-.1-.014-.1-.014-.1-.016-.098-.017-.1-.018-.097-.02-.098-.02-.097-.021-.098-.024-.096-.024-.096-.025-.095-.027-.095-.027-.095-.028-.094-.03-.093-.031-.093-.032-.093-.034-.092-.034-.092-.035-.09-.036-.09-.037-.091-.039-.09-.04-.088-.04-.088-.042-.088-.043-.087-.043-.086-.045-.086-.045-.086-.048-.085-.047-.083-.049-.084-.05-.083-.05-.082-.051-.082-.053-.08-.054-.08-.054-.08-.055-.078-.057-.08-.056-.076-.059-.077-.059-.076-.06-.076-.06-.074-.062-.074-.062-.072-.064-.073-.064-.072-.065-.07-.066-.07-.067-.069-.067-.069-.068-.067-.07-.066-.07-.067-.07-.065-.072-.064-.072-.063-.074-.062-.073-.063-.075-.06-.074-.06-.077-.06-.077-.057-.077-.058-.078-.056-.08-.056-.078-.054-.08-.053-.082-.052-.081-.052-.082-.05-.083-.05-.083-.05-.085-.047-.084-.046-.085-.046-.086-.044-.087-.045-.087-.043-.087-.04-.088-.04-.09-.04-.09-.039-.088-.037-.09-.038-.092-.035-.092-.034-.092-.032-.092-.033-.094-.03-.093-.03-.095-.03-.094-.027-.095-.026-.096-.026-.096-.023-.096-.023-.097-.021-.097-.022-.097-.02-.099-.017-.098-.017-.1-.016-.1-.015-.099-.012-.1-.012-.1-.012-.101-.009-.102-.009-.102-.007-.102-.005-.103-.005-.102-.003L9.104 1h-.207z"/><path d="M8.377 8.616h1.019c.289.041.303.138.055.317v.812h3.924v1.019H9.616c1.542 1.074 3.277 1.845 5.219 2.313l-.482 1.13c-1.584-.386-3.222-1.254-4.902-2.576v3.222H8.377v-3.222c-1.184 1.253-2.74 2.19-4.682 2.795l-.537-1.019c1.86-.468 3.484-1.349 4.847-2.643H4.563v-1.02h3.814V8.617zm-4.09 1.239H3.213V7.432H14.67V9.8h-1.074V8.285H4.287v1.57zm7.794-6.03c0 1.156.936 1.968 2.809 2.478l-.44.812c-1.364-.372-2.232-.95-2.63-1.776-.29.922-1.075 1.556-2.37 1.872l-.316-.798c1.363-.29 2.038-1.02 2.038-2.203V2.695h.867c.276.041.303.152.042.33v.8zm-5.797 2.05c-.4.675-1.17 1.13-2.313 1.336l-.44-.743c1.541-.33 2.312-1.102 2.312-2.313V2.64h.868c.289.041.303.151.055.33v1.24c0 .316-.041.633-.11.964.853.289 1.583.62 2.148 1.018l-.372.813c-.537-.358-1.253-.744-2.148-1.13zm6.554-1.349a5.88 5.88 0 00.537-1.404l.923.33c.275.11.261.234-.055.372a7.467 7.467 0 01-.593 1.13l-.812-.428zm-2.313-.963c0 .495-.069 1.005-.207 1.5l-.922-.165c.151-.496.22-.977.22-1.446l.909.11zm-5.48.11c0 .537-.11 1.074-.33 1.61l-.91-.22c.22-.495.317-1.005.317-1.5l.923.11zm3.594.371c-.07.317-.22.703-.482 1.13l-.854-.33c.248-.359.427-.84.537-1.447l.854.276c.289.096.275.22-.055.371z" fill-rule="nonzero"/></svg>