<svg width="92" height="92" xmlns="http://www.w3.org/2000/svg" fill-rule="evenodd" clip-rule="evenodd" stroke-linejoin="round" stroke-miterlimit="2"><path d="M36 1.4C23.4 4.1 10.1 14.7 4.6 26.3-6 48.7 4 76.5 26.3 87.1c27.6 13 59.9-4.1 64.9-34.3 3.1-18.7-6.8-38.1-23.9-47.1C57 .3 47.1-1.1 36 1.4zm27.2 9.4c7.9 3.8 14.9 11 18.6 19 2.4 5 3.337 6.582 3.337 15.882 0 9.9-.837 11.318-3.937 17.518-3.8 7.8-11 14.9-19.2 18.7-8.1 3.8-23.9 3.8-32 0-8.2-3.8-15.4-10.9-19.2-18.7-3.1-6.2-3.746-7.682-3.746-17.582 0-9.3.746-10.818 3.146-15.818 4.7-10 13.7-18 24.1-21.4 2.6-.9 7.664-1.746 13.364-1.546C55.564 7.054 57.6 8 63.2 10.8z"/><path d="M31 19.9c0 1 1.5 4.2 3.4 7l3.5 5.1-2.4.6c-1.3.3-5.3.4-8.9.2-5.6-.2-6.6-.1-6.6 1.4 0 .9 1.5 2.8 3.2 4.3 3.1 2.7 3.6 2.7 11.4 2.1l8.2-.6 4.6 5.1c2.6 2.9 4.5 5.3 4.3 5.5-.2.2-1.9-.1-3.8-.6C36.1 46.6 26 51.6 26 61c0 7.8 5.9 12.2 19 14.1 7.3 1 9 1 12.2-.4 5.2-2.2 6.2-6.1 2.3-9.5-2.5-2.1-3.4-2.3-6.9-1.6-7.1 1.4-14.6.8-16.8-1.4-2.6-2.6-1.6-5.6 2.2-7.2 3.6-1.5 8.4-.8 15.6 2.1l5.4 2.3 3-2.9c3.6-3.4 3.7-4.8.7-6.8-2.1-1.4-10.3-13.5-9.6-14.1.2-.2 2.3-1.3 4.7-2.5 4.1-2.1 4.8-3.3 3.6-6.5-.8-2-5.3-2.1-10.1-.1-2 .8-3.7 1.4-3.8 1.3-.1-.2-1.4-2.4-2.9-5.1-2.8-4.7-2.8-4.7-8.2-4.7-4.6 0-5.4.3-5.4 1.9z"/></svg>