<svg width="270" height="270" xmlns="http://www.w3.org/2000/svg" fill-rule="evenodd" clip-rule="evenodd" stroke-linejoin="round" stroke-miterlimit="2"><path fill="none" d="M-25-25h320v320H-25z"/><path d="M133.667 247C71.572 247 23 196.758 23 135.872 23 74.985 72.905 23 135 23s112 53.292 112 114.179C247 198.065 195.762 247 133.667 247m.235-240C63.258 7 7 64.858 7 134.782 7 204.707 65.893 263 136.537 263 207.182 263 263 206.445 263 136.521S204.547 7 133.902 7m84.937 175.149c1.182 4.151-4.019 13.084-13.048 12.914-2.766-.051-5.314-2.039-7.63-5.182-.512-.694-.548-.724-1.407-.656-22.906 1.789-40.662 5.046-59.46 9.067-14.323 3.065-17.766 3.011-19.571-6.457-1.427-7.481-.348-9.227 9.785-9.686 3.368-.152 6.777-.344 10.294-.56.994-.061 1.074-.112 1.394-1.056 1.381-4.074 3.763-9.861 7.883-17.755 9.915-18.998 10.219-22.6 16.309-22.6 6.091 0 13.048 2.938 13.048 6.457 0 3.184-7.372 9.489-19.021 31.326-.902 1.693-.447 2.427 1.469 2.317 9.088-.518 19.285-.985 31.293-1.212 1.695-.032 2.053-.532 1.451-2.116-2.18-5.732-3.993-11.981-5.407-17.4-2.71-10.384 1.773-13.599 9.785-3.229 8.013 10.37 21.651 21.678 22.833 25.828m6.523-38.743c-15.631 0-28.501-4.674-42.403-29.056-13.902-24.384-14.146-32.347-19.571-35.515-5.426-3.168-17.255-.169-9.785-6.457 7.166-6.032 16.915-15.32 22.833-3.229 5.917 12.092 21.434 57.602 48.926 64.572 12.396 3.142 20.72 9.685 0 9.685M84.799 115.949v.096l-.093-.074.093-.022m75.327-4.828c1.968-8.794-5.638-11.072-16.309-9.685-10.671 1.385-9.754 7.3-3.261 9.685 3.138 1.152 2.591 7.997-2.92 19.001-.568 1.134-.795 1.217-1.976.755-7.755-3.04-19.741-8.615-30.119-17.182-1.564-1.292-1.336-2.268.635-2.75 21.844-5.336 27.346-8.156 24.594-12.739-1.448-2.409-12.32-1.601-26.85.403-1.482.205-1.792-.064-1.79-1.56.034-33.776-2.917-34.603-10.502-36.638-11.446-3.071-19.57-6.403-19.57 0 0 3.455 2.057 6.396 6.523 9.686 4.358 3.211 5.679 8.728 6.072 30.059.024 1.224-.108 1.392-1.317 1.585-13.857 2.221-28.514 4.66-40.635 6.152-13.707 1.684-9.154 5.341-3.262 12.914 4.537 5.83 16.274 3.025 35.749-1.953 2.091-.536 2.819.404 1.772 2.292-12.256 22.1-26.02 33.273-40.862 47.23-5.702 5.361 20.558 4.942 45.871-25.599 1.472-1.776 2.8-1.268 2.772 1.038-.481 41.048-3.199 41.69-6.447 40.805-31.163-8.482-26.342-3.679-6.236 11.392 32.15 24.099 27.371 7.223 29.356-61.344l.054-1.887c.06-2.128 1.122-2.574 2.653-1.094 5.735 5.54 13.044 11.439 21.055 15.136 1.389.642 1.499 1.093.598 2.331a223.538 223.538 0 01-8.051 10.396c-23.646 28.802 30.608 4.295 42.403-48.429" fill-rule="nonzero"/></svg>