<svg width="270" height="270" xmlns="http://www.w3.org/2000/svg" fill-rule="evenodd" clip-rule="evenodd" stroke-linejoin="round" stroke-miterlimit="2"><path fill="none" d="M-25-25h320v320H-25z"/><path d="M207.533 64.467v13.067a2 2 0 01-2 2h-64.267a2 2 0 01-2-2V64.467a2 2 0 012-2h64.267a2 2 0 012 2m-76.8 0v13.067a2 2 0 01-2 2H64.467a2 2 0 01-2-2V64.467a2 2 0 012-2h64.266a2 2 0 012 2m59.734 48.2c0 .552-.449 1-1 1h-32.134a1 1 0 01-1-1v-6.533a1 1 0 011-1h32.134a1 1 0 011 1v6.533zm15.066-24.6h-64.267a2 2 0 00-2 2v38.667a2 2 0 002 2h64.267a2 2 0 002-2V90.067a2 2 0 00-2-2m-74.8 27.6v89.866a2 2 0 01-2 2h-13.066a2 2 0 01-2-2v-89.866a2 2 0 012-2h13.066a2 2 0 012 2m0-25.6v13.067a2 2 0 01-2 2h-22.599a1 1 0 00-1 1v99.399a2 2 0 01-2 2H90.066a2 2 0 01-2-2v-99.399a1 1 0 00-1-1H64.467a2 2 0 01-2-2V90.067a2 2 0 012-2h64.266a2 2 0 012 2m-51.2 25.6v89.866a2 2 0 01-2 2H64.467a2 2 0 01-2-2v-89.866a2 2 0 012-2h13.066a2 2 0 012 2m110.934 48.2c0 .552-.449 1-1 1h-6.534a1 1 0 01-1-1v-6.533a1 1 0 011-1h6.534a1 1 0 011 1v6.533zm0 25.6c0 .552-.449 1-1 1h-6.534a1 1 0 01-1-1v-6.533a1 1 0 011-1h6.534a1 1 0 011 1v6.533zm-25.6-25.6a1 1 0 01-1 1h-6.534a1 1 0 01-1-1v-6.533a1 1 0 011-1h6.534a1 1 0 011 1v6.533zm0 25.6a1 1 0 01-1 1h-6.534a1 1 0 01-1-1v-6.533a1 1 0 011-1h6.534a1 1 0 011 1v6.533zm40.666-50.2h-64.267a2 2 0 00-2 2v64.266a2 2 0 002 2h64.267a2 2 0 002-2v-64.266a2 2 0 00-2-2M135 245.934c-61.267 0-110.934-49.667-110.934-110.934C24.066 73.734 73.733 24.067 135 24.067c61.266 0 110.933 49.667 110.933 110.933 0 61.267-49.667 110.934-110.933 110.934M135 7C64.307 7 7 64.308 7 135c0 70.693 57.307 128 128 128 70.692 0 128-57.307 128-128C263 64.308 205.692 7 135 7" fill-rule="nonzero"/></svg>