<svg width="370" height="370" xmlns="http://www.w3.org/2000/svg" fill-rule="evenodd" clip-rule="evenodd" stroke-linecap="round" stroke-linejoin="round" stroke-miterlimit="1.5"><path d="M182.981 102.925c-.838-.444 3.707-4.081 5.396-4.061 25.809.303 58.052-2.991 84.015-2.048a2.368 2.368 0 012.2 2.942c-1.593 6.172-7.049 9.9-11.611 12.167l-60.1 6.897a4.19 4.19 0 00-1.677.569l-8.113 4.868a1.658 1.658 0 01-2.025-.249l-5.234-5.234a7.021 7.021 0 01-2.038-4.462l-.813-11.389z"/><path d="M215.514 72.236a2.738 2.738 0 00-.584 4.028l5.592 6.71a9.98 9.98 0 012.305 6.79l-1.778 44.464a1.957 1.957 0 01-1.757 1.869l-41.885 4.274a6.49 6.49 0 00-5.815 5.995l-.482 6.752a7.03 7.03 0 00.63 3.451l4.469 9.684a1.345 1.345 0 002.129.428l8.733-8.005a7.152 7.152 0 014.499-1.872l57.375-2.69a5.173 5.173 0 015.197 3.681l3.924 13.08a2.48 2.48 0 01-2.264 3.193 1100.75 1100.75 0 00-79.448 6.571 3.026 3.026 0 00-2.651 2.703c-.729 7.419-.373 13.895.83 19.635a1.562 1.562 0 002.221 1.059c3.39-1.693 10.763-5.379 14.282-7.138a11.3 11.3 0 014.129-1.157c20.044-1.642 39.764-2.206 59.225-1.903a4.758 4.758 0 014.677 4.668l.637 33.845a18.208 18.208 0 01-3.363 10.893c-4.56 6.458-9.327 10.937-15.36 14.681-.493.306-.997.593-1.511.86-7.15 3.619-15.876 5.08-26.339 4.153a6.491 6.491 0 00-.315-.02c-9.582-.414-19.036-2.633-28.422-5.8a1.68 1.68 0 00-2.109 2.193c.712 1.856 1.596 4.155 2.321 6.04a7.794 7.794 0 005.079 4.68c8.484 2.449 18.374 4.773 31.007 6.847.197.032.396.057.595.075 10.53.937 20.255.567 29.087-1.254a6.57 6.57 0 002.554-1.151c2.324-1.72 7.812-5.794 12.603-9.35a23.524 23.524 0 009.427-17.003c1.153-15.308 1.487-31.657.329-49.87a4.566 4.566 0 014.103-4.839c5.889-.591 15.591-1.561 15.591-1.561 7.247-3.043 11.677-7.64 13.924-13.441a2.742 2.742 0 00-2.417-3.735c-7.584-.366-15.393-.342-23.349-.075a10.106 10.106 0 01-9.179-5.191l-.002.001a10.845 10.845 0 01-1.124-7.54l.973-4.539a7.318 7.318 0 016.77-5.775l13.404-.705c3.305-1.506 6.418-4.158 9-10v-.002a5.556 5.556 0 00-7.564-4.372l-1.887.754a8.256 8.256 0 01-3.217.59l-50.349-.916a3.095 3.095 0 01-3.039-3.037l-.818-43.357a22.719 22.719 0 013.365-12.333l2.737-4.447a2.942 2.942 0 00-1.326-4.236l-5.803-2.538a14.176 14.176 0 00-13.546 1.192l-6.02 4.013z"/><path d="M186.313 220.434a2.937 2.937 0 00-2.332 2.874v14.162a2.102 2.102 0 002.426 2.078l40.262-6.263a7.79 7.79 0 004.043-1.934l7.643-6.948a2.473 2.473 0 00.349-3.266l-1.999-2.799a5.547 5.547 0 00-4.688-2.32l-28.205.881a9.39 9.39 0 00-1.645.197l-15.854 3.338zM123.508 85.78a3.76 3.76 0 00-1.504 3.058c.27 18.994 1.612 37.598 3.724 55.923a2.073 2.073 0 01-1.93 2.308c-7.194.438-14.388.517-21.582.027a3.569 3.569 0 01-3.059-2.234c-.701-1.749-1.698-4.242-2.387-5.965a7.781 7.781 0 01-.452-4.169c1.57-8.686 5.238-18.166 9.435-26.53a2.617 2.617 0 00-.361-2.9l-4.902-5.638a5.018 5.018 0 00-3.808-1.726l-6.881.027a5.306 5.306 0 00-5.275 5.634l.138 2.212a37.694 37.694 0 01-.722 10.019c-3.003 14.569-4.595 28.819-5.785 42.977a5.183 5.183 0 001.184 3.753l2.216 2.66a5.089 5.089 0 003.664 1.826c11.264.52 22.691.168 34.38-1.575a3.135 3.135 0 013.6 2.895c.457 7.05 1.474 22.813 1.724 26.689a1.2 1.2 0 01-.761 1.195c-8.684 3.389-17.368 5.975-26.052 7.363a7.549 7.549 0 01-4.057-.492c-2.3-.953-6.108-2.54-8.325-3.463a1.623 1.623 0 00-2.211 1.135c-3.056 12.908-2.616 21.298-1.163 28.382a2.027 2.027 0 003.025 1.309c3.245-1.942 8.901-5.335 11.378-6.822a7.677 7.677 0 012.611-.975c6.935-1.235 13.871-2.914 20.806-5.16a1.378 1.378 0 011.808 1.311c-.011 16.509-.912 31.723-2.685 45.669a17.427 17.427 0 01-1.262 4.62c-.598 1.399-1.335 3.121-1.745 4.076-.2.467-.204.996-.011 1.466 4.003 9.699 8.752 15.826 14.394 17.678a5.07 5.07 0 005.883-2.129c1.174-1.691 2.505-3.82 3.104-4.778a2.46 2.46 0 00.367-1.112c1.765-22.081 2.308-45.168 1.092-69.703a2.744 2.744 0 012.558-2.876l11.697-.78a1.74 1.74 0 001.054-.448l10.082-9.166a1.87 1.87 0 00.586-1.067c1.202-7.055-.126-11.485-3.411-13.891a1.487 1.487 0 00-1.42-.172c-1.998.789-7.554 3.011-8.96 3.573a2.843 2.843 0 01-.68.18c-4.02.546-8.039.812-12.059.917a1.549 1.549 0 01-1.587-1.547v-21.672a3.088 3.088 0 012.728-3.068l13.326-1.568a2.216 2.216 0 001.517-.873l4.892-6.522a1.71 1.71 0 00.254-1.565l-1.982-5.946a2.755 2.755 0 00-3.032-1.852l-9.287 1.429c-.844.13-1.675-.3-2.057-1.063l-3.2-6.402a10.456 10.456 0 01-1.102-4.961c.357-12.09 1.749-24.114 4.622-36.046a8.222 8.222 0 011.019-2.423l3.259-5.219a2.08 2.08 0 00-.564-2.802l-13.56-9.572a3.084 3.084 0 00-3.628.052l-8.678 6.509z"/><ellipse cx="797.422" cy="499.552" rx="169.17" ry="160.762" fill="none" stroke="#000" stroke-width="20.92" transform="matrix(1.01673 0 0 1.04439 -625.778 -335.904)"/></svg>