<svg width="270" height="270" xmlns="http://www.w3.org/2000/svg" fill-rule="evenodd" clip-rule="evenodd" stroke-linejoin="round" stroke-miterlimit="2"><path fill="none" d="M-25-25h320v320H-25z"/><path d="M102.555 99.218c0 5.128.849 5.156 1.432 5.156 2.26 0 14.05-4.516 14.05-9.229 0-1.624-2.603-2.188-4.15-2.154-4.993.111-11.332-.935-11.332 6.227m57.989-6.457l-7.041-.002c-.632 0-5.366-.181-5.366 2.052 0 5.301 7.873 5.308 13.296 8.321 4.831 2.684 5.548-10.371-.889-10.371m-40.556 48.17c0-9.101 1.419-14.634-2.545-14.634-4.838 0-20.203 21.359-6.138 21.359 7.804 0 8.683-3.606 8.683-6.725m27.319-14.311c-4.029 0-3.546 4.801-3.546 8.012 0 8.054 1.664 11.921 7.978 11.921 11.956 0 5.611-19.933-4.432-19.933m13.959 46.209c0 3.369 8.004 9.535 27.704 10.499 14.078.69 18.435 2.576 18.435 13.186 0 8.106-2.437 10.946-21.213 10.946-42.867 0-47.503-21.198-53.209-21.198-3.111 0-16.99 22.116-47.094 22.116-17.356 0-20.158-3.076-20.158-14.94 0-8.129.698-8.971 13.896-8.971 21.665 0 27.616-7.935 27.616-9.995 0-1.837-5.316-1.906-29.483-1.906-24.827 0-28.641-1.757-28.641-7.481 0-15.368-1.019-18.104 7.562-18.104 2.928 0 6.511.522 10.489.522 14.498 0 11.578-3.169 18.169-18.658 5.668-13.319 13.859-18.403 3.491-18.403-18.52 0-3.262-17.696-14.254-17.696-5.146 0-13.129 1.43-13.129-8.061 0-13.492.56-14.852 6.434-15.082 21.612-.846.271-14.899 24.613-14.899 12.356 0 10.882 5.543 10.882 9.798 0 4.518 2.913 5.369 19.57 5.369 46.033 0 44.769.689 44.769-4.401 0-3.755-1.711-8.912 2.435-10.299 6.352-2.127 12.607-2.352 18.341 1.172 5.645 3.471-3.991 13.645 10.576 13.645 10.465 0 10.02 3.821 9.856 15.685-.086 6.175-6.111 6.398-10.497 6.398-11.267 0-8.872 6.025-8.872 8.355 0 14.059-17.047 5.484-17.047 10.9 0 3.495 6.66 7.332 11.04 29.218 1.162 5.808 8.035 5.164 24.892 5.164 9.416 0 12.479 3.37 12.479 11.479 0 11.644-1.67 14.01-12.215 14.01-34.593 0-47.437-2.256-47.437 1.632M135.876 244C193.607 244 244 194.891 244 135.711 244 76.592 196.519 26 136.002 26 76.899 26 26 76.177 26 135.711 26 198.258 80.72 244 135.876 244M7 135.909C7 65.737 64.486 7 133.7 7 203.018 7 263 67.235 263 136.532 263 205.24 205.895 263 136.02 263 66.302 263 7 205.492 7 135.909" fill-rule="nonzero"/></svg>