<svg width="170" height="170" xmlns="http://www.w3.org/2000/svg" fill-rule="evenodd" clip-rule="evenodd" stroke-linejoin="round" stroke-miterlimit="2"><path d="M166.25 85c0-22.333-7.983-41.483-23.95-57.45-15.833-15.867-34.933-23.8-57.3-23.8-22.367 0-41.533 7.933-57.5 23.8C11.667 43.517 3.75 62.667 3.75 85c0 22.367 7.917 41.467 23.75 57.3 15.967 15.967 35.133 23.95 57.5 23.95 22.367 0 41.467-7.983 57.3-23.95 15.967-15.833 23.95-34.933 23.95-57.3M11.1 85c0-20.367 7.2-37.8 21.6-52.3C47.167 18.333 64.6 11.15 85 11.15s37.783 7.183 52.15 21.55c14.5 14.5 21.75 31.933 21.75 52.3 0 20.4-7.25 37.783-21.75 52.15-14.367 14.5-31.75 21.75-52.15 21.75s-37.833-7.25-52.3-21.75C18.3 122.783 11.1 105.4 11.1 85m135.8-6.05v-.55c-1.833-13.267-7.85-25-18.05-35.2-1.1-1.1-2.2-2.15-3.3-3.15a26.516 26.516 0 00-3.5-2.95c-1.967-1.7-4.3-2.983-7-3.85-1-.267-1.983-.517-2.95-.75-2.333-.367-4.433.433-6.3 2.4-1.933 3.2-3.217 6.767-3.85 10.7-.133.967-.433 1.95-.9 2.95a41.209 41.209 0 01-2.4 3.85c-.267.367-.45.733-.55 1.1l-37.25 62.65a69.49 69.49 0 01-2.75-2.6c-6.4-6.267-10.2-13.5-11.4-21.7v-.75c-.367-1.967-.55-4-.55-6.1 0-7.733 1.9-14.667 5.7-20.8l.2-.2a28.618 28.618 0 016.05-7.55c.367-.5 1.1-1.3 2.2-2.4 1.1-1.233 2.883-3.017 5.35-5.35 2.467-2.433 4.25-4.883 5.35-7.35 1-2.467.817-5.233-.55-8.3-1.467-3.2-4.1-4.8-7.9-4.8-3.933 0-7.25.867-9.95 2.6-3.1 1.7-6 3.783-8.7 6.25-.833.733-1.683 1.6-2.55 2.6-3.8 3.667-6.933 7.65-9.4 11.95-.133.133-.2.267-.2.4-6.133 9.7-9.2 20.683-9.2 32.95 0 3.333.25 6.533.75 9.6v.55c1.833 13.267 7.85 25 18.05 35.2a64.026 64.026 0 008.3 7c2.933 1.467 4.767 2.2 5.5 2.2.633 0 1.5-.183 2.6-.55 3.067-.633 5.95-3.767 8.65-9.4l4.4-10.7c.5-1.333 1.367-3.233 2.6-5.7l34.1-57.3a47.562 47.562 0 014.6 4.05c6.367 6.267 10.167 13.517 11.4 21.75v.75c.367 1.967.55 3.983.55 6.05 0 7.733-1.9 14.683-5.7 20.85l-.2.15a30.03 30.03 0 01-6.05 7.55c-.367.5-1.1 1.3-2.2 2.4-1.133 1.233-2.917 3.017-5.35 5.35-2.467 2.467-4.25 4.933-5.35 7.4-1 2.433-.817 5.183.55 8.25 1.467 3.2 4.1 4.8 7.9 4.8 3.933 0 7.25-.85 9.95-2.55a47.308 47.308 0 008.65-6.3 26.464 26.464 0 002.6-2.55c3.8-3.7 6.933-7.7 9.4-12 .133-.1.2-.217.2-.35 6.133-9.7 9.2-20.7 9.2-33 0-3.3-.25-6.483-.75-9.55z" fill-rule="nonzero"/></svg>