<svg width="18" height="18" xmlns="http://www.w3.org/2000/svg" fill-rule="evenodd" clip-rule="evenodd" stroke-linejoin="round" stroke-miterlimit="2"><path d="M9.116.001l.116.002.116.004.115.005.115.006.114.008.114.01.114.011.113.012.113.013.112.015.112.017.111.018.111.019.111.02.11.022.109.023.109.025.109.025.108.028.108.028.107.03.106.031.106.032.105.033.105.035.105.036.103.037.103.039.103.04.102.041.101.042.1.043.1.045.1.045.098.047.098.048.098.049.096.051.096.051.096.052.094.054.094.055.093.056.093.057.091.058.091.059.091.06.089.061.089.062.087.064.087.064.087.065.085.067.085.067.083.068.083.07.082.07.082.071.08.072.08.073.078.074.078.075.077.076.076.077.075.078.074.078.073.08.072.08.071.082.07.082.07.083.068.083.067.085.067.085.065.087.064.087.064.087.062.089.061.089.06.091.059.091.058.091.057.093.056.093.055.094.054.094.052.096.051.096.051.096.049.098.048.098.047.098.045.1.045.1.043.1.042.101.041.102.04.103.039.103.037.103.036.105.035.105.033.105.032.106.031.106.03.107.028.108.028.108.025.109.025.109.023.109.022.11.02.111.019.111.018.111.017.112.015.112.013.113.012.113.011.114.01.114.008.114.006.115.005.115.004.116.002.116L18 9l-.001.116-.002.116-.004.116-.005.115-.006.115-.008.114-.01.114-.011.114-.012.113-.013.113-.015.112-.017.112-.018.111-.019.111-.02.111-.022.11-.023.109-.025.109-.025.109-.028.108-.028.108-.03.107-.031.106-.032.106-.033.105-.035.105-.036.105-.037.103-.039.103-.04.103-.041.102-.042.101-.043.1-.045.1-.045.1-.047.098-.048.098-.049.098-.051.096-.051.096-.052.096-.054.094-.055.094-.056.093-.057.093-.058.091-.059.091-.06.091-.061.089-.062.089-.064.087-.064.087-.065.087-.067.085-.067.085-.068.083-.07.083-.07.082-.071.082-.072.08-.073.08-.074.078-.075.078-.076.077-.077.076-.078.075-.078.074-.08.073-.08.072-.082.071-.082.07-.083.07-.083.068-.085.067-.085.067-.087.065-.087.064-.087.064-.089.062-.089.061-.091.06-.091.059-.091.058-.093.057-.093.056-.094.055-.094.054-.096.052-.096.051-.096.051-.098.049-.098.048-.098.047-.1.045-.1.045-.1.043-.101.042-.102.041-.103.04-.103.039-.103.037-.105.036-.105.035-.105.033-.106.032-.106.031-.107.03-.108.028-.108.028-.109.025-.109.025-.109.023-.11.022-.111.02-.111.019-.111.018-.112.017-.112.015-.113.013-.113.012-.114.011-.114.01-.114.008-.115.006-.115.005-.116.004-.116.002L9 18l-.116-.001-.116-.002-.116-.004-.115-.005-.115-.006-.114-.008-.114-.01-.114-.011-.113-.012-.113-.013-.112-.015-.112-.017-.111-.018-.111-.019-.111-.02-.11-.022-.109-.023-.109-.025-.109-.025-.108-.028-.108-.028-.107-.03-.106-.031-.106-.032-.105-.033-.105-.035-.105-.036-.103-.037-.103-.039-.103-.04-.102-.041-.101-.042-.1-.043-.1-.045-.1-.045-.098-.047-.098-.048-.098-.049-.096-.051-.096-.051-.096-.052-.094-.054-.094-.055-.093-.056-.093-.057-.091-.058-.091-.059-.091-.06-.089-.061-.089-.062-.087-.064-.087-.064-.087-.065-.085-.067-.085-.067-.083-.068-.083-.07-.082-.07-.082-.071-.08-.072-.08-.073-.078-.074-.078-.075-.077-.076-.076-.077-.075-.078-.074-.078-.073-.08-.072-.08-.071-.082-.07-.082-.07-.083-.068-.083-.067-.085-.067-.085-.065-.087-.064-.087-.064-.087-.062-.089-.061-.089-.06-.091-.059-.091-.058-.091-.057-.093-.056-.093-.055-.094-.054-.094-.052-.096-.051-.096-.051-.096-.049-.098-.048-.098-.047-.098-.045-.1-.045-.1-.043-.1-.042-.101-.041-.102-.04-.103-.039-.103-.037-.103-.036-.105-.035-.105-.033-.105-.032-.106-.031-.106-.03-.107-.028-.108-.028-.108-.025-.109-.025-.109-.023-.109-.022-.11-.02-.111-.019-.111-.018-.111-.017-.112-.015-.112-.013-.113-.012-.113-.011-.114-.01-.114-.008-.114-.006-.115-.005-.115-.004-.116-.002-.116L0 9l.001-.116.002-.116.004-.116.005-.115.006-.115.008-.114.01-.114.011-.114.012-.113.013-.113.015-.112.017-.112.018-.111.019-.111.02-.111.022-.11.023-.109.025-.109.025-.109.028-.108.028-.108.03-.107.031-.106.032-.106.033-.105.035-.105.036-.105.037-.103.039-.103.04-.103.041-.102.042-.101.043-.1.045-.1.045-.1.047-.098.048-.098.049-.098.051-.096.051-.096.052-.096.054-.094.055-.094.056-.093.057-.093.058-.091.059-.091.06-.091.061-.089.062-.089.064-.087.064-.087.065-.087.067-.085.067-.085.068-.083.07-.083.07-.082.071-.082.072-.08.073-.08.074-.078.075-.078.076-.077.077-.076.078-.075.078-.074.08-.073.08-.072.082-.071.082-.07.083-.07.083-.068.085-.067.085-.067.087-.065.087-.064.087-.064.089-.062.089-.061.091-.06.091-.059.091-.058.093-.057.093-.056.094-.055.094-.054.096-.052.096-.051.096-.051.098-.049L5.1.888l.098-.047.1-.045.1-.045.1-.043.101-.042.102-.041.103-.04.103-.039.103-.037.105-.036.105-.035.105-.033.106-.032.106-.031.107-.03.108-.028.108-.028.109-.025.109-.025.109-.023.11-.022.111-.02.111-.019.111-.018.112-.017.112-.015.113-.013.113-.012.114-.011.114-.01.114-.008.115-.006.115-.005.116-.004.116-.002L9 0l.116.001zm-.22 1l-.103.002-.103.003-.102.004-.102.006-.102.007-.101.009-.101.009-.101.011-.1.012-.1.014-.1.014-.099.016-.098.017-.098.018-.098.02-.097.02-.097.022-.097.023-.096.024-.095.025-.095.027-.095.027-.094.029-.093.029-.093.031-.093.032-.092.033-.092.035-.091.035-.09.036-.09.038-.089.038-.089.04-.088.04-.088.042-.087.042-.087.044-.086.045-.085.046-.085.046-.084.048-.083.049-.083.049-.082.051-.082.051-.08.053-.081.053-.079.055-.079.055-.078.057-.077.057-.077.058-.076.059-.075.06-.075.06-.074.062-.073.063-.072.063-.071.064-.071.065-.07.066-.069.067-.069.067-.067.069-.067.069-.066.07-.065.071-.064.071-.063.072-.063.073-.062.074-.06.075-.06.075-.059.076-.058.077-.057.077-.057.078-.055.079-.055.079-.053.081-.053.08-.051.082-.051.082-.049.083-.049.083-.048.084-.046.085-.046.085-.045.086-.044.087-.042.087-.042.088-.04.088-.04.089-.038.089-.038.09-.036.09-.035.091-.035.092-.033.092-.032.093-.031.093-.029.093-.029.094-.027.095-.027.095-.025.095-.024.096-.023.097-.022.097-.02.097-.02.098-.018.098-.017.098-.016.099-.014.1-.014.1-.012.1-.011.101-.009.101-.009.101-.007.102-.006.102-.004.102-.003.103-.002.103L1 9l.001.104.002.103.003.103.004.102.006.102.007.102.009.101.009.101.011.101.012.1.014.1.014.1.016.099.017.098.018.098.02.098.02.097.022.097.023.097.024.096.025.095.027.095.027.095.029.094.029.093.031.093.032.093.033.092.035.092.035.091.036.09.038.09.038.089.04.089.04.088.042.088.042.087.044.087.045.086.046.085.046.085.048.084.049.083.049.083.051.082.051.082.053.08.053.081.055.079.055.079.057.078.057.077.058.077.059.076.06.075.06.075.062.074.063.073.063.072.064.071.065.071.066.07.067.069.067.069.069.067.069.067.07.066.071.065.071.064.072.063.073.063.074.062.075.06.075.06.076.059.077.058.077.057.078.057.079.055.079.055.081.053.08.053.082.051.082.051.083.049.083.049.084.048.085.046.085.046.086.045.087.044.087.042.088.042.088.04.089.04.089.038.09.038.09.036.091.035.092.035.092.033.093.032.093.031.093.029.094.029.095.027.095.027.095.025.096.024.097.023.097.022.097.02.098.02.098.018.098.017.099.016.1.014.1.014.1.012.101.011.101.009.101.009.102.007.102.006.102.004.103.003.103.002L9 17l.104-.001.103-.002.103-.003.102-.004.102-.006.102-.007.101-.009.101-.009.101-.011.1-.012.1-.014.1-.014.099-.016.098-.017.098-.018.098-.02.097-.02.097-.022.097-.023.096-.024.095-.025.095-.027.095-.027.094-.029.093-.029.093-.031.093-.032.092-.033.092-.035.091-.035.09-.036.09-.038.089-.038.089-.04.088-.04.088-.042.087-.042.087-.044.086-.045.085-.046.085-.046.084-.048.083-.049.083-.049.082-.051.082-.051.08-.053.081-.053.079-.055.079-.055.078-.057.077-.057.077-.058.076-.059.075-.06.075-.06.074-.062.073-.063.072-.063.071-.064.071-.065.07-.066.069-.067.069-.067.067-.069.067-.069.066-.07.065-.071.064-.071.063-.072.063-.073.062-.074.06-.075.06-.075.059-.076.058-.077.057-.077.057-.078.055-.079.055-.079.053-.081.053-.08.051-.082.051-.082.049-.083.049-.083.048-.084.046-.085.046-.085.045-.086.044-.087.042-.087.042-.088.04-.088.04-.089.038-.089.038-.09.036-.09.035-.091.035-.092.033-.092.032-.093.031-.093.029-.093.029-.094.027-.095.027-.095.025-.095.024-.096.023-.097.022-.097.02-.097.02-.098.018-.098.017-.098.016-.099.014-.1.014-.1.012-.1.011-.101.009-.101.009-.101.007-.102.006-.102.004-.102.003-.103.002-.103L17 9l-.001-.104-.002-.103-.003-.103-.004-.102-.006-.102-.007-.102-.009-.101-.009-.101-.011-.101-.012-.1-.014-.1-.014-.1-.016-.099-.017-.098-.018-.098-.02-.098-.02-.097-.022-.097-.023-.097-.024-.096-.025-.095-.027-.095-.027-.095-.029-.094-.029-.093-.031-.093-.032-.093-.033-.092-.035-.092-.035-.091-.036-.09-.038-.09-.038-.089-.04-.089-.04-.088-.042-.088-.042-.087-.044-.087-.045-.086-.046-.085-.046-.085-.048-.084-.049-.083-.049-.083-.051-.082-.051-.082-.053-.08-.053-.081-.055-.079-.055-.079-.057-.078-.057-.077-.058-.077-.059-.076-.06-.075-.06-.075-.062-.074-.063-.073-.063-.072-.064-.071-.065-.071-.066-.07-.067-.069-.067-.069-.069-.067-.069-.067-.07-.066-.071-.065-.071-.064-.072-.063-.073-.063-.074-.062-.075-.06-.075-.06-.076-.059-.077-.058-.077-.057-.078-.057-.079-.055-.079-.055-.081-.053-.08-.053-.082-.051-.082-.051-.083-.049-.083-.049-.084-.048-.085-.046-.085-.046-.086-.045-.087-.044-.087-.042-.088-.042-.088-.04-.089-.04-.089-.038-.09-.038-.09-.036-.091-.035-.092-.035-.092-.033-.093-.032-.093-.031-.093-.029-.094-.029-.095-.027-.095-.027-.095-.025-.096-.024-.097-.023-.097-.022-.097-.02-.098-.02-.098-.018-.098-.017-.099-.016-.1-.014-.1-.014-.1-.012-.101-.011-.101-.009-.101-.009-.102-.007-.102-.006-.102-.004-.103-.003-.103-.002L9 1l-.104.001z"/><path d="M10.553 13.42c0 .242.121.363.363.363h2.692c.173 0 .276-.104.311-.311l.103-.57.932.207-.155.881c-.069.414-.345.621-.828.621h-3.469c-.553 0-.829-.276-.829-.828V7.414h3.573v-.88H9.673V2.91h.829c.276.034.293.138.051.31v.829h4.039v.828h-4.039v.829h3.573v2.537h-3.573v.776h3.314v.829h-3.314v.621h3.314v.828h-3.314v.622h3.573v.828h-3.573v.673zM8.896 4.929h-.932L7.498 6.43h1.761v.829H3.046V6.43h1.657l-.466-1.501h-.829V4.1h2.227V2.858h.983c.276.034.294.138.052.31V4.1h2.226v.829zm-.569 9.061c0 .517-.207.776-.621.776H6.515l-.104-.828h.829c.138 0 .207-.069.207-.207v-1.398H4.703v2.485h-.881V8.087h4.505v5.903zm-.88-4.194v-.88H4.703v.88h2.744zm0 1.708v-.88H4.703v.88h2.744zM6.618 6.43l.363-1.501H5.22l.415 1.501h.983z" fill-rule="nonzero"/></svg>