<svg width="170" height="170" xmlns="http://www.w3.org/2000/svg" fill-rule="evenodd" clip-rule="evenodd" stroke-linejoin="round" stroke-miterlimit="2"><path d="M165.85 85c0-22.333-7.9-41.383-23.7-57.15-15.8-15.8-34.85-23.7-57.15-23.7-22.233 0-41.3 7.9-57.2 23.7C12.033 43.717 4.15 62.767 4.15 85c0 22.3 7.883 41.35 23.65 57.15 15.8 15.8 34.867 23.7 57.2 23.7 22.2 0 41.2-7.9 57-23.7l.15-.15c15.8-15.8 23.7-34.8 23.7-57M131.3 38.7c12.833 12.833 19.25 28.267 19.25 46.3 0 18.033-6.417 33.467-19.25 46.3-12.833 12.833-28.267 19.25-46.3 19.25-18.033 0-33.483-6.417-46.35-19.25C25.817 118.467 19.4 103.033 19.4 85c0-18.033 6.367-33.467 19.1-46.3l.15-.15C51.517 25.783 66.967 19.4 85 19.4s33.467 6.433 46.3 19.3m-30.1-4.3c-3.167-3.167-8.267-4.65-15.3-4.45-4.8.1-9.183 1.017-13.15 2.75-3.967 1.833-5.95 3.883-5.95 6.15 0 1.3.45 2.217 1.35 2.75 1.333.7 2.467 2.017 3.4 3.95.6 1.333 1.25 3.783 1.95 7.35.1.3.217.6.35.9v1.1c0 5.5.35 9.317 1.05 11.45v.9l-.3 4.45c-.4 0-.817.05-1.25.15-4.567.8-8.483 1.2-11.75 1.2l-12.7-.45c-1.433-.4-2.6-.75-3.5-1.05-1.533-.4-2.85-.6-3.95-.6-4.6 0-7.517.917-8.75 2.75-.4.6-.6 2.017-.6 4.25 0 2.033.867 4.883 2.6 8.55 1.933 4.2 4.333 6.8 7.2 7.8 1.2 1.233 2.517 1.9 3.95 2h4.3c.7-.3 1.767-1.317 3.2-3.05.4-.5.8-.967 1.2-1.4.433-.2.95-.4 1.55-.6C62.933 88.717 66.9 87.3 68 87h6.9v20.3c.3 3.367.75 6.533 1.35 9.5.233 2.033.6 3.967 1.1 5.8 1.833 7.333 5.083 11 9.75 11 3.467 0 6.017-1.683 7.65-5.05.933-1.633 1.45-3.317 1.55-5.05.1-1.233.5-3.167 1.2-5.8.633-2.433.95-4.367.95-5.8-.1-1.433-.2-2.717-.3-3.85.1-.7.15-1.1.15-1.2 0-2.333-.367-4.733-1.1-7.2-.7-2.433-1.05-5.383-1.05-8.85 0-1.133.1-2.3.3-3.5h4.1c3.267.1 5.417 0 6.45-.3 1 .3 2.217.6 3.65.9 1.333.3 2.867.65 4.6 1.05.2.2.45.417.75.65.933.7 1.85 1.35 2.75 1.95 1.733 1.833 3.983 2.75 6.75 2.75 2.433 0 5.283-1.317 8.55-3.95 3.467-2.867 5.2-5.617 5.2-8.25 0-1.433-.15-2.45-.45-3.05-1.033-5.2-4.967-8.467-11.8-9.8h-8.4c-2.333.7-4.933 1.05-7.8 1.05l-2.6-.3h-5.35c-.3.1-.5.15-.6.15H98.9l-.95.15c-.1-.1-.15-.2-.15-.3-.1-.7-.2-1.35-.3-1.95l.15-.2c-.1-.2-.15-.45-.15-.75s.05-.55.15-.75l-.15-1.85c.2-1.533.35-2.4.45-2.6 1.133-1.2 2.317-2.833 3.55-4.9 1.333-2.033 2.35-3.917 3.05-5.65l.6-1.35c.733-1.933 1.1-3.567 1.1-4.9-2.067-6.833-3.75-10.4-5.05-10.7z" fill-rule="nonzero"/></svg>