<svg xmlns="http://www.w3.org/2000/svg" width="128pt" height="128pt" viewBox="0 0 128 128" fill-rule="evenodd"><path d="M49.2 1.5c-3.5.8-9.8 3.1-14 5.2-10.7 5.2-23.3 17.7-28.5 28.4-11 22.5-8.2 49.4 7 68.4 9.5 11.7 20.5 18.9 35 22.6 33.6 8.6 68.6-12.5 77.3-46.7 8.1-31.4-10.2-65.3-41-76.1C75.6.1 59.1-.8 49.2 1.5zM81.5 13c10.8 3.7 21.2 12 27.9 22.2 13.4 20.2 10.5 48.6-6.8 66-19.8 20-48.8 22.3-70.9 5.7C15.6 94.7 7.5 74.4 10.9 54.6 14.6 33.4 32 15.6 53.5 11c6.5-1.4 21.3-.4 28 2z"/><path d="M60.2 20C57 21.3 56 24.9 56 35.6V45H33l-2 3.2c-2.5 4.2-2.5 7-.1 9.2 1.7 1.5 3.1 1.7 9.5 1.1 4.2-.4 9.1-.4 11-.1l3.4.6-1 4.3c-.5 2.3-1.5 5.1-2.3 6.2-3 4.6-13.4 15.7-18.2 19.6-5.5 4.4-6.8 8-4.1 10.7 4.1 4.1 17.7-3.8 27.4-15.9 3.1-3.8 6-6.9 6.4-6.9.4 0 2.6 2.5 4.9 5.4C76.6 94 87.3 103 92.4 103c2.2 0 7.6-5 7.6-7 0-1.2-2.8-4.2-6.9-7.5C82.1 79.6 71 65.7 71 60.8V58h8.8c14.6-.1 19.2-2 19.2-8.1 0-4.3-1.9-5-15.9-5.6L70 43.7V34c0-7.9-.3-10.2-1.7-11.8-2.2-2.5-5.1-3.3-8.1-2.2z"/></svg>