<svg width="270" height="270" xmlns="http://www.w3.org/2000/svg" fill-rule="evenodd" clip-rule="evenodd" stroke-linejoin="round" stroke-miterlimit="2"><path fill="none" d="M-25-25h320v320H-25z"/><path d="M213.112 117.534c-28.601 0-56.433-58.459-78.17-58.459-1.226 0-2.433.194-3.586.58-13.473 4.498-41.536 57.849-83.714 57.849l-.217-.001c-3.364-.014-7.204-1.966-7.556-4.847-.215-1.756.711-4.147 6.338-5.57 27.949-7.067 57.631-35.897 76.365-61.181 2.221-2.997-2.127-6.213-.086-9.118 1.016-1.446 3.002-1.641 4.811-1.641 10.781 0 17.935 1.696 17.895 12.136 1.144 3.144 42.243 42.985 77.724 56.432 1.854.703 7.501 2.842 6.756 6.908-.864 4.716-10.391 6.912-16.558 6.912h-.002zm-46.883 58.711c4.692-5.973 10.664-10.692 12.492-17.905.113-.442.646-1.884 2.808-1.884.096 0 16.419 1.89 14.67 11.239-2.251 12.032-12.436 5.12-21.811 15.04-3.866 4.09-12.934-.417-8.159-6.49M65.422 211.348c-13.714 0-13.201-15.091-13.257-15.248-.081-2.472 1.36-4.177 4.214-4.177 2.913 0 5.516 1.718 18.095-.637 5.985-1.121 22.11-4.972 22.217-5.011-6.074-9.504-15.994-10.712-14.295-17.269.305-1.18 1.589-3.935 6.893-4.047 5.551-.118 11.576.709 15.461 4.734 5.377 5.571 3.833 14.022 4.219 14.425.092.095 12.323.787 17.641-3.259 1.159-.882 1.65 1.019 1.421-31.29-.02-2.816-.814-2.816-1.911-2.816-.806 0-24.986 3.787-38.919 11.107-5.272 2.768-8.087.385-7.627-4.382.647-6.712 1.895-11.572 12.117-12.988 11.192-1.551 22.838-4.915 34.379-8.119 3.937-1.087 1.709-9.762 1.443-10.748-3.001-11.089-26.345 2.296-32.608 2.296-3.152 0-4.647-2.164-4.223-5.428 1.448-11.124 11.086-11.76 17.464-12.181 28.107-1.848 40.913-4.154 71.572-.038 5.841.786 5.513 8.272-3.189 9.913-8.961 1.69-17.652-.637-26.099-.426-5.108.125-6.281 1.812-7.02 6.5-.694 4.403-.581 6.587.402 7.787 1.159 1.414 4.202 2.149 9.869 2.383 16.956.699 25.913 3.202 43.733 4.735 5.678.488 8.646 5.492.726 9.362-3.655 1.785-6.9 2.582-10.524 2.582-9.47 0-8.177-2.946-42.833-2.509-2.264.029-2.802.036-2.96 3.3-.546 11.168-.976 19.989 1.159 31.174.413 2.17 30.233 6.134 49.561 6.134 11.085 0 23.946-1.217 26.02 3.639 1.195 2.794-1.422 5.871-3.967 8.533-4.465 4.672-11.539 7.244-19.916 7.244-16.092 0-21.968-11.04-52.961-11.04-59.86 0-68.487 15.765-76.297 15.765M133.755 19C71.405 19 19 71.63 19 134.255 19 190.233 64.16 251 134.842 251 199.026 251 251 197.035 251 134.331 251 70.116 194.885 19 133.755 19m1.783 244C63.485 263 7 203.702 7 134.968 7 66.325 64.072 7.206 133.757 7 201.65 6.8 263 65.624 263 135.791 263 204.333 206.216 263 135.538 263" fill-rule="nonzero"/></svg>