<svg width="1400" height="1400" xmlns="http://www.w3.org/2000/svg" fill-rule="evenodd" clip-rule="evenodd" stroke-linecap="round" stroke-linejoin="round" stroke-miterlimit="1.5"><path d="M145.5 384l553-323 555 317 1 640-554 321-554-315-1-640z" fill="#fff"/><path d="M699.459 699.37l554.255-320v639.999l-554.255 319.998V699.37zm0-639.999l554.255 319.998-554.255 320-554.257-320L699.459 59.371z" fill="none" stroke="#000" stroke-width="8.031"/><path d="M699.46 699.37l-554.256-320v639.999l554.255 319.998V699.37z" fill="none" stroke="#000" stroke-width="8.031"/><path d="M1253.716 699.369l-554.257 320-554.256-320" fill="none" stroke="#000" stroke-width="8.03"/><path d="M422.33 1179.369v-640l554.257-320" fill="none" stroke="#000" stroke-width="8.03"/><path d="M976.587 1179.369v-640l-554.256-320" fill="none" stroke="#000" stroke-width="8.03"/><circle cx="800" cy="100" r="40" fill="#ebebeb" stroke="#000" stroke-width="16.06" transform="matrix(0 .5 -.5 0 749.5 299)"/><circle cx="800" cy="100" r="40" fill="#ebebeb" stroke="#000" stroke-width="16.06" transform="matrix(0 .5 -.5 0 748.5 -19)"/><circle cx="800" cy="100" r="40" fill="#ebebeb" stroke="#000" stroke-width="16.06" transform="matrix(0 .5 -.5 0 748.5 -339)"/><circle cx="800" cy="100" r="40" fill="#ebebeb" stroke="#000" stroke-width="16.06" transform="matrix(0 .5 -.5 0 472.5 -181)"/><circle cx="800" cy="100" r="40" fill="#ebebeb" stroke="#000" stroke-width="16.06" transform="matrix(0 .5 -.5 0 1024.5 -181)"/><circle cx="800" cy="100" r="40" fill="#ebebeb" stroke="#000" stroke-width="16.06" transform="matrix(0 .5 -.5 0 1025.5 139)"/><circle cx="800" cy="100" r="40" fill="#ebebeb" stroke="#000" stroke-width="16.06" transform="matrix(0 .5 -.5 0 1303.5 -22)"/><circle cx="800" cy="100" r="40" fill="#ebebeb" stroke="#000" stroke-width="16.06" transform="matrix(0 .5 -.5 0 750.5 616)"/><circle cx="800" cy="100" r="40" fill="#ebebeb" stroke="#000" stroke-width="16.06" transform="matrix(0 .5 -.5 0 1026.5 456)"/><circle cx="800" cy="100" r="40" fill="#ebebeb" stroke="#000" stroke-width="16.06" transform="matrix(0 .5 -.5 0 1304.5 295)"/><circle cx="800" cy="100" r="40" fill="#ebebeb" stroke="#000" stroke-width="16.06" transform="matrix(0 .5 -.5 0 750.5 939)"/><circle cx="800" cy="100" r="40" fill="#ebebeb" stroke="#000" stroke-width="16.06" transform="matrix(0 .5 -.5 0 472.5 139)"/><circle cx="800" cy="100" r="40" fill="#ebebeb" stroke="#000" stroke-width="16.06" transform="matrix(0 .5 -.5 0 473.5 456)"/><circle cx="800" cy="100" r="40" fill="#ebebeb" stroke="#000" stroke-width="16.06" transform="matrix(0 .5 -.5 0 473.5 779)"/><circle cx="800" cy="100" r="40" fill="#ebebeb" stroke="#000" stroke-width="16.06" transform="matrix(0 .5 -.5 0 195.5 -16)"/><circle cx="800" cy="100" r="40" fill="#ebebeb" stroke="#000" stroke-width="16.06" transform="matrix(0 .5 -.5 0 196.5 301)"/><circle cx="800" cy="100" r="40" fill="#ebebeb" stroke="#000" stroke-width="16.06" transform="matrix(0 .5 -.5 0 196.5 624)"/><circle cx="800" cy="100" r="40" fill="#ebebeb" stroke="#000" stroke-width="16.06" transform="matrix(0 .5 -.5 0 1026.5 779)"/><circle cx="800" cy="100" r="40" fill="#ebebeb" stroke="#000" stroke-width="16.06" transform="matrix(0 .5 -.5 0 1304.5 618)"/></svg>