<svg width="1400" height="1400" xmlns="http://www.w3.org/2000/svg" fill-rule="evenodd" clip-rule="evenodd" stroke-linecap="round" stroke-linejoin="round" stroke-miterlimit="1.5"><path d="M699.459 699.369l554.256-320v640l-554.256 320v-640z" fill="#ff8767" stroke="#000" stroke-width="8.03"/><path d="M699.459 59.369l554.256 320-554.256 320-554.256-320 554.256-320z" fill="#fff367" stroke="#000" stroke-width="8.03"/><path d="M699.459 699.369l-554.256-320v640l554.256 320v-640z" fill="#00abda" stroke="#000" stroke-width="8.03"/><path d="M699.459 699.369l554.256 320M699.459 1339.37l554.256-960m-.005 319.999l-554.256 320-554.256-320m554.261 0l-554.256 320m0-640l554.256 960" fill="none" stroke="#000" stroke-width="8.03"/><path d="M422.331 1179.37v-640l554.256-320" fill="none" stroke="#000" stroke-width="8.03"/><path d="M976.587 1179.37v-640l-554.256-320M145.203 379.369h1108.51m-554.254 320v-640" fill="none" stroke="#000" stroke-width="8.03"/><path d="M719.5 699c0 11.038-8.962 20-20 20s-20-8.962-20-20 8.962-20 20-20 20 8.962 20 20zm-1-318c0 11.038-8.962 20-20 20s-20-8.962-20-20 8.962-20 20-20 20 8.962 20 20zm0-320c0 11.038-8.962 20-20 20s-20-8.962-20-20 8.962-20 20-20 20 8.962 20 20zm-276 158c0 11.038-8.962 20-20 20s-20-8.962-20-20 8.962-20 20-20 20 8.962 20 20zm552 0c0 11.038-8.962 20-20 20s-20-8.962-20-20 8.962-20 20-20 20 8.962 20 20zm1 320c0 11.038-8.962 20-20 20s-20-8.962-20-20 8.962-20 20-20 20 8.962 20 20zm278-161c0 11.038-8.962 20-20 20s-20-8.962-20-20 8.962-20 20-20 20 8.962 20 20zm-553 638c0 11.038-8.962 20-20 20s-20-8.962-20-20 8.962-20 20-20 20 8.962 20 20zm276-160c0 11.038-8.962 20-20 20s-20-8.962-20-20 8.962-20 20-20 20 8.962 20 20zm278-161c0 11.038-8.962 20-20 20s-20-8.962-20-20 8.962-20 20-20 20 8.962 20 20zm-554 644c0 11.038-8.962 20-20 20s-20-8.962-20-20 8.962-20 20-20 20 8.962 20 20zm-278-800c0 11.038-8.962 20-20 20s-20-8.962-20-20 8.962-20 20-20 20 8.962 20 20zm1 317c0 11.038-8.962 20-20 20s-20-8.962-20-20 8.962-20 20-20 20 8.962 20 20zm0 323c0 11.038-8.962 20-20 20s-20-8.962-20-20 8.962-20 20-20 20 8.962 20 20zm-278-795c0 11.038-8.962 20-20 20s-20-8.962-20-20 8.962-20 20-20 20 8.962 20 20zm1 317c0 11.038-8.962 20-20 20s-20-8.962-20-20 8.962-20 20-20 20 8.962 20 20zm0 323c0 11.038-8.962 20-20 20s-20-8.962-20-20 8.962-20 20-20 20 8.962 20 20zm830 155c0 11.038-8.962 20-20 20s-20-8.962-20-20 8.962-20 20-20 20 8.962 20 20zm278-161c0 11.038-8.962 20-20 20s-20-8.962-20-20 8.962-20 20-20 20 8.962 20 20z" fill="#ebebeb" stroke="#000" stroke-width="8.03"/></svg>