<svg width="1400" height="1400" xmlns="http://www.w3.org/2000/svg" fill-rule="evenodd" clip-rule="evenodd" stroke-linecap="round" stroke-linejoin="round" stroke-miterlimit="1.5"><path d="M698.744 120.243l609.395 442.753-232.77 716.388H322.116L89.346 562.996l609.398-442.753z" fill="#fff" stroke="#000" stroke-width="7.999"/><path d="M698.742 291.111l446.89 324.686-170.699 525.35H422.55l-170.7-525.35L698.742 291.11z" fill="none" stroke="#000" stroke-width="7.999"/><path d="M699.753 1003.952v276.327" fill="none" stroke="#000" stroke-width="7.996"/><path d="M698.742 461.98l284.385 206.618L874.5 1002.912H522.983L414.357 668.598 698.742 461.98z" fill="none" stroke="#000" stroke-width="8.002"/><path d="M468.945 833.326L208.132 917.36m345.532-350.134L391.386 347.373m450.395 220.078l166.339-222.75m-78.664 494.745l265.349 86.877" fill="none" stroke="#000" stroke-width="7.996"/><circle cx="800" cy="100" r="40" fill="#ebebeb" stroke="#000" stroke-width="16.06" transform="matrix(0 .5 -.5 0 748.5 -280)"/><circle cx="800" cy="100" r="40" fill="#ebebeb" stroke="#000" stroke-width="16.06" transform="matrix(0 .5 -.5 0 748.5 -108)"/><circle cx="800" cy="100" r="40" fill="#ebebeb" stroke="#000" stroke-width="16.06" transform="matrix(0 .5 -.5 0 748.5 62)"/><circle cx="800" cy="100" r="40" fill="#ebebeb" stroke="#000" stroke-width="16.06" transform="matrix(0 .5 -.5 0 603.5 170)"/><circle cx="800" cy="100" r="40" fill="#ebebeb" stroke="#000" stroke-width="16.06" transform="matrix(0 .5 -.5 0 521.5 56)"/><circle cx="800" cy="100" r="40" fill="#ebebeb" stroke="#000" stroke-width="16.06" transform="matrix(0 .5 -.5 0 436.5 -58)"/><circle cx="800" cy="100" r="40" fill="#ebebeb" stroke="#000" stroke-width="16.06" transform="matrix(0 .5 -.5 0 305.5 220)"/><circle cx="800" cy="100" r="40" fill="#ebebeb" stroke="#000" stroke-width="16.06" transform="matrix(0 .5 -.5 0 467.5 271)"/><circle cx="800" cy="100" r="40" fill="#ebebeb" stroke="#000" stroke-width="16.06" transform="matrix(0 .5 -.5 0 145.5 163)"/><circle cx="800" cy="100" r="40" fill="#ebebeb" stroke="#000" stroke-width="16.06" transform="matrix(0 .5 -.5 0 974.5 58)"/><circle cx="800" cy="100" r="40" fill="#ebebeb" stroke="#000" stroke-width="16.06" transform="matrix(0 .5 -.5 0 1056.5 -55)"/><circle cx="800" cy="100" r="40" fill="#ebebeb" stroke="#000" stroke-width="16.06" transform="matrix(0 .5 -.5 0 890.5 170)"/><circle cx="800" cy="100" r="40" fill="#ebebeb" stroke="#000" stroke-width="16.06" transform="matrix(0 .5 -.5 0 1033.5 270)"/><circle cx="800" cy="100" r="40" fill="#ebebeb" stroke="#000" stroke-width="16.06" transform="matrix(0 .5 -.5 0 1240.5 522)"/><circle cx="800" cy="100" r="40" fill="#ebebeb" stroke="#000" stroke-width="16.06" transform="matrix(0 .5 -.5 0 976.5 439)"/><circle cx="800" cy="100" r="40" fill="#ebebeb" stroke="#000" stroke-width="16.06" transform="matrix(0 .5 -.5 0 923.5 604)"/><circle cx="800" cy="100" r="40" fill="#ebebeb" stroke="#000" stroke-width="16.06" transform="matrix(0 .5 -.5 0 748.5 602)"/><circle cx="800" cy="100" r="40" fill="#ebebeb" stroke="#000" stroke-width="16.06" transform="matrix(0 .5 -.5 0 748.5 742)"/><circle cx="800" cy="100" r="40" fill="#ebebeb" stroke="#000" stroke-width="16.06" transform="matrix(0 .5 -.5 0 749.5 880)"/><circle cx="800" cy="100" r="40" fill="#ebebeb" stroke="#000" stroke-width="16.06" transform="matrix(0 .5 -.5 0 573.5 602)"/><circle cx="800" cy="100" r="40" fill="#ebebeb" stroke="#000" stroke-width="16.06" transform="matrix(0 .5 -.5 0 517.5 431)"/><circle cx="800" cy="100" r="40" fill="#ebebeb" stroke="#000" stroke-width="16.06" transform="matrix(0 .5 -.5 0 386.5 475)"/><circle cx="800" cy="100" r="40" fill="#ebebeb" stroke="#000" stroke-width="16.06" transform="matrix(0 .5 -.5 0 252.5 518)"/><circle cx="800" cy="100" r="40" fill="#ebebeb" stroke="#000" stroke-width="16.06" transform="matrix(0 .5 -.5 0 474.5 740)"/><circle cx="800" cy="100" r="40" fill="#ebebeb" stroke="#000" stroke-width="16.06" transform="matrix(0 .5 -.5 0 376.5 875)"/><circle cx="800" cy="100" r="40" fill="#ebebeb" stroke="#000" stroke-width="16.06" transform="matrix(0 .5 -.5 0 1024.5 739)"/><circle cx="800" cy="100" r="40" fill="#ebebeb" stroke="#000" stroke-width="16.06" transform="matrix(0 .5 -.5 0 1124.5 878)"/><circle cx="800" cy="100" r="40" fill="#ebebeb" stroke="#000" stroke-width="16.06" transform="matrix(0 .5 -.5 0 1109.5 479)"/><circle cx="800" cy="100" r="40" fill="#ebebeb" stroke="#000" stroke-width="16.06" transform="matrix(0 .5 -.5 0 1191.5 216)"/><circle cx="800" cy="100" r="40" fill="#ebebeb" stroke="#000" stroke-width="16.06" transform="matrix(0 .5 -.5 0 1354.5 162)"/></svg>