<svg width="1400" height="1400" xmlns="http://www.w3.org/2000/svg" fill-rule="evenodd" clip-rule="evenodd" stroke-linecap="round" stroke-linejoin="round" stroke-miterlimit="1.5"><path d="M703.914 64l554.91 320.38v640.759l-554.91 320.38L149 1025.138v-640.76L703.914 64z" fill="#fff" stroke="#000" stroke-width="7.999"/><path d="M703.912 256l388.633 224.378v448.758l-388.633 224.379-388.635-224.38V480.379L703.912 256z" fill="none" stroke="#000" stroke-width="8.001"/><path d="M703.913 448L926.27 576.38v256.758L703.913 961.516l-222.359-128.38V576.38L703.913 448z" fill="none" stroke="#000" stroke-width="7.998"/><circle cx="800" cy="100" r="40" fill="#ebebeb" stroke="#000" stroke-width="16.06" transform="matrix(0 .5 -.5 0 753 -336)"/><circle cx="800" cy="100" r="40" fill="#ebebeb" stroke="#000" stroke-width="16.06" transform="matrix(0 .5 -.5 0 754 -143)"/><circle cx="800" cy="100" r="40" fill="#ebebeb" stroke="#000" stroke-width="16.06" transform="matrix(0 .5 -.5 0 753 50)"/><circle cx="800" cy="100" r="40" fill="#ebebeb" stroke="#000" stroke-width="16.06" transform="rotate(30 -352.306 -250.206) scale(.5)"/><circle cx="800" cy="100" r="40" fill="#ebebeb" stroke="#000" stroke-width="16.06" transform="rotate(30 -446.94 110.437) scale(.5)"/><circle cx="800" cy="100" r="40" fill="#ebebeb" stroke="#000" stroke-width="16.06" transform="rotate(30 -545.307 470.08) scale(.5)"/><circle cx="800" cy="100" r="40" fill="#ebebeb" stroke="#000" stroke-width="16.06" transform="rotate(150 782.502 333.063) scale(.5)"/><circle cx="800" cy="100" r="40" fill="#ebebeb" stroke="#000" stroke-width="16.06" transform="rotate(150 686.132 359.42) scale(.5)"/><circle cx="800" cy="100" r="40" fill="#ebebeb" stroke="#000" stroke-width="16.06" transform="rotate(150 589.5 384.777) scale(.5)"/><circle cx="800" cy="100" r="40" fill="#ebebeb" stroke="#000" stroke-width="16.06" transform="matrix(0 -.5 .5 0 653.286 1745.95)"/><circle cx="800" cy="100" r="40" fill="#ebebeb" stroke="#000" stroke-width="16.06" transform="matrix(0 -.5 .5 0 652.286 1552.95)"/><circle cx="800" cy="100" r="40" fill="#ebebeb" stroke="#000" stroke-width="16.06" transform="matrix(0 -.5 .5 0 653.286 1359.95)"/><circle cx="800" cy="100" r="40" fill="#ebebeb" stroke="#000" stroke-width="16.06" transform="rotate(-150 960.351 422.901) scale(.5)"/><circle cx="800" cy="100" r="40" fill="#ebebeb" stroke="#000" stroke-width="16.06" transform="rotate(-150 863.72 397.546) scale(.5)"/><circle cx="800" cy="100" r="40" fill="#ebebeb" stroke="#000" stroke-width="16.06" transform="rotate(-150 767.35 371.187) scale(.5)"/><circle cx="800" cy="100" r="40" fill="#ebebeb" stroke="#000" stroke-width="16.06" transform="rotate(-30 2091.147 1001.139) scale(.5)"/><circle cx="800" cy="100" r="40" fill="#ebebeb" stroke="#000" stroke-width="16.06" transform="rotate(-30 1992.773 641.494) scale(.5)"/><circle cx="800" cy="100" r="40" fill="#ebebeb" stroke="#000" stroke-width="16.06" transform="rotate(-30 1898.144 280.852) scale(.5)"/><path d="M929 704h331m-331 0h331" fill="none" stroke="#000" stroke-width="8"/><circle cx="800" cy="100" r="40" fill="#ebebeb" stroke="#000" stroke-width="16.06" transform="rotate(-150 833.94 284.41) scale(.5)"/><path d="M151.464 704h331" fill="none" stroke="#000" stroke-width="8"/><circle cx="800" cy="100" r="40" fill="#ebebeb" stroke="#000" stroke-width="16.06" transform="rotate(-150 445.17 388.58) scale(.5)"/><circle cx="800" cy="100" r="40" fill="#ebebeb" stroke="#000" stroke-width="16.06" transform="rotate(-150 361.403 409.954) scale(.5)"/><circle cx="800" cy="100" r="40" fill="#ebebeb" stroke="#000" stroke-width="16.06" transform="rotate(-150 528.5 364.645) scale(.5)"/><circle cx="800" cy="100" r="40" fill="#ebebeb" stroke="#000" stroke-width="16.06" transform="rotate(-150 750.173 305.784) scale(.5)"/><circle cx="800" cy="100" r="40" fill="#ebebeb" stroke="#000" stroke-width="16.06" transform="rotate(-150 917.269 260.475) scale(.5)"/><path d="M815.535 898.298l165.5 286.655m-165.5-286.655l165.5 286.655" fill="none" stroke="#000" stroke-width="8"/><circle cx="800" cy="100" r="40" fill="#ebebeb" stroke="#000" stroke-width="16.06" transform="matrix(0 -.5 .5 0 846.969 1440.12)"/><path d="M426.767 224.932l165.5 286.655" fill="none" stroke="#000" stroke-width="8"/><circle cx="800" cy="100" r="40" fill="#ebebeb" stroke="#000" stroke-width="16.06" transform="matrix(0 -.5 .5 0 458.201 766.753)"/><circle cx="800" cy="100" r="40" fill="#ebebeb" stroke="#000" stroke-width="16.06" transform="matrix(0 -.5 .5 0 376.433 621.126)"/><circle cx="800" cy="100" r="40" fill="#ebebeb" stroke="#000" stroke-width="16.06" transform="matrix(0 -.5 .5 0 544.531 910.28)"/><circle cx="800" cy="100" r="40" fill="#ebebeb" stroke="#000" stroke-width="16.06" transform="matrix(0 -.5 .5 0 765.201 1294.49)"/><circle cx="800" cy="100" r="40" fill="#ebebeb" stroke="#000" stroke-width="16.06" transform="matrix(0 -.5 .5 0 933.299 1583.65)"/><path d="M590.538 897.184l-165.5 286.655m165.5-286.655l-165.5 286.655" fill="none" stroke="#000" stroke-width="8"/><circle cx="800" cy="100" r="40" fill="#ebebeb" stroke="#000" stroke-width="16.06" transform="rotate(-30 2299.01 341.97) scale(.5)"/><path d="M979.308 223.818l-165.5 286.655" fill="none" stroke="#000" stroke-width="8"/><circle cx="800" cy="100" r="40" fill="#ebebeb" stroke="#000" stroke-width="16.06" transform="rotate(-30 1236.869 -720.165) scale(.5)"/><circle cx="800" cy="100" r="40" fill="#ebebeb" stroke="#000" stroke-width="16.06" transform="rotate(-30 1011.475 -951.023) scale(.5)"/><circle cx="800" cy="100" r="40" fill="#ebebeb" stroke="#000" stroke-width="16.06" transform="rotate(-30 1469.727 -495.504) scale(.5)"/><circle cx="800" cy="100" r="40" fill="#ebebeb" stroke="#000" stroke-width="16.06" transform="rotate(-30 2073.608 111.11) scale(.5)"/><circle cx="800" cy="100" r="40" fill="#ebebeb" stroke="#000" stroke-width="16.06" transform="rotate(-30 2531.853 566.627) scale(.5)"/></svg>