<svg width="1400" height="1400" xmlns="http://www.w3.org/2000/svg" fill-rule="evenodd" clip-rule="evenodd" stroke-linecap="round" stroke-linejoin="round" stroke-miterlimit="1.5"><path d="M701.744 119.743l609.395 442.753-232.77 716.388H325.116L92.346 562.496l609.398-442.753z" fill="#fff" stroke="#000" stroke-width="7.999"/><path d="M702.742 1272.88l488.61-354.998-186.633-574.396H400.764L214.13 917.882l488.612 354.998z" fill="none" stroke="#000" stroke-width="8.002"/><path d="M704.743 348.024l390.395 283.64-149.119 458.938H463.465L314.346 631.664l390.397-283.64z" fill="none" stroke="#000" stroke-width="8"/><path d="M704.743 496.023l249.64 181.375-95.355 293.469H550.457l-95.355-293.47 249.64-181.374z" fill="none" stroke="#000" stroke-width="8"/><path d="M705.382 1086.755L1018.4 859.333 898.837 491.36h-386.91L392.363 859.333l313.018 227.422z" fill="none" stroke="#000" stroke-width="8.001"/><circle cx="800" cy="100" r="40" fill="#ebebeb" stroke="#000" stroke-width="16.06" transform="rotate(90 514 237.5) scale(.5)"/><circle cx="800" cy="100" r="40" fill="#ebebeb" stroke="#000" stroke-width="16.06" transform="rotate(90 404.5 350) scale(.5)"/><circle cx="800" cy="100" r="40" fill="#ebebeb" stroke="#000" stroke-width="16.06" transform="matrix(0 .5 -.5 0 752.5 97.5)"/><path d="M1004 341.5l-174 244m362 332l-282-97m-206 453l2-303m-494-53l292-93m-102-482l180 240" fill="none" stroke="#000" stroke-width="8"/><circle cx="800" cy="100" r="40" fill="#ebebeb" stroke="#000" stroke-width="16.06" transform="matrix(0 .5 -.5 0 947.5 89.5)"/><circle cx="800" cy="100" r="40" fill="#ebebeb" stroke="#000" stroke-width="16.06" transform="rotate(90 555.5 497) scale(.5)"/><circle cx="800" cy="100" r="40" fill="#ebebeb" stroke="#000" stroke-width="16.06" transform="rotate(90 457.5 688) scale(.5)"/><circle cx="800" cy="100" r="40" fill="#ebebeb" stroke="#000" stroke-width="16.06" transform="rotate(90 305 764.5) scale(.5)"/><circle cx="800" cy="100" r="40" fill="#ebebeb" stroke="#000" stroke-width="16.06" transform="rotate(90 360.5 879) scale(.5)"/><circle cx="800" cy="100" r="40" fill="#ebebeb" stroke="#000" stroke-width="16.06" transform="rotate(90 363.5 642) scale(.5)"/><circle cx="800" cy="100" r="40" fill="#ebebeb" stroke="#000" stroke-width="16.06" transform="rotate(90 269 689.5) scale(.5)"/><circle cx="800" cy="100" r="40" fill="#ebebeb" stroke="#000" stroke-width="16.06" transform="rotate(90 170 738.5) scale(.5)"/><circle cx="800" cy="100" r="40" fill="#ebebeb" stroke="#000" stroke-width="16.06" transform="rotate(90 91.5 664) scale(.5)"/><circle cx="800" cy="100" r="40" fill="#ebebeb" stroke="#000" stroke-width="16.06" transform="rotate(90 34 721.5) scale(.5)"/><circle cx="800" cy="100" r="40" fill="#ebebeb" stroke="#000" stroke-width="16.06" transform="rotate(90 -89 600.5) scale(.5)"/><circle cx="800" cy="100" r="40" fill="#ebebeb" stroke="#000" stroke-width="16.06" transform="rotate(90 17 586.5) scale(.5)"/><circle cx="800" cy="100" r="40" fill="#ebebeb" stroke="#000" stroke-width="16.06" transform="rotate(90 62.5 490) scale(.5)"/><circle cx="800" cy="100" r="40" fill="#ebebeb" stroke="#000" stroke-width="16.06" transform="rotate(90 -9.5 451) scale(.5)"/><circle cx="800" cy="100" r="40" fill="#ebebeb" stroke="#000" stroke-width="16.06" transform="matrix(0 .5 -.5 0 261.5 516.5)"/><circle cx="800" cy="100" r="40" fill="#ebebeb" stroke="#000" stroke-width="16.06" transform="matrix(0 .5 -.5 0 378.5 876.5)"/><circle cx="800" cy="100" r="40" fill="#ebebeb" stroke="#000" stroke-width="16.06" transform="rotate(90 -61 813.5) scale(.5)"/><circle cx="800" cy="100" r="40" fill="#ebebeb" stroke="#000" stroke-width="16.06" transform="rotate(90 152 843.5) scale(.5)"/><circle cx="800" cy="100" r="40" fill="#ebebeb" stroke="#000" stroke-width="16.06" transform="rotate(90 124.5 1001) scale(.5)"/><circle cx="800" cy="100" r="40" fill="#ebebeb" stroke="#000" stroke-width="16.06" transform="rotate(90 346 533.5) scale(.5)"/><circle cx="800" cy="100" r="40" fill="#ebebeb" stroke="#000" stroke-width="16.06" transform="rotate(90 597 760.5) scale(.5)"/><circle cx="800" cy="100" r="40" fill="#ebebeb" stroke="#000" stroke-width="16.06" transform="rotate(90 224.5 408) scale(.5)"/><circle cx="800" cy="100" r="40" fill="#ebebeb" stroke="#000" stroke-width="16.06" transform="matrix(0 .5 -.5 0 559.5 91.5)"/><circle cx="800" cy="100" r="40" fill="#ebebeb" stroke="#000" stroke-width="16.06" transform="rotate(90 253.5 197) scale(.5)"/><circle cx="800" cy="100" r="40" fill="#ebebeb" stroke="#000" stroke-width="16.06" transform="rotate(90 -10 152.5) scale(.5)"/><circle cx="800" cy="100" r="40" fill="#ebebeb" stroke="#000" stroke-width="16.06" transform="rotate(90 65 294.5) scale(.5)"/><circle cx="800" cy="100" r="40" fill="#ebebeb" stroke="#000" stroke-width="16.06" transform="rotate(90 114.5 391) scale(.5)"/></svg>