<svg width="1600" height="1600" xmlns="http://www.w3.org/2000/svg" fill-rule="evenodd" clip-rule="evenodd" stroke-linecap="round" stroke-linejoin="round" stroke-miterlimit="1.5"><path d="M700 900l-600 600m200-700h100m200 0h100m100-500v100m0 200v100m0 500v100m0-400v100m400-200h100m-400 0h100M900 700l600-600M700 700L100 100m800 800l600 600" fill="none" stroke="#000" stroke-width="8.03" stroke-dasharray="8.03,16.06,0,0"/><path fill="none" stroke="#000" stroke-width="8.03" d="M200 200h1200v1200H200z"/><path fill="none" stroke="#000" stroke-width="8.03" d="M100 100h1400v1400H100z"/><path fill="none" stroke="#000" stroke-width="8.03" d="M400 400h800v800H400z"/><path fill="none" stroke="#000" stroke-width="8.03" d="M300 300h1000v1000H300z"/><path fill="none" stroke="#000" stroke-width="8.03" d="M600 600h400v400H600z"/><path fill="none" stroke="#000" stroke-width="8.03" d="M700 700h200v200H700z"/><path fill="none" stroke="#000" stroke-width="8.03" d="M500 500h600v600H500zm300-100v200m0-500v200m200 500h200m100 0h200m-700 200v200m0 100v200M600 800H400m-100 0H100"/><circle cx="800" cy="200" r="20" fill="#ebebeb" stroke="#000" stroke-width="8.03"/><circle cx="1400" cy="200" r="20" fill="#ebebeb" stroke="#000" stroke-width="8.03"/><circle cx="1500" cy="100" r="20" fill="#ebebeb" stroke="#000" stroke-width="8.03"/><circle cx="800" cy="400" r="20" fill="#ebebeb" stroke="#000" stroke-width="8.03"/><circle cx="800" cy="500" r="20" fill="#ebebeb" stroke="#000" stroke-width="8.03"/><circle cx="1100" cy="500" r="20" fill="#ebebeb" stroke="#000" stroke-width="8.03"/><circle cx="500" cy="500" r="20" fill="#ebebeb" stroke="#000" stroke-width="8.03"/><circle cx="800" cy="300" r="20" fill="#ebebeb" stroke="#000" stroke-width="8.03"/><circle cx="800" cy="100" r="20" fill="#ebebeb" stroke="#000" stroke-width="8.03"/><circle cx="1300" cy="300" r="20" fill="#ebebeb" stroke="#000" stroke-width="8.03"/><circle cx="800" cy="700" r="20" fill="#ebebeb" stroke="#000" stroke-width="8.03"/><circle cx="900" cy="700" r="20" fill="#ebebeb" stroke="#000" stroke-width="8.03"/><circle cx="900" cy="900" r="20" fill="#ebebeb" stroke="#000" stroke-width="8.03"/><circle cx="1000" cy="600" r="20" fill="#ebebeb" stroke="#000" stroke-width="8.03"/><circle cx="1400" cy="800" r="20" fill="#ebebeb" stroke="#000" stroke-width="8.03"/><circle cx="1500" cy="800" r="20" fill="#ebebeb" stroke="#000" stroke-width="8.03"/><circle cx="1300" cy="800" r="20" fill="#ebebeb" stroke="#000" stroke-width="8.03"/><circle cx="200" cy="200" r="20" fill="#ebebeb" stroke="#000" stroke-width="8.03"/><circle cx="400" cy="400" r="20" fill="#ebebeb" stroke="#000" stroke-width="8.03"/><circle cx="300" cy="300" r="20" fill="#ebebeb" stroke="#000" stroke-width="8.03"/><circle cx="100" cy="100" r="20" fill="#ebebeb" stroke="#000" stroke-width="8.03"/><circle cx="800" cy="600" r="20" fill="#ebebeb" stroke="#000" stroke-width="8.03"/><circle cx="600" cy="600" r="20" fill="#ebebeb" stroke="#000" stroke-width="8.03"/><circle cx="700" cy="700" r="20" fill="#ebebeb" stroke="#000" stroke-width="8.03"/><circle cx="900" cy="800" r="20" fill="#ebebeb" stroke="#000" stroke-width="8.03"/><circle cx="800" cy="900" r="20" fill="#ebebeb" stroke="#000" stroke-width="8.03"/><circle cx="700" cy="800" r="20" fill="#ebebeb" stroke="#000" stroke-width="8.03"/><circle cx="700" cy="900" r="20" fill="#ebebeb" stroke="#000" stroke-width="8.03"/><circle cx="1200" cy="400" r="20" fill="#ebebeb" stroke="#000" stroke-width="8.03"/><circle cx="1000" cy="800" r="20" fill="#ebebeb" stroke="#000" stroke-width="8.03"/><circle cx="400" cy="800" r="20" fill="#ebebeb" stroke="#000" stroke-width="8.03"/><circle cx="600" cy="800" r="20" fill="#ebebeb" stroke="#000" stroke-width="8.03"/><circle cx="200" cy="800" r="20" fill="#ebebeb" stroke="#000" stroke-width="8.03"/><circle cx="100" cy="800" r="20" fill="#ebebeb" stroke="#000" stroke-width="8.03"/><circle cx="300" cy="800" r="20" fill="#ebebeb" stroke="#000" stroke-width="8.03"/><circle cx="500" cy="800" r="20" fill="#ebebeb" stroke="#000" stroke-width="8.03"/><circle cx="1200" cy="800" r="20" fill="#ebebeb" stroke="#000" stroke-width="8.03"/><circle cx="1100" cy="800" r="20" fill="#ebebeb" stroke="#000" stroke-width="8.03"/><circle cx="1200" cy="1200" r="20" fill="#ebebeb" stroke="#000" stroke-width="8.03"/><circle cx="1100" cy="1100" r="20" fill="#ebebeb" stroke="#000" stroke-width="8.03"/><circle cx="1300" cy="1300" r="20" fill="#ebebeb" stroke="#000" stroke-width="8.03"/><circle cx="1500" cy="1500" r="20" fill="#ebebeb" stroke="#000" stroke-width="8.03"/><circle cx="800" cy="1000" r="20" fill="#ebebeb" stroke="#000" stroke-width="8.03"/><circle cx="600" cy="1000" r="20" fill="#ebebeb" stroke="#000" stroke-width="8.03"/><circle cx="500" cy="1100" r="20" fill="#ebebeb" stroke="#000" stroke-width="8.03"/><circle cx="300" cy="1300" r="20" fill="#ebebeb" stroke="#000" stroke-width="8.03"/><circle cx="100" cy="1500" r="20" fill="#ebebeb" stroke="#000" stroke-width="8.03"/><circle cx="800" cy="1200" r="20" fill="#ebebeb" stroke="#000" stroke-width="8.03"/><circle cx="800" cy="1100" r="20" fill="#ebebeb" stroke="#000" stroke-width="8.03"/><circle cx="1400" cy="1400" r="20" fill="#ebebeb" stroke="#000" stroke-width="8.03"/><circle cx="400" cy="1200" r="20" fill="#ebebeb" stroke="#000" stroke-width="8.03"/><circle cx="200" cy="1400" r="20" fill="#ebebeb" stroke="#000" stroke-width="8.03"/><circle cx="800" cy="1400" r="20" fill="#ebebeb" stroke="#000" stroke-width="8.03"/><circle cx="800" cy="1300" r="20" fill="#ebebeb" stroke="#000" stroke-width="8.03"/><circle cx="800" cy="1500" r="20" fill="#ebebeb" stroke="#000" stroke-width="8.03"/><circle cx="1000" cy="1000" r="20" fill="#ebebeb" stroke="#000" stroke-width="8.03"/></svg>