<svg width="1400" height="1400" xmlns="http://www.w3.org/2000/svg" fill-rule="evenodd" clip-rule="evenodd" stroke-linecap="round" stroke-linejoin="round" stroke-miterlimit="1.5"><path d="M300 700h100m300-400v100m0 600v100m300-400h100M500 500L400 400M300 300L200 200m400 600L500 900m-100 100l-100 100m-100 100l-100 100m800-400l100 100m100 100l100 100M800 600l100-100m100-100l100-100m100-100l100-100" fill="none" stroke="#000" stroke-width="8.03" stroke-dasharray="8.03,24.1,0,0"/><path d="M1200 200v1000" fill="none" stroke="#000" stroke-width="8.03"/><path d="M1200 200H200" fill="none" stroke="#000" stroke-width="8.03" stroke-dasharray="8.03,24.1,0,0"/><path d="M200 200v1000" fill="none" stroke="#000" stroke-width="8.03"/><path d="M200 1200h1000M900 500v400M500 500v400" fill="none" stroke="#000" stroke-width="8.03" stroke-dasharray="8.03,24.1,0,0"/><path d="M900 500H500m0 400h400M100 100h1200v1200H100z" fill="none" stroke="#000" stroke-width="8.03"/><path fill="none" stroke="#000" stroke-width="8.03" d="M300 300h800v800H300z"/><path fill="none" stroke="#000" stroke-width="8.03" d="M400 400h600v600H400z"/><path fill="none" stroke="#000" stroke-width="8.03" d="M600 600h200v200H600zm100-500v199.156m0 99.265V600m100 100h198.242m101.508 0h200.247M700 800v199.478m0 102.282v198.242M600 700H401.629m-101.534 0H100"/><circle cx="700" cy="100" r="20" fill="#ebebeb" stroke="#000" stroke-width="8.03"/><circle cx="700" cy="200" r="20" fill="#ebebeb" stroke="#000" stroke-width="8.03"/><circle cx="700" cy="400" r="20" fill="#ebebeb" stroke="#000" stroke-width="8.03"/><circle cx="1300" cy="100" r="20" fill="#ebebeb" stroke="#000" stroke-width="8.03"/><circle cx="700" cy="300" r="20" fill="#ebebeb" stroke="#000" stroke-width="8.03"/><circle cx="900" cy="500" r="20" fill="#ebebeb" stroke="#000" stroke-width="8.03"/><circle cx="1300" cy="700" r="20" fill="#ebebeb" stroke="#000" stroke-width="8.03"/><circle cx="100" cy="100" r="20" fill="#ebebeb" stroke="#000" stroke-width="8.03"/><circle cx="300" cy="300" r="20" fill="#ebebeb" stroke="#000" stroke-width="8.03"/><circle cx="200" cy="200" r="20" fill="#ebebeb" stroke="#000" stroke-width="8.03"/><circle cx="400" cy="400" r="20" fill="#ebebeb" stroke="#000" stroke-width="8.03"/><circle cx="700" cy="500" r="20" fill="#ebebeb" stroke="#000" stroke-width="8.03"/><circle cx="500" cy="500" r="20" fill="#ebebeb" stroke="#000" stroke-width="8.03"/><circle cx="400" cy="700" r="20" fill="#ebebeb" stroke="#000" stroke-width="8.03"/><circle cx="200" cy="700" r="20" fill="#ebebeb" stroke="#000" stroke-width="8.03"/><circle cx="1100" cy="300" r="20" fill="#ebebeb" stroke="#000" stroke-width="8.03"/><circle cx="1200" cy="200" r="20" fill="#ebebeb" stroke="#000" stroke-width="8.03"/><circle cx="1000" cy="400" r="20" fill="#ebebeb" stroke="#000" stroke-width="8.03"/><circle cx="900" cy="700" r="20" fill="#ebebeb" stroke="#000" stroke-width="8.03"/><circle cx="300" cy="700" r="20" fill="#ebebeb" stroke="#000" stroke-width="8.03"/><circle cx="500" cy="700" r="20" fill="#ebebeb" stroke="#000" stroke-width="8.03"/><circle cx="100" cy="700" r="20" fill="#ebebeb" stroke="#000" stroke-width="8.03"/><circle cx="1100" cy="700" r="20" fill="#ebebeb" stroke="#000" stroke-width="8.03"/><circle cx="1200" cy="700" r="20" fill="#ebebeb" stroke="#000" stroke-width="8.03"/><circle cx="1000" cy="700" r="20" fill="#ebebeb" stroke="#000" stroke-width="8.03"/><circle cx="1100" cy="1100" r="20" fill="#ebebeb" stroke="#000" stroke-width="8.03"/><circle cx="700" cy="900" r="20" fill="#ebebeb" stroke="#000" stroke-width="8.03"/><circle cx="700" cy="800" r="20" fill="#ebebeb" stroke="#000" stroke-width="8.03"/><circle cx="800" cy="700" r="20" fill="#ebebeb" stroke="#000" stroke-width="8.03"/><circle cx="700" cy="600" r="20" fill="#ebebeb" stroke="#000" stroke-width="8.03"/><circle cx="600" cy="600" r="20" fill="#ebebeb" stroke="#000" stroke-width="8.03"/><circle cx="800" cy="600" r="20" fill="#ebebeb" stroke="#000" stroke-width="8.03"/><circle cx="800" cy="800" r="20" fill="#ebebeb" stroke="#000" stroke-width="8.03"/><circle cx="600" cy="800" r="20" fill="#ebebeb" stroke="#000" stroke-width="8.03"/><circle cx="600" cy="700" r="20" fill="#ebebeb" stroke="#000" stroke-width="8.03"/><circle cx="500" cy="900" r="20" fill="#ebebeb" stroke="#000" stroke-width="8.03"/><circle cx="400" cy="1000" r="20" fill="#ebebeb" stroke="#000" stroke-width="8.03"/><circle cx="200" cy="1200" r="20" fill="#ebebeb" stroke="#000" stroke-width="8.03"/><circle cx="700" cy="1100" r="20" fill="#ebebeb" stroke="#000" stroke-width="8.03"/><circle cx="1300" cy="1300" r="20" fill="#ebebeb" stroke="#000" stroke-width="8.03"/><circle cx="300" cy="1100" r="20" fill="#ebebeb" stroke="#000" stroke-width="8.03"/><circle cx="100" cy="1300" r="20" fill="#ebebeb" stroke="#000" stroke-width="8.03"/><circle cx="700" cy="1300" r="20" fill="#ebebeb" stroke="#000" stroke-width="8.03"/><circle cx="900" cy="900" r="20" fill="#ebebeb" stroke="#000" stroke-width="8.03"/><circle cx="1000" cy="1000" r="20" fill="#ebebeb" stroke="#000" stroke-width="8.03"/><circle cx="1200" cy="1200" r="20" fill="#ebebeb" stroke="#000" stroke-width="8.03"/><circle cx="700" cy="1000" r="20" fill="#ebebeb" stroke="#000" stroke-width="8.03"/><circle cx="700" cy="1200" r="20" fill="#ebebeb" stroke="#000" stroke-width="8.03"/></svg>