<svg width="800" height="800" xmlns="http://www.w3.org/2000/svg" fill-rule="evenodd" clip-rule="evenodd" stroke-linecap="round" stroke-linejoin="round" stroke-miterlimit="1.5"><path fill="#fff" stroke="#000" stroke-width="8.031" d="M100 100h600v600H100z"/><path d="M100 400h600M400 100v600" fill="none" stroke="#000" stroke-width="8.03"/><circle cx="800" cy="100" r="40" fill="#ebebeb" stroke="#000" stroke-width="16.06" transform="matrix(.5 0 0 .5 0 50)"/><circle cx="800" cy="100" r="40" fill="#ebebeb" stroke="#000" stroke-width="16.06" transform="matrix(.5 0 0 .5 0 350)"/><circle cx="800" cy="100" r="40" fill="#ebebeb" stroke="#000" stroke-width="16.06" transform="matrix(.5 0 0 .5 -300 50)"/><circle cx="800" cy="100" r="40" fill="#ebebeb" stroke="#000" stroke-width="16.06" transform="matrix(.5 0 0 .5 300 50)"/><circle cx="800" cy="100" r="40" fill="#ebebeb" stroke="#000" stroke-width="16.06" transform="matrix(.5 0 0 .5 300 350)"/><circle cx="800" cy="100" r="40" fill="#ebebeb" stroke="#000" stroke-width="16.06" transform="matrix(.5 0 0 .5 -300 350)"/><circle cx="800" cy="100" r="40" fill="#ebebeb" stroke="#000" stroke-width="16.06" transform="matrix(.5 0 0 .5 300 650)"/><circle cx="800" cy="100" r="40" fill="#ebebeb" stroke="#000" stroke-width="16.06" transform="matrix(.5 0 0 .5 0 650)"/><circle cx="800" cy="100" r="40" fill="#ebebeb" stroke="#000" stroke-width="16.06" transform="matrix(.5 0 0 .5 -300 650)"/></svg>