<svg width="810" height="810" xmlns="http://www.w3.org/2000/svg" fill-rule="evenodd" clip-rule="evenodd" stroke-linecap="round" stroke-linejoin="round" stroke-miterlimit="1.5"><path fill="none" stroke="#000" stroke-width="4" d="M5 5h800v800H5z"/><path d="M105 5v800M205 5v800m100 0V5m100 0v800m100 0V5M5 105h800M5 205h800M605 5v800m100 0V5M5 305h800m0 100H5m0 100h800m0 100H5m0 100h800" fill="none" stroke="#000" stroke-width="2"/><circle cx="55" cy="55" r="40" fill="#ebebeb" stroke="#000" stroke-width="4"/><circle cx="155" cy="55" r="40" fill="#ca0000" stroke="#000" stroke-width="4"/><circle cx="55" cy="155" r="40" fill="#ebebeb" stroke="#000" stroke-width="4"/><circle cx="155" cy="155" r="40" fill="#ebebeb" stroke="#000" stroke-width="4"/><circle cx="255" cy="55" r="40" fill="#ca0000" stroke="#000" stroke-width="4"/><circle cx="355" cy="55" r="40" fill="#ebebeb" stroke="#000" stroke-width="4"/><circle cx="255" cy="155" r="40" fill="#ebebeb" stroke="#000" stroke-width="4"/><circle cx="355" cy="155" r="40" fill="#1e00ca" stroke="#000" stroke-width="4"/><circle cx="455" cy="55" r="40" fill="#ebebeb" stroke="#000" stroke-width="4"/><circle cx="555" cy="55" r="40" fill="#ca0000" stroke="#000" stroke-width="4"/><circle cx="455" cy="155" r="40" fill="#ca0000" stroke="#000" stroke-width="4"/><circle cx="555" cy="155" r="40" fill="#ca0000" stroke="#000" stroke-width="4"/><circle cx="655" cy="55" r="40" fill="#ebebeb" stroke="#000" stroke-width="4"/><circle cx="755" cy="55" r="40" fill="#ca0000" stroke="#000" stroke-width="4"/><circle cx="655" cy="155" r="40" fill="#ebebeb" stroke="#000" stroke-width="4"/><circle cx="755" cy="155" r="40" fill="#ebebeb" stroke="#000" stroke-width="4"/><circle cx="55" cy="255" r="40" fill="#ebebeb" stroke="#000" stroke-width="4"/><circle cx="155" cy="255" r="40" fill="#ebebeb" stroke="#000" stroke-width="4"/><circle cx="55" cy="355" r="40" fill="#ca0000" stroke="#000" stroke-width="4"/><circle cx="155" cy="355" r="40" fill="#ebebeb" stroke="#000" stroke-width="4"/><circle cx="255" cy="255" r="40" fill="#ebebeb" stroke="#000" stroke-width="4"/><circle cx="355" cy="255" r="40" fill="#ebebeb" stroke="#000" stroke-width="4"/><circle cx="255" cy="355" r="40" fill="#ca0000" stroke="#000" stroke-width="4"/><circle cx="355" cy="355" r="40" fill="#ca0000" stroke="#000" stroke-width="4"/><circle cx="455" cy="255" r="40" fill="#1e00ca" stroke="#000" stroke-width="4"/><circle cx="555" cy="255" r="40" fill="#ebebeb" stroke="#000" stroke-width="4"/><circle cx="455" cy="355" r="40" fill="#ebebeb" stroke="#000" stroke-width="4"/><circle cx="555" cy="355" r="40" fill="#ebebeb" stroke="#000" stroke-width="4"/><circle cx="655" cy="255" r="40" fill="#ca0000" stroke="#000" stroke-width="4"/><circle cx="755" cy="255" r="40" fill="#ebebeb" stroke="#000" stroke-width="4"/><circle cx="655" cy="355" r="40" fill="#ebebeb" stroke="#000" stroke-width="4"/><circle cx="755" cy="355" r="40" fill="#1e00ca" stroke="#000" stroke-width="4"/><circle cx="55" cy="455" r="40" fill="#ebebeb" stroke="#000" stroke-width="4"/><circle cx="155" cy="455" r="40" fill="#ebebeb" stroke="#000" stroke-width="4"/><circle cx="55" cy="555" r="40" fill="#1e00ca" stroke="#000" stroke-width="4"/><circle cx="155" cy="555" r="40" fill="#ebebeb" stroke="#000" stroke-width="4"/><circle cx="255" cy="455" r="40" fill="#ebebeb" stroke="#000" stroke-width="4"/><circle cx="355" cy="455" r="40" fill="#ca0000" stroke="#000" stroke-width="4"/><circle cx="255" cy="555" r="40" fill="#ca0000" stroke="#000" stroke-width="4"/><circle cx="355" cy="555" r="40" fill="#1e00ca" stroke="#000" stroke-width="4"/><circle cx="455" cy="455" r="40" fill="#ebebeb" stroke="#000" stroke-width="4"/><circle cx="555" cy="455" r="40" fill="#1e00ca" stroke="#000" stroke-width="4"/><circle cx="455" cy="555" r="40" fill="#ca0000" stroke="#000" stroke-width="4"/><circle cx="555" cy="555" r="40" fill="#ca0000" stroke="#000" stroke-width="4"/><circle cx="655" cy="455" r="40" fill="#ca0000" stroke="#000" stroke-width="4"/><circle cx="755" cy="455" r="40" fill="#1e00ca" stroke="#000" stroke-width="4"/><circle cx="655" cy="555" r="40" fill="#ebebeb" stroke="#000" stroke-width="4"/><circle cx="755" cy="555" r="40" fill="#ebebeb" stroke="#000" stroke-width="4"/><circle cx="55" cy="655" r="40" fill="#ca0000" stroke="#000" stroke-width="4"/><circle cx="155" cy="655" r="40" fill="#ca0000" stroke="#000" stroke-width="4"/><circle cx="55" cy="755" r="40" fill="#ebebeb" stroke="#000" stroke-width="4"/><circle cx="155" cy="755" r="40" fill="#ebebeb" stroke="#000" stroke-width="4"/><circle cx="255" cy="655" r="40" fill="#ca0000" stroke="#000" stroke-width="4"/><circle cx="355" cy="655" r="40" fill="#ebebeb" stroke="#000" stroke-width="4"/><circle cx="255" cy="755" r="40" fill="#ebebeb" stroke="#000" stroke-width="4"/><circle cx="355" cy="755" r="40" fill="#ebebeb" stroke="#000" stroke-width="4"/><circle cx="455" cy="655" r="40" fill="#ebebeb" stroke="#000" stroke-width="4"/><circle cx="555" cy="655" r="40" fill="#ebebeb" stroke="#000" stroke-width="4"/><circle cx="455" cy="755" r="40" fill="#ebebeb" stroke="#000" stroke-width="4"/><circle cx="555" cy="755" r="40" fill="#ca0000" stroke="#000" stroke-width="4"/><circle cx="655" cy="655" r="40" fill="#1e00ca" stroke="#000" stroke-width="4"/><circle cx="755" cy="655" r="40" fill="#1e00ca" stroke="#000" stroke-width="4"/><circle cx="655" cy="755" r="40" fill="#ca0000" stroke="#000" stroke-width="4"/><circle cx="755" cy="755" r="40" fill="#1e00ca" stroke="#000" stroke-width="4"/></svg>