<svg width="800" height="800" viewBox="0 0 1600 800" xmlns="http://www.w3.org/2000/svg" fill-rule="evenodd" clip-rule="evenodd" stroke-linecap="round" stroke-linejoin="round" stroke-miterlimit="1.5"><g stroke="#000" stroke-width="8.03"><path d="M960 640L860 740m580-580l100-100m-680.278-.278h680.556v680.556H859.722z" fill="none"/><path fill="none" d="M956.944 156.944h486.111v486.111H956.944z"/><path fill="none" d="M1054.17 254.167h291.667v291.667H1054.17zM1200 59.722v194.445M1345.83 400h194.445M1200 545.833v194.445M1054.17 400H859.725"/><circle cx="1200" cy="59.722" r="9.722" fill="#ebebeb"/><circle cx="1540.28" cy="59.722" r="9.722" fill="#ebebeb"/><circle cx="1200" cy="156.944" r="9.722" fill="#ebebeb"/><circle cx="1443.06" cy="156.944" r="9.722" fill="#ebebeb"/><circle cx="1540.28" cy="400" r="9.722" fill="#ebebeb"/><circle cx="859.722" cy="59.722" r="9.722" fill="#ebebeb"/><circle cx="956.944" cy="156.944" r="9.722" fill="#ebebeb"/><circle cx="1200" cy="254.167" r="9.722" fill="#ebebeb"/><circle cx="1054.17" cy="254.167" r="9.722" fill="#ebebeb"/><circle cx="1345.83" cy="254.167" r="9.722" fill="#ebebeb"/><circle cx="1345.83" cy="400" r="9.722" fill="#ebebeb"/><circle cx="956.944" cy="400" r="9.722" fill="#ebebeb"/><circle cx="1054.17" cy="400" r="9.722" fill="#ebebeb"/><circle cx="859.722" cy="400" r="9.722" fill="#ebebeb"/><circle cx="1443.06" cy="400" r="9.722" fill="#ebebeb"/><circle cx="1345.83" cy="545.833" r="9.722" fill="#ebebeb"/><circle cx="1200" cy="545.833" r="9.722" fill="#ebebeb"/><circle cx="1054.17" cy="545.833" r="9.722" fill="#ebebeb"/><circle cx="1200" cy="643.056" r="9.722" fill="#ebebeb"/><circle cx="1443.06" cy="643.056" r="9.722" fill="#ebebeb"/><circle cx="956.944" cy="643.056" r="9.722" fill="#ebebeb"/><circle cx="859.722" cy="740.278" r="9.722" fill="#ebebeb"/><circle cx="1200" cy="740.278" r="9.722" fill="#ebebeb"/><circle cx="1540.28" cy="740.278" r="9.722" fill="#ebebeb"/></g><g stroke="#000" stroke-width="8.03"><path d="M160.056 640.056L60 740m480-480l100-100M59.722 59.722h680.556v680.556H59.722z" fill="none"/><path fill="none" d="M156.944 156.944h486.111v486.111H156.944z"/><path fill="none" d="M254.167 254.167h291.667v291.667H254.167zM400 59.722v194.445M545.833 400h194.445M400 545.833v194.445M254.167 400H59.722"/><circle cx="400" cy="59.722" r="9.722" fill="#ebebeb"/><circle cx="740.278" cy="59.722" r="9.722" fill="#ebebeb"/><circle cx="400" cy="156.944" r="9.722" fill="#ebebeb"/><circle cx="643.056" cy="156.944" r="9.722" fill="#ebebeb"/><circle cx="740.278" cy="400" r="9.722" fill="#ebebeb"/><circle cx="59.722" cy="59.722" r="9.722" fill="#ebebeb"/><circle cx="156.944" cy="156.944" r="9.722" fill="#ebebeb"/><circle cx="400" cy="254.167" r="9.722" fill="#ebebeb"/><circle cx="254.167" cy="254.167" r="9.722" fill="#ebebeb"/><circle cx="545.833" cy="254.167" r="9.722" fill="#ebebeb"/><circle cx="545.833" cy="400" r="9.722" fill="#ebebeb"/><circle cx="156.944" cy="400" r="9.722" fill="#ebebeb"/><circle cx="254.167" cy="400" r="9.722" fill="#ebebeb"/><circle cx="59.722" cy="400" r="9.722" fill="#ebebeb"/><circle cx="643.056" cy="400" r="9.722" fill="#ebebeb"/><circle cx="545.833" cy="545.833" r="9.722" fill="#ebebeb"/><circle cx="400" cy="545.833" r="9.722" fill="#ebebeb"/><circle cx="254.167" cy="545.833" r="9.722" fill="#ebebeb"/><circle cx="400" cy="643.056" r="9.722" fill="#ebebeb"/><circle cx="643.056" cy="643.056" r="9.722" fill="#ebebeb"/><circle cx="156.944" cy="643.056" r="9.722" fill="#ebebeb"/><circle cx="59.722" cy="740.278" r="9.722" fill="#ebebeb"/><circle cx="400" cy="740.278" r="9.722" fill="#ebebeb"/><circle cx="740.278" cy="740.278" r="9.722" fill="#ebebeb"/></g></svg>