<svg width="1400" height="1400" xmlns="http://www.w3.org/2000/svg" fill-rule="evenodd" clip-rule="evenodd" stroke-linecap="round" stroke-linejoin="round" stroke-miterlimit="1.5"><path d="M300 100h400l400 400 200-200v400l-400 400 200 200H700L300 900l-200 200V700l400-400-200-200z" fill="#fff" stroke="#000" stroke-width="8.03"/><path fill="none" stroke="#000" stroke-width="8.031" d="M500 500h400v400H500z"/><path d="M300 100l400 400M500 100l400 400M300 100h400M500 300h400" fill="none" stroke="#000" stroke-width="8.03"/><circle cx="800" cy="100" r="40" fill="#ebebeb" stroke="#000" stroke-width="16.06" transform="matrix(.5 0 0 .5 100 50)"/><circle cx="800" cy="100" r="40" fill="#ebebeb" stroke="#000" stroke-width="16.06" transform="matrix(.5 0 0 .5 -100 50)"/><circle cx="800" cy="100" r="40" fill="#ebebeb" stroke="#000" stroke-width="16.06" transform="matrix(.5 0 0 .5 300 250)"/><circle cx="800" cy="100" r="40" fill="#ebebeb" stroke="#000" stroke-width="16.06" transform="matrix(.5 0 0 .5 300 50)"/><circle cx="800" cy="100" r="40" fill="#ebebeb" stroke="#000" stroke-width="16.06" transform="matrix(.5 0 0 .5 500 250)"/><path d="M1100 1300L700 900m200 400L500 900m600 400H700m200-200H500" fill="none" stroke="#000" stroke-width="8.03"/><circle cx="800" cy="100" r="40" fill="#ebebeb" stroke="#000" stroke-width="16.06" transform="rotate(180 650 675) scale(.5)"/><circle cx="800" cy="100" r="40" fill="#ebebeb" stroke="#000" stroke-width="16.06" transform="rotate(180 750 675) scale(.5)"/><circle cx="800" cy="100" r="40" fill="#ebebeb" stroke="#000" stroke-width="16.06" transform="rotate(180 550 575) scale(.5)"/><circle cx="800" cy="100" r="40" fill="#ebebeb" stroke="#000" stroke-width="16.06" transform="rotate(180 550 675) scale(.5)"/><circle cx="800" cy="100" r="40" fill="#ebebeb" stroke="#000" stroke-width="16.06" transform="matrix(-.5 0 0 -.5 900 1150)"/><path d="M100 1100l400-400M100 900l400-400m-400 600V700m200 200V500" fill="none" stroke="#000" stroke-width="8.03"/><circle cx="800" cy="100" r="40" fill="#ebebeb" stroke="#000" stroke-width="16.06" transform="matrix(0 -.5 .5 0 50 1300)"/><circle cx="800" cy="100" r="40" fill="#ebebeb" stroke="#000" stroke-width="16.06" transform="matrix(0 -.5 .5 0 250 1300)"/><circle cx="800" cy="100" r="40" fill="#ebebeb" stroke="#000" stroke-width="16.06" transform="matrix(0 -.5 .5 0 50 1500)"/><circle cx="800" cy="100" r="40" fill="#ebebeb" stroke="#000" stroke-width="16.06" transform="matrix(0 -.5 .5 0 250 1100)"/><circle cx="800" cy="100" r="40" fill="#ebebeb" stroke="#000" stroke-width="16.06" transform="matrix(0 -.5 .5 0 50 1100)"/><circle cx="800" cy="100" r="40" fill="#ebebeb" stroke="#000" stroke-width="16.06" transform="matrix(0 -.5 .5 0 250 900)"/><path d="M1300 300L900 700m400-200L900 900m400-600v400m-200-200v400" fill="none" stroke="#000" stroke-width="8.03"/><circle cx="800" cy="100" r="40" fill="#ebebeb" stroke="#000" stroke-width="16.06" transform="matrix(0 .5 -.5 0 1350 100)"/><circle cx="800" cy="100" r="40" fill="#ebebeb" stroke="#000" stroke-width="16.06" transform="matrix(0 .5 -.5 0 1150 100)"/><circle cx="800" cy="100" r="40" fill="#ebebeb" stroke="#000" stroke-width="16.06" transform="rotate(90 725 625) scale(.5)"/><circle cx="800" cy="100" r="40" fill="#ebebeb" stroke="#000" stroke-width="16.06" transform="matrix(0 .5 -.5 0 1150 300)"/><circle cx="800" cy="100" r="40" fill="#ebebeb" stroke="#000" stroke-width="16.06" transform="matrix(0 .5 -.5 0 1350 300)"/><circle cx="800" cy="100" r="40" fill="#ebebeb" stroke="#000" stroke-width="16.06" transform="matrix(0 .5 -.5 0 1150 500)"/><circle cx="800" cy="100" r="40" fill="#ebebeb" stroke="#000" stroke-width="16.06" transform="matrix(.5 0 0 .5 500 450)"/><circle cx="800" cy="100" r="40" fill="#ebebeb" stroke="#000" stroke-width="16.06" transform="matrix(.5 0 0 .5 300 450)"/><circle cx="800" cy="100" r="40" fill="#ebebeb" stroke="#000" stroke-width="16.06" transform="matrix(.5 0 0 .5 100 450)"/><circle cx="800" cy="100" r="40" fill="#ebebeb" stroke="#000" stroke-width="16.06" transform="matrix(.5 0 0 .5 500 650)"/><circle cx="800" cy="100" r="40" fill="#ebebeb" stroke="#000" stroke-width="16.06" transform="matrix(.5 0 0 .5 100 650)"/><circle cx="800" cy="100" r="40" fill="#ebebeb" stroke="#000" stroke-width="16.06" transform="matrix(.5 0 0 .5 300 850)"/><circle cx="800" cy="100" r="40" fill="#ebebeb" stroke="#000" stroke-width="16.06" transform="matrix(.5 0 0 .5 100 850)"/><circle cx="800" cy="100" r="40" fill="#ebebeb" stroke="#000" stroke-width="16.06" transform="matrix(.5 0 0 .5 500 850)"/><circle cx="800" cy="100" r="40" fill="#ebebeb" stroke="#000" stroke-width="16.06" transform="rotate(180 650 575) scale(.5)"/><circle cx="800" cy="100" r="40" fill="#ebebeb" stroke="#000" stroke-width="16.06" transform="matrix(.5 0 0 .5 100 250)"/></svg>