<svg width="270" height="270" xmlns="http://www.w3.org/2000/svg" fill-rule="evenodd" clip-rule="evenodd" stroke-linejoin="round" stroke-miterlimit="2"><path fill="none" d="M-25-25h320v320H-25z"/><path d="M252.456 112.342l-4.452.696a1.999 1.999 0 00-1.647 1.557l-3.212 14.985a2.001 2.001 0 001.957 2.419h4.303a2 2 0 001.955-1.581l3.361-15.68a2.001 2.001 0 00-2.265-2.396m2.265 42.921l-3.361-15.681a2 2 0 00-1.955-1.581h-4.303a2 2 0 00-1.957 2.419l3.212 14.985c.173.81.828 1.429 1.647 1.557l4.452.695a2 2 0 002.265-2.394m-24.786-39.401l-5.653.882a1.999 1.999 0 00-1.646 1.558l-2.416 11.278a2 2 0 001.956 2.419h5.462a2 2 0 001.955-1.581l2.606-12.162a2 2 0 00-2.264-2.394m2.264 35.882l-2.606-12.162a2 2 0 00-1.955-1.581h-5.462a2 2 0 00-1.956 2.419l2.416 11.278c.173.811.828 1.43 1.646 1.558l5.653.883a2 2 0 002.264-2.395m-25.985-32.176l-4.338.677a2 2 0 00-1.644 1.542l-1.728 7.778a2 2 0 001.952 2.434h4.256a2 2 0 001.955-1.581l1.811-8.456a1.999 1.999 0 00-2.264-2.394m2.264 28.469l-1.811-8.455a2 2 0 00-1.955-1.581h-4.256a2 2 0 00-1.952 2.434l1.728 7.778c.178.803.83 1.415 1.644 1.542l4.338.678a2 2 0 002.264-2.396m-32.418 35.711l-4.277 6.722a2.004 2.004 0 00.071 2.253l2.589 3.547a2 2 0 003.294-.093l4.698-7.26a2 2 0 00-.264-2.501l-3.009-3.008a2 2 0 00-3.102.34m7.346-4.585l3.009 3.009a2 2 0 002.501.265l7.26-4.699a2 2 0 00.092-3.293l-3.547-2.589a2 2 0 00-2.252-.072l-6.722 4.278a2 2 0 00-.341 3.101m15.358 15.358l3.862 3.862a2.002 2.002 0 002.501.266l10.442-6.757a2 2 0 00.093-3.295l-4.621-3.372a2.001 2.001 0 00-2.266-.064l-9.683 6.267a1.999 1.999 0 00-.328 3.093m29.406 4.793l-12.867 8.325a2 2 0 00-.327 3.094l3.042 3.043a2 2 0 002.501.264l13.463-8.712a2 2 0 00.093-3.295l-3.64-2.656a1.998 1.998 0 00-2.265-.063m-14.396 18.706l-3.044-3.043a1.999 1.999 0 00-3.092.327l-8.326 12.867a2.001 2.001 0 00.064 2.266l2.656 3.639a2 2 0 003.295-.092l8.712-13.463a2.002 2.002 0 00-.265-2.501m-15.392-15.392l-3.863-3.862a1.998 1.998 0 00-3.092.327l-6.267 9.684a1.998 1.998 0 00.063 2.265l3.373 4.621a2 2 0 003.295-.092l6.755-10.443a1.998 1.998 0 00-.264-2.5m-27.097-67.626c0-20.041-16.246-36.286-36.286-36.286-20.041 0-36.286 16.245-36.286 36.286 0 20.04 16.245 36.286 36.286 36.286 20.04 0 36.286-16.246 36.286-36.286m-77.348 48.746a2 2 0 00-3.102-.34l-3.008 3.008a2 2 0 00-.266 2.501l4.699 7.26a2 2 0 003.295.093l2.588-3.547a2 2 0 00.071-2.253l-4.277-6.722zm-7.687-7.686l-6.721-4.278a2.002 2.002 0 00-2.253.072l-3.547 2.589a1.999 1.999 0 00.093 3.293l7.259 4.699a2 2 0 002.501-.265l3.009-3.009a2 2 0 00-.341-3.101m-1.412 32.715l-6.267-9.684a2 2 0 00-3.093-.327l-3.862 3.862a1.998 1.998 0 00-.265 2.5l6.756 10.443a2 2 0 003.295.092l3.372-4.621c.489-.669.514-1.57.064-2.265m-14.153 19.394l-8.325-12.867a2 2 0 00-3.093-.327l-3.043 3.043a2 2 0 00-.266 2.501l8.713 13.463a2 2 0 003.294.092l2.657-3.639c.488-.67.513-1.571.063-2.266m-15.99-20.532l-12.867-8.325a2 2 0 00-2.266.063l-3.64 2.656a2 2 0 00.093 3.295l13.463 8.712a2 2 0 002.501-.264l3.043-3.043a2 2 0 00-.327-3.094m-.267-15.747l10.443 6.757a2 2 0 002.5-.266l3.862-3.862a2 2 0 00-.327-3.093l-9.683-6.267a2.001 2.001 0 00-2.266.064l-4.622 3.372a2 2 0 00.093 3.295m39.509-105.64l4.277-6.722a1.998 1.998 0 00-.071-2.252l-2.588-3.547a2 2 0 00-3.295.092l-4.699 7.26a2 2 0 00.266 2.5l3.008 3.009a2 2 0 003.102-.34m-7.346 4.585l-3.009-3.009a2 2 0 00-2.501-.265l-7.259 4.698a2 2 0 00-.093 3.295l3.547 2.588a2.002 2.002 0 002.253.072l6.721-4.277a2 2 0 00.341-3.102M71.233 75.479l-3.862-3.862a2 2 0 00-2.5-.265l-10.443 6.757a2 2 0 00-.093 3.295l4.622 3.372c.669.488 1.57.513 2.266.063l9.683-6.267a2 2 0 00.327-3.093m-29.405-4.792l12.867-8.325a2 2 0 00.327-3.094l-3.043-3.043a2 2 0 00-2.501-.265l-13.463 8.712a2 2 0 00-.093 3.295l3.64 2.656a2 2 0 002.266.064m14.396-18.706l3.043 3.043a2 2 0 003.093-.328l8.325-12.867a2 2 0 00-.063-2.265l-2.657-3.64a2 2 0 00-3.294.092L55.958 49.48a2 2 0 00.266 2.501m15.392 15.391l3.862 3.863a2 2 0 003.093-.328l6.267-9.683a2 2 0 00-.064-2.266l-3.372-4.621a2 2 0 00-3.295.093l-6.756 10.442a1.998 1.998 0 00.265 2.5m104.444 18.88a2 2 0 003.102.34l3.009-3.009a1.998 1.998 0 00.264-2.5l-4.698-7.26a2 2 0 00-3.294-.092l-2.589 3.547a2.002 2.002 0 00-.071 2.252l4.277 6.722zm7.687 7.687l6.722 4.277a2 2 0 002.252-.072l3.547-2.588a2.001 2.001 0 00-.092-3.295l-7.26-4.698a2 2 0 00-2.501.265l-3.009 3.009a2.001 2.001 0 00.341 3.102m1.413-32.715l6.267 9.683a1.999 1.999 0 003.092.328l3.863-3.863a1.998 1.998 0 00.264-2.5l-6.755-10.442a2 2 0 00-3.295-.093l-3.373 4.621a2 2 0 00-.063 2.266m14.152-19.395l8.326 12.867a1.999 1.999 0 003.092.328l3.044-3.043a2.002 2.002 0 00.265-2.501l-8.712-13.464a2 2 0 00-3.295-.092l-2.656 3.64a2 2 0 00-.064 2.265m15.991 20.533l12.867 8.325c.695.45 1.596.425 2.265-.064l3.64-2.656a2 2 0 00-.093-3.295l-13.463-8.712a2 2 0 00-2.501.265l-3.042 3.043a2 2 0 00.327 3.094m.266 15.747l-10.442-6.757a2 2 0 00-2.501.265l-3.862 3.862c-.901.9-.742 2.402.328 3.093l9.683 6.267c.696.45 1.596.425 2.266-.063l4.621-3.372a2 2 0 00-.093-3.295M138 249.406a2 2 0 001.581 1.956l15.681 3.36a2 2 0 002.394-2.265l-.695-4.452a1.998 1.998 0 00-1.557-1.646l-14.985-3.212a2 2 0 00-2.419 1.956v4.303zm0-21.767a2 2 0 001.581 1.955l12.161 2.606a2 2 0 002.396-2.264l-.883-5.653a2 2 0 00-1.558-1.646l-11.278-2.416a2 2 0 00-2.419 1.956v5.462zm0-22.926a2 2 0 001.581 1.955l8.455 1.812a2.001 2.001 0 002.396-2.265l-.678-4.338a2 2 0 00-1.543-1.643l-7.777-1.729a2 2 0 00-2.434 1.953v4.255zm-6.002-4.255c0-1.28-1.186-2.23-2.434-1.953l-7.778 1.729a2 2 0 00-1.542 1.643l-.678 4.338a2 2 0 002.395 2.265l8.455-1.812a1.999 1.999 0 001.582-1.955v-4.255zm0 21.719a2 2 0 00-2.419-1.956l-11.279 2.416a2 2 0 00-1.557 1.646l-.883 5.653a2 2 0 002.395 2.264l12.161-2.606a1.999 1.999 0 001.582-1.955v-5.462zm0 22.926a2 2 0 00-2.419-1.956l-14.985 3.212c-.81.172-1.43.828-1.557 1.646l-.696 4.452a2 2 0 002.395 2.265l15.68-3.36a2 2 0 001.582-1.956v-4.303zM71.494 129.565l-1.728-7.778a2.002 2.002 0 00-1.644-1.542l-4.338-.677a2 2 0 00-2.265 2.394l1.812 8.456a2 2 0 001.955 1.581h4.255a2 2 0 001.953-2.434m-1.953 8.436h-4.255a2 2 0 00-1.955 1.581l-1.812 8.455a2.001 2.001 0 002.265 2.396l4.338-.678a2.001 2.001 0 001.644-1.542l1.728-7.778a2.001 2.001 0 00-1.953-2.434m-19.763-8.421l-2.416-11.278a2 2 0 00-1.647-1.558l-5.653-.882a2 2 0 00-2.264 2.394l2.607 12.162a2 2 0 001.955 1.581h5.462a2 2 0 001.956-2.419m-1.956 8.421H42.36a2 2 0 00-1.955 1.581l-2.607 12.162a2 2 0 002.264 2.395l5.653-.883a2 2 0 001.647-1.558l2.416-11.278a2 2 0 00-1.956-2.419m-20.97-8.421l-3.211-14.985a2.001 2.001 0 00-1.647-1.557l-4.453-.696a2 2 0 00-2.264 2.396l3.36 15.68a2 2 0 001.956 1.581h4.303a2 2 0 001.956-2.419m-1.956 8.421h-4.303a2 2 0 00-1.956 1.581l-3.36 15.681a2 2 0 002.264 2.394l4.453-.695a2.001 2.001 0 001.647-1.557l3.211-14.985a2 2 0 00-1.956-2.419M131.998 20.594c0-.943-.659-1.758-1.582-1.955l-15.68-3.36a2 2 0 00-2.395 2.264l.696 4.452a1.999 1.999 0 001.557 1.647l14.985 3.212a2.001 2.001 0 002.419-1.956v-4.304zm0 21.768a2 2 0 00-1.582-1.956L118.255 37.8a2 2 0 00-2.395 2.264l.883 5.653a1.999 1.999 0 001.557 1.646l11.279 2.416a2 2 0 002.419-1.956v-5.461zm0 22.925c0-.943-.659-1.758-1.582-1.955l-8.455-1.811a2 2 0 00-2.395 2.264l.678 4.338a2.001 2.001 0 001.542 1.644l7.778 1.728a2 2 0 002.434-1.953v-4.255zM138 69.542a2 2 0 002.434 1.953l7.777-1.728a2 2 0 001.543-1.644l.678-4.338a2.001 2.001 0 00-2.396-2.264l-8.455 1.811A2 2 0 00138 65.287v4.255zm0-21.719a2 2 0 002.419 1.956l11.278-2.416a1.999 1.999 0 001.558-1.646l.883-5.653a2 2 0 00-2.396-2.264l-12.161 2.606A2 2 0 00138 42.362v5.461zm0-22.925a2 2 0 002.419 1.956l14.985-3.212a2 2 0 001.557-1.647l.695-4.452a1.999 1.999 0 00-2.394-2.264l-15.681 3.36A2 2 0 00138 20.594v4.304zM257.676 140.42l4.74 22.118a2 2 0 01-2.265 2.395l-63.244-9.881a1.999 1.999 0 01-1.643-1.542l-3.1-13.942a2 2 0 00-1.952-1.567h-.875a.994.994 0 00-.989.93c-.859 11.817-5.556 22.565-12.85 31.013a.993.993 0 00.044 1.356l.621.62a2 2 0 002.487.274l12.05-7.668a2.002 2.002 0 012.253.071l51.708 37.733a2 2 0 01-.093 3.295l-18.991 12.288a2.002 2.002 0 00-.327 3.094l.967.967c.78.78.78 2.047 0 2.828l-1.416 1.416a2 2 0 01-2.829 0l-.967-.967a2 2 0 00-3.093.327l-12.288 18.992a2 2 0 01-3.295.092l-37.733-51.708a2 2 0 01-.072-2.253l7.667-12.049a2 2 0 00-.273-2.488l-.62-.62a.994.994 0 00-1.357-.044c-8.446 7.294-19.195 11.992-31.012 12.85a.995.995 0 00-.93.99l.001.874c0 .937.65 1.748 1.565 1.951l13.944 3.1a2.002 2.002 0 011.542 1.643l9.881 63.245a2 2 0 01-2.395 2.264l-22.118-4.74a2 2 0 00-2.419 1.956V261a2 2 0 01-2 2h-2.002a2 2 0 01-2-2v-1.367a2 2 0 00-2.419-1.956l-22.118 4.74a2 2 0 01-2.395-2.264l9.881-63.245a2.001 2.001 0 011.542-1.643l13.943-3.099a2 2 0 001.566-1.953v-.874a.995.995 0 00-.93-.989c-11.817-.859-22.565-5.557-31.011-12.852a.994.994 0 00-1.357.044l-.621.622a2 2 0 00-.273 2.488l7.668 12.049a2.002 2.002 0 01-.072 2.253l-37.734 51.708a2 2 0 01-3.295-.092l-12.288-18.992a2 2 0 00-3.093-.327l-.967.967a2 2 0 01-2.828 0l-1.416-1.416a2 2 0 010-2.828l.967-.967c.9-.9.741-2.402-.328-3.094l-18.991-12.288a2 2 0 01-.092-3.295l51.707-37.733a2.002 2.002 0 012.253-.071l12.05 7.667a2.001 2.001 0 002.488-.273l.621-.622a.992.992 0 00.044-1.356c-7.293-8.447-11.99-19.196-12.848-31.011a.992.992 0 00-.989-.93h-.878c-.937 0-1.748.652-1.952 1.566l-3.099 13.943a2 2 0 01-1.643 1.542l-63.245 9.881a2 2 0 01-2.264-2.395l4.74-22.118a2 2 0 00-1.956-2.419H8.999a2 2 0 01-2-2v-2.002a2 2 0 012-2h1.367a2.001 2.001 0 001.956-2.419l-4.74-22.118a2 2 0 012.264-2.395l63.244 9.881c.813.127 1.466.74 1.644 1.542l3.099 13.943a2 2 0 001.953 1.566h.878a.994.994 0 00.989-.929c.859-11.816 5.556-22.564 12.85-31.009a.993.993 0 00-.044-1.357l-.624-.624a1.999 1.999 0 00-2.487-.273l-12.051 7.668a2.004 2.004 0 01-2.253-.071L25.337 67.67a2 2 0 01.092-3.295L44.42 52.087a2 2 0 00.328-3.094l-.967-.966a2 2 0 010-2.829l1.416-1.416a2 2 0 012.828 0l.967.967a2 2 0 003.093-.327l12.288-18.991a2 2 0 013.295-.093l37.734 51.708a2 2 0 01.072 2.252l-7.668 12.051c-.503.79-.39 1.824.273 2.487l.625.625c.37.37.96.386 1.356.043 8.446-7.293 19.193-11.99 31.008-12.849a.994.994 0 00.93-.989v-.88a2 2 0 00-1.566-1.952l-13.943-3.098a2.002 2.002 0 01-1.542-1.644l-9.881-63.244a2 2 0 012.395-2.265l22.118 4.739a1.999 1.999 0 002.419-1.955V9a2 2 0 012-2H136a2 2 0 012 2v1.367a1.999 1.999 0 002.419 1.955l22.118-4.739a2 2 0 012.395 2.265l-9.881 63.244a2.004 2.004 0 01-1.542 1.644l-13.943 3.098A2.002 2.002 0 00138 79.787v.879c0 .525.407.951.93.989 11.815.859 22.563 5.555 31.009 12.849a.995.995 0 001.357-.044l.623-.624a2 2 0 00.272-2.487l-7.667-12.051a1.998 1.998 0 01.072-2.252l37.733-51.708a2 2 0 013.295.093l12.288 18.99a2 2 0 003.093.328l.967-.967a2 2 0 012.829 0l1.416 1.416c.78.782.78 2.048 0 2.829l-.967.966c-.9.901-.741 2.403.327 3.094l18.991 12.288a2 2 0 01.093 3.295l-51.708 37.734a2.004 2.004 0 01-2.253.071l-12.05-7.667a1.998 1.998 0 00-2.487.272l-.623.623a.994.994 0 00-.044 1.357c7.294 8.446 11.992 19.194 12.851 31.01.038.523.465.93.99.929h.876a2 2 0 001.951-1.565l3.1-13.944a2 2 0 011.643-1.542l63.244-9.881a2 2 0 012.265 2.395l-4.74 22.118a2 2 0 001.956 2.419h1.367a2 2 0 012 2v2.002a2 2 0 01-2 2h-1.367a2 2 0 00-1.956 2.419m-97.85-5.419c0 13.712-11.116 24.828-24.828 24.828-13.711 0-24.827-11.116-24.827-24.828s11.116-24.827 24.827-24.827c13.712 0 24.828 11.115 24.828 24.827" fill-rule="nonzero"/></svg>