<svg width="290" height="290" xmlns="http://www.w3.org/2000/svg" fill-rule="evenodd" clip-rule="evenodd" stroke-linejoin="round" stroke-miterlimit="2"><path fill="none" d="M-15-15h320v320H-15z"/><path d="M284.202 131.81c7.287-.472 7.901-4.633.312-9.237-34.022-20.638-101.31-63.015-117.308-77.886-7.245-6.735-13.676-13.315-29.915-1.751C68.509 91.915 29.8 110.722 8.865 121.825c-10.259 5.44-11.128 10.334 11.357 10.386a611.75 611.75 0 0010.487-.083c6.119-.093 18.028.395 29.529-8.507 22.494-17.412 58.183-49.165 78.067-64.166 10.819-8.162 13.445-8.094 23.329.492 10.814 9.392 55.65 48.778 70.725 62.382 12.031 10.857 19.454 10.376 30.624 10.379 6.108.002 11.387-.261 21.219-.898M78.921 204.732c0 2.986 2.467 5.138 5.731 5.138 8.471 0 11.995-8.298 18.268-16.87 0 0-23.999-.213-23.999 11.732m62.84-28.869c-1.449 2.275-1.224 3.428 1.693 4.1 24.368 5.617 37.984 14.954 41.735 6.638 9.395-20.832 10.852-25.585 2.106-39.209-3.473-5.411 8.593-4.395 23.415 3.571 14.415 7.748 13.977 9.614 9.52 16.35-2.85 4.309-10.306 14.816-15.351 22.839-4.464 7.099-3.152 8.084.99 10.023 12.051 5.641 23.873 13.159 29.61 17.514 8.382 6.361-4.146 22.797-11.937 17.838-6.063-3.86-12.886-8.46-24.111-14.375-5.835-3.075-8.336-2.44-13.425 2.847-16.287 16.924-47.213 29.561-70.579 28.562-5.235-.224-3.63-4.056-.187-4.826 21.243-4.756 40.541-17.68 54.919-34.251 4.182-4.82-13.161-11.215-34.61-16.924-6.39-1.7-8.037-.579-11.39 3.943-27.401 36.97-61.781 31.055-61.781 5.751 0-20.538 31.107-30.843 48.079-31.363 3.051-.093 5.867-1.603 7.702-4.031 3.023-4.003 6.543-9.602 10.771-16.321 10.031-15.945 15.837-24.209 6.431-23.444-24.408 1.987-44.846-21.568-38.662-26.795 6.487-5.482 14.599 13.287 37.16 7.628 23.094-5.793 24.025-18.548 36.358-6.092 8.948 9.037 22.338 15.153 10.347 22.107-11.173 6.479-16.046 12.176-38.803 47.92" fill-rule="nonzero"/></svg>