<svg width="105" height="105" xmlns="http://www.w3.org/2000/svg" fill-rule="evenodd" clip-rule="evenodd" stroke-linecap="round" stroke-linejoin="round"><path d="M87.15 59.25h15.8L54 14.6 2.05 56.25l16.8.15 35-32.15 33.3 35M73.5 52.5a5.062 5.062 0 00-1-.1c-.167.1-.35.217-.55.35-.567.367-1.067.55-1.5.55l-.1.1-37.6-.75-2.7-1.4c-1.9.667-3.4 2.233-4.5 4.7l2.35 3.5 1.15 27.95c1.233.867 2.433 1.3 3.6 1.3.233 0 .767-.1 1.6-.3.367-.1.783-.167 1.25-.2.633-.2 1.3-.45 2-.75l.7-.3 26.75.5c.3.133.55.233.75.3.1.033.217.083.35.15.4.233.8.5 1.2.8l.4.2c1.633.767 2.717 1.2 3.25 1.3h2.7c.667-.533 1.317-1.317 1.95-2.35l1.9-22.55c.267-.4.533-.9.8-1.5.4-.833.7-1.5.9-2l1.3-1.15a2.69 2.69 0 01.3-.45c.333-.333.5-.55.5-.65l.05-.25a1.7 1.7 0 00-.2-.45l-7.6-6.55m-6 6.75l1.95 3.45-.2 5.15-12.55-.05.35-8.8 10.45.25M69 72.4l-.45 9.8-12.45-.25.4-9.7 12.5.15m-19.85-4.65l-13.4-.1.1-9.1 13.45.3-.15 8.9m-.05 4.4l-.15 9.65-13.35-.25.1-9.55 13.4.15z" fill-rule="nonzero"/><path d="M69.45 62.7l-1.95-3.45L57.05 59l-.35 8.8 12.55.05.2-5.15zM56.1 81.95l12.45.25.45-9.8-12.5-.15-.4 9.7zm-6.8-23.1l-13.45-.3-.1 9.1 13.4.1.15-8.9zm-.2 13.3L35.7 72l-.1 9.55 13.35.25.15-9.65z" fill="none" stroke="#000" stroke-width="2.5"/></svg>