<?xml version="1.0"?>
<svg xmlns="http://www.w3.org/2000/svg" version="1.2" baseProfile="tiny" width="800" height="995" viewBox="0 0 800 995" stroke-linecap="round" stroke-linejoin="round">
<g id="ne_10m_admin_1_states_provinces_lakes">
<path d="M 396.11 472.27 395.73 473.4 398.16 475.96 397.97 477.61 393.2 477.51 394.59 482.25 397.01 483.24 397.25 486.04 401.28 490.59 399.54 493.95 400.17 496.19 406.49 500.97 408.74 503.96 408.63 506.3 406.14 506.56 402.73 505.83 399.34 506.48 396.73 511.8 396.85 515.11 395.97 517.47 397.51 519.64 397.57 522.81 394.26 524.07 392.17 527.07 390.32 527.67 385.77 532.19 387 534.27 385.49 544.67 383.48 544.72 383.86 547.2 381.93 551.65 373.58 555.5 370.36 557.4 368.95 550.29 364.65 549.06 360.92 550.1 360.92 547.32 358.41 547.95 357.01 546.22 351.78 549.76 348.08 548.8 344.56 551 344.83 546.06 340.04 544.78 336.47 546.28 332.95 544.15 330.7 545.46 330.47 540.66 329.32 534.42 327.97 532.86 329.36 529.41 326.42 524.53 322.27 523.5 320.95 519.88 321.36 513.63 319.13 511.3 318.5 506.27 320.56 498.83 322.78 496.29 322.69 495 325.4 493.49 324.39 495.46 327.33 500.44 333.83 506.08 339.61 503.79 345.26 504.47 347.74 502.98 348.41 499.97 351.01 498.76 356.01 499.07 356.62 500.15 361.71 502.17 364.03 500.04 369.36 500.1 372.25 495.34 371.46 492.77 374.74 489.44 374.09 485.88 375.6 483.7 377.6 483.81 378.68 479.61 377.93 474.95 378.79 472.18 383.01 470.03 386.35 470.58 392.4 470.5 396.11 472.27 Z M 454.88 608.58 459.28 606.35 460.11 611.7 459.13 613.51 453.7 618.63 451.04 618.72 448.19 620.68 445.43 620.39 447.66 612.99 450.96 610.24 453.35 611.73 454.88 608.58 Z M 421.32 616.56 420.36 619.07 415.36 619.22 413.95 616.88 409.69 614.39 405.79 613.65 407.22 610.68 411.4 610.23 415.29 611.25 418.41 613.19 421.32 616.56 Z M 442.79 599.47 440.57 602.77 436.87 604.1 434.24 604.01 431.24 605.55 427.73 604.64 427.13 605.9 423.37 605.99 420.52 604.65 413.6 604.5 414.71 601.24 418.07 599.27 424.31 599.97 428.9 602.68 432.97 601.15 435.89 603 437.84 602.41 439.01 600.47 442.79 599.47 Z M 450.95 598.85 445.92 602.51 445.68 600.73 449.82 598.36 450.95 598.85 Z M 461.81 598.74 461.61 600.12 455.18 601.27 455.71 598.05 461.48 598.17 461.81 598.74 Z M 326.63 526.06 324.06 528.05 324.08 524.76 326.63 526.06 Z M 607.92 541.35 607.17 557.42 605.83 579.51 604.41 583.27 605.42 585.25 603.54 607.83 602.51 607.24 599.75 603.04 595.04 597.63 589.79 598.56 588.47 597.5 585.73 599.51 585.18 597.94 585.39 597.56 585.97 597.34 585.86 596.97 586.01 595.73 586.8 595.15 587.94 592.03 584.59 588.27 583.73 585.72 586.08 584.32 583.16 580.19 581.75 574.93 580.06 571.75 577.09 568.14 573.27 565.86 569.3 565.14 561.86 560.96 557.03 560.05 554.82 560.24 551.66 558.3 548.3 554.71 546.12 555.07 544.08 553.99 543.14 551.95 540.85 551.22 537.75 556.18 534.47 556.55 533.08 552.4 534.95 551.09 531.74 546.52 529.75 544.89 526.8 544.56 528.74 542.13 532.19 542.54 533.51 543.49 536.32 540.11 542.35 541.32 544.65 538.21 543.89 537.44 538.78 537.3 533.36 538.33 530.2 537.97 527.78 536.29 526.57 532.21 523.43 529.9 518.3 529.66 520.8 525.03 520.57 523.15 526.38 521.74 528.34 519.58 531.39 518.32 533.85 518.46 537.86 520.21 539.98 522.17 545.26 522.17 545.76 524.56 547.91 528.57 546.07 531.97 546.82 539.09 548 540.55 550.94 540.96 551.18 545.01 553.57 548.8 557.94 549.14 562.07 545.29 562.65 543.14 565.46 540.94 566.82 537.46 570.01 537.75 574.29 535.97 573.62 533.04 579.58 529.94 587.36 533.06 588.56 534.4 597.99 539.01 600.18 538.48 607.92 541.35 Z M 586.57 591.84 587.52 592.05 586.73 594.78 585.76 595.83 585.82 597.3 585.03 597.47 583.55 598.25 581.42 600.4 574.15 600.5 575.52 597.27 578.32 592.54 580.38 590.97 585.49 590.13 586.57 591.84 Z M 570.97 532.82 569.1 533.95 565.37 534.21 560.78 532.18 565.07 531.68 570.97 532.82 Z M 566.85 525.95 564.73 527.28 562.6 526.93 561.39 523.35 562.15 521.89 565.24 525.68 566.85 525.95 Z M 341.64 583.58 345.1 585.22 347.78 584.98 349.68 586.2 350.95 591.73 355.63 594.36 357.75 593.46 360.21 593.68 362.19 592.62 366.11 594.8 364.73 600.7 365.5 602.84 363.1 603.12 359.17 601.92 354.38 599.36 349.53 601.09 346.85 600.02 341.74 599.14 340.6 600.28 330.01 597.67 326.18 595.34 320.3 593.59 312.85 593.38 310.86 594.66 305.19 593.07 302.82 591.37 294.87 590.5 293.6 589.47 295.25 586.13 292.97 586.13 290.14 584.44 286.48 584.83 288.72 581.32 289.9 576.81 291.48 574.87 295.39 576.44 299.86 576.89 303.16 575.84 304.12 577.57 307.16 578.02 309.64 579.43 310.79 578.52 313.56 581.06 314 583.87 316.81 584.72 322.3 584.62 329.64 586.03 331.66 584.63 333.31 580.76 336.21 580.75 337.02 583.16 341.64 583.58 Z M 362.9 585.43 360.85 587.65 358.23 588.69 354.44 588.67 351.02 587.95 352.74 585.2 361.83 584.92 362.9 585.43 Z M 477.5 593.73 473.61 595.83 468.14 595.13 469.54 593.24 472.95 593.41 475.74 592.42 477.5 593.73 Z M 521.63 588.62 520.86 592.43 516.82 596.56 515.63 595.21 517.46 591.13 520.15 588.04 521.63 588.62 Z M 547.18 581.97 545.42 584.87 543.17 584.01 544.31 577.89 546.96 580.6 547.18 581.97 Z M 549.93 577.7 548.43 579.86 545.63 576.94 546.56 573.17 547.98 570.45 550.24 572.73 549.93 577.7 Z M 483.66 550.24 483.62 551.62 478.98 554.21 473.98 551.59 472.49 547.97 476.44 546.15 479.14 546.05 482.45 547.48 483.66 550.24 Z M 516.38 551.3 515.57 554.24 512.25 551.94 508.4 550.13 507.62 548.84 504.52 548.47 503.91 550.17 498.54 547.5 494.88 550.16 491.52 545.78 492.35 543.97 498.57 544.02 500.84 545 503.81 543.23 509.17 545.35 511.87 545.2 513.92 546.69 514.59 549.56 516.38 551.3 Z M 385.29 599.33 386.19 600.53 383.7 604.72 379.14 605.71 379.72 601.07 383.03 598.58 385.29 599.33 Z M 408.16 602.77 401.32 605.36 399.91 604.27 396.09 606.09 394.74 605.82 390.99 607.35 388.04 607.84 385.89 606.9 386.47 602.49 390.28 600.18 393.51 600.67 395.5 603.88 399.95 602.71 395.93 600.14 396.77 597.44 398.74 597.69 399.74 599.88 401.59 599.16 406.45 599.68 408.16 602.77 Z M 428.37 544.51 427.73 541.97 425.67 541.5 420.64 544.92 421.95 549.34 422.27 552.88 421.34 554.94 421.47 561.52 419.93 567.4 420.27 571.07 416.55 571.68 414.09 572.8 411.6 569.5 414.16 561.41 414.8 555.36 413.35 552.73 413.81 550.49 412.03 549.8 408.63 551.22 407.35 546.36 407.76 541.85 410.98 539.73 410.99 537.29 413.05 534.55 412.97 527.19 414.91 523.46 416.23 522.31 418.13 514.05 417.28 512.77 419.67 507.19 422.16 505.86 424.22 506.78 427.74 501.02 431.94 502.18 433.78 503.93 436.44 503.55 441.22 504.35 444.81 506.42 445.86 504.94 454.72 506.2 458.01 504.17 460.06 500.88 462.76 499.55 463.81 497.17 465.69 497.74 465.42 500.25 463.29 504.83 461.19 506.54 458.14 510.7 452.95 511.6 448.37 511.46 446 509.84 440.1 509.7 435.38 510.42 434.76 509.67 427.18 510.45 425.25 509.35 422.51 509.9 420.3 512.93 419.1 516.91 419.91 521.49 421.29 523.85 424.31 526.07 425.1 529.03 428.68 529.3 432.63 523.56 434.55 524.34 438.08 524.24 439.03 522.59 445.39 522.57 444.59 521.03 448.36 520.61 450.28 522.52 449.6 525.03 446.71 523.77 444.46 524.22 440.36 530.03 435.16 532.33 434.15 534.27 430.86 534.39 435.23 538.15 436.83 542.3 439.43 544.68 440.01 546.78 438.16 551.12 442.12 554.52 442.18 556.9 444.24 557.65 444.08 559.62 441.36 559.7 436.87 560.96 435.65 564.39 433.07 564.18 431.19 562.36 431.86 558.01 432.76 556.54 430.34 555.33 426.38 550.94 428.08 547.41 428.37 544.51 Z M 442.73 565.02 441.41 566.67 440.32 570.25 437.97 569.65 439.25 566.5 439.44 563.19 442.47 562.23 442.73 565.02 Z M 445.9 568.17 442.74 572.78 440.49 571.05 442.42 567.99 444.12 560.5 446.71 561.9 445.22 563.34 444.47 566.77 445.9 568.17 Z M 512.62 534.07 510.22 535.9 506.81 534.32 509.28 532.66 511.79 532.07 512.62 534.07 Z M 518.87 525 518.13 528.56 516.05 527.28 515.48 524.55 518.87 525 Z M 521.11 517.2 517.99 518.32 512.25 517.43 512.73 516.02 516.85 514.82 519.82 515.65 521.11 517.2 Z M 450.64 527.7 449.02 529.3 445.99 530.2 444.37 529.53 445.2 526.88 447.93 526.58 450.64 527.7 Z M 466.88 532.95 464.12 534.64 462.68 534.16 458.62 535.25 458.52 531.82 460.76 531.44 466.88 532.95 Z M 492.47 531.06 491.59 532.3 486.91 532.47 485.8 530.02 487.83 528.36 492.47 531.06 Z M 490.3 522.59 486.52 523.14 485.04 520 487.54 518.1 487.77 521.2 490.3 522.59 Z M 488.34 516.91 488.76 511.94 487.48 510.46 486.68 504 485.87 502.21 487.34 496.88 489.76 496.12 491.49 499.06 490.29 502.96 493.01 502.55 492.89 500.74 495.32 498.99 497.66 498.73 497.59 503.83 494.14 505.56 494.15 507.95 497.51 509.24 497.7 511.38 490.98 509.84 490.38 514.95 491.72 519.02 488.34 516.91 Z M 497.09 489.4 496.13 493.22 494.15 493.93 492.75 491.62 495.07 488.27 497.09 489.4 Z M 313.53 475.18 312.9 477.13 310.88 477.01 309.76 473.78 311.36 472.07 313.53 475.18 Z M 283.1 517.2 279.6 517.55 279.46 514.86 283.1 517.2 Z M 241.07 488.67 243.41 492.74 246.5 491.28 250.1 493.86 250.86 496.66 254.5 497.98 257.62 500.61 258.77 504.74 261.61 507.23 264.55 507.35 266.36 510.26 268.94 509.3 272.11 511.59 272.84 514.9 270.16 515.99 269.05 522.2 271.51 524.41 276.56 525.74 278.06 525.32 278.67 530.42 280.46 535.53 282.35 536.03 282.38 538.12 289.02 539.32 290.4 544.02 292.39 545.12 292.72 548.16 291.47 549.17 290.37 552.3 291.51 553.95 290.08 558.09 290.83 560.45 289.08 574.33 287.46 574.14 285 570.63 283.52 573.9 278.79 570.88 275.79 572.44 270.77 565.41 268.19 564.53 266.12 561.96 263.9 560.68 258.62 555.56 257.94 552 252.8 547.99 250.16 542.77 248.2 541.21 245.85 536.66 246.38 535.59 243.64 529.52 242.18 527.7 241.29 523.12 236.93 517.79 235.1 513.77 230.84 511.98 230.38 508.42 227.02 499.3 227.8 498.23 225.17 494.99 217.15 490.13 216.52 485.49 214.88 484.85 213.42 481.93 208.64 476.47 205.63 475.69 203.37 472.62 201.7 471.6 196.2 465.45 193.83 458.1 195.72 457.05 200.06 458.45 202.31 460.81 207.07 461.48 209.95 460.89 212.66 462.1 214.68 461.11 218.55 464.81 220.06 468.23 222.05 469.56 222.45 473.08 225.86 474.78 228.48 477.26 235.8 482.28 237.94 484.65 238.36 486.86 241.07 488.67 Z M 266.09 506.63 261.66 506.8 261.14 504.84 263.5 504.44 266.09 506.63 Z M 253.9 493.75 253.9 496.61 251.61 496.74 251.37 493.68 253.9 493.75 Z M 231.91 531.48 230.31 533.16 228.38 531.94 225.84 527.02 226.45 524.62 228.48 524.11 231.91 531.48 Z M 219.86 504.6 219.48 508.21 217.87 508.92 217.03 506.36 214.99 505.05 213.54 501.73 215.8 499.69 217.71 502.66 219.86 504.6 Z M 206.51 490.1 204.97 490.52 199.36 486.38 201 484.95 206.51 490.1 Z M 384.91 552.77 383.07 556.02 382.31 552.08 384.91 552.77 Z M 376.15 599.47 375.87 601.64 372.55 603.82 369.8 601.3 367.26 600.6 366.55 597.83 369.37 598.5 372.68 597.13 376.15 599.47 Z M 312.98 543.88 311.93 546.83 307.98 547.46 306.5 545.54 307.44 540.95 311.01 541.29 312.98 543.88 Z M 299.31 540.94 297.79 544.84 296.28 545.24 292.17 543.6 290.64 536.97 286.23 536.59 284.91 534.56 286.93 533.39 287.74 530.75 291.51 529.99 294.13 533.98 294.82 538.8 295.6 539.94 299.31 540.94 Z" fill="lightgrey" stroke="white" stroke-width="0.5"/>
<path d="M 396.11 472.27 392.4 470.5 386.35 470.58 383.01 470.03 378.79 472.18 377.93 474.95 378.68 479.61 377.6 483.81 375.6 483.7 374.09 485.88 374.74 489.44 371.46 492.77 372.25 495.34 369.36 500.1 364.03 500.04 361.71 502.17 356.62 500.15 356.01 499.07 351.01 498.76 348.41 499.97 347.74 502.98 345.26 504.47 339.61 503.79 333.83 506.08 327.33 500.44 324.39 495.46 325.4 493.49 325.52 494.98 328.04 497.48 331.99 497.24 337.46 499.42 340.85 490.86 341.42 487.39 343.44 485.73 346.53 485.29 355.1 482.65 357.71 479.17 359.01 476.43 361.64 473.89 363.41 471.11 363.73 467.76 366.01 468.98 369.29 473.68 370.87 472.56 371.39 470.25 370.45 466.36 372.45 464.82 372.91 465.52 373.92 464.62 375.84 464.68 377.54 463 375.64 460.42 377.24 458.17 379.92 457.96 381.58 455.08 382.73 451.24 386.43 446.14 390.74 443.21 392.46 447.04 395.52 448.14 396.52 449.48 395.34 451.45 396.92 454.43 399.17 452.84 400.26 454.86 402.87 455.55 408.12 459.31 410.22 459.16 410.91 461.63 405.77 464.25 402.8 463.29 400.89 464.89 402.78 467.25 405.24 468.6 404.81 470.23 398.99 471.28 396.92 469.55 396.11 472.27 Z M 238.33 446.32 240.12 448.13 243.94 449.23 246.52 450.95 246.58 454.29 248.25 455.64 250.76 454.43 253.24 456.12 255.4 452.5 255.44 450.84 257.66 451.52 259.46 454.52 265.3 459.79 268.53 465.78 269.13 470.46 267.96 476.37 269.35 478.89 269.11 484.51 272.21 487.97 273.93 490.87 277.25 500 276.58 501.02 273.14 499.69 270.14 501.6 268.86 499.06 263.72 495.77 260.82 493.39 258.07 492.13 254.32 488.46 252.13 487.58 249.71 485.03 249.73 481.32 247.29 477.77 244.31 475.25 244.73 473.02 242.73 470.64 243.25 468.46 242.62 465.17 240.6 462.82 241.09 460.59 240.15 456.85 240.03 453.34 237.82 448.95 238.33 446.32 Z" fill="lightgrey" stroke="white" stroke-width="0.5"/>
<path d="M 1 157.42 2.93 160.62 6.08 161.77 10 164.43 8.37 166.54 10.78 172.86 13.57 174.63 16.74 175.01 17.09 177.85 19.48 180.34 18.44 182.32 14.61 184.25 11.35 181.88 9.81 182 10.72 185.44 13.83 188.15 13.66 190.13 15.32 191.8 15.27 194.58 16.99 195.25 19.59 194.64 21.71 197.77 25.59 198.4 30.12 202.45 34.59 204.22 37.39 206.22 34.27 208.77 32.93 210.7 33.12 215.28 31.99 220.12 35.16 222.33 37.76 222.34 42.6 224.86 44.5 227.4 49.82 230.19 51.42 229.64 54.93 231.97 57.06 231.69 58.34 233.83 61.76 234.35 68.06 234.38 69.9 233.68 74.59 235.52 75.73 238.6 77.17 238.75 81.94 241.57 84.44 240.37 86.93 243.26 90.9 242.85 95.03 244.87 97.59 243.18 98.24 244.69 100.51 245.49 106.87 244.47 107.14 241.5 104.69 237.84 104.41 230.09 108.18 227.59 110.87 230.27 110.51 233.31 112.31 235.66 111.23 237.34 113.67 239.78 117.17 240.37 121.68 241.94 126.2 239.99 128.22 241.13 133.51 240.91 135.8 240.26 137.92 240.89 140.98 239.53 138.9 234.06 135.42 233.3 135.04 230.17 137.37 231.43 140.34 230.04 143.31 230.22 143.42 227.59 147.3 224.25 149 221.8 152.55 221.47 155.37 219.13 155.14 217.45 157.72 215.18 159.37 216.75 163.53 217.84 167.34 214.97 170.72 214.68 174.41 218.5 176.33 221.41 174.62 223.77 181.67 224.92 183.84 226.45 183.72 229.69 181.29 232.56 182.08 234.71 175.76 236.25 170.43 242.04 168.22 242.93 168.32 246.57 169.64 248.59 169.01 251.79 166.15 255.29 165.93 256.81 167.72 259.06 165.31 266.3 164.98 269.59 163.42 270.39 159.87 269.45 158.58 269.95 159.21 278.43 157.16 282.08 158.75 287.45 156.3 289.73 153.91 290.2 152.13 282.87 150.78 280.77 149.99 276.8 147.46 272.28 144.61 276.97 145.35 278.84 143.23 279.94 141.73 277.22 138.76 273.5 139.93 268.52 144.39 267.74 145.96 265.39 146.43 261.59 148.09 259.8 143.67 257.45 139.1 257.95 136.91 257.26 133.38 257.87 129.36 257.79 123.96 255.5 123.28 250.04 121.01 248.54 118.92 249.14 116.74 247.74 115.5 245.21 110.26 244.47 108.25 247.67 107.89 250.04 112.63 254.21 114.75 254.19 116.45 257.59 112.34 257.55 109.64 262.94 110.92 264.48 114.17 266.32 116.52 266.61 115.79 273.12 117.65 274.97 117.62 276.76 120.16 277.88 119.5 280.12 122.63 288.65 122.35 290.87 123.55 293.89 119.36 292.94 116.27 294.49 115.52 291.96 113.42 291.65 111.31 293.5 107 294.55 104.8 296.85 104.48 299.35 106.33 302.97 104.33 305.69 104.41 307.48 102.58 308.53 100.93 311.33 94.83 313.57 93.8 311.4 91.86 313.11 91.84 315.78 89.43 318.38 86.18 324.35 83.56 328.07 79.71 330.39 76.92 335.01 70.57 338.96 69.21 340.76 69.8 345.36 65.23 347.99 61.21 347.53 60.17 351.43 58.93 352.85 56.12 352.3 52.54 354.61 51.37 358.39 51.34 361.36 53.04 365.95 52.67 369.25 54.07 373.36 53.31 376.82 55.23 377.54 55.47 379.91 54.47 387.31 52.18 391.93 51.51 396.48 52.73 400.74 53.31 408.72 52.45 409.96 49.16 409.28 48.27 412.23 45.8 416 45.81 420 41.33 421.62 39.02 424.23 38.23 429.22 33.41 432.25 31.63 431.73 28.64 429.27 24.3 423.71 21.91 417.78 22.1 413.46 20.74 412.34 16.66 401.38 13.56 395.29 9.62 390.03 6.33 383.35 3.75 373.4 2.62 371.62 1 366.31 1 157.42 Z M 169.32 379.04 168.5 381.81 169.47 386.85 167.7 392.55 165.98 393.24 167.17 388.45 167.42 378.42 169.32 379.04 Z" fill="lightgrey" stroke="white" stroke-width="0.5"/>
<path d="M 37.39 206.22 34.59 204.22 30.12 202.45 25.59 198.4 21.71 197.77 19.59 194.64 16.99 195.25 15.27 194.58 15.32 191.8 13.66 190.13 13.83 188.15 10.72 185.44 9.81 182 11.35 181.88 14.61 184.25 18.44 182.32 19.48 180.34 17.09 177.85 16.74 175.01 13.57 174.63 10.78 172.86 8.37 166.54 10 164.43 6.08 161.77 2.93 160.62 1 157.42 1 53.51 1 50.95 1 34.07 6.58 35.92 12.6 35.82 13.92 37.51 16.71 35.32 18.98 35.14 18.92 31.82 15.34 26.48 15.31 21.63 18.5 21.52 20.96 20.44 21.58 18.69 20.13 15.84 20.85 14.69 24.39 14.9 27.9 14.1 28.66 17.04 32.1 18.9 32.39 20.32 37.64 22.27 38.36 23.58 43.06 25.76 46.82 25.38 49.44 27.44 51.51 26.88 54.92 29.09 57.51 32.57 61.87 35.84 65.52 39.99 65.49 42.64 67.6 45.45 66.46 48.15 67.12 50.75 70.27 53.83 72.34 53.71 77.22 55.1 79.94 54.93 84.06 55.72 86.12 55.32 92.77 56.19 97.73 59.12 108.18 63.19 110.82 62.87 111.68 65.69 113.29 65.97 120 73.67 124.42 76.51 125.74 78.46 132.44 77.99 152.16 80.24 156.09 79.11 166.63 80.59 170.14 80.73 174.95 84.08 184.34 85.9 190.84 88.42 196.72 87.25 197.66 89.33 202.25 90.03 203.09 88.54 213.37 83.05 224.12 81.35 229.48 81.92 234.88 81.4 235.87 80.39 240.82 78.18 242.44 72.94 246.63 70.56 248.06 67.91 242.46 63.86 240.33 61.56 240.06 56.04 241.61 54.82 245.28 55.17 247.46 56.61 256.41 58.31 258.95 56.29 260.44 53.67 260.35 51.83 263.68 51.94 268.93 51.24 271.84 47.64 270.94 46.58 271.77 42.57 273.16 41.8 277.14 42.16 277.98 39.74 280.33 39.69 282.51 38.5 294.79 39.74 294.62 36.6 291.55 34.07 285.06 30.49 283.6 29.06 280.51 28.11 277.44 26.02 274.21 25.4 271.01 25.91 269.59 29.13 264.59 26.96 259.81 27.05 257.63 28.62 253.97 26.35 252.47 24.47 253.9 22.96 252.28 20.41 251.21 7.59 255.1 9.08 261.63 10.66 263.83 9.09 265.89 6.22 269.03 5.98 270.09 4.93 267.04 1 329.87 1 331.17 2.6 333.87 3.66 336.12 7.6 340.24 9.86 342.66 10.38 346.69 9.71 351.8 12.25 354.65 11.67 360.46 15.35 364.32 17.09 367.63 17.03 368.13 19.36 372.81 22.88 372.7 24.53 378.47 28.85 381.21 28.25 382.97 28.99 390.25 28.6 390.21 26.98 392.65 24.44 395.1 24.79 396.07 23.25 400.39 21.89 403.72 23.08 404.35 25.59 408.11 28.57 407.74 31.36 406.27 33.08 409.19 39.41 409.05 40.86 410.94 43.07 409.98 44.24 411.36 48.81 410.19 51.33 412.01 54.46 411.34 55.45 402.04 53.35 399.59 53.62 399.35 56.11 396.24 57.46 398.24 58.89 403.8 65.21 406.33 70.58 408.13 72 409.04 77.37 407.29 77.16 404.93 78.51 407.18 80.58 403.54 78.43 402.54 76.83 399.03 75.88 400.92 81.47 397.95 81.51 397.86 84.43 396.81 85.68 391.49 85.61 389.9 86.3 394.43 90.16 389.83 91.71 386.71 91.06 381.86 87.96 380.06 89.32 380.41 91.67 379.25 97.14 377.51 97.24 375.96 99.32 373.17 100.79 370.06 105.21 368.37 108.14 365.5 107.67 362.57 108.57 357.16 112.19 355.24 116 353.11 116.29 352.52 118.31 350.14 119.14 349.66 116.98 352.74 115.48 348.66 111.2 347.63 108.77 349.24 107.04 350.75 101.11 347.36 98.64 340.64 96.68 338.14 97.78 338.46 99.2 336.72 102.89 336.86 104.24 330.91 107.32 330.15 109.1 331.26 111.97 330.03 114.44 326.86 114.74 325.19 116.06 321.79 114.15 319.66 115.43 320.66 120.31 323 122.69 327.2 125.13 331.37 125.85 333.48 124.99 338.63 128.89 337.11 130.51 338.56 133.87 343.23 135.51 345.86 135.19 345.64 133.23 348.05 129.96 350.9 128.24 354.88 129.59 359.97 132.41 364.23 131.81 368.32 132.64 369.48 134.6 368.86 138.54 365.76 136.89 362.98 139.1 358.74 140.92 357 143.75 358.14 145.46 355.68 146.52 353.57 149.94 351.64 151.18 350.13 156.64 352.42 159.38 355.87 161.73 362.09 164.17 365.19 168.78 370.46 174.81 373.46 179.16 374.31 181.35 379.35 183.85 380.83 186.62 384.69 188.27 384.28 190.61 380.6 188.98 379.18 189.87 382.01 192.85 386.31 195.13 389.8 198.88 385.42 200.39 382.45 202.68 381.4 205.86 382.98 206.49 384.68 204.9 386.65 204.91 390.35 208.22 394.01 209.38 393.73 211.97 395.21 216.3 392.58 216.23 394.09 220.23 393.22 221.95 395.46 225.2 391.53 225.28 388.93 232.5 388.67 236.87 384.93 240.96 381.77 240.98 384.72 244.47 383.55 248.59 384.38 250.2 384.43 254.47 382.2 253.49 381.12 255.16 378.98 260.92 376.93 263.09 373.53 264.97 373.56 269.13 370.63 270.36 370.25 271.7 367.32 273.99 365.43 274.39 365.1 276.72 361.64 280.13 357.63 282.27 356.08 280.84 354 282.88 351.09 281.84 349.69 283.83 348.02 281.89 344.16 284.3 342.91 284.57 341.36 285.35 337.67 279.98 335.95 280.98 338.56 284.1 338.68 287.71 333.48 291.25 328.17 292.97 325.83 292.39 323.05 294.78 317.8 295.3 315.84 296.07 310.94 300.34 311.17 301.74 315.14 305.52 314.25 307.34 311.92 307.88 307.9 303.98 306.66 300.93 307.22 296.56 304.55 295.17 301.88 295.93 300.86 294.03 294.69 293.47 290.94 295.23 289.28 293.66 285.07 294.07 280.17 290.3 278.85 289.9 276.4 285.6 277.78 282.87 276.87 281.11 273.79 281.25 271.47 279.95 269.45 280.6 264.29 276.51 260 278.88 259.82 281.4 256.66 282.96 255.3 281.54 252.67 284.1 250.35 281.81 247.07 283.04 244.23 285 242.15 283.12 239.45 283.68 237.53 285.91 233.36 285.42 232.51 287.64 235.25 291.95 235.8 297.08 232.04 298.41 230.42 294.55 229.74 292.43 227.73 293.27 225.8 295.4 223.1 294.84 219.47 292.82 218.89 289.51 211.89 288.63 213 284.91 212.2 282.62 213.82 280.27 211.92 278.54 209.51 278.72 207.73 276.72 206.74 273.58 204.7 271.61 202.72 268.3 199.89 268.33 197.5 269.31 195.71 268.26 193.08 261.93 194.05 261.06 194.48 256.89 198.49 253.53 199.16 251.2 201.02 250.34 199.61 241.22 198.04 237.09 197.18 232.99 194.51 231.98 191.26 228.94 190.96 227.23 186.46 223.68 184.86 223.26 183.84 226.45 181.67 224.92 174.62 223.77 176.33 221.41 174.41 218.5 170.72 214.68 167.34 214.97 163.53 217.84 159.37 216.75 157.72 215.18 155.14 217.45 155.37 219.13 152.55 221.47 149 221.8 147.3 224.25 143.42 227.59 143.31 230.22 140.34 230.04 137.37 231.43 135.04 230.17 131.43 227.92 130.11 228.96 126.29 227.78 125.13 226.28 122.06 225.24 118.67 225.65 116.4 227.29 113.08 232.67 112.31 235.66 110.51 233.31 110.87 230.27 108.18 227.59 104.41 230.09 100.89 230.65 96.09 230.45 94.77 229.3 90.2 227.72 89.66 229.58 87.42 228.64 85.72 229.84 84 227.04 80.07 225.63 76.97 225.41 77.17 222.71 72.86 222.49 68.37 219.47 66.43 215.93 65 215.47 61.49 216.49 57.45 212.06 54.55 211.71 51.4 209.01 47.63 207.52 46.55 204.86 42.05 204 38.68 208.06 37.39 206.22 Z M 320.69 313.64 318.17 316.73 317.17 323.89 314.53 325.34 314.32 326.86 311.59 326.8 309.04 327.9 305.01 327.1 302.07 325.69 300.25 318.3 305.23 311.23 308.7 310.3 311.4 310.85 314.47 309.58 316.38 310.62 319.5 310.46 320.69 313.64 Z" fill="lightgrey" stroke="white" stroke-width="0.5"/>
<path d="M 411.04 120.19 415.7 125.07 421.65 129.82 425.84 133.86 429.49 139.06 431.42 144.87 433.63 146.2 435.21 151.9 434.62 155.55 433.17 156.69 429.74 155.53 428.94 157.26 426.81 158.24 425.32 157.15 421.7 158.58 416.87 162.46 414.31 162.28 411.99 160.79 412.29 158.73 410.03 154.39 410.49 148.31 407.49 145.37 406.91 143.2 403.66 138.09 403.84 133.61 402.04 132.25 399.98 129.05 400.77 128.3 401.69 123.96 402.52 123.42 409.94 123.45 411.04 120.19 Z M 422.68 172.68 422.47 174.4 418.17 175.52 417.29 172.82 421.01 171.81 422.68 172.68 Z" fill="lightgrey" stroke="white" stroke-width="0.5"/>
<path d="M 370.06 105.21 373.17 100.79 375.96 99.32 377.51 97.24 379.25 97.14 380.41 91.67 380.06 89.32 381.86 87.96 386.71 91.06 389.83 91.71 394.43 90.16 389.9 86.3 391.49 85.61 396.81 85.68 397.86 84.43 397.95 81.51 400.92 81.47 399.03 75.88 402.54 76.83 403.54 78.43 407.18 80.58 409.99 82.96 407.92 82.51 406.12 85.15 405.5 89.49 408.03 92.33 410.36 97.37 407.07 99.36 407.13 101.42 404.47 102.96 403.1 105.87 398.14 108.78 399.39 110.32 399.56 113.93 403.57 115.26 406.91 117.81 411.04 120.19 409.94 123.45 402.52 123.42 401.69 123.96 400.77 128.3 398.19 127.65 392.05 128.95 386.49 127.5 383.72 125.55 383.11 118.37 381.93 112.32 379.83 110.36 370.63 107.1 370.06 105.21 Z" fill="lightgrey" stroke="white" stroke-width="0.5"/>
<path d="M 135.04 230.17 135.42 233.3 138.9 234.06 140.98 239.53 137.92 240.89 135.8 240.26 133.51 240.91 128.22 241.13 126.2 239.99 121.68 241.94 117.17 240.37 113.67 239.78 111.23 237.34 112.31 235.66 113.08 232.67 116.4 227.29 118.67 225.65 122.06 225.24 125.13 226.28 126.29 227.78 130.11 228.96 131.43 227.92 135.04 230.17 Z" fill="lightgrey" stroke="white" stroke-width="0.5"/>
<path d="M 24.39 14.9 20.85 14.69 20.13 15.84 21.58 18.69 20.96 20.44 18.5 21.52 15.31 21.63 15.34 26.48 18.92 31.82 18.98 35.14 16.71 35.32 13.92 37.51 12.6 35.82 6.58 35.92 1 34.07 1 4.99 5.88 9.98 11.54 10.86 14.54 9.55 18.48 10.7 21.27 13.28 24.39 14.9 Z" fill="lightgrey" stroke="white" stroke-width="0.5"/>
<path d="M 251.21 7.59 252.28 20.41 253.9 22.96 252.47 24.47 253.97 26.35 257.63 28.62 259.81 27.05 264.59 26.96 269.59 29.13 271.01 25.91 274.21 25.4 277.44 26.02 280.51 28.11 283.6 29.06 285.06 30.49 291.55 34.07 294.62 36.6 294.79 39.74 282.51 38.5 280.33 39.69 277.98 39.74 277.14 42.16 273.16 41.8 271.77 42.57 270.94 46.58 271.84 47.64 268.93 51.24 263.68 51.94 260.35 51.83 260.44 53.67 258.95 56.29 256.41 58.31 247.46 56.61 245.28 55.17 241.61 54.82 240.06 56.04 240.33 61.56 242.46 63.86 248.06 67.91 246.63 70.56 242.44 72.94 240.82 78.18 235.87 80.39 234.88 81.4 229.48 81.92 224.12 81.35 213.37 83.05 203.09 88.54 202.25 90.03 197.66 89.33 196.72 87.25 190.84 88.42 184.34 85.9 174.95 84.08 170.14 80.73 166.63 80.59 156.09 79.11 152.16 80.24 132.44 77.99 125.74 78.46 124.42 76.51 120 73.67 113.29 65.97 111.68 65.69 110.82 62.87 108.18 63.19 97.73 59.12 92.77 56.19 86.12 55.32 84.06 55.72 79.94 54.93 77.22 55.1 72.34 53.71 70.27 53.83 67.12 50.75 66.46 48.15 67.6 45.45 65.49 42.64 65.52 39.99 61.87 35.84 57.51 32.57 54.92 29.09 51.51 26.88 49.44 27.44 46.82 25.38 43.06 25.76 38.36 23.58 37.64 22.27 32.39 20.32 32.1 18.9 28.66 17.04 27.9 14.1 29.82 13.29 29.56 11.24 34.92 11.42 39.98 8.73 38.57 6.8 43.69 3.72 45.31 3.71 46.82 1.64 49.81 1 72.01 1 73.77 3.38 77.19 5.69 79.35 5.39 84.54 6.91 86.92 5.69 91.56 6.97 96.24 6.96 99.7 8.56 104.19 5.21 103.39 1 136.36 1 137.61 1.9 146.83 4.52 150.81 4.38 152.16 2.87 158.34 1.14 163.91 1.89 166.59 2.98 169.59 2.61 175.99 5.87 182.02 6.5 183.43 9.11 190.23 12.5 196.06 12.39 204.14 14.14 210.05 13.69 212.05 12.13 217.21 11.66 219.66 10.5 222.25 10.86 225.63 5.65 229.55 3.11 233.46 3.51 240.44 6.88 243.5 6.98 246.34 5.71 251.21 7.59 Z" fill="lightgrey" stroke="white" stroke-width="0.5"/>
<path d="M 27.9 14.1 24.39 14.9 21.27 13.28 18.48 10.7 14.54 9.55 11.54 10.86 5.88 9.98 1 4.99 1 1 49.81 1 46.82 1.64 45.31 3.71 43.69 3.72 38.57 6.8 39.98 8.73 34.92 11.42 29.56 11.24 29.82 13.29 27.9 14.1 Z M 407.18 80.58 404.93 78.51 407.29 77.16 409.04 77.37 408.13 72 406.33 70.58 403.8 65.21 398.24 58.89 396.24 57.46 399.35 56.11 399.59 53.62 402.04 53.35 411.34 55.45 412.01 54.46 410.19 51.33 411.36 48.81 409.98 44.24 410.94 43.07 409.05 40.86 409.19 39.41 406.27 33.08 407.74 31.36 408.11 28.57 404.35 25.59 403.72 23.08 400.39 21.89 396.07 23.25 395.1 24.79 392.65 24.44 390.21 26.98 390.25 28.6 382.97 28.99 381.21 28.25 378.47 28.85 372.7 24.53 372.81 22.88 368.13 19.36 367.63 17.03 364.32 17.09 360.46 15.35 354.65 11.67 351.8 12.25 346.69 9.71 342.66 10.38 340.24 9.86 336.12 7.6 333.87 3.66 331.17 2.6 329.87 1 432.65 1 435.66 4.35 437.46 5.27 437.05 7.2 440.39 10.04 441.27 13.37 443.49 15.82 443.43 17.11 445.66 21.21 443.46 26.64 443.73 32.61 443.11 35.79 444.85 43.38 444.34 47.72 442.91 51.94 441.47 53.65 440.46 57.78 440.58 60.97 439.16 61.71 438.78 64.06 439.53 66.96 437.8 71.2 436.09 73.53 433.81 75.03 432.86 77.02 426.76 78.96 425.53 77.59 419.45 77.02 417.97 74.07 412.77 72.65 412.53 76.27 411.19 79.2 409.88 79.34 409.99 82.96 407.18 80.58 Z M 267.04 1 270.09 4.93 269.03 5.98 265.89 6.22 263.83 9.09 261.63 10.66 255.1 9.08 251.21 7.59 246.34 5.71 243.5 6.98 240.44 6.88 233.46 3.51 229.55 3.11 225.63 5.65 222.25 10.86 219.66 10.5 217.21 11.66 212.05 12.13 210.05 13.69 204.14 14.14 196.06 12.39 190.23 12.5 183.43 9.11 182.02 6.5 175.99 5.87 169.59 2.61 166.59 2.98 163.91 1.89 158.34 1.14 152.16 2.87 150.81 4.38 146.83 4.52 137.61 1.9 136.36 1 267.04 1 Z M 103.39 1 104.19 5.21 99.7 8.56 96.24 6.96 91.56 6.97 86.92 5.69 84.54 6.91 79.35 5.39 77.19 5.69 73.77 3.38 72.01 1 103.39 1 Z M 458.09 1 469.49 10.47 472.16 13.26 465.22 12.28 463.1 14.53 464.5 16.57 467.71 25.49 469.53 28.01 473.67 31.35 477.01 33.13 482.17 38.58 484.44 37.96 488.17 41.91 487.61 43.43 484.57 40.03 476.99 39.35 479.16 45.36 476.96 45.31 472.11 39.64 470.78 35.12 466.04 29.55 465.26 26.02 462.26 22.52 456.64 17.99 455.18 13.78 452.16 9.03 446.86 2.43 445.06 1 458.09 1 Z M 524.87 61.44 524.37 63 521.54 65.32 521.48 60.66 524.87 61.44 Z M 536.68 51.52 533.55 53.73 532.78 56.07 528.75 56.69 530.22 53 533.76 52.93 534.64 50.7 536.68 51.52 Z M 543.21 43.55 543.98 46.69 542.02 49.56 540.64 47.06 543.21 43.55 Z M 554.38 1 554.99 3.34 551.56 5.3 550.36 2.29 552.12 1 554.38 1 Z" fill="lightgrey" stroke="white" stroke-width="0.5"/>
<path d="M 237.53 285.91 239.45 283.68 242.15 283.12 244.23 285 247.07 283.04 250.35 281.81 252.67 284.1 255.3 281.54 256.66 282.96 259.82 281.4 260 278.88 264.29 276.51 269.45 280.6 271.47 279.95 273.79 281.25 276.87 281.11 277.78 282.87 276.4 285.6 278.85 289.9 280.17 290.3 285.07 294.07 289.28 293.66 290.94 295.23 289.42 294.81 284.52 300.88 280.91 300.82 279.93 305.05 280.42 308.04 278.92 308.32 277.19 310.57 275.47 311.17 274.7 314.5 274.38 321.73 279.32 327.89 282.51 329.89 283.47 333.42 286.72 337.64 290.19 340.16 291.39 342.01 296.88 346.55 297.58 348.08 300.74 349.07 306.77 356.95 308.51 358.07 309.21 360.91 311.09 364.27 314.3 374.18 314.09 377.92 316.71 382.83 314.67 385.55 315.34 392.69 315.95 394.86 314.23 397.09 314.3 398.74 310.51 400.55 308.63 402.85 306.52 403.21 304.68 405.27 299.92 408.07 295.13 408.58 293.3 415.02 293.73 416.54 290.5 417.28 290.59 419.04 284.89 421.49 281.3 426.55 279.14 427.25 278.48 423.46 278.54 414.12 280.18 412.63 274.12 408.31 277.65 407.17 279.37 404.97 285.3 402.22 286.43 404.02 289.11 404.57 288.02 401.42 285.85 399.27 285.72 396.79 286.96 394.5 289.49 395.48 290.17 392.47 292.92 392.46 296.66 389.33 299.84 388.64 300.02 385.96 298.63 381.72 299.28 376.47 296.11 370.5 297.17 364.52 297.64 358.62 294.78 356.43 292.55 353.75 294.36 351.94 291.46 348.68 287.03 346.47 285.65 344.3 285.21 341.35 277.06 334.28 274.04 329.55 270.91 327.58 269.93 323.71 266.31 322.76 257.91 317.29 259.62 315.69 259.71 313.61 263.12 314.47 265.48 312.55 266.45 310.32 265.78 308.62 263.5 308.24 261.97 304.94 262.29 303.66 257 300.61 254.71 301.88 254.01 303.69 251.64 302.03 248.81 301.54 245.99 297.07 245.94 292.66 243.44 293.47 242.52 290.98 237.53 285.91 Z" fill="lightgrey" stroke="white" stroke-width="0.5"/>
<path d="M 297.17 364.52 296.11 370.5 299.28 376.47 298.63 381.72 300.02 385.96 299.84 388.64 296.66 389.33 292.92 392.46 290.17 392.47 289.49 395.48 286.96 394.5 285.72 396.79 285.85 399.27 288.02 401.42 289.11 404.57 286.43 404.02 285.3 402.22 279.37 404.97 277.65 407.17 274.12 408.31 272.54 407.07 268.62 406.6 266.62 407.48 266.5 402.07 264.31 403.56 261.52 403.05 261.23 397.69 259.25 395.78 256.87 390.74 257.19 387.9 255.12 385.71 253.97 381.88 252.39 379.13 252.11 376.17 253.73 376.14 258.02 368.7 262.03 367.41 264.98 368.21 268.29 367.62 270.26 368.07 272.93 367.23 276.73 368.19 278.48 370.64 280.07 370.04 283.38 372.37 285.65 370.98 283.77 368.33 287.63 366.96 288.31 365.69 291.15 368.43 292.52 368.42 296.44 366.17 297.17 364.52 Z" fill="lightgrey" stroke="white" stroke-width="0.5"/>
<path d="M 230.42 294.55 232.04 298.41 235.8 297.08 235.25 291.95 232.51 287.64 233.36 285.42 237.53 285.91 242.52 290.98 243.44 293.47 245.94 292.66 245.99 297.07 248.81 301.54 251.64 302.03 254.01 303.69 254.71 301.88 257 300.61 262.29 303.66 261.97 304.94 263.5 308.24 265.78 308.62 266.45 310.32 265.48 312.55 263.12 314.47 259.71 313.61 259.62 315.69 257.91 317.29 266.31 322.76 269.93 323.71 270.91 327.58 274.04 329.55 277.06 334.28 285.21 341.35 285.65 344.3 287.03 346.47 291.46 348.68 294.36 351.94 292.55 353.75 294.78 356.43 297.64 358.62 297.17 364.52 296.44 366.17 292.52 368.42 291.15 368.43 288.31 365.69 287.63 366.96 283.77 368.33 285.65 370.98 283.38 372.37 280.07 370.04 278.48 370.64 276.73 368.19 279.34 365.66 278.95 358.72 279.25 355.02 277.26 353.69 276.52 351.09 273.12 349.84 270 345.88 269.2 340.81 269.32 337.26 263.89 332.31 260.63 327.59 255.08 326.34 253.93 326.76 252.57 330.94 248.84 332.38 248.41 331.15 243.7 328.66 240.24 331.92 236.39 336.35 234.19 335.32 234.65 331.92 235.81 330.3 235.22 327.41 234.06 326.48 235.56 323.97 234.75 319.16 233.18 314.86 230.89 314.37 229.94 315.67 227.35 315.14 226.31 312.83 227.26 309.73 225.22 306.64 222.95 307.16 223.36 303.29 225.77 301.35 226.96 297.01 230.42 294.55 Z" fill="lightgrey" stroke="white" stroke-width="0.5"/>
<path d="M 255.44 450.84 255.4 452.5 253.24 456.12 250.76 454.43 248.25 455.64 246.58 454.29 246.52 450.95 243.94 449.23 240.12 448.13 238.33 446.32 237.82 448.95 234.65 445.07 233.55 442.06 230.49 439.81 229.67 436.91 222.98 429.2 220.17 430.57 219.38 425.52 220.58 422.08 219.99 420.73 222.94 409.01 222.85 405.56 226.71 400.36 229.64 394.04 227.89 390.87 226.8 386.13 225.05 384.65 223.61 380.19 224.34 379.59 223.49 374.63 221.24 371.01 217.34 367.86 214.12 363.49 213.04 360.22 213.89 358.54 216.29 357.87 215.66 353.99 215.94 348.2 213.58 343.9 213.01 340.95 209.62 337.97 206.14 334.13 205.59 331.17 202.04 325.86 204.69 324.9 203.36 321.39 204.45 319.48 204.05 314.96 207.18 313.4 210.02 313.72 213.99 311.99 213.77 309.99 216.21 309.77 221.36 305.87 222.95 307.16 225.22 306.64 227.26 309.73 226.31 312.83 227.35 315.14 229.94 315.67 230.89 314.37 233.18 314.86 234.75 319.16 235.56 323.97 234.06 326.48 235.22 327.41 235.81 330.3 234.65 331.92 234.19 335.32 236.39 336.35 240.24 331.92 243.7 328.66 248.41 331.15 248.84 332.38 252.57 330.94 253.93 326.76 255.08 326.34 260.63 327.59 263.89 332.31 269.32 337.26 269.2 340.81 270 345.88 273.12 349.84 276.52 351.09 277.26 353.69 279.25 355.02 278.95 358.72 279.34 365.66 276.73 368.19 272.93 367.23 270.26 368.07 268.29 367.62 264.98 368.21 262.03 367.41 258.02 368.7 253.73 376.14 252.11 376.17 252.39 379.13 253.97 381.88 255.12 385.71 257.19 387.9 256.87 390.74 259.25 395.78 256.25 390.6 253.2 390.22 252.47 388.85 248.55 385.28 245.13 385.77 241.89 385.2 240.5 385.83 239.59 380.93 239.85 377.15 233.89 376.78 231.26 379.29 232.7 381.35 231.85 385.77 232.79 390.19 231.53 392.48 229.03 401.21 229.42 403.59 226.57 408.94 227.37 416.24 230.32 420.76 233.66 419.8 235.05 426.52 237.52 428.45 238.95 436.95 237.76 437.99 239.83 441.09 241.78 441.28 243.28 443.42 245.44 444.71 248.91 444.22 250.57 444.96 252.6 448.35 255.44 450.84 Z" fill="lightgrey" stroke="white" stroke-width="0.5"/>
<path d="M 454.88 608.58 453.35 611.73 450.96 610.24 454.88 608.58 Z M 460.11 611.7 459.28 606.35 461.57 602.97 468.47 601.44 469.98 601.85 473.14 600.81 474.32 601.5 478.23 599.68 481.15 600.94 478.31 603.44 474.37 604.76 472.87 606.28 470.47 606.62 468.38 608.03 465.29 608.64 460.11 611.7 Z" fill="lightgrey" stroke="white" stroke-width="0.5"/>
<path d="M 372.45 464.82 370.45 466.36 371.39 470.25 370.87 472.56 369.29 473.68 366.01 468.98 363.73 467.76 368.46 466.81 370.12 464.95 372.45 464.82 Z" fill="lightgrey" stroke="white" stroke-width="0.5"/>
<path d="M 153.91 290.2 156.3 289.73 158.75 287.45 157.16 282.08 159.21 278.43 158.58 269.95 159.87 269.45 163.42 270.39 164.98 269.59 165.31 266.3 167.72 259.06 165.93 256.81 166.15 255.29 169.01 251.79 169.64 248.59 168.32 246.57 168.22 242.93 170.43 242.04 175.76 236.25 182.08 234.71 181.29 232.56 183.72 229.69 183.84 226.45 184.86 223.26 186.46 223.68 190.96 227.23 191.26 228.94 194.51 231.98 197.18 232.99 198.04 237.09 199.61 241.22 201.02 250.34 199.16 251.2 198.49 253.53 194.48 256.89 194.05 261.06 193.08 261.93 195.71 268.26 197.5 269.31 199.89 268.33 202.72 268.3 204.7 271.61 206.74 273.58 207.73 276.72 209.51 278.72 211.92 278.54 213.82 280.27 212.2 282.62 213 284.91 211.89 288.63 218.89 289.51 219.47 292.82 223.1 294.84 225.8 295.4 227.73 293.27 229.74 292.43 230.42 294.55 226.96 297.01 225.77 301.35 223.36 303.29 222.95 307.16 221.36 305.87 216.21 309.77 213.77 309.99 213.99 311.99 210.02 313.72 207.18 313.4 204.05 314.96 204.45 319.48 203.36 321.39 204.69 324.9 202.04 325.86 205.59 331.17 206.14 334.13 209.62 337.97 213.01 340.95 213.58 343.9 215.94 348.2 215.66 353.99 216.29 357.87 213.89 358.54 213.04 360.22 214.12 363.49 217.34 367.86 221.24 371.01 223.49 374.63 224.34 379.59 223.61 380.19 225.05 384.65 226.8 386.13 227.89 390.87 229.64 394.04 226.71 400.36 222.85 405.56 222.94 409.01 220.97 408.87 220.07 405.28 222.17 403.15 221.89 395.41 221.35 392.52 219.55 389.3 220.21 385.26 218.9 380.03 213.4 371.62 213.69 370.37 210.02 362.73 209.78 359.72 208.05 352.43 206.73 351.19 206.98 348.38 205.73 345.79 202.91 344.15 200.5 338.5 198.81 343.75 197.45 345.99 195.06 346.79 190.26 349.8 189.7 351.8 187.59 354.18 182.71 353.51 179.84 351.67 176.59 350.83 176.44 347.73 177.02 342.22 178.18 337.89 177.94 336.34 177.98 334.78 176.17 331.12 176.3 329.89 173.48 324.32 171.3 322.07 167.89 320.43 170.11 316.68 163.69 309.51 161.81 310.47 158.19 308.35 154.02 303.26 152.48 299.57 151.4 296.95 152.42 295.47 154.74 295.13 153.91 290.2 Z" fill="lightgrey" stroke="white" stroke-width="0.5"/>
<path d="M 122.63 288.65 119.5 280.12 120.16 277.88 117.62 276.76 117.65 274.97 115.79 273.12 116.52 266.61 114.17 266.32 110.92 264.48 109.64 262.94 112.34 257.55 116.45 257.59 114.75 254.19 112.63 254.21 107.89 250.04 108.25 247.67 110.26 244.47 115.5 245.21 116.74 247.74 118.92 249.14 121.01 248.54 123.28 250.04 123.96 255.5 129.36 257.79 133.38 257.87 136.91 257.26 139.1 257.95 143.67 257.45 148.09 259.8 146.43 261.59 145.96 265.39 144.39 267.74 139.93 268.52 138.76 273.5 141.73 277.22 143.23 279.94 145.35 278.84 144.61 276.97 147.46 272.28 149.99 276.8 150.78 280.77 152.13 282.87 153.91 290.2 154.74 295.13 152.42 295.47 151.4 296.95 152.48 299.57 150.47 298.61 148.82 292.23 145.14 284.51 142.82 281.96 141.24 284.1 138.71 284.09 135.05 278.87 133.59 282.18 136.08 286.76 133.04 292.01 131.53 291.38 128.54 292.52 123.47 291.86 122.63 288.65 Z" fill="lightgrey" stroke="white" stroke-width="0.5"/>
<path d="M 104.41 230.09 104.69 237.84 107.14 241.5 106.87 244.47 100.51 245.49 98.24 244.69 97.59 243.18 95.03 244.87 90.9 242.85 86.93 243.26 84.44 240.37 81.94 241.57 77.17 238.75 75.73 238.6 74.59 235.52 69.9 233.68 68.06 234.38 61.76 234.35 58.34 233.83 57.06 231.69 54.93 231.97 51.42 229.64 49.82 230.19 44.5 227.4 42.6 224.86 37.76 222.34 35.16 222.33 31.99 220.12 33.12 215.28 32.93 210.7 34.27 208.77 37.39 206.22 38.68 208.06 42.05 204 46.55 204.86 47.63 207.52 51.4 209.01 54.55 211.71 57.45 212.06 61.49 216.49 65 215.47 66.43 215.93 68.37 219.47 72.86 222.49 77.17 222.71 76.97 225.41 80.07 225.63 84 227.04 85.72 229.84 87.42 228.64 89.66 229.58 90.2 227.72 94.77 229.3 96.09 230.45 100.89 230.65 104.41 230.09 Z" fill="lightgrey" stroke="white" stroke-width="0.5"/>
<path d="M 603.54 607.83 605.42 585.25 604.41 583.27 605.83 579.51 607.17 557.42 607.92 541.35 610.62 541.78 618.61 546.25 626.12 549.06 630.14 549.73 634.62 553.54 639.27 553.79 639.53 555.33 642.32 556.66 643.83 559.14 646.46 559.64 650.37 564.45 649.25 570.18 655.74 571.99 661.31 575.67 664.39 575.69 667.53 579.51 667.5 583.15 659.57 583.65 659.21 585.84 660.71 590.29 664.22 593.49 665.63 595.92 668.71 597.09 669.34 602.34 671.04 603.33 671.78 607.07 673.5 607.8 677.97 606.71 677.05 610.5 679.27 612.81 684.21 613.3 681.5 615.01 683.09 617.6 685.37 617.93 689.28 622.65 684.78 624.13 682.8 622.97 681.06 620.42 678.46 620.56 667.7 618.04 663.53 617.57 661.53 615.72 660.03 612.25 657.8 611.44 656.91 608.01 654.42 606.98 654.4 605.05 651.83 600.97 650.57 597.55 646.31 595.83 639.84 594.29 638.36 592.61 635.95 592.56 633.85 594.44 631.32 593.4 631.37 596.24 627.64 596.85 627.85 598.99 622.27 599.95 625.63 604.51 625.51 606.35 618.38 610.12 614.69 608.39 611.44 608.99 607.49 608.28 604.67 608.97 603.54 607.83 Z M 691.29 613.41 689.06 613.11 688.97 610.19 692.21 612.07 691.29 613.41 Z M 740.3 582.63 738.17 585 735.06 583.71 733.65 581.75 734.23 579.8 730.23 575.55 730.65 571.58 733.35 571.51 736.36 577.49 738.61 578.94 740.3 582.63 Z M 694.2 577.41 691.34 578.89 683.79 579.14 682.45 577.13 679.51 577.56 672.51 572.47 673.59 570.41 677.16 571.32 678.52 570.62 682.15 571.87 688.96 571.33 691.55 570.53 694.16 571.33 696.99 569.86 697.69 567.54 700.6 564.99 703.44 564.02 702.44 557.46 706.17 559.03 710.21 559.33 709.98 562.64 708.74 565.21 706.02 565.58 706.65 570.52 701.4 572.66 698.28 575.5 694.2 577.41 Z M 716.78 558.4 716.02 561.8 714.2 564.01 712.47 560.27 712.79 557.32 711.98 553.79 715.31 555.64 716.78 558.4 Z M 693.58 540.65 691 542.16 689.36 539.98 691.32 539.04 693.58 540.65 Z M 666.42 535.05 664.4 537.08 659.27 536.94 659.38 534.85 666.42 535.05 Z" fill="lightgrey" stroke="white" stroke-width="0.5"/>
<path d="M 679.67 994.37 676.2 994.17 679.32 990.87 681.04 992.67 679.67 994.37 Z M 691.24 990.08 688.94 989.5 686.45 990.04 685.61 987.44 682.33 987.86 679.96 986.4 675.05 986.09 676.24 981.96 679.4 981.13 680.11 979.3 682.54 977.33 685.19 976.64 685.74 975.36 704.89 964.99 709.07 963.9 714.72 961.37 720.69 959.42 726.18 956.32 733.48 953.26 739.81 949.6 743.65 946.59 748.79 941.89 753.09 940.22 756.81 937.68 761.12 932.34 768.37 928.51 767.09 930.79 769.05 932.34 766.77 935 767.1 936.54 772.25 934 777.18 934.68 773.11 937.79 772.44 941.13 765.33 946.04 760.61 948.57 754.66 953.25 749.02 955.42 746.36 957.9 744.31 962.82 741.95 960.99 739.68 962.47 736.48 963.36 728.02 966.6 724.44 969.5 721.7 972.91 717.83 975.41 714.19 978.7 710.56 980.93 710.37 982.52 705.73 983.7 703.49 985.43 697.76 988.57 692.61 990.33 691.24 990.08 Z M 799 929.5 790.29 935.99 782.18 939.66 778.72 936.44 783.96 933.19 789.05 929.11 791.59 926.24 792.09 922.49 789.43 921.58 788.9 919.42 786.03 917.18 788.44 914.55 796.59 911.55 799 908.79 799 929.5 Z" fill="lightgrey" stroke="white" stroke-width="0.5"/>
<path d="M 796.35 733.17 794.88 732.27 793.41 728.81 791.3 726.89 790.62 722.61 793.6 722.21 795.84 725.1 799 727.21 799 735.74 796.35 733.17 Z" fill="lightgrey" stroke="white" stroke-width="0.5"/>
<path d="M 447.51 838.59 437.51 842.63 430.49 844.56 425.07 845 421.17 844.14 418.06 845.17 414.36 847.37 409 849.3 405.84 851 402.62 851.5 399.89 853.23 396.69 857.78 392.1 861.02 384.23 861.07 381.21 861.44 379.08 860.42 377.06 861.13 374.97 860.36 366.47 861.09 364.88 861.9 361.46 861.45 356.93 863.65 354.2 866.89 350.24 866.76 347.5 868.82 345.29 869.53 343.71 871.48 337.18 872.89 330.49 872.93 327 872.42 323.89 870.67 322.7 867.72 320.08 865.41 317.58 864.88 319.28 858.96 323.69 858.07 326.84 854.93 328.59 848.53 329.95 848.28 332.45 841.03 332.88 838.17 331.37 829.78 331.59 823.51 333.93 816.01 333.83 812.04 332.52 808.91 332.88 806.22 330.88 801.98 331.84 797.69 331.69 793.89 329.65 787.35 331.79 786.57 333.06 783.95 330.98 781.36 330.46 777.67 331.7 776.55 333.79 781.67 336.1 782.45 336.76 778.3 334.02 769.14 334.32 767.46 333.12 764.24 334.07 760.52 336.53 756.27 337.96 755.18 339.54 750.32 338.98 745.48 340.82 742.96 343.52 741.37 345.52 744.47 349.15 737.98 356.89 734.61 364.56 727.92 366.8 727.54 369.9 725.44 372.72 725.49 375.11 726.58 379.6 725.44 382.69 722.84 389.03 721.82 391.63 718.97 395.9 719.84 398.17 718.79 402.14 718.19 408.99 715.4 411.41 713.75 415.03 709.63 419.6 703.45 422.84 700.72 423.27 694.25 424.06 691.16 426.7 688.21 428.23 688.04 430.4 684.44 432.24 684.2 433.55 686.52 434.87 691.85 439.11 689.84 438.19 683.68 440.17 679.94 445.46 681.88 447.7 678.15 446.29 676.99 447.55 672.84 451.72 671.74 451.59 669.22 454.04 668.56 455.54 669.59 456.06 664.27 462.72 661.74 463.72 660.15 467.44 657.75 468.96 659.45 470.8 657.25 473.22 656.07 476.17 657.24 479.72 662.92 481.83 664.97 480.2 669.33 484.94 665.52 489.38 666.83 490.96 666.45 494.29 667.46 494.64 663.62 492.85 662.01 496.81 656.61 498.73 652.66 502.6 650.87 501.43 649.21 501.82 647.01 506.86 641.86 510.59 641.08 510.86 638.9 514.86 640.44 518.65 639.64 519.8 640.54 524.84 638.36 525.78 636.02 525.56 633.53 523.76 631.62 521.11 632.47 519.3 630.28 522.48 628.53 524.93 629.57 526.41 632.37 528.98 630.79 530.75 634.5 534.53 635.69 536.29 634.48 537.31 636.51 539.04 636.23 541.08 637.83 544.08 636.99 546.98 640.05 551.38 638.22 552.12 636.95 557.35 641.9 557.08 639.06 559.76 636.81 561.48 640.29 560.86 644.25 558.86 645.3 560.1 647.15 558.06 649.82 556.86 649.28 553.27 650.34 552.09 653.75 553.23 655.77 551.81 659.22 546.27 665.39 546.63 667.52 552.71 672.38 552.75 673.62 556.59 677.25 559.03 677.47 561.48 679.52 564.68 680.84 567.75 685.39 571.81 686.24 574.93 687.62 576.2 692.05 581.94 695.7 586.6 694.99 589.87 693.09 591.75 688.67 594.62 685.45 597.81 679.1 599.48 672.94 601.9 668.17 601.5 662.78 602.72 658.61 602.04 657.31 603 653.45 604.93 650.27 604.4 647.38 606.14 645.76 605.12 642.77 607.6 637.96 609.12 636.33 611.48 630.63 612.35 626.46 615.06 624.26 617.39 626.92 618.03 631.18 617.48 635.87 620.28 637.22 618.67 640.76 621.48 643.66 621.27 650.98 620.67 655.44 621.64 657.98 621.86 661.94 623.21 662.93 628.07 660.32 629.6 663.51 634.73 667.75 633.2 672.2 633.88 678.89 632.58 682.8 635.06 687.31 636.63 692.49 636.81 694.95 634.37 701.39 636.61 704.09 635.3 707.64 636.4 709.53 642.05 713.01 645.18 714.25 645.69 717.38 650.43 718.77 650.71 720.5 654.63 721.87 654.7 723.44 652.66 724.82 653.04 726.49 656.54 730.28 657.17 742.07 658.78 743.55 661.35 741.02 662.17 743.61 664.45 745.05 666.74 744.51 666.81 746.71 665.11 751.42 664.9 754 668.66 759.5 671.78 760.25 672.86 765.27 675.23 767.66 676.16 772.7 678.11 773.27 676.69 777.26 677.91 779.77 676.4 783.32 674.93 791.14 673.44 793.14 674.29 798.95 673.34 801.63 673.84 803.63 671.65 809.75 667.52 814.4 665.82 818.23 658.5 828.83 658.39 830.97 654.69 836.48 647.89 843.42 646.73 846.14 643.42 847.97 642.29 849.52 638.73 850.61 631.97 857.38 630.89 857.58 628.1 862.24 623.67 865.58 617.7 873.68 615.95 874.59 613.01 877.91 608.94 881.54 606.55 885.89 601.19 892.09 600.55 895.56 598.69 897.87 592.77 900.83 582.7 901.21 578.88 902.18 575.2 903.83 565.98 909.56 556.68 911.44 555.02 907.51 556.39 905.33 554.02 904.63 554.33 901.98 549.44 903.86 549.39 905.92 547.19 906.07 543.22 907.95 536.77 911.74 532.28 908.89 530.02 906.74 528.35 907.14 525.27 905.67 522.77 907.28 520.74 904.31 517.52 903.72 515.58 901.81 515.47 898.09 514.1 894.66 514.7 892.34 517.95 888.96 518.41 881.56 514.78 877.27 511.64 879.01 508.61 878.08 512.18 876.01 515.6 870.08 515.11 866.68 513.82 865.35 506.58 874.26 504.58 873.68 499.99 875.31 502.47 871.39 505.92 871.57 507.9 868.51 509.51 863.88 512.09 860.94 516.54 857.38 516.66 854.64 519.26 853.26 517.63 851.24 514.12 853.42 509.88 858.66 503.47 861.21 500.66 862.95 498.41 865.36 494.85 867.66 492.3 871.13 490.41 871.19 490.03 868.02 491.01 865.02 491.4 861.11 489.63 858.51 490.58 855.59 488.55 853.59 486.82 853.65 487.18 846.94 486.7 844.29 484.98 843.44 481.15 843.58 479.16 841.32 473.99 842.1 469.69 837.73 467.11 836.43 463.66 837.7 457.93 837.41 447.51 838.59 Z M 561.11 659.69 560.5 660.89 556.67 660.04 556.91 656.58 560.23 656.33 559.07 659.73 561.11 659.69 Z M 507 634.38 504.05 633.85 505.03 630.63 507 634.38 Z M 516.32 631.4 515.15 633.38 510.72 636.64 506.71 633.81 506.01 629.55 508.72 631.5 511.65 630.8 514.21 629.11 516.32 631.4 Z M 507.39 880.75 503.96 881.31 500.4 883.46 498.81 882.42 494.2 883.26 494.5 880.26 501.92 878.39 503.92 880.15 507.39 880.75 Z M 683.01 770.12 678.43 777.04 677.59 775.87 679.51 772.11 683.01 770.12 Z M 545.71 956.04 546.15 954.06 542.59 952.96 539.49 956.28 537.88 956.74 534.31 959.88 527.89 958.58 528.06 954.22 527.2 952.86 527.66 949.63 531.37 943.27 530.75 940.67 532.7 933.45 536.03 930.61 542.27 932.78 544.98 935.06 548.58 934.77 552.78 933.25 556.12 933.57 558.42 931.93 559.96 932.41 562.34 930.81 563.49 933.51 557.63 941.59 556.26 944.12 554.23 944.62 547.65 951.89 547.98 952.79 545.71 956.04 Z M 566.33 924.87 565.88 922.12 568.55 920.41 568.82 925.11 566.33 924.87 Z" fill="lightgrey" stroke="white" stroke-width="0.5"/>
<path d="M 468.72 439.63 467.23 440.83 465.14 445.62 466.97 448.19 468.39 451.94 468.16 453.98 465.86 457.82 463.87 455.53 458.48 453.48 455.21 451.56 453.77 449.74 452.29 445.08 452.67 442.07 454.42 439.12 452.65 437.09 449.44 435.12 445.15 437.98 441.57 437.63 441.29 435.65 439.32 435.47 438.05 437.03 435.91 443.98 433.52 442.66 434.69 440.17 435.07 434.92 436.4 432.93 441.98 431.5 442.89 427.87 445.33 427.45 446.53 425.93 449.13 426.82 450.56 431.96 453.7 430.86 454.95 426.82 458.16 427.92 458.04 423.33 464.14 422.96 464.68 420.88 462.96 415.85 467.94 417.78 471.81 423.26 471.86 425.18 473.76 430.68 473.55 434.73 475.22 435.9 475.82 440.61 473.63 443.25 471.3 444.86 468.72 439.63 Z M 402.34 417.49 399.9 420.98 398.12 421.52 397.24 423.96 395.23 425.85 390.94 426.48 393.89 422.22 397.9 419.36 401.16 414.9 403.4 410.61 407.21 407.4 409.06 404.03 411.21 407.29 408.07 409.23 406.89 412.02 404.07 412.88 402.34 417.49 Z M 415.24 391.86 411.99 391.9 412.07 389.57 415.24 391.86 Z M 459.99 406.24 460.9 410 456.97 411.04 456.29 404.2 454.7 402.36 452.54 401.7 452.43 399.28 457.55 398.48 458.6 402.7 458.36 404.45 459.99 406.24 Z M 459.48 389.07 461.19 389.62 461.67 396.22 462.89 399.64 459.88 401.03 457.67 398.09 457.42 395.99 454.09 391.85 451.28 389.89 449.88 386.71 453.51 386.89 457.8 386.25 459.48 389.07 Z M 425.98 346.07 426.07 348.81 422.3 350.5 420.97 351.98 421.83 354.12 420.17 358.35 422.77 362.94 424.95 369.8 427.05 371.77 431.34 368.19 433.88 368.33 436.52 370.64 437.9 374.56 440.9 372.23 445.24 373.93 441.79 375.54 444.59 378.79 444.39 380.36 447.44 381.78 448.36 384.01 446.18 385.56 445.42 383.66 441.78 381.56 438.81 377.35 435.37 375.26 432.47 372.12 432.93 378.18 429 374.25 424.93 372.48 423.2 373.24 421.69 375.86 419.44 375.38 417.85 372.68 415.47 373.29 414.7 369.68 417.7 366.59 416.07 363.92 414.36 363.68 414.16 367.21 409.41 363.6 405.84 352.16 405.51 348.72 408.38 350.94 410.11 349.59 408.26 345.03 409.02 341.46 408.46 337.31 407.18 335.38 407.92 325.35 412.14 324.28 417.15 327.18 420.49 327.93 422.25 325.51 423.51 328.28 422.62 329.61 423.29 334.74 424.59 337.39 426.35 338.08 427.53 340.14 425.98 346.07 Z M 455.3 413.91 454.1 416.08 451.05 416.73 448.57 414.61 451.62 411.12 455.37 412.35 455.3 413.91 Z M 439.81 406.28 439.96 403.64 442.06 402.41 445.49 404.16 442.64 413.95 442.74 417.17 444.59 419.31 443.97 421.71 442.26 422.45 440.54 419.52 438.02 418.39 435.83 414.26 439.92 411.39 438.96 407.33 439.81 406.28 Z M 449.22 409.43 447.43 410.99 445.89 417.02 444.38 417.63 444.61 413.18 447.03 407.87 448.79 401.59 449.83 403.51 449.91 408.7 449.22 409.43 Z M 429.04 394.51 429.84 392.83 438.79 397.9 441.22 397.6 440.18 401.44 438.21 402.82 436.76 405.45 433.56 406.03 432.05 407.83 430.82 404.67 431.55 402.2 431.43 395.65 429.04 394.51 Z M 448.75 394.2 446.01 393.02 441.02 387.83 442.48 386.92 446.73 389.98 448.75 394.2 Z M 418.36 376.78 421.39 377.81 423.53 379.65 425.28 385.58 423.27 389.41 422.03 389.69 418.47 384.7 417.78 381.92 414.92 378.86 415.41 376.7 418.36 376.78 Z M 449.42 373.02 447.67 376.53 446.55 371.22 449.42 373.02 Z" fill="lightgrey" stroke="white" stroke-width="0.5"/>
<path d="M 63.64 422.93 67.89 428.1 68.82 431.72 71.23 435.55 73.09 439.91 73.31 443.05 71.67 448.74 68.89 451.16 62.06 454.25 57.59 452.17 55.15 445.22 53.72 433.13 54.89 423.34 57.5 417.66 56.91 414.34 61.83 419.14 63.64 422.93 Z" fill="lightgrey" stroke="white" stroke-width="0.5"/>
<path d="M 398.54 259.81 399.08 258.81 403.28 256.55 406.25 258.16 406.25 260.8 407.24 263.91 406.34 267.57 406.26 278.27 403.52 284.59 403.83 289.4 402.42 290.17 401.08 286.96 398.09 284.66 394.43 278.21 394.28 271.84 396.97 263.34 398.54 259.81 Z" fill="lightgrey" stroke="white" stroke-width="0.5"/>
<path d="M 466.9 193.19 467.08 195.71 464.74 196.77 464.33 194.49 459.76 195.49 459.27 191.61 457.21 189.93 457.79 181.16 454.11 176.72 451.54 176.53 453.22 179.68 450.41 180.26 446.05 175.26 450.9 171.7 452.71 168.02 454.56 168.41 457.4 171.08 463.19 171.64 465.81 176.26 468.43 178.21 467.2 182.32 467.85 189.05 468.94 193.72 466.9 193.19 Z M 483.6 165.22 485.07 164.97 486.92 167.84 486.81 170.04 485.27 172.38 480.57 172.08 477.38 174.02 476.77 179.84 474.18 179.62 471.63 177.03 471.72 175.25 469.26 172.81 470.7 170.26 470.26 167.39 472.25 166.81 473.59 168.03 476.73 167.71 476.86 165.46 478.61 163.51 480.32 163.41 483.6 165.22 Z M 457.91 160.49 459.21 159.6 463.16 154.23 463.18 152.33 465.82 151.04 468.34 152.39 475.67 151.56 477.61 150.28 481.07 150.59 482.99 149.26 484.19 151.61 486.71 152.05 490.01 150.57 489.89 148.72 488.21 147.21 488.48 144.64 489.96 142.52 490.55 138.05 488.27 134.95 487.97 133.09 491.67 131.32 491.38 133.85 492.8 138.41 495.92 137.53 501.9 134.38 503.14 132.63 503.24 128.3 506.23 124.83 505 119.95 505.52 118.23 503.9 111.24 502.69 108.98 500.54 107.24 498.68 102.61 495.88 100.22 497.95 97.97 496.36 94.94 498.81 94.33 500.77 97.13 502.17 97.7 504.69 95.91 502.89 93.39 500.37 94.77 498.89 90.67 503.26 92.49 508.49 99.41 512.79 102.32 516.83 106.25 520.54 110.88 520.4 113.01 521.71 115.26 520.42 118.6 521.08 120.75 519.1 124.81 520.36 127.68 524.03 132.89 525.51 137.08 524.61 137.9 525.68 144.04 527.74 146.8 530.76 149.56 528.6 151.36 529.66 155.13 526.07 157 524.04 153.9 525.22 151.35 524.11 150.4 522.02 154.2 518.86 154.74 520.57 158.46 519.27 161.26 517.87 159.91 516.49 155.89 514.5 156.16 513.45 160.08 510.18 160.82 506.94 160.53 505.59 159.52 502.07 159.43 498.91 157.3 499.14 160.4 503.67 162.92 501.06 164.56 499.12 168.91 499.33 171.51 498.16 172.65 495.11 171.94 493.93 170.28 490.37 168.52 490.28 165.96 488.61 164.62 490.29 161.65 488.97 160.11 486.84 160.97 483.62 159.52 479.71 160.29 477.15 162.63 472.41 162.99 471.41 164.11 467.48 165.12 464.51 164.91 464.62 168.42 461.21 166.78 457.77 168.1 453.45 166.2 452.71 163.72 456.15 163.34 457.91 160.49 Z M 526.39 71.93 525.85 73.8 523.12 74.5 521.16 76.6 517.2 75.81 515.41 76.58 513.89 79.26 513.77 82.72 515.32 85.68 506.78 83.2 503.14 81.29 498.49 79.7 496.39 80.24 494.63 82.75 490.69 80.24 488.18 80.84 489.03 83.32 493.31 84.59 496.87 86.82 493.8 92.01 490.94 90.39 489.6 86.12 484.97 83.45 482.98 79.61 484.27 78.93 486.05 75.68 483.22 73.71 483.37 72.08 487.2 73.9 490.48 74.42 491.23 72.19 488.04 68.65 489 66.38 486.82 62.97 485.75 59.75 482.73 56.15 480.2 54.05 479.42 51.66 480.84 50.58 488.91 55.51 495.47 59.85 505.32 64.74 507.86 64.46 511.68 66.33 514.39 66.62 516.13 63.68 517.6 66.96 523.51 73.05 526.39 71.93 Z" fill="lightgrey" stroke="white" stroke-width="0.5"/>
<path d="M 793.84 625.38 788.73 624.47 786.55 622.72 786.68 620.69 791.97 621.62 793.84 625.38 Z M 786.23 613.05 782.33 608.29 780.67 600.46 782.12 599.69 784.07 602.69 783.4 604.84 785.1 606.23 786.23 613.05 Z M 773.67 611.16 777.53 610.96 780.93 614.17 779.42 616.32 776.65 615.07 772.32 614.85 770.52 611.98 771.8 609.27 773.67 611.16 Z M 773.94 601.75 765.35 596.25 763.18 593.87 764.96 592.71 767.57 595.54 770.57 596.84 773.97 599.85 773.94 601.75 Z M 754.09 589.71 753.26 590.6 748.78 588.44 745.33 582.25 750.08 585.25 752.11 589.03 754.09 589.71 Z" fill="lightgrey" stroke="white" stroke-width="0.5"/>
</g>
<g id="selected">
<path d="M 396.11 472.27 395.73 473.4 398.16 475.96 397.97 477.61 393.2 477.51 394.59 482.25 397.01 483.24 397.25 486.04 401.28 490.59 399.54 493.95 400.17 496.19 406.49 500.97 408.74 503.96 408.63 506.3 406.14 506.56 402.73 505.83 399.34 506.48 396.73 511.8 396.85 515.11 395.97 517.47 397.51 519.64 397.57 522.81 394.26 524.07 392.17 527.07 390.32 527.67 385.77 532.19 387 534.27 385.49 544.67 383.48 544.72 383.86 547.2 381.93 551.65 373.58 555.5 370.36 557.4 368.95 550.29 364.65 549.06 360.92 550.1 360.92 547.32 358.41 547.95 357.01 546.22 351.78 549.76 348.08 548.8 344.56 551 344.83 546.06 340.04 544.78 336.47 546.28 332.95 544.15 330.7 545.46 330.47 540.66 329.32 534.42 327.97 532.86 329.36 529.41 326.42 524.53 322.27 523.5 320.95 519.88 321.36 513.63 319.13 511.3 318.5 506.27 320.56 498.83 322.78 496.29 322.69 495 325.4 493.49 324.39 495.46 327.33 500.44 333.83 506.08 339.61 503.79 345.26 504.47 347.74 502.98 348.41 499.97 351.01 498.76 356.01 499.07 356.62 500.15 361.71 502.17 364.03 500.04 369.36 500.1 372.25 495.34 371.46 492.77 374.74 489.44 374.09 485.88 375.6 483.7 377.6 483.81 378.68 479.61 377.93 474.95 378.79 472.18 383.01 470.03 386.35 470.58 392.4 470.5 396.11 472.27 Z M 454.88 608.58 459.28 606.35 460.11 611.7 459.13 613.51 453.7 618.63 451.04 618.72 448.19 620.68 445.43 620.39 447.66 612.99 450.96 610.24 453.35 611.73 454.88 608.58 Z M 421.32 616.56 420.36 619.07 415.36 619.22 413.95 616.88 409.69 614.39 405.79 613.65 407.22 610.68 411.4 610.23 415.29 611.25 418.41 613.19 421.32 616.56 Z M 442.79 599.47 440.57 602.77 436.87 604.1 434.24 604.01 431.24 605.55 427.73 604.64 427.13 605.9 423.37 605.99 420.52 604.65 413.6 604.5 414.71 601.24 418.07 599.27 424.31 599.97 428.9 602.68 432.97 601.15 435.89 603 437.84 602.41 439.01 600.47 442.79 599.47 Z M 450.95 598.85 445.92 602.51 445.68 600.73 449.82 598.36 450.95 598.85 Z M 461.81 598.74 461.61 600.12 455.18 601.27 455.71 598.05 461.48 598.17 461.81 598.74 Z M 326.63 526.06 324.06 528.05 324.08 524.76 326.63 526.06 Z M 607.92 541.35 607.17 557.42 605.83 579.51 604.41 583.27 605.42 585.25 603.54 607.83 602.51 607.24 599.75 603.04 595.04 597.63 589.79 598.56 588.47 597.5 585.73 599.51 585.18 597.94 585.39 597.56 585.97 597.34 585.86 596.97 586.01 595.73 586.8 595.15 587.94 592.03 584.59 588.27 583.73 585.72 586.08 584.32 583.16 580.19 581.75 574.93 580.06 571.75 577.09 568.14 573.27 565.86 569.3 565.14 561.86 560.96 557.03 560.05 554.82 560.24 551.66 558.3 548.3 554.71 546.12 555.07 544.08 553.99 543.14 551.95 540.85 551.22 537.75 556.18 534.47 556.55 533.08 552.4 534.95 551.09 531.74 546.52 529.75 544.89 526.8 544.56 528.74 542.13 532.19 542.54 533.51 543.49 536.32 540.11 542.35 541.32 544.65 538.21 543.89 537.44 538.78 537.3 533.36 538.33 530.2 537.97 527.78 536.29 526.57 532.21 523.43 529.9 518.3 529.66 520.8 525.03 520.57 523.15 526.38 521.74 528.34 519.58 531.39 518.32 533.85 518.46 537.86 520.21 539.98 522.17 545.26 522.17 545.76 524.56 547.91 528.57 546.07 531.97 546.82 539.09 548 540.55 550.94 540.96 551.18 545.01 553.57 548.8 557.94 549.14 562.07 545.29 562.65 543.14 565.46 540.94 566.82 537.46 570.01 537.75 574.29 535.97 573.62 533.04 579.58 529.94 587.36 533.06 588.56 534.4 597.99 539.01 600.18 538.48 607.92 541.35 Z M 586.57 591.84 587.52 592.05 586.73 594.78 585.76 595.83 585.82 597.3 585.03 597.47 583.55 598.25 581.42 600.4 574.15 600.5 575.52 597.27 578.32 592.54 580.38 590.97 585.49 590.13 586.57 591.84 Z M 570.97 532.82 569.1 533.95 565.37 534.21 560.78 532.18 565.07 531.68 570.97 532.82 Z M 566.85 525.95 564.73 527.28 562.6 526.93 561.39 523.35 562.15 521.89 565.24 525.68 566.85 525.95 Z M 341.64 583.58 345.1 585.22 347.78 584.98 349.68 586.2 350.95 591.73 355.63 594.36 357.75 593.46 360.21 593.68 362.19 592.62 366.11 594.8 364.73 600.7 365.5 602.84 363.1 603.12 359.17 601.92 354.38 599.36 349.53 601.09 346.85 600.02 341.74 599.14 340.6 600.28 330.01 597.67 326.18 595.34 320.3 593.59 312.85 593.38 310.86 594.66 305.19 593.07 302.82 591.37 294.87 590.5 293.6 589.47 295.25 586.13 292.97 586.13 290.14 584.44 286.48 584.83 288.72 581.32 289.9 576.81 291.48 574.87 295.39 576.44 299.86 576.89 303.16 575.84 304.12 577.57 307.16 578.02 309.64 579.43 310.79 578.52 313.56 581.06 314 583.87 316.81 584.72 322.3 584.62 329.64 586.03 331.66 584.63 333.31 580.76 336.21 580.75 337.02 583.16 341.64 583.58 Z M 362.9 585.43 360.85 587.65 358.23 588.69 354.44 588.67 351.02 587.95 352.74 585.2 361.83 584.92 362.9 585.43 Z M 477.5 593.73 473.61 595.83 468.14 595.13 469.54 593.24 472.95 593.41 475.74 592.42 477.5 593.73 Z M 521.63 588.62 520.86 592.43 516.82 596.56 515.63 595.21 517.46 591.13 520.15 588.04 521.63 588.62 Z M 547.18 581.97 545.42 584.87 543.17 584.01 544.31 577.89 546.96 580.6 547.18 581.97 Z M 549.93 577.7 548.43 579.86 545.63 576.94 546.56 573.17 547.98 570.45 550.24 572.73 549.93 577.7 Z M 483.66 550.24 483.62 551.62 478.98 554.21 473.98 551.59 472.49 547.97 476.44 546.15 479.14 546.05 482.45 547.48 483.66 550.24 Z M 516.38 551.3 515.57 554.24 512.25 551.94 508.4 550.13 507.62 548.84 504.52 548.47 503.91 550.17 498.54 547.5 494.88 550.16 491.52 545.78 492.35 543.97 498.57 544.02 500.84 545 503.81 543.23 509.17 545.35 511.87 545.2 513.92 546.69 514.59 549.56 516.38 551.3 Z M 385.29 599.33 386.19 600.53 383.7 604.72 379.14 605.71 379.72 601.07 383.03 598.58 385.29 599.33 Z M 408.16 602.77 401.32 605.36 399.91 604.27 396.09 606.09 394.74 605.82 390.99 607.35 388.04 607.84 385.89 606.9 386.47 602.49 390.28 600.18 393.51 600.67 395.5 603.88 399.95 602.71 395.93 600.14 396.77 597.44 398.74 597.69 399.74 599.88 401.59 599.16 406.45 599.68 408.16 602.77 Z M 428.37 544.51 427.73 541.97 425.67 541.5 420.64 544.92 421.95 549.34 422.27 552.88 421.34 554.94 421.47 561.52 419.93 567.4 420.27 571.07 416.55 571.68 414.09 572.8 411.6 569.5 414.16 561.41 414.8 555.36 413.35 552.73 413.81 550.49 412.03 549.8 408.63 551.22 407.35 546.36 407.76 541.85 410.98 539.73 410.99 537.29 413.05 534.55 412.97 527.19 414.91 523.46 416.23 522.31 418.13 514.05 417.28 512.77 419.67 507.19 422.16 505.86 424.22 506.78 427.74 501.02 431.94 502.18 433.78 503.93 436.44 503.55 441.22 504.35 444.81 506.42 445.86 504.94 454.72 506.2 458.01 504.17 460.06 500.88 462.76 499.55 463.81 497.17 465.69 497.74 465.42 500.25 463.29 504.83 461.19 506.54 458.14 510.7 452.95 511.6 448.37 511.46 446 509.84 440.1 509.7 435.38 510.42 434.76 509.67 427.18 510.45 425.25 509.35 422.51 509.9 420.3 512.93 419.1 516.91 419.91 521.49 421.29 523.85 424.31 526.07 425.1 529.03 428.68 529.3 432.63 523.56 434.55 524.34 438.08 524.24 439.03 522.59 445.39 522.57 444.59 521.03 448.36 520.61 450.28 522.52 449.6 525.03 446.71 523.77 444.46 524.22 440.36 530.03 435.16 532.33 434.15 534.27 430.86 534.39 435.23 538.15 436.83 542.3 439.43 544.68 440.01 546.78 438.16 551.12 442.12 554.52 442.18 556.9 444.24 557.65 444.08 559.62 441.36 559.7 436.87 560.96 435.65 564.39 433.07 564.18 431.19 562.36 431.86 558.01 432.76 556.54 430.34 555.33 426.38 550.94 428.08 547.41 428.37 544.51 Z M 442.73 565.02 441.41 566.67 440.32 570.25 437.97 569.65 439.25 566.5 439.44 563.19 442.47 562.23 442.73 565.02 Z M 445.9 568.17 442.74 572.78 440.49 571.05 442.42 567.99 444.12 560.5 446.71 561.9 445.22 563.34 444.47 566.77 445.9 568.17 Z M 512.62 534.07 510.22 535.9 506.81 534.32 509.28 532.66 511.79 532.07 512.62 534.07 Z M 518.87 525 518.13 528.56 516.05 527.28 515.48 524.55 518.87 525 Z M 521.11 517.2 517.99 518.32 512.25 517.43 512.73 516.02 516.85 514.82 519.82 515.65 521.11 517.2 Z M 450.64 527.7 449.02 529.3 445.99 530.2 444.37 529.53 445.2 526.88 447.93 526.58 450.64 527.7 Z M 466.88 532.95 464.12 534.64 462.68 534.16 458.62 535.25 458.52 531.82 460.76 531.44 466.88 532.95 Z M 492.47 531.06 491.59 532.3 486.91 532.47 485.8 530.02 487.83 528.36 492.47 531.06 Z M 490.3 522.59 486.52 523.14 485.04 520 487.54 518.1 487.77 521.2 490.3 522.59 Z M 488.34 516.91 488.76 511.94 487.48 510.46 486.68 504 485.87 502.21 487.34 496.88 489.76 496.12 491.49 499.06 490.29 502.96 493.01 502.55 492.89 500.74 495.32 498.99 497.66 498.73 497.59 503.83 494.14 505.56 494.15 507.95 497.51 509.24 497.7 511.38 490.98 509.84 490.38 514.95 491.72 519.02 488.34 516.91 Z M 497.09 489.4 496.13 493.22 494.15 493.93 492.75 491.62 495.07 488.27 497.09 489.4 Z M 313.53 475.18 312.9 477.13 310.88 477.01 309.76 473.78 311.36 472.07 313.53 475.18 Z M 283.1 517.2 279.6 517.55 279.46 514.86 283.1 517.2 Z M 241.07 488.67 243.41 492.74 246.5 491.28 250.1 493.86 250.86 496.66 254.5 497.98 257.62 500.61 258.77 504.74 261.61 507.23 264.55 507.35 266.36 510.26 268.94 509.3 272.11 511.59 272.84 514.9 270.16 515.99 269.05 522.2 271.51 524.41 276.56 525.74 278.06 525.32 278.67 530.42 280.46 535.53 282.35 536.03 282.38 538.12 289.02 539.32 290.4 544.02 292.39 545.12 292.72 548.16 291.47 549.17 290.37 552.3 291.51 553.95 290.08 558.09 290.83 560.45 289.08 574.33 287.46 574.14 285 570.63 283.52 573.9 278.79 570.88 275.79 572.44 270.77 565.41 268.19 564.53 266.12 561.96 263.9 560.68 258.62 555.56 257.94 552 252.8 547.99 250.16 542.77 248.2 541.21 245.85 536.66 246.38 535.59 243.64 529.52 242.18 527.7 241.29 523.12 236.93 517.79 235.1 513.77 230.84 511.98 230.38 508.42 227.02 499.3 227.8 498.23 225.17 494.99 217.15 490.13 216.52 485.49 214.88 484.85 213.42 481.93 208.64 476.47 205.63 475.69 203.37 472.62 201.7 471.6 196.2 465.45 193.83 458.1 195.72 457.05 200.06 458.45 202.31 460.81 207.07 461.48 209.95 460.89 212.66 462.1 214.68 461.11 218.55 464.81 220.06 468.23 222.05 469.56 222.45 473.08 225.86 474.78 228.48 477.26 235.8 482.28 237.94 484.65 238.36 486.86 241.07 488.67 Z M 266.09 506.63 261.66 506.8 261.14 504.84 263.5 504.44 266.09 506.63 Z M 253.9 493.75 253.9 496.61 251.61 496.74 251.37 493.68 253.9 493.75 Z M 231.91 531.48 230.31 533.16 228.38 531.94 225.84 527.02 226.45 524.62 228.48 524.11 231.91 531.48 Z M 219.86 504.6 219.48 508.21 217.87 508.92 217.03 506.36 214.99 505.05 213.54 501.73 215.8 499.69 217.71 502.66 219.86 504.6 Z M 206.51 490.1 204.97 490.52 199.36 486.38 201 484.95 206.51 490.1 Z M 384.91 552.77 383.07 556.02 382.31 552.08 384.91 552.77 Z M 376.15 599.47 375.87 601.64 372.55 603.82 369.8 601.3 367.26 600.6 366.55 597.83 369.37 598.5 372.68 597.13 376.15 599.47 Z M 312.98 543.88 311.93 546.83 307.98 547.46 306.5 545.54 307.44 540.95 311.01 541.29 312.98 543.88 Z M 299.31 540.94 297.79 544.84 296.28 545.24 292.17 543.6 290.64 536.97 286.23 536.59 284.91 534.56 286.93 533.39 287.74 530.75 291.51 529.99 294.13 533.98 294.82 538.8 295.6 539.94 299.31 540.94 Z" fill="#084594" stroke="#9ecae1" stroke-width="0.6"/>
<path d="M 396.11 472.27 392.4 470.5 386.35 470.58 383.01 470.03 378.79 472.18 377.93 474.95 378.68 479.61 377.6 483.81 375.6 483.7 374.09 485.88 374.74 489.44 371.46 492.77 372.25 495.34 369.36 500.1 364.03 500.04 361.71 502.17 356.62 500.15 356.01 499.07 351.01 498.76 348.41 499.97 347.74 502.98 345.26 504.47 339.61 503.79 333.83 506.08 327.33 500.44 324.39 495.46 325.4 493.49 325.52 494.98 328.04 497.48 331.99 497.24 337.46 499.42 340.85 490.86 341.42 487.39 343.44 485.73 346.53 485.29 355.1 482.65 357.71 479.17 359.01 476.43 361.64 473.89 363.41 471.11 363.73 467.76 366.01 468.98 369.29 473.68 370.87 472.56 371.39 470.25 370.45 466.36 372.45 464.82 372.91 465.52 373.92 464.62 375.84 464.68 377.54 463 375.64 460.42 377.24 458.17 379.92 457.96 381.58 455.08 382.73 451.24 386.43 446.14 390.74 443.21 392.46 447.04 395.52 448.14 396.52 449.48 395.34 451.45 396.92 454.43 399.17 452.84 400.26 454.86 402.87 455.55 408.12 459.31 410.22 459.16 410.91 461.63 405.77 464.25 402.8 463.29 400.89 464.89 402.78 467.25 405.24 468.6 404.81 470.23 398.99 471.28 396.92 469.55 396.11 472.27 Z M 238.33 446.32 240.12 448.13 243.94 449.23 246.52 450.95 246.58 454.29 248.25 455.64 250.76 454.43 253.24 456.12 255.4 452.5 255.44 450.84 257.66 451.52 259.46 454.52 265.3 459.79 268.53 465.78 269.13 470.46 267.96 476.37 269.35 478.89 269.11 484.51 272.21 487.97 273.93 490.87 277.25 500 276.58 501.02 273.14 499.69 270.14 501.6 268.86 499.06 263.72 495.77 260.82 493.39 258.07 492.13 254.32 488.46 252.13 487.58 249.71 485.03 249.73 481.32 247.29 477.77 244.31 475.25 244.73 473.02 242.73 470.64 243.25 468.46 242.62 465.17 240.6 462.82 241.09 460.59 240.15 456.85 240.03 453.34 237.82 448.95 238.33 446.32 Z" fill="#084594" stroke="#9ecae1" stroke-width="0.6"/>
<path d="M 372.45 464.82 370.45 466.36 371.39 470.25 370.87 472.56 369.29 473.68 366.01 468.98 363.73 467.76 368.46 466.81 370.12 464.95 372.45 464.82 Z" fill="#084594" stroke="#9ecae1" stroke-width="0.6"/>
<g/>
</g>
</svg>