<?xml version="1.0"?>
<svg xmlns="http://www.w3.org/2000/svg" version="1.2" baseProfile="tiny" width="800" height="991" viewBox="0 0 800 991" stroke-linecap="round" stroke-linejoin="round">
<g id="ne_10m_admin_1_states_provinces_lakes">
<path d="M 588.58 669.08 590.44 672.41 590.27 673.9 585.96 673.81 587.21 678.09 589.4 678.98 589.62 681.51 593.25 685.61 591.68 688.64 592.25 690.66 597.96 694.98 599.99 697.68 599.89 699.79 594.56 699.37 591.5 699.95 589.14 704.76 588.46 709.87 589.85 711.83 589.9 714.69 586.92 715.83 585.03 718.53 583.36 719.07 579.25 723.15 580.36 725.03 579 734.42 575.78 740.72 568.25 744.2 565.35 745.9 564.08 739.49 560.2 738.38 556.83 739.32 556.82 736.81 554.56 737.38 553.29 735.82 548.58 739.01 545.23 738.14 542.06 740.13 542.3 735.67 537.98 734.52 534.76 735.87 531.58 733.95 529.54 735.13 529.34 730.8 528.3 725.17 527.08 723.76 528.34 720.65 525.68 716.24 521.94 715.31 520.75 712.05 521.11 706.4 519.11 704.3 518.54 699.77 520.39 693.05 522.32 689.59 524.76 688.23 523.85 690.01 526.51 694.5 532.37 699.59 537.59 697.52 542.69 698.14 544.93 696.79 545.54 694.08 547.88 692.98 552.39 693.27 552.94 694.24 557.54 696.07 559.63 694.14 564.44 694.2 567.05 689.9 566.34 687.58 569.3 684.58 568.71 681.36 570.07 679.39 571.88 679.49 572.85 675.71 572.18 671.5 572.95 668.99 576.76 667.06 579.78 667.56 585.23 667.48 588.58 669.08 Z M 641.63 792.1 645.6 790.09 646.35 794.92 645.47 796.54 640.57 801.17 638.16 801.25 635.6 803.01 633.1 802.75 635.11 796.07 638.09 793.59 640.25 794.94 641.63 792.1 Z M 611.34 799.3 610.48 801.56 605.96 801.7 604.69 799.59 600.84 797.34 597.33 796.67 598.62 793.99 602.39 793.59 605.89 794.5 608.71 796.26 611.34 799.3 Z M 630.72 783.88 628.72 786.85 625.38 788.05 623.01 787.97 620.29 789.37 617.13 788.54 616.59 789.68 613.19 789.76 610.62 788.55 604.38 788.41 605.38 785.47 608.41 783.7 614.04 784.33 618.19 786.77 621.85 785.39 624.49 787.06 627.31 784.78 630.72 783.88 Z M 638.09 783.31 633.54 786.62 633.33 785.01 637.06 782.87 638.09 783.31 Z M 647.89 783.22 647.7 784.46 641.9 785.5 642.38 782.59 647.89 783.22 Z M 779.76 731.42 779.09 745.93 777.88 765.86 776.6 769.25 777.51 771.04 775.81 791.42 768.14 782.22 763.4 783.05 762.21 782.1 759.24 782.49 759.43 782.15 759.95 781.95 759.86 781.62 759.99 780.5 760.71 779.97 761.73 777.16 758.7 773.77 757.93 771.46 760.06 770.2 757.42 766.48 756.15 761.73 754.62 758.85 751.94 755.6 748.49 753.54 744.91 752.89 738.19 749.12 731.84 748.47 728.98 746.72 725.95 743.48 722.14 742.83 721.29 740.99 719.23 740.33 716.43 744.81 713.47 745.14 712.22 741.4 713.91 740.22 711 736.09 709.21 734.61 708.3 732.12 712.61 733.35 715.14 730.3 720.58 731.4 721.97 727.89 717.36 727.77 712.46 728.7 709.62 728.37 707.43 726.85 706.34 723.17 703.51 721.09 698.87 720.87 701.13 716.7 700.92 715 706.16 713.73 707.94 711.77 710.69 710.64 712.91 710.76 716.53 712.35 718.44 714.11 723.21 714.11 725.6 719.89 723.94 722.96 724.61 729.38 725.68 730.7 728.34 731.07 728.55 734.72 730.71 738.15 734.65 738.45 738.38 734.97 738.9 733.04 741.44 731.05 742.67 727.91 745.55 728.18 749.41 726.57 748.81 723.92 754.18 721.13 761.21 723.94 762.29 725.15 770.81 729.31 772.78 728.84 779.76 731.42 Z M 760.5 776.99 761.35 777.17 760.64 779.65 759.76 780.59 759.82 781.91 759.11 782.07 757.77 782.77 755.85 784.71 749.29 784.81 753.05 777.62 754.91 776.2 759.52 775.44 760.5 776.99 Z M 746.41 723.72 744.73 724.74 741.36 724.98 741.09 722.69 746.41 723.72 Z M 742.7 717.53 738.86 718.41 737.77 715.18 742.7 717.53 Z M 539.42 769.54 542.55 771.01 544.97 770.8 546.68 771.9 547.83 776.89 552.05 779.26 556.18 778.65 557.97 777.69 561.51 779.66 560.26 784.99 558.79 787.17 555.25 786.08 550.92 783.77 546.55 785.34 539.52 783.58 538.48 784.61 528.92 782.25 525.47 780.15 520.16 778.57 513.44 778.38 511.64 779.53 506.52 778.1 504.38 776.57 497.21 775.78 496.07 774.85 495.49 771.84 492.94 770.31 489.64 770.66 491.65 767.49 492.72 763.42 494.15 761.67 497.68 763.09 501.71 763.5 504.69 762.55 505.55 764.11 511.58 764.97 514.08 767.26 514.48 769.79 517.02 770.56 521.97 770.47 528.59 771.74 530.42 770.48 531.91 766.99 534.52 766.98 535.25 769.15 539.42 769.54 Z M 558.61 771.21 556.76 773.21 554.4 774.15 547.89 773.48 549.44 770.99 557.65 770.75 558.61 771.21 Z M 662.05 778.69 658.54 780.59 653.61 779.96 654.86 778.25 657.94 778.41 660.46 777.51 662.05 778.69 Z M 701.88 774.08 701.18 777.52 697.54 781.25 696.47 780.03 698.11 776.35 700.54 773.56 701.88 774.08 Z M 724.94 768.08 723.35 770.7 721.33 769.92 722.35 764.4 724.94 768.08 Z M 727.42 764.23 726.07 766.18 723.55 763.54 725.66 757.68 727.71 759.74 727.42 764.23 Z M 667.61 739.45 667.58 740.69 663.39 743.03 658.87 740.66 657.53 737.39 661.09 735.76 663.53 735.66 666.51 736.96 667.61 739.45 Z M 697.14 740.4 696.42 743.05 689.94 739.35 686.44 737.85 685.89 739.38 681.04 736.97 677.73 739.37 674.7 735.42 675.45 733.79 681.06 733.83 683.12 734.72 685.8 733.12 690.64 735.03 693.07 734.9 694.92 736.24 695.53 738.83 697.14 740.4 Z M 578.82 783.75 579.63 784.83 577.38 788.62 573.27 789.5 573.79 785.32 576.78 783.08 578.82 783.75 Z M 599.46 786.85 593.29 789.19 592.02 788.2 588.57 789.85 587.35 789.6 581.3 791.43 579.37 790.58 579.89 786.6 583.32 784.51 586.24 784.95 588.03 787.85 592.05 786.8 588.42 784.48 589.19 782.04 593.53 783.59 597.92 784.06 599.46 786.85 Z M 617.7 734.28 617.13 731.98 615.27 731.55 610.73 734.65 612.2 741.83 611.36 743.69 611.48 749.63 610.09 754.93 610.39 758.25 604.81 759.81 602.57 756.83 604.88 749.53 605.46 744.07 602.96 739.05 599.89 740.33 598.73 735.94 599.11 731.88 602.01 729.96 602.02 727.76 603.87 725.28 603.81 718.64 606.75 714.24 608.46 706.78 607.69 705.63 609.85 700.59 612.1 699.4 613.96 700.23 617.14 695.03 620.92 696.07 622.59 697.65 624.99 697.31 629.3 698.03 632.54 699.9 633.49 698.56 641.49 699.7 644.46 697.87 646.31 694.9 648.74 693.7 649.69 691.55 651.39 692.06 651.15 694.33 649.22 698.47 647.33 700.01 644.57 703.76 639.89 704.57 635.76 704.45 633.62 702.99 623.47 702.83 616.63 703.54 614.89 702.55 612.42 703.04 610.42 705.77 609.34 709.37 610.07 713.5 611.31 715.63 614.04 717.63 614.75 720.3 617.99 720.55 621.55 715.36 626.47 715.98 627.32 714.49 633.06 714.48 635.75 712.7 637.48 714.43 636.87 716.7 634.26 715.56 632.22 715.96 628.53 721.21 623.84 723.28 622.92 725.04 619.95 725.14 623.89 728.53 625.34 732.28 627.68 734.43 628.21 736.32 626.54 740.24 630.12 743.31 629.43 747.99 625.38 749.12 624.28 752.22 621.95 752.03 620.25 750.38 620.86 746.45 619.49 744.04 615.91 740.08 617.45 736.89 617.7 734.28 Z M 630.66 752.78 628.49 757.5 626.37 756.96 627.52 754.12 627.7 751.13 630.43 750.26 630.66 752.78 Z M 633.52 755.62 630.67 759.78 628.64 758.22 630.39 755.47 631.92 748.7 632.91 751.27 632.24 754.36 633.52 755.62 Z M 693.75 724.85 691.58 726.5 688.51 725.07 693 723.04 693.75 724.85 Z M 699.39 716.67 698.72 719.88 696.85 718.72 696.33 716.26 699.39 716.67 Z M 701.41 709.63 698.59 710.64 693.42 709.84 693.85 708.56 697.57 707.48 700.25 708.23 701.41 709.63 Z M 637.81 719.1 636.34 720.55 633.61 721.36 632.9 718.36 635.36 718.09 637.81 719.1 Z M 652.46 723.85 645.01 725.92 644.91 722.82 646.94 722.48 652.46 723.85 Z M 675.56 722.14 674.77 723.25 670.54 723.41 669.54 721.2 671.37 719.7 675.56 722.14 Z M 673.61 714.49 670.19 714.99 668.86 712.15 673.61 714.49 Z M 671.83 709.37 672.21 704.88 671.06 703.55 670.33 697.71 669.61 696.1 670.93 691.29 673.12 690.61 674.68 693.26 673.6 696.77 678.13 693.19 680.24 692.96 680.18 697.56 677.06 699.13 677.07 701.28 680.11 702.44 680.28 704.38 674.21 702.99 673.68 707.6 671.83 709.37 Z M 679.73 684.53 678.87 687.98 677.08 688.63 675.81 686.54 677.91 683.52 679.73 684.53 Z M 514.05 671.71 511.66 673.35 510.65 670.44 512.1 668.9 514.05 671.71 Z M 486.59 709.63 483.43 709.94 483.3 707.51 486.59 709.63 Z M 448.65 683.88 450.76 687.55 453.55 686.23 456.8 688.57 457.48 691.09 460.77 692.28 463.58 694.65 464.63 698.38 467.19 700.63 469.84 700.74 471.47 703.36 473.81 702.49 476.66 704.57 477.32 707.56 474.9 708.53 473.91 714.14 476.12 716.14 480.69 717.34 482.03 716.95 482.59 721.56 484.2 726.17 485.93 728.51 491.93 729.59 493.18 733.83 494.97 734.82 495.26 737.57 493.15 741.31 494.17 742.79 492.89 746.53 493.56 748.66 491.98 761.19 490.52 761.02 488.3 757.85 486.96 760.8 482.7 758.07 479.98 759.48 475.46 753.13 473.12 752.34 464.49 744.25 463.87 741.03 459.24 737.42 456.85 732.7 455.08 731.3 452.96 727.19 453.44 726.23 450.97 720.74 449.65 719.1 448.85 714.97 444.91 710.16 443.26 706.53 439.42 704.92 439 701.7 435.96 693.47 436.67 692.5 434.3 689.58 427.06 685.2 426.49 681.01 425.01 680.44 423.69 677.8 419.38 672.87 416.66 672.16 408.15 662.92 406.01 656.29 407.72 655.34 411.64 656.61 413.67 658.73 417.96 659.34 420.56 658.81 423.01 659.9 424.83 659.01 428.32 662.35 429.69 665.44 431.48 666.63 431.84 669.81 434.92 671.34 437.29 673.58 443.89 678.11 445.82 680.25 446.2 682.25 448.65 683.88 Z M 471.23 700.09 467.24 700.24 468.89 698.12 471.23 700.09 Z M 460.23 688.46 460.23 691.04 458.16 691.16 457.94 688.4 460.23 688.46 Z M 440.38 722.52 438.93 724.03 437.2 722.93 434.9 718.49 435.45 716.33 437.28 715.86 440.38 722.52 Z M 429.5 698.25 429.16 701.51 425.11 698.66 423.8 695.66 425.84 693.82 429.5 698.25 Z M 417.46 685.17 416.07 685.55 411 681.82 412.48 680.52 417.46 685.17 Z M 570.57 783.88 570.32 785.84 567.33 787.8 564.84 785.53 564.45 783 567.44 781.76 570.57 783.88 Z M 513.55 733.71 512.6 736.37 509.05 736.94 507.7 735.2 508.56 731.06 511.78 731.37 513.55 733.71 Z M 501.22 731.05 499.84 734.58 498.48 734.93 494.77 733.46 493.39 727.47 489.41 727.13 490.77 721.85 494.18 721.17 496.54 724.77 497.86 730.15 501.22 731.05 Z" fill-rule="evenodd" fill="lightgrey" stroke="white" stroke-width="0.5"/>
<path d="M 588.58 669.08 585.23 667.48 579.78 667.56 576.76 667.06 572.95 668.99 572.18 671.5 572.85 675.71 571.88 679.49 570.07 679.39 568.71 681.36 569.3 684.58 566.34 687.58 567.05 689.9 564.44 694.2 559.63 694.14 557.54 696.07 552.94 694.24 552.39 693.27 547.88 692.98 545.54 694.08 544.93 696.79 542.69 698.14 537.59 697.52 532.37 699.59 526.51 694.5 523.85 690.01 524.76 688.23 527.15 691.83 530.71 691.62 535.65 693.58 538.71 685.85 539.23 682.72 541.05 681.22 543.83 680.83 551.57 678.44 555.1 672.83 559.07 668.03 559.36 665.01 561.42 666.11 564.38 670.36 566.28 667.26 565.42 663.74 567.23 662.35 567.65 662.99 568.56 662.17 571.83 660.71 570.11 658.38 571.55 656.35 573.97 656.17 576.51 650.1 579.85 645.5 583.74 642.85 585.29 646.31 588.05 647.3 587.89 650.29 589.32 652.97 591.35 651.55 592.33 653.36 594.69 653.99 599.43 657.38 601.33 657.24 601.95 659.48 597.31 661.84 594.62 660.97 592.9 662.42 596.83 665.77 596.44 667.23 588.58 669.08 Z M 446.18 645.66 447.79 647.29 451.24 648.28 453.56 649.84 453.62 652.85 455.13 654.07 457.4 652.98 459.63 654.51 461.59 651.24 461.62 649.73 463.62 650.35 465.25 653.06 470.52 657.81 473.43 663.22 473.98 667.45 472.92 672.78 474.17 675.06 473.95 680.13 478.31 685.86 481.3 694.1 477.59 693.82 474.89 695.54 473.73 693.25 466.47 688.14 463.99 687 460.61 683.69 458.63 682.9 456.45 680.59 456.46 677.24 454.26 674.04 451.57 671.77 451.95 669.76 450.15 667.61 450.05 662.67 448.22 660.55 448.67 658.54 447.71 651.99 445.71 648.03 446.18 645.66 Z" fill-rule="evenodd" fill="lightgrey" stroke="white" stroke-width="0.5"/>
<path d="M 21.4 633.7 13.28 633.7 1 628.99 1 608.31 2.88 607.15 8.17 608.83 9.86 608.27 15.45 604.41 17.99 605 21.89 604.66 25.82 602.95 28.15 603.7 28.77 620.28 21.4 633.7 Z M 228.04 380.11 223.21 383.66 219.83 378.73 225.13 380.35 228.04 380.11 Z M 92.94 288 88.92 286.36 87.63 282.19 89.42 280.71 93.58 281.39 95.7 283.52 95.95 286.36 92.94 288 Z" fill-rule="evenodd" fill="lightgrey" stroke="white" stroke-width="0.5"/>
<path d="M 223.21 383.66 228.04 380.11 230.13 382.2 233.71 387.82 236.55 388.86 240.09 391.25 238.61 393.16 240.79 398.86 243.31 400.46 246.17 400.81 246.48 403.37 248.64 405.62 247.7 407.4 244.25 409.14 241.3 407.01 240.74 410.22 243.54 412.67 244.89 415.96 244.84 418.47 248.74 418.52 250.66 421.34 254.16 421.92 258.25 425.57 262.28 427.17 264.81 428.97 260.78 433.02 260.96 437.15 259.94 441.51 262.8 443.51 265.14 443.52 269.51 445.8 271.22 448.09 276.03 450.61 277.47 450.11 280.64 452.21 282.56 451.96 283.71 453.89 292.49 454.39 294.15 453.75 298.39 455.42 299.41 458.19 300.71 458.33 305.02 460.88 307.28 459.8 309.52 462.4 313.11 462.03 316.84 463.85 319.14 462.32 321.78 464.42 327.52 463.49 327.76 460.81 325.55 457.51 325.3 450.51 328.7 448.26 331.13 450.67 330.81 453.42 332.43 455.54 331.45 457.06 333.66 459.26 340.89 461.21 344.97 459.45 346.79 460.48 355.54 460.27 358.31 459.03 356.43 454.1 353.29 453.42 352.95 450.59 355.05 451.72 357.73 450.47 360.41 450.64 360.51 448.26 364.02 445.25 365.55 443.04 368.75 442.73 371.29 440.63 371.09 439.11 373.42 437.06 374.9 438.47 378.66 439.46 382.1 436.87 385.15 436.61 388.48 440.06 390.22 442.69 388.67 444.81 395.04 445.85 397 447.23 396.88 450.16 394.69 452.74 395.4 454.69 389.7 456.08 384.89 461.3 382.89 462.1 382.98 465.39 384.17 467.21 383.61 470.1 381.03 473.26 382.45 476.66 380.27 483.2 379.97 486.16 378.56 486.88 374.2 486.49 374.76 494.14 372.91 497.43 374.35 502.28 372.13 504.34 369.98 504.77 368.37 498.15 367.16 496.26 366.44 492.67 364.16 488.59 360.34 495.51 356.3 489.69 357.36 485.2 361.38 484.5 362.81 482.37 363.23 478.95 364.72 477.33 360.73 475.21 356.61 475.66 354.63 475.03 347.82 475.51 342.94 473.45 342.33 468.52 340.29 467.16 338.4 467.7 336.43 466.44 335.31 464.16 330.58 463.49 328.76 466.38 328.45 468.52 332.72 472.28 334.63 472.27 336.17 475.33 332.46 475.3 330.02 480.16 334.11 483.21 336.23 483.47 335.57 489.34 337.23 492.63 339.51 493.64 338.92 495.67 341.75 503.36 341.49 505.37 342.58 508.09 338.8 507.23 336 508.63 335.33 506.36 333.43 506.07 331.53 507.74 327.64 508.69 325.65 510.76 325.36 513.02 327.04 516.29 322.16 523.83 316.65 525.86 313.97 525.44 313.95 527.85 311.77 530.2 308.84 535.58 306.48 538.94 303.01 541.03 300.49 545.2 294.76 548.77 293.53 550.39 294.06 554.55 289.93 556.92 286.3 556.5 285.37 560.03 284.25 561.3 281.71 560.81 278.48 562.89 277.43 566.3 277.4 568.98 278.94 573.12 278.6 576.1 279.86 579.81 279.17 582.94 280.91 583.59 281.13 585.73 280.22 592.4 278.15 596.58 277.55 600.68 278.65 604.53 279.18 611.73 278.4 612.84 275.43 612.23 274.63 614.89 272.4 618.29 272.4 621.91 268.37 623.37 266.28 625.73 265.57 630.22 261.22 632.97 256.91 630.27 253 625.25 250.84 619.9 251.01 616 249.78 615 246.1 605.1 243.3 599.6 239.74 594.86 236.78 588.83 234.44 579.85 230.94 571.87 229.52 571.02 227.3 565.1 226.28 564.53 223.21 559.26 221.79 555.19 220.38 547.88 217.61 540.71 216.02 535.17 216.14 533.2 213.23 524.46 213.58 520.42 214.66 515.9 213.14 512.59 211.46 511.32 210.41 507.2 209.98 501.96 208.21 502.86 207.41 506.46 208.58 507.75 207.51 511.89 202.7 514.84 199.04 516.46 195.42 515.55 191.19 512.37 189 509.78 183.55 504.75 181.21 501.84 186.5 501.28 190.77 499.38 192.12 495.84 187.71 496.64 186.89 497.67 183 496.8 179.85 495.15 176.99 492.77 173.47 488.35 173.54 487.57 177.7 486.44 177.35 483.45 184.01 483.56 187.39 484.59 188.32 483.31 191.78 482.21 193.53 483.98 195.44 479.82 193.26 475.61 191.2 472.92 190.74 470.43 187.83 470.47 185.88 467.86 185.87 462.79 183.1 462.32 180.01 460.23 180.34 456.72 183.22 452.92 185.15 449.13 187.57 449.86 189.48 451.98 193.01 450.51 197.2 449.69 199.95 442 203.62 439.8 205.32 435.06 205.7 431.46 209.71 429.05 208.64 427.35 211.36 422.49 212.72 421.91 212.5 417.5 211.32 413.81 216.35 410.96 213.58 408.04 211.27 408.09 210.13 405.67 204.15 401.48 204.42 398.05 202.93 397.14 201.88 392.08 199.76 390.47 200.53 387.74 202.79 386.81 214.87 389.25 219.08 386.97 220.32 387.2 223.24 384.8 223.21 383.66 Z M 383.88 584.94 383.15 587.44 384.03 591.99 381.95 593.44 382.17 584.38 383.88 584.94 Z" fill-rule="evenodd" fill="lightgrey" stroke="white" stroke-width="0.5"/>
<path d="M 228.04 380.11 225.13 380.35 219.83 378.73 217.66 376.71 214.75 377.25 211.96 374.57 211.68 371.21 209.7 369.14 206.88 368.81 205.78 367.04 202.27 366.99 199.35 366.06 201.49 364.14 203.12 362.58 200.54 360.75 200.66 359.21 198.52 356.32 197.28 352.38 193.52 350.94 189.63 351.53 188.1 349.22 188.73 347.94 186.46 345.72 186.11 343.77 187.93 342.45 186.56 340.5 187.2 338.16 189.82 337.75 192.14 334.03 195.03 334.68 197.2 332.92 199.12 336.05 202.9 334.68 204.51 334.91 205.79 329.44 210.47 329.73 214.78 329.2 217.66 324.64 221.57 322.37 224.56 321.52 226.98 318.7 225.02 314.74 225.34 311.05 227.96 309.77 226.41 307.13 221.48 301.27 219.73 296.11 216.22 292.96 221.62 291.98 227.32 290.07 229.56 291.82 231.77 291.06 233.36 289.18 230.64 288.3 230.21 277.46 230.66 273.14 237 275.28 242.43 275.19 243.63 276.72 246.15 274.74 248.19 274.58 248.13 271.58 244.91 266.76 244.88 262.38 249.98 261.31 250.54 259.73 249.88 256.12 253.08 256.31 256.24 255.59 256.93 258.24 260.04 259.92 260.29 261.2 265.03 262.96 265.69 264.14 269.92 266.11 273.32 265.76 275.68 267.62 277.56 267.12 280.63 269.11 282.97 272.26 286.91 275.2 290.19 278.96 290.17 281.34 292.08 283.88 291.04 286.32 291.65 288.66 294.49 291.44 296.35 291.34 300.75 292.59 306.93 293.15 308.8 292.78 314.79 293.57 319.27 296.21 328.7 299.89 331.08 299.6 331.86 302.15 333.31 302.4 339.37 309.35 343.36 311.91 344.56 313.67 350.6 313.24 368.4 315.28 371.95 314.25 381.46 315.59 384.63 315.72 388.96 318.74 397.44 320.38 403.31 322.66 408.62 321.61 409.47 323.48 413.61 324.11 414.37 322.77 423.65 317.81 433.35 316.28 438.19 316.79 443.06 316.33 448.42 313.41 449.89 308.69 453.66 306.54 454.96 304.15 449.91 300.49 447.98 298.42 447.74 293.43 449.14 292.34 452.45 292.65 454.42 293.96 462.49 295.49 464.79 293.67 466.05 289.64 473.79 289.1 476.42 285.85 475.61 284.9 476.36 281.28 477.61 280.58 481.21 280.91 481.96 278.73 486.05 277.61 497.14 278.73 496.98 275.9 494.21 273.61 484.25 268.24 481.48 266.35 478.56 265.79 475.68 266.24 474.39 269.15 469.88 267.19 465.56 267.28 463.59 268.69 460.29 266.64 460.22 263.58 458.77 261.28 457.8 249.71 461.31 251.06 467.2 252.49 471.05 248.47 474.84 247.31 471.64 242.8 471.88 238.49 470.84 233.94 472.57 229.33 470.03 227.31 469.44 225.58 466.79 224.75 464.43 225.07 464.25 222.73 465.63 219.08 467.93 219.11 474.31 217.23 478.02 217.38 482.61 216.6 488.11 218.19 493.06 220.24 495.48 219.73 501.21 221.71 505.43 224.22 512.38 229.02 512.93 230.53 519.15 235.52 521.14 236.49 522.41 238.67 526.94 241.45 529.97 245.21 532.41 246.17 534.44 249.72 538.16 251.76 540.34 252.23 543.98 251.62 548.59 253.92 551.17 253.4 556.41 256.72 559.89 258.29 562.88 258.23 563.34 260.34 567.56 263.51 567.45 265 572.67 268.9 583.29 268.67 583.26 267.21 585.46 264.92 592.45 262.62 595.45 263.69 596.02 265.96 599.42 268.64 599.08 271.17 597.76 272.72 601.97 281.73 601.11 282.79 602.35 286.91 601.3 289.18 602.33 292.91 593.94 291.01 591.73 291.26 590.51 296.01 595.53 301.71 597.81 306.56 599.44 307.84 600.26 312.68 596.55 313.72 598.58 315.59 595.29 313.64 594.39 312.2 591.22 311.34 592.93 316.39 590.25 316.43 589.22 320.19 584.42 320.13 582.98 320.74 587.07 324.23 582.92 325.63 580.1 325.04 575.73 322.24 574.1 323.48 574.42 325.59 573.37 330.53 567.88 333.82 565.07 337.82 563.55 340.46 560.95 340.03 558.32 340.85 553.43 344.12 551.7 347.55 549.44 347.08 545.76 343.22 544.83 341.02 546.28 339.47 547.64 334.12 544.59 331.89 538.52 330.12 536.55 332.39 535.1 336.94 529.74 339.72 529.05 341.32 530.06 343.92 528.95 346.15 526.08 346.41 524.57 347.61 521.5 345.88 519.58 347.03 520.48 351.44 522.6 353.59 526.39 355.79 530.15 356.44 532.06 355.67 536.7 359.19 535.33 360.65 536.64 363.68 540.85 365.15 545.21 360.15 547.78 358.6 551.37 359.82 555.97 362.36 559.81 361.82 563.51 362.57 564.55 364.33 563.99 367.89 561.19 366.41 558.68 368.4 554.85 370.04 550.19 378.18 548.45 379.3 547.09 384.23 549.15 386.7 552.26 388.82 557.88 391.02 560.68 395.19 565.43 400.63 568.91 406.53 573.46 408.79 574.79 411.28 578.28 412.78 577.9 414.89 574.59 413.41 573.31 414.22 575.86 416.91 579.74 418.96 582.89 422.35 578.93 423.71 576.26 425.77 575.31 428.64 580.05 427.79 583.39 430.78 586.69 431.83 586.44 434.16 587.78 438.07 585.4 438.01 586.76 441.62 585.98 443.17 588 446.1 584.46 446.17 582.1 452.69 581.87 456.63 578.5 460.33 575.65 460.35 578.31 463.5 577.25 467.21 578 468.66 578.04 472.52 576.03 471.64 573.12 478.34 571.27 480.3 568.21 482 568.23 485.75 565.59 486.86 557.47 495.68 553.85 497.6 552.46 496.32 550.58 498.16 547.95 497.22 545.18 497.27 541.7 499.43 540.57 499.68 539.17 500.39 535.84 495.54 534.29 496.44 536.64 499.26 536.75 502.52 532.06 505.71 527.26 507.27 525.16 506.74 522.64 508.9 516.13 510.06 511.72 513.91 511.92 515.18 515.5 518.59 512.6 520.72 508.97 517.2 507.85 514.45 508.36 510.5 505.94 509.25 503.53 509.93 502.62 508.22 497.05 507.71 493.66 509.3 492.16 507.89 488.36 508.26 482.75 504.5 480.54 500.62 481.78 498.15 480.96 496.56 478.18 496.69 476.08 495.51 474.26 496.1 469.61 492.41 465.73 494.55 465.57 496.82 462.72 498.23 461.49 496.95 459.12 499.25 457.02 497.19 451.5 500.07 449.62 498.38 447.19 498.88 445.46 500.89 441.69 500.45 440.92 502.46 443.4 506.35 443.89 510.98 440.5 512.18 439.04 508.69 438.42 506.78 434.87 509.46 432.43 508.95 429.15 507.13 428.63 504.14 422.31 503.34 423.31 499.99 422.59 497.92 424.05 495.81 422.33 494.24 420.16 494.4 418.56 492.59 417.66 489.77 414.03 485 409.32 485.91 407.71 484.96 405.33 479.25 406.21 478.47 406.59 474.7 410.22 471.67 412.49 468.79 411.23 460.56 409.03 453.13 406.62 452.22 403.69 449.48 403.41 447.93 399.36 444.73 397.92 444.35 397 447.23 395.04 445.85 388.67 444.81 390.22 442.69 388.48 440.06 385.15 436.61 382.1 436.87 378.66 439.46 374.9 438.47 373.42 437.06 371.09 439.11 371.29 440.63 368.75 442.73 365.55 443.04 364.02 445.25 360.51 448.26 360.41 450.64 357.73 450.47 355.05 451.72 352.95 450.59 349.68 448.56 348.49 449.49 345.05 448.43 341.23 446.14 338.17 446.5 336.13 447.99 333.13 452.84 332.43 455.54 330.81 453.42 331.13 450.67 328.7 448.26 325.3 450.51 322.12 451.02 317.79 450.84 312.47 448.37 308.43 450.29 306.87 447.77 303.33 446.49 300.53 446.29 300.71 443.85 296.82 443.66 292.77 440.93 291.02 437.73 286.56 438.24 282.92 434.24 280.3 433.92 277.46 431.49 274.05 430.15 273.08 427.74 269.02 426.97 265.97 430.63 264.81 428.97 262.28 427.17 258.25 425.57 254.16 421.92 250.66 421.34 248.74 418.52 244.84 418.47 244.89 415.96 243.54 412.67 240.74 410.22 241.3 407.01 244.25 409.14 247.7 407.4 248.64 405.62 246.48 403.37 246.17 400.81 243.31 400.46 240.79 398.86 238.61 393.16 240.09 391.25 236.55 388.86 233.71 387.82 230.13 382.2 228.04 380.11 Z M 520.52 525.92 518.24 528.71 517.34 535.17 510 538.78 506.36 538.06 503.71 536.79 502.06 530.12 506.56 523.75 509.69 522.91 512.13 523.4 514.89 522.26 516.63 523.19 519.44 523.05 520.52 525.92 Z" fill-rule="evenodd" fill="lightgrey" stroke="white" stroke-width="0.5"/>
<path d="M 1 628.99 13.28 633.7 21.4 633.7 9.11 647.53 1 657.55 1 628.99 Z" fill="lightgrey" stroke="white" stroke-width="0.5"/>
<path d="M 21.4 633.7 28.77 620.28 28.15 603.7 33.24 601.76 38.79 600.57 41.14 597.51 42.91 596.88 46.98 598.32 45.73 601.34 45.57 604.27 46.67 610.16 44.61 612.2 43.87 618.69 44.2 620.24 40.99 625.76 40.03 629.18 38.25 632.46 36.54 634.01 36.41 636.06 32.92 642.65 30.68 648.28 30.43 650.78 27.4 656.9 23.9 662.17 21.91 666.34 11.37 679.55 6.56 684.96 1 688.73 1 657.55 9.11 647.53 21.4 633.7 Z" fill="lightgrey" stroke="white" stroke-width="0.5"/>
<path d="M 77.29 902.05 77.38 904.09 73.7 903.63 73.57 900.22 75.8 899.94 77.29 902.05 Z" fill="lightgrey" stroke="white" stroke-width="0.5"/>
<path d="M 602.06 351.34 606.27 355.74 611.64 360.02 615.43 363.67 618.71 368.36 620.46 373.61 622.45 374.81 623.88 379.95 623.34 383.24 622.04 384.28 618.95 383.23 616.3 385.67 614.95 384.69 611.69 385.98 607.33 389.48 605.02 389.32 602.92 387.97 603.19 386.11 601.15 382.2 601.57 376.71 598.86 374.05 598.34 372.09 595.4 367.49 595.56 363.45 593.94 362.22 592.79 358.65 594.37 354.25 601.07 354.27 602.06 351.34 Z M 612.57 398.71 612.38 400.25 608.5 401.27 607.71 398.83 611.06 397.92 612.57 398.71 Z" fill-rule="evenodd" fill="lightgrey" stroke="white" stroke-width="0.5"/>
<path d="M 565.07 337.82 567.88 333.82 573.37 330.53 574.42 325.59 574.1 323.48 575.73 322.24 580.1 325.04 582.92 325.63 587.07 324.23 582.98 320.74 584.42 320.13 589.22 320.19 590.25 316.43 592.93 316.39 591.22 311.34 594.39 312.2 595.29 313.64 598.58 315.59 601.11 317.73 599.24 317.33 597.62 319.71 597.06 323.62 599.35 326.19 601.45 330.74 598.48 332.53 598.54 334.39 596.13 335.78 594.9 338.41 590.42 341.04 591.55 342.43 591.71 345.68 595.32 346.88 602.06 351.34 601.07 354.27 594.37 354.25 592.79 358.65 590.47 358.06 584.92 359.24 579.9 357.93 577.4 356.17 576.86 349.69 575.78 344.23 573.89 342.46 565.59 339.52 565.07 337.82 Z" fill="lightgrey" stroke="white" stroke-width="0.5"/>
<path d="M 352.95 450.59 353.29 453.42 356.43 454.1 358.31 459.03 355.54 460.27 346.79 460.48 344.97 459.45 340.89 461.21 333.66 459.26 331.45 457.06 332.43 455.54 333.13 452.84 336.13 447.99 338.17 446.5 341.23 446.14 345.05 448.43 348.49 449.49 349.68 448.56 352.95 450.59 Z" fill="lightgrey" stroke="white" stroke-width="0.5"/>
<path d="M 78.35 473.93 78.7 477.1 76.83 479.34 74.1 478.23 74.74 482.97 76.49 485.37 72.63 486.39 73.12 488.24 71.02 495.38 71.23 498.07 70.65 498.83 50.31 495.97 41.51 485.39 41.17 483.75 43.29 486.11 46.61 486.36 49.68 484.37 57.32 485.67 61.54 484.78 63.95 483.2 65.58 478.7 68.35 476.74 73.67 470.31 75.16 467.11 76.17 470.82 77.22 471.11 78.35 473.93 Z" fill="lightgrey" stroke="white" stroke-width="0.5"/>
<path d="M 77.22 471.11 76.17 470.82 75.16 467.11 77.54 466.78 77.22 471.11 Z M 71.23 498.07 71.02 495.38 73.12 488.24 72.63 486.39 76.49 485.37 74.74 482.97 74.1 478.23 76.83 479.34 78.7 477.1 80.97 481.54 85.77 486.55 92.04 488.72 99.17 490.62 101.95 494.83 105.97 499.18 108.55 500.45 108.35 502.73 105.36 509.75 102.27 512.46 100.62 515.37 99.66 519.16 97.14 519.27 94.48 520.6 93.62 525.27 94.42 529.75 94.34 532.74 90.35 533.06 88.08 533.98 86.19 535.96 85.74 540.07 82.89 541.84 77 542.91 75.47 545.92 75.91 548.56 74.23 550.57 70.72 550.32 66.18 550.81 62.79 552.98 58.9 553.97 55.57 547.9 48.37 532.27 71.66 523.05 75.41 504.75 71.23 498.07 Z" fill-rule="evenodd" fill="lightgrey" stroke="white" stroke-width="0.5"/>
<path d="M 171.7 336.32 169.46 337.36 166.75 336.02 163.86 336.53 161.08 336.69 158.73 334.54 161.08 332.35 157.84 329.33 157.02 330.68 153.04 332.87 150.91 331.37 149.83 333.72 151.13 335.37 147.16 337.71 146.78 343.04 141.49 342.18 139.36 343.43 139.38 345.87 142.51 347.98 145.49 347.94 146.38 352.14 149.57 355.47 149.26 357.54 147.07 361.41 147.48 364.53 145.01 363.71 143.33 364.49 141.14 362.73 137.49 362.91 136.23 356.82 130.52 354.56 128.54 354.89 122.93 351.45 120.03 350.24 117.26 348.15 115.64 348.24 109.76 344.19 100.62 338.63 98.86 334.78 95.86 332.17 93.61 328.42 90.14 326.85 89.07 328.12 85.7 327.25 82.42 327.41 79.65 326 79.08 321.8 75.72 317.65 72.89 317.82 69.62 315.52 67.92 315.43 65.25 313.3 61.41 315.92 61.15 318.04 57.63 318.93 55.12 321.65 56.98 327.24 49.13 326.62 44.33 307.78 40.45 293.16 50.55 290.08 58.1 288.19 57.21 294.52 60.13 297.04 59.14 288.71 79.01 298.73 80.5 300.68 88.67 306.93 96.98 305.59 106.17 306.33 109.66 304.96 114.9 308.6 118.12 312.43 120.07 311.39 122.17 320.45 125.8 320.49 129.32 327.74 130.42 328.27 138.63 327.73 140.65 330.19 140.14 331.32 144.21 333.36 145.04 328.98 146.4 326.1 149.91 323.45 151.65 323.17 154.87 319.57 158.07 318.16 158.07 321.01 154.22 324.28 159.66 327.38 164.74 328.08 166.39 325.47 168 327.78 170.31 328.02 174.49 330.66 177.39 330.75 175.3 334.06 171.89 334.81 171.7 336.32 Z" fill="lightgrey" stroke="white" stroke-width="0.5"/>
<path d="M 253.08 256.31 249.88 256.12 250.54 259.73 249.98 261.31 244.88 262.38 244.91 266.76 248.13 271.58 248.19 274.58 246.15 274.74 243.63 276.72 242.43 275.19 237 275.28 230.66 273.14 230.21 277.46 230.64 288.3 233.36 289.18 231.77 291.06 229.56 291.82 227.32 290.07 221.62 291.98 216.22 292.96 219.73 296.11 221.48 301.27 226.41 307.13 227.96 309.77 225.34 311.05 225.02 314.74 226.98 318.7 224.04 316.55 220.67 316.28 216.37 313.53 212.02 312.44 202.02 312.02 191.71 311.98 190.98 313.08 187.57 312.68 179.62 309.34 175.49 310.74 175.3 315.05 171.18 315.36 170.04 314.47 162.99 312.82 158.91 313.55 157.78 315.13 158.07 318.16 154.87 319.57 151.65 323.17 149.91 323.45 146.4 326.1 145.04 328.98 144.21 333.36 140.14 331.32 140.65 330.19 138.63 327.73 130.42 328.27 129.32 327.74 125.8 320.49 122.17 320.45 120.07 311.39 118.12 312.43 114.9 308.6 109.66 304.96 106.17 306.33 96.98 305.59 88.67 306.93 80.5 300.68 79.01 298.73 59.14 288.71 58.1 288.19 50.55 290.08 40.45 293.16 44.33 307.78 49.13 326.62 45.1 326.9 38.27 319.99 32.47 317.27 27.95 318.07 25.03 319.27 21.82 322.72 20.82 319.58 22.13 314.43 20.55 313.14 17.36 312.34 15.73 312.81 12.87 309.56 10.04 309.6 9.88 307.28 8.15 305.54 4.77 300.49 1 299.41 1 296.48 7.33 296.79 4.22 294.51 6.24 290.11 14.61 289.5 16.94 283.89 16.29 278.26 13.51 275.43 10.06 275.03 8.96 276.79 1 274.04 1 234.8 3.72 234.69 7 235.79 12.15 239.52 14.59 240.54 14.54 242.62 16.67 242.77 15.22 238.99 18.5 240.26 20.93 242.21 23.81 243.41 26.2 240.4 29.55 238.67 32.78 238.4 34.69 240.25 37.24 239.78 40.61 237.9 43.01 239.03 44.19 241.1 46.37 242.1 52.78 243.38 53.54 240.53 56.02 242.04 59.06 242.32 63.26 241.17 63.06 237.4 61.93 235.46 58.59 234.93 57.59 233.81 54.61 233.75 53.84 232.28 51.12 231.35 52.85 229.03 55.96 227.41 52.27 223.88 54.76 221.43 57.61 221.94 60.33 220.45 53.97 219.12 53.61 216.78 51.42 215.96 53.4 212.74 64.13 212.02 67.82 210.58 75.49 209.25 78.51 207.24 82.01 207.42 84.83 206.55 95.61 204.42 95.34 202.35 97.84 200.96 104.37 201.13 108.72 202.87 109.89 201.53 112.31 201.47 115.67 206 117.05 206.41 118.76 209.98 121.56 211.81 125.13 209.55 129.91 212.4 135.97 213.25 135.76 216.52 137.08 216.98 140.35 215.93 143.96 217.45 145.3 214.25 147.15 214.45 150.13 211.9 154.63 210 157.49 210.17 156.79 213.11 166.48 217.66 168.96 219.15 175.87 224.74 187.6 234.86 194.15 241.12 196.6 239.61 196.88 236.55 203.35 239.6 204.72 241.63 209.09 241.76 217.49 239.3 220.74 240.41 224.99 243.74 226.35 245.82 232.26 247.47 236.36 251.87 241.47 252.66 244.18 251.48 247.74 252.52 250.26 254.84 253.08 256.31 Z M 92.94 288 95.95 286.36 95.7 283.52 93.58 281.39 89.42 280.71 87.63 282.19 88.92 286.36 92.94 288 Z M 172.89 293.31 170.89 288.24 172.51 284.15 174.2 282.82 173.93 280.42 183.53 278.87 188.34 279.94 191.61 279.5 196.98 281.14 199.81 280.4 202.94 280.77 203.03 276.7 199.46 277.31 198.36 279.92 196.77 278.59 191.68 278.27 184.7 278.39 179.9 276.53 177.11 277.44 170.63 277.1 170.66 278.61 168.08 280.16 166.24 285.02 165.87 287.63 171.22 291.1 172.89 293.31 Z M 72.62 283.3 75.35 281.93 75.14 279.74 72.79 279.92 70.44 278.75 65.62 279.1 72.41 281.96 72.62 283.3 Z" fill-rule="evenodd" fill="lightgrey" stroke="white" stroke-width="0.5"/>
<path d="M 186.11 343.77 186.46 345.72 188.73 347.94 188.1 349.22 189.63 351.53 193.52 350.94 197.28 352.38 198.52 356.32 200.66 359.21 200.54 360.75 203.12 362.58 201.49 364.14 199.31 362.64 195.97 362.55 193.17 364.16 192.33 362.32 188.62 362.04 185.38 364.54 184.98 366 182.1 366.56 179.52 369.03 177.79 368.98 175.55 365.65 174.78 358 172.06 357.53 171.83 354.49 168.61 352.72 166.09 353.96 163.94 358.08 164.73 361.28 159.84 360.87 160.03 364.09 158.83 365.31 155.63 363.17 149.82 366.9 147.48 364.53 147.07 361.41 149.26 357.54 149.57 355.47 146.38 352.14 145.49 347.94 142.51 347.98 139.38 345.87 139.36 343.43 141.49 342.18 146.78 343.04 147.16 337.71 151.13 335.37 149.83 333.72 150.91 331.37 153.04 332.87 157.02 330.68 157.84 329.33 161.08 332.35 158.73 334.54 161.08 336.69 163.86 336.53 162.03 338.77 156.51 336.78 152.19 338.84 153.15 342.94 155.93 342.59 160.11 343.08 163.14 342.72 164.49 344.34 166.47 344.15 169.31 342.27 172.24 345.27 174.41 344.5 182.86 344.63 186.11 343.77 Z" fill="lightgrey" stroke="white" stroke-width="0.5"/>
<path d="M 457.8 249.71 458.77 261.28 460.22 263.58 460.29 266.64 463.59 268.69 465.56 267.28 469.88 267.19 474.39 269.15 475.68 266.24 478.56 265.79 481.48 266.35 484.25 268.24 494.21 273.61 496.98 275.9 497.14 278.73 486.05 277.61 481.96 278.73 481.21 280.91 477.61 280.58 476.36 281.28 475.61 284.9 476.42 285.85 473.79 289.1 466.05 289.64 464.79 293.67 462.49 295.49 454.42 293.96 452.45 292.65 449.14 292.34 447.74 293.43 447.98 298.42 449.91 300.49 454.96 304.15 453.66 306.54 449.89 308.69 448.42 313.41 443.06 316.33 438.19 316.79 433.35 316.28 423.65 317.81 414.37 322.77 413.61 324.11 409.47 323.48 408.62 321.61 403.31 322.66 397.44 320.38 388.96 318.74 384.63 315.72 381.46 315.59 371.95 314.25 368.4 315.28 350.6 313.24 344.56 313.67 343.36 311.91 339.37 309.35 333.31 302.4 331.86 302.15 331.08 299.6 328.7 299.89 319.27 296.21 314.79 293.57 308.8 292.78 306.93 293.15 300.75 292.59 296.35 291.34 294.49 291.44 291.65 288.66 291.04 286.32 292.08 283.88 290.17 281.34 290.19 278.96 286.91 275.2 282.97 272.26 280.63 269.11 277.56 267.12 275.68 267.62 273.32 265.76 269.92 266.11 265.69 264.14 265.03 262.96 260.29 261.2 260.04 259.92 256.93 258.24 256.24 255.59 257.74 253.01 262.58 253.17 267.14 250.74 265.87 249 273.32 244.35 275.79 244.08 277.32 242.04 283.7 242.13 295.39 243.1 297.65 245.91 300.73 248 302.68 247.73 307.36 249.1 309.51 248 313.71 249.15 317.92 249.15 321.05 250.59 325.1 247.57 324.19 243.51 321.67 242.42 318.35 239.22 317.6 236.57 318.37 232.86 321.22 229.86 326.88 231.36 329.99 232.74 333.54 232.79 340.56 235.12 343.64 235.29 347.37 236.36 348.31 238.37 352.47 243.27 354.97 244.43 363.59 246.94 367.18 246.81 368.4 245.46 373.97 243.89 379.01 244.57 381.43 245.55 384.13 245.22 389.91 248.16 395.35 248.73 396.62 251.08 402.76 254.14 408.02 254.04 415.32 255.62 420.65 255.22 422.45 253.81 427.11 253.39 429.32 252.34 431.66 252.66 434.72 247.96 438.25 245.67 441.78 246.03 448.08 249.07 450.84 249.16 453.4 248.01 457.8 249.71 Z" fill="lightgrey" stroke="white" stroke-width="0.5"/>
<path d="M 256.24 255.59 253.08 256.31 250.26 254.84 247.74 252.52 244.18 251.48 241.47 252.66 236.36 251.87 232.26 247.47 226.35 245.82 224.99 243.74 220.74 240.41 217.49 239.3 209.09 241.76 204.72 241.63 203.35 239.6 196.88 236.55 196.6 239.61 194.15 241.12 187.6 234.86 175.87 224.74 168.96 219.15 166.48 217.66 156.79 213.11 157.49 210.17 154.63 210 150.13 211.9 147.15 214.45 145.3 214.25 143.96 217.45 140.35 215.93 137.08 216.98 135.76 216.52 135.97 213.25 129.91 212.4 125.13 209.55 121.56 211.81 118.76 209.98 117.05 206.41 115.67 206 112.31 201.47 109.89 201.53 108.72 202.87 104.37 201.13 97.84 200.96 95.34 202.35 95.61 204.42 84.83 206.55 82.01 207.42 78.51 207.24 75.49 209.25 67.82 210.58 64.13 212.02 53.4 212.74 51.42 215.96 53.61 216.78 53.97 219.12 60.33 220.45 57.61 221.94 54.76 221.43 52.27 223.88 55.96 227.41 52.85 229.03 51.12 231.35 53.84 232.28 54.61 233.75 57.59 233.81 58.59 234.93 61.93 235.46 63.06 237.4 63.26 241.17 59.06 242.32 56.02 242.04 53.54 240.53 52.78 243.38 46.37 242.1 44.19 241.1 43.01 239.03 40.61 237.9 37.24 239.78 34.69 240.25 32.78 238.4 29.55 238.67 26.2 240.4 23.81 243.41 20.93 242.21 18.5 240.26 15.22 238.99 16.67 242.77 14.54 242.62 14.59 240.54 12.15 239.52 7 235.79 3.72 234.69 1 234.8 1 82.31 9.15 83.61 20.62 87.25 23.17 87.58 29.91 89.58 38.95 92.91 41.68 90.7 41.64 88.82 37.53 88.11 34.21 86.15 32.03 84.06 25.99 82.5 24.56 83.2 23.25 80.17 23.34 76.45 21.6 73.82 18.56 74.24 16.85 71.89 17.44 70.23 22.21 68.5 23.75 66.17 22.46 59.9 23.59 57.68 26.46 58.37 35.74 58.11 41.7 59.07 44.09 59.97 46.55 62.91 46.5 66.93 45.07 69.22 50.68 71.27 53.57 73.35 55.61 76.87 54.4 77.8 58.11 81.39 57.95 82.86 60.58 85.6 61.91 88.34 70.07 91.49 68.56 94.02 70.4 95.9 70.53 97.89 68.57 98.66 68.48 102.28 64.07 106.56 60.32 107.11 56.03 104.71 52.15 106.66 61.07 108.94 65.7 108.69 70.52 109.74 73.33 108.88 72.71 106.66 77.79 105.03 79.2 103.57 78.47 100.19 81.01 98.18 78.35 94.28 75.11 92.68 74.91 89.63 84.15 87.92 87.06 89.73 92.16 91.54 95.58 94.69 98.34 93.75 94.06 90.83 92.46 88.76 87.35 87.8 85.71 86.9 77.63 85.84 74.21 87.24 67.65 86.45 67.35 84.66 63.41 82.09 63.11 79.4 64.11 76.15 55.87 70.56 51.92 69.15 52.71 66.28 59.25 64.21 58.97 59.27 62.94 63.07 62.39 65.74 64.82 67.45 65.75 69.95 70.16 70.69 80.87 71.41 76.48 69.75 70.19 68.26 67.11 65.97 71.06 64.61 75.9 66.21 75.91 62.06 83.05 62.06 100.45 67.2 106.42 66.55 109.63 67.32 109.14 69.48 106.09 70.31 107.33 72.59 113.3 73.39 115.24 76.86 118.53 77.56 119.4 76.48 111.24 70.63 111.83 67.87 108.91 66.14 104.94 65.86 101.28 64.35 99.51 62.8 93.56 62.29 89.56 60.87 88.09 58.07 82.54 55.2 82.56 53.18 89.8 52.61 98.38 52.66 115.19 50.85 111.27 48.27 108.53 48.22 109 45.06 110.6 42.59 114.8 41.57 115.25 40.4 120.86 38.73 135.02 37.19 136.85 34.78 141.94 35.28 145.79 34.56 149.94 35.14 150.46 36.08 159.78 35.87 160.63 34.46 165.45 32.41 171.48 32.14 172.02 30.56 169.24 29.58 169.16 28.01 171.56 25.92 175.06 24.13 178.48 23.66 187.1 24.97 189.69 24.78 190.45 27.03 193.41 27.92 202.15 28.55 204.66 32.41 208.47 32.15 210.37 30.75 215.46 30.38 219.98 30.85 224.81 30.35 237.04 33.15 241.42 35.26 243.32 34.67 245.71 36.21 248.43 36.76 248.81 38.17 252.04 40.94 250.89 42.93 247.9 43.75 241.99 46.85 241.41 48.7 237.98 50.02 237.21 51.8 234.38 52.98 232.1 52.81 229.98 56.06 237.85 56.25 240.41 55.15 248.36 53.68 247.79 52.29 244.59 52.49 243.69 50.03 247 50.2 255.93 52.01 265.33 52.44 265.88 54.17 268.23 54.24 270.07 53.07 273.29 53.12 276.38 52.26 283.35 52.52 290.51 53.2 294.45 53.15 296.65 55.4 307.25 57.8 315.01 58 322.9 57.26 326.9 58.1 326.47 55.88 321.68 53.46 324.99 52.87 325.74 51.67 332.16 53.23 338.28 53.4 342.08 54.93 342.95 53.44 348.96 54.02 350 54.93 354.76 55.56 361.42 57.28 356.08 58.17 357.1 60.28 361.94 61.33 364.82 61.34 368.14 62.29 368.05 65.97 371.73 67.98 374.3 68.33 377 69.86 382.64 71.99 390.88 74.21 393.7 73.35 390.37 67.33 392.21 66.68 400.68 69.18 404.28 69.68 410.21 67.78 417.8 68.53 423.66 69.86 425.34 67.95 428 67.63 432.77 69.35 435.38 69.03 429.37 63.64 425.27 63.72 423.85 61.22 429.73 61.23 430.72 58.65 432.36 59.16 456.53 60.79 457.7 62.96 469.1 62.47 476.17 62.62 484.83 63.83 489.89 65.53 489.46 66.65 494.57 68.59 497.55 68.59 505.58 70.23 511.03 72.11 511.38 72.91 516.3 73.75 523.29 73.3 524.3 72.76 532.64 71.74 542.44 71.92 549.05 72.73 559.15 75 566.13 78.11 567.83 80.98 574.3 82.64 577.85 82.89 584 87.05 584.04 84.02 585.24 82.79 594.59 81.88 601.68 83.47 606.29 83.25 614.81 83.98 616.73 81.87 621.83 83.54 625.75 85.99 633.44 87.11 639.04 89.61 642.76 89.21 644.13 87.45 635.13 83.22 629.19 79.24 643.78 80.42 648.31 81.8 651.96 81.03 665.68 81.44 670.39 82.64 682.12 84.43 685.57 84.65 686.42 85.56 690.21 85.76 698.15 88.02 722.16 103.62 745.03 119.16 744.65 121.14 738.73 122.48 732.97 121.59 736.72 124.41 742.54 126.13 742.65 124.96 750.32 128.58 755.15 131.84 755.43 132.68 762.55 134.45 763.96 135.86 769.9 138.5 769.5 141.32 761.95 139.87 756.7 139.53 754.36 137.83 753.05 138.6 753.14 141.72 750.43 142.77 747.29 145.9 744.24 146.92 741.5 152.54 741.75 153.92 737.72 157.95 740.76 161.41 736.88 160.62 731.71 157.76 726.44 156.34 719.47 156.31 715.11 158.25 715.23 162.44 714.24 162.58 709.82 158.1 707.45 157.3 706.14 162.9 700.81 160.19 700.37 161.35 697.08 160.62 696.57 162.69 699.89 165.92 700.34 168.63 702.65 169.53 701.7 172.54 704.51 177.38 706.26 178.74 710.52 179.97 710.27 178.39 715.3 179.72 717.77 182.75 717.16 183.9 722.53 188.75 725.7 188.93 731.99 193.78 729.49 194.86 725.95 193.02 724.23 194.23 726.64 198.74 732.21 203.35 736.21 205.34 736.5 208.22 733.76 208.48 731.68 207.55 729.45 208.09 727.98 211.23 730.42 215.05 732.8 216.54 733.23 219.29 730.46 220.87 729.84 223.42 733.99 227.71 735.01 233.27 733.72 234.92 732.86 240.24 730.38 237.5 728.31 236.67 720.01 228.46 711.67 222.12 702.49 213.95 696.17 209.04 687.39 201.56 681.54 195.01 678.19 190.29 677.28 188.16 678.71 185.72 677.65 183.05 675.01 181.05 676.62 178.55 680.04 177.8 681.72 174.58 681.85 170.59 680.25 168.4 681.86 164.46 682.03 160.55 681.18 157.61 684.15 155.68 685.27 152.7 685.23 149.81 682.46 149 681.87 146.99 676.4 142.18 678.23 140.53 673.51 138.62 668.28 140.14 672.48 143.8 674.05 146.12 671.82 147.77 671.85 149.59 670.14 154.27 668.27 155.74 665.66 154.18 665.32 152.41 661.76 151.82 659.63 150.54 657.8 146.32 652.99 147.07 649.77 145.25 639.13 146.09 636.49 148.54 638.01 149.96 637.58 153.13 638.57 154.98 636.37 158.03 635.99 160.82 638.82 165.28 642.21 164.98 647.8 166.68 646.18 168.36 644.35 167.75 642.93 169.15 637.61 167.61 636.57 170.31 632.2 169.21 631.25 170.66 627.08 170.82 623.61 168.99 625.63 167.05 620.67 164.53 617.99 165.93 614.21 164.4 607.27 163.17 606.82 165.14 604.2 167.37 602.86 166.38 599.62 166.28 598.59 167.58 591.88 166.35 589.14 168.38 586.86 166.21 580.74 166.46 572.86 166.18 568.83 166.59 564.94 168.54 564.84 172.85 562.35 174.86 562.4 176.49 564.18 179.46 562.08 180.8 562.51 182.56 560.29 184.37 559.09 187.39 558.77 194.34 555.29 199.8 554.67 202.52 552.41 204.96 554.05 206.46 558.51 207.78 561.54 207.34 566.09 207.6 571.61 214.76 577.15 213.26 577.31 216.9 585.24 216.39 583.7 212.99 580.9 210 586.17 211.05 589.06 210.89 593.21 212.27 594.59 213.73 603.72 217.95 606.86 218.83 608.49 220.24 611.66 226.41 615.44 228.41 617.38 233.21 617.73 237.06 620.94 243.29 624.29 246.79 625.54 249.36 628.55 251.93 629.35 254.93 633.31 262.01 631.33 266.9 631.57 272.29 631.01 275.17 632.58 282.01 632.12 285.93 630.83 289.73 629.52 291.28 628.62 295.01 628.72 297.89 627.1 300.67 627.78 303.29 626.21 307.12 622.62 310.58 621.76 312.37 616.26 314.12 615.15 312.88 609.66 312.37 608.32 309.71 603.62 308.43 603.4 311.7 601.01 314.47 601.11 317.73 598.58 315.59 596.55 313.72 600.26 312.68 599.44 307.84 597.81 306.56 595.53 301.71 590.51 296.01 591.73 291.26 593.94 291.01 602.33 292.91 601.3 289.18 602.35 286.91 601.11 282.79 601.97 281.73 597.76 272.72 599.08 271.17 599.42 268.64 596.02 265.96 595.45 263.69 592.45 262.62 585.46 264.92 583.26 267.21 583.29 268.67 572.67 268.9 567.45 265 567.56 263.51 563.34 260.34 562.88 258.23 559.89 258.29 556.41 256.72 551.17 253.4 548.59 253.92 543.98 251.62 540.34 252.23 538.16 251.76 534.44 249.72 532.41 246.17 529.97 245.21 526.94 241.45 522.41 238.67 521.14 236.49 519.15 235.52 512.93 230.53 512.38 229.02 505.43 224.22 501.21 221.71 495.48 219.73 493.06 220.24 488.11 218.19 482.61 216.6 478.02 217.38 474.31 217.23 467.93 219.11 465.63 219.08 464.25 222.73 464.43 225.07 466.79 224.75 469.44 225.58 470.03 227.31 472.57 229.33 470.84 233.94 471.88 238.49 471.64 242.8 474.84 247.31 471.05 248.47 467.2 252.49 461.31 251.06 457.8 249.71 453.4 248.01 450.84 249.16 448.08 249.07 441.78 246.03 438.25 245.67 434.72 247.96 431.66 252.66 429.32 252.34 427.11 253.39 422.45 253.81 420.65 255.22 415.32 255.62 408.02 254.04 402.76 254.14 396.62 251.08 395.35 248.73 389.91 248.16 384.13 245.22 381.43 245.55 379.01 244.57 373.97 243.89 368.4 245.46 367.18 246.81 363.59 246.94 354.97 244.43 352.47 243.27 348.31 238.37 347.37 236.36 343.64 235.29 340.56 235.12 333.54 232.79 329.99 232.74 326.88 231.36 321.22 229.86 318.37 232.86 317.6 236.57 318.35 239.22 321.67 242.42 324.19 243.51 325.1 247.57 321.05 250.59 317.92 249.15 313.71 249.15 309.51 248 307.36 249.1 302.68 247.73 300.73 248 297.65 245.91 295.39 243.1 283.7 242.13 277.32 242.04 275.79 244.08 273.32 244.35 265.87 249 267.14 250.74 262.58 253.17 257.74 253.01 256.24 255.59 Z M 363.62 234.92 371.34 232.69 371.56 226.99 380.35 222.22 382.47 212.4 379.1 207.24 378.2 203.56 375.32 198.05 372.04 197.48 371.11 199.18 373.31 202.39 374.36 213.65 372.32 215.8 372.66 217.75 370.44 219.54 370.99 221.64 369.59 224.79 367.42 226 366.87 229.21 365.49 230.96 362.08 232.25 359.32 232.3 357.48 233.76 363.62 234.92 Z M 570.38 203.53 571.96 205.61 570.75 206.99 567.96 205.09 570.38 203.53 Z M 606.99 210.17 607.39 209.08 611.53 211.58 613.32 214.41 621.29 220.21 625.11 224.16 626.31 227.2 629.28 230.66 632.18 232.54 637.63 237.11 646.23 245.38 649.86 248.02 657.23 254.83 650.97 253.95 649.05 255.97 650.32 257.82 653.22 265.86 654.86 268.14 658.6 271.16 661.6 272.76 666.27 277.68 661.59 278.38 663.55 283.8 661.57 283.75 657.18 278.63 655.98 274.56 651.71 269.53 651 266.34 648.29 263.19 643.23 259.1 641.91 255.3 639.18 251.01 634.39 245.05 632.35 243.43 629.94 238.57 625.69 235.05 619.54 231.39 615.94 226.99 615.62 225.15 612.9 221.37 609.62 218.58 611.08 216.97 612.83 218.33 613.61 215.42 607.77 211.49 606.99 210.17 Z M 704.8 298.31 701.8 301.81 701.75 297.61 704.8 298.31 Z M 715.46 289.36 712.64 291.35 711.94 293.46 708.3 294.03 709.63 290.7 712.83 290.63 715.46 289.36 Z M 721.36 282.17 722.05 285 720.28 287.59 719.04 285.33 721.36 282.17 Z M 730.67 242.46 731.99 245.87 728.9 247.65 727.81 244.93 730.67 242.46 Z M 625.52 81.3 625.44 83.47 615.79 81.43 616.55 79.95 625.52 81.3 Z M 673.03 72.55 672.6 73.44 668.59 73.95 664.49 72.2 663.6 70.69 666.06 68.43 673.03 72.55 Z M 75.77 60.82 73.36 62.81 69.51 62.75 71.5 60.2 75.77 60.82 Z M 34.67 55.81 34.1 56.38 27.72 57.21 25.42 56.52 24.23 54.48 26.48 53.81 30.92 54.06 34.67 55.81 Z M 437.38 55.12 437.25 56.19 426.59 55.28 421.34 54.46 418.81 53.21 418.16 51 422.89 50.75 426.89 51.41 434.58 53.49 437.38 55.12 Z M 415.08 49.05 414.03 50.81 410.75 49.62 412.53 48.12 415.08 49.05 Z M 258.72 46.9 258.37 49.49 254.53 49.12 251.18 47.54 250.61 46.12 258.72 46.9 Z M 456.97 41.7 459.04 43.65 452.97 44.62 446.72 44.3 430.24 41.24 434.75 39.71 440.62 39.85 444.21 41.32 446.39 40.94 456.97 41.7 Z M 422.63 39 423.33 41.61 421.21 42.7 413.84 41.86 408.92 40.17 408.74 38.23 405.02 37.72 404.93 39.1 412.87 42.18 401.88 44.12 399.45 45.14 391.98 44.49 387.74 43.05 379.6 40.91 376.73 37.33 376.7 35.6 380.2 34.03 382.18 35.03 388.11 36.11 391.25 37.14 394.11 34.8 395.88 34.86 403.5 36.69 411.41 36.89 422.63 39 Z M 81.78 59.21 78.24 59.41 77.46 56.79 81.78 59.21 Z M 178.09 17.94 177.06 19.59 172.18 20.12 159.69 20.54 155.56 22.11 151.54 21.8 151.72 19.26 150.64 17.4 150.72 14.31 152.56 12.8 157.97 12.74 161.11 14.79 165.81 14.36 170.83 16.1 174.8 16.45 178.09 17.94 Z M 106.18 9.23 104.98 10.61 99.52 10.84 95.81 8.42 106.18 9.23 Z M 145.5 14.94 144.9 16.37 136.52 16.46 130.05 15.28 120.49 14.96 115.52 13.67 113.87 12.36 109.5 11.32 110.08 9.02 111.73 8.18 119.32 8.15 124.27 7.73 130.13 9.61 133.42 8.5 139.51 9.92 140.08 11.54 142.95 14.4 145.5 14.94 Z M 120.38 4.26 121.74 7.36 111.65 7.95 106 8.83 95.69 7.02 97.13 5.65 94.94 2.73 102.91 1.85 106.17 1 115.18 3.27 120.38 4.26 Z M 713.65 169.79 710.43 173.36 708.27 169.35 710.04 167.56 713.65 169.79 Z" fill-rule="evenodd" fill="lightgrey" stroke="white" stroke-width="0.5"/>
<path d="M 445.46 500.89 447.19 498.88 449.62 498.38 451.5 500.07 457.02 497.19 459.12 499.25 461.49 496.95 462.72 498.23 465.57 496.82 465.73 494.55 469.61 492.41 474.26 496.1 476.08 495.51 478.18 496.69 480.96 496.56 481.78 498.15 480.54 500.62 482.75 504.5 488.36 508.26 492.16 507.89 493.66 509.3 492.29 508.93 487.86 514.41 484.61 514.35 483.72 518.16 484.16 520.87 479.7 523.69 479 526.7 478.72 533.22 483.18 538.77 486.05 540.58 486.92 543.77 489.85 547.58 492.98 549.86 494.07 551.52 499.02 555.62 499.65 557 502.51 557.89 507.94 565.01 509.52 566.01 511.85 571.61 514.74 580.56 514.55 583.93 516.92 588.36 515.08 590.82 516.23 599.22 514.74 602.72 511.32 604.35 509.62 606.43 507.72 606.76 506.06 608.61 501.77 611.14 497.44 611.6 495.79 617.42 493.26 619.45 493.35 621.04 488.2 623.25 484.96 627.82 483.01 628.45 482.42 625.02 482.47 616.6 483.95 615.25 478.48 611.35 481.66 610.32 483.22 608.34 491.02 605.14 489.07 603.2 490.07 598.9 492.36 599.78 492.96 597.06 495.45 597.05 498.82 594.22 501.69 593.61 501.85 591.19 500.61 587.36 501.19 582.62 498.33 577.23 499.29 571.84 499.71 566.51 495.11 562.12 496.74 560.48 494.13 557.54 490.13 555.55 488.49 550.92 481.13 544.55 478.41 540.27 475.58 538.5 474.7 535.01 471.43 534.14 463.85 529.21 465.47 525.89 468.55 526.67 470.68 524.93 470.95 521.39 468.89 521.04 467.8 516.91 463.02 514.16 460.96 515.3 455.63 515 453.09 510.97 453.04 506.98 450.79 507.72 449.96 505.47 445.46 500.89 Z" fill="lightgrey" stroke="white" stroke-width="0.5"/>
<path d="M 499.29 571.84 498.33 577.23 501.19 582.62 500.61 587.36 501.85 591.19 501.69 593.61 498.82 594.22 495.45 597.05 492.96 597.06 492.36 599.78 490.07 598.9 489.07 603.2 491.02 605.14 483.22 608.34 481.66 610.32 478.48 611.35 477.05 610.24 473.52 609.81 471.71 610.6 471.6 605.73 469.63 607.07 467.1 606.61 466.84 601.77 465.06 600.04 462.91 595.5 463.2 592.94 461.33 590.96 458.87 585.02 463.94 575.61 467.56 574.44 470.23 575.17 474.99 575.04 477.4 574.28 480.84 575.15 482.42 577.36 483.85 576.82 486.84 578.92 488.89 577.67 487.19 575.27 490.67 574.03 495.08 575.35 498.62 573.32 499.29 571.84 Z" fill="lightgrey" stroke="white" stroke-width="0.5"/>
<path d="M 1 330.9 2.86 332.99 6.4 333.37 5.63 335.34 3.55 336.73 2.82 343.51 1 346.17 1 330.9 Z M 1 350.78 1.5 353.08 1 352.99 1 350.78 Z" fill-rule="evenodd" fill="lightgrey" stroke="white" stroke-width="0.5"/>
<path d="M 439.04 508.69 440.5 512.18 443.89 510.98 443.4 506.35 440.92 502.46 441.69 500.45 445.46 500.89 449.96 505.47 450.79 507.72 453.04 506.98 453.09 510.97 455.63 515 460.96 515.3 463.02 514.16 467.8 516.91 468.89 521.04 470.95 521.39 470.68 524.93 468.55 526.67 465.47 525.89 463.85 529.21 471.43 534.14 474.7 535.01 475.58 538.5 478.41 540.27 481.13 544.55 488.49 550.92 490.13 555.55 494.13 557.54 496.74 560.48 495.11 562.12 499.71 566.51 499.29 571.84 498.62 573.32 495.08 575.35 490.67 574.03 487.19 575.27 488.89 577.67 486.84 578.92 483.85 576.82 482.42 577.36 480.84 575.15 483.19 572.86 482.84 566.6 483.11 563.26 481.31 562.06 480.65 559.72 477.57 558.59 474.76 555.01 474.04 550.44 474.15 547.23 469.24 542.77 466.3 538.51 461.29 537.38 460.25 537.76 459.02 541.53 455.27 541.72 451.02 539.48 444.42 546.41 442.44 545.49 443.9 540.96 442.32 537.5 443.67 535.24 442.94 530.9 441.53 527.02 438.6 527.75 436.26 527.27 435.32 525.18 436.19 522.39 434.34 519.6 432.29 520.07 432.66 516.57 434.84 514.83 435.92 510.91 439.04 508.69 Z" fill="lightgrey" stroke="white" stroke-width="0.5"/>
<path d="M 226.98 318.7 224.56 321.52 221.57 322.37 217.66 324.64 214.78 329.2 210.47 329.73 205.79 329.44 204.51 334.91 202.9 334.68 199.12 336.05 197.2 332.92 195.03 334.68 192.14 334.03 189.82 337.75 187.2 338.16 186.56 340.5 187.93 342.45 186.11 343.77 182.86 344.63 174.41 344.5 172.24 345.27 169.31 342.27 166.47 344.15 164.49 344.34 163.14 342.72 160.11 343.08 155.93 342.59 153.15 342.94 152.19 338.84 156.51 336.78 162.03 338.77 163.86 336.53 166.75 336.02 169.46 337.36 171.7 336.32 171.89 334.81 175.3 334.06 177.39 330.75 174.49 330.66 170.31 328.02 168 327.78 166.39 325.47 164.74 328.08 159.66 327.38 154.22 324.28 158.07 321.01 158.07 318.16 157.78 315.13 158.91 313.55 162.99 312.82 170.04 314.47 171.18 315.36 175.3 315.05 175.49 310.74 179.62 309.34 187.57 312.68 190.98 313.08 191.71 311.98 202.02 312.02 212.02 312.44 216.37 313.53 220.67 316.28 224.04 316.55 226.98 318.7 Z" fill="lightgrey" stroke="white" stroke-width="0.5"/>
<path d="M 1 411.29 3.62 414.53 2.89 417.8 3.37 421.61 6.06 421.78 6.68 426.51 9.98 428.75 11.34 431.14 6.74 430.84 4.47 429.88 1 430.39 1 411.29 Z" fill="lightgrey" stroke="white" stroke-width="0.5"/>
<path d="M 1 352.99 1.5 353.08 3.76 359.47 7.42 361.71 12.95 362.55 16.09 365.94 21.24 368.68 27.76 370.1 39.3 367.29 43.39 367.91 41.68 363.11 43.79 363.29 47.97 361.5 48.06 359.26 51.75 356.37 58.39 356.33 59.08 354.73 63.77 355.35 66.59 357.37 73.27 359.14 75 360.47 78.64 360.12 82.72 361.72 84.54 364.52 88.75 366.03 91.99 369.6 97.56 369.5 99.75 374.38 101.09 378.98 100.52 382.12 101.07 386.38 98.89 388.94 97.96 393.02 98.97 397.23 101.98 398.05 100.27 401.72 103.87 410.04 103.82 412.09 105.06 417 111.78 418.04 113.64 421.24 113.65 423.12 107.81 432.09 111.89 436.26 114.92 441.2 117.94 444.23 121.81 445.37 125.33 449.28 126.87 456.38 130.44 456.43 130.97 459.47 130.33 461.91 127.24 461.73 123.78 463.05 123.58 464.44 120.65 465.44 119.65 469.8 119.72 475.03 118.47 476.35 115.29 474.96 109.87 473.85 106.23 473.85 102.53 472.64 99.93 473.26 98.27 472.16 94.17 471.25 92.28 471.88 90.48 470.5 85.35 469.73 83.72 466.8 81.23 458.74 79.73 457.17 76.06 456.59 71.02 458.43 70.21 460.2 67.99 460.37 64.61 463.08 60.48 461.08 55.81 461.14 53.1 458.51 50.31 457.56 46.32 455.2 44.59 452.49 41.13 450.77 37.76 450.62 35.99 449.31 33.65 445.54 32.61 442.45 28.87 438.69 28.59 435.87 23.99 431.36 23.11 428.98 19.62 430.51 14.61 427.93 14.35 430.05 11.34 431.14 9.98 428.75 6.68 426.51 6.06 421.78 3.37 421.61 2.89 417.8 3.62 414.53 1 411.29 1 352.99 Z" fill="lightgrey" stroke="white" stroke-width="0.5"/>
<path d="M 34.7 479.23 33.65 473.03 35.4 467.19 36.9 466.2 40 469.78 39.26 472.09 40.77 475.63 39.8 479.85 38.04 480.35 36.21 480.88 34.7 479.23 Z" fill="lightgrey" stroke="white" stroke-width="0.5"/>
<path d="M 41.17 483.75 41.51 485.39 50.31 495.97 70.65 498.83 71.23 498.07 75.41 504.75 71.66 523.05 48.37 532.27 25.78 535.8 18.32 540.07 14.14 546.4 13.07 549.82 9.47 551.07 7.19 548.13 1 548.25 1 439.68 3.86 440.06 6.2 444.31 12.2 444.25 15.83 451.59 22.47 456.82 23.85 458.84 25.87 459.76 26.93 463.11 28.67 465.69 27.98 467.77 29.38 471.22 31.34 472.77 32.48 476.39 34.7 479.23 36.21 480.88 38.04 480.35 38.85 483.32 41.17 483.75 Z" fill="lightgrey" stroke="white" stroke-width="0.5"/>
<path d="M 219.83 378.73 223.21 383.66 223.24 384.8 220.32 387.2 219.08 386.97 214.87 389.25 202.79 386.81 200.53 387.74 199.76 390.47 201.88 392.08 202.93 397.14 204.42 398.05 204.15 401.48 210.13 405.67 211.27 408.09 213.58 408.04 216.35 410.96 211.32 413.81 212.5 417.5 212.72 421.91 211.36 422.49 208.64 427.35 209.71 429.05 205.7 431.46 205.32 435.06 203.62 439.8 199.95 442 197.2 449.69 193.01 450.51 189.48 451.98 187.57 449.86 185.15 449.13 183.22 452.92 180.34 456.72 180.01 460.23 183.1 462.32 185.87 462.79 185.88 467.86 187.83 470.47 190.74 470.43 191.2 472.92 193.26 475.61 195.44 479.82 193.53 483.98 191.78 482.21 188.32 483.31 187.39 484.59 184.01 483.56 177.35 483.45 177.7 486.44 173.54 487.57 169.2 487.93 166.15 484.4 164.52 479.13 160.5 478.46 160.33 474.76 157.66 471.38 151.9 473.69 149.66 473.28 144.05 474.78 139.19 473.7 135.26 473.53 134.88 475.11 126.7 474.51 122.15 475.95 119.72 475.03 119.65 469.8 120.65 465.44 123.58 464.44 123.78 463.05 127.24 461.73 130.33 461.91 130.97 459.47 130.44 456.43 126.87 456.38 125.33 449.28 121.81 445.37 117.94 444.23 114.92 441.2 111.89 436.26 107.81 432.09 121.27 436.25 129.69 435.42 133.91 436.44 136.69 434.75 141.12 435.03 149.72 432.31 149.71 426.75 149.22 422.27 151.32 419.76 156.36 419.65 158.24 419.06 158.73 416.66 161.32 414.08 165.67 414.42 168.45 415.56 170.2 412.91 168.72 408.45 169.79 406.18 169.9 402.42 172.45 402.29 175.18 400.17 171.41 393.49 175.64 394.46 179.47 393.51 178.36 387.69 180.68 385.21 181.43 382.81 180.34 379.62 177.5 375.95 176.01 375.22 178.51 371.24 179.47 371.82 182.33 368.78 184.78 367.91 192.79 367.21 196.41 367.82 199.35 366.06 202.27 366.99 205.78 367.04 206.88 368.81 209.7 369.14 211.68 371.21 211.96 374.57 214.75 377.25 217.66 376.71 219.83 378.73 Z" fill="lightgrey" stroke="white" stroke-width="0.5"/>
<path d="M 461.62 649.73 461.59 651.24 459.63 654.51 457.4 652.98 455.13 654.07 453.62 652.85 453.56 649.84 451.24 648.28 447.79 647.29 446.18 645.66 445.71 648.03 442.85 644.53 441.86 641.82 439.1 639.79 438.36 637.16 432.32 630.21 429.78 631.45 429.07 626.88 430.15 623.78 429.62 622.57 432.29 611.99 432.21 608.87 435.69 604.18 438.33 598.48 436.75 595.62 435.77 591.34 434.19 590 432.78 580.96 430.75 577.7 427.23 574.85 424.33 570.91 423.35 567.95 426.28 565.84 425.71 562.33 425.96 557.11 423.84 553.22 423.32 550.56 417.12 544.41 416.63 541.73 413.42 536.95 415.81 536.08 414.61 532.91 415.59 531.19 415.24 527.11 418.06 525.7 420.62 525.99 424.21 524.43 430.86 518.91 432.29 520.07 434.34 519.6 436.19 522.39 435.32 525.18 436.26 527.27 438.6 527.75 441.53 527.02 442.94 530.9 443.67 535.24 442.32 537.5 443.9 540.96 442.44 545.49 444.42 546.41 451.02 539.48 455.27 541.72 459.02 541.53 460.25 537.76 461.29 537.38 466.3 538.51 469.24 542.77 474.15 547.23 474.04 550.44 474.76 555.01 477.57 558.59 480.65 559.72 481.31 562.06 483.11 563.26 482.84 566.6 483.19 572.86 480.84 575.15 477.4 574.28 474.99 575.04 470.23 575.17 467.56 574.44 463.94 575.61 458.87 585.02 461.33 590.96 463.2 592.94 462.91 595.5 465.06 600.04 462.35 595.38 459.6 595.03 455.4 590.57 448.14 591.07 447.31 586.65 447.55 583.24 442.17 582.9 439.8 585.17 441.09 587.03 440.32 591.01 441.18 595 440.03 597.07 437.79 604.94 438.13 607.09 435.56 611.93 436.28 618.51 438.94 622.59 441.96 621.73 443.21 627.79 445.44 629.53 446.73 637.2 445.66 638.15 447.53 640.94 449.29 641.11 452.59 644.21 457.23 644.43 459.06 647.49 461.62 649.73 Z" fill="lightgrey" stroke="white" stroke-width="0.5"/>
<path d="M 1 430.39 4.47 429.88 6.74 430.84 7.74 436.38 12.2 444.25 6.2 444.31 3.86 440.06 1 439.68 1 430.39 Z" fill="lightgrey" stroke="white" stroke-width="0.5"/>
<path d="M 641.63 792.1 640.25 794.94 638.09 793.59 641.63 792.1 Z M 646.35 794.92 645.6 790.09 647.67 787.04 658.12 785.08 659.18 785.7 662.71 784.06 665.35 785.2 662.78 787.45 659.23 788.65 657.87 790.02 651.03 792.15 646.35 794.92 Z" fill-rule="evenodd" fill="lightgrey" stroke="white" stroke-width="0.5"/>
<path d="M 567.23 662.35 565.42 663.74 566.28 667.26 564.38 670.36 561.42 666.11 559.36 665.01 563.63 664.16 565.13 662.47 567.23 662.35 Z" fill="lightgrey" stroke="white" stroke-width="0.5"/>
<path d="M 369.98 504.77 372.13 504.34 374.35 502.28 372.91 497.43 374.76 494.14 374.2 486.49 378.56 486.88 379.97 486.16 380.27 483.2 382.45 476.66 381.03 473.26 383.61 470.1 384.17 467.21 382.98 465.39 382.89 462.1 384.89 461.3 389.7 456.08 395.4 454.69 394.69 452.74 396.88 450.16 397 447.23 397.92 444.35 399.36 444.73 403.41 447.93 403.69 449.48 406.62 452.22 409.03 453.13 411.23 460.56 412.49 468.79 410.22 471.67 406.59 474.7 406.21 478.47 405.33 479.25 407.71 484.96 409.32 485.91 414.03 485 417.66 489.77 418.56 492.59 420.16 494.4 422.33 494.24 424.05 495.81 422.59 497.92 423.31 499.99 422.31 503.34 428.63 504.14 429.15 507.13 432.43 508.95 434.87 509.46 438.42 506.78 439.04 508.69 435.92 510.91 434.84 514.83 432.66 516.57 432.29 520.07 430.86 518.91 424.21 524.43 420.62 525.99 418.06 525.7 415.24 527.11 415.59 531.19 414.61 532.91 415.81 536.08 413.42 536.95 416.63 541.73 417.12 544.41 423.32 550.56 423.84 553.22 425.96 557.11 425.71 562.33 426.28 565.84 423.35 567.95 424.33 570.91 427.23 574.85 430.75 577.7 432.78 580.96 434.19 590 435.77 591.34 436.75 595.62 438.33 598.48 435.69 604.18 432.21 608.87 432.29 611.99 430.5 611.86 429.69 608.63 431.59 606.7 431.34 599.71 430.85 597.11 429.22 594.2 429.82 590.56 428.64 585.83 423.68 578.24 423.93 577.11 420.63 570.22 420.41 567.5 418.84 560.93 417.65 559.81 417.88 557.27 416.75 554.93 414.21 553.46 412.03 548.35 410.5 553.09 409.28 555.11 407.12 555.84 402.78 558.55 400.38 562.51 395.97 561.9 393.38 560.24 390.45 559.48 390.84 551.71 391.67 546.4 390.19 540.58 387.65 535.56 385.68 533.53 382.6 532.05 384.6 528.66 378.8 522.19 377.11 523.06 373.84 521.15 370.08 516.55 368.69 513.22 367.71 510.86 370.73 509.21 369.98 504.77 Z" fill="lightgrey" stroke="white" stroke-width="0.5"/>
<path d="M 341.75 503.36 338.92 495.67 339.51 493.64 337.23 492.63 335.57 489.34 336.23 483.47 334.11 483.21 330.02 480.16 332.46 475.3 336.17 475.33 334.63 472.27 332.72 472.28 328.45 468.52 328.76 466.38 330.58 463.49 335.31 464.16 336.43 466.44 338.4 467.7 340.29 467.16 342.33 468.52 342.94 473.45 347.82 475.51 354.63 475.03 356.61 475.66 360.73 475.21 364.72 477.33 363.23 478.95 362.81 482.37 361.38 484.5 357.36 485.2 356.3 489.69 360.34 495.51 364.16 488.59 366.44 492.67 367.16 496.26 368.37 498.15 369.98 504.77 370.73 509.21 367.71 510.86 368.69 513.22 366.87 512.36 365.38 506.6 362.06 499.63 359.97 497.32 358.54 499.25 356.26 499.25 352.96 494.54 351.64 497.52 353.89 501.66 351.14 506.4 347.08 506.86 342.5 506.26 341.75 503.36 Z" fill="lightgrey" stroke="white" stroke-width="0.5"/>
<path d="M 201.49 364.14 199.35 366.06 196.41 367.82 192.79 367.21 184.78 367.91 182.33 368.78 179.47 371.82 178.51 371.24 176.01 375.22 177.5 375.95 180.34 379.62 181.43 382.81 180.68 385.21 178.36 387.69 179.47 393.51 175.64 394.46 171.41 393.49 175.18 400.17 172.45 402.29 169.9 402.42 169.79 406.18 168.72 408.45 170.2 412.91 168.45 415.56 165.67 414.42 161.32 414.08 158.73 416.66 158.24 419.06 156.36 419.65 151.32 419.76 149.22 422.27 149.71 426.75 149.72 432.31 141.12 435.03 136.69 434.75 133.91 436.44 129.69 435.42 121.27 436.25 107.81 432.09 113.65 423.12 113.64 421.24 111.78 418.04 105.06 417 103.82 412.09 103.87 410.04 100.27 401.72 101.98 398.05 98.97 397.23 97.96 393.02 98.89 388.94 101.07 386.38 100.52 382.12 101.09 378.98 103.48 380.51 107.33 380.77 112.23 382.63 115.33 380.65 116.49 376.79 122.94 374.06 124.89 371.22 125.18 366.83 126.7 364.12 130.02 364.04 130.67 361.48 135.85 363.22 137.49 362.91 141.14 362.73 143.33 364.49 145.01 363.71 147.48 364.53 149.82 366.9 155.63 363.17 158.83 365.31 160.03 364.09 159.84 360.87 164.73 361.28 163.94 358.08 166.09 353.96 168.61 352.72 171.83 354.49 172.06 357.53 174.78 358 175.55 365.65 177.79 368.98 179.52 369.03 182.1 366.56 184.98 366 185.38 364.54 188.62 362.04 192.33 362.32 193.17 364.16 195.97 362.55 199.31 362.64 201.49 364.14 Z" fill="lightgrey" stroke="white" stroke-width="0.5"/>
<path d="M 49.13 326.62 56.98 327.24 55.12 321.65 57.63 318.93 61.15 318.04 61.41 315.92 65.25 313.3 67.92 315.43 69.62 315.52 72.89 317.82 75.72 317.65 79.08 321.8 79.65 326 82.42 327.41 85.7 327.25 89.07 328.12 90.14 326.85 93.61 328.42 95.86 332.17 98.86 334.78 100.62 338.63 109.76 344.19 115.64 348.24 117.26 348.15 120.03 350.24 122.93 351.45 128.54 354.89 130.52 354.56 136.23 356.82 137.49 362.91 135.85 363.22 130.67 361.48 130.02 364.04 126.7 364.12 125.18 366.83 124.89 371.22 122.94 374.06 116.49 376.79 115.33 380.65 112.23 382.63 107.33 380.77 103.48 380.51 101.09 378.98 99.75 374.38 97.56 369.5 91.99 369.6 88.75 366.03 84.54 364.52 82.72 361.72 78.64 360.12 75 360.47 73.27 359.14 66.59 357.37 63.77 355.35 59.08 354.73 58.39 356.33 51.75 356.37 48.06 359.26 47.97 361.5 43.79 363.29 41.68 363.11 40.26 359.41 38.8 352.24 39.1 348.49 36.63 347.12 35.37 344.86 31.56 344.37 33.37 340.89 32.94 338.69 28.9 339.22 27.59 338.23 26.7 334.28 27.14 329.79 28.88 331.63 33.78 332.99 36.93 332.04 39.14 327.8 34.22 324.68 31.95 319.71 30.21 319.11 26.17 319.6 23.24 324.81 21.82 322.72 25.03 319.27 27.95 318.07 32.47 317.27 38.27 319.99 45.1 326.9 49.13 326.62 Z" fill="lightgrey" stroke="white" stroke-width="0.5"/>
<path d="M 325.3 450.51 325.55 457.51 327.76 460.81 327.52 463.49 321.78 464.42 319.14 462.32 316.84 463.85 313.11 462.03 309.52 462.4 307.28 459.8 305.02 460.88 300.71 458.33 299.41 458.19 298.39 455.42 294.15 453.75 292.49 454.39 283.71 453.89 282.56 451.96 280.64 452.21 277.47 450.11 276.03 450.61 271.22 448.09 269.51 445.8 265.14 443.52 262.8 443.51 259.94 441.51 260.96 437.15 260.78 433.02 264.81 428.97 265.97 430.63 269.02 426.97 273.08 427.74 274.05 430.15 277.46 431.49 280.3 433.92 282.92 434.24 286.56 438.24 291.02 437.73 292.77 440.93 296.82 443.66 300.71 443.85 300.53 446.29 303.33 446.49 306.87 447.77 308.43 450.29 312.47 448.37 317.79 450.84 322.12 451.02 325.3 450.51 Z" fill="lightgrey" stroke="white" stroke-width="0.5"/>
<path d="M 775.81 791.42 777.51 771.04 776.6 769.25 777.88 765.86 779.09 745.93 779.76 731.42 782.2 731.81 789.41 735.84 796.2 738.38 799 738.82 799 781.34 797.76 783.45 792.72 784.31 795.75 788.43 795.64 790.09 789.21 793.48 785.88 791.92 782.94 792.47 779.38 791.82 776.83 792.45 775.81 791.42 Z" fill="lightgrey" stroke="white" stroke-width="0.5"/>
<path d="M 48.37 532.27 55.57 547.9 58.9 553.97 55.05 555.5 52.73 557.46 51.8 560.04 52.61 563.43 45.9 566.99 39.44 568.67 36.54 570.56 31.74 571.54 27.83 573.67 27.32 575.34 24.86 577.93 20.92 578.62 19.48 577.81 14.68 581.52 9.14 583.59 5.37 583.53 1 584.36 1 548.25 7.19 548.13 9.47 551.07 13.07 549.82 14.14 546.4 18.32 540.07 25.78 535.8 48.37 532.27 Z M 72.38 591.77 69.8 593.54 65.21 593.69 63.64 590.72 66.62 591.06 69.47 590.31 72.38 591.77 Z" fill-rule="evenodd" fill="lightgrey" stroke="white" stroke-width="0.5"/>
<path d="M 530.12 990 530.35 986.07 532.46 979.3 532.37 975.72 531.19 972.89 531.52 970.47 529.71 966.63 530.58 962.77 530.44 959.34 528.6 953.44 530.53 952.73 531.67 950.37 529.8 948.03 529.33 944.7 530.45 943.69 532.33 948.31 534.43 949.01 535.02 945.27 532.54 937 531.73 932.58 532.59 929.22 534.81 925.39 536.1 924.4 537.53 920.02 537.02 915.65 538.68 913.37 541.12 911.94 542.92 914.73 546.21 908.88 553.19 905.84 560.11 899.8 562.13 899.46 564.93 897.56 569.63 898.59 573.69 897.56 576.47 895.22 582.2 894.29 584.55 891.72 588.39 892.51 594.03 891.02 600.21 888.5 602.39 887.01 605.67 883.3 609.79 877.72 612.71 875.25 613.1 869.41 613.81 866.62 616.19 863.96 617.58 863.81 619.54 860.56 621.19 860.34 622.38 862.44 623.57 867.25 627.4 865.43 626.57 859.88 628.35 856.5 633.13 858.25 635.16 854.89 633.88 853.83 635.02 850.09 638.78 849.1 638.66 846.82 642.22 847.16 642.7 842.35 648.71 840.08 649.61 838.64 652.97 836.47 654.34 838 658.18 834.96 660.85 836.01 664.06 841.13 665.96 842.99 664.49 846.92 668.77 843.49 672.77 844.66 677.21 845.24 677.52 841.77 675.9 840.32 679.48 835.44 681.21 831.88 684.7 830.26 684 826.78 688.55 822.13 691.91 821.43 692.16 819.46 695.77 820.85 699.19 820.13 700.23 820.94 704.77 818.97 705.43 814.62 703.81 812.89 701.41 813.66 699.78 811.68 702.64 810.1 704.86 811.04 706.19 813.57 708.51 812.14 710.11 815.49 719.44 818.5 722.14 817.74 724.76 820.5 728.73 818.85 729.4 817.7 734.12 822.17 733.87 819.6 736.3 817.57 737.85 820.71 736.6 826.91 734.76 829.32 730.44 829.78 729.37 832.86 730.4 834.68 729.12 837.8 724.12 843.37 724.45 845.29 729.94 849.68 729.97 850.79 733.43 854.07 735.64 854.27 740.73 857.31 743.51 861.42 749.99 863.43 751.13 867.42 756.32 870.72 760.52 870.08 763.48 868.37 765.17 864.38 767.76 861.47 770.64 855.74 772.14 850.18 774.33 845.87 773.97 841.01 775.07 837.25 774.46 836.07 775.32 832.59 777.07 829.72 776.59 827.12 778.16 825.65 777.23 822.95 779.48 818.61 780.85 817.14 782.98 812 783.77 808.24 786.21 806.25 788.32 808.65 788.89 812.49 788.39 816.72 790.92 817.94 789.47 821.13 792 823.76 791.81 830.36 791.27 834.38 792.15 836.68 792.35 840.25 793.57 841.15 797.96 838.79 799 838.93 799 990 530.12 990 Z M 737.52 838.22 736.96 839.3 733.51 838.54 733.73 835.41 736.72 835.19 737.52 838.22 Z M 697.09 812.69 696.03 814.48 692.03 817.42 688.41 814.87 690.23 812.78 695.18 810.63 697.09 812.69 Z" fill-rule="evenodd" fill="lightgrey" stroke="white" stroke-width="0.5"/>
<path d="M 1 853.2 5.09 851.58 9.71 847.84 11.16 847.76 13.2 845.06 14.65 846.51 17.08 842.08 16.85 839.95 19.66 837.94 18.48 834.56 19.86 832.09 22.22 833.42 25.69 831.12 27.65 825.59 27 823.98 28.09 821.18 30.96 818.1 32.65 823.79 35.53 827.64 35.63 830.38 36.79 834.55 36.83 840.76 37.36 844.65 38.74 847.57 38.65 849.86 37.25 853.25 34.82 853.69 33.97 849.66 31.78 850.79 33.06 856.94 32.88 860.08 29.06 866.83 29.4 870.32 27.75 877.34 25.06 883.26 22.48 890.98 19.94 897.2 16.23 908.44 13.36 914.76 12.53 918.63 9.72 927.4 7.52 931.75 5.46 937.15 3.96 938.59 1 939.59 1 853.2 Z" fill="lightgrey" stroke="white" stroke-width="0.5"/>
<path d="M 654.12 639.62 652.78 640.7 650.89 645.02 653.83 650.73 653.62 652.57 651.55 656.04 649.75 653.97 644.88 652.12 640.63 648.75 639.29 644.54 639.63 641.83 641.22 639.16 636.72 635.55 632.85 638.13 629.62 637.82 627.59 635.87 626.44 637.28 624.51 643.55 622.35 642.36 623.41 640.11 623.75 635.37 624.95 633.57 629.99 632.28 630.81 629.01 634.1 627.25 636.44 628.06 637.73 632.7 640.57 631.7 641.7 628.06 644.59 629.05 644.49 624.91 649.99 624.58 650.48 622.7 648.93 618.16 653.42 619.9 656.92 624.85 656.96 626.58 658.67 631.55 658.48 635.2 659.99 636.25 660.53 640.51 656.46 644.34 654.12 639.62 Z M 594.21 619.64 592.01 622.79 590.4 623.28 587.79 627.18 583.92 627.76 586.58 623.91 590.2 621.33 593.14 617.3 595.17 613.43 598.6 610.54 600.27 607.5 602.22 610.44 599.39 612.19 598.32 614.7 595.78 615.48 594.21 619.64 Z M 646.24 609.49 647.07 612.88 643.52 613.82 642.91 607.65 639.52 605.39 639.42 603.21 644.04 602.48 646.24 609.49 Z M 645.78 593.99 647.33 594.49 647.76 600.44 648.86 603.53 646.14 604.79 644.15 602.13 643.93 600.24 640.92 596.5 638.38 594.73 637.12 591.86 644.27 591.45 645.78 593.99 Z M 615.54 555.18 615.63 557.66 612.22 559.18 611.8 562.45 610.3 566.27 612.65 570.41 614.62 576.6 616.51 578.38 620.39 575.15 622.68 575.27 625.06 577.36 626.31 580.9 629.01 578.79 632.93 580.33 629.82 581.78 632.35 584.71 632.16 586.13 634.92 587.41 633.09 589.11 629.8 587.22 627.12 583.41 624.02 581.53 621.4 578.69 621.82 584.16 618.28 580.62 614.6 579.02 611.68 582.07 609.65 581.64 608.21 579.2 606.06 579.75 605.36 576.49 608.08 573.71 606.61 571.29 605.06 571.08 604.88 574.27 600.6 571.01 597.37 560.68 601.22 558.37 599.55 554.25 600.24 551.02 599.74 547.28 598.58 545.54 599.25 536.48 603.06 535.52 607.58 538.13 613.32 539.13 612.51 540.33 613.12 544.96 614.29 547.35 616.95 549.84 615.54 555.18 Z M 642.01 616.41 640.93 618.37 638.18 618.95 635.93 617.04 638.69 613.89 642.07 615 642.01 616.41 Z M 628.03 609.52 628.17 607.14 630.06 606.03 633.15 607.61 630.59 616.44 630.67 619.35 632.34 621.28 630.24 624.12 628.69 621.47 626.42 620.45 624.44 616.73 628.13 614.13 627.26 610.47 628.03 609.52 Z M 636.52 612.37 634.91 613.78 633.52 619.22 632.36 615.75 634.54 610.96 636.52 612.37 Z M 618.31 598.9 619.03 597.39 627.11 601.96 629.3 601.69 628.36 605.16 625.28 608.78 622.39 609.3 619.92 608.07 620.58 605.84 620.47 599.93 618.31 598.9 Z M 636.1 598.63 633.63 597.56 629.12 592.87 630.44 592.05 634.27 594.82 636.1 598.63 Z M 608.67 582.9 611.41 583.83 613.33 585.49 614.91 590.84 613.1 594.3 611.98 594.55 608.77 590.05 608.15 587.53 605.56 584.78 606.01 582.83 608.67 582.9 Z M 636.7 579.51 635.12 582.67 634.11 577.88 636.7 579.51 Z" fill-rule="evenodd" fill="lightgrey" stroke="white" stroke-width="0.5"/>
<path d="M 288.5 624.55 292.34 629.22 293.17 632.49 295.35 635.94 297.03 639.87 297.23 642.7 295.75 647.85 293.24 650.03 287.08 652.81 283.04 650.94 280.84 644.67 279.55 633.76 280.6 624.92 282.96 619.79 282.42 616.79 286.87 621.13 288.5 624.55 Z" fill="lightgrey" stroke="white" stroke-width="0.5"/>
<path d="M 590.78 477.34 595.06 474.39 597.74 475.85 598.63 481.04 597.82 484.34 597.75 494 595.27 499.7 595.55 504.05 590.37 499.77 587.07 493.95 586.93 488.19 589.36 480.52 590.78 477.34 Z" fill="lightgrey" stroke="white" stroke-width="0.5"/>
<path d="M 652.48 417.21 650.16 418.38 646.04 419.29 645.6 415.79 643.73 414.27 644.26 406.36 640.93 402.35 640.13 405.02 637.6 405.55 633.66 401.03 638.04 397.82 639.68 394.5 641.34 394.85 643.91 397.26 649.13 397.76 651.5 401.94 653.87 403.7 652.75 407.4 653.34 413.47 654.32 417.69 652.48 417.21 Z M 667.55 391.97 668.88 391.75 670.55 394.34 669.06 398.43 664.82 398.16 661.94 399.92 661.39 405.16 659.05 404.96 656.75 402.63 656.83 401.02 654.61 398.82 655.91 396.52 655.52 393.93 661.36 394.21 661.47 392.19 664.6 390.34 667.55 391.97 Z M 644.37 387.7 645.54 386.9 649.11 382.06 649.13 380.34 651.5 379.17 653.78 380.39 660.4 379.64 662.15 378.49 665.27 378.77 667 377.56 668.09 379.68 670.36 380.09 673.34 378.75 671.72 375.71 673.29 371.49 673.83 367.45 671.5 362.97 674.84 361.38 674.58 363.66 675.86 367.77 678.67 366.98 684.07 364.14 685.19 362.56 685.29 358.65 687.98 355.52 686.87 351.12 687.34 349.57 685.88 343.26 682.85 339.65 681.17 335.47 678.63 333.31 680.51 331.28 679.07 328.55 681.29 328 684.31 331.04 686.59 329.42 684.96 327.14 682.69 328.39 681.36 324.69 685.3 326.34 690.02 332.58 693.9 335.2 697.55 338.75 700.9 342.93 701.95 346.88 700.79 349.9 701.38 351.84 699.6 355.5 700.73 358.09 704.04 362.79 705.38 366.57 704.57 367.31 705.54 372.86 710.12 377.84 708.17 379.46 709.13 382.87 705.89 384.55 704.05 381.75 699.38 382.51 700.92 385.87 698.48 387.18 697.24 383.55 695.44 383.79 694.49 387.33 691.55 388 687.41 386.83 684.23 386.74 681.58 387.62 685.67 389.89 683.31 391.38 680.7 398.67 677.94 398.03 676.88 396.53 673.67 394.95 673.59 392.64 672.08 391.43 673.6 388.75 667.57 386.83 664.05 387.52 661.74 389.63 657.46 389.96 653.01 391.88 650.33 391.69 650.43 394.86 647.35 393.38 644.24 394.57 640.34 392.85 639.67 390.62 642.78 390.27 644.37 387.7 Z M 706.18 307.78 705.69 309.47 703.23 310.1 701.46 312 697.89 311.28 696.27 311.98 694.89 314.39 694.79 317.51 696.18 320.19 688.47 317.95 680.99 314.8 679.1 315.28 677.51 317.54 673.96 315.28 671.69 315.82 672.46 318.06 676.32 319.21 679.53 321.21 676.76 325.9 674.18 324.44 672.97 320.58 668.79 318.17 667 314.71 669.77 311.17 673.76 310.02 674.44 308.01 671.56 304.82 672.43 302.77 670.46 299.69 669.5 296.78 664.49 291.64 665.06 288.51 678.27 296.88 687.16 301.29 689.45 301.03 692.9 302.73 695.35 302.98 696.92 300.34 698.25 303.29 703.58 308.79 706.18 307.78 Z" fill-rule="evenodd" fill="lightgrey" stroke="white" stroke-width="0.5"/>
<path d="M 92.48 891.88 94.03 893.93 92.84 896.3 90.37 895.82 92.48 891.88 Z" fill="lightgrey" stroke="white" stroke-width="0.5"/>
</g>
<g id="selected">
<path d="M 588.58 669.08 585.23 667.48 579.78 667.56 576.76 667.06 572.95 668.99 572.18 671.5 572.85 675.71 571.88 679.49 570.07 679.39 568.71 681.36 569.3 684.58 566.34 687.58 567.05 689.9 564.44 694.2 559.63 694.14 557.54 696.07 552.94 694.24 552.39 693.27 547.88 692.98 545.54 694.08 544.93 696.79 542.69 698.14 537.59 697.52 532.37 699.59 526.51 694.5 523.85 690.01 524.76 688.23 527.15 691.83 530.71 691.62 535.65 693.58 538.71 685.85 539.23 682.72 541.05 681.22 543.83 680.83 551.57 678.44 555.1 672.83 559.07 668.03 559.36 665.01 561.42 666.11 564.38 670.36 566.28 667.26 565.42 663.74 567.23 662.35 567.65 662.99 568.56 662.17 571.83 660.71 570.11 658.38 571.55 656.35 573.97 656.17 576.51 650.1 579.85 645.5 583.74 642.85 585.29 646.31 588.05 647.3 587.89 650.29 589.32 652.97 591.35 651.55 592.33 653.36 594.69 653.99 599.43 657.38 601.33 657.24 601.95 659.48 597.31 661.84 594.62 660.97 592.9 662.42 596.83 665.77 596.44 667.23 588.58 669.08 Z M 446.18 645.66 447.79 647.29 451.24 648.28 453.56 649.84 453.62 652.85 455.13 654.07 457.4 652.98 459.63 654.51 461.59 651.24 461.62 649.73 463.62 650.35 465.25 653.06 470.52 657.81 473.43 663.22 473.98 667.45 472.92 672.78 474.17 675.06 473.95 680.13 478.31 685.86 481.3 694.1 477.59 693.82 474.89 695.54 473.73 693.25 466.47 688.14 463.99 687 460.61 683.69 458.63 682.9 456.45 680.59 456.46 677.24 454.26 674.04 451.57 671.77 451.95 669.76 450.15 667.61 450.05 662.67 448.22 660.55 448.67 658.54 447.71 651.99 445.71 648.03 446.18 645.66 Z" fill-rule="evenodd" fill="#084594" stroke="#9ecae1" stroke-width="0.6"/>
<path d="M 228.04 380.11 230.13 382.2 233.71 387.82 236.55 388.86 240.09 391.25 238.61 393.16 240.79 398.86 243.31 400.46 246.17 400.81 246.48 403.37 248.64 405.62 247.7 407.4 244.25 409.14 241.3 407.01 240.74 410.22 243.54 412.67 244.89 415.96 244.84 418.47 248.74 418.52 250.66 421.34 254.16 421.92 258.25 425.57 262.28 427.17 264.81 428.97 260.78 433.02 260.96 437.15 259.94 441.51 262.8 443.51 265.14 443.52 269.51 445.8 271.22 448.09 276.03 450.61 277.47 450.11 280.64 452.21 282.56 451.96 283.71 453.89 292.49 454.39 294.15 453.75 298.39 455.42 299.41 458.19 300.71 458.33 305.02 460.88 307.28 459.8 309.52 462.4 313.11 462.03 316.84 463.85 319.14 462.32 321.78 464.42 327.52 463.49 327.76 460.81 325.55 457.51 325.3 450.51 328.7 448.26 331.13 450.67 330.81 453.42 332.43 455.54 331.45 457.06 333.66 459.26 340.89 461.21 344.97 459.45 346.79 460.48 355.54 460.27 358.31 459.03 356.43 454.1 353.29 453.42 352.95 450.59 355.05 451.72 357.73 450.47 360.41 450.64 360.51 448.26 364.02 445.25 365.55 443.04 368.75 442.73 371.29 440.63 371.09 439.11 373.42 437.06 374.9 438.47 378.66 439.46 382.1 436.87 385.15 436.61 388.48 440.06 390.22 442.69 388.67 444.81 395.04 445.85 397 447.23 396.88 450.16 394.69 452.74 395.4 454.69 389.7 456.08 384.89 461.3 382.89 462.1 382.98 465.39 384.17 467.21 383.61 470.1 381.03 473.26 382.45 476.66 380.27 483.2 379.97 486.16 378.56 486.88 374.2 486.49 374.76 494.14 372.91 497.43 374.35 502.28 372.13 504.34 369.98 504.77 368.37 498.15 367.16 496.26 366.44 492.67 364.16 488.59 360.34 495.51 356.3 489.69 357.36 485.2 361.38 484.5 362.81 482.37 363.23 478.95 364.72 477.33 360.73 475.21 356.61 475.66 354.63 475.03 347.82 475.51 342.94 473.45 342.33 468.52 340.29 467.16 338.4 467.7 336.43 466.44 335.31 464.16 330.58 463.49 328.76 466.38 328.45 468.52 332.72 472.28 334.63 472.27 336.17 475.33 332.46 475.3 330.02 480.16 334.11 483.21 336.23 483.47 335.57 489.34 337.23 492.63 339.51 493.64 338.92 495.67 341.75 503.36 341.49 505.37 342.58 508.09 338.8 507.23 336 508.63 335.33 506.36 333.43 506.07 331.53 507.74 327.64 508.69 325.65 510.76 325.36 513.02 327.04 516.29 322.16 523.83 316.65 525.86 313.97 525.44 313.95 527.85 311.77 530.2 308.84 535.58 306.48 538.94 303.01 541.03 300.49 545.2 294.76 548.77 293.53 550.39 294.06 554.55 289.93 556.92 286.3 556.5 285.37 560.03 284.25 561.3 281.71 560.81 278.48 562.89 277.43 566.3 277.4 568.98 278.94 573.12 278.6 576.1 279.86 579.81 279.17 582.94 280.91 583.59 281.13 585.73 280.22 592.4 278.15 596.58 277.55 600.68 278.65 604.53 279.18 611.73 278.4 612.84 275.43 612.23 274.63 614.89 272.4 618.29 272.4 621.91 268.37 623.37 266.28 625.73 265.57 630.22 261.22 632.97 256.91 630.27 253 625.25 250.84 619.9 251.01 616 249.78 615 246.1 605.1 243.3 599.6 239.74 594.86 236.78 588.83 234.44 579.85 230.94 571.87 229.52 571.02 227.3 565.1 226.28 564.53 223.21 559.26 221.79 555.19 220.38 547.88 217.61 540.71 216.02 535.17 216.14 533.2 213.23 524.46 213.58 520.42 214.66 515.9 213.14 512.59 211.46 511.32 210.41 507.2 209.98 501.96 208.21 502.86 207.41 506.46 208.58 507.75 207.51 511.89 202.7 514.84 199.04 516.46 195.42 515.55 191.19 512.37 189 509.78 183.55 504.75 181.21 501.84 186.5 501.28 190.77 499.38 192.12 495.84 187.71 496.64 186.89 497.67 183 496.8 179.85 495.15 176.99 492.77 173.47 488.35 173.54 487.57 177.7 486.44 177.35 483.45 184.01 483.56 187.39 484.59 188.32 483.31 191.78 482.21 193.53 483.98 195.44 479.82 193.26 475.61 191.2 472.92 190.74 470.43 187.83 470.47 185.88 467.86 185.87 462.79 183.1 462.32 180.01 460.23 180.34 456.72 183.22 452.92 185.15 449.13 187.57 449.86 189.48 451.98 193.01 450.51 197.2 449.69 199.95 442 203.62 439.8 205.32 435.06 205.7 431.46 209.71 429.05 208.64 427.35 211.36 422.49 212.72 421.91 212.5 417.5 211.32 413.81 216.35 410.96 213.58 408.04 211.27 408.09 210.13 405.67 204.15 401.48 204.42 398.05 202.93 397.14 201.88 392.08 199.76 390.47 200.53 387.74 202.79 386.81 214.87 389.25 219.08 386.97 220.32 387.2 223.24 384.8 223.21 383.66 228.04 380.11 Z M 383.88 584.94 383.15 587.44 384.03 591.99 381.95 593.44 382.17 584.38 383.88 584.94 Z" fill-rule="evenodd" fill="#084594" stroke="#9ecae1" stroke-width="0.6"/>
<path d="M 264.81 428.97 262.28 427.17 258.25 425.57 254.16 421.92 250.66 421.34 248.74 418.52 244.84 418.47 244.89 415.96 243.54 412.67 240.74 410.22 241.3 407.01 244.25 409.14 247.7 407.4 248.64 405.62 246.48 403.37 246.17 400.81 243.31 400.46 240.79 398.86 238.61 393.16 240.09 391.25 236.55 388.86 233.71 387.82 230.13 382.2 228.04 380.11 225.13 380.35 219.83 378.73 217.66 376.71 214.75 377.25 211.96 374.57 211.68 371.21 209.7 369.14 206.88 368.81 205.78 367.04 202.27 366.99 199.35 366.06 201.49 364.14 203.12 362.58 200.54 360.75 200.66 359.21 198.52 356.32 197.28 352.38 193.52 350.94 189.63 351.53 188.1 349.22 188.73 347.94 186.46 345.72 186.11 343.77 187.93 342.45 186.56 340.5 187.2 338.16 189.82 337.75 192.14 334.03 195.03 334.68 197.2 332.92 199.12 336.05 202.9 334.68 204.51 334.91 205.79 329.44 210.47 329.73 214.78 329.2 217.66 324.64 221.57 322.37 224.56 321.52 226.98 318.7 225.02 314.74 225.34 311.05 227.96 309.77 226.41 307.13 221.48 301.27 219.73 296.11 216.22 292.96 221.62 291.98 227.32 290.07 229.56 291.82 231.77 291.06 233.36 289.18 230.64 288.3 230.21 277.46 230.66 273.14 237 275.28 242.43 275.19 243.63 276.72 246.15 274.74 248.19 274.58 248.13 271.58 244.91 266.76 244.88 262.38 249.98 261.31 250.54 259.73 249.88 256.12 253.08 256.31 256.24 255.59 256.93 258.24 260.04 259.92 260.29 261.2 265.03 262.96 265.69 264.14 269.92 266.11 273.32 265.76 275.68 267.62 277.56 267.12 280.63 269.11 282.97 272.26 286.91 275.2 290.19 278.96 290.17 281.34 292.08 283.88 291.04 286.32 291.65 288.66 294.49 291.44 296.35 291.34 300.75 292.59 306.93 293.15 308.8 292.78 314.79 293.57 319.27 296.21 328.7 299.89 331.08 299.6 331.86 302.15 333.31 302.4 339.37 309.35 343.36 311.91 344.56 313.67 350.6 313.24 368.4 315.28 371.95 314.25 381.46 315.59 384.63 315.72 388.96 318.74 397.44 320.38 403.31 322.66 408.62 321.61 409.47 323.48 413.61 324.11 414.37 322.77 423.65 317.81 433.35 316.28 438.19 316.79 443.06 316.33 448.42 313.41 449.89 308.69 453.66 306.54 454.96 304.15 449.91 300.49 447.98 298.42 447.74 293.43 449.14 292.34 452.45 292.65 454.42 293.96 462.49 295.49 464.79 293.67 466.05 289.64 473.79 289.1 476.42 285.85 475.61 284.9 476.36 281.28 477.61 280.58 481.21 280.91 481.96 278.73 486.05 277.61 497.14 278.73 496.98 275.9 494.21 273.61 484.25 268.24 481.48 266.35 478.56 265.79 475.68 266.24 474.39 269.15 469.88 267.19 465.56 267.28 463.59 268.69 460.29 266.64 460.22 263.58 458.77 261.28 457.8 249.71 461.31 251.06 467.2 252.49 471.05 248.47 474.84 247.31 471.64 242.8 471.88 238.49 470.84 233.94 472.57 229.33 470.03 227.31 469.44 225.58 466.79 224.75 464.43 225.07 464.25 222.73 465.63 219.08 467.93 219.11 474.31 217.23 478.02 217.38 482.61 216.6 488.11 218.19 493.06 220.24 495.48 219.73 501.21 221.71 505.43 224.22 512.38 229.02 512.93 230.53 519.15 235.52 521.14 236.49 522.41 238.67 526.94 241.45 529.97 245.21 532.41 246.17 534.44 249.72 538.16 251.76 540.34 252.23 543.98 251.62 548.59 253.92 551.17 253.4 556.41 256.72 559.89 258.29 562.88 258.23 563.34 260.34 567.56 263.51 567.45 265 572.67 268.9 583.29 268.67 583.26 267.21 585.46 264.92 592.45 262.62 595.45 263.69 596.02 265.96 599.42 268.64 599.08 271.17 597.76 272.72 601.97 281.73 601.11 282.79 602.35 286.91 601.3 289.18 602.33 292.91 593.94 291.01 591.73 291.26 590.51 296.01 595.53 301.71 597.81 306.56 599.44 307.84 600.26 312.68 596.55 313.72 598.58 315.59 595.29 313.64 594.39 312.2 591.22 311.34 592.93 316.39 590.25 316.43 589.22 320.19 584.42 320.13 582.98 320.74 587.07 324.23 582.92 325.63 580.1 325.04 575.73 322.24 574.1 323.48 574.42 325.59 573.37 330.53 567.88 333.82 565.07 337.82 563.55 340.46 560.95 340.03 558.32 340.85 553.43 344.12 551.7 347.55 549.44 347.08 545.76 343.22 544.83 341.02 546.28 339.47 547.64 334.12 544.59 331.89 538.52 330.12 536.55 332.39 535.1 336.94 529.74 339.72 529.05 341.32 530.06 343.92 528.95 346.15 526.08 346.41 524.57 347.61 521.5 345.88 519.58 347.03 520.48 351.44 522.6 353.59 526.39 355.79 530.15 356.44 532.06 355.67 536.7 359.19 535.33 360.65 536.64 363.68 540.85 365.15 545.21 360.15 547.78 358.6 551.37 359.82 555.97 362.36 559.81 361.82 563.51 362.57 564.55 364.33 563.99 367.89 561.19 366.41 558.68 368.4 554.85 370.04 550.19 378.18 548.45 379.3 547.09 384.23 549.15 386.7 552.26 388.82 557.88 391.02 560.68 395.19 565.43 400.63 568.91 406.53 573.46 408.79 574.79 411.28 578.28 412.78 577.9 414.89 574.59 413.41 573.31 414.22 575.86 416.91 579.74 418.96 582.89 422.35 578.93 423.71 576.26 425.77 575.31 428.64 580.05 427.79 583.39 430.78 586.69 431.83 586.44 434.16 587.78 438.07 585.4 438.01 586.76 441.62 585.98 443.17 588 446.1 584.46 446.17 582.1 452.69 581.87 456.63 578.5 460.33 575.65 460.35 578.31 463.5 577.25 467.21 578 468.66 578.04 472.52 576.03 471.64 573.12 478.34 571.27 480.3 568.21 482 568.23 485.75 565.59 486.86 557.47 495.68 553.85 497.6 552.46 496.32 550.58 498.16 547.95 497.22 545.18 497.27 541.7 499.43 540.57 499.68 539.17 500.39 535.84 495.54 534.29 496.44 536.64 499.26 536.75 502.52 532.06 505.71 527.26 507.27 525.16 506.74 522.64 508.9 516.13 510.06 511.72 513.91 511.92 515.18 515.5 518.59 512.6 520.72 508.97 517.2 507.85 514.45 508.36 510.5 505.94 509.25 503.53 509.93 502.62 508.22 497.05 507.71 493.66 509.3 492.16 507.89 488.36 508.26 482.75 504.5 480.54 500.62 481.78 498.15 480.96 496.56 478.18 496.69 476.08 495.51 474.26 496.1 469.61 492.41 465.73 494.55 465.57 496.82 462.72 498.23 461.49 496.95 459.12 499.25 457.02 497.19 451.5 500.07 449.62 498.38 447.19 498.88 445.46 500.89 441.69 500.45 440.92 502.46 443.4 506.35 443.89 510.98 440.5 512.18 439.04 508.69 438.42 506.78 434.87 509.46 432.43 508.95 429.15 507.13 428.63 504.14 422.31 503.34 423.31 499.99 422.59 497.92 424.05 495.81 422.33 494.24 420.16 494.4 418.56 492.59 417.66 489.77 414.03 485 409.32 485.91 407.71 484.96 405.33 479.25 406.21 478.47 406.59 474.7 410.22 471.67 412.49 468.79 411.23 460.56 409.03 453.13 406.62 452.22 403.69 449.48 403.41 447.93 399.36 444.73 397.92 444.35 397 447.23 395.04 445.85 388.67 444.81 390.22 442.69 388.48 440.06 385.15 436.61 382.1 436.87 378.66 439.46 374.9 438.47 373.42 437.06 371.09 439.11 371.29 440.63 368.75 442.73 365.55 443.04 364.02 445.25 360.51 448.26 360.41 450.64 357.73 450.47 355.05 451.72 352.95 450.59 349.68 448.56 348.49 449.49 345.05 448.43 341.23 446.14 338.17 446.5 336.13 447.99 333.13 452.84 332.43 455.54 330.81 453.42 331.13 450.67 328.7 448.26 325.3 450.51 322.12 451.02 317.79 450.84 312.47 448.37 308.43 450.29 306.87 447.77 303.33 446.49 300.53 446.29 300.71 443.85 296.82 443.66 292.77 440.93 291.02 437.73 286.56 438.24 282.92 434.24 280.3 433.92 277.46 431.49 274.05 430.15 273.08 427.74 269.02 426.97 265.97 430.63 264.81 428.97 Z M 520.52 525.92 518.24 528.71 517.34 535.17 510 538.78 506.36 538.06 503.71 536.79 502.06 530.12 506.56 523.75 509.69 522.91 512.13 523.4 514.89 522.26 516.63 523.19 519.44 523.05 520.52 525.92 Z" fill-rule="evenodd" fill="#084594" stroke="#9ecae1" stroke-width="0.6"/>
<path d="M 602.06 351.34 606.27 355.74 611.64 360.02 615.43 363.67 618.71 368.36 620.46 373.61 622.45 374.81 623.88 379.95 623.34 383.24 622.04 384.28 618.95 383.23 616.3 385.67 614.95 384.69 611.69 385.98 607.33 389.48 605.02 389.32 602.92 387.97 603.19 386.11 601.15 382.2 601.57 376.71 598.86 374.05 598.34 372.09 595.4 367.49 595.56 363.45 593.94 362.22 592.79 358.65 594.37 354.25 601.07 354.27 602.06 351.34 Z M 612.57 398.71 612.38 400.25 608.5 401.27 607.71 398.83 611.06 397.92 612.57 398.71 Z" fill-rule="evenodd" fill="#084594" stroke="#9ecae1" stroke-width="0.6"/>
<path d="M 457.8 249.71 458.77 261.28 460.22 263.58 460.29 266.64 463.59 268.69 465.56 267.28 469.88 267.19 474.39 269.15 475.68 266.24 478.56 265.79 481.48 266.35 484.25 268.24 494.21 273.61 496.98 275.9 497.14 278.73 486.05 277.61 481.96 278.73 481.21 280.91 477.61 280.58 476.36 281.28 475.61 284.9 476.42 285.85 473.79 289.1 466.05 289.64 464.79 293.67 462.49 295.49 454.42 293.96 452.45 292.65 449.14 292.34 447.74 293.43 447.98 298.42 449.91 300.49 454.96 304.15 453.66 306.54 449.89 308.69 448.42 313.41 443.06 316.33 438.19 316.79 433.35 316.28 423.65 317.81 414.37 322.77 413.61 324.11 409.47 323.48 408.62 321.61 403.31 322.66 397.44 320.38 388.96 318.74 384.63 315.72 381.46 315.59 371.95 314.25 368.4 315.28 350.6 313.24 344.56 313.67 343.36 311.91 339.37 309.35 333.31 302.4 331.86 302.15 331.08 299.6 328.7 299.89 319.27 296.21 314.79 293.57 308.8 292.78 306.93 293.15 300.75 292.59 296.35 291.34 294.49 291.44 291.65 288.66 291.04 286.32 292.08 283.88 290.17 281.34 290.19 278.96 286.91 275.2 282.97 272.26 280.63 269.11 277.56 267.12 275.68 267.62 273.32 265.76 269.92 266.11 265.69 264.14 265.03 262.96 260.29 261.2 260.04 259.92 256.93 258.24 256.24 255.59 257.74 253.01 262.58 253.17 267.14 250.74 265.87 249 273.32 244.35 275.79 244.08 277.32 242.04 283.7 242.13 295.39 243.1 297.65 245.91 300.73 248 302.68 247.73 307.36 249.1 309.51 248 313.71 249.15 317.92 249.15 321.05 250.59 325.1 247.57 324.19 243.51 321.67 242.42 318.35 239.22 317.6 236.57 318.37 232.86 321.22 229.86 326.88 231.36 329.99 232.74 333.54 232.79 340.56 235.12 343.64 235.29 347.37 236.36 348.31 238.37 352.47 243.27 354.97 244.43 363.59 246.94 367.18 246.81 368.4 245.46 373.97 243.89 379.01 244.57 381.43 245.55 384.13 245.22 389.91 248.16 395.35 248.73 396.62 251.08 402.76 254.14 408.02 254.04 415.32 255.62 420.65 255.22 422.45 253.81 427.11 253.39 429.32 252.34 431.66 252.66 434.72 247.96 438.25 245.67 441.78 246.03 448.08 249.07 450.84 249.16 453.4 248.01 457.8 249.71 Z" fill="#084594" stroke="#9ecae1" stroke-width="0.6"/>
<path d="M 499.29 571.84 498.33 577.23 501.19 582.62 500.61 587.36 501.85 591.19 501.69 593.61 498.82 594.22 495.45 597.05 492.96 597.06 492.36 599.78 490.07 598.9 489.07 603.2 491.02 605.14 483.22 608.34 481.66 610.32 478.48 611.35 477.05 610.24 473.52 609.81 471.71 610.6 471.6 605.73 469.63 607.07 467.1 606.61 466.84 601.77 465.06 600.04 462.91 595.5 463.2 592.94 461.33 590.96 458.87 585.02 463.94 575.61 467.56 574.44 470.23 575.17 474.99 575.04 477.4 574.28 480.84 575.15 482.42 577.36 483.85 576.82 486.84 578.92 488.89 577.67 487.19 575.27 490.67 574.03 495.08 575.35 498.62 573.32 499.29 571.84 Z" fill="#084594" stroke="#9ecae1" stroke-width="0.6"/>
<path d="M 480.84 575.15 477.4 574.28 474.99 575.04 470.23 575.17 467.56 574.44 463.94 575.61 458.87 585.02 461.33 590.96 463.2 592.94 462.91 595.5 465.06 600.04 462.35 595.38 459.6 595.03 455.4 590.57 448.14 591.07 447.31 586.65 447.55 583.24 442.17 582.9 439.8 585.17 441.09 587.03 440.32 591.01 441.18 595 440.03 597.07 437.79 604.94 438.13 607.09 435.56 611.93 436.28 618.51 438.94 622.59 441.96 621.73 443.21 627.79 445.44 629.53 446.73 637.2 445.66 638.15 447.53 640.94 449.29 641.11 452.59 644.21 457.23 644.43 459.06 647.49 461.62 649.73 461.59 651.24 459.63 654.51 457.4 652.98 455.13 654.07 453.62 652.85 453.56 649.84 451.24 648.28 447.79 647.29 446.18 645.66 445.71 648.03 442.85 644.53 441.86 641.82 439.1 639.79 438.36 637.16 432.32 630.21 429.78 631.45 429.07 626.88 430.15 623.78 429.62 622.57 432.29 611.99 432.21 608.87 435.69 604.18 438.33 598.48 436.75 595.62 435.77 591.34 434.19 590 432.78 580.96 430.75 577.7 427.23 574.85 424.33 570.91 423.35 567.95 426.28 565.84 425.71 562.33 425.96 557.11 423.84 553.22 423.32 550.56 417.12 544.41 416.63 541.73 413.42 536.95 415.81 536.08 414.61 532.91 415.59 531.19 415.24 527.11 418.06 525.7 420.62 525.99 424.21 524.43 430.86 518.91 432.29 520.07 434.34 519.6 436.19 522.39 435.32 525.18 436.26 527.27 438.6 527.75 441.53 527.02 442.94 530.9 443.67 535.24 442.32 537.5 443.9 540.96 442.44 545.49 444.42 546.41 451.02 539.48 455.27 541.72 459.02 541.53 460.25 537.76 461.29 537.38 466.3 538.51 469.24 542.77 474.15 547.23 474.04 550.44 474.76 555.01 477.57 558.59 480.65 559.72 481.31 562.06 483.11 563.26 482.84 566.6 483.19 572.86 480.84 575.15 Z" fill="#084594" stroke="#9ecae1" stroke-width="0.6"/>
</g>
</svg>