<?xml version="1.0"?>
<svg xmlns="http://www.w3.org/2000/svg" version="1.2" baseProfile="tiny" width="800" height="1064" viewBox="0 0 800 1064" stroke-linecap="round" stroke-linejoin="round">
<g id="ne_10m_admin_1_states_provinces_lakes">
<path d="M 799 1018.2 793.07 1013.65 777.76 996.53 771.17 976.08 776.45 973.15 788.52 977.05 799 984.28 799 1018.2 Z M 799 1063 786.58 1054.8 791.13 1050.81 799 1058.4 799 1063 Z" fill-rule="evenodd" fill="lightgrey" stroke="white" stroke-width="0.5"/>
<path d="M 222.43 124.25 207.55 135.19 197.12 119.97 213.46 124.99 222.43 124.25 Z" fill="lightgrey" stroke="white" stroke-width="0.5"/>
<path d="M 207.55 135.19 222.43 124.25 228.89 130.69 239.91 148.02 248.68 151.22 259.58 158.61 255.04 164.5 261.76 182.08 269.52 187.01 278.32 188.07 279.3 195.99 285.95 202.91 283.07 208.43 272.4 213.79 263.32 207.2 261.58 217.11 270.23 224.66 274.38 234.81 274.23 242.56 286.27 242.71 292.18 251.42 302.96 253.19 315.58 264.47 328 269.39 335.81 274.94 323.4 287.43 323.93 300.17 320.79 313.63 329.61 319.79 336.84 319.81 350.3 326.85 355.58 333.91 370.4 341.67 374.85 340.13 384.61 346.62 390.53 345.85 394.1 351.8 421.15 353.33 426.27 351.38 439.34 356.52 442.51 365.07 459.8 373.36 466.75 370.02 473.68 378.06 484.73 376.91 496.23 382.53 503.33 377.82 511.47 384.27 529.16 381.41 529.91 373.16 523.1 362.95 522.33 341.39 532.81 334.42 540.28 341.88 539.3 350.36 544.3 356.9 541.29 361.58 548.09 368.36 570.38 374.38 582.96 368.95 588.58 372.13 615.57 371.47 624.09 367.66 618.29 352.44 608.62 350.34 607.57 341.62 614.06 345.11 622.32 341.27 630.57 341.76 630.9 334.42 641.69 325.15 646.42 318.32 656.3 317.39 664.13 310.89 663.51 306.2 670.68 299.9 675.27 304.25 686.85 307.3 697.46 299.31 706.86 298.51 717.12 309.14 722.48 317.24 717.7 323.79 737.34 327.01 743.38 331.25 743.04 340.29 736.29 348.27 738.47 354.26 720.88 358.55 706.04 374.64 699.9 377.13 700.17 387.27 703.84 392.9 702.09 401.79 694.15 411.53 698.52 422.02 691.8 442.19 690.89 451.33 686.54 453.56 673.09 452.34 674.83 475.95 669.13 486.11 673.54 501.06 666.72 507.4 660.08 508.72 655.12 488.3 651.37 482.47 649.15 471.42 642.13 458.83 630.36 480.16 617.91 462.23 621.16 448.36 633.58 446.21 637.96 439.65 639.26 429.09 643.88 424.09 631.58 417.55 618.86 418.95 612.77 417.02 591.74 418.49 576.71 412.12 574.84 396.93 568.53 392.75 562.71 394.41 556.63 390.51 553.17 383.48 538.59 381.41 533 390.32 532.02 396.93 545.2 408.53 551.1 408.48 555.83 417.94 544.4 417.84 536.87 432.84 549.48 442.23 556.03 443.03 554 461.16 559.09 471.3 566.15 474.42 564.31 480.65 573.03 504.39 572.23 510.57 575.59 518.97 563.93 516.33 555.31 520.65 553.24 513.62 547.38 512.74 541.52 517.89 529.54 520.83 523.42 527.22 522.52 534.19 527.67 544.26 512.62 567.52 495.66 573.77 487.4 572.48 487.33 579.91 478.66 590.11 471.58 603.76 464.28 614.14 453.58 620.58 445.81 633.44 428.15 644.45 424.36 649.44 425.99 662.26 413.28 669.57 402.08 668.29 399.21 679.16 395.74 683.11 387.92 681.57 377.96 688 374.72 698.52 374.63 706.79 379.37 719.56 378.32 728.75 384.24 749.08 384.02 749.5 383.68 750.75 386.15 754.15 384.71 773.32 376.78 793.79 376.06 797.27 375.1 804.55 378.61 821.54 378.93 826.38 380.11 838.63 377.72 842.06 368.56 840.17 366.08 848.39 359.22 858.87 359.23 870.03 346.78 874.53 340.35 881.8 338.15 895.68 324.73 904.13 314.42 898.18 299.38 880.34 292.72 863.83 293.26 851.81 289.47 848.71 278.12 818.18 269.49 801.23 258.51 786.61 250.49 770.75 242.19 740.31 231.38 715.68 226.64 710.39 221.73 704.94 217.01 693.05 207.56 676.79 203.17 664.25 198.83 641.71 190.27 619.57 185.36 602.49 185.75 596.42 176.77 569.47 177.85 557 181.19 543.07 176.5 532.87 171.3 528.95 168.07 516.23 166.76 500.05 161.28 502.83 158.81 513.95 162.45 517.93 159.15 530.7 144.31 539.79 133.01 544.77 121.86 542 108.82 532.17 102.08 524.2 85.26 508.66 78.05 499.69 94.36 497.96 107.52 492.1 111.69 481.19 98.09 483.67 95.57 486.84 83.55 484.14 73.84 479.08 65.02 471.73 54.19 458.09 54.38 455.69 67.23 452.19 66.15 442.97 86.68 443.33 97.09 446.5 99.96 442.53 110.63 439.14 116.04 444.62 121.93 431.79 115.21 418.79 108.86 410.49 107.43 402.81 98.47 402.93 92.45 394.88 92.42 379.24 83.87 377.81 74.36 371.34 75.38 360.52 84.24 348.79 90.2 337.11 97.65 339.38 103.55 345.93 114.44 341.37 127.35 338.85 135.82 315.13 147.14 308.35 152.39 293.73 153.55 282.61 165.91 275.19 162.62 269.94 171.02 254.95 175.2 253.16 174.51 239.57 170.9 228.18 186.39 219.4 177.85 210.37 170.74 210.53 167.23 203.07 148.77 190.14 149.6 179.57 145 176.75 141.76 161.16 135.25 156.21 137.62 147.76 144.58 144.89 181.84 152.43 194.82 145.41 198.64 146.12 207.62 138.71 207.55 135.19 Z M 702.95 756 700.68 763.71 703.39 777.75 696.98 782.21 697.67 754.27 702.95 756 Z" fill-rule="evenodd" fill="lightgrey" stroke="white" stroke-width="0.5"/>
<path d="M 222.43 124.25 213.46 124.99 197.12 119.97 190.45 113.74 181.47 115.42 172.86 107.15 172.01 96.78 165.89 90.39 157.19 89.39 153.8 83.92 142.97 83.77 133.98 80.92 140.57 74.97 145.61 70.17 137.65 64.54 138.03 59.76 131.42 50.87 127.59 38.71 115.99 34.28 104.01 36.1 99.29 28.96 101.22 25.03 94.24 18.18 93.16 12.17 98.76 8.08 94.88 1 799 1 799 448.56 788.05 447.83 781.38 450.56 776.41 447.64 769.09 430.01 772.97 416 784.15 406.63 791.17 397.76 787.27 372.38 780.49 349.46 773.07 346.66 764.01 338.2 763.17 333.43 750.67 323.55 746.22 322.37 743.38 331.25 737.34 327.01 717.7 323.79 722.48 317.24 717.12 309.14 706.86 298.51 697.46 299.31 686.85 307.3 675.27 304.25 670.68 299.9 663.51 306.2 664.13 310.89 656.3 317.39 646.42 318.32 641.69 325.15 630.9 334.42 630.57 341.76 622.32 341.27 614.06 345.11 607.57 341.62 597.51 335.36 593.83 338.24 583.21 334.96 571.44 327.9 562.02 329.02 555.7 333.6 546.46 348.58 544.3 356.9 539.3 350.36 540.28 341.88 532.81 334.42 522.33 341.39 512.51 342.96 499.18 342.39 482.77 334.79 470.3 340.7 465.51 332.91 454.59 328.99 445.95 328.37 446.51 320.85 434.51 320.24 422.02 311.83 416.62 301.96 402.89 303.54 391.64 291.21 383.56 290.22 374.8 282.73 364.3 278.57 361.3 271.15 348.78 268.76 339.39 280.06 335.81 274.94 328 269.39 315.58 264.47 302.96 253.19 292.18 251.42 286.27 242.71 274.23 242.56 274.38 234.81 270.23 224.66 261.58 217.11 263.32 207.2 272.4 213.79 283.07 208.43 285.95 202.91 279.3 195.99 278.32 188.07 269.52 187.01 261.76 182.08 255.04 164.5 259.58 158.61 248.68 151.22 239.91 148.02 228.89 130.69 222.43 124.25 Z" fill="lightgrey" stroke="white" stroke-width="0.5"/>
<path d="M 607.57 341.62 608.62 350.34 618.29 352.44 624.09 367.66 615.57 371.47 588.58 372.13 582.96 368.95 570.38 374.38 548.09 368.36 541.29 361.58 544.3 356.9 546.46 348.58 555.7 333.6 562.02 329.02 571.44 327.9 583.21 334.96 593.83 338.24 597.51 335.36 607.57 341.62 Z" fill="lightgrey" stroke="white" stroke-width="0.5"/>
<path d="M 93.16 12.17 94.24 18.18 101.22 25.03 99.29 28.96 104.01 36.1 115.99 34.28 127.59 38.71 131.42 50.87 138.03 59.76 137.65 64.54 145.61 70.17 140.57 74.97 133.85 70.36 123.55 70.09 114.92 75.05 112.33 69.38 100.9 68.5 90.9 76.21 89.68 80.71 80.79 82.46 72.84 90.07 67.49 89.91 60.6 79.63 58.22 56.05 49.83 54.59 49.12 45.22 39.2 39.75 31.43 43.59 24.79 56.29 27.22 66.17 12.15 64.91 12.75 74.82 9.03 78.58 1 72.27 1 8.6 13 10.02 22.33 8.91 26.5 13.92 32.59 13.32 41.36 7.53 50.39 16.78 57.07 14.41 83.14 14.8 93.16 12.17 Z" fill="lightgrey" stroke="white" stroke-width="0.5"/>
<path d="M 94.88 1 98.76 8.08 93.16 12.17 83.14 14.8 57.07 14.41 50.39 16.78 41.36 7.53 32.59 13.32 26.5 13.92 22.33 8.91 13 10.02 1 8.6 1 1 17.13 1 21.96 1 94.88 1 Z" fill="lightgrey" stroke="white" stroke-width="0.5"/>
<path d="M 197.12 119.97 207.55 135.19 207.62 138.71 198.64 146.12 194.82 145.41 181.84 152.43 144.58 144.89 137.62 147.76 135.25 156.21 141.76 161.16 145 176.75 149.6 179.57 148.77 190.14 167.23 203.07 170.74 210.53 177.85 210.37 186.39 219.4 170.9 228.18 174.51 239.57 175.2 253.16 171.02 254.95 162.62 269.94 165.91 275.19 153.55 282.61 152.39 293.73 147.14 308.35 135.82 315.13 127.35 338.85 114.44 341.37 103.55 345.93 97.65 339.38 90.2 337.11 84.24 348.79 75.38 360.52 74.36 371.34 83.87 377.81 92.42 379.24 92.45 394.88 98.47 402.93 107.43 402.81 108.86 410.49 115.21 418.79 121.93 431.79 116.04 444.62 110.63 439.14 99.96 442.53 97.09 446.5 86.68 443.33 66.15 442.97 67.23 452.19 54.38 455.69 41 456.79 31.6 445.9 26.57 429.65 14.18 427.58 13.65 416.18 5.44 405.76 1 405.37 1 246.14 7.21 244.38 8.75 236.97 16.72 229 30.12 230.05 38.7 233.57 44.1 225.41 39.53 211.65 42.84 204.65 43.16 193.06 51.03 192.65 59.44 186.12 47.84 165.51 60.87 168.5 72.67 165.56 69.26 147.62 76.41 139.95 78.73 132.55 75.36 122.72 66.61 111.41 62.02 109.15 69.71 96.87 72.69 98.68 81.5 89.29 89.06 86.62 113.75 84.46 124.92 86.32 133.98 80.92 142.97 83.77 153.8 83.92 157.19 89.39 165.89 90.39 172.01 96.78 172.86 107.15 181.47 115.42 190.45 113.74 197.12 119.97 Z" fill="lightgrey" stroke="white" stroke-width="0.5"/>
<path d="M 660.08 508.72 666.72 507.4 673.54 501.06 669.13 486.11 674.83 475.95 673.09 452.34 686.54 453.56 690.89 451.33 691.8 442.19 698.52 422.02 694.15 411.53 702.09 401.79 703.84 392.9 700.17 387.27 699.9 377.13 706.04 374.64 720.88 358.55 738.47 354.26 736.29 348.27 743.04 340.29 743.38 331.25 746.22 322.37 750.67 323.55 763.17 333.43 764.01 338.2 773.07 346.66 780.49 349.46 787.27 372.38 791.17 397.76 784.15 406.63 772.97 416 769.09 430.01 776.41 447.64 781.38 450.56 788.05 447.83 799 448.56 799 581.11 799 583.52 799 585.53 799 585.93 799 592.34 799 596.85 799 605.96 799 612.8 799 661.63 789.72 643.15 785.03 657.77 781.24 664.01 774.59 666.25 761.23 674.62 753.81 686.81 740.22 684.93 732.25 679.83 723.19 677.48 724.4 653.52 726.95 637.14 722.4 619.18 714.55 603.69 708.48 597.42 698.98 592.86 705.16 582.42 687.29 562.46 682.06 565.14 671.98 559.24 660.38 545.06 656.11 534.79 653.09 527.51 662.38 522.44 660.08 508.72 Z" fill="lightgrey" stroke="white" stroke-width="0.5"/>
<path d="M 573.03 504.39 564.31 480.65 566.15 474.42 559.09 471.3 554 461.16 556.03 443.03 549.48 442.23 536.87 432.84 544.4 417.84 555.83 417.94 551.1 408.48 545.2 408.53 532.02 396.93 533 390.32 538.59 381.41 553.17 383.48 556.63 390.51 562.71 394.41 568.53 392.75 574.84 396.93 576.71 412.12 591.74 418.49 612.77 417.02 618.86 418.95 631.58 417.55 643.88 424.09 639.26 429.09 637.96 439.65 633.58 446.21 621.16 448.36 617.91 462.23 630.36 480.16 642.13 458.83 649.15 471.42 651.37 482.47 655.12 488.3 660.08 508.72 662.38 522.44 653.09 527.51 656.11 534.79 650.5 532.13 645.9 514.38 635.66 492.88 629.22 485.76 624.82 491.72 617.78 491.71 607.59 477.18 603.53 486.38 610.46 499.13 601.99 513.75 589.48 515.17 575.36 513.32 573.03 504.39 Z" fill="lightgrey" stroke="white" stroke-width="0.5"/>
<path d="M 140.57 74.97 133.98 80.92 124.92 86.32 113.75 84.46 89.06 86.62 81.5 89.29 72.69 98.68 69.71 96.87 62.02 109.15 66.61 111.41 75.36 122.72 78.73 132.55 76.41 139.95 69.26 147.62 72.67 165.56 60.87 168.5 47.84 165.51 59.44 186.12 51.03 192.65 43.16 193.06 42.84 204.65 39.53 211.65 44.1 225.41 38.7 233.57 30.12 230.05 16.72 229 8.75 236.97 7.21 244.38 1 246.14 1 72.27 9.03 78.58 12.75 74.82 12.15 64.91 27.22 66.17 24.79 56.29 31.43 43.59 39.2 39.75 49.12 45.22 49.83 54.59 58.22 56.05 60.6 79.63 67.49 89.91 72.84 90.07 80.79 82.46 89.68 80.71 90.9 76.21 100.9 68.5 112.33 69.38 114.92 75.05 123.55 70.09 133.85 70.36 140.57 74.97 Z" fill="lightgrey" stroke="white" stroke-width="0.5"/>
<path d="M 522.33 341.39 523.1 362.95 529.91 373.16 529.16 381.41 511.47 384.27 503.33 377.82 496.23 382.53 484.73 376.91 473.68 378.06 466.75 370.02 459.8 373.36 442.51 365.07 439.34 356.52 426.27 351.38 421.15 353.33 394.1 351.8 390.53 345.85 384.61 346.62 374.85 340.13 370.4 341.67 355.58 333.91 350.3 326.85 336.84 319.81 329.61 319.79 320.79 313.63 323.93 300.17 323.4 287.43 335.81 274.94 339.39 280.06 348.78 268.76 361.3 271.15 364.3 278.57 374.8 282.73 383.56 290.22 391.64 291.21 402.89 303.54 416.62 301.96 422.02 311.83 434.51 320.24 446.51 320.85 445.95 328.37 454.59 328.99 465.51 332.91 470.3 340.7 482.77 334.79 499.18 342.39 512.51 342.96 522.33 341.39 Z" fill="lightgrey" stroke="white" stroke-width="0.5"/>
<path d="M 408.86 878.16 420.69 892.58 423.26 902.65 429.99 913.32 435.15 925.43 435.78 934.17 431.21 950.03 423.47 956.77 404.47 965.35 392.03 959.56 385.23 940.22 381.26 906.57 384.5 879.31 391.78 863.51 390.12 854.25 403.82 867.62 408.86 878.16 Z" fill="lightgrey" stroke="white" stroke-width="0.5"/>
</g>
<g id="secondary">
<path d="M 222.43 124.25 228.89 130.69 239.91 148.02 248.68 151.22 259.58 158.61 255.04 164.5 261.76 182.08 269.52 187.01 278.32 188.07 279.3 195.99 285.95 202.91 283.07 208.43 272.4 213.79 263.32 207.2 261.58 217.11 270.23 224.66 274.38 234.81 274.23 242.56 286.27 242.71 292.18 251.42 302.96 253.19 315.58 264.47 328 269.39 335.81 274.94 323.4 287.43 323.93 300.17 320.79 313.63 329.61 319.79 336.84 319.81 350.3 326.85 355.58 333.91 370.4 341.67 374.85 340.13 384.61 346.62 390.53 345.85 394.1 351.8 421.15 353.33 426.27 351.38 439.34 356.52 442.51 365.07 459.8 373.36 466.75 370.02 473.68 378.06 484.73 376.91 496.23 382.53 503.33 377.82 511.47 384.27 529.16 381.41 529.91 373.16 523.1 362.95 522.33 341.39 532.81 334.42 540.28 341.88 539.3 350.36 544.3 356.9 541.29 361.58 548.09 368.36 570.38 374.38 582.96 368.95 588.58 372.13 615.57 371.47 624.09 367.66 618.29 352.44 608.62 350.34 607.57 341.62 614.06 345.11 622.32 341.27 630.57 341.76 630.9 334.42 641.69 325.15 646.42 318.32 656.3 317.39 664.13 310.89 663.51 306.2 670.68 299.9 675.27 304.25 686.85 307.3 697.46 299.31 706.86 298.51 717.12 309.14 722.48 317.24 717.7 323.79 737.34 327.01 743.38 331.25 743.04 340.29 736.29 348.27 738.47 354.26 720.88 358.55 706.04 374.64 699.9 377.13 700.17 387.27 703.84 392.9 702.09 401.79 694.15 411.53 698.52 422.02 691.8 442.19 690.89 451.33 686.54 453.56 673.09 452.34 674.83 475.95 669.13 486.11 673.54 501.06 666.72 507.4 660.08 508.72 655.12 488.3 651.37 482.47 649.15 471.42 642.13 458.83 630.36 480.16 617.91 462.23 621.16 448.36 633.58 446.21 637.96 439.65 639.26 429.09 643.88 424.09 631.58 417.55 618.86 418.95 612.77 417.02 591.74 418.49 576.71 412.12 574.84 396.93 568.53 392.75 562.71 394.41 556.63 390.51 553.17 383.48 538.59 381.41 533 390.32 532.02 396.93 545.2 408.53 551.1 408.48 555.83 417.94 544.4 417.84 536.87 432.84 549.48 442.23 556.03 443.03 554 461.16 559.09 471.3 566.15 474.42 564.31 480.65 573.03 504.39 572.23 510.57 575.59 518.97 563.93 516.33 555.31 520.65 553.24 513.62 547.38 512.74 541.52 517.89 529.54 520.83 523.42 527.22 522.52 534.19 527.67 544.26 512.62 567.52 495.66 573.77 487.4 572.48 487.33 579.91 478.66 590.11 471.58 603.76 464.28 614.14 453.58 620.58 445.81 633.44 428.15 644.45 424.36 649.44 425.99 662.26 413.28 669.57 402.08 668.29 399.21 679.16 395.74 683.11 387.92 681.57 377.96 688 374.72 698.52 374.63 706.79 379.37 719.56 378.32 728.75 384.24 749.08 384.02 749.5 383.68 750.75 386.15 754.15 384.71 773.32 376.78 793.79 376.06 797.27 375.1 804.55 378.61 821.54 378.93 826.38 380.11 838.63 377.72 842.06 368.56 840.17 366.08 848.39 359.22 858.87 359.23 870.03 346.78 874.53 340.35 881.8 338.15 895.68 324.73 904.13 314.42 898.18 299.38 880.34 292.72 863.83 293.26 851.81 289.47 848.71 278.12 818.18 269.49 801.23 258.51 786.61 250.49 770.75 242.19 740.31 231.38 715.68 226.64 710.39 221.73 704.94 217.01 693.05 207.56 676.79 203.17 664.25 198.83 641.71 190.27 619.57 185.36 602.49 185.75 596.42 176.77 569.47 177.85 557 181.19 543.07 176.5 532.87 171.3 528.95 168.07 516.23 166.76 500.05 161.28 502.83 158.81 513.95 162.45 517.93 159.15 530.7 144.31 539.79 133.01 544.77 121.86 542 108.82 532.17 102.08 524.2 85.26 508.66 78.05 499.69 94.36 497.96 107.52 492.1 111.69 481.19 98.09 483.67 95.57 486.84 83.55 484.14 73.84 479.08 65.02 471.73 54.19 458.09 54.38 455.69 67.23 452.19 66.15 442.97 86.68 443.33 97.09 446.5 99.96 442.53 110.63 439.14 116.04 444.62 121.93 431.79 115.21 418.79 108.86 410.49 107.43 402.81 98.47 402.93 92.45 394.88 92.42 379.24 83.87 377.81 74.36 371.34 75.38 360.52 84.24 348.79 90.2 337.11 97.65 339.38 103.55 345.93 114.44 341.37 127.35 338.85 135.82 315.13 147.14 308.35 152.39 293.73 153.55 282.61 165.91 275.19 162.62 269.94 171.02 254.95 175.2 253.16 174.51 239.57 170.9 228.18 186.39 219.4 177.85 210.37 170.74 210.53 167.23 203.07 148.77 190.14 149.6 179.57 145 176.75 141.76 161.16 135.25 156.21 137.62 147.76 144.58 144.89 181.84 152.43 194.82 145.41 198.64 146.12 207.62 138.71 207.55 135.19 222.43 124.25 Z M 702.95 756 700.68 763.71 703.39 777.75 696.98 782.21 697.67 754.27 702.95 756 Z" fill-rule="evenodd" fill="#c6dbef" stroke="white" stroke-width="0.5"/>
</g>
<g id="selected">
<path d="M 383.68 750.75 373.03 755.69 366.96 756 357.28 762.8 344.52 764.3 339.67 774.53 334.67 770.91 341.1 761.54 336.44 747.59 329.86 745.25 328.44 739.7 312.93 744.11 305.23 738.38 309.99 730.98 306.79 726.13 298.35 726.78 293.67 719.55 294.49 709.44 301.54 703.43 296.49 692.57 297.18 682.34 307.2 680.08 323.46 683.5 332.95 676.08 338.95 677.89 350.47 669.35 350.55 662.55 362.15 658.16 367.55 660.82 369.46 651.08 377.05 650.99 381.66 646.33 389.1 645.88 402.54 638.34 408.12 624.45 419.75 622.06 423.14 607.01 427.48 612.61 438.19 610.76 437.06 603.63 449.04 591.43 458.11 598.95 468.36 598.84 478.66 590.11 471.58 603.76 464.28 614.14 453.58 620.58 445.81 633.44 428.15 644.45 424.36 649.44 425.99 662.26 413.28 669.57 402.08 668.29 399.21 679.16 395.74 683.11 387.92 681.57 377.96 688 374.72 698.52 374.63 706.79 379.37 719.56 378.32 728.75 384.24 749.08 384.02 749.5 383.68 750.75 Z" fill="#084594" stroke="#9ecae1" stroke-width="0.6"/>
<path d="M 307.2 680.08 297.18 682.34 296.49 692.57 301.54 703.43 294.49 709.44 293.67 719.55 298.35 726.78 306.79 726.13 309.99 730.98 305.23 738.38 312.93 744.11 328.44 739.7 329.86 745.25 336.44 747.59 341.1 761.54 334.67 770.91 323.78 768.16 319.39 773.38 317.44 786.68 324.51 789.11 316.77 797.88 303.66 798.2 301.82 803.17 291.64 802 285.3 796.59 276.86 793.91 264.79 784.14 256.85 773.21 250.49 770.75 242.19 740.31 231.38 715.68 226.64 710.39 230.2 708.44 230.92 698.96 228.1 689.28 232.84 675.62 227.27 663.72 236.31 661.5 242.62 651.69 247.98 654.06 259.24 647.7 257.27 636.89 265.72 641.04 272.32 639.24 278.65 628.32 286.38 625.15 286.9 617.76 294.67 612.37 302.67 613.1 305.58 623.98 301.34 632.36 306.44 636.45 301.67 643.97 304.47 649.09 304.98 661.86 308.18 668.48 307.2 680.08 Z" fill="#084594" stroke="#9ecae1" stroke-width="0.6"/>
<path d="M 334.67 770.91 339.67 774.53 344.52 764.3 357.28 762.8 366.96 756 373.03 755.69 383.68 750.75 386.15 754.15 384.71 773.32 376.78 793.79 376.06 797.27 375.1 804.55 378.61 821.54 378.93 826.38 380.11 838.63 377.72 842.06 368.56 840.17 366.08 848.39 359.22 858.87 359.23 870.03 346.78 874.53 340.35 881.8 338.15 895.68 324.73 904.13 314.42 898.18 318.32 891.32 314.8 877.82 319.9 863.63 314.45 860.42 315.73 843.43 313.36 839.41 304.68 840.57 305.08 827.22 299.84 822.86 300.19 817.02 291.9 808.54 291.64 802 301.82 803.17 303.66 798.2 316.77 797.88 324.51 789.11 317.44 786.68 319.39 773.38 323.78 768.16 334.67 770.91 Z" fill="#084594" stroke="#9ecae1" stroke-width="0.6"/>
<path d="M 408.12 624.45 402.54 638.34 389.1 645.88 381.66 646.33 377.05 650.99 369.46 651.08 367.55 660.82 362.15 658.16 350.55 662.55 350.47 669.35 338.95 677.89 332.95 676.08 323.46 683.5 307.2 680.08 308.18 668.48 304.98 661.86 304.47 649.09 301.67 643.97 306.44 636.45 301.34 632.36 305.58 623.98 302.67 613.1 302.93 606.27 309.91 598.1 305.27 592.11 317.46 579.69 320.74 570.69 328.27 571.33 339.63 580.28 352.43 576.26 358.79 581.99 357.3 591.11 359.5 598.35 369.46 601.81 380.15 610.13 387.19 619.41 389.19 626.4 404.01 627.64 408.12 624.45 Z" fill="#084594" stroke="#9ecae1" stroke-width="0.6"/>
</g>
</svg>