<?xml version="1.0"?>
<svg xmlns="http://www.w3.org/2000/svg" version="1.2" baseProfile="tiny" width="800" height="727" viewBox="0 0 800 727" stroke-linecap="round" stroke-linejoin="round">
<g id="ne_10m_admin_1_states_provinces_lakes">
<path d="M 607.03 1 604.34 5.26 593.71 6.83 589.7 10.94 577.16 11.21 571.36 5.27 556.58 12.97 549.97 20.43 526.15 15.56 507.52 2.55 494.46 2.34 492.73 1 607.03 1 Z" fill="lightgrey" stroke="white" stroke-width="0.5"/>
<path d="M 465.71 1 460.92 6.47 453.78 14.68 445.37 12.78 427.95 18.06 414.85 14.48 410 19.92 405.03 13.44 399.59 11.44 392.51 1 465.71 1 Z M 386.42 1 382.7 4.1 376.34 1 386.42 1 Z M 374.74 1 370.19 5.4 363.75 1 374.74 1 Z" fill-rule="evenodd" fill="lightgrey" stroke="white" stroke-width="0.5"/>
<path d="M 589.7 10.94 593.71 6.83 604.34 5.26 607.03 1 688.89 1 680.95 11.69 657.55 39.32 633.65 55.52 616.11 72.82 593.5 100.17 584.51 115.54 584.33 113.26 575.56 100.32 575.03 32.38 581.08 25.25 589.7 10.94 Z" fill="lightgrey" stroke="white" stroke-width="0.5"/>
<path d="M 492.73 1 494.46 2.34 507.52 2.55 526.15 15.56 549.97 20.43 556.58 12.97 571.36 5.27 577.16 11.21 589.7 10.94 581.08 25.25 575.03 32.38 575.56 100.32 584.33 113.26 584.51 115.54 580.7 120.33 574.17 122.62 572.89 128.05 562.16 135.2 561.31 144.22 556.65 151.1 551.59 165.42 545.64 170.5 522.81 151.66 519.93 147.02 520.9 140.42 463.03 103.67 462.79 94.56 466.8 91.46 461.79 79.73 470.09 63.94 474.81 61.55 477.7 53.37 476.69 38.59 468.59 25.6 468.58 16.65 464.3 14.28 460.92 6.47 465.71 1 492.73 1 Z" fill="lightgrey" stroke="white" stroke-width="0.5"/>
<path d="M 453.82 261.45 458.01 263.42 458.77 268.66 463.5 276.75 462.41 280.16 463.58 299.82 458.67 308.96 463.14 324.16 462.7 331.23 467.5 336.9 465.6 341.97 475.98 344.22 471.22 333.4 474.76 336.92 486.48 354.67 484.96 364.4 484.46 379.33 477.57 381.84 474.69 388.17 475.6 399.6 461.6 382.68 459.39 377.21 465.3 365.8 464.74 352.98 462.33 349.51 453.03 352.14 447.72 349.39 444.16 342.62 436.69 334.5 441.33 327.45 442.16 316.79 447.85 315.06 446.19 306.84 446.15 294.74 448.88 290.1 447.89 283.71 453.76 279.26 449.07 266.76 442.07 257.71 453.82 261.45 Z" fill="lightgrey" stroke="white" stroke-width="0.5"/>
<path d="M 463.03 103.67 520.9 140.42 519.93 147.02 522.81 151.66 545.64 170.5 542.28 185.02 538.5 195.45 539.6 201.31 549.37 210.69 550.61 215.5 546.53 221.59 548.74 231.94 545.77 237.45 548.88 251.65 551.27 253.67 553.09 267.34 560.28 272.32 563.45 277.38 556.3 283.58 544.41 289.9 538.07 290.15 531.8 294.12 524.65 291.78 519.82 297.36 513.95 300.38 507.82 298.04 494.08 299.99 488.2 294.68 485.33 297.72 474.15 297.63 473.47 294.78 473.11 294.36 470.71 292.01 470.37 291.38 469.9 282.5 467.18 267.63 464.12 263.25 462.58 261.37 460.98 259.82 460.81 259.59 458.01 263.42 453.82 261.45 442.07 257.71 433.45 252.66 422.01 248.59 419.92 244.72 413.92 242.61 413.63 239.61 404.81 222.68 404.67 212.51 397.54 203.21 391 199.43 394.89 191.12 391.69 184.39 393.09 178.66 389.41 174.56 390.51 166.32 396.22 163.02 403.96 149.03 409.94 142.76 403.21 136.84 405.54 128.52 410.11 127.5 410.15 113.65 404.34 103.93 410.15 102.75 425.7 102.75 426.38 102.75 426.6 102.75 423.14 126.97 428.97 130.18 451.09 130.33 450.96 117.93 463.03 103.67 Z" fill="lightgrey" stroke="white" stroke-width="0.5"/>
<path d="M 799 473.33 791.81 476.48 791.56 469.67 796.01 469.11 799 473.33 Z" fill="lightgrey" stroke="white" stroke-width="0.5"/>
<path d="M 211.15 20.17 210.97 26.59 202.26 44.44 202.28 55.66 198.97 65.52 200.18 77.6 196.54 87.87 197.08 93.91 189.7 103.09 182.23 107.54 177.03 118.59 172.27 123.52 171.32 137.41 172.11 144.92 166.43 157 161.27 158.71 155.34 164.26 149.21 173.03 142.14 173.79 141.74 163.14 130.66 170.75 125.26 172.66 120.63 169.72 115.58 165.22 109.31 169.43 103.28 176.81 100.02 168.65 88.8 156.84 90.42 152.43 100.45 149.68 98.19 142.73 96.14 127.58 104.34 128.79 110.81 127.22 110.25 119.25 116.46 119.65 119.8 126.44 125.5 129.04 132.19 123.33 137.22 130.35 140.04 120.54 142.53 119.17 143.81 109.86 142.36 103.13 144.11 95.9 137.97 89.84 133.24 88.05 133.89 80.64 143.6 67.43 138.96 58.81 132.61 57.82 123.75 61.74 121.77 54.91 124.43 44.42 140.27 44.58 145.07 43.54 153.71 47.68 164.68 49.08 171.7 43.03 176.25 31.97 177.63 20.4 190.1 17.55 198.37 19 208.62 17.3 211.15 20.17 Z" fill="lightgrey" stroke="white" stroke-width="0.5"/>
<path d="M 392.51 1 399.59 11.44 405.03 13.44 410 19.92 408.54 28.29 410.36 30.93 408.03 38.87 417.22 44.25 404.62 56.67 404.43 61.43 395.5 69.79 395.71 75.08 391.99 82.43 389.43 101.22 389.75 109.86 382.73 117.44 382.71 123.91 377.92 128.85 380.43 134.42 383.94 140.43 383.44 145.74 381.38 158.76 383.2 167.16 381.29 177.7 385.65 187.68 382.43 193.36 387.42 207.84 398.34 220.12 400.13 229.63 404.35 235.84 377.4 240.47 374.81 248.97 368.32 254.52 372.91 265.34 372.09 278.2 368.57 293.48 369.28 302.87 377.65 312.43 390.21 308.34 389.5 331.75 386.01 328.09 379.34 331.93 367.75 315.11 359.95 311.09 355.17 310.91 351.82 304.06 344.5 303.11 339.21 305.23 328.73 303.74 318.44 298.97 317.43 290.75 301.66 294.56 302.93 289.28 296.3 284.71 280.78 288.95 273.07 287.75 269.69 282.31 269.66 275.42 267.3 267.36 262.43 261.58 262.74 247.36 264.08 239.37 261.3 232.03 262.95 224.12 261.9 218.54 241.35 218.6 237.73 213.35 225.17 213.35 222.27 231.79 192.72 232.03 184.07 218.81 180.46 207.94 179.87 198.37 177.8 193.49 173.23 192.2 147.01 192.69 122.3 192.23 116.42 191.74 110.33 195.84 106.48 190.52 111.34 189.83 111.75 179.44 116.71 171.33 120.63 169.72 125.26 172.66 130.66 170.75 141.74 163.14 142.14 173.79 149.21 173.03 155.34 164.26 161.27 158.71 166.43 157 172.11 144.92 171.32 137.41 172.27 123.52 177.03 118.59 182.23 107.54 189.7 103.09 197.08 93.91 196.54 87.87 200.18 77.6 198.97 65.52 202.28 55.66 202.26 44.44 210.97 26.59 211.15 20.17 211.39 10.84 209.59 4.88 214.01 1 240.95 1 258.45 6.01 261.45 5.08 272.86 8.04 277.26 1 363.75 1 370.19 5.4 374.74 1 376.34 1 382.7 4.1 386.42 1 392.51 1 Z" fill="lightgrey" stroke="white" stroke-width="0.5"/>
<path d="M 166.89 611.03 154.71 599.54 149 587.98 148.26 581.4 144.41 569.78 142.78 559.24 142.31 541.54 137.75 529.66 139.03 499.96 137.2 494.95 130.48 485.87 128.68 479.84 121.82 468.03 118.34 455.83 104.95 428.97 100.92 425.43 98.1 418.75 96.17 407.75 97.04 402.33 102.37 400.25 109.72 402.02 115.13 398.23 122.82 397.02 131.98 405.2 136.24 404.83 204.36 404.85 209.27 411.46 213.39 412.84 229.63 414.19 234.5 413.44 241.96 416.69 251.59 416.28 283.55 409.5 297.13 406.52 308.93 407.85 313.62 412.32 308.77 412.44 302.51 416.93 296.18 416.65 287.27 424.7 281.3 416.06 252.55 421.63 244.51 422 242.57 489.19 226.49 489.87 224.83 540.6 221.92 608.26 215.34 610.26 207.31 618.16 202.14 615.95 193 617.1 181.18 613.45 180.65 604.67 173.64 601.99 171.42 608.63 166.89 611.03 Z" fill="lightgrey" stroke="white" stroke-width="0.5"/>
<path d="M 166.89 611.03 171.42 608.63 173.64 601.99 180.65 604.67 181.18 613.45 193 617.1 202.14 615.95 207.31 618.16 215.34 610.26 221.92 608.26 224.83 540.6 230.71 545.78 236.87 561.64 237.43 566.02 233.3 576.25 241.26 579.55 250.18 579.36 256.24 574.98 259.64 569.88 267.25 563.31 269.66 554.03 272.37 550.89 279.56 550.37 286.63 556.76 300.28 560.45 309.67 558.87 312.96 556.59 318.22 540.52 326.82 538.4 334.23 531.3 337.21 520.2 351.87 509.76 359.34 500.64 368.6 498.22 370.95 493.92 375.8 493.3 382.36 492.27 390.82 496.07 399.43 495.06 406.52 497.18 409.74 511.19 409.26 515.95 415.62 534.53 414.32 557.15 413.28 562.83 405.27 558.87 400.22 561.94 394.65 570.93 393.96 576.82 399.21 585.82 411.85 587.86 414.78 579.08 427.07 579.2 422.74 591.63 419.7 603.97 416.59 610.66 406.13 618.28 396.37 629.24 381.96 652.97 375.29 661.18 364.96 669.35 350.54 684.6 326.58 702.35 317.17 706.59 308.59 705.77 302.56 711.99 295.03 710.37 286.73 714.39 272.4 710.72 268.71 713.13 256.87 711.02 251.31 712.16 242.05 718.3 230.68 717.66 223.83 719.47 214.6 726 209.86 725.33 205.09 718.8 197.51 717.82 198.52 713.87 192.9 709.25 190.77 701.5 185.12 693.54 184.41 689.53 191.12 686.17 192.7 679.03 190.56 668.02 186.53 662.14 177.9 643.76 171.55 620.35 166.89 611.03 Z M 361.77 636.95 369.26 625.22 358.2 611.48 350.02 613.42 343.36 617.22 334.6 629.03 330.94 630.44 335.51 643.08 341 648.41 345.79 649.33 351.32 640.28 361.77 636.95 Z" fill-rule="evenodd" fill="lightgrey" stroke="white" stroke-width="0.5"/>
<path d="M 442.07 257.71 449.07 266.76 453.76 279.26 447.89 283.71 448.88 290.1 446.15 294.74 446.19 306.84 447.85 315.06 442.16 316.79 441.33 327.45 436.69 334.5 444.16 342.62 395.27 360.46 397.76 372.53 388.76 372.14 378.14 375.79 372.87 380.85 371.82 387.92 354.63 397.7 351.16 404.37 342.25 415.08 336.76 417.33 328.71 414.03 325.03 416.09 320.38 412.64 313.62 412.32 308.93 407.85 297.13 406.52 283.55 409.5 273.78 400.53 267.26 391.66 264.37 390.26 261.9 382.3 263.32 323.96 295.99 323.96 293.9 320.06 296.75 312.6 295.91 298.44 297.63 294.34 296.3 284.71 302.93 289.28 301.66 294.56 317.43 290.75 318.44 298.97 328.73 303.74 339.21 305.23 344.5 303.11 351.82 304.06 355.17 310.91 359.95 311.09 367.75 315.11 379.34 331.93 386.01 328.09 389.5 331.75 390.21 308.34 377.65 312.43 369.28 302.87 368.57 293.48 372.09 278.2 372.91 265.34 368.32 254.52 374.81 248.97 377.4 240.47 404.35 235.84 402.64 241.13 413.92 242.61 419.92 244.72 422.01 248.59 433.45 252.66 442.07 257.71 Z" fill="lightgrey" stroke="white" stroke-width="0.5"/>
<path d="M 277.26 1 272.86 8.04 261.45 5.08 258.45 6.01 240.95 1 277.26 1 Z M 211.15 20.17 208.62 17.3 198.37 19 190.1 17.55 177.63 20.4 176.25 31.97 171.7 43.03 169.95 31.48 154.86 14.96 152.02 3.09 149.09 1 214.01 1 209.59 4.88 211.39 10.84 211.15 20.17 Z" fill-rule="evenodd" fill="lightgrey" stroke="white" stroke-width="0.5"/>
<path d="M 16.29 1 16.84 4.12 7.11 5.39 1 1 16.29 1 Z" fill="lightgrey" stroke="white" stroke-width="0.5"/>
<path d="M 103.28 176.81 109.31 169.43 115.58 165.22 120.63 169.72 116.71 171.33 111.75 179.44 111.34 189.83 106.48 190.52 106.86 185.29 103.28 176.81 Z M 122.3 192.23 147.01 192.69 173.23 192.2 177.8 193.49 179.87 198.37 180.46 207.94 184.07 218.81 192.72 232.03 222.27 231.79 225.17 213.35 237.73 213.35 241.35 218.6 261.9 218.54 262.95 224.12 261.3 232.03 264.08 239.37 262.74 247.36 262.43 261.58 267.3 267.36 269.66 275.42 269.69 282.31 273.07 287.75 280.78 288.95 296.3 284.71 297.63 294.34 295.91 298.44 296.75 312.6 293.9 320.06 295.99 323.96 263.32 323.96 261.9 382.3 264.37 390.26 267.26 391.66 273.78 400.53 283.55 409.5 251.59 416.28 241.96 416.69 234.5 413.44 229.63 414.19 213.39 412.84 209.27 411.46 204.36 404.85 136.24 404.83 131.98 405.2 122.82 397.02 115.13 398.23 109.72 402.02 102.37 400.25 97.04 402.33 98.17 388.07 96.96 377.4 101.15 372.18 105.91 356.21 106.99 344.07 109.85 339.7 110.12 332.08 117.21 323.61 117.17 320.55 124.09 316.42 128.63 310.08 131.25 301.26 132.23 289.16 130.81 280.54 121.99 263.25 118.81 251.92 125.1 245.67 124.99 237.72 116.7 218.22 116.17 212.34 107.56 197.6 122.3 192.23 Z" fill-rule="evenodd" fill="lightgrey" stroke="white" stroke-width="0.5"/>
<path d="M 224.83 540.6 226.49 489.87 242.57 489.19 244.51 422 252.55 421.63 281.3 416.06 287.27 424.7 296.18 416.65 302.51 416.93 308.77 412.44 313.62 412.32 317.21 423.47 323.78 433.1 326.41 443.79 335.72 451.8 343.33 455.02 345.08 461.71 350.76 462.37 349.95 473.08 354.63 481.6 371.16 486.13 375.8 493.3 370.95 493.92 368.6 498.22 359.34 500.64 351.87 509.76 337.21 520.2 334.23 531.3 326.82 538.4 318.22 540.52 312.96 556.59 309.67 558.87 300.28 560.45 286.63 556.76 279.56 550.37 272.37 550.89 269.66 554.03 267.25 563.31 259.64 569.88 256.24 574.98 250.18 579.36 241.26 579.55 233.3 576.25 237.43 566.02 236.87 561.64 230.71 545.78 224.83 540.6 Z" fill="lightgrey" stroke="white" stroke-width="0.5"/>
<path d="M 406.52 497.18 399.43 495.06 390.82 496.07 382.36 492.27 375.8 493.3 371.16 486.13 354.63 481.6 349.95 473.08 350.76 462.37 345.08 461.71 343.33 455.02 335.72 451.8 326.41 443.79 323.78 433.1 317.21 423.47 313.62 412.32 320.38 412.64 325.03 416.09 328.71 414.03 336.76 417.33 342.25 415.08 351.16 404.37 354.63 397.7 371.82 387.92 372.87 380.85 378.14 375.79 388.76 372.14 397.76 372.53 397.6 379.26 411.39 379.67 421.55 387.15 427.65 387.57 437.41 392.29 435.93 396.48 438.68 404.34 437.24 412.76 437.31 424.72 432.87 441.25 436.72 449 433.27 458.27 426.89 465.65 425.38 476.77 408.91 495.43 406.52 497.18 Z" fill="lightgrey" stroke="white" stroke-width="0.5"/>
<path d="M 444.16 342.62 447.72 349.39 453.03 352.14 462.33 349.51 464.74 352.98 465.3 365.8 459.39 377.21 461.6 382.68 475.6 399.6 474.69 388.17 477.57 381.84 484.46 379.33 484.96 364.4 486.48 354.67 474.76 336.92 471.22 333.4 469.97 322.88 471.23 318.68 469.43 308.96 472.34 306.28 474.15 297.63 485.33 297.72 488.2 294.68 494.08 299.99 507.82 298.04 513.95 300.38 519.82 297.36 524.65 291.78 531.8 294.12 538.07 290.15 544.41 289.9 556.3 283.58 563.45 277.38 564.12 286.24 562.61 298.89 564.28 323.16 562.99 336.08 563.69 344.92 567.17 350.93 566.76 357.16 561.6 363.03 561.9 370.11 554.92 377.68 546.82 389.05 536.6 397.38 528.53 399.42 517.23 404.22 503.52 413.7 500.01 419.6 489.02 432.4 480.48 436.07 470.32 447.55 464.25 450.57 463.36 463.13 469 470.8 467.8 475.07 473.84 492.47 473.42 506.59 470.76 521.14 471.65 528.77 464.93 537.75 457.42 541.71 442.49 547.1 428.4 555.19 422.88 563.66 428.4 568.5 427.07 579.2 414.78 579.08 413.28 562.83 414.32 557.15 415.62 534.53 409.26 515.95 409.74 511.19 406.52 497.18 408.91 495.43 425.38 476.77 426.89 465.65 433.27 458.27 436.72 449 432.87 441.25 437.31 424.72 437.24 412.76 438.68 404.34 435.93 396.48 437.41 392.29 427.65 387.57 421.55 387.15 411.39 379.67 397.6 379.26 397.76 372.53 395.27 360.46 444.16 342.62 Z" fill="lightgrey" stroke="white" stroke-width="0.5"/>
<path d="M 414.78 579.08 411.85 587.86 399.21 585.82 393.96 576.82 394.65 570.93 400.22 561.94 405.27 558.87 413.28 562.83 414.78 579.08 Z" fill="lightgrey" stroke="white" stroke-width="0.5"/>
<path d="M 405.54 128.52 403.21 136.84 409.94 142.76 403.96 149.03 396.22 163.02 390.51 166.32 383.44 145.74 383.94 140.43 380.43 134.42 391.52 136.04 402.69 126.72 405.54 128.52 Z" fill="lightgrey" stroke="white" stroke-width="0.5"/>
<path d="M 404.34 103.93 410.15 113.65 410.11 127.5 405.54 128.52 402.69 126.72 391.52 136.04 380.43 134.42 377.92 128.85 382.71 123.91 382.73 117.44 389.75 109.86 399.03 109.06 404.34 103.93 Z" fill="lightgrey" stroke="white" stroke-width="0.5"/>
<path d="M 410 19.92 414.85 14.48 427.95 18.06 445.37 12.78 453.78 14.68 460.92 6.47 464.3 14.28 468.58 16.65 468.59 25.6 476.69 38.59 477.7 53.37 474.81 61.55 470.09 63.94 461.79 79.73 451.2 75.85 445.7 82.18 443.05 81.47 428.3 86.56 429.76 89.69 424.66 98.22 425.7 102.75 410.15 102.75 404.34 103.93 399.03 109.06 389.75 109.86 389.43 101.22 391.99 82.43 395.71 75.08 395.5 69.79 404.43 61.43 419.3 49.92 417.22 44.25 408.03 38.87 410.36 30.93 408.54 28.29 410 19.92 Z" fill="lightgrey" stroke="white" stroke-width="0.5"/>
<path d="M 361.77 636.95 351.32 640.28 345.79 649.33 341 648.41 335.51 643.08 330.94 630.44 334.6 629.03 343.36 617.22 350.02 613.42 358.2 611.48 369.26 625.22 361.77 636.95 Z" fill="lightgrey" stroke="white" stroke-width="0.5"/>
<path d="M 171.7 43.03 164.68 49.08 153.71 47.68 145.07 43.54 140.27 44.58 124.43 44.42 115.55 43.03 92.77 41.85 92.3 44.34 70.62 44.34 67.49 41.09 69.13 23.93 64.86 19.02 63.99 14.03 53.91 8.66 53.02 1 149.09 1 152.02 3.09 154.86 14.96 169.95 31.48 171.7 43.03 Z" fill="lightgrey" stroke="white" stroke-width="0.5"/>
<path d="M 124.43 44.42 121.77 54.91 123.75 61.74 132.61 57.82 138.96 58.81 143.6 67.43 133.89 80.64 133.24 88.05 137.97 89.84 144.11 95.9 142.36 103.13 143.81 109.86 142.53 119.17 140.04 120.54 137.22 130.35 132.19 123.33 125.5 129.04 119.8 126.44 116.46 119.65 110.25 119.25 110.81 127.22 104.34 128.79 96.14 127.58 98.19 142.73 100.45 149.68 90.42 152.43 88.8 156.84 81.05 145.35 69.15 134.05 58.47 117.19 51.26 97.79 58.88 91.87 62.63 78.9 59.55 72.94 67.62 65.86 92.58 65.84 92.3 44.34 92.77 41.85 115.55 43.03 124.43 44.42 Z" fill="lightgrey" stroke="white" stroke-width="0.5"/>
<path d="M 67.49 41.09 70.62 44.34 92.3 44.34 92.58 65.84 67.62 65.86 60.38 63.12 67.5 49.22 67.49 41.09 Z M 48.33 17.28 53.71 17.1 49.47 25.11 45.47 23.92 48.33 17.28 Z" fill-rule="evenodd" fill="lightgrey" stroke="white" stroke-width="0.5"/>
<path d="M 630.54 383.1 637.1 377.84 643.08 378.19 654.6 372.42 670.81 359.39 673.72 362.28 678.59 353.44 678.12 349.18 683.74 345.16 681.37 338.39 684.13 333.47 688.86 336.13 695.8 331.52 699.71 320.46 700.6 311.64 706.35 305.5 709.72 316.87 715.47 324.56 718 338.37 719.13 358.58 721.89 364.4 718.92 375.76 714.06 376.65 712.35 368.59 707.98 370.84 710.53 383.15 710.18 389.42 702.54 402.91 703.23 409.9 699.91 423.93 694.54 435.76 684.29 463.62 676.89 486.1 671.13 498.73 663.85 524.01 655.34 543.49 647.21 548.55 640.6 548.82 628.17 555.74 622.51 555.93 618.13 551.51 610.9 549.9 605.9 545.15 601.2 530.15 601.56 509.69 598.28 505.15 596.88 494.56 601.92 478.89 607.57 475.56 609.4 469.26 619.82 451.38 620.1 442.25 616.82 435.55 617.59 430.93 614.71 423.98 615.25 411.86 614.12 406.08 622.8 392.15 623.72 382.68 630.54 383.1 Z" fill="lightgrey" stroke="white" stroke-width="0.5"/>
</g>
<g id="selected">
<path d="M 166.89 611.03 171.42 608.63 173.64 601.99 180.65 604.67 181.18 613.45 193 617.1 202.14 615.95 207.31 618.16 215.34 610.26 221.92 608.26 224.83 540.6 230.71 545.78 236.87 561.64 237.43 566.02 233.3 576.25 241.26 579.55 250.18 579.36 256.24 574.98 259.64 569.88 267.25 563.31 269.66 554.03 272.37 550.89 279.56 550.37 286.63 556.76 300.28 560.45 309.67 558.87 312.96 556.59 318.22 540.52 326.82 538.4 334.23 531.3 337.21 520.2 351.87 509.76 359.34 500.64 368.6 498.22 370.95 493.92 375.8 493.3 382.36 492.27 390.82 496.07 399.43 495.06 406.52 497.18 409.74 511.19 409.26 515.95 415.62 534.53 414.32 557.15 413.28 562.83 405.27 558.87 400.22 561.94 394.65 570.93 393.96 576.82 399.21 585.82 411.85 587.86 414.78 579.08 427.07 579.2 422.74 591.63 419.7 603.97 416.59 610.66 406.13 618.28 396.37 629.24 381.96 652.97 375.29 661.18 364.96 669.35 350.54 684.6 326.58 702.35 317.17 706.59 308.59 705.77 302.56 711.99 295.03 710.37 286.73 714.39 272.4 710.72 268.71 713.13 256.87 711.02 251.31 712.16 242.05 718.3 230.68 717.66 223.83 719.47 214.6 726 209.86 725.33 205.09 718.8 197.51 717.82 198.52 713.87 192.9 709.25 190.77 701.5 185.12 693.54 184.41 689.53 191.12 686.17 192.7 679.03 190.56 668.02 186.53 662.14 177.9 643.76 171.55 620.35 166.89 611.03 Z M 361.77 636.95 369.26 625.22 358.2 611.48 350.02 613.42 343.36 617.22 334.6 629.03 330.94 630.44 335.51 643.08 341 648.41 345.79 649.33 351.32 640.28 361.77 636.95 Z" fill-rule="evenodd" fill="#084594" stroke="#9ecae1" stroke-width="0.6"/>
<path d="M 313.62 412.32 317.21 423.47 323.78 433.1 326.41 443.79 335.72 451.8 343.33 455.02 345.08 461.71 350.76 462.37 349.95 473.08 354.63 481.6 371.16 486.13 375.8 493.3 370.95 493.92 368.6 498.22 359.34 500.64 351.87 509.76 337.21 520.2 334.23 531.3 326.82 538.4 318.22 540.52 312.96 556.59 309.67 558.87 300.28 560.45 286.63 556.76 279.56 550.37 272.37 550.89 269.66 554.03 267.25 563.31 259.64 569.88 256.24 574.98 250.18 579.36 241.26 579.55 233.3 576.25 237.43 566.02 236.87 561.64 230.71 545.78 224.83 540.6 226.49 489.87 242.57 489.19 244.51 422 252.55 421.63 281.3 416.06 287.27 424.7 296.18 416.65 302.51 416.93 308.77 412.44 313.62 412.32 Z" fill="#084594" stroke="#9ecae1" stroke-width="0.6"/>
<path d="M 375.8 493.3 371.16 486.13 354.63 481.6 349.95 473.08 350.76 462.37 345.08 461.71 343.33 455.02 335.72 451.8 326.41 443.79 323.78 433.1 317.21 423.47 313.62 412.32 320.38 412.64 325.03 416.09 328.71 414.03 336.76 417.33 342.25 415.08 351.16 404.37 354.63 397.7 371.82 387.92 372.87 380.85 378.14 375.79 388.76 372.14 397.76 372.53 397.6 379.26 411.39 379.67 421.55 387.15 427.65 387.57 437.41 392.29 435.93 396.48 438.68 404.34 437.24 412.76 437.31 424.72 432.87 441.25 436.72 449 433.27 458.27 426.89 465.65 425.38 476.77 408.91 495.43 406.52 497.18 399.43 495.06 390.82 496.07 382.36 492.27 375.8 493.3 Z" fill="#084594" stroke="#9ecae1" stroke-width="0.6"/>
<path d="M 414.78 579.08 413.28 562.83 414.32 557.15 415.62 534.53 409.26 515.95 409.74 511.19 406.52 497.18 408.91 495.43 425.38 476.77 426.89 465.65 433.27 458.27 436.72 449 432.87 441.25 437.31 424.72 437.24 412.76 438.68 404.34 435.93 396.48 437.41 392.29 427.65 387.57 421.55 387.15 411.39 379.67 397.6 379.26 397.76 372.53 395.27 360.46 444.16 342.62 447.72 349.39 453.03 352.14 462.33 349.51 464.74 352.98 465.3 365.8 459.39 377.21 461.6 382.68 475.6 399.6 474.69 388.17 477.57 381.84 484.46 379.33 484.96 364.4 486.48 354.67 474.76 336.92 471.22 333.4 469.97 322.88 471.23 318.68 469.43 308.96 472.34 306.28 474.15 297.63 485.33 297.72 488.2 294.68 494.08 299.99 507.82 298.04 513.95 300.38 519.82 297.36 524.65 291.78 531.8 294.12 538.07 290.15 544.41 289.9 556.3 283.58 563.45 277.38 564.12 286.24 562.61 298.89 564.28 323.16 562.99 336.08 563.69 344.92 567.17 350.93 566.76 357.16 561.6 363.03 561.9 370.11 554.92 377.68 546.82 389.05 536.6 397.38 528.53 399.42 517.23 404.22 503.52 413.7 500.01 419.6 489.02 432.4 480.48 436.07 470.32 447.55 464.25 450.57 463.36 463.13 469 470.8 467.8 475.07 473.84 492.47 473.42 506.59 470.76 521.14 471.65 528.77 464.93 537.75 457.42 541.71 442.49 547.1 428.4 555.19 422.88 563.66 428.4 568.5 427.07 579.2 414.78 579.08 Z" fill="#084594" stroke="#9ecae1" stroke-width="0.6"/>
<path d="M 413.28 562.83 414.78 579.08 411.85 587.86 399.21 585.82 393.96 576.82 394.65 570.93 400.22 561.94 405.27 558.87 413.28 562.83 Z" fill="#084594" stroke="#9ecae1" stroke-width="0.6"/>
<path d="M 361.77 636.95 351.32 640.28 345.79 649.33 341 648.41 335.51 643.08 330.94 630.44 334.6 629.03 343.36 617.22 350.02 613.42 358.2 611.48 369.26 625.22 361.77 636.95 Z" fill="#084594" stroke="#9ecae1" stroke-width="0.6"/>
</g>
</svg>