<?xml version="1.0"?>
<svg xmlns="http://www.w3.org/2000/svg" version="1.2" baseProfile="tiny" width="800" height="727" viewBox="0 0 800 727" stroke-linecap="round" stroke-linejoin="round">
<g id="ne_10m_admin_1_states_provinces_lakes">
<path d="M 607.03 1 604.34 5.26 593.71 6.84 589.7 10.95 577.16 11.22 571.36 5.27 556.58 12.97 549.97 20.44 526.15 15.57 507.52 2.55 494.46 2.34 492.73 1 607.03 1 Z" fill="lightgrey" stroke="white" stroke-width="0.5"/>
<path d="M 465.71 1 460.92 6.47 453.78 14.69 445.37 12.79 427.95 18.07 414.85 14.49 410 19.93 405.03 13.45 399.59 11.44 392.51 1 465.71 1 Z M 386.42 1 382.7 4.11 376.34 1 386.42 1 Z M 374.74 1 370.19 5.4 363.75 1 374.74 1 Z" fill="lightgrey" stroke="white" stroke-width="0.5"/>
<path d="M 589.7 10.95 593.71 6.84 604.34 5.26 607.03 1 688.89 1 680.95 11.7 657.55 39.33 633.65 55.55 616.11 72.86 593.5 100.22 584.51 115.6 584.33 113.32 575.56 100.37 575.03 32.4 581.08 25.26 589.7 10.95 Z" fill="lightgrey" stroke="white" stroke-width="0.5"/>
<path d="M 492.73 1 494.46 2.34 507.52 2.55 526.15 15.57 549.97 20.44 556.58 12.97 571.36 5.27 577.16 11.22 589.7 10.95 581.08 25.26 575.03 32.4 575.56 100.37 584.33 113.32 584.51 115.6 580.7 120.39 574.17 122.68 572.89 128.11 562.16 135.26 561.31 144.29 556.65 151.17 551.59 165.51 545.64 170.58 522.81 151.73 519.93 147.1 520.9 140.49 463.03 103.72 462.79 94.61 466.8 91.51 461.79 79.77 470.09 63.97 474.81 61.58 477.7 53.39 476.69 38.61 468.59 25.61 468.58 16.65 464.3 14.29 460.92 6.47 465.71 1 492.73 1 Z" fill="lightgrey" stroke="white" stroke-width="0.5"/>
<path d="M 453.82 261.58 458.01 263.56 458.77 268.79 463.5 276.89 462.41 280.3 463.58 299.98 458.67 309.12 463.14 324.32 462.7 331.4 467.5 337.07 465.6 342.15 475.98 344.4 471.22 333.57 474.76 337.09 486.48 354.85 484.96 364.59 484.46 379.52 477.57 382.03 474.69 388.36 475.6 399.8 461.6 382.87 459.39 377.4 465.3 365.99 464.74 353.16 462.33 349.69 453.03 352.32 447.72 349.56 444.16 342.8 436.69 334.67 441.33 327.62 442.16 316.95 447.85 315.21 446.19 306.99 446.15 294.89 448.88 290.24 447.89 283.85 453.76 279.4 449.07 266.89 442.07 257.84 453.82 261.58 Z" fill="lightgrey" stroke="white" stroke-width="0.5"/>
<path d="M 463.03 103.72 520.9 140.49 519.93 147.1 522.81 151.73 545.64 170.58 542.28 185.12 538.5 195.54 539.6 201.41 549.37 210.8 550.61 215.61 546.53 221.7 548.74 232.06 545.77 237.57 548.88 251.78 551.27 253.8 553.09 267.47 560.28 272.46 563.45 277.52 556.3 283.72 544.41 290.05 538.07 290.3 531.8 294.27 524.65 291.92 519.82 297.51 513.95 300.53 507.82 298.19 494.08 300.14 488.2 294.83 485.33 297.87 474.15 297.78 473.47 294.93 473.11 294.51 470.71 292.16 470.37 291.53 469.9 282.64 467.18 267.77 464.12 263.38 462.58 261.5 460.98 259.95 460.81 259.73 458.01 263.56 453.82 261.58 442.07 257.84 433.45 252.78 422.01 248.71 419.92 244.85 413.92 242.73 413.63 239.73 404.81 222.79 404.67 212.62 397.54 203.32 391 199.53 394.89 191.22 391.69 184.49 393.09 178.75 389.41 174.64 390.51 166.4 396.22 163.1 403.96 149.11 409.94 142.83 403.21 136.91 405.54 128.59 410.11 127.57 410.15 113.71 404.34 103.99 410.15 102.8 425.7 102.8 426.38 102.8 426.6 102.8 423.14 127.03 428.97 130.25 451.09 130.39 450.96 117.99 463.03 103.72 Z" fill="lightgrey" stroke="white" stroke-width="0.5"/>
<path d="M 799 473.57 791.81 476.72 791.56 469.91 796.01 469.35 799 473.57 Z" fill="lightgrey" stroke="white" stroke-width="0.5"/>
<path d="M 211.15 20.18 210.97 26.61 202.26 44.46 202.28 55.69 198.97 65.55 200.18 77.64 196.54 87.92 197.08 93.96 189.7 103.14 182.23 107.59 177.03 118.65 172.27 123.58 171.32 137.47 172.11 144.99 166.43 157.08 161.27 158.79 155.34 164.34 149.21 173.12 142.14 173.88 141.74 163.22 130.66 170.84 125.26 172.75 120.63 169.81 115.58 165.3 109.31 169.51 103.28 176.9 100.02 168.73 88.8 156.92 90.42 152.5 100.45 149.75 98.19 142.8 96.14 127.64 104.34 128.85 110.81 127.28 110.25 119.31 116.46 119.71 119.8 126.51 125.5 129.11 132.19 123.39 137.22 130.42 140.04 120.6 142.53 119.23 143.81 109.92 142.36 103.18 144.11 95.94 137.97 89.88 133.24 88.1 133.89 80.68 143.6 67.46 138.96 58.84 132.61 57.85 123.75 61.77 121.77 54.93 124.43 44.45 140.27 44.6 145.07 43.56 153.71 47.7 164.68 49.1 171.7 43.06 176.25 31.99 177.63 20.41 190.1 17.56 198.37 19.01 208.62 17.31 211.15 20.18 Z" fill="lightgrey" stroke="white" stroke-width="0.5"/>
<path d="M 392.51 1 399.59 11.44 405.03 13.45 410 19.93 408.54 28.3 410.36 30.94 408.03 38.89 417.22 44.27 404.62 56.7 404.43 61.46 395.5 69.83 395.71 75.12 391.99 82.47 389.43 101.27 389.75 109.92 382.73 117.5 382.71 123.97 377.92 128.91 380.43 134.49 383.94 140.5 383.44 145.81 381.38 158.84 383.2 167.24 381.29 177.79 385.65 187.78 382.43 193.46 387.42 207.94 398.34 220.23 400.13 229.74 404.35 235.96 377.4 240.59 374.81 249.1 368.32 254.65 372.91 265.47 372.09 278.34 368.57 293.63 369.28 303.02 377.65 312.59 390.21 308.49 389.5 331.92 386.01 328.25 379.34 332.1 367.75 315.27 359.95 311.25 355.17 311.07 351.82 304.21 344.5 303.26 339.21 305.38 328.73 303.89 318.44 299.12 317.43 290.89 301.66 294.71 302.93 289.43 296.3 284.85 280.78 289.1 273.07 287.89 269.69 282.45 269.66 275.56 267.3 267.5 262.43 261.71 262.74 247.48 264.08 239.49 261.3 232.15 262.95 224.23 261.9 218.65 241.35 218.71 237.73 213.46 225.17 213.46 222.27 231.91 192.72 232.15 184.07 218.92 180.46 208.04 179.87 198.47 177.8 193.59 173.23 192.3 147.01 192.79 122.3 192.33 116.42 191.84 110.33 195.94 106.48 190.62 111.34 189.93 111.75 179.53 116.71 171.42 120.63 169.81 125.26 172.75 130.66 170.84 141.74 163.22 142.14 173.88 149.21 173.12 155.34 164.34 161.27 158.79 166.43 157.08 172.11 144.99 171.32 137.47 172.27 123.58 177.03 118.65 182.23 107.59 189.7 103.14 197.08 93.96 196.54 87.92 200.18 77.64 198.97 65.55 202.28 55.69 202.26 44.46 210.97 26.61 211.15 20.18 211.39 10.85 209.59 4.88 214.01 1 240.95 1 258.45 6.01 261.45 5.08 272.86 8.04 277.26 1 363.75 1 370.19 5.4 374.74 1 376.34 1 382.7 4.11 386.42 1 392.51 1 Z" fill="lightgrey" stroke="white" stroke-width="0.5"/>
<path d="M 166.89 611.34 154.71 599.85 149 588.27 148.26 581.69 144.41 570.07 142.78 559.52 142.31 541.81 137.75 529.93 139.03 500.21 137.2 495.2 130.48 486.12 128.68 480.08 121.82 468.27 118.34 456.06 104.95 429.19 100.92 425.64 98.1 418.96 96.17 407.95 97.04 402.54 102.37 400.45 109.72 402.22 115.13 398.43 122.82 397.22 131.98 405.41 136.24 405.03 204.36 405.06 209.27 411.67 213.39 413.04 229.63 414.4 234.5 413.64 241.96 416.9 251.59 416.49 283.55 409.7 297.13 406.72 308.93 408.05 313.62 412.52 308.77 412.65 302.51 417.14 296.18 416.86 287.27 424.92 281.3 416.27 252.55 421.85 244.51 422.21 242.57 489.44 226.49 490.12 224.83 540.87 221.92 608.56 215.34 610.57 207.31 618.47 202.14 616.26 193 617.41 181.18 613.76 180.65 604.97 173.64 602.3 171.42 608.94 166.89 611.34 Z" fill="lightgrey" stroke="white" stroke-width="0.5"/>
<path d="M 166.89 611.34 171.42 608.94 173.64 602.3 180.65 604.97 181.18 613.76 193 617.41 202.14 616.26 207.31 618.47 215.34 610.57 221.92 608.56 224.83 540.87 230.71 546.05 236.87 561.93 237.43 566.3 233.3 576.54 241.26 579.84 250.18 579.66 256.24 575.27 259.64 570.17 267.25 563.59 269.66 554.31 272.37 551.17 279.56 550.64 286.63 557.04 300.28 560.73 309.67 559.15 312.96 556.87 318.22 540.79 326.82 538.67 334.23 531.57 337.21 520.46 351.87 510.02 359.34 500.89 368.6 498.47 370.95 494.17 375.8 493.55 382.36 492.52 390.82 496.32 399.43 495.31 406.52 497.43 409.74 511.45 409.26 516.21 415.62 534.8 414.32 557.43 413.28 563.11 405.27 559.15 400.22 562.22 394.65 571.21 393.96 577.11 399.21 586.12 411.85 588.16 414.78 579.38 427.07 579.49 422.74 591.93 419.7 604.28 416.59 610.97 406.13 618.59 396.37 629.55 381.96 653.29 375.29 661.51 364.96 669.69 350.54 684.94 326.58 702.7 317.17 706.95 308.59 706.13 302.56 712.35 295.03 710.73 286.73 714.75 272.4 711.08 268.71 713.49 256.87 711.38 251.31 712.52 242.05 718.66 230.68 718.02 223.83 719.83 214.6 726.37 209.86 725.69 205.09 719.16 197.51 718.18 198.52 714.23 192.9 709.61 190.77 701.85 185.12 693.89 184.41 689.87 191.12 686.51 192.7 679.37 190.56 668.35 186.53 662.48 177.9 644.08 171.55 620.66 166.89 611.34 Z M 361.77 637.27 369.26 625.53 358.2 611.79 350.02 613.73 343.36 617.53 334.6 629.34 330.94 630.76 335.51 643.4 341 648.74 345.79 649.65 351.32 640.6 361.77 637.27 Z" fill-rule="evenodd" fill="lightgrey" stroke="white" stroke-width="0.5"/>
<path d="M 442.07 257.84 449.07 266.89 453.76 279.4 447.89 283.85 448.88 290.24 446.15 294.89 446.19 306.99 447.85 315.21 442.16 316.95 441.33 327.62 436.69 334.67 444.16 342.8 395.27 360.64 397.76 372.72 388.76 372.33 378.14 375.98 372.87 381.04 371.82 388.11 354.63 397.9 351.16 404.57 342.25 415.29 336.76 417.54 328.71 414.24 325.03 416.3 320.38 412.84 313.62 412.52 308.93 408.05 297.13 406.72 283.55 409.7 273.78 400.73 267.26 391.86 264.37 390.46 261.9 382.49 263.32 324.12 295.99 324.12 293.9 320.22 296.75 312.75 295.91 298.59 297.63 294.49 296.3 284.85 302.93 289.43 301.66 294.71 317.43 290.89 318.44 299.12 328.73 303.89 339.21 305.38 344.5 303.26 351.82 304.21 355.17 311.07 359.95 311.25 367.75 315.27 379.34 332.1 386.01 328.25 389.5 331.92 390.21 308.49 377.65 312.59 369.28 303.02 368.57 293.63 372.09 278.34 372.91 265.47 368.32 254.65 374.81 249.1 377.4 240.59 404.35 235.96 402.64 241.25 413.92 242.73 419.92 244.85 422.01 248.71 433.45 252.78 442.07 257.84 Z" fill="lightgrey" stroke="white" stroke-width="0.5"/>
<path d="M 277.26 1 272.86 8.04 261.45 5.08 258.45 6.01 240.95 1 277.26 1 Z M 211.15 20.18 208.62 17.31 198.37 19.01 190.1 17.56 177.63 20.41 176.25 31.99 171.7 43.06 169.95 31.49 154.86 14.97 152.02 3.09 149.09 1 214.01 1 209.59 4.88 211.39 10.85 211.15 20.18 Z" fill="lightgrey" stroke="white" stroke-width="0.5"/>
<path d="M 16.29 1 16.84 4.12 7.11 5.4 1 1 16.29 1 Z" fill="lightgrey" stroke="white" stroke-width="0.5"/>
<path d="M 103.28 176.9 109.31 169.51 115.58 165.3 120.63 169.81 116.71 171.42 111.75 179.53 111.34 189.93 106.48 190.62 106.86 185.38 103.28 176.9 Z M 122.3 192.33 147.01 192.79 173.23 192.3 177.8 193.59 179.87 198.47 180.46 208.04 184.07 218.92 192.72 232.15 222.27 231.91 225.17 213.46 237.73 213.46 241.35 218.71 261.9 218.65 262.95 224.23 261.3 232.15 264.08 239.49 262.74 247.48 262.43 261.71 267.3 267.5 269.66 275.56 269.69 282.45 273.07 287.89 280.78 289.1 296.3 284.85 297.63 294.49 295.91 298.59 296.75 312.75 293.9 320.22 295.99 324.12 263.32 324.12 261.9 382.49 264.37 390.46 267.26 391.86 273.78 400.73 283.55 409.7 251.59 416.49 241.96 416.9 234.5 413.64 229.63 414.4 213.39 413.04 209.27 411.67 204.36 405.06 136.24 405.03 131.98 405.41 122.82 397.22 115.13 398.43 109.72 402.22 102.37 400.45 97.04 402.54 98.17 388.27 96.96 377.59 101.15 372.37 105.91 356.39 106.99 344.24 109.85 339.87 110.12 332.25 117.21 323.77 117.17 320.71 124.09 316.58 128.63 310.24 131.25 301.41 132.23 289.3 130.81 280.68 121.99 263.39 118.81 252.05 125.1 245.8 124.99 237.84 116.7 218.33 116.17 212.45 107.56 197.7 122.3 192.33 Z" fill="lightgrey" stroke="white" stroke-width="0.5"/>
<path d="M 224.83 540.87 226.49 490.12 242.57 489.44 244.51 422.21 252.55 421.85 281.3 416.27 287.27 424.92 296.18 416.86 302.51 417.14 308.77 412.65 313.62 412.52 317.21 423.68 323.78 433.31 326.41 444.01 335.72 452.03 343.33 455.25 345.08 461.94 350.76 462.6 349.95 473.32 354.63 481.84 371.16 486.38 375.8 493.55 370.95 494.17 368.6 498.47 359.34 500.89 351.87 510.02 337.21 520.46 334.23 531.57 326.82 538.67 318.22 540.79 312.96 556.87 309.67 559.15 300.28 560.73 286.63 557.04 279.56 550.64 272.37 551.17 269.66 554.31 267.25 563.59 259.64 570.17 256.24 575.27 250.18 579.66 241.26 579.84 233.3 576.54 237.43 566.3 236.87 561.93 230.71 546.05 224.83 540.87 Z" fill="lightgrey" stroke="white" stroke-width="0.5"/>
<path d="M 406.52 497.43 399.43 495.31 390.82 496.32 382.36 492.52 375.8 493.55 371.16 486.38 354.63 481.84 349.95 473.32 350.76 462.6 345.08 461.94 343.33 455.25 335.72 452.03 326.41 444.01 323.78 433.31 317.21 423.68 313.62 412.52 320.38 412.84 325.03 416.3 328.71 414.24 336.76 417.54 342.25 415.29 351.16 404.57 354.63 397.9 371.82 388.11 372.87 381.04 378.14 375.98 388.76 372.33 397.76 372.72 397.6 379.45 411.39 379.86 421.55 387.34 427.65 387.76 437.41 392.49 435.93 396.68 438.68 404.54 437.24 412.96 437.31 424.94 432.87 441.47 436.72 449.23 433.27 458.5 426.89 465.88 425.38 477.01 408.91 495.68 406.52 497.43 Z" fill="lightgrey" stroke="white" stroke-width="0.5"/>
<path d="M 444.16 342.8 447.72 349.56 453.03 352.32 462.33 349.69 464.74 353.16 465.3 365.99 459.39 377.4 461.6 382.87 475.6 399.8 474.69 388.36 477.57 382.03 484.46 379.52 484.96 364.59 486.48 354.85 474.76 337.09 471.22 333.57 469.97 323.05 471.23 318.84 469.43 309.12 472.34 306.44 474.15 297.78 485.33 297.87 488.2 294.83 494.08 300.14 507.82 298.19 513.95 300.53 519.82 297.51 524.65 291.92 531.8 294.27 538.07 290.3 544.41 290.05 556.3 283.72 563.45 277.52 564.12 286.39 562.61 299.04 564.28 323.32 562.99 336.25 563.69 345.1 567.17 351.11 566.76 357.34 561.6 363.21 561.9 370.3 554.92 377.88 546.82 389.25 536.6 397.58 528.53 399.62 517.23 404.43 503.52 413.91 500.01 419.81 489.02 432.61 480.48 436.29 470.32 447.77 464.25 450.8 463.36 463.36 469 471.04 467.8 475.31 473.84 492.71 473.42 506.85 470.76 521.41 471.65 529.03 464.93 538.02 457.42 541.99 442.49 547.38 428.4 555.47 422.88 563.94 428.4 568.79 427.07 579.49 414.78 579.38 413.28 563.11 414.32 557.43 415.62 534.8 409.26 516.21 409.74 511.45 406.52 497.43 408.91 495.68 425.38 477.01 426.89 465.88 433.27 458.5 436.72 449.23 432.87 441.47 437.31 424.94 437.24 412.96 438.68 404.54 435.93 396.68 437.41 392.49 427.65 387.76 421.55 387.34 411.39 379.86 397.6 379.45 397.76 372.72 395.27 360.64 444.16 342.8 Z" fill="lightgrey" stroke="white" stroke-width="0.5"/>
<path d="M 414.78 579.38 411.85 588.16 399.21 586.12 393.96 577.11 394.65 571.21 400.22 562.22 405.27 559.15 413.28 563.11 414.78 579.38 Z" fill="lightgrey" stroke="white" stroke-width="0.5"/>
<path d="M 405.54 128.59 403.21 136.91 409.94 142.83 403.96 149.11 396.22 163.1 390.51 166.4 383.44 145.81 383.94 140.5 380.43 134.49 391.52 136.11 402.69 126.79 405.54 128.59 Z" fill="lightgrey" stroke="white" stroke-width="0.5"/>
<path d="M 404.34 103.99 410.15 113.71 410.11 127.57 405.54 128.59 402.69 126.79 391.52 136.11 380.43 134.49 377.92 128.91 382.71 123.97 382.73 117.5 389.75 109.92 399.03 109.12 404.34 103.99 Z" fill="lightgrey" stroke="white" stroke-width="0.5"/>
<path d="M 410 19.93 414.85 14.49 427.95 18.07 445.37 12.79 453.78 14.69 460.92 6.47 464.3 14.29 468.58 16.65 468.59 25.61 476.69 38.61 477.7 53.39 474.81 61.58 470.09 63.97 461.79 79.77 451.2 75.89 445.7 82.23 443.05 81.51 428.3 86.61 429.76 89.74 424.66 98.27 425.7 102.8 410.15 102.8 404.34 103.99 399.03 109.12 389.75 109.92 389.43 101.27 391.99 82.47 395.71 75.12 395.5 69.83 404.43 61.46 419.3 49.94 417.22 44.27 408.03 38.89 410.36 30.94 408.54 28.3 410 19.93 Z" fill="lightgrey" stroke="white" stroke-width="0.5"/>
<path d="M 361.77 637.27 351.32 640.6 345.79 649.65 341 648.74 335.51 643.4 330.94 630.76 334.6 629.34 343.36 617.53 350.02 613.73 358.2 611.79 369.26 625.53 361.77 637.27 Z" fill="lightgrey" stroke="white" stroke-width="0.5"/>
<path d="M 171.7 43.06 164.68 49.1 153.71 47.7 145.07 43.56 140.27 44.6 124.43 44.45 115.55 43.05 92.77 41.87 92.3 44.36 70.62 44.36 67.49 41.11 69.13 23.94 64.86 19.03 63.99 14.04 53.91 8.67 53.02 1 149.09 1 152.02 3.09 154.86 14.97 169.95 31.49 171.7 43.06 Z" fill="lightgrey" stroke="white" stroke-width="0.5"/>
<path d="M 124.43 44.45 121.77 54.93 123.75 61.77 132.61 57.85 138.96 58.84 143.6 67.46 133.89 80.68 133.24 88.1 137.97 89.88 144.11 95.94 142.36 103.18 143.81 109.92 142.53 119.23 140.04 120.6 137.22 130.42 132.19 123.39 125.5 129.11 119.8 126.51 116.46 119.71 110.25 119.31 110.81 127.28 104.34 128.85 96.14 127.64 98.19 142.8 100.45 149.75 90.42 152.5 88.8 156.92 81.05 145.43 69.15 134.12 58.47 117.25 51.26 97.84 58.88 91.91 62.63 78.94 59.55 72.98 67.62 65.89 92.58 65.88 92.3 44.36 92.77 41.87 115.55 43.05 124.43 44.45 Z" fill="lightgrey" stroke="white" stroke-width="0.5"/>
<path d="M 67.49 41.11 70.62 44.36 92.3 44.36 92.58 65.88 67.62 65.89 60.38 63.15 67.5 49.24 67.49 41.11 Z M 48.33 17.29 53.71 17.11 49.47 25.12 45.47 23.94 48.33 17.29 Z" fill="lightgrey" stroke="white" stroke-width="0.5"/>
<path d="M 630.54 383.29 637.1 378.03 643.08 378.38 654.6 372.61 670.81 359.57 673.72 362.47 678.59 353.62 678.12 349.36 683.74 345.34 681.37 338.56 684.13 333.64 688.86 336.3 695.8 331.69 699.71 320.62 700.6 311.8 706.35 305.65 709.72 317.03 715.47 324.72 718 338.54 719.13 358.76 721.89 364.58 718.92 375.95 714.06 376.84 712.35 368.78 707.98 371.03 710.53 383.34 710.18 389.62 702.54 403.11 703.23 410.11 699.91 424.14 694.54 435.98 684.29 463.86 676.89 486.34 671.13 498.98 663.85 524.28 655.34 543.77 647.21 548.83 640.6 549.09 628.17 556.02 622.51 556.21 618.13 551.78 610.9 550.17 605.9 545.42 601.2 530.41 601.56 509.95 598.28 505.41 596.88 494.8 601.92 479.13 607.57 475.8 609.4 469.5 619.82 451.6 620.1 442.47 616.82 435.77 617.59 431.15 614.71 424.19 615.25 412.07 614.12 406.28 622.8 392.35 623.72 382.88 630.54 383.29 Z" fill="lightgrey" stroke="white" stroke-width="0.5"/>
</g>
<g id="selected">
<path d="M 166.89 611.34 171.42 608.94 173.64 602.3 180.65 604.97 181.18 613.76 193 617.41 202.14 616.26 207.31 618.47 215.34 610.57 221.92 608.56 224.83 540.87 230.71 546.05 236.87 561.93 237.43 566.3 233.3 576.54 241.26 579.84 250.18 579.66 256.24 575.27 259.64 570.17 267.25 563.59 269.66 554.31 272.37 551.17 279.56 550.64 286.63 557.04 300.28 560.73 309.67 559.15 312.96 556.87 318.22 540.79 326.82 538.67 334.23 531.57 337.21 520.46 351.87 510.02 359.34 500.89 368.6 498.47 370.95 494.17 375.8 493.55 382.36 492.52 390.82 496.32 399.43 495.31 406.52 497.43 409.74 511.45 409.26 516.21 415.62 534.8 414.32 557.43 413.28 563.11 405.27 559.15 400.22 562.22 394.65 571.21 393.96 577.11 399.21 586.12 411.85 588.16 414.78 579.38 427.07 579.49 422.74 591.93 419.7 604.28 416.59 610.97 406.13 618.59 396.37 629.55 381.96 653.29 375.29 661.51 364.96 669.69 350.54 684.94 326.58 702.7 317.17 706.95 308.59 706.13 302.56 712.35 295.03 710.73 286.73 714.75 272.4 711.08 268.71 713.49 256.87 711.38 251.31 712.52 242.05 718.66 230.68 718.02 223.83 719.83 214.6 726.37 209.86 725.69 205.09 719.16 197.51 718.18 198.52 714.23 192.9 709.61 190.77 701.85 185.12 693.89 184.41 689.87 191.12 686.51 192.7 679.37 190.56 668.35 186.53 662.48 177.9 644.08 171.55 620.66 166.89 611.34 Z M 361.77 637.27 369.26 625.53 358.2 611.79 350.02 613.73 343.36 617.53 334.6 629.34 330.94 630.76 335.51 643.4 341 648.74 345.79 649.65 351.32 640.6 361.77 637.27 Z" fill-rule="evenodd" fill="#084594" stroke="#9ecae1" stroke-width="0.6"/>
<path d="M 313.62 412.52 317.21 423.68 323.78 433.31 326.41 444.01 335.72 452.03 343.33 455.25 345.08 461.94 350.76 462.6 349.95 473.32 354.63 481.84 371.16 486.38 375.8 493.55 370.95 494.17 368.6 498.47 359.34 500.89 351.87 510.02 337.21 520.46 334.23 531.57 326.82 538.67 318.22 540.79 312.96 556.87 309.67 559.15 300.28 560.73 286.63 557.04 279.56 550.64 272.37 551.17 269.66 554.31 267.25 563.59 259.64 570.17 256.24 575.27 250.18 579.66 241.26 579.84 233.3 576.54 237.43 566.3 236.87 561.93 230.71 546.05 224.83 540.87 226.49 490.12 242.57 489.44 244.51 422.21 252.55 421.85 281.3 416.27 287.27 424.92 296.18 416.86 302.51 417.14 308.77 412.65 313.62 412.52 Z" fill="#084594" stroke="#9ecae1" stroke-width="0.6"/>
<path d="M 414.78 579.38 413.28 563.11 414.32 557.43 415.62 534.8 409.26 516.21 409.74 511.45 406.52 497.43 408.91 495.68 425.38 477.01 426.89 465.88 433.27 458.5 436.72 449.23 432.87 441.47 437.31 424.94 437.24 412.96 438.68 404.54 435.93 396.68 437.41 392.49 427.65 387.76 421.55 387.34 411.39 379.86 397.6 379.45 397.76 372.72 395.27 360.64 444.16 342.8 447.72 349.56 453.03 352.32 462.33 349.69 464.74 353.16 465.3 365.99 459.39 377.4 461.6 382.87 475.6 399.8 474.69 388.36 477.57 382.03 484.46 379.52 484.96 364.59 486.48 354.85 474.76 337.09 471.22 333.57 469.97 323.05 471.23 318.84 469.43 309.12 472.34 306.44 474.15 297.78 485.33 297.87 488.2 294.83 494.08 300.14 507.82 298.19 513.95 300.53 519.82 297.51 524.65 291.92 531.8 294.27 538.07 290.3 544.41 290.05 556.3 283.72 563.45 277.52 564.12 286.39 562.61 299.04 564.28 323.32 562.99 336.25 563.69 345.1 567.17 351.11 566.76 357.34 561.6 363.21 561.9 370.3 554.92 377.88 546.82 389.25 536.6 397.58 528.53 399.62 517.23 404.43 503.52 413.91 500.01 419.81 489.02 432.61 480.48 436.29 470.32 447.77 464.25 450.8 463.36 463.36 469 471.04 467.8 475.31 473.84 492.71 473.42 506.85 470.76 521.41 471.65 529.03 464.93 538.02 457.42 541.99 442.49 547.38 428.4 555.47 422.88 563.94 428.4 568.79 427.07 579.49 414.78 579.38 Z" fill="#084594" stroke="#9ecae1" stroke-width="0.6"/>
<path d="M 361.77 637.27 351.32 640.6 345.79 649.65 341 648.74 335.51 643.4 330.94 630.76 334.6 629.34 343.36 617.53 350.02 613.73 358.2 611.79 369.26 625.53 361.77 637.27 Z" fill="#084594" stroke="#9ecae1" stroke-width="0.6"/>
</g>
</svg>