<?xml version="1.0"?>
<svg xmlns="http://www.w3.org/2000/svg" version="1.2" baseProfile="tiny" width="800" height="1027" viewBox="0 0 800 1027" stroke-linecap="round" stroke-linejoin="round">
<g id="ne_10m_admin_1_states_provinces_lakes">
<path d="M 306.35 554.49 306.02 555.51 308.21 557.82 308.04 559.32 303.72 559.22 304.98 563.51 307.17 564.4 307.39 566.93 311.02 571.04 309.45 574.07 310.02 576.09 315.73 580.41 317.76 583.11 317.66 585.22 315.41 585.46 312.33 584.8 309.27 585.39 306.91 590.19 307.02 593.18 306.23 595.31 307.62 597.27 307.67 600.13 304.69 601.27 302.8 603.98 301.13 604.52 297.02 608.6 298.13 610.48 297.46 613.1 299.16 613.4 297.49 615.93 296.77 619.88 294.95 619.92 295.3 622.16 293.55 626.18 286.01 629.66 283.11 631.37 281.84 624.95 277.96 623.84 274.59 624.78 274.58 622.27 272.32 622.84 271.05 621.27 266.34 624.47 262.99 623.6 259.81 625.59 260.06 621.13 255.73 619.98 252.51 621.33 249.33 619.41 247.3 620.59 247.09 616.25 246.15 613.16 246.05 610.62 244.83 609.21 246.09 606.1 243.43 601.68 239.69 600.76 238.5 597.49 238.87 591.84 236.86 589.74 236.29 585.2 238.14 578.48 240.15 576.18 240.07 575.02 242.51 573.65 241.6 575.44 244.26 579.93 250.13 585.02 255.34 582.96 256.61 583.52 260.45 583.57 262.69 582.22 263.29 579.51 265.64 578.41 270.15 578.7 270.7 579.67 275.3 581.5 277.39 579.57 282.2 579.63 284.81 575.32 284.1 573.01 287.07 570 286.48 566.78 287.84 564.81 289.65 564.91 290.62 561.12 289.94 556.91 290.71 554.41 294.53 552.47 297.55 552.97 303 552.89 306.35 554.49 Z M 359.41 677.59 363.39 675.58 364.13 680.41 363.25 682.04 358.35 686.67 355.94 686.75 353.38 688.52 350.88 688.26 352.89 681.57 355.87 679.09 358.03 680.44 359.41 677.59 Z M 329.11 684.8 328.25 687.07 323.73 687.2 322.46 685.09 318.61 682.84 315.1 682.17 316.39 679.49 320.16 679.09 323.67 680 326.48 681.76 329.11 684.8 Z M 348.5 669.37 346.5 672.34 343.16 673.55 340.78 673.46 338.07 674.86 334.9 674.03 334.36 675.18 330.97 675.25 328.39 674.05 322.15 673.9 323.15 670.96 326.18 669.19 331.81 669.82 335.96 672.26 339.63 670.88 342.26 672.55 344.03 672.02 345.08 670.27 348.5 669.37 Z M 355.87 668.8 351.32 672.11 351.1 670.5 354.84 668.36 355.87 668.8 Z M 365.67 668.71 365.49 669.95 359.68 670.99 360.17 668.08 365.37 668.19 365.67 668.71 Z M 243.62 603.07 241.31 604.86 241.32 601.89 243.62 603.07 Z M 497.58 616.88 496.9 631.39 495.69 651.34 494.41 654.73 495.32 656.52 493.62 676.91 492.7 676.38 490.21 672.59 485.96 667.71 481.21 668.54 480.03 667.59 477.54 669.4 477.05 667.98 477.24 667.64 477.76 667.44 477.67 667.11 477.8 665.99 478.52 665.46 479.55 662.64 476.51 659.25 475.74 656.94 477.87 655.69 475.23 651.96 473.96 647.2 472.42 644.33 469.75 641.07 466.3 639.01 462.71 638.36 455.99 634.59 451.64 633.76 449.64 633.93 446.79 632.18 443.75 628.94 441.79 629.27 439.94 628.29 439.09 626.45 437.03 625.79 434.23 630.27 431.27 630.6 430.01 626.86 431.7 625.68 428.8 621.55 427.01 620.07 424.34 619.78 426.1 617.58 429.21 617.96 430.41 618.81 432.94 615.76 438.38 616.85 440.46 614.04 439.77 613.35 435.16 613.22 430.26 614.15 429.17 613.05 427.42 613.83 425.23 612.31 424.14 608.62 421.3 606.54 416.67 606.32 418.92 602.14 418.72 600.44 423.96 599.17 425.73 597.22 428.49 596.08 430.71 596.2 434.33 597.79 436.24 599.55 441.01 599.55 441.46 601.72 443.4 605.34 441.74 608.41 442.42 614.83 443.49 616.15 446.14 616.53 446.35 620.18 448.52 623.61 452.46 623.91 456.19 620.43 456.71 618.49 459.24 616.51 460.47 613.36 463.35 613.63 467.22 612.02 466.61 609.37 471.99 606.57 479.02 609.39 480.11 610.6 488.62 614.77 490.59 614.29 497.58 616.88 Z M 478.31 662.48 479.16 662.66 478.45 665.13 477.57 666.08 477.63 667.4 476.92 667.56 475.58 668.26 473.66 670.2 467.09 670.3 468.33 667.38 470.86 663.11 472.72 661.69 477.33 660.93 478.31 662.48 Z M 464.22 609.17 462.53 610.19 459.16 610.43 455.03 608.6 458.89 608.14 464.22 609.17 Z M 460.51 602.97 458.59 604.17 456.66 603.85 455.57 600.62 456.26 599.3 459.05 602.72 460.51 602.97 Z M 257.18 655.02 260.31 656.49 262.72 656.28 264.44 657.38 265.59 662.38 269.8 664.75 271.72 663.94 273.94 664.14 275.73 663.18 279.27 665.14 278.02 670.48 278.72 672.41 276.55 672.66 273.01 671.58 268.68 669.26 264.3 670.83 261.88 669.86 257.27 669.07 256.24 670.1 246.68 667.74 243.22 665.64 237.91 664.06 231.19 663.86 229.39 665.02 224.27 663.59 222.13 662.05 214.95 661.27 213.81 660.34 215.3 657.32 213.23 657.32 210.69 655.79 207.38 656.14 209.4 652.97 210.47 648.9 211.9 647.15 215.42 648.57 219.46 648.97 222.44 648.03 223.3 649.59 226.05 649.99 228.28 651.26 229.32 650.44 231.83 652.74 232.23 655.28 234.77 656.04 239.72 655.95 246.34 657.23 248.17 655.96 249.66 652.46 252.27 652.46 253.01 654.63 257.18 655.02 Z M 276.37 656.69 274.52 658.69 272.16 659.63 268.74 659.61 265.64 658.96 267.2 656.48 275.41 656.23 276.37 656.69 Z M 379.84 664.18 376.33 666.08 371.39 665.45 372.65 663.74 375.73 663.9 378.25 663 379.84 664.18 Z M 419.68 659.57 418.98 663 415.34 666.74 414.26 665.52 415.91 661.83 418.34 659.05 419.68 659.57 Z M 442.74 653.56 441.15 656.18 439.13 655.4 440.15 649.88 442.55 652.32 442.74 653.56 Z M 445.23 649.7 443.87 651.66 441.35 649.02 442.18 645.61 443.46 643.16 445.51 645.21 445.23 649.7 Z M 385.4 624.91 385.36 626.16 381.18 628.49 376.65 626.12 375.31 622.85 378.88 621.21 381.31 621.12 384.3 622.42 385.4 624.91 Z M 414.93 625.86 414.21 628.52 411.21 626.44 407.73 624.81 407.03 623.64 404.23 623.31 403.68 624.84 400.7 623.78 398.83 622.43 395.52 624.83 392.49 620.88 393.24 619.24 398.85 619.29 400.91 620.17 403.59 618.58 408.43 620.49 410.87 620.36 412.71 621.7 413.32 624.29 414.93 625.86 Z M 296.58 669.24 297.4 670.32 295.15 674.11 291.04 675 291.55 670.81 294.54 668.57 296.58 669.24 Z M 317.23 672.34 311.06 674.69 309.79 673.7 306.34 675.35 305.12 675.1 301.74 676.48 299.07 676.92 297.13 676.08 297.65 672.09 301.09 670 304.01 670.45 305.8 673.35 309.82 672.29 306.19 669.97 306.95 667.53 308.73 667.75 309.63 669.74 311.3 669.08 315.69 669.56 317.23 672.34 Z M 335.48 619.73 334.9 617.43 333.05 617.01 328.5 620.11 329.68 624.09 329.97 627.29 329.13 629.15 329.25 635.09 327.86 640.4 328.72 642.13 328.16 643.72 324.81 644.27 322.58 645.28 320.34 642.3 322.65 635 323.23 629.53 321.92 627.16 322.33 625.13 320.73 624.51 317.66 625.79 316.5 621.4 316.88 617.33 319.78 615.41 319.79 613.21 321.65 610.73 321.58 604.09 323.33 600.72 324.52 599.68 326.24 592.22 325.47 591.06 327.62 586.02 329.87 584.83 331.74 585.66 334.91 580.46 338.7 581.5 340.36 583.08 342.76 582.74 347.08 583.46 350.32 585.33 351.27 584 359.27 585.14 362.24 583.3 364.09 580.33 366.52 579.13 367.47 576.98 369.17 577.49 368.93 579.76 367 583.9 365.11 585.44 363.83 587.95 362.36 589.2 357.67 590.01 353.53 589.88 351.4 588.42 346.07 588.29 341.81 588.94 341.25 588.27 334.41 588.97 332.67 587.98 330.19 588.47 328.19 591.21 327.11 594.81 327.85 598.94 329.08 601.07 331.81 603.08 332.53 605.75 335.76 605.99 339.33 600.81 341.06 601.51 344.25 601.43 345.1 599.94 350.84 599.92 350.13 598.53 353.53 598.14 355.26 599.88 354.65 602.14 352.04 601 350 601.41 346.3 606.65 344.77 607.77 341.61 608.73 340.7 610.49 337.72 610.59 341.67 613.99 343.12 617.74 345.46 619.89 345.99 621.78 344.32 625.7 347.9 628.77 347.95 630.92 349.81 631.6 349.67 633.38 347.21 633.45 343.16 634.59 342.06 637.69 339.73 637.5 338.02 635.85 338.63 631.92 339.44 630.59 337.26 629.5 333.69 625.54 335.22 622.35 335.48 619.73 Z M 348.44 638.25 347.25 639.75 346.27 642.98 344.15 642.43 345.3 639.59 345.47 636.6 348.21 635.73 348.44 638.25 Z M 351.3 641.1 348.45 645.26 346.42 643.7 348.17 640.94 349.7 634.17 352.04 635.44 350.69 636.74 350.02 639.83 351.3 641.1 Z M 411.54 610.3 409.38 611.95 406.3 610.52 408.52 609.03 410.79 608.49 411.54 610.3 Z M 417.18 602.11 416.52 605.32 414.64 604.17 414.12 601.71 416.02 601.13 417.18 602.11 Z M 419.21 595.07 416.39 596.08 411.21 595.28 411.64 594 415.36 592.91 418.04 593.67 419.21 595.07 Z M 355.59 604.55 354.12 605.99 351.39 606.81 349.92 606.2 350.68 603.81 353.14 603.54 355.59 604.55 Z M 370.25 609.3 367.75 610.82 366.46 610.38 362.79 611.37 362.7 608.27 364.72 607.93 370.25 609.3 Z M 393.35 607.59 392.56 608.7 388.33 608.86 387.33 606.64 389.16 605.15 393.35 607.59 Z M 391.39 599.94 387.97 600.43 386.64 597.59 388.9 595.88 389.11 598.68 391.39 599.94 Z M 389.62 594.81 390 590.32 388.84 588.98 388.12 583.14 387.39 581.53 388.45 579.26 388.72 576.71 390.91 576.03 392.47 578.69 391.39 582.21 393.84 581.84 393.73 580.2 395.92 578.62 398.03 578.38 397.97 583 394.85 584.56 394.86 586.71 397.9 587.88 398.07 589.81 392 588.42 391.47 593.04 392.68 596.71 389.62 594.81 Z M 397.52 569.96 396.66 573.41 394.87 574.05 393.6 571.97 395.7 568.94 397.52 569.96 Z M 231.8 557.12 231.23 558.88 229.41 558.77 228.4 555.86 229.84 554.31 231.8 557.12 Z M 204.33 595.07 201.17 595.38 201.04 592.95 204.33 595.07 Z M 166.38 569.31 168.49 572.98 170.46 572.93 171.28 571.66 174.53 573.99 175.22 576.52 178.51 577.71 181.32 580.08 182.36 583.82 184.93 586.07 187.58 586.18 189.21 588.8 191.55 587.93 194.4 590 195.06 592.99 192.64 593.97 191.65 599.59 193.86 601.58 198.43 602.78 199.77 602.4 200.33 607.01 201.94 611.62 203.65 612.07 203.67 613.96 209.68 615.04 210.92 619.29 212.71 620.28 213.01 623.02 211.88 623.94 210.89 626.77 211.92 628.26 210.63 631.99 211.3 634.12 209.72 646.67 208.26 646.49 206.04 643.32 204.7 646.27 200.44 643.55 197.72 644.96 193.2 638.6 190.86 637.81 189 635.49 186.99 634.34 182.22 629.71 181.61 626.5 176.97 622.88 174.59 618.16 172.82 616.75 170.7 612.64 171.17 611.68 168.7 606.19 167.38 604.55 166.58 600.41 162.64 595.6 160.99 591.97 157.15 590.35 156.73 587.14 153.69 578.9 154.4 577.93 152.03 575.01 144.78 570.62 144.22 566.43 142.73 565.86 141.42 563.22 137.1 558.29 134.39 557.58 132.34 554.8 130.83 553.88 125.87 548.33 123.73 541.7 125.44 540.74 129.36 542.01 131.39 544.14 135.68 544.74 138.29 544.22 140.73 545.31 142.56 544.41 146.05 547.76 147.41 550.85 149.21 552.04 149.57 555.23 152.65 556.76 155.02 559 161.63 563.53 163.56 565.67 163.93 567.67 166.38 569.31 Z M 188.97 585.52 184.97 585.68 184.5 583.9 186.63 583.55 188.97 585.52 Z M 177.96 573.89 177.97 576.47 175.89 576.59 175.68 573.82 177.96 573.89 Z M 158.11 607.97 156.66 609.48 154.93 608.38 152.63 603.94 153.18 601.77 155.01 601.31 158.11 607.97 Z M 147.23 583.69 146.89 586.95 145.44 587.59 144.68 585.28 142.84 584.09 141.53 581.09 143.56 579.25 145.29 581.93 147.23 583.69 Z M 135.18 570.59 133.79 570.97 131.77 569.08 128.73 567.24 130.21 565.94 135.18 570.59 Z M 296.24 627.19 296.21 628.67 294.58 630.13 293.9 626.57 296.03 624.31 296.24 627.19 Z M 288.34 669.37 288.08 671.33 285.09 673.3 282.6 671.02 280.3 670.38 279.67 667.89 282.21 668.49 285.2 667.25 288.34 669.37 Z M 231.3 619.16 230.35 621.83 226.79 622.39 225.45 620.66 226.31 616.52 229.52 616.82 231.3 619.16 Z M 218.96 616.51 217.59 620.03 216.22 620.39 212.52 618.91 211.13 612.92 207.15 612.58 205.96 610.74 207.78 609.69 208.52 607.3 211.92 606.62 214.28 610.22 214.91 614.58 215.61 615.61 218.96 616.51 Z" fill-rule="evenodd" fill="lightgrey" stroke="white" stroke-width="0.5"/>
<path d="M 306.35 554.49 303 552.89 297.55 552.97 294.53 552.47 290.71 554.41 289.94 556.91 290.62 561.12 289.65 564.91 287.84 564.81 286.48 566.78 287.07 570 284.1 573.01 284.81 575.32 282.2 579.63 277.39 579.57 275.3 581.5 270.7 579.67 270.15 578.7 265.64 578.41 263.29 579.51 262.69 582.22 260.45 583.57 256.61 583.52 255.34 582.96 250.13 585.02 244.26 579.93 241.6 575.44 242.51 573.65 242.62 575 244.9 577.26 248.47 577.04 253.41 579.01 256.46 571.28 256.98 568.15 258.8 566.64 261.59 566.25 269.33 563.86 271.69 560.73 272.86 558.24 275.23 555.95 276.83 553.44 277.12 550.42 279.18 551.52 282.14 555.77 283.57 554.75 284.04 552.67 283.19 549.15 284.99 547.76 285.41 548.39 286.32 547.58 288.05 547.64 289.59 546.12 287.87 543.79 289.32 541.75 291.73 541.57 293.24 538.97 294.27 535.5 296.58 532.94 297.61 530.89 301.51 528.25 303.06 531.71 305.82 532.7 306.73 533.91 305.66 535.68 307.08 538.38 309.12 536.95 310.1 538.77 312.46 539.39 317.2 542.79 319.1 542.65 319.72 544.88 315.08 547.25 312.39 546.38 310.67 547.82 312.38 549.95 314.6 551.18 314.21 552.64 308.96 553.59 307.08 552.04 306.35 554.49 Z M 163.91 531.06 165.52 532.69 168.98 533.68 171.3 535.24 171.36 538.25 172.86 539.48 175.13 538.38 177.37 539.91 179.32 536.64 179.35 535.13 181.36 535.75 182.99 538.46 188.26 543.22 191.17 548.63 191.72 552.86 190.66 558.2 191.91 560.47 191.69 565.55 194.49 568.67 196.05 571.29 199.04 579.53 198.44 580.46 195.33 579.25 192.63 580.98 191.47 578.68 186.83 575.71 184.21 573.57 181.73 572.43 178.35 569.11 176.36 568.32 174.18 566.01 174.2 562.66 171.99 559.45 169.31 557.18 169.68 555.17 167.88 553.02 168.35 551.05 167.78 548.08 165.96 545.96 166.4 543.94 165.55 540.56 165.44 537.39 163.45 533.43 163.91 531.06 Z" fill-rule="evenodd" fill="lightgrey" stroke="white" stroke-width="0.5"/>
<path d="M 1 338.47 4.5 339.62 10.18 339.65 11.84 339.02 16.08 340.69 17.11 343.46 18.41 343.59 22.72 346.15 24.97 345.07 27.22 347.67 28.58 346.91 30.81 347.3 34.54 349.12 36.84 347.6 37.43 348.96 39.48 349.69 45.22 348.76 45.46 346.08 43.25 342.77 43 335.78 46.4 333.52 48.83 335.94 48.51 338.69 50.13 340.81 49.16 342.33 51.36 344.53 54.52 345.07 58.59 346.48 62.67 344.72 64.5 345.75 69.27 345.55 71.34 344.96 73.25 345.54 76.02 344.3 74.14 339.36 71 338.68 70.66 335.85 72.76 336.99 75.44 335.74 78.12 335.9 78.22 333.52 81.73 330.51 83.26 328.29 86.46 327.99 89.01 325.88 88.8 324.36 91.13 322.32 92.62 323.73 96.38 324.72 99.82 322.12 102.87 321.86 106.19 325.32 107.93 327.94 106.38 330.07 112.76 331.11 114.71 332.49 114.6 335.42 112.41 338.01 113.12 339.95 107.41 341.35 102.6 346.57 100.61 347.37 100.7 350.66 101.89 352.49 101.32 355.37 98.74 358.54 98.54 359.91 100.16 361.94 97.98 368.48 97.69 371.45 96.28 372.17 93.07 371.32 91.91 371.77 92.48 379.44 90.63 382.73 92.06 387.58 89.85 389.64 87.69 390.07 86.08 383.44 84.87 381.55 84.15 377.96 81.87 373.88 79.29 378.12 79.96 379.81 78.05 380.8 76.7 378.34 74.01 374.98 74.18 372.25 75.07 370.48 79.09 369.78 80.52 367.66 80.94 364.23 82.44 362.61 78.45 360.49 74.32 360.94 72.34 360.31 69.16 360.86 65.52 360.79 60.65 358.72 60.04 353.8 57.99 352.44 56.1 352.98 54.13 351.71 53.01 349.43 48.28 348.76 46.47 351.65 46.15 353.8 50.42 357.56 52.34 357.54 53.87 360.61 50.16 360.58 47.72 365.45 48.88 366.83 51.81 368.49 53.94 368.75 53.28 374.63 54.96 376.31 54.93 377.93 57.22 378.94 56.62 380.96 59.45 388.66 59.19 390.67 60.28 393.39 56.5 392.53 53.7 393.94 53.03 391.66 51.13 391.37 49.23 393.04 45.34 393.99 43.36 396.07 43.07 398.33 44.74 401.6 42.93 404.05 43 405.67 41.35 406.62 39.86 409.14 34.35 411.17 33.42 409.21 31.67 410.75 31.65 413.16 29.47 415.52 26.54 420.9 24.17 424.27 20.7 426.36 18.18 430.53 12.45 434.1 11.22 435.72 11.75 439.88 7.63 442.25 4 441.84 3.06 445.36 1 445.12 1 338.47 Z M 101.6 470.29 100.86 472.79 101.74 477.35 100.14 482.5 98.59 483.12 99.66 478.8 99.89 469.73 101.6 470.29 Z" fill-rule="evenodd" fill="lightgrey" stroke="white" stroke-width="0.5"/>
<path d="M 50.13 340.81 48.51 338.69 48.83 335.94 46.4 333.52 43 335.78 40.62 335.36 39.82 336.29 35.49 336.1 34.29 335.07 30.17 333.64 29.69 335.32 27.66 334.47 26.13 335.55 24.57 333.03 21.03 331.75 18.23 331.55 18.41 329.11 14.52 328.92 10.46 326.19 8.71 322.99 7.42 322.57 4.26 323.5 1 319.85 1 157.7 4.6 160.35 7.89 164.1 7.87 166.49 9.77 169.03 8.74 171.47 9.34 173.81 12.18 176.6 14.04 176.49 18.45 177.74 20.91 177.59 24.63 178.31 26.49 177.94 32.49 178.73 36.97 181.37 46.41 185.05 48.79 184.76 49.56 187.31 51.02 187.56 57.08 194.52 61.07 197.08 62.26 198.84 68.31 198.41 86.11 200.45 89.66 199.42 99.18 200.76 102.34 200.89 106.68 203.91 115.16 205.56 121.03 207.83 126.34 206.78 127.19 208.65 131.34 209.29 132.09 207.94 141.37 202.98 151.08 201.45 155.92 201.96 160.79 201.5 161.69 200.59 166.15 198.58 167.62 193.85 171.4 191.71 172.69 189.31 167.64 185.65 165.71 183.58 165.47 178.59 166.87 177.49 170.18 177.81 172.15 179.11 180.23 180.65 182.52 178.82 183.87 176.46 183.79 174.79 186.8 174.89 191.53 174.25 194.16 171 193.34 170.05 194.1 166.43 195.35 165.73 198.95 166.06 199.7 163.87 201.82 163.83 203.79 162.76 214.88 163.87 214.73 161.04 211.95 158.75 206.1 155.52 204.78 154.23 201.99 153.37 199.22 151.48 196.3 150.93 193.42 151.38 192.13 154.29 187.62 152.33 183.3 152.41 181.33 153.83 178.03 151.78 176.67 150.08 177.96 148.72 176.5 146.42 175.54 134.84 179.05 136.18 184.94 137.61 186.93 136.19 188.79 133.6 191.62 133.38 192.58 132.43 189.38 127.92 189.62 123.61 188.58 119.06 190.31 114.44 187.76 112.42 187.18 110.69 184.53 109.86 182.17 110.18 181.99 107.84 183.37 104.19 185.67 104.22 192.05 102.33 195.76 102.49 200.35 101.7 205.85 103.3 210.81 105.34 213.23 104.84 218.96 106.82 223.18 109.33 230.12 114.13 230.68 115.64 236.9 120.63 238.9 121.61 240.16 123.79 244.7 126.57 247.73 130.33 250.16 131.29 252.19 134.85 255.91 136.89 258.09 137.36 261.74 136.75 266.35 139.05 268.92 138.53 274.17 141.85 277.65 143.42 280.64 143.36 281.1 145.47 285.32 148.65 285.22 150.13 290.43 154.04 292.9 153.5 294.49 154.16 301.06 153.81 301.03 152.35 303.23 150.06 305.44 150.38 306.32 148.98 310.22 147.75 313.22 148.83 313.79 151.09 317.19 153.78 316.85 156.31 315.53 157.86 318.17 163.57 318.03 164.88 319.74 166.88 318.88 167.94 320.12 172.06 319.07 174.34 320.71 177.17 320.1 178.06 311.71 176.16 309.5 176.41 309.28 178.66 306.47 179.87 308.28 181.17 313.3 186.88 315.58 191.73 317.21 193.01 318.03 197.85 316.45 197.67 314.32 198.89 316.35 200.76 313.06 198.81 312.16 197.37 308.99 196.51 310.7 201.56 308.01 201.6 307.94 204.24 306.98 205.36 302.18 205.3 300.74 205.92 304.84 209.41 300.68 210.81 297.87 210.22 293.49 207.42 291.87 208.65 292.18 210.77 291.13 215.71 289.56 215.8 288.16 217.68 285.64 219.01 282.83 223 281.31 225.64 278.72 225.22 276.08 226.03 271.19 229.31 269.46 232.75 267.53 233.01 267 234.83 264.86 235.58 264.42 233.63 267.2 232.27 263.52 228.41 262.58 226.21 264.04 224.65 265.4 219.3 262.34 217.07 256.27 215.3 254.02 216.29 254.31 217.57 252.74 220.91 252.86 222.12 247.49 224.91 246.81 226.51 247.81 229.11 246.7 231.34 243.84 231.6 242.33 232.8 239.26 231.07 237.33 232.23 238.23 236.64 240.35 238.79 244.14 240.99 247.91 241.64 249.81 240.87 254.46 244.39 253.09 245.85 254.4 248.89 258.61 250.36 260.99 250.07 260.79 248.31 262.69 246.76 262.96 245.35 265.54 243.8 269.13 245.02 273.73 247.56 277.57 247.02 281.27 247.77 282.31 249.54 281.75 253.1 278.95 251.61 276.44 253.61 272.61 255.25 271.04 257.8 272.07 259.35 269.85 260.3 267.95 263.4 266.21 264.51 264.84 269.45 265.78 271.88 266.91 271.92 270.02 274.04 275.64 276.24 278.44 280.41 283.2 285.86 285.91 289.79 286.67 291.76 291.22 294.02 292.56 296.52 296.04 298.01 295.67 300.13 292.35 298.65 291.07 299.45 293.63 302.15 297.51 304.21 300.65 307.59 296.7 308.95 294.02 311.02 293.08 313.89 294.5 314.47 296.04 313.03 297.82 313.04 301.16 316.03 304.46 317.08 304.21 319.41 305.55 323.33 303.17 323.26 304.53 326.88 303.74 328.43 305.77 331.36 302.22 331.43 299.87 337.95 299.64 341.9 296.26 345.6 293.41 345.62 296.07 348.77 295.01 352.49 295.76 353.94 295.81 357.79 293.8 356.91 292.82 358.42 290.89 363.62 289.03 365.58 285.97 367.28 286 371.03 283.35 372.15 283.01 373.36 280.36 375.42 278.66 375.79 278.36 377.89 275.23 380.97 271.61 382.9 270.22 381.61 268.33 383.45 265.71 382.51 264.45 384.31 262.94 382.56 259.46 384.73 258.33 384.98 256.92 385.68 253.59 380.83 252.04 381.73 254.4 384.55 254.5 387.81 249.81 391.01 245.02 392.57 242.91 392.04 240.39 394.2 235.65 394.67 233.88 395.36 229.46 399.22 229.67 400.48 233.25 403.9 232.45 405.54 230.35 406.03 226.72 402.51 225.59 399.76 226.11 395.8 223.69 394.55 221.28 395.24 220.36 393.52 214.79 393.02 211.41 394.61 209.91 393.19 206.1 393.56 201.68 390.16 200.49 389.8 198.28 385.91 199.52 383.44 198.7 381.85 195.92 381.98 193.82 380.81 192 381.4 187.35 377.7 183.47 379.84 183.3 382.12 180.45 383.53 179.23 382.25 176.85 384.55 174.76 382.49 171.8 383.6 169.23 385.36 167.35 383.67 164.92 384.18 163.19 386.19 159.42 385.74 158.65 387.75 161.13 391.65 161.62 396.28 158.23 397.48 156.77 393.99 156.15 392.08 154.34 392.84 152.6 394.76 150.16 394.25 146.88 392.43 146.35 389.44 140.04 388.64 141.04 385.29 140.31 383.22 141.78 381.1 140.06 379.53 137.89 379.69 136.28 377.89 135.39 375.06 133.55 373.28 131.76 370.29 129.2 370.31 127.04 371.2 125.43 370.25 123.06 364.53 123.93 363.75 124.31 359.98 127.94 356.94 128.55 354.84 130.22 354.07 128.95 345.83 127.53 342.1 126.75 338.39 124.35 337.49 121.41 334.74 121.14 333.19 117.08 329.99 115.64 329.61 114.71 332.49 112.76 331.11 106.38 330.07 107.93 327.94 106.19 325.32 102.87 321.86 99.82 322.12 96.38 324.72 92.62 323.73 91.13 322.32 88.8 324.36 89.01 325.88 86.46 327.99 83.26 328.29 81.73 330.51 78.22 333.52 78.12 335.9 75.44 335.74 72.76 336.99 70.66 335.85 70.41 334.95 67.39 333.82 66.2 334.76 62.75 333.69 61.7 332.34 58.94 331.4 55.88 331.76 53.83 333.25 50.83 338.11 50.13 340.81 Z M 238.27 411.24 235.99 414.02 235.09 420.49 232.7 421.8 232.51 423.17 230.05 423.12 227.74 424.11 224.11 423.39 221.45 422.11 219.81 415.44 224.31 409.06 227.44 408.22 229.87 408.71 232.64 407.57 234.38 408.5 237.19 408.36 238.27 411.24 Z" fill-rule="evenodd" fill="lightgrey" stroke="white" stroke-width="0.5"/>
<path d="M 319.84 236.53 324.04 240.94 329.42 245.22 333.2 248.87 336.49 253.57 338.24 258.82 340.23 260.02 341.66 265.16 341.12 268.46 339.81 269.49 336.72 268.44 336 270 334.07 270.89 332.73 269.91 329.46 271.2 325.1 274.7 322.79 274.54 320.69 273.19 320.96 271.33 318.92 267.42 319.34 261.92 316.63 259.26 316.11 257.3 313.8 254.38 313.17 252.69 313.33 248.65 311.71 247.42 309.85 244.52 310.56 243.85 311.39 239.93 312.14 239.44 318.84 239.47 319.84 236.53 Z M 330.34 283.93 330.15 285.48 326.27 286.5 325.48 284.06 328.83 283.14 330.34 283.93 Z" fill-rule="evenodd" fill="lightgrey" stroke="white" stroke-width="0.5"/>
<path d="M 282.83 223 285.64 219.01 288.16 217.68 289.56 215.8 291.13 215.71 292.18 210.77 291.87 208.65 293.49 207.42 297.87 210.22 300.68 210.81 304.84 209.41 300.74 205.92 302.18 205.3 306.98 205.36 307.94 204.24 308.01 201.6 310.7 201.56 308.99 196.51 312.16 197.37 313.06 198.81 316.35 200.76 318.88 202.9 317.01 202.5 315.39 204.88 314.83 208.8 317.12 211.37 319.22 215.92 316.25 217.71 316.31 219.57 313.9 220.97 312.67 223.6 310.39 223.49 310.14 224.89 308.19 226.22 309.32 227.62 309.47 230.87 313.09 232.08 316.11 234.38 319.84 236.53 318.84 239.47 312.14 239.44 311.39 239.93 310.56 243.85 308.23 243.26 302.69 244.44 297.67 243.13 295.17 241.37 294.62 234.88 293.55 229.42 291.66 227.65 283.35 224.7 282.83 223 Z" fill="lightgrey" stroke="white" stroke-width="0.5"/>
<path d="M 70.66 335.85 71 338.68 74.14 339.36 76.02 344.3 73.25 345.54 71.34 344.96 69.27 345.55 64.5 345.75 62.67 344.72 58.59 346.48 54.52 345.07 51.36 344.53 49.16 342.33 50.13 340.81 50.83 338.11 53.83 333.25 55.88 331.76 58.94 331.4 61.7 332.34 62.75 333.69 66.2 334.76 67.39 333.82 70.41 334.95 70.66 335.85 Z" fill="lightgrey" stroke="white" stroke-width="0.5"/>
<path d="M 175.54 134.84 176.5 146.42 177.96 148.72 176.67 150.08 178.03 151.78 181.33 153.83 183.3 152.41 187.62 152.33 192.13 154.29 193.42 151.38 196.3 150.93 199.22 151.48 201.99 153.37 204.78 154.23 206.1 155.52 211.95 158.75 214.73 161.04 214.88 163.87 203.79 162.76 201.82 163.83 199.7 163.87 198.95 166.06 195.35 165.73 194.1 166.43 193.34 170.05 194.16 171 191.53 174.25 186.8 174.89 183.79 174.79 183.87 176.46 182.52 178.82 180.23 180.65 172.15 179.11 170.18 177.81 166.87 177.49 165.47 178.59 165.71 183.58 167.64 185.65 172.69 189.31 171.4 191.71 167.62 193.85 166.15 198.58 161.69 200.59 160.79 201.5 155.92 201.96 151.08 201.45 141.37 202.98 132.09 207.94 131.34 209.29 127.19 208.65 126.34 206.78 121.03 207.83 115.16 205.56 106.68 203.91 102.34 200.89 99.18 200.76 89.66 199.42 86.11 200.45 68.31 198.41 62.26 198.84 61.07 197.08 57.08 194.52 51.02 187.56 49.56 187.31 48.79 184.76 46.41 185.05 36.97 181.37 32.49 178.73 26.49 177.94 24.63 178.31 20.91 177.59 18.45 177.74 14.04 176.49 12.18 176.6 9.34 173.81 8.74 171.47 9.77 169.03 7.87 166.49 7.89 164.1 4.6 160.35 1 157.7 1 127.09 3.09 126.33 4.17 127.7 13.09 128.22 15.34 131.04 18.42 133.12 20.38 132.85 25.06 134.22 27.21 133.13 31.4 134.28 35.62 134.27 38.75 135.71 42.8 132.69 41.89 128.64 39.37 127.54 36.05 124.34 35.3 121.68 36.07 117.98 38.06 116.85 38.92 114.97 44.59 116.47 47.69 117.86 51.24 117.9 58.26 120.24 61.35 120.4 65.08 121.48 66.02 123.48 70.18 128.4 72.68 129.56 81.3 132.07 84.9 131.94 86.11 130.58 91.69 129.01 96.72 129.69 99.14 130.67 101.85 130.34 107.63 133.29 113.07 133.85 114.34 136.21 120.48 139.27 125.74 139.17 133.04 140.75 136.13 140.9 138.37 140.35 140.18 138.94 144.84 138.52 147.05 137.47 149.39 137.79 152.45 133.08 155.98 130.79 159.51 131.15 165.81 134.19 168.57 134.29 171.14 133.14 175.54 134.84 Z" fill="lightgrey" stroke="white" stroke-width="0.5"/>
<path d="M 316.35 200.76 314.32 198.89 316.45 197.67 318.03 197.85 317.21 193.01 315.58 191.73 313.3 186.88 308.28 181.17 306.47 179.87 309.28 178.66 309.5 176.41 311.71 176.16 320.1 178.06 320.71 177.17 319.07 174.34 320.12 172.06 318.88 167.94 319.74 166.88 318.03 164.88 318.17 163.57 315.53 157.86 316.85 156.31 317.19 153.78 313.79 151.09 313.22 148.83 310.22 147.75 306.32 148.98 305.44 150.38 303.23 150.06 301.03 152.35 301.06 153.81 294.49 154.16 292.9 153.5 290.43 154.04 285.22 150.13 285.32 148.65 281.1 145.47 280.64 143.36 277.65 143.42 274.17 141.85 268.92 138.53 266.35 139.05 261.74 136.75 258.09 137.36 255.91 136.89 252.19 134.85 250.16 131.29 247.73 130.33 244.7 126.57 240.16 123.79 238.9 121.61 236.9 120.63 230.68 115.64 230.12 114.13 223.18 109.33 218.96 106.82 213.23 104.84 210.81 105.34 205.85 103.3 200.35 101.7 195.76 102.49 192.05 102.33 185.67 104.22 183.37 104.19 181.99 107.84 182.17 110.18 184.53 109.86 187.18 110.69 187.76 112.42 190.31 114.44 188.58 119.06 189.62 123.61 189.38 127.92 192.58 132.43 191.62 133.38 188.79 133.6 186.93 136.19 184.94 137.61 179.05 136.18 175.54 134.84 171.14 133.14 168.57 134.29 165.81 134.19 159.51 131.15 155.98 130.79 152.45 133.08 149.39 137.79 147.05 137.47 144.84 138.52 140.18 138.94 138.37 140.35 136.13 140.9 133.04 140.75 125.74 139.17 120.48 139.27 114.34 136.21 113.07 133.85 107.63 133.29 101.85 130.34 99.14 130.67 96.72 129.69 91.69 129.01 86.11 130.58 84.9 131.94 81.3 132.07 72.68 129.56 70.18 128.4 66.02 123.48 65.08 121.48 61.35 120.4 58.26 120.24 51.24 117.9 47.69 117.86 44.59 116.47 38.92 114.97 38.06 116.85 36.07 117.98 35.3 121.68 36.05 124.34 39.37 127.54 41.89 128.64 42.8 132.69 38.75 135.71 35.62 134.27 31.4 134.28 27.21 133.13 25.06 134.22 20.38 132.85 18.42 133.12 15.34 131.04 13.09 128.22 4.17 127.7 3.09 126.33 1 127.09 1 1 458.2 1 462.84 4.2 462.46 6.18 460.19 7.05 456.54 7.52 453.04 7.12 448.75 6.05 447.8 6.57 444.24 5.81 443.48 6.63 448.37 8.22 450.77 6.63 454.52 9.45 460.34 11.17 460.45 10 468.13 13.63 472.95 16.89 473.24 17.73 480.36 19.5 481.77 20.9 487.71 23.55 487.31 26.37 479.76 24.92 474.51 24.58 472.17 22.88 470.86 23.65 470.95 26.77 468.24 27.82 465.1 30.96 462.04 31.98 460.07 31.46 460.93 34.44 459.31 37.6 459.55 38.98 455.53 43.01 458.56 46.48 454.69 45.69 449.51 42.82 444.24 41.4 437.27 41.37 432.91 43.31 433.03 47.5 432.04 47.65 427.62 43.16 425.25 42.36 423.93 47.97 418.6 45.25 418.17 46.41 414.87 45.69 414.37 47.76 417.69 50.99 418.14 53.7 420.44 54.6 419.5 57.61 422.31 62.46 424.06 63.81 428.31 65.05 428.07 63.46 433.1 64.8 435.57 67.83 434.96 68.98 438.08 71.35 440.33 73.84 443.5 74.01 449.79 78.87 447.3 79.95 443.75 78.11 442.03 79.32 444.44 83.84 446.4 85.86 450.01 88.44 454.01 90.44 454.31 93.32 451.56 93.58 449.49 92.64 447.25 93.19 445.79 96.33 448.23 100.15 450.6 101.64 451.03 104.39 448.26 105.98 447.64 108.52 451.79 112.82 452.76 115.77 452.81 118.39 451.52 120.04 451.64 122.24 450.66 125.36 448.19 122.62 446.12 121.78 437.81 113.57 429.47 107.22 420.28 99.05 413.96 94.13 405.18 86.65 399.33 80.1 395.98 75.38 395.07 73.24 396.5 70.8 395.44 68.13 392.79 66.13 394.41 63.62 397.84 62.87 399.51 59.66 399.64 55.66 398.04 53.47 399.65 49.53 399.82 45.62 400.84 44.47 398.97 42.67 401.94 40.74 403.07 37.75 403.02 34.86 400.25 34.06 399.66 32.05 394.19 27.23 396.02 25.58 392.9 23.82 391.3 23.67 386.07 25.19 390.26 28.86 391.84 31.18 389.61 32.83 389.64 34.65 387.93 39.33 386.06 40.8 383.45 39.24 383.11 37.46 379.55 36.88 377.42 35.59 375.59 31.37 373.39 29.94 372.78 31.87 370.77 32.12 367.56 30.3 361.2 30.86 360.96 31.63 356.91 31.14 354.27 33.6 355.79 35.02 355.36 38.19 356.35 40.04 354.15 43.09 353.77 45.88 356.6 50.34 358.51 50.96 359.99 50.05 362.53 50.45 365.58 51.75 363.97 53.43 362.13 52.82 360.71 54.22 355.39 52.68 354.35 55.38 349.98 54.28 349.03 55.73 344.86 55.89 341.39 54.06 343.41 52.12 338.45 49.59 336.26 49.75 335.76 51 331.99 49.47 325.04 48.23 324.59 50.21 321.98 52.44 320.63 51.44 317.39 51.35 316.36 52.65 313.71 51.85 309.65 51.42 306.9 53.45 304.63 51.28 298.51 51.53 290.62 51.25 289.09 51.96 286.59 51.66 282.7 53.61 282.6 57.92 280.11 59.93 280.17 61.57 281.95 64.53 279.84 65.88 280.27 67.64 278.05 69.45 276.85 72.47 277.13 74.11 276.54 79.43 275.88 81.17 273.05 84.89 272.43 87.61 270.17 90.05 271.8 91.56 276.27 92.87 279.3 92.44 283.85 92.69 289.38 99.86 291.61 99.18 289.85 95.09 291.76 95.45 291.01 97.44 294.92 98.36 295.08 102 298.66 101.5 299.98 100.01 301.33 101.97 303.01 101.49 301.46 98.09 298.67 95.1 303.94 96.15 306.83 95.98 310.98 97.37 312.36 98.83 321.49 103.05 324.63 103.93 326.26 105.34 325.88 107.68 327.35 107.96 329.58 110.37 329.44 111.51 333.22 113.52 335.15 118.33 335.5 122.17 338.72 128.41 342.06 131.91 343.69 132.74 343.32 134.49 346.33 137.05 347.13 140.06 349.13 142.27 349.07 143.44 351.09 147.14 349.11 152.04 349.35 157.44 348.79 160.31 350.36 167.16 349.9 171.08 348.6 174.89 347.3 176.43 346.39 180.17 346.5 183.05 345.22 183.72 344.88 185.83 345.56 188.45 343.99 192.29 342.45 194.39 340.4 195.75 339.54 197.54 334.03 199.29 332.92 198.05 327.43 197.54 326.09 194.88 321.39 193.6 321.18 196.87 319.97 199.51 318.78 199.64 318.88 202.9 316.35 200.76 Z M 81.33 120.03 86.26 118.9 89.05 117.81 89.27 112.1 91.38 112.64 91.92 111.17 94.82 109.25 96.43 109.18 98.06 107.32 97.54 105.73 98.71 104.16 100.78 103.44 99.18 101.61 100.19 97.5 96.81 92.33 95.91 88.65 93.04 83.14 89.75 82.57 88.83 84.27 91.03 87.49 92.08 98.75 90.03 100.9 90.38 102.85 88.15 104.65 88.7 106.75 87.3 109.9 85.14 111.11 84.58 114.33 83.2 116.08 79.79 117.36 77.03 117.41 75.19 118.88 81.33 120.03 Z M 288.14 88.62 289.72 90.7 288.51 92.08 285.72 90.18 284.14 90.02 283.89 88.09 286.8 87.85 288.14 88.62 Z M 324.76 95.27 325.16 94.18 329.3 96.68 331.09 99.51 339.06 105.32 342.89 109.27 344.08 112.31 347.06 115.78 349.96 117.66 355.41 122.22 364.01 130.5 367.64 133.15 372.6 137.44 375.01 139.96 368.75 139.08 366.83 141.1 368.1 142.95 371 151 372.64 153.28 376.38 156.3 379.39 157.9 384.05 162.82 386.1 162.26 389.47 165.83 388.96 167.2 386.22 164.13 379.37 163.52 381.34 168.95 379.35 168.9 374.97 163.78 373.77 159.7 369.49 154.67 368.78 151.48 366.08 148.32 361.01 144.23 359.69 140.43 356.96 136.14 352.17 130.18 350.12 128.55 348.06 125.29 347.72 123.69 343.47 120.17 337.32 116.51 333.71 112.1 333.4 110.26 330.67 106.47 327.39 103.68 328.86 102.07 330.6 103.43 331.39 100.52 328.77 98.32 325.55 96.59 324.76 95.27 Z M 422.6 183.47 422.15 184.88 419.6 186.97 419.54 182.77 422.6 183.47 Z M 433.26 174.51 430.44 176.51 429.74 178.62 426.1 179.18 427.43 175.85 430.63 175.79 431.42 173.77 433.26 174.51 Z M 439.16 167.32 439.85 170.15 438.08 172.75 436.84 170.48 439.16 167.32 Z M 448.47 127.58 449.8 131 446.7 132.77 445.61 130.05 447.29 129.49 448.47 127.58 Z M 485.63 91.25 482.75 90.53 478.8 88.6 479.07 87.8 485.63 91.25 Z M 431.45 54.86 428.23 58.43 426.07 54.42 427.84 52.63 431.45 54.86 Z" fill-rule="evenodd" fill="lightgrey" stroke="white" stroke-width="0.5"/>
<path d="M 163.19 386.19 164.92 384.18 167.35 383.67 169.23 385.36 171.8 383.6 174.76 382.49 176.85 384.55 179.23 382.25 180.45 383.53 183.3 382.12 183.47 379.84 187.35 377.7 192 381.4 193.82 380.81 195.92 381.98 198.7 381.85 199.52 383.44 198.28 385.91 200.49 389.8 201.68 390.16 206.1 393.56 209.91 393.19 211.41 394.61 210.03 394.23 205.61 399.71 202.35 399.66 201.46 403.47 201.91 406.18 200.55 406.43 198.99 408.46 197.44 409 196.74 412.01 196.86 416.54 196.46 418.54 200.92 424.1 203.8 425.9 204.66 429.1 207.59 432.91 210.73 435.19 211.81 436.85 216.77 440.96 217.4 442.34 220.25 443.23 225.69 450.35 227.27 451.36 227.9 453.92 229.6 456.95 232.49 465.91 232.3 469.29 234.67 473.71 232.83 476.18 233.43 482.62 233.98 484.58 232.43 486.59 232.49 488.09 229.07 489.72 227.37 491.8 225.47 492.13 223.81 493.98 219.51 496.51 215.19 496.97 213.53 502.79 213.93 504.16 211.01 504.83 211.09 506.42 205.94 508.63 202.7 513.2 200.75 513.83 200.16 510.41 199.95 504.69 200.21 501.97 201.69 500.63 196.22 496.73 199.41 495.69 200.96 493.71 206.31 491.23 207.33 492.85 209.76 493.36 208.77 490.51 206.81 488.56 206.69 486.32 207.81 484.26 210.1 485.14 210.71 482.42 213.2 482.41 216.57 479.59 219.44 478.97 219.6 476.55 218.35 472.71 218.93 467.98 216.07 462.58 217.03 457.18 217.46 451.85 214.87 449.88 212.86 447.46 214.49 445.82 211.87 442.88 207.87 440.88 206.63 438.92 206.23 436.25 198.87 429.87 196.15 425.6 193.32 423.82 192.44 420.33 189.17 419.46 181.59 414.53 183.13 413.08 183.21 411.2 186.29 411.98 188.42 410.25 189.29 408.23 188.69 406.7 186.63 406.35 185.25 403.37 185.54 402.22 182.78 400.2 180.76 399.47 178.69 400.61 178.06 402.24 175.92 400.74 173.37 400.3 170.82 396.27 170.78 392.29 168.52 393.02 167.69 390.77 163.19 386.19 Z" fill="lightgrey" stroke="white" stroke-width="0.5"/>
<path d="M 217.03 457.18 216.07 462.58 218.93 467.98 218.35 472.71 219.6 476.55 219.44 478.97 216.57 479.59 213.2 482.41 210.71 482.42 210.1 485.14 207.81 484.26 206.69 486.32 206.81 488.56 208.77 490.51 209.76 493.36 207.33 492.85 206.31 491.23 200.96 493.71 199.41 495.69 196.22 496.73 194.79 495.61 191.25 495.19 189.45 495.98 189.34 491.1 187.36 492.44 184.84 491.98 184.58 487.14 182.8 485.41 182.7 484.31 180.65 480.86 180.93 478.3 179.07 476.32 178.03 472.86 176.6 470.37 176.35 467.7 177.81 467.68 181.68 460.96 185.3 459.79 187.97 460.52 190.95 459.98 192.73 460.39 195.14 459.63 198.58 460.49 200.16 462.71 201.59 462.17 204.58 464.27 206.63 463.02 204.93 460.62 208.42 459.38 209.03 458.24 211.59 460.71 212.83 460.7 216.37 458.67 217.03 457.18 Z" fill="lightgrey" stroke="white" stroke-width="0.5"/>
<path d="M 156.77 393.99 158.23 397.48 161.62 396.28 161.13 391.65 158.65 387.75 159.42 385.74 163.19 386.19 167.69 390.77 168.52 393.02 170.78 392.29 170.82 396.27 173.37 400.3 175.92 400.74 178.06 402.24 178.69 400.61 180.76 399.47 182.78 400.2 185.54 402.22 185.25 403.37 186.63 406.35 188.69 406.7 189.29 408.23 188.42 410.25 186.29 411.98 183.21 411.2 183.13 413.08 181.59 414.53 189.17 419.46 192.44 420.33 193.32 423.82 196.15 425.6 198.87 429.87 206.23 436.25 206.63 438.92 207.87 440.88 211.87 442.88 214.49 445.82 212.86 447.46 214.87 449.88 217.46 451.85 217.03 457.18 216.37 458.67 212.83 460.7 211.59 460.71 209.03 458.24 208.42 459.38 204.93 460.62 206.63 463.02 204.58 464.27 201.59 462.17 200.16 462.71 198.58 460.49 200.93 458.21 200.58 451.94 200.85 448.6 199.05 447.4 198.39 445.06 195.31 443.92 192.5 440.35 191.78 435.77 191.88 432.56 186.98 428.1 184.04 423.83 179.03 422.7 177.99 423.08 176.76 426.86 173.4 428.16 173.01 427.04 168.75 424.8 165.63 427.74 162.15 431.74 160.17 430.82 160.59 427.74 161.64 426.28 161.1 423.67 160.05 422.83 161.4 420.56 160.68 416.22 159.26 412.33 157.19 411.89 156.33 413.07 153.99 412.59 153.05 410.5 153.92 407.7 152.07 404.91 150.02 405.38 150.39 401.88 152.56 400.14 153.65 396.21 156.77 393.99 Z" fill="lightgrey" stroke="white" stroke-width="0.5"/>
<path d="M 179.35 535.13 179.32 536.64 177.37 539.91 175.13 538.38 172.86 539.48 171.36 538.25 171.3 535.24 168.98 533.68 165.52 532.69 163.91 531.06 163.45 533.43 160.59 529.93 159.59 527.21 156.83 525.18 156.09 522.55 150.04 515.59 147.51 516.83 146.8 512.27 147.88 509.16 147.35 507.95 150.02 497.36 149.93 494.24 153.42 489.55 156.06 483.84 154.48 480.98 153.5 476.7 151.92 475.36 150.61 471.33 151.27 470.8 150.51 466.32 148.48 463.05 144.96 460.2 142.05 456.26 141.07 453.3 141.85 451.78 144 451.18 143.44 447.67 143.69 442.45 141.57 438.56 141.05 435.89 137.98 433.21 134.84 429.73 134.35 427.06 131.15 422.27 133.54 421.4 132.34 418.23 133.32 416.51 132.96 412.42 135.79 411.01 138.35 411.31 141.93 409.74 141.73 407.94 143.94 407.74 148.59 404.22 150.02 405.38 152.07 404.91 153.92 407.7 153.05 410.5 153.99 412.59 156.33 413.07 157.19 411.89 159.26 412.33 160.68 416.22 161.4 420.56 160.05 422.83 161.1 423.67 161.64 426.28 160.59 427.74 160.17 430.82 162.15 431.74 165.63 427.74 168.75 424.8 173.01 427.04 173.4 428.16 176.76 426.86 177.99 423.08 179.03 422.7 184.04 423.83 186.98 428.1 191.88 432.56 191.78 435.77 192.5 440.35 195.31 443.92 198.39 445.06 199.05 447.4 200.85 448.6 200.58 451.94 200.93 458.21 198.58 460.49 195.14 459.63 192.73 460.39 190.95 459.98 187.97 460.52 185.3 459.79 181.68 460.96 177.81 467.68 176.35 467.7 176.6 470.37 178.03 472.86 179.07 476.32 180.93 478.3 180.65 480.86 182.7 484.31 182.8 485.41 181.14 481.77 180.09 480.74 177.33 480.39 176.67 479.15 173.14 475.93 170.05 476.38 167.12 475.86 165.87 476.43 165.05 472.01 165.28 468.59 159.9 468.25 157.53 470.52 158.82 472.38 158.06 476.37 158.91 480.36 157.76 482.43 155.52 490.31 155.86 492.46 153.29 497.3 154.01 503.89 156.67 507.97 159.69 507.11 160.94 513.17 163.17 514.91 164.47 522.59 163.4 523.54 165.26 526.33 167.02 526.5 168.38 528.44 170.33 529.6 173.45 529.16 174.96 529.83 176.79 532.89 179.35 535.13 Z" fill="lightgrey" stroke="white" stroke-width="0.5"/>
<path d="M 359.41 677.59 358.03 680.44 355.87 679.09 359.41 677.59 Z M 364.13 680.41 363.39 675.58 365.46 672.53 371.68 671.14 373.05 671.52 375.9 670.57 376.97 671.2 380.49 669.56 383.13 670.69 380.57 672.95 377.01 674.14 375.66 675.51 373.48 675.82 371.6 677.09 368.81 677.65 364.13 680.41 Z" fill-rule="evenodd" fill="lightgrey" stroke="white" stroke-width="0.5"/>
<path d="M 284.99 547.76 283.19 549.15 284.04 552.67 283.57 554.75 282.14 555.77 279.18 551.52 277.12 550.42 279.18 550.5 281.4 549.56 282.89 547.88 284.99 547.76 Z" fill="lightgrey" stroke="white" stroke-width="0.5"/>
<path d="M 87.69 390.07 89.85 389.64 92.06 387.58 90.63 382.73 92.48 379.44 91.91 371.77 93.07 371.32 96.28 372.17 97.69 371.45 97.98 368.48 100.16 361.94 98.54 359.91 98.74 358.54 101.32 355.37 101.89 352.49 100.7 350.66 100.61 347.37 102.6 346.57 107.41 341.35 113.12 339.95 112.41 338.01 114.6 335.42 114.71 332.49 115.64 329.61 117.08 329.99 121.14 333.19 121.41 334.74 124.35 337.49 126.75 338.39 127.53 342.1 128.95 345.83 130.22 354.07 128.55 354.84 127.94 356.94 124.31 359.98 123.93 363.75 123.06 364.53 125.43 370.25 127.04 371.2 129.2 370.31 131.76 370.29 133.55 373.28 135.39 375.06 136.28 377.89 137.89 379.69 140.06 379.53 141.78 381.1 140.31 383.22 141.04 385.29 140.04 388.64 146.35 389.44 146.88 392.43 150.16 394.25 152.6 394.76 154.34 392.84 156.15 392.08 156.77 393.99 153.65 396.21 152.56 400.14 150.39 401.88 150.02 405.38 148.59 404.22 143.94 407.74 141.73 407.94 141.93 409.74 138.35 411.31 135.79 411.01 132.96 412.42 133.32 416.51 132.34 418.23 133.54 421.4 131.15 422.27 134.35 427.06 134.84 429.73 137.98 433.21 141.05 435.89 141.57 438.56 143.69 442.45 143.44 447.67 144 451.18 141.85 451.78 141.07 453.3 142.05 456.26 144.96 460.2 148.48 463.05 150.51 466.32 151.27 470.8 150.61 471.33 151.92 475.36 153.5 476.7 154.48 480.98 156.06 483.84 153.42 489.55 149.93 494.24 150.02 497.36 148.23 497.24 147.42 494 149.32 492.07 149.06 485.08 148.58 482.47 146.95 479.56 147.55 475.91 146.37 471.19 141.4 463.59 141.66 462.46 138.35 455.56 138.13 452.84 136.57 446.27 135.38 445.15 135.6 442.61 134.48 440.26 131.93 438.79 129.75 433.68 128.23 438.42 127 440.45 124.84 441.17 120.51 443.89 120 445.7 118.1 447.85 113.69 447.24 111.1 445.58 108.17 444.82 108.03 442.01 108.56 437.04 109.61 433.13 109.38 431.73 109.42 430.32 107.79 427.02 107.91 425.9 105.36 420.88 103.39 418.85 100.31 417.36 102.32 413.98 98.72 410.32 96.52 407.5 94.82 408.37 91.55 406.46 87.79 401.86 86.4 398.52 85.42 396.16 86.35 394.83 88.44 394.52 87.69 390.07 Z" fill="lightgrey" stroke="white" stroke-width="0.5"/>
<path d="M 59.45 388.66 56.62 380.96 57.22 378.94 54.93 377.93 54.96 376.31 53.28 374.63 53.94 368.75 51.81 368.49 48.88 366.83 47.72 365.45 50.16 360.58 53.87 360.61 52.34 357.54 50.42 357.56 46.15 353.8 46.47 351.65 48.28 348.76 53.01 349.43 54.13 351.71 56.1 352.98 57.99 352.44 60.04 353.8 60.65 358.72 65.52 360.79 69.16 360.86 72.34 360.31 74.32 360.94 78.45 360.49 82.44 362.61 80.94 364.23 80.52 367.66 79.09 369.78 75.07 370.48 74.18 372.25 74.01 374.98 76.7 378.34 78.05 380.8 79.96 379.81 79.29 378.12 81.87 373.88 84.15 377.96 84.87 381.55 86.08 383.44 87.69 390.07 88.44 394.52 86.35 394.83 85.42 396.16 86.4 398.52 84.58 397.66 83.09 391.9 79.77 384.93 77.68 382.62 76.25 384.55 73.97 384.55 70.66 379.83 69.35 382.82 71.6 386.95 68.85 391.7 67.49 391.13 64.79 392.16 60.21 391.56 59.45 388.66 Z" fill="lightgrey" stroke="white" stroke-width="0.5"/>
<path d="M 43 335.78 43.25 342.77 45.46 346.08 45.22 348.76 39.48 349.69 37.43 348.96 36.84 347.6 34.54 349.12 30.81 347.3 28.58 346.91 27.22 347.67 24.97 345.07 22.72 346.15 18.41 343.59 17.11 343.46 16.08 340.69 11.84 339.02 10.18 339.65 4.5 339.62 1 338.47 1 319.85 4.26 323.5 7.42 322.57 8.71 322.99 10.46 326.19 14.52 328.92 18.41 329.11 18.23 331.55 21.03 331.75 24.57 333.03 26.13 335.55 27.66 334.47 29.69 335.32 30.17 333.64 34.29 335.07 35.49 336.1 39.82 336.29 40.62 335.36 43 335.78 Z" fill="lightgrey" stroke="white" stroke-width="0.5"/>
<path d="M 549.93 108.15 546.01 108.45 546.66 106.7 549.93 108.15 Z" fill="lightgrey" stroke="white" stroke-width="0.5"/>
<path d="M 493.62 676.91 495.32 656.52 494.41 654.73 495.69 651.34 496.9 631.39 497.58 616.88 500.02 617.26 507.23 621.3 514.02 623.84 517.64 624.44 521.69 627.88 525.89 628.11 526.12 629.5 528.64 630.71 530 632.95 532.37 633.39 535.91 637.74 534.9 642.92 540.76 644.55 545.78 647.87 548.57 647.89 551.39 651.34 551.37 654.62 544.21 655.08 543.89 657.06 545.24 661.08 548.41 663.97 549.68 666.16 552.46 667.21 553.04 671.96 554.57 672.85 555.24 676.23 556.79 676.89 560.83 675.91 559.99 679.33 562 681.41 566.46 681.86 564.01 683.4 565.45 685.74 567.5 686.04 571.04 690.3 566.97 691.63 565.18 690.59 563.61 688.28 561.26 688.41 551.55 686.13 547.79 685.71 545.99 684.04 544.63 680.9 542.62 680.18 541.81 677.08 539.56 676.14 539.55 674.4 537.23 670.72 536.09 667.63 532.24 666.08 526.4 664.69 525.06 663.17 522.89 663.13 520.99 664.82 518.7 663.88 518.75 666.45 515.39 667 515.58 668.94 510.54 669.8 513.57 673.92 513.46 675.58 507.03 678.98 503.69 677.42 500.76 677.97 497.19 677.32 494.65 677.95 493.62 676.91 Z M 572.85 681.95 570.83 681.68 570.75 679.05 573.68 680.74 572.85 681.95 Z M 617.1 654.16 615.18 656.3 612.37 655.13 611.1 653.36 611.62 651.6 608.01 647.77 608.38 644.18 610.82 644.11 613.54 649.51 615.57 650.82 617.1 654.16 Z M 575.48 649.45 572.89 650.78 566.08 651.01 564.87 649.19 562.22 649.58 555.89 644.98 556.87 643.12 560.09 643.95 561.32 643.31 564.6 644.44 570.75 643.95 573.08 643.23 575.44 643.95 578 642.62 578.63 640.53 581.26 638.23 583.82 637.35 582.92 631.42 586.29 632.85 589.93 633.12 589.72 636.1 588.6 638.42 586.15 638.76 586.71 643.22 581.98 645.15 579.16 647.72 575.48 649.45 Z M 595.86 632.28 595.17 635.34 593.53 637.34 591.97 633.96 592.26 631.3 591.53 628.11 594.54 629.78 595.86 632.28 Z M 574.91 616.25 572.59 617.61 571.11 615.64 572.88 614.79 574.91 616.25 Z M 550.39 611.19 548.57 613.02 543.94 612.9 544.04 611.01 550.39 611.19 Z" fill-rule="evenodd" fill="lightgrey" stroke="white" stroke-width="0.5"/>
<path d="M 562.36 1026 559.23 1025.82 562.04 1022.84 563.6 1024.46 562.36 1026 Z M 572.8 1022.12 570.72 1021.6 568.48 1022.09 567.72 1019.74 564.76 1020.12 562.63 1018.81 558.19 1018.52 559.26 1014.79 562.11 1014.04 562.76 1012.39 564.95 1010.61 567.35 1009.99 567.84 1008.83 585.13 999.47 588.9 998.48 594 996.19 599.39 994.44 604.35 991.64 610.94 988.87 616.66 985.57 620.13 982.85 624.76 978.61 628.64 977.1 632 974.8 635.89 969.98 642.44 966.53 641.28 968.58 643.05 969.98 641 972.38 641.29 973.78 645.95 971.48 650.39 972.1 646.72 974.9 646.11 977.92 639.7 982.36 635.43 984.64 630.06 988.86 624.97 990.82 622.57 993.06 620.72 997.51 618.59 995.86 616.54 997.19 613.65 997.99 606.01 1000.92 602.77 1003.54 600.3 1006.62 596.81 1008.88 593.52 1011.84 590.24 1013.87 590.08 1015.3 585.89 1016.37 583.87 1017.93 578.69 1020.76 574.05 1022.35 572.8 1022.12 Z M 678.09 936.99 680.96 934.99 678.34 934.42 679.2 932.09 681.24 929.35 678.98 925.68 677.85 917.89 681.05 915.03 685.06 915.92 687.06 921.34 684.3 924.96 684.83 927.34 682.57 930.55 681.97 932.67 684.49 933.76 686.48 933.13 688.17 931.1 689.65 932.69 687.82 936.41 686.63 940.1 689.3 941.3 692.45 943.71 696.25 942.7 699.09 940.51 702.09 939.35 703.9 939.44 705.1 940.89 701.73 943.51 697.9 948.45 693.99 950.49 691.28 953.46 687.59 953.39 684.36 954.51 681.54 956.79 680.5 959.59 676.14 963.48 668.92 968.24 662.22 973.27 654.91 976.59 651.78 973.69 656.51 970.75 661.11 967.07 663.41 964.47 663.86 961.09 661.45 960.27 660.98 958.31 658.94 957.66 658.38 956.29 660.56 953.91 667.91 951.2 673.35 944.59 676.62 941.33 678.09 936.99 Z" fill-rule="evenodd" fill="lightgrey" stroke="white" stroke-width="0.5"/>
<path d="M 667.7 790.11 666.37 789.3 665.04 786.17 663.14 784.44 662.53 780.57 665.22 780.21 668.76 784.21 669.94 784.5 670.79 787.18 677.3 793.18 678.19 794.74 680.61 796.63 679.66 799.45 676.44 798.55 672.99 795.14 668.65 791.99 667.7 790.11 Z M 687.03 786.93 684.19 786.64 685.61 784.71 687.03 786.93 Z" fill-rule="evenodd" fill="lightgrey" stroke="white" stroke-width="0.5"/>
<path d="M 352.76 885.31 343.73 888.96 337.4 890.71 332.5 891.11 328.98 890.33 326.17 891.26 322.83 893.24 317.99 894.99 315.14 896.53 312.24 896.98 309.77 898.53 306.88 902.65 302.73 905.57 295.63 905.62 292.9 905.95 290.98 905.03 289.16 905.67 287.27 904.97 279.6 905.64 278.16 906.36 275.08 905.96 270.98 907.95 268.51 910.87 264.95 910.75 262.47 912.61 260.48 913.25 259.05 915.02 253.16 916.29 247.11 916.33 243.96 915.87 241.15 914.29 240.08 911.62 237.71 909.54 235.45 909.06 236.99 903.71 240.97 902.91 243.82 900.07 245.4 894.29 246.62 894.07 248.88 887.52 249.27 884.94 247.91 877.36 248.1 871.7 250.21 864.92 250.12 861.34 248.95 858.51 249.27 856.08 247.47 852.25 248.33 848.38 248.2 844.95 246.36 839.04 248.28 838.34 249.43 835.97 247.55 833.63 247.09 830.3 248.21 829.29 250.09 833.91 252.18 834.62 252.77 830.87 250.3 822.59 250.57 821.07 249.48 818.17 250.34 814.81 252.57 810.98 253.86 809.99 255.28 805.6 254.77 801.23 256.44 798.95 258.88 797.52 260.68 800.31 263.96 794.45 266.46 793.07 270.95 791.41 277.87 785.37 279.89 785.03 282.69 783.13 285.23 783.18 287.39 784.16 291.45 783.13 294.23 780.78 299.97 779.86 302.31 777.28 306.16 778.08 308.22 777.12 311.8 776.58 317.98 774.06 320.17 772.57 323.44 768.85 327.56 763.27 330.48 760.8 330.88 754.96 331.58 752.17 333.97 749.5 335.35 749.35 337.32 746.11 338.97 745.88 340.16 747.98 341.35 752.79 345.18 750.98 344.35 745.42 346.13 742.04 350.91 743.79 352.94 740.43 351.66 739.37 352.8 735.63 356.56 734.63 356.44 732.36 358.66 731.76 360.01 732.69 360.48 727.88 366.49 725.61 367.39 724.16 370.75 722 372.13 723.53 373.79 721.54 375.97 720.49 378.64 721.54 381.84 726.66 383.75 728.52 382.27 732.46 386.55 729.02 390.56 730.19 391.99 729.86 395 730.77 395.31 727.3 393.69 725.84 397.27 720.97 399.01 717.4 402.49 715.79 401.44 714.29 401.79 712.3 406.35 707.65 409.71 706.94 409.95 704.97 413.56 706.36 416.99 705.64 418.03 706.45 422.57 704.48 423.42 702.38 423.23 700.13 421.6 698.4 419.21 699.17 417.58 697.19 420.44 695.61 422.66 696.55 423.99 699.08 426.31 697.65 427.91 701 431.32 702.08 432.91 700.99 433.83 702.82 435.39 702.57 437.24 704.01 439.95 703.25 442.56 706.01 446.53 704.36 447.2 703.22 451.92 707.69 451.68 705.12 454.1 703.08 455.65 706.23 455.1 709.81 453.29 710.76 454.41 712.43 452.57 714.84 451.49 714.35 448.25 715.31 447.17 718.38 448.2 720.21 446.92 723.33 441.93 728.9 442.25 730.82 447.74 735.21 447.78 736.33 451.24 739.61 453.44 739.81 455.66 741.66 458.54 742.85 461.31 746.96 464.98 747.72 467.8 748.98 468.94 752.97 474.13 756.27 478.33 755.63 481.29 753.92 482.98 749.93 485.57 747.02 488.46 741.28 489.96 735.72 492.14 731.41 491.79 726.54 492.89 722.77 492.27 721.6 493.14 718.12 494.88 715.24 494.4 712.64 495.98 711.17 495.05 708.47 497.29 704.12 498.67 702.66 500.79 697.51 501.58 693.74 504.03 691.75 506.13 694.16 506.71 698 506.21 702.24 508.74 703.45 507.29 706.65 509.82 709.27 509.63 715.89 509.09 719.91 509.97 722.2 510.16 725.78 511.39 726.68 515.78 724.32 517.16 727.2 521.79 731.03 520.4 735.05 521.02 741.09 519.84 744.62 522.08 748.7 523.5 753.37 523.67 755.59 521.46 761.41 523.48 763.85 522.3 767.05 523.29 768.76 528.39 771.9 531.22 773.02 531.68 775.85 535.96 777.1 536.21 778.66 539.75 779.9 539.81 781.33 537.97 782.57 538.31 784.08 541.48 787.5 542.05 798.15 543.5 799.48 545.82 797.2 546.56 799.54 548.61 800.84 550.69 800.35 550.75 802.34 549.21 806.59 549.02 808.92 552.42 813.89 555.24 814.56 556.21 819.1 558.35 821.26 559.19 825.81 560.95 826.32 559.67 829.93 560.77 832.2 559.4 835.4 558.08 842.46 556.73 844.27 557.5 849.51 556.65 851.94 557.1 853.74 555.12 859.27 551.39 863.47 549.86 866.93 543.25 876.5 543.15 878.44 539.81 883.41 533.67 889.68 532.62 892.13 529.63 893.79 528.61 895.18 525.4 896.17 519.3 902.28 518.32 902.47 515.8 906.68 511.8 909.69 506.41 917.01 504.83 917.83 502.18 920.83 498.5 924.1 496.35 928.03 491.51 933.63 490.93 936.76 489.25 938.85 483.9 941.52 474.81 941.87 471.36 942.74 468.04 944.23 459.72 949.41 451.32 951.11 449.82 947.56 451.05 945.59 448.92 944.95 449.2 942.56 444.78 944.26 444.74 946.12 442.76 946.26 439.17 947.95 433.34 951.38 429.29 948.81 427.25 946.86 425.74 947.22 422.96 945.9 420.7 947.35 418.88 944.66 415.97 944.14 414.21 942.4 414.11 939.05 412.88 935.95 413.42 933.86 416.35 930.81 416.77 924.12 413.49 920.25 410.65 921.82 407.92 920.98 411.15 919.11 414.23 913.75 413.79 910.68 412.63 909.48 406.09 917.53 404.28 917.01 400.14 918.48 402.38 914.94 405.49 915.1 407.28 912.34 408.73 908.15 411.06 905.5 415.08 902.28 415.19 899.81 417.54 898.57 416.07 896.74 412.9 898.71 409.07 903.44 403.28 905.74 400.75 907.32 398.72 909.49 395.5 911.57 393.2 914.7 391.49 914.76 391.14 911.89 392.03 909.18 392.38 905.65 390.79 903.3 391.64 900.67 389.81 898.86 388.25 898.91 388.58 892.85 388.14 890.46 386.59 889.69 383.13 889.82 381.34 887.78 376.67 888.49 372.79 884.54 370.45 883.36 367.34 884.51 362.17 884.25 352.76 885.31 Z M 455.32 723.75 454.77 724.83 451.31 724.07 451.53 720.94 454.53 720.72 453.47 723.78 455.32 723.75 Z M 406.47 700.89 403.81 700.42 404.69 697.51 406.47 700.89 Z M 414.88 698.2 413.83 699.99 409.82 702.94 406.2 700.38 405.57 696.53 408.02 698.29 410.67 697.66 412.98 696.14 414.88 698.2 Z M 406.82 923.39 403.72 923.9 400.51 925.84 399.07 924.9 394.91 925.66 395.18 922.95 401.88 921.26 403.69 922.84 406.82 923.39 Z M 565.37 823.48 561.24 829.72 560.48 828.68 562.22 825.27 565.37 823.48 Z M 441.41 991.38 441.82 989.6 438.6 988.6 435.8 991.6 434.35 992.01 431.12 994.86 425.33 993.68 425.48 989.74 424.71 988.51 425.12 985.59 428.47 979.85 427.91 977.5 429.67 970.98 432.68 968.41 438.31 970.38 440.76 972.44 444.01 972.18 447.8 970.8 450.81 971.09 452.89 969.61 454.29 970.04 456.43 968.6 457.47 971.03 452.18 978.33 450.94 980.62 449.11 981.07 443.17 987.64 443.47 988.45 441.41 991.38 Z M 460.03 963.23 459.63 960.75 462.03 959.21 462.28 963.46 460.03 963.23 Z" fill-rule="evenodd" fill="lightgrey" stroke="white" stroke-width="0.5"/>
<path d="M 336.52 537.46 332.94 538.57 333.71 536.61 336.52 537.46 Z M 371.91 525.01 370.57 526.09 368.68 530.42 370.32 532.74 371.61 536.13 371.41 537.97 369.33 541.44 367.53 539.37 362.67 537.52 359.71 535.79 358.41 534.15 357.07 529.93 357.41 527.22 359 524.55 357.4 522.72 354.5 520.94 350.63 523.52 347.4 523.21 347.15 521.42 345.36 521.26 344.22 522.67 342.28 528.95 340.13 527.75 341.19 525.5 341.53 520.76 342.73 518.96 347.77 517.67 348.58 514.39 350.79 514.01 351.88 512.64 354.22 513.45 355.51 518.08 358.35 517.09 359.48 513.44 362.38 514.44 362.27 510.3 367.77 509.96 368.27 508.08 366.71 503.54 371.21 505.28 374.7 510.23 374.74 511.96 376.46 516.93 376.27 520.59 377.78 521.64 378.32 525.9 376.34 528.28 374.24 529.74 373.35 528.84 371.91 525.01 Z M 311.98 505.02 309.78 508.17 308.16 508.66 307.38 510.86 305.56 512.57 301.68 513.14 304.35 509.29 307.97 506.71 310.91 502.68 312.94 498.8 316.37 495.91 318.04 492.87 319.99 495.81 317.16 497.56 316.09 500.08 313.55 500.86 311.98 505.02 Z M 323.63 481.87 320.69 481.9 320.76 479.81 323.63 481.87 Z M 364.02 494.86 364.85 498.25 361.3 499.2 360.69 493.02 359.25 491.35 357.3 490.76 357.2 488.58 361.82 487.85 362.78 491.66 362.55 493.24 364.02 494.86 Z M 363.56 479.35 365.11 479.85 365.54 485.81 366.65 488.9 365.44 490.4 363.93 490.16 361.94 487.5 361.71 485.6 358.7 481.87 356.16 480.09 354.9 477.22 358.18 477.38 362.05 476.81 363.56 479.35 Z M 333.32 440.52 333.4 442.99 330 444.52 328.8 445.86 329.57 447.79 328.08 451.61 330.42 455.76 332.39 461.95 334.28 463.73 338.16 460.49 340.46 460.62 342.84 462.71 344.09 466.25 346.79 464.14 350.71 465.68 347.6 467.13 350.13 470.07 349.94 471.49 352.7 472.77 353.53 474.78 351.56 476.19 350.87 474.47 347.58 472.57 344.9 468.77 341.8 466.88 339.18 464.04 339.6 469.52 336.05 465.97 332.38 464.37 330.81 465.05 329.45 467.42 327.42 466.99 325.98 464.55 323.83 465.1 323.13 461.84 325.85 459.05 324.38 456.64 322.83 456.42 322.65 459.61 318.37 456.36 315.14 446.02 314.84 442.91 317.44 444.92 318.99 443.7 317.32 439.58 318.01 436.35 317.51 432.61 316.35 430.87 317.02 421.8 320.83 420.84 325.35 423.46 328.37 424.13 329.96 421.95 331.09 424.45 330.28 425.66 330.9 430.29 332.07 432.68 333.65 433.3 334.72 435.17 333.32 440.52 Z M 359.79 501.79 358.71 503.75 355.96 504.33 353.71 502.42 356.47 499.26 359.85 500.38 359.79 501.79 Z M 345.8 494.89 345.95 492.51 347.84 491.4 350.93 492.98 348.37 501.82 348.45 504.73 350.12 506.66 349.56 508.83 348.02 509.5 346.47 506.85 344.19 505.83 342.21 502.11 345.9 499.51 345.04 495.85 345.8 494.89 Z M 354.3 497.74 352.69 499.15 351.3 504.6 349.94 505.14 350.14 501.13 352.32 496.33 353.92 490.66 354.86 492.39 354.92 497.08 354.3 497.74 Z M 336.08 484.27 336.81 482.75 344.89 487.33 347.08 487.06 346.14 490.52 344.36 491.77 343.06 494.15 340.16 494.67 338.8 496.29 337.69 493.44 338.35 491.21 338.24 485.3 336.08 484.27 Z M 353.88 483.99 351.4 482.92 346.9 478.23 348.22 477.41 352.05 480.18 353.88 483.99 Z M 326.44 468.26 329.18 469.18 331.11 470.84 332.69 476.2 330.87 479.66 329.76 479.91 326.54 475.41 325.92 472.89 323.34 470.13 323.78 468.18 326.44 468.26 Z M 354.48 464.86 354.46 466.35 352.9 468.02 351.89 463.23 354.48 464.86 Z" fill-rule="evenodd" fill="lightgrey" stroke="white" stroke-width="0.5"/>
<path d="M 6.19 509.93 10.03 514.6 10.87 517.87 13.05 521.33 14.72 525.26 14.93 528.1 13.44 533.25 10.93 535.43 4.77 538.21 1 536.64 1 503.25 4.56 506.51 6.19 509.93 Z" fill="lightgrey" stroke="white" stroke-width="0.5"/>
<path d="M 308.55 362.62 309.04 361.71 312.83 359.67 315.51 361.13 315.51 363.52 316.4 366.32 315.59 369.62 315.52 379.29 313.04 385 313.32 389.35 312.06 390.03 310.85 387.14 308.14 385.06 304.84 379.24 304.7 373.48 307.13 365.8 308.55 362.62 Z" fill="lightgrey" stroke="white" stroke-width="0.5"/>
<path d="M 370.27 302.45 370.43 304.73 368.31 305.69 367.95 303.63 363.82 304.53 363.38 301.02 361.52 299.51 362.04 291.59 358.71 287.58 356.39 287.4 357.91 290.26 355.38 290.78 351.44 286.26 355.82 283.05 357.46 279.72 359.12 280.08 361.69 282.49 366.91 282.99 369.28 287.17 371.65 288.93 370.53 292.64 371.13 298.71 372.11 302.93 370.27 302.45 Z M 385.34 277.2 386.67 276.97 388.34 279.56 388.24 281.55 386.85 283.66 382.61 283.38 379.72 285.14 379.18 290.39 376.83 290.2 374.54 287.86 374.61 286.25 372.39 284.04 373.69 281.74 373.3 279.15 375.09 278.63 376.31 279.73 379.14 279.44 379.26 277.41 380.83 275.65 382.38 275.56 385.34 277.2 Z M 362.15 272.92 363.32 272.12 366.89 267.27 366.91 265.56 369.29 264.39 371.56 265.6 378.18 264.86 379.94 263.7 383.06 263.98 384.79 262.78 385.87 264.9 388.15 265.3 391.13 263.96 391.02 262.29 389.5 260.93 389.75 258.61 391.08 256.69 391.62 252.66 389.56 249.85 389.28 248.17 392.63 246.58 392.37 248.86 393.65 252.98 396.48 253.65 396.46 252.19 401.87 249.34 402.98 247.76 403.08 243.85 405.77 240.71 404.66 236.31 405.13 234.76 403.67 228.45 402.58 226.4 400.64 224.83 398.96 220.65 396.42 218.5 398.3 216.46 396.86 213.72 399.08 213.17 400.85 215.7 402.1 216.22 404.39 214.6 402.76 212.32 400.48 213.57 399.15 209.86 403.09 211.51 407.82 217.76 411.69 220.38 415.35 223.94 418.69 228.12 418.56 230.05 419.74 232.07 418.59 235.09 419.18 237.03 417.39 240.7 418.53 243.29 421.84 248 423.18 251.78 422.37 252.52 423.34 258.07 425.2 260.56 427.92 263.05 425.97 264.68 426.92 268.08 423.69 269.77 421.85 266.97 422.92 264.67 421.91 263.81 420.03 267.24 417.17 267.73 418.72 271.09 417.55 273.62 416.28 272.4 415.04 268.77 413.24 269.01 412.29 272.55 409.34 273.22 406.41 272.96 405.2 272.05 402.02 271.96 399.16 270.04 399.37 272.84 403.46 275.11 401.1 276.6 399.36 280.53 399.54 282.87 398.49 283.9 395.73 283.26 394.67 281.76 391.45 280.17 391.37 277.86 389.87 276.65 391.38 273.97 390.19 272.58 388.27 273.35 385.36 272.05 381.83 272.74 379.52 274.86 375.24 275.18 374.34 276.19 370.79 277.1 369.72 275.77 368.11 276.91 369.03 279.21 368.21 280.08 365.13 278.6 362.02 279.79 358.12 278.08 357.45 275.84 360.56 275.49 362.15 272.92 Z M 423.98 192.95 423.49 194.63 421.03 195.27 419.25 197.16 415.68 196.45 414.07 197.14 412.69 199.56 412.58 202.68 413.98 205.36 406.27 203.12 402.99 201.4 398.78 199.97 396.89 200.45 395.3 202.71 391.75 200.45 389.48 200.99 390.25 203.23 394.11 204.38 397.32 206.39 394.55 211.07 391.97 209.62 390.76 205.76 386.58 203.35 384.79 199.88 385.95 199.26 387.56 196.33 385 194.56 385.14 193.08 388.59 194.72 391.55 195.19 392.23 193.18 389.35 189.98 390.22 187.93 388.25 184.85 387.28 181.94 384.56 178.69 382.28 176.79 381.57 174.64 382.85 173.66 390.14 178.12 396.06 182.04 404.95 186.45 407.25 186.19 410.69 187.89 413.14 188.15 414.71 185.5 416.04 188.45 421.38 193.96 423.98 192.95 Z" fill-rule="evenodd" fill="lightgrey" stroke="white" stroke-width="0.5"/>
<path d="M 776.51 761.04 773.19 759.96 772.87 758.54 774.7 755.67 777.1 753.81 782.42 752.85 784.26 755.46 784.28 759.38 780.65 760.33 779.54 761.28 776.51 761.04 Z M 799 742.09 796.26 744.77 797.02 747.15 794.39 747.81 788.5 748.44 786.74 749.75 786.07 747.03 789.62 744.87 793.68 744.02 797.08 742.2 799 742.09 Z" fill-rule="evenodd" fill="lightgrey" stroke="white" stroke-width="0.5"/>
<path d="M 665.44 692.76 660.82 691.94 658.85 690.37 658.97 688.53 663.75 689.37 665.44 692.76 Z M 658.57 681.63 655.04 677.34 653.54 670.26 654.86 669.56 656.62 672.28 656.01 674.21 657.54 675.47 658.57 681.63 Z M 647.23 679.93 650.71 679.74 653.78 682.64 652.42 684.58 649.92 683.45 646.01 683.26 644.38 680.66 645.54 678.22 647.23 679.93 Z M 647.47 671.42 639.71 666.46 637.75 664.31 639.36 663.27 641.72 665.81 644.42 666.99 647.49 669.71 647.47 671.42 Z M 629.55 660.55 628.8 661.36 624.75 659.4 621.64 653.81 625.93 656.53 627.76 659.93 629.55 660.55 Z" fill-rule="evenodd" fill="lightgrey" stroke="white" stroke-width="0.5"/>
<path d="M 707.09 767.61 704.42 767.07 706.29 764.86 707.09 767.61 Z M 703.56 756.13 702.03 757.36 700.65 755.81 702.08 754.67 703.56 756.13 Z M 700.33 744.4 699.52 745.57 697.18 745.77 697.27 742.31 695.66 741.29 696.34 739.52 700.33 744.4 Z M 696.68 736.24 693.64 737.36 693.01 729.75 694.74 729.73 694.67 732.71 697.01 731.32 697.61 735.9 696.68 736.24 Z" fill-rule="evenodd" fill="lightgrey" stroke="white" stroke-width="0.5"/>
</g>
<g id="selected">
<path d="M 493.62 676.91 495.32 656.52 494.41 654.73 495.69 651.34 496.9 631.39 497.58 616.88 500.02 617.26 507.23 621.3 514.02 623.84 517.64 624.44 521.69 627.88 525.89 628.11 526.12 629.5 528.64 630.71 530 632.95 532.37 633.39 535.91 637.74 534.9 642.92 540.76 644.55 545.78 647.87 548.57 647.89 551.39 651.34 551.37 654.62 544.21 655.08 543.89 657.06 545.24 661.08 548.41 663.97 549.68 666.16 552.46 667.21 553.04 671.96 554.57 672.85 555.24 676.23 556.79 676.89 560.83 675.91 559.99 679.33 562 681.41 566.46 681.86 564.01 683.4 565.45 685.74 567.5 686.04 571.04 690.3 566.97 691.63 565.18 690.59 563.61 688.28 561.26 688.41 551.55 686.13 547.79 685.71 545.99 684.04 544.63 680.9 542.62 680.18 541.81 677.08 539.56 676.14 539.55 674.4 537.23 670.72 536.09 667.63 532.24 666.08 526.4 664.69 525.06 663.17 522.89 663.13 520.99 664.82 518.7 663.88 518.75 666.45 515.39 667 515.58 668.94 510.54 669.8 513.57 673.92 513.46 675.58 507.03 678.98 503.69 677.42 500.76 677.97 497.19 677.32 494.65 677.95 493.62 676.91 Z M 572.85 681.95 570.83 681.68 570.75 679.05 573.68 680.74 572.85 681.95 Z M 617.1 654.16 615.18 656.3 612.37 655.13 611.1 653.36 611.62 651.6 608.01 647.77 608.38 644.18 610.82 644.11 613.54 649.51 615.57 650.82 617.1 654.16 Z M 575.48 649.45 572.89 650.78 566.08 651.01 564.87 649.19 562.22 649.58 555.89 644.98 556.87 643.12 560.09 643.95 561.32 643.31 564.6 644.44 570.75 643.95 573.08 643.23 575.44 643.95 578 642.62 578.63 640.53 581.26 638.23 583.82 637.35 582.92 631.42 586.29 632.85 589.93 633.12 589.72 636.1 588.6 638.42 586.15 638.76 586.71 643.22 581.98 645.15 579.16 647.72 575.48 649.45 Z M 595.86 632.28 595.17 635.34 593.53 637.34 591.97 633.96 592.26 631.3 591.53 628.11 594.54 629.78 595.86 632.28 Z M 574.91 616.25 572.59 617.61 571.11 615.64 572.88 614.79 574.91 616.25 Z M 550.39 611.19 548.57 613.02 543.94 612.9 544.04 611.01 550.39 611.19 Z" fill-rule="evenodd" fill="#084594" stroke="#9ecae1" stroke-width="0.6"/>
<path d="M 352.76 885.31 343.73 888.96 337.4 890.71 332.5 891.11 328.98 890.33 326.17 891.26 322.83 893.24 317.99 894.99 315.14 896.53 312.24 896.98 309.77 898.53 306.88 902.65 302.73 905.57 295.63 905.62 292.9 905.95 290.98 905.03 289.16 905.67 287.27 904.97 279.6 905.64 278.16 906.36 275.08 905.96 270.98 907.95 268.51 910.87 264.95 910.75 262.47 912.61 260.48 913.25 259.05 915.02 253.16 916.29 247.11 916.33 243.96 915.87 241.15 914.29 240.08 911.62 237.71 909.54 235.45 909.06 236.99 903.71 240.97 902.91 243.82 900.07 245.4 894.29 246.62 894.07 248.88 887.52 249.27 884.94 247.91 877.36 248.1 871.7 250.21 864.92 250.12 861.34 248.95 858.51 249.27 856.08 247.47 852.25 248.33 848.38 248.2 844.95 246.36 839.04 248.28 838.34 249.43 835.97 247.55 833.63 247.09 830.3 248.21 829.29 250.09 833.91 252.18 834.62 252.77 830.87 250.3 822.59 250.57 821.07 249.48 818.17 250.34 814.81 252.57 810.98 253.86 809.99 255.28 805.6 254.77 801.23 256.44 798.95 258.88 797.52 260.68 800.31 263.96 794.45 266.46 793.07 270.95 791.41 277.87 785.37 279.89 785.03 282.69 783.13 285.23 783.18 287.39 784.16 291.45 783.13 294.23 780.78 299.97 779.86 302.31 777.28 306.16 778.08 308.22 777.12 311.8 776.58 317.98 774.06 320.17 772.57 323.44 768.85 327.56 763.27 330.48 760.8 330.88 754.96 331.58 752.17 333.97 749.5 335.35 749.35 337.32 746.11 338.97 745.88 340.16 747.98 341.35 752.79 345.18 750.98 344.35 745.42 346.13 742.04 350.91 743.79 352.94 740.43 351.66 739.37 352.8 735.63 356.56 734.63 356.44 732.36 358.66 731.76 360.01 732.69 360.48 727.88 366.49 725.61 367.39 724.16 370.75 722 372.13 723.53 373.79 721.54 375.97 720.49 378.64 721.54 381.84 726.66 383.75 728.52 382.27 732.46 386.55 729.02 390.56 730.19 391.99 729.86 395 730.77 395.31 727.3 393.69 725.84 397.27 720.97 399.01 717.4 402.49 715.79 401.44 714.29 401.79 712.3 406.35 707.65 409.71 706.94 409.95 704.97 413.56 706.36 416.99 705.64 418.03 706.45 422.57 704.48 423.42 702.38 423.23 700.13 421.6 698.4 419.21 699.17 417.58 697.19 420.44 695.61 422.66 696.55 423.99 699.08 426.31 697.65 427.91 701 431.32 702.08 432.91 700.99 433.83 702.82 435.39 702.57 437.24 704.01 439.95 703.25 442.56 706.01 446.53 704.36 447.2 703.22 451.92 707.69 451.68 705.12 454.1 703.08 455.65 706.23 455.1 709.81 453.29 710.76 454.41 712.43 452.57 714.84 451.49 714.35 448.25 715.31 447.17 718.38 448.2 720.21 446.92 723.33 441.93 728.9 442.25 730.82 447.74 735.21 447.78 736.33 451.24 739.61 453.44 739.81 455.66 741.66 458.54 742.85 461.31 746.96 464.98 747.72 467.8 748.98 468.94 752.97 474.13 756.27 478.33 755.63 481.29 753.92 482.98 749.93 485.57 747.02 488.46 741.28 489.96 735.72 492.14 731.41 491.79 726.54 492.89 722.77 492.27 721.6 493.14 718.12 494.88 715.24 494.4 712.64 495.98 711.17 495.05 708.47 497.29 704.12 498.67 702.66 500.79 697.51 501.58 693.74 504.03 691.75 506.13 694.16 506.71 698 506.21 702.24 508.74 703.45 507.29 706.65 509.82 709.27 509.63 715.89 509.09 719.91 509.97 722.2 510.16 725.78 511.39 726.68 515.78 724.32 517.16 727.2 521.79 731.03 520.4 735.05 521.02 741.09 519.84 744.62 522.08 748.7 523.5 753.37 523.67 755.59 521.46 761.41 523.48 763.85 522.3 767.05 523.29 768.76 528.39 771.9 531.22 773.02 531.68 775.85 535.96 777.1 536.21 778.66 539.75 779.9 539.81 781.33 537.97 782.57 538.31 784.08 541.48 787.5 542.05 798.15 543.5 799.48 545.82 797.2 546.56 799.54 548.61 800.84 550.69 800.35 550.75 802.34 549.21 806.59 549.02 808.92 552.42 813.89 555.24 814.56 556.21 819.1 558.35 821.26 559.19 825.81 560.95 826.32 559.67 829.93 560.77 832.2 559.4 835.4 558.08 842.46 556.73 844.27 557.5 849.51 556.65 851.94 557.1 853.74 555.12 859.27 551.39 863.47 549.86 866.93 543.25 876.5 543.15 878.44 539.81 883.41 533.67 889.68 532.62 892.13 529.63 893.79 528.61 895.18 525.4 896.17 519.3 902.28 518.32 902.47 515.8 906.68 511.8 909.69 506.41 917.01 504.83 917.83 502.18 920.83 498.5 924.1 496.35 928.03 491.51 933.63 490.93 936.76 489.25 938.85 483.9 941.52 474.81 941.87 471.36 942.74 468.04 944.23 459.72 949.41 451.32 951.11 449.82 947.56 451.05 945.59 448.92 944.95 449.2 942.56 444.78 944.26 444.74 946.12 442.76 946.26 439.17 947.95 433.34 951.38 429.29 948.81 427.25 946.86 425.74 947.22 422.96 945.9 420.7 947.35 418.88 944.66 415.97 944.14 414.21 942.4 414.11 939.05 412.88 935.95 413.42 933.86 416.35 930.81 416.77 924.12 413.49 920.25 410.65 921.82 407.92 920.98 411.15 919.11 414.23 913.75 413.79 910.68 412.63 909.48 406.09 917.53 404.28 917.01 400.14 918.48 402.38 914.94 405.49 915.1 407.28 912.34 408.73 908.15 411.06 905.5 415.08 902.28 415.19 899.81 417.54 898.57 416.07 896.74 412.9 898.71 409.07 903.44 403.28 905.74 400.75 907.32 398.72 909.49 395.5 911.57 393.2 914.7 391.49 914.76 391.14 911.89 392.03 909.18 392.38 905.65 390.79 903.3 391.64 900.67 389.81 898.86 388.25 898.91 388.58 892.85 388.14 890.46 386.59 889.69 383.13 889.82 381.34 887.78 376.67 888.49 372.79 884.54 370.45 883.36 367.34 884.51 362.17 884.25 352.76 885.31 Z M 455.32 723.75 454.77 724.83 451.31 724.07 451.53 720.94 454.53 720.72 453.47 723.78 455.32 723.75 Z M 406.47 700.89 403.81 700.42 404.69 697.51 406.47 700.89 Z M 414.88 698.2 413.83 699.99 409.82 702.94 406.2 700.38 405.57 696.53 408.02 698.29 410.67 697.66 412.98 696.14 414.88 698.2 Z M 406.82 923.39 403.72 923.9 400.51 925.84 399.07 924.9 394.91 925.66 395.18 922.95 401.88 921.26 403.69 922.84 406.82 923.39 Z M 565.37 823.48 561.24 829.72 560.48 828.68 562.22 825.27 565.37 823.48 Z M 441.41 991.38 441.82 989.6 438.6 988.6 435.8 991.6 434.35 992.01 431.12 994.86 425.33 993.68 425.48 989.74 424.71 988.51 425.12 985.59 428.47 979.85 427.91 977.5 429.67 970.98 432.68 968.41 438.31 970.38 440.76 972.44 444.01 972.18 447.8 970.8 450.81 971.09 452.89 969.61 454.29 970.04 456.43 968.6 457.47 971.03 452.18 978.33 450.94 980.62 449.11 981.07 443.17 987.64 443.47 988.45 441.41 991.38 Z M 460.03 963.23 459.63 960.75 462.03 959.21 462.28 963.46 460.03 963.23 Z" fill-rule="evenodd" fill="#084594" stroke="#9ecae1" stroke-width="0.6"/>
<path d="M 370.27 302.45 370.43 304.73 368.31 305.69 367.95 303.63 363.82 304.53 363.38 301.02 361.52 299.51 362.04 291.59 358.71 287.58 356.39 287.4 357.91 290.26 355.38 290.78 351.44 286.26 355.82 283.05 357.46 279.72 359.12 280.08 361.69 282.49 366.91 282.99 369.28 287.17 371.65 288.93 370.53 292.64 371.13 298.71 372.11 302.93 370.27 302.45 Z M 385.34 277.2 386.67 276.97 388.34 279.56 388.24 281.55 386.85 283.66 382.61 283.38 379.72 285.14 379.18 290.39 376.83 290.2 374.54 287.86 374.61 286.25 372.39 284.04 373.69 281.74 373.3 279.15 375.09 278.63 376.31 279.73 379.14 279.44 379.26 277.41 380.83 275.65 382.38 275.56 385.34 277.2 Z M 362.15 272.92 363.32 272.12 366.89 267.27 366.91 265.56 369.29 264.39 371.56 265.6 378.18 264.86 379.94 263.7 383.06 263.98 384.79 262.78 385.87 264.9 388.15 265.3 391.13 263.96 391.02 262.29 389.5 260.93 389.75 258.61 391.08 256.69 391.62 252.66 389.56 249.85 389.28 248.17 392.63 246.58 392.37 248.86 393.65 252.98 396.48 253.65 396.46 252.19 401.87 249.34 402.98 247.76 403.08 243.85 405.77 240.71 404.66 236.31 405.13 234.76 403.67 228.45 402.58 226.4 400.64 224.83 398.96 220.65 396.42 218.5 398.3 216.46 396.86 213.72 399.08 213.17 400.85 215.7 402.1 216.22 404.39 214.6 402.76 212.32 400.48 213.57 399.15 209.86 403.09 211.51 407.82 217.76 411.69 220.38 415.35 223.94 418.69 228.12 418.56 230.05 419.74 232.07 418.59 235.09 419.18 237.03 417.39 240.7 418.53 243.29 421.84 248 423.18 251.78 422.37 252.52 423.34 258.07 425.2 260.56 427.92 263.05 425.97 264.68 426.92 268.08 423.69 269.77 421.85 266.97 422.92 264.67 421.91 263.81 420.03 267.24 417.17 267.73 418.72 271.09 417.55 273.62 416.28 272.4 415.04 268.77 413.24 269.01 412.29 272.55 409.34 273.22 406.41 272.96 405.2 272.05 402.02 271.96 399.16 270.04 399.37 272.84 403.46 275.11 401.1 276.6 399.36 280.53 399.54 282.87 398.49 283.9 395.73 283.26 394.67 281.76 391.45 280.17 391.37 277.86 389.87 276.65 391.38 273.97 390.19 272.58 388.27 273.35 385.36 272.05 381.83 272.74 379.52 274.86 375.24 275.18 374.34 276.19 370.79 277.1 369.72 275.77 368.11 276.91 369.03 279.21 368.21 280.08 365.13 278.6 362.02 279.79 358.12 278.08 357.45 275.84 360.56 275.49 362.15 272.92 Z M 423.98 192.95 423.49 194.63 421.03 195.27 419.25 197.16 415.68 196.45 414.07 197.14 412.69 199.56 412.58 202.68 413.98 205.36 406.27 203.12 402.99 201.4 398.78 199.97 396.89 200.45 395.3 202.71 391.75 200.45 389.48 200.99 390.25 203.23 394.11 204.38 397.32 206.39 394.55 211.07 391.97 209.62 390.76 205.76 386.58 203.35 384.79 199.88 385.95 199.26 387.56 196.33 385 194.56 385.14 193.08 388.59 194.72 391.55 195.19 392.23 193.18 389.35 189.98 390.22 187.93 388.25 184.85 387.28 181.94 384.56 178.69 382.28 176.79 381.57 174.64 382.85 173.66 390.14 178.12 396.06 182.04 404.95 186.45 407.25 186.19 410.69 187.89 413.14 188.15 414.71 185.5 416.04 188.45 421.38 193.96 423.98 192.95 Z" fill-rule="evenodd" fill="#084594" stroke="#9ecae1" stroke-width="0.6"/>
<path d="M 665.44 692.76 660.82 691.94 658.85 690.37 658.97 688.53 663.75 689.37 665.44 692.76 Z M 658.57 681.63 655.04 677.34 653.54 670.26 654.86 669.56 656.62 672.28 656.01 674.21 657.54 675.47 658.57 681.63 Z M 647.23 679.93 650.71 679.74 653.78 682.64 652.42 684.58 649.92 683.45 646.01 683.26 644.38 680.66 645.54 678.22 647.23 679.93 Z M 647.47 671.42 639.71 666.46 637.75 664.31 639.36 663.27 641.72 665.81 644.42 666.99 647.49 669.71 647.47 671.42 Z M 629.55 660.55 628.8 661.36 624.75 659.4 621.64 653.81 625.93 656.53 627.76 659.93 629.55 660.55 Z" fill-rule="evenodd" fill="#084594" stroke="#9ecae1" stroke-width="0.6"/>
</g>
</svg>
