<?xml version="1.0"?>
<svg xmlns="http://www.w3.org/2000/svg" version="1.2" baseProfile="tiny" width="800" height="1066" viewBox="0 0 800 1066" stroke-linecap="round" stroke-linejoin="round">
<g id="ne_10m_admin_1_states_provinces_lakes">
<path d="M 579.27 665 578.53 667.24 583.36 672.33 582.99 675.63 573.48 675.42 576.24 684.87 581.07 686.84 581.55 692.41 589.57 701.46 590.13 703.6 586.1 708.15 587.36 712.61 599.95 722.13 604.43 728.09 604.2 732.73 599.25 733.26 592.45 731.81 585.7 733.1 580.5 743.7 580.75 750.27 579.01 754.98 582.07 759.3 582.18 765.6 575.6 768.11 571.44 774.08 567.76 775.27 558.69 784.28 561.14 788.42 559.66 794.19 563.42 794.86 562.11 800.73 559.73 800.44 558.14 809.13 554.13 809.22 554.89 814.16 551.04 823.03 534.42 830.7 528.02 834.46 525.22 820.32 516.66 817.88 509.22 819.94 509.21 814.41 504.23 815.66 501.43 812.21 491.03 819.26 483.65 817.35 476.64 821.73 477.19 811.9 467.65 809.35 460.55 812.34 453.53 808.09 449.05 810.7 448.59 801.14 446.53 794.31 446.3 788.72 443.61 785.61 446.39 778.76 440.53 769.02 432.27 766.98 429.64 759.78 430.46 747.33 426.02 742.69 424.77 732.68 428.87 717.87 433.29 712.8 433.11 710.24 438.5 707.24 436.5 711.17 438.64 716.31 442.35 721.07 455.29 732.29 460.62 729.33 466.79 727.74 469.58 728.99 478.05 729.1 482.99 726.12 484.32 720.14 489.49 717.72 499.44 718.35 500.66 720.5 510.8 724.53 515.4 720.27 526.02 720.4 531.77 710.91 530.21 705.81 536.74 699.18 535.45 692.08 538.44 687.74 542.44 687.96 544.58 679.61 543.08 670.32 544.79 664.8 553.19 660.53 559.86 661.63 571.88 661.47 579.27 665 Z M 696.28 936.36 705.04 931.93 706.68 942.58 704.74 946.17 693.94 956.37 688.63 956.55 682.97 960.45 677.46 959.87 681.9 945.14 688.47 939.66 693.23 942.64 696.28 936.36 Z M 629.46 952.25 627.56 957.25 621.74 958.39 617.59 957.54 614.8 952.89 606.3 947.93 598.56 946.45 597.02 944.3 601.4 940.54 609.71 939.65 617.45 941.67 623.67 945.54 629.46 952.25 Z M 672.21 918.23 667.99 922.26 667.79 924.78 660.43 927.44 655.19 927.25 649.21 930.34 642.23 928.51 641.04 931.03 633.55 931.2 627.87 928.55 621.56 929.1 614.11 928.23 616.31 921.74 623 917.83 627.4 917.55 635.42 919.22 644.57 924.61 652.65 921.56 658.46 925.25 662.36 924.08 664.68 920.22 672.21 918.23 Z M 674.73 965.07 671.05 969.58 664.27 971.78 664.03 968.88 668.4 967.51 671.87 964.1 674.73 965.07 Z M 688.46 916.98 678.43 924.28 677.96 920.72 686.2 916.02 688.46 916.98 Z M 710.07 916.77 709.67 919.52 696.87 921.81 697.94 915.39 709.42 915.64 710.07 916.77 Z M 440.95 772.07 435.84 776.03 435.88 769.49 440.95 772.07 Z M 470.84 886.6 477.73 889.85 483.06 889.38 486.85 891.81 489.38 902.82 498.68 908.05 502.9 906.26 507.81 906.7 511.75 904.59 519.55 908.92 516.8 920.68 518.33 924.94 513.56 925.49 505.74 923.1 496.2 918 486.55 921.45 481.21 919.31 471.04 917.57 468.76 919.84 464.75 917.97 459.89 918.11 447.68 914.63 440.05 910.01 428.35 906.53 413.52 906.1 409.55 908.64 398.28 905.48 393.55 902.1 377.73 900.37 375.21 898.32 378.49 891.67 373.94 891.67 368.32 888.3 361.03 889.08 365.47 882.09 367.83 873.11 370.98 869.25 378.77 872.38 387.65 873.27 394.23 871.18 396.13 874.63 402.2 875.52 407.12 878.32 409.42 876.51 414.94 881.58 415.82 887.16 421.41 888.85 432.34 888.66 438.78 890.35 444.22 889.79 446.95 891.46 450.98 888.68 454.26 880.97 460.02 880.96 461.64 885.75 470.84 886.6 Z M 513.16 890.28 509.08 894.7 503.87 896.77 496.33 896.71 489.5 895.3 492.93 889.81 511.04 889.26 513.16 890.28 Z M 741.32 906.79 733.58 910.98 722.69 909.59 725.46 905.81 732.25 906.17 737.81 904.19 741.32 906.79 Z M 753.58 820.22 753.5 822.97 744.27 828.12 734.29 822.9 731.33 815.69 739.2 812.08 744.57 811.87 751.16 814.73 753.58 820.22 Z M 799 817.15 795.1 816.7 793.89 820.07 787.31 817.74 783.2 814.76 775.91 820.05 769.22 811.35 770.87 807.73 783.25 807.84 787.78 809.78 793.7 806.27 799 807.83 799 817.15 Z M 557.73 917.95 559.53 920.33 554.57 928.69 545.5 930.64 546.64 921.41 553.23 916.46 557.73 917.95 Z M 603.26 924.78 589.64 929.95 586.84 927.77 579.25 931.41 576.55 930.86 569.09 933.91 563.21 934.88 558.94 933.02 560.08 924.23 567.67 919.63 574.1 920.6 578.05 927 586.92 924.68 578.91 919.56 577.01 917.03 580.6 914.19 584.51 914.67 586.5 919.04 590.18 917.6 599.86 918.64 600.91 925.62 603.26 924.78 Z M 643.5 808.82 642.23 803.74 638.14 802.81 628.12 809.63 630.72 818.42 631.35 825.47 629.5 829.58 629.76 842.67 626.7 854.38 628.59 858.19 627.37 861.69 619.98 862.9 615.07 865.14 610.12 858.56 613.71 848.95 615.22 842.46 616.49 830.41 613.59 825.18 614.51 820.72 610.98 819.35 604.2 822.16 601.66 812.49 602.48 803.52 608.89 799.29 608.9 794.44 613 788.97 612.3 784.09 612.85 774.32 616.71 766.91 619.34 764.6 623.12 748.16 621.42 745.61 626.18 734.5 631.13 731.87 635.25 733.7 639.4 727.88 639.63 722.96 642.25 722.23 650.6 724.53 654.27 728.01 659.56 727.26 669.07 728.85 676.22 732.97 678.33 730.03 695.97 732.55 702.51 728.5 706.59 721.95 711.96 719.31 714.05 714.56 717.8 715.69 717.27 720.7 713.01 729.82 708.84 733.23 706.01 738.75 702.77 741.5 692.43 743.29 683.32 743.01 678.61 739.79 666.86 739.5 657.46 740.94 656.23 739.44 641.14 741 637.3 738.82 631.84 739.9 627.43 745.93 625.05 753.87 626.67 762.99 629.4 767.67 632.42 768.02 635.42 772.1 636.99 777.99 644.12 778.53 651.99 767.09 655.8 768.64 662.83 768.46 664.71 765.17 677.38 765.13 675.8 762.07 683.29 761.22 687.12 765.04 685.78 770.03 680.02 767.53 675.53 768.41 667.37 779.98 664 782.45 657.02 784.56 655.02 788.43 648.45 788.65 657.15 796.14 660.35 804.41 665.51 809.15 666.67 813.33 662.99 821.96 670.88 828.73 671 833.48 675.1 834.97 674.78 838.89 669.37 839.06 660.43 841.56 658 848.39 652.87 847.98 649.11 844.34 650.46 835.68 652.23 832.76 647.43 830.34 639.55 821.61 642.93 814.58 643.5 808.82 Z M 672.09 849.63 669.46 852.93 669.42 857.89 667.29 860.05 662.62 858.85 665.16 852.58 665.54 846 671.57 844.08 672.09 849.63 Z M 678.39 855.91 672.11 865.08 667.63 861.64 671.48 855.56 674.86 840.64 680.02 843.43 677.04 846.3 675.56 853.11 678.39 855.91 Z M 687.84 775.34 684.61 778.52 678.58 780.32 675.35 778.98 677.01 773.71 682.45 773.11 687.84 775.34 Z M 720.17 785.8 714.67 789.17 711.81 788.2 703.72 790.38 703.52 783.54 707.99 782.8 720.17 785.8 Z M 771.11 782.04 769.37 784.49 760.04 784.84 757.83 779.96 761.87 776.66 771.11 782.04 Z M 766.8 765.17 759.26 766.26 756.32 760.01 761.3 756.22 761.76 762.41 766.8 765.17 Z M 762.88 753.87 763.73 743.97 761.18 741.02 759.59 728.15 757.98 724.59 760.3 719.6 760.89 713.98 765.72 712.48 768.71 714.64 769.16 718.33 766.78 726.08 762.22 729.26 765.12 733.36 767.59 729.12 772.19 725.28 771.95 721.66 776.78 718.18 781.44 717.66 781.31 727.83 774.43 731.27 774.45 736.02 781.14 738.59 781.52 742.86 768.14 739.79 766.74 743.48 766.96 749.96 769.63 758.06 762.88 753.87 Z M 780.31 699.08 778.41 706.69 774.46 708.12 771.67 703.51 776.29 696.84 780.31 699.08 Z M 414.87 670.79 413.61 674.68 409.6 674.42 407.37 668 410.56 664.59 414.87 670.79 Z M 354.3 754.44 347.33 755.13 347.05 749.77 354.3 754.44 Z M 270.62 697.65 275.27 705.74 279.62 705.64 281.43 702.84 288.6 707.98 290.11 713.54 297.36 716.16 303.56 721.41 305.86 729.64 311.52 734.6 317.37 734.84 320.96 740.62 326.11 738.7 332.41 743.28 333.87 749.87 328.52 752.02 326.33 764.4 331.22 768.8 341.28 771.45 344.25 770.6 345.48 780.76 349.03 790.94 352.79 791.93 352.85 796.1 366.09 798.47 368.83 807.84 372.79 810.02 373.44 816.07 370.96 818.08 368.77 824.32 371.03 827.6 368.19 835.84 369.68 840.53 366.19 868.18 362.97 867.8 358.08 860.81 355.12 867.32 345.72 861.31 339.74 864.41 329.75 850.41 324.61 848.67 320.49 843.56 316.06 841.01 312.31 836.49 305.56 830.81 304.2 823.72 293.97 815.74 288.72 805.34 284.81 802.24 280.14 793.17 281.18 791.06 275.73 778.96 272.83 775.34 273.02 770.75 271.07 766.22 262.38 755.61 261.19 750.22 258.74 747.61 250.26 744.05 249.33 736.96 246.13 726.89 242.64 718.81 244.2 716.66 238.97 710.22 228.92 703.96 224.61 703.21 223 700.56 221.75 691.31 218.47 690.04 215.58 684.22 206.05 673.36 200.07 671.8 195.56 665.68 192.23 663.65 181.28 651.41 176.57 636.79 180.34 634.69 188.98 637.48 193.46 642.17 202.93 643.5 208.67 642.34 214.07 644.75 218.08 642.78 225.79 650.15 228.8 656.96 232.75 659.59 233.55 666.61 240.34 669.98 245.56 674.93 260.13 684.91 264.39 689.63 265.22 694.04 270.62 697.65 Z M 320.44 733.4 311.62 733.74 310.57 729.82 315.27 729.04 320.44 733.4 Z M 309.99 724.35 309.91 730.01 305.71 727.25 309.99 724.35 Z M 296.16 707.75 296.17 713.44 291.59 713.7 291.12 707.61 296.16 707.75 Z M 252.38 782.87 249.19 786.22 245.36 783.78 240.29 773.99 241.51 769.21 245.55 768.19 252.38 782.87 Z M 228.39 729.35 227.64 736.53 224.43 737.96 222.77 732.86 218.7 730.25 215.82 723.63 220.31 719.58 224.12 725.49 228.39 729.35 Z M 201.82 700.49 198.75 701.32 194.3 697.14 187.59 693.09 190.85 690.23 201.82 700.49 Z M 556.98 825.25 556.91 828.52 553.32 831.73 551.81 823.88 554.11 817.12 556.5 818.89 556.98 825.25 Z M 539.55 918.23 538.98 922.55 532.38 926.89 526.89 921.87 521.83 920.47 520.44 914.96 526.04 916.29 532.64 913.57 539.55 918.23 Z M 413.78 807.56 411.68 813.43 403.84 814.68 400.87 810.86 402.76 801.72 409.86 802.39 413.78 807.56 Z M 386.57 801.7 383.53 809.47 380.53 810.26 372.36 807.01 369.3 793.79 360.53 793.05 357.89 789 361.92 786.68 363.53 781.41 371.04 779.91 376.25 787.84 377.62 797.45 379.17 799.72 386.57 801.7 Z" fill-rule="evenodd" fill="lightgrey" stroke="white" stroke-width="0.5"/>
<path d="M 579.27 665 571.88 661.47 559.86 661.63 553.19 660.53 544.79 664.8 543.08 670.32 544.58 679.61 542.44 687.96 538.44 687.74 535.45 692.08 536.74 699.18 530.21 705.81 531.77 710.91 526.02 720.4 515.4 720.27 510.8 724.53 500.66 720.5 499.44 718.35 489.49 717.72 484.32 720.14 482.99 726.12 478.05 729.1 469.58 728.99 466.79 727.74 460.62 729.33 455.29 732.29 442.35 721.07 438.64 716.31 436.5 711.17 438.5 707.24 438.74 710.21 443.76 715.19 451.63 714.71 458.17 718.13 462.52 719.03 469.26 702 470.4 695.09 474.42 691.78 480.57 690.91 497.64 685.65 502.83 678.74 505.43 673.26 510.65 668.22 514.18 662.67 514.81 656.01 519.35 658.45 525.89 667.81 529.03 665.56 530.07 660.98 528.19 653.22 532.17 650.16 533.1 651.55 535.01 660.46 538.87 661.84 537.64 655.29 535.1 649.76 538.92 649.88 542.32 646.53 538.52 641.4 541.7 636.91 547.04 636.51 550.36 630.77 552.64 623.12 557.73 617.48 560 612.97 568.59 607.14 572.01 614.77 578.1 616.94 580.1 619.63 577.75 623.53 580.88 629.47 585.38 626.32 587.54 630.33 592.74 631.7 603.19 639.19 607.37 638.88 608.75 643.81 606.86 645.74 598.51 649.03 592.59 647.11 588.79 650.29 592.56 654.99 597.46 657.68 596.6 660.92 585.02 663.02 580.89 659.58 579.27 665 Z M 265.17 613.33 268.73 616.94 276.34 619.12 276.79 622.27 281.46 622.54 281.59 629.19 284.91 631.89 290.72 629.46 292.97 632.29 294.85 632.85 299.16 625.63 299.23 622.32 303.65 623.68 308.04 630.51 318.86 640.14 325.28 652.07 326.49 661.4 324.16 673.16 326.92 678.17 326.43 689.36 330.27 695.26 332.61 696.24 336.04 702.01 342.64 720.19 341.32 722.23 334.46 719.58 328.49 723.37 325.95 718.32 315.71 711.77 309.93 707.04 304.47 704.53 297 697.21 292.63 695.48 287.82 690.39 289.38 688.54 287.85 683 282.99 675.93 277.07 670.93 277.9 666.48 273.93 661.75 274.96 657.4 273.7 650.86 269.68 646.19 270.66 641.74 268.79 634.29 268.55 627.3 264.15 618.56 265.17 613.33 Z" fill-rule="evenodd" fill="lightgrey" stroke="white" stroke-width="0.5"/>
<path d="M 1 212.53 3.45 211.47 3.98 205.57 1 200.07 1 180.63 6.06 177.87 10.13 180.13 11.4 183.2 10.7 189.26 14.28 193.94 12.13 197.29 16.99 202.14 23.96 203.32 32.93 206.44 37.42 205.62 41.93 202.56 45.95 204.84 56.49 204.38 61.05 203.1 65.26 204.36 71.35 201.64 68.9 197.15 69.83 194.17 67.21 190.75 60.28 189.25 59.53 183.02 64.18 185.51 70.09 182.76 75.99 183.12 76.22 177.87 83.95 171.23 87.33 166.35 94.39 165.68 100 161.04 99.55 157.68 104.68 153.18 107.96 156.29 116.25 158.47 123.84 152.75 130.56 152.18 137.9 159.79 141.74 165.58 138.32 170.26 139.38 172.33 145.12 171.14 152.37 172.56 156.69 175.6 156.44 182.06 151.61 187.77 153.18 192.05 140.59 195.12 129.98 206.63 125.58 208.41 125.78 215.66 128.41 219.69 126.29 222.29 127.15 226.05 121.47 233.02 121.02 236.05 124.6 240.52 119.79 254.94 119.14 261.48 116.03 263.08 108.97 261.2 106.4 262.2 107.65 279.09 103.57 286.35 106.73 297.05 101.85 301.58 97.1 302.53 93.55 287.92 90.87 283.75 89.28 275.85 84.26 266.84 78.58 276.19 80.05 279.91 75.84 282.1 72.86 276.67 66.94 269.28 67.31 263.25 69.26 259.36 78.14 257.82 81.28 253.13 82.21 245.57 85.51 241.99 76.71 237.32 67.61 238.32 63.25 236.94 56.24 238.15 48.21 237.99 37.46 233.43 36.12 222.57 31.61 219.58 27.44 220.77 23.09 217.98 20.62 212.95 10.19 211.47 6.19 217.85 5.49 222.57 12.44 227.75 14.92 230.87 19.14 230.83 22.52 237.6 14.34 237.52 11.12 242.16 8.96 248.25 11.5 251.31 17.98 254.97 22.66 255.55 21.21 268.51 24.92 272.21 24.86 275.76 29.9 277.99 28.59 282.45 34.83 299.43 34.26 303.85 36.66 309.86 28.32 307.97 22.15 311.06 20.67 306.03 16.48 305.4 12.29 309.08 3.72 311.19 1 313.46 1 212.53 Z M 127.77 479.38 126.14 484.89 128.09 494.94 124.54 506.29 121.12 507.65 123.5 498.13 123.99 478.14 127.77 479.38 Z" fill-rule="evenodd" fill="lightgrey" stroke="white" stroke-width="0.5"/>
<path d="M 14.28 193.94 10.7 189.26 11.4 183.2 10.13 180.13 6.06 177.87 1 180.63 1 1 510.71 1 504.87 5.33 501.41 10.95 503.68 14.37 498.78 16.47 494.59 23.29 490.75 25.75 487.74 36.63 489.81 41.99 492.29 42.07 499.16 46.75 511.55 51.61 517.72 60.8 528.21 72.8 534.18 81.46 535.87 85.81 545.9 90.8 548.85 96.31 556.54 99.6 555.72 104.26 548.4 101.01 545.57 102.78 551.21 108.71 559.77 113.25 566.71 120.71 557.99 123.72 552.08 128.27 550 134.61 553.15 135.88 556.52 132.7 560.45 132.72 567.81 139.32 575.1 141.62 574.54 146.77 577.5 155.4 572.25 155.26 575.25 163.23 573.52 166.65 577.98 173.12 570.17 173.27 564.98 187.64 565.9 190.3 564.47 196.35 557.02 204.49 550.73 204.54 556.61 211.48 554.26 219.68 555.92 222.89 556.02 231.38 551.59 229.44 549.44 232.77 545.17 244.23 543.86 249.81 541.08 248.54 534.33 252.29 534.38 260.57 528.55 263.03 527.8 265.69 521.96 270.24 518.2 271.05 517.54 275.68 510.65 282.48 502.66 286.72 499.59 283.89 495.44 287.95 489.64 285.88 486.87 289.83 483.54 285.98 475.86 290.76 473.37 291.3 470.28 292.86 462.93 282.17 459.51 284.16 464.71 290.37 464.94 297.56 454.59 304.61 444.02 308.04 439.37 306.88 433.82 311.64 423.37 312.66 419.47 314.2 409.73 322.7 410.19 325.49 418.08 333.03 416.31 336.64 411.67 337.71 403.67 329.95 401.19 323.89 402.32 315.17 396.99 312.41 391.68 313.92 389.66 310.15 377.37 309.03 369.91 312.54 366.6 309.41 358.21 310.22 348.46 302.72 345.83 301.93 340.96 293.37 343.69 287.92 341.89 284.42 335.76 284.7 331.14 282.11 327.11 283.41 316.85 275.26 308.3 279.99 307.94 285 301.65 288.11 298.94 285.29 293.71 290.37 289.09 285.82 282.57 288.27 279.55 292.18 276.9 292.16 272.76 288.43 267.4 289.55 263.58 293.98 255.26 293 253.58 297.43 259.04 306.01 260.12 316.23 252.65 318.87 249.42 311.17 248.06 306.96 244.07 308.64 240.22 312.87 234.85 311.75 227.61 307.74 226.46 301.15 212.53 299.38 214.74 291.99 213.14 287.43 216.37 282.76 212.58 279.3 207.79 279.66 204.25 275.67 202.28 269.43 198.22 265.52 197.61 262.01 194.27 258.92 188.64 258.97 183.87 260.93 180.32 258.84 175.08 246.23 177 244.51 177.86 236.21 185.86 229.51 187.19 224.88 190.88 223.16 187.38 218.55 189.88 217.14 188.09 205.01 184.96 196.79 183.24 188.62 177.93 186.62 176.74 189.45 171.45 180.57 170.85 177.16 161.9 170.09 158.72 169.25 156.69 175.6 152.37 172.56 145.12 171.14 139.38 172.33 138.32 170.26 141.74 165.58 137.9 159.79 130.56 152.18 123.84 152.75 116.25 158.47 107.96 156.29 104.68 153.18 99.55 157.68 100 161.04 94.39 165.68 87.33 166.35 83.95 171.23 76.22 177.87 75.99 183.12 70.09 182.76 64.18 185.51 59.53 183.02 58.99 181.02 52.34 178.54 49.71 180.6 42.11 178.25 39.8 175.27 33.69 173.2 26.95 174 22.43 177.28 15.82 187.99 14.28 193.94 Z M 429.14 349.19 424.12 355.34 422.13 369.59 416.87 372.47 416.45 375.51 411.01 375.39 408.89 379.75 405.93 377.57 397.91 375.97 392.06 373.17 388.43 358.46 398.36 344.4 405.25 342.54 410.63 343.62 416.74 341.11 420.56 343.17 426.76 342.86 429.14 349.19 Z M 559.45 106.61 560.8 110.04 550.02 105.64 551.94 103.3 559.45 106.61 Z" fill-rule="evenodd" fill="lightgrey" stroke="white" stroke-width="0.5"/>
<path d="M 645.23 1 649.58 13.2 653.97 15.84 657.12 27.19 655.94 34.46 653.05 36.73 646.24 34.42 644.65 37.86 640.4 39.81 637.43 37.64 630.23 40.48 620.61 48.2 615.52 47.85 610.89 44.88 611.49 40.78 606.99 32.15 607.91 20.04 601.93 14.18 600.78 9.86 595.69 3.41 589.94 1 645.23 1 Z M 632.17 68.56 631.75 71.98 623.19 74.21 621.45 68.84 628.84 66.82 632.17 68.56 Z" fill-rule="evenodd" fill="lightgrey" stroke="white" stroke-width="0.5"/>
<path d="M 59.53 183.02 60.28 189.25 67.21 190.75 69.83 194.17 68.9 197.15 71.35 201.64 65.26 204.36 61.05 203.1 56.49 204.38 45.95 204.84 41.93 202.56 37.42 205.62 32.93 206.44 23.96 203.32 16.99 202.14 12.13 197.29 14.28 193.94 15.82 187.99 22.43 177.28 26.95 174 33.69 173.2 39.8 175.27 42.11 178.25 49.71 180.6 52.34 178.54 58.99 181.02 59.53 183.02 Z" fill="lightgrey" stroke="white" stroke-width="0.5"/>
<path d="M 263.58 293.98 267.4 289.55 272.76 288.43 276.9 292.16 279.55 292.18 282.57 288.27 289.09 285.82 293.71 290.37 298.94 285.29 301.65 288.11 307.94 285 308.3 279.99 316.85 275.26 327.11 283.41 331.14 282.11 335.76 284.7 341.89 284.42 343.69 287.92 340.96 293.37 345.83 301.93 348.46 302.72 358.21 310.22 366.6 309.41 369.91 312.54 366.87 311.7 363.63 316.34 360.03 316.71 360.03 320.74 357.11 323.79 349.94 323.67 349.85 328.7 347.98 332.08 348.96 338.04 345.96 338.6 342.54 343.08 339.1 344.27 337.58 350.9 337.83 360.89 336.94 365.28 341.01 371.36 346.78 377.54 353.12 381.53 355.38 384.47 355.03 388.57 361.49 396.96 368.41 401.99 370.8 405.66 381.73 414.71 383.12 417.76 389.41 419.72 401.41 435.42 404.89 437.63 406.28 443.3 410.02 449.98 416.4 469.71 415.98 477.16 417.91 482.45 421.21 486.92 417.15 492.35 418.48 506.56 419.69 510.88 416.27 515.32 416.4 518.6 408.86 522.2 405.11 526.78 400.91 527.51 397.26 531.6 387.78 537.19 377.05 535.56 378.25 538.19 374.6 551.02 375.46 554.03 369.02 555.52 369.22 559.02 357.85 563.9 354.59 569.79 350.71 573.97 346.41 575.37 345.11 567.81 344.64 555.21 345.22 549.22 348.48 546.25 343.08 541.97 339.14 540.88 336.42 537.65 338.09 535.64 343.44 535.38 346.87 531 358.68 525.53 360.92 529.11 366.27 530.22 364.08 523.94 359.78 519.66 359.51 514.72 361.98 510.17 367.02 512.12 368.36 506.11 373.85 506.09 378.53 503.52 381.29 499.86 387.61 498.51 387.98 493.16 385.22 484.72 387.06 477.64 386.51 474.27 380.2 462.38 382.31 450.48 383.24 438.73 377.54 434.38 373.1 429.04 376.7 425.44 370.94 418.95 362.12 414.55 359.37 410.22 358.49 404.34 342.27 390.28 336.27 380.85 330.02 376.94 328.07 369.24 320.87 367.33 309.5 359.38 304.15 356.45 307.55 353.26 307.73 349.12 314.52 350.84 319.21 347.01 321.14 342.57 319.82 339.19 315.27 338.43 312.23 331.86 312.86 329.32 306.78 324.86 302.33 323.25 297.77 325.77 296.38 329.37 291.66 326.06 286.02 325.09 280.41 316.2 280.31 307.42 275.34 309.03 273.51 304.08 266.03 297.43 263.58 293.98 Z" fill="lightgrey" stroke="white" stroke-width="0.5"/>
<path d="M 382.31 450.48 380.2 462.38 386.51 474.27 387.06 477.64 385.22 484.72 387.98 493.16 387.61 498.51 381.29 499.86 378.53 503.52 373.85 506.09 368.36 506.11 367.02 512.12 361.98 510.17 359.51 514.72 359.78 519.66 364.08 523.94 366.27 530.22 360.92 529.11 358.68 525.53 346.87 531 343.44 535.38 338.09 535.64 336.42 537.65 333.27 535.19 325.47 534.26 321.49 536 321.24 525.24 316.89 528.2 311.32 527.19 310.75 516.52 306.82 512.7 306.6 510.27 302.08 502.68 302.71 497.03 298.6 492.66 296.31 485.03 293.16 479.56 292.61 473.67 295.83 473.62 304.36 458.8 312.34 456.23 318.23 457.83 324.8 456.66 328.73 457.55 334.04 455.87 341.62 457.78 345.1 462.66 348.27 461.47 354.86 466.1 359.37 463.34 355.63 458.06 363.31 455.33 364.66 452.81 370.32 458.25 373.04 458.23 380.84 453.76 382.31 450.48 Z" fill="lightgrey" stroke="white" stroke-width="0.5"/>
<path d="M 249.42 311.17 252.65 318.87 260.12 316.23 259.04 306.01 253.58 297.43 255.26 293 263.58 293.98 266.03 297.43 273.51 304.08 275.34 309.03 280.31 307.42 280.41 316.2 286.02 325.09 291.66 326.06 296.38 329.37 297.77 325.77 302.33 323.25 306.78 324.86 312.86 329.32 312.23 331.86 315.27 338.43 319.82 339.19 321.14 342.57 319.21 347.01 314.52 350.84 307.73 349.12 307.55 353.26 304.15 356.45 309.5 359.38 320.87 367.33 328.07 369.24 330.02 376.94 336.27 380.85 342.27 390.28 358.49 404.34 359.37 410.22 362.12 414.55 370.94 418.95 376.7 425.44 373.1 429.04 377.54 434.38 383.24 438.73 382.31 450.48 380.84 453.76 373.04 458.23 370.32 458.25 364.66 452.81 363.31 455.33 355.63 458.06 359.37 463.34 354.86 466.1 348.27 461.47 345.1 462.66 341.62 457.78 345.54 456.1 346.81 452.74 346.04 438.93 346.62 431.56 342.66 428.91 341.19 423.75 334.42 421.25 333.56 418.5 328.21 413.37 326.62 403.28 326.86 396.2 316.04 386.36 309.55 376.97 298.5 374.46 296.22 375.3 293.51 383.63 286.09 386.49 285.23 384.04 275.85 379.09 268.96 385.58 261.29 394.4 256.92 392.36 257.84 385.58 260.16 382.36 258.97 376.6 256.66 374.74 259.64 369.74 258.04 360.18 254.92 351.61 250.36 350.63 248.46 353.23 243.3 352.18 241.23 347.56 243.13 341.4 239.06 335.25 234.54 336.29 235.37 328.57 240.15 324.72 242.54 316.07 247.14 314.16 249.42 311.17 Z" fill="lightgrey" stroke="white" stroke-width="0.5"/>
<path d="M 292.97 632.29 290.72 629.46 284.91 631.89 281.59 629.19 281.46 622.54 276.79 622.27 276.34 619.12 268.73 616.94 265.17 613.33 264.15 618.56 257.84 610.84 255.65 604.85 252.43 600.88 249.55 600.37 247.92 594.59 234.6 579.25 229.01 581.97 227.43 571.91 229.82 565.07 228.66 562.39 234.53 539.06 234.35 532.17 242.04 521.82 247.87 509.25 244.38 502.94 242.21 493.5 238.72 490.56 235.85 481.67 237.3 480.49 235.61 470.62 231.15 463.41 223.38 457.13 216.97 448.44 214.81 441.91 216.51 438.57 221.28 437.24 220.03 429.51 220.58 417.99 215.9 409.42 214.75 403.55 208 397.63 201.07 389.97 199.99 384.07 192.92 373.51 198.2 371.59 195.55 364.61 197.71 360.82 196.1 355.01 196.93 351.8 203.15 348.7 208.81 349.35 216.71 345.89 216.27 341.92 221.13 341.49 231.38 333.73 234.54 336.29 239.06 335.25 243.13 341.4 241.23 347.56 243.3 352.18 248.46 353.23 250.36 350.63 254.92 351.61 258.04 360.18 259.64 369.74 256.66 374.74 258.97 376.6 260.16 382.36 257.84 385.58 256.92 392.36 261.29 394.4 268.96 385.58 275.85 379.09 285.23 384.04 286.09 386.49 293.51 383.63 296.22 375.3 298.5 374.46 309.55 376.97 316.04 386.36 326.86 396.2 326.62 403.28 328.21 413.37 333.56 418.5 334.42 421.25 341.19 423.75 342.66 428.91 346.62 431.56 346.04 438.93 346.81 452.74 345.54 456.1 341.62 457.78 334.04 455.87 328.73 457.55 324.8 456.66 318.23 457.83 312.34 456.23 304.36 458.8 295.83 473.62 292.61 473.67 293.16 479.56 296.31 485.03 298.6 492.66 302.71 497.03 302.08 502.68 306.6 510.27 306.82 512.7 303.16 504.68 300.84 502.41 294.77 501.64 293.31 498.92 285.52 491.81 278.7 492.79 272.26 491.66 269.49 492.91 267.67 483.16 268.19 475.63 256.33 474.88 252.07 476.96 251.1 479.89 253.96 483.99 252.26 492.78 254.14 501.58 251.62 506.14 246.66 523.51 247.42 528.25 241.75 538.92 243.34 553.44 249.21 562.44 255.86 560.53 258.63 573.9 263.55 577.74 266.4 594.68 264.04 596.75 268.14 602.92 272.03 603.3 275.02 607.56 279.32 610.13 286.22 609.14 289.54 610.63 293.57 617.37 299.23 622.32 299.16 625.63 294.85 632.85 292.97 632.29 Z" fill="lightgrey" stroke="white" stroke-width="0.5"/>
<path d="M 696.28 936.36 693.23 942.64 688.47 939.66 696.28 936.36 Z M 706.68 942.58 705.04 931.93 709.61 925.2 723.34 922.14 726.34 922.97 732.64 920.88 734.99 922.26 742.76 918.64 748.59 921.15 742.93 926.12 735.09 928.75 732.1 931.78 727.31 932.46 723.16 935.26 717.01 936.49 706.68 942.58 Z" fill-rule="evenodd" fill="lightgrey" stroke="white" stroke-width="0.5"/>
<path d="M 535.1 649.76 537.64 655.29 538.87 661.84 535.01 660.46 533.1 651.55 535.1 649.76 Z M 532.17 650.16 528.19 653.22 530.07 660.98 529.03 665.56 525.89 667.81 519.35 658.45 514.81 656.01 519.35 656.19 524.24 654.13 527.53 650.42 532.17 650.16 Z" fill-rule="evenodd" fill="lightgrey" stroke="white" stroke-width="0.5"/>
<path d="M 97.1 302.53 101.85 301.58 106.73 297.05 103.57 286.35 107.65 279.09 106.4 262.2 108.97 261.2 116.03 263.08 119.14 261.48 119.79 254.94 124.6 240.52 121.02 236.05 121.47 233.02 127.15 226.05 126.29 222.29 128.41 219.69 125.78 215.66 125.58 208.41 129.98 206.63 140.59 195.12 153.18 192.05 151.61 187.77 156.44 182.06 156.69 175.6 158.72 169.25 161.9 170.09 170.85 177.16 171.45 180.57 176.74 189.45 177.93 186.62 183.24 188.62 184.96 196.79 188.09 205.01 189.88 217.14 187.38 218.55 190.88 223.16 187.19 224.88 185.86 229.51 177.86 236.21 177 244.51 175.08 246.23 180.32 258.84 183.87 260.93 188.64 258.97 194.27 258.92 197.61 262.01 198.22 265.52 202.28 269.43 204.25 275.67 207.79 279.66 212.58 279.3 216.37 282.76 213.14 287.43 214.74 291.99 212.53 299.38 226.46 301.15 227.61 307.74 234.85 311.75 240.22 312.87 244.07 308.64 248.06 306.96 249.42 311.17 247.14 314.16 242.54 316.07 240.15 324.72 235.37 328.57 234.54 336.29 231.38 333.73 221.13 341.49 216.27 341.92 216.71 345.89 208.81 349.35 203.15 348.7 196.93 351.8 196.1 355.01 197.71 360.82 195.55 364.61 198.2 371.59 192.92 373.51 199.99 384.07 201.07 389.97 208 397.63 214.75 403.55 215.9 409.42 220.58 417.99 220.03 429.51 221.28 437.24 216.51 438.57 214.81 441.91 216.97 448.44 223.38 457.13 231.15 463.41 235.61 470.62 237.3 480.49 235.85 481.67 238.72 490.56 242.21 493.5 244.38 502.94 247.87 509.25 242.04 521.82 234.35 532.17 234.53 539.06 230.6 538.78 228.81 531.63 233 527.38 232.43 511.98 231.36 506.23 227.78 499.81 229.09 491.77 226.48 481.36 220.49 471.51 218.24 470.26 215.54 464.61 216.1 462.12 208.81 446.91 208.33 440.91 204.87 426.41 202.25 423.94 202.74 418.36 200.27 413.18 194.65 409.93 192.84 403.84 189.84 398.67 186.48 409.13 183.77 413.59 179.02 415.19 169.46 421.17 168.34 425.16 164.15 429.9 154.43 428.55 148.72 424.91 142.25 423.22 141.95 417.04 143.79 408.09 143.11 406.09 145.42 397.46 144.93 394.37 145.01 391.27 141.42 383.99 141.68 381.53 136.07 370.45 131.73 365.97 124.93 362.7 129.35 355.23 121.42 347.16 116.56 340.96 112.82 342.87 105.61 338.66 102.9 334.25 97.32 328.52 94.26 321.17 92.1 315.96 94.13 313.02 98.75 312.33 97.1 302.53 Z" fill="lightgrey" stroke="white" stroke-width="0.5"/>
<path d="M 34.83 299.43 28.59 282.45 29.9 277.99 24.86 275.76 24.92 272.21 21.21 268.51 22.66 255.55 17.98 254.97 11.5 251.31 8.96 248.25 11.12 242.16 14.34 237.52 22.52 237.6 19.14 230.83 14.92 230.87 12.44 227.75 5.49 222.57 6.19 217.85 10.19 211.47 20.62 212.95 23.09 217.98 27.44 220.77 31.61 219.58 36.12 222.57 37.46 233.43 48.21 237.99 56.24 238.15 63.25 236.94 67.61 238.32 76.71 237.32 85.51 241.99 82.21 245.57 81.28 253.13 78.14 257.82 69.26 259.36 67.31 263.25 66.94 269.28 72.86 276.67 75.84 282.1 80.05 279.91 78.58 276.19 84.26 266.84 89.28 275.85 90.87 283.75 93.55 287.92 97.1 302.53 98.75 312.33 94.13 313.02 92.1 315.96 94.26 321.17 90.25 319.27 86.95 306.57 79.63 291.2 75.02 286.11 71.88 290.37 66.84 290.36 63.06 286.24 59.55 279.97 56.65 286.55 61.04 292.6 61.61 295.67 57.46 301.3 55.54 306.12 52.55 304.87 46.59 307.14 36.49 305.82 34.83 299.43 Z" fill="lightgrey" stroke="white" stroke-width="0.5"/>
<path d="M 1 200.07 3.98 205.57 3.45 211.47 1 212.53 1 200.07 Z" fill="lightgrey" stroke="white" stroke-width="0.5"/>
<path d="M 694.04 1065 690.21 1061.63 689.73 1057.08 694.61 1055.76 697.59 1057.82 698.64 1047.23 711.89 1042.2 713.88 1039.02 721.28 1034.25 724.31 1037.63 727.98 1033.25 732.79 1030.92 738.67 1033.23 745.74 1044.53 749.94 1048.62 746.69 1057.3 756.13 1049.73 764.96 1052.32 768.11 1051.57 774.74 1053.59 775.43 1045.93 771.86 1042.73 779.76 1031.98 783.58 1024.11 785.27 1024.86 791.27 1020.56 788.96 1017.25 789.73 1012.86 793.94 1010.87 794.2 1007.87 799 1008.22 799 1065 694.04 1065 Z M 799 990.45 794.18 986.68 793.58 983.33 797.54 980.29 799 990.45 Z" fill-rule="evenodd" fill="lightgrey" stroke="white" stroke-width="0.5"/>
<path d="M 645.79 627.44 637.9 629.88 639.6 625.58 645.79 627.44 Z M 723.82 600.01 720.87 602.39 716.7 611.93 717.08 615.38 720.34 617.04 723.18 624.51 722.72 628.57 718.15 636.23 714.18 631.66 703.45 627.58 696.94 623.76 694.07 620.14 691.11 610.85 691.87 604.87 695.37 598.99 691.83 594.95 685.44 591.03 676.92 596.73 672.86 597.71 669.79 596.03 669.23 592.09 665.3 591.73 662.77 594.83 658.51 608.68 653.76 606.05 656.08 601.09 656.84 590.63 659.48 586.67 670.6 583.82 672.4 576.6 677.27 575.75 679.66 572.73 684.83 574.51 687.14 579.46 687.67 584.73 693.93 582.54 696.42 574.51 702.81 576.7 702.58 567.56 704.91 566.65 714.72 566.83 715.8 562.68 712.37 552.67 722.29 556.51 729.99 567.42 730.08 571.24 733.86 582.19 733.44 590.26 736.78 592.58 737.97 601.97 733.61 607.21 728.98 610.42 727.01 608.44 723.82 600.01 Z M 591.69 555.93 586.83 562.88 583.27 563.95 581.53 568.82 577.52 572.57 568.98 573.84 574.85 565.35 578.98 561.21 582.84 559.66 586.25 553.59 589.32 550.78 593.8 542.23 601.37 535.85 602.15 531.47 599.73 528.88 604.48 523.03 605.05 529.14 609.35 535.64 603.1 539.5 600.74 545.04 595.13 546.76 591.69 555.93 Z M 617.36 504.9 610.88 504.98 611.04 500.35 617.36 504.9 Z M 706.45 533.53 708.27 541.01 700.44 543.1 699.23 538.14 699.09 529.48 695.92 525.8 691.61 524.5 691.4 519.69 701.59 518.09 703.69 526.49 703.2 529.97 706.45 533.53 Z M 705.43 499.36 708.85 500.44 709.8 513.58 712.23 520.39 709.56 523.71 706.23 523.17 701.84 517.3 701.34 513.13 694.71 504.9 689.1 500.99 686.32 494.65 693.55 495 702.09 493.74 705.43 499.36 Z M 638.74 413.74 638.92 419.2 631.41 422.57 628.77 425.51 630.48 429.77 627.18 438.2 632.35 447.34 636.69 460.99 640.86 464.91 649.42 457.78 654.47 458.06 659.73 462.66 662.48 470.47 668.45 465.82 677.09 469.21 670.22 472.41 675.8 478.88 675.39 482.01 681.48 484.83 683.3 489.28 683.03 494.17 678.96 492.38 677.44 488.58 670.19 484.41 664.28 476.02 657.43 471.86 651.66 465.61 651.78 471.89 654.26 473.91 652.59 477.67 644.76 469.86 636.66 466.32 633.2 467.83 630.21 473.05 625.73 472.1 622.55 466.72 617.81 467.94 616.28 460.74 622.26 454.6 619.02 449.28 615.61 448.8 615.21 455.84 605.77 448.66 598.64 425.86 596.36 425.26 595.54 419.99 597.99 419.03 603.71 423.45 607.14 420.76 603.46 411.68 604.98 404.56 603.87 396.3 601.31 392.47 602.79 372.49 611.19 370.37 621.16 376.13 627.82 377.63 631.32 372.82 633.83 378.33 632.05 380.99 633.4 391.19 635.97 396.46 639.47 397.84 641.83 401.95 638.74 413.74 Z M 656.86 612.51 662.05 615.07 659.73 618.38 656.86 612.51 Z M 697.11 548.82 694.73 553.13 688.66 554.42 683.71 550.2 689.79 543.25 697.25 545.7 697.11 548.82 Z M 666.27 533.61 666.58 528.36 670.76 525.92 677.58 529.39 671.92 548.88 672.1 555.29 675.79 559.55 674.56 564.34 671.15 565.81 667.74 559.97 662.72 557.73 658.35 549.51 659.52 546.71 663.67 546.46 666.49 543.78 664.59 535.71 666.27 533.61 Z M 685.01 539.89 681.45 543 678.39 555.01 675.38 556.2 675.84 547.35 680.64 536.79 684.16 524.27 686.23 528.1 686.38 538.44 685.01 539.89 Z M 644.83 510.19 646.43 506.85 654.46 511.05 659.66 515.14 664.25 516.93 669.08 516.33 667.01 523.98 663.09 526.72 660.21 531.97 653.83 533.12 650.82 536.69 648.39 530.41 649.83 525.49 649.6 512.46 644.83 510.19 Z M 684.07 509.57 678.62 507.22 668.69 496.88 671.59 495.08 680.05 501.17 683.39 505.74 684.07 509.57 Z M 623.58 474.89 629.62 476.94 633.86 480.6 637.35 492.4 633.34 500.03 630.88 500.58 623.79 490.66 622.43 485.11 616.72 479.02 617.71 474.72 623.58 474.89 Z M 685.41 467.4 685.35 470.68 681.92 474.38 679.7 463.81 685.41 467.4 Z" fill-rule="evenodd" fill="lightgrey" stroke="white" stroke-width="0.5"/>
<path d="M 584.12 242.03 585.2 240.02 593.56 235.52 599.47 238.73 599.47 244 601.44 250.19 599.65 257.46 599.48 278.77 594.03 291.36 594.64 300.94 591.85 302.45 589.18 296.07 583.21 291.5 575.93 278.66 575.63 265.97 580.99 249.04 584.12 242.03 Z" fill="lightgrey" stroke="white" stroke-width="0.5"/>
<path d="M 720.21 109.39 720.56 114.4 715.9 116.51 715.09 111.97 706 113.97 705.03 106.24 700.92 102.9 700.98 96.02 702.52 89.94 702.07 85.44 694.74 76.61 689.62 76.21 692.97 82.5 687.38 83.66 682.11 78.71 678.7 73.69 688.35 66.61 691.97 59.28 695.64 60.06 701.3 65.37 712.81 66.48 713.76 70.02 718.04 75.69 723.26 79.57 720.8 87.75 722.1 101.14 724.27 110.44 720.21 109.39 Z M 753.45 53.71 756.38 53.21 760.06 58.93 759.84 63.31 756.78 67.95 757.62 73.24 750.97 68.24 747.43 67.35 741.07 71.23 739.54 77.8 739.86 82.8 734.69 82.37 729.63 77.21 729.8 73.67 724.9 68.81 727.77 63.73 726.9 58.02 730.86 56.87 733.53 59.3 739.78 58.65 740.04 54.19 743.51 50.3 746.93 50.1 753.45 53.71 Z M 702.31 44.28 704.89 42.51 712.77 31.84 712.81 28.05 718.05 25.47 723.07 28.16 737.67 26.51 741.54 23.96 748.42 24.59 752.24 21.92 754.63 26.6 759.65 27.49 766.22 24.54 765.98 20.86 762.63 17.84 763.18 12.74 766.11 8.51 767.4 1 799 1 799 44.66 797.24 42.36 790.23 42.17 783.93 37.94 784.4 44.1 793.41 49.12 788.21 52.39 784.36 61.06 784.77 66.22 782.44 68.49 776.37 67.08 774.02 63.77 766.93 60.27 766.76 55.18 763.43 52.51 766.78 46.6 764.16 43.54 759.91 45.24 753.5 42.36 745.71 43.89 740.62 48.55 731.19 49.27 729.19 51.49 721.37 53.51 719.02 50.58 715.45 53.09 717.49 58.16 715.67 60.08 708.89 56.8 702.03 59.43 693.43 55.65 691.96 50.73 698.81 49.96 702.31 44.28 Z" fill-rule="evenodd" fill="lightgrey" stroke="white" stroke-width="0.5"/>
</g>
<g id="secondary">
<path d="M 579.27 665 571.88 661.47 559.86 661.63 553.19 660.53 544.79 664.8 543.08 670.32 544.58 679.61 542.44 687.96 538.44 687.74 535.45 692.08 536.74 699.18 530.21 705.81 531.77 710.91 526.02 720.4 515.4 720.27 510.8 724.53 500.66 720.5 499.44 718.35 489.49 717.72 484.32 720.14 482.99 726.12 478.05 729.1 469.58 728.99 466.79 727.74 460.62 729.33 455.29 732.29 442.35 721.07 438.64 716.31 436.5 711.17 438.5 707.24 438.74 710.21 443.76 715.19 451.63 714.71 458.17 718.13 462.52 719.03 469.26 702 470.4 695.09 474.42 691.78 480.57 690.91 497.64 685.65 502.83 678.74 505.43 673.26 510.65 668.22 514.18 662.67 514.81 656.01 519.35 658.45 525.89 667.81 529.03 665.56 530.07 660.98 528.19 653.22 532.17 650.16 533.1 651.55 535.01 660.46 538.87 661.84 537.64 655.29 535.1 649.76 538.92 649.88 542.32 646.53 538.52 641.4 541.7 636.91 547.04 636.51 550.36 630.77 552.64 623.12 557.73 617.48 560 612.97 568.59 607.14 572.01 614.77 578.1 616.94 580.1 619.63 577.75 623.53 580.88 629.47 585.38 626.32 587.54 630.33 592.74 631.7 603.19 639.19 607.37 638.88 608.75 643.81 606.86 645.74 598.51 649.03 592.59 647.11 588.79 650.29 592.56 654.99 597.46 657.68 596.6 660.92 585.02 663.02 580.89 659.58 579.27 665 Z M 265.17 613.33 268.73 616.94 276.34 619.12 276.79 622.27 281.46 622.54 281.59 629.19 284.91 631.89 290.72 629.46 292.97 632.29 294.85 632.85 299.16 625.63 299.23 622.32 303.65 623.68 308.04 630.51 318.86 640.14 325.28 652.07 326.49 661.4 324.16 673.16 326.92 678.17 326.43 689.36 330.27 695.26 332.61 696.24 336.04 702.01 342.64 720.19 341.32 722.23 334.46 719.58 328.49 723.37 325.95 718.32 315.71 711.77 309.93 707.04 304.47 704.53 297 697.21 292.63 695.48 287.82 690.39 289.38 688.54 287.85 683 282.99 675.93 277.07 670.93 277.9 666.48 273.93 661.75 274.96 657.4 273.7 650.86 269.68 646.19 270.66 641.74 268.79 634.29 268.55 627.3 264.15 618.56 265.17 613.33 Z" fill-rule="evenodd" fill="#c6dbef" stroke="white" stroke-width="0.5"/>
<path d="M 341.62 457.78 334.04 455.87 328.73 457.55 324.8 456.66 318.23 457.83 312.34 456.23 304.36 458.8 295.83 473.62 292.61 473.67 293.16 479.56 296.31 485.03 298.6 492.66 302.71 497.03 302.08 502.68 306.6 510.27 306.82 512.7 303.16 504.68 300.84 502.41 294.77 501.64 293.31 498.92 285.52 491.81 278.7 492.79 272.26 491.66 269.49 492.91 267.67 483.16 268.19 475.63 256.33 474.88 252.07 476.96 251.1 479.89 253.96 483.99 252.26 492.78 254.14 501.58 251.62 506.14 246.66 523.51 247.42 528.25 241.75 538.92 243.34 553.44 249.21 562.44 255.86 560.53 258.63 573.9 263.55 577.74 266.4 594.68 264.04 596.75 268.14 602.92 272.03 603.3 275.02 607.56 279.32 610.13 286.22 609.14 289.54 610.63 293.57 617.37 299.23 622.32 299.16 625.63 294.85 632.85 292.97 632.29 290.72 629.46 284.91 631.89 281.59 629.19 281.46 622.54 276.79 622.27 276.34 619.12 268.73 616.94 265.17 613.33 264.15 618.56 257.84 610.84 255.65 604.85 252.43 600.88 249.55 600.37 247.92 594.59 234.6 579.25 229.01 581.97 227.43 571.91 229.82 565.07 228.66 562.39 234.53 539.06 234.35 532.17 242.04 521.82 247.87 509.25 244.38 502.94 242.21 493.5 238.72 490.56 235.85 481.67 237.3 480.49 235.61 470.62 231.15 463.41 223.38 457.13 216.97 448.44 214.81 441.91 216.51 438.57 221.28 437.24 220.03 429.51 220.58 417.99 215.9 409.42 214.75 403.55 208 397.63 201.07 389.97 199.99 384.07 192.92 373.51 198.2 371.59 195.55 364.61 197.71 360.82 196.1 355.01 196.93 351.8 203.15 348.7 208.81 349.35 216.71 345.89 216.27 341.92 221.13 341.49 231.38 333.73 234.54 336.29 239.06 335.25 243.13 341.4 241.23 347.56 243.3 352.18 248.46 353.23 250.36 350.63 254.92 351.61 258.04 360.18 259.64 369.74 256.66 374.74 258.97 376.6 260.16 382.36 257.84 385.58 256.92 392.36 261.29 394.4 268.96 385.58 275.85 379.09 285.23 384.04 286.09 386.49 293.51 383.63 296.22 375.3 298.5 374.46 309.55 376.97 316.04 386.36 326.86 396.2 326.62 403.28 328.21 413.37 333.56 418.5 334.42 421.25 341.19 423.75 342.66 428.91 346.62 431.56 346.04 438.93 346.81 452.74 345.54 456.1 341.62 457.78 Z" fill="#c6dbef" stroke="white" stroke-width="0.5"/>
</g>
<g id="selected">
<path d="M 299.23 622.32 303.65 623.68 308.04 630.51 305.41 633.95 306.39 644.24 310.11 654.13 303 655.15 298.54 652.95 293.38 656.7 288.3 655.78 290.46 642.32 291.97 640.57 292.97 632.29 294.85 632.85 299.16 625.63 299.23 622.32 Z" fill="#084594" stroke="#9ecae1" stroke-width="0.6"/>
</g>
</svg>