<?xml version="1.0"?>
<svg xmlns="http://www.w3.org/2000/svg" version="1.2" baseProfile="tiny" width="800" height="1066" viewBox="0 0 800 1066" stroke-linecap="round" stroke-linejoin="round">
<g id="ne_10m_admin_1_states_provinces_lakes">
<path d="M 281.42 150.19 280.39 150.25 276.03 146.71 269.94 148.27 267.02 146.96 269.38 143.56 276.15 144.64 283.86 142.4 284.3 148.82 282.91 150.48 281.43 150.2 281.42 150.19 Z M 504.08 575.7 490.19 575.7 448.72 560.1 440.13 553.36 431.65 540.82 429.53 533.72 432.45 528.35 436.56 520.64 445.11 531.44 451.46 536.9 461.02 537.55 472.41 530.3 481.45 533.17 493.9 525.61 504.92 526.04 511.64 523.12 515.63 524.4 516.69 552.76 504.08 575.7 Z" fill-rule="evenodd" fill="lightgrey" stroke="white" stroke-width="0.5"/>
<path d="M 267.02 146.96 269.94 148.27 276.03 146.71 280.39 150.25 279.4 152.63 271.97 155.58 268.58 155.29 263.84 153.71 262.01 149.8 265.58 147.01 266.08 146.87 267.02 146.96 Z" fill="lightgrey" stroke="white" stroke-width="0.5"/>
<path d="M 799 371.91 781.36 355.17 777.36 350.19 786.4 349.24 793.71 345.99 796.02 339.94 787.08 343.07 780.41 341.57 770.14 334.69 764.24 325.8 771.36 323.85 770.76 318.74 782.15 318.94 787.92 320.7 795.43 316.62 799 319.39 799 371.91 Z M 799 308.11 794.45 300.73 793.65 296.47 788.69 296.54 785.34 292.08 785.33 283.41 780.59 282.61 775.31 279.03 775.88 273.02 784.1 260.04 791.5 264.93 799 262.33 799 308.11 Z" fill-rule="evenodd" fill="lightgrey" stroke="white" stroke-width="0.5"/>
<path d="M 799 92.38 791.76 93.14 790.21 87 785.74 79.87 787.6 70.27 792.08 69.56 799 64.31 799 92.38 Z" fill="lightgrey" stroke="white" stroke-width="0.5"/>
<path d="M 293.95 209.57 296.46 203.7 298.93 197.89 302.23 179.95 307.19 179.97 311.13 174.94 312.84 182.22 311.47 185.39 309.48 191.06 304.54 188.57 301.82 194.19 303.37 199.32 301.9 206.65 309.61 205.14 309.98 211.27 307.05 221.89 307.54 226.23 305.88 235.64 305.06 236.72 303.86 232.75 293.95 209.57 Z" fill="lightgrey" stroke="white" stroke-width="0.5"/>
<path d="M 296.46 203.7 293.95 209.57 293.15 207.94 296.46 203.7 Z M 309.61 205.14 301.9 206.65 303.37 199.32 301.82 194.19 304.54 188.57 309.48 191.06 310.51 200.83 309.61 205.14 Z" fill-rule="evenodd" fill="lightgrey" stroke="white" stroke-width="0.5"/>
<path d="M 311.13 174.94 307.19 179.97 302.23 179.95 307 166.9 307.12 162.41 310.8 155.34 316.41 156.19 320 162.45 313.41 168.48 311.13 174.94 Z" fill="lightgrey" stroke="white" stroke-width="0.5"/>
<path d="M 432.45 528.35 429.53 533.72 431.65 540.82 440.13 553.36 448.72 560.1 490.19 575.7 504.08 575.7 483.07 599.36 462.98 624.36 449.44 623.69 437.7 628.52 433.22 634.23 424.13 635.58 420.7 639.09 409.98 639.33 405.02 634.24 392.38 640.82 386.73 647.21 366.36 643.05 350.44 631.91 339.27 631.73 337.55 628.96 335.62 626.68 335.83 618.09 325.87 613.14 323.95 607.06 320.52 597.13 317.59 595.32 306.09 581.05 296.81 578.78 298.33 569.27 309.38 568.62 311.28 565.77 310.41 552.71 313.62 539.87 312.86 535.19 316.99 530.24 321.81 530.77 321.8 524 325.22 514.19 330.42 503.49 337.35 501.18 338.51 491.09 340.44 487.78 342 476.86 349.53 476.52 352.46 473.8 356.43 479.18 360.42 467.15 368.13 474.44 382.72 472.75 391.25 473.67 401.57 479.35 406.87 487.08 414.3 492.88 417.79 498.74 424.04 505.21 415.87 519.85 416.87 528.8 428.13 526.92 432.45 528.35 Z" fill="lightgrey" stroke="white" stroke-width="0.5"/>
<path d="M 310.41 552.71 311.28 565.77 309.38 568.62 298.33 569.27 296.81 578.78 306.09 581.05 317.59 595.32 320.52 597.13 323.95 607.06 325.87 613.14 335.83 618.09 335.62 626.68 337.55 628.96 333.23 628.95 332.61 624.47 328.07 623.25 316.13 628.95 310.59 635.27 304.49 642.29 297.3 640.67 282.4 645.18 280.1 641.64 276.29 644.1 271.2 642.12 267.05 646.77 262.81 641.23 258.15 639.51 248.11 628.19 245.52 632.63 237.86 629.99 233.02 634.35 224.17 629.33 219.48 621.85 217.5 619.72 215.58 611.6 209.06 607.03 203.2 601.08 204.38 596.89 199.41 591.47 190.08 586.13 188.89 581.02 182.56 573.03 172.79 570.24 173.25 564.78 178.59 561.66 181.59 547.28 185.49 539.48 195.98 537.51 196.85 541.09 206.15 551.67 213.38 550.3 224.69 550.48 226.85 554.65 237.93 554.76 240.14 550.36 246.66 547.86 248.4 543.19 253.83 539.84 264.23 548.27 270.95 547.38 276.76 540.73 280.44 533.77 286.81 527.53 285.57 517.15 281.8 512.56 290.99 512.52 290.69 509.15 297.3 509.24 295.84 519.11 297.54 530.81 307.79 541.08 310.41 552.71 Z" fill="lightgrey" stroke="white" stroke-width="0.5"/>
<path d="M 504.08 575.7 516.69 552.76 515.63 524.4 524.33 521.08 533.82 519.04 540.87 512.73 547.83 515.19 545.41 525.37 547.29 535.45 543.77 538.93 543.07 552.68 537.58 562.13 535.94 567.97 529.97 576.23 529.75 579.75 523.78 591.01 519.95 600.64 519.52 604.91 514.34 615.39 508.35 624.4 504.96 631.52 486.93 654.13 478.71 663.36 458.28 677.23 443.28 692.03 423.95 715.43 416.27 728.57 416.11 726.62 408.61 715.55 408.15 657.43 413.33 651.33 420.7 639.09 424.13 635.58 433.22 634.23 437.7 628.52 449.44 623.69 462.98 624.36 483.07 599.36 504.08 575.7 Z" fill="lightgrey" stroke="white" stroke-width="0.5"/>
<path d="M 337.55 628.96 339.27 631.73 350.44 631.91 366.36 643.05 386.73 647.21 392.38 640.82 405.02 634.24 409.98 639.33 420.7 639.09 413.33 651.33 408.15 657.43 408.61 715.55 416.11 726.62 416.27 728.57 413 732.67 407.43 734.63 406.33 739.27 397.16 745.39 396.42 753.1 392.45 758.99 388.12 771.24 383.03 775.59 363.51 759.47 361.05 755.5 361.88 749.86 312.4 718.42 312.19 710.63 315.62 707.98 311.34 697.94 318.43 684.43 322.47 682.39 324.94 675.39 324.08 662.75 317.15 651.63 317.14 643.97 313.48 641.95 310.59 635.27 316.13 628.95 328.07 623.25 332.61 624.47 333.23 628.95 337.55 628.96 Z" fill="lightgrey" stroke="white" stroke-width="0.5"/>
<path d="M 304.52 853.39 308.11 855.08 308.75 859.56 312.8 866.48 311.86 869.4 312.86 886.22 308.67 894.04 310.52 897.33 312.49 907.04 312.11 913.09 316.22 917.94 314.6 922.28 323.46 924.2 319.4 914.95 322.42 917.95 332.44 933.14 331.14 941.46 330.72 954.24 324.82 956.38 322.37 961.79 323.15 971.57 311.17 957.1 309.28 952.42 314.33 942.66 313.85 931.69 311.79 928.72 303.84 930.97 299.31 928.62 296.26 922.83 289.87 915.89 293.84 909.85 294.55 900.73 299.42 899.25 298 892.22 297.96 881.87 300.29 877.9 299.45 872.43 304.47 868.63 300.46 857.93 294.47 850.19 304.52 853.39 Z" fill="lightgrey" stroke="white" stroke-width="0.5"/>
<path d="M 312.4 718.42 361.88 749.86 361.05 755.5 363.51 759.47 383.03 775.59 380.16 788.01 376.92 796.93 377.86 801.94 386.21 809.97 387.28 814.08 383.79 819.29 385.68 828.15 383.14 832.86 385.8 845.01 387.84 846.74 389.4 858.43 395.55 862.69 398.26 867.02 392.15 872.32 381.97 877.73 376.56 877.95 371.2 881.34 365.08 879.34 360.95 884.12 355.94 886.7 350.69 884.7 338.94 886.36 333.92 881.82 331.46 884.42 321.9 884.35 321.32 881.91 321.01 881.55 318.96 879.54 318.67 879 318.27 871.4 315.94 858.68 313.33 854.93 312.01 853.32 310.64 851.99 310.5 851.8 308.11 855.08 304.52 853.39 294.47 850.19 287.11 845.87 277.32 842.39 275.53 839.08 270.4 837.28 270.15 834.71 262.61 820.23 262.5 811.53 256.4 803.57 250.81 800.33 254.13 793.23 251.4 787.47 252.59 782.57 249.45 779.06 250.38 772.01 255.27 769.19 261.89 757.22 267 751.86 261.25 746.79 263.24 739.68 267.14 738.81 267.18 726.96 262.21 718.64 267.18 717.63 280.48 717.63 281.06 717.63 281.25 717.63 281.69 719.95 278.89 731.7 278.28 738.35 283.28 741.1 302.19 741.22 302.08 730.62 312.4 718.42 Z" fill="lightgrey" stroke="white" stroke-width="0.5"/>
<path d="M 311.47 185.39 312.84 182.22 311.13 174.94 313.41 168.48 320 162.45 316.41 156.19 310.8 155.34 309.65 146.7 306.57 141.3 307.57 135.37 310.74 136.91 315.6 128.96 315.48 121.04 320.51 123.96 326.16 124.09 335.27 119.82 341.86 122.74 349.49 123.66 356.16 122.39 367.63 116.75 377.72 117.14 384.38 115.57 389.06 116.6 383.56 124.34 378.17 125.77 377.01 133.39 379.5 139.5 378.31 146.95 379.27 153.47 377.27 158.83 373.56 160.36 350.23 175.49 326.3 192.13 320.25 191.03 311.47 185.39 Z" fill="lightgrey" stroke="white" stroke-width="0.5"/>
<path d="M 599.66 1034.65 599.82 1038.14 593.52 1037.34 593.3 1031.52 597.1 1031.04 599.66 1034.65 Z" fill="lightgrey" stroke="white" stroke-width="0.5"/>
<path d="M 97.03 646.98 96.88 652.48 89.42 667.75 89.45 677.35 86.62 685.78 87.65 696.12 84.54 704.9 85 710.07 78.69 717.92 72.3 721.73 67.86 731.18 63.78 735.39 62.98 747.28 63.65 753.7 58.79 764.04 54.39 765.5 49.31 770.25 44.07 777.76 38.02 778.4 37.69 769.29 28.21 775.8 23.59 777.44 19.64 774.92 15.32 771.07 9.95 774.67 4.8 780.98 1 772.85 1 760.07 4.02 753.91 1 752.21 1 749.83 1 748.23 1 739.76 11.24 738.56 10.76 731.74 16.07 732.08 18.92 737.9 23.79 740.12 29.51 735.24 31.09 741.06 33.81 741.24 36.23 732.85 38.35 731.67 39.46 723.72 38.21 717.96 39.71 711.77 34.46 706.58 30.41 705.06 30.97 698.72 35.99 693.26 39.28 687.41 35.3 680.04 29.88 679.19 22.3 682.55 20.61 676.7 22.88 667.73 36.42 667.87 40.53 666.98 47.92 670.52 57.3 671.71 63.3 666.55 67.19 657.08 68.37 647.18 79.03 644.75 86.1 645.98 94.86 644.53 97.03 646.98 Z" fill="lightgrey" stroke="white" stroke-width="0.5"/>
<path d="M 219.48 621.85 224.17 629.33 233.02 634.35 237.86 629.99 245.52 632.63 248.11 628.19 258.15 639.51 262.81 641.23 267.05 646.77 265.81 653.93 267.36 656.19 265.37 662.98 273.22 667.59 262.45 678.21 262.29 682.28 254.66 689.44 254.84 693.96 251.66 700.25 249.46 716.32 249.74 723.71 243.73 730.19 243.72 735.73 239.62 739.95 241.77 744.73 244.77 749.87 244.34 754.4 242.59 765.55 244.14 772.73 242.5 781.74 246.24 790.29 243.48 795.15 247.74 807.53 257.09 818.04 258.61 826.17 262.22 831.48 239.18 835.44 236.96 842.72 231.42 847.47 235.34 856.72 234.64 867.72 231.63 880.79 232.23 888.82 239.4 897.01 250.13 893.5 249.53 913.53 246.54 910.4 240.83 913.69 230.93 899.29 224.26 895.86 220.17 895.7 217.31 889.84 211.05 889.03 206.52 890.84 197.56 889.57 188.77 885.49 187.9 878.45 174.42 881.71 175.5 877.2 169.84 873.29 156.56 876.92 149.98 875.89 147.08 871.23 147.06 865.34 145.04 858.45 140.88 853.5 141.14 841.34 142.29 834.5 139.91 828.23 141.32 821.46 140.42 816.68 122.85 816.73 119.76 812.25 109.02 812.25 106.54 828.02 90.17 827.97 89.06 829.71 81.27 828.23 73.88 816.91 70.79 807.62 70.29 799.43 68.52 795.26 64.61 794.15 42.19 794.57 21.06 794.18 16.04 793.76 10.83 797.26 7.53 792.71 11.69 792.13 12.04 783.24 16.28 776.3 19.64 774.92 23.59 777.44 28.21 775.8 37.69 769.29 38.02 778.4 44.07 777.76 49.31 770.25 54.39 765.5 58.79 764.04 63.65 753.7 62.98 747.28 63.78 735.39 67.86 731.18 72.3 721.73 78.69 717.92 85 710.07 84.54 704.9 87.65 696.12 86.62 685.78 89.45 677.35 89.42 667.75 96.88 652.48 97.03 646.98 98.25 632.78 103.22 624.39 107.73 620.9 112.05 620.82 120.71 626.56 124.44 632.27 128.16 631.58 137.47 634.87 146.79 636.36 151.5 634.99 156.32 625.74 163.17 629.47 173.9 624.41 177.99 621.27 180.87 624.15 189.8 622.45 193.55 617.05 197.92 620.04 201.06 619.15 205.86 622.02 214.93 619.8 219.48 621.85 Z" fill="lightgrey" stroke="white" stroke-width="0.5"/>
<path d="M 33.89 1065 35.37 1057.43 33.8 1053.15 28.05 1045.38 26.52 1040.21 20.65 1030.11 17.68 1019.67 6.22 996.7 2.78 993.67 1 988.7 1 973.44 4.02 972.13 10.3 973.64 14.93 970.4 21.51 969.36 29.33 976.37 32.98 976.05 91.23 976.07 95.42 981.72 98.94 982.9 112.83 984.06 117 983.41 123.37 986.19 131.61 985.85 158.93 980.04 170.54 977.49 180.64 978.63 184.65 982.45 180.5 982.56 175.14 986.4 169.73 986.16 162.12 993.05 157.01 985.66 132.43 990.42 125.55 990.74 123.89 1048.22 110.15 1048.8 109.65 1065 33.89 1065 Z" fill="lightgrey" stroke="white" stroke-width="0.5"/>
<path d="M 218.07 1065 223.74 1058.01 231.65 1055.94 233.66 1052.26 237.81 1051.73 243.42 1050.85 250.66 1054.1 258.02 1053.24 264.07 1055.05 266.33 1065 218.07 1065 Z" fill="lightgrey" stroke="white" stroke-width="0.5"/>
<path d="M 601.47 302.47 602.06 307.88 598.87 311.71 594.21 309.82 595.29 317.93 598.29 322.02 591.69 323.77 592.52 326.93 588.94 339.15 589.29 343.75 588.29 345.05 553.52 340.16 538.47 322.07 537.89 319.27 541.51 323.29 547.19 323.72 552.44 320.31 565.51 322.54 572.72 321.02 576.85 318.32 579.62 310.63 584.36 307.27 593.47 296.28 596.02 290.8 599.53 297.64 601.47 302.47 Z" fill="lightgrey" stroke="white" stroke-width="0.5"/>
<path d="M 599.53 297.64 596.02 290.8 600.09 290.23 599.53 297.64 Z M 589.29 343.75 588.94 339.15 592.52 326.93 591.69 323.77 598.29 322.02 595.29 317.93 594.21 309.82 598.87 311.71 602.06 307.88 605.95 315.48 614.16 324.04 637.07 331 641.83 338.2 648.69 345.65 653.11 347.83 652.76 351.72 647.65 363.72 642.37 368.35 637.9 379.82 629.06 382.28 627.59 390.27 628.82 403.05 621.98 403.58 614.88 408.54 614.1 415.58 609.23 418.61 599.16 420.44 596.55 425.58 597.3 430.1 594.42 433.53 580.66 433.94 574.86 437.65 568.21 439.35 562.51 428.98 550.19 402.23 590.04 386.46 596.43 355.18 589.29 343.75 Z" fill-rule="evenodd" fill="lightgrey" stroke="white" stroke-width="0.5"/>
<path d="M 761.09 67.11 757.27 68.9 752.63 66.61 747.69 67.49 742.93 67.75 738.91 64.08 742.94 60.33 737.39 55.16 729.18 61.22 725.91 65.5 719.13 69.49 718.48 78.61 709.43 77.14 705.8 79.28 705.82 83.45 711.19 87.07 716.27 87 717.8 94.18 723.25 99.87 718.97 110.03 719.68 115.36 712.59 115.3 708.84 112.28 702.59 112.6 700.44 102.18 690.68 98.32 687.29 98.88 667.99 87.36 665.24 87.5 655.18 80.58 639.54 71.08 636.54 64.48 631.41 60.02 627.55 53.61 621.63 50.92 619.81 53.1 608.42 51.89 603.7 49.47 602.71 42.29 596.97 35.19 592.12 35.48 579.07 27.76 572.49 32.24 572.05 35.85 566.04 37.38 561.74 42.03 564.92 51.59 551.5 50.53 538.7 1 598.96 1 619.11 16.86 633.33 14.57 649.05 15.82 655 13.49 663.96 19.71 669.47 26.25 672.8 24.49 676.4 39.97 682.61 40.04 688.62 52.45 690.5 53.35 704.55 52.43 707.13 58.58 714.09 62.06 717.83 49.64 726.82 44.63 732.31 38.47 737.79 36.06 737.79 40.93 731.2 46.52 740.51 51.83 749.19 53.03 758.71 52.93 765.87 57.44 767.25 63.25 761.09 67.11 Z" fill="lightgrey" stroke="white" stroke-width="0.5"/>
<path d="M 737.79 36.06 732.31 38.47 726.82 44.63 717.83 49.64 714.09 62.06 707.13 58.58 704.55 52.43 690.5 53.35 688.62 52.45 682.61 40.04 676.4 39.97 672.8 24.49 669.47 26.25 663.96 19.71 655 13.49 649.05 15.82 633.33 14.57 619.11 16.86 598.96 1 799 1 799 25.37 794.07 27.38 788.24 26.68 774.65 20.98 767.58 23.37 767.25 30.74 758.25 29.75 746.21 26.93 739.22 28.18 737.79 36.06 Z M 538.7 1 551.5 50.53 544.62 51.02 532.92 39.18 523.01 34.55 510.28 37.96 504.8 43.86 503.09 38.49 505.32 29.68 502.64 27.48 494.39 26.91 489.5 21.36 484.66 21.42 484.38 17.45 475.64 5.84 468.88 3.94 466.72 1 538.7 1 Z" fill-rule="evenodd" fill="lightgrey" stroke="white" stroke-width="0.5"/>
<path d="M 785.74 79.87 790.21 87 791.76 93.14 799 92.38 799 114.14 796.37 111.59 790.03 111.1 778.88 118.84 774.47 123.06 771.51 122.97 767.68 117.28 766.37 104.2 761.71 103.39 761.31 98.2 755.82 95.17 751.5 97.29 747.82 104.34 749.17 109.81 740.81 109.11 739.08 116.7 733.62 113.05 723.69 119.42 719.68 115.36 718.97 110.03 723.25 99.87 717.8 94.18 716.27 87 711.19 87.07 705.82 83.45 705.8 79.28 709.43 77.14 718.48 78.61 719.13 69.49 725.91 65.5 729.18 61.22 737.39 55.16 742.94 60.33 738.91 64.08 742.93 67.75 747.69 67.49 744.57 71.32 735.12 67.91 727.73 71.43 729.37 78.44 746.46 78.06 752.15 80.51 757.01 77.3 762.02 82.43 765.72 81.11 780.19 81.33 785.74 79.87 Z" fill="lightgrey" stroke="white" stroke-width="0.5"/>
<path d="M 422.36 1 430.38 5.49 435.11 12.18 437.22 24.02 455.39 42.35 453.62 46.49 446.92 52.55 440.5 50.83 432 42.26 427.93 41.65 416.57 36.43 416.63 32.02 409.57 29.41 401.4 28.19 394.21 31.32 391.84 28.29 383.61 25.48 378.25 21.71 361.94 20.82 349.67 15.95 344.29 15.38 341.72 18.28 326.85 6.48 314.85 1 422.36 1 Z" fill="lightgrey" stroke="white" stroke-width="0.5"/>
<path d="M 341.72 18.28 344.29 15.38 349.67 15.95 361.94 20.82 378.25 21.71 383.61 25.48 391.84 28.29 394.21 31.32 401.4 28.19 409.57 29.41 416.63 32.02 416.57 36.43 427.93 41.65 427.45 47.58 433.16 51.12 431.48 54.86 424.35 52.93 414.31 48.61 411.64 51.02 406.24 52.8 401.48 51.97 392.27 53.9 385.13 48.73 366.6 47.52 368.93 42.72 363.05 29.94 353.65 23.36 346.85 22.15 341.72 18.28 Z" fill="lightgrey" stroke="white" stroke-width="0.5"/>
<path d="M 101.43 54.39 98.15 47.61 99.19 41.92 105.46 36.88 111.29 36.09 121.1 35.05 127.9 39.71 130.49 44.37 129.91 50.31 126.07 53.61 117.42 54.04 113.58 57.66 105.72 57.92 101.43 54.39 Z" fill="lightgrey" stroke="white" stroke-width="0.5"/>
<path d="M 99.19 41.92 98.15 47.61 101.43 54.39 105.72 57.92 106.93 61.2 99.98 70.22 98.53 75.85 94.91 76.02 92.59 70.44 87.51 67.87 84.83 61.13 87.28 45.68 83.93 42.24 82.31 37.12 85.97 30.81 91.85 31.41 97.86 36.64 99.19 41.92 Z" fill="lightgrey" stroke="white" stroke-width="0.5"/>
<path d="M 427.93 41.65 432 42.26 440.5 50.83 446.92 52.55 453.62 46.49 455.39 42.35 462.75 49.09 465.9 54.67 472.38 61.43 478.43 62.07 473.56 67.82 472.31 79.42 468.5 89.99 470.06 95.79 466.73 96.39 457.77 89.7 460.29 87.31 455.77 76.7 453.02 76.15 441.96 84.31 438.24 88.75 435 80.96 427.14 74.28 427.4 67.72 420.93 64.31 420.29 59.06 417.34 55.39 411.64 51.02 414.31 48.61 424.35 52.93 431.48 54.86 433.16 51.12 427.45 47.58 427.93 41.65 Z M 417.19 75.14 418.92 78.03 427.24 81.34 433.41 89.04 424.01 86.84 414.06 76.86 413.46 75.88 417.19 75.14 Z" fill-rule="evenodd" fill="lightgrey" stroke="white" stroke-width="0.5"/>
<path d="M 111.29 36.09 105.46 36.88 99.19 41.92 97.86 36.64 91.85 31.41 94.99 27.03 100.71 21.69 104.04 22.93 108.18 28.33 112.83 29.29 111.29 36.09 Z" fill="lightgrey" stroke="white" stroke-width="0.5"/>
<path d="M 389.06 116.6 384.38 115.57 377.72 117.14 367.63 116.75 356.16 122.39 349.49 123.66 341.86 122.74 335.27 119.82 326.16 124.09 320.51 123.96 315.48 121.04 315.6 128.96 310.74 136.91 307.57 135.37 305.17 129.03 309.82 124.56 306.96 119.49 298.97 125.5 290.9 121.22 276.18 131.79 264.94 133.33 260.71 131.27 255.62 125.51 246.21 121.34 237.54 120.04 235.46 130.3 232.91 129.22 227.18 131.78 220.83 130.18 217.19 123.6 206.1 122.61 202.13 117.78 192.82 118.91 190.88 102.8 184.3 99.2 181.82 100.68 178.32 92.85 186.5 88.92 181.78 81.62 183.74 77.74 173.38 79.46 173.6 72.12 180.28 64.9 187.46 64.04 189.61 66.18 200.94 64.89 204.73 65.5 211.76 57.6 210.62 51.8 219.13 53.23 223.94 52.26 231.38 54.31 236.64 53.91 238.16 50.62 248.22 44.31 261.03 39.64 278.6 40.78 283.63 39.6 285.8 43.66 290 45.65 294.44 44.51 302.71 51.8 304.52 49.7 316.66 54.89 327.53 56.85 334.83 54.9 343.36 55.17 350.67 56.77 365.32 49.63 366.6 47.52 385.13 48.73 392.27 53.9 397.22 60.62 398.05 69.49 408.7 71.65 413.46 75.88 414.06 76.86 405.14 80.62 409.44 89.36 411.32 104.57 416.63 107.06 416.94 111.3 420.34 116.1 413.82 118.59 412.98 114.33 403.34 114.5 393.8 112.43 389.06 116.6 Z M 181.18 38.64 187.68 41.37 193.7 40.37 195.63 46 206.44 51.4 205.94 56.16 198.22 54.23 189.31 55.73 185.53 61.31 171.48 61.64 170.84 59.66 174.14 55.85 173.6 51.59 177.26 49.65 172.78 44.42 176 40.42 181.18 38.64 Z" fill-rule="evenodd" fill="lightgrey" stroke="white" stroke-width="0.5"/>
<path d="M 799 64.31 792.08 69.56 787.6 70.27 785.74 79.87 780.19 81.33 765.72 81.11 762.02 82.43 757.01 77.3 752.15 80.51 746.46 78.06 729.37 78.44 727.73 71.43 735.12 67.91 744.57 71.32 747.69 67.49 752.63 66.61 757.27 68.9 761.09 67.11 767.25 63.25 765.87 57.44 758.71 52.93 749.19 53.03 740.51 51.83 731.2 46.52 737.79 40.93 737.79 36.06 739.22 28.18 746.21 26.93 758.25 29.75 767.25 30.74 767.58 23.37 774.65 20.98 788.24 26.68 794.07 27.38 799 25.37 799 64.31 Z" fill="lightgrey" stroke="white" stroke-width="0.5"/>
<path d="M 392.27 53.9 401.48 51.97 406.24 52.8 411.64 51.02 417.34 55.39 420.29 59.06 420.93 64.31 427.4 67.72 427.14 74.28 435 80.96 438.24 88.75 433.41 89.04 427.24 81.34 418.92 78.03 417.19 75.14 413.46 75.88 408.7 71.65 398.05 69.49 397.22 60.62 392.27 53.9 Z" fill="lightgrey" stroke="white" stroke-width="0.5"/>
<path d="M 1 183.92 6.34 184.53 14.51 182.86 25.55 185.81 29.58 188.94 39.31 190.98 41.8 194.62 43.75 202.41 51.41 208.56 60.55 209.37 69.15 211.54 80.18 216.28 86.86 222.02 92.38 224.48 101.42 220.62 104.98 215.76 106.09 209.48 102.62 201.58 104.2 194.34 110.34 188.33 123.81 182.45 130.28 182.57 143.7 186.93 144.18 192.02 157.75 197.04 169.63 197.63 172.25 202.55 168.71 206.9 171.16 216.29 167.76 226.4 172.68 241.59 175.98 299.69 178.37 354.92 179.55 386.36 165.88 386.46 166.16 394.34 55.11 332.06 41.62 339.15 31.57 345.1 21.17 336.24 1 331.06 1 183.92 Z" fill="lightgrey" stroke="white" stroke-width="0.5"/>
<path d="M 197.75 1 197.2 12.8 192.67 12.48 188.66 9.33 181.63 8.54 176.83 6.03 166.14 8.59 162.03 12.95 156.88 14.16 145.8 11.9 141.6 12.62 130.87 10.54 125.87 11.36 122.34 5.23 119.3 1 197.75 1 Z" fill="lightgrey" stroke="white" stroke-width="0.5"/>
<path d="M 105.72 57.92 113.58 57.66 117.42 54.04 126.07 53.61 129.91 50.31 138.72 49.76 149.84 46.78 160.28 51.82 170.72 49.97 172.78 44.42 177.26 49.65 173.6 51.59 174.14 55.85 170.84 59.66 160.95 56.32 154.76 57.86 149.67 56.42 143.53 64.74 136.51 67.53 129.04 63.03 127.04 68.61 131.55 74.77 134.3 81.92 134.36 87.62 137.6 91.88 144.62 97.32 147.81 98.04 149.17 104.31 146.07 105.5 141.7 102.27 138.53 105.61 138.36 111.27 133.57 112.07 138.75 121.37 132.02 121.74 126.19 118 120.64 121.19 117.66 109.5 111.76 105.16 121.92 97.32 134.26 103.56 137.03 99.31 122.23 96.16 112.56 97.43 104.55 85.77 99.14 81.67 94.91 76.02 98.53 75.85 99.98 70.22 106.93 61.2 105.72 57.92 Z M 156.25 100.1 153.72 103.05 148.93 96.41 143.58 96.08 140.49 88.87 148.82 91.93 152.83 99.68 156.25 100.1 Z M 182.96 144.86 182.3 149.21 162.71 150.9 157.95 146.81 147.2 146.05 147.57 141.83 152.26 141.63 156.94 144.33 161.82 143.09 171.98 145.14 176.79 147.89 182.96 144.86 Z M 181.02 86.13 178.73 87.41 171.54 84.63 177 80.89 181.02 86.13 Z" fill-rule="evenodd" fill="lightgrey" stroke="white" stroke-width="0.5"/>
<path d="M 294.47 850.19 300.46 857.93 304.47 868.63 299.45 872.43 300.29 877.9 297.96 881.87 298 892.22 299.42 899.25 294.55 900.73 293.84 909.85 289.87 915.89 296.26 922.83 254.46 938.09 256.58 948.42 248.89 948.08 239.81 951.21 235.3 955.53 234.41 961.58 219.71 969.95 216.74 975.66 209.12 984.82 204.43 986.74 197.55 983.92 194.4 985.68 190.43 982.73 184.65 982.45 180.64 978.63 170.54 977.49 158.93 980.04 150.58 972.37 145 964.78 142.54 963.58 140.42 956.77 141.63 906.87 169.57 906.87 167.79 903.53 170.22 897.15 169.5 885.03 170.97 881.53 169.84 873.29 175.5 877.2 174.42 881.71 187.9 878.45 188.77 885.49 197.56 889.57 206.52 890.84 211.05 889.03 217.31 889.84 220.17 895.7 224.26 895.86 230.93 899.29 240.83 913.69 246.54 910.4 249.53 913.53 250.13 893.5 239.4 897.01 232.23 888.82 231.63 880.79 234.64 867.72 235.34 856.72 231.42 847.47 236.96 842.72 239.18 835.44 262.22 831.48 260.76 836.01 270.4 837.28 275.53 839.08 277.32 842.39 287.11 845.87 294.47 850.19 Z" fill="lightgrey" stroke="white" stroke-width="0.5"/>
<path d="M 173.25 564.78 172.79 570.24 182.56 573.03 188.89 581.02 190.08 586.13 199.41 591.47 204.38 596.89 203.2 601.08 209.06 607.03 215.58 611.6 217.5 619.72 219.48 621.85 214.93 619.8 205.86 622.02 201.06 619.15 197.92 620.04 193.55 617.05 189.8 622.45 180.87 624.15 177.99 621.27 173.9 624.41 163.17 629.47 156.32 625.74 151.5 634.99 146.79 636.36 137.47 634.87 128.16 631.58 124.44 632.27 120.71 626.56 112.05 620.82 107.73 620.9 103.22 624.39 98.25 632.78 97.03 646.98 94.86 644.53 86.1 645.98 79.03 644.75 68.37 647.18 67.19 657.08 63.3 666.55 61.8 656.66 48.9 642.53 46.47 632.37 42.51 628.92 41.71 620.72 39.7 618.38 41.2 611.32 37.92 606.89 42.36 603.12 46.79 594.72 49.26 587.51 52.8 583.17 57.15 584.19 65.14 580.81 70.68 582.74 83.27 575.88 95.89 574.89 103.2 565 102.81 559.63 120.26 558.04 126.67 553.28 132.51 544.49 137.98 540.42 138.8 534.06 148.92 528.32 154.49 529.61 160.59 537.17 165.36 545.56 165.63 555.5 163.25 557.57 163.68 563.29 173.25 564.78 Z" fill="lightgrey" stroke="white" stroke-width="0.5"/>
<path d="M 342 476.86 340.44 487.78 338.51 491.09 337.35 501.18 330.42 503.49 325.22 514.19 321.8 524 321.81 530.77 316.99 530.24 312.86 535.19 313.62 539.87 310.41 552.71 307.79 541.08 297.54 530.81 295.84 519.11 297.3 509.24 290.69 509.15 290.99 512.52 281.8 512.56 285.57 517.15 286.81 527.53 280.44 533.77 276.76 540.73 270.95 547.38 264.23 548.27 253.83 539.84 248.4 543.19 246.66 547.86 240.14 550.36 237.93 554.76 226.85 554.65 224.69 550.48 213.38 550.3 206.15 551.67 196.85 541.09 195.98 537.51 185.49 539.48 181.59 547.28 178.59 561.66 173.25 564.78 163.68 563.29 163.25 557.57 165.63 555.5 165.36 545.56 160.59 537.17 154.49 529.61 155.1 522.09 151.09 520.29 150.45 512.74 144.83 500.84 139.35 500.04 141 495.86 145.49 491.51 142.66 484.63 147.54 477.08 147.73 471.09 154.37 461.72 153.67 456.35 155.94 454.14 168.19 453.87 166.16 394.34 165.88 386.46 179.55 386.36 178.37 354.92 340.68 354.92 341.14 359.93 345.03 367.92 347.58 391.83 350.95 404.34 357.92 408.71 361.32 414 367.71 417.86 364.46 423.36 353.25 428.68 352.06 433.23 346.48 432.56 345.22 441.16 346.35 445.49 340.01 463.49 342 476.86 Z" fill="lightgrey" stroke="white" stroke-width="0.5"/>
<path d="M 436.56 520.64 432.45 528.35 428.13 526.92 416.87 528.8 415.87 519.85 424.04 505.21 428.24 506.88 434.1 501.4 438.46 508.75 438.14 512.49 429.69 517.17 436.56 520.64 Z" fill="lightgrey" stroke="white" stroke-width="0.5"/>
<path d="M 424.04 505.21 417.79 498.74 414.3 492.88 406.87 487.08 401.57 479.35 391.25 473.67 382.72 472.75 368.13 474.44 360.42 467.15 356.43 479.18 352.46 473.8 349.53 476.52 342 476.86 340.01 463.49 346.35 445.49 345.22 441.16 346.48 432.56 352.06 433.23 353.25 428.68 364.46 423.36 367.71 417.86 372.73 427.44 376.6 439.57 378.02 447.76 385.33 461.09 387.31 457.3 391.63 465.53 397.96 466.06 400.79 469.93 405.64 470.9 413.33 481.96 422.05 487.73 429.24 498.96 434.1 501.4 428.24 506.88 424.04 505.21 Z" fill="lightgrey" stroke="white" stroke-width="0.5"/>
<path d="M 350.23 175.49 373.56 160.36 377.27 158.83 379.27 153.47 378.31 146.95 379.5 139.5 377.01 133.39 378.17 125.77 383.56 124.34 389.06 116.6 393.8 112.43 403.34 114.5 412.98 114.33 413.82 118.59 420.34 116.1 424.83 125.67 428.39 127.73 430.62 132.69 437.41 137.07 443.56 146.83 439.93 149.49 436.28 156.26 437.63 166.55 443.63 171.4 450.3 181.99 466.59 191.81 473.68 200.88 472.43 206.47 473.25 212.99 477.85 213.28 478.92 221.36 484.55 225.19 486.88 229.29 479.01 228.77 470.92 227.23 467.88 229.3 465.45 237.44 461.81 242.94 459.52 243.46 436.93 241.27 410.02 220.87 398.46 211.64 374.14 198.1 357.55 195.26 350.23 175.49 Z" fill="lightgrey" stroke="white" stroke-width="0.5"/>
<path d="M 1 10.8 9.22 16.07 15.94 30.59 24.9 38.62 29.92 40.96 41.39 40.81 41.9 48.88 55.5 54.28 61.14 58.22 68.15 61.03 75.34 69.43 73.98 74.14 68.94 71.44 66.54 66.68 62.22 66.46 56.05 63.09 50.83 69.9 50.11 76.09 58.69 80.53 58.8 88.02 51.41 91.24 52.1 95.86 46.37 103.4 40.85 103.13 40.39 98.82 47.11 88.49 43.67 80.02 38.07 70.07 35.58 71.32 28.94 67.43 26.47 60.62 17.36 58.11 12.75 51.62 4.14 52.01 1 49 1 10.8 Z M 5.21 109.31 1 108.06 1 101.58 4.95 102.17 10.1 99.16 16.53 103.02 22.75 102.37 30.81 99.66 39.53 98.83 35.09 106.57 34.22 113.27 37.33 117.89 34.32 123.69 26.56 121.58 23.64 117.64 18.59 116.74 5.21 109.31 Z" fill-rule="evenodd" fill="lightgrey" stroke="white" stroke-width="0.5"/>
<path d="M 438.24 88.75 441.96 84.31 453.02 76.15 455.77 76.7 460.29 87.31 457.77 89.7 466.73 96.39 470.06 95.79 473.92 106.71 480.17 110.55 489.63 111.98 495 117.78 503.81 122.47 514.96 124.9 534.69 120.09 541.69 121.14 538.76 112.94 542.37 113.24 549.51 110.19 549.68 106.36 555.99 101.41 567.33 101.35 568.51 98.6 576.54 99.66 581.36 103.12 592.78 106.15 595.75 108.42 601.97 107.82 608.95 110.56 612.05 115.34 619.25 117.92 624.8 124.04 634.32 123.87 640.36 140.08 639.37 145.44 640.32 152.74 636.59 157.11 634.99 164.1 636.74 171.29 641.87 172.7 638.95 178.97 645.11 193.2 647.15 205.1 658.64 206.88 661.83 215.56 651.85 230.92 658.81 238.04 663.99 246.49 669.17 251.67 675.78 253.62 681.8 260.3 684.44 272.44 690.54 272.54 690.35 281.9 685.08 281.61 679.15 283.86 673.81 287.94 672.09 295.4 672.21 304.35 670.08 306.6 664.64 304.23 655.36 302.32 649.15 302.33 642.81 300.26 638.38 301.32 628.52 297.88 613.43 295.28 610.66 290.27 606.39 276.49 603.83 273.79 597.56 272.82 588.94 275.95 577.97 283.91 570.91 280.49 562.93 280.59 558.3 276.1 546.69 270.43 543.73 265.8 537.83 262.86 532.06 262.6 529.03 260.36 523.25 248.62 516.85 242.19 516.37 237.37 508.51 229.66 507.01 225.59 501.04 228.2 492.47 223.8 492.03 227.42 486.88 229.29 484.55 225.19 478.92 221.36 477.85 213.28 473.25 212.99 472.43 206.47 473.68 200.88 466.59 191.81 450.3 181.99 443.63 171.4 437.63 166.55 436.28 156.26 439.93 149.49 443.56 146.83 437.41 137.07 430.62 132.69 428.39 127.73 424.83 125.67 420.34 116.1 416.94 111.3 416.63 107.06 411.32 104.57 409.44 89.36 405.14 80.62 414.06 76.86 424.01 86.84 433.41 89.04 438.24 88.75 Z" fill="lightgrey" stroke="white" stroke-width="0.5"/>
<path d="M 121.1 35.05 111.29 36.09 112.83 29.29 108.18 28.33 104.04 22.93 100.71 21.69 94.99 27.03 89.32 22.57 85.32 21.72 79.47 16.05 83.18 13.85 79.91 9.82 77.26 1 119.3 1 122.34 5.23 118.74 11.77 121.42 16.96 127.31 23.01 122.24 26.37 121.1 35.05 Z" fill="lightgrey" stroke="white" stroke-width="0.5"/>
<path d="M 1 492.67 10.17 495.78 11.35 492.96 22.29 485.52 25.71 485.69 32.18 495.56 33.92 506.48 40.75 509.92 39.83 520.5 33.95 524.57 31.4 523.98 25.74 533.4 24.01 541.68 21.43 542.85 20.78 551.32 16.18 553.84 15.47 562.53 7.81 569.04 7.13 576.04 1 587.05 1 492.67 Z" fill="lightgrey" stroke="white" stroke-width="0.5"/>
<path d="M 4.8 780.98 9.95 774.67 15.32 771.07 19.64 774.92 16.28 776.3 12.04 783.24 11.69 792.13 7.53 792.71 7.86 788.24 4.8 780.98 Z M 21.06 794.18 42.19 794.57 64.61 794.15 68.52 795.26 70.29 799.43 70.79 807.62 73.88 816.91 81.27 828.23 89.06 829.71 90.17 827.97 106.54 828.02 109.02 812.25 119.76 812.25 122.85 816.73 140.42 816.68 141.32 821.46 139.91 828.23 142.29 834.5 141.14 841.34 140.88 853.5 145.04 858.45 147.06 865.34 147.08 871.23 149.98 875.89 156.56 876.92 169.84 873.29 170.97 881.53 169.5 885.03 170.22 897.15 167.79 903.53 169.57 906.87 141.63 906.87 140.42 956.77 142.54 963.58 145 964.78 150.58 972.37 158.93 980.04 131.61 985.85 123.37 986.19 117 983.41 112.83 984.06 98.94 982.9 95.42 981.72 91.23 976.07 32.98 976.05 29.33 976.37 21.51 969.36 14.93 970.4 10.3 973.64 4.02 972.13 1 973.44 1 950.8 7.05 934.45 7.97 924.07 10.42 920.33 10.64 913.82 16.71 906.57 16.67 903.95 22.59 900.42 26.47 894.99 28.71 887.45 29.55 877.09 28.34 869.72 20.8 854.93 18.08 845.24 23.45 839.9 23.36 833.09 16.27 816.41 15.82 811.38 8.46 798.77 21.06 794.18 Z" fill-rule="evenodd" fill="lightgrey" stroke="white" stroke-width="0.5"/>
<path d="M 39.64 1 41.14 5.54 52.91 16.35 59.89 25.24 50.47 18.02 38.19 13.81 27.72 5.74 27.08 1 39.64 1 Z M 71.22 31.21 72.15 33.44 60.87 26.04 71.22 31.21 Z" fill-rule="evenodd" fill="lightgrey" stroke="white" stroke-width="0.5"/>
<path d="M 526.83 311.53 525.03 300.92 528.02 290.93 530.59 289.24 535.88 295.36 534.63 299.31 537.2 305.37 535.55 312.59 532.54 313.44 526.83 311.53 Z" fill="lightgrey" stroke="white" stroke-width="0.5"/>
<path d="M 537.89 319.27 538.47 322.07 553.52 340.16 588.29 345.05 589.29 343.75 596.43 355.18 590.04 386.46 550.19 402.23 511.56 408.28 498.81 415.59 491.67 426.4 489.84 432.26 483.69 434.39 479.79 429.36 474.51 430.17 462.16 428.78 458.4 426.95 439.04 428.25 433.94 425.63 431.01 428.57 432.13 437.28 426.72 443.63 425.73 438.89 419.8 430.97 419.02 426.55 410.6 419.37 402.87 406.93 398.78 396.75 392.25 386.83 385.73 381.87 379.8 379.11 371.28 365.65 369.37 357.02 371.1 348.69 366.04 339.35 362.53 330.11 354.93 322.2 346.08 316.35 341.46 309.88 342.18 304.48 337.68 297.35 333.74 294.04 326.95 281.9 316.87 268.81 313.13 262.18 309.17 258.34 303.39 257.69 306.09 238.91 320.63 241.46 326.35 236.65 329.52 230.8 338.87 228.76 340.56 223.74 344.88 220.8 329.59 205.16 355.34 197.22 357.55 195.26 374.14 198.1 398.46 211.64 410.02 220.87 436.93 241.27 459.52 243.46 461.81 242.94 474.09 244.54 478.1 251.81 488.36 251.7 494.56 264.25 511.72 278.23 516.51 288.37 515.33 291.93 517.72 297.83 521.09 300.49 523.04 306.67 526.83 311.53 532.54 313.44 533.92 318.53 537.89 319.27 Z" fill="lightgrey" stroke="white" stroke-width="0.5"/>
<path d="M 109.65 1065 110.15 1048.8 123.89 1048.22 125.55 990.74 132.43 990.42 157.01 985.66 162.12 993.05 169.73 986.16 175.14 986.4 180.5 982.56 184.65 982.45 187.72 991.99 193.34 1000.23 195.58 1009.37 203.54 1016.23 210.05 1018.98 211.54 1024.7 216.41 1025.27 215.71 1034.44 219.71 1041.72 228.36 1043.29 233.84 1045.6 237.81 1051.73 233.66 1052.26 231.65 1055.94 223.74 1058.01 218.07 1065 109.65 1065 Z" fill="lightgrey" stroke="white" stroke-width="0.5"/>
<path d="M 264.07 1055.05 258.02 1053.24 250.66 1054.1 243.42 1050.85 237.81 1051.73 233.84 1045.6 228.36 1043.29 219.71 1041.72 215.71 1034.44 216.41 1025.27 211.54 1024.7 210.05 1018.98 203.54 1016.23 195.58 1009.37 193.34 1000.23 187.72 991.99 184.65 982.45 190.43 982.73 194.4 985.68 197.55 983.92 204.43 986.74 209.12 984.82 216.74 975.66 219.71 969.95 234.41 961.58 235.3 955.53 239.81 951.21 248.89 948.08 256.58 948.42 256.45 954.18 268.24 954.53 273.99 957.43 276.93 960.92 282.15 961.28 290.49 965.32 289.22 968.91 291.58 975.63 290.35 982.83 290.4 993.07 286.61 1007.21 289.9 1013.84 286.95 1021.76 281.5 1028.08 280.21 1037.59 266.12 1053.55 264.07 1055.05 Z" fill="lightgrey" stroke="white" stroke-width="0.5"/>
<path d="M 799 319.39 795.43 316.62 787.92 320.7 782.15 318.94 770.76 318.74 771.36 323.85 764.24 325.8 756.81 326.41 751.6 320.37 748.81 311.36 741.94 310.21 741.65 303.89 737.09 298.11 727.24 302.06 723.41 301.35 713.81 303.92 698.78 301.78 698.13 304.48 684.14 303.45 676.36 305.91 672.21 304.35 672.09 295.4 673.81 287.94 679.15 283.86 685.08 281.61 690.35 281.9 690.54 272.54 684.44 272.44 681.8 260.3 675.78 253.62 669.17 251.67 663.99 246.49 658.81 238.04 651.85 230.92 674.87 238.02 689.25 236.61 696.48 238.35 701.24 235.46 708.8 235.93 723.51 231.28 722.66 214.12 726.25 209.81 738.08 208.63 738.92 204.52 743.35 200.1 750.78 200.68 755.54 202.63 758.53 198.11 755.99 190.48 758.01 180.17 762.37 179.95 767.04 176.32 760.61 164.89 767.83 166.55 774.38 164.92 772.48 154.98 777.74 146.62 775.87 141.17 768.47 133.64 772.73 126.84 783.47 121.15 799 120.04 799 262.33 791.5 264.93 784.1 260.04 775.88 273.02 775.31 279.03 780.59 282.61 785.33 283.41 785.34 292.08 788.69 296.54 793.65 296.47 794.45 300.73 799 308.11 799 319.39 Z" fill="lightgrey" stroke="white" stroke-width="0.5"/>
<path d="M 129.91 50.31 130.49 44.37 127.9 39.71 121.1 35.05 122.24 26.37 127.31 23.01 121.42 16.96 118.74 11.77 122.34 5.23 125.87 11.36 130.87 10.54 141.6 12.62 145.8 11.9 156.88 14.16 162.03 12.95 166.14 8.59 176.83 6.03 181.63 8.54 188.66 9.33 192.67 12.48 197.2 12.8 196.46 18.41 191.85 18.67 190.27 26.7 186.15 31.31 193.7 40.37 187.68 41.37 181.18 38.64 176 40.42 172.78 44.42 170.72 49.97 160.28 51.82 149.84 46.78 138.72 49.76 129.91 50.31 Z" fill="lightgrey" stroke="white" stroke-width="0.5"/>
<path d="M 41.62 339.15 55.11 332.06 166.16 394.34 168.19 453.87 155.94 454.14 153.67 456.35 154.37 461.72 147.73 471.09 147.54 477.08 142.66 484.63 145.49 491.51 141 495.86 139.35 500.04 144.83 500.84 150.45 512.74 151.09 520.29 155.1 522.09 154.49 529.61 148.92 528.32 138.8 534.06 137.98 540.42 132.51 544.49 126.67 553.28 120.26 558.04 102.81 559.63 103.2 565 95.89 574.89 83.27 575.88 70.68 582.74 65.14 580.81 57.15 584.19 52.8 583.17 52.19 578.18 48.53 568.09 36.85 557.22 31.2 549.82 34.39 544.45 42.04 545.31 53.16 542.83 49.86 539.19 46.51 531.6 45.81 525.45 47.33 519.96 45.9 511.68 43.98 510.26 42.71 502.49 38.97 500.39 37.06 495.51 32.18 495.56 25.71 485.69 23.37 475.02 27.64 469.68 28.52 464.94 35.69 453.43 50.52 435.02 53.08 387.91 55.89 380.48 50.13 373.79 50.97 371.4 44.91 362.62 44.61 354.95 41.62 339.15 Z" fill="lightgrey" stroke="white" stroke-width="0.5"/>
<path d="M 461.81 242.94 465.45 237.44 467.88 229.3 470.92 227.23 479.01 228.77 480.72 238.24 488.36 251.7 478.1 251.81 474.09 244.54 461.81 242.94 Z" fill="lightgrey" stroke="white" stroke-width="0.5"/>
<path d="M 296.26 922.83 299.31 928.62 303.84 930.97 311.79 928.72 313.85 931.69 314.33 942.66 309.28 952.42 311.17 957.1 323.15 971.57 322.37 961.79 324.82 956.38 330.72 954.24 331.14 941.46 332.44 933.14 322.42 917.95 319.4 914.95 318.33 905.95 319.4 902.35 317.87 894.04 320.36 891.74 321.9 884.35 331.46 884.42 333.92 881.82 338.94 886.36 350.69 884.7 355.94 886.7 360.95 884.12 365.08 879.34 371.2 881.34 376.56 877.95 381.97 877.73 392.15 872.32 398.26 867.02 398.83 874.6 397.54 885.42 398.97 906.18 397.87 917.23 398.46 924.8 401.44 929.94 401.09 935.27 396.68 940.29 396.93 946.35 390.97 952.83 384.04 962.55 375.3 969.67 368.4 971.42 358.74 975.53 347.02 983.63 344.02 988.68 334.62 999.63 327.31 1002.77 318.63 1012.59 313.44 1015.18 312.68 1025.92 317.5 1032.48 316.48 1036.14 318.99 1043.17 319.49 1050.19 321.64 1051.02 321.61 1065 266.33 1065 264.07 1055.05 266.12 1053.55 280.21 1037.59 281.5 1028.08 286.95 1021.76 289.9 1013.84 286.61 1007.21 290.4 993.07 290.35 982.83 291.58 975.63 289.22 968.91 290.49 965.32 282.15 961.28 276.93 960.92 273.99 957.43 268.24 954.53 256.45 954.18 256.58 948.42 254.46 938.09 296.26 922.83 Z" fill="lightgrey" stroke="white" stroke-width="0.5"/>
<path d="M 263.24 739.68 261.25 746.79 267 751.86 261.89 757.22 255.27 769.19 250.38 772.01 244.34 754.4 244.77 749.87 241.77 744.73 251.25 746.11 260.8 738.14 263.24 739.68 Z" fill="lightgrey" stroke="white" stroke-width="0.5"/>
<path d="M 262.21 718.64 267.18 726.96 267.14 738.81 263.24 739.68 260.8 738.14 251.25 746.11 241.77 744.73 239.62 739.95 243.72 735.73 243.73 730.19 249.74 723.71 257.67 723.03 262.21 718.64 Z" fill="lightgrey" stroke="white" stroke-width="0.5"/>
<path d="M 702.59 112.6 708.84 112.28 712.59 115.3 719.68 115.36 723.69 119.42 733.62 113.05 739.08 116.7 740.81 109.11 749.17 109.81 747.82 104.34 751.5 97.29 755.82 95.17 761.31 98.2 761.71 103.39 766.37 104.2 767.68 117.28 771.51 122.97 774.47 123.06 778.88 118.84 790.03 111.1 796.37 111.59 799 114.14 799 120.04 783.47 121.15 772.73 126.84 768.47 133.64 775.87 141.17 777.74 146.62 772.48 154.98 774.38 164.92 767.83 166.55 760.61 164.89 767.04 176.32 762.37 179.95 758.01 180.17 755.99 190.48 758.53 198.11 755.54 202.63 750.78 200.68 743.35 200.1 738.92 204.52 738.08 208.63 726.25 209.81 722.66 214.12 723.51 231.28 708.8 235.93 701.24 235.46 696.48 238.35 689.25 236.61 674.87 238.02 651.85 230.92 661.83 215.56 658.64 206.88 647.15 205.1 645.11 193.2 638.95 178.97 641.87 172.7 636.74 171.29 634.99 164.1 636.59 157.11 640.32 152.74 639.37 145.44 640.36 140.08 644.44 142.7 651.02 143.14 659.4 146.31 664.7 142.94 666.69 136.33 677.72 131.67 681.05 126.81 681.55 119.3 684.15 114.66 689.82 114.52 690.93 110.14 699.79 113.12 702.59 112.6 Z" fill="lightgrey" stroke="white" stroke-width="0.5"/>
<path d="M 91.85 31.41 85.97 30.81 82.31 37.12 83.93 42.24 72.15 33.44 71.22 31.21 70.84 24.44 75.92 16.44 79.47 16.05 85.32 21.72 89.32 22.57 94.99 27.03 91.85 31.41 Z" fill="lightgrey" stroke="white" stroke-width="0.5"/>
<path d="M 77.26 1 79.91 9.82 83.18 13.85 79.47 16.05 75.92 16.44 70.84 24.44 71.22 31.21 60.87 26.04 59.89 25.24 52.91 16.35 41.14 5.54 39.64 1 77.26 1 Z" fill="lightgrey" stroke="white" stroke-width="0.5"/>
<path d="M 267.05 646.77 271.2 642.12 276.29 644.1 280.1 641.64 282.4 645.18 297.3 640.67 304.49 642.29 310.59 635.27 313.48 641.95 317.14 643.97 317.15 651.63 324.08 662.75 324.94 675.39 322.47 682.39 318.43 684.43 311.34 697.94 302.28 694.62 297.58 700.04 295.31 699.42 282.7 703.78 283.95 706.46 279.59 713.76 280.48 717.63 267.18 717.63 262.21 718.64 257.67 723.03 249.74 723.71 249.46 716.32 251.66 700.25 254.84 693.96 254.66 689.44 262.29 682.28 275 672.43 273.22 667.59 265.37 662.98 267.36 656.19 265.81 653.93 267.05 646.77 Z" fill="lightgrey" stroke="white" stroke-width="0.5"/>
<path d="M 551.5 50.53 564.92 51.59 561.74 42.03 566.04 37.38 572.05 35.85 572.49 32.24 579.07 27.76 592.12 35.48 596.97 35.19 602.71 42.29 603.7 49.47 608.42 51.89 619.81 53.1 621.63 50.92 627.55 53.61 631.41 60.02 636.54 64.48 639.54 71.08 655.18 80.58 665.24 87.5 667.99 87.36 687.29 98.88 690.68 98.32 700.44 102.18 702.59 112.6 699.79 113.12 690.93 110.14 689.82 114.52 684.15 114.66 681.55 119.3 681.05 126.81 677.72 131.67 666.69 136.33 664.7 142.94 659.4 146.31 651.02 143.14 644.44 142.7 640.36 140.08 634.32 123.87 624.8 124.04 619.25 117.92 612.05 115.34 608.95 110.56 601.97 107.82 595.75 108.42 592.78 106.15 581.36 103.12 576.54 99.66 568.51 98.6 567.33 101.35 555.99 101.41 549.68 106.36 549.51 110.19 542.37 113.24 538.76 112.94 536.34 106.62 533.84 94.35 534.35 87.93 527.98 81.72 521.46 80.89 524.55 74.94 523.82 71.18 516.91 72.08 514.67 70.38 513.15 63.63 516.87 59.1 525.25 61.42 530.63 59.79 534.41 52.56 526.01 47.21 522.12 38.71 512.24 38.53 507.22 47.44 504.8 43.86 510.28 37.96 523.01 34.55 532.92 39.18 544.62 51.02 551.5 50.53 Z" fill="lightgrey" stroke="white" stroke-width="0.5"/>
<path d="M 309.48 191.06 311.47 185.39 320.25 191.03 326.3 192.13 350.23 175.49 357.55 195.26 355.34 197.22 329.59 205.16 344.88 220.8 340.56 223.74 338.87 228.76 329.52 230.8 326.35 236.65 320.63 241.46 306.09 238.91 305.88 235.64 307.54 226.23 307.05 221.89 309.98 211.27 309.61 205.14 310.51 200.83 309.48 191.06 Z" fill="lightgrey" stroke="white" stroke-width="0.5"/>
<path d="M 63.3 666.55 57.3 671.71 47.92 670.52 40.53 666.98 36.42 667.87 22.88 667.73 9.5 665.39 1 665.68 1 591.16 1 587.38 1 587.05 7.13 576.04 7.81 569.04 15.47 562.53 16.18 553.84 20.78 551.32 21.43 542.85 24.01 541.68 25.74 533.4 31.4 523.98 33.95 524.57 39.83 520.5 40.75 509.92 33.92 506.48 32.18 495.56 37.06 495.51 38.97 500.39 42.71 502.49 43.98 510.26 45.9 511.68 47.33 519.96 45.81 525.45 46.51 531.6 49.86 539.19 53.16 542.83 42.04 545.31 34.39 544.45 31.2 549.82 36.85 557.22 48.53 568.09 52.19 578.18 52.8 583.17 49.26 587.51 46.79 594.72 42.36 603.12 37.92 606.89 41.2 611.32 39.7 618.38 41.71 620.72 42.51 628.92 46.47 632.37 48.9 642.53 61.8 656.66 63.3 666.55 Z" fill="lightgrey" stroke="white" stroke-width="0.5"/>
<path d="M 22.88 667.73 20.61 676.7 22.3 682.55 29.88 679.19 35.3 680.04 39.28 687.41 35.99 693.26 30.97 698.72 30.41 705.06 34.46 706.58 39.71 711.77 38.21 717.96 39.46 723.72 38.35 731.67 36.23 732.85 33.81 741.24 31.09 741.06 29.51 735.24 23.79 740.12 18.92 737.9 16.07 732.08 10.76 731.74 11.24 738.56 1 739.76 1 665.68 9.5 665.39 22.88 667.73 Z M 1 752.21 4.02 753.91 1 760.07 1 752.21 Z" fill-rule="evenodd" fill="lightgrey" stroke="white" stroke-width="0.5"/>
<path d="M 1 331.06 21.17 336.24 31.57 345.1 41.62 339.15 44.61 354.95 44.91 362.62 50.97 371.4 50.13 373.79 55.89 380.48 53.08 387.91 50.52 435.02 35.69 453.43 28.52 464.94 27.64 469.68 23.37 475.02 25.71 485.69 22.29 485.52 11.35 492.96 10.17 495.78 1 492.67 1 331.06 Z" fill="lightgrey" stroke="white" stroke-width="0.5"/>
<path d="M 293.95 209.57 303.86 232.75 305.06 236.72 303.31 239.64 302.67 248.07 300.24 255.37 300.94 260.49 296.48 263.37 284.07 251.24 282.34 243.95 278.58 240.62 273.28 229.11 270.76 234.99 274.5 238.94 275.45 244.88 279.23 251.09 288.66 260.87 289.8 267.53 293.74 271.9 297.05 282.12 305.25 296.1 315.97 317 319.77 321.59 320.31 331.24 323.63 340.15 330.73 344.57 340.68 354.92 178.37 354.92 175.98 299.69 172.68 241.59 167.76 226.4 171.16 216.29 168.71 206.9 172.25 202.55 175.76 204.96 181.25 203.2 201.45 206.89 209.47 211.1 216.27 211.54 224.91 215.63 231.08 213.59 241.77 204.88 246.8 206.78 253.09 203.75 261.01 207.48 265.96 211.61 274 212.29 278.67 209.91 286.09 211.05 293.15 207.94 293.95 209.57 Z" fill="lightgrey" stroke="white" stroke-width="0.5"/>
<path d="M 550.19 402.23 562.51 428.98 568.21 439.35 561.62 441.96 557.65 445.32 556.06 449.73 557.45 455.53 545.98 461.62 534.94 464.48 529.96 467.72 521.76 469.39 515.07 473.04 510 480.33 503.25 481.51 500.81 480.12 492.59 486.46 483.12 490 468.89 491.4 465.45 495.68 458.3 501.02 453.75 499.99 449.01 502.8 438.92 499.21 435.57 493.44 435.65 485.4 432.83 479.69 429.97 466.06 426.05 453.93 427.58 451.45 426.72 443.63 432.13 437.28 431.01 428.57 433.94 425.63 439.04 428.25 458.4 426.95 462.16 428.78 474.51 430.17 479.79 429.36 483.69 434.39 489.84 432.26 491.67 426.4 498.81 415.59 511.56 408.28 550.19 402.23 Z M 591.26 503.99 586.85 507.02 579 507.28 581.41 502.79 586.27 501.5 591.26 503.99 Z" fill-rule="evenodd" fill="lightgrey" stroke="white" stroke-width="0.5"/>
<path d="M 455.62 957.46 461.23 952.96 466.34 953.26 476.19 948.32 490.06 937.18 492.54 939.65 496.7 932.09 496.3 928.44 501.11 925.01 499.08 919.21 501.44 915 505.48 917.27 511.42 913.33 514.76 903.87 515.52 896.33 520.44 891.07 523.32 900.8 528.24 907.38 530.4 919.19 531.37 936.48 533.73 941.46 531.19 951.18 527.04 951.94 525.57 945.05 521.83 946.98 524.02 957.5 523.71 962.87 517.18 974.41 517.77 980.38 514.94 992.39 510.34 1002.51 501.58 1026.34 495.25 1045.57 490.33 1056.37 488.21 1065 430.13 1065 428.04 1061.87 426.84 1052.8 431.15 1039.4 435.98 1036.55 437.55 1031.17 446.45 1015.87 446.7 1008.06 443.89 1002.33 444.55 998.38 442.09 992.43 442.55 982.06 441.58 977.12 449.01 965.2 449.79 957.1 455.62 957.46 Z" fill="lightgrey" stroke="white" stroke-width="0.5"/>
<path d="M 625.63 1017.24 628.28 1020.76 626.24 1024.81 622.02 1023.98 625.63 1017.24 Z" fill="lightgrey" stroke="white" stroke-width="0.5"/>
</g>
<g id="selected">
<path d="M 310.41 552.71 313.62 539.87 312.86 535.19 316.99 530.24 321.81 530.77 321.8 524 325.22 514.19 330.42 503.49 337.35 501.18 338.51 491.09 340.44 487.78 342 476.86 349.53 476.52 352.46 473.8 356.43 479.18 360.42 467.15 368.13 474.44 382.72 472.75 391.25 473.67 401.57 479.35 406.87 487.08 414.3 492.88 417.79 498.74 424.04 505.21 415.87 519.85 416.87 528.8 428.13 526.92 432.45 528.35 429.53 533.72 431.65 540.82 440.13 553.36 448.72 560.1 490.19 575.7 504.08 575.7 483.07 599.36 462.98 624.36 449.44 623.69 437.7 628.52 433.22 634.23 424.13 635.58 420.7 639.09 409.98 639.33 405.02 634.24 392.38 640.82 386.73 647.21 366.36 643.05 350.44 631.91 339.27 631.73 337.55 628.96 335.62 626.68 335.83 618.09 325.87 613.14 323.95 607.06 320.52 597.13 317.59 595.32 306.09 581.05 296.81 578.78 298.33 569.27 309.38 568.62 311.28 565.77 310.41 552.71 Z" fill="#084594" stroke="#9ecae1" stroke-width="0.6"/>
<path d="M 424.04 505.21 417.79 498.74 414.3 492.88 406.87 487.08 401.57 479.35 391.25 473.67 382.72 472.75 368.13 474.44 360.42 467.15 356.43 479.18 352.46 473.8 349.53 476.52 342 476.86 340.01 463.49 346.35 445.49 345.22 441.16 346.48 432.56 352.06 433.23 353.25 428.68 364.46 423.36 367.71 417.86 372.73 427.44 376.6 439.57 378.02 447.76 385.33 461.09 387.31 457.3 391.63 465.53 397.96 466.06 400.79 469.93 405.64 470.9 413.33 481.96 422.05 487.73 429.24 498.96 434.1 501.4 428.24 506.88 424.04 505.21 Z" fill="#084594" stroke="#9ecae1" stroke-width="0.6"/>
</g>
</svg>